start_time,end_time,note_value,velocity,instrument_program_number
0.1764705,0.34926453,67,80,0
0.352941,0.525735,72,80,0
0.352941,0.525735,67,80,0
0.352941,0.525735,64,80,0
0.5294115,0.70220554,71,80,0
0.5294115,0.70220554,65,80,0
0.5294115,0.70220554,62,80,0
0.705882,0.87867606,72,80,0
0.705882,0.87867606,67,80,0
0.705882,0.87867606,64,80,0
0.8823525,1.0551466,74,80,0
0.8823525,1.0551466,69,80,0
0.8823525,1.0551466,65,80,0
1.058823,1.231617,76,80,0
1.058823,1.231617,71,80,0
1.058823,1.231617,67,80,0
1.2352935,1.4080875,77,80,0
1.2352935,1.4080875,72,80,0
1.2352935,1.4080875,69,80,0
1.411764,1.584558,79,80,0
1.411764,1.584558,74,80,0
1.411764,1.584558,71,80,0
1.5882345,1.7610285,81,80,0
1.5882345,1.7610285,76,80,0
1.5882345,1.7610285,72,80,0
1.764705,1.937499,83,80,0
1.764705,1.937499,77,80,0
1.764705,1.937499,74,80,0
1.9411755,2.1139696,84,80,0
1.9411755,2.1139696,79,80,0
1.9411755,2.1139696,76,80,0
2.117646,2.29044,86,80,0
2.117646,2.29044,81,80,0
2.117646,2.29044,77,80,0
2.2941165,2.4669106,88,80,0
2.2941165,2.4669106,84,80,0
2.470587,2.8198516,84,80,0
2.470587,2.8198516,89,80,0
2.823528,2.996322,88,80,0
2.823528,2.996322,84,80,0
2.9999986,3.349263,84,80,0
2.9999986,3.349263,89,80,0
3.3529396,3.5257335,88,80,0
3.3529396,3.5257335,84,80,0
3.52941,3.8786745,86,80,0
3.52941,3.8786745,84,80,0
4.4117627,4.5845566,62,80,0
4.588233,4.761027,67,80,0
4.588233,4.761027,62,80,0
4.588233,4.761027,59,80,0
4.7647033,4.9374976,66,80,0
4.7647033,4.9374976,60,80,0
4.7647033,4.9374976,57,80,0
4.941174,5.113968,67,80,0
4.941174,5.113968,62,80,0
4.941174,5.113968,59,80,0
5.1176443,5.2904387,69,80,0
5.1176443,5.2904387,64,80,0
5.1176443,5.2904387,60,80,0
5.294115,5.466909,71,80,0
5.294115,5.466909,65,80,0
5.294115,5.466909,62,80,0
5.4705853,5.6433797,72,80,0
5.4705853,5.6433797,67,80,0
5.4705853,5.6433797,64,80,0
5.647056,5.81985,74,80,0
5.647056,5.81985,69,80,0
5.647056,5.81985,65,80,0
5.8235264,5.9963207,76,80,0
5.8235264,5.9963207,71,80,0
5.8235264,5.9963207,67,80,0
5.999997,6.172791,77,80,0
5.999997,6.172791,72,80,0
5.999997,6.172791,69,80,0
6.1764674,6.3492618,79,80,0
6.1764674,6.3492618,74,80,0
6.1764674,6.3492618,71,80,0
6.352938,6.525732,81,80,0
6.352938,6.525732,76,80,0
6.352938,6.525732,72,80,0
6.5294085,6.7022023,83,80,0
6.5294085,6.7022023,77,80,0
6.5294085,6.7022023,74,80,0
6.705879,7.0551434,84,80,0
6.705879,7.0551434,79,80,0
6.705879,7.0551434,76,80,0
7.05882,7.231614,86,80,0
7.05882,7.231614,79,80,0
7.05882,7.231614,77,80,0
7.2352905,7.584555,84,80,0
7.2352905,7.584555,79,80,0
7.2352905,7.584555,76,80,0
7.5882316,7.7610254,86,80,0
7.5882316,7.7610254,79,80,0
7.5882316,7.7610254,77,80,0
7.764702,8.113967,76,80,0
7.764702,8.113967,79,80,0
7.764702,8.113967,84,80,0
8.294113,8.378673,81,80,0
8.382349,8.4669075,79,80,0
8.470584,8.555142,77,80,0
8.558819,8.643378,76,80,0
8.647055,8.731613,74,80,0
8.73529,8.819848,72,80,0
8.823525,8.908084,71,80,0
8.91176,8.996319,72,80,0
8.999995,9.084555,71,80,0
9.088231,9.17279,69,80,0
9.176466,9.261024,71,80,0
9.264701,9.34926,67,80,0
9.352937,9.437495,72,80,0
9.441172,9.52573,74,80,0
9.529407,9.613966,72,80,0
9.617642,9.702201,71,80,0
9.705877,9.790437,72,80,0
9.794113,9.878672,67,80,0
9.882348,9.966907,74,80,0
9.970583,10.055142,76,80,0
10.058819,10.143377,74,80,0
10.147054,10.231612,73,80,0
10.235289,10.319848,74,80,0
10.323524,10.408083,67,80,0
10.411759,10.496318,79,80,0
10.499994,10.584554,77,80,0
10.58823,10.672789,76,80,0
10.676465,10.761024,74,80,0
10.764701,10.849259,72,80,0
10.852936,10.937494,71,80,0
10.941171,11.02573,72,80,0
11.029407,11.113965,74,80,0
11.117641,11.2022,72,80,0
11.205876,11.290436,71,80,0
11.294112,11.378671,72,80,0
11.382347,11.466906,67,80,0
11.470583,11.555141,74,80,0
11.558818,11.643376,76,80,0
11.647053,11.731612,74,80,0
11.735289,11.819847,73,80,0
11.8235235,11.908082,74,80,0
11.911758,11.996318,67,80,0
11.999994,12.084553,76,80,0
12.088229,12.172788,77,80,0
12.176464,12.2610235,76,80,0
12.2647,12.349258,75,80,0
12.352935,12.437493,76,80,0
12.441171,12.525729,72,80,0
12.529406,12.613964,81,80,0
12.6176405,12.7022,79,80,0
12.705876,12.790435,77,80,0
12.794111,12.87867,76,80,0
12.882346,12.966906,74,80,0
12.970582,13.0551405,72,80,0
13.058817,13.143375,78,80,0
13.147052,13.231611,79,80,0
13.235288,13.319846,78,80,0
13.323523,13.408081,76,80,0
13.411758,13.496317,78,80,0
13.499993,13.584552,74,80,0
13.588228,13.672788,79,80,0
13.676464,13.761023,81,80,0
13.764699,13.849257,79,80,0
13.852934,13.937493,78,80,0
13.94117,14.025728,79,80,0
14.029405,14.113963,74,80,0
14.11764,14.202199,81,80,0
14.205875,14.290434,83,80,0
14.29411,14.37867,81,80,0
14.382346,14.466905,80,80,0
14.470581,14.55514,81,80,0
14.558816,14.643375,74,80,0
14.647052,14.73161,86,80,0
14.735287,14.819845,84,80,0
14.823522,14.908081,83,80,0
14.911757,14.996316,81,80,0
14.999992,15.084551,79,80,0
15.088228,15.172787,78,80,0
15.176463,15.261022,79,80,0
15.264698,15.349257,81,80,0
15.352934,15.437492,79,80,0
15.441169,15.525727,78,80,0
15.529404,15.613963,79,80,0
15.61764,15.702198,74,80,0
15.705874,15.790433,86,80,0
15.794109,15.878669,88,80,0
15.882345,15.966904,86,80,0
15.97058,16.05514,85,80,0
16.058815,16.143373,86,80,0
16.14705,16.23161,78,80,0
16.235287,16.319845,79,80,0
16.32352,16.40808,81,80,0
16.411757,16.496315,79,80,0
16.499992,16.58455,78,80,0
16.588226,16.672787,79,80,0
16.676462,16.76102,74,80,0
16.764698,16.849257,86,80,0
16.852932,16.937492,88,80,0
16.941168,17.025726,86,80,0
17.029404,17.113962,85,80,0
17.117638,17.202198,86,80,0
17.205873,17.290432,78,80,0
17.29411,17.378668,79,80,0
17.382345,17.466904,81,80,0
17.47058,17.555138,79,80,0
17.558815,17.643373,78,80,0
17.64705,17.73161,79,80,0
17.735285,17.819843,81,80,0
17.82352,17.90808,83,80,0
17.911757,17.996315,84,80,0
17.99999,18.084549,83,80,0
18.088226,18.172785,82,80,0
18.176462,18.26102,83,80,0
18.264696,18.349255,84,80,0
18.352932,18.43749,86,80,0
18.441168,18.525726,88,80,0
18.529402,18.613962,86,80,0
18.617638,18.702196,85,80,0
18.705873,18.790432,86,80,0
18.794107,18.878668,88,80,0
18.882343,18.966902,89,80,0
18.97058,19.055138,86,80,0
19.058813,19.143373,83,80,0
19.147049,19.231607,79,80,0
19.235285,19.319843,77,80,0
19.32352,19.40808,74,80,0
19.411755,19.584549,72,80,0
19.411755,19.584549,67,80,0
19.411755,19.584549,64,80,0
19.588226,19.761019,71,80,0
19.588226,19.761019,65,80,0
19.588226,19.761019,62,80,0
19.764696,19.93749,72,80,0
19.764696,19.93749,67,80,0
19.764696,19.93749,64,80,0
19.941166,20.11396,74,80,0
19.941166,20.11396,69,80,0
19.941166,20.11396,65,80,0
20.117638,20.290432,76,80,0
20.117638,20.290432,71,80,0
20.117638,20.290432,67,80,0
20.294107,20.466902,77,80,0
20.294107,20.466902,72,80,0
20.294107,20.466902,69,80,0
20.470577,20.643372,79,80,0
20.470577,20.643372,74,80,0
20.470577,20.643372,71,80,0
20.647049,20.819843,81,80,0
20.647049,20.819843,76,80,0
20.647049,20.819843,72,80,0
20.823519,20.996313,83,80,0
20.823519,20.996313,77,80,0
20.823519,20.996313,74,80,0
20.999989,21.172783,84,80,0
20.999989,21.172783,79,80,0
20.999989,21.172783,76,80,0
21.17646,21.349255,86,80,0
21.17646,21.349255,81,80,0
21.17646,21.349255,77,80,0
21.35293,21.525724,88,80,0
21.35293,21.525724,84,80,0
21.529402,21.878666,84,80,0
21.529402,21.878666,89,80,0
21.882341,22.055136,88,80,0
21.882341,22.055136,84,80,0
22.058813,22.408077,84,80,0
22.058813,22.408077,89,80,0
22.411753,22.584547,88,80,0
22.411753,22.584547,84,80,0
22.588224,22.937489,87,80,0
22.588224,22.937489,84,80,0
22.588224,22.937489,81,80,0
23.470577,23.64337,83,80,0
23.647047,23.996311,88,80,0
23.647047,23.996311,76,80,0
23.999989,24.172783,75,80,0
23.999989,24.172783,87,80,0
24.176458,24.525723,88,80,0
24.176458,24.525723,76,80,0
24.5294,24.702194,74,80,0
24.5294,24.702194,86,80,0
24.70587,25.055134,73,80,0
24.70587,25.055134,85,80,0
25.588223,25.672781,81,100,0
25.63234,25.716898,83,100,0
25.676458,25.761017,79,100,0
25.720575,25.761017,81,100,0
25.764692,26.113958,74,110,0
25.764692,26.113958,86,110,0
26.117634,26.290428,72,110,0
26.117634,26.290428,84,110,0
26.294104,26.64337,71,110,0
26.294104,26.64337,83,110,0
26.647045,26.81984,81,110,0
26.647045,26.81984,69,110,0
26.823517,27.172781,67,110,0
26.823517,27.172781,79,110,0
27.176456,27.34925,78,110,0
27.176456,27.34925,66,110,0
27.352928,27.702192,64,110,0
27.352928,27.702192,76,110,0
27.705868,27.878662,74,110,0
27.705868,27.878662,62,110,0
27.88234,28.231604,60,110,0
27.88234,28.231604,72,110,0
28.23528,28.408073,71,110,0
28.23528,28.408073,59,110,0
28.41175,28.761015,69,110,0
28.41175,28.761015,57,110,0
28.764692,28.937485,68,110,0
28.764692,28.937485,56,110,0
28.941162,29.290426,69,110,0
28.941162,29.290426,57,110,0
29.294104,29.466898,68,110,0
29.294104,29.466898,56,110,0
29.470573,29.819838,69,110,0
29.470573,29.819838,57,110,0
29.823515,29.99631,67,110,0
29.823515,29.99631,55,110,0
29.999985,30.349249,66,110,0
31.058807,31.761013,72,90,0
31.76469,31.937485,69,90,0
31.94116,32.113953,66,90,0
32.11763,32.466896,74,90,0
32.470573,32.55513,71,90,0
32.558807,32.643368,67,90,0
32.64704,32.996307,74,90,0
32.999985,33.08454,71,90,0
33.08822,33.17278,67,90,0
33.176453,33.87866,72,90,0
33.882336,34.05513,69,90,0
34.058807,34.2316,66,90,0
34.235275,34.58454,74,105,0
34.58822,34.672775,71,90,0
34.676453,34.761013,67,90,0
34.76469,35.113953,74,107,0
35.11763,35.202187,71,90,0
35.205864,35.290424,67,90,0
35.2941,35.996307,72,90,0
35.99998,36.172775,69,90,0
36.176453,36.349247,66,90,0
36.352924,36.52572,74,80,0
36.529392,36.702187,71,80,0
36.705864,36.87866,66,80,0
36.882336,37.05513,67,80,0
37.058804,37.231598,71,80,0
37.235275,37.40807,63,80,0
37.411747,37.58454,64,80,0
37.588215,37.76101,67,80,0
37.764687,37.93748,59,80,0
37.94116,38.113953,60,80,0
38.117626,38.29042,64,80,0
38.294098,38.466892,56,80,0
38.47057,38.643364,57,80,0
38.64704,38.81983,60,80,0
38.82351,38.996304,59,80,0
38.99998,39.172775,57,80,0
39.176453,39.349243,59,80,0
39.35292,39.525715,60,80,0
39.529392,39.702187,62,80,0
39.705864,39.87866,61,80,0
39.88233,40.055126,62,80,0
40.058804,40.231598,50,80,0
40.235275,40.40807,52,80,0
40.411743,40.584538,54,80,0
40.67645,40.76101,55,80,0
40.764687,40.849243,59,80,0
40.85292,40.93748,62,80,0
40.941154,41.025715,66,80,0
41.029392,41.11395,67,80,0
41.117626,41.202187,71,80,0
41.20586,41.29042,74,80,0
41.294098,41.378654,78,80,0
41.38233,41.466892,79,80,0
41.470566,41.555126,81,80,0
41.558804,41.64336,83,80,0
41.647038,42.349243,84,80,0
42.35292,42.525715,81,80,0
42.529392,42.702183,78,80,0
42.70586,43.055126,86,80,0
43.058804,43.14336,83,80,0
43.147038,43.231598,79,80,0
43.23527,43.584538,86,80,0
43.588215,43.67277,83,80,0
43.67645,43.76101,79,80,0
43.764683,44.46689,84,80,0
44.470566,44.64336,81,80,0
44.647038,44.81983,78,80,0
44.823505,45.17277,86,80,0
45.17645,45.261005,82,80,0
45.264683,45.349243,79,80,0
45.352917,45.702183,86,80,0
45.70586,45.790417,82,80,0
45.794094,45.878654,79,80,0
45.88233,46.584534,84,80,0
46.58821,46.761005,81,80,0
46.764683,46.937477,78,80,0
46.941154,47.11395,86,80,0
47.117622,47.290417,82,80,0
47.294094,47.46689,78,80,0
47.470566,47.64336,79,80,0
47.647034,47.819828,82,80,0
47.823505,47.9963,74,80,0
47.999977,48.17277,75,80,0
48.176445,48.34924,79,80,0
48.352917,48.52571,71,80,0
48.52939,48.702183,72,80,0
48.705856,48.87865,75,80,0
48.882328,49.055122,67,80,0
49.0588,49.231594,68,80,0
49.235268,49.408062,84,80,0
49.41174,49.584534,76,80,0
49.58821,49.761005,77,80,0
49.764683,49.937473,80,80,0
49.94115,50.113945,73,80,0
50.117622,50.290417,74,80,0
50.294094,50.46689,77,80,0
50.470562,50.643356,69,80,0
50.647034,50.819828,70,80,0
50.823505,50.9963,74,80,0
50.999973,51.172768,66,80,0
51.176445,51.34924,67,80,0
51.352917,51.52571,82,80,0
51.529385,51.70218,74,80,0
51.705856,51.87865,75,80,0
51.882328,52.055122,79,80,0
52.058796,52.23159,71,80,0
52.235268,52.408062,72,80,0
52.41174,52.584534,75,80,0
52.588207,52.761,67,80,0
52.76468,52.937473,68,80,0
52.94115,53.113945,72,80,0
53.117622,53.290413,64,80,0
53.29409,53.466885,65,80,0
53.470562,53.643356,68,80,0
53.647034,53.819824,61,80,0
53.8235,53.996296,62,80,0
53.999973,54.172768,65,80,0
54.176445,54.34924,58,80,0
54.352913,54.525707,59,80,0
54.529385,54.70218,62,80,0
54.705856,54.87865,54,80,0
54.882324,55.05512,55,80,0
55.058796,55.23159,59,80,0
55.235268,55.408062,50,80,0
55.411736,55.58453,51,100,0
55.588207,55.761,55,100,0
55.76468,55.937473,47,100,0
55.941147,56.11394,48,100,0
56.11762,56.290413,51,100,0
56.29409,56.466885,43,100,0
56.47056,56.643353,44,100,0
56.64703,56.819824,48,100,0
56.8235,56.996296,43,100,0
56.999973,57.172764,44,100,0
57.17644,57.349236,48,100,0
57.352913,57.525707,42,100,0
57.529385,57.702175,43,80,0
57.705853,57.878647,47,80,0
57.882324,58.05512,50,80,0
58.058796,58.23159,55,80,0
58.235264,58.40806,57,80,0
58.411736,58.58453,59,80,0
58.588207,58.761,60,80,0
58.764675,58.93747,55,80,0
58.941147,59.11394,62,80,0
59.11762,59.290413,63,80,0
59.294086,59.46688,55,80,0
59.47056,59.643353,66,80,0
59.64703,60.172764,67,80,0
60.17644,60.702175,65,80,0
60.705853,61.231586,63,80,0
59.64703,61.760998,55,104,0
61.235264,61.760998,60,80,0
61.941147,62.11394,59,80,0
62.117615,62.29041,62,80,0
62.294086,62.46688,67,80,0
62.47056,62.643353,69,80,0
62.647026,62.81982,71,80,0
62.823498,62.996292,72,80,0
62.99997,63.172764,67,80,0
63.176437,63.34923,74,80,0
63.35291,63.525703,75,80,0
63.52938,63.702175,67,80,0
63.70585,63.878643,78,80,0
63.88232,64.40806,79,80,0
64.411736,64.93747,77,80,0
64.94115,65.46688,75,80,0
63.88232,65.99629,67,103,0
65.47056,65.99629,72,80,0
65.99997,66.17276,71,80,0
66.17644,66.34923,66,80,0
66.352905,66.5257,67,80,0
66.52938,66.70217,69,80,0
66.70585,66.87864,71,80,0
66.88232,67.055115,72,80,0
67.05879,67.23158,74,80,0
67.23526,67.40806,76,80,0
67.41173,67.584526,78,80,0
67.5882,67.760994,79,80,0
67.76467,67.93747,81,80,0
67.94114,68.11394,83,80,0
68.117615,68.290405,71,80,0
68.29408,68.46688,69,80,0
68.47055,68.64335,71,80,0
68.647026,68.81982,72,80,0
68.823494,68.99629,74,80,0
68.99996,69.17276,76,80,0
69.17644,69.34923,78,80,0
69.352905,69.5257,79,80,0
69.52938,69.70217,81,80,0
69.70585,69.87864,83,80,0
69.88232,70.055115,84,80,0
70.05879,70.23158,86,80,0
70.5882,70.760994,89,70,0
70.76467,70.93746,88,70,0
70.94114,71.11394,86,70,0
71.117615,71.290405,84,70,0
71.29408,71.46687,83,70,0
71.47055,71.64335,81,70,0
71.647026,71.81982,79,70,0
71.823494,71.996284,77,70,0
71.99996,72.17276,76,70,0
72.17644,72.34923,74,70,0
72.352905,72.525696,72,80,0
72.352905,72.525696,67,80,0
72.352905,72.525696,64,80,0
72.52937,72.70217,71,80,0
72.52937,72.70217,65,80,0
72.52937,72.70217,62,80,0
72.70585,72.87864,72,80,0
72.70585,72.87864,67,80,0
72.70585,72.87864,64,80,0
72.88232,73.05511,74,80,0
72.88232,73.05511,69,80,0
72.88232,73.05511,65,80,0
73.058784,73.23158,76,80,0
73.058784,73.23158,71,80,0
73.058784,73.23158,67,80,0
73.23526,73.40805,77,80,0
73.23526,73.40805,72,80,0
73.23526,73.40805,69,80,0
73.41173,73.58452,79,80,0
73.41173,73.58452,74,80,0
73.41173,73.58452,71,80,0
73.588196,73.760994,81,80,0
73.588196,73.760994,76,80,0
73.588196,73.760994,72,80,0
73.76467,73.93746,83,80,0
73.76467,73.93746,77,80,0
73.76467,73.93746,74,80,0
73.94114,74.11393,84,80,0
73.94114,74.11393,79,80,0
73.94114,74.11393,76,80,0
74.11761,74.290405,86,80,0
74.11761,74.290405,81,80,0
74.11761,74.290405,77,80,0
74.29408,74.46687,88,80,0
74.29408,74.46687,84,80,0
74.47055,74.81982,84,80,0
74.47055,74.81982,89,80,0
74.823494,74.996284,88,80,0
74.823494,74.996284,84,80,0
74.99996,75.34923,84,80,0
74.99996,75.34923,89,80,0
75.352905,75.525696,88,80,0
75.352905,75.525696,84,80,0
75.52937,75.87864,86,80,0
75.52937,75.87864,84,80,0
76.41173,76.58452,62,80,0
76.588196,76.760994,67,80,0
76.588196,76.760994,62,80,0
76.588196,76.760994,59,80,0
76.76466,76.93746,66,80,0
76.76466,76.93746,60,80,0
76.76466,76.93746,57,80,0
76.94114,77.11393,67,80,0
76.94114,77.11393,62,80,0
76.94114,77.11393,59,80,0
77.11761,77.290405,69,80,0
77.11761,77.290405,64,80,0
77.11761,77.290405,60,80,0
77.29408,77.46687,71,80,0
77.29408,77.46687,65,80,0
77.29408,77.46687,62,80,0
77.47055,77.64334,72,80,0
77.47055,77.64334,67,80,0
77.47055,77.64334,64,80,0
77.64702,77.81982,74,80,0
77.64702,77.81982,69,80,0
77.64702,77.81982,65,80,0
77.823494,77.996284,76,80,0
77.823494,77.996284,71,80,0
77.823494,77.996284,67,80,0
77.99996,78.17275,77,80,0
77.99996,78.17275,72,80,0
77.99996,78.17275,69,80,0
78.17643,78.34923,79,80,0
78.17643,78.34923,74,80,0
78.17643,78.34923,71,80,0
78.352905,78.525696,81,80,0
78.352905,78.525696,76,80,0
78.352905,78.525696,72,80,0
78.52937,78.70216,83,80,0
78.52937,78.70216,77,80,0
78.52937,78.70216,74,80,0
78.70584,79.05511,84,80,0
78.70584,79.05511,79,80,0
78.70584,79.05511,76,80,0
79.058784,79.231575,86,80,0
79.058784,79.231575,79,80,0
79.058784,79.231575,77,80,0
79.23525,79.58452,84,80,0
79.23525,79.58452,79,80,0
79.23525,79.58452,76,80,0
79.588196,79.76099,86,80,0
79.588196,79.76099,79,80,0
79.588196,79.76099,77,80,0
79.76466,80.11393,76,80,0
79.76466,80.11393,79,80,0
79.76466,80.11393,84,80,0
80.82349,82.58452,67,110,0
80.82349,82.58452,76,110,0
80.82349,82.58452,79,110,0
82.588196,82.76099,77,110,0
82.588196,82.76099,67,110,0
82.588196,82.76099,74,110,0
82.76466,82.93746,76,110,0
82.76466,82.93746,67,110,0
82.76466,82.93746,72,110,0
82.94113,83.2904,74,110,0
82.94113,83.2904,71,110,0
82.94113,83.2904,67,110,0
83.294075,83.46687,76,110,0
83.294075,83.46687,72,110,0
83.294075,83.46687,67,110,0
83.47054,83.81981,74,110,0
83.47054,83.81981,71,110,0
83.47054,83.81981,67,110,0
83.82349,83.996284,76,110,0
83.82349,83.996284,73,110,0
83.82349,83.996284,67,110,0
83.999954,84.34922,77,110,0
83.999954,84.34922,74,110,0
83.999954,84.34922,69,110,0
85.058784,86.81981,69,120,0
85.058784,86.81981,77,120,0
85.058784,86.81981,81,120,0
86.82349,86.99628,79,100,0
86.82349,86.99628,69,100,0
86.82349,86.99628,76,100,0
86.999954,87.17275,77,100,0
86.999954,87.17275,69,100,0
86.999954,87.17275,74,100,0
87.17643,87.52569,76,90,0
87.17643,87.52569,73,90,0
87.17643,87.52569,69,90,0
87.529366,87.70216,77,87,0
87.529366,87.70216,74,87,0
87.529366,87.70216,69,87,0
87.70584,88.0551,76,86,0
87.70584,88.0551,73,86,0
87.70584,88.0551,69,86,0
88.05878,88.231575,78,82,0
88.05878,88.231575,75,82,0
88.05878,88.231575,69,82,0
88.23525,88.58451,76,81,0
88.23525,88.58451,79,81,0
88.23525,88.58451,71,81,0
89.294075,91.0551,71,100,0
89.294075,91.0551,79,100,0
89.294075,91.0551,83,100,0
91.05878,91.231575,81,100,0
91.05878,91.231575,78,100,0
91.05878,91.231575,71,100,0
91.235245,91.40804,79,100,0
91.235245,91.40804,76,100,0
91.235245,91.40804,71,100,0
91.58819,91.76099,78,100,0
91.58819,91.76099,75,100,0
91.76466,91.937454,79,100,0
91.76466,91.937454,76,100,0
92.1176,92.2904,78,100,0
92.1176,92.2904,81,100,0
92.294075,92.466866,79,100,0
92.294075,92.466866,83,100,0
92.64701,92.81981,84,100,0
92.64701,92.81981,81,100,0
92.82349,92.99628,83,100,0
92.82349,92.99628,79,100,0
92.999954,93.172745,81,100,0
92.999954,93.172745,78,100,0
93.17642,93.34922,79,100,0
93.17642,93.34922,76,100,0
93.3529,93.52569,78,100,0
93.3529,93.52569,75,100,0
93.70583,93.87863,80,100,0
93.70583,93.87863,83,100,0
93.88231,94.0551,81,100,0
93.88231,94.0551,84,100,0
94.235245,94.40804,83,100,0
94.235245,94.40804,86,100,0
94.41172,94.58451,84,100,0
94.41172,94.58451,88,100,0
94.764656,94.937454,89,100,0
94.764656,94.937454,86,100,0
94.94113,95.11392,88,100,0
94.94113,95.11392,84,100,0
95.1176,95.29039,86,100,0
95.1176,95.29039,83,100,0
95.29407,95.466866,84,100,0
95.29407,95.466866,81,100,0
95.47054,95.64333,83,100,0
95.47054,95.64333,80,100,0
95.82348,95.99628,76,100,0
95.82348,95.99628,73,100,0
95.999954,96.172745,77,100,0
95.999954,96.172745,74,100,0
96.35289,96.52569,79,100,0
96.35289,96.52569,76,100,0
96.529366,96.702156,81,100,0
96.529366,96.702156,77,100,0
96.8823,97.0551,79,100,0
96.8823,97.0551,82,100,0
97.05878,97.23157,81,100,0
97.05878,97.23157,77,100,0
97.235245,97.40804,79,100,0
97.235245,97.40804,76,100,0
97.41171,97.58451,77,100,0
97.41171,97.58451,74,100,0
97.58819,97.76098,76,100,0
97.58819,97.76098,73,100,0
97.941124,98.11392,81,100,0
97.941124,98.11392,77,100,0
98.1176,98.29039,79,100,0
98.1176,98.29039,76,100,0
98.29407,98.466866,77,100,0
98.29407,98.466866,74,100,0
98.470535,98.64333,76,100,0
98.470535,98.64333,73,100,0
98.64701,98.8198,74,100,0
98.999954,99.172745,89,100,0
98.999954,99.172745,86,100,0
99.17642,99.34921,88,100,0
99.17642,99.34921,84,100,0
99.35289,99.52569,86,100,0
99.35289,99.52569,83,100,0
99.529366,99.702156,84,100,0
99.529366,99.702156,81,100,0
99.70583,99.878624,83,100,0
99.70583,99.878624,80,100,0
100.05878,100.23157,88,100,0
100.05878,100.23157,84,100,0
100.235245,100.408035,86,100,0
100.235245,100.408035,83,100,0
100.41171,100.58451,84,100,0
100.41171,100.58451,81,100,0
100.58819,100.76098,83,100,0
100.58819,100.76098,80,100,0
100.764656,100.93745,81,100,0
101.1176,101.29039,71,100,0
101.29407,101.46686,86,100,0
101.64701,101.8198,68,100,0
101.82348,101.99627,83,100,0
102.17642,102.34921,69,100,0
102.35289,102.52568,81,100,0
102.70583,102.878624,65,100,0
102.8823,103.05509,77,100,0
103.235245,103.408035,62,100,0
103.41171,103.58451,74,100,0
103.764656,103.93745,59,100,0
103.941124,104.11392,71,100,0
104.29407,104.46686,56,100,0
104.470535,104.64333,68,100,0
104.82348,104.99627,57,100,0
104.99995,105.172745,69,100,0
105.35289,105.52568,51,100,0
105.52936,105.702156,63,100,0
105.8823,106.05509,52,100,0
106.05877,106.23157,64,100,0
106.41171,106.5845,45,80,0
106.58818,106.76098,57,79,0
106.941124,107.113914,46,77,0
107.11759,107.29039,58,76,0
107.470535,107.643326,47,74,0
107.647,107.8198,59,73,0
107.99995,108.17274,48,71,0
108.176414,108.34921,60,71,0
108.35289,108.878624,65,80,0
108.35289,108.878624,57,80,0
108.35289,108.878624,60,80,0
108.8823,109.408035,69,80,0
108.8823,109.408035,65,80,0
108.8823,109.408035,60,80,0
109.41171,109.93745,72,80,0
109.41171,109.93745,69,80,0
109.41171,109.93745,65,80,0
109.941124,110.46686,69,80,0
109.941124,110.46686,77,80,0
109.941124,110.46686,72,80,0
110.470535,110.99627,76,80,0
110.470535,110.99627,72,80,0
110.470535,110.99627,67,80,0
110.99995,111.52568,74,80,0
110.99995,111.52568,71,80,0
110.99995,111.52568,65,80,0
111.52936,112.05509,72,80,0
111.52936,112.05509,67,80,0
111.52936,112.05509,64,80,0
112.05877,112.5845,70,80,0
112.05877,112.5845,67,80,0
112.05877,112.5845,60,80,0
112.58818,113.113914,69,80,0
112.58818,113.113914,65,80,0
112.58818,113.113914,60,80,0
113.11759,113.643326,67,80,0
113.11759,113.643326,64,80,0
113.11759,113.643326,58,80,0
113.647,114.17274,65,80,0
113.647,114.17274,60,80,0
113.647,114.17274,57,80,0
114.176414,114.70215,67,80,0
114.176414,114.70215,62,80,0
114.176414,114.70215,55,80,0
114.705826,115.23156,64,80,0
114.705826,115.23156,60,80,0
114.705826,115.23156,55,80,0
115.23524,115.76097,62,80,0
115.23524,115.76097,59,80,0
115.23524,115.76097,53,80,0
115.76465,116.113914,60,80,0
115.76465,116.113914,55,80,0
115.76465,116.113914,52,80,0
116.99994,117.17274,81,80,0
117.176414,117.349205,84,80,0
117.52935,117.70215,77,80,0
117.705826,117.87862,81,80,0
118.05876,118.23156,80,80,0
118.23524,118.40803,81,80,0
118.58817,118.76097,72,80,0
118.76465,118.93744,81,80,0
119.117584,119.29038,81,80,0
119.29406,119.46685,79,80,0
119.646996,119.81979,77,80,0
119.82347,119.99626,83,80,0
120.17641,120.349205,76,80,0
120.35288,120.52567,84,80,0
120.705826,120.87862,76,80,0
120.88229,121.055084,86,80,0
121.23524,121.40803,86,80,0
121.411705,121.584496,84,80,0
121.76465,121.93744,82,80,0
121.94112,122.11391,88,80,0
122.29406,122.46685,81,80,0
122.47053,122.64332,89,80,0
122.82347,122.99626,70,80,0
122.99994,123.17273,86,80,0
123.35288,123.52567,69,80,0
123.52935,123.70214,84,80,0
123.88229,124.055084,70,80,0
124.05876,124.23155,76,80,0
124.23523,124.584496,77,80,0
124.23523,124.584496,69,80,0
125.82346,126.17273,70,100,0
126.17641,126.349205,69,100,0
126.352875,126.39332,69,100,0
126.396996,126.52567,67,100,0
126.52935,126.70214,66,100,0
126.70582,126.87862,67,100,0
126.882286,126.92273,70,100,0
126.92641,127.055084,69,100,0
127.05876,127.23155,67,100,0
127.23523,127.40803,69,100,0
127.4117,127.76096,70,100,0
127.94111,128.29037,74,100,0
128.29405,128.46684,72,100,0
128.47052,128.64331,70,100,0
128.64699,128.8198,72,100,0
128.82347,128.99626,70,100,0
128.99994,129.17273,69,100,0
129.1764,129.3492,70,100,0
129.35287,129.52567,69,100,0
129.52934,129.87862,67,100,0
130.05876,130.40802,70,100,0
130.4117,130.58449,69,100,0
130.58817,130.62862,69,100,0
130.6323,130.76097,67,100,0
130.76463,130.93744,66,100,0
130.94112,131.1139,67,100,0
131.11758,131.15802,70,100,0
131.1617,131.29037,69,100,0
131.29405,131.46684,67,100,0
131.47052,131.64331,69,100,0
131.64699,131.99626,70,100,0
132.1764,132.52567,74,100,0
132.52934,132.70213,72,100,0
132.70581,132.87862,70,100,0
132.8823,133.05714,74,97,0
133.06085,133.23781,72,93,0
133.24158,133.4207,70,89,0
133.4245,133.60583,69,85,0
133.6097,133.79561,67,81,0
133.79956,134.3253,65,80,0
133.79956,134.3253,57,80,0
133.79956,134.3253,60,80,0
134.32898,134.8547,69,80,0
134.32898,134.8547,65,80,0
134.32898,134.8547,60,80,0
134.85838,135.38412,72,80,0
134.85838,135.38412,69,80,0
134.85838,135.38412,65,80,0
135.3878,135.91353,69,80,0
135.3878,135.91353,77,80,0
135.3878,135.91353,72,80,0
135.9172,136.44295,76,80,0
135.9172,136.44295,72,80,0
135.9172,136.44295,67,80,0
136.44662,136.97235,74,80,0
136.44662,136.97235,65,80,0
136.44662,136.97235,67,80,0
136.97603,137.50177,72,80,0
136.97603,137.50177,67,80,0
136.97603,137.50177,64,80,0
137.50545,138.03117,70,80,0
137.50545,138.03117,67,80,0
137.50545,138.03117,60,80,0
138.03485,138.5606,69,80,0
138.03485,138.5606,65,80,0
138.03485,138.5606,60,80,0
138.56427,139.09,67,80,0
138.56427,139.09,64,80,0
138.56427,139.09,58,80,0
139.09367,139.61942,65,80,0
139.09367,139.61942,60,80,0
139.09367,139.61942,57,80,0
139.6231,140.14882,67,80,0
139.6231,140.14882,62,80,0
139.6231,140.14882,55,80,0
140.1525,140.67824,57,80,0
140.1525,140.67824,53,80,0
140.1525,140.67824,60,80,0
140.68192,141.20764,64,80,0
140.68192,141.20764,58,80,0
140.68192,141.20764,55,80,0
140.68192,141.20764,60,80,0
141.21132,141.5606,60,80,0
141.21132,141.5606,65,80,0
141.21132,141.5606,57,80,0
142.79956,143.14882,70,100,0
143.1525,143.3253,69,100,0
143.32896,143.36942,69,100,0
143.3731,143.50177,67,100,0
143.50545,143.67824,66,100,0
143.68192,143.8547,67,100,0
143.85838,143.89882,70,100,0
143.9025,144.03117,69,100,0
144.03485,144.20764,67,100,0
144.21132,144.38412,69,100,0
144.3878,144.73706,70,100,0
144.9172,145.26646,74,100,0
145.27014,145.44295,72,100,0
145.44662,145.61942,70,100,0
145.6231,145.79588,72,100,0
145.79956,145.97235,70,100,0
145.97603,146.14882,69,100,0
146.1525,146.32529,70,100,0
146.32896,146.50177,69,100,0
146.50545,146.8547,67,100,0
147.03485,147.38411,70,100,0
147.38779,147.5606,69,100,0
147.56427,147.6047,69,100,0
147.60838,147.73706,67,100,0
147.74074,147.91353,66,100,0
147.9172,148.09,67,100,0
148.09367,148.13411,70,100,0
148.13779,148.26646,69,100,0
148.27014,148.44293,67,100,0
148.44661,148.61942,69,100,0
148.6231,148.97235,70,100,0
149.1525,149.50177,74,100,0
149.50543,149.67824,72,100,0
149.68192,149.8547,70,100,0
149.85838,150.03323,74,97,0
150.03696,150.21391,72,93,0
150.21767,150.39789,70,89,0
150.40172,150.58531,69,85,0
150.58922,150.77873,67,81,0
150.78278,151.3085,65,80,0
150.78278,151.3085,57,80,0
150.78278,151.3085,60,80,0
151.31218,151.83792,69,80,0
151.31218,151.83792,65,80,0
151.31218,151.83792,60,80,0
151.8416,152.36732,72,80,0
151.8416,152.36732,69,80,0
151.8416,152.36732,65,80,0
152.371,152.89674,69,80,0
152.371,152.89674,77,80,0
152.371,152.89674,72,80,0
152.90042,153.42615,76,80,0
152.90042,153.42615,72,80,0
152.90042,153.42615,67,80,0
153.42982,153.95557,74,80,0
153.42982,153.95557,65,80,0
153.42982,153.95557,67,80,0
153.95924,154.48497,72,80,0
153.95924,154.48497,67,80,0
153.95924,154.48497,64,80,0
154.48865,155.01439,70,80,0
154.48865,155.01439,67,80,0
154.48865,155.01439,60,80,0
155.01807,155.19086,68,80,0
155.01807,155.19086,65,80,0
155.01807,155.19086,60,80,0
155.19453,155.36732,80,80,0
155.371,155.5438,84,80,0
155.72394,155.89674,77,80,0
155.90042,156.07321,80,80,0
156.25336,156.42615,72,80,0
156.42982,156.60262,77,80,0
156.78276,156.95557,68,80,0
156.95924,157.13203,80,80,0
157.31218,157.48497,80,80,0
157.48865,157.66144,79,80,0
157.84158,158.01439,67,80,0
158.01807,158.19086,77,80,0
158.371,158.5438,77,80,0
158.54747,158.72026,75,80,0
158.9004,159.07321,73,80,0
159.07689,159.24968,85,80,0
159.42982,159.60262,84,80,0
159.6063,159.77908,87,80,0
159.95924,160.13203,80,80,0
160.13571,160.3085,84,80,0
160.48865,160.66144,75,80,0
160.66512,160.8379,80,80,0
161.01807,161.19086,72,80,0
161.19453,161.36732,84,80,0
161.54747,161.72026,84,80,0
161.72394,161.89673,83,80,0
162.07689,162.24968,71,80,0
162.25336,162.42615,80,80,0
162.6063,162.77908,80,80,0
162.78276,162.95555,79,80,0
163.13571,163.3085,77,80,0
163.31218,163.48497,89,80,0
163.48865,164.01439,75,80,0
163.48865,164.01439,72,80,0
163.48865,164.01439,67,80,0
164.01805,164.5438,72,80,0
164.01805,164.5438,75,80,0
164.01805,164.5438,79,80,0
164.54747,165.07321,75,80,0
164.54747,165.07321,79,80,0
164.54747,165.07321,84,80,0
165.07687,165.60262,72,80,0
165.07687,165.60262,81,80,0
165.07687,165.60262,84,80,0
165.6063,166.13203,83,80,0
165.6063,166.13203,79,80,0
165.6063,166.13203,71,80,0
166.1357,166.66144,69,80,0
166.1357,166.66144,78,80,0
166.1357,166.66144,81,80,0
166.66512,167.19086,79,80,0
166.66512,167.19086,67,80,0
167.19453,167.72026,82,80,0
167.19453,167.72026,79,80,0
167.19453,167.72026,70,80,0
167.72394,168.24968,80,80,0
167.72394,168.24968,77,80,0
167.72394,168.24968,68,80,0
168.25336,168.77908,67,80,0
168.25336,168.77908,79,80,0
168.25336,168.77908,76,80,0
168.78276,169.3085,77,80,0
168.78276,169.3085,65,80,0
169.31218,169.8379,79,80,0
169.31218,169.8379,74,80,0
169.31218,169.8379,67,80,0
169.84158,170.36732,75,80,0
169.84158,170.36732,72,80,0
169.84158,170.36732,67,80,0
170.371,170.89673,74,80,0
170.371,170.89673,71,80,0
170.371,170.89673,65,80,0
170.9004,171.42615,72,80,0
170.9004,171.42615,67,80,0
170.9004,171.42615,63,80,0
171.42982,171.95555,74,80,0
171.42982,171.95555,69,80,0
171.42982,171.95555,62,80,0
171.95923,172.48497,71,80,0
171.95923,172.48497,67,80,0
171.95923,172.48497,62,80,0
172.48865,173.01437,69,80,0
172.48865,173.01437,66,80,0
172.48865,173.01437,60,80,0
173.01805,173.5438,67,80,0
173.01805,173.5438,62,80,0
173.01805,173.5438,59,80,0
173.54747,174.0732,63,80,0
173.54747,174.0732,60,80,0
173.54747,174.0732,54,80,0
174.07687,174.60262,62,80,0
174.07687,174.60262,59,80,0
174.07687,174.60262,55,80,0
174.6063,175.13202,60,70,0
174.6063,175.13202,54,70,0
174.6063,175.13202,51,70,0
175.1357,175.66144,59,70,0
175.1357,175.66144,55,70,0
175.1357,175.66144,50,70,0
175.66512,176.19084,57,70,0
175.66512,176.19084,54,70,0
175.66512,176.19084,48,70,0
176.19452,176.5438,55,70,0
176.19452,176.5438,47,70,0
176.72394,177.0732,62,101,0
177.07687,177.24966,60,80,0
177.25334,177.2938,60,80,0
177.29747,177.42613,59,80,0
177.42981,177.60262,57,80,0
177.6063,177.77908,59,80,0
177.78276,177.8232,62,80,0
177.82687,177.95555,60,80,0
177.95923,178.13202,59,80,0
178.1357,178.30849,60,80,0
178.31216,178.66144,62,80,0
178.84158,179.19084,65,100,0
178.84158,179.19084,62,100,0
179.19452,179.36731,64,80,0
179.19452,179.36731,60,80,0
179.37099,179.41144,64,80,0
179.37099,179.41144,60,80,0
179.41512,179.5438,62,80,0
179.41512,179.5438,59,80,0
179.54745,179.72026,60,80,0
179.54745,179.72026,57,80,0
179.72394,179.89673,62,80,0
179.72394,179.89673,59,80,0
179.9004,179.94084,65,80,0
179.9004,179.94084,62,80,0
179.94452,180.0732,64,80,0
179.94452,180.0732,60,80,0
180.07687,180.24966,62,80,0
180.07687,180.24966,59,80,0
180.25334,180.42613,64,80,0
180.25334,180.42613,60,80,0
180.42981,180.77908,65,80,0
180.42981,180.77908,62,80,0
180.95923,181.30849,69,100,0
180.95923,181.30849,65,100,0
181.31216,181.48495,67,80,0
181.31216,181.48495,64,80,0
181.48863,181.66144,65,80,0
181.48863,181.66144,62,80,0
181.66512,181.8379,67,80,0
181.66512,181.8379,64,80,0
181.84158,182.01437,65,80,0
181.84158,182.01437,62,80,0
182.01805,182.19084,64,80,0
182.01805,182.19084,60,80,0
182.19452,182.36731,65,80,0
182.19452,182.36731,62,80,0
182.37099,182.54378,64,80,0
182.37099,182.54378,60,80,0
182.54745,182.89673,62,80,0
182.54745,182.89673,59,80,0
183.07687,183.42613,69,100,0
183.07687,183.42613,65,100,0
183.42981,183.6026,67,80,0
183.42981,183.6026,64,80,0
183.60628,183.77908,65,80,0
183.60628,183.77908,62,80,0
183.78276,183.95555,67,80,0
183.78276,183.95555,64,80,0
183.95923,184.13202,65,80,0
183.95923,184.13202,62,80,0
184.1357,184.30849,64,80,0
184.1357,184.30849,60,80,0
184.31216,184.48495,65,80,0
184.31216,184.48495,62,80,0
184.48863,184.66142,64,80,0
184.48863,184.66142,60,80,0
184.6651,185.01437,62,80,0
184.6651,185.01437,59,80,0
184.84158,185.01437,61,80,0
185.01805,185.19084,62,80,0
185.19452,185.36731,64,80,0
185.37099,185.54378,65,80,0
185.54745,185.72026,67,80,0
185.72392,185.89673,69,80,0
185.9004,186.0732,71,80,0
186.07687,186.24966,72,80,0
186.25334,186.42613,74,80,0
186.42981,186.6026,75,80,0
186.60628,186.77908,76,80,0
186.78275,186.95555,77,80,0
186.95923,187.13202,73,80,0
187.1357,187.30849,74,80,0
187.31216,187.48495,76,80,0
187.48863,187.66142,77,80,0
187.6651,187.8379,79,80,0
187.84157,188.01437,81,80,0
188.01805,188.19084,83,80,0
188.19452,188.36731,84,80,0
188.37099,188.54378,86,80,0
188.54745,188.72025,87,80,0
188.72392,188.89673,88,80,0
188.9004,189.24966,89,70,0
191.01805,191.19084,72,80,0
191.01805,191.19084,67,80,0
191.01805,191.19084,64,80,0
191.19452,191.36731,71,80,0
191.19452,191.36731,65,80,0
191.19452,191.36731,62,80,0
191.37099,191.54378,72,80,0
191.37099,191.54378,67,80,0
191.37099,191.54378,64,80,0
191.54745,191.72025,74,80,0
191.54745,191.72025,69,80,0
191.54745,191.72025,65,80,0
191.72392,191.89671,76,80,0
191.72392,191.89671,71,80,0
191.72392,191.89671,67,80,0
191.90039,192.0732,77,80,0
191.90039,192.0732,72,80,0
191.90039,192.0732,69,80,0
192.07687,192.24966,79,80,0
192.07687,192.24966,74,80,0
192.07687,192.24966,71,80,0
192.25334,192.42613,81,80,0
192.25334,192.42613,76,80,0
192.25334,192.42613,72,80,0
192.42981,192.6026,83,80,0
192.42981,192.6026,77,80,0
192.42981,192.6026,74,80,0
192.60628,192.77907,84,80,0
192.60628,192.77907,79,80,0
192.60628,192.77907,76,80,0
192.78275,192.95555,86,80,0
192.78275,192.95555,81,80,0
192.78275,192.95555,77,80,0
192.95921,193.13202,88,80,0
192.95921,193.13202,84,80,0
193.1357,193.48495,84,80,0
193.1357,193.48495,89,80,0
193.48863,193.66142,88,80,0
193.48863,193.66142,84,80,0
193.6651,194.01437,84,80,0
193.6651,194.01437,89,80,0
194.01804,194.19084,88,80,0
194.01804,194.19084,84,80,0
194.19452,194.54378,86,80,0
194.19452,194.54378,84,80,0
195.07686,195.24966,62,80,0
195.25334,195.42613,67,80,0
195.25334,195.42613,62,80,0
195.25334,195.42613,59,80,0
195.42981,195.6026,66,80,0
195.42981,195.6026,60,80,0
195.42981,195.6026,57,80,0
195.60628,195.77907,67,80,0
195.60628,195.77907,62,80,0
195.60628,195.77907,59,80,0
195.78275,195.95554,69,80,0
195.78275,195.95554,64,80,0
195.78275,195.95554,60,80,0
195.95921,196.13202,71,80,0
195.95921,196.13202,65,80,0
195.95921,196.13202,62,80,0
196.1357,196.30849,72,80,0
196.1357,196.30849,67,80,0
196.1357,196.30849,64,80,0
196.31216,196.48495,74,80,0
196.31216,196.48495,69,80,0
196.31216,196.48495,65,80,0
196.48863,196.66142,76,80,0
196.48863,196.66142,71,80,0
196.48863,196.66142,67,80,0
196.6651,196.83789,77,80,0
196.6651,196.83789,72,80,0
196.6651,196.83789,69,80,0
196.84157,197.01436,79,80,0
196.84157,197.01436,74,80,0
196.84157,197.01436,71,80,0
197.01804,197.19084,81,80,0
197.01804,197.19084,76,80,0
197.01804,197.19084,72,80,0
197.19452,197.36731,83,80,0
197.19452,197.36731,77,80,0
197.19452,197.36731,74,80,0
197.37099,197.72025,84,80,0
197.37099,197.72025,79,80,0
197.37099,197.72025,76,80,0
197.72392,197.89671,86,80,0
197.72392,197.89671,79,80,0
197.72392,197.89671,77,80,0
197.90039,198.24966,84,80,0
197.90039,198.24966,79,80,0
197.90039,198.24966,76,80,0
198.25334,198.42613,86,80,0
198.25334,198.42613,79,80,0
198.25334,198.42613,77,80,0
198.42981,198.77907,76,80,0
198.42981,198.77907,79,80,0
198.42981,198.77907,84,80,0
199.48863,201.24966,67,110,0
199.48863,201.24966,76,110,0
199.48863,201.24966,79,110,0
201.25333,201.42613,77,110,0
201.25333,201.42613,67,110,0
201.25333,201.42613,74,110,0
201.42981,201.6026,76,110,0
201.42981,201.6026,67,110,0
201.42981,201.6026,72,110,0
201.60628,201.95554,74,110,0
201.60628,201.95554,71,110,0
201.60628,201.95554,67,110,0
201.95921,202.132,76,110,0
201.95921,202.132,72,110,0
201.95921,202.132,67,110,0
202.13568,202.48495,74,110,0
202.13568,202.48495,71,110,0
202.13568,202.48495,67,110,0
202.48863,202.66142,76,110,0
202.48863,202.66142,72,110,0
202.48863,202.66142,67,110,0
202.6651,203.01436,74,110,0
202.6651,203.01436,71,110,0
202.6651,203.01436,67,110,0
203.54745,203.72025,67,100,0
203.72392,205.48495,67,100,0
203.72392,205.48495,74,100,0
203.72392,205.48495,77,100,0
205.48863,205.66142,76,100,0
205.48863,205.66142,72,100,0
205.48863,205.66142,67,100,0
205.6651,205.83789,74,100,0
205.6651,205.83789,67,100,0
205.6651,205.83789,65,100,0
205.84157,206.19083,72,100,0
205.84157,206.19083,67,100,0
205.84157,206.19083,64,100,0
206.1945,206.3673,74,100,0
206.1945,206.3673,67,100,0
206.1945,206.3673,65,100,0
206.37097,206.72025,72,100,0
206.37097,206.72025,67,100,0
206.37097,206.72025,64,100,0
206.72392,206.89671,74,100,0
206.72392,206.89671,67,100,0
206.72392,206.89671,65,100,0
206.90039,207.24965,72,100,0
206.90039,207.24965,67,100,0
206.90039,207.24965,64,100,0
207.4298,207.51436,81,80,0
207.51804,207.6026,79,80,0
207.60628,207.69083,77,80,0
207.6945,207.77907,76,80,0
207.78275,207.8673,74,80,0
207.87097,207.95554,72,80,0
207.95921,208.04378,71,80,0
208.04745,208.132,72,80,0
208.13568,208.22025,71,80,0
208.22392,208.30847,69,80,0
208.31215,208.39671,71,80,0
208.40039,208.48495,67,80,0
208.48862,208.57318,72,80,0
208.57686,208.66142,74,80,0
208.6651,208.74965,72,80,0
208.75333,208.83789,71,80,0
208.84157,208.92612,72,80,0
208.9298,209.01436,67,80,0
209.01804,209.1026,74,80,0
209.10628,209.19083,76,80,0
209.1945,209.27907,74,80,0
209.28275,209.3673,73,80,0
209.37097,209.45554,74,80,0
209.45921,209.54378,67,80,0
209.54744,209.632,79,80,0
209.63568,209.72025,77,80,0
209.72392,209.80847,76,80,0
209.81215,209.89671,74,80,0
209.90039,209.98494,72,80,0
209.98862,210.07318,71,80,0
210.07686,210.16142,72,80,0
210.1651,210.24965,74,80,0
210.25333,210.33789,72,80,0
210.34157,210.42612,71,80,0
210.4298,210.51436,72,80,0
210.51804,210.6026,67,80,0
210.60628,210.69083,74,80,0
210.6945,210.77907,76,80,0
210.78275,210.8673,74,80,0
210.87097,210.95554,73,80,0
210.95921,211.04376,74,80,0
211.04744,211.132,67,80,0
211.13568,211.22025,76,80,0
211.22392,211.30847,77,80,0
211.31215,211.39671,76,80,0
211.40039,211.48494,75,80,0
211.48862,211.57318,76,80,0
211.57686,211.66142,72,80,0
211.6651,211.74965,81,80,0
211.75333,211.83789,79,80,0
211.84157,211.92612,77,80,0
211.9298,212.01436,76,80,0
212.01804,212.1026,74,80,0
212.10626,212.19083,72,80,0
212.1945,212.27907,78,80,0
212.28275,212.3673,79,80,0
212.37097,212.45554,78,80,0
212.45921,212.54376,76,80,0
212.54744,212.632,78,80,0
212.63568,212.72025,74,80,0
212.72392,212.80847,79,80,0
212.81215,212.89671,81,80,0
212.90039,212.98494,79,80,0
212.98862,213.07318,78,80,0
213.07686,213.16142,79,80,0
213.16508,213.24965,74,80,0
213.25333,213.33789,81,80,0
213.34157,213.42612,83,80,0
213.4298,213.51436,81,80,0
213.51804,213.60258,80,80,0
213.60626,213.69083,81,80,0
213.6945,213.77907,74,80,0
213.78275,213.8673,86,80,0
213.87097,213.95554,84,80,0
213.95921,214.04376,83,80,0
214.04744,214.132,81,80,0
214.13568,214.22025,79,80,0
214.22392,214.30847,78,80,0
214.31215,214.39671,79,80,0
214.40039,214.48494,81,80,0
214.48862,214.57318,79,80,0
214.57686,214.6614,78,80,0
214.66508,214.74965,79,80,0
214.75333,214.83789,74,80,0
214.84157,214.92612,86,90,0
214.9298,215.01436,88,90,0
215.01804,215.10258,86,90,0
215.10626,215.19083,85,90,0
215.1945,215.27907,86,90,0
215.28275,215.3673,78,90,0
215.37097,215.45554,79,80,0
215.45921,215.54376,81,80,0
215.54744,215.632,79,80,0
215.63568,215.72025,78,80,0
215.7239,215.80847,79,80,0
215.81215,215.89671,74,80,0
215.90039,215.98494,86,90,0
215.98862,216.07318,88,90,0
216.07686,216.1614,86,90,0
216.16508,216.24965,85,90,0
216.25333,216.33789,86,90,0
216.34157,216.42612,78,90,0
216.4298,216.51436,79,80,0
216.51804,216.60258,81,80,0
216.60626,216.69083,79,80,0
216.6945,216.77907,78,80,0
216.78273,216.8673,79,80,0
216.87097,216.95554,81,80,0
216.95921,217.04376,83,80,0
217.04744,217.132,84,80,0
217.13568,217.22023,83,80,0
217.2239,217.30847,82,80,0
217.31215,217.39671,83,80,0
217.40039,217.48494,84,80,0
217.48862,217.57318,86,80,0
217.57686,217.6614,88,80,0
217.66508,217.74965,86,80,0
217.75333,217.83789,85,80,0
217.84157,217.92612,86,80,0
217.9298,218.01436,88,80,0
218.01804,218.10258,89,80,0
218.10626,218.19083,86,80,0
218.1945,218.27905,83,80,0
218.28273,218.3673,79,80,0
218.37097,218.45554,77,80,0
218.45921,218.54376,74,80,0
218.54744,218.72023,72,100,0
218.54744,218.72023,67,100,0
218.54744,218.72023,64,100,0
218.7239,218.89671,71,80,0
218.7239,218.89671,65,80,0
218.7239,218.89671,62,80,0
218.90039,219.07318,72,80,0
218.90039,219.07318,67,80,0
218.90039,219.07318,64,80,0
219.07686,219.24965,74,80,0
219.07686,219.24965,69,80,0
219.07686,219.24965,65,80,0
219.25333,219.42612,76,80,0
219.25333,219.42612,71,80,0
219.25333,219.42612,67,80,0
219.4298,219.60258,77,80,0
219.4298,219.60258,72,80,0
219.4298,219.60258,69,80,0
219.60626,219.77905,79,80,0
219.60626,219.77905,74,80,0
219.60626,219.77905,71,80,0
219.78273,219.95554,81,80,0
219.78273,219.95554,76,80,0
219.78273,219.95554,72,80,0
219.95921,220.132,83,80,0
219.95921,220.132,77,80,0
219.95921,220.132,74,80,0
220.13568,220.30847,84,80,0
220.13568,220.30847,79,80,0
220.13568,220.30847,76,80,0
220.31215,220.48494,86,80,0
220.31215,220.48494,81,80,0
220.31215,220.48494,77,80,0
220.48862,220.6614,88,80,0
220.48862,220.6614,84,80,0
220.66508,221.01436,84,80,0
220.66508,221.01436,89,80,0
221.01804,221.19083,88,80,0
221.01804,221.19083,84,80,0
221.1945,221.54376,84,80,0
221.1945,221.54376,89,80,0
221.54744,221.72023,88,80,0
221.54744,221.72023,84,80,0
221.7239,222.07318,86,80,0
221.7239,222.07318,84,80,0
222.78273,223.132,88,80,0
222.78273,223.132,76,80,0
223.13568,223.30847,75,80,0
223.13568,223.30847,87,80,0
223.31215,223.6614,88,80,0
223.31215,223.6614,76,80,0
223.66508,223.83788,74,80,0
223.66508,223.83788,86,80,0
223.84155,224.19083,72,80,0
223.84155,224.19083,84,80,0
224.7239,224.80847,84,120,0
224.76802,224.85258,86,120,0
224.81215,224.8967,83,120,0
224.85626,224.8967,84,120,0
224.90038,225.24965,89,120,0
224.90038,225.24965,77,120,0
225.25333,225.42612,88,120,0
225.25333,225.42612,76,120,0
225.4298,225.77905,86,120,0
225.4298,225.77905,74,120,0
225.78273,225.95552,84,120,0
225.78273,225.95552,72,120,0
225.9592,226.30847,83,120,0
225.9592,226.30847,71,120,0
226.31215,226.48494,81,120,0
226.31215,226.48494,69,120,0
226.48862,226.83788,79,120,0
226.48862,226.83788,67,120,0
226.84155,227.01434,77,120,0
226.84155,227.01434,65,120,0
227.01802,227.3673,64,120,0
227.01802,227.3673,76,120,0
227.37097,227.54376,74,120,0
227.37097,227.54376,62,120,0
227.54744,227.8967,72,120,0
227.54744,227.8967,60,120,0
227.90038,228.07317,71,120,0
227.90038,228.07317,59,120,0
228.07684,228.42612,69,120,0
228.07684,228.42612,57,120,0
228.4298,228.60258,68,120,0
228.4298,228.60258,56,120,0
228.60626,228.95552,69,120,0
228.60626,228.95552,57,120,0
228.9592,229.13199,66,120,0
228.9592,229.13199,54,120,0
229.13567,229.48494,67,120,0
229.13567,229.48494,55,120,0
230.19449,230.8967,77,80,0
230.90038,231.07317,74,80,0
231.07684,231.24965,71,80,0
231.25331,231.60258,79,102,0
231.60626,231.69081,76,80,0
231.69449,231.77905,72,80,0
231.78273,232.13199,79,102,0
232.13567,232.22023,76,80,0
232.2239,232.30847,72,80,0
232.31215,233.01434,77,87,0
233.01802,233.19081,74,80,0
233.19449,233.3673,71,80,0
233.37097,233.72023,79,104,0
233.7239,233.80847,76,80,0
233.81213,233.8967,72,80,0
233.90038,234.24963,79,101,0
234.25331,234.33788,76,80,0
234.34155,234.42612,72,80,0
234.4298,235.13199,77,80,0
235.13567,235.30846,74,80,0
235.31213,235.48494,71,80,0
235.48862,235.6614,79,80,0
235.66508,235.83788,76,80,0
235.84155,236.01434,71,80,0
236.01802,236.19081,72,80,0
236.19449,236.36728,76,80,0
236.37096,236.54376,68,80,0
236.54744,236.72023,69,80,0
236.7239,236.8967,72,80,0
236.90038,237.07317,64,80,0
237.07684,237.24963,65,80,0
237.25331,237.42612,69,80,0
237.42978,237.60258,61,80,0
237.60626,237.77905,62,80,0
237.78273,237.95552,65,80,0
237.9592,238.13199,64,80,0
238.13567,238.30846,62,80,0
238.31213,238.48494,64,80,0
238.4886,238.6614,65,80,0
238.66508,238.83788,67,80,0
238.84155,239.01434,66,80,0
239.01802,239.19081,67,80,0
239.19449,239.36728,55,80,0
239.37096,239.54376,57,80,0
239.54744,239.72023,59,80,0
239.7239,239.8967,60,80,0
239.90038,240.07317,64,80,0
240.07684,240.24963,67,80,0
240.25331,240.4261,72,80,0
240.42978,240.60258,74,80,0
240.60626,240.77905,76,80,0
240.78273,241.48492,77,80,0
241.4886,241.6614,74,80,0
241.66508,241.83788,71,80,0
241.84155,242.19081,79,103,0
242.19449,242.27905,75,80,0
242.28273,242.36728,72,80,0
242.37096,242.72023,79,103,0
242.7239,242.80846,75,80,0
242.81213,242.8967,72,80,0
242.90038,243.60257,77,80,0
243.60625,243.77905,74,80,0
243.78273,243.95552,71,80,0
243.9592,244.30846,79,103,0
244.31213,244.3967,75,80,0
244.40038,244.48492,72,80,0
244.4886,244.83788,79,100,0
244.84155,244.9261,75,80,0
244.92978,245.01434,72,80,0
245.01802,245.72023,80,80,0
245.72389,245.8967,77,80,0
245.90038,246.07317,74,80,0
246.07684,246.4261,82,101,0
246.42978,246.51434,79,80,0
246.51802,246.60257,75,80,0
246.60625,246.95552,82,101,0
246.9592,247.04375,79,80,0
247.04742,247.13199,75,80,0
247.13567,247.83788,80,80,0
247.84155,248.01434,77,80,0
248.01802,248.19081,74,80,0
248.19449,248.36728,82,80,0
248.37096,248.54375,79,80,0
248.54742,248.72021,74,80,0
248.72389,248.8967,75,80,0
248.90038,249.07317,79,80,0
249.07684,249.24963,71,80,0
249.25331,249.4261,72,80,0
249.42978,249.60257,75,80,0
249.60625,249.77904,67,80,0
249.78271,249.95552,68,80,0
249.9592,250.13199,72,80,0
250.13567,250.30846,64,80,0
250.31213,250.48492,65,80,0
250.4886,250.66139,84,80,0
250.66507,250.83786,76,80,0
250.84154,251.01434,77,80,0
251.01802,251.19081,80,80,0
251.19449,251.36728,73,80,0
251.37096,251.54375,74,80,0
251.54742,251.72021,77,80,0
251.72389,251.8967,69,80,0
251.90036,252.07317,70,80,0
252.07684,252.24963,74,80,0
252.25331,252.4261,66,80,0
252.42978,252.60257,67,80,0
252.60625,252.77904,86,80,0
252.78271,252.95552,78,80,0
252.95918,253.13199,79,80,0
253.13567,253.30846,82,80,0
253.31213,253.48492,74,80,0
253.4886,253.66139,75,80,0
253.66507,253.83786,79,80,0
253.84154,254.01434,71,80,0
254.018,254.19081,72,80,0
254.19449,254.36728,75,80,0
254.37096,254.54375,67,80,0
254.54742,254.72021,68,80,0
254.72389,254.89668,72,80,0
254.90036,255.07317,64,80,0
255.07684,255.24963,65,80,0
255.25331,255.4261,68,80,0
255.42978,255.60257,61,80,0
255.60625,255.77904,62,80,0
255.78271,255.9555,65,80,0
255.95918,256.132,58,80,0
256.13565,256.30844,59,80,0
256.31213,256.48492,62,80,0
256.4886,256.6614,54,80,0
256.66507,256.83786,55,80,0
256.84155,257.01434,59,80,0
257.018,257.1908,50,80,0
257.1945,257.36728,51,80,0
257.37094,257.54373,55,80,0
257.54742,257.7202,47,80,0
257.7239,257.8967,48,100,0
257.90036,258.07315,51,100,0
258.07684,258.24963,43,100,0
258.2533,258.4261,44,100,0
258.42978,258.60257,48,100,0
258.60623,258.77905,42,100,0
258.7827,258.9555,43,80,0
258.9592,259.132,47,80,0
259.13565,259.30844,50,80,0
259.31213,259.48492,55,80,0
259.4886,259.6614,57,80,0
259.66507,259.83786,59,80,0
259.84155,260.01434,60,80,0
260.018,260.1908,55,80,0
260.1945,260.36728,62,80,0
260.37094,260.54373,63,80,0
260.54742,260.7202,55,80,0
260.72388,260.8967,66,80,0
260.90036,261.4261,67,80,0
261.42978,261.9555,65,80,0
261.9592,262.48492,63,80,0
260.90036,263.01434,55,101,0
262.4886,263.01434,60,80,0
263.1945,263.36728,59,80,0
263.37094,263.54373,62,80,0
263.54742,263.7202,67,80,0
263.72388,263.8967,69,80,0
263.90036,264.07315,71,80,0
264.07684,264.24963,72,80,0
264.2533,264.4261,67,80,0
264.42978,264.60257,74,80,0
264.60623,264.77902,75,80,0
264.7827,264.9555,67,80,0
264.9592,265.132,78,80,0
265.13565,265.66138,79,80,0
265.66507,266.1908,77,80,0
266.1945,266.7202,75,80,0
265.13565,267.24963,67,102,0
266.72388,267.24963,72,80,0
267.2533,267.4261,71,80,0
267.42978,267.60257,54,80,0
267.60623,267.77902,55,80,0
267.7827,267.9555,57,80,0
267.95917,268.132,59,80,0
268.13565,268.30844,60,80,0
268.31213,268.48492,62,80,0
268.4886,268.66138,64,80,0
268.66507,268.83786,66,80,0
268.84152,269.01434,67,80,0
269.018,269.1908,69,80,0
269.1945,269.36728,71,80,0
269.37094,269.54373,59,80,0
269.54742,269.7202,57,80,0
269.72388,269.89667,59,80,0
269.90036,270.07315,60,80,0
270.07684,270.24963,62,80,0
270.2533,270.4261,64,80,0
270.42978,270.60257,66,80,0
270.60623,270.77902,67,80,0
270.7827,270.9555,69,80,0
270.95917,271.132,71,80,0
271.13565,271.30844,72,80,0
271.31213,271.48492,74,80,0
271.4886,271.66138,67,80,0
271.4886,271.66138,62,80,0
271.66507,271.83786,66,80,0
271.66507,271.83786,60,80,0
271.84152,272.0143,67,80,0
271.84152,272.0143,62,80,0
272.018,272.1908,69,80,0
272.018,272.1908,64,80,0
272.018,272.1908,60,80,0
272.1945,272.36728,71,80,0
272.1945,272.36728,65,80,0
272.1945,272.36728,62,80,0
272.37094,272.54373,72,80,0
272.37094,272.54373,67,80,0
272.37094,272.54373,64,80,0
272.54742,272.7202,74,80,0
272.54742,272.7202,69,80,0
272.54742,272.7202,65,80,0
272.72388,272.89667,76,80,0
272.72388,272.89667,71,80,0
272.72388,272.89667,67,80,0
272.90036,273.07315,77,80,0
272.90036,273.07315,72,80,0
272.90036,273.07315,69,80,0
273.0768,273.24963,79,80,0
273.0768,273.24963,74,80,0
273.0768,273.24963,71,80,0
273.2533,273.33786,84,80,0
273.2533,273.4261,81,80,0
273.2533,273.4261,76,80,0
273.2533,273.4261,72,80,0
273.42978,273.60257,83,80,0
273.42978,273.60257,77,80,0
273.42978,273.60257,74,80,0
273.60623,273.6908,84,110,0
273.65036,273.73492,86,110,0
273.6945,273.77902,84,110,0
273.7386,273.82315,86,110,0
273.7827,273.86728,84,110,0
273.8268,273.91138,86,110,0
273.87094,273.9555,84,110,0
273.91507,273.99963,86,110,0
273.95917,274.04373,84,110,0
274.0033,274.08786,86,110,0
274.04742,274.132,84,110,0
274.09152,274.1761,86,110,0
274.13565,274.2202,84,110,0
274.17978,274.2643,86,110,0
274.22388,274.30844,84,110,0
274.268,274.35257,86,110,0
274.31213,274.39667,84,110,0
274.35623,274.4408,86,110,0
274.40036,274.48492,84,110,0
274.4445,274.52902,86,110,0
274.4886,274.57315,84,110,0
274.5327,274.61728,86,110,0
274.5768,274.66138,84,110,0
274.62094,274.7055,86,110,0
274.66507,274.74963,84,110,0
274.70917,274.79373,86,110,0
274.7533,274.83786,84,110,0
274.79742,274.88196,86,110,0
274.84152,274.9261,84,110,0
274.88565,274.9702,86,110,0
274.92978,275.0143,84,110,0
274.97388,275.05844,86,110,0
275.018,275.10257,84,110,0
275.06213,275.14667,86,110,0
275.10623,275.1908,84,110,0
275.15036,275.23492,86,110,0
275.19446,275.27902,84,110,0
275.2386,275.32315,86,110,0
275.2827,275.36728,84,110,0
275.3268,275.41138,86,110,0
275.37094,275.4555,84,110,0
275.41507,275.49963,86,110,0
275.45917,275.54373,84,110,0
275.5033,275.58786,86,110,0
275.54742,275.63196,84,110,0
275.59152,275.6761,86,110,0
275.63565,275.7202,84,110,0
275.67978,275.7643,86,110,0
275.72388,275.80844,84,110,0
275.768,275.85257,86,110,0
275.81213,275.89667,84,110,0
275.85623,275.9408,86,110,0
275.90036,275.98492,84,110,0
275.94446,276.02902,86,110,0
275.9886,276.07315,84,110,0
276.0327,276.11728,86,110,0
276.0768,276.16138,84,110,0
276.12094,276.2055,86,110,0
276.16507,276.24963,84,110,0
276.20917,276.29373,86,110,0
276.2533,276.33786,84,110,0
276.29742,276.38196,86,110,0
276.34152,276.4261,84,110,0
276.38565,276.4702,86,110,0
276.42978,276.5143,84,110,0
276.47388,276.55844,86,110,0
276.518,276.60257,84,110,0
276.56213,276.64667,86,110,0
276.60623,276.6908,84,110,0
276.65036,276.73492,86,110,0
276.69446,276.77902,84,110,0
276.7386,276.82315,86,110,0
276.7827,276.86728,84,110,0
276.8268,276.91138,86,110,0
276.87094,276.9555,84,110,0
276.91507,276.99963,86,110,0
276.95917,277.04373,84,110,0
277.0033,277.08786,86,110,0
277.04742,277.13196,84,110,0
277.09152,277.1761,86,110,0
277.13565,277.2202,84,110,0
277.17978,277.2643,86,110,0
277.22388,277.30844,84,110,0
277.268,277.35257,86,110,0
277.31213,277.39667,84,110,0
277.35623,277.4408,86,110,0
277.40036,277.48492,84,110,0
277.44446,277.52902,86,110,0
277.4886,277.57315,84,110,0
277.5327,277.61728,86,110,0
277.5768,277.66138,84,110,0
277.62094,277.7055,86,110,0
277.66507,277.74963,84,110,0
277.70917,277.79373,86,110,0
277.7533,277.83786,84,110,0
277.79742,277.88196,86,110,0
277.84152,277.9261,84,110,0
277.88565,277.9702,86,110,0
277.92978,278.0143,84,110,0
277.97388,278.05844,86,110,0
278.018,278.10257,84,110,0
278.06213,278.14667,86,110,0
278.10623,278.1908,84,110,0
278.15036,278.23492,86,110,0
278.19446,278.27902,84,110,0
278.2386,278.32315,86,110,0
278.2827,278.36728,84,110,0
278.3268,278.41138,86,110,0
278.37094,278.4555,84,110,0
278.41507,278.4996,86,110,0
278.45917,278.54373,84,110,0
278.5033,278.58786,86,110,0
278.54742,278.63196,84,110,0
278.59152,278.6761,86,110,0
278.63565,278.7202,84,110,0
278.67978,278.7643,86,110,0
278.72388,278.80844,84,110,0
278.768,278.85257,86,110,0
278.8121,278.89667,84,110,0
278.85623,278.9408,86,110,0
278.90036,278.98492,84,110,0
278.94446,279.02902,86,110,0
278.9886,279.07315,84,110,0
279.0327,279.11728,86,110,0
279.0768,279.16138,84,110,0
279.12094,279.2055,86,110,0
279.16507,279.2496,84,110,0
279.20917,279.29373,86,110,0
279.2533,279.33786,84,110,0
279.29742,279.38196,86,110,0
279.34152,279.4261,84,110,0
279.38565,279.4702,86,110,0
279.42978,279.5143,84,110,0
279.47388,279.55844,86,110,0
279.518,279.60257,84,110,0
279.5621,279.64667,86,110,0
279.60623,279.6908,84,110,0
279.65036,279.73492,86,110,0
279.69446,279.77902,84,110,0
279.7386,279.82315,86,110,0
279.7827,279.86728,84,110,0
279.8268,279.91138,86,110,0
279.87094,279.9555,83,110,0
279.91507,279.9555,84,110,0
279.95917,280.30844,81,120,0
279.95917,280.30844,84,120,0
279.95917,280.30844,89,120,0
280.3121,280.48492,88,120,0
280.3121,280.48492,84,120,0
280.3121,280.48492,79,120,0
280.4886,280.83786,81,120,0
280.4886,280.83786,84,120,0
280.4886,280.83786,89,120,0
280.84152,281.0143,88,120,0
280.84152,281.0143,84,120,0
280.84152,281.0143,79,120,0
281.018,281.36728,87,120,0
281.018,281.36728,84,120,0
281.018,281.36728,78,120,0
282.0768,282.4261,79,120,0
282.0768,282.4261,84,120,0
282.0768,282.4261,88,120,0
282.42975,282.60257,78,120,0
282.42975,282.60257,84,120,0
282.42975,282.60257,87,120,0
282.60623,282.9555,79,120,0
282.60623,282.9555,84,120,0
282.60623,282.9555,88,120,0
282.95917,283.13196,77,120,0
282.95917,283.13196,84,120,0
282.95917,283.13196,86,120,0
283.13565,283.48492,76,120,0
283.13565,283.48492,84,120,0
284.018,284.1908,84,100,0
284.19446,284.36725,89,120,0
284.19446,284.36725,84,120,0
284.37094,284.54373,87,120,0
284.37094,284.54373,81,120,0
284.54742,284.7202,88,120,0
284.54742,284.7202,83,120,0
284.72388,284.89667,85,120,0
284.72388,284.89667,79,120,0
284.90036,285.07315,86,120,0
284.90036,285.07315,81,120,0
285.0768,285.2496,83,120,0
285.0768,285.2496,77,120,0
285.2533,285.4261,84,120,0
285.2533,285.4261,79,120,0
285.42975,285.60257,82,120,0
285.42975,285.60257,76,120,0
285.60623,285.77902,83,120,0
285.60623,285.77902,77,120,0
285.7827,285.9555,80,120,0
285.7827,285.9555,74,120,0
285.95917,286.13196,81,120,0
285.95917,286.13196,76,120,0
286.13565,286.30844,78,120,0
286.13565,286.30844,72,120,0
286.3121,286.4849,79,120,0
286.3121,286.4849,74,120,0
286.4886,286.66138,76,120,0
286.4886,286.66138,71,120,0
286.66507,286.83786,77,120,0
286.66507,286.83786,72,120,0
286.84152,287.0143,75,120,0
286.84152,287.0143,69,120,0
287.018,287.1908,76,120,0
287.018,287.1908,71,120,0
287.19446,287.36725,73,120,0
287.19446,287.36725,67,120,0
287.37094,287.54373,74,120,0
287.37094,287.54373,69,120,0
287.5474,287.7202,71,120,0
287.5474,287.7202,65,120,0
287.72388,287.89667,72,120,0
287.72388,287.89667,67,120,0
287.90036,288.07315,70,120,0
287.90036,288.07315,64,120,0
288.0768,288.2496,71,120,0
288.0768,288.2496,65,120,0
288.2533,288.4261,68,120,0
288.2533,288.4261,62,120,0
288.42975,288.60257,69,110,0
288.42975,288.60257,64,110,0
288.60623,288.77902,71,110,0
288.60623,288.77902,62,110,0
288.7827,288.9555,72,110,0
288.7827,288.9555,60,110,0
288.95917,289.13196,71,110,0
288.95917,289.13196,65,110,0
289.13565,289.30844,72,111,0
289.13565,289.30844,64,111,0
289.3121,289.4849,74,111,0
289.3121,289.4849,62,111,0
289.4886,289.66138,72,111,0
289.4886,289.66138,67,111,0
289.66504,289.83786,74,111,0
289.66504,289.83786,65,111,0
289.84152,290.0143,76,112,0
289.84152,290.0143,64,112,0
290.018,290.1908,74,112,0
290.018,290.1908,69,112,0
290.19446,290.36725,76,112,0
290.19446,290.36725,67,112,0
290.37094,290.54373,77,113,0
290.37094,290.54373,65,113,0
290.5474,290.7202,76,113,0
290.5474,290.7202,71,113,0
290.72388,290.89667,77,113,0
290.72388,290.89667,69,113,0
290.90036,291.07315,79,113,0
290.90036,291.07315,67,113,0
291.0768,291.2496,77,114,0
291.0768,291.2496,72,114,0
291.2533,291.4261,79,114,0
291.2533,291.4261,71,114,0
291.42975,291.60254,81,114,0
291.42975,291.60254,69,114,0
291.60623,291.77902,79,115,0
291.60623,291.77902,74,115,0
291.7827,291.9555,81,115,0
291.7827,291.9555,72,115,0
291.95917,292.13196,83,115,0
291.95917,292.13196,71,115,0
292.13565,292.30844,81,115,0
292.13565,292.30844,76,115,0
292.3121,292.4849,83,116,0
292.3121,292.4849,74,116,0
292.4886,292.66138,84,116,0
292.4886,292.66138,72,116,0
292.66504,292.83786,83,116,0
292.66504,292.83786,77,116,0
292.84152,293.0143,84,116,0
292.84152,293.0143,76,116,0
293.018,293.1908,86,117,0
293.018,293.1908,74,117,0
293.19446,293.36725,84,117,0
293.19446,293.36725,79,117,0
293.37094,293.54373,86,117,0
293.37094,293.54373,77,117,0
293.5474,293.72018,88,118,0
293.5474,293.72018,76,118,0
293.72388,293.89667,84,118,0
293.72388,293.89667,79,118,0
293.90036,294.07315,86,118,0
293.90036,294.07315,77,118,0
294.0768,294.2496,88,118,0
294.0768,294.2496,76,118,0
294.2533,294.4261,84,119,0
294.2533,294.4261,79,119,0
294.42975,294.60254,86,119,0
294.42975,294.60254,77,119,0
294.60623,294.77902,88,119,0
294.60623,294.77902,76,119,0
294.78268,295.4849,86,120,0
294.78268,295.4849,84,120,0
294.78268,295.4849,81,120,0
294.78268,295.4849,74,120,0
295.84152,296.54373,75,120,0
295.84152,296.54373,78,120,0
295.84152,296.54373,81,120,0
295.84152,296.54373,84,120,0
295.84152,296.54373,87,120,0
296.90033,297.2496,76,120,0
296.90033,297.2496,79,120,0
296.90033,297.2496,84,120,0
296.90033,297.2496,88,120,0
297.2533,297.36725,67,100,0
297.3121,297.4261,69,100,0
297.37094,297.4849,71,100,0
297.42975,297.60254,72,100,0
297.60623,297.77902,74,100,0
297.78268,297.9555,76,99,0
297.95917,298.13196,77,98,0
298.13565,298.30844,79,97,0
298.3121,298.4849,81,96,0
298.4886,298.66138,83,95,0
298.66504,298.83783,84,94,0
298.84152,299.0143,86,93,0
299.018,299.1908,88,92,0
299.19446,299.36725,89,91,0
299.37094,299.54373,86,80,0
299.5474,299.72018,88,80,0
299.72388,299.89667,89,80,0
299.90033,300.07315,86,80,0
300.0768,300.2496,88,80,0
300.2533,300.4261,89,80,0
300.42975,300.60254,86,80,0
300.60623,300.77902,88,80,0
300.78268,300.95547,89,80,0
300.95917,301.13196,86,80,0
301.13565,301.22018,85,80,0
301.17975,301.2643,86,80,0
301.22388,301.30844,88,80,0
301.26797,301.35254,86,80,0
301.3121,301.39667,88,80,0
301.35623,301.4408,86,80,0
301.40033,301.4849,88,80,0
301.44446,301.52902,86,80,0
301.4886,301.57315,88,80,0
301.53268,301.61725,86,80,0
301.5768,301.66138,88,80,0
301.62094,301.70547,86,80,0
301.66504,301.7496,88,80,0
301.70917,301.79373,86,80,0
301.7533,301.83783,88,80,0
301.7974,301.88196,86,80,0
301.84152,301.9261,88,80,0
301.88565,301.97018,86,80,0
301.92975,302.0143,88,80,0
301.97388,302.05844,86,80,0
302.01797,302.10254,88,80,0
302.0621,302.14667,86,80,0
302.10623,302.1908,88,80,0
302.15033,302.2349,86,80,0
302.19446,302.27902,88,80,0
302.2386,302.32315,86,80,0
302.28268,302.36725,88,80,0
302.3268,302.41138,86,80,0
302.37094,302.45547,88,80,0
302.41504,302.4996,86,80,0
302.45917,302.54373,88,80,0
302.5033,302.58783,86,80,0
302.5474,302.63196,88,80,0
302.59152,302.6761,86,80,0
302.63565,302.72018,88,80,0
302.67975,302.7643,86,80,0
302.72388,302.80844,88,80,0
302.76797,302.85254,86,80,0
302.8121,302.89667,88,80,0
302.85623,302.9408,86,80,0
302.90033,302.9849,88,80,0
302.94446,303.02902,86,80,0
302.9886,303.07315,88,80,0
303.03268,303.11725,86,80,0
303.0768,303.16138,88,80,0
303.12094,303.20547,86,80,0
303.16504,303.2496,88,80,0
303.20917,303.29373,86,80,0
303.2533,303.33783,88,80,0
303.2974,303.38196,86,80,0
303.34152,303.4261,88,80,0
303.38562,303.47018,86,80,0
303.42975,303.5143,88,80,0
303.47388,303.55844,86,80,0
303.51797,303.60254,88,80,0
303.5621,303.64667,86,80,0
303.60623,303.6908,88,80,0
303.65033,303.7349,86,80,0
303.69446,303.77902,88,80,0
303.7386,303.82312,86,80,0
303.78268,303.86725,88,80,0
303.8268,303.91138,86,80,0
303.87094,303.95547,88,80,0
303.91504,303.9996,86,80,0
303.95917,304.04373,88,80,0
304.0033,304.08783,86,80,0
304.0474,304.13196,88,80,0
304.09152,304.1761,86,80,0
304.13562,304.22018,88,80,0
304.17975,304.2643,86,80,0
304.22388,304.30844,88,80,0
304.26797,304.35254,86,80,0
304.3121,304.39667,88,80,0
304.35623,304.4408,86,80,0
304.40033,304.4849,88,80,0
304.44446,304.52902,86,80,0
304.4886,304.57312,88,80,0
304.53268,304.61725,86,80,0
304.5768,304.66138,88,80,0
304.62094,304.70547,86,80,0
304.66504,304.7496,88,80,0
304.70917,304.79373,86,80,0
304.7533,304.83783,88,80,0
304.7974,304.88196,86,80,0
304.84152,304.9261,88,80,0
304.88562,304.97018,86,80,0
304.92975,305.0143,88,80,0
304.97388,305.05844,86,80,0
305.01797,305.10254,88,80,0
305.0621,305.14667,86,80,0
305.10623,305.1908,88,80,0
305.15033,305.2349,86,80,0
305.19446,305.27902,88,80,0
305.2386,305.32312,86,80,0
305.28268,305.36725,88,80,0
305.3268,305.41138,86,80,0
305.37094,305.45547,88,80,0
305.41504,305.4996,86,80,0
305.45917,305.54373,88,80,0
305.5033,305.58783,86,80,0
305.5474,305.63196,88,80,0
305.59152,305.6761,86,80,0
305.63562,305.72018,88,80,0
305.67975,305.7643,86,80,0
305.72388,305.80844,88,80,0
305.76797,305.85254,86,80,0
305.8121,305.89667,88,80,0
305.85623,305.9408,86,80,0
305.90033,305.9849,88,80,0
305.94446,306.02902,86,80,0
305.9886,306.07312,88,80,0
306.03268,306.11725,86,80,0
306.0768,306.16138,88,80,0
306.12094,306.20547,86,80,0
306.16504,306.2496,88,80,0
306.20917,306.29373,86,80,0
306.2533,306.33783,88,80,0
306.2974,306.38196,86,80,0
306.34152,306.4261,88,80,0
306.38562,306.47018,86,80,0
306.42975,306.5143,88,80,0
306.47388,306.55844,86,80,0
306.51797,306.60254,88,80,0
306.5621,306.64667,86,80,0
306.60623,306.6908,88,80,0
306.65033,306.7349,86,80,0
306.69446,306.77902,88,80,0
306.7386,306.82312,86,80,0
306.78268,306.86725,88,80,0
306.8268,306.91138,86,80,0
306.87094,306.95547,88,80,0
306.91504,306.9996,86,80,0
306.95917,307.04373,88,80,0
307.00327,307.08783,86,80,0
307.0474,307.13196,88,80,0
307.09152,307.1761,86,80,0
307.13562,307.22018,88,80,0
307.17975,307.2643,86,80,0
307.22388,307.30844,88,80,0
307.26797,307.35254,86,80,0
307.3121,307.39667,88,80,0
307.35623,307.44077,86,80,0
307.40033,307.4849,88,80,0
307.44446,307.52902,86,80,0
307.4886,307.57312,88,80,0
307.4886,307.57312,84,80,0
307.53268,307.61725,86,80,0
307.53268,307.61725,83,80,0
307.5768,307.66138,88,80,0
307.5768,307.66138,84,80,0
307.62094,307.70547,86,80,0
307.62094,307.70547,83,80,0
307.66504,307.7496,88,80,0
307.66504,307.7496,84,80,0
307.70917,307.79373,86,80,0
307.70917,307.79373,83,80,0
307.75327,307.83783,88,80,0
307.75327,307.83783,84,80,0
307.7974,307.88196,86,80,0
307.7974,307.88196,83,80,0
307.84152,307.9261,88,80,0
307.84152,307.9261,84,80,0
307.88562,307.97018,86,80,0
307.88562,307.97018,83,80,0
307.92975,308.0143,88,80,0
307.92975,308.0143,84,80,0
307.97388,308.05844,86,80,0
307.97388,308.05844,83,80,0
308.01797,308.10254,88,80,0
308.01797,308.10254,84,80,0
308.0621,308.14667,86,80,0
308.0621,308.14667,83,80,0
308.10623,308.19077,88,80,0
308.10623,308.19077,84,80,0
308.15033,308.2349,86,80,0
308.15033,308.2349,83,80,0
308.19446,308.27902,88,80,0
308.19446,308.27902,84,80,0
308.2386,308.32312,86,80,0
308.2386,308.32312,83,80,0
308.28268,308.36725,88,80,0
308.28268,308.36725,84,80,0
308.3268,308.41138,86,80,0
308.3268,308.41138,83,80,0
308.37094,308.45547,88,80,0
308.37094,308.45547,84,80,0
308.41504,308.4996,86,80,0
308.41504,308.4996,83,80,0
308.45917,308.54373,88,80,0
308.45917,308.54373,84,80,0
308.50327,308.58783,83,80,0
308.50327,308.58783,86,80,0
308.5474,308.63196,88,80,0
308.5474,308.63196,84,80,0
308.59152,308.6761,86,80,0
308.59152,308.6761,83,80,0
308.63562,308.72018,88,80,0
308.63562,308.72018,84,80,0
308.67975,308.7643,86,80,0
308.67975,308.7643,83,80,0
308.72388,308.80844,88,80,0
308.72388,308.80844,84,80,0
308.76797,308.85254,86,80,0
308.76797,308.85254,83,80,0
308.8121,308.89667,88,80,0
308.8121,308.89667,84,80,0
308.85623,308.94077,86,80,0
308.85623,308.94077,83,80,0
308.90033,308.9849,88,80,0
308.90033,308.9849,84,80,0
308.94446,309.02902,86,80,0
308.94446,309.02902,83,80,0
308.9886,309.07312,88,80,0
308.9886,309.07312,84,80,0
309.03268,309.11725,86,80,0
309.03268,309.11725,83,80,0
309.0768,309.16138,88,80,0
309.0768,309.16138,84,80,0
309.12094,309.20547,86,80,0
309.12094,309.20547,83,80,0
309.16504,309.2496,88,80,0
309.16504,309.2496,84,80,0
309.20917,309.29373,86,80,0
309.20917,309.29373,83,80,0
309.25327,309.33783,88,80,0
309.25327,309.33783,84,80,0
309.2974,309.38196,86,80,0
309.2974,309.38196,83,80,0
309.34152,309.4261,88,80,0
309.34152,309.4261,84,80,0
309.38562,309.47018,86,80,0
309.38562,309.47018,83,80,0
309.42975,309.5143,88,80,0
309.42975,309.5143,84,80,0
309.47388,309.55844,86,80,0
309.47388,309.55844,83,80,0
309.51797,309.60254,88,80,0
309.51797,309.60254,84,80,0
309.5621,309.64667,83,80,0
309.5621,309.64667,86,80,0
309.60623,309.69077,88,80,0
309.65033,309.7349,86,80,0
309.69446,309.77902,88,80,0
309.7386,309.82312,86,80,0
309.78268,309.86725,88,80,0
309.8268,309.91138,86,80,0
309.87094,309.95547,88,80,0
309.91504,309.9996,86,80,0
309.95917,310.04373,88,80,0
310.00327,310.08783,86,80,0
310.0474,310.13196,88,80,0
310.09152,310.1761,86,80,0
310.13562,310.22018,88,80,0
310.17975,310.2643,86,80,0
310.22388,310.30844,88,80,0
310.26797,310.35254,86,80,0
310.3121,310.39667,88,80,0
310.35623,310.44077,86,80,0
310.40033,310.4849,88,80,0
310.44446,310.52902,86,80,0
310.4886,310.57312,88,80,0
310.53268,310.61725,86,80,0
310.5768,310.66138,88,80,0
310.6209,310.70547,86,80,0
310.66504,310.7496,88,80,0
310.70917,310.79373,86,80,0
310.75327,310.83783,88,80,0
310.7974,310.88196,86,80,0
310.84152,310.9261,88,80,0
310.88562,310.97018,86,80,0
310.92975,311.0143,88,80,0
310.97388,311.0584,86,80,0
311.01797,311.10254,88,80,0
311.0621,311.14667,86,80,0
311.10623,311.19077,88,80,0
311.15033,311.2349,86,80,0
311.19446,311.27902,88,80,0
311.2386,311.32312,86,80,0
311.28268,311.36725,88,80,0
311.3268,311.41138,86,80,0
311.3709,311.45547,88,80,0
311.41504,311.4996,86,80,0
311.45917,311.54373,88,80,0
311.50327,311.58783,86,80,0
311.5474,311.63196,88,80,0
311.59152,311.6761,86,80,0
311.63562,311.72018,88,80,0
311.67975,311.7643,86,80,0
311.72388,311.8084,88,80,0
311.76797,311.85254,87,80,0
311.8121,311.89667,88,80,0
311.85623,311.94077,87,80,0
311.90033,311.9849,88,80,0
311.94446,312.02902,87,80,0
311.9886,312.07312,88,80,0
312.03268,312.11725,87,80,0
312.0768,312.16138,88,80,0
312.1209,312.20547,87,80,0
312.16504,312.2496,88,80,0
312.20917,312.29373,87,80,0
312.25327,312.33783,88,80,0
312.2974,312.38196,87,80,0
312.34152,312.4261,88,80,0
312.38562,312.47018,87,80,0
312.42975,312.5143,88,80,0
312.47388,312.5584,87,80,0
312.51797,312.60254,88,80,0
312.5621,312.64667,87,80,0
312.60623,312.69077,88,80,0
312.65033,312.7349,87,80,0
312.69446,312.77902,88,80,0
312.7386,312.82312,87,80,0
312.78268,312.86725,88,80,0
312.8268,312.91138,87,80,0
312.8709,312.95547,88,80,0
312.91504,312.9996,87,80,0
312.95917,313.04373,88,80,0
313.00327,313.08783,87,80,0
313.0474,313.13196,88,80,0
313.09152,313.1761,87,80,0
313.13562,313.22018,88,80,0
313.17975,313.2643,87,80,0
313.22388,313.3084,88,80,0
313.26797,313.35254,87,80,0
313.3121,313.39667,88,80,0
313.35623,313.44077,87,80,0
313.40033,313.4849,88,80,0
313.44446,313.52902,87,80,0
313.4886,313.57312,88,80,0
313.53268,313.61725,87,80,0
313.5768,313.66138,88,80,0
313.6209,313.70547,87,80,0
313.6209,313.79373,85,80,0
313.75327,314.54373,87,80,0
315.95917,317.955,76,80,0
315.95917,317.955,85,80,0
315.95917,317.955,88,80,0
317.95917,318.155,86,78,0
317.95917,318.155,83,78,0
317.95917,318.155,76,78,0
318.15915,318.35498,85,78,0
318.15915,318.35498,81,78,0
318.15915,318.35498,76,78,0
318.35916,318.755,76,78,0
318.35916,318.755,80,78,0
318.35916,318.755,83,78,0
318.75916,318.955,76,78,0
318.75916,318.955,81,78,0
318.75916,318.955,85,78,0
318.95917,319.35498,76,77,0
318.95917,319.35498,80,77,0
318.95917,319.35498,83,77,0
319.35916,319.555,76,77,0
319.35916,319.555,81,77,0
319.35916,319.555,85,77,0
319.55917,320.755,76,77,0
319.55917,320.755,80,77,0
319.55917,320.755,83,77,0
321.75916,321.955,76,74,0
321.95917,324.09753,76,74,0
321.95917,324.09753,84,74,0
321.95917,324.09753,88,74,0
324.10202,324.31183,86,72,0
324.10202,324.31183,83,72,0
324.10202,324.31183,76,72,0
324.31628,324.52612,84,72,0
324.31628,324.52612,81,72,0
324.31628,324.52612,76,72,0
324.53058,324.9873,83,72,0
324.53058,324.9873,79,72,0
324.53058,324.9873,77,72,0
324.99213,325.21808,79,71,0
324.99213,325.21808,84,71,0
325.2229,325.81665,83,71,0
325.2229,325.81665,79,71,0
325.2229,325.81665,77,71,0
325.8229,326.11664,79,71,0
325.8229,326.11664,84,71,0
326.1229,327.91666,77,71,0
326.1229,327.91666,79,71,0
326.1229,327.91666,83,71,0
328.75623,328.9194,79,120,0
328.92288,330.9194,77,120,0
328.92288,330.9194,79,120,0
328.92288,330.9194,83,120,0
328.92288,330.9194,86,120,0
328.92288,330.9194,89,120,0
330.92288,331.0861,84,120,0
330.92288,331.0861,79,120,0
330.92288,331.0861,76,120,0
330.92288,331.0861,88,120,0
331.08957,331.25275,86,120,0
331.08957,331.25275,74,120,0
331.25623,331.4194,84,120,0
331.25623,331.4194,72,120,0
331.42288,331.5861,83,120,0
331.42288,331.5861,71,120,0
331.58957,331.75275,81,120,0
331.58957,331.75275,69,120,0
331.75623,331.9194,79,120,0
331.75623,331.9194,67,120,0
331.92288,332.0861,77,120,0
331.92288,332.0861,65,120,0
332.08957,332.25275,76,120,0
332.08957,332.25275,64,120,0
332.25623,332.4194,74,120,0
332.25623,332.4194,62,120,0
332.42288,332.5861,72,120,0
332.42288,332.5861,60,120,0
332.58954,332.75275,71,120,0
332.58954,332.75275,59,120,0
332.75623,332.9194,69,120,0
332.75623,332.9194,57,120,0
332.92288,333.25275,55,120,0
332.92288,333.25275,67,120,0
333.92288,334.347,59,120,0
333.92288,334.347,55,120,0
333.92288,334.347,53,120,0
333.92288,334.347,50,120,0
335.2086,336.06128,60,120,0
335.2086,336.06128,55,120,0
335.2086,336.06128,52,120,0
337.35144,337.77557,60,1,0
0.352941,0.70220554,48,80,0
0.352941,0.70220554,36,80,0
2.2941165,2.4669106,79,80,0
2.470587,2.8198516,81,80,0
2.823528,2.996322,79,80,0
2.9999986,3.349263,81,80,0
3.3529396,3.5257335,79,80,0
3.52941,3.8786745,78,80,0
4.588233,4.9374976,43,80,0
4.588233,4.9374976,31,80,0
6.5294085,6.7022023,67,80,0
6.705879,7.0551434,72,80,0
6.705879,7.0551434,60,80,0
7.05882,7.231614,71,80,0
7.05882,7.231614,67,80,0
7.2352905,7.584555,72,80,0
7.2352905,7.584555,60,80,0
7.5882316,7.7610254,71,80,0
7.5882316,7.7610254,67,80,0
7.764702,8.113967,60,80,0
7.764702,8.113967,72,80,0
8.823525,9.34926,62,80,0
8.823525,9.34926,65,80,0
9.352937,9.878672,60,80,0
9.352937,9.878672,64,80,0
8.823525,10.231612,55,80,0
9.882348,10.231612,59,80,0
9.882348,10.231612,62,80,0
10.941171,11.466906,64,80,0
10.941171,11.466906,67,80,0
11.470583,11.996318,62,80,0
11.470583,11.996318,65,80,0
10.941171,12.349258,55,80,0
11.999994,12.349258,60,80,0
11.999994,12.349258,64,80,0
13.058817,13.584552,60,80,0
13.058817,13.584552,69,80,0
13.588228,14.113963,59,80,0
13.588228,14.113963,67,80,0
13.058817,15.172787,55,80,0
14.11764,15.172787,60,80,0
14.11764,15.172787,66,80,0
15.176463,15.702198,59,80,0
15.176463,15.702198,67,80,0
15.176463,16.23161,55,80,0
15.705874,16.23161,60,80,0
15.705874,16.23161,69,80,0
16.235287,16.76102,59,80,0
16.235287,16.76102,67,80,0
16.235287,17.290432,55,80,0
16.764698,17.290432,60,80,0
16.764698,17.290432,69,80,0
17.29411,17.643373,67,80,0
17.29411,17.643373,62,80,0
17.29411,17.643373,59,80,0
19.411755,19.761019,48,80,0
19.411755,19.761019,60,80,0
21.35293,21.525724,79,80,0
21.529402,21.878666,81,80,0
21.882341,22.055136,79,80,0
22.058813,22.408077,81,80,0
22.411753,22.584547,79,80,0
22.588224,22.937489,78,80,0
23.647047,23.996311,71,80,0
23.647047,23.996311,67,80,0
23.999989,24.172783,66,80,0
23.999989,24.172783,69,80,0
24.176458,24.525723,71,80,0
24.176458,24.525723,67,80,0
24.5294,24.702194,66,80,0
24.5294,24.702194,69,80,0
24.70587,25.055134,64,80,0
24.70587,25.055134,67,80,0
25.764692,26.113958,66,110,0
25.764692,26.113958,69,110,0
26.117634,26.290428,67,110,0
26.117634,26.290428,64,110,0
26.294104,26.64337,62,110,0
26.294104,26.64337,66,110,0
26.647045,26.81984,64,110,0
26.647045,26.81984,60,110,0
26.823517,27.172781,59,110,0
26.823517,27.172781,62,110,0
27.176456,27.34925,60,110,0
27.176456,27.34925,57,110,0
27.352928,27.702192,55,110,0
27.352928,27.702192,59,110,0
27.705868,27.878662,57,110,0
27.705868,27.878662,54,110,0
27.88234,28.231604,55,110,0
27.88234,28.231604,52,110,0
28.23528,28.408073,54,110,0
28.23528,28.408073,50,110,0
28.41175,28.761015,52,110,0
28.41175,28.761015,48,110,0
28.764692,28.937485,50,110,0
28.764692,28.937485,47,110,0
28.941162,29.290426,52,110,0
28.941162,29.290426,48,110,0
29.294104,29.466898,50,110,0
29.294104,29.466898,47,110,0
29.470573,29.819838,52,110,0
29.470573,29.819838,48,110,0
29.823515,29.99631,52,110,0
29.823515,29.99631,49,110,0
29.999985,30.132338,50,100,0
30.08822,30.220573,54,100,0
30.08822,30.24631,57,100,0
30.176456,30.32719,62,100,0
30.26469,30.415426,54,100,0
30.26469,30.430132,57,100,0
30.352926,30.503662,62,100,0
30.441162,30.584543,54,100,0
30.441162,30.591896,57,100,0
30.529396,30.683807,62,100,0
30.617632,30.757338,54,100,0
30.617632,30.76469,57,100,0
30.705868,30.849249,62,100,0
30.794102,30.933807,54,100,0
30.794102,30.937485,57,100,0
30.882338,31.033073,62,100,0
30.970573,31.117632,57,100,0
30.970573,31.136013,54,100,0
31.058807,31.231602,50,80,0
31.147043,31.294102,54,80,0
31.147043,31.305132,57,80,0
31.23528,31.382338,62,80,0
31.323513,31.470573,54,80,0
31.323513,31.477926,57,80,0
31.411749,31.573513,62,80,0
31.499985,31.650719,57,80,0
31.499985,31.669102,54,80,0
31.588219,31.73528,48,80,0
31.676455,31.830866,54,80,0
31.676455,31.834543,57,80,0
31.76469,31.926455,62,80,0
31.852924,32.003662,57,80,0
31.852924,32.011013,54,80,0
31.94116,32.1066,62,80,0
32.029396,32.191162,54,80,0
32.029396,32.191162,57,80,0
32.11763,32.261013,47,80,0
32.205868,32.352924,59,80,0
32.205868,32.363953,55,80,0
32.2941,32.441162,62,80,0
32.382336,32.52204,55,80,0
32.382336,32.52572,59,80,0
32.470573,32.61028,62,80,0
32.558807,32.70954,59,80,0
32.558807,32.716896,55,80,0
32.64704,32.79778,62,80,0
32.73528,32.893368,55,80,0
32.73528,32.89704,59,80,0
32.823513,32.9816,62,80,0
32.911747,33.062485,55,80,0
32.911747,33.073513,59,80,0
32.999985,33.158073,62,80,0
33.08822,33.216896,55,80,0
33.08822,33.227924,59,80,0
33.176453,33.330864,50,80,0
33.26469,33.411747,54,80,0
33.26469,33.4191,57,80,0
33.352924,33.50366,62,80,0
33.44116,33.58822,54,80,0
33.44116,33.599247,57,80,0
33.529396,33.67278,62,80,0
33.61763,33.779396,57,80,0
33.61763,33.78307,54,80,0
33.705864,33.86028,48,80,0
33.7941,33.933807,54,80,0
33.7941,33.937485,57,80,0
33.882336,34.0441,62,80,0
33.97057,34.124985,54,80,0
33.97057,34.12866,57,80,0
34.058807,34.224247,62,80,0
34.14704,34.301453,57,80,0
34.14704,34.31616,54,80,0
34.235275,34.404396,47,80,0
34.323513,34.485275,59,80,0
34.323513,34.49263,55,80,0
34.411747,34.569836,62,80,0
34.49998,34.65807,59,80,0
34.49998,34.6691,55,80,0
34.58822,34.75366,62,80,0
34.676453,34.83822,59,80,0
34.676453,34.841896,55,80,0
34.76469,34.90072,62,80,0
34.852924,34.99263,59,80,0
34.852924,35.014687,55,80,0
34.94116,35.099247,62,80,0
35.029396,35.18013,59,80,0
35.029396,35.18013,55,80,0
35.11763,35.27204,62,80,0
35.205864,35.3566,59,80,0
35.205864,35.36763,55,80,0
35.2941,35.448513,50,80,0
35.382336,35.536747,57,80,0
35.382336,35.540424,54,80,0
35.47057,35.643364,62,80,0
35.558807,35.71322,54,80,0
35.558807,35.71322,57,80,0
35.64704,35.797775,62,80,0
35.735275,35.893364,57,80,0
35.735275,35.904392,54,80,0
35.823513,35.97057,48,80,0
35.911747,36.058807,54,80,0
35.911747,36.058807,57,80,0
35.99998,36.172775,62,80,0
36.08822,36.235275,54,80,0
36.08822,36.24263,57,80,0
36.176453,36.327187,62,80,0
36.264687,36.349247,54,80,0
36.264687,36.349247,57,80,0
36.352924,36.702187,47,80,0
36.705864,36.87866,54,80,0
36.882336,37.05513,55,80,0
37.058804,37.231598,59,80,0
37.235275,37.40807,51,80,0
37.411747,37.58454,52,80,0
37.588215,37.76101,55,80,0
37.764687,37.93748,47,80,0
37.94116,38.113953,48,80,0
38.117626,38.29042,52,80,0
38.294098,38.466892,44,80,0
38.47057,38.643364,45,80,0
38.64704,38.81983,48,80,0
38.82351,38.996304,47,80,0
38.99998,39.172775,45,80,0
39.176453,39.349243,47,80,0
39.35292,39.525715,48,80,0
39.529392,39.702187,50,80,0
39.705864,39.87866,49,80,0
39.88233,40.055126,50,80,0
40.058804,40.231598,38,80,0
40.235275,40.40807,40,80,0
40.411743,40.584538,42,80,0
40.588215,40.93748,43,80,0
41.647038,41.731598,50,80,0
41.73527,41.81983,54,80,0
41.73527,41.81983,57,80,0
41.82351,41.908066,62,80,0
41.911743,41.996304,54,80,0
41.911743,41.996304,57,80,0
41.999977,42.084538,62,80,0
42.088215,42.17277,54,80,0
42.088215,42.17277,57,80,0
42.17645,42.26101,48,80,0
42.264687,42.349243,54,80,0
42.264687,42.349243,57,80,0
42.35292,42.437477,62,80,0
42.441154,42.525715,54,80,0
42.441154,42.525715,57,80,0
42.529392,42.61395,62,80,0
42.617626,42.702183,54,80,0
42.617626,42.702183,57,80,0
42.70586,42.79042,47,80,0
42.794098,42.878654,55,80,0
42.794098,42.878654,59,80,0
42.88233,42.96689,62,80,0
42.970566,43.055126,59,80,0
42.970566,43.055126,55,80,0
43.058804,43.14336,62,80,0
43.147038,43.231598,59,80,0
43.147038,43.231598,55,80,0
43.23527,43.31983,62,80,0
43.32351,43.408066,55,80,0
43.32351,43.408066,59,80,0
43.411743,43.496304,62,80,0
43.499977,43.584538,59,80,0
43.499977,43.584538,55,80,0
43.588215,43.67277,62,80,0
43.67645,43.76101,59,80,0
43.67645,43.76101,55,80,0
43.764683,43.849243,50,80,0
43.85292,43.937477,54,80,0
43.85292,43.937477,57,80,0
43.941154,44.025715,62,80,0
44.02939,44.11395,54,80,0
44.02939,44.11395,57,80,0
44.117626,44.202183,62,80,0
44.20586,44.29042,54,80,0
44.20586,44.29042,57,80,0
44.294094,44.378654,48,80,0
44.38233,44.46689,54,80,0
44.38233,44.46689,57,80,0
44.470566,44.555126,62,80,0
44.5588,44.64336,54,80,0
44.5588,44.64336,57,80,0
44.647038,44.731594,62,80,0
44.73527,44.81983,54,80,0
44.73527,44.81983,57,80,0
44.823505,44.908066,46,80,0
44.911743,44.9963,55,80,0
44.911743,44.9963,58,80,0
44.999977,45.084538,62,80,0
45.08821,45.17277,58,80,0
45.08821,45.17277,55,80,0
45.17645,45.261005,62,80,0
45.264683,45.349243,58,80,0
45.264683,45.349243,55,80,0
45.352917,45.437477,62,80,0
45.441154,45.52571,55,80,0
45.441154,45.52571,58,80,0
45.52939,45.61395,62,80,0
45.617622,45.702183,58,80,0
45.617622,45.702183,55,80,0
45.70586,45.790417,62,80,0
45.794094,45.878654,58,80,0
45.794094,45.878654,55,80,0
45.88233,45.96689,50,80,0
45.970566,46.055122,54,80,0
45.970566,46.055122,57,80,0
46.0588,46.14336,62,80,0
46.147038,46.231594,54,80,0
46.147038,46.231594,57,80,0
46.23527,46.319828,62,80,0
46.323505,46.408066,54,80,0
46.323505,46.408066,57,80,0
46.411743,46.4963,48,80,0
46.499977,46.584534,54,80,0
46.499977,46.584534,57,80,0
46.58821,46.67277,62,80,0
46.67645,46.761005,54,80,0
46.67645,46.761005,57,80,0
46.764683,46.849243,62,80,0
46.852917,46.937477,54,80,0
46.852917,46.937477,57,80,0
46.941154,47.290417,46,80,0
47.294094,47.46689,66,80,0
47.470566,47.64336,67,80,0
47.647034,47.819828,70,80,0
47.823505,47.9963,62,80,0
47.999977,48.17277,63,80,0
48.176445,48.34924,67,80,0
48.352917,48.52571,59,80,0
48.52939,48.702183,60,80,0
48.705856,48.87865,63,80,0
48.882328,49.055122,55,80,0
49.0588,49.408062,56,80,0
49.41174,49.584534,64,80,0
49.58821,49.761005,65,80,0
49.764683,49.937473,68,80,0
49.94115,50.113945,61,80,0
50.117622,50.290417,62,80,0
50.294094,50.46689,65,80,0
50.470562,50.643356,57,80,0
50.647034,50.819828,58,80,0
50.823505,50.9963,62,80,0
50.999973,51.172768,54,80,0
51.176445,51.52571,55,80,0
51.529385,51.70218,62,80,0
51.705856,51.87865,63,80,0
51.882328,52.055122,67,80,0
52.058796,52.23159,59,80,0
52.235268,52.408062,60,80,0
52.41174,52.584534,63,80,0
52.588207,52.761,55,80,0
52.76468,52.937473,56,80,0
52.94115,53.113945,60,80,0
53.117622,53.290413,52,80,0
53.29409,53.466885,53,80,0
53.470562,53.643356,56,80,0
53.647034,53.819824,49,80,0
53.8235,53.996296,50,80,0
53.999973,54.172768,53,80,0
54.176445,54.34924,46,80,0
54.352913,54.525707,47,80,0
54.529385,54.70218,50,80,0
54.705856,54.87865,42,80,0
54.882324,55.05512,43,80,0
55.058796,55.23159,47,80,0
55.235268,55.408062,38,80,0
55.411736,55.58453,39,100,0
55.588207,55.761,43,100,0
55.76468,55.937473,35,100,0
55.941147,56.11394,36,100,0
56.11762,56.290413,39,100,0
56.29409,56.466885,31,100,0
56.47056,56.643353,32,100,0
56.64703,56.819824,36,100,0
56.8235,56.996296,31,100,0
56.999973,57.172764,32,100,0
57.17644,57.349236,36,100,0
57.352913,57.525707,30,100,0
58.058796,58.58453,41,80,0
58.588207,59.11394,39,80,0
57.529385,59.643353,31,103,0
59.11762,59.643353,36,80,0
59.64703,59.819824,31,80,0
59.823498,59.996292,35,80,0
59.99997,60.172764,38,80,0
60.17644,60.349236,43,80,0
60.352913,60.525703,45,80,0
60.52938,60.702175,47,80,0
60.705853,60.878647,48,80,0
60.882324,61.055115,40,80,0
61.058792,61.231586,50,80,0
61.235264,61.40806,51,80,0
61.411736,61.58453,43,80,0
61.588203,61.760998,54,80,0
61.764675,62.29041,55,80,0
62.294086,62.81982,53,80,0
62.823498,63.34923,51,80,0
61.764675,63.878643,43,103,0
63.35291,63.878643,48,80,0
63.88232,64.055115,43,80,0
64.05879,64.23158,47,80,0
64.23526,64.40806,50,80,0
64.411736,64.584526,55,80,0
64.5882,64.760994,57,80,0
64.76467,64.93747,59,80,0
64.94115,65.11394,60,80,0
65.117615,65.290405,52,80,0
65.29408,65.46688,62,80,0
65.47056,65.64335,63,80,0
65.647026,65.81982,55,80,0
65.823494,65.99629,66,80,0
65.99997,66.34923,67,80,0
68.117615,68.290405,47,80,0
68.29408,68.46688,42,80,0
68.47055,68.64335,43,80,0
68.647026,68.81982,45,80,0
68.823494,68.99629,47,80,0
68.99996,69.17276,48,80,0
69.17644,69.34923,50,80,0
69.352905,69.5257,52,80,0
69.52938,69.70217,54,80,0
69.70585,69.87864,55,80,0
69.88232,70.055115,57,80,0
70.05879,70.23158,59,80,0
70.23526,70.40805,55,80,0
70.41173,70.584526,54,76,0
70.5882,70.760994,55,70,0
70.76467,70.93746,57,70,0
70.94114,71.11394,59,70,0
71.117615,71.290405,60,70,0
71.29408,71.46687,62,70,0
71.47055,71.64335,64,70,0
71.647026,71.81982,65,70,0
71.823494,71.996284,67,70,0
71.99996,72.17276,69,70,0
72.17644,72.34923,71,70,0
72.352905,72.70217,48,80,0
72.352905,72.70217,60,80,0
74.29408,74.46687,79,80,0
74.47055,74.81982,81,80,0
74.823494,74.996284,79,80,0
74.99996,75.34923,81,80,0
75.352905,75.525696,79,80,0
75.52937,75.87864,78,80,0
76.588196,76.93746,43,80,0
76.588196,76.93746,31,80,0
78.52937,78.70216,67,80,0
78.70584,79.05511,72,80,0
78.70584,79.05511,60,80,0
79.058784,79.231575,71,80,0
79.058784,79.231575,67,80,0
79.23525,79.58452,72,80,0
79.23525,79.58452,60,80,0
79.588196,79.76099,71,80,0
79.588196,79.76099,67,80,0
79.76466,80.11393,60,80,0
79.76466,80.11393,72,80,0
80.64702,80.81981,43,100,0
80.82349,80.996284,36,110,0
80.82349,80.996284,48,110,0
80.99996,81.17275,35,110,0
80.99996,81.17275,47,110,0
81.17643,81.34922,36,110,0
81.17643,81.34922,48,110,0
81.3529,81.525696,38,110,0
81.3529,81.525696,50,110,0
81.52937,81.70216,40,110,0
81.52937,81.70216,52,110,0
81.70584,81.87864,41,110,0
81.70584,81.87864,53,110,0
81.88231,82.05511,43,110,0
81.88231,82.05511,55,110,0
82.058784,82.231575,45,110,0
82.058784,82.231575,57,110,0
82.23525,82.40805,47,110,0
82.23525,82.40805,59,110,0
82.41172,82.58452,48,110,0
82.41172,82.58452,60,110,0
82.588196,82.76099,50,110,0
82.588196,82.76099,62,110,0
82.76466,82.93746,52,110,0
82.76466,82.93746,64,110,0
82.94113,83.2904,53,100,0
82.94113,83.2904,65,100,0
83.294075,83.46687,52,110,0
83.294075,83.46687,64,110,0
83.47054,83.81981,53,100,0
83.47054,83.81981,65,100,0
83.82349,83.996284,52,110,0
83.82349,83.996284,64,110,0
83.999954,84.34922,50,110,0
83.999954,84.34922,62,110,0
84.88231,85.05511,45,100,0
85.058784,85.231575,38,120,0
85.058784,85.231575,50,120,0
85.23525,85.40804,36,120,0
85.23525,85.40804,48,120,0
85.41172,85.58452,38,120,0
85.41172,85.58452,50,120,0
85.588196,85.76099,40,120,0
85.588196,85.76099,52,120,0
85.76466,85.937454,41,120,0
85.76466,85.937454,53,120,0
85.94113,86.11393,43,120,0
85.94113,86.11393,55,120,0
86.11761,86.2904,45,120,0
86.11761,86.2904,57,120,0
86.294075,86.466866,47,120,0
86.294075,86.466866,59,120,0
86.47054,86.64334,48,120,0
86.47054,86.64334,60,120,0
86.64702,86.81981,50,120,0
86.64702,86.81981,62,120,0
86.82349,86.99628,52,120,0
86.82349,86.99628,64,120,0
86.999954,87.17275,53,120,0
86.999954,87.17275,65,120,0
87.17643,87.52569,55,90,0
87.17643,87.52569,67,90,0
87.529366,87.70216,53,87,0
87.529366,87.70216,65,87,0
87.70584,88.0551,55,86,0
87.70584,88.0551,67,86,0
88.05878,88.231575,54,82,0
88.05878,88.231575,66,82,0
88.23525,88.58451,52,81,0
88.23525,88.58451,64,81,0
89.1176,89.2904,47,100,0
89.294075,89.466866,40,100,0
89.294075,89.466866,52,100,0
89.47054,89.64334,39,100,0
89.47054,89.64334,51,100,0
89.64701,89.81981,40,100,0
89.64701,89.81981,52,100,0
89.82349,89.99628,42,100,0
89.82349,89.99628,54,100,0
89.999954,90.17275,43,100,0
89.999954,90.17275,55,100,0
90.17642,90.34922,45,100,0
90.17642,90.34922,57,100,0
90.3529,90.52569,47,100,0
90.3529,90.52569,59,100,0
90.529366,90.70216,49,100,0
90.529366,90.70216,61,100,0
90.70583,90.87863,51,100,0
90.70583,90.87863,63,100,0
90.88231,91.0551,52,100,0
90.88231,91.0551,64,100,0
91.05878,91.231575,54,100,0
91.05878,91.231575,66,100,0
91.235245,91.40804,55,100,0
91.235245,91.40804,67,100,0
91.41172,91.58451,57,100,0
91.58819,91.76099,69,100,0
91.58819,91.76099,72,100,0
91.76466,91.937454,67,100,0
91.76466,91.937454,71,100,0
91.94113,92.11392,54,100,0
92.1176,92.2904,66,100,0
92.1176,92.2904,69,100,0
92.294075,92.466866,64,100,0
92.294075,92.466866,67,100,0
92.47054,92.64333,51,100,0
92.64701,92.81981,63,100,0
92.64701,92.81981,66,100,0
92.82349,92.99628,64,100,0
92.82349,92.99628,67,100,0
92.999954,93.172745,69,100,0
92.999954,93.172745,66,100,0
93.17642,93.34922,71,100,0
93.17642,93.34922,67,100,0
93.3529,93.52569,72,100,0
93.3529,93.52569,69,100,0
93.529366,93.702156,62,100,0
93.70583,93.87863,77,100,0
93.70583,93.87863,74,100,0
93.88231,94.0551,76,100,0
93.88231,94.0551,72,100,0
94.05878,94.23157,59,100,0
94.235245,94.40804,74,100,0
94.235245,94.40804,71,100,0
94.41172,94.58451,72,100,0
94.41172,94.58451,69,100,0
94.58819,94.76098,56,100,0
94.764656,94.937454,71,100,0
94.764656,94.937454,68,100,0
94.94113,95.11392,72,100,0
94.94113,95.11392,69,100,0
95.1176,95.29039,74,100,0
95.1176,95.29039,71,100,0
95.29407,95.466866,76,100,0
95.29407,95.466866,72,100,0
95.47054,95.64333,77,100,0
95.47054,95.64333,74,100,0
95.64701,95.8198,55,100,0
95.82348,95.99628,70,100,0
95.82348,95.99628,67,100,0
95.999954,96.172745,65,100,0
95.999954,96.172745,69,100,0
96.17642,96.34922,52,100,0
96.35289,96.52569,67,100,0
96.35289,96.52569,64,100,0
96.529366,96.702156,65,100,0
96.529366,96.702156,62,100,0
96.70583,96.87863,49,100,0
96.8823,97.0551,64,100,0
96.8823,97.0551,61,100,0
97.05878,97.23157,65,100,0
97.05878,97.23157,62,100,0
97.235245,97.40804,67,100,0
97.235245,97.40804,64,100,0
97.41171,97.58451,69,100,0
97.41171,97.58451,65,100,0
97.58819,97.76098,70,100,0
97.58819,97.76098,67,100,0
97.764656,97.937454,50,100,0
97.941124,98.11392,62,100,0
98.1176,98.29039,64,100,0
98.1176,98.29039,61,100,0
98.29407,98.466866,65,100,0
98.29407,98.466866,62,100,0
98.470535,98.64333,67,100,0
98.470535,98.64333,64,100,0
98.64701,98.8198,69,100,0
98.64701,98.8198,65,100,0
98.82348,98.99628,44,100,0
98.999954,99.172745,59,100,0
98.999954,99.172745,56,100,0
99.17642,99.34921,60,100,0
99.17642,99.34921,57,100,0
99.35289,99.52569,62,100,0
99.35289,99.52569,59,100,0
99.529366,99.702156,64,100,0
99.529366,99.702156,60,100,0
99.70583,99.878624,65,100,0
99.70583,99.878624,62,100,0
99.8823,100.0551,45,100,0
100.05878,100.23157,57,100,0
100.235245,100.408035,59,100,0
100.235245,100.408035,56,100,0
100.41171,100.58451,60,100,0
100.41171,100.58451,57,100,0
100.58819,100.76098,62,100,0
100.58819,100.76098,59,100,0
100.764656,100.93745,64,100,0
100.764656,100.93745,60,100,0
100.941124,101.29039,50,100,0
101.29407,101.46686,62,100,0
101.470535,101.8198,52,100,0
101.82348,101.99627,64,100,0
101.99995,102.34921,45,100,0
102.35289,102.52568,57,100,0
102.52936,102.878624,41,100,0
102.8823,103.05509,53,100,0
103.05877,103.408035,38,100,0
103.41171,103.58451,50,100,0
103.58818,103.93745,35,100,0
103.941124,104.11392,47,100,0
104.11759,104.46686,32,100,0
104.470535,104.64333,44,100,0
104.647,104.99627,33,100,0
104.99995,105.172745,45,100,0
105.176414,105.702156,39,100,0
105.705826,106.23157,40,100,0
106.235245,106.76098,33,80,0
106.764656,107.29039,34,78,0
107.29407,107.8198,35,75,0
107.82348,108.34921,36,72,0
108.35289,110.46686,29,80,0
108.35289,110.46686,41,80,0
110.470535,112.05509,36,80,0
110.470535,112.05509,48,80,0
112.05877,112.408035,36,80,0
112.411705,112.49627,38,80,0
112.49995,112.5845,40,80,0
112.58818,113.113914,41,80,0
112.58818,113.113914,29,80,0
113.11759,113.643326,43,80,0
113.11759,113.643326,31,80,0
113.647,114.17274,45,80,0
113.647,114.17274,33,80,0
114.176414,114.70215,47,80,0
114.176414,114.70215,35,80,0
114.705826,115.23156,48,80,0
114.705826,115.23156,36,80,0
115.23524,115.76097,43,80,0
115.76465,115.93744,36,80,0
115.94112,116.113914,40,80,0
116.11759,116.29038,43,80,0
116.29406,116.46685,48,80,0
116.47053,116.643326,50,80,0
116.647,116.81979,52,80,0
116.82347,117.349205,53,80,0
116.82347,117.349205,41,80,0
117.35288,117.87862,45,80,0
117.35288,117.87862,57,80,0
117.88229,118.40803,48,80,0
117.88229,118.40803,60,80,0
118.411705,118.93744,53,80,0
118.411705,118.93744,65,80,0
118.94112,119.46685,52,80,0
118.94112,119.46685,64,80,0
119.47053,119.99626,50,80,0
119.47053,119.99626,62,80,0
119.99994,120.52567,48,80,0
119.99994,120.52567,60,80,0
120.52935,121.055084,58,80,0
120.52935,121.055084,46,80,0
121.05876,121.584496,57,80,0
121.05876,121.584496,45,80,0
121.58817,122.11391,55,80,0
121.58817,122.11391,43,80,0
122.117584,122.64332,53,80,0
122.117584,122.64332,41,80,0
122.646996,123.17273,58,80,0
122.646996,123.17273,46,80,0
123.17641,123.70214,60,80,0
123.17641,123.70214,48,80,0
123.70582,124.23155,48,80,0
123.70582,124.23155,36,80,0
124.23523,124.40803,41,80,0
124.411705,124.584496,45,80,0
124.58817,124.76096,48,80,0
124.76464,124.93744,53,80,0
124.94112,125.11391,55,80,0
125.117584,125.290375,57,80,0
125.646996,126.17273,55,100,0
125.646996,126.17273,58,100,0
126.17641,126.349205,53,100,0
126.17641,126.349205,57,100,0
126.352875,126.87862,55,100,0
126.352875,126.87862,52,100,0
125.29405,127.40803,48,100,0
126.882286,127.40803,57,100,0
126.882286,127.40803,53,100,0
127.4117,127.76096,58,100,0
127.4117,127.76096,55,100,0
127.76464,128.29037,58,100,0
127.76464,128.29037,62,100,0
128.29405,128.46684,57,100,0
128.29405,128.46684,60,100,0
128.47052,128.99626,58,100,0
128.47052,128.99626,55,100,0
127.4117,129.52567,48,100,0
128.99994,129.52567,57,100,0
128.99994,129.52567,53,100,0
129.8823,130.40802,55,100,0
129.8823,130.40802,58,100,0
130.4117,130.58449,53,100,0
130.4117,130.58449,57,100,0
130.58817,131.1139,55,100,0
130.58817,131.1139,52,100,0
129.52934,131.64331,48,100,0
131.11758,131.64331,57,100,0
131.11758,131.64331,53,100,0
131.64699,131.99626,58,100,0
131.64699,131.99626,55,100,0
131.99994,132.52567,58,100,0
131.99994,132.52567,62,100,0
132.52934,132.70213,57,100,0
132.52934,132.70213,60,100,0
132.70581,133.23781,58,100,0
132.70581,133.23781,55,100,0
131.64699,133.79561,48,100,0
133.24158,133.79561,52,89,0
133.24158,133.79561,55,89,0
133.97603,134.14883,53,80,0
134.15251,134.3253,57,80,0
134.50545,134.67824,48,80,0
134.68192,134.8547,53,80,0
135.03485,135.20766,45,80,0
135.21133,135.38412,48,80,0
135.56427,135.73706,41,80,0
135.74074,135.91353,45,80,0
136.09367,136.26648,47,80,0
136.27016,136.44295,48,80,0
136.6231,136.79588,58,80,0
136.79956,136.97235,59,80,0
137.15251,137.3253,59,80,0
137.32898,137.50177,60,80,0
137.68192,137.8547,51,80,0
137.85838,138.03117,52,80,0
138.21133,138.38412,52,80,0
138.3878,138.5606,53,80,0
138.74074,138.91353,42,80,0
138.9172,139.09,43,80,0
139.27016,139.44295,44,80,0
139.44662,139.61942,45,80,0
139.79956,139.97235,45,80,0
139.97603,140.14882,46,80,0
140.32898,140.50177,47,80,0
140.50545,140.67824,48,80,0
140.85838,141.03117,35,80,0
141.03485,141.20764,36,80,0
141.21132,141.38412,41,80,0
141.3878,141.5606,45,80,0
141.56427,141.73706,48,80,0
141.74074,141.91353,53,80,0
141.9172,142.09,55,80,0
142.09367,142.26648,57,80,0
142.6231,143.14882,55,100,0
142.6231,143.14882,58,100,0
143.1525,143.3253,53,100,0
143.1525,143.3253,57,100,0
143.32896,143.8547,55,100,0
143.32896,143.8547,52,100,0
142.27014,144.38412,48,100,0
143.85838,144.38412,57,100,0
143.85838,144.38412,53,100,0
144.3878,144.73706,58,100,0
144.3878,144.73706,55,100,0
144.74074,145.26646,58,100,0
144.74074,145.26646,62,100,0
145.27014,145.44295,57,100,0
145.27014,145.44295,60,100,0
145.44662,145.97235,58,100,0
145.44662,145.97235,55,100,0
144.3878,146.50177,48,100,0
145.97603,146.50177,57,100,0
145.97603,146.50177,53,100,0
146.85838,147.38411,55,100,0
146.85838,147.38411,58,100,0
147.38779,147.5606,53,100,0
147.38779,147.5606,57,100,0
147.56427,148.09,55,100,0
147.56427,148.09,52,100,0
146.50545,148.61942,48,100,0
148.09367,148.61942,57,100,0
148.09367,148.61942,53,100,0
148.6231,148.97235,58,100,0
148.6231,148.97235,55,100,0
148.97603,149.50177,58,100,0
148.97603,149.50177,62,100,0
149.50543,149.67824,57,100,0
149.50543,149.67824,60,100,0
149.68192,150.21391,58,100,0
149.68192,150.21391,55,100,0
148.6231,150.77873,48,100,0
150.21767,150.77873,52,89,0
150.21767,150.77873,55,89,0
150.95924,151.13203,53,80,0
151.13571,151.3085,57,80,0
151.48865,151.66145,48,80,0
151.66513,151.83792,53,80,0
152.01807,152.19086,45,80,0
152.19453,152.36732,48,80,0
152.54747,152.72028,41,80,0
152.72395,152.89674,45,80,0
153.07689,153.24968,47,80,0
153.25336,153.42615,48,80,0
153.6063,153.7791,58,80,0
153.78278,153.95557,59,80,0
154.13571,154.3085,59,80,0
154.31218,154.48497,60,80,0
154.66512,154.83792,51,80,0
154.8416,155.01439,52,80,0
155.01807,155.5438,53,80,0
155.01807,155.5438,41,80,0
155.54747,156.07321,56,80,0
155.54747,156.07321,44,80,0
156.07689,156.60262,48,80,0
156.07689,156.60262,60,80,0
156.6063,157.13203,53,80,0
156.6063,157.13203,65,80,0
157.13571,157.66144,51,80,0
157.13571,157.66144,63,80,0
157.66512,158.19086,61,80,0
157.66512,158.19086,49,80,0
158.19453,158.72026,48,80,0
158.19453,158.72026,60,80,0
158.72394,159.24968,46,80,0
158.72394,159.24968,58,80,0
159.25336,159.77908,56,80,0
159.25336,159.77908,44,80,0
159.78276,160.3085,60,80,0
159.78276,160.3085,48,80,0
160.31218,160.8379,63,80,0
160.31218,160.8379,51,80,0
160.84158,161.36732,68,80,0
160.84158,161.36732,56,80,0
161.371,161.89673,55,80,0
161.371,161.89673,67,80,0
161.9004,162.42615,53,80,0
161.9004,162.42615,65,80,0
162.42982,162.95555,51,80,0
162.42982,162.95555,63,80,0
162.95923,163.48497,50,80,0
162.95923,163.48497,62,80,0
163.66512,163.8379,59,80,0
163.84158,164.01439,60,80,0
164.19453,164.36732,59,80,0
164.371,164.5438,60,80,0
164.72394,164.89673,59,80,0
164.9004,165.07321,60,80,0
165.25336,165.42615,54,80,0
165.42982,165.60262,63,80,0
165.78276,165.95555,63,80,0
165.95923,166.13203,62,80,0
166.31218,166.48497,50,80,0
166.48865,166.66144,60,80,0
166.84158,167.01437,60,80,0
167.01805,167.19086,59,80,0
167.371,167.5438,52,80,0
167.54747,167.72026,61,80,0
167.9004,168.0732,61,80,0
168.07687,168.24968,60,80,0
168.42982,168.60262,48,80,0
168.6063,168.77908,58,80,0
168.95923,169.13202,58,80,0
169.1357,169.3085,56,80,0
169.48865,169.66144,47,80,0
169.66512,169.8379,55,80,0
170.01805,170.19084,48,80,0
170.19452,170.36732,55,80,0
170.54747,170.72026,50,80,0
170.72394,170.89673,55,80,0
171.07687,171.24968,51,80,0
171.25334,171.42615,48,80,0
171.6063,171.77908,41,80,0
171.78276,171.95555,42,80,0
172.1357,172.3085,42,80,0
172.31216,172.48497,43,80,0
172.66512,172.8379,31,80,0
172.84158,173.01437,43,80,0
173.19452,173.36732,31,80,0
173.37099,173.5438,43,80,0
173.72394,173.89673,31,80,0
173.9004,174.0732,43,80,0
174.25334,174.42615,31,80,0
174.42982,174.60262,43,80,0
174.78276,174.95555,31,70,0
174.95923,175.13202,43,70,0
175.31216,175.48497,31,70,0
175.48865,175.66144,43,70,0
175.84158,176.01437,31,70,0
176.01805,176.19084,43,70,0
176.19452,176.5438,31,70,0
176.54747,178.30849,43,99,0
178.31216,178.66144,31,80,0
178.66512,180.42613,43,97,0
180.42981,180.77908,31,80,0
181.1357,181.30849,47,80,0
181.31216,181.48495,48,80,0
181.48863,182.01437,50,80,0
182.01805,182.54378,52,80,0
180.78276,182.89673,43,103,0
182.54745,182.89673,53,80,0
183.25334,183.42613,47,80,0
183.42981,183.6026,48,80,0
183.60628,184.13202,50,80,0
182.9004,184.30849,43,102,0
184.1357,184.66142,52,80,0
184.6651,185.01437,53,80,0
184.6651,185.01437,43,80,0
188.9004,189.0732,43,70,0
189.07687,189.24966,42,70,0
189.25334,189.42613,43,70,0
189.42981,189.6026,45,70,0
189.60628,189.77907,47,70,0
189.78275,189.95555,48,70,0
189.95923,190.13202,50,70,0
190.1357,190.30849,52,70,0
190.31216,190.48495,53,70,0
190.48863,190.66142,55,70,0
190.6651,190.83789,57,70,0
190.84157,191.01437,59,70,0
191.01805,191.36731,60,80,0
192.95921,193.13202,79,80,0
193.1357,193.48495,81,80,0
193.48863,193.66142,79,80,0
193.6651,194.01437,81,80,0
194.01804,194.19084,79,80,0
194.19452,194.54378,78,80,0
195.25334,195.6026,43,80,0
195.25334,195.6026,31,80,0
197.19452,197.36731,67,80,0
197.37099,197.72025,72,80,0
197.37099,197.72025,60,80,0
197.72392,197.89671,71,80,0
197.72392,197.89671,67,80,0
197.90039,198.24966,72,80,0
197.90039,198.24966,60,80,0
198.25334,198.42613,71,80,0
198.25334,198.42613,67,80,0
198.42981,198.77907,60,80,0
198.42981,198.77907,72,80,0
199.31216,199.48495,43,100,0
199.48863,199.66142,36,110,0
199.48863,199.66142,48,110,0
199.6651,199.83789,35,110,0
199.6651,199.83789,47,110,0
199.84157,200.01436,36,110,0
199.84157,200.01436,48,110,0
200.01804,200.19083,38,110,0
200.01804,200.19083,50,110,0
200.1945,200.36731,40,110,0
200.1945,200.36731,52,110,0
200.37099,200.54378,41,110,0
200.37099,200.54378,53,110,0
200.54745,200.72025,43,110,0
200.54745,200.72025,55,110,0
200.72392,200.89671,45,110,0
200.72392,200.89671,57,110,0
200.90039,201.07318,47,110,0
200.90039,201.07318,59,110,0
201.07686,201.24966,48,110,0
201.07686,201.24966,60,110,0
201.25333,201.42613,50,110,0
201.25333,201.42613,62,110,0
201.42981,201.6026,52,110,0
201.42981,201.6026,64,110,0
201.60628,201.95554,53,100,0
201.60628,201.95554,65,100,0
201.95921,202.132,52,110,0
201.95921,202.132,64,110,0
202.13568,202.48495,53,100,0
202.13568,202.48495,65,100,0
202.48863,202.66142,52,110,0
202.48863,202.66142,64,110,0
202.6651,203.01436,65,110,0
202.6651,203.01436,53,110,0
203.72392,203.89671,43,100,0
203.72392,203.89671,31,100,0
203.90039,204.07318,42,100,0
203.90039,204.07318,30,100,0
204.07686,204.24965,43,100,0
204.07686,204.24965,31,100,0
204.25333,204.42613,45,100,0
204.25333,204.42613,33,100,0
204.42981,204.6026,47,100,0
204.42981,204.6026,35,100,0
204.60628,204.77907,48,100,0
204.60628,204.77907,36,100,0
204.78275,204.95554,50,100,0
204.78275,204.95554,38,100,0
204.95921,205.132,52,100,0
204.95921,205.132,40,100,0
205.13568,205.30847,53,100,0
205.13568,205.30847,41,100,0
205.31215,205.48495,55,100,0
205.31215,205.48495,43,100,0
205.48863,205.66142,57,100,0
205.48863,205.66142,45,100,0
205.6651,205.83789,59,100,0
205.6651,205.83789,47,100,0
205.84157,206.19083,60,100,0
205.84157,206.19083,48,100,0
206.1945,206.3673,59,100,0
206.1945,206.3673,55,100,0
206.37097,206.72025,60,100,0
206.37097,206.72025,48,100,0
206.72392,206.89671,59,100,0
206.72392,206.89671,55,100,0
206.90039,207.24965,60,100,0
206.90039,207.24965,48,100,0
207.95921,208.48495,62,80,0
207.95921,208.48495,65,80,0
208.48862,209.01436,60,80,0
208.48862,209.01436,64,80,0
207.95921,209.3673,55,80,0
209.01804,209.3673,59,80,0
209.01804,209.3673,62,80,0
210.07686,210.6026,64,80,0
210.07686,210.6026,67,80,0
210.60628,211.132,62,80,0
210.60628,211.132,65,80,0
210.07686,211.48494,55,80,0
211.13568,211.48494,60,80,0
211.13568,211.48494,64,80,0
212.1945,212.72025,60,80,0
212.1945,212.72025,69,80,0
212.72392,213.24965,59,80,0
212.72392,213.24965,67,80,0
212.1945,214.30847,55,80,0
213.25333,214.30847,60,80,0
213.25333,214.30847,66,80,0
214.31215,214.83789,59,80,0
214.31215,214.83789,67,80,0
214.31215,215.3673,55,80,0
214.84157,215.3673,60,80,0
214.84157,215.3673,69,80,0
215.37097,215.89671,59,80,0
215.37097,215.89671,67,80,0
215.37097,216.42612,55,80,0
215.90039,216.42612,60,80,0
215.90039,216.42612,69,80,0
216.4298,216.77907,67,80,0
216.4298,216.77907,62,80,0
216.4298,216.77907,59,80,0
218.54744,218.89671,48,100,0
218.54744,218.89671,60,100,0
220.48862,220.6614,79,80,0
220.66508,221.01436,81,80,0
221.01804,221.19083,79,80,0
221.1945,221.54376,81,80,0
221.54744,221.72023,79,80,0
221.7239,222.07318,78,80,0
222.78273,223.132,67,80,0
222.78273,223.132,72,80,0
223.13568,223.30847,66,80,0
223.13568,223.30847,72,80,0
223.31215,223.6614,67,80,0
223.31215,223.6614,72,80,0
223.66508,223.83788,65,80,0
223.66508,223.83788,72,80,0
223.84155,224.19083,64,80,0
223.84155,224.19083,67,80,0
224.90038,225.24965,72,120,0
224.90038,225.24965,69,120,0
225.25333,225.42612,71,120,0
225.25333,225.42612,67,120,0
225.4298,225.77905,69,120,0
225.4298,225.77905,65,120,0
225.78273,225.95552,67,120,0
225.78273,225.95552,64,120,0
225.9592,226.30847,65,120,0
225.9592,226.30847,62,120,0
226.31215,226.48494,64,120,0
226.31215,226.48494,60,120,0
226.48862,226.83788,62,120,0
226.48862,226.83788,59,120,0
226.84155,227.01434,60,120,0
226.84155,227.01434,57,120,0
227.01802,227.3673,59,120,0
227.01802,227.3673,55,120,0
227.37097,227.54376,57,120,0
227.37097,227.54376,53,120,0
227.54744,227.8967,55,120,0
227.54744,227.8967,52,120,0
227.90038,228.07317,53,120,0
227.90038,228.07317,50,120,0
228.07684,228.42612,52,120,0
228.07684,228.42612,48,120,0
228.4298,228.60258,50,120,0
228.4298,228.60258,47,120,0
228.60626,228.95552,52,120,0
228.60626,228.95552,48,120,0
228.9592,229.13199,48,120,0
228.9592,229.13199,45,120,0
229.13567,229.22023,43,100,0
229.2239,229.30847,47,100,0
229.2239,229.30847,50,100,0
229.31215,229.3967,55,100,0
229.40038,229.48494,50,100,0
229.40038,229.48494,47,100,0
229.48862,229.57317,55,100,0
229.57684,229.6614,50,100,0
229.57684,229.6614,47,100,0
229.66508,229.74965,55,100,0
229.75333,229.83788,50,100,0
229.75333,229.83788,47,100,0
229.84155,229.92612,55,100,0
229.9298,230.01434,50,100,0
229.9298,230.01434,47,100,0
230.01802,230.10258,55,100,0
230.10626,230.19083,50,100,0
230.10626,230.19083,47,100,0
230.19449,230.27905,43,80,0
230.28273,230.3673,47,80,0
230.28273,230.3673,50,80,0
230.37097,230.45552,55,80,0
230.4592,230.54376,50,80,0
230.4592,230.54376,47,80,0
230.54744,230.63199,55,80,0
230.63567,230.72023,50,80,0
230.63567,230.72023,47,80,0
230.7239,230.80847,41,80,0
230.81215,230.8967,50,80,0
230.81215,230.8967,47,80,0
230.90038,230.98494,55,80,0
230.98862,231.07317,50,80,0
230.98862,231.07317,47,80,0
231.07684,231.1614,55,80,0
231.16508,231.24965,50,80,0
231.16508,231.24965,47,80,0
231.25331,231.33788,40,80,0
231.34155,231.42612,48,80,0
231.34155,231.42612,52,80,0
231.4298,231.51434,55,80,0
231.51802,231.60258,52,80,0
231.51802,231.60258,48,80,0
231.60626,231.69081,55,80,0
231.69449,231.77905,52,80,0
231.69449,231.77905,48,80,0
231.78273,231.8673,55,80,0
231.87097,231.95552,52,80,0
231.87097,231.95552,48,80,0
231.9592,232.04376,55,80,0
232.04744,232.13199,52,80,0
232.04744,232.13199,48,80,0
232.13567,232.22023,55,80,0
232.2239,232.30847,52,80,0
232.2239,232.30847,48,80,0
232.31215,232.3967,43,80,0
232.40038,232.48494,47,80,0
232.40038,232.48494,50,80,0
232.48862,232.57317,55,80,0
232.57684,232.6614,50,80,0
232.57684,232.6614,47,80,0
232.66508,232.74963,55,80,0
232.75331,232.83788,50,80,0
232.75331,232.83788,47,80,0
232.84155,232.92612,41,80,0
232.9298,233.01434,50,80,0
232.9298,233.01434,47,80,0
233.01802,233.10258,55,80,0
233.10626,233.19081,50,80,0
233.10626,233.19081,47,80,0
233.19449,233.27905,55,80,0
233.28273,233.3673,50,80,0
233.28273,233.3673,47,80,0
233.37097,233.45552,40,80,0
233.4592,233.54376,48,80,0
233.4592,233.54376,52,80,0
233.54744,233.63199,55,80,0
233.63567,233.72023,52,80,0
233.63567,233.72023,48,80,0
233.7239,233.80847,55,80,0
233.81213,233.8967,52,80,0
233.81213,233.8967,48,80,0
233.90038,233.98494,55,80,0
233.98862,234.07317,52,80,0
233.98862,234.07317,48,80,0
234.07684,234.1614,55,80,0
234.16508,234.24963,52,80,0
234.16508,234.24963,48,80,0
234.25331,234.33788,55,80,0
234.34155,234.42612,52,80,0
234.34155,234.42612,48,80,0
234.4298,234.51434,43,80,0
234.51802,234.60258,47,80,0
234.51802,234.60258,50,80,0
234.60626,234.69081,55,80,0
234.69449,234.77905,50,80,0
234.69449,234.77905,47,80,0
234.78273,234.8673,55,80,0
234.87096,234.95552,50,80,0
234.87096,234.95552,47,80,0
234.9592,235.04376,41,80,0
235.04744,235.13199,50,80,0
235.04744,235.13199,47,80,0
235.13567,235.22023,55,80,0
235.2239,235.30846,50,80,0
235.2239,235.30846,47,80,0
235.31213,235.3967,55,80,0
235.40038,235.48494,50,80,0
235.40038,235.48494,47,80,0
235.48862,235.83788,40,80,0
235.84155,236.01434,59,80,0
236.01802,236.19081,60,80,0
236.19449,236.36728,64,80,0
236.37096,236.54376,56,80,0
236.54744,236.72023,57,80,0
236.7239,236.8967,60,80,0
236.90038,237.07317,52,80,0
237.07684,237.24963,53,80,0
237.25331,237.42612,57,80,0
237.42978,237.60258,49,80,0
237.60626,237.77905,50,80,0
237.78273,237.95552,53,80,0
237.9592,238.13199,52,80,0
238.13567,238.30846,50,80,0
238.31213,238.48494,52,80,0
238.4886,238.6614,53,80,0
238.66508,238.83788,55,80,0
238.84155,239.01434,54,80,0
239.01802,239.19081,55,80,0
239.19449,239.36728,43,80,0
239.37096,239.54376,45,80,0
239.54744,239.72023,47,80,0
239.7239,240.07317,48,80,0
240.78273,240.86728,43,80,0
240.87096,240.95552,47,80,0
240.87096,240.95552,50,80,0
240.9592,241.04376,55,80,0
241.04742,241.13199,50,80,0
241.04742,241.13199,47,80,0
241.13567,241.22023,55,80,0
241.2239,241.30846,50,80,0
241.2239,241.30846,47,80,0
241.31213,241.3967,41,80,0
241.40038,241.48492,50,80,0
241.40038,241.48492,47,80,0
241.4886,241.57317,55,80,0
241.57684,241.6614,50,80,0
241.57684,241.6614,47,80,0
241.66508,241.74963,55,80,0
241.75331,241.83788,50,80,0
241.75331,241.83788,47,80,0
241.84155,241.9261,39,80,0
241.92978,242.01434,48,80,0
241.92978,242.01434,51,80,0
242.01802,242.10258,55,80,0
242.10625,242.19081,51,80,0
242.10625,242.19081,48,80,0
242.19449,242.27905,55,80,0
242.28273,242.36728,51,80,0
242.28273,242.36728,48,80,0
242.37096,242.45552,55,80,0
242.4592,242.54375,51,80,0
242.4592,242.54375,48,80,0
242.54742,242.63199,55,80,0
242.63567,242.72023,51,80,0
242.63567,242.72023,48,80,0
242.7239,242.80846,55,80,0
242.81213,242.8967,51,80,0
242.81213,242.8967,48,80,0
242.90038,242.98492,43,80,0
242.9886,243.07317,47,80,0
242.9886,243.07317,50,80,0
243.07684,243.1614,55,80,0
243.16508,243.24963,50,80,0
243.16508,243.24963,47,80,0
243.25331,243.33788,55,80,0
243.34155,243.4261,50,80,0
243.34155,243.4261,47,80,0
243.42978,243.51434,41,80,0
243.51802,243.60257,50,80,0
243.51802,243.60257,47,80,0
243.60625,243.69081,55,80,0
243.69449,243.77905,50,80,0
243.69449,243.77905,47,80,0
243.78273,243.86728,55,80,0
243.87096,243.95552,50,80,0
243.87096,243.95552,47,80,0
243.9592,244.04375,40,80,0
244.04742,244.13199,48,80,0
244.04742,244.13199,51,80,0
244.13567,244.22023,55,80,0
244.2239,244.30846,51,80,0
244.2239,244.30846,48,80,0
244.31213,244.3967,55,80,0
244.40038,244.48492,51,80,0
244.40038,244.48492,48,80,0
244.4886,244.57317,55,80,0
244.57684,244.6614,51,80,0
244.57684,244.6614,48,80,0
244.66507,244.74963,55,80,0
244.75331,244.83788,51,80,0
244.75331,244.83788,48,80,0
244.84155,244.9261,55,80,0
244.92978,245.01434,51,80,0
244.92978,245.01434,48,80,0
245.01802,245.10257,46,80,0
245.10625,245.19081,53,80,0
245.10625,245.19081,50,80,0
245.19449,245.27905,58,80,0
245.28273,245.36728,53,80,0
245.28273,245.36728,50,80,0
245.37096,245.45552,58,80,0
245.4592,245.54375,53,80,0
245.4592,245.54375,50,80,0
245.54742,245.63199,44,80,0
245.63567,245.72023,53,80,0
245.63567,245.72023,50,80,0
245.72389,245.80846,58,80,0
245.81213,245.8967,53,80,0
245.81213,245.8967,50,80,0
245.90038,245.98492,58,80,0
245.9886,246.07317,53,80,0
245.9886,246.07317,50,80,0
246.07684,246.16139,43,80,0
246.16507,246.24963,51,80,0
246.16507,246.24963,55,80,0
246.25331,246.33788,58,80,0
246.34155,246.4261,55,80,0
246.34155,246.4261,51,80,0
246.42978,246.51434,58,80,0
246.51802,246.60257,55,80,0
246.51802,246.60257,51,80,0
246.60625,246.69081,58,80,0
246.69449,246.77905,51,80,0
246.69449,246.77905,55,80,0
246.78273,246.86728,58,80,0
246.87096,246.95552,55,80,0
246.87096,246.95552,51,80,0
246.9592,247.04375,58,80,0
247.04742,247.13199,55,80,0
247.04742,247.13199,51,80,0
247.13567,247.22021,46,80,0
247.22389,247.30846,53,80,0
247.22389,247.30846,50,80,0
247.31213,247.3967,58,80,0
247.40038,247.48492,53,80,0
247.40038,247.48492,50,80,0
247.4886,247.57317,58,80,0
247.57684,247.66139,53,80,0
247.57684,247.66139,50,80,0
247.66507,247.74963,44,80,0
247.75331,247.83788,53,80,0
247.75331,247.83788,50,80,0
247.84155,247.9261,58,80,0
247.92978,248.01434,53,80,0
247.92978,248.01434,50,80,0
248.01802,248.10257,58,80,0
248.10625,248.19081,53,80,0
248.10625,248.19081,50,80,0
248.19449,248.54375,43,80,0
248.54742,248.72021,62,80,0
248.72389,248.8967,63,80,0
248.90038,249.07317,67,80,0
249.07684,249.24963,59,80,0
249.25331,249.4261,60,80,0
249.42978,249.60257,63,80,0
249.60625,249.77904,55,80,0
249.78271,249.95552,56,80,0
249.9592,250.13199,60,80,0
250.13567,250.30846,52,80,0
250.31213,250.66139,53,80,0
250.66507,250.83786,64,80,0
250.84154,251.01434,65,80,0
251.01802,251.19081,68,80,0
251.19449,251.36728,61,80,0
251.37096,251.54375,62,80,0
251.54742,251.72021,65,80,0
251.72389,251.8967,57,80,0
251.90036,252.07317,58,80,0
252.07684,252.24963,62,80,0
252.25331,252.4261,54,80,0
252.42978,252.77904,55,80,0
252.78271,252.95552,66,80,0
252.95918,253.13199,67,80,0
253.13567,253.30846,70,80,0
253.31213,253.48492,62,80,0
253.4886,253.66139,63,80,0
253.66507,253.83786,67,80,0
253.84154,254.01434,59,80,0
254.018,254.19081,60,80,0
254.19449,254.36728,63,80,0
254.37096,254.54375,55,80,0
254.54742,254.72021,56,80,0
254.72389,254.89668,60,80,0
254.90036,255.07317,52,80,0
255.07684,255.24963,53,80,0
255.25331,255.4261,56,80,0
255.42978,255.60257,49,80,0
255.60625,255.77904,50,80,0
255.78271,255.9555,53,80,0
255.95918,256.132,46,80,0
256.13565,256.30844,47,80,0
256.31213,256.48492,50,80,0
256.4886,256.6614,42,80,0
256.66507,256.83786,43,80,0
256.84155,257.01434,47,80,0
257.018,257.1908,38,80,0
257.1945,257.36728,39,80,0
257.37094,257.54373,43,80,0
257.54742,257.7202,35,80,0
257.7239,257.8967,36,100,0
257.90036,258.07315,39,100,0
258.07684,258.24963,31,100,0
258.2533,258.4261,32,100,0
258.42978,258.60257,36,100,0
258.60623,258.77905,30,100,0
259.31213,259.83786,41,80,0
259.84155,260.36728,39,80,0
258.7827,260.8967,31,104,0
260.37094,260.8967,36,80,0
260.90036,261.07315,31,80,0
261.07684,261.24963,35,80,0
261.2533,261.4261,38,80,0
261.42978,261.60257,43,80,0
261.60623,261.77905,45,80,0
261.7827,261.9555,47,80,0
261.9592,262.132,48,80,0
262.13565,262.30844,43,80,0
262.31213,262.48492,50,80,0
262.4886,262.66138,51,80,0
262.66507,262.83786,43,80,0
262.84155,263.01434,54,80,0
263.018,263.54373,55,80,0
263.54742,264.07315,53,80,0
264.07684,264.60257,51,80,0
263.018,265.132,43,105,0
264.60623,265.132,48,80,0
265.13565,265.30844,43,80,0
265.31213,265.48492,47,80,0
265.4886,265.66138,50,80,0
265.66507,265.83786,55,80,0
265.84152,266.01434,57,80,0
266.018,266.1908,59,80,0
266.1945,266.36728,60,80,0
266.37094,266.54373,55,80,0
266.54742,266.7202,62,80,0
266.72388,266.8967,63,80,0
266.90036,267.07315,55,80,0
267.07684,267.24963,66,80,0
267.2533,267.4261,67,80,0
269.37094,269.54373,55,80,0
269.54742,269.7202,54,80,0
269.72388,269.89667,55,80,0
269.90036,270.07315,57,80,0
270.07684,270.24963,59,80,0
270.2533,270.4261,60,80,0
270.42978,270.60257,62,80,0
270.60623,270.77902,64,80,0
270.7827,270.9555,66,80,0
270.95917,271.132,67,80,0
271.13565,271.30844,69,80,0
271.31213,271.48492,71,80,0
271.4886,271.66138,59,80,0
271.66507,271.83786,57,80,0
271.84152,272.0143,59,80,0
273.60623,273.77902,60,120,0
273.60623,273.77902,55,120,0
273.60623,273.77902,52,120,0
273.7827,273.9555,59,120,0
273.7827,273.9555,53,120,0
273.7827,273.9555,50,120,0
273.95917,274.132,60,120,0
273.95917,274.132,55,120,0
273.95917,274.132,52,120,0
274.13565,274.30844,62,120,0
274.13565,274.30844,57,120,0
274.13565,274.30844,53,120,0
274.31213,274.48492,64,120,0
274.31213,274.48492,59,120,0
274.31213,274.48492,55,120,0
274.4886,274.66138,65,120,0
274.4886,274.66138,60,120,0
274.4886,274.66138,57,120,0
274.66507,274.83786,67,120,0
274.66507,274.83786,62,120,0
274.66507,274.83786,59,120,0
274.84152,275.0143,69,120,0
274.84152,275.0143,64,120,0
274.84152,275.0143,60,120,0
275.018,275.1908,71,120,0
275.018,275.1908,65,120,0
275.018,275.1908,62,120,0
275.19446,275.36728,72,120,0
275.19446,275.36728,67,120,0
275.19446,275.36728,64,120,0
275.37094,275.54373,74,120,0
275.37094,275.54373,69,120,0
275.37094,275.54373,65,120,0
275.54742,275.7202,76,120,0
275.54742,275.7202,72,120,0
275.72388,276.07315,72,120,0
275.72388,276.07315,77,120,0
275.72388,276.07315,69,120,0
276.0768,276.24963,76,120,0
276.0768,276.24963,72,120,0
276.0768,276.24963,67,120,0
276.2533,276.60257,72,120,0
276.2533,276.60257,77,120,0
276.2533,276.60257,69,120,0
276.60623,276.77902,76,120,0
276.60623,276.77902,72,120,0
276.60623,276.77902,67,120,0
276.7827,277.13196,74,120,0
276.7827,277.13196,72,120,0
276.7827,277.13196,67,120,0
277.84152,278.1908,76,120,0
277.84152,278.1908,72,120,0
277.84152,278.1908,67,120,0
278.19446,278.36728,72,120,0
278.19446,278.36728,74,120,0
278.19446,278.36728,65,120,0
278.37094,278.7202,76,120,0
278.37094,278.7202,72,120,0
278.37094,278.7202,67,120,0
278.72388,278.89667,72,120,0
278.72388,278.89667,74,120,0
278.72388,278.89667,65,120,0
278.90036,279.2496,64,120,0
278.90036,279.2496,72,120,0
279.95917,280.04373,72,110,0
280.0033,280.08786,74,110,0
280.04742,280.13196,72,110,0
280.09152,280.1761,74,110,0
280.13565,280.2202,72,110,0
280.17978,280.2643,74,110,0
280.22388,280.30844,72,110,0
280.268,280.35257,74,110,0
280.3121,280.39667,72,110,0
280.35623,280.4408,74,110,0
280.40036,280.48492,72,110,0
280.44446,280.52902,74,110,0
280.4886,280.57315,72,110,0
280.5327,280.61728,74,110,0
280.5768,280.66138,72,110,0
280.62094,280.7055,74,110,0
280.66507,280.7496,72,110,0
280.70917,280.79373,74,110,0
280.7533,280.83786,72,110,0
280.79742,280.88196,74,110,0
280.84152,280.9261,72,110,0
280.88565,280.9702,74,110,0
280.92978,281.0143,72,110,0
280.97388,281.05844,74,110,0
281.018,281.10257,72,110,0
281.0621,281.14667,74,110,0
281.10623,281.1908,72,110,0
281.15036,281.23492,74,110,0
281.19446,281.27902,72,110,0
281.2386,281.32315,74,110,0
281.2827,281.36728,72,110,0
281.3268,281.41138,74,110,0
281.37094,281.4555,72,110,0
281.41507,281.4996,74,110,0
281.45917,281.54373,72,110,0
281.5033,281.58786,74,110,0
281.54742,281.63196,72,110,0
281.59152,281.6761,74,110,0
281.63565,281.7202,72,110,0
281.67978,281.7643,74,110,0
281.72388,281.80844,72,110,0
281.768,281.85257,74,110,0
281.8121,281.89667,72,110,0
281.85623,281.9408,74,110,0
281.90036,281.98492,72,110,0
281.94446,282.02902,74,110,0
281.9886,282.07315,72,110,0
282.0327,282.11725,74,110,0
282.0768,282.16138,72,110,0
282.12094,282.2055,74,110,0
282.16507,282.2496,72,110,0
282.20917,282.29373,74,110,0
282.2533,282.33786,72,110,0
282.29742,282.38196,74,110,0
282.34152,282.4261,72,110,0
282.38565,282.4702,74,110,0
282.42975,282.5143,72,110,0
282.47388,282.55844,74,110,0
282.518,282.60257,72,110,0
282.5621,282.64667,74,110,0
282.60623,282.6908,72,110,0
282.65036,282.73492,74,110,0
282.69446,282.77902,72,110,0
282.7386,282.82315,74,110,0
282.7827,282.86725,72,110,0
282.8268,282.91138,74,110,0
282.87094,282.9555,72,110,0
282.91507,282.9996,74,110,0
282.95917,283.04373,72,110,0
283.0033,283.08786,74,110,0
283.04742,283.13196,72,110,0
283.09152,283.1761,74,110,0
283.13565,283.2202,72,110,0
283.17975,283.2643,74,110,0
283.22388,283.30844,72,110,0
283.268,283.35257,74,110,0
283.3121,283.39667,72,110,0
283.35623,283.4408,74,110,0
283.40036,283.48492,72,110,0
283.44446,283.52902,74,110,0
283.4886,283.57315,72,110,0
283.5327,283.61725,74,110,0
283.5768,283.66138,72,110,0
283.62094,283.7055,74,110,0
283.66507,283.7496,72,110,0
283.70917,283.79373,74,110,0
283.7533,283.83786,72,110,0
283.79742,283.88196,74,110,0
283.84152,283.9261,72,110,0
283.88565,283.9702,74,110,0
283.92975,284.0143,72,110,0
283.97388,284.05844,74,110,0
284.018,284.10257,72,110,0
284.0621,284.14667,74,110,0
284.10623,284.1908,71,110,0
284.15036,284.1908,72,110,0
284.19446,284.36725,81,120,0
284.37094,284.54373,78,120,0
284.54742,284.7202,79,120,0
284.72388,284.89667,76,120,0
284.90036,285.07315,77,120,0
285.0768,285.2496,74,120,0
285.2533,285.4261,76,120,0
285.42975,285.60257,73,120,0
285.60623,285.77902,74,120,0
285.7827,285.9555,71,120,0
285.95917,286.13196,72,120,0
286.13565,286.30844,69,120,0
286.3121,286.4849,71,120,0
286.4886,286.66138,68,120,0
286.66507,286.83786,69,120,0
286.84152,287.0143,66,120,0
287.018,287.1908,67,120,0
287.19446,287.36725,64,120,0
287.37094,287.54373,65,120,0
287.5474,287.7202,62,120,0
287.72388,287.89667,64,120,0
287.90036,288.07315,61,120,0
288.0768,288.2496,62,120,0
288.2533,288.4261,59,120,0
288.42975,288.60257,60,110,0
288.60623,288.77902,59,110,0
288.7827,288.9555,57,110,0
288.95917,289.13196,62,110,0
289.13565,289.30844,60,111,0
289.3121,289.4849,59,111,0
289.4886,289.66138,64,111,0
289.66504,289.83786,62,111,0
289.84152,290.0143,60,112,0
290.018,290.1908,65,112,0
290.19446,290.36725,64,112,0
290.37094,290.54373,62,113,0
290.5474,290.7202,67,113,0
290.72388,290.89667,65,113,0
290.90036,291.07315,64,113,0
291.0768,291.2496,69,114,0
291.2533,291.4261,67,114,0
291.42975,291.60254,65,114,0
291.60623,291.77902,71,115,0
291.7827,291.9555,69,115,0
291.95917,292.13196,67,115,0
292.13565,292.30844,72,115,0
292.3121,292.4849,71,116,0
292.4886,292.66138,69,116,0
292.66504,292.83786,74,116,0
292.84152,293.0143,72,116,0
293.018,293.1908,71,117,0
293.19446,293.36725,76,117,0
293.37094,293.54373,74,117,0
293.5474,293.72018,72,118,0
293.72388,293.89667,76,118,0
293.90036,294.07315,74,118,0
294.0768,294.2496,72,118,0
294.2533,294.4261,76,119,0
294.42975,294.60254,74,119,0
294.60623,294.77902,72,119,0
294.78268,295.4849,65,120,0
294.78268,295.4849,69,120,0
294.78268,295.4849,72,120,0
295.84152,296.54373,66,120,0
295.84152,296.54373,69,120,0
295.84152,296.54373,72,120,0
296.90033,297.2496,55,120,0
296.90033,297.2496,60,120,0
296.90033,297.2496,64,120,0
296.90033,297.2496,67,120,0
301.4886,301.57315,55,80,0
301.53268,301.61725,57,80,0
301.5768,301.66138,59,80,0
301.62094,301.70547,60,80,0
301.66504,301.83783,62,80,0
301.84152,302.0143,64,80,0
302.01797,302.1908,66,80,0
302.19446,302.36725,67,80,0
302.37094,302.54373,69,80,0
302.5474,302.72018,71,80,0
302.72388,302.89667,72,80,0
302.90033,303.07315,74,80,0
303.0768,303.2496,76,80,0
303.2533,303.4261,77,80,0
303.42975,303.60254,79,80,0
303.60623,303.77902,76,80,0
303.78268,303.95547,77,80,0
303.95917,304.13196,79,80,0
304.13562,304.30844,76,80,0
304.3121,304.4849,77,80,0
304.4886,304.66138,79,80,0
304.66504,304.83783,76,80,0
304.84152,305.0143,77,80,0
305.01797,305.1908,79,80,0
305.19446,305.36725,76,80,0
305.37094,305.45547,77,80,0
305.41504,305.4996,79,80,0
305.45917,305.54373,77,80,0
305.5033,305.58783,79,80,0
305.5474,305.63196,77,80,0
305.59152,305.6761,79,80,0
305.63562,305.72018,77,80,0
305.67975,305.7643,79,80,0
305.72388,305.80844,77,80,0
305.76797,305.85254,79,80,0
305.8121,305.89667,77,80,0
305.85623,305.9408,79,80,0
305.90033,305.9849,77,80,0
305.94446,306.02902,79,80,0
305.9886,306.07312,77,80,0
306.03268,306.11725,79,80,0
306.0768,306.16138,77,80,0
306.12094,306.20547,79,80,0
306.16504,306.2496,77,80,0
306.20917,306.29373,79,80,0
306.2533,306.33783,77,80,0
306.2974,306.38196,79,80,0
306.34152,306.4261,77,80,0
306.38562,306.47018,79,80,0
306.42975,306.5143,77,80,0
306.47388,306.55844,79,80,0
306.51797,306.60254,77,80,0
306.5621,306.64667,79,80,0
306.60623,306.6908,77,80,0
306.65033,306.7349,79,80,0
306.69446,306.77902,77,80,0
306.7386,306.82312,79,80,0
306.78268,306.86725,77,80,0
306.8268,306.91138,79,80,0
306.87094,306.95547,77,80,0
306.91504,306.9996,79,80,0
306.95917,307.04373,77,80,0
307.00327,307.08783,79,80,0
307.0474,307.13196,77,80,0
307.09152,307.1761,79,80,0
307.13562,307.22018,77,80,0
307.17975,307.2643,79,80,0
307.22388,307.30844,77,80,0
307.26797,307.35254,79,80,0
307.3121,307.39667,77,80,0
307.35623,307.44077,79,80,0
307.40033,307.4849,77,80,0
307.44446,307.52902,79,80,0
307.4886,307.57312,77,80,0
307.53268,307.61725,79,80,0
307.5768,307.66138,77,80,0
307.62094,307.70547,79,80,0
307.66504,307.7496,77,80,0
307.70917,307.79373,79,80,0
307.75327,307.83783,77,80,0
307.7974,307.88196,79,80,0
307.84152,307.9261,77,80,0
307.88562,307.97018,79,80,0
307.92975,308.0143,77,80,0
307.97388,308.05844,79,80,0
308.01797,308.10254,77,80,0
308.0621,308.14667,79,80,0
308.10623,308.19077,77,80,0
308.15033,308.2349,79,80,0
308.19446,308.27902,77,80,0
308.2386,308.32312,79,80,0
308.28268,308.36725,77,80,0
308.3268,308.41138,79,80,0
308.37094,308.45547,77,80,0
308.41504,308.4996,79,80,0
308.45917,308.54373,77,80,0
308.50327,308.58783,79,80,0
308.5474,308.63196,77,80,0
308.59152,308.6761,79,80,0
308.63562,308.72018,77,80,0
308.67975,308.7643,79,80,0
308.72388,308.80844,77,80,0
308.76797,308.85254,79,80,0
308.8121,308.89667,77,80,0
308.85623,308.94077,79,80,0
308.90033,308.9849,77,80,0
308.94446,309.02902,79,80,0
308.9886,309.07312,77,80,0
309.03268,309.11725,79,80,0
309.0768,309.16138,77,80,0
309.12094,309.20547,79,80,0
309.16504,309.2496,77,80,0
309.20917,309.29373,79,80,0
309.25327,309.33783,77,80,0
309.2974,309.38196,79,80,0
309.34152,309.4261,77,80,0
309.38562,309.47018,79,80,0
309.42975,309.5143,77,80,0
309.47388,309.55844,79,80,0
309.51797,309.60254,77,80,0
309.5621,309.64667,79,80,0
315.95917,316.155,45,80,0
316.15915,316.35498,44,80,0
316.35916,316.555,45,80,0
316.55917,316.755,47,80,0
316.75916,316.955,49,80,0
316.95917,317.155,50,79,0
317.15915,317.35498,52,79,0
317.35916,317.555,54,79,0
317.55917,317.755,56,79,0
317.75916,317.955,57,79,0
317.95917,318.155,59,78,0
318.15915,318.35498,61,78,0
318.35916,318.755,62,78,0
318.75916,318.955,61,78,0
318.95917,319.35498,62,77,0
319.35916,319.555,61,77,0
319.55917,320.755,62,77,0
321.95917,322.16898,57,74,0
322.17343,322.38327,56,74,0
322.38773,322.59756,57,74,0
322.60202,322.81183,59,74,0
322.8163,323.02612,60,73,0
323.03058,323.24042,62,73,0
323.24487,323.45468,64,73,0
323.45917,323.66898,66,73,0
323.67343,323.88327,68,73,0
323.88773,324.09753,69,72,0
324.10202,324.31183,71,72,0
324.31628,324.52612,72,72,0
324.53058,324.9873,74,72,0
324.99213,325.21808,76,71,0
325.2229,325.81665,74,71,0
325.8229,326.11664,76,71,0
326.1229,327.91666,74,71,0
328.92288,329.0861,43,120,0
328.92288,329.0861,31,120,0
329.08957,329.25275,42,120,0
329.08957,329.25275,30,120,0
329.25623,329.4194,43,120,0
329.25623,329.4194,31,120,0
329.42288,329.5861,45,120,0
329.42288,329.5861,33,120,0
329.58957,329.75275,47,120,0
329.58957,329.75275,35,120,0
329.75623,329.9194,48,120,0
329.75623,329.9194,36,120,0
329.92288,330.0861,50,120,0
329.92288,330.0861,38,120,0
330.08957,330.25275,52,120,0
330.08957,330.25275,40,120,0
330.25623,330.4194,53,120,0
330.25623,330.4194,41,120,0
330.42288,330.5861,55,120,0
330.42288,330.5861,43,120,0
330.58957,330.75275,57,120,0
330.58957,330.75275,45,120,0
330.75623,330.9194,59,120,0
330.75623,330.9194,47,120,0
330.92288,331.5861,60,120,0
330.92288,331.5861,48,120,0
333.92288,334.347,43,120,0
333.92288,334.347,31,120,0
335.2086,336.06128,48,120,0
335.2086,336.06128,36,120,0
