start_time,end_time,note_value,velocity,instrument_program_number
0.0,0.41232574,64,110,40
0.0,0.41232574,73,110,40
0.0,0.41232574,81,110,40
0.46874925,0.5208325,71,110,40
0.5208325,0.57291573,69,110,40
0.57291573,0.624999,68,110,40
0.624999,0.77690846,69,70,40
0.833332,0.9852415,71,70,40
1.041665,1.1935744,73,70,40
1.7187473,1.7708305,74,70,40
1.7708305,1.8229138,73,70,40
1.8229138,1.874997,71,70,40
1.874997,2.0269065,73,90,40
2.08333,2.2352395,74,70,40
2.291663,2.4435725,76,70,40
2.9687452,3.0208285,78,70,40
3.0208285,3.0729117,76,70,40
3.0729117,3.124995,75,70,40
3.124995,3.2769046,76,90,40
3.333328,3.4852374,78,70,40
3.541661,3.6935704,80,70,40
3.749994,3.9019034,81,70,40
3.958327,4.1102366,83,70,40
4.16666,4.3185697,85,70,40
4.374993,4.5269027,85,70,40
4.583326,4.7418404,86,70,40
4.800717,4.968986,88,70,40
5.031486,5.6580973,90,70,40
5.6624374,5.8664303,86,70,40
6.0791035,6.231013,85,70,40
6.2874365,6.4914293,83,70,40
6.7041025,6.856012,85,70,40
6.9124355,7.1164284,86,70,40
7.3291016,7.481011,87,70,40
7.5374346,8.158093,88,70,40
8.162434,8.314343,85,70,40
8.370767,8.5226755,81,70,40
8.5791,8.731009,83,70,40
8.787433,8.939342,85,70,40
8.995766,9.147675,85,70,40
9.204099,9.356008,86,70,40
9.412432,9.564341,88,70,40
9.620765,9.772674,88,70,40
9.829098,9.981007,89,70,40
10.037431,10.65809,90,70,40
10.66243,11.074756,86,70,40
11.079096,11.231005,85,70,40
11.287429,11.439338,83,70,40
11.704095,11.856004,85,70,40
11.912428,12.070942,86,70,40
12.360587,12.528856,88,70,40
12.591356,13.048087,81,70,40
13.283664,13.390806,69,70,40
13.390806,13.497949,71,70,40
13.497949,13.605092,73,70,40
13.605092,13.7122345,74,70,40
13.7122345,13.819377,76,70,40
13.819377,13.92652,73,70,40
13.92652,14.350627,74,70,40
14.569377,14.676519,76,70,40
14.676519,14.783662,78,70,40
14.783662,14.890804,80,70,40
14.890804,14.997948,81,70,40
14.997948,15.10509,83,70,40
15.10509,15.212233,80,70,40
15.212233,15.63634,81,70,40
15.855089,15.962233,69,70,40
15.962233,16.069374,71,70,40
16.069374,16.176517,73,70,40
16.176517,16.28366,74,70,40
16.28366,16.390802,76,70,40
16.390802,16.497946,73,70,40
16.497946,16.654196,78,70,40
16.71223,16.86848,62,70,40
16.926517,17.082767,62,70,40
17.140802,17.297052,80,70,40
17.355087,17.511337,64,70,40
17.569374,17.725624,64,70,40
17.783659,17.939909,81,70,40
17.997944,18.154194,57,70,40
18.21223,18.36848,57,70,40
18.426516,18.533659,69,70,40
18.533659,18.6408,71,70,40
18.6408,18.747944,73,70,40
18.747944,18.855087,74,70,40
18.855087,18.962229,76,70,40
18.962229,19.069372,73,70,40
19.069372,19.493479,74,70,40
19.712229,19.819372,76,70,40
19.819372,19.926514,78,70,40
19.926514,20.033657,80,70,40
20.033657,20.140799,81,70,40
20.140799,20.247942,83,70,40
20.247942,20.355085,80,70,40
20.355085,20.511335,81,70,40
20.56937,20.72562,69,70,40
20.783655,20.939905,69,70,40
20.997942,21.154192,81,70,40
21.212227,21.368477,67,70,40
21.426512,21.582762,67,70,40
21.640799,21.797049,81,70,40
21.855083,22.011333,66,70,40
22.069368,22.230215,66,70,40
22.289957,22.450802,81,70,40
22.510546,22.678814,65,70,40
22.741314,22.923605,65,70,40
22.991314,23.236105,64,70,40
23.241314,23.351608,68,70,40
23.351608,23.461903,71,70,40
23.461903,23.566069,76,70,40
23.566069,23.670235,80,70,40
23.670235,24.082561,83,70,40
24.0869,24.290894,80,70,40
24.295235,24.70756,81,70,40
24.7119,24.915894,83,70,40
24.920233,25.33256,85,70,40
25.336899,25.540892,87,70,40
25.545233,25.697142,88,70,40
25.753565,25.905474,76,72,40
25.961899,26.01398,78,75,40
26.01398,26.066065,80,76,40
26.066065,26.165892,78,76,40
26.17023,26.374224,80,78,40
26.378565,26.582558,80,80,40
26.586897,26.63898,80,83,40
26.63898,26.691063,81,84,40
26.691063,26.79089,80,84,40
26.79523,26.999222,81,86,40
27.003563,27.207556,81,88,40
27.211897,27.263979,83,91,40
27.263979,27.316063,85,92,40
27.316063,27.415888,83,92,40
27.420229,27.624222,85,94,40
27.628563,27.832554,85,96,40
27.836895,27.888979,87,99,40
27.888979,27.941061,88,100,40
27.941061,28.040888,87,100,40
28.045227,28.24922,88,110,40
28.253561,28.457554,88,110,40
28.461893,28.671715,92,110,40
28.67618,28.886002,88,110,40
28.890465,29.106457,88,110,40
29.111053,29.337015,95,110,40
29.341822,29.798552,88,110,40
30.495667,30.663937,59,70,40
30.726437,30.952396,67,70,40
31.187975,31.356243,63,70,40
31.418743,31.644705,64,70,40
31.880281,32.04855,59,70,40
32.11105,32.56778,60,90,40
32.57259,32.683167,62,70,40
32.687973,32.79855,60,70,40
32.803356,33.02932,59,70,40
33.264896,33.490856,59,70,40
33.495663,33.91977,64,70,40
33.924236,34.134056,66,70,40
34.13852,34.562626,67,70,40
34.567093,34.776913,69,70,40
34.781376,35.217957,69,70,40
35.222553,35.280247,67,70,40
35.280247,35.337936,69,70,40
35.337936,35.448513,67,70,40
35.453323,35.679283,66,70,40
35.91486,36.14082,59,70,40
36.14563,36.569736,67,70,40
36.5742,36.78402,63,70,40
36.788486,36.998306,64,70,40
37.217056,37.426876,64,70,40
37.431343,37.85545,72,70,40
37.859913,38.069733,68,70,40
38.0742,38.28402,69,70,40
38.50277,38.65902,76,70,40
38.717056,38.926876,76,70,40
38.93134,39.08759,74,70,40
39.145626,39.301876,72,70,40
39.359913,39.413483,74,70,40
39.413483,39.569733,72,70,40
39.574196,39.730446,71,70,40
39.788483,39.95173,69,70,40
40.012363,40.710606,69,70,40
40.71549,40.94498,67,70,40
43.881298,44.100513,71,70,40
44.10518,44.529285,76,70,40
44.53375,44.743572,78,70,40
44.748035,45.172142,79,70,40
45.176605,45.392597,81,70,40
45.397194,45.853924,81,70,40
45.858734,45.916424,79,70,40
45.916424,45.974117,81,70,40
45.974117,46.0895,79,70,40
46.0895,46.315464,78,70,40
46.55104,46.777,71,50,40
46.781807,47.205914,80,50,40
47.21038,47.424797,75,50,40
47.429356,47.643772,76,50,40
47.867313,48.093273,76,50,40
48.098083,48.592873,85,50,40
48.598083,48.891834,80,50,40
48.898083,49.491833,81,50,40
50.83975,51.04374,76,50,40
51.04808,51.460407,85,50,40
51.46475,51.66874,80,50,40
51.67308,52.085403,81,50,40
52.089745,52.29374,77,50,40
52.298077,52.710403,78,50,40
52.714745,53.335403,73,50,40
53.339745,53.543736,72,50,40
53.548077,54.377068,71,50,40
54.38141,54.533318,69,50,40
54.58974,54.74165,66,50,40
54.798073,55.2104,64,50,40
56.881405,57.085396,77,50,40
57.089737,57.29373,77,50,40
57.29807,57.710396,78,50,40
59.3814,59.585392,79,50,40
59.589733,59.793728,79,50,40
59.798065,60.210392,80,50,40
61.048065,61.460392,69,100,40
61.048065,61.460392,81,100,40
61.46473,61.61664,80,100,40
61.673065,61.824974,78,100,40
61.881397,62.033306,76,100,40
62.08973,62.24164,75,100,40
62.29806,62.502056,75,70,40
62.506397,62.71039,76,70,40
62.71473,62.91872,71,70,40
63.131393,63.33539,76,70,40
63.33973,63.54372,73,70,40
63.756393,63.960384,71,70,40
63.964725,64.16872,68,70,40
64.38139,64.58539,69,70,40
64.58973,64.79372,66,70,40
64.79806,64.94997,64,100,40
65.00639,65.1583,76,100,40
65.21472,65.36663,78,100,40
65.42306,65.57497,80,100,40
65.63139,65.7833,78,100,40
65.83972,65.99163,76,100,40
66.04806,66.25205,75,100,40
66.46472,66.61663,73,100,40
66.67306,67.08538,71,100,40
67.29806,67.71038,78,125,40
67.71472,67.86663,80,100,40
67.92305,68.07497,81,100,40
68.131386,68.283295,80,100,40
68.33972,68.49163,78,100,40
68.54805,68.752045,76,100,40
68.96472,69.11663,75,100,40
69.17305,69.58538,73,100,40
69.79805,70.21037,80,100,40
70.214714,70.36662,82,100,40
70.42305,70.57496,83,100,40
70.631386,70.783295,83,100,40
70.839714,70.99162,83,100,40
71.04805,72.29371,83,100,40
72.29805,73.5437,83,100,40
73.54804,73.75204,83,120,40
73.75638,73.96037,83,100,40
73.964714,74.1687,85,100,40
74.17304,74.37704,87,100,40
74.38138,74.58537,88,100,40
74.58971,74.7937,90,100,40
74.79804,75.4187,92,100,40
75.42304,76.0437,93,100,40
76.04804,76.6687,95,100,40
76.67304,77.2937,97,100,40
77.29804,78.12703,59,120,40
78.13137,78.335365,81,100,40
78.33971,78.54369,75,100,40
78.548035,78.647865,76,100,40
78.65221,78.72599,80,100,40
78.75637,78.830154,83,100,40
78.860535,78.93432,80,100,40
78.9647,79.03849,76,100,40
79.06887,79.142654,80,100,40
79.173035,79.24682,71,100,40
79.2772,79.35099,76,100,40
79.38137,79.455154,68,100,40
79.485535,79.55932,71,100,40
79.5897,79.66348,64,100,40
79.69387,79.767654,68,100,40
79.798035,80.62703,59,120,40
80.63136,80.83536,81,100,40
80.8397,81.04369,75,100,40
81.048035,81.14786,76,100,40
81.1522,81.22598,80,100,40
81.25636,81.33015,83,100,40
81.360535,81.43432,80,100,40
81.4647,81.53848,76,100,40
81.56886,81.64265,80,100,40
81.673035,81.74682,71,100,40
81.7772,81.85098,76,100,40
81.88136,81.95515,68,100,40
81.985535,82.05932,71,100,40
82.0897,82.16348,64,100,40
82.19386,82.26765,68,100,40
82.29803,83.12702,59,120,40
83.13136,83.34119,81,100,40
83.34565,83.56164,75,100,40
83.56624,84.002815,76,100,40
86.26307,87.115746,78,100,40
87.12021,87.27646,76,70,40
87.334496,87.490746,74,70,40
87.54878,87.70503,73,70,40
87.76306,87.91931,71,70,40
87.97735,88.1336,69,70,40
88.191635,88.40146,68,70,40
88.40592,88.56217,69,70,40
88.62021,88.77646,66,70,40
88.834496,89.04431,66,70,40
89.048775,89.205025,68,70,40
89.26306,89.41931,64,70,40
89.47735,89.90146,64,70,40
89.90592,90.11574,64,77,40
90.12021,90.556786,64,81,40
90.56138,90.777374,64,89,40
90.78197,91.2387,64,93,40
91.24351,91.4883,64,100,40
91.49351,92.34618,86,110,40
92.35065,92.5069,85,110,40
92.56493,92.72118,83,110,40
92.77922,92.93547,81,110,40
92.99351,93.14976,80,110,40
93.207794,93.364044,78,110,40
93.42207,93.6319,76,110,40
93.63636,93.79261,78,110,40
93.85065,94.0069,75,110,40
94.06493,94.16761,76,70,40
94.17207,94.24586,80,70,40
94.276245,94.35003,83,70,40
94.38041,94.45419,80,70,40
94.48457,94.55836,83,70,40
94.588745,94.66253,80,70,40
94.69291,94.79273,81,70,40
94.79707,94.87086,78,70,40
94.90124,94.97503,75,70,40
95.00541,95.07919,71,70,40
95.10957,95.18336,69,70,40
95.21374,95.28753,66,70,40
95.31791,95.41773,64,70,40
95.42207,95.49586,68,70,40
95.52624,95.60002,71,70,40
95.63041,95.70419,76,70,40
95.73457,95.80836,80,70,40
95.83874,95.91252,76,70,40
95.94291,96.04273,75,70,40
96.04707,96.12086,78,70,40
96.15124,96.22502,81,70,40
96.25541,96.32919,78,70,40
96.35957,96.43336,81,70,40
96.46374,96.53752,78,70,40
96.5679,96.66773,76,70,40
96.67207,96.74586,80,70,40
96.77624,96.85002,83,70,40
96.8804,96.95419,80,70,40
96.98457,97.05836,83,70,40
97.08874,97.16252,80,70,40
97.1929,97.29273,81,70,40
97.29707,97.37086,78,70,40
97.40124,97.47502,75,70,40
97.5054,97.579185,71,70,40
97.60957,97.68336,69,70,40
97.71374,97.78752,66,70,40
97.8179,97.91773,64,70,40
97.92207,97.99586,68,70,40
98.02624,98.10002,71,70,40
98.1304,98.204185,76,70,40
98.234566,98.30836,80,70,40
98.33874,98.41252,76,70,40
98.4429,98.54273,75,70,40
98.547066,98.62085,78,70,40
98.65124,98.72502,81,70,40
98.7554,98.829185,78,70,40
98.859566,98.93335,81,70,40
98.96374,99.03752,78,70,40
99.0679,99.172066,76,70,40
99.172066,99.27624,78,70,40
99.27624,99.3804,80,70,40
99.3804,99.484566,81,70,40
99.484566,99.58874,83,70,40
99.58874,99.6929,80,70,40
99.6929,99.797066,76,70,40
99.797066,99.90123,78,70,40
99.90123,100.0054,80,70,40
100.0054,100.109566,81,70,40
100.109566,100.21373,83,70,40
100.21373,100.3179,80,70,40
100.3179,100.730225,76,70,40
101.567894,101.980225,64,110,40
101.567894,101.980225,73,110,40
101.567894,101.980225,81,110,40
102.036644,102.08873,71,110,40
102.08873,102.140816,69,110,40
102.140816,102.192894,68,110,40
102.192894,102.3448,69,70,40
102.40123,102.55314,71,70,40
102.609566,102.761475,73,70,40
103.286644,103.33873,74,70,40
103.33873,103.39081,73,70,40
103.39081,103.442894,71,70,40
103.442894,103.5948,73,90,40
103.65123,103.80314,74,70,40
103.85956,104.01147,76,70,40
104.536644,104.58872,78,70,40
104.58872,104.64081,76,70,40
104.64081,104.692894,75,70,40
104.692894,104.8448,76,90,40
104.90122,105.05313,78,70,40
105.10956,105.26147,80,70,40
105.317894,105.4698,81,70,40
105.52622,105.67813,83,70,40
105.73456,105.88647,85,70,40
105.942894,106.0948,85,70,40
106.15122,106.30747,86,70,40
106.36551,106.528755,88,70,40
106.589386,107.22559,90,70,40
107.229935,107.43393,86,70,40
107.6466,107.79851,85,70,40
107.854935,108.05893,83,70,40
108.2716,108.42351,85,70,40
108.479935,108.68393,86,70,40
108.8966,109.04851,87,70,40
109.104935,109.72559,88,70,40
109.729935,109.88184,85,70,40
109.93826,110.09017,81,70,40
110.1466,110.29851,83,70,40
110.35493,110.50684,85,70,40
110.56326,110.71517,85,70,40
110.7716,110.92351,86,70,40
110.97993,111.131836,88,70,40
111.18826,111.34017,88,70,40
111.3966,111.54851,89,70,40
111.60493,112.225586,90,70,40
112.22993,112.64225,86,70,40
112.64659,112.7985,85,70,40
112.85493,113.006836,83,70,40
113.27159,113.4235,85,70,40
113.47993,113.63618,86,70,40
113.90849,114.07677,88,70,40
114.13927,114.55159,81,70,40
114.76427,114.86843,69,70,40
114.86843,114.972595,71,70,40
114.972595,115.07677,73,70,40
115.07677,115.18093,74,70,40
115.18093,115.285095,76,70,40
115.285095,115.38927,73,70,40
115.38927,115.80159,74,70,40
116.01426,116.11843,76,70,40
116.11843,116.222595,78,70,40
116.222595,116.32676,80,70,40
116.32676,116.43093,81,70,40
116.43093,116.535095,83,70,40
116.535095,116.63926,80,70,40
116.63926,117.05159,81,70,40
117.26426,117.36842,69,70,40
117.36842,117.472595,71,70,40
117.472595,117.57676,73,70,40
117.57676,117.68092,74,70,40
117.68092,117.785095,76,70,40
117.785095,117.88926,73,70,40
117.88926,118.04117,78,70,40
118.097595,118.249504,62,70,40
118.30592,118.45783,62,70,40
118.51426,118.66617,80,70,40
118.722595,118.874504,64,70,40
118.93092,119.08283,64,70,40
119.13926,119.29117,81,70,40
119.34759,119.4995,57,70,40
119.55592,119.70783,57,70,40
119.76426,119.86842,69,70,40
119.86842,119.97259,71,70,40
119.97259,120.07676,73,70,40
120.07676,120.18092,74,70,40
120.18092,120.28509,76,70,40
120.28509,120.38926,73,70,40
120.38926,120.80158,74,70,40
121.01425,121.11842,76,70,40
121.11842,121.22259,78,70,40
121.22259,121.32675,80,70,40
121.32675,121.43092,81,70,40
121.43092,121.53509,83,70,40
121.53509,121.63925,80,70,40
121.63925,121.79116,81,70,40
121.84759,121.9995,69,70,40
122.05592,122.20783,69,70,40
122.26425,122.41616,81,70,40
122.47259,122.6245,67,70,40
122.680916,122.832825,67,70,40
122.88925,123.0455,81,70,40
123.10354,123.25979,66,70,40
123.317825,123.47867,66,70,40
123.538414,123.69926,81,70,40
123.758995,123.92727,65,70,40
123.98977,124.17206,65,70,40
124.23977,124.45576,64,70,40
124.46036,124.56452,68,70,40
124.56452,124.668686,71,70,40
124.668686,124.77286,76,70,40
124.77286,124.87702,80,70,40
124.87702,125.289345,83,70,40
125.293686,125.49768,80,70,40
125.50202,125.914345,81,70,40
125.918686,126.12268,83,70,40
126.12702,126.539345,85,70,40
126.543686,126.74768,87,70,40
126.75202,126.90393,88,70,40
126.96035,127.11226,76,72,40
127.168686,127.22077,78,75,40
127.22077,127.27285,80,76,40
127.27285,127.37268,78,76,40
127.377014,127.58101,80,78,40
127.58535,127.789345,80,80,40
127.793686,127.845764,80,83,40
127.845764,127.89785,81,84,40
127.89785,127.99767,80,84,40
128.00201,128.20601,81,86,40
128.21034,128.41434,81,88,40
128.41869,128.47076,83,91,40
128.47076,128.52284,85,92,40
128.52284,128.62268,83,92,40
128.62701,128.83101,85,94,40
128.83534,129.03934,85,96,40
129.04369,129.09576,87,99,40
129.09576,129.14784,88,100,40
129.14784,129.24768,87,100,40
129.25201,129.46184,88,110,40
129.4663,129.67612,88,110,40
129.68059,129.89658,92,110,40
129.90117,130.11717,88,110,40
130.12177,130.34772,88,110,40
130.35252,130.59732,95,110,40
130.60252,131.09732,88,110,40
131.85252,132.03482,59,70,40
132.10252,132.32849,67,70,40
132.56407,132.73233,63,70,40
132.79483,133.0208,64,70,40
133.25638,133.42465,59,70,40
133.48715,133.94388,60,90,40
133.94868,134.05927,62,70,40
134.06407,134.17464,60,70,40
134.17946,134.40541,59,70,40
134.64099,134.86696,59,70,40
134.87177,135.29587,64,70,40
135.30032,135.51015,66,70,40
135.51462,135.93872,67,70,40
135.94319,136.153,69,70,40
136.15747,136.59406,69,70,40
136.59865,136.65634,67,70,40
136.65634,136.71404,69,70,40
136.71404,136.82462,67,70,40
136.82942,137.05537,66,70,40
137.29095,137.51692,59,70,40
137.52173,137.95198,67,70,40
137.95651,138.16937,63,70,40
138.17389,138.38676,64,70,40
138.60867,138.82153,64,70,40
138.82607,139.25632,72,70,40
139.26085,139.47371,68,70,40
139.47824,139.6911,69,70,40
139.91302,140.07153,76,70,40
140.13042,140.34328,76,70,40
140.34781,140.50632,74,70,40
140.5652,140.72844,72,70,40
140.78908,140.84505,74,70,40
140.84505,141.0083,72,70,40
141.01295,141.17621,71,70,40
141.23683,141.4051,69,70,40
141.4676,142.17693,69,70,40
142.1819,142.41502,67,70,40
145.35886,145.57808,71,70,40
145.58275,146.00685,76,70,40
146.01132,146.22113,78,70,40
146.2256,146.6497,79,70,40
146.65417,146.864,81,70,40
146.86845,147.29256,81,70,40
147.29703,147.3506,79,70,40
147.3506,147.40417,81,70,40
147.40417,147.5113,79,70,40
147.5113,147.72113,78,70,40
147.93988,148.15588,71,50,40
148.16048,148.59705,80,50,40
148.60165,148.81764,75,50,40
148.82224,149.0482,76,50,40
149.28377,149.5169,76,50,40
149.52187,150.01666,85,50,40
150.02187,150.31561,80,50,40
150.32187,150.91562,81,50,40
152.26353,152.46753,76,50,40
152.47186,152.8842,85,50,40
152.88853,153.09253,80,50,40
153.09686,153.50919,81,50,40
153.51353,153.71753,77,50,40
153.72186,154.13419,78,50,40
154.13853,154.75919,73,50,40
154.76353,154.96753,72,50,40
154.97186,155.80086,71,50,40
155.80519,155.9571,69,50,40
156.01353,156.16544,66,50,40
156.22186,156.63419,64,50,40
158.30519,158.50919,77,50,40
158.51352,158.71751,77,50,40
158.72186,159.13419,78,50,40
160.80519,161.00919,79,50,40
161.01352,161.21751,79,50,40
161.22185,161.63419,80,50,40
162.47185,162.88417,69,100,40
162.47185,162.88417,81,100,40
162.88852,163.04042,80,100,40
163.09685,163.24876,78,100,40
163.30519,163.45709,76,100,40
163.51352,163.66542,75,100,40
163.72185,163.92584,75,70,40
163.93018,164.13417,76,70,40
164.13852,164.34251,71,70,40
164.55518,164.765,76,70,40
164.76947,164.9793,73,70,40
165.20435,165.42033,71,70,40
165.42493,165.64091,68,70,40
165.8661,166.09207,69,70,40
166.09688,166.32283,66,70,40
166.32764,166.48389,64,100,40
166.54193,166.69818,76,100,40
166.75621,166.91246,78,100,40
166.9705,167.12675,80,100,40
167.18478,167.34103,78,100,40
167.39906,167.55531,76,100,40
167.61336,167.82318,75,100,40
168.04193,168.19818,73,100,40
168.25621,168.68031,71,100,40
168.89906,169.32318,78,125,40
169.32764,169.48389,80,100,40
169.54193,169.69818,81,100,40
169.75621,169.91246,80,100,40
169.97049,170.12674,78,100,40
170.18478,170.3946,76,100,40
170.61336,170.7696,75,100,40
170.82764,171.25174,73,100,40
171.47049,171.8946,80,100,40
171.89906,172.05531,82,100,40
172.11336,172.2696,83,100,40
172.32764,172.48389,83,100,40
172.54192,172.69817,83,100,40
172.75621,174.03746,83,100,40
174.04192,175.32317,83,100,40
175.32764,175.53746,83,120,40
175.54192,175.75174,83,100,40
175.75621,175.96602,85,100,40
175.97049,176.18031,87,100,40
176.18477,176.39459,88,100,40
176.39906,176.60889,90,100,40
176.61334,177.25174,92,100,40
177.25621,177.89459,93,100,40
177.89906,178.53745,95,100,40
178.54192,179.18031,97,100,40
179.18477,180.03745,59,120,40
180.04192,180.25174,81,100,40
180.2562,180.46602,75,100,40
180.47049,180.57317,76,100,40
180.57762,180.65352,80,100,40
180.68477,180.75856,83,100,40
180.78894,180.86272,80,100,40
180.8931,180.96689,76,100,40
180.99727,181.07106,80,100,40
181.10144,181.17522,71,100,40
181.2056,181.27939,76,100,40
181.30977,181.38356,68,100,40
181.41394,181.48772,71,100,40
181.5181,181.59189,64,100,40
181.62227,181.69606,68,100,40
181.72644,182.55544,59,120,40
182.55977,182.76376,81,100,40
182.7681,182.97209,75,100,40
182.97644,183.07626,76,100,40
183.0806,183.15439,80,100,40
183.18477,183.25854,83,100,40
183.28894,183.36272,80,100,40
183.3931,183.46689,76,100,40
183.49727,183.57104,80,100,40
183.60144,183.67522,71,100,40
183.7056,183.77939,76,100,40
183.80977,183.88354,68,100,40
183.91393,183.98772,71,100,40
184.0181,184.09189,64,100,40
184.12227,184.19604,68,100,40
184.22643,185.05542,59,120,40
185.05977,185.26376,81,100,40
185.2681,185.47209,75,100,40
185.47643,185.88876,76,100,40
188.11758,188.97026,78,100,40
188.97473,189.13098,76,70,40
189.18901,189.34526,74,70,40
189.4033,189.55956,73,70,40
189.61758,189.77383,71,70,40
189.83188,189.98813,69,70,40
190.04616,190.25598,68,70,40
190.26044,190.41669,69,70,40
190.47473,190.63098,66,70,40
190.68901,190.89883,66,70,40
190.9033,191.05956,68,70,40
191.11758,191.27383,64,70,40
191.33186,191.75598,64,70,40
191.76044,191.97026,64,77,40
191.97473,192.4113,64,81,40
192.41591,192.6319,64,89,40
192.63649,193.09322,64,93,40
193.09802,193.34282,64,100,40
193.34802,194.2007,86,110,40
194.20517,194.36142,85,110,40
194.41945,194.5757,83,110,40
194.63374,194.79,81,110,40
194.84802,195.00427,80,110,40
195.06232,195.21857,78,110,40
195.2766,195.48642,76,110,40
195.49089,195.64714,78,110,40
195.70517,195.86142,75,110,40
195.91945,196.02214,76,70,40
196.0266,196.1025,80,70,40
196.13374,196.20752,83,70,40
196.2379,196.31169,80,70,40
196.34207,196.41586,83,70,40
196.44624,196.52002,80,70,40
196.5504,196.65024,81,70,40
196.65457,196.72836,78,70,40
196.75874,196.83252,75,70,40
196.8629,196.93669,71,70,40
196.96707,197.04086,69,70,40
197.07124,197.14502,66,70,40
197.1754,197.27524,64,70,40
197.27957,197.35336,68,70,40
197.38374,197.45752,71,70,40
197.4879,197.56169,76,70,40
197.59207,197.66586,80,70,40
197.69624,197.77002,76,70,40
197.8004,197.90024,75,70,40
197.90457,197.97835,78,70,40
198.00874,198.08252,81,70,40
198.1129,198.18669,78,70,40
198.21707,198.29085,81,70,40
198.32124,198.39502,78,70,40
198.4254,198.52522,76,70,40
198.52957,198.60335,80,70,40
198.63374,198.70752,83,70,40
198.7379,198.81169,80,70,40
198.84207,198.91585,83,70,40
198.94624,199.02002,80,70,40
199.0504,199.15022,81,70,40
199.15457,199.22835,78,70,40
199.25873,199.33252,75,70,40
199.3629,199.43669,71,70,40
199.46707,199.54085,69,70,40
199.57123,199.64502,66,70,40
199.6754,199.77522,64,70,40
199.77957,199.85335,68,70,40
199.88373,199.95752,71,70,40
199.9879,200.06169,76,70,40
200.09207,200.16585,80,70,40
200.19623,200.27002,76,70,40
200.3004,200.40022,75,70,40
200.40457,200.47835,78,70,40
200.50873,200.58252,81,70,40
200.6129,200.68669,78,70,40
200.71707,200.79085,81,70,40
200.82123,200.89502,78,70,40
200.9254,201.02957,76,70,40
201.02957,201.13373,78,70,40
201.13373,201.2379,80,70,40
201.2379,201.34207,81,70,40
201.34207,201.44623,83,70,40
201.44623,201.5504,80,70,40
201.5504,201.65457,76,70,40
201.65457,201.75873,78,70,40
201.75873,201.8629,80,70,40
201.8629,201.96707,81,70,40
201.96707,202.07123,83,70,40
202.07123,202.1754,80,70,40
202.1754,202.58772,76,70,40
204.0504,204.46272,61,70,40
204.46706,204.67105,61,77,40
204.6754,205.0995,61,81,40
205.10396,205.31378,61,89,40
205.31825,205.75484,61,93,40
205.75943,205.98538,61,100,40
205.99019,206.81918,74,110,40
206.82353,206.97543,73,110,40
207.03186,207.18378,71,110,40
207.24019,207.65251,69,110,40
208.49019,209.31918,77,110,40
209.32352,209.47543,78,110,40
209.53186,209.68376,80,110,40
209.74019,210.15251,81,110,40
210.99019,211.81918,85,110,40
211.82352,211.97977,86,80,40
212.03781,212.20607,88,80,40
212.26857,212.7253,90,80,40
213.65318,214.48218,76,50,40
214.48653,214.63843,78,50,40
214.69485,214.84676,79,50,40
214.90318,215.10718,81,50,40
215.11151,215.3155,78,50,40
215.31985,215.52385,74,50,40
215.73651,215.9405,74,50,40
215.94485,216.14885,71,50,40
216.36151,216.5655,69,50,40
216.56985,216.77385,66,50,40
216.98651,217.1905,67,50,40
217.19485,217.39883,64,50,40
217.40318,217.8155,62,50,40
218.23651,218.38843,74,50,40
218.44484,218.59676,76,50,40
218.65318,218.85718,78,50,40
219.06984,219.22176,79,50,40
219.27818,219.48218,81,50,40
219.69484,219.84676,82,50,40
219.90318,220.52383,83,50,40
220.52818,220.73216,79,50,40
220.94484,221.09676,78,50,40
221.15317,221.35716,76,50,40
221.56984,221.72176,78,50,40
221.77817,221.98216,79,50,40
222.19484,222.34676,80,50,40
222.40317,223.02383,81,50,40
223.02817,223.18008,78,50,40
223.23651,223.38841,74,50,40
223.44484,223.59674,76,50,40
223.65317,223.80508,78,50,40
223.86151,224.01341,78,50,40
224.06984,224.22174,79,50,40
224.27817,224.43008,81,50,40
224.4865,224.63841,81,50,40
224.69484,224.84674,82,50,40
224.90317,225.52383,83,50,40
225.52817,225.73216,79,50,40
225.94484,226.09674,78,50,40
226.15317,226.35716,76,50,40
226.56984,226.72174,78,50,40
226.77817,226.98216,79,50,40
227.19484,227.34674,81,50,40
227.40317,227.81549,74,50,40
228.8615,229.01341,81,70,40
229.06982,229.22174,81,70,40
230.1115,230.2634,86,70,40
230.31982,230.47174,86,70,40
230.52817,230.63232,74,110,40
230.63232,230.7365,76,110,40
230.7365,230.84065,78,110,40
230.84065,230.94482,79,110,40
230.94482,231.049,81,110,40
231.049,231.15315,78,110,40
231.15315,231.30507,83,110,40
231.3615,231.5134,67,110,40
231.56982,231.72174,67,110,40
231.77815,231.93007,85,110,40
231.9865,232.1384,69,110,40
232.19482,232.34674,69,110,40
232.40315,232.5594,86,110,40
232.61745,232.78316,62,110,40
232.84471,233.02701,62,110,40
233.71971,233.82388,69,70,40
233.82388,233.92805,71,70,40
233.92805,234.03221,73,70,40
234.03221,234.13638,74,70,40
234.13638,234.24054,76,70,40
234.24054,234.34471,73,70,40
234.34471,234.75703,79,70,40
234.96971,235.07388,78,70,40
235.07388,235.17804,86,70,40
235.17804,235.28221,85,70,40
235.28221,235.38638,86,70,40
235.38638,235.49054,81,70,40
235.49054,235.59471,78,70,40
235.59471,236.00703,74,70,40
238.09471,238.19887,62,70,40
238.19887,238.30304,64,70,40
238.30304,238.40721,65,70,40
238.40721,238.51137,67,70,40
238.51137,238.61554,69,70,40
238.61554,238.71971,65,70,40
238.71971,238.87161,70,70,40
238.92804,239.07996,67,70,40
239.13637,239.28828,67,70,40
239.34471,239.49661,73,70,40
239.55304,239.70494,69,70,40
239.76137,239.91328,69,70,40
239.96971,240.12161,74,70,40
240.17804,240.32994,71,70,40
240.38637,240.53828,71,70,40
240.5947,240.74661,76,70,40
240.80304,240.95494,73,70,40
241.01137,241.16328,73,70,40
241.2197,241.37161,77,70,40
241.42804,241.57994,74,70,40
241.63637,241.78828,74,70,40
241.8447,241.99661,79,70,40
242.05304,242.20494,76,70,40
242.26137,242.41328,76,70,40
242.4697,242.62161,81,70,40
242.67804,242.82994,74,72,40
242.88637,243.03827,74,75,40
243.0947,243.24661,89,78,40
243.30304,243.45494,74,81,40
243.51137,243.66327,74,84,40
243.7197,243.87161,89,86,40
243.92802,244.07994,74,89,40
244.13637,244.28827,74,92,40
244.3447,244.50095,89,95,40
244.55898,244.71983,74,98,40
244.77957,244.94785,74,100,40
245.01035,245.12572,89,125,40
245.12572,245.20746,88,115,40
245.2411,245.3149,86,105,40
245.34528,245.41907,84,100,40
245.44945,245.52322,83,100,40
245.5536,245.6274,86,100,40
245.65778,246.0701,80,100,40
247.53278,247.68468,81,80,40
247.7411,247.89302,69,81,40
247.94943,248.10135,69,83,40
248.15778,248.30968,84,85,40
248.3661,248.51802,69,87,40
248.57443,248.72635,69,89,40
248.78278,248.93903,84,91,40
248.99706,249.1533,69,93,40
249.21133,249.3722,69,95,40
249.43193,249.59277,84,97,40
249.65251,249.82079,69,99,40
249.88329,250.06558,69,100,40
250.13329,250.37808,84,110,40
250.38329,250.58728,57,110,40
250.59161,250.79561,60,110,40
250.79996,251.00395,66,110,40
251.00829,251.21228,69,110,40
251.21661,251.42061,72,110,40
251.42496,251.62894,78,110,40
251.63329,251.83728,81,110,40
251.84161,252.04561,83,110,40
252.04996,252.25394,84,110,40
252.25829,252.46228,83,110,40
252.46661,252.67061,81,110,40
252.67494,252.82686,80,110,40
252.88329,253.03519,76,100,40
253.09161,253.24353,76,90,40
253.29994,253.45186,88,70,40
253.50829,253.66019,76,70,40
253.71661,253.86853,76,70,40
253.92494,254.07686,88,70,40
254.13329,254.28519,76,70,40
254.34161,254.49352,76,70,40
254.54994,254.70186,88,70,40
254.75829,254.91019,76,70,40
254.96661,255.11852,76,70,40
255.17494,255.58727,88,70,40
255.79994,256.4206,81,70,40
256.42496,257.0456,80,70,40
257.04993,257.6706,81,70,40
257.67493,257.82684,83,70,40
257.88327,258.0352,76,70,40
258.0916,258.24353,76,70,40
258.29993,258.45184,88,70,40
258.50827,258.6602,76,70,40
258.7166,258.86853,76,70,40
258.92493,259.07684,88,70,40
259.13327,259.2852,76,70,40
259.3416,259.4935,76,70,40
259.54993,259.70184,88,70,40
259.75827,259.9102,76,70,40
259.9666,260.1185,76,70,40
260.17493,260.58725,88,70,40
260.79993,261.4206,81,70,40
261.42493,262.0456,80,70,40
262.04993,262.6706,81,70,40
262.67493,263.08725,83,70,40
264.54993,264.96225,78,50,40
264.96658,265.1706,78,50,40
265.17493,265.58725,78,50,40
265.59158,265.7956,76,50,40
265.79993,266.21225,74,50,40
266.21658,266.4206,73,50,40
266.42493,267.46225,71,50,40
267.67493,268.08725,76,50,40
268.09158,268.2956,74,50,40
268.29993,268.71225,73,50,40
268.71658,268.9206,71,50,40
268.92493,269.33725,74,50,40
269.34158,269.5456,73,58,40
269.54993,269.96225,71,63,40
269.96658,270.1706,69,71,40
270.17493,270.58725,68,76,40
270.59158,270.7956,66,84,40
270.79993,271.21225,64,89,40
271.21658,271.4206,62,98,40
271.42493,271.52475,61,110,40
271.52908,271.6289,64,110,40
271.63324,271.73306,69,110,40
271.73743,271.83725,73,110,40
271.84158,271.9414,76,110,40
271.94574,272.04556,81,110,40
272.04993,272.14975,85,110,40
272.15408,272.2539,81,110,40
272.25824,272.35806,88,110,40
272.36243,272.46225,85,110,40
272.46658,272.5664,83,110,40
272.57074,272.67056,81,110,40
272.67493,272.77908,80,110,40
272.77908,272.85287,81,110,40
272.88324,272.95703,83,110,40
272.98743,273.0612,81,110,40
273.09158,273.16537,80,110,40
273.19574,273.26953,78,110,40
273.29993,273.40408,76,110,40
273.40408,273.47787,75,110,40
273.50824,273.58203,76,110,40
273.61243,273.6862,74,110,40
273.71658,273.79037,73,110,40
273.82074,273.89453,71,110,40
273.92493,274.33725,69,110,40
273.92493,274.33725,81,110,40
274.39368,274.44574,71,110,40
274.44574,274.49783,69,110,40
274.49783,274.54993,68,110,40
274.54993,274.7018,69,70,40
274.75824,274.91016,71,70,40
274.96658,275.1185,73,70,40
275.64368,275.69574,74,70,40
275.69574,275.74783,73,70,40
275.74783,275.79993,71,70,40
275.79993,275.9518,73,90,40
276.00824,276.16016,74,70,40
276.21658,276.3685,76,70,40
276.89365,276.94574,78,70,40
276.94574,276.99783,76,70,40
276.99783,277.0499,75,70,40
277.0499,277.2018,76,90,40
277.25824,277.41016,78,70,40
277.46658,277.6185,80,70,40
277.6749,277.8268,81,70,40
277.88324,278.03516,83,70,40
278.09158,278.24783,85,70,40
278.30585,278.4621,85,70,40
278.52014,278.681,86,70,40
278.74072,278.909,88,70,40
278.9715,279.6146,90,70,40
279.61893,279.82294,86,70,40
280.0356,280.1875,85,70,40
280.24393,280.44794,83,70,40
280.6606,280.8125,85,70,40
280.86893,281.07294,86,70,40
281.2856,281.4375,87,70,40
281.49393,282.1146,88,70,40
282.11893,282.27084,85,70,40
282.32727,282.4792,81,70,40
282.5356,282.6875,83,70,40
282.74393,282.89584,85,70,40
282.95227,283.1042,85,70,40
283.16058,283.3125,86,70,40
283.36893,283.52084,88,70,40
283.57727,283.7292,88,70,40
283.78558,283.9375,89,70,40
283.99393,284.6146,90,70,40
284.61893,285.03125,86,70,40
285.03558,285.1875,85,70,40
285.24393,285.39584,83,70,40
285.66058,285.8125,85,70,40
285.86893,286.02084,86,70,40
286.28558,286.4375,88,70,40
286.49393,286.90625,81,70,40
287.11893,287.22308,69,70,40
287.22308,287.32727,71,70,40
287.32727,287.43143,73,70,40
287.43143,287.53558,74,70,40
287.53558,287.63977,76,70,40
287.63977,287.74393,73,70,40
287.74393,288.15625,74,70,40
288.36893,288.47308,76,70,40
288.47308,288.57727,78,70,40
288.57727,288.68143,80,70,40
288.68143,288.78558,81,70,40
288.78558,288.88977,83,70,40
288.88977,288.99393,80,70,40
288.99393,289.40625,81,70,40
289.61893,289.72308,69,70,40
289.72308,289.82724,71,70,40
289.82724,289.93143,73,70,40
289.93143,290.03558,74,70,40
290.03558,290.13974,76,70,40
290.13974,290.24393,73,70,40
290.24393,290.39584,78,70,40
290.45224,290.60416,62,70,40
290.66058,290.8125,62,70,40
290.86893,291.02084,80,70,40
291.07724,291.22916,64,70,40
291.28558,291.4375,64,70,40
291.49393,291.6458,81,70,40
291.70224,291.85416,57,70,40
291.91058,292.0625,57,70,40
292.11893,292.22308,69,70,40
292.22308,292.32724,71,70,40
292.32724,292.43143,73,70,40
292.43143,292.53558,74,70,40
292.53558,292.63974,76,70,40
292.63974,292.74393,73,70,40
292.74393,293.15625,74,70,40
293.36893,293.78125,86,75,40
293.99393,294.40625,86,80,40
294.61893,295.03125,86,86,40
295.24393,295.65625,86,91,40
295.86893,296.28125,86,97,40
296.70224,296.85416,67,110,40
296.70224,296.85416,77,110,40
296.91058,297.0625,67,110,40
296.91058,297.0625,77,110,40
297.32724,297.47916,67,110,40
297.32724,297.47916,76,110,40
297.53558,297.6875,67,110,40
297.53558,297.6875,76,110,40
297.7439,298.15622,88,70,40
298.3689,298.78122,88,70,40
299.20224,299.35416,69,110,40
299.20224,299.35416,79,110,40
299.41058,299.56247,69,110,40
299.41058,299.56247,79,110,40
299.82724,299.97916,69,110,40
299.82724,299.97916,77,110,40
300.03558,300.18747,69,110,40
300.03558,300.18747,77,110,40
300.2439,300.4479,81,70,40
300.45224,300.60416,72,70,40
300.66058,300.81247,72,70,40
301.07724,301.22916,72,70,40
301.28558,301.43747,72,70,40
301.70224,301.85416,72,70,40
301.91058,302.06247,72,70,40
302.32724,302.47916,72,70,40
302.53555,302.68747,72,70,40
302.7439,302.84805,71,70,40
302.84805,302.95224,64,70,40
302.95224,303.0564,68,70,40
303.0564,303.16055,71,70,40
303.16055,303.26474,76,70,40
303.26474,303.3689,80,70,40
303.3689,303.78122,83,70,40
303.78555,303.98956,80,70,40
303.9939,304.40622,81,70,40
304.41055,304.61456,83,70,40
304.6189,305.03122,85,70,40
305.03555,305.23956,87,70,40
305.2439,305.3958,88,70,40
305.45224,305.60413,76,72,40
305.66055,305.71265,78,75,40
305.71265,305.76474,80,76,40
305.76474,305.86456,78,76,40
305.8689,306.07288,80,78,40
306.07724,306.28122,80,80,40
306.28555,306.33765,80,83,40
306.33765,306.38974,81,84,40
306.38974,306.48956,80,84,40
306.4939,306.69788,81,86,40
306.70224,306.90622,81,88,40
306.91055,306.96265,83,91,40
306.96265,307.01474,85,92,40
307.01474,307.11456,83,92,40
307.1189,307.32288,85,94,40
307.32724,307.53122,85,96,40
307.53555,307.58765,87,99,40
307.58765,307.63974,88,100,40
307.63974,307.73956,87,100,40
307.7439,307.94788,88,110,40
307.95224,308.15622,88,110,40
308.16055,308.3704,92,110,40
308.37485,308.58466,88,110,40
308.58914,308.8151,88,110,40
308.8199,309.0647,95,110,40
309.0699,309.5647,88,110,40
310.30066,310.46893,64,70,40
310.53143,310.7574,72,70,40
310.99298,311.16125,68,70,40
311.22375,311.4497,69,70,40
311.68527,311.85355,64,70,40
311.91605,312.37277,65,90,40
312.3776,312.49298,67,70,40
312.49298,312.60837,65,70,40
312.60837,312.83432,64,70,40
313.0699,313.29587,64,70,40
313.30066,313.72476,69,70,40
313.72925,313.93906,71,70,40
313.9435,314.3676,72,70,40
314.3721,314.5819,74,70,40
314.58636,315.0105,74,70,40
315.01495,315.0685,72,70,40
315.0685,315.1221,74,70,40
315.1221,315.22925,72,70,40
315.22925,315.43906,71,70,40
315.6578,315.8676,64,70,40
315.8721,316.2962,72,70,40
316.30066,316.5105,68,70,40
316.51495,316.93906,69,70,40
316.9435,317.15335,69,70,40
317.1578,317.5819,77,70,40
317.58636,317.7962,73,70,40
317.80066,318.01047,74,70,40
318.22922,318.38547,81,70,40
318.4435,318.65335,81,70,40
318.6578,318.81406,79,70,40
318.8721,319.02835,77,70,40
319.08636,319.2962,77,70,40
319.30066,319.46152,76,70,40
319.52124,319.6895,74,70,40
319.752,320.4968,74,70,40
320.502,320.9968,72,70,40
323.77124,323.9972,76,70,40
324.002,324.42612,81,70,40
324.43057,324.6404,83,70,40
324.64487,325.06897,84,70,40
325.07343,325.28326,86,70,40
325.28772,325.71182,86,70,40
325.7163,325.76987,84,70,40
325.76987,325.82343,86,70,40
325.82343,325.93057,84,70,40
325.93057,326.1404,83,70,40
326.35916,326.56897,76,50,40
326.57343,326.99756,85,50,40
327.002,327.21182,80,50,40
327.2163,327.65286,81,50,40
327.65747,327.88342,81,50,40
327.88824,328.38303,90,50,40
328.38824,328.68198,85,50,40
328.68823,329.28198,86,50,40
330.6299,330.8339,81,50,40
330.83823,331.25055,90,50,40
331.2549,331.4589,85,50,40
331.46323,331.87555,86,50,40
331.8799,332.0839,82,50,40
332.08823,332.50055,83,50,40
332.5049,333.12555,78,50,40
333.1299,333.3339,77,50,40
333.33823,334.16724,76,50,40
334.17157,334.3235,74,50,40
334.3799,334.5318,71,50,40
334.58823,335.00055,69,50,40
336.67157,336.8235,82,50,40
336.87988,337.0318,82,50,40
337.08823,337.50055,83,50,40
339.17157,339.32346,84,50,40
339.37988,339.5318,84,50,40
339.58823,340.00055,85,50,40
340.83823,341.25055,74,110,40
340.83823,341.25055,86,110,40
341.25488,341.4068,85,110,40
341.46323,341.61514,83,110,40
341.67154,341.82346,81,110,40
341.87988,342.0318,80,95,40
342.08823,342.2922,80,70,40
342.29654,342.44846,81,70,40
342.50488,342.6568,76,70,40
342.92154,343.12555,81,70,40
343.12988,343.3339,78,70,40
343.54654,343.75055,76,70,40
343.75488,343.95886,73,70,40
344.17154,344.37555,74,70,40
344.37988,344.58386,71,70,40
344.58823,344.7401,69,110,40
344.79654,344.94846,81,110,40
345.00488,345.1568,83,110,40
345.21323,345.3651,85,110,40
345.42154,345.57346,83,110,40
345.62988,345.7818,81,110,40
345.83823,346.0422,80,110,40
346.25488,346.4068,78,110,40
346.46323,346.87555,76,110,40
347.08823,347.50055,83,126,40
347.50488,347.6568,85,110,40
347.71323,347.8651,86,110,40
347.92154,348.07346,85,110,40
348.12988,348.2818,83,110,40
348.3382,348.5422,81,110,40
348.75488,348.9068,80,110,40
348.9632,349.37555,78,110,40
349.5882,350.00052,85,125,40
350.00488,350.20886,87,110,40
350.2132,350.4172,88,110,40
350.42154,350.62552,88,110,40
350.62988,350.83386,88,110,40
350.8382,352.08386,88,125,40
352.0882,353.33386,88,125,40
353.3382,353.4901,88,125,40
353.54654,353.69846,80,100,40
353.75488,353.90677,81,100,40
353.9632,354.1151,83,100,40
354.17154,354.32346,85,100,40
354.37985,354.53177,86,100,40
354.5882,355.20886,85,100,40
355.2132,355.83386,86,100,40
355.8382,356.45886,88,100,40
356.4632,357.08386,90,100,40
357.0882,357.91718,64,115,40
357.92154,358.07343,86,100,40
358.12985,358.28177,80,100,40
358.3382,358.44235,81,100,40
358.44235,358.51614,85,100,40
358.54654,358.6203,88,100,40
358.6507,358.7245,85,100,40
358.75485,358.82864,81,100,40
358.85904,358.9328,85,100,40
358.9632,359.037,76,100,40
359.06735,359.14114,81,100,40
359.17154,359.2453,73,100,40
359.2757,359.3495,76,100,40
359.37985,359.45364,69,100,40
359.48404,359.5578,73,100,40
359.5882,360.41718,64,115,40
360.42154,360.57343,86,100,40
360.62985,360.78177,80,100,40
360.8382,360.94235,81,100,40
360.94235,361.01614,85,100,40
361.0465,361.1203,88,100,40
361.1507,361.2245,85,100,40
361.25485,361.32864,81,100,40
361.359,361.4328,85,100,40
361.4632,361.537,76,100,40
361.56735,361.64114,81,100,40
361.6715,361.7453,73,100,40
361.7757,361.8495,76,100,40
361.87985,361.95364,69,100,40
361.984,362.0578,73,100,40
362.0882,362.91718,64,115,40
362.9215,363.07776,86,100,40
363.1358,363.29904,80,100,40
363.35968,363.8028,81,100,40
366.08615,366.9388,83,110,40
366.9433,367.09955,81,70,40
367.15756,367.3138,79,70,40
367.37186,367.5281,78,70,40
367.58615,367.7424,76,70,40
367.80045,367.9567,74,70,40
368.0147,368.22455,73,70,40
368.229,368.38525,74,70,40
368.4433,368.59955,71,70,40
368.65756,368.8674,71,70,40
368.87186,369.0281,73,70,40
369.08615,369.2424,69,70,40
369.30045,369.72455,69,70,40
369.729,369.9388,69,77,40
369.9433,370.37988,69,81,40
370.38446,370.60046,69,89,40
370.60504,371.06177,69,93,40
371.0666,371.31137,69,100,40
371.3166,372.16928,91,110,40
372.17374,372.33,90,110,40
372.38803,372.54428,88,110,40
372.6023,372.75854,86,110,40
372.8166,372.97284,85,110,40
373.03088,373.18713,83,110,40
373.24515,373.455,81,110,40
373.45944,373.6157,83,110,40
373.67374,373.83,80,90,40
373.88803,373.99515,81,70,40
373.99515,374.07104,85,70,40
374.1023,374.1761,88,70,40
374.20648,374.28024,85,70,40
374.31064,374.38443,88,70,40
374.4148,374.4886,85,70,40
374.51898,374.62314,86,70,40
374.62314,374.69693,83,70,40
374.7273,374.8011,80,70,40
374.83148,374.90524,76,70,40
374.93564,375.00943,74,70,40
375.0398,375.1136,71,70,40
375.14395,375.24814,69,70,40
375.24814,375.32193,73,70,40
375.3523,375.4261,76,70,40
375.45645,375.53024,81,70,40
375.56064,375.63443,85,70,40
375.6648,375.7386,81,70,40
375.76895,375.87314,80,70,40
375.87314,375.94693,83,70,40
375.9773,376.0511,86,70,40
376.08145,376.15524,83,70,40
376.18564,376.25943,86,70,40
376.2898,376.3636,83,70,40
376.39395,376.49814,81,70,40
376.49814,376.57193,85,70,40
376.6023,376.6761,88,70,40
376.70645,376.78024,85,70,40
376.81064,376.88443,88,70,40
376.9148,376.9886,85,70,40
377.01895,377.12314,86,70,40
377.12314,377.1969,83,70,40
377.2273,377.3011,80,70,40
377.33145,377.40524,76,70,40
377.43564,377.5094,74,70,40
377.5398,377.6136,71,70,40
377.64395,377.74814,69,70,40
377.74814,377.8219,73,70,40
377.8523,377.9261,76,70,40
377.95645,378.03024,81,70,40
378.06064,378.1344,85,70,40
378.1648,378.2386,81,70,40
378.26895,378.37314,80,70,40
378.37314,378.4469,83,70,40
378.4773,378.5511,86,70,40
378.58145,378.65524,83,70,40
378.68564,378.7594,86,70,40
378.7898,378.8636,83,70,40
378.89395,378.99814,81,70,40
378.99814,379.1023,83,71,40
379.1023,379.20645,85,73,40
379.20645,379.31064,86,75,40
379.31064,379.4148,88,77,40
379.4148,379.51895,85,79,40
379.51895,379.62314,81,81,40
379.62314,379.7273,83,83,40
379.7273,379.83145,85,85,40
379.83145,379.93564,86,87,40
379.93564,380.0398,88,89,40
380.0398,380.14395,85,90,40
380.14395,380.55627,81,110,40
382.01895,382.17087,81,70,40
382.2273,382.3792,83,70,40
382.4356,382.58752,85,70,40
383.26895,383.42087,85,70,40
383.4773,383.62918,86,70,40
383.6856,383.83752,88,70,40
385.80536,385.97363,88,93,40
386.03613,386.2184,90,95,40
386.28613,386.50488,92,98,40
386.58612,387.17987,93,100,40
387.48615,387.98093,64,110,40
387.48615,387.98093,71,110,40
387.48615,387.98093,80,110,40
388.23615,388.73093,57,110,40
388.23615,388.73093,64,110,40
388.23615,388.9757,73,110,40
388.23615,388.9757,81,110,40
391.48615,391.73093,69,1,40
0.624999,1.0373248,64,70,40
1.874997,2.2873228,64,90,40
3.124995,3.5373206,64,90,40
5.031486,6.2830963,66,70,40
6.2874365,8.158093,68,70,40
8.162434,9.408092,69,70,40
9.412432,10.033091,67,70,40
10.037431,11.283089,66,70,40
11.287429,12.586549,68,70,40
12.591356,13.048087,69,70,40
14.140805,14.297055,64,70,40
14.355091,14.511341,64,70,40
15.426518,15.582768,61,70,40
15.640804,15.797054,61,70,40
16.71223,16.86848,62,70,40
16.926517,17.082767,62,70,40
17.355087,17.511337,64,70,40
17.569374,17.725624,64,70,40
17.997944,18.154194,57,70,40
18.21223,18.36848,57,70,40
19.283657,19.439907,64,70,40
19.497944,19.654192,64,70,40
20.56937,20.72562,61,70,40
20.783655,20.939905,61,70,40
21.212227,21.368477,67,70,40
21.426512,21.582762,67,70,40
21.855083,22.011333,66,70,40
22.069368,22.230215,66,70,40
22.510546,22.678814,65,70,40
22.741314,22.923605,65,70,40
22.991314,23.457306,64,70,40
24.503567,24.70756,73,70,40
24.7119,24.915894,71,70,40
24.920233,25.124226,73,70,40
25.128567,25.33256,69,70,40
25.336899,25.540892,71,70,40
25.545233,25.957558,71,70,40
27.003563,27.207556,73,88,40
27.211897,27.415888,71,91,40
27.420229,27.624222,73,94,40
27.628563,27.780472,69,96,40
27.836895,27.988804,69,99,40
28.045227,28.457554,68,110,40
28.67618,29.106457,68,110,40
29.341822,29.798552,68,110,40
30.495667,30.663937,59,70,40
30.726437,30.952396,67,70,40
31.187975,31.356243,63,70,40
31.418743,31.644705,64,70,40
31.880281,32.04855,59,70,40
32.11105,32.56778,60,90,40
32.57259,32.683167,62,70,40
32.687973,32.79855,60,70,40
32.803356,33.02932,59,70,40
33.495663,33.91977,59,70,40
33.924236,34.134056,63,70,40
34.13852,34.562626,64,70,40
34.567093,34.776913,66,70,40
34.781376,35.217957,66,70,40
35.222553,35.448513,64,70,40
35.453323,35.910053,63,70,40
36.14563,36.569736,55,70,40
36.5742,36.78402,57,70,40
36.788486,36.998306,59,70,40
37.217056,37.426876,59,70,40
37.431343,37.85545,60,70,40
37.859913,38.069733,62,70,40
38.0742,38.28402,64,70,40
38.50277,38.65902,72,70,40
38.717056,38.926876,72,70,40
38.93134,39.08759,71,70,40
39.145626,39.301876,69,70,40
39.359913,39.569733,69,70,40
39.574196,39.730446,67,70,40
39.788483,39.95173,66,70,40
40.012363,40.710606,66,70,40
40.71549,40.94498,67,70,40
41.18424,41.355137,71,110,40
41.418613,41.63783,79,110,40
41.866375,42.02962,75,110,40
42.090256,42.30947,76,110,40
42.538017,42.701263,71,110,40
42.761894,43.204994,72,110,40
43.209656,43.321598,74,110,40
43.321598,43.433537,72,110,40
43.433537,43.652752,71,110,40
43.881298,44.044544,71,70,40
44.10518,44.529285,71,70,40
44.53375,44.743572,75,70,40
44.748035,45.172142,76,70,40
45.176605,45.392597,78,70,40
45.397194,45.853924,78,70,40
45.858734,46.084694,76,70,40
46.0895,46.54623,75,70,40
46.781807,47.205914,68,50,40
47.21038,47.424797,69,50,40
47.429356,47.643772,71,50,40
47.867313,48.093273,71,50,40
48.098083,48.592873,73,50,40
48.598083,48.891834,74,50,40
48.898083,49.491833,76,50,40
52.714745,52.918736,68,50,40
52.923077,53.335403,69,50,40
53.339745,53.960403,69,50,40
53.96474,54.168736,68,50,40
54.173077,54.5854,66,50,40
54.58974,54.793736,63,50,40
54.798073,55.2104,64,50,40
55.21474,55.41873,66,50,40
55.423073,55.57498,68,50,40
55.631405,55.783318,66,50,40
55.83974,55.99165,64,50,40
56.048073,56.252064,63,50,40
56.464737,56.61665,61,50,40
56.673073,57.085396,59,50,40
57.29807,57.710396,66,50,40
57.714737,57.918728,68,50,40
57.92307,58.074978,69,50,40
58.1314,58.283314,68,50,40
58.339737,58.491646,66,50,40
58.54807,58.75206,64,50,40
58.964733,59.116646,63,50,40
59.17307,59.585392,61,50,40
59.798065,60.210392,68,50,40
60.214733,60.418724,70,50,40
60.423065,60.574974,71,50,40
60.631397,60.783306,70,50,40
60.839733,60.991642,68,50,40
61.048065,61.252056,69,100,40
61.256397,61.408306,63,100,40
61.46473,61.61664,64,100,40
61.673065,61.824974,66,100,40
61.881397,62.033306,68,100,40
62.08973,62.24164,69,100,40
62.29806,62.44997,71,70,40
62.506397,62.71039,71,70,40
62.71473,62.91872,68,70,40
63.131393,63.33539,73,70,40
63.33973,63.54372,69,70,40
63.756393,63.960384,68,70,40
63.964725,64.16872,64,70,40
64.38139,64.58539,66,70,40
64.58973,64.79372,63,70,40
64.79806,64.94997,64,100,40
65.00639,65.1583,64,100,40
65.21472,65.36663,66,100,40
65.42306,65.57497,68,100,40
65.63139,65.7833,66,100,40
65.83972,65.99163,64,100,40
66.04806,66.25205,63,100,40
66.46472,66.61663,61,100,40
66.67306,67.08538,59,100,40
67.29806,67.71038,66,125,40
67.71472,67.86663,68,100,40
67.92305,68.07497,69,100,40
68.131386,68.283295,68,100,40
68.33972,68.49163,66,100,40
68.54805,68.752045,64,100,40
68.96472,69.11663,63,100,40
69.17305,69.58538,61,100,40
69.79805,70.21037,68,100,40
70.214714,70.36662,70,100,40
70.42305,70.57496,71,100,40
70.631386,70.783295,70,100,40
70.839714,70.99162,68,100,40
71.04805,71.46037,69,120,40
71.464714,71.61662,68,100,40
71.67305,71.82496,66,100,40
71.88138,72.03329,64,100,40
72.089714,72.24162,63,100,40
72.29805,72.60621,69,120,40
72.714714,72.86662,68,100,40
72.92304,73.07495,66,100,40
73.13138,73.28329,64,100,40
73.339714,73.49162,63,100,40
73.54804,73.75204,69,120,40
73.75638,73.96037,81,100,40
73.964714,74.1687,80,100,40
74.17304,74.37704,78,100,40
74.38138,74.58537,76,100,40
74.58971,74.7937,75,100,40
74.79804,75.00204,76,100,40
75.00638,75.210365,64,100,40
75.21471,75.4187,76,100,40
75.63138,75.835365,64,100,40
75.83971,76.0437,76,100,40
76.25637,76.460365,64,100,40
76.46471,76.6687,76,100,40
76.88137,77.085365,64,100,40
77.08971,77.2937,76,100,40
77.29804,78.12703,68,120,40
78.13137,78.28328,69,100,40
78.33971,78.491615,69,100,40
78.548035,78.960365,68,100,40
79.798035,80.62703,68,120,40
80.63136,80.78328,69,100,40
80.8397,80.99161,69,100,40
81.048035,81.46036,68,100,40
82.29803,83.12702,68,120,40
83.13136,83.28761,69,100,40
83.34565,83.50649,69,100,40
83.56624,84.002815,68,100,40
86.26307,87.115746,68,100,40
87.12021,87.27646,69,70,40
87.334496,87.490746,71,70,40
87.54878,87.70503,73,70,40
87.76306,87.91931,65,70,40
87.97735,88.1336,66,70,40
88.191635,88.40146,64,70,40
88.40592,88.56217,66,70,40
88.62021,88.77646,63,70,40
88.834496,89.2586,64,70,40
89.47735,89.90146,64,70,40
89.90592,90.11574,64,77,40
90.12021,90.556786,64,81,40
90.56138,90.777374,64,89,40
90.78197,91.2387,64,93,40
91.24351,91.4883,64,100,40
91.49351,92.34618,74,110,40
92.35065,92.5069,73,110,40
92.56493,92.72118,73,110,40
92.77922,92.93547,73,110,40
92.99351,93.14976,71,110,40
93.207794,93.364044,69,110,40
93.42207,93.6319,68,110,40
93.63636,93.79261,69,110,40
93.85065,94.0069,69,110,40
94.06493,94.271904,68,70,40
94.276245,94.48023,56,70,40
94.48457,94.68857,59,70,40
94.90124,95.10523,57,70,40
95.10957,95.31357,59,70,40
95.52624,95.73023,64,70,40
95.73457,95.93857,68,70,40
96.15124,96.35523,66,70,40
96.35957,96.56357,69,70,40
96.77624,96.98023,56,70,40
96.98457,97.18856,59,70,40
97.40124,97.60523,57,70,40
97.60957,97.81356,59,70,40
98.02624,98.23023,64,70,40
98.234566,98.43856,68,70,40
98.65124,98.855225,66,70,40
98.859566,99.06356,69,70,40
99.27624,99.480225,64,70,40
99.484566,99.68856,68,70,40
99.90123,100.105225,64,70,40
100.109566,100.31356,68,70,40
100.3179,100.730225,64,70,40
102.192894,102.605225,64,70,40
103.442894,103.85522,64,90,40
104.692894,105.10522,64,90,40
106.589386,107.85059,66,70,40
107.854935,109.72559,68,70,40
109.729935,110.975586,69,70,40
110.97993,111.600586,67,70,40
111.60493,112.850586,66,70,40
112.85493,114.13446,68,70,40
114.13927,114.55159,69,70,40
115.597595,115.749504,64,70,40
115.80593,115.95784,64,70,40
116.847595,116.999504,61,70,40
117.05593,117.20784,61,70,40
118.097595,118.249504,62,70,40
118.30592,118.45783,62,70,40
118.722595,118.874504,64,70,40
118.93092,119.08283,64,70,40
119.34759,119.4995,57,70,40
119.55592,119.70783,57,70,40
120.59759,120.7495,64,70,40
120.80592,120.95783,64,70,40
121.84759,121.9995,61,70,40
122.05592,122.20783,61,70,40
122.47259,122.6245,67,70,40
122.680916,122.832825,67,70,40
123.10354,123.25979,66,70,40
123.317825,123.47867,66,70,40
123.758995,123.92727,65,70,40
123.98977,124.17206,65,70,40
124.23977,124.664345,64,70,40
125.71035,125.914345,73,70,40
125.918686,126.12268,71,70,40
126.12702,126.33101,73,70,40
126.33535,126.539345,69,70,40
126.543686,126.74768,71,70,40
126.75202,127.164345,71,70,40
128.21034,128.41434,73,88,40
128.41869,128.62268,71,91,40
128.62701,128.83101,73,94,40
128.83534,128.98726,69,96,40
129.04369,129.19559,69,99,40
129.25201,129.67612,68,110,40
129.90117,130.34772,68,110,40
130.60252,131.09732,68,110,40
131.85252,132.03482,59,70,40
132.10252,132.32849,67,70,40
132.56407,132.73233,63,70,40
132.79483,133.0208,64,70,40
133.25638,133.42465,59,70,40
133.48715,133.94388,60,90,40
133.94868,134.05927,62,70,40
134.06407,134.17464,60,70,40
134.17946,134.40541,59,70,40
134.87177,135.29587,59,70,40
135.30032,135.51015,63,70,40
135.51462,135.93872,64,70,40
135.94319,136.153,66,70,40
136.15747,136.59406,66,70,40
136.59865,136.82462,64,70,40
136.82942,137.28615,63,70,40
137.52173,137.95198,55,70,40
137.95651,138.16937,57,70,40
138.17389,138.38676,59,70,40
138.60867,138.82153,59,70,40
138.82607,139.25632,60,70,40
139.26085,139.47371,62,70,40
139.47824,139.6911,64,70,40
139.91302,140.07153,72,70,40
140.13042,140.34328,72,70,40
140.34781,140.50632,71,70,40
140.5652,140.72844,69,70,40
140.78908,141.0083,69,70,40
141.01295,141.17621,67,70,40
141.23683,141.4051,66,70,40
141.4676,142.17693,66,70,40
142.1819,142.41502,67,70,40
142.65808,142.8317,71,110,40
142.89618,143.11539,79,110,40
143.34393,143.50719,75,110,40
143.56783,143.78703,76,110,40
144.01558,144.17883,71,110,40
144.23946,144.68256,72,110,40
144.68723,144.79916,74,110,40
144.79916,144.9111,72,110,40
144.9111,145.13033,71,110,40
145.35886,145.52211,71,70,40
145.58275,146.00685,71,70,40
146.01132,146.22113,75,70,40
146.2256,146.6497,76,70,40
146.65417,146.864,78,70,40
146.86845,147.29256,78,70,40
147.29703,147.50685,76,70,40
147.5113,147.93542,75,70,40
148.16048,148.59705,68,50,40
148.60165,148.81764,69,50,40
148.82224,149.0482,71,50,40
149.28377,149.5169,71,50,40
149.52187,150.01666,73,50,40
150.02187,150.31561,74,50,40
150.32187,150.91562,76,50,40
154.13853,154.34253,68,50,40
154.34686,154.75919,69,50,40
154.76353,155.38419,69,50,40
155.38853,155.59253,68,50,40
155.59686,156.00919,66,50,40
156.01353,156.21751,63,50,40
156.22186,156.63419,64,50,40
156.63853,156.84251,66,50,40
156.84686,156.99876,68,50,40
157.05519,157.2071,66,50,40
157.26352,157.41544,64,50,40
157.47186,157.67586,63,50,40
157.88852,158.04044,61,50,40
158.09686,158.50919,59,50,40
158.72186,159.13419,66,50,40
159.13852,159.34251,68,50,40
159.34686,159.49876,69,50,40
159.55519,159.70709,68,50,40
159.76352,159.91544,66,50,40
159.97186,160.17584,64,50,40
160.38852,160.54044,63,50,40
160.59685,161.00919,61,50,40
161.22185,161.63419,68,50,40
161.63852,161.84251,70,50,40
161.84685,161.99876,71,50,40
162.05519,162.20709,70,50,40
162.26352,162.41544,68,50,40
162.47185,162.67584,69,100,40
162.68019,162.83209,63,100,40
162.88852,163.04042,64,100,40
163.09685,163.24876,66,100,40
163.30519,163.45709,68,100,40
163.51352,163.66542,69,100,40
163.72185,163.87376,71,70,40
163.93018,164.13417,71,70,40
164.13852,164.34251,68,70,40
164.55518,164.765,73,70,40
164.76947,164.9793,69,70,40
165.20435,165.42033,68,70,40
165.42493,165.64091,64,70,40
165.8661,166.09207,66,70,40
166.09688,166.32283,63,70,40
166.32764,166.48389,64,100,40
166.54193,166.69818,64,100,40
166.75621,166.91246,66,100,40
166.9705,167.12675,68,100,40
167.18478,167.34103,66,100,40
167.39906,167.55531,64,100,40
167.61336,167.82318,63,100,40
168.04193,168.19818,61,100,40
168.25621,168.68031,59,100,40
168.89906,169.32318,66,125,40
169.32764,169.48389,68,100,40
169.54193,169.69818,69,100,40
169.75621,169.91246,68,100,40
169.97049,170.12674,66,100,40
170.18478,170.3946,64,100,40
170.61336,170.7696,63,100,40
170.82764,171.25174,61,100,40
171.47049,171.8946,68,100,40
171.89906,172.05531,70,100,40
172.11336,172.2696,71,100,40
172.32764,172.48389,70,100,40
172.54192,172.69817,68,100,40
172.75621,173.18031,69,120,40
173.18478,173.34103,68,100,40
173.39906,173.55531,66,100,40
173.61334,173.76959,64,100,40
173.82764,173.98389,63,100,40
174.04192,174.35889,69,120,40
174.47049,174.62674,68,100,40
174.68478,174.84103,66,100,40
174.89906,175.05531,64,100,40
175.11334,175.26959,63,100,40
175.32764,175.53746,69,120,40
175.54192,175.75174,81,100,40
175.75621,175.96602,80,100,40
175.97049,176.18031,78,100,40
176.18477,176.39459,76,100,40
176.39906,176.60889,75,100,40
176.61334,176.82317,76,100,40
176.82764,177.03746,64,100,40
177.04192,177.25174,76,100,40
177.47049,177.68031,64,100,40
177.68477,177.89459,76,100,40
178.11334,178.32317,64,100,40
178.32764,178.53745,76,100,40
178.7562,178.96602,64,100,40
178.97049,179.18031,76,100,40
179.18477,180.03745,68,120,40
180.04192,180.19817,69,100,40
180.2562,180.41245,69,100,40
180.47049,180.88876,68,100,40
181.72644,182.55544,68,120,40
182.55977,182.71169,69,100,40
182.7681,182.92001,69,100,40
182.97644,183.38876,68,100,40
184.22643,185.05542,68,120,40
185.05977,185.21167,69,100,40
185.2681,185.42001,69,100,40
185.47643,185.88876,68,100,40
188.11758,188.97026,68,100,40
188.97473,189.13098,69,70,40
189.18901,189.34526,71,70,40
189.4033,189.55956,73,70,40
189.61758,189.77383,65,70,40
189.83188,189.98813,66,70,40
190.04616,190.25598,64,70,40
190.26044,190.41669,66,70,40
190.47473,190.63098,63,70,40
190.68901,191.11311,64,70,40
191.33186,191.75598,64,70,40
191.76044,191.97026,64,77,40
191.97473,192.4113,64,81,40
192.41591,192.6319,64,89,40
192.63649,193.09322,64,93,40
193.09802,193.34282,64,100,40
193.34802,194.2007,74,110,40
194.20517,194.36142,73,110,40
194.41945,194.5757,73,110,40
194.63374,194.79,73,110,40
194.84802,195.00427,71,110,40
195.06232,195.21857,69,110,40
195.2766,195.48642,68,110,40
195.49089,195.64714,69,110,40
195.70517,195.86142,69,110,40
195.91945,196.12927,68,70,40
196.13374,196.33774,56,70,40
196.34207,196.54607,59,70,40
196.75874,196.96274,57,70,40
196.96707,197.17107,59,70,40
197.38374,197.58774,64,70,40
197.59207,197.79607,68,70,40
198.00874,198.21272,66,70,40
198.21707,198.42107,69,70,40
198.63374,198.83772,56,70,40
198.84207,199.04607,59,70,40
199.25873,199.46272,57,70,40
199.46707,199.67107,59,70,40
199.88373,200.08772,64,70,40
200.09207,200.29607,68,70,40
200.50873,200.71272,66,70,40
200.71707,200.92107,69,70,40
201.13373,201.33772,64,70,40
201.34207,201.54605,68,70,40
201.75873,201.96272,64,70,40
201.96707,202.17105,68,70,40
202.1754,202.58772,64,70,40
204.0504,204.46272,61,70,40
204.46706,204.67105,61,77,40
204.6754,205.0995,61,81,40
205.10396,205.31378,61,89,40
205.31825,205.75484,61,93,40
205.75943,205.98538,61,100,40
205.99019,206.81918,71,110,40
206.82353,206.97543,69,110,40
207.03186,207.18378,68,110,40
207.24019,207.65251,66,110,40
208.49019,209.31918,68,110,40
209.32352,209.47543,69,110,40
209.53186,209.68376,71,110,40
209.74019,210.15251,73,110,40
210.99019,211.81918,76,110,40
211.82352,211.97977,78,80,40
212.03781,212.20607,79,80,40
212.26857,212.7253,81,80,40
213.65318,214.48218,69,50,40
214.48653,214.63843,69,50,40
214.69485,214.84676,69,50,40
214.90318,215.10718,69,50,40
215.11151,215.3155,74,50,40
215.31985,215.52385,69,50,40
215.73651,215.9405,71,50,40
215.94485,216.14885,67,50,40
216.36151,216.5655,66,50,40
216.56985,216.77385,62,50,40
216.98651,217.1905,64,50,40
217.19485,217.39883,61,50,40
218.65318,219.89883,60,50,40
217.40318,221.14883,62,50,40
219.90318,221.14883,59,50,40
221.15317,223.02383,61,50,40
221.15317,223.02383,64,50,40
223.02817,224.27383,62,50,40
224.27817,224.89883,60,50,40
224.27817,224.89883,62,50,40
224.90317,226.14883,59,50,40
224.90317,226.14883,62,50,40
226.15317,227.39882,61,50,40
227.40317,227.81549,62,50,40
229.27817,229.38232,61,70,40
229.38232,229.4865,62,70,40
229.4865,229.59067,64,70,40
229.59067,229.69482,66,70,40
229.69482,229.799,67,70,40
229.799,229.90317,64,70,40
229.90317,230.31549,66,70,40
230.52817,230.63232,62,110,40
230.63232,230.7365,64,110,40
230.7365,230.84065,66,110,40
230.84065,230.94482,67,110,40
230.94482,231.049,69,110,40
231.049,231.15315,66,110,40
231.15315,231.56549,67,110,40
231.77815,232.19049,69,110,40
232.40315,232.83998,62,110,40
233.09471,233.19888,62,70,40
233.19888,233.30305,64,70,40
233.30305,233.40721,66,70,40
233.40721,233.51138,67,70,40
233.51138,233.61555,69,70,40
233.61555,233.71971,66,70,40
233.71971,234.13203,67,70,40
234.34471,234.44888,57,70,40
234.44888,234.55304,59,70,40
234.55304,234.65721,61,70,40
234.65721,234.76138,62,70,40
234.76138,234.86554,64,70,40
234.86554,234.96971,61,70,40
234.96971,235.38203,62,70,40
239.34471,239.49661,57,70,40
239.55304,239.70494,61,70,40
239.76137,239.91328,61,70,40
239.96971,240.12161,59,70,40
240.17804,240.32994,62,70,40
240.38637,240.53828,62,70,40
240.5947,240.74661,61,70,40
240.80304,240.95494,64,70,40
241.01137,241.16328,64,70,40
241.2197,241.37161,62,70,40
241.42804,241.57994,65,70,40
241.63637,241.78828,65,70,40
241.8447,241.99661,64,70,40
242.05304,242.20494,67,70,40
242.26137,242.41328,67,70,40
242.67804,242.82994,65,72,40
242.88637,243.03827,65,75,40
243.30304,243.45494,65,81,40
243.51137,243.66327,65,84,40
243.92802,244.07994,65,89,40
244.13637,244.28827,65,92,40
244.55898,244.71983,65,98,40
244.77957,244.94785,65,100,40
245.01035,245.4451,65,100,40
245.65778,245.76195,77,125,40
245.76195,245.83572,76,115,40
245.8661,245.9399,74,105,40
245.97028,246.04405,73,100,40
246.07445,246.14822,71,100,40
246.1786,246.2524,74,100,40
246.28278,246.6951,68,100,40
247.7411,247.89302,60,81,40
247.94943,248.10135,60,83,40
248.3661,248.51802,60,87,40
248.57443,248.72635,60,89,40
248.99706,249.1533,60,93,40
249.21133,249.3722,60,95,40
249.65251,249.82079,60,99,40
249.88329,250.06558,60,100,40
250.13329,251.62894,60,110,40
251.63329,251.83728,72,110,40
251.84161,252.04561,71,110,40
252.04996,252.25394,69,110,40
252.25829,252.46228,71,110,40
252.46661,252.67061,72,110,40
252.67494,253.08728,71,110,40
253.29994,253.92061,71,70,40
253.92494,254.54561,69,70,40
254.54994,255.17061,68,70,40
255.17494,255.32686,69,70,40
255.38327,255.53519,64,70,40
255.59161,255.74352,64,70,40
255.79994,255.95186,76,70,40
256.00827,256.1602,64,70,40
256.2166,256.36853,64,70,40
256.42496,256.57684,74,70,40
256.63327,256.7852,64,70,40
256.8416,256.99353,64,70,40
257.04993,257.20184,72,70,40
257.25827,257.4102,64,70,40
257.4666,257.61853,64,70,40
257.67493,258.08728,68,70,40
258.29993,258.9206,71,70,40
258.92493,259.5456,69,70,40
259.54993,260.1706,68,70,40
260.17493,260.32684,69,70,40
260.38327,260.5352,64,70,40
260.5916,260.7435,64,70,40
260.79993,260.95184,76,70,40
261.00827,261.1602,64,70,40
261.2166,261.3685,64,70,40
261.42493,261.57684,74,70,40
261.63327,261.7852,64,70,40
261.8416,261.9935,64,70,40
262.04993,262.20184,72,70,40
262.25827,262.4102,64,70,40
262.4666,262.6185,64,70,40
262.67493,263.08725,68,70,40
264.54993,264.96225,64,50,40
264.96658,265.1706,62,50,40
265.17493,266.21225,61,50,40
266.21658,266.28604,61,50,40
266.28604,266.35547,62,50,40
266.35547,266.4206,64,50,40
266.42493,266.83725,66,50,40
266.84158,267.0456,64,50,40
267.04993,267.46225,62,50,40
267.46658,267.6706,61,50,40
267.67493,268.71225,59,50,40
268.71658,268.78604,56,50,40
268.78604,268.85547,57,50,40
268.85547,268.92493,59,50,40
268.92493,269.96225,61,50,40
269.96658,270.03604,61,71,40
270.03604,270.10547,62,73,40
270.10547,270.17493,64,74,40
270.17493,270.58725,64,76,40
270.59158,270.7956,62,84,40
270.79993,271.21225,61,89,40
271.21658,271.4206,59,98,40
271.42493,272.67056,61,110,40
272.67493,273.5039,62,110,40
273.50824,273.66016,71,110,40
273.71658,273.8685,71,110,40
273.92493,274.33725,69,110,40
274.54993,274.96225,64,70,40
275.79993,276.21225,64,90,40
277.0499,277.46225,64,90,40
278.9715,280.2396,66,70,40
280.24393,282.1146,68,70,40
282.11893,283.3646,69,70,40
283.36893,283.9896,67,70,40
283.99393,285.2396,66,70,40
285.24393,286.4896,68,70,40
286.49393,286.90625,69,70,40
287.95227,288.10416,64,70,40
288.16058,288.3125,64,70,40
289.20227,289.35416,61,70,40
289.41058,289.5625,61,70,40
290.45224,290.60416,62,70,40
290.66058,290.8125,62,70,40
291.07724,291.22916,64,70,40
291.28558,291.4375,64,70,40
291.70224,291.85416,57,70,40
291.91058,292.0625,57,70,40
292.95224,293.10416,66,71,40
293.16058,293.3125,66,73,40
293.57724,293.72916,67,77,40
293.78558,293.9375,67,79,40
294.20224,294.35416,68,82,40
294.41058,294.5625,68,84,40
294.82724,294.97916,69,88,40
295.03558,295.1875,69,90,40
295.45224,295.60416,70,93,40
295.66058,295.8125,70,95,40
296.07724,296.22916,71,99,40
296.28558,296.4375,71,100,40
296.70224,296.85416,62,110,40
296.91058,297.0625,62,110,40
297.32724,297.47916,64,110,40
297.53558,297.6875,64,110,40
297.95224,298.10416,71,70,40
298.16058,298.31247,71,70,40
298.57724,298.72916,72,70,40
298.78558,298.93747,72,70,40
299.20224,299.35416,64,110,40
299.41058,299.56247,64,110,40
299.82724,299.97916,65,110,40
300.03558,300.18747,65,110,40
300.45224,300.60416,60,70,40
300.66058,300.81247,60,70,40
301.07724,301.22916,60,70,40
301.28558,301.43747,60,70,40
301.70224,301.85416,60,70,40
301.91058,302.06247,60,70,40
302.32724,302.47916,60,70,40
302.53555,302.68747,60,70,40
302.7439,303.15622,59,70,40
304.20224,304.40622,73,70,40
304.41055,304.61456,71,70,40
304.6189,304.82288,73,70,40
304.82724,305.03122,69,70,40
305.03555,305.23956,71,70,40
305.2439,305.65622,71,70,40
306.70224,306.90622,73,88,40
306.91055,307.11456,71,91,40
307.1189,307.32288,73,94,40
307.32724,307.47913,69,96,40
307.53555,307.68747,69,99,40
307.7439,308.15622,68,110,40
308.37485,308.8151,68,110,40
309.0699,309.5647,68,110,40
310.30066,310.46893,64,70,40
310.53143,310.7574,72,70,40
310.99298,311.16125,68,70,40
311.22375,311.4497,69,70,40
311.68527,311.85355,64,70,40
311.91605,312.37277,65,90,40
312.3776,312.49298,67,70,40
312.49298,312.60837,65,70,40
312.60837,312.83432,64,70,40
313.30066,313.72476,64,70,40
313.72925,313.93906,68,70,40
313.9435,314.3676,69,70,40
314.3721,314.5819,71,70,40
314.58636,315.0105,71,70,40
315.01495,315.22476,69,70,40
315.22925,315.65335,68,70,40
315.8721,316.2962,60,70,40
316.30066,316.5105,62,70,40
316.51495,316.72476,64,70,40
316.9435,317.15335,67,70,40
317.1578,317.5819,65,70,40
317.58636,317.7962,68,70,40
317.80066,318.01047,69,70,40
318.22922,318.38547,77,70,40
318.4435,318.65335,77,70,40
318.6578,318.81406,76,70,40
318.8721,319.02835,74,70,40
319.08636,319.2962,74,70,40
319.30066,319.46152,72,70,40
319.52124,319.6895,71,70,40
319.752,320.4968,71,70,40
320.502,320.9968,72,70,40
321.002,321.22797,64,110,40
321.2328,321.45874,72,70,40
321.69434,321.86258,68,70,40
321.92508,322.15106,69,70,40
322.38663,322.5549,64,70,40
322.6174,323.07413,65,90,40
323.07895,323.19434,67,70,40
323.19434,323.3097,65,70,40
323.3097,323.53568,64,70,40
323.77124,323.9972,76,70,40
324.002,324.42612,76,70,40
324.43057,324.6404,80,70,40
324.64487,325.06897,81,70,40
325.07343,325.28326,83,70,40
325.28772,325.71182,83,70,40
325.7163,325.92612,81,70,40
325.93057,326.35468,80,70,40
326.57343,326.99756,73,50,40
327.002,327.21182,74,50,40
327.2163,327.43228,76,50,40
327.65747,327.88342,69,50,40
327.88824,329.28198,69,50,40
332.5049,332.7089,73,50,40
332.71323,333.12555,74,50,40
333.1299,333.75055,74,50,40
333.7549,333.9589,73,50,40
333.96323,334.37555,71,50,40
334.3799,334.5839,68,50,40
334.58823,335.00055,69,50,40
335.0049,335.2089,71,50,40
335.21323,335.36514,73,50,40
335.42157,335.5735,71,50,40
335.62988,335.7818,69,50,40
335.83823,336.04224,68,50,40
336.25488,336.4068,66,50,40
336.46323,336.87555,64,50,40
337.08823,337.50055,71,50,40
337.50488,337.7089,73,50,40
337.71323,337.86514,74,50,40
337.92157,338.07346,73,50,40
338.12988,338.2818,71,50,40
338.33823,338.5422,69,50,40
338.75488,338.9068,68,50,40
338.96323,339.37555,66,50,40
339.58823,340.00055,73,50,40
340.00488,340.1568,75,50,40
340.21323,340.36514,76,50,40
340.42157,340.57346,75,70,40
340.62988,340.7818,73,90,40
340.83823,341.0422,74,110,40
341.04657,341.19846,68,110,40
341.25488,341.4068,69,110,40
341.46323,341.61514,71,110,40
341.67154,341.82346,73,110,40
341.87988,342.0318,74,95,40
342.08823,342.24014,76,70,40
342.29654,342.50055,76,70,40
342.50488,342.7089,73,70,40
342.92154,343.12555,78,70,40
343.12988,343.3339,74,70,40
343.54654,343.75055,73,70,40
343.75488,343.95886,69,70,40
344.17154,344.37555,71,70,40
344.37988,344.58386,68,70,40
344.58823,344.7401,69,110,40
344.79654,344.94846,69,110,40
345.00488,345.1568,71,110,40
345.21323,345.3651,73,110,40
345.42154,345.57346,71,110,40
345.62988,345.7818,69,110,40
345.83823,346.0422,68,110,40
346.25488,346.4068,66,110,40
346.46323,346.87555,64,110,40
347.08823,347.50055,71,127,40
347.50488,347.6568,73,110,40
347.71323,347.8651,74,110,40
347.92154,348.07346,73,110,40
348.12988,348.2818,71,110,40
348.3382,348.5422,69,110,40
348.75488,348.9068,68,110,40
348.9632,349.37555,66,110,40
349.5882,350.00052,73,125,40
350.00488,350.20886,75,110,40
350.2132,350.4172,76,110,40
350.42154,350.62552,75,110,40
350.62988,350.83386,73,110,40
350.8382,351.25052,74,120,40
351.25488,351.40677,73,100,40
351.4632,351.6151,71,100,40
351.67154,351.82346,69,100,40
351.87988,352.03177,68,100,40
352.0882,352.50052,74,120,40
352.50488,352.65677,73,100,40
352.7132,352.8651,71,100,40
352.92154,353.07346,69,100,40
353.12988,353.28177,68,100,40
353.3382,353.4901,74,125,40
353.54654,353.69846,74,100,40
353.75488,353.90677,73,100,40
353.9632,354.1151,71,100,40
354.17154,354.32346,69,100,40
354.37985,354.53177,68,100,40
354.5882,354.7401,69,100,40
354.79654,355.00052,69,100,40
355.00485,355.20886,81,100,40
355.42154,355.62552,69,100,40
355.62985,355.83386,81,100,40
356.04654,356.25052,69,100,40
356.25485,356.45886,81,100,40
356.67154,356.87552,69,100,40
356.87985,357.08386,81,100,40
357.0882,357.91718,61,115,40
357.92154,358.07343,62,100,40
358.12985,358.28177,62,100,40
358.3382,358.75052,61,100,40
359.5882,360.41718,61,115,40
360.42154,360.57343,62,100,40
360.62985,360.78177,62,100,40
360.8382,361.25052,61,100,40
362.0882,362.91718,61,115,40
362.9215,363.07776,62,100,40
363.1358,363.29904,62,100,40
363.35968,363.8028,61,100,40
366.08615,366.9388,73,110,40
366.9433,367.09955,74,70,40
367.15756,367.3138,76,70,40
367.37186,367.5281,69,70,40
367.58615,367.7424,70,70,40
367.80045,367.9567,71,70,40
368.0147,368.22455,69,70,40
368.229,368.38525,71,70,40
368.4433,368.59955,68,70,40
368.65756,369.0817,69,70,40
369.30045,369.72455,57,70,40
369.729,369.9388,57,77,40
369.9433,370.37988,57,81,40
370.38446,370.60046,57,89,40
370.60504,371.06177,57,93,40
371.0666,371.31137,57,100,40
371.3166,372.16928,79,110,40
372.17374,372.33,78,110,40
372.38803,372.54428,78,110,40
372.6023,372.75854,78,110,40
372.8166,372.97284,76,110,40
373.03088,373.18713,74,110,40
373.24515,373.455,73,110,40
373.45944,373.6157,74,110,40
373.67374,373.83,74,90,40
373.88803,374.09784,73,70,40
374.1023,374.3063,61,70,40
374.31064,374.51462,64,70,40
374.7273,374.9313,62,70,40
374.93564,375.13962,64,70,40
375.3523,375.5563,69,70,40
375.56064,375.76462,73,70,40
375.9773,376.1813,71,70,40
376.18564,376.38962,74,70,40
376.6023,376.8063,61,70,40
376.81064,377.01462,64,70,40
377.2273,377.43127,62,70,40
377.43564,377.63962,64,70,40
377.8523,378.05627,69,70,40
378.06064,378.26462,73,70,40
378.4773,378.68127,71,70,40
378.68564,378.88962,74,70,40
379.1023,379.30627,69,73,40
379.31064,379.51462,73,77,40
379.7273,379.93127,69,85,40
379.93564,380.13962,73,89,40
380.14395,380.55627,69,110,40
380.76895,380.87314,69,110,40
380.87314,380.9773,71,110,40
380.9773,381.08145,73,110,40
381.08145,381.18564,74,110,40
381.18564,381.2898,76,95,40
381.2898,381.39395,73,80,40
381.39395,381.54587,69,70,40
381.6023,381.7542,71,70,40
381.8106,381.96252,73,70,40
382.64395,382.79587,73,70,40
382.8523,383.0042,74,70,40
383.0606,383.21252,76,70,40
383.89395,384.04587,69,70,40
384.1023,384.25418,71,72,40
384.3106,384.46252,73,75,40
384.51895,384.67087,73,77,40
384.7273,384.87918,74,80,40
384.9356,385.09186,76,82,40
385.1499,385.30615,76,85,40
385.3642,385.52502,78,88,40
385.58478,385.74564,80,90,40
385.80536,386.2809,81,93,40
387.48615,387.98093,64,110,40
387.48615,387.98093,74,110,40
388.23615,388.9757,64,110,40
388.23615,388.9757,73,110,40
0.0,0.20399272,57,1,41
0.624999,1.0373248,61,70,41
1.874997,2.2873228,61,90,41
3.124995,3.5373206,61,90,41
5.031486,6.2830963,62,70,41
6.2874365,8.158093,59,70,41
8.162434,9.408092,61,70,41
9.412432,10.033091,61,70,41
10.037431,11.283089,62,70,41
11.287429,12.586549,59,70,41
12.591356,13.048087,61,70,41
14.140805,14.297055,52,70,41
14.355091,14.511341,52,70,41
15.426518,15.582768,49,70,41
15.640804,15.797054,49,70,41
16.71223,16.86848,50,70,41
16.926517,17.082767,50,70,41
17.355087,17.511337,52,70,41
17.569374,17.725624,52,70,41
17.997944,18.154194,57,70,41
18.21223,18.36848,57,70,41
19.283657,19.439907,52,70,41
19.497944,19.654192,52,70,41
20.56937,20.72562,49,70,41
20.783655,20.939905,49,70,41
21.212227,21.368477,55,70,41
21.426512,21.582762,55,70,41
21.855083,22.011333,54,70,41
22.069368,22.230215,54,70,41
22.510546,22.678814,53,70,41
22.741314,22.923605,53,70,41
22.991314,25.124226,52,70,41
25.128567,25.33256,57,70,41
25.336899,25.540892,57,70,41
25.545233,25.957558,56,70,41
26.17023,26.999222,52,78,41
27.003563,27.207556,64,88,41
27.211897,27.415888,64,91,41
27.420229,27.624222,64,94,41
27.628563,27.832554,57,96,41
27.836895,28.040888,59,99,41
28.045227,28.457554,59,110,41
28.67618,29.106457,59,110,41
29.341822,29.798552,59,110,41
30.495667,30.663937,59,70,41
30.726437,30.952396,67,70,41
31.187975,31.356243,63,70,41
31.418743,31.644705,64,70,41
31.880281,32.04855,59,70,41
32.11105,32.56778,60,90,41
32.57259,32.683167,62,70,41
32.687973,32.79855,60,70,41
32.803356,33.02932,59,70,41
36.14563,37.212593,59,70,41
37.217056,37.426876,64,70,41
37.431343,38.498306,64,70,41
39.145626,39.355446,64,70,41
39.359913,39.569733,64,70,41
39.574196,39.730446,62,70,41
39.788483,39.95173,60,70,41
40.012363,40.710606,60,70,41
40.71549,40.94498,59,70,41
41.18424,41.355137,59,110,41
41.418613,41.63783,67,110,41
41.866375,42.02962,63,110,41
42.090256,42.30947,64,110,41
42.538017,42.701263,59,110,41
42.761894,43.204994,60,110,41
43.209656,43.321598,62,110,41
43.321598,43.433537,60,110,41
43.433537,43.652752,59,110,41
43.881298,43.99324,71,70,41
43.99324,44.10518,69,70,41
44.10518,44.529285,67,70,41
44.53375,44.743572,66,70,41
44.748035,45.172142,64,70,41
45.176605,45.392597,63,70,41
45.397194,45.853924,64,70,41
45.858734,46.084694,58,70,41
46.0895,46.54623,59,70,41
46.781807,47.86275,71,50,41
47.867313,48.093273,71,50,41
48.098083,49.491833,76,50,41
52.089745,52.29374,68,50,41
52.298077,52.710403,69,50,41
52.714745,52.918736,65,50,41
52.923077,53.335403,66,50,41
53.339745,53.960403,66,50,41
53.96474,54.168736,64,50,41
54.173077,54.5854,61,50,41
54.58974,54.793736,57,50,41
54.798073,55.2104,56,50,41
56.048073,56.4604,59,50,41
56.464737,56.66873,61,50,41
56.673073,56.82498,62,50,41
56.881405,57.033314,61,50,41
57.089737,57.241646,59,50,41
57.29807,57.502064,57,50,41
57.714737,57.866646,56,50,41
57.92307,58.335396,54,50,41
58.54807,58.960396,61,50,41
58.964733,59.168728,63,50,41
59.17307,59.324978,64,50,41
59.3814,59.53331,63,50,41
59.589733,59.741642,61,50,41
59.798065,60.00206,59,50,41
60.214733,60.366642,58,50,41
60.423065,60.835392,56,50,41
61.048065,61.460392,59,100,41
61.46473,61.61664,59,100,41
61.673065,61.824974,59,100,41
61.881397,62.033306,59,100,41
62.08973,62.24164,59,100,41
62.29806,62.502056,59,70,41
62.506397,62.71039,56,70,41
62.92306,63.127056,61,70,41
63.131393,63.33539,64,70,41
63.54806,63.752052,52,70,41
63.756393,63.960384,56,70,41
64.17306,64.37705,54,70,41
64.38139,64.58539,57,70,41
64.79806,65.21038,56,100,41
66.04806,66.46038,59,126,41
66.46472,66.61663,61,100,41
66.67306,66.82497,62,100,41
66.881386,67.033295,61,100,41
67.08972,67.24163,59,100,41
67.29806,67.502045,57,100,41
67.71472,67.86663,56,100,41
67.92305,68.33538,54,100,41
68.54805,68.96038,61,125,41
68.96472,69.11663,63,100,41
69.17305,69.32496,64,100,41
69.381386,69.533295,63,100,41
69.589714,69.74163,61,100,41
69.79805,70.002045,59,100,41
70.214714,70.36662,58,100,41
70.42305,70.83537,56,100,41
71.04805,71.46037,66,120,41
71.464714,71.61662,64,100,41
71.67305,71.82496,63,100,41
71.88138,72.03329,61,100,41
72.089714,72.24162,59,100,41
72.29805,72.50204,66,120,41
72.714714,72.86662,64,100,41
72.92304,73.07495,63,100,41
73.13138,73.28329,61,100,41
73.339714,73.49162,59,100,41
73.54804,73.75204,63,120,41
73.75638,73.96037,63,100,41
73.964714,74.1687,64,100,41
74.17304,74.37704,66,100,41
74.38138,74.58537,68,100,41
74.58971,74.7937,69,100,41
74.79804,75.210365,59,100,41
75.42304,75.835365,64,100,41
76.04804,76.460365,64,100,41
76.67304,77.085365,64,100,41
77.29804,78.12703,64,120,41
78.13137,78.28328,66,100,41
78.33971,78.491615,66,100,41
78.548035,78.960365,64,100,41
79.798035,80.62703,64,120,41
80.63136,80.78328,66,100,41
80.8397,80.99161,66,100,41
81.048035,81.46036,64,100,41
82.29803,83.12702,64,120,41
83.13136,83.28761,66,100,41
83.34565,83.50649,66,100,41
83.56624,84.002815,64,100,41
84.228,84.44399,64,70,41
84.669174,84.830025,64,70,41
84.88976,85.32635,64,70,41
85.33094,85.546936,64,70,41
85.55153,86.008255,64,70,41
86.01307,86.25786,64,70,41
86.26307,87.115746,64,100,41
87.12021,87.27646,64,70,41
87.334496,87.490746,64,70,41
87.54878,87.70503,64,70,41
87.76306,87.91931,61,70,41
87.97735,88.1336,61,70,41
88.191635,88.347885,59,70,41
88.40592,88.56217,59,70,41
88.62021,88.77646,59,70,41
88.834496,89.2586,59,70,41
89.47735,89.90146,52,70,41
89.90592,90.11574,52,77,41
90.12021,90.556786,52,81,41
90.56138,90.777374,52,89,41
90.78197,91.2387,52,93,41
91.24351,91.4883,52,100,41
91.49351,92.34618,68,110,41
92.35065,92.5069,68,110,41
92.56493,92.72118,68,110,41
92.77922,92.989044,61,110,41
92.99351,93.20332,61,110,41
93.207794,93.41761,61,110,41
93.42207,93.6319,59,110,41
93.63636,93.84618,59,110,41
93.85065,94.06047,59,110,41
94.06493,94.271904,59,70,41
94.276245,94.48023,52,70,41
94.48457,94.68857,56,70,41
94.90124,95.10523,54,70,41
95.10957,95.31357,57,70,41
95.52624,95.73023,56,70,41
95.73457,95.93857,59,70,41
96.15124,96.35523,57,70,41
96.35957,96.56357,59,70,41
96.77624,96.98023,52,70,41
96.98457,97.18856,56,70,41
97.40124,97.60523,54,70,41
97.60957,97.81356,57,70,41
98.02624,98.23023,56,70,41
98.234566,98.43856,59,70,41
98.65124,98.855225,57,70,41
98.859566,99.06356,59,70,41
99.27624,99.480225,56,70,41
99.484566,99.68856,59,70,41
99.90123,100.105225,56,70,41
100.109566,100.31356,59,70,41
100.3179,100.730225,56,70,41
102.192894,102.605225,61,70,41
103.442894,103.85522,61,90,41
104.692894,105.10522,61,90,41
106.589386,107.85059,62,70,41
107.854935,109.72559,59,70,41
109.729935,110.975586,61,70,41
110.97993,111.600586,61,70,41
111.60493,112.850586,62,70,41
112.85493,114.13446,59,70,41
114.13927,114.55159,61,70,41
115.597595,115.749504,52,70,41
115.80593,115.95784,52,70,41
116.847595,116.999504,49,70,41
117.05593,117.20784,49,70,41
118.097595,118.249504,50,70,41
118.30592,118.45783,50,70,41
118.722595,118.874504,52,70,41
118.93092,119.08283,52,70,41
119.34759,119.4995,57,70,41
119.55592,119.70783,57,70,41
120.59759,120.7495,52,70,41
120.80592,120.95783,52,70,41
121.84759,121.9995,49,70,41
122.05592,122.20783,49,70,41
122.47259,122.6245,55,70,41
122.680916,122.832825,55,70,41
123.10354,123.25979,54,70,41
123.317825,123.47867,54,70,41
123.758995,123.92727,53,70,41
123.98977,124.17206,53,70,41
124.23977,126.33101,52,70,41
126.33535,126.539345,57,70,41
126.543686,126.74768,57,70,41
126.75202,127.164345,56,70,41
127.377014,128.20601,52,78,41
128.21034,128.41434,64,88,41
128.41869,128.62268,64,91,41
128.62701,128.83101,64,94,41
128.83534,129.03934,57,96,41
129.04369,129.24768,59,99,41
129.25201,129.67612,59,110,41
129.90117,130.34772,59,110,41
130.60252,131.09732,59,110,41
131.85252,132.03482,59,70,41
132.10252,132.32849,67,70,41
132.56407,132.73233,63,70,41
132.79483,133.0208,64,70,41
133.25638,133.42465,59,70,41
133.48715,133.94388,60,90,41
133.94868,134.05927,62,70,41
134.06407,134.17464,60,70,41
134.17946,134.40541,59,70,41
137.52173,138.60416,59,70,41
138.60867,138.82153,64,70,41
138.82607,139.9085,64,70,41
140.5652,140.78441,64,70,41
140.78908,141.0083,64,70,41
141.01295,141.17621,62,70,41
141.23683,141.4051,60,70,41
141.4676,142.17693,60,70,41
142.1819,142.41502,59,70,41
142.65808,142.8317,59,110,41
142.89618,143.11539,67,110,41
143.34393,143.50719,63,110,41
143.56783,143.78703,64,110,41
144.01558,144.17883,59,110,41
144.23946,144.68256,60,110,41
144.68723,144.79916,62,110,41
144.79916,144.9111,60,110,41
144.9111,145.13033,59,110,41
145.35886,145.47081,71,70,41
145.47081,145.58275,69,70,41
145.58275,146.00685,67,70,41
146.01132,146.22113,66,70,41
146.2256,146.6497,64,70,41
146.65417,146.864,63,70,41
146.86845,147.29256,64,70,41
147.29703,147.50685,58,70,41
147.5113,147.93542,59,70,41
148.16048,149.27896,71,50,41
149.28377,149.5169,71,50,41
149.52187,150.91562,76,50,41
153.51353,153.71753,68,50,41
153.72186,154.13419,69,50,41
154.13853,154.34253,65,50,41
154.34686,154.75919,66,50,41
154.76353,155.38419,66,50,41
155.38853,155.59253,64,50,41
155.59686,156.00919,61,50,41
156.01353,156.21751,57,50,41
156.22186,156.63419,56,50,41
157.47186,157.88419,59,50,41
157.88852,158.09251,61,50,41
158.09686,158.24876,62,50,41
158.30519,158.4571,61,50,41
158.51352,158.66544,59,50,41
158.72186,158.92586,57,50,41
159.13852,159.29044,56,50,41
159.34686,159.75919,54,50,41
159.97186,160.38419,61,50,41
160.38852,160.59251,63,50,41
160.59685,160.74876,64,50,41
160.80519,160.95709,63,50,41
161.01352,161.16544,61,50,41
161.22185,161.42584,59,50,41
161.63852,161.79044,58,50,41
161.84685,162.25919,56,50,41
162.47185,162.88417,59,100,41
162.88852,163.04042,59,100,41
163.09685,163.24876,59,100,41
163.30519,163.45709,59,100,41
163.51352,163.66542,59,100,41
163.72185,163.92584,59,70,41
163.93018,164.13417,56,70,41
164.34685,164.55084,61,70,41
164.55518,164.765,64,70,41
164.98375,165.19974,52,70,41
165.20435,165.42033,56,70,41
165.64552,165.86151,54,70,41
165.8661,166.09207,57,70,41
166.32764,166.75175,56,100,41
167.61336,168.03746,59,126,41
168.04193,168.19818,61,100,41
168.25621,168.41246,62,100,41
168.4705,168.62675,61,100,41
168.68478,168.84103,59,100,41
168.89906,169.10889,57,100,41
169.32764,169.48389,56,100,41
169.54193,169.96603,54,100,41
170.18478,170.60889,61,125,41
170.61336,170.7696,63,100,41
170.82764,170.98389,64,100,41
171.04193,171.19818,63,100,41
171.25621,171.41246,61,100,41
171.47049,171.68031,59,100,41
171.89906,172.05531,58,100,41
172.11336,172.53746,56,100,41
172.75621,173.18031,66,120,41
173.18478,173.34103,64,100,41
173.39906,173.55531,63,100,41
173.61334,173.76959,61,100,41
173.82764,173.98389,59,100,41
174.04192,174.25174,66,120,41
174.47049,174.62674,64,100,41
174.68478,174.84103,63,100,41
174.89906,175.05531,61,100,41
175.11334,175.26959,59,100,41
175.32764,175.53746,63,120,41
175.54192,175.75174,63,100,41
175.75621,175.96602,64,100,41
175.97049,176.18031,66,100,41
176.18477,176.39459,68,100,41
176.39906,176.60889,69,100,41
176.61334,177.03746,59,100,41
177.25621,177.68031,64,100,41
177.89906,178.32317,64,100,41
178.54192,178.96602,64,100,41
179.18477,180.03745,64,120,41
180.04192,180.19817,66,100,41
180.2562,180.41245,66,100,41
180.47049,180.88876,64,100,41
181.72644,182.55544,64,120,41
182.55977,182.71169,66,100,41
182.7681,182.92001,66,100,41
182.97644,183.38876,64,100,41
184.22643,185.05542,64,120,41
185.05977,185.21167,66,100,41
185.2681,185.42001,66,100,41
185.47643,185.88876,64,100,41
186.10143,186.31125,64,70,41
186.53,186.68625,64,70,41
186.7443,187.18086,64,70,41
187.18546,187.40146,64,70,41
187.40605,187.86278,64,70,41
187.86758,188.11238,64,70,41
188.11758,188.97026,64,100,41
188.97473,189.13098,64,70,41
189.18901,189.34526,64,70,41
189.4033,189.55956,64,70,41
189.61758,189.77383,61,70,41
189.83188,189.98813,61,70,41
190.04616,190.20241,59,70,41
190.26044,190.41669,59,70,41
190.47473,190.63098,59,70,41
190.68901,191.11311,59,70,41
191.33186,191.75598,52,70,41
191.76044,191.97026,52,77,41
191.97473,192.4113,52,81,41
192.41591,192.6319,52,89,41
192.63649,193.09322,52,93,41
193.09802,193.34282,52,100,41
193.34802,194.2007,68,110,41
194.20517,194.36142,68,110,41
194.41945,194.5757,68,110,41
194.63374,194.84357,61,110,41
194.84802,195.05785,61,110,41
195.06232,195.27214,61,110,41
195.2766,195.48642,59,110,41
195.49089,195.7007,59,110,41
195.70517,195.915,59,110,41
195.91945,196.12927,59,70,41
196.13374,196.33774,52,70,41
196.34207,196.54607,56,70,41
196.75874,196.96274,54,70,41
196.96707,197.17107,57,70,41
197.38374,197.58774,56,70,41
197.59207,197.79607,59,70,41
198.00874,198.21272,57,70,41
198.21707,198.42107,59,70,41
198.63374,198.83772,52,70,41
198.84207,199.04607,56,70,41
199.25873,199.46272,54,70,41
199.46707,199.67107,57,70,41
199.88373,200.08772,56,70,41
200.09207,200.29607,59,70,41
200.50873,200.71272,57,70,41
200.71707,200.92107,59,70,41
201.13373,201.33772,56,70,41
201.34207,201.54605,59,70,41
201.75873,201.96272,56,70,41
201.96707,202.17105,59,70,41
202.1754,202.58772,56,70,41
204.0504,204.46272,49,70,41
204.46706,204.67105,49,77,41
204.6754,205.0995,49,81,41
205.10396,205.31378,49,89,41
205.31825,205.75484,49,93,41
205.75943,205.98538,49,100,41
205.99019,206.81918,56,110,41
206.82353,206.97543,57,110,41
207.03186,207.18378,59,110,41
207.24019,207.65251,61,110,41
208.49019,209.31918,62,110,41
209.32352,209.47543,61,110,41
209.53186,209.68376,59,110,41
209.74019,210.15251,57,110,41
210.99019,211.81918,70,110,41
211.82352,211.97977,69,80,41
212.03781,212.20607,67,80,41
212.26857,212.7253,66,80,41
213.65318,214.48218,61,50,41
214.48653,214.63843,62,50,41
214.69485,214.84676,64,50,41
214.90318,215.10718,66,50,41
215.11151,215.3155,62,50,41
215.52818,215.73218,59,50,41
215.73651,215.9405,62,50,41
216.15318,216.35718,50,50,41
216.36151,216.5655,54,50,41
216.77818,216.98218,52,50,41
216.98651,217.1905,55,50,41
217.40318,218.23218,50,50,41
218.23651,218.4405,57,50,41
218.44484,218.64883,54,50,41
218.65318,219.48218,50,50,41
219.48651,219.6905,60,50,41
219.69484,219.89883,57,50,41
219.90318,220.73216,50,50,41
220.73651,220.9405,59,50,41
220.94484,221.14883,55,50,41
221.15317,221.98216,50,50,41
221.98651,222.1905,57,50,41
222.19484,222.39883,55,50,41
222.40317,222.60716,50,50,41
222.61151,222.8155,57,50,41
222.81984,223.02383,55,50,41
223.02817,223.23216,50,50,41
223.23651,223.44049,57,50,41
223.44484,223.64883,54,50,41
223.65317,224.48216,50,50,41
224.4865,224.69049,60,50,41
224.69484,224.89883,57,50,41
224.90317,225.73216,50,50,41
225.7365,225.94049,59,50,41
225.94484,226.14883,55,50,41
226.15317,226.35716,50,50,41
226.3615,226.56549,57,50,41
226.56984,226.77382,55,50,41
226.77817,226.98216,50,50,41
226.9865,227.19049,57,50,41
227.19484,227.39882,55,50,41
227.40317,227.81549,54,50,41
228.02817,228.13232,62,70,41
228.13232,228.2365,64,70,41
228.2365,228.34067,66,70,41
228.34067,228.44482,67,70,41
228.44482,228.549,69,70,41
228.549,228.65317,66,70,41
228.65317,229.06549,67,70,41
229.27817,229.38232,57,70,41
229.38232,229.4865,59,70,41
229.4865,229.59067,61,70,41
229.59067,229.69482,62,70,41
229.69482,229.799,64,70,41
229.799,229.90317,61,70,41
229.90317,230.31549,62,70,41
230.52817,230.63232,50,110,41
230.63232,230.7365,52,110,41
230.7365,230.84065,54,110,41
230.84065,230.94482,55,110,41
230.94482,231.049,57,110,41
231.049,231.15315,54,110,41
231.15315,231.56549,55,110,41
231.77815,232.19049,57,110,41
232.40315,232.83998,50,110,41
236.21971,236.32388,57,70,41
236.32388,236.42804,59,70,41
236.42804,236.53221,61,70,41
236.53221,236.63638,62,70,41
236.63638,236.74054,64,70,41
236.74054,236.84471,61,70,41
236.84471,237.25703,67,70,41
237.46971,237.57387,65,70,41
237.57387,237.67804,69,70,41
237.67804,237.78221,65,70,41
237.78221,237.88637,62,70,41
237.88637,237.99054,57,70,41
237.99054,238.09471,53,70,41
238.09471,238.50703,50,70,41
242.67804,242.82994,62,72,41
242.88637,243.03827,62,75,41
243.30304,243.45494,62,81,41
243.51137,243.66327,62,84,41
243.92802,244.07994,62,89,41
244.13637,244.28827,62,92,41
244.55898,244.71983,62,98,41
244.77957,244.94785,62,100,41
245.01035,245.4451,62,100,41
246.28278,246.38695,65,125,41
246.38695,246.46072,64,115,41
246.4911,246.5649,62,105,41
246.59528,246.66905,60,100,41
246.69943,246.77322,59,100,41
246.8036,246.8774,62,100,41
246.90778,247.3201,56,100,41
247.7411,247.89302,57,81,41
247.94943,248.10135,57,83,41
248.3661,248.51802,57,87,41
248.57443,248.72635,57,89,41
248.99706,249.1533,57,93,41
249.21133,249.3722,57,95,41
249.65251,249.82079,57,99,41
249.88329,250.06558,57,100,41
250.13329,251.62894,57,110,41
251.63329,251.83728,66,110,41
251.84161,252.04561,66,110,41
252.04996,252.25394,66,110,41
252.25829,252.46228,66,110,41
252.46661,252.67061,66,110,41
252.67494,253.08728,68,110,41
255.79994,257.25394,52,70,41
257.25827,257.46228,57,70,41
257.4666,257.6706,60,70,41
257.67493,258.08728,64,70,41
260.79993,262.25394,52,70,41
262.25827,262.46225,57,70,41
262.4666,262.6706,60,70,41
262.67493,263.08725,64,70,41
265.17493,267.0456,54,50,41
267.04993,268.2956,59,50,41
268.29993,269.5456,52,50,41
269.54993,270.7956,57,63,41
270.79993,271.4206,57,89,41
271.42493,272.67056,57,110,41
272.67493,273.5039,59,110,41
273.50824,273.66016,62,110,41
273.71658,273.8685,62,110,41
273.92493,274.33725,61,110,41
274.54993,274.96225,61,70,41
275.79993,276.21225,61,90,41
277.0499,277.46225,61,90,41
278.9715,280.2396,62,70,41
280.24393,282.1146,59,70,41
282.11893,283.3646,61,70,41
283.36893,283.9896,61,70,41
283.99393,285.2396,62,70,41
285.24393,286.4896,59,70,41
286.49393,286.90625,61,70,41
287.95227,288.10416,52,70,41
288.16058,288.3125,52,70,41
289.20227,289.35416,49,70,41
289.41058,289.5625,49,70,41
292.95224,293.10416,54,71,41
293.16058,293.3125,54,73,41
293.57724,293.72916,55,77,41
293.78558,293.9375,55,79,41
294.20224,294.35416,56,82,41
294.41058,294.5625,56,84,41
294.82724,294.97916,57,88,41
295.03558,295.1875,57,90,41
295.45224,295.60416,58,93,41
295.66058,295.8125,58,95,41
296.07724,296.22916,59,99,41
296.28558,296.4375,59,100,41
296.70224,296.85416,59,110,41
296.91058,297.0625,59,110,41
297.32724,297.47916,60,110,41
297.53558,297.6875,60,110,41
297.95224,298.10416,59,70,41
298.16058,298.31247,59,70,41
298.57724,298.72916,60,70,41
298.78558,298.93747,60,70,41
299.20224,299.35416,61,110,41
299.41058,299.56247,61,110,41
299.82724,299.97916,62,110,41
300.03558,300.18747,62,110,41
300.45224,300.60416,57,70,41
300.66058,300.81247,57,70,41
301.07724,301.22916,57,70,41
301.28558,301.43747,57,70,41
301.70224,301.85416,57,70,41
301.91058,302.06247,57,70,41
302.32724,302.47916,57,70,41
302.53555,302.68747,57,70,41
302.7439,302.9479,56,70,41
302.95224,303.15622,52,70,41
303.16055,303.36456,52,70,41
303.3689,304.82288,52,70,41
304.82724,305.03122,57,70,41
305.03555,305.23956,57,70,41
305.2439,305.65622,56,70,41
305.8689,306.69788,52,78,41
306.70224,306.90622,64,88,41
306.91055,307.11456,64,91,41
307.1189,307.32288,64,94,41
307.32724,307.53122,57,96,41
307.53555,307.73956,59,99,41
307.7439,308.15622,59,110,41
308.37485,308.8151,59,110,41
309.0699,309.5647,59,110,41
310.30066,310.46893,52,70,41
310.53143,310.7574,60,70,41
310.99298,311.16125,56,70,41
311.22375,311.4497,57,70,41
311.68527,311.85355,52,70,41
311.91605,312.37277,53,90,41
312.3776,312.49298,55,70,41
312.49298,312.60837,53,70,41
312.60837,312.83432,52,70,41
315.8721,316.93906,64,70,41
316.9435,317.15335,64,70,41
317.1578,318.22476,69,70,41
318.8721,319.02835,69,70,41
319.08636,319.2962,69,70,41
319.30066,319.46152,67,70,41
319.52124,319.6895,65,70,41
319.752,320.4968,65,70,41
320.502,320.9968,64,70,41
321.002,321.22797,52,110,41
321.2328,321.45874,60,70,41
321.69434,321.86258,56,70,41
321.92508,322.15106,57,70,41
322.38663,322.5549,52,70,41
322.6174,323.07413,53,90,41
323.07895,323.19434,55,70,41
323.19434,323.3097,53,70,41
323.3097,323.53568,52,70,41
323.77124,323.88663,76,70,41
323.88663,324.002,74,70,41
324.002,324.42612,72,70,41
324.43057,324.6404,71,70,41
324.64487,325.06897,69,70,41
325.07343,325.28326,68,70,41
325.28772,325.71182,69,70,41
325.7163,325.92612,63,70,41
325.93057,326.35468,64,70,41
326.57343,327.65286,64,50,41
327.65747,327.88342,67,50,41
327.88824,328.38303,66,50,41
328.38824,328.68198,67,50,41
328.68823,329.28198,69,50,41
331.8799,332.0839,73,50,41
332.08823,332.50055,74,50,41
332.5049,332.7089,70,50,41
332.71323,333.12555,71,50,41
333.1299,333.75055,71,50,41
333.7549,333.9589,69,50,41
333.96323,334.37555,66,50,41
334.3799,334.5839,62,50,41
334.58823,335.00055,61,50,41
335.83823,336.25055,64,50,41
336.25488,336.4589,66,50,41
336.46323,336.61514,67,50,41
336.67157,336.8235,66,50,41
336.87988,337.0318,64,50,41
337.08823,337.2922,62,50,41
337.50488,337.6568,61,50,41
337.71323,338.12555,59,50,41
338.33823,338.75055,66,50,41
338.75488,338.9068,68,50,41
338.96323,339.11514,69,50,41
339.17157,339.32346,68,50,41
339.37988,339.5318,66,50,41
339.58823,339.7922,64,50,41
340.00488,340.1568,63,50,41
340.21323,340.62555,61,50,41
340.83823,340.99014,52,110,41
341.04657,341.19846,64,110,41
341.25488,341.4068,64,110,41
341.46323,341.61514,64,110,41
341.67154,341.82346,64,110,41
341.87988,342.0318,64,95,41
342.08823,342.2922,64,70,41
342.29654,342.50055,61,70,41
342.71323,342.9172,54,70,41
342.92154,343.12555,57,70,41
343.33823,343.5422,57,70,41
343.54654,343.75055,61,70,41
343.96323,344.1672,59,70,41
344.17154,344.37555,62,70,41
344.58823,345.00055,61,110,41
345.83823,346.25055,64,125,41
346.25488,346.4068,66,110,41
346.46323,346.6151,67,110,41
346.67154,346.82346,66,110,41
346.87988,347.0318,64,110,41
347.08823,347.2922,62,110,41
347.50488,347.6568,61,110,41
347.71323,348.12555,59,110,41
348.3382,348.75055,66,125,41
348.75488,348.9068,68,110,41
348.9632,349.1151,69,110,41
349.17154,349.32346,68,110,41
349.37988,349.5318,66,110,41
349.5882,349.7922,64,110,41
350.00488,350.15677,63,110,41
350.2132,350.62552,61,110,41
350.8382,351.25052,56,120,41
351.25488,351.40677,57,100,41
351.4632,351.6151,59,100,41
351.67154,351.82346,61,100,41
351.87988,352.03177,62,100,41
352.0882,352.50052,56,120,41
352.50488,352.65677,57,100,41
352.7132,352.8651,59,100,41
352.92154,353.07346,61,100,41
353.12988,353.28177,62,100,41
353.3382,353.4901,56,125,41
353.54654,353.69846,64,100,41
353.75488,353.90677,64,100,41
353.9632,354.1151,64,100,41
354.17154,354.32346,64,100,41
354.37985,354.53177,64,100,41
354.5882,355.00052,64,100,41
355.2132,355.62552,57,100,41
355.8382,356.25052,57,100,41
356.4632,356.87552,57,100,41
357.0882,357.91718,57,115,41
357.92154,358.07343,59,100,41
358.12985,358.28177,59,100,41
358.3382,358.75052,57,100,41
359.5882,360.41718,57,115,41
360.42154,360.57343,59,100,41
360.62985,360.78177,59,100,41
360.8382,361.25052,57,100,41
362.0882,362.91718,57,115,41
362.9215,363.07776,59,100,41
363.1358,363.29904,59,100,41
363.35968,363.8028,57,100,41
364.03134,364.47443,57,70,41
364.4791,364.6983,57,77,41
364.70297,365.14606,57,81,41
365.15073,365.36993,57,89,41
365.3746,365.83133,57,93,41
365.83615,366.08093,57,100,41
366.08615,366.9388,67,110,41
366.9433,367.09955,66,70,41
367.15756,367.3138,64,70,41
367.37186,367.5281,62,70,41
367.58615,367.7424,64,70,41
367.80045,367.9567,66,70,41
368.0147,368.17096,64,70,41
368.229,368.38525,64,70,41
368.4433,368.59955,64,70,41
368.65756,369.0817,64,70,41
369.30045,369.72455,57,70,41
369.729,369.9388,57,77,41
369.9433,370.37988,57,81,41
370.38446,370.60046,57,89,41
370.60504,371.06177,57,93,41
371.0666,371.31137,57,100,41
371.3166,372.16928,61,110,41
372.17374,372.33,61,110,41
372.38803,372.54428,61,110,41
372.6023,372.75854,66,110,41
372.8166,372.97284,66,110,41
373.03088,373.18713,66,110,41
373.24515,373.4014,64,110,41
373.45944,373.6157,64,110,41
373.67374,373.83,64,90,41
373.88803,374.09784,64,70,41
374.1023,374.3063,57,70,41
374.31064,374.51462,61,70,41
374.7273,374.9313,59,70,41
374.93564,375.13962,62,70,41
375.3523,375.5563,61,70,41
375.56064,375.76462,64,70,41
375.9773,376.1813,62,70,41
376.18564,376.38962,64,70,41
376.6023,376.8063,57,70,41
376.81064,377.01462,61,70,41
377.2273,377.43127,59,70,41
377.43564,377.63962,62,70,41
377.8523,378.05627,61,70,41
378.06064,378.26462,64,70,41
378.4773,378.68127,62,70,41
378.68564,378.88962,64,70,41
379.1023,379.30627,61,73,41
379.31064,379.51462,64,77,41
379.7273,379.93127,61,85,41
379.93564,380.13962,64,89,41
380.14395,380.55627,61,110,41
381.39395,381.54587,61,70,41
381.6023,381.7542,62,70,41
381.8106,381.96252,64,70,41
382.64395,382.79587,69,70,41
382.8523,383.0042,71,70,41
383.0606,383.21252,73,70,41
384.51895,384.67087,64,77,41
384.7273,384.87918,64,80,41
384.9356,385.09186,64,82,41
385.1499,385.30615,69,85,41
385.3642,385.52502,69,88,41
385.58478,385.74564,69,90,41
385.80536,386.2809,69,93,41
387.48615,387.98093,64,110,41
388.23615,388.9757,57,110,41
0.0,0.15190949,45,110,42
0.208333,0.3602425,49,110,42
0.416666,0.5685755,52,110,42
0.624999,1.0373248,57,70,42
1.249998,1.4019074,45,70,42
1.458331,1.6102405,49,70,42
1.666664,1.8185735,52,70,42
1.874997,2.2873228,57,90,42
2.499996,2.6519055,45,70,42
2.708329,2.8602386,49,70,42
2.916662,3.0685716,52,70,42
3.124995,3.5373206,57,90,42
5.031486,5.2413073,45,70,42
5.2457714,5.4497643,50,70,42
5.4541044,5.6580973,54,70,42
5.6624374,6.4914293,45,70,42
6.4957695,6.6997623,50,70,42
6.7041025,6.9080954,52,70,42
6.9124355,7.7414274,45,70,42
7.7457676,7.9497604,50,70,42
7.9541006,8.158093,52,70,42
8.162434,8.366426,45,70,42
8.370767,8.5747595,49,70,42
8.5791,8.7830925,52,70,42
8.787433,8.9914255,45,70,42
8.995766,9.199759,49,70,42
9.204099,9.408092,52,70,42
9.412432,9.616425,45,70,42
9.620765,9.824758,52,70,42
9.829098,10.033091,55,70,42
10.037431,10.241424,45,70,42
10.245764,10.449757,50,70,42
10.454097,10.65809,54,70,42
10.66243,11.491422,45,70,42
11.495762,11.699754,50,70,42
11.704095,11.908087,52,70,42
11.912428,12.12529,45,70,42
12.129819,12.35578,47,70,42
12.360587,12.586549,50,70,42
12.591356,13.048087,45,70,42
14.140805,14.297055,52,70,42
14.355091,14.511341,52,70,42
15.426518,15.582768,49,70,42
15.640804,15.797054,49,70,42
16.71223,16.86848,50,70,42
16.926517,17.082767,50,70,42
17.355087,17.511337,52,70,42
17.569374,17.725624,52,70,42
17.997944,18.154194,45,70,42
18.21223,18.36848,45,70,42
19.283657,19.439907,52,70,42
19.497944,19.654192,52,70,42
20.56937,20.72562,49,70,42
20.783655,20.939905,49,70,42
21.212227,21.368477,55,70,42
21.426512,21.582762,55,70,42
21.855083,22.011333,54,70,42
22.069368,22.230215,54,70,42
22.510546,22.678814,53,70,42
22.741314,22.923605,53,70,42
22.991314,23.665895,52,70,42
23.670235,23.874228,50,70,42
23.878569,24.082561,47,70,42
24.0869,24.290894,50,70,42
24.295235,24.499228,49,70,42
24.503567,24.70756,45,70,42
24.7119,24.915894,44,70,42
24.920233,25.124226,45,70,42
25.128567,25.33256,42,70,42
25.336899,25.540892,47,70,42
25.545233,25.697142,40,70,42
25.753565,25.957558,52,72,42
25.961899,26.165892,51,75,42
26.17023,26.374224,52,78,42
26.378565,26.582558,50,80,42
26.586897,26.79089,47,83,42
26.79523,26.999222,49,86,42
27.003563,27.207556,45,88,42
27.211897,27.415888,44,91,42
27.420229,27.624222,45,94,42
27.628563,27.832554,42,96,42
27.836895,28.040888,47,99,42
28.045227,28.197138,40,110,42
28.253561,28.40547,44,110,42
28.461893,28.618143,47,110,42
28.67618,28.83243,52,110,42
28.890465,29.05131,56,110,42
29.111053,29.279322,59,110,42
29.341822,29.798552,64,110,42
30.495667,30.663937,47,70,42
30.726437,30.952396,55,70,42
31.187975,31.356243,51,70,42
31.418743,31.644705,52,70,42
31.880281,32.04855,47,70,42
32.11105,32.56778,48,90,42
32.57259,32.683167,50,70,42
32.687973,32.79855,48,70,42
32.803356,33.02932,47,70,42
33.264896,33.375473,59,70,42
33.38028,33.490856,57,70,42
33.495663,33.91977,55,70,42
33.924236,34.134056,54,70,42
34.13852,34.562626,52,70,42
34.567093,34.776913,51,70,42
34.781376,35.217957,52,70,42
35.222553,35.448513,46,70,42
35.453323,35.910053,47,70,42
36.14563,36.569736,52,70,42
36.5742,36.78402,54,70,42
36.788486,36.998306,55,70,42
37.217056,37.426876,56,70,42
37.431343,37.85545,57,70,42
37.859913,38.069733,59,70,42
38.0742,38.28402,60,70,42
38.50277,38.65902,54,70,42
38.717056,39.141163,55,70,42
39.145626,39.355446,48,70,42
39.359913,39.78402,50,70,42
39.788483,40.007698,38,70,42
40.012363,40.47623,43,70,42
40.481113,40.710606,50,70,42
40.71549,41.179356,55,70,42
41.18424,41.355137,47,110,42
41.418613,41.63783,55,110,42
41.866375,42.02962,51,110,42
42.090256,42.30947,52,110,42
42.538017,42.701263,47,110,42
42.761894,43.204994,48,110,42
43.209656,43.321598,50,110,42
43.321598,43.433537,48,110,42
43.433537,43.876633,47,110,42
46.781807,47.205914,64,50,42
47.21038,47.424797,66,50,42
47.429356,47.643772,68,50,42
47.867313,48.093273,68,50,42
48.098083,48.592873,69,50,42
48.598083,48.891834,71,50,42
48.898083,49.491833,73,50,42
53.339745,53.543736,52,50,42
53.548077,53.960403,51,50,42
53.96474,54.168736,52,50,42
54.173077,54.5854,45,50,42
54.58974,54.793736,47,50,42
54.798073,55.2104,40,50,42
61.048065,61.460392,47,100,42
61.46473,61.61664,49,100,42
61.673065,61.824974,51,100,42
61.881397,62.033306,52,100,42
62.08973,62.24164,54,100,42
62.29806,62.502056,56,70,42
62.506397,62.71039,52,70,42
62.92306,63.127056,57,70,42
63.131393,63.33539,61,70,42
63.54806,63.752052,47,70,42
63.756393,63.960384,52,70,42
64.17306,64.37705,47,70,42
64.38139,64.58539,54,70,42
64.79806,65.21038,40,100,42
66.04806,66.46038,47,125,42
66.46472,66.61663,49,100,42
66.67306,66.82497,50,100,42
66.881386,67.033295,49,100,42
67.08972,67.24163,47,100,42
67.29806,67.502045,45,100,42
67.71472,67.86663,44,100,42
67.92305,68.33538,42,100,42
68.54805,68.96038,49,127,42
68.96472,69.11663,51,100,42
69.17305,69.32496,52,100,42
69.381386,69.533295,51,100,42
69.589714,69.74163,49,100,42
69.79805,70.002045,47,100,42
70.214714,70.36662,46,100,42
70.42305,70.83537,44,100,42
71.04805,71.46037,47,120,42
71.464714,71.61662,49,100,42
71.67305,71.82496,51,100,42
71.88138,72.03329,52,100,42
72.089714,72.24162,54,100,42
72.29805,72.50204,47,120,42
72.714714,72.86662,49,100,42
72.92304,73.07495,51,100,42
73.13138,73.28329,52,100,42
73.339714,73.49162,54,100,42
73.54804,73.75204,54,120,42
73.75638,73.96037,54,100,42
73.964714,74.1687,52,100,42
74.17304,74.37704,51,100,42
74.38138,74.58537,49,100,42
74.58971,74.7937,47,100,42
74.79804,75.210365,52,100,42
75.42304,75.835365,49,100,42
76.04804,76.460365,44,100,42
76.67304,77.085365,46,100,42
77.29804,77.50203,47,120,42
77.50637,77.710365,56,100,42
77.71471,77.91869,52,100,42
77.923035,78.07494,47,100,42
78.13137,78.28328,47,100,42
78.33971,78.491615,47,100,42
78.548035,78.960365,52,100,42
79.798035,80.00203,47,120,42
80.00637,80.21036,56,100,42
80.2147,80.41869,52,100,42
80.423035,80.57494,47,100,42
80.63136,80.78328,47,100,42
80.8397,80.99161,47,100,42
81.048035,81.46036,52,100,42
82.29803,82.50202,47,120,42
82.50636,82.71036,56,100,42
82.7147,82.918686,52,100,42
82.92303,83.074936,47,100,42
83.13136,83.28761,47,100,42
83.34565,83.50649,47,100,42
83.56624,84.002815,52,100,42
86.26307,87.115746,62,100,42
87.12021,87.27646,61,70,42
87.334496,87.490746,56,70,42
87.54878,87.70503,57,70,42
87.76306,87.91931,56,70,42
87.97735,88.1336,54,70,42
88.191635,88.347885,59,70,42
88.40592,88.56217,59,70,42
88.62021,88.77646,47,70,42
88.834496,89.2586,52,70,42
89.47735,89.90146,52,70,42
89.90592,90.11574,52,77,42
90.12021,90.556786,52,81,42
90.56138,90.777374,52,89,42
90.78197,91.2387,52,93,42
91.24351,91.4883,52,100,42
91.49351,92.34618,53,110,42
92.35065,92.5069,53,110,42
92.56493,92.72118,53,110,42
92.77922,92.989044,54,110,42
92.99351,93.20332,56,110,42
93.207794,93.41761,57,110,42
93.42207,93.6319,59,110,42
93.63636,93.84618,59,110,42
93.85065,94.06047,47,110,42
94.06493,94.48023,40,70,42
94.69291,95.10523,47,70,42
95.31791,95.73023,52,70,42
95.94291,96.35523,47,70,42
96.5679,96.98023,40,70,42
97.1929,97.60523,47,70,42
97.8179,98.23023,52,70,42
98.4429,98.855225,47,70,42
99.0679,99.480225,52,70,42
99.6929,100.105225,52,70,42
100.3179,100.422066,52,70,42
100.422066,100.52623,54,70,42
100.52623,100.6304,56,70,42
100.6304,100.734566,57,70,42
100.734566,100.83873,59,70,42
100.83873,100.9429,56,70,42
100.9429,101.09481,52,70,42
101.15123,101.30314,50,70,42
101.359566,101.511475,47,70,42
101.567894,101.71981,45,110,42
101.77623,101.92814,49,110,42
101.984566,102.136475,52,110,42
102.192894,102.605225,57,70,42
102.817894,102.9698,45,70,42
103.02623,103.17814,49,70,42
103.23456,103.38647,52,70,42
103.442894,103.85522,57,90,42
104.067894,104.2198,45,70,42
104.27623,104.42814,49,70,42
104.48456,104.63647,52,70,42
104.692894,105.10522,57,90,42
106.589386,106.80861,45,70,42
106.81327,107.017265,50,70,42
107.02161,107.22559,54,70,42
107.229935,108.05893,45,70,42
108.06327,108.26726,50,70,42
108.2716,108.47559,52,70,42
108.479935,109.30892,45,70,42
109.31326,109.51726,50,70,42
109.5216,109.72559,52,70,42
109.729935,109.93392,45,70,42
109.93826,110.14226,49,70,42
110.1466,110.35059,52,70,42
110.35493,110.55892,45,70,42
110.56326,110.76726,49,70,42
110.7716,110.975586,52,70,42
110.97993,111.18392,45,70,42
111.18826,111.39226,52,70,42
111.3966,111.600586,55,70,42
111.60493,111.80892,45,70,42
111.81326,112.01726,50,70,42
112.02159,112.225586,54,70,42
112.22993,113.05892,45,70,42
113.06326,113.26725,50,70,42
113.27159,113.475586,52,70,42
113.47993,113.68975,45,70,42
113.694214,113.90403,47,70,42
113.90849,114.13446,50,70,42
114.13927,114.55159,45,70,42
115.597595,115.749504,52,70,42
115.80593,115.95784,52,70,42
116.847595,116.999504,49,70,42
117.05593,117.20784,49,70,42
118.097595,118.249504,50,70,42
118.30592,118.45783,50,70,42
118.722595,118.874504,52,70,42
118.93092,119.08283,52,70,42
119.34759,119.4995,45,70,42
119.55592,119.70783,45,70,42
120.59759,120.7495,52,70,42
120.80592,120.95783,52,70,42
121.84759,121.9995,49,70,42
122.05592,122.20783,49,70,42
122.47259,122.6245,55,70,42
122.680916,122.832825,55,70,42
123.10354,123.25979,54,70,42
123.317825,123.47867,54,70,42
123.758995,123.92727,53,70,42
123.98977,124.17206,53,70,42
124.23977,124.87268,52,70,42
124.87702,125.08102,50,70,42
125.08536,125.289345,47,70,42
125.293686,125.49768,50,70,42
125.50202,125.70602,49,70,42
125.71035,125.914345,45,70,42
125.918686,126.12268,44,70,42
126.12702,126.33101,45,70,42
126.33535,126.539345,42,70,42
126.543686,126.74768,47,70,42
126.75202,126.90393,40,70,42
126.96035,127.164345,52,72,42
127.168686,127.37268,51,75,42
127.377014,127.58101,52,78,42
127.58535,127.789345,50,80,42
127.793686,127.99767,47,83,42
128.00201,128.20601,49,86,42
128.21034,128.41434,45,88,42
128.41869,128.62268,44,91,42
128.62701,128.83101,45,94,42
128.83534,129.03934,42,96,42
129.04369,129.24768,47,99,42
129.25201,129.40826,40,110,42
129.4663,129.62254,44,110,42
129.68059,129.84143,47,110,42
129.90117,130.06201,52,110,42
130.12177,130.29002,56,110,42
130.35252,130.53482,59,110,42
130.60252,131.09732,64,110,42
131.85252,132.03482,47,70,42
132.10252,132.32849,55,70,42
132.56407,132.73233,51,70,42
132.79483,133.0208,52,70,42
133.25638,133.42465,47,70,42
133.48715,133.94388,48,90,42
133.94868,134.05927,50,70,42
134.06407,134.17464,48,70,42
134.17946,134.40541,47,70,42
134.64099,134.75157,59,70,42
134.75638,134.86696,57,70,42
134.87177,135.29587,55,70,42
135.30032,135.51015,54,70,42
135.51462,135.93872,52,70,42
135.94319,136.153,51,70,42
136.15747,136.59406,52,70,42
136.59865,136.82462,46,70,42
136.82942,137.28615,47,70,42
137.52173,137.95198,52,70,42
137.95651,138.16937,54,70,42
138.17389,138.38676,55,70,42
138.60867,138.82153,56,70,42
138.82607,139.25632,57,70,42
139.26085,139.47371,59,70,42
139.47824,139.6911,60,70,42
139.91302,140.07153,54,70,42
140.13042,140.56067,55,70,42
140.5652,140.78441,48,70,42
140.78908,141.23218,50,70,42
141.23683,141.4628,38,70,42
141.4676,141.93884,43,70,42
141.9438,142.17693,50,70,42
142.1819,142.65312,55,70,42
142.65808,142.8317,47,110,42
142.89618,143.11539,55,110,42
143.34393,143.50719,51,110,42
143.56783,143.78703,52,110,42
144.01558,144.17883,47,110,42
144.23946,144.68256,48,110,42
144.68723,144.79916,50,110,42
144.79916,144.9111,48,110,42
144.9111,145.3542,47,110,42
148.16048,148.59705,64,50,42
148.60165,148.81764,66,50,42
148.82224,149.0482,68,50,42
149.28377,149.5169,68,50,42
149.52187,150.01666,69,50,42
150.02187,150.31561,71,50,42
150.32187,150.91562,73,50,42
154.76353,154.96753,52,50,42
154.97186,155.38419,51,50,42
155.38853,155.59253,52,50,42
155.59686,156.00919,45,50,42
156.01353,156.21751,47,50,42
156.22186,156.63419,40,50,42
162.47185,162.88417,47,100,42
162.88852,163.04042,49,100,42
163.09685,163.24876,51,100,42
163.30519,163.45709,52,100,42
163.51352,163.66542,54,100,42
163.72185,163.92584,56,70,42
163.93018,164.13417,52,70,42
164.34685,164.55084,57,70,42
164.55518,164.765,61,70,42
164.98375,165.19974,47,70,42
165.20435,165.42033,52,70,42
165.64552,165.86151,47,70,42
165.8661,166.09207,54,70,42
166.32764,166.75175,40,100,42
167.61336,168.03746,47,125,42
168.04193,168.19818,49,100,42
168.25621,168.41246,50,100,42
168.4705,168.62675,49,100,42
168.68478,168.84103,47,100,42
168.89906,169.10889,45,100,42
169.32764,169.48389,44,100,42
169.54193,169.96603,42,100,42
170.18478,170.60889,49,127,42
170.61336,170.7696,51,100,42
170.82764,170.98389,52,100,42
171.04193,171.19818,51,100,42
171.25621,171.41246,49,100,42
171.47049,171.68031,47,100,42
171.89906,172.05531,46,100,42
172.11336,172.53746,44,100,42
172.75621,173.18031,47,120,42
173.18478,173.34103,49,100,42
173.39906,173.55531,51,100,42
173.61334,173.76959,52,100,42
173.82764,173.98389,54,100,42
174.04192,174.25174,47,120,42
174.47049,174.62674,49,100,42
174.68478,174.84103,51,100,42
174.89906,175.05531,52,100,42
175.11334,175.26959,54,100,42
175.32764,175.53746,54,120,42
175.54192,175.75174,54,100,42
175.75621,175.96602,52,100,42
175.97049,176.18031,51,100,42
176.18477,176.39459,49,100,42
176.39906,176.60889,47,100,42
176.61334,177.03746,52,100,42
177.25621,177.68031,49,100,42
177.89906,178.32317,44,100,42
178.54192,178.96602,46,100,42
179.18477,179.39459,47,120,42
179.39906,179.60889,56,100,42
179.61334,179.82317,52,100,42
179.82764,179.98389,47,100,42
180.04192,180.19817,47,100,42
180.2562,180.41245,47,100,42
180.47049,180.88876,52,100,42
181.72644,181.93044,47,120,42
181.93477,182.13876,56,100,42
182.1431,182.34709,52,100,42
182.35144,182.50334,47,100,42
182.55977,182.71169,47,100,42
182.7681,182.92001,47,100,42
182.97644,183.38876,52,100,42
184.22643,184.43042,47,120,42
184.43477,184.63876,56,100,42
184.6431,184.84709,52,100,42
184.85143,185.00334,47,100,42
185.05977,185.21167,47,100,42
185.2681,185.42001,47,100,42
185.47643,185.88876,52,100,42
188.11758,188.97026,62,100,42
188.97473,189.13098,61,70,42
189.18901,189.34526,56,70,42
189.4033,189.55956,57,70,42
189.61758,189.77383,56,70,42
189.83188,189.98813,54,70,42
190.04616,190.20241,59,70,42
190.26044,190.41669,59,70,42
190.47473,190.63098,47,70,42
190.68901,191.11311,52,70,42
191.33186,191.75598,52,70,42
191.76044,191.97026,52,77,42
191.97473,192.4113,52,81,42
192.41591,192.6319,52,89,42
192.63649,193.09322,52,93,42
193.09802,193.34282,52,100,42
193.34802,194.2007,53,110,42
194.20517,194.36142,53,110,42
194.41945,194.5757,53,110,42
194.63374,194.84357,54,110,42
194.84802,195.05785,56,110,42
195.06232,195.27214,57,110,42
195.2766,195.48642,59,110,42
195.49089,195.7007,59,110,42
195.70517,195.915,47,110,42
195.91945,196.33774,40,70,42
196.5504,196.96274,47,70,42
197.1754,197.58774,52,70,42
197.8004,198.21272,47,70,42
198.4254,198.83772,40,70,42
199.0504,199.46272,47,70,42
199.6754,200.08772,52,70,42
200.3004,200.71272,47,70,42
200.9254,201.33772,52,70,42
201.5504,201.96272,52,70,42
202.1754,202.27956,52,70,42
202.27956,202.38373,54,70,42
202.38373,202.4879,56,70,42
202.4879,202.59206,57,70,42
202.59206,202.69623,59,70,42
202.69623,202.8004,56,70,42
202.8004,202.9523,52,70,42
203.00873,203.16064,51,70,42
203.21706,203.36897,50,70,42
203.4254,203.83772,49,100,42
204.6754,205.0995,49,81,42
205.10396,205.31378,49,89,42
205.31825,205.75484,49,93,42
205.75943,205.98538,49,100,42
205.99019,206.81918,53,110,42
206.82353,206.97543,54,110,42
207.03186,207.18378,56,110,42
207.24019,207.65251,57,110,42
208.49019,209.31918,59,110,42
209.32352,209.47543,57,110,42
209.53186,209.68376,56,110,42
209.74019,210.15251,54,110,42
210.99019,211.81918,67,110,42
211.82352,211.97977,66,80,42
212.03781,212.20607,64,80,42
212.26857,212.7253,62,80,42
213.65318,214.48218,55,50,42
214.48653,214.63843,54,50,42
214.69485,214.84676,52,50,42
214.90318,215.10718,50,50,42
215.11151,215.3155,54,50,42
215.52818,215.73218,55,50,42
215.73651,215.9405,59,50,42
216.15318,216.35718,45,50,42
216.36151,216.5655,50,50,42
216.77818,216.98218,45,50,42
216.98651,217.1905,52,50,42
217.40318,217.60718,38,50,42
217.61151,217.8155,45,50,42
217.81985,218.02383,42,50,42
218.02818,218.85718,38,50,42
218.86151,219.0655,48,50,42
219.06984,219.27383,45,50,42
219.27818,220.10716,38,50,42
220.11151,220.3155,47,50,42
220.31984,220.52383,43,50,42
220.52818,221.35716,38,50,42
221.36151,221.5655,45,50,42
221.56984,221.77383,43,50,42
221.77817,222.60716,38,50,42
222.61151,222.8155,45,50,42
222.81984,223.02383,43,50,42
223.02817,223.23216,38,50,42
223.23651,223.44049,45,50,42
223.44484,223.64883,42,50,42
223.65317,223.85716,38,50,42
223.86151,224.06549,48,50,42
224.06984,224.27383,45,50,42
224.27817,225.10716,38,50,42
225.1115,225.31549,47,50,42
225.31984,225.52383,43,50,42
225.52817,226.35716,38,50,42
226.3615,226.56549,45,50,42
226.56984,226.77382,43,50,42
226.77817,226.98216,38,50,42
226.9865,227.19049,45,50,42
227.19484,227.39882,43,50,42
227.40317,227.81549,38,50,42
230.52817,230.63232,50,110,42
230.63232,230.7365,52,110,42
230.7365,230.84065,54,110,42
230.84065,230.94482,55,110,42
230.94482,231.049,57,110,42
231.049,231.15315,54,110,42
231.15315,231.56549,43,110,42
231.77815,232.19049,45,110,42
232.40315,232.83998,38,110,42
235.59471,235.69888,50,70,42
235.69888,235.80304,52,70,42
235.80304,235.90721,54,70,42
235.90721,236.01138,55,70,42
236.01138,236.11554,57,70,42
236.11554,236.21971,54,70,42
236.21971,236.63203,55,70,42
236.84471,236.94888,45,70,42
236.94888,237.05304,47,70,42
237.05304,237.15721,49,70,42
237.15721,237.26137,50,70,42
237.26137,237.36554,52,70,42
237.36554,237.46971,49,70,42
237.46971,237.88203,50,70,42
242.4697,243.09036,50,70,42
243.0947,243.71536,48,78,42
243.7197,244.34036,46,86,42
244.3447,245.00554,45,95,42
245.01035,245.4451,44,100,42
246.90778,247.01193,52,125,42
247.01193,247.1161,53,115,42
247.1161,247.22028,52,105,42
247.22028,247.32443,50,100,42
247.32443,247.4286,48,100,42
247.4286,247.53278,47,100,42
247.53278,248.15343,45,80,42
248.15778,248.77843,43,85,42
248.78278,249.42734,41,91,42
249.43193,250.12808,40,97,42
250.13329,250.58728,39,110,42
251.63329,251.83728,51,110,42
251.84161,252.04561,51,110,42
252.04996,252.25394,51,110,42
252.25829,252.46228,51,110,42
252.46661,252.67061,51,110,42
252.67494,253.08728,52,110,42
253.29994,253.92061,62,70,42
253.92494,254.54561,60,70,42
254.54994,255.17061,59,70,42
255.17494,255.58727,60,70,42
255.79994,256.4206,48,70,42
256.42496,257.0456,47,70,42
257.04993,257.6706,45,70,42
257.67493,258.08728,40,70,42
258.29993,258.9206,62,70,42
258.92493,259.5456,60,70,42
259.54993,260.1706,59,70,42
260.17493,260.58725,60,70,42
260.79993,261.4206,48,70,42
261.42493,262.0456,47,70,42
262.04993,262.6706,45,70,42
262.67493,263.08725,40,70,42
263.29993,263.71225,52,50,42
263.71658,263.9206,52,50,42
263.92493,264.33725,52,50,42
264.34158,264.5456,50,50,42
264.54993,264.96225,49,50,42
264.96658,265.1706,47,50,42
265.17493,266.21225,46,50,42
266.21658,266.28604,46,50,42
266.28604,266.35547,47,50,42
266.35547,266.42493,49,50,42
266.42493,266.83725,50,50,42
266.84158,267.0456,49,50,42
267.04993,267.46225,47,50,42
267.46658,267.6706,45,50,42
267.67493,268.71225,44,50,42
268.71658,268.78604,40,50,42
268.78604,268.85547,42,50,42
268.85547,268.92493,44,50,42
268.92493,269.96225,45,50,42
269.96658,270.03604,45,71,42
270.03604,270.10547,47,73,42
270.10547,270.17493,49,74,42
270.17493,271.21225,50,76,42
271.21658,271.28604,50,98,42
271.28604,271.35547,52,99,42
271.35547,271.42493,54,100,42
271.42493,272.67056,52,110,42
272.67493,273.5039,40,110,42
273.50824,273.66016,40,110,42
273.71658,273.8685,40,110,42
273.92493,274.0768,45,110,42
274.13324,274.28516,49,110,42
274.34158,274.4935,52,110,42
274.54993,274.96225,57,70,42
275.17493,275.3268,45,70,42
275.38324,275.53516,49,70,42
275.59158,275.7435,52,70,42
275.79993,276.21225,57,90,42
276.4249,276.5768,45,70,42
276.63324,276.78516,49,70,42
276.84158,276.9935,52,70,42
277.0499,277.46225,57,90,42
278.9715,279.19748,45,70,42
279.20227,279.40625,50,70,42
279.4106,279.6146,54,70,42
279.61893,280.44794,45,70,42
280.45227,280.65625,50,70,42
280.6606,280.8646,52,70,42
280.86893,281.69794,45,70,42
281.70227,281.90625,50,70,42
281.9106,282.1146,52,70,42
282.11893,282.32294,45,70,42
282.32727,282.53125,49,70,42
282.5356,282.7396,52,70,42
282.74393,282.94794,45,70,42
282.95227,283.15625,49,70,42
283.16058,283.3646,52,70,42
283.36893,283.57294,45,70,42
283.57727,283.78125,52,70,42
283.78558,283.9896,55,70,42
283.99393,284.19794,45,70,42
284.20227,284.40625,50,70,42
284.41058,284.6146,54,70,42
284.61893,285.4479,45,70,42
285.45227,285.65625,50,70,42
285.66058,285.8646,52,70,42
285.86893,286.0729,45,70,42
286.07727,286.28125,47,70,42
286.28558,286.4896,50,70,42
286.49393,286.90625,45,70,42
287.95227,288.10416,52,70,42
288.16058,288.3125,52,70,42
289.20227,289.35416,49,70,42
289.41058,289.5625,49,70,42
290.45224,290.60416,50,70,42
290.66058,290.8125,50,70,42
291.07724,291.22916,52,70,42
291.28558,291.4375,52,70,42
291.70224,291.85416,45,70,42
291.91058,292.0625,45,70,42
292.74393,293.15625,42,70,42
293.36893,293.78125,43,75,42
293.99393,294.40625,44,80,42
294.61893,295.03125,45,86,42
295.24393,295.65625,46,91,42
295.86893,296.28125,47,97,42
296.4939,296.90625,43,110,42
297.1189,297.53125,48,110,42
297.7439,298.15622,47,70,42
298.3689,298.78122,48,70,42
298.9939,299.40622,45,110,42
299.6189,300.03122,50,110,42
300.2439,300.65622,51,70,42
300.8689,301.28122,52,70,42
301.4939,301.90622,53,70,42
302.1189,302.53122,51,70,42
302.7439,302.9479,40,70,42
302.95224,303.15622,52,70,42
303.16055,303.36456,52,70,42
303.3689,303.5729,50,70,42
303.57724,303.78122,47,70,42
303.78555,303.98956,50,70,42
303.9939,304.1979,49,70,42
304.20224,304.40622,45,70,42
304.41055,304.61456,44,70,42
304.6189,304.82288,45,70,42
304.82724,305.03122,42,70,42
305.03555,305.23956,47,70,42
305.2439,305.3958,40,70,42
305.45224,305.65622,52,72,42
305.66055,305.86456,51,75,42
305.8689,306.07288,52,78,42
306.07724,306.28122,50,80,42
306.28555,306.48956,47,83,42
306.4939,306.69788,49,86,42
306.70224,306.90622,45,88,42
306.91055,307.11456,44,91,42
307.1189,307.32288,45,94,42
307.32724,307.53122,42,96,42
307.53555,307.73956,47,99,42
307.7439,307.8958,40,110,42
307.95224,308.10413,44,110,42
308.16055,308.3168,47,110,42
308.37485,308.5311,52,110,42
308.58914,308.7574,56,110,42
308.8199,309.0022,59,110,42
309.0699,309.5647,64,110,42
310.30066,310.46893,52,70,42
310.53143,310.7574,60,70,42
310.99298,311.16125,56,70,42
311.22375,311.4497,57,70,42
311.68527,311.85355,52,70,42
311.91605,312.37277,53,90,42
312.3776,312.49298,55,70,42
312.49298,312.60837,53,70,42
312.60837,312.83432,52,70,42
313.0699,313.18527,64,70,42
313.18527,313.30066,62,70,42
313.30066,313.72476,60,70,42
313.72925,313.93906,59,70,42
313.9435,314.3676,57,70,42
314.3721,314.5819,56,70,42
314.58636,315.0105,57,70,42
315.01495,315.22476,51,70,42
315.22925,315.65335,52,70,42
315.8721,316.2962,57,70,42
316.30066,316.5105,59,70,42
316.51495,316.72476,60,70,42
316.9435,317.09976,61,70,42
317.1578,317.5819,62,70,42
317.58636,317.7962,64,70,42
317.80066,318.01047,65,70,42
318.22922,318.38547,59,70,42
318.4435,318.65335,61,70,42
318.8721,319.02835,53,70,42
319.08636,319.2962,55,70,42
319.52124,319.6895,43,70,42
319.752,319.9968,48,70,42
320.252,320.4343,55,70,42
320.502,320.7468,60,70,42
321.002,321.22797,40,110,42
321.2328,321.45874,48,70,42
321.69434,321.86258,44,70,42
321.92508,322.15106,45,70,42
322.38663,322.5549,40,70,42
322.6174,323.07413,41,90,42
323.07895,323.19434,43,70,42
323.19434,323.3097,41,70,42
323.3097,323.53568,40,70,42
326.57343,326.99756,57,50,42
327.002,327.21182,59,50,42
327.2163,327.43228,61,50,42
327.65747,327.82574,61,50,42
327.88824,328.38303,62,50,42
328.38824,328.68198,64,50,42
328.68823,329.28198,66,50,42
333.1299,333.3339,57,50,42
333.33823,333.75055,56,50,42
333.7549,333.9589,57,50,42
333.96323,334.37555,50,50,42
334.3799,334.5839,52,50,42
334.58823,335.00055,47,50,42
340.83823,341.25055,52,110,42
341.25488,341.4068,54,110,42
341.46323,341.61514,56,110,42
341.67154,341.82346,57,110,42
341.87988,342.0318,59,95,42
342.08823,342.2922,61,70,42
342.29654,342.50055,57,70,42
342.71323,342.9172,50,70,42
342.92154,343.12555,54,70,42
343.33823,343.5422,52,70,42
343.54654,343.75055,57,70,42
343.96323,344.1672,52,70,42
344.17154,344.37555,59,70,42
344.58823,345.00055,45,110,42
345.83823,346.25055,52,126,42
346.25488,346.4068,54,110,42
346.46323,346.6151,55,110,42
346.67154,346.82346,54,110,42
346.87988,347.0318,52,110,42
347.08823,347.2922,50,110,42
347.50488,347.6568,49,110,42
347.71323,348.12555,47,110,42
348.3382,348.75055,54,125,42
348.75488,348.9068,56,110,42
348.9632,349.1151,57,110,42
349.17154,349.32346,56,110,42
349.37988,349.5318,54,110,42
349.5882,349.7922,52,110,42
350.00488,350.15677,51,110,42
350.2132,350.62552,49,110,42
350.8382,351.25052,52,120,42
351.25488,351.40677,54,100,42
351.4632,351.6151,56,100,42
351.67154,351.82346,57,100,42
351.87988,352.03177,59,100,42
352.0882,352.50052,52,120,42
352.50488,352.65677,54,100,42
352.7132,352.8651,56,100,42
352.92154,353.07346,57,100,42
353.12988,353.28177,59,100,42
353.3382,353.4901,59,125,42
353.54654,353.69846,59,100,42
353.75488,353.90677,57,100,42
353.9632,354.1151,56,100,42
354.17154,354.32346,54,100,42
354.37985,354.53177,52,100,42
354.5882,355.00052,57,100,42
355.2132,355.62552,54,100,42
355.8382,356.25052,49,100,42
356.4632,356.87552,51,100,42
357.0882,357.29218,52,115,42
357.29654,357.50052,49,100,42
357.50485,357.70886,45,100,42
357.7132,357.91718,40,100,42
357.92154,358.12552,40,100,42
358.12985,358.33386,40,100,42
358.3382,358.75052,45,100,42
359.5882,359.79218,52,115,42
359.79654,360.00052,49,100,42
360.00485,360.20886,45,100,42
360.2132,360.41718,40,100,42
360.42154,360.62552,40,100,42
360.62985,360.83386,40,100,42
360.8382,361.25052,45,100,42
362.0882,362.29218,52,115,42
362.2965,362.50052,49,100,42
362.50485,362.70883,45,100,42
362.7132,362.91718,40,100,42
362.9215,363.13135,40,100,42
363.1358,363.355,40,100,42
363.35968,363.8028,45,100,42
366.08615,366.9388,57,110,42
366.9433,367.09955,59,70,42
367.15756,367.3138,61,70,42
367.37186,367.5281,62,70,42
367.58615,367.7424,61,70,42
367.80045,367.9567,59,70,42
368.0147,368.17096,64,70,42
368.229,368.38525,64,70,42
368.4433,368.59955,52,70,42
368.65756,369.0817,57,70,42
369.30045,369.72455,57,70,42
369.729,369.9388,57,77,42
369.9433,370.37988,57,81,42
370.38446,370.60046,57,89,42
370.60504,371.06177,57,93,42
371.0666,371.31137,57,100,42
371.3166,372.16928,58,110,42
372.17374,372.33,58,110,42
372.38803,372.54428,58,110,42
372.6023,372.75854,59,110,42
372.8166,372.97284,61,110,42
373.03088,373.18713,62,110,42
373.24515,373.4014,64,110,42
373.45944,373.6157,64,110,42
373.67374,373.83,52,90,42
373.88803,374.3063,45,70,42
374.51898,374.9313,52,70,42
375.14395,375.5563,57,70,42
375.76895,376.1813,52,70,42
376.39395,376.8063,45,70,42
377.01895,377.43127,52,70,42
377.64395,378.05627,57,70,42
378.26895,378.68127,52,70,42
378.89395,379.30627,45,70,42
379.51895,379.93127,57,81,42
380.14395,380.24814,45,110,42
380.24814,380.3523,47,110,42
380.3523,380.45645,49,110,42
380.45645,380.56064,50,110,42
380.56064,380.6648,52,110,42
380.6648,380.76895,49,110,42
380.76895,381.18127,45,110,42
381.39395,381.80627,57,70,42
382.64395,383.05627,57,70,42
384.51895,384.67087,57,77,42
384.7273,384.87918,59,80,42
384.9356,385.09186,61,82,42
385.1499,385.30615,61,85,42
385.3642,385.52502,62,88,42
385.58478,385.74564,59,90,42
385.80536,386.2809,61,93,42
387.48615,387.98093,52,110,42
388.23615,388.9757,45,110,42
