start_time,end_time,note_value,velocity,instrument_program_number
0.0,0.18359375,69,1,40
0.75,0.93359375,73,70,40
1.125,2.2460938,76,70,40
2.25,3.3710938,71,70,40
3.375,3.5585938,74,70,40
3.5625,3.7460938,73,70,40
3.75,3.9335938,71,70,40
3.9375,4.1210938,69,70,40
4.125,4.3085938,68,70,40
4.3125,4.4960938,69,70,40
4.5,4.8710938,73,70,40
4.875,5.1523438,71,70,40
5.25,5.5273438,73,70,40
5.625,6.7460938,76,70,40
6.75,7.4960938,73,70,40
7.5,7.8710938,73,70,40
7.875,8.996094,81,70,40
9.0,9.746094,75,70,40
9.75,10.121094,75,70,40
10.125,11.246094,83,70,40
11.25,11.433594,81,70,40
11.4375,11.621094,80,70,40
11.625,11.808594,78,70,40
11.8125,11.996094,76,70,40
12.0,12.183594,75,70,40
12.1875,12.371094,76,70,40
12.375,12.746094,78,70,40
12.75,13.034455,81,70,40
13.134615,13.330448,75,70,40
13.534615,13.930449,76,70,40
15.109615,15.480709,69,70,40
15.484615,15.855709,73,70,40
16.234615,16.60571,76,70,40
16.609615,16.98071,80,70,40
17.359615,17.73071,81,70,40
17.734615,18.10571,85,70,40
18.109615,18.48071,88,70,40
19.609615,19.98071,69,70,40
19.984615,20.35571,73,70,40
20.734615,21.10571,73,70,40
21.109615,21.48071,81,70,40
21.859615,22.23071,75,70,40
22.234615,22.60571,78,70,40
22.984615,23.35571,78,70,40
23.359615,23.73071,83,70,40
24.109615,24.48071,76,70,40
24.484615,24.85571,80,70,40
25.234615,25.60571,80,70,40
25.609615,25.990223,85,70,40
26.388966,26.680906,85,70,40
26.783703,27.083532,81,70,40
27.189108,27.590288,80,70,40
27.999916,28.401098,64,70,40
28.405321,29.526415,74,70,40
29.530321,29.713915,73,70,40
29.717821,29.85454,76,70,40
29.905321,30.04204,74,70,40
30.092821,30.22954,73,70,40
30.280321,30.41704,71,70,40
30.467821,30.60454,69,70,40
30.655321,30.79204,68,70,40
30.842821,30.97954,64,70,40
31.030321,31.16704,68,70,40
31.217821,31.35454,71,70,40
31.405321,31.54204,76,70,40
31.592821,31.72954,78,70,40
31.780321,31.91704,80,70,40
31.967821,32.10454,76,70,40
32.155323,32.29204,80,70,40
32.342823,32.47954,81,70,40
32.530323,32.66704,83,70,40
32.717823,32.85454,85,70,40
32.905323,34.026417,86,70,40
34.030323,34.213917,85,70,40
34.217823,34.35454,88,70,40
34.405323,34.54204,86,70,40
34.592823,34.72954,85,70,40
34.780323,34.91704,83,70,40
34.967823,35.10454,81,70,40
35.155323,35.29204,80,70,40
35.342823,35.47954,78,70,40
35.530323,35.66704,76,70,40
35.717823,35.85454,75,70,40
35.905323,36.04204,76,70,40
36.092823,36.22954,78,70,40
36.280323,36.41704,80,70,40
36.467823,36.60454,81,70,40
36.655323,36.79204,82,70,40
36.842823,36.97954,83,70,40
37.030323,37.16704,84,70,40
37.217823,37.35454,85,70,40
37.405323,37.54204,86,70,40
37.592823,37.72954,83,70,40
37.780323,37.91704,80,70,40
37.967823,38.10454,74,70,40
38.155323,38.29204,86,70,40
38.342823,38.47954,86,70,40
38.530323,38.66704,85,70,40
38.717823,38.85454,81,70,40
38.905323,39.04204,78,70,40
39.092823,39.22954,73,70,40
39.280323,39.41704,85,70,40
39.467823,39.60454,85,70,40
39.655323,39.79204,85,70,40
39.842823,39.97954,80,70,40
40.030323,40.16704,76,70,40
40.217823,40.35454,73,70,40
40.405323,40.54204,85,70,40
40.592823,40.72954,85,70,40
40.780323,40.91704,85,70,40
40.967823,41.10454,79,70,40
41.155323,41.29204,76,70,40
41.342823,41.47954,73,70,40
41.530323,41.66704,85,70,40
41.717823,41.85454,85,70,40
41.905323,42.04204,80,70,40
42.092823,42.22954,76,70,40
42.280323,42.41704,73,70,40
42.467823,42.60454,68,70,40
42.655323,42.795547,68,70,40
42.84763,42.987854,68,70,40
43.039936,43.18016,68,70,40
43.232246,43.372467,63,70,40
43.424553,43.567524,60,70,40
43.62063,43.763603,56,70,40
43.816708,43.96254,56,70,40
44.01671,44.17296,56,70,40
44.230995,45.380833,61,70,40
45.38484,46.534676,64,78,40
46.538685,47.303905,63,86,40
47.307915,47.404068,64,92,40
47.404068,47.50022,63,93,40
47.50022,47.596375,61,94,40
47.596375,47.692528,63,94,40
47.692528,48.457752,68,95,40
48.461758,48.842365,60,101,40
48.846375,49.226982,61,103,40
49.230988,49.32714,63,106,40
49.32714,49.423298,61,107,40
49.423298,49.6116,60,108,40
49.615604,49.803905,61,109,40
49.80791,49.996212,63,110,40
50.000217,50.25663,64,120,40
50.384834,50.6515,64,120,40
50.784832,51.0515,64,120,40
53.059834,53.243427,73,70,40
53.434834,54.555927,76,70,40
54.559834,55.680927,71,70,40
55.684834,55.868427,74,70,40
55.872334,56.055927,73,70,40
56.059834,56.243427,71,70,40
56.247334,56.430927,69,70,40
56.434834,56.618427,68,70,40
56.622334,56.805927,69,70,40
56.809834,57.180927,73,70,40
57.184834,57.462177,71,70,40
57.559834,57.837177,73,70,40
57.934834,59.055927,76,70,40
59.059834,59.805927,73,70,40
59.809834,60.180927,73,70,40
60.184834,61.305927,81,70,40
61.309834,62.055927,75,70,40
62.059834,62.430927,75,70,40
62.434834,63.555927,83,70,40
63.559834,63.743427,81,70,40
63.747334,63.930927,79,70,40
63.934834,64.11842,78,70,40
64.12233,64.30592,76,70,40
64.30983,64.49342,79,70,40
64.49733,64.68092,76,70,40
64.68483,65.05592,74,70,40
65.05983,65.15358,76,70,40
65.15358,65.24733,74,70,40
65.24733,65.34108,73,70,40
65.34108,65.43483,74,70,40
65.43483,65.61842,78,70,40
65.62233,65.80592,76,70,40
65.80983,66.18092,74,70,40
69.93483,70.30592,69,70,40
70.30983,71.43092,81,70,40
71.43483,72.55592,76,70,40
72.55983,72.74342,79,70,40
72.74733,72.93092,78,70,40
72.93483,73.11842,76,70,40
73.12233,73.30592,74,70,40
73.30983,73.49342,73,70,40
73.49733,73.68092,74,70,40
73.68483,74.05592,78,70,40
74.05983,74.33717,76,70,40
74.43483,74.61842,69,70,40
74.80983,75.93092,81,70,40
75.93483,76.68092,78,77,40
76.68483,77.05592,78,81,40
77.05983,78.18092,86,84,40
78.18483,78.93092,80,91,40
78.93483,79.30592,80,95,40
79.30983,80.43092,88,98,40
80.43483,80.61842,86,105,40
80.62233,80.80592,85,106,40
80.80983,80.99342,83,107,40
80.99733,81.18092,81,108,40
81.18483,81.36842,80,109,40
81.37233,81.55592,81,110,40
81.55983,81.93092,83,110,40
81.93483,82.21217,86,110,40
82.30983,82.58717,80,110,40
82.68483,83.05592,81,110,40
83.43483,83.80592,64,70,40
83.80983,84.93092,71,70,40
84.93483,86.05592,73,70,40
86.05983,86.15358,76,70,40
86.15358,86.24733,74,70,40
86.24733,86.38405,73,70,40
86.43483,86.57155,74,70,40
86.62233,86.75905,71,70,40
86.80983,86.94655,76,70,40
86.99733,87.13405,74,70,40
87.18483,87.43483,73,70,40
87.55983,87.80983,81,70,40
88.30983,89.43092,83,90,40
89.43483,90.58467,85,100,40
90.58868,91.18451,88,110,40
91.188675,91.33451,86,70,40
91.38868,91.538506,85,70,40
91.594154,91.750404,83,70,40
91.80844,92.23255,81,70,40
92.66559,93.08969,64,70,40
93.094154,94.21525,74,70,40
94.219154,94.40275,73,70,40
94.406654,94.54337,76,70,40
94.594154,94.73087,74,70,40
94.781654,94.91837,73,70,40
94.969154,95.10587,71,70,40
95.156654,95.29337,69,70,40
95.344154,95.48087,68,70,40
95.531654,95.66837,64,70,40
95.719154,95.85587,68,70,40
95.906654,96.04337,71,70,40
96.094154,96.23087,76,70,40
96.281654,96.41837,78,70,40
96.469154,96.60587,80,70,40
96.656654,96.79337,76,70,40
96.844154,96.98087,80,70,40
97.031654,97.16837,81,70,40
97.219154,97.35587,83,70,40
97.406654,97.54337,85,70,40
97.594154,98.71525,86,70,40
98.719154,98.90275,85,70,40
98.906654,99.04337,88,70,40
99.094154,99.23087,86,70,40
99.281654,99.41837,85,70,40
99.469154,99.60587,83,70,40
99.656654,99.79337,81,70,40
99.844154,99.98087,80,70,40
100.031654,100.16837,78,70,40
100.219154,100.35587,76,70,40
100.406654,100.54337,75,70,40
100.594154,100.73087,76,70,40
100.781654,100.91837,78,70,40
100.969154,101.10587,80,70,40
101.156654,101.29337,81,70,40
101.344154,101.48087,82,70,40
101.531654,101.66837,83,70,40
101.719154,101.85587,84,70,40
101.906654,102.04337,85,70,40
102.094154,102.23087,86,70,40
102.281654,102.41837,83,70,40
102.469154,102.60587,80,70,40
102.656654,102.79337,74,70,40
102.844154,102.98087,86,70,40
103.031654,103.16837,86,70,40
103.219154,103.35587,85,70,40
103.406654,103.54337,81,70,40
103.594154,103.73087,78,70,40
103.781654,103.91837,73,70,40
103.969154,104.10587,85,70,40
104.156654,104.29337,85,70,40
104.344154,104.48087,85,70,40
104.531654,104.66837,80,70,40
104.719154,104.85587,76,70,40
104.906654,105.04337,73,70,40
105.094154,105.23087,85,70,40
105.281654,105.41837,85,70,40
105.469154,105.60587,85,70,40
105.656654,105.79337,79,70,40
105.844154,105.98087,76,70,40
106.031654,106.16837,73,70,40
106.219154,106.35587,85,70,40
106.406654,106.54337,85,70,40
106.594154,106.73087,80,70,40
106.781654,106.91837,76,70,40
106.969154,107.10587,73,70,40
107.156654,107.29337,68,70,40
107.344154,107.48438,68,70,40
107.53646,107.67669,68,70,40
107.72877,107.868996,68,70,40
107.92108,108.0613,63,70,40
108.11339,108.25922,60,70,40
108.313385,108.45922,56,70,40
108.51339,108.663216,56,70,40
108.718864,108.875114,56,70,40
108.93315,110.08299,61,70,40
110.087,111.23683,64,78,40
111.24084,112.006065,63,86,40
112.01007,112.106224,64,92,40
112.106224,112.20238,63,93,40
112.20238,112.29853,61,94,40
112.29853,112.394684,63,94,40
112.394684,113.15991,68,95,40
113.16392,113.544525,60,101,40
113.54853,113.92914,61,103,40
113.93314,114.0293,63,106,40
114.0293,114.12545,61,107,40
114.12545,114.31375,60,108,40
114.317764,114.506065,61,109,40
114.51007,114.69837,63,110,40
114.70238,114.958786,64,120,40
115.08699,115.35366,64,120,40
115.48699,115.753654,64,120,40
117.76199,117.94559,73,70,40
118.13699,119.25809,76,70,40
119.26199,120.38309,71,70,40
120.38699,120.57059,74,70,40
120.57449,120.75809,73,70,40
120.76199,120.94559,71,70,40
120.94949,121.13309,69,70,40
121.13699,121.32059,68,70,40
121.32449,121.50809,69,70,40
121.51199,121.88309,73,70,40
121.88699,122.16434,71,70,40
122.26199,122.53934,73,70,40
122.63699,123.75809,76,70,40
123.76199,124.50809,73,70,40
124.51199,124.88309,73,70,40
124.88699,126.00809,81,70,40
126.01199,126.75809,75,70,40
126.76199,127.13309,75,70,40
127.13699,128.25809,83,70,40
128.262,128.44559,81,70,40
128.4495,128.63309,79,70,40
128.637,128.82059,78,70,40
128.8245,129.00809,76,70,40
129.012,129.19559,79,70,40
129.1995,129.38309,76,70,40
129.387,129.75809,74,70,40
129.762,129.85574,76,70,40
129.85574,129.9495,74,70,40
129.9495,130.04324,73,70,40
130.04324,130.137,74,70,40
130.137,130.32059,78,70,40
130.3245,130.50809,76,70,40
130.512,130.88309,74,70,40
134.637,135.00809,69,70,40
135.012,136.13309,81,70,40
136.137,137.25809,76,70,40
137.262,137.44559,79,70,40
137.4495,137.63309,78,70,40
137.637,137.82059,76,70,40
137.8245,138.00809,74,70,40
138.012,138.19559,73,70,40
138.1995,138.38309,74,70,40
138.387,138.75809,78,70,40
138.762,139.03934,76,70,40
139.137,139.32059,69,70,40
139.512,140.63309,81,70,40
140.637,141.38309,78,77,40
141.387,141.75809,78,81,40
141.762,142.88309,86,84,40
142.887,143.63309,80,91,40
143.637,144.00809,80,95,40
144.012,145.13309,88,98,40
145.137,145.32059,86,105,40
145.3245,145.50809,85,106,40
145.512,145.69559,83,107,40
145.6995,145.88309,81,108,40
145.887,146.07059,80,109,40
146.0745,146.25809,81,110,40
146.262,146.63309,83,110,40
146.637,146.92145,86,110,40
147.0216,147.31355,80,110,40
147.41634,147.80696,81,110,40
148.20581,148.59644,64,70,40
148.60056,149.75038,71,70,40
149.7544,150.90424,73,70,40
150.90823,151.0044,76,70,40
151.0044,151.10054,74,70,40
151.10054,151.24077,73,70,40
151.29286,151.43307,74,70,40
151.48517,151.62538,71,70,40
151.67747,151.81769,76,70,40
151.86978,152.01,74,70,40
152.06209,152.3185,73,70,40
152.4467,152.70311,81,70,40
153.21593,154.36577,83,90,40
154.36978,155.53455,85,100,40
155.5386,156.11896,88,110,40
156.12302,156.26506,86,70,40
156.31783,156.46365,85,70,40
156.51782,156.66765,83,70,40
156.7233,157.12997,81,70,40
157.95618,158.70227,73,70,40
157.95618,158.70227,76,70,40
158.70618,159.07727,73,100,40
158.70618,159.07727,76,100,40
159.08118,159.82727,74,70,40
159.08118,159.82727,76,70,40
159.83118,160.20227,74,100,40
159.83118,160.20227,76,100,40
160.20618,160.95227,64,70,40
160.20618,160.95227,76,70,40
160.95618,161.32727,64,100,40
160.95618,161.32727,76,100,40
161.33118,162.07727,64,70,40
161.33118,162.07727,76,70,40
162.08118,162.45227,64,100,40
162.08118,162.45227,76,100,40
162.45618,163.20227,64,70,40
162.45618,163.20227,76,70,40
163.20618,163.57727,64,100,40
163.20618,163.57727,76,100,40
163.58118,164.32727,64,70,40
163.58118,164.32727,76,70,40
164.33118,165.07727,76,100,40
165.08118,165.45227,76,70,40
165.45618,165.82727,75,70,40
165.83118,166.20227,76,70,40
166.95618,167.70227,73,70,40
166.95618,167.70227,76,70,40
167.70618,168.07727,73,100,40
167.70618,168.07727,76,100,40
168.08118,168.82727,74,70,40
168.08118,168.82727,76,70,40
168.83118,169.20227,74,100,40
168.83118,169.20227,76,100,40
169.20618,169.95227,64,70,40
169.20618,169.95227,76,70,40
169.95618,170.32727,64,100,40
169.95618,170.32727,76,100,40
170.33118,171.07727,64,70,40
170.33118,171.07727,76,70,40
171.08118,171.45227,64,100,40
171.08118,171.45227,76,100,40
171.45618,172.20227,64,70,40
171.45618,172.20227,76,70,40
172.20618,172.57727,64,100,40
172.20618,172.57727,76,100,40
172.58118,173.32727,64,70,40
172.58118,173.32727,76,70,40
173.33118,174.0964,76,100,40
174.1004,174.49625,76,70,40
174.50041,174.90709,75,70,40
174.91136,175.31804,76,70,40
180.26924,180.64034,76,70,40
180.64424,181.01534,88,70,40
181.01924,181.39034,83,74,40
181.39424,181.76534,85,79,40
181.76924,182.14034,86,83,40
182.14424,182.51534,81,88,40
182.51924,182.89034,83,92,40
182.89424,183.26534,85,97,40
183.26924,183.64034,83,101,40
183.64424,184.01534,81,106,40
184.01924,184.39034,80,110,40
184.76924,185.14034,76,70,40
185.14424,185.51534,73,70,40
185.51924,185.89034,76,70,40
185.89424,186.26534,81,70,40
186.26924,186.64034,81,70,40
186.64424,187.01534,80,70,40
187.01924,187.39034,81,100,40
187.39424,187.76534,83,70,40
187.76924,187.86299,85,70,40
187.86299,187.95674,83,70,40
187.95674,188.14034,82,70,40
188.14424,188.32784,83,70,40
188.33174,188.51534,85,70,40
188.51924,188.89034,83,70,40
188.89424,189.26534,81,70,40
189.26924,190.39034,88,100,40
190.39424,191.14034,88,100,40
191.14424,191.51534,86,70,40
191.51924,192.27959,86,100,40
192.28357,192.66913,85,70,40
192.67317,193.06902,83,70,40
193.07318,193.46901,81,70,40
198.39818,198.76927,76,70,40
198.77318,199.14427,88,70,40
199.14818,199.51927,83,74,40
199.52318,199.89427,85,79,40
199.89818,200.26927,86,83,40
200.27318,200.64427,81,88,40
200.64818,201.01927,83,92,40
201.02318,201.39427,85,97,40
201.39818,201.76927,83,101,40
201.77318,202.14427,81,106,40
202.14818,202.51927,80,110,40
202.89818,203.26927,76,70,40
203.27318,203.64427,73,70,40
203.64818,204.01927,76,70,40
204.02318,204.39427,81,70,40
204.39818,204.76927,81,70,40
204.77318,205.14427,80,70,40
205.14818,205.51927,81,100,40
205.52318,205.89427,83,70,40
205.89818,205.99193,85,70,40
205.99193,206.08568,83,70,40
206.08568,206.26927,82,70,40
206.27318,206.45677,83,70,40
206.46068,206.64427,85,70,40
206.64818,207.01927,83,70,40
207.02318,207.39427,81,70,40
207.39818,208.51927,88,100,40
208.52318,209.26927,88,100,40
209.27318,209.64427,86,70,40
209.64818,210.42342,86,100,40
210.42754,210.83421,85,70,40
210.83849,211.26259,83,70,40
211.26706,211.69116,81,70,40
212.1242,212.33403,73,70,40
212.55276,213.67386,76,70,40
213.67776,214.79886,71,70,40
214.80276,214.98636,74,70,40
214.99026,215.17386,73,70,40
215.17776,215.36136,71,70,40
215.36526,215.54886,69,70,40
215.55276,215.73636,68,70,40
215.74026,215.92386,69,70,40
215.92776,216.29886,73,70,40
216.30276,216.58011,71,70,40
216.67776,216.95511,73,70,40
217.05276,218.17386,76,70,40
218.17776,218.92386,73,70,40
218.92776,219.29886,73,70,40
219.30276,220.42386,81,70,40
220.42776,221.17386,75,70,40
221.17776,221.54886,75,70,40
221.55276,222.67386,83,70,40
222.67776,222.86136,81,70,40
222.86526,223.04886,80,70,40
223.05276,223.23636,78,70,40
223.24026,223.42386,76,70,40
223.42776,223.61607,75,70,40
223.62009,223.80838,76,70,40
223.8124,224.193,78,70,40
224.197,224.48146,81,70,40
224.58162,224.77745,75,70,40
224.98161,225.37746,76,70,40
226.55661,226.9277,69,70,40
226.93161,227.3027,73,70,40
227.68161,228.0527,76,70,40
228.05661,228.4277,80,70,40
228.80661,229.1777,81,70,40
229.18161,229.5527,85,70,40
229.55661,229.9277,88,70,40
231.05661,231.4277,69,70,40
231.43161,231.8027,73,70,40
232.18161,232.5527,73,70,40
232.55661,232.9277,81,70,40
233.30661,233.6777,75,70,40
233.68161,234.0527,78,70,40
234.43161,234.8027,78,70,40
234.80661,235.1777,83,70,40
235.55661,235.9277,76,70,40
235.93161,236.3027,80,70,40
236.68161,237.0527,80,70,40
237.05661,237.43723,85,70,40
237.82585,238.1103,85,70,40
238.21046,238.5063,81,70,40
238.61046,239.0063,80,70,40
239.41046,239.80629,64,70,40
239.81046,240.93155,74,70,40
240.93546,241.11905,73,70,40
241.12296,241.25967,76,70,40
241.31046,241.44717,74,70,40
241.49796,241.63467,73,70,40
241.68546,241.82217,71,70,40
241.87296,242.00967,69,70,40
242.06046,242.19717,68,70,40
242.24796,242.38467,64,70,40
242.43546,242.57217,68,70,40
242.62296,242.75967,71,70,40
242.81046,242.94717,76,70,40
242.99796,243.13467,78,70,40
243.18546,243.32217,80,70,40
243.37296,243.50967,76,70,40
243.56046,243.69717,80,70,40
243.74796,243.88467,81,70,40
243.93546,244.07217,83,70,40
244.12296,244.25967,85,70,40
244.31046,245.43155,86,70,40
245.43546,245.61905,85,70,40
245.62296,245.75967,88,70,40
245.81046,245.94717,86,70,40
245.99796,246.13467,85,70,40
246.18546,246.32217,83,70,40
246.37296,246.50967,81,70,40
246.56046,246.69717,80,70,40
246.74796,246.88467,78,70,40
246.93546,247.07217,76,70,40
247.12296,247.25967,75,70,40
247.31046,247.44717,76,70,40
247.49796,247.63467,78,70,40
247.68546,247.82217,80,70,40
247.87296,248.00967,81,70,40
248.06046,248.20068,82,70,40
248.25278,248.39299,83,70,40
248.44508,248.59091,84,70,40
248.64508,248.79091,85,70,40
248.84508,248.9909,86,70,40
249.04507,249.1818,83,70,40
249.23257,249.3693,80,70,40
249.42007,249.5568,74,70,40
249.60757,249.7443,86,70,40
249.79507,249.9318,86,70,40
249.98257,250.1193,85,70,40
250.17007,250.3068,81,70,40
250.35757,250.4943,78,70,40
250.54507,250.6818,73,70,40
250.73257,250.8693,85,70,40
250.92007,251.0568,85,70,40
251.10757,251.2443,85,70,40
251.29507,251.4318,80,70,40
251.48257,251.6193,76,70,40
251.67007,251.8068,73,70,40
251.85757,251.9943,85,70,40
252.04507,252.1818,85,70,40
252.23257,252.3693,85,70,40
252.42007,252.5568,79,70,40
252.60757,252.7443,76,70,40
252.79507,252.9318,73,70,40
252.98257,253.1193,85,70,40
253.17007,253.3068,85,70,40
253.35757,253.4943,80,70,40
253.54507,253.6818,76,70,40
253.73257,253.8693,73,70,40
253.92007,254.0568,68,70,40
254.10757,254.2478,68,70,40
254.29988,254.44011,68,70,40
254.49219,254.63242,68,70,40
254.6845,254.82472,63,70,40
254.8768,255.02264,60,70,40
255.07681,255.22264,56,70,40
255.27681,255.42664,56,70,40
255.48228,255.63853,56,70,40
255.69658,256.8618,61,70,40
256.8658,258.01566,64,78,40
258.01965,258.78488,63,86,40
258.78888,258.88504,64,92,40
258.88504,258.98117,63,93,40
258.98117,259.07733,61,94,40
259.07733,259.1735,63,94,40
259.1735,259.93872,68,95,40
259.94272,260.32333,60,101,40
260.32733,260.70795,61,103,40
260.71194,260.8081,63,106,40
260.8081,260.90427,61,107,40
260.90427,261.09256,60,108,40
261.09656,261.28488,61,109,40
261.28888,261.47717,63,110,40
261.48117,261.73758,64,120,40
261.86578,262.13977,64,120,40
262.27676,262.55072,64,120,40
264.5627,264.7463,73,70,40
264.9377,266.0588,76,70,40
266.0627,267.1838,71,70,40
267.1877,267.3713,74,70,40
267.3752,267.5588,73,70,40
267.5627,267.7463,71,70,40
267.7502,267.9338,69,70,40
267.9377,268.1213,68,70,40
268.1252,268.3088,69,70,40
268.3127,268.6838,73,70,40
268.6877,268.96506,71,70,40
269.0627,269.34006,73,70,40
269.4377,270.5588,76,70,40
270.5627,271.3088,73,70,40
271.3127,271.6838,73,70,40
271.6877,272.8088,81,70,40
272.8127,273.5588,75,70,40
273.5627,273.9338,75,70,40
273.9377,275.0588,83,70,40
275.0627,275.2463,81,70,40
275.2502,275.4338,79,70,40
275.4377,275.6213,78,70,40
275.6252,275.8088,76,70,40
275.8127,275.9963,79,70,40
276.0002,276.1838,76,70,40
276.1877,276.5588,74,70,40
276.5627,276.65646,76,70,40
276.65646,276.7502,74,70,40
276.7502,276.84396,73,70,40
276.84396,276.9377,74,70,40
276.9377,277.1213,78,70,40
277.1252,277.3088,76,70,40
277.3127,277.6838,74,70,40
281.4377,281.8088,69,70,40
281.8127,282.9338,81,70,40
282.9377,284.0588,76,70,40
284.0627,284.2463,79,70,40
284.2502,284.4338,78,70,40
284.4377,284.6213,76,70,40
284.6252,284.8088,74,70,40
284.8127,284.9963,73,70,40
285.0002,285.1838,74,70,40
285.1877,285.5588,78,70,40
285.5627,285.84006,76,70,40
285.9377,286.1213,69,70,40
286.3127,287.4338,81,70,40
287.4377,288.1838,78,77,40
288.1877,288.5588,78,81,40
288.5627,289.6838,86,84,40
289.6877,290.4338,80,91,40
290.4377,290.8088,80,95,40
290.8127,291.9338,88,98,40
291.9377,292.1213,86,105,40
292.1252,292.3088,85,106,40
292.3127,292.4963,83,107,40
292.5002,292.6838,81,108,40
292.6877,292.876,80,109,40
292.88004,293.06833,81,110,40
293.07233,293.45294,83,110,40
293.45694,293.7414,86,110,40
293.84155,294.1374,80,110,40
294.24155,294.6374,81,110,40
295.04156,295.43738,64,70,40
295.44156,296.5914,71,70,40
296.5954,297.74524,73,70,40
297.74924,297.8454,76,70,40
297.8454,297.94156,74,70,40
297.94156,298.0818,73,70,40
298.13385,298.27408,74,70,40
298.32617,298.4664,71,70,40
298.51846,298.6587,76,70,40
298.7108,298.851,74,70,40
298.9031,299.15952,73,70,40
299.28772,299.54413,81,70,40
300.05695,301.2068,83,90,40
301.2108,302.39087,85,100,40
302.395,302.99887,88,110,40
303.0031,303.155,86,70,40
303.21143,303.36768,85,70,40
303.42572,303.608,83,70,40
303.67572,304.1705,81,70,40
307.92572,308.1705,69,1,40
0.0,0.18359375,69,1,40
1.5,1.8710938,73,70,40
1.875,2.2460938,69,70,40
2.625,2.9960938,68,70,40
3.0,3.3710938,64,70,40
3.75,4.1210938,61,70,40
4.125,4.4960938,57,70,40
4.5,4.8710938,64,70,40
6.0,6.3710938,73,70,40
6.375,6.7460938,69,70,40
7.125,7.4960938,69,70,40
7.5,7.8710938,66,70,40
8.25,8.621094,78,70,40
8.625,8.996094,75,70,40
9.375,9.746094,71,70,40
9.75,10.121094,69,70,40
10.5,10.871094,68,70,40
10.875,11.246094,64,70,40
11.625,11.996094,73,70,40
12.0,12.371094,71,70,40
12.375,12.746094,69,70,40
12.75,12.938301,66,70,40
13.134615,13.330448,71,70,40
13.534615,13.930449,64,70,40
15.109615,15.480709,57,70,40
15.484615,15.855709,61,70,40
16.234615,16.60571,64,70,40
16.609615,16.98071,68,70,40
17.359615,17.73071,69,70,40
17.734615,18.10571,73,70,40
18.109615,18.48071,76,70,40
19.609615,19.98071,57,70,40
19.984615,20.35571,61,70,40
20.734615,21.10571,61,70,40
21.109615,21.48071,69,70,40
21.859615,22.23071,63,70,40
22.234615,22.60571,66,70,40
22.984615,23.35571,66,70,40
23.359615,23.73071,71,70,40
24.109615,24.48071,64,70,40
24.484615,24.85571,68,70,40
25.234615,25.60571,68,70,40
25.609615,25.990223,73,70,40
26.388966,26.680906,73,70,40
26.783703,27.083532,69,70,40
27.189108,27.590288,68,70,40
28.405321,29.526415,59,70,40
29.530321,30.651415,61,70,40
30.655321,31.026415,62,70,40
32.905323,34.026417,71,70,40
34.030323,35.151417,73,70,40
35.155323,35.526417,74,70,40
37.780323,38.151417,71,70,40
38.155323,38.526417,74,70,40
38.905323,39.276417,69,70,40
39.280323,39.651417,73,70,40
40.030323,40.401417,64,70,40
40.405323,40.776417,73,70,40
41.155323,41.526417,64,70,40
41.530323,41.901417,73,70,40
42.280323,42.651417,64,70,40
42.655323,43.03593,68,70,40
43.424553,43.812622,56,70,40
43.816708,44.22653,56,70,40
44.230995,45.380833,56,70,40
45.38484,46.534676,61,78,40
46.538685,48.457752,60,86,40
48.461758,48.65006,57,101,40
48.654064,48.842365,56,102,40
48.846375,49.996212,56,103,40
50.000217,50.25663,64,120,40
50.384834,50.6515,64,120,40
50.784832,51.0515,64,120,40
53.809834,54.180927,73,70,40
54.184834,54.555927,69,70,40
54.934834,55.305927,68,70,40
55.309834,55.680927,64,70,40
56.059834,56.430927,61,70,40
56.434834,56.805927,57,70,40
56.809834,57.180927,64,70,40
58.309834,58.680927,73,70,40
58.684834,59.055927,69,70,40
59.434834,59.805927,69,70,40
59.809834,60.180927,66,70,40
60.559834,60.930927,78,70,40
60.934834,61.305927,75,70,40
61.684834,62.055927,71,70,40
62.059834,62.430927,69,70,40
62.809834,63.180927,67,70,40
63.184834,63.555927,64,70,40
63.934834,64.30592,71,70,40
64.30983,64.68092,67,70,40
65.05983,65.43092,69,70,40
65.43483,65.80592,57,70,40
65.80983,66.18092,62,70,40
67.68483,68.05592,61,70,40
68.05983,69.18092,69,70,40
69.18483,70.30592,64,70,40
70.30983,70.49342,67,70,40
70.49733,70.68092,66,70,40
70.68483,70.86842,64,70,40
70.87233,71.05592,62,70,40
71.05983,71.24342,61,70,40
71.24733,71.43092,62,70,40
71.43483,71.61842,62,70,40
71.62233,71.80592,61,70,40
71.80983,71.99342,59,70,40
71.99733,72.18092,57,70,40
72.18483,72.36842,56,70,40
72.37233,72.55592,57,70,40
72.55983,73.68092,69,70,40
73.68483,73.86842,61,70,40
73.87233,74.05592,69,70,40
74.05983,74.24342,73,70,40
74.24733,74.43092,69,70,40
74.43483,74.61842,76,70,40
74.62233,74.80592,73,70,40
74.80983,75.18092,74,70,40
75.55983,76.68092,69,74,40
76.68483,77.80592,66,81,40
77.80983,78.55592,74,88,40
78.55983,78.93092,68,93,40
78.93483,80.05592,76,95,40
80.05983,81.18092,69,102,40
81.18483,81.55592,73,109,40
81.55983,81.93092,78,110,40
81.93483,82.21217,74,110,40
82.30983,82.58717,74,110,40
82.68483,83.05592,73,110,40
83.80983,84.93092,68,70,40
84.93483,86.05592,69,70,40
86.05983,86.30983,68,70,40
86.43483,86.68483,71,70,40
86.80983,87.05983,68,70,40
87.18483,87.43483,64,70,40
88.30983,89.43092,64,90,40
88.30983,89.43092,71,90,40
89.43483,90.58467,64,100,40
89.43483,90.58467,73,100,40
90.58868,91.18451,66,110,40
91.188675,91.33451,74,70,40
91.38868,91.538506,74,70,40
91.594154,91.750404,74,70,40
91.80844,92.23255,73,70,40
93.094154,94.21525,59,70,40
94.219154,95.34025,61,70,40
95.344154,95.71525,62,70,40
97.594154,98.71525,71,70,40
98.719154,99.84025,73,70,40
99.844154,100.21525,74,70,40
102.469154,102.84025,71,70,40
102.844154,103.21525,74,70,40
103.594154,103.96525,69,70,40
103.969154,104.34025,73,70,40
104.719154,105.09025,64,70,40
105.094154,105.46525,73,70,40
105.844154,106.21525,64,70,40
106.219154,106.59025,73,70,40
106.969154,107.34025,64,70,40
107.344154,107.72476,68,70,40
108.11339,108.50922,56,70,40
108.51339,108.92869,56,70,40
108.93315,110.08299,56,70,40
110.087,111.23683,61,78,40
111.24084,113.15991,60,86,40
113.16392,113.35222,57,101,40
113.356224,113.544525,56,102,40
113.54853,114.69837,56,103,40
114.70238,114.958786,64,120,40
115.08699,115.35366,64,120,40
115.48699,115.753654,64,120,40
118.51199,118.88309,73,70,40
118.88699,119.25809,69,70,40
119.63699,120.00809,68,70,40
120.01199,120.38309,64,70,40
120.76199,121.13309,61,70,40
121.13699,121.50809,57,70,40
121.51199,121.88309,64,70,40
123.01199,123.38309,73,70,40
123.38699,123.75809,69,70,40
124.13699,124.50809,69,70,40
124.51199,124.88309,66,70,40
125.26199,125.63309,78,70,40
125.63699,126.00809,75,70,40
126.38699,126.75809,71,70,40
126.76199,127.13309,69,70,40
127.51199,127.88309,67,70,40
127.88699,128.25809,64,70,40
128.637,129.00809,71,70,40
129.012,129.38309,67,70,40
129.762,130.13309,69,70,40
130.137,130.50809,57,70,40
130.512,130.88309,62,70,40
132.387,132.75809,61,70,40
132.762,133.88309,69,70,40
133.887,135.00809,64,70,40
135.012,135.19559,67,70,40
135.1995,135.38309,66,70,40
135.387,135.57059,64,70,40
135.5745,135.75809,62,70,40
135.762,135.94559,61,70,40
135.9495,136.13309,62,70,40
136.137,136.32059,62,70,40
136.3245,136.50809,61,70,40
136.512,136.69559,59,70,40
136.6995,136.88309,57,70,40
136.887,137.07059,56,70,40
137.0745,137.25809,57,70,40
137.262,138.38309,69,70,40
138.387,138.57059,61,70,40
138.5745,138.75809,69,70,40
138.762,138.94559,73,70,40
138.9495,139.13309,69,70,40
139.137,139.32059,76,70,40
139.3245,139.50809,73,70,40
139.512,139.88309,74,70,40
140.262,141.38309,69,74,40
141.387,142.50809,66,81,40
142.512,143.25809,74,88,40
143.262,143.63309,68,93,40
143.637,144.75809,76,95,40
144.762,145.88309,69,102,40
145.887,146.25809,73,109,40
146.262,146.63309,78,110,40
146.637,146.92145,74,110,40
147.0216,147.31355,74,110,40
147.41634,147.80696,73,110,40
148.60056,149.75038,68,70,40
149.7544,150.90424,69,70,40
150.90823,151.16464,68,70,40
151.29286,151.54927,71,70,40
151.67747,151.93388,68,70,40
152.06209,152.3185,64,70,40
153.21593,154.36577,64,90,40
153.21593,154.36577,71,90,40
154.36978,155.53455,64,100,40
154.36978,155.53455,73,100,40
155.5386,156.11896,66,110,40
156.12302,156.26506,74,70,40
156.31783,156.46365,74,70,40
156.51782,156.66765,74,70,40
156.7233,157.12997,73,70,40
157.54523,157.9519,64,70,40
157.95618,158.32727,61,70,40
158.33118,158.70227,64,70,40
158.70618,159.07727,69,100,40
159.08118,159.45227,69,70,40
159.45618,159.82727,68,70,40
159.83118,160.20227,69,100,40
160.20618,160.57727,71,70,40
160.58118,160.67493,73,70,40
160.67493,160.76868,71,70,40
160.76868,160.95227,70,70,40
160.95618,161.13977,71,70,40
161.14368,161.32727,73,70,40
161.33118,161.70227,71,70,40
161.70618,162.07727,69,70,40
162.08118,162.82727,69,100,40
162.83118,163.20227,68,70,40
163.20618,163.95227,67,100,40
163.95618,164.32727,66,70,40
164.33118,164.70227,68,100,40
164.70618,165.07727,69,70,40
165.08118,165.45227,66,70,40
165.45618,165.82727,71,70,40
165.83118,166.20227,64,70,40
166.58118,166.95227,64,70,40
166.95618,167.32727,61,70,40
167.33118,167.70227,64,70,40
167.70618,168.07727,69,100,40
168.08118,168.45227,69,70,40
168.45618,168.82727,68,70,40
168.83118,169.20227,69,100,40
169.20618,169.57727,71,70,40
169.58118,169.67493,73,70,40
169.67493,169.76868,71,70,40
169.76868,169.95227,70,70,40
169.95618,170.13977,71,70,40
170.14368,170.32727,73,70,40
170.33118,170.70227,71,70,40
170.70618,171.07727,69,70,40
171.08118,171.82727,69,100,40
171.83118,172.20227,68,70,40
172.20618,172.95227,67,100,40
172.95618,173.32727,66,70,40
173.33118,173.71179,68,100,40
173.71579,174.0964,69,70,40
174.1004,174.49625,66,70,40
174.50041,174.90709,71,70,40
174.91136,175.31804,64,70,40
176.14424,178.76534,64,70,40
178.76924,179.14034,64,70,40
179.14424,179.51534,63,70,40
179.51924,179.89034,64,70,40
179.89424,180.07784,75,70,40
180.08174,180.26534,76,70,40
180.26924,180.45284,75,70,40
180.45674,181.01534,76,70,40
181.01924,181.39034,71,74,40
181.39424,181.76534,73,79,40
181.76924,182.14034,74,83,40
182.14424,182.51534,69,88,40
182.51924,182.89034,71,92,40
182.89424,183.26534,73,97,40
183.26924,183.64034,71,101,40
183.64424,184.01534,69,106,40
184.01924,184.39034,68,110,40
184.76924,185.14034,64,70,40
185.14424,185.51534,61,70,40
185.51924,185.89034,64,70,40
185.89424,186.26534,69,70,40
186.26924,186.64034,69,70,40
186.64424,187.01534,68,70,40
187.01924,187.39034,69,100,40
187.39424,187.76534,71,70,40
187.76924,187.86299,73,70,40
187.86299,187.95674,71,70,40
187.95674,188.14034,70,70,40
188.14424,188.32784,71,70,40
188.33174,188.51534,73,70,40
188.51924,188.89034,71,70,40
188.89424,189.26534,69,70,40
189.26924,190.01534,69,100,40
190.01924,190.39034,68,70,40
190.39424,191.14034,67,100,40
191.14424,191.51534,66,70,40
191.51924,192.27959,71,100,40
192.28357,192.66913,69,70,40
192.67317,193.06902,68,70,40
193.07318,193.46901,69,70,40
194.27318,196.89427,64,70,40
196.89818,197.26927,64,70,40
197.27318,197.64427,63,70,40
197.64818,198.01927,64,70,40
198.02318,198.20677,75,70,40
198.21068,198.39427,76,70,40
198.39818,198.58177,75,70,40
198.58568,199.14427,76,70,40
199.14818,199.51927,71,74,40
199.52318,199.89427,73,79,40
199.89818,200.26927,74,83,40
200.27318,200.64427,69,88,40
200.64818,201.01927,71,92,40
201.02318,201.39427,73,97,40
201.39818,201.76927,71,101,40
201.77318,202.14427,69,106,40
202.14818,202.51927,68,110,40
202.89818,203.26927,64,70,40
203.27318,203.64427,61,70,40
203.64818,204.01927,64,70,40
204.02318,204.39427,69,70,40
204.39818,204.76927,69,70,40
204.77318,205.14427,68,70,40
205.14818,205.51927,69,100,40
205.52318,205.89427,71,70,40
205.89818,205.99193,73,70,40
205.99193,206.08568,71,70,40
206.08568,206.26927,70,70,40
206.27318,206.45677,71,70,40
206.46068,206.64427,73,70,40
206.64818,207.01927,71,70,40
207.02318,207.39427,69,70,40
207.39818,208.14427,69,100,40
208.14818,208.51927,68,70,40
208.52318,209.26927,67,100,40
209.27318,209.64427,66,70,40
209.64818,210.42342,71,100,40
210.42754,210.83421,69,70,40
210.83849,211.26259,68,70,40
211.26706,211.69116,69,70,40
212.92776,213.29886,73,70,40
213.30276,213.67386,69,70,40
214.05276,214.42386,68,70,40
214.42776,214.79886,64,70,40
215.17776,215.54886,61,70,40
215.55276,215.92386,57,70,40
215.92776,216.29886,64,70,40
217.42776,217.79886,73,70,40
217.80276,218.17386,69,70,40
218.55276,218.92386,69,70,40
218.92776,219.29886,66,70,40
219.67776,220.04886,78,70,40
220.05276,220.42386,75,70,40
220.80276,221.17386,71,70,40
221.17776,221.54886,69,70,40
221.92776,222.29886,68,70,40
222.30276,222.67386,64,70,40
223.05276,223.42386,73,70,40
223.42776,223.80838,71,70,40
223.8124,224.193,69,70,40
224.197,224.3853,66,70,40
224.58162,224.77745,71,70,40
224.98161,225.37746,64,70,40
226.55661,226.9277,57,70,40
226.93161,227.3027,61,70,40
227.68161,228.0527,64,70,40
228.05661,228.4277,68,70,40
228.80661,229.1777,69,70,40
229.18161,229.5527,73,70,40
229.55661,229.9277,76,70,40
231.05661,231.4277,57,70,40
231.43161,231.8027,61,70,40
232.18161,232.5527,61,70,40
232.55661,232.9277,69,70,40
233.30661,233.6777,63,70,40
233.68161,234.0527,66,70,40
234.43161,234.8027,66,70,40
234.80661,235.1777,71,70,40
235.55661,235.9277,64,70,40
235.93161,236.3027,68,70,40
236.68161,237.0527,68,70,40
237.05661,237.43723,73,70,40
237.82585,238.1103,73,70,40
238.21046,238.5063,69,70,40
238.61046,239.0063,68,70,40
239.81046,240.93155,59,70,40
240.93546,242.05655,61,70,40
242.06046,242.43155,62,70,40
244.31046,245.43155,71,70,40
245.43546,246.55655,73,70,40
246.56046,246.93155,74,70,40
249.23257,249.60367,71,70,40
249.60757,249.97867,74,70,40
250.35757,250.72867,69,70,40
250.73257,251.10367,73,70,40
251.48257,251.85367,64,70,40
251.85757,252.22867,73,70,40
252.60757,252.97867,64,70,40
252.98257,253.35367,73,70,40
253.73257,254.10367,64,70,40
254.10757,254.48819,68,70,40
254.8768,255.27264,56,70,40
255.27681,255.69211,56,70,40
255.69658,256.8618,56,70,40
256.8658,258.01566,61,78,40
258.01965,259.93872,60,86,40
259.94272,260.131,57,101,40
260.13504,260.32333,56,102,40
260.32733,261.47717,56,103,40
261.48117,261.73758,64,120,40
261.86578,262.13977,64,120,40
262.27676,262.55072,64,120,40
265.3127,265.6838,73,70,40
265.6877,266.0588,69,70,40
266.4377,266.8088,68,70,40
266.8127,267.1838,64,70,40
267.5627,267.9338,61,70,40
267.9377,268.3088,57,70,40
268.3127,268.6838,64,70,40
269.8127,270.1838,73,70,40
270.1877,270.5588,69,70,40
270.9377,271.3088,69,70,40
271.3127,271.6838,66,70,40
272.0627,272.4338,78,70,40
272.4377,272.8088,75,70,40
273.1877,273.5588,71,70,40
273.5627,273.9338,69,70,40
274.3127,274.6838,67,70,40
274.6877,275.0588,64,70,40
275.4377,275.8088,71,70,40
275.8127,276.1838,67,70,40
276.5627,276.9338,69,70,40
276.9377,277.3088,57,70,40
277.3127,277.6838,62,70,40
279.1877,279.5588,61,70,40
279.5627,280.6838,69,70,40
280.6877,281.8088,64,70,40
281.8127,281.9963,67,70,40
282.0002,282.1838,66,70,40
282.1877,282.3713,64,70,40
282.3752,282.5588,62,70,40
282.5627,282.7463,61,70,40
282.7502,282.9338,62,70,40
282.9377,283.1213,62,70,40
283.1252,283.3088,61,70,40
283.3127,283.4963,59,70,40
283.5002,283.6838,57,70,40
283.6877,283.8713,56,70,40
283.8752,284.0588,57,70,40
284.0627,285.1838,69,70,40
285.1877,285.3713,61,70,40
285.3752,285.5588,69,70,40
285.5627,285.7463,73,70,40
285.7502,285.9338,69,70,40
285.9377,286.1213,76,70,40
286.1252,286.3088,73,70,40
286.3127,286.6838,74,70,40
287.0627,288.1838,69,74,40
288.1877,289.3088,66,81,40
289.3127,290.0588,74,88,40
290.0627,290.4338,68,93,40
290.4377,291.5588,76,95,40
291.5627,292.6838,69,102,40
292.6877,293.06833,73,109,40
293.07233,293.45294,78,110,40
293.45694,293.7414,74,110,40
293.84155,294.1374,74,110,40
294.24155,294.6374,73,110,40
295.44156,296.5914,68,70,40
296.5954,297.74524,69,70,40
297.74924,298.00565,68,70,40
298.13385,298.39026,71,70,40
298.51846,298.7749,68,70,40
298.9031,299.15952,64,70,40
300.05695,301.2068,64,90,40
300.05695,301.2068,71,90,40
301.2108,302.39087,64,100,40
301.2108,302.39087,73,100,40
302.395,302.99887,66,110,40
303.0031,303.155,74,70,40
303.21143,303.36768,74,70,40
303.42572,303.608,74,70,40
303.67572,304.1705,73,70,40
0.0,0.18359375,57,1,41
14.334615,14.530448,61,70,41
14.734615,15.855709,64,70,41
15.859615,16.98071,59,70,41
16.984615,17.16821,62,70,41
17.172115,17.35571,61,70,41
17.359615,17.54321,59,70,41
17.547115,17.73071,57,70,41
17.734615,17.91821,56,70,41
17.922115,18.10571,57,70,41
18.109615,18.48071,61,70,41
18.484615,18.76196,59,70,41
18.859615,19.04321,61,70,41
19.234615,20.35571,64,70,41
20.359615,21.10571,61,70,41
21.109615,21.48071,61,70,41
21.484615,22.60571,69,70,41
22.609615,23.35571,63,70,41
23.359615,23.73071,63,70,41
23.734615,24.85571,71,70,41
24.859615,25.04321,69,70,41
25.047115,25.23071,68,70,41
25.234615,25.41821,66,70,41
25.422115,25.60571,64,70,41
25.609615,25.797916,63,70,41
25.801922,25.990223,64,70,41
25.99423,26.384853,66,70,41
26.388966,26.680906,69,70,41
26.783703,27.083532,63,70,41
27.189108,27.590288,64,70,41
28.405321,29.526415,56,70,41
29.530321,30.651415,57,70,41
30.655321,31.026415,59,70,41
32.905323,34.026417,68,70,41
34.030323,35.151417,69,70,41
35.155323,35.526417,71,70,41
37.780323,38.151417,68,70,41
38.155323,38.526417,71,70,41
38.905323,39.276417,61,70,41
39.280323,39.651417,69,70,41
40.030323,40.401417,61,70,41
40.405323,40.776417,64,70,41
41.155323,41.526417,61,70,41
41.530323,41.901417,64,70,41
42.280323,42.651417,61,70,41
42.655323,43.03593,64,70,41
43.424553,43.812622,54,70,41
43.816708,44.22653,54,70,41
44.230995,45.380833,52,70,41
45.38484,46.534676,56,78,41
46.538685,47.1116,57,86,41
47.115604,47.303905,56,91,41
47.307915,47.496216,57,92,41
47.50022,47.688522,56,94,41
47.692528,48.073135,54,95,41
48.077145,48.457752,54,98,41
48.461758,48.842365,54,101,41
48.846375,49.996212,52,103,41
50.000217,50.25663,52,120,41
50.384834,50.6515,52,120,41
50.784832,51.0515,52,120,41
65.43483,65.80592,57,70,41
65.80983,66.93092,69,70,41
66.93483,68.05592,64,70,41
68.05983,68.24342,67,70,41
68.24733,68.43092,66,70,41
68.43483,68.61842,64,70,41
68.62233,68.80592,62,70,41
68.80983,68.99342,61,70,41
68.99733,69.18092,62,70,41
69.18483,69.36842,62,70,41
69.37233,69.55592,61,70,41
69.55983,69.74342,59,70,41
69.74733,69.93092,57,70,41
69.93483,70.11842,59,70,41
70.12233,70.30592,61,70,41
70.30983,70.68092,62,70,41
70.68483,71.05592,69,70,41
71.43483,71.80592,57,70,41
71.80983,72.18092,64,70,41
72.55983,72.93092,57,70,41
72.93483,73.30592,66,70,41
73.68483,74.05592,57,70,41
74.05983,74.43092,67,70,41
74.80983,75.18092,66,70,41
75.18483,75.55592,62,72,41
75.93483,76.30592,57,77,41
76.30983,76.68092,62,79,41
77.05983,77.43092,59,84,41
77.43483,77.80592,62,86,41
78.18483,78.55592,59,91,41
78.55983,78.93092,64,93,41
79.30983,79.68092,61,98,41
79.68483,80.05592,57,100,41
80.43483,80.80592,61,105,41
80.80983,81.18092,66,107,41
81.18483,81.93092,66,109,41
81.93483,82.21217,62,110,41
82.30983,82.58717,59,110,41
82.68483,83.05592,57,110,41
83.80983,84.93092,64,70,41
84.93483,86.05592,64,70,41
86.05983,86.30983,64,70,41
86.43483,86.68483,64,70,41
86.80983,87.05983,64,70,41
87.18483,87.43483,64,70,41
88.30983,89.43092,56,90,41
89.43483,90.58467,57,100,41
90.58868,90.98451,57,110,41
90.98868,91.284515,69,70,41
91.38868,91.69684,68,70,41
91.80844,92.23255,69,70,41
93.094154,94.21525,56,70,41
94.219154,95.34025,57,70,41
95.344154,95.71525,59,70,41
97.594154,98.71525,68,70,41
98.719154,99.84025,69,70,41
99.844154,100.21525,71,70,41
102.469154,102.84025,68,70,41
102.844154,103.21525,71,70,41
103.594154,103.96525,61,70,41
103.969154,104.34025,69,70,41
104.719154,105.09025,61,70,41
105.094154,105.46525,64,70,41
105.844154,106.21525,61,70,41
106.219154,106.59025,64,70,41
106.969154,107.34025,61,70,41
107.344154,107.72476,64,70,41
108.11339,108.50922,54,70,41
108.51339,108.92869,54,70,41
108.93315,110.08299,52,70,41
110.087,111.23683,56,78,41
111.24084,111.81376,57,86,41
111.817764,112.006065,56,91,41
112.01007,112.19837,57,92,41
112.20238,112.39068,56,94,41
112.394684,112.77529,54,95,41
112.7793,113.15991,54,98,41
113.16392,113.544525,54,101,41
113.54853,114.69837,52,103,41
114.70238,114.958786,52,120,41
115.08699,115.35366,52,120,41
115.48699,115.753654,52,120,41
130.137,130.50809,57,70,41
130.512,131.63309,69,70,41
131.637,132.75809,64,70,41
132.762,132.94559,67,70,41
132.9495,133.13309,66,70,41
133.137,133.32059,64,70,41
133.3245,133.50809,62,70,41
133.512,133.69559,61,70,41
133.6995,133.88309,62,70,41
133.887,134.07059,62,70,41
134.0745,134.25809,61,70,41
134.262,134.44559,59,70,41
134.4495,134.63309,57,70,41
134.637,134.82059,59,70,41
134.8245,135.00809,61,70,41
135.012,135.38309,62,70,41
135.387,135.75809,69,70,41
136.137,136.50809,57,70,41
136.512,136.88309,64,70,41
137.262,137.63309,57,70,41
137.637,138.00809,66,70,41
138.387,138.75809,57,70,41
138.762,139.13309,67,70,41
139.512,139.88309,66,70,41
139.887,140.25809,62,72,41
140.637,141.00809,57,77,41
141.012,141.38309,62,79,41
141.762,142.13309,59,84,41
142.137,142.50809,62,86,41
142.887,143.25809,59,91,41
143.262,143.63309,64,93,41
144.012,144.38309,61,98,41
144.387,144.75809,57,100,41
145.137,145.50809,61,105,41
145.512,145.88309,66,107,41
145.887,146.63309,66,109,41
146.637,146.92145,62,110,41
147.0216,147.31355,59,110,41
147.41634,147.80696,57,110,41
148.60056,149.75038,64,70,41
149.7544,150.90424,64,70,41
150.90823,151.16464,64,70,41
151.29286,151.54927,64,70,41
151.67747,151.93388,64,70,41
152.06209,152.3185,64,70,41
153.21593,154.36577,56,90,41
154.36978,155.53455,57,100,41
155.5386,155.92415,57,110,41
155.9282,156.21637,69,70,41
156.31783,156.61629,68,70,41
156.7233,157.12997,69,70,41
157.54523,157.9519,52,70,41
157.95618,158.32727,49,70,41
158.33118,158.70227,52,70,41
158.70618,159.07727,57,100,41
159.08118,159.45227,57,70,41
159.45618,159.82727,56,70,41
159.83118,160.20227,57,100,41
160.20618,160.57727,59,70,41
160.58118,160.67493,61,70,41
160.67493,160.76868,59,70,41
160.76868,160.95227,58,70,41
160.95618,161.13977,59,70,41
161.14368,161.32727,61,70,41
161.33118,161.70227,59,70,41
161.70618,162.07727,57,70,41
162.08118,162.82727,57,100,41
162.83118,163.20227,56,70,41
163.20618,163.95227,55,100,41
163.95618,164.32727,54,70,41
164.33118,164.70227,56,100,41
164.70618,165.07727,57,70,41
165.08118,165.45227,54,70,41
165.45618,165.82727,59,70,41
165.83118,166.20227,52,70,41
166.58118,166.95227,52,70,41
166.95618,167.32727,49,70,41
167.33118,167.70227,52,70,41
167.70618,168.07727,57,100,41
168.08118,168.45227,57,70,41
168.45618,168.82727,56,70,41
168.83118,169.20227,57,100,41
169.20618,169.57727,59,70,41
169.58118,169.67493,61,70,41
169.67493,169.76868,59,70,41
169.76868,169.95227,58,70,41
169.95618,170.13977,59,70,41
170.14368,170.32727,61,70,41
170.33118,170.70227,59,70,41
170.70618,171.07727,57,70,41
171.08118,171.82727,57,100,41
171.83118,172.20227,56,70,41
172.20618,172.95227,55,100,41
172.95618,173.32727,54,70,41
173.33118,173.71179,56,100,41
173.71579,174.0964,57,70,41
174.1004,174.49625,54,70,41
174.50041,174.90709,59,70,41
174.91136,175.31804,52,70,41
175.73328,176.13995,64,70,41
176.14424,176.51534,76,70,41
176.51924,176.89034,71,70,41
176.89424,177.26534,73,70,41
177.26924,177.64034,74,70,41
177.64424,178.01534,69,70,41
178.01924,178.39034,71,70,41
178.39424,178.76534,73,70,41
178.76924,179.14034,71,70,41
179.14424,179.51534,69,70,41
179.51924,179.89034,68,70,41
179.89424,180.26534,52,70,41
180.26924,180.64034,52,70,41
180.64424,183.26534,52,110,41
183.26924,183.64034,64,101,41
183.64424,184.01534,64,106,41
184.01924,184.39034,64,110,41
184.39424,184.76534,63,90,41
184.76924,185.14034,62,70,41
185.14424,185.89034,52,70,41
185.14424,185.89034,61,70,41
185.89424,186.26534,52,70,41
185.89424,186.26534,61,70,41
186.26924,187.01534,52,70,41
186.26924,187.01534,62,70,41
187.01924,187.39034,52,100,41
187.01924,187.39034,62,100,41
187.39424,188.14034,52,70,41
187.39424,188.14034,62,70,41
188.14424,188.51534,52,70,41
188.14424,188.51534,62,70,41
188.51924,189.26534,52,70,41
188.51924,189.26534,61,70,41
189.26924,190.01534,57,100,41
190.01924,190.39034,56,70,41
190.39424,191.14034,55,100,41
191.14424,191.51534,54,70,41
191.51924,192.27959,59,100,41
192.28357,192.66913,57,70,41
192.67317,193.06902,62,70,41
193.07318,193.46901,61,70,41
193.87318,194.26901,64,70,41
194.27318,194.64427,76,70,41
194.64818,195.01927,71,70,41
195.02318,195.39427,73,70,41
195.39818,195.76927,74,70,41
195.77318,196.14427,69,70,41
196.14818,196.51927,71,70,41
196.52318,196.89427,73,70,41
196.89818,197.26927,71,70,41
197.27318,197.64427,69,70,41
197.64818,198.01927,68,70,41
198.02318,198.39427,52,70,41
198.39818,198.76927,52,70,41
198.77318,201.39427,52,110,41
201.39818,201.76927,64,101,41
201.77318,202.14427,64,106,41
202.14818,202.51927,64,110,41
202.52318,202.89427,63,90,41
202.89818,203.26927,62,70,41
203.27318,204.01927,52,70,41
203.27318,204.01927,61,70,41
204.02318,204.39427,52,70,41
204.02318,204.39427,61,70,41
204.39818,205.14427,52,70,41
204.39818,205.14427,62,70,41
205.14818,205.51927,52,100,41
205.14818,205.51927,62,100,41
205.52318,206.26927,52,70,41
205.52318,206.26927,62,70,41
206.27318,206.64427,52,70,41
206.27318,206.64427,62,70,41
206.64818,207.39427,52,70,41
206.64818,207.39427,61,70,41
207.39818,208.14427,57,100,41
208.14818,208.51927,56,70,41
208.52318,209.26927,55,100,41
209.27318,209.64427,54,70,41
209.64818,210.42342,59,100,41
210.42754,210.83421,57,70,41
210.83849,211.26259,62,70,41
211.26706,211.69116,61,70,41
225.78162,225.97745,61,70,41
226.18161,227.3027,64,70,41
227.30661,228.4277,59,70,41
228.43161,228.6152,62,70,41
228.61911,228.8027,61,70,41
228.80661,228.9902,59,70,41
228.99411,229.1777,57,70,41
229.18161,229.3652,56,70,41
229.36911,229.5527,57,70,41
229.55661,229.9277,61,70,41
229.93161,230.20895,59,70,41
230.30661,230.4902,61,70,41
230.68161,231.8027,64,70,41
231.80661,232.5527,61,70,41
232.55661,232.9277,61,70,41
232.93161,234.0527,69,70,41
234.05661,234.8027,63,70,41
234.80661,235.1777,63,70,41
235.18161,236.3027,71,70,41
236.30661,236.4902,69,70,41
236.49411,236.6777,68,70,41
236.68161,236.8652,66,70,41
236.86911,237.0527,64,70,41
237.05661,237.24492,63,70,41
237.24893,237.43723,64,70,41
237.44124,237.82184,66,70,41
237.82585,238.1103,69,70,41
238.21046,238.5063,63,70,41
238.61046,239.0063,64,70,41
239.81046,240.93155,56,70,41
240.93546,242.05655,57,70,41
242.06046,242.43155,59,70,41
244.31046,245.43155,68,70,41
245.43546,246.55655,69,70,41
246.56046,246.93155,71,70,41
249.23257,249.60367,68,70,41
249.60757,249.97867,71,70,41
250.35757,250.72867,61,70,41
250.73257,251.10367,69,70,41
251.48257,251.85367,61,70,41
251.85757,252.22867,64,70,41
252.60757,252.97867,61,70,41
252.98257,253.35367,64,70,41
253.73257,254.10367,61,70,41
254.10757,254.48819,64,70,41
254.8768,255.27264,54,70,41
255.27681,255.69211,54,70,41
255.69658,256.8618,52,70,41
256.8658,258.01566,56,78,41
258.01965,258.59256,57,86,41
258.59656,258.78488,56,91,41
258.78888,258.97717,57,92,41
258.98117,259.1695,56,94,41
259.1735,259.5541,54,95,41
259.5581,259.93872,54,98,41
259.94272,260.32333,54,101,41
260.32733,261.47717,52,103,41
261.48117,261.73758,52,120,41
261.86578,262.13977,52,120,41
262.27676,262.55072,52,120,41
276.9377,277.3088,57,70,41
277.3127,278.4338,69,70,41
278.4377,279.5588,64,70,41
279.5627,279.7463,67,70,41
279.7502,279.9338,66,70,41
279.9377,280.1213,64,70,41
280.1252,280.3088,62,70,41
280.3127,280.4963,61,70,41
280.5002,280.6838,62,70,41
280.6877,280.8713,62,70,41
280.8752,281.0588,61,70,41
281.0627,281.2463,59,70,41
281.2502,281.4338,57,70,41
281.4377,281.6213,59,70,41
281.6252,281.8088,61,70,41
281.8127,282.1838,62,70,41
282.1877,282.5588,69,70,41
282.9377,283.3088,57,70,41
283.3127,283.6838,64,70,41
284.0627,284.4338,57,70,41
284.4377,284.8088,66,70,41
285.1877,285.5588,57,70,41
285.5627,285.9338,67,70,41
286.3127,286.6838,66,70,41
286.6877,287.0588,62,72,41
287.4377,287.8088,57,77,41
287.8127,288.1838,62,79,41
288.5627,288.9338,59,84,41
288.9377,289.3088,62,86,41
289.6877,290.0588,59,91,41
290.0627,290.4338,64,93,41
290.8127,291.1838,61,98,41
291.1877,291.5588,57,100,41
291.9377,292.3088,61,105,41
292.3127,292.6838,66,107,41
292.6877,293.45294,66,109,41
293.45694,293.7414,62,110,41
293.84155,294.1374,59,110,41
294.24155,294.6374,57,110,41
295.44156,296.5914,64,70,41
296.5954,297.74524,64,70,41
297.74924,298.00565,64,70,41
298.13385,298.39026,64,70,41
298.51846,298.7749,64,70,41
298.9031,299.15952,64,70,41
300.05695,301.2068,56,90,41
301.2108,302.39087,57,100,41
302.395,302.79617,57,110,41
302.80038,303.10294,69,70,41
303.21143,303.5455,68,70,41
303.67572,304.1705,69,70,41
0.0,0.18359375,57,1,42
15.109615,15.480709,61,70,42
15.484615,15.855709,57,70,42
16.234615,16.60571,56,70,42
16.609615,16.98071,52,70,42
17.359615,17.73071,49,70,42
17.734615,18.10571,45,70,42
18.109615,18.48071,40,70,42
19.609615,19.98071,61,70,42
19.984615,20.35571,57,70,42
20.734615,21.10571,57,70,42
21.109615,21.48071,54,70,42
21.859615,22.23071,54,70,42
22.234615,22.60571,51,70,42
22.984615,23.35571,47,70,42
23.359615,23.73071,45,70,42
24.109615,24.48071,44,70,42
24.484615,24.85571,40,70,42
25.234615,25.60571,49,70,42
25.609615,25.990223,47,70,42
25.99423,26.384853,45,70,42
26.388966,26.680906,42,70,42
26.783703,27.083532,47,70,42
27.189108,27.590288,40,70,42
28.405321,28.776415,52,70,42
28.780321,29.151415,52,70,42
29.155321,29.526415,52,70,42
29.530321,29.901415,52,70,42
29.905321,30.276415,52,70,42
30.280321,30.651415,52,70,42
30.655321,31.026415,52,70,42
32.905323,33.276417,64,70,42
33.280323,33.651417,64,70,42
33.655323,34.026417,64,70,42
34.030323,34.401417,64,70,42
34.405323,34.776417,64,70,42
34.780323,35.151417,64,70,42
35.155323,35.526417,64,70,42
37.405323,37.776417,53,70,42
38.530323,38.901417,54,70,42
39.655323,40.026417,56,70,42
40.780323,41.151417,57,70,42
41.905323,42.276417,56,70,42
43.039936,43.420547,44,70,42
44.230995,44.611603,37,70,42
44.61561,44.996216,37,72,42
45.000225,45.380833,37,75,42
45.38484,45.765446,37,78,42
45.769455,46.150063,37,81,42
46.154068,46.534676,37,84,42
46.538685,46.919292,37,86,42
46.923298,47.303905,37,89,42
47.307915,47.688522,37,92,42
47.692528,48.073135,37,95,42
48.077145,48.457752,37,98,42
48.461758,48.842365,37,101,42
48.846375,49.226982,37,103,42
49.230988,49.6116,37,106,42
49.615604,49.996212,37,109,42
50.000217,50.25663,49,120,42
50.384834,50.6515,49,120,42
50.784832,51.0515,49,120,42
66.18483,66.55592,54,70,42
66.55983,66.93092,50,70,42
67.30983,67.68092,49,70,42
67.68483,68.05592,45,70,42
68.43483,68.80592,38,70,42
68.80983,69.18092,42,70,42
69.55983,69.93092,45,70,42
69.93483,70.30592,55,70,42
70.68483,71.05592,54,70,42
71.05983,71.43092,45,70,42
71.80983,72.18092,49,70,42
72.18483,72.55592,45,70,42
72.93483,73.30592,50,70,42
73.30983,73.68092,45,70,42
74.05983,74.43092,57,70,42
74.43483,74.80592,55,70,42
75.18483,75.55592,54,72,42
75.55983,75.93092,50,74,42
76.30983,76.68092,49,79,42
76.68483,77.05592,50,81,42
77.43483,77.80592,46,86,42
77.80983,78.18092,47,88,42
78.55983,78.93092,52,93,42
78.93483,79.30592,50,95,42
79.68483,80.05592,48,100,42
80.05983,80.43092,49,102,42
80.80983,81.18092,54,107,42
81.18483,81.55592,52,109,42
81.55983,81.93092,50,110,42
81.93483,82.21217,47,110,42
82.30983,82.58717,52,110,42
82.68483,83.05592,45,110,42
83.80983,84.93092,62,70,42
84.93483,86.05592,61,70,42
86.05983,86.30983,59,70,42
86.43483,86.68483,56,70,42
86.80983,87.05983,52,70,42
87.18483,87.43483,57,70,42
88.30983,89.43092,50,90,42
89.43483,90.58467,49,100,42
90.58868,91.384514,47,110,42
91.38868,91.80398,52,70,42
91.80844,92.23255,45,70,42
93.094154,93.46525,52,70,42
93.469154,93.84025,52,70,42
93.844154,94.21525,52,70,42
94.219154,94.59025,52,70,42
94.594154,94.96525,52,70,42
94.969154,95.34025,52,70,42
95.344154,95.71525,52,70,42
97.594154,97.96525,64,70,42
97.969154,98.34025,64,70,42
98.344154,98.71525,64,70,42
98.719154,99.09025,64,70,42
99.094154,99.46525,64,70,42
99.469154,99.84025,64,70,42
99.844154,100.21525,64,70,42
102.094154,102.46525,53,70,42
103.219154,103.59025,54,70,42
104.344154,104.71525,56,70,42
105.469154,105.84025,57,70,42
106.594154,106.96525,56,70,42
107.72877,108.10938,44,70,42
108.93315,109.31376,37,70,42
109.317764,109.69837,37,72,42
109.70238,110.08299,37,75,42
110.087,110.467606,37,78,42
110.47161,110.85222,37,81,42
110.856224,111.23683,37,84,42
111.24084,111.62145,37,86,42
111.62546,112.006065,37,89,42
112.01007,112.39068,37,92,42
112.394684,112.77529,37,95,42
112.7793,113.15991,37,98,42
113.16392,113.544525,37,101,42
113.54853,113.92914,37,103,42
113.93314,114.31375,37,106,42
114.317764,114.69837,37,109,42
114.70238,114.958786,49,120,42
115.08699,115.35366,49,120,42
115.48699,115.753654,49,120,42
130.887,131.25809,54,70,42
131.262,131.63309,50,70,42
132.012,132.38309,49,70,42
132.387,132.75809,45,70,42
133.137,133.50809,38,70,42
133.512,133.88309,42,70,42
134.262,134.63309,45,70,42
134.637,135.00809,55,70,42
135.387,135.75809,54,70,42
135.762,136.13309,45,70,42
136.512,136.88309,49,70,42
136.887,137.25809,45,70,42
137.637,138.00809,50,70,42
138.012,138.38309,45,70,42
138.762,139.13309,57,70,42
139.137,139.50809,55,70,42
139.887,140.25809,54,72,42
140.262,140.63309,50,74,42
141.012,141.38309,49,79,42
141.387,141.75809,50,81,42
142.137,142.50809,46,86,42
142.512,142.88309,47,88,42
143.262,143.63309,52,93,42
143.637,144.00809,50,95,42
144.387,144.75809,48,100,42
144.762,145.13309,49,102,42
145.512,145.88309,54,107,42
145.887,146.25809,52,109,42
146.262,146.63309,50,110,42
146.637,146.92145,47,110,42
147.0216,147.31355,52,110,42
147.41634,147.80696,45,110,42
148.60056,149.75038,62,70,42
149.7544,150.90424,61,70,42
150.90823,151.16464,59,70,42
151.29286,151.54927,56,70,42
151.67747,151.93388,52,70,42
152.06209,152.3185,57,70,42
153.21593,154.36577,50,90,42
154.36978,155.53455,49,100,42
155.5386,156.31377,47,110,42
156.31783,156.71902,52,70,42
156.7233,157.12997,45,70,42
157.95618,158.70227,45,70,42
158.70618,159.07727,40,100,42
159.08118,159.82727,47,70,42
159.83118,160.20227,40,100,42
160.20618,160.95227,50,70,42
160.95618,161.32727,40,100,42
161.33118,162.07727,49,70,42
162.08118,162.45227,49,100,42
162.45618,163.20227,47,70,42
163.20618,163.57727,46,100,42
163.58118,164.32727,47,70,42
164.33118,164.70227,59,100,42
164.70618,165.45227,47,70,42
165.45618,165.82727,59,70,42
165.83118,166.20227,52,70,42
166.95618,167.70227,45,70,42
167.70618,168.07727,40,100,42
168.08118,168.82727,47,70,42
168.83118,169.20227,40,100,42
169.20618,169.95227,50,70,42
169.95618,170.32727,40,100,42
170.33118,171.07727,49,70,42
171.08118,171.45227,49,100,42
171.45618,172.20227,47,70,42
172.20618,172.57727,46,100,42
172.58118,173.32727,47,70,42
173.33118,173.71179,59,100,42
173.71579,174.49625,47,70,42
174.50041,174.90709,59,70,42
174.91136,175.31804,52,70,42
176.14424,176.51534,61,70,42
176.51924,176.89034,56,70,42
176.89424,177.26534,57,70,42
177.26924,177.64034,59,70,42
177.64424,178.01534,54,70,42
178.01924,178.39034,56,70,42
178.39424,178.76534,57,70,42
178.76924,179.14034,56,70,42
179.14424,179.51534,54,70,42
179.51924,179.89034,52,70,42
180.64424,181.01534,49,70,42
181.01924,181.39034,44,74,42
181.39424,181.76534,45,79,42
181.76924,182.14034,47,83,42
182.14424,182.51534,42,88,42
182.51924,182.89034,44,92,42
182.89424,183.26534,45,97,42
183.26924,183.64034,44,101,42
183.64424,184.01534,42,106,42
184.01924,184.39034,40,110,42
185.14424,185.89034,45,70,42
185.89424,186.26534,40,70,42
186.26924,187.01534,47,70,42
187.01924,187.39034,40,100,42
187.39424,188.14034,44,70,42
188.14424,188.51534,40,70,42
188.51924,189.26534,45,70,42
189.26924,189.64034,49,100,42
189.64424,190.39034,37,70,42
190.39424,190.76534,49,100,42
190.76924,191.51534,38,70,42
191.51924,191.89743,50,100,42
191.9014,192.66913,40,70,42
192.67317,193.06902,52,70,42
193.07318,193.46901,45,70,42
194.27318,194.64427,61,70,42
194.64818,195.01927,56,70,42
195.02318,195.39427,57,70,42
195.39818,195.76927,59,70,42
195.77318,196.14427,54,70,42
196.14818,196.51927,56,70,42
196.52318,196.89427,57,70,42
196.89818,197.26927,56,70,42
197.27318,197.64427,54,70,42
197.64818,198.01927,52,70,42
198.77318,199.14427,49,70,42
199.14818,199.51927,44,74,42
199.52318,199.89427,45,79,42
199.89818,200.26927,47,83,42
200.27318,200.64427,42,88,42
200.64818,201.01927,44,92,42
201.02318,201.39427,45,97,42
201.39818,201.76927,44,101,42
201.77318,202.14427,42,106,42
202.14818,202.51927,40,110,42
203.27318,204.01927,45,70,42
204.02318,204.39427,40,70,42
204.39818,205.14427,47,70,42
205.14818,205.51927,40,100,42
205.52318,206.26927,44,70,42
206.27318,206.64427,40,70,42
206.64818,207.39427,45,70,42
207.39818,207.76927,49,100,42
208.52318,208.89427,49,100,42
208.89818,209.64427,38,70,42
209.64818,210.0288,50,100,42
210.03279,210.83421,40,70,42
210.83849,211.26259,52,70,42
211.26706,211.69116,45,70,42
226.55661,226.9277,61,70,42
226.93161,227.3027,57,70,42
227.68161,228.0527,56,70,42
228.05661,228.4277,52,70,42
228.80661,229.1777,49,70,42
229.18161,229.5527,45,70,42
229.55661,229.9277,40,70,42
231.05661,231.4277,61,70,42
231.43161,231.8027,57,70,42
232.18161,232.5527,57,70,42
232.55661,232.9277,54,70,42
233.30661,233.6777,54,70,42
233.68161,234.0527,51,70,42
234.43161,234.8027,47,70,42
234.80661,235.1777,45,70,42
235.55661,235.9277,44,70,42
235.93161,236.3027,40,70,42
236.68161,237.0527,49,70,42
237.05661,237.43723,47,70,42
237.44124,237.82184,45,70,42
237.82585,238.1103,42,70,42
238.21046,238.5063,47,70,42
238.61046,239.0063,40,70,42
239.81046,240.18155,52,70,42
240.18546,240.55655,52,70,42
240.56046,240.93155,52,70,42
240.93546,241.30655,52,70,42
241.31046,241.68155,52,70,42
241.68546,242.05655,52,70,42
242.06046,242.43155,52,70,42
244.31046,244.68155,64,70,42
244.68546,245.05655,64,70,42
245.06046,245.43155,64,70,42
245.43546,245.80655,64,70,42
245.81046,246.18155,64,70,42
246.18546,246.55655,64,70,42
246.56046,246.93155,64,70,42
248.84508,249.22867,53,70,42
249.98257,250.35367,54,70,42
251.10757,251.47867,56,70,42
252.23257,252.60367,57,70,42
253.35757,253.72867,56,70,42
254.49219,254.8728,44,70,42
255.69658,256.0924,37,70,42
256.09656,256.47717,37,72,42
256.4812,256.8618,37,75,42
256.8658,257.2464,37,78,42
257.25043,257.631,37,81,42
257.63504,258.01566,37,84,42
258.01965,258.40027,37,86,42
258.40427,258.78488,37,89,42
258.78888,259.1695,37,92,42
259.1735,259.5541,37,95,42
259.5581,259.93872,37,98,42
259.94272,260.32333,37,101,42
260.32733,260.70795,37,103,42
260.71194,261.09256,37,106,42
261.09656,261.47717,37,109,42
261.48117,261.73758,49,120,42
261.86578,262.13977,49,120,42
262.27676,262.55072,49,120,42
277.6877,278.0588,54,70,42
278.0627,278.4338,50,70,42
278.8127,279.1838,49,70,42
279.1877,279.5588,45,70,42
279.9377,280.3088,38,70,42
280.3127,280.6838,42,70,42
281.0627,281.4338,45,70,42
281.4377,281.8088,55,70,42
282.1877,282.5588,54,70,42
282.5627,282.9338,45,70,42
283.3127,283.6838,49,70,42
283.6877,284.0588,45,70,42
284.4377,284.8088,50,70,42
284.8127,285.1838,45,70,42
285.5627,285.9338,57,70,42
285.9377,286.3088,55,70,42
286.6877,287.0588,54,72,42
287.0627,287.4338,50,74,42
287.8127,288.1838,49,79,42
288.1877,288.5588,50,81,42
288.9377,289.3088,46,86,42
289.3127,289.6838,47,88,42
290.0627,290.4338,52,93,42
290.4377,290.8088,50,95,42
291.1877,291.5588,48,100,42
291.5627,291.9338,49,102,42
292.3127,292.6838,54,107,42
292.6877,293.06833,52,109,42
293.07233,293.45294,50,110,42
293.45694,293.7414,47,110,42
293.84155,294.1374,52,110,42
294.24155,294.6374,45,110,42
295.44156,296.5914,62,70,42
296.5954,297.74524,61,70,42
297.74924,298.00565,59,70,42
298.13385,298.39026,56,70,42
298.51846,298.7749,52,70,42
298.9031,299.15952,57,70,42
300.05695,301.2068,50,90,42
301.2108,302.39087,49,100,42
302.395,303.2071,47,110,42
303.21143,303.6705,52,70,42
303.67572,304.1705,45,70,42
