start_time,end_time,note_value,velocity,instrument_program_number
0.0,0.22545569,74,1,40
0.5987558,1.1233091,69,70,40
1.1344697,2.1947372,78,70,40
2.2058978,2.730451,76,70,40
2.7416117,3.266165,74,70,40
3.2773259,3.8018792,73,70,40
3.8130398,4.337593,71,70,40
4.348754,5.944735,69,70,40
5.955896,6.480449,69,70,40
6.4916096,7.016163,71,70,40
7.0273237,7.551877,73,70,40
7.563038,8.087591,74,70,40
8.098752,8.623305,76,70,40
8.634466,9.694733,78,70,40
9.7058935,10.766161,78,70,40
10.777322,11.301875,76,70,40
11.313036,11.837589,74,70,40
11.84875,12.373303,73,70,40
12.384464,12.909017,71,70,40
12.920177,14.516159,69,70,40
14.52732,14.929106,68,70,40
14.929106,15.063034,66,70,40
15.063034,15.587587,68,70,40
15.598748,16.1233,71,70,40
16.134462,16.223747,69,70,40
16.223747,16.313034,71,70,40
16.313034,16.402319,73,70,40
16.402319,17.194729,71,70,40
17.20589,17.730444,69,70,40
17.741604,18.266157,69,70,40
18.277317,19.337585,78,70,40
19.348745,19.873299,76,70,40
19.88446,20.409014,74,70,40
20.420174,20.944727,73,70,40
20.955887,21.48044,71,70,40
21.491602,23.087584,69,70,40
23.098743,23.623297,69,70,40
23.634459,24.159012,71,70,40
24.170172,24.694725,73,70,40
24.705885,25.230438,74,70,40
25.2416,25.766153,76,70,40
25.777313,26.837582,78,70,40
26.848742,27.90901,78,70,40
27.92017,28.444723,76,70,40
28.455883,28.980436,74,70,40
28.991598,29.516151,73,70,40
29.527311,30.051865,71,70,40
30.063026,31.659008,69,70,40
31.670168,32.071953,68,70,40
32.071953,32.205883,66,70,40
32.205883,32.730434,68,70,40
32.741596,33.266148,71,70,40
33.27731,33.373463,69,70,40
33.373463,33.469616,71,70,40
33.469616,33.565773,73,70,40
33.565773,34.466213,71,70,40
34.479233,35.146847,69,70,40
35.737972,39.47681,74,70,40
39.487972,40.012524,81,70,40
40.023685,40.54824,78,70,40
40.5594,41.083954,79,78,40
41.095116,41.35181,83,87,40
41.362972,41.619667,81,91,40
41.63083,41.887524,79,95,40
41.898685,42.16489,81,99,40
42.176464,42.720444,83,100,40
42.732018,43.31952,86,100,40
43.33202,43.970604,81,100,40
43.98419,44.549095,81,70,40
44.561115,45.621384,90,70,40
45.63254,46.157097,88,70,40
46.168255,46.69281,86,70,40
46.70397,47.228523,85,70,40
47.239685,47.764236,83,70,40
47.7754,49.37138,81,70,40
49.38254,49.907093,81,70,40
49.918255,50.442806,81,70,40
50.453968,50.710667,83,70,40
50.721825,50.98803,85,70,40
50.999603,52.199818,85,70,40
52.212837,52.88045,86,70,40
53.47158,57.210415,74,70,40
57.221577,57.74613,81,70,40
57.75729,58.281845,78,70,40
58.293007,58.81756,79,78,40
58.82872,59.085415,83,87,40
59.096577,59.35327,81,91,40
59.364433,59.621128,79,95,40
59.63229,59.898495,81,99,40
59.91007,60.47497,83,100,40
60.48699,61.09897,86,100,40
61.11199,61.779606,81,100,40
61.793808,62.35871,81,70,40
62.37073,63.431,90,70,40
63.44216,63.966713,88,70,40
63.977875,64.502426,86,70,40
64.51359,65.03814,85,70,40
65.0493,65.57385,83,70,40
65.585014,67.181,81,70,40
67.19216,67.71671,81,70,40
67.727875,68.252426,81,70,40
68.26359,68.52028,83,70,40
68.53144,68.807884,85,70,40
68.81991,70.11252,85,70,40
70.126724,70.8611,86,70,40
81.63221,82.022835,81,81,40
82.034,82.16792,81,70,40
82.16792,82.69248,88,70,40
82.703636,82.83757,90,78,40
82.83757,82.9715,88,80,40
82.9715,83.10542,87,82,40
83.10542,83.23936,88,84,40
83.23936,83.429085,93,87,40
83.50721,83.696945,88,91,40
83.77507,83.9648,93,95,40
84.04292,84.23266,87,99,40
84.31078,84.50051,88,100,40
84.578636,84.76837,85,125,40
84.8465,85.036224,81,100,40
85.11435,85.304085,76,125,40
85.38221,85.571945,74,100,40
85.65007,85.8398,71,125,40
85.91792,86.10766,68,100,40
86.18578,86.37551,64,125,40
86.453636,87.51391,71,70,40
87.52506,88.04962,69,70,40
98.77506,99.16569,81,81,40
99.17684,99.310776,81,70,40
99.310776,99.83533,88,70,40
99.84649,99.980415,90,78,40
99.980415,100.11434,88,80,40
100.11434,100.248276,87,82,40
100.248276,100.3822,88,84,40
100.3822,100.57193,93,87,40
100.650055,100.83979,88,91,40
100.917915,101.10765,93,95,40
101.185776,101.3755,87,99,40
101.45363,101.643364,88,100,40
101.72149,101.91122,85,125,40
101.98934,102.17908,81,100,40
102.2572,102.44693,76,125,40
102.525055,102.71479,74,100,40
102.792915,102.98264,71,125,40
103.06077,103.2505,68,100,40
103.32863,103.52539,64,125,40
103.60641,104.79531,71,70,40
104.80833,105.475945,69,70,40
112.495636,113.55591,79,70,40
113.56707,114.09162,81,70,40
114.10278,114.627335,82,70,40
114.6385,115.16305,81,70,40
116.245636,116.63626,81,80,40
116.64742,116.78135,81,70,40
116.78135,119.102776,91,110,40
119.19206,119.3818,88,125,40
119.45992,119.64965,85,100,40
119.727776,119.91751,81,125,40
119.995636,120.18536,79,100,40
120.26349,120.453224,76,125,40
120.53135,120.72811,73,100,40
120.80913,121.01345,69,125,40
121.09759,122.31371,76,70,40
122.32792,123.062294,74,70,40
130.0834,131.14368,79,70,40
131.15483,131.6794,81,70,40
131.69055,132.2151,82,70,40
132.22627,132.75082,81,70,40
133.8334,134.22403,81,81,40
134.2352,134.36913,81,70,40
134.36913,136.69055,91,110,40
136.77983,136.96957,88,125,40
137.0477,137.23743,85,100,40
137.31555,137.50528,81,125,40
137.5834,137.78017,79,100,40
137.86119,138.05794,76,125,40
138.13896,138.34329,73,100,40
138.42743,138.63992,69,125,40
138.72742,140.01288,76,70,40
140.0285,140.89249,74,70,40
141.11087,141.31087,69,60,40
141.31087,141.49837,74,60,40
141.51086,141.64479,78,60,40
141.68944,141.82336,62,60,40
141.86801,142.00194,66,60,40
142.04657,142.18051,69,60,40
142.22514,142.35907,74,60,40
142.40372,142.53764,78,60,40
142.58229,142.71622,81,60,40
142.76086,142.89479,79,60,40
142.93944,143.07336,78,60,40
143.11801,143.25194,76,60,40
143.29657,143.43051,78,60,40
143.47514,143.60907,74,60,40
143.65372,143.78764,73,60,40
143.83229,143.96622,81,60,40
144.01086,144.14479,79,60,40
144.18944,144.32336,78,60,40
144.36801,144.50194,76,60,40
144.54657,144.68051,74,60,40
144.72514,144.85907,73,60,40
144.90372,145.03764,78,60,40
145.08229,145.21622,76,60,40
145.26086,145.39479,74,60,40
145.43944,145.57336,73,60,40
145.618,145.75194,71,60,40
145.79657,145.9305,69,60,40
145.97514,146.10907,73,60,40
146.15372,146.28764,76,60,40
146.33229,146.46622,81,60,40
146.51086,146.64479,85,60,40
146.68944,146.82336,86,60,40
146.868,147.00194,88,60,40
147.04657,147.1805,86,60,40
147.22514,147.35907,85,60,40
147.40372,147.53764,83,60,40
147.58229,147.71622,81,60,40
147.76086,147.89479,79,60,40
147.93944,148.07336,78,60,40
148.118,148.25194,86,60,40
148.29657,148.4305,85,60,40
148.47514,148.60907,83,60,40
148.65372,148.78764,81,60,40
148.83229,148.96622,79,60,40
149.01086,149.14479,78,60,40
149.18942,149.32336,83,60,40
149.368,149.50192,81,60,40
149.54657,149.6805,79,60,40
149.72514,149.85907,78,60,40
149.90372,150.03764,76,60,40
150.08229,150.21622,74,60,40
150.26086,150.39479,62,60,40
150.43942,150.57336,66,60,40
150.618,150.75192,69,60,40
150.79657,150.9305,74,60,40
150.97514,151.10907,78,60,40
151.15372,151.28764,81,60,40
151.33229,151.46622,81,60,40
151.51086,151.64479,81,60,40
151.68942,151.82336,81,60,40
151.868,152.00192,81,60,40
152.04657,152.1805,81,60,40
152.22514,152.35907,81,60,40
152.40372,152.53764,69,60,40
152.58229,152.71622,73,60,40
152.76086,152.89479,76,60,40
152.93942,153.07335,81,60,40
153.118,153.25192,85,60,40
153.29657,153.4305,88,60,40
153.47514,153.60907,88,60,40
153.65372,153.78764,88,60,40
153.83229,153.96622,88,60,40
154.01085,154.14479,88,60,40
154.18942,154.32335,88,60,40
154.368,154.41264,88,60,40
154.41264,154.50192,86,60,40
154.54657,154.6805,85,60,40
154.72514,154.85907,83,60,40
154.90372,154.94835,83,60,40
154.94835,155.03764,81,60,40
155.08229,155.21622,80,60,40
155.26085,155.39479,78,60,40
155.43942,155.48407,78,60,40
155.48407,155.57335,76,60,40
155.618,155.75192,74,60,40
155.79657,155.9305,73,60,40
155.97514,156.01979,73,60,40
156.01979,156.12022,71,60,40
156.15372,156.28764,69,60,40
156.33229,156.46622,68,60,40
156.51085,157.57112,71,60,40
157.58228,158.10684,69,60,40
158.29657,158.47514,69,60,40
158.47514,158.64255,74,60,40
158.65372,158.78764,78,60,40
158.83228,158.96622,62,60,40
159.01085,159.14478,66,60,40
159.18942,159.32335,69,60,40
159.368,159.50192,74,60,40
159.54657,159.6805,78,60,40
159.72514,159.85907,81,60,40
159.90372,160.03764,79,60,40
160.08228,160.21622,78,60,40
160.26085,160.39478,76,60,40
160.43942,160.57335,78,60,40
160.618,160.75192,74,60,40
160.79657,160.9305,73,60,40
160.97514,161.10907,81,60,40
161.15372,161.28764,79,60,40
161.33228,161.4662,78,60,40
161.51085,161.64478,76,60,40
161.68942,161.82335,74,60,40
161.868,162.00192,73,60,40
162.04657,162.1805,78,60,40
162.22514,162.35907,76,60,40
162.4037,162.53764,74,60,40
162.58228,162.7162,73,60,40
162.76085,162.89478,71,60,40
162.93942,163.07335,69,60,40
163.118,163.25192,73,60,40
163.29657,163.4305,76,60,40
163.47514,163.60907,81,60,40
163.6537,163.78764,85,60,40
163.83228,163.9662,86,60,40
164.01085,164.14478,88,60,40
164.18942,164.32335,86,60,40
164.368,164.50192,85,60,40
164.54657,164.6805,83,60,40
164.72514,164.85907,81,60,40
164.9037,165.03764,79,60,40
165.08228,165.2162,78,60,40
165.26085,165.39478,86,60,40
165.43942,165.57335,85,60,40
165.618,165.75192,83,60,40
165.79657,165.9305,81,60,40
165.97513,166.10907,79,60,40
166.1537,166.28763,78,60,40
166.33228,166.4662,83,60,40
166.51085,166.64478,81,60,40
166.68942,166.82335,79,60,40
166.868,167.00192,78,60,40
167.04657,167.1805,76,60,40
167.22513,167.35907,74,60,40
167.4037,167.53763,62,60,40
167.58228,167.7162,66,60,40
167.76085,167.89478,69,60,40
167.93942,168.07335,74,60,40
168.118,168.25192,78,60,40
168.29657,168.4305,81,60,40
168.47513,168.60907,81,60,40
168.6537,168.78763,81,60,40
168.83228,168.9662,81,60,40
169.01085,169.14478,81,60,40
169.18942,169.32335,81,60,40
169.368,169.50192,81,60,40
169.54655,169.6805,69,60,40
169.72513,169.85905,73,60,40
169.9037,170.03763,76,60,40
170.08228,170.2162,81,60,40
170.26085,170.39478,85,60,40
170.43942,170.57335,88,60,40
170.618,170.75192,88,60,40
170.79655,170.9305,88,60,40
170.97513,171.10905,88,60,40
171.1537,171.28763,88,60,40
171.33228,171.4662,88,60,40
171.51085,171.5555,88,60,40
171.5555,171.64478,86,60,40
171.68942,171.82335,85,60,40
171.868,172.00192,83,60,40
172.04655,172.0912,83,60,40
172.0912,172.1805,81,60,40
172.22513,172.35905,80,60,40
172.4037,172.53763,78,60,40
172.58228,172.62692,78,60,40
172.62692,172.7162,76,60,40
172.76085,172.89478,74,60,40
172.93942,173.07335,73,60,40
173.118,173.16429,73,60,40
173.16429,173.26845,71,60,40
173.30318,173.44385,69,60,40
173.49191,173.63615,68,60,40
173.68423,174.90036,71,60,40
174.91457,175.64894,69,60,40
175.8729,176.08122,69,60,40
176.08122,176.27654,67,60,40
176.28957,176.4235,66,60,40
176.46812,176.60207,62,60,40
176.6467,176.78062,66,60,40
176.82527,176.9592,69,60,40
177.00385,177.13777,73,60,40
177.18242,177.31635,74,60,40
177.361,177.49492,78,60,40
177.53957,177.6735,81,60,40
177.71812,177.85207,85,60,40
177.8967,178.03062,86,60,40
178.07527,178.2092,86,60,40
178.25385,178.38777,86,60,40
178.43242,179.22482,86,60,40
179.236,179.49268,83,87,40
179.50385,180.0284,80,90,40
180.03955,180.29625,81,78,40
180.57527,180.7092,62,60,40
180.75385,180.88777,64,60,40
180.93242,181.06635,66,60,40
181.111,181.24492,67,60,40
181.28955,181.4235,69,60,40
181.46812,181.60205,71,60,40
181.6467,181.78062,73,60,40
181.82527,181.9592,74,60,40
182.00385,182.13777,76,60,40
182.18242,182.31635,78,60,40
182.361,182.49492,79,60,40
182.53955,182.6735,81,60,40
182.71812,183.51054,83,60,40
183.5217,183.7784,79,87,40
183.78955,184.3141,77,90,40
184.32527,184.4592,78,78,40
184.50385,184.67125,69,73,40
184.68242,184.84982,74,66,40
184.86098,184.99492,78,60,40
185.03955,185.17348,62,60,40
185.21812,185.35205,66,60,40
185.3967,185.53062,69,60,40
185.57527,185.7092,74,60,40
185.75385,185.88777,78,60,40
185.93242,186.06635,81,60,40
186.11098,186.24492,79,60,40
186.28955,186.42348,78,60,40
186.46812,186.60205,76,60,40
186.6467,186.78062,78,60,40
186.82527,186.9592,74,60,40
187.00385,187.13777,73,60,40
187.18242,187.31635,81,60,40
187.36098,187.49492,79,60,40
187.53955,187.67348,78,60,40
187.71812,187.85205,76,60,40
187.8967,188.03062,74,60,40
188.07527,188.2092,73,60,40
188.25385,188.38777,78,60,40
188.4324,188.56635,76,60,40
188.61098,188.7449,74,60,40
188.78955,188.92348,73,60,40
188.96812,189.10205,71,60,40
189.1467,189.28062,69,60,40
189.32527,189.4592,73,60,40
189.50385,189.63777,76,60,40
189.6824,189.81635,81,60,40
189.86098,189.9949,85,60,40
190.03955,190.17348,88,60,40
190.21812,190.35205,91,60,40
190.3967,190.53062,88,60,40
190.57527,190.7092,85,60,40
190.75385,190.88777,91,60,40
190.9324,191.06635,88,60,40
191.11098,191.2449,85,60,40
191.28955,192.34982,88,60,40
192.36098,192.88553,86,60,40
193.07527,193.25383,69,60,40
193.25383,193.42125,67,60,40
193.4324,193.56633,66,60,40
193.61098,193.7449,62,60,40
193.78955,193.92348,66,60,40
193.96812,194.10205,69,60,40
194.1467,194.28062,73,60,40
194.32527,194.4592,74,60,40
194.50383,194.63777,78,60,40
194.6824,194.81633,81,60,40
194.86098,194.9949,85,60,40
195.03955,195.17348,86,60,40
195.21812,195.35205,86,60,40
195.3967,195.53062,86,60,40
195.57527,196.36768,86,60,40
196.37883,196.63553,83,87,40
196.6467,197.17125,80,90,40
197.1824,197.4391,81,78,40
197.71812,197.85205,62,60,40
197.8967,198.03062,64,60,40
198.07526,198.2092,66,60,40
198.25383,198.38776,67,60,40
198.4324,198.56633,69,60,40
198.61098,198.7449,71,60,40
198.78955,198.92348,73,60,40
198.96812,199.10205,74,60,40
199.1467,199.28062,76,60,40
199.32526,199.4592,78,60,40
199.50383,199.63776,79,60,40
199.6824,199.81633,81,60,40
199.86098,200.65338,83,60,40
200.66455,200.92125,79,87,40
200.9324,201.45695,77,90,40
201.46812,201.60205,78,78,40
201.64668,201.8141,69,73,40
201.82526,201.99268,74,66,40
202.00383,202.13776,78,60,40
202.1824,202.31633,62,60,40
202.36098,202.4949,66,60,40
202.53955,202.67348,69,60,40
202.71812,202.85205,74,60,40
202.89668,203.03062,78,60,40
203.07526,203.20918,81,60,40
203.25383,203.38776,79,60,40
203.4324,203.56633,78,60,40
203.61098,203.7449,76,60,40
203.78955,203.92348,78,60,40
203.96811,204.10205,74,60,40
204.14668,204.28061,73,60,40
204.32526,204.45918,81,60,40
204.50383,204.63776,79,60,40
204.6824,204.81633,78,60,40
204.86098,204.9949,76,60,40
205.03955,205.17348,74,60,40
205.21811,205.35205,73,60,40
205.39668,205.53061,78,60,40
205.57526,205.70918,76,60,40
205.75383,205.88776,74,60,40
205.9324,206.06633,73,60,40
206.11098,206.2449,71,60,40
206.28955,206.42348,69,60,40
206.46811,206.60205,73,60,40
206.64668,206.78061,76,60,40
206.82526,206.95918,81,60,40
207.00383,207.13776,85,60,40
207.1824,207.31633,88,60,40
207.36098,207.49986,91,60,40
207.54616,207.68504,88,60,40
207.73134,207.87022,85,60,40
207.91653,208.06076,91,60,40
208.10884,208.25499,88,60,40
208.305,208.45499,85,60,40
208.50499,209.79045,88,60,40
209.80608,210.67004,86,60,40
215.42636,216.45006,79,70,40
216.46083,216.9673,78,70,40
216.97807,217.48454,76,70,40
217.49532,218.00179,74,70,40
219.56429,219.69359,83,70,40
219.69359,219.8229,81,70,40
219.8229,219.95221,83,70,40
219.95221,220.08153,81,70,40
220.08153,220.21083,83,70,40
220.21083,220.34015,81,70,40
220.34015,220.46945,83,70,40
220.46945,220.59877,81,70,40
220.59877,220.72807,81,70,40
220.72807,220.85739,79,70,40
220.85739,220.9867,81,70,40
220.9867,221.11601,79,70,40
221.11601,221.24532,79,70,40
221.24532,221.37463,78,70,40
221.37463,221.50394,79,70,40
221.50394,221.63326,78,70,40
221.63326,221.76256,78,70,40
221.76256,221.89188,76,71,40
221.89188,222.02118,78,72,40
222.02118,222.15048,76,73,40
222.15048,222.2798,78,74,40
222.2798,222.4091,76,75,40
222.4091,222.53842,78,76,40
222.53842,222.66772,76,78,40
222.66772,222.79704,78,79,40
222.79704,222.92635,76,80,40
222.92635,223.05566,78,81,40
223.05566,223.18497,76,82,40
223.18497,223.31429,78,83,40
223.31429,223.44359,76,84,40
223.44359,223.5729,78,86,40
223.5729,223.70221,76,87,40
223.70221,223.83153,78,88,40
223.83153,223.96083,76,89,40
223.96083,224.09015,78,90,40
224.09015,224.21945,76,91,40
224.21945,224.34877,80,92,40
224.34877,224.47807,76,94,40
224.47807,224.60739,81,95,40
224.60739,224.7367,76,96,40
224.7367,224.866,83,97,40
224.866,224.99532,76,98,40
224.99532,225.12462,85,99,40
225.12462,225.25394,76,100,40
225.25394,225.38324,86,96,40
225.38324,225.51256,76,89,40
225.51256,225.64186,88,81,40
225.64186,225.77118,76,73,40
225.77118,226.27765,81,70,40
231.97807,233.00177,79,70,40
233.01254,233.51901,78,70,40
233.52979,234.03625,76,70,40
234.04703,234.5535,74,70,40
236.116,236.2453,83,70,40
236.2453,236.37462,81,70,40
236.37462,236.50392,83,70,40
236.50392,236.63324,81,70,40
236.63324,236.76254,83,70,40
236.76254,236.89186,81,70,40
236.89186,237.02116,83,70,40
237.02116,237.15048,81,70,40
237.15048,237.27979,81,70,40
237.27979,237.4091,79,70,40
237.4091,237.5384,81,70,40
237.5384,237.66772,79,70,40
237.66772,237.79703,79,70,40
237.79703,237.92635,78,70,40
237.92635,238.05565,79,70,40
238.05565,238.18497,78,70,40
238.18497,238.31427,78,70,40
238.31427,238.44359,76,71,40
238.44359,238.57289,78,72,40
238.57289,238.7022,76,73,40
238.7022,238.83151,78,74,40
238.83151,238.96082,76,75,40
238.96082,239.09013,78,76,40
239.09013,239.21944,76,78,40
239.21944,239.34875,78,79,40
239.34875,239.47806,76,80,40
239.47806,239.60738,78,81,40
239.60738,239.73668,76,82,40
239.73668,239.866,78,83,40
239.866,239.9953,76,84,40
239.9953,240.12462,78,86,40
240.12462,240.25392,76,87,40
240.25392,240.38324,78,88,40
240.38324,240.51254,76,89,40
240.51254,240.64186,78,90,40
240.64186,240.77116,76,91,40
240.77116,240.90048,80,92,40
240.90048,241.02979,76,94,40
241.02979,241.1591,81,95,40
241.1591,241.2884,76,96,40
241.2884,241.41771,83,97,40
241.41771,241.54703,76,98,40
241.54703,241.67633,85,99,40
241.67633,241.80565,76,100,40
241.80565,241.93495,86,96,40
241.93495,242.06427,76,89,40
242.06427,242.19357,88,81,40
242.19357,242.32289,76,73,40
242.32289,242.82936,81,70,40
244.39185,244.52116,76,70,40
244.52116,244.65047,74,70,40
244.65047,244.77979,76,70,40
244.77979,244.90909,74,70,40
244.90909,245.0384,76,70,40
245.0384,245.16771,74,70,40
245.16771,245.29703,76,70,40
245.29703,245.42633,74,70,40
245.42633,245.55565,76,70,40
245.55565,245.68495,74,70,40
245.68495,245.81427,76,70,40
245.81427,245.94357,74,70,40
245.94357,246.07289,76,70,40
246.07289,246.2022,74,70,40
246.2022,246.33151,76,70,40
246.33151,246.46082,74,70,40
246.46082,246.59013,76,70,40
246.59013,246.71944,74,70,40
246.71944,246.84874,76,70,40
246.84874,246.97806,74,70,40
246.97806,247.10736,76,70,40
247.10736,247.23668,74,70,40
247.23668,247.36598,76,70,40
247.36598,247.4953,74,70,40
247.4953,247.6246,76,70,40
247.6246,247.75392,74,70,40
247.75392,247.88322,76,70,40
247.88322,248.01254,74,70,40
248.01254,248.14185,76,70,40
248.14185,248.27116,74,70,40
248.27116,248.40047,76,70,40
248.40047,248.52979,74,70,40
248.52979,248.65909,79,70,40
248.65909,248.7884,78,70,40
248.7884,248.91771,79,70,40
248.91771,249.04703,78,70,40
249.04703,249.17633,79,70,40
249.17633,249.30565,78,70,40
249.30565,249.43495,79,70,40
249.43495,249.56425,78,70,40
249.56425,249.69357,79,70,40
249.69357,249.82288,78,70,40
249.82288,249.9522,79,70,40
249.9522,250.0815,78,70,40
250.0815,250.21082,79,70,40
250.21082,250.34012,78,70,40
250.34012,250.46944,79,70,40
250.46944,250.59874,78,70,40
250.59874,250.72806,81,70,40
250.72806,250.85736,79,70,40
250.85736,250.98668,81,70,40
250.98668,251.11598,79,70,40
251.11598,251.2453,81,70,40
251.2453,251.3746,79,70,40
251.3746,251.50392,81,70,40
251.50392,251.62245,79,70,40
251.63322,251.76254,79,70,40
251.76254,251.89185,78,70,40
251.89185,252.02116,79,70,40
252.02116,252.15047,78,70,40
252.15047,252.27979,79,70,40
252.27979,252.40909,78,70,40
252.40909,252.53839,79,70,40
252.53839,252.66771,78,70,40
252.66771,252.79701,83,70,40
252.79701,252.92633,81,70,40
252.92633,253.05563,83,70,40
253.05563,253.18495,81,70,40
253.18495,253.31425,83,70,40
253.31425,253.44357,81,70,40
253.44357,253.57288,83,70,40
253.57288,253.69142,81,70,40
253.7022,253.8315,81,70,40
253.8315,253.96082,79,70,40
253.96082,254.09012,81,70,40
254.09012,254.20865,79,70,40
254.21944,254.34874,79,70,40
254.34874,254.47806,78,70,40
254.47806,254.60736,79,70,40
254.60736,254.72589,78,70,40
254.73668,254.86598,78,70,40
254.86598,254.9953,76,70,40
254.9953,255.1246,78,71,40
255.1246,255.2539,76,72,40
255.2539,255.38322,78,73,40
255.38322,255.51253,76,74,40
255.51253,255.64185,78,75,40
255.64185,255.77115,76,76,40
255.77115,255.90047,78,77,40
255.90047,256.0298,76,78,40
256.0298,256.1591,78,79,40
256.1591,256.2884,76,80,40
256.2884,256.4177,78,81,40
256.4177,256.54703,76,82,40
256.54703,256.67633,79,83,40
256.67633,256.80563,78,84,40
256.80563,256.93494,81,85,40
256.93494,257.06427,79,86,40
257.06427,257.19357,83,87,40
257.19357,257.32288,81,88,40
257.32288,257.45218,85,89,40
257.45218,257.5815,83,90,40
257.5815,257.71082,86,91,40
257.71082,257.84012,85,92,40
257.84012,257.96942,88,93,40
257.96942,258.09872,86,94,40
258.09872,258.22806,90,95,40
258.22806,258.35736,88,96,40
258.35736,258.48666,91,97,40
258.48666,258.61597,88,98,40
258.61597,258.7453,83,98,40
258.7453,258.86383,85,99,40
258.8746,259.89832,85,110,40
259.9091,260.41556,86,70,40
260.94357,261.07288,76,70,40
261.07288,261.20218,74,70,40
261.20218,261.33148,76,70,40
261.33148,261.46082,74,70,40
261.46082,261.59012,76,70,40
261.59012,261.71942,74,70,40
261.71942,261.84872,76,70,40
261.84872,261.97806,74,70,40
261.97806,262.10736,76,70,40
262.10736,262.23666,74,70,40
262.23666,262.36597,76,70,40
262.36597,262.4953,74,70,40
262.4953,262.6246,76,70,40
262.6246,262.7539,74,70,40
262.7539,262.8832,76,70,40
262.8832,263.01254,74,70,40
263.01254,263.14185,76,70,40
263.14185,263.27115,74,70,40
263.27115,263.40045,76,70,40
263.40045,263.52975,74,70,40
263.52975,263.6591,76,70,40
263.6591,263.7884,74,70,40
263.7884,263.9177,76,70,40
263.9177,264.047,74,70,40
264.047,264.17633,76,70,40
264.17633,264.30563,74,70,40
264.30563,264.43494,76,70,40
264.43494,264.56424,74,70,40
264.56424,264.69357,76,70,40
264.69357,264.82288,74,70,40
264.82288,264.95218,76,70,40
264.95218,265.08148,74,70,40
265.08148,265.21082,79,70,40
265.21082,265.34012,78,70,40
265.34012,265.46942,79,70,40
265.46942,265.59872,78,70,40
265.59872,265.72806,79,70,40
265.72806,265.85736,78,70,40
265.85736,265.98666,79,70,40
265.98666,266.11597,78,70,40
266.11597,266.24527,79,70,40
266.24527,266.3746,78,70,40
266.3746,266.5039,79,70,40
266.5039,266.6332,78,70,40
266.6332,266.7625,79,70,40
266.7625,266.89185,78,70,40
266.89185,267.02115,79,70,40
267.02115,267.15045,78,70,40
267.15045,267.27975,81,70,40
267.27975,267.4091,79,70,40
267.4091,267.5384,81,70,40
267.5384,267.6677,79,70,40
267.6677,267.797,81,70,40
267.797,267.92633,79,70,40
267.92633,268.05563,81,70,40
268.05563,268.17416,79,70,40
268.18494,268.31424,79,70,40
268.31424,268.44357,78,70,40
268.44357,268.57288,79,70,40
268.57288,268.70218,78,70,40
268.70218,268.83148,79,70,40
268.83148,268.9608,78,70,40
268.9608,269.09012,79,70,40
269.09012,269.21942,78,70,40
269.21942,269.34872,83,70,40
269.34872,269.47803,81,70,40
269.47803,269.60736,83,70,40
269.60736,269.73666,81,70,40
269.73666,269.86597,83,70,40
269.86597,269.99527,81,70,40
269.99527,270.1246,83,70,40
270.1246,270.24313,81,70,40
270.2539,270.3832,81,70,40
270.3832,270.5125,79,70,40
270.5125,270.64185,81,70,40
270.64185,270.76038,79,70,40
270.77115,270.90045,79,70,40
270.90045,271.02975,78,70,40
271.02975,271.1591,79,70,40
271.1591,271.27762,78,70,40
271.2884,271.4177,78,70,40
271.4177,271.547,76,70,40
271.547,271.6763,78,71,40
271.6763,271.80563,76,72,40
271.80563,271.93494,78,73,40
271.93494,272.06424,76,74,40
272.06424,272.19354,78,75,40
272.19354,272.32288,76,76,40
272.32288,272.45218,78,77,40
272.45218,272.58148,76,78,40
272.58148,272.7108,78,79,40
272.7108,272.84012,76,80,40
272.84012,272.96942,78,81,40
272.96942,273.09872,76,82,40
273.09872,273.22803,79,83,40
273.22803,273.35736,78,84,40
273.35736,273.48666,81,85,40
273.48666,273.61597,79,86,40
273.61597,273.74527,83,87,40
273.74527,273.8746,81,88,40
273.8746,274.0039,85,89,40
274.0039,274.1332,83,90,40
274.1332,274.2625,86,91,40
274.2625,274.3918,85,92,40
274.3918,274.52115,88,93,40
274.52115,274.65045,86,94,40
274.65045,274.77975,90,95,40
274.77975,274.90906,88,96,40
274.90906,275.04797,91,97,40
275.04797,275.18686,88,98,40
275.18686,275.33685,83,98,40
275.33685,275.47433,85,99,40
275.48685,276.7723,85,110,40
276.78793,277.5223,86,70,40
277.53793,278.12543,69,50,40
278.13794,279.2375,78,50,40
279.24905,279.79303,76,50,40
279.8046,280.34857,74,50,40
280.36017,280.90414,73,50,40
280.9157,281.4597,68,50,40
280.9157,281.4597,71,50,40
281.47128,282.5708,69,50,40
282.58237,283.68192,70,50,40
283.69348,284.23746,71,50,40
284.24905,284.79303,73,50,40
284.8046,285.34857,74,50,40
285.36017,285.90414,76,50,40
285.9157,287.01526,78,50,40
287.02682,288.12637,78,50,40
288.13794,288.68192,76,50,40
288.69348,289.23746,74,50,40
289.24905,289.79303,73,50,40
289.8046,290.34857,71,50,40
290.36017,292.01526,69,50,40
292.02682,293.16864,68,50,40
293.18066,293.76816,71,50,40
293.78067,295.01926,71,50,40
295.03284,295.67142,69,50,40
295.68503,296.27252,69,50,40
296.285,297.38455,78,50,40
297.39612,297.9401,76,50,40
297.9517,298.49567,74,50,40
298.50723,299.0512,73,50,40
299.0628,299.60678,68,50,40
299.0628,299.60678,71,50,40
299.61835,300.7179,69,50,40
300.72946,301.829,70,50,40
301.84058,302.38455,71,50,40
302.39612,302.9401,73,50,40
302.9517,303.49567,74,50,40
303.50723,304.0512,76,50,40
304.0628,305.20462,78,50,40
305.21664,306.31616,78,50,40
306.32776,306.87173,76,50,40
306.8833,307.42728,74,50,40
307.43887,307.98285,73,50,40
307.99442,308.5384,71,50,40
308.54996,310.20508,69,50,40
310.21664,311.3371,68,50,40
311.34912,311.9366,71,50,40
311.94913,313.23987,71,50,40
313.25348,313.98785,69,50,40
314.00348,314.59097,69,50,40
314.60345,318.48077,62,50,40
314.60345,318.48077,74,50,40
318.49234,319.03635,78,50,40
319.0479,320.14743,81,50,40
320.15903,320.703,79,50,40
320.71457,321.25854,78,50,40
321.27014,321.81412,83,50,40
321.82568,322.92523,79,50,40
322.9368,324.5919,78,50,40
324.60345,325.14743,76,58,40
325.15903,325.703,74,63,40
325.71457,326.25854,73,67,40
326.27014,326.81412,71,72,40
326.82568,329.16873,69,76,40
329.18124,329.74615,71,50,40
329.75818,330.32306,73,50,40
330.33508,331.47693,73,50,40
331.48892,332.05383,74,50,40
332.06586,332.63077,69,50,40
332.6428,336.52008,62,50,40
332.6428,336.52008,74,50,40
336.53168,337.07565,78,50,40
337.08722,338.18677,81,50,40
338.19833,338.7423,79,50,40
338.75388,339.29788,78,50,40
339.30945,339.85342,83,50,40
339.865,340.96454,79,50,40
340.9761,342.6312,78,50,40
342.6428,343.18677,76,58,40
343.19833,343.7423,74,63,40
343.75388,344.29788,73,67,40
344.30945,344.85342,71,72,40
344.865,347.20682,69,76,40
347.21884,347.78375,71,50,40
347.79578,348.38327,73,50,40
348.39578,349.78232,73,50,40
349.79794,350.66193,74,50,40
351.2803,351.34726,81,110,40
351.34726,351.4142,83,110,40
351.4142,351.4812,81,110,40
351.4812,351.54816,83,110,40
351.54816,351.6151,81,110,40
351.6151,351.68207,83,110,40
351.68207,351.74905,81,110,40
351.74905,351.816,83,110,40
351.816,351.88297,81,110,40
351.88297,351.94995,83,110,40
351.94995,352.0169,81,110,40
352.0169,352.08386,83,110,40
352.08386,352.15082,81,110,40
352.15082,352.2178,83,110,40
352.2178,352.28476,81,110,40
352.28476,352.3517,83,110,40
352.3517,352.4187,81,110,40
352.4187,352.48566,83,110,40
352.48566,352.5526,81,110,40
352.5526,352.61957,83,110,40
352.61957,352.68655,81,110,40
352.68655,352.7535,83,110,40
352.7535,352.82047,81,110,40
352.82047,352.88745,83,110,40
352.88745,352.9544,81,110,40
352.9544,353.02136,83,110,40
353.02136,353.08832,81,110,40
353.08832,353.1553,83,110,40
353.1553,353.22226,81,110,40
353.22226,353.2892,83,110,40
353.2892,353.3562,81,110,40
353.3562,353.42316,83,110,40
353.42316,353.4901,81,110,40
353.4901,353.55707,83,110,40
353.55707,353.62405,81,110,40
353.62405,353.691,83,110,40
353.691,353.75797,81,110,40
353.75797,353.82495,83,110,40
353.82495,353.8919,81,110,40
353.8919,353.95886,83,110,40
353.95886,354.02582,81,110,40
354.02582,354.0928,83,110,40
354.0928,354.15976,81,110,40
354.15976,354.2267,83,110,40
354.2267,354.2937,81,110,40
354.2937,354.36066,83,110,40
354.36066,354.4276,81,110,40
354.4276,354.49457,83,110,40
354.49457,354.56155,81,110,40
354.56155,354.6285,83,110,40
354.6285,354.69547,81,110,40
354.69547,354.76242,83,110,40
354.76242,354.8294,81,110,40
354.8294,354.89636,83,110,40
354.89636,354.96332,81,110,40
354.96332,355.0303,83,110,40
355.0303,355.09726,81,110,40
355.09726,355.1642,83,110,40
355.1642,355.23117,81,110,40
355.23117,355.29816,83,110,40
355.29816,355.38742,81,110,40
355.38742,355.4767,80,110,40
355.4767,355.566,81,110,40
355.566,356.49234,91,110,40
356.5035,356.62628,91,110,40
356.63742,356.89413,90,110,40
357.0392,357.162,90,110,40
357.17316,357.42984,88,110,40
357.57492,357.6977,88,110,40
357.70886,357.96555,86,110,40
358.11066,358.23343,86,110,40
358.24457,358.50128,81,110,40
358.64636,358.76913,81,110,40
358.7803,359.30484,78,110,40
359.8517,359.91867,81,110,40
359.91867,359.98566,83,110,40
359.98566,360.0526,81,110,40
360.0526,360.11957,83,110,40
360.11957,360.18655,81,110,40
360.18655,360.2535,83,110,40
360.2535,360.32047,81,110,40
360.32047,360.38742,83,110,40
360.38742,360.4544,81,110,40
360.4544,360.52136,83,110,40
360.52136,360.58832,81,110,40
360.58832,360.6553,83,110,40
360.6553,360.72226,81,110,40
360.72226,360.7892,83,110,40
360.7892,360.85617,81,110,40
360.85617,360.92316,83,110,40
360.92316,360.9901,81,110,40
360.9901,361.05707,83,110,40
361.05707,361.12405,81,110,40
361.12405,361.191,83,110,40
361.191,361.25797,81,110,40
361.25797,361.32492,83,110,40
361.32492,361.3919,81,110,40
361.3919,361.45886,83,110,40
361.45886,361.52582,81,110,40
361.52582,361.5928,83,110,40
361.5928,361.65976,81,110,40
361.65976,361.7267,83,110,40
361.7267,361.79367,81,110,40
361.79367,361.86066,83,110,40
361.86066,361.9276,81,110,40
361.9276,361.99457,83,110,40
361.99457,362.06155,81,110,40
362.06155,362.1285,83,110,40
362.1285,362.19547,81,110,40
362.19547,362.26242,83,110,40
362.26242,362.3294,81,110,40
362.3294,362.39636,83,110,40
362.39636,362.46332,81,110,40
362.46332,362.5303,83,110,40
362.5303,362.59726,81,110,40
362.59726,362.6642,83,110,40
362.6642,362.73117,81,110,40
362.73117,362.79816,83,110,40
362.79816,362.8651,81,110,40
362.8651,362.93207,83,110,40
362.93207,362.99902,81,110,40
362.99902,363.066,83,110,40
363.066,363.13297,81,110,40
363.13297,363.19992,83,110,40
363.19992,363.2669,81,110,40
363.2669,363.33386,83,110,40
363.33386,363.40082,81,110,40
363.40082,363.46777,83,110,40
363.46777,363.53476,81,110,40
363.53476,363.6017,83,110,40
363.6017,363.66867,81,110,40
363.66867,363.73566,83,110,40
363.73566,363.8026,81,110,40
363.8026,363.86957,83,110,40
363.86957,363.95886,81,110,40
363.95886,364.04816,80,110,40
364.04816,364.13742,81,110,40
364.13742,364.2044,88,110,40
364.2044,364.27136,90,110,40
364.27136,364.33832,88,110,40
364.33832,364.40527,90,110,40
364.40527,364.47226,88,110,40
364.47226,364.5392,90,110,40
364.5392,364.60617,88,110,40
364.60617,364.67316,90,110,40
364.67316,364.7401,88,110,40
364.7401,364.80707,90,110,40
364.80707,364.87402,88,110,40
364.87402,364.941,90,110,40
364.941,365.00797,88,110,40
365.00797,365.07492,90,110,40
365.07492,365.1419,88,110,40
365.1419,365.20886,90,110,40
365.20886,365.27582,88,110,40
365.27582,365.34277,90,110,40
365.34277,365.40976,88,110,40
365.40976,365.4767,90,110,40
365.4767,365.54367,88,110,40
365.54367,365.61066,90,110,40
365.61066,365.6776,88,110,40
365.6776,365.74457,90,110,40
365.74457,365.81152,88,110,40
365.81152,365.8785,90,110,40
365.8785,365.94547,88,110,40
365.94547,366.01242,90,110,40
366.01242,366.0794,88,110,40
366.0794,366.14636,90,110,40
366.14636,366.21332,88,110,40
366.21332,366.28027,90,110,40
366.28027,366.34726,88,110,40
366.34726,366.4142,90,110,40
366.4142,366.48117,88,110,40
366.48117,366.54816,90,110,40
366.54816,366.68207,88,110,40
366.68207,366.74902,87,110,40
366.74902,366.80484,88,110,40
366.816,367.00574,92,110,40
367.08386,367.2736,88,110,40
367.3517,367.87628,93,110,40
368.42316,368.4901,81,110,40
368.4901,368.55707,83,110,40
368.55707,368.62402,81,110,40
368.62402,368.691,83,110,40
368.691,368.75797,81,110,40
368.75797,368.82492,83,110,40
368.82492,368.8919,81,110,40
368.8919,368.95886,83,110,40
368.95886,369.02582,81,110,40
369.02582,369.09277,83,110,40
369.09277,369.15976,81,110,40
369.15976,369.2267,83,110,40
369.2267,369.29367,81,110,40
369.29367,369.36066,83,110,40
369.36066,369.4276,81,110,40
369.4276,369.49457,83,110,40
369.49457,369.56152,81,110,40
369.56152,369.6285,83,110,40
369.6285,369.69547,81,110,40
369.69547,369.76242,83,110,40
369.76242,369.8294,81,110,40
369.8294,369.89636,83,110,40
369.89636,369.96332,81,110,40
369.96332,370.03027,83,110,40
370.03027,370.09726,81,110,40
370.09726,370.1642,83,110,40
370.1642,370.23117,81,110,40
370.23117,370.29816,83,110,40
370.29816,370.3651,81,110,40
370.3651,370.43207,83,110,40
370.43207,370.49902,81,110,40
370.49902,370.566,83,110,40
370.566,370.63297,81,110,40
370.63297,370.69992,83,110,40
370.69992,370.7669,81,110,40
370.7669,370.83386,83,110,40
370.83386,370.90082,81,110,40
370.90082,370.96777,83,110,40
370.96777,371.03476,81,110,40
371.03476,371.1017,83,110,40
371.1017,371.16867,81,110,40
371.16867,371.23563,83,110,40
371.23563,371.3026,81,110,40
371.3026,371.36957,83,110,40
371.36957,371.43652,81,110,40
371.43652,371.5035,83,110,40
371.5035,371.57047,81,110,40
371.57047,371.63742,83,110,40
371.63742,371.70438,81,110,40
371.70438,371.77136,83,110,40
371.77136,371.83832,81,110,40
371.83832,371.90527,83,110,40
371.90527,371.97226,81,110,40
371.97226,372.0392,83,110,40
372.0392,372.10617,81,110,40
372.10617,372.17313,83,110,40
372.17313,372.2401,81,110,40
372.2401,372.30707,83,110,40
372.30707,372.37402,81,110,40
372.37402,372.441,83,110,40
372.441,372.53027,81,110,40
372.53027,372.61957,80,110,40
372.61957,372.70886,81,110,40
372.70886,373.6352,91,110,40
373.64636,373.76913,91,110,40
373.78027,374.037,90,110,40
374.18207,374.30484,90,110,40
374.316,374.5727,88,110,40
374.71777,374.84055,88,110,40
374.8517,375.1084,86,110,40
375.2535,375.37625,86,110,40
375.38742,375.64413,81,110,40
375.7892,375.912,81,110,40
375.92313,376.4477,78,110,40
376.99457,377.06152,81,110,40
377.06152,377.1285,83,110,40
377.1285,377.19547,81,110,40
377.19547,377.26242,83,110,40
377.26242,377.32938,81,110,40
377.32938,377.39636,83,110,40
377.39636,377.46332,81,110,40
377.46332,377.53027,83,110,40
377.53027,377.59726,81,110,40
377.59726,377.6642,83,110,40
377.6642,377.73117,81,110,40
377.73117,377.79813,83,110,40
377.79813,377.8651,81,110,40
377.8651,377.93207,83,110,40
377.93207,377.99902,81,110,40
377.99902,378.066,83,110,40
378.066,378.13297,81,110,40
378.13297,378.19992,83,110,40
378.19992,378.26688,81,110,40
378.26688,378.33386,83,110,40
378.33386,378.40082,81,110,40
378.40082,378.46777,83,110,40
378.46777,378.53476,81,110,40
378.53476,378.6017,83,110,40
378.6017,378.66867,81,110,40
378.66867,378.73563,83,110,40
378.73563,378.8026,81,110,40
378.8026,378.86957,83,110,40
378.86957,378.93652,81,110,40
378.93652,379.0035,83,110,40
379.0035,379.07047,81,110,40
379.07047,379.13742,83,110,40
379.13742,379.20438,81,110,40
379.20438,379.27136,83,110,40
379.27136,379.33832,81,110,40
379.33832,379.40527,83,110,40
379.40527,379.47223,81,110,40
379.47223,379.5392,83,110,40
379.5392,379.60617,81,110,40
379.60617,379.67313,83,110,40
379.67313,379.7401,81,110,40
379.7401,379.80707,83,110,40
379.80707,379.87402,81,110,40
379.87402,379.94098,83,110,40
379.94098,380.00797,81,110,40
380.00797,380.07492,83,110,40
380.07492,380.14188,81,110,40
380.14188,380.20886,83,110,40
380.20886,380.27582,81,110,40
380.27582,380.34277,83,110,40
380.34277,380.40973,81,110,40
380.40973,380.4767,83,110,40
380.4767,380.54367,81,110,40
380.54367,380.61063,83,110,40
380.61063,380.6776,81,110,40
380.6776,380.74457,83,110,40
380.74457,380.81152,81,110,40
380.81152,380.87848,83,110,40
380.87848,380.94547,81,110,40
380.94547,381.01242,83,110,40
381.01242,381.1017,81,110,40
381.1017,381.19098,80,110,40
381.19098,381.28027,81,110,40
381.28027,381.34723,88,110,40
381.34723,381.4142,90,110,40
381.4142,381.48117,88,110,40
381.48117,381.54813,90,110,40
381.54813,381.6151,88,110,40
381.6151,381.68207,90,110,40
381.68207,381.74902,88,110,40
381.74902,381.81598,90,110,40
381.81598,381.88297,88,110,40
381.88297,381.94992,90,110,40
381.94992,382.01688,88,110,40
382.01688,382.08386,90,110,40
382.08386,382.15082,88,110,40
382.15082,382.21777,90,110,40
382.21777,382.28473,88,110,40
382.28473,382.3517,90,110,40
382.3517,382.41867,88,110,40
382.41867,382.48563,90,110,40
382.48563,382.5526,88,110,40
382.5526,382.61957,90,110,40
382.61957,382.68652,88,110,40
382.68652,382.75348,90,110,40
382.75348,382.82047,88,110,40
382.82047,382.88742,90,110,40
382.88742,382.95438,88,110,40
382.95438,383.02136,90,110,40
383.02136,383.08832,88,110,40
383.08832,383.15527,90,110,40
383.15527,383.22223,88,110,40
383.22223,383.2892,90,110,40
383.2892,383.35617,88,110,40
383.35617,383.42313,90,110,40
383.42313,383.4901,88,110,40
383.4901,383.55707,90,110,40
383.55707,383.62402,88,110,40
383.62402,383.69098,90,110,40
383.69098,383.82492,88,110,40
383.82492,383.89188,87,110,40
383.89188,383.9477,88,110,40
383.95886,384.1486,92,110,40
384.2267,384.41644,88,110,40
384.49457,385.0191,93,110,40
385.56598,385.63297,74,110,40
385.63297,385.69992,76,110,40
385.69992,385.76688,74,110,40
385.76688,385.83386,76,110,40
385.83386,385.90082,74,110,40
385.90082,385.96777,76,110,40
385.96777,386.03473,74,110,40
386.03473,386.1017,76,110,40
386.1017,386.16867,74,110,40
386.16867,386.23563,76,110,40
386.23563,386.3026,74,110,40
386.3026,386.36957,76,110,40
386.36957,386.43652,74,110,40
386.43652,386.50348,76,110,40
386.50348,386.57047,74,110,40
386.57047,386.63742,76,110,40
386.63742,386.70438,74,110,40
386.70438,386.77136,76,110,40
386.77136,386.83832,74,110,40
386.83832,386.90527,76,110,40
386.90527,386.97223,74,110,40
386.97223,387.0392,76,110,40
387.0392,387.10617,74,110,40
387.10617,387.17313,76,110,40
387.17313,387.24008,74,110,40
387.24008,387.30707,76,110,40
387.30707,387.37402,74,110,40
387.37402,387.44098,76,110,40
387.44098,387.50797,74,110,40
387.50797,387.57492,76,110,40
387.57492,387.64188,74,110,40
387.64188,387.70883,76,110,40
387.70883,387.77582,74,110,40
387.77582,387.84277,76,110,40
387.84277,387.90973,74,110,40
387.90973,387.9767,76,110,40
387.9767,388.04367,74,110,40
388.04367,388.11063,76,110,40
388.11063,388.17758,74,110,40
388.17758,388.24457,76,110,40
388.24457,388.31152,74,110,40
388.31152,388.37848,76,110,40
388.37848,388.44547,74,110,40
388.44547,388.51242,76,110,40
388.51242,388.57938,74,110,40
388.57938,388.64633,76,110,40
388.64633,388.71332,74,110,40
388.71332,388.78027,76,110,40
388.78027,388.84723,74,110,40
388.84723,388.9142,76,110,40
388.9142,388.98117,74,110,40
388.98117,389.04813,76,110,40
389.04813,389.11508,74,110,40
389.11508,389.18207,76,110,40
389.18207,389.24902,74,110,40
389.24902,389.31598,76,110,40
389.31598,389.38297,74,110,40
389.38297,389.44992,76,110,40
389.44992,389.51688,74,110,40
389.51688,389.58383,76,110,40
389.58383,389.65082,74,110,40
389.65082,389.71777,76,110,40
389.71777,389.78473,74,110,40
389.78473,389.84055,76,110,40
389.8517,390.6441,74,110,40
390.65527,390.7892,73,110,40
390.7892,390.92313,74,110,40
390.92313,391.11285,76,110,40
391.19098,391.32492,74,110,40
391.32492,391.45883,76,110,40
391.45883,391.6486,78,110,40
391.7267,391.86063,76,110,40
391.86063,391.99457,78,110,40
391.99457,392.1843,79,110,40
392.26242,392.39633,79,110,40
392.39633,392.53027,81,110,40
392.53027,392.72,83,110,40
392.79813,392.93207,83,110,40
392.93207,393.06598,85,110,40
393.06598,393.2557,86,110,40
393.86957,394.12625,69,110,40
394.13742,394.20438,81,110,40
394.20438,394.27133,83,110,40
394.27133,394.33832,81,110,40
394.33832,394.40527,83,110,40
394.40527,394.47223,81,110,40
394.47223,394.5392,83,110,40
394.5392,394.60617,81,110,40
394.60617,394.67313,83,110,40
394.67313,394.74008,81,110,40
394.74008,394.80707,83,110,40
394.80707,394.87402,81,110,40
394.87402,394.94098,83,110,40
394.94098,395.00797,81,110,40
395.00797,395.07492,83,110,40
395.07492,395.14188,81,110,40
395.14188,395.20883,83,110,40
395.20883,395.27582,81,110,40
395.27582,395.34277,83,110,40
395.34277,395.40973,81,110,40
395.40973,395.47668,83,110,40
395.47668,395.54367,81,110,40
395.54367,395.61063,83,110,40
395.61063,395.67758,81,110,40
395.67758,395.74457,83,110,40
395.74457,395.81152,81,110,40
395.81152,395.87848,83,110,40
395.87848,395.94543,81,110,40
395.94543,396.01242,83,110,40
396.01242,396.07938,81,110,40
396.07938,396.14633,83,110,40
396.14633,396.21332,81,110,40
396.21332,396.28027,83,110,40
396.28027,396.34723,81,110,40
396.34723,396.41418,83,110,40
396.41418,396.48117,81,110,40
396.48117,396.54813,83,110,40
396.54813,396.61508,81,110,40
396.61508,396.68207,83,110,40
396.68207,396.74902,81,110,40
396.74902,396.81598,83,110,40
396.81598,396.88293,81,110,40
396.88293,396.94992,83,110,40
396.94992,397.01688,81,110,40
397.01688,397.08383,83,110,40
397.08383,397.15082,81,110,40
397.15082,397.21777,83,110,40
397.21777,397.28473,81,110,40
397.28473,397.35168,83,110,40
397.35168,397.41867,81,110,40
397.41867,397.48563,83,110,40
397.48563,397.55258,81,110,40
397.55258,397.61957,83,110,40
397.61957,397.68652,81,110,40
397.68652,397.75348,83,110,40
397.75348,397.82043,81,110,40
397.82043,397.88742,83,110,40
397.88742,397.95438,81,110,40
397.95438,398.02133,83,110,40
398.02133,398.08832,81,110,40
398.08832,398.15527,83,110,40
398.15527,398.24457,81,110,40
398.24457,398.33383,80,110,40
398.33383,398.42313,81,110,40
398.42313,399.34946,91,110,40
399.36063,399.4834,91,110,40
399.49457,399.75125,90,110,40
399.89633,400.0191,90,110,40
400.03027,400.28696,88,110,40
400.43207,400.5548,88,110,40
400.56598,401.62625,88,110,40
401.63742,402.16196,86,110,40
402.70883,402.77582,74,110,40
402.77582,402.84277,76,110,40
402.84277,402.90973,74,110,40
402.90973,402.97668,76,110,40
402.97668,403.04367,74,110,40
403.04367,403.11063,76,110,40
403.11063,403.17758,74,110,40
403.17758,403.24457,76,110,40
403.24457,403.31152,74,110,40
403.31152,403.37848,76,110,40
403.37848,403.44543,74,110,40
403.44543,403.51242,76,110,40
403.51242,403.57938,74,110,40
403.57938,403.64633,76,110,40
403.64633,403.7133,74,110,40
403.7133,403.78027,76,110,40
403.78027,403.84723,74,110,40
403.84723,403.91418,76,110,40
403.91418,403.98117,74,110,40
403.98117,404.04813,76,110,40
404.04813,404.11508,74,110,40
404.11508,404.18204,76,110,40
404.18204,404.24902,74,110,40
404.24902,404.31598,76,110,40
404.31598,404.38293,74,110,40
404.38293,404.44992,76,110,40
404.44992,404.51688,74,110,40
404.51688,404.58383,76,110,40
404.58383,404.6508,74,110,40
404.6508,404.71777,76,110,40
404.71777,404.78473,74,110,40
404.78473,404.85168,76,110,40
404.85168,404.91867,74,110,40
404.91867,404.98563,76,110,40
404.98563,405.05258,74,110,40
405.05258,405.11954,76,110,40
405.11954,405.18652,74,110,40
405.18652,405.25348,76,110,40
405.25348,405.32043,74,110,40
405.32043,405.38742,76,110,40
405.38742,405.45438,74,110,40
405.45438,405.52133,76,110,40
405.52133,405.5883,74,110,40
405.5883,405.65527,76,110,40
405.65527,405.72223,74,110,40
405.72223,405.78918,76,110,40
405.78918,405.85617,74,110,40
405.85617,405.92313,76,110,40
405.92313,405.99008,74,110,40
405.99008,406.05704,76,110,40
406.05704,406.12402,74,110,40
406.12402,406.19098,76,110,40
406.19098,406.25793,74,110,40
406.25793,406.32492,76,110,40
406.32492,406.39188,74,110,40
406.39188,406.45883,76,110,40
406.45883,406.5258,74,110,40
406.5258,406.59277,76,110,40
406.59277,406.65973,74,110,40
406.65973,406.72668,76,110,40
406.72668,406.79367,74,110,40
406.79367,406.86063,76,110,40
406.86063,406.92758,74,110,40
406.92758,406.9834,76,110,40
406.99454,407.78696,74,110,40
407.79813,407.93204,73,110,40
407.93204,408.06598,74,110,40
408.06598,408.2557,76,110,40
408.33383,408.46777,74,110,40
408.46777,408.60168,76,110,40
408.60168,408.7914,78,110,40
408.86954,409.00348,76,110,40
409.00348,409.13742,78,110,40
409.13742,409.32715,79,110,40
409.40527,409.53918,79,110,40
409.53918,409.67313,81,110,40
409.67313,409.86285,83,110,40
409.94098,410.07492,83,110,40
410.07492,410.20883,85,110,40
410.20883,410.39856,86,110,40
411.01242,411.2691,69,110,40
411.28027,411.34723,81,110,40
411.34723,411.41418,83,110,40
411.41418,411.48117,81,110,40
411.48117,411.54813,83,110,40
411.54813,411.61508,81,110,40
411.61508,411.68204,83,110,40
411.68204,411.74902,81,110,40
411.74902,411.81598,83,110,40
411.81598,411.88293,81,110,40
411.88293,411.9499,83,110,40
411.9499,412.01688,81,110,40
412.01688,412.08383,83,110,40
412.08383,412.1508,81,110,40
412.1508,412.21777,83,110,40
412.21777,412.28473,81,110,40
412.28473,412.35168,83,110,40
412.35168,412.41864,81,110,40
412.41864,412.48563,83,110,40
412.48563,412.55258,81,110,40
412.55258,412.61954,83,110,40
412.61954,412.68652,81,110,40
412.68652,412.75348,83,110,40
412.75348,412.82043,81,110,40
412.82043,412.8874,83,110,40
412.8874,412.95438,81,110,40
412.95438,413.02133,83,110,40
413.02133,413.0883,81,110,40
413.0883,413.15527,83,110,40
413.15527,413.22223,81,110,40
413.22223,413.28918,83,110,40
413.28918,413.35614,81,110,40
413.35614,413.42313,83,110,40
413.42313,413.49008,81,110,40
413.49008,413.55704,83,110,40
413.55704,413.62402,81,110,40
413.62402,413.69098,83,110,40
413.69098,413.75793,81,110,40
413.75793,413.8249,83,110,40
413.8249,413.89188,81,110,40
413.89188,413.95883,83,110,40
413.95883,414.0258,81,110,40
414.0258,414.09277,83,110,40
414.09277,414.15973,81,110,40
414.15973,414.22668,83,110,40
414.22668,414.29364,81,110,40
414.29364,414.36063,83,110,40
414.36063,414.42758,81,110,40
414.42758,414.49454,83,110,40
414.49454,414.56152,81,110,40
414.56152,414.62848,83,110,40
414.62848,414.69543,81,110,40
414.69543,414.7624,83,110,40
414.7624,414.82938,81,110,40
414.82938,414.89633,83,110,40
414.89633,414.9633,81,110,40
414.9633,415.03027,83,110,40
415.03027,415.09723,81,110,40
415.09723,415.16418,83,110,40
415.16418,415.23114,81,110,40
415.23114,415.29813,83,110,40
415.29813,415.3874,81,110,40
415.3874,415.47668,80,110,40
415.47668,415.56598,81,110,40
415.56598,416.4923,91,110,40
416.50348,416.62625,91,110,40
416.6374,416.9036,90,110,40
417.05408,417.1814,90,110,40
417.19296,417.4694,88,110,40
417.63766,417.78088,88,110,40
417.7939,418.3379,86,110,40
422.51614,422.73605,65,50,40
422.7939,423.01382,65,50,40
423.0717,423.2916,65,50,40
423.3495,423.5694,65,50,40
423.62726,423.84717,65,50,40
423.90503,424.12494,65,50,40
424.1828,424.4027,65,50,40
424.46057,424.68048,65,50,40
424.73837,424.95828,77,50,40
425.01614,425.23605,77,50,40
425.2939,425.51382,77,50,40
425.5717,425.7916,77,50,40
425.8495,426.0694,72,50,40
426.12726,426.34717,77,50,40
426.40503,426.62494,75,50,40
426.6828,426.9027,74,50,40
426.96057,427.18048,65,50,40
427.23837,427.45828,65,50,40
427.51614,427.73605,65,50,40
427.7939,428.01382,65,50,40
428.0717,428.2916,65,50,40
428.3495,428.56937,65,50,40
428.62726,428.84717,65,50,40
428.90503,429.12494,60,50,40
429.1828,429.37958,72,52,40
429.46057,429.65735,74,55,40
429.73837,429.93512,76,58,40
430.01614,430.2129,77,61,40
430.2939,430.4907,75,64,40
430.5717,430.76846,74,67,40
430.8495,431.04623,72,69,40
431.12726,431.324,71,70,40
431.40503,431.60178,71,70,40
431.6828,431.87958,72,70,40
431.96057,432.15735,74,70,40
432.23837,433.6157,75,70,40
433.62726,433.824,69,70,40
433.90503,434.10178,70,71,40
434.1828,434.37958,72,72,40
434.46057,435.56012,74,73,40
435.5717,436.1157,70,77,40
436.12726,436.67123,69,79,40
436.6828,436.7549,68,81,40
436.7549,436.82703,69,82,40
436.82703,436.89914,68,82,40
436.89914,436.97128,69,82,40
436.97128,437.0434,68,82,40
437.0434,437.1155,69,83,40
437.1155,437.18762,68,83,40
437.18762,437.25974,69,83,40
437.25974,437.33472,68,83,40
437.33472,437.40973,69,84,40
437.40973,437.48474,68,84,40
437.48474,437.55972,69,84,40
437.55972,437.65973,68,84,40
437.65973,437.75974,66,85,40
437.75974,437.84723,68,85,40
437.85974,438.44724,69,85,40
440.69305,440.88983,69,50,40
440.97086,441.1676,71,50,40
441.24863,441.44537,73,50,40
441.5264,441.72314,74,50,40
441.80417,442.00095,76,50,40
442.08194,442.48703,78,50,40
442.91528,443.11203,79,50,40
443.19305,443.38983,76,50,40
443.47086,443.6676,74,50,40
443.74863,443.94537,73,50,40
444.0264,444.22314,71,50,40
444.30417,445.12595,69,50,40
445.1375,445.33426,69,50,40
445.41528,445.61203,71,50,40
445.69305,445.88983,73,50,40
445.97083,446.1676,74,50,40
446.24863,446.44537,76,50,40
446.5264,446.72314,78,50,40
446.80417,447.00095,80,50,40
447.08194,447.62595,81,50,40
447.6375,448.1815,81,50,40
448.19305,449.40918,81,50,40
449.4234,450.54517,90,50,40
450.55673,451.1007,88,50,40
451.11227,451.65625,86,50,40
451.66785,452.21182,85,50,40
452.2234,452.76736,83,50,40
452.77896,453.87848,81,50,40
453.89008,454.9896,90,50,40
455.00116,455.54517,88,50,40
455.55673,456.1007,86,50,40
456.11227,456.65625,85,50,40
456.66785,457.21182,83,55,40
457.2234,458.32294,81,61,40
458.3345,459.71182,83,70,40
459.7234,459.92017,85,70,40
460.00116,460.19794,87,70,40
460.27896,460.4757,88,70,40
460.55673,461.93405,81,70,40
461.94562,462.14236,83,70,40
462.2234,462.42017,85,70,40
462.50116,462.69794,86,70,40
462.77896,469.71182,74,70,40
462.77896,469.71182,86,70,40
469.7234,469.9896,85,72,40
470.00116,470.26736,86,75,40
470.27896,470.54517,88,78,40
470.55673,470.82294,86,81,40
470.8345,471.1007,84,84,40
471.11227,471.37848,83,87,40
471.39005,471.65625,81,90,40
471.66785,471.8646,80,70,40
471.94562,472.14236,80,70,40
472.2234,472.42017,81,70,40
472.50116,472.69794,83,70,40
472.77896,474.15625,84,70,40
474.16785,474.3646,78,70,40
474.44562,474.64236,79,70,40
474.7234,474.92017,81,70,40
475.00116,476.1007,83,70,40
476.39005,476.58682,81,70,40
476.66785,476.8646,79,70,40
476.94562,477.14236,75,70,40
477.2234,478.6007,76,70,40
478.61227,478.80905,79,70,40
478.89005,479.08682,78,70,40
479.16785,479.3646,73,70,40
479.44562,480.01053,74,70,40
480.64862,482.04816,83,70,40
482.05972,482.2565,85,79,40
482.33752,482.53427,87,81,40
482.6153,482.81204,88,83,40
482.89307,484.2704,81,85,40
484.28195,484.47873,83,95,40
484.55972,484.7565,85,97,40
484.83752,485.03427,86,98,40
485.1153,485.31204,79,100,40
485.39307,485.5898,81,100,40
485.67084,485.8676,83,125,40
485.9486,486.1454,85,113,40
486.2264,486.42316,78,100,40
486.50418,486.70093,79,100,40
486.78195,486.97873,81,125,40
487.05972,487.2565,83,113,40
487.33752,487.53427,76,100,40
487.6153,487.81204,78,100,40
487.89307,488.09738,79,125,40
488.18152,488.38586,81,113,40
488.47,488.6825,74,100,40
488.77,488.98248,76,100,40
489.06998,489.30096,78,125,40
489.3961,489.6617,79,113,40
489.7711,491.00806,79,110,40
491.0211,492.31183,77,110,40
492.3254,493.7391,76,110,40
493.754,496.59625,64,110,40
497.62543,497.91293,69,70,40
497.9254,499.1129,78,50,40
499.12543,499.71292,76,50,40
499.72543,500.31293,74,50,40
500.3254,500.91293,73,50,40
500.9254,501.5129,71,50,40
501.52542,502.71292,69,50,40
503.3254,503.6129,73,50,40
503.77542,503.9254,69,50,40
503.9254,504.21292,71,50,40
504.37543,504.52542,69,50,40
504.52542,504.81293,73,50,40
504.97543,505.12543,69,50,40
505.12543,505.41293,74,50,40
505.5754,505.72543,69,50,40
505.72543,506.0129,76,50,40
506.1754,506.3254,69,50,40
506.3254,506.91293,78,50,40
509.9254,511.41293,91,50,40
511.4254,511.71292,90,63,40
511.72543,512.01294,88,66,40
512.02545,512.3129,86,69,40
512.32544,512.6129,85,71,40
512.6254,512.9129,83,74,40
512.9254,513.21295,81,77,40
513.2254,513.51294,79,79,40
513.52545,513.8249,78,82,40
513.83795,514.1374,76,85,40
514.15045,514.46295,74,88,40
514.4765,514.789,73,90,40
514.8026,515.1151,71,90,40
515.12866,515.44116,69,85,40
515.4548,515.7815,68,79,40
515.79565,516.1224,69,73,40
516.1366,516.4788,70,68,40
516.4937,516.836,71,62,40
516.8509,517.21027,72,56,40
517.2259,517.6252,73,51,40
517.6425,518.4585,74,50,40
519.1009,519.2919,69,50,40
519.3092,520.2884,69,50,40
520.8092,521.2884,66,50,40
521.3092,525.2884,66,50,40
529.8092,530.2884,62,1,40
0.0,0.22545569,74,1,40
1.1344697,2.1947372,69,70,40
2.2058978,2.730451,67,70,40
2.7416117,3.266165,66,70,40
3.2773259,3.8018792,64,70,40
3.8130398,4.337593,62,70,40
4.348754,5.944735,61,70,40
5.955896,6.480449,61,70,40
6.4916096,7.016163,62,70,40
7.0273237,7.551877,64,70,40
7.563038,8.087591,66,70,40
8.098752,8.623305,67,70,40
8.634466,9.694733,69,70,40
9.7058935,10.766161,69,70,40
10.777322,11.301875,67,70,40
11.313036,11.837589,66,70,40
11.84875,12.373303,64,70,40
12.384464,12.909017,62,70,40
12.920177,14.516159,61,70,40
14.52732,14.929106,59,70,40
14.929106,15.063034,57,70,40
15.063034,15.587587,59,70,40
15.598748,16.1233,62,70,40
16.134462,16.223747,61,70,40
16.223747,16.313034,62,70,40
16.313034,16.402319,64,70,40
16.402319,17.194729,62,70,40
17.20589,17.730444,61,70,40
18.277317,19.337585,69,70,40
19.348745,19.873299,67,70,40
19.88446,20.409014,66,70,40
20.420174,20.944727,64,70,40
20.955887,21.48044,62,70,40
21.491602,23.087584,61,70,40
23.098743,23.623297,61,70,40
23.634459,24.159012,62,70,40
24.170172,24.694725,64,70,40
24.705885,25.230438,66,70,40
25.2416,25.766153,67,70,40
25.777313,26.837582,69,70,40
26.848742,27.90901,69,70,40
27.92017,28.444723,67,70,40
28.455883,28.980436,66,70,40
28.991598,29.516151,64,70,40
29.527311,30.051865,62,70,40
30.063026,31.659008,61,70,40
31.670168,32.071953,59,70,40
32.071953,32.205883,57,70,40
32.205883,32.730434,59,70,40
32.741596,33.266148,62,70,40
33.27731,33.373463,61,70,40
33.373463,33.469616,62,70,40
33.469616,33.565773,64,70,40
33.565773,34.466213,62,70,40
34.479233,35.146847,61,70,40
35.737972,39.47681,62,70,40
39.487972,40.012524,62,70,40
40.023685,40.54824,62,70,40
40.5594,41.083954,64,78,40
41.095116,41.35181,67,87,40
41.362972,41.619667,66,91,40
41.63083,41.887524,64,95,40
41.898685,42.16489,66,99,40
42.176464,42.720444,67,100,40
42.732018,43.31952,71,100,40
43.33202,43.970604,69,100,40
44.561115,45.621384,78,70,40
45.63254,46.157097,76,70,40
46.168255,46.69281,74,70,40
46.70397,47.228523,73,70,40
47.239685,47.764236,71,70,40
47.7754,48.299953,76,70,40
48.31111,48.835667,74,70,40
48.846825,49.37138,73,70,40
49.38254,49.907093,71,70,40
49.918255,50.442806,69,70,40
50.453968,50.98803,67,70,40
50.999603,52.199818,67,70,40
50.999603,52.88045,57,70,40
52.212837,52.88045,66,70,40
53.47158,57.210415,62,70,40
57.221577,57.74613,62,70,40
57.75729,58.281845,62,70,40
58.293007,58.81756,64,78,40
58.82872,59.085415,67,87,40
59.096577,59.35327,66,91,40
59.364433,59.621128,64,95,40
59.63229,59.898495,66,99,40
59.91007,60.47497,67,100,40
60.48699,61.09897,71,100,40
61.11199,61.779606,69,100,40
62.37073,63.431,78,70,40
63.44216,63.966713,76,70,40
63.977875,64.502426,74,70,40
64.51359,65.03814,73,70,40
65.0493,65.57385,71,70,40
65.585014,66.109566,76,70,40
66.12073,66.64529,74,70,40
66.65644,67.181,73,70,40
67.19216,67.71671,71,70,40
67.727875,68.252426,69,70,40
68.26359,68.807884,67,70,40
68.81991,70.11252,67,70,40
68.81991,70.8611,57,70,40
70.126724,70.8611,66,70,40
79.48936,79.87998,69,70,40
79.89114,80.01391,69,70,40
80.02507,80.54962,78,70,40
80.56078,80.69471,79,70,40
80.69471,80.82864,78,70,40
80.82864,80.96257,76,70,40
80.96257,81.0965,78,70,40
81.0965,81.28623,79,70,40
81.36436,81.554085,76,70,40
81.63221,81.821945,78,70,40
81.90007,82.0898,74,70,40
82.16792,83.49605,76,70,40
83.50721,83.696945,73,91,40
83.77507,83.9648,72,95,40
84.04292,84.23266,72,99,40
84.31078,84.50051,64,100,40
84.31078,84.50051,73,100,40
84.578636,84.76837,64,125,40
84.578636,84.76837,73,125,40
85.11435,85.37105,64,125,40
85.11435,85.37105,73,125,40
85.65007,85.90676,64,125,40
85.65007,85.90676,74,125,40
86.18578,86.442474,71,125,40
86.453636,87.51391,68,70,40
87.52506,88.04962,69,70,40
96.6322,97.02283,69,70,40
97.03399,97.15675,69,70,40
97.167915,97.692474,78,70,40
97.70363,97.83756,79,70,40
97.83756,97.97149,78,70,40
97.97149,98.105415,76,70,40
98.105415,98.23934,78,70,40
98.23934,98.42908,79,70,40
98.5072,98.69694,76,70,40
98.77506,98.96479,78,70,40
99.042915,99.23265,74,70,40
99.310776,100.6389,76,70,40
100.650055,100.83979,73,91,40
100.917915,101.10765,72,95,40
101.185776,101.3755,72,99,40
101.45363,101.643364,64,100,40
101.45363,101.643364,73,100,40
101.72149,101.91122,64,125,40
101.72149,101.91122,73,125,40
102.2572,102.51389,64,125,40
102.2572,102.51389,73,125,40
102.792915,103.049614,64,125,40
102.792915,103.049614,74,125,40
103.32863,103.59483,71,125,40
103.60641,104.79531,68,70,40
104.80833,105.475945,69,70,40
108.20992,109.270195,67,70,40
109.28136,109.80591,69,70,40
109.81707,110.34162,70,70,40
110.35278,110.877335,69,70,40
114.10278,114.49341,62,70,40
114.50456,114.627335,62,70,40
114.6385,115.16305,78,70,40
115.17421,115.308136,79,70,40
115.308136,115.44206,78,70,40
115.44206,115.576,76,70,40
115.576,115.70992,78,70,40
115.70992,115.89965,79,70,40
115.977776,116.16751,76,70,40
116.245636,116.43537,78,70,40
116.5135,116.703224,74,70,40
116.78135,116.971085,73,70,40
117.04921,117.23894,69,73,40
117.31706,117.5068,74,77,40
117.58492,117.77465,69,81,40
117.852776,118.04251,76,84,40
118.120636,118.31036,69,88,40
118.38849,118.578224,78,92,40
118.65635,118.846085,69,96,40
118.92421,119.11394,79,100,40
119.19206,119.3818,57,125,40
119.19206,119.3818,67,125,40
119.727776,119.984474,57,125,40
119.727776,119.984474,67,125,40
120.26349,120.52019,57,125,40
120.26349,120.52019,67,125,40
120.80913,121.08557,61,125,40
121.09759,122.31371,61,70,40
122.32792,123.062294,62,70,40
125.7977,126.85796,67,70,40
126.869125,127.39368,69,70,40
127.40484,127.9294,70,70,40
127.94055,128.4651,69,70,40
131.69055,132.08118,62,70,40
132.09233,132.2151,62,70,40
132.22627,132.75082,78,70,40
132.76198,132.8959,79,70,40
132.8959,133.02983,78,70,40
133.02983,133.16377,76,70,40
133.16377,133.2977,78,70,40
133.2977,133.48743,79,70,40
133.56555,133.75528,76,70,40
133.8334,134.02315,78,70,40
134.10127,134.291,74,70,40
134.36913,134.55885,73,70,40
134.63698,134.8267,69,73,40
134.90483,135.09457,74,77,40
135.1727,135.36243,69,81,40
135.44055,135.63028,76,84,40
135.7084,135.89813,69,88,40
135.97626,136.166,78,92,40
136.24413,136.43385,69,96,40
136.51198,136.7017,79,100,40
136.77983,136.96957,57,125,40
136.77983,136.96957,67,125,40
137.31555,137.57225,57,125,40
137.31555,137.57225,67,125,40
137.86119,138.12738,57,125,40
137.86119,138.12738,67,125,40
138.42743,138.71492,61,125,40
138.72742,140.01288,61,70,40
140.0285,140.89249,62,70,40
141.51086,141.76756,66,60,40
142.04657,142.30327,66,60,40
143.65372,143.91042,67,60,40
144.18944,144.44614,67,60,40
145.79657,146.05327,64,60,40
146.33229,146.58899,64,60,40
147.93944,148.19612,66,60,40
148.47514,148.73184,66,60,40
150.08229,150.33899,66,60,40
151.15372,151.41042,64,60,40
151.68942,151.94612,62,60,40
152.22514,152.48184,64,60,40
153.29657,153.55327,62,60,40
153.83229,154.08897,61,60,40
154.368,154.6247,62,60,40
155.43942,155.69612,62,60,40
156.68942,156.85684,62,60,40
156.868,157.03542,61,60,40
157.04657,157.21397,62,60,40
157.22514,157.39255,64,60,40
157.40372,157.57112,62,60,40
157.58228,158.10684,61,60,40
158.65372,158.9104,66,60,40
159.18942,159.44612,66,60,40
160.79657,161.05327,67,60,40
161.33228,161.58897,67,60,40
162.93942,163.19612,64,60,40
163.47514,163.73183,64,60,40
165.08228,165.33897,66,60,40
165.618,165.8747,66,60,40
167.22513,167.48183,66,60,40
168.29657,168.55325,64,60,40
168.83228,169.08897,62,60,40
169.368,169.62468,64,60,40
170.43942,170.69612,62,60,40
170.97513,171.23183,61,60,40
171.51085,171.76755,62,60,40
172.58228,172.83897,62,60,40
173.87654,174.05682,62,60,40
174.06885,174.24913,61,60,40
174.26115,174.45647,62,60,40
174.46948,174.67308,64,60,40
174.68729,174.90036,62,60,40
174.91457,175.64894,61,60,40
176.28957,176.54625,66,60,40
176.28957,176.54625,69,60,40
176.82527,177.08197,66,60,40
176.82527,177.08197,69,60,40
178.43242,179.22482,71,60,40
179.236,179.49268,67,87,40
179.50385,180.0284,65,90,40
180.03955,180.29625,66,78,40
180.57527,180.83197,66,60,40
180.57527,180.83197,69,60,40
181.111,181.36768,66,60,40
181.111,181.36768,69,60,40
182.71812,183.51054,71,60,40
183.5217,183.7784,67,87,40
183.78955,184.3141,65,90,40
184.32527,184.58197,66,78,40
184.86098,185.11768,66,60,40
185.3967,185.6534,66,60,40
187.00385,187.26054,67,60,40
187.53955,187.79625,67,60,40
189.1467,189.4034,57,60,40
189.1467,189.4034,67,60,40
190.21812,190.47482,57,60,40
190.21812,190.47482,67,60,40
191.46812,191.6467,67,60,40
191.6467,191.82527,66,60,40
191.82527,192.00383,67,60,40
192.00383,192.1824,69,60,40
192.1824,192.36098,67,60,40
192.36098,192.88553,66,60,40
193.4324,193.6891,66,60,40
193.4324,193.6891,69,60,40
193.96812,194.22482,66,60,40
193.96812,194.22482,69,60,40
195.57527,196.36768,71,60,40
196.37883,196.63553,67,87,40
196.6467,197.17125,65,90,40
197.1824,197.4391,66,78,40
197.71812,197.97482,66,60,40
197.71812,197.97482,69,60,40
198.25383,198.51053,66,60,40
198.25383,198.51053,69,60,40
199.86098,200.65338,71,60,40
200.66455,200.92125,67,87,40
200.9324,201.45695,65,90,40
201.46812,201.72481,66,78,40
202.00383,202.26053,66,60,40
202.53955,202.79625,66,60,40
204.14668,204.40338,67,60,40
204.6824,204.9391,67,60,40
206.28955,206.54623,57,60,40
206.28955,206.54623,67,60,40
207.36098,207.62718,57,60,40
207.36098,207.62718,67,60,40
208.70499,208.90498,67,60,40
208.90498,209.105,66,60,40
209.105,209.32239,67,60,40
209.32239,209.55608,69,60,40
209.55608,209.80608,67,60,40
209.80608,210.67004,66,60,40
211.28842,211.41774,66,70,40
211.41774,211.54704,69,70,40
211.54704,211.67636,71,70,40
211.67636,211.80566,69,70,40
211.80566,211.93498,71,70,40
211.93498,212.06429,69,70,40
212.06429,212.1936,71,70,40
212.1936,212.3229,69,70,40
212.3229,212.45222,67,70,40
212.45222,212.58153,69,70,40
212.58153,212.71085,71,70,40
212.71085,212.84015,69,70,40
212.84015,212.96947,66,70,40
212.96947,213.09877,69,70,40
213.09877,213.22809,71,70,40
213.22809,213.35739,69,70,40
213.35739,213.48671,64,70,40
213.48671,213.61601,69,70,40
213.61601,213.74532,71,70,40
213.74532,213.87463,69,70,40
213.87463,214.00394,71,70,40
214.00394,214.13326,69,70,40
214.13326,214.26256,71,70,40
214.26256,214.39188,69,70,40
214.39188,214.52118,71,70,40
214.52118,214.6505,69,70,40
214.6505,214.7798,71,70,40
214.7798,214.90912,69,70,40
214.90912,215.03842,71,70,40
215.03842,215.16774,69,70,40
215.16774,215.29704,71,70,40
215.29704,215.42636,69,70,40
215.42636,215.55566,73,70,40
215.55566,215.68498,69,70,40
215.68498,215.81429,71,70,40
215.81429,215.9436,69,70,40
215.9436,216.0729,71,70,40
216.0729,216.20222,69,70,40
216.20222,216.33153,71,70,40
216.33153,216.46083,69,70,40
216.46083,216.59015,74,70,40
216.59015,216.71945,69,70,40
216.71945,216.84877,71,70,40
216.84877,216.97807,69,70,40
216.97807,217.10739,67,70,40
217.10739,217.2367,69,70,40
217.2367,217.36601,71,70,40
217.36601,217.49532,69,70,40
217.49532,217.62463,66,70,40
217.62463,217.75394,69,70,40
217.75394,217.88326,71,70,40
217.88326,218.01256,69,70,40
218.01256,218.14188,71,70,40
218.14188,218.27118,69,70,40
218.27118,218.4005,71,70,40
218.4005,218.5298,69,70,40
218.5298,218.65912,71,70,40
218.65912,218.78842,69,70,40
218.78842,218.91774,71,70,40
218.91774,219.04704,69,70,40
219.04704,219.17636,71,70,40
219.17636,219.30566,69,70,40
219.30566,219.43497,71,70,40
219.43497,219.56429,69,70,40
219.56429,219.69359,66,70,40
219.69359,219.8229,69,70,40
219.8229,219.95221,66,70,40
219.95221,220.08153,69,70,40
220.08153,220.21083,66,70,40
220.21083,220.34015,69,70,40
220.34015,220.46945,66,70,40
220.46945,220.59877,69,70,40
220.59877,220.72807,64,70,40
220.72807,220.85739,69,70,40
220.85739,220.9867,64,70,40
220.9867,221.11601,69,70,40
221.11601,221.24532,62,70,40
221.24532,221.37463,69,70,40
221.37463,221.50394,62,70,40
221.50394,221.63326,69,70,40
221.63326,221.76256,61,70,40
221.76256,221.89188,69,71,40
221.89188,222.02118,73,72,40
222.02118,222.15048,69,73,40
222.15048,222.2798,73,74,40
222.2798,222.4091,69,75,40
222.4091,222.53842,73,76,40
222.53842,222.66772,69,78,40
222.66772,222.79704,73,79,40
222.79704,222.92635,69,80,40
222.92635,223.05566,73,81,40
223.05566,223.18497,69,82,40
223.18497,223.31429,73,83,40
223.31429,223.44359,69,84,40
223.44359,223.5729,73,86,40
223.5729,223.70221,69,87,40
223.70221,223.83153,73,88,40
223.83153,223.96083,69,89,40
223.96083,224.09015,73,90,40
224.09015,224.21945,69,91,40
224.21945,224.34877,74,92,40
224.34877,224.47807,73,94,40
224.47807,224.60739,74,95,40
224.60739,224.7367,73,96,40
224.7367,224.866,71,97,40
224.866,224.99532,69,98,40
224.99532,225.12462,71,99,40
225.12462,225.25394,69,100,40
225.25394,225.38324,68,96,40
225.38324,225.51256,69,89,40
225.51256,225.64186,71,81,40
225.64186,225.77118,68,73,40
225.77118,225.90048,73,70,40
225.90048,226.0298,69,70,40
226.0298,226.1591,74,70,40
226.1591,226.28842,71,70,40
226.28842,226.41772,76,70,40
226.41772,226.54704,73,70,40
226.54704,226.67635,78,70,40
226.67635,226.80566,74,70,40
226.80566,226.93497,79,70,40
226.93497,227.06429,78,70,40
227.06429,227.19359,76,70,40
227.19359,227.3229,74,70,40
227.3229,227.45221,73,70,40
227.45221,227.58151,71,70,40
227.58151,227.71083,69,70,40
227.71083,227.84013,67,70,40
227.84013,227.96945,66,70,40
227.96945,228.09875,69,70,40
228.09875,228.22807,71,70,40
228.22807,228.35738,69,70,40
228.35738,228.4867,71,70,40
228.4867,228.616,69,70,40
228.616,228.74532,71,70,40
228.74532,228.87462,69,70,40
228.87462,229.00394,67,70,40
229.00394,229.13324,69,70,40
229.13324,229.26256,71,70,40
229.26256,229.39186,69,70,40
229.39186,229.52118,66,70,40
229.52118,229.65048,69,70,40
229.65048,229.7798,71,70,40
229.7798,229.9091,69,70,40
229.9091,230.03842,64,70,40
230.03842,230.16772,69,70,40
230.16772,230.29703,71,70,40
230.29703,230.42635,69,70,40
230.42635,230.55565,71,70,40
230.55565,230.68497,69,70,40
230.68497,230.81427,71,70,40
230.81427,230.94359,69,70,40
230.94359,231.07289,71,70,40
231.07289,231.20221,69,70,40
231.20221,231.33151,71,70,40
231.33151,231.46083,69,70,40
231.46083,231.59013,71,70,40
231.59013,231.71945,69,70,40
231.71945,231.84875,71,70,40
231.84875,231.97807,69,70,40
231.97807,232.10738,73,70,40
232.10738,232.2367,69,70,40
232.2367,232.366,71,70,40
232.366,232.49532,69,70,40
232.49532,232.62462,71,70,40
232.62462,232.75394,69,70,40
232.75394,232.88324,71,70,40
232.88324,233.01254,69,70,40
233.01254,233.14186,74,70,40
233.14186,233.27116,69,70,40
233.27116,233.40048,71,70,40
233.40048,233.52979,69,70,40
233.52979,233.6591,67,70,40
233.6591,233.7884,69,70,40
233.7884,233.91772,71,70,40
233.91772,234.04703,69,70,40
234.04703,234.17635,66,70,40
234.17635,234.30565,69,70,40
234.30565,234.43497,71,70,40
234.43497,234.56427,69,70,40
234.56427,234.69359,71,70,40
234.69359,234.82289,69,70,40
234.82289,234.95221,71,70,40
234.95221,235.08151,69,70,40
235.08151,235.21083,71,70,40
235.21083,235.34013,69,70,40
235.34013,235.46945,71,70,40
235.46945,235.59875,69,70,40
235.59875,235.72807,71,70,40
235.72807,235.85738,69,70,40
235.85738,235.98668,71,70,40
235.98668,236.116,69,70,40
236.116,236.2453,66,70,40
236.2453,236.37462,69,70,40
236.37462,236.50392,66,70,40
236.50392,236.63324,69,70,40
236.63324,236.76254,66,70,40
236.76254,236.89186,69,70,40
236.89186,237.02116,66,70,40
237.02116,237.15048,69,70,40
237.15048,237.27979,64,70,40
237.27979,237.4091,69,70,40
237.4091,237.5384,64,70,40
237.5384,237.66772,69,70,40
237.66772,237.79703,62,70,40
237.79703,237.92635,69,70,40
237.92635,238.05565,62,70,40
238.05565,238.18497,69,70,40
238.18497,238.31427,61,70,40
238.31427,238.44359,69,71,40
238.44359,238.57289,73,72,40
238.57289,238.7022,69,73,40
238.7022,238.83151,73,74,40
238.83151,238.96082,69,75,40
238.96082,239.09013,73,76,40
239.09013,239.21944,69,78,40
239.21944,239.34875,73,79,40
239.34875,239.47806,69,80,40
239.47806,239.60738,73,81,40
239.60738,239.73668,69,82,40
239.73668,239.866,73,83,40
239.866,239.9953,69,84,40
239.9953,240.12462,73,86,40
240.12462,240.25392,69,87,40
240.25392,240.38324,73,88,40
240.38324,240.51254,69,89,40
240.51254,240.64186,73,90,40
240.64186,240.77116,69,91,40
240.77116,240.90048,74,92,40
240.90048,241.02979,73,94,40
241.02979,241.1591,74,95,40
241.1591,241.2884,73,96,40
241.2884,241.41771,71,97,40
241.41771,241.54703,69,98,40
241.54703,241.67633,71,99,40
241.67633,241.80565,69,100,40
241.80565,241.93495,68,96,40
241.93495,242.06427,69,89,40
242.06427,242.19357,71,81,40
242.19357,242.32289,68,73,40
242.32289,242.4522,73,70,40
242.4522,242.58151,69,70,40
242.58151,242.71082,74,70,40
242.71082,242.84013,71,70,40
242.84013,242.96944,76,70,40
242.96944,243.09875,73,70,40
243.09875,243.22806,78,70,40
243.22806,243.35738,74,70,40
243.35738,243.48668,79,70,40
243.48668,243.616,78,70,40
243.616,243.7453,76,70,40
243.7453,243.87462,74,70,40
243.87462,244.00392,73,70,40
244.00392,244.13322,71,70,40
244.13322,244.26254,69,70,40
244.26254,244.39185,67,70,40
244.39185,244.52116,66,70,40
244.52116,244.65047,69,70,40
244.65047,244.77979,66,70,40
244.77979,244.90909,69,70,40
244.90909,245.0384,66,70,40
245.0384,245.16771,69,70,40
245.16771,245.29703,66,70,40
245.29703,245.42633,69,70,40
245.42633,245.55565,66,70,40
245.55565,245.68495,69,70,40
245.68495,245.81427,66,70,40
245.81427,245.94357,69,70,40
245.94357,246.07289,66,70,40
246.07289,246.2022,69,70,40
246.2022,246.33151,66,70,40
246.33151,246.46082,69,70,40
246.46082,246.59013,67,70,40
246.59013,246.71944,71,70,40
246.71944,246.84874,67,70,40
246.84874,246.97806,71,70,40
246.97806,247.10736,67,70,40
247.10736,247.23668,71,70,40
247.23668,247.36598,67,70,40
247.36598,247.4953,71,70,40
247.4953,247.6246,66,70,40
247.6246,247.75392,69,70,40
247.75392,247.88322,66,70,40
247.88322,248.01254,69,70,40
248.01254,248.14185,66,70,40
248.14185,248.27116,69,70,40
248.27116,248.40047,66,70,40
248.40047,248.52979,69,70,40
248.52979,248.65909,69,70,40
248.65909,248.7884,74,70,40
248.7884,248.91771,69,70,40
248.91771,249.04703,74,70,40
249.04703,249.17633,69,70,40
249.17633,249.30565,74,70,40
249.30565,249.43495,69,70,40
249.43495,249.56425,74,70,40
249.56425,249.69357,69,70,40
249.69357,249.82288,74,70,40
249.82288,249.9522,69,70,40
249.9522,250.0815,74,70,40
250.0815,250.21082,69,70,40
250.21082,250.34012,74,70,40
250.34012,250.46944,69,70,40
250.46944,250.59874,74,70,40
250.59874,250.72806,71,70,40
250.72806,250.85736,74,70,40
250.85736,250.98668,71,70,40
250.98668,251.11598,74,70,40
251.11598,251.2453,71,70,40
251.2453,251.3746,74,70,40
251.3746,251.50392,71,70,40
251.50392,251.63322,74,70,40
251.63322,251.76254,69,70,40
251.76254,251.89185,74,70,40
251.89185,252.02116,69,70,40
252.02116,252.15047,74,70,40
252.15047,252.27979,69,70,40
252.27979,252.40909,74,70,40
252.40909,252.53839,69,70,40
252.53839,252.66771,74,70,40
252.66771,252.79701,66,70,40
252.79701,252.92633,69,70,40
252.92633,253.05563,66,70,40
253.05563,253.18495,69,70,40
253.18495,253.31425,66,70,40
253.31425,253.44357,69,70,40
253.44357,253.57288,66,70,40
253.57288,253.7022,69,70,40
253.7022,253.8315,64,70,40
253.8315,253.96082,69,70,40
253.96082,254.09012,64,70,40
254.09012,254.21944,69,70,40
254.21944,254.34874,62,70,40
254.34874,254.47806,69,70,40
254.47806,254.60736,62,70,40
254.60736,254.73668,69,70,40
254.73668,254.86598,61,70,40
254.86598,254.9953,69,70,40
254.9953,255.1246,61,71,40
255.1246,255.2539,69,72,40
255.2539,255.38322,61,73,40
255.38322,255.51253,69,74,40
255.51253,255.64185,61,75,40
255.64185,255.77115,69,76,40
255.77115,255.90047,61,77,40
255.90047,256.0298,69,78,40
256.0298,256.1591,62,79,40
256.1591,256.2884,69,80,40
256.2884,256.4177,64,81,40
256.4177,256.54703,69,82,40
256.54703,256.67633,66,83,40
256.67633,256.80563,69,84,40
256.80563,256.93494,67,85,40
256.93494,257.06427,69,86,40
257.06427,257.19357,57,87,40
257.19357,257.32288,69,88,40
257.32288,257.45218,57,89,40
257.45218,257.5815,69,90,40
257.5815,257.71082,57,91,40
257.71082,257.84012,69,92,40
257.84012,257.96942,57,93,40
257.96942,258.09872,69,94,40
258.09872,258.22806,57,95,40
258.22806,258.35736,69,96,40
258.35736,258.48666,57,97,40
258.48666,258.61597,67,98,40
258.61597,258.7453,57,98,40
258.7453,258.8746,67,99,40
258.8746,259.0039,67,100,40
259.0039,259.1332,69,100,40
259.1332,259.26254,73,96,40
259.26254,259.39185,76,91,40
259.39185,259.52115,79,86,40
259.52115,259.65045,76,81,40
259.65045,259.7798,73,76,40
259.7798,259.9091,67,71,40
259.9091,260.0384,66,70,40
260.0384,260.1677,74,70,40
260.1677,260.29703,73,70,40
260.29703,260.42633,71,70,40
260.42633,260.55563,69,70,40
260.55563,260.68494,71,70,40
260.68494,260.81424,67,70,40
260.81424,260.94357,69,70,40
260.94357,261.07288,66,70,40
261.07288,261.20218,69,70,40
261.20218,261.33148,66,70,40
261.33148,261.46082,69,70,40
261.46082,261.59012,66,70,40
261.59012,261.71942,69,70,40
261.71942,261.84872,66,70,40
261.84872,261.97806,69,70,40
261.97806,262.10736,66,70,40
262.10736,262.23666,69,70,40
262.23666,262.36597,66,70,40
262.36597,262.4953,69,70,40
262.4953,262.6246,66,70,40
262.6246,262.7539,69,70,40
262.7539,262.8832,66,70,40
262.8832,263.01254,69,70,40
263.01254,263.14185,67,70,40
263.14185,263.27115,71,70,40
263.27115,263.40045,67,70,40
263.40045,263.52975,71,70,40
263.52975,263.6591,67,70,40
263.6591,263.7884,71,70,40
263.7884,263.9177,67,70,40
263.9177,264.047,71,70,40
264.047,264.17633,66,70,40
264.17633,264.30563,69,70,40
264.30563,264.43494,66,70,40
264.43494,264.56424,69,70,40
264.56424,264.69357,66,70,40
264.69357,264.82288,69,70,40
264.82288,264.95218,66,70,40
264.95218,265.08148,69,70,40
265.08148,265.21082,69,70,40
265.21082,265.34012,74,70,40
265.34012,265.46942,69,70,40
265.46942,265.59872,74,70,40
265.59872,265.72806,69,70,40
265.72806,265.85736,74,70,40
265.85736,265.98666,69,70,40
265.98666,266.11597,74,70,40
266.11597,266.24527,69,70,40
266.24527,266.3746,74,70,40
266.3746,266.5039,69,70,40
266.5039,266.6332,74,70,40
266.6332,266.7625,69,70,40
266.7625,266.89185,74,70,40
266.89185,267.02115,69,70,40
267.02115,267.15045,74,70,40
267.15045,267.27975,71,70,40
267.27975,267.4091,74,70,40
267.4091,267.5384,71,70,40
267.5384,267.6677,74,70,40
267.6677,267.797,71,70,40
267.797,267.92633,74,70,40
267.92633,268.05563,71,70,40
268.05563,268.18494,74,70,40
268.18494,268.31424,69,70,40
268.31424,268.44357,74,70,40
268.44357,268.57288,69,70,40
268.57288,268.70218,74,70,40
268.70218,268.83148,69,70,40
268.83148,268.9608,74,70,40
268.9608,269.09012,69,70,40
269.09012,269.21942,74,70,40
269.21942,269.34872,66,70,40
269.34872,269.47803,69,70,40
269.47803,269.60736,66,70,40
269.60736,269.73666,69,70,40
269.73666,269.86597,66,70,40
269.86597,269.99527,69,70,40
269.99527,270.1246,66,70,40
270.1246,270.2539,69,70,40
270.2539,270.3832,64,70,40
270.3832,270.5125,69,70,40
270.5125,270.64185,64,70,40
270.64185,270.77115,69,70,40
270.77115,270.90045,62,70,40
270.90045,271.02975,69,70,40
271.02975,271.1591,62,70,40
271.1591,271.2884,69,70,40
271.2884,271.4177,61,70,40
271.4177,271.547,69,70,40
271.547,271.6763,61,71,40
271.6763,271.80563,69,72,40
271.80563,271.93494,61,73,40
271.93494,272.06424,69,74,40
272.06424,272.19354,61,75,40
272.19354,272.32288,69,76,40
272.32288,272.45218,61,77,40
272.45218,272.58148,69,78,40
272.58148,272.7108,62,79,40
272.7108,272.84012,69,80,40
272.84012,272.96942,64,81,40
272.96942,273.09872,69,82,40
273.09872,273.22803,66,83,40
273.22803,273.35736,69,84,40
273.35736,273.48666,67,85,40
273.48666,273.61597,69,86,40
273.61597,273.74527,57,87,40
273.74527,273.8746,69,88,40
273.8746,274.0039,57,89,40
274.0039,274.1332,69,90,40
274.1332,274.2625,57,91,40
274.2625,274.3918,69,92,40
274.3918,274.52115,57,93,40
274.52115,274.65045,69,94,40
274.65045,274.77975,57,95,40
274.77975,274.90906,69,96,40
274.90906,275.04797,57,97,40
275.04797,275.18686,67,98,40
275.18686,275.33685,57,98,40
275.33685,275.48685,67,99,40
275.48685,275.63684,67,114,40
275.63684,275.78683,69,109,40
275.78683,275.93686,73,96,40
275.93686,276.08685,76,91,40
276.08685,276.24988,79,86,40
276.24988,276.41293,76,81,40
276.41293,276.60043,73,76,40
276.60043,276.78793,67,71,40
276.78793,277.5223,66,70,40
278.13794,279.2375,69,50,40
279.24905,279.79303,71,50,40
279.8046,280.34857,71,50,40
280.36017,280.90414,69,50,40
280.9157,281.4597,65,50,40
281.47128,282.5708,64,50,40
282.58237,283.68192,61,50,40
283.69348,284.23746,68,50,40
284.24905,284.79303,70,50,40
284.8046,285.34857,71,50,40
285.36017,285.90414,73,50,40
285.9157,287.01526,74,50,40
287.02682,288.12637,66,50,40
288.13794,288.68192,71,50,40
288.69348,289.23746,68,50,40
289.24905,289.79303,69,50,40
289.8046,290.34857,65,50,40
290.36017,292.01526,66,50,40
292.02682,293.16864,65,50,40
293.18066,295.01926,68,50,40
295.03284,295.67142,66,50,40
296.285,297.38455,69,50,40
297.39612,297.9401,71,50,40
297.9517,298.49567,71,50,40
298.50723,299.0512,69,50,40
299.0628,299.60678,65,50,40
299.61835,300.7179,64,50,40
300.72946,301.829,61,50,40
301.84058,302.38455,68,50,40
302.39612,302.9401,70,50,40
302.9517,303.49567,71,50,40
303.50723,304.0512,73,50,40
304.0628,305.20462,74,50,40
305.21664,306.31616,66,50,40
306.32776,306.87173,71,50,40
306.8833,307.42728,68,50,40
307.43887,307.98285,69,50,40
307.99442,308.5384,65,50,40
308.54996,310.20508,66,50,40
310.21664,311.3371,65,50,40
311.34912,313.23987,68,50,40
313.25348,313.98785,66,50,40
314.60345,315.703,69,50,40
315.71457,316.25854,67,50,40
316.27014,316.81412,66,50,40
316.82568,317.36966,71,50,40
317.38126,317.92523,67,50,40
317.9368,319.03635,66,50,40
319.0479,321.25854,72,50,40
321.27014,321.81412,71,50,40
321.82568,322.36966,74,50,40
319.0479,323.48077,62,50,40
322.38126,323.48077,69,50,40
323.49234,325.14743,70,50,40
325.15903,325.703,71,63,40
325.71457,326.25854,68,67,40
326.27014,326.81412,65,72,40
326.82568,327.96875,66,76,40
327.98123,329.74615,67,50,40
329.75818,330.32306,57,50,40
329.75818,330.32306,67,50,40
330.33508,331.47693,67,50,40
330.33508,332.05383,57,50,40
331.48892,332.05383,66,50,40
332.6428,333.7423,69,50,40
333.75388,334.29788,67,50,40
334.30945,334.85342,66,50,40
334.865,335.409,71,50,40
335.42056,335.96454,67,50,40
335.9761,337.07565,66,50,40
337.08722,339.29788,72,50,40
339.30945,339.85342,71,50,40
339.865,340.409,74,50,40
337.08722,341.52008,62,50,40
340.42056,341.52008,69,50,40
341.53168,343.18677,70,50,40
343.19833,343.7423,71,63,40
343.75388,344.29788,68,67,40
344.30945,344.85342,65,72,40
344.865,346.02942,66,76,40
346.04193,347.78375,67,50,40
347.79578,348.38327,57,50,40
347.79578,348.38327,67,50,40
348.39578,349.78232,67,50,40
348.39578,350.66193,57,50,40
349.79794,350.66193,66,50,40
350.6803,351.2678,69,110,40
351.2803,352.0727,78,110,40
352.08386,352.2178,79,110,40
352.2178,352.3517,78,110,40
352.3517,352.54144,76,110,40
352.61957,352.7535,78,110,40
352.7535,352.88745,76,110,40
352.88745,353.07718,74,110,40
353.1553,353.2892,76,110,40
353.2892,353.42316,74,110,40
353.42316,353.61288,73,110,40
353.691,353.82495,74,110,40
353.82495,353.95886,73,110,40
353.95886,354.1486,71,110,40
354.2267,354.36066,73,110,40
354.36066,354.49457,71,110,40
354.49457,355.55484,69,110,40
355.566,356.35843,69,110,40
356.36957,356.5035,68,110,40
356.5035,356.63742,69,110,40
356.63742,356.82718,71,110,40
356.9053,357.0392,69,110,40
357.0392,357.17316,71,110,40
357.17316,357.36288,73,110,40
357.441,357.57492,71,110,40
357.57492,357.70886,73,110,40
357.70886,357.8986,74,110,40
357.9767,358.11066,73,110,40
358.11066,358.24457,74,110,40
358.24457,358.4343,76,110,40
358.51242,358.64636,74,110,40
358.64636,358.7803,76,110,40
358.7803,358.97003,78,110,40
359.04816,359.18207,69,110,40
359.18207,359.316,71,110,40
359.316,359.50574,73,110,40
359.58386,359.7178,74,110,40
359.7178,359.8517,76,110,40
359.8517,360.64413,78,110,40
360.6553,360.7892,79,110,40
360.7892,360.92316,78,110,40
360.92316,361.11288,76,110,40
361.191,361.32492,78,110,40
361.32492,361.45886,76,110,40
361.45886,361.6486,74,110,40
361.7267,361.86066,76,110,40
361.86066,361.99457,74,110,40
361.99457,362.1843,72,110,40
362.26242,362.39636,74,110,40
362.39636,362.5303,72,110,40
362.5303,362.72003,71,110,40
362.79816,362.93207,72,110,40
362.93207,363.066,71,110,40
363.066,364.662,69,110,40
364.67316,365.07492,68,110,40
365.07492,365.20886,66,110,40
365.20886,365.7334,68,110,40
365.74457,366.26913,71,110,40
366.28027,366.34726,70,110,40
366.34726,366.4142,71,110,40
366.4142,366.48117,73,110,40
366.48117,367.34055,71,110,40
367.3517,367.87628,69,110,40
367.88742,368.412,69,110,40
368.42316,369.21555,78,110,40
369.2267,369.36066,79,110,40
369.36066,369.49457,78,110,40
369.49457,369.6843,76,110,40
369.76242,369.89636,78,110,40
369.89636,370.03027,76,110,40
370.03027,370.22003,74,110,40
370.29816,370.43207,76,110,40
370.43207,370.566,74,110,40
370.566,370.75574,73,110,40
370.83386,370.96777,74,110,40
370.96777,371.1017,73,110,40
371.1017,371.29144,71,110,40
371.36957,371.5035,73,110,40
371.5035,371.63742,71,110,40
371.63742,372.6977,69,110,40
372.70886,373.50125,69,110,40
373.51242,373.64636,68,110,40
373.64636,373.78027,69,110,40
373.78027,373.97,71,110,40
374.04813,374.18207,69,110,40
374.18207,374.316,71,110,40
374.316,374.50574,73,110,40
374.58386,374.71777,71,110,40
374.71777,374.8517,73,110,40
374.8517,375.04144,74,110,40
375.11957,375.2535,73,110,40
375.2535,375.38742,74,110,40
375.38742,375.57715,76,110,40
375.65527,375.7892,74,110,40
375.7892,375.92313,76,110,40
375.92313,376.11288,78,110,40
376.191,376.32492,69,110,40
376.32492,376.45886,71,110,40
376.45886,376.6486,73,110,40
376.7267,376.86063,74,110,40
376.86063,376.99457,76,110,40
376.99457,377.787,78,110,40
377.79813,377.93207,79,110,40
377.93207,378.066,78,110,40
378.066,378.25574,76,110,40
378.33386,378.46777,78,110,40
378.46777,378.6017,76,110,40
378.6017,378.79144,74,110,40
378.86957,379.0035,76,110,40
379.0035,379.13742,74,110,40
379.13742,379.32715,72,110,40
379.40527,379.5392,74,110,40
379.5392,379.67313,72,110,40
379.67313,379.86285,71,110,40
379.94098,380.07492,72,110,40
380.07492,380.20886,71,110,40
380.20886,381.80484,69,110,40
381.81598,382.21777,68,110,40
382.21777,382.3517,66,110,40
382.3517,382.87625,68,110,40
382.88742,383.412,71,110,40
383.42313,383.4901,70,110,40
383.4901,383.55707,71,110,40
383.55707,383.62402,73,110,40
383.62402,384.4834,71,110,40
384.49457,385.0191,69,110,40
385.03027,385.55484,69,110,40
385.56598,386.3584,74,110,40
386.36957,386.50348,73,110,40
386.50348,386.63742,74,110,40
386.63742,386.82715,76,110,40
386.90527,387.0392,74,110,40
387.0392,387.17313,76,110,40
387.17313,387.36285,78,110,40
387.44098,387.57492,76,110,40
387.57492,387.70883,78,110,40
387.70883,387.8986,79,110,40
387.9767,388.11063,79,110,40
388.11063,388.24457,81,110,40
388.24457,388.4343,83,110,40
388.51242,388.64633,83,110,40
388.64633,388.78027,85,110,40
388.78027,389.30484,86,110,40
389.8517,390.6441,62,110,40
390.65527,390.7892,61,110,40
390.7892,390.92313,62,110,40
390.92313,391.11285,64,110,40
391.19098,391.32492,62,110,40
391.32492,391.45883,64,110,40
391.45883,391.6486,66,110,40
391.7267,391.86063,64,110,40
391.86063,391.99457,66,110,40
391.99457,392.1843,67,110,40
392.26242,392.39633,67,110,40
392.39633,392.53027,69,110,40
392.53027,392.72,71,110,40
392.79813,392.93207,71,110,40
392.93207,393.06598,73,110,40
393.06598,393.2557,74,110,40
393.33383,393.46777,69,110,40
393.46777,393.6017,71,110,40
393.6017,393.79144,73,110,40
393.86957,394.00348,74,110,40
394.00348,394.13742,76,110,40
394.13742,394.92984,78,110,40
394.94098,395.07492,79,110,40
395.07492,395.20883,78,110,40
395.20883,395.3986,76,110,40
395.47668,395.61063,78,110,40
395.61063,395.74457,76,110,40
395.74457,395.9343,74,110,40
396.01242,396.14633,76,110,40
396.14633,396.28027,74,110,40
396.28027,396.47,73,110,40
396.54813,396.68207,74,110,40
396.68207,396.81598,73,110,40
396.81598,397.0057,71,110,40
397.08383,397.21777,73,110,40
397.21777,397.35168,71,110,40
397.35168,398.41196,69,110,40
398.42313,399.21555,69,110,40
399.22668,399.36063,68,110,40
399.36063,399.49457,69,110,40
399.49457,399.6843,71,110,40
399.76242,399.89633,69,110,40
399.89633,400.03027,71,110,40
400.03027,400.22,73,110,40
400.29813,400.43207,71,110,40
400.43207,400.56598,73,110,40
400.56598,401.62625,76,110,40
401.63742,402.16196,74,110,40
402.17313,402.6977,69,110,40
402.70883,403.50125,74,110,40
403.51242,403.64633,73,110,40
403.64633,403.78027,74,110,40
403.78027,403.97,76,110,40
404.04813,404.18204,74,110,40
404.18204,404.31598,76,110,40
404.31598,404.5057,78,110,40
404.58383,404.71777,76,110,40
404.71777,404.85168,78,110,40
404.85168,405.0414,79,110,40
405.11954,405.25348,79,110,40
405.25348,405.38742,81,110,40
405.38742,405.57715,83,110,40
405.65527,405.78918,83,110,40
405.78918,405.92313,85,110,40
405.92313,406.44766,86,110,40
406.99454,407.78696,62,110,40
407.79813,407.93204,61,110,40
407.93204,408.06598,62,110,40
408.06598,408.2557,64,110,40
408.33383,408.46777,62,110,40
408.46777,408.60168,64,110,40
408.60168,408.7914,66,110,40
408.86954,409.00348,64,110,40
409.00348,409.13742,66,110,40
409.13742,409.32715,67,110,40
409.40527,409.53918,67,110,40
409.53918,409.67313,69,110,40
409.67313,409.86285,71,110,40
409.94098,410.07492,71,110,40
410.07492,410.20883,73,110,40
410.20883,410.39856,74,110,40
410.47668,410.61063,69,110,40
410.61063,410.74454,71,110,40
410.74454,410.9343,73,110,40
411.01242,411.14633,74,110,40
411.14633,411.28027,76,110,40
411.28027,412.07266,78,110,40
412.08383,412.21777,79,110,40
412.21777,412.35168,78,110,40
412.35168,412.5414,76,110,40
412.61954,412.75348,78,110,40
412.75348,412.8874,76,110,40
412.8874,413.07715,74,110,40
413.15527,413.28918,76,110,40
413.28918,413.42313,74,110,40
413.42313,413.61285,73,110,40
413.69098,413.8249,74,110,40
413.8249,413.95883,73,110,40
413.95883,414.14856,71,110,40
414.22668,414.36063,73,110,40
414.36063,414.49454,71,110,40
414.49454,415.5548,69,110,40
415.56598,416.3584,69,110,40
416.36954,416.50348,68,110,40
416.50348,416.6374,69,110,40
416.6374,416.83417,71,110,40
416.9152,417.05408,69,110,40
417.05408,417.19296,71,110,40
417.19296,417.39728,73,110,40
417.4814,417.63766,71,110,40
417.63766,417.7939,73,110,40
417.7939,418.3379,74,110,40
422.23837,423.3379,74,50,40
423.3495,423.89346,72,50,40
423.90503,424.449,70,50,40
424.46057,425.00458,69,50,40
425.01614,425.56012,67,50,40
425.5717,426.67123,65,50,40
426.6828,427.78235,74,50,40
427.7939,428.3379,72,50,40
428.3495,428.89346,70,50,40
428.90503,430.00458,69,50,40
430.01614,431.1157,68,61,40
431.12726,432.50458,67,70,40
432.51614,432.7129,69,70,40
432.7939,432.9907,71,70,40
433.0717,433.26846,72,70,40
433.3495,434.72678,65,70,40
434.73837,434.93512,67,74,40
435.01614,435.2129,69,75,40
435.2939,435.4907,70,76,40
435.5717,435.76846,62,77,40
435.8495,436.04623,74,78,40
436.12726,436.324,74,79,40
436.40503,436.60178,74,80,40
436.6828,436.88715,74,81,40
436.97128,437.2477,74,82,40
437.25974,437.54724,76,83,40
437.55972,437.84723,74,84,40
437.85974,438.14722,73,85,40
438.15973,438.44724,57,86,40
438.45972,438.74722,61,87,40
438.45972,438.74722,59,87,40
438.75974,439.04724,57,88,40
439.05972,439.35922,62,89,40
439.37222,439.67172,57,90,40
439.68472,440.00418,64,80,40
440.01807,440.37744,57,70,40
440.39307,440.68057,66,50,40
440.69305,440.95926,57,50,40
440.69305,440.95926,66,50,40
440.97086,441.23703,57,50,40
440.97086,441.23703,66,50,40
441.24863,441.51483,57,50,40
441.24863,441.51483,66,50,40
441.5264,441.7926,57,50,40
441.5264,441.7926,66,50,40
441.80417,442.07037,57,50,40
441.80417,442.07037,66,50,40
442.08194,442.34814,57,50,40
442.08194,442.34814,66,50,40
442.35974,442.62595,57,50,40
442.35974,442.62595,66,50,40
442.6375,442.90372,57,50,40
442.6375,442.90372,67,50,40
442.91528,443.1815,57,50,40
442.91528,443.1815,67,50,40
443.19305,443.45926,57,50,40
443.19305,443.45926,67,50,40
443.47086,443.73703,57,50,40
443.47086,443.73703,67,50,40
443.74863,444.01483,57,50,40
443.74863,444.01483,67,50,40
444.0264,444.2926,57,50,40
444.0264,444.2926,67,50,40
444.30417,444.57037,57,50,40
444.30417,444.57037,67,50,40
444.58194,444.84814,57,50,40
444.58194,444.84814,67,50,40
444.85974,445.12595,57,50,40
444.85974,445.12595,66,50,40
445.1375,445.40372,57,50,40
445.1375,445.40372,66,50,40
445.41528,445.6815,57,50,40
445.41528,445.6815,66,50,40
445.69305,445.95926,57,50,40
445.69305,445.95926,66,50,40
445.97083,446.23703,57,50,40
445.97083,446.23703,66,50,40
446.24863,446.51483,57,50,40
446.24863,446.51483,66,50,40
446.5264,446.7926,57,50,40
446.5264,446.7926,66,50,40
446.80417,447.07037,57,50,40
446.80417,447.07037,66,50,40
447.08194,447.34814,57,50,40
447.08194,447.34814,64,50,40
447.35974,447.62595,57,50,40
447.35974,447.62595,64,50,40
447.6375,447.90372,57,50,40
447.6375,447.90372,64,50,40
447.91528,448.1815,57,50,40
447.91528,448.1815,64,50,40
448.19305,448.4695,57,50,40
448.19305,448.4695,64,50,40
448.48154,448.75797,57,50,40
448.48154,448.75797,64,50,40
448.77,449.06946,57,50,40
448.77,449.06946,64,50,40
449.0825,449.40918,57,50,40
449.0825,449.40918,64,50,40
449.4234,449.7109,57,50,40
449.7234,449.9896,74,50,40
450.00116,450.26736,74,50,40
450.27896,450.54517,74,50,40
450.55673,450.82294,57,50,40
450.8345,451.1007,74,50,40
451.11227,451.37848,74,50,40
451.39008,451.65625,74,50,40
451.66785,451.93405,57,50,40
451.94562,452.21182,73,50,40
452.2234,452.4896,57,50,40
452.50116,452.76736,76,50,40
452.77896,453.04517,57,50,40
453.05673,453.32294,76,50,40
453.3345,453.6007,57,50,40
453.61227,453.87848,76,50,40
453.89008,454.15625,57,50,40
454.16785,454.43405,74,50,40
454.44562,454.71182,74,50,40
454.7234,454.9896,74,50,40
455.00116,455.26736,57,50,40
455.27896,455.54517,74,50,40
455.55673,455.82294,74,50,40
455.8345,456.1007,74,50,40
456.11227,456.37848,57,50,40
456.39005,456.65625,73,52,40
456.66785,456.93405,73,55,40
456.94562,457.21182,73,58,40
457.2234,457.4896,72,61,40
457.50116,457.76736,72,64,40
457.77896,458.04517,72,67,40
458.05673,458.32294,72,69,40
458.3345,458.53125,71,70,40
458.61227,458.80905,78,70,40
458.89005,459.08682,79,70,40
459.16785,459.3646,81,70,40
459.44562,460.82294,79,70,40
460.8345,461.03125,76,70,40
461.11227,461.30905,78,70,40
461.39005,461.58682,79,70,40
461.66785,462.76736,78,70,40
463.05673,463.25348,62,70,40
463.3345,463.53125,64,70,40
463.61227,463.80905,66,70,40
463.89005,464.08682,67,70,40
464.16785,464.3646,69,70,40
464.44562,465.27896,71,70,40
465.27896,465.4757,72,70,40
465.55673,465.75348,69,70,40
465.8345,466.03125,67,70,40
466.11227,466.30905,66,70,40
466.39005,466.58682,64,70,40
466.66785,467.4896,62,70,40
467.50116,467.69794,62,70,40
467.77896,467.9757,64,70,40
468.05673,468.25348,66,70,40
468.3345,468.53125,67,70,40
468.61227,468.80905,69,70,40
468.89005,469.08682,71,70,40
469.16785,469.3646,73,70,40
469.44562,469.9896,74,70,40
470.00116,470.54517,74,75,40
470.55673,471.93405,74,81,40
471.94562,472.14236,74,70,40
472.2234,472.42017,72,70,40
472.50116,472.69794,68,70,40
472.77896,474.15625,69,70,40
474.16785,474.3646,72,70,40
474.44562,474.64236,71,70,40
474.7234,474.92017,66,70,40
475.00116,476.1007,67,70,40
476.39005,476.58682,66,70,40
476.66785,476.8646,67,70,40
476.94562,477.14236,69,70,40
477.2234,478.6007,67,70,40
478.61227,478.80905,64,70,40
478.89005,479.08682,66,70,40
479.16785,479.3646,67,70,40
479.44562,480.93613,66,70,40
480.9486,481.1454,75,71,40
481.2264,481.42316,76,73,40
481.50418,481.70093,78,75,40
481.78195,483.15927,79,77,40
483.17084,483.3676,73,87,40
483.4486,483.6454,74,89,40
483.7264,483.92316,76,91,40
484.00418,485.3815,78,93,40
485.39307,485.5898,76,100,40
485.67084,485.8676,74,125,40
485.9486,486.1454,73,113,40
486.2264,486.42316,76,100,40
486.50418,486.70093,74,100,40
486.78195,486.97873,73,125,40
487.05972,487.2565,71,113,40
487.33752,487.53427,74,100,40
487.6153,487.81204,73,100,40
487.89307,488.09738,71,125,40
488.18152,488.38586,69,113,40
488.47,488.6825,73,100,40
488.77,488.98248,71,100,40
489.06998,489.30096,69,125,40
489.3961,489.6617,67,113,40
489.7711,491.00806,61,110,40
491.0211,492.31183,62,110,40
492.3254,493.7391,62,110,40
493.754,496.59625,61,110,40
502.72543,503.91293,69,50,40
503.9254,504.5129,68,50,40
504.52542,505.1129,67,50,40
505.12543,505.71292,66,50,40
505.72543,506.31293,62,50,40
506.3254,506.6129,62,50,40
506.62543,506.91293,64,50,40
506.9254,507.21292,66,50,40
507.22543,507.5129,67,50,40
507.52542,510.21292,69,50,40
510.22543,510.5129,71,52,40
510.52542,510.81293,73,55,40
510.8254,511.1129,74,58,40
511.12543,511.41293,76,60,40
511.4254,511.71292,78,63,40
511.72543,513.51294,79,66,40
513.52545,515.44116,64,82,40
515.4548,516.1224,64,79,40
516.1366,516.836,64,68,40
516.8509,517.6252,64,56,40
517.6425,518.4585,66,50,40
519.1009,519.2919,62,50,40
519.3092,520.2884,62,50,40
520.8092,521.2884,62,50,40
521.3092,525.2884,62,50,40
0.0,0.22545569,50,1,41
1.1344697,4.873307,57,70,41
4.8844676,5.1411643,55,70,41
5.1523247,5.409021,54,70,41
5.4201818,5.676878,55,70,41
5.688039,5.944735,52,70,41
5.955896,9.159019,57,70,41
9.170179,9.426876,59,70,41
9.438037,9.694733,61,70,41
9.7058935,10.230447,62,70,41
10.241608,13.176874,57,70,41
13.188035,13.444731,59,70,41
13.455892,13.712588,61,70,41
13.723749,13.980445,62,70,41
13.991606,16.659016,64,70,41
16.670176,17.194729,56,70,41
17.20589,17.730444,57,70,41
18.277317,22.016155,57,70,41
22.027315,22.284012,55,70,41
22.295174,22.551868,54,70,41
22.56303,22.819727,55,70,41
22.830887,23.087584,52,70,41
23.098743,26.301867,57,70,41
26.313028,26.569725,59,70,41
26.580885,26.837582,61,70,41
26.848742,27.373295,62,70,41
27.384457,30.319721,57,70,41
30.330883,30.58758,59,70,41
30.59874,30.855436,61,70,41
30.866596,31.123293,62,70,41
31.134455,33.842213,64,70,41
33.854233,34.466213,56,70,41
34.479233,35.146847,57,70,41
35.16105,35.725956,57,70,41
35.737972,36.262527,54,70,41
36.27369,36.79824,55,70,41
36.809402,37.066097,59,70,41
37.07726,37.333954,57,70,41
37.345116,37.60181,55,70,41
37.612972,37.86967,57,70,41
37.88083,38.405384,59,70,41
38.416542,38.941097,62,70,41
38.95226,39.47681,57,70,41
40.023685,41.619667,62,70,41
41.63083,42.16489,62,95,41
42.176464,42.720444,62,100,41
42.732018,43.31952,67,100,41
43.33202,43.970604,66,100,41
44.561115,45.621384,69,70,41
45.63254,46.157097,67,70,41
46.168255,46.69281,66,70,41
46.70397,47.228523,64,70,41
47.239685,47.764236,62,70,41
47.7754,48.299953,61,70,41
48.31111,48.835667,59,70,41
48.846825,49.37138,57,70,41
49.38254,49.907093,55,70,41
49.918255,50.442806,54,70,41
50.453968,50.98803,52,70,41
50.999603,52.199818,52,70,41
52.212837,52.88045,50,70,41
52.894657,53.45956,57,70,41
53.47158,53.99613,54,70,41
54.007294,54.531845,55,70,41
54.543007,54.7997,59,70,41
54.810863,55.067562,57,70,41
55.07872,55.33542,55,70,41
55.346577,55.603275,57,70,41
55.614437,56.13899,59,70,41
56.15015,56.6747,62,70,41
56.685863,57.210415,57,70,41
57.75729,59.35327,62,70,41
59.364433,59.898495,62,95,41
59.91007,60.47497,62,100,41
60.48699,61.09897,67,100,41
61.11199,61.779606,66,100,41
62.37073,63.431,69,70,41
63.44216,63.966713,67,70,41
63.977875,64.502426,66,70,41
64.51359,65.03814,64,70,41
65.0493,65.57385,62,70,41
65.585014,66.109566,61,70,41
66.12073,66.64529,59,70,41
66.65644,67.181,57,70,41
67.19216,67.71671,55,70,41
67.727875,68.252426,54,70,41
68.26359,68.807884,52,70,41
68.81991,70.11252,52,70,41
70.126724,70.8611,50,70,41
75.20364,75.59427,57,70,41
75.60543,75.728195,57,70,41
75.73936,76.26391,67,70,41
76.27507,76.409,69,70,41
76.409,76.54293,67,70,41
76.54293,76.67686,66,70,41
76.67686,76.81078,67,70,41
76.81078,77.00052,69,70,41
77.07864,77.26837,66,70,41
77.3465,77.53623,67,70,41
77.61436,77.804085,64,70,41
77.88221,78.071945,66,70,41
78.15007,78.339806,67,70,41
78.41793,78.60766,69,70,41
78.68578,78.87552,71,70,41
78.95364,79.14337,69,70,41
79.2215,79.41123,67,70,41
79.48936,79.679085,66,70,41
79.75721,79.946945,64,70,41
80.02507,80.2148,66,70,41
80.29292,80.48266,69,70,41
80.56078,80.75052,66,70,41
80.82864,81.01837,69,70,41
81.0965,81.28623,64,70,41
81.36436,81.554085,69,70,41
81.63221,81.821945,66,70,41
81.90007,82.0898,66,70,41
82.16792,82.35766,64,70,41
82.43578,82.62551,76,74,41
82.703636,82.89337,62,78,41
82.9715,83.16123,74,82,41
83.23936,83.429085,61,87,41
83.50721,83.696945,73,91,41
83.77507,83.9648,57,95,41
84.04292,84.23266,69,99,41
84.31078,84.50051,69,100,41
84.578636,84.76837,69,125,41
85.11435,85.37105,69,125,41
85.65007,85.90676,71,125,41
86.18578,86.442474,52,125,41
86.453636,86.64337,57,70,41
86.7215,86.911224,64,70,41
86.98935,87.179085,57,70,41
87.25721,87.44694,64,70,41
87.52506,88.04962,57,70,41
92.34649,92.737114,57,70,41
92.748276,92.87105,57,70,41
92.8822,93.40676,67,70,41
93.41792,93.55185,69,70,41
93.55185,93.685776,67,70,41
93.685776,93.8197,66,70,41
93.8197,93.953636,67,70,41
93.953636,94.143364,69,70,41
94.22149,94.411224,66,70,41
94.48935,94.67908,67,70,41
94.7572,94.94694,64,70,41
95.02506,95.21479,66,70,41
95.292915,95.48265,67,70,41
95.560776,95.75051,69,70,41
95.828636,96.018364,71,70,41
96.09649,96.286224,69,70,41
96.36435,96.55408,67,70,41
96.6322,96.82194,66,70,41
96.90006,97.08979,64,70,41
97.167915,97.35765,66,70,41
97.435776,97.6255,69,70,41
97.70363,97.893364,66,70,41
97.97149,98.161224,69,70,41
98.23934,98.42908,64,70,41
98.5072,98.69694,69,70,41
98.77506,98.96479,66,70,41
99.042915,99.23265,66,70,41
99.310776,99.5005,64,70,41
99.57863,99.768364,76,74,41
99.84649,100.03622,62,78,41
100.11434,100.30408,74,82,41
100.3822,100.57193,61,87,41
100.650055,100.83979,73,91,41
100.917915,101.10765,57,95,41
101.185776,101.3755,69,99,41
101.45363,101.643364,69,100,41
101.72149,101.91122,69,125,41
102.2572,102.51389,69,125,41
102.792915,103.049614,71,125,41
103.32863,103.59483,52,125,41
103.60641,103.81073,57,70,41
103.89487,104.0992,64,70,41
104.18333,104.404686,57,70,41
104.49583,104.717186,64,70,41
104.80833,105.475945,57,70,41
109.81707,110.207695,62,70,41
110.21886,110.34162,62,70,41
110.35278,111.145195,74,70,41
111.15636,111.245636,69,70,41
111.245636,111.33492,71,70,41
111.33492,111.42421,73,70,41
111.42421,111.613945,74,70,41
111.69207,111.8818,73,70,41
111.95992,112.14966,74,70,41
112.22778,112.41751,72,70,41
112.495636,112.68537,74,70,41
112.7635,112.953224,71,70,41
113.03135,113.221085,74,70,41
113.29921,113.488945,70,70,41
113.56707,113.7568,74,70,41
113.83492,114.02466,69,70,41
114.10278,114.29251,74,70,41
114.370636,114.56037,67,70,41
114.6385,114.828224,74,70,41
114.90635,115.096085,66,70,41
115.17421,115.36394,69,70,41
115.44206,115.6318,66,70,41
115.70992,115.89965,64,70,41
115.977776,116.16751,69,70,41
116.245636,116.43537,66,70,41
116.5135,116.703224,69,70,41
116.78135,116.971085,67,70,41
117.04921,117.23894,69,73,41
117.31706,117.5068,66,77,41
117.58492,117.77465,69,81,41
117.852776,118.04251,64,84,41
118.120636,118.31036,69,88,41
118.38849,118.578224,62,92,41
118.65635,118.846085,69,96,41
118.92421,119.11394,61,100,41
119.19206,119.3818,61,125,41
119.727776,119.984474,61,125,41
120.26349,120.52019,64,125,41
120.80913,121.08557,57,125,41
121.09759,121.37403,50,70,41
121.38605,121.66249,57,70,41
121.67451,121.97399,50,70,41
121.98701,122.31371,57,70,41
122.32792,123.062294,50,70,41
127.40484,127.79546,62,70,41
127.806625,127.9294,62,70,41
127.94055,128.73297,74,70,41
128.74413,128.8334,69,70,41
128.8334,128.9227,71,70,41
128.9227,129.01198,73,70,41
129.01198,129.20172,74,70,41
129.27985,129.46957,73,70,41
129.5477,129.73743,74,70,41
129.81555,130.00528,72,70,41
130.0834,130.27315,74,70,41
130.35127,130.541,71,70,41
130.61913,130.80885,74,70,41
130.88698,131.07672,70,70,41
131.15483,131.34457,74,70,41
131.4227,131.61243,69,70,41
131.69055,131.88028,74,70,41
131.9584,132.14815,67,70,41
132.22627,132.416,74,70,41
132.49413,132.68385,66,70,41
132.76198,132.9517,69,70,41
133.02983,133.21957,66,70,41
133.2977,133.48743,64,70,41
133.56555,133.75528,69,70,41
133.8334,134.02315,66,70,41
134.10127,134.291,69,70,41
134.36913,134.55885,67,70,41
134.63698,134.8267,69,73,41
134.90483,135.09457,66,77,41
135.1727,135.36243,69,81,41
135.44055,135.63028,64,84,41
135.7084,135.89813,69,88,41
135.97626,136.166,62,92,41
136.24413,136.43385,69,96,41
136.51198,136.7017,61,100,41
136.77983,136.96957,61,125,41
137.31555,137.57225,61,125,41
137.86119,138.12738,64,125,41
138.42743,138.71492,57,125,41
138.72742,139.01492,50,70,41
139.02742,139.31493,57,70,41
139.32742,139.63992,50,70,41
139.6535,140.01288,57,70,41
140.0285,140.89249,50,70,41
141.51086,141.76756,57,60,41
142.04657,142.30327,57,60,41
143.65372,143.91042,57,60,41
144.18944,144.44614,57,60,41
145.79657,146.05327,57,60,41
146.33229,146.58899,57,60,41
147.93944,148.19612,57,60,41
148.47514,148.73184,57,60,41
150.08229,150.33899,57,60,41
151.15372,151.41042,57,60,41
151.68942,151.94612,57,60,41
152.22514,152.48184,57,60,41
153.29657,153.55327,56,60,41
153.83229,154.08897,57,60,41
154.368,154.6247,59,60,41
155.43942,155.69612,59,60,41
157.04657,157.57112,56,60,41
157.58228,158.10684,57,60,41
158.65372,158.9104,57,60,41
159.18942,159.44612,57,60,41
160.79657,161.05327,57,60,41
161.33228,161.58897,57,60,41
162.93942,163.19612,57,60,41
163.47514,163.73183,57,60,41
165.08228,165.33897,57,60,41
165.618,165.8747,57,60,41
167.22513,167.48183,57,60,41
168.29657,168.55325,57,60,41
168.83228,169.08897,57,60,41
169.368,169.62468,57,60,41
170.43942,170.69612,56,60,41
170.97513,171.23183,57,60,41
171.51085,171.76755,59,60,41
172.58228,172.83897,59,60,41
174.26115,174.90036,56,60,41
174.91457,175.64894,57,60,41
176.28957,176.54625,62,60,41
176.82527,177.08197,62,60,41
178.43242,178.56635,55,60,41
178.611,178.74492,59,66,41
178.78957,178.9235,62,72,41
178.96812,179.10207,67,78,41
179.1467,179.28062,71,84,41
179.32527,179.4592,62,90,41
179.50385,179.63777,62,90,41
179.68242,179.81635,62,86,41
179.861,179.99492,62,82,41
180.03955,180.1735,62,78,41
180.21812,180.35205,62,74,41
180.3967,180.53062,62,70,41
180.57527,180.83197,62,60,41
181.111,181.36768,62,60,41
182.71812,183.51054,62,60,41
183.5217,183.7784,59,87,41
183.78955,184.3141,56,90,41
184.32527,184.58197,57,78,41
184.86098,185.11768,57,60,41
185.3967,185.6534,57,60,41
187.00385,187.26054,57,60,41
187.53955,187.79625,57,60,41
189.1467,189.4034,64,60,41
190.21812,190.47482,64,60,41
191.82527,192.34982,61,60,41
192.36098,192.88553,62,60,41
193.4324,193.6891,62,60,41
193.96812,194.22482,62,60,41
195.57527,195.7092,55,60,41
195.75383,195.88776,59,66,41
195.9324,196.06633,62,72,41
196.11098,196.2449,67,78,41
196.28955,196.42348,71,84,41
196.46812,196.60205,62,90,41
196.6467,196.78062,62,90,41
196.82526,196.9592,62,86,41
197.00383,197.13776,62,82,41
197.1824,197.31633,62,78,41
197.36098,197.4949,62,74,41
197.53955,197.67348,62,70,41
197.71812,197.97482,62,60,41
198.25383,198.51053,62,60,41
199.86098,200.65338,62,60,41
200.66455,200.92125,59,87,41
200.9324,201.45695,56,90,41
201.46812,201.72481,57,78,41
202.00383,202.26053,57,60,41
202.53955,202.79625,57,60,41
204.14668,204.40338,57,60,41
204.6824,204.9391,57,60,41
206.28955,206.54623,64,60,41
207.36098,207.62718,64,60,41
209.105,209.79045,61,60,41
209.80608,210.67004,62,60,41
210.68843,211.27592,57,70,41
211.28842,212.31213,66,70,41
212.3229,212.82938,64,70,41
212.84015,213.34662,62,70,41
213.35739,213.86386,61,70,41
219.56429,220.85739,50,70,41
220.85739,221.11601,52,70,41
221.11601,221.37463,54,70,41
221.37463,221.63326,55,70,41
221.63326,222.92635,57,70,41
222.92635,223.18497,59,81,41
223.18497,223.44359,61,83,41
223.44359,223.70221,62,86,41
223.70221,226.27765,64,88,41
226.28842,226.79488,57,70,41
227.3229,227.82936,57,70,41
227.84013,228.86385,66,70,41
228.87462,229.38109,64,70,41
229.39186,229.89833,62,70,41
229.9091,230.41557,61,70,41
236.116,237.4091,50,70,41
237.4091,237.66772,52,70,41
237.66772,237.92635,54,70,41
237.92635,238.18497,55,70,41
238.18497,239.47806,57,70,41
239.47806,239.73668,59,81,41
239.73668,239.9953,61,83,41
239.9953,240.25392,62,86,41
240.25392,242.82936,64,88,41
242.84013,243.34659,57,70,41
243.87462,244.38107,57,70,41
244.39185,245.67418,62,70,41
245.68495,245.94357,57,70,41
245.94357,246.2022,62,70,41
246.2022,246.46082,60,70,41
246.46082,246.70866,59,70,41
246.97806,247.2259,55,70,41
247.4953,247.74315,62,70,41
254.73668,256.0298,57,70,41
256.0298,256.2884,59,79,41
256.2884,256.54703,61,81,41
256.54703,256.80563,62,83,41
256.80563,257.06427,64,85,41
257.06427,257.32288,66,87,41
257.32288,258.3466,67,89,41
258.35736,259.89832,57,111,41
259.9091,260.41556,50,70,41
260.94357,262.2259,62,70,41
262.23666,262.4953,57,70,41
262.4953,262.7539,62,70,41
262.7539,263.01254,60,70,41
263.01254,263.26038,59,70,41
263.52975,263.77762,55,70,41
264.047,264.29486,62,70,41
271.2884,272.58148,57,70,41
272.58148,272.84012,59,79,41
272.84012,273.09872,61,81,41
273.09872,273.35736,62,83,41
273.35736,273.61597,64,85,41
273.61597,273.8746,66,87,41
273.8746,274.8983,67,89,41
274.90906,276.7723,57,111,41
276.78793,277.5223,50,70,41
278.13794,279.2375,62,50,41
279.24905,279.79303,67,50,41
279.8046,280.34857,65,50,41
280.36017,280.90414,64,50,41
280.9157,281.4597,62,50,41
281.47128,283.12637,61,50,41
283.13794,283.68192,66,50,41
283.69348,284.23746,65,50,41
284.24905,284.79303,64,50,41
284.8046,285.34857,62,50,41
285.36017,285.90414,61,50,41
285.9157,287.01526,59,50,41
287.02682,288.68192,62,50,41
288.69348,289.23746,59,50,41
289.24905,289.79303,57,50,41
289.8046,290.34857,56,50,41
290.36017,291.4597,54,50,41
291.47128,292.01526,49,50,41
292.02682,293.16864,61,50,41
293.18066,295.67142,61,50,41
296.285,297.38455,62,50,41
297.39612,297.9401,67,50,41
297.9517,298.49567,65,50,41
298.50723,299.0512,64,50,41
299.0628,299.60678,62,50,41
299.61835,301.27344,61,50,41
301.285,301.829,66,50,41
301.84058,302.38455,65,50,41
302.39612,302.9401,64,50,41
302.9517,303.49567,62,50,41
303.50723,304.0512,61,50,41
304.0628,305.20462,59,50,41
305.21664,306.87173,62,50,41
306.8833,307.42728,59,50,41
307.43887,307.98285,57,50,41
307.99442,308.5384,56,50,41
308.54996,309.6495,54,50,41
309.66107,310.20508,49,50,41
310.21664,311.3371,61,50,41
311.34912,313.98785,61,50,41
314.60345,316.81412,60,50,41
316.82568,317.36966,59,50,41
317.38126,317.92523,62,50,41
314.60345,319.03635,50,50,41
317.9368,319.03635,57,50,41
319.0479,320.14743,54,50,41
320.15903,320.703,52,50,41
320.71457,321.25854,50,50,41
321.27014,321.81412,55,50,41
321.82568,322.36966,59,50,41
322.38126,323.48077,62,50,41
323.49234,325.14743,61,50,41
325.15903,326.25854,59,63,41
326.27014,326.81412,61,72,41
326.82568,327.36966,62,76,41
327.38123,328.56873,63,80,41
328.58124,329.74615,64,50,41
329.75818,330.32306,64,50,41
330.33508,331.47693,64,50,41
331.48892,332.05383,62,50,41
332.6428,334.85342,60,50,41
334.865,335.409,59,50,41
335.42056,335.96454,62,50,41
332.6428,337.07565,50,50,41
335.9761,337.07565,57,50,41
337.08722,338.18677,54,50,41
338.19833,338.7423,52,50,41
338.75388,339.29788,50,50,41
339.30945,339.85342,55,50,41
339.865,340.409,59,50,41
340.42056,341.52008,62,50,41
341.53168,343.18677,61,50,41
343.19833,344.29788,59,63,41
344.30945,344.85342,61,72,41
344.865,345.4299,62,76,41
345.44193,346.62943,63,80,41
346.64194,347.78375,64,50,41
347.79578,348.38327,64,50,41
348.39578,349.78232,64,50,41
349.79794,350.66193,62,50,41
350.6803,351.2678,57,110,41
351.2803,352.0727,66,110,41
352.08386,352.2178,67,110,41
352.2178,352.3517,66,110,41
352.3517,352.54144,64,110,41
352.61957,352.7535,66,110,41
352.7535,352.88745,64,110,41
352.88745,353.07718,62,110,41
353.1553,353.2892,64,110,41
353.2892,353.42316,62,110,41
353.42316,353.61288,61,110,41
353.691,353.82495,62,110,41
353.82495,353.95886,61,110,41
353.95886,354.1486,59,110,41
354.2267,354.36066,61,110,41
354.36066,354.49457,59,110,41
354.49457,355.55484,57,110,41
355.566,356.35843,57,110,41
356.36957,356.5035,56,110,41
356.5035,356.63742,57,110,41
356.63742,356.82718,59,110,41
356.9053,357.0392,57,110,41
357.0392,357.17316,59,110,41
357.17316,357.36288,61,110,41
357.441,357.57492,59,110,41
357.57492,357.70886,61,110,41
357.70886,357.8986,62,110,41
357.9767,358.11066,61,110,41
358.11066,358.24457,62,110,41
358.24457,358.4343,64,110,41
358.51242,358.64636,62,110,41
358.64636,358.7803,64,110,41
358.7803,358.97003,66,110,41
359.04816,359.18207,57,110,41
359.18207,359.316,59,110,41
359.316,359.50574,61,110,41
359.58386,359.7178,62,110,41
359.7178,359.8517,64,110,41
359.8517,360.64413,66,110,41
360.6553,360.7892,67,110,41
360.7892,360.92316,66,110,41
360.92316,361.11288,64,110,41
361.191,361.32492,66,110,41
361.32492,361.45886,64,110,41
361.45886,361.6486,62,110,41
361.7267,361.86066,64,110,41
361.86066,361.99457,62,110,41
361.99457,362.1843,60,110,41
362.26242,362.39636,62,110,41
362.39636,362.5303,60,110,41
362.5303,362.72003,59,110,41
362.79816,362.93207,60,110,41
362.93207,363.066,59,110,41
363.066,364.662,57,110,41
364.67316,365.07492,56,110,41
365.07492,365.20886,54,110,41
365.20886,365.7334,56,110,41
365.74457,366.26913,59,110,41
366.28027,366.34726,58,110,41
366.34726,366.4142,59,110,41
366.4142,366.48117,61,110,41
366.48117,367.34055,59,110,41
367.3517,367.87628,57,110,41
367.88742,368.412,57,110,41
368.42316,369.21555,66,110,41
369.2267,369.36066,67,110,41
369.36066,369.49457,66,110,41
369.49457,369.6843,64,110,41
369.76242,369.89636,66,110,41
369.89636,370.03027,64,110,41
370.03027,370.22003,62,110,41
370.29816,370.43207,64,110,41
370.43207,370.566,62,110,41
370.566,370.75574,61,110,41
370.83386,370.96777,62,110,41
370.96777,371.1017,61,110,41
371.1017,371.29144,59,110,41
371.36957,371.5035,61,110,41
371.5035,371.63742,59,110,41
371.63742,372.6977,57,110,41
372.70886,373.50125,57,110,41
373.51242,373.64636,56,110,41
373.64636,373.78027,57,110,41
373.78027,373.97,59,110,41
374.04813,374.18207,57,110,41
374.18207,374.316,59,110,41
374.316,374.50574,61,110,41
374.58386,374.71777,59,110,41
374.71777,374.8517,61,110,41
374.8517,375.04144,62,110,41
375.11957,375.2535,61,110,41
375.2535,375.38742,62,110,41
375.38742,375.57715,64,110,41
375.65527,375.7892,62,110,41
375.7892,375.92313,64,110,41
375.92313,376.11288,66,110,41
376.191,376.32492,57,110,41
376.32492,376.45886,59,110,41
376.45886,376.6486,61,110,41
376.7267,376.86063,62,110,41
376.86063,376.99457,64,110,41
376.99457,377.787,66,110,41
377.79813,377.93207,67,110,41
377.93207,378.066,66,110,41
378.066,378.25574,64,110,41
378.33386,378.46777,66,110,41
378.46777,378.6017,64,110,41
378.6017,378.79144,62,110,41
378.86957,379.0035,64,110,41
379.0035,379.13742,62,110,41
379.13742,379.32715,60,110,41
379.40527,379.5392,62,110,41
379.5392,379.67313,60,110,41
379.67313,379.86285,59,110,41
379.94098,380.07492,60,110,41
380.07492,380.20886,59,110,41
380.20886,381.80484,57,110,41
381.81598,382.21777,56,110,41
382.21777,382.3517,54,110,41
382.3517,382.87625,56,110,41
382.88742,383.412,59,110,41
383.42313,383.4901,58,110,41
383.4901,383.55707,59,110,41
383.55707,383.62402,61,110,41
383.62402,384.4834,59,110,41
384.49457,385.0191,57,110,41
385.03027,385.55484,57,110,41
385.56598,386.3584,62,110,41
386.36957,386.50348,61,110,41
386.50348,386.63742,62,110,41
386.63742,386.82715,64,110,41
386.90527,387.0392,62,110,41
387.0392,387.17313,64,110,41
387.17313,387.36285,66,110,41
387.44098,387.57492,64,110,41
387.57492,387.70883,66,110,41
387.70883,387.8986,67,110,41
387.9767,388.11063,67,110,41
388.11063,388.24457,69,110,41
388.24457,388.4343,71,110,41
388.51242,388.64633,71,110,41
388.64633,388.78027,73,110,41
388.78027,389.30484,74,110,41
389.8517,389.91867,50,110,41
389.91867,389.98563,52,110,41
389.98563,390.05258,50,110,41
390.05258,390.11957,52,110,41
390.11957,390.18652,50,110,41
390.18652,390.25348,52,110,41
390.25348,390.32047,50,110,41
390.32047,390.38742,52,110,41
390.38742,390.45438,50,110,41
390.45438,390.52133,52,110,41
390.52133,390.58832,50,110,41
390.58832,390.65527,52,110,41
390.65527,390.72223,50,110,41
390.72223,390.7892,52,110,41
390.7892,390.85617,50,110,41
390.85617,390.92313,52,110,41
390.92313,390.99008,50,110,41
390.99008,391.05707,52,110,41
391.05707,391.12402,50,110,41
391.12402,391.19098,52,110,41
391.19098,391.25797,50,110,41
391.25797,391.32492,52,110,41
391.32492,391.39188,50,110,41
391.39188,391.45883,52,110,41
391.45883,391.52582,50,110,41
391.52582,391.59277,52,110,41
391.59277,391.65973,50,110,41
391.65973,391.7267,52,110,41
391.7267,391.79367,50,110,41
391.79367,391.86063,52,110,41
391.86063,391.92758,50,110,41
391.92758,391.99457,52,110,41
391.99457,392.06152,50,110,41
392.06152,392.12848,52,110,41
392.12848,392.19547,50,110,41
392.19547,392.26242,52,110,41
392.26242,392.32938,50,110,41
392.32938,392.39633,52,110,41
392.39633,392.46332,50,110,41
392.46332,392.53027,52,110,41
392.53027,392.59723,50,110,41
392.59723,392.6642,52,110,41
392.6642,392.73117,50,110,41
392.73117,392.79813,52,110,41
392.79813,392.86508,50,110,41
392.86508,392.93207,52,110,41
392.93207,392.99902,50,110,41
392.99902,393.06598,52,110,41
393.06598,393.3227,50,110,41
393.33383,393.46777,57,110,41
393.46777,393.6017,59,110,41
393.6017,393.79144,61,110,41
393.86957,394.00348,62,110,41
394.00348,394.13742,64,110,41
394.13742,394.92984,66,110,41
394.94098,395.07492,67,110,41
395.07492,395.20883,66,110,41
395.20883,395.3986,64,110,41
395.47668,395.61063,66,110,41
395.61063,395.74457,64,110,41
395.74457,395.9343,62,110,41
396.01242,396.14633,64,110,41
396.14633,396.28027,62,110,41
396.28027,396.47,61,110,41
396.54813,396.68207,62,110,41
396.68207,396.81598,61,110,41
396.81598,397.0057,59,110,41
397.08383,397.21777,61,110,41
397.21777,397.35168,59,110,41
397.35168,398.41196,57,110,41
398.42313,399.21555,57,110,41
399.22668,399.36063,56,110,41
399.36063,399.49457,57,110,41
399.49457,399.6843,59,110,41
399.76242,399.89633,57,110,41
399.89633,400.03027,59,110,41
400.03027,400.22,61,110,41
400.29813,400.43207,59,110,41
400.43207,400.56598,61,110,41
400.56598,400.69992,67,110,41
400.69992,400.83383,66,110,41
400.83383,400.96777,64,110,41
400.96777,401.10168,62,110,41
401.10168,401.23563,61,110,41
401.23563,401.36957,59,110,41
401.36957,401.50348,61,110,41
401.50348,401.63742,57,110,41
401.63742,402.16196,62,110,41
402.17313,402.6977,57,110,41
402.70883,403.50125,62,110,41
403.51242,403.64633,61,110,41
403.64633,403.78027,62,110,41
403.78027,403.97,64,110,41
404.04813,404.18204,62,110,41
404.18204,404.31598,64,110,41
404.31598,404.5057,66,110,41
404.58383,404.71777,64,110,41
404.71777,404.85168,66,110,41
404.85168,405.0414,67,110,41
405.11954,405.25348,67,110,41
405.25348,405.38742,69,110,41
405.38742,405.57715,71,110,41
405.65527,405.78918,71,110,41
405.78918,405.92313,73,110,41
405.92313,406.44766,74,110,41
406.99454,407.06152,50,110,41
407.06152,407.12848,52,110,41
407.12848,407.19543,50,110,41
407.19543,407.26242,52,110,41
407.26242,407.32938,50,110,41
407.32938,407.39633,52,110,41
407.39633,407.4633,50,110,41
407.4633,407.53027,52,110,41
407.53027,407.59723,50,110,41
407.59723,407.66418,52,110,41
407.66418,407.73117,50,110,41
407.73117,407.79813,52,110,41
407.79813,407.86508,50,110,41
407.86508,407.93204,52,110,41
407.93204,407.99902,50,110,41
407.99902,408.06598,52,110,41
408.06598,408.13293,50,110,41
408.13293,408.19992,52,110,41
408.19992,408.26688,50,110,41
408.26688,408.33383,52,110,41
408.33383,408.4008,50,110,41
408.4008,408.46777,52,110,41
408.46777,408.53473,50,110,41
408.53473,408.60168,52,110,41
408.60168,408.66867,50,110,41
408.66867,408.73563,52,110,41
408.73563,408.80258,50,110,41
408.80258,408.86954,52,110,41
408.86954,408.93652,50,110,41
408.93652,409.00348,52,110,41
409.00348,409.07043,50,110,41
409.07043,409.13742,52,110,41
409.13742,409.20438,50,110,41
409.20438,409.27133,52,110,41
409.27133,409.3383,50,110,41
409.3383,409.40527,52,110,41
409.40527,409.47223,50,110,41
409.47223,409.53918,52,110,41
409.53918,409.60617,50,110,41
409.60617,409.67313,52,110,41
409.67313,409.74008,50,110,41
409.74008,409.80704,52,110,41
409.80704,409.87402,50,110,41
409.87402,409.94098,52,110,41
409.94098,410.00793,50,110,41
410.00793,410.07492,52,110,41
410.07492,410.14188,50,110,41
410.14188,410.20883,52,110,41
410.20883,410.46555,50,110,41
410.47668,410.61063,57,110,41
410.61063,410.74454,59,110,41
410.74454,410.9343,61,110,41
411.01242,411.14633,62,110,41
411.14633,411.28027,64,110,41
411.28027,412.07266,66,110,41
412.08383,412.21777,67,110,41
412.21777,412.35168,66,110,41
412.35168,412.5414,64,110,41
412.61954,412.75348,66,110,41
412.75348,412.8874,64,110,41
412.8874,413.07715,62,110,41
413.15527,413.28918,64,110,41
413.28918,413.42313,62,110,41
413.42313,413.61285,61,110,41
413.69098,413.8249,62,110,41
413.8249,413.95883,61,110,41
413.95883,414.14856,59,110,41
414.22668,414.36063,61,110,41
414.36063,414.49454,59,110,41
414.49454,415.5548,57,110,41
415.56598,416.3584,57,110,41
416.36954,416.50348,56,110,41
416.50348,416.6374,57,110,41
416.6374,416.83417,59,110,41
416.9152,417.05408,57,110,41
417.05408,417.19296,59,110,41
417.19296,417.39728,61,110,41
417.4814,417.63766,59,110,41
417.63766,417.7939,61,110,41
417.7939,418.3379,62,110,41
422.51614,422.7129,53,50,41
422.7939,422.9907,55,50,41
423.0717,423.26846,57,50,41
423.3495,423.54623,58,50,41
423.62726,423.824,60,50,41
423.90503,424.17123,62,50,41
424.73837,424.93512,63,50,41
425.01614,425.2129,60,50,41
425.2939,425.4907,58,50,41
425.5717,425.76846,57,50,41
425.8495,426.04623,55,50,41
426.12726,426.39346,53,50,41
426.96057,427.15735,53,50,41
427.23837,427.43512,55,50,41
427.51614,427.7129,57,50,41
427.7939,427.9907,58,50,41
428.0717,428.26846,60,50,41
428.3495,428.54623,62,50,41
428.62726,428.824,64,50,41
428.90503,429.449,65,50,41
429.46057,430.00458,65,55,41
430.01614,431.39346,65,61,41
431.40503,431.60178,65,70,41
431.6828,431.87958,63,70,41
431.96057,432.15735,59,70,41
432.23837,433.6157,60,70,41
433.62726,433.824,63,70,41
433.90503,434.10178,62,71,41
434.1828,434.37958,57,72,41
434.46057,436.1157,58,73,41
436.12726,436.67123,50,79,41
436.6828,437.2477,62,81,41
437.25974,437.84723,62,83,41
437.85974,438.44724,64,85,41
438.75974,439.04724,57,88,41
439.05972,439.35922,59,89,41
439.37222,439.67172,57,90,41
439.68472,440.00418,61,80,41
440.01807,440.37744,57,70,41
440.39307,440.68057,62,50,41
440.69305,440.95926,62,50,41
440.97086,441.23703,62,50,41
441.24863,441.51483,62,50,41
441.5264,441.7926,62,50,41
441.80417,442.07037,62,50,41
442.08194,442.34814,62,50,41
442.35974,442.62595,62,50,41
442.6375,442.90372,64,50,41
442.91528,443.1815,64,50,41
443.19305,443.45926,64,50,41
443.47086,443.73703,64,50,41
443.74863,444.01483,64,50,41
444.0264,444.2926,64,50,41
444.30417,444.57037,64,50,41
444.58194,444.84814,64,50,41
444.85974,445.12595,62,50,41
445.1375,445.40372,62,50,41
445.41528,445.6815,62,50,41
445.69305,445.95926,62,50,41
445.97083,446.23703,62,50,41
446.24863,446.51483,62,50,41
446.5264,446.7926,62,50,41
446.80417,447.07037,62,50,41
447.08194,447.34814,61,50,41
447.35974,447.62595,61,50,41
447.6375,447.90372,61,50,41
447.91528,448.1815,61,50,41
448.19305,448.4695,61,50,41
448.48154,448.75797,61,50,41
448.77,449.06946,61,50,41
449.0825,449.40918,61,50,41
449.4234,449.7109,57,50,41
449.7234,449.9896,66,50,41
450.00116,450.26736,66,50,41
450.27896,450.54517,66,50,41
450.55673,450.82294,57,50,41
450.8345,451.1007,66,50,41
451.11227,451.37848,66,50,41
451.39008,451.65625,66,50,41
451.66785,451.93405,57,50,41
451.94562,452.21182,64,50,41
452.2234,452.4896,57,50,41
452.50116,452.76736,67,50,41
452.77896,453.04517,57,50,41
453.05673,453.32294,67,50,41
453.3345,453.6007,57,50,41
453.61227,453.87848,67,50,41
453.89008,454.15625,57,50,41
454.16785,454.43405,66,50,41
454.44562,454.71182,66,50,41
454.7234,454.9896,66,50,41
455.00116,455.26736,57,50,41
455.27896,455.54517,66,50,41
455.55673,455.82294,66,50,41
455.8345,456.1007,66,50,41
456.11227,456.37848,57,50,41
456.39005,456.65625,64,52,41
456.66785,456.93405,64,55,41
456.94562,457.21182,64,58,41
457.2234,457.4896,64,61,41
457.50116,457.76736,64,64,41
457.77896,458.04517,64,67,41
458.05673,458.32294,64,69,41
458.3345,458.53125,63,70,41
458.61227,458.80905,63,70,41
458.89005,459.08682,64,70,41
459.16785,459.3646,66,70,41
459.44562,460.82294,64,70,41
460.8345,461.03125,61,70,41
461.11227,461.30905,62,70,41
461.39005,461.58682,64,70,41
461.66785,462.76736,62,70,41
462.77896,463.87848,59,70,41
463.89005,464.43405,57,70,41
464.44562,464.9896,55,70,41
465.00116,465.54517,54,70,41
465.55673,466.1007,52,70,41
466.11227,467.21182,50,70,41
467.2234,468.32294,59,70,41
468.3345,468.87848,57,70,41
468.89005,469.43405,55,70,41
469.44562,469.9896,54,70,41
470.00116,470.54517,52,75,41
470.55673,471.65625,50,81,41
471.66785,473.04517,52,70,41
473.05673,473.25348,54,70,41
473.3345,473.53125,56,70,41
473.61227,473.80905,57,70,41
473.89005,475.26736,50,70,41
475.27896,475.4757,52,70,41
475.55673,475.75348,54,70,41
475.8345,476.03125,55,70,41
476.39005,476.58682,63,70,41
476.66785,476.8646,64,70,41
476.94562,477.14236,66,70,41
477.2234,478.6007,64,70,41
478.61227,478.80905,61,70,41
478.89005,479.08682,62,70,41
479.16785,479.3646,64,70,41
479.44562,480.63504,62,70,41
480.64862,480.93613,63,70,41
480.9486,481.1454,69,71,41
481.2264,481.42316,67,73,41
481.50418,481.70093,63,75,41
481.78195,483.15927,64,77,41
483.17084,483.3676,67,87,41
483.4486,483.6454,66,89,41
483.7264,483.92316,61,91,41
484.00418,485.3815,62,93,41
485.39307,485.5898,61,100,41
485.67084,485.8676,59,125,41
485.9486,486.1454,57,113,41
486.2264,486.42316,61,100,41
486.50418,486.70093,59,100,41
486.78195,486.97873,57,125,41
487.05972,487.2565,55,113,41
487.33752,487.53427,59,100,41
487.6153,487.81204,57,100,41
487.89307,488.09738,55,125,41
488.18152,488.38586,54,113,41
488.47,488.6825,57,100,41
488.77,488.98248,55,100,41
489.06998,489.30096,54,125,41
489.3961,489.6617,52,113,41
489.7711,491.00806,52,110,41
491.0211,492.31183,50,110,41
492.3254,493.7391,59,110,41
493.754,496.59625,55,110,41
507.52542,508.71292,69,50,41
508.72543,509.31293,67,50,41
509.3254,509.91293,66,50,41
509.9254,510.5129,64,50,41
510.52542,511.1129,62,55,41
511.12543,513.51294,61,60,41
513.52545,515.44116,52,82,41
515.4548,516.1224,55,79,41
516.1366,516.836,55,68,41
516.8509,517.6252,55,56,41
517.6425,518.4585,54,50,41
519.1009,519.2919,54,50,41
519.3092,520.2884,54,50,41
520.8092,521.2884,57,50,41
521.3092,525.2884,57,50,41
0.0,0.22545569,50,1,42
1.1344697,3.266165,50,70,42
3.2773259,5.409021,45,70,42
5.4201818,7.551877,45,70,42
7.563038,9.694733,50,70,42
9.7058935,11.837589,50,70,42
11.84875,13.980445,45,70,42
13.991606,15.051873,40,70,42
15.063034,16.1233,52,70,42
16.134462,17.730444,45,70,42
18.277317,20.409014,50,70,42
20.420174,22.551868,45,70,42
22.56303,24.694725,45,70,42
24.705885,26.837582,50,70,42
26.848742,28.980436,50,70,42
28.991598,31.123293,45,70,42
31.134455,32.19472,40,70,42
32.205883,33.266148,52,70,42
33.27731,35.146847,45,70,42
35.16105,35.725956,54,70,42
35.737972,36.262527,50,70,42
36.27369,36.79824,52,70,42
36.809402,37.066097,55,70,42
37.07726,37.333954,54,70,42
37.345116,37.60181,52,70,42
37.612972,37.86967,54,70,42
37.88083,38.405384,55,70,42
38.416542,38.941097,59,70,42
38.95226,39.208954,54,70,42
39.220116,39.47681,50,70,42
39.487972,39.744667,54,70,42
39.75583,40.012524,57,70,42
40.023685,41.619667,62,70,42
41.63083,42.16489,61,95,42
42.176464,42.720444,59,100,42
42.732018,43.31952,55,100,42
43.33202,43.970604,62,100,42
44.561115,46.69281,50,70,42
46.70397,48.835667,57,70,42
48.846825,50.442806,45,70,42
50.453968,50.98803,45,70,42
50.999603,51.575584,50,70,42
51.587837,52.199818,45,70,42
52.212837,52.88045,38,70,42
52.894657,53.45956,54,70,42
53.47158,53.99613,50,70,42
54.007294,54.531845,52,70,42
54.543007,54.7997,55,70,42
54.810863,55.067562,54,70,42
55.07872,55.33542,52,70,42
55.346577,55.603275,54,70,42
55.614437,56.13899,55,70,42
56.15015,56.6747,59,70,42
56.685863,56.94256,54,70,42
56.95372,57.210415,50,70,42
57.221577,57.478275,54,70,42
57.489433,57.74613,57,70,42
57.75729,59.35327,62,70,42
59.364433,59.898495,61,95,42
59.91007,60.47497,59,100,42
60.48699,61.09897,55,100,42
61.11199,61.779606,62,100,42
62.37073,64.502426,50,70,42
64.51359,66.64529,57,70,42
66.65644,68.252426,45,70,42
68.26359,68.807884,45,70,42
68.81991,69.431885,50,70,42
69.44491,70.11252,45,70,42
70.126724,70.8611,38,70,42
70.876724,71.29739,45,70,42
71.30942,71.44163,45,70,42
71.45364,71.978195,54,70,42
71.98936,72.12329,55,70,42
72.12329,72.25722,54,70,42
72.25722,72.39114,52,70,42
72.39114,72.52507,54,70,42
72.52507,72.714806,55,70,42
72.79293,72.982666,52,70,42
73.06079,73.25052,54,70,42
73.32864,73.51838,50,70,42
73.596504,73.78623,49,70,42
73.86436,74.05409,50,70,42
74.13222,74.321945,52,70,42
74.40007,74.589806,54,70,42
74.66793,74.85766,52,70,42
74.93578,75.12552,50,70,42
75.20364,75.39338,49,70,42
75.471504,75.66123,47,70,42
75.73936,75.92909,45,70,42
76.00722,76.196945,57,70,42
76.27507,76.464806,47,70,42
76.54293,76.73266,57,70,42
76.81078,77.00052,49,70,42
77.07864,77.26837,57,70,42
77.3465,77.53623,45,70,42
77.61436,77.804085,57,70,42
77.88221,78.071945,50,70,42
78.15007,78.339806,57,70,42
78.41793,78.60766,52,70,42
78.68578,78.87552,57,70,42
78.95364,79.14337,54,70,42
79.2215,79.41123,57,70,42
79.48936,79.679085,57,70,42
79.48936,79.679085,49,70,42
79.75721,79.946945,57,70,42
80.02507,80.2148,50,70,42
80.29292,80.48266,57,70,42
80.56078,80.75052,62,70,42
80.82864,81.01837,57,70,42
81.0965,81.28623,61,70,42
81.36436,81.554085,57,70,42
81.63221,81.821945,62,70,42
81.90007,82.0898,50,70,42
82.16792,82.35766,61,70,42
82.43578,82.62551,49,74,42
82.703636,82.89337,59,78,42
82.9715,83.16123,47,82,42
83.23936,83.429085,57,87,42
83.50721,83.696945,45,91,42
83.77507,83.9648,55,95,42
84.04292,84.23266,43,99,42
84.31078,84.50051,40,100,42
84.578636,84.76837,40,125,42
84.8465,85.036224,45,100,42
85.11435,85.304085,49,125,42
85.38221,85.571945,52,100,42
85.65007,85.8398,56,125,42
85.91792,86.10766,59,100,42
86.18578,86.37551,62,125,42
86.453636,87.51391,62,70,42
87.52506,88.04962,61,70,42
88.060776,88.4514,45,70,42
88.46256,88.585335,45,70,42
88.5965,89.12105,54,70,42
89.13221,89.266136,55,70,42
89.266136,89.40006,54,70,42
89.40006,89.534,52,70,42
89.534,89.66792,54,70,42
89.66792,89.85765,55,70,42
89.935776,90.12551,52,70,42
90.203636,90.393364,54,70,42
90.47149,90.661224,50,70,42
90.73935,90.929085,49,70,42
91.00721,91.19694,50,70,42
91.27506,91.4648,52,70,42
91.54292,91.73265,54,70,42
91.810776,92.00051,52,70,42
92.078636,92.268364,50,70,42
92.34649,92.536224,49,70,42
92.61435,92.80408,47,70,42
92.8822,93.07194,45,70,42
93.15006,93.3398,57,70,42
93.41792,93.60765,47,70,42
93.685776,93.87551,57,70,42
93.953636,94.143364,49,70,42
94.22149,94.411224,57,70,42
94.48935,94.67908,45,70,42
94.7572,94.94694,57,70,42
95.02506,95.21479,50,70,42
95.292915,95.48265,57,70,42
95.560776,95.75051,52,70,42
95.828636,96.018364,57,70,42
96.09649,96.286224,54,70,42
96.36435,96.55408,57,70,42
96.6322,96.82194,57,70,42
96.6322,96.82194,49,70,42
96.90006,97.08979,57,70,42
97.167915,97.35765,50,70,42
97.435776,97.6255,57,70,42
97.70363,97.893364,62,70,42
97.97149,98.161224,57,70,42
98.23934,98.42908,61,70,42
98.5072,98.69694,57,70,42
98.77506,98.96479,62,70,42
99.042915,99.23265,50,70,42
99.310776,99.5005,61,70,42
99.57863,99.768364,49,74,42
99.84649,100.03622,59,78,42
100.11434,100.30408,47,82,42
100.3822,100.57193,57,87,42
100.650055,100.83979,45,91,42
100.917915,101.10765,55,95,42
101.185776,101.3755,43,99,42
101.45363,101.643364,40,100,42
101.72149,101.91122,40,125,42
101.98934,102.17908,45,100,42
102.2572,102.44693,49,125,42
102.525055,102.71479,52,100,42
102.792915,102.98264,56,125,42
103.06077,103.2505,59,100,42
103.32863,103.52539,62,125,42
103.60641,104.79531,62,70,42
104.80833,105.475945,61,70,42
105.49015,105.91082,45,70,42
105.92284,106.05505,45,70,42
106.06707,106.85948,50,70,42
106.87064,106.95993,45,70,42
106.95993,107.04921,47,70,42
107.04921,107.1385,49,70,42
107.1385,107.32823,50,70,42
107.40636,107.596085,49,70,42
107.67421,107.863945,50,70,42
107.94207,108.1318,48,70,42
108.20992,108.39966,50,70,42
108.47778,108.66752,47,70,42
108.74564,108.93537,50,70,42
109.0135,109.20323,46,70,42
109.28136,109.471085,50,70,42
109.54921,109.738945,45,70,42
109.81707,110.0068,50,70,42
110.08492,110.27466,43,70,42
110.35278,110.54251,42,70,42
110.620636,110.81037,50,70,42
110.8885,111.07823,40,70,42
111.15636,111.346085,50,70,42
111.42421,111.613945,40,70,42
111.69207,111.8818,50,70,42
111.95992,112.14966,42,70,42
112.22778,112.41751,50,70,42
112.495636,112.68537,43,70,42
112.7635,112.953224,50,70,42
113.03135,113.221085,43,70,42
113.29921,113.488945,50,70,42
113.56707,113.7568,42,70,42
113.83492,114.02466,50,70,42
114.10278,114.29251,43,70,42
114.370636,114.56037,50,70,42
114.6385,114.828224,38,70,42
114.90635,115.096085,57,70,42
115.17421,115.36394,50,70,42
115.44206,115.6318,57,70,42
115.70992,115.89965,49,70,42
115.977776,116.16751,57,70,42
116.245636,116.43537,50,70,42
116.5135,116.703224,57,70,42
116.78135,116.971085,52,70,42
117.04921,117.23894,57,73,42
117.31706,117.5068,50,77,42
117.58492,117.77465,57,81,42
117.852776,118.04251,49,84,42
118.120636,118.31036,57,88,42
118.38849,118.578224,47,92,42
118.65635,118.846085,57,96,42
118.92421,119.11394,45,100,42
119.19206,119.3818,45,125,42
119.45992,119.64965,49,100,42
119.727776,119.91751,52,125,42
119.995636,120.18536,57,100,42
120.26349,120.453224,61,125,42
120.53135,120.72811,64,100,42
120.80913,121.01345,67,125,42
121.09759,122.31371,67,70,42
122.32792,123.062294,66,70,42
123.07792,123.4986,45,70,42
123.51061,123.64282,45,70,42
123.65485,124.44725,50,70,42
124.45841,124.5477,45,70,42
124.5477,124.636986,47,70,42
124.636986,124.72627,49,70,42
124.72627,124.916,50,70,42
124.994125,125.18386,49,70,42
125.261986,125.45171,50,70,42
125.52984,125.719574,48,70,42
125.7977,125.987434,50,70,42
126.06555,126.25529,47,70,42
126.33341,126.52315,50,70,42
126.60127,126.791,46,70,42
126.869125,127.05886,50,70,42
127.136986,127.32671,45,70,42
127.40484,127.594574,50,70,42
127.6727,127.86243,43,70,42
127.94055,128.13028,42,70,42
128.2084,128.39815,50,70,42
128.47627,128.666,40,70,42
128.74413,128.93385,50,70,42
129.01198,129.20172,40,70,42
129.27985,129.46957,50,70,42
129.5477,129.73743,42,70,42
129.81555,130.00528,50,70,42
130.0834,130.27315,43,70,42
130.35127,130.541,50,70,42
130.61913,130.80885,43,70,42
130.88698,131.07672,50,70,42
131.15483,131.34457,42,70,42
131.4227,131.61243,50,70,42
131.69055,131.88028,43,70,42
131.9584,132.14815,50,70,42
132.22627,132.416,38,70,42
132.49413,132.68385,57,70,42
132.76198,132.9517,50,70,42
133.02983,133.21957,57,70,42
133.2977,133.48743,49,70,42
133.56555,133.75528,57,70,42
133.8334,134.02315,50,70,42
134.10127,134.291,57,70,42
134.36913,134.55885,52,70,42
134.63698,134.8267,57,73,42
134.90483,135.09457,50,77,42
135.1727,135.36243,57,81,42
135.44055,135.63028,49,84,42
135.7084,135.89813,57,88,42
135.97626,136.166,47,92,42
136.24413,136.43385,57,96,42
136.51198,136.7017,45,100,42
136.77983,136.96957,45,125,42
137.0477,137.23743,49,100,42
137.31555,137.50528,52,125,42
137.5834,137.78017,57,100,42
137.86119,138.05794,61,125,42
138.13896,138.34329,64,100,42
138.42743,138.63992,67,125,42
138.72742,140.01288,67,70,42
140.0285,140.89249,66,70,42
141.51086,141.76756,50,60,42
142.04657,142.30327,50,60,42
143.65372,143.91042,52,60,42
144.18944,144.44614,52,60,42
145.79657,146.05327,49,60,42
146.33229,146.58899,49,60,42
147.93944,148.19612,50,60,42
148.47514,148.73184,50,60,42
150.08229,150.33899,50,60,42
151.15372,151.41042,49,60,42
151.68942,151.94612,47,60,42
152.22514,152.48184,49,60,42
153.29657,153.55327,47,60,42
153.83229,154.08897,45,60,42
154.90372,155.16042,40,60,42
155.97514,156.23184,52,60,42
156.51085,156.76755,45,60,42
157.04657,157.30327,40,60,42
157.58228,157.83897,45,60,42
158.65372,158.9104,50,60,42
159.18942,159.44612,50,60,42
160.79657,161.05327,52,60,42
161.33228,161.58897,52,60,42
162.93942,163.19612,49,60,42
163.47514,163.73183,49,60,42
165.08228,165.33897,50,60,42
165.618,165.8747,50,60,42
167.22513,167.48183,50,60,42
168.29657,168.55325,49,60,42
168.83228,169.08897,47,60,42
169.368,169.62468,49,60,42
170.43942,170.69612,47,60,42
170.97513,171.23183,45,60,42
172.04655,172.30325,40,60,42
173.118,173.38419,52,60,42
173.68423,173.96066,45,60,42
174.26115,174.56062,40,60,42
174.91457,175.27394,45,60,42
176.28957,176.54625,50,60,42
176.82527,177.08197,50,60,42
180.57527,180.83197,50,60,42
181.111,181.36768,50,60,42
182.71812,182.85205,43,60,42
182.8967,183.03062,47,66,42
183.07527,183.2092,50,72,42
183.25385,183.38777,55,78,42
183.43242,183.56635,59,84,42
183.61098,183.74492,62,90,42
183.78955,183.92348,62,90,42
183.96812,184.10205,62,86,42
184.1467,184.28062,62,82,42
184.32527,184.4592,62,78,42
184.50385,184.63777,62,74,42
184.68242,184.81635,62,70,42
184.86098,185.11768,50,60,42
185.3967,185.6534,50,60,42
187.00385,187.26054,52,60,42
187.53955,187.79625,52,60,42
189.6824,189.9391,49,60,42
190.75385,191.01053,45,60,42
191.28955,191.54625,50,60,42
191.82527,192.08195,45,60,42
192.36098,192.61768,50,60,42
193.4324,193.6891,50,60,42
193.96812,194.22482,50,60,42
197.71812,197.97482,50,60,42
198.25383,198.51053,50,60,42
199.86098,199.9949,43,60,42
200.03955,200.17348,47,66,42
200.21812,200.35205,50,72,42
200.39668,200.53062,55,78,42
200.57526,200.70918,59,84,42
200.75383,200.88776,62,90,42
200.9324,201.06633,62,90,42
201.11098,201.2449,62,86,42
201.28955,201.42348,62,82,42
201.46812,201.60205,62,78,42
201.64668,201.78062,62,74,42
201.82526,201.95918,62,70,42
202.00383,202.26053,50,60,42
202.53955,202.79625,50,60,42
204.14668,204.40338,52,60,42
204.6824,204.9391,52,60,42
206.82526,207.08195,49,60,42
207.91653,208.19296,45,60,42
208.50499,208.7925,50,60,42
209.105,209.4175,45,60,42
209.80608,210.22887,50,60,42
211.28842,212.31213,50,70,42
212.3229,212.82938,52,70,42
212.84015,213.34662,54,70,42
213.35739,213.86386,55,70,42
215.42636,216.45006,45,70,42
216.46083,216.9673,47,70,42
216.97807,217.48454,49,70,42
217.49532,218.00179,50,70,42
221.63326,222.92635,45,70,42
222.92635,223.18497,47,81,42
223.18497,223.44359,49,83,42
223.44359,223.70221,50,86,42
223.70221,226.27765,52,88,42
226.28842,226.79488,45,70,42
227.84013,228.86385,50,70,42
228.87462,229.38109,52,70,42
229.39186,229.89833,54,70,42
229.9091,230.41557,55,70,42
231.97807,233.00177,45,70,42
233.01254,233.51901,47,70,42
233.52979,234.03625,49,70,42
234.04703,234.5535,50,70,42
238.18497,239.47806,45,70,42
239.47806,239.73668,47,81,42
239.73668,239.9953,49,83,42
239.9953,240.25392,50,86,42
240.25392,242.82936,52,88,42
242.84013,243.34659,45,70,42
248.52979,249.8121,50,70,42
249.82288,250.0815,45,70,42
250.0815,250.34012,50,70,42
250.34012,250.59874,48,70,42
250.59874,250.84659,47,70,42
251.11598,251.36383,43,70,42
251.63322,251.88107,50,70,42
252.66771,253.96082,38,70,42
253.96082,254.21944,40,70,42
254.21944,254.47806,42,70,42
254.47806,254.73668,43,70,42
254.73668,257.3121,45,70,42
257.32288,257.5707,45,89,42
258.35736,259.89832,45,97,42
259.9091,260.41556,38,70,42
265.08148,266.36383,50,70,42
266.3746,266.6332,45,70,42
266.6332,266.89185,50,70,42
266.89185,267.15045,48,70,42
267.15045,267.39832,47,70,42
267.6677,267.91553,43,70,42
268.18494,268.43277,50,70,42
269.21942,270.5125,38,70,42
270.5125,270.77115,40,70,42
270.77115,271.02975,42,70,42
271.02975,271.2884,43,70,42
271.2884,273.8638,45,70,42
273.8746,274.12244,45,89,42
274.90906,276.7723,45,116,42
276.78793,277.5223,38,70,42
278.13794,279.2375,62,50,42
279.24905,279.79303,55,50,42
279.8046,280.34857,56,50,42
280.36017,282.5708,57,50,42
282.58237,284.23746,54,50,42
284.24905,285.34857,66,50,42
285.36017,285.90414,64,50,42
285.9157,287.01526,62,50,42
287.02682,288.12637,59,50,42
288.13794,288.68192,56,50,42
288.69348,289.23746,53,50,42
289.24905,289.79303,54,50,42
289.8046,290.34857,49,50,42
290.36017,290.90414,50,50,42
290.9157,291.4597,48,50,42
291.47128,292.59174,49,50,42
292.60376,293.76816,38,50,42
293.78067,295.67142,42,50,42
296.285,297.38455,62,50,42
297.39612,297.9401,55,50,42
297.9517,298.49567,56,50,42
298.50723,300.7179,57,50,42
300.72946,302.38455,54,50,42
302.39612,303.49567,66,50,42
303.50723,304.0512,64,50,42
304.0628,305.20462,62,50,42
305.21664,306.31616,59,50,42
306.32776,306.87173,56,50,42
306.8833,307.42728,53,50,42
307.43887,307.98285,54,50,42
307.99442,308.5384,49,50,42
308.54996,309.09396,50,50,42
309.10553,309.6495,48,50,42
309.66107,310.76062,49,50,42
310.7722,311.9366,38,50,42
311.94913,313.98785,42,50,42
314.60345,315.703,42,50,42
315.71457,316.25854,40,50,42
316.27014,316.81412,38,50,42
316.82568,317.36966,43,50,42
317.38126,317.92523,47,50,42
317.9368,319.03635,50,50,42
319.0479,323.48077,50,50,42
323.49234,325.14743,55,50,42
325.15903,325.703,54,63,42
325.71457,326.25854,53,67,42
326.27014,326.81412,49,72,42
326.82568,327.36966,50,76,42
327.38123,328.56873,51,80,42
328.58124,329.74615,52,50,42
329.75818,330.9,45,50,42
330.91202,331.47693,38,50,42
331.48892,332.05383,50,50,42
332.6428,333.7423,42,50,42
333.75388,334.29788,40,50,42
334.30945,334.85342,38,50,42
334.865,335.409,43,50,42
335.42056,335.96454,47,50,42
335.9761,337.07565,50,50,42
337.08722,341.52008,50,50,42
341.53168,343.18677,55,50,42
343.19833,343.7423,54,63,42
343.75388,344.29788,53,67,42
344.30945,344.85342,49,72,42
344.865,345.4299,50,76,42
345.44193,346.62943,51,80,42
346.64194,347.78375,52,50,42
347.79578,349.03436,45,50,42
349.04794,349.78232,38,50,42
349.79794,350.66193,50,50,42
351.2803,351.47003,38,110,42
351.54816,351.73788,54,110,42
351.816,352.00574,45,110,42
352.08386,352.2736,54,110,42
352.3517,352.54144,38,110,42
352.61957,352.80933,54,110,42
352.88745,353.07718,45,110,42
353.1553,353.34503,54,110,42
353.42316,353.61288,40,110,42
353.691,353.88074,55,110,42
353.95886,354.1486,38,110,42
354.2267,354.41644,55,110,42
354.49457,354.6285,37,110,42
354.6285,354.76242,55,110,42
354.76242,354.89636,54,110,42
354.89636,355.0303,52,110,42
355.0303,355.1642,50,110,42
355.1642,355.29816,49,110,42
355.29816,355.43207,47,110,42
355.43207,355.566,45,110,42
355.566,355.75574,49,110,42
355.83386,356.0236,45,110,42
356.1017,356.29144,49,110,42
356.36957,356.5593,45,110,42
356.63742,356.82718,50,110,42
356.9053,357.09503,45,110,42
357.17316,357.36288,55,110,42
357.441,357.63074,45,110,42
357.70886,357.8986,54,110,42
357.9767,358.16644,45,110,42
358.24457,358.4343,49,110,42
358.51242,358.70218,45,110,42
358.7803,358.97003,50,110,42
359.04816,359.23788,50,110,42
359.316,359.50574,45,110,42
359.58386,359.7736,42,110,42
359.8517,360.04144,38,110,42
360.11957,360.3093,54,110,42
360.38742,360.57718,45,110,42
360.6553,360.84503,54,110,42
360.92316,361.11288,38,110,42
361.191,361.38074,54,110,42
361.45886,361.6486,45,110,42
361.7267,361.91644,54,110,42
361.99457,362.1843,39,110,42
362.26242,362.45218,45,110,42
362.5303,362.72003,39,110,42
362.79816,362.98788,45,110,42
363.066,363.25574,39,110,42
363.33386,363.5236,47,110,42
363.6017,363.79144,39,110,42
363.86957,364.0593,48,110,42
364.13742,364.32715,40,110,42
364.40527,364.59503,47,110,42
364.67316,364.86288,40,110,42
364.941,365.13074,47,110,42
365.20886,365.3986,40,110,42
365.4767,365.66644,50,110,42
365.74457,365.9343,40,110,42
366.01242,366.20215,50,110,42
366.28027,366.47003,45,110,42
366.54816,366.73788,50,110,42
366.816,367.00574,45,110,42
367.08386,367.2736,50,110,42
367.3517,367.48566,45,110,42
367.48566,367.61957,49,110,42
367.61957,367.7535,52,110,42
367.7535,367.88742,49,110,42
367.88742,368.02136,45,110,42
368.02136,368.15527,43,110,42
368.15527,368.2892,42,110,42
368.2892,368.412,40,110,42
368.42316,368.61288,38,110,42
368.691,368.88074,54,110,42
368.95886,369.1486,45,127,42
369.2267,369.41644,54,110,42
369.49457,369.6843,38,110,42
369.76242,369.95215,54,110,42
370.03027,370.22003,45,127,42
370.29816,370.48788,54,110,42
370.566,370.75574,40,110,42
370.83386,371.0236,55,110,42
371.1017,371.29144,38,110,42
371.36957,371.5593,55,110,42
371.63742,371.77136,37,110,42
371.77136,371.90527,55,110,42
371.90527,372.0392,54,110,42
372.0392,372.17313,52,110,42
372.17313,372.30707,50,110,42
372.30707,372.441,49,110,42
372.441,372.57492,47,110,42
372.57492,372.70886,45,110,42
372.70886,372.8986,49,110,42
372.9767,373.16644,45,110,42
373.24457,373.4343,49,110,42
373.51242,373.70215,45,110,42
373.78027,373.97,50,110,42
374.04813,374.23788,45,110,42
374.316,374.50574,55,110,42
374.58386,374.7736,45,110,42
374.8517,375.04144,54,110,42
375.11957,375.3093,45,110,42
375.38742,375.57715,49,110,42
375.65527,375.845,45,110,42
375.92313,376.11288,50,110,42
376.191,376.38074,50,110,42
376.45886,376.6486,45,110,42
376.7267,376.91644,42,110,42
376.99457,377.1843,38,110,42
377.26242,377.45215,54,110,42
377.53027,377.72,45,125,42
377.79813,377.98788,54,110,42
378.066,378.25574,38,110,42
378.33386,378.5236,54,110,42
378.6017,378.79144,45,126,42
378.86957,379.0593,54,110,42
379.13742,379.32715,39,110,42
379.40527,379.595,45,110,42
379.67313,379.86285,39,110,42
379.94098,380.13074,45,110,42
380.20886,380.3986,39,110,42
380.4767,380.66644,47,110,42
380.74457,380.9343,39,110,42
381.01242,381.20215,48,110,42
381.28027,381.47,40,110,42
381.54813,381.73785,47,110,42
381.81598,382.00574,40,110,42
382.08386,382.2736,47,110,42
382.3517,382.54144,40,110,42
382.61957,382.8093,50,110,42
382.88742,383.07715,40,110,42
383.15527,383.345,50,110,42
383.42313,383.61285,45,110,42
383.69098,383.88074,50,110,42
383.95886,384.1486,45,110,42
384.2267,384.41644,50,110,42
384.49457,384.62848,45,110,42
384.62848,384.76242,49,110,42
384.76242,384.89636,52,110,42
384.89636,385.03027,50,110,42
385.03027,385.1642,49,110,42
385.1642,385.29813,47,110,42
385.29813,385.43207,45,110,42
385.43207,385.55484,43,110,42
385.56598,385.75574,42,110,42
385.83386,386.0236,50,110,42
386.1017,386.29144,50,110,42
386.36957,386.5593,50,110,42
386.63742,386.82715,49,110,42
386.90527,387.095,50,110,42
387.17313,387.36285,48,110,42
387.44098,387.6307,50,110,42
387.70883,387.8986,47,110,42
387.9767,388.16644,50,110,42
388.24457,388.4343,43,110,42
388.51242,388.70215,50,110,42
388.78027,388.9142,42,110,42
388.9142,389.04813,38,110,42
389.04813,389.18207,42,110,42
389.18207,389.31598,45,110,42
389.31598,389.44992,50,110,42
389.44992,389.58383,54,110,42
389.58383,389.71777,57,110,42
389.71777,389.8517,55,110,42
389.8517,390.04144,54,110,42
390.11957,390.3093,62,110,42
390.38742,390.57715,62,110,42
390.65527,390.845,62,110,42
390.92313,391.11285,61,110,42
391.19098,391.3807,62,110,42
391.45883,391.6486,60,110,42
391.7267,391.91644,62,110,42
391.99457,392.1843,59,110,42
392.26242,392.45215,62,110,42
392.53027,392.72,55,110,42
392.79813,392.98785,62,110,42
393.06598,393.2557,54,110,42
393.33383,393.5236,50,110,42
393.6017,393.79144,45,110,42
393.86957,394.0593,42,110,42
394.13742,394.32715,38,110,42
394.40527,394.595,54,110,42
394.67313,394.86285,45,110,42
394.94098,395.1307,54,110,42
395.20883,395.3986,38,110,42
395.47668,395.66644,54,110,42
395.74457,395.9343,45,110,42
396.01242,396.20215,54,110,42
396.28027,396.47,40,110,42
396.54813,396.73785,55,110,42
396.81598,397.0057,38,110,42
397.08383,397.27356,55,110,42
397.35168,397.48563,37,110,42
397.48563,397.61957,55,110,42
397.61957,397.75348,54,110,42
397.75348,397.88742,52,110,42
397.88742,398.02133,50,110,42
398.02133,398.15527,49,110,42
398.15527,398.28918,47,110,42
398.28918,398.42313,45,110,42
398.42313,398.61285,49,110,42
398.69098,398.8807,57,110,42
398.95883,399.14856,45,110,42
399.22668,399.41644,57,110,42
399.49457,399.6843,45,110,42
399.76242,399.95215,57,110,42
400.03027,400.22,45,110,42
400.29813,400.48785,55,110,42
400.56598,400.7557,38,110,42
400.83383,401.02356,55,110,42
401.10168,401.29144,45,110,42
401.36957,401.5593,55,110,42
401.63742,401.77133,38,110,42
401.77133,401.90527,54,110,42
401.90527,402.03918,52,110,42
402.03918,402.17313,50,110,42
402.17313,402.30707,49,110,42
402.30707,402.44098,47,110,42
402.44098,402.57492,45,110,42
402.57492,402.70883,43,110,42
402.70883,402.89856,42,110,42
402.97668,403.16644,50,110,42
403.24457,403.4343,50,110,42
403.51242,403.70215,50,110,42
403.78027,403.97,49,110,42
404.04813,404.23785,50,110,42
404.31598,404.5057,48,110,42
404.58383,404.77356,50,110,42
404.85168,405.0414,47,110,42
405.11954,405.3093,50,110,42
405.38742,405.57715,43,110,42
405.65527,405.845,50,110,42
405.92313,406.05704,42,110,42
406.05704,406.19098,38,110,42
406.19098,406.32492,42,110,42
406.32492,406.45883,45,110,42
406.45883,406.59277,50,110,42
406.59277,406.72668,54,110,42
406.72668,406.86063,57,110,42
406.86063,406.99454,55,110,42
406.99454,407.1843,54,110,42
407.26242,407.45215,62,110,42
407.53027,407.72,62,110,42
407.79813,407.98785,62,110,42
408.06598,408.2557,61,110,42
408.33383,408.52356,62,110,42
408.60168,408.7914,60,110,42
408.86954,409.0593,62,110,42
409.13742,409.32715,59,110,42
409.40527,409.595,62,110,42
409.67313,409.86285,55,110,42
409.94098,410.1307,62,110,42
410.20883,410.39856,54,110,42
410.47668,410.6664,50,110,42
410.74454,410.9343,45,110,42
411.01242,411.20215,42,110,42
411.28027,411.47,38,110,42
411.54813,411.73785,54,110,42
411.81598,412.0057,45,110,42
412.08383,412.27356,54,110,42
412.35168,412.5414,38,110,42
412.61954,412.80927,54,110,42
412.8874,413.07715,45,110,42
413.15527,413.345,54,110,42
413.42313,413.61285,40,110,42
413.69098,413.8807,55,110,42
413.95883,414.14856,38,110,42
414.22668,414.4164,55,110,42
414.49454,414.62848,37,110,42
414.62848,414.7624,55,110,42
414.7624,414.89633,54,110,42
414.89633,415.03027,52,110,42
415.03027,415.16418,50,110,42
415.16418,415.29813,49,110,42
415.29813,415.43204,47,110,42
415.43204,415.56598,45,110,42
415.56598,415.7557,49,110,42
415.83383,416.02356,57,110,42
416.10168,416.2914,45,110,42
416.36954,416.55927,57,110,42
416.6374,416.83417,45,110,42
416.9152,417.11194,57,110,42
417.19296,417.39728,45,110,42
417.4814,417.70276,55,110,42
417.7939,417.9907,46,70,42
418.0717,418.26846,53,69,42
418.3495,418.54623,50,68,42
418.62726,418.824,53,67,42
418.90503,419.10178,46,65,42
419.1828,419.37958,53,64,42
419.46057,419.65735,50,63,42
419.73837,419.93512,53,61,42
420.01614,420.2129,46,60,42
420.2939,420.4907,53,59,42
420.5717,420.76846,50,57,42
420.8495,421.04623,53,56,42
421.12726,421.324,46,55,42
421.40503,421.60178,53,53,42
421.6828,421.87958,50,52,42
421.96057,422.15735,53,51,42
422.23837,422.78235,46,50,42
435.5717,437.2477,46,77,42
437.25974,437.84723,46,83,42
437.85974,438.44724,45,85,42
438.45972,439.67172,57,87,42
439.68472,440.37744,55,80,42
440.39307,441.51483,54,50,42
441.5264,442.07037,52,50,42
442.08194,442.62595,50,50,42
442.6375,443.1815,49,50,42
443.19305,443.73703,47,50,42
443.74863,444.84814,45,50,42
444.85974,445.95926,54,50,42
445.97083,446.51483,52,50,42
446.5264,447.07037,50,50,42
447.08194,447.62595,49,50,42
447.6375,448.1815,47,50,42
448.19305,449.7109,45,50,42
449.7234,449.92017,45,50,42
450.00116,450.19794,47,50,42
450.27896,450.4757,49,50,42
450.55673,450.75348,50,50,42
450.8345,451.03125,52,50,42
451.11227,451.94562,54,50,42
451.94562,452.14236,55,50,42
452.2234,452.42017,52,50,42
452.50116,452.69794,50,50,42
452.77896,452.9757,49,50,42
453.05673,453.25348,47,50,42
453.3345,454.15625,45,50,42
454.16785,454.3646,45,50,42
454.44562,454.64236,47,50,42
454.7234,454.92017,49,50,42
455.00116,455.19794,50,50,42
455.27896,455.4757,52,50,42
455.55673,455.75348,54,50,42
455.8345,456.03125,56,50,42
456.11227,456.51736,57,50,42
456.66785,457.07294,57,55,42
457.2234,458.6007,57,61,42
458.61227,458.80905,57,70,42
458.89005,459.08682,55,70,42
459.16785,459.3646,51,70,42
459.44562,460.82294,52,70,42
460.8345,461.03125,55,70,42
461.11227,461.30905,54,70,42
461.39005,461.58682,49,70,42
461.66785,462.76736,50,70,42
462.77896,464.9896,43,70,42
465.00116,467.21182,38,70,42
467.2234,469.43405,43,70,42
469.44562,469.9896,38,70,42
470.00116,470.54517,40,75,42
470.55673,471.65625,42,81,42
471.66785,472.21182,40,70,42
472.77896,473.32294,45,70,42
473.89005,474.43405,38,70,42
475.00116,475.54517,43,70,42
476.11227,477.4896,47,70,42
477.50116,477.69794,49,70,42
477.77896,477.9757,51,70,42
478.05673,478.25348,52,70,42
478.3345,479.72205,45,70,42
479.73407,479.93842,47,70,42
480.02252,480.23505,49,70,42
480.32254,480.55353,50,70,42
480.64862,481.2148,45,70,42
481.2264,482.04816,57,73,42
482.05972,482.32593,57,79,42
482.33752,482.60373,57,81,42
482.6153,482.8815,57,83,42
482.89307,483.43704,45,85,42
483.4486,484.2704,57,89,42
484.28195,484.54816,57,95,42
484.55972,484.82593,57,97,42
484.83752,485.10373,57,98,42
485.1153,485.3815,45,100,42
485.39307,486.2148,57,100,42
486.2264,486.4926,45,100,42
486.50418,487.32593,57,100,42
487.33752,487.60373,45,100,42
487.6153,488.75748,57,100,42
488.77,489.0575,45,100,42
489.06998,489.38248,57,100,42
489.3961,489.75546,45,100,42
489.7711,491.00806,45,110,42
491.0211,492.31183,46,110,42
492.3254,493.7391,44,110,42
493.754,496.59625,45,110,42
507.52542,508.71292,54,50,42
508.72543,509.31293,52,50,42
509.3254,509.91293,50,50,42
509.9254,510.5129,49,50,42
510.52542,511.1129,47,55,42
511.12543,515.44116,45,60,42
515.4548,516.1224,45,79,42
516.1366,516.836,45,68,42
516.8509,517.6252,45,56,42
517.6425,518.4585,50,50,42
519.1009,519.2919,50,50,42
519.3092,520.2884,50,50,42
520.8092,521.2884,38,50,42
521.3092,525.2884,38,50,42
424.46057,425.00458,41,50,45
426.6828,427.22678,46,50,45
428.90503,429.449,41,50,45
431.12726,431.67123,43,70,45
432.23837,432.78235,36,70,45
433.3495,433.89346,53,70,45
434.46057,435.00458,46,73,45
