start_time,end_time,note_value,velocity,instrument_program_number
0.0,0.105698414,69,1,40
1.433822,1.5119469,76,70,40
1.544116,1.6222409,78,70,40
1.65441,1.7325349,76,70,40
1.764704,2.3115785,81,70,40
2.316174,2.394299,85,70,40
2.426468,2.504593,83,70,40
2.536762,2.614887,81,70,40
2.647056,2.7527544,81,70,40
2.75735,2.835475,80,70,40
2.867644,2.9457688,78,70,40
2.977938,3.056063,80,70,40
3.088232,3.1663568,81,70,40
3.198526,3.276651,85,70,40
3.30882,3.386945,83,70,40
3.419114,3.4972389,81,70,40
3.529408,3.6351063,81,70,40
3.639702,3.7178268,80,70,40
3.749996,3.828121,78,70,40
3.86029,3.9384148,80,70,40
3.970584,4.048709,81,70,40
4.080878,4.159003,85,70,40
4.191172,4.269297,83,70,40
4.301466,4.379591,81,70,40
4.41176,4.5206614,81,70,40
4.525396,4.6058884,80,70,40
4.639032,4.7195244,78,70,40
4.752668,4.8331604,76,70,40
4.866304,4.982231,75,70,40
4.9872713,5.072957,76,70,40
5.108239,5.1998334,78,70,40
5.237549,5.343799,80,70,40
5.387549,6.881299,76,70,40
7.301185,7.381677,83,70,40
7.414821,7.495313,82,70,40
7.528457,7.608949,83,70,40
7.642093,9.114626,74,70,40
9.119361,9.199853,78,70,40
9.232997,9.313489,76,70,40
9.346633,9.427125,74,70,40
9.460269,9.565968,74,70,40
9.570563,9.648688,73,70,40
9.680857,9.758982,71,70,40
9.791151,9.869276,69,70,40
9.901445,10.007143,68,70,40
10.011739,10.089864,69,70,40
10.122033,10.200158,71,70,40
10.232327,10.3104515,73,70,40
10.342621,10.448319,69,70,40
10.452915,10.53104,73,70,40
10.563209,10.641334,76,70,40
10.673503,10.751628,76,70,40
10.783797,10.889496,76,70,40
10.894091,10.972216,78,70,40
11.004385,11.08251,76,70,40
11.114679,11.192804,74,70,40
11.224973,11.330671,74,70,40
11.335267,11.413392,73,70,40
11.445561,11.523685,71,70,40
11.555855,11.63398,69,70,40
11.666149,11.771848,68,70,40
11.776443,11.854568,69,70,40
11.886737,11.964862,71,70,40
11.997031,12.075156,73,70,40
12.107325,12.764493,69,70,40
12.769089,12.985082,71,70,40
12.989677,13.205669,73,70,40
13.210265,13.426257,71,70,40
13.430853,13.646846,74,70,40
13.651441,13.867434,73,70,40
13.872029,14.529198,71,70,40
14.533793,14.749785,73,70,40
14.754381,14.970373,74,70,40
14.974969,15.190962,73,70,40
15.195557,15.41155,76,70,40
15.416145,15.632137,74,70,40
15.636733,15.852725,73,70,40
16.62938,16.707504,76,70,40
16.739674,16.817799,78,70,40
16.849966,16.928091,76,70,40
16.96026,17.396841,88,70,40
18.394083,18.472208,76,70,40
18.504377,18.582502,78,70,40
18.614672,18.692797,76,70,40
18.724964,19.161545,88,70,40
19.717611,19.795736,85,70,40
19.827906,19.90603,86,70,40
19.938198,20.016323,85,70,40
20.048492,20.126617,83,70,40
20.158787,20.236912,83,70,40
20.269081,20.347206,85,70,40
20.379375,20.4575,87,70,40
20.48967,20.595367,88,70,40
20.599962,20.678087,87,70,40
20.710257,20.788382,85,70,40
20.82055,20.898676,83,70,40
20.930845,21.47772,81,70,40
21.482315,21.56044,81,70,40
21.59261,21.670734,83,70,40
21.702904,21.781029,81,70,40
21.813196,21.891321,80,70,40
21.92349,22.001616,80,70,40
22.033785,22.11191,81,70,40
22.14408,22.222204,83,70,40
22.254374,22.360071,85,70,40
22.364668,22.442791,83,70,40
22.47496,22.553085,81,70,40
22.585255,22.66338,80,70,40
22.695549,23.242424,78,70,40
23.247019,23.325144,78,70,40
23.357313,23.435438,80,70,40
23.467607,23.545732,78,70,40
23.577902,24.124775,76,70,40
24.129372,24.207497,76,70,40
24.239664,24.31779,78,70,40
24.349958,24.428083,76,70,40
24.460253,24.676245,75,70,40
24.901428,25.779186,78,70,40
25.783781,26.220362,76,70,40
26.224957,26.303082,75,70,40
26.33525,26.440948,83,70,40
26.445545,26.52367,85,70,40
26.55584,26.633965,83,70,40
26.666134,26.744257,82,70,40
26.776426,26.882126,81,70,40
26.88672,26.964846,83,70,40
26.997015,27.07514,81,70,40
27.10731,27.185434,80,70,40
27.217604,27.323301,80,70,40
27.327896,27.406021,81,70,40
27.43819,27.516315,80,70,40
27.548485,27.62661,79,70,40
27.65878,27.764477,79,70,40
27.769073,27.847198,81,70,40
27.879368,27.957493,79,70,40
27.98966,28.205654,78,70,40
28.430838,29.308594,78,70,40
29.313189,29.74977,76,70,40
29.754366,29.832489,75,70,40
29.864658,29.970358,83,72,40
29.974953,30.053078,85,74,40
30.085247,30.163372,83,76,40
30.195541,30.273666,82,78,40
30.305836,30.411533,81,80,40
30.416128,30.494253,83,82,40
30.526423,30.604548,81,84,40
30.636717,30.714842,80,86,40
30.747011,30.852709,80,88,40
30.857306,30.93543,81,90,40
30.9676,31.045725,80,92,40
31.077892,31.156017,79,94,40
31.188187,31.293886,79,96,40
31.298481,31.376606,81,98,40
31.408775,31.4869,79,100,40
31.51907,31.599562,78,110,40
31.632706,31.741606,78,110,40
31.746342,31.858646,81,110,40
31.86353,31.946537,79,110,40
31.980717,32.066402,78,110,40
32.101685,32.21761,78,110,40
32.222652,32.34244,81,110,40
32.347652,32.46744,79,110,40
32.472652,32.71744,78,110,40
33.472652,34.40527,68,50,40
34.410152,35.34277,73,50,40
35.347652,36.28027,66,50,40
36.285152,37.21777,71,50,40
37.222652,37.68652,64,50,40
37.691402,38.62402,69,55,40
38.628902,39.327145,68,65,40
39.332027,39.795895,66,70,40
39.800777,40.264645,64,70,40
40.269527,40.49902,63,70,40
40.503902,40.6748,66,70,40
40.738277,40.909176,71,70,40
40.972652,41.90527,80,70,40
41.910152,42.84277,85,70,40
42.847652,43.78027,78,70,40
43.785152,44.71777,83,70,40
44.722652,45.18652,76,70,40
45.191402,46.12402,81,70,40
46.128902,46.827145,80,70,40
46.832027,47.06152,78,70,40
47.066402,47.295895,76,70,40
47.300777,47.53027,75,70,40
47.535152,47.764645,76,70,40
48.941402,49.170895,73,70,40
49.175777,49.40527,71,70,40
49.410152,49.639645,69,70,40
49.644527,49.87402,68,70,40
50.816402,51.045895,73,70,40
51.050777,51.28027,71,70,40
51.285152,51.514645,69,70,40
51.519527,51.74902,68,70,40
51.753902,51.983395,74,70,40
51.988277,52.21777,73,70,40
52.222652,52.452145,71,70,40
52.457027,52.68652,69,72,40
52.691402,52.920895,78,75,40
52.925777,53.15527,76,78,40
53.160152,53.389645,74,81,40
53.394527,53.62402,73,84,40
53.628902,53.858395,71,86,40
53.863277,54.342106,69,89,40
54.347145,54.833874,68,95,40
54.83908,55.106125,66,100,40
55.11181,55.28822,68,70,40
55.353745,55.519463,66,100,40
55.581017,55.746735,69,70,40
55.80829,55.974007,68,100,40
56.03556,56.20128,73,70,40
56.262833,56.42855,71,100,40
56.490105,56.655823,75,70,40
56.717377,56.883095,76,100,40
56.94465,57.50809,81,100,40
57.51283,57.621727,78,100,40
57.626465,57.735363,75,100,40
57.7401,57.849,69,100,40
57.853737,57.962635,68,100,40
57.967373,58.047863,71,100,40
58.081005,58.1615,69,100,40
58.19464,58.275135,66,100,40
58.308277,58.41718,64,100,40
58.421913,58.502407,68,100,40
58.53555,58.616043,66,100,40
58.649185,58.72968,63,100,40
59.217365,59.383087,81,70,40
59.444637,59.61036,80,100,40
59.67191,59.83763,85,70,40
59.89918,60.072792,83,100,40
60.13728,60.31957,87,70,40
60.38728,60.60603,88,100,40
60.68728,61.932068,90,110,40
61.93728,62.16677,88,90,40
62.171654,62.401146,87,80,40
62.40603,62.63552,85,70,40
62.640404,62.869896,84,50,40
62.87478,63.10427,87,50,40
63.109154,63.338646,88,50,40
63.34353,63.57302,85,50,40
63.577904,63.807396,82,50,40
63.81228,64.04177,85,50,40
64.04665,64.276146,86,50,40
64.28103,64.51052,83,50,40
64.5154,64.744896,80,50,40
64.74978,64.97927,83,50,40
64.98415,65.213646,85,50,40
65.21853,65.44802,81,50,40
65.4529,65.682396,80,50,40
65.68728,65.91677,83,50,40
65.92165,66.16644,78,50,40
66.17165,66.4387,83,50,40
66.44438,66.57506,64,70,40
66.58074,66.66123,68,70,40
66.69438,66.77487,71,70,40
66.808014,66.888504,68,70,40
66.92165,67.002144,76,70,40
67.035286,67.115776,71,70,40
67.148926,67.229416,80,70,40
67.26256,67.34305,76,70,40
67.3762,68.03336,83,70,40
68.03796,68.25395,65,70,40
68.258545,68.47454,66,70,40
68.47913,68.58483,69,70,40
68.58943,68.69513,73,70,40
68.69972,68.80542,78,70,40
68.81002,68.91572,80,70,40
68.92031,69.02601,81,70,40
69.03061,69.13631,83,70,40
69.1409,69.798065,85,70,40
69.802666,70.018654,75,70,40
70.023254,70.12895,64,70,40
70.133545,70.21167,68,70,40
70.24384,70.32197,71,70,40
70.35413,70.43226,68,70,40
70.464424,70.54255,76,70,40
70.57472,70.65285,71,70,40
70.68501,70.76314,80,70,40
70.79531,70.873436,76,70,40
70.9056,71.562775,83,70,40
71.56737,71.78336,65,70,40
71.78796,72.003944,66,70,40
72.008545,72.11424,69,70,40
72.118835,72.22453,73,70,40
72.22913,72.33483,78,70,40
72.339424,72.44512,80,70,40
72.44972,72.55542,81,70,40
72.56001,72.66571,83,70,40
72.67031,73.32748,85,70,40
73.33207,73.548065,75,70,40
73.55266,73.768654,76,70,40
74.6556,74.7613,81,70,40
74.76589,74.87159,78,70,40
74.87619,74.98189,81,70,40
74.98648,75.09218,78,70,40
75.09678,75.20248,81,70,40
75.20707,75.31277,78,70,40
75.31736,75.533356,80,70,40
76.4203,76.526,78,70,40
76.530594,76.6363,75,70,40
76.64089,76.74659,78,70,40
76.75118,76.85688,75,70,40
76.86148,76.96718,78,70,40
76.97177,77.07747,75,70,40
77.08207,77.29806,76,70,40
78.185005,78.2907,69,70,40
78.2953,78.401,66,70,40
78.405594,78.51129,69,70,40
78.51589,78.62159,66,70,40
78.62618,78.73188,69,70,40
78.73648,78.84218,66,70,40
78.84677,79.06277,68,70,40
79.949715,80.05541,78,70,40
80.060005,80.1657,75,70,40
80.170296,80.276,78,70,40
80.280594,80.38629,75,70,40
80.390884,80.49659,78,70,40
80.50118,80.60688,75,70,40
80.61147,80.82747,76,70,40
81.71442,81.820114,78,70,40
81.82471,81.930405,75,70,40
81.935005,82.0407,78,70,40
82.045296,82.15099,75,70,40
82.155594,82.26129,78,70,40
82.265884,82.37158,75,70,40
82.37618,82.59217,76,70,40
83.47912,83.584816,78,70,40
83.58942,83.695114,75,70,40
83.69971,83.805405,78,70,40
83.810005,83.9157,75,70,40
83.920296,84.02599,78,70,40
84.03059,84.13629,75,70,40
84.140884,85.01864,76,70,40
85.02324,85.479965,74,70,40
85.48477,86.014885,71,70,40
86.02113,88.71489,68,70,40
90.02715,90.10528,76,70,40
90.13744,90.21557,78,70,40
90.24774,90.32587,76,70,40
90.35803,90.90491,81,70,40
90.9095,90.987625,85,70,40
91.0198,91.09792,83,70,40
91.13009,91.20821,81,70,40
91.24039,91.346085,81,70,40
91.35068,91.4288,80,70,40
91.460976,91.5391,78,70,40
91.571266,91.64939,80,70,40
91.681564,91.75969,81,70,40
91.791855,91.86998,85,70,40
91.902145,91.98027,83,70,40
92.01244,92.09057,81,70,40
92.122734,92.22843,81,70,40
92.23303,92.31116,80,70,40
92.34332,92.42145,78,70,40
92.45362,92.531746,80,70,40
92.56391,92.64204,81,70,40
92.67421,92.752335,85,70,40
92.7845,92.862625,83,70,40
92.8948,92.97292,81,70,40
93.00509,93.11399,81,70,40
93.11873,93.19922,80,70,40
93.23236,93.31669,78,70,40
93.35141,93.43574,76,70,40
93.47046,93.59025,75,70,40
93.59546,93.684,76,70,40
93.72046,93.81705,78,70,40
93.85682,93.963066,80,70,40
94.00682,95.50057,76,70,40
95.924,96.00701,83,70,40
96.04119,96.1242,82,70,40
96.15838,96.24139,83,70,40
96.275566,97.79412,74,70,40
97.799,97.88201,78,70,40
97.91619,97.9992,76,70,40
98.03338,98.11639,74,70,40
98.150566,98.25627,74,70,40
98.260864,98.33899,73,70,40
98.371155,98.44928,71,70,40
98.48145,98.55958,69,70,40
98.59174,98.69744,68,70,40
98.70204,98.78017,69,70,40
98.81233,98.89046,71,70,40
98.92263,99.000755,73,70,40
99.03292,99.13862,69,70,40
99.14322,99.221344,73,70,40
99.25351,99.331635,76,70,40
99.3638,99.441925,76,70,40
99.4741,99.579796,76,70,40
99.58439,99.66251,78,70,40
99.69469,99.77281,76,70,40
99.80498,99.8831,74,70,40
99.915276,100.02097,74,70,40
100.025566,100.10369,73,70,40
100.135864,100.21399,71,70,40
100.246155,100.32428,69,70,40
100.35645,100.46215,68,70,40
100.46674,100.54487,69,70,40
100.577034,100.65516,71,70,40
100.68733,100.76546,73,70,40
100.79762,101.454796,69,70,40
101.45939,101.675385,71,70,40
101.67998,101.89597,73,70,40
101.900566,102.116554,71,70,40
102.121155,102.33714,74,70,40
102.34174,102.55773,73,70,40
102.56233,103.2195,71,70,40
103.22409,103.44009,73,70,40
103.44468,103.660675,74,70,40
103.66527,103.88126,73,70,40
103.88586,104.10185,76,70,40
104.106445,104.32244,74,70,40
104.327034,104.54302,73,70,40
105.31968,105.397804,76,70,40
105.42997,105.508095,78,70,40
105.54027,105.61839,76,70,40
105.65056,106.08714,88,70,40
107.08438,107.162506,76,70,40
107.19468,107.272804,78,70,40
107.30497,107.383095,76,70,40
107.41527,107.851845,88,70,40
108.40791,108.48604,85,70,40
108.5182,108.59633,86,70,40
108.6285,108.70663,85,70,40
108.73879,108.81692,83,70,40
108.84909,108.927216,83,70,40
108.95938,109.037506,85,70,40
109.06968,109.1478,87,70,40
109.17997,109.28567,88,70,40
109.29026,109.368385,87,70,40
109.40056,109.47868,85,70,40
109.51085,109.588974,83,70,40
109.62115,110.16802,81,70,40
110.172615,110.25074,81,70,40
110.28291,110.36104,83,70,40
110.3932,110.47133,81,70,40
110.503494,110.58162,80,70,40
110.61379,110.69192,80,70,40
110.72408,110.80221,81,70,40
110.83438,110.912506,83,70,40
110.94467,111.05037,85,70,40
111.05497,111.133095,83,70,40
111.16526,111.243385,81,70,40
111.27556,111.35368,80,70,40
111.38585,111.932724,78,70,40
111.93732,112.01544,78,70,40
112.047615,112.12574,80,70,40
112.157906,112.23603,78,70,40
112.2682,112.81508,76,70,40
112.81967,112.8978,76,70,40
112.92996,113.00809,78,70,40
113.04026,113.118385,76,70,40
113.15055,113.36655,75,70,40
113.59173,114.46948,78,70,40
114.47408,114.91066,76,70,40
114.91526,114.993385,75,70,40
115.02555,115.13125,83,70,40
115.13585,115.213974,85,70,40
115.24614,115.324265,83,70,40
115.35643,115.434555,82,70,40
115.46673,115.572426,81,70,40
115.57702,115.65514,83,70,40
115.68732,115.76544,81,70,40
115.79761,115.87573,80,70,40
115.907906,116.0136,80,70,40
116.018196,116.09632,81,70,40
116.128494,116.20662,80,70,40
116.238785,116.31691,79,70,40
116.34908,116.45478,79,70,40
116.45937,116.5375,81,70,40
116.569664,116.64779,79,70,40
116.67996,116.89595,78,70,40
117.12114,117.99889,78,70,40
118.00349,118.44007,76,70,40
118.444664,118.52279,75,70,40
118.55496,118.66066,83,72,40
118.66525,118.74338,85,74,40
118.77555,118.853676,83,76,40
118.88584,118.96397,82,78,40
118.99613,119.10184,81,80,40
119.10643,119.184555,83,82,40
119.21672,119.294846,81,84,40
119.32702,119.40514,80,86,40
119.43731,119.54301,80,88,40
119.54761,119.62573,81,90,40
119.6579,119.73602,80,92,40
119.768196,119.84632,79,94,40
119.87849,119.984184,79,96,40
119.988785,120.06691,81,98,40
120.099075,120.1772,79,100,40
120.209366,120.28986,78,110,40
120.323006,120.43191,78,110,40
120.43664,120.54554,81,110,40
120.55028,120.63077,79,110,40
120.66391,120.74692,78,110,40
120.7811,120.8934,78,110,40
120.898285,121.01421,81,110,40
121.01926,121.135185,79,110,40
121.14022,121.37712,78,110,40
122.10796,123.04058,68,50,40
123.04546,123.97808,73,50,40
123.98296,124.91558,66,50,40
124.92046,125.85308,71,50,40
125.85796,126.32183,64,50,40
126.32671,127.25933,69,55,40
127.26421,127.962456,68,65,40
127.96734,128.4312,66,70,40
128.43608,128.89995,64,70,40
128.90483,129.13432,63,70,40
129.1392,129.3101,66,70,40
129.37358,129.54448,71,70,40
129.60796,130.54057,80,70,40
130.54546,131.47807,85,70,40
131.48296,132.41557,78,70,40
132.42046,133.35307,83,70,40
133.35796,133.82182,76,70,40
133.8267,134.75932,81,70,40
134.7642,135.46245,80,70,40
135.46733,135.69682,78,70,40
135.7017,135.9312,76,70,40
135.93608,136.16557,75,70,40
136.17046,136.39995,76,70,40
137.5767,137.8062,73,70,40
137.81108,138.04057,71,70,40
138.04546,138.27495,69,70,40
138.27983,138.50932,68,70,40
139.4517,139.6812,73,70,40
139.68608,139.91557,71,70,40
139.92046,140.14995,69,70,40
140.15483,140.38432,68,70,40
140.3892,140.6187,74,70,40
140.62358,140.85307,73,70,40
140.85796,141.08745,71,70,40
141.09233,141.32182,69,72,40
141.3267,141.5562,78,75,40
141.56108,141.79057,76,78,40
141.79546,142.02495,74,81,40
142.02983,142.25932,73,84,40
142.2642,142.4937,71,86,40
142.49858,142.97742,69,89,40
142.98245,143.4692,68,95,40
143.4744,143.74144,66,100,40
143.74712,143.92941,68,70,40
143.99712,144.16284,66,100,40
144.2244,144.3901,69,70,40
144.45166,144.61739,68,100,40
144.67894,144.84465,73,70,40
144.9062,145.07193,71,100,40
145.13348,145.2992,75,70,40
145.36075,145.52647,76,100,40
145.58803,146.15147,81,100,40
146.1562,146.2651,78,100,40
146.26984,146.37874,75,100,40
146.38348,146.49237,69,100,40
146.49712,146.60602,68,100,40
146.61075,146.69124,71,100,40
146.72438,146.80487,69,100,40
146.83803,146.91852,66,100,40
146.95166,147.06056,64,100,40
147.06529,147.14578,68,100,40
147.17892,147.25941,66,100,40
147.29257,147.37306,63,100,40
147.86075,148.02646,81,70,40
148.08801,148.25374,80,100,40
148.31529,148.481,85,70,40
148.54256,148.71346,83,100,40
148.77693,148.95923,87,70,40
149.02693,149.24568,88,100,40
149.32693,150.57173,90,110,40
150.57693,150.80643,88,90,40
150.81131,151.0408,87,80,40
151.04568,151.27518,85,70,40
151.28006,151.50955,84,50,40
151.51443,151.74393,87,50,40
151.74881,151.9783,88,50,40
151.98318,152.21268,85,50,40
152.21756,152.44705,82,50,40
152.45193,152.68143,85,50,40
152.68631,152.9158,86,50,40
152.92068,153.15018,83,50,40
153.15506,153.38455,80,50,40
153.38943,153.61893,83,50,40
153.62381,153.8533,85,50,40
153.85818,154.08768,81,50,40
154.09256,154.32205,80,50,40
154.32693,154.56383,83,50,40
154.56886,154.81781,78,50,40
154.8231,155.09015,83,50,40
155.09584,155.20815,64,70,40
155.21303,155.29604,68,70,40
155.33022,155.40834,71,70,40
155.4405,155.51863,68,70,40
155.5508,155.62892,76,70,40
155.66109,155.73921,71,70,40
155.7714,155.84952,80,70,40
155.88168,155.95981,76,70,40
155.99197,156.64914,83,70,40
156.65373,156.86974,65,70,40
156.87433,157.09032,66,70,40
157.09491,157.2006,69,70,40
157.2052,157.31091,73,70,40
157.3155,157.4212,78,70,40
157.4258,157.5315,80,70,40
157.53609,157.64178,81,70,40
157.64638,157.75208,83,70,40
157.75668,158.41385,85,70,40
158.41844,158.63443,75,70,40
158.63902,158.74472,64,70,40
158.74933,158.82745,68,70,40
158.85962,158.93774,71,70,40
158.96991,159.04803,68,70,40
159.0802,159.15833,76,70,40
159.1905,159.26863,71,70,40
159.3008,159.37892,80,70,40
159.41109,159.48921,76,70,40
159.52138,160.17854,83,70,40
160.18315,160.39914,65,70,40
160.40373,160.61972,66,70,40
160.62433,160.73003,69,70,40
160.73462,160.84032,73,70,40
160.84491,160.9506,78,70,40
160.9552,161.0609,80,70,40
161.06549,161.17119,81,70,40
161.1758,161.2815,83,70,40
161.28609,161.94325,85,70,40
161.94785,162.16385,75,70,40
162.16844,162.38443,76,70,40
163.27138,163.37708,81,70,40
163.38167,163.48737,78,70,40
163.49196,163.59767,81,70,40
163.60226,163.70796,78,70,40
163.71255,163.81825,81,70,40
163.82285,163.92854,78,70,40
163.93314,164.14914,80,70,40
165.03609,165.14178,78,70,40
165.14638,165.25208,75,70,40
165.25667,165.36237,78,70,40
165.36696,165.47266,75,70,40
165.47726,165.58296,78,70,40
165.58755,165.69325,75,70,40
165.69785,165.91383,76,70,40
166.80078,166.90648,69,70,40
166.91109,167.01678,66,70,40
167.02138,167.12708,69,70,40
167.13167,167.23737,66,70,40
167.24196,167.34766,69,70,40
167.35225,167.45795,66,70,40
167.46255,167.67854,68,70,40
168.56549,168.67119,78,70,40
168.67578,168.78148,75,70,40
168.78607,168.89177,78,70,40
168.89638,169.00208,75,70,40
169.00667,169.11237,78,70,40
169.11696,169.22266,75,70,40
169.22725,169.44325,76,70,40
170.3302,170.4359,78,70,40
170.44049,170.54619,75,70,40
170.55078,170.65648,78,70,40
170.66107,170.76677,75,70,40
170.77136,170.87708,78,70,40
170.88167,170.98737,75,70,40
170.99196,171.20795,76,70,40
172.0949,172.20059,78,70,40
172.20518,172.31088,75,70,40
172.31549,172.42119,78,70,40
172.42578,172.53148,75,70,40
172.53607,172.64177,78,70,40
172.64636,172.75206,75,70,40
172.75667,173.64764,76,70,40
173.65237,174.12366,74,70,40
174.1287,174.6588,71,70,40
174.66505,179.53224,68,100,40
180.92807,181.0062,73,100,40
181.03836,181.11649,74,100,40
181.14865,181.22678,73,100,40
181.25894,181.80582,78,100,40
181.81041,181.88853,81,100,40
181.92072,181.99884,80,100,40
182.031,182.10913,78,100,40
182.1413,182.247,78,125,40
182.25159,182.32971,77,114,40
182.36188,182.44,75,100,40
182.47218,182.55031,77,100,40
182.58247,182.6606,78,100,40
182.69276,182.77089,81,100,40
182.80305,182.88118,80,100,40
182.91336,182.99149,78,100,40
183.02365,183.12935,78,125,40
183.13394,183.21207,77,114,40
183.24423,183.32236,75,100,40
183.35454,183.43266,77,100,40
183.46483,183.54295,78,100,40
183.57512,183.65324,81,100,40
183.68541,183.76353,80,100,40
183.7957,183.87383,78,100,40
183.906,184.0117,78,100,40
184.0163,184.09442,76,100,40
184.12659,184.20471,75,100,40
184.23688,184.315,73,100,40
184.34718,184.42531,72,100,40
184.45747,184.5356,73,100,40
184.56776,184.64589,75,100,40
184.67805,184.75618,76,100,40
184.78836,186.54846,73,110,40
186.55305,186.76904,74,110,40
187.5457,187.62383,81,110,40
187.65599,187.73412,83,110,40
187.7663,187.84442,81,110,40
187.87659,187.95471,86,110,40
187.98688,188.065,90,110,40
188.09717,188.1753,88,110,40
188.20747,188.2856,86,110,40
188.31776,188.42346,86,125,40
188.42805,188.50618,85,114,40
188.53835,188.61647,83,100,40
188.64864,188.72676,85,100,40
188.75894,188.83707,86,100,40
188.86923,188.94736,90,100,40
188.97952,189.05765,88,100,40
189.08981,189.16794,86,100,40
189.20012,189.30582,86,125,40
189.31041,189.38853,85,114,40
189.4207,189.49883,83,100,40
189.53099,189.60912,85,100,40
189.6413,189.71942,86,100,40
189.75159,189.82971,90,100,40
189.86188,189.94,88,100,40
189.97217,190.0503,86,100,40
190.08246,190.18816,86,125,40
190.19276,190.27089,85,114,40
190.30305,190.38118,83,100,40
190.41335,190.49147,85,100,40
190.52364,190.60176,86,100,40
190.63394,190.71207,90,100,40
190.74423,190.82236,88,100,40
190.85452,190.93265,86,100,40
190.96481,191.07051,86,100,40
191.0751,191.15323,85,100,40
191.18541,191.26353,84,100,40
191.2957,191.37383,85,100,40
191.40599,191.51169,85,100,40
191.51628,191.5944,83,100,40
191.62659,191.70471,82,100,40
191.73688,191.815,83,100,40
191.84717,191.95287,83,100,40
191.95746,192.03558,81,100,40
192.06776,192.14589,80,100,40
192.17805,192.25618,81,100,40
192.28835,192.39404,81,100,40
192.39864,192.47676,79,100,40
192.50893,192.58705,78,100,40
192.61923,192.69736,79,100,40
192.72952,192.83522,79,100,40
192.83981,192.91794,78,100,40
192.9501,193.02823,77,100,40
193.06041,193.13853,78,100,40
193.1707,193.2764,78,100,40
193.28099,193.35912,76,100,40
193.39128,193.4694,75,100,40
193.50157,193.5797,76,100,40
193.61188,193.82787,74,100,40
195.48688,195.565,69,100,40
195.59717,195.6753,70,100,40
195.70746,195.78558,69,100,40
195.81775,196.03375,81,100,40
196.36922,196.44734,69,100,40
196.47952,196.55765,70,100,40
196.58981,196.66794,69,100,40
196.7001,196.77823,81,100,40
196.8104,196.88852,81,100,40
196.9207,196.99883,82,100,40
197.03099,197.10912,81,100,40
197.14128,197.35727,86,100,40
197.69275,197.77087,75,120,40
197.80304,197.88116,74,120,40
197.91335,197.99147,75,120,40
198.02364,198.12933,75,120,40
198.13393,198.21205,74,120,40
198.24422,198.32234,73,120,40
198.3545,198.43263,74,120,40
198.46481,198.57051,74,120,40
198.5751,198.65323,72,120,40
198.6854,198.76352,71,120,40
198.79568,198.87381,72,120,40
198.90599,198.98412,73,120,40
199.01628,199.0944,67,120,40
199.12657,199.2047,69,120,40
199.23686,199.31499,67,120,40
199.34717,200.66609,79,120,40
200.67068,200.88669,84,120,40
201.22215,201.30028,74,120,40
201.33246,201.41058,73,120,40
201.44275,201.52087,74,120,40
201.55304,201.65874,74,120,40
201.66333,201.74146,72,120,40
201.77364,201.85176,70,120,40
201.88393,201.96205,72,120,40
201.99422,202.09991,72,120,40
202.1045,202.18263,70,120,40
202.2148,202.29292,69,120,40
202.3251,202.40323,70,120,40
202.4354,202.51352,69,120,40
202.54568,202.62381,69,120,40
202.65598,202.7341,70,120,40
202.76628,202.8444,69,120,40
202.87657,204.1955,81,120,40
204.2001,204.27823,79,120,40
204.3104,204.38852,74,120,40
204.42068,204.49881,76,120,40
204.53098,204.6091,74,120,40
204.64127,205.18814,77,120,40
205.19275,205.27087,76,120,40
205.30304,205.38116,77,120,40
205.41333,205.49146,76,120,40
205.52362,206.0705,79,120,40
206.07509,206.15321,77,120,40
206.1854,206.26352,79,120,40
206.29568,206.37381,77,120,40
206.40598,206.54845,81,120,40
206.62657,206.76443,79,120,40
206.84715,206.98961,78,120,40
207.06773,207.2102,77,120,40
207.28833,207.4262,76,120,40
207.50891,207.64679,75,120,40
207.7295,207.9455,74,120,40
208.28098,208.3591,79,120,40
208.39127,208.46939,81,120,40
208.50156,208.57968,79,120,40
208.61186,209.15874,91,120,40
209.16333,209.24146,79,120,40
209.27362,209.35175,81,120,40
209.38391,209.46204,79,120,40
209.4942,209.59991,91,120,40
209.6045,209.7102,79,120,40
209.7148,209.8205,91,120,40
209.82509,209.93079,79,120,40
209.93538,210.04108,91,120,40
210.04568,210.15138,79,120,40
210.15598,210.26167,91,120,40
210.26627,210.37196,79,120,40
210.37656,210.48225,91,120,40
210.48686,210.59256,79,120,40
210.59715,210.70285,91,120,40
210.70744,210.81314,79,120,40
210.81773,210.92343,91,120,40
210.92802,211.03372,79,120,40
211.03833,211.14723,90,120,40
211.15196,211.26086,79,120,40
211.2656,211.41711,91,120,40
211.49287,211.64912,78,120,40
211.72725,211.88853,79,120,40
211.96918,212.13585,78,120,40
212.21918,212.46397,79,120,40
213.21918,214.1518,64,70,40
214.15668,215.0893,69,70,40
215.09418,216.0268,62,70,40
216.03168,216.61273,67,70,40
216.61761,216.72992,67,50,40
216.7348,216.8471,69,50,40
216.85199,216.9643,67,50,40
216.96918,217.55023,76,50,40
217.55511,217.66742,76,50,40
217.6723,217.7846,77,50,40
217.78949,217.9018,76,50,40
217.90668,218.48773,81,50,40
218.49261,218.60492,81,50,40
218.6098,218.7221,83,50,40
218.72699,218.8393,81,50,40
218.84418,219.42523,79,50,40
219.43011,219.54242,77,50,40
219.5473,219.6596,76,50,40
219.66449,219.7768,74,50,40
219.78168,220.36273,76,50,40
220.36761,220.47992,74,50,40
220.4848,220.5971,72,50,40
220.60199,220.7143,71,50,40
220.71918,220.80219,69,50,40
220.83636,220.94867,64,50,40
220.95355,221.06586,65,50,40
221.07074,221.18304,64,50,40
221.18793,221.76898,69,50,40
221.77386,221.88617,69,50,40
221.89105,222.00336,71,50,40
222.00824,222.12054,69,50,40
222.12543,222.82367,74,50,40
222.82855,222.94086,68,50,40
223.06293,223.17523,69,50,40
223.2973,223.4096,71,50,40
223.53168,223.68793,72,50,40
223.76605,223.9223,74,50,40
224.00043,224.15668,76,50,40
224.2348,224.39105,78,50,40
224.46918,225.05023,79,50,40
225.05511,225.16742,79,50,40
225.1723,225.2846,81,50,40
225.28949,225.4018,79,50,40
225.40668,226.3393,84,50,40
226.34418,226.92523,78,50,40
226.93011,227.04242,78,50,40
227.0473,227.1596,79,50,40
227.16449,227.2768,78,50,40
227.28168,228.33148,83,50,40
228.33636,228.44867,76,50,40
228.45355,228.56586,78,51,40
228.57074,228.68304,76,51,40
228.68793,229.26898,81,52,40
229.27386,229.38617,74,55,40
229.39105,229.50336,76,56,40
229.50824,229.62054,74,57,40
229.62543,230.20648,79,57,40
230.21136,230.32367,72,61,40
230.32855,230.44086,74,61,40
230.44574,230.55804,72,62,40
230.56293,231.14398,77,63,40
231.14886,231.26117,76,66,40
231.26605,231.37836,74,67,40
231.38324,231.49554,72,67,40
231.50043,231.61273,71,68,40
231.61761,231.72992,72,69,40
231.7348,231.8471,69,69,40
231.85199,231.9643,71,70,40
231.96918,232.19867,68,70,40
232.55511,232.66742,76,70,40
232.6723,232.7846,74,70,40
232.78949,232.9018,76,70,40
232.90668,233.48773,77,70,40
233.49261,233.60492,77,70,40
233.6098,233.7221,79,70,40
233.72699,233.8393,77,70,40
233.84418,234.42523,76,70,40
234.43011,234.54242,76,70,40
234.5473,234.6596,77,70,40
234.66449,234.7768,76,70,40
234.78168,234.93793,75,70,40
235.01605,235.1723,75,70,40
235.25043,235.40668,75,70,40
235.4848,235.64105,75,70,40
235.71918,235.94867,76,70,40
236.65668,237.5893,80,70,40
237.59418,238.5268,81,70,40
238.53168,238.70258,84,70,40
238.76605,238.93695,84,70,40
239.00043,239.17133,84,70,40
239.2348,239.4057,84,70,40
239.46918,239.69867,83,70,40
240.05511,240.16742,76,70,40
240.1723,240.2846,77,70,40
240.28949,240.4018,76,70,40
240.40668,240.57758,75,70,40
240.64105,240.81195,75,70,40
240.87543,241.05183,75,70,40
241.11737,241.29965,75,70,40
241.36737,241.59686,76,70,40
242.0705,242.29999,83,70,40
242.30487,242.47577,84,70,40
242.53925,242.71014,84,70,40
242.77362,242.9559,84,70,40
243.02362,243.24237,84,70,40
243.32361,244.51736,83,70,40
244.52362,245.71736,86,70,40
245.72362,249.0908,80,70,40
250.48662,250.56474,76,70,40
250.59691,250.67503,78,70,40
250.70721,250.78534,76,70,40
250.8175,251.36438,81,70,40
251.36897,251.4471,85,70,40
251.47926,251.55739,83,70,40
251.58957,251.6677,81,70,40
251.69986,251.80556,81,70,40
251.81015,251.88828,80,70,40
251.92044,251.99857,78,70,40
252.03073,252.10886,80,70,40
252.14104,252.21916,81,70,40
252.25133,252.32945,85,70,40
252.36162,252.43974,83,70,40
252.47191,252.55003,81,70,40
252.58221,252.68791,81,70,40
252.6925,252.77063,80,70,40
252.8028,252.88092,78,70,40
252.91309,252.99121,80,70,40
253.02338,253.1015,81,70,40
253.13368,253.2118,85,70,40
253.24397,253.3221,83,70,40
253.35426,253.43239,81,70,40
253.46455,253.57025,81,70,40
253.57486,253.65298,80,70,40
253.68515,253.76328,78,70,40
253.79544,253.87357,76,70,40
253.90573,254.01631,75,70,40
254.02112,254.10284,76,70,40
254.1365,254.22505,78,70,40
254.2615,254.36775,80,70,40
254.4115,255.90526,76,70,40
256.3287,256.4117,83,70,40
256.4459,256.5289,82,70,40
256.56308,256.6461,83,70,40
256.68027,258.19882,74,70,40
258.2037,258.2867,78,70,40
258.3209,258.4039,76,70,40
258.43808,258.5211,74,70,40
258.55527,258.66095,74,70,40
258.66556,258.74368,73,70,40
258.77585,258.85397,71,70,40
258.88614,258.96426,69,70,40
258.99643,259.10214,68,70,40
259.10672,259.18484,69,70,40
259.217,259.29514,71,70,40
259.3273,259.40543,73,70,40
259.43762,259.5433,69,70,40
259.5479,259.62604,73,70,40
259.6582,259.73633,76,70,40
259.7685,259.84662,76,70,40
259.87878,259.98447,76,70,40
259.98907,260.0672,78,70,40
260.09937,260.1775,76,70,40
260.20966,260.28778,74,70,40
260.31995,260.42566,74,70,40
260.43027,260.5084,73,70,40
260.54056,260.61868,71,70,40
260.65085,260.72897,69,70,40
260.76114,260.86682,68,70,40
260.87143,260.94955,69,70,40
260.98172,261.05984,71,70,40
261.092,261.17014,73,70,40
261.2023,261.85947,69,70,40
261.86407,262.08008,71,70,40
262.08466,262.30066,73,70,40
262.30524,262.52124,71,70,40
262.52585,262.74182,74,70,40
262.74643,262.96243,73,70,40
262.967,263.62418,71,70,40
263.62878,263.84476,73,70,40
263.84937,264.06537,74,70,40
264.06995,264.28595,73,70,40
264.29056,264.50653,76,70,40
264.51114,264.7271,74,70,40
264.73172,264.8374,73,70,40
264.842,264.92014,69,70,40
264.9523,265.03043,71,70,40
265.0626,265.14072,69,70,40
265.17288,266.6021,81,70,40
266.60672,266.68484,69,70,40
266.717,266.79514,71,70,40
266.8273,266.90543,69,70,40
266.9376,268.03595,81,70,40
268.04053,268.25653,85,70,40
268.26114,268.9183,86,70,40
268.92288,269.1389,88,77,40
269.1435,269.35947,90,80,40
269.36407,269.58005,88,82,40
269.58466,269.80066,91,85,40
269.80524,270.02124,90,87,40
270.02582,270.683,88,90,40
270.6876,270.9036,90,98,40
270.90817,271.1307,91,100,40
271.13547,271.358,90,103,40
271.36273,271.60352,93,105,40
271.60864,271.87567,91,108,40
271.88135,272.09735,90,110,40
272.43283,272.51096,90,70,40
272.54312,272.62125,91,70,40
272.6534,272.73154,90,70,40
272.7637,272.84183,88,70,40
272.874,272.95212,88,70,40
272.98428,273.0624,90,70,40
273.09457,273.1727,92,70,40
273.2049,273.31058,93,70,40
273.3152,273.3933,92,70,40
273.42548,273.5036,90,70,40
273.53577,273.6139,88,70,40
273.64606,274.19293,86,70,40
274.19754,274.27567,86,70,40
274.30783,274.38596,88,70,40
274.41812,274.49625,86,70,40
274.5284,274.60654,81,70,40
274.5284,274.60654,85,70,40
274.6387,274.71683,85,70,40
274.749,274.82712,86,70,40
274.85928,274.9374,88,70,40
274.96957,275.0753,90,70,40
275.0799,275.15802,88,70,40
275.1902,275.2683,86,70,40
275.30048,275.3786,85,70,40
275.41077,275.95764,83,70,40
275.96222,276.04034,83,70,40
276.07254,276.15067,85,70,40
276.18283,276.26096,83,70,40
276.29312,276.84,81,70,40
276.84457,276.9227,81,70,40
276.95486,277.033,83,70,40
277.0652,277.1433,81,70,40
277.17548,277.39145,80,70,40
277.61664,278.4944,83,70,40
278.499,278.93558,81,70,40
278.9402,279.0183,80,70,40
279.05048,279.15616,88,70,40
279.16077,279.26645,90,70,40
279.27106,279.34918,88,70,40
279.38135,279.45947,87,70,40
279.49164,279.59735,86,70,40
279.60193,279.70764,88,70,40
279.71222,279.79034,86,70,40
279.8225,279.90063,85,70,40
279.93283,280.0385,85,70,40
280.04312,280.1488,86,70,40
280.1534,280.23154,85,70,40
280.2637,280.34183,84,70,40
280.374,280.4797,84,70,40
280.48428,280.59,86,70,40
280.59457,280.6727,84,70,40
280.70486,280.92087,83,70,40
281.14606,282.0238,83,70,40
282.0284,282.465,81,70,40
282.46957,282.5477,80,70,40
282.57986,282.68558,88,72,40
282.69016,282.79587,90,74,40
282.80048,282.8786,88,76,40
282.91077,282.9889,87,78,40
283.02106,283.12674,86,80,40
283.13135,283.23703,88,82,40
283.24164,283.31976,86,84,40
283.35193,283.43005,85,86,40
283.46222,283.56793,85,88,40
283.5725,283.67822,86,90,40
283.6828,283.76093,85,92,40
283.79312,283.87125,84,94,40
283.9034,284.0091,84,96,40
284.0137,284.1194,86,98,40
284.124,284.20212,84,100,40
284.23428,284.3148,83,110,40
284.34793,284.45682,83,110,40
284.46155,284.57047,86,110,40
284.5752,284.68408,84,110,40
284.6888,284.77182,83,110,40
284.806,284.9183,83,110,40
284.9232,285.03912,86,110,40
285.04416,285.1601,84,110,40
285.16513,285.40204,83,110,40
286.13287,287.0655,61,50,40
287.07037,288.003,66,50,40
288.00787,288.9405,59,50,40
288.94537,289.878,64,50,40
289.88287,290.34674,58,50,40
290.35162,291.28424,62,55,40
291.28912,291.98737,61,65,40
291.99225,292.45612,59,70,40
292.461,292.92487,57,70,40
292.92975,293.15924,56,70,40
293.16412,293.39362,59,70,40
295.50787,296.4405,83,70,40
296.44537,297.378,88,70,40
297.38287,297.84674,81,70,40
297.85162,298.78424,86,78,40
298.78912,299.48737,85,96,40
299.49225,299.72174,83,70,40
299.72662,299.95612,81,70,40
299.961,300.1905,80,70,40
300.19537,300.42487,81,70,40
301.60162,301.83112,78,70,40
301.836,302.0655,76,70,40
302.07037,302.29987,74,70,40
302.30475,302.53424,73,70,40
303.47662,303.70612,78,70,40
303.711,303.9405,76,70,40
303.94537,304.17487,74,70,40
304.17975,304.40924,73,70,40
304.41412,304.64362,79,70,40
304.6485,304.878,78,70,40
304.88287,305.11237,76,70,40
305.11725,305.34674,74,70,40
305.35162,305.58112,83,70,40
305.586,305.8155,81,73,40
305.82037,306.04987,79,76,40
306.05475,306.28424,78,80,40
306.28912,306.52603,76,83,40
306.53107,307.0099,74,87,40
307.01492,307.51453,73,94,40
307.52002,307.81378,71,100,40
307.82004,307.9867,73,100,40
308.07004,308.2263,71,125,40
308.3044,308.46066,74,100,40
308.5388,308.69504,73,125,40
308.77316,308.9294,78,100,40
309.00754,309.1638,76,125,40
309.2419,309.39816,80,100,40
309.4763,309.63254,81,125,40
309.71066,310.29172,83,125,40
310.2966,310.4089,80,115,40
310.4138,310.5261,76,100,40
310.53098,310.64328,74,100,40
310.64816,310.76047,73,100,40
310.76535,310.84836,76,100,40
310.88254,310.96555,74,100,40
310.99973,311.08273,71,100,40
311.1169,311.22922,69,100,40
311.2341,311.3171,73,100,40
311.3513,311.4343,71,100,40
311.46848,311.55148,68,100,40
312.0544,312.21066,86,100,40
312.2888,312.44504,85,125,40
312.52316,312.68445,90,100,40
312.76508,312.92636,88,125,40
313.00702,313.17368,92,100,40
313.25702,313.45703,93,125,40
313.557,315.05078,95,125,40
315.057,315.30182,93,83,40
315.307,315.55182,92,70,40
315.557,315.80182,90,60,40
315.807,316.0439,89,50,40
316.04895,316.27844,92,50,40
316.28333,316.51282,93,50,40
316.5177,316.7472,90,50,40
316.75208,316.98157,87,50,40
316.98645,317.21594,90,50,40
317.22083,317.45032,91,50,40
317.4552,317.6847,88,50,40
317.68958,317.91907,85,50,40
317.92395,318.15344,88,50,40
318.15833,318.38782,90,50,40
318.3927,318.6222,86,50,40
318.62708,318.86398,85,50,40
318.86902,319.1059,88,50,40
319.11096,319.35574,83,50,40
319.36096,319.628,88,50,40
319.63367,319.73938,69,70,40
319.74396,319.82208,73,70,40
319.85428,319.9324,76,70,40
319.96457,320.0427,73,70,40
320.07486,320.15298,81,70,40
320.18515,320.26328,76,70,40
320.29544,320.37357,85,70,40
320.40573,320.48386,81,70,40
320.51602,321.1732,88,70,40
321.1778,321.3938,70,70,40
321.39838,321.61438,71,70,40
321.61896,321.72467,74,70,40
321.72925,321.83496,78,70,40
321.83957,321.94525,83,70,40
321.94986,322.05554,85,70,40
322.06015,322.16583,86,70,40
322.17044,322.27612,88,70,40
322.28073,322.9379,90,70,40
322.9425,323.15848,68,70,40
323.1631,323.26877,69,70,40
323.27338,323.3515,73,70,40
323.38367,323.4618,76,70,40
323.49396,323.57208,73,70,40
323.60425,323.68237,81,70,40
323.71457,323.7927,76,70,40
323.82486,323.90298,85,70,40
323.93515,324.01328,81,70,40
324.04544,324.7026,88,70,40
324.7072,324.9232,70,70,40
324.9278,325.14377,71,70,40
325.14838,325.2541,74,70,40
325.25867,325.36438,78,70,40
325.36896,325.47467,83,70,40
325.47925,325.58496,85,70,40
325.58954,325.69525,86,70,40
325.69986,325.80554,88,70,40
325.81015,326.46732,90,70,40
326.4719,326.6879,68,70,40
326.6925,326.90848,69,70,40
327.79544,327.90112,74,70,40
327.90573,328.0114,71,70,40
328.01602,328.1217,74,70,40
328.1263,328.23203,71,70,40
328.2366,328.34232,74,70,40
328.3469,328.4526,71,70,40
328.45718,328.6732,73,70,40
329.56015,329.66583,71,70,40
329.67044,329.77612,68,70,40
329.78073,329.8864,71,70,40
329.89102,329.9967,68,70,40
330.0013,330.10703,71,70,40
330.1116,330.21732,68,70,40
330.2219,330.4379,69,70,40
331.32483,331.43054,86,70,40
331.43512,331.54083,83,70,40
331.54544,331.65112,86,70,40
331.65573,331.7614,83,70,40
331.76602,331.8717,86,70,40
331.8763,331.982,83,70,40
331.9866,332.2026,85,70,40
333.08954,333.19525,83,70,40
333.19983,333.30554,80,70,40
333.31012,333.41583,83,70,40
333.42044,333.52612,80,70,40
333.53073,333.6364,83,70,40
333.64102,333.7467,80,70,40
333.7513,333.96732,81,70,40
334.85425,334.95996,71,70,40
334.96454,335.07025,68,70,40
335.07483,335.18054,71,70,40
335.18512,335.29083,68,70,40
335.2954,335.40112,71,70,40
335.40573,335.5114,68,70,40
335.51602,335.732,69,70,40
336.61896,336.72464,71,70,40
336.72925,336.83493,68,70,40
336.83954,336.94525,71,70,40
336.94983,337.05554,68,70,40
337.06012,337.16583,71,70,40
337.1704,337.27612,68,70,40
337.28073,337.3864,74,70,40
337.39102,337.4967,71,72,40
337.5013,337.607,74,75,40
337.6116,337.7173,71,77,40
337.7219,337.82758,74,80,40
337.83218,337.9379,71,82,40
337.94247,338.0482,74,85,40
338.05276,338.15848,71,87,40
338.16306,338.27197,74,90,40
338.2767,338.38562,71,93,40
338.39035,338.49924,74,95,40
338.50397,338.61288,71,98,40
338.6176,338.72992,74,100,40
338.7348,338.8471,71,103,40
338.852,338.96793,74,105,40
338.97296,339.08887,71,108,40
339.09393,339.3099,73,110,40
339.6454,339.7235,76,110,40
339.75568,339.8338,78,110,40
339.86597,339.9441,76,110,40
339.9763,340.52316,81,110,40
340.52774,340.60587,85,110,40
340.63803,340.71616,83,110,40
340.74832,340.82645,81,110,40
340.8586,340.96432,81,110,40
340.96893,341.04706,80,110,40
341.07922,341.15735,78,110,40
341.1895,341.26764,80,110,40
341.2998,341.37793,81,110,40
341.4101,341.48822,85,110,40
341.5204,341.5985,83,110,40
341.63068,341.7088,81,110,40
341.74097,341.84668,81,110,40
341.85126,341.92938,80,110,40
341.96158,342.0397,78,110,40
342.07187,342.15,80,110,40
342.18216,342.26028,81,110,40
342.29245,342.37057,85,110,40
342.40274,342.48087,83,110,40
342.51303,342.59116,81,110,40
342.62332,342.73224,81,110,40
342.73697,342.81744,80,110,40
342.85062,342.9311,78,110,40
342.96423,343.04474,76,110,40
343.07788,343.1938,75,110,40
343.19885,343.28452,76,110,40
343.31982,343.4164,78,110,40
343.45618,343.55276,80,110,40
343.59253,345.08627,76,110,40
345.50616,345.58667,83,70,40
345.6198,345.7003,81,70,40
345.73343,345.81393,79,70,40
345.84708,345.956,79,70,40
345.96072,346.0412,78,70,40
346.07434,346.15485,76,70,40
346.188,346.2685,74,70,40
346.30164,346.41052,73,70,40
346.41525,346.49576,74,70,40
346.5289,346.60938,76,70,40
346.64252,346.72302,78,70,40
346.75616,346.86508,74,70,40
346.8698,346.9503,78,70,40
346.98343,347.06393,81,70,40
347.09708,347.17758,81,70,40
347.21072,347.3196,81,70,40
347.32434,347.43326,83,70,40
347.438,347.54688,81,70,40
347.5516,347.66052,79,70,40
347.66525,347.77417,79,70,40
347.7789,347.85938,78,70,40
347.89252,347.97302,76,70,40
348.00616,348.08667,74,70,40
348.1198,348.2287,73,70,40
348.23343,348.31393,74,70,40
348.34708,348.42755,76,70,40
348.4607,348.5412,78,70,40
348.57434,348.68326,74,70,40
348.688,348.76846,78,70,40
348.8016,348.8821,78,70,40
348.91525,348.99576,78,70,40
349.0289,349.1378,78,70,40
349.14252,349.25143,78,70,40
349.25616,349.36505,76,70,40
349.36978,349.4787,74,70,40
349.48343,349.59235,74,70,40
349.59708,349.67755,73,70,40
349.7107,349.7912,71,70,40
349.82434,349.90485,69,70,40
349.938,350.04688,68,70,40
350.0516,350.1321,69,70,40
350.16525,350.24573,71,70,40
350.27887,350.35938,73,70,40
350.39252,350.50143,69,70,40
350.50616,350.58664,73,70,40
350.61978,350.7003,76,70,40
350.73343,350.81393,76,70,40
350.84708,350.95596,76,70,40
350.9607,351.0696,78,70,40
351.07434,351.18323,76,70,40
351.18796,351.29688,74,70,40
351.3016,351.41052,74,70,40
351.41525,351.49573,73,70,40
351.52887,351.60938,71,70,40
351.64252,351.72302,69,70,40
351.75616,351.86505,68,70,40
351.86978,351.9503,69,70,40
351.98343,352.0639,71,70,40
352.09705,352.17755,73,70,40
352.2107,352.43323,69,70,40
352.77887,352.85938,69,70,40
352.89252,352.973,71,70,40
353.00613,353.08664,69,70,40
353.11978,353.68323,76,70,40
353.68796,353.76846,76,70,40
353.8016,353.88208,74,70,40
353.91522,353.99573,73,70,40
354.02887,354.59232,71,70,40
354.59705,354.67755,71,70,40
354.7107,354.79117,73,70,40
354.8243,354.90482,71,70,40
354.93796,355.5014,74,70,40
355.50613,355.58664,74,70,40
355.61978,355.70026,71,70,40
355.7334,355.8139,68,70,40
355.84705,355.92755,69,100,40
355.9607,356.04117,76,100,40
356.0743,356.15482,78,100,40
356.18796,356.26846,76,100,40
356.3016,356.86505,81,125,40
356.86978,356.95026,76,100,40
356.9834,357.0639,78,100,40
357.09705,357.17755,76,100,40
357.2107,357.77414,81,125,40
357.77887,357.85934,78,100,40
357.8925,357.973,80,100,40
358.00613,358.08664,78,100,40
358.11978,358.6954,86,125,40
358.70035,358.81445,86,100,40
358.8194,358.9335,83,100,40
358.93845,359.05252,81,100,40
359.0575,359.17728,80,100,40
359.1825,359.30228,86,100,40
359.3075,359.43817,83,100,40
359.44385,359.58762,80,100,40
359.59387,359.8876,81,110,40
360.31104,360.42334,64,70,40
360.42822,360.54053,66,70,40
360.5454,360.6577,64,70,40
360.6626,361.5952,74,70,40
361.6001,362.5327,73,70,40
362.5376,363.5516,71,70,40
363.55783,363.8516,69,70,40
364.28284,364.40265,76,70,40
364.40784,364.52765,78,70,40
364.53284,364.65265,76,70,40
364.65784,365.27765,83,70,40
365.28284,365.40265,76,70,40
365.40784,365.52765,78,70,40
365.53284,365.65265,76,70,40
365.65784,366.27765,81,70,40
366.28284,366.40265,76,70,40
366.40784,366.52765,78,70,40
366.53284,366.65265,76,70,40
366.65784,366.77765,80,70,40
366.78284,366.90265,76,70,40
366.90784,367.02765,78,70,40
367.03284,367.15265,76,70,40
367.15784,367.2885,80,70,40
367.29422,367.4249,76,70,40
367.43057,367.5743,78,70,40
367.58057,367.76025,76,70,40
367.76807,368.4442,81,70,40
368.4499,368.58057,76,70,40
368.58624,368.71692,78,70,40
368.72263,368.8533,76,70,40
368.85898,369.53513,85,70,40
369.5408,369.67148,81,78,40
369.67715,369.80783,83,80,40
369.81354,369.9442,81,82,40
369.9499,370.5851,88,84,40
370.59024,370.70807,85,93,40
370.7132,370.831,86,94,40
370.83612,370.95395,85,96,40
370.95908,371.04617,88,98,40
371.08203,371.19986,85,100,40
371.205,371.3228,86,102,40
371.32794,371.44577,85,103,40
371.4509,371.54575,88,105,40
371.5848,371.71317,85,107,40
371.71875,371.85434,86,109,40
371.86026,372.004,85,110,40
372.01025,374.70868,88,110,40
374.7165,379.20868,85,80,40
382.2165,382.39618,69,1,40
0.0,0.105698414,69,1,40
1.874998,1.953123,64,70,40
1.985292,2.063417,66,70,40
2.095586,2.1737108,64,70,40
2.20588,2.4218724,69,70,40
2.426468,2.6424603,73,70,40
2.647056,2.9733424,74,70,40
2.977938,3.0836365,71,70,40
3.088232,3.4145184,73,70,40
3.419114,3.5248125,69,70,40
3.529408,3.8556945,74,70,40
3.86029,3.9659884,71,70,40
3.970584,4.29687,73,70,40
4.301466,4.4071646,69,70,40
4.41176,4.6342974,68,70,40
4.639032,4.8615694,68,70,40
4.866304,5.1031985,69,70,40
5.108239,5.381299,69,70,40
5.387549,6.881299,68,70,40
7.755729,7.836221,71,70,40
7.869365,7.949857,70,70,40
7.983001,8.063493,71,70,40
8.096637,8.773718,62,70,40
8.778453,9.00099,56,70,40
9.005725,9.228262,59,70,40
9.232997,9.455534,62,70,40
9.460269,9.786555,61,70,40
9.791151,9.89685,64,70,40
9.901445,10.227732,62,70,40
10.232327,10.338025,64,70,40
10.342621,10.668907,61,70,40
10.673503,10.7792015,64,70,40
10.783797,11.110084,59,70,40
11.114679,11.220377,64,70,40
11.224973,11.551259,61,70,40
11.555855,11.661553,64,70,40
11.666149,11.992435,62,70,40
11.997031,12.10273,64,70,40
12.107325,12.764493,61,70,40
12.769089,12.985082,68,70,40
12.989677,13.205669,69,70,40
13.210265,13.426257,68,70,40
13.430853,13.646846,71,70,40
13.651441,13.867434,69,70,40
13.872029,14.529198,68,70,40
14.533793,14.749785,70,70,40
14.754381,14.970373,71,70,40
14.974969,15.190962,70,70,40
15.195557,15.41155,73,70,40
15.416145,15.632137,71,70,40
15.636733,15.742432,69,70,40
15.747027,15.825151,64,70,40
15.857321,15.935446,66,70,40
15.967615,16.04574,64,70,40
16.07791,16.51449,76,70,40
17.51173,17.589855,64,70,40
17.622025,17.70015,66,70,40
17.732319,17.810444,64,70,40
17.842613,18.279194,76,70,40
19.276436,19.35456,73,70,40
19.386728,19.464853,74,70,40
19.497023,19.575148,73,70,40
19.607317,20.485073,78,70,40
20.48967,21.036543,76,70,40
21.04114,21.119265,76,70,40
21.151434,21.229557,78,70,40
21.261726,21.339851,76,70,40
21.37202,22.249777,75,70,40
22.254374,22.801247,73,70,40
22.805843,22.883968,73,70,40
22.916138,22.994263,75,70,40
23.02643,23.104555,73,70,40
23.136724,23.6836,71,70,40
23.688194,23.76632,71,70,40
23.798489,23.876614,73,70,40
23.908783,23.986908,71,70,40
24.019077,24.455658,70,70,40
24.460253,24.538378,71,70,40
24.570547,24.676245,71,70,40
24.680841,24.758966,73,70,40
24.791136,24.86926,71,70,40
24.901428,24.979553,70,70,40
25.011723,25.117422,69,70,40
25.122017,25.200142,71,70,40
25.232311,25.310436,69,70,40
25.342606,25.42073,68,70,40
25.4529,25.558598,68,70,40
25.563192,25.641317,69,70,40
25.673487,25.751612,68,70,40
25.783781,25.861906,67,70,40
25.894075,25.999773,67,70,40
26.00437,26.082495,69,70,40
26.114662,26.192787,67,70,40
26.224957,26.440948,66,70,40
26.666134,27.54389,78,70,40
27.548485,27.985065,76,70,40
27.98966,28.067785,75,70,40
28.099955,28.205654,71,70,40
28.210249,28.288374,73,70,40
28.320543,28.398668,71,70,40
28.430838,28.508963,70,70,40
28.54113,28.64683,69,70,40
28.651424,28.72955,71,70,40
28.761719,28.839844,69,70,40
28.872013,28.950138,68,70,40
28.982307,29.088005,68,70,40
29.092602,29.170727,69,70,40
29.202894,29.28102,68,70,40
29.313189,29.391314,67,70,40
29.423483,29.52918,67,70,40
29.533777,29.611902,69,70,40
29.644072,29.722197,67,70,40
29.754366,29.970358,66,70,40
30.195541,31.073298,78,100,40
31.077892,31.514473,76,100,40
31.51907,31.599562,75,110,40
31.632706,31.741606,75,110,40
31.746342,31.858646,78,110,40
31.86353,31.946537,76,110,40
31.980717,32.066402,75,110,40
32.101685,32.21761,75,110,40
32.222652,32.34244,78,110,40
32.347652,32.46744,76,110,40
32.472652,32.71744,75,110,40
34.410152,35.34277,64,50,40
35.347652,36.28027,63,50,40
36.285152,37.21777,62,50,40
37.222652,37.68652,61,50,40
37.691402,38.15527,62,55,40
38.160152,38.62402,63,60,40
38.628902,39.09277,64,65,40
39.097652,39.56152,61,70,40
39.566402,40.03027,61,70,40
40.035152,40.264645,59,70,40
40.972652,41.202145,80,70,40
41.207027,41.43652,78,70,40
41.441402,41.670895,76,70,40
41.675777,41.90527,75,70,40
41.910152,42.139645,73,70,40
42.144527,42.37402,71,70,40
42.378902,42.608395,69,70,40
42.613277,42.84277,68,70,40
42.847652,43.78027,66,70,40
43.785152,44.71777,71,70,40
44.722652,44.952145,64,70,40
45.894527,46.358395,66,70,40
46.363277,46.59277,64,70,40
46.597652,46.827145,61,70,40
46.832027,47.06152,73,70,40
47.066402,47.295895,71,70,40
47.300777,47.53027,69,70,40
47.535152,47.764645,68,70,40
48.003902,48.233395,71,70,40
48.238277,48.46777,69,70,40
48.472652,48.702145,68,70,40
48.707027,48.93652,66,70,40
48.941402,49.170895,63,70,40
49.175777,49.40527,64,70,40
49.410152,49.639645,66,70,40
49.644527,49.87402,68,70,40
49.878902,50.108395,71,70,40
50.113277,50.34277,69,70,40
50.347652,50.577145,68,70,40
50.582027,50.81152,66,70,40
50.816402,51.045895,63,70,40
51.050777,51.28027,64,70,40
51.285152,51.514645,66,70,40
51.519527,51.74902,68,70,40
51.753902,51.983395,65,70,40
51.988277,52.21777,66,70,40
52.222652,52.452145,68,70,40
52.457027,52.68652,69,72,40
52.691402,52.920895,68,75,40
52.925777,53.15527,69,78,40
53.160152,53.389645,71,81,40
53.394527,53.62402,64,84,40
53.628902,53.858395,68,86,40
53.863277,54.10017,64,89,40
54.10521,54.342106,66,92,40
54.347145,54.58404,59,95,40
54.58908,54.833874,64,98,40
54.83908,55.106125,63,100,40
55.581017,55.746735,64,70,40
55.80829,55.974007,64,100,40
56.03556,56.20128,64,70,40
56.262833,56.42855,64,100,40
56.490105,56.655823,69,70,40
56.717377,56.883095,68,100,40
56.94465,57.849,66,100,40
57.853737,58.07627,59,100,40
58.081005,58.303543,61,100,40
58.308277,58.530815,56,100,40
58.53555,58.758087,57,100,40
58.76282,58.928543,68,70,40
58.990093,59.155815,66,100,40
59.217365,59.383087,69,70,40
59.444637,59.61036,68,100,40
59.67191,59.83763,73,70,40
59.89918,60.072792,71,100,40
60.13728,60.31957,69,70,40
60.38728,60.60603,68,100,40
60.68728,60.932068,69,110,40
62.640404,62.869896,78,50,40
62.87478,63.10427,75,50,40
63.109154,63.338646,73,50,40
63.34353,63.807396,76,50,40
63.81228,64.04177,73,50,40
64.04665,64.276146,71,50,40
64.28103,64.744896,74,50,40
64.74978,64.97927,71,50,40
64.98415,65.213646,69,50,40
65.21853,65.44802,73,50,40
65.4529,65.682396,68,50,40
65.68728,65.91677,71,50,40
65.92165,66.16644,69,50,40
66.17165,66.4387,71,50,40
66.44438,66.689644,68,70,40
67.59679,67.75763,62,70,40
67.817375,67.97822,62,70,40
68.03796,68.19881,62,70,40
68.258545,68.47454,61,70,40
69.36149,69.52233,69,70,40
69.58208,69.74292,69,70,40
69.802666,69.96351,69,70,40
70.023254,70.23924,68,70,40
71.12619,71.28704,74,70,40
71.34678,71.50762,74,70,40
71.56737,71.72821,74,70,40
71.78796,72.003944,73,70,40
72.89089,73.05174,69,70,40
73.11148,73.27233,69,70,40
73.33207,73.49292,69,70,40
73.55266,73.768654,68,70,40
74.6556,74.816444,63,70,40
74.87619,75.03703,63,70,40
75.09678,75.25762,63,70,40
75.31736,75.423065,64,70,40
75.42766,75.533356,68,70,40
75.53795,75.64365,71,70,40
75.64825,75.753944,76,70,40
75.75854,75.864235,80,70,40
75.868835,75.94696,76,70,40
75.979126,76.05725,71,70,40
76.089424,76.16755,68,70,40
76.199715,77.07747,69,70,40
77.08207,77.29806,68,70,40
78.185005,78.345856,63,70,40
78.405594,78.566444,63,70,40
78.62618,78.787025,63,70,40
78.84677,78.95247,64,70,40
78.95706,79.06277,68,70,40
79.06736,79.17306,71,70,40
79.17765,79.283356,76,70,40
79.28795,79.39365,80,70,40
79.39824,79.476364,76,70,40
79.50854,79.58666,71,70,40
79.61883,79.69695,68,70,40
79.729126,80.60688,69,70,40
80.61147,80.82747,68,70,40
81.71442,81.820114,69,70,40
81.82471,81.930405,66,70,40
81.935005,82.0407,69,70,40
82.045296,82.15099,66,70,40
82.155594,82.26129,69,70,40
82.265884,82.37158,66,70,40
82.37618,82.59217,68,70,40
83.47912,83.584816,69,70,40
83.58942,83.695114,66,70,40
83.69971,83.805405,69,70,40
83.810005,83.9157,66,70,40
83.920296,84.02599,69,70,40
84.03059,84.13629,66,70,40
84.140884,84.57746,68,70,40
84.58206,85.479965,56,70,40
85.48477,86.014885,59,70,40
86.02113,88.71489,62,70,40
90.46833,90.546455,64,70,40
90.57862,90.656746,66,70,40
90.68891,90.76704,64,70,40
90.79921,91.0152,69,70,40
91.0198,91.23579,73,70,40
91.24039,91.56667,74,70,40
91.571266,91.67696,71,70,40
91.681564,92.00785,73,70,40
92.01244,92.11814,69,70,40
92.122734,92.44902,74,70,40
92.45362,92.55932,71,70,40
92.56391,92.8902,73,70,40
92.8948,93.000496,69,70,40
93.00509,93.22762,68,70,40
93.23236,93.46549,68,70,40
93.47046,93.71525,69,70,40
93.72046,94.00057,69,70,40
94.00682,95.50057,68,70,40
96.39275,96.47576,71,70,40
96.50994,96.59295,70,70,40
96.62713,96.71014,71,70,40
96.744316,97.44256,62,70,40
97.44744,97.67693,56,70,40
97.681816,97.91131,59,70,40
97.91619,98.14568,62,70,40
98.150566,98.47685,61,70,40
98.48145,98.58715,64,70,40
98.59174,98.91803,62,70,40
98.92263,99.02833,64,70,40
99.03292,99.35921,61,70,40
99.3638,99.469505,64,70,40
99.4741,99.800385,59,70,40
99.80498,99.910675,64,70,40
99.915276,100.24156,61,70,40
100.246155,100.35185,64,70,40
100.35645,100.68274,62,70,40
100.68733,100.79303,64,70,40
100.79762,101.454796,61,70,40
101.45939,101.675385,68,70,40
101.67998,101.89597,69,70,40
101.900566,102.116554,68,70,40
102.121155,102.33714,71,70,40
102.34174,102.55773,69,70,40
102.56233,103.2195,68,70,40
103.22409,103.44009,70,70,40
103.44468,103.660675,71,70,40
103.66527,103.88126,70,70,40
103.88586,104.10185,73,70,40
104.106445,104.32244,71,70,40
104.327034,104.43273,69,70,40
104.437325,104.51545,64,70,40
104.54762,104.62575,66,70,40
104.65791,104.73604,64,70,40
104.76821,105.20479,76,70,40
106.202034,106.28016,64,70,40
106.312325,106.39045,66,70,40
106.42262,106.50075,64,70,40
106.53291,106.9695,76,70,40
107.966736,108.04486,73,70,40
108.07703,108.15515,74,70,40
108.187325,108.26545,73,70,40
108.297615,109.17538,78,70,40
109.17997,109.726845,76,70,40
109.73144,109.80956,76,70,40
109.841736,109.91986,78,70,40
109.95203,110.03015,76,70,40
110.062325,110.94008,75,70,40
110.94467,111.49155,73,70,40
111.49615,111.57427,73,70,40
111.60644,111.68456,75,70,40
111.71673,111.79485,73,70,40
111.82703,112.3739,71,70,40
112.378494,112.45662,71,70,40
112.48879,112.56692,73,70,40
112.59908,112.67721,71,70,40
112.70938,113.14596,70,70,40
113.15055,113.228676,71,70,40
113.26085,113.36655,71,70,40
113.37114,113.449265,73,70,40
113.48144,113.55956,71,70,40
113.59173,113.66985,70,70,40
113.70203,113.807724,69,70,40
113.81232,113.89044,71,70,40
113.922615,114.00074,69,70,40
114.032906,114.11103,68,70,40
114.143196,114.2489,68,70,40
114.253494,114.33162,69,70,40
114.363785,114.44191,68,70,40
114.47408,114.55221,67,70,40
114.58437,114.69007,67,70,40
114.69467,114.7728,69,70,40
114.80496,114.88309,67,70,40
114.91526,115.13125,66,70,40
115.35643,116.23419,78,70,40
116.238785,116.67537,76,70,40
116.67996,116.75809,75,70,40
116.79025,116.89595,71,70,40
116.90055,116.978676,73,70,40
117.01084,117.08897,71,70,40
117.12114,117.199265,70,70,40
117.23143,117.33713,69,70,40
117.34173,117.41985,71,70,40
117.45202,117.53014,69,70,40
117.56232,117.64044,68,70,40
117.67261,117.778305,68,70,40
117.7829,117.86102,69,70,40
117.893196,117.97132,68,70,40
118.00349,118.08161,67,70,40
118.113785,118.21948,67,70,40
118.224075,118.3022,69,70,40
118.33437,118.4125,67,70,40
118.444664,118.66066,66,70,40
118.88584,119.763596,78,100,40
119.768196,120.20477,76,100,40
120.209366,120.28986,75,110,40
120.323006,120.43191,75,110,40
120.43664,120.54554,78,110,40
120.55028,120.63077,76,110,40
120.66391,120.74692,75,110,40
120.7811,120.8934,75,110,40
120.898285,121.01421,78,110,40
121.01926,121.135185,76,110,40
121.14022,121.37712,75,110,40
123.04546,123.97808,64,50,40
123.98296,124.91558,63,50,40
124.92046,125.85308,62,50,40
125.85796,126.32183,61,50,40
126.32671,126.79058,62,55,40
126.79546,127.25933,63,60,40
127.26421,127.72808,64,65,40
127.73296,128.19682,61,70,40
128.2017,128.66557,61,70,40
128.67046,128.89995,59,70,40
129.60796,129.83745,80,70,40
129.84233,130.07182,78,70,40
130.0767,130.3062,76,70,40
130.31108,130.54057,75,70,40
130.54546,130.77495,73,70,40
130.77983,131.00932,71,70,40
131.0142,131.2437,69,70,40
131.24858,131.47807,68,70,40
131.48296,132.41557,66,70,40
132.42046,133.35307,71,70,40
133.35796,133.58745,64,70,40
134.52983,134.9937,66,70,40
134.99858,135.22807,64,70,40
135.23296,135.46245,61,70,40
135.46733,135.69682,73,70,40
135.7017,135.9312,71,70,40
135.93608,136.16557,69,70,40
136.17046,136.39995,68,70,40
136.6392,136.8687,71,70,40
136.87358,137.10307,69,70,40
137.10796,137.33745,68,70,40
137.34233,137.57182,66,70,40
137.5767,137.8062,63,70,40
137.81108,138.04057,64,70,40
138.04546,138.27495,66,70,40
138.27983,138.50932,68,70,40
138.5142,138.7437,71,70,40
138.74858,138.97807,69,70,40
138.98296,139.21245,68,70,40
139.21733,139.44682,66,70,40
139.4517,139.6812,63,70,40
139.68608,139.91557,64,70,40
139.92046,140.14995,66,70,40
140.15483,140.38432,68,70,40
140.3892,140.6187,65,70,40
140.62358,140.85307,66,70,40
140.85796,141.08745,68,70,40
141.09233,141.32182,69,72,40
141.3267,141.5562,68,75,40
141.56108,141.79057,69,78,40
141.79546,142.02495,71,81,40
142.02983,142.25932,64,84,40
142.2642,142.4937,68,86,40
142.49858,142.73549,64,89,40
142.74052,142.97742,66,92,40
142.98245,143.21936,59,95,40
143.2244,143.4692,64,98,40
143.4744,143.74144,63,100,40
144.2244,144.3901,64,70,40
144.45166,144.61739,64,100,40
144.67894,144.84465,64,70,40
144.9062,145.07193,64,100,40
145.13348,145.2992,69,70,40
145.36075,145.52647,68,100,40
145.58803,146.49237,66,100,40
146.49712,146.71965,59,100,40
146.72438,146.94691,61,100,40
146.95166,147.1742,56,100,40
147.17892,147.40146,57,100,40
147.4062,147.57191,68,70,40
147.63347,147.7992,66,100,40
147.86075,148.02646,69,70,40
148.08801,148.25374,68,100,40
148.31529,148.481,73,70,40
148.54256,148.71346,71,100,40
148.77693,148.95923,69,70,40
149.02693,149.24568,68,100,40
149.32693,149.57173,69,110,40
151.28006,151.50955,78,50,40
151.51443,151.74393,75,50,40
151.74881,151.9783,73,50,40
151.98318,152.44705,76,50,40
152.45193,152.68143,73,50,40
152.68631,152.9158,71,50,40
152.92068,153.38455,74,50,40
153.38943,153.61893,71,50,40
153.62381,153.8533,69,50,40
153.85818,154.08768,73,50,40
154.09256,154.32205,68,50,40
154.32693,154.56383,71,50,40
154.56886,154.81781,69,50,40
154.8231,155.09015,71,50,40
155.09584,155.32533,68,70,40
156.21255,156.37341,62,70,40
156.43315,156.594,62,70,40
156.65373,156.81459,62,70,40
156.87433,157.09032,61,70,40
157.97726,158.1381,69,70,40
158.19786,158.3587,69,70,40
158.41844,158.57928,69,70,40
158.63902,158.85503,68,70,40
159.74197,159.90282,74,70,40
159.96255,160.1234,74,70,40
160.18315,160.344,74,70,40
160.40373,160.61972,73,70,40
161.50667,161.66753,69,70,40
161.72726,161.8881,69,70,40
161.94785,162.10869,69,70,40
162.16844,162.38443,68,70,40
163.27138,163.43222,63,70,40
163.49196,163.65282,63,70,40
163.71255,163.8734,63,70,40
163.93314,164.03883,64,70,40
164.04344,164.14914,68,70,40
164.15373,164.25943,71,70,40
164.26402,164.36972,76,70,40
164.37431,164.48001,80,70,40
164.4846,164.56273,76,70,40
164.59491,164.67303,71,70,40
164.7052,164.78333,68,70,40
164.81549,165.69325,69,70,40
165.69785,165.91383,68,70,40
166.80078,166.96162,63,70,40
167.02138,167.18222,63,70,40
167.24196,167.4028,63,70,40
167.46255,167.56825,64,70,40
167.57285,167.67854,68,70,40
167.68314,167.78883,71,70,40
167.79343,167.89912,76,70,40
167.90373,168.00943,80,70,40
168.01402,168.09215,76,70,40
168.12431,168.20244,71,70,40
168.2346,168.31273,68,70,40
168.3449,169.22266,69,70,40
169.22725,169.44325,68,70,40
170.3302,170.4359,69,70,40
170.44049,170.54619,66,70,40
170.55078,170.65648,69,70,40
170.66107,170.76677,66,70,40
170.77136,170.87708,69,70,40
170.88167,170.98737,66,70,40
170.99196,171.20795,68,70,40
172.0949,172.20059,69,70,40
172.20518,172.31088,66,70,40
172.31549,172.42119,69,70,40
172.42578,172.53148,66,70,40
172.53607,172.64177,69,70,40
172.64636,172.75206,66,70,40
172.75667,173.19324,68,70,40
173.19783,174.12366,56,70,40
174.1287,174.6588,59,70,40
174.66505,176.15724,62,100,40
176.16505,179.53224,61,100,40
181.36923,181.44736,61,100,40
181.47954,181.55766,62,100,40
181.58983,181.66795,61,100,40
181.70012,181.9161,66,100,40
181.92072,182.1367,69,100,40
182.1413,182.57788,71,125,40
182.58247,183.01906,69,100,40
183.02365,183.46024,71,125,40
183.46483,183.90141,69,100,40
183.906,184.06685,64,100,40
184.12659,184.28743,68,100,40
184.34718,184.50803,68,100,40
184.56776,184.7286,68,100,40
184.78836,185.6661,68,110,40
185.6707,186.54846,67,110,40
186.55305,186.76904,66,110,40
187.10452,187.18265,69,110,40
187.21483,187.29295,71,110,40
187.32512,187.40324,69,110,40
187.43541,187.6514,74,110,40
187.65599,188.09258,66,110,40
188.09717,188.31317,69,110,40
188.31776,188.64404,67,125,40
188.64864,188.75435,69,100,40
188.75894,189.08522,66,100,40
189.08981,189.19551,69,100,40
189.20012,189.5264,67,125,40
189.53099,189.63669,69,100,40
189.6413,189.96758,66,100,40
189.97217,190.07787,69,100,40
190.08246,190.40875,67,125,40
190.41335,190.51904,69,100,40
190.52364,190.73964,66,100,40
190.74423,190.96022,78,100,40
190.96481,191.4014,79,100,40
191.40599,191.84258,78,100,40
191.84717,192.28375,76,100,40
192.28835,193.1661,74,100,40
193.1707,193.60728,73,100,40
193.61188,193.71758,69,100,40
193.72217,193.8003,74,100,40
193.83246,193.91058,73,100,40
193.94275,194.02087,74,100,40
194.05305,194.15875,74,100,40
194.16335,194.24147,77,100,40
194.27364,194.35176,76,100,40
194.38393,194.46205,74,100,40
194.49423,194.59993,74,100,40
194.60452,194.68265,72,100,40
194.71481,194.79294,71,100,40
194.8251,194.90323,72,100,40
194.9354,195.04109,72,100,40
195.0457,195.12383,70,100,40
195.15599,195.23412,69,100,40
195.26628,195.3444,70,100,40
195.37657,195.48227,70,100,40
195.48688,195.565,69,100,40
195.59717,195.6753,68,100,40
195.70746,195.78558,69,100,40
195.81775,195.92345,69,100,40
195.92804,196.00616,67,100,40
196.03835,196.11647,66,100,40
196.14864,196.22676,67,100,40
196.25893,196.36462,67,100,40
196.36922,196.44734,65,100,40
196.47952,196.55765,64,100,40
196.58981,196.66794,65,100,40
196.7001,196.8058,65,100,40
196.8104,196.88852,64,100,40
196.9207,196.99883,62,100,40
197.03099,197.10912,64,100,40
197.14128,197.35727,62,100,40
199.45746,199.53558,69,120,40
199.56775,199.64587,68,120,40
199.67804,199.75616,69,120,40
199.78833,199.89404,69,120,40
199.89864,199.97676,67,120,40
200.00893,200.08705,66,120,40
200.11922,200.19734,67,120,40
200.2295,200.3352,67,120,40
200.33981,200.41794,65,120,40
200.4501,200.52823,64,120,40
200.5604,200.63852,65,120,40
200.67068,200.88669,64,120,40
202.98686,203.06499,76,120,40
203.09715,203.17528,75,120,40
203.20746,203.28558,76,120,40
203.31775,203.42345,76,120,40
203.42804,203.50616,74,120,40
203.53833,203.61646,73,120,40
203.64862,203.72675,74,120,40
203.75893,203.86462,74,120,40
203.86922,203.94734,72,120,40
203.9795,204.05763,71,120,40
204.0898,204.16792,72,120,40
204.2001,204.27823,71,120,40
204.3104,204.38852,71,120,40
204.42068,204.49881,72,120,40
204.53098,204.6091,71,120,40
204.64127,205.18814,74,120,40
205.19275,205.27087,72,120,40
205.30304,205.38116,74,120,40
205.41333,205.49146,72,120,40
205.52362,206.0705,76,120,40
206.07509,206.15321,74,120,40
206.1854,206.26352,76,120,40
206.29568,206.37381,74,120,40
206.40598,206.54384,77,120,40
206.62657,206.75984,76,120,40
206.84715,206.98502,75,120,40
207.06773,207.20102,74,120,40
207.28833,207.4262,73,120,40
207.50891,207.64218,72,120,40
207.7295,207.8352,71,120,40
207.8398,207.91792,74,120,40
207.95009,208.02821,76,120,40
208.0604,208.13852,74,120,40
208.17068,208.71756,77,120,40
208.72215,208.80028,76,120,40
208.83244,208.91057,77,120,40
208.94273,209.02086,76,120,40
209.05304,209.59991,79,120,40
209.6045,209.68263,77,120,40
209.7148,209.79292,80,120,40
209.82509,209.90321,77,120,40
209.93538,210.08244,81,120,40
210.15598,210.30302,80,120,40
210.37656,210.52362,78,120,40
210.59715,210.7442,77,120,40
210.81773,210.9648,76,120,40
211.03833,211.18983,75,120,40
211.2656,211.41711,74,120,40
211.49287,211.64912,72,120,40
211.72725,211.88853,71,120,40
211.96918,212.13585,72,120,40
212.21918,212.46397,71,120,40
213.21918,215.0893,60,70,40
215.09418,216.0268,59,70,40
216.03168,216.26117,60,70,40
217.08636,217.19867,67,50,40
217.20355,217.31586,69,50,40
217.32074,217.43304,67,50,40
217.43793,218.01898,72,50,40
218.02386,218.13617,72,50,40
218.14105,218.25336,74,50,40
218.25824,218.37054,72,50,40
218.37543,219.07367,77,50,40
219.07855,219.2348,59,50,40
219.31293,219.46918,60,50,40
219.5473,219.70355,62,50,40
219.78168,219.93793,64,50,40
220.01605,220.1723,68,50,40
220.25043,220.40668,69,50,40
220.4848,220.64105,71,50,40
220.71918,221.30023,72,50,40
221.30511,221.41742,72,50,40
221.4223,221.5346,74,50,40
221.53949,221.6518,72,50,40
221.65668,222.23773,77,50,40
222.24261,222.35492,77,50,40
222.3598,222.4721,79,50,40
222.47699,222.5893,77,50,40
222.59418,223.17523,76,50,40
223.18011,223.29242,74,50,40
223.2973,223.4096,72,50,40
223.41449,223.5268,71,50,40
223.53168,223.64398,72,50,40
223.64886,223.76117,71,50,40
223.76605,223.87836,69,50,40
223.88324,223.99554,68,50,40
224.00043,224.11273,69,50,40
224.11761,224.22992,73,50,40
224.2348,224.3471,71,50,40
224.35199,224.4643,69,50,40
224.46918,224.55219,67,50,40
224.58636,224.69867,71,50,40
224.70355,224.81586,72,50,40
224.82074,224.93304,71,50,40
224.93793,225.98773,76,50,40
225.99261,226.10492,76,50,40
226.1098,226.2221,78,50,40
226.22699,226.3393,76,50,40
226.34418,227.2768,75,50,40
227.28168,227.86273,74,50,40
227.86761,227.97992,74,50,40
227.9848,228.0971,76,50,40
228.10199,228.2143,74,50,40
228.21918,228.68304,73,50,40
228.68793,228.80023,72,52,40
228.80511,228.91742,72,53,40
228.9223,229.0346,74,53,40
229.03949,229.1518,72,54,40
229.15668,229.73773,71,55,40
229.74261,229.85492,70,58,40
229.8598,229.9721,72,59,40
229.97699,230.0893,70,59,40
230.09418,230.67523,69,60,40
230.68011,230.79242,69,63,40
230.7973,230.9096,68,64,40
230.91449,231.0268,69,65,40
231.03168,231.18793,71,65,40
231.26605,231.72992,65,67,40
231.7348,231.9643,66,69,40
231.96918,232.19867,64,70,40
232.90668,233.8393,68,70,40
233.84418,234.7768,69,70,40
234.78168,234.93793,72,70,40
235.01605,235.1723,72,70,40
235.25043,235.40668,72,70,40
235.4848,235.64105,72,70,40
235.71918,235.94867,71,70,40
236.30511,236.41742,64,70,40
236.4223,236.5346,63,70,40
236.53949,236.6518,64,70,40
236.65668,237.23773,65,70,40
237.24261,237.35492,65,70,40
237.3598,237.4721,67,70,40
237.47699,237.5893,65,70,40
237.59418,238.17523,64,70,40
238.18011,238.29242,64,70,40
238.2973,238.4096,65,70,40
238.41449,238.5268,64,70,40
238.53168,238.70258,63,70,40
238.76605,238.93695,63,70,40
239.00043,239.17133,63,70,40
239.2348,239.4057,63,70,40
239.46918,239.69867,64,70,40
240.1723,240.4018,71,70,40
240.40668,240.57758,72,70,40
240.64105,240.81195,72,70,40
240.87543,241.05183,72,70,40
241.11737,241.29965,72,70,40
241.36737,241.59686,71,70,40
241.95331,242.06561,64,70,40
242.0705,242.1828,65,70,40
242.18768,242.29999,64,70,40
242.30487,242.47577,63,70,40
242.53925,242.71014,63,70,40
242.77362,242.9559,63,70,40
243.02362,243.24237,63,70,40
243.32361,244.51736,64,70,40
244.52362,245.71736,68,70,40
245.72362,249.0908,71,70,40
250.9278,251.00592,64,70,40
251.03809,251.11621,66,70,40
251.14839,251.22652,64,70,40
251.25868,251.47467,69,70,40
251.47926,251.69527,73,70,40
251.69986,252.02614,74,70,40
252.03073,252.13643,71,70,40
252.14104,252.46732,73,70,40
252.47191,252.5776,69,70,40
252.58221,252.9085,74,70,40
252.91309,253.01878,71,70,40
253.02338,253.34967,73,70,40
253.35426,253.45996,69,70,40
253.46455,253.68056,68,70,40
253.68515,253.90114,68,70,40
253.90573,254.1317,69,70,40
254.1365,254.40526,69,70,40
254.4115,255.90526,68,70,40
256.79745,256.88046,71,70,40
256.91464,256.99765,70,70,40
257.03183,257.11484,71,70,40
257.14902,257.84726,62,70,40
257.85214,258.08163,56,70,40
258.08652,258.316,59,70,40
258.3209,258.55038,62,70,40
258.55527,258.88153,61,70,40
258.88614,258.99182,64,70,40
258.99643,259.32272,62,70,40
259.3273,259.433,64,70,40
259.43762,259.7639,61,70,40
259.7685,259.87418,64,70,40
259.87878,260.20508,59,70,40
260.20966,260.31537,64,70,40
260.31995,260.64624,61,70,40
260.65085,260.75653,64,70,40
260.76114,261.08743,62,70,40
261.092,261.19772,64,70,40
261.2023,261.85947,61,70,40
261.86407,262.08008,68,70,40
262.08466,262.30066,69,70,40
262.30524,262.52124,68,70,40
262.52585,262.74182,71,70,40
262.74643,262.96243,69,70,40
262.967,263.62418,68,70,40
263.62878,263.84476,70,70,40
263.84937,264.06537,71,70,40
264.06995,264.28595,70,70,40
264.29056,264.50653,73,70,40
264.51114,264.7271,71,70,40
264.73172,264.94772,69,70,40
268.26114,268.9183,74,70,40
268.92288,269.1389,73,77,40
269.1435,269.35947,74,80,40
269.36407,269.58005,73,82,40
269.58466,269.80066,76,85,40
269.80524,270.02124,74,87,40
270.02582,270.683,73,90,40
270.6876,270.9036,74,98,40
270.90817,271.1307,76,100,40
271.13547,271.358,74,103,40
271.36273,271.60352,78,105,40
271.60864,271.87567,76,108,40
271.88135,271.98706,74,110,40
271.99164,272.06976,78,70,40
272.10193,272.18005,79,70,40
272.21225,272.29037,78,70,40
272.32254,273.2003,83,70,40
273.2049,273.75177,81,70,40
273.75635,273.83447,81,70,40
273.86664,273.94476,83,70,40
273.97693,274.05505,81,70,40
274.08725,274.965,80,70,40
274.96957,275.51645,78,70,40
275.52106,275.59918,78,70,40
275.63135,275.70947,80,70,40
275.74164,275.81976,78,70,40
275.85193,276.3988,76,70,40
276.4034,276.48154,76,70,40
276.5137,276.59183,78,70,40
276.624,276.70212,76,70,40
276.73428,277.17087,75,70,40
277.17548,277.2536,76,70,40
277.28577,277.39145,76,70,40
277.39606,277.50174,78,70,40
277.50635,277.58447,76,70,40
277.61664,277.69476,75,70,40
277.72693,277.83264,74,70,40
277.83722,277.94293,76,70,40
277.9475,278.02563,74,70,40
278.05783,278.13596,73,70,40
278.16812,278.2738,73,70,40
278.2784,278.3841,74,70,40
278.3887,278.46683,73,70,40
278.499,278.57712,72,70,40
278.60928,278.715,72,70,40
278.71957,278.8253,74,70,40
278.82986,278.908,72,70,40
278.9402,279.15616,71,70,40
279.38135,280.2591,83,70,40
280.2637,280.7003,81,70,40
280.70486,280.783,80,70,40
280.81516,280.92087,76,70,40
280.92548,281.03116,78,70,40
281.03577,281.1139,76,70,40
281.14606,281.22418,75,70,40
281.25635,281.36203,74,70,40
281.36664,281.47235,76,70,40
281.47693,281.55505,74,70,40
281.58722,281.66534,73,70,40
281.6975,281.80322,73,70,40
281.8078,281.9135,74,70,40
281.91812,281.99625,73,70,40
282.0284,282.10654,72,70,40
282.1387,282.2444,72,70,40
282.249,282.35468,74,70,40
282.35928,282.4374,72,70,40
282.46957,282.68558,71,70,40
282.91077,283.7885,83,78,40
283.79312,284.22968,81,94,40
284.23428,284.3148,80,110,40
284.34793,284.45682,80,110,40
284.46155,284.57047,83,110,40
284.5752,284.68408,81,110,40
284.6888,284.77182,80,110,40
284.806,284.9183,80,110,40
284.9232,285.03912,83,110,40
285.04416,285.1601,81,110,40
285.16513,285.40204,80,110,40
287.07037,288.003,57,50,40
288.00787,288.9405,56,50,40
288.94537,289.878,58,50,40
289.88287,290.34674,61,50,40
290.35162,291.28424,59,55,40
291.28912,291.753,57,65,40
291.75787,291.98737,66,70,40
292.22662,292.45612,66,70,40
292.69537,292.92487,59,70,40
293.3985,293.628,64,70,40
293.63287,294.5655,73,70,40
294.57037,295.503,78,70,40
295.50787,295.73737,71,70,40
295.74225,295.97174,81,70,40
295.97662,296.20612,80,70,40
296.211,296.4405,78,70,40
296.44537,296.67487,76,70,40
296.67975,296.90924,74,70,40
296.91412,297.14362,73,70,40
297.1485,297.378,71,70,40
297.38287,297.61237,69,70,40
298.55475,299.01862,71,92,40
299.0235,299.253,69,100,40
299.25787,299.48737,66,70,40
299.49225,299.72174,66,70,40
299.72662,299.95612,64,70,40
299.961,300.1905,62,70,40
300.19537,300.42487,61,70,40
300.66412,300.89362,76,70,40
300.8985,301.128,74,70,40
301.13287,301.36237,73,70,40
301.36725,301.59674,71,70,40
301.60162,301.83112,68,70,40
301.836,302.0655,69,70,40
302.07037,302.29987,71,70,40
302.30475,302.53424,73,70,40
302.53912,302.76862,76,70,40
302.7735,303.003,74,70,40
303.00787,303.23737,73,70,40
303.24225,303.47174,71,70,40
303.47662,303.70612,68,70,40
303.711,303.9405,69,70,40
303.94537,304.17487,71,70,40
304.17975,304.40924,73,70,40
304.41412,304.64362,70,70,40
304.6485,304.878,71,70,40
304.88287,305.11237,73,70,40
305.11725,305.34674,74,70,40
305.35162,305.58112,73,70,40
305.586,305.8155,74,73,40
305.82037,306.52603,69,76,40
306.53107,306.76794,69,87,40
306.773,307.0099,64,90,40
307.01492,307.25183,64,94,40
307.25687,307.51453,69,97,40
307.52002,307.81378,68,100,40
308.3044,308.46066,69,100,40
308.5388,308.69504,69,125,40
308.77316,308.9294,69,100,40
309.00754,309.1638,69,125,40
309.2419,309.39816,62,100,40
309.4763,309.63254,61,125,40
309.71066,310.76535,64,125,40
310.88254,311.11203,66,100,40
311.1169,311.3464,61,100,40
311.3513,311.58078,62,100,40
311.58566,311.7419,73,100,40
311.82004,311.9763,71,125,40
312.0544,312.21066,69,100,40
312.2888,312.44504,69,125,40
312.52316,312.68445,69,100,40
312.76508,312.92636,69,125,40
313.00702,313.17368,74,100,40
313.25702,313.45703,73,125,40
313.557,313.85077,73,125,40
315.807,316.0439,83,50,40
316.04895,316.27844,80,50,40
316.28333,316.51282,78,50,40
316.5177,316.98157,81,50,40
316.98645,317.21594,78,50,40
317.22083,317.45032,76,50,40
317.4552,317.91907,79,50,40
317.92395,318.15344,76,50,40
318.15833,318.38782,74,50,40
318.3927,318.6222,78,50,40
318.62708,318.86398,73,50,40
318.86902,319.1059,76,50,40
319.11096,319.35574,74,50,40
319.36096,319.628,76,50,40
319.63367,319.84967,73,70,40
320.7366,320.89746,67,70,40
320.9572,321.11804,67,70,40
321.1778,321.33862,67,70,40
321.39838,321.61438,66,70,40
322.5013,322.66217,62,70,40
322.7219,322.88275,62,70,40
322.9425,323.10333,62,70,40
323.1631,323.3791,61,70,40
324.26602,324.42688,79,70,40
324.4866,324.64746,79,70,40
324.7072,324.86804,79,70,40
324.9278,325.14377,78,70,40
326.03073,326.19156,74,70,40
326.2513,326.41217,74,70,40
326.4719,326.63275,74,70,40
326.6925,326.90848,73,70,40
327.79544,327.95627,56,70,40
328.01602,328.17688,56,70,40
328.2366,328.39746,56,70,40
328.45718,328.5629,57,70,40
328.5675,328.6732,61,70,40
328.6778,328.78348,64,70,40
328.7881,328.89377,69,70,40
328.89838,329.00406,73,70,40
329.00867,329.0868,69,70,40
329.11896,329.19708,64,70,40
329.22925,329.30737,61,70,40
329.33954,330.21732,62,70,40
330.2219,330.4379,61,70,40
331.32483,331.4857,68,70,40
331.54544,331.70627,68,70,40
331.76602,331.92685,68,70,40
331.9866,332.09232,69,70,40
332.0969,332.2026,73,70,40
332.20718,332.3129,76,70,40
332.31747,332.4232,81,70,40
332.42776,332.53348,85,70,40
332.5381,332.6162,81,70,40
332.64838,332.7265,76,70,40
332.75867,332.8368,73,70,40
332.86896,333.7467,74,70,40
333.7513,333.96732,73,70,40
334.85425,334.95996,59,70,40
334.96454,335.07025,56,70,40
335.07483,335.18054,59,70,40
335.18512,335.29083,56,70,40
335.2954,335.40112,59,70,40
335.40573,335.5114,56,70,40
335.51602,335.732,61,70,40
336.61896,336.72464,59,70,40
336.72925,336.83493,56,70,40
336.83954,336.94525,59,70,40
336.94983,337.05554,56,70,40
337.06012,337.16583,59,70,40
337.1704,337.27612,56,70,40
337.28073,337.3864,71,70,40
337.39102,337.4967,68,72,40
337.5013,337.607,71,75,40
337.6116,337.7173,68,77,40
337.7219,337.82758,71,80,40
337.83218,337.9379,68,82,40
337.94247,338.0482,71,85,40
338.05276,338.15848,68,87,40
338.16306,338.27197,71,90,40
338.2767,338.38562,68,93,40
338.39035,338.49924,71,95,40
338.50397,338.61288,68,98,40
338.6176,338.72992,71,100,40
338.7348,338.8471,68,103,40
338.852,338.96793,71,105,40
338.97296,339.08887,68,108,40
339.09393,339.3099,69,110,40
340.08658,340.1647,64,110,40
340.19687,340.275,66,110,40
340.30716,340.38528,64,110,40
340.41745,340.63345,69,110,40
340.63803,340.85403,73,110,40
340.8586,341.1849,74,110,40
341.1895,341.2952,71,110,40
341.2998,341.6261,73,110,40
341.63068,341.7364,69,110,40
341.74097,342.06726,74,110,40
342.07187,342.17755,71,110,40
342.18216,342.50845,73,110,40
342.51303,342.61874,69,110,40
342.62332,342.84586,68,110,40
342.85062,343.07315,68,110,40
343.07788,343.31476,69,110,40
343.31982,343.58685,69,110,40
343.59253,345.08627,68,110,40
346.30164,346.6378,67,70,40
346.64252,346.75143,69,70,40
346.75616,346.9787,66,70,40
348.1198,348.45596,67,70,40
348.4607,348.5696,69,70,40
348.57434,348.79688,66,70,40
349.938,350.27414,62,70,40
350.27887,350.3878,64,70,40
350.39252,350.61505,61,70,40
351.75616,352.09232,62,70,40
352.09705,352.20596,64,70,40
352.2107,352.2912,61,70,40
352.32434,352.40482,64,70,40
352.43796,352.51846,66,70,40
352.5516,352.6321,64,70,40
352.66525,353.2287,69,70,40
353.23343,353.3139,64,70,40
353.34705,353.42755,66,70,40
353.4607,353.5412,64,70,40
353.57434,354.1378,69,70,40
354.14252,354.223,66,70,40
354.25613,354.33664,68,70,40
354.36978,354.4503,66,70,40
354.48343,355.04688,71,70,40
355.0516,355.13208,68,70,40
355.16522,355.24573,71,70,40
355.27887,355.35938,68,70,40
355.39252,355.84232,62,70,40
355.84705,356.06958,61,100,40
356.41522,356.49573,69,100,40
356.52887,356.60934,71,100,40
356.6425,356.723,69,100,40
356.75613,357.31958,76,125,40
357.3243,357.40482,76,100,40
357.43796,357.51843,74,100,40
357.55157,357.63208,73,100,40
357.66522,358.23035,71,125,40
358.23514,358.3169,71,100,40
358.35052,358.43228,73,100,40
358.4659,358.54764,71,100,40
358.5813,359.17728,74,125,40
359.1825,359.27103,74,100,40
359.3075,359.40408,71,100,40
359.44385,359.5501,68,100,40
359.59387,359.8876,69,110,40
360.6626,361.24365,71,70,40
361.24854,361.36084,64,70,40
361.36572,361.47803,66,70,40
361.4829,361.5952,64,70,40
361.6001,362.18115,69,70,40
362.18604,362.29834,64,70,40
362.30322,362.41553,66,70,40
362.4204,362.5327,64,70,40
362.5376,362.65353,68,70,40
362.65857,362.7745,64,70,40
362.77954,362.89548,66,70,40
362.9005,363.01645,64,70,40
363.02148,363.14127,68,70,40
363.14648,363.26627,64,70,40
363.27148,363.40216,66,70,40
363.40784,363.5516,64,70,40
363.55783,363.8516,69,70,40
364.65784,365.65265,74,70,40
365.65784,366.65265,73,70,40
366.65784,367.76025,71,70,40
367.76807,368.03513,69,70,40
369.9499,372.004,76,110,40
372.01025,374.70868,76,110,40
374.7165,379.20868,64,80,40
374.7165,379.20868,73,80,40
0.0,0.105698414,57,1,41
0.55147,0.6295949,64,70,41
0.661764,0.7398889,66,70,41
0.772058,0.8501829,64,70,41
0.882352,2.2012844,61,70,41
2.20588,2.4218724,64,70,41
2.426468,2.6424603,61,70,41
2.647056,2.9733424,59,70,41
2.977938,3.0836365,62,70,41
3.088232,3.4145184,57,70,41
3.419114,3.5248125,61,70,41
3.529408,3.8556945,59,70,41
3.86029,3.9659884,62,70,41
3.970584,4.29687,57,70,41
4.301466,4.4071646,61,70,41
4.41176,4.6342974,59,70,41
4.639032,4.8615694,59,70,41
4.866304,5.1031985,59,70,41
5.108239,5.381299,59,70,41
5.387549,6.881299,59,70,41
8.210273,8.290765,59,70,41
8.323909,8.404401,58,70,41
8.437545,8.518037,59,70,41
8.551181,9.00099,52,70,41
9.005725,9.228262,56,70,41
9.232997,9.455534,59,70,41
9.460269,9.786555,57,70,41
9.791151,9.89685,52,70,41
9.901445,10.227732,59,70,41
10.232327,10.338025,52,70,41
10.342621,10.668907,57,70,41
10.673503,10.7792015,52,70,41
10.783797,11.110084,56,70,41
11.114679,11.220377,52,70,41
11.224973,11.551259,57,70,41
11.555855,11.661553,52,70,41
11.666149,11.992435,59,70,41
11.997031,12.10273,52,70,41
12.107325,12.213023,52,70,41
12.217619,12.295744,64,70,41
12.327913,12.406038,66,70,41
12.438207,12.516332,64,70,41
12.548501,12.985082,76,70,41
15.636733,16.293901,49,70,41
16.298496,16.51449,52,70,41
16.519085,16.735077,57,70,41
16.739674,16.955666,56,70,41
16.96026,17.176254,59,70,41
17.18085,17.396841,57,70,41
17.401438,18.058605,52,70,41
18.063202,18.279194,57,70,41
18.283789,18.49978,59,70,41
18.504377,18.72037,58,70,41
18.724964,18.940958,61,70,41
18.945553,19.161545,59,70,41
19.166142,19.382133,57,70,41
19.717611,19.795736,69,70,41
19.827906,19.90603,71,70,41
19.938198,20.016323,69,70,41
20.048492,20.264486,68,70,41
21.482315,21.56044,66,70,41
21.59261,21.670734,68,70,41
21.702904,21.781029,66,70,41
21.813196,22.02919,64,70,41
23.247019,23.325144,63,70,41
23.357313,23.435438,64,70,41
23.467607,23.545732,63,70,41
23.577902,23.793894,61,70,41
26.224957,26.330656,59,70,41
26.445545,26.882126,59,70,41
26.88672,26.99242,61,70,41
26.997015,27.102713,63,70,41
27.10731,27.268154,64,70,41
27.327896,27.488743,66,70,41
27.548485,27.70933,67,70,41
27.769073,27.929918,64,70,41
27.98966,28.150507,71,70,41
29.974953,30.411533,59,74,41
30.416128,30.521828,61,82,41
30.526423,30.632122,63,84,41
30.636717,30.797562,64,86,41
30.857306,31.01815,66,90,41
31.077892,31.238739,67,94,41
31.298481,31.459326,64,98,41
31.51907,31.684788,71,110,41
31.746342,31.91724,64,110,41
31.980717,32.157127,71,110,41
32.222652,32.40494,64,110,41
32.472652,32.71744,71,110,41
33.472652,34.40527,59,50,41
34.410152,35.34277,55,50,41
35.347652,36.28027,60,50,41
36.285152,37.21777,53,50,41
37.222652,37.68652,58,50,41
37.691402,38.62402,57,55,41
38.628902,39.09277,59,65,41
39.097652,39.56152,57,70,41
39.566402,40.03027,54,70,41
40.035152,40.264645,54,70,41
40.972652,41.202145,76,70,41
41.207027,41.43652,75,70,41
41.441402,41.670895,73,70,41
41.675777,41.90527,71,70,41
41.910152,42.139645,69,70,41
42.144527,42.37402,68,70,41
42.378902,42.608395,66,70,41
42.613277,42.84277,64,70,41
42.847652,43.077145,66,70,41
43.082027,43.31152,64,70,41
43.316402,43.545895,63,70,41
43.550777,43.78027,61,70,41
43.785152,44.014645,59,70,41
44.019527,44.24902,57,70,41
44.253902,44.483395,56,70,41
44.488277,44.71777,54,70,41
44.722652,44.952145,52,70,41
44.957027,45.420895,61,70,41
45.425777,45.65527,57,70,41
45.660152,46.358395,59,70,41
46.363277,46.59277,59,70,41
46.597652,46.827145,57,70,41
46.832027,47.06152,69,70,41
47.066402,47.295895,68,70,41
47.300777,47.53027,66,70,41
47.535152,47.764645,64,70,41
48.003902,48.233395,56,70,41
48.238277,48.46777,54,70,41
48.472652,48.702145,52,70,41
48.707027,48.93652,51,70,41
48.941402,49.170895,57,70,41
49.175777,49.40527,56,70,41
49.410152,49.639645,54,70,41
49.644527,49.87402,52,70,41
49.878902,50.108395,56,70,41
50.113277,50.34277,54,70,41
50.347652,50.577145,52,70,41
50.582027,50.81152,51,70,41
50.816402,51.045895,57,70,41
51.050777,51.28027,56,70,41
51.285152,51.514645,54,70,41
51.519527,51.74902,52,70,41
51.753902,51.983395,59,70,41
51.988277,52.21777,57,70,41
52.222652,52.452145,56,70,41
52.457027,52.68652,54,72,41
52.691402,52.920895,62,75,41
52.925777,53.15527,61,78,41
53.160152,53.389645,59,81,41
53.394527,53.62402,57,84,41
53.628902,53.858395,64,86,41
53.863277,54.10017,64,89,41
54.10521,54.342106,63,92,41
54.347145,54.58404,64,95,41
54.58908,54.833874,59,98,41
54.83908,55.106125,59,100,41
56.490105,56.655823,59,70,41
56.717377,56.883095,59,100,41
56.94465,58.07627,59,100,41
58.76282,58.928543,64,70,41
58.990093,59.155815,63,100,41
59.217365,59.383087,64,70,41
59.444637,59.61036,64,100,41
59.67191,59.83763,64,70,41
59.89918,60.072792,64,100,41
60.13728,60.31957,59,70,41
60.38728,60.60603,59,100,41
60.68728,60.932068,60,110,41
62.640404,62.869896,69,50,41
62.87478,63.10427,66,50,41
63.109154,63.338646,64,50,41
63.34353,63.57302,68,50,41
63.577904,63.807396,67,50,41
63.81228,64.04177,64,50,41
64.04665,64.276146,62,50,41
64.28103,64.51052,66,50,41
64.5154,64.744896,65,50,41
64.74978,64.97927,62,50,41
64.98415,65.213646,61,50,41
65.21853,65.682396,64,50,41
65.68728,65.91677,59,50,41
65.92165,66.16644,63,50,41
66.17165,66.4387,59,50,41
66.44438,66.689644,59,70,41
67.59679,67.75763,59,70,41
67.817375,67.97822,59,70,41
68.03796,68.19881,59,70,41
68.258545,68.47454,57,70,41
69.36149,69.52233,66,70,41
69.58208,69.74292,66,70,41
69.802666,69.96351,66,70,41
70.023254,70.23924,59,70,41
71.12619,71.28704,59,70,41
71.34678,71.50762,59,70,41
71.56737,71.72821,59,70,41
71.78796,72.003944,57,70,41
72.89089,73.05174,54,70,41
73.11148,73.27233,54,70,41
73.33207,73.49292,54,70,41
73.55266,73.658356,52,70,41
73.66296,73.768654,56,70,41
73.77325,73.878944,59,70,41
73.883545,73.98924,64,70,41
73.993835,74.09953,68,70,41
74.104126,74.18225,64,70,41
74.214424,74.29255,68,70,41
74.324715,74.40284,64,70,41
74.43501,75.533356,71,70,41
77.08207,77.18777,52,70,41
77.19236,77.29806,56,70,41
77.30266,77.408356,59,70,41
77.41295,77.51865,64,70,41
77.52325,77.628944,68,70,41
77.63354,77.71166,64,70,41
77.74383,77.82195,68,70,41
77.854126,77.93225,64,70,41
77.96442,79.06277,71,70,41
80.83206,80.93776,59,70,41
80.94236,81.04806,58,70,41
81.05265,81.15835,59,70,41
81.16295,81.26865,58,70,41
81.27324,81.37894,59,70,41
81.38354,81.489235,58,70,41
81.49383,82.59217,59,70,41
82.59677,82.70247,59,70,41
82.70706,82.81276,58,70,41
82.81735,82.92306,59,70,41
82.92765,83.03335,58,70,41
83.03794,83.14364,59,70,41
83.14824,83.25394,58,70,41
83.25853,84.57746,59,70,41
84.58206,85.479965,52,70,41
85.48477,86.014885,56,70,41
86.02113,88.71489,59,70,41
89.13477,89.21526,64,70,41
89.248405,89.3289,66,70,41
89.362045,89.442535,64,70,41
89.47568,90.79462,61,70,41
90.79921,91.0152,64,70,41
91.0198,91.23579,61,70,41
91.24039,91.56667,59,70,41
91.571266,91.67696,62,70,41
91.681564,92.00785,57,70,41
92.01244,92.11814,61,70,41
92.122734,92.44902,59,70,41
92.45362,92.55932,62,70,41
92.56391,92.8902,57,70,41
92.8948,93.000496,61,70,41
93.00509,93.22762,59,70,41
93.23236,93.46549,59,70,41
93.47046,93.71525,59,70,41
93.72046,94.00057,59,70,41
94.00682,95.50057,59,70,41
96.8615,96.94451,59,70,41
96.97869,97.0617,58,70,41
97.09588,97.17889,59,70,41
97.213066,97.67693,52,70,41
97.681816,97.91131,56,70,41
97.91619,98.14568,59,70,41
98.150566,98.47685,57,70,41
98.48145,98.58715,52,70,41
98.59174,98.91803,59,70,41
98.92263,99.02833,52,70,41
99.03292,99.35921,57,70,41
99.3638,99.469505,52,70,41
99.4741,99.800385,56,70,41
99.80498,99.910675,52,70,41
99.915276,100.24156,57,70,41
100.246155,100.35185,52,70,41
100.35645,100.68274,59,70,41
100.68733,100.79303,52,70,41
100.79762,100.90332,52,70,41
100.90792,100.986046,64,70,41
101.01821,101.09634,66,70,41
101.12851,101.206635,64,70,41
101.2388,101.675385,76,70,41
104.327034,104.9842,49,70,41
104.9888,105.20479,52,70,41
105.20939,105.42538,57,70,41
105.42997,105.645966,56,70,41
105.65056,105.866554,59,70,41
105.87115,106.08714,57,70,41
106.091736,106.74891,52,70,41
106.7535,106.9695,57,70,41
106.97409,107.19008,59,70,41
107.19468,107.41067,58,70,41
107.41527,107.631256,61,70,41
107.63586,107.851845,59,70,41
107.856445,108.07243,57,70,41
108.40791,108.48604,69,70,41
108.5182,108.59633,71,70,41
108.6285,108.70663,69,70,41
108.73879,108.95479,68,70,41
110.172615,110.25074,66,70,41
110.28291,110.36104,68,70,41
110.3932,110.47133,66,70,41
110.503494,110.71949,64,70,41
111.93732,112.01544,63,70,41
112.047615,112.12574,64,70,41
112.157906,112.23603,63,70,41
112.2682,112.48419,61,70,41
114.91526,115.02096,59,70,41
115.13585,115.572426,59,70,41
115.57702,115.68272,61,70,41
115.68732,115.793015,63,70,41
115.79761,115.95846,64,70,41
116.018196,116.17905,66,70,41
116.238785,116.39963,67,70,41
116.45937,116.62022,64,70,41
116.67996,116.840805,71,70,41
118.66525,119.10184,59,74,41
119.10643,119.21213,61,82,41
119.21672,119.32242,63,84,41
119.32702,119.48786,64,86,41
119.54761,119.70845,66,90,41
119.768196,119.92904,67,94,41
119.988785,120.14963,64,98,41
120.209366,120.37509,71,110,41
120.43664,120.60236,64,110,41
120.66391,120.83481,71,110,41
120.898285,121.0747,64,110,41
121.14022,121.37712,71,110,41
122.10796,123.04058,59,50,41
123.04546,123.97808,55,50,41
123.98296,124.91558,60,50,41
124.92046,125.85308,53,50,41
125.85796,126.32183,58,50,41
126.32671,127.25933,57,55,41
127.26421,127.72808,59,65,41
127.73296,128.19682,57,70,41
128.2017,128.66557,54,70,41
128.67046,128.89995,54,70,41
129.60796,129.83745,76,70,41
129.84233,130.07182,75,70,41
130.0767,130.3062,73,70,41
130.31108,130.54057,71,70,41
130.54546,130.77495,69,70,41
130.77983,131.00932,68,70,41
131.0142,131.2437,66,70,41
131.24858,131.47807,64,70,41
131.48296,131.71245,66,70,41
131.71733,131.94682,64,70,41
131.9517,132.1812,63,70,41
132.18608,132.41557,61,70,41
132.42046,132.64995,59,70,41
132.65483,132.88432,57,70,41
132.8892,133.1187,56,70,41
133.12358,133.35307,54,70,41
133.35796,133.58745,52,70,41
133.59233,134.0562,61,70,41
134.06108,134.29057,57,70,41
134.29546,134.9937,59,70,41
134.99858,135.22807,59,70,41
135.23296,135.46245,57,70,41
135.46733,135.69682,69,70,41
135.7017,135.9312,68,70,41
135.93608,136.16557,66,70,41
136.17046,136.39995,64,70,41
136.6392,136.8687,56,70,41
136.87358,137.10307,54,70,41
137.10796,137.33745,52,70,41
137.34233,137.57182,51,70,41
137.5767,137.8062,57,70,41
137.81108,138.04057,56,70,41
138.04546,138.27495,54,70,41
138.27983,138.50932,52,70,41
138.5142,138.7437,56,70,41
138.74858,138.97807,54,70,41
138.98296,139.21245,52,70,41
139.21733,139.44682,51,70,41
139.4517,139.6812,57,70,41
139.68608,139.91557,56,70,41
139.92046,140.14995,54,70,41
140.15483,140.38432,52,70,41
140.3892,140.6187,59,70,41
140.62358,140.85307,57,70,41
140.85796,141.08745,56,70,41
141.09233,141.32182,54,72,41
141.3267,141.5562,62,75,41
141.56108,141.79057,61,78,41
141.79546,142.02495,59,81,41
142.02983,142.25932,57,84,41
142.2642,142.4937,64,86,41
142.49858,142.73549,64,89,41
142.74052,142.97742,63,92,41
142.98245,143.21936,64,95,41
143.2244,143.4692,59,98,41
143.4744,143.74144,59,100,41
145.13348,145.2992,59,70,41
145.36075,145.52647,59,100,41
145.58803,146.71965,59,100,41
147.4062,147.57191,64,70,41
147.63347,147.7992,63,100,41
147.86075,148.02646,64,70,41
148.08801,148.25374,64,100,41
148.31529,148.481,64,70,41
148.54256,148.71346,64,100,41
148.77693,148.95923,59,70,41
149.02693,149.24568,59,100,41
149.32693,149.57173,60,110,41
151.28006,151.50955,69,50,41
151.51443,151.74393,66,50,41
151.74881,151.9783,64,50,41
151.98318,152.21268,68,50,41
152.21756,152.44705,67,50,41
152.45193,152.68143,64,50,41
152.68631,152.9158,62,50,41
152.92068,153.15018,66,50,41
153.15506,153.38455,65,50,41
153.38943,153.61893,62,50,41
153.62381,153.8533,61,50,41
153.85818,154.32205,64,50,41
154.32693,154.56383,59,50,41
154.56886,154.81781,63,50,41
154.8231,155.09015,59,50,41
155.09584,155.32533,59,70,41
156.21255,156.37341,59,70,41
156.43315,156.594,59,70,41
156.65373,156.81459,59,70,41
156.87433,157.09032,57,70,41
157.97726,158.1381,66,70,41
158.19786,158.3587,66,70,41
158.41844,158.57928,66,70,41
158.63902,158.85503,59,70,41
159.74197,159.90282,59,70,41
159.96255,160.1234,59,70,41
160.18315,160.344,59,70,41
160.40373,160.61972,57,70,41
161.50667,161.66753,54,70,41
161.72726,161.8881,54,70,41
161.94785,162.10869,54,70,41
162.16844,162.27414,52,70,41
162.27873,162.38443,56,70,41
162.38902,162.49472,59,70,41
162.49931,162.60501,64,70,41
162.60962,162.71532,68,70,41
162.71991,162.79803,64,70,41
162.8302,162.90833,68,70,41
162.94049,163.01862,64,70,41
163.0508,164.14914,71,70,41
165.69785,165.80354,52,70,41
165.80814,165.91383,56,70,41
165.91843,166.02414,59,70,41
166.02873,166.13443,64,70,41
166.13902,166.24472,68,70,41
166.24931,166.32744,64,70,41
166.3596,166.43773,68,70,41
166.46991,166.54803,64,70,41
166.5802,167.67854,71,70,41
169.44785,169.55354,59,70,41
169.55814,169.66383,58,70,41
169.66843,169.77412,59,70,41
169.77872,169.88441,58,70,41
169.88902,169.99472,59,70,41
169.99931,170.10501,58,70,41
170.1096,171.20795,59,70,41
171.21254,171.31824,59,70,41
171.32285,171.42854,58,70,41
171.43314,171.53883,59,70,41
171.54343,171.64912,58,70,41
171.65372,171.75941,59,70,41
171.76402,171.86972,58,70,41
171.87431,173.19324,59,70,41
173.19783,174.12366,52,70,41
174.1287,174.6588,56,70,41
174.66505,179.53224,59,100,41
180.03044,180.11217,61,100,41
180.14583,180.22755,62,100,41
180.26122,180.34294,61,100,41
180.37659,181.25435,57,100,41
181.25894,181.9161,61,100,41
181.92072,182.1367,49,100,41
182.1413,182.46759,56,125,41
182.47218,182.57788,49,100,41
182.58247,182.90875,54,100,41
182.91336,183.01906,49,100,41
183.02365,183.34993,56,125,41
183.35454,183.46024,49,100,41
183.46483,183.7911,54,100,41
183.7957,183.90141,49,100,41
183.906,184.06685,56,100,41
184.12659,184.28743,64,100,41
184.34718,184.50803,66,100,41
184.56776,184.7286,66,100,41
184.78836,186.54846,64,110,41
186.55305,186.65875,62,110,41
186.66335,186.74147,57,110,41
186.77365,186.85178,59,110,41
186.88394,186.96207,57,110,41
186.99423,187.6514,54,110,41
187.65599,188.09258,62,110,41
188.09717,188.31317,66,110,41
188.31776,188.64404,64,125,41
188.64864,188.75435,57,100,41
188.75894,189.08522,62,100,41
189.08981,189.19551,57,100,41
189.20012,189.5264,64,125,41
189.53099,189.63669,57,100,41
189.6413,189.96758,62,100,41
189.97217,190.07787,57,100,41
190.08246,190.40875,64,125,41
190.41335,190.51904,57,100,41
190.52364,190.73964,62,100,41
190.74423,190.96022,74,100,41
190.96481,191.4014,76,100,41
191.40599,191.84258,74,100,41
191.84717,192.28375,73,100,41
192.28835,192.72493,71,100,41
192.72952,193.1661,69,100,41
193.1707,193.60728,67,100,41
193.61188,193.82787,65,100,41
194.05305,194.48962,69,100,41
194.49423,194.9308,67,100,41
194.9354,195.37198,65,100,41
195.37657,195.81316,64,100,41
195.81775,196.69551,62,100,41
196.7001,197.13669,61,100,41
197.14128,197.35727,62,100,41
197.69275,197.77087,60,120,41
197.80304,197.88116,59,120,41
197.91335,197.99147,60,120,41
198.02364,198.12933,60,120,41
198.13393,198.21205,58,120,41
198.24422,198.32234,57,120,41
198.3545,198.43263,58,120,41
198.46481,198.57051,58,120,41
198.5751,198.65323,57,120,41
198.6854,198.76352,56,120,41
198.79568,198.87381,57,120,41
198.90599,199.12198,55,120,41
199.45746,199.53558,65,120,41
199.56775,199.64587,64,120,41
199.67804,199.75616,65,120,41
199.78833,199.89404,65,120,41
199.89864,199.97676,64,120,41
200.00893,200.08705,63,120,41
200.11922,200.19734,64,120,41
200.2295,200.3352,64,120,41
200.33981,200.41794,62,120,41
200.4501,200.52823,61,120,41
200.5604,200.63852,62,120,41
200.67068,200.88669,60,120,41
201.22215,201.30028,58,120,41
201.33246,201.41058,57,120,41
201.44275,201.52087,58,120,41
201.55304,201.65874,58,120,41
201.66333,201.74146,57,120,41
201.77364,201.85176,56,120,41
201.88393,201.96205,57,120,41
201.99422,202.09991,57,120,41
202.1045,202.18263,55,120,41
202.2148,202.29292,54,120,41
202.3251,202.40323,55,120,41
202.4354,202.65138,53,120,41
202.98686,203.06499,67,120,41
203.09715,203.17528,66,120,41
203.20746,203.28558,67,120,41
203.31775,203.42345,68,120,41
203.42804,203.50616,65,120,41
203.53833,203.61646,64,120,41
203.64862,203.72675,65,120,41
203.75893,203.86462,65,120,41
203.86922,203.94734,64,120,41
203.9795,204.05763,63,120,41
204.0898,204.16792,64,120,41
204.2001,204.41609,62,120,41
204.75157,204.8297,55,120,41
204.86186,204.93999,57,120,41
204.97215,205.05028,55,120,41
205.08244,205.62932,67,120,41
205.63393,205.71205,55,120,41
205.74422,205.82234,57,120,41
205.8545,205.93263,55,120,41
205.9648,206.0705,67,120,41
206.07509,206.18079,55,120,41
206.1854,206.29109,67,120,41
206.29568,206.40138,55,120,41
206.40598,206.51167,67,120,41
206.51627,206.62196,55,120,41
206.62657,206.73227,67,120,41
206.73686,206.84256,55,120,41
206.84715,206.95285,67,120,41
206.95744,207.06314,55,120,41
207.06773,207.17345,67,120,41
207.17804,207.28374,55,120,41
207.28833,207.39403,67,120,41
207.39862,207.50432,55,120,41
207.50891,207.61461,67,120,41
207.61922,207.72491,55,120,41
207.7295,207.8352,67,120,41
207.8398,207.91792,59,120,41
207.95009,208.02821,60,120,41
208.0604,208.13852,59,120,41
208.17068,208.71756,62,120,41
208.72215,208.80028,60,120,41
208.83244,208.91057,62,120,41
208.94273,209.02086,60,120,41
209.05304,209.59991,64,120,41
209.6045,209.68263,62,120,41
209.7148,209.79292,64,120,41
209.82509,209.90321,62,120,41
209.93538,210.08244,65,120,41
210.15598,210.30302,64,120,41
210.37656,210.52362,63,120,41
210.59715,210.7442,62,120,41
210.81773,210.9648,61,120,41
211.03833,211.18983,60,120,41
211.2656,211.41711,59,120,41
211.49287,211.64912,69,120,41
211.72725,211.88853,67,120,41
211.96918,212.13585,69,120,41
212.21918,212.46397,67,120,41
213.21918,214.1518,55,70,41
214.15668,215.0893,53,70,41
215.09418,216.0268,55,70,41
216.03168,216.26117,55,70,41
225.52386,225.63617,57,50,41
225.64105,225.75336,59,50,41
225.75824,225.87054,57,50,41
225.87543,226.45648,69,50,41
226.46136,226.57367,69,50,41
226.57855,226.69086,71,50,41
226.69574,226.80804,69,50,41
226.81293,227.51117,57,50,41
227.51605,227.74554,56,50,41
227.9848,228.2143,68,50,41
228.21918,228.44867,67,50,41
228.45355,228.68304,69,51,41
228.68793,228.91742,62,52,41
228.9223,229.1518,66,53,41
229.15668,229.38617,65,55,41
229.39105,229.62054,67,56,41
229.62543,229.85492,60,57,41
229.8598,230.0307,65,59,41
230.09418,230.25043,65,60,41
230.32855,230.4848,53,61,41
230.56293,230.71918,64,63,41
230.7973,230.95355,52,64,41
231.03168,231.18793,62,65,41
231.26605,231.4223,50,67,41
231.50043,231.65668,62,68,41
231.7348,231.89105,60,69,41
231.96918,232.19867,59,70,41
232.90668,233.8393,62,70,41
233.84418,234.7768,60,70,41
234.78168,234.93793,57,70,41
235.01605,235.1723,57,70,41
235.25043,235.40668,57,70,41
235.4848,235.64105,57,70,41
235.71918,235.87543,56,70,41
235.95355,236.1098,52,70,41
236.18793,236.34418,52,70,41
236.4223,236.57855,52,70,41
236.65668,236.81293,52,70,41
236.89105,237.0473,52,70,41
237.12543,237.28168,52,70,41
237.3598,237.51605,52,70,41
237.59418,237.75043,52,70,41
237.82855,237.9848,52,70,41
238.06293,238.21918,52,70,41
238.2973,238.45355,52,70,41
238.53168,238.70258,52,70,41
238.76605,238.93695,52,70,41
239.00043,239.17133,52,70,41
239.2348,239.4057,52,70,41
239.46918,239.69867,52,70,41
240.1723,240.4018,68,70,41
240.40668,240.57758,69,70,41
240.64105,240.81195,69,70,41
240.87543,241.05183,69,70,41
241.11737,241.29965,69,70,41
241.36737,241.59686,68,70,41
242.0705,242.29999,56,70,41
242.30487,242.47577,57,70,41
242.53925,242.71014,57,70,41
242.77362,242.9559,57,70,41
243.02362,243.24237,57,70,41
243.32361,244.51736,56,70,41
244.52362,245.71736,59,70,41
245.72362,249.0908,52,70,41
245.72362,249.0908,62,70,41
249.589,249.67073,64,70,41
249.70438,249.78612,66,70,41
249.81976,249.9015,64,70,41
249.93515,251.25409,61,70,41
251.25868,251.47467,64,70,41
251.47926,251.69527,61,70,41
251.69986,252.02614,59,70,41
252.03073,252.13643,62,70,41
252.14104,252.46732,57,70,41
252.47191,252.5776,61,70,41
252.58221,252.9085,59,70,41
252.91309,253.01878,62,70,41
253.02338,253.34967,57,70,41
253.35426,253.45996,61,70,41
253.46455,253.68056,59,70,41
253.68515,253.90114,59,70,41
253.90573,254.1317,59,70,41
254.1365,254.40526,59,70,41
254.4115,255.90526,59,70,41
257.2662,257.3492,59,70,41
257.3834,257.4664,58,70,41
257.50058,257.5836,59,70,41
257.61777,258.08163,52,70,41
258.08652,258.316,56,70,41
258.3209,258.55038,59,70,41
258.55527,258.88153,57,70,41
258.88614,258.99182,52,70,41
258.99643,259.32272,59,70,41
259.3273,259.433,52,70,41
259.43762,259.7639,57,70,41
259.7685,259.87418,52,70,41
259.87878,260.20508,56,70,41
260.20966,260.31537,52,70,41
260.31995,260.64624,57,70,41
260.65085,260.75653,52,70,41
260.76114,261.08743,59,70,41
261.092,261.19772,52,70,41
261.2023,261.308,52,70,41
261.3126,261.39072,64,70,41
261.4229,261.50104,66,70,41
261.5332,261.61133,64,70,41
261.6435,262.08008,76,70,41
264.73172,265.3889,57,70,41
265.3935,265.60947,61,70,41
265.61407,265.83008,62,70,41
265.83466,266.05066,61,70,41
266.05524,266.27124,64,70,41
266.27585,266.49182,62,70,41
266.49643,267.1536,61,70,41
267.15817,267.37418,63,70,41
267.37878,267.59476,64,70,41
267.59937,267.81537,63,70,41
267.81995,268.03595,66,70,41
268.04053,268.25653,64,70,41
268.26114,268.36682,62,70,41
268.37143,268.44955,50,71,41
268.48172,268.55984,52,72,41
268.592,268.67014,50,73,41
268.7023,270.13153,62,75,41
270.13614,270.21426,50,91,41
270.24643,270.32455,52,93,41
270.35672,270.43484,50,94,41
270.467,272.09735,62,95,41
272.43283,272.51096,74,70,41
272.54312,272.62125,76,70,41
272.6534,272.73154,74,70,41
272.7637,272.9797,73,70,41
274.19754,274.27567,71,70,41
274.30783,274.38596,73,70,41
274.41812,274.49625,71,70,41
274.5284,274.74442,69,70,41
275.96222,276.04034,68,70,41
276.07254,276.15067,69,70,41
276.18283,276.26096,68,70,41
276.29312,276.5091,66,70,41
279.16077,279.59735,64,70,41
279.60193,279.70764,66,70,41
279.71222,279.81793,68,70,41
279.8225,279.96957,69,70,41
280.04312,280.19016,71,70,41
280.2637,280.41077,72,70,41
280.48428,280.63135,69,70,41
280.70486,280.92087,76,70,41
282.69016,283.12674,64,74,41
283.13135,283.23703,66,82,41
283.24164,283.34732,68,84,41
283.35193,283.499,69,86,41
283.5725,283.71957,71,90,41
283.79312,283.94016,72,94,41
284.0137,284.16077,69,98,41
284.23428,284.45682,76,110,41
284.23428,284.45682,76,110,41
284.46155,284.68408,69,110,41
284.6888,284.9183,76,110,41
284.9232,285.1601,69,110,41
285.16513,285.40204,76,110,41
286.13287,287.0655,52,50,41
287.07037,288.003,50,50,41
288.00787,288.9405,52,50,41
288.94537,290.11237,55,50,41
290.11725,290.34674,54,52,41
290.35162,291.28424,54,55,41
291.28912,291.753,52,65,41
291.75787,292.22174,54,70,41
292.22662,292.6905,54,70,41
292.69537,292.92487,59,70,41
293.63287,293.86237,69,70,41
293.86725,294.09674,68,70,41
294.10162,294.33112,66,70,41
294.336,294.5655,64,70,41
294.57037,294.79987,62,70,41
294.80475,295.03424,61,70,41
295.03912,295.26862,59,70,41
295.2735,295.503,57,70,41
295.50787,296.4405,56,70,41
296.44537,297.378,61,70,41
297.38287,297.61237,54,70,41
297.61725,298.08112,66,74,41
298.086,298.3155,65,83,41
298.32037,299.01862,64,87,41
299.0235,299.253,64,100,41
299.25787,299.48737,62,70,41
299.49225,299.72174,62,70,41
299.72662,299.95612,61,70,41
299.961,300.1905,59,70,41
300.19537,300.42487,57,70,41
300.66412,300.89362,61,70,41
300.8985,301.128,59,70,41
301.13287,301.36237,57,70,41
301.36725,301.59674,56,70,41
301.60162,301.83112,62,70,41
301.836,302.0655,61,70,41
302.07037,302.29987,59,70,41
302.30475,302.53424,57,70,41
302.53912,302.76862,61,70,41
302.7735,303.003,59,70,41
303.00787,303.23737,57,70,41
303.24225,303.47174,56,70,41
303.47662,303.70612,62,70,41
303.711,303.9405,61,70,41
303.94537,304.17487,59,70,41
304.17975,304.40924,57,70,41
304.41412,304.64362,64,70,41
304.6485,304.878,62,70,41
304.88287,305.11237,61,70,41
305.11725,305.34674,59,70,41
305.35162,305.58112,67,70,41
305.586,305.8155,66,73,41
305.82037,306.04987,64,76,41
306.05475,306.28424,62,80,41
306.28912,306.52603,61,83,41
306.53107,306.76794,57,87,41
306.773,307.0099,59,90,41
307.01492,307.25183,57,94,41
307.25687,307.51453,64,97,41
307.52002,307.81378,64,100,41
307.82004,307.9867,69,100,41
308.07004,308.2263,69,125,41
308.3044,308.46066,66,100,41
308.5388,308.69504,64,125,41
308.77316,308.9294,62,100,41
309.00754,309.1638,61,125,41
309.2419,309.39816,59,100,41
309.4763,309.63254,57,125,41
309.71066,310.5847,59,125,41
310.64816,310.87766,57,100,41
311.58566,311.7419,69,100,41
311.82004,311.9763,68,125,41
313.00702,313.17368,64,100,41
313.25702,313.45703,64,125,41
313.557,313.85077,65,125,41
315.807,316.0439,74,50,41
316.04895,316.27844,71,50,41
316.28333,316.51282,69,50,41
316.5177,316.7472,73,50,41
316.75208,316.98157,72,50,41
316.98645,317.21594,69,50,41
317.22083,317.45032,67,50,41
317.4552,317.6847,71,50,41
317.68958,317.91907,70,50,41
317.92395,318.15344,67,50,41
318.15833,318.38782,66,50,41
318.3927,318.86398,69,50,41
318.86902,319.1059,64,50,41
319.11096,319.35574,68,50,41
319.36096,319.628,64,50,41
319.63367,319.84967,64,70,41
320.7366,320.89746,64,70,41
320.9572,321.11804,64,70,41
321.1778,321.33862,64,70,41
321.39838,321.61438,62,70,41
322.5013,322.66217,59,70,41
322.7219,322.88275,59,70,41
322.9425,323.10333,59,70,41
323.1631,323.3791,57,70,41
324.26602,324.42688,64,70,41
324.4866,324.64746,64,70,41
324.7072,324.86804,64,70,41
324.9278,325.14377,62,70,41
326.03073,326.19156,59,70,41
326.2513,326.41217,59,70,41
326.4719,326.63275,59,70,41
326.6925,326.7982,57,70,41
326.8028,326.90848,61,70,41
326.9131,327.01877,64,70,41
327.02338,327.12906,69,70,41
327.13367,327.23938,73,70,41
327.24396,327.32208,69,70,41
327.35425,327.43237,73,70,41
327.46454,327.54266,69,70,41
327.57483,328.6732,76,70,41
330.2219,330.3276,57,70,41
330.33218,330.4379,61,70,41
330.44247,330.5482,64,70,41
330.5528,330.65848,69,70,41
330.6631,330.76877,73,70,41
330.77338,330.8515,69,70,41
330.88367,330.9618,73,70,41
330.99396,331.07208,69,70,41
331.10425,332.2026,76,70,41
333.9719,334.0776,64,70,41
334.08218,334.1879,63,70,41
334.19247,334.2982,64,70,41
334.30276,334.40848,63,70,41
334.4131,334.51877,64,70,41
334.52338,334.62906,63,70,41
334.63367,335.732,64,70,41
335.7366,335.8423,52,70,41
335.8469,335.9526,51,70,41
335.95718,336.0629,52,70,41
336.06747,336.1732,51,70,41
336.17776,336.28348,52,70,41
336.28806,336.39377,51,70,41
336.39838,338.72992,52,110,41
338.7348,338.8178,64,110,41
338.852,338.93768,66,110,41
338.97296,339.05865,64,110,41
339.09393,340.41284,61,110,41
340.41745,340.63345,64,110,41
340.63803,340.85403,61,110,41
340.8586,341.1849,59,110,41
341.1895,341.2952,62,110,41
341.2998,341.6261,57,110,41
341.63068,341.7364,61,110,41
341.74097,342.06726,59,110,41
342.07187,342.17755,62,110,41
342.18216,342.50845,57,110,41
342.51303,342.61874,61,110,41
342.62332,342.84586,59,110,41
342.85062,343.07315,59,110,41
343.07788,343.31476,59,110,41
343.31982,343.58685,59,110,41
343.59253,345.08627,59,110,41
346.30164,346.6378,64,70,41
346.64252,346.75143,57,70,41
346.75616,346.9787,62,70,41
348.1198,348.45596,64,70,41
348.4607,348.5696,57,70,41
348.57434,348.79688,62,70,41
349.938,350.27414,59,70,41
350.27887,350.3878,52,70,41
350.39252,350.61505,57,70,41
351.75616,352.09232,59,70,41
352.09705,352.20596,52,70,41
352.2107,352.43323,52,70,41
352.77887,352.85938,49,70,41
352.89252,352.973,52,70,41
353.00613,353.08664,57,70,41
353.11978,353.2855,49,70,41
353.68796,353.76846,49,70,41
353.8016,353.88208,52,70,41
353.91522,353.99573,57,70,41
354.02887,354.19458,50,70,41
354.59705,354.67755,50,70,41
354.7107,354.79117,54,70,41
354.8243,354.90482,59,70,41
354.93796,355.10367,52,70,41
355.50613,355.58664,52,70,41
355.61978,355.70026,59,70,41
355.7334,355.8139,59,70,41
355.84705,355.92755,57,100,41
355.9607,356.04117,64,100,41
356.0743,356.15482,61,100,41
356.18796,356.26846,57,100,41
356.3016,356.52414,52,125,41
356.86978,356.95026,64,100,41
356.9834,357.0639,61,100,41
357.09705,357.17755,57,100,41
357.2107,357.43323,52,125,41
357.77887,357.85934,66,100,41
357.8925,357.973,62,100,41
358.00613,358.08664,59,100,41
358.11978,358.34573,54,125,41
358.70035,358.78467,56,100,41
358.8194,358.90372,59,100,41
358.93845,359.02277,61,100,41
359.0575,359.14603,62,100,41
359.1825,359.27103,52,100,41
359.3075,359.40408,62,100,41
359.44385,359.5501,62,100,41
359.59387,359.8876,61,110,41
360.6626,361.5952,56,70,41
361.6001,362.5327,57,70,41
362.5376,363.5516,62,70,41
363.55783,363.8516,61,70,41
364.65784,366.65265,64,70,41
366.65784,367.76025,62,70,41
367.76807,368.03513,61,70,41
369.9499,372.004,61,110,41
372.01025,374.70868,61,110,41
374.7165,379.20868,57,80,41
0.0,0.105698414,57,1,42
0.992646,1.0707709,52,70,42
1.10294,1.181065,54,70,42
1.213234,1.291359,52,70,42
1.323528,1.9806964,57,70,42
1.985292,2.2012844,52,70,42
2.20588,2.4218724,49,70,42
2.426468,2.6424603,45,70,42
2.647056,3.0836365,40,70,42
3.088232,3.5248125,45,70,42
3.529408,3.9659884,40,70,42
3.970584,4.4071646,45,70,42
4.41176,4.6342974,40,70,42
4.639032,4.8615694,52,70,42
4.866304,5.1031985,47,70,42
5.108239,5.381299,47,70,42
5.387549,6.881299,52,70,42
8.664817,8.745309,47,70,42
8.778453,8.858945,46,70,42
8.892089,8.972581,47,70,42
9.005725,9.455534,40,70,42
9.460269,9.89685,45,70,42
9.901445,10.338025,52,70,42
10.342621,10.7792015,45,70,42
10.783797,11.220377,40,70,42
11.224973,11.661553,45,70,42
11.666149,12.10273,52,70,42
12.107325,12.323318,45,70,42
13.982323,14.060448,52,70,42
14.092617,14.170742,54,70,42
14.202911,14.281036,52,70,42
14.313205,14.749785,64,70,42
15.636733,16.293901,57,70,42
16.298496,16.51449,59,70,42
16.519085,16.735077,61,70,42
16.739674,16.955666,59,70,42
16.96026,17.176254,62,70,42
17.18085,17.396841,61,70,42
17.401438,18.058605,59,70,42
18.063202,18.279194,61,70,42
18.283789,18.49978,62,70,42
18.504377,18.72037,61,70,42
18.724964,18.940958,64,70,42
18.945553,19.161545,62,70,42
19.166142,19.382133,61,70,42
20.599962,20.678087,56,70,42
20.710257,20.788382,57,70,42
20.82055,20.898676,56,70,42
20.930845,21.146837,54,70,42
22.364668,22.442791,52,70,42
22.47496,22.553085,54,70,42
22.585255,22.66338,52,70,42
22.695549,22.911541,51,70,42
24.129372,24.207497,49,70,42
24.239664,24.31779,51,70,42
24.349958,24.428083,49,70,42
24.460253,24.676245,47,70,42
24.680841,25.117422,47,70,42
25.122017,25.227715,49,70,42
25.232311,25.338009,51,70,42
25.342606,25.50345,52,70,42
25.563192,25.72404,54,70,42
25.783781,25.944626,55,70,42
26.00437,26.165215,52,70,42
26.224957,26.440948,59,70,42
28.210249,28.64683,47,70,42
28.651424,28.757124,49,70,42
28.761719,28.867418,51,70,42
28.872013,29.032858,52,70,42
29.092602,29.253447,54,70,42
29.313189,29.474035,55,70,42
29.533777,29.694622,52,70,42
29.754366,29.970358,59,70,42
29.974953,30.411533,47,74,42
30.416128,30.521828,49,82,42
30.526423,30.632122,51,84,42
30.636717,30.797562,52,86,42
30.857306,31.01815,54,90,42
31.077892,31.238739,55,94,42
31.298481,31.459326,52,98,42
31.51907,31.741606,59,110,42
31.746342,31.975834,52,110,42
31.980717,32.21761,59,110,42
32.222652,32.46744,52,110,42
32.472652,32.71744,59,110,42
33.472652,34.40527,52,50,42
34.410152,35.34277,46,50,42
35.347652,36.28027,45,50,42
36.285152,37.21777,44,50,42
37.222652,37.68652,43,50,42
37.691402,38.62402,42,55,42
38.628902,39.09277,40,65,42
39.097652,39.56152,45,70,42
39.566402,40.03027,46,70,42
40.035152,40.264645,47,70,42
42.847652,43.077145,63,70,42
43.082027,43.31152,61,70,42
43.316402,43.545895,59,70,42
43.550777,43.78027,57,70,42
43.785152,44.014645,56,70,42
44.019527,44.24902,54,70,42
44.253902,44.483395,52,70,42
44.488277,44.71777,51,70,42
44.722652,44.952145,49,70,42
44.957027,45.18652,49,70,42
45.191402,45.420895,54,70,42
45.425777,45.65527,52,70,42
45.660152,45.889645,51,70,42
45.894527,46.12402,47,70,42
46.128902,46.358395,52,70,42
46.363277,46.59277,44,70,42
46.597652,46.827145,45,70,42
46.832027,47.06152,42,70,42
47.066402,47.295895,47,70,42
47.300777,47.53027,47,70,42
47.535152,47.764645,40,70,42
47.769527,48.93652,59,70,42
48.941402,49.170895,47,70,42
49.175777,49.40527,49,70,42
49.410152,49.639645,51,70,42
49.644527,49.87402,52,70,42
49.878902,50.81152,59,70,42
50.816402,51.045895,47,70,42
51.050777,51.28027,49,70,42
51.285152,51.514645,51,70,42
51.519527,51.74902,52,70,42
51.753902,51.983395,49,70,42
51.988277,52.21777,51,70,42
52.222652,52.452145,53,70,42
52.457027,52.68652,54,72,42
52.691402,52.920895,52,75,42
52.925777,53.15527,54,78,42
53.160152,53.389645,56,81,42
53.394527,53.62402,57,84,42
53.628902,53.858395,59,86,42
53.863277,54.10017,61,89,42
54.10521,54.342106,59,92,42
54.58908,54.833874,47,98,42
55.11181,55.28822,64,70,42
55.353745,55.519463,63,100,42
55.581017,55.746735,61,70,42
55.80829,55.974007,59,100,42
56.03556,56.20128,57,70,42
56.262833,56.42855,56,100,42
56.490105,56.655823,54,70,42
56.717377,56.883095,52,100,42
56.94465,57.849,51,100,42
57.853737,58.07627,52,100,42
58.081005,58.303543,45,100,42
58.308277,58.530815,47,100,42
58.53555,58.758087,47,100,42
59.217365,59.383087,61,70,42
59.444637,59.61036,59,100,42
59.67191,59.83763,57,70,42
59.89918,60.072792,56,100,42
60.13728,60.31957,54,70,42
60.38728,60.60603,52,100,42
60.68728,60.932068,51,110,42
62.640404,63.10427,56,50,42
63.109154,63.57302,61,50,42
63.577904,64.04177,54,50,42
64.04665,64.51052,59,50,42
64.5154,64.97927,52,50,42
64.98415,65.44802,57,50,42
65.4529,65.91677,59,50,42
65.92165,66.4387,47,50,42
66.44438,66.689644,52,70,42
67.59679,67.75763,56,70,42
67.817375,67.97822,56,70,42
68.03796,68.19881,56,70,42
68.258545,68.47454,57,70,42
69.36149,69.52233,59,70,42
69.58208,69.74292,59,70,42
69.802666,69.96351,59,70,42
70.023254,70.23924,52,70,42
71.12619,71.28704,44,70,42
71.34678,71.50762,44,70,42
71.56737,71.72821,44,70,42
71.78796,72.003944,45,70,42
72.89089,73.05174,47,70,42
73.11148,73.27233,47,70,42
73.33207,73.49292,47,70,42
73.55266,73.768654,52,70,42
76.4203,76.58115,47,70,42
76.64089,76.801735,47,70,42
76.86148,77.02232,47,70,42
77.08207,77.29806,52,70,42
79.949715,80.11056,47,70,42
80.170296,80.33115,47,70,42
80.390884,80.551735,47,70,42
80.61147,80.82747,52,70,42
81.49383,82.37158,47,70,42
82.37618,82.59217,52,70,42
83.25853,84.13629,47,70,42
84.140884,84.35687,52,70,42
84.36147,84.46717,40,70,42
84.47176,84.57746,39,70,42
84.58206,84.68776,40,70,42
84.69235,84.79805,39,70,42
84.80265,84.90835,40,70,42
84.91294,85.01864,39,70,42
85.02324,85.13381,40,70,42
85.13862,85.2492,39,70,42
85.254005,85.36458,40,70,42
85.36939,85.479965,39,70,42
85.48477,85.60457,40,70,42
85.60977,85.72957,39,70,42
85.73477,85.865456,40,70,42
85.87114,86.014885,39,70,42
86.02113,88.71489,40,70,42
89.585976,89.6641,52,70,42
89.696266,89.77439,54,70,42
89.806564,89.88469,52,70,42
89.916855,90.57403,57,70,42
90.57862,90.79462,52,70,42
90.79921,91.0152,49,70,42
91.0198,91.23579,45,70,42
91.24039,91.67696,40,70,42
91.681564,92.11814,45,70,42
92.122734,92.55932,40,70,42
92.56391,93.000496,45,70,42
93.00509,93.22762,40,70,42
93.23236,93.46549,52,70,42
93.47046,93.71525,47,70,42
93.72046,94.00057,47,70,42
94.00682,95.50057,52,70,42
97.33025,97.41326,47,70,42
97.44744,97.53045,46,70,42
97.56463,97.64764,47,70,42
97.681816,98.14568,40,70,42
98.150566,98.58715,45,70,42
98.59174,99.02833,52,70,42
99.03292,99.469505,45,70,42
99.4741,99.910675,40,70,42
99.915276,100.35185,45,70,42
100.35645,100.79303,52,70,42
100.79762,101.01362,45,70,42
102.67262,102.75075,52,70,42
102.78292,102.861046,54,70,42
102.89321,102.97134,52,70,42
103.0035,103.44009,64,70,42
104.327034,104.9842,57,70,42
104.9888,105.20479,59,70,42
105.20939,105.42538,61,70,42
105.42997,105.645966,59,70,42
105.65056,105.866554,62,70,42
105.87115,106.08714,61,70,42
106.091736,106.74891,59,70,42
106.7535,106.9695,61,70,42
106.97409,107.19008,62,70,42
107.19468,107.41067,61,70,42
107.41527,107.631256,64,70,42
107.63586,107.851845,62,70,42
107.856445,108.07243,61,70,42
109.29026,109.368385,56,70,42
109.40056,109.47868,57,70,42
109.51085,109.588974,56,70,42
109.62115,109.837135,54,70,42
111.05497,111.133095,52,70,42
111.16526,111.243385,54,70,42
111.27556,111.35368,52,70,42
111.38585,111.601845,51,70,42
112.81967,112.8978,49,70,42
112.92996,113.00809,51,70,42
113.04026,113.118385,49,70,42
113.15055,113.36655,47,70,42
113.37114,113.807724,47,70,42
113.81232,113.918015,49,70,42
113.922615,114.02831,51,70,42
114.032906,114.19375,52,70,42
114.253494,114.41434,54,70,42
114.47408,114.634926,55,70,42
114.69467,114.855515,52,70,42
114.91526,115.13125,59,70,42
116.90055,117.33713,47,70,42
117.34173,117.447426,49,70,42
117.45202,117.55772,51,70,42
117.56232,117.72316,52,70,42
117.7829,117.94375,54,70,42
118.00349,118.16434,55,70,42
118.224075,118.384926,52,70,42
118.444664,118.66066,59,70,42
118.66525,119.10184,47,74,42
119.10643,119.21213,49,82,42
119.21672,119.32242,51,84,42
119.32702,119.48786,52,86,42
119.54761,119.70845,54,90,42
119.768196,119.92904,55,94,42
119.988785,120.14963,52,98,42
120.209366,120.43191,59,110,42
120.43664,120.65918,52,110,42
120.66391,120.8934,59,110,42
120.898285,121.135185,52,110,42
121.14022,121.37712,59,110,42
122.10796,123.04058,52,50,42
123.04546,123.97808,46,50,42
123.98296,124.91558,45,50,42
124.92046,125.85308,44,50,42
125.85796,126.32183,43,50,42
126.32671,127.25933,42,55,42
127.26421,127.72808,40,65,42
127.73296,128.19682,45,70,42
128.2017,128.66557,46,70,42
128.67046,128.89995,47,70,42
131.48296,131.71245,63,70,42
131.71733,131.94682,61,70,42
131.9517,132.1812,59,70,42
132.18608,132.41557,57,70,42
132.42046,132.64995,56,70,42
132.65483,132.88432,54,70,42
132.8892,133.1187,52,70,42
133.12358,133.35307,51,70,42
133.35796,133.58745,49,70,42
133.59233,133.82182,49,70,42
133.8267,134.0562,54,70,42
134.06108,134.29057,52,70,42
134.29546,134.52495,51,70,42
134.52983,134.75932,47,70,42
134.7642,134.9937,52,70,42
134.99858,135.22807,44,70,42
135.23296,135.46245,45,70,42
135.46733,135.69682,42,70,42
135.7017,135.9312,47,70,42
135.93608,136.16557,47,70,42
136.17046,136.39995,40,70,42
136.40483,137.57182,59,70,42
137.5767,137.8062,47,70,42
137.81108,138.04057,49,70,42
138.04546,138.27495,51,70,42
138.27983,138.50932,52,70,42
138.5142,139.44682,59,70,42
139.4517,139.6812,47,70,42
139.68608,139.91557,49,70,42
139.92046,140.14995,51,70,42
140.15483,140.38432,52,70,42
140.3892,140.6187,49,70,42
140.62358,140.85307,51,70,42
140.85796,141.08745,53,70,42
141.09233,141.32182,54,72,42
141.3267,141.5562,52,75,42
141.56108,141.79057,54,78,42
141.79546,142.02495,56,81,42
142.02983,142.25932,57,84,42
142.2642,142.4937,59,86,42
142.49858,142.73549,61,89,42
142.74052,142.97742,59,92,42
143.2244,143.4692,47,98,42
143.74712,143.92941,64,70,42
143.99712,144.16284,63,100,42
144.2244,144.3901,61,70,42
144.45166,144.61739,59,100,42
144.67894,144.84465,57,70,42
144.9062,145.07193,56,100,42
145.13348,145.2992,54,70,42
145.36075,145.52647,52,100,42
145.58803,146.49237,51,100,42
146.49712,146.71965,52,100,42
146.72438,146.94691,45,100,42
146.95166,147.1742,47,100,42
147.17892,147.40146,47,100,42
147.86075,148.02646,61,70,42
148.08801,148.25374,59,100,42
148.31529,148.481,57,70,42
148.54256,148.71346,56,100,42
148.77693,148.95923,54,70,42
149.02693,149.24568,52,100,42
149.32693,149.57173,51,110,42
151.28006,151.74393,56,50,42
151.74881,152.21268,61,50,42
152.21756,152.68143,54,50,42
152.68631,153.15018,59,50,42
153.15506,153.61893,52,50,42
153.62381,154.08768,57,50,42
154.09256,154.56383,59,50,42
154.56886,155.09015,47,50,42
155.09584,155.32533,52,70,42
156.21255,156.37341,56,70,42
156.43315,156.594,56,70,42
156.65373,156.81459,56,70,42
156.87433,157.09032,57,70,42
157.97726,158.1381,59,70,42
158.19786,158.3587,59,70,42
158.41844,158.57928,59,70,42
158.63902,158.85503,52,70,42
159.74197,159.90282,44,70,42
159.96255,160.1234,44,70,42
160.18315,160.344,44,70,42
160.40373,160.61972,45,70,42
161.50667,161.66753,47,70,42
161.72726,161.8881,47,70,42
161.94785,162.10869,47,70,42
162.16844,162.38443,52,70,42
165.03609,165.19693,47,70,42
165.25667,165.41751,47,70,42
165.47726,165.6381,47,70,42
165.69785,165.91383,52,70,42
168.56549,168.72633,47,70,42
168.78607,168.94693,47,70,42
169.00667,169.16751,47,70,42
169.22725,169.44325,52,70,42
170.1096,170.98737,47,70,42
170.99196,171.20795,52,70,42
171.87431,172.75206,47,70,42
172.75667,172.97266,52,70,42
172.97725,173.08295,40,70,42
173.08754,173.19324,39,70,42
173.19783,173.30673,40,70,42
173.31148,173.42038,39,70,42
173.42511,173.53401,40,70,42
173.53874,173.64764,39,70,42
173.65237,173.76468,40,70,42
173.76956,173.88187,39,70,42
173.88675,174.00269,40,70,42
174.00772,174.12366,39,70,42
174.1287,174.24849,40,70,42
174.2537,174.37349,39,70,42
174.3787,174.50937,40,70,42
174.51506,174.6588,39,70,42
174.66505,176.15724,40,100,42
176.16505,179.53224,41,100,42
180.4869,180.56502,49,100,42
180.59718,180.67531,50,100,42
180.70747,180.7856,49,100,42
180.81776,181.47493,54,100,42
181.47954,181.69553,49,100,42
181.70012,181.9161,45,100,42
181.92072,182.1367,42,100,42
182.1413,182.57788,37,125,42
182.58247,183.01906,42,100,42
183.02365,183.46024,37,125,42
183.46483,183.90141,42,100,42
183.906,184.06685,37,100,42
184.12659,184.28743,49,100,42
184.34718,184.50803,44,100,42
184.56776,184.7286,44,100,42
184.78836,185.6661,49,110,42
185.6707,186.21758,45,110,42
186.22217,186.3003,45,110,42
186.33247,186.4106,47,110,42
186.44276,186.52089,45,110,42
186.55305,187.6514,50,110,42
187.65599,187.81685,45,110,42
187.87659,188.03743,42,110,42
188.09717,188.25801,38,110,42
188.31776,188.75435,45,125,42
188.75894,189.19551,50,100,42
189.20012,189.63669,45,125,42
189.6413,190.07787,50,100,42
190.08246,190.51904,45,125,42
190.52364,190.73964,50,100,42
191.95746,192.03558,45,100,42
192.06776,192.14589,47,100,42
192.17805,192.25618,45,100,42
192.28835,192.50433,57,100,42
192.83981,192.91794,45,100,42
192.9501,193.02823,47,100,42
193.06041,193.13853,45,100,42
193.1707,193.24883,57,100,42
193.28099,193.35912,57,100,42
193.39128,193.4694,59,100,42
193.50157,193.5797,57,100,42
193.61188,193.82787,62,100,42
194.05305,194.48962,65,100,42
194.49423,194.9308,64,100,42
194.9354,195.37198,62,100,42
195.37657,195.81316,60,100,42
195.81775,196.25433,58,100,42
196.25893,196.69551,57,100,42
196.7001,197.13669,55,100,42
197.14128,197.24698,53,120,42
197.25157,197.3297,50,120,42
197.36186,197.43999,52,120,42
197.47217,197.5503,50,120,42
197.58246,198.90138,62,120,42
198.90599,199.12198,55,120,42
200.78099,200.8591,48,120,42
200.89128,200.9694,50,120,42
201.00157,201.0797,48,120,42
201.11186,202.4308,60,120,42
202.4354,202.65138,53,120,42
203.31775,203.75432,53,120,42
203.75893,204.1955,54,120,42
204.2001,204.41609,55,120,42
207.7295,207.9455,43,120,42
208.39127,208.60725,55,120,42
208.61186,208.82785,43,120,42
209.27362,209.48961,55,120,42
209.4942,209.7102,43,120,42
210.15598,210.37196,55,120,42
210.37656,210.52362,43,120,42
210.59715,210.7442,55,120,42
210.81773,210.9648,43,120,42
211.03833,211.18983,55,120,42
211.2656,211.41711,43,120,42
211.49287,211.64912,50,120,42
211.72725,211.88853,55,120,42
211.96918,212.13585,50,120,42
212.21918,212.46397,55,120,42
213.21918,214.1518,48,70,42
214.15668,215.0893,41,70,42
215.09418,215.67523,43,70,42
215.68011,215.79242,45,70,42
215.7973,215.9096,43,70,42
215.91449,216.0268,41,70,42
216.03168,216.26117,40,70,42
216.96918,217.08148,60,50,42
217.20355,217.31586,59,50,42
217.43793,217.55023,57,50,42
217.6723,217.7846,55,50,42
217.90668,218.01898,53,50,42
218.14105,218.25336,52,50,42
218.37543,218.48773,50,50,42
218.6098,218.7221,48,50,42
218.84418,218.95648,47,50,42
219.07855,219.19086,43,50,42
219.31293,219.42523,45,50,42
219.5473,219.6596,47,50,42
219.78168,219.89398,48,50,42
220.01605,220.12836,40,50,42
220.25043,220.36273,42,50,42
220.4848,220.5971,44,50,42
220.71918,220.83148,45,50,42
220.95355,221.06586,55,50,42
221.18793,221.30023,53,50,42
221.4223,221.5346,52,50,42
221.65668,221.76898,50,50,42
221.89105,222.00336,48,50,42
222.12543,222.23773,47,50,42
222.3598,222.4721,45,50,42
222.59418,222.70648,44,50,42
222.82855,222.94086,40,50,42
223.06293,223.17523,42,50,42
223.2973,223.4096,44,50,42
223.53168,223.68793,45,50,42
223.76605,223.9223,47,50,42
224.00043,224.15668,48,50,42
224.2348,224.39105,50,50,42
224.46918,224.62543,52,50,42
224.70355,224.8598,50,50,42
224.93793,225.09418,48,50,42
225.1723,225.32855,47,50,42
225.40668,225.56293,45,50,42
225.64105,225.7973,48,50,42
225.87543,226.03168,52,50,42
226.1098,226.26605,57,50,42
226.34418,226.50043,59,50,42
226.57855,226.7348,54,50,42
226.81293,226.96918,51,50,42
227.0473,227.20355,47,50,42
227.28168,227.43793,40,50,42
227.51605,227.6723,44,50,42
227.75043,227.90668,47,50,42
227.9848,228.14105,52,50,42
228.21918,228.37543,45,50,42
228.45355,228.6098,55,51,42
228.68793,228.84418,54,52,42
228.9223,229.07855,50,53,42
229.15668,229.31293,43,55,42
229.39105,229.5473,53,56,42
229.62543,229.78168,52,57,42
229.8598,230.01605,48,59,42
230.09418,230.25043,41,60,42
230.32855,230.4848,53,61,42
230.56293,230.71918,40,63,42
230.7973,230.95355,52,64,42
231.03168,231.18793,38,65,42
231.26605,231.4223,50,67,42
231.50043,231.65668,50,68,42
231.7348,231.89105,51,69,42
231.96918,232.12543,52,70,42
232.20355,232.3598,52,70,42
232.43793,232.59418,52,70,42
232.6723,232.82855,52,70,42
232.90668,233.06293,52,70,42
233.14105,233.2973,52,70,42
233.37543,233.53168,52,70,42
233.6098,233.76605,52,70,42
233.84418,234.00043,52,70,42
234.07855,234.2348,52,70,42
234.31293,234.46918,52,70,42
234.5473,234.70355,52,70,42
234.78168,234.93793,52,70,42
235.01605,235.1723,52,70,42
235.25043,235.40668,52,70,42
235.4848,235.64105,52,70,42
235.71918,235.87543,52,70,42
236.65668,237.5893,62,80,42
237.59418,238.5268,60,80,42
238.53168,238.70258,69,80,42
238.76605,238.93695,69,80,42
239.00043,239.17133,69,80,42
239.2348,239.4057,69,80,42
239.46918,239.64008,68,80,42
239.70355,239.87445,64,80,42
239.93793,240.10883,64,80,42
240.1723,240.3432,64,80,42
240.40668,240.57758,64,80,42
240.64105,240.81195,64,80,42
240.87543,241.05183,64,80,42
241.11737,241.29965,64,80,42
241.36737,241.53827,64,80,42
241.60175,241.77264,52,70,42
241.83612,242.00702,52,70,42
242.0705,242.2414,52,70,42
242.30487,242.47577,52,70,42
242.53925,242.71014,52,70,42
242.77362,242.9559,52,70,42
243.02362,243.24237,52,70,42
243.32361,244.51736,52,70,42
244.52362,245.71736,40,70,42
245.72362,249.0908,40,70,42
250.04544,250.12357,52,70,42
250.15575,250.23387,54,70,42
250.26604,250.34416,52,70,42
250.37633,251.0335,57,70,42
251.03809,251.25409,52,70,42
251.25868,251.47467,49,70,42
251.47926,251.69527,45,70,42
251.69986,252.13643,40,70,42
252.14104,252.5776,45,70,42
252.58221,253.01878,40,70,42
253.02338,253.45996,45,70,42
253.46455,253.68056,40,70,42
253.68515,253.90114,52,70,42
253.90573,254.1317,47,70,42
254.1365,254.40526,47,70,42
254.4115,255.90526,52,70,42
257.73495,257.81796,47,70,42
257.85214,257.93515,46,70,42
257.96933,258.05234,47,70,42
258.08652,258.55038,40,70,42
258.55527,258.99182,45,70,42
258.99643,259.433,52,70,42
259.43762,259.87418,45,70,42
259.87878,260.31537,40,70,42
260.31995,260.75653,45,70,42
260.76114,261.19772,52,70,42
261.2023,261.4183,45,70,42
263.0773,263.15543,52,70,42
263.1876,263.26572,54,70,42
263.29788,263.376,52,70,42
263.4082,263.84476,64,70,42
264.73172,265.3889,57,70,42
265.3935,265.60947,64,70,42
265.61407,265.83008,66,70,42
265.83466,266.05066,64,70,42
266.05524,266.27124,67,70,42
266.27585,266.49182,66,70,42
266.49643,267.1536,64,80,42
267.15817,267.37418,66,80,42
267.37878,267.59476,67,80,42
267.59937,267.81537,66,80,42
267.81995,268.03595,69,80,42
268.04053,268.25653,67,80,42
268.26114,268.9183,66,80,42
268.92288,269.1389,67,87,42
269.1435,269.35947,66,90,42
269.36407,269.58005,67,92,42
269.58466,269.80066,61,95,42
269.80524,270.02124,62,97,42
270.02582,270.683,67,100,42
270.6876,270.9036,66,108,42
270.90817,271.1307,61,110,42
271.13547,271.358,62,113,42
271.36273,271.60352,59,115,42
271.60864,271.87567,61,118,42
271.88135,272.09735,62,120,42
273.3152,273.3933,61,70,42
273.42548,273.5036,62,70,42
273.53577,273.6139,61,70,42
273.64606,273.86206,59,70,42
275.0799,275.15802,57,70,42
275.1902,275.2683,59,70,42
275.30048,275.3786,57,70,42
275.41077,275.62677,56,70,42
276.84457,276.9227,54,70,42
276.95486,277.033,56,70,42
277.0652,277.1433,54,70,42
277.17548,277.39145,52,70,42
277.39606,277.83264,52,70,42
277.83722,277.94293,54,70,42
277.9475,278.05322,56,70,42
278.05783,278.20486,57,70,42
278.2784,278.42548,59,70,42
278.499,278.64606,60,70,42
278.71957,278.86664,57,70,42
278.9402,279.15616,64,70,42
280.92548,281.36203,52,70,42
281.36664,281.47235,54,70,42
281.47693,281.58264,56,70,42
281.58722,281.73428,57,70,42
281.8078,281.95486,59,70,42
282.0284,282.17548,60,70,42
282.249,282.39606,57,70,42
282.46957,282.62125,64,70,42
282.69016,283.12674,52,74,42
283.13135,283.23703,54,82,42
283.24164,283.34732,56,84,42
283.35193,283.499,57,86,42
283.5725,283.71957,59,90,42
283.79312,283.94016,60,94,42
284.0137,284.16077,57,98,42
284.23428,284.45682,64,110,42
284.46155,284.68408,57,110,42
284.6888,284.9183,64,110,42
284.9232,285.1601,57,110,42
285.16513,285.40204,64,110,42
286.13287,287.0655,45,50,42
287.07037,288.003,38,50,42
288.00787,288.9405,40,50,42
288.94537,289.878,37,50,42
289.88287,290.34674,42,50,42
290.35162,291.28424,47,55,42
291.28912,291.753,49,65,42
291.75787,292.22174,50,70,42
292.22662,292.6905,51,70,42
292.69537,292.92487,52,70,42
295.50787,295.73737,56,70,42
295.74225,295.97174,54,70,42
295.97662,296.20612,52,70,42
296.211,296.4405,50,70,42
296.44537,296.67487,49,70,42
296.67975,296.90924,47,70,42
296.91412,297.14362,45,70,42
297.1485,297.378,44,70,42
297.38287,297.61237,42,70,42
297.61725,297.84674,50,74,42
297.85162,298.08112,47,78,42
298.086,298.3155,45,83,42
298.32037,298.54987,44,87,42
298.55475,298.78424,40,92,42
298.78912,299.01862,45,96,42
299.0235,299.253,49,100,42
299.25787,299.48737,50,70,42
299.49225,299.72174,47,70,42
299.72662,299.95612,52,70,42
299.961,300.1905,40,70,42
300.19537,300.42487,45,70,42
300.42975,301.59674,64,110,42
301.60162,301.83112,52,70,42
301.836,302.0655,54,70,42
302.07037,302.29987,56,70,42
302.30475,302.53424,57,70,42
302.53912,303.47174,64,100,42
303.47662,303.70612,52,70,42
303.711,303.9405,54,70,42
303.94537,304.17487,56,70,42
304.17975,304.40924,57,70,42
304.41412,304.64362,54,70,42
304.6485,304.878,56,70,42
304.88287,305.11237,58,70,42
305.11725,305.34674,59,70,42
305.35162,305.58112,45,70,42
305.586,305.8155,47,73,42
305.82037,306.04987,49,76,42
306.05475,306.28424,50,80,42
306.28912,306.52603,52,83,42
306.53107,306.76794,54,87,42
306.773,307.0099,56,90,42
307.01492,307.25183,57,94,42
307.25687,307.51453,52,97,42
307.52002,307.81378,40,100,42
309.71066,310.5847,56,125,42
310.64816,310.87766,57,100,42
310.88254,311.11203,50,100,42
311.1169,311.3464,52,100,42
311.3513,311.58078,40,100,42
312.0544,312.21066,66,100,42
312.2888,312.44504,64,125,42
312.52316,312.68445,62,100,42
312.76508,312.92636,61,125,42
313.00702,313.17368,59,100,42
313.25702,313.45703,57,125,42
313.557,313.85077,56,125,42
315.807,316.27844,61,50,42
316.28333,316.7472,66,50,42
316.75208,317.21594,59,50,42
317.22083,317.6847,64,50,42
317.68958,318.15344,57,50,42
318.15833,318.6222,62,50,42
318.62708,319.1059,64,50,42
319.11096,319.628,52,50,42
319.63367,319.84967,57,70,42
320.7366,320.89746,61,70,42
320.9572,321.11804,61,70,42
321.1778,321.33862,61,70,42
321.39838,321.61438,62,70,42
322.5013,322.66217,52,70,42
322.7219,322.88275,52,70,42
322.9425,323.10333,52,70,42
323.1631,323.3791,57,70,42
324.26602,324.42688,49,70,42
324.4866,324.64746,49,70,42
324.7072,324.86804,49,70,42
324.9278,325.14377,50,70,42
326.03073,326.19156,52,70,42
326.2513,326.41217,52,70,42
326.4719,326.63275,52,70,42
326.6925,326.90848,45,70,42
329.56015,329.72098,52,70,42
329.78073,329.94156,52,70,42
330.0013,330.16217,52,70,42
330.2219,330.4379,45,70,42
333.08954,333.2504,52,70,42
333.31012,333.47098,52,70,42
333.53073,333.69156,52,70,42
333.7513,333.96732,45,70,42
334.63367,335.5114,52,70,42
335.51602,335.732,57,70,42
336.39838,339.08887,40,110,42
339.09393,339.19962,45,110,42
339.20422,339.28235,52,110,42
339.3145,339.39264,54,110,42
339.4248,339.50293,52,110,42
339.5351,340.19226,57,110,42
340.19687,340.41284,52,110,42
340.41745,340.63345,49,110,42
340.63803,340.85403,45,110,42
340.8586,341.2952,40,110,42
341.2998,341.7364,45,110,42
341.74097,342.17755,40,110,42
342.18216,342.61874,45,110,42
342.62332,342.84586,40,110,42
342.85062,343.07315,52,110,42
343.07788,343.31476,47,110,42
343.31982,343.58685,47,110,42
343.59253,345.08627,52,110,42
346.30164,346.75143,45,70,42
346.75616,346.9787,50,70,42
348.1198,348.5696,45,70,42
348.57434,348.79688,50,70,42
349.938,350.3878,52,70,42
350.39252,350.61505,45,70,42
351.75616,352.20596,40,70,42
352.2107,352.43323,45,70,42
352.89252,353.05823,49,70,42
353.11978,353.2855,37,70,42
353.8016,353.96732,49,70,42
354.02887,354.19458,38,70,42
354.7107,354.8764,50,70,42
354.93796,355.10367,40,70,42
355.61978,355.7855,52,70,42
355.84705,356.01276,45,100,42
356.41522,356.49573,37,100,42
356.52887,356.60934,40,100,42
356.6425,356.723,45,100,42
356.75613,356.97867,37,125,42
357.3243,357.40482,37,100,42
357.43796,357.51843,40,100,42
357.55157,357.63208,45,100,42
357.66522,357.88776,38,126,42
358.23514,358.3169,38,100,42
358.35052,358.43228,42,100,42
358.4659,358.54764,47,100,42
358.5813,358.81445,40,126,42
359.1825,359.27103,40,100,42
359.3075,359.40408,52,100,42
359.44385,359.5501,52,100,42
359.59387,359.8876,45,110,42
362.5376,363.5516,52,70,42
363.55783,363.8516,57,70,42
364.65784,365.65265,56,70,42
365.65784,366.65265,57,70,42
366.65784,367.76025,52,70,42
367.76807,368.03513,57,70,42
369.9499,370.14178,45,84,42
370.21304,370.39844,57,87,42
370.4673,370.64658,52,91,42
370.7132,370.8925,49,94,42
370.95908,371.1384,45,98,42
371.205,371.38428,40,102,42
371.4509,371.6462,45,105,42
371.71875,371.929,40,109,42
372.01025,372.304,45,110,42
372.76025,372.904,52,110,42
372.91025,373.054,54,110,42
373.06024,373.21,52,110,42
373.2165,373.5225,57,110,42
373.99774,374.1475,40,110,42
374.154,374.33368,42,110,42
374.3415,374.70868,40,110,42
374.7165,379.20868,45,80,42
0.0,0.105698414,57,1,45
216.96918,217.19867,60,50,45
217.43793,217.66742,69,50,45
217.90668,218.13617,65,50,45
218.37543,218.60492,62,50,45
218.84418,219.07367,59,50,45
219.31293,219.54242,55,50,45
219.78168,220.01117,60,50,45
220.25043,220.47992,52,50,45
220.71918,220.94867,57,50,45
221.18793,221.41742,65,50,45
221.65668,221.88617,62,50,45
222.12543,222.35492,59,50,45
222.59418,222.82367,56,50,45
223.06293,223.29242,52,50,45
223.53168,223.76117,57,50,45
224.00043,224.22992,60,50,45
224.46918,224.69867,64,50,45
