start_time,end_time,note_value,velocity,instrument_program_number
0.0,1.1875,64,80,0
0.0,1.1875,60,80,0
0.0,1.1875,55,80,0
1.2,1.7875,65,80,0
1.2,1.7875,62,80,0
1.2,1.7875,55,80,0
3.6,4.4875,67,80,0
3.6,4.7875,55,80,0
4.5,4.7875,62,80,0
4.8,5.3875,64,80,0
4.8,5.3875,55,80,0
7.2,8.3875,64,80,0
7.2,8.3875,60,80,0
7.2,8.3875,55,80,0
7.2,8.3875,52,80,0
8.4,8.9875,62,80,0
8.4,8.9875,57,80,0
8.4,8.9875,50,80,0
10.8,11.6875,62,80,0
10.8,11.9875,50,80,0
11.7,11.9875,57,80,0
12.0,13.7875,60,92,0
12.0,14.3875,55,91,0
12.0,14.3875,50,91,0
13.8,14.3875,59,80,0
14.4,15.5875,60,80,0
14.4,15.5875,55,80,0
14.4,15.5875,52,80,0
15.6,16.7875,62,80,0
15.6,16.7875,59,80,0
15.6,16.7875,55,80,0
15.6,16.7875,53,80,0
16.8,17.9875,64,80,0
16.8,17.9875,60,80,0
16.8,17.9875,55,80,0
18.0,19.1875,64,80,0
18.0,19.1875,55,80,0
18.0,20.3875,57,80,0
19.2,20.3875,62,80,0
19.2,20.3875,53,80,0
20.4,21.5875,60,80,0
20.4,21.5875,57,80,0
20.4,21.5875,52,80,0
21.6,22.7875,57,80,0
22.8,23.3875,55,80,0
23.4,23.9875,56,94,0
21.6,24.5875,59,80,0
21.6,24.5875,50,80,0
24.0,24.5875,55,80,0
24.6,25.1875,59,80,0
24.6,25.1875,53,80,0
24.6,25.1875,50,80,0
25.2,26.3875,62,80,0
25.2,26.3875,59,80,0
25.2,26.3875,53,80,0
26.4,26.9875,60,80,0
26.4,26.9875,52,80,0
28.5,28.7875,60,80,0
28.8,29.6875,67,80,0
29.7,29.9875,66,80,0
30.0,31.1875,74,80,0
30.0,31.1875,66,80,0
30.0,31.1875,60,80,0
31.2,32.3875,74,80,0
31.2,32.3875,66,80,0
31.2,32.3875,60,80,0
32.4,32.9875,74,80,0
33.0,33.2875,76,80,0
33.15,33.4375,74,80,0
32.4,33.5875,71,80,0
32.4,33.5875,67,80,0
32.4,33.5875,62,80,0
33.3,33.5875,73,80,0
33.45,33.7375,74,80,0
33.6,34.4875,79,99,0
34.5,34.7875,71,80,0
34.8,35.0875,72,80,0
35.1,35.3875,73,80,0
35.4,35.6875,76,80,0
35.7,35.9875,74,80,0
36.0,36.8875,67,80,0
36.9,37.1875,66,80,0
37.2,38.3875,74,80,0
37.2,38.3875,66,80,0
37.2,38.3875,60,80,0
38.4,39.5875,74,80,0
38.4,39.5875,66,80,0
38.4,39.5875,60,80,0
39.6,40.1875,74,80,0
40.2,40.4875,76,80,0
40.35,40.6375,74,80,0
39.6,40.7875,71,80,0
39.6,40.7875,67,80,0
39.6,40.7875,62,80,0
40.5,40.7875,73,80,0
40.65,40.9375,74,80,0
40.8,41.6875,83,101,0
41.7,41.9875,79,80,0
42.0,42.2875,78,80,0
42.15,42.4375,79,80,0
42.3,42.5875,81,80,0
42.45,42.7375,79,80,0
42.6,42.8875,73,80,0
42.75,43.0375,74,80,0
42.9,43.1875,76,80,0
43.05,43.3375,74,80,0
43.2,44.0875,67,80,0
44.1,44.3875,66,85,0
44.4,44.9875,74,87,0
44.4,45.5875,66,87,0
44.4,45.5875,60,87,0
45.0,46.1875,74,90,0
45.6,46.7875,65,93,0
45.6,46.7875,60,93,0
46.2,47.3875,74,96,0
47.25,47.3875,74,95,0
47.325,47.4625,76,100,0
47.4,48.2875,77,101,0
48.45,48.5875,76,80,0
48.6,48.8875,74,80,0
49.05,49.1875,72,80,0
49.2,49.4875,71,80,0
49.65,49.7875,69,80,0
49.8,50.0875,67,80,0
50.25,50.3875,65,80,0
50.4,51.5875,64,80,0
50.4,51.5875,55,80,0
51.6,52.1875,65,80,0
51.6,52.1875,55,80,0
54.0,54.8875,67,80,0
54.0,55.1875,55,80,0
54.9,55.1875,62,80,0
55.2,55.7875,64,80,0
55.2,55.7875,55,80,0
57.6,58.4875,69,80,0
57.6,58.7875,57,80,0
58.5,58.7875,64,80,0
58.8,59.3875,57,80,0
58.8,59.6875,65,80,0
59.7,59.8375,70,80,0
59.85,59.9875,69,80,0
60.0,60.8875,67,80,0
60.9,61.0375,72,80,0
61.05,61.1875,70,80,0
61.2,62.0875,69,80,0
62.1,62.2375,74,80,0
62.25,62.3875,72,80,0
62.4,62.9875,71,80,0
63.0,64.1875,77,80,0
63.0,64.1875,65,80,0
64.2,64.7875,76,80,0
64.2,64.7875,64,80,0
64.8,65.9875,62,80,0
64.8,65.9875,60,80,0
65.85,65.9875,69,80,0
66.0,67.0375,67,80,0
66.0,67.1875,64,80,0
66.0,67.1875,60,80,0
67.05,67.1875,67,80,0
67.2,68.2375,67,80,0
67.2,68.3875,62,80,0
67.2,68.3875,59,80,0
67.2,68.3875,53,80,0
68.25,68.3875,67,80,0
68.4,69.5875,61,80,0
68.4,69.5875,55,80,0
68.4,69.5875,52,80,0
70.2,70.4875,61,110,0
70.2,70.4875,55,110,0
70.2,70.4875,52,110,0
70.8,71.0875,62,110,0
70.8,71.0875,57,110,0
70.8,71.0875,53,110,0
71.4,71.6875,64,110,0
71.4,71.6875,57,110,0
71.4,71.6875,52,110,0
73.8,74.0875,64,110,0
73.8,74.0875,57,110,0
73.8,74.0875,52,110,0
74.4,74.6875,65,110,0
74.4,74.6875,62,110,0
74.4,74.6875,57,110,0
74.4,74.6875,53,110,0
75.0,75.2875,67,110,0
75.0,75.2875,64,110,0
75.0,75.2875,60,110,0
75.0,75.2875,55,110,0
77.4,77.9875,67,80,0
77.4,77.9875,64,80,0
77.4,77.9875,60,80,0
77.4,77.9875,55,80,0
78.0,78.5875,69,81,0
78.0,78.5875,65,81,0
78.0,78.5875,60,81,0
78.0,78.5875,57,81,0
78.6,79.1875,67,83,0
78.6,79.1875,64,83,0
78.6,79.1875,60,83,0
79.2,80.3875,66,84,0
79.2,80.3875,62,84,0
79.2,80.3875,60,84,0
80.4,81.4375,67,87,0
80.4,81.5875,64,87,0
80.4,81.5875,60,87,0
81.45,81.5875,67,90,0
81.6,82.6375,67,91,0
81.6,82.7875,62,91,0
81.6,82.7875,59,91,0
81.6,82.7875,53,91,0
82.65,82.7875,67,93,0
82.8,83.6875,60,94,0
82.8,83.9875,55,94,0
82.8,83.9875,52,94,0
83.7,83.9875,60,96,0
84.0,84.2875,59,97,0
84.3,84.5875,60,98,0
84.6,84.8875,59,99,0
84.9,85.1875,60,99,0
85.2,85.4875,63,100,0
85.5,85.7875,61,94,0
85.8,86.0875,60,87,0
86.1,86.3875,58,81,0
86.4,88.1875,63,80,0
86.4,88.1875,60,80,0
86.4,88.1875,56,80,0
86.4,88.1875,51,80,0
88.2,88.7875,63,80,0
88.2,88.7875,60,80,0
88.2,88.7875,56,80,0
88.2,88.7875,51,80,0
88.8,89.3875,63,80,0
88.8,89.3875,60,80,0
88.8,89.3875,56,80,0
88.8,89.3875,51,80,0
89.4,89.9875,68,80,0
89.4,89.9875,63,80,0
89.4,89.9875,60,80,0
89.4,89.9875,56,80,0
90.0,91.1875,68,80,0
90.0,91.1875,56,80,0
90.0,92.3875,63,80,0
90.0,92.3875,61,80,0
91.2,92.3875,67,80,0
91.2,92.3875,55,80,0
92.4,93.4375,69,80,0
92.4,93.4375,66,80,0
92.4,93.4375,63,80,0
92.4,93.4375,57,80,0
93.45,93.5875,69,80,0
93.45,93.5875,66,80,0
93.45,93.5875,63,80,0
93.45,93.5875,57,80,0
93.6,94.6375,69,95,0
93.6,94.6375,57,95,0
93.6,95.8375,65,94,0
94.8,95.8375,70,80,0
94.8,95.8375,58,80,0
95.85,95.9875,70,80,0
95.85,95.9875,58,80,0
96.0,97.0375,73,80,0
96.0,97.0375,63,80,0
96.0,97.0375,61,80,0
97.05,97.1875,67,80,0
97.05,97.1875,63,80,0
97.05,97.1875,61,80,0
97.2,98.3875,70,80,0
97.2,98.3875,61,80,0
97.2,98.9875,63,80,0
98.4,98.9875,68,80,0
98.4,98.9875,60,80,0
100.8,102.5875,72,80,0
100.8,102.5875,67,80,0
100.8,102.5875,64,80,0
100.8,102.5875,60,80,0
102.6,103.1875,72,80,0
102.6,103.1875,67,80,0
102.6,103.1875,64,80,0
102.6,103.1875,60,80,0
103.2,103.7875,72,80,0
103.2,103.7875,67,80,0
103.2,103.7875,64,80,0
103.2,103.7875,60,80,0
103.8,104.3875,72,80,0
103.8,104.3875,67,80,0
103.8,104.3875,64,80,0
103.8,104.3875,60,80,0
104.4,105.5875,76,98,0
104.4,105.5875,73,97,0
104.4,105.5875,67,93,0
104.4,105.5875,64,97,0
105.6,106.1875,77,80,0
105.6,106.1875,72,80,0
105.6,106.1875,68,80,0
105.6,106.1875,65,80,0
107.85,107.9875,65,80,0
107.85,107.9875,53,80,0
108.0,109.1875,67,110,0
109.05,109.1875,67,110,0
108.0,109.1875,65,110,0
109.05,109.1875,65,110,0
108.0,109.1875,55,110,0
109.05,109.1875,55,110,0
109.2,110.3875,68,110,0
110.25,110.3875,68,110,0
109.2,110.3875,65,110,0
110.25,110.3875,65,110,0
109.2,110.3875,60,110,0
110.25,110.3875,60,110,0
109.2,110.3875,56,110,0
110.25,110.3875,56,110,0
110.4,111.5875,70,110,0
110.4,111.5875,64,110,0
111.45,111.5875,64,110,0
110.4,111.5875,60,110,0
111.45,111.5875,60,110,0
110.4,111.5875,58,110,0
111.45,111.5875,58,110,0
111.45,111.5875,67,110,0
111.6,112.7875,65,110,0
111.6,112.7875,60,110,0
111.6,112.7875,56,110,0
115.2,116.9875,68,70,0
115.2,116.9875,65,70,0
115.2,116.9875,61,70,0
115.2,116.9875,56,70,0
117.0,117.5875,68,79,0
117.0,117.5875,65,79,0
117.0,117.5875,61,79,0
117.0,117.5875,56,79,0
117.6,118.1875,68,82,0
117.6,118.1875,65,82,0
117.6,118.1875,61,82,0
117.6,118.1875,56,82,0
118.2,118.7875,73,85,0
118.2,118.7875,68,85,0
118.2,118.7875,65,85,0
118.2,118.7875,61,85,0
118.8,119.9875,73,88,0
118.8,119.9875,61,88,0
118.8,121.1875,68,88,0
118.8,121.1875,66,88,0
120.0,121.1875,72,95,0
120.0,121.1875,60,95,0
121.2,122.2375,74,100,0
121.2,122.2375,71,100,0
121.2,122.2375,68,100,0
121.2,122.2375,62,100,0
122.25,122.3875,74,100,0
122.25,122.3875,71,100,0
122.25,122.3875,68,100,0
122.25,122.3875,62,100,0
122.4,123.5875,74,100,0
122.4,123.5875,62,100,0
122.4,124.7875,70,100,0
123.6,124.7875,75,103,0
123.6,124.7875,63,103,0
124.8,125.8375,76,106,0
124.8,125.8375,73,106,0
124.8,125.8375,70,106,0
124.8,125.8375,64,106,0
125.85,125.9875,76,109,0
125.85,125.9875,73,109,0
125.85,125.9875,70,109,0
125.85,125.9875,64,109,0
126.0,126.5875,76,110,0
126.0,126.5875,64,110,0
126.0,127.7875,72,110,0
126.6,127.7875,77,111,0
126.6,127.7875,65,111,0
127.8,128.3875,75,110,0
127.8,128.3875,66,110,0
127.8,128.3875,63,110,0
128.4,128.9875,74,110,0
128.4,128.9875,66,110,0
128.4,128.9875,62,110,0
129.0,129.5875,72,110,0
129.0,129.5875,66,110,0
129.0,129.5875,60,110,0
129.6,131.9875,67,110,0
129.6,131.9875,55,110,0
132.0,132.8875,67,110,0
132.0,132.8875,55,110,0
132.9,133.1875,67,110,0
132.9,133.1875,55,110,0
133.2,134.3875,66,110,0
133.2,134.3875,54,110,0
134.4,134.6875,84,80,0
134.55,134.8375,86,80,0
134.7,134.9875,87,80,0
135.6,135.8875,84,80,0
135.75,136.0375,86,80,0
135.9,136.1875,87,80,0
136.8,139.1875,67,70,0
136.8,139.1875,55,70,0
139.2,140.0875,68,100,0
139.2,140.0875,56,100,0
140.1,140.3875,67,70,0
140.1,140.3875,55,70,0
140.4,141.5875,66,70,0
140.4,141.5875,54,70,0
141.6,141.8875,84,70,0
141.75,142.0375,86,70,0
141.9,142.1875,87,70,0
142.8,143.0875,84,70,0
142.95,143.2375,86,70,0
143.1,143.3875,87,70,0
145.2,145.4875,84,70,0
145.35,145.6375,86,70,0
145.5,146.375,87,70,0
146.4,146.6875,84,70,0
146.55,146.8375,86,70,0
146.7,147.575,87,70,0
147.6,148.7875,74,70,0
147.6,148.7875,86,70,0
148.8,149.3875,75,70,0
148.8,149.3875,87,70,0
151.2,152.0875,89,70,0
151.2,152.3875,75,70,0
152.1,152.3875,84,70,0
152.4,152.9875,74,70,0
152.4,152.9875,86,70,0
154.8,155.6875,91,70,0
154.8,155.9875,79,70,0
155.7,155.9875,86,70,0
156.0,156.5875,79,70,0
156.0,156.5875,87,70,0
159.6,160.6375,79,90,0
159.6,160.6375,91,90,0
160.65,160.7875,86,80,0
160.65,160.7875,74,80,0
160.8,161.8375,75,90,0
160.8,161.8375,87,90,0
161.85,161.9875,71,80,0
161.85,161.9875,83,80,0
162.0,163.0375,84,90,0
162.0,163.0375,72,90,0
163.05,163.1875,79,80,0
163.05,163.1875,67,80,0
163.2,164.2375,68,90,0
163.2,164.2375,80,90,0
164.25,164.3875,80,80,0
164.25,164.3875,68,80,0
164.4,165.4375,68,90,0
164.4,165.4375,80,90,0
165.45,165.5875,80,80,0
165.45,165.5875,68,80,0
165.6,166.1875,68,90,0
165.6,166.4875,80,90,0
166.5,166.7875,77,80,0
166.8,167.0875,74,80,0
167.4,167.6875,71,80,0
168.0,168.2875,68,80,0
168.6,168.8875,65,80,0
169.2,169.4875,62,80,0
169.8,170.0875,59,80,0
170.4,170.6875,56,80,0
173.4,173.9875,53,80,0
174.0,174.5875,50,80,0
174.6,175.1875,47,80,0
175.2,175.7875,44,80,0
175.8,176.3875,43,80,0
177.0,177.5875,69,70,0
177.0,177.5875,62,70,0
177.0,177.5875,60,70,0
178.2,178.7875,67,70,0
178.2,178.7875,62,70,0
178.2,178.7875,60,70,0
179.4,179.9875,65,70,0
179.4,179.9875,62,70,0
179.4,179.9875,59,70,0
180.0,181.1875,64,70,0
180.0,181.1875,60,70,0
180.0,181.1875,55,70,0
181.2,181.7875,65,70,0
181.2,181.7875,62,70,0
181.2,181.7875,55,70,0
183.6,184.4875,67,70,0
183.6,184.7875,55,70,0
184.5,184.7875,62,70,0
184.8,185.3875,64,70,0
184.8,185.3875,55,70,0
187.2,188.3875,64,70,0
187.2,188.3875,60,70,0
187.2,188.3875,55,70,0
187.2,188.3875,52,70,0
188.4,188.9875,62,70,0
188.4,188.9875,57,70,0
188.4,188.9875,50,70,0
190.8,191.6875,62,70,0
190.8,191.9875,50,70,0
191.7,191.9875,57,71,0
192.0,193.7875,60,72,0
192.0,194.3875,55,72,0
192.0,194.3875,50,72,0
193.8,194.3875,59,76,0
194.4,195.5875,60,77,0
194.4,195.5875,55,77,0
194.4,195.5875,52,77,0
195.6,196.7875,62,79,0
195.6,196.7875,59,79,0
195.6,196.7875,55,79,0
195.6,196.7875,53,79,0
196.8,197.9875,64,82,0
196.8,197.9875,60,82,0
196.8,197.9875,55,82,0
198.0,199.1875,64,84,0
198.0,199.1875,55,84,0
198.0,200.3875,57,84,0
199.2,200.3875,62,87,0
199.2,200.3875,53,87,0
200.4,201.5875,60,89,0
200.4,201.5875,57,89,0
200.4,201.5875,52,89,0
201.6,202.7875,57,90,0
202.2,203.3875,56,89,0
203.4,203.9875,55,87,0
201.6,204.5875,59,90,0
204.0,204.5875,59,86,0
201.6,204.5875,50,90,0
204.0,204.5875,54,86,0
204.6,205.1875,59,84,0
204.6,205.1875,53,84,0
204.6,205.1875,50,84,0
205.2,206.3875,62,83,0
205.2,206.3875,59,83,0
205.2,206.3875,53,83,0
206.4,206.9875,60,81,0
206.4,206.9875,52,81,0
208.5,208.7875,60,100,0
208.8,209.6875,67,100,0
209.7,209.9875,66,100,0
210.0,211.1875,74,100,0
210.0,211.1875,66,100,0
210.0,211.1875,60,100,0
211.2,212.3875,74,100,0
211.2,212.3875,66,100,0
211.2,212.3875,60,100,0
212.4,212.9875,74,100,0
213.0,213.2875,76,100,0
213.15,213.4375,74,100,0
212.4,213.5875,71,100,0
212.4,213.5875,67,100,0
212.4,213.5875,62,100,0
213.3,213.5875,73,100,0
213.45,213.7375,74,100,0
213.6,214.4875,79,109,0
214.5,214.7875,73,100,0
214.8,214.9875,76,100,0
215.0,215.1875,74,100,0
215.2,215.3875,70,100,0
215.4,215.5875,72,100,0
215.6,215.7875,71,100,0
215.8,215.9875,67,100,0
216.0,216.15,66,100,0
216.1,216.25,67,100,0
216.2,216.35,69,100,0
216.3,216.8875,67,100,0
216.9,217.1875,66,100,0
217.2,218.3875,74,100,0
217.2,218.3875,66,100,0
217.2,218.3875,60,100,0
218.4,219.5875,74,100,0
218.4,219.5875,66,100,0
218.4,219.5875,60,100,0
219.6,220.1875,74,100,0
220.2,220.4875,76,100,0
220.35,220.6375,74,100,0
219.6,220.7875,71,100,0
219.6,220.7875,67,100,0
219.6,220.7875,62,100,0
220.5,220.7875,73,100,0
220.65,220.9375,74,100,0
220.8,221.6875,83,110,0
221.7,221.9875,78,100,0
222.0,222.275,81,100,0
222.2,222.475,79,100,0
222.4,222.6625,73,100,0
222.6,222.75,76,100,0
222.7,222.8625,74,100,0
222.8,222.9125,70,100,0
222.9,223.0375,72,100,0
223.0,223.125,71,100,0
223.1,223.1875,67,100,0
223.2,223.3375,66,100,0
223.3,223.45,67,100,0
223.4,223.55,69,100,0
223.5,224.0875,67,100,0
224.1,224.3875,66,100,0
224.4,224.9875,74,100,0
224.4,225.5875,66,100,0
224.4,225.5875,60,100,0
225.0,226.1875,74,100,0
225.6,226.7875,65,100,0
225.6,226.7875,60,100,0
226.2,227.3875,74,100,0
227.25,227.3875,74,100,0
227.325,227.4625,76,100,0
227.4,228.2875,77,100,0
228.45,228.5875,77,80,0
228.525,228.6625,76,80,0
228.6,228.8875,74,80,0
229.05,229.1875,74,80,0
229.125,229.2625,72,80,0
229.2,229.4875,71,80,0
229.65,229.7875,71,80,0
229.725,229.8625,69,80,0
229.8,230.0875,67,80,0
230.25,230.3875,67,80,0
230.325,230.3875,65,80,0
230.4,231.5875,64,80,0
230.4,231.5875,55,80,0
231.6,232.1875,65,80,0
231.6,232.1875,55,80,0
232.5,232.7875,79,100,0
232.8,233.0875,78,100,0
233.1,233.3875,79,100,0
233.4,233.6875,81,100,0
233.7,233.9875,79,100,0
234.0,234.8875,67,80,0
234.0,235.1875,55,80,0
234.9,235.1875,62,80,0
235.2,235.7875,64,80,0
235.2,235.7875,55,80,0
236.1,236.3875,79,100,0
236.1,236.3875,67,100,0
236.4,236.6875,78,100,0
236.4,236.6875,66,100,0
236.7,236.9875,79,100,0
236.7,236.9875,67,100,0
237.0,237.2875,81,100,0
237.0,237.2875,69,100,0
237.3,237.5875,79,100,0
237.3,237.5875,67,100,0
237.6,238.4875,69,100,0
237.6,238.7875,57,100,0
238.5,238.7875,64,100,0
238.8,239.6875,65,100,0
239.7,239.8375,70,100,0
239.85,239.9875,69,100,0
240.0,240.8875,67,100,0
240.9,241.0375,72,100,0
241.05,241.1875,70,100,0
241.2,242.0875,69,100,0
242.1,242.2375,74,100,0
242.25,242.3875,72,100,0
242.4,242.9875,71,100,0
243.0,244.1875,77,100,0
243.0,244.1875,65,100,0
244.2,244.7875,76,100,0
244.2,244.7875,64,100,0
244.8,245.9875,62,100,0
244.8,245.9875,60,100,0
245.85,245.9875,69,100,0
246.0,247.0375,67,100,0
246.0,247.1875,64,100,0
246.0,247.1875,60,100,0
247.05,247.1875,67,100,0
247.2,248.2375,67,100,0
247.2,248.3875,62,100,0
247.2,248.3875,59,100,0
247.2,248.3875,53,100,0
248.25,248.3875,67,100,0
248.4,249.5875,61,100,0
248.4,249.5875,55,100,0
248.4,249.5875,52,100,0
250.2,250.4875,61,110,0
250.2,250.4875,55,110,0
250.2,250.4875,52,110,0
250.8,251.0875,62,110,0
250.8,251.0875,57,110,0
250.8,251.0875,53,110,0
251.4,251.6875,64,110,0
251.4,251.6875,57,110,0
251.4,251.6875,52,110,0
253.8,254.0875,64,110,0
253.8,254.0875,57,110,0
253.8,254.0875,52,110,0
254.4,254.6875,65,110,0
254.4,254.6875,62,110,0
254.4,254.6875,57,110,0
254.4,254.6875,53,110,0
255.0,255.2875,67,110,0
255.0,255.2875,64,110,0
255.0,255.2875,60,110,0
255.0,255.2875,55,110,0
257.4,257.9875,67,70,0
257.4,257.9875,64,70,0
257.4,257.9875,60,70,0
257.4,257.9875,55,70,0
258.0,258.5875,69,77,0
258.0,258.5875,65,77,0
258.0,258.5875,60,77,0
258.0,258.5875,57,77,0
258.6,259.1875,67,84,0
258.6,259.1875,64,84,0
258.6,259.1875,60,84,0
259.2,259.7875,66,92,0
259.2,259.7875,60,92,0
259.8,260.3875,60,99,0
259.8,260.3875,66,99,0
259.8,260.3875,74,99,0
260.4,260.5375,60,100,0
260.475,260.6125,67,100,0
260.55,260.9875,76,100,0
261.0,261.2875,77,100,0
261.15,261.4375,76,100,0
261.3,261.5875,74,100,0
261.45,261.7375,76,100,0
261.6,261.8875,79,100,0
261.9,262.1875,77,100,0
262.2,262.4875,74,100,0
262.5,262.7875,71,91,0
262.8,263.0875,72,80,0
263.1,263.3875,67,81,0
263.4,263.6875,79,83,0
263.7,263.9875,79,85,0
264.3,264.5875,67,89,0
264.6,264.8875,79,90,0
264.9,265.1875,79,92,0
265.5,265.7875,67,96,0
265.8,266.0875,79,98,0
266.1,266.3875,79,99,0
266.7,266.9875,67,110,0
267.0,267.2875,79,110,0
267.3,267.5875,79,110,0
267.9,268.1875,67,110,0
268.2,268.4875,79,110,0
268.5,268.7875,79,110,0
269.1,269.3875,67,110,0
269.1,269.3875,69,110,0
269.4,269.6875,79,110,0
269.4,269.6875,81,110,0
269.7,269.9875,79,110,0
269.7,269.9875,81,110,0
270.3,270.5875,69,110,0
270.6,270.8875,81,111,0
270.9,271.1875,81,111,0
271.5,272.0875,69,113,0
271.8,272.0875,81,113,0
272.1,272.3875,82,114,0
272.1,272.3875,70,114,0
272.7,272.9875,72,115,0
273.0,273.2875,84,116,0
273.0,273.2875,82,116,0
273.3,273.5875,82,116,0
273.3,273.5875,84,116,0
273.9,274.1875,72,118,0
274.2,274.4875,84,118,0
274.5,274.7875,84,119,0
275.1,275.3875,72,120,0
275.1,275.3875,74,120,0
275.4,275.6875,84,120,0
275.4,275.6875,86,120,0
275.7,275.9875,84,120,0
275.7,275.9875,86,120,0
276.3125,276.625,72,120,0
276.3125,276.625,74,120,0
276.63858,276.9653,84,120,0
276.63858,276.9653,86,120,0
276.9795,277.33887,84,120,0
276.9795,277.33887,86,120,0
277.3545,277.942,83,120,0
277.3545,277.942,86,120,0
277.9545,278.542,67,80,0
278.5545,279.142,67,80,0
279.1545,279.742,67,80,0
279.7545,280.342,67,80,0
280.3545,280.942,67,80,0
280.9545,281.542,67,80,0
280.9545,281.842,71,80,0
281.5545,282.142,67,80,0
281.8545,282.142,74,80,0
282.1545,282.742,67,80,0
282.1545,282.742,72,80,0
282.7545,283.342,67,80,0
283.3545,283.942,67,80,0
283.9545,284.542,67,80,0
284.5545,285.142,67,80,0
284.5545,285.442,77,80,0
285.1545,285.742,67,80,0
285.4545,285.742,74,80,0
285.7545,286.342,67,80,0
285.7545,286.342,76,80,0
288.1545,289.042,71,80,0
288.1545,289.042,83,80,0
289.0545,289.342,74,80,0
289.0545,289.342,86,80,0
289.3545,289.942,72,80,0
289.3545,289.942,84,80,0
291.7545,292.642,77,80,0
291.7545,292.642,89,80,0
292.6545,292.942,86,80,0
292.6545,292.942,74,80,0
292.9545,293.542,76,80,0
292.9545,293.542,88,80,0
293.5545,294.142,72,80,0
293.5545,294.142,84,80,0
294.7545,295.342,69,70,0
294.7545,295.342,81,70,0
295.9545,296.542,80,70,0
295.9545,296.542,68,70,0
297.1545,297.742,79,70,0
297.1545,297.742,67,70,0
298.3545,298.942,71,70,0
298.3545,298.942,65,70,0
298.3545,298.942,62,70,0
298.9545,299.542,64,70,0
298.9545,299.542,72,70,0
299.5545,300.742,88,70,0
300.1545,300.742,79,70,0
300.7545,301.042,86,70,0
300.7545,301.342,76,70,0
301.0545,301.342,84,70,0
301.3545,301.642,84,70,0
301.3545,301.942,77,70,0
301.6545,301.942,83,70,0
301.9545,302.242,81,70,0
301.9545,302.542,74,70,0
302.2545,302.542,83,70,0
302.5545,302.842,84,70,0
302.8545,302.992,86,70,0
302.9295,303.067,84,70,0
303.0045,303.142,83,70,0
303.0795,303.217,84,70,0
303.1545,304.342,88,70,0
303.7545,304.342,79,70,0
304.3545,304.642,86,70,0
304.3545,304.942,76,70,0
304.6545,304.942,84,70,0
304.9545,305.242,84,70,0
304.9545,305.542,77,70,0
305.2545,305.542,83,70,0
305.5545,305.842,81,70,0
305.5545,306.142,74,70,0
305.8545,306.142,83,70,0
306.1545,307.4178,86,70,0
306.1545,307.4178,74,70,0
307.4311,308.0561,72,70,0
307.4311,308.0561,84,70,0
309.98428,311.2476,64,70,0
309.98428,311.2476,61,70,0
309.98428,311.2476,55,70,0
311.26086,311.88586,65,70,0
311.26086,311.88586,62,70,0
311.26086,311.88586,53,70,0
313.81406,314.7582,67,70,0
313.81406,315.07736,62,70,0
314.7715,315.07736,62,70,0
313.81406,315.07736,53,70,0
315.09067,315.71567,64,70,0
315.09067,315.71567,60,70,0
315.09067,315.71567,52,70,0
317.64386,318.90714,64,100,0
317.64386,318.90714,52,100,0
320.51617,320.66248,64,70,0
318.92044,320.74225,62,70,0
320.59598,320.74225,62,70,0
317.64386,320.82205,57,100,0
318.92044,320.82205,50,70,0
320.75555,320.82205,62,70,0
320.67575,320.82205,61,70,0
320.83533,320.98163,62,70,0
320.9949,321.16678,69,70,0
321.1824,321.36823,65,70,0
321.3851,321.6143,62,70,0
321.6351,322.6143,53,70,0
321.6351,322.6143,50,70,0
321.6351,322.6143,59,70,0
323.6351,325.6143,60,70,0
323.6351,325.6143,52,70,0
328.6351,329.6143,65,100,0
0.0,1.1875,48,80,0
0.0,1.1875,43,80,0
0.0,1.1875,36,80,0
1.2,1.7875,47,80,0
1.2,1.7875,43,80,0
1.2,1.7875,35,80,0
3.6,4.7875,47,80,0
3.6,4.7875,43,80,0
3.6,4.7875,35,80,0
4.8,5.3875,48,80,0
4.8,5.3875,43,80,0
4.8,5.3875,36,80,0
7.2,8.3875,48,80,0
7.2,8.3875,36,80,0
8.4,8.9875,42,80,0
8.4,8.9875,30,80,0
10.8,11.9875,42,80,0
10.8,11.9875,30,80,0
12.0,14.3875,41,80,0
12.0,14.3875,29,80,0
14.4,15.5875,40,80,0
15.6,16.7875,50,80,0
15.6,16.7875,38,80,0
16.8,17.9875,48,80,0
16.8,17.9875,36,80,0
18.0,21.5875,41,80,0
18.0,21.5875,29,80,0
21.6,23.9875,43,80,0
21.6,23.9875,31,80,0
24.0,25.1875,43,80,0
24.0,25.1875,31,80,0
25.2,26.3875,43,80,0
25.2,26.9875,36,80,0
26.4,26.9875,48,80,0
30.0,31.1875,57,80,0
30.0,31.1875,50,80,0
30.0,31.1875,45,80,0
31.2,32.3875,50,80,0
31.2,32.3875,45,80,0
31.2,32.3875,57,80,0
32.4,34.7875,59,80,0
32.4,34.7875,50,80,0
32.4,34.7875,43,80,0
37.2,38.3875,57,80,0
37.2,38.3875,50,80,0
37.2,38.3875,45,80,0
38.4,39.5875,50,80,0
38.4,39.5875,45,80,0
38.4,39.5875,57,80,0
39.6,41.9875,59,80,0
39.6,41.9875,50,80,0
39.6,41.9875,43,80,0
44.4,45.5875,57,87,0
44.4,45.5875,50,87,0
44.4,45.5875,45,87,0
45.6,46.7875,56,93,0
45.6,46.7875,50,93,0
45.6,46.7875,44,93,0
46.8,47.3875,43,99,0
46.875,47.3875,47,100,0
46.95,47.3875,50,100,0
47.025,47.3875,53,80,0
47.1,47.3875,55,80,0
48.0,48.5875,55,80,0
48.075,48.5875,59,80,0
48.15,48.5875,62,80,0
48.225,48.5875,65,80,0
50.4,51.5875,48,80,0
50.4,51.5875,36,80,0
51.6,52.1875,50,80,0
51.6,52.1875,35,80,0
54.0,55.1875,47,80,0
54.0,55.1875,43,80,0
54.0,55.1875,35,80,0
55.2,55.7875,48,80,0
55.2,55.7875,43,80,0
55.2,55.7875,36,80,0
57.6,58.7875,49,80,0
57.6,58.7875,45,80,0
57.6,58.7875,37,80,0
58.8,59.3875,38,80,0
58.8,59.9875,50,80,0
59.4,59.9875,53,80,0
59.4,60.5875,58,80,0
60.0,61.1875,55,80,0
60.0,61.1875,52,80,0
60.6,61.7875,60,80,0
61.2,61.7875,53,80,0
61.2,62.3875,57,80,0
61.8,62.3875,54,80,0
61.8,62.9875,62,80,0
62.4,62.9875,55,80,0
62.4,62.9875,59,80,0
63.0,63.5875,56,80,0
63.0,64.1875,62,80,0
63.0,64.1875,59,80,0
63.6,64.7875,57,80,0
64.2,64.7875,60,80,0
64.8,65.9875,54,80,0
66.0,67.1875,55,80,0
67.2,68.3875,43,80,0
67.2,68.3875,31,80,0
68.4,69.5875,34,80,0
68.4,69.5875,46,80,0
70.2,70.4875,45,110,0
70.2,70.4875,33,110,0
70.8,71.0875,50,110,0
70.8,71.0875,45,110,0
70.8,71.0875,38,110,0
71.4,71.6875,49,110,0
71.4,71.6875,45,110,0
71.4,71.6875,37,110,0
73.8,74.0875,49,110,0
73.8,74.0875,45,110,0
73.8,74.0875,37,110,0
74.4,74.6875,50,110,0
74.4,74.6875,45,110,0
74.4,74.6875,38,110,0
75.0,75.2875,48,110,0
75.0,75.2875,36,110,0
77.4,77.9875,48,80,0
77.4,77.9875,36,80,0
78.0,78.5875,53,81,0
78.0,78.5875,41,81,0
78.0,78.5875,48,81,0
78.6,79.1875,55,83,0
78.6,79.1875,43,83,0
78.6,79.1875,48,83,0
79.2,80.3875,57,84,0
79.2,80.3875,48,84,0
79.2,80.3875,45,84,0
80.4,81.5875,55,87,0
80.4,81.5875,48,87,0
80.4,81.5875,43,87,0
81.6,82.7875,43,91,0
81.6,82.7875,31,91,0
82.8,83.6875,48,94,0
82.8,83.6875,36,94,0
83.7,83.9875,48,96,0
84.0,84.2875,47,97,0
84.3,84.5875,48,98,0
84.6,84.8875,47,99,0
84.9,85.1875,48,99,0
85.2,85.4875,51,100,0
85.5,85.7875,49,94,0
85.8,86.0875,48,87,0
86.1,86.3875,46,81,0
86.4,86.6875,32,80,0
86.7,86.9875,44,80,0
87.0,87.2875,48,80,0
87.3,87.5875,44,80,0
87.6,87.8875,32,80,0
87.9,88.1875,44,80,0
88.2,88.4875,48,80,0
88.5,88.7875,44,80,0
88.8,89.0875,32,80,0
89.1,89.3875,44,80,0
89.4,89.6875,48,80,0
89.7,89.9875,44,80,0
90.0,90.2875,34,80,0
90.3,90.5875,46,80,0
90.6,90.8875,49,80,0
90.9,91.1875,46,80,0
91.2,91.4875,34,80,0
91.5,91.7875,46,80,0
91.8,92.0875,49,80,0
92.1,92.3875,46,80,0
92.4,92.6875,36,80,0
92.7,92.9875,48,80,0
93.0,93.2875,51,80,0
93.3,93.5875,48,80,0
93.6,93.8875,37,80,0
93.9,94.1875,49,80,0
94.2,94.4875,53,80,0
94.5,94.7875,49,80,0
94.8,95.0875,37,80,0
95.1,95.3875,49,80,0
95.4,95.6875,53,80,0
95.7,95.9875,49,80,0
96.0,96.2875,39,80,0
96.3,96.5875,51,80,0
96.6,96.8875,55,80,0
96.9,97.1875,51,80,0
97.2,97.4875,44,80,0
97.5,97.7875,51,80,0
97.8,98.0875,55,80,0
98.1,98.3875,51,80,0
98.4,98.6875,44,80,0
98.7,98.9875,56,80,0
99.0,99.2875,48,80,0
99.3,99.5875,60,80,0
99.6,99.8875,44,80,0
99.9,100.1875,56,80,0
100.2,100.4875,41,80,0
100.5,100.7875,53,80,0
100.8,101.0875,40,80,0
101.1,101.3875,52,80,0
101.4,101.6875,55,80,0
101.7,101.9875,52,80,0
102.0,102.2875,40,80,0
102.3,102.5875,52,80,0
102.6,102.8875,43,80,0
102.9,103.1875,55,80,0
103.2,103.4875,40,80,0
103.5,103.7875,52,80,0
103.8,104.0875,36,80,0
104.1,104.3875,48,80,0
104.4,104.6875,34,80,0
104.7,104.9875,46,80,0
105.0,105.2875,49,80,0
105.3,105.5875,46,80,0
105.6,105.8875,32,80,0
105.9,106.1875,44,80,0
106.2,106.4875,36,80,0
106.5,106.7875,48,80,0
106.8,107.0875,32,80,0
107.1,107.3875,44,80,0
107.4,107.6875,29,80,0
107.7,107.9875,41,80,0
108.0,108.2875,38,110,0
108.3,108.5875,50,110,0
108.6,108.8875,35,110,0
108.9,109.1875,47,110,0
109.2,109.4875,36,110,0
109.5,109.7875,48,110,0
109.8,110.0875,53,110,0
110.1,110.3875,48,110,0
110.4,110.6875,36,110,0
110.7,110.9875,48,110,0
111.0,111.2875,53,110,0
111.3,111.5875,48,110,0
111.6,111.8875,41,110,0
111.9,112.1875,53,90,0
112.2,112.4875,42,89,0
112.5,112.7875,54,87,0
112.8,113.0875,43,85,0
113.1,113.3875,55,83,0
113.4,113.6875,44,81,0
113.7,113.9875,56,79,0
114.0,114.2875,42,77,0
114.3,114.5875,54,75,0
114.6,114.8875,39,73,0
114.9,115.1875,51,71,0
115.2,115.4875,37,70,0
115.5,115.7875,49,71,0
115.8,116.0875,53,73,0
116.1,116.3875,49,74,0
116.4,116.6875,37,76,0
116.7,116.9875,49,77,0
117.0,117.2875,53,79,0
117.3,117.5875,49,81,0
117.6,117.8875,37,82,0
117.9,118.1875,49,84,0
118.2,118.4875,53,85,0
118.5,118.7875,49,87,0
118.8,119.0875,39,88,0
119.1,119.3875,51,90,0
119.4,119.6875,54,92,0
119.7,119.9875,51,93,0
120.0,120.2875,39,95,0
120.3,120.5875,51,96,0
120.6,120.8875,54,98,0
120.9,121.1875,51,99,0
121.2,121.4875,41,100,0
121.5,121.7875,53,100,0
121.8,122.0875,56,100,0
122.1,122.3875,53,100,0
122.4,122.6875,42,100,0
122.7,122.9875,54,100,0
123.0,123.2875,58,101,0
123.3,123.5875,54,102,0
123.6,123.8875,42,103,0
123.9,124.1875,54,104,0
124.2,124.4875,58,105,0
124.5,124.7875,54,105,0
124.8,125.0875,43,106,0
125.1,125.3875,55,107,0
125.4,125.6875,58,108,0
125.7,125.9875,55,109,0
126.0,126.2875,44,110,0
126.3,126.5875,56,110,0
126.6,126.8875,60,111,0
126.9,127.1875,56,112,0
127.2,127.4875,44,113,0
127.5,127.7875,56,114,0
127.8,128.0875,60,110,0
128.1,128.3875,56,110,0
128.4,128.6875,44,110,0
128.7,128.9875,56,110,0
129.0,129.2875,44,110,0
129.3,129.5875,56,110,0
129.6,131.9875,43,110,0
129.6,131.9875,31,110,0
132.0,132.8875,43,110,0
132.0,132.8875,31,110,0
132.9,133.1875,43,110,0
132.9,133.1875,31,110,0
133.2,134.3875,42,110,0
133.2,134.3875,30,110,0
136.8,139.1875,43,70,0
136.8,139.1875,31,70,0
139.2,140.0875,44,100,0
139.2,140.0875,32,100,0
140.1,140.3875,43,70,0
140.1,140.3875,31,70,0
140.4,141.5875,42,70,0
140.4,141.5875,30,70,0
144.0,145.1875,41,70,0
144.0,145.1875,29,70,0
147.6,148.7875,58,70,0
147.6,148.7875,65,70,0
147.6,148.7875,70,70,0
148.8,149.3875,60,70,0
148.8,149.3875,65,70,0
148.8,149.3875,69,70,0
151.2,152.3875,57,70,0
151.2,152.3875,65,70,0
151.2,152.3875,69,70,0
152.4,152.9875,58,70,0
152.4,152.9875,65,70,0
152.4,152.9875,70,70,0
154.8,155.9875,62,70,0
154.8,155.9875,59,70,0
154.8,156.5875,67,70,0
156.0,156.5875,63,70,0
156.0,156.5875,60,70,0
158.4,159.4375,79,93,0
159.45,159.5875,74,80,0
159.6,160.6375,75,90,0
160.65,160.7875,71,80,0
160.8,161.8375,72,90,0
161.85,161.9875,67,80,0
162.0,163.0375,68,90,0
163.05,163.1875,64,80,0
163.2,164.2375,65,90,0
164.25,164.3875,63,80,0
164.25,164.3875,65,80,0
164.4,165.4375,65,90,0
164.4,165.4375,62,90,0
165.45,165.5875,60,80,0
165.45,165.5875,63,80,0
165.6,166.1875,59,90,0
165.6,166.1875,62,90,0
171.0,171.2875,53,80,0
171.6,171.8875,50,80,0
172.2,172.4875,47,80,0
172.8,173.0875,44,80,0
173.4,173.9875,41,80,0
174.0,174.5875,38,80,0
174.6,175.1875,35,80,0
175.2,175.7875,32,80,0
175.8,176.3875,31,80,0
176.4,177.5875,42,70,0
176.4,177.5875,30,70,0
177.6,178.7875,43,70,0
177.6,178.7875,31,70,0
178.8,179.9875,43,70,0
178.8,179.9875,31,70,0
180.0,181.1875,48,70,0
180.0,181.1875,43,70,0
180.0,181.1875,36,70,0
181.2,181.7875,47,70,0
181.2,181.7875,43,70,0
181.2,181.7875,35,70,0
183.6,184.7875,47,70,0
183.6,184.7875,43,70,0
183.6,184.7875,35,70,0
184.8,185.3875,48,70,0
184.8,185.3875,43,70,0
184.8,185.3875,36,70,0
187.2,188.3875,48,70,0
187.2,188.3875,36,70,0
188.4,188.9875,42,70,0
188.4,188.9875,30,70,0
190.8,191.9875,42,70,0
190.8,191.9875,30,70,0
192.0,194.3875,41,72,0
192.0,194.3875,29,72,0
194.4,195.5875,40,77,0
195.6,196.7875,50,79,0
195.6,196.7875,38,79,0
196.8,197.9875,48,82,0
196.8,197.9875,36,82,0
198.0,201.5875,41,84,0
198.0,201.5875,29,84,0
201.6,205.1875,43,90,0
201.6,205.1875,31,90,0
205.2,206.3875,43,83,0
205.2,206.9875,36,83,0
206.4,206.9875,48,81,0
210.0,211.1875,57,100,0
210.0,211.1875,50,100,0
210.0,211.1875,45,100,0
211.2,212.3875,50,100,0
211.2,212.3875,45,100,0
211.2,212.3875,57,100,0
212.4,214.7875,59,100,0
212.4,214.7875,50,100,0
212.4,214.7875,43,100,0
217.2,218.3875,57,100,0
217.2,218.3875,50,100,0
217.2,218.3875,45,100,0
218.4,219.5875,50,100,0
218.4,219.5875,45,100,0
218.4,219.5875,57,100,0
219.6,221.9875,59,100,0
219.6,221.9875,50,100,0
219.6,221.9875,43,100,0
224.4,225.5875,57,100,0
224.4,225.5875,50,100,0
224.4,225.5875,45,100,0
225.6,226.7875,56,100,0
225.6,226.7875,50,100,0
225.6,226.7875,44,100,0
226.8,227.3875,43,100,0
226.875,227.3875,47,100,0
226.95,227.3875,50,100,0
227.025,227.3875,53,100,0
227.1,227.3875,55,100,0
228.0,228.5875,55,80,0
228.075,228.5875,59,80,0
228.15,228.5875,62,80,0
228.225,228.5875,65,80,0
230.4,231.5875,48,80,0
230.4,231.5875,36,80,0
231.6,232.1875,50,80,0
231.6,232.1875,35,80,0
234.0,235.1875,47,80,0
234.0,235.1875,43,80,0
234.0,235.1875,35,80,0
235.2,235.7875,48,80,0
235.2,235.7875,43,80,0
235.2,235.7875,36,80,0
237.6,238.7875,49,100,0
237.6,238.7875,45,100,0
237.6,238.7875,37,100,0
239.25,239.3875,53,100,0
238.8,239.9875,50,100,0
239.4,240.4375,58,100,0
240.45,240.5875,55,100,0
240.0,241.1875,52,100,0
240.6,241.6375,60,100,0
241.2,241.7875,53,100,0
241.65,241.7875,57,100,0
241.8,242.3875,54,100,0
241.8,242.8375,62,100,0
242.4,242.9875,55,100,0
242.85,242.9875,60,100,0
243.0,243.4375,59,100,0
243.45,243.5875,60,100,0
243.6,244.0375,62,100,0
243.0,244.1875,56,100,0
244.05,244.1875,59,100,0
244.2,244.6375,60,100,0
244.2,244.7875,57,100,0
244.65,244.7875,60,100,0
244.8,245.9875,54,100,0
246.0,247.1875,55,100,0
247.2,248.3875,43,100,0
247.2,248.3875,31,100,0
248.4,249.5875,46,100,0
248.4,249.5875,34,100,0
250.2,250.4875,45,110,0
250.2,250.4875,33,110,0
250.8,251.0875,50,110,0
250.8,251.0875,45,110,0
250.8,251.0875,38,110,0
251.4,251.6875,49,110,0
251.4,251.6875,45,110,0
251.4,251.6875,37,110,0
253.8,254.0875,49,110,0
253.8,254.0875,45,110,0
253.8,254.0875,37,110,0
254.4,254.6875,50,110,0
254.4,254.6875,45,110,0
254.4,254.6875,38,110,0
255.0,255.2875,48,110,0
255.0,255.2875,36,110,0
257.4,257.9875,48,70,0
257.4,257.9875,36,70,0
258.0,258.5875,53,77,0
258.0,258.5875,41,77,0
258.0,258.5875,48,77,0
258.6,259.1875,55,84,0
258.6,259.1875,43,84,0
258.6,259.1875,48,84,0
259.2,259.7875,57,92,0
259.2,259.7875,48,92,0
259.2,259.7875,45,92,0
259.8,260.3875,56,99,0
259.8,260.3875,48,99,0
259.8,260.3875,44,99,0
260.4,260.9875,55,100,0
260.4,260.9875,52,100,0
260.4,260.9875,48,100,0
260.4,261.5875,43,100,0
261.0,261.5875,55,100,0
261.0,261.5875,52,100,0
261.0,261.5875,48,100,0
261.6,262.1875,53,100,0
261.6,262.1875,50,100,0
261.6,262.1875,55,100,0
261.6,262.7875,43,100,0
262.2,262.7875,53,100,0
262.2,262.7875,50,100,0
262.2,262.7875,55,100,0
262.8,263.9875,48,80,0
262.8,264.5875,55,80,0
262.8,264.5875,52,80,0
264.0,265.1875,48,87,0
264.6,265.1875,55,90,0
264.6,265.1875,52,90,0
265.2,265.7875,55,94,0
265.2,266.3875,48,94,0
265.2,266.3875,52,94,0
265.8,266.3875,60,98,0
266.4,267.5875,60,110,0
266.4,268.7875,55,110,0
266.4,268.7875,53,110,0
266.4,268.7875,50,110,0
267.6,268.7875,59,110,0
268.8,269.6875,61,110,0
268.8,269.9875,55,110,0
268.8,269.9875,52,110,0
269.7,269.9875,64,110,0
270.0,271.1875,61,110,0
270.0,271.1875,64,110,0
270.0,272.3875,57,110,0
270.0,272.3875,53,110,0
271.2,272.3875,62,112,0
272.4,273.2875,64,115,0
272.4,273.5875,55,115,0
272.4,273.5875,60,115,0
272.4,273.5875,58,115,0
273.3,273.5875,67,116,0
273.6,274.7875,67,117,0
273.6,274.7875,60,117,0
273.6,274.7875,57,117,0
274.8,275.8375,65,120,0
274.8,275.8375,60,120,0
274.8,275.8375,56,120,0
275.85,275.9875,65,120,0
275.85,275.9875,60,120,0
275.85,275.9875,56,120,0
276.0,277.15137,66,120,0
276.0,277.15137,62,120,0
276.0,277.15137,60,120,0
276.0,277.15137,56,120,0
277.167,277.33887,66,120,0
277.167,277.33887,62,120,0
277.167,277.33887,60,120,0
277.167,277.33887,56,120,0
277.3545,277.942,67,120,0
277.3545,277.942,62,120,0
277.3545,277.942,59,120,0
277.3545,277.942,55,120,0
280.9545,281.842,65,80,0
281.8545,282.142,62,80,0
282.1545,282.742,64,80,0
284.5545,285.442,62,80,0
285.4545,285.742,59,80,0
285.7545,286.342,60,80,0
286.3545,286.942,55,80,0
286.9545,287.542,55,80,0
287.5545,288.142,55,80,0
288.1545,288.742,55,80,0
288.1545,289.042,53,80,0
288.7545,289.342,55,80,0
289.0545,289.342,50,80,0
289.3545,289.942,55,80,0
289.3545,289.942,52,80,0
289.9545,290.542,55,80,0
290.5545,291.142,55,80,0
291.1545,291.742,55,80,0
291.7545,292.342,55,80,0
291.7545,292.642,50,80,0
292.3545,292.942,55,80,0
292.6545,292.942,47,80,0
292.9545,293.542,55,80,0
292.9545,293.542,48,80,0
294.1545,294.742,57,70,0
294.1545,294.742,45,70,0
295.3545,295.942,56,70,0
295.3545,295.942,44,70,0
296.5545,297.142,55,70,0
296.5545,297.142,43,70,0
297.7545,298.342,43,70,0
297.7545,298.342,31,70,0
298.9545,299.542,43,70,0
298.9545,299.542,36,70,0
300.1545,300.742,55,70,0
300.1545,300.742,52,70,0
299.5545,301.342,48,70,0
300.7545,301.342,60,70,0
301.3545,301.942,62,70,0
301.3545,302.542,55,70,0
301.9545,302.542,65,70,0
302.5545,303.142,43,70,0
302.5545,303.142,36,70,0
303.7545,304.342,55,70,0
303.7545,304.342,52,70,0
303.1545,304.942,48,70,0
304.3545,304.942,60,70,0
304.9545,305.542,62,70,0
304.9545,306.142,55,70,0
305.5545,306.142,65,70,0
306.1545,307.4178,65,70,0
306.1545,308.0561,60,70,0
307.4311,308.0561,64,70,0
308.0694,308.6944,48,70,0
308.0694,308.6944,36,70,0
308.70767,309.33267,47,70,0
308.70767,309.33267,35,70,0
309.34598,309.97098,46,70,0
309.34598,309.97098,34,70,0
309.98428,312.52417,45,70,0
309.98428,312.52417,33,70,0
312.53748,313.80078,44,70,0
312.53748,313.80078,32,70,0
313.81406,316.35394,43,70,0
313.81406,316.35394,31,70,0
316.36725,320.18375,30,100,0
316.36725,320.18375,42,100,0
320.19705,321.6143,41,70,0
320.19705,321.6143,29,70,0
321.6351,322.6143,43,70,0
321.6351,322.6143,31,70,0
323.6351,325.6143,48,70,0
323.6351,325.6143,36,70,0
