start_time,end_time,note_value,velocity,instrument_program_number
0.0,0.49739584,70,80,0
0.0,0.49739584,67,80,0
0.0,0.7473958,63,80,0
0.0,0.7473958,58,80,0
0.5,0.7473958,67,80,0
0.75,0.9973958,63,80,0
1.25,1.4973959,70,80,0
1.5,1.7473959,75,80,0
1.0,1.9973959,67,80,0
1.75,1.9973959,79,80,0
2.0,2.1223958,77,80,0
2.0,2.2473958,65,80,0
2.125,2.2473958,74,80,0
2.25,2.3723958,75,80,0
2.25,2.4973958,67,80,0
2.375,2.4973958,79,80,0
2.5,2.7473958,70,80,0
3.0,3.1223958,72,80,0
3.125,3.2473958,75,80,0
3.25,3.4973958,70,80,0
3.75,3.8723958,68,80,0
3.75,3.9973958,65,80,0
3.875,3.9973958,70,80,0
4.0,4.247396,63,80,0
4.0,4.247396,67,80,0
4.5,4.747396,65,80,0
4.5,4.747396,62,80,0
4.75,4.997396,68,80,0
4.75,4.997396,65,80,0
5.0,5.247396,67,80,0
5.0,5.247396,63,80,0
5.25,5.497396,65,80,0
5.25,5.497396,62,80,0
6.0,6.497396,70,80,0
6.0,6.497396,67,80,0
6.0,6.747396,63,80,0
6.0,6.747396,58,80,0
6.5,6.747396,67,80,0
6.75,6.997396,63,80,0
7.5,7.7526593,75,80,0
7.0,8.013471,67,80,0
7.25,8.013471,70,80,0
7.755319,8.013471,79,80,0
8.016188,8.146743,77,80,0
8.016188,8.280076,68,80,0
8.016188,8.280076,65,80,0
8.149521,8.280076,74,80,0
8.282854,8.546742,75,80,0
8.282854,8.546742,67,80,0
8.282854,8.546742,63,80,0
9.349518,9.613406,77,70,0
9.616184,9.746739,75,70,0
9.749517,9.880073,72,70,0
9.616184,10.146738,65,70,0
9.88285,10.146738,74,70,0
11.182848,11.3052435,87,100,0
11.307848,11.4302435,84,100,0
11.432848,11.5552435,86,100,0
11.557848,11.6802435,89,100,0
11.682848,11.9302435,77,100,0
11.932848,12.0552435,87,100,0
12.057848,12.1802435,84,100,0
12.182848,12.3052435,86,100,0
12.307848,12.4302435,89,100,0
12.432848,12.6802435,77,100,0
12.682848,12.8052435,87,100,0
12.807848,12.9302435,84,100,0
12.932848,13.0552435,86,100,0
13.057848,13.1802435,89,100,0
13.182848,13.4302435,77,100,0
13.432848,13.5552435,87,100,0
13.557848,13.6802435,84,100,0
13.682848,13.8052435,86,100,0
13.807848,13.9302435,89,100,0
13.932848,14.0552435,87,100,0
14.057848,14.1802435,86,100,0
14.182848,14.3052435,84,100,0
14.307848,14.4302435,82,100,0
14.432848,14.5552435,81,100,0
14.557848,14.6802435,82,100,0
14.682848,14.8052435,86,100,0
14.807848,14.9302435,77,100,0
14.932848,15.0552435,84,100,0
15.057848,15.1802435,75,100,0
15.182848,15.3052435,82,100,0
15.182848,15.3052435,74,100,0
15.307848,15.4302435,77,100,0
15.432848,15.5552435,75,100,0
15.557848,15.6802435,74,100,0
15.682848,15.8052435,72,100,0
15.807848,15.9302435,70,100,0
15.932848,16.055244,69,100,0
16.057848,16.180244,70,100,0
16.182848,16.305244,74,100,0
16.307848,16.430244,65,100,0
16.432848,16.555244,72,100,0
16.557848,16.680244,63,100,0
16.682848,16.805244,62,100,0
16.682848,16.805244,70,100,0
16.807848,16.930244,65,100,0
16.932848,17.055244,62,100,0
17.057848,17.180244,58,100,0
17.182848,17.305244,53,100,0
17.307848,17.430244,50,100,0
18.182848,18.680244,70,80,0
18.182848,18.680244,67,80,0
18.182848,18.930244,63,80,0
18.182848,18.930244,58,80,0
18.682848,18.930244,67,80,0
18.932848,19.180244,63,80,0
19.432848,19.680244,70,80,0
19.682848,19.930244,75,80,0
19.182848,20.180244,67,80,0
19.932848,20.180244,79,80,0
20.182848,20.305244,77,80,0
20.182848,20.430244,65,80,0
20.307848,20.430244,74,80,0
20.432848,20.555244,75,80,0
20.432848,20.680244,67,80,0
20.557848,20.680244,79,80,0
20.682848,20.930244,70,80,0
21.182848,21.305244,72,80,0
21.307848,21.430244,75,80,0
21.432848,21.680244,70,80,0
21.932848,22.055244,68,80,0
21.932848,22.180244,65,80,0
22.057848,22.180244,70,80,0
22.182848,22.430244,63,80,0
22.182848,22.430244,67,80,0
22.682848,22.930244,65,80,0
22.682848,22.930244,62,80,0
22.932848,23.180244,68,80,0
22.932848,23.180244,65,80,0
23.182848,23.430244,67,80,0
23.182848,23.430244,63,80,0
23.432848,23.680244,65,80,0
23.432848,23.680244,62,80,0
24.182848,24.680244,70,80,0
24.182848,24.680244,67,80,0
24.182848,24.930244,63,80,0
24.182848,24.930244,58,80,0
24.682848,24.930244,67,80,0
24.932848,25.180244,63,80,0
25.682848,25.935507,75,80,0
25.182848,26.196318,67,80,0
25.432848,26.196318,70,80,0
25.938168,26.196318,79,80,0
26.199036,26.329592,77,80,0
26.199036,26.462925,68,80,0
26.199036,26.462925,65,80,0
26.332369,26.462925,74,80,0
26.465702,26.72959,75,80,0
26.465702,26.72959,67,80,0
26.465702,26.72959,63,80,0
27.532366,27.796255,77,70,0
27.799032,27.929586,75,70,0
27.932365,28.06292,72,70,0
27.799032,28.329586,65,70,0
28.065699,28.329586,74,70,0
29.365696,29.488092,87,100,0
29.490696,29.613092,84,100,0
29.615696,29.738092,86,100,0
29.740696,29.863092,89,100,0
29.865696,30.113092,77,100,0
30.115696,30.238092,87,100,0
30.240696,30.363092,84,100,0
30.365696,30.488092,86,100,0
30.490696,30.613092,89,100,0
30.615696,30.863092,77,100,0
30.865696,30.988092,87,100,0
30.990696,31.113092,84,100,0
31.115696,31.238092,86,100,0
31.240696,31.363092,89,100,0
31.365696,31.613092,77,100,0
31.615696,31.738092,87,100,0
31.740696,31.863092,84,100,0
31.865696,31.988092,86,100,0
31.990696,32.11309,89,100,0
32.115696,32.23809,87,100,0
32.240696,32.36309,86,100,0
32.365696,32.48809,84,100,0
32.490696,32.61309,82,100,0
32.615696,32.73809,81,100,0
32.740696,32.86309,82,100,0
32.865696,32.98809,86,100,0
32.990696,33.11309,77,100,0
33.115696,33.23809,84,100,0
33.240696,33.36309,75,100,0
33.365696,33.48809,82,100,0
33.365696,33.48809,74,100,0
33.490696,33.61309,77,100,0
33.615696,33.73809,75,100,0
33.740696,33.86309,74,100,0
33.865696,33.98809,72,100,0
33.990696,34.11309,70,100,0
34.115696,34.23809,69,100,0
34.240696,34.36309,70,100,0
34.365696,34.48809,74,100,0
34.490696,34.61309,65,100,0
34.615696,34.73809,72,100,0
34.740696,34.86309,63,100,0
34.865696,34.98809,62,100,0
34.865696,34.98809,70,100,0
34.990696,35.11309,65,100,0
35.115696,35.23809,62,100,0
35.240696,35.36309,58,100,0
35.365696,35.48809,53,100,0
35.490696,35.61309,50,100,0
37.115696,37.61309,70,83,0
37.615696,37.86309,67,85,0
37.865696,38.11309,64,87,0
38.115696,38.36309,67,88,0
38.365696,38.61309,70,89,0
38.615696,39.11309,73,90,0
39.115696,39.36309,70,92,0
39.365696,39.61309,67,94,0
39.615696,39.86309,70,95,0
39.865696,40.11309,73,96,0
40.115696,40.61309,76,97,0
40.615696,40.86309,73,99,0
40.865696,41.11309,70,100,0
41.115696,41.36309,73,100,0
41.365696,41.61309,76,100,0
41.615696,41.86309,79,100,0
41.865696,42.11309,77,100,0
42.115696,42.36309,76,100,0
42.365696,42.61309,76,100,0
42.615696,42.86309,77,100,0
42.865696,42.98809,77,100,0
42.928196,43.05059,79,100,0
42.990696,43.11309,76,100,0
43.053196,43.17559,77,100,0
43.115696,43.36309,80,100,0
43.365696,43.61309,79,100,0
43.615696,43.86309,77,100,0
44.115696,44.36309,76,100,0
44.365696,44.61309,76,100,0
44.615696,44.65476,76,100,0
44.657364,44.86049,79,100,0
44.865696,45.11309,77,100,0
45.115696,45.36309,76,100,0
45.615696,45.86309,77,100,0
45.865696,46.11309,77,100,0
46.115696,46.15476,77,100,0
46.157364,46.36309,80,100,0
46.365696,46.61309,79,100,0
46.615696,46.86309,77,100,0
46.865696,47.11309,75,100,0
47.115696,47.36309,74,97,0
47.365696,47.61309,74,93,0
47.615696,47.65476,74,89,0
47.657364,47.86309,77,89,0
47.865696,48.11309,75,86,0
48.115696,48.36309,74,82,0
48.365696,48.61309,72,78,0
48.615696,48.86309,70,74,0
48.865696,49.11309,69,71,0
49.115696,49.36309,70,70,0
49.365696,49.61309,72,70,0
49.615696,49.86309,68,70,0
49.865696,50.36309,70,80,0
49.865696,50.36309,67,80,0
49.865696,50.61309,63,80,0
49.865696,50.61309,58,80,0
50.365696,50.61309,67,80,0
50.615696,50.86309,63,80,0
51.365696,51.61309,75,80,0
50.865696,51.86309,67,80,0
51.615696,51.86309,79,80,0
51.865696,51.98809,77,80,0
51.115696,52.11309,70,80,0
51.865696,52.11309,65,80,0
51.990696,52.11309,74,80,0
52.115696,52.23809,75,80,0
52.115696,52.36309,67,80,0
52.240696,52.36309,79,80,0
52.365696,52.61309,70,80,0
52.865696,52.98809,72,80,0
52.990696,53.11309,75,80,0
53.115696,53.36309,70,80,0
53.615696,53.73809,68,80,0
53.615696,53.86309,65,80,0
53.740696,53.86309,70,80,0
53.865696,54.11309,63,80,0
53.865696,54.11309,67,80,0
54.365696,54.61309,65,80,0
54.365696,54.61309,62,80,0
54.615696,54.86309,68,80,0
54.615696,54.86309,65,80,0
54.865696,55.11309,67,80,0
54.865696,55.11309,63,80,0
55.115696,55.36309,65,80,0
55.115696,55.36309,62,80,0
55.865696,56.434147,70,80,0
55.865696,56.434147,66,80,0
55.865696,56.71986,63,80,0
55.865696,56.71986,58,80,0
56.437122,56.71986,66,80,0
56.72284,57.005577,63,80,0
57.57998,57.862717,75,80,0
57.008553,58.148434,66,80,0
57.294266,58.148434,70,80,0
57.865692,58.148434,78,80,0
58.15141,58.29129,77,80,0
58.15141,58.434147,68,80,0
58.15141,58.434147,65,80,0
58.294266,58.434147,74,80,0
58.437122,58.71986,75,80,0
58.437122,58.71986,66,80,0
58.437122,58.71986,63,80,0
59.794266,59.91666,76,100,0
59.919266,60.04166,73,100,0
59.794266,60.29166,66,100,0
60.044266,60.29166,75,100,0
60.544266,60.66666,76,100,0
60.669266,60.79166,73,100,0
60.544266,61.04166,66,100,0
60.794266,61.04166,75,100,0
61.294266,61.41666,76,100,0
61.419266,61.54166,73,100,0
61.294266,61.79166,66,100,0
61.544266,61.79166,75,100,0
61.794266,62.29166,66,100,0
61.794266,62.54166,78,100,0
62.294266,63.04166,68,100,0
62.544266,63.29166,76,100,0
63.044266,63.29166,70,100,0
63.294266,63.79166,75,100,0
63.294266,64.04166,71,100,0
63.794266,64.54166,73,100,0
64.044266,64.54166,70,100,0
64.544266,64.79166,75,100,0
64.544266,64.79166,71,100,0
64.794266,65.29166,66,100,0
64.794266,65.54166,78,100,0
65.294266,66.04166,68,100,0
65.544266,66.29166,76,100,0
66.044266,66.29166,70,100,0
66.294266,66.79166,71,100,0
66.294266,67.04692,75,100,0
66.794266,67.55756,70,100,0
67.04958,67.818375,73,100,0
67.82109,68.60672,71,92,0
68.6095,69.41271,70,83,0
69.41555,69.68544,69,74,0
71.02919,71.27658,70,100,0
71.27919,71.52658,70,100,0
71.52919,71.77658,70,101,0
71.77919,72.02658,70,101,0
72.02919,72.15158,80,102,0
72.02919,72.27658,70,102,0
72.15419,72.27658,77,102,0
72.27919,72.52658,70,103,0
72.27919,72.52658,79,103,0
72.52919,72.77658,70,103,0
72.77919,72.90158,77,104,0
72.77919,73.02658,70,104,0
72.90419,73.02658,74,104,0
73.02919,73.27658,70,105,0
73.02919,73.27658,75,105,0
73.27919,73.52658,70,105,0
73.52919,73.65158,80,106,0
73.52919,73.77658,70,106,0
73.65419,73.77658,77,106,0
73.77919,74.02658,70,106,0
73.77919,74.02658,79,106,0
74.02919,74.27658,70,107,0
74.27919,74.40158,77,108,0
74.27919,74.52658,70,108,0
74.40419,74.52658,74,108,0
74.52919,74.77658,75,108,0
74.77919,75.02658,75,109,0
75.02919,75.15158,84,110,0
75.02919,75.27658,75,110,0
75.15419,75.27658,80,110,0
75.27919,75.52658,75,110,0
75.27919,75.52658,82,110,0
75.52919,75.77658,75,110,0
75.77919,75.90158,80,110,0
75.77919,76.02658,75,110,0
75.90419,76.02658,78,110,0
76.02919,76.27658,75,110,0
76.02919,76.27658,79,110,0
76.27919,76.52658,75,110,0
76.52919,76.65158,84,110,0
76.52919,76.77658,75,110,0
76.65419,76.77658,80,110,0
76.77919,77.02658,75,110,0
76.77919,77.02658,82,110,0
77.02919,77.27658,75,110,0
77.27919,77.40158,80,110,0
77.27919,77.52658,75,110,0
77.40419,77.52658,78,110,0
77.52919,77.77658,75,110,0
77.52919,77.77658,79,110,0
77.77919,78.02658,75,110,0
78.02919,78.15158,85,120,0
78.02919,78.27658,75,120,0
78.15419,78.27658,82,120,0
78.27919,78.40158,84,120,0
78.40419,78.52658,87,120,0
78.52919,78.65158,86,120,0
78.65419,78.77658,84,120,0
78.77919,78.90158,82,120,0
78.90419,79.02658,80,120,0
79.02919,79.15158,79,120,0
79.15419,79.27658,82,120,0
79.27919,79.40158,87,120,0
79.40419,79.52658,79,120,0
79.52919,79.65158,86,120,0
79.65419,79.77658,77,120,0
79.77919,79.90158,87,120,0
79.90419,80.02658,75,120,0
80.02919,80.15158,74,120,0
80.15419,80.27658,72,120,0
80.27919,80.40158,70,120,0
80.40419,80.52658,68,120,0
80.52919,80.65158,67,120,0
80.65419,80.77658,70,120,0
80.77919,80.90158,75,120,0
80.90419,81.02658,67,120,0
81.02919,81.15158,74,120,0
81.15419,81.27658,65,120,0
81.27919,81.40158,75,120,0
81.40419,81.52658,63,120,0
81.52919,81.65158,62,120,0
81.65419,81.77658,60,120,0
81.77919,81.90158,58,120,0
81.90419,82.02658,56,120,0
82.02919,82.15158,55,120,0
82.15419,82.27658,58,120,0
82.27919,82.40158,63,120,0
82.40419,82.52658,55,120,0
82.52919,82.65158,62,120,0
82.65419,82.77658,53,120,0
82.77919,83.02658,63,120,0
82.77919,83.02658,55,120,0
83.52919,84.27658,67,120,0
83.52919,84.27658,63,120,0
83.52919,84.27658,58,120,0
83.52919,84.27658,55,120,0
84.27919,85.02658,68,120,0
84.27919,85.02658,63,120,0
84.27919,85.02658,60,120,0
84.27919,85.02658,56,120,0
85.02919,85.77658,70,120,0
85.02919,85.77658,62,120,0
85.02919,85.77658,56,120,0
85.77919,86.02658,63,120,0
85.77919,86.02658,55,120,0
86.02919,86.27658,75,120,0
86.27919,86.52658,75,120,0
86.52919,86.77658,73,120,0
86.77919,87.02658,75,120,0
87.02919,87.27658,70,120,0
87.27919,87.52658,72,120,0
87.52919,87.77658,75,120,0
87.77919,88.02658,68,120,0
88.02919,88.27658,74,120,0
88.27919,88.52658,77,120,0
88.02919,88.77658,65,120,0
88.02919,88.77658,68,120,0
88.52919,88.77658,70,120,0
88.77919,88.90158,75,120,0
88.77919,88.90158,67,120,0
88.90419,89.02658,70,120,0
89.02919,89.15158,67,120,0
89.15419,89.27658,63,120,0
89.27919,89.40158,58,120,0
89.40419,89.52658,55,120,0
91.02919,91.52658,70,83,0
91.52919,91.77658,67,85,0
91.77919,92.02658,64,87,0
92.02919,92.27658,67,88,0
92.27919,92.52658,70,89,0
92.52919,93.02658,73,90,0
93.02919,93.27658,70,92,0
93.27919,93.52658,67,94,0
93.52919,93.77658,70,95,0
93.77919,94.02658,73,96,0
94.02919,94.52658,76,97,0
94.52919,94.77658,73,99,0
94.77919,95.02658,70,100,0
95.02919,95.27658,73,100,0
95.27919,95.52658,76,100,0
95.52919,95.77658,79,100,0
95.77919,96.02658,77,100,0
96.02919,96.27658,76,100,0
96.27919,96.52658,76,100,0
96.52919,96.77658,77,100,0
96.77919,96.90158,77,100,0
96.84169,96.96408,79,100,0
96.90419,97.02658,76,100,0
96.96669,97.08908,77,100,0
97.02919,97.27658,80,100,0
97.27919,97.52658,79,100,0
97.52919,97.77658,77,100,0
98.02919,98.27658,76,100,0
98.27919,98.52658,76,100,0
98.52919,98.56825,76,100,0
98.570854,98.77398,79,100,0
98.77919,99.02658,77,100,0
99.02919,99.27658,76,100,0
99.52919,99.77658,77,100,0
99.77919,100.02658,77,100,0
100.02919,100.06825,77,100,0
100.070854,100.27658,80,100,0
100.27919,100.52658,79,100,0
100.52919,100.77658,77,100,0
100.77919,101.02658,75,100,0
101.02919,101.27658,74,97,0
101.27919,101.52658,74,93,0
101.52919,101.56825,74,89,0
101.570854,101.77658,77,89,0
101.77919,102.02658,75,86,0
102.02919,102.27658,74,82,0
102.27919,102.52658,72,78,0
102.52919,102.77658,70,74,0
102.77919,103.02658,69,71,0
103.02919,103.27658,70,70,0
103.27919,103.52658,72,70,0
103.52919,103.77658,68,70,0
103.77919,104.27658,70,80,0
103.77919,104.27658,67,80,0
103.77919,104.52658,63,80,0
103.77919,104.52658,58,80,0
104.27919,104.52658,67,80,0
104.52919,104.77658,63,80,0
105.27919,105.52658,75,80,0
104.77919,105.77658,67,80,0
105.52919,105.77658,79,80,0
105.77919,105.90158,77,80,0
105.77919,106.02658,65,80,0
105.90419,106.02658,74,80,0
106.02919,106.15158,75,80,0
105.02919,106.27658,70,80,0
106.02919,106.27658,67,80,0
106.15419,106.27658,79,80,0
106.27919,106.52658,70,80,0
106.77919,106.90158,72,80,0
106.90419,107.02658,75,80,0
107.02919,107.27658,70,80,0
107.52919,107.65158,68,80,0
107.52919,107.77658,65,80,0
107.65419,107.77658,70,80,0
107.77919,108.02658,63,80,0
107.77919,108.02658,67,80,0
108.27919,108.52658,65,80,0
108.27919,108.52658,62,80,0
108.52919,108.77658,68,80,0
108.52919,108.77658,65,80,0
108.77919,109.02658,67,80,0
108.77919,109.02658,63,80,0
109.02919,109.27658,65,80,0
109.02919,109.27658,62,80,0
109.77919,110.34764,70,80,0
109.77919,110.34764,66,80,0
109.77919,110.633354,63,80,0
109.77919,110.633354,58,80,0
110.35062,110.633354,66,80,0
110.63633,110.91907,63,80,0
111.49347,111.77621,75,80,0
110.92204,112.06192,66,80,0
111.207756,112.06192,70,80,0
111.77918,112.06192,78,80,0
112.0649,112.20478,77,80,0
112.0649,112.34764,68,80,0
112.0649,112.34764,65,80,0
112.207756,112.34764,74,80,0
112.35062,112.633354,75,80,0
112.35062,112.633354,66,80,0
112.35062,112.633354,63,80,0
113.707756,113.830154,76,70,0
113.832756,113.955154,73,71,0
113.707756,114.205154,66,70,0
113.957756,114.205154,75,72,0
114.457756,114.580154,76,76,0
114.582756,114.705154,73,78,0
114.457756,114.955154,66,76,0
114.707756,114.955154,75,79,0
115.207756,115.330154,76,83,0
115.332756,115.455154,73,84,0
115.207756,115.705154,66,83,0
115.457756,115.705154,75,86,0
115.707756,116.205154,66,88,0
115.707756,116.455154,78,88,0
116.207756,116.955154,68,93,0
116.457756,117.205154,76,95,0
116.957756,117.205154,70,99,0
117.207756,117.705154,75,100,0
117.207756,117.955154,71,100,0
117.707756,118.455154,73,100,0
117.957756,118.455154,70,100,0
118.457756,118.705154,75,100,0
118.457756,118.705154,71,100,0
118.707756,119.205154,66,100,0
118.707756,119.455154,78,100,0
119.207756,119.955154,68,100,0
119.457756,120.205154,76,100,0
119.957756,120.205154,70,100,0
120.207756,120.705154,71,100,0
120.207756,120.96042,75,100,0
120.707756,121.471054,70,100,0
120.96307,121.731865,73,98,0
121.73458,122.52021,71,90,0
122.52299,123.3262,70,81,0
123.32905,123.59893,69,73,0
124.94268,125.19008,70,100,0
125.19268,125.44008,70,100,0
125.44268,125.69008,70,101,0
125.69268,125.94008,70,101,0
125.94268,126.06508,80,102,0
125.94268,126.19008,70,102,0
126.06768,126.19008,77,102,0
126.19268,126.44008,70,103,0
126.19268,126.44008,79,103,0
126.44268,126.69008,70,103,0
126.69268,126.81508,77,104,0
126.69268,126.94008,70,104,0
126.81768,126.94008,74,104,0
126.94268,127.19008,70,105,0
126.94268,127.19008,75,105,0
127.19268,127.44008,70,105,0
127.44268,127.56508,80,106,0
127.44268,127.69008,70,106,0
127.56768,127.69008,77,106,0
127.69268,127.94008,70,106,0
127.69268,127.94008,79,106,0
127.94268,128.19008,70,107,0
128.19267,128.31508,77,108,0
128.19267,128.44008,70,108,0
128.31767,128.44008,74,108,0
128.44267,128.69008,75,108,0
128.69267,128.94008,75,109,0
128.94267,129.06508,84,110,0
128.94267,129.19008,75,110,0
129.06767,129.19008,80,110,0
129.19267,129.44008,75,110,0
129.19267,129.44008,82,110,0
129.44267,129.69008,75,110,0
129.69267,129.81508,80,110,0
129.69267,129.94008,75,110,0
129.81767,129.94008,78,110,0
129.94267,130.19008,75,110,0
129.94267,130.19008,79,110,0
130.19267,130.44008,75,110,0
130.44267,130.56508,84,110,0
130.44267,130.69008,75,110,0
130.56767,130.69008,80,110,0
130.69267,130.94008,75,110,0
130.69267,130.94008,82,110,0
130.94267,131.19008,75,110,0
131.19267,131.31508,80,110,0
131.19267,131.44008,75,110,0
131.31767,131.44008,78,110,0
131.44267,131.69008,75,110,0
131.44267,131.69008,79,110,0
131.69267,131.94008,75,110,0
131.94267,132.06508,85,120,0
131.94267,132.19008,75,120,0
132.06767,132.19008,82,120,0
132.19267,132.31508,84,120,0
132.31767,132.44008,87,120,0
132.44267,132.56508,86,120,0
132.56767,132.69008,84,120,0
132.69267,132.81508,82,120,0
132.81767,132.94008,80,120,0
132.94267,133.06508,79,120,0
133.06767,133.19008,82,120,0
133.19267,133.31508,87,120,0
133.31767,133.44008,79,120,0
133.44267,133.56508,86,120,0
133.56767,133.69008,77,120,0
133.69267,133.81508,87,120,0
133.81767,133.94008,75,120,0
133.94267,134.06508,74,120,0
134.06767,134.19008,72,120,0
134.19267,134.31508,70,120,0
134.31767,134.44008,68,120,0
134.44267,134.56508,67,120,0
134.56767,134.69008,70,120,0
134.69267,134.81508,75,120,0
134.81767,134.94008,67,120,0
134.94267,135.06508,74,120,0
135.06767,135.19008,65,120,0
135.19267,135.31508,75,120,0
135.31767,135.44008,63,120,0
135.44267,135.56508,62,120,0
135.56767,135.69008,60,120,0
135.69267,135.81508,58,120,0
135.81767,135.94008,56,120,0
135.94267,136.06508,55,120,0
136.06767,136.19008,58,120,0
136.19267,136.31508,63,120,0
136.31767,136.44008,55,120,0
136.44267,136.56508,62,120,0
136.56767,136.69008,53,120,0
136.69267,136.94008,63,120,0
136.69267,136.94008,55,120,0
137.44267,138.19008,67,120,0
137.44267,138.19008,63,120,0
137.44267,138.19008,58,120,0
137.44267,138.19008,55,120,0
138.19267,138.94008,68,120,0
138.19267,138.94008,63,120,0
138.19267,138.94008,60,120,0
138.19267,138.94008,56,120,0
138.94267,139.69008,70,120,0
138.94267,139.69008,62,120,0
138.94267,139.69008,56,120,0
139.69267,139.94008,63,120,0
139.69267,139.94008,55,120,0
139.94267,140.19008,75,120,0
140.19267,140.44008,75,120,0
140.44267,140.69008,73,120,0
140.69267,140.94008,75,120,0
140.94267,141.19008,70,120,0
141.19267,141.44008,72,120,0
141.44267,141.69008,75,120,0
141.69267,141.94008,68,120,0
141.94267,142.19008,74,120,0
142.19267,142.44008,77,120,0
141.94267,142.69008,65,120,0
141.94267,142.69008,68,120,0
142.44267,142.69008,70,120,0
142.69267,142.81508,75,120,0
142.69267,142.81508,67,120,0
142.81767,142.94008,70,120,0
142.94267,143.06508,67,120,0
143.06767,143.19008,63,120,0
143.19267,143.31508,58,120,0
143.31767,143.44008,55,120,0
143.94267,144.19008,58,100,0
144.19267,144.35674,54,70,0
144.27602,144.44008,58,70,0
144.35934,144.5234,66,70,0
144.44267,144.60674,54,70,0
144.52602,144.69008,58,70,0
144.60934,144.7734,66,70,0
144.69267,144.85674,54,70,0
144.77602,144.94008,58,70,0
144.85934,145.0234,66,70,0
144.94267,145.10674,54,70,0
145.02602,145.19008,58,70,0
145.10934,145.2734,66,70,0
145.19267,145.35674,53,70,0
145.27602,145.44008,58,70,0
145.35934,145.5234,65,70,0
145.44267,145.60674,54,70,0
145.52602,145.69008,58,70,0
145.60934,145.7734,66,70,0
145.69267,145.85674,56,104,0
145.77602,145.94008,58,70,0
145.85934,146.0234,68,70,0
145.94267,146.10674,56,70,0
146.02602,146.19008,58,70,0
146.10934,146.2734,68,70,0
146.19267,146.35674,56,70,0
146.27602,146.44008,58,70,0
146.35934,146.5234,68,80,0
146.44267,146.60674,56,82,0
146.52602,146.69008,58,80,0
146.60934,146.7734,68,80,0
146.69267,146.85674,56,80,0
146.77602,146.94008,58,80,0
146.85934,147.0234,68,80,0
146.94267,147.10674,56,80,0
147.02602,147.19008,58,80,0
147.10934,147.19008,68,80,0
147.19267,147.35674,54,80,0
147.27602,147.44008,58,80,0
147.35934,147.5234,66,80,0
147.44267,147.60674,54,80,0
147.52602,147.69008,58,80,0
147.60934,147.7734,66,80,0
147.69267,147.85674,54,80,0
147.77602,147.94008,58,80,0
147.85934,148.0234,66,80,0
147.94267,148.10674,54,80,0
148.02602,148.19008,58,80,0
148.10934,148.2734,66,80,0
148.19267,148.35674,53,80,0
148.27602,148.44008,58,80,0
148.35934,148.5234,65,80,0
148.44267,148.60674,54,80,0
148.52602,148.69008,58,80,0
148.60934,148.7734,66,80,0
148.69267,148.85674,56,80,0
148.77602,148.94008,61,80,0
148.85934,149.0234,68,80,0
148.94267,149.10674,56,80,0
149.02602,149.19008,61,80,0
149.10934,149.2734,68,80,0
149.19267,149.35674,56,80,0
149.27602,149.44008,61,80,0
149.35934,149.5234,68,80,0
149.44267,149.60674,56,80,0
149.52602,149.69008,61,80,0
149.60934,149.7734,68,80,0
149.69267,149.85674,56,80,0
149.77602,149.94008,61,80,0
149.85934,150.0234,68,80,0
149.94267,150.10674,56,80,0
150.02602,150.19008,61,80,0
150.10934,150.2734,68,80,0
150.19267,150.35674,58,81,0
150.27602,150.44008,61,82,0
150.35934,150.5234,70,83,0
150.44267,150.60674,58,84,0
150.52602,150.69008,61,85,0
150.60934,150.7734,70,86,0
150.69267,150.85674,58,87,0
150.77602,150.94008,61,88,0
150.85934,151.0234,70,89,0
150.94267,151.10674,58,90,0
151.02602,151.19008,61,91,0
151.10934,151.2734,70,92,0
151.19267,151.35674,58,93,0
151.27602,151.44008,61,94,0
151.35934,151.5234,70,95,0
151.44267,151.60674,58,96,0
151.52602,151.69008,61,97,0
151.60934,151.7734,70,98,0
151.69267,151.85674,58,80,0
151.77602,151.94008,63,80,0
151.85934,152.0234,70,80,0
151.94267,152.10674,56,79,0
152.02602,152.19008,63,79,0
152.10934,152.2734,68,79,0
152.19267,152.35674,56,78,0
152.27602,152.44008,63,78,0
152.35934,152.5234,68,77,0
152.44267,152.60674,56,77,0
152.52602,152.69008,63,77,0
152.60934,152.7734,68,76,0
152.69267,152.85674,54,76,0
152.77602,152.94008,56,75,0
152.85934,153.0234,66,75,0
152.94267,153.10674,54,75,0
153.02602,153.19008,56,74,0
153.10934,153.2734,66,74,0
153.19267,153.35674,54,73,0
153.27602,153.44008,56,73,0
153.35934,153.5234,66,73,0
153.44267,153.60674,53,72,0
153.52602,153.69008,56,72,0
153.60934,153.7734,65,71,0
153.69267,153.85674,53,71,0
153.77602,153.94008,56,71,0
153.85934,154.0234,65,70,0
153.94267,154.10674,53,70,0
154.02602,154.19008,56,70,0
154.10934,154.2734,65,69,0
154.19267,154.35674,54,69,0
154.27602,154.44008,57,68,0
154.35934,154.5234,66,68,0
154.44267,154.60674,54,68,0
154.52602,154.69008,57,67,0
154.60934,154.69008,63,67,0
154.69267,154.97542,62,66,0
154.69267,154.97542,58,66,0
154.69267,154.97542,50,66,0
154.9784,155.26114,65,65,0
154.9784,155.26114,62,65,0
154.9784,155.26114,58,65,0
154.9784,155.26114,53,65,0
155.26411,155.54684,65,64,0
155.26411,155.54684,62,64,0
155.26411,155.54684,58,64,0
155.26411,155.54684,53,64,0
155.54982,155.83257,65,63,0
155.54982,155.83257,62,63,0
155.54982,155.83257,58,63,0
155.54982,155.83257,53,63,0
156.12125,156.40399,58,61,0
156.40697,156.57103,54,70,0
156.4903,156.65436,58,70,0
156.57362,156.73769,66,70,0
156.65697,156.82103,54,70,0
156.7403,156.90436,58,70,0
156.82362,156.98769,66,70,0
156.90697,157.07103,54,70,0
156.9903,157.15436,58,70,0
157.07362,157.23769,66,70,0
157.15697,157.32103,54,70,0
157.2403,157.40436,58,70,0
157.32362,157.48769,66,70,0
157.40697,157.57103,53,70,0
157.4903,157.65436,58,70,0
157.57362,157.73769,65,70,0
157.65697,157.82103,54,70,0
157.7403,157.90436,58,70,0
157.82362,157.98769,66,70,0
157.90697,158.07103,56,80,0
157.9903,158.15436,58,80,0
158.07362,158.23769,68,80,0
158.15697,158.32103,56,80,0
158.2403,158.40436,58,80,0
158.32362,158.48769,68,80,0
158.40697,158.57103,56,80,0
158.4903,158.65436,58,80,0
158.57362,158.73769,68,80,0
158.65697,158.82103,56,80,0
158.7403,158.90436,58,80,0
158.82362,158.98769,68,80,0
158.90697,159.07103,56,80,0
158.9903,159.15436,58,80,0
159.07362,159.23769,68,80,0
159.15697,159.32103,56,80,0
159.2403,159.40436,58,80,0
159.32362,159.40436,68,80,0
159.40697,159.57103,54,80,0
159.4903,159.65436,58,80,0
159.57362,159.73769,66,80,0
159.65697,159.82103,54,80,0
159.7403,159.90436,58,80,0
159.82362,159.98769,66,80,0
159.90697,160.07103,54,80,0
159.9903,160.15436,58,80,0
160.07362,160.23769,66,80,0
160.15697,160.32103,54,80,0
160.2403,160.40436,58,80,0
160.32362,160.48769,66,80,0
160.40697,160.57103,53,80,0
160.4903,160.65436,58,80,0
160.57362,160.73769,65,80,0
160.65697,160.82103,54,80,0
160.7403,160.90436,58,80,0
160.82362,160.98769,66,80,0
160.90697,161.07103,56,80,0
160.9903,161.15436,61,80,0
161.07362,161.23769,68,80,0
161.15697,161.32103,56,80,0
161.2403,161.40436,61,80,0
161.32362,161.48769,68,80,0
161.40697,161.57103,56,80,0
161.4903,161.65436,61,80,0
161.57362,161.73769,68,80,0
161.65697,161.82103,56,80,0
161.7403,161.90436,61,80,0
161.82362,161.98769,68,80,0
161.90697,162.07103,56,80,0
161.9903,162.15436,61,80,0
162.07362,162.23769,68,80,0
162.15697,162.32103,56,80,0
162.2403,162.40436,61,80,0
162.32362,162.48769,68,80,0
162.40697,162.57103,58,81,0
162.4903,162.65436,61,82,0
162.57362,162.73769,70,83,0
162.65697,162.82103,58,84,0
162.7403,162.90436,61,85,0
162.82362,162.98769,70,86,0
162.90697,163.07103,58,87,0
162.9903,163.15436,61,88,0
163.07362,163.23769,70,89,0
163.15697,163.32103,58,90,0
163.2403,163.40436,61,91,0
163.32362,163.48769,70,92,0
163.40697,163.57103,58,93,0
163.4903,163.65436,61,94,0
163.57362,163.73769,70,95,0
163.65697,163.82103,58,96,0
163.7403,163.90436,61,97,0
163.82362,163.98769,70,98,0
163.90697,164.07103,58,90,0
163.9903,164.15436,63,90,0
164.07362,164.23769,70,89,0
164.15697,164.32103,56,89,0
164.2403,164.40436,63,88,0
164.32362,164.48769,68,88,0
164.40697,164.57103,56,87,0
164.4903,164.65436,63,87,0
164.57362,164.73769,68,86,0
164.65697,164.82103,56,85,0
164.7403,164.90436,63,85,0
164.82362,164.98769,68,84,0
164.90697,165.07103,54,84,0
164.9903,165.15436,56,83,0
165.07362,165.23769,66,83,0
165.15697,165.32103,54,82,0
165.2403,165.40436,56,81,0
165.32362,165.48769,66,81,0
165.40697,165.57103,54,80,0
165.4903,165.65436,56,80,0
165.57362,165.73769,66,79,0
165.65697,165.82103,53,79,0
165.7403,165.90436,56,78,0
165.82362,165.98769,65,77,0
165.90697,166.07103,53,77,0
165.9903,166.15436,56,76,0
166.07362,166.23769,65,76,0
166.15697,166.32103,53,75,0
166.2403,166.40436,56,75,0
166.32362,166.48769,65,74,0
166.40697,166.57103,54,73,0
166.4903,166.65436,57,73,0
166.57362,166.73769,66,72,0
166.65697,166.82103,54,72,0
166.7403,166.90436,57,71,0
166.82362,166.90436,63,71,0
166.90697,167.17685,62,70,0
166.90697,167.17685,58,70,0
166.90697,167.17685,50,70,0
167.17969,167.44957,65,70,0
167.17969,167.44957,62,70,0
167.17969,167.44957,58,70,0
167.17969,167.44957,53,70,0
167.45242,167.7223,65,70,0
167.45242,167.7223,62,70,0
167.45242,167.7223,58,70,0
167.45242,167.7223,53,70,0
167.72514,167.99503,65,70,0
167.72514,167.99503,62,70,0
167.72514,167.99503,58,70,0
167.72514,167.99503,53,70,0
168.2706,168.54048,65,80,0
168.54332,168.70738,61,80,0
168.62666,168.79073,65,80,0
168.70999,168.87405,73,80,0
168.79332,168.95738,61,80,0
168.87666,169.04073,65,80,0
168.95999,169.12405,73,80,0
169.04332,169.20738,61,80,0
169.12666,169.29073,65,80,0
169.20999,169.37405,73,80,0
169.29332,169.45738,61,80,0
169.37666,169.54073,65,80,0
169.45999,169.62405,73,80,0
169.54332,169.70738,60,80,0
169.62666,169.79073,65,80,0
169.70999,169.87405,72,80,0
169.79332,169.95738,61,80,0
169.87666,170.04073,65,80,0
169.95999,170.12405,73,80,0
170.04332,170.20738,63,80,0
170.12666,170.29073,65,80,0
170.20999,170.37405,75,80,0
170.29332,170.45738,63,80,0
170.37666,170.54073,65,80,0
170.45999,170.62405,75,80,0
170.54332,170.70738,63,80,0
170.62666,170.79073,65,80,0
170.70999,170.87405,75,80,0
170.79332,170.95738,63,80,0
170.87666,171.04073,65,80,0
170.95999,171.12405,75,80,0
171.04332,171.20738,63,80,0
171.12666,171.29073,65,80,0
171.20999,171.37405,75,80,0
171.29332,171.45738,63,80,0
171.37666,171.54073,65,80,0
171.45999,171.62405,75,80,0
171.54332,171.70738,61,80,0
171.62666,171.79073,65,80,0
171.70999,171.87405,73,80,0
171.79332,171.95738,61,80,0
171.87666,172.04073,65,80,0
171.95999,172.12405,73,80,0
172.04332,172.20738,61,80,0
172.12666,172.29073,65,80,0
172.20999,172.37405,73,80,0
172.29332,172.45738,61,80,0
172.37666,172.54073,65,80,0
172.45999,172.62405,73,80,0
172.54332,172.70738,60,80,0
172.62666,172.79073,65,80,0
172.70999,172.87405,72,80,0
172.79332,172.95738,61,80,0
172.87666,173.04073,65,80,0
172.95999,173.12405,73,80,0
173.04332,173.20738,62,80,0
173.12666,173.29073,70,80,0
173.20999,173.37405,74,80,0
173.29332,173.45738,62,80,0
173.37666,173.54073,70,80,0
173.45999,173.62405,74,80,0
173.54332,173.70738,62,80,0
173.62666,173.79073,70,80,0
173.70999,173.87405,74,80,0
173.79332,173.95738,62,80,0
173.87666,174.04073,70,80,0
173.95999,174.12405,74,80,0
174.04332,174.20738,62,80,0
174.12666,174.29073,70,80,0
174.20999,174.37405,74,80,0
174.29332,174.45738,62,80,0
174.37666,174.54073,70,80,0
174.45999,174.62405,74,80,0
174.54332,174.70738,63,81,0
174.62666,174.79073,68,83,0
174.70999,174.87405,75,84,0
174.79332,174.95738,63,86,0
174.87666,175.04073,70,87,0
174.95999,175.12405,75,89,0
175.04332,175.20738,65,91,0
175.12666,175.29073,70,92,0
175.20999,175.37405,77,94,0
175.29332,175.45738,66,95,0
175.37666,175.54073,70,97,0
175.45999,175.62405,78,98,0
175.54332,175.70738,66,100,0
175.62666,175.79073,70,102,0
175.70999,175.87405,78,103,0
175.79332,175.95738,69,105,0
175.87666,176.04073,75,106,0
175.95999,176.12405,81,108,0
176.04332,176.20738,70,109,0
176.12666,176.29073,74,110,0
176.20999,176.37405,82,110,0
176.29332,176.45738,68,110,0
176.37666,176.54073,71,110,0
176.45999,176.62405,80,110,0
176.54332,176.70738,66,110,0
176.62666,176.79073,70,110,0
176.70999,176.87405,78,110,0
176.79332,176.95738,65,110,0
176.87666,177.04073,68,110,0
176.95999,177.12405,77,110,0
177.04332,177.20738,63,110,0
177.12666,177.29073,66,110,0
177.20999,177.37405,75,110,0
177.29332,177.45738,62,110,0
177.37666,177.54073,65,110,0
177.45999,177.54073,74,110,0
177.54332,177.70738,63,80,0
177.62666,177.79073,66,80,0
177.70999,177.87405,75,80,0
177.79332,177.95738,54,80,0
177.87666,178.04073,58,80,0
177.95999,178.12405,66,80,0
178.04332,178.20738,54,80,0
178.12666,178.29073,58,80,0
178.20999,178.37405,66,80,0
178.29332,178.45738,54,80,0
178.37666,178.54073,58,80,0
178.45999,178.62405,66,80,0
178.54332,178.70738,53,80,0
178.62666,178.79073,58,80,0
178.70999,178.87405,65,80,0
178.79332,178.95738,54,80,0
178.87666,179.04073,58,80,0
178.95999,179.12405,66,80,0
179.04332,179.20738,56,80,0
179.12666,179.29073,58,80,0
179.20999,179.37405,68,80,0
179.29332,179.45738,56,80,0
179.37666,179.54073,58,80,0
179.45999,179.62405,68,80,0
179.54332,179.70738,56,80,0
179.62666,179.79073,58,80,0
179.70999,179.87405,68,80,0
179.79332,179.95738,56,80,0
179.87666,180.04073,58,80,0
179.95999,180.12405,68,80,0
180.04332,180.20738,56,80,0
180.12666,180.29073,58,80,0
180.20999,180.37405,68,80,0
180.29332,180.45738,56,80,0
180.37666,180.54073,58,80,0
180.45999,180.54073,68,80,0
180.54332,180.70738,54,80,0
180.62666,180.79073,58,80,0
180.70999,180.87405,66,80,0
180.79332,180.95738,54,80,0
180.87666,181.04073,58,80,0
180.95999,181.12405,66,80,0
181.04332,181.20738,54,80,0
181.12666,181.29073,58,80,0
181.20999,181.37405,66,80,0
181.29332,181.45738,54,80,0
181.37666,181.54073,58,80,0
181.45999,181.62405,66,80,0
181.54332,181.70738,53,80,0
181.62666,181.79073,58,80,0
181.70999,181.87405,65,80,0
181.79332,181.95738,54,80,0
181.87666,182.04073,58,80,0
181.95999,182.12405,66,80,0
182.04332,182.20738,56,80,0
182.12666,182.29073,63,80,0
182.20999,182.37405,68,80,0
182.29332,182.45738,56,80,0
182.37666,182.54073,63,80,0
182.45999,182.62405,68,80,0
182.54332,182.70738,56,80,0
182.62666,182.79073,63,80,0
182.70999,182.87405,68,80,0
182.79332,182.95738,56,80,0
182.87666,183.04073,63,80,0
182.95999,183.12405,68,80,0
183.04332,183.20738,56,80,0
183.12666,183.29073,63,80,0
183.20999,183.37405,68,80,0
183.29332,183.45738,59,80,0
183.37666,183.54073,63,80,0
183.45999,183.62405,70,80,0
183.54332,183.70738,59,80,0
183.62666,183.79073,63,80,0
183.70999,183.87405,71,80,0
183.79332,183.95738,59,80,0
183.87666,184.04073,63,80,0
183.95999,184.12405,71,80,0
184.04332,184.20738,59,80,0
184.12666,184.29073,63,80,0
184.20999,184.37405,71,80,0
184.29332,184.45738,62,80,0
184.37666,184.54073,68,80,0
184.45999,184.62405,74,80,0
184.54332,184.70738,62,80,0
184.62666,184.79073,68,83,0
184.70999,184.87405,74,85,0
184.79332,184.95738,62,86,0
184.87666,185.04073,68,87,0
184.95999,185.12405,74,88,0
185.04332,185.20738,63,90,0
185.12666,185.29073,66,91,0
185.20999,185.37405,75,92,0
185.29332,185.45738,63,93,0
185.37666,185.54073,66,94,0
185.45999,185.62405,75,95,0
185.54332,185.70738,65,96,0
185.62666,185.79073,70,97,0
185.70999,185.87405,77,98,0
185.79332,185.95738,66,99,0
185.87666,186.04073,70,101,0
185.95999,186.12405,78,102,0
186.04332,186.20738,66,106,0
186.12666,186.29073,70,109,0
186.20999,186.37405,78,112,0
186.29332,186.45738,69,113,0
186.37666,186.54073,78,116,0
186.45999,186.62405,81,120,0
186.54332,186.70738,70,120,0
186.62666,186.79073,78,120,0
186.70999,186.87405,82,120,0
186.79332,186.95738,70,120,0
186.87666,187.04073,78,120,0
186.95999,187.12405,82,120,0
187.04332,187.20738,70,120,0
187.12666,187.29073,78,120,0
187.20999,187.37405,82,120,0
187.29332,187.45738,74,120,0
187.37666,187.54073,80,120,0
187.45999,187.62405,86,120,0
187.54332,187.70738,74,120,0
187.62666,187.79073,80,120,0
187.70999,187.87405,86,120,0
187.79332,187.95738,74,120,0
187.87666,188.04073,80,120,0
187.95999,188.04073,86,120,0
188.04332,188.31322,75,120,0
188.04332,188.31322,78,120,0
188.04332,188.31322,87,120,0
189.13423,189.40411,66,80,0
189.40697,189.67685,65,80,0
189.67969,190.2223,63,79,0
190.22514,190.49503,62,78,0
190.49786,191.04048,63,78,0
189.67969,191.3132,53,79,0
189.67969,191.3132,56,79,0
191.04332,191.3132,65,77,0
191.31606,192.41563,58,76,0
192.4186,192.69998,66,74,0
191.31606,192.98434,54,76,0
192.70296,192.98434,65,74,0
192.9873,193.57828,63,73,0
193.58138,193.8753,62,72,0
193.8784,194.49692,63,72,0
192.9873,194.8078,53,73,0
192.9873,194.8078,56,73,0
194.50015,194.8078,65,71,0
194.81104,196.76416,58,60,0
196.76755,197.74242,63,60,0
197.74582,198.72067,67,60,0
198.72408,199.22147,70,80,0
198.72408,199.22147,67,80,0
198.72408,199.47147,63,80,0
198.72408,199.47147,58,80,0
199.22408,199.47147,67,80,0
199.47408,199.72147,63,80,0
199.97408,200.22147,70,80,0
200.22408,200.47147,75,80,0
199.72408,200.72147,67,80,0
200.47408,200.72147,79,80,0
200.72408,200.84647,77,80,0
200.72408,200.97147,65,80,0
200.84908,200.97147,74,80,0
200.97408,201.09647,75,80,0
200.97408,201.22147,67,80,0
201.09908,201.22147,79,80,0
201.22408,201.47147,70,80,0
201.72408,201.84647,72,80,0
201.84908,201.97147,75,80,0
201.97408,202.22147,70,80,0
202.47408,202.59647,68,80,0
202.47408,202.72147,65,80,0
202.59908,202.72147,70,80,0
202.72408,202.97147,63,80,0
202.72408,202.97147,67,80,0
203.22408,203.47147,65,80,0
203.22408,203.47147,62,80,0
203.47408,203.72147,68,80,0
203.47408,203.72147,65,80,0
203.72408,203.97147,67,80,0
203.72408,203.97147,63,80,0
203.97408,204.22147,65,80,0
203.97408,204.22147,62,80,0
204.72408,205.22147,70,80,0
204.72408,205.22147,67,80,0
204.72408,205.47147,63,80,0
204.72408,205.47147,58,80,0
205.22408,205.47147,67,80,0
205.47408,205.72147,63,80,0
206.22408,206.47673,75,80,0
205.72408,206.73753,67,80,0
205.97408,206.73753,70,80,0
206.47939,206.73753,79,80,0
206.74026,206.87378,77,80,0
206.74026,207.01015,68,80,0
206.74026,207.01015,65,80,0
206.87662,207.01015,74,80,0
207.01299,207.28287,75,80,0
207.01299,207.28287,67,80,0
207.01299,207.28287,63,80,0
208.1039,208.37378,77,70,0
208.37662,208.51015,75,70,0
208.51299,208.6465,72,70,0
208.37662,208.91924,65,70,0
208.64935,208.91924,74,70,0
209.96753,210.08992,87,100,0
210.09253,210.21492,84,100,0
210.21753,210.33992,86,100,0
210.34253,210.46492,89,100,0
210.46753,210.71492,77,100,0
210.71753,210.83992,87,100,0
210.84253,210.96492,84,100,0
210.96753,211.08992,86,100,0
211.09253,211.21492,89,100,0
211.21753,211.46492,77,100,0
211.46753,211.58992,87,100,0
211.59253,211.71492,84,100,0
211.71753,211.83992,86,100,0
211.84253,211.96492,89,100,0
211.96753,212.21492,77,100,0
212.21753,212.33992,87,100,0
212.34253,212.46492,84,100,0
212.46753,212.58992,86,100,0
212.59253,212.71492,89,100,0
212.71753,212.83992,87,100,0
212.84253,212.96492,86,100,0
212.96753,213.08992,84,100,0
213.09253,213.21492,82,100,0
213.21753,213.33992,81,100,0
213.34253,213.46492,82,100,0
213.46753,213.58992,86,100,0
213.59253,213.71492,77,100,0
213.71753,213.83992,84,100,0
213.84253,213.96492,75,100,0
213.96753,214.08992,82,100,0
213.96753,214.08992,74,100,0
214.09253,214.21492,77,100,0
214.21753,214.33992,75,100,0
214.34253,214.46492,74,100,0
214.46753,214.58992,72,100,0
214.59253,214.71492,70,100,0
214.71753,214.83992,69,100,0
214.84253,214.96492,70,100,0
214.96753,215.08992,74,100,0
215.09253,215.21492,65,100,0
215.21753,215.33992,72,100,0
215.34253,215.46492,63,100,0
215.46753,215.58992,62,100,0
215.46753,215.58992,70,100,0
215.59253,215.71492,65,100,0
215.71753,215.83992,62,100,0
215.84253,215.96492,58,100,0
215.96753,216.08992,53,100,0
216.09253,216.21492,50,100,0
217.71753,218.21492,70,83,0
218.21753,218.46492,67,85,0
218.46753,218.71492,64,87,0
218.71753,218.96492,67,88,0
218.96753,219.21492,70,89,0
219.21753,219.71492,73,90,0
219.71753,219.96492,70,92,0
219.96753,220.21492,67,94,0
220.21753,220.46492,70,95,0
220.46753,220.71492,73,96,0
220.71753,221.21492,76,97,0
221.21753,221.46492,73,99,0
221.46753,221.71492,70,100,0
221.71753,221.96492,73,100,0
221.96753,222.21492,76,100,0
222.21753,222.46492,79,100,0
222.46753,222.71492,77,100,0
222.71753,222.96492,76,100,0
222.96753,223.21492,76,100,0
223.21753,223.46492,77,100,0
223.46753,223.58992,77,100,0
223.53003,223.65242,79,100,0
223.59253,223.71492,76,100,0
223.65503,223.77742,77,100,0
223.71753,223.96492,80,100,0
223.96753,224.21492,79,100,0
224.21753,224.46492,77,100,0
224.71753,224.96492,76,100,0
224.96753,225.21492,76,100,0
225.21753,225.25659,76,100,0
225.2592,225.46233,79,100,0
225.46753,225.71492,77,100,0
225.71753,225.96492,76,100,0
226.21753,226.46492,77,100,0
226.46753,226.71492,77,100,0
226.71753,226.75659,77,100,0
226.7592,226.96492,80,100,0
226.96753,227.21492,79,100,0
227.21753,227.46492,77,100,0
227.46753,227.71492,75,100,0
227.71753,227.96492,74,97,0
227.96753,228.21492,74,93,0
228.21753,228.25659,74,89,0
228.2592,228.46492,77,89,0
228.46753,228.71492,75,86,0
228.71753,228.96492,74,82,0
228.96753,229.21492,72,78,0
229.21753,229.46492,70,74,0
229.46753,229.71492,69,71,0
229.71753,229.96492,70,70,0
229.96753,230.21492,72,70,0
230.21753,230.46492,68,70,0
230.46753,230.96492,70,80,0
230.46753,230.96492,67,80,0
230.46753,231.21492,63,80,0
230.46753,231.21492,58,80,0
230.96753,231.21492,67,80,0
231.21753,231.46492,63,80,0
231.96753,232.21492,75,80,0
231.46753,232.46492,67,80,0
232.21753,232.46492,79,80,0
232.46753,232.58992,77,80,0
232.46753,232.71492,65,80,0
232.59253,232.71492,74,80,0
232.71753,232.83992,75,80,0
231.71753,232.96492,70,80,0
232.71753,232.96492,67,80,0
232.84253,232.96492,79,80,0
232.96753,233.21492,70,80,0
233.46753,233.58992,72,80,0
233.59253,233.71492,75,80,0
233.71753,233.96492,70,80,0
234.21753,234.33992,68,80,0
234.21753,234.46492,65,80,0
234.34253,234.46492,70,80,0
234.46753,234.71492,63,80,0
234.46753,234.71492,67,80,0
234.96753,235.21492,65,80,0
234.96753,235.21492,62,80,0
235.21753,235.46492,68,80,0
235.21753,235.46492,65,80,0
235.46753,235.71492,67,80,0
235.46753,235.71492,63,80,0
235.71753,235.96492,65,80,0
235.71753,235.96492,62,80,0
236.46753,237.01015,70,80,0
236.46753,237.01015,66,80,0
236.46753,237.28287,63,80,0
236.46753,237.28287,58,80,0
237.01299,237.28287,66,80,0
237.2857,237.55559,63,80,0
238.1039,238.38663,75,80,0
237.55844,238.67235,66,80,0
237.83116,238.67235,70,80,0
238.3896,238.67235,78,80,0
238.67532,238.8152,77,80,0
238.67532,238.95805,68,80,0
238.67532,238.95805,65,80,0
238.81818,238.95805,74,80,0
238.96103,239.24377,75,80,0
238.96103,239.24377,66,80,0
238.96103,239.24377,63,80,0
240.3896,240.52948,76,70,0
240.53246,240.67233,73,71,0
240.3896,240.93347,66,70,0
240.67532,240.93347,75,72,0
241.19705,241.32477,76,76,0
241.32748,241.4552,73,78,0
241.19705,241.70532,66,76,0
241.45792,241.70532,75,79,0
241.95792,242.08032,76,83,0
242.08292,242.20532,73,84,0
241.95792,242.45532,66,83,0
242.20792,242.45532,75,86,0
242.45792,242.95532,66,88,0
242.45792,243.20532,78,88,0
242.95792,243.70532,68,93,0
243.20792,243.95532,76,95,0
243.70792,243.95532,70,99,0
243.95792,244.45532,75,100,0
243.95792,244.70532,71,100,0
244.45792,245.20532,73,100,0
244.70792,245.20532,70,100,0
245.20792,245.45532,75,100,0
245.20792,245.45532,71,100,0
245.45792,245.95532,66,100,0
245.45792,246.20532,78,100,0
245.95792,246.70532,68,100,0
246.20792,246.95532,76,100,0
246.70792,246.95532,70,100,0
246.95792,247.45532,71,100,0
246.95792,247.71059,75,100,0
247.45792,248.22122,70,100,0
247.71324,248.48203,73,100,0
248.48476,249.27037,71,92,0
249.27315,250.07637,70,83,0
250.07921,250.34909,69,74,0
251.69284,251.94025,70,100,0
251.94284,252.19025,70,100,0
252.19284,252.44025,70,101,0
252.44284,252.69025,70,101,0
252.69284,252.81525,80,102,0
252.69284,252.94025,70,102,0
252.81784,252.94025,77,102,0
252.94284,253.19025,70,103,0
252.94284,253.19025,79,103,0
253.19284,253.44025,70,103,0
253.44284,253.56525,77,104,0
253.44284,253.69025,70,104,0
253.56784,253.69025,74,104,0
253.69284,253.94025,70,105,0
253.69284,253.94025,75,105,0
253.94284,254.19025,70,105,0
254.19284,254.31525,80,106,0
254.19284,254.44025,70,106,0
254.31784,254.44025,77,106,0
254.44284,254.69025,70,106,0
254.44284,254.69025,79,106,0
254.69284,254.94025,70,107,0
254.94284,255.06525,77,108,0
254.94284,255.19025,70,108,0
255.06784,255.19025,74,108,0
255.19284,255.44025,75,108,0
255.44284,255.69025,75,109,0
255.69284,255.81525,84,110,0
255.69284,255.94025,75,110,0
255.81784,255.94025,80,110,0
255.94284,256.19025,75,110,0
255.94284,256.19025,82,110,0
256.19284,256.44025,75,110,0
256.44284,256.56525,80,110,0
256.44284,256.69025,75,110,0
256.56784,256.69025,78,110,0
256.69284,256.94025,75,110,0
256.69284,256.94025,79,110,0
256.94284,257.19025,75,110,0
257.19284,257.31525,84,110,0
257.19284,257.44025,75,110,0
257.31784,257.44025,80,110,0
257.44284,257.69025,75,110,0
257.44284,257.69025,82,110,0
257.69284,257.94025,75,110,0
257.94284,258.06525,80,110,0
257.94284,258.19025,75,110,0
258.06784,258.19025,78,110,0
258.19284,258.44025,75,110,0
258.19284,258.44025,79,110,0
258.44284,258.69025,75,110,0
258.69284,258.81525,85,120,0
258.69284,258.94025,75,120,0
258.81784,258.94025,82,120,0
258.94284,259.06525,84,120,0
259.06784,259.19025,87,120,0
259.19284,259.31525,86,120,0
259.31784,259.44025,84,120,0
259.44284,259.56525,82,120,0
259.56784,259.69025,80,120,0
259.69284,259.81525,79,120,0
259.81784,259.94025,82,120,0
259.94284,260.06525,87,120,0
260.06784,260.19025,79,120,0
260.19284,260.31525,86,120,0
260.31784,260.44025,77,120,0
260.44284,260.56525,87,120,0
260.56784,260.69025,75,120,0
260.69284,260.81525,74,120,0
260.81784,260.94025,72,120,0
260.94284,261.06525,70,120,0
261.06784,261.19025,68,120,0
261.19284,261.31525,67,120,0
261.31784,261.44025,70,120,0
261.44284,261.56525,75,120,0
261.56784,261.69025,67,120,0
261.69284,261.81525,74,120,0
261.81784,261.94025,65,120,0
261.94284,262.06525,75,120,0
262.06784,262.19025,63,120,0
262.19284,262.31525,62,120,0
262.31784,262.44025,60,120,0
262.44284,262.56525,58,120,0
262.56784,262.69025,56,120,0
262.69284,262.81525,55,120,0
262.81784,262.94025,58,120,0
262.94284,263.06525,63,120,0
263.06784,263.19025,55,120,0
263.19284,263.31525,62,120,0
263.31784,263.44025,53,120,0
263.44284,263.69025,63,120,0
263.44284,263.69025,55,120,0
264.19284,264.94025,67,120,0
264.19284,264.94025,63,120,0
264.19284,264.94025,58,120,0
264.19284,264.94025,55,120,0
264.94284,265.69025,68,120,0
264.94284,265.69025,63,120,0
264.94284,265.69025,60,120,0
264.94284,265.69025,56,120,0
265.69284,266.44025,70,120,0
265.69284,266.44025,62,120,0
265.69284,266.44025,56,120,0
266.44284,266.69025,63,120,0
266.44284,266.69025,55,120,0
266.69284,266.94025,75,120,0
266.94284,267.19025,75,120,0
267.19284,267.44025,73,120,0
267.44284,267.69025,75,120,0
267.69284,267.94025,70,120,0
267.94284,268.19025,72,120,0
268.19284,268.44025,75,120,0
268.44284,268.69025,68,120,0
268.69284,268.94025,74,120,0
268.94284,269.19025,77,120,0
268.69284,269.44025,65,120,0
268.69284,269.44025,68,120,0
269.19284,269.44025,70,120,0
269.44284,269.56525,75,120,0
269.44284,269.56525,67,120,0
269.56784,269.69025,70,120,0
269.69284,269.81525,67,120,0
269.81784,269.94025,63,120,0
269.94284,270.06525,58,120,0
270.06784,270.19025,55,120,0
0.25,0.49739584,51,80,0
0.5,0.7473958,55,80,0
1.0,1.2473959,55,80,0
1.25,1.4973959,51,80,0
0.75,1.9973959,58,80,0
1.5,2.2473958,46,80,0
2.0,2.2473958,56,80,0
2.25,2.4973958,55,80,0
2.25,2.4973958,51,80,0
3.0,3.2473958,56,80,0
3.0,3.4973958,63,80,0
3.25,3.4973958,55,80,0
3.75,3.9973958,50,80,0
3.75,4.247396,58,80,0
4.0,4.247396,51,80,0
4.5,4.747396,46,80,0
4.5,4.997396,58,80,0
4.75,4.997396,50,80,0
5.0,5.247396,58,80,0
5.0,5.247396,51,80,0
5.25,5.497396,58,80,0
5.25,5.497396,46,80,0
6.25,6.497396,51,80,0
6.5,6.747396,55,80,0
7.0,7.247396,55,80,0
7.25,7.497396,51,80,0
6.75,8.013471,58,80,0
7.5,8.013471,46,80,0
8.016188,8.280076,59,80,0
8.016188,8.280076,47,80,0
8.282854,8.546742,60,80,0
8.282854,8.546742,48,80,0
9.616184,9.880073,57,70,0
9.616184,9.880073,45,70,0
9.616184,10.146738,53,70,0
9.88285,10.146738,58,70,0
9.88285,10.146738,46,70,0
11.182848,11.4302435,60,100,0
11.182848,11.4302435,57,100,0
11.182848,11.6802435,65,100,0
11.432848,11.6802435,62,100,0
11.432848,11.6802435,58,100,0
11.682848,11.9302435,63,100,0
11.682848,11.9302435,60,100,0
11.932848,12.1802435,60,100,0
11.932848,12.1802435,57,100,0
11.682848,12.4302435,65,111,0
12.182848,12.4302435,62,100,0
12.182848,12.4302435,58,100,0
12.432848,12.6802435,63,100,0
12.432848,12.6802435,60,100,0
12.682848,12.9302435,60,100,0
12.682848,12.9302435,57,100,0
12.432848,13.1802435,65,111,0
12.932848,13.1802435,62,100,0
12.932848,13.1802435,58,100,0
13.182848,13.4302435,63,100,0
13.182848,13.4302435,60,100,0
13.432848,13.6802435,60,100,0
13.432848,13.6802435,57,100,0
13.182848,13.9302435,65,111,0
13.682848,13.9302435,62,100,0
13.682848,13.9302435,58,100,0
14.182848,14.4302435,52,100,0
14.432848,14.6802435,53,100,0
14.932848,15.1802435,41,100,0
15.182848,15.4302435,46,100,0
15.682848,15.9302435,40,100,0
15.932848,16.180244,41,100,0
16.432848,16.680244,41,100,0
16.432848,16.680244,29,100,0
16.682848,16.930244,34,100,0
16.682848,16.930244,46,100,0
17.432848,17.680244,46,100,0
17.432848,17.680244,34,100,0
18.432848,18.680244,51,80,0
18.682848,18.930244,55,80,0
19.182848,19.430244,55,80,0
19.432848,19.680244,51,80,0
18.932848,20.180244,58,80,0
19.682848,20.430244,46,80,0
20.182848,20.430244,56,80,0
20.432848,20.680244,55,80,0
20.432848,20.680244,51,80,0
21.182848,21.430244,56,80,0
21.182848,21.680244,63,80,0
21.432848,21.680244,55,80,0
21.932848,22.180244,50,80,0
21.932848,22.430244,58,80,0
22.182848,22.430244,51,80,0
22.682848,22.930244,46,80,0
22.682848,23.180244,58,80,0
22.932848,23.180244,50,80,0
23.182848,23.430244,58,80,0
23.182848,23.430244,51,80,0
23.432848,23.680244,58,80,0
23.432848,23.680244,46,80,0
24.432848,24.680244,51,80,0
24.682848,24.930244,55,80,0
25.182848,25.430244,55,80,0
25.432848,25.680244,51,80,0
24.932848,26.196318,58,80,0
25.682848,26.196318,46,80,0
26.199036,26.462925,59,80,0
26.199036,26.462925,47,80,0
26.465702,26.72959,60,80,0
26.465702,26.72959,48,80,0
27.799032,28.06292,57,70,0
27.799032,28.06292,45,70,0
27.799032,28.329586,53,70,0
28.065699,28.329586,58,70,0
28.065699,28.329586,46,70,0
29.365696,29.613092,60,100,0
29.365696,29.613092,57,100,0
29.365696,29.863092,65,100,0
29.615696,29.863092,62,100,0
29.615696,29.863092,58,100,0
29.865696,30.113092,63,100,0
29.865696,30.113092,60,100,0
30.115696,30.363092,60,100,0
30.115696,30.363092,57,100,0
29.865696,30.613092,65,111,0
30.365696,30.613092,62,100,0
30.365696,30.613092,58,100,0
30.615696,30.863092,63,100,0
30.615696,30.863092,60,100,0
30.865696,31.113092,60,100,0
30.865696,31.113092,57,100,0
30.615696,31.363092,65,111,0
31.115696,31.363092,62,100,0
31.115696,31.363092,58,100,0
31.365696,31.613092,63,100,0
31.365696,31.613092,60,100,0
31.615696,31.863092,60,100,0
31.615696,31.863092,57,100,0
31.365696,32.11309,65,111,0
31.865696,32.11309,62,100,0
31.865696,32.11309,58,100,0
32.365696,32.61309,52,100,0
32.615696,32.86309,53,100,0
33.115696,33.36309,41,100,0
33.365696,33.61309,46,100,0
33.865696,34.11309,40,100,0
34.115696,34.36309,41,100,0
34.615696,34.86309,41,100,0
34.615696,34.86309,29,100,0
34.865696,35.11309,34,100,0
34.865696,35.11309,46,100,0
35.615696,35.86309,46,100,0
35.615696,35.86309,34,100,0
36.365696,36.86309,58,80,0
36.865696,37.11309,55,82,0
37.115696,37.36309,52,83,0
37.365696,37.61309,55,84,0
37.615696,37.86309,58,85,0
37.865696,38.36309,61,87,0
38.365696,38.61309,58,89,0
38.615696,38.86309,55,90,0
38.865696,39.11309,58,91,0
39.115696,39.36309,61,92,0
39.365696,39.86309,64,94,0
39.865696,40.11309,61,96,0
40.115696,40.36309,58,97,0
40.365696,40.61309,61,98,0
40.615696,40.86309,64,99,0
40.865696,42.36309,67,100,0
40.865696,42.36309,70,100,0
42.365696,43.86309,68,100,0
42.365696,43.86309,72,100,0
43.865696,45.36309,67,100,0
43.865696,45.36309,70,100,0
43.865696,45.36309,73,100,0
45.365696,46.86309,68,100,0
45.365696,46.86309,72,100,0
46.865696,48.36309,65,100,0
46.865696,48.36309,68,100,0
48.365696,49.86309,62,78,0
48.365696,49.86309,65,78,0
50.115696,50.36309,51,80,0
50.365696,50.61309,55,80,0
50.865696,51.11309,55,80,0
51.115696,51.36309,51,80,0
51.365696,52.11309,46,80,0
51.865696,52.11309,44,80,0
50.615696,52.36309,58,80,0
52.115696,52.36309,43,80,0
52.865696,53.11309,56,80,0
52.865696,53.36309,63,80,0
53.115696,53.36309,55,80,0
53.615696,53.86309,50,80,0
53.615696,54.11309,58,80,0
53.865696,54.11309,51,80,0
54.365696,54.61309,46,80,0
54.365696,54.86309,58,80,0
54.615696,54.86309,50,80,0
54.865696,55.11309,58,80,0
54.865696,55.11309,51,80,0
55.115696,55.36309,58,80,0
55.115696,55.36309,46,80,0
56.15141,56.434147,51,80,0
56.437122,56.71986,54,80,0
57.008553,57.29129,54,80,0
57.294266,57.577003,51,80,0
56.72284,58.434147,58,80,0
57.57998,58.434147,46,80,0
58.437122,58.71986,59,80,0
58.437122,58.71986,47,80,0
59.794266,60.04166,58,100,0
59.794266,60.04166,46,100,0
59.794266,60.29166,54,100,0
60.044266,60.29166,59,100,0
60.044266,60.29166,47,100,0
60.544266,60.79166,58,100,0
60.544266,60.79166,46,100,0
60.544266,61.04166,54,100,0
60.794266,61.04166,59,100,0
60.794266,61.04166,47,100,0
61.294266,61.54166,58,100,0
61.294266,61.54166,46,100,0
61.294266,61.544266,54,100,0
61.544266,62.04166,47,100,0
62.044266,62.29166,51,100,0
61.544266,62.79166,59,100,0
62.294266,63.04166,52,100,0
62.794266,63.54166,61,100,0
63.544266,63.79166,63,100,0
63.794266,64.04166,64,100,0
64.044266,64.29166,66,100,0
63.044266,64.54166,55,100,0
64.294266,64.54166,64,100,0
64.544266,64.79166,63,100,0
65.044266,65.29166,51,100,0
64.544266,65.79166,59,100,0
65.294266,66.04166,52,100,0
65.794266,66.54166,61,100,0
66.044266,66.79166,54,100,0
66.544266,67.302246,63,100,0
66.794266,67.55756,55,100,0
67.3049,68.07924,63,98,0
67.56022,68.34011,56,95,0
68.08196,68.87338,63,89,0
68.34283,69.140045,58,86,0
68.87616,69.68544,63,80,0
69.14282,69.95817,59,77,0
69.68828,69.95817,63,71,0
70.77919,71.02658,58,100,0
72.02919,72.15158,65,102,0
72.15419,72.27658,62,102,0
72.27919,72.52658,63,103,0
72.52919,72.77658,58,103,0
72.77919,72.90158,68,104,0
72.90419,73.02658,65,104,0
73.02919,73.27658,67,105,0
73.27919,73.52658,58,105,0
73.52919,73.65158,65,106,0
73.65419,73.77658,62,106,0
73.77919,74.02658,63,106,0
74.02919,74.27658,58,107,0
74.27919,74.40158,68,108,0
74.40419,74.52658,65,108,0
74.52919,74.77658,67,108,0
74.77919,75.02658,63,109,0
75.02919,75.15158,68,110,0
75.15419,75.27658,65,110,0
75.27919,75.52658,67,110,0
75.52919,75.77658,63,110,0
75.77919,75.90158,72,110,0
75.90419,76.02658,69,110,0
76.02919,76.27658,70,110,0
76.27919,76.52658,63,110,0
76.52919,76.65158,68,110,0
76.65419,76.77658,65,110,0
76.77919,77.02658,67,110,0
77.02919,77.27658,63,110,0
77.27919,77.40158,72,110,0
77.40419,77.52658,69,110,0
77.52919,77.77658,70,110,0
77.77919,78.02658,63,110,0
78.02919,78.27658,67,120,0
78.02919,78.27658,55,120,0
78.02919,78.52658,63,120,0
78.27919,78.52658,68,120,0
78.27919,78.52658,56,120,0
78.77919,79.02658,56,120,0
79.02919,79.27658,58,120,0
79.52919,79.77658,65,120,0
79.52919,79.77658,68,120,0
79.52919,79.77658,59,120,0
79.77919,80.02658,60,120,0
79.77919,80.02658,63,120,0
79.77919,80.02658,67,120,0
80.27919,80.52658,44,120,0
80.52919,80.77658,46,120,0
81.02919,81.27658,53,120,0
81.02919,81.27658,56,120,0
81.02919,81.27658,47,120,0
81.27919,81.52658,48,120,0
81.27919,81.52658,51,120,0
81.27919,81.52658,55,120,0
81.77919,82.02658,32,120,0
82.02919,82.27658,34,120,0
82.27919,82.52658,46,120,0
82.52919,82.77658,46,120,0
83.02919,83.27658,51,120,0
83.27919,83.52658,51,120,0
83.52919,83.77658,49,120,0
83.77919,84.02658,51,120,0
84.02919,84.27658,46,120,0
84.27919,84.52658,48,120,0
84.52919,84.77658,51,120,0
84.77919,85.02658,44,120,0
85.02919,85.27658,50,120,0
85.27919,85.52658,53,120,0
82.77919,85.77658,39,120,0
85.52919,85.77658,46,120,0
86.52919,87.27658,55,120,0
86.52919,87.27658,58,120,0
85.77919,88.02658,51,120,0
87.27919,88.02658,56,120,0
87.27919,88.02658,60,120,0
88.02919,88.77658,51,120,0
88.02919,88.77658,53,120,0
88.02919,88.77658,56,120,0
88.02919,88.77658,58,120,0
88.02919,88.77658,62,120,0
88.77919,89.02658,63,120,0
88.77919,89.02658,58,120,0
88.77919,89.02658,55,120,0
88.77919,89.02658,51,120,0
89.52919,89.77658,51,120,0
89.52919,89.77658,39,120,0
90.27919,90.77658,58,80,0
90.77919,91.02658,55,82,0
91.02919,91.27658,52,83,0
91.27919,91.52658,55,84,0
91.52919,91.77658,58,85,0
91.77919,92.27658,61,87,0
92.27919,92.52658,58,89,0
92.52919,92.77658,55,90,0
92.77919,93.02658,58,91,0
93.02919,93.27658,61,92,0
93.27919,93.77658,64,94,0
93.77919,94.02658,61,96,0
94.02919,94.27658,58,97,0
94.27919,94.52658,61,98,0
94.52919,94.77658,64,99,0
94.77919,96.27658,67,100,0
94.77919,96.27658,70,100,0
96.27919,97.77658,68,100,0
96.27919,97.77658,72,100,0
97.77919,99.27658,67,100,0
97.77919,99.27658,70,100,0
97.77919,99.27658,73,100,0
99.27919,100.77658,68,100,0
99.27919,100.77658,72,100,0
100.77919,102.27658,65,100,0
100.77919,102.27658,68,100,0
102.27919,103.77658,62,78,0
102.27919,103.77658,65,78,0
104.02919,104.27658,51,80,0
104.27919,104.52658,55,80,0
104.77919,105.02658,55,80,0
105.02919,105.27658,51,80,0
105.27919,106.02658,46,80,0
105.77919,106.02658,44,80,0
104.52919,106.27658,58,80,0
106.02919,106.27658,43,80,0
106.77919,107.02658,56,80,0
106.77919,107.27658,63,80,0
107.02919,107.27658,55,80,0
107.52919,107.77658,50,80,0
107.52919,108.02658,58,80,0
107.77919,108.02658,51,80,0
108.27919,108.52658,46,80,0
108.27919,108.77658,58,80,0
108.52919,108.77658,50,80,0
108.77919,109.02658,58,80,0
108.77919,109.02658,51,80,0
109.02919,109.27658,58,80,0
109.02919,109.27658,46,80,0
110.0649,110.34764,51,80,0
110.35062,110.633354,54,80,0
110.92204,111.20478,54,80,0
111.207756,111.49049,51,80,0
110.63633,112.34764,58,80,0
111.49347,112.34764,46,80,0
112.35062,112.633354,59,80,0
112.35062,112.633354,47,80,0
113.707756,113.955154,58,70,0
113.707756,113.955154,46,70,0
113.707756,114.205154,54,70,0
113.957756,114.205154,59,72,0
113.957756,114.205154,47,72,0
114.457756,114.705154,58,76,0
114.457756,114.705154,46,76,0
114.457756,114.955154,54,76,0
114.707756,114.955154,59,79,0
114.707756,114.955154,47,79,0
115.207756,115.455154,58,83,0
115.207756,115.455154,46,83,0
115.207756,115.457756,54,83,0
115.457756,115.955154,47,86,0
115.957756,116.205154,51,90,0
115.457756,116.705154,59,86,0
116.207756,116.955154,52,93,0
116.707756,117.455154,61,97,0
117.457756,117.705154,63,100,0
117.707756,117.955154,64,100,0
117.957756,118.205154,66,100,0
116.957756,118.455154,55,99,0
118.207756,118.455154,64,100,0
118.457756,118.705154,63,100,0
118.957756,119.205154,51,100,0
118.457756,119.705154,59,100,0
119.207756,119.955154,52,100,0
119.707756,120.455154,61,100,0
119.957756,120.705154,54,100,0
120.457756,121.21574,63,100,0
120.707756,121.471054,55,100,0
121.21839,121.99274,63,95,0
121.47372,122.2536,56,92,0
121.99545,122.78687,63,87,0
122.25632,123.05354,58,84,0
122.78965,123.59893,63,79,0
123.05632,123.87166,59,76,0
123.60177,123.87166,63,71,0
124.69268,124.94008,58,100,0
125.94268,126.06508,65,102,0
126.06768,126.19008,62,102,0
126.19268,126.44008,63,103,0
126.44268,126.69008,58,103,0
126.69268,126.81508,68,104,0
126.81768,126.94008,65,104,0
126.94268,127.19008,67,105,0
127.19268,127.44008,58,105,0
127.44268,127.56508,65,106,0
127.56768,127.69008,62,106,0
127.69268,127.94008,63,106,0
127.94268,128.19008,58,107,0
128.19267,128.31508,68,108,0
128.31767,128.44008,65,108,0
128.44267,128.69008,67,108,0
128.69267,128.94008,63,109,0
128.94267,129.06508,68,110,0
129.06767,129.19008,65,110,0
129.19267,129.44008,67,110,0
129.44267,129.69008,63,110,0
129.69267,129.81508,72,110,0
129.81767,129.94008,69,110,0
129.94267,130.19008,70,110,0
130.19267,130.44008,63,110,0
130.44267,130.56508,68,110,0
130.56767,130.69008,65,110,0
130.69267,130.94008,67,110,0
130.94267,131.19008,63,110,0
131.19267,131.31508,72,110,0
131.31767,131.44008,69,110,0
131.44267,131.69008,70,110,0
131.69267,131.94008,63,110,0
131.94267,132.19008,67,120,0
131.94267,132.19008,55,120,0
131.94267,132.44008,63,120,0
132.19267,132.44008,68,120,0
132.19267,132.44008,56,120,0
132.69267,132.94008,56,120,0
132.94267,133.19008,58,120,0
133.44267,133.69008,65,120,0
133.44267,133.69008,68,120,0
133.44267,133.69008,59,120,0
133.69267,133.94008,60,120,0
133.69267,133.94008,63,120,0
133.69267,133.94008,67,120,0
134.19267,134.44008,44,120,0
134.44267,134.69008,46,120,0
134.94267,135.19008,53,120,0
134.94267,135.19008,56,120,0
134.94267,135.19008,47,120,0
135.19267,135.44008,48,120,0
135.19267,135.44008,51,120,0
135.19267,135.44008,55,120,0
135.69267,135.94008,32,120,0
135.94267,136.19008,34,120,0
136.19267,136.44008,46,120,0
136.44267,136.69008,46,120,0
136.94267,137.19008,51,120,0
137.19267,137.44008,51,120,0
137.44267,137.69008,49,120,0
137.69267,137.94008,51,120,0
137.94267,138.19008,46,120,0
138.19267,138.44008,48,120,0
138.44267,138.69008,51,120,0
138.69267,138.94008,44,120,0
138.94267,139.19008,50,120,0
139.19267,139.44008,53,120,0
136.69267,139.69008,39,120,0
139.44267,139.69008,46,120,0
140.44267,141.19008,55,120,0
140.44267,141.19008,58,120,0
139.69267,141.94008,51,120,0
141.19267,141.94008,56,120,0
141.19267,141.94008,60,120,0
141.94267,142.69008,51,120,0
141.94267,142.69008,53,120,0
141.94267,142.69008,56,120,0
141.94267,142.69008,58,120,0
141.94267,142.69008,62,120,0
142.69267,142.94008,63,120,0
142.69267,142.94008,58,120,0
142.69267,142.94008,55,120,0
142.69267,142.94008,51,120,0
143.44267,143.69008,51,120,0
143.44267,143.69008,39,120,0
144.19267,144.35674,39,70,0
144.27602,144.44008,46,70,0
144.35934,144.5234,51,70,0
144.44267,144.60674,39,70,0
144.52602,144.69008,46,70,0
144.60934,144.7734,51,70,0
144.69267,144.85674,39,70,0
144.77602,144.94008,46,70,0
144.85934,145.0234,51,70,0
144.94267,145.10674,39,70,0
145.02602,145.19008,46,70,0
145.10934,145.2734,51,70,0
145.19267,145.35674,38,70,0
145.27602,145.44008,46,70,0
145.35934,145.5234,50,70,0
145.44267,145.60674,39,70,0
145.52602,145.69008,46,70,0
145.60934,145.7734,51,70,0
145.69267,145.85674,41,96,0
145.77602,145.94008,46,70,0
145.85934,146.0234,53,70,0
145.94267,146.10674,41,70,0
146.02602,146.19008,46,70,0
146.10934,146.2734,53,70,0
146.19267,146.35674,41,70,0
146.27602,146.44008,46,70,0
146.35934,146.5234,53,80,0
146.44267,146.60674,41,80,0
146.52602,146.69008,46,80,0
146.60934,146.7734,53,80,0
146.69267,146.85674,41,80,0
146.77602,146.94008,46,80,0
146.85934,147.0234,53,80,0
146.94267,147.10674,41,80,0
147.02602,147.19008,46,80,0
147.10934,147.19008,53,80,0
147.19267,147.35674,39,80,0
147.27602,147.44008,46,80,0
147.35934,147.5234,51,80,0
147.44267,147.60674,39,80,0
147.52602,147.69008,46,80,0
147.60934,147.7734,51,80,0
147.69267,147.85674,39,80,0
147.77602,147.94008,46,80,0
147.85934,148.0234,51,80,0
147.94267,148.10674,39,80,0
148.02602,148.19008,46,80,0
148.10934,148.2734,51,80,0
148.19267,148.35674,38,80,0
148.27602,148.44008,46,80,0
148.35934,148.5234,50,80,0
148.44267,148.60674,39,80,0
148.52602,148.69008,46,80,0
148.60934,148.7734,51,80,0
148.69267,148.85674,41,80,0
148.77602,148.94008,49,80,0
148.85934,149.0234,53,80,0
148.94267,149.10674,41,80,0
149.02602,149.19008,49,80,0
149.10934,149.2734,53,80,0
149.19267,149.35674,41,80,0
149.27602,149.44008,49,80,0
149.35934,149.5234,53,80,0
149.44267,149.60674,41,80,0
149.52602,149.69008,49,80,0
149.60934,149.7734,53,80,0
149.69267,149.85674,41,80,0
149.77602,149.94008,49,80,0
149.85934,150.0234,53,80,0
149.94267,150.10674,41,80,0
150.02602,150.19008,49,80,0
150.10934,150.2734,53,80,0
150.19267,150.35674,42,81,0
150.27602,150.44008,49,82,0
150.35934,150.5234,54,83,0
150.44267,150.60674,42,84,0
150.52602,150.69008,49,85,0
150.60934,150.7734,54,86,0
150.69267,150.85674,42,87,0
150.77602,150.94008,49,88,0
150.85934,151.0234,54,89,0
150.94267,151.10674,30,90,0
151.02602,151.19008,37,91,0
151.10934,151.2734,42,92,0
151.19267,151.35674,30,93,0
151.27602,151.44008,37,94,0
151.35934,151.5234,42,95,0
151.44267,151.60674,30,96,0
151.52602,151.69008,37,97,0
151.60934,151.7734,42,98,0
151.69267,151.85674,35,80,0
151.77602,151.94008,39,80,0
151.85934,152.0234,47,80,0
151.94267,152.10674,35,79,0
152.02602,152.19008,39,79,0
152.10934,152.2734,47,79,0
152.19267,152.35674,35,78,0
152.27602,152.44008,39,78,0
152.35934,152.5234,47,77,0
152.44267,152.60674,35,77,0
152.52602,152.69008,39,77,0
152.60934,152.7734,47,76,0
152.69267,152.85674,35,76,0
152.77602,152.94008,39,75,0
152.85934,153.0234,47,75,0
152.94267,153.10674,35,75,0
153.02602,153.19008,39,74,0
153.10934,153.2734,47,74,0
153.19267,153.35674,35,73,0
153.27602,153.44008,39,73,0
153.35934,153.5234,47,73,0
153.44267,153.60674,35,72,0
153.52602,153.69008,39,72,0
153.60934,153.7734,47,71,0
153.69267,153.85674,35,71,0
153.77602,153.94008,39,71,0
153.85934,154.0234,47,70,0
153.94267,154.10674,35,70,0
154.02602,154.19008,39,70,0
154.10934,154.2734,47,69,0
154.19267,154.35674,35,69,0
154.27602,154.44008,39,68,0
154.35934,154.5234,47,68,0
154.44267,154.60674,35,68,0
154.52602,154.69008,39,67,0
154.60934,154.69008,47,67,0
154.69267,154.97542,46,66,0
154.69267,154.97542,34,66,0
154.9784,155.26114,46,65,0
155.26411,155.54684,46,64,0
155.54982,155.83257,46,63,0
156.40697,156.57103,39,70,0
156.4903,156.65436,46,70,0
156.57362,156.73769,51,70,0
156.65697,156.82103,39,70,0
156.7403,156.90436,46,70,0
156.82362,156.98769,51,70,0
156.90697,157.07103,39,70,0
156.9903,157.15436,46,70,0
157.07362,157.23769,51,70,0
157.15697,157.32103,39,70,0
157.2403,157.40436,46,70,0
157.32362,157.48769,51,70,0
157.40697,157.57103,38,70,0
157.4903,157.65436,46,70,0
157.57362,157.73769,50,70,0
157.65697,157.82103,39,70,0
157.7403,157.90436,46,70,0
157.82362,157.98769,51,70,0
157.90697,158.07103,41,80,0
157.9903,158.15436,46,80,0
158.07362,158.23769,53,80,0
158.15697,158.32103,41,80,0
158.2403,158.40436,46,80,0
158.32362,158.48769,53,80,0
158.40697,158.57103,41,80,0
158.4903,158.65436,46,80,0
158.57362,158.73769,53,80,0
158.65697,158.82103,41,80,0
158.7403,158.90436,46,80,0
158.82362,158.98769,53,80,0
158.90697,159.07103,41,80,0
158.9903,159.15436,46,80,0
159.07362,159.23769,53,80,0
159.15697,159.32103,41,80,0
159.2403,159.40436,46,80,0
159.32362,159.40436,53,80,0
159.40697,159.57103,39,80,0
159.4903,159.65436,46,80,0
159.57362,159.73769,51,80,0
159.65697,159.82103,39,80,0
159.7403,159.90436,46,80,0
159.82362,159.98769,51,80,0
159.90697,160.07103,39,80,0
159.9903,160.15436,46,80,0
160.07362,160.23769,51,80,0
160.15697,160.32103,39,80,0
160.2403,160.40436,46,80,0
160.32362,160.48769,51,80,0
160.40697,160.57103,38,80,0
160.4903,160.65436,46,80,0
160.57362,160.73769,50,80,0
160.65697,160.82103,39,80,0
160.7403,160.90436,46,80,0
160.82362,160.98769,51,80,0
160.90697,161.07103,41,80,0
160.9903,161.15436,49,80,0
161.07362,161.23769,53,80,0
161.15697,161.32103,41,80,0
161.2403,161.40436,49,80,0
161.32362,161.48769,53,80,0
161.40697,161.57103,41,80,0
161.4903,161.65436,49,80,0
161.57362,161.73769,53,80,0
161.65697,161.82103,41,80,0
161.7403,161.90436,49,80,0
161.82362,161.98769,53,80,0
161.90697,162.07103,41,80,0
161.9903,162.15436,49,80,0
162.07362,162.23769,53,80,0
162.15697,162.32103,41,80,0
162.2403,162.40436,49,80,0
162.32362,162.48769,53,80,0
162.40697,162.57103,42,81,0
162.4903,162.65436,49,82,0
162.57362,162.73769,54,83,0
162.65697,162.82103,42,84,0
162.7403,162.90436,49,85,0
162.82362,162.98769,54,86,0
162.90697,163.07103,42,87,0
162.9903,163.15436,49,88,0
163.07362,163.23769,54,89,0
163.15697,163.32103,30,90,0
163.2403,163.40436,37,91,0
163.32362,163.48769,42,92,0
163.40697,163.57103,30,93,0
163.4903,163.65436,37,94,0
163.57362,163.73769,42,95,0
163.65697,163.82103,30,96,0
163.7403,163.90436,37,97,0
163.82362,163.98769,42,98,0
163.90697,164.07103,35,90,0
163.9903,164.15436,39,90,0
164.07362,164.23769,47,89,0
164.15697,164.32103,35,89,0
164.2403,164.40436,39,88,0
164.32362,164.48769,47,88,0
164.40697,164.57103,35,87,0
164.4903,164.65436,39,87,0
164.57362,164.73769,47,86,0
164.65697,164.82103,35,85,0
164.7403,164.90436,39,85,0
164.82362,164.98769,47,84,0
164.90697,165.07103,35,84,0
164.9903,165.15436,39,83,0
165.07362,165.23769,47,83,0
165.15697,165.32103,35,82,0
165.2403,165.40436,39,81,0
165.32362,165.48769,47,81,0
165.40697,165.57103,35,80,0
165.4903,165.65436,39,80,0
165.57362,165.73769,47,79,0
165.65697,165.82103,35,79,0
165.7403,165.90436,39,78,0
165.82362,165.98769,47,77,0
165.90697,166.07103,35,77,0
165.9903,166.15436,39,76,0
166.07362,166.23769,47,76,0
166.15697,166.32103,35,75,0
166.2403,166.40436,39,75,0
166.32362,166.48769,47,74,0
166.40697,166.57103,35,73,0
166.4903,166.65436,39,73,0
166.57362,166.73769,47,72,0
166.65697,166.82103,35,72,0
166.7403,166.90436,39,71,0
166.82362,166.90436,47,71,0
166.90697,167.17685,46,70,0
166.90697,167.17685,34,70,0
167.17969,167.44957,46,70,0
167.45242,167.7223,46,70,0
167.72514,167.99503,46,70,0
168.54332,168.70738,46,80,0
168.62666,168.79073,53,80,0
168.70999,168.87405,58,80,0
168.79332,168.95738,46,80,0
168.87666,169.04073,53,80,0
168.95999,169.12405,58,80,0
169.04332,169.20738,46,80,0
169.12666,169.29073,53,80,0
169.20999,169.37405,58,80,0
169.29332,169.45738,46,80,0
169.37666,169.54073,53,80,0
169.45999,169.62405,58,80,0
169.54332,169.70738,45,80,0
169.62666,169.79073,53,80,0
169.70999,169.87405,57,80,0
169.79332,169.95738,46,80,0
169.87666,170.04073,53,80,0
169.95999,170.12405,58,80,0
170.04332,170.20738,48,80,0
170.12666,170.29073,53,80,0
170.20999,170.37405,60,80,0
170.29332,170.45738,48,80,0
170.37666,170.54073,53,80,0
170.45999,170.62405,60,80,0
170.54332,170.70738,48,80,0
170.62666,170.79073,53,80,0
170.70999,170.87405,60,80,0
170.79332,170.95738,48,80,0
170.87666,171.04073,53,80,0
170.95999,171.12405,60,80,0
171.04332,171.20738,48,80,0
171.12666,171.29073,53,80,0
171.20999,171.37405,60,80,0
171.29332,171.45738,48,80,0
171.37666,171.54073,53,80,0
171.45999,171.62405,60,80,0
171.54332,171.70738,46,80,0
171.62666,171.79073,53,80,0
171.70999,171.87405,58,80,0
171.79332,171.95738,46,80,0
171.87666,172.04073,53,80,0
171.95999,172.12405,58,80,0
172.04332,172.20738,46,80,0
172.12666,172.29073,53,80,0
172.20999,172.37405,58,80,0
172.29332,172.45738,46,80,0
172.37666,172.54073,53,80,0
172.45999,172.62405,58,80,0
172.54332,172.70738,45,80,0
172.62666,172.79073,53,80,0
172.70999,172.87405,57,80,0
172.79332,172.95738,46,80,0
172.87666,173.04073,53,80,0
172.95999,173.12405,58,80,0
173.04332,173.20738,44,80,0
173.12666,173.29073,46,80,0
173.20999,173.37405,56,80,0
173.29332,173.45738,44,80,0
173.37666,173.54073,46,80,0
173.45999,173.62405,56,80,0
173.54332,173.70738,44,80,0
173.62666,173.79073,46,80,0
173.70999,173.87405,56,80,0
173.79332,173.95738,44,80,0
173.87666,174.04073,46,80,0
173.95999,174.12405,56,80,0
174.04332,174.20738,44,80,0
174.12666,174.29073,46,80,0
174.20999,174.37405,56,80,0
174.29332,174.45738,44,80,0
174.37666,174.54073,46,80,0
174.45999,174.62405,56,80,0
174.54332,174.70738,42,81,0
174.62666,174.79073,46,83,0
174.70999,174.87405,54,84,0
174.79332,174.95738,42,86,0
174.87666,175.04073,46,87,0
174.95999,175.12405,54,89,0
175.04332,175.20738,38,91,0
175.12666,175.29073,46,92,0
175.20999,175.37405,50,94,0
175.29332,175.45738,39,95,0
175.37666,175.54073,46,97,0
175.45999,175.62405,51,98,0
175.54332,175.70738,39,100,0
175.62666,175.79073,46,102,0
175.70999,175.87405,51,103,0
175.79332,175.95738,35,105,0
175.87666,176.04073,39,106,0
175.95999,176.12405,47,108,0
176.04332,176.29073,46,109,0
176.04332,176.29073,34,109,0
177.54332,177.70738,39,80,0
177.62666,177.79073,46,80,0
177.70999,177.87405,51,80,0
177.79332,177.95738,39,80,0
177.87666,178.04073,46,80,0
177.95999,178.12405,51,80,0
178.04332,178.20738,39,80,0
178.12666,178.29073,46,80,0
178.20999,178.37405,51,80,0
178.29332,178.45738,39,80,0
178.37666,178.54073,46,80,0
178.45999,178.62405,51,80,0
178.54332,178.70738,38,80,0
178.62666,178.79073,46,80,0
178.70999,178.87405,50,80,0
178.79332,178.95738,39,80,0
178.87666,179.04073,46,80,0
178.95999,179.12405,51,80,0
179.04332,179.20738,41,80,0
179.12666,179.29073,46,80,0
179.20999,179.37405,53,80,0
179.29332,179.45738,41,80,0
179.37666,179.54073,46,80,0
179.45999,179.62405,53,80,0
179.54332,179.70738,41,80,0
179.62666,179.79073,46,80,0
179.70999,179.87405,53,80,0
179.79332,179.95738,41,80,0
179.87666,180.04073,46,80,0
179.95999,180.12405,53,80,0
180.04332,180.20738,41,80,0
180.12666,180.29073,46,80,0
180.20999,180.37405,53,80,0
180.29332,180.45738,41,80,0
180.37666,180.54073,46,80,0
180.45999,180.54073,53,80,0
180.54332,180.70738,39,80,0
180.62666,180.79073,46,80,0
180.70999,180.87405,51,80,0
180.79332,180.95738,39,80,0
180.87666,181.04073,46,80,0
180.95999,181.12405,51,80,0
181.04332,181.20738,39,80,0
181.12666,181.29073,46,80,0
181.20999,181.37405,51,80,0
181.29332,181.45738,39,80,0
181.37666,181.54073,46,80,0
181.45999,181.62405,51,80,0
181.54332,181.70738,38,80,0
181.62666,181.79073,46,80,0
181.70999,181.87405,50,80,0
181.79332,181.95738,39,80,0
181.87666,182.04073,46,80,0
181.95999,182.12405,51,80,0
182.04332,182.20738,35,80,0
182.12666,182.29073,39,80,0
182.20999,182.37405,47,80,0
182.29332,182.45738,35,80,0
182.37666,182.54073,39,80,0
182.45999,182.62405,47,80,0
182.54332,182.70738,35,80,0
182.62666,182.79073,39,80,0
182.70999,182.87405,47,80,0
182.79332,182.95738,35,80,0
182.87666,183.04073,39,80,0
182.95999,183.12405,47,80,0
183.04332,183.20738,35,80,0
183.12666,183.29073,39,80,0
183.20999,183.37405,47,80,0
183.29332,183.45738,34,80,0
183.37666,183.54073,39,80,0
183.45999,183.62405,46,80,0
183.54332,183.70738,32,80,0
183.62666,183.79073,39,80,0
183.70999,183.87405,44,80,0
183.79332,183.95738,32,80,0
183.87666,184.04073,39,80,0
183.95999,184.12405,44,80,0
184.04332,184.20738,32,80,0
184.12666,184.29073,39,80,0
184.20999,184.37405,44,80,0
184.29332,184.45738,35,80,0
184.37666,184.54073,41,80,0
184.45999,184.62405,47,80,0
184.54332,184.70738,35,80,0
184.62666,184.79073,41,81,0
184.70999,184.87405,47,84,0
184.79332,184.95738,34,86,0
184.87666,185.04073,41,86,0
184.95999,185.12405,46,88,0
185.04332,185.20738,39,90,0
185.12666,185.29073,46,91,0
185.20999,185.37405,51,92,0
185.29332,185.45738,39,93,0
185.37666,185.54073,46,94,0
185.45999,185.62405,51,95,0
185.54332,185.70738,38,96,0
185.62666,185.79073,46,97,0
185.70999,185.87405,50,98,0
185.79332,185.95738,39,99,0
185.87666,186.04073,46,101,0
185.95999,186.12405,51,102,0
186.04332,186.20738,39,103,0
186.12666,186.29073,46,104,0
186.20999,186.37405,51,105,0
186.29332,186.45738,35,106,0
186.37666,186.54073,39,107,0
186.45999,186.62405,47,120,0
186.54332,186.70738,34,120,0
186.62666,186.79073,39,120,0
186.70999,186.87405,46,120,0
186.79332,186.95738,34,120,0
186.87666,187.04073,39,120,0
186.95999,187.12405,46,120,0
187.04332,187.20738,34,120,0
187.12666,187.29073,39,120,0
187.20999,187.37405,46,120,0
187.29332,187.45738,34,120,0
187.37666,187.54073,41,120,0
187.45999,187.62405,46,120,0
187.54332,187.70738,34,120,0
187.62666,187.79073,41,120,0
187.70999,187.87405,46,120,0
187.79332,187.95738,34,120,0
187.87666,188.04073,41,120,0
187.95999,188.04073,46,120,0
188.04332,188.2223,39,120,0
188.13423,188.31322,46,117,0
188.22514,188.40411,51,113,0
188.31606,188.49503,39,110,0
188.40697,188.58594,46,106,0
188.49786,188.67685,51,102,0
188.58878,188.76776,39,99,0
188.67969,188.85867,46,95,0
188.7706,188.85867,51,91,0
188.86151,189.04048,39,88,0
188.95242,189.1314,46,84,0
189.04332,189.2223,51,81,0
189.13423,189.31322,39,80,0
189.22514,189.40411,46,80,0
189.31606,189.49503,51,80,0
189.40697,189.58594,39,80,0
189.49786,189.67685,46,80,0
189.58878,189.67685,51,80,0
189.67969,189.85866,39,79,0
189.7706,189.94957,47,79,0
189.86151,190.04048,50,79,0
189.95241,190.1314,39,79,0
190.04332,190.2223,47,79,0
190.13423,190.31322,50,79,0
190.22514,190.40411,39,78,0
190.31606,190.49503,47,78,0
190.40697,190.49503,50,78,0
190.49786,190.67685,39,78,0
190.58878,190.76776,47,78,0
190.67969,190.85866,50,78,0
190.7706,190.94957,39,77,0
190.86151,191.04048,47,77,0
190.95241,191.1314,50,77,0
191.04332,191.2223,39,77,0
191.13423,191.3132,47,77,0
191.22514,191.3132,50,76,0
191.31606,191.49503,39,76,0
191.40695,191.58594,46,76,0
191.49786,191.67685,51,76,0
191.58878,191.76776,39,76,0
191.67969,191.85866,46,76,0
191.7706,191.94957,51,75,0
191.86151,192.04048,39,75,0
191.95241,192.1314,46,75,0
192.04332,192.1314,51,75,0
192.13423,192.32085,39,75,0
192.22902,192.41563,46,75,0
192.3238,192.51042,51,74,0
192.4186,192.60521,39,74,0
192.51338,192.69998,46,74,0
192.60817,192.79477,51,74,0
192.70296,192.88956,39,74,0
192.79774,192.98434,46,73,0
192.89252,192.98434,51,73,0
192.9873,193.18224,39,73,0
193.08632,193.28125,47,73,0
193.18533,193.38025,50,73,0
193.28435,193.47926,39,73,0
193.38335,193.57828,47,72,0
193.48236,193.67729,50,72,0
193.58138,193.77629,39,72,0
193.68037,193.8753,47,72,0
193.77939,193.8753,50,72,0
193.8784,194.08241,39,72,0
193.98203,194.18604,47,71,0
194.08565,194.28967,50,71,0
194.18929,194.3933,39,71,0
194.29291,194.49692,47,71,0
194.39653,194.60054,50,71,0
194.50015,194.70418,39,71,0
194.60379,194.8078,47,69,0
194.70741,194.8078,50,64,0
194.81104,196.76416,39,60,0
194.81104,196.76416,46,60,0
198.97408,199.22147,51,80,0
199.22408,199.47147,55,80,0
199.72408,199.97147,55,80,0
199.97408,200.22147,51,80,0
199.47408,200.72147,58,80,0
200.22408,200.97147,46,80,0
200.72408,200.97147,56,80,0
200.97408,201.22147,55,80,0
200.97408,201.22147,51,80,0
201.72408,201.97147,56,80,0
201.72408,202.22147,63,80,0
201.97408,202.22147,55,80,0
202.47408,202.72147,50,80,0
202.47408,202.97147,58,80,0
202.72408,202.97147,51,80,0
203.22408,203.47147,46,80,0
203.22408,203.72147,58,80,0
203.47408,203.72147,50,80,0
203.72408,203.97147,58,80,0
203.72408,203.97147,51,80,0
203.97408,204.22147,58,80,0
203.97408,204.22147,46,80,0
204.97408,205.22147,51,80,0
205.22408,205.47147,55,80,0
205.72408,205.97147,55,80,0
205.97408,206.22147,51,80,0
205.47408,206.73753,58,80,0
206.22408,206.73753,46,80,0
206.74026,207.01015,59,80,0
206.74026,207.01015,47,80,0
207.01299,207.28287,60,80,0
207.01299,207.28287,48,80,0
208.37662,208.6465,57,70,0
208.37662,208.6465,45,70,0
208.37662,208.91924,53,70,0
208.64935,208.91924,58,70,0
208.64935,208.91924,46,70,0
209.96753,210.21492,60,100,0
209.96753,210.21492,57,100,0
209.96753,210.46492,65,100,0
210.21753,210.46492,62,100,0
210.21753,210.46492,58,100,0
210.46753,210.71492,63,100,0
210.46753,210.71492,60,100,0
210.71753,210.96492,60,100,0
210.71753,210.96492,57,100,0
210.46753,211.21492,65,111,0
210.96753,211.21492,62,100,0
210.96753,211.21492,58,100,0
211.21753,211.46492,63,100,0
211.21753,211.46492,60,100,0
211.46753,211.71492,60,100,0
211.46753,211.71492,57,100,0
211.21753,211.96492,65,111,0
211.71753,211.96492,62,100,0
211.71753,211.96492,58,100,0
211.96753,212.21492,63,100,0
211.96753,212.21492,60,100,0
212.21753,212.46492,60,100,0
212.21753,212.46492,57,100,0
211.96753,212.71492,65,111,0
212.46753,212.71492,62,100,0
212.46753,212.71492,58,100,0
212.96753,213.21492,52,100,0
213.21753,213.46492,53,100,0
213.71753,213.96492,41,100,0
213.96753,214.21492,46,100,0
214.46753,214.71492,40,100,0
214.71753,214.96492,41,100,0
215.21753,215.46492,41,100,0
215.21753,215.46492,29,100,0
215.46753,215.71492,34,100,0
215.46753,215.71492,46,100,0
216.21753,216.46492,46,100,0
216.21753,216.46492,34,100,0
216.96753,217.46492,58,80,0
217.46753,217.71492,55,82,0
217.71753,217.96492,52,83,0
217.96753,218.21492,55,84,0
218.21753,218.46492,58,85,0
218.46753,218.96492,61,87,0
218.96753,219.21492,58,89,0
219.21753,219.46492,55,90,0
219.46753,219.71492,58,91,0
219.71753,219.96492,61,92,0
219.96753,220.46492,64,94,0
220.46753,220.71492,61,96,0
220.71753,220.96492,58,97,0
220.96753,221.21492,61,98,0
221.21753,221.46492,64,99,0
221.46753,222.96492,67,100,0
221.46753,222.96492,70,100,0
222.96753,224.46492,68,100,0
222.96753,224.46492,72,100,0
224.46753,225.96492,67,100,0
224.46753,225.96492,70,100,0
224.46753,225.96492,73,100,0
225.96753,227.46492,68,100,0
225.96753,227.46492,72,100,0
227.46753,228.96492,65,100,0
227.46753,228.96492,68,100,0
228.96753,230.46492,62,78,0
228.96753,230.46492,65,78,0
230.71753,230.96492,51,80,0
230.96753,231.21492,55,80,0
231.46753,231.71492,55,80,0
231.71753,231.96492,51,80,0
231.96753,232.71492,46,80,0
232.46753,232.71492,44,80,0
231.21753,232.96492,58,80,0
232.71753,232.96492,43,80,0
233.46753,233.71492,56,80,0
233.46753,233.96492,63,80,0
233.71753,233.96492,55,80,0
234.21753,234.46492,50,80,0
234.21753,234.71492,58,80,0
234.46753,234.71492,51,80,0
234.96753,235.21492,46,80,0
234.96753,235.46492,58,80,0
235.21753,235.46492,50,80,0
235.46753,235.71492,58,80,0
235.46753,235.71492,51,80,0
235.71753,235.96492,58,80,0
235.71753,235.96492,46,80,0
236.74025,237.01015,51,80,0
237.01299,237.28287,54,80,0
237.55844,237.82832,54,80,0
237.83116,238.10104,51,80,0
237.2857,238.95805,58,80,0
238.1039,238.95805,46,80,0
238.96103,239.24377,59,80,0
238.96103,239.24377,47,80,0
240.3896,240.67233,58,70,0
240.3896,240.67233,46,70,0
240.3896,240.93347,54,70,0
240.67532,240.93347,59,72,0
240.67532,240.93347,47,72,0
241.19705,241.4552,58,76,0
241.19705,241.4552,46,76,0
241.19705,241.70532,54,76,0
241.45792,241.70532,59,79,0
241.45792,241.70532,47,79,0
241.95792,242.20532,58,83,0
241.95792,242.20532,46,83,0
241.95792,242.20792,54,83,0
242.20792,242.70532,47,86,0
242.70792,242.95532,51,90,0
242.20792,243.45532,59,86,0
242.95792,243.70532,52,93,0
243.45792,244.20532,61,97,0
244.20792,244.45532,63,100,0
244.45792,244.70532,64,100,0
244.70792,244.95532,66,100,0
243.70792,245.20532,55,99,0
244.95792,245.20532,64,100,0
245.20792,245.45532,63,100,0
245.70792,245.95532,51,100,0
245.20792,246.45532,59,100,0
245.95792,246.70532,52,100,0
246.45792,247.20532,61,100,0
246.70792,247.45532,54,100,0
247.20792,247.9659,63,100,0
247.45792,248.22122,55,100,0
247.96857,248.7429,63,98,0
248.22388,249.00377,56,95,0
248.74562,249.53705,63,89,0
249.00648,249.80371,58,86,0
249.53983,250.34909,63,80,0
249.80649,250.62183,59,77,0
250.35194,250.62183,63,71,0
251.44284,251.69025,58,100,0
252.69284,252.81525,65,102,0
252.81784,252.94025,62,102,0
252.94284,253.19025,63,103,0
253.19284,253.44025,58,103,0
253.44284,253.56525,68,104,0
253.56784,253.69025,65,104,0
253.69284,253.94025,67,105,0
253.94284,254.19025,58,105,0
254.19284,254.31525,65,106,0
254.31784,254.44025,62,106,0
254.44284,254.69025,63,106,0
254.69284,254.94025,58,107,0
254.94284,255.06525,68,108,0
255.06784,255.19025,65,108,0
255.19284,255.44025,67,108,0
255.44284,255.69025,63,109,0
255.69284,255.81525,68,110,0
255.81784,255.94025,65,110,0
255.94284,256.19025,67,110,0
256.19284,256.44025,63,110,0
256.44284,256.56525,72,110,0
256.56784,256.69025,69,110,0
256.69284,256.94025,70,110,0
256.94284,257.19025,63,110,0
257.19284,257.31525,68,110,0
257.31784,257.44025,65,110,0
257.44284,257.69025,67,110,0
257.69284,257.94025,63,110,0
257.94284,258.06525,72,110,0
258.06784,258.19025,69,110,0
258.19284,258.44025,70,110,0
258.44284,258.69025,63,110,0
258.69284,258.94025,67,120,0
258.69284,258.94025,55,120,0
258.69284,259.19025,63,120,0
258.94284,259.19025,68,120,0
258.94284,259.19025,56,120,0
259.44284,259.69025,56,120,0
259.69284,259.94025,58,120,0
260.19284,260.44025,65,120,0
260.19284,260.44025,68,120,0
260.19284,260.44025,59,120,0
260.44284,260.69025,60,120,0
260.44284,260.69025,63,120,0
260.44284,260.69025,67,120,0
260.94284,261.19025,44,120,0
261.19284,261.44025,46,120,0
261.69284,261.94025,53,120,0
261.69284,261.94025,56,120,0
261.69284,261.94025,47,120,0
261.94284,262.19025,48,120,0
261.94284,262.19025,51,120,0
261.94284,262.19025,55,120,0
262.44284,262.69025,32,120,0
262.69284,262.94025,34,120,0
262.94284,263.19025,46,120,0
263.19284,263.44025,46,120,0
263.69284,263.94025,51,120,0
263.94284,264.19025,51,120,0
264.19284,264.44025,49,120,0
264.44284,264.69025,51,120,0
264.69284,264.94025,46,120,0
264.94284,265.19025,48,120,0
265.19284,265.44025,51,120,0
265.44284,265.69025,44,120,0
265.69284,265.94025,50,120,0
265.94284,266.19025,53,120,0
263.44284,266.44025,39,120,0
266.19284,266.44025,46,120,0
267.19284,267.94025,55,120,0
267.19284,267.94025,58,120,0
266.44284,268.69025,51,120,0
267.94284,268.69025,56,120,0
267.94284,268.69025,60,120,0
268.69284,269.44025,51,120,0
268.69284,269.44025,53,120,0
268.69284,269.44025,56,120,0
268.69284,269.44025,58,120,0
268.69284,269.44025,62,120,0
269.44284,269.69025,63,120,0
269.44284,269.69025,58,120,0
269.44284,269.69025,55,120,0
269.44284,269.69025,51,120,0
270.19284,270.69025,51,120,0
270.19284,270.69025,39,120,0
