start_time,end_time,note_value,velocity,instrument_program_number
0.0,0.63392794,77,80,0
0.6428565,0.84821343,75,80,0
0.857142,1.2767844,75,80,0
1.285713,1.9196409,74,80,0
0.857142,2.1339264,68,80,0
0.857142,2.1339264,65,80,0
1.9285696,2.1339264,77,80,0
2.142855,2.348212,75,80,0
2.142855,2.5624974,67,80,0
2.3571405,2.5624974,72,80,0
2.571426,2.9910684,72,80,0
2.571426,3.4196393,65,80,0
2.999997,3.633925,70,80,0
3.6428535,3.8482103,71,80,0
3.857139,4.0624957,72,80,0
3.857139,4.2767816,65,80,0
4.0714245,4.2767816,68,80,0
4.28571,4.491067,68,80,0
4.4999957,4.7053523,67,80,0
4.714281,4.919638,70,80,0
4.9285665,5.1339235,63,80,0
5.142852,5.348209,63,80,0
5.3571377,5.5624943,62,80,0
5.571423,5.77678,65,80,0
5.7857084,6.4196362,63,80,0
5.999994,6.4196362,67,80,0
6.428565,6.8482075,65,80,0
6.428565,6.8482075,62,80,0
6.857136,7.491064,77,80,0
7.4999924,7.7053494,75,80,0
7.714278,7.7589207,74,80,0
7.7678494,7.8124924,75,80,0
7.8214207,7.8660636,77,80,0
7.874992,8.133921,75,80,0
8.142849,8.776777,74,80,0
8.785706,8.991062,77,80,0
8.999991,9.205348,75,80,0
9.214276,9.419634,72,80,0
9.428562,9.848205,69,80,0
9.857133,10.491061,70,80,0
10.4999895,10.705346,71,80,0
10.714275,10.919632,72,80,0
10.714275,11.133918,65,80,0
10.92856,11.133918,68,80,0
11.142846,11.348203,67,80,0
11.142846,11.562489,63,80,0
11.357132,11.562489,70,80,0
11.571417,11.776774,68,80,0
11.571417,11.991059,60,80,0
11.785703,11.991059,65,80,0
11.999988,12.41963,63,80,0
11.999988,12.41963,55,80,0
12.428559,12.633916,67,80,0
12.428559,12.848202,62,80,0
12.428559,12.848202,56,80,0
12.642844,12.848202,65,80,0
12.85713,13.2767725,63,80,0
12.85713,13.2767725,55,80,0
13.714272,13.812487,55,80,0
13.821415,13.919629,58,80,0
13.928557,14.026772,63,80,0
14.0357,14.133914,67,81,0
14.142843,14.241057,70,81,0
14.249986,14.3482,75,82,0
14.357128,14.455342,79,82,0
14.464272,14.562486,77,82,0
14.571414,14.991056,75,83,0
14.999985,15.419627,74,84,0
15.428556,15.633913,75,86,0
15.642841,15.848199,77,87,0
15.857127,16.062485,79,88,0
16.071413,16.27677,81,89,0
16.285698,16.705341,84,89,0
16.71427,17.133911,82,91,0
17.14284,17.241055,55,93,0
17.249983,17.348196,58,93,0
17.357126,17.45534,63,94,0
17.464268,17.562483,67,94,0
17.571411,17.669624,70,94,0
17.678555,17.776768,75,95,0
17.785696,17.883911,79,95,0
17.89284,17.991053,77,96,0
17.999983,18.419624,75,96,0
18.428553,18.526768,74,98,0
18.535696,18.63391,75,98,0
18.64284,18.741053,72,99,0
18.74998,18.848196,74,99,0
18.857124,19.071676,75,99,0
19.081005,19.30918,77,100,0
19.081005,19.30918,65,100,0
19.3191,19.558683,79,101,0
19.3191,19.558683,67,101,0
19.5691,19.821293,81,102,0
19.5691,19.821293,69,102,0
19.832256,22.785732,70,103,0
19.832256,22.785732,82,103,0
22.79466,23.428589,77,80,0
22.79466,23.428589,89,80,0
23.437517,23.642874,75,81,0
23.437517,23.642874,87,81,0
23.651804,24.071445,75,82,0
23.651804,24.071445,87,82,0
24.080374,24.714302,74,83,0
24.080374,24.714302,86,83,0
24.72323,24.928587,77,85,0
24.72323,24.928587,89,85,0
24.937517,25.142874,75,86,0
24.937517,25.142874,87,86,0
25.151802,25.357159,72,87,0
25.151802,25.357159,84,87,0
25.366087,25.78573,69,87,0
25.366087,25.78573,81,87,0
25.794659,26.428587,70,89,0
25.794659,26.428587,82,89,0
26.437515,26.642872,71,91,0
26.437515,26.642872,83,91,0
26.6518,26.857157,72,91,0
26.6518,26.857157,84,91,0
26.866085,27.071444,68,92,0
26.866085,27.071444,80,92,0
27.080372,27.285728,67,93,0
27.080372,27.285728,79,93,0
27.294657,27.500013,70,93,0
27.294657,27.500013,82,93,0
27.508942,27.714298,68,94,0
27.508942,27.714298,80,94,0
27.723228,27.928585,77,95,0
27.723228,27.928585,65,95,0
27.937513,28.14287,75,95,0
28.151798,28.250013,77,96,0
28.20537,28.303585,75,96,0
27.937513,28.357155,67,95,0
28.258942,28.357155,74,96,0
28.312513,28.357155,75,97,0
28.366085,28.571442,79,97,0
28.366085,28.785727,68,97,0
28.366085,28.785727,74,97,0
28.58037,28.785727,77,97,0
28.794655,29.214298,75,98,0
28.794655,29.214298,67,98,0
31.794653,32.214294,75,100,0
32.223225,32.642864,75,100,0
32.651794,33.071438,74,100,0
35.22322,35.642864,74,100,0
35.65179,36.071434,74,100,0
36.08036,36.500004,75,100,0
38.651787,39.07143,84,100,0
39.08036,39.5,84,100,0
39.50893,39.928574,83,100,0
42.080357,42.5,82,100,0
42.508926,42.92857,82,100,0
42.9375,43.35714,81,100,0
45.29464,45.499996,82,110,0
45.508923,45.714283,82,110,0
45.72321,45.928566,82,110,0
45.937496,46.09821,81,110,0
46.04464,46.22321,82,110,0
46.15178,46.33928,84,110,0
46.258923,46.446423,82,110,0
46.366066,46.78571,81,110,0
49.366062,49.544636,69,110,0
49.473206,49.678562,70,110,0
49.58035,49.75892,72,110,0
49.687492,49.857136,70,110,0
49.794636,49.999992,69,110,0
50.00892,50.214275,65,110,0
50.223206,50.32142,70,110,0
50.33035,50.428562,72,110,0
50.437492,50.535706,74,110,0
50.544632,50.64285,72,110,0
50.651775,50.857132,70,110,0
50.866062,51.07142,65,110,0
51.08035,51.928562,75,110,0
51.08035,51.928562,65,110,0
51.08035,51.928562,63,110,0
51.93749,52.57142,74,110,0
51.93749,52.57142,65,110,0
51.93749,52.57142,62,110,0
52.580345,52.7857,65,110,0
52.794632,52.946415,69,110,0
52.901775,53.071415,70,110,0
53.008915,53.17856,72,110,0
53.11606,53.294632,70,110,0
53.2232,53.42856,69,110,0
53.43749,53.642845,65,110,0
53.65177,53.830345,70,110,0
53.758915,53.946415,72,110,0
53.86606,54.0357,74,110,0
53.9732,54.1607,72,110,0
54.080345,54.2857,70,110,0
54.29463,54.49999,71,110,0
54.508915,54.60713,72,110,0
54.61606,54.71427,74,110,0
54.7232,54.821415,75,110,0
54.830345,54.92856,74,110,0
54.937485,55.14284,72,110,0
55.15177,55.35713,79,110,0
55.36606,55.571415,75,110,0
55.58034,55.785698,84,110,0
55.79463,55.999985,79,110,0
56.008915,56.21427,87,110,0
56.223198,56.321415,72,100,0
56.33034,56.428555,74,100,0
56.437485,56.535698,75,100,0
56.54463,56.64284,74,100,0
56.65177,56.85713,72,100,0
56.866055,57.07141,81,100,0
57.08034,57.285698,75,100,0
57.29463,57.499985,84,100,0
57.50891,57.714268,81,100,0
57.723198,57.928555,87,100,0
57.937485,58.035698,72,100,0
58.044624,58.14284,74,100,0
58.151768,58.249985,75,100,0
58.25891,58.357124,74,100,0
58.366055,58.57141,72,100,0
58.58034,58.785698,81,100,0
58.794624,58.99998,75,100,0
59.00891,59.214268,84,100,0
59.223198,59.428555,81,100,0
59.43748,59.642838,87,100,0
59.651768,59.857124,86,100,0
59.866055,60.07141,81,100,0
60.080338,60.285694,82,100,0
60.294624,60.49998,78,100,0
60.50891,60.714268,79,100,0
60.723194,60.92855,74,100,0
60.93748,61.142838,75,100,0
61.151764,61.357124,72,100,0
61.36605,61.571407,77,100,0
61.580338,61.785694,73,100,0
61.79462,61.99998,74,100,0
62.008907,62.214264,70,100,0
62.223194,62.42855,75,100,0
62.437477,62.642838,71,100,0
62.651764,62.85712,72,100,0
62.86605,63.071407,69,100,0
63.080334,63.928547,70,100,0
63.080334,63.928547,62,100,0
64.36605,64.78569,74,100,0
64.36605,64.78569,71,100,0
64.79462,65.214264,75,100,0
64.79462,65.214264,72,100,0
65.22319,65.64283,79,100,0
65.22319,65.64283,75,100,0
66.08033,66.49998,72,100,0
66.08033,66.49998,69,100,0
66.5089,66.92854,74,100,0
66.5089,66.92854,70,100,0
66.93748,67.35712,77,100,0
66.93748,67.35712,74,100,0
67.36604,67.78569,77,100,0
67.79462,67.89283,77,100,0
67.84819,67.9464,79,100,0
67.90176,67.99997,77,100,0
67.95533,68.05354,79,100,0
68.0089,68.10712,77,100,0
68.06247,68.16069,79,100,0
68.11604,68.21426,76,100,0
68.16962,68.21426,77,100,0
68.22319,68.42854,75,100,0
68.43747,68.64283,74,100,0
68.65176,68.85712,72,100,0
68.86604,69.0714,70,100,0
69.08033,69.28568,69,100,0
69.29462,69.49997,70,100,0
69.5089,69.71426,71,100,0
69.72318,69.92854,72,100,0
69.93747,70.35712,65,100,0
71.22318,71.64283,67,100,0
71.22318,71.64283,74,100,0
71.22318,71.64283,71,100,0
71.65176,72.071396,79,100,0
72.08033,72.17854,79,100,0
72.133896,72.23211,80,100,0
72.18747,72.28568,79,100,0
72.24104,72.33926,80,100,0
72.29461,72.39282,79,100,0
72.34818,72.446396,80,100,0
72.40176,72.49997,78,100,0
72.45532,72.49997,79,100,0
72.93747,73.35711,72,100,0
72.93747,73.35711,69,100,0
72.93747,73.35711,65,100,0
73.366035,73.78568,77,100,0
73.79461,73.89282,77,100,0
73.84818,73.946396,79,100,0
73.90176,73.99997,77,100,0
73.95532,74.053535,79,100,0
74.008896,74.10711,77,100,0
74.06247,74.16068,79,100,0
74.116035,74.21426,76,100,0
74.16961,74.21426,77,100,0
74.22318,74.428535,89,100,0
74.65175,74.74997,88,100,0
74.758896,74.85711,89,100,0
74.866035,74.96425,88,100,0
74.97318,75.071396,89,100,0
75.08032,75.28568,87,80,0
75.29461,75.49997,86,80,0
75.508896,75.60711,84,80,0
75.56246,75.66068,86,80,0
75.616035,75.71425,84,80,0
75.72318,75.928535,82,80,0
75.93746,76.03568,82,80,0
75.991035,76.08925,84,80,0
76.04461,76.14282,82,80,0
76.15175,76.35711,81,80,0
76.366035,76.46425,79,80,0
76.41961,76.51782,81,80,0
76.47318,76.571396,79,80,0
76.58032,76.785675,77,80,0
76.79461,76.99996,77,80,0
77.008896,77.10711,79,80,0
77.116035,77.21425,81,80,0
77.223175,77.321396,82,80,0
77.33032,77.428535,84,80,0
77.43746,77.535675,86,80,0
77.54461,77.64282,87,100,0
77.65175,77.85711,89,110,0
77.866035,77.96425,88,110,0
77.973175,78.07139,89,110,0
78.08032,78.178535,88,110,0
78.18746,78.285675,89,110,0
78.29461,78.39282,88,110,0
78.40175,78.49996,89,110,0
78.723175,78.82139,87,81,0
78.83032,78.928535,86,82,0
79.15175,79.24996,84,85,0
79.25889,79.3571,82,86,0
79.58032,79.678535,82,89,0
79.68746,79.785675,81,89,0
80.00889,80.1071,79,92,0
80.116035,80.21425,77,93,0
80.223175,80.32139,76,94,0
80.330315,80.428535,77,95,0
80.43746,80.535675,79,96,0
80.5446,80.642815,81,97,0
80.65175,80.74996,82,98,0
80.75889,80.8571,84,99,0
80.866035,80.96425,86,99,0
80.973175,81.07139,87,100,0
81.080315,81.24103,88,110,0
81.18746,81.36603,89,110,0
81.2946,81.49103,88,110,0
81.40175,81.58925,89,110,0
81.50889,81.705315,88,110,0
81.61603,81.82139,89,110,0
81.723175,81.90175,88,110,0
81.830315,82.035675,89,110,0
81.93746,82.11603,87,110,0
82.0446,82.21424,86,110,0
82.15174,82.348175,84,110,0
82.25889,82.43746,82,110,0
82.36603,82.43746,82,110,0
82.473175,82.660675,81,110,0
82.580315,82.767815,79,110,0
82.68746,82.848175,77,110,0
82.7946,82.848175,77,110,0
82.90174,83.08924,75,110,0
83.00889,83.187454,74,110,0
83.11603,83.285675,72,110,0
83.223175,83.40174,74,110,0
83.330315,83.499954,72,110,0
83.437454,83.624954,70,110,0
83.5446,83.735695,69,100,0
83.65174,83.79167,72,100,0
83.800995,83.940926,70,99,0
83.95025,84.09018,69,97,0
84.0995,84.23943,72,96,0
84.24876,84.38868,70,95,0
84.39801,84.53793,69,94,0
84.547264,84.696075,72,93,0
84.70599,84.854805,70,92,0
84.86472,85.013535,69,91,0
85.02345,85.172264,72,90,0
85.18218,85.33099,70,88,0
85.34091,85.48972,69,87,0
85.49965,85.6559,72,86,0
85.66631,85.82256,70,85,0
85.83298,85.98923,69,84,0
85.99965,86.1559,72,83,0
86.16631,86.32256,70,82,0
86.33298,86.48923,69,81,0
86.49965,86.70798,72,80,0
86.631226,86.850525,70,82,0
86.7628,86.97114,69,85,0
86.89438,87.11368,70,88,0
87.02596,87.24526,71,90,0
87.11368,87.31105,72,92,0
87.2014,87.43166,73,94,0
87.289116,87.49745,74,96,0
87.37684,87.54131,75,97,0
87.464554,87.54131,76,99,0
87.55228,89.383415,77,100,0
89.39438,89.646576,75,100,0
89.65754,90.17289,75,80,0
90.18385,90.91553,74,80,0
88.604904,91.129814,65,100,0
88.604904,91.129814,68,100,0
90.92445,91.129814,77,80,0
91.13874,91.3441,75,80,0
91.13874,91.55838,67,80,0
91.35303,91.55838,72,80,0
91.567314,91.98695,72,80,0
91.567314,92.41553,65,80,0
91.99588,92.62981,70,80,0
92.63874,92.84409,71,80,0
92.85303,93.05838,72,80,0
92.85303,93.27267,65,80,0
93.06731,93.27267,68,80,0
93.28159,93.48695,68,80,0
93.49588,93.70124,67,80,0
93.71017,93.91552,70,80,0
93.92445,94.12981,63,80,0
94.13874,94.34409,63,80,0
94.35302,94.55838,62,80,0
94.56731,94.77267,65,80,0
94.78159,95.41552,63,80,0
94.99588,95.41552,67,80,0
95.42445,95.84409,65,80,0
95.42445,95.84409,62,80,0
95.85302,96.486946,77,80,0
96.49588,96.70123,75,80,0
96.71017,96.75481,74,80,0
96.76373,96.80838,75,80,0
96.81731,96.861946,77,80,0
96.87088,97.12981,75,80,0
97.13873,97.77266,74,80,0
97.78159,97.986946,77,80,0
97.99587,98.20123,75,80,0
98.21016,98.41552,72,80,0
98.424446,98.84409,69,80,0
98.85302,99.486946,70,80,0
99.49587,99.70123,71,80,0
99.71016,99.91552,72,80,0
99.71016,100.1298,65,80,0
99.924446,100.1298,68,80,0
100.13873,100.344086,67,80,0
100.13873,100.55837,63,80,0
100.35302,100.55837,70,80,0
100.5673,100.77266,68,80,0
100.5673,100.986946,60,80,0
100.781586,100.986946,65,80,0
100.99587,101.41551,63,80,0
100.99587,101.41551,55,80,0
101.424446,101.6298,67,80,0
101.424446,101.844086,62,80,0
101.424446,101.844086,56,80,0
101.63873,101.844086,65,80,0
101.85301,102.27266,63,80,0
101.85301,102.27266,55,80,0
102.71016,102.80837,55,100,0
102.8173,102.91551,58,100,0
102.924446,103.02266,63,100,0
103.031586,103.1298,67,100,0
103.138725,103.236946,70,100,0
103.24587,103.344086,75,100,0
103.35301,103.451225,79,100,0
103.46016,103.55837,77,100,0
103.5673,103.98694,75,100,0
103.99587,104.41551,74,100,0
104.42444,104.6298,75,100,0
104.638725,104.844086,77,100,0
104.85301,105.05837,79,100,0
105.0673,105.27265,81,100,0
105.281586,105.701225,84,100,0
105.71015,106.1298,82,100,0
106.138725,106.23694,55,100,0
106.245865,106.344086,58,100,0
106.35301,106.451225,63,100,0
106.46015,106.558365,67,100,0
106.5673,106.66551,70,100,0
106.67444,106.77265,75,100,0
106.78158,106.8798,79,100,0
106.888725,106.98694,77,100,0
106.995865,107.09408,75,100,0
107.10301,107.201225,74,100,0
107.21015,107.308365,72,100,0
107.3173,107.41551,70,100,0
107.42444,107.52265,69,100,0
107.53158,107.6298,70,100,0
107.638725,107.73694,72,100,0
107.745865,107.84408,74,100,0
107.85301,108.06756,75,100,0
108.07689,108.30506,77,100,0
108.31499,108.554565,79,100,0
108.56499,108.81718,81,100,0
108.82814,110.92244,82,80,0
108.82814,110.92244,70,80,0
110.9334,113.0277,83,110,0
110.9334,113.0277,71,110,0
113.038666,113.88688,84,120,0
113.038666,113.88688,72,120,0
114.32438,114.74402,75,110,0
114.32438,114.74402,72,110,0
114.32438,114.74402,67,110,0
114.32438,114.74402,63,110,0
114.75295,115.601166,79,110,0
114.75295,115.601166,75,110,0
114.75295,115.601166,72,110,0
114.75295,115.601166,67,110,0
116.038666,116.458305,79,110,0
116.038666,116.458305,75,110,0
116.038666,116.458305,72,110,0
116.038666,116.458305,84,110,0
116.46723,117.315445,74,110,0
116.46723,117.315445,71,110,0
116.46723,117.315445,67,110,0
116.46723,117.315445,62,110,0
117.752945,118.17259,79,110,0
117.752945,118.17259,74,110,0
117.752945,118.17259,71,110,0
117.752945,118.17259,67,110,0
118.18152,119.02973,86,110,0
118.18152,119.02973,83,110,0
118.18152,119.02973,79,110,0
118.18152,119.02973,74,110,0
119.46723,119.88687,86,110,0
119.46723,119.88687,83,110,0
119.46723,119.88687,79,110,0
119.46723,119.88687,74,110,0
119.895805,120.10116,75,110,0
120.002945,120.208305,79,110,0
120.110085,120.315445,84,110,0
120.21723,120.422585,87,110,0
120.32437,120.52973,89,110,0
120.43152,120.63687,87,110,0
120.53866,120.74402,86,110,0
120.645805,120.85116,87,110,0
120.752945,120.9583,75,110,0
120.860085,121.065445,79,110,0
120.96723,121.172585,84,110,0
121.07437,121.27973,87,110,0
121.18152,121.38687,89,110,0
121.28866,121.49402,87,110,0
121.3958,121.60116,86,110,0
121.502945,121.7083,87,110,0
121.610085,121.815445,75,110,0
121.71723,121.922585,80,110,0
121.82437,122.02973,84,110,0
121.93152,122.13687,87,110,0
122.03866,122.24401,89,110,0
122.1458,122.35116,87,110,0
122.252945,122.4583,86,110,0
122.360085,122.565445,87,110,0
122.46723,122.672585,76,110,0
122.57437,122.77973,82,110,0
122.68151,122.88687,85,110,0
122.78866,122.99401,88,110,0
122.8958,123.10116,89,110,0
123.002945,123.2083,88,110,0
123.110085,123.315445,86,110,0
123.217224,123.422585,88,110,0
123.43151,123.63687,89,110,0
123.53866,123.74401,84,110,0
123.6458,123.85116,80,110,0
123.860085,124.065445,89,110,0
123.967224,124.172585,84,110,0
124.07437,124.279724,80,110,0
124.28866,124.49401,86,110,0
124.3958,124.60116,80,110,0
124.50294,124.7083,77,110,0
124.717224,124.922585,86,110,0
124.82437,125.029724,80,110,0
124.93151,125.13687,77,110,0
125.1458,125.35115,87,110,0
125.25294,125.4583,82,110,0
125.360085,125.56544,79,110,0
125.467224,125.672585,75,110,0
125.57437,125.779724,70,110,0
125.68151,125.88687,67,110,0
125.78865,125.99401,63,110,0
126.00294,126.2083,58,110,0
126.110085,126.31544,67,110,0
126.217224,126.422585,70,110,0
126.43151,126.63686,59,110,0
126.53865,126.74401,65,110,0
126.6458,126.74401,71,110,0
126.75294,127.60115,72,110,0
126.75294,127.60115,67,110,0
126.75294,127.60115,63,110,0
126.75294,127.60115,60,110,0
128.03865,128.4583,75,110,0
128.03865,128.4583,72,110,0
128.03865,128.4583,67,110,0
128.03865,128.4583,63,110,0
128.46722,129.31543,79,110,0
128.46722,129.31543,75,110,0
128.46722,129.31543,72,110,0
128.46722,129.31543,67,110,0
129.75293,130.17258,79,110,0
129.75293,130.17258,75,110,0
129.75293,130.17258,72,110,0
129.75293,130.17258,84,110,0
130.1815,131.02972,74,110,0
130.1815,131.02972,71,110,0
130.1815,131.02972,67,110,0
130.1815,131.02972,62,110,0
131.46722,131.88686,79,110,0
131.46722,131.88686,74,110,0
131.46722,131.88686,71,110,0
131.46722,131.88686,67,110,0
131.8958,132.744,86,110,0
131.8958,132.744,83,110,0
131.8958,132.744,79,110,0
131.8958,132.744,74,110,0
133.1815,133.60115,86,110,0
133.1815,133.60115,83,110,0
133.1815,133.60115,79,110,0
133.1815,133.60115,74,110,0
133.61008,133.81543,75,110,0
133.71722,133.92258,79,110,0
133.82436,134.02972,84,110,0
133.9315,134.13686,87,110,0
134.03865,134.244,89,110,0
134.14578,134.35115,87,110,0
134.25293,134.45828,86,110,0
134.36008,134.56543,87,110,0
134.46722,134.67258,75,110,0
134.57436,134.77971,79,110,0
134.6815,134.88686,84,110,0
134.78865,134.994,87,110,0
134.89578,135.10115,89,110,0
135.00293,135.20828,87,110,0
135.11008,135.31543,86,110,0
135.21721,135.42258,87,110,0
135.32436,135.52971,75,110,0
135.4315,135.63686,80,110,0
135.53865,135.744,84,110,0
135.64578,135.85115,87,110,0
135.75293,135.95828,89,110,0
135.86008,136.06543,87,110,0
135.96721,136.17258,86,110,0
136.07436,136.27971,87,110,0
136.1815,136.38686,76,110,0
136.28865,136.494,82,110,0
136.39578,136.60115,85,110,0
136.50293,136.70828,88,110,0
136.61008,136.81543,89,110,0
136.71721,136.92258,88,110,0
136.82436,137.02971,86,110,0
136.9315,137.13686,88,110,0
137.14578,137.35114,89,110,0
137.25293,137.45828,84,110,0
137.36008,137.56543,80,110,0
137.57436,137.77971,89,110,0
137.6815,137.88686,84,110,0
137.78864,137.994,80,110,0
138.00293,138.20828,86,110,0
138.11008,138.31543,80,110,0
138.21721,138.42258,77,110,0
138.4315,138.63686,86,110,0
138.53864,138.744,80,110,0
138.64578,138.85114,77,110,0
138.86006,139.06543,87,110,0
138.96721,139.17256,82,110,0
139.07436,139.27971,79,110,0
139.1815,139.38686,75,110,0
139.28864,139.494,70,110,0
139.39578,139.60114,67,110,0
139.50293,139.70828,63,110,0
139.71721,139.92256,58,110,0
139.82436,140.02971,67,110,0
139.9315,140.13686,70,110,0
140.14578,140.35114,58,110,0
140.25293,140.45828,65,110,0
140.36006,140.45828,70,110,0
140.46721,141.31543,64,120,0
140.46721,141.31543,58,120,0
140.46721,141.31543,55,120,0
141.75293,142.17256,70,120,0
141.75293,142.17256,67,120,0
141.75293,142.17256,64,120,0
141.75293,142.17256,58,120,0
142.18149,143.02971,76,120,0
142.18149,143.02971,70,120,0
142.18149,143.02971,67,120,0
142.18149,143.02971,64,120,0
143.46721,143.88686,82,120,0
143.46721,143.88686,79,120,0
143.46721,143.88686,76,120,0
143.46721,143.88686,70,120,0
143.89578,144.74399,80,120,0
143.89578,144.74399,77,120,0
143.89578,144.74399,72,120,0
143.89578,144.74399,68,120,0
145.18149,145.60114,84,120,0
145.18149,145.60114,80,120,0
145.18149,145.60114,77,120,0
145.18149,145.60114,72,120,0
145.61006,146.45828,84,120,0
145.61006,146.45828,81,120,0
145.61006,146.45828,75,120,0
145.61006,146.45828,72,120,0
146.89578,147.31541,72,120,0
146.89578,147.31541,69,120,0
146.89578,147.31541,63,120,0
146.89578,147.31541,60,120,0
147.32434,147.52971,59,110,0
147.43149,147.63684,62,110,0
147.53864,147.74399,67,110,0
147.64577,147.85114,71,110,0
147.75291,147.95827,72,110,0
147.86006,148.06541,71,110,0
147.96721,148.17256,70,110,0
148.07434,148.27971,71,110,0
148.18149,148.38684,65,110,0
148.28864,148.49399,71,110,0
148.39577,148.60114,74,110,0
148.50291,148.70827,77,110,0
148.61006,148.81541,79,110,0
148.71721,148.92256,77,110,0
148.82434,149.02971,76,110,0
148.93149,149.13684,77,110,0
149.03864,149.24399,63,110,0
149.14577,149.35114,67,110,0
149.25291,149.45827,72,110,0
149.36006,149.56541,75,110,0
149.46721,149.67256,77,110,0
149.57434,149.7797,75,110,0
149.68149,149.88684,74,110,0
149.78864,149.99399,75,110,0
149.89577,150.10114,72,110,0
150.00291,150.20827,75,110,0
150.11006,150.31541,79,110,0
150.2172,150.42256,84,110,0
150.32434,150.5297,86,110,0
150.43149,150.63684,84,110,0
150.53864,150.74399,83,110,0
150.64577,150.85114,84,110,0
150.75291,150.95827,71,110,0
150.86006,151.06541,74,110,0
150.9672,151.17256,79,110,0
151.07434,151.2797,83,110,0
151.18149,151.38684,84,110,0
151.28864,151.49399,83,110,0
151.39577,151.60114,82,110,0
151.50291,151.70827,83,110,0
151.61006,151.81541,77,110,0
151.7172,151.92256,83,110,0
151.82434,152.0297,86,110,0
151.93149,152.13684,89,110,0
152.03862,152.24399,91,110,0
152.14577,152.35112,89,110,0
152.25291,152.45827,88,110,0
152.36006,152.56541,89,110,0
152.4672,152.67256,75,110,0
152.57434,152.7797,79,110,0
152.68149,152.88684,84,110,0
152.78862,152.99399,87,110,0
152.89577,153.10112,89,110,0
153.00291,153.20827,87,110,0
153.11006,153.31541,86,110,0
153.2172,153.42256,87,110,0
153.32434,153.5297,72,110,0
153.43149,153.63684,75,110,0
153.53862,153.74399,79,110,0
153.64577,153.85112,84,110,0
153.75291,153.95827,86,110,0
153.86006,154.06541,84,110,0
153.9672,154.17255,83,110,0
154.07434,154.2797,84,110,0
154.18149,154.38684,83,110,0
154.28862,154.49399,86,110,0
154.39577,154.60112,84,110,0
154.50291,154.70827,83,110,0
154.61005,154.81541,80,110,0
154.7172,154.92255,79,110,0
154.82434,155.0297,77,110,0
154.93149,155.13684,75,110,0
155.03862,155.24399,74,110,0
155.14577,155.35112,72,110,0
155.25291,155.45827,71,110,0
155.36005,155.56541,68,110,0
155.4672,155.67255,67,110,0
155.57434,155.7797,65,110,0
155.68149,155.88684,63,110,0
155.78862,155.88684,62,110,0
155.89577,156.74397,60,120,0
155.89577,156.74397,55,120,0
155.89577,156.74397,51,120,0
157.18147,157.60112,75,120,0
157.18147,157.60112,72,120,0
157.18147,157.60112,67,120,0
157.18147,157.60112,63,120,0
157.61005,158.45827,79,120,0
157.61005,158.45827,75,120,0
157.61005,158.45827,72,120,0
157.61005,158.45827,67,120,0
158.89577,159.3154,84,120,0
158.89577,159.3154,79,120,0
158.89577,159.3154,75,120,0
158.89577,159.3154,72,120,0
159.32434,159.5297,60,110,0
159.43147,159.63684,64,110,0
159.53862,159.74397,67,110,0
159.64577,159.85112,72,110,0
159.7529,159.95827,73,110,0
159.86005,160.0654,72,110,0
159.9672,160.17255,71,110,0
160.07434,160.2797,72,110,0
160.18147,160.38684,64,110,0
160.28862,160.49397,67,110,0
160.39577,160.60112,72,110,0
160.5029,160.70827,76,110,0
160.61005,160.8154,77,110,0
160.7172,160.92255,76,110,0
160.82433,161.0297,75,110,0
160.93147,161.13683,76,110,0
161.03862,161.24397,67,110,0
161.14577,161.35112,72,110,0
161.2529,161.45827,76,110,0
161.36005,161.5654,79,110,0
161.4672,161.67255,80,110,0
161.57433,161.7797,79,110,0
161.68147,161.88683,78,110,0
161.78862,161.99397,79,110,0
161.89577,162.10112,72,110,0
162.0029,162.20827,76,110,0
162.11005,162.3154,79,110,0
162.2172,162.42255,84,110,0
162.32433,162.5297,85,110,0
162.43147,162.63683,84,110,0
162.53862,162.74397,83,110,0
162.64577,162.85112,84,110,0
162.7529,162.95825,72,110,0
162.86005,163.0654,77,110,0
162.9672,163.17255,80,110,0
163.07433,163.2797,84,110,0
163.18147,163.38683,86,110,0
163.28862,163.49397,84,110,0
163.39575,163.60112,83,110,0
163.5029,163.70825,84,110,0
163.61005,163.8154,68,110,0
163.7172,163.92255,72,110,0
163.82433,164.0297,77,110,0
163.93147,164.13683,80,110,0
164.03862,164.24397,82,110,0
164.14575,164.35112,80,110,0
164.2529,164.45825,79,110,0
164.36005,164.5654,80,110,0
164.4672,164.67255,65,110,0
164.57433,164.7797,71,110,0
164.68147,164.88683,74,110,0
164.78862,164.99397,77,110,0
164.89575,165.10112,79,110,0
165.0029,165.20825,77,110,0
165.11005,165.3154,76,110,0
165.21718,165.42255,77,110,0
165.32433,165.52968,62,110,0
165.43147,165.63683,67,110,0
165.53862,165.74397,71,110,0
165.64575,165.85112,74,110,0
165.7529,165.95825,75,110,0
165.86005,166.0654,74,110,0
165.96718,166.17255,73,110,0
166.07433,166.27968,74,110,0
166.28862,166.49397,67,110,0
166.39575,166.60112,72,110,0
166.5029,166.70825,75,110,0
166.71718,166.92255,68,110,0
166.82433,167.02968,74,110,0
166.93147,167.13683,77,110,0
167.14575,167.3511,67,110,0
167.2529,167.45825,72,110,0
167.36005,167.5654,75,110,0
167.57433,167.77968,65,110,0
167.68147,167.88683,71,110,0
167.7886,167.99397,74,110,0
168.0029,168.20825,72,110,0
168.11005,168.3154,71,110,0
168.21718,168.42255,72,110,0
168.32433,168.52968,71,110,0
168.43147,168.63683,72,110,0
168.5386,168.74397,67,110,0
168.64575,168.74397,63,110,0
168.7529,169.17255,60,110,0
169.61003,170.45825,64,120,0
169.61003,170.45825,58,120,0
169.61003,170.45825,55,120,0
170.89575,171.3154,70,120,0
170.89575,171.3154,67,120,0
170.89575,171.3154,64,120,0
170.89575,171.3154,58,120,0
171.32433,172.17253,76,120,0
171.32433,172.17253,70,120,0
171.32433,172.17253,67,120,0
171.32433,172.17253,64,120,0
172.61003,173.02968,82,120,0
172.61003,173.02968,79,120,0
172.61003,173.02968,76,120,0
172.61003,173.02968,70,120,0
173.0386,173.88683,80,120,0
173.0386,173.88683,77,120,0
173.0386,173.88683,72,120,0
173.0386,173.88683,68,120,0
174.32433,174.74396,84,120,0
174.32433,174.74396,80,120,0
174.32433,174.74396,77,120,0
174.32433,174.74396,72,120,0
174.75288,175.6011,84,120,0
174.75288,175.6011,81,120,0
174.75288,175.6011,75,120,0
174.75288,175.6011,72,120,0
176.0386,176.45825,72,120,0
176.0386,176.45825,69,120,0
176.0386,176.45825,63,120,0
176.0386,176.45825,60,120,0
176.46718,176.67253,59,110,0
176.57431,176.77968,62,110,0
176.68146,176.88681,67,110,0
176.7886,176.99396,71,110,0
176.89575,177.1011,72,110,0
177.00288,177.20825,71,110,0
177.11003,177.31538,70,110,0
177.21718,177.42253,71,110,0
177.32431,177.52968,65,110,0
177.43146,177.63681,71,110,0
177.5386,177.74396,74,110,0
177.64575,177.8511,77,110,0
177.75288,177.95825,79,110,0
177.86003,178.06538,77,110,0
177.96718,178.17253,76,110,0
178.07431,178.27968,77,110,0
178.18146,178.38681,63,110,0
178.2886,178.49396,67,110,0
178.39574,178.6011,72,110,0
178.50288,178.70824,75,110,0
178.61003,178.81538,77,110,0
178.71718,178.92253,75,110,0
178.82431,179.02968,74,110,0
178.93146,179.13681,75,110,0
179.0386,179.24396,72,110,0
179.14574,179.3511,75,110,0
179.25288,179.45824,79,110,0
179.36003,179.56538,84,110,0
179.46718,179.67253,86,110,0
179.57431,179.77968,84,110,0
179.68146,179.88681,83,110,0
179.7886,179.99396,84,110,0
179.89574,180.1011,71,110,0
180.00288,180.20824,74,110,0
180.11003,180.31538,79,110,0
180.21718,180.42253,83,110,0
180.32431,180.52966,84,110,0
180.43146,180.63681,83,110,0
180.5386,180.74396,82,110,0
180.64574,180.8511,83,110,0
180.75288,180.95824,77,110,0
180.86003,181.06538,83,110,0
180.96716,181.17253,86,110,0
181.07431,181.27966,89,110,0
181.18146,181.38681,91,110,0
181.2886,181.49396,89,110,0
181.39574,181.6011,88,110,0
181.50288,181.70824,89,110,0
181.61003,181.81538,75,110,0
181.71716,181.92253,79,110,0
181.82431,182.02966,84,110,0
181.93146,182.13681,87,110,0
182.0386,182.24396,89,110,0
182.14574,182.3511,87,110,0
182.25288,182.45824,86,110,0
182.36003,182.56538,87,110,0
182.46716,182.67253,72,110,0
182.57431,182.77966,75,110,0
182.68146,182.88681,79,110,0
182.78859,182.99396,84,110,0
182.89574,183.10109,86,110,0
183.00288,183.20824,84,110,0
183.11003,183.31538,83,110,0
183.21716,183.42253,84,110,0
183.32431,183.52966,83,110,0
183.43146,183.63681,86,110,0
183.53859,183.74396,84,110,0
183.64574,183.85109,83,110,0
183.75288,183.95824,80,110,0
183.86003,184.06538,79,110,0
183.96716,184.17253,77,110,0
184.07431,184.27966,75,110,0
184.18146,184.38681,74,110,0
184.28859,184.49396,72,110,0
184.39574,184.60109,71,110,0
184.50288,184.70824,68,110,0
184.61003,184.81538,67,110,0
184.71716,184.92252,65,110,0
184.82431,185.02966,63,110,0
184.93146,185.02966,62,110,0
185.03859,185.88681,60,120,0
185.03859,185.88681,55,120,0
185.03859,185.88681,51,120,0
186.32431,186.74396,75,120,0
186.32431,186.74396,72,120,0
186.32431,186.74396,67,120,0
186.32431,186.74396,63,120,0
186.75288,187.60109,79,120,0
186.75288,187.60109,75,120,0
186.75288,187.60109,72,120,0
186.75288,187.60109,67,120,0
188.03859,188.45824,84,120,0
188.03859,188.45824,79,120,0
188.03859,188.45824,75,120,0
188.03859,188.45824,72,120,0
188.46716,188.67252,60,110,0
188.57431,188.77966,64,110,0
188.68144,188.88681,67,110,0
188.78859,188.99394,72,110,0
188.89574,189.10109,73,110,0
189.00287,189.20824,72,110,0
189.11002,189.31537,71,110,0
189.21716,189.42252,72,110,0
189.32431,189.52966,64,110,0
189.43144,189.63681,67,110,0
189.53859,189.74394,72,110,0
189.64574,189.85109,76,110,0
189.75287,189.95824,77,110,0
189.86002,190.06537,76,110,0
189.96716,190.17252,75,110,0
190.07431,190.27966,76,110,0
190.18144,190.38681,67,110,0
190.28859,190.49394,72,110,0
190.39574,190.60109,76,110,0
190.50287,190.70824,79,110,0
190.61002,190.81537,80,110,0
190.71716,190.92252,79,110,0
190.82431,191.02966,78,110,0
190.93144,191.13681,79,110,0
191.03859,191.24394,72,110,0
191.14574,191.35109,76,110,0
191.25287,191.45824,79,110,0
191.36002,191.56537,84,110,0
191.46716,191.67252,85,110,0
191.5743,191.77966,84,110,0
191.68144,191.8868,83,110,0
191.78859,191.99394,84,110,0
191.89574,192.10109,72,110,0
192.00287,192.20824,77,110,0
192.11002,192.31537,80,110,0
192.21716,192.42252,84,110,0
192.3243,192.52966,86,110,0
192.43144,192.6368,84,110,0
192.53859,192.74394,83,110,0
192.64574,192.85109,84,110,0
192.75287,192.95824,68,110,0
192.86002,193.06537,72,110,0
192.96716,193.17252,77,110,0
193.0743,193.27966,80,110,0
193.18144,193.3868,82,110,0
193.28859,193.49394,80,110,0
193.39572,193.60109,79,110,0
193.50287,193.70822,80,110,0
193.61002,193.81537,65,110,0
193.71716,193.92252,71,110,0
193.8243,194.02966,74,110,0
193.93144,194.1368,77,110,0
194.03859,194.24394,79,110,0
194.14572,194.35109,77,110,0
194.25287,194.45822,76,110,0
194.36002,194.56537,77,110,0
194.46716,194.67252,62,110,0
194.5743,194.77966,67,110,0
194.68144,194.8868,71,110,0
194.78859,194.99394,74,110,0
194.89572,195.10109,75,110,0
195.00287,195.20822,74,110,0
195.11002,195.31537,73,110,0
195.21716,195.42252,74,110,0
195.43144,195.6368,67,110,0
195.53859,195.74394,72,110,0
195.64572,195.85109,75,110,0
195.86002,196.06537,68,110,0
195.96715,196.17252,74,110,0
196.0743,196.27965,77,110,0
196.28859,196.49394,67,110,0
196.39572,196.60109,72,110,0
196.50287,196.70822,75,110,0
196.71715,196.92252,65,110,0
196.8243,197.02965,71,110,0
196.93144,197.1368,74,110,0
197.03859,197.24394,60,110,0
197.14572,197.35109,63,110,0
197.25287,197.45822,67,110,0
197.36002,197.56537,72,110,0
197.46715,197.67252,74,110,0
197.5743,197.77965,72,110,0
197.68144,197.8868,71,110,0
197.78857,197.99394,72,110,0
197.89572,197.99394,72,110,0
198.00287,198.20822,77,110,0
198.11002,198.31537,80,110,0
198.21715,198.42252,84,110,0
198.3243,198.52965,86,110,0
198.43144,198.6368,84,110,0
198.53857,198.74394,83,110,0
198.64572,198.85107,84,110,0
198.75287,198.95822,68,110,0
198.86002,199.06537,72,110,0
198.96715,199.17252,77,110,0
199.0743,199.27965,80,110,0
199.18144,199.3868,82,110,0
199.28857,199.49394,80,110,0
199.39572,199.60107,79,110,0
199.50287,199.70822,80,110,0
199.61002,199.81537,65,110,0
199.71715,199.9225,71,110,0
199.8243,200.02965,74,110,0
199.93144,200.1368,77,110,0
200.03857,200.24394,79,110,0
200.14572,200.35107,77,110,0
200.25287,200.45822,76,110,0
200.36,200.56537,77,110,0
200.46715,200.6725,65,110,0
200.5743,200.77965,68,109,0
200.68144,200.8868,73,108,0
200.78857,200.99394,74,108,0
200.89572,201.10107,75,107,0
201.00287,201.20822,74,106,0
201.11,201.31537,73,105,0
201.21715,201.4225,74,105,0
201.3243,201.52965,65,104,0
201.43144,201.6368,68,103,0
201.53857,201.74394,73,103,0
201.64572,201.85107,74,102,0
201.75287,201.95822,75,101,0
201.86,202.06537,74,100,0
201.96715,202.1725,73,100,0
202.0743,202.2872,74,99,0
202.18143,202.40259,65,98,0
202.29681,202.51797,68,97,0
202.4122,202.63336,73,97,0
202.52759,202.74875,74,96,0
202.64297,202.86412,75,95,0
202.75836,202.9795,74,95,0
202.87375,203.0949,73,94,0
202.98912,203.21028,74,93,0
203.1045,203.32567,65,92,0
203.2199,203.44106,68,92,0
203.33528,203.55643,73,91,0
203.45067,203.67181,74,90,0
203.56606,203.7872,75,89,0
203.68143,203.90259,74,89,0
203.79681,204.01797,73,88,0
203.9122,204.14217,74,87,0
204.02759,204.26717,65,87,0
204.15259,204.39217,68,86,0
204.27759,204.51717,73,85,0
204.40259,204.64217,74,84,0
204.52759,204.76717,75,84,0
204.65259,204.89217,74,83,0
204.77759,205.01717,73,82,0
204.90259,205.14217,74,81,0
205.02759,205.26717,65,81,0
205.15259,205.39217,68,80,0
205.27759,205.51717,73,79,0
205.40259,205.64217,74,79,0
205.52759,205.76717,75,78,0
205.65259,205.89217,74,77,0
205.77759,206.01717,73,76,0
205.90259,206.15259,74,76,0
206.02759,206.28896,65,75,0
206.16396,206.42531,68,74,0
206.30031,206.56168,73,73,0
206.43668,206.69804,74,73,0
206.57304,206.83441,75,72,0
206.70941,206.97076,74,71,0
206.84576,207.10713,73,71,0
206.98213,207.10713,74,70,0
207.1185,207.92531,77,70,0
207.93668,208.19804,75,70,0
208.20941,208.69899,75,80,0
208.70941,209.3763,74,80,0
208.20941,209.59059,68,80,0
208.20941,209.59059,65,80,0
209.38522,209.59059,77,80,0
209.59952,209.80487,75,80,0
209.59952,210.01915,67,80,0
209.8138,210.01915,72,80,0
210.02809,210.44772,72,80,0
210.02809,210.8763,65,80,0
210.45665,211.09058,70,80,0
211.09952,211.30487,71,80,0
211.3138,211.51915,72,80,0
211.3138,211.73344,65,80,0
211.52808,211.73344,68,80,0
211.74237,211.94772,68,80,0
211.95665,212.16202,67,80,0
212.17094,212.3763,70,80,0
212.38522,212.59058,63,80,0
212.59952,212.80487,63,80,0
212.8138,213.01915,62,80,0
213.02808,213.23344,65,80,0
213.24237,213.8763,63,80,0
213.45665,213.8763,67,80,0
213.88522,214.30487,65,80,0
213.88522,214.30487,62,80,0
214.3138,214.94772,77,80,0
214.95665,215.162,75,80,0
215.17093,215.21558,74,80,0
215.2245,215.26915,75,80,0
215.27808,215.32272,77,80,0
215.33165,215.59058,75,80,0
215.5995,216.162,74,80,0
216.17093,216.30487,75,80,0
216.3138,216.44772,74,80,0
216.45665,216.59058,77,80,0
216.5995,216.73343,75,80,0
216.74237,216.8763,72,80,0
216.88522,217.30486,69,80,0
217.3138,217.8763,70,80,0
217.88522,218.01915,72,80,0
218.02808,218.162,71,80,0
218.17093,218.30486,74,80,0
218.3138,218.44772,72,80,0
218.45665,218.59058,68,80,0
218.5995,218.73343,67,80,0
218.74236,218.8763,68,80,0
218.88522,219.01915,67,80,0
219.02808,219.162,70,80,0
219.17093,219.30486,68,80,0
219.02808,219.44772,60,80,0
219.3138,219.44772,65,80,0
219.45665,219.662,63,80,0
219.67093,219.76915,65,80,0
219.7245,219.82272,63,80,0
219.45665,219.87628,55,80,0
219.77808,219.87628,62,80,0
219.83165,219.87628,63,80,0
219.88522,220.09058,67,80,0
219.88522,220.30486,62,80,0
219.88522,220.30486,56,80,0
220.0995,220.30486,65,80,0
220.31378,220.73343,63,80,0
220.31378,220.73343,55,80,0
221.17093,221.26915,55,80,0
221.27808,221.37628,58,80,0
221.38522,221.48343,63,80,0
221.49236,221.59058,67,81,0
221.5995,221.69771,70,81,0
221.70665,221.80486,75,82,0
221.81378,221.912,79,82,0
221.92093,222.01915,77,83,0
222.02808,222.44771,75,83,0
222.45665,222.87628,74,85,0
222.88521,223.09058,75,87,0
223.0995,223.30486,77,88,0
223.31378,223.51915,79,89,0
223.52808,223.73343,81,90,0
223.74236,224.162,84,91,0
224.17093,224.59058,82,93,0
224.5995,224.69771,55,95,0
224.70663,224.80486,58,96,0
224.81378,224.912,63,96,0
224.92093,225.01913,67,96,0
225.02808,225.12628,70,97,0
225.13521,225.23343,75,97,0
225.24236,225.34058,79,98,0
225.3495,225.44771,77,98,0
225.45663,225.87628,75,99,0
225.88521,225.98343,74,101,0
225.99236,226.09056,75,101,0
226.0995,226.19771,72,102,0
226.20663,226.30486,74,102,0
226.31378,226.52834,75,103,0
226.53766,226.76584,77,104,0
226.53766,226.76584,65,104,0
226.77576,227.01534,79,105,0
226.77576,227.01534,67,105,0
227.02576,227.27795,81,106,0
227.02576,227.27795,69,106,0
227.28891,230.43584,70,107,0
227.28891,230.43584,82,107,0
230.44681,231.08073,77,100,0
230.44681,231.08073,89,100,0
231.08966,231.29503,75,100,0
231.08966,231.29503,87,100,0
231.30396,231.72359,75,100,0
231.30396,231.72359,87,100,0
231.73253,232.36646,74,100,0
231.73253,232.36646,86,100,0
232.37538,232.58073,77,100,0
232.37538,232.58073,89,100,0
232.58966,232.79501,75,100,0
232.58966,232.79501,87,100,0
232.80396,233.00931,72,100,0
232.80396,233.00931,84,100,0
233.01823,233.43788,69,100,0
233.01823,233.43788,81,100,0
233.44681,234.08073,70,100,0
233.44681,234.08073,82,100,0
234.08966,234.29501,71,100,0
234.08966,234.29501,83,100,0
234.30396,234.50931,72,100,0
234.30396,234.50931,84,100,0
234.51823,234.72359,68,100,0
234.51823,234.72359,80,100,0
234.73251,234.93788,67,100,0
234.73251,234.93788,79,100,0
234.94681,235.15216,70,100,0
234.94681,235.15216,82,100,0
235.16109,235.36644,68,100,0
235.16109,235.36644,80,100,0
235.37538,235.58073,77,100,0
235.37538,235.58073,65,100,0
235.58966,235.79501,75,100,0
235.80394,235.90216,77,100,0
235.85751,235.95573,75,100,0
235.58966,236.00931,67,100,0
235.91109,236.00931,74,100,0
235.96466,236.00931,75,100,0
236.01823,236.22359,79,100,0
236.01823,236.43788,68,100,0
236.01823,236.43788,74,100,0
236.23251,236.43788,77,100,0
236.44681,236.86644,75,100,0
236.44681,236.86644,67,100,0
239.4468,239.86644,75,100,0
239.87537,240.29501,75,100,0
240.30394,240.72359,74,100,0
242.87537,243.29501,75,100,0
243.30394,243.72359,76,100,0
243.73251,244.15215,77,100,0
246.30394,246.72357,77,100,0
246.73251,247.15215,77,100,0
247.16107,247.58072,76,100,0
249.51822,249.72357,77,100,0
249.7325,249.93787,77,100,0
249.9468,250.15215,77,100,0
250.16107,250.3575,76,100,0
250.26822,250.45572,77,100,0
250.37537,250.56287,79,100,0
250.4825,250.67892,77,100,0
250.58965,251.0093,76,100,0
252.9468,253.15215,75,110,0
253.16107,253.36642,75,110,0
253.37535,253.58072,75,110,0
253.58965,253.795,74,110,0
253.6968,253.87535,75,110,0
253.80392,253.9825,77,110,0
253.91107,254.11642,75,110,0
254.01822,254.43785,74,110,0
255.30392,256.15213,68,110,0
255.30392,256.15213,58,110,0
255.30392,256.15213,56,110,0
256.16107,257.00928,67,110,0
256.16107,257.00928,58,110,0
256.16107,257.00928,55,110,0
257.01822,257.18787,62,110,0
257.12537,257.31287,63,110,0
257.23248,257.40213,65,110,0
257.33963,257.50928,63,110,0
257.44678,257.65213,62,110,0
257.66107,257.86642,58,110,0
257.87537,258.05392,63,110,0
257.98248,258.16107,65,110,0
258.08963,258.25037,67,110,0
258.19678,258.37537,65,110,0
258.30392,258.50928,63,110,0
258.51822,258.72357,58,110,0
258.51822,258.72357,70,110,0
258.73248,259.58072,80,110,0
258.73248,259.58072,70,110,0
258.73248,259.58072,68,110,0
259.58963,260.22357,79,110,0
259.58963,260.22357,70,110,0
259.58963,260.22357,67,110,0
260.23248,260.43784,70,110,0
260.44678,260.61642,74,110,0
260.55392,260.75034,75,110,0
260.66107,260.84857,77,110,0
260.76822,260.95572,75,110,0
260.87534,261.08072,74,110,0
261.08963,261.29498,70,110,0
261.30392,261.48248,75,110,0
261.41107,261.58963,77,110,0
261.51822,261.69678,79,110,0
261.62534,261.79498,77,110,0
261.73248,261.93784,75,110,0
261.94678,262.15213,76,110,0
261.94678,262.15213,64,110,0
262.16107,262.33963,77,100,0
262.16107,262.34857,65,100,0
262.26822,262.44678,67,80,0
262.37534,262.55392,68,80,0
262.48248,262.67892,67,80,0
262.58963,262.79498,65,80,0
262.80392,263.00928,72,80,0
263.01822,263.22357,68,80,0
263.23248,263.43784,77,80,0
263.44678,263.65213,72,80,0
263.66107,263.86642,80,80,0
263.87534,264.0807,65,100,0
263.98248,264.16998,67,80,0
264.08963,264.2682,68,80,0
264.19678,264.37534,67,80,0
264.30392,264.50928,65,80,0
264.5182,264.72357,72,80,0
264.73248,264.93784,68,80,0
264.94678,265.15213,77,80,0
265.16107,265.36642,72,80,0
265.37534,265.5807,80,80,0
265.58963,265.78607,74,70,0
265.69678,265.88428,75,70,0
265.80392,265.98248,77,70,0
265.91107,266.08963,75,70,0
266.0182,266.22357,74,70,0
266.23248,266.43784,80,70,0
266.44678,266.65213,77,70,0
266.66107,266.86642,86,70,0
266.87534,267.0807,80,70,0
267.08963,267.29498,89,70,0
267.30392,267.50928,87,70,0
267.5182,267.72357,86,70,0
267.73248,267.93784,87,70,0
267.94678,268.15213,83,70,0
268.16107,268.36642,84,70,0
268.37534,268.5807,79,70,0
268.58963,268.79498,80,70,0
268.80392,269.00928,77,70,0
269.0182,269.22354,82,70,0
269.23248,269.43784,78,70,0
269.44678,269.65213,79,70,0
269.66104,269.86642,75,70,0
269.87534,270.0807,80,70,0
270.08963,270.29498,76,70,0
270.30392,270.50928,77,70,0
270.5182,270.72354,74,70,0
270.73248,271.5807,75,70,0
272.0182,272.43784,79,100,0
272.0182,272.43784,76,100,0
272.44678,272.8664,77,100,0
272.44678,272.8664,80,100,0
272.87534,273.29498,80,100,0
272.87534,273.29498,84,100,0
273.73248,274.15213,77,100,0
273.73248,274.15213,74,100,0
274.16104,274.5807,75,100,0
274.16104,274.5807,79,100,0
274.58963,275.00928,79,100,0
274.58963,275.00928,82,100,0
275.0182,275.43784,82,100,0
275.44678,275.54498,82,100,0
275.50034,275.59854,84,100,0
275.5539,275.65213,82,100,0
275.60748,275.7057,84,100,0
275.66104,275.75928,82,100,0
275.71463,275.81284,84,100,0
275.7682,275.8664,81,100,0
275.82178,275.8664,82,100,0
275.87534,276.0807,80,100,0
276.08963,276.29498,79,100,0
276.3039,276.50928,77,100,0
276.5182,276.72354,75,100,0
276.73248,276.93784,74,100,0
276.94678,277.15213,75,100,0
277.16104,277.3664,76,100,0
277.37534,277.5807,77,100,0
277.58963,278.00925,70,100,0
278.87534,279.29498,76,110,0
278.87534,279.29498,72,110,0
278.87534,279.29498,67,110,0
279.3039,279.72354,84,110,0
279.73248,279.8307,84,110,0
279.78604,279.88425,85,110,0
279.83963,279.93784,84,110,0
279.8932,279.9914,85,110,0
279.94675,280.04498,84,110,0
280.00034,280.09854,85,110,0
280.0539,280.15213,83,110,0
280.10748,280.15213,84,110,0
280.58963,281.00925,74,110,0
280.58963,281.00925,70,110,0
280.58963,281.00925,65,110,0
281.0182,281.43784,82,110,0
281.44675,281.54498,82,110,0
281.50034,281.59854,84,110,0
281.5539,281.6521,82,110,0
281.60748,281.7057,84,110,0
281.66104,281.75925,82,110,0
281.7146,281.81284,84,110,0
281.7682,281.8664,81,110,0
281.82175,281.8664,82,110,0
282.3039,282.4021,82,110,0
282.35748,282.4557,84,110,0
282.41104,282.50925,82,110,0
282.4646,282.56284,84,110,0
282.5182,282.6164,82,110,0
282.57175,282.66998,84,110,0
282.62534,282.72354,81,110,0
282.6789,282.72354,82,110,0
282.73248,282.93784,80,80,0
282.94675,283.1521,79,80,0
283.16104,283.25925,77,80,0
283.2146,283.31284,79,80,0
283.2682,283.3664,77,80,0
283.37534,283.5807,75,80,0
283.5896,283.68784,75,80,0
283.6432,283.7414,77,80,0
283.69675,283.79498,75,80,0
283.8039,284.00925,74,80,0
284.0182,284.1164,72,80,0
284.07175,284.16998,74,80,0
284.12534,284.22354,72,80,0
284.23248,284.43784,70,80,0
284.44675,284.6521,70,80,0
284.66104,284.75925,72,80,0
284.7682,284.8664,74,80,0
284.87534,284.97354,75,80,0
284.98248,285.0807,77,80,0
285.0896,285.18784,79,80,0
285.19675,285.29498,80,80,0
285.3039,285.50925,82,110,0
285.5182,285.6164,81,110,0
285.62534,285.72354,82,110,0
285.73248,285.8307,81,110,0
285.8396,285.93784,82,110,0
285.94675,286.04495,84,110,0
286.0539,286.1521,82,110,0
286.37534,286.47354,80,80,0
286.48245,286.5807,79,80,0
286.8039,286.9021,77,80,0
286.91104,287.00925,75,80,0
287.23245,287.3307,75,80,0
287.3396,287.43784,74,80,0
287.66104,287.75925,72,80,0
287.7682,287.8664,70,80,0
287.87534,287.97354,69,80,0
287.98245,288.0807,70,80,0
288.0896,288.18784,72,80,0
288.19675,288.29495,74,80,0
288.3039,288.4021,75,80,0
288.41104,288.50925,77,80,0
288.5182,288.6164,79,80,0
288.62534,288.72354,80,80,0
288.73245,288.91995,81,110,0
288.8396,289.04495,82,110,0
288.94675,289.12534,81,110,0
289.0539,289.2414,82,110,0
289.16104,289.34854,81,110,0
289.2682,289.4557,82,110,0
289.37534,289.5807,84,110,0
289.48245,289.6789,82,110,0
289.5896,289.78604,80,110,0
289.69675,289.88425,79,110,0
289.8039,289.98245,77,110,0
289.91104,290.0896,75,110,0
290.0182,290.2146,74,110,0
290.12534,290.32175,75,110,0
290.23245,290.4021,77,110,0
290.3396,290.50925,75,110,0
290.44675,290.60745,74,110,0
290.5539,290.7414,72,110,0
290.66104,290.85745,70,110,0
290.7682,290.94675,69,110,0
290.8753,291.0628,75,110,0
290.98245,291.16995,69,110,0
291.0896,291.29495,75,110,0
291.19675,291.4021,69,110,0
291.3039,291.5003,72,80,0
291.41104,291.5896,70,80,0
291.5182,291.7057,69,80,0
291.6253,291.8128,70,80,0
291.73245,291.91995,71,79,0
291.8396,292.0271,72,79,0
291.94675,292.1253,73,79,0
292.0539,292.25925,74,78,0
292.16104,292.34854,75,78,0
292.2682,292.47354,76,78,0
292.3753,292.5539,77,77,0
292.48245,292.66104,78,77,0
292.5896,292.7682,79,77,0
292.69675,292.8753,80,76,0
292.8039,292.97354,81,76,0
292.91104,293.0807,82,76,0
293.0182,293.25925,83,75,0
293.16104,293.4289,84,75,0
293.3039,293.5539,85,74,0
293.44675,293.7057,86,74,0
293.5896,293.8128,87,73,0
293.73245,293.8664,88,73,0
293.8753,294.50925,89,73,0
294.5182,294.72354,87,71,0
294.73245,294.83066,86,80,0
294.78604,294.88425,87,80,0
294.8396,294.9378,89,80,0
294.89316,295.1521,87,80,0
295.16104,295.79495,86,80,0
295.8039,296.00925,89,80,0
296.01816,296.22354,87,80,0
296.23245,296.4378,84,80,0
296.44675,296.54495,83,80,0
296.5003,296.59854,84,80,0
296.5539,296.6521,86,80,0
296.60745,296.8664,84,80,0
296.8753,297.50925,82,80,0
297.51816,297.72354,83,80,0
297.73245,297.9378,84,80,0
297.94675,298.1521,80,80,0
298.16104,298.3664,80,80,0
298.3753,298.58066,79,80,0
298.5896,298.79495,82,80,0
298.5896,299.00925,70,80,0
298.8039,299.00925,75,80,0
299.01816,299.2235,75,80,0
299.01816,299.4378,68,80,0
299.23245,299.4378,74,80,0
299.44675,299.6521,77,80,0
299.44675,299.8664,65,80,0
299.661,299.8664,75,80,0
299.8753,300.29495,75,80,0
299.8753,300.29495,79,80,0
300.3039,300.7235,77,80,0
300.3039,300.7235,74,80,0
300.94675,301.3664,77,80,0
300.94675,301.3664,89,80,0
301.3753,301.79495,76,82,0
301.3753,301.79495,88,82,0
301.8039,302.2235,75,84,0
301.8039,302.2235,87,84,0
302.23245,302.6521,74,86,0
302.23245,302.6521,86,86,0
302.661,303.08066,73,88,0
302.661,303.08066,85,88,0
303.0896,303.50925,72,90,0
303.0896,303.50925,84,90,0
303.51816,303.9378,71,92,0
303.51816,303.9378,83,92,0
303.94675,304.36636,70,94,0
303.94675,304.36636,82,94,0
304.3753,304.79495,69,96,0
304.3753,304.79495,81,96,0
304.80386,305.2235,68,98,0
304.80386,305.2235,80,98,0
305.23245,305.4378,79,80,0
305.23245,305.4378,67,80,0
305.44675,305.58066,82,80,0
305.5896,305.7235,80,81,0
305.44675,305.86636,72,80,0
305.73245,305.86636,77,81,0
305.8753,306.08066,75,82,0
306.0896,306.1878,77,83,0
306.14316,306.24136,75,83,0
305.8753,306.29495,67,82,0
306.19675,306.29495,74,83,0
306.2503,306.3485,75,83,0
306.30386,306.50925,79,83,0
306.30386,306.7235,74,83,0
306.30386,306.7235,68,83,0
306.51816,306.7235,77,84,0
306.73245,307.1521,75,85,0
306.73245,307.1521,67,85,0
307.5896,307.6878,55,88,0
307.69672,307.79495,58,89,0
307.80386,307.9021,63,89,0
307.911,308.00922,67,89,0
308.01816,308.11636,70,90,0
308.1253,308.2235,75,90,0
308.23245,308.33066,79,91,0
308.3396,308.4378,77,91,0
308.44672,308.86636,75,91,0
308.8753,309.29495,74,93,0
309.30386,309.50922,75,94,0
309.51816,309.7235,77,95,0
309.73245,309.9378,79,96,0
309.94672,310.1521,81,97,0
310.161,310.58066,84,98,0
310.5896,311.00922,82,99,0
311.01816,311.11636,55,101,0
311.1253,311.2235,58,101,0
311.23245,311.33066,63,102,0
311.3396,311.4378,67,102,0
311.44672,311.54495,70,102,0
311.55386,311.6521,75,103,0
311.661,311.75922,79,103,0
311.76816,311.86636,77,104,0
311.8753,311.9735,75,104,0
311.98245,312.08066,74,104,0
312.08957,312.1878,72,105,0
312.19672,312.29495,70,105,0
312.30386,312.40207,69,106,0
312.411,312.50922,70,106,0
312.51816,312.61636,72,106,0
312.6253,312.7235,74,107,0
312.73245,312.947,75,107,0
312.95633,313.1845,77,108,0
312.95633,313.1845,65,108,0
313.19443,313.434,79,109,0
313.19443,313.434,67,109,0
313.44443,313.70578,81,109,0
313.44443,313.70578,69,109,0
313.71713,315.8876,82,110,0
313.71713,315.8876,70,110,0
315.89896,316.79858,83,70,0
315.89896,316.79858,71,70,0
318.62622,319.29858,78,70,0
319.30804,319.52585,76,70,0
319.5353,319.9804,76,70,0
319.98987,320.6622,75,70,0
318.62622,320.8895,66,70,0
318.62622,320.8895,69,70,0
320.6717,320.8895,78,70,0
320.89896,321.11676,76,70,0
320.89896,321.34402,68,70,0
321.12622,321.34402,73,70,0
321.35352,321.79858,73,70,0
321.35352,322.2531,66,70,0
321.80804,322.4804,71,70,0
322.48987,322.70767,72,70,0
322.71713,322.93494,73,70,0
322.71713,323.1622,66,70,0
322.9444,323.1622,69,70,0
323.1717,323.3895,69,70,0
323.39896,323.61676,68,70,0
323.62622,323.84402,71,70,0
323.8535,324.0713,64,70,0
324.08078,324.29858,64,70,0
324.30804,324.52585,63,70,0
324.5353,324.7531,66,70,0
324.7626,324.98038,64,70,0
324.98987,325.20767,68,70,0
325.21713,325.43494,66,70,0
325.4444,325.6622,71,70,0
325.6717,325.8895,64,70,0
325.89896,326.11676,64,70,0
326.12622,326.34402,63,70,0
326.3535,326.5713,66,70,0
326.58078,326.79858,64,70,0
327.71713,328.84402,68,110,0
327.71713,328.84402,80,110,0
328.8535,329.0713,79,80,0
328.8535,329.0713,67,80,0
329.08078,329.29858,82,81,0
329.08078,329.29858,70,81,0
329.30804,329.52585,75,82,0
329.30804,329.52585,63,82,0
329.5353,329.7531,75,84,0
329.5353,329.7531,63,84,0
329.76257,329.98038,74,85,0
329.76257,329.98038,62,85,0
329.98987,330.20767,77,86,0
329.98987,330.20767,65,86,0
330.21713,330.43494,75,88,0
330.21713,330.43494,63,88,0
330.4444,330.6622,79,89,0
330.4444,330.6622,67,89,0
330.67166,330.88947,77,90,0
330.67166,330.88947,65,90,0
330.89896,331.11676,82,92,0
330.89896,331.11676,70,92,0
331.12622,331.34402,75,93,0
331.12622,331.34402,63,93,0
331.3535,331.5713,75,94,0
331.3535,331.5713,63,94,0
331.58075,331.79855,74,96,0
331.58075,331.79855,62,96,0
331.80804,332.02585,77,97,0
331.80804,332.02585,65,97,0
332.0353,332.2531,75,99,0
332.0353,332.2531,63,99,0
332.26257,332.48038,79,100,0
332.26257,332.48038,67,100,0
332.48987,332.70764,77,101,0
332.48987,332.70764,65,101,0
332.71713,332.93494,80,103,0
332.71713,332.93494,68,103,0
332.9444,333.1622,79,104,0
332.9444,333.1622,67,104,0
333.17166,333.38947,82,105,0
333.17166,333.38947,70,105,0
333.39896,333.61676,80,107,0
333.39896,333.61676,68,107,0
333.62622,333.84402,84,108,0
333.62622,333.84402,72,108,0
333.8535,334.0713,83,109,0
333.8535,334.0713,71,109,0
334.08075,334.29855,86,100,0
334.08075,334.29855,74,100,0
334.30804,334.52585,84,98,0
334.30804,334.52585,72,98,0
334.5353,334.7531,82,95,0
334.5353,334.7531,70,95,0
334.76257,334.98038,80,92,0
334.76257,334.98038,68,92,0
334.98984,335.20764,79,89,0
334.98984,335.20764,67,89,0
335.21713,335.43494,77,86,0
335.21713,335.43494,65,86,0
335.4444,335.6622,80,83,0
335.4444,335.6622,68,83,0
335.67166,335.88947,74,81,0
335.67166,335.88947,62,81,0
335.89896,336.79855,75,80,0
335.89896,336.79855,63,80,0
337.26257,337.36673,67,80,0
337.37622,337.70764,79,80,0
337.71713,337.8213,70,80,0
337.83075,338.61673,82,80,0
339.08075,339.18494,75,80,0
339.1944,339.52582,87,80,0
339.5353,339.63947,53,80,0
339.64893,340.43494,65,80,0
340.89893,341.0031,72,80,0
341.01257,341.34402,84,80,0
341.3535,342.48038,70,80,0
341.3535,342.48038,82,80,0
342.48984,342.70764,69,80,0
342.48984,342.70764,81,80,0
342.7171,342.9349,68,80,0
342.7171,342.9349,80,80,0
342.9444,343.1622,77,80,0
342.9444,343.1622,65,80,0
343.17166,344.0713,75,80,0
343.17166,344.0713,63,80,0
344.5353,344.63947,67,86,0
344.64893,344.98038,79,86,0
344.98984,345.094,70,88,0
345.1035,345.88947,82,88,0
346.3535,346.45764,75,93,0
346.4671,346.79855,87,94,0
346.808,346.9122,56,95,0
346.92166,347.70764,68,96,0
348.17166,348.27582,75,101,0
348.28528,348.61673,87,101,0
348.6262,348.73038,57,103,0
348.73984,349.52582,69,103,0
349.98984,350.094,75,109,0
350.1035,350.4349,87,109,0
350.44437,350.88947,58,110,0
350.44437,350.88947,70,110,0
350.89893,351.79855,70,107,0
350.89893,351.79855,82,107,0
351.808,352.02582,68,102,0
351.808,352.02582,80,102,0
352.03528,352.25308,79,101,0
352.03528,352.25308,67,101,0
352.26257,353.38947,79,90,0
352.26257,353.38947,67,90,0
353.39893,353.61673,77,83,0
353.39893,353.61673,65,83,0
353.6262,353.844,80,82,0
353.6262,353.844,68,82,0
353.85345,354.07126,74,81,0
353.85345,354.07126,62,81,0
354.08075,354.98035,75,80,0
354.08075,354.98035,63,80,0
355.44437,356.344,67,79,0
355.44437,356.344,79,79,0
356.35345,356.79855,65,78,0
356.35345,356.79855,77,78,0
357.26254,357.36673,70,77,0
357.3762,357.70764,82,77,0
357.7171,357.82126,75,77,0
357.83075,358.61673,87,77,0
359.08075,359.99426,67,76,0
359.08075,359.99426,79,76,0
360.00403,360.463,77,75,0
360.00403,360.463,65,75,0
360.94153,361.04895,70,74,0
361.05872,361.4005,82,74,0
361.41028,361.52118,63,74,0
361.53125,362.36795,75,74,0
362.8619,362.97278,67,72,0
362.98285,363.3357,79,72,0
363.34576,363.46036,70,72,0
363.47076,363.83536,82,72,0
364.84576,364.96036,75,71,0
364.97076,365.33536,87,71,0
365.34576,365.8611,55,70,0
365.34576,365.8611,63,70,0
366.3984,366.95264,63,70,0
366.3984,366.95264,58,70,0
366.3984,366.95264,55,70,0
368.08945,371.07382,55,70,0
368.08945,371.07382,58,70,0
368.08945,371.07382,63,70,0
372.96445,373.69882,63,1,0
0.857142,1.0624989,46,80,0
1.0714275,1.2767844,58,80,0
1.285713,1.4910699,58,80,0
1.4999985,1.7053554,58,80,0
1.714284,1.9196409,58,80,0
1.9285696,2.1339264,58,80,0
2.142855,2.5624974,63,80,0
2.3571405,2.5624974,58,80,0
2.7857115,2.9910684,58,80,0
2.999997,3.205354,58,80,0
2.571426,3.4196393,62,80,0
3.2142825,3.4196393,58,80,0
3.428568,3.633925,58,80,0
3.6428535,3.8482103,58,80,0
3.857139,4.0624957,50,80,0
4.0714245,4.2767816,58,80,0
4.28571,4.491067,51,80,0
4.4999957,4.7053523,58,80,0
4.714281,4.919638,55,80,0
4.9285665,5.1339235,58,80,0
5.142852,5.348209,53,80,0
5.142852,5.348209,56,80,0
5.3571377,5.5624943,58,80,0
5.571423,5.77678,55,80,0
5.571423,5.77678,51,80,0
5.7857084,5.9910655,58,80,0
5.999994,6.205351,46,80,0
6.2142797,6.4196362,58,80,0
6.428565,6.633922,58,80,0
6.6428504,6.8482075,58,80,0
6.857136,7.062493,72,80,0
6.857136,7.062493,68,80,0
7.0714216,7.276778,58,80,0
7.285707,7.491064,67,80,0
7.285707,7.491064,70,80,0
7.4999924,7.7053494,58,80,0
7.714278,7.919635,65,80,0
7.9285636,8.133921,58,80,0
8.142849,8.348206,58,80,0
7.714278,8.562491,68,80,0
8.357135,8.562491,58,80,0
8.57142,8.776777,65,80,0
8.57142,8.991062,68,80,0
8.785706,8.991062,58,80,0
8.999991,9.205348,63,80,0
8.999991,9.419634,67,80,0
9.214276,9.419634,58,80,0
9.428562,9.633919,62,80,0
9.642847,9.848205,58,80,0
9.857133,10.0624895,58,80,0
9.428562,10.276775,65,80,0
10.071419,10.276775,58,80,0
10.285704,10.491061,58,80,0
10.4999895,10.705346,58,80,0
10.714275,10.919632,50,80,0
10.92856,11.133918,58,80,0
11.142846,11.348203,51,80,0
11.357132,11.562489,55,80,0
11.571417,11.776774,44,80,0
11.785703,11.991059,56,80,0
11.999988,12.205345,46,80,0
12.214273,12.41963,46,80,0
12.428559,12.633916,34,80,0
12.642844,12.848202,46,80,0
12.85713,13.2767725,39,80,0
13.285701,13.705343,51,80,0
13.928557,14.133914,58,80,0
14.142843,14.562486,55,81,0
14.357128,14.562486,58,82,0
14.571414,14.991056,56,83,0
14.7857,14.991056,58,84,0
14.999985,15.419627,53,84,0
15.214271,15.419627,58,85,0
15.428556,15.848199,55,86,0
15.642841,15.848199,58,87,0
15.857127,16.27677,51,88,0
16.071413,16.27677,58,89,0
16.285698,16.491055,46,89,0
16.499983,16.705341,58,90,0
16.71427,16.919626,58,91,0
16.928555,17.133911,58,92,0
17.357126,17.562483,58,94,0
17.571411,17.991053,55,94,0
17.785696,17.991053,58,95,0
17.999983,18.419624,56,96,0
18.214268,18.419624,58,97,0
18.428553,18.848196,53,98,0
18.64284,18.848196,58,99,0
18.857124,19.30918,55,99,0
19.081005,19.30918,58,100,0
19.3191,19.821293,51,101,0
19.5691,19.821293,58,102,0
19.832256,22.785732,46,103,0
19.832256,22.785732,58,103,0
22.79466,23.00002,72,80,0
22.79466,23.00002,68,80,0
23.008947,23.214304,58,80,0
23.223232,23.428589,67,81,0
23.223232,23.428589,70,81,0
23.437517,23.642874,58,81,0
23.651804,23.85716,65,82,0
23.866089,24.071445,58,83,0
24.080374,24.28573,58,83,0
23.651804,24.500017,68,82,0
24.29466,24.500017,58,84,0
24.508945,24.714302,65,85,0
24.508945,24.928587,68,85,0
24.72323,24.928587,58,85,0
24.937517,25.142874,63,86,0
24.937517,25.357159,67,86,0
25.151802,25.357159,58,87,0
25.366087,25.571444,62,87,0
25.580372,25.78573,58,88,0
25.794659,26.000015,58,89,0
25.366087,26.2143,65,87,0
26.008944,26.2143,58,89,0
26.223228,26.428587,58,90,0
26.437515,26.642872,58,91,0
26.6518,26.857157,50,91,0
26.6518,26.857157,62,91,0
26.866085,27.071444,58,92,0
27.080372,27.285728,51,93,0
27.080372,27.285728,63,93,0
27.294657,27.500013,55,93,0
27.508942,27.714298,44,94,0
27.723228,27.928585,56,95,0
27.937513,28.14287,46,95,0
28.151798,28.357155,58,96,0
28.366085,28.571442,34,97,0
28.58037,28.785727,46,97,0
28.794655,29.214298,39,98,0
29.223227,29.642868,51,99,0
29.651796,29.82144,31,111,0
29.75894,29.94644,34,111,0
29.866083,30.053583,39,111,0
29.866083,30.07144,58,100,0
29.973225,30.160725,43,112,0
30.080368,30.241083,46,110,0
30.080368,30.285725,58,100,0
30.187511,30.366083,51,110,0
30.294653,30.482153,55,111,0
30.294653,30.500011,58,100,0
30.401796,30.580368,53,110,0
30.50894,30.714296,56,100,0
30.50894,30.714296,58,100,0
30.50894,30.928581,51,110,0
30.723225,30.928581,56,100,0
30.723225,30.928581,58,100,0
30.93751,31.142868,56,100,0
30.93751,31.142868,58,100,0
30.93751,31.357153,50,110,0
31.151796,31.357153,56,100,0
31.151796,31.357153,58,100,0
31.366081,31.571438,55,100,0
31.366081,31.571438,58,100,0
31.580366,31.785725,55,100,0
31.580366,31.785725,58,100,0
31.794653,32.000008,55,100,0
31.794653,32.000008,58,100,0
32.008938,32.214294,55,100,0
32.008938,32.214294,58,100,0
32.223225,32.42858,56,100,0
32.223225,32.42858,58,100,0
32.437508,32.642864,56,100,0
32.437508,32.642864,58,100,0
32.651794,32.85715,56,100,0
32.651794,32.85715,58,100,0
32.86608,33.071438,56,100,0
32.86608,33.071438,58,100,0
33.080364,33.250008,31,112,0
33.080364,33.28572,55,100,0
33.080364,33.28572,58,100,0
33.187508,33.392864,34,110,0
33.29465,33.455364,39,112,0
33.29465,33.500008,55,100,0
33.29465,33.500008,58,100,0
33.401794,33.571438,43,111,0
33.508938,33.696438,46,111,0
33.508938,33.714294,55,100,0
33.508938,33.714294,58,100,0
33.616077,33.803577,51,110,0
33.72322,33.928577,55,110,0
33.72322,33.928577,58,100,0
33.830364,33.928577,53,110,0
33.937508,34.142864,56,100,0
33.937508,34.142864,58,100,0
33.937508,34.35715,51,111,0
34.151794,34.35715,56,100,0
34.151794,34.35715,58,100,0
34.366077,34.571434,56,100,0
34.366077,34.571434,58,100,0
34.366077,34.78572,50,110,0
34.580364,34.78572,56,100,0
34.580364,34.78572,58,100,0
34.79465,35.000008,53,100,0
34.79465,35.000008,56,100,0
34.79465,35.000008,59,100,0
35.008934,35.21429,53,100,0
35.008934,35.21429,56,100,0
35.008934,35.21429,59,100,0
35.22322,35.428577,53,100,0
35.22322,35.428577,56,100,0
35.22322,35.428577,59,100,0
35.437508,35.642864,53,100,0
35.437508,35.642864,56,100,0
35.437508,35.642864,59,100,0
35.65179,35.857147,53,100,0
35.65179,35.857147,55,100,0
35.65179,35.857147,59,100,0
35.866077,36.071434,53,100,0
35.866077,36.071434,55,100,0
35.866077,36.071434,59,100,0
36.08036,36.28572,55,100,0
36.08036,36.28572,60,100,0
36.294647,36.500004,55,100,0
36.294647,36.500004,60,100,0
36.508934,36.71429,55,100,0
36.508934,36.71429,60,100,0
36.508934,36.71429,63,100,0
36.616077,36.812504,31,111,0
36.723217,36.910717,36,112,0
36.723217,36.928577,55,100,0
36.723217,36.928577,60,100,0
36.723217,36.928577,63,100,0
36.83036,37.02679,39,111,0
36.937504,37.107147,43,110,0
36.937504,37.14286,55,100,0
36.937504,37.14286,60,100,0
36.937504,37.14286,63,100,0
37.044647,37.241074,48,110,0
37.15179,37.348217,51,111,0
37.15179,37.357147,55,100,0
37.15179,37.357147,60,100,0
37.15179,37.357147,63,100,0
37.258934,37.357147,50,110,0
37.366074,37.571434,55,100,0
37.366074,37.571434,62,100,0
37.366074,37.571434,65,100,0
37.366074,37.785717,48,110,0
37.58036,37.785717,55,100,0
37.58036,37.785717,62,100,0
37.58036,37.785717,65,100,0
37.794647,38.000004,55,100,0
37.794647,38.000004,62,100,0
37.794647,38.000004,65,100,0
37.794647,38.214287,47,110,0
38.00893,38.214287,55,100,0
38.00893,38.214287,62,100,0
38.00893,38.214287,65,100,0
38.223217,38.428574,55,100,0
38.223217,38.428574,60,100,0
38.223217,38.428574,63,100,0
38.437504,38.64286,55,100,0
38.437504,38.64286,60,100,0
38.437504,38.64286,63,100,0
38.651787,38.857143,55,100,0
38.651787,38.857143,60,100,0
38.651787,38.857143,63,100,0
38.866074,39.07143,55,100,0
38.866074,39.07143,60,100,0
38.866074,39.07143,63,100,0
39.08036,39.285717,55,100,0
39.08036,39.285717,62,100,0
39.08036,39.285717,65,100,0
39.294643,39.5,55,100,0
39.294643,39.5,62,100,0
39.294643,39.5,65,100,0
39.50893,39.714287,55,100,0
39.50893,39.714287,62,100,0
39.50893,39.714287,65,100,0
39.723217,39.928574,55,100,0
39.723217,39.928574,62,100,0
39.723217,39.928574,65,100,0
39.9375,40.142857,55,100,0
39.9375,40.142857,60,100,0
39.9375,40.142857,63,100,0
40.151787,40.357143,55,100,0
40.151787,40.357143,60,100,0
40.151787,40.357143,63,100,0
40.366074,40.57143,55,100,0
40.366074,40.57143,60,100,0
40.366074,40.57143,63,100,0
40.366074,40.785713,48,110,0
40.366074,40.785713,36,110,0
40.580357,40.785713,55,100,0
40.580357,40.785713,60,100,0
40.580357,40.785713,63,100,0
40.794643,41.0,53,100,0
40.794643,41.0,60,100,0
40.794643,41.0,63,100,0
40.794643,41.214287,46,110,0
40.794643,41.214287,34,110,0
41.00893,41.214287,53,100,0
41.00893,41.214287,60,100,0
41.00893,41.214287,63,100,0
41.223213,41.42857,53,100,0
41.223213,41.42857,60,100,0
41.223213,41.42857,63,100,0
41.223213,41.642857,33,110,0
41.223213,41.642857,45,110,0
41.4375,41.642857,53,100,0
41.4375,41.642857,60,100,0
41.4375,41.642857,63,100,0
41.651787,41.857143,53,100,0
41.651787,41.857143,62,100,0
41.651787,41.857143,58,100,0
41.86607,42.071426,53,100,0
41.86607,42.071426,62,100,0
41.86607,42.071426,58,100,0
42.080357,42.285713,53,100,0
42.080357,42.285713,62,100,0
42.080357,42.285713,58,100,0
42.294643,42.5,53,100,0
42.294643,42.5,62,100,0
42.294643,42.5,58,100,0
42.508926,42.714283,53,100,0
42.508926,42.714283,60,100,0
42.508926,42.714283,63,100,0
42.723213,42.92857,53,100,0
42.723213,42.92857,60,100,0
42.723213,42.92857,63,100,0
42.9375,43.142857,53,100,0
42.9375,43.142857,60,100,0
42.9375,43.142857,63,100,0
43.151783,43.35714,53,100,0
43.151783,43.35714,60,100,0
43.151783,43.35714,63,100,0
43.36607,43.571426,53,100,0
43.36607,43.571426,58,100,0
43.36607,43.571426,62,100,0
43.580357,43.785713,53,100,0
43.580357,43.785713,58,100,0
43.580357,43.785713,62,100,0
43.580357,43.785713,46,100,0
43.79464,43.999996,53,100,0
43.79464,43.999996,58,100,0
43.79464,43.999996,62,100,0
43.79464,43.999996,46,100,0
44.008926,44.214283,53,100,0
44.008926,44.214283,58,100,0
44.008926,44.214283,62,100,0
44.008926,44.214283,46,100,0
44.22321,44.321426,45,100,0
44.22321,44.42857,53,100,0
44.22321,44.42857,60,100,0
44.22321,44.42857,63,100,0
44.330353,44.42857,46,100,0
44.437496,44.53571,48,100,0
44.437496,44.642853,53,100,0
44.437496,44.642853,60,100,0
44.437496,44.642853,63,100,0
44.54464,44.642853,46,100,0
44.651783,44.85714,53,100,0
44.651783,44.85714,60,100,0
44.651783,44.85714,63,100,0
44.651783,45.071426,45,100,0
44.866066,45.071426,53,100,0
44.866066,45.071426,60,100,0
44.866066,45.071426,63,100,0
45.080353,45.28571,53,100,0
45.080353,45.28571,58,100,0
45.080353,45.28571,62,100,0
45.29464,45.499996,53,100,0
45.29464,45.499996,58,100,0
45.29464,45.499996,62,100,0
45.508923,45.714283,53,100,0
45.508923,45.714283,58,100,0
45.508923,45.714283,62,100,0
45.72321,45.928566,53,100,0
45.72321,45.928566,58,100,0
45.72321,45.928566,62,100,0
45.937496,46.142853,53,100,0
45.937496,46.142853,60,100,0
45.937496,46.142853,63,100,0
46.15178,46.35714,53,100,0
46.15178,46.35714,60,100,0
46.15178,46.35714,63,100,0
46.366066,46.571423,53,100,0
46.366066,46.571423,60,100,0
46.366066,46.571423,63,100,0
46.580353,46.78571,53,100,0
46.580353,46.78571,60,100,0
46.580353,46.78571,63,100,0
46.794636,46.999992,53,110,0
46.794636,46.999992,58,110,0
46.794636,46.999992,62,110,0
47.008923,47.21428,53,110,0
47.008923,47.21428,58,110,0
47.008923,47.21428,62,110,0
47.008923,47.21428,46,110,0
47.22321,47.428566,53,110,0
47.22321,47.428566,58,110,0
47.22321,47.428566,62,110,0
47.22321,47.428566,46,110,0
47.437492,47.64285,53,110,0
47.437492,47.64285,58,110,0
47.437492,47.64285,62,110,0
47.437492,47.64285,46,110,0
47.65178,47.821423,45,110,0
47.758923,47.937492,46,110,0
47.866066,48.053566,48,110,0
47.97321,48.169636,46,110,0
48.08035,48.285706,45,110,0
47.65178,48.499992,63,110,0
47.65178,48.499992,60,110,0
47.65178,48.499992,53,110,0
48.294636,48.499992,41,110,0
48.508923,48.678562,46,110,0
48.616062,48.794636,48,110,0
48.723206,48.910706,50,110,0
48.83035,49.01785,48,110,0
48.937492,49.14285,46,110,0
48.508923,49.357136,62,110,0
48.508923,49.357136,58,110,0
48.508923,49.357136,53,110,0
49.15178,49.357136,41,110,0
49.366062,49.999992,51,110,0
49.366062,49.999992,48,110,0
49.366062,50.214275,53,110,0
50.00892,50.214275,41,110,0
50.223206,50.857132,50,110,0
50.223206,51.07142,53,110,0
50.866062,51.07142,41,110,0
51.08035,51.24999,45,110,0
51.18749,51.366062,46,110,0
51.294632,51.473206,48,110,0
51.401775,51.589275,46,110,0
51.50892,51.714275,45,110,0
51.723206,51.928562,41,110,0
51.93749,52.107132,46,110,0
52.044632,52.232132,48,110,0
52.151775,52.32142,50,110,0
52.25892,52.455345,48,110,0
52.36606,52.57142,46,110,0
52.580345,52.7857,41,110,0
52.794632,53.42856,53,110,0
52.794632,53.42856,51,110,0
52.794632,53.42856,48,110,0
53.43749,53.642845,41,110,0
53.65177,54.2857,53,110,0
53.65177,54.2857,50,110,0
54.29463,54.49999,56,110,0
54.29463,54.49999,53,110,0
54.29463,54.49999,50,110,0
54.508915,54.92856,55,110,0
54.508915,54.92856,51,110,0
56.223198,56.64284,63,110,0
56.223198,56.64284,60,110,0
56.223198,56.64284,57,110,0
56.223198,56.64284,53,110,0
57.937485,58.357124,63,110,0
57.937485,58.357124,60,110,0
57.937485,58.357124,57,110,0
57.937485,58.357124,54,110,0
59.651768,60.07141,62,100,0
59.651768,60.07141,58,100,0
59.651768,60.07141,55,100,0
60.50891,60.92855,51,100,0
60.50891,60.92855,55,100,0
60.50891,60.92855,60,100,0
61.36605,61.785694,53,100,0
61.36605,61.785694,58,100,0
61.36605,61.785694,62,100,0
62.223194,62.642838,53,100,0
62.223194,62.642838,60,100,0
62.223194,62.642838,63,100,0
63.080334,63.928547,58,100,0
63.080334,63.928547,46,100,0
63.937477,64.35712,67,100,0
64.36605,64.464264,67,100,0
64.41962,64.51784,68,100,0
64.47319,64.5714,67,100,0
64.526764,64.62498,68,100,0
64.58034,64.67855,67,100,0
64.6339,64.73212,68,100,0
64.68748,64.78569,66,100,0
64.74105,64.78569,67,100,0
64.79462,65.214264,63,100,0
65.22319,65.64283,60,100,0
65.651764,66.0714,65,100,0
66.08033,66.17854,65,100,0
66.1339,66.23212,67,100,0
66.18748,66.28569,65,100,0
66.24104,66.339264,67,100,0
66.29462,66.39283,65,100,0
66.34819,66.4464,67,100,0
66.401764,66.49998,64,100,0
66.45533,66.49998,65,100,0
66.5089,66.92854,62,100,0
66.93748,67.35712,58,100,0
67.36604,67.78569,63,100,0
67.36604,67.78569,60,100,0
67.36604,67.78569,57,100,0
67.79462,68.21426,63,100,0
67.79462,68.21426,60,100,0
67.79462,68.21426,53,100,0
68.22319,69.0714,62,100,0
68.22319,69.0714,58,100,0
69.08033,69.92854,55,100,0
69.08033,69.92854,58,100,0
69.08033,69.92854,64,100,0
69.93747,70.35712,57,100,0
69.93747,70.35712,53,100,0
70.79462,71.21426,53,100,0
71.22318,71.321396,53,100,0
71.27676,71.37497,55,100,0
71.33033,71.42854,53,100,0
71.383896,71.48211,55,100,0
71.43747,71.53568,53,100,0
71.49104,71.58926,55,100,0
71.54461,71.64283,52,100,0
71.59818,71.64283,53,100,0
71.65176,72.071396,51,100,0
72.08033,72.49997,48,100,0
72.508896,72.92854,51,100,0
72.93747,73.03568,51,100,0
72.99104,73.08926,53,100,0
73.04461,73.14282,51,100,0
73.09818,73.196396,53,100,0
73.15176,73.24997,51,100,0
73.20532,73.30354,53,100,0
73.258896,73.35711,50,100,0
73.31247,73.35711,51,100,0
73.366035,73.78568,50,100,0
73.79461,74.21426,46,100,0
74.22318,74.64282,45,100,0
74.22318,75.071396,48,100,0
74.22318,75.071396,51,100,0
74.22318,75.071396,53,100,0
74.65175,75.071396,41,100,0
75.08032,75.49997,53,80,0
75.08032,75.49997,50,80,0
75.08032,75.49997,46,80,0
75.508896,75.928535,58,80,0
75.508896,75.928535,53,80,0
75.508896,75.928535,50,80,0
75.93746,76.35711,60,80,0
75.93746,76.35711,57,80,0
75.93746,76.35711,53,80,0
76.366035,76.785675,60,80,0
76.366035,76.785675,57,80,0
76.366035,76.785675,53,80,0
76.366035,76.785675,51,80,0
76.79461,77.21425,58,80,0
76.79461,77.21425,53,80,0
76.79461,77.21425,50,80,0
77.65175,78.07139,45,110,0
77.65175,78.49996,48,110,0
77.65175,78.49996,51,110,0
77.65175,78.49996,53,110,0
78.08032,78.49996,41,110,0
78.50889,78.928535,53,80,0
78.50889,78.928535,50,80,0
78.50889,78.928535,46,80,0
78.93746,79.3571,58,83,0
78.93746,79.3571,53,83,0
78.93746,79.3571,50,83,0
79.366035,79.785675,60,87,0
79.366035,79.785675,57,87,0
79.366035,79.785675,53,87,0
79.7946,80.21425,60,90,0
79.7946,80.21425,57,90,0
79.7946,80.21425,53,90,0
79.7946,80.21425,51,90,0
80.223175,80.642815,58,94,0
80.223175,80.642815,53,94,0
80.223175,80.642815,50,94,0
81.080315,81.49996,45,110,0
81.080315,81.49996,33,110,0
81.50889,81.92853,41,110,0
81.50889,81.92853,29,110,0
81.93746,82.3571,46,110,0
81.93746,82.3571,34,110,0
82.36603,82.785675,50,110,0
82.36603,82.785675,38,110,0
82.7946,83.21424,53,110,0
82.7946,83.21424,41,110,0
83.223175,83.642815,41,110,0
83.65174,84.53793,46,100,0
89.65754,89.90973,46,80,0
89.92069,90.17289,58,80,0
90.18385,90.43604,58,80,0
90.447014,90.6992,58,80,0
90.71017,90.91553,58,80,0
90.92445,91.129814,58,80,0
91.13874,91.55838,63,80,0
91.35303,91.55838,58,80,0
91.78159,91.98695,58,80,0
91.99588,92.20124,58,80,0
91.567314,92.41553,62,80,0
92.21017,92.41553,58,80,0
92.42445,92.62981,58,80,0
92.63874,92.84409,58,80,0
92.85303,93.05838,50,80,0
93.06731,93.27267,58,80,0
93.28159,93.48695,51,80,0
93.49588,93.70124,58,80,0
93.71017,93.91552,55,80,0
93.92445,94.12981,58,80,0
94.13874,94.34409,53,80,0
94.13874,94.34409,56,80,0
94.35302,94.55838,58,80,0
94.56731,94.77267,55,80,0
94.56731,94.77267,51,80,0
94.78159,94.98695,58,80,0
94.99588,95.20123,46,80,0
95.21017,95.41552,58,80,0
95.42445,95.62981,58,80,0
95.63873,95.84409,58,80,0
95.85302,96.05838,72,80,0
95.85302,96.05838,68,80,0
96.06731,96.27267,58,80,0
96.28159,96.486946,67,80,0
96.28159,96.486946,70,80,0
96.49588,96.70123,58,80,0
96.71017,96.91552,65,80,0
96.924446,97.12981,58,80,0
97.13873,97.34409,58,80,0
96.71017,97.55838,68,80,0
97.35302,97.55838,58,80,0
97.56731,97.77266,65,80,0
97.56731,97.986946,68,80,0
97.78159,97.986946,58,80,0
97.99587,98.20123,63,80,0
97.99587,98.41552,67,80,0
98.21016,98.41552,58,80,0
98.424446,98.62981,62,80,0
98.63873,98.84409,58,80,0
98.85302,99.05837,58,80,0
98.424446,99.27266,65,80,0
99.06731,99.27266,58,80,0
99.281586,99.486946,58,80,0
99.49587,99.70123,58,80,0
99.71016,99.91552,50,80,0
99.924446,100.1298,58,80,0
100.13873,100.344086,51,80,0
100.35302,100.55837,55,80,0
100.5673,100.77266,44,80,0
100.781586,100.986946,56,80,0
100.99587,101.20123,46,80,0
101.21016,101.41551,46,80,0
101.424446,101.6298,34,80,0
101.63873,101.844086,46,80,0
101.85301,102.27266,39,80,0
102.281586,102.701225,51,80,0
102.924446,103.1298,58,100,0
103.138725,103.55837,55,100,0
103.35301,103.55837,58,100,0
103.5673,103.98694,56,100,0
103.781586,103.98694,58,100,0
103.99587,104.41551,53,100,0
104.21016,104.41551,58,100,0
104.42444,104.844086,55,100,0
104.638725,104.844086,58,100,0
104.85301,105.27265,51,100,0
105.0673,105.27265,58,100,0
105.281586,105.48694,46,100,0
105.49587,105.701225,58,100,0
105.71015,105.91551,58,100,0
105.92444,106.1298,58,100,0
106.35301,106.558365,58,100,0
106.5673,106.98694,55,100,0
106.78158,106.98694,58,100,0
106.995865,107.41551,56,100,0
107.21015,107.41551,58,100,0
107.42444,107.84408,53,100,0
107.638725,107.84408,58,100,0
107.85301,108.30506,55,100,0
108.07689,108.30506,58,100,0
108.31499,108.81718,51,100,0
108.56499,108.81718,58,100,0
108.82814,110.92244,58,80,0
108.82814,110.92244,46,80,0
110.9334,113.0277,59,110,0
110.9334,113.0277,47,110,0
113.038666,113.244026,48,110,0
113.14581,113.351166,51,110,0
113.25295,113.458305,55,110,0
113.36009,113.56545,60,110,0
113.46724,113.67259,56,110,0
113.57438,113.77974,55,110,0
113.681526,113.88688,54,110,0
113.788666,113.994026,55,110,0
113.895805,114.101166,48,110,0
114.00295,114.208305,51,110,0
114.11009,114.31545,55,110,0
114.21724,114.42259,60,110,0
114.32438,114.52974,56,110,0
114.43152,114.63688,55,110,0
114.538666,114.74402,54,110,0
114.645805,114.851166,55,110,0
114.75295,114.958305,48,110,0
114.86009,115.06545,51,110,0
114.96724,115.17259,55,110,0
115.07438,115.27974,60,110,0
115.18152,115.38688,56,110,0
115.288666,115.49402,55,110,0
115.395805,115.601166,54,110,0
115.50295,115.708305,55,110,0
115.61009,115.81545,48,110,0
115.71723,115.92259,51,110,0
115.82438,116.02973,55,110,0
115.93152,116.13688,60,110,0
116.038666,116.24402,56,110,0
116.145805,116.351166,55,110,0
116.25295,116.458305,54,110,0
116.36009,116.565445,55,110,0
116.46723,116.67259,47,110,0
116.57438,116.77973,50,110,0
116.68152,116.88688,55,110,0
116.788666,116.99402,59,110,0
116.895805,117.101166,56,110,0
117.002945,117.208305,55,110,0
117.11009,117.315445,54,110,0
117.21723,117.42259,55,110,0
117.32438,117.52973,47,110,0
117.43152,117.63688,50,110,0
117.538666,117.74402,55,110,0
117.645805,117.85116,59,110,0
117.752945,117.958305,56,110,0
117.86009,118.065445,55,110,0
117.96723,118.17259,54,110,0
118.07438,118.27973,55,110,0
118.18152,118.38688,47,110,0
118.28866,118.49402,50,110,0
118.395805,118.60116,55,110,0
118.502945,118.708305,59,110,0
118.61009,118.815445,56,110,0
118.71723,118.92259,55,110,0
118.82437,119.02973,54,110,0
118.93152,119.13687,55,110,0
119.03866,119.24402,47,110,0
119.145805,119.35116,50,110,0
119.252945,119.458305,55,110,0
119.36009,119.565445,59,110,0
119.46723,119.67259,56,110,0
119.57437,119.77973,55,110,0
119.68152,119.88687,54,110,0
119.78866,119.99402,55,110,0
119.895805,120.315445,48,110,0
120.32437,120.74402,60,110,0
120.32437,120.74402,63,110,0
120.752945,121.172585,46,110,0
121.18152,121.60116,58,110,0
121.18152,121.60116,61,110,0
121.18152,121.60116,63,110,0
121.610085,122.02973,48,110,0
122.03866,122.4583,60,110,0
122.03866,122.4583,63,110,0
122.03866,122.4583,56,110,0
122.46723,122.88687,46,110,0
122.8958,123.315445,58,110,0
122.8958,123.315445,61,110,0
122.8958,123.315445,64,110,0
122.8958,123.315445,55,110,0
123.32437,123.74401,44,110,0
123.752945,124.172585,56,110,0
123.752945,124.172585,60,110,0
123.752945,124.172585,65,110,0
124.18151,124.60116,46,110,0
124.610085,125.029724,58,110,0
124.610085,125.029724,65,110,0
124.610085,125.029724,68,110,0
125.03866,125.4583,51,110,0
125.8958,126.31544,51,110,0
125.8958,126.31544,39,110,0
126.32436,126.74401,50,110,0
126.32436,126.74401,38,110,0
126.75294,126.9583,48,110,0
126.860085,127.06544,51,110,0
126.967224,127.172585,55,110,0
127.07436,127.279724,60,110,0
127.18151,127.38686,56,110,0
127.28865,127.49401,55,110,0
127.3958,127.60115,54,110,0
127.50294,127.7083,55,110,0
127.61008,127.81544,48,110,0
127.717224,127.92258,51,110,0
127.82436,128.02972,55,110,0
127.93151,128.13687,60,110,0
128.03865,128.244,56,110,0
128.1458,128.35115,55,110,0
128.25293,128.4583,54,110,0
128.36008,128.56543,55,110,0
128.46722,128.67258,48,110,0
128.57437,128.77972,51,110,0
128.6815,128.88687,55,110,0
128.78865,128.994,60,110,0
128.8958,129.10115,56,110,0
129.00293,129.2083,55,110,0
129.11008,129.31543,54,110,0
129.21722,129.42258,55,110,0
129.32437,129.52972,48,110,0
129.4315,129.63687,51,110,0
129.53865,129.744,55,110,0
129.6458,129.85115,60,110,0
129.75293,129.9583,56,110,0
129.86008,130.06543,55,110,0
129.96722,130.17258,54,110,0
130.07437,130.27972,55,110,0
130.1815,130.38686,47,110,0
130.28865,130.494,50,110,0
130.3958,130.60115,55,110,0
130.50293,130.7083,59,110,0
130.61008,130.81543,56,110,0
130.71722,130.92258,55,110,0
130.82436,131.02972,54,110,0
130.9315,131.13686,55,110,0
131.03865,131.244,47,110,0
131.1458,131.35115,50,110,0
131.25293,131.4583,55,110,0
131.36008,131.56543,59,110,0
131.46722,131.67258,56,110,0
131.57436,131.77972,55,110,0
131.6815,131.88686,54,110,0
131.78865,131.994,55,110,0
131.8958,132.10115,47,110,0
132.00293,132.2083,50,110,0
132.11008,132.31543,55,110,0
132.21722,132.42258,59,110,0
132.32436,132.52972,56,110,0
132.4315,132.63686,55,110,0
132.53865,132.744,54,110,0
132.64578,132.85115,55,110,0
132.75293,132.95828,47,110,0
132.86008,133.06543,50,110,0
132.96722,133.17258,55,110,0
133.07436,133.27972,59,110,0
133.1815,133.38686,56,110,0
133.28865,133.494,55,110,0
133.39578,133.60115,54,110,0
133.50293,133.70828,55,110,0
133.61008,134.02972,48,110,0
134.03865,134.45828,60,110,0
134.03865,134.45828,63,110,0
134.46722,134.88686,46,110,0
134.89578,135.31543,58,110,0
134.89578,135.31543,61,110,0
134.89578,135.31543,63,110,0
135.32436,135.744,48,110,0
135.75293,136.17258,60,110,0
135.75293,136.17258,63,110,0
135.75293,136.17258,56,110,0
136.1815,136.60115,46,110,0
136.61008,137.02971,58,110,0
136.61008,137.02971,61,110,0
136.61008,137.02971,64,110,0
136.61008,137.02971,55,110,0
137.03864,137.45828,44,110,0
137.46721,137.88686,56,110,0
137.46721,137.88686,60,110,0
137.46721,137.88686,65,110,0
137.89578,138.31543,46,110,0
138.32436,138.744,58,110,0
138.32436,138.744,65,110,0
138.32436,138.744,68,110,0
138.75293,139.17256,51,110,0
139.61006,140.02971,51,110,0
139.61006,140.02971,39,110,0
140.03864,140.45828,49,110,0
140.03864,140.45828,37,110,0
140.46721,140.67256,36,110,0
140.57436,140.77971,40,110,0
140.6815,140.88686,43,110,0
140.78864,140.994,48,110,0
140.89578,141.10114,49,110,0
141.00293,141.20828,48,110,0
141.11006,141.31543,47,110,0
141.21721,141.42256,48,110,0
141.32436,141.52971,36,110,0
141.43149,141.63686,40,110,0
141.53864,141.74399,43,110,0
141.64578,141.85114,48,110,0
141.75293,141.95828,49,110,0
141.86006,142.06543,48,110,0
141.96721,142.17256,47,110,0
142.07436,142.27971,48,110,0
142.18149,142.38686,36,110,0
142.28864,142.49399,40,110,0
142.39578,142.60114,43,110,0
142.50293,142.70828,48,110,0
142.61006,142.81543,49,110,0
142.71721,142.92256,48,110,0
142.82436,143.02971,47,110,0
142.93149,143.13686,48,110,0
143.03864,143.24399,36,110,0
143.14578,143.35114,40,110,0
143.25291,143.45828,43,110,0
143.36006,143.56541,48,110,0
143.46721,143.67256,49,110,0
143.57436,143.77971,48,110,0
143.68149,143.88686,47,110,0
143.78864,143.99399,48,110,0
143.89578,144.10114,41,110,0
144.00291,144.20828,44,110,0
144.11006,144.31541,48,110,0
144.21721,144.42256,53,110,0
144.32436,144.52971,55,110,0
144.43149,144.63686,53,110,0
144.53864,144.74399,52,110,0
144.64578,144.85114,53,110,0
144.75291,144.95828,41,110,0
144.86006,145.06541,44,110,0
144.96721,145.17256,48,110,0
145.07436,145.27971,53,110,0
145.18149,145.38684,55,110,0
145.28864,145.49399,53,110,0
145.39578,145.60114,52,110,0
145.50291,145.70828,53,110,0
145.61006,145.81541,42,110,0
145.71721,145.92256,45,110,0
145.82434,146.02971,48,110,0
145.93149,146.13684,54,110,0
146.03864,146.24399,55,110,0
146.14578,146.35114,54,110,0
146.25291,146.45828,55,110,0
146.36006,146.56541,54,110,0
146.46721,146.67256,42,110,0
146.57434,146.77971,45,110,0
146.68149,146.88684,48,110,0
146.78864,146.99399,54,110,0
146.89578,147.10114,55,110,0
147.00291,147.20828,54,110,0
147.11006,147.31541,55,110,0
147.21721,147.42256,54,110,0
147.32434,147.74399,43,110,0
148.61006,149.02971,62,110,0
149.03864,149.45827,60,110,0
149.46721,149.88684,67,110,0
149.89577,150.31541,63,110,0
147.75291,150.74399,55,110,0
150.32434,150.74399,60,110,0
152.03862,152.88684,47,110,0
151.18149,152.88684,55,110,0
153.32434,153.74399,51,110,0
150.75291,154.17255,43,110,0
153.75291,154.17255,48,110,0
152.89577,154.60112,55,110,0
154.18149,154.60112,43,110,0
155.89577,156.10112,36,110,0
156.00291,156.20827,39,110,0
156.11005,156.31541,43,110,0
156.2172,156.42255,48,110,0
156.32434,156.5297,50,110,0
156.43147,156.63684,48,110,0
156.53862,156.74397,47,110,0
156.64577,156.85112,48,110,0
156.75291,156.95827,36,110,0
156.86005,157.06541,39,110,0
156.9672,157.17255,43,110,0
157.07434,157.2797,48,110,0
157.18147,157.38684,50,110,0
157.28862,157.49397,48,110,0
157.39577,157.60112,47,110,0
157.50291,157.70827,48,110,0
157.61005,157.81541,36,110,0
157.7172,157.92255,39,110,0
157.82434,158.0297,43,110,0
157.93147,158.13684,48,110,0
158.03862,158.24397,50,110,0
158.14577,158.35112,48,110,0
158.25291,158.45827,47,110,0
158.36005,158.5654,48,110,0
158.4672,158.67255,36,110,0
158.57434,158.7797,39,110,0
158.68147,158.88684,43,110,0
158.78862,158.99397,48,110,0
158.89577,159.10112,50,110,0
159.0029,159.20827,48,110,0
159.11005,159.3154,47,110,0
159.2172,159.42255,48,110,0
159.32434,160.17255,46,120,0
159.32434,160.17255,34,120,0
160.61005,161.0297,58,120,0
160.61005,161.0297,55,120,0
160.61005,161.0297,52,120,0
160.61005,161.0297,46,120,0
161.03862,161.88683,46,120,0
161.03862,161.88683,34,120,0
162.32433,162.74397,58,120,0
162.32433,162.74397,55,120,0
162.32433,162.74397,52,120,0
162.32433,162.74397,46,120,0
162.7529,163.17255,56,120,0
162.7529,163.17255,53,120,0
162.7529,163.17255,48,120,0
162.7529,163.17255,44,120,0
163.61005,163.8154,53,110,0
163.7172,163.92255,56,110,0
163.82433,164.0297,60,110,0
163.93147,164.13683,65,110,0
164.03862,164.24397,67,110,0
164.14575,164.35112,65,110,0
164.2529,164.45825,64,110,0
164.36005,164.5654,65,110,0
164.4672,164.67255,50,110,0
164.57433,164.7797,53,110,0
164.68147,164.88683,59,110,0
164.78862,164.99397,62,110,0
164.89575,165.10112,63,110,0
165.0029,165.20825,62,110,0
165.11005,165.3154,61,110,0
165.21718,165.42255,62,110,0
165.32433,165.52968,47,110,0
165.43147,165.63683,50,110,0
165.53862,165.74397,55,110,0
165.64575,165.85112,59,110,0
165.7529,165.95825,60,110,0
165.86005,166.0654,59,110,0
165.96718,166.17255,58,110,0
166.07433,166.27968,59,110,0
166.18147,166.60112,60,110,0
166.18147,166.60112,55,110,0
166.18147,166.60112,51,110,0
166.18147,166.60112,48,110,0
166.61005,167.02968,62,110,0
166.61005,167.02968,53,110,0
166.61005,167.02968,56,110,0
167.03862,167.45825,63,110,0
167.03862,167.45825,60,110,0
167.03862,167.45825,55,110,0
167.46718,167.88683,55,110,0
167.46718,167.88683,59,110,0
167.46718,167.88683,62,110,0
167.89575,168.3154,60,110,0
167.89575,168.3154,55,110,0
167.89575,168.3154,51,110,0
167.89575,168.3154,48,110,0
168.96718,169.17255,47,110,0
169.07433,169.27968,48,110,0
169.18147,169.38683,47,110,0
169.2886,169.49397,48,110,0
169.39575,169.6011,47,110,0
169.5029,169.6011,48,110,0
169.61003,169.8154,36,110,0
169.71718,169.92253,40,110,0
169.82433,170.02968,43,110,0
169.93147,170.13683,48,110,0
170.0386,170.24397,49,110,0
170.14575,170.3511,48,110,0
170.2529,170.45825,47,110,0
170.36003,170.5654,48,110,0
170.46718,170.67253,36,110,0
170.57433,170.77968,40,110,0
170.68147,170.88683,43,110,0
170.7886,170.99397,48,110,0
170.89575,171.1011,49,110,0
171.0029,171.20825,48,110,0
171.11003,171.3154,47,110,0
171.21718,171.42253,48,110,0
171.32433,171.52968,36,110,0
171.43147,171.63683,40,110,0
171.5386,171.74396,43,110,0
171.64575,171.8511,48,110,0
171.7529,171.95825,49,110,0
171.86003,172.0654,48,110,0
171.96718,172.17253,47,110,0
172.07433,172.27968,48,110,0
172.18146,172.38683,36,110,0
172.2886,172.49396,40,110,0
172.39575,172.6011,43,110,0
172.5029,172.70825,48,110,0
172.61003,172.8154,49,110,0
172.71718,172.92253,48,110,0
172.82433,173.02968,47,110,0
172.93146,173.13683,48,110,0
173.0386,173.24396,41,110,0
173.14575,173.3511,44,110,0
173.2529,173.45825,48,110,0
173.36003,173.5654,53,110,0
173.46718,173.67253,55,110,0
173.57433,173.77968,53,110,0
173.68146,173.88683,52,110,0
173.7886,173.99396,53,110,0
173.89575,174.1011,41,110,0
174.00288,174.20825,44,110,0
174.11003,174.31538,48,110,0
174.21718,174.42253,53,110,0
174.32433,174.52968,55,110,0
174.43146,174.63683,53,110,0
174.5386,174.74396,52,110,0
174.64575,174.8511,53,110,0
174.75288,174.95825,42,110,0
174.86003,175.06538,45,110,0
174.96718,175.17253,48,110,0
175.07433,175.27968,54,110,0
175.18146,175.38683,55,110,0
175.2886,175.49396,54,110,0
175.39575,175.6011,55,110,0
175.50288,175.70825,54,110,0
175.61003,175.81538,42,110,0
175.71718,175.92253,45,110,0
175.82433,176.02968,48,110,0
175.93146,176.13681,54,110,0
176.0386,176.24396,55,110,0
176.14575,176.3511,54,110,0
176.25288,176.45825,55,110,0
176.36003,176.56538,54,110,0
176.46718,176.88681,43,110,0
177.75288,178.17253,62,110,0
178.18146,178.6011,60,110,0
178.61003,179.02968,67,110,0
179.0386,179.45824,63,110,0
176.89575,179.88681,55,110,0
179.46718,179.88681,60,110,0
181.18146,182.02966,47,110,0
180.32431,182.02966,55,110,0
182.46716,182.88681,51,110,0
179.89574,183.31538,43,110,0
182.89574,183.31538,48,110,0
182.0386,183.74396,55,110,0
183.32431,183.74396,43,110,0
185.03859,185.24396,36,110,0
185.14574,185.35109,39,110,0
185.25288,185.45824,43,110,0
185.36002,185.56538,48,110,0
185.46716,185.67252,50,110,0
185.57431,185.77966,48,110,0
185.68146,185.88681,47,110,0
185.78859,185.99396,48,110,0
185.89574,186.10109,36,110,0
186.00288,186.20824,39,110,0
186.11002,186.31538,43,110,0
186.21716,186.42252,48,110,0
186.32431,186.52966,50,110,0
186.43146,186.63681,48,110,0
186.53859,186.74396,47,110,0
186.64574,186.85109,48,110,0
186.75288,186.95824,36,110,0
186.86002,187.06538,39,110,0
186.96716,187.17252,43,110,0
187.07431,187.27966,48,110,0
187.18144,187.38681,50,110,0
187.28859,187.49394,48,110,0
187.39574,187.60109,47,110,0
187.50288,187.70824,48,110,0
187.61002,187.81538,36,110,0
187.71716,187.92252,39,110,0
187.82431,188.02966,43,110,0
187.93144,188.13681,48,110,0
188.03859,188.24394,50,110,0
188.14574,188.35109,48,110,0
188.25288,188.45824,47,110,0
188.36002,188.56538,48,110,0
188.46716,189.31537,46,120,0
188.46716,189.31537,34,120,0
189.75287,190.17252,58,120,0
189.75287,190.17252,55,120,0
189.75287,190.17252,52,120,0
189.75287,190.17252,46,120,0
190.18144,191.02966,46,120,0
190.18144,191.02966,34,120,0
191.46716,191.8868,58,120,0
191.46716,191.8868,55,120,0
191.46716,191.8868,52,120,0
191.46716,191.8868,46,120,0
191.89574,192.31537,56,120,0
191.89574,192.31537,53,120,0
191.89574,192.31537,48,120,0
191.89574,192.31537,44,120,0
192.75287,192.95824,53,110,0
192.86002,193.06537,56,110,0
192.96716,193.17252,60,110,0
193.0743,193.27966,65,110,0
193.18144,193.3868,67,110,0
193.28859,193.49394,65,110,0
193.39572,193.60109,64,110,0
193.50287,193.70822,65,110,0
193.61002,193.81537,50,110,0
193.71716,193.92252,53,110,0
193.8243,194.02966,59,110,0
193.93144,194.1368,62,110,0
194.03859,194.24394,63,110,0
194.14572,194.35109,62,110,0
194.25287,194.45822,61,110,0
194.36002,194.56537,62,110,0
194.46716,194.67252,47,110,0
194.5743,194.77966,50,110,0
194.68144,194.8868,55,110,0
194.78859,194.99394,59,110,0
194.89572,195.10109,60,110,0
195.00287,195.20822,59,110,0
195.11002,195.31537,58,110,0
195.21716,195.42252,59,110,0
195.3243,195.74394,60,110,0
195.3243,195.74394,55,110,0
195.3243,195.74394,51,110,0
195.3243,195.74394,48,110,0
195.75287,196.17252,62,110,0
195.75287,196.17252,53,110,0
195.75287,196.17252,56,110,0
196.18144,196.60109,63,110,0
196.18144,196.60109,60,110,0
196.18144,196.60109,55,110,0
196.61002,197.02965,55,110,0
196.61002,197.02965,59,110,0
196.61002,197.02965,62,110,0
197.89572,198.10107,56,110,0
198.00287,198.20822,60,110,0
198.11002,198.31537,65,110,0
198.21715,198.42252,68,110,0
198.3243,198.52965,70,110,0
198.43144,198.6368,68,110,0
198.53857,198.74394,67,110,0
198.64572,198.85107,68,110,0
198.75287,198.95822,53,110,0
198.86002,199.06537,56,110,0
198.96715,199.17252,60,110,0
199.0743,199.27965,65,110,0
199.18144,199.3868,67,110,0
199.28857,199.49394,65,110,0
199.39572,199.60107,64,110,0
199.50287,199.70822,65,110,0
199.61002,199.81537,50,110,0
199.71715,199.9225,53,110,0
199.8243,200.02965,59,110,0
199.93144,200.1368,62,110,0
200.03857,200.24394,63,110,0
200.14572,200.35107,62,110,0
200.25287,200.45822,61,110,0
200.36,200.56537,62,110,0
200.46715,200.8868,47,110,0
204.02759,204.51717,46,87,0
204.02759,204.51717,34,87,0
208.20941,208.44899,46,80,0
208.45941,208.69899,58,80,0
208.70941,208.93056,58,80,0
208.94017,209.16133,58,80,0
209.17094,209.3763,58,80,0
209.38522,209.59059,58,80,0
209.59952,210.01915,63,80,0
209.8138,210.01915,58,80,0
210.24237,210.44772,58,80,0
210.45665,210.66202,58,80,0
210.02809,210.8763,62,80,0
210.67094,210.8763,58,80,0
210.88522,211.09058,58,80,0
211.09952,211.30487,58,80,0
211.3138,211.51915,50,80,0
211.52808,211.73344,58,80,0
211.74237,211.94772,51,80,0
211.95665,212.16202,58,80,0
212.17094,212.3763,55,80,0
212.38522,212.59058,58,80,0
212.59952,212.80487,53,80,0
212.59952,212.80487,56,80,0
212.8138,213.01915,58,80,0
213.02808,213.23344,55,80,0
213.02808,213.23344,51,80,0
213.24237,213.44772,58,80,0
213.45665,213.662,46,80,0
213.67094,213.8763,58,80,0
213.88522,214.09058,58,80,0
214.0995,214.30487,58,80,0
214.3138,214.51915,72,80,0
214.3138,214.51915,68,80,0
214.52808,214.73344,58,80,0
214.74237,214.94772,67,80,0
214.74237,214.94772,70,80,0
214.95665,215.162,58,80,0
215.17093,215.3763,65,80,0
215.38522,215.59058,58,80,0
215.5995,215.80487,58,80,0
215.17093,216.01915,68,80,0
215.8138,216.01915,58,80,0
216.02808,216.23343,65,80,0
216.02808,216.44772,68,80,0
216.24237,216.44772,58,80,0
216.45665,216.662,63,80,0
216.45665,216.8763,67,80,0
216.67093,216.8763,58,80,0
216.88522,217.09058,62,80,0
217.0995,217.30486,58,80,0
217.3138,217.51915,58,80,0
216.88522,217.73343,65,80,0
217.52808,217.73343,58,80,0
217.74236,217.94772,58,80,0
217.95665,218.162,58,80,0
218.17093,218.3763,50,80,0
218.38522,218.59058,58,80,0
218.5995,218.80486,51,80,0
218.8138,219.01915,55,80,0
219.02808,219.23343,44,80,0
219.24236,219.44772,56,80,0
219.45665,219.662,46,80,0
219.67093,219.87628,46,80,0
219.88522,220.09058,34,80,0
220.0995,220.30486,46,80,0
220.31378,220.73343,39,80,0
220.74236,221.162,51,80,0
221.38522,221.59058,58,80,0
221.5995,222.01915,55,81,0
221.81378,222.01915,58,82,0
222.02808,222.44771,56,83,0
222.24236,222.44771,58,84,0
222.45665,222.87628,53,85,0
222.67093,222.87628,58,86,0
222.88521,223.30486,55,87,0
223.0995,223.30486,58,88,0
223.31378,223.73343,51,89,0
223.52808,223.73343,58,90,0
223.74236,223.94771,46,91,0
223.95663,224.162,58,92,0
224.17093,224.37628,58,93,0
224.38521,224.59058,58,94,0
224.81378,225.01913,58,96,0
225.02808,225.44771,55,97,0
225.24236,225.44771,58,98,0
225.45663,225.87628,56,99,0
225.67093,225.87628,58,100,0
225.88521,226.30486,53,101,0
226.0995,226.30486,58,102,0
226.31378,226.76584,55,103,0
226.53766,226.76584,58,104,0
226.77576,227.27795,51,105,0
227.02576,227.27795,58,106,0
227.28891,230.43584,46,107,0
227.28891,230.43584,58,107,0
230.44681,230.65216,72,100,0
230.44681,230.65216,68,100,0
230.66109,230.86646,58,100,0
230.87538,231.08073,67,100,0
230.87538,231.08073,70,100,0
231.08966,231.29503,58,100,0
231.30396,231.50931,65,100,0
231.51823,231.72359,58,100,0
231.73253,231.93788,58,100,0
231.30396,232.15216,68,100,0
231.94681,232.15216,58,100,0
232.16109,232.36646,65,100,0
232.16109,232.58073,68,100,0
232.37538,232.58073,58,100,0
232.58966,232.79501,63,100,0
232.58966,233.00931,67,100,0
232.80396,233.00931,58,100,0
233.01823,233.22359,62,100,0
233.23251,233.43788,58,100,0
233.44681,233.65216,58,100,0
233.01823,233.86646,65,100,0
233.66109,233.86646,58,100,0
233.87538,234.08073,58,100,0
234.08966,234.29501,58,100,0
234.30396,234.50931,50,100,0
234.30396,234.50931,62,100,0
234.51823,234.72359,58,100,0
234.73251,234.93788,51,100,0
234.73251,234.93788,63,100,0
234.94681,235.15216,55,100,0
235.16109,235.36644,44,100,0
235.37538,235.58073,56,100,0
235.58966,235.79501,46,100,0
235.80394,236.00931,58,100,0
236.01823,236.22359,34,100,0
236.23251,236.43788,46,100,0
236.44681,236.86644,39,100,0
236.87537,237.29501,51,100,0
237.30394,237.46466,31,111,0
237.41109,237.57181,34,111,0
237.51823,237.68787,39,111,0
237.51823,237.72359,58,100,0
237.62537,237.80394,43,112,0
237.73251,237.89323,46,110,0
237.73251,237.93787,58,100,0
237.83966,238.00931,51,110,0
237.94681,238.12537,55,111,0
237.94681,238.15216,58,100,0
238.05394,238.15216,53,110,0
238.16109,238.36644,56,100,0
238.16109,238.36644,58,100,0
238.16109,238.58073,51,110,0
238.37537,238.58073,56,100,0
238.37537,238.58073,58,100,0
238.58966,238.79501,56,100,0
238.58966,238.79501,58,100,0
238.58966,239.0093,50,110,0
238.80394,239.0093,56,100,0
238.80394,239.0093,58,100,0
239.01823,239.22359,55,100,0
239.01823,239.22359,58,100,0
239.23251,239.43787,55,100,0
239.23251,239.43787,58,100,0
239.4468,239.65216,55,100,0
239.4468,239.65216,58,100,0
239.66109,239.86644,55,100,0
239.66109,239.86644,58,100,0
239.87537,240.08073,56,100,0
239.87537,240.08073,58,100,0
240.08966,240.29501,56,100,0
240.08966,240.29501,58,100,0
240.30394,240.5093,56,100,0
240.30394,240.5093,58,100,0
240.51823,240.72359,56,100,0
240.51823,240.72359,58,100,0
240.73251,240.91109,31,112,0
240.73251,240.93787,55,100,0
240.73251,240.93787,58,100,0
240.83966,241.02716,34,110,0
240.9468,241.11644,39,112,0
240.9468,241.15216,55,100,0
240.9468,241.15216,58,100,0
241.05394,241.24144,43,111,0
241.16109,241.33072,46,111,0
241.16109,241.36644,55,100,0
241.16109,241.36644,58,100,0
241.26822,241.4468,51,110,0
241.37537,241.58072,55,110,0
241.37537,241.58072,58,100,0
241.48251,241.58072,53,110,0
241.58966,241.79501,56,100,0
241.58966,241.79501,58,100,0
241.58966,242.0093,51,111,0
241.80394,242.0093,56,100,0
241.80394,242.0093,58,100,0
242.01822,242.22359,56,100,0
242.01822,242.22359,58,100,0
242.01822,242.43787,50,110,0
242.23251,242.43787,56,100,0
242.23251,242.43787,58,100,0
242.4468,242.65216,55,100,0
242.4468,242.65216,58,100,0
242.66109,242.86644,55,100,0
242.66109,242.86644,58,100,0
242.87537,243.08072,55,100,0
242.87537,243.08072,58,100,0
243.08966,243.29501,55,100,0
243.08966,243.29501,58,100,0
243.30394,243.5093,55,100,0
243.30394,243.5093,58,100,0
243.30394,243.5093,60,100,0
243.51822,243.72359,55,100,0
243.51822,243.72359,58,100,0
243.51822,243.72359,60,100,0
243.73251,243.93787,56,100,0
243.73251,243.93787,60,100,0
243.9468,244.15215,56,100,0
243.9468,244.15215,60,100,0
244.16109,244.36644,56,100,0
244.16109,244.36644,60,100,0
244.26822,244.43787,36,110,0
244.37537,244.53609,41,110,0
244.37537,244.58072,56,100,0
244.37537,244.58072,60,100,0
244.48251,244.67001,44,110,0
244.58965,244.77715,48,110,0
244.58965,244.79501,56,100,0
244.58965,244.79501,60,100,0
244.6968,244.90215,53,110,0
244.80394,245.0093,56,110,0
244.80394,245.0093,60,100,0
244.91109,245.0093,55,110,0
245.01822,245.22359,58,100,0
245.01822,245.22359,60,100,0
245.01822,245.43787,53,110,0
245.23251,245.43787,58,100,0
245.23251,245.43787,60,100,0
245.4468,245.65215,58,100,0
245.4468,245.65215,60,100,0
245.4468,245.86644,52,110,0
245.66107,245.86644,58,100,0
245.66107,245.86644,60,100,0
245.87537,246.08072,56,100,0
245.87537,246.08072,60,100,0
246.08965,246.29501,56,100,0
246.08965,246.29501,60,100,0
246.30394,246.5093,56,100,0
246.30394,246.5093,60,100,0
246.51822,246.72357,56,100,0
246.51822,246.72357,60,100,0
246.73251,246.93787,58,100,0
246.73251,246.93787,60,100,0
246.9468,247.15215,58,100,0
246.9468,247.15215,60,100,0
247.16107,247.36644,58,100,0
247.16107,247.36644,60,100,0
247.37537,247.58072,58,100,0
247.37537,247.58072,60,100,0
247.58965,247.795,56,100,0
247.58965,247.795,60,100,0
247.80394,248.0093,56,100,0
247.80394,248.0093,60,100,0
247.80394,248.0093,41,100,0
248.01822,248.22357,56,100,0
248.01822,248.22357,60,100,0
248.01822,248.22357,41,100,0
248.2325,248.43787,56,100,0
248.2325,248.43787,60,100,0
248.2325,248.43787,41,100,0
248.4468,248.545,40,100,0
248.4468,248.65215,58,100,0
248.4468,248.65215,60,100,0
248.55394,248.65215,41,100,0
248.66107,248.7593,43,100,0
248.66107,248.86644,58,100,0
248.66107,248.86644,60,100,0
248.76822,248.86644,41,100,0
248.87537,249.08072,58,100,0
248.87537,249.08072,60,100,0
248.87537,249.295,40,100,0
249.08965,249.295,58,100,0
249.08965,249.295,60,100,0
249.30394,249.5093,56,100,0
249.30394,249.5093,60,100,0
249.51822,249.72357,56,100,0
249.51822,249.72357,60,100,0
249.51822,249.72357,65,100,0
249.7325,249.93787,56,100,0
249.7325,249.93787,60,100,0
249.7325,249.93787,65,100,0
249.9468,250.15215,56,100,0
249.9468,250.15215,60,100,0
249.9468,250.15215,65,100,0
250.16107,250.36642,58,100,0
250.16107,250.36642,60,100,0
250.16107,250.36642,67,100,0
250.37537,250.58072,58,100,0
250.37537,250.58072,60,100,0
250.37537,250.58072,67,100,0
250.58965,250.795,58,100,0
250.58965,250.795,60,100,0
250.58965,250.795,67,100,0
250.80392,251.0093,58,100,0
250.80392,251.0093,60,100,0
250.80392,251.0093,67,100,0
251.01822,251.22357,56,100,0
251.01822,251.22357,60,100,0
251.01822,251.22357,65,100,0
251.2325,251.43787,56,100,0
251.2325,251.43787,60,100,0
251.2325,251.43787,65,100,0
251.2325,251.43787,41,100,0
251.4468,251.65215,56,100,0
251.4468,251.65215,60,100,0
251.4468,251.65215,65,100,0
251.4468,251.65215,41,100,0
251.66107,251.86642,56,100,0
251.66107,251.86642,60,100,0
251.66107,251.86642,65,100,0
251.66107,251.86642,41,100,0
251.87537,252.08072,38,100,0
251.87537,252.08072,56,100,0
251.87537,252.08072,58,100,0
251.87537,252.08072,65,100,0
251.9825,252.18785,39,100,0
252.08965,252.28607,41,100,0
252.08965,252.295,56,100,0
252.08965,252.295,58,100,0
252.08965,252.295,65,100,0
252.1968,252.3843,39,100,0
252.30392,252.5093,56,100,0
252.30392,252.5093,58,100,0
252.30392,252.5093,65,100,0
252.30392,252.72357,38,100,0
252.51822,252.72357,56,100,0
252.51822,252.72357,58,100,0
252.51822,252.72357,65,100,0
252.7325,252.93785,55,100,0
252.7325,252.93785,58,100,0
252.7325,252.93785,63,100,0
252.9468,253.15215,55,100,0
252.9468,253.15215,58,100,0
252.9468,253.15215,63,100,0
253.16107,253.36642,55,100,0
253.16107,253.36642,58,100,0
253.16107,253.36642,63,100,0
253.37535,253.58072,55,100,0
253.37535,253.58072,58,100,0
253.37535,253.58072,63,100,0
253.58965,253.795,56,100,0
253.58965,253.795,58,100,0
253.58965,253.795,65,100,0
253.80392,254.0093,56,100,0
253.80392,254.0093,58,100,0
253.80392,254.0093,65,100,0
254.01822,254.22357,56,100,0
254.01822,254.22357,58,100,0
254.01822,254.22357,65,100,0
254.2325,254.43785,56,100,0
254.2325,254.43785,58,100,0
254.2325,254.43785,65,100,0
254.44678,254.65215,55,110,0
254.44678,254.65215,58,110,0
254.44678,254.65215,63,110,0
254.66107,254.86642,55,110,0
254.66107,254.86642,58,110,0
254.66107,254.86642,63,110,0
254.66107,254.86642,39,110,0
254.87535,255.08072,55,110,0
254.87535,255.08072,58,110,0
254.87535,255.08072,63,110,0
254.87535,255.08072,39,110,0
255.08965,255.295,55,110,0
255.08965,255.295,58,110,0
255.08965,255.295,63,110,0
255.08965,255.295,39,110,0
255.30392,255.47357,38,110,0
255.41107,255.61642,39,110,0
255.51822,255.70572,41,110,0
255.62535,255.82178,39,110,0
255.7325,255.93785,38,110,0
255.94678,256.15213,34,110,0
256.16107,256.36642,39,110,0
256.26822,256.44678,41,110,0
256.37537,256.55392,43,110,0
256.48248,256.68787,41,110,0
256.58963,256.79498,39,110,0
256.80392,257.00928,34,110,0
257.01822,257.86642,50,110,0
257.01822,257.86642,46,110,0
257.01822,257.86642,44,110,0
257.01822,257.86642,41,110,0
257.87537,258.50928,51,110,0
257.87537,258.50928,46,110,0
257.87537,258.50928,43,110,0
258.51822,258.72357,46,110,0
258.73248,258.91107,50,110,0
258.83963,259.04498,51,110,0
258.94678,259.12537,53,110,0
259.05392,259.20572,51,110,0
259.16107,259.36642,50,110,0
259.37537,259.58072,46,110,0
259.58963,259.78607,51,110,0
259.69678,259.88428,53,110,0
259.80392,259.99142,55,110,0
259.91107,260.09857,53,110,0
260.01822,260.22357,51,110,0
260.23248,260.43784,46,110,0
260.44678,261.29498,62,110,0
260.44678,261.29498,58,110,0
260.44678,261.29498,56,110,0
260.44678,261.29498,53,110,0
261.30392,261.93784,63,110,0
261.30392,261.93784,58,110,0
261.30392,261.93784,55,110,0
261.94678,262.15213,61,110,0
261.94678,262.15213,58,110,0
261.94678,262.15213,55,110,0
262.16107,262.58072,60,110,0
262.16107,262.58072,56,110,0
263.87534,264.29498,58,100,0
263.87534,264.29498,62,100,0
265.58963,266.00928,59,70,0
265.58963,266.00928,62,70,0
265.58963,266.00928,65,70,0
265.58963,266.00928,68,70,0
267.30392,267.72357,60,70,0
267.30392,267.72357,63,70,0
267.30392,267.72357,67,70,0
268.16107,268.5807,56,70,0
268.16107,268.5807,60,70,0
268.16107,268.5807,65,70,0
269.0182,269.43784,67,70,0
269.0182,269.43784,63,70,0
269.0182,269.43784,58,70,0
269.87534,270.29498,58,70,0
269.87534,270.29498,46,70,0
270.30392,270.40213,72,70,0
270.73248,271.5807,51,70,0
270.73248,271.5807,39,70,0
271.58963,272.00928,72,100,0
272.0182,272.11642,72,100,0
272.07178,272.16998,73,100,0
272.12534,272.22354,72,100,0
272.17892,272.27713,73,100,0
272.23248,272.3307,72,100,0
272.28604,272.38428,73,100,0
272.33963,272.43784,71,100,0
272.3932,272.43784,72,100,0
272.44678,272.8664,68,100,0
272.87534,273.29498,65,100,0
273.3039,273.72354,70,100,0
273.73248,273.8307,70,100,0
273.78604,273.88428,72,100,0
273.83963,273.93784,70,100,0
273.8932,273.9914,72,100,0
273.94678,274.04498,70,100,0
274.00034,274.09854,72,100,0
274.0539,274.15213,69,100,0
274.10748,274.15213,70,100,0
274.16104,274.5807,67,100,0
274.58963,275.00928,63,100,0
275.0182,275.43784,68,100,0
275.0182,275.43784,65,100,0
275.0182,275.43784,62,100,0
275.44678,275.8664,68,100,0
275.44678,275.8664,65,100,0
275.44678,275.8664,58,100,0
275.87534,276.72354,63,100,0
275.87534,276.72354,67,100,0
276.73248,277.5807,60,100,0
276.73248,277.5807,63,100,0
276.73248,277.5807,69,100,0
277.58963,278.00925,58,100,0
277.58963,278.00925,62,100,0
278.44675,278.8664,58,110,0
278.87534,278.97354,58,110,0
278.9289,279.02713,60,110,0
278.98248,279.0807,58,110,0
279.03604,279.13425,60,110,0
279.08963,279.18784,58,110,0
279.1432,279.2414,60,110,0
279.19675,279.29498,57,110,0
279.25034,279.29498,58,110,0
279.3039,279.72354,56,110,0
279.73248,280.15213,53,110,0
280.16104,280.5807,56,110,0
280.58963,280.68784,56,110,0
280.6432,280.7414,58,110,0
280.69675,280.79498,56,110,0
280.75034,280.84854,58,110,0
280.8039,280.90213,56,110,0
280.85748,280.9557,58,110,0
280.91104,281.00925,55,110,0
280.96463,281.00925,56,110,0
281.0182,281.43784,55,110,0
281.44675,281.8664,51,110,0
281.87534,282.29498,50,110,0
281.87534,282.72354,53,110,0
281.87534,282.72354,56,110,0
281.87534,282.72354,58,110,0
282.3039,282.72354,46,110,0
282.73248,283.1521,51,80,0
282.73248,283.1521,55,80,0
282.73248,283.1521,58,80,0
283.16104,283.5807,55,80,0
283.16104,283.5807,58,80,0
283.16104,283.5807,63,80,0
283.5896,284.00925,58,80,0
283.5896,284.00925,65,80,0
283.5896,284.00925,62,80,0
284.0182,284.43784,56,80,0
284.0182,284.43784,58,80,0
284.0182,284.43784,62,80,0
284.0182,284.43784,65,80,0
284.44675,284.8664,63,80,0
284.44675,284.8664,58,80,0
284.44675,284.8664,55,80,0
285.3039,285.72354,50,110,0
285.3039,286.1521,53,110,0
285.3039,286.1521,56,110,0
285.3039,286.1521,58,110,0
285.73248,286.1521,46,110,0
286.16104,286.5807,51,80,0
286.16104,286.5807,55,80,0
286.16104,286.5807,58,80,0
286.5896,287.00925,55,80,0
286.5896,287.00925,58,80,0
286.5896,287.00925,63,80,0
287.0182,287.43784,58,80,0
287.0182,287.43784,62,80,0
287.0182,287.43784,65,80,0
287.44675,287.8664,56,80,0
287.44675,287.8664,58,80,0
287.44675,287.8664,62,80,0
287.44675,287.8664,65,80,0
287.87534,288.29495,58,80,0
287.87534,288.29495,55,80,0
287.87534,288.29495,63,80,0
288.73245,289.1521,50,110,0
288.73245,289.1521,38,110,0
289.16104,289.5807,46,110,0
289.16104,289.5807,34,110,0
289.5896,290.4378,39,110,0
289.5896,290.4378,51,110,0
290.44675,291.29495,48,110,0
290.44675,291.29495,36,110,0
294.73245,294.9378,65,80,0
294.94675,295.1521,58,80,0
295.16104,295.3664,58,80,0
294.73245,295.58066,68,80,0
295.3753,295.58066,58,80,0
295.5896,295.79495,65,80,0
295.5896,296.00925,68,80,0
295.8039,296.00925,58,80,0
296.01816,296.22354,63,80,0
296.01816,296.4378,67,80,0
296.23245,296.4378,58,80,0
296.44675,296.6521,62,80,0
296.66104,296.8664,58,80,0
296.8753,297.08066,58,80,0
297.0896,297.29495,58,80,0
297.3039,297.50925,58,80,0
296.44675,297.72354,65,80,0
297.51816,297.72354,58,80,0
297.73245,297.9378,62,80,0
297.73245,298.1521,50,80,0
297.94675,298.1521,58,80,0
298.16104,298.3664,63,80,0
298.16104,298.58066,51,80,0
298.3753,298.58066,58,80,0
298.5896,298.79495,67,80,0
298.5896,299.00925,55,80,0
298.8039,299.00925,58,80,0
299.01816,299.2235,65,80,0
299.01816,299.4378,53,80,0
299.23245,299.4378,58,80,0
299.44675,299.6521,63,80,0
299.44675,299.8664,51,80,0
299.661,299.8664,58,80,0
299.8753,300.08066,46,80,0
300.0896,300.29495,58,80,0
300.3039,300.50925,58,80,0
300.51816,300.7235,58,80,0
300.73245,300.9378,68,80,0
300.73245,300.9378,72,80,0
300.94675,301.1521,58,80,0
301.161,301.3664,67,81,0
301.161,301.3664,70,81,0
301.3753,301.58066,58,82,0
301.5896,301.79495,66,83,0
301.5896,301.79495,69,83,0
301.8039,302.00925,58,84,0
302.01816,302.2235,65,85,0
302.01816,302.2235,68,85,0
302.23245,302.4378,58,86,0
302.44675,302.6521,64,87,0
302.44675,302.6521,67,87,0
302.661,302.8664,58,88,0
302.8753,303.08066,63,89,0
302.8753,303.08066,66,89,0
303.0896,303.29495,58,90,0
303.30386,303.50925,62,91,0
303.30386,303.50925,65,91,0
303.51816,303.7235,58,92,0
303.73245,303.9378,61,93,0
303.73245,303.9378,64,93,0
303.94675,304.1521,58,94,0
304.161,304.36636,60,95,0
304.161,304.36636,63,95,0
304.3753,304.58066,58,96,0
304.5896,304.79495,62,97,0
304.5896,304.79495,65,97,0
304.80386,305.00925,58,98,0
305.01816,305.2235,51,99,0
305.23245,305.4378,63,80,0
305.44675,305.6521,44,80,0
305.661,305.86636,56,81,0
305.8753,306.08066,46,82,0
306.0896,306.29495,58,83,0
306.30386,306.50925,34,83,0
306.51816,306.7235,46,84,0
306.73245,306.9378,51,85,0
306.73245,307.1521,39,85,0
306.94675,307.1521,46,86,0
307.161,307.36636,46,87,0
307.3753,307.58066,46,87,0
307.5896,307.79495,46,88,0
307.80386,308.00922,46,89,0
308.01816,308.2235,55,90,0
308.01816,308.4378,43,90,0
308.23245,308.4378,46,91,0
308.44672,308.6521,56,91,0
308.44672,308.86636,44,91,0
308.661,308.86636,46,92,0
308.8753,309.08066,53,93,0
308.8753,309.29495,41,93,0
309.0896,309.29495,46,94,0
309.30386,309.50922,55,94,0
309.30386,309.7235,43,94,0
309.51816,309.7235,46,95,0
309.73245,309.9378,51,96,0
309.73245,310.1521,39,96,0
309.94672,310.1521,46,97,0
310.161,310.58066,34,98,0
310.3753,310.58066,46,98,0
310.5896,310.79495,46,99,0
310.80386,311.00922,46,100,0
311.01816,311.2235,46,101,0
311.23245,311.4378,46,102,0
311.44672,311.6521,55,102,0
311.44672,311.86636,43,102,0
311.661,311.86636,46,103,0
311.8753,312.08066,56,104,0
311.8753,312.29495,44,104,0
312.08957,312.29495,46,105,0
312.30386,312.50922,53,106,0
312.30386,312.7235,41,106,0
312.51816,312.7235,46,106,0
312.73245,312.947,55,107,0
312.73245,313.1845,43,107,0
312.95633,313.1845,46,108,0
313.19443,313.434,51,109,0
313.19443,313.70578,39,109,0
313.44443,313.70578,46,109,0
313.71713,315.8876,46,110,0
313.71713,315.8876,34,110,0
315.89896,316.11676,47,80,0
315.89896,316.11676,35,80,0
316.12622,316.34402,59,80,0
316.35352,316.57132,59,80,0
316.58078,316.79858,59,80,0
316.80804,317.02585,59,80,0
317.0353,317.2531,59,80,0
317.2626,317.4804,59,80,0
317.48987,317.70767,59,80,0
317.71713,317.93494,59,80,0
317.94443,318.16223,59,80,0
318.1717,318.3895,59,80,0
318.39896,318.61676,59,80,0
318.62622,318.84402,59,80,0
318.85352,319.07132,59,80,0
319.08078,319.29858,59,80,0
319.30804,319.52585,59,80,0
319.5353,319.7531,47,80,0
319.7626,319.9804,59,80,0
319.98987,320.20767,59,80,0
320.21713,320.43494,59,80,0
320.4444,320.6622,59,80,0
320.6717,320.8895,59,80,0
320.89896,321.34402,64,80,0
321.12622,321.34402,59,80,0
321.58078,321.79858,59,80,0
321.80804,322.02585,59,80,0
321.35352,322.2531,63,80,0
322.0353,322.2531,59,80,0
322.2626,322.4804,59,80,0
322.48987,322.70767,59,80,0
322.71713,322.93494,51,80,0
322.9444,323.1622,59,80,0
323.1717,323.3895,52,80,0
323.39896,323.61676,59,80,0
323.62622,323.84402,56,80,0
323.8535,324.0713,59,80,0
324.08078,324.29858,57,80,0
324.08078,324.29858,54,80,0
324.30804,324.52585,59,80,0
324.5353,324.7531,52,80,0
324.5353,324.7531,56,80,0
324.7626,324.98038,59,80,0
324.98987,325.20767,54,80,0
324.98987,325.20767,51,80,0
325.21713,325.43494,59,80,0
325.4444,325.6622,56,80,0
325.6717,325.8895,59,80,0
325.89896,326.11676,57,80,0
325.89896,326.11676,54,80,0
326.12622,326.34402,59,80,0
326.3535,326.5713,56,80,0
326.3535,326.5713,52,80,0
326.58078,326.79858,59,80,0
326.80804,327.02585,54,80,0
326.80804,327.2531,51,80,0
327.0353,327.2531,59,80,0
327.48987,327.93494,59,80,0
327.26257,328.1622,50,100,0
327.26257,328.1622,53,100,0
327.9444,328.1622,59,80,0
328.17166,328.38947,53,80,0
328.17166,328.61676,50,80,0
328.39896,328.61676,58,80,0
328.62622,328.84402,51,80,0
328.8535,329.0713,58,80,0
329.08078,329.29858,55,81,0
329.30804,329.52585,58,82,0
329.5353,329.7531,56,84,0
329.5353,329.7531,53,84,0
329.76257,329.98038,58,85,0
329.98987,330.20767,55,86,0
329.98987,330.20767,51,86,0
330.21713,330.43494,58,88,0
330.4444,330.6622,53,89,0
330.4444,330.6622,50,89,0
330.67166,330.88947,58,90,0
330.89896,331.11676,55,92,0
331.12622,331.34402,58,93,0
331.3535,331.5713,56,94,0
331.3535,331.5713,53,94,0
331.58075,331.79855,58,96,0
331.80804,332.02585,55,97,0
331.80804,332.02585,51,97,0
332.0353,332.2531,58,99,0
332.26257,332.48038,53,100,0
332.26257,332.48038,50,100,0
332.48987,332.70764,58,101,0
332.71713,332.93494,51,103,0
332.71713,332.93494,49,103,0
332.9444,333.1622,58,104,0
333.17166,333.38947,51,105,0
333.17166,333.38947,48,105,0
333.39896,333.61676,60,107,0
333.62622,333.84402,51,108,0
333.62622,333.84402,43,108,0
333.8535,334.0713,55,109,0
334.08075,334.29855,44,100,0
334.30804,334.52585,48,98,0
334.5353,334.7531,53,95,0
334.76257,334.98038,56,92,0
334.98984,335.20764,46,89,0
335.21713,335.43494,53,86,0
335.21713,335.43494,56,86,0
335.4444,335.6622,58,83,0
335.67166,335.88947,56,81,0
335.67166,335.88947,53,81,0
335.89896,336.11673,51,80,0
336.01257,336.23038,55,80,0
336.12622,336.34402,58,80,0
336.23984,336.45764,63,80,0
336.3535,336.5713,58,80,0
336.46713,336.68494,63,80,0
336.58075,336.79855,58,80,0
336.6944,336.9122,55,80,0
336.80804,337.02585,51,80,0
336.92166,337.13947,55,80,0
337.0353,337.2531,58,80,0
337.14893,337.36673,63,80,0
337.26257,337.48038,58,80,0
337.37622,337.59402,63,80,0
337.48984,337.70764,58,80,0
337.6035,337.8213,55,80,0
337.71713,337.93494,43,80,0
337.83075,338.04855,46,80,0
337.9444,338.1622,51,80,0
338.05804,338.27582,55,80,0
338.17166,338.38947,51,80,0
338.2853,338.5031,55,80,0
338.39893,338.61673,51,80,0
338.51257,338.73038,46,80,0
338.62622,338.84402,43,80,0
338.73984,338.95764,46,80,0
338.8535,339.0713,51,80,0
338.96713,339.18494,55,80,0
339.08075,339.29855,51,80,0
339.1944,339.4122,55,80,0
339.308,339.52582,51,80,0
339.42166,339.63947,46,80,0
339.5353,339.7531,44,80,0
339.64893,339.86673,48,80,0
339.76257,339.98038,51,80,0
339.87622,340.09402,53,80,0
339.98984,340.20764,51,80,0
340.1035,340.3213,53,80,0
340.21713,340.43494,51,80,0
340.33075,340.54855,48,80,0
340.4444,340.6622,44,80,0
340.558,340.77582,48,80,0
340.67166,340.88947,51,80,0
340.7853,341.0031,53,80,0
340.89893,341.11673,51,80,0
341.01257,341.23038,53,80,0
341.12622,341.34402,51,80,0
341.23984,341.45764,53,80,0
341.3535,341.5713,46,80,0
341.46713,341.6849,56,80,0
341.58075,341.79855,50,80,0
341.6944,341.9122,56,80,0
341.808,342.02582,53,80,0
341.92166,342.13947,56,80,0
342.0353,342.2531,51,80,0
342.14893,342.36673,56,80,0
342.26257,342.48038,46,80,0
342.37622,342.59402,56,80,0
342.48984,342.70764,50,80,0
342.6035,342.8213,56,80,0
342.7171,342.9349,53,80,0
342.83075,343.04855,56,80,0
342.9444,343.1622,51,80,0
343.058,343.27582,56,80,0
343.17166,343.38947,51,80,0
343.2853,343.5031,55,80,0
343.39893,343.61673,58,81,0
343.51257,343.73038,63,81,0
343.62622,343.844,58,82,0
343.73984,343.95764,63,82,0
343.8535,344.0713,58,83,0
343.9671,344.1849,55,83,0
344.08075,344.29855,51,84,0
344.1944,344.4122,55,84,0
344.308,344.52582,58,85,0
344.42166,344.63947,63,85,0
344.5353,344.7531,58,86,0
344.64893,344.86673,63,86,0
344.76257,344.98038,58,87,0
344.8762,345.094,55,87,0
344.98984,345.20764,43,88,0
345.1035,345.3213,46,88,0
345.2171,345.4349,51,89,0
345.33075,345.54855,55,89,0
345.4444,345.6622,51,89,0
345.558,345.77582,55,90,0
345.67166,345.88947,51,90,0
345.7853,346.0031,46,91,0
345.89893,346.11673,43,91,0
346.01257,346.23038,46,92,0
346.1262,346.344,51,92,0
346.23984,346.45764,55,93,0
346.3535,346.5713,51,93,0
346.4671,346.6849,55,94,0
346.58075,346.79855,51,94,0
346.6944,346.9122,46,95,0
346.808,347.02582,44,95,0
346.92166,347.13947,48,96,0
347.0353,347.25308,51,96,0
347.14893,347.36673,53,97,0
347.26257,347.48038,51,97,0
347.3762,347.594,53,98,0
347.48984,347.70764,51,98,0
347.6035,347.8213,48,99,0
347.7171,347.9349,44,99,0
347.83075,348.04855,48,99,0
347.9444,348.1622,51,100,0
348.058,348.27582,53,100,0
348.17166,348.38947,51,101,0
348.28528,348.50308,53,101,0
348.39893,348.61673,48,102,0
348.6262,348.844,45,103,0
348.73984,348.95764,48,103,0
348.8535,349.0713,51,104,0
348.9671,349.1849,53,104,0
349.08075,349.29855,51,105,0
349.1944,349.41217,53,105,0
349.308,349.52582,51,106,0
349.42166,349.63947,48,106,0
349.53528,349.75308,45,107,0
349.64893,349.86673,48,107,0
349.76257,349.98038,51,108,0
349.8762,350.094,53,108,0
349.98984,350.20764,51,109,0
350.1035,350.3213,53,109,0
350.2171,350.4349,51,109,0
350.33075,350.54855,48,110,0
350.44437,350.66217,46,110,0
350.558,350.77582,51,109,0
350.67166,350.88947,55,109,0
350.78528,351.00308,58,108,0
350.89893,351.11673,55,107,0
351.01257,351.23038,58,107,0
351.1262,351.344,55,106,0
351.23984,351.45764,51,105,0
351.3535,351.5713,46,105,0
351.4671,351.6849,51,104,0
351.58075,351.79855,55,103,0
351.69437,351.91217,58,103,0
351.808,352.02582,55,102,0
351.92166,352.13947,58,101,0
352.03528,352.25308,55,101,0
352.14893,352.36673,51,90,0
352.26257,352.48038,46,90,0
352.3762,352.594,56,89,0
352.48984,352.70764,58,89,0
352.6035,352.82126,56,88,0
352.7171,352.9349,58,87,0
352.83075,353.04855,56,87,0
352.94437,353.16217,58,86,0
353.058,353.27582,56,85,0
353.17166,353.38947,46,85,0
353.28528,353.50308,56,84,0
353.39893,353.61673,58,83,0
353.51257,353.73038,56,83,0
353.6262,353.844,58,82,0
353.73984,353.95764,56,81,0
353.85345,354.07126,58,81,0
353.9671,354.1849,56,80,0
354.08075,354.29855,51,80,0
354.19437,354.41217,55,80,0
354.308,354.52582,58,80,0
354.42166,354.63947,63,80,0
354.53528,354.75308,58,80,0
354.64893,354.86673,63,80,0
354.76257,354.98035,58,80,0
354.8762,355.094,55,80,0
354.98984,355.20764,51,80,0
355.10345,355.32126,55,79,0
355.2171,355.4349,58,79,0
355.33075,355.54855,63,79,0
355.44437,355.66217,58,79,0
355.558,355.77582,63,79,0
355.67166,355.88947,58,79,0
355.78528,356.00308,55,79,0
355.89893,356.11673,51,79,0
356.01254,356.23035,56,79,0
356.1262,356.344,58,79,0
356.23984,356.45764,62,78,0
356.35345,356.57126,58,78,0
356.4671,356.6849,62,78,0
356.58075,356.79855,58,78,0
356.69437,356.91217,56,78,0
356.808,357.02582,51,78,0
356.92166,357.13947,56,78,0
357.03528,357.25308,58,78,0
357.14893,357.36673,62,78,0
357.26254,357.48035,58,77,0
357.3762,357.594,62,77,0
357.48984,357.70764,58,77,0
357.60345,357.82126,56,77,0
357.7171,357.9349,51,77,0
357.83075,358.04855,55,77,0
357.94437,358.16217,58,77,0
358.058,358.27582,63,77,0
358.17166,358.38943,58,77,0
358.28528,358.50308,63,77,0
358.39893,358.61673,58,76,0
358.51254,358.73035,55,76,0
358.6262,358.844,51,76,0
358.73984,358.95764,55,76,0
358.85345,359.07126,58,76,0
358.9671,359.1849,63,76,0
359.08075,359.29855,58,76,0
359.19437,359.41217,63,76,0
359.308,359.52582,58,76,0
359.42163,359.6427,55,76,0
359.53528,359.7599,51,75,0
359.65247,359.87708,56,75,0
359.76965,359.99426,58,75,0
359.88684,360.11145,62,75,0
360.00403,360.22864,58,75,0
360.12122,360.34583,62,75,0
360.2384,360.463,58,75,0
360.3556,360.5802,56,75,0
360.47278,360.6974,51,75,0
360.58997,360.81458,56,74,0
360.70715,360.93176,58,74,0
360.82434,361.04895,62,74,0
360.94153,361.16614,58,74,0
361.05872,361.28333,62,74,0
361.1759,361.4005,58,74,0
361.2931,361.52118,56,74,0
361.41028,361.64215,51,74,0
361.53125,361.7631,55,74,0
361.65222,361.88406,58,74,0
361.7732,362.00504,63,73,0
361.89417,362.126,58,73,0
362.0151,362.24698,63,73,0
362.13608,362.36795,58,73,0
362.25705,362.48892,55,73,0
362.37802,362.60986,51,73,0
362.499,362.73083,55,73,0
362.61996,362.8518,58,73,0
362.74094,362.97278,63,73,0
362.8619,363.09375,58,72,0
362.98285,363.21472,63,72,0
363.10382,363.3357,58,72,0
363.2248,363.46036,55,72,0
363.34576,363.58536,43,72,0
363.47076,363.71036,46,72,0
363.59576,363.83536,51,72,0
363.72076,363.96036,55,72,0
363.84576,364.08536,51,72,0
363.97076,364.21036,55,72,0
364.09576,364.33536,51,71,0
364.22076,364.46036,46,71,0
364.34576,364.58536,39,71,0
364.47076,364.71036,43,71,0
364.59576,364.83536,46,71,0
364.72076,364.96036,51,71,0
364.84576,365.08536,46,71,0
364.97076,365.21036,51,71,0
365.09576,365.33536,46,71,0
365.22076,365.33536,43,71,0
365.34576,365.59796,39,70,0
365.47736,365.72952,43,70,0
365.60892,365.8611,46,70,0
365.7405,365.9927,51,70,0
365.87207,366.12427,46,70,0
366.00366,366.25586,51,70,0
366.13522,366.38742,46,70,0
366.2668,366.38742,43,70,0
366.3984,366.66962,39,70,0
366.53992,366.81113,43,70,0
366.68143,366.95264,46,70,0
366.82294,367.13632,51,70,0
366.96445,367.32382,46,70,0
367.15195,367.51132,51,70,0
367.33945,367.69882,46,70,0
367.52695,368.26132,43,70,0
368.08945,371.07382,39,70,0
