start_time,end_time,note_value,velocity,instrument_program_number
0.0,0.10714275,65,110,40
0.10714275,0.2142855,67,110,40
0.2142855,0.32142824,68,110,40
0.32142824,0.428571,67,110,40
0.428571,0.571428,65,110,40
0.6428565,0.7857135,63,110,40
0.857142,0.999999,61,110,40
1.0714275,1.2142845,60,110,40
1.285713,1.42857,62,110,40
1.4999985,1.6428555,64,110,40
1.714284,2.1383908,65,110,40
3.7694767,3.883113,72,100,40
3.883113,4.5601954,84,100,40
4.678567,4.792203,84,100,40
4.792203,5.4692855,72,100,40
5.587657,5.701293,72,100,40
5.701293,5.9238305,60,100,40
6.0422015,6.155838,60,100,40
6.155838,6.38533,72,100,40
6.5074005,6.624588,72,100,40
6.624588,6.8614826,84,100,40
6.9874907,7.108458,72,100,40
7.108458,7.3532495,84,100,40
7.483458,7.633458,72,100,40
7.633458,8.227208,60,100,40
9.519171,11.657561,73,110,40
11.662026,12.514704,78,82,40
12.519168,13.800417,71,60,40
13.804881,15.111208,73,60,40
15.115804,16.034073,72,60,40
16.03888,17.32013,72,110,40
17.324593,18.63092,77,100,40
18.635515,19.553783,76,101,40
19.558592,20.83984,76,110,40
20.844305,21.268412,85,110,40
21.272877,22.554125,84,60,40
22.55859,22.995169,82,60,40
22.999765,23.436346,80,60,40
23.44094,23.877522,77,60,40
23.882116,24.318697,73,60,40
24.323294,24.54583,72,60,40
24.550566,24.780058,85,60,40
24.78494,26.103872,84,60,40
26.108469,26.54505,82,60,40
26.549644,27.4274,80,60,40
27.431997,28.309753,77,60,40
28.314348,29.192104,71,110,40
29.196701,29.99831,72,110,40
30.003517,30.12331,72,120,40
30.128517,30.23566,65,110,40
30.23566,30.342804,67,110,40
30.342804,30.449945,68,110,40
30.449945,30.557089,67,110,40
30.557089,30.699945,65,110,40
30.771374,30.914232,63,110,40
30.98566,31.128517,61,110,40
31.199945,31.342802,60,110,40
31.41423,31.557089,62,110,40
31.628517,31.771374,64,110,40
31.842802,31.949945,65,125,40
31.949945,32.057087,67,115,40
32.057087,32.16423,68,110,40
32.16423,32.271374,67,110,40
32.271374,32.481194,65,110,40
32.699944,32.807087,66,125,40
32.807087,32.91423,68,115,40
32.91423,33.021374,70,110,40
33.021374,33.128513,68,110,40
33.128513,33.338337,66,110,40
33.557087,33.66423,67,120,40
33.66423,33.77137,68,120,40
33.77137,33.878513,70,120,40
33.878513,33.985657,72,120,40
33.985657,34.0928,73,120,40
34.0928,34.199944,75,120,40
34.199944,34.307087,73,120,40
34.307087,34.414227,72,120,40
34.414227,34.52137,70,120,40
34.52137,34.628513,72,120,40
34.628513,34.735657,70,120,40
34.735657,34.8428,68,120,40
34.8428,34.949944,67,120,40
34.949944,35.057083,65,120,40
35.057083,35.167377,63,120,40
35.167377,35.27767,61,120,40
35.27767,35.72748,60,120,40
35.504944,35.72748,68,90,40
35.732216,36.636574,80,60,40
36.641308,37.091118,78,60,40
37.09585,37.538948,77,60,40
37.543613,37.76283,73,60,40
37.767494,37.98671,72,60,40
37.991375,39.329994,70,60,40
39.334656,39.777756,68,60,40
39.782417,40.225513,67,60,40
40.23018,40.673275,68,60,40
40.67794,42.46432,68,60,40
42.468983,44.255363,80,60,40
44.26003,45.598648,80,60,40
45.60331,46.04641,89,60,40
46.05107,46.49417,89,60,40
46.498833,46.94193,87,60,40
46.946594,47.38969,85,60,40
47.394356,47.837452,84,60,40
47.842117,48.285213,85,60,40
48.28988,50.97178,80,60,40
50.976444,51.41954,80,60,40
51.424206,52.538944,80,65,40
52.543606,52.706852,85,76,40
52.767487,52.930733,89,79,40
52.991367,53.658344,92,81,40
53.66301,53.8076,92,88,40
53.812263,53.956852,90,90,40
53.961517,54.106106,89,91,40
54.11077,54.25536,89,93,40
54.260025,54.404613,87,94,40
54.40928,54.553867,85,96,40
54.558533,54.70312,85,97,40
54.707787,54.852375,84,99,40
54.85704,55.00163,82,100,40
55.006294,55.155544,82,100,40
55.155544,55.3048,80,100,40
55.3048,55.454052,79,100,40
55.454052,55.603306,82,100,40
55.603306,55.75256,80,100,40
55.75256,55.897152,78,100,40
55.901814,56.051067,78,100,40
56.051067,56.20032,77,100,40
56.20032,56.349575,76,100,40
56.349575,56.49883,78,100,40
56.49883,56.648083,77,100,40
56.648083,56.79267,75,100,40
56.797337,56.94659,75,100,40
56.94659,57.095844,73,99,40
57.095844,57.2451,72,97,40
57.2451,57.394352,73,95,40
57.394352,57.543606,72,93,40
57.543606,57.69286,70,91,40
57.69286,57.846706,72,89,40
57.846706,58.00055,70,87,40
58.00055,58.154396,68,85,40
58.154396,58.313126,70,83,40
58.313126,58.475826,68,81,40
58.475826,58.637283,67,80,40
58.64249,58.80916,70,70,40
58.80916,58.975826,68,70,40
58.975826,59.137283,67,70,40
59.14249,59.285347,66,100,40
59.285347,59.428207,56,100,40
59.428207,59.566597,68,100,40
59.571064,59.71392,66,100,40
59.71392,59.856777,56,100,40
59.856777,59.99517,68,100,40
59.999634,60.14249,66,100,40
60.14249,60.285347,56,100,40
60.285347,60.42374,68,100,40
60.428204,60.57106,66,125,40
60.57106,60.713917,56,111,40
60.713917,60.85231,68,100,40
60.856777,60.999634,66,100,40
60.999634,61.14249,56,100,40
61.14249,61.280884,68,100,40
61.285347,61.428204,66,100,40
61.428204,61.57106,56,100,40
61.57106,61.709454,68,100,40
61.713917,61.856773,66,100,40
61.856773,61.99963,56,100,40
61.99963,62.138023,68,100,40
62.14249,62.24963,67,100,40
62.24963,62.356773,68,100,40
62.356773,62.463917,66,100,40
62.463917,62.57106,56,100,40
62.57106,62.713917,66,100,40
62.713917,62.856773,56,100,40
62.856773,62.995167,68,100,40
62.99963,63.142487,66,100,40
63.142487,63.285343,56,100,40
63.285343,63.423737,68,100,40
63.4282,63.57106,66,100,40
63.57106,63.713917,56,100,40
63.713917,63.852306,68,100,40
63.856773,63.99963,66,125,40
63.99963,64.14249,56,111,40
64.14249,64.280876,68,100,40
64.28535,64.4282,66,100,40
64.4282,64.57106,56,100,40
64.57106,64.70945,68,100,40
64.71391,64.86097,66,100,40
64.86097,65.01026,56,100,40
65.01026,65.15704,68,100,40
65.16177,65.27541,56,100,40
65.27541,65.389046,68,100,40
65.389046,65.502686,56,100,40
65.502686,65.61632,68,100,40
65.61632,65.83886,57,120,40
65.84359,65.95723,59,120,40
65.95723,66.07086,61,120,40
66.07086,66.1845,62,120,40
66.1845,66.298134,64,120,40
66.298134,66.41177,66,120,40
66.41177,66.52541,68,120,40
66.52541,66.74795,69,120,40
66.752686,66.86632,71,120,40
66.86632,66.97996,73,120,40
66.97996,67.09359,74,120,40
67.09359,67.20723,76,120,40
67.20723,67.32628,78,120,40
67.32628,67.44532,80,120,40
67.44532,67.69012,81,120,40
67.94532,68.19012,86,120,40
69.44532,69.902054,86,60,40
69.90686,70.784615,87,60,40
70.789215,71.22579,82,60,40
71.230385,71.66697,82,60,40
71.67156,72.56947,81,60,40
72.57428,73.031006,80,60,40
73.03582,73.492546,82,60,40
73.49735,74.41563,81,60,40
74.42043,74.90332,80,60,40
74.90852,76.641,80,90,40
76.64546,77.06957,80,60,40
77.074036,77.49814,78,60,40
77.50261,77.92671,75,60,40
77.931175,78.141,72,60,40
78.14546,78.355286,80,60,40
78.35975,79.42671,80,60,40
79.431175,79.64546,80,60,40
79.64546,79.85975,82,60,40
79.85975,80.069565,80,60,40
80.074036,80.49814,80,60,40
80.5026,80.92671,78,60,40
80.931175,81.35528,75,60,40
81.35975,81.569565,72,60,40
81.57403,81.78385,80,60,40
81.788315,82.42671,80,50,40
82.64546,83.29783,68,50,40
83.52137,84.19509,68,50,40
84.43067,84.579704,73,60,40
84.58452,84.73355,73,68,40
84.73836,84.8874,73,76,40
84.892204,85.05102,73,84,40
85.056145,85.223335,73,92,40
85.22902,85.40515,73,100,40
85.410835,86.50918,74,120,40
86.51378,86.62407,76,120,40
86.62407,86.73437,78,120,40
86.73437,86.84466,79,120,40
86.84466,86.95495,81,120,40
86.95495,87.06525,83,120,40
87.06525,87.17554,85,120,40
87.17554,87.61212,86,120,40
88.94025,89.39697,86,60,40
89.40178,90.27954,87,60,40
90.284134,90.72071,82,60,40
90.72531,91.16189,82,60,40
91.16649,92.04424,81,60,40
92.048836,92.48542,80,60,40
92.49001,92.9266,82,60,40
92.93119,93.83555,81,60,40
93.84028,94.323166,80,60,40
94.32838,96.06429,80,90,40
96.068756,96.49287,80,60,40
96.49733,96.92143,78,60,40
96.9259,97.350006,75,60,40
97.35447,97.56429,72,60,40
97.568756,97.77858,80,60,40
97.78304,98.42143,80,60,40
98.425896,98.850006,68,70,40
98.85447,99.068756,68,60,40
99.068756,99.28304,70,60,40
99.28304,99.49286,68,60,40
99.49732,99.92143,68,60,40
99.925896,100.350006,66,60,40
100.35447,100.77857,63,60,40
100.783035,100.99286,60,60,40
100.99732,101.207146,56,60,40
101.21161,101.645004,61,50,40
102.087524,102.53062,63,50,40
102.98305,103.43977,65,50,40
103.90612,104.40091,72,50,40
104.90612,105.115944,65,120,40
104.90612,106.59808,72,120,40
104.90612,106.59808,77,120,40
106.62041,107.04451,77,120,40
107.04897,107.47308,81,120,40
107.47755,107.90165,84,120,40
107.90612,108.33022,89,120,40
108.33469,110.02665,90,120,40
110.04897,110.473076,78,120,40
110.47754,110.90165,84,120,40
110.90611,111.33022,87,120,40
111.33469,111.75879,90,120,40
111.76325,113.455215,91,120,40
111.76325,113.455215,79,120,40
113.47754,113.90165,79,120,40
113.90611,114.330215,82,120,40
114.33468,114.75879,88,120,40
114.76325,115.40164,91,120,40
115.51325,115.62039,91,110,40
115.62039,116.25879,79,110,40
116.37039,116.47754,79,110,40
116.47754,116.90164,67,110,40
117.22754,117.33468,77,110,40
117.33468,117.75879,65,110,40
118.08468,118.19182,76,110,40
118.19182,118.61593,64,110,40
118.94182,119.048965,85,110,40
119.048965,119.47307,73,110,40
119.798965,119.906105,73,110,40
119.906105,120.33021,61,110,40
120.656105,120.763245,72,110,40
120.763245,121.187355,60,110,40
121.513245,121.62039,70,110,40
121.62039,122.044495,58,110,40
122.370384,122.47753,68,110,40
122.47753,122.901634,56,110,40
123.22753,123.33467,68,110,40
123.33467,123.75878,56,110,40
124.08467,124.19182,68,110,40
124.19182,124.628395,56,110,40
124.97914,125.09453,68,110,40
125.09453,125.58932,56,110,40
125.59453,125.71953,68,90,40
125.71953,125.83932,56,70,40
125.84453,125.959915,68,50,40
125.959915,126.07049,56,50,40
126.075294,126.18244,68,50,40
126.18244,126.28512,56,50,40
126.28958,126.39673,68,50,40
126.39673,126.499405,56,50,40
126.50387,126.61101,68,50,40
126.61101,126.71369,56,50,40
126.718155,126.825294,68,50,40
126.825294,126.92798,56,50,40
126.93244,127.03958,68,50,40
127.03958,127.14226,56,50,40
127.14673,127.25387,68,50,40
127.25387,127.356544,56,50,40
127.36101,127.468155,71,50,40
127.468155,127.57083,59,50,40
127.575294,127.68244,71,50,40
127.68244,127.78512,59,50,40
127.78958,127.89672,71,50,40
127.89672,127.999405,59,50,40
128.00386,128.11101,71,50,40
128.11101,128.21368,59,50,40
128.21815,128.3253,71,50,40
128.3253,128.42798,59,50,40
128.43243,128.53958,71,50,40
128.53958,128.64226,59,50,40
128.64673,128.75386,71,50,40
128.75386,128.85655,59,50,40
128.86101,128.96815,71,50,40
128.96815,129.07083,59,50,40
129.0753,129.18243,82,50,40
129.18243,129.28511,70,55,40
129.28958,129.39673,82,61,40
129.39673,129.4994,70,67,40
129.50386,129.61101,82,73,40
129.61101,129.71368,70,79,40
129.71815,129.82529,82,84,40
129.82529,129.92798,70,90,40
129.93243,130.03958,82,90,40
130.03958,130.14226,70,86,40
130.14673,130.25386,82,82,40
130.25386,130.35654,70,77,40
130.36101,130.46815,82,73,40
130.46815,130.57083,70,68,40
130.57529,130.68243,82,64,40
130.68243,130.78511,70,60,40
131.11101,131.21815,85,100,40
131.21815,131.64226,73,100,40
131.96815,132.07529,73,100,40
132.07529,132.4994,61,100,40
132.82529,132.93243,84,100,40
132.93243,133.36902,72,100,40
133.71992,133.83897,72,100,40
133.83897,134.33377,60,100,40
134.33897,134.46397,72,90,40
134.46397,134.58377,60,75,40
134.58897,134.70436,72,60,40
134.70436,134.81494,60,60,40
134.81975,134.9269,72,60,40
134.9269,135.02957,60,60,40
135.03403,135.14117,72,60,40
135.14117,135.24385,60,60,40
135.24832,135.35545,72,60,40
135.35545,135.45815,60,60,40
135.4626,135.56975,72,60,40
135.56975,135.67242,60,60,40
135.6769,135.78403,72,60,40
135.78403,135.8867,60,60,40
135.89117,135.99832,72,60,40
135.99832,136.101,60,60,40
136.10545,136.2126,72,60,40
136.2126,136.31528,60,64,40
136.31975,136.42688,72,68,40
136.42688,136.52957,60,73,40
136.53403,136.64117,72,77,40
136.64117,136.74385,60,82,40
136.74832,136.85545,72,86,40
136.85545,136.95813,60,90,40
136.9626,137.07289,72,90,40
137.07289,137.17859,60,88,40
137.18318,137.29349,72,85,40
137.29349,137.39919,60,82,40
137.40378,137.51917,72,79,40
137.51917,137.62975,60,76,40
137.63455,137.74992,72,73,40
137.74992,137.8605,60,70,40
137.86531,137.9807,72,100,40
137.9807,138.09128,60,85,40
138.09608,138.20323,72,70,40
138.20323,138.30591,60,70,40
138.31036,138.41751,72,70,40
138.41751,138.52019,60,70,40
138.52466,138.6318,72,70,40
138.6318,138.73448,60,70,40
138.73894,138.84608,72,70,40
138.84608,138.94876,60,70,40
138.95323,139.06036,72,70,40
139.06036,139.16304,60,70,40
139.16751,139.27466,72,70,40
139.27466,139.37733,60,70,40
139.38179,139.48894,72,70,40
139.48894,139.59161,60,70,40
139.59608,139.70323,72,70,40
139.70323,139.80591,60,74,40
139.81036,139.91751,72,78,40
139.91751,140.02019,60,83,40
140.02466,140.13179,72,87,40
140.13179,140.23448,60,92,40
140.23894,140.34608,72,96,40
140.34608,140.44876,60,100,40
140.45323,140.56036,72,100,40
140.56036,140.66304,60,98,40
140.66751,140.77466,72,95,40
140.77466,140.87733,60,92,40
140.88179,140.98894,72,89,40
140.98894,141.09161,60,86,40
141.09608,141.20322,72,83,40
141.20322,141.30591,60,80,40
141.31036,141.41751,72,100,40
141.41751,141.52019,60,90,40
141.52466,141.63179,72,70,40
141.63179,141.73447,60,70,40
141.73894,141.84608,72,70,40
141.84608,141.94876,60,70,40
141.95322,142.06036,72,70,40
142.06036,142.16304,60,70,40
142.16751,142.2778,72,100,40
142.2778,142.3835,60,90,40
142.38809,142.4984,72,70,40
142.4984,142.6041,60,70,40
142.60869,142.72408,72,70,40
142.72408,142.83464,60,70,40
142.83945,142.96445,72,70,40
142.96445,143.08424,60,70,40
143.08945,143.1966,65,110,40
143.1966,143.30374,67,110,40
143.30374,143.41089,68,110,40
143.41089,143.51802,67,110,40
143.51802,143.66089,65,110,40
143.73232,143.87517,63,110,40
143.9466,144.08945,61,110,40
144.16089,144.30374,60,110,40
144.37517,144.51802,62,110,40
144.58945,144.73232,64,110,40
144.80374,145.22784,65,110,40
146.51802,146.62517,65,125,40
146.62517,146.7323,67,115,40
146.7323,146.83945,68,110,40
146.83945,146.9466,67,110,40
146.9466,147.15642,65,110,40
147.37517,147.4823,66,125,40
147.4823,147.58945,68,115,40
147.58945,147.6966,70,110,40
147.6966,147.80374,68,110,40
147.80374,148.01355,66,110,40
148.2323,148.33945,67,120,40
148.33945,148.4466,68,120,40
148.4466,148.55374,70,120,40
148.55374,148.66087,72,120,40
148.66087,148.76802,73,120,40
148.76802,148.87517,75,120,40
148.87517,148.9823,73,120,40
148.9823,149.08945,72,120,40
149.08945,149.1966,70,120,40
149.1966,149.30373,72,120,40
149.30373,149.41087,70,120,40
149.41087,149.51802,68,120,40
149.51802,149.62831,67,120,40
149.62831,149.7386,65,120,40
149.7386,149.85399,63,120,40
149.85399,149.96938,61,120,40
149.96938,150.4261,60,120,40
150.20015,150.4261,68,90,40
150.43091,151.32903,80,60,40
151.33363,151.7702,78,60,40
151.77481,152.21138,77,60,40
152.21597,152.43198,73,60,40
152.43657,152.65256,72,60,40
152.65715,153.97609,70,60,40
153.98068,154.41727,68,60,40
154.42186,154.87859,67,60,40
154.88339,155.37819,68,60,40
155.38339,157.14351,68,60,40
157.1481,158.9082,80,60,40
158.91281,160.23174,80,95,40
160.23633,160.67291,89,90,40
160.6775,161.11409,89,90,40
161.11868,161.55527,87,90,40
161.55986,162.01659,85,90,40
162.0214,162.50429,84,77,40
162.50949,165.59312,84,70,40
165.59773,166.0343,84,70,40
166.03891,167.35783,84,70,40
167.36243,167.79901,93,70,40
167.8036,168.24019,93,70,40
168.24478,168.68137,91,70,40
168.68596,169.12254,89,70,40
169.12714,169.56372,88,70,40
169.56831,170.0049,89,70,40
170.00949,170.88724,84,70,40
170.89185,171.32841,84,70,40
171.33301,171.40654,84,70,40
171.40654,171.48007,86,70,40
171.48007,171.5536,84,70,40
171.5536,171.62714,86,70,40
171.62714,171.70067,84,70,40
171.70067,171.77419,86,70,40
171.77419,171.84772,84,70,40
171.84772,171.92125,86,70,40
171.92125,171.99478,84,70,40
171.99478,172.06831,86,70,40
172.06831,172.14183,84,70,40
172.14183,172.21536,86,70,40
172.21536,172.2889,84,70,40
172.2889,172.36243,86,70,40
172.36243,172.43596,84,70,40
172.43596,172.50949,86,70,40
172.50949,172.58301,84,70,40
172.58301,172.65654,86,70,40
172.65654,172.73007,84,70,40
172.73007,172.8036,86,70,40
172.8036,172.87714,84,70,40
172.87714,172.98743,83,70,40
172.98743,173.09312,84,70,40
173.09772,174.19606,84,70,40
174.20065,174.36151,89,78,40
174.42125,174.58209,93,80,40
174.64183,175.299,96,82,40
175.3036,175.45065,96,87,40
175.45065,175.59772,94,88,40
175.59772,175.74017,93,89,40
175.74478,175.89183,93,91,40
175.89183,176.0389,91,92,40
176.0389,176.18135,89,93,40
176.18594,176.33301,89,94,40
176.33301,176.48007,88,95,40
176.48007,176.62253,86,96,40
176.62712,176.77419,86,98,40
176.77419,176.92125,84,99,40
176.92125,177.0683,83,100,40
177.0683,177.21536,86,101,40
177.21536,177.36243,84,102,40
177.36243,177.50488,82,103,40
177.50948,177.65654,82,105,40
177.65654,177.80359,81,106,40
177.80359,177.95065,80,107,40
177.95065,178.09772,82,108,40
178.09772,178.24477,81,109,40
178.24477,178.38724,79,110,40
178.39183,178.5389,79,110,40
178.5389,178.68594,77,107,40
178.68594,178.83301,76,103,40
178.83301,178.98007,77,99,40
178.98007,179.12712,76,96,40
179.12712,179.27419,74,92,40
179.27419,179.4257,76,88,40
179.4257,179.57721,74,84,40
179.57721,179.72873,72,81,40
179.72873,179.88745,74,77,40
179.88745,180.05016,72,73,40
180.05016,180.21683,71,70,40
180.21683,180.34183,71,70,40
180.34183,180.46683,72,70,40
180.46683,180.59183,70,70,40
180.59183,180.71683,55,70,40
180.71683,180.8195,70,100,40
180.85968,181.00253,55,100,40
181.00253,181.14093,72,100,40
181.1454,181.24808,70,100,40
181.28825,181.4311,55,100,40
181.4311,181.5695,72,100,40
181.57396,181.67664,70,100,40
181.71683,181.85968,55,100,40
181.85968,181.99808,72,100,40
182.00253,182.10521,70,100,40
182.14539,182.28825,55,100,40
182.28825,182.42664,72,100,40
182.4311,182.53378,70,100,40
182.57396,182.71683,55,100,40
182.71683,182.85521,72,100,40
182.85968,182.96236,70,100,40
183.00253,183.14539,55,100,40
183.14539,183.28378,72,100,40
183.28825,183.39093,70,100,40
183.4311,183.57396,55,100,40
183.57396,183.71236,72,100,40
183.71681,183.82396,71,100,40
183.82396,183.9311,72,100,40
183.9311,184.03825,70,100,40
184.03825,184.14539,55,100,40
184.14539,184.24806,70,100,40
184.28825,184.4311,55,100,40
184.4311,184.5695,72,100,40
184.57396,184.67664,70,100,40
184.71681,184.85968,55,100,40
184.85968,184.99806,72,100,40
185.00253,185.10521,70,100,40
185.14539,185.28825,55,100,40
185.28825,185.42664,72,100,40
185.4311,185.53378,70,100,40
185.57396,185.71681,55,100,40
185.71681,185.85521,72,100,40
185.85968,185.96236,70,100,40
186.00253,186.14539,55,100,40
186.14539,186.28378,72,100,40
186.28824,186.39093,70,100,40
186.4311,186.57396,55,100,40
186.57396,186.71236,72,100,40
186.71681,186.82396,60,100,40
186.82396,186.9311,72,100,40
186.9311,187.03824,61,100,40
187.03824,187.14539,73,100,40
187.14539,187.35521,62,120,40
187.35968,187.46681,64,120,40
187.46681,187.57396,66,120,40
187.57396,187.6811,67,120,40
187.6811,187.78824,69,120,40
187.78824,187.89539,70,120,40
187.89539,188.00253,72,120,40
188.00253,188.21236,74,120,40
188.21681,188.32396,76,120,40
188.32396,188.4311,78,120,40
188.4311,188.5414,79,120,40
188.5414,188.65169,81,120,40
188.65169,188.76707,82,120,40
188.76707,188.88246,84,120,40
188.88246,189.12724,86,120,40
189.38246,189.62724,91,120,40
190.88246,191.37724,90,70,40
191.38246,192.30072,91,60,40
192.30553,192.76227,86,60,40
192.76707,193.20366,86,60,40
193.20825,194.086,85,80,40
194.0906,194.52718,84,60,40
194.53177,194.96835,86,60,40
194.97295,195.85071,85,80,40
195.8553,196.29189,84,60,40
196.29648,198.0566,84,85,40
198.06119,198.49776,84,60,40
198.50237,198.93893,82,60,40
198.94354,199.38011,79,60,40
199.3847,199.60071,76,60,40
199.6053,199.82129,84,60,40
199.82588,200.92422,84,60,40
200.92883,201.14482,84,60,40
201.14941,201.3654,86,60,40
201.37001,201.586,84,60,40
201.59059,202.02718,84,60,40
202.03177,202.46835,82,60,40
202.47295,202.90953,79,60,40
202.91412,203.13011,76,60,40
203.1347,203.3507,84,60,40
203.3553,204.01247,84,60,40
204.23764,204.89482,72,60,40
205.12,205.79709,72,60,40
206.02908,206.17587,77,70,40
206.1806,206.33076,77,78,40
206.33572,206.4895,77,86,40
206.49446,206.65591,78,94,40
206.66112,206.82968,78,102,40
206.83537,207.0115,78,110,40
207.01718,208.11552,79,120,40
208.12012,208.23042,81,120,40
208.23042,208.34071,82,120,40
208.34071,208.451,84,120,40
208.451,208.5613,86,120,40
208.5613,208.67668,88,120,40
208.67668,208.79207,90,120,40
208.79207,209.2488,91,120,40
210.63821,211.13301,90,70,40
211.13821,212.01598,91,60,40
212.02057,212.45715,86,60,40
212.46175,212.89833,86,60,40
212.90292,213.78069,85,80,40
213.78528,214.22186,84,60,40
214.22646,214.66304,86,60,40
214.66763,215.56554,85,80,40
215.57034,216.08739,84,60,40
216.09306,217.81937,84,85,40
217.82384,218.24794,84,60,40
218.25241,218.67651,82,60,40
218.68098,219.11755,79,60,40
219.12216,219.3447,76,60,40
219.34943,219.58257,84,60,40
219.58752,220.2389,84,60,40
220.24336,220.66748,72,71,40
220.67194,220.88176,72,60,40
220.88623,221.09604,74,60,40
221.10051,221.31033,72,60,40
221.31479,221.7389,72,60,40
221.74336,222.16747,70,60,40
222.17194,222.59604,67,60,40
222.60051,222.8165,64,60,40
222.82109,223.04706,60,60,40
223.05186,223.50859,65,50,40
223.97495,224.44617,67,50,40
224.92732,225.42212,69,50,40
225.92732,226.46709,72,50,40
227.01823,227.33519,65,125,40
227.01823,227.33519,73,125,40
227.01823,228.71019,77,125,40
228.73251,228.83966,61,125,40
228.83966,228.9468,63,110,40
228.9468,229.05394,65,110,40
229.05394,229.16109,63,110,40
229.16109,229.31734,61,110,40
229.37537,229.53162,60,110,40
229.58966,229.74591,58,110,40
229.80394,229.96019,56,110,40
230.01822,230.17447,58,110,40
230.23251,230.38876,60,110,40
230.4468,230.60304,61,110,40
230.66109,230.81734,65,110,40
230.87537,231.03162,68,125,40
231.08965,231.2459,73,110,40
231.30394,231.46019,65,110,40
231.51822,231.67447,68,110,40
231.73251,231.88876,73,110,40
231.9468,232.10304,77,110,40
232.16109,232.31734,68,110,40
232.37537,232.53162,73,110,40
232.58965,232.7459,77,125,40
232.80394,232.96019,80,110,40
233.01822,233.17447,85,110,40
233.23251,233.38876,80,110,40
233.4468,233.60304,77,110,40
233.66107,233.81732,73,110,40
233.87537,234.03162,71,110,40
234.08965,234.2459,74,110,40
234.30394,234.46019,77,125,40
234.51822,234.67447,83,110,40
234.73251,234.88876,86,110,40
234.9468,235.10304,83,110,40
235.16107,235.31732,77,110,40
235.37537,235.53162,74,110,40
235.58965,235.7459,55,110,40
235.80394,235.96019,74,110,40
236.01822,236.17447,79,125,40
236.2325,236.38875,83,110,40
236.4468,236.60304,86,110,40
236.66107,236.81732,83,110,40
236.87537,237.03162,88,110,40
237.08965,237.2459,84,110,40
237.30394,237.46017,88,110,40
237.51822,237.67447,84,110,40
237.7325,237.88875,79,125,40
237.9468,238.10304,76,110,40
238.16107,238.31732,75,125,40
238.37537,238.53162,72,110,40
238.58965,238.7459,69,110,40
238.80392,238.96017,63,110,40
239.01822,239.17447,78,110,40
239.2325,239.38875,75,110,40
239.4468,239.60304,69,125,40
239.66107,239.81732,67,110,40
239.87535,240.0316,79,125,40
240.08965,240.2459,73,110,40
240.30392,240.46017,70,110,40
240.51822,240.67447,67,110,40
240.7325,240.88875,79,110,40
240.9468,241.10304,73,110,40
241.16107,241.31732,70,125,40
241.37535,241.5316,67,110,40
241.58965,241.74931,77,125,40
241.80862,241.96829,72,110,40
242.0276,242.19084,84,125,40
242.25148,242.41975,72,110,40
242.48225,242.59282,84,120,40
242.71301,242.92284,80,120,40
242.9273,243.13713,77,120,40
243.14159,243.35141,72,120,40
243.35588,243.45856,84,120,40
243.57016,243.77998,81,120,40
243.78444,243.99426,75,120,40
243.99873,244.20856,72,120,40
244.21301,244.31569,84,120,40
244.4273,244.63712,77,120,40
244.64159,244.85141,73,120,40
244.85587,245.06569,70,120,40
245.07016,245.17284,82,120,40
245.28444,245.49426,76,120,40
245.49873,245.70854,73,120,40
245.71301,245.92284,67,120,40
245.92729,246.13712,82,120,40
246.14159,246.56569,80,120,40
246.57016,246.77998,80,120,40
246.99873,247.42284,79,120,40
247.42729,247.63712,80,120,40
247.85587,248.27997,82,120,40
248.28444,248.49426,84,120,40
248.71301,249.13712,84,120,40
249.14159,249.35141,79,120,40
249.57016,249.99426,82,120,40
249.99872,250.20854,80,120,40
250.42729,250.8514,79,120,40
250.85587,251.06569,80,120,40
251.28444,251.70854,82,120,40
251.71301,251.92284,84,120,40
252.14159,252.56569,85,120,40
252.57014,252.78615,88,120,40
253.01132,253.4479,89,120,40
253.4525,253.66849,77,120,40
254.11427,254.22456,65,120,40
254.22456,254.33485,67,120,40
254.33485,254.44514,68,120,40
254.44514,254.55544,67,120,40
254.55544,254.77144,65,120,40
254.99661,255.10692,65,116,40
255.10692,255.21721,67,115,40
255.21721,255.3275,68,114,40
255.3275,255.43779,67,113,40
255.43779,255.6538,65,112,40
255.87897,255.98926,65,108,40
255.98926,256.09955,67,107,40
256.09955,256.20984,68,106,40
256.20984,256.32016,67,105,40
256.32016,256.43045,65,104,40
256.43045,256.54074,67,102,40
256.54074,256.65103,68,101,40
256.65103,256.76132,67,100,40
256.76132,256.92218,65,99,40
256.9819,257.14276,63,97,40
257.20248,257.36334,61,95,40
257.4231,257.58392,60,93,40
257.64368,257.8045,62,91,40
257.86426,258.02997,64,89,40
258.09152,258.20517,65,87,40
258.20517,258.31882,67,85,40
258.31882,258.43243,68,84,40
258.43243,258.54608,67,83,40
258.54608,258.7118,65,82,40
258.77335,258.93906,63,80,40
259.0006,259.17422,61,78,40
259.2387,259.41232,60,76,40
259.4768,259.65912,62,74,40
259.7268,259.9257,64,72,40
259.99954,260.45627,65,70,40
261.38416,261.84088,67,65,40
261.8457,262.30243,65,62,40
263.24496,263.73975,67,53,40
263.74496,265.38416,67,50,40
265.3904,266.1326,72,45,40
266.1404,267.2576,65,40,40
272.5154,272.8826,65,1,40
0.0,0.10714275,65,110,40
0.10714275,0.2142855,67,110,40
0.2142855,0.32142824,68,110,40
0.32142824,0.428571,67,110,40
0.428571,0.571428,65,110,40
0.6428565,0.7857135,63,110,40
0.857142,0.999999,61,110,40
1.0714275,1.2142845,60,110,40
1.285713,1.42857,62,110,40
1.4999985,1.6428555,64,110,40
1.714284,2.1383908,65,110,40
3.428568,3.8783782,55,100,40
4.224022,4.337658,55,100,40
4.337658,4.787468,56,100,40
5.133112,5.246748,56,100,40
5.246748,5.4692855,55,100,40
5.587657,5.701293,64,100,40
5.701293,5.9238305,65,100,40
6.0422015,6.155838,65,100,40
6.155838,6.38533,64,100,40
6.5074005,6.624588,67,100,40
6.624588,6.8614826,68,100,40
6.9874907,7.108458,68,100,40
7.108458,7.3532495,67,100,40
7.483458,7.627208,60,100,40
7.633458,8.227208,60,100,40
9.519171,11.657561,70,110,40
11.662026,12.514704,66,84,40
12.519168,14.228988,65,60,40
14.233452,16.034073,64,60,40
16.03888,17.7487,70,60,40
16.03888,17.7487,64,60,40
17.753164,19.553783,61,60,40
19.558592,21.268412,64,60,40
19.558592,21.268412,73,60,40
21.272877,21.696983,64,60,40
21.701447,22.125553,64,60,40
22.130018,22.554125,67,60,40
22.55859,22.995169,60,60,40
22.999765,23.436346,60,60,40
23.44094,23.877522,56,60,40
23.882116,24.318697,58,60,40
24.323294,24.54583,60,60,40
24.550566,24.780058,65,60,40
24.78494,25.221521,64,60,40
25.226116,25.662697,64,60,40
25.667292,26.103872,67,60,40
26.108469,26.54505,60,60,40
26.549644,26.986225,65,60,40
26.99082,27.4274,65,60,40
27.431997,27.868576,67,60,40
27.873173,28.309753,68,60,40
28.314348,28.750929,59,60,40
28.755524,29.192104,65,70,40
29.196701,29.646511,64,81,40
29.651245,30.12331,72,92,40
30.128517,30.23566,65,110,40
30.23566,30.342804,67,110,40
30.342804,30.449945,68,110,40
30.449945,30.557089,67,110,40
30.557089,30.699945,65,110,40
30.771374,30.914232,63,110,40
30.98566,31.128517,61,110,40
31.199945,31.342802,60,110,40
31.41423,31.557089,62,110,40
31.628517,31.771374,64,110,40
31.842802,31.949945,65,125,40
31.949945,32.057087,67,115,40
32.057087,32.16423,68,110,40
32.16423,32.271374,67,110,40
32.271374,32.481194,65,110,40
32.699944,32.807087,66,125,40
32.807087,32.91423,68,115,40
32.91423,33.021374,70,110,40
33.021374,33.128513,68,110,40
33.128513,33.338337,66,110,40
33.557087,33.66423,67,120,40
33.66423,33.77137,68,120,40
33.77137,33.878513,70,120,40
33.878513,33.985657,72,120,40
33.985657,34.0928,73,120,40
34.0928,34.199944,75,120,40
34.199944,34.307087,73,120,40
34.307087,34.414227,72,120,40
34.414227,34.52137,70,120,40
34.52137,34.628513,72,120,40
34.628513,34.735657,70,120,40
34.735657,34.8428,68,120,40
34.8428,34.949944,67,120,40
34.949944,35.057083,65,120,40
35.057083,35.167377,63,120,40
35.167377,35.27767,61,120,40
35.27767,35.72748,60,120,40
36.186764,36.636574,60,60,40
36.641308,36.863846,61,60,40
36.86858,37.091118,63,60,40
37.09585,37.538948,65,60,40
37.543613,37.76283,66,60,40
37.767494,37.98671,68,60,40
37.991375,38.43447,70,60,40
38.439137,40.225513,63,60,40
40.23018,40.673275,63,60,40
40.67794,41.121037,65,60,40
41.1257,41.568798,56,60,40
41.573463,42.01656,65,60,40
42.021225,42.46432,56,60,40
42.468983,42.912083,66,60,40
42.916744,43.359844,56,60,40
43.364506,43.807602,66,60,40
43.812267,44.255363,56,60,40
44.26003,44.703125,65,60,40
44.70779,45.150887,56,60,40
45.155552,45.598648,61,60,40
45.60331,46.04641,56,60,40
46.05107,46.49417,60,60,40
46.498833,46.94193,56,60,40
46.946594,47.38969,60,60,40
47.394356,47.837452,56,60,40
47.842117,48.434467,61,60,40
48.439133,48.58372,65,60,40
48.588387,48.732975,66,60,40
48.73764,49.32999,68,60,40
49.334652,49.479244,72,60,40
49.483906,49.628498,73,60,40
49.63316,50.22551,75,60,40
50.230175,50.374763,74,60,40
50.37943,50.524017,75,60,40
50.528683,51.121033,73,60,40
51.125698,51.270287,72,60,40
51.274952,51.41954,70,60,40
51.424206,51.867302,68,65,40
51.871967,52.315063,65,69,40
52.319725,52.762825,65,74,40
52.767487,53.210583,61,79,40
53.21525,53.658344,58,83,40
53.66301,54.553867,70,88,40
54.558533,55.00163,58,97,40
55.006294,55.44939,60,100,40
55.454052,56.34491,72,100,40
56.349575,56.79267,60,100,40
57.2451,57.389687,61,95,40
57.394352,57.53894,63,93,40
57.543606,57.688194,65,91,40
58.154396,58.308167,61,83,40
58.313126,58.470615,63,81,40
58.475826,58.637283,65,80,40
58.64249,59.012283,63,70,40
59.14249,60.106777,63,100,40
59.14249,60.106777,75,100,40
60.106777,60.21392,77,100,40
60.21392,60.32106,78,100,40
60.32106,60.428204,77,100,40
60.428204,62.120167,75,125,40
62.14249,62.459454,63,100,40
62.57106,63.535343,63,100,40
62.57106,63.535343,75,100,40
63.535343,63.642487,77,100,40
63.642487,63.74963,78,100,40
63.74963,63.856773,77,100,40
63.856773,65.1381,75,125,40
65.16177,65.31802,80,100,40
65.389046,65.545296,56,100,40
65.61632,65.83886,57,120,40
65.84359,65.95723,59,120,40
65.95723,66.07086,61,120,40
66.07086,66.1845,62,120,40
66.1845,66.298134,64,120,40
66.298134,66.41177,66,120,40
66.41177,66.52541,68,120,40
66.52541,66.74795,69,120,40
66.752686,66.86632,71,120,40
66.86632,66.97996,73,120,40
66.97996,67.09359,74,120,40
67.09359,67.20723,64,120,40
67.20723,67.32628,66,120,40
67.32628,67.44532,68,120,40
67.44532,67.69012,69,120,40
67.94532,68.19012,74,120,40
69.44532,69.902054,74,60,40
69.90686,70.784615,75,60,40
70.789215,71.22579,70,60,40
71.230385,71.66697,70,60,40
71.67156,72.56947,69,60,40
72.57428,73.031006,68,60,40
73.03582,73.492546,70,60,40
73.49735,74.41563,69,60,40
74.42043,74.653564,68,60,40
74.65852,74.90332,60,60,40
74.90852,75.03352,61,60,40
75.03352,75.14546,63,60,40
75.14546,75.25261,65,60,40
75.25261,75.35975,63,60,40
75.35975,75.466896,61,60,40
75.466896,75.574036,63,60,40
75.574036,75.68118,65,60,40
75.68118,75.78832,63,60,40
75.78832,75.89546,61,60,40
75.89546,76.00261,63,60,40
76.00261,76.10975,65,60,40
76.10975,76.216896,63,60,40
76.216896,76.324036,61,60,40
76.324036,76.431175,63,60,40
76.431175,76.53832,65,60,40
76.53832,76.64546,63,60,40
76.64546,77.92671,60,60,40
77.931175,78.141,63,60,40
78.14546,78.355286,60,60,40
78.35975,78.46689,61,60,40
78.46689,78.574036,63,60,40
78.574036,78.681175,65,60,40
78.681175,78.78832,63,60,40
78.78832,78.89546,61,60,40
78.89546,79.0026,63,60,40
79.0026,79.10975,65,60,40
79.10975,79.21689,63,60,40
79.21689,79.324036,61,60,40
79.324036,79.431175,63,60,40
79.431175,79.538315,65,60,40
79.538315,79.64546,63,60,40
79.64546,79.7526,61,60,40
79.7526,79.85975,63,60,40
79.85975,79.96689,65,60,40
79.96689,80.074036,63,60,40
80.074036,81.35528,60,60,40
81.35975,81.569565,63,60,40
81.57403,81.78385,60,60,40
81.788315,82.42671,61,50,40
82.64546,83.29783,56,50,40
83.52137,84.19509,61,50,40
84.43067,84.579704,61,60,40
84.58452,84.73355,61,68,40
84.73836,84.8874,61,76,40
84.892204,85.05102,61,84,40
85.056145,85.223335,61,92,40
85.22902,85.40515,61,100,40
85.410835,86.50918,62,120,40
86.51378,86.62407,64,120,40
86.62407,86.73437,66,120,40
86.73437,86.84466,67,120,40
86.84466,86.95495,69,120,40
86.95495,87.06525,71,120,40
87.06525,87.17554,73,120,40
87.17554,87.61212,74,120,40
88.94025,89.39697,74,60,40
89.40178,90.27954,75,60,40
90.284134,90.72071,70,60,40
90.72531,91.16189,70,60,40
91.16649,92.04424,69,60,40
92.048836,92.48542,68,60,40
92.49001,92.9266,70,60,40
92.93119,93.83555,69,60,40
93.84028,94.07342,68,60,40
94.07838,94.323166,60,60,40
94.32838,94.45338,61,60,40
94.45338,94.568756,63,60,40
94.568756,94.6759,65,60,40
94.6759,94.78304,63,60,40
94.78304,94.89019,61,60,40
94.89019,94.99733,63,60,40
94.99733,95.10447,65,60,40
95.10447,95.21162,63,60,40
95.21162,95.318756,61,60,40
95.318756,95.4259,63,60,40
95.4259,95.53304,65,60,40
95.53304,95.64019,63,60,40
95.64019,95.74733,61,60,40
95.74733,95.85447,63,60,40
95.85447,95.96162,65,60,40
95.96162,96.068756,63,60,40
96.068756,97.350006,60,60,40
97.35447,97.56429,63,60,40
97.568756,97.77858,60,60,40
97.78304,97.89018,61,60,40
97.89018,97.99733,63,60,40
97.99733,98.10447,65,60,40
98.10447,98.21162,63,60,40
98.21162,98.318756,61,60,40
98.318756,98.425896,63,60,40
98.425896,98.53304,65,60,40
98.53304,98.64018,63,60,40
98.64018,98.74733,61,60,40
98.74733,98.85447,63,60,40
98.85447,98.96161,65,60,40
98.96161,99.068756,63,60,40
99.068756,99.175896,61,60,40
99.175896,99.28304,63,60,40
99.28304,99.39018,65,60,40
99.39018,99.49732,63,60,40
99.49732,100.77857,60,60,40
100.783035,100.99286,63,60,40
100.99732,101.207146,60,60,40
101.21161,101.645004,56,50,40
102.087524,102.53062,60,50,40
102.98305,103.43977,61,50,40
103.90612,104.40091,63,50,40
104.90612,106.59808,65,120,40
104.90612,106.59808,69,120,40
106.62041,106.72755,65,120,40
106.72755,106.83469,67,120,40
106.83469,106.94183,69,120,40
106.94183,107.04897,67,120,40
107.04897,107.20522,65,120,40
107.47755,107.58469,65,120,40
107.58469,107.69183,67,120,40
107.69183,107.79897,69,120,40
107.79897,107.90612,67,120,40
107.90612,108.06237,65,120,40
108.33469,108.7588,57,120,40
108.33469,108.7588,66,120,40
108.33469,109.598076,75,120,40
109.6204,109.72755,75,120,40
109.72755,109.83469,77,120,40
109.83469,109.941826,75,120,40
109.941826,110.04897,73,120,40
110.04897,110.15611,72,120,40
110.15611,110.26326,73,120,40
110.26326,110.3704,75,120,40
110.3704,110.47754,73,120,40
110.47754,110.63379,72,120,40
110.90611,111.01326,72,120,40
111.01326,111.1204,73,120,40
111.1204,111.22754,75,120,40
111.22754,111.33469,73,120,40
111.33469,111.49094,72,120,40
111.76325,113.455215,64,120,40
111.76325,113.455215,70,120,40
113.47754,113.58469,67,120,40
113.58469,113.691826,68,120,40
113.691826,113.798965,70,120,40
113.798965,113.90611,68,120,40
113.90611,114.06236,67,120,40
114.33468,114.441826,58,120,40
114.441826,114.548965,60,120,40
114.548965,114.65611,61,120,40
114.65611,114.76325,60,120,40
114.76325,114.87039,58,120,40
114.87039,114.97754,60,120,40
114.97754,115.08468,58,120,40
115.08468,115.191826,56,120,40
115.191826,115.937355,55,110,40
115.941826,116.0445,67,110,40
116.048965,116.7945,67,110,40
116.798965,116.90164,67,110,40
116.906105,117.5445,68,110,40
117.656105,117.75879,68,110,40
117.76325,118.40164,70,110,40
118.51325,118.61593,70,110,40
118.62039,119.25878,70,110,40
119.37039,119.47307,70,110,40
119.47753,120.11593,70,110,40
120.22753,120.33021,70,110,40
120.33468,120.97307,72,110,40
121.08468,121.187355,72,110,40
121.19182,121.83021,73,110,40
121.94182,122.044495,73,110,40
122.04896,122.88378,74,125,40
122.906105,123.013245,74,125,40
123.013245,123.120384,75,110,40
123.120384,123.22753,77,110,40
123.22753,123.33467,75,110,40
123.33467,123.75878,74,110,40
123.763245,124.610016,62,125,40
123.763245,124.610016,74,125,40
124.63299,124.748375,74,125,40
124.748375,124.86376,75,110,40
124.86376,124.97914,77,110,40
124.97914,125.09453,75,110,40
125.09453,125.58932,74,110,40
127.36101,129.07083,71,50,40
127.36101,129.07083,79,50,40
129.0753,130.78511,70,50,40
129.0753,130.78511,79,50,40
131.64671,131.75386,79,125,40
131.75386,131.86101,80,110,40
131.86101,131.96815,82,100,40
131.96815,132.07529,80,100,40
132.07529,132.4994,79,100,40
133.37361,133.48724,77,125,40
133.48724,133.60088,79,110,40
133.60088,133.71992,80,100,40
133.71992,133.83897,79,100,40
133.83897,134.33377,77,100,40
135.24832,135.67242,84,60,40
135.6769,136.101,72,60,40
136.10545,136.95813,73,60,40
136.9626,137.39919,74,90,40
137.40378,137.8605,76,79,40
138.73894,139.16304,84,70,40
139.16751,139.59161,72,70,40
139.59608,140.44876,73,70,40
140.45323,140.87733,74,100,40
140.88179,141.30591,84,89,40
140.88179,141.30591,76,89,40
141.31036,142.14519,84,100,40
142.16751,143.06342,82,100,40
143.08945,143.1966,65,110,40
143.1966,143.30374,67,110,40
143.30374,143.41089,68,110,40
143.41089,143.51802,67,110,40
143.51802,143.66089,65,110,40
143.73232,143.87517,63,110,40
143.9466,144.08945,61,110,40
144.16089,144.30374,60,110,40
144.37517,144.51802,62,110,40
144.58945,144.73232,64,110,40
144.80374,145.22784,65,110,40
146.51802,146.62517,65,125,40
146.62517,146.7323,67,115,40
146.7323,146.83945,68,110,40
146.83945,146.9466,67,110,40
146.9466,147.15642,65,110,40
147.37517,147.4823,66,125,40
147.4823,147.58945,68,115,40
147.58945,147.6966,70,110,40
147.6966,147.80374,68,110,40
147.80374,148.01355,66,110,40
148.2323,148.33945,67,120,40
148.33945,148.4466,68,120,40
148.4466,148.55374,70,120,40
148.55374,148.66087,72,120,40
148.66087,148.76802,73,120,40
148.76802,148.87517,75,120,40
148.87517,148.9823,73,120,40
148.9823,149.08945,72,120,40
149.08945,149.1966,70,120,40
149.1966,149.30373,72,120,40
149.30373,149.41087,70,120,40
149.41087,149.51802,68,120,40
149.51802,149.62831,67,120,40
149.62831,149.7386,65,120,40
149.7386,149.85399,63,120,40
149.85399,149.96938,61,120,40
149.96938,150.4261,60,120,40
150.89246,151.32903,60,60,40
151.33363,151.54962,61,60,40
151.55421,151.7702,63,60,40
151.77481,152.21138,65,60,40
152.21597,152.43198,66,60,40
152.43657,152.65256,68,60,40
152.65715,153.09373,70,60,40
153.09833,154.87859,63,60,40
154.88339,155.37819,63,60,40
155.38339,155.81998,65,60,40
155.82457,156.26115,56,60,40
156.26575,156.70233,65,60,40
156.70692,157.14351,56,60,40
157.1481,157.58469,66,60,40
157.58928,158.02586,56,60,40
158.03046,158.46704,66,60,40
158.47163,158.9082,56,60,40
158.91281,159.34938,65,60,40
159.35399,159.79056,56,68,40
159.79515,160.23174,61,76,40
160.23633,160.67291,56,90,40
160.6775,161.11409,65,90,40
161.11868,161.55527,57,90,40
161.55986,162.01659,58,90,40
162.0214,162.25453,70,77,40
162.25949,162.50429,67,70,40
162.50949,163.09773,57,70,40
162.50949,163.09773,65,70,40
163.09773,163.24478,69,70,40
163.24478,163.38725,70,70,40
163.39185,163.98009,72,70,40
163.98009,164.12714,76,70,40
164.12714,164.2696,77,70,40
164.2742,164.86243,79,70,40
164.86243,165.00949,78,70,40
165.00949,165.15196,79,70,40
165.15656,165.74478,77,70,40
165.74478,165.89185,76,70,40
165.89185,166.0343,74,70,40
166.03891,166.47548,72,70,40
166.48007,167.79901,57,70,40
166.48007,167.79901,65,70,40
167.8036,169.56372,55,70,40
167.8036,169.56372,64,70,40
169.56831,170.0049,57,70,40
169.56831,170.15654,65,70,40
170.15654,170.3036,69,70,40
170.3036,170.44606,70,70,40
170.45067,171.0389,72,70,40
171.0389,171.18596,76,70,40
171.18596,171.32841,77,70,40
171.33301,171.92125,79,70,40
171.92125,172.06831,78,70,40
172.06831,172.21077,79,70,40
172.21536,172.8036,77,70,40
172.8036,172.95065,76,70,40
172.95065,173.09312,74,70,40
173.09772,173.5343,72,70,40
173.5389,173.68596,57,73,40
173.68596,173.83301,60,74,40
173.83301,173.98007,65,75,40
173.98007,174.41666,69,77,40
174.42125,174.5683,69,80,40
174.5683,174.71536,70,81,40
174.71536,174.86243,72,82,40
174.86243,175.299,74,84,40
175.3036,175.45065,62,87,40
175.45065,175.59772,64,88,40
175.59772,175.74478,65,89,40
176.18594,176.33301,62,94,40
176.33301,176.48007,64,95,40
176.48007,176.62712,65,96,40
177.0683,177.21536,64,101,40
177.21536,177.36243,65,102,40
177.36243,177.50948,67,103,40
177.95065,178.09772,64,108,40
178.09772,178.24477,65,109,40
178.24477,178.39183,67,110,40
178.83301,178.98007,65,99,40
178.98007,179.12712,67,96,40
179.12712,179.27419,68,92,40
179.72873,179.88745,65,77,40
179.88745,180.05016,67,73,40
180.05016,180.21161,68,70,40
180.21683,180.58661,67,70,40
180.71683,182.10968,70,100,40
180.71683,182.10968,79,100,40
182.10968,182.21683,81,100,40
182.21683,182.32396,82,100,40
182.32396,182.4311,81,100,40
182.4311,182.53825,79,100,40
182.53825,182.64539,81,100,40
182.64539,182.75253,82,100,40
182.75253,182.85968,81,100,40
182.85968,182.96683,79,100,40
182.96683,183.07396,81,100,40
183.07396,183.1811,82,100,40
183.1811,183.28825,81,100,40
183.28825,183.39539,79,100,40
183.39539,183.50253,81,100,40
183.50253,183.60968,82,100,40
183.60968,183.71681,81,100,40
183.71681,184.03378,79,100,40
184.14539,185.53825,70,100,40
184.14539,185.53825,79,100,40
185.53825,185.64539,81,100,40
185.64539,185.75253,82,100,40
185.75253,185.85968,81,100,40
185.85968,185.96681,79,100,40
185.96681,186.07396,81,100,40
186.07396,186.1811,82,100,40
186.1811,186.28824,81,100,40
186.28824,186.39539,79,100,40
186.39539,186.50253,81,100,40
186.50253,186.60968,82,100,40
186.60968,186.71681,81,100,40
186.71681,186.87306,84,100,40
186.9311,187.08736,73,100,40
187.14539,187.35521,74,120,40
188.00253,188.21236,62,120,40
188.21681,188.32396,64,120,40
188.32396,188.4311,66,120,40
188.4311,188.5414,67,120,40
188.5414,188.65169,69,120,40
188.65169,188.76707,70,120,40
188.76707,188.88246,72,120,40
188.88246,189.12724,74,120,40
189.38246,189.62724,79,120,40
190.88246,191.37724,78,70,40
191.38246,192.30072,79,60,40
192.30553,192.76227,74,60,40
192.76707,193.20366,74,60,40
193.20825,194.086,73,80,40
194.0906,194.52718,72,60,40
194.53177,194.96835,74,60,40
194.97295,195.85071,73,80,40
195.8553,196.07129,72,60,40
196.0759,196.29189,64,60,40
196.29648,196.40677,65,60,40
196.40677,196.51707,67,60,40
196.51707,196.62737,69,60,40
196.62737,196.73766,67,60,40
196.73766,196.84795,65,60,40
196.84795,196.95824,67,60,40
196.95824,197.06854,69,60,40
197.06854,197.17883,67,60,40
197.17883,197.28912,65,60,40
197.28912,197.39941,67,60,40
197.39941,197.50972,69,60,40
197.50972,197.62001,67,60,40
197.62001,197.7303,65,60,40
197.7303,197.84059,67,60,40
197.84059,197.9509,69,60,40
197.9509,198.06119,67,60,40
198.06119,199.38011,64,60,40
199.3847,199.60071,67,60,40
199.6053,199.82129,64,60,40
199.82588,199.93619,65,60,40
199.93619,200.04648,57,60,40
200.04648,200.15677,60,60,40
200.15677,200.26706,58,60,40
200.26706,200.37737,57,60,40
200.37737,200.48766,58,60,40
200.48766,200.59795,60,60,40
200.59795,200.70824,58,60,40
200.70824,200.81853,57,60,40
200.81853,200.92883,58,60,40
200.92883,201.03912,60,60,40
201.03912,201.14941,58,60,40
201.14941,201.2597,57,60,40
201.2597,201.37001,58,60,40
201.37001,201.4803,60,60,40
201.4803,201.59059,58,60,40
201.59059,202.90953,58,60,40
202.91412,203.13011,58,60,40
203.1347,203.3507,55,60,40
203.3553,204.01247,57,60,40
204.23764,204.89482,65,60,40
204.23764,204.89482,57,60,40
205.12,205.79709,65,60,40
205.12,205.79709,57,60,40
206.02908,206.17587,65,70,40
206.1806,206.33076,65,78,40
206.33572,206.4895,65,86,40
206.49446,206.65591,66,94,40
206.66112,206.82968,66,102,40
206.83537,207.0115,66,110,40
207.01718,208.11552,67,120,40
208.12012,208.23042,69,120,40
208.23042,208.34071,70,120,40
208.34071,208.451,72,120,40
208.451,208.5613,74,120,40
208.5613,208.67668,76,120,40
208.67668,208.79207,78,120,40
208.79207,209.2488,79,120,40
210.63821,211.13301,78,70,40
211.13821,212.01598,79,60,40
212.02057,212.45715,74,60,40
212.46175,212.89833,74,60,40
212.90292,213.78069,73,80,40
213.78528,214.22186,72,60,40
214.22646,214.66304,74,60,40
214.66763,215.56554,73,80,40
215.57034,215.81514,72,60,40
215.82034,216.08739,64,60,40
216.09306,216.20845,65,60,40
216.20845,216.32384,67,60,40
216.32384,216.43098,69,60,40
216.43098,216.53813,67,60,40
216.53813,216.64526,65,60,40
216.64526,216.75241,67,60,40
216.75241,216.85956,69,60,40
216.85956,216.96669,67,60,40
216.96669,217.07384,65,60,40
217.07384,217.18098,67,60,40
217.18098,217.28812,69,60,40
217.28812,217.39526,67,60,40
217.39526,217.50241,65,60,40
217.50241,217.60956,67,60,40
217.60956,217.71669,69,60,40
217.71669,217.82384,67,60,40
217.82384,219.11755,64,60,40
219.12216,219.3447,67,60,40
219.34943,219.58257,64,60,40
219.58752,219.70116,65,60,40
219.70116,219.81479,57,60,40
219.81479,219.92194,60,60,40
219.92194,220.02908,58,60,40
220.02908,220.13623,57,60,40
220.13623,220.24336,58,60,40
220.24336,220.35051,60,60,40
220.35051,220.45766,58,60,40
220.45766,220.56479,57,60,40
220.56479,220.67194,58,60,40
220.67194,220.77908,60,60,40
220.77908,220.88623,58,60,40
220.88623,220.99336,57,60,40
220.99336,221.10051,58,60,40
221.10051,221.20766,60,60,40
221.20766,221.31479,58,60,40
221.31479,222.59604,58,60,40
222.60051,222.8165,58,60,40
222.82109,223.04706,55,60,40
223.05186,223.50859,60,50,40
223.97495,224.44617,64,50,40
224.92732,225.42212,60,50,40
224.92732,225.42212,65,50,40
225.92732,226.46709,64,50,40
227.01823,228.71019,56,125,40
227.01823,228.71019,65,125,40
228.73251,230.8709,80,125,40
230.87537,232.58519,80,125,40
232.58965,234.29947,80,125,40
234.30394,236.01375,80,125,40
236.01822,237.72804,79,125,40
237.7325,238.15662,79,125,40
238.16107,239.44232,81,125,40
239.4468,239.8709,81,125,40
239.87535,241.1566,82,125,40
241.16107,241.58517,82,125,40
241.58965,242.02304,80,125,40
242.0276,242.47745,79,125,40
242.48225,242.59763,77,120,40
242.59763,242.71301,79,120,40
242.71301,242.82016,80,120,40
242.82016,242.9273,79,120,40
242.9273,243.13713,77,120,40
243.35588,243.46301,75,120,40
243.46301,243.57016,77,120,40
243.57016,243.6773,78,120,40
243.6773,243.78444,77,120,40
243.78444,243.99426,75,120,40
244.21301,244.32016,73,120,40
244.32016,244.4273,75,120,40
244.4273,244.53444,77,120,40
244.53444,244.64159,75,120,40
244.64159,244.85141,73,120,40
245.07016,245.1773,70,120,40
245.1773,245.28444,72,120,40
245.28444,245.39159,73,120,40
245.39159,245.49873,72,120,40
245.49873,245.70854,70,120,40
245.92729,246.13712,79,120,40
246.14159,246.56569,77,120,40
246.57016,246.77998,77,120,40
246.99873,247.42284,76,120,40
247.42729,247.63712,77,120,40
247.85587,248.27997,79,120,40
248.28444,248.49426,80,120,40
248.71301,249.13712,75,120,40
249.14159,249.35141,75,120,40
249.57016,249.99426,79,120,40
249.99872,250.20854,77,120,40
250.42729,250.8514,76,120,40
250.85587,251.06569,77,120,40
251.28444,251.70854,79,120,40
251.71301,251.92284,80,120,40
252.14159,252.56569,82,120,40
252.57014,252.78615,79,120,40
253.01132,253.4479,80,120,40
253.4525,253.66849,77,120,40
254.11427,254.22456,65,120,40
254.22456,254.33485,67,120,40
254.33485,254.44514,68,120,40
254.44514,254.55544,67,120,40
254.55544,254.77144,65,120,40
254.99661,255.10692,65,116,40
255.10692,255.21721,67,115,40
255.21721,255.3275,68,114,40
255.3275,255.43779,67,113,40
255.43779,255.6538,65,112,40
255.87897,255.98926,65,108,40
255.98926,256.09955,67,107,40
256.09955,256.20984,68,106,40
256.20984,256.32016,67,105,40
256.32016,256.43045,65,104,40
256.43045,256.54074,67,102,40
256.54074,256.65103,68,101,40
256.65103,256.76132,67,100,40
256.76132,256.92218,65,99,40
256.9819,257.14276,63,97,40
257.20248,257.36334,61,95,40
257.4231,257.58392,60,93,40
257.64368,257.8045,62,91,40
257.86426,258.02997,64,89,40
258.09152,258.20517,65,87,40
258.20517,258.31882,67,85,40
258.31882,258.43243,68,84,40
258.43243,258.54608,67,83,40
258.54608,258.7118,65,82,40
258.77335,258.93906,63,80,40
259.0006,259.17422,61,78,40
259.2387,259.41232,60,76,40
259.4768,259.65912,62,74,40
259.7268,259.9257,64,72,40
259.99954,260.45627,65,70,40
261.38416,261.84088,58,65,40
261.8457,262.30243,56,62,40
263.24496,263.73975,58,53,40
263.74496,265.38416,58,50,40
265.3904,266.1326,60,45,40
266.1404,267.2576,65,40,40
0.0,0.10714275,53,110,41
0.10714275,0.2142855,55,110,41
0.2142855,0.32142824,56,110,41
0.32142824,0.428571,55,110,41
0.428571,0.571428,53,110,41
0.6428565,0.7857135,51,110,41
0.857142,0.999999,49,110,41
1.0714275,1.2142845,48,110,41
1.285713,1.42857,50,110,41
1.4999985,1.6428555,52,110,41
1.714284,2.1383908,53,110,41
3.428568,3.8783782,52,100,41
4.224022,4.337658,52,100,41
4.337658,4.787468,53,100,41
5.133112,5.246748,53,100,41
5.246748,5.4692855,52,100,41
5.587657,5.701293,55,100,41
5.701293,5.9238305,56,100,41
6.0422015,6.155838,56,100,41
6.155838,6.38533,55,100,41
6.5074005,6.624588,64,100,41
6.624588,6.8614826,65,100,41
6.9874907,7.108458,65,100,41
7.108458,7.3532495,64,100,41
7.483458,7.633458,60,100,41
7.633458,8.227208,48,100,41
9.519171,10.80042,66,110,41
10.804884,11.657561,61,80,41
11.662026,12.514704,58,60,41
12.519168,14.228988,59,60,41
14.233452,16.034073,58,60,41
16.03888,17.7487,48,60,41
16.03888,17.7487,55,60,41
17.753164,19.553783,58,60,41
19.558592,21.696983,48,60,41
19.558592,21.696983,58,60,41
21.701447,21.804125,48,60,41
21.80859,21.911268,50,60,41
21.915733,22.018412,52,60,41
22.022875,22.125553,50,60,41
22.130018,22.554125,48,60,41
22.999765,23.436346,53,60,41
23.44094,23.877522,53,60,41
23.882116,24.318697,55,60,41
24.323294,24.54583,56,60,41
24.550566,24.780058,55,60,41
24.78494,25.221521,48,60,41
25.226116,25.331816,48,60,41
25.33641,25.442108,50,60,41
25.446705,25.552402,52,60,41
25.557,25.662697,50,60,41
25.667292,26.103872,48,60,41
26.549644,26.986225,49,60,41
26.99082,27.101114,49,60,41
27.101114,27.211409,51,60,41
27.211409,27.321703,53,60,41
27.321703,27.431997,51,60,41
27.431997,27.868576,49,60,41
27.873173,27.983467,49,60,41
27.983467,28.093761,51,60,41
28.093761,28.204054,53,60,41
28.204054,28.309753,49,60,41
28.314348,28.750929,50,60,41
28.755524,28.865818,50,70,41
28.865818,28.976112,51,73,41
28.976112,29.086407,53,76,41
29.086407,29.196701,50,79,41
29.196701,29.646511,55,81,41
29.651245,29.764881,48,92,41
29.764881,29.878517,49,95,41
29.878517,30.003517,51,98,41
30.003517,30.128517,48,100,41
30.128517,30.23566,53,110,41
30.23566,30.342804,55,110,41
30.342804,30.449945,56,110,41
30.449945,30.557089,55,110,41
30.557089,30.699945,53,110,41
30.771374,30.914232,51,110,41
30.98566,31.128517,49,110,41
31.199945,31.342802,48,110,41
31.41423,31.557089,50,110,41
31.628517,31.771374,52,110,41
31.842802,31.949945,53,125,41
31.949945,32.057087,55,115,41
32.057087,32.16423,56,110,41
32.16423,32.271374,55,110,41
32.271374,32.481194,53,110,41
32.699944,32.807087,54,125,41
32.807087,32.91423,56,115,41
32.91423,33.021374,58,110,41
33.021374,33.128513,56,110,41
33.128513,33.338337,54,110,41
33.557087,33.66423,55,120,41
33.66423,33.77137,56,120,41
33.77137,33.878513,58,120,41
33.878513,33.985657,60,120,41
33.985657,34.0928,61,120,41
34.0928,34.199944,63,120,41
34.199944,34.307087,61,120,41
34.307087,34.414227,60,120,41
34.414227,34.52137,58,120,41
34.52137,34.628513,60,120,41
34.628513,34.735657,58,120,41
34.735657,34.8428,56,120,41
34.8428,34.949944,55,120,41
34.949944,35.057083,53,120,41
35.057083,35.167377,51,120,41
35.167377,35.27767,49,120,41
35.27767,35.72748,48,120,41
36.186764,36.636574,56,60,41
36.641308,36.863846,58,60,41
36.86858,37.091118,60,60,41
37.09585,40.225513,61,60,41
40.23018,40.673275,60,60,41
40.67794,41.27029,49,60,41
41.274956,41.419544,53,60,41
41.42421,41.568798,54,60,41
41.573463,42.165813,56,60,41
42.17048,42.315067,60,60,41
42.319733,42.46432,61,60,41
42.468983,43.061337,63,60,41
43.065998,43.21059,62,60,41
43.215252,43.359844,63,60,41
43.364506,43.956856,61,60,41
43.96152,44.10611,60,60,41
44.110775,44.255363,58,60,41
44.26003,44.703125,56,60,41
44.70779,45.150887,61,60,41
45.155552,45.598648,65,60,41
45.60331,46.04641,61,60,41
46.05107,46.49417,66,60,41
46.498833,46.94193,60,60,41
46.946594,47.38969,63,60,41
47.394356,47.61357,63,60,41
47.618237,47.837452,68,60,41
47.842117,48.285213,68,60,41
48.28988,48.732975,56,60,41
48.73764,49.180737,65,60,41
49.1854,49.628498,56,60,41
49.63316,50.076256,66,60,41
50.08092,50.524017,56,60,41
50.528683,50.97178,66,60,41
50.976444,51.41954,56,60,41
51.424206,51.867302,65,65,41
51.871967,52.315063,56,69,41
52.319725,52.91208,56,74,41
52.91674,53.06133,58,80,41
53.065994,53.210583,59,82,41
53.66301,53.8076,58,88,41
53.812263,53.956852,59,90,41
53.961517,54.106106,61,91,41
54.558533,54.70312,58,97,41
54.707787,54.852375,60,99,41
54.85704,55.00163,61,100,41
55.454052,55.603306,60,100,41
55.603306,55.75256,61,100,41
55.75256,55.897152,63,100,41
56.349575,56.49883,60,100,41
56.49883,56.648083,61,100,41
56.648083,56.79267,63,100,41
56.797337,57.240433,61,100,41
57.69286,58.14959,61,89,41
58.64249,59.012283,48,70,41
59.14249,60.42374,56,100,41
59.14249,60.42374,48,100,41
60.428204,60.535347,51,125,41
60.535347,60.64249,53,115,41
60.64249,60.749634,54,100,41
60.749634,60.856777,53,100,41
60.856777,60.963917,51,100,41
60.963917,61.07106,53,100,41
61.07106,61.178204,54,100,41
61.178204,61.285347,53,100,41
61.285347,61.39249,51,100,41
61.39249,61.499634,53,100,41
61.499634,61.606773,54,100,41
61.606773,61.713917,53,100,41
61.713917,61.82106,51,100,41
61.82106,61.928204,53,100,41
61.928204,62.035347,54,100,41
62.035347,62.14249,53,100,41
62.14249,62.459454,51,100,41
62.57106,63.852306,56,100,41
62.57106,63.852306,48,100,41
63.856773,63.963917,51,125,41
63.963917,64.07106,53,115,41
64.07106,64.1782,54,100,41
64.1782,64.28535,53,100,41
64.28535,64.39249,51,100,41
64.39249,64.499626,53,100,41
64.499626,64.60677,54,100,41
64.60677,64.71391,53,100,41
64.71391,64.82421,51,100,41
64.82421,64.9345,53,100,41
64.9345,65.04814,54,100,41
65.04814,65.16177,53,100,41
65.16177,65.31802,56,100,41
65.389046,65.545296,56,100,41
65.61632,66.06613,57,120,41
66.52541,66.74795,57,120,41
66.752686,66.86632,59,120,41
66.86632,66.97996,61,120,41
66.97996,67.09359,62,120,41
67.09359,67.20723,64,120,41
67.20723,67.32628,66,120,41
67.32628,67.44532,68,120,41
67.44532,67.69012,57,120,41
67.44532,67.69012,69,120,41
67.94532,68.19012,62,120,41
69.90686,70.784615,58,60,41
70.789215,71.22579,66,60,41
72.11274,72.56947,56,60,41
72.11274,72.56947,65,60,41
72.57428,73.031006,56,60,41
72.57428,73.031006,66,60,41
73.95889,74.41563,56,60,41
73.95889,74.41563,65,60,41
74.42043,74.653564,56,60,41
74.42043,74.653564,66,60,41
74.65852,74.90332,51,60,41
74.90852,75.03352,53,60,41
75.03352,75.14546,54,60,41
75.14546,75.25261,56,60,41
75.25261,75.35975,54,60,41
75.35975,75.466896,53,60,41
75.466896,75.574036,54,60,41
75.574036,75.68118,56,60,41
75.68118,75.78832,54,60,41
75.78832,75.89546,53,60,41
75.89546,76.00261,54,60,41
76.00261,76.10975,56,60,41
76.10975,76.216896,54,60,41
76.216896,76.324036,53,60,41
76.324036,76.431175,54,60,41
76.431175,76.53832,56,60,41
76.53832,76.64546,54,60,41
76.64546,77.92671,51,60,41
77.931175,78.141,54,60,41
78.14546,78.355286,51,60,41
78.35975,78.46689,53,60,41
78.46689,78.574036,54,60,41
78.574036,78.681175,56,60,41
78.681175,78.78832,54,60,41
78.78832,78.89546,53,60,41
78.89546,79.0026,54,60,41
79.0026,79.10975,56,60,41
79.10975,79.21689,54,60,41
79.21689,79.324036,53,60,41
79.324036,79.431175,54,60,41
79.431175,79.538315,56,60,41
79.538315,79.64546,54,60,41
79.64546,79.7526,53,60,41
79.7526,79.85975,54,60,41
79.85975,79.96689,56,60,41
79.96689,80.074036,54,60,41
80.074036,81.35528,51,60,41
81.35975,81.569565,54,60,41
81.57403,81.78385,51,60,41
81.788315,82.42671,53,50,41
82.64546,83.29783,53,50,41
83.52137,84.19509,53,50,41
84.43067,84.579704,49,60,41
84.58452,84.73355,49,68,41
84.73836,84.8874,49,76,41
84.892204,85.05102,49,84,41
85.056145,85.223335,49,92,41
85.22902,85.40515,49,100,41
85.410835,86.50918,50,120,41
86.51378,86.62407,52,120,41
86.62407,86.73437,54,120,41
86.73437,86.84466,55,120,41
86.84466,86.95495,57,120,41
86.95495,87.06525,59,120,41
87.06525,87.17554,61,120,41
87.17554,87.61212,62,120,41
89.40178,90.27954,58,60,41
90.284134,90.72071,66,60,41
91.60766,92.04424,56,60,41
91.60766,92.04424,65,60,41
92.048836,92.48542,56,60,41
92.048836,92.48542,66,60,41
93.385735,93.83555,56,60,41
93.385735,93.83555,65,60,41
93.84028,94.07342,56,60,41
93.84028,94.07342,66,60,41
94.07838,94.323166,51,60,41
94.32838,94.45338,53,60,41
94.45338,94.568756,54,60,41
94.568756,94.6759,56,60,41
94.6759,94.78304,54,60,41
94.78304,94.89019,53,60,41
94.89019,94.99733,54,60,41
94.99733,95.10447,56,60,41
95.10447,95.21162,54,60,41
95.21162,95.318756,53,60,41
95.318756,95.4259,54,60,41
95.4259,95.53304,56,60,41
95.53304,95.64019,54,60,41
95.64019,95.74733,53,60,41
95.74733,95.85447,54,60,41
95.85447,95.96162,56,60,41
95.96162,96.068756,54,60,41
96.068756,97.350006,51,60,41
97.35447,97.56429,54,60,41
97.568756,97.77858,51,60,41
97.78304,97.89018,53,60,41
97.89018,97.99733,54,60,41
97.99733,98.10447,56,60,41
98.10447,98.21162,54,60,41
98.21162,98.318756,53,60,41
98.318756,98.425896,54,60,41
98.425896,98.53304,56,60,41
98.53304,98.64018,54,60,41
98.64018,98.74733,53,60,41
98.74733,98.85447,54,60,41
98.85447,98.96161,56,60,41
98.96161,99.068756,54,60,41
99.068756,99.175896,53,60,41
99.175896,99.28304,54,60,41
99.28304,99.39018,56,60,41
99.39018,99.49732,54,60,41
99.49732,100.77857,51,60,41
100.783035,100.99286,54,60,41
100.99732,101.207146,51,60,41
101.21161,101.645004,53,50,41
103.21381,103.3292,56,50,41
103.3292,103.44458,58,50,41
103.44458,103.55997,56,50,41
103.55997,103.675354,58,50,41
103.675354,103.79073,56,50,41
103.79073,103.90612,58,50,41
103.90612,104.40091,56,50,41
104.90612,106.16951,72,120,41
106.19183,106.29897,72,120,41
106.29897,106.40612,73,120,41
106.40612,106.51326,72,120,41
106.51326,106.62041,70,120,41
106.62041,106.72755,69,120,41
106.72755,106.83469,70,120,41
106.83469,106.94183,72,120,41
106.94183,107.04897,70,120,41
107.04897,107.20522,69,120,41
107.47755,107.58469,69,120,41
107.58469,107.69183,70,120,41
107.69183,107.79897,72,120,41
107.79897,107.90612,70,120,41
107.90612,108.06237,69,120,41
108.33469,110.02665,63,120,41
108.33469,110.02665,60,120,41
110.04897,110.15611,69,120,41
110.15611,110.26326,70,120,41
110.26326,110.3704,72,120,41
110.3704,110.47754,70,120,41
110.47754,110.63379,69,120,41
110.90611,111.01326,69,120,41
111.01326,111.1204,70,120,41
111.1204,111.22754,72,120,41
111.22754,111.33469,70,120,41
111.33469,111.49094,69,120,41
111.76325,113.02665,61,120,41
113.048965,113.15611,61,120,41
113.15611,113.26325,63,120,41
113.26325,113.3704,61,120,41
113.3704,113.47754,60,120,41
113.47754,113.58469,58,120,41
113.58469,113.691826,60,120,41
113.691826,113.798965,60,120,41
113.691826,113.798965,61,120,41
113.798965,113.90611,60,120,41
113.90611,114.06236,58,120,41
114.33468,114.441826,55,120,41
114.441826,114.548965,56,120,41
114.548965,114.65611,58,120,41
114.65611,114.76325,56,120,41
114.76325,114.87039,55,120,41
114.87039,114.97754,56,120,41
114.97754,115.08468,55,120,41
115.08468,115.191826,53,120,41
115.191826,115.937355,52,110,41
115.941826,116.0445,55,110,41
116.048965,116.7945,55,110,41
116.798965,116.90164,55,110,41
116.906105,117.5445,56,110,41
117.656105,117.75879,56,110,41
117.76325,118.40164,58,110,41
118.51325,118.61593,58,110,41
118.62039,119.25878,58,110,41
119.37039,119.47307,58,110,41
119.47753,120.11593,58,110,41
120.22753,120.33021,58,110,41
120.33468,120.97307,60,110,41
121.08468,121.187355,60,110,41
121.19182,121.83021,61,110,41
121.94182,122.044495,61,110,41
122.04896,122.88378,62,125,41
122.04896,122.88378,59,125,41
122.906105,123.013245,59,125,41
123.013245,123.120384,60,110,41
123.120384,123.22753,62,110,41
123.22753,123.33467,60,110,41
123.33467,123.75878,59,110,41
123.763245,124.610016,62,125,41
123.763245,124.610016,59,125,41
124.63299,124.748375,59,125,41
124.748375,124.86376,60,110,41
124.86376,124.97914,62,110,41
124.97914,125.09453,60,110,41
125.09453,125.58932,59,110,41
127.36101,129.07083,65,50,41
129.0753,130.78511,64,50,41
129.0753,130.78511,73,50,41
131.64671,131.75386,58,125,41
131.75386,131.86101,60,110,41
131.86101,131.96815,61,100,41
131.96815,132.07529,60,100,41
132.07529,132.4994,58,100,41
133.37361,133.48724,56,125,41
133.48724,133.60088,58,110,41
133.60088,133.71992,60,100,41
133.71992,133.83897,58,100,41
133.83897,134.33377,56,100,41
134.81975,134.9269,51,60,41
134.9269,135.03403,53,60,41
135.03403,135.14117,55,60,41
135.14117,135.24832,53,60,41
135.24832,136.101,51,60,41
136.10545,136.2126,53,60,41
136.2126,136.31975,55,64,41
136.31975,136.42688,56,68,41
136.42688,136.53403,55,73,41
136.53403,136.95813,53,77,41
136.9626,137.39919,71,90,41
137.40378,137.8605,72,79,41
138.31036,138.41751,51,70,41
138.41751,138.52466,53,70,41
138.52466,138.6318,55,70,41
138.6318,138.73894,53,70,41
138.73894,139.59161,51,70,41
139.59608,139.70323,53,70,41
139.70323,139.81036,55,74,41
139.81036,139.91751,56,78,41
139.91751,140.02466,55,83,41
140.02466,140.44876,53,87,41
140.45323,140.87733,71,100,41
140.88179,141.30591,72,89,41
141.52466,141.68091,65,101,41
141.73894,141.84608,53,70,41
141.84608,141.95322,55,70,41
141.95322,142.06036,56,70,41
142.06036,142.16751,53,70,41
142.38809,142.54893,67,100,41
142.60869,142.72408,55,70,41
142.72408,142.83945,56,70,41
142.83945,142.96445,58,70,41
142.96445,143.08945,55,70,41
143.08945,143.1966,53,110,41
143.1966,143.30374,55,110,41
143.30374,143.41089,56,110,41
143.41089,143.51802,55,110,41
143.51802,143.66089,53,110,41
143.73232,143.87517,51,110,41
143.9466,144.08945,49,110,41
144.16089,144.30374,48,110,41
144.37517,144.51802,50,110,41
144.58945,144.73232,52,110,41
144.80374,145.22784,53,110,41
146.51802,146.62517,53,125,41
146.62517,146.7323,55,115,41
146.7323,146.83945,56,110,41
146.83945,146.9466,55,110,41
146.9466,147.15642,53,110,41
147.37517,147.4823,54,125,41
147.4823,147.58945,56,115,41
147.58945,147.6966,58,110,41
147.6966,147.80374,56,110,41
147.80374,148.01355,54,110,41
148.2323,148.33945,55,120,41
148.33945,148.4466,56,120,41
148.4466,148.55374,58,120,41
148.55374,148.66087,60,120,41
148.66087,148.76802,61,120,41
148.76802,148.87517,63,120,41
148.87517,148.9823,61,120,41
148.9823,149.08945,60,120,41
149.08945,149.1966,58,120,41
149.1966,149.30373,60,120,41
149.30373,149.41087,58,120,41
149.41087,149.51802,56,120,41
149.51802,149.62831,55,120,41
149.62831,149.7386,53,120,41
149.7386,149.85399,51,120,41
149.85399,149.96938,49,120,41
149.96938,150.4261,48,120,41
150.89246,151.32903,56,60,41
151.33363,151.54962,58,60,41
151.55421,151.7702,60,60,41
151.77481,154.87859,61,60,41
154.88339,155.37819,60,60,41
155.38339,155.96704,49,70,41
155.97163,156.11409,53,70,41
156.1187,156.26115,54,70,41
156.26575,156.8494,56,70,41
156.85399,156.99644,60,70,41
157.00104,157.14351,61,70,41
157.1481,157.73174,63,70,41
157.73634,157.8788,62,70,41
157.88339,158.02586,63,70,41
158.03046,158.61409,61,70,41
158.61868,158.76115,60,70,41
158.76575,158.9082,58,70,41
158.91281,159.34938,56,70,41
159.35399,159.79056,61,68,41
159.79515,160.23174,65,76,41
160.23633,160.67291,61,90,41
160.6775,161.11409,65,90,41
161.11868,161.55527,60,90,41
161.55986,162.01659,53,90,41
162.0214,162.50429,52,77,41
162.0214,162.50429,55,77,41
162.50949,164.2696,53,70,41
162.50949,164.2696,57,70,41
164.2742,166.0343,52,70,41
164.2742,166.0343,55,70,41
166.03891,166.47548,57,70,41
166.03891,166.62714,53,70,41
166.62714,166.7742,57,70,41
166.7742,166.91666,60,70,41
166.92125,167.50949,65,70,41
167.50949,167.65656,69,70,41
167.65656,167.79901,70,70,41
167.8036,168.39185,72,70,41
168.39185,168.5389,71,70,41
168.5389,168.68137,72,70,41
168.68596,169.2742,60,70,41
169.2742,169.42125,59,70,41
169.42125,169.56372,60,70,41
169.56831,170.0049,60,70,41
170.00949,171.32841,53,70,41
170.00949,171.32841,57,70,41
171.33301,172.65195,52,70,41
171.33301,172.65195,58,70,41
172.65654,173.09312,52,70,41
172.65654,173.09312,55,70,41
173.09772,173.5343,53,70,41
173.09772,173.5343,57,70,41
173.5389,173.68596,48,73,41
173.68596,173.83301,53,74,41
173.83301,173.98007,57,75,41
173.98007,174.41666,60,77,41
174.42125,174.85783,65,80,41
174.86243,175.299,62,84,41
175.3036,176.18135,74,87,41
176.18594,176.62253,74,94,41
176.62712,177.0637,64,98,41
177.0683,177.94606,76,101,41
177.95065,178.38724,76,108,41
178.39183,178.82841,65,110,41
178.83301,178.98007,71,99,41
178.98007,179.12712,72,96,41
179.12712,179.26959,74,92,41
179.27419,179.724,65,88,41
179.72873,179.88745,71,77,41
179.88745,180.05016,72,73,41
180.05016,180.21161,74,70,41
180.21683,180.5762,67,70,41
180.71683,181.6811,52,100,41
181.6811,181.78825,53,100,41
181.78825,181.89539,55,100,41
181.89539,182.00253,53,100,41
182.00253,184.14093,52,100,41
184.14539,185.10968,52,100,41
185.10968,185.21681,53,100,41
185.21681,185.32396,55,100,41
185.32396,185.4311,53,100,41
185.4311,186.71236,52,100,41
186.71681,186.87306,48,100,41
186.9311,187.08736,49,100,41
187.14539,187.35521,50,120,41
187.35968,187.46681,52,120,41
187.46681,187.57396,54,120,41
187.57396,187.6811,55,120,41
187.6811,187.78824,57,120,41
187.78824,187.89539,58,120,41
187.89539,188.00253,60,120,41
188.00253,188.10521,62,120,41
188.10966,188.21236,50,120,41
188.21681,188.32396,52,120,41
188.32396,188.4311,54,120,41
188.4311,188.5414,55,120,41
188.5414,188.65169,57,120,41
188.65169,188.76707,58,120,41
188.76707,188.88246,60,120,41
188.88246,189.12724,62,120,41
189.38246,189.62724,67,120,41
191.38246,192.30072,62,60,41
192.30553,192.76227,70,60,41
193.64943,194.086,65,60,41
193.64943,194.086,69,60,41
194.0906,194.52718,67,60,41
194.0906,194.52718,70,60,41
195.41412,195.85071,65,60,41
195.41412,195.85071,69,60,41
195.8553,196.07129,67,60,41
195.8553,196.07129,70,60,41
196.0759,196.29189,55,60,41
196.29648,196.40677,57,60,41
196.40677,196.51707,58,60,41
196.51707,196.62737,60,60,41
196.62737,196.73766,58,60,41
196.73766,196.84795,57,60,41
196.84795,196.95824,58,60,41
196.95824,197.06854,60,60,41
197.06854,197.17883,58,60,41
197.17883,197.28912,57,60,41
197.28912,197.39941,58,60,41
197.39941,197.50972,60,60,41
197.50972,197.62001,58,60,41
197.62001,197.7303,57,60,41
197.7303,197.84059,58,60,41
197.84059,197.9509,60,60,41
197.9509,198.06119,58,60,41
198.06119,199.38011,55,60,41
199.3847,199.60071,58,60,41
199.6053,199.82129,55,60,41
199.82588,199.93619,57,60,41
199.93619,200.04648,53,60,41
200.04648,200.15677,57,60,41
200.15677,200.26706,55,60,41
200.26706,200.37737,53,60,41
200.37737,200.48766,55,60,41
200.48766,200.59795,57,60,41
200.59795,200.70824,55,60,41
200.70824,200.81853,53,60,41
200.81853,200.92883,55,60,41
200.92883,201.03912,57,60,41
201.03912,201.14941,55,60,41
201.14941,201.2597,53,60,41
201.2597,201.37001,55,60,41
201.37001,201.4803,57,60,41
201.4803,201.59059,55,60,41
201.59059,202.90953,55,60,41
202.91412,203.13011,55,60,41
203.1347,203.3507,52,60,41
203.3553,204.01247,53,60,41
204.23764,204.89482,53,60,41
205.12,205.79709,53,60,41
206.02908,206.17587,53,70,41
206.1806,206.33076,53,78,41
206.33572,206.4895,53,86,41
206.49446,206.65591,54,94,41
206.66112,206.82968,54,102,41
206.83537,207.0115,54,110,41
207.01718,208.11552,55,120,41
208.12012,208.23042,57,120,41
208.23042,208.34071,58,120,41
208.34071,208.451,60,120,41
208.451,208.5613,62,120,41
208.5613,208.67668,64,120,41
208.67668,208.79207,66,120,41
208.79207,209.2488,67,120,41
211.13821,212.01598,62,60,41
212.02057,212.45715,70,60,41
213.3441,213.78069,65,60,41
213.3441,213.78069,69,60,41
213.78528,214.22186,67,60,41
213.78528,214.22186,70,60,41
215.10881,215.56554,65,60,41
215.10881,215.56554,69,60,41
215.57034,215.81514,67,60,41
215.57034,215.81514,70,60,41
215.82034,216.08739,55,60,41
216.09306,216.20845,57,60,41
216.20845,216.32384,58,60,41
216.32384,216.43098,60,60,41
216.43098,216.53813,58,60,41
216.53813,216.64526,57,60,41
216.64526,216.75241,58,60,41
216.75241,216.85956,60,60,41
216.85956,216.96669,58,60,41
216.96669,217.07384,57,60,41
217.07384,217.18098,58,60,41
217.18098,217.28812,60,60,41
217.28812,217.39526,58,60,41
217.39526,217.50241,57,60,41
217.50241,217.60956,58,60,41
217.60956,217.71669,60,60,41
217.71669,217.82384,58,60,41
217.82384,219.11755,55,60,41
219.12216,219.3447,58,60,41
219.34943,219.58257,55,60,41
219.58752,219.70116,57,60,41
219.70116,219.81479,53,60,41
219.81479,219.92194,57,60,41
219.92194,220.02908,55,60,41
220.02908,220.13623,53,60,41
220.13623,220.24336,55,60,41
220.24336,220.35051,57,60,41
220.35051,220.45766,55,60,41
220.45766,220.56479,53,60,41
220.56479,220.67194,55,60,41
220.67194,220.77908,57,60,41
220.77908,220.88623,55,60,41
220.88623,220.99336,53,60,41
220.99336,221.10051,55,60,41
221.10051,221.20766,57,60,41
221.20766,221.31479,55,60,41
221.31479,222.59604,55,60,41
222.60051,222.8165,55,60,41
222.82109,223.04706,52,60,41
223.05186,223.50859,56,50,41
225.17732,225.30232,48,50,41
225.30232,225.42732,50,50,41
225.42732,225.55232,48,50,41
225.55232,225.67732,50,50,41
225.67732,225.80232,48,50,41
225.80232,225.92732,50,50,41
225.92732,226.46709,48,50,41
227.01823,228.71019,61,125,41
228.73251,230.8709,65,125,41
230.87537,232.58519,65,125,41
232.58965,234.29947,65,125,41
234.30394,236.01375,65,125,41
236.01822,236.8709,65,125,41
236.87537,237.72804,60,100,41
236.87537,237.72804,64,100,41
237.7325,238.15662,64,125,41
237.7325,238.15662,72,125,41
238.16107,239.44232,66,125,41
239.4468,239.8709,66,125,41
239.87535,241.1566,67,125,41
241.16107,241.58517,67,125,41
241.58965,242.02304,65,125,41
242.0276,242.47745,64,125,41
242.48225,242.59763,53,120,41
242.59763,242.71301,55,120,41
242.71301,242.82016,56,120,41
242.82016,242.9273,55,120,41
242.9273,243.13713,53,120,41
243.35588,243.46301,51,120,41
243.46301,243.57016,53,120,41
243.57016,243.6773,54,120,41
243.6773,243.78444,53,120,41
243.78444,243.99426,51,120,41
244.21301,244.32016,49,120,41
244.32016,244.4273,51,120,41
244.4273,244.53444,53,120,41
244.53444,244.64159,51,120,41
244.64159,244.85141,49,120,41
245.07016,245.1773,58,120,41
245.1773,245.28444,60,120,41
245.28444,245.39159,61,120,41
245.39159,245.49873,60,120,41
245.49873,245.70854,58,120,41
245.92729,246.03444,53,120,41
246.03444,246.14159,55,120,41
246.14159,246.24873,56,120,41
246.24873,246.35587,55,120,41
246.35587,246.56569,53,120,41
246.78444,246.89159,53,120,41
246.89159,246.99873,55,120,41
246.99873,247.10587,56,120,41
247.10587,247.21301,55,120,41
247.21301,247.42284,53,120,41
247.64159,247.74873,53,120,41
247.74873,247.85587,55,120,41
247.85587,247.96301,56,120,41
247.96301,248.07016,55,120,41
248.07016,248.27997,53,120,41
248.49872,248.60587,53,120,41
248.60587,248.71301,55,120,41
248.71301,248.82016,56,120,41
248.82016,248.92729,55,120,41
248.92729,249.13712,53,120,41
249.35587,249.46301,53,120,41
249.46301,249.57016,55,120,41
249.57016,249.67729,56,120,41
249.67729,249.78444,55,120,41
249.78444,249.99426,53,120,41
250.21301,250.32014,53,120,41
250.32014,250.42729,55,120,41
250.42729,250.53444,56,120,41
250.53444,250.64159,55,120,41
250.64159,250.8514,53,120,41
251.07014,251.17729,53,120,41
251.17729,251.28444,55,120,41
251.28444,251.39159,56,120,41
251.39159,251.49872,55,120,41
251.49872,251.70854,53,120,41
251.92729,252.03444,53,120,41
252.03444,252.14159,55,120,41
252.14159,252.24872,56,120,41
252.24872,252.35587,55,120,41
252.35587,252.56569,53,120,41
252.79074,252.90103,53,120,41
252.90103,253.01132,55,120,41
253.01132,253.12161,56,120,41
253.12161,253.23192,55,120,41
253.23192,253.34221,53,120,41
253.34221,253.4525,55,120,41
253.4525,253.56279,56,120,41
253.56279,253.6731,55,120,41
253.6731,253.78339,53,120,41
253.78339,253.89368,55,120,41
253.89368,254.00397,56,120,41
254.00397,254.11427,55,120,41
254.11427,254.22456,53,120,41
254.22456,254.33485,55,120,41
254.33485,254.44514,56,120,41
254.44514,254.55544,55,120,41
254.55544,254.77144,53,120,41
254.99661,255.10692,53,116,41
255.10692,255.21721,55,115,41
255.21721,255.3275,56,114,41
255.3275,255.43779,55,113,41
255.43779,255.6538,53,112,41
255.87897,255.98926,53,108,41
255.98926,256.09955,55,107,41
256.09955,256.20984,56,106,41
256.20984,256.32016,55,105,41
256.32016,256.43045,53,104,41
256.43045,256.54074,55,102,41
256.54074,256.65103,56,101,41
256.65103,256.76132,55,100,41
256.76132,256.92218,53,99,41
256.9819,257.14276,51,97,41
257.20248,257.36334,49,95,41
257.4231,257.58392,48,93,41
257.64368,257.8045,50,91,41
257.86426,258.02997,52,89,41
258.09152,258.20517,53,87,41
258.20517,258.31882,55,85,41
258.31882,258.43243,56,84,41
258.43243,258.54608,55,83,41
258.54608,258.7118,53,82,41
258.77335,258.93906,51,80,41
259.0006,259.17422,49,78,41
259.2387,259.41232,48,76,41
259.4768,259.65912,50,74,41
259.7268,259.9257,52,72,41
259.99954,260.45627,53,70,41
261.38416,261.84088,52,65,41
261.8457,262.30243,53,62,41
263.24496,263.73975,52,53,41
263.74496,265.38416,52,50,41
265.3904,266.1326,60,45,41
266.1404,267.2576,53,40,41
0.0,0.10714275,41,110,42
0.10714275,0.2142855,43,110,42
0.2142855,0.32142824,44,110,42
0.32142824,0.428571,43,110,42
0.428571,0.571428,41,110,42
0.6428565,0.7857135,39,110,42
0.857142,0.999999,37,110,42
1.0714275,1.2142845,36,110,42
1.285713,1.42857,38,110,42
1.4999985,1.6428555,40,110,42
1.714284,2.1383908,41,110,42
3.428568,3.8783782,48,100,42
4.224022,4.332923,48,100,42
4.337658,4.787468,48,100,42
5.133112,5.242013,48,100,42
5.246748,5.4692855,48,100,42
5.587657,5.701293,48,100,42
5.701293,5.9238305,53,100,42
6.0422015,6.155838,53,100,42
6.155838,6.38533,48,100,42
6.5074005,6.624588,48,100,42
6.624588,6.8614826,41,100,42
6.9874907,7.108458,41,100,42
7.108458,7.3532495,36,100,42
7.483458,7.627208,48,100,42
7.633458,8.227208,48,100,42
9.0906,9.197742,54,100,42
9.197742,9.304886,56,100,42
9.304886,9.412028,58,100,42
9.412028,9.519171,56,100,42
9.519171,9.675421,54,110,42
9.733457,9.889707,53,102,42
9.947742,10.1039915,51,94,42
10.162027,10.318277,49,85,42
10.376313,10.532563,51,77,42
10.590598,10.746848,53,68,42
10.804884,12.514704,54,60,42
12.519168,14.228988,56,60,42
14.233452,16.034073,55,60,42
16.03888,16.177273,36,70,42
16.181738,16.32013,40,85,42
16.324594,16.462986,43,100,42
16.467451,16.57013,46,100,42
16.574594,16.677273,48,93,42
16.681736,16.784414,52,85,42
16.78888,16.891558,55,77,42
16.896023,17.32013,58,70,42
17.753164,19.553783,36,60,42
17.753164,19.553783,43,60,42
19.558592,19.696985,36,60,42
19.701448,19.839842,40,69,42
19.844307,19.982698,43,79,42
19.987164,20.089842,46,88,42
20.094305,20.196983,48,96,42
20.201448,20.304127,52,103,42
20.308592,20.41127,55,110,42
20.415733,20.554127,58,110,42
20.558592,20.696983,60,97,42
20.701448,20.83984,64,83,42
20.844305,21.696983,67,70,42
21.701447,22.125553,67,60,42
22.130018,22.554125,64,60,42
22.55859,22.995169,67,60,42
22.999765,23.436346,65,60,42
23.44094,23.877522,65,60,42
23.882116,24.318697,64,60,42
24.323294,24.54583,65,60,42
24.550566,24.780058,68,60,42
24.78494,25.221521,67,60,42
25.226116,25.662697,67,60,42
25.667292,26.103872,64,60,42
26.108469,26.54505,67,60,42
26.549644,26.986225,65,60,42
26.99082,27.4274,53,60,42
27.431997,27.868576,55,60,42
27.873173,28.309753,56,60,42
28.314348,29.192104,43,110,42
29.196701,30.12331,36,110,42
30.128517,30.23566,41,110,42
30.23566,30.342804,43,110,42
30.342804,30.449945,44,110,42
30.449945,30.557089,43,110,42
30.557089,30.699945,41,110,42
30.771374,30.914232,39,110,42
30.98566,31.128517,37,110,42
31.199945,31.342802,36,110,42
31.41423,31.557089,38,110,42
31.628517,31.771374,40,110,42
31.842802,31.949945,41,125,42
31.949945,32.057087,43,115,42
32.057087,32.16423,44,110,42
32.16423,32.271374,43,110,42
32.271374,32.481194,41,110,42
32.699944,32.807087,42,125,42
32.807087,32.91423,44,115,42
32.91423,33.021374,46,110,42
33.021374,33.128513,44,110,42
33.128513,33.338337,42,110,42
33.557087,33.66423,43,120,42
33.66423,33.77137,44,120,42
33.77137,33.878513,46,120,42
33.878513,33.985657,48,120,42
33.985657,34.0928,49,120,42
34.0928,34.199944,51,120,42
34.199944,34.307087,49,120,42
34.307087,34.414227,48,120,42
34.414227,34.52137,46,120,42
34.52137,34.628513,48,120,42
34.628513,34.735657,46,120,42
34.735657,34.8428,44,120,42
34.8428,34.949944,43,120,42
34.949944,35.057083,41,120,42
35.057083,35.167377,39,120,42
35.167377,35.27767,37,120,42
35.27767,35.72748,36,120,42
37.09585,37.538948,49,60,42
37.543613,37.76283,51,60,42
37.767494,37.98671,53,60,42
37.991375,39.329994,54,60,42
39.334656,39.777756,56,60,42
39.782417,40.225513,57,60,42
40.23018,40.673275,56,60,42
40.67794,41.121037,56,60,42
43.812267,44.255363,36,60,42
44.26003,44.85238,37,60,42
44.857044,45.001633,41,60,42
45.006298,45.150887,42,60,42
45.155552,45.747902,44,60,42
45.752563,45.897156,48,60,42
45.901817,46.04641,49,60,42
46.05107,46.64342,51,60,42
46.648087,46.792675,53,60,42
46.79734,46.94193,54,60,42
46.946594,47.538944,56,60,42
47.54361,47.688198,56,60,42
47.692863,47.837452,54,60,42
47.842117,48.285213,53,60,42
50.976444,51.41954,48,60,42
51.424206,52.016556,49,65,42
52.021217,52.16581,53,71,42
52.17047,52.315063,54,72,42
52.319725,52.91208,53,74,42
52.91674,53.06133,54,80,42
53.065994,53.210583,56,82,42
53.21525,53.8076,54,83,42
53.812263,53.956852,56,90,42
53.961517,54.106106,58,91,42
54.11077,54.70312,54,93,42
54.707787,54.852375,56,99,42
54.85704,55.00163,58,100,42
55.006294,55.603306,56,100,42
55.603306,55.75256,58,100,42
55.75256,55.897152,60,100,42
55.901814,56.49883,57,100,42
56.49883,56.648083,58,100,42
56.648083,56.79267,60,100,42
56.797337,57.394352,58,100,42
57.394352,57.543606,60,93,42
57.543606,57.688194,61,91,42
57.69286,58.313126,58,89,42
58.313126,58.475826,60,81,42
58.475826,58.637283,61,80,42
58.64249,59.012283,60,70,42
59.14249,62.566597,36,100,42
59.14249,62.566597,44,100,42
62.57106,65.15704,36,100,42
62.57106,65.15704,44,100,42
65.16177,65.31802,44,100,42
65.389046,65.545296,44,100,42
65.61632,66.06613,45,120,42
66.52541,66.74795,45,120,42
66.752686,66.86632,47,120,42
66.86632,66.97996,49,120,42
66.97996,67.09359,50,120,42
67.09359,67.20723,52,120,42
67.20723,67.32628,54,120,42
67.32628,67.44532,56,120,42
67.44532,67.69012,45,120,42
67.94532,68.19012,50,120,42
69.90686,71.22579,54,60,42
72.11274,72.56947,61,60,42
72.57428,73.031006,63,60,42
73.95889,74.41563,61,60,42
74.42043,74.653564,63,60,42
74.65852,74.90332,42,60,42
74.90852,76.641,37,60,42
76.64546,76.75261,37,60,42
76.75261,76.85975,39,60,42
76.85975,76.966896,37,60,42
76.966896,77.074036,39,60,42
77.074036,77.181175,37,60,42
77.181175,77.28832,39,60,42
77.28832,77.39546,37,60,42
77.39546,77.50261,39,60,42
77.50261,77.60975,37,60,42
77.60975,77.71689,39,60,42
77.71689,77.824036,37,60,42
77.824036,77.931175,39,60,42
77.931175,78.03832,37,60,42
78.03832,78.14546,39,60,42
78.14546,78.25261,37,60,42
78.25261,78.35975,39,60,42
78.35975,80.069565,37,60,42
80.074036,80.181175,37,60,42
80.181175,80.288315,39,60,42
80.288315,80.39546,37,60,42
80.39546,80.5026,39,60,42
80.5026,80.60975,37,60,42
80.60975,80.71689,39,60,42
80.71689,80.82403,37,60,42
80.82403,80.931175,39,60,42
80.931175,81.038315,37,60,42
81.038315,81.14546,39,60,42
81.14546,81.2526,37,60,42
81.2526,81.35975,39,60,42
81.35975,81.46689,37,60,42
81.46689,81.57403,39,60,42
81.57403,81.681175,37,60,42
81.681175,81.788315,39,60,42
81.788315,81.89546,37,60,42
81.89546,82.0026,39,60,42
82.0026,82.10974,37,60,42
82.10974,82.21689,39,60,42
82.21689,82.32403,37,60,42
82.32403,82.431175,39,60,42
82.431175,82.538315,37,60,42
82.538315,82.64546,39,60,42
82.64546,82.754944,37,60,42
82.754944,82.86443,39,60,42
82.86443,82.97392,37,60,42
82.97392,83.08341,39,60,42
83.08341,83.1929,37,60,42
83.1929,83.30239,39,60,42
83.30239,83.41188,37,60,42
83.41188,83.52137,39,60,42
83.52137,83.63331,37,60,42
83.63331,83.745255,39,60,42
83.745255,83.85719,37,60,42
83.85719,83.96913,39,60,42
83.96913,84.08452,37,60,42
84.08452,84.1999,39,60,42
84.1999,84.315285,37,60,42
84.315285,84.43067,39,60,42
84.43067,84.579704,37,60,42
84.58452,84.73355,37,68,42
84.73836,84.8874,37,76,42
84.892204,85.05102,37,84,42
85.056145,85.223335,37,92,42
85.22902,85.40515,37,100,42
85.410835,86.50918,38,120,42
86.51378,86.62407,40,120,42
86.62407,86.73437,42,120,42
86.73437,86.84466,43,120,42
86.84466,86.95495,45,120,42
86.95495,87.06525,47,120,42
87.06525,87.17554,49,120,42
87.17554,87.61212,50,120,42
89.40178,90.72071,54,60,42
91.60766,92.04424,61,60,42
92.048836,92.48542,63,60,42
93.385735,93.83555,61,60,42
93.84028,94.07342,63,60,42
94.07838,94.323166,42,60,42
94.32838,96.06429,37,60,42
96.068756,96.1759,37,60,42
96.1759,96.28304,39,60,42
96.28304,96.39018,37,60,42
96.39018,96.49733,39,60,42
96.49733,96.60447,37,60,42
96.60447,96.71162,39,60,42
96.71162,96.818756,37,60,42
96.818756,96.9259,39,60,42
96.9259,97.03304,37,60,42
97.03304,97.14018,39,60,42
97.14018,97.24733,37,60,42
97.24733,97.35447,39,60,42
97.35447,97.46162,37,60,42
97.46162,97.568756,39,60,42
97.568756,97.675896,37,60,42
97.675896,97.78304,39,60,42
97.78304,99.49286,37,60,42
99.49732,99.60447,37,60,42
99.60447,99.71161,39,60,42
99.71161,99.818756,37,60,42
99.818756,99.925896,39,60,42
99.925896,100.03304,37,60,42
100.03304,100.14018,39,60,42
100.14018,100.24732,37,60,42
100.24732,100.35447,39,60,42
100.35447,100.46161,37,60,42
100.46161,100.568756,39,60,42
100.568756,100.675896,37,60,42
100.675896,100.783035,39,60,42
100.783035,100.89018,37,60,42
100.89018,100.99732,39,60,42
100.99732,101.10447,37,60,42
101.10447,101.21161,39,60,42
101.21161,101.426025,37,50,42
101.43059,101.54008,56,50,42
101.54008,101.64957,58,50,42
101.64957,101.759056,56,50,42
101.759056,101.868546,58,50,42
101.868546,101.978035,56,50,42
101.978035,102.087524,58,50,42
102.087524,102.53062,56,50,42
102.98305,103.43977,49,50,42
103.90612,104.40091,44,50,42
104.90612,105.01326,41,120,42
105.01326,105.12041,43,120,42
105.12041,105.22755,45,120,42
105.22755,105.334694,43,120,42
105.334694,105.490944,41,120,42
105.54897,105.70522,40,120,42
105.76326,105.91951,38,120,42
105.97755,106.1338,36,120,42
106.19183,106.34808,38,120,42
106.40612,106.56237,40,120,42
106.62041,107.04451,41,120,42
108.33469,108.44183,51,120,42
108.44183,108.54897,53,120,42
108.54897,108.65611,54,120,42
108.65611,108.76326,53,120,42
108.76326,108.91951,51,120,42
108.97755,109.1338,49,120,42
109.19183,109.348076,48,120,42
109.40611,109.56236,46,120,42
109.6204,109.77665,48,120,42
109.83469,109.99094,49,120,42
110.04897,110.473076,51,120,42
111.76325,111.8704,58,120,42
111.8704,111.97754,60,120,42
111.97754,112.08469,61,120,42
112.08469,112.191826,60,120,42
112.191826,112.348076,58,120,42
112.40611,112.56236,56,120,42
112.6204,112.77665,55,120,42
112.83469,112.99094,53,120,42
113.048965,113.205215,55,120,42
113.26325,113.4195,56,120,42
113.47754,113.90165,58,120,42
113.90611,114.01325,46,120,42
114.01325,114.1204,48,120,42
114.1204,114.22754,46,120,42
114.22754,114.33468,44,120,42
114.33468,114.441826,43,120,42
114.441826,114.548965,44,120,42
114.548965,114.65611,46,120,42
114.65611,114.76325,44,120,42
114.76325,114.87039,43,120,42
114.87039,114.97754,44,120,42
114.97754,115.08468,43,120,42
115.08468,115.191826,41,120,42
115.191826,115.937355,40,110,42
115.941826,116.0445,40,110,42
116.048965,116.7945,40,110,42
116.798965,116.90164,40,110,42
116.906105,117.5445,41,110,42
117.656105,117.75879,41,110,42
117.76325,118.40164,42,110,42
118.51325,118.61593,42,110,42
118.62039,119.25878,43,110,42
119.37039,119.47307,43,110,42
119.47753,120.11593,43,110,42
120.22753,120.33021,43,110,42
120.33468,120.97307,44,110,42
121.08468,121.187355,44,110,42
121.19182,121.83021,46,110,42
121.94182,122.044495,46,110,42
122.04896,122.156105,47,126,42
122.156105,122.263245,48,115,42
122.263245,122.370384,50,110,42
122.370384,122.47753,48,110,42
122.47753,122.901634,47,110,42
123.763245,123.870384,47,126,42
123.870384,123.97753,48,115,42
123.97753,124.08467,50,110,42
124.08467,124.19182,48,110,42
124.19182,124.628395,47,110,42
127.36101,129.07083,43,50,42
127.36101,129.07083,50,50,42
129.0753,130.78511,36,50,42
129.0753,130.78511,48,50,42
130.78958,130.89673,46,126,42
130.89673,131.00386,48,114,42
131.00386,131.11101,49,100,42
131.11101,131.21815,48,100,42
131.21815,131.64226,46,100,42
131.64671,132.4994,64,125,42
132.50386,132.61101,44,125,42
132.61101,132.71815,46,110,42
132.71815,132.82529,48,100,42
132.82529,132.93243,46,100,42
132.93243,133.36902,44,100,42
133.37361,134.33377,65,125,42
134.33897,134.46397,48,90,42
134.46397,134.58897,49,75,42
134.58897,134.70436,51,60,42
134.70436,134.81975,49,60,42
134.81975,136.101,48,60,42
136.10545,137.07289,41,100,42
137.07289,137.18318,43,88,42
137.18318,137.29349,44,85,42
137.29349,137.40378,41,82,42
137.40378,137.8605,36,79,42
137.86531,137.9807,48,100,42
137.9807,138.09608,49,85,42
138.09608,138.20323,51,70,42
138.20323,138.31036,49,70,42
138.31036,139.59161,48,70,42
139.59608,140.56036,41,110,42
140.56036,140.66751,43,98,42
140.66751,140.77466,44,95,42
140.77466,140.88179,41,92,42
141.31036,142.14519,37,100,42
142.16751,143.06342,40,100,42
143.08945,143.1966,41,110,42
143.1966,143.30374,43,110,42
143.30374,143.41089,44,110,42
143.41089,143.51802,43,110,42
143.51802,143.66089,41,110,42
143.73232,143.87517,39,110,42
143.9466,144.08945,37,110,42
144.16089,144.30374,36,110,42
144.37517,144.51802,38,110,42
144.58945,144.73232,40,110,42
144.80374,145.22784,41,110,42
146.51802,146.62517,41,125,42
146.62517,146.7323,43,115,42
146.7323,146.83945,44,110,42
146.83945,146.9466,43,110,42
146.9466,147.15642,41,110,42
147.37517,147.4823,42,125,42
147.4823,147.58945,44,115,42
147.58945,147.6966,46,110,42
147.6966,147.80374,44,110,42
147.80374,148.01355,42,110,42
148.2323,148.33945,43,120,42
148.33945,148.4466,44,120,42
148.4466,148.55374,46,120,42
148.55374,148.66087,48,120,42
148.66087,148.76802,49,120,42
148.76802,148.87517,51,120,42
148.87517,148.9823,49,120,42
148.9823,149.08945,48,120,42
149.08945,149.1966,46,120,42
149.1966,149.30373,48,120,42
149.30373,149.41087,46,120,42
149.41087,149.51802,44,120,42
149.51802,149.62831,43,120,42
149.62831,149.7386,41,120,42
149.7386,149.85399,39,120,42
149.85399,149.96938,37,120,42
149.96938,150.4261,36,120,42
151.77481,152.21138,49,60,42
152.21597,152.43198,51,60,42
152.43657,152.65256,53,60,42
152.65715,153.97609,54,60,42
153.98068,154.41727,56,60,42
154.42186,154.87859,57,60,42
154.88339,155.37819,56,60,42
155.38339,155.81998,56,60,42
158.47163,158.9082,48,60,42
158.91281,159.49644,49,60,42
159.50104,159.64351,53,71,42
159.6481,159.79056,54,74,42
159.79515,160.3788,56,76,42
160.38339,160.52585,60,90,42
160.53046,160.67291,61,90,42
160.6775,161.11409,60,90,42
161.11868,161.55527,53,90,42
161.55986,162.01659,58,90,42
162.0214,162.50429,52,77,42
162.50949,162.94608,53,70,42
162.95067,163.38725,48,70,42
163.39185,163.82843,57,70,42
163.83302,164.2696,48,70,42
164.2742,164.71078,58,70,42
164.71538,165.15196,48,70,42
165.15656,165.59312,58,70,42
165.59773,166.0343,48,70,42
166.03891,166.47548,57,70,42
166.48007,166.91666,48,70,42
166.92125,167.35783,57,70,42
167.36243,167.79901,48,70,42
167.8036,168.24019,58,70,42
168.24478,168.68137,48,70,42
168.68596,169.12254,58,70,42
169.12714,169.56372,48,70,42
169.56831,170.0049,48,70,42
170.00949,170.44606,36,70,42
170.45067,170.88724,48,70,42
170.89185,171.32841,36,70,42
171.33301,171.76959,48,70,42
171.77419,172.21077,36,70,42
172.21536,172.65195,48,70,42
172.65654,173.09312,36,70,42
173.09772,173.68596,41,70,42
173.68596,173.83301,45,74,42
173.83301,173.97548,48,75,42
173.98007,174.5683,53,77,42
174.5683,174.71536,55,81,42
174.71536,174.85783,57,82,42
174.86243,175.45065,58,84,42
175.45065,175.59772,60,88,42
175.59772,175.74017,62,89,42
175.74478,176.33301,58,91,42
176.33301,176.48007,60,95,42
176.48007,176.62253,62,96,42
176.62712,177.21536,60,98,42
177.21536,177.36243,62,102,42
177.36243,177.50488,64,103,42
177.50948,178.09772,61,105,42
178.09772,178.24477,62,109,42
178.24477,178.38724,64,110,42
178.39183,178.98007,62,110,42
178.98007,179.12712,64,96,42
179.12712,179.26959,65,92,42
179.27419,179.88745,62,88,42
179.88745,180.05016,64,73,42
180.05016,180.21161,65,70,42
180.21683,180.58661,64,70,42
180.71683,184.14093,36,100,42
180.71683,184.14093,43,100,42
184.14539,186.71236,36,100,42
184.14539,186.71236,43,100,42
186.71681,186.87306,36,100,42
186.9311,187.08736,37,100,42
187.14539,187.35521,38,120,42
188.00253,188.21236,38,120,42
188.21681,188.32396,40,120,42
188.32396,188.4311,42,120,42
188.4311,188.5414,43,120,42
188.5414,188.65169,45,120,42
188.65169,188.76707,46,120,42
188.76707,188.88246,48,120,42
188.88246,189.12724,50,120,42
189.38246,189.62724,55,120,42
191.38246,192.76227,58,60,42
193.64943,194.086,60,60,42
194.0906,194.52718,60,60,42
195.41412,195.85071,60,60,42
195.8553,196.29189,48,60,42
196.29648,198.0566,41,60,42
198.06119,198.17148,41,60,42
198.17148,198.28177,43,60,42
198.28177,198.39206,41,60,42
198.39206,198.50237,43,60,42
198.50237,198.61266,41,60,42
198.61266,198.72295,43,60,42
198.72295,198.83324,41,60,42
198.83324,198.94354,43,60,42
198.94354,199.05383,41,60,42
199.05383,199.16412,43,60,42
199.16412,199.27441,41,60,42
199.27441,199.3847,43,60,42
199.3847,199.49501,41,60,42
199.49501,199.6053,43,60,42
199.6053,199.71559,41,60,42
199.71559,199.82588,43,60,42
199.82588,201.586,41,60,42
201.59059,201.70088,41,60,42
201.70088,201.81117,43,60,42
201.81117,201.92148,41,60,42
201.92148,202.03177,43,60,42
202.03177,202.14206,41,60,42
202.14206,202.25235,43,60,42
202.25235,202.36266,41,60,42
202.36266,202.47295,43,60,42
202.47295,202.58324,41,60,42
202.58324,202.69353,43,60,42
202.69353,202.80383,41,60,42
202.80383,202.91412,43,60,42
202.91412,203.02441,41,60,42
203.02441,203.1347,43,60,42
203.1347,203.245,41,60,42
203.245,203.3553,43,60,42
203.3553,203.46559,41,60,42
203.46559,203.57588,43,60,42
203.57588,203.68617,41,60,42
203.68617,203.79648,43,60,42
203.79648,203.90677,41,60,42
203.90677,204.01706,43,60,42
204.01706,204.12735,41,60,42
204.12735,204.23764,43,60,42
204.23764,204.34795,41,60,42
204.34795,204.45824,43,60,42
204.45824,204.56853,41,60,42
204.56853,204.67882,43,60,42
204.67882,204.78912,41,60,42
204.78912,204.89941,43,60,42
204.89941,205.0097,41,60,42
205.0097,205.12,43,60,42
205.12,205.23364,41,60,42
205.23364,205.34727,43,60,42
205.34727,205.4609,41,60,42
205.4609,205.57454,43,60,42
205.57454,205.68819,41,60,42
205.68819,205.80182,43,60,42
205.80182,205.91545,41,60,42
205.91545,206.02908,43,60,42
206.02908,206.17587,41,70,42
206.1806,206.33076,41,78,42
206.33572,206.4895,41,86,42
206.49446,206.65591,42,94,42
206.66112,206.82968,42,102,42
206.83537,207.0115,42,110,42
207.01718,208.11552,43,120,42
208.12012,208.23042,45,120,42
208.23042,208.34071,46,120,42
208.34071,208.451,48,120,42
208.451,208.5613,50,120,42
208.5613,208.67668,52,120,42
208.67668,208.79207,54,120,42
208.79207,209.2488,55,120,42
211.13821,212.45715,58,60,42
213.3441,213.78069,60,60,42
213.78528,214.22186,60,60,42
215.10881,215.56554,60,60,42
215.57034,216.08739,48,60,42
216.09306,217.81937,41,60,42
217.82384,217.93098,41,60,42
217.93098,218.03812,43,60,42
218.03812,218.14526,41,60,42
218.14526,218.25241,43,60,42
218.25241,218.35956,41,60,42
218.35956,218.46669,43,60,42
218.46669,218.57384,41,60,42
218.57384,218.68098,43,60,42
218.68098,218.79128,41,60,42
218.79128,218.90157,43,60,42
218.90157,219.01186,41,60,42
219.01186,219.12216,43,60,42
219.12216,219.2358,41,60,42
219.2358,219.34943,43,60,42
219.34943,219.46848,41,60,42
219.46848,219.58752,43,60,42
219.58752,221.31033,41,60,42
221.31479,221.42194,41,60,42
221.42194,221.52908,43,60,42
221.52908,221.63622,41,60,42
221.63622,221.74336,43,60,42
221.74336,221.85051,41,60,42
221.85051,221.95766,43,60,42
221.95766,222.06479,41,60,42
222.06479,222.17194,43,60,42
222.17194,222.27908,41,60,42
222.27908,222.38622,43,60,42
222.38622,222.49336,41,60,42
222.49336,222.60051,43,60,42
222.60051,222.7108,41,60,42
222.7108,222.82109,43,60,42
222.82109,222.93648,41,60,42
222.93648,223.05186,43,60,42
223.05186,223.27783,41,50,42
223.28264,223.39801,60,50,42
223.39801,223.5134,62,50,42
223.5134,223.62878,60,50,42
223.62878,223.74417,62,50,42
223.74417,223.85956,60,50,42
223.85956,223.97495,62,50,42
223.97495,224.44617,60,50,42
224.92732,225.42212,53,50,42
225.92732,226.46709,48,50,42
227.01823,227.12537,49,125,42
227.12537,227.23251,51,120,42
227.23251,227.33966,53,120,42
227.33966,227.4468,51,120,42
227.4468,227.60304,49,120,42
227.66109,227.81734,48,120,42
227.87537,228.03162,46,120,42
228.08966,228.24591,44,120,42
228.30394,228.46019,46,120,42
228.51823,228.67447,48,120,42
228.73251,228.83966,49,125,42
228.83966,228.9468,51,110,42
228.9468,229.05394,53,110,42
229.05394,229.16109,51,110,42
229.16109,229.31734,49,110,42
229.37537,229.53162,48,110,42
229.58966,229.74591,46,110,42
229.80394,229.96019,44,110,42
230.01822,230.17447,46,110,42
230.23251,230.38876,48,110,42
230.4468,230.60304,49,110,42
230.66109,230.81734,53,110,42
230.87537,231.03162,56,125,42
231.08965,231.2459,61,110,42
231.30394,231.46019,41,110,42
231.51822,231.67447,44,110,42
231.73251,231.88876,49,110,42
231.9468,232.10304,53,110,42
232.16109,232.31734,44,110,42
232.37537,232.53162,49,110,42
232.58965,232.7459,53,125,42
232.80394,232.96019,56,110,42
233.01822,233.17447,61,110,42
233.23251,233.38876,56,110,42
233.4468,233.60304,53,110,42
233.66107,233.81732,49,110,42
233.87537,234.03162,47,110,42
234.08965,234.2459,50,110,42
234.30394,234.46019,53,125,42
234.51822,234.67447,59,110,42
234.73251,234.88876,62,110,42
234.9468,235.10304,59,110,42
235.16107,235.31732,53,110,42
235.37537,235.53162,50,110,42
235.58965,235.7459,43,110,42
235.80394,235.96019,50,110,42
236.01822,236.17447,55,125,42
236.2325,236.38875,59,110,42
236.4468,236.60304,62,110,42
236.66107,236.81732,59,110,42
236.87537,237.03162,64,110,42
237.08965,237.2459,60,110,42
237.30394,237.46017,36,110,42
237.51822,237.67447,40,110,42
237.7325,237.88875,43,125,42
237.9468,238.10304,48,110,42
238.16107,238.31732,36,125,42
238.37537,238.53162,39,110,42
238.58965,238.7459,45,110,42
238.80392,238.96017,48,110,42
239.01822,239.17447,36,110,42
239.2325,239.38875,39,110,42
239.4468,239.60304,45,125,42
239.66107,239.81732,48,110,42
239.87535,240.0316,46,125,42
240.08965,240.2459,49,110,42
240.30392,240.46017,55,110,42
240.51822,240.67447,58,110,42
240.7325,240.88875,46,110,42
240.9468,241.10304,49,110,42
241.16107,241.31732,55,125,42
241.37535,241.5316,58,110,42
241.58965,241.74931,48,125,42
241.80862,241.96829,60,110,42
242.0276,242.19084,36,125,42
242.25148,242.41975,48,110,42
242.48225,242.59282,41,120,42
242.71301,242.92284,44,120,42
242.9273,243.13713,48,120,42
243.14159,243.35141,53,120,42
243.35588,243.45856,41,120,42
243.57016,243.77998,45,120,42
243.78444,243.99426,48,120,42
243.99873,244.20856,53,120,42
244.21301,244.31569,41,120,42
244.4273,244.63712,46,120,42
244.64159,244.85141,49,120,42
244.85587,245.06569,53,120,42
245.07016,245.17284,41,120,42
245.28444,245.49426,46,120,42
245.49873,245.70854,49,120,42
245.71301,245.92284,53,120,42
245.92729,246.35141,41,120,42
248.49872,249.35141,64,120,42
249.35587,249.77997,65,120,42
251.92729,252.78615,64,120,42
252.79074,253.22733,65,120,42
253.23192,254.99202,60,120,42
254.99661,256.7567,56,116,42
256.76132,257.63907,53,99,42
257.64368,258.54135,48,91,42
258.54608,259.47186,44,82,42
259.4768,260.45627,41,74,42
260.4611,260.91782,41,70,42
260.9226,261.37933,37,68,42
261.38416,261.84088,36,65,42
262.30722,262.76395,41,59,42
262.76877,263.24,37,56,42
263.24496,263.73975,36,53,42
264.24496,264.78473,37,50,42
264.7904,265.38416,36,50,42
265.3904,266.1326,48,45,42
266.1404,267.2576,41,40,42
