start_time,end_time,note_value,velocity,instrument_program_number
0.0,0.2142856,65,1,40
0.84978896,1.412814,60,50,40
1.412814,1.662814,72,73,40
1.662814,2.837814,68,80,40
2.862814,4.037814,64,50,40
5.262814,6.012814,60,50,40
6.012814,6.262814,72,73,40
6.262814,7.437814,68,80,40
7.462814,8.6378145,64,50,40
9.862814,10.612814,65,60,40
10.612814,10.862814,72,60,40
10.862814,11.341981,75,60,40
11.362814,11.841981,73,64,40
11.862814,12.841981,72,68,40
12.862814,14.112814,71,76,40
14.112814,14.341981,80,86,40
14.362814,14.591981,79,88,40
14.612814,14.841981,77,90,40
14.862814,16.13067,77,90,40
16.13067,16.39853,76,75,40
16.39853,16.676306,77,72,40
16.676306,16.951305,71,69,40
16.976307,17.576305,71,66,40
17.576305,18.176306,72,60,40
20.4818,21.960968,72,60,40
21.9818,22.460968,73,83,40
22.4818,23.210968,73,90,40
23.2318,23.477337,85,75,40
23.499657,24.074657,83,60,40
24.099657,24.674658,84,60,40
24.699657,26.178823,72,60,40
26.199657,26.678823,73,83,40
26.699657,27.480907,73,90,40
27.50323,27.778229,85,75,40
27.803228,28.37823,83,60,40
28.403229,28.97823,84,60,40
30.11434,30.627733,83,60,40
30.650055,31.163446,84,60,40
32.2572,32.550945,83,60,40
32.557198,32.85095,84,64,40
33.157196,33.424244,83,73,40
33.429924,33.696968,84,78,40
33.975376,34.10606,83,87,40
34.11174,34.242424,84,90,40
34.248104,34.367897,83,92,40
34.373104,34.492897,84,94,40
34.498104,34.617897,83,97,40
34.623104,34.742897,84,99,40
34.748104,34.867897,83,101,40
34.873104,34.992897,84,103,40
34.998104,35.12203,83,106,40
35.127415,35.25134,84,108,40
35.256725,35.387405,83,110,40
35.39309,35.53684,84,90,40
35.54309,35.66809,84,70,40
35.66809,35.78788,80,70,40
36.29309,36.41809,80,70,40
36.41809,36.53788,77,70,40
37.04309,37.16809,84,70,40
37.16809,37.28788,80,70,40
37.79309,37.91809,80,70,40
37.91809,38.03788,77,70,40
38.29309,38.53788,77,70,40
38.54309,38.78788,82,80,40
38.79309,38.97538,84,90,40
39.04309,39.22538,85,100,40
39.29309,39.78788,84,80,40
39.79309,40.03788,77,70,40
40.04309,40.28788,82,80,40
40.29309,40.47538,84,90,40
40.54309,40.72538,85,100,40
40.79309,41.28788,84,80,40
41.29309,41.53788,77,70,40
41.54309,41.78788,77,70,40
41.79309,42.03788,76,70,40
42.04309,42.28788,77,70,40
42.29309,42.53788,80,70,40
42.54309,42.78788,79,70,40
42.79309,43.03788,80,70,40
43.04309,43.10559,79,70,40
43.10559,43.53788,84,70,40
43.54309,43.66809,82,70,40
43.66809,43.79309,79,70,40
43.79309,44.03788,82,70,40
44.04309,44.22538,80,70,40
44.29309,44.47538,77,70,40
44.54309,44.60559,77,70,40
44.60559,44.66809,79,70,40
44.66809,44.79309,77,71,40
44.79309,45.03788,76,72,40
45.04309,45.28788,77,75,40
45.29309,45.35559,80,78,40
45.35559,45.41809,82,79,40
45.41809,45.54309,80,79,40
45.54309,45.78788,79,81,40
45.79309,46.03788,80,84,40
46.04309,46.10559,79,86,40
46.10559,46.53788,84,87,40
46.54309,46.66809,82,92,40
46.66809,46.79309,79,93,40
46.79309,47.03788,82,95,40
47.04309,47.22538,80,98,40
47.29309,47.47538,77,100,40
47.54309,47.66809,84,100,40
47.66809,47.79309,82,100,40
47.79309,47.91809,79,100,40
47.91809,48.04309,80,100,40
48.04309,48.16809,76,100,40
48.16809,48.29309,77,100,40
48.29309,48.41809,71,100,40
48.41809,48.54309,72,100,40
48.54309,48.66809,67,100,40
48.66809,48.79309,68,100,40
48.79309,48.91809,64,100,40
48.91809,49.04309,65,100,40
49.04309,49.16809,60,100,40
49.16809,49.29309,61,100,40
49.29309,49.41809,62,100,40
49.41809,49.54309,63,100,40
49.54309,49.66809,64,100,40
49.66809,49.79309,65,100,40
49.79309,49.91809,66,100,40
49.91809,50.04309,67,100,40
50.04309,50.16809,68,100,40
50.16809,50.29309,69,100,40
50.29309,50.41809,70,100,40
50.41809,50.54309,71,100,40
50.54309,50.66809,72,100,40
50.66809,50.79309,73,100,40
50.79309,50.91809,74,100,40
50.91809,51.04309,75,100,40
51.04309,51.16809,76,100,40
51.16809,51.29309,77,100,40
51.29309,51.41809,79,103,40
51.41809,51.54309,80,107,40
51.54309,51.672398,81,111,40
51.672398,51.80171,82,114,40
51.80171,51.938072,83,118,40
51.938072,52.088074,84,122,40
52.088074,52.681824,85,125,40
53.888073,58.40966,70,50,40
58.915344,59.040344,72,60,40
59.040344,59.165344,68,60,40
59.665344,59.790344,68,60,40
59.790344,59.915344,65,60,40
60.415344,60.540344,72,60,40
60.540344,60.665344,68,60,40
61.165344,61.290344,68,60,40
61.290344,61.415344,65,60,40
61.915344,62.160133,70,60,40
62.165344,62.347633,72,60,40
62.415344,62.597633,73,60,40
62.665344,63.160133,72,60,40
63.165344,63.410133,65,60,40
63.415344,63.660133,70,60,40
63.665344,63.847633,72,60,40
63.915344,64.09763,73,60,40
64.165344,64.66013,72,60,40
64.665344,64.91013,65,60,40
64.915344,65.16013,65,60,40
65.165344,65.41013,64,60,40
65.415344,65.66013,65,60,40
65.665344,65.91013,68,60,40
65.915344,66.16013,67,60,40
66.165344,66.41013,68,60,40
66.415344,66.91013,72,60,40
66.915344,67.040344,70,60,40
67.040344,67.165344,67,60,40
67.165344,67.41013,70,60,40
67.415344,67.59763,68,60,40
67.665344,67.84763,65,60,40
67.915344,68.16013,65,60,40
68.165344,68.41013,64,60,40
68.415344,68.66013,65,60,40
68.665344,68.91013,68,60,40
68.915344,69.16013,67,60,40
70.665344,70.91013,73,98,40
70.915344,71.16013,75,100,40
71.165344,71.41013,74,100,40
71.415344,71.66013,76,125,40
71.665344,71.91013,79,100,40
71.915344,72.16013,77,100,40
72.165344,72.41013,78,125,40
72.415344,72.66013,80,100,40
72.665344,72.91013,79,100,40
72.915344,73.16013,80,125,40
73.165344,73.66013,69,125,40
73.165344,73.66013,81,125,40
74.602844,74.72263,75,100,40
74.665344,75.16013,87,100,40
76.165344,76.66013,57,70,40
76.852844,76.97263,75,70,40
76.915344,77.41013,87,70,40
77.602844,77.72263,57,70,40
77.665344,78.16013,69,70,40
79.165344,79.66013,65,110,40
79.165344,79.66013,74,110,40
79.165344,79.66013,80,110,40
80.602844,80.72263,74,110,40
80.665344,81.16013,89,110,40
82.165344,82.66013,68,70,40
82.852844,82.97263,62,70,40
82.915344,83.41013,77,70,40
83.602844,83.72263,59,70,40
83.665344,84.16013,71,70,40
84.415344,85.28513,79,70,40
85.290344,85.415344,83,100,40
85.415344,85.540344,86,100,40
85.540344,85.665344,83,94,40
85.665344,85.790344,84,87,40
85.790344,85.915344,87,80,40
85.915344,86.78513,79,70,40
86.790344,86.915344,83,100,40
86.915344,87.040344,86,100,40
87.040344,87.165344,83,94,40
87.165344,87.290344,84,87,40
87.290344,87.41013,87,80,40
87.415344,87.540344,84,70,40
87.540344,87.665344,79,70,40
87.665344,87.790344,80,70,40
87.790344,87.915344,79,70,40
87.915344,88.040344,80,70,40
88.040344,88.165344,76,70,40
88.165344,88.290344,77,70,40
88.290344,88.415344,73,70,40
88.415344,88.540344,74,70,40
88.540344,88.665344,77,70,40
88.665344,88.790344,79,70,40
88.790344,88.915344,80,70,40
88.915344,89.040344,79,70,40
89.040344,89.165344,80,70,40
89.165344,89.290344,81,70,40
89.290344,89.415344,82,70,40
89.415344,89.544655,83,70,40
89.544655,89.673965,84,70,40
89.673965,89.803276,85,70,40
89.803276,89.93259,86,70,40
89.93259,90.06895,87,70,40
90.06895,90.205315,88,70,40
90.205315,90.34682,89,70,40
90.34682,90.49682,90,70,40
90.49682,90.64057,91,100,40
90.64682,90.77517,79,70,40
90.78075,90.90054,91,70,40
90.90575,91.02554,91,70,40
91.03075,91.15054,91,70,40
91.15575,91.27554,91,70,40
91.28075,91.40054,91,100,40
91.40575,91.52554,79,70,40
91.53075,91.65054,91,70,40
91.65575,91.77554,91,70,40
91.78075,91.90054,91,70,40
91.90575,92.02554,91,70,40
92.03075,92.15054,91,100,40
92.15575,92.27554,79,70,40
92.28075,92.40054,91,70,40
92.40575,92.52554,91,70,40
92.53075,92.65054,91,70,40
92.65575,92.77554,91,70,40
92.78075,92.90054,91,100,40
92.90575,93.02554,79,70,40
93.03075,93.15054,91,70,40
93.15575,93.27554,83,70,40
93.28075,93.40054,91,70,40
93.40575,93.52554,86,70,40
93.53075,93.65054,91,100,40
93.65575,93.77554,79,70,40
93.78075,93.90054,91,70,40
93.90575,94.02554,91,70,40
94.03075,94.15054,91,70,40
94.15575,94.27554,91,70,40
94.28075,94.40054,91,100,40
94.40575,94.52554,79,70,40
94.53075,94.65054,91,70,40
94.65575,94.77554,91,70,40
94.78075,94.90054,91,70,40
94.90575,95.02554,91,70,40
95.03075,95.15054,91,100,40
95.15575,95.27554,79,70,40
95.28075,95.40054,91,70,40
95.40575,95.52554,91,70,40
95.53075,95.65054,91,70,40
95.65575,95.77554,91,70,40
95.78075,95.90575,91,100,40
95.90575,96.02554,79,70,40
96.03075,96.15575,91,70,40
96.15575,96.27554,83,70,40
96.28075,96.40054,91,100,40
96.40575,96.52554,91,70,40
96.53075,96.65575,91,70,40
96.65575,96.78075,79,70,40
96.78075,96.90575,91,70,40
96.90575,97.03075,89,70,40
97.03075,97.15575,87,70,40
97.15575,97.28075,86,70,40
97.28075,97.40575,84,70,40
97.40575,97.53075,82,70,40
97.53075,97.65575,80,70,40
97.65575,97.78075,79,70,40
97.78075,97.90575,77,100,40
97.90575,98.03075,75,70,40
98.03075,98.15575,74,70,40
98.15575,98.28075,72,70,40
98.28075,98.40575,71,70,40
98.40575,98.53075,72,70,40
98.53075,98.65575,75,70,40
98.65575,98.78075,72,70,40
98.78075,98.90575,76,70,40
98.90575,99.03075,72,70,40
99.03075,99.15575,77,70,40
99.15575,99.28075,72,70,40
99.28075,99.40575,78,70,40
99.40575,99.53075,72,70,40
99.53075,99.65575,79,70,40
99.65575,99.78075,72,70,40
99.78075,99.90575,80,70,40
99.90575,100.03075,72,70,40
100.03075,100.16006,81,70,40
100.16006,100.28937,72,70,40
100.28937,100.41868,82,70,40
100.41868,100.54799,72,70,40
100.54799,100.68436,83,70,40
100.68436,100.82072,72,70,40
100.82072,100.96223,84,70,40
100.96223,101.11223,72,70,40
101.11223,101.23723,84,70,40
101.23723,101.36223,80,70,40
101.86223,101.98723,80,70,40
101.98723,102.11223,77,70,40
102.61223,102.73723,84,70,40
102.73723,102.86223,80,70,40
103.36223,103.48723,80,70,40
103.48723,103.61223,77,70,40
103.86223,104.10702,77,70,40
104.11223,104.35702,82,70,40
104.36223,104.54452,84,70,40
104.61223,104.79452,85,70,40
104.86223,105.35702,84,70,40
105.36223,105.60702,77,70,40
105.61223,105.85702,82,70,40
105.86223,106.04452,84,70,40
106.11223,106.29452,85,70,40
106.36223,106.85702,84,70,40
108.36223,108.60702,65,70,40
108.61223,108.865456,66,70,40
108.87085,109.059425,68,70,40
109.12946,109.32833,70,70,40
109.40219,109.94196,68,70,40
111.44765,111.69244,75,70,40
111.69765,111.94244,77,70,40
111.94765,112.13622,78,70,40
112.20627,112.40513,80,70,40
112.479,113.01877,78,70,40
113.02445,113.2915,78,100,40
113.29718,113.54197,75,70,40
113.54718,113.72947,73,70,40
113.79718,113.97947,72,70,40
114.54718,114.79197,78,100,40
114.79718,115.04197,75,70,40
115.04718,115.22947,73,70,40
115.29718,115.47947,72,70,40
116.04718,116.29197,77,100,40
116.29718,116.54197,74,70,40
116.54718,116.72947,72,70,40
116.79718,116.97947,71,70,40
117.54718,117.79197,77,100,40
117.79718,118.04197,74,70,40
118.04718,118.22947,72,70,40
118.29718,118.47947,71,70,40
119.04718,119.29197,80,100,40
119.29718,119.54197,77,70,40
119.54718,119.72947,75,70,40
119.79718,119.97947,74,70,40
120.54718,120.79197,80,100,40
120.79718,121.04197,77,70,40
121.04718,121.22947,75,70,40
121.29718,121.47947,74,70,40
122.04718,122.29197,80,100,40
122.29718,122.55041,77,70,40
122.55579,122.822845,75,70,40
122.82852,122.96489,73,70,40
122.96489,123.095566,85,70,40
123.10125,123.34604,85,70,40
123.35125,123.59604,80,70,40
123.60125,123.84604,82,70,40
123.85125,123.97625,77,70,40
123.97625,124.10125,78,70,40
124.10125,124.22625,74,70,40
124.22625,124.35125,75,70,40
124.35125,124.47625,78,70,40
124.47625,124.60125,82,70,40
124.60125,124.72625,77,70,40
124.72625,124.85125,78,70,40
124.85125,124.97625,74,70,40
124.97625,125.10125,75,70,40
125.10125,125.22625,78,70,40
125.22625,125.35125,82,60,40
125.35125,125.47625,80,50,40
125.47625,125.60125,77,50,40
126.10125,126.22625,77,50,40
126.22625,126.35125,73,50,40
126.85125,126.97625,78,50,40
126.97625,127.10125,75,50,40
127.60125,127.72625,84,50,40
127.72625,127.85125,75,50,40
128.35126,128.47626,85,50,40
128.47626,128.60126,77,50,40
129.10126,129.22626,86,50,40
129.22626,129.35126,77,50,40
129.85126,129.97626,87,50,40
129.97626,130.10126,78,50,40
130.60126,130.73056,89,50,40
130.73056,130.85988,77,50,40
131.3771,131.51347,89,50,40
131.51347,131.64984,77,50,40
131.92256,132.1896,82,50,40
132.1953,132.46234,87,63,40
132.46802,132.65031,89,77,40
132.71802,132.90031,90,90,40
132.96802,133.46281,89,50,40
133.46802,133.53052,82,50,40
133.53052,133.59302,84,53,40
133.59302,133.65552,82,56,40
133.65552,133.71802,84,60,40
133.71802,133.96281,87,63,40
133.96802,134.15031,89,77,40
134.21802,134.40031,90,90,40
134.46802,134.96281,89,50,40
134.96802,135.21281,82,50,40
135.21802,135.28052,82,50,40
135.28052,135.34302,84,51,40
135.34302,135.46802,82,53,40
135.46802,135.71281,81,56,40
135.71802,135.96281,82,63,40
135.96802,136.21281,85,70,40
136.21802,136.46281,84,77,40
136.46802,136.65552,85,84,40
136.65552,136.77531,84,89,40
136.71802,137.21281,89,90,40
137.21802,137.34302,87,75,40
137.34302,137.46281,84,72,40
137.46802,137.71281,87,70,40
137.71802,137.96281,85,70,40
137.96802,138.21281,84,70,40
138.21802,138.46281,84,70,40
138.46802,138.71281,82,73,40
138.71802,138.96281,80,77,40
138.96802,139.21281,80,81,40
139.21802,139.46281,79,85,40
139.46802,139.71281,77,89,40
139.71802,139.96281,77,93,40
139.96802,140.21281,76,97,40
140.21802,140.46281,77,100,40
140.46802,140.71281,77,100,40
140.71802,140.96281,76,90,40
140.96802,141.21281,88,80,40
141.21802,141.71281,89,70,40
143.21802,143.46281,76,70,40
143.46802,143.71281,76,70,40
143.71802,143.96281,74,72,40
143.96802,144.21281,76,75,40
144.21802,144.46281,79,78,40
144.46802,144.71281,77,81,40
144.71802,144.96281,79,84,40
144.96802,145.21281,80,87,40
145.21802,145.46281,79,90,40
145.46802,145.71281,81,93,40
145.71802,145.96281,84,96,40
145.96802,146.21281,82,99,40
146.21802,146.46281,83,100,40
146.46802,146.71281,85,70,40
146.71802,146.96281,84,70,40
146.96802,147.21281,86,100,40
147.21802,147.46281,87,70,40
147.46802,147.71281,86,70,40
147.71802,147.96281,88,100,40
147.96802,148.21281,89,70,40
148.21802,148.46281,88,70,40
148.46802,148.71281,89,100,40
148.65552,148.77531,80,120,40
148.71802,149.21281,92,120,40
150.21802,150.71281,56,120,40
150.21802,150.71281,65,120,40
150.21802,150.71281,74,120,40
151.71802,152.21281,77,70,40
152.40552,152.52531,74,70,40
152.46802,152.96281,86,70,40
153.15552,153.27531,62,70,40
153.21802,153.72125,74,70,40
154.76073,155.25552,85,120,40
154.76073,155.25552,76,120,40
154.76073,155.25552,67,120,40
156.26073,156.75552,55,120,40
156.26073,156.75552,64,120,40
157.76073,158.25552,76,70,40
158.44823,158.56802,73,70,40
158.51073,159.00552,85,70,40
159.19823,159.31802,61,70,40
159.26073,159.76396,73,70,40
160.04208,160.9398,72,70,40
160.9398,161.0648,76,100,40
161.0648,161.1898,79,100,40
161.1898,161.3148,76,94,40
161.3148,161.4398,77,87,40
161.4398,161.5648,80,80,40
161.5648,162.4398,72,70,40
162.4398,162.5648,76,100,40
162.5648,162.69412,79,100,40
162.69412,162.82343,76,94,40
162.82343,162.9598,77,87,40
162.9598,163.09616,80,80,40
163.09616,163.23251,77,70,40
163.23251,163.36888,72,70,40
163.36888,163.49388,73,70,40
163.49388,163.61888,72,70,40
163.61888,163.74388,73,70,40
163.74388,163.86888,69,70,40
163.86888,163.99388,70,70,40
163.99388,164.11888,66,70,40
164.11888,164.24388,67,70,40
164.24388,164.36888,70,70,40
164.36888,164.49388,72,70,40
164.49388,164.61888,73,70,40
164.61888,164.74388,72,70,40
164.74388,164.86888,73,70,40
164.86888,164.99388,74,70,40
164.99388,165.11888,75,70,40
165.11888,165.24388,76,70,40
165.24388,165.36888,77,70,40
165.36888,165.49388,78,70,40
165.49388,165.61888,79,70,40
165.61888,165.74818,80,70,40
165.74818,165.8775,81,70,40
165.8775,166.01387,82,70,40
166.01387,166.16386,83,70,40
166.16386,166.29454,84,100,40
166.30023,166.42001,72,70,40
166.42523,166.54501,84,70,40
166.55023,166.67001,84,70,40
166.67523,166.79501,84,70,40
166.80023,166.92001,84,70,40
166.92523,167.04501,84,100,40
167.05023,167.17001,72,70,40
167.17523,167.29501,84,70,40
167.30023,167.42001,84,70,40
167.42523,167.54501,84,70,40
167.55023,167.67001,84,70,40
167.67523,167.79501,84,100,40
167.80023,167.92001,72,70,40
167.92523,168.04501,84,70,40
168.05023,168.17001,84,70,40
168.17523,168.29501,84,70,40
168.30023,168.42001,84,70,40
168.42523,168.55023,84,100,40
168.55023,168.67523,72,70,40
168.67523,168.80023,84,70,40
168.80023,168.92523,76,70,40
168.92523,169.05023,84,70,40
169.05023,169.17523,79,70,40
169.17523,169.29501,84,100,40
169.30023,169.42001,72,70,40
169.42523,169.54501,84,70,40
169.55023,169.67001,84,70,40
169.67523,169.79501,84,70,40
169.80023,169.92001,84,70,40
169.92523,170.04501,84,100,40
170.05023,170.17001,72,70,40
170.17523,170.29501,84,70,40
170.30023,170.42001,84,70,40
170.42523,170.54501,84,70,40
170.55023,170.67001,84,70,40
170.67523,170.79501,84,100,40
170.80023,170.92001,72,70,40
170.92523,171.04501,84,70,40
171.05023,171.17001,84,70,40
171.17523,171.29915,84,70,40
171.30453,171.42847,84,70,40
171.43385,171.5702,84,100,40
171.5702,171.70657,72,70,40
171.70657,171.84808,84,70,40
171.84808,171.9896,76,70,40
171.9896,172.13959,84,100,40
172.13959,172.2896,79,70,40
172.2896,172.4146,84,70,40
172.4146,172.5396,80,70,40
173.0396,173.1646,80,70,40
173.1646,173.2896,77,70,40
173.7896,173.9146,84,70,40
173.9146,174.0396,80,70,40
174.5396,174.6646,80,70,40
174.6646,174.7896,77,70,40
175.0396,175.28438,77,70,40
175.2896,175.53438,82,80,40
175.5396,175.72188,84,90,40
175.7896,175.97188,85,100,40
176.0396,176.53438,84,70,40
176.5396,176.78438,77,70,40
176.7896,177.03438,82,80,40
177.0396,177.22188,84,90,40
177.2896,177.47188,85,100,40
177.5396,178.03438,84,70,40
178.0396,178.28438,84,70,40
178.2896,178.53438,84,70,40
178.5396,178.78438,82,73,40
178.7896,179.03438,80,76,40
179.0396,179.28438,80,79,40
179.2896,179.53438,79,82,40
179.5396,179.78438,77,85,40
179.7896,180.03438,76,88,40
180.0396,180.28438,84,91,40
180.2896,180.54283,88,94,40
180.54822,180.81526,88,97,40
180.82094,181.09807,89,100,40
181.10396,181.3977,72,90,40
181.40396,181.89876,72,70,40
182.15396,182.39876,68,70,40
182.40396,182.64876,67,70,40
182.65396,182.89876,69,70,40
182.90396,183.39876,77,70,40
183.65396,183.89876,72,70,40
183.90396,184.14876,70,70,40
184.15396,184.39876,71,70,40
184.40396,184.89876,74,60,40
185.15396,185.39876,72,60,40
185.40396,185.64876,70,60,40
185.65396,185.89876,71,60,40
185.90396,186.39876,79,60,40
186.65396,186.89876,74,60,40
186.90396,187.14876,71,60,40
187.15396,187.39876,72,60,40
187.40396,187.52896,73,50,40
187.52896,187.65396,70,50,40
188.15396,188.27896,70,50,40
188.27896,188.40396,67,50,40
188.90396,189.02896,73,50,40
189.02896,189.15396,70,57,40
189.66258,189.79189,70,93,40
189.79189,189.9212,67,100,40
190.33029,190.39847,65,110,40
190.39847,190.46666,68,110,40
190.46666,191.25064,77,110,40
191.25613,191.38771,80,110,40
191.38771,191.51381,77,110,40
191.51929,191.77696,77,110,40
192.0456,192.81607,70,110,40
192.0456,192.81607,77,110,40
192.82146,192.95078,82,110,40
192.95078,193.07469,77,110,40
193.08008,193.33331,77,110,40
193.59732,194.35474,65,110,40
193.59732,194.35474,72,110,40
193.59732,194.35474,77,110,40
194.36003,194.48715,84,110,40
194.48715,194.60898,77,110,40
194.61427,194.8632,77,110,40
195.12274,195.24774,85,110,40
195.24774,195.36754,77,110,40
195.37274,195.61754,77,110,40
195.87274,195.99774,84,110,40
195.99774,196.11754,76,110,40
196.12274,196.36754,76,110,40
196.62274,196.86754,61,110,40
197.12274,197.61754,77,110,40
197.74774,197.87274,77,110,40
197.87274,197.99774,80,110,40
197.99774,198.12274,77,110,40
198.12274,198.36754,58,110,40
198.62274,199.11754,77,110,40
199.24774,199.37274,77,110,40
199.37274,199.49774,82,110,40
199.49774,199.62274,77,110,40
199.62274,199.86754,57,110,40
200.12274,200.61754,77,110,40
200.74774,200.87274,77,110,40
200.87274,200.99774,84,110,40
200.99774,201.11754,77,110,40
201.12274,201.36754,77,110,40
201.37274,201.61754,77,110,40
201.62274,201.74774,85,125,40
201.74774,201.87274,77,110,40
201.87274,202.11754,76,110,40
202.12274,202.36754,76,110,40
202.37274,202.49774,84,125,40
202.49774,202.62274,76,110,40
202.62274,202.86754,77,110,40
202.87274,203.11754,77,103,40
203.12274,203.24774,85,96,40
203.24774,203.37274,77,92,40
203.37274,203.61754,76,88,40
203.62274,203.87598,76,81,40
203.88136,204.01773,84,73,40
204.01773,204.1541,76,70,40
204.1541,204.42114,65,70,40
204.42682,204.69386,65,69,40
204.69954,204.8359,73,67,40
204.8359,204.9666,65,66,40
204.97227,205.23932,65,65,40
205.245,205.52213,65,63,40
205.52802,205.67802,73,61,40
205.67802,205.82176,65,60,40
205.82802,207.32176,73,60,40
207.62802,207.89507,64,70,40
207.90074,208.16779,64,70,40
208.17348,208.30983,72,70,40
208.30983,208.44052,64,70,40
208.4462,208.71324,64,70,40
208.71893,208.99605,64,70,40
209.00194,209.15195,72,70,40
209.15195,209.2957,64,70,40
209.30194,211.09569,72,60,40
211.10194,212.64828,72,70,40
212.65367,213.42415,73,90,40
213.42953,214.2,79,100,40
214.2054,215.75172,72,96,40
215.75711,216.52759,73,90,40
216.53297,217.30345,79,100,40
217.30884,218.07932,72,90,40
218.0847,218.59656,73,70,40
218.60194,218.85518,79,70,40
218.86057,219.63103,72,70,40
219.63643,220.14827,73,70,40
220.15366,220.40689,79,70,40
220.41228,221.18275,72,70,40
221.18814,221.44138,72,70,40
221.44676,221.7,73,70,40
221.70538,221.95862,72,70,40
222.7491,223.01138,65,60,40
223.01697,223.28896,64,60,40
223.29474,223.58849,65,60,40
223.59474,225.38849,65,50,40
225.39474,229.18433,65,40,40
230.19473,230.68953,66,70,40
230.69473,231.02818,67,70,40
231.03265,231.13533,68,70,40
231.13979,231.24248,69,70,40
231.24693,231.34961,64,70,40
231.35408,231.4499,65,70,40
231.45407,231.54991,62,70,40
231.55408,231.64992,60,70,40
231.65408,231.74991,62,70,40
231.75407,231.84991,64,70,40
231.85408,231.9499,65,70,40
231.95407,232.04991,67,70,40
232.05408,232.14992,69,70,40
232.15408,232.24991,70,70,40
232.25407,232.34991,72,70,40
232.35408,232.4499,74,70,40
232.45407,232.54991,76,70,40
232.55408,232.64992,77,70,40
232.65408,232.74991,79,70,40
232.75407,232.84991,81,70,40
232.85408,232.9499,82,70,40
232.95407,233.04991,84,70,40
233.05408,233.14992,86,70,40
233.15408,233.25531,84,70,40
233.2597,233.36095,81,70,40
233.36534,233.47183,82,70,40
233.47646,233.58293,79,70,40
233.58757,233.69405,77,60,40
233.69868,233.79451,72,60,40
233.79868,233.89452,72,60,40
233.89868,233.9945,72,60,40
233.99867,234.09451,77,60,40
234.09868,234.1945,73,60,40
234.19868,234.29451,73,60,40
234.29868,234.39452,73,60,40
234.39868,234.4945,77,60,40
234.49867,234.59451,74,60,40
234.59868,234.6945,74,60,40
234.69868,234.79451,74,60,40
234.79868,234.89452,82,60,40
234.89868,234.9945,76,60,40
234.99867,235.09451,76,60,40
235.09868,235.1945,76,60,40
235.19868,235.29451,79,60,40
235.29868,235.39452,77,60,40
235.39868,235.4945,77,60,40
235.49867,235.59451,77,60,40
235.59868,235.6945,77,60,40
235.69868,235.79451,73,60,40
235.79868,235.89452,73,60,40
235.89868,235.9945,73,60,40
235.99867,236.09451,77,60,40
236.09868,236.1945,74,60,40
236.19868,236.29451,74,60,40
236.29868,236.39452,74,60,40
236.39868,236.4945,82,60,40
236.49867,236.59451,76,60,40
236.59868,236.6945,76,60,40
236.69868,236.79451,76,60,40
236.79868,237.09451,84,70,40
237.09868,237.1945,89,70,40
237.19868,237.29451,89,70,40
237.29868,237.39452,88,70,40
237.39868,237.4945,86,70,40
237.49867,237.59451,84,70,40
237.59868,237.89452,84,70,40
237.89868,237.9945,89,70,40
237.99867,238.09451,89,70,40
238.09868,238.1945,88,70,40
238.19868,238.29451,86,70,40
238.29868,238.39452,84,70,40
238.39868,238.6945,84,70,40
238.69868,238.79451,89,70,40
238.79868,238.89452,89,70,40
238.89868,238.9945,88,70,40
238.99867,239.09451,86,70,40
239.09868,239.1945,84,70,40
239.19868,239.4945,84,70,40
239.49867,239.59451,89,70,40
239.59868,239.6945,89,70,40
239.69868,239.79451,88,70,40
239.79868,239.89452,86,70,40
239.89868,239.9945,84,70,40
239.99867,240.09451,89,70,40
240.09868,240.1945,89,71,40
240.19868,240.29451,88,72,40
240.29868,240.39452,86,73,40
240.39868,240.4945,84,74,40
240.49867,240.59451,83,75,40
240.59868,240.6945,81,76,40
240.69868,240.79451,79,77,40
240.79868,240.89452,77,78,40
240.89868,240.9945,76,79,40
240.99867,241.09451,74,80,40
241.09868,241.1945,72,81,40
241.19868,241.29451,71,82,40
241.29868,241.39452,69,83,40
241.39868,241.4945,67,84,40
241.49867,241.59451,65,85,40
241.59868,241.6945,64,86,40
241.69868,241.79451,67,87,40
241.79868,241.89452,70,88,40
241.89868,241.9945,72,89,40
241.99867,242.09451,76,90,40
242.09868,242.1945,79,91,40
242.19868,242.29451,82,92,40
242.29868,242.39452,82,93,40
242.39868,242.4945,82,94,40
242.49867,242.59451,81,95,40
242.59868,242.6945,82,96,40
242.69868,242.79451,84,97,40
242.79868,242.89452,86,98,40
242.89868,242.9945,88,99,40
242.99867,243.09451,89,100,40
243.09868,243.1945,89,101,40
243.19868,243.34451,89,102,40
243.39868,243.54451,91,104,40
243.59868,243.7445,93,106,40
243.79868,243.9445,94,108,40
243.99867,244.0695,96,110,40
244.09868,244.1945,76,110,40
244.19868,244.29451,86,110,40
244.29868,244.39452,84,110,40
244.39868,244.49991,84,110,40
244.50432,244.60555,82,110,40
244.60994,244.71643,81,110,40
244.72105,244.82753,79,110,40
244.83217,245.028,77,110,40
245.23216,245.428,81,110,40
245.53217,245.628,81,110,40
245.63217,245.828,82,110,40
246.03217,246.228,81,110,40
246.33217,246.428,81,110,40
246.43216,246.628,82,110,40
246.83217,247.028,83,110,40
247.13217,247.228,83,110,40
247.23216,247.428,84,110,40
247.63217,247.828,89,110,40
247.93216,248.028,89,110,40
248.03217,248.128,88,110,40
248.13217,248.228,84,70,40
248.23216,248.328,84,70,40
248.33217,248.428,84,70,40
248.43216,248.528,84,70,40
248.53217,248.628,84,70,40
248.63217,248.728,84,70,40
248.73216,248.828,84,70,40
248.83217,248.9655,82,70,40
249.03217,249.428,82,70,40
249.43216,249.5655,76,70,40
249.63217,249.7655,77,70,40
249.83217,250.228,77,70,40
250.23216,250.3655,72,70,40
250.43216,250.5655,70,70,40
250.63217,251.028,70,70,40
251.03217,251.1655,64,70,40
251.23216,251.3655,65,70,40
251.43216,251.828,65,70,40
251.83217,251.9655,60,70,40
252.83217,253.228,80,110,40
253.23216,253.428,81,110,40
253.43216,253.628,77,84,40
254.43216,254.828,88,110,40
254.83217,255.03337,89,110,40
255.03764,255.2505,84,90,40
255.25504,255.65086,78,70,40
255.65504,255.95087,79,75,40
255.95503,256.05087,80,79,40
256.05502,256.15088,81,80,40
256.15503,256.2509,76,81,40
256.25504,256.35086,77,83,40
256.35504,256.45087,74,84,40
256.45505,256.55087,72,85,40
256.55502,256.65088,74,87,40
256.65503,256.7509,76,88,40
256.75504,256.85086,77,89,40
256.85504,257.2509,78,91,40
257.25504,257.55087,79,96,40
257.55502,257.65088,80,100,40
257.65503,257.7509,81,101,40
257.75504,257.85086,76,103,40
257.85504,257.95087,77,104,40
257.95505,258.05087,74,105,40
258.05502,258.15088,72,106,40
258.15503,258.2509,74,108,40
258.25504,258.3535,76,109,40
258.3578,258.45624,77,110,40
258.4605,258.8672,78,110,40
258.87146,259.1754,79,110,40
259.1797,259.27814,80,110,40
259.28244,259.3809,81,110,40
259.38516,259.48364,76,110,40
259.4879,259.58636,77,110,40
259.59064,259.68912,74,110,40
259.6934,259.79184,72,110,40
259.79614,259.8946,74,110,40
259.89886,259.9973,76,110,40
260.00162,260.10007,77,110,40
260.10434,260.20282,79,110,40
260.2071,260.30554,81,110,40
260.3098,260.4083,82,110,40
260.41257,260.51102,84,110,40
260.51532,260.61377,86,110,40
260.61804,260.7165,88,110,40
260.7208,260.81924,89,110,40
260.82352,260.922,91,110,40
260.92627,261.06326,93,110,40
261.13174,261.2746,94,110,40
261.34604,261.55585,96,110,40
262.63174,262.7344,65,70,40
262.7389,262.84155,67,75,40
262.846,262.9487,69,81,40
262.95316,263.05585,70,87,40
263.0603,263.163,72,93,40
263.16745,263.27014,74,99,40
263.2746,263.37726,76,104,40
263.38174,263.4844,77,110,40
263.4889,263.59457,76,110,40
263.59918,263.70486,77,110,40
263.70947,263.81516,79,110,40
263.81976,263.92545,81,110,40
263.93005,264.04062,82,110,40
264.04544,264.156,84,110,40
264.16083,264.2806,86,110,40
264.28583,264.5306,88,110,40
264.53583,265.0306,89,120,40
268.53583,268.5931,65,1,40
0.0,0.2142856,65,1,40
0.84978896,1.6419808,55,50,40
1.662814,2.837814,56,80,40
2.862814,4.037814,58,50,40
5.262814,6.2419806,55,50,40
6.262814,7.437814,56,80,40
7.462814,8.6378145,58,50,40
9.862814,11.612814,65,60,40
11.612814,11.862814,70,66,40
11.862814,12.841981,68,68,40
12.862814,13.341981,68,76,40
13.362814,13.841981,65,80,40
13.862814,14.341981,64,84,40
14.362814,14.841981,65,88,40
14.862814,16.13067,68,90,40
16.13067,16.39853,67,75,40
16.39853,16.676306,68,72,40
16.676306,16.951305,65,69,40
16.976307,17.576305,65,66,40
17.576305,18.176306,64,60,40
21.4818,22.210968,61,75,40
22.2318,22.460968,73,86,40
22.4818,23.477337,73,90,40
23.499657,24.074657,71,60,40
24.099657,24.674658,72,60,40
25.699657,26.428823,61,75,40
26.449657,26.678823,73,86,40
26.699657,27.778229,73,90,40
27.803228,28.37823,71,60,40
28.403229,28.97823,72,60,40
30.11434,30.627733,71,60,40
30.650055,31.163446,72,60,40
32.2572,32.550945,71,60,40
32.557198,32.85095,72,64,40
33.157196,33.424244,71,73,40
33.429924,33.696968,72,78,40
33.975376,34.10606,71,87,40
34.11174,34.242424,72,90,40
34.248104,34.367897,71,92,40
34.373104,34.492897,72,94,40
34.498104,34.617897,71,97,40
34.623104,34.742897,72,99,40
34.748104,34.867897,71,101,40
34.873104,34.992897,72,103,40
34.998104,35.12203,71,106,40
35.127415,35.25134,72,108,40
35.256725,35.387405,71,110,40
35.39309,35.53684,72,90,40
35.54309,35.66809,72,70,40
35.66809,35.78788,68,70,40
36.29309,36.41809,68,70,40
36.41809,36.53788,65,70,40
37.04309,37.16809,72,70,40
37.16809,37.28788,68,70,40
37.79309,37.91809,68,70,40
37.91809,38.03788,65,70,40
38.29309,38.53788,65,70,40
38.54309,38.78788,70,80,40
38.79309,38.97538,72,90,40
39.04309,39.22538,73,100,40
39.29309,39.78788,72,80,40
39.79309,40.03788,65,70,40
40.04309,40.28788,70,80,40
40.29309,40.47538,72,90,40
40.54309,40.72538,73,100,40
40.79309,41.28788,72,80,40
41.29309,41.53788,65,70,40
41.54309,41.78788,68,70,40
41.79309,42.03788,67,70,40
42.04309,42.28788,65,70,40
42.29309,42.53788,65,70,40
42.54309,42.78788,64,70,40
42.79309,43.03788,65,70,40
43.04309,43.28788,64,70,40
43.29309,43.53788,67,70,40
43.54309,43.78788,64,70,40
43.79309,44.03788,68,70,40
44.04309,44.28788,56,70,40
44.29309,44.53788,56,70,40
44.54309,44.78788,58,70,40
44.79309,45.03788,70,72,40
45.04309,45.28788,68,75,40
45.29309,45.53788,68,78,40
45.54309,45.78788,73,81,40
45.79309,46.03788,72,84,40
46.04309,46.28788,67,86,40
46.29309,46.53788,76,89,40
46.54309,46.66809,79,92,40
46.66809,46.79309,76,93,40
46.79309,47.03788,79,95,40
47.04309,47.28788,77,98,40
47.29309,47.53788,56,100,40
47.54309,47.66288,55,100,40
47.66809,47.78788,55,100,40
47.79309,47.91288,56,100,40
47.91809,48.03788,56,100,40
48.04309,48.16288,56,100,40
48.16809,48.28788,56,100,40
48.29309,48.41288,55,100,40
48.41809,48.53788,55,100,40
48.54309,48.66288,56,100,40
48.66809,48.78788,56,100,40
48.79309,48.91288,56,100,40
48.91809,49.03788,56,100,40
49.04309,49.53788,55,100,40
51.54309,51.66701,72,111,40
51.672398,51.79632,72,114,40
51.80171,51.932392,72,118,40
51.938072,52.08182,72,122,40
52.088074,52.681824,73,125,40
53.888073,58.40966,67,50,40
58.915344,59.660133,56,60,40
58.915344,59.660133,65,60,40
59.665344,59.790344,77,60,40
59.790344,59.915344,80,60,40
59.915344,60.040344,79,60,40
60.040344,60.165344,77,60,40
60.165344,60.290344,76,60,40
60.290344,60.415344,77,60,40
60.415344,61.160133,56,60,40
60.415344,61.160133,65,60,40
61.165344,61.290344,77,60,40
61.290344,61.415344,80,60,40
61.415344,61.540344,79,60,40
61.540344,61.665344,77,60,40
61.665344,61.790344,76,60,40
61.790344,61.915344,77,60,40
62.165344,62.290344,76,60,40
62.290344,62.415344,82,60,40
62.415344,62.540344,79,60,40
62.540344,62.665344,76,60,40
62.915344,63.040344,77,60,40
63.040344,63.165344,84,60,40
63.165344,63.290344,80,60,40
63.290344,63.415344,77,60,40
63.665344,63.790344,76,60,40
63.790344,63.915344,82,60,40
63.915344,64.040344,79,60,40
64.040344,64.165344,76,60,40
64.415344,64.540344,77,60,40
64.540344,64.665344,84,60,40
64.665344,64.790344,80,60,40
64.790344,64.915344,77,60,40
65.165344,65.290344,79,60,40
65.290344,65.415344,84,60,40
65.415344,65.540344,80,60,40
65.915344,66.040344,76,60,40
66.040344,66.165344,84,60,40
66.165344,66.290344,77,60,40
66.415344,66.66013,76,60,40
66.665344,67.41013,88,60,40
67.415344,67.59763,89,60,40
67.665344,67.84763,80,60,40
68.165344,68.290344,79,60,40
68.290344,68.415344,84,60,40
68.415344,68.540344,80,60,40
68.915344,69.040344,76,60,40
69.040344,69.165344,84,60,40
69.165344,69.41013,69,60,40
69.415344,69.66013,72,70,40
69.665344,69.91013,70,75,40
69.915344,70.16013,71,81,40
70.165344,70.41013,74,86,40
70.415344,70.66013,72,92,40
70.790344,70.91013,60,100,40
70.915344,71.040344,56,100,40
71.040344,71.165344,60,100,40
71.165344,71.290344,56,100,40
71.290344,71.415344,60,100,40
71.415344,71.540344,58,125,40
71.540344,71.66013,60,100,40
71.665344,71.790344,60,100,40
71.790344,71.915344,65,100,40
71.915344,72.040344,60,100,40
72.040344,72.165344,65,100,40
72.165344,72.290344,60,125,40
72.290344,72.415344,66,100,40
72.415344,72.540344,62,100,40
72.540344,72.665344,67,100,40
72.665344,72.790344,62,100,40
72.790344,72.915344,67,100,40
72.915344,73.040344,63,125,40
73.040344,73.165344,67,100,40
73.165344,73.28513,69,125,40
73.165344,73.28513,66,125,40
73.290344,73.41013,57,100,40
73.415344,73.53513,60,100,40
73.540344,73.66013,60,100,40
73.665344,73.78513,60,100,40
73.790344,73.91013,60,100,40
73.915344,74.03513,60,100,40
74.040344,74.16013,57,100,40
74.165344,74.28513,60,100,40
74.290344,74.41013,60,100,40
74.415344,74.53513,60,100,40
74.540344,74.66013,60,100,40
74.665344,74.78513,60,100,40
74.790344,74.91013,57,100,40
74.915344,75.03513,60,100,40
75.040344,75.16013,60,100,40
75.165344,75.28513,60,100,40
75.290344,75.41013,60,85,40
75.415344,75.53513,60,70,40
75.540344,75.66013,57,70,40
75.665344,75.78513,60,70,40
75.790344,75.91013,60,70,40
75.915344,76.03513,60,70,40
76.040344,76.16013,60,70,40
76.165344,76.28513,60,70,40
76.290344,76.41013,57,70,40
76.415344,76.53513,60,70,40
76.540344,76.66013,60,70,40
76.665344,76.78513,60,70,40
76.790344,76.91013,60,70,40
76.915344,77.03513,60,70,40
77.040344,77.16013,57,70,40
77.165344,77.28513,60,70,40
77.290344,77.41013,60,70,40
77.415344,77.53513,60,70,40
77.540344,77.66013,60,70,40
77.665344,77.78513,60,70,40
77.790344,77.91013,57,70,40
77.915344,78.03513,60,70,40
78.040344,78.16013,60,70,40
78.165344,78.28513,60,70,40
78.290344,78.41013,60,70,40
78.415344,78.53513,59,110,40
78.415344,78.53513,62,110,40
78.540344,78.66013,56,110,40
78.540344,78.66013,62,110,40
78.665344,78.78513,59,110,40
78.665344,78.78513,62,110,40
78.790344,78.91013,59,110,40
78.790344,78.91013,62,110,40
78.915344,79.03513,59,110,40
78.915344,79.03513,62,110,40
79.040344,79.16013,59,110,40
79.040344,79.16013,62,110,40
79.165344,79.28513,59,110,40
79.165344,79.28513,62,110,40
79.290344,79.41013,56,110,40
79.290344,79.41013,62,110,40
79.415344,79.53513,59,110,40
79.415344,79.53513,62,110,40
79.540344,79.66013,59,110,40
79.540344,79.66013,62,110,40
79.665344,79.78513,59,110,40
79.665344,79.78513,62,110,40
79.790344,79.91013,59,110,40
79.790344,79.91013,62,110,40
79.915344,80.03513,59,110,40
79.915344,80.03513,62,110,40
80.040344,80.16013,56,110,40
80.040344,80.16013,62,110,40
80.165344,80.28513,59,110,40
80.165344,80.28513,62,110,40
80.290344,80.41013,59,110,40
80.290344,80.41013,62,110,40
80.415344,80.53513,59,110,40
80.415344,80.53513,62,110,40
80.540344,80.66013,59,110,40
80.540344,80.66013,62,110,40
80.665344,80.78513,59,110,40
80.665344,80.78513,62,110,40
80.790344,80.91013,56,110,40
80.790344,80.91013,62,110,40
80.915344,81.03513,59,110,40
80.915344,81.03513,62,110,40
81.040344,81.16013,59,110,40
81.040344,81.16013,62,110,40
81.165344,81.28513,59,110,40
81.165344,81.28513,62,110,40
81.290344,81.41013,59,90,40
81.290344,81.41013,62,90,40
81.415344,81.53513,59,70,40
81.415344,81.53513,62,70,40
81.540344,81.66013,56,70,40
81.540344,81.66013,62,70,40
81.665344,81.78513,59,70,40
81.665344,81.78513,62,70,40
81.790344,81.91013,59,70,40
81.790344,81.91013,62,70,40
81.915344,82.03513,59,70,40
81.915344,82.03513,62,70,40
82.040344,82.16013,59,70,40
82.040344,82.16013,62,70,40
82.165344,82.28513,59,70,40
82.165344,82.28513,62,70,40
82.290344,82.41013,56,70,40
82.290344,82.41013,62,70,40
82.415344,82.53513,59,70,40
82.415344,82.53513,62,70,40
82.540344,82.66013,59,70,40
82.540344,82.66013,62,70,40
82.665344,82.78513,59,70,40
82.665344,82.78513,62,70,40
82.790344,82.91013,59,70,40
82.790344,82.91013,62,70,40
82.915344,83.03513,59,70,40
82.915344,83.03513,62,70,40
83.040344,83.16013,56,70,40
83.040344,83.16013,62,70,40
83.165344,83.28513,59,70,40
83.165344,83.28513,62,70,40
83.290344,83.41013,59,70,40
83.290344,83.41013,62,70,40
83.415344,83.53513,59,70,40
83.415344,83.53513,62,70,40
83.540344,83.66013,59,70,40
83.540344,83.66013,62,70,40
83.665344,83.78513,59,70,40
83.665344,83.78513,62,70,40
83.790344,83.91013,56,70,40
83.790344,83.91013,62,70,40
83.915344,84.03513,68,70,40
84.040344,84.16013,68,70,40
84.165344,84.28513,68,70,40
84.290344,84.41013,68,70,40
84.415344,84.540344,67,70,40
84.540344,84.665344,71,74,40
84.665344,84.790344,74,78,40
84.790344,84.915344,71,83,40
84.915344,85.040344,72,87,40
85.040344,85.165344,75,92,40
85.165344,85.41013,67,96,40
85.415344,85.91013,79,100,40
85.915344,86.040344,67,70,40
86.040344,86.165344,71,74,40
86.165344,86.290344,74,78,40
86.290344,86.415344,71,83,40
86.415344,86.540344,72,87,40
86.540344,86.665344,75,92,40
86.665344,86.91013,67,96,40
86.915344,87.41013,79,100,40
87.415344,87.53513,80,70,40
87.540344,87.66013,68,70,40
87.665344,87.78513,68,70,40
87.790344,87.91013,68,70,40
87.915344,88.03513,68,70,40
88.040344,88.16013,68,70,40
88.165344,88.28513,68,70,40
88.290344,88.41013,68,70,40
88.415344,88.53513,68,70,40
88.540344,88.66013,68,70,40
88.665344,88.78513,68,70,40
88.790344,88.91013,68,70,40
88.915344,89.41013,67,70,40
90.49682,91.02554,67,100,40
91.03075,91.27554,67,70,40
91.28075,91.52554,67,100,40
91.53075,91.77554,72,70,40
91.78075,92.02554,75,70,40
92.03075,92.52554,74,100,40
92.53075,92.77554,71,70,40
92.78075,93.27554,67,100,40
93.53075,94.02554,67,100,40
94.03075,94.27554,67,70,40
94.28075,94.52554,67,100,40
94.53075,94.77554,72,70,40
94.78075,95.02554,75,70,40
95.03075,95.52554,74,100,40
95.53075,95.77554,71,70,40
95.78075,96.02554,67,100,40
96.03075,96.27554,65,70,40
96.28075,96.52554,62,100,40
96.28075,96.52554,71,100,40
96.53075,97.77554,63,70,40
96.53075,97.77554,72,70,40
97.78075,98.27554,60,100,40
100.82072,101.85702,60,70,40
101.86223,101.98723,60,70,40
101.98723,102.11223,65,70,40
102.36223,103.35702,60,70,40
103.36223,103.48723,60,70,40
103.48723,103.61223,65,70,40
104.11223,104.23723,61,70,40
104.23723,104.36223,65,70,40
104.86223,104.98723,60,70,40
104.98723,105.11223,65,70,40
105.61223,105.73723,61,70,40
105.73723,105.86223,65,70,40
106.36223,106.48723,60,70,40
106.48723,106.61223,65,70,40
108.36223,108.60702,61,70,40
108.61223,108.865456,63,70,40
108.87085,109.059425,65,70,40
109.12946,109.32833,66,70,40
109.40219,109.94196,65,70,40
111.44765,111.69244,72,70,40
111.69765,111.94244,73,70,40
111.94765,112.13622,75,70,40
112.20627,112.40513,77,70,40
112.479,113.01877,75,70,40
113.02445,113.79197,60,100,40
113.02445,113.79197,63,100,40
114.54718,115.29197,60,100,40
114.54718,115.29197,63,100,40
116.04718,116.79197,59,100,40
116.04718,116.79197,62,100,40
117.54718,118.29197,59,100,40
117.54718,118.29197,62,100,40
118.29718,118.54197,59,70,40
118.54718,118.79197,62,70,40
118.79718,119.04197,63,70,40
119.04718,119.79197,62,100,40
119.04718,119.79197,65,100,40
119.79718,120.04197,59,70,40
120.04718,120.29197,62,70,40
120.29718,120.54197,63,70,40
120.54718,121.29197,62,100,40
120.54718,121.29197,65,100,40
121.29718,121.54197,65,70,40
121.54718,121.79197,68,70,40
121.79718,122.04197,70,70,40
122.04718,123.095566,68,100,40
122.04718,123.095566,71,100,40
123.10125,123.22104,70,70,40
123.22625,123.34604,70,70,40
123.35125,123.47104,70,70,40
123.47625,123.59604,70,70,40
123.60125,123.72104,70,70,40
123.72625,123.84604,70,70,40
123.85125,124.34604,70,70,40
124.60125,125.09604,75,70,40
125.35125,125.47625,77,50,40
125.47625,125.60125,73,50,40
126.10125,126.22625,73,50,40
126.22625,126.35125,68,50,40
126.85125,126.97625,72,50,40
126.97625,127.10125,68,50,40
127.60125,127.72625,72,50,40
127.72625,127.85125,68,50,40
128.35126,128.47626,68,50,40
128.47626,128.60126,65,50,40
129.10126,129.22626,70,50,40
129.22626,129.35126,68,50,40
129.85126,129.97626,70,50,40
129.97626,130.10126,66,50,40
130.60126,130.73056,77,50,40
130.73056,130.85988,73,50,40
131.3771,131.51347,77,50,40
131.51347,131.64984,73,50,40
131.64984,131.91689,77,50,40
131.92256,132.1896,80,50,40
132.1953,132.46234,78,63,40
132.46802,132.65031,77,77,40
132.71802,132.90031,75,90,40
132.96802,133.21281,73,50,40
133.21802,133.46281,77,50,40
133.46802,133.71281,80,50,40
133.71802,133.96281,78,63,40
133.96802,134.15031,77,77,40
134.21802,134.40031,75,90,40
134.46802,134.71281,73,50,40
134.71802,134.96281,76,50,40
134.96802,135.21281,77,50,40
135.21802,135.46281,77,50,40
135.46802,135.71281,77,56,40
135.71802,135.96281,77,63,40
135.96802,136.21281,73,70,40
136.21802,136.46281,75,77,40
136.46802,136.71281,73,84,40
136.71802,137.21281,75,90,40
137.21802,137.46281,65,75,40
137.21802,137.46281,72,75,40
137.46802,137.71281,65,70,40
137.46802,137.71281,73,70,40
137.71802,137.96281,73,70,40
137.96802,138.21281,72,70,40
138.21802,138.46281,72,70,40
138.46802,138.71281,70,73,40
138.71802,138.96281,68,77,40
138.96802,139.21281,68,81,40
139.21802,139.46281,58,85,40
139.46802,139.71281,56,89,40
139.71802,139.96281,60,93,40
139.96802,140.21281,73,97,40
140.21802,140.46281,72,100,40
140.46802,140.71281,68,100,40
140.71802,140.96281,67,90,40
140.96802,141.21281,79,80,40
141.21802,141.71281,80,70,40
141.71802,141.96281,65,70,40
141.96802,142.21281,65,70,40
142.21802,142.46281,64,70,40
142.46802,142.71281,65,70,40
142.71802,142.96281,68,70,40
142.96802,143.21281,67,70,40
143.21802,143.46281,68,70,40
143.46802,143.96281,72,70,40
143.96802,144.09302,70,75,40
144.09302,144.21802,67,77,40
144.21802,144.46281,70,78,40
144.46802,144.71281,68,81,40
144.71802,144.84302,60,84,40
144.84302,144.96802,64,86,40
144.96802,145.09302,60,87,40
145.09302,145.21802,65,89,40
145.21802,145.34302,60,90,40
145.34302,145.46802,65,92,40
145.46802,145.59302,60,93,40
145.59302,145.71802,65,95,40
145.71802,145.84302,61,96,40
145.84302,145.96802,65,97,40
145.96802,146.09302,61,99,40
146.09302,146.21802,65,100,40
146.21802,146.46281,71,100,40
146.46802,146.71281,73,70,40
146.71802,146.96281,72,70,40
146.96802,147.21281,74,100,40
147.21802,147.46281,75,70,40
147.46802,147.71281,74,70,40
147.71802,147.96281,76,100,40
147.96802,148.21281,77,70,40
148.21802,148.46281,76,70,40
148.46802,148.71281,77,100,40
148.71802,148.84302,80,120,40
148.84302,148.96281,56,120,40
148.84302,148.96281,62,120,40
148.96802,149.08781,59,120,40
148.96802,149.08781,62,120,40
149.09302,149.21281,59,120,40
149.09302,149.21281,62,120,40
149.21802,149.33781,59,120,40
149.21802,149.33781,62,120,40
149.34302,149.46281,59,120,40
149.34302,149.46281,62,120,40
149.46802,149.58781,59,120,40
149.46802,149.58781,62,120,40
149.59302,149.71281,56,120,40
149.59302,149.71281,62,120,40
149.71802,149.83781,59,120,40
149.71802,149.83781,62,120,40
149.84302,149.96281,59,120,40
149.84302,149.96281,62,120,40
149.96802,150.08781,59,120,40
149.96802,150.08781,62,120,40
150.09302,150.21281,59,120,40
150.09302,150.21281,62,120,40
150.21802,150.33781,59,120,40
150.21802,150.33781,62,120,40
150.34302,150.46281,56,120,40
150.34302,150.46281,62,120,40
150.46802,150.58781,59,120,40
150.46802,150.58781,62,120,40
150.59302,150.71281,59,120,40
150.59302,150.71281,62,120,40
150.71802,150.83781,59,120,40
150.71802,150.83781,62,120,40
150.84302,150.96281,59,120,40
150.84302,150.96281,62,120,40
150.96802,151.08781,59,120,40
150.96802,151.08781,62,120,40
151.09302,151.21281,56,120,40
151.09302,151.21281,62,120,40
151.21802,151.33781,59,120,40
151.21802,151.33781,62,120,40
151.34302,151.46281,59,120,40
151.34302,151.46281,62,120,40
151.46802,151.58781,59,100,40
151.46802,151.58781,62,100,40
151.59302,151.71281,59,80,40
151.59302,151.71281,62,80,40
151.71802,151.83781,59,70,40
151.71802,151.83781,62,70,40
151.84302,151.96281,56,70,40
151.84302,151.96281,62,70,40
151.96802,152.08781,59,70,40
151.96802,152.08781,62,70,40
152.09302,152.21281,59,70,40
152.09302,152.21281,62,70,40
152.21802,152.33781,59,70,40
152.21802,152.33781,62,70,40
152.34302,152.46281,59,70,40
152.34302,152.46281,62,70,40
152.46802,152.58781,59,70,40
152.46802,152.58781,62,70,40
152.59302,152.71281,56,70,40
152.59302,152.71281,62,70,40
152.71802,152.83781,59,70,40
152.71802,152.83781,62,70,40
152.84302,152.96281,59,70,40
152.84302,152.96281,62,70,40
152.96802,153.08781,59,70,40
152.96802,153.08781,62,70,40
153.09302,153.21281,59,70,40
153.09302,153.21281,62,70,40
153.21802,153.33781,59,70,40
153.21802,153.33781,62,70,40
153.34302,153.46281,56,70,40
153.34302,153.46281,62,70,40
153.46802,153.59195,68,70,40
153.59734,153.72125,68,70,40
153.72664,153.85732,68,70,40
153.863,153.99368,68,70,40
153.99937,154.13005,67,120,40
154.13573,154.25552,55,120,40
154.13573,154.25552,64,120,40
154.26073,154.38052,58,120,40
154.26073,154.38052,64,120,40
154.38573,154.50552,58,120,40
154.38573,154.50552,64,120,40
154.51073,154.63052,58,120,40
154.51073,154.63052,64,120,40
154.63573,154.75552,58,120,40
154.63573,154.75552,64,120,40
154.76073,154.88052,58,120,40
154.76073,154.88052,64,120,40
154.88573,155.00552,55,120,40
154.88573,155.00552,64,120,40
155.01073,155.13052,58,120,40
155.01073,155.13052,64,120,40
155.13573,155.25552,58,120,40
155.13573,155.25552,64,120,40
155.26073,155.38052,58,120,40
155.26073,155.38052,64,120,40
155.38573,155.50552,58,120,40
155.38573,155.50552,64,120,40
155.51073,155.63052,58,120,40
155.51073,155.63052,64,120,40
155.63573,155.75552,55,120,40
155.63573,155.75552,64,120,40
155.76073,155.88052,58,120,40
155.76073,155.88052,64,120,40
155.88573,156.00552,58,120,40
155.88573,156.00552,64,120,40
156.01073,156.13052,58,120,40
156.01073,156.13052,64,120,40
156.13573,156.25552,58,120,40
156.13573,156.25552,64,120,40
156.26073,156.38052,58,120,40
156.26073,156.38052,64,120,40
156.38573,156.50552,55,120,40
156.38573,156.50552,64,120,40
156.51073,156.63052,58,120,40
156.51073,156.63052,64,120,40
156.63573,156.75552,58,120,40
156.63573,156.75552,64,120,40
156.76073,156.88052,58,120,40
156.76073,156.88052,64,120,40
156.88573,157.00552,58,120,40
156.88573,157.00552,64,120,40
157.01073,157.13052,58,120,40
157.01073,157.13052,64,120,40
157.13573,157.25552,55,120,40
157.13573,157.25552,64,120,40
157.26073,157.38052,58,120,40
157.26073,157.38052,64,120,40
157.38573,157.50552,58,120,40
157.38573,157.50552,64,120,40
157.51073,157.63052,58,100,40
157.51073,157.63052,64,100,40
157.63573,157.75552,58,80,40
157.63573,157.75552,64,80,40
157.76073,157.88052,58,70,40
157.76073,157.88052,64,70,40
157.88573,158.00552,55,70,40
157.88573,158.00552,64,70,40
158.01073,158.13052,58,70,40
158.01073,158.13052,64,70,40
158.13573,158.25552,58,70,40
158.13573,158.25552,64,70,40
158.26073,158.38052,58,70,40
158.26073,158.38052,64,70,40
158.38573,158.50552,58,70,40
158.38573,158.50552,64,70,40
158.51073,158.63052,58,70,40
158.51073,158.63052,64,70,40
158.63573,158.75552,55,70,40
158.63573,158.75552,64,70,40
158.76073,158.88052,58,70,40
158.76073,158.88052,64,70,40
158.88573,159.00552,58,70,40
158.88573,159.00552,64,70,40
159.01073,159.13052,58,70,40
159.01073,159.13052,64,70,40
159.13573,159.25552,58,70,40
159.13573,159.25552,64,70,40
159.26073,159.38052,58,70,40
159.26073,159.38052,64,70,40
159.38573,159.50552,55,70,40
159.38573,159.50552,64,70,40
159.51073,159.63466,61,70,40
159.64005,159.76396,61,70,40
159.76935,159.90004,61,70,40
159.90572,160.03639,61,70,40
160.04208,160.17844,60,70,40
160.17844,160.3148,64,74,40
160.3148,160.4398,67,78,40
160.4398,160.5648,64,83,40
160.5648,160.6898,65,87,40
160.6898,160.8148,68,92,40
160.8148,161.0596,60,96,40
161.0648,161.5596,72,100,40
161.5648,161.6898,60,70,40
161.6898,161.8148,64,74,40
161.8148,161.9398,67,78,40
161.9398,162.0648,64,83,40
162.0648,162.1898,65,87,40
162.1898,162.3148,68,92,40
162.3148,162.5596,60,96,40
162.5648,163.09047,72,100,40
163.09616,163.22684,73,70,40
163.23251,163.3632,67,70,40
163.36888,163.48868,67,70,40
163.49388,163.61368,67,70,40
163.61888,163.73868,67,70,40
163.74388,163.86368,67,70,40
163.86888,163.98868,67,70,40
163.99388,164.11368,73,70,40
164.11888,164.23868,73,70,40
164.24388,164.36368,73,70,40
164.36888,164.48868,73,70,40
164.49388,164.61368,67,70,40
164.61888,165.11368,68,70,40
167.92523,168.17001,72,70,40
168.17523,168.42001,76,70,40
168.42523,168.67001,79,100,40
168.67523,168.92001,84,70,40
168.92523,169.17001,82,70,40
169.17523,169.42001,80,100,40
169.42523,169.67001,79,70,40
169.67523,169.92001,77,70,40
170.92523,171.17001,72,70,40
171.17523,171.42847,76,70,40
171.43385,171.7009,79,100,40
171.70657,171.91295,84,70,40
171.9896,172.28334,55,100,40
171.9896,172.28334,64,100,40
172.2896,173.03438,56,70,40
172.2896,173.03438,65,70,40
173.0396,173.1646,56,70,40
173.1646,173.2896,60,70,40
173.2896,173.4146,65,70,40
173.4146,173.5396,68,70,40
173.5396,173.6646,72,70,40
173.6646,173.7896,68,70,40
173.7896,174.53438,56,70,40
173.7896,174.53438,65,70,40
174.5396,174.6646,56,70,40
174.6646,174.7896,60,70,40
174.7896,174.9146,65,70,40
174.9146,175.0396,68,70,40
175.0396,175.1646,72,70,40
175.1646,175.2896,72,75,40
175.2896,176.03438,64,80,40
175.2896,176.03438,73,80,40
176.0396,176.1646,56,70,40
176.1646,176.2896,60,70,40
176.2896,176.4146,65,70,40
176.4146,176.5396,68,70,40
176.5396,176.6646,72,70,40
176.6646,176.7896,72,75,40
176.7896,177.53438,64,80,40
176.7896,177.53438,73,80,40
177.5396,177.6646,56,70,40
177.6646,177.7896,60,70,40
177.7896,177.9146,65,70,40
177.9146,178.0396,68,70,40
178.0396,178.1646,72,70,40
178.1646,178.28438,68,70,40
178.2896,178.4146,68,70,40
178.4146,178.5396,72,71,40
178.5396,178.6646,67,73,40
178.6646,178.7896,72,74,40
178.7896,178.9146,68,76,40
178.9146,179.0396,72,77,40
179.0396,179.1646,65,79,40
179.1646,179.2896,72,80,40
179.2896,179.4146,64,82,40
179.4146,179.5396,72,83,40
179.5396,179.6646,65,85,40
179.6646,179.7896,72,87,40
179.7896,179.9146,67,88,40
179.9146,180.0396,72,90,40
180.0396,180.1646,64,91,40
180.1646,180.2896,72,93,40
180.2896,180.4189,67,94,40
180.4189,180.54822,72,96,40
180.54822,180.68457,67,97,40
180.68457,180.82094,72,99,40
180.82094,180.96245,65,100,40
180.96245,181.10396,72,100,40
181.10396,181.25397,68,90,40
181.25397,181.40396,72,80,40
181.40396,181.89876,69,70,40
182.90396,183.39876,65,70,40
182.90396,183.39876,70,70,40
184.40396,184.89876,71,60,40
185.90396,186.39876,72,60,40
188.90396,190.46097,76,110,40
190.46666,192.04012,56,110,40
190.46666,192.04012,65,110,40
192.0456,193.59193,61,110,40
192.0456,193.59193,65,110,40
193.59732,195.11745,65,110,40
193.59732,195.11745,72,110,40
195.12274,195.45609,65,110,40
195.12274,195.45609,73,110,40
195.87274,196.20609,64,110,40
195.87274,196.20609,72,110,40
196.62274,197.86754,56,110,40
196.62274,197.86754,65,110,40
197.87274,198.11754,56,110,40
197.87274,198.11754,65,110,40
198.12274,199.36754,61,110,40
198.12274,199.36754,65,110,40
199.37274,199.61754,61,110,40
199.37274,199.61754,65,110,40
199.62274,200.86754,65,110,40
199.62274,200.86754,72,110,40
200.87274,201.11754,65,110,40
200.87274,201.11754,72,110,40
201.12274,201.61754,65,110,40
201.12274,201.61754,73,110,40
201.62274,201.86754,65,125,40
201.62274,201.86754,73,125,40
201.87274,202.36754,64,110,40
201.87274,202.36754,72,110,40
202.37274,202.61754,64,125,40
202.37274,202.61754,72,125,40
202.62274,203.11754,61,110,40
203.12274,203.36754,61,96,40
203.37274,203.87598,60,88,40
203.88136,204.1484,60,73,40
204.1541,204.69386,61,70,40
204.69954,204.9666,61,67,40
204.97227,205.52213,61,65,40
205.52802,205.82176,61,61,40
207.62802,208.16779,60,70,40
208.17348,208.44052,60,70,40
208.4462,208.99605,60,70,40
209.00194,209.2957,60,70,40
211.8778,212.13104,57,80,40
212.13643,212.38966,57,83,40
212.39505,212.52435,63,87,40
212.52435,212.65367,57,88,40
213.42953,213.68277,70,100,40
213.68816,213.94138,70,90,40
213.94678,214.07608,73,83,40
214.07608,214.2054,70,80,40
214.98125,215.23448,57,80,40
215.23987,215.4931,57,83,40
215.49849,215.6278,63,87,40
215.6278,215.75711,57,88,40
216.53297,216.78621,70,100,40
216.7916,217.04483,70,90,40
217.05022,217.17952,73,83,40
217.17952,217.30884,70,80,40
217.30884,218.07932,68,70,40
218.0847,218.33794,58,70,40
218.34332,218.59656,58,70,40
218.60194,218.73125,58,70,40
218.73125,218.85518,55,70,40
218.86057,219.3724,56,70,40
219.3778,219.63103,68,70,40
219.63643,219.825,70,70,40
219.89505,220.08362,70,70,40
220.15366,220.28297,70,70,40
220.28297,220.40689,67,70,40
220.41228,221.18275,68,70,40
221.18814,221.44138,65,70,40
221.44676,221.7,64,70,40
221.70538,221.95862,65,70,40
225.39474,229.18433,56,40,40
230.19473,230.68953,63,70,40
230.69473,231.13533,64,70,40
231.13979,231.24248,65,70,40
231.24693,231.34961,69,70,40
231.35408,231.4499,69,70,40
231.45407,231.54991,69,70,40
231.55408,231.64992,70,70,40
231.65408,231.74991,70,70,40
231.75407,231.84991,70,70,40
231.85408,231.9499,70,70,40
231.95407,232.04991,70,70,40
232.05408,232.14992,70,70,40
232.15408,232.24991,70,70,40
232.25407,232.34991,70,70,40
232.35408,232.4499,70,70,40
232.45407,232.54991,70,70,40
232.55408,232.64992,70,70,40
232.65408,232.74991,70,70,40
232.75407,232.84991,69,70,40
232.85408,232.9499,79,70,40
232.95407,233.04991,81,70,40
233.05408,233.14992,82,70,40
233.15408,233.25531,81,70,40
233.2597,233.36095,77,70,40
233.36534,233.47183,79,70,40
233.47646,233.58293,76,70,40
233.58757,233.69405,72,60,40
233.69868,233.79451,69,60,40
233.79868,233.89452,69,60,40
233.89868,233.9945,69,60,40
233.99867,234.09451,69,60,40
234.09868,234.1945,69,60,40
234.19868,234.29451,69,60,40
234.29868,234.39452,69,60,40
234.39868,234.4945,74,60,40
234.49867,234.59451,70,60,40
234.59868,234.6945,70,60,40
234.69868,234.79451,70,60,40
234.79868,234.89452,76,60,40
234.89868,234.9945,70,60,40
234.99867,235.09451,70,60,40
235.09868,235.1945,70,60,40
235.19868,235.29451,72,60,40
235.29868,235.39452,69,60,40
235.39868,235.4945,69,60,40
235.49867,235.59451,69,60,40
235.59868,235.79451,69,60,40
235.99867,236.09451,74,60,40
236.09868,236.1945,70,60,40
236.19868,236.29451,70,60,40
236.29868,236.39452,70,60,40
236.39868,236.4945,70,60,40
236.49867,236.59451,70,60,40
236.59868,236.6945,70,60,40
236.69868,236.79451,70,60,40
236.79868,236.89452,69,70,40
236.89868,236.9945,77,70,40
236.99867,237.09451,77,70,40
237.09868,237.1945,77,70,40
237.19868,237.29451,79,70,40
237.29868,237.39452,79,70,40
237.39868,237.4945,79,70,40
237.49867,237.59451,79,70,40
237.59868,237.6945,77,70,40
237.69868,237.79451,77,70,40
237.79868,237.89452,77,70,40
237.89868,237.9945,77,70,40
237.99867,238.09451,79,70,40
238.09868,238.1945,79,70,40
238.19868,238.29451,79,70,40
238.29868,238.39452,79,70,40
238.39868,238.4945,77,70,40
238.49867,238.59451,77,70,40
238.59868,238.6945,77,70,40
238.69868,238.79451,77,70,40
238.79868,238.89452,79,70,40
238.89868,238.9945,79,70,40
238.99867,239.09451,79,70,40
239.09868,239.1945,79,70,40
239.19868,239.29451,77,70,40
239.29868,239.39452,77,70,40
239.39868,239.4945,77,70,40
239.49867,239.59451,77,70,40
239.59868,239.6945,76,70,40
239.69868,239.79451,76,70,40
239.79868,239.89452,76,70,40
239.89868,239.9945,76,70,40
239.99867,240.09451,71,70,40
240.09868,240.1945,65,71,40
240.19868,240.29451,65,72,40
240.29868,240.39452,65,73,40
240.39868,240.4945,65,74,40
240.49867,240.59451,65,75,40
240.59868,240.6945,65,76,40
240.69868,240.79451,65,77,40
240.79868,240.89452,62,78,40
240.89868,240.9945,62,79,40
240.99867,241.09451,62,80,40
241.09868,241.1945,62,81,40
241.19868,241.29451,62,82,40
241.29868,241.39452,62,83,40
241.39868,241.4945,62,84,40
241.49867,241.59451,62,85,40
241.59868,241.6945,64,86,40
241.69868,241.79451,64,87,40
241.79868,241.89452,64,88,40
241.89868,241.9945,64,89,40
241.99867,242.09451,58,90,40
241.99867,242.09451,64,90,40
242.09868,242.1945,58,91,40
242.09868,242.1945,64,91,40
242.19868,242.29451,58,92,40
242.19868,242.29451,64,92,40
242.29868,242.39452,58,93,40
242.29868,242.39452,64,93,40
242.39868,242.4945,57,94,40
242.39868,242.4945,65,94,40
242.49867,242.59451,57,95,40
242.49867,242.59451,65,95,40
242.59868,242.6945,57,96,40
242.59868,242.6945,65,96,40
242.69868,242.79451,57,97,40
242.69868,242.79451,65,97,40
242.79868,242.89452,62,98,40
242.79868,242.89452,65,98,40
242.89868,242.9945,62,99,40
242.89868,242.9945,65,99,40
242.99867,243.09451,62,100,40
242.99867,243.09451,65,100,40
243.09868,243.1945,62,101,40
243.09868,243.1945,65,101,40
243.19868,243.29451,65,102,40
243.19868,243.29451,69,102,40
243.29868,243.39452,69,103,40
243.29868,243.39452,77,103,40
243.39868,243.4945,69,104,40
243.39868,243.4945,77,104,40
243.49867,243.59451,69,105,40
243.49867,243.59451,77,105,40
243.59868,243.6945,69,106,40
243.59868,243.6945,77,106,40
243.69868,243.79451,69,107,40
243.69868,243.79451,77,107,40
243.79868,243.89452,69,108,40
243.79868,243.89452,77,108,40
243.89868,243.9945,69,109,40
243.89868,243.9945,77,109,40
243.99867,244.09451,67,110,40
243.99867,244.09451,76,110,40
244.09868,244.1945,67,110,40
244.09868,244.1945,76,110,40
244.19868,244.29451,67,110,40
244.19868,244.29451,76,110,40
244.29868,244.39452,67,110,40
244.29868,244.39452,76,110,40
244.39868,244.49991,67,110,40
244.39868,244.49991,76,110,40
244.50432,244.60555,67,110,40
244.50432,244.60555,76,110,40
244.60994,244.71643,67,110,40
244.60994,244.71643,76,110,40
244.72105,244.82753,67,110,40
244.72105,244.82753,76,110,40
244.83217,245.028,77,110,40
244.83217,245.028,69,110,40
245.23216,245.428,75,110,40
245.53217,245.628,75,110,40
245.63217,245.828,74,110,40
246.03217,246.228,75,110,40
246.33217,246.428,75,110,40
246.43216,246.628,74,110,40
246.83217,247.028,74,110,40
247.13217,247.228,74,110,40
247.23216,247.428,76,110,40
247.63217,247.828,74,110,40
247.93216,248.028,74,110,40
248.03217,248.228,72,110,40
248.03217,248.228,76,110,40
252.03217,252.1655,82,70,40
252.23216,252.628,82,70,40
252.63217,252.7655,76,70,40
252.83217,252.9655,77,70,40
253.03217,253.428,77,70,40
253.43216,253.5655,72,70,40
253.63217,253.778,70,70,40
253.83217,254.228,70,70,40
254.23216,254.378,64,70,40
254.43216,254.578,65,70,40
254.63217,255.03337,65,70,40
255.03764,255.19617,60,70,40
255.25504,255.65086,66,70,40
255.65504,255.95087,67,75,40
255.95503,256.05087,68,79,40
256.05502,256.15088,69,80,40
256.15503,256.2509,64,81,40
256.25504,256.35086,65,83,40
256.35504,256.45087,62,84,40
256.45505,256.55087,60,85,40
256.55502,256.65088,62,87,40
256.65503,256.7509,64,88,40
256.75504,256.85086,65,89,40
256.85504,257.2509,66,91,40
257.25504,257.55087,67,96,40
257.55502,257.65088,68,100,40
257.65503,257.7509,69,101,40
257.75504,257.85086,64,103,40
257.85504,257.95087,65,104,40
257.95505,258.05087,62,105,40
258.05502,258.15088,60,106,40
258.15503,258.2509,62,108,40
258.25504,258.3535,64,109,40
258.3578,258.45624,65,110,40
258.4605,258.8672,66,110,40
258.87146,259.1754,67,110,40
259.1797,259.27814,68,110,40
259.28244,259.3809,69,110,40
259.38516,259.48364,64,110,40
259.4879,259.58636,65,110,40
259.59064,259.68912,62,110,40
259.6934,259.79184,60,110,40
259.79614,259.8946,62,110,40
259.89886,259.9973,64,110,40
260.00162,260.10007,65,110,40
260.10434,260.20282,67,110,40
260.2071,260.30554,69,110,40
260.3098,260.4083,70,110,40
260.41257,260.51102,72,110,40
260.51532,260.61377,74,110,40
260.61804,260.7165,72,110,40
260.7208,260.81924,74,110,40
260.82352,260.922,76,110,40
260.92627,261.12747,77,110,40
261.7746,261.8773,64,70,40
261.88174,261.9844,65,70,40
261.9889,262.09155,67,70,40
262.09604,262.1987,69,70,40
262.20316,262.30585,70,70,40
262.3103,262.413,72,70,40
262.41745,262.52014,74,70,40
262.5246,262.6273,76,70,40
262.63174,262.7746,77,70,40
262.846,262.9889,79,81,40
263.0603,263.20316,81,93,40
263.4889,263.59457,67,110,40
263.59918,263.70486,69,110,40
263.70947,263.81516,70,110,40
263.81976,263.92545,72,110,40
263.93005,264.04062,74,110,40
264.04544,264.156,76,110,40
264.16083,264.2806,77,110,40
264.28583,264.5306,79,110,40
264.53583,265.0306,69,120,40
264.53583,265.0306,77,120,40
0.0,0.2142856,53,1,41
0.84978896,2.562814,60,50,41
2.562814,2.8503141,61,58,41
2.862814,4.037814,60,50,41
5.262814,7.162814,60,50,41
7.162814,7.450314,61,57,41
7.462814,8.6378145,60,50,41
9.862814,10.841981,60,60,41
10.862814,11.841981,61,60,41
11.862814,12.841981,65,68,41
12.862814,13.841981,65,76,41
13.862814,14.841981,71,84,41
14.862814,16.376207,72,90,41
16.39853,16.676306,72,72,41
16.676306,16.951305,68,69,41
16.976307,17.576305,68,66,41
17.576305,18.176306,67,60,41
18.176306,18.476307,65,60,41
18.476307,18.744164,64,60,41
18.744164,19.01202,65,60,41
19.01202,19.257557,59,60,41
19.279877,19.832762,59,60,41
19.8568,20.45576,60,60,41
20.4818,21.210968,48,60,41
21.2318,21.460968,60,71,41
21.4818,22.460968,56,75,41
22.4818,24.674658,48,90,41
22.4818,24.674658,58,90,41
24.699657,25.428823,48,60,41
25.449657,25.678823,60,71,41
25.699657,26.678823,56,75,41
26.699657,28.97823,48,90,41
26.699657,28.97823,58,90,41
29.00323,31.163446,48,60,41
29.00323,31.163446,58,60,41
31.185768,32.844696,48,60,41
31.185768,32.844696,58,60,41
32.857197,33.150948,48,69,41
32.857197,33.150948,58,69,41
33.702652,33.969696,48,83,41
33.702652,33.969696,58,83,41
34.248104,34.492897,58,92,41
34.248104,34.492897,48,92,41
34.498104,34.742897,58,97,41
34.498104,34.742897,48,97,41
34.748104,34.992897,58,101,41
34.748104,34.992897,48,101,41
34.998104,35.25134,56,106,41
34.998104,35.25134,48,106,41
35.256725,35.53684,55,110,41
35.256725,35.53684,48,110,41
35.54309,35.78788,48,70,41
35.54309,35.78788,56,70,41
35.79309,36.03788,56,70,41
36.04309,36.28788,60,70,41
36.54309,36.78788,56,70,41
36.79309,37.03788,60,70,41
37.29309,37.53788,56,70,41
37.54309,37.78788,60,70,41
38.04309,38.28788,56,70,41
38.29309,38.53788,60,70,41
38.79309,39.03788,58,90,41
39.04309,39.28788,61,100,41
39.54309,39.78788,56,70,41
39.79309,40.03788,60,70,41
40.29309,40.53788,58,90,41
40.54309,40.78788,61,100,41
41.04309,41.28788,56,70,41
41.29309,41.53788,60,70,41
41.54309,41.78788,48,70,41
41.79309,42.03788,48,70,41
42.04309,42.28788,60,70,41
42.54309,42.78788,48,70,41
42.79309,43.03788,60,70,41
43.29309,43.53788,48,70,41
43.54309,43.78788,60,70,41
44.04309,44.28788,48,70,41
44.29309,44.53788,60,70,41
44.54309,44.78788,55,70,41
44.79309,45.03788,55,72,41
45.04309,45.28788,53,75,41
45.29309,45.53788,53,78,41
45.54309,45.78788,58,81,41
45.79309,46.03788,56,84,41
46.04309,46.28788,55,86,41
46.29309,46.53788,64,89,41
46.54309,46.66809,67,92,41
46.66809,46.78788,64,93,41
46.79309,47.03788,64,95,41
47.04309,47.28788,72,98,41
47.29309,47.53788,53,100,41
47.54309,47.66288,52,100,41
47.66809,47.78788,52,100,41
47.79309,47.91288,53,100,41
47.91809,48.03788,53,100,41
48.04309,48.16288,53,100,41
48.16809,48.28788,53,100,41
48.29309,48.41288,52,100,41
48.41809,48.53788,52,100,41
48.54309,48.66288,53,100,41
48.66809,48.78788,53,100,41
48.79309,48.91288,53,100,41
48.91809,49.03788,53,100,41
49.04309,49.53788,52,100,41
51.54309,51.66701,60,111,41
51.672398,51.79632,60,114,41
51.80171,51.932392,60,118,41
51.938072,52.08182,60,122,41
52.088074,52.681824,61,125,41
55.088074,58.40966,61,50,41
58.915344,59.040344,60,60,41
59.040344,59.165344,56,60,41
59.665344,59.790344,56,60,41
59.790344,59.915344,53,60,41
60.415344,60.540344,60,60,41
60.540344,60.665344,56,60,41
61.165344,61.290344,56,60,41
61.290344,61.415344,53,60,41
61.665344,61.910133,53,60,41
61.915344,62.160133,58,60,41
62.165344,62.347633,60,60,41
62.415344,62.597633,61,60,41
62.665344,63.160133,60,60,41
63.165344,63.410133,53,60,41
63.415344,63.660133,58,60,41
63.665344,63.847633,60,60,41
63.915344,64.09763,61,60,41
64.165344,64.66013,60,60,41
64.665344,64.91013,53,60,41
64.915344,65.16013,53,60,41
65.165344,65.41013,52,60,41
65.415344,65.66013,53,60,41
65.665344,65.91013,56,60,41
65.915344,66.16013,55,60,41
66.165344,66.41013,56,60,41
66.415344,66.91013,60,60,41
66.915344,67.040344,58,60,41
67.040344,67.165344,55,60,41
67.165344,67.41013,58,60,41
67.415344,67.59763,56,60,41
67.665344,67.84763,53,60,41
67.915344,68.16013,53,60,41
68.165344,68.41013,52,60,41
68.415344,68.66013,53,60,41
68.665344,68.91013,56,60,41
68.915344,69.16013,55,60,41
69.165344,69.290344,60,60,41
69.290344,69.41013,63,60,41
69.415344,69.540344,61,70,41
69.540344,69.665344,65,72,41
69.665344,69.790344,61,75,41
69.790344,69.915344,65,78,41
69.915344,70.040344,62,81,41
70.040344,70.165344,65,84,41
70.165344,70.290344,63,86,41
70.290344,70.415344,67,89,41
70.415344,70.540344,63,92,41
70.540344,70.665344,67,95,41
70.665344,71.16013,48,98,41
71.165344,71.290344,48,100,41
71.290344,71.415344,60,100,41
71.415344,71.540344,48,125,41
71.540344,71.665344,60,100,41
71.665344,71.790344,48,100,41
71.790344,71.915344,60,100,41
71.915344,72.040344,48,100,41
72.040344,72.165344,60,100,41
72.165344,72.290344,48,125,41
72.290344,72.415344,60,100,41
72.415344,72.540344,50,100,41
72.540344,72.665344,55,100,41
72.665344,72.790344,50,100,41
72.790344,72.915344,55,100,41
72.915344,73.040344,51,125,41
73.040344,73.165344,55,100,41
73.165344,73.28513,51,125,41
73.290344,73.41013,54,100,41
73.415344,73.53513,57,100,41
73.540344,73.66013,57,100,41
73.665344,73.78513,57,100,41
73.790344,73.91013,57,100,41
73.915344,74.03513,57,100,41
74.040344,74.16013,54,100,41
74.165344,74.28513,57,100,41
74.290344,74.41013,57,100,41
74.415344,74.53513,57,100,41
74.540344,74.66013,57,100,41
74.665344,74.78513,57,100,41
74.790344,74.91013,54,100,41
74.915344,75.03513,57,100,41
75.040344,75.16013,57,100,41
75.165344,75.28513,57,100,41
75.290344,75.41013,57,85,41
75.415344,75.53513,57,70,41
75.540344,75.66013,54,70,41
75.665344,75.78513,57,70,41
75.790344,75.91013,57,70,41
75.915344,76.03513,57,70,41
76.040344,76.16013,57,70,41
76.165344,76.28513,57,70,41
76.290344,76.41013,54,70,41
76.415344,76.53513,57,70,41
76.540344,76.66013,57,70,41
76.665344,76.78513,57,70,41
76.790344,76.91013,57,70,41
76.915344,77.03513,57,70,41
77.040344,77.16013,54,70,41
77.165344,77.28513,57,70,41
77.290344,77.41013,57,70,41
77.415344,77.53513,57,70,41
77.540344,77.66013,57,70,41
77.665344,77.78513,57,70,41
77.790344,77.91013,54,70,41
77.915344,78.03513,57,70,41
78.040344,78.16013,57,70,41
78.165344,78.28513,57,70,41
78.290344,78.41013,57,70,41
78.415344,78.53513,56,110,41
78.540344,78.66013,53,110,41
78.665344,78.78513,56,110,41
78.790344,78.91013,56,110,41
78.915344,79.03513,56,110,41
79.040344,79.16013,56,110,41
79.165344,79.28513,56,110,41
79.290344,79.41013,53,110,41
79.415344,79.53513,56,110,41
79.540344,79.66013,56,110,41
79.665344,79.78513,56,110,41
79.790344,79.91013,56,110,41
79.915344,80.03513,56,110,41
80.040344,80.16013,53,110,41
80.165344,80.28513,56,110,41
80.290344,80.41013,56,110,41
80.415344,80.53513,56,110,41
80.540344,80.66013,56,110,41
80.665344,80.78513,56,110,41
80.790344,80.91013,53,110,41
80.915344,81.03513,56,110,41
81.040344,81.16013,56,110,41
81.165344,81.28513,56,110,41
81.290344,81.41013,56,90,41
81.415344,81.53513,56,70,41
81.540344,81.66013,53,70,41
81.665344,81.78513,56,70,41
81.790344,81.91013,56,70,41
81.915344,82.03513,56,70,41
82.040344,82.16013,56,70,41
82.165344,82.28513,56,70,41
82.290344,82.41013,53,70,41
82.415344,82.53513,56,70,41
82.540344,82.66013,56,70,41
82.665344,82.78513,56,70,41
82.790344,82.91013,56,70,41
82.915344,83.03513,56,70,41
83.040344,83.16013,53,70,41
83.165344,83.28513,56,70,41
83.290344,83.41013,56,70,41
83.415344,83.53513,56,70,41
83.540344,83.66013,56,70,41
83.665344,83.78513,56,70,41
83.790344,83.91013,53,70,41
83.915344,84.03513,65,70,41
84.040344,84.16013,65,70,41
84.165344,84.28513,65,70,41
84.290344,84.41013,65,70,41
84.415344,84.66013,65,70,41
84.665344,84.91013,65,78,41
84.915344,85.16013,63,87,41
85.165344,85.41013,62,96,41
85.415344,85.66013,53,100,41
85.665344,85.91013,51,87,41
85.915344,86.16013,65,70,41
86.165344,86.41013,65,78,41
86.415344,86.66013,63,87,41
86.665344,86.91013,62,96,41
86.915344,87.16013,53,100,41
87.165344,87.290344,51,87,41
87.290344,87.41013,63,80,41
87.415344,87.53513,60,70,41
87.415344,87.53513,62,70,41
87.540344,87.66013,60,70,41
87.540344,87.66013,62,70,41
87.665344,87.78513,60,70,41
87.665344,87.78513,62,70,41
87.790344,87.91013,60,70,41
87.790344,87.91013,62,70,41
87.915344,88.03513,60,70,41
87.915344,88.03513,62,70,41
88.040344,88.16013,60,70,41
88.040344,88.16013,62,70,41
88.165344,88.28513,60,70,41
88.165344,88.28513,62,70,41
88.290344,88.41013,60,70,41
88.290344,88.41013,62,70,41
88.415344,88.53513,60,70,41
88.415344,88.53513,62,70,41
88.540344,88.66013,60,70,41
88.540344,88.66013,62,70,41
88.665344,88.78513,60,70,41
88.665344,88.78513,62,70,41
88.790344,88.91013,60,70,41
88.790344,88.91013,62,70,41
88.915344,89.41013,60,70,41
88.915344,89.41013,63,70,41
90.49682,91.02554,51,100,41
91.03075,91.27554,51,70,41
91.28075,91.77554,51,100,41
91.78075,92.02554,51,70,41
92.03075,92.52554,53,100,41
92.53075,92.77554,50,70,41
92.78075,93.27554,59,100,41
93.28075,93.52554,59,70,41
93.53075,93.77554,60,100,41
93.78075,94.02554,51,70,41
94.03075,94.27554,51,70,41
94.28075,94.77554,51,100,41
94.78075,95.02554,48,70,41
95.03075,95.52554,53,100,41
95.53075,95.77554,50,70,41
95.78075,96.02554,59,100,41
96.03075,96.27554,62,70,41
96.28075,97.77554,55,100,41
97.78075,98.27554,48,100,41
99.28075,99.77554,72,70,41
101.11223,101.85702,53,70,41
101.11223,101.85702,56,70,41
101.86223,101.98723,56,70,41
101.98723,102.11223,60,70,41
102.36223,103.35702,53,70,41
102.36223,103.35702,56,70,41
103.36223,103.48723,56,70,41
103.48723,103.61223,60,70,41
104.11223,104.23723,58,70,41
104.23723,104.36223,61,70,41
104.86223,104.98723,56,70,41
104.98723,105.11223,60,70,41
105.61223,105.73723,58,70,41
105.73723,105.86223,61,70,41
106.36223,106.48723,56,70,41
106.48723,106.61223,60,70,41
106.86223,107.10702,48,70,41
107.11223,107.35702,51,70,41
107.36223,107.54452,53,70,41
107.61223,107.79452,54,70,41
107.86223,108.35702,53,70,41
109.94765,110.19244,60,70,41
110.19765,110.44244,61,70,41
110.44765,110.62994,63,70,41
110.69765,110.87994,65,70,41
110.94765,111.44244,63,70,41
112.20627,112.47331,60,70,41
112.479,112.74604,63,70,41
112.751724,113.01877,65,70,41
113.02445,113.79197,57,100,41
113.02445,113.79197,66,100,41
113.79718,114.04197,60,70,41
114.04718,114.29197,63,70,41
114.29718,114.54197,65,70,41
114.54718,115.29197,57,100,41
114.54718,115.29197,66,100,41
115.29718,115.54197,60,70,41
115.54718,115.79197,62,70,41
115.79718,116.04197,63,70,41
116.04718,116.79197,56,100,41
116.04718,116.79197,65,100,41
116.79718,117.04197,59,70,41
117.04718,117.29197,62,70,41
117.29718,117.54197,63,70,41
117.54718,118.29197,56,100,41
117.54718,118.29197,65,100,41
118.29718,118.54197,62,70,41
118.54718,118.79197,65,70,41
118.79718,119.04197,66,70,41
119.04718,119.79197,59,100,41
119.04718,119.79197,68,100,41
119.79718,120.04197,62,70,41
120.04718,120.29197,65,70,41
120.29718,120.54197,66,70,41
120.54718,121.29197,59,100,41
120.54718,121.29197,68,100,41
121.29718,121.54197,62,70,41
121.54718,121.79197,65,70,41
121.79718,122.04197,66,70,41
122.04718,123.095566,61,100,41
123.10125,123.22104,61,70,41
123.22625,123.34604,61,70,41
123.35125,123.47104,61,70,41
123.47625,123.59604,61,70,41
123.60125,123.72104,61,70,41
123.72625,123.84604,61,70,41
123.85125,124.34604,63,70,41
124.60125,125.09604,70,70,41
125.35125,125.47625,73,50,41
125.47625,125.60125,68,50,41
126.10125,126.22625,68,50,41
126.22625,126.35125,65,50,41
126.85125,126.97625,68,50,41
126.97625,127.10125,66,50,41
127.60125,127.72625,68,50,41
127.72625,127.85125,66,50,41
128.35126,128.47626,65,50,41
128.47626,128.60126,61,50,41
129.10126,129.22626,68,50,41
129.22626,129.35126,65,50,41
129.85126,129.97626,66,50,41
129.97626,130.10126,63,50,41
130.60126,130.73056,72,50,41
130.73056,130.85988,69,50,41
131.3771,131.51347,73,50,41
131.51347,131.64984,70,50,41
131.64984,131.91689,74,50,41
131.92256,132.1896,77,50,41
132.1953,132.46234,75,63,41
132.46802,132.65031,69,77,41
132.71802,132.90031,69,90,41
132.96802,133.21281,70,50,41
133.21802,133.46281,74,50,41
133.46802,133.71281,77,50,41
133.71802,133.96281,75,63,41
133.96802,134.15031,69,77,41
134.21802,134.40031,69,90,41
134.46802,134.71281,70,50,41
134.71802,134.96281,73,50,41
134.96802,135.21281,73,50,41
135.21802,135.46281,73,50,41
135.46802,135.71281,75,56,41
135.71802,135.96281,73,63,41
135.96802,136.21281,65,70,41
136.21802,136.46281,66,77,41
136.46802,136.71281,65,84,41
136.71802,136.96281,53,90,41
136.96802,137.21281,54,80,41
137.21802,137.46281,53,75,41
137.46802,137.71281,58,70,41
137.71802,137.96281,55,70,41
137.96802,138.21281,52,70,41
138.21802,138.46281,52,70,41
138.46802,138.71281,48,73,41
138.71802,138.96281,60,77,41
138.96802,139.21281,48,81,41
139.21802,139.46281,48,85,41
139.46802,139.71281,60,89,41
139.96802,140.21281,48,97,41
140.21802,140.46281,60,100,41
140.71802,140.96281,48,90,41
140.96802,141.21281,60,80,41
141.46802,141.71281,48,70,41
141.71802,141.96281,53,70,41
141.96802,142.21281,53,70,41
142.21802,142.46281,52,70,41
142.46802,142.71281,53,70,41
142.71802,142.96281,56,70,41
142.96802,143.21281,55,70,41
143.21802,143.46281,56,70,41
143.46802,143.96281,60,70,41
143.96802,144.09302,58,75,41
144.09302,144.21802,55,77,41
144.21802,144.46281,58,78,41
144.46802,144.71281,56,81,41
146.21802,146.34302,53,100,41
146.34302,146.46802,55,70,41
146.46802,146.59302,48,70,41
146.59302,146.71802,60,70,41
146.71802,146.84302,48,70,41
146.84302,146.96802,60,70,41
146.96802,147.09302,48,100,41
147.09302,147.21802,60,70,41
147.21802,147.34302,48,70,41
147.34302,147.46802,60,70,41
147.46802,147.59302,48,70,41
147.59302,147.71802,60,70,41
147.71802,147.84302,48,100,41
147.84302,147.96802,60,70,41
147.96802,148.09302,48,70,41
148.09302,148.21802,60,70,41
148.21802,148.34302,48,70,41
148.34302,148.46802,60,70,41
148.46802,148.59302,48,100,41
148.59302,148.71802,60,100,41
148.71802,148.83781,53,120,41
148.84302,148.96281,53,120,41
148.96802,149.08781,56,120,41
149.09302,149.21281,56,120,41
149.21802,149.33781,56,120,41
149.34302,149.46281,56,120,41
149.46802,149.58781,56,120,41
149.59302,149.71281,53,120,41
149.71802,149.83781,56,120,41
149.84302,149.96281,56,120,41
149.96802,150.08781,56,120,41
150.09302,150.21281,56,120,41
150.21802,150.33781,56,120,41
150.34302,150.46281,53,120,41
150.46802,150.58781,56,120,41
150.59302,150.71281,56,120,41
150.71802,150.83781,56,120,41
150.84302,150.96281,56,120,41
150.96802,151.08781,56,120,41
151.09302,151.21281,53,120,41
151.21802,151.33781,56,120,41
151.34302,151.46281,56,120,41
151.46802,151.58781,56,100,41
151.59302,151.71281,56,80,41
151.71802,151.83781,56,70,41
151.84302,151.96281,53,70,41
151.96802,152.08781,56,70,41
152.09302,152.21281,56,70,41
152.21802,152.33781,56,70,41
152.34302,152.46281,56,70,41
152.46802,152.58781,56,70,41
152.59302,152.71281,53,70,41
152.71802,152.83781,56,70,41
152.84302,152.96281,56,70,41
152.96802,153.08781,56,70,41
153.09302,153.21281,56,70,41
153.21802,153.33781,56,70,41
153.34302,153.46281,53,70,41
153.46802,153.59195,65,70,41
153.59734,153.72125,65,70,41
153.72664,153.85732,65,70,41
153.863,153.99368,65,70,41
153.99937,154.13005,64,120,41
154.13573,154.25552,58,120,41
154.26073,154.38052,61,120,41
154.38573,154.50552,61,120,41
154.51073,154.63052,61,120,41
154.63573,154.75552,61,120,41
154.76073,154.88052,61,120,41
154.88573,155.00552,58,120,41
155.01073,155.13052,61,120,41
155.13573,155.25552,61,120,41
155.26073,155.38052,61,120,41
155.38573,155.50552,61,120,41
155.51073,155.63052,61,120,41
155.63573,155.75552,58,120,41
155.76073,155.88052,61,120,41
155.88573,156.00552,61,120,41
156.01073,156.13052,61,120,41
156.13573,156.25552,61,120,41
156.26073,156.38052,61,120,41
156.38573,156.50552,58,120,41
156.51073,156.63052,61,120,41
156.63573,156.75552,61,120,41
156.76073,156.88052,61,120,41
156.88573,157.00552,61,120,41
157.01073,157.13052,61,120,41
157.13573,157.25552,58,120,41
157.26073,157.38052,61,120,41
157.38573,157.50552,61,120,41
157.51073,157.63052,61,100,41
157.63573,157.75552,61,80,41
157.76073,157.88052,61,70,41
157.88573,158.00552,58,70,41
158.01073,158.13052,61,70,41
158.13573,158.25552,61,70,41
158.26073,158.38052,61,70,41
158.38573,158.50552,61,70,41
158.51073,158.63052,61,70,41
158.63573,158.75552,58,70,41
158.76073,158.88052,61,70,41
158.88573,159.00552,61,70,41
159.01073,159.13052,61,70,41
159.13573,159.25552,61,70,41
159.26073,159.38052,61,70,41
159.38573,159.50552,58,70,41
159.51073,159.63466,58,70,41
159.64005,159.76396,58,70,41
159.76935,159.90004,58,70,41
159.90572,160.03639,58,70,41
160.04208,160.30913,58,70,41
160.3148,160.5596,70,78,41
160.5648,160.8096,68,87,41
160.8148,161.0596,67,96,41
161.0648,161.3096,58,100,41
161.3148,161.5596,56,87,41
161.5648,161.8096,58,70,41
161.8148,162.0596,70,78,41
162.0648,162.3096,68,87,41
162.3148,162.5596,67,96,41
162.5648,162.82343,58,100,41
162.82343,162.9598,56,87,41
162.9598,163.09047,65,80,41
163.09616,163.22684,61,70,41
163.09616,163.22684,65,70,41
163.23251,163.3632,61,70,41
163.23251,163.3632,65,70,41
163.36888,163.48868,61,70,41
163.36888,163.48868,65,70,41
163.49388,163.61368,61,70,41
163.49388,163.61368,65,70,41
163.61888,163.73868,61,70,41
163.61888,163.73868,65,70,41
163.74388,163.86368,61,70,41
163.74388,163.86368,65,70,41
163.86888,163.98868,61,70,41
163.86888,163.98868,65,70,41
163.99388,164.11368,61,70,41
163.99388,164.11368,65,70,41
164.11888,164.23868,61,70,41
164.11888,164.23868,65,70,41
164.24388,164.36368,61,70,41
164.24388,164.36368,65,70,41
164.36888,164.48868,61,70,41
164.36888,164.48868,65,70,41
164.49388,164.61368,61,70,41
164.49388,164.61368,65,70,41
164.61888,165.11368,65,70,41
166.16386,166.67001,56,100,41
166.67523,166.92001,56,70,41
166.92523,167.42001,56,100,41
167.42523,167.67001,53,70,41
167.67523,168.17001,58,100,41
168.17523,168.42001,55,70,41
168.42523,168.92001,64,100,41
168.92523,169.17001,52,70,41
169.17523,169.42001,53,100,41
169.42523,169.67001,56,70,41
169.67523,169.92001,56,70,41
169.92523,170.42001,56,100,41
170.42523,170.67001,53,70,41
170.67523,171.17001,58,100,41
171.17523,171.42847,55,70,41
171.43385,171.7009,64,100,41
171.70657,171.9837,52,70,41
171.9896,173.03438,60,100,41
173.0396,173.1646,53,70,41
173.1646,173.2896,56,70,41
173.2896,173.4146,60,70,41
173.4146,173.5396,65,70,41
173.5396,173.6646,68,70,41
173.6646,173.7896,68,70,41
173.7896,174.53438,60,70,41
174.5396,174.6646,53,70,41
174.6646,174.7896,56,70,41
174.7896,174.9146,60,70,41
174.9146,175.0396,65,70,41
175.0396,175.1646,68,70,41
175.1646,175.2896,69,75,41
175.2896,176.03438,67,80,41
175.2896,176.03438,70,80,41
176.0396,176.1646,53,70,41
176.1646,176.2896,56,70,41
176.2896,176.4146,60,70,41
176.4146,176.5396,65,70,41
176.5396,176.6646,68,70,41
176.6646,176.7896,69,75,41
176.7896,177.53438,67,80,41
176.7896,177.53438,70,80,41
177.5396,177.6646,53,70,41
177.6646,177.7896,56,70,41
177.7896,177.9146,60,70,41
177.9146,178.0396,65,70,41
178.0396,178.1646,68,70,41
178.1646,178.2896,53,70,41
178.1646,178.2896,68,70,41
178.2896,178.53438,48,70,41
178.5396,178.78438,48,73,41
178.7896,179.03438,60,76,41
179.2896,179.53438,48,82,41
179.5396,179.78438,60,85,41
180.0396,180.28438,48,91,41
180.2896,180.54283,60,94,41
180.54822,180.81526,48,97,41
180.82094,181.09807,53,100,41
181.10396,181.3977,53,90,41
181.40396,181.89876,51,70,41
182.90396,183.39876,49,70,41
184.40396,184.89876,65,60,41
185.90396,186.39876,64,60,41
188.90396,190.46097,52,110,41
188.90396,190.46097,55,110,41
190.46666,192.04012,53,110,41
192.0456,193.59193,53,110,41
192.0456,193.59193,58,110,41
193.59732,195.11745,53,110,41
193.59732,195.11745,60,110,41
195.12274,195.45609,53,110,41
195.12274,195.45609,58,110,41
195.87274,196.20609,48,110,41
195.87274,196.20609,60,110,41
196.62274,197.86754,53,110,41
197.87274,198.11754,53,110,41
198.12274,199.36754,53,110,41
198.12274,199.36754,58,110,41
199.37274,199.61754,53,110,41
199.37274,199.61754,58,110,41
199.62274,200.86754,53,110,41
199.62274,200.86754,60,110,41
200.87274,201.11754,53,110,41
200.87274,201.11754,60,110,41
201.12274,201.61754,55,110,41
201.62274,201.86754,55,125,41
201.87274,202.36754,67,110,41
202.37274,202.61754,67,125,41
202.62274,203.11754,53,110,41
202.62274,203.11754,55,110,41
203.12274,203.36754,53,96,41
203.12274,203.36754,55,96,41
203.37274,203.87598,52,88,41
203.37274,203.87598,55,88,41
203.88136,204.1484,52,73,41
203.88136,204.1484,55,73,41
204.1541,204.69386,53,70,41
204.1541,204.69386,55,70,41
204.69954,204.9666,53,67,41
204.69954,204.9666,55,67,41
204.97227,205.52213,53,65,41
204.97227,205.52213,55,65,41
205.52802,205.82176,53,61,41
205.52802,205.82176,55,61,41
207.62802,208.16779,52,70,41
207.62802,208.16779,55,70,41
208.17348,208.44052,52,70,41
208.17348,208.44052,55,70,41
208.4462,208.99605,52,70,41
208.4462,208.99605,55,70,41
209.00194,209.2957,52,70,41
209.00194,209.2957,55,70,41
211.10194,211.35518,53,70,41
211.36057,211.6138,52,73,41
211.61919,211.87242,53,76,41
211.8778,212.13104,54,80,41
212.13643,212.38966,53,83,41
212.39505,212.64828,54,87,41
212.65367,212.9069,51,90,41
212.9123,213.16553,50,94,41
213.17091,213.42415,51,97,41
213.42953,213.68277,52,100,41
213.68816,213.94138,51,90,41
213.94678,214.2,52,83,41
214.2054,214.45862,53,70,41
214.464,214.71724,52,73,41
214.72263,214.97586,53,76,41
214.98125,215.23448,54,80,41
215.23987,215.4931,53,83,41
215.49849,215.75172,54,87,41
215.75711,216.01035,51,90,41
216.01573,216.26897,50,94,41
216.27435,216.52759,51,97,41
216.53297,216.78621,52,100,41
216.7916,217.04483,51,90,41
217.05022,217.30345,52,83,41
217.30884,217.56207,53,70,41
217.56746,217.8207,52,70,41
217.82608,218.07932,53,70,41
218.0847,218.33794,53,70,41
218.34332,218.59656,52,70,41
218.60194,218.85518,53,70,41
218.86057,219.1138,53,70,41
219.11919,219.3724,52,70,41
219.3778,219.63103,53,70,41
219.63643,219.88965,53,70,41
219.89505,220.14827,52,70,41
220.15366,220.40689,53,70,41
220.41228,220.66551,53,70,41
220.6709,220.92413,52,70,41
220.92952,221.18275,53,70,41
221.18814,221.44138,68,70,41
221.44676,221.7,70,70,41
221.70538,221.95862,68,70,41
221.964,222.21724,53,70,41
222.22263,222.47586,52,70,41
222.48125,222.74353,53,70,41
223.59474,225.38849,53,50,41
225.39474,229.18433,60,40,41
230.19473,230.68953,57,70,41
230.69473,231.13533,58,70,41
231.13979,231.24248,60,70,41
231.24693,231.34961,65,70,41
231.35408,231.4499,65,70,41
231.45407,231.54991,65,70,41
231.55408,231.64992,67,70,41
231.65408,231.74991,67,70,41
231.75407,231.84991,67,70,41
231.85408,231.9499,67,70,41
231.95407,232.04991,67,70,41
232.05408,232.14992,67,70,41
232.15408,232.24991,67,70,41
232.25407,232.34991,67,70,41
232.35408,232.4499,67,70,41
232.45407,232.54991,67,70,41
232.55408,232.64992,67,70,41
232.65408,232.74991,67,70,41
232.75407,232.84991,65,70,41
232.85408,232.9499,72,70,41
232.95407,233.04991,72,70,41
233.05408,233.14992,72,70,41
233.15408,233.25531,72,70,41
233.2597,233.36095,72,70,41
233.36534,233.47183,72,70,41
233.47646,233.58293,70,70,41
233.58757,233.79451,69,60,41
234.39868,234.4945,65,60,41
234.49867,234.59451,70,60,41
234.59868,234.6945,70,60,41
234.69868,234.79451,70,60,41
234.79868,234.89452,67,60,41
234.89868,234.9945,72,60,41
234.99867,235.09451,72,60,41
235.09868,235.1945,72,60,41
235.19868,235.29451,69,60,41
235.29868,235.39452,72,60,41
235.39868,235.4945,72,60,41
235.49867,235.59451,72,60,41
235.59868,235.6945,72,60,41
235.69868,235.79451,69,60,41
235.79868,235.89452,69,60,41
235.89868,235.9945,69,60,41
235.99867,236.09451,65,60,41
236.09868,236.1945,70,60,41
236.19868,236.29451,70,60,41
236.29868,236.39452,70,60,41
236.39868,236.4945,67,60,41
236.49867,236.59451,72,60,41
236.59868,236.6945,72,60,41
236.69868,236.79451,72,60,41
236.79868,236.89452,72,70,41
236.89868,236.9945,69,70,41
236.99867,237.09451,69,70,41
237.09868,237.1945,69,70,41
237.19868,237.29451,70,70,41
237.29868,237.39452,70,70,41
237.39868,237.4945,70,70,41
237.49867,237.59451,70,70,41
237.59868,237.6945,69,70,41
237.69868,237.79451,69,70,41
237.79868,237.89452,69,70,41
237.89868,237.9945,69,70,41
237.99867,238.09451,70,70,41
238.09868,238.1945,70,70,41
238.19868,238.29451,70,70,41
238.29868,238.39452,70,70,41
238.39868,238.4945,69,70,41
238.49867,238.59451,69,70,41
238.59868,238.6945,69,70,41
238.69868,238.79451,69,70,41
238.79868,238.89452,70,70,41
238.89868,238.9945,70,70,41
238.99867,239.09451,70,70,41
239.09868,239.1945,70,70,41
239.19868,239.29451,69,70,41
239.29868,239.39452,69,70,41
239.39868,239.4945,69,70,41
239.49867,239.59451,69,70,41
239.59868,239.6945,67,70,41
239.69868,239.79451,67,70,41
239.79868,239.89452,67,70,41
239.89868,239.9945,67,70,41
239.99867,240.09451,65,70,41
240.09868,240.1945,59,71,41
240.19868,240.29451,59,72,41
240.29868,240.39452,59,73,41
240.39868,240.4945,59,74,41
240.49867,240.59451,59,75,41
240.59868,240.6945,59,76,41
240.69868,240.79451,59,77,41
240.79868,240.89452,59,78,41
240.89868,240.9945,59,79,41
240.99867,241.09451,59,80,41
241.09868,241.1945,59,81,41
241.19868,241.29451,59,82,41
241.29868,241.39452,59,83,41
241.39868,241.4945,59,84,41
241.49867,241.59451,59,85,41
241.59868,241.6945,55,86,41
241.69868,241.79451,55,87,41
241.79868,241.89452,55,88,41
241.89868,241.9945,55,89,41
241.99867,242.09451,55,90,41
242.09868,242.1945,55,91,41
242.19868,242.29451,55,92,41
242.29868,242.39452,55,93,41
242.39868,242.4945,53,94,41
242.49867,242.59451,53,95,41
242.59868,242.6945,53,96,41
242.69868,242.79451,53,97,41
242.79868,242.89452,58,98,41
242.89868,242.9945,58,99,41
242.99867,243.09451,58,100,41
243.09868,243.1945,58,101,41
243.19868,243.29451,60,102,41
243.29868,243.39452,60,103,41
243.39868,243.4945,60,104,41
243.49867,243.59451,60,105,41
243.59868,243.6945,60,106,41
243.69868,243.79451,60,107,41
243.79868,243.89452,60,108,41
243.89868,243.9945,60,109,41
243.99867,244.09451,48,110,41
243.99867,244.09451,60,110,41
244.09868,244.1945,48,110,41
244.09868,244.1945,60,110,41
244.19868,244.29451,48,110,41
244.19868,244.29451,60,110,41
244.29868,244.39452,48,110,41
244.29868,244.39452,60,110,41
244.39868,244.49991,48,110,41
244.39868,244.49991,60,110,41
244.50432,244.60555,48,110,41
244.50432,244.60555,60,110,41
244.60994,244.71643,48,110,41
244.60994,244.71643,60,110,41
244.72105,244.82753,48,110,41
244.72105,244.82753,60,110,41
244.83217,245.028,53,110,41
244.83217,245.028,60,110,41
245.23216,245.428,65,110,41
245.53217,245.628,53,110,41
245.63217,245.828,58,110,41
246.03217,246.228,65,110,41
246.33217,246.428,53,110,41
246.43216,246.628,58,110,41
246.83217,247.028,67,110,41
247.13217,247.228,55,110,41
247.23216,247.428,67,110,41
247.63217,247.828,71,110,41
247.93216,248.028,71,110,41
248.03217,248.228,64,110,41
248.03217,248.228,72,110,41
248.83217,249.228,54,70,41
249.23216,249.528,55,70,41
249.53217,249.628,56,70,41
249.63217,249.728,57,70,41
249.73216,249.828,52,70,41
249.83217,249.928,53,70,41
249.93216,250.028,50,70,41
250.03217,250.128,48,70,41
250.13217,250.228,50,70,41
250.23216,250.328,52,70,41
250.33217,250.428,53,70,41
250.43216,250.528,55,70,41
250.53217,250.628,57,70,41
250.63217,250.728,58,70,41
250.73216,250.828,60,70,41
250.83217,250.928,62,70,41
250.93216,251.028,64,70,41
251.03217,251.128,65,70,41
251.13217,251.228,67,70,41
251.23216,251.328,69,70,41
251.33217,251.428,70,70,41
251.43216,251.528,72,70,41
251.53217,251.628,74,70,41
251.63217,251.828,72,70,41
252.03217,252.1655,70,70,41
252.23216,252.628,70,70,41
252.63217,252.7655,64,70,41
252.83217,252.9655,65,70,41
253.03217,253.428,65,70,41
253.43216,253.5655,60,70,41
253.63217,253.778,58,70,41
253.83217,254.228,58,70,41
254.23216,254.378,52,70,41
254.43216,254.578,53,70,41
254.63217,255.03337,53,70,41
255.03764,255.19617,48,70,41
255.25504,255.35088,52,70,41
255.35504,255.45087,48,71,41
255.45503,255.55087,52,72,41
255.55504,255.65086,48,73,41
255.65504,255.75087,52,75,41
255.75504,255.85088,48,76,41
255.85504,255.95087,52,77,41
255.95503,256.05087,48,79,41
256.05502,256.15088,53,80,41
256.15503,256.2509,48,81,41
256.25504,256.35086,53,83,41
256.35504,256.45087,48,84,41
256.45505,256.55087,53,85,41
256.55502,256.65088,48,87,41
256.65503,256.7509,53,88,41
256.75504,256.85086,48,89,41
256.85504,256.95087,52,91,41
256.95505,257.05087,48,92,41
257.05502,257.15088,52,93,41
257.15503,257.2509,48,95,41
257.25504,257.35086,52,96,41
257.35504,257.45087,48,97,41
257.45505,257.55087,52,99,41
257.55502,257.65088,48,100,41
257.65503,257.7509,53,101,41
257.75504,257.85086,48,103,41
257.85504,257.95087,53,104,41
257.95505,258.05087,48,105,41
258.05502,258.15088,53,106,41
258.15503,258.2509,48,108,41
258.25504,258.3535,53,109,41
258.3578,258.45624,48,110,41
258.4605,258.8672,54,110,41
258.87146,259.1754,55,110,41
259.1797,259.27814,56,110,41
259.28244,259.3809,57,110,41
259.38516,259.48364,52,110,41
259.4879,259.58636,53,110,41
259.59064,259.68912,50,110,41
259.6934,259.79184,48,110,41
259.79614,259.8946,50,110,41
259.89886,259.9973,52,110,41
260.00162,260.10007,53,110,41
260.10434,260.20282,55,110,41
260.2071,260.30554,57,110,41
260.3098,260.4083,58,110,41
260.41257,260.51102,60,110,41
260.51532,260.61377,60,110,41
260.61804,260.7165,60,110,41
260.7208,260.81924,60,110,41
260.82352,260.922,60,110,41
260.92627,261.12747,60,110,41
261.7746,261.8773,58,70,41
261.88174,261.9844,60,70,41
261.9889,262.09155,62,70,41
262.09604,262.1987,64,70,41
262.20316,262.30585,65,70,41
262.3103,262.413,67,70,41
262.41745,262.52014,69,70,41
262.5246,262.6273,70,70,41
262.63174,262.7746,72,70,41
262.846,262.9889,74,81,41
263.0603,263.20316,76,93,41
263.4889,263.59457,55,110,41
263.59918,263.70486,57,110,41
263.70947,263.81516,58,110,41
263.81976,263.92545,60,110,41
263.93005,264.04062,62,110,41
264.04544,264.156,64,110,41
264.16083,264.2806,65,110,41
264.28583,264.5306,67,110,41
264.53583,265.0306,57,120,41
264.53583,265.0306,65,120,41
0.0,0.2142856,53,1,42
0.84978896,1.6419808,51,50,42
1.662814,2.837814,53,80,42
2.862814,4.037814,55,50,42
5.262814,6.2419806,52,50,42
6.262814,7.437814,53,80,42
7.462814,8.6378145,55,50,42
9.862814,10.841981,57,60,42
10.862814,11.841981,58,60,42
11.862814,12.841981,60,68,42
12.862814,14.841981,61,76,42
14.862814,15.841981,60,90,42
15.862814,16.951305,60,78,42
16.976307,18.151306,60,66,42
18.176306,18.476307,53,60,42
18.476307,18.744164,52,60,42
18.744164,19.01202,53,60,42
19.01202,19.257557,47,60,42
19.279877,19.832762,47,60,42
19.8568,20.45576,48,60,42
20.4818,21.460968,40,60,42
21.4818,22.460968,41,75,42
22.4818,24.674658,43,90,42
24.699657,25.678823,40,60,42
25.699657,26.678823,41,75,42
26.699657,28.97823,43,90,42
29.00323,31.163446,43,60,42
31.185768,32.844696,43,60,42
32.857197,33.150948,43,69,42
33.702652,33.969696,43,83,42
34.248104,34.492897,43,92,42
34.498104,34.742897,43,97,42
34.748104,34.992897,43,101,42
34.998104,35.25134,41,106,42
35.256725,35.53684,40,110,42
35.54309,35.78788,41,70,42
35.79309,36.03788,53,70,42
36.04309,36.28788,56,70,42
36.54309,36.78788,53,70,42
36.79309,37.03788,56,70,42
37.29309,37.53788,53,70,42
37.54309,37.78788,56,70,42
38.04309,38.28788,53,70,42
38.29309,38.53788,56,70,42
38.79309,39.03788,53,90,42
39.04309,39.28788,58,100,42
39.54309,39.78788,53,70,42
39.79309,40.03788,56,75,42
40.29309,40.53788,53,90,42
40.54309,40.78788,58,100,42
41.04309,41.28788,53,70,42
41.29309,41.53788,56,100,42
42.79309,43.03788,68,70,42
43.04309,43.28788,67,70,42
43.29309,43.53788,64,70,42
43.54309,43.78788,67,70,42
43.79309,44.03788,65,70,42
44.04309,44.28788,53,70,42
44.29309,44.53788,53,70,42
44.54309,44.78788,48,70,42
44.79309,45.03788,49,72,42
45.04309,45.28788,48,75,42
45.29309,45.53788,41,78,42
45.54309,45.78788,40,81,42
45.79309,46.03788,41,84,42
46.04309,46.28788,40,86,42
46.29309,46.53788,37,89,42
46.54309,46.78788,36,92,42
46.79309,47.03788,41,95,42
47.04309,47.28788,44,98,42
47.29309,47.53788,47,100,42
47.54309,47.66288,48,100,42
47.66809,47.78788,48,100,42
47.79309,47.91288,48,100,42
47.91809,48.03788,48,100,42
48.04309,48.16288,48,100,42
48.16809,48.28788,48,100,42
48.29309,48.41288,48,100,42
48.41809,48.53788,48,100,42
48.54309,48.66288,48,100,42
48.66809,48.78788,48,100,42
48.79309,48.91288,48,100,42
48.91809,49.03788,48,100,42
49.04309,49.53788,48,100,42
51.54309,51.66701,60,111,42
51.672398,51.79632,60,114,42
51.80171,51.932392,60,118,42
51.938072,52.08182,60,122,42
52.088074,52.681824,61,125,42
55.088074,58.40966,52,50,42
58.915344,59.160133,41,60,42
59.165344,59.410133,41,60,42
59.415344,59.660133,44,60,42
59.915344,60.160133,41,60,42
60.165344,60.410133,44,60,42
60.415344,60.660133,41,60,42
60.665344,60.910133,41,60,42
60.915344,61.160133,44,60,42
61.415344,61.660133,41,60,42
61.665344,61.910133,44,60,42
62.165344,62.410133,41,60,42
62.415344,62.660133,46,60,42
62.915344,63.160133,41,60,42
63.165344,63.410133,44,60,42
63.665344,63.910133,41,60,42
63.915344,64.16013,46,60,42
64.415344,64.66013,41,60,42
64.665344,64.91013,44,60,42
64.915344,65.16013,36,60,42
65.165344,65.41013,36,60,42
65.415344,65.66013,48,60,42
65.915344,66.16013,36,60,42
66.165344,66.41013,48,60,42
66.665344,66.91013,36,60,42
66.915344,67.16013,48,60,42
67.415344,67.66013,36,60,42
67.665344,67.91013,48,60,42
68.165344,68.41013,36,60,42
68.415344,68.66013,48,60,42
68.915344,69.16013,36,60,42
69.165344,69.41013,48,60,42
70.665344,70.91013,40,98,42
70.915344,71.16013,41,100,42
71.165344,71.41013,41,100,42
71.415344,71.66013,43,125,42
71.665344,71.91013,44,100,42
71.915344,72.16013,44,100,42
72.165344,72.41013,45,125,42
72.415344,72.66013,47,100,42
72.665344,72.91013,47,100,42
72.915344,73.16013,48,125,42
73.165344,73.66013,36,125,42
73.165344,73.66013,48,125,42
74.665344,75.16013,36,100,42
74.665344,75.16013,48,100,42
76.165344,76.66013,36,70,42
76.165344,76.66013,48,70,42
76.915344,77.41013,39,70,42
77.665344,78.16013,48,70,42
79.165344,79.66013,47,110,42
80.665344,81.16013,47,110,42
82.165344,82.66013,59,70,42
82.915344,83.41013,47,70,42
83.665344,83.91013,47,70,42
83.915344,84.03513,62,70,42
84.040344,84.16013,62,70,42
84.165344,84.28513,62,70,42
84.290344,84.41013,62,70,42
84.415344,84.66013,62,70,42
84.665344,84.91013,62,78,42
84.915344,85.16013,60,87,42
85.165344,85.41013,59,96,42
85.415344,85.66013,43,100,42
85.665344,85.91013,48,87,42
85.915344,86.16013,62,70,42
86.165344,86.41013,62,78,42
86.415344,86.66013,60,87,42
86.665344,86.91013,59,96,42
86.915344,87.16013,43,100,42
87.165344,87.290344,48,87,42
87.290344,87.41013,60,80,42
87.415344,87.53513,53,70,42
87.540344,87.66013,53,70,42
87.665344,87.78513,53,70,42
87.790344,87.91013,53,70,42
87.915344,88.03513,53,70,42
88.040344,88.16013,53,70,42
88.165344,88.28513,53,70,42
88.290344,88.41013,53,70,42
88.415344,88.53513,53,70,42
88.540344,88.66013,53,70,42
88.665344,88.78513,53,70,42
88.790344,88.91013,53,70,42
88.915344,89.41013,55,70,42
92.28075,92.52554,55,70,42
92.53075,92.77554,59,70,42
92.78075,93.02554,62,100,42
93.03075,93.27554,67,70,42
93.28075,93.52554,65,70,42
93.53075,93.77554,63,100,42
93.78075,94.02554,62,70,42
94.03075,94.27554,60,70,42
95.28075,95.52554,55,70,42
95.53075,95.77554,59,70,42
95.78075,96.02554,62,100,42
96.03075,96.15054,67,70,42
96.28075,96.52554,43,100,42
96.53075,97.77554,48,70,42
97.78075,98.27554,36,100,42
100.28937,100.41868,58,70,42
100.41868,100.54799,55,70,42
100.54799,100.68436,52,70,42
100.68436,100.82072,48,70,42
100.82072,100.96223,46,70,42
100.96223,101.11223,43,70,42
101.11223,101.35702,41,70,42
101.36223,101.60702,41,70,42
101.61223,101.85702,44,70,42
102.11223,102.35702,41,70,42
102.36223,102.60702,44,70,42
102.86223,103.10702,41,70,42
103.11223,103.35702,44,70,42
103.61223,103.85702,41,70,42
103.86223,104.10702,44,70,42
104.36223,104.60702,41,70,42
104.61223,104.85702,46,70,42
105.11223,105.35702,41,70,42
105.36223,105.60702,44,70,42
105.86223,106.10702,41,70,42
106.11223,106.35702,46,70,42
106.61223,106.85702,41,70,42
106.86223,107.10702,44,70,42
107.11223,107.35702,48,70,42
107.36223,107.54452,49,70,42
107.61223,107.79452,51,70,42
107.86223,108.35702,49,70,42
109.94765,110.19244,56,70,42
110.19765,110.44244,58,70,42
110.44765,110.62994,60,70,42
110.69765,110.87994,61,70,42
110.94765,111.44244,60,70,42
113.02445,113.2915,45,100,42
113.29718,113.54197,48,70,42
113.54718,113.72947,49,70,42
113.79718,113.97947,51,70,42
114.54718,114.79197,45,100,42
114.79718,115.04197,48,70,42
115.04718,115.22947,49,70,42
115.29718,115.47947,51,70,42
116.04718,116.29197,44,100,42
116.29718,116.54197,47,70,42
116.54718,116.72947,48,70,42
116.79718,116.97947,50,70,42
117.54718,117.79197,44,100,42
117.79718,118.04197,47,70,42
118.04718,118.22947,48,70,42
118.29718,118.47947,50,70,42
119.04718,119.29197,41,100,42
119.29718,119.54197,44,70,42
119.54718,119.72947,46,70,42
119.79718,119.97947,47,70,42
120.54718,120.79197,41,100,42
120.79718,121.04197,44,70,42
121.04718,121.22947,46,70,42
121.29718,121.47947,47,70,42
122.04718,123.095566,41,100,42
123.10125,123.22104,42,70,42
123.22625,123.34604,54,70,42
123.35125,123.47104,54,70,42
123.47625,123.59604,54,70,42
123.60125,123.72104,54,70,42
123.72625,123.84604,54,70,42
123.85125,124.34604,54,70,42
124.60125,125.09604,66,70,42
125.35125,125.59604,68,50,42
125.60125,125.84604,56,50,42
125.85125,126.09604,61,50,42
126.35125,126.59604,56,50,42
126.60125,126.84604,61,50,42
127.10125,127.34604,56,50,42
127.35125,127.59604,63,50,42
127.85125,128.09604,56,50,42
128.10126,128.34604,63,50,42
128.60126,128.84604,61,50,42
128.85126,129.09604,65,50,42
129.35126,129.59604,58,50,42
129.60126,129.84604,65,50,42
130.10126,130.34604,63,50,42
130.35126,130.59604,66,50,42
130.85988,131.1131,57,50,42
131.11848,131.37172,69,50,42
131.3771,131.64417,58,50,42
131.64984,131.91689,70,50,42
131.92256,132.1896,70,50,42
132.1953,133.21281,70,63,42
133.21802,133.46281,70,50,42
133.46802,133.71281,70,50,42
133.71802,134.96281,70,63,42
134.96802,135.21281,70,50,42
135.21802,135.46281,70,50,42
135.46802,135.71281,72,56,42
135.71802,135.96281,70,63,42
135.96802,136.21281,70,70,42
136.21802,136.46281,69,77,42
136.46802,136.71281,70,84,42
136.71802,137.46281,69,90,42
137.46802,137.71281,70,70,42
137.71802,137.96281,70,70,42
137.96802,138.21281,67,70,42
138.21802,138.46281,67,70,42
138.46802,138.71281,67,73,42
138.71802,138.96281,65,77,42
138.96802,139.03052,65,81,42
139.03052,139.09302,67,82,42
139.09302,139.21802,65,83,42
139.21802,139.46281,64,85,42
139.46802,139.71281,65,89,42
139.71802,139.96281,68,93,42
139.96802,140.21281,67,97,42
140.21802,140.46281,68,100,42
140.46802,140.96281,72,100,42
140.96802,141.09302,70,80,42
141.09302,141.21802,67,75,42
141.21802,141.46281,70,70,42
141.46802,141.71281,68,70,42
141.96802,142.21281,36,70,42
142.21802,142.46281,36,70,42
142.46802,142.71281,48,70,42
142.96802,143.21281,36,70,42
143.21802,143.46281,48,70,42
143.71802,143.96281,36,72,42
143.96802,144.21281,48,75,42
144.46802,144.71281,36,81,42
144.71802,144.96281,48,84,42
146.21802,146.46281,38,100,42
146.46802,146.71281,40,70,42
146.71802,146.96281,40,70,42
146.96802,147.21281,41,100,42
147.21802,147.46281,43,70,42
147.46802,147.71281,43,70,42
147.71802,147.96281,43,100,42
147.96802,148.21281,44,70,42
148.21802,148.46281,56,70,42
148.46802,148.71281,56,100,42
148.71802,149.21281,47,120,42
150.21802,150.71281,47,120,42
151.71802,152.21281,59,70,42
152.46802,152.96281,47,70,42
153.21802,153.72125,47,70,42
154.76073,155.25552,43,120,42
156.26073,156.75552,55,120,42
157.76073,158.25552,55,70,42
158.51073,159.00552,43,70,42
159.26073,159.50552,43,70,42
159.51073,159.63466,55,70,42
159.64005,159.76396,55,70,42
159.76935,159.90004,55,70,42
159.90572,160.03639,55,70,42
160.04208,160.30913,55,70,42
160.3148,160.5596,60,78,42
160.5648,160.8096,65,87,42
160.8148,161.0596,64,96,42
161.0648,161.3096,48,100,42
161.3148,161.5596,53,87,42
161.5648,161.8096,52,70,42
161.8148,162.0596,60,78,42
162.0648,162.3096,65,87,42
162.3148,162.5596,64,96,42
162.5648,162.81804,48,100,42
162.82343,162.9541,53,87,42
162.9598,163.09047,53,80,42
163.09616,163.22684,58,70,42
163.23251,163.3632,58,70,42
163.36888,163.48868,58,70,42
163.49388,163.61368,58,70,42
163.61888,163.73868,58,70,42
163.74388,163.86368,58,70,42
163.86888,163.98868,58,70,42
163.99388,164.11368,58,70,42
164.11888,164.23868,58,70,42
164.24388,164.36368,58,70,42
164.36888,164.48868,58,70,42
164.49388,164.61368,58,70,42
164.61888,165.11368,60,70,42
166.16386,166.67001,60,100,42
166.67523,166.92001,60,70,42
166.92523,167.17001,60,100,42
167.17523,167.42001,65,70,42
167.42523,167.67001,68,70,42
167.67523,168.17001,67,100,42
168.17523,168.42001,64,70,42
168.42523,168.92001,60,100,42
169.17523,169.67001,60,100,42
169.67523,169.92001,60,70,42
169.92523,170.17001,60,100,42
170.17523,170.42001,65,70,42
170.42523,170.67001,68,70,42
170.67523,171.17001,67,100,42
171.17523,171.42847,64,70,42
171.43385,171.7009,60,100,42
171.70657,171.9837,36,70,42
171.9896,172.28334,36,100,42
172.2896,172.4146,41,70,42
172.4146,172.5396,44,70,42
172.5396,172.6646,48,70,42
172.6646,172.7896,53,70,42
172.7896,172.9146,56,70,42
172.9146,173.0396,60,70,42
173.7896,173.9146,41,70,42
173.9146,174.0396,44,70,42
174.0396,174.1646,48,70,42
174.1646,174.2896,53,70,42
174.2896,174.4146,56,70,42
174.4146,174.5396,60,70,42
175.2896,175.4146,41,80,42
175.4146,175.5396,46,85,42
175.5396,175.6646,49,90,42
175.6646,175.7896,53,95,42
175.7896,175.9146,58,100,42
175.9146,176.0396,61,70,42
176.7896,176.9146,41,80,42
176.9146,177.0396,46,85,42
177.0396,177.1646,49,90,42
177.1646,177.2896,53,95,42
177.2896,177.4146,58,100,42
177.4146,177.5396,61,70,42
178.0396,178.28438,65,70,42
178.2896,178.53438,65,70,42
178.5396,178.78438,64,73,42
178.7896,179.03438,65,76,42
179.0396,179.28438,68,79,42
179.2896,179.53438,67,82,42
179.5396,179.78438,68,85,42
179.7896,180.28438,72,88,42
180.2896,180.4189,70,94,42
180.4189,180.54822,67,96,42
180.54822,180.81526,70,97,42
180.82094,181.09807,68,100,42
181.10396,181.3977,65,90,42
181.40396,181.64876,65,70,42
181.65396,181.89876,64,70,42
181.90396,182.14876,65,70,42
182.90396,183.14876,65,70,42
183.15396,183.39876,64,70,42
183.40396,183.64876,65,70,42
184.40396,184.64876,68,60,42
184.65396,184.89876,66,60,42
184.90396,185.14876,67,60,42
185.90396,186.14876,67,60,42
186.15396,186.39876,66,60,42
186.40396,186.64876,67,60,42
187.40396,190.46097,37,125,42
190.46666,192.04012,37,110,42
192.0456,193.59193,46,110,42
193.59732,195.11745,45,110,42
195.12274,195.45609,46,110,42
195.87274,196.20609,48,110,42
196.62274,197.86754,49,110,42
197.87274,198.11754,49,110,42
198.12274,199.36754,46,110,42
199.37274,199.61754,46,110,42
199.62274,200.86754,45,110,42
200.87274,201.11754,45,110,42
201.12274,201.61754,46,110,42
201.62274,201.86754,46,125,42
201.87274,202.36754,48,110,42
202.37274,202.61754,48,125,42
202.62274,203.11754,46,110,42
203.12274,203.36754,46,96,42
203.37274,203.87598,48,88,42
203.88136,204.1484,48,73,42
204.1541,204.69386,46,70,42
204.69954,204.9666,46,67,42
204.97227,205.52213,46,65,42
205.52802,205.82176,46,61,42
207.62802,208.16779,48,70,42
208.17348,208.44052,48,70,42
208.4462,208.99605,48,70,42
209.00194,209.2957,48,70,42
211.10194,211.6138,41,70,42
211.8778,212.38966,41,80,42
212.65367,213.16553,41,90,42
213.42953,213.94138,41,100,42
214.2054,214.71724,41,70,42
214.98125,215.4931,41,80,42
215.75711,216.26897,41,90,42
216.53297,217.04483,41,100,42
217.30884,217.8207,41,70,42
217.82608,218.07932,41,70,42
218.0847,218.59656,41,70,42
218.60194,218.85518,41,70,42
218.86057,219.3724,41,70,42
219.3778,219.63103,41,70,42
219.63643,220.14827,41,70,42
220.15366,220.40689,41,70,42
220.41228,220.66551,41,70,42
220.6709,220.92413,40,70,42
220.92952,221.18275,41,70,42
221.964,222.21724,41,70,42
222.22263,222.47586,40,70,42
222.48125,222.74353,41,70,42
223.59474,225.38849,41,50,42
225.39474,229.18433,41,40,42
225.39474,229.18433,48,40,42
230.19473,230.31453,48,70,42
230.31973,230.43953,60,70,42
230.44473,230.56453,60,70,42
230.56973,230.68953,60,70,42
230.69473,230.80531,60,70,42
230.81012,230.9207,60,70,42
230.9255,231.02818,60,70,42
231.03265,231.13533,60,70,42
231.13979,231.24248,60,70,42
231.24693,231.34961,60,70,42
231.35408,231.4499,60,70,42
231.45407,231.54991,60,70,42
231.55408,231.64992,60,70,42
231.65408,231.74991,60,70,42
231.75407,231.84991,60,70,42
231.85408,231.9499,60,70,42
231.95407,232.04991,60,70,42
232.05408,232.14992,60,70,42
232.15408,232.24991,60,70,42
232.25407,232.34991,60,70,42
232.35408,232.4499,60,70,42
232.45407,232.54991,60,70,42
232.55408,232.64992,60,70,42
232.65408,232.74991,60,70,42
232.75407,232.84991,60,70,42
232.85408,232.9499,60,70,42
232.95407,233.04991,60,70,42
233.05408,233.14992,60,70,42
233.15408,233.25531,60,70,42
233.2597,233.36095,60,70,42
233.36534,233.47183,60,70,42
233.47646,233.58293,60,70,42
233.58757,233.69405,65,60,42
233.69868,233.79451,65,60,42
233.79868,233.89452,65,60,42
233.89868,233.9945,65,60,42
233.99867,234.09451,65,60,42
234.09868,234.1945,65,60,42
234.19868,234.29451,65,60,42
234.29868,234.39452,65,60,42
234.39868,234.4945,65,60,42
234.49867,234.59451,65,60,42
234.59868,234.6945,65,60,42
234.69868,234.79451,65,60,42
234.79868,234.89452,65,60,42
234.89868,234.9945,65,60,42
234.99867,235.09451,65,60,42
235.09868,235.1945,65,60,42
235.19868,235.29451,65,60,42
235.29868,235.39452,65,60,42
235.39868,235.4945,65,60,42
235.49867,235.59451,65,60,42
235.59868,235.6945,65,60,42
235.69868,235.79451,65,60,42
235.79868,235.89452,65,60,42
235.89868,235.9945,65,60,42
235.99867,236.09451,65,60,42
236.09868,236.1945,65,60,42
236.19868,236.29451,65,60,42
236.29868,236.39452,65,60,42
236.39868,236.4945,65,60,42
236.49867,236.59451,65,60,42
236.59868,236.6945,65,60,42
236.69868,236.79451,65,60,42
236.79868,236.89452,65,70,42
236.89868,236.9945,65,70,42
236.99867,237.09451,65,70,42
237.09868,237.1945,65,70,42
237.19868,237.29451,64,70,42
237.29868,237.39452,64,70,42
237.39868,237.4945,64,70,42
237.49867,237.59451,64,70,42
237.59868,237.6945,65,70,42
237.69868,237.79451,65,70,42
237.79868,237.89452,65,70,42
237.89868,237.9945,65,70,42
237.99867,238.09451,64,70,42
238.09868,238.1945,64,70,42
238.19868,238.29451,64,70,42
238.29868,238.39452,64,70,42
238.39868,238.4945,65,70,42
238.49867,238.59451,65,70,42
238.59868,238.6945,65,70,42
238.69868,238.79451,65,70,42
238.79868,238.89452,64,70,42
238.89868,238.9945,64,70,42
238.99867,239.09451,64,70,42
239.09868,239.1945,64,70,42
239.19868,239.29451,65,70,42
239.29868,239.39452,65,70,42
239.39868,239.4945,65,70,42
239.49867,239.59451,65,70,42
239.59868,239.6945,64,70,42
239.69868,239.79451,64,70,42
239.79868,239.89452,64,70,42
239.89868,239.9945,64,70,42
239.99867,240.09451,62,70,42
240.09868,240.1945,50,71,42
240.19868,240.29451,50,72,42
240.29868,240.39452,50,73,42
240.39868,240.4945,50,74,42
240.49867,240.59451,50,75,42
240.59868,240.6945,50,76,42
240.69868,240.79451,50,77,42
240.79868,240.89452,43,78,42
240.89868,240.9945,43,79,42
240.99867,241.09451,43,80,42
241.09868,241.1945,43,81,42
241.19868,241.29451,43,82,42
241.29868,241.39452,43,83,42
241.39868,241.4945,43,84,42
241.49867,241.59451,43,85,42
241.59868,241.6945,48,86,42
241.69868,241.79451,48,87,42
241.79868,241.89452,48,88,42
241.89868,241.9945,48,89,42
241.99867,242.09451,48,90,42
242.09868,242.1945,48,91,42
242.19868,242.29451,48,92,42
242.29868,242.39452,48,93,42
242.39868,242.4945,50,94,42
242.49867,242.59451,50,95,42
242.59868,242.6945,50,96,42
242.69868,242.79451,50,97,42
242.79868,242.89452,46,98,42
242.89868,242.9945,46,99,42
242.99867,243.09451,46,100,42
243.09868,243.1945,46,101,42
243.19868,243.29451,48,102,42
243.29868,243.39452,48,103,42
243.39868,243.4945,48,104,42
243.49867,243.59451,48,105,42
243.59868,243.6945,48,106,42
243.69868,243.79451,48,107,42
243.79868,243.89452,48,108,42
243.89868,243.9945,48,109,42
243.99867,244.09451,36,110,42
244.09868,244.1945,36,110,42
244.19868,244.29451,36,110,42
244.29868,244.39452,36,110,42
244.39868,244.49991,36,110,42
244.50432,244.60555,36,110,42
244.60994,244.71643,36,110,42
244.72105,244.82753,36,110,42
244.83217,245.028,41,110,42
245.23216,245.428,41,110,42
245.53217,245.628,41,110,42
245.63217,245.828,46,110,42
246.03217,246.228,41,110,42
246.33217,246.428,41,110,42
246.43216,246.628,46,110,42
246.83217,247.028,43,110,42
247.13217,247.228,43,110,42
247.23216,247.428,36,110,42
247.63217,247.828,43,110,42
247.93216,248.028,43,110,42
248.03217,248.228,36,110,42
252.03217,252.428,42,70,42
252.43216,252.728,43,70,42
252.73216,252.828,44,70,42
252.83217,252.928,45,70,42
252.93216,253.028,40,70,42
253.03217,253.128,41,70,42
253.13217,253.228,38,70,42
253.23216,253.328,36,70,42
253.33217,253.428,38,70,42
253.43216,253.528,40,70,42
253.53217,253.628,41,70,42
253.63217,253.728,43,70,42
253.73216,253.828,45,70,42
253.83217,253.928,46,70,42
253.93216,254.028,48,70,42
254.03217,254.128,50,70,42
254.13217,254.228,52,70,42
254.23216,254.328,53,70,42
254.33217,254.428,55,70,42
254.43216,254.528,57,70,42
254.53217,254.628,58,70,42
254.63217,254.728,60,70,42
254.73216,254.828,62,70,42
254.83217,255.03337,60,70,42
255.25504,255.40086,46,70,42
255.45503,255.85088,46,72,42
255.85504,256.0009,36,77,42
256.05502,256.20087,45,80,42
256.25504,256.65088,45,83,42
256.65503,256.80087,36,88,42
256.85504,257.0009,46,91,42
257.05502,257.45087,46,93,42
257.45505,257.60086,36,99,42
257.65503,257.80087,45,101,42
257.85504,258.2509,45,104,42
258.25504,258.40488,36,109,42
258.4605,258.8672,42,110,42
258.87146,259.1754,43,110,42
259.1797,259.27814,44,110,42
259.28244,259.3809,45,110,42
259.38516,259.48364,40,110,42
259.4879,259.58636,41,110,42
259.59064,259.68912,38,110,42
259.6934,259.79184,36,110,42
259.79614,259.8946,38,110,42
259.89886,259.9973,40,110,42
260.00162,260.10007,41,110,42
260.10434,260.20282,43,110,42
260.2071,260.30554,45,110,42
260.3098,260.4083,46,110,42
260.41257,260.51102,48,110,42
260.51532,260.61377,48,110,42
260.61804,260.7165,48,110,42
260.7208,260.81924,48,110,42
260.82352,260.922,48,110,42
260.92627,261.12747,53,110,42
261.7746,261.8773,55,70,42
261.88174,261.9844,57,70,42
261.9889,262.09155,58,70,42
262.09604,262.1987,60,70,42
262.20316,262.30585,62,70,42
262.3103,262.413,64,70,42
262.41745,262.52014,65,70,42
262.5246,262.6273,67,70,42
262.63174,262.84155,69,70,42
263.4889,263.59457,48,110,42
263.59918,263.70486,46,110,42
263.70947,263.81516,45,110,42
263.81976,263.92545,43,110,42
263.93005,264.04062,41,110,42
264.04544,264.156,40,110,42
264.16083,264.2806,38,110,42
264.28583,264.5306,36,110,42
264.53583,265.0306,41,120,42
