start_time,end_time,note_value,velocity,instrument_program_number
1.279852,2.115009,55,43,40
1.279852,2.115009,64,43,40
2.9365115,3.746618,55,43,40
2.9365115,3.746618,64,43,40
4.5474195,5.340904,55,43,40
4.5474195,5.340904,64,43,40
6.1322675,6.9303293,55,43,40
6.1322675,6.9303293,65,43,40
7.737011,8.554354,55,43,40
7.737011,8.554354,65,43,40
9.384555,10.229909,55,43,40
9.384555,10.229909,65,43,40
11.08119,11.916347,55,43,40
11.08119,11.916347,67,43,40
12.737849,13.5479555,55,43,40
12.737849,13.5479555,62,43,40
14.348758,15.142242,55,43,40
14.348758,15.142242,64,43,40
15.93679,16.334232,59,43,40
15.93679,16.334232,62,43,40
16.749622,17.157948,59,48,40
16.749622,17.157948,62,48,40
17.586773,18.009434,59,53,40
17.586773,18.009434,62,53,40
18.455309,18.896727,59,58,40
18.455309,18.896727,65,58,40
19.36375,19.73942,59,63,40
19.36375,19.73942,65,63,40
21.173635,22.008793,55,43,40
21.173635,22.008793,67,43,40
22.830296,23.640402,60,43,40
22.830296,23.640402,67,43,40
24.441204,25.234688,60,43,40
24.441204,25.234688,67,43,40
26.027956,26.423141,60,43,40
26.027956,26.423141,69,43,40
26.83481,27.238008,60,48,40
26.83481,27.238008,69,48,40
27.659492,28.073078,60,53,40
27.659492,28.073078,69,53,40
28.506786,28.933681,60,58,40
28.506786,28.933681,69,58,40
29.382202,29.73337,60,63,40
29.382202,29.73337,69,63,40
31.147196,31.996878,64,43,40
31.147196,31.996878,72,43,40
32.841797,33.682663,64,43,40
32.841797,33.682663,72,43,40
34.52016,35.354977,62,43,40
34.52016,35.354977,71,43,40
36.232056,37.223972,59,60,40
37.223972,37.901466,60,60,40
37.901466,38.089214,64,60,40
38.089214,38.634525,67,60,40
38.634525,38.82272,64,60,40
38.82272,39.415634,72,60,40
39.415634,39.62532,67,60,40
39.62532,40.303463,76,60,40
40.303463,40.495323,72,60,40
40.549454,42.235893,79,60,40
42.235893,43.8675,76,60,40
43.8675,45.362865,72,60,40
45.46179,46.651237,71,60,40
46.651237,46.85088,74,60,40
46.85088,47.051212,72,60,40
47.051212,48.585117,71,60,40
48.675236,49.926205,67,60,40
49.926205,50.03178,69,60,40
50.03178,50.1381,67,60,40
50.1381,50.24442,66,60,40
50.24442,50.32416,67,60,40
50.350792,51.82997,72,60,40
51.82997,51.9919,67,60,40
52.03723,53.467274,74,60,40
53.467274,53.624832,67,60,40
53.66884,55.06527,76,60,40
55.06527,55.219856,67,60,40
55.263126,56.665024,79,60,40
56.665024,56.825542,77,60,40
56.870506,59.024666,74,60,40
59.024666,59.13847,76,60,40
59.13847,59.253407,74,60,40
59.253407,59.36834,73,60,40
59.36834,59.484634,74,60,40
59.484634,59.957382,76,60,40
59.957382,60.35151,77,60,40
60.443237,62.129677,79,60,40
62.129677,63.761284,84,60,40
63.761284,65.25665,83,60,40
65.35557,66.55034,81,60,40
66.55034,66.752304,84,60,40
66.752304,66.911194,88,60,40
66.955696,67.78037,88,60,40
67.78037,69.06138,86,60,40
69.06138,69.28137,84,60,40
69.28137,69.45413,83,60,40
69.50308,69.72687,83,60,40
69.72687,69.95357,81,60,40
69.95357,70.18231,79,60,40
70.18231,70.35516,78,60,40
70.35516,70.39838,81,60,40
70.4129,72.09934,79,60,40
73.52939,73.73095,71,60,40
73.73095,73.93202,72,79,40
73.93202,74.132416,74,60,40
74.132416,74.33229,75,60,40
74.33229,74.53175,74,60,40
74.53175,74.73077,72,60,40
74.73077,74.92924,75,60,40
74.92924,75.12738,74,60,40
75.12738,75.28197,72,60,40
75.32524,76.11851,71,60,40
76.31887,76.520004,71,60,40
76.520004,76.72197,74,63,40
76.72197,76.92536,71,65,40
76.92536,77.1297,67,67,40
77.1297,77.33502,71,70,40
77.33502,77.54182,62,72,40
77.54182,77.750046,67,74,40
77.750046,77.95945,59,77,40
77.95945,78.17021,60,79,40
78.17021,78.383064,62,81,40
78.383064,78.55022,59,84,40
78.597336,78.81306,60,105,40
78.81306,79.031044,62,86,40
79.031044,79.25104,63,86,40
79.25104,79.472755,62,86,40
79.472755,79.69653,60,86,40
79.69653,79.92323,63,86,40
79.92323,80.15198,62,86,40
80.15198,80.33204,60,86,40
80.382576,81.23386,59,60,40
85.690216,85.88252,73,60,40
86.08817,86.28227,73,60,40
86.48967,86.685326,73,60,40
86.89503,87.30469,73,60,40
87.30469,87.634926,74,60,40
87.71971,87.92253,74,60,40
88.139885,88.299484,74,60,40
88.567,89.00071,74,60,40
89.00071,89.35179,75,60,40
89.44242,89.65921,75,60,40
89.89291,90.064026,75,60,40
90.35224,90.77988,76,60,40
90.77988,90.9857,55,43,40
90.77988,90.9857,64,43,40
91.20352,91.40708,55,43,40
91.20352,91.40708,64,43,40
91.62295,91.779305,55,43,40
91.62295,91.779305,64,43,40
92.4511,92.64963,55,43,40
92.4511,92.64963,64,43,40
92.86018,93.057396,55,43,40
92.86018,93.057396,64,43,40
93.266655,93.41822,55,43,40
93.266655,93.41822,64,43,40
94.07175,94.26538,55,43,40
94.07175,94.26538,64,43,40
94.47109,94.66389,55,43,40
94.47109,94.66389,64,43,40
94.868576,95.01725,55,43,40
94.868576,95.01725,64,43,40
95.6596,95.85135,60,43,40
95.6596,95.85135,65,43,40
96.05594,96.24857,60,43,40
96.05594,96.24857,65,43,40
96.454025,96.60375,60,43,40
96.454025,96.60375,65,43,40
97.25606,97.45172,62,43,40
97.25606,97.45172,74,43,40
97.66068,97.85752,62,43,40
97.66068,97.85752,74,43,40
98.06773,98.22134,62,43,40
98.06773,98.22134,74,43,40
98.89133,99.09288,64,43,40
98.89133,99.09288,72,43,40
99.30823,99.51141,64,43,40
99.30823,99.51141,72,43,40
99.72899,99.887726,64,43,40
99.72899,99.887726,72,43,40
100.58615,100.800354,62,43,40
100.58615,100.800354,69,43,40
101.03266,101.255844,62,43,40
101.03266,101.255844,69,43,40
101.49952,101.68166,62,43,40
101.49952,101.68166,69,43,40
102.48048,102.700645,64,43,40
102.48048,102.700645,72,43,40
102.93502,103.1556,64,43,40
102.93502,103.1556,72,43,40
103.39252,103.56657,64,43,40
103.39252,103.56657,72,43,40
104.34299,104.5828,65,43,40
104.34299,104.5828,74,43,40
104.84364,105.0939,65,43,40
104.84364,105.0939,74,43,40
105.367676,105.5714,65,43,40
105.367676,105.5714,74,43,40
106.35904,106.58283,65,43,40
106.35904,106.58283,71,43,40
106.82953,107.07006,65,43,40
106.82953,107.07006,71,43,40
107.335915,107.536575,65,43,40
107.335915,107.536575,71,43,40
107.88154,108.67748,64,43,40
107.88154,108.67748,72,43,40
110.18582,111.0866,72,60,40
111.0866,112.78644,76,60,40
112.78644,115.30194,79,60,40
115.30194,115.946724,76,80,40
115.946724,116.1173,72,84,40
116.16513,119.615166,77,86,40
119.615166,121.26967,72,61,40
121.36594,123.08022,73,60,40
123.08022,124.816315,70,57,40
124.816315,126.53454,72,54,40
126.62902,128.32886,65,50,40
130.84436,131.70755,68,50,40
131.70755,133.4074,72,50,40
133.4074,135.92633,75,59,40
135.92633,136.58151,72,71,40
136.58151,136.75627,68,75,40
136.80533,140.25536,73,76,40
140.25536,141.90987,68,59,40
142.00613,143.72041,70,50,40
143.72041,145.44914,66,50,40
145.44914,147.12877,68,50,40
147.2277,148.94199,61,50,40
150.65628,152.42972,77,50,40
152.42972,154.13457,78,50,40
154.13457,155.82034,75,59,40
155.82034,157.39493,72,67,40
157.49266,160.88799,80,76,40
160.88799,162.21262,77,50,40
162.21262,162.4372,80,50,40
162.4372,162.61331,78,50,40
162.66267,164.36754,78,50,40
164.36754,166.05331,75,50,40
166.05331,167.6279,72,50,40
167.72563,171.07957,80,50,40
171.07957,172.74042,74,76,40
172.8391,176.22224,82,76,40
176.22224,177.78369,76,101,40
177.88052,179.52272,84,101,40
179.52272,181.15097,77,110,40
181.15097,182.79118,78,118,40
182.88477,188.7498,79,126,40
188.7498,189.56837,77,50,40
189.56837,190.38383,74,50,40
190.38383,191.19664,71,50,40
191.19664,192.05934,67,50,40
192.05934,193.06471,65,50,40
193.15149,193.35909,64,43,40
193.57913,193.79156,55,43,40
193.79156,194.00278,60,43,40
194.00278,194.21289,64,43,40
194.21289,194.4222,55,43,40
194.4222,194.63068,60,43,40
194.63068,194.7926,64,43,40
195.25035,195.45529,55,43,40
195.45529,195.65944,60,43,40
195.65944,195.86299,64,43,40
195.86299,196.0659,55,43,40
196.0659,196.26797,60,43,40
196.26797,196.42554,64,43,40
196.871,197.07088,55,43,40
197.07088,197.27034,60,43,40
197.27034,197.46936,64,43,40
197.46936,197.66783,55,43,40
197.66783,197.86597,60,43,40
197.86597,198.02055,64,43,40
198.45885,198.6568,55,43,40
198.6568,198.8552,59,43,40
198.8552,199.05405,65,43,40
199.05405,199.25328,55,43,40
199.25328,199.45291,59,43,40
199.45291,199.60942,65,43,40
200.05531,200.25728,55,43,40
200.25728,200.45993,59,43,40
200.45993,200.66315,65,43,40
200.66315,200.86699,55,43,40
200.86699,201.07181,59,43,40
201.07181,201.23222,65,43,40
201.69058,201.89865,55,43,40
201.89865,202.10748,59,43,40
202.10748,202.31723,62,43,40
202.31723,202.52824,55,43,40
202.52824,202.74014,59,43,40
202.74014,202.90627,62,43,40
203.38046,203.5929,55,43,40
203.5929,203.80411,60,43,40
203.80411,204.01422,64,43,40
204.01422,204.22354,55,43,40
204.22354,204.432,60,43,40
204.432,204.59393,64,43,40
205.0517,205.25662,55,43,40
205.25662,205.46077,65,43,40
205.46077,205.66432,67,43,40
205.66432,205.86725,62,43,40
205.86725,206.06932,65,43,40
206.06932,206.22687,67,43,40
206.67235,206.87221,60,43,40
206.87221,207.07169,64,43,40
207.07169,207.27069,67,43,40
207.27069,207.46916,60,43,40
207.46916,207.66731,64,43,40
207.66731,207.8219,67,43,40
208.26067,208.4596,59,43,40
208.4596,208.65971,62,43,40
208.65971,208.8611,67,43,40
208.8611,209.06352,59,43,40
209.06352,209.26706,62,43,40
209.26706,209.42758,67,43,40
209.88744,210.09758,59,43,40
210.09758,210.3097,62,43,40
210.3097,210.52345,67,43,40
210.52345,210.73909,59,43,40
210.73909,210.95766,62,43,40
210.95766,211.12964,67,43,40
211.62671,211.85544,59,43,40
211.85544,212.08667,62,43,40
212.08667,212.3209,67,43,40
212.3209,212.55942,59,43,40
212.55942,212.80096,62,43,40
212.80096,212.9917,67,43,40
213.47292,213.68535,60,43,40
213.68535,213.89656,64,43,40
213.89656,214.10667,67,43,40
214.10667,214.31598,60,43,40
214.31598,214.52446,64,43,40
214.52446,214.68639,67,43,40
215.14413,215.34908,60,43,40
215.34908,215.55322,64,43,40
215.55322,215.75677,67,43,40
215.75677,215.95969,60,43,40
215.95969,216.16176,64,43,40
216.16176,216.31932,67,43,40
216.76479,216.96466,60,43,40
216.96466,217.16412,64,43,40
217.16412,217.36314,67,43,40
217.36314,217.56161,60,43,40
217.56161,217.75975,64,43,40
217.75975,217.91434,67,43,40
218.35292,218.55145,60,43,40
218.55145,218.75089,62,43,40
218.75089,218.95125,69,43,40
218.95125,219.15237,60,43,40
219.15237,219.35434,62,43,40
219.35434,219.51323,69,43,40
219.96739,220.1742,60,43,40
220.1742,220.38242,62,43,40
220.38242,220.59183,69,43,40
220.59183,220.80258,60,43,40
220.80258,221.01544,62,43,40
221.01544,221.18259,69,43,40
221.66342,221.8834,62,43,40
221.8834,222.10513,69,43,40
222.10513,222.3289,72,43,40
222.3289,222.5556,62,43,40
222.5556,222.78435,69,43,40
222.78435,222.9644,72,43,40
223.43225,223.64189,64,43,40
223.64189,223.85251,67,43,40
223.85251,224.06418,72,43,40
224.06418,224.27672,64,43,40
224.27672,224.49017,67,43,40
224.49017,224.65817,72,43,40
225.13857,225.35744,64,43,40
225.35744,225.5779,67,43,40
225.5779,225.7997,72,43,40
225.7997,226.02301,64,43,40
226.02301,226.24867,67,43,40
226.24867,226.42593,72,43,40
226.93625,227.16995,65,43,40
227.16995,227.40561,67,43,40
227.40561,227.64359,71,43,40
227.64359,227.88487,62,43,40
227.88487,228.12848,65,43,40
228.12848,228.32033,67,43,40
228.37418,229.22546,64,50,40
229.22546,229.63837,67,50,40
230.06062,230.46663,67,50,40
230.88213,231.28226,67,50,40
231.69223,232.08743,67,50,40
232.49303,232.80371,67,50,40
233.28651,233.67535,67,50,40
234.07788,234.46973,67,50,40
234.87595,235.27168,67,50,40
235.68262,236.0833,67,50,40
236.49997,236.90678,67,50,40
237.33017,237.65855,67,50,40
238.17552,239.0268,67,60,40
241.292,241.49356,76,84,40
241.49356,242.89,84,105,40
242.89,243.04459,83,86,40
243.08784,243.27905,81,86,40
243.48306,243.67519,79,86,40
243.88048,244.0741,77,86,40
244.28084,244.47574,76,83,40
244.68439,244.88116,74,81,40
245.09148,245.29022,72,78,40
245.50298,245.70377,71,76,40
245.91869,246.12221,69,73,40
246.34004,246.54578,67,71,40
246.76672,246.97583,65,68,40
247.19984,247.4119,64,66,40
247.63995,247.85579,63,63,40
248.0871,248.51567,62,60,40
248.94424,249.3728,62,60,40
249.80138,250.22995,62,60,40
253.22995,253.66321,76,50,40
254.1094,254.56935,76,50,40
255.04305,255.52692,76,50,40
258.5822,259.87332,74,50,40
259.87332,259.98175,76,60,40
259.98175,260.09015,74,61,40
260.09015,260.19858,73,61,40
260.19858,260.30753,74,62,40
260.30753,262.51712,79,63,40
262.51712,262.96844,80,69,40
262.96844,263.4235,81,63,40
263.4235,263.78705,77,57,40
263.8797,265.76175,75,50,40
265.76175,266.60315,76,50,40
267.3954,267.61746,67,50,40
267.61746,269.11798,76,69,40
269.11798,269.2809,74,50,40
269.32654,270.94373,77,50,40
272.33063,272.5333,67,50,40
272.5333,274.0324,77,69,40
274.0324,274.21155,76,50,40
274.26187,276.10785,79,50,40
277.5554,277.75305,76,50,40
277.75305,279.19205,84,69,40
279.19205,279.36127,83,50,40
279.6291,279.73044,81,50,40
279.84476,279.9442,79,50,40
280.4676,280.56213,77,50,40
280.66818,280.76135,76,50,40
281.25266,281.34207,74,50,40
281.4425,281.53082,72,50,40
281.99994,282.0855,71,50,40
282.1823,282.26718,69,50,40
282.72223,282.8075,67,50,40
282.90515,282.99243,65,50,40
283.4857,283.58228,64,50,40
283.69406,283.79526,63,50,40
284.14093,284.99808,62,50,40
285.85522,286.2838,77,50,40
286.71237,287.14093,77,50,40
287.56952,287.99808,77,50,40
291.0969,291.58078,76,50,40
292.06464,292.54852,76,50,40
293.03238,293.51627,76,50,40
296.46442,296.57156,66,113,40
296.46442,296.8691,75,113,40
296.57156,296.8691,84,113,40
297.34695,297.4628,66,113,40
297.34695,297.7887,75,113,40
297.4628,297.7887,84,113,40
298.31396,298.4403,66,113,40
298.31396,298.85248,75,113,40
298.4403,298.85248,84,113,40
302.49796,302.71225,55,60,40
302.71225,302.91943,60,60,40
302.91943,303.1205,64,60,40
303.1205,303.31604,62,60,40
303.31604,303.50717,60,60,40
303.50717,303.694,64,60,40
303.694,303.8777,67,60,40
303.8777,304.05862,65,60,40
304.05862,304.2372,64,60,40
304.2372,304.41577,72,60,40
304.41577,304.59433,76,60,40
304.59433,304.77292,74,60,40
304.77292,304.95148,72,60,40
304.95148,305.13007,76,60,40
305.13007,305.30862,79,60,40
305.30862,305.44815,77,60,40
305.4872,305.66577,76,60,40
305.66577,305.84433,79,63,40
305.84433,306.02292,77,65,40
306.02292,306.20148,73,67,40
306.20148,306.38007,74,69,40
306.38007,306.55862,76,71,40
306.55862,306.7372,77,73,40
306.7372,306.91577,73,75,40
306.91577,307.09433,74,77,40
307.09433,307.27292,76,80,40
307.27292,307.45148,77,82,40
307.45148,307.63007,73,84,40
307.63007,307.80862,74,86,40
307.80862,307.9872,73,84,40
307.9872,308.16577,74,82,40
308.16577,308.34433,77,80,40
308.34433,308.5244,72,77,40
308.5244,308.7115,71,75,40
308.7115,308.90784,72,73,40
308.90784,309.11636,76,71,40
309.11636,309.34085,74,69,40
309.34085,309.58664,73,67,40
309.58664,309.86154,74,65,40
309.86154,310.09894,77,63,40
311.0242,311.88135,55,60,40
311.88135,313.81064,77,79,40
313.81064,314.0289,74,64,40
314.0289,314.25122,71,67,40
314.25122,314.47855,67,70,40
314.47855,314.7119,65,73,40
314.7119,314.95248,62,76,40
314.95248,315.20166,59,80,40
315.20166,315.40213,55,83,40
315.45862,315.8805,56,86,40
316.31573,316.7376,65,86,40
317.17288,319.1026,77,105,40
319.1026,319.32318,70,86,40
319.32318,319.55038,72,86,40
319.55038,319.78592,74,86,40
319.78592,320.0318,75,85,40
320.0318,320.29053,77,77,40
320.29053,320.56528,79,68,40
320.56528,320.79126,80,59,40
320.85526,322.5508,82,50,40
322.5508,324.20908,79,50,40
324.20908,325.84143,75,50,40
325.84143,327.3808,74,50,40
330.81165,332.5072,84,50,40
332.5072,334.16547,81,59,40
334.16547,335.79782,78,67,40
335.79782,337.44946,77,76,40
337.44946,339.20508,74,67,40
339.20508,341.13214,71,59,40
341.13214,342.78543,72,60,40
343.76202,344.68094,79,60,40
344.68094,345.15128,79,77,40
345.15128,345.62698,77,86,40
345.62698,346.11017,76,77,40
346.11017,346.5097,77,69,40
346.60245,348.33853,76,60,40
349.23233,349.45944,78,60,40
349.45944,349.6882,79,67,40
349.6882,349.91876,81,73,40
349.91876,350.10034,79,80,40
350.15125,350.62158,79,86,40
350.62158,351.0973,77,80,40
351.0973,351.58044,76,73,40
351.58044,351.98,77,67,40
352.07275,353.8315,76,60,40
355.75583,356.26782,83,60,40
356.80872,357.2524,83,73,40
357.92255,359.7965,83,60,40
359.7965,360.14383,86,60,40
360.14383,360.42548,84,60,40
360.5048,362.0048,84,60,40
365.0048,366.5048,84,60,40
0.21428563,0.42857125,67,60,0
0.42857125,2.0113988,79,60,0
1.279852,2.115009,48,43,0
1.279852,2.115009,52,43,0
1.279852,2.115009,55,43,0
1.279852,2.115009,60,43,0
2.115009,3.746618,76,60,0
2.9365115,3.746618,48,43,0
2.9365115,3.746618,52,43,0
2.9365115,3.746618,55,43,0
2.9365115,3.746618,60,43,0
3.746618,5.2419834,72,60,0
4.5474195,5.340904,48,43,0
4.5474195,5.340904,52,43,0
4.5474195,5.340904,55,43,0
4.5474195,5.340904,60,43,0
5.340904,6.530354,71,60,0
6.530354,6.7299953,74,60,0
6.7299953,6.9303293,72,60,0
6.1322675,6.9303293,50,43,0
6.1322675,6.9303293,53,43,0
6.1322675,6.9303293,55,43,0
6.1322675,6.9303293,59,43,0
6.9303293,8.464233,71,60,0
7.737011,8.554354,50,43,0
7.737011,8.554354,53,43,0
7.737011,8.554354,55,43,0
7.737011,8.554354,59,43,0
8.554354,9.805321,67,60,0
9.805321,9.910897,69,60,0
9.910897,10.017217,67,60,0
10.017217,10.123537,66,60,0
10.123537,10.203278,67,60,0
9.384555,10.229909,50,43,0
9.384555,10.229909,53,43,0
9.384555,10.229909,55,43,0
9.384555,10.229909,59,43,0
10.229909,11.709087,72,60,0
11.709087,11.916347,67,60,0
11.08119,11.916347,52,43,0
11.08119,11.916347,55,43,0
11.08119,11.916347,60,43,0
11.916347,13.346392,74,60,0
13.346392,13.5479555,67,60,0
12.737849,13.5479555,47,43,0
12.737849,13.5479555,50,43,0
12.737849,13.5479555,55,43,0
12.737849,13.5479555,59,43,0
13.5479555,14.944385,76,60,0
14.944385,15.142242,67,60,0
14.348758,15.142242,48,43,0
14.348758,15.142242,52,43,0
14.348758,15.142242,55,43,0
14.348758,15.142242,60,43,0
15.93679,16.334232,43,47,0
15.93679,16.334232,47,47,0
15.93679,16.334232,50,47,0
15.93679,16.334232,55,47,0
15.142242,16.544142,79,60,0
16.544142,16.749622,77,68,0
16.749622,17.157948,43,51,0
16.749622,17.157948,47,51,0
16.749622,17.157948,50,51,0
16.749622,17.157948,55,51,0
17.586773,18.009434,43,55,0
17.586773,18.009434,47,55,0
17.586773,18.009434,50,55,0
17.586773,18.009434,55,55,0
18.455309,18.896727,41,60,0
18.455309,18.896727,47,60,0
18.455309,18.896727,50,60,0
18.455309,18.896727,53,60,0
16.749622,18.903784,74,69,0
18.903784,19.01759,76,80,0
19.01759,19.132523,74,80,0
19.132523,19.247456,73,81,0
19.247456,19.36375,74,81,0
19.36375,19.73942,41,64,0
19.36375,19.73942,47,64,0
19.36375,19.73942,50,64,0
19.36375,19.73942,53,64,0
19.36375,19.746887,76,82,0
19.8365,20.070417,77,84,0
20.322355,21.801533,79,105,0
21.801533,22.008793,76,60,0
21.173635,22.008793,40,43,0
21.173635,22.008793,43,43,0
21.173635,22.008793,48,43,0
21.173635,22.008793,52,43,0
22.008793,23.438837,84,60,0
23.438837,23.640402,79,60,0
22.830296,23.640402,52,43,0
22.830296,23.640402,55,43,0
22.830296,23.640402,60,43,0
23.640402,24.838688,88,60,0
24.838688,25.03683,86,60,0
25.03683,25.19142,84,60,0
24.441204,25.234688,52,43,0
24.441204,25.234688,55,43,0
24.441204,25.234688,60,43,0
26.027956,26.423141,53,47,0
26.027956,26.423141,57,47,0
26.027956,26.423141,60,47,0
26.027956,26.423141,62,47,0
25.234688,26.63142,83,60,0
26.63142,26.790308,81,68,0
26.83481,27.238008,53,51,0
26.83481,27.238008,57,51,0
26.83481,27.238008,60,51,0
26.83481,27.238008,62,51,0
27.659492,28.073078,53,55,0
27.659492,28.073078,57,55,0
27.659492,28.073078,60,55,0
27.659492,28.073078,62,55,0
28.506786,28.933681,54,60,0
28.506786,28.933681,57,60,0
28.506786,28.933681,60,60,0
28.506786,28.933681,62,60,0
26.83481,28.940495,81,69,0
28.940495,29.008703,83,80,0
29.008703,29.084595,81,80,0
29.084595,29.160488,83,80,0
29.160488,29.22948,81,81,0
29.22948,29.305372,80,81,0
29.305372,29.382202,81,81,0
29.382202,29.73337,54,64,0
29.382202,29.73337,57,64,0
29.382202,29.73337,60,64,0
29.382202,29.73337,62,64,0
29.382202,29.740465,83,82,0
29.832685,30.054224,84,84,0
30.292023,31.572672,84,105,0
31.572672,31.784986,83,60,0
31.784986,31.95053,81,60,0
31.147196,31.996878,55,43,0
31.147196,31.996878,60,43,0
31.147196,31.996878,64,43,0
31.996878,33.262737,79,60,0
33.262737,33.47279,77,60,0
33.47279,33.636784,76,60,0
32.841797,33.682663,43,43,0
32.841797,33.682663,48,43,0
32.841797,33.682663,52,43,0
32.841797,33.682663,55,43,0
33.682663,34.937843,74,60,0
34.937843,35.146465,77,60,0
35.146465,35.309372,71,60,0
34.52016,35.354977,43,43,0
34.52016,35.354977,50,43,0
34.52016,35.354977,53,43,0
34.52016,35.354977,55,43,0
35.354977,37.223972,74,60,0
36.232056,37.223972,53,43,0
37.223972,38.018993,72,60,0
36.232056,38.018993,48,43,0
37.223972,38.018993,52,43,0
36.232056,38.018993,55,43,0
41.189518,41.255524,36,60,0
41.255524,41.32813,40,60,0
41.32813,41.400734,43,60,0
41.400734,41.5584,48,60,0
41.820156,42.022118,48,60,0
40.549454,42.235893,55,60,0
40.549454,42.235893,60,60,0
40.549454,42.235893,64,60,0
42.853245,42.91722,36,60,0
42.91722,42.98731,40,60,0
42.98731,43.057396,43,60,0
43.057396,43.21022,48,60,0
43.463867,43.659622,48,60,0
42.235893,43.8675,55,60,0
42.235893,43.8675,60,60,0
42.235893,43.8675,64,60,0
44.468838,44.531235,36,60,0
44.531235,44.599873,40,60,0
44.599873,44.6683,43,60,0
44.6683,44.817562,48,60,0
45.065784,45.257748,48,60,0
43.8675,45.46179,55,60,0
43.8675,45.46179,60,60,0
43.8675,45.46179,64,60,0
46.05476,46.116756,38,60,0
46.116756,46.184956,43,60,0
46.184956,46.25315,47,60,0
46.25315,46.40226,50,60,0
46.651237,46.84464,50,60,0
45.46179,47.051212,55,60,0
45.46179,47.051212,59,60,0
45.46179,47.051212,65,60,0
47.655243,47.718414,38,60,0
47.718414,47.788155,43,60,0
47.788155,47.857895,47,60,0
47.857895,48.010143,50,60,0
48.26495,48.463364,50,60,0
47.051212,48.675236,55,60,0
47.051212,48.675236,59,60,0
47.051212,48.675236,65,60,0
49.296604,49.361736,41,60,0
49.361736,49.43338,47,60,0
49.43338,49.505436,50,60,0
49.505436,49.662746,53,60,0
49.926205,50.131454,53,60,0
48.675236,50.350792,55,60,0
48.675236,50.350792,59,60,0
48.675236,50.350792,62,60,0
50.990856,51.05686,40,60,0
51.05686,51.129467,43,60,0
51.129467,51.202072,48,60,0
51.202072,51.359737,52,60,0
51.621494,51.823456,52,60,0
50.350792,52.03723,55,60,0
50.350792,52.03723,60,60,0
50.350792,52.03723,67,60,0
52.654583,52.71856,35,60,0
52.71856,52.788647,38,60,0
52.788647,52.85873,43,60,0
52.85873,53.01156,47,60,0
53.265205,53.46096,47,60,0
52.03723,53.66884,55,60,0
52.03723,53.66884,62,60,0
52.03723,53.66884,67,60,0
54.270176,54.332573,36,60,0
54.332573,54.401207,40,60,0
54.401207,54.46964,43,60,0
54.46964,54.6189,48,60,0
54.867123,55.059086,48,60,0
53.66884,55.263126,55,60,0
53.66884,55.263126,60,60,0
53.66884,55.263126,64,60,0
53.66884,55.263126,67,60,0
55.85756,55.920094,31,60,0
55.920094,55.988884,35,60,0
55.988884,56.057674,38,60,0
56.057674,56.208622,43,60,0
56.461475,56.658665,43,60,0
55.263126,56.870506,55,60,0
55.263126,56.870506,62,60,0
55.263126,56.870506,65,60,0
55.263126,56.870506,67,60,0
57.49554,57.561375,31,60,0
57.561375,57.634518,35,60,0
57.634518,57.707657,38,60,0
57.707657,57.867504,43,60,0
58.137054,58.34879,43,60,0
56.870506,58.57619,55,60,0
56.870506,58.57619,59,60,0
56.870506,58.57619,62,60,0
56.870506,58.57619,67,60,0
59.253407,59.325237,31,60,0
59.325237,59.404255,35,60,0
59.404255,59.484634,38,60,0
59.484634,59.660305,41,60,0
59.957382,60.1913,41,60,0
58.57619,60.443237,55,60,0
58.57619,60.443237,59,60,0
58.57619,60.443237,62,60,0
58.57619,60.443237,67,60,0
61.0833,61.149307,40,60,0
61.149307,61.221912,43,60,0
61.221912,61.294518,48,60,0
61.294518,61.452183,52,60,0
61.71394,61.9159,52,60,0
60.443237,62.129677,55,60,0
60.443237,62.129677,60,60,0
60.443237,62.129677,67,60,0
62.74703,62.811005,39,60,0
62.811005,62.881092,42,60,0
62.881092,62.95118,48,60,0
62.95118,63.104004,51,60,0
63.35765,63.553406,51,60,0
62.129677,63.761284,57,60,0
62.129677,63.761284,60,60,0
62.129677,63.761284,66,60,0
62.129677,63.761284,69,60,0
64.36262,64.42502,40,60,0
64.42502,64.49365,43,60,0
64.49365,64.56209,47,60,0
64.56209,64.71135,52,60,0
64.95957,65.15153,52,60,0
63.761284,65.25665,55,60,0
63.761284,65.25665,59,60,0
63.761284,65.25665,67,60,0
65.94942,66.011734,36,60,0
66.011734,66.08029,40,60,0
66.08029,66.14884,45,60,0
66.14884,66.29905,48,60,0
66.55034,66.745995,48,60,0
65.35557,66.955696,60,60,0
65.35557,66.955696,64,60,0
65.35557,66.955696,69,60,0
67.57215,67.636894,38,60,0
67.636894,67.70863,43,60,0
67.70863,67.78037,47,60,0
67.78037,67.937096,50,60,0
68.20055,68.406746,50,60,0
66.955696,68.62767,62,60,0
66.955696,68.62767,67,60,0
66.955696,68.62767,71,60,0
69.28137,69.350365,38,60,0
69.350365,69.426254,45,60,0
69.426254,69.50308,48,60,0
69.50308,69.67092,50,60,0
69.95357,70.17511,50,60,0
68.62767,70.4129,57,60,0
68.62767,70.4129,60,60,0
68.62767,70.4129,62,60,0
68.62767,70.4129,66,60,0
70.4129,70.84054,43,60,0
70.84054,71.04637,55,43,0
71.26418,71.46774,55,43,0
71.68361,71.88557,55,43,0
70.4129,72.09934,59,60,0
70.4129,72.09934,62,60,0
70.4129,72.09934,67,60,0
72.09934,72.29946,55,43,0
72.511765,72.71029,55,43,0
72.920845,73.11806,55,43,0
73.32732,73.52308,55,43,0
73.52939,73.73095,79,60,0
73.73095,73.92576,55,43,0
74.132416,74.32605,55,43,0
74.53175,74.72455,55,43,0
74.92924,75.1212,55,43,0
73.73095,75.12738,80,79,0
75.12738,75.28197,78,60,0
75.32524,75.72055,43,43,0
75.72055,75.91286,55,43,0
75.32524,76.11851,79,60,0
76.11851,76.3126,55,43,0
76.520004,76.71566,55,43,0
76.92536,77.1233,55,43,0
77.33502,77.535355,55,43,0
77.750046,77.952866,55,43,0
78.17021,78.37641,55,43,0
78.383064,78.597336,67,60,0
78.383064,78.597336,79,60,0
78.597336,78.806244,55,43,0
79.031044,79.24414,55,43,0
79.472755,79.68954,55,43,0
79.92323,80.144775,55,43,0
78.597336,80.15198,68,79,0
78.597336,80.15198,80,79,0
80.15198,80.33204,66,60,0
80.15198,80.33204,78,60,0
80.382576,80.81021,67,60,0
80.382576,80.81021,79,60,0
80.81021,81.23386,79,60,0
80.382576,81.23386,43,60,0
80.382576,81.23386,55,60,0
81.23386,81.437416,79,60,0
81.653275,81.80963,79,60,0
82.06901,82.48143,79,60,0
82.48143,82.807686,80,60,0
82.89051,83.08773,80,60,0
83.29699,83.448555,80,60,0
83.70062,84.10208,80,60,0
84.10208,84.42051,81,60,0
84.50142,84.694214,81,60,0
84.8989,85.047585,81,60,0
85.29491,85.690216,81,60,0
85.690216,86.007164,76,63,0
86.08817,86.28227,76,65,0
86.48967,86.64114,76,67,0
86.89503,87.30469,76,69,0
87.30469,87.634926,77,71,0
87.71971,87.92253,77,73,0
88.139885,88.299484,77,76,0
88.567,89.00071,77,78,0
89.00071,89.35179,78,80,0
89.44242,89.65921,78,82,0
89.89291,90.02081,78,84,0
90.236885,90.35224,67,86,0
90.77988,90.9857,48,43,0
90.77988,90.9857,52,43,0
90.77988,90.9857,55,43,0
90.77988,90.9857,60,43,0
91.20352,91.40708,48,43,0
91.20352,91.40708,52,43,0
91.20352,91.40708,55,43,0
91.20352,91.40708,60,43,0
91.62295,91.779305,48,43,0
91.62295,91.779305,52,43,0
91.62295,91.779305,55,43,0
91.62295,91.779305,60,43,0
90.35224,91.93507,79,60,0
92.4511,92.64963,48,43,0
92.4511,92.64963,52,43,0
92.4511,92.64963,55,43,0
92.4511,92.64963,60,43,0
92.86018,93.057396,48,43,0
92.86018,93.057396,52,43,0
92.86018,93.057396,55,43,0
92.86018,93.057396,60,43,0
93.266655,93.41822,48,43,0
93.266655,93.41822,52,43,0
93.266655,93.41822,55,43,0
93.266655,93.41822,60,43,0
92.03868,93.67029,76,60,0
94.07175,94.26538,46,43,0
94.07175,94.26538,52,43,0
94.07175,94.26538,55,43,0
94.07175,94.26538,58,43,0
94.47109,94.66389,46,43,0
94.47109,94.66389,52,43,0
94.47109,94.66389,55,43,0
94.47109,94.66389,58,43,0
94.868576,95.01725,46,43,0
94.868576,95.01725,52,43,0
94.868576,95.01725,55,43,0
94.868576,95.01725,58,43,0
93.67029,95.16566,72,60,0
95.6596,95.85135,45,43,0
95.6596,95.85135,48,43,0
95.6596,95.85135,53,43,0
95.6596,95.85135,57,43,0
96.05594,96.24857,45,43,0
96.05594,96.24857,48,43,0
96.05594,96.24857,53,43,0
96.05594,96.24857,57,43,0
95.26457,96.454025,77,60,0
96.454025,96.58504,81,60,0
96.454025,96.60375,45,43,0
96.454025,96.60375,48,43,0
96.454025,96.60375,53,43,0
96.454025,96.60375,57,43,0
96.58504,96.716255,79,60,0
96.716255,96.82269,77,60,0
97.25606,97.45172,47,43,0
97.25606,97.45172,50,43,0
97.25606,97.45172,53,43,0
97.25606,97.45172,55,43,0
97.66068,97.85752,47,43,0
97.66068,97.85752,50,43,0
97.66068,97.85752,53,43,0
97.66068,97.85752,55,43,0
98.06773,98.22134,47,43,0
98.06773,98.22134,50,43,0
98.06773,98.22134,53,43,0
98.06773,98.22134,55,43,0
96.854,98.47803,89,60,0
98.89133,99.09288,48,43,0
98.89133,99.09288,52,43,0
98.89133,99.09288,55,43,0
99.30823,99.51141,48,43,0
99.30823,99.51141,52,43,0
99.30823,99.51141,55,43,0
99.72899,99.887726,48,43,0
99.72899,99.887726,52,43,0
99.72899,99.887726,55,43,0
98.47803,100.0605,88,60,0
100.15358,100.22054,88,60,0
100.22054,100.294395,86,60,0
100.294395,100.36848,88,60,0
100.36848,100.43626,86,60,0
100.43626,100.511055,88,60,0
100.511055,100.58615,86,60,0
100.58615,100.65496,88,60,0
100.65496,100.73095,86,60,0
100.58615,100.800354,41,43,0
100.58615,100.800354,45,43,0
100.58615,100.800354,50,43,0
100.58615,100.800354,53,43,0
100.73095,100.8073,88,60,0
100.8073,100.87736,86,60,0
100.87736,100.954796,88,60,0
100.954796,101.03266,86,60,0
101.03266,101.10424,88,60,0
101.10424,101.1834,86,60,0
101.03266,101.255844,41,43,0
101.03266,101.255844,45,43,0
101.03266,101.255844,50,43,0
101.03266,101.255844,53,43,0
101.1834,101.26309,88,60,0
101.26309,101.336464,86,60,0
101.336464,101.41769,85,60,0
101.41769,101.49952,86,60,0
101.49952,101.68166,41,43,0
101.49952,101.68166,45,43,0
101.49952,101.68166,50,43,0
101.49952,101.68166,53,43,0
101.49952,101.74302,89,60,0
101.74302,101.937996,81,60,0
102.48048,102.700645,43,43,0
102.48048,102.700645,48,43,0
102.48048,102.700645,52,43,0
102.48048,102.700645,55,43,0
102.93502,103.1556,43,43,0
102.93502,103.1556,48,43,0
102.93502,103.1556,52,43,0
102.93502,103.1556,55,43,0
103.39252,103.56657,43,43,0
103.39252,103.56657,48,43,0
103.39252,103.56657,52,43,0
103.39252,103.56657,55,43,0
101.99287,103.62514,84,60,0
103.62514,103.74241,86,60,0
103.74241,103.83109,84,60,0
103.86066,104.09983,83,60,0
104.09983,104.34299,84,60,0
104.34299,104.5828,43,43,0
104.34299,104.5828,50,43,0
104.34299,104.5828,53,43,0
104.34299,104.5828,55,43,0
104.34299,104.59065,85,60,0
104.59065,104.84364,86,60,0
104.84364,105.0939,43,43,0
104.84364,105.0939,50,43,0
104.84364,105.0939,53,43,0
104.84364,105.0939,55,43,0
104.84364,105.10214,87,60,0
105.10214,105.367676,88,60,0
105.367676,105.5714,43,43,0
105.367676,105.5714,50,43,0
105.367676,105.5714,53,43,0
105.367676,105.5714,55,43,0
105.367676,105.63986,89,60,0
105.63986,105.85826,83,60,0
106.35904,106.58283,48,43,0
106.35904,106.58283,53,43,0
106.35904,106.58283,55,43,0
106.82953,107.07006,48,43,0
106.82953,107.07006,53,43,0
106.82953,107.07006,55,43,0
107.335915,107.59589,48,43,0
107.335915,107.59589,53,43,0
107.335915,107.59589,55,43,0
105.91969,107.60436,86,60,0
107.60436,107.74277,88,60,0
107.74277,107.88154,86,60,0
107.88154,108.26561,84,60,0
107.88154,108.26561,48,43,0
107.88154,108.26561,52,43,0
107.88154,108.26561,55,43,0
108.33387,108.67748,60,60,0
108.33387,108.67748,48,60,0
108.67748,109.03068,59,60,0
108.67748,109.03068,47,60,0
109.03068,109.39735,60,60,0
109.03068,109.39735,48,60,0
109.39735,109.780556,59,60,0
109.39735,109.780556,47,60,0
109.780556,110.18582,60,60,0
109.780556,110.18582,48,60,0
110.18582,110.61872,55,60,0
110.18582,110.61872,43,60,0
110.61872,110.99675,52,60,0
110.61872,110.99675,40,60,0
111.30085,111.51454,48,60,0
111.51454,111.72771,52,60,0
111.72771,111.94036,55,60,0
111.94036,112.15254,60,60,0
112.15254,112.36426,48,60,0
112.36426,112.575554,52,60,0
112.575554,112.78644,55,60,0
111.0866,112.78644,34,60,0
111.0866,112.78644,46,60,0
112.99695,113.2071,48,60,0
113.2071,113.416916,55,60,0
113.416916,113.626434,58,60,0
113.626434,113.83566,60,60,0
113.83566,114.04463,48,60,0
114.04463,114.253365,55,60,0
114.253365,114.461876,58,60,0
112.78644,114.461876,40,60,0
114.6704,114.87979,48,60,0
114.87979,115.09023,52,60,0
115.09023,115.30194,55,60,0
115.30194,115.515114,60,60,0
115.515114,115.729965,48,60,0
115.729965,115.946724,52,60,0
114.461876,116.06954,34,60,0
114.461876,116.06954,46,60,0
115.946724,116.16513,55,60,0
116.37942,116.59381,48,60,0
116.59381,116.80833,53,60,0
116.80833,117.02302,56,60,0
117.02302,117.237885,60,60,0
117.237885,117.452896,48,60,0
117.452896,117.66807,53,60,0
117.66807,117.83638,56,60,0
116.16513,117.88351,32,60,0
116.16513,117.88351,44,60,0
118.09912,118.31492,48,60,0
118.31492,118.53099,53,60,0
118.53099,118.747314,56,60,0
118.747314,118.96385,60,60,0
118.96385,119.18063,48,60,0
119.18063,119.39777,53,60,0
119.39777,119.567566,56,60,0
117.88351,119.615166,36,60,0
119.8328,120.05082,48,60,0
120.05082,120.269165,53,60,0
120.269165,120.48779,56,60,0
120.48779,120.70676,60,60,0
120.70676,120.92618,48,60,0
120.92618,121.14591,53,60,0
119.615166,121.26967,29,60,0
119.615166,121.26967,41,60,0
121.14591,121.317795,56,60,0
121.58022,121.79451,49,60,0
121.79451,122.0088,53,60,0
122.0088,122.223076,55,60,0
122.223076,122.43736,61,60,0
122.43736,122.65165,49,60,0
122.65165,122.86594,53,60,0
122.86594,123.03335,55,60,0
121.36594,123.08022,34,60,0
121.36594,123.08022,46,60,0
123.29454,123.509476,46,60,0
123.509476,123.7251,53,60,0
123.7251,123.94149,55,60,0
123.94149,124.15872,58,60,0
124.15872,124.376884,46,60,0
124.376884,124.596054,53,60,0
124.596054,124.76801,55,60,0
123.08022,124.816315,37,60,0
125.037766,125.26048,48,60,0
125.26048,125.484566,52,60,0
125.484566,125.71011,55,60,0
125.71011,125.93722,60,60,0
125.93722,126.16599,48,60,0
126.16599,126.39653,52,60,0
124.816315,126.53454,36,60,0
126.39653,126.57812,55,60,0
126.84328,127.05697,48,50,0
127.05697,127.27013,53,50,0
127.27013,127.48279,56,50,0
127.48279,127.69496,60,50,0
127.69496,127.906685,48,50,0
127.906685,128.11798,53,51,0
128.11798,128.28278,56,51,0
128.53937,128.74953,48,53,0
128.74953,128.95934,53,53,0
128.95934,129.16885,56,54,0
129.16885,129.37808,60,54,0
129.37808,129.58705,48,55,0
129.58705,129.79579,53,56,0
129.79579,129.9587,56,56,0
128.32886,130.0043,41,50,0
130.21283,130.42221,48,57,0
130.42221,130.63266,53,58,0
130.63266,130.84436,56,59,0
130.84436,131.05754,60,59,0
131.05754,131.27238,48,60,0
131.27238,131.48915,53,60,0
131.48915,131.65973,56,61,0
126.62902,131.70755,29,50,0
130.0043,131.70755,41,55,0
131.92181,132.1355,48,62,0
132.1355,132.34866,51,63,0
132.34866,132.56133,56,63,0
132.56133,132.7735,60,64,0
132.7735,132.98521,48,64,0
132.98521,133.1965,51,65,0
133.1965,133.3613,56,66,0
131.70755,133.4074,30,60,0
131.70755,133.4074,42,60,0
133.6179,133.82805,48,67,0
133.82805,134.03787,51,67,0
134.03787,134.24739,54,68,0
134.24739,134.45662,56,69,0
134.45662,134.66559,51,69,0
134.66559,134.87431,54,70,0
134.87431,135.03722,56,70,0
134.24739,135.08282,36,68,0
135.29146,135.50137,48,72,0
135.50137,135.71289,55,72,0
135.71289,135.92633,56,73,0
135.08282,135.92633,39,71,0
135.92633,136.142,60,73,0
136.142,136.36028,48,74,0
136.36028,136.58151,56,75,0
133.4074,136.70734,30,66,0
135.92633,136.70734,42,73,0
136.58151,136.75627,60,75,0
137.0196,137.23401,49,75,0
137.23401,137.44852,53,74,0
137.44852,137.66321,56,73,0
137.66321,137.87807,61,71,0
137.87807,138.0931,49,70,0
138.0931,138.30826,53,69,0
138.30826,138.47656,56,68,0
136.80533,138.5237,29,76,0
136.80533,138.5237,41,76,0
138.73932,138.95511,49,66,0
138.95511,139.17119,53,65,0
139.17119,139.38751,56,64,0
139.38751,139.60405,61,63,0
139.60405,139.82083,49,62,0
139.82083,140.03796,53,61,0
140.03796,140.20776,56,60,0
138.5237,140.25536,32,67,0
138.5237,140.25536,44,67,0
140.47299,140.69101,49,58,0
140.69101,140.90936,53,57,0
140.90936,141.12799,56,56,0
141.12799,141.34695,61,55,0
141.34695,141.56638,49,53,0
141.56638,141.7861,53,52,0
140.25536,141.90987,37,59,0
141.7861,141.958,56,51,0
142.22041,142.43471,49,50,0
142.43471,142.64899,51,50,0
142.64899,142.86327,58,50,0
142.86327,143.07756,61,50,0
143.07756,143.29184,49,50,0
143.29184,143.50613,51,50,0
143.50613,143.67354,58,50,0
142.00613,143.72041,30,50,0
142.00613,143.72041,42,50,0
143.93472,144.14944,49,50,0
144.14944,144.36461,51,50,0
144.36461,144.58029,54,50,0
144.58029,144.79654,61,50,0
144.79654,145.0134,49,50,0
145.0134,145.23091,51,50,0
145.23091,145.40134,54,50,0
143.72041,145.44914,34,50,0
143.72041,145.44914,46,50,0
145.66815,145.88799,48,50,0
145.88799,146.1087,51,50,0
146.1087,146.33037,54,50,0
146.33037,146.55304,60,50,0
146.55304,146.77676,48,50,0
146.77676,147.00162,51,50,0
145.44914,147.12877,32,50,0
145.44914,147.12877,44,50,0
147.00162,147.17822,54,50,0
147.44199,147.65628,49,50,0
147.65628,147.87056,53,50,0
147.87056,148.08485,56,50,0
148.08485,148.29913,61,50,0
148.29913,148.51343,49,50,0
148.51343,148.7277,53,50,0
148.7277,148.89511,56,50,0
149.15628,149.37056,53,51,0
149.37056,149.58485,56,52,0
149.58485,149.79913,61,52,0
149.79913,150.01343,65,53,0
150.01343,150.2277,56,53,0
150.2277,150.44199,61,54,0
150.44199,150.6094,65,55,0
148.94199,150.65628,49,50,0
150.87086,151.08684,53,56,0
151.08684,151.30449,56,57,0
151.30449,151.52419,61,57,0
151.52419,151.74625,65,58,0
151.74625,151.97105,53,59,0
151.97105,152.199,56,59,0
152.199,152.37915,65,60,0
147.2277,152.42972,37,50,0
150.65628,152.42972,49,55,0
152.85797,153.07162,54,62,0
153.07162,153.28488,56,62,0
153.28488,153.49776,66,63,0
153.49776,153.71036,54,64,0
153.71036,153.92267,56,64,0
153.92267,154.08821,66,65,0
152.42972,154.13457,39,60,0
152.42972,154.13457,51,60,0
154.55762,154.76869,51,67,0
154.76869,154.97949,56,67,0
154.97949,155.19006,63,68,0
155.19006,155.40042,51,69,0
155.40042,155.61047,56,69,0
155.61047,155.77448,63,70,0
154.13457,155.82034,36,66,0
154.13457,155.82034,48,66,0
156.23949,156.44875,48,72,0
156.44875,156.65785,56,73,0
156.65785,156.86679,60,73,0
156.86679,157.07553,48,74,0
157.07553,157.28415,56,74,0
155.82034,157.39493,30,71,0
155.82034,157.39493,42,71,0
157.28415,157.44705,60,75,0
157.90965,158.11864,56,74,0
158.11864,158.32811,61,73,0
158.32811,158.5381,68,71,0
158.5381,158.7485,56,70,0
158.7485,158.95937,61,69,0
158.95937,159.12471,68,68,0
157.49266,159.17102,29,76,0
157.49266,159.17102,41,76,0
159.59584,159.80931,56,65,0
159.80931,160.02354,61,64,0
160.02354,160.2384,65,63,0
160.2384,160.45396,56,62,0
160.45396,160.67061,61,61,0
160.67061,160.84032,65,60,0
159.17102,160.88799,32,67,0
159.17102,160.88799,44,67,0
161.3254,161.54568,53,57,0
161.54568,161.76683,56,56,0
161.76683,161.98901,65,55,0
161.98901,162.21262,53,53,0
162.21262,162.4372,56,52,0
160.88799,162.564,37,59,0
160.88799,162.564,49,59,0
162.4372,162.61331,65,51,0
163.09094,163.3046,54,50,0
163.3046,163.51785,56,50,0
163.51785,163.73073,66,50,0
163.73073,163.94333,54,50,0
163.94333,164.15564,56,50,0
164.15564,164.32118,66,50,0
162.66267,164.36754,39,50,0
162.66267,164.36754,51,50,0
164.79059,165.00165,51,50,0
165.00165,165.21245,56,50,0
165.21245,165.42303,63,50,0
165.42303,165.63339,51,50,0
165.63339,165.84344,56,50,0
165.84344,166.00745,63,50,0
164.36754,166.05331,36,50,0
164.36754,166.05331,48,50,0
166.47246,166.68172,48,50,0
166.68172,166.89082,56,50,0
166.89082,167.09976,60,50,0
167.09976,167.3085,48,50,0
167.3085,167.51712,56,50,0
166.05331,167.6279,30,50,0
166.05331,167.6279,42,50,0
167.51712,167.68002,60,50,0
168.1423,168.35063,49,52,0
168.35063,168.55896,56,53,0
167.72563,168.55896,29,50,0
167.72563,168.55896,41,50,0
168.55896,168.7673,61,55,0
168.7673,168.97563,49,56,0
168.97563,169.18396,56,57,0
169.18396,169.34673,61,58,0
169.80962,170.01921,50,61,0
170.01921,170.22952,56,62,0
170.22952,170.44064,62,63,0
170.44064,170.65265,50,64,0
170.65265,170.86559,56,65,0
170.86559,171.03265,62,66,0
169.3923,171.07957,29,59,0
169.3923,171.07957,41,59,0
171.51096,171.72855,50,69,0
171.72855,171.94751,58,70,0
171.94751,172.16794,62,71,0
172.16794,172.38994,50,73,0
172.38994,172.6136,58,74,0
172.6136,172.78973,62,75,0
171.07957,172.8391,32,67,0
171.07957,172.8391,44,67,0
173.26767,173.48126,51,78,0
173.48126,173.6945,58,79,0
173.6945,173.90742,63,80,0
173.90742,174.11964,51,81,0
174.11964,174.33188,58,82,0
174.33188,174.49698,63,83,0
172.8391,174.5432,30,76,0
172.8391,174.5432,42,76,0
174.9652,175.17557,52,86,0
175.17557,175.38571,58,87,0
175.38571,175.59523,64,88,0
175.59523,175.80475,52,89,0
175.80475,176.01352,58,91,0
176.01352,176.17659,64,92,0
174.5432,176.22224,31,84,0
174.5432,176.22224,43,84,0
176.63847,176.84625,52,95,0
176.84625,177.0535,60,96,0
177.0535,177.26074,64,97,0
177.26074,177.46738,52,98,0
177.46738,177.67395,60,99,0
177.67395,177.83534,64,100,0
176.22224,177.88052,34,93,0
176.22224,177.88052,46,93,0
178.29341,178.49876,53,103,0
178.49876,178.70413,60,104,0
178.70413,178.90903,65,105,0
178.90903,179.11385,53,106,0
179.11385,179.31839,60,107,0
179.31839,179.47803,65,109,0
177.88052,179.52272,32,101,0
177.88052,179.52272,44,101,0
179.9308,180.13467,53,112,0
180.13467,180.33818,60,113,0
180.33818,180.54161,65,114,0
180.54161,180.74486,53,115,0
180.74486,180.94792,60,116,0
180.94792,181.10657,65,117,0
179.52272,181.15097,32,110,0
179.52272,181.15097,44,110,0
181.56165,181.77238,54,120,0
181.77238,181.98692,60,121,0
181.98692,182.20537,66,122,0
182.20537,182.42789,54,123,0
182.42789,182.65462,60,124,0
182.65462,182.83432,66,125,0
181.15097,182.88477,32,118,0
181.15097,182.88477,44,118,0
183.31334,183.52693,59,124,0
183.52693,183.74016,62,123,0
183.74016,183.95308,67,122,0
183.95308,184.16531,59,121,0
184.16531,184.37755,62,120,0
184.37755,184.54263,67,119,0
182.88477,184.58885,43,126,0
185.01085,185.22124,62,116,0
185.22124,185.43137,67,115,0
185.43137,185.6409,71,114,0
185.6409,185.85042,62,113,0
185.85042,186.05919,67,112,0
186.05919,186.22224,71,111,0
184.58885,186.26791,43,118,0
186.68414,186.89192,67,107,0
186.89192,187.09917,71,106,0
187.09917,187.30641,74,105,0
187.30641,187.51305,67,104,0
187.51305,187.71962,71,103,0
187.71962,187.881,74,102,0
182.88477,187.9262,31,126,0
186.26791,187.9262,43,110,0
188.33907,188.54443,62,50,0
188.54443,188.7498,65,50,0
188.7498,188.95468,71,50,0
188.95468,189.1595,62,50,0
189.1595,189.36406,65,50,0
189.36406,189.52368,71,50,0
187.9262,189.56837,43,50,0
189.97647,190.18033,65,50,0
190.18033,190.38383,71,50,0
190.38383,190.58728,74,50,0
190.58728,190.79053,65,50,0
190.79053,190.99359,71,50,0
190.99359,191.15222,74,50,0
189.56837,191.19664,43,50,0
191.61118,191.82994,71,50,0
191.82994,192.05934,74,50,0
192.05934,192.30232,77,50,0
192.30232,192.56276,71,50,0
192.56276,192.84586,74,50,0
192.84586,193.02666,77,50,0
193.07423,193.15149,67,50,0
187.9262,193.15149,31,50,0
191.19664,193.15149,43,50,0
193.15149,194.00278,36,43,0
193.15149,194.73433,79,50,0
194.00278,194.83794,48,43,0
194.00278,194.83794,52,43,0
194.00278,194.83794,55,43,0
194.00278,194.83794,60,43,0
194.83794,195.65944,36,43,0
194.83794,196.46954,76,50,0
195.65944,196.46954,48,43,0
195.65944,196.46954,52,43,0
195.65944,196.46954,55,43,0
195.65944,196.46954,60,43,0
196.46954,197.27034,36,43,0
196.46954,197.9649,72,50,0
197.27034,198.06383,48,43,0
197.27034,198.06383,52,43,0
197.27034,198.06383,55,43,0
197.27034,198.06383,60,43,0
198.06383,198.8552,35,43,0
198.06383,199.25328,71,50,0
199.25328,199.45291,74,50,0
199.45291,199.60942,72,50,0
198.8552,199.65326,50,43,0
198.8552,199.65326,53,43,0
198.8552,199.65326,55,43,0
198.8552,199.65326,59,43,0
199.65326,200.45993,38,43,0
199.65326,201.27728,71,50,0
200.45993,201.27728,50,43,0
200.45993,201.27728,53,43,0
200.45993,201.27728,55,43,0
200.45993,201.27728,59,43,0
201.27728,202.10748,38,43,0
201.27728,202.52824,67,50,0
202.52824,202.63382,69,50,0
202.63382,202.74014,67,50,0
202.74014,202.84647,66,50,0
202.84647,202.9262,67,50,0
202.10748,202.95284,53,43,0
202.10748,202.95284,55,43,0
202.10748,202.95284,59,43,0
202.10748,202.95284,62,43,0
202.95284,203.80411,36,43,0
202.95284,204.432,72,50,0
204.432,204.63927,67,50,0
203.80411,204.63927,52,43,0
203.80411,204.63927,55,43,0
203.80411,204.63927,60,43,0
204.63927,205.46077,47,43,0
204.63927,206.06932,74,50,0
206.06932,206.27087,67,50,0
205.46077,206.27087,55,43,0
205.46077,206.27087,59,43,0
205.46077,206.27087,62,43,0
206.27087,207.07169,48,43,0
206.27087,207.66731,76,50,0
207.66731,207.86516,67,50,0
207.07169,207.86516,55,43,0
207.07169,207.86516,60,43,0
207.07169,207.86516,64,43,0
207.86516,208.65971,43,43,0
207.86516,209.26706,79,50,0
209.26706,209.42758,77,58,0
208.65971,209.47255,55,43,0
208.65971,209.47255,59,43,0
208.65971,209.47255,62,43,0
209.47255,210.3097,43,43,0
210.3097,211.17824,55,43,0
210.3097,211.17824,59,43,0
210.3097,211.17824,62,43,0
209.47255,211.62671,74,59,0
211.62671,211.74051,76,69,0
211.74051,211.85544,74,70,0
211.85544,211.97038,73,70,0
211.97038,212.08667,74,71,0
211.17824,212.08667,43,43,0
212.08667,212.46982,76,71,0
212.55942,212.79333,77,74,0
212.08667,213.04527,53,43,0
212.08667,213.04527,55,43,0
212.08667,213.04527,59,43,0
212.08667,213.04527,62,43,0
213.04527,213.89656,40,43,0
213.04527,214.52446,79,95,0
214.52446,214.73172,76,76,0
213.89656,214.73172,52,43,0
213.89656,214.73172,55,43,0
213.89656,214.73172,60,43,0
214.73172,215.55322,40,43,0
214.73172,216.16176,84,76,0
216.16176,216.36333,79,76,0
215.55322,216.36333,52,43,0
215.55322,216.36333,55,43,0
215.55322,216.36333,60,43,0
216.36333,217.16412,40,43,0
216.36333,217.36314,88,76,0
217.36314,217.4624,87,76,0
217.4624,217.56161,88,76,0
217.56161,217.66081,89,76,0
217.66081,217.75975,88,76,0
217.75975,217.85869,86,76,0
217.85869,217.93289,84,76,0
217.16412,217.95761,52,43,0
217.16412,217.95761,55,43,0
217.16412,217.95761,60,43,0
217.95761,218.55145,83,76,0
218.55145,218.70726,81,79,0
217.95761,218.75089,41,43,0
218.75089,219.55774,53,43,0
218.75089,219.55774,57,43,0
218.75089,219.55774,60,43,0
218.75089,219.55774,62,43,0
218.75089,219.96739,81,80,0
219.55774,220.38242,41,43,0
219.96739,220.80258,81,86,0
220.38242,221.2297,53,43,0
220.38242,221.2297,57,43,0
220.38242,221.2297,60,43,0
220.38242,221.2297,62,43,0
220.80258,221.66342,81,91,0
221.66342,221.73163,83,95,0
221.73163,221.80751,81,95,0
221.80751,221.8834,83,95,0
221.8834,221.95241,81,96,0
221.95241,222.02829,80,96,0
222.02829,222.08415,81,97,0
221.2297,222.10513,42,43,0
222.10513,222.32191,83,97,0
222.5556,222.71953,84,99,0
222.89958,223.01494,83,101,0
222.10513,223.01494,54,43,0
222.10513,223.01494,57,43,0
222.10513,223.01494,60,43,0
222.10513,223.01494,62,43,0
223.01494,223.06703,86,60,0
223.08005,223.15166,84,60,0
223.15166,223.22328,86,60,0
223.22328,223.28838,84,60,0
223.28838,223.36026,86,60,0
223.36026,223.43225,84,60,0
223.43225,223.4977,86,60,0
223.4977,223.56967,84,60,0
223.56967,223.64189,86,60,0
223.64189,223.7077,84,60,0
223.7077,223.7801,86,60,0
223.7801,223.85251,84,60,0
223.01494,223.85251,43,43,0
223.85251,223.91846,86,60,0
223.91846,223.99132,84,60,0
223.99132,224.06418,86,60,0
224.06418,224.13043,84,60,0
224.13043,224.20334,86,60,0
224.20334,224.27672,84,60,0
224.27672,224.49017,83,60,0
224.49017,224.61784,81,60,0
224.65146,224.70523,78,60,0
223.85251,224.70523,55,43,0
223.85251,224.70523,60,43,0
223.85251,224.70523,64,43,0
224.70523,224.759,81,60,0
224.77246,224.84679,79,60,0
224.84679,224.92136,81,60,0
224.92136,224.98914,79,60,0
224.98914,225.06369,81,60,0
225.06369,225.13857,79,60,0
225.13857,225.20695,81,60,0
225.20695,225.2822,79,60,0
225.2822,225.35744,81,60,0
225.35744,225.42596,79,60,0
225.42596,225.50192,81,60,0
225.50192,225.5779,79,60,0
224.70523,225.5779,43,43,0
225.5779,225.64696,81,60,0
225.64696,225.72293,79,60,0
225.72293,225.7997,81,60,0
225.7997,225.86948,79,60,0
225.86948,225.94624,81,60,0
225.94624,226.02301,79,60,0
226.02301,226.24867,77,60,0
226.24867,226.38309,76,60,0
226.4188,226.47592,73,60,0
225.5779,226.47592,55,43,0
225.5779,226.47592,60,43,0
225.5779,226.47592,64,43,0
226.47592,226.53305,76,60,0
226.54733,226.62589,74,60,0
226.62589,226.7048,76,60,0
226.7048,226.77713,74,60,0
226.77713,226.85669,76,60,0
226.85669,226.93625,74,60,0
226.93625,227.00867,76,60,0
227.00867,227.08931,74,60,0
227.08931,227.16995,76,60,0
227.16995,227.24326,74,60,0
227.24326,227.3239,76,60,0
227.3239,227.40561,74,60,0
226.47592,227.40561,43,43,0
227.40561,227.47997,76,60,0
227.47997,227.56178,74,60,0
227.56178,227.64359,76,60,0
227.64359,227.71875,74,60,0
227.71875,227.80182,73,60,0
227.80182,227.88487,74,60,0
227.88487,228.12848,77,60,0
228.12848,228.32033,71,60,0
227.40561,228.37418,55,43,0
227.40561,228.37418,62,43,0
227.40561,228.37418,65,43,0
228.37418,230.06062,72,60,0
228.37418,230.06062,48,43,0
228.37418,230.06062,52,43,0
228.37418,230.06062,55,43,0
228.37418,230.06062,60,43,0
231.49066,231.69223,67,60,0
231.49066,231.69223,55,43,0
231.69223,233.08865,72,79,0
231.69223,233.08865,76,79,0
231.69223,233.08865,60,62,0
231.69223,233.08865,64,62,0
233.08865,233.24324,71,60,0
233.08865,233.24324,74,60,0
233.08865,233.24324,59,43,0
233.08865,233.24324,62,43,0
233.28651,234.87595,74,60,0
233.28651,234.87595,77,60,0
233.28651,234.87595,62,43,0
233.28651,234.87595,65,43,0
236.2945,236.49997,67,60,0
236.2945,236.49997,55,43,0
236.49997,237.96283,74,79,0
236.49997,237.96283,77,79,0
236.49997,237.96283,62,62,0
236.49997,237.96283,65,62,0
237.96283,238.12895,72,60,0
237.96283,238.12895,76,60,0
237.96283,238.12895,60,43,0
237.96283,238.12895,64,43,0
238.17552,239.0268,76,60,0
238.17552,239.0268,79,60,0
238.17552,239.0268,64,43,0
238.17552,239.0268,67,43,0
239.0268,239.43971,79,60,0
239.86195,240.26797,79,69,0
240.68346,240.83629,79,77,0
241.08994,241.191,81,82,0
241.191,241.292,79,83,0
241.292,241.39297,78,84,0
241.39297,241.46841,79,85,0
241.49356,242.89,88,105,0
242.89,243.04459,86,86,0
243.08784,243.27905,84,86,0
243.48306,243.67519,83,86,0
243.88048,244.0741,81,86,0
244.28084,244.47574,79,83,0
244.68439,244.88116,77,81,0
245.09148,245.29022,76,78,0
245.50298,245.70377,74,76,0
245.91869,246.12221,72,73,0
246.34004,246.54578,71,71,0
246.76672,246.97583,69,68,0
247.19984,247.4119,67,66,0
247.63995,247.85579,66,63,0
248.0871,248.51567,55,60,0
248.0871,248.51567,65,60,0
248.0871,248.51567,35,60,0
248.0871,248.51567,47,60,0
248.94424,249.3728,55,60,0
248.94424,249.3728,65,60,0
248.94424,249.3728,35,60,0
248.94424,249.3728,47,60,0
249.80138,250.22995,55,60,0
249.80138,250.22995,65,60,0
249.80138,250.22995,35,60,0
249.80138,250.22995,47,60,0
253.22995,253.66321,55,50,0
253.22995,253.66321,60,50,0
253.22995,253.66321,64,50,0
253.22995,253.66321,36,50,0
253.22995,253.66321,48,50,0
254.1094,254.56935,55,50,0
254.1094,254.56935,60,50,0
254.1094,254.56935,64,50,0
254.1094,254.56935,36,50,0
254.1094,254.56935,48,50,0
255.04305,255.52692,55,50,0
255.04305,255.52692,60,50,0
255.04305,255.52692,64,50,0
255.04305,255.52692,36,50,0
255.04305,255.52692,48,50,0
258.5822,260.30753,57,50,0
258.5822,260.30753,60,50,0
258.5822,260.30753,62,50,0
258.5822,260.30753,30,50,0
258.5822,260.30753,42,50,0
260.30753,262.06924,55,75,0
260.30753,262.06924,60,75,0
260.30753,262.06924,64,75,0
262.06924,263.7799,55,50,0
262.06924,263.7799,59,50,0
262.06924,263.7799,62,50,0
262.06924,263.7799,65,50,0
260.30753,263.7799,31,75,0
260.30753,263.7799,43,75,0
263.8797,265.76175,59,50,0
263.8797,265.76175,63,50,0
263.8797,266.60315,55,50,0
265.76175,266.60315,60,50,0
265.76175,266.60315,64,50,0
263.8797,266.7124,36,50,0
263.8797,266.7124,48,50,0
266.7124,267.16293,67,50,0
266.7124,267.16293,79,50,0
267.3954,267.61746,55,50,0
267.61746,268.04938,67,50,0
267.61746,268.04938,79,50,0
268.48602,268.81705,67,50,0
268.48602,268.81705,79,50,0
267.61746,269.11798,60,69,0
267.61746,269.11798,64,69,0
269.11798,269.2809,59,50,0
269.11798,269.2809,62,50,0
269.32654,269.73276,67,50,0
269.32654,269.73276,79,50,0
269.32654,270.1448,62,50,0
269.32654,270.1448,65,50,0
270.1448,270.5398,67,50,0
270.1448,270.5398,79,50,0
270.94373,271.3323,67,50,0
270.94373,271.3323,79,50,0
271.7332,272.1236,67,50,0
271.7332,272.1236,79,50,0
272.33063,272.5333,55,50,0
272.5333,272.93918,67,50,0
272.5333,272.93918,79,50,0
273.36948,273.71008,67,50,0
273.36948,273.71008,79,50,0
272.5333,274.0324,62,69,0
272.5333,274.0324,65,69,0
274.0324,274.21155,60,50,0
274.0324,274.21155,64,50,0
274.26187,274.73062,79,50,0
274.73062,274.965,78,50,0
274.965,275.19937,79,50,0
274.26187,275.19937,64,50,0
274.26187,275.19937,67,50,0
275.19937,275.43268,78,50,0
275.43268,275.66174,79,50,0
275.66174,275.88675,78,50,0
275.88675,276.10785,79,50,0
276.10785,276.21695,78,50,0
276.21695,276.32498,79,50,0
276.32498,276.43213,78,50,0
276.43213,276.53836,79,50,0
276.53836,276.6437,78,50,0
276.6437,276.74817,79,50,0
276.74817,276.8518,78,50,0
276.8518,276.9546,79,50,0
276.9546,277.05655,78,50,0
277.05655,277.15768,79,50,0
277.15768,277.2579,78,50,0
277.2579,277.35803,79,50,0
277.35803,277.4567,81,50,0
277.4567,277.5554,79,50,0
277.5554,277.65408,78,50,0
277.65408,277.7283,79,50,0
278.3554,278.56027,64,50,0
278.3554,278.56027,67,50,0
277.75305,279.19205,88,69,0
278.56027,279.30035,72,69,0
278.56027,279.30035,76,69,0
279.19205,279.36127,86,50,0
279.30035,279.3816,71,50,0
279.30035,279.3816,74,50,0
279.40878,279.62234,69,50,0
279.40878,279.62234,72,50,0
279.6291,279.73044,84,50,0
279.84476,279.9442,83,50,0
280.05618,280.15387,67,50,0
280.05618,280.15387,71,50,0
280.2637,280.4613,65,50,0
280.2637,280.4613,69,50,0
280.4676,280.56213,81,50,0
280.66818,280.76135,79,50,0
280.86572,280.9576,64,50,0
280.86572,280.9576,67,50,0
281.0605,281.2467,62,50,0
281.0605,281.2467,65,50,0
281.25266,281.34207,77,50,0
281.4425,281.53082,76,50,0
281.63022,281.71753,60,50,0
281.63022,281.71753,64,50,0
281.81595,281.9942,59,50,0
281.81595,281.9942,62,50,0
281.99994,282.0855,74,50,0
282.1823,282.26718,72,50,0
282.36325,282.44748,57,50,0
282.36325,282.44748,60,50,0
282.54288,282.7166,55,50,0
282.54288,282.7166,59,50,0
282.72223,282.8075,71,50,0
282.90515,282.99243,69,50,0
283.09262,283.1824,53,50,0
283.09262,283.1824,57,50,0
283.2857,283.47937,52,50,0
283.2857,283.47937,55,50,0
283.4857,283.58228,67,50,0
283.69406,283.79526,66,50,0
283.91275,284.0195,51,50,0
283.91275,284.0195,54,50,0
284.14093,284.56952,44,60,0
284.14093,284.56952,50,60,0
284.14093,284.56952,53,60,0
284.14093,284.99808,65,60,0
284.99808,285.42667,44,60,0
284.99808,285.42667,50,60,0
284.99808,285.42667,53,60,0
285.85522,286.2838,56,60,0
285.85522,286.2838,59,60,0
285.85522,286.2838,62,60,0
285.85522,286.2838,65,60,0
285.85522,286.2838,44,60,0
285.85522,286.2838,50,60,0
285.85522,286.2838,53,60,0
286.71237,287.14093,56,60,0
286.71237,287.14093,59,60,0
286.71237,287.14093,62,60,0
286.71237,287.14093,65,60,0
287.56952,287.99808,56,60,0
287.56952,287.99808,59,60,0
287.56952,287.99808,62,60,0
287.56952,287.99808,65,60,0
289.2838,289.71707,45,50,0
289.2838,289.71707,48,50,0
289.2838,289.71707,52,50,0
290.16327,290.6232,45,50,0
290.16327,290.6232,48,50,0
290.16327,290.6232,52,50,0
291.0969,291.58078,57,50,0
291.0969,291.58078,60,50,0
291.0969,291.58078,64,50,0
291.0969,291.58078,45,50,0
291.0969,291.58078,48,50,0
291.0969,291.58078,52,50,0
292.06464,292.54852,57,50,0
292.06464,292.54852,60,50,0
292.06464,292.54852,64,50,0
293.03238,293.51627,57,50,0
293.03238,293.51627,60,50,0
293.03238,293.51627,64,50,0
294.85727,295.28583,30,113,0
294.85727,295.28583,42,113,0
295.71442,296.14297,30,113,0
295.71442,296.14297,42,113,0
296.57156,297.0072,60,113,0
296.57156,297.0072,63,113,0
296.57156,297.0072,66,113,0
296.57156,297.0072,69,113,0
296.57156,297.0072,72,113,0
296.57156,297.0072,42,113,0
296.57156,297.0072,45,113,0
296.57156,297.0072,48,113,0
296.57156,297.0072,51,113,0
296.57156,297.0072,54,113,0
297.4628,297.94025,60,113,0
297.4628,297.94025,63,113,0
297.4628,297.94025,66,113,0
297.4628,297.94025,69,113,0
297.4628,297.94025,72,113,0
297.4628,297.94025,42,113,0
297.4628,297.94025,45,113,0
297.4628,297.94025,48,113,0
297.4628,297.94025,51,113,0
297.4628,297.94025,54,113,0
298.4403,298.95755,60,113,0
298.4403,298.95755,63,113,0
298.4403,298.95755,66,113,0
298.4403,298.95755,69,113,0
298.4403,298.95755,72,113,0
298.4403,298.95755,42,113,0
298.4403,298.95755,45,113,0
298.4403,298.95755,48,113,0
298.4403,298.95755,51,113,0
298.4403,298.95755,54,113,0
301.54376,301.7994,55,60,0
301.7994,302.04327,60,60,0
302.04327,302.27515,64,60,0
302.27515,302.49796,62,60,0
302.49796,302.71225,60,60,0
302.71225,302.91943,64,60,0
302.91943,303.1205,67,60,0
303.1205,303.31604,65,60,0
303.31604,303.50717,64,60,0
303.50717,303.694,72,60,0
303.694,303.8777,76,60,0
303.8777,304.05862,74,60,0
304.05862,304.2372,72,60,0
304.2372,304.41577,76,60,0
304.41577,304.59433,79,60,0
304.59433,304.77292,77,60,0
304.77292,304.95148,76,60,0
304.95148,305.13007,84,60,0
305.13007,305.30862,88,60,0
305.30862,305.44815,86,60,0
300.50928,305.4872,31,60,0
300.50928,305.4872,43,60,0
305.4872,305.66577,84,60,0
305.66577,305.84433,85,63,0
305.84433,306.02292,86,65,0
306.02292,306.20148,88,67,0
306.20148,306.38007,89,69,0
306.38007,306.55862,85,71,0
306.55862,306.7372,86,73,0
306.7372,306.91577,88,75,0
306.91577,307.09433,89,77,0
307.09433,307.27292,85,80,0
307.27292,307.45148,86,82,0
307.45148,307.63007,88,84,0
307.63007,307.80862,89,86,0
307.80862,307.9872,88,84,0
307.9872,308.16577,89,82,0
308.16577,308.34433,86,80,0
308.34433,308.5244,88,77,0
308.5244,308.7115,87,75,0
308.7115,308.90784,88,73,0
308.90784,309.11636,84,71,0
309.11636,309.34085,89,69,0
309.34085,309.58664,88,67,0
309.58664,309.86154,89,65,0
309.86154,310.04196,86,63,0
310.08945,310.16708,85,61,0
305.4872,310.16708,31,60,0
305.4872,310.16708,43,60,0
310.16708,310.22064,88,60,0
310.23404,310.3077,86,60,0
310.3077,310.38135,88,60,0
310.38135,310.44833,86,60,0
310.44833,310.52197,88,60,0
310.52197,310.59564,86,60,0
310.59564,310.6626,88,60,0
310.6626,310.73627,86,60,0
310.73627,310.80994,88,60,0
310.80994,310.8769,86,60,0
310.8769,310.95056,88,60,0
310.95056,311.0242,86,60,0
310.16708,311.0242,31,60,0
310.16708,311.0242,43,60,0
311.0242,311.0912,88,60,0
311.0912,311.16483,86,60,0
311.16483,311.2385,88,60,0
311.2385,311.30545,86,60,0
311.30545,311.37912,88,60,0
311.0242,311.44608,55,60,0
311.0242,311.44608,59,60,0
311.0242,311.44608,65,60,0
311.37912,311.4528,86,60,0
311.4528,311.51974,88,60,0
311.51974,311.5934,86,60,0
311.5934,311.66708,88,60,0
311.66708,311.73404,86,60,0
311.73404,311.8077,88,60,0
311.8077,311.88135,86,60,0
311.88135,311.94833,88,60,0
311.94833,312.02197,86,61,0
312.02197,312.09564,88,61,0
312.09564,312.1626,86,62,0
312.1626,312.23627,88,62,0
311.88135,312.30322,55,60,0
311.88135,312.30322,59,60,0
311.88135,312.30322,65,60,0
312.23627,312.30994,86,62,0
312.30994,312.3769,88,63,0
312.3769,312.45056,86,63,0
312.45056,312.5242,88,63,0
312.5242,312.5912,86,64,0
312.5912,312.66483,88,64,0
312.66483,312.7385,86,64,0
312.7385,312.80545,88,65,0
312.80545,312.87912,86,65,0
312.87912,312.9528,88,65,0
312.9528,313.01974,86,66,0
313.01974,313.0934,88,66,0
312.7385,313.16037,55,65,0
312.7385,313.16037,59,65,0
312.7385,313.16037,65,65,0
313.0934,313.16708,86,66,0
313.16708,313.23404,88,67,0
313.23404,313.3077,86,67,0
313.3077,313.38135,88,68,0
313.38135,313.44833,86,68,0
313.44833,313.52197,88,68,0
313.52197,313.59564,86,69,0
313.59564,313.6626,88,69,0
313.6626,313.73648,86,69,0
313.73648,313.81064,88,70,0
313.81064,313.87857,86,70,0
313.87857,313.95355,88,70,0
313.59564,314.02203,55,69,0
313.59564,314.02203,59,69,0
313.59564,314.02203,65,69,0
313.95355,314.0289,86,71,0
314.0289,314.09802,88,71,0
314.09802,314.1744,86,71,0
314.1744,314.25122,88,72,0
314.25122,314.32184,86,72,0
314.32184,314.39993,88,72,0
314.39993,314.47855,86,73,0
314.47855,314.55096,88,73,0
314.55096,314.63113,86,73,0
314.63113,314.7119,88,74,0
314.7119,314.78647,86,74,0
314.78647,314.8691,88,75,0
314.47855,314.94492,55,73,0
314.47855,314.94492,59,73,0
314.47855,314.94492,65,73,0
314.8691,314.95248,86,75,0
314.95248,315.0296,88,75,0
315.0296,315.1152,86,76,0
315.1152,315.20166,88,76,0
315.20166,315.28183,86,76,0
315.28183,315.32996,88,77,0
315.32996,315.3941,86,77,0
315.3941,315.52557,87,77,0
315.52557,315.59924,86,78,0
315.59924,315.67288,87,78,0
315.67288,315.73987,86,78,0
315.73987,315.8135,87,79,0
315.45862,315.8805,56,77,0
315.45862,315.8805,59,77,0
315.45862,315.8805,65,77,0
315.8135,315.88718,86,79,0
315.88718,315.95413,87,80,0
315.95413,316.0278,86,80,0
316.0278,316.10147,87,80,0
316.10147,316.16843,86,81,0
316.16843,316.2421,87,81,0
316.2421,316.31573,86,81,0
316.31573,316.38272,87,82,0
316.38272,316.45636,86,82,0
316.45636,316.53003,87,82,0
316.53003,316.597,86,83,0
316.597,316.67065,87,83,0
316.31573,316.7376,56,82,0
316.31573,316.7376,59,82,0
316.31573,316.7376,65,82,0
316.67065,316.74432,86,83,0
316.74432,316.81128,87,84,0
316.81128,316.88495,86,84,0
316.88495,316.95862,87,84,0
316.95862,317.02557,86,85,0
317.02557,317.09924,87,85,0
317.09924,317.17288,86,85,0
317.17288,317.23987,87,85,0
317.23987,317.3135,86,85,0
317.3135,317.38718,87,84,0
317.38718,317.45413,86,83,0
317.45413,317.5278,87,83,0
317.17288,317.59476,56,85,0
317.17288,317.59476,58,85,0
317.17288,317.59476,65,85,0
317.5278,317.60147,86,82,0
317.60147,317.66843,87,81,0
317.66843,317.7421,86,80,0
317.7421,317.81573,87,80,0
317.81573,317.88272,86,79,0
317.88272,317.95636,87,78,0
317.95636,318.03003,86,77,0
318.03003,318.097,87,77,0
318.097,318.17065,86,76,0
318.17065,318.24432,87,75,0
318.24432,318.31128,86,74,0
318.31128,318.38495,87,74,0
318.03003,318.4519,56,77,0
318.03003,318.4519,58,77,0
318.03003,318.4519,65,77,0
318.38495,318.45862,86,73,0
318.45862,318.52557,87,72,0
318.52557,318.59924,86,72,0
318.59924,318.67288,87,71,0
318.67288,318.73987,86,70,0
318.73987,318.8135,87,69,0
318.8135,318.88718,86,69,0
318.88718,318.95413,87,68,0
318.95413,319.02817,86,67,0
319.02817,319.1026,87,66,0
319.1026,319.17105,86,66,0
319.17105,319.24686,87,65,0
318.88718,319.31622,56,68,0
318.88718,319.31622,58,68,0
318.88718,319.31622,65,68,0
319.24686,319.32318,86,64,0
319.32318,319.3936,87,63,0
319.3936,319.47165,86,63,0
319.47165,319.55038,87,62,0
319.55038,319.62326,86,61,0
319.62326,319.70416,87,61,0
319.70416,319.78592,86,60,0
319.78592,319.86185,87,59,0
319.86185,319.9463,86,58,0
319.9463,320.0318,87,58,0
320.0318,320.11154,86,57,0
320.11154,320.20035,87,56,0
319.78592,320.28232,56,59,0
319.78592,320.28232,58,59,0
319.78592,320.28232,65,59,0
320.20035,320.29053,86,55,0
320.29053,320.375,87,55,0
320.375,320.4693,86,54,0
320.4693,320.56528,87,53,0
320.56528,320.65567,86,52,0
320.65567,320.7551,84,52,0
320.7551,320.8274,86,51,0
320.85526,321.27652,55,50,0
320.85526,321.27652,58,50,0
320.85526,321.27652,63,50,0
321.70847,322.12433,55,50,0
321.70847,322.12433,58,50,0
321.70847,322.12433,63,50,0
320.85526,322.5508,87,50,0
322.5508,322.962,55,50,0
322.5508,322.962,58,50,0
322.5508,322.962,63,50,0
323.38388,323.791,55,50,0
323.38388,323.791,58,50,0
323.38388,323.791,63,50,0
324.20908,324.61276,55,50,0
324.20908,324.61276,58,50,0
324.20908,324.61276,63,50,0
325.0278,325.42877,55,50,0
325.0278,325.42877,58,50,0
325.0278,325.42877,63,50,0
325.84143,326.2407,53,43,0
325.84143,326.2407,56,43,0
325.84143,326.2407,59,43,0
325.84143,326.2407,62,43,0
326.65356,327.05493,53,43,0
326.65356,327.05493,56,43,0
326.65356,327.05493,59,43,0
326.65356,327.05493,62,43,0
325.84143,327.4704,68,50,0
325.84143,327.4704,80,50,0
327.4704,327.87448,53,43,0
327.4704,327.87448,56,43,0
327.4704,327.87448,59,43,0
327.4704,327.87448,62,43,0
328.2932,328.70074,53,43,0
328.2932,328.70074,56,43,0
328.2932,328.70074,59,43,0
328.2932,328.70074,62,43,0
327.4704,329.1234,65,50,0
327.4704,329.1234,77,50,0
329.1234,329.53513,53,43,0
329.1234,329.53513,56,43,0
329.1234,329.53513,59,43,0
329.9624,330.3791,53,43,0
329.9624,330.3791,56,43,0
329.9624,330.3791,59,43,0
329.1234,330.71832,62,50,0
329.1234,330.71832,74,50,0
330.81165,331.2329,51,43,0
330.81165,331.2329,54,43,0
330.81165,331.2329,57,43,0
331.2396,331.45264,60,52,0
331.45264,331.66486,66,53,0
331.66486,331.87634,72,55,0
331.66486,332.08072,51,47,0
331.66486,332.08072,54,47,0
331.66486,332.08072,57,47,0
331.87634,332.08728,60,56,0
332.08728,332.29767,66,57,0
332.29767,332.46136,72,58,0
332.5072,332.91837,48,51,0
332.5072,332.91837,51,51,0
332.5072,332.91837,54,51,0
332.92487,333.13284,57,61,0
333.13284,333.34027,63,62,0
333.34027,333.54727,69,63,0
333.34027,333.74738,48,55,0
333.34027,333.74738,51,55,0
333.34027,333.74738,54,55,0
333.54727,333.75385,57,64,0
333.75385,333.9598,63,65,0
333.9598,334.12054,69,66,0
334.16547,334.56915,45,60,0
334.16547,334.56915,48,60,0
334.57556,334.78003,54,69,0
334.78003,334.9842,60,70,0
334.9842,335.18805,66,71,0
334.9842,335.38516,45,64,0
334.9842,335.38516,48,64,0
335.18805,335.3915,54,73,0
335.3915,335.59476,60,74,0
335.59476,335.75342,66,75,0
335.79782,336.19766,44,68,0
335.79782,336.19766,48,68,0
336.20404,336.4084,53,74,0
336.4084,336.61398,60,73,0
336.61398,336.82092,65,71,0
336.61398,337.02243,44,64,0
336.61398,337.02243,48,64,0
336.82092,337.02896,53,70,0
337.02896,337.2382,60,69,0
337.2382,337.40323,65,68,0
337.44946,337.8694,31,60,0
337.44946,337.8694,43,60,0
337.87616,338.09235,53,65,0
338.09235,338.31064,59,64,0
338.31064,338.53067,62,63,0
338.31064,338.74576,31,55,0
338.31064,338.74576,43,55,0
338.53067,338.7527,53,62,0
338.7527,338.9778,59,61,0
338.9778,339.155,62,60,0
339.20508,339.6601,31,51,0
339.20508,339.6601,43,51,0
339.66736,339.90332,50,57,0
339.90332,340.14188,53,56,0
340.14188,340.38367,59,55,0
340.14188,340.6223,31,47,0
340.14188,340.6223,43,47,0
340.38367,340.63004,50,53,0
340.63004,340.8796,53,52,0
340.8796,341.07675,59,51,0
341.9934,342.42197,48,60,0
341.13214,342.86823,52,60,0
341.13214,342.86823,60,60,0
342.86823,343.30542,48,60,0
343.76202,344.21075,55,60,0
343.76202,344.21075,64,60,0
343.76202,344.21075,67,60,0
343.76202,344.21075,48,60,0
344.68094,345.1439,55,85,0
344.68094,345.1439,59,85,0
344.68094,345.1439,62,85,0
344.68094,345.1439,65,85,0
344.68094,345.1439,48,60,0
345.62698,346.01135,55,60,0
345.62698,346.01135,59,60,0
345.62698,346.01135,62,60,0
345.62698,346.01135,65,60,0
345.62698,346.10254,48,60,0
341.13214,346.60245,36,60,0
347.0317,347.4637,48,60,0
347.4637,347.8991,47,60,0
346.60245,348.33853,55,60,0
346.60245,348.33853,60,60,0
346.60245,348.33853,64,60,0
347.8991,348.33853,48,60,0
348.33853,348.7827,47,60,0
348.7827,349.23233,48,60,0
349.23233,349.68106,55,60,0
349.23233,349.68106,64,60,0
349.23233,349.68106,67,60,0
349.23233,349.6882,47,60,0
350.15125,350.6142,55,85,0
350.15125,350.6142,59,85,0
350.15125,350.6142,62,85,0
350.15125,350.6142,65,85,0
346.60245,350.6142,36,60,0
350.15125,350.6142,36,60,0
349.6882,350.6142,48,60,0
351.0973,351.48166,55,60,0
351.0973,351.48166,59,60,0
351.0973,351.48166,62,60,0
351.0973,351.48166,65,60,0
351.0973,351.57285,36,60,0
351.0973,351.57285,48,60,0
352.07275,352.5027,55,60,0
352.07275,352.5027,60,60,0
352.07275,352.5027,64,60,0
352.07275,352.5027,36,60,0
352.07275,352.5027,48,60,0
352.5027,352.9382,76,60,0
352.5027,352.9382,67,60,0
352.9382,353.38065,75,64,0
352.9382,353.38065,66,64,0
353.38065,353.8315,76,68,0
353.38065,353.8315,67,68,0
353.8315,354.06064,75,71,0
353.8315,354.06064,66,71,0
354.06064,354.29248,76,73,0
354.06064,354.29248,67,73,0
354.29248,354.5273,75,75,0
354.29248,354.5273,66,75,0
354.5273,354.76535,76,77,0
354.5273,354.76535,67,77,0
354.76535,355.00693,75,79,0
354.76535,355.00693,66,79,0
355.00693,355.2523,76,80,0
355.00693,355.2523,67,80,0
355.2523,355.50177,77,82,0
355.2523,355.50177,69,82,0
355.50177,355.70013,76,84,0
355.50177,355.70013,67,84,0
355.75583,356.26782,55,86,0
355.75583,356.2761,67,86,0
355.75583,356.2761,76,86,0
356.2761,356.80872,65,80,0
356.2761,356.80872,74,80,0
356.80872,357.2524,43,73,0
356.80872,357.35712,64,73,0
356.80872,357.35712,73,73,0
357.35712,357.8249,65,67,0
357.35712,357.8249,74,67,0
357.92255,360.5048,62,60,0
357.92255,360.5048,65,60,0
357.92255,360.5048,74,60,0
357.92255,360.5048,43,60,0
360.5048,361.91104,60,60,0
360.5048,361.91104,64,60,0
360.5048,361.91104,72,60,0
357.92255,361.91104,36,60,0
360.5048,361.91104,48,60,0
