start_time,end_time,note_value,velocity,instrument_program_number
7.4363666,7.556412,70,60,40
7.680269,7.800314,70,60,40
7.9241705,8.385709,75,79,40
8.385709,8.49929,70,60,40
8.616478,8.73006,70,60,40
8.847246,9.3087845,77,79,40
9.3087845,9.422366,70,60,40
9.539554,9.653135,70,60,40
9.770323,9.883904,79,60,40
10.001092,10.114674,79,60,40
10.23186,10.462629,79,60,40
10.462629,10.578014,82,60,40
10.578014,10.669961,80,60,40
10.693398,10.924365,79,60,40
10.924365,11.108865,77,60,40
11.155973,11.270274,82,60,40
11.388452,11.503266,82,60,40
11.622037,12.083574,87,79,40
12.083574,12.197156,79,60,40
12.314343,12.427925,79,60,40
12.545113,13.006651,84,79,40
13.006651,13.120233,77,60,40
13.237419,13.351001,77,60,40
13.468188,13.699653,82,60,40
13.699653,13.816184,79,60,40
13.816184,13.909509,75,60,40
13.933389,14.170257,80,60,40
14.170257,14.290152,77,60,40
14.290152,14.386539,74,60,40
14.411195,14.898999,75,60,40
18.617184,18.732569,79,60,40
18.732569,18.824516,77,60,40
18.847954,18.963337,75,60,40
18.963337,19.055285,74,60,40
19.078722,19.194107,72,60,40
19.194107,19.286053,71,60,40
19.30949,19.424875,68,60,40
19.424875,19.516823,67,60,40
19.54026,19.653841,67,60,40
19.771029,19.884611,67,60,40
20.001799,20.05949,68,60,40
20.05949,20.117182,67,60,40
20.117182,20.174875,66,60,40
20.174875,20.232567,67,60,40
20.232567,20.41646,72,60,40
20.463335,20.694105,67,60,40
20.694105,20.877998,74,60,40
20.924873,21.156338,67,60,40
21.156338,21.34237,75,60,40
21.390074,21.626942,63,60,40
21.626942,21.818579,69,60,40
21.86788,22.329418,62,60,40
21.86788,22.329418,70,60,40
22.790956,23.483263,65,60,40
23.483263,23.667158,63,60,40
23.714033,23.827614,62,60,40
23.944801,24.058384,65,60,40
24.175571,24.752525,77,79,40
24.752525,24.868076,75,60,40
24.868076,24.983786,72,60,40
24.983786,25.099684,69,60,40
25.099684,25.2158,65,60,40
25.2158,25.33216,63,60,40
25.33216,25.4488,60,60,40
25.4488,25.541973,57,60,40
25.565746,26.027285,58,60,40
26.488823,27.18113,65,60,40
27.18113,27.365023,63,60,40
27.411898,27.52548,62,60,40
27.642668,27.756248,65,60,40
27.873436,28.450474,77,79,40
28.450474,28.566439,74,64,40
28.566439,28.68297,70,69,40
28.68297,28.800175,68,74,40
28.800175,28.918161,65,78,40
28.918161,29.037043,62,83,40
29.037043,29.156939,58,88,40
29.156939,29.253326,56,93,40
29.27798,29.73952,55,97,40
29.27798,29.73952,63,97,40
29.73952,29.8531,58,97,40
29.970287,30.08387,58,97,40
30.201057,30.662596,65,116,40
30.662596,30.776176,58,97,40
30.893364,31.006947,58,97,40
31.124132,31.237715,67,97,40
31.354902,31.468483,67,97,40
31.58567,31.81644,67,97,40
31.81644,31.931824,70,97,40
31.931824,32.023773,68,97,40
32.04721,32.278175,67,97,40
32.278175,32.462677,65,97,40
32.509785,32.624084,62,97,40
32.509785,32.624084,70,97,40
32.742264,32.85708,62,97,40
32.742264,32.85708,70,97,40
32.975845,33.437386,63,116,40
32.975845,33.437386,75,116,40
33.437386,33.55097,67,97,40
33.668156,33.781734,67,97,40
33.898922,34.360462,72,116,40
34.360462,34.47404,65,97,40
34.59123,34.70481,65,97,40
34.822,35.053463,70,97,40
35.053463,35.169994,67,97,40
35.169994,35.263317,63,97,40
35.2872,35.524067,68,97,40
35.524067,35.643963,65,97,40
35.643963,35.74035,62,97,40
35.765007,36.13086,63,97,40
36.25281,36.372856,67,97,40
36.49671,36.616756,67,97,40
36.740612,37.72513,68,113,40
37.72513,37.924595,67,113,40
37.975624,38.089207,77,60,40
38.206394,38.319977,75,60,40
38.437164,38.550743,74,60,40
38.66793,38.781578,72,60,40
38.899097,39.013317,71,60,40
39.131554,39.24658,72,60,40
39.365765,39.481842,71,60,40
39.602238,39.71588,72,60,40
40.065857,40.180885,67,60,40
40.30007,40.416145,67,60,40
40.53654,41.497406,69,113,40
41.497406,41.692,70,113,40
41.74178,41.855362,75,60,40
41.97255,42.086132,74,60,40
42.20332,42.316902,72,60,40
42.43409,42.54778,70,60,40
42.665554,42.78026,69,60,40
42.89929,43.015427,70,60,40
43.136154,43.254173,69,60,40
43.377094,43.60645,70,60,40
43.840714,43.95574,69,60,40
44.07493,44.191,69,60,40
44.311398,44.772938,70,97,40
44.772938,44.88652,71,97,40
45.003708,45.117287,71,97,40
45.234474,45.696014,72,116,40
45.696014,45.809593,73,97,40
45.92678,46.040363,73,97,40
46.15755,46.271286,74,97,40
46.3894,46.504868,74,97,40
46.62512,46.742863,76,97,40
46.865902,46.9866,76,97,40
47.112747,47.632236,77,97,40
47.632236,47.766468,65,60,40
47.904964,48.039196,65,60,40
48.177692,48.523846,74,60,40
48.523846,48.581535,75,60,40
48.581535,48.62661,74,60,40
48.63923,48.75281,70,60,40
48.87,48.98358,74,60,40
49.100765,49.214348,77,60,40
49.331535,49.445118,77,60,40
49.562305,49.638096,79,60,40
49.638096,49.71594,77,60,40
49.71594,49.7941,79,60,40
49.7941,49.870842,77,60,40
49.870842,49.949875,76,60,40
49.949875,50.012714,77,60,40
50.029373,50.375526,75,60,40
50.375526,50.433216,77,60,40
50.433216,50.47829,75,60,40
50.49091,50.604492,72,60,40
50.72168,50.835262,75,60,40
50.95245,51.886753,79,79,40
51.886753,52.232906,79,60,40
52.232906,52.2906,81,60,40
52.2906,52.33567,79,60,40
52.34829,52.461872,75,60,40
52.57906,52.692642,79,60,40
52.80983,52.92341,82,60,40
53.040596,53.15418,82,60,40
53.271366,53.347157,84,60,40
53.347157,53.425,82,60,40
53.425,53.503162,84,60,40
53.503162,53.579906,82,60,40
53.579906,53.658936,81,60,40
53.658936,53.721775,82,60,40
53.738434,53.9699,75,60,40
53.9699,54.08643,72,60,40
54.08643,54.179752,75,60,40
54.203632,54.440502,74,60,40
54.440502,54.5604,70,60,40
54.5604,54.656784,74,60,40
54.681442,54.80339,72,60,40
54.80339,54.90057,70,60,40
54.925343,54.984413,69,60,40
55.047295,55.106365,67,60,40
55.169243,55.228336,65,60,40
55.291355,55.350685,63,60,40
55.414005,55.473667,62,60,40
55.537395,55.59749,60,60,40
55.661663,55.717552,58,50,40
55.77705,55.892433,64,50,40
55.892433,56.007816,65,50,40
56.007816,56.123203,64,50,40
56.123203,56.238586,65,50,40
56.238586,56.35397,64,50,40
56.35397,56.469357,65,50,40
56.469357,56.561302,62,50,40
56.58474,56.64063,60,50,40
56.700123,56.756012,65,50,40
56.81551,56.8714,57,50,40
56.930893,56.986782,65,50,40
57.046276,57.102196,60,50,40
57.161854,57.218052,65,50,40
57.278072,57.33467,57,50,40
57.39518,57.452293,65,50,40
57.513344,57.569233,55,50,40
57.62873,57.744114,66,50,40
57.744114,57.859497,67,50,40
57.859497,57.974884,66,50,40
57.974884,58.090267,67,50,40
58.090267,58.20565,66,50,40
58.20565,58.321037,67,50,40
58.321037,58.412983,63,50,40
58.43642,58.492313,62,50,40
58.551872,58.607883,67,50,40
58.667587,58.723747,58,50,40
58.783623,58.839962,67,50,40
58.90004,58.956585,62,50,40
59.0169,59.073677,67,50,40
59.134254,59.1913,58,50,40
59.252174,59.309513,67,50,40
59.370724,59.426617,58,50,40
59.48611,59.601494,69,50,40
59.601494,59.71688,70,50,40
59.71688,59.832264,69,50,40
59.832264,59.947647,70,50,40
59.947647,60.063034,69,50,40
60.063034,60.178417,70,50,40
60.178417,60.270363,67,50,40
60.2938,60.34969,65,50,40
60.409187,60.465076,70,50,40
60.52457,60.58046,62,50,40
60.639954,60.695843,70,50,40
60.75534,60.811256,65,50,40
60.870914,60.927116,70,50,40
60.987137,61.043736,62,50,40
61.10424,61.161358,70,50,40
61.22241,61.337856,67,50,40
61.337856,61.45357,71,50,40
61.45357,61.56961,72,50,40
61.56961,61.686028,70,50,40
61.686028,61.802883,69,50,40
61.802883,61.92024,67,50,40
61.92024,62.03816,65,50,40
62.03816,62.13259,63,50,40
62.15671,62.618248,62,50,40
64.01409,64.12767,74,50,40
64.24486,64.360245,82,50,40
64.360245,64.452194,86,50,40
64.47563,64.59101,77,50,40
64.59101,64.68296,82,50,40
64.7064,64.76229,74,50,40
64.821785,64.87767,77,50,40
64.937164,65.052666,75,50,40
65.052666,65.145035,79,50,40
65.16863,65.225,72,50,40
65.285164,65.34184,75,50,40
65.40237,65.45941,69,50,40
65.520355,65.57782,72,50,40
65.63924,65.69718,65,50,40
65.75913,65.81761,69,50,40
65.88017,66.34171,70,50,40
66.57248,66.68787,72,50,40
66.68787,66.80325,70,50,40
66.80325,66.985344,69,50,40
67.49556,67.61094,77,50,40
67.61094,67.726326,75,50,40
67.726326,67.90842,74,50,40
68.41863,68.53402,77,49,40
68.53402,68.6494,75,54,40
68.6494,68.83189,74,59,40
69.35147,69.47137,77,88,40
69.47137,69.59241,75,93,40
69.59241,69.784195,74,97,40
72.70811,72.81997,70,60,40
72.93806,73.05559,70,60,40
73.18053,73.64206,75,79,40
73.64206,73.755646,70,60,40
73.87283,73.98641,70,60,40
74.1036,74.56514,77,79,40
74.56514,74.67872,70,60,40
74.795906,74.90949,70,60,40
75.02668,75.14026,79,60,40
75.25745,75.371025,79,60,40
75.48821,75.71899,79,60,40
75.71899,75.834366,82,60,40
75.834366,75.926315,80,60,40
75.94975,76.18072,79,60,40
76.18072,76.36522,77,60,40
76.41233,76.52663,82,60,40
76.644806,76.75962,82,60,40
76.87839,77.33993,87,79,40
77.33993,77.45351,79,60,40
77.570694,77.68428,79,60,40
77.80147,78.26301,84,79,40
78.26301,78.37659,77,60,40
78.493774,78.60735,77,60,40
78.72454,78.95601,82,60,40
78.95601,79.07254,79,60,40
79.07254,79.16586,75,60,40
79.18974,79.42661,80,60,40
79.42661,79.54651,77,60,40
79.54651,79.64289,74,60,40
79.66755,80.1571,75,60,40
80.65253,80.767914,55,50,40
80.767914,80.8833,58,50,40
80.8833,80.99868,63,50,40
80.99868,81.11407,58,50,40
81.11407,81.229454,55,50,40
81.229454,81.34483,58,50,40
81.34483,81.46022,55,50,40
81.46022,81.57561,58,50,40
81.57561,81.69099,56,50,40
81.69099,81.80637,58,50,40
81.80637,81.92176,65,50,40
81.92176,82.03714,58,50,40
82.03714,82.15253,56,50,40
82.15253,82.267914,58,50,40
82.267914,82.38329,56,50,40
82.38329,82.49868,58,50,40
82.49868,82.61407,55,50,40
82.61407,82.72945,58,50,40
82.72945,82.84483,63,50,40
82.84483,82.96022,58,50,40
82.96022,83.0756,63,50,40
83.0756,83.19099,60,50,40
83.19099,83.30637,65,50,40
83.30637,83.42175,60,50,40
83.42175,83.53717,63,50,40
83.53717,83.652725,58,50,40
83.652725,83.76843,62,50,40
83.76843,83.88433,58,50,40
83.88433,84.00045,62,50,40
84.00045,84.116806,58,50,40
84.116806,84.233444,62,50,40
84.233444,84.350395,58,50,40
84.350395,84.46578,63,50,40
84.46578,84.58116,58,50,40
84.58116,84.69655,55,50,40
84.69655,84.811935,58,50,40
84.811935,84.927315,63,50,40
84.927315,85.0427,58,50,40
85.0427,85.15809,63,50,40
85.15809,85.27347,58,50,40
85.27347,85.388855,63,50,40
85.388855,85.50424,60,50,40
85.50424,85.61962,56,50,40
85.61962,85.73501,60,50,40
85.73501,85.850395,63,50,40
85.850395,85.965775,60,50,40
85.965775,86.08116,63,50,40
86.08116,86.19655,60,50,40
86.19655,86.31205,55,50,40
86.31205,86.42801,58,50,40
86.42801,86.54454,63,50,40
86.54454,86.66174,67,50,40
86.66174,86.77973,62,50,40
86.77973,86.89861,65,50,40
86.89861,87.01851,68,50,40
87.01851,87.13955,68,50,40
87.13955,87.62736,67,60,40
89.03824,90.19278,78,79,40
90.19278,90.30748,79,60,40
90.42651,90.54265,80,60,40
90.66338,90.781395,82,60,40
90.90432,91.01797,83,60,40
92.7617,93.91624,80,79,40
93.91624,94.030945,80,60,40
94.14998,94.26611,82,60,40
94.38684,94.50486,83,60,40
94.627785,94.741425,85,60,40
96.48516,97.63901,82,79,40
97.63901,97.752594,82,60,40
97.869774,97.98336,83,60,40
98.10055,98.21413,85,60,40
98.331314,98.4449,87,60,40
98.56209,98.67567,85,60,40
98.792854,98.90643,82,60,40
99.02362,99.13721,83,60,40
99.254395,99.36799,80,60,40
99.48553,99.5998,82,60,40
99.71812,99.83324,78,60,40
99.95251,100.068634,80,60,40
100.18876,100.30583,73,60,40
100.669495,100.789764,77,60,40
101.163765,101.27735,78,43,40
101.39454,101.50812,73,43,40
101.625305,101.738884,73,43,40
101.85607,101.96966,73,43,40
102.086845,102.200424,73,43,40
102.31761,102.43119,73,43,40
102.54838,102.661964,73,43,40
102.77915,102.89273,73,43,40
103.00992,103.1235,73,43,40
103.240685,103.35427,73,43,40
103.47146,103.58504,73,43,40
103.702225,103.81581,73,43,40
103.933,104.04664,73,43,40
104.16416,104.27838,73,43,40
104.396614,104.51164,73,43,40
104.63083,104.7469,73,43,40
104.8673,104.98088,73,43,40
105.09807,105.21165,73,43,40
105.328835,105.44242,73,43,40
105.55961,105.67319,73,43,40
105.790375,105.90395,74,43,40
106.02114,106.13473,74,43,40
106.251915,106.36549,74,43,40
106.48268,106.59627,74,43,40
106.713455,106.827034,75,42,40
106.94422,107.0578,75,49,40
107.17499,107.288574,75,56,40
107.40576,107.51934,75,63,40
107.63653,107.750206,77,70,40
107.86789,107.98244,77,77,40
108.1012,108.216965,77,84,40
108.33717,108.45454,77,90,40
108.57661,108.80737,78,97,40
108.80737,108.99127,80,97,40
109.03815,109.151726,78,97,40
109.26891,109.38249,77,97,40
109.49968,109.73045,75,97,40
109.73045,109.914345,77,97,40
109.96122,110.0748,75,97,40
110.191986,110.30557,73,97,40
110.42276,110.65412,71,97,40
110.65412,110.83984,73,97,40
110.88743,111.0032,71,97,40
111.123405,111.24077,70,97,40
111.36284,111.47651,68,97,40
111.5942,111.71057,70,97,40
111.71057,111.82751,71,97,40
111.82751,111.945114,73,97,40
111.945114,112.063484,75,97,40
112.063484,112.18272,77,97,40
112.18272,112.27844,78,97,40
112.30292,112.53368,80,97,40
112.53368,112.717575,82,97,40
112.76445,112.87804,80,97,40
112.995224,113.1088,78,97,40
113.22599,113.45676,77,97,40
113.45676,113.640656,78,97,40
113.68753,113.80111,77,97,40
113.9183,114.03188,75,97,40
114.14907,114.38043,73,97,40
114.38043,114.566154,75,97,40
114.61374,114.72951,73,97,40
114.84972,114.96708,71,97,40
115.08915,115.32051,70,97,40
116.9523,118.10615,85,97,40
118.10615,118.29004,86,97,40
118.336914,118.45049,87,97,40
118.56768,118.68127,89,97,40
118.798454,118.91203,90,97,40
119.02922,119.1428,89,97,40
119.25999,119.37357,85,97,40
119.49076,119.60434,87,97,40
119.72153,119.83512,84,97,40
119.95266,120.06693,85,97,40
120.18526,120.30037,82,97,40
120.41965,120.535774,84,97,40
120.6559,120.772964,77,97,40
121.13663,121.256905,81,97,40
121.630905,121.744484,82,97,40
121.86167,121.97526,77,43,40
122.092445,122.206024,77,43,40
122.32321,122.43679,77,43,40
122.55398,122.667564,77,43,40
122.78475,122.89833,77,43,40
123.01552,123.1291,77,43,40
123.246284,123.35987,77,43,40
123.47706,123.59064,77,43,40
123.707825,123.8214,77,43,40
123.93859,124.05218,77,43,40
124.169365,124.28294,77,43,40
124.40013,124.51378,77,43,40
124.631294,124.74552,77,43,40
124.863754,124.97878,77,43,40
125.09797,125.21404,77,43,40
125.334435,125.44802,77,43,40
125.56521,125.67879,77,43,40
125.795975,125.90955,77,43,40
126.02674,126.14033,77,43,40
126.257515,126.37109,77,43,40
126.48828,126.60186,77,43,40
126.71905,126.832634,77,43,40
126.94982,127.0634,77,43,40
127.18059,127.29417,77,43,40
127.411354,127.52494,77,46,40
127.64213,127.75571,77,49,40
127.872894,127.98648,77,52,40
128.10367,128.21736,77,55,40
128.33513,128.44983,74,59,40
128.56886,128.685,74,62,40
128.80573,128.92375,74,65,40
129.04668,129.27744,75,60,40
129.27744,129.46133,70,60,40
129.50821,129.6218,75,60,40
129.73898,129.85255,73,60,40
129.96974,130.20052,71,60,40
130.20052,130.38441,66,60,40
130.43129,130.54486,71,60,40
130.66205,130.77563,70,60,40
130.89282,131.1236,68,60,40
131.1236,131.30748,63,60,40
131.35435,131.46794,68,60,40
131.58513,131.69872,66,60,40
131.8159,132.04706,65,60,40
132.7502,132.98097,77,60,40
132.98097,133.16487,76,60,40
133.21175,133.32532,77,60,40
133.4425,133.55609,75,60,40
133.67328,133.90405,73,60,40
133.90405,134.08794,72,60,40
134.13481,134.2484,73,60,40
134.36559,134.47917,71,60,40
134.59636,134.82712,70,60,40
134.82712,135.01102,69,60,40
135.05789,135.17148,70,60,40
135.28867,135.40224,68,60,40
135.51942,135.7509,66,60,40
136.46243,136.57782,70,113,40
136.57782,136.6932,71,113,40
136.6932,136.8086,73,113,40
136.8086,136.92398,71,113,40
136.92398,137.03937,70,113,40
137.03937,137.15474,71,113,40
137.15474,137.27013,70,113,40
137.27013,137.36208,68,113,40
137.38551,137.5009,66,127,40
137.5009,137.61629,68,113,40
137.61629,137.73167,70,113,40
137.73167,137.84705,68,113,40
137.84705,137.96243,66,113,40
137.96243,138.07782,68,113,40
138.07782,138.1932,66,113,40
138.1932,138.28516,65,113,40
138.3086,138.42398,63,127,40
138.42398,138.53935,65,113,40
138.53935,138.65474,66,113,40
138.65474,138.77013,65,113,40
138.77013,138.88551,63,113,40
138.88551,139.0009,65,113,40
139.0009,139.11629,63,113,40
139.11629,139.20824,61,113,40
139.23166,139.34705,59,127,40
139.34705,139.46243,61,113,40
139.46243,139.57782,63,113,40
139.57782,139.6932,61,113,40
139.6932,139.8086,59,113,40
139.8086,139.92398,61,113,40
139.92398,140.03935,59,113,40
140.03935,140.1313,58,113,40
140.15474,140.27016,56,113,40
140.27016,140.38617,58,113,40
140.38617,140.50285,57,113,40
140.50285,140.62029,58,113,40
140.62029,140.73854,57,113,40
140.73854,140.85773,58,113,40
140.85773,140.97792,57,113,40
140.97792,141.07413,58,113,40
141.09866,141.21875,65,113,40
141.53284,141.59639,58,113,40
141.53284,141.69661,65,113,40
141.59639,141.69661,74,113,40
142.35194,142.46553,70,60,40
142.58272,142.6963,75,60,40
142.81349,142.92708,73,60,40
143.04427,143.27502,71,60,40
143.27502,143.45892,66,60,40
143.5058,143.61938,71,60,40
143.73657,143.85014,70,60,40
143.96733,144.1981,68,60,40
144.1981,144.382,63,60,40
144.42888,144.54245,68,60,40
144.65964,144.77322,66,60,40
144.89041,145.12158,65,60,40
145.12158,145.30669,59,60,40
145.35403,145.46906,65,60,40
145.58824,145.70432,63,60,40
145.82472,146.51598,62,60,40
146.51598,146.69913,63,60,40
146.7458,147.43333,65,60,40
147.43333,147.6155,63,60,40
147.66194,148.34547,62,60,40
148.34547,148.57286,63,80,40
148.57286,149.25247,65,86,40
149.25247,149.43246,63,67,40
149.47835,150.16524,62,59,40
150.16524,150.4005,60,53,40
150.4005,151.13815,58,50,40
151.13815,151.3444,56,50,40
151.3975,151.5129,55,43,40
151.5129,151.62828,58,43,40
151.62828,151.74367,63,43,40
151.74367,151.85905,58,43,40
151.85905,151.97444,55,43,40
151.97444,152.08981,58,43,40
152.08981,152.2052,55,43,40
152.2052,152.32059,58,43,40
152.32059,152.43597,56,43,40
152.43597,152.55136,58,43,40
152.55136,152.66675,65,43,40
152.66675,152.78212,58,43,40
152.78212,152.8975,56,43,40
152.8975,153.0129,58,43,40
153.0129,153.12828,56,43,40
153.12828,153.24367,58,43,40
153.24367,153.35905,55,43,40
153.35905,153.47443,58,43,40
153.47443,153.58981,63,43,40
153.58981,153.7052,58,43,40
153.7052,153.82059,63,43,40
153.82059,153.93597,60,43,40
153.93597,154.05136,65,43,40
154.05136,154.16673,60,43,40
154.16673,154.28215,63,43,40
154.28215,154.3977,58,43,40
154.3977,154.51341,62,43,40
154.51341,154.62932,58,43,40
154.62932,154.74544,62,43,40
154.74544,154.8618,58,43,40
154.8618,154.97844,62,43,40
154.97844,155.09538,58,43,40
155.09538,155.21077,63,43,40
155.21077,155.32614,58,43,40
155.32614,155.44153,55,43,40
155.44153,155.55692,58,43,40
155.55692,155.6723,63,43,40
155.6723,155.78769,58,43,40
155.78769,155.90308,63,43,40
155.90308,156.01845,58,43,40
156.01845,156.13383,63,43,40
156.13383,156.24922,60,43,40
156.24922,156.36461,56,43,40
156.36461,156.48,60,43,40
156.48,156.59538,63,43,40
156.59538,156.71075,60,43,40
156.71075,156.82614,63,43,40
156.82614,156.94153,60,43,40
156.94153,157.05698,55,43,40
157.05698,157.1727,58,43,40
157.1727,157.28873,63,43,40
157.28873,157.40515,67,43,40
157.40515,157.522,62,43,40
157.522,157.63936,65,43,40
157.63936,157.75728,68,43,40
157.75728,157.87584,68,43,40
157.87584,158.35202,67,43,40
158.35202,158.4656,75,60,40
158.5828,158.69638,75,60,40
158.81357,159.2751,80,79,40
159.2751,159.38869,72,60,40
159.50587,159.61945,72,60,40
159.73663,160.19818,77,79,40
160.19818,160.31175,70,60,40
160.42894,160.54253,70,60,40
160.65971,160.89117,75,60,40
160.89117,161.0077,72,60,40
161.0077,161.10103,68,60,40
161.12491,161.36179,73,60,40
161.36179,161.48167,70,60,40
161.48167,161.57806,67,60,40
161.60272,162.09053,68,60,40
165.80872,165.92409,84,60,40
165.92409,166.01604,82,60,40
166.03947,166.15486,80,60,40
166.15486,166.24681,79,60,40
166.27025,166.38564,77,60,40
166.38564,166.47758,76,60,40
166.50102,166.61641,73,60,40
166.61641,166.70834,72,60,40
166.73178,166.84537,72,60,40
166.96255,167.07614,72,60,40
167.19333,167.25102,73,60,40
167.25102,167.30872,72,60,40
167.30872,167.3664,71,60,40
167.3664,167.42409,72,60,40
167.42409,167.60799,77,60,40
167.65486,167.76845,72,60,40
167.88564,167.9992,72,60,40
168.1164,168.34787,72,60,40
168.34787,168.53389,79,60,40
168.5816,168.81847,72,60,40
168.81847,169.0101,80,60,40
169.0594,169.30331,72,60,40
169.30331,169.49767,82,60,40
169.54721,169.66725,72,60,40
169.7911,169.91116,72,60,40
170.03502,171.01953,73,113,40
171.01953,171.219,72,113,40
171.27002,171.3836,82,60,40
171.5008,171.61438,80,60,40
171.73157,171.84515,79,60,40
171.96233,172.07597,77,60,40
172.1935,172.30772,76,60,40
172.42595,172.54099,77,60,40
172.66017,172.77625,64,60,40
172.89664,173.12599,65,60,40
173.36026,173.47528,72,60,40
173.59447,173.71054,72,60,40
173.83095,174.79181,74,113,40
174.79181,174.9864,75,113,40
175.03618,175.14977,80,60,40
175.26695,175.38054,79,60,40
175.49773,175.6113,77,60,40
175.72849,175.84218,75,60,40
175.95996,176.07466,74,60,40
176.1937,176.30983,75,60,40
176.43056,176.54857,62,60,40
176.6715,176.90085,63,60,40
177.13512,177.25014,74,60,40
177.36932,177.4854,74,60,40
177.6058,178.06734,75,97,40
178.06734,178.18092,76,97,40
178.29811,178.41168,76,97,40
178.52887,178.99042,77,116,40
178.99042,179.10399,78,97,40
179.22118,179.33476,78,97,40
179.45195,179.56569,79,97,40
179.6838,179.79927,79,97,40
179.91953,180.03726,81,97,40
180.16031,180.281,81,97,40
180.40715,180.92664,82,97,40
180.92664,181.06087,70,60,40
181.19937,181.3336,70,60,40
181.47209,181.81825,79,60,40
181.81825,181.87593,80,60,40
181.87593,181.93362,79,60,40
181.93362,182.04721,75,60,40
182.1644,182.27798,79,60,40
182.39517,182.50874,82,60,40
182.62593,182.73952,82,60,40
182.8567,182.93245,84,60,40
182.93245,183.01009,82,60,40
183.01009,183.08788,84,60,40
183.08788,183.16399,82,60,40
183.16399,183.24205,81,60,40
183.24205,183.30391,82,60,40
183.32028,183.67213,80,60,40
183.67213,183.73132,82,60,40
183.73132,183.7777,80,60,40
183.7907,183.90788,77,60,40
184.0288,184.14598,80,60,40
184.26688,185.23122,84,79,40
185.23122,185.57738,84,60,40
185.57738,185.63507,86,60,40
185.63507,185.68015,84,60,40
185.69276,185.80634,80,60,40
185.92352,186.03711,84,60,40
186.1543,186.26788,87,60,40
186.38507,186.49864,87,60,40
186.61583,186.69157,89,60,40
186.69157,186.76923,87,60,40
186.76923,186.847,89,60,40
186.847,186.92311,87,60,40
186.92311,187.00119,86,60,40
187.00119,187.06303,87,60,40
187.0794,187.31606,80,60,40
187.31606,187.43521,77,60,40
187.43521,187.53043,80,60,40
187.55504,187.79912,79,60,40
187.79912,187.92297,75,60,40
187.92297,188.02258,79,60,40
188.04807,188.1741,77,60,40
188.1741,188.27455,75,60,40
188.30016,188.36122,74,60,40
188.42621,188.48726,72,60,40
188.55226,188.61334,70,50,40
188.67848,188.73982,68,50,40
188.80528,188.86697,67,50,40
188.93286,188.99501,65,50,40
189.0614,189.17677,63,50,40
189.17677,189.29216,58,50,40
189.29216,189.40755,63,50,40
189.40755,189.52293,67,50,40
189.52293,189.63832,69,50,40
189.63832,189.75371,70,50,40
189.75371,189.86908,69,50,40
189.86908,189.96103,70,50,40
189.98447,190.04036,65,50,40
190.09985,190.15575,70,50,40
190.21524,190.27113,62,50,40
190.33063,190.38652,70,50,40
190.44601,190.50192,65,50,40
190.56158,190.61778,70,50,40
190.67781,190.7344,62,50,40
190.7949,190.85202,70,50,40
190.91307,191.02846,60,50,40
191.02846,191.14384,65,50,40
191.14384,191.25923,68,50,40
191.25923,191.35118,72,50,40
191.37462,191.49,71,50,40
191.49,191.60538,72,50,40
191.60538,191.72076,71,50,40
191.72076,191.81271,72,50,40
191.83615,191.89207,67,50,40
191.95172,192.00793,72,50,40
192.06795,192.12454,63,50,40
192.18506,192.24217,72,50,40
192.30322,192.36089,67,50,40
192.42227,192.47993,72,50,40
192.54132,192.59898,63,50,40
192.66035,192.71802,72,50,40
192.7794,192.89479,63,50,40
192.89479,193.01018,68,50,40
193.01018,193.12556,72,50,40
193.12556,193.21751,75,50,40
193.24095,193.35634,74,50,40
193.35634,193.47171,75,50,40
193.47171,193.5871,74,50,40
193.5871,193.67905,75,50,40
193.70248,193.75838,70,50,40
193.81787,193.87376,75,50,40
193.93326,193.98914,67,50,40
194.04865,194.10452,75,50,40
194.16402,194.21994,70,50,40
194.2796,194.3358,75,50,40
194.39581,194.45242,67,50,40
194.51292,194.57004,75,50,40
194.63109,194.74654,68,50,40
194.74654,194.86226,72,50,40
194.86226,194.97829,70,50,40
194.97829,195.07101,68,50,40
195.09471,195.21156,65,50,40
195.21156,195.32892,68,50,40
195.32892,195.44684,67,50,40
195.44684,195.54128,65,50,40
195.5654,196.04158,67,50,40
197.48212,197.5957,67,50,40
197.71289,197.82826,75,50,40
197.82826,197.92021,79,50,40
197.94365,198.05904,70,50,40
198.05904,198.15099,75,50,40
198.17442,198.23032,67,50,40
198.28981,198.34569,70,50,40
198.4052,198.52069,68,50,40
198.52069,198.61305,72,50,40
198.63666,198.69302,65,50,40
198.75319,198.80986,68,50,40
198.87039,198.92743,62,50,40
198.98837,199.04584,65,50,40
199.10725,199.1652,58,50,40
199.22716,199.28563,62,50,40
199.34819,199.80974,63,50,40
200.0405,200.15588,65,50,40
200.15588,200.27127,63,50,40
200.27127,200.45337,62,50,40
200.96358,201.07896,70,50,40
201.07896,201.19435,68,50,40
201.19435,201.37643,67,50,40
201.88666,202.00204,77,49,40
202.00204,202.11743,75,54,40
202.11743,202.29991,74,59,40
202.81949,202.93939,70,88,40
202.93939,203.06042,68,93,40
203.06042,203.24252,67,97,40
203.9835,204.67581,75,116,40
204.67581,204.7894,75,97,40
204.90659,205.59889,75,116,40
205.59889,205.71248,75,97,40
205.82967,206.5261,76,116,40
206.5261,206.64154,76,97,40
206.76112,206.8747,77,60,40
206.99188,207.10547,77,60,40
207.45343,207.567,79,59,40
207.91595,208.03116,80,55,40
208.39058,208.5106,81,52,40
208.63615,208.86693,82,50,40
210.75119,210.86658,79,60,40
210.86658,210.98196,80,60,40
210.98196,211.0721,82,60,40
211.67427,211.78966,80,60,40
211.78966,211.90503,82,60,40
211.90503,211.99518,84,60,40
212.59734,212.71272,74,60,40
212.71272,212.82811,75,60,40
212.82811,212.91826,77,60,40
213.05888,213.17427,75,60,40
213.17427,213.28964,77,60,40
213.28964,213.37982,79,60,40
213.52081,213.63686,75,60,40
213.63686,213.75327,77,60,40
213.75327,213.84451,79,60,40
213.98749,214.10541,79,60,40
214.10541,214.22395,80,60,40
214.22395,214.68549,83,79,40
214.68549,214.77563,74,60,40
214.91626,215.02985,74,60,40
215.14703,215.60857,79,60,40
215.60857,215.72215,72,60,40
215.83934,215.95291,72,60,40
216.0701,216.18369,77,60,40
216.30087,216.41446,77,59,40
216.53165,216.64703,77,67,40
216.64703,216.76242,79,71,40
216.76242,216.87779,77,75,40
216.87779,216.96974,75,78,40
216.99318,217.10869,74,82,40
217.10869,217.22464,75,86,40
217.22464,217.34117,74,90,40
217.34117,217.43451,72,94,40
217.45839,217.57637,70,97,40
217.57637,217.69525,72,101,40
217.69525,217.81514,70,105,40
217.81514,217.91153,68,109,40
217.93619,218.16696,67,113,40
218.16696,218.28235,67,113,40
218.28235,218.39772,68,113,40
218.39772,218.48787,70,113,40
219.09003,219.20541,68,113,40
219.20541,219.3208,70,113,40
219.3208,219.41095,72,113,40
220.0135,220.12955,62,113,40
220.12955,220.24596,63,113,40
220.24596,220.36282,65,113,40
220.36282,220.48018,58,113,40
220.48018,220.5981,60,113,40
220.5981,220.69252,62,113,40
220.71664,220.94742,63,113,40
220.94742,221.06099,75,113,40
221.17818,221.29176,72,113,40
221.40895,221.52254,75,113,40
221.63972,221.7533,74,113,40
221.87048,221.98407,77,113,40
222.10126,222.21484,71,113,40
222.33203,222.44562,74,113,40
222.56279,222.67638,72,113,40
222.79356,222.90895,72,113,40
222.90895,223.0009,74,113,40
223.02434,223.13972,75,113,40
223.13972,223.25511,78,113,40
223.25511,223.37048,77,113,40
223.37048,223.46243,75,113,40
223.48587,223.60126,73,113,40
223.60126,223.71664,72,113,40
223.71664,223.83203,73,113,40
223.83203,223.92398,70,113,40
223.94742,224.06279,73,113,40
224.06279,224.17818,77,113,40
224.17818,224.29356,75,113,40
224.29356,224.38551,73,113,40
224.40895,224.52434,72,113,40
224.52434,224.63972,71,113,40
224.63972,224.7551,72,113,40
224.7551,224.84705,68,113,40
224.87048,224.98587,73,113,40
224.98587,225.10126,75,113,40
225.10126,225.21664,73,113,40
225.21664,225.3086,72,113,40
225.33203,225.4474,70,113,40
225.4474,225.56279,69,113,40
225.56279,225.67818,70,113,40
225.67818,225.77013,67,113,40
225.79356,225.90895,72,113,40
225.90895,226.02434,73,113,40
226.02434,226.13971,72,113,40
226.13971,226.23166,70,113,40
226.2551,226.37048,68,113,40
226.37048,226.48587,67,113,40
226.48587,226.60126,68,113,40
226.60126,226.6932,65,113,40
226.71664,226.83203,70,113,40
226.83203,226.9474,72,113,40
226.9474,227.06279,70,113,40
227.06279,227.15474,68,113,40
227.17818,227.29367,67,113,40
227.29367,227.40964,65,113,40
227.40964,227.52617,63,113,40
227.52617,227.61949,62,113,40
227.64337,227.76137,63,113,40
227.76137,227.88025,65,113,40
227.88025,228.00014,67,113,40
228.00014,228.09653,69,113,40
228.12119,228.58272,70,113,40
228.58272,228.6963,82,113,40
228.81349,228.92708,82,113,40
229.04427,229.5058,87,127,40
229.5058,229.61938,79,113,40
229.73657,229.85014,79,113,40
229.96733,230.42888,84,127,40
230.42888,230.54245,77,113,40
230.65964,230.77322,77,113,40
230.89041,231.3592,82,127,40
231.3592,231.47783,75,113,40
231.60211,231.72433,75,113,40
231.85245,231.9786,80,113,40
232.11241,232.24518,80,113,40
232.3854,232.52328,80,113,40
232.52328,232.65309,84,113,40
232.65309,232.77705,82,113,40
232.77705,232.87288,80,113,40
232.89713,233.01518,79,113,40
233.01518,233.13222,82,113,40
233.13222,233.2483,80,113,40
233.2483,233.34023,79,113,40
233.3635,233.47786,77,113,40
233.47786,233.59142,80,113,40
233.59142,233.70425,79,113,40
233.70425,233.79385,77,113,40
233.8167,233.92847,75,113,40
233.92847,234.03937,79,113,40
234.03937,234.14972,77,113,40
234.14972,234.23727,75,113,40
234.25957,234.36894,74,113,40
234.36894,234.47789,77,113,40
234.47789,234.58646,75,113,40
234.58646,234.67268,74,113,40
234.69466,234.80258,72,113,40
234.80258,234.91049,75,113,40
234.91049,235.0184,74,113,40
235.0184,235.1044,72,113,40
235.12631,235.23424,70,113,40
235.23424,235.34215,73,113,40
235.34215,235.45006,72,113,40
235.45006,235.53606,70,113,40
235.55797,235.66588,68,113,40
235.66588,235.7738,72,113,40
235.7738,235.88171,70,113,40
235.88171,235.96771,68,113,40
235.98962,236.09753,67,113,40
236.09753,236.20546,70,113,40
236.20546,236.31337,68,113,40
236.31337,236.39935,67,113,40
236.42128,236.52922,67,113,40
236.52922,236.63751,65,113,40
236.63751,236.74622,67,113,40
236.74622,236.85538,65,113,40
236.85538,236.96503,67,113,40
236.96503,237.07524,65,113,40
237.07524,237.18605,67,113,40
237.18605,237.27463,65,113,40
237.2972,237.40909,79,113,40
237.40909,237.52202,77,113,40
237.52202,237.63577,79,113,40
237.63577,237.7504,77,113,40
237.7504,237.86597,79,113,40
237.86597,237.98254,77,113,40
237.98254,238.10019,79,113,40
238.10019,238.19485,77,113,40
238.21901,238.33443,84,113,40
238.33443,238.45044,82,113,40
238.45044,238.56712,84,113,40
238.56712,238.68456,82,113,40
238.68456,238.80281,84,113,40
238.80281,238.922,82,113,40
238.922,239.04218,84,113,40
239.04218,239.1384,82,113,40
239.16293,239.28494,84,113,40
239.28494,239.40872,82,113,40
239.40872,239.53392,84,113,40
239.53392,239.66064,82,113,40
239.66064,239.78903,84,113,40
239.78903,239.91919,82,113,40
239.91919,240.05127,84,113,40
240.05127,240.15816,82,113,40
240.18546,240.66797,87,113,40
240.66797,240.78156,75,60,40
240.89873,241.01231,75,60,40
241.1295,241.24309,75,60,40
241.36028,241.47386,75,60,40
241.59105,241.70462,75,60,40
241.82181,241.9372,77,60,40
241.9372,242.02914,79,60,40
242.05258,242.16617,80,60,40
242.28336,242.39693,80,60,40
242.51411,242.6277,80,60,40
242.74489,242.86028,82,60,40
242.86028,242.95222,84,60,40
242.97566,243.08923,82,60,40
243.20642,243.32,82,60,40
243.4372,243.55258,82,60,40
243.55258,243.66797,80,60,40
243.66797,243.78334,79,60,40
243.78334,243.87529,77,60,40
243.89873,244.1299,79,60,40
244.1299,244.315,75,60,40
244.36235,244.47739,75,60,40
244.59657,244.71265,75,60,40
244.83304,244.94662,75,60,40
245.06381,245.17738,75,60,40
245.29457,245.40816,75,60,40
245.52534,245.64073,77,60,40
245.64073,245.73268,79,60,40
245.75612,245.86969,80,60,40
245.98688,246.10046,80,60,40
246.21765,246.33124,80,60,40
246.44843,246.5638,82,60,40
246.5638,246.65575,84,60,40
246.67918,246.79277,82,60,40
246.90996,247.02354,82,60,40
247.14073,247.2561,82,60,40
247.2561,247.37149,80,60,40
247.37149,247.48688,79,60,40
247.48688,247.57883,77,60,40
247.60226,248.06746,79,60,40
248.06746,248.18361,87,60,40
248.30434,248.42235,87,60,40
248.54527,248.77605,87,60,40
248.77605,249.0068,86,60,40
249.0068,249.23758,84,60,40
249.23758,249.42148,86,60,40
249.46835,249.69911,87,60,40
249.69911,249.88301,82,60,40
249.92989,250.04347,82,60,40
250.16066,250.27423,82,60,40
250.39142,250.6222,82,60,40
250.6222,250.85297,80,60,40
250.85297,251.08372,79,60,40
251.08372,251.26762,80,60,40
251.3145,251.54567,79,60,40
251.54567,251.73077,82,60,40
251.77812,251.89314,87,60,40
252.01233,252.1284,87,60,40
252.24881,252.47957,87,60,40
252.47957,252.71034,86,60,40
252.71034,252.94112,84,60,40
252.94112,253.125,86,60,40
253.17188,253.40265,87,60,40
253.40265,253.58655,82,60,40
253.63342,253.747,82,60,40
253.86418,253.97777,82,60,40
254.09496,254.32642,82,60,40
254.32642,254.56015,80,60,40
254.56015,254.79703,79,60,40
254.79703,254.98866,80,60,40
255.03796,255.28232,79,60,40
255.52866,255.6508,82,60,40
255.7773,255.9004,82,60,40
256.0274,256.28015,87,60,40
256.53574,256.66434,82,60,40
256.66434,256.7935,80,60,40
256.7935,256.92343,79,60,40
256.92343,257.02704,80,60,40
257.05344,257.31543,79,60,40
257.58072,257.71426,79,60,40
257.71426,257.84863,77,60,40
257.84863,257.98355,75,60,40
257.98355,258.0914,77,60,40
258.11893,258.39633,75,60,40
258.6899,258.84293,65,113,40
258.6899,258.84293,74,113,40
259.00854,259.13443,65,113,40
259.00854,259.13443,74,113,40
259.27167,259.36557,55,113,40
259.27167,260.0474,63,113,40
259.36557,260.0474,75,113,40
260.8753,260.924,63,113,40
0.0,0.11358162,58,60,0
0.230769,0.3443506,58,60,0
0.461538,0.923076,55,79,0
0.461538,0.923076,58,79,0
0.461538,0.923076,63,79,0
0.461538,0.923076,39,79,0
0.461538,0.923076,51,79,0
0.923076,1.0366576,58,60,0
1.153845,1.2674266,58,60,0
1.384614,1.846152,58,79,0
1.384614,1.846152,62,79,0
1.384614,1.846152,65,79,0
1.384614,1.846152,34,79,0
1.384614,1.846152,46,79,0
1.846152,1.9597336,58,60,0
2.076921,2.1905026,58,60,0
2.30769,2.4212716,58,60,0
2.30769,2.4212716,63,60,0
2.30769,2.4212716,67,60,0
2.30769,2.4212716,51,60,0
2.538459,2.6520407,58,60,0
2.538459,2.6520407,63,60,0
2.538459,2.6520407,67,60,0
2.538459,2.6520407,51,60,0
2.769228,2.8828096,60,60,0
2.769228,2.8828096,63,60,0
2.769228,2.8828096,48,60,0
2.769228,2.999997,67,60,0
2.999997,3.090141,60,60,0
2.999997,3.090141,65,60,0
2.999997,3.1135786,44,60,0
2.999997,3.1153815,70,60,0
3.1153815,3.2073286,68,60,0
3.230766,3.4617329,63,60,0
3.230766,3.4617329,67,60,0
3.230766,3.5991566,58,60,0
3.4617329,3.6462321,62,60,0
3.4617329,3.6462321,65,60,0
3.230766,3.6933413,46,60,0
3.6933413,3.8076413,70,60,0
3.9258194,4.0406337,70,60,0
4.159404,4.620942,63,79,0
4.159404,4.620942,67,79,0
4.159404,4.620942,70,79,0
4.159404,4.620942,75,79,0
4.159404,4.620942,43,79,0
4.159404,4.620942,46,79,0
4.159404,4.620942,51,79,0
4.159404,4.620942,55,79,0
4.620942,4.734524,67,60,0
4.851711,4.9652925,67,60,0
5.08248,5.544018,60,79,0
5.08248,5.544018,65,79,0
5.08248,5.544018,68,79,0
5.08248,5.544018,72,79,0
5.08248,5.544018,44,79,0
5.08248,5.544018,48,79,0
5.08248,5.544018,53,79,0
5.08248,5.544018,56,79,0
5.544018,5.6575994,65,60,0
5.774787,5.8883686,65,60,0
6.005556,6.23702,70,60,0
6.23702,6.353552,67,60,0
6.353552,6.446876,63,60,0
6.005556,6.470756,46,60,0
6.005556,6.470756,51,60,0
6.005556,6.470756,55,60,0
6.470756,6.707624,68,60,0
6.707624,6.8275194,65,60,0
6.8275194,6.923907,62,60,0
6.470756,6.9485626,46,60,0
6.470756,6.9485626,53,60,0
6.470756,6.9485626,56,60,0
6.9485626,7.4363666,55,60,0
6.9485626,7.4363666,63,60,0
6.9485626,7.4363666,39,60,0
6.9485626,7.4363666,51,60,0
7.9241705,8.037752,39,60,0
7.9241705,8.039556,55,60,0
8.039556,8.15494,58,60,0
8.15494,8.268521,51,60,0
8.15494,8.270324,63,60,0
8.270324,8.385709,58,60,0
8.385709,8.501093,55,60,0
8.501093,8.616478,58,60,0
8.616478,8.73006,51,60,0
8.616478,8.731862,55,60,0
8.731862,8.847246,58,60,0
8.847246,8.960828,50,60,0
8.847246,8.962631,56,60,0
8.962631,9.078015,58,60,0
9.078015,9.191597,48,60,0
9.078015,9.1934,56,60,0
9.1934,9.3087845,58,60,0
9.3087845,9.422366,46,60,0
9.3087845,9.42417,56,60,0
9.42417,9.539554,58,60,0
9.539554,9.653135,44,60,0
9.539554,9.654938,62,60,0
9.654938,9.770323,58,60,0
9.770323,9.883904,43,60,0
9.770323,9.885707,63,60,0
9.885707,10.001092,58,60,0
10.001092,10.114674,41,60,0
10.001092,10.116476,63,60,0
10.116476,10.23186,58,60,0
10.23186,10.345442,39,60,0
10.23186,10.347245,63,60,0
10.347245,10.462629,58,60,0
10.462629,10.576211,44,60,0
10.462629,10.578014,65,60,0
10.578014,10.693398,60,60,0
10.693398,10.808816,63,60,0
10.808816,10.924365,58,60,0
10.693398,10.924365,46,60,0
10.924365,11.040075,62,60,0
10.924365,11.108865,34,60,0
11.040075,11.155973,58,60,0
11.155973,11.270274,46,60,0
11.155973,11.27209,62,60,0
11.27209,11.388452,58,60,0
11.388452,11.503266,44,60,0
11.388452,11.50509,62,60,0
11.50509,11.622037,58,60,0
11.622037,11.735619,43,79,0
11.622037,11.737421,63,60,0
11.737421,11.852805,58,60,0
11.852805,11.966387,39,60,0
11.852805,11.96819,55,60,0
11.96819,12.083574,58,60,0
12.083574,12.197156,34,60,0
12.083574,12.198959,63,60,0
12.198959,12.314343,58,60,0
12.314343,12.427925,31,60,0
12.314343,12.4297285,63,60,0
12.4297285,12.545113,58,60,0
12.545113,12.658694,32,79,0
12.545113,12.660497,63,60,0
12.660497,12.775882,60,60,0
12.775882,12.889463,36,60,0
12.775882,12.891266,63,60,0
12.891266,13.006651,60,60,0
13.006651,13.120233,41,60,0
13.006651,13.122035,63,60,0
13.122035,13.237419,60,60,0
13.237419,13.351001,44,60,0
13.237419,13.352804,63,60,0
13.352804,13.468188,60,60,0
13.468188,13.58188,34,60,0
13.468188,13.583689,63,60,0
13.583689,13.699653,55,60,0
13.699653,13.814358,46,60,0
13.699653,13.816184,58,60,0
13.816184,13.933389,55,60,0
13.933389,14.049525,34,60,0
13.933389,14.051374,62,60,0
14.051374,14.170257,56,60,0
14.170257,14.288274,46,60,0
14.170257,14.290152,58,60,0
14.290152,14.411195,56,60,0
14.411195,14.898999,55,60,0
14.411195,14.898999,58,60,0
14.411195,14.898999,63,60,0
14.411195,14.898999,39,60,0
14.411195,14.898999,51,60,0
14.898999,15.014383,82,60,0
15.014383,15.106331,80,60,0
15.129768,15.245152,79,60,0
15.245152,15.3371,77,60,0
15.360538,15.475922,75,60,0
15.475922,15.567869,74,60,0
15.591306,15.706691,72,60,0
15.706691,15.798637,70,60,0
15.822075,15.935657,70,60,0
15.822075,15.935657,56,60,0
15.822075,15.935657,58,60,0
15.822075,15.935657,62,60,0
15.822075,15.935657,65,60,0
16.052845,16.166426,70,60,0
16.052845,16.166426,56,60,0
16.052845,16.166426,58,60,0
16.052845,16.166426,62,60,0
16.052845,16.166426,65,60,0
16.283613,16.341305,72,60,0
16.341305,16.398998,70,60,0
16.398998,16.45669,69,60,0
16.45669,16.514381,70,60,0
16.514381,16.698277,75,60,0
16.283613,16.745152,55,60,0
16.283613,16.745152,58,60,0
16.283613,16.745152,63,60,0
16.745152,16.858732,70,60,0
16.97592,17.089502,70,60,0
17.20669,17.437855,70,60,0
17.20669,17.437855,53,60,0
17.20669,17.437855,56,60,0
17.20669,17.437855,58,60,0
17.20669,17.437855,62,60,0
17.437855,17.622963,77,60,0
17.67031,17.904524,70,60,0
17.67031,17.904524,51,60,0
17.67031,17.904524,55,60,0
17.67031,17.904524,58,60,0
17.904524,18.092762,79,60,0
18.140993,18.37909,71,60,0
18.140993,18.37909,50,60,0
18.140993,18.37909,53,60,0
18.140993,18.37909,56,60,0
18.140993,18.37909,59,60,0
18.37909,18.56882,80,60,0
19.30949,19.423073,55,60,0
19.30949,19.423073,59,60,0
19.30949,19.423073,62,60,0
19.30949,19.423073,67,60,0
19.078722,19.54026,41,60,0
19.078722,19.54026,53,60,0
19.54026,19.653841,55,60,0
19.54026,19.653841,59,60,0
19.54026,19.653841,62,60,0
19.54026,19.653841,67,60,0
19.771029,19.884611,55,60,0
19.771029,19.884611,59,60,0
19.771029,19.884611,62,60,0
19.771029,19.884611,67,60,0
20.232567,20.463335,55,60,0
20.232567,20.463335,60,60,0
20.232567,20.463335,67,60,0
20.001799,20.463335,39,60,0
20.001799,20.463335,51,60,0
20.694105,20.924873,55,60,0
20.694105,20.924873,59,60,0
20.694105,20.924873,62,60,0
20.694105,20.924873,67,60,0
20.463335,20.924873,38,60,0
20.463335,20.924873,50,60,0
21.156338,21.390074,55,60,0
21.156338,21.390074,63,60,0
21.156338,21.390074,67,60,0
20.924873,21.390074,36,60,0
20.924873,21.390074,48,60,0
21.626942,21.86788,57,60,0
21.626942,21.86788,63,60,0
21.626942,21.86788,69,60,0
21.390074,21.86788,29,60,0
21.390074,21.86788,41,60,0
21.86788,21.983265,46,43,0
21.983265,22.09865,53,43,0
22.09865,22.21223,77,60,0
22.09865,22.214033,50,43,0
22.214033,22.329418,53,43,0
22.329418,22.444803,46,43,0
22.444803,22.560188,53,43,0
22.560188,22.675571,50,43,0
22.675571,22.790956,53,43,0
22.329418,22.906342,89,79,0
22.790956,22.906342,51,43,0
22.906342,23.021725,87,60,0
22.906342,23.021725,53,43,0
23.021725,23.13711,84,60,0
23.021725,23.13711,45,43,0
23.13711,23.252495,81,60,0
23.13711,23.252495,53,43,0
23.252495,23.36788,77,60,0
23.252495,23.36788,48,43,0
23.36788,23.483263,75,60,0
23.36788,23.483263,53,43,0
23.483263,23.598648,72,60,0
23.483263,23.598648,51,43,0
23.598648,23.690596,69,60,0
23.598648,23.714033,53,43,0
23.714033,23.829416,50,43,0
23.714033,23.942999,70,60,0
23.829416,23.944801,53,43,0
23.944801,24.060186,46,43,0
24.060186,24.175571,53,43,0
24.175571,24.290955,50,43,0
24.290955,24.40634,53,43,0
24.40634,24.521725,46,43,0
24.521725,24.637108,53,43,0
24.637108,24.752525,41,43,0
24.752525,24.868076,53,43,0
24.868076,24.983786,45,43,0
24.983786,25.099684,53,43,0
25.099684,25.2158,48,43,0
25.2158,25.33216,53,43,0
25.33216,25.4488,51,43,0
25.4488,25.565746,53,43,0
25.565746,25.681131,50,43,0
25.681131,25.796515,53,43,0
25.796515,25.910097,77,60,0
25.796515,25.9119,46,43,0
25.9119,26.027285,53,43,0
26.027285,26.14267,50,43,0
26.14267,26.258053,53,43,0
26.258053,26.373438,46,43,0
26.373438,26.488823,53,43,0
26.027285,26.604206,89,79,0
26.488823,26.604206,51,43,0
26.604206,26.719591,87,60,0
26.604206,26.719591,53,43,0
26.719591,26.834976,84,60,0
26.719591,26.834976,45,43,0
26.834976,26.950361,81,60,0
26.834976,26.950361,53,43,0
26.950361,27.065744,77,60,0
26.950361,27.065744,48,43,0
27.065744,27.18113,75,60,0
27.065744,27.18113,53,43,0
27.18113,27.296515,72,60,0
27.18113,27.296515,51,43,0
27.296515,27.38846,69,60,0
27.296515,27.411898,53,43,0
27.411898,27.527283,50,43,0
27.411898,27.640865,70,60,0
27.527283,27.642668,53,43,0
27.642668,27.758053,46,43,0
27.758053,27.873436,53,43,0
27.873436,27.988821,50,43,0
27.988821,28.104206,53,43,0
28.104206,28.21959,46,43,0
28.21959,28.334974,53,43,0
28.334974,28.450474,50,42,0
28.450474,28.566439,53,49,0
28.566439,28.68297,46,56,0
28.68297,28.800175,50,63,0
28.800175,28.916311,70,78,0
28.800175,28.918161,48,70,0
28.918161,29.037043,51,77,0
29.037043,29.15506,70,88,0
29.037043,29.156939,50,84,0
29.156939,29.27798,53,90,0
29.27798,29.393366,51,97,0
29.393366,29.50875,55,97,0
29.50875,29.624134,58,97,0
29.27798,29.73952,75,116,0
29.624134,29.73952,56,97,0
29.73952,29.8531,70,97,0
29.73952,29.854904,55,97,0
29.854904,29.970287,54,97,0
29.970287,30.08387,70,97,0
29.970287,30.085672,55,97,0
30.085672,30.201057,51,97,0
30.201057,30.316442,50,97,0
30.316442,30.431826,51,97,0
30.431826,30.54721,53,97,0
30.201057,30.662596,77,116,0
30.54721,30.662596,51,97,0
30.662596,30.776176,70,97,0
30.662596,30.777979,50,97,0
30.777979,30.893364,48,97,0
30.893364,31.006947,70,97,0
30.893364,31.008749,46,97,0
31.008749,31.124132,44,97,0
31.124132,31.237715,79,97,0
31.124132,31.239517,43,97,0
31.239517,31.354902,41,97,0
31.354902,31.468483,79,97,0
31.354902,31.470287,39,97,0
31.470287,31.58567,38,97,0
31.58567,31.701056,36,97,0
31.58567,31.81644,79,97,0
31.701056,31.81644,35,97,0
31.81644,31.931824,82,97,0
31.81644,31.931824,36,97,0
31.931824,32.023773,80,97,0
31.931824,32.04721,32,97,0
32.04721,32.16263,34,97,0
32.04721,32.278175,79,97,0
32.16263,32.278175,38,97,0
32.278175,32.393887,41,97,0
32.278175,32.462677,77,97,0
32.393887,32.509785,46,97,0
32.509785,32.624084,82,97,0
32.509785,32.6259,45,97,0
32.6259,32.742264,46,97,0
32.742264,32.85708,82,97,0
32.742264,32.858902,44,97,0
32.858902,32.975845,46,97,0
32.975845,33.091232,43,97,0
33.091232,33.206615,51,97,0
33.206615,33.322002,46,97,0
32.975845,33.437386,87,116,0
33.322002,33.437386,43,97,0
33.437386,33.55097,79,97,0
33.437386,33.55277,39,97,0
33.55277,33.668156,46,97,0
33.668156,33.781734,79,97,0
33.668156,33.78354,43,97,0
33.78354,33.898922,39,97,0
33.898922,34.01431,44,97,0
34.01431,34.129692,51,97,0
34.129692,34.245075,43,97,0
33.898922,34.360462,84,116,0
34.245075,34.360462,51,97,0
34.360462,34.47404,77,97,0
34.360462,34.475845,44,97,0
34.475845,34.59123,51,97,0
34.59123,34.70481,77,97,0
34.59123,34.706615,45,97,0
34.706615,34.822,51,97,0
34.822,34.9375,46,97,0
34.822,35.053463,82,97,0
34.9375,35.053463,51,97,0
35.053463,35.169994,79,97,0
35.053463,35.169994,55,97,0
35.169994,35.263317,75,97,0
35.169994,35.2872,58,97,0
35.2872,35.405186,46,97,0
35.2872,35.524067,80,97,0
35.405186,35.524067,53,97,0
35.524067,35.643963,77,97,0
35.524067,35.643963,56,97,0
35.643963,35.74035,74,97,0
35.643963,35.765007,58,97,0
35.765007,36.13086,75,97,0
35.765007,36.13086,51,97,0
35.765007,36.13086,55,97,0
36.25281,36.372856,55,97,0
36.25281,36.372856,31,97,0
36.25281,36.372856,43,97,0
36.49671,36.616756,55,97,0
36.49671,36.616756,31,97,0
36.49671,36.616756,43,97,0
36.740612,37.72513,56,113,0
36.740612,37.72513,32,113,0
36.740612,37.72513,44,113,0
37.72513,37.924595,55,113,0
37.72513,37.924595,31,113,0
37.72513,37.924595,43,113,0
37.975624,38.09101,71,60,0
38.09101,38.206394,83,60,0
38.206394,38.321777,72,60,0
38.321777,38.437164,84,60,0
38.437164,38.552547,74,60,0
38.552547,38.66793,86,60,0
38.66793,38.783382,75,60,0
38.66793,38.897285,43,60,0
38.66793,38.897285,55,60,0
38.783382,38.899097,87,60,0
38.899097,39.015137,77,60,0
39.015137,39.131554,89,60,0
39.131554,39.24841,75,60,0
39.131554,39.36393,43,60,0
39.131554,39.36393,55,60,0
39.24841,39.365765,87,60,0
39.365765,39.483685,74,60,0
39.483685,39.602238,86,60,0
39.602238,39.71588,48,60,0
39.602238,39.71588,60,60,0
39.602238,39.717686,75,60,0
39.717686,39.8334,87,60,0
39.8334,39.94944,72,60,0
39.94944,40.065857,84,60,0
40.065857,40.180885,55,60,0
40.065857,40.180885,31,60,0
40.065857,40.180885,43,60,0
40.30007,40.416145,55,60,0
40.30007,40.416145,31,60,0
40.30007,40.416145,43,60,0
40.53654,41.497406,57,113,0
40.53654,41.497406,33,113,0
40.53654,41.497406,45,113,0
41.497406,41.692,58,113,0
41.497406,41.692,34,113,0
41.497406,41.692,46,113,0
41.74178,41.857166,69,60,0
41.857166,41.97255,81,60,0
41.97255,42.087936,70,60,0
42.087936,42.20332,82,60,0
42.20332,42.318703,72,60,0
42.318703,42.43409,84,60,0
42.43409,42.549587,74,60,0
42.43409,42.663734,41,60,0
42.43409,42.663734,53,60,0
42.549587,42.665554,86,60,0
42.665554,42.782085,75,60,0
42.782085,42.89929,87,60,0
42.89929,43.017273,74,60,0
42.89929,43.134293,41,60,0
42.89929,43.134293,53,60,0
43.017273,43.136154,86,60,0
43.136154,43.25605,72,60,0
43.25605,43.377094,84,60,0
43.377094,43.490738,46,60,0
43.377094,43.490738,58,60,0
43.377094,43.492546,74,60,0
43.492546,43.60826,86,60,0
43.60826,43.724297,70,60,0
43.724297,43.840714,82,60,0
43.840714,43.95574,57,60,0
43.840714,43.95574,33,60,0
43.840714,43.95574,45,60,0
44.07493,44.191,57,60,0
44.07493,44.191,33,60,0
44.07493,44.191,45,60,0
44.311398,44.772938,58,97,0
44.311398,44.772938,34,97,0
44.311398,44.772938,46,97,0
44.772938,44.88652,59,97,0
44.772938,44.88652,35,97,0
44.772938,44.88652,47,97,0
45.003708,45.117287,59,97,0
45.003708,45.117287,35,97,0
45.003708,45.117287,47,97,0
45.234474,45.696014,60,116,0
45.234474,45.696014,36,116,0
45.234474,45.696014,48,116,0
45.696014,45.809593,61,97,0
45.696014,45.809593,37,97,0
45.696014,45.809593,49,97,0
45.92678,46.040363,61,97,0
45.92678,46.040363,37,97,0
45.92678,46.040363,49,97,0
46.15755,46.271286,62,97,0
46.15755,46.271286,38,97,0
46.15755,46.271286,50,97,0
46.3894,46.504868,62,97,0
46.3894,46.504868,38,97,0
46.3894,46.504868,50,97,0
46.62512,46.742863,64,97,0
46.62512,46.742863,40,97,0
46.62512,46.742863,52,97,0
46.865902,46.9866,64,97,0
46.865902,46.9866,40,97,0
46.865902,46.9866,52,97,0
47.112747,47.632236,65,97,0
47.112747,47.632236,41,97,0
47.112747,47.632236,53,97,0
48.177692,48.293076,53,60,0
48.177692,48.40666,34,60,0
48.177692,48.40666,46,60,0
48.293076,48.40846,62,60,0
48.40846,48.523846,58,60,0
48.523846,48.63923,62,60,0
48.63923,48.754612,53,60,0
48.63923,48.868195,34,60,0
48.63923,48.868195,46,60,0
48.754612,48.87,62,60,0
48.87,48.985382,58,60,0
48.985382,49.100765,62,60,0
49.100765,49.216152,57,60,0
49.100765,49.329735,29,60,0
49.100765,49.329735,41,60,0
49.216152,49.331535,65,60,0
49.331535,49.446922,60,60,0
49.446922,49.562305,65,60,0
49.562305,49.67788,57,60,0
49.562305,49.792282,29,60,0
49.562305,49.792282,41,60,0
49.67788,49.7941,65,60,0
49.7941,49.911205,60,60,0
49.911205,50.029373,65,60,0
50.029373,50.144756,55,60,0
50.029373,50.25834,36,60,0
50.029373,50.25834,48,60,0
50.144756,50.26014,63,60,0
50.26014,50.375526,60,60,0
50.375526,50.49091,63,60,0
50.49091,50.606293,55,60,0
50.49091,50.719875,36,60,0
50.49091,50.719875,48,60,0
50.606293,50.72168,63,60,0
50.72168,50.837063,60,60,0
50.837063,50.95245,63,60,0
50.95245,51.067898,58,60,0
51.067898,51.183613,67,60,0
51.183613,51.299652,62,60,0
51.299652,51.41607,67,60,0
51.41607,51.532925,58,60,0
51.532925,51.650284,67,60,0
51.650284,51.7682,62,60,0
51.7682,51.886753,67,60,0
50.95245,51.886753,31,79,0
50.95245,51.886753,43,79,0
51.886753,52.002136,58,60,0
51.886753,52.11572,39,60,0
51.886753,52.11572,51,60,0
52.002136,52.117523,67,60,0
52.117523,52.232906,63,60,0
52.232906,52.34829,67,60,0
52.34829,52.463676,58,60,0
52.34829,52.577255,39,60,0
52.34829,52.577255,51,60,0
52.463676,52.57906,67,60,0
52.57906,52.694443,63,60,0
52.694443,52.80983,67,60,0
52.80983,52.925213,62,60,0
52.80983,53.038795,34,60,0
52.80983,53.038795,46,60,0
52.925213,53.040596,70,60,0
53.040596,53.155983,65,60,0
53.155983,53.271366,70,60,0
53.271366,53.386944,62,60,0
53.271366,53.501343,34,60,0
53.271366,53.501343,46,60,0
53.386944,53.503162,70,60,0
53.503162,53.620266,65,60,0
53.620266,53.738434,62,60,0
53.738434,53.853935,60,60,0
53.738434,53.968082,33,60,0
53.738434,53.968082,45,60,0
53.853935,53.9699,65,60,0
53.9699,54.08643,63,60,0
54.08643,54.203632,60,60,0
54.203632,54.32162,58,60,0
54.203632,54.43864,34,60,0
54.203632,54.43864,46,60,0
54.32162,54.440502,65,60,0
54.440502,54.5604,62,60,0
54.5604,54.681442,58,60,0
54.681442,54.925343,57,60,0
54.681442,54.925343,29,60,0
54.681442,54.925343,41,60,0
55.169243,55.289444,65,60,0
55.414005,55.53546,65,60,0
55.661663,55.775246,46,60,0
55.892433,56.006016,53,60,0
55.661663,56.007816,74,60,0
56.007816,56.06551,75,60,0
56.06551,56.11058,74,60,0
56.123203,56.236782,70,60,0
56.123203,56.236782,50,60,0
56.35397,56.467552,74,60,0
56.35397,56.467552,46,60,0
56.58474,56.698322,77,60,0
56.58474,56.698322,45,60,0
56.81551,56.92909,77,60,0
56.81551,56.92909,41,60,0
57.046276,57.122066,79,60,0
57.046276,57.160046,45,60,0
57.122066,57.19991,77,60,0
57.19991,57.278072,79,60,0
57.278072,57.354816,77,60,0
57.278072,57.39334,41,60,0
57.354816,57.433846,76,60,0
57.433846,57.496685,77,60,0
57.513344,57.626926,48,60,0
57.744114,57.857697,55,60,0
57.513344,57.859497,75,60,0
57.859497,57.91719,77,60,0
57.91719,57.96226,75,60,0
57.974884,58.088463,72,60,0
57.974884,58.088463,51,60,0
58.20565,58.319233,75,60,0
58.20565,58.319233,48,60,0
58.43642,58.550064,46,60,0
58.667587,58.781807,43,60,0
58.90004,59.015068,46,60,0
59.134254,59.250328,43,60,0
58.43642,59.370724,67,79,0
58.43642,59.370724,70,79,0
58.43642,59.370724,74,79,0
58.43642,59.370724,79,79,0
59.370724,59.484306,51,60,0
59.601494,59.715076,58,60,0
59.370724,59.71688,79,60,0
59.71688,59.77457,81,60,0
59.77457,59.819645,79,60,0
59.832264,59.945847,75,60,0
59.832264,59.945847,55,60,0
60.063034,60.176613,79,60,0
60.063034,60.176613,51,60,0
60.2938,60.407383,82,60,0
60.2938,60.407383,50,60,0
60.52457,60.638153,82,60,0
60.52457,60.638153,46,60,0
60.75534,60.831127,84,60,0
60.75534,60.869106,50,60,0
60.831127,60.908974,82,60,0
60.908974,60.987137,84,60,0
60.987137,61.063877,82,60,0
60.987137,61.102406,46,60,0
61.063877,61.14291,81,60,0
61.14291,61.20575,82,60,0
61.22241,61.336052,87,60,0
61.22241,61.336052,39,60,0
61.45357,61.567795,87,60,0
61.45357,61.567795,51,60,0
61.686028,61.76265,86,60,0
61.686028,61.801056,41,60,0
61.76265,61.841335,84,60,0
61.841335,61.92024,86,60,0
61.92024,61.997562,84,60,0
61.92024,62.036316,53,60,0
61.997562,62.077,82,60,0
62.077,62.14001,84,60,0
62.15671,62.270294,82,60,0
62.38748,62.502865,82,60,0
62.502865,62.618248,86,60,0
62.15671,62.618248,34,60,0
62.15671,62.618248,46,60,0
62.618248,62.733635,77,60,0
62.733635,62.84902,82,60,0
62.84902,62.9644,74,60,0
62.9644,63.07979,77,60,0
63.07979,63.195236,75,60,0
63.195236,63.31095,79,60,0
63.31095,63.42699,72,60,0
63.42699,63.543407,75,60,0
63.543407,63.660263,69,60,0
63.660263,63.777622,72,60,0
63.777622,63.895542,65,60,0
63.895542,64.01409,69,60,0
64.01409,64.12767,70,60,0
64.24486,64.358444,65,60,0
64.47563,64.58921,62,60,0
64.7064,64.81998,58,60,0
64.937164,65.05086,57,60,0
65.16863,65.28334,60,60,0
65.40237,65.5185,65,60,0
65.63924,65.757256,63,60,0
65.88017,65.99376,62,60,0
66.11095,66.226326,58,60,0
66.226326,66.34171,62,60,0
66.34171,66.4571,53,60,0
66.4571,66.57248,58,60,0
66.57248,66.68787,84,60,0
66.57248,66.68787,50,60,0
66.68787,66.80325,82,60,0
66.68787,66.80325,53,60,0
66.80325,66.91863,51,60,0
66.80325,66.985344,81,60,0
66.91863,67.03402,55,60,0
67.03402,67.14941,48,60,0
67.14941,67.264786,51,60,0
67.264786,67.38017,45,60,0
67.38017,67.49556,48,60,0
67.49556,67.61094,89,60,0
67.49556,67.61094,41,60,0
67.61094,67.726326,87,60,0
67.61094,67.726326,45,60,0
67.726326,67.84171,46,60,0
67.726326,67.90842,86,60,0
67.84171,67.95709,50,60,0
67.95709,68.07248,48,60,0
68.07248,68.16443,51,60,0
68.18787,68.303246,45,59,0
68.303246,68.41863,48,63,0
68.41863,68.53402,89,66,0
68.41863,68.53402,41,66,0
68.53402,68.62596,45,69,0
68.53402,68.6494,87,69,0
68.6494,68.7649,46,72,0
68.6494,68.83189,86,72,0
68.7649,68.88087,50,75,0
68.88087,68.9974,48,78,0
68.9974,69.09072,51,82,0
69.1146,69.23259,45,85,0
69.23259,69.35147,48,88,0
69.35147,69.47137,89,91,0
69.35147,69.47137,41,91,0
69.47137,69.56776,45,94,0
69.47137,69.59241,87,94,0
69.59241,69.68959,86,97,0
69.714294,69.83508,89,97,0
69.83508,69.95479,82,97,0
69.95479,70.073425,86,97,0
69.59241,70.073425,46,97,0
70.073425,70.19103,80,97,0
70.19103,70.3076,82,97,0
70.3076,70.42317,77,97,0
70.42317,70.53821,80,97,0
70.53821,70.65222,74,97,0
70.65222,70.76486,77,97,0
70.76486,70.87657,70,97,0
70.87657,70.98735,74,97,0
70.98735,71.09722,68,97,0
71.09722,71.20619,70,97,0
71.20619,71.314285,65,97,0
71.314285,71.4215,68,97,0
71.4215,71.527885,62,97,0
71.527885,71.63427,65,97,0
71.63427,71.74065,58,97,0
71.74065,71.84703,62,97,0
71.84703,71.953415,57,96,0
71.953415,72.0598,58,93,0
72.0598,72.16618,56,90,0
72.16618,72.27256,58,87,0
72.27256,72.37926,55,84,0
72.37926,72.487206,58,81,0
72.487206,72.59671,56,78,0
72.59671,72.70811,58,75,0
72.70811,72.821754,55,72,0
72.821754,72.93806,58,69,0
72.93806,73.057465,53,66,0
73.057465,73.18053,58,63,0
73.18053,73.294106,39,60,0
73.18053,73.295906,55,60,0
73.295906,73.41129,58,60,0
73.41129,73.52487,51,60,0
73.41129,73.52668,63,60,0
73.52668,73.64206,58,60,0
73.64206,73.75745,55,60,0
73.75745,73.87283,58,60,0
73.87283,73.98641,51,60,0
73.87283,73.98821,55,60,0
73.98821,74.1036,58,60,0
74.1036,74.21718,50,60,0
74.1036,74.21899,56,60,0
74.21899,74.334366,58,60,0
74.334366,74.44795,48,60,0
74.334366,74.44975,56,60,0
74.44975,74.56514,58,60,0
74.56514,74.67872,46,60,0
74.56514,74.68053,56,60,0
74.68053,74.795906,58,60,0
74.795906,74.90949,44,60,0
74.795906,74.91129,62,60,0
74.91129,75.02668,58,60,0
75.02668,75.14026,43,60,0
75.02668,75.14206,63,60,0
75.14206,75.25745,58,60,0
75.25745,75.371025,41,60,0
75.25745,75.37283,63,60,0
75.37283,75.48821,58,60,0
75.48821,75.6018,39,60,0
75.48821,75.6036,63,60,0
75.6036,75.71899,58,60,0
75.71899,75.832565,44,60,0
75.71899,75.834366,65,60,0
75.834366,75.94975,60,60,0
75.94975,76.06517,63,60,0
76.06517,76.18072,58,60,0
75.94975,76.18072,46,60,0
76.18072,76.29643,62,60,0
76.18072,76.36522,34,60,0
76.29643,76.41233,58,60,0
76.41233,76.52663,46,60,0
76.41233,76.52844,62,60,0
76.52844,76.644806,58,60,0
76.644806,76.75962,44,60,0
76.644806,76.761444,62,60,0
76.761444,76.87839,58,60,0
76.87839,76.993774,63,60,0
76.993774,77.10916,58,60,0
76.87839,77.10916,43,60,0
77.10916,77.22454,56,60,0
77.22454,77.33993,63,60,0
77.10916,77.33993,41,60,0
77.33993,77.455315,58,60,0
77.455315,77.570694,63,60,0
77.33993,77.570694,43,60,0
77.570694,77.68608,55,60,0
77.68608,77.80147,63,60,0
77.570694,77.80147,39,60,0
77.80147,77.91685,60,60,0
77.91685,78.032234,63,60,0
77.80147,78.032234,44,60,0
78.032234,78.14762,58,60,0
78.14762,78.26301,63,60,0
78.032234,78.26301,46,60,0
78.26301,78.37839,56,60,0
78.37839,78.493774,63,60,0
78.26301,78.493774,48,60,0
78.493774,78.60916,57,60,0
78.493774,78.677666,47,60,0
78.60916,78.72454,63,60,0
78.72454,78.838234,46,60,0
78.72454,78.84004,58,60,0
78.84004,78.95601,63,60,0
78.95601,79.07071,55,60,0
78.95601,79.07254,58,60,0
79.07254,79.18974,63,60,0
79.18974,79.30588,46,60,0
79.18974,79.30773,58,60,0
79.30773,79.42661,62,60,0
79.42661,79.544624,56,60,0
79.42661,79.54651,58,60,0
79.54651,79.66755,62,60,0
79.78956,79.91178,63,60,0
79.91178,80.03428,65,60,0
80.03428,80.1571,67,60,0
79.66755,80.1571,51,60,0
79.66755,80.1571,55,60,0
80.1571,80.28027,68,60,0
80.28027,80.40388,70,60,0
80.40388,80.52794,72,60,0
80.52794,80.65253,74,60,0
80.65253,80.76611,39,60,0
80.8833,80.99688,51,60,0
80.65253,81.11407,75,79,0
81.11407,81.227646,70,60,0
81.34483,81.45842,70,60,0
81.34483,81.45842,51,60,0
81.57561,81.689186,50,60,0
81.80637,81.91995,46,60,0
81.57561,82.03714,77,79,0
82.03714,82.15073,70,60,0
82.267914,82.38149,70,60,0
82.267914,82.38149,50,60,0
82.49868,82.61226,79,60,0
82.49868,82.61226,51,60,0
82.72945,82.84303,79,60,0
82.72945,82.84303,39,60,0
82.96022,83.0738,48,60,0
82.96022,83.19099,79,60,0
83.19099,83.304565,44,60,0
83.19099,83.30637,82,60,0
83.30637,83.398315,80,60,0
83.42175,83.53537,46,60,0
83.42175,83.652725,79,60,0
83.652725,83.766624,34,60,0
83.652725,83.83722,77,60,0
83.88433,83.998634,82,60,0
83.88433,83.998634,46,60,0
84.116806,84.23162,82,60,0
84.116806,84.23162,44,60,0
84.350395,84.463974,43,60,0
84.58116,84.69475,39,60,0
84.350395,84.811935,87,79,0
84.811935,84.925514,79,60,0
84.811935,84.925514,34,60,0
85.0427,85.15628,79,60,0
85.0427,85.15628,31,60,0
85.27347,85.387054,32,60,0
85.50424,85.61782,36,60,0
85.27347,85.73501,84,79,0
85.73501,85.84859,77,60,0
85.73501,85.84859,41,60,0
85.965775,86.07936,77,60,0
85.965775,86.07936,44,60,0
86.19655,86.310234,34,60,0
86.19655,86.42801,82,60,0
86.42801,86.54272,46,60,0
86.42801,86.54454,79,60,0
86.54454,86.63786,75,60,0
86.66174,86.777885,34,60,0
86.66174,86.89861,80,60,0
86.89861,87.01663,46,60,0
86.89861,87.01851,77,60,0
87.01851,87.1149,74,60,0
87.13955,87.62736,75,60,0
87.13955,87.62736,39,60,0
87.13955,87.62736,51,60,0
87.62736,87.747406,70,60,0
87.87126,87.9913,70,60,0
88.11516,88.34593,66,79,0
88.11516,88.34593,78,79,0
88.11516,88.34593,51,79,0
88.11516,88.34593,63,79,0
88.34593,88.52982,68,60,0
88.34593,88.52982,80,60,0
88.34593,88.52982,46,60,0
88.34593,88.52982,58,60,0
88.5767,88.69028,66,60,0
88.5767,88.69028,78,60,0
88.5767,88.69028,51,60,0
88.5767,88.69028,63,60,0
88.807465,88.92105,65,60,0
88.807465,88.92105,77,60,0
88.807465,88.92105,49,60,0
88.807465,88.92105,61,60,0
89.03824,89.269005,63,79,0
89.03824,89.269005,75,79,0
89.03824,89.269005,47,79,0
89.03824,89.269005,59,79,0
89.269005,89.4529,65,60,0
89.269005,89.4529,77,60,0
89.269005,89.4529,42,60,0
89.269005,89.4529,54,60,0
89.49978,89.61336,63,60,0
89.49978,89.61336,75,60,0
89.49978,89.61336,47,60,0
89.49978,89.61336,59,60,0
89.730545,89.844124,61,60,0
89.730545,89.844124,73,60,0
89.730545,89.844124,46,60,0
89.730545,89.844124,58,60,0
89.96131,90.19278,59,79,0
89.96131,90.19278,71,79,0
89.96131,90.19278,44,79,0
89.96131,90.19278,56,79,0
90.19278,90.37881,61,60,0
90.19278,90.37881,73,60,0
90.19278,90.37881,39,60,0
90.19278,90.37881,51,60,0
90.42651,90.54265,59,60,0
90.42651,90.54265,71,60,0
90.42651,90.54265,44,60,0
90.42651,90.54265,56,60,0
90.66338,90.781395,58,60,0
90.66338,90.781395,70,60,0
90.66338,90.781395,42,60,0
90.66338,90.781395,54,60,0
90.90432,91.01797,68,60,0
90.90432,91.01797,41,60,0
90.90432,91.01797,53,60,0
91.13548,91.251526,70,60,0
91.251526,91.36794,71,60,0
91.36794,91.484795,73,60,0
91.484795,91.60215,75,60,0
91.60215,91.72007,77,60,0
91.72007,91.81451,78,60,0
91.83862,92.0694,68,79,0
91.83862,92.0694,80,79,0
91.83862,92.0694,53,79,0
91.83862,92.0694,65,79,0
92.0694,92.25329,70,60,0
92.0694,92.25329,82,60,0
92.0694,92.25329,52,60,0
92.0694,92.25329,64,60,0
92.30016,92.41374,68,60,0
92.30016,92.41374,80,60,0
92.30016,92.41374,53,60,0
92.30016,92.41374,65,60,0
92.53093,92.644516,66,60,0
92.53093,92.644516,78,60,0
92.53093,92.644516,51,60,0
92.53093,92.644516,63,60,0
92.7617,92.99247,65,79,0
92.7617,92.99247,77,79,0
92.7617,92.99247,49,79,0
92.7617,92.99247,61,79,0
92.99247,93.17636,66,60,0
92.99247,93.17636,78,60,0
92.99247,93.17636,48,60,0
92.99247,93.17636,60,60,0
93.223236,93.33682,65,60,0
93.223236,93.33682,77,60,0
93.223236,93.33682,49,60,0
93.223236,93.33682,61,60,0
93.45401,93.56759,63,60,0
93.45401,93.56759,75,60,0
93.45401,93.56759,47,60,0
93.45401,93.56759,59,60,0
93.68478,93.91624,61,79,0
93.68478,93.91624,73,79,0
93.68478,93.91624,46,79,0
93.68478,93.91624,58,79,0
93.91624,94.10227,63,60,0
93.91624,94.10227,75,60,0
93.91624,94.10227,47,60,0
93.91624,94.10227,59,60,0
94.14998,94.26611,61,60,0
94.14998,94.26611,73,60,0
94.14998,94.26611,46,60,0
94.14998,94.26611,58,60,0
94.38684,94.50486,59,60,0
94.38684,94.50486,71,60,0
94.38684,94.50486,44,60,0
94.38684,94.50486,56,60,0
94.627785,94.741425,70,60,0
94.627785,94.741425,42,60,0
94.627785,94.741425,54,60,0
94.85895,94.97498,71,60,0
94.97498,95.0914,73,60,0
95.0914,95.20826,75,60,0
95.20826,95.325615,77,60,0
95.325615,95.443535,78,60,0
95.443535,95.53797,80,60,0
95.56209,95.792854,70,79,0
95.56209,95.792854,82,79,0
95.56209,95.792854,54,79,0
95.56209,95.792854,66,79,0
95.792854,95.97675,71,60,0
95.792854,95.97675,83,60,0
95.792854,95.97675,49,60,0
95.792854,95.97675,61,60,0
96.02363,96.13721,70,60,0
96.02363,96.13721,82,60,0
96.02363,96.13721,54,60,0
96.02363,96.13721,66,60,0
96.254395,96.36797,68,60,0
96.254395,96.36797,80,60,0
96.254395,96.36797,53,60,0
96.254395,96.36797,65,60,0
96.48516,96.715935,66,79,0
96.48516,96.715935,78,79,0
96.48516,96.715935,51,79,0
96.48516,96.715935,63,79,0
96.715935,96.899826,68,60,0
96.715935,96.899826,80,60,0
96.715935,96.899826,46,60,0
96.715935,96.899826,58,60,0
96.9467,97.06028,66,60,0
96.9467,97.06028,78,60,0
96.9467,97.06028,51,60,0
96.9467,97.06028,63,60,0
97.17747,97.29105,65,60,0
97.17747,97.29105,77,60,0
97.17747,97.29105,49,60,0
97.17747,97.29105,61,60,0
97.40824,97.63901,63,79,0
97.40824,97.63901,75,79,0
97.40824,97.63901,47,79,0
97.40824,97.63901,59,79,0
97.63901,97.8229,65,60,0
97.63901,97.8229,77,60,0
97.63901,97.8229,49,60,0
97.63901,97.8229,61,60,0
97.869774,97.98336,63,60,0
97.869774,97.98336,75,60,0
97.869774,97.98336,47,60,0
97.869774,97.98336,59,60,0
98.10055,98.21413,61,60,0
98.10055,98.21413,73,60,0
98.10055,98.21413,46,60,0
98.10055,98.21413,58,60,0
98.331314,98.4449,59,60,0
98.331314,98.4449,71,60,0
98.331314,98.4449,44,60,0
98.331314,98.4449,56,60,0
98.56209,98.67567,61,60,0
98.56209,98.67567,73,60,0
98.56209,98.67567,41,60,0
98.56209,98.67567,53,60,0
98.792854,98.90643,58,60,0
98.792854,98.90643,70,60,0
98.792854,98.90643,42,60,0
98.792854,98.90643,54,60,0
99.02362,99.13721,59,60,0
99.02362,99.13721,71,60,0
99.02362,99.13721,39,60,0
99.02362,99.13721,51,60,0
99.254395,99.36799,56,60,0
99.254395,99.36799,68,60,0
99.254395,99.36799,41,60,0
99.254395,99.36799,53,60,0
99.48553,99.5998,58,60,0
99.48553,99.5998,70,60,0
99.48553,99.5998,37,60,0
99.48553,99.5998,49,60,0
99.71812,99.83324,54,60,0
99.71812,99.83324,66,60,0
99.71812,99.83324,39,60,0
99.71812,99.83324,51,60,0
99.95251,100.068634,56,60,0
99.95251,100.068634,68,60,0
99.95251,100.068634,35,60,0
99.95251,100.068634,47,60,0
100.18876,100.30583,61,60,0
100.18876,100.30583,37,60,0
100.18876,100.30583,49,60,0
100.669495,100.789764,56,60,0
100.669495,100.789764,59,60,0
100.669495,100.789764,61,60,0
100.669495,100.789764,65,60,0
100.669495,100.789764,37,60,0
100.669495,100.789764,49,60,0
101.163765,101.27735,54,43,0
101.163765,101.27735,58,43,0
101.163765,101.27915,66,50,0
101.27915,101.39454,68,50,0
101.39454,101.50812,54,43,0
101.39454,101.50812,58,43,0
101.39454,101.50992,70,50,0
101.50992,101.625305,71,50,0
101.625305,101.738884,54,43,0
101.625305,101.738884,58,43,0
101.625305,101.74069,73,50,0
101.74069,101.85607,75,50,0
101.85607,101.96966,54,43,0
101.85607,101.96966,58,43,0
101.85607,101.97146,77,50,0
101.97146,102.086845,78,50,0
102.086845,102.200424,56,43,0
102.086845,102.200424,59,43,0
102.086845,102.202225,77,50,0
102.202225,102.31761,78,50,0
102.31761,102.43119,56,43,0
102.31761,102.43119,59,43,0
102.31761,102.433,80,50,0
102.433,102.54838,82,50,0
102.54838,102.661964,56,43,0
102.54838,102.661964,59,43,0
102.54838,102.663765,83,50,0
102.663765,102.77915,84,50,0
102.77915,102.89273,56,43,0
102.77915,102.89273,59,43,0
102.77915,102.89453,85,50,0
102.89453,103.00992,84,50,0
103.00992,103.1235,58,43,0
103.00992,103.1235,61,43,0
103.00992,103.125305,85,50,0
103.125305,103.240685,84,50,0
103.240685,103.35427,58,43,0
103.240685,103.35427,61,43,0
103.240685,103.35607,87,50,0
103.35607,103.47146,85,50,0
103.47146,103.58504,58,43,0
103.47146,103.58504,61,43,0
103.47146,103.58684,83,50,0
103.58684,103.702225,82,50,0
103.702225,103.81581,58,43,0
103.702225,103.81581,61,43,0
103.702225,103.81761,80,50,0
103.81761,103.933,78,50,0
103.933,104.04664,56,43,0
103.933,104.04664,59,43,0
103.933,104.04845,77,50,0
104.04845,104.16416,75,50,0
104.16416,104.27838,56,43,0
104.16416,104.27838,59,43,0
104.16416,104.2802,73,50,0
104.2802,104.396614,71,50,0
104.396614,104.51164,56,43,0
104.396614,104.51164,59,43,0
104.396614,104.51347,70,50,0
104.51347,104.63083,68,50,0
104.63083,104.7469,56,43,0
104.63083,104.7469,59,43,0
104.63083,104.74875,66,50,0
104.74875,104.84318,65,50,0
104.8673,104.98088,54,43,0
104.8673,104.98088,58,43,0
104.8673,104.98268,66,50,0
104.98268,105.09807,68,50,0
105.09807,105.21165,54,43,0
105.09807,105.21165,58,43,0
105.09807,105.213455,70,50,0
105.213455,105.328835,71,50,0
105.328835,105.44242,54,43,0
105.328835,105.44242,58,43,0
105.328835,105.44422,73,50,0
105.44422,105.55961,75,50,0
105.55961,105.67319,54,43,0
105.55961,105.67319,58,43,0
105.55961,105.67499,77,50,0
105.67499,105.790375,78,50,0
105.790375,105.90395,53,43,0
105.790375,105.90395,56,43,0
105.790375,105.90576,80,50,0
105.90576,106.02114,81,50,0
106.02114,106.13473,53,43,0
106.02114,106.13473,56,43,0
106.02114,106.13653,82,50,0
106.13653,106.251915,81,50,0
106.251915,106.36549,53,43,0
106.251915,106.36549,56,43,0
106.251915,106.3673,82,50,0
106.3673,106.48268,81,50,0
106.48268,106.59627,53,43,0
106.48268,106.59627,56,43,0
106.48268,106.59807,83,50,0
106.59807,106.713455,82,50,0
106.713455,106.827034,51,42,0
106.713455,106.827034,54,42,0
106.713455,106.828835,81,49,0
106.828835,106.94422,82,52,0
106.94422,107.0578,51,49,0
106.94422,107.0578,54,49,0
106.94422,107.05961,83,55,0
107.05961,107.17499,82,58,0
107.17499,107.288574,51,56,0
107.17499,107.288574,54,56,0
107.17499,107.290375,80,61,0
107.290375,107.40576,78,64,0
107.40576,107.51934,51,63,0
107.40576,107.51934,54,63,0
107.40576,107.52114,77,67,0
107.52114,107.63653,75,70,0
107.63653,107.750206,46,70,0
107.63653,107.750206,53,70,0
107.63653,107.750206,56,70,0
107.63653,107.752014,74,73,0
107.752014,107.86789,71,76,0
107.86789,107.98244,46,77,0
107.86789,107.98244,53,77,0
107.86789,107.98244,56,77,0
107.86789,107.98426,70,79,0
107.98426,108.1012,69,82,0
108.1012,108.216965,46,84,0
108.1012,108.216965,53,84,0
108.1012,108.216965,56,84,0
108.1012,108.2188,70,85,0
108.2188,108.33717,68,88,0
108.33717,108.45454,46,90,0
108.33717,108.45454,53,90,0
108.33717,108.45454,56,90,0
108.33717,108.456406,66,91,0
108.456406,108.55213,65,94,0
108.57661,108.80737,63,97,0
108.57661,108.80737,51,97,0
108.80737,108.92096,58,97,0
109.03815,109.151726,51,97,0
109.03815,109.151726,63,97,0
109.26891,109.38249,49,97,0
109.26891,109.38249,61,97,0
109.49968,109.73045,47,97,0
109.49968,109.73045,59,97,0
109.73045,109.914345,42,97,0
109.73045,109.914345,54,97,0
109.96122,110.0748,47,97,0
109.96122,110.0748,59,97,0
110.191986,110.30557,46,97,0
110.191986,110.30557,58,97,0
109.49968,110.65412,66,116,0
109.49968,110.65412,78,116,0
110.42276,110.65412,44,97,0
110.42276,110.65412,56,97,0
110.65412,110.83984,67,97,0
110.65412,110.83984,79,97,0
110.65412,110.83984,39,97,0
110.65412,110.83984,51,97,0
110.88743,111.0032,68,97,0
110.88743,111.0032,80,97,0
110.88743,111.0032,44,97,0
110.88743,111.0032,56,97,0
111.123405,111.24077,70,97,0
111.123405,111.24077,82,97,0
111.123405,111.24077,42,97,0
111.123405,111.24077,54,97,0
111.36284,111.47651,71,97,0
111.36284,111.47651,83,97,0
111.36284,111.47651,41,97,0
111.36284,111.47651,53,97,0
112.30292,112.53368,53,97,0
112.30292,112.53368,65,97,0
112.53368,112.717575,52,97,0
112.53368,112.717575,64,97,0
112.76445,112.87804,53,97,0
112.76445,112.87804,65,97,0
112.995224,113.1088,51,97,0
112.995224,113.1088,63,97,0
113.22599,113.45676,49,97,0
113.22599,113.45676,61,97,0
113.45676,113.640656,48,97,0
113.45676,113.640656,60,97,0
113.68753,113.80111,49,97,0
113.68753,113.80111,61,97,0
113.9183,114.03188,47,97,0
113.9183,114.03188,59,97,0
114.14907,114.26274,46,97,0
114.14907,114.26274,58,97,0
113.22599,114.38043,68,116,0
113.22599,114.38043,80,116,0
114.38043,114.49497,68,97,0
114.38043,114.49497,80,97,0
114.38043,114.49497,47,97,0
114.38043,114.49497,59,97,0
114.61374,114.72951,70,97,0
114.61374,114.72951,82,97,0
114.61374,114.72951,46,97,0
114.61374,114.72951,58,97,0
114.84972,114.96708,71,97,0
114.84972,114.96708,83,97,0
114.84972,114.96708,44,97,0
114.84972,114.96708,56,97,0
115.08915,115.145035,85,97,0
115.08915,115.20282,42,97,0
115.08915,115.20282,54,97,0
115.20463,115.32051,73,97,0
115.32051,115.436874,75,97,0
115.436874,115.55382,77,97,0
115.55382,115.671425,78,97,0
115.671425,115.789795,80,97,0
115.789795,115.90903,82,97,0
115.90903,116.00475,84,97,0
116.02923,116.259995,73,97,0
116.02923,116.259995,85,97,0
116.02923,116.259995,58,97,0
116.02923,116.259995,70,97,0
116.259995,116.443886,75,97,0
116.259995,116.443886,87,97,0
116.259995,116.443886,53,97,0
116.259995,116.443886,65,97,0
116.49076,116.60435,73,97,0
116.49076,116.60435,85,97,0
116.49076,116.60435,58,97,0
116.49076,116.60435,70,97,0
116.721535,116.83511,72,97,0
116.721535,116.83511,84,97,0
116.721535,116.83511,56,97,0
116.721535,116.83511,68,97,0
116.9523,117.18307,70,116,0
116.9523,117.18307,82,116,0
116.9523,117.18307,54,116,0
116.9523,117.18307,66,116,0
117.18307,117.36697,72,97,0
117.18307,117.36697,84,97,0
117.18307,117.36697,56,97,0
117.18307,117.36697,68,97,0
117.41384,117.52742,70,97,0
117.41384,117.52742,82,97,0
117.41384,117.52742,54,97,0
117.41384,117.52742,66,97,0
117.64461,117.75819,68,97,0
117.64461,117.75819,80,97,0
117.64461,117.75819,53,97,0
117.64461,117.75819,65,97,0
117.875374,118.10615,66,116,0
117.875374,118.10615,78,116,0
117.875374,118.10615,51,116,0
117.875374,118.10615,63,116,0
118.10615,118.29004,68,97,0
118.10615,118.29004,80,97,0
118.10615,118.29004,46,97,0
118.10615,118.29004,58,97,0
118.336914,118.45049,66,97,0
118.336914,118.45049,78,97,0
118.336914,118.45049,51,97,0
118.336914,118.45049,63,97,0
118.56768,118.68127,65,97,0
118.56768,118.68127,77,97,0
118.56768,118.68127,49,97,0
118.56768,118.68127,61,97,0
118.798454,118.91203,63,116,0
118.798454,118.91203,75,116,0
118.798454,118.91203,48,116,0
118.798454,118.91203,60,116,0
119.02922,119.1428,65,97,0
119.02922,119.1428,77,97,0
119.02922,119.1428,45,97,0
119.02922,119.1428,57,97,0
119.25999,119.37357,61,97,0
119.25999,119.37357,73,97,0
119.25999,119.37357,46,97,0
119.25999,119.37357,58,97,0
119.49076,119.60434,63,97,0
119.49076,119.60434,75,97,0
119.49076,119.60434,42,97,0
119.49076,119.60434,54,97,0
119.72153,119.83512,60,97,0
119.72153,119.83512,72,97,0
119.72153,119.83512,44,97,0
119.72153,119.83512,56,97,0
119.95266,120.06693,61,97,0
119.95266,120.06693,73,97,0
119.95266,120.06693,41,97,0
119.95266,120.06693,53,97,0
120.18526,120.30037,58,97,0
120.18526,120.30037,70,97,0
120.18526,120.30037,42,97,0
120.18526,120.30037,54,97,0
120.41965,120.535774,60,97,0
120.41965,120.535774,72,97,0
120.41965,120.535774,39,97,0
120.41965,120.535774,51,97,0
120.6559,120.772964,65,97,0
120.6559,120.772964,41,97,0
120.6559,120.772964,53,97,0
121.13663,121.256905,60,97,0
121.13663,121.256905,63,97,0
121.13663,121.256905,69,97,0
121.13663,121.256905,29,97,0
121.13663,121.256905,41,97,0
121.630905,121.744484,34,97,0
121.630905,121.744484,46,97,0
121.630905,121.74629,70,50,0
121.74629,121.86167,72,50,0
121.86167,121.97526,58,43,0
121.86167,121.97526,61,43,0
121.86167,121.97706,73,50,0
121.97706,122.092445,75,50,0
122.092445,122.206024,58,43,0
122.092445,122.206024,61,43,0
122.092445,122.207825,77,50,0
122.207825,122.32321,78,50,0
122.32321,122.43679,58,43,0
122.32321,122.43679,61,43,0
122.32321,122.4386,80,50,0
122.4386,122.55398,82,50,0
122.55398,122.667564,60,43,0
122.55398,122.667564,63,43,0
122.55398,122.669365,81,50,0
122.669365,122.78475,82,50,0
122.78475,122.89833,60,43,0
122.78475,122.89833,63,43,0
122.78475,122.90013,84,50,0
122.90013,123.01552,85,50,0
123.01552,123.1291,60,43,0
123.01552,123.1291,63,43,0
123.01552,123.130905,87,50,0
123.130905,123.246284,88,50,0
123.246284,123.35987,60,43,0
123.246284,123.35987,63,43,0
123.246284,123.36167,89,50,0
123.36167,123.47706,88,50,0
123.47706,123.59064,61,43,0
123.47706,123.59064,65,43,0
123.47706,123.59244,89,50,0
123.59244,123.707825,87,50,0
123.707825,123.8214,61,43,0
123.707825,123.8214,65,43,0
123.707825,123.82321,85,50,0
123.82321,123.93859,84,50,0
123.93859,124.05218,61,43,0
123.93859,124.05218,65,43,0
123.93859,124.05398,82,50,0
124.05398,124.169365,80,50,0
124.169365,124.28294,61,43,0
124.169365,124.28294,65,43,0
124.169365,124.284744,78,50,0
124.284744,124.40013,77,50,0
124.40013,124.51378,53,43,0
124.40013,124.51378,60,43,0
124.40013,124.51378,63,43,0
124.40013,124.51558,75,50,0
124.51558,124.631294,73,50,0
124.631294,124.74552,53,43,0
124.631294,124.74552,60,43,0
124.631294,124.74552,63,43,0
124.631294,124.74734,72,50,0
124.74734,124.863754,70,50,0
124.863754,124.97878,53,43,0
124.863754,124.97878,60,43,0
124.863754,124.97878,63,43,0
124.863754,124.980606,69,50,0
124.980606,125.09797,75,50,0
125.09797,125.21404,53,43,0
125.09797,125.21404,60,43,0
125.09797,125.21404,63,43,0
125.09797,125.21589,72,50,0
125.21589,125.334435,69,50,0
125.334435,125.44802,58,43,0
125.334435,125.44802,61,43,0
125.334435,125.44982,70,50,0
125.44982,125.56521,72,50,0
125.56521,125.67879,58,43,0
125.56521,125.67879,61,43,0
125.56521,125.68059,73,50,0
125.68059,125.795975,75,50,0
125.795975,125.90955,58,43,0
125.795975,125.90955,61,43,0
125.795975,125.91136,77,50,0
125.91136,126.02674,78,50,0
126.02674,126.14033,58,43,0
126.02674,126.14033,61,43,0
126.02674,126.14213,80,50,0
126.14213,126.257515,82,50,0
126.257515,126.37109,60,43,0
126.257515,126.37109,63,43,0
126.257515,126.372894,81,50,0
126.372894,126.48828,82,50,0
126.48828,126.60186,60,43,0
126.48828,126.60186,63,43,0
126.48828,126.60367,84,50,0
126.60367,126.71905,85,50,0
126.71905,126.832634,60,43,0
126.71905,126.832634,63,43,0
126.71905,126.834435,87,50,0
126.834435,126.94982,88,50,0
126.94982,127.0634,60,43,0
126.94982,127.0634,63,43,0
126.94982,127.0652,89,50,0
127.0652,127.18059,88,50,0
127.18059,127.29417,61,43,0
127.18059,127.29417,65,43,0
127.18059,127.295975,89,50,0
127.295975,127.411354,87,52,0
127.411354,127.52494,61,46,0
127.411354,127.52494,65,46,0
127.411354,127.52674,85,53,0
127.52674,127.64213,84,55,0
127.64213,127.75571,61,49,0
127.64213,127.75571,65,49,0
127.64213,127.75751,82,57,0
127.75751,127.872894,81,58,0
127.872894,127.98648,61,52,0
127.872894,127.98648,65,52,0
127.872894,127.98828,82,60,0
127.98828,128.10367,81,61,0
128.10367,128.21736,58,55,0
128.10367,128.21736,62,55,0
128.10367,128.21736,65,55,0
128.10367,128.21916,82,63,0
128.21916,128.33513,81,65,0
128.33513,128.44983,58,59,0
128.33513,128.44983,62,59,0
128.33513,128.44983,65,59,0
128.33513,128.45166,82,66,0
128.45166,128.56886,83,68,0
128.56886,128.685,58,62,0
128.56886,128.685,62,62,0
128.56886,128.685,65,62,0
128.56886,128.68684,82,69,0
128.68684,128.80573,80,71,0
128.80573,128.92375,58,65,0
128.80573,128.92375,62,65,0
128.80573,128.92375,65,65,0
128.80573,128.92563,78,73,0
128.92563,129.02202,77,74,0
129.04668,129.16205,78,60,0
129.16205,129.27744,80,60,0
129.04668,129.27744,51,60,0
129.04668,129.27744,63,60,0
129.27744,129.39282,82,60,0
129.39282,129.50821,80,60,0
129.50821,129.6236,78,60,0
129.6236,129.73898,80,60,0
129.73898,129.85437,78,60,0
129.85437,129.9463,77,60,0
129.96974,130.08513,75,60,0
130.08513,130.20052,77,60,0
130.20052,130.3159,78,60,0
130.3159,130.43129,77,60,0
130.43129,130.54668,75,60,0
130.54668,130.66205,77,60,0
130.66205,130.77744,75,60,0
130.77744,130.86938,73,60,0
130.89282,131.00821,71,60,0
131.00821,131.1236,73,60,0
131.1236,131.23898,75,60,0
131.23898,131.35435,73,60,0
131.35435,131.46974,71,60,0
131.46974,131.58513,73,60,0
131.58513,131.70052,71,60,0
131.70052,131.79247,70,60,0
131.8159,131.93135,68,60,0
131.93135,132.04706,70,60,0
132.04706,132.1631,71,60,0
132.1631,132.27953,72,60,0
132.27953,132.39638,73,60,0
132.39638,132.51373,75,60,0
132.51373,132.63165,77,60,0
132.63165,132.72609,78,60,0
132.7502,132.86559,80,60,0
132.86559,132.98097,82,60,0
132.98097,133.09636,83,60,0
133.09636,133.21175,82,60,0
133.21175,133.32713,80,60,0
133.32713,133.4425,82,60,0
133.4425,133.55789,80,60,0
133.55789,133.64984,78,60,0
133.67328,133.78867,77,60,0
133.78867,133.90405,78,60,0
133.90405,134.01944,80,60,0
134.01944,134.13481,78,60,0
134.13481,134.2502,77,60,0
134.2502,134.36559,78,60,0
134.36559,134.48097,77,60,0
134.48097,134.57292,75,60,0
134.59636,134.71175,73,60,0
134.71175,134.82712,75,60,0
134.82712,134.9425,77,60,0
134.9425,135.05789,75,60,0
135.05789,135.17328,73,60,0
135.17328,135.28867,75,60,0
135.28867,135.40405,73,60,0
135.40405,135.49599,71,60,0
135.51942,135.63493,70,60,0
135.63493,135.7509,71,60,0
135.7509,135.86743,73,60,0
135.86743,135.98463,74,60,0
135.98463,136.10262,75,60,0
136.10262,136.2215,77,60,0
136.2215,136.3414,78,60,0
136.3414,136.43779,80,60,0
136.46243,136.66437,82,113,0
136.46243,136.6932,54,113,0
136.46243,136.6932,66,113,0
136.66437,136.7509,83,113,0
136.7509,136.8086,82,113,0
136.8086,136.86629,81,113,0
136.6932,136.8771,56,113,0
136.6932,136.8771,68,113,0
136.86629,136.91136,82,113,0
136.92398,137.03755,75,113,0
136.92398,137.03755,87,113,0
136.92398,137.03755,54,113,0
136.92398,137.03755,66,113,0
137.15474,137.26833,73,113,0
137.15474,137.26833,85,113,0
137.15474,137.26833,53,113,0
137.15474,137.26833,65,113,0
137.38551,137.61629,71,127,0
137.38551,137.61629,83,127,0
137.38551,137.61629,51,127,0
137.38551,137.61629,63,127,0
137.61629,137.80017,78,113,0
137.61629,137.80017,53,113,0
137.61629,137.80017,65,113,0
137.84705,137.96063,71,113,0
137.84705,137.96063,83,113,0
137.84705,137.96063,51,113,0
137.84705,137.96063,63,113,0
138.07782,138.1914,70,113,0
138.07782,138.1914,82,113,0
138.07782,138.1914,49,113,0
138.07782,138.1914,61,113,0
138.3086,138.53935,68,127,0
138.3086,138.53935,80,127,0
138.3086,138.53935,47,127,0
138.3086,138.53935,59,127,0
138.53935,138.72325,75,113,0
138.53935,138.72325,49,113,0
138.53935,138.72325,61,113,0
138.77013,138.88371,68,113,0
138.77013,138.88371,80,113,0
138.77013,138.88371,47,113,0
138.77013,138.88371,59,113,0
139.0009,139.11449,66,113,0
139.0009,139.11449,78,113,0
139.0009,139.11449,46,113,0
139.0009,139.11449,58,113,0
139.23166,139.46243,65,127,0
139.23166,139.46243,77,127,0
139.23166,139.46243,44,127,0
139.23166,139.46243,56,127,0
139.46243,139.64633,71,113,0
139.46243,139.64633,46,113,0
139.46243,139.64633,58,113,0
139.6932,139.8068,65,113,0
139.6932,139.8068,77,113,0
139.6932,139.8068,44,113,0
139.6932,139.8068,56,113,0
139.92398,140.03755,63,113,0
139.92398,140.03755,75,113,0
139.92398,140.03755,42,113,0
139.92398,140.03755,54,113,0
140.15474,140.26836,62,113,0
140.15474,140.26836,74,113,0
140.15474,140.26836,41,113,0
140.15474,140.26836,53,113,0
140.38617,140.50102,63,113,0
140.38617,140.50102,75,113,0
140.38617,140.50102,42,113,0
140.38617,140.50102,54,113,0
140.62029,140.7367,65,113,0
140.62029,140.7367,77,113,0
140.62029,140.7367,38,113,0
140.62029,140.7367,50,113,0
140.85773,140.97603,66,113,0
140.85773,140.97603,78,113,0
140.85773,140.97603,39,113,0
140.85773,140.97603,51,113,0
141.09866,141.21875,68,113,0
141.09866,141.21875,80,113,0
141.09866,141.21875,32,113,0
141.09866,141.21875,44,113,0
141.59639,141.72275,65,113,0
141.59639,141.72275,68,113,0
141.59639,141.72275,74,113,0
141.59639,141.72275,77,113,0
141.59639,141.72275,34,113,0
141.59639,141.72275,46,113,0
142.12119,142.23657,78,60,0
142.23657,142.35194,80,60,0
142.35194,142.46733,82,60,0
142.46733,142.58272,80,60,0
142.58272,142.6981,78,60,0
142.6981,142.81349,80,60,0
142.81349,142.92888,78,60,0
142.92888,143.02083,77,60,0
143.04427,143.15964,75,60,0
143.15964,143.27502,77,60,0
143.27502,143.39041,78,60,0
143.39041,143.5058,77,60,0
143.5058,143.62119,75,60,0
143.62119,143.73657,77,60,0
143.73657,143.85194,75,60,0
143.85194,143.9439,73,60,0
143.96733,144.08272,71,60,0
144.08272,144.1981,73,60,0
144.1981,144.31349,75,60,0
144.31349,144.42888,73,60,0
144.42888,144.54425,71,60,0
144.54425,144.65964,73,60,0
144.65964,144.77502,71,60,0
144.77502,144.86697,70,60,0
144.89041,145.00586,68,60,0
145.00586,145.12158,70,60,0
145.12158,145.23761,68,60,0
145.23761,145.35403,67,60,0
145.35403,145.47089,68,60,0
145.47089,145.58824,70,60,0
145.58824,145.70616,68,60,0
145.70616,145.8006,67,60,0
145.82472,145.9401,68,60,0
145.9401,146.05547,70,60,0
146.05547,146.1707,68,60,0
146.1707,146.28589,67,60,0
146.28589,146.40096,68,60,0
146.40096,146.51598,70,60,0
145.82472,146.51598,50,60,0
146.51598,146.63089,68,60,0
146.51598,146.69913,51,60,0
146.63089,146.72246,67,60,0
146.7458,146.86072,68,60,0
146.86072,146.97545,70,60,0
146.97545,147.09006,68,60,0
147.09006,147.20456,67,60,0
147.20456,147.31902,68,60,0
147.31902,147.43333,70,60,0
146.7458,147.43333,53,60,0
147.43333,147.54764,68,60,0
145.82472,147.5637,47,60,0
147.43333,147.6155,51,60,0
147.54764,147.63872,67,60,0
147.66194,147.7762,68,60,0
147.7762,147.8902,70,64,0
147.8902,148.00415,68,67,0
148.00415,148.118,67,70,0
148.118,148.23178,68,73,0
148.23178,148.34547,70,76,0
147.66194,148.34547,50,60,0
148.34547,148.45917,68,80,0
148.34547,148.52667,51,80,0
148.45917,148.54977,67,83,0
148.57286,148.68637,68,86,0
148.68637,148.79976,70,83,0
148.79976,148.91304,68,80,0
148.91304,149.02628,67,76,0
149.02628,149.13939,68,73,0
149.13939,149.25247,70,70,0
148.57286,149.25247,53,86,0
149.25247,149.36542,68,67,0
147.66194,149.37953,46,60,0
149.25247,149.43246,51,67,0
149.36542,149.45541,67,64,0
149.47835,149.59117,68,59,0
149.59117,149.70454,69,58,0
149.70454,149.81857,70,57,0
149.81857,149.9333,71,56,0
149.9333,150.04883,72,55,0
150.04883,150.16524,73,54,0
150.16524,150.28261,74,53,0
150.28261,150.4005,75,51,0
150.4005,150.5196,76,50,0
150.5196,150.6404,77,50,0
150.6404,150.76254,78,50,0
150.76254,150.88614,79,50,0
150.88614,151.01129,82,50,0
151.01129,151.13815,80,50,0
151.13815,151.26683,77,50,0
151.26683,151.37094,74,50,0
149.47835,151.3975,34,60,0
149.47835,151.3975,46,60,0
151.3975,151.5111,39,60,0
151.62828,151.74187,51,60,0
151.3975,151.85905,75,60,0
151.85905,152.04294,70,60,0
152.08981,152.2034,70,60,0
152.08981,152.2034,51,60,0
152.32059,152.43417,50,60,0
152.55136,152.66493,46,60,0
152.32059,152.78212,77,60,0
152.78212,152.96602,70,60,0
153.0129,153.12648,70,60,0
153.0129,153.12648,50,60,0
153.24367,153.35724,79,60,0
153.24367,153.35724,51,60,0
153.47443,153.58801,79,60,0
153.47443,153.58801,39,60,0
153.7052,153.81879,48,60,0
153.7052,153.93597,79,60,0
153.93597,154.04956,44,60,0
153.93597,154.05136,82,60,0
154.05136,154.14331,80,60,0
154.16673,154.28035,46,60,0
154.16673,154.3977,79,60,0
154.3977,154.51161,34,60,0
154.3977,154.5822,77,60,0
154.62932,154.74362,82,60,0
154.62932,154.74362,46,60,0
154.8618,154.97661,82,60,0
154.8618,154.97661,44,60,0
155.09538,155.20895,43,60,0
155.32614,155.43973,39,60,0
155.09538,155.55692,87,79,0
155.55692,155.6705,79,60,0
155.55692,155.6705,34,60,0
155.78769,155.90126,79,60,0
155.78769,155.90126,31,60,0
156.01845,156.13203,32,60,0
156.24922,156.36281,36,60,0
156.01845,156.48,84,79,0
156.48,156.59357,77,60,0
156.48,156.59357,41,60,0
156.71075,156.82434,77,60,0
156.71075,156.82434,44,60,0
156.94153,157.05518,34,60,0
156.94153,157.1727,82,60,0
157.1727,157.28691,46,60,0
157.1727,157.28873,79,60,0
157.28873,157.38145,75,60,0
157.40515,157.52017,34,60,0
157.40515,157.63936,80,60,0
157.63936,157.75543,46,60,0
157.63936,157.75728,77,60,0
157.75728,157.85172,74,60,0
157.87584,157.99303,75,60,0
157.87584,157.99303,39,60,0
158.11394,158.35202,53,60,0
158.35202,158.4674,55,60,0
158.4674,158.5828,58,60,0
158.35202,158.5828,51,60,0
158.5828,158.69818,63,60,0
158.5828,158.7667,49,60,0
158.69818,158.79013,67,60,0
158.81357,158.92896,56,60,0
158.92896,159.04433,60,64,0
158.81357,159.04433,48,60,0
159.04433,159.15971,63,67,0
159.15971,159.2751,68,70,0
159.04433,159.2751,44,67,0
159.2751,159.39049,56,73,0
159.39049,159.50587,60,76,0
159.2751,159.50587,39,73,0
159.50587,159.62126,63,80,0
159.62126,159.7132,68,83,0
159.50587,159.73663,36,80,0
159.73663,159.85202,56,86,0
159.85202,159.9674,58,83,0
159.73663,159.9674,37,86,0
159.9674,160.0828,65,80,0
160.0828,160.19818,68,76,0
159.9674,160.19818,41,80,0
160.19818,160.31357,56,73,0
160.31357,160.42894,58,70,0
160.19818,160.42894,46,73,0
160.42894,160.54433,65,67,0
160.54433,160.63628,68,64,0
160.42894,160.65971,49,67,0
160.65971,160.7752,60,60,0
160.7752,160.89117,63,60,0
160.65971,160.89117,39,60,0
160.89117,161.0077,56,60,0
161.0077,161.12491,60,60,0
160.89117,161.12491,51,60,0
161.12491,161.2429,58,60,0
161.2429,161.36179,61,60,0
161.12491,161.36179,39,60,0
161.36179,161.48167,63,60,0
161.48167,161.57806,61,60,0
161.36179,161.60272,51,60,0
161.60272,162.09053,60,60,0
161.60272,162.09053,44,60,0
162.09053,162.20592,87,60,0
162.20592,162.29785,85,60,0
162.32129,162.43668,84,60,0
162.43668,162.52863,82,60,0
162.55206,162.66745,80,60,0
162.66745,162.7594,79,60,0
162.78284,162.89822,77,60,0
162.89822,162.99016,75,60,0
163.0136,163.12718,75,60,0
163.0136,163.12718,61,60,0
163.0136,163.12718,63,60,0
163.0136,163.12718,67,60,0
163.24437,163.35796,75,60,0
163.24437,163.35796,61,60,0
163.24437,163.35796,63,60,0
163.24437,163.35796,67,60,0
163.47514,163.53284,77,60,0
163.53284,163.59053,75,60,0
163.59053,163.64822,74,60,0
163.64822,163.7059,75,60,0
163.7059,163.8898,80,60,0
163.47514,163.93668,60,60,0
163.47514,163.93668,63,60,0
163.47514,163.93668,68,60,0
163.93668,164.05026,75,60,0
164.16745,164.28102,75,60,0
164.39821,164.62938,75,60,0
164.39821,164.62938,58,60,0
164.39821,164.62938,61,60,0
164.39821,164.62938,63,60,0
164.39821,164.62938,67,60,0
164.62938,164.81448,82,60,0
164.86183,165.09605,75,60,0
164.86183,165.09605,56,60,0
164.86183,165.09605,60,60,0
164.86183,165.09605,63,60,0
165.09605,165.28429,84,60,0
165.33252,165.57062,76,60,0
165.33252,165.57062,55,60,0
165.33252,165.57062,58,60,0
165.33252,165.57062,61,60,0
165.33252,165.57062,64,60,0
165.57062,165.76035,85,60,0
166.50102,166.6146,60,60,0
166.50102,166.6146,64,60,0
166.50102,166.6146,67,60,0
166.50102,166.6146,72,60,0
166.27025,166.73178,46,60,0
166.27025,166.73178,58,60,0
166.73178,166.84537,60,60,0
166.73178,166.84537,64,60,0
166.73178,166.84537,67,60,0
166.73178,166.84537,72,60,0
166.96255,167.07614,60,60,0
166.96255,167.07614,64,60,0
166.96255,167.07614,67,60,0
166.96255,167.07614,72,60,0
167.42409,167.53767,60,60,0
167.42409,167.53767,65,60,0
167.42409,167.53767,72,60,0
167.19333,167.65486,44,60,0
167.19333,167.65486,56,60,0
167.65486,167.76845,60,60,0
167.65486,167.76845,65,60,0
167.65486,167.76845,72,60,0
167.88564,167.9992,60,60,0
167.88564,167.9992,65,60,0
167.88564,167.9992,72,60,0
168.34787,168.46257,60,60,0
168.34787,168.46257,64,60,0
168.34787,168.46257,67,60,0
168.34787,168.46257,72,60,0
168.1164,168.5816,43,60,0
168.1164,168.5816,55,60,0
168.81847,168.93648,60,60,0
168.81847,168.93648,65,60,0
168.81847,168.93648,68,60,0
168.81847,168.93648,72,60,0
168.5816,169.0594,41,60,0
168.5816,169.0594,53,60,0
169.0594,169.30331,40,60,0
169.0594,169.30331,52,60,0
169.30331,169.42336,60,60,0
169.30331,169.42336,67,60,0
169.30331,169.42336,70,60,0
169.30331,169.42336,72,60,0
169.54721,169.66725,60,60,0
169.54721,169.66725,36,60,0
169.54721,169.66725,48,60,0
169.7911,169.91116,60,60,0
169.7911,169.91116,36,60,0
169.7911,169.91116,48,60,0
170.03502,171.01953,61,113,0
170.03502,171.01953,37,113,0
170.03502,171.01953,49,113,0
171.01953,171.219,60,113,0
171.01953,171.219,36,113,0
171.01953,171.219,48,113,0
171.27002,171.3854,64,60,0
171.3854,171.5008,76,60,0
171.5008,171.61618,65,60,0
171.61618,171.73157,77,60,0
171.73157,171.84695,67,60,0
171.84695,171.96233,79,60,0
171.96233,172.07779,68,60,0
171.96233,172.19168,48,60,0
171.96233,172.19168,60,60,0
172.07779,172.1935,80,60,0
172.1935,172.30954,70,60,0
172.30954,172.42595,82,60,0
172.42595,172.54282,68,60,0
172.42595,172.65833,48,60,0
172.42595,172.65833,60,60,0
172.54282,172.66017,80,60,0
172.66017,172.77809,67,60,0
172.77809,172.89664,79,60,0
172.89664,173.01028,53,60,0
172.89664,173.01028,65,60,0
172.89664,173.01208,68,60,0
173.01208,173.1278,80,60,0
173.1278,173.24384,65,60,0
173.24384,173.36026,77,60,0
173.36026,173.47528,60,60,0
173.36026,173.47528,36,60,0
173.36026,173.47528,48,60,0
173.59447,173.71054,60,60,0
173.59447,173.71054,36,60,0
173.59447,173.71054,48,60,0
173.83095,174.79181,62,113,0
173.83095,174.79181,38,113,0
173.83095,174.79181,50,113,0
174.79181,174.9864,63,113,0
174.79181,174.9864,39,113,0
174.79181,174.9864,51,113,0
175.03618,175.15157,62,60,0
175.15157,175.26695,74,60,0
175.26695,175.38234,63,60,0
175.38234,175.49773,75,60,0
175.49773,175.6131,65,60,0
175.6131,175.72849,77,60,0
175.72849,175.844,67,60,0
175.72849,175.95813,46,60,0
175.72849,175.95813,58,60,0
175.844,175.95996,79,60,0
175.95996,176.07649,68,60,0
176.07649,176.1937,80,60,0
176.1937,176.31168,67,60,0
176.1937,176.4287,46,60,0
176.1937,176.4287,58,60,0
176.31168,176.43056,79,60,0
176.43056,176.55045,65,60,0
176.55045,176.6715,77,60,0
176.6715,176.78514,51,60,0
176.6715,176.78514,63,60,0
176.6715,176.78694,67,60,0
176.78694,176.90266,79,60,0
176.90266,177.01869,63,60,0
177.01869,177.13512,75,60,0
177.13512,177.25014,62,60,0
177.13512,177.25014,38,60,0
177.13512,177.25014,50,60,0
177.36932,177.4854,62,60,0
177.36932,177.4854,38,60,0
177.36932,177.4854,50,60,0
177.6058,178.06734,63,97,0
177.6058,178.06734,39,97,0
177.6058,178.06734,51,97,0
178.06734,178.18092,64,97,0
178.06734,178.18092,40,97,0
178.06734,178.18092,52,97,0
178.29811,178.41168,64,97,0
178.29811,178.41168,40,97,0
178.29811,178.41168,52,97,0
178.52887,178.99042,65,116,0
178.52887,178.99042,41,116,0
178.52887,178.99042,53,116,0
178.99042,179.10399,66,97,0
178.99042,179.10399,42,97,0
178.99042,179.10399,54,97,0
179.22118,179.33476,66,97,0
179.22118,179.33476,42,97,0
179.22118,179.33476,54,97,0
179.45195,179.56569,67,97,0
179.45195,179.56569,43,97,0
179.45195,179.56569,55,97,0
179.6838,179.79927,67,97,0
179.6838,179.79927,43,97,0
179.6838,179.79927,55,97,0
179.91953,180.03726,69,97,0
179.91953,180.03726,45,97,0
179.91953,180.03726,57,97,0
180.16031,180.281,69,97,0
180.16031,180.281,45,97,0
180.16031,180.281,57,97,0
180.40715,180.92664,70,97,0
180.40715,180.92664,46,97,0
180.40715,180.92664,58,97,0
181.47209,181.58748,58,60,0
181.47209,181.70107,39,60,0
181.47209,181.70107,51,60,0
181.58748,181.70287,67,60,0
181.70287,181.81825,63,60,0
181.81825,181.93362,67,60,0
181.93362,182.04901,58,60,0
181.93362,182.1626,39,60,0
181.93362,182.1626,51,60,0
182.04901,182.1644,67,60,0
182.1644,182.27979,63,60,0
182.27979,182.39517,67,60,0
182.39517,182.51056,62,60,0
182.39517,182.62413,34,60,0
182.39517,182.62413,46,60,0
182.51056,182.62593,70,60,0
182.62593,182.74132,65,60,0
182.74132,182.8567,70,60,0
182.8567,182.97215,62,60,0
182.8567,183.08606,34,60,0
182.8567,183.08606,46,60,0
182.97215,183.08788,70,60,0
183.08788,183.2039,65,60,0
183.2039,183.32028,70,60,0
183.32028,183.43686,60,60,0
183.32028,183.55238,41,60,0
183.32028,183.55238,53,60,0
183.43686,183.55421,68,60,0
183.55421,183.67213,65,60,0
183.67213,183.7907,68,60,0
183.7907,183.90974,60,60,0
183.7907,184.02693,41,60,0
183.7907,184.02693,53,60,0
183.90974,184.0288,68,60,0
184.0288,184.14783,65,60,0
184.14783,184.26688,68,60,0
184.26688,184.386,63,60,0
184.386,184.5054,72,60,0
184.5054,184.62514,67,60,0
184.62514,184.74529,72,60,0
184.74529,184.8659,63,60,0
184.8659,184.98705,72,60,0
184.98705,185.1088,67,60,0
185.1088,185.23122,72,60,0
184.26688,185.23122,36,79,0
184.26688,185.23122,48,79,0
185.23122,185.3466,63,60,0
185.23122,185.46019,44,60,0
185.23122,185.46019,56,60,0
185.3466,185.46199,72,60,0
185.46199,185.57738,68,60,0
185.57738,185.69276,72,60,0
185.69276,185.80815,63,60,0
185.69276,185.92172,44,60,0
185.69276,185.92172,56,60,0
185.80815,185.92352,72,60,0
185.92352,186.03891,68,60,0
186.03891,186.1543,72,60,0
186.1543,186.26968,67,60,0
186.1543,186.38327,39,60,0
186.1543,186.38327,51,60,0
186.26968,186.38507,75,60,0
186.38507,186.50046,70,60,0
186.50046,186.61583,75,60,0
186.61583,186.7313,67,60,0
186.61583,186.84518,39,60,0
186.61583,186.84518,51,60,0
186.7313,186.847,70,60,0
186.847,186.96304,63,60,0
186.96304,187.0794,67,60,0
187.0794,187.19748,65,60,0
187.0794,187.31418,38,60,0
187.0794,187.31418,50,60,0
187.19748,187.31606,70,60,0
187.31606,187.43521,68,60,0
187.43521,187.55504,65,60,0
187.55504,187.67635,63,60,0
187.55504,187.7972,39,60,0
187.55504,187.7972,51,60,0
187.67635,187.79912,70,60,0
187.79912,187.92297,67,60,0
187.92297,188.04807,63,60,0
188.04807,188.30016,62,60,0
188.04807,188.30016,34,60,0
188.04807,188.30016,46,60,0
188.55226,188.67651,70,60,0
188.80528,188.93086,70,60,0
189.0614,189.17497,51,60,0
189.29216,189.40575,58,60,0
189.0614,189.40755,79,60,0
189.40755,189.46524,80,60,0
189.46524,189.51031,79,60,0
189.52293,189.63652,75,60,0
189.52293,189.63652,55,60,0
189.75371,189.86728,79,60,0
189.75371,189.86728,51,60,0
189.98447,190.09805,82,60,0
189.98447,190.09805,50,60,0
190.21524,190.32883,82,60,0
190.21524,190.32883,46,60,0
190.44601,190.5218,84,60,0
190.44601,190.55977,50,60,0
190.5218,190.59964,82,60,0
190.59964,190.67781,84,60,0
190.67781,190.75455,82,60,0
190.67781,190.79308,46,60,0
190.75455,190.83357,81,60,0
190.83357,190.89642,82,60,0
190.91307,191.02666,53,60,0
191.14384,191.25743,60,60,0
190.91307,191.25923,80,60,0
191.25923,191.31693,82,60,0
191.31693,191.362,80,60,0
191.37462,191.48819,77,60,0
191.37462,191.48819,56,60,0
191.60538,191.71896,80,60,0
191.60538,191.71896,53,60,0
191.83615,191.94992,51,60,0
192.06795,192.18321,48,60,0
192.30322,192.42041,51,60,0
192.54132,192.65851,48,60,0
191.83615,192.7794,72,79,0
191.83615,192.7794,75,79,0
191.83615,192.7794,79,79,0
191.83615,192.7794,84,79,0
192.7794,192.89299,56,60,0
193.01018,193.12376,63,60,0
192.7794,193.12556,84,60,0
193.12556,193.18326,86,60,0
193.18326,193.22833,84,60,0
193.24095,193.35452,80,60,0
193.24095,193.35452,60,60,0
193.47171,193.5853,84,60,0
193.47171,193.5853,56,60,0
193.70248,193.81607,87,60,0
193.70248,193.81607,55,60,0
193.93326,194.04683,87,60,0
193.93326,194.04683,51,60,0
194.16402,194.2398,89,60,0
194.16402,194.27779,55,60,0
194.2398,194.31766,87,60,0
194.31766,194.39581,89,60,0
194.39581,194.47256,87,60,0
194.39581,194.5111,51,60,0
194.47256,194.55159,86,60,0
194.55159,194.61443,87,60,0
194.63109,194.74474,89,60,0
194.63109,194.74474,44,60,0
194.86226,194.97647,89,60,0
194.86226,194.97647,56,60,0
195.09471,195.17134,87,60,0
195.09471,195.20973,46,60,0
195.17134,195.25002,86,60,0
195.25002,195.32892,87,60,0
195.32892,195.40625,86,60,0
195.32892,195.44499,58,60,0
195.40625,195.48569,84,60,0
195.48569,195.54869,86,60,0
195.5654,195.68259,87,60,0
195.80348,195.92253,82,60,0
195.92253,196.04158,87,60,0
195.5654,196.04158,39,60,0
195.5654,196.04158,51,60,0
196.04158,196.16063,79,60,0
196.16063,196.27968,82,60,0
196.27968,196.39873,75,60,0
196.39873,196.51778,79,60,0
196.51778,196.63689,80,60,0
196.63689,196.75629,84,60,0
196.75629,196.87604,77,60,0
196.87604,196.99619,80,60,0
196.99619,197.11679,74,60,0
197.11679,197.23795,77,60,0
197.23795,197.3597,70,60,0
197.3597,197.48212,74,60,0
197.48212,197.5957,75,60,0
197.71289,197.82646,70,60,0
197.94365,198.05724,67,60,0
198.17442,198.28801,63,60,0
198.4052,198.51888,62,60,0
198.63666,198.75136,65,60,0
198.87039,198.98653,70,60,0
199.10725,199.22528,68,60,0
199.34819,199.46178,67,60,0
199.57896,199.69435,63,60,0
199.69435,199.80974,67,60,0
199.80974,199.92513,58,60,0
199.92513,200.0405,63,60,0
200.0405,200.15588,77,60,0
200.0405,200.15588,55,60,0
200.15588,200.27127,75,60,0
200.15588,200.27127,58,60,0
200.27127,200.38666,56,60,0
200.27127,200.45337,74,60,0
200.38666,200.50204,60,60,0
200.50204,200.61743,53,60,0
200.61743,200.73282,56,60,0
200.73282,200.84819,50,60,0
200.84819,200.96358,53,60,0
200.96358,201.07896,82,60,0
200.96358,201.07896,46,60,0
201.07896,201.19435,80,60,0
201.07896,201.19435,50,60,0
201.19435,201.30974,51,60,0
201.19435,201.37643,79,60,0
201.30974,201.42513,55,60,0
201.42513,201.5405,46,60,0
201.5405,201.65588,51,60,0
201.65588,201.77127,43,59,0
201.77127,201.88666,46,63,0
201.88666,202.00204,77,66,0
201.88666,202.00204,39,66,0
202.00204,202.11743,75,69,0
202.00204,202.11743,43,69,0
202.11743,202.23293,44,72,0
202.11743,202.29991,74,72,0
202.23293,202.34889,48,75,0
202.34889,202.46542,41,78,0
202.46542,202.58263,44,82,0
202.58263,202.7006,38,85,0
202.7006,202.81949,41,88,0
202.81949,202.93939,82,91,0
202.81949,202.93939,34,91,0
202.93939,203.06042,80,94,0
202.93939,203.06042,38,94,0
203.06042,203.15237,79,97,0
203.17581,203.2912,82,97,0
203.2912,203.40659,79,97,0
203.40659,203.52197,75,97,0
203.06042,203.52197,39,97,0
203.52197,203.63736,73,97,0
203.63736,203.75273,70,97,0
203.75273,203.86632,39,97,0
203.75273,203.86812,67,97,0
203.86812,203.9835,63,97,0
203.9835,204.09889,61,97,0
204.09889,204.21428,63,97,0
204.21428,204.32967,58,97,0
204.32967,204.44505,63,97,0
204.44505,204.56042,51,97,0
204.56042,204.67581,63,97,0
203.9835,204.67581,31,116,0
203.9835,204.67581,43,116,0
204.67581,204.7894,31,97,0
204.67581,204.7894,43,97,0
204.67581,204.7912,61,97,0
204.7912,204.90659,63,97,0
204.90659,205.02197,51,97,0
205.02197,205.13736,63,97,0
205.13736,205.25273,60,97,0
205.25273,205.36812,63,97,0
205.36812,205.4835,51,97,0
205.4835,205.59889,63,97,0
204.90659,205.59889,32,116,0
204.90659,205.59889,44,116,0
205.59889,205.71248,32,97,0
205.59889,205.71248,44,97,0
205.59889,205.71428,60,97,0
205.71428,205.82967,63,97,0
205.82967,205.9451,52,97,0
205.9451,206.06073,64,97,0
206.06073,206.1766,58,97,0
206.1766,206.29276,64,97,0
206.29276,206.40924,52,97,0
206.40924,206.5261,64,97,0
205.82967,206.5261,31,116,0
205.82967,206.5261,43,116,0
206.5261,206.64154,31,60,0
206.5261,206.64154,43,60,0
206.5261,206.64337,58,60,0
206.64337,206.76112,64,60,0
206.76112,206.8747,29,60,0
206.76112,206.8747,41,60,0
206.76112,206.8765,53,60,0
206.8765,206.99188,65,60,0
206.99188,207.10547,41,60,0
206.99188,207.10547,53,60,0
206.99188,207.10727,56,60,0
207.10727,207.22266,65,60,0
207.22266,207.33804,55,60,0
207.33804,207.45343,67,60,0
207.45343,207.567,39,60,0
207.45343,207.567,51,60,0
207.45343,207.5688,60,59,0
207.5688,207.68419,67,58,0
207.68419,207.79974,56,57,0
207.79974,207.91595,68,56,0
207.91595,208.03116,38,60,0
207.91595,208.03116,50,60,0
207.91595,208.03299,65,55,0
208.03299,208.15099,68,55,0
208.15099,208.27013,57,54,0
208.27013,208.39058,69,53,0
208.39058,208.5106,36,60,0
208.39058,208.5106,48,60,0
208.39058,208.51251,63,52,0
208.51251,208.63615,69,51,0
208.63615,208.75154,58,50,0
208.75154,208.86693,70,50,0
208.86693,208.98232,62,50,0
208.98232,209.0977,70,50,0
208.63615,209.0977,34,60,0
208.63615,209.0977,46,60,0
209.0977,209.21307,60,50,0
209.21307,209.32846,72,50,0
209.32846,209.44385,63,50,0
209.44385,209.55923,72,50,0
209.55923,209.67484,61,50,0
209.67484,209.7913,73,50,0
209.7913,209.90883,64,50,0
209.90883,210.02765,73,50,0
210.02765,210.14796,62,50,0
210.14796,210.27,74,50,0
210.27,210.39406,65,50,0
210.39406,210.52042,74,50,0
210.52042,210.98196,75,69,0
210.98196,211.0721,67,60,0
211.21272,211.32631,67,60,0
211.4435,211.90503,72,60,0
211.90503,211.99518,65,60,0
212.1358,212.24939,65,60,0
212.36658,212.48015,70,60,0
212.59734,212.71092,70,60,0
212.82811,212.9435,70,60,0
212.9435,213.05888,72,60,0
213.05888,213.17427,70,60,0
213.17427,213.2662,68,60,0
213.28964,213.4051,67,60,0
213.4051,213.52081,68,60,0
213.52081,213.63686,67,60,0
213.63686,213.75327,65,60,0
213.75327,213.87013,63,60,0
213.87013,213.98749,67,60,0
213.98749,214.10541,65,60,0
214.10541,214.19983,63,60,0
214.22395,214.33934,62,60,0
214.33934,214.45473,63,60,0
214.45473,214.57011,62,60,0
214.45473,214.57011,46,60,0
214.57011,214.66205,60,60,0
214.57011,214.68549,48,60,0
214.68549,214.77563,50,60,0
214.68549,214.80087,58,60,0
214.80087,214.91626,65,60,0
214.91626,215.03165,62,60,0
215.03165,215.14703,65,60,0
215.14703,215.26242,58,60,0
215.26242,215.37779,67,60,0
215.37779,215.49318,60,60,0
215.37779,215.49318,39,60,0
215.49318,215.60857,67,60,0
215.49318,215.60857,41,60,0
215.60857,215.69872,43,60,0
215.60857,215.72395,58,60,0
215.72395,215.83934,64,60,0
215.83934,215.95473,60,60,0
215.95473,216.0701,64,60,0
216.0701,216.18549,57,60,0
216.18549,216.30087,65,60,0
216.30087,216.41626,60,59,0
216.30087,216.41626,41,59,0
216.41626,216.53165,65,63,0
216.41626,216.53165,43,63,0
216.53165,216.6218,45,67,0
216.53165,216.64703,60,67,0
216.64703,216.76242,65,71,0
216.76242,216.87779,63,75,0
216.76242,216.87779,43,75,0
216.87779,216.99318,65,78,0
216.87779,216.99318,45,78,0
216.99318,217.08339,46,82,0
216.99318,217.10869,58,82,0
217.10869,217.22464,65,86,0
217.22464,217.34117,62,90,0
217.22464,217.34117,46,90,0
217.34117,217.45839,65,94,0
217.34117,217.45839,48,94,0
217.45839,217.55048,50,97,0
217.45839,217.57637,56,97,0
217.57637,217.69525,65,101,0
217.69525,217.81514,58,105,0
217.69525,217.81514,48,105,0
217.81514,217.91153,50,109,0
217.81514,217.93619,65,109,0
217.93619,218.16696,55,113,0
217.93619,218.16696,58,113,0
217.93619,218.16696,63,113,0
218.16696,218.28235,79,113,0
218.28235,218.39772,80,113,0
217.93619,218.39772,39,113,0
217.93619,218.39772,51,113,0
218.39772,218.48787,82,113,0
218.39772,218.5113,31,113,0
218.39772,218.5113,43,113,0
218.6285,218.74208,31,113,0
218.6285,218.74208,43,113,0
219.09003,219.20541,80,113,0
219.20541,219.3208,82,113,0
218.85927,219.3208,36,113,0
218.85927,219.3208,48,113,0
219.3208,219.41095,84,113,0
219.3208,219.43439,29,113,0
219.3208,219.43439,41,113,0
219.55157,219.66515,29,113,0
219.55157,219.66515,41,113,0
219.78233,219.89598,34,113,0
219.78233,219.89598,46,113,0
220.0135,220.12773,46,113,0
220.0135,220.12955,74,113,0
220.12955,220.24596,75,113,0
220.24596,220.36282,77,113,0
220.24596,220.36282,46,113,0
220.36282,220.48018,70,113,0
220.36282,220.48018,48,113,0
220.48018,220.5981,72,113,0
220.48018,220.5981,46,113,0
220.5981,220.69252,74,113,0
220.5981,220.69252,44,113,0
220.71664,220.83023,75,113,0
220.71664,220.83203,43,113,0
220.83203,220.94742,42,113,0
220.94742,221.06099,87,113,0
220.94742,221.0628,43,113,0
221.0628,221.15474,39,113,0
221.17818,221.29176,84,113,0
221.17818,221.29356,44,113,0
221.29356,221.40895,46,113,0
221.40895,221.52254,87,113,0
221.40895,221.52434,44,113,0
221.52434,221.61629,43,113,0
221.63972,221.7533,86,113,0
221.63972,221.75511,41,113,0
221.75511,221.87048,40,113,0
221.87048,221.98407,89,113,0
221.87048,221.98587,41,113,0
221.98587,222.07782,38,113,0
222.10126,222.21484,83,113,0
222.10126,222.21664,43,113,0
222.21664,222.33203,44,113,0
222.33203,222.44562,86,113,0
222.33203,222.44742,43,113,0
222.44742,222.53935,41,113,0
222.56279,222.67638,84,113,0
222.56279,222.67818,39,113,0
222.67818,222.79356,38,113,0
222.79356,222.90715,87,113,0
222.79356,222.90895,39,113,0
222.90895,223.0009,36,113,0
223.02434,223.13792,81,113,0
223.25511,223.36868,84,113,0
223.02434,223.48587,41,113,0
223.02434,223.48587,53,113,0
223.48587,223.59946,82,113,0
223.71664,223.83023,85,113,0
223.48587,223.94742,34,113,0
223.48587,223.94742,46,113,0
223.94742,224.06099,79,113,0
224.17818,224.29176,82,113,0
223.94742,224.40895,39,113,0
223.94742,224.40895,51,113,0
224.40895,224.52254,80,113,0
224.63972,224.7551,82,113,0
224.7551,224.87048,84,113,0
224.40895,224.87048,32,113,0
224.40895,224.87048,44,113,0
224.87048,224.98407,41,113,0
224.87048,224.98407,53,113,0
224.87048,224.98587,85,113,0
224.98587,225.10126,87,113,0
225.10126,225.21484,44,113,0
225.10126,225.21484,56,113,0
225.10126,225.21664,85,113,0
225.21664,225.3086,84,113,0
225.33203,225.4456,43,113,0
225.33203,225.4456,55,113,0
225.33203,225.4474,82,113,0
225.4474,225.56279,81,113,0
225.56279,225.67638,46,113,0
225.56279,225.67638,58,113,0
225.56279,225.67818,82,113,0
225.67818,225.77013,79,113,0
225.79356,225.90715,40,113,0
225.79356,225.90715,52,113,0
225.79356,225.90895,84,113,0
225.90895,226.02434,85,113,0
226.02434,226.13791,43,113,0
226.02434,226.13791,55,113,0
226.02434,226.13971,84,113,0
226.13971,226.23166,82,113,0
226.2551,226.36868,41,113,0
226.2551,226.36868,53,113,0
226.2551,226.37048,80,113,0
226.37048,226.48587,79,113,0
226.48587,226.59946,44,113,0
226.48587,226.59946,56,113,0
226.48587,226.60126,80,113,0
226.60126,226.6932,77,113,0
226.71664,226.83022,38,113,0
226.71664,226.83022,50,113,0
226.71664,226.83203,82,113,0
226.83203,226.9474,84,113,0
226.9474,227.06099,41,113,0
226.9474,227.06099,53,113,0
226.9474,227.06279,82,113,0
227.06279,227.15474,80,113,0
227.17818,227.29187,39,113,0
227.17818,227.29187,51,113,0
227.17818,227.29367,79,113,0
227.29367,227.40964,77,113,0
227.40964,227.52435,43,113,0
227.40964,227.52435,55,113,0
227.40964,227.52617,75,113,0
227.52617,227.64337,74,113,0
227.64337,227.75952,36,113,0
227.64337,227.75952,48,113,0
227.64337,227.76137,75,113,0
227.76137,227.88025,77,113,0
227.88025,227.99826,39,113,0
227.88025,227.99826,51,113,0
227.88025,228.00014,79,113,0
228.00014,228.09653,81,113,0
228.12119,228.23657,34,97,0
228.23657,228.35196,46,97,0
228.35196,228.46733,34,97,0
228.12119,228.58272,82,113,0
228.46733,228.58272,46,97,0
228.58272,228.6981,34,97,0
228.6981,228.81349,46,97,0
228.81349,228.92888,34,97,0
228.92888,229.04427,46,97,0
229.04427,229.15784,58,113,0
229.04427,229.15784,70,113,0
229.04427,229.15964,34,97,0
229.15964,229.27502,46,97,0
229.27502,229.38861,58,113,0
229.27502,229.38861,70,113,0
229.27502,229.39041,34,97,0
229.39041,229.5058,46,97,0
229.5058,229.62119,34,97,0
229.62119,229.73657,46,97,0
229.73657,229.85196,34,97,0
229.5058,229.96733,63,127,0
229.5058,229.96733,75,127,0
229.85196,229.96733,46,97,0
229.96733,230.08092,56,113,0
229.96733,230.08092,68,113,0
229.96733,230.08272,34,97,0
230.08272,230.1981,46,97,0
230.1981,230.31169,56,113,0
230.1981,230.31169,68,113,0
230.1981,230.31349,34,97,0
230.31349,230.42888,46,97,0
230.42888,230.54427,34,97,0
230.54427,230.65964,46,97,0
230.65964,230.77502,34,97,0
230.42888,230.89041,62,127,0
230.42888,230.89041,74,127,0
230.77502,230.89041,46,97,0
230.89041,231.00418,55,113,0
230.89041,231.00418,67,113,0
230.89041,231.006,34,97,0
231.006,231.12248,46,97,0
231.12248,231.23833,55,113,0
231.12248,231.23833,67,113,0
231.12248,231.24019,34,97,0
231.24019,231.3592,46,97,0
231.3592,231.47974,34,97,0
231.47974,231.60211,46,97,0
231.60211,231.72629,34,97,0
231.3592,231.85245,60,127,0
231.3592,231.85245,72,127,0
231.72629,231.85245,46,97,0
231.85245,231.9786,53,113,0
231.85245,231.9786,65,113,0
231.85245,231.98064,34,97,0
231.98064,232.11241,46,97,0
232.11241,232.24518,53,113,0
232.11241,232.24518,65,113,0
232.11241,232.24731,34,97,0
232.24731,232.3854,46,97,0
232.3854,232.5212,62,113,0
232.3854,232.5212,74,113,0
232.3854,232.52328,34,97,0
232.52328,232.65309,46,97,0
232.65309,232.77515,62,113,0
232.65309,232.77515,74,113,0
232.65309,232.77705,34,97,0
232.77705,232.89713,46,97,0
232.89713,233.01335,63,113,0
232.89713,233.01335,75,113,0
232.89713,233.01518,34,97,0
233.01518,233.13222,46,97,0
233.13222,233.2465,60,113,0
233.13222,233.2465,72,113,0
233.13222,233.2483,34,97,0
233.2483,233.3635,46,97,0
233.3635,233.47607,62,113,0
233.3635,233.47607,74,113,0
233.3635,233.47786,34,97,0
233.47786,233.59142,46,97,0
233.59142,233.70248,59,113,0
233.59142,233.70248,71,113,0
233.59142,233.70425,34,97,0
233.70425,233.8167,46,97,0
233.8167,233.92673,60,113,0
233.8167,233.92673,72,113,0
233.8167,233.92847,34,97,0
233.92847,234.03937,46,97,0
234.03937,234.148,57,113,0
234.03937,234.148,69,113,0
234.03937,234.14972,34,97,0
234.14972,234.25957,46,97,0
234.25957,234.36723,58,113,0
234.25957,234.36723,70,113,0
234.25957,234.36894,34,97,0
234.36894,234.47789,46,97,0
234.47789,234.58476,55,113,0
234.47789,234.58476,67,113,0
234.47789,234.58646,34,97,0
234.58646,234.69466,46,97,0
234.69466,234.80089,56,113,0
234.69466,234.80089,68,113,0
234.69466,234.80258,34,97,0
234.80258,234.91049,46,97,0
234.91049,235.01672,53,113,0
234.91049,235.01672,65,113,0
234.91049,235.0184,34,97,0
235.0184,235.12631,46,97,0
235.12631,235.23254,55,113,0
235.12631,235.23254,67,113,0
235.12631,235.23424,34,97,0
235.23424,235.34215,46,97,0
235.34215,235.44836,52,113,0
235.34215,235.44836,64,113,0
235.34215,235.45006,34,97,0
235.45006,235.55797,46,97,0
235.55797,235.6642,53,113,0
235.55797,235.6642,65,113,0
235.55797,235.66588,34,97,0
235.66588,235.7738,46,97,0
235.7738,235.88002,50,113,0
235.7738,235.88002,62,113,0
235.7738,235.88171,34,97,0
235.88171,235.98962,46,97,0
235.98962,236.09586,51,113,0
235.98962,236.09586,63,113,0
235.98962,236.09753,34,97,0
236.09753,236.20546,46,97,0
236.20546,236.31168,51,113,0
236.20546,236.31168,63,113,0
236.20546,236.31337,34,97,0
236.31337,236.42128,46,97,0
236.42128,236.52922,48,113,0
236.42128,236.52922,45,97,0
236.52922,236.61548,60,113,0
236.52922,236.63751,34,97,0
236.63751,236.74622,51,113,0
236.63751,236.74622,45,97,0
236.74622,236.83313,63,113,0
236.74622,236.85538,34,97,0
236.85538,236.96503,57,113,0
236.85538,236.96503,45,97,0
236.96503,237.0528,69,113,0
236.96503,237.07524,34,97,0
237.07524,237.18605,60,113,0
237.07524,237.18605,45,97,0
237.18605,237.27463,72,113,0
237.18605,237.2972,34,97,0
237.2972,237.40909,63,113,0
237.2972,237.40909,45,97,0
237.40909,237.49902,75,113,0
237.40909,237.52202,34,97,0
237.52202,237.63577,69,113,0
237.52202,237.63577,45,97,0
237.63577,237.72708,81,113,0
237.63577,237.7504,34,97,0
237.7504,237.86597,72,113,0
237.7504,237.86597,45,97,0
237.86597,237.95885,84,113,0
237.86597,237.98254,34,97,0
237.98254,238.10019,75,113,0
237.98254,238.10019,45,97,0
238.10019,238.19485,87,113,0
238.10019,238.21901,34,97,0
238.21901,238.33443,50,113,0
238.21901,238.33443,44,97,0
238.33443,238.42682,62,113,0
238.33443,238.45044,34,97,0
238.45044,238.56712,53,113,0
238.45044,238.56712,44,97,0
238.56712,238.66058,65,113,0
238.56712,238.68456,34,97,0
238.68456,238.80281,58,113,0
238.68456,238.80281,44,97,0
238.80281,238.89767,70,113,0
238.80281,238.922,34,97,0
238.922,239.04218,62,113,0
238.922,239.04218,44,97,0
239.04218,239.1384,74,113,0
239.04218,239.16293,34,97,0
239.16293,239.28494,65,113,0
239.16293,239.28494,44,97,0
239.28494,239.38348,77,113,0
239.28494,239.40872,34,97,0
239.40872,239.53392,70,113,0
239.40872,239.53392,44,97,0
239.53392,239.63484,82,113,0
239.53392,239.66064,34,97,0
239.66064,239.78903,74,113,0
239.66064,239.78903,44,97,0
239.78903,239.8927,86,113,0
239.78903,239.91919,34,97,0
239.91919,240.05127,77,113,0
239.91919,240.05127,44,97,0
240.05127,240.15816,89,113,0
240.05127,240.18546,34,97,0
240.32181,240.4372,87,60,0
240.4372,240.55258,82,60,0
240.55258,240.66797,79,60,0
240.18546,240.66797,39,97,0
240.18546,240.66797,51,97,0
240.66797,240.75812,39,60,0
240.66797,240.78336,75,60,0
240.78336,240.89873,70,60,0
240.89873,241.01231,39,60,0
240.89873,241.01411,67,60,0
241.01411,241.10606,63,60,0
241.1295,241.24489,58,60,0
241.24489,241.36028,67,60,0
241.36028,241.47566,63,60,0
241.47566,241.59105,58,60,0
241.1295,241.59105,49,60,0
241.59105,241.68118,39,60,0
241.59105,241.70642,55,60,0
241.70642,241.82181,67,60,0
241.82181,241.9354,39,60,0
241.82181,241.9372,63,60,0
241.9372,242.02914,58,60,0
242.05258,242.16797,56,60,0
242.16797,242.28336,68,60,0
242.28336,242.39873,63,60,0
242.39873,242.51411,60,60,0
242.05258,242.51411,48,60,0
242.51411,242.60426,39,60,0
242.51411,242.6295,56,60,0
242.6295,242.74489,68,60,0
242.74489,242.85847,39,60,0
242.74489,242.86028,63,60,0
242.86028,242.95222,60,60,0
242.97566,243.09103,56,60,0
243.09103,243.20642,68,60,0
243.20642,243.32181,65,60,0
243.32181,243.4372,58,60,0
242.97566,243.4372,50,60,0
243.4372,243.52734,39,60,0
243.4372,243.55258,56,60,0
243.55258,243.66797,68,60,0
243.66797,243.78154,39,60,0
243.66797,243.78334,65,60,0
243.78334,243.87529,58,60,0
244.01418,244.1299,87,60,0
244.1299,244.24594,82,60,0
244.24594,244.36235,79,60,0
243.89873,244.36235,51,60,0
244.36235,244.4536,39,60,0
244.36235,244.4792,75,60,0
244.4792,244.59657,70,60,0
244.59657,244.71265,39,60,0
244.59657,244.7145,67,60,0
244.7145,244.80891,63,60,0
244.83304,244.94843,58,60,0
244.94843,245.06381,67,60,0
245.06381,245.17918,63,60,0
245.17918,245.29457,58,60,0
244.83304,245.29457,49,60,0
245.29457,245.38472,39,60,0
245.29457,245.40996,55,60,0
245.40996,245.52534,67,60,0
245.52534,245.63893,39,60,0
245.52534,245.64073,63,60,0
245.64073,245.73268,58,60,0
245.75612,245.87149,56,60,0
245.87149,245.98688,68,60,0
245.98688,246.10226,63,60,0
246.10226,246.21765,60,60,0
245.75612,246.21765,48,60,0
246.21765,246.3078,39,60,0
246.21765,246.33304,56,60,0
246.33304,246.44843,68,60,0
246.44843,246.562,39,60,0
246.44843,246.5638,63,60,0
246.5638,246.65575,60,60,0
246.67918,246.79457,56,60,0
246.79457,246.90996,68,60,0
246.90996,247.02534,65,60,0
247.02534,247.14073,58,60,0
246.67918,247.14073,50,60,0
247.14073,247.23087,39,60,0
247.14073,247.2561,56,60,0
247.2561,247.37149,68,60,0
247.37149,247.48508,39,60,0
247.37149,247.48688,65,60,0
247.48688,247.57883,58,60,0
247.60226,247.71776,55,60,0
247.71776,247.83372,63,60,0
247.83372,247.95026,58,60,0
247.95026,248.06746,67,60,0
248.06746,248.18361,39,60,0
248.06746,248.18546,55,60,0
248.18546,248.30434,63,60,0
248.30434,248.42235,39,60,0
248.30434,248.42422,58,60,0
248.42422,248.54527,67,60,0
247.60226,248.54527,51,60,0
248.54527,248.66066,56,60,0
248.66066,248.77605,65,60,0
248.77605,248.89142,62,60,0
248.89142,249.0068,68,60,0
249.0068,249.12039,39,60,0
249.0068,249.1222,65,60,0
249.1222,249.23758,70,60,0
249.23758,249.35117,39,60,0
249.23758,249.35297,68,60,0
249.35297,249.46835,74,60,0
248.54527,249.46835,46,60,0
249.46835,249.58372,67,60,0
249.58372,249.69911,75,60,0
249.69911,249.8145,70,60,0
249.8145,249.92989,79,60,0
249.92989,250.04347,39,60,0
249.92989,250.04527,67,60,0
250.04527,250.16066,75,60,0
250.16066,250.27423,39,60,0
250.16066,250.27603,70,60,0
250.27603,250.39142,79,60,0
249.46835,250.39142,51,60,0
250.39142,250.5068,68,60,0
250.5068,250.6222,77,60,0
250.6222,250.73758,74,60,0
250.73758,250.85297,80,60,0
250.85297,250.96654,39,60,0
250.85297,250.96835,74,60,0
250.96835,251.08372,80,60,0
251.08372,251.19731,39,60,0
251.08372,251.19911,77,60,0
251.19911,251.3145,86,60,0
250.39142,251.3145,46,60,0
251.3145,251.42995,75,60,0
251.42995,251.54567,82,60,0
251.54567,251.6617,79,60,0
251.6617,251.77812,87,60,0
251.77812,251.89314,39,60,0
251.77812,251.89497,70,60,0
251.89497,252.01233,79,60,0
252.01233,252.1284,39,60,0
252.01233,252.13025,75,60,0
252.13025,252.24881,82,60,0
251.3145,252.24881,51,60,0
252.24881,252.36418,68,60,0
252.36418,252.47957,77,60,0
252.47957,252.59496,74,60,0
252.59496,252.71034,80,60,0
252.71034,252.82393,39,60,0
252.71034,252.82573,65,60,0
252.82573,252.94112,74,60,0
252.94112,253.05469,39,60,0
252.94112,253.05649,68,60,0
253.05649,253.17188,77,60,0
252.24881,253.17188,46,60,0
253.17188,253.28726,67,60,0
253.28726,253.40265,75,60,0
253.40265,253.51804,70,60,0
253.51804,253.63342,79,60,0
253.63342,253.747,39,60,0
253.63342,253.74881,67,60,0
253.74881,253.86418,75,60,0
253.86418,253.97777,39,60,0
253.86418,253.97957,70,60,0
253.97957,254.09496,79,60,0
253.17188,254.09496,51,60,0
254.09496,254.21045,68,60,0
254.21045,254.32642,77,60,0
254.32642,254.44295,74,60,0
254.44295,254.56015,80,60,0
254.56015,254.6763,39,60,0
254.56015,254.67815,74,60,0
254.67815,254.79703,80,60,0
254.79703,254.91504,39,60,0
254.79703,254.91692,77,60,0
254.91692,255.03796,86,60,0
254.09496,255.03796,46,60,0
255.03796,255.52866,75,60,0
255.03796,255.52866,87,60,0
255.03796,255.52866,39,60,0
255.03796,255.52866,51,60,0
256.53574,256.66232,70,60,0
256.7935,256.92142,70,60,0
257.05344,257.31543,75,60,0
257.58072,257.7122,58,60,0
257.58072,257.71426,70,60,0
257.71426,257.84863,68,60,0
257.84863,257.9814,58,60,0
257.84863,257.98355,67,60,0
257.98355,258.0914,68,60,0
258.11893,258.39633,67,60,0
258.11893,258.39633,63,60,0
258.6899,258.84293,74,113,0
258.6899,258.84293,77,113,0
258.6899,258.84293,80,113,0
258.6899,258.84293,82,113,0
258.6899,258.84293,86,113,0
258.6899,258.84293,34,113,0
258.6899,258.84293,46,113,0
259.00854,259.17838,74,113,0
259.00854,259.17838,77,113,0
259.00854,259.17838,80,113,0
259.00854,259.17838,82,113,0
259.00854,259.17838,86,113,0
259.00854,259.17838,34,113,0
259.00854,259.17838,46,113,0
259.36557,260.1448,75,113,0
259.36557,260.1448,79,113,0
259.36557,260.1448,82,113,0
259.36557,260.1448,87,113,0
259.36557,260.1448,39,113,0
259.36557,260.1448,51,113,0
