start_time,end_time,note_value,velocity,instrument_program_number
5.538456,5.999994,63,64,60
14.769216,19.384596,46,64,60
19.384596,20.307673,65,64,60
20.307673,20.76921,67,64,60
20.76921,21.230747,63,64,60
21.230747,21.692286,63,64,60
27.230742,27.69228,65,64,60
27.69228,28.153818,63,64,60
28.153818,28.615356,63,64,60
28.615356,29.076895,63,64,60
35.07689,35.538425,63,64,60
36.92304,37.38458,67,64,60
37.846115,38.076885,63,64,60
38.076885,38.307655,63,64,60
38.307655,38.53842,65,64,60
38.53842,38.76919,63,64,60
38.76919,39.23073,63,64,60
39.69227,39.92304,63,64,60
39.92304,40.153805,63,64,60
40.153805,40.384575,65,64,60
40.384575,40.615345,63,64,60
40.615345,40.84611,68,64,60
40.84611,41.07688,68,64,60
41.07688,41.30765,68,64,60
41.30765,41.53842,68,64,60
41.53842,41.769188,68,64,60
41.769188,41.999958,68,64,60
41.999958,42.23073,68,64,60
42.23073,42.461494,68,64,60
42.461494,42.692265,68,64,60
42.692265,42.923035,68,64,60
42.923035,43.153805,68,64,60
43.153805,43.38457,68,64,60
43.38457,43.61534,68,64,60
43.61534,43.84611,68,64,60
43.84611,44.076878,68,64,60
44.076878,44.307648,68,64,60
44.307648,44.538418,67,64,60
44.538418,44.769184,63,64,60
44.769184,44.999954,63,64,60
44.999954,45.230724,63,64,60
45.230724,45.461494,63,64,60
45.461494,45.69226,63,64,60
45.69226,45.92303,63,64,60
45.92303,46.1538,63,64,60
46.1538,46.384567,63,64,60
46.384567,46.615337,63,64,60
46.615337,46.846107,63,64,60
46.846107,47.076878,63,64,60
47.076878,47.307644,63,64,60
47.307644,47.538414,63,64,60
47.538414,47.769184,63,64,60
47.769184,47.99995,63,64,60
48.923027,49.153797,68,64,60
49.153797,49.384567,68,64,60
49.384567,49.615334,68,64,60
49.615334,49.846104,68,64,60
49.846104,50.076874,68,64,60
50.076874,50.307644,68,64,60
50.307644,50.53841,68,64,60
50.53841,50.76918,68,64,60
50.76918,50.99995,68,64,60
50.99995,51.230717,68,64,60
51.230717,51.461487,68,64,60
51.461487,51.692257,68,64,60
51.692257,51.923023,67,64,60
51.923023,52.153793,63,64,60
52.153793,52.384563,63,64,60
52.384563,52.615334,63,64,60
52.615334,52.8461,63,64,60
52.8461,53.07687,63,64,60
53.07687,53.30764,63,64,60
53.30764,53.538406,63,64,60
53.538406,53.769176,63,64,60
53.769176,53.999947,63,64,60
53.999947,54.230717,63,64,60
54.230717,54.461483,63,64,60
54.461483,54.692253,63,64,60
54.692253,54.923023,63,64,60
54.923023,55.15379,63,64,60
55.15379,55.38456,63,64,60
55.38456,55.8461,58,64,60
65.5384,65.99993,68,64,60
65.99993,66.46147,67,64,60
66.46147,67.384544,68,64,60
67.384544,67.846085,65,64,60
67.846085,68.307625,58,64,60
68.307625,68.769165,65,64,60
68.769165,69.2307,63,64,60
74.76916,75.69223,70,64,60
75.69223,76.15377,65,64,60
83.07684,83.30761,65,64,60
83.30761,83.538376,65,64,60
83.538376,83.76915,65,64,60
83.76915,83.999916,65,64,60
83.999916,84.23068,65,64,60
84.23068,84.46146,65,64,60
84.46146,84.69222,65,64,60
84.69222,84.92299,65,64,60
84.92299,85.15376,65,64,60
85.15376,85.38453,65,64,60
85.38453,85.615295,65,64,60
85.615295,85.84607,65,64,60
85.84607,86.076836,65,64,60
86.076836,86.30761,65,64,60
86.30761,86.538376,65,64,60
86.538376,86.76914,65,64,60
86.76914,87.23068,65,64,60
88.615295,89.3076,65,64,60
89.3076,89.53837,65,64,60
89.53837,89.99991,65,64,60
89.99991,90.46145,65,64,60
90.46145,90.92299,70,64,60
92.3076,92.769135,70,64,60
94.153755,95.9999,65,64,60
95.9999,96.46144,67,64,60
97.846054,98.769135,68,64,60
98.769135,99.23067,65,64,60
99.23067,99.69221,62,64,60
99.69221,101.07682,58,64,60
101.07682,101.9999,65,64,60
101.9999,102.92297,65,64,60
102.92297,103.384514,63,64,60
103.384514,104.76913,70,64,60
104.76913,105.23067,65,64,60
105.23067,105.6922,65,64,60
107.07681,107.53835,58,64,60
108.922966,110.76912,65,64,60
110.76912,111.23066,67,64,60
112.61527,113.538345,68,64,60
113.538345,113.999886,65,64,60
113.999886,114.461426,62,64,60
114.461426,114.92296,65,64,60
114.92296,115.84604,58,64,60
115.84604,116.76911,65,64,60
116.76911,117.69219,65,64,60
117.69219,118.153725,67,64,60
118.153725,118.615265,65,64,60
119.538345,119.99988,65,64,60
119.99988,120.23065,58,64,60
120.23065,120.46142,58,64,60
120.46142,120.692184,58,64,60
120.692184,120.92296,58,64,60
120.92296,121.153725,58,64,60
121.153725,121.38449,58,64,60
121.38449,121.615265,58,64,60
121.615265,121.84603,58,64,60
121.84603,122.0768,58,64,60
122.0768,122.30757,58,64,60
122.30757,122.53834,70,64,60
122.53834,122.76911,58,64,60
122.76911,122.99988,58,64,60
122.99988,123.230644,58,64,60
123.230644,123.46142,58,64,60
123.46142,123.692184,58,64,60
123.692184,123.92295,58,64,60
123.92295,124.153725,58,64,60
124.153725,124.38449,70,64,60
124.38449,124.61526,58,64,60
124.61526,124.84603,58,64,60
124.84603,125.0768,58,64,60
125.0768,125.30756,58,64,60
125.30756,125.53834,58,64,60
125.53834,125.769104,58,64,60
125.769104,125.99987,58,64,60
125.99987,126.230644,46,64,60
126.230644,126.46141,70,64,60
126.46141,126.692184,58,64,60
126.692184,126.92295,70,64,60
126.92295,127.15372,58,64,60
127.15372,127.38449,70,64,60
127.38449,127.84602,58,64,60
128.30757,128.7691,65,64,60
129.23064,129.69218,65,64,60
131.0768,132.92294,65,64,60
132.92294,133.38448,63,64,60
142.1537,146.76909,46,64,60
146.76909,147.69215,65,64,60
147.69215,148.1537,67,64,60
148.1537,148.61523,63,64,60
148.61523,149.07677,63,64,60
154.61523,155.07677,65,64,60
155.07677,155.5383,63,64,60
155.5383,155.99985,63,64,60
155.99985,156.46138,63,64,60
162.46138,162.92291,63,64,60
164.30753,164.76907,67,64,60
165.2306,165.46138,63,64,60
165.46138,165.69214,63,64,60
165.69214,165.92291,65,64,60
165.92291,166.15369,63,64,60
166.15369,166.61522,63,64,60
167.07675,167.30753,63,64,60
167.30753,167.5383,63,64,60
167.5383,167.76906,65,64,60
167.76906,167.99983,63,64,60
167.99983,168.2306,68,64,60
168.2306,168.46136,68,64,60
168.46136,168.69214,68,64,60
168.69214,168.92291,68,64,60
168.92291,169.15367,68,64,60
169.15367,169.38445,68,64,60
169.38445,169.61522,68,64,60
169.61522,169.84598,68,64,60
169.84598,170.07675,68,64,60
170.07675,170.30753,68,64,60
170.30753,170.53828,68,64,60
170.53828,170.76906,68,64,60
170.76906,170.99983,68,64,60
170.99983,171.23059,68,64,60
171.23059,171.46136,68,64,60
171.46136,171.69214,68,64,60
171.69214,171.92291,67,64,60
171.92291,172.15367,63,64,60
172.15367,172.38445,63,64,60
172.38445,172.61522,63,64,60
172.61522,172.84598,63,64,60
172.84598,173.07675,63,64,60
173.07675,173.30753,63,64,60
173.30753,173.53828,63,64,60
173.53828,173.76906,63,64,60
173.76906,173.99983,63,64,60
173.99983,174.23059,63,64,60
174.23059,174.46136,63,64,60
174.46136,174.69214,63,64,60
174.69214,174.9229,63,64,60
174.9229,175.15367,63,64,60
175.15367,175.38445,63,64,60
176.30751,176.53828,68,64,60
176.53828,176.76906,68,64,60
176.76906,176.99982,68,64,60
176.99982,177.23059,68,64,60
177.23059,177.46136,68,64,60
177.46136,177.69212,68,64,60
177.69212,177.9229,68,64,60
177.9229,178.15367,68,64,60
178.15367,178.38443,68,64,60
178.38443,178.6152,68,64,60
178.6152,178.84598,68,64,60
178.84598,179.07674,68,64,60
179.07674,179.30751,67,64,60
179.30751,179.53828,63,64,60
179.53828,179.76906,63,64,60
179.76906,179.99982,63,64,60
179.99982,180.23059,63,64,60
180.23059,180.46136,63,64,60
180.46136,180.69212,63,64,60
180.69212,180.9229,63,64,60
180.9229,181.15367,63,64,60
181.15367,181.38443,63,64,60
181.38443,181.6152,63,64,60
181.6152,181.84598,63,64,60
181.84598,182.07674,63,64,60
182.07674,182.30751,63,64,60
182.30751,182.53828,63,64,60
182.53828,182.76904,63,64,60
182.76904,183.23059,58,64,60
192.92288,193.38441,68,64,60
193.38441,193.84596,67,64,60
193.84596,194.76904,68,64,60
194.76904,195.23058,65,64,60
195.23058,195.69211,58,64,60
195.69211,196.15366,65,64,60
196.15366,196.61519,63,64,60
202.15364,203.07672,70,64,60
203.07672,203.53825,65,64,60
210.46133,210.6921,65,64,60
210.6921,210.92287,65,64,60
210.92287,211.15364,65,64,60
211.15364,211.3844,65,64,60
211.3844,211.61517,65,64,60
211.61517,211.84595,65,64,60
211.84595,212.0767,65,64,60
212.0767,212.30748,65,64,60
212.30748,212.53825,65,64,60
212.53825,212.76901,65,64,60
212.76901,212.99979,65,64,60
212.99979,213.23056,65,64,60
213.23056,213.46132,65,64,60
213.46132,213.6921,65,64,60
213.6921,213.92287,65,64,60
213.92287,214.15363,65,64,60
214.15363,214.61517,65,64,60
215.99979,216.6921,65,64,60
216.6921,216.92287,65,64,60
216.92287,217.3844,65,64,60
217.3844,217.84593,65,64,60
217.84593,218.30748,70,64,60
219.6921,220.15363,70,64,60
221.53824,223.3844,65,64,60
223.3844,223.84593,67,64,60
225.23055,226.15363,68,64,60
226.15363,226.61516,65,64,60
226.61516,227.07669,62,64,60
227.07669,228.4613,58,64,60
228.4613,229.38438,65,64,60
229.38438,230.30746,65,64,60
230.30746,230.769,63,64,60
230.769,232.15361,70,64,60
232.15361,232.61516,65,64,60
232.61516,233.07669,65,64,60
234.4613,234.92284,58,64,60
236.30745,238.15361,65,64,60
238.15361,238.61514,67,64,60
239.99976,240.92284,68,64,60
240.92284,241.38437,65,64,60
241.38437,241.84592,62,64,60
241.84592,242.30745,65,64,60
242.30745,243.23053,58,64,60
243.23053,244.1536,65,64,60
244.1536,245.07668,65,64,60
245.07668,245.53822,67,64,60
245.53822,245.99976,65,64,60
246.92284,247.38437,65,64,60
247.38437,247.61514,58,64,60
247.61514,247.8459,58,64,60
247.8459,248.07668,58,64,60
248.07668,248.30745,58,64,60
248.30745,248.53821,58,64,60
248.53821,248.76898,58,64,60
248.76898,248.99976,58,64,60
248.99976,249.23051,58,64,60
249.23051,249.46129,58,64,60
249.46129,249.69206,58,64,60
249.69206,249.92282,70,64,60
249.92282,250.1536,58,64,60
250.1536,250.38437,58,64,60
250.38437,250.61513,58,64,60
250.61513,250.8459,58,64,60
250.8459,251.07668,58,64,60
251.07668,251.30743,58,64,60
251.30743,251.53821,58,64,60
251.53821,251.76898,70,64,60
251.76898,251.99974,58,64,60
251.99974,252.23051,58,64,60
252.23051,252.46129,58,64,60
252.46129,252.69206,58,64,60
252.69206,252.92282,58,64,60
252.92282,253.1536,58,64,60
253.1536,253.38437,58,64,60
253.38437,253.61513,46,64,60
253.61513,253.8459,70,64,60
253.8459,254.07668,58,64,60
254.07668,254.30743,70,64,60
254.30743,254.53821,58,64,60
254.53821,254.76898,70,64,60
254.76898,255.23051,58,64,60
255.69205,256.1536,65,64,60
256.61514,257.07666,65,64,60
260.30743,260.76898,67,64,60
260.76898,261.2305,67,64,60
261.2305,261.69205,67,64,60
261.69205,262.1536,67,64,60
262.1536,263.99973,67,64,60
263.99973,264.46127,67,64,60
264.46127,264.92282,67,64,60
264.92282,265.38434,67,64,60
265.38434,265.8459,67,64,60
265.8459,267.69205,67,64,60
267.69205,268.15356,67,64,60
268.6151,269.07666,67,64,60
278.3074,278.76895,63,64,60
278.76895,279.46127,65,64,60
279.46127,279.69202,67,64,60
279.69202,280.15356,68,64,60
280.15356,280.6151,67,64,60
281.07663,281.53818,65,64,60
281.99973,282.46124,67,64,60
282.46124,282.9228,67,64,60
283.84586,284.3074,63,64,60
284.3074,284.99973,63,64,60
284.99973,285.23047,63,64,60
285.23047,285.69202,65,64,60
285.69202,286.15356,63,64,60
286.6151,287.07663,65,64,60
287.53818,287.99973,63,64,60
287.99973,288.46124,63,64,60
297.23047,297.46124,51,64,60
297.46124,297.69202,63,64,60
297.69202,297.9228,65,64,60
297.9228,298.15353,67,64,60
298.15353,298.3843,51,64,60
298.3843,298.61508,63,64,60
298.61508,298.84586,65,64,60
298.84586,299.07663,67,64,60
299.07663,299.3074,46,64,60
299.3074,299.53815,65,64,60
299.53815,299.76892,67,64,60
299.76892,299.9997,68,64,60
299.9997,300.46124,68,64,60
300.9228,301.15353,46,64,60
301.15353,301.3843,65,64,60
301.3843,301.61508,67,64,60
301.61508,301.84586,68,64,60
301.84586,302.07663,46,64,60
302.07663,302.3074,65,64,60
302.3074,302.53815,67,64,60
302.53815,302.76892,68,64,60
302.76892,302.9997,51,64,60
302.9997,303.23047,67,64,60
303.23047,303.46124,68,64,60
303.46124,303.69202,70,64,60
303.69202,304.15353,70,64,60
306.46124,312.4612,67,64,60
315.692,315.92276,67,64,60
315.92276,316.15353,67,64,60
316.15353,316.3843,67,64,60
316.3843,316.61508,67,64,60
316.61508,316.84583,67,64,60
316.84583,317.0766,67,64,60
317.0766,317.30737,67,64,60
317.30737,317.53815,67,64,60
317.53815,317.9997,67,64,60
326.7689,327.23044,67,64,60
327.23044,327.692,67,64,60
329.0766,329.53815,70,64,60
330.92276,331.38428,63,64,60
331.38428,331.84583,63,64,60
331.84583,332.30737,63,64,60
332.30737,332.7689,65,64,60
332.7689,333.11505,65,64,60
333.11505,333.23044,65,64,60
333.23044,333.692,66,64,60
333.692,334.1535,66,64,60
334.1535,334.61505,65,64,60
337.38428,337.84583,66,64,60
337.84583,338.30734,65,64,60
341.07657,341.53812,66,64,60
341.53812,341.99966,65,64,60
348.46118,348.92273,65,64,60
348.92273,350.7689,66,64,60
350.7689,351.2304,65,64,60
351.2304,351.69196,58,64,60
351.69196,352.1535,58,64,60
352.1535,352.61502,58,64,60
352.61502,353.07657,58,64,60
353.07657,353.53812,58,64,60
353.53812,353.99963,68,64,60
353.99963,354.46118,68,64,60
354.46118,354.92273,68,64,60
354.92273,355.38425,68,64,60
355.38425,355.8458,68,64,60
355.8458,356.30734,68,64,60
356.30734,356.76886,68,64,60
356.76886,357.2304,62,64,60
357.2304,357.69196,62,64,60
357.69196,358.15347,62,64,60
358.15347,358.61502,62,64,60
358.61502,359.07657,62,64,60
359.07657,359.53812,62,64,60
359.53812,359.99963,62,64,60
359.99963,360.46118,62,64,60
360.46118,360.92273,58,64,60
360.92273,361.38425,68,64,60
361.38425,361.8458,68,64,60
361.8458,362.30734,67,64,60
369.2304,369.46118,68,64,60
369.46118,369.69193,68,64,60
369.69193,369.9227,68,64,60
369.9227,370.15347,68,64,60
370.15347,370.38425,68,64,60
370.38425,370.61502,68,64,60
370.61502,370.8458,68,64,60
370.8458,371.07654,68,64,60
371.07654,371.3073,68,64,60
371.3073,371.5381,68,64,60
371.5381,371.76886,68,64,60
371.76886,371.99963,68,64,60
371.99963,372.2304,68,64,60
372.2304,372.46115,68,64,60
372.46115,372.69193,68,64,60
372.69193,372.9227,68,64,60
372.9227,373.15347,67,64,60
373.15347,373.38425,63,64,60
373.38425,373.61502,63,64,60
373.61502,373.8458,63,64,60
373.8458,374.07654,63,64,60
374.07654,374.3073,63,64,60
374.3073,374.5381,63,64,60
374.5381,374.76886,63,64,60
374.76886,374.99963,63,64,60
374.99963,375.2304,63,64,60
375.2304,375.46115,63,64,60
375.46115,375.69193,63,64,60
375.69193,375.9227,63,64,60
375.9227,376.15347,63,64,60
376.15347,376.38425,63,64,60
376.38425,376.61502,63,64,60
377.5381,377.76886,68,64,60
377.76886,377.99963,68,64,60
377.99963,378.23038,68,64,60
378.23038,378.46115,68,64,60
378.46115,378.69193,68,64,60
378.69193,378.9227,68,64,60
378.9227,379.15347,68,64,60
379.15347,379.38425,68,64,60
379.38425,379.615,68,64,60
379.615,379.84576,68,64,60
379.84576,380.07654,68,64,60
380.07654,380.3073,68,64,60
380.3073,380.5381,67,64,60
380.5381,380.76886,63,64,60
380.76886,380.99963,63,64,60
380.99963,381.23038,63,64,60
381.23038,381.46115,63,64,60
381.46115,381.69193,63,64,60
381.69193,381.9227,63,64,60
381.9227,382.15347,63,64,60
382.15347,382.38425,63,64,60
382.38425,382.615,63,64,60
382.615,382.84576,63,64,60
382.84576,383.07654,63,64,60
383.07654,383.3073,63,64,60
383.3073,383.5381,63,64,60
383.5381,383.76886,63,64,60
383.76886,383.9996,63,64,60
383.9996,384.46115,58,64,60
394.15344,394.615,67,64,60
394.615,395.07654,68,64,60
395.07654,395.76883,70,64,60
395.76883,395.9996,70,64,60
395.9996,396.23038,68,64,60
396.23038,396.46115,67,64,60
396.46115,396.69193,65,64,60
396.69193,396.92267,63,64,60
396.92267,397.38422,61,64,60
397.38422,397.84576,60,64,60
398.76883,401.0765,58,64,60
401.53806,403.38422,67,64,60
403.38422,404.30728,63,64,60
404.30728,404.76883,65,64,60
407.53806,407.9996,70,64,60
407.9996,408.23035,70,64,60
408.23035,408.46112,67,64,60
408.46112,408.92267,63,64,60
411.23035,411.6919,58,64,60
411.6919,411.92267,58,64,60
411.92267,412.15344,55,64,60
412.15344,412.38422,51,64,60
412.38422,412.61496,58,64,60
412.61496,412.84573,58,64,60
412.84573,413.0765,58,64,60
413.0765,413.30728,58,64,60
413.30728,413.53806,58,64,60
413.53806,413.76883,58,64,60
413.76883,413.99957,58,64,60
413.99957,414.23035,58,64,60
414.23035,414.46112,58,64,60
414.46112,414.6919,58,64,60
414.6919,414.92267,58,64,60
414.92267,415.15344,58,64,60
415.15344,415.3842,58,64,60
415.3842,415.84573,58,64,60
417.23035,417.92267,65,64,60
417.92267,418.15344,67,64,60
418.15344,418.61496,68,64,60
418.61496,419.0765,70,64,60
419.0765,419.1919,67,64,60
419.30728,419.42267,67,64,60
419.42267,419.53806,63,64,60
419.53806,419.6534,58,64,60
419.6534,419.7688,67,64,60
419.7688,419.8842,63,64,60
419.8842,419.99957,58,64,60
419.99957,420.11496,55,64,60
420.11496,420.23035,63,64,60
420.23035,420.34573,58,64,60
420.34573,420.46112,55,64,60
420.46112,420.5765,51,64,60
420.5765,420.6919,58,64,60
420.6919,420.80728,55,64,60
420.80728,420.92267,51,64,60
420.92267,421.61496,65,64,60
421.61496,421.84573,65,64,60
421.84573,422.30728,65,64,60
422.30728,422.7688,65,64,60
422.7688,422.8842,70,64,60
422.8842,422.99957,70,64,60
422.99957,423.11496,67,64,60
423.11496,423.23035,63,64,60
423.23035,423.34573,70,64,60
423.34573,423.46112,67,64,60
423.46112,423.5765,63,64,60
423.5765,423.6919,58,64,60
423.6919,423.80728,67,64,60
423.80728,423.92264,63,64,60
423.92264,424.03802,58,64,60
424.03802,424.1534,55,64,60
424.1534,424.2688,63,64,60
424.2688,424.3842,58,64,60
424.3842,424.49957,55,64,60
424.49957,424.61496,51,64,60
424.61496,425.30728,58,64,60
425.30728,425.53802,58,64,60
425.53802,425.99957,58,64,60
425.99957,426.46112,58,64,60
426.46112,426.92264,63,64,60
433.3842,433.84573,58,64,60
433.84573,434.07648,63,64,60
434.07648,434.30725,67,64,60
434.30725,434.53802,65,64,60
434.53802,434.7688,63,64,60
434.7688,434.99957,51,64,60
434.99957,435.23035,67,64,60
435.23035,435.4611,65,64,60
435.4611,435.69186,63,64,60
435.69186,435.92264,46,64,60
435.92264,436.1534,68,64,60
436.1534,436.3842,67,64,60
436.3842,436.61496,65,64,60
436.61496,436.8457,63,64,60
436.8457,437.07648,62,64,60
437.07648,437.30725,60,64,60
437.30725,437.53802,58,64,60
437.53802,437.7688,46,64,60
437.7688,437.99957,68,64,60
437.99957,438.23032,67,64,60
438.23032,438.4611,65,64,60
438.4611,438.69186,46,64,60
438.69186,438.92264,68,64,60
438.92264,439.1534,67,64,60
439.1534,439.3842,65,64,60
439.3842,439.61496,51,64,60
439.61496,439.8457,70,64,60
439.8457,440.07648,68,64,60
440.07648,440.30725,67,64,60
440.30725,440.53802,65,64,60
440.53802,440.7688,63,64,60
440.7688,440.99957,62,64,60
440.99957,441.23032,63,64,60
441.23032,443.07648,65,64,60
443.07648,443.53802,67,64,60
444.92264,447.23032,63,64,60
447.23032,448.1534,63,64,60
448.1534,449.07648,58,64,60
449.07648,449.99954,58,64,60
449.99954,450.92264,63,64,60
450.92264,451.8457,65,64,60
451.8457,452.30725,65,64,60
452.30725,458.30722,70,64,60
458.30722,458.76877,70,64,60
458.76877,459.23032,70,64,60
459.23032,459.69183,70,64,60
459.69183,461.538,65,64,60
461.538,461.99954,67,64,60
463.38416,465.69183,67,64,60
465.69183,466.61493,63,64,60
466.61493,467.538,70,64,60
467.538,468.46106,58,64,60
468.46106,469.38416,63,64,60
469.38416,470.30722,65,64,60
470.30722,470.76877,65,64,60
470.76877,471.2303,63,64,60
472.6149,478.15338,39,64,60
478.15338,479.9995,63,64,60
479.9995,481.84567,63,64,60
481.84567,483.69183,68,64,60
483.69183,484.15335,68,64,60
484.6149,485.07645,67,64,60
485.53796,485.9995,68,64,60
487.38412,487.84567,65,64,60
489.2303,489.6918,63,64,60
5.538456,5.999994,55,64,60
19.384596,20.76921,58,64,60
20.76921,21.230747,51,64,60
21.230747,21.692286,51,64,60
27.230742,27.69228,58,64,60
27.69228,28.153818,51,64,60
28.153818,28.615356,51,64,60
28.615356,29.076895,51,64,60
35.07689,35.538425,55,64,60
36.92304,37.38458,63,64,60
38.76919,39.23073,51,64,60
40.615345,40.84611,65,64,60
40.84611,41.07688,65,64,60
41.07688,41.30765,65,64,60
41.30765,41.53842,65,64,60
41.53842,41.769188,65,64,60
41.769188,41.999958,65,64,60
41.999958,42.23073,65,64,60
42.23073,42.461494,65,64,60
42.461494,42.692265,65,64,60
42.692265,42.923035,65,64,60
42.923035,43.153805,65,64,60
43.153805,43.38457,65,64,60
43.38457,43.61534,65,64,60
43.61534,43.84611,65,64,60
43.84611,44.076878,65,64,60
44.076878,44.307648,65,64,60
44.307648,44.538418,63,64,60
44.538418,44.769184,51,64,60
44.769184,44.999954,51,64,60
44.999954,45.230724,51,64,60
45.230724,45.461494,51,64,60
45.461494,45.69226,51,64,60
45.69226,45.92303,51,64,60
45.92303,46.1538,51,64,60
46.1538,46.384567,51,64,60
46.384567,46.615337,51,64,60
46.615337,46.846107,51,64,60
46.846107,47.076878,51,64,60
47.076878,47.307644,51,64,60
47.307644,47.538414,51,64,60
47.538414,47.769184,51,64,60
47.769184,47.99995,51,64,60
48.923027,49.153797,65,64,60
49.153797,49.384567,65,64,60
49.384567,49.615334,65,64,60
49.615334,49.846104,65,64,60
49.846104,50.076874,65,64,60
50.076874,50.307644,65,64,60
50.307644,50.53841,65,64,60
50.53841,50.76918,65,64,60
50.76918,50.99995,65,64,60
50.99995,51.230717,65,64,60
51.230717,51.461487,65,64,60
51.461487,51.692257,65,64,60
51.692257,51.923023,63,64,60
51.923023,52.153793,51,64,60
52.153793,52.384563,51,64,60
52.384563,52.615334,51,64,60
52.615334,52.8461,51,64,60
52.8461,53.07687,51,64,60
53.07687,53.30764,51,64,60
53.30764,53.538406,51,64,60
53.538406,53.769176,51,64,60
53.769176,53.999947,51,64,60
53.999947,54.230717,51,64,60
54.230717,54.461483,51,64,60
54.461483,54.692253,51,64,60
54.692253,54.923023,51,64,60
54.923023,55.15379,51,64,60
55.15379,55.38456,51,64,60
55.38456,55.8461,46,64,60
65.5384,65.99993,65,64,60
65.99993,66.46147,63,64,60
66.46147,67.384544,65,64,60
68.307625,68.769165,51,64,60
74.76916,75.69223,58,64,60
90.46145,90.92299,58,64,60
92.3076,92.769135,58,64,60
95.9999,96.46144,55,64,60
97.846054,98.769135,58,64,60
102.92297,103.384514,58,64,60
103.384514,104.76913,58,64,60
105.23067,105.6922,58,64,60
107.07681,107.53835,46,64,60
110.76912,111.23066,55,64,60
114.461426,114.92296,58,64,60
122.30757,122.53834,58,64,60
124.153725,124.38449,58,64,60
125.53834,125.769104,46,64,60
126.230644,126.46141,58,64,60
126.46141,126.692184,46,64,60
126.692184,126.92295,58,64,60
126.92295,127.15372,46,64,60
127.15372,127.38449,58,64,60
127.38449,127.84602,46,64,60
128.30757,128.7691,46,64,60
129.23064,129.69218,46,64,60
131.0768,132.92294,58,64,60
132.92294,133.38448,55,64,60
146.76909,148.1537,58,64,60
148.1537,148.61523,51,64,60
148.61523,149.07677,51,64,60
154.61523,155.07677,58,64,60
155.07677,155.5383,51,64,60
155.5383,155.99985,51,64,60
155.99985,156.46138,51,64,60
162.46138,162.92291,55,64,60
164.30753,164.76907,63,64,60
166.15369,166.61522,51,64,60
167.99983,168.2306,65,64,60
168.2306,168.46136,65,64,60
168.46136,168.69214,65,64,60
168.69214,168.92291,65,64,60
168.92291,169.15367,65,64,60
169.15367,169.38445,65,64,60
169.38445,169.61522,65,64,60
169.61522,169.84598,65,64,60
169.84598,170.07675,65,64,60
170.07675,170.30753,65,64,60
170.30753,170.53828,65,64,60
170.53828,170.76906,65,64,60
170.76906,170.99983,65,64,60
170.99983,171.23059,65,64,60
171.23059,171.46136,65,64,60
171.46136,171.69214,65,64,60
171.69214,171.92291,63,64,60
171.92291,172.15367,51,64,60
172.15367,172.38445,51,64,60
172.38445,172.61522,51,64,60
172.61522,172.84598,51,64,60
172.84598,173.07675,51,64,60
173.07675,173.30753,51,64,60
173.30753,173.53828,51,64,60
173.53828,173.76906,51,64,60
173.76906,173.99983,51,64,60
173.99983,174.23059,51,64,60
174.23059,174.46136,51,64,60
174.46136,174.69214,51,64,60
174.69214,174.9229,51,64,60
174.9229,175.15367,51,64,60
175.15367,175.38445,51,64,60
176.30751,176.53828,65,64,60
176.53828,176.76906,65,64,60
176.76906,176.99982,65,64,60
176.99982,177.23059,65,64,60
177.23059,177.46136,65,64,60
177.46136,177.69212,65,64,60
177.69212,177.9229,65,64,60
177.9229,178.15367,65,64,60
178.15367,178.38443,65,64,60
178.38443,178.6152,65,64,60
178.6152,178.84598,65,64,60
178.84598,179.07674,65,64,60
179.07674,179.30751,63,64,60
179.30751,179.53828,51,64,60
179.53828,179.76906,51,64,60
179.76906,179.99982,51,64,60
179.99982,180.23059,51,64,60
180.23059,180.46136,51,64,60
180.46136,180.69212,51,64,60
180.69212,180.9229,51,64,60
180.9229,181.15367,51,64,60
181.15367,181.38443,51,64,60
181.38443,181.6152,51,64,60
181.6152,181.84598,51,64,60
181.84598,182.07674,51,64,60
182.07674,182.30751,51,64,60
182.30751,182.53828,51,64,60
182.53828,182.76904,51,64,60
182.76904,183.23059,46,64,60
192.92288,193.38441,65,64,60
193.38441,193.84596,63,64,60
193.84596,194.76904,65,64,60
195.69211,196.15366,51,64,60
202.15364,203.07672,58,64,60
217.84593,218.30748,58,64,60
219.6921,220.15363,58,64,60
223.3844,223.84593,55,64,60
225.23055,226.15363,58,64,60
230.30746,230.769,58,64,60
230.769,232.15361,58,64,60
232.61516,233.07669,58,64,60
234.4613,234.92284,46,64,60
238.15361,238.61514,55,64,60
241.84592,242.30745,58,64,60
249.69206,249.92282,58,64,60
251.53821,251.76898,58,64,60
252.92282,253.1536,46,64,60
253.61513,253.8459,58,64,60
253.8459,254.07668,46,64,60
254.07668,254.30743,58,64,60
254.30743,254.53821,46,64,60
254.53821,254.76898,58,64,60
254.76898,255.23051,46,64,60
255.69205,256.1536,46,64,60
256.61514,257.07666,46,64,60
260.30743,260.76898,55,64,60
260.76898,261.2305,55,64,60
261.2305,261.69205,55,64,60
261.69205,262.1536,55,64,60
262.1536,263.99973,55,64,60
263.99973,264.46127,55,64,60
264.46127,264.92282,55,64,60
264.92282,265.38434,55,64,60
265.38434,265.8459,55,64,60
265.8459,267.69205,55,64,60
267.69205,268.15356,55,64,60
268.6151,269.07666,55,64,60
284.3074,284.99973,61,64,60
306.46124,312.4612,55,64,60
315.692,315.92276,55,64,60
315.92276,316.15353,55,64,60
316.15353,316.3843,55,64,60
316.3843,316.61508,55,64,60
316.61508,316.84583,55,64,60
316.84583,317.0766,55,64,60
317.0766,317.30737,55,64,60
317.30737,317.53815,55,64,60
317.53815,317.9997,55,64,60
326.7689,327.23044,55,64,60
327.23044,327.692,55,64,60
329.0766,329.53815,58,64,60
330.92276,331.38428,51,64,60
331.38428,331.84583,51,64,60
331.84583,332.30737,51,64,60
332.30737,332.7689,51,64,60
332.7689,333.11505,51,64,60
333.11505,333.23044,51,64,60
333.23044,333.692,51,64,60
333.692,334.1535,51,64,60
334.1535,334.61505,46,64,60
337.38428,337.84583,51,64,60
337.84583,338.30734,46,64,60
341.07657,341.53812,63,64,60
341.53812,341.99966,62,64,60
348.46118,348.92273,46,64,60
348.92273,350.7689,46,64,60
350.7689,351.2304,46,64,60
353.53812,353.99963,58,64,60
353.99963,354.46118,58,64,60
354.46118,354.92273,58,64,60
354.92273,355.38425,58,64,60
355.38425,355.8458,58,64,60
355.8458,356.30734,58,64,60
356.30734,356.76886,58,64,60
356.76886,357.2304,58,64,60
357.2304,357.69196,58,64,60
357.69196,358.15347,58,64,60
358.15347,358.61502,58,64,60
358.61502,359.07657,58,64,60
359.07657,359.53812,58,64,60
359.53812,359.99963,58,64,60
359.99963,360.46118,58,64,60
360.46118,360.92273,46,64,60
360.92273,361.38425,58,64,60
361.38425,361.8458,58,64,60
361.8458,362.30734,51,64,60
369.2304,369.46118,65,64,60
369.46118,369.69193,65,64,60
369.69193,369.9227,65,64,60
369.9227,370.15347,65,64,60
370.15347,370.38425,65,64,60
370.38425,370.61502,65,64,60
370.61502,370.8458,65,64,60
370.8458,371.07654,65,64,60
371.07654,371.3073,65,64,60
371.3073,371.5381,65,64,60
371.5381,371.76886,65,64,60
371.76886,371.99963,65,64,60
371.99963,372.2304,65,64,60
372.2304,372.46115,65,64,60
372.46115,372.69193,65,64,60
372.69193,372.9227,65,64,60
372.9227,373.15347,63,64,60
373.15347,373.38425,51,64,60
373.38425,373.61502,51,64,60
373.61502,373.8458,51,64,60
373.8458,374.07654,51,64,60
374.07654,374.3073,51,64,60
374.3073,374.5381,51,64,60
374.5381,374.76886,51,64,60
374.76886,374.99963,51,64,60
374.99963,375.2304,51,64,60
375.2304,375.46115,51,64,60
375.46115,375.69193,51,64,60
375.69193,375.9227,51,64,60
375.9227,376.15347,51,64,60
376.15347,376.38425,51,64,60
376.38425,376.61502,51,64,60
377.5381,377.76886,65,64,60
377.76886,377.99963,65,64,60
377.99963,378.23038,65,64,60
378.23038,378.46115,65,64,60
378.46115,378.69193,65,64,60
378.69193,378.9227,65,64,60
378.9227,379.15347,65,64,60
379.15347,379.38425,65,64,60
379.38425,379.615,65,64,60
379.615,379.84576,65,64,60
379.84576,380.07654,65,64,60
380.07654,380.3073,65,64,60
380.3073,380.5381,63,64,60
380.5381,380.76886,51,64,60
380.76886,380.99963,51,64,60
380.99963,381.23038,51,64,60
381.23038,381.46115,51,64,60
381.46115,381.69193,51,64,60
381.69193,381.9227,51,64,60
381.9227,382.15347,51,64,60
382.15347,382.38425,51,64,60
382.38425,382.615,51,64,60
382.615,382.84576,51,64,60
382.84576,383.07654,51,64,60
383.07654,383.3073,51,64,60
383.3073,383.5381,51,64,60
383.5381,383.76886,51,64,60
383.76886,383.9996,51,64,60
383.9996,384.46115,46,64,60
394.15344,394.615,61,64,60
394.615,395.07654,60,64,60
395.07654,395.76883,61,64,60
395.9996,396.23038,61,64,60
401.53806,403.38422,55,64,60
403.38422,404.30728,51,64,60
404.30728,404.76883,58,64,60
417.23035,417.92267,46,64,60
417.92267,418.15344,46,64,60
418.15344,418.61496,46,64,60
418.61496,419.0765,46,64,60
419.0765,419.1919,51,64,60
420.92267,421.61496,46,64,60
422.7688,422.8842,63,64,60
423.23035,423.34573,58,64,60
423.6919,423.80728,55,64,60
424.1534,424.2688,51,64,60
424.61496,425.30728,46,64,60
425.30728,425.53802,46,64,60
425.53802,425.99957,46,64,60
425.99957,426.46112,46,64,60
426.46112,426.92264,51,64,60
433.84573,434.07648,51,64,60
444.92264,447.23032,61,64,60
447.23032,448.1534,51,64,60
449.99954,450.92264,51,64,60
450.92264,451.8457,63,64,60
451.8457,452.30725,58,64,60
452.30725,458.30722,58,64,60
458.30722,458.76877,58,64,60
458.76877,459.23032,58,64,60
459.23032,459.69183,58,64,60
463.38416,465.69183,51,64,60
465.69183,466.61493,51,64,60
466.61493,467.538,58,64,60
468.46106,469.38416,51,64,60
469.38416,470.30722,63,64,60
470.30722,470.76877,58,64,60
470.76877,471.2303,55,64,60
478.15338,479.9995,39,64,60
481.84567,483.69183,65,64,60
483.69183,484.15335,65,64,60
484.6149,485.07645,63,64,60
485.53796,485.9995,65,64,60
487.38412,487.84567,58,64,60
489.2303,489.6918,55,64,60
5.538456,5.999994,75,64,68
6.230763,6.461532,75,64,68
6.461532,6.5769167,74,64,68
6.5769167,6.692301,75,64,68
6.692301,6.8076854,74,64,68
6.8076854,6.92307,75,64,68
6.92307,7.153839,77,64,68
7.153839,7.384608,75,64,68
7.384608,7.846146,75,64,68
8.076915,8.307684,75,64,68
8.307684,8.423068,74,64,68
8.423068,8.538453,75,64,68
8.538453,8.653837,74,64,68
8.653837,8.769222,75,64,68
8.769222,8.999991,77,64,68
8.999991,9.23076,75,64,68
9.23076,9.692298,75,64,68
9.923067,10.153836,72,64,68
10.153836,10.26922,71,64,68
10.26922,10.384605,72,64,68
10.384605,10.4999895,71,64,68
10.4999895,10.615374,72,64,68
10.615374,10.846143,74,64,68
10.846143,11.076912,72,64,68
11.076912,11.53845,72,64,68
11.769219,11.999988,72,64,68
11.999988,12.115373,71,64,68
12.115373,12.230757,72,64,68
12.230757,12.346142,71,64,68
12.346142,12.461526,72,64,68
12.461526,12.692295,74,64,68
12.692295,12.923064,72,64,68
12.923064,13.384602,72,64,68
13.615371,13.84614,72,64,68
13.84614,14.076909,70,64,68
14.076909,14.307678,72,64,68
14.307678,14.538447,74,64,68
14.538447,14.769216,75,64,68
14.769216,15.461523,77,64,68
15.461523,15.692292,75,64,68
15.692292,15.923061,75,64,68
15.923061,16.15383,74,64,68
16.15383,16.3846,72,64,68
16.3846,16.615368,70,64,68
16.615368,17.307674,77,64,68
17.307674,17.538445,75,64,68
17.538445,17.769213,75,64,68
17.769213,17.999983,74,64,68
17.999983,18.230751,72,64,68
18.230751,18.46152,70,64,68
18.46152,19.153828,77,64,68
19.153828,19.384596,75,64,68
19.384596,19.615364,75,64,68
19.615364,19.846134,74,64,68
19.846134,20.076902,72,64,68
20.076902,20.307673,74,64,68
20.307673,20.76921,75,64,68
20.76921,21.230747,79,64,68
21.230747,21.692286,75,64,68
24.923052,25.38459,79,64,68
25.38459,26.307667,80,64,68
26.307667,26.769203,79,64,68
26.769203,26.999973,79,64,68
26.999973,27.230742,77,64,68
27.230742,27.461512,75,64,68
27.461512,27.69228,74,64,68
27.69228,28.153818,75,64,68
28.153818,28.615356,79,64,68
28.615356,29.076895,75,64,68
30.461508,31.384584,84,64,68
31.384584,31.846123,77,64,68
31.846123,32.7692,82,64,68
32.7692,33.692272,80,64,68
33.692272,34.153812,79,64,68
34.153812,34.384583,79,64,68
34.384583,34.61535,77,64,68
34.61535,34.84612,75,64,68
34.84612,35.07689,74,64,68
35.07689,35.538425,75,64,68
35.769196,35.999966,75,64,68
35.999966,36.11535,74,64,68
36.11535,36.230732,75,64,68
36.230732,36.34612,74,64,68
36.34612,36.461502,75,64,68
36.461502,36.692272,77,64,68
36.692272,36.92304,75,64,68
36.92304,37.38458,75,64,68
37.61535,37.846115,75,64,68
37.846115,37.961502,74,64,68
37.961502,38.076885,75,64,68
38.076885,38.19227,74,64,68
38.19227,38.307655,75,64,68
38.307655,38.53842,77,64,68
38.53842,38.76919,75,64,68
38.76919,39.23073,75,64,68
39.4615,39.69227,75,64,68
39.69227,39.80765,74,64,68
39.80765,39.92304,75,64,68
39.92304,40.03842,74,64,68
40.03842,40.153805,75,64,68
40.153805,40.384575,77,64,68
40.384575,40.615345,75,64,68
40.615345,40.84611,80,64,68
40.84611,41.07688,72,64,68
41.07688,41.30765,72,64,68
41.30765,41.53842,72,64,68
41.53842,41.769188,77,64,68
41.769188,41.999958,72,64,68
41.999958,42.23073,72,64,68
42.23073,42.461494,75,64,68
42.461494,42.692265,74,64,68
42.692265,42.923035,70,64,68
42.923035,43.153805,84,64,68
43.153805,43.38457,70,64,68
43.38457,43.61534,82,64,68
43.61534,43.84611,70,64,68
43.84611,44.076878,80,64,68
44.076878,44.307648,70,64,68
44.307648,44.538418,79,64,68
44.538418,44.769184,75,64,68
44.769184,44.999954,75,64,68
44.999954,45.230724,75,64,68
45.230724,45.461494,80,64,68
45.461494,45.69226,75,64,68
45.69226,45.92303,75,64,68
45.92303,46.1538,75,64,68
46.1538,46.384567,82,64,68
46.384567,46.615337,75,64,68
46.615337,46.846107,75,64,68
46.846107,47.076878,75,64,68
47.076878,47.307644,75,64,68
47.307644,47.538414,75,64,68
47.538414,47.769184,79,64,68
47.769184,47.99995,75,64,68
47.99995,48.23072,80,64,68
48.23072,48.46149,72,64,68
48.46149,48.69226,72,64,68
48.69226,48.923027,72,64,68
48.923027,49.153797,77,64,68
49.153797,49.384567,72,64,68
49.384567,49.615334,72,64,68
49.615334,49.846104,75,64,68
49.846104,50.076874,74,64,68
50.076874,50.307644,70,64,68
50.307644,50.53841,84,64,68
50.53841,50.76918,70,64,68
50.76918,50.99995,82,64,68
50.99995,51.230717,70,64,68
51.230717,51.461487,80,64,68
51.461487,51.692257,70,64,68
51.692257,51.923023,79,64,68
51.923023,52.153793,75,64,68
52.153793,52.384563,75,64,68
52.384563,52.615334,75,64,68
52.615334,52.8461,80,64,68
52.8461,53.07687,75,64,68
53.07687,53.30764,75,64,68
53.30764,53.538406,75,64,68
53.538406,53.769176,82,64,68
53.769176,53.999947,75,64,68
53.999947,54.230717,75,64,68
54.230717,54.461483,75,64,68
54.461483,54.692253,81,64,68
54.692253,54.923023,75,64,68
54.923023,55.15379,81,64,68
55.15379,55.38456,75,64,68
55.38456,55.8461,82,64,68
56.076866,56.307636,82,64,68
56.307636,56.42302,81,64,68
56.42302,56.538406,82,64,68
56.538406,56.65379,81,64,68
56.65379,56.769173,82,64,68
56.769173,56.999943,84,64,68
56.999943,57.230713,82,64,68
57.230713,58.15379,81,64,68
58.15379,58.615326,75,64,68
58.615326,59.076862,75,64,68
59.076862,59.538403,74,64,68
59.769173,59.99994,82,64,68
59.99994,60.115326,81,64,68
60.115326,60.23071,82,64,68
60.23071,60.346092,81,64,68
60.346092,60.46148,82,64,68
60.46148,60.692245,84,64,68
60.692245,60.923016,82,64,68
60.923016,61.846092,86,64,68
61.846092,62.30763,74,64,68
62.30763,62.76917,74,64,68
62.76917,63.461475,74,64,68
63.461475,63.692245,79,64,68
63.692245,63.92301,79,64,68
63.92301,64.153786,78,64,68
64.153786,64.38455,79,64,68
64.38455,64.61532,81,64,68
64.61532,65.07686,74,64,68
65.5384,66.46147,70,64,68
66.46147,67.384544,72,64,68
67.384544,68.307625,68,64,68
68.307625,68.769165,65,64,68
68.769165,69.2307,63,64,68
69.2307,69.69224,77,64,68
69.69224,70.15378,77,64,68
70.15378,70.846085,77,64,68
70.846085,71.07685,82,64,68
71.07685,71.30762,82,64,68
71.30762,71.53839,81,64,68
71.53839,71.76916,82,64,68
71.76916,71.99993,84,64,68
71.99993,72.461464,77,64,68
72.923004,73.384544,79,64,68
73.384544,73.84608,81,64,68
73.84608,74.76916,82,64,68
74.76916,75.69223,84,64,68
75.69223,76.15377,77,64,68
78.923,79.38454,77,64,68
79.38454,79.6153,77,64,68
79.6153,79.84608,74,64,68
79.84608,80.30761,70,64,68
83.76915,83.999916,77,64,68
83.999916,84.23068,76,64,68
84.23068,84.46146,77,64,68
84.46146,84.69222,79,64,68
84.69222,84.92299,75,64,68
84.92299,85.615295,72,64,68
85.615295,85.84607,74,64,68
85.84607,86.30761,75,64,68
86.30761,86.76914,77,64,68
86.76914,87.23068,74,64,68
87.46145,87.69222,77,64,68
87.69222,87.92299,76,64,68
87.92299,88.153755,77,64,68
88.153755,88.38453,79,64,68
88.38453,88.615295,75,64,68
88.615295,89.3076,72,64,68
89.3076,89.53837,74,64,68
89.53837,89.99991,75,64,68
89.99991,90.46145,77,64,68
90.46145,90.92299,74,64,68
91.153755,91.38452,70,64,68
91.38452,91.49991,69,64,68
91.49991,91.615295,70,64,68
91.615295,91.730675,69,64,68
91.730675,91.84606,70,64,68
91.84606,92.07683,72,64,68
92.07683,92.3076,70,64,68
92.3076,92.769135,74,64,68
92.99991,93.230675,74,64,68
93.230675,93.34606,73,64,68
93.34606,93.46145,74,64,68
93.46145,93.57683,73,64,68
93.57683,93.692215,74,64,68
93.692215,93.92298,75,64,68
93.92298,94.153755,74,64,68
94.153755,95.9999,72,64,68
95.9999,96.46144,71,64,68
101.9999,102.92297,77,64,68
102.92297,103.384514,75,64,68
103.384514,103.84605,74,64,68
103.84605,104.76913,72,64,68
104.76913,105.23067,72,64,68
105.23067,105.6922,70,64,68
107.07681,107.53835,74,64,68
107.76912,107.99989,74,64,68
107.99989,108.11528,73,64,68
108.11528,108.23066,74,64,68
108.23066,108.34605,73,64,68
108.34605,108.46143,74,64,68
108.46143,108.6922,75,64,68
108.6922,108.922966,74,64,68
108.922966,109.38451,72,64,68
109.38451,110.76912,60,64,68
110.76912,111.23066,71,64,68
114.92296,115.3845,77,64,68
115.3845,115.84604,79,64,68
115.84604,116.30758,75,64,68
116.30758,116.76911,74,64,68
116.76911,117.23065,77,64,68
117.23065,117.69219,70,64,68
117.69219,118.153725,75,64,68
118.153725,118.615265,74,64,68
118.615265,119.538345,72,64,68
119.538345,119.99988,72,64,68
119.99988,120.46142,70,64,68
120.692184,120.92296,82,64,68
120.92296,121.03834,81,64,68
121.03834,121.153725,82,64,68
121.153725,121.26911,81,64,68
121.26911,121.38449,82,64,68
121.38449,121.615265,84,64,68
121.615265,121.84603,82,64,68
121.84603,122.30757,82,64,68
122.53834,122.76911,82,64,68
122.76911,122.88449,81,64,68
122.88449,122.99988,82,64,68
122.99988,123.115265,81,64,68
123.115265,123.230644,82,64,68
123.230644,123.46142,84,64,68
123.46142,123.692184,82,64,68
123.692184,124.153725,82,64,68
124.38449,124.61526,82,64,68
124.61526,124.730644,81,64,68
124.730644,124.84603,82,64,68
124.84603,124.96141,81,64,68
124.96141,125.0768,82,64,68
125.0768,125.30756,84,64,68
125.30756,125.53834,82,64,68
125.53834,125.769104,84,64,68
125.769104,125.99987,82,64,68
125.99987,126.230644,84,64,68
126.230644,126.46141,82,64,68
126.46141,126.692184,84,64,68
126.692184,126.92295,82,64,68
126.92295,127.15372,84,64,68
127.15372,127.38449,82,64,68
127.38449,127.84602,82,64,68
128.30757,128.7691,82,64,68
129.23064,129.69218,82,64,68
132.92294,133.38448,75,64,68
133.61525,133.84602,75,64,68
133.84602,133.96141,74,64,68
133.96141,134.07678,75,64,68
134.07678,134.19217,74,64,68
134.19217,134.30756,75,64,68
134.30756,134.53833,77,64,68
134.53833,134.76909,75,64,68
134.76909,135.23064,75,64,68
135.46141,135.69217,75,64,68
135.69217,135.80756,74,64,68
135.80756,135.92294,75,64,68
135.92294,136.03833,74,64,68
136.03833,136.15372,75,64,68
136.15372,136.38448,77,64,68
136.38448,136.61525,75,64,68
136.61525,137.07678,75,64,68
137.30756,137.53833,72,64,68
137.53833,137.6537,71,64,68
137.6537,137.76909,72,64,68
137.76909,137.88448,71,64,68
137.88448,137.99986,72,64,68
137.99986,138.23064,74,64,68
138.23064,138.4614,72,64,68
138.4614,138.92294,72,64,68
139.1537,139.38448,72,64,68
139.38448,139.49986,71,64,68
139.49986,139.61525,72,64,68
139.61525,139.73064,71,64,68
139.73064,139.84601,72,64,68
139.84601,140.07678,74,64,68
140.07678,140.30756,72,64,68
140.30756,140.76909,72,64,68
140.99986,141.23062,72,64,68
141.23062,141.4614,70,64,68
141.4614,141.69217,72,64,68
141.69217,141.92293,74,64,68
141.92293,142.1537,75,64,68
142.1537,142.84601,77,64,68
142.84601,143.07678,75,64,68
143.07678,143.30756,75,64,68
143.30756,143.53831,74,64,68
143.53831,143.76909,72,64,68
143.76909,143.99986,70,64,68
143.99986,144.69217,77,64,68
144.69217,144.92293,75,64,68
144.92293,145.1537,75,64,68
145.1537,145.38448,74,64,68
145.38448,145.61523,72,64,68
145.61523,145.84601,70,64,68
145.84601,146.53831,77,64,68
146.53831,146.76909,75,64,68
146.76909,146.99985,75,64,68
146.99985,147.23062,74,64,68
147.23062,147.4614,72,64,68
147.4614,147.69215,74,64,68
147.69215,148.1537,75,64,68
148.1537,148.61523,79,64,68
148.61523,149.07677,75,64,68
152.30754,152.76907,79,64,68
152.76907,153.69215,80,64,68
153.69215,154.15369,79,64,68
154.15369,154.38446,79,64,68
154.38446,154.61523,77,64,68
154.61523,154.846,75,64,68
154.846,155.07677,74,64,68
155.07677,155.5383,75,64,68
155.5383,155.99985,79,64,68
155.99985,156.46138,75,64,68
157.846,158.76907,84,64,68
158.76907,159.2306,77,64,68
159.2306,160.15369,82,64,68
160.15369,161.07677,80,64,68
161.07677,161.5383,79,64,68
161.5383,161.76907,79,64,68
161.76907,161.99983,77,64,68
161.99983,162.2306,75,64,68
162.2306,162.46138,74,64,68
162.46138,162.92291,75,64,68
163.15369,163.38445,75,64,68
163.38445,163.49983,74,64,68
163.49983,163.61522,75,64,68
163.61522,163.7306,74,64,68
163.7306,163.846,75,64,68
163.846,164.07675,77,64,68
164.07675,164.30753,75,64,68
164.30753,164.76907,75,64,68
164.99983,165.2306,75,64,68
165.2306,165.346,74,64,68
165.346,165.46138,75,64,68
165.46138,165.57675,74,64,68
165.57675,165.69214,75,64,68
165.69214,165.92291,77,64,68
165.92291,166.15369,75,64,68
166.15369,166.61522,75,64,68
166.846,167.07675,75,64,68
167.07675,167.19214,74,64,68
167.19214,167.30753,75,64,68
167.30753,167.42291,74,64,68
167.42291,167.5383,75,64,68
167.5383,167.76906,77,64,68
167.76906,167.99983,75,64,68
167.99983,168.2306,80,64,68
168.2306,168.46136,72,64,68
168.46136,168.69214,72,64,68
168.69214,168.92291,72,64,68
168.92291,169.15367,77,64,68
169.15367,169.38445,72,64,68
169.38445,169.61522,72,64,68
169.61522,169.84598,75,64,68
169.84598,170.07675,74,64,68
170.07675,170.30753,70,64,68
170.30753,170.53828,84,64,68
170.53828,170.76906,70,64,68
170.76906,170.99983,82,64,68
170.99983,171.23059,70,64,68
171.23059,171.46136,80,64,68
171.46136,171.69214,70,64,68
171.69214,171.92291,79,64,68
171.92291,172.15367,75,64,68
172.15367,172.38445,75,64,68
172.38445,172.61522,75,64,68
172.61522,172.84598,80,64,68
172.84598,173.07675,75,64,68
173.07675,173.30753,75,64,68
173.30753,173.53828,75,64,68
173.53828,173.76906,82,64,68
173.76906,173.99983,75,64,68
173.99983,174.23059,75,64,68
174.23059,174.46136,75,64,68
174.46136,174.69214,75,64,68
174.69214,174.9229,75,64,68
174.9229,175.15367,79,64,68
175.15367,175.38445,75,64,68
175.38445,175.6152,80,64,68
175.6152,175.84598,72,64,68
175.84598,176.07675,72,64,68
176.07675,176.30751,72,64,68
176.30751,176.53828,77,64,68
176.53828,176.76906,72,64,68
176.76906,176.99982,72,64,68
176.99982,177.23059,75,64,68
177.23059,177.46136,74,64,68
177.46136,177.69212,70,64,68
177.69212,177.9229,84,64,68
177.9229,178.15367,70,64,68
178.15367,178.38443,82,64,68
178.38443,178.6152,70,64,68
178.6152,178.84598,80,64,68
178.84598,179.07674,70,64,68
179.07674,179.30751,79,64,68
179.30751,179.53828,75,64,68
179.53828,179.76906,75,64,68
179.76906,179.99982,75,64,68
179.99982,180.23059,80,64,68
180.23059,180.46136,75,64,68
180.46136,180.69212,75,64,68
180.69212,180.9229,75,64,68
180.9229,181.15367,82,64,68
181.15367,181.38443,75,64,68
181.38443,181.6152,75,64,68
181.6152,181.84598,75,64,68
181.84598,182.07674,81,64,68
182.07674,182.30751,75,64,68
182.30751,182.53828,81,64,68
182.53828,182.76904,75,64,68
182.76904,183.23059,82,64,68
183.46135,183.69212,82,64,68
183.69212,183.80751,81,64,68
183.80751,183.9229,82,64,68
183.9229,184.03828,81,64,68
184.03828,184.15366,82,64,68
184.15366,184.38443,84,64,68
184.38443,184.6152,82,64,68
184.6152,185.53827,81,64,68
185.53827,185.99982,75,64,68
185.99982,186.46135,75,64,68
186.46135,186.9229,74,64,68
187.15366,187.38443,82,64,68
187.38443,187.49982,81,64,68
187.49982,187.6152,82,64,68
187.6152,187.73058,81,64,68
187.73058,187.84596,82,64,68
187.84596,188.07674,84,64,68
188.07674,188.30751,82,64,68
188.30751,189.23058,86,64,68
189.23058,189.69212,74,64,68
189.69212,190.15366,74,64,68
190.15366,190.84596,74,64,68
190.84596,191.07674,79,64,68
191.07674,191.3075,79,64,68
191.3075,191.53827,78,64,68
191.53827,191.76904,79,64,68
191.76904,191.9998,81,64,68
191.9998,192.46135,74,64,68
192.92288,193.84596,70,64,68
193.84596,194.76904,72,64,68
194.76904,195.69211,68,64,68
195.69211,196.15366,65,64,68
196.15366,196.61519,63,64,68
196.61519,197.07672,77,64,68
197.07672,197.53827,77,64,68
197.53827,198.23058,77,64,68
198.23058,198.46133,82,64,68
198.46133,198.69211,82,64,68
198.69211,198.92288,81,64,68
198.92288,199.15364,82,64,68
199.15364,199.38441,84,64,68
199.38441,199.84595,77,64,68
200.3075,200.76903,79,64,68
200.76903,201.23058,81,64,68
201.23058,202.15364,82,64,68
202.15364,203.07672,84,64,68
203.07672,203.53825,77,64,68
206.30748,206.76903,77,64,68
206.76903,206.99979,77,64,68
206.99979,207.23056,74,64,68
207.23056,207.6921,70,64,68
211.15364,211.3844,77,64,68
211.3844,211.61517,76,64,68
211.61517,211.84595,77,64,68
211.84595,212.0767,79,64,68
212.0767,212.30748,75,64,68
212.30748,212.99979,72,64,68
212.99979,213.23056,74,64,68
213.23056,213.6921,75,64,68
213.6921,214.15363,77,64,68
214.15363,214.61517,74,64,68
214.84593,215.0767,77,64,68
215.0767,215.30748,76,64,68
215.30748,215.53824,77,64,68
215.53824,215.76901,79,64,68
215.76901,215.99979,75,64,68
215.99979,216.6921,72,64,68
216.6921,216.92287,74,64,68
216.92287,217.3844,75,64,68
217.3844,217.84593,77,64,68
217.84593,218.30748,74,64,68
218.53824,218.76901,70,64,68
218.76901,218.8844,69,64,68
218.8844,218.99979,70,64,68
218.99979,219.11516,69,64,68
219.11516,219.23055,70,64,68
219.23055,219.46132,72,64,68
219.46132,219.6921,70,64,68
219.6921,220.15363,74,64,68
220.3844,220.61516,74,64,68
220.61516,220.73055,73,64,68
220.73055,220.84593,74,64,68
220.84593,220.96132,73,64,68
220.96132,221.0767,74,64,68
221.0767,221.30746,75,64,68
221.30746,221.53824,74,64,68
221.53824,223.3844,72,64,68
223.3844,223.84593,71,64,68
229.38438,230.30746,77,64,68
230.30746,230.769,75,64,68
230.769,231.23055,74,64,68
231.23055,232.15361,72,64,68
232.15361,232.61516,72,64,68
232.61516,233.07669,70,64,68
234.4613,234.92284,74,64,68
235.15361,235.38438,74,64,68
235.38438,235.49977,73,64,68
235.49977,235.61514,74,64,68
235.61514,235.73053,73,64,68
235.73053,235.84592,74,64,68
235.84592,236.07669,75,64,68
236.07669,236.30745,74,64,68
236.30745,236.769,72,64,68
236.769,238.15361,60,64,68
238.15361,238.61514,71,64,68
242.30745,242.76898,77,64,68
242.76898,243.23053,79,64,68
243.23053,243.69206,75,64,68
243.69206,244.1536,74,64,68
244.1536,244.61514,77,64,68
244.61514,245.07668,70,64,68
245.07668,245.53822,75,64,68
245.53822,245.99976,74,64,68
245.99976,246.92284,72,64,68
246.92284,247.38437,72,64,68
247.38437,247.8459,70,64,68
248.07668,248.30745,82,64,68
248.30745,248.42282,81,64,68
248.42282,248.53821,82,64,68
248.53821,248.6536,81,64,68
248.6536,248.76898,82,64,68
248.76898,248.99976,84,64,68
248.99976,249.23051,82,64,68
249.23051,249.69206,82,64,68
249.92282,250.1536,82,64,68
250.1536,250.26898,81,64,68
250.26898,250.38437,82,64,68
250.38437,250.49976,81,64,68
250.49976,250.61513,82,64,68
250.61513,250.8459,84,64,68
250.8459,251.07668,82,64,68
251.07668,251.53821,82,64,68
251.76898,251.99974,82,64,68
251.99974,252.11513,81,64,68
252.11513,252.23051,82,64,68
252.23051,252.3459,81,64,68
252.3459,252.46129,82,64,68
252.46129,252.69206,84,64,68
252.69206,252.92282,82,64,68
252.92282,253.1536,84,64,68
253.1536,253.38437,82,64,68
253.38437,253.61513,84,64,68
253.61513,253.8459,82,64,68
253.8459,254.07668,84,64,68
254.07668,254.30743,82,64,68
254.30743,254.53821,84,64,68
254.53821,254.76898,82,64,68
254.76898,255.23051,82,64,68
255.69205,256.1536,82,64,68
256.61514,257.07666,82,64,68
258.46127,258.92282,86,64,68
259.38437,259.8459,86,64,68
260.30743,260.76898,79,64,68
260.99973,261.2305,79,64,68
261.2305,261.3459,78,64,68
261.3459,261.46127,79,64,68
261.46127,261.57666,78,64,68
261.57666,261.69205,79,64,68
261.69205,261.92282,80,64,68
261.92282,262.1536,79,64,68
262.1536,264.69205,79,64,68
264.69205,264.92282,79,64,68
264.92282,265.0382,78,64,68
265.0382,265.1536,79,64,68
265.1536,265.26895,78,64,68
265.26895,265.38434,79,64,68
265.38434,265.6151,80,64,68
265.6151,265.8459,79,64,68
265.8459,267.69205,79,64,68
267.69205,268.15356,79,64,68
268.6151,269.07666,79,64,68
269.53818,269.99973,72,64,68
270.46127,271.38434,79,64,68
271.38434,272.07666,80,64,68
272.07666,272.30743,72,64,68
272.30743,272.4228,71,64,68
272.4228,272.53818,72,64,68
272.53818,272.65356,71,64,68
272.65356,272.76895,72,64,68
272.76895,272.99973,74,64,68
272.99973,273.2305,72,64,68
273.2305,275.07666,79,64,68
275.07666,275.76895,80,64,68
275.76895,275.99973,72,64,68
275.99973,276.1151,71,64,68
276.1151,276.2305,72,64,68
276.2305,276.3459,71,64,68
276.3459,276.46127,72,64,68
276.46127,276.69202,74,64,68
276.69202,276.9228,72,64,68
276.9228,277.38434,79,64,68
277.38434,277.8459,67,64,68
277.8459,278.3074,72,64,68
278.3074,278.76895,79,64,68
278.76895,279.46127,77,64,68
279.46127,279.69202,75,64,68
279.69202,280.15356,74,64,68
280.15356,280.6151,75,64,68
281.07663,281.53818,77,64,68
281.99973,282.46124,74,64,68
282.46124,282.9228,75,64,68
287.99973,295.3843,75,64,68
295.3843,295.61508,74,64,68
295.61508,295.84586,84,64,68
295.84586,296.07663,82,64,68
296.07663,296.3074,80,64,68
296.3074,296.53818,79,64,68
296.53818,296.76892,77,64,68
296.76892,296.9997,75,64,68
296.9997,297.23047,74,64,68
297.23047,297.46124,75,64,68
297.46124,297.69202,79,64,68
297.69202,297.9228,77,64,68
297.9228,298.15353,75,64,68
298.3843,298.61508,79,64,68
298.61508,298.84586,77,64,68
298.84586,299.07663,75,64,68
299.3074,299.53815,80,64,68
299.53815,299.76892,79,64,68
299.76892,299.9997,77,64,68
299.9997,300.23047,75,64,68
300.23047,300.46124,74,64,68
300.46124,300.69202,72,64,68
300.69202,300.9228,70,64,68
301.15353,301.3843,80,64,68
301.3843,301.61508,79,64,68
301.61508,301.84586,77,64,68
302.07663,302.3074,80,64,68
302.3074,302.53815,79,64,68
302.53815,302.76892,77,64,68
302.9997,303.23047,82,64,68
303.23047,303.46124,80,64,68
303.46124,303.69202,79,64,68
303.69202,303.92276,77,64,68
303.92276,304.15353,75,64,68
304.15353,304.3843,74,64,68
304.3843,304.61508,75,64,68
304.61508,305.07663,77,64,68
314.53815,314.9997,79,64,68
314.9997,315.4612,79,64,68
315.4612,315.92276,79,64,68
315.92276,316.15353,79,64,68
316.15353,316.3843,83,64,68
316.3843,316.61508,84,64,68
316.61508,316.84583,83,64,68
316.84583,317.0766,84,64,68
317.0766,317.30737,86,64,68
317.30737,317.53815,84,64,68
317.53815,317.9997,83,64,68
318.23044,318.4612,79,64,68
318.4612,318.5766,78,64,68
318.5766,318.692,79,64,68
318.692,318.80737,78,64,68
318.80737,318.92276,79,64,68
318.92276,319.15353,80,64,68
319.15353,319.3843,79,64,68
319.3843,319.84583,79,64,68
320.0766,320.30737,79,64,68
320.30737,320.42276,78,64,68
320.42276,320.53815,79,64,68
320.53815,320.65353,78,64,68
320.65353,320.76892,79,64,68
320.76892,320.99966,81,64,68
320.99966,321.23044,79,64,68
321.23044,321.692,79,64,68
321.92276,322.15353,79,64,68
322.15353,322.26892,78,64,68
322.26892,322.3843,79,64,68
322.3843,322.49966,78,64,68
322.49966,322.61505,79,64,68
322.61505,322.84583,80,64,68
322.84583,323.0766,79,64,68
323.0766,323.53815,79,64,68
323.76892,323.99966,79,64,68
323.99966,324.11505,78,64,68
324.11505,324.23044,79,64,68
324.23044,324.34583,78,64,68
324.34583,324.4612,79,64,68
324.4612,324.692,81,64,68
324.692,324.92276,79,64,68
324.92276,325.15353,80,64,68
325.15353,325.38428,79,64,68
325.38428,325.61505,81,64,68
325.61505,325.84583,79,64,68
325.84583,326.0766,80,64,68
326.0766,326.30737,79,64,68
326.30737,326.53815,81,64,68
326.53815,326.7689,79,64,68
326.7689,327.23044,79,64,68
327.692,328.1535,74,64,68
328.1535,328.61505,74,64,68
328.61505,329.0766,74,64,68
329.53815,329.99966,74,64,68
329.99966,330.4612,74,64,68
330.4612,330.92276,75,64,68
331.38428,331.84583,75,64,68
331.84583,332.30737,75,64,68
332.30737,332.7689,72,64,68
333.23044,333.692,72,64,68
334.1535,334.61505,70,64,68
356.30734,356.76886,80,64,68
356.76886,357.2304,80,64,68
357.2304,357.92273,80,64,68
357.92273,358.03812,77,64,68
358.03812,358.15347,79,64,68
358.15347,358.61502,80,64,68
358.61502,359.07657,80,64,68
359.07657,359.76886,80,64,68
359.76886,359.88425,77,64,68
359.88425,359.99963,79,64,68
359.99963,360.46118,80,64,68
360.46118,360.92273,65,64,68
360.92273,361.38425,65,64,68
361.38425,361.8458,77,64,68
361.8458,362.30734,79,64,68
362.5381,362.76886,75,64,68
362.76886,362.88425,74,64,68
362.88425,362.99963,75,64,68
362.99963,363.11502,74,64,68
363.11502,363.2304,75,64,68
363.2304,363.46118,77,64,68
363.46118,363.69196,75,64,68
363.69196,364.15347,75,64,68
364.38425,364.61502,75,64,68
364.61502,364.7304,74,64,68
364.7304,364.8458,75,64,68
364.8458,364.96118,74,64,68
364.96118,365.07657,75,64,68
365.07657,365.3073,77,64,68
365.3073,365.5381,75,64,68
365.5381,365.99963,75,64,68
366.2304,366.46118,72,64,68
366.46118,366.57657,71,64,68
366.57657,366.69196,72,64,68
366.69196,366.8073,71,64,68
366.8073,366.9227,72,64,68
366.9227,367.15347,74,64,68
367.15347,367.38425,72,64,68
367.38425,367.8458,72,64,68
368.07657,368.3073,72,64,68
368.3073,368.4227,71,64,68
368.4227,368.5381,72,64,68
368.5381,368.65347,71,64,68
368.65347,368.76886,72,64,68
368.76886,368.99963,74,64,68
368.99963,369.2304,72,64,68
369.2304,369.46118,80,64,68
369.46118,369.69193,72,64,68
369.69193,369.9227,72,64,68
369.9227,370.15347,72,64,68
370.15347,370.38425,77,64,68
370.38425,370.61502,72,64,68
370.61502,370.8458,72,64,68
370.8458,371.07654,75,64,68
371.07654,371.3073,74,64,68
371.3073,371.5381,70,64,68
371.5381,371.76886,84,64,68
371.76886,371.99963,70,64,68
371.99963,372.2304,82,64,68
372.2304,372.46115,70,64,68
372.46115,372.69193,80,64,68
372.69193,372.9227,70,64,68
372.9227,373.15347,79,64,68
373.15347,373.38425,75,64,68
373.38425,373.61502,75,64,68
373.61502,373.8458,75,64,68
373.8458,374.07654,80,64,68
374.07654,374.3073,75,64,68
374.3073,374.5381,75,64,68
374.5381,374.76886,75,64,68
374.76886,374.99963,82,64,68
374.99963,375.2304,75,64,68
375.2304,375.46115,75,64,68
375.46115,375.69193,75,64,68
375.69193,375.9227,75,64,68
375.9227,376.15347,75,64,68
376.15347,376.38425,79,64,68
376.38425,376.61502,75,64,68
376.61502,376.84576,80,64,68
376.84576,377.07654,72,64,68
377.07654,377.3073,72,64,68
377.3073,377.5381,72,64,68
377.5381,377.76886,77,64,68
377.76886,377.99963,72,64,68
377.99963,378.23038,72,64,68
378.23038,378.46115,75,64,68
378.46115,378.69193,74,64,68
378.69193,378.9227,70,64,68
378.9227,379.15347,84,64,68
379.15347,379.38425,70,64,68
379.38425,379.615,82,64,68
379.615,379.84576,70,64,68
379.84576,380.07654,80,64,68
380.07654,380.3073,70,64,68
380.3073,380.5381,79,64,68
380.5381,380.76886,75,64,68
380.76886,380.99963,75,64,68
380.99963,381.23038,75,64,68
381.23038,381.46115,80,64,68
381.46115,381.69193,75,64,68
381.69193,381.9227,75,64,68
381.9227,382.15347,75,64,68
382.15347,382.38425,82,64,68
382.38425,382.615,75,64,68
382.615,382.84576,75,64,68
382.84576,383.07654,75,64,68
383.07654,383.3073,81,64,68
383.3073,383.5381,75,64,68
383.5381,383.76886,81,64,68
383.76886,383.9996,75,64,68
383.9996,384.46115,82,64,68
386.76883,387.23038,75,64,68
387.23038,387.69193,75,64,68
387.69193,388.15347,74,64,68
397.84576,398.30728,70,64,68
398.30728,398.76883,70,64,68
398.76883,399.46115,70,64,68
399.46115,399.6919,75,64,68
399.6919,399.92267,75,64,68
399.92267,400.15344,74,64,68
400.15344,400.38422,75,64,68
400.38422,400.615,77,64,68
400.615,401.0765,70,64,68
401.53806,401.9996,72,64,68
401.9996,402.46115,74,64,68
402.46115,403.38422,75,64,68
403.38422,404.30728,77,64,68
404.30728,404.76883,74,64,68
412.38422,412.61496,82,64,68
412.61496,412.84573,81,64,68
412.84573,413.0765,82,64,68
413.0765,413.30728,84,64,68
413.30728,413.53806,80,64,68
413.53806,414.23035,77,64,68
414.23035,414.46112,79,64,68
414.46112,414.92267,80,64,68
414.92267,415.3842,82,64,68
415.3842,415.84573,79,64,68
420.92267,421.61496,77,64,68
421.61496,421.84573,79,64,68
421.84573,422.30728,80,64,68
422.30728,422.7688,82,64,68
422.7688,423.23035,79,64,68
424.61496,425.30728,77,64,68
425.30728,425.53802,79,64,68
425.53802,425.99957,80,64,68
425.99957,426.46112,82,64,68
426.46112,426.92264,79,64,68
428.30725,428.7688,77,64,68
430.1534,430.61496,79,64,68
431.99957,432.46112,80,64,68
432.46112,432.92264,79,64,68
432.92264,433.3842,77,64,68
433.3842,433.84573,74,64,68
433.84573,439.8457,82,64,68
439.8457,440.30725,82,64,68
440.30725,440.7688,82,64,68
440.7688,441.23032,82,64,68
441.23032,443.07648,82,64,68
443.07648,443.53802,84,64,68
444.92264,445.8457,85,64,68
445.8457,446.30725,82,64,68
446.30725,446.7688,79,64,68
446.7688,447.23032,75,64,68
447.23032,447.69186,73,64,68
447.69186,448.1534,72,64,68
448.1534,448.61493,74,64,68
448.61493,449.07648,75,64,68
449.07648,449.53802,82,64,68
449.53802,449.99954,79,64,68
449.99954,450.4611,80,64,68
450.4611,450.92264,82,64,68
450.92264,451.38416,84,64,68
451.38416,451.8457,77,64,68
451.8457,452.30725,82,64,68
452.30725,452.76877,75,64,68
458.30722,458.76877,82,64,68
458.76877,459.23032,82,64,68
459.23032,459.69183,82,64,68
459.69183,461.07648,82,64,68
461.07648,461.538,83,64,68
461.538,461.99954,84,64,68
463.38416,464.30722,85,64,68
464.30722,464.76877,82,64,68
464.76877,465.23032,79,64,68
465.23032,465.69183,75,64,68
465.69183,466.15338,73,64,68
466.15338,466.61493,72,64,68
466.61493,467.07645,74,64,68
467.07645,467.538,75,64,68
467.538,467.99954,82,64,68
467.99954,468.46106,79,64,68
468.46106,468.9226,80,64,68
468.9226,469.38416,82,64,68
469.38416,469.84567,84,64,68
469.84567,470.30722,77,64,68
470.30722,470.76877,82,64,68
470.76877,471.2303,75,64,68
476.30722,477.2303,84,64,68
477.2303,478.15338,80,64,68
478.15338,478.6149,82,64,68
479.9995,481.84567,84,64,68
481.84567,483.69183,80,64,68
483.69183,484.15335,82,64,68
484.6149,485.07645,79,64,68
485.53796,485.9995,80,64,68
487.38412,487.84567,77,64,68
489.2303,489.6918,79,64,68
5.538456,5.999994,67,64,68
14.769216,19.384596,70,64,68
19.384596,20.307673,70,64,68
20.307673,20.76921,70,64,68
20.76921,21.230747,70,64,68
21.230747,21.692286,70,64,68
24.923052,25.38459,75,64,68
25.846128,26.307667,74,64,68
26.307667,26.769203,75,64,68
26.769203,27.230742,72,64,68
27.230742,27.69228,68,64,68
27.69228,28.153818,70,64,68
28.153818,28.615356,70,64,68
28.615356,29.076895,70,64,68
29.99997,31.384584,72,64,68
31.384584,32.30766,74,64,68
32.30766,33.230736,75,64,68
33.230736,33.692272,74,64,68
33.692272,34.153812,67,64,68
34.153812,34.384583,72,64,68
34.61535,34.84612,65,64,68
35.07689,35.538425,67,64,68
36.92304,37.38458,67,64,68
38.76919,39.23073,72,64,68
41.53842,41.769188,72,64,68
42.23073,42.461494,72,64,68
42.461494,42.692265,70,64,68
42.923035,43.153805,70,64,68
43.38457,43.61534,70,64,68
43.84611,44.076878,70,64,68
44.307648,44.538418,75,64,68
45.230724,45.461494,75,64,68
46.1538,46.384567,75,64,68
47.538414,47.769184,75,64,68
47.99995,48.23072,72,64,68
48.923027,49.153797,72,64,68
49.615334,49.846104,72,64,68
49.846104,50.076874,70,64,68
50.307644,50.53841,70,64,68
50.76918,50.99995,70,64,68
51.230717,51.461487,70,64,68
51.692257,51.923023,70,64,68
52.615334,52.8461,75,64,68
53.538406,53.769176,75,64,68
54.461483,54.692253,75,64,68
54.923023,55.15379,75,64,68
55.38456,55.8461,74,64,68
69.69224,70.15378,72,64,68
70.15378,70.846085,74,64,68
70.846085,71.07685,70,64,68
71.07685,71.30762,77,64,68
72.923004,73.384544,74,64,68
73.384544,73.84608,78,64,68
73.84608,74.76916,79,64,68
74.76916,75.69223,76,64,68
87.46145,87.69222,74,64,68
87.69222,87.92299,73,64,68
87.92299,88.153755,74,64,68
88.153755,88.38453,75,64,68
88.38453,88.615295,72,64,68
88.615295,89.3076,69,64,68
89.3076,89.53837,70,64,68
89.53837,89.99991,72,64,68
89.99991,90.46145,69,64,68
90.46145,90.92299,70,64,68
92.3076,92.769135,65,64,68
94.153755,95.9999,60,64,68
95.9999,96.46144,62,64,68
102.92297,103.384514,70,64,68
104.76913,105.23067,69,64,68
110.76912,111.23066,62,64,68
114.92296,115.3845,70,64,68
115.84604,116.30758,72,64,68
116.30758,116.76911,70,64,68
116.76911,117.23065,69,64,68
117.69219,118.153725,72,64,68
118.153725,118.615265,70,64,68
118.615265,119.538345,70,64,68
119.538345,119.99988,69,64,68
121.84603,122.30757,74,64,68
122.53834,122.76911,74,64,68
122.76911,122.88449,72,64,68
122.88449,122.99988,74,64,68
122.99988,123.115265,72,64,68
123.115265,123.230644,74,64,68
123.230644,123.46142,75,64,68
123.46142,123.692184,74,64,68
123.692184,124.153725,74,64,68
125.99987,126.230644,75,64,68
126.230644,126.46141,74,64,68
126.46141,126.692184,75,64,68
126.692184,126.92295,74,64,68
126.92295,127.15372,75,64,68
127.15372,127.38449,74,64,68
127.38449,127.84602,74,64,68
128.30757,128.7691,77,64,68
129.23064,129.69218,77,64,68
132.92294,133.38448,67,64,68
142.1537,146.76909,70,64,68
146.76909,147.69215,70,64,68
147.69215,148.1537,70,64,68
148.1537,148.61523,70,64,68
148.61523,149.07677,70,64,68
152.30754,152.76907,75,64,68
153.23062,153.69215,74,64,68
153.69215,154.15369,75,64,68
154.15369,154.61523,72,64,68
154.61523,155.07677,68,64,68
155.07677,155.5383,70,64,68
155.5383,155.99985,70,64,68
155.99985,156.46138,70,64,68
157.38446,158.76907,72,64,68
158.76907,159.69215,74,64,68
159.69215,160.61522,75,64,68
160.61522,161.07677,74,64,68
161.07677,161.5383,67,64,68
161.5383,161.76907,72,64,68
161.99983,162.2306,65,64,68
162.46138,162.92291,67,64,68
164.30753,164.76907,67,64,68
166.15369,166.61522,72,64,68
168.92291,169.15367,72,64,68
169.61522,169.84598,72,64,68
169.84598,170.07675,70,64,68
170.30753,170.53828,70,64,68
170.76906,170.99983,70,64,68
171.23059,171.46136,70,64,68
171.69214,171.92291,75,64,68
172.61522,172.84598,75,64,68
173.53828,173.76906,75,64,68
174.9229,175.15367,75,64,68
175.38445,175.6152,72,64,68
176.30751,176.53828,72,64,68
176.99982,177.23059,72,64,68
177.23059,177.46136,70,64,68
177.69212,177.9229,70,64,68
178.15367,178.38443,70,64,68
178.6152,178.84598,70,64,68
179.07674,179.30751,70,64,68
179.99982,180.23059,75,64,68
180.9229,181.15367,75,64,68
181.84598,182.07674,75,64,68
182.30751,182.53828,75,64,68
182.76904,183.23059,74,64,68
197.07672,197.53827,72,64,68
197.53827,198.23058,74,64,68
198.23058,198.46133,70,64,68
198.46133,198.69211,77,64,68
200.3075,200.76903,74,64,68
200.76903,201.23058,78,64,68
201.23058,202.15364,79,64,68
202.15364,203.07672,76,64,68
214.84593,215.0767,74,64,68
215.0767,215.30748,73,64,68
215.30748,215.53824,74,64,68
215.53824,215.76901,75,64,68
215.76901,215.99979,72,64,68
215.99979,216.6921,69,64,68
216.6921,216.92287,70,64,68
216.92287,217.3844,72,64,68
217.3844,217.84593,69,64,68
217.84593,218.30748,70,64,68
219.6921,220.15363,65,64,68
221.53824,223.3844,60,64,68
223.3844,223.84593,62,64,68
230.30746,230.769,70,64,68
232.15361,232.61516,69,64,68
238.15361,238.61514,62,64,68
242.30745,242.76898,70,64,68
243.23053,243.69206,72,64,68
243.69206,244.1536,70,64,68
244.1536,244.61514,69,64,68
245.07668,245.53822,72,64,68
245.53822,245.99976,70,64,68
245.99976,246.92284,70,64,68
246.92284,247.38437,69,64,68
249.23051,249.69206,74,64,68
249.92282,250.1536,74,64,68
250.1536,250.26898,72,64,68
250.26898,250.38437,74,64,68
250.38437,250.49976,72,64,68
250.49976,250.61513,74,64,68
250.61513,250.8459,75,64,68
250.8459,251.07668,74,64,68
251.07668,251.53821,74,64,68
253.38437,253.61513,75,64,68
253.61513,253.8459,74,64,68
253.8459,254.07668,75,64,68
254.07668,254.30743,74,64,68
254.30743,254.53821,75,64,68
254.53821,254.76898,74,64,68
254.76898,255.23051,74,64,68
255.69205,256.1536,77,64,68
256.61514,257.07666,77,64,68
258.46127,258.92282,74,64,68
259.38437,259.8459,74,64,68
261.2305,261.3459,74,64,68
262.1536,263.99973,75,64,68
263.99973,264.69205,74,64,68
265.8459,267.69205,75,64,68
268.6151,269.07666,67,64,68
269.53818,269.99973,60,64,68
271.38434,272.07666,72,64,68
273.2305,275.07666,72,64,68
275.07666,275.76895,72,64,68
276.9228,277.38434,72,64,68
278.3074,278.76895,75,64,68
278.76895,279.46127,74,64,68
279.46127,279.69202,72,64,68
279.69202,280.15356,71,64,68
280.15356,280.6151,72,64,68
281.07663,281.53818,74,64,68
281.99973,282.46124,71,64,68
282.46124,282.9228,72,64,68
315.692,315.92276,67,64,68
316.15353,316.3843,79,64,68
316.3843,316.61508,79,64,68
316.61508,316.84583,79,64,68
316.84583,317.0766,79,64,68
317.0766,317.30737,79,64,68
317.30737,317.53815,79,64,68
317.53815,317.9997,79,64,68
318.23044,318.4612,74,64,68
318.4612,318.5766,72,64,68
318.5766,318.692,74,64,68
318.692,318.80737,72,64,68
318.80737,318.92276,74,64,68
318.92276,319.15353,75,64,68
319.15353,319.3843,74,64,68
319.3843,319.84583,74,64,68
320.0766,320.30737,71,64,68
320.30737,320.42276,69,64,68
320.42276,320.53815,71,64,68
320.53815,320.65353,69,64,68
320.65353,320.76892,71,64,68
320.76892,320.99966,72,64,68
320.99966,321.23044,71,64,68
321.23044,321.692,71,64,68
321.92276,322.15353,74,64,68
322.15353,322.26892,72,64,68
322.26892,322.3843,74,64,68
322.3843,322.49966,72,64,68
322.49966,322.61505,74,64,68
322.61505,322.84583,75,64,68
322.84583,323.0766,74,64,68
323.0766,323.53815,74,64,68
323.76892,323.99966,71,64,68
323.99966,324.11505,69,64,68
324.11505,324.23044,71,64,68
324.23044,324.34583,69,64,68
324.34583,324.4612,71,64,68
324.4612,324.692,72,64,68
324.692,324.92276,71,64,68
324.92276,325.15353,72,64,68
325.15353,325.38428,71,64,68
325.38428,325.61505,72,64,68
325.61505,325.84583,71,64,68
325.84583,326.0766,72,64,68
326.0766,326.30737,71,64,68
326.30737,326.53815,72,64,68
326.53815,326.7689,71,64,68
326.7689,327.23044,71,64,68
327.692,328.1535,67,64,68
328.1535,328.61505,67,64,68
328.61505,329.0766,68,64,68
329.53815,329.99966,68,64,68
329.99966,330.4612,68,64,68
330.4612,330.92276,67,64,68
331.38428,331.84583,67,64,68
331.84583,332.30737,67,64,68
332.30737,332.7689,65,64,68
333.23044,333.692,63,64,68
334.1535,334.61505,62,64,68
356.76886,357.2304,68,64,68
357.2304,357.92273,77,64,68
358.61502,359.07657,68,64,68
359.07657,359.76886,77,64,68
359.99963,360.46118,65,64,68
361.38425,361.8458,65,64,68
361.8458,362.30734,63,64,68
369.2304,369.46118,72,64,68
370.15347,370.38425,72,64,68
370.8458,371.07654,72,64,68
371.07654,371.3073,70,64,68
371.5381,371.76886,70,64,68
371.99963,372.2304,70,64,68
372.46115,372.69193,70,64,68
372.9227,373.15347,75,64,68
373.8458,374.07654,75,64,68
374.76886,374.99963,75,64,68
376.15347,376.38425,75,64,68
376.61502,376.84576,72,64,68
377.5381,377.76886,72,64,68
378.23038,378.46115,72,64,68
378.46115,378.69193,70,64,68
378.9227,379.15347,70,64,68
379.38425,379.615,70,64,68
379.84576,380.07654,70,64,68
380.3073,380.5381,70,64,68
381.23038,381.46115,75,64,68
382.15347,382.38425,75,64,68
383.07654,383.3073,75,64,68
383.5381,383.76886,75,64,68
383.9996,384.46115,74,64,68
386.76883,387.23038,69,64,68
387.23038,387.69193,69,64,68
387.69193,388.15347,70,64,68
401.53806,401.9996,67,64,68
401.9996,402.46115,71,64,68
402.46115,403.38422,72,64,68
403.38422,404.30728,69,64,68
404.30728,404.76883,70,64,68
420.92267,421.61496,74,64,68
421.61496,421.84573,75,64,68
421.84573,422.30728,77,64,68
422.30728,422.7688,74,64,68
422.7688,423.23035,75,64,68
424.61496,425.30728,74,64,68
425.30728,425.53802,75,64,68
425.53802,425.99957,77,64,68
425.99957,426.46112,77,64,68
426.46112,426.92264,75,64,68
428.30725,428.7688,72,64,68
430.1534,430.61496,75,64,68
431.99957,432.46112,75,64,68
432.46112,432.92264,75,64,68
432.92264,433.3842,72,64,68
433.84573,435.69186,75,64,68
440.7688,441.23032,79,64,68
441.23032,443.07648,77,64,68
443.07648,443.53802,76,64,68
447.23032,447.69186,70,64,68
448.1534,448.61493,70,64,68
448.61493,449.07648,70,64,68
449.07648,449.53802,77,64,68
450.4611,450.92264,79,64,68
450.92264,451.38416,75,64,68
451.8457,452.30725,74,64,68
458.30722,458.76877,70,64,68
458.76877,459.23032,70,64,68
459.23032,459.69183,70,64,68
459.69183,461.07648,77,64,68
461.538,461.99954,76,64,68
465.69183,466.15338,70,64,68
466.61493,467.538,70,64,68
467.538,467.99954,77,64,68
468.9226,469.38416,79,64,68
469.38416,469.84567,75,64,68
470.30722,470.76877,74,64,68
476.30722,477.2303,75,64,68
478.15338,478.6149,75,64,68
479.9995,481.84567,75,64,68
481.84567,483.69183,77,64,68
483.69183,484.15335,77,64,68
484.6149,485.07645,75,64,68
485.53796,485.9995,77,64,68
487.38412,487.84567,74,64,68
489.2303,489.6918,75,64,68
5.538456,5.769225,75,64,71
5.769225,5.999994,67,64,71
5.999994,6.230763,70,64,71
7.615377,7.846146,70,64,71
7.846146,8.076915,73,64,71
9.461529,9.692298,72,64,71
9.692298,9.923067,72,64,71
11.307681,11.53845,67,64,71
11.53845,11.769219,70,64,71
13.153833,13.384602,68,64,71
13.384602,13.615371,72,64,71
15.230754,15.692292,68,64,71
15.692292,16.15383,80,64,71
17.076906,17.538445,68,64,71
17.538445,17.999983,80,64,71
18.46152,18.923058,56,64,71
18.923058,19.384596,56,64,71
19.384596,20.076902,65,64,71
20.076902,20.307673,62,64,71
20.307673,20.76921,75,64,71
20.76921,21.230747,79,64,71
21.230747,21.692286,75,64,71
23.0769,23.999975,72,64,71
23.999975,24.461514,65,64,71
24.461514,25.38459,70,64,71
25.38459,26.307667,68,64,71
26.307667,26.769203,67,64,71
26.769203,26.999973,67,64,71
26.999973,27.230742,65,64,71
27.230742,27.461512,63,64,71
27.461512,27.69228,62,64,71
27.69228,28.153818,63,64,71
28.153818,28.615356,79,64,71
28.615356,29.076895,75,64,71
30.461508,31.384584,68,64,71
31.384584,31.846123,68,64,71
31.846123,32.7692,67,64,71
32.7692,33.692272,65,64,71
33.692272,34.153812,63,64,71
34.153812,34.61535,60,64,71
34.61535,35.07689,68,64,71
35.07689,35.538425,75,64,71
36.92304,37.38458,75,64,71
37.61535,37.846115,75,64,71
37.846115,37.961502,74,64,71
37.961502,38.076885,75,64,71
38.076885,38.19227,74,64,71
38.19227,38.307655,75,64,71
38.307655,38.53842,77,64,71
38.53842,38.76919,75,64,71
38.76919,39.23073,75,64,71
39.4615,39.69227,75,64,71
39.69227,39.80765,74,64,71
39.80765,39.92304,75,64,71
39.92304,40.03842,74,64,71
40.03842,40.153805,75,64,71
40.153805,40.384575,77,64,71
40.384575,40.615345,75,64,71
40.615345,41.53842,80,64,71
41.53842,42.23073,77,64,71
42.23073,42.461494,75,64,71
42.461494,42.923035,74,64,71
42.923035,43.38457,72,64,71
43.38457,43.84611,70,64,71
43.84611,44.307648,68,64,71
44.307648,44.769184,67,64,71
44.769184,45.230724,67,64,71
45.230724,45.69226,68,64,71
46.1538,46.615337,70,64,71
46.615337,47.076878,70,64,71
47.076878,47.538414,75,64,71
47.538414,47.99995,79,64,71
47.99995,48.923027,80,64,71
48.923027,49.615334,77,64,71
49.615334,49.846104,75,64,71
49.846104,50.307644,74,64,71
50.307644,50.76918,72,64,71
50.76918,51.230717,70,64,71
51.230717,51.692257,68,64,71
51.692257,52.153793,67,64,71
52.153793,52.615334,55,64,71
52.615334,53.07687,68,64,71
53.07687,53.538406,56,64,71
53.538406,53.999947,70,64,71
53.999947,54.461483,58,64,71
54.461483,54.923023,75,64,71
54.923023,55.38456,75,64,71
55.38456,55.8461,74,64,71
58.15379,58.615326,69,64,71
58.615326,59.076862,69,64,71
59.076862,59.538403,70,64,71
61.846092,62.30763,69,64,71
62.30763,62.76917,69,64,71
62.76917,63.692245,70,64,71
63.692245,64.61532,72,64,71
64.61532,65.07686,74,64,71
65.5384,65.99993,74,64,71
65.99993,66.46147,75,64,71
66.46147,66.92301,76,64,71
66.92301,67.384544,77,64,71
67.384544,67.61532,75,64,71
67.61532,67.846085,74,64,71
67.846085,68.07686,72,64,71
68.07686,68.307625,70,64,71
68.307625,68.769165,68,64,71
68.769165,69.2307,67,64,71
69.2307,69.69224,65,64,71
69.69224,70.15378,65,64,71
70.15378,70.846085,65,64,71
70.846085,71.07685,70,64,71
71.07685,71.30762,70,64,71
71.30762,71.53839,69,64,71
71.53839,71.76916,70,64,71
71.76916,71.99993,72,64,71
71.99993,72.2307,65,64,71
72.2307,72.461464,67,64,71
72.461464,72.69224,69,64,71
72.69224,72.923004,70,64,71
72.923004,73.384544,62,64,71
73.384544,73.84608,69,64,71
73.84608,74.76916,70,64,71
74.76916,75.69223,72,64,71
75.69223,75.923004,69,64,71
75.923004,76.15377,65,64,71
76.15377,76.38454,65,64,71
76.38454,76.61531,65,64,71
76.61531,76.84608,65,64,71
76.84608,77.07684,65,64,71
77.07684,77.30762,65,64,71
77.30762,77.53838,65,64,71
77.53838,77.76915,65,64,71
77.76915,77.99992,65,64,71
77.99992,78.23069,65,64,71
78.23069,78.46146,65,64,71
78.46146,78.69223,65,64,71
78.69223,78.923,65,64,71
78.923,79.15377,65,64,71
79.15377,79.38454,65,64,71
79.38454,79.6153,65,64,71
79.6153,79.84608,65,64,71
79.84608,80.07684,65,64,71
80.07684,80.30761,74,64,71
80.30761,80.53838,73,64,71
80.53838,80.76915,74,64,71
80.76915,80.999916,75,64,71
80.999916,81.23069,72,64,71
81.23069,81.46146,69,64,71
81.46146,81.69222,65,64,71
81.69222,81.923,69,64,71
81.923,82.15376,70,64,71
82.15376,82.38454,72,64,71
82.38454,82.6153,65,64,71
82.6153,82.84607,74,64,71
82.84607,83.07684,65,64,71
83.07684,83.538376,70,64,71
86.76914,86.999916,65,64,71
86.999916,87.23068,70,64,71
87.23068,87.46145,74,64,71
87.46145,87.69222,77,64,71
87.69222,87.92299,76,64,71
87.92299,88.153755,77,64,71
88.153755,88.38453,79,64,71
88.38453,88.615295,75,64,71
88.615295,89.3076,72,64,71
89.3076,89.53837,74,64,71
89.53837,89.99991,75,64,71
89.99991,90.46145,77,64,71
90.46145,90.92299,74,64,71
92.3076,92.769135,74,64,71
94.153755,95.9999,77,64,71
95.9999,96.46144,79,64,71
97.846054,98.769135,80,64,71
98.769135,99.23067,77,64,71
99.23067,99.69221,74,64,71
99.69221,100.15375,70,64,71
100.15375,100.61529,68,64,71
100.61529,101.07682,67,64,71
101.07682,101.53836,69,64,71
101.53836,101.9999,70,64,71
101.9999,102.46143,72,64,71
102.46143,102.92297,74,64,71
102.92297,103.384514,75,64,71
103.384514,103.84605,77,64,71
103.84605,104.30759,79,64,71
104.30759,104.76913,72,64,71
104.76913,105.23067,77,64,71
105.23067,105.6922,74,64,71
107.07681,107.53835,74,64,71
107.76912,107.99989,65,64,71
107.99989,108.23066,65,64,71
108.23066,108.46143,65,64,71
108.46143,108.6922,65,64,71
108.6922,108.922966,65,64,71
108.922966,110.76912,77,64,71
110.76912,111.23066,79,64,71
113.538345,114.92296,80,64,71
114.92296,115.3845,74,64,71
115.3845,115.84604,75,64,71
115.84604,116.30758,72,64,71
116.30758,116.76911,74,64,71
116.76911,117.23065,69,64,71
117.23065,117.69219,70,64,71
117.69219,118.153725,67,64,71
118.153725,118.615265,65,64,71
118.615265,119.076805,64,64,71
119.076805,119.538345,67,64,71
119.538345,119.99988,63,64,71
119.99988,120.46142,62,64,71
120.692184,120.92296,77,64,71
120.92296,121.03834,75,64,71
121.03834,121.153725,77,64,71
121.153725,121.26911,75,64,71
121.26911,121.38449,77,64,71
121.38449,121.615265,78,64,71
121.615265,121.84603,77,64,71
121.84603,122.30757,77,64,71
122.53834,122.76911,77,64,71
122.76911,122.88449,75,64,71
122.88449,122.99988,77,64,71
122.99988,123.115265,75,64,71
123.115265,123.230644,77,64,71
123.230644,123.46142,79,64,71
123.46142,123.692184,77,64,71
123.692184,124.153725,77,64,71
124.38449,124.61526,77,64,71
124.61526,124.730644,75,64,71
124.730644,124.84603,77,64,71
124.84603,124.96141,75,64,71
124.96141,125.0768,77,64,71
125.0768,125.30756,78,64,71
125.30756,125.53834,77,64,71
125.53834,125.769104,79,64,71
125.769104,125.99987,77,64,71
125.99987,126.230644,78,64,71
126.230644,126.46141,77,64,71
126.46141,126.692184,79,64,71
126.692184,126.92295,77,64,71
126.92295,127.15372,79,64,71
127.15372,127.38449,77,64,71
127.38449,127.84602,77,64,71
128.30757,128.7691,86,64,71
129.23064,129.69218,86,64,71
132.92294,133.15372,75,64,71
133.15372,133.38448,67,64,71
133.38448,133.61525,70,64,71
134.99986,135.23064,70,64,71
135.23064,135.46141,73,64,71
136.84602,137.07678,72,64,71
137.07678,137.30756,72,64,71
138.69217,138.92294,67,64,71
138.92294,139.1537,70,64,71
140.53831,140.76909,68,64,71
140.76909,140.99986,72,64,71
142.61523,143.07678,68,64,71
143.07678,143.53831,80,64,71
144.4614,144.92293,68,64,71
144.92293,145.38448,80,64,71
145.84601,146.30754,56,64,71
146.30754,146.76909,56,64,71
146.76909,147.4614,65,64,71
147.4614,147.69215,62,64,71
147.69215,148.1537,75,64,71
148.1537,148.61523,79,64,71
148.61523,149.07677,75,64,71
150.4614,151.38446,72,64,71
151.38446,151.84601,65,64,71
151.84601,152.76907,70,64,71
152.76907,153.69215,68,64,71
153.69215,154.15369,67,64,71
154.15369,154.38446,67,64,71
154.38446,154.61523,65,64,71
154.61523,154.846,63,64,71
154.846,155.07677,62,64,71
155.07677,155.5383,63,64,71
155.5383,155.99985,79,64,71
155.99985,156.46138,75,64,71
157.846,158.76907,68,64,71
158.76907,159.2306,68,64,71
159.2306,160.15369,67,64,71
160.15369,161.07677,65,64,71
161.07677,161.5383,63,64,71
161.5383,161.99983,60,64,71
161.99983,162.46138,68,64,71
162.46138,162.92291,75,64,71
164.30753,164.76907,75,64,71
164.99983,165.2306,75,64,71
165.2306,165.346,74,64,71
165.346,165.46138,75,64,71
165.46138,165.57675,74,64,71
165.57675,165.69214,75,64,71
165.69214,165.92291,77,64,71
165.92291,166.15369,75,64,71
166.15369,166.61522,75,64,71
166.846,167.07675,75,64,71
167.07675,167.19214,74,64,71
167.19214,167.30753,75,64,71
167.30753,167.42291,74,64,71
167.42291,167.5383,75,64,71
167.5383,167.76906,77,64,71
167.76906,167.99983,75,64,71
167.99983,168.92291,80,64,71
168.92291,169.61522,77,64,71
169.61522,169.84598,75,64,71
169.84598,170.30753,74,64,71
170.30753,170.76906,72,64,71
170.76906,171.23059,70,64,71
171.23059,171.69214,68,64,71
171.69214,172.15367,67,64,71
172.15367,172.61522,67,64,71
172.61522,173.07675,68,64,71
173.53828,173.99983,70,64,71
173.99983,174.46136,70,64,71
174.46136,174.9229,75,64,71
174.9229,175.38445,79,64,71
175.38445,176.30751,80,64,71
176.30751,176.99982,77,64,71
176.99982,177.23059,75,64,71
177.23059,177.69212,74,64,71
177.69212,178.15367,72,64,71
178.15367,178.6152,70,64,71
178.6152,179.07674,68,64,71
179.07674,179.53828,67,64,71
179.53828,179.99982,55,64,71
179.99982,180.46136,68,64,71
180.46136,180.9229,56,64,71
180.9229,181.38443,70,64,71
181.38443,181.84598,58,64,71
181.84598,182.30751,75,64,71
182.30751,182.76904,75,64,71
182.76904,183.23059,74,64,71
185.53827,185.99982,69,64,71
185.99982,186.46135,69,64,71
186.46135,186.9229,70,64,71
189.23058,189.69212,69,64,71
189.69212,190.15366,69,64,71
190.15366,191.07674,70,64,71
191.07674,191.9998,72,64,71
191.9998,192.46135,74,64,71
192.92288,193.38441,74,64,71
193.38441,193.84596,75,64,71
193.84596,194.3075,76,64,71
194.3075,194.76904,77,64,71
194.76904,194.9998,75,64,71
194.9998,195.23058,74,64,71
195.23058,195.46135,72,64,71
195.46135,195.69211,70,64,71
195.69211,196.15366,68,64,71
196.15366,196.61519,67,64,71
196.61519,197.07672,65,64,71
197.07672,197.53827,65,64,71
197.53827,198.23058,65,64,71
198.23058,198.46133,70,64,71
198.46133,198.69211,70,64,71
198.69211,198.92288,69,64,71
198.92288,199.15364,70,64,71
199.15364,199.38441,72,64,71
199.38441,199.61519,65,64,71
199.61519,199.84595,67,64,71
199.84595,200.07672,69,64,71
200.07672,200.3075,70,64,71
200.3075,200.76903,62,64,71
200.76903,201.23058,69,64,71
201.23058,202.15364,70,64,71
202.15364,203.07672,72,64,71
203.07672,203.3075,69,64,71
203.3075,203.53825,65,64,71
203.53825,203.76903,65,64,71
203.76903,203.9998,65,64,71
203.9998,204.23056,65,64,71
204.23056,204.46133,65,64,71
204.46133,204.69211,65,64,71
204.69211,204.92287,65,64,71
204.92287,205.15364,65,64,71
205.15364,205.38441,65,64,71
205.38441,205.61517,65,64,71
205.61517,205.84595,65,64,71
205.84595,206.07672,65,64,71
206.07672,206.30748,65,64,71
206.30748,206.53825,65,64,71
206.53825,206.76903,65,64,71
206.76903,206.99979,65,64,71
206.99979,207.23056,65,64,71
207.23056,207.46133,65,64,71
207.46133,207.6921,74,64,71
207.6921,207.92287,73,64,71
207.92287,208.15364,74,64,71
208.15364,208.3844,75,64,71
208.3844,208.61517,72,64,71
208.61517,208.84595,69,64,71
208.84595,209.07672,65,64,71
209.07672,209.30748,69,64,71
209.30748,209.53825,70,64,71
209.53825,209.76903,72,64,71
209.76903,209.99979,65,64,71
209.99979,210.23056,74,64,71
210.23056,210.46133,65,64,71
210.46133,210.92287,70,64,71
214.15363,214.3844,65,64,71
214.3844,214.61517,70,64,71
214.61517,214.84593,74,64,71
214.84593,215.0767,77,64,71
215.0767,215.30748,76,64,71
215.30748,215.53824,77,64,71
215.53824,215.76901,79,64,71
215.76901,215.99979,75,64,71
215.99979,216.6921,72,64,71
216.6921,216.92287,74,64,71
216.92287,217.3844,75,64,71
217.3844,217.84593,77,64,71
217.84593,218.30748,74,64,71
219.6921,220.15363,74,64,71
221.53824,223.3844,77,64,71
223.3844,223.84593,79,64,71
225.23055,226.15363,80,64,71
226.15363,226.61516,77,64,71
226.61516,227.07669,74,64,71
227.07669,227.53824,70,64,71
227.53824,227.99977,68,64,71
227.99977,228.4613,67,64,71
228.4613,228.92285,69,64,71
228.92285,229.38438,70,64,71
229.38438,229.84592,72,64,71
229.84592,230.30746,74,64,71
230.30746,230.769,75,64,71
230.769,231.23055,77,64,71
231.23055,231.69208,79,64,71
231.69208,232.15361,72,64,71
232.15361,232.61516,77,64,71
232.61516,233.07669,74,64,71
234.4613,234.92284,74,64,71
235.15361,235.38438,65,64,71
235.38438,235.61514,65,64,71
235.61514,235.84592,65,64,71
235.84592,236.07669,65,64,71
236.07669,236.30745,65,64,71
236.30745,238.15361,77,64,71
238.15361,238.61514,79,64,71
240.92284,242.30745,80,64,71
242.30745,242.76898,74,64,71
242.76898,243.23053,75,64,71
243.23053,243.69206,72,64,71
243.69206,244.1536,74,64,71
244.1536,244.61514,69,64,71
244.61514,245.07668,70,64,71
245.07668,245.53822,67,64,71
245.53822,245.99976,65,64,71
245.99976,246.46129,64,64,71
246.46129,246.92284,67,64,71
246.92284,247.38437,63,64,71
247.38437,247.8459,62,64,71
248.07668,248.30745,77,64,71
248.30745,248.42282,75,64,71
248.42282,248.53821,77,64,71
248.53821,248.6536,75,64,71
248.6536,248.76898,77,64,71
248.76898,248.99976,78,64,71
248.99976,249.23051,77,64,71
249.23051,249.69206,77,64,71
249.92282,250.1536,77,64,71
250.1536,250.26898,75,64,71
250.26898,250.38437,77,64,71
250.38437,250.49976,75,64,71
250.49976,250.61513,77,64,71
250.61513,250.8459,79,64,71
250.8459,251.07668,77,64,71
251.07668,251.53821,77,64,71
251.76898,251.99974,77,64,71
251.99974,252.11513,75,64,71
252.11513,252.23051,77,64,71
252.23051,252.3459,75,64,71
252.3459,252.46129,77,64,71
252.46129,252.69206,78,64,71
252.69206,252.92282,77,64,71
252.92282,253.1536,79,64,71
253.1536,253.38437,77,64,71
253.38437,253.61513,78,64,71
253.61513,253.8459,77,64,71
253.8459,254.07668,79,64,71
254.07668,254.30743,77,64,71
254.30743,254.53821,79,64,71
254.53821,254.76898,77,64,71
254.76898,255.23051,77,64,71
255.69205,256.1536,86,64,71
256.61514,257.07666,86,64,71
258.46127,258.92282,74,64,71
259.38437,259.8459,74,64,71
260.30743,260.76898,79,64,71
261.2305,262.1536,62,64,71
262.1536,262.8459,75,64,71
262.8459,263.07666,75,64,71
263.07666,263.19205,74,64,71
263.19205,263.30743,75,64,71
263.30743,263.42282,74,64,71
263.42282,263.5382,75,64,71
263.5382,263.76898,77,64,71
263.76898,263.99973,75,64,71
263.99973,265.8459,74,64,71
265.8459,266.5382,75,64,71
266.5382,266.76895,75,64,71
266.76895,266.88434,74,64,71
266.88434,266.99973,75,64,71
266.99973,267.1151,74,64,71
267.1151,267.2305,75,64,71
267.2305,267.46127,77,64,71
267.46127,267.69205,75,64,71
267.69205,268.15356,74,64,71
268.6151,269.07666,79,64,71
269.53818,269.99973,72,64,71
270.46127,271.38434,67,64,71
271.38434,273.2305,68,64,71
273.2305,275.07666,67,64,71
275.07666,276.9228,68,64,71
276.9228,277.38434,67,64,71
278.3074,278.76895,67,64,71
278.76895,279.69202,67,64,71
279.69202,280.15356,68,64,71
280.15356,280.6151,67,64,71
281.07663,281.53818,68,64,71
281.99973,282.46124,67,64,71
282.46124,282.9228,67,64,71
282.9228,283.38434,75,64,71
283.38434,283.84586,75,64,71
283.84586,284.3074,75,64,71
284.3074,284.99973,73,64,71
284.99973,285.23047,72,64,71
285.23047,285.69202,70,64,71
285.69202,286.15356,72,64,71
286.6151,287.07663,73,64,71
287.53818,287.99973,70,64,71
287.99973,288.23047,68,64,71
288.23047,288.46124,72,64,71
288.46124,288.69202,70,64,71
288.69202,288.9228,68,64,71
288.9228,289.15356,63,64,71
289.15356,289.38434,72,64,71
289.38434,289.61508,70,64,71
289.61508,289.84586,68,64,71
290.07663,290.3074,73,64,71
290.3074,290.53818,72,64,71
290.53818,290.76895,70,64,71
290.76895,290.9997,68,64,71
290.9997,291.23047,67,64,71
291.23047,291.46124,65,64,71
291.46124,291.69202,63,64,71
291.9228,292.15356,73,64,71
292.15356,292.3843,72,64,71
292.3843,292.61508,70,64,71
292.84586,293.07663,73,64,71
293.07663,293.3074,72,64,71
293.3074,293.53818,70,64,71
293.76895,293.9997,75,64,71
293.9997,294.23047,73,64,71
294.23047,294.46124,72,64,71
294.46124,294.69202,70,64,71
294.69202,294.9228,68,64,71
294.9228,295.15356,67,64,71
295.15356,295.3843,68,64,71
295.3843,295.61508,68,64,71
295.61508,295.84586,62,64,71
295.84586,296.07663,63,64,71
296.07663,296.3074,65,64,71
296.3074,296.76892,65,64,71
297.23047,297.46124,70,64,71
297.46124,297.69202,67,64,71
297.69202,298.15353,68,64,71
298.3843,298.61508,67,64,71
298.61508,299.07663,68,64,71
299.07663,299.3074,70,64,71
299.3074,299.53815,62,64,71
299.53815,299.76892,63,64,71
299.76892,299.9997,65,64,71
299.9997,300.46124,65,64,71
300.9228,301.15353,70,64,71
301.15353,301.3843,62,64,71
301.3843,301.61508,63,64,71
301.61508,301.84586,65,64,71
302.07663,302.3074,62,64,71
302.3074,302.53815,63,64,71
302.53815,302.76892,65,64,71
302.76892,302.9997,70,64,71
302.9997,303.23047,63,64,71
303.23047,303.46124,65,64,71
303.46124,303.69202,67,64,71
303.69202,304.15353,67,64,71
304.61508,304.84586,71,64,71
304.84586,305.07663,80,64,71
305.07663,305.30737,79,64,71
305.30737,305.53815,77,64,71
305.53815,305.76892,75,64,71
305.76892,305.9997,74,64,71
305.9997,306.23047,72,64,71
306.23047,306.46124,71,64,71
306.46124,306.692,72,64,71
306.692,306.92276,75,64,71
306.92276,307.15353,74,64,71
307.15353,307.3843,72,64,71
307.61508,307.84586,75,64,71
307.84586,308.07663,74,64,71
308.07663,308.30737,72,64,71
308.53815,308.76892,77,64,71
308.76892,308.9997,75,64,71
308.9997,309.23047,74,64,71
309.23047,309.46124,72,64,71
309.46124,309.692,71,64,71
309.692,309.92276,69,64,71
309.92276,310.15353,67,64,71
310.3843,310.61508,77,64,71
310.61508,310.84586,75,64,71
310.84586,311.0766,74,64,71
311.30737,311.53815,77,64,71
311.53815,311.76892,75,64,71
311.76892,311.9997,74,64,71
312.23047,312.4612,79,64,71
312.4612,312.692,77,64,71
312.692,312.92276,75,64,71
312.92276,313.15353,74,64,71
313.15353,313.3843,72,64,71
313.3843,313.61508,71,64,71
313.61508,313.84583,72,64,71
313.84583,314.30737,71,64,71
314.53815,314.76892,72,64,71
314.76892,314.9997,74,64,71
314.9997,315.23047,75,64,71
315.23047,315.4612,77,64,71
315.4612,315.692,75,64,71
315.692,315.92276,74,64,71
315.92276,316.3843,71,64,71
316.3843,316.61508,72,64,71
316.61508,316.84583,74,64,71
316.84583,317.0766,75,64,71
317.0766,317.30737,77,64,71
317.30737,317.53815,75,64,71
317.53815,317.9997,74,64,71
319.3843,319.84583,74,64,71
320.0766,320.30737,74,64,71
320.30737,320.42276,72,64,71
320.42276,320.53815,74,64,71
320.53815,320.65353,72,64,71
320.65353,320.76892,74,64,71
320.76892,320.99966,75,64,71
320.99966,321.23044,74,64,71
321.23044,321.692,74,64,71
323.0766,323.53815,74,64,71
323.76892,323.99966,74,64,71
323.99966,324.11505,72,64,71
324.11505,324.23044,74,64,71
324.23044,324.34583,72,64,71
324.34583,324.4612,74,64,71
324.4612,324.692,75,64,71
324.692,324.92276,74,64,71
324.92276,325.15353,75,64,71
325.15353,325.38428,74,64,71
325.38428,325.61505,75,64,71
325.61505,325.84583,74,64,71
325.84583,326.0766,75,64,71
326.0766,326.30737,74,64,71
326.30737,326.53815,75,64,71
326.53815,326.7689,74,64,71
326.7689,327.23044,74,64,71
327.692,328.1535,79,64,71
328.1535,328.61505,79,64,71
328.61505,329.0766,80,64,71
329.53815,329.99966,80,64,71
329.99966,330.4612,80,64,71
330.4612,330.92276,79,64,71
331.38428,331.84583,79,64,71
331.84583,332.30737,79,64,71
332.30737,332.7689,77,64,71
333.23044,333.692,75,64,71
334.1535,334.61505,74,64,71
339.23044,339.69196,70,64,71
339.69196,339.92273,69,64,71
339.92273,340.1535,70,64,71
340.1535,340.38428,69,64,71
340.38428,340.61505,70,64,71
340.61505,341.07657,72,64,71
341.07657,341.53812,70,64,71
341.53812,341.99966,70,64,71
342.92273,343.38428,70,64,71
343.38428,343.84583,69,64,71
343.84583,344.30734,70,64,71
344.30734,344.7689,70,64,71
344.7689,345.23044,70,64,71
345.23044,347.07657,71,64,71
347.07657,347.53812,70,64,71
348.46118,348.92273,70,64,71
348.92273,350.7689,71,64,71
350.7689,351.2304,70,64,71
355.38425,355.61502,70,64,71
355.61502,355.8458,72,64,71
355.8458,356.07657,74,64,71
356.07657,356.30734,75,64,71
356.30734,356.99963,77,64,71
356.99963,357.2304,75,64,71
357.2304,357.46118,75,64,71
357.46118,357.69196,74,64,71
357.69196,357.92273,72,64,71
357.92273,358.15347,70,64,71
358.15347,358.8458,80,64,71
358.8458,359.07657,75,64,71
359.07657,359.30734,75,64,71
359.30734,359.53812,74,64,71
359.53812,359.76886,72,64,71
359.76886,359.99963,70,64,71
359.99963,360.69196,80,64,71
360.69196,360.92273,79,64,71
360.92273,361.15347,79,64,71
361.15347,361.38425,77,64,71
361.38425,361.61502,75,64,71
361.61502,361.8458,74,64,71
361.8458,362.07657,75,64,71
362.07657,362.30734,67,64,71
362.30734,362.76886,70,64,71
363.9227,364.15347,70,64,71
364.15347,364.61502,73,64,71
365.76886,365.99963,72,64,71
365.99963,366.46118,72,64,71
367.61502,367.8458,67,64,71
367.8458,368.3073,70,64,71
368.99963,369.2304,72,64,71
369.2304,370.15347,80,64,71
370.15347,370.8458,77,64,71
370.8458,371.07654,75,64,71
371.07654,371.5381,74,64,71
371.5381,371.99963,72,64,71
371.99963,372.46115,70,64,71
372.46115,372.9227,68,64,71
372.9227,373.38425,67,64,71
373.38425,373.8458,67,64,71
373.8458,374.3073,68,64,71
374.76886,375.2304,70,64,71
375.2304,375.69193,70,64,71
375.69193,376.15347,75,64,71
376.15347,376.61502,79,64,71
376.61502,377.5381,80,64,71
377.5381,378.23038,77,64,71
378.23038,378.46115,75,64,71
378.46115,378.9227,74,64,71
378.9227,379.38425,72,64,71
379.38425,379.84576,70,64,71
379.84576,380.3073,68,64,71
380.3073,380.76886,67,64,71
380.76886,381.23038,55,64,71
381.23038,381.69193,68,64,71
381.69193,382.15347,56,64,71
382.15347,382.615,70,64,71
382.615,383.07654,58,64,71
383.07654,383.5381,75,64,71
383.5381,383.9996,75,64,71
383.9996,384.46115,74,64,71
384.69193,384.9227,70,64,71
384.9227,385.0381,69,64,71
385.0381,385.15347,70,64,71
385.15347,385.26886,69,64,71
385.26886,385.38422,70,64,71
385.38422,385.615,72,64,71
385.615,385.84576,70,64,71
385.84576,386.76883,69,64,71
386.76883,387.23038,63,64,71
387.23038,387.69193,63,64,71
387.69193,388.15347,62,64,71
390.46115,390.9227,67,64,71
390.9227,391.38422,67,64,71
391.38422,392.07654,67,64,71
392.07654,392.3073,72,64,71
392.3073,392.53806,72,64,71
392.53806,392.76883,71,64,71
392.76883,392.9996,72,64,71
392.9996,393.23038,74,64,71
393.23038,393.69193,67,64,71
394.15344,394.615,63,64,71
394.615,395.07654,63,64,71
395.07654,395.9996,65,64,71
395.9996,396.92267,63,64,71
396.92267,397.84576,63,64,71
397.84576,398.07654,70,64,71
398.07654,398.30728,72,64,71
398.30728,398.53806,73,64,71
398.53806,398.76883,74,64,71
398.76883,398.9996,75,64,71
398.9996,399.23038,76,64,71
399.23038,399.46115,77,64,71
399.46115,399.6919,79,64,71
399.6919,400.84576,80,64,71
400.84576,401.0765,79,64,71
401.0765,401.30728,77,64,71
401.30728,401.53806,75,64,71
401.53806,401.76883,78,64,71
401.76883,401.9996,79,64,71
401.9996,402.23038,78,64,71
402.23038,402.46115,79,64,71
402.46115,402.92267,79,64,71
402.92267,403.15344,72,64,71
403.15344,403.38422,74,64,71
403.38422,403.615,75,64,71
403.615,403.84576,77,64,71
403.84576,404.0765,79,64,71
404.0765,404.30728,81,64,71
404.30728,404.76883,82,64,71
404.9996,405.23038,70,64,71
405.23038,405.46112,69,64,71
405.46112,405.6919,70,64,71
405.6919,405.92267,72,64,71
405.92267,406.15344,68,64,71
406.15344,406.84573,65,64,71
406.84573,407.0765,67,64,71
407.0765,407.53806,68,64,71
407.53806,407.9996,70,64,71
407.9996,408.46112,67,64,71
408.6919,408.92267,79,64,71
408.92267,409.15344,78,64,71
409.15344,409.38422,79,64,71
409.38422,409.615,80,64,71
409.615,409.84573,77,64,71
409.84573,410.53806,74,64,71
410.53806,410.76883,75,64,71
410.76883,411.23035,77,64,71
411.23035,411.6919,79,64,71
411.6919,412.15344,75,64,71
412.38422,412.61496,70,64,71
412.61496,412.84573,69,64,71
412.84573,413.0765,70,64,71
413.0765,413.30728,72,64,71
413.30728,413.53806,68,64,71
413.53806,414.23035,65,64,71
414.23035,414.46112,67,64,71
414.46112,414.92267,68,64,71
414.92267,415.3842,70,64,71
415.3842,415.49957,67,64,71
415.49957,415.61496,70,64,71
415.61496,415.73035,72,64,71
415.73035,415.84573,74,64,71
415.84573,415.96112,75,64,71
415.96112,416.0765,77,64,71
416.0765,416.1919,79,64,71
416.1919,416.30728,77,64,71
416.30728,416.42267,75,64,71
416.42267,416.53806,74,64,71
416.53806,416.65344,72,64,71
416.65344,416.7688,70,64,71
416.7688,416.8842,68,64,71
416.8842,416.99957,67,64,71
416.99957,417.11496,65,64,71
417.11496,417.23035,63,64,71
417.23035,417.6919,62,64,71
420.92267,421.61496,65,64,71
421.61496,421.84573,67,64,71
421.84573,422.30728,68,64,71
422.30728,422.7688,65,64,71
422.7688,423.23035,67,64,71
424.61496,425.30728,65,64,71
425.30728,425.53802,67,64,71
425.53802,425.99957,68,64,71
425.99957,426.46112,70,64,71
426.46112,426.92264,67,64,71
427.1534,427.3842,75,64,71
427.3842,427.49957,74,64,71
427.49957,427.61496,75,64,71
427.61496,427.73035,74,64,71
427.73035,427.84573,75,64,71
427.84573,428.0765,77,64,71
428.0765,428.30725,75,64,71
428.30725,428.7688,75,64,71
428.99957,429.23035,75,64,71
429.23035,429.34573,74,64,71
429.34573,429.46112,75,64,71
429.46112,429.5765,74,64,71
429.5765,429.69186,75,64,71
429.69186,429.92264,77,64,71
429.92264,430.1534,75,64,71
430.1534,430.61496,75,64,71
430.84573,431.07648,75,64,71
431.07648,431.19186,74,64,71
431.19186,431.30725,75,64,71
431.30725,431.42264,74,64,71
431.42264,431.53802,75,64,71
431.53802,431.7688,77,64,71
431.7688,431.99957,75,64,71
431.99957,432.46112,75,64,71
432.46112,432.92264,75,64,71
432.92264,433.3842,72,64,71
433.3842,433.84573,68,64,71
433.84573,434.07648,67,64,71
434.07648,434.30725,75,64,71
434.30725,434.53802,77,64,71
434.53802,434.7688,79,64,71
434.99957,435.23035,75,64,71
435.23035,435.4611,77,64,71
435.4611,435.69186,79,64,71
435.92264,436.1534,77,64,71
436.1534,436.3842,79,64,71
436.3842,436.61496,80,64,71
436.61496,437.07648,80,64,71
437.7688,437.99957,77,64,71
437.99957,438.23032,79,64,71
438.23032,438.4611,80,64,71
438.69186,438.92264,77,64,71
438.92264,439.1534,79,64,71
439.1534,439.3842,80,64,71
439.61496,439.8457,79,64,71
439.8457,440.07648,80,64,71
440.07648,440.30725,82,64,71
440.30725,440.7688,82,64,71
440.7688,441.23032,82,64,71
441.23032,443.07648,82,64,71
443.07648,443.53802,84,64,71
444.92264,445.8457,73,64,71
445.8457,446.30725,73,64,71
446.30725,446.7688,67,64,71
446.7688,447.23032,73,64,71
447.23032,447.69186,70,64,71
447.69186,448.1534,68,64,71
448.1534,448.61493,68,64,71
448.61493,449.07648,63,64,71
449.07648,449.53802,70,64,71
449.53802,449.99954,67,64,71
449.99954,450.4611,68,64,71
450.4611,450.92264,70,64,71
450.92264,451.38416,72,64,71
451.38416,451.8457,70,64,71
451.8457,452.30725,68,64,71
452.30725,452.538,67,64,71
452.538,452.76877,79,64,71
452.76877,452.99954,77,64,71
452.99954,453.23032,75,64,71
453.4611,453.69186,79,64,71
453.69186,453.92264,77,64,71
453.92264,454.15338,75,64,71
454.38416,454.61493,80,64,71
454.61493,454.8457,79,64,71
454.8457,455.07648,77,64,71
455.07648,455.30725,75,64,71
455.30725,455.538,74,64,71
455.538,455.76877,72,64,71
455.76877,455.99954,70,64,71
456.23032,456.4611,80,64,71
456.4611,456.69186,79,64,71
456.69186,456.9226,77,64,71
457.15338,457.38416,80,64,71
457.38416,457.61493,79,64,71
457.61493,457.8457,77,64,71
458.07648,458.30722,82,64,71
458.30722,458.538,80,64,71
458.538,458.76877,79,64,71
458.76877,458.99954,77,64,71
458.99954,459.23032,75,64,71
459.23032,459.4611,74,64,71
459.4611,459.69183,75,64,71
459.69183,461.07648,82,64,71
461.07648,461.538,83,64,71
461.538,461.99954,84,64,71
463.38416,464.30722,73,64,71
464.30722,464.76877,70,64,71
464.76877,465.23032,67,64,71
465.23032,465.69183,63,64,71
465.69183,466.15338,70,64,71
466.15338,466.61493,68,64,71
466.61493,467.07645,68,64,71
467.07645,467.538,63,64,71
467.538,467.99954,70,64,71
467.99954,468.46106,67,64,71
468.46106,468.9226,75,64,71
468.9226,469.38416,70,64,71
469.38416,469.84567,72,64,71
469.84567,470.30722,70,64,71
470.30722,470.76877,68,64,71
470.76877,471.2303,67,64,71
471.46106,471.69183,63,64,71
471.69183,471.80722,62,64,71
471.80722,471.9226,63,64,71
471.9226,472.038,62,64,71
472.038,472.15338,63,64,71
472.15338,472.38416,65,64,71
472.38416,472.6149,63,64,71
472.6149,473.538,72,64,71
473.538,474.46106,68,64,71
474.46106,474.9226,70,64,71
475.15338,475.38412,75,64,71
475.38412,475.4995,74,64,71
475.4995,475.6149,75,64,71
475.6149,475.7303,74,64,71
475.7303,475.84567,75,64,71
475.84567,476.07645,77,64,71
476.07645,476.30722,75,64,71
476.30722,477.2303,75,64,71
477.2303,478.15338,68,64,71
478.15338,478.6149,75,64,71
478.84567,479.07645,75,64,71
479.07645,479.19183,74,64,71
479.19183,479.30722,75,64,71
479.30722,479.4226,74,64,71
479.4226,479.538,75,64,71
479.538,479.76874,77,64,71
479.76874,479.9995,75,64,71
479.9995,481.84567,84,64,71
481.84567,483.69183,80,64,71
483.69183,484.15335,82,64,71
484.6149,485.07645,79,64,71
485.53796,485.9995,80,64,71
487.38412,487.84567,77,64,71
489.2303,489.6918,79,64,71
5.538456,5.769225,70,64,71
5.769225,5.999994,63,64,71
5.999994,6.230763,67,64,71
7.615377,7.846146,67,64,71
7.846146,8.076915,70,64,71
9.461529,9.692298,68,64,71
9.692298,9.923067,68,64,71
11.307681,11.53845,64,64,71
11.53845,11.769219,67,64,71
13.153833,13.384602,65,64,71
13.384602,13.615371,68,64,71
14.769216,16.615368,68,64,71
16.615368,18.46152,68,64,71
18.46152,19.384596,68,64,71
19.384596,20.307673,65,64,71
20.307673,20.76921,63,64,71
20.76921,21.230747,70,64,71
21.230747,21.692286,70,64,71
23.0769,23.999975,63,64,71
23.999975,24.461514,62,64,71
24.461514,25.38459,63,64,71
25.38459,26.307667,65,64,71
26.307667,26.769203,67,64,71
26.769203,27.230742,60,64,71
27.230742,27.69228,56,64,71
27.69228,28.153818,58,64,71
28.153818,28.615356,70,64,71
28.615356,29.076895,70,64,71
35.07689,35.538425,67,64,71
36.92304,37.38458,72,64,71
38.76919,39.23073,72,64,71
40.615345,41.53842,68,64,71
41.53842,42.23073,65,64,71
42.23073,42.461494,63,64,71
42.461494,42.923035,62,64,71
42.923035,43.38457,60,64,71
43.38457,43.84611,58,64,71
43.84611,44.307648,56,64,71
44.307648,44.769184,55,64,71
47.076878,47.538414,67,64,71
47.538414,47.99995,63,64,71
47.99995,48.923027,68,64,71
48.923027,49.615334,65,64,71
49.615334,49.846104,63,64,71
49.846104,50.307644,62,64,71
50.307644,50.76918,60,64,71
50.76918,51.230717,58,64,71
51.230717,51.692257,65,64,71
54.461483,54.923023,57,64,71
54.923023,55.38456,69,64,71
55.38456,55.8461,70,64,71
58.15379,58.615326,63,64,71
58.615326,59.076862,63,64,71
59.076862,59.538403,65,64,71
63.692245,64.61532,67,64,71
64.61532,65.07686,66,64,71
65.5384,65.99993,68,64,71
65.99993,66.46147,67,64,71
66.46147,66.92301,65,64,71
67.846085,68.07686,62,64,71
68.307625,68.769165,62,64,71
68.769165,69.2307,63,64,71
73.384544,73.84608,66,64,71
73.84608,74.76916,67,64,71
74.76916,75.69223,64,64,71
75.69223,75.923004,65,64,71
80.07684,80.30761,65,64,71
80.30761,80.53838,65,64,71
80.53838,80.76915,65,64,71
80.76915,80.999916,65,64,71
80.999916,81.23069,65,64,71
81.23069,81.46146,65,64,71
81.923,82.15376,65,64,71
82.15376,82.38454,65,64,71
82.6153,82.84607,65,64,71
83.07684,83.538376,65,64,71
86.76914,86.999916,62,64,71
86.999916,87.23068,65,64,71
87.23068,87.46145,70,64,71
87.46145,87.69222,74,64,71
87.69222,87.92299,73,64,71
87.92299,88.153755,74,64,71
88.153755,88.38453,75,64,71
88.38453,88.615295,72,64,71
88.615295,89.3076,69,64,71
89.3076,89.53837,70,64,71
89.53837,89.99991,72,64,71
89.99991,90.46145,69,64,71
90.46145,90.92299,70,64,71
92.3076,92.769135,65,64,71
94.153755,95.9999,72,64,71
95.9999,96.46144,71,64,71
97.846054,98.769135,68,64,71
99.69221,100.15375,68,64,71
100.15375,100.61529,65,64,71
100.61529,101.07682,63,64,71
101.07682,101.53836,63,64,71
101.53836,101.9999,62,64,71
101.9999,102.46143,60,64,71
102.46143,102.92297,62,64,71
102.92297,103.384514,63,64,71
103.384514,103.84605,65,64,71
103.84605,104.30759,67,64,71
104.30759,104.76913,65,64,71
104.76913,105.23067,63,64,71
105.23067,105.6922,62,64,71
107.07681,107.53835,65,64,71
108.922966,110.76912,72,64,71
110.76912,111.23066,71,64,71
113.538345,114.92296,68,64,71
114.92296,115.3845,65,64,71
115.3845,115.84604,63,64,71
115.84604,116.30758,63,64,71
116.30758,116.76911,62,64,71
116.76911,117.23065,63,64,71
117.23065,117.69219,65,64,71
121.84603,122.30757,65,64,71
122.53834,122.76911,65,64,71
122.76911,122.88449,63,64,71
122.88449,122.99988,65,64,71
122.99988,123.115265,63,64,71
123.115265,123.230644,65,64,71
123.230644,123.46142,67,64,71
123.46142,123.692184,65,64,71
123.692184,124.153725,65,64,71
125.99987,126.230644,66,64,71
126.230644,126.46141,65,64,71
126.46141,126.692184,67,64,71
126.692184,126.92295,65,64,71
126.92295,127.15372,67,64,71
127.15372,127.38449,65,64,71
127.38449,127.84602,65,64,71
128.30757,128.7691,74,64,71
129.23064,129.69218,74,64,71
132.92294,133.15372,70,64,71
133.15372,133.38448,63,64,71
133.38448,133.61525,67,64,71
134.99986,135.23064,67,64,71
135.23064,135.46141,70,64,71
136.84602,137.07678,68,64,71
137.07678,137.30756,68,64,71
138.69217,138.92294,64,64,71
138.92294,139.1537,67,64,71
140.53831,140.76909,65,64,71
140.76909,140.99986,68,64,71
142.1537,143.99986,68,64,71
143.99986,145.84601,68,64,71
145.84601,146.76909,68,64,71
146.76909,147.69215,65,64,71
147.69215,148.1537,63,64,71
148.1537,148.61523,70,64,71
148.61523,149.07677,70,64,71
150.4614,151.38446,63,64,71
151.38446,151.84601,62,64,71
151.84601,152.76907,63,64,71
152.76907,153.69215,65,64,71
153.69215,154.15369,67,64,71
154.15369,154.61523,60,64,71
154.61523,155.07677,56,64,71
155.07677,155.5383,58,64,71
155.5383,155.99985,70,64,71
155.99985,156.46138,70,64,71
162.46138,162.92291,67,64,71
164.30753,164.76907,72,64,71
166.15369,166.61522,72,64,71
167.99983,168.92291,68,64,71
168.92291,169.61522,65,64,71
169.61522,169.84598,63,64,71
169.84598,170.30753,62,64,71
170.30753,170.76906,60,64,71
170.76906,171.23059,58,64,71
171.23059,171.69214,56,64,71
171.69214,172.15367,55,64,71
174.46136,174.9229,67,64,71
174.9229,175.38445,63,64,71
175.38445,176.30751,68,64,71
176.30751,176.99982,65,64,71
176.99982,177.23059,63,64,71
177.23059,177.69212,62,64,71
177.69212,178.15367,60,64,71
178.15367,178.6152,58,64,71
178.6152,179.07674,65,64,71
181.84598,182.30751,57,64,71
182.30751,182.76904,69,64,71
182.76904,183.23059,70,64,71
185.53827,185.99982,63,64,71
185.99982,186.46135,63,64,71
186.46135,186.9229,65,64,71
191.07674,191.9998,67,64,71
191.9998,192.46135,66,64,71
192.92288,193.38441,68,64,71
193.38441,193.84596,67,64,71
193.84596,194.3075,65,64,71
195.23058,195.46135,62,64,71
195.69211,196.15366,62,64,71
196.15366,196.61519,63,64,71
200.76903,201.23058,66,64,71
201.23058,202.15364,67,64,71
202.15364,203.07672,64,64,71
203.07672,203.3075,65,64,71
207.46133,207.6921,65,64,71
207.6921,207.92287,65,64,71
207.92287,208.15364,65,64,71
208.15364,208.3844,65,64,71
208.3844,208.61517,65,64,71
208.61517,208.84595,65,64,71
209.30748,209.53825,65,64,71
209.53825,209.76903,65,64,71
209.99979,210.23056,65,64,71
210.46133,210.92287,65,64,71
214.15363,214.3844,62,64,71
214.3844,214.61517,65,64,71
214.61517,214.84593,70,64,71
214.84593,215.0767,74,64,71
215.0767,215.30748,73,64,71
215.30748,215.53824,74,64,71
215.53824,215.76901,75,64,71
215.76901,215.99979,72,64,71
215.99979,216.6921,69,64,71
216.6921,216.92287,70,64,71
216.92287,217.3844,72,64,71
217.3844,217.84593,69,64,71
217.84593,218.30748,70,64,71
219.6921,220.15363,65,64,71
221.53824,223.3844,72,64,71
223.3844,223.84593,71,64,71
225.23055,226.15363,68,64,71
227.07669,227.53824,68,64,71
227.53824,227.99977,65,64,71
227.99977,228.4613,63,64,71
228.4613,228.92285,63,64,71
228.92285,229.38438,62,64,71
229.38438,229.84592,60,64,71
229.84592,230.30746,62,64,71
230.30746,230.769,63,64,71
230.769,231.23055,65,64,71
231.23055,231.69208,67,64,71
231.69208,232.15361,65,64,71
232.15361,232.61516,63,64,71
232.61516,233.07669,62,64,71
234.4613,234.92284,65,64,71
236.30745,238.15361,72,64,71
238.15361,238.61514,71,64,71
240.92284,242.30745,68,64,71
242.30745,242.76898,65,64,71
242.76898,243.23053,63,64,71
243.23053,243.69206,63,64,71
243.69206,244.1536,62,64,71
244.1536,244.61514,63,64,71
244.61514,245.07668,65,64,71
249.23051,249.69206,65,64,71
249.92282,250.1536,65,64,71
250.1536,250.26898,63,64,71
250.26898,250.38437,65,64,71
250.38437,250.49976,63,64,71
250.49976,250.61513,65,64,71
250.61513,250.8459,67,64,71
250.8459,251.07668,65,64,71
251.07668,251.53821,65,64,71
253.38437,253.61513,66,64,71
253.61513,253.8459,65,64,71
253.8459,254.07668,67,64,71
254.07668,254.30743,65,64,71
254.30743,254.53821,67,64,71
254.53821,254.76898,65,64,71
254.76898,255.23051,65,64,71
255.69205,256.1536,74,64,71
256.61514,257.07666,74,64,71
258.46127,258.92282,62,64,71
259.38437,259.8459,62,64,71
260.30743,260.76898,67,64,71
262.1536,262.8459,63,64,71
263.99973,265.8459,62,64,71
265.8459,266.5382,63,64,71
267.69205,268.15356,62,64,71
268.6151,269.07666,67,64,71
282.9228,283.38434,63,64,71
283.38434,283.84586,68,64,71
283.84586,284.3074,72,64,71
284.3074,284.99973,70,64,71
284.99973,285.23047,68,64,71
285.23047,285.69202,67,64,71
285.69202,286.15356,68,64,71
286.6151,287.07663,70,64,71
287.53818,287.99973,67,64,71
287.99973,288.23047,60,64,71
290.07663,290.3074,58,64,71
290.3074,290.53818,60,64,71
290.53818,290.76895,61,64,71
290.76895,290.9997,61,64,71
291.9228,292.15356,58,64,71
292.15356,292.3843,60,64,71
292.3843,292.61508,61,64,71
292.84586,293.07663,58,64,71
293.07663,293.3074,60,64,71
293.3074,293.53818,61,64,71
293.76895,293.9997,60,64,71
293.9997,294.23047,61,64,71
294.23047,294.46124,63,64,71
294.46124,294.69202,63,64,71
304.61508,304.84586,65,64,71
306.46124,306.692,63,64,71
306.692,306.92276,63,64,71
306.92276,307.15353,65,64,71
307.15353,307.3843,67,64,71
307.61508,307.84586,63,64,71
307.84586,308.07663,65,64,71
308.07663,308.30737,67,64,71
308.53815,308.76892,62,64,71
308.76892,308.9997,63,64,71
308.9997,309.23047,65,64,71
309.23047,309.46124,65,64,71
310.3843,310.61508,62,64,71
310.61508,310.84586,63,64,71
310.84586,311.0766,65,64,71
311.30737,311.53815,62,64,71
311.53815,311.76892,63,64,71
311.76892,311.9997,65,64,71
312.23047,312.4612,63,64,71
312.4612,312.692,65,64,71
312.692,312.92276,67,64,71
312.92276,313.15353,67,64,71
313.15353,313.3843,67,64,71
313.3843,313.61508,65,64,71
313.61508,313.84583,63,64,71
313.84583,314.30737,62,64,71
314.53815,314.76892,67,64,71
314.76892,314.9997,71,64,71
314.9997,315.23047,72,64,71
315.23047,315.4612,74,64,71
315.4612,315.692,72,64,71
315.692,315.92276,71,64,71
315.92276,316.3843,62,64,71
316.3843,316.61508,63,64,71
316.61508,316.84583,71,64,71
316.84583,317.0766,72,64,71
317.0766,317.30737,74,64,71
317.30737,317.53815,72,64,71
317.53815,317.9997,71,64,71
326.7689,327.23044,67,64,71
327.692,328.1535,71,64,71
328.1535,328.61505,71,64,71
328.61505,329.0766,70,64,71
329.53815,329.99966,70,64,71
329.99966,330.4612,70,64,71
330.4612,330.92276,70,64,71
331.38428,331.84583,70,64,71
331.84583,332.30737,70,64,71
332.30737,332.7689,72,64,71
333.23044,333.692,66,64,71
334.1535,334.61505,65,64,71
344.7689,345.23044,62,64,71
345.23044,347.07657,63,64,71
347.07657,347.53812,62,64,71
348.46118,348.92273,62,64,71
348.92273,350.7689,63,64,71
350.7689,351.2304,62,64,71
357.69196,357.92273,68,64,71
358.15347,358.8458,77,64,71
359.53812,359.76886,68,64,71
359.99963,360.69196,68,64,71
360.69196,360.92273,67,64,71
360.92273,361.15347,67,64,71
361.15347,361.38425,65,64,71
361.38425,361.61502,63,64,71
361.61502,361.8458,62,64,71
361.8458,362.07657,63,64,71
362.07657,362.30734,63,64,71
362.30734,362.76886,67,64,71
363.9227,364.15347,67,64,71
364.15347,364.61502,70,64,71
365.76886,365.99963,68,64,71
365.99963,366.46118,68,64,71
367.61502,367.8458,64,64,71
367.8458,368.3073,67,64,71
369.2304,370.15347,68,64,71
370.15347,370.8458,65,64,71
370.8458,371.07654,63,64,71
371.07654,371.5381,62,64,71
371.5381,371.99963,60,64,71
371.99963,372.46115,58,64,71
372.46115,372.9227,56,64,71
372.9227,373.38425,55,64,71
375.69193,376.15347,67,64,71
376.15347,376.61502,63,64,71
376.61502,377.5381,68,64,71
377.5381,378.23038,65,64,71
378.23038,378.46115,63,64,71
378.46115,378.9227,62,64,71
378.9227,379.38425,60,64,71
379.38425,379.84576,58,64,71
379.84576,380.3073,65,64,71
383.07654,383.5381,57,64,71
383.5381,383.9996,69,64,71
383.9996,384.46115,70,64,71
390.46115,390.9227,62,64,71
390.9227,391.38422,62,64,71
391.38422,392.07654,63,64,71
392.3073,392.53806,65,64,71
401.53806,401.76883,60,64,71
401.9996,402.23038,62,64,71
402.46115,402.92267,63,64,71
403.38422,403.615,65,64,71
404.30728,404.76883,62,64,71
408.6919,408.92267,70,64,71
408.92267,409.15344,69,64,71
409.15344,409.38422,70,64,71
409.38422,409.615,72,64,71
409.615,409.84573,68,64,71
409.84573,410.53806,65,64,71
410.53806,410.76883,67,64,71
410.76883,411.23035,68,64,71
411.23035,411.6919,70,64,71
411.6919,412.15344,67,64,71
420.92267,421.61496,62,64,71
421.61496,421.84573,63,64,71
421.84573,422.30728,65,64,71
422.30728,422.7688,62,64,71
422.7688,423.23035,63,64,71
424.61496,425.30728,62,64,71
425.30728,425.53802,63,64,71
425.53802,425.99957,65,64,71
425.99957,426.46112,62,64,71
426.46112,426.92264,63,64,71
428.30725,428.7688,63,64,71
430.1534,430.61496,67,64,71
431.99957,432.46112,68,64,71
432.46112,432.92264,67,64,71
432.92264,433.3842,65,64,71
433.3842,433.84573,65,64,71
434.07648,434.30725,70,64,71
434.30725,434.53802,74,64,71
434.53802,434.7688,75,64,71
434.99957,435.23035,70,64,71
435.23035,435.4611,74,64,71
435.4611,435.69186,75,64,71
435.92264,436.1534,74,64,71
436.1534,436.3842,75,64,71
436.3842,436.61496,77,64,71
436.61496,437.07648,77,64,71
437.7688,437.99957,74,64,71
437.99957,438.23032,75,64,71
438.23032,438.4611,77,64,71
438.69186,438.92264,74,64,71
438.92264,439.1534,75,64,71
439.1534,439.3842,77,64,71
439.61496,439.8457,75,64,71
439.8457,440.07648,77,64,71
440.07648,440.30725,79,64,71
440.30725,440.7688,79,64,71
440.7688,441.23032,70,64,71
441.23032,443.07648,70,64,71
443.07648,443.53802,72,64,71
444.92264,445.8457,61,64,71
445.8457,446.30725,70,64,71
446.7688,447.23032,63,64,71
447.23032,447.69186,61,64,71
447.69186,448.1534,60,64,71
448.1534,448.61493,62,64,71
449.07648,449.53802,65,64,71
450.4611,450.92264,67,64,71
450.92264,451.38416,65,64,71
451.8457,452.30725,62,64,71
452.30725,452.538,63,64,71
452.538,452.76877,67,64,71
452.76877,452.99954,68,64,71
452.99954,453.23032,70,64,71
453.4611,453.69186,67,64,71
453.69186,453.92264,68,64,71
453.92264,454.15338,70,64,71
454.38416,454.61493,65,64,71
454.61493,454.8457,67,64,71
454.8457,455.07648,68,64,71
455.07648,455.30725,68,64,71
456.23032,456.4611,65,64,71
456.4611,456.69186,67,64,71
456.69186,456.9226,68,64,71
457.15338,457.38416,65,64,71
457.38416,457.61493,67,64,71
457.61493,457.8457,68,64,71
458.07648,458.30722,67,64,71
458.30722,458.538,68,64,71
458.538,458.76877,70,64,71
458.76877,458.99954,70,64,71
459.23032,459.4611,70,64,71
459.69183,461.07648,70,64,71
461.07648,461.538,71,64,71
461.538,461.99954,72,64,71
463.38416,464.30722,61,64,71
465.69183,466.15338,61,64,71
466.15338,466.61493,60,64,71
466.61493,467.07645,62,64,71
467.538,467.99954,65,64,71
468.46106,468.9226,68,64,71
468.9226,469.38416,67,64,71
469.38416,469.84567,65,64,71
470.30722,470.76877,62,64,71
470.76877,471.2303,63,64,71
472.6149,473.538,63,64,71
474.46106,474.9226,63,64,71
476.30722,477.2303,72,64,71
478.15338,478.6149,70,64,71
479.9995,481.84567,72,64,71
481.84567,483.69183,72,64,71
483.69183,484.15335,70,64,71
484.6149,485.07645,70,64,71
485.53796,485.9995,72,64,71
487.38412,487.84567,70,64,71
489.2303,489.6918,70,64,71
5.538456,5.999994,51,64,70
14.769216,14.999985,58,64,70
14.999985,15.230754,60,64,70
15.230754,15.461523,62,64,70
15.461523,15.692292,63,64,70
15.692292,16.15383,65,64,70
17.076906,17.538445,53,64,70
17.538445,17.999983,65,64,70
18.230751,18.46152,63,64,70
18.46152,18.69229,63,64,70
18.69229,18.923058,62,64,70
18.923058,19.153828,60,64,70
19.153828,19.384596,58,64,70
19.384596,20.307673,56,64,70
20.307673,20.76921,55,64,70
20.76921,21.230747,55,64,70
21.230747,21.692286,55,64,70
23.0769,24.461514,56,64,70
24.461514,24.923052,55,64,70
24.923052,25.38459,60,64,70
25.38459,26.307667,53,64,70
26.307667,26.769203,51,64,70
26.769203,27.230742,56,64,70
27.230742,27.69228,53,64,70
27.69228,28.153818,55,64,70
28.153818,28.615356,55,64,70
28.615356,29.076895,55,64,70
29.538431,31.384584,56,64,70
31.384584,32.30766,58,64,70
32.30766,32.7692,60,64,70
32.7692,33.230736,53,64,70
33.230736,33.692272,58,64,70
33.692272,34.153812,51,64,70
34.153812,34.61535,56,64,70
34.61535,35.07689,58,64,70
35.07689,35.538425,51,64,70
36.92304,37.38458,60,64,70
38.76919,39.23073,56,64,70
39.4615,39.69227,60,64,70
39.69227,39.80765,59,64,70
39.80765,39.92304,60,64,70
39.92304,40.03842,59,64,70
40.03842,40.153805,60,64,70
40.153805,40.384575,62,64,70
40.384575,40.615345,60,64,70
40.615345,40.84611,53,64,70
40.84611,41.07688,56,64,70
41.07688,41.30765,53,64,70
41.30765,41.53842,56,64,70
41.53842,41.769188,53,64,70
41.769188,41.999958,56,64,70
41.999958,42.23073,53,64,70
42.23073,42.461494,56,64,70
42.461494,42.692265,58,64,70
42.692265,42.923035,62,64,70
42.923035,43.153805,58,64,70
43.153805,43.38457,62,64,70
43.38457,43.61534,58,64,70
43.61534,43.84611,50,64,70
43.84611,44.076878,46,64,70
44.076878,44.307648,50,64,70
44.307648,44.769184,51,64,70
44.769184,45.230724,63,64,70
45.230724,45.69226,53,64,70
45.69226,46.1538,65,64,70
46.1538,46.615337,55,64,70
46.615337,47.076878,58,64,70
47.076878,47.538414,55,64,70
47.538414,47.99995,51,64,70
47.99995,48.23072,53,64,70
48.23072,48.46149,56,64,70
48.46149,48.69226,53,64,70
48.69226,48.923027,56,64,70
48.923027,49.153797,53,64,70
49.153797,49.384567,56,64,70
49.384567,49.615334,53,64,70
49.615334,49.846104,56,64,70
49.846104,50.076874,58,64,70
50.076874,50.307644,62,64,70
50.307644,50.53841,58,64,70
50.53841,50.76918,62,64,70
50.76918,50.99995,58,64,70
50.99995,51.230717,50,64,70
51.230717,51.461487,46,64,70
51.461487,51.692257,50,64,70
51.692257,52.153793,51,64,70
52.153793,52.615334,63,64,70
52.615334,53.07687,53,64,70
53.07687,53.538406,65,64,70
53.538406,53.999947,55,64,70
53.999947,54.461483,55,64,70
54.461483,54.923023,48,64,70
54.923023,55.38456,60,64,70
55.38456,55.8461,58,64,70
58.15379,58.615326,60,64,70
58.615326,59.076862,60,64,70
59.076862,59.538403,58,64,70
61.846092,62.30763,66,64,70
62.30763,62.76917,66,64,70
62.76917,63.692245,67,64,70
63.692245,64.61532,63,64,70
64.61532,65.07686,62,64,70
65.5384,65.99993,65,64,70
65.99993,66.46147,63,64,70
66.46147,67.384544,56,64,70
67.384544,68.307625,58,64,70
68.307625,69.2307,51,64,70
69.2307,69.46147,53,64,70
69.46147,69.69224,55,64,70
69.69224,69.923004,56,64,70
69.923004,70.15378,57,64,70
70.15378,70.384544,58,64,70
70.384544,70.61531,60,64,70
70.61531,70.846085,61,64,70
70.846085,71.07685,62,64,70
71.07685,72.2307,63,64,70
72.2307,72.461464,62,64,70
72.461464,72.69224,60,64,70
72.69224,72.923004,58,64,70
72.923004,73.15377,57,64,70
73.15377,73.384544,58,64,70
73.384544,73.61531,60,64,70
73.61531,73.84608,57,64,70
73.84608,74.07685,62,64,70
74.07685,74.30762,58,64,70
74.30762,74.53838,55,64,70
74.53838,74.76916,50,64,70
74.76916,74.99992,58,64,70
74.99992,75.2307,55,64,70
75.2307,75.461464,52,64,70
75.461464,75.69223,46,64,70
75.69223,76.15377,45,64,70
76.38454,76.61531,65,64,70
76.61531,76.84608,64,64,70
76.84608,77.07684,65,64,70
77.07684,77.30762,67,64,70
77.30762,77.53838,63,64,70
77.53838,77.99992,60,64,70
77.99992,78.23069,41,64,70
78.23069,78.46146,62,64,70
78.46146,78.923,63,64,70
78.923,79.38454,65,64,70
79.38454,79.84608,62,64,70
79.84608,80.30761,41,64,70
81.23069,81.69222,48,64,70
81.69222,82.15376,41,64,70
82.15376,82.6153,51,64,70
82.6153,83.07684,53,64,70
83.07684,83.30761,53,64,70
83.30761,83.538376,50,64,70
83.538376,83.76915,46,64,70
83.76915,83.999916,62,64,70
83.999916,84.23068,61,64,70
84.23068,84.46146,62,64,70
84.46146,84.69222,63,64,70
84.69222,84.92299,60,64,70
84.92299,85.38453,57,64,70
85.38453,85.615295,41,64,70
85.615295,85.84607,58,64,70
85.84607,86.30761,60,64,70
86.30761,86.76914,62,64,70
86.76914,87.23068,58,64,70
87.46145,87.69222,65,64,70
87.69222,87.92299,64,64,70
87.92299,88.153755,65,64,70
88.153755,88.38453,67,64,70
88.38453,88.615295,63,64,70
88.615295,89.3076,60,64,70
89.3076,89.53837,62,64,70
89.53837,89.99991,63,64,70
89.99991,90.46145,60,64,70
90.46145,90.92299,62,64,70
92.3076,92.769135,58,64,70
92.99991,93.230675,58,64,70
93.230675,93.34606,57,64,70
93.34606,93.46145,58,64,70
93.46145,93.57683,57,64,70
93.57683,93.692215,58,64,70
93.692215,93.92298,60,64,70
93.92298,94.153755,58,64,70
94.153755,95.9999,56,64,70
95.9999,96.46144,55,64,70
97.846054,98.07683,53,64,70
98.07683,98.307594,56,64,70
98.307594,98.53836,58,64,70
98.53836,98.769135,56,64,70
98.769135,98.9999,53,64,70
98.9999,99.23067,56,64,70
99.23067,99.46144,58,64,70
99.46144,99.69221,56,64,70
99.69221,99.92297,53,64,70
99.92297,100.15375,56,64,70
100.15375,100.384514,58,64,70
100.384514,100.61529,53,64,70
100.61529,100.846054,55,64,70
100.846054,101.07682,51,64,70
101.07682,101.307594,53,64,70
101.307594,101.53836,51,64,70
101.53836,101.76913,50,64,70
101.76913,101.9999,53,64,70
101.9999,102.23067,55,64,70
102.23067,102.46143,57,64,70
102.46143,102.69221,58,64,70
102.69221,102.92297,57,64,70
102.92297,103.15374,58,64,70
103.15374,103.384514,55,64,70
103.384514,103.84605,53,64,70
103.84605,104.30759,52,64,70
104.30759,104.76913,53,64,70
104.76913,105.23067,53,64,70
105.23067,105.6922,46,64,70
105.92297,106.15374,58,64,70
106.15374,106.26913,57,64,70
106.26913,106.38451,58,64,70
106.38451,106.49989,57,64,70
106.49989,106.61528,58,64,70
106.61528,106.84605,60,64,70
106.84605,107.07681,58,64,70
107.07681,107.53835,58,64,70
107.76912,107.99989,58,64,70
107.99989,108.11528,57,64,70
108.11528,108.23066,58,64,70
108.23066,108.34605,57,64,70
108.34605,108.46143,58,64,70
108.46143,108.6922,60,64,70
108.6922,108.922966,58,64,70
108.922966,110.76912,56,64,70
110.76912,111.23066,55,64,70
112.61527,113.538345,56,64,70
113.538345,113.999886,65,64,70
113.999886,114.461426,62,64,70
114.461426,114.92296,58,64,70
114.92296,115.3845,56,64,70
115.3845,115.84604,55,64,70
115.84604,116.30758,57,64,70
116.30758,116.76911,58,64,70
116.76911,117.23065,60,64,70
117.23065,117.69219,62,64,70
117.69219,118.153725,63,64,70
118.153725,118.615265,65,64,70
118.615265,119.076805,55,64,70
119.076805,119.538345,52,64,70
119.538345,119.99988,53,64,70
119.99988,120.46142,58,64,70
120.46142,120.692184,46,64,70
120.692184,120.92296,62,64,70
120.92296,121.03834,60,64,70
121.03834,121.153725,62,64,70
121.153725,121.26911,60,64,70
121.26911,121.38449,62,64,70
121.38449,121.615265,63,64,70
121.615265,121.84603,62,64,70
121.84603,122.30757,62,64,70
122.30757,122.53834,58,64,70
122.53834,122.76911,62,64,70
122.76911,122.88449,60,64,70
122.88449,122.99988,62,64,70
122.99988,123.115265,60,64,70
123.115265,123.230644,62,64,70
123.230644,123.46142,63,64,70
123.46142,123.692184,62,64,70
123.692184,124.153725,62,64,70
124.153725,124.38449,58,64,70
124.38449,124.61526,62,64,70
124.61526,124.730644,60,64,70
124.730644,124.84603,62,64,70
124.84603,124.96141,60,64,70
124.96141,125.0768,62,64,70
125.0768,125.30756,63,64,70
125.30756,125.53834,62,64,70
125.53834,125.769104,63,64,70
125.769104,125.99987,62,64,70
125.99987,126.230644,63,64,70
126.230644,126.46141,62,64,70
126.46141,126.692184,63,64,70
126.692184,126.92295,62,64,70
126.92295,127.15372,63,64,70
127.15372,127.38449,62,64,70
127.38449,127.84602,62,64,70
128.30757,128.7691,62,64,70
129.23064,129.69218,62,64,70
132.92294,133.38448,51,64,70
142.1537,142.38448,58,64,70
142.38448,142.61523,60,64,70
142.61523,142.84601,62,64,70
142.84601,143.07678,63,64,70
143.07678,143.53831,65,64,70
144.4614,144.92293,53,64,70
144.92293,145.38448,65,64,70
145.61523,145.84601,63,64,70
145.84601,146.07678,63,64,70
146.07678,146.30754,62,64,70
146.30754,146.53831,60,64,70
146.53831,146.76909,58,64,70
146.76909,147.69215,56,64,70
147.69215,148.1537,55,64,70
148.1537,148.61523,55,64,70
148.61523,149.07677,55,64,70
150.4614,151.84601,56,64,70
151.84601,152.30754,55,64,70
152.30754,152.76907,60,64,70
152.76907,153.69215,53,64,70
153.69215,154.15369,51,64,70
154.15369,154.61523,56,64,70
154.61523,155.07677,53,64,70
155.07677,155.5383,55,64,70
155.5383,155.99985,55,64,70
155.99985,156.46138,55,64,70
156.92291,158.76907,56,64,70
158.76907,159.69215,58,64,70
159.69215,160.15369,60,64,70
160.15369,160.61522,53,64,70
160.61522,161.07677,58,64,70
161.07677,161.5383,51,64,70
161.5383,161.99983,56,64,70
161.99983,162.46138,58,64,70
162.46138,162.92291,51,64,70
164.30753,164.76907,60,64,70
166.15369,166.61522,56,64,70
166.846,167.07675,60,64,70
167.07675,167.19214,59,64,70
167.19214,167.30753,60,64,70
167.30753,167.42291,59,64,70
167.42291,167.5383,60,64,70
167.5383,167.76906,62,64,70
167.76906,167.99983,60,64,70
167.99983,168.2306,53,64,70
168.2306,168.46136,56,64,70
168.46136,168.69214,53,64,70
168.69214,168.92291,56,64,70
168.92291,169.15367,53,64,70
169.15367,169.38445,56,64,70
169.38445,169.61522,53,64,70
169.61522,169.84598,56,64,70
169.84598,170.07675,58,64,70
170.07675,170.30753,62,64,70
170.30753,170.53828,58,64,70
170.53828,170.76906,62,64,70
170.76906,170.99983,58,64,70
170.99983,171.23059,50,64,70
171.23059,171.46136,46,64,70
171.46136,171.69214,50,64,70
171.69214,172.15367,51,64,70
172.15367,172.61522,63,64,70
172.61522,173.07675,53,64,70
173.07675,173.53828,65,64,70
173.53828,173.99983,55,64,70
173.99983,174.46136,58,64,70
174.46136,174.9229,55,64,70
174.9229,175.38445,51,64,70
175.38445,175.6152,53,64,70
175.6152,175.84598,56,64,70
175.84598,176.07675,53,64,70
176.07675,176.30751,56,64,70
176.30751,176.53828,53,64,70
176.53828,176.76906,56,64,70
176.76906,176.99982,53,64,70
176.99982,177.23059,56,64,70
177.23059,177.46136,58,64,70
177.46136,177.69212,62,64,70
177.69212,177.9229,58,64,70
177.9229,178.15367,62,64,70
178.15367,178.38443,58,64,70
178.38443,178.6152,50,64,70
178.6152,178.84598,46,64,70
178.84598,179.07674,50,64,70
179.07674,179.53828,51,64,70
179.53828,179.99982,63,64,70
179.99982,180.46136,53,64,70
180.46136,180.9229,65,64,70
180.9229,181.38443,55,64,70
181.38443,181.84598,55,64,70
181.84598,182.30751,48,64,70
182.30751,182.76904,60,64,70
182.76904,183.23059,58,64,70
185.53827,185.99982,60,64,70
185.99982,186.46135,60,64,70
186.46135,186.9229,58,64,70
189.23058,189.69212,66,64,70
189.69212,190.15366,66,64,70
190.15366,191.07674,67,64,70
191.07674,191.9998,63,64,70
191.9998,192.46135,62,64,70
192.92288,193.38441,65,64,70
193.38441,193.84596,63,64,70
193.84596,194.76904,56,64,70
194.76904,195.69211,58,64,70
195.69211,196.61519,51,64,70
196.61519,196.84596,53,64,70
196.84596,197.07672,55,64,70
197.07672,197.3075,56,64,70
197.3075,197.53827,57,64,70
197.53827,197.76903,58,64,70
197.76903,197.9998,60,64,70
197.9998,198.23058,61,64,70
198.23058,198.46133,62,64,70
198.46133,199.61519,63,64,70
199.61519,199.84595,62,64,70
199.84595,200.07672,60,64,70
200.07672,200.3075,58,64,70
200.3075,200.53825,57,64,70
200.53825,200.76903,58,64,70
200.76903,200.9998,60,64,70
200.9998,201.23058,57,64,70
201.23058,201.46133,62,64,70
201.46133,201.69211,58,64,70
201.69211,201.92288,55,64,70
201.92288,202.15364,50,64,70
202.15364,202.38441,58,64,70
202.38441,202.61519,55,64,70
202.61519,202.84595,52,64,70
202.84595,203.07672,46,64,70
203.07672,203.53825,45,64,70
203.76903,203.9998,65,64,70
203.9998,204.23056,64,64,70
204.23056,204.46133,65,64,70
204.46133,204.69211,67,64,70
204.69211,204.92287,63,64,70
204.92287,205.38441,60,64,70
205.38441,205.61517,41,64,70
205.61517,205.84595,62,64,70
205.84595,206.30748,63,64,70
206.30748,206.76903,65,64,70
206.76903,207.23056,62,64,70
207.23056,207.6921,41,64,70
208.61517,209.07672,48,64,70
209.07672,209.53825,41,64,70
209.53825,209.99979,51,64,70
209.99979,210.46133,53,64,70
210.46133,210.6921,53,64,70
210.6921,210.92287,50,64,70
210.92287,211.15364,46,64,70
211.15364,211.3844,62,64,70
211.3844,211.61517,61,64,70
211.61517,211.84595,62,64,70
211.84595,212.0767,63,64,70
212.0767,212.30748,60,64,70
212.30748,212.76901,57,64,70
212.76901,212.99979,41,64,70
212.99979,213.23056,58,64,70
213.23056,213.6921,60,64,70
213.6921,214.15363,62,64,70
214.15363,214.61517,58,64,70
214.84593,215.0767,65,64,70
215.0767,215.30748,64,64,70
215.30748,215.53824,65,64,70
215.53824,215.76901,67,64,70
215.76901,215.99979,63,64,70
215.99979,216.6921,60,64,70
216.6921,216.92287,62,64,70
216.92287,217.3844,63,64,70
217.3844,217.84593,60,64,70
217.84593,218.30748,62,64,70
219.6921,220.15363,58,64,70
220.3844,220.61516,58,64,70
220.61516,220.73055,57,64,70
220.73055,220.84593,58,64,70
220.84593,220.96132,57,64,70
220.96132,221.0767,58,64,70
221.0767,221.30746,60,64,70
221.30746,221.53824,58,64,70
221.53824,223.3844,56,64,70
223.3844,223.84593,55,64,70
225.23055,225.46132,53,64,70
225.46132,225.69208,56,64,70
225.69208,225.92285,58,64,70
225.92285,226.15363,56,64,70
226.15363,226.38438,53,64,70
226.38438,226.61516,56,64,70
226.61516,226.84593,58,64,70
226.84593,227.07669,56,64,70
227.07669,227.30746,53,64,70
227.30746,227.53824,56,64,70
227.53824,227.769,58,64,70
227.769,227.99977,53,64,70
227.99977,228.23055,55,64,70
228.23055,228.4613,51,64,70
228.4613,228.69208,53,64,70
228.69208,228.92285,51,64,70
228.92285,229.15361,50,64,70
229.15361,229.38438,53,64,70
229.38438,229.61516,55,64,70
229.61516,229.84592,57,64,70
229.84592,230.07669,58,64,70
230.07669,230.30746,57,64,70
230.30746,230.53824,58,64,70
230.53824,230.769,55,64,70
230.769,231.23055,53,64,70
231.23055,231.69208,52,64,70
231.69208,232.15361,53,64,70
232.15361,232.61516,53,64,70
232.61516,233.07669,46,64,70
233.30746,233.53822,58,64,70
233.53822,233.65361,57,64,70
233.65361,233.769,58,64,70
233.769,233.88438,57,64,70
233.88438,233.99977,58,64,70
233.99977,234.23053,60,64,70
234.23053,234.4613,58,64,70
234.4613,234.92284,58,64,70
235.15361,235.38438,58,64,70
235.38438,235.49977,57,64,70
235.49977,235.61514,58,64,70
235.61514,235.73053,57,64,70
235.73053,235.84592,58,64,70
235.84592,236.07669,60,64,70
236.07669,236.30745,58,64,70
236.30745,238.15361,56,64,70
238.15361,238.61514,55,64,70
239.99976,240.92284,56,64,70
240.92284,241.38437,65,64,70
241.38437,241.84592,62,64,70
241.84592,242.30745,58,64,70
242.30745,242.76898,56,64,70
242.76898,243.23053,55,64,70
243.23053,243.69206,57,64,70
243.69206,244.1536,58,64,70
244.1536,244.61514,60,64,70
244.61514,245.07668,62,64,70
245.07668,245.53822,63,64,70
245.53822,245.99976,65,64,70
245.99976,246.46129,55,64,70
246.46129,246.92284,52,64,70
246.92284,247.38437,53,64,70
247.38437,247.8459,58,64,70
247.8459,248.07668,46,64,70
248.07668,248.30745,62,64,70
248.30745,248.42282,60,64,70
248.42282,248.53821,62,64,70
248.53821,248.6536,60,64,70
248.6536,248.76898,62,64,70
248.76898,248.99976,63,64,70
248.99976,249.23051,62,64,70
249.23051,249.69206,62,64,70
249.69206,249.92282,58,64,70
249.92282,250.1536,62,64,70
250.1536,250.26898,60,64,70
250.26898,250.38437,62,64,70
250.38437,250.49976,60,64,70
250.49976,250.61513,62,64,70
250.61513,250.8459,63,64,70
250.8459,251.07668,62,64,70
251.07668,251.53821,62,64,70
251.53821,251.76898,58,64,70
251.76898,251.99974,62,64,70
251.99974,252.11513,60,64,70
252.11513,252.23051,62,64,70
252.23051,252.3459,60,64,70
252.3459,252.46129,62,64,70
252.46129,252.69206,63,64,70
252.69206,252.92282,62,64,70
252.92282,253.1536,63,64,70
253.1536,253.38437,62,64,70
253.38437,253.61513,63,64,70
253.61513,253.8459,62,64,70
253.8459,254.07668,63,64,70
254.07668,254.30743,62,64,70
254.30743,254.53821,63,64,70
254.53821,254.76898,62,64,70
254.76898,255.23051,62,64,70
255.69205,256.1536,62,64,70
256.61514,257.07666,62,64,70
258.46127,258.92282,50,64,70
259.38437,259.8459,50,64,70
260.30743,260.5382,55,64,70
260.5382,260.76898,55,64,70
260.76898,260.99973,59,64,70
260.99973,261.2305,55,64,70
261.2305,261.46127,59,64,70
261.46127,261.69205,55,64,70
261.69205,261.92282,59,64,70
261.92282,262.1536,55,64,70
262.1536,262.38434,60,64,70
262.38434,262.6151,55,64,70
262.6151,262.8459,60,64,70
262.8459,263.07666,55,64,70
263.07666,263.30743,60,64,70
263.30743,263.5382,55,64,70
263.5382,263.76898,60,64,70
263.76898,263.99973,55,64,70
263.99973,264.2305,59,64,70
264.2305,264.46127,55,64,70
264.46127,264.69205,59,64,70
264.69205,264.92282,55,64,70
264.92282,265.1536,59,64,70
265.1536,265.38434,55,64,70
265.38434,265.6151,59,64,70
265.6151,265.8459,55,64,70
265.8459,266.07666,60,64,70
266.07666,266.30743,55,64,70
266.30743,266.5382,60,64,70
266.5382,266.76895,55,64,70
266.76895,266.99973,60,64,70
266.99973,267.2305,55,64,70
267.2305,267.46127,60,64,70
267.46127,267.69205,55,64,70
267.69205,268.15356,59,64,70
268.6151,269.07666,55,64,70
269.53818,269.76895,48,64,70
269.76895,269.99973,48,64,70
269.99973,270.2305,52,64,70
270.2305,270.46127,60,64,70
270.46127,270.57666,59,64,70
270.57666,270.69205,60,64,70
270.69205,270.80743,59,64,70
270.80743,270.92282,60,64,70
270.92282,271.15356,62,64,70
271.15356,271.38434,60,64,70
271.38434,271.6151,60,64,70
271.6151,271.8459,48,64,70
271.8459,272.07666,53,64,70
272.07666,272.30743,48,64,70
272.30743,272.53818,53,64,70
272.53818,272.76895,48,64,70
272.76895,272.99973,53,64,70
272.99973,273.2305,48,64,70
273.2305,273.46127,60,64,70
273.46127,273.69205,48,64,70
273.69205,273.9228,52,64,70
273.9228,274.15356,60,64,70
274.15356,274.26895,59,64,70
274.26895,274.38434,60,64,70
274.38434,274.49973,59,64,70
274.49973,274.6151,60,64,70
274.6151,274.8459,62,64,70
274.8459,275.07666,60,64,70
275.07666,275.3074,60,64,70
275.3074,275.53818,48,64,70
275.53818,275.76895,53,64,70
275.76895,275.99973,48,64,70
275.99973,276.2305,53,64,70
276.2305,276.46127,48,64,70
276.46127,276.69202,53,64,70
276.69202,276.9228,48,64,70
276.9228,277.38434,51,64,70
278.3074,278.76895,60,64,70
278.76895,279.46127,62,64,70
279.46127,279.69202,63,64,70
279.69202,280.15356,65,64,70
280.15356,280.6151,63,64,70
280.6151,281.07663,53,64,70
281.53818,281.99973,55,64,70
282.46124,282.9228,48,64,70
283.84586,284.3074,60,64,70
284.3074,284.99973,61,64,70
284.99973,285.23047,63,64,70
285.23047,285.69202,65,64,70
285.69202,286.15356,63,64,70
286.15356,286.6151,61,64,70
287.07663,287.53818,63,64,70
287.99973,288.23047,44,64,70
288.23047,288.46124,56,64,70
288.46124,288.69202,58,64,70
288.69202,288.9228,60,64,70
288.9228,289.15356,44,64,70
289.15356,289.38434,56,64,70
289.38434,289.61508,58,64,70
289.61508,289.84586,60,64,70
289.84586,290.07663,39,64,70
290.07663,290.3074,55,64,70
290.3074,290.53818,56,64,70
290.53818,290.76895,58,64,70
290.76895,291.23047,58,64,70
291.69202,291.9228,39,64,70
291.9228,292.15356,55,64,70
292.15356,292.3843,56,64,70
292.3843,292.61508,58,64,70
292.61508,292.84586,39,64,70
292.84586,293.07663,55,64,70
293.07663,293.3074,56,64,70
293.3074,293.53818,58,64,70
293.53818,293.76895,44,64,70
293.76895,293.9997,56,64,70
293.9997,294.23047,58,64,70
294.23047,294.46124,60,64,70
294.46124,294.9228,60,64,70
295.3843,295.61508,46,64,70
295.61508,295.84586,53,64,70
295.84586,296.07663,55,64,70
296.07663,296.3074,56,64,70
296.3074,296.76892,56,64,70
302.76892,303.23047,51,64,70
304.61508,305.07663,50,64,70
306.46124,306.692,36,64,70
306.692,306.92276,51,64,70
306.92276,307.15353,53,64,70
307.15353,307.3843,55,64,70
307.3843,307.61508,36,64,70
307.61508,307.84586,51,64,70
307.84586,308.07663,53,64,70
308.07663,308.30737,55,64,70
308.30737,308.53815,43,64,70
308.53815,308.76892,47,64,70
308.76892,308.9997,48,64,70
308.9997,309.23047,50,64,70
309.23047,309.692,50,64,70
310.15353,310.3843,43,64,70
310.3843,310.61508,47,64,70
310.61508,310.84586,48,64,70
310.84586,311.0766,50,64,70
311.0766,311.30737,43,64,70
311.30737,311.53815,47,64,70
311.53815,311.76892,48,64,70
311.76892,311.9997,50,64,70
311.9997,312.23047,36,64,70
312.23047,312.4612,48,64,70
312.4612,312.692,50,64,70
312.692,312.92276,51,64,70
312.92276,313.15353,53,64,70
313.15353,313.3843,51,64,70
313.3843,313.61508,50,64,70
313.61508,313.84583,48,64,70
313.84583,314.0766,55,64,70
314.0766,314.30737,67,64,70
314.30737,314.53815,65,64,70
314.53815,314.76892,63,64,70
314.76892,314.9997,62,64,70
314.9997,315.23047,60,64,70
315.23047,315.4612,59,64,70
315.4612,315.692,60,64,70
315.692,315.92276,55,64,70
315.92276,316.15353,67,64,70
316.15353,316.3843,65,64,70
316.3843,316.61508,63,64,70
316.61508,316.84583,62,64,70
316.84583,317.0766,60,64,70
317.0766,317.30737,59,64,70
317.30737,317.53815,60,64,70
317.53815,317.76892,55,64,70
317.76892,317.9997,55,64,70
317.9997,318.23044,55,64,70
318.23044,318.4612,59,64,70
318.4612,318.5766,57,64,70
318.5766,318.692,59,64,70
318.692,318.80737,57,64,70
318.80737,318.92276,59,64,70
318.92276,319.15353,60,64,70
319.15353,319.3843,59,64,70
319.3843,319.61505,59,64,70
319.61505,319.84583,67,64,70
319.84583,320.0766,67,64,70
320.0766,320.30737,67,64,70
320.30737,320.53815,67,64,70
320.53815,320.76892,67,64,70
320.76892,320.99966,66,64,70
320.99966,321.23044,67,64,70
321.23044,321.4612,55,64,70
321.4612,321.692,55,64,70
321.692,321.92276,55,64,70
321.92276,322.15353,59,64,70
322.15353,322.26892,57,64,70
322.26892,322.3843,59,64,70
322.3843,322.49966,57,64,70
322.49966,322.61505,59,64,70
322.61505,322.84583,60,64,70
322.84583,323.0766,59,64,70
323.0766,323.30737,59,64,70
323.30737,323.53815,67,64,70
323.53815,323.76892,67,64,70
323.76892,323.99966,67,64,70
323.99966,324.23044,67,64,70
324.23044,324.4612,67,64,70
324.4612,324.692,66,64,70
324.692,324.92276,67,64,70
324.92276,325.38428,55,64,70
325.38428,325.61505,66,64,70
325.61505,325.84583,67,64,70
325.84583,326.30737,55,64,70
326.30737,326.53815,66,64,70
326.53815,326.7689,67,64,70
326.7689,327.23044,55,64,70
327.692,328.1535,55,64,70
328.1535,328.61505,55,64,70
328.61505,329.0766,53,64,70
329.53815,329.99966,53,64,70
329.99966,330.4612,53,64,70
330.4612,330.92276,51,64,70
331.38428,331.84583,51,64,70
331.84583,332.30737,51,64,70
332.30737,332.7689,56,64,70
333.23044,333.692,57,64,70
334.1535,334.61505,58,64,70
335.53812,335.99966,58,64,70
335.99966,336.692,57,64,70
336.692,336.92273,58,64,70
336.92273,337.38428,60,64,70
337.38428,337.84583,63,64,70
337.84583,338.30734,62,64,70
343.84583,344.30734,58,64,70
344.30734,344.7689,58,64,70
344.7689,345.23044,58,64,70
345.23044,347.07657,54,64,70
347.07657,347.53812,53,64,70
348.46118,348.92273,58,64,70
348.92273,350.7689,63,64,70
350.7689,351.2304,58,64,70
351.69196,351.92273,46,64,70
351.92273,352.1535,48,64,70
352.1535,352.38428,50,64,70
352.38428,352.61502,51,64,70
352.61502,353.30734,53,64,70
353.30734,353.53812,51,64,70
353.53812,353.7689,58,64,70
353.7689,353.99963,60,64,70
353.99963,354.2304,62,64,70
354.2304,354.46118,63,64,70
354.46118,355.1535,65,64,70
355.1535,355.38425,63,64,70
355.38425,355.61502,63,64,70
355.61502,355.8458,62,64,70
355.8458,356.07657,60,64,70
356.07657,356.30734,58,64,70
356.30734,356.53812,46,64,70
356.53812,356.76886,48,64,70
356.76886,356.99963,50,64,70
356.99963,357.2304,51,64,70
357.2304,357.46118,58,64,70
357.46118,357.69196,60,64,70
357.69196,357.92273,62,64,70
357.92273,358.15347,63,64,70
358.15347,358.38425,65,64,70
358.38425,358.61502,48,64,70
358.61502,358.8458,50,64,70
358.8458,359.07657,51,64,70
359.07657,359.30734,53,64,70
359.30734,359.53812,48,64,70
359.53812,359.76886,50,64,70
359.76886,359.99963,51,64,70
359.99963,360.2304,53,64,70
360.2304,360.46118,36,64,70
360.46118,360.69196,50,64,70
360.69196,360.92273,51,64,70
360.92273,361.15347,53,64,70
361.15347,361.38425,55,64,70
361.38425,361.61502,56,64,70
361.61502,361.8458,58,64,70
361.8458,362.30734,51,64,70
369.2304,369.46118,53,64,70
369.46118,369.69193,56,64,70
369.69193,369.9227,53,64,70
369.9227,370.15347,56,64,70
370.15347,370.38425,53,64,70
370.38425,370.61502,56,64,70
370.61502,370.8458,53,64,70
370.8458,371.07654,56,64,70
371.07654,371.3073,58,64,70
371.3073,371.5381,62,64,70
371.5381,371.76886,58,64,70
371.76886,371.99963,62,64,70
371.99963,372.2304,58,64,70
372.2304,372.46115,62,64,70
372.46115,372.69193,58,64,70
372.69193,372.9227,62,64,70
372.9227,373.38425,51,64,70
373.38425,373.8458,63,64,70
373.8458,374.3073,53,64,70
374.3073,374.76886,65,64,70
374.76886,375.2304,55,64,70
375.2304,375.69193,58,64,70
375.69193,376.15347,55,64,70
376.15347,376.61502,51,64,70
376.61502,376.84576,53,64,70
376.84576,377.07654,56,64,70
377.07654,377.3073,53,64,70
377.3073,377.5381,56,64,70
377.5381,377.76886,53,64,70
377.76886,377.99963,56,64,70
377.99963,378.23038,53,64,70
378.23038,378.46115,56,64,70
378.46115,378.69193,58,64,70
378.69193,378.9227,62,64,70
378.9227,379.15347,58,64,70
379.15347,379.38425,62,64,70
379.38425,379.615,58,64,70
379.615,379.84576,62,64,70
379.84576,380.07654,58,64,70
380.07654,380.3073,62,64,70
380.3073,380.76886,51,64,70
380.76886,381.23038,63,64,70
381.23038,381.69193,53,64,70
381.69193,382.15347,65,64,70
382.15347,382.615,55,64,70
382.615,383.07654,55,64,70
383.07654,383.5381,48,64,70
383.5381,383.9996,60,64,70
383.9996,384.46115,58,64,70
386.76883,387.23038,60,64,70
387.23038,387.69193,60,64,70
387.69193,388.15347,58,64,70
388.38422,388.615,58,64,70
388.615,388.73038,57,64,70
388.73038,388.84576,58,64,70
388.84576,388.96115,57,64,70
388.96115,389.07654,58,64,70
389.07654,389.3073,60,64,70
389.3073,389.5381,58,64,70
389.5381,390.46115,65,64,70
390.46115,390.9227,59,64,70
390.9227,391.38422,59,64,70
391.38422,392.3073,63,64,70
392.3073,393.23038,60,64,70
393.23038,393.69193,59,64,70
394.15344,394.615,58,64,70
394.615,395.07654,56,64,70
395.07654,395.53806,53,64,70
395.53806,395.9996,58,64,70
395.9996,396.46115,51,64,70
396.46115,397.38422,55,64,70
397.38422,397.84576,56,64,70
397.84576,398.30728,58,64,70
398.30728,398.76883,58,64,70
398.76883,399.46115,58,64,70
399.46115,399.6919,63,64,70
399.6919,399.92267,63,64,70
399.92267,400.15344,62,64,70
400.15344,400.38422,63,64,70
400.38422,400.615,65,64,70
400.615,401.0765,58,64,70
401.53806,401.9996,55,64,70
401.9996,402.46115,65,64,70
402.46115,402.6919,63,64,70
402.6919,402.92267,62,64,70
402.92267,403.15344,60,64,70
403.15344,403.38422,58,64,70
403.38422,403.615,57,64,70
403.615,403.84576,55,64,70
403.84576,404.0765,53,64,70
404.0765,404.30728,51,64,70
404.30728,404.53806,50,64,70
404.53806,404.76883,58,64,70
404.76883,404.9996,58,64,70
404.9996,405.23038,58,64,70
405.23038,405.46112,58,64,70
405.46112,405.6919,58,64,70
405.6919,405.92267,58,64,70
405.92267,406.15344,58,64,70
406.15344,406.38422,58,64,70
406.38422,406.615,58,64,70
406.615,406.84573,58,64,70
406.84573,407.0765,58,64,70
407.0765,407.30728,58,64,70
407.30728,407.53806,58,64,70
407.53806,407.76883,58,64,70
407.76883,407.9996,58,64,70
407.9996,408.23035,58,64,70
408.23035,408.46112,58,64,70
408.46112,408.6919,58,64,70
408.6919,408.92267,58,64,70
408.92267,409.15344,58,64,70
409.15344,409.38422,58,64,70
409.38422,409.615,58,64,70
409.615,409.84573,58,64,70
409.84573,410.0765,58,64,70
410.0765,410.30728,58,64,70
410.30728,410.53806,58,64,70
410.53806,410.76883,58,64,70
410.76883,410.9996,58,64,70
410.9996,411.23035,58,64,70
411.23035,411.46112,58,64,70
411.46112,411.6919,58,64,70
411.6919,412.15344,58,64,70
412.15344,412.38422,55,64,70
412.38422,412.61496,55,64,70
412.61496,412.84573,54,64,70
412.84573,413.0765,55,64,70
413.0765,413.30728,56,64,70
413.30728,413.53806,53,64,70
413.53806,413.99957,50,64,70
413.99957,414.23035,46,64,70
414.23035,414.46112,51,64,70
414.46112,414.92267,53,64,70
414.92267,415.3842,55,64,70
415.3842,415.84573,51,64,70
417.23035,417.92267,62,64,70
417.92267,418.15344,63,64,70
418.15344,418.61496,65,64,70
418.61496,419.0765,62,64,70
419.0765,419.53806,63,64,70
420.92267,421.61496,58,64,70
421.61496,421.84573,58,64,70
421.84573,422.30728,58,64,70
422.30728,422.7688,58,64,70
422.7688,423.23035,63,64,70
424.61496,425.30728,53,64,70
425.30728,425.53802,55,64,70
425.53802,425.99957,56,64,70
425.99957,426.46112,50,64,70
426.46112,426.92264,51,64,70
428.30725,428.7688,63,64,70
430.1534,430.61496,63,64,70
431.99957,432.46112,63,64,70
432.46112,432.92264,63,64,70
432.92264,433.3842,60,64,70
433.3842,433.84573,65,64,70
433.84573,434.30725,63,64,70
440.7688,441.23032,63,64,70
441.23032,443.07648,61,64,70
443.07648,443.53802,60,64,70
444.92264,445.1534,51,64,70
445.1534,445.38416,55,64,70
445.38416,445.61493,58,64,70
445.61493,445.8457,55,64,70
445.8457,446.07648,51,64,70
446.07648,446.30725,55,64,70
446.30725,446.53802,58,64,70
446.53802,446.7688,55,64,70
446.7688,446.99954,51,64,70
446.99954,447.23032,55,64,70
447.23032,447.4611,58,64,70
447.4611,447.69186,55,64,70
447.69186,447.92264,56,64,70
447.92264,448.1534,60,64,70
448.1534,448.38416,58,64,70
448.38416,448.61493,56,64,70
448.61493,448.8457,55,64,70
448.8457,449.07648,58,64,70
449.07648,449.30725,60,64,70
449.30725,449.53802,62,64,70
449.53802,449.76877,63,64,70
449.76877,449.99954,62,64,70
449.99954,450.23032,63,64,70
450.23032,450.4611,60,64,70
450.4611,450.92264,58,64,70
450.92264,451.38416,57,64,70
451.38416,451.8457,58,64,70
451.8457,452.30725,46,64,70
452.30725,452.538,51,64,70
452.538,452.76877,51,64,70
452.76877,452.99954,53,64,70
452.99954,453.23032,55,64,70
453.23032,453.4611,51,64,70
453.4611,453.69186,51,64,70
453.69186,453.92264,53,64,70
453.92264,454.15338,55,64,70
454.15338,454.38416,46,64,70
454.38416,454.61493,50,64,70
454.61493,454.8457,58,64,70
454.8457,455.07648,53,64,70
455.07648,455.538,53,64,70
455.99954,456.23032,46,64,70
456.23032,456.4611,50,64,70
456.4611,456.69186,51,64,70
456.69186,456.9226,53,64,70
456.9226,457.15338,46,64,70
457.15338,457.38416,50,64,70
457.38416,457.61493,51,64,70
457.61493,457.8457,53,64,70
457.8457,458.07648,39,64,70
458.07648,458.30722,51,64,70
458.30722,458.538,53,64,70
458.538,458.76877,55,64,70
458.76877,459.23032,55,64,70
459.23032,459.69183,55,64,70
459.69183,461.538,61,64,70
461.538,461.99954,60,64,70
463.38416,463.8457,46,64,70
463.8457,464.30722,58,64,70
464.30722,465.69183,61,64,70
465.69183,466.15338,55,64,70
466.15338,466.61493,56,64,70
466.61493,467.07645,53,64,70
467.07645,467.538,55,64,70
467.538,467.99954,62,64,70
467.99954,468.46106,63,64,70
468.46106,468.9226,60,64,70
468.9226,469.38416,58,64,70
469.38416,469.84567,57,64,70
469.84567,470.30722,58,64,70
470.30722,470.76877,46,64,70
470.76877,470.99954,51,64,70
470.99954,471.2303,51,64,70
471.2303,471.46106,55,64,70
471.46106,471.69183,51,64,70
471.69183,471.9226,55,64,70
471.9226,472.15338,51,64,70
472.15338,472.38416,55,64,70
472.38416,472.6149,51,64,70
472.6149,472.84567,56,64,70
472.84567,473.07645,51,64,70
473.07645,473.30722,56,64,70
473.30722,473.538,51,64,70
473.538,473.76877,53,64,70
473.76877,473.9995,51,64,70
473.9995,474.2303,53,64,70
474.2303,474.46106,51,64,70
474.46106,474.69183,55,64,70
474.69183,474.9226,51,64,70
474.9226,475.15338,55,64,70
475.15338,475.38412,51,64,70
475.38412,475.6149,55,64,70
475.6149,475.84567,51,64,70
475.84567,476.07645,55,64,70
476.07645,476.30722,51,64,70
476.30722,476.538,60,64,70
476.538,476.76877,51,64,70
476.76877,476.9995,56,64,70
476.9995,477.2303,51,64,70
477.2303,477.46106,56,64,70
477.46106,477.69183,51,64,70
477.69183,477.9226,53,64,70
477.9226,478.15338,51,64,70
478.15338,478.38412,58,64,70
478.38412,478.6149,51,64,70
478.6149,478.84567,55,64,70
478.84567,479.07645,51,64,70
479.07645,479.30722,55,64,70
479.30722,479.538,51,64,70
479.538,479.76874,55,64,70
479.76874,479.9995,51,64,70
479.9995,481.84567,56,64,70
481.84567,483.69183,65,64,70
483.69183,484.15335,62,64,70
484.6149,485.07645,63,64,70
485.53796,485.9995,56,64,70
487.38412,487.84567,58,64,70
489.2303,489.6918,51,64,70
5.538456,5.999994,39,64,70
16.3846,16.615368,51,64,70
16.615368,16.846136,51,64,70
16.846136,17.076906,50,64,70
17.076906,17.307674,53,64,70
17.307674,17.538445,46,64,70
17.538445,17.999983,65,64,70
18.230751,18.46152,51,64,70
18.46152,18.69229,51,64,70
18.69229,18.923058,50,64,70
18.923058,19.153828,48,64,70
19.153828,19.384596,46,64,70
19.384596,20.307673,44,64,70
20.307673,20.76921,43,64,70
20.76921,21.230747,43,64,70
21.230747,21.692286,43,64,70
22.153824,23.999975,44,64,70
23.999975,24.461514,44,64,70
24.461514,24.923052,43,64,70
24.923052,25.38459,48,64,70
25.38459,25.846128,41,64,70
25.846128,26.307667,46,64,70
26.307667,26.769203,39,64,70
26.769203,27.230742,44,64,70
27.230742,27.69228,46,64,70
27.69228,28.153818,43,64,70
28.153818,28.615356,43,64,70
28.615356,29.076895,43,64,70
35.07689,35.538425,39,64,70
36.92304,37.38458,48,64,70
38.76919,39.23073,44,64,70
40.615345,40.84611,41,64,70
40.84611,41.07688,53,64,70
41.07688,41.30765,41,64,70
41.30765,41.53842,53,64,70
41.53842,41.769188,44,64,70
41.999958,42.23073,44,64,70
42.461494,42.692265,46,64,70
42.692265,42.923035,50,64,70
42.923035,43.153805,46,64,70
43.153805,43.38457,50,64,70
43.38457,43.61534,46,64,70
44.307648,44.769184,39,64,70
44.769184,45.230724,51,64,70
45.230724,45.69226,41,64,70
45.69226,46.1538,53,64,70
46.1538,46.615337,43,64,70
46.615337,47.076878,46,64,70
47.076878,47.538414,43,64,70
47.538414,47.99995,39,64,70
47.99995,48.23072,41,64,70
48.23072,48.46149,53,64,70
48.46149,48.69226,41,64,70
48.69226,48.923027,53,64,70
48.923027,49.153797,44,64,70
49.384567,49.615334,44,64,70
49.846104,50.076874,46,64,70
50.076874,50.307644,50,64,70
50.307644,50.53841,46,64,70
50.53841,50.76918,50,64,70
50.76918,50.99995,46,64,70
51.692257,52.153793,39,64,70
52.153793,52.615334,51,64,70
52.615334,53.07687,41,64,70
53.07687,53.538406,53,64,70
53.538406,53.999947,43,64,70
53.999947,54.461483,43,64,70
54.461483,54.923023,36,64,70
54.923023,55.38456,48,64,70
55.38456,55.8461,46,64,70
69.69224,69.923004,51,64,70
70.15378,70.384544,50,64,70
71.07685,71.99993,48,64,70
71.99993,72.2307,46,64,70
73.384544,73.61531,45,64,70
73.84608,74.07685,43,64,70
75.69223,76.15377,41,64,70
77.53838,77.99992,45,64,70
78.46146,78.923,48,64,70
78.923,79.38454,41,64,70
79.38454,79.84608,46,64,70
82.6153,83.07684,41,64,70
83.07684,83.30761,50,64,70
83.538376,83.76915,41,64,70
84.92299,85.38453,51,64,70
85.84607,86.30761,45,64,70
86.30761,86.76914,41,64,70
86.76914,87.23068,46,64,70
87.46145,87.69222,62,64,70
87.69222,87.92299,61,64,70
87.92299,88.153755,62,64,70
88.153755,88.38453,63,64,70
88.38453,88.615295,60,64,70
88.615295,89.3076,57,64,70
89.3076,89.53837,58,64,70
89.53837,89.99991,60,64,70
89.99991,90.46145,53,64,70
90.46145,90.92299,58,64,70
92.3076,92.769135,46,64,70
94.153755,95.9999,44,64,70
95.9999,96.46144,43,64,70
98.769135,98.9999,50,64,70
99.69221,99.92297,50,64,70
100.15375,100.384514,50,64,70
100.61529,100.846054,51,64,70
101.07682,101.307594,48,64,70
101.9999,102.23067,45,64,70
102.46143,102.69221,46,64,70
102.92297,103.15374,43,64,70
103.384514,103.84605,41,64,70
103.84605,104.30759,40,64,70
104.30759,104.76913,41,64,70
104.76913,105.23067,41,64,70
107.07681,107.53835,46,64,70
107.76912,107.99989,46,64,70
107.99989,108.11528,45,64,70
108.11528,108.23066,46,64,70
108.23066,108.34605,45,64,70
108.34605,108.46143,46,64,70
108.46143,108.6922,48,64,70
108.6922,108.922966,46,64,70
108.922966,110.76912,44,64,70
110.76912,111.23066,43,64,70
113.538345,113.999886,53,64,70
113.999886,114.461426,50,64,70
114.461426,114.92296,46,64,70
114.92296,115.3845,44,64,70
115.3845,115.84604,43,64,70
115.84604,116.30758,45,64,70
116.30758,116.76911,46,64,70
116.76911,117.23065,48,64,70
117.23065,117.69219,50,64,70
117.69219,118.153725,51,64,70
118.153725,118.615265,53,64,70
118.615265,119.076805,43,64,70
119.076805,119.538345,40,64,70
119.538345,119.99988,41,64,70
119.99988,120.46142,46,64,70
121.84603,122.30757,46,64,70
123.692184,124.153725,46,64,70
125.0768,125.30756,57,64,70
125.30756,125.53834,58,64,70
125.53834,125.769104,46,64,70
125.769104,125.99987,58,64,70
125.99987,126.230644,53,64,70
126.230644,126.46141,58,64,70
126.46141,126.692184,46,64,70
126.692184,126.92295,58,64,70
126.92295,127.15372,46,64,70
127.15372,127.38449,58,64,70
127.38449,127.84602,46,64,70
128.30757,128.7691,46,64,70
129.23064,129.69218,46,64,70
132.92294,133.38448,39,64,70
143.76909,143.99986,51,64,70
143.99986,144.23062,51,64,70
144.23062,144.4614,50,64,70
144.4614,144.69217,53,64,70
144.69217,144.92293,46,64,70
144.92293,145.38448,65,64,70
145.61523,145.84601,51,64,70
145.84601,146.07678,51,64,70
146.07678,146.30754,50,64,70
146.30754,146.53831,48,64,70
146.53831,146.76909,46,64,70
146.76909,147.69215,44,64,70
147.69215,148.1537,43,64,70
148.1537,148.61523,43,64,70
148.61523,149.07677,43,64,70
149.53831,151.38446,44,64,70
151.38446,151.84601,44,64,70
151.84601,152.30754,43,64,70
152.30754,152.76907,48,64,70
152.76907,153.23062,41,64,70
153.23062,153.69215,46,64,70
153.69215,154.15369,39,64,70
154.15369,154.61523,44,64,70
154.61523,155.07677,46,64,70
155.07677,155.5383,43,64,70
155.5383,155.99985,43,64,70
155.99985,156.46138,43,64,70
162.46138,162.92291,39,64,70
164.30753,164.76907,48,64,70
166.15369,166.61522,44,64,70
167.99983,168.2306,41,64,70
168.2306,168.46136,53,64,70
168.46136,168.69214,41,64,70
168.69214,168.92291,53,64,70
168.92291,169.15367,44,64,70
169.38445,169.61522,44,64,70
169.84598,170.07675,46,64,70
170.07675,170.30753,50,64,70
170.30753,170.53828,46,64,70
170.53828,170.76906,50,64,70
170.76906,170.99983,46,64,70
171.69214,172.15367,39,64,70
172.15367,172.61522,51,64,70
172.61522,173.07675,41,64,70
173.07675,173.53828,53,64,70
173.53828,173.99983,43,64,70
173.99983,174.46136,46,64,70
174.46136,174.9229,43,64,70
174.9229,175.38445,39,64,70
175.38445,175.6152,41,64,70
175.6152,175.84598,53,64,70
175.84598,176.07675,41,64,70
176.07675,176.30751,53,64,70
176.30751,176.53828,44,64,70
176.76906,176.99982,44,64,70
177.23059,177.46136,46,64,70
177.46136,177.69212,50,64,70
177.69212,177.9229,46,64,70
177.9229,178.15367,50,64,70
178.15367,178.38443,46,64,70
179.07674,179.53828,39,64,70
179.53828,179.99982,51,64,70
179.99982,180.46136,41,64,70
180.46136,180.9229,53,64,70
180.9229,181.38443,43,64,70
181.38443,181.84598,43,64,70
181.84598,182.30751,36,64,70
182.30751,182.76904,48,64,70
182.76904,183.23059,46,64,70
197.07672,197.3075,51,64,70
197.53827,197.76903,50,64,70
198.46133,199.38441,48,64,70
199.38441,199.61519,46,64,70
200.76903,200.9998,45,64,70
201.23058,201.46133,43,64,70
203.07672,203.53825,41,64,70
204.92287,205.38441,45,64,70
205.84595,206.30748,48,64,70
206.30748,206.76903,41,64,70
206.76903,207.23056,46,64,70
209.99979,210.46133,41,64,70
210.46133,210.6921,50,64,70
210.92287,211.15364,41,64,70
212.30748,212.76901,51,64,70
213.23056,213.6921,45,64,70
213.6921,214.15363,41,64,70
214.15363,214.61517,46,64,70
214.84593,215.0767,62,64,70
215.0767,215.30748,61,64,70
215.30748,215.53824,62,64,70
215.53824,215.76901,63,64,70
215.76901,215.99979,60,64,70
215.99979,216.6921,57,64,70
216.6921,216.92287,58,64,70
216.92287,217.3844,60,64,70
217.3844,217.84593,53,64,70
217.84593,218.30748,58,64,70
219.6921,220.15363,46,64,70
221.53824,223.3844,44,64,70
223.3844,223.84593,43,64,70
226.15363,226.38438,50,64,70
227.07669,227.30746,50,64,70
227.53824,227.769,50,64,70
227.99977,228.23055,51,64,70
228.4613,228.69208,48,64,70
229.38438,229.61516,45,64,70
229.84592,230.07669,46,64,70
230.30746,230.53824,43,64,70
230.769,231.23055,41,64,70
231.23055,231.69208,40,64,70
231.69208,232.15361,41,64,70
232.15361,232.61516,41,64,70
234.4613,234.92284,46,64,70
235.15361,235.38438,46,64,70
235.38438,235.49977,45,64,70
235.49977,235.61514,46,64,70
235.61514,235.73053,45,64,70
235.73053,235.84592,46,64,70
235.84592,236.07669,48,64,70
236.07669,236.30745,46,64,70
236.30745,238.15361,44,64,70
238.15361,238.61514,43,64,70
240.92284,241.38437,53,64,70
241.38437,241.84592,50,64,70
241.84592,242.30745,46,64,70
242.30745,242.76898,44,64,70
242.76898,243.23053,43,64,70
243.23053,243.69206,45,64,70
243.69206,244.1536,46,64,70
244.1536,244.61514,48,64,70
244.61514,245.07668,50,64,70
245.07668,245.53822,51,64,70
245.53822,245.99976,53,64,70
245.99976,246.46129,43,64,70
246.46129,246.92284,40,64,70
246.92284,247.38437,41,64,70
247.38437,247.8459,46,64,70
249.23051,249.69206,46,64,70
251.07668,251.53821,46,64,70
252.46129,252.69206,57,64,70
252.69206,252.92282,58,64,70
252.92282,253.1536,46,64,70
253.1536,253.38437,58,64,70
253.38437,253.61513,53,64,70
253.61513,253.8459,58,64,70
253.8459,254.07668,46,64,70
254.07668,254.30743,58,64,70
254.30743,254.53821,46,64,70
254.53821,254.76898,58,64,70
254.76898,255.23051,46,64,70
255.69205,256.1536,46,64,70
256.61514,257.07666,46,64,70
258.46127,258.92282,38,64,70
259.38437,259.8459,38,64,70
260.30743,260.5382,43,64,70
261.2305,261.46127,47,64,70
262.1536,262.38434,48,64,70
263.99973,264.2305,47,64,70
265.8459,266.07666,48,64,70
267.69205,268.15356,43,64,70
268.6151,269.07666,43,64,70
269.53818,269.76895,36,64,70
270.2305,270.46127,48,64,70
270.46127,270.57666,52,64,70
270.69205,270.80743,48,64,70
270.92282,271.15356,52,64,70
271.15356,271.38434,48,64,70
271.38434,271.6151,53,64,70
273.2305,273.46127,52,64,70
273.9228,274.15356,48,64,70
274.15356,274.26895,52,64,70
274.38434,274.49973,48,64,70
274.6151,274.8459,52,64,70
274.8459,275.07666,48,64,70
275.07666,275.3074,53,64,70
283.84586,284.3074,56,64,70
284.3074,284.99973,58,64,70
284.99973,285.23047,60,64,70
285.23047,285.69202,61,64,70
285.69202,286.15356,60,64,70
286.15356,286.6151,49,64,70
287.07663,287.53818,51,64,70
313.84583,314.0766,43,64,70
315.692,315.92276,43,64,70
315.92276,316.15353,55,64,70
316.15353,316.3843,53,64,70
316.3843,316.61508,51,64,70
316.61508,316.84583,50,64,70
316.84583,317.0766,48,64,70
317.0766,317.30737,47,64,70
317.30737,317.53815,48,64,70
317.53815,317.76892,43,64,70
318.23044,318.4612,55,64,70
318.4612,318.5766,55,64,70
318.692,318.80737,55,64,70
318.92276,319.15353,55,64,70
319.15353,319.3843,55,64,70
319.3843,319.61505,55,64,70
321.23044,321.4612,43,64,70
321.92276,322.15353,55,64,70
322.15353,322.26892,55,64,70
322.3843,322.49966,55,64,70
322.61505,322.84583,55,64,70
322.84583,323.0766,55,64,70
323.0766,323.30737,55,64,70
325.38428,325.61505,54,64,70
325.61505,325.84583,55,64,70
325.84583,326.30737,43,64,70
326.30737,326.53815,54,64,70
326.53815,326.7689,55,64,70
326.7689,327.23044,43,64,70
327.692,328.1535,43,64,70
328.1535,328.61505,43,64,70
328.61505,329.0766,41,64,70
329.53815,329.99966,41,64,70
329.99966,330.4612,41,64,70
330.4612,330.92276,39,64,70
331.38428,331.84583,39,64,70
331.84583,332.30737,39,64,70
332.30737,332.7689,44,64,70
333.23044,333.692,45,64,70
334.1535,334.61505,46,64,70
337.38428,337.84583,58,64,70
337.84583,338.30734,58,64,70
344.7689,345.23044,46,64,70
345.23044,347.07657,51,64,70
347.07657,347.53812,46,64,70
348.46118,348.92273,34,64,70
348.92273,350.7689,34,64,70
350.7689,351.2304,34,64,70
353.53812,353.7689,51,64,70
353.7689,353.99963,50,64,70
353.99963,354.2304,48,64,70
354.2304,354.46118,46,64,70
357.2304,357.46118,53,64,70
358.15347,358.38425,46,64,70
359.07657,359.30734,46,64,70
359.99963,360.2304,34,64,70
360.46118,360.69196,38,64,70
360.69196,360.92273,39,64,70
360.92273,361.15347,41,64,70
361.15347,361.38425,43,64,70
361.38425,361.61502,44,64,70
361.61502,361.8458,46,64,70
361.8458,362.30734,39,64,70
369.2304,369.46118,41,64,70
369.46118,369.69193,53,64,70
369.69193,369.9227,41,64,70
369.9227,370.15347,53,64,70
370.15347,370.38425,44,64,70
370.61502,370.8458,44,64,70
371.07654,371.3073,46,64,70
371.3073,371.5381,50,64,70
371.5381,371.76886,46,64,70
371.76886,371.99963,50,64,70
371.99963,372.2304,46,64,70
372.2304,372.46115,50,64,70
372.46115,372.69193,46,64,70
372.69193,372.9227,50,64,70
372.9227,373.38425,39,64,70
373.38425,373.8458,51,64,70
373.8458,374.3073,41,64,70
374.3073,374.76886,53,64,70
374.76886,375.2304,43,64,70
375.2304,375.69193,46,64,70
375.69193,376.15347,43,64,70
376.15347,376.61502,39,64,70
376.61502,376.84576,41,64,70
376.84576,377.07654,53,64,70
377.07654,377.3073,41,64,70
377.3073,377.5381,53,64,70
377.5381,377.76886,44,64,70
377.99963,378.23038,44,64,70
378.46115,378.69193,46,64,70
378.69193,378.9227,50,64,70
378.9227,379.15347,46,64,70
379.15347,379.38425,50,64,70
379.38425,379.615,46,64,70
379.615,379.84576,50,64,70
379.84576,380.07654,46,64,70
380.07654,380.3073,50,64,70
380.3073,380.76886,39,64,70
380.76886,381.23038,51,64,70
381.23038,381.69193,41,64,70
381.69193,382.15347,53,64,70
382.15347,382.615,43,64,70
382.615,383.07654,43,64,70
383.07654,383.5381,36,64,70
383.5381,383.9996,48,64,70
383.9996,384.46115,46,64,70
391.38422,392.3073,60,64,70
392.3073,393.23038,56,64,70
393.23038,393.69193,55,64,70
395.07654,395.53806,49,64,70
396.92267,397.38422,44,64,70
398.30728,398.76883,56,64,70
398.76883,399.46115,55,64,70
399.6919,399.92267,53,64,70
400.615,401.0765,51,64,70
401.53806,401.9996,51,64,70
401.9996,402.46115,50,64,70
402.46115,402.6919,48,64,70
404.30728,404.53806,46,64,70
406.15344,406.38422,50,64,70
406.615,406.84573,46,64,70
407.0765,407.30728,53,64,70
407.53806,407.76883,46,64,70
407.9996,408.23035,51,64,70
408.46112,408.6919,46,64,70
409.84573,410.0765,56,64,70
410.30728,410.53806,46,64,70
410.76883,410.9996,50,64,70
411.23035,411.46112,46,64,70
411.6919,412.15344,51,64,70
414.92267,415.3842,46,64,70
417.23035,417.92267,58,64,70
417.92267,418.15344,58,64,70
418.15344,418.61496,58,64,70
418.61496,419.0765,58,64,70
419.0765,419.53806,51,64,70
420.92267,421.61496,46,64,70
421.61496,421.84573,46,64,70
421.84573,422.30728,46,64,70
422.30728,422.7688,46,64,70
422.7688,423.23035,51,64,70
424.61496,425.30728,50,64,70
425.30728,425.53802,51,64,70
425.53802,425.99957,53,64,70
425.99957,426.46112,46,64,70
426.46112,426.92264,48,64,70
428.30725,428.7688,57,64,70
430.1534,430.61496,58,64,70
431.99957,432.46112,60,64,70
432.46112,432.92264,58,64,70
432.92264,433.3842,56,64,70
433.3842,433.84573,58,64,70
433.84573,434.30725,51,64,70
440.7688,441.23032,51,64,70
441.23032,443.07648,49,64,70
443.07648,443.53802,48,64,70
444.92264,445.1534,46,64,70
446.7688,446.99954,46,64,70
447.23032,447.4611,43,64,70
447.69186,447.92264,44,64,70
448.1534,448.38416,43,64,70
448.61493,448.8457,43,64,70
449.07648,449.30725,50,64,70
449.53802,449.76877,51,64,70
449.99954,450.23032,48,64,70
450.4611,450.92264,46,64,70
450.92264,451.38416,45,64,70
451.38416,451.8457,46,64,70
451.8457,452.30725,34,64,70
452.30725,452.538,39,64,70
454.61493,454.8457,51,64,70
458.30722,458.538,51,64,70
459.23032,459.69183,51,64,70
459.69183,461.538,49,64,70
461.538,461.99954,48,64,70
465.23032,465.69183,46,64,70
465.69183,466.15338,43,64,70
466.15338,466.61493,44,64,70
466.61493,467.07645,41,64,70
467.07645,467.538,43,64,70
467.538,467.99954,50,64,70
467.99954,468.46106,51,64,70
468.46106,468.9226,48,64,70
468.9226,469.38416,46,64,70
469.38416,469.84567,45,64,70
469.84567,470.30722,46,64,70
470.30722,470.76877,34,64,70
470.76877,470.99954,39,64,70
476.30722,476.538,56,64,70
477.2303,477.46106,53,64,70
478.15338,478.38412,55,64,70
479.9995,481.84567,44,64,70
481.84567,483.69183,53,64,70
483.69183,484.15335,50,64,70
484.6149,485.07645,51,64,70
485.53796,485.9995,44,64,70
487.38412,487.84567,46,64,70
489.2303,489.6918,39,64,70
