start_time,end_time,note_value,velocity,instrument_program_number
3.6,4.1975,68,64,60
4.2,4.7975,66,64,60
4.8,4.9975,65,64,60
6.6,7.1975,63,64,60
7.2,7.7975,63,64,60
7.8,8.3975,63,64,60
8.4,8.9975,63,64,60
9.0,9.3975,63,64,60
10.2,10.3975,58,64,60
10.4,10.5975,58,64,60
10.6,10.7975,58,64,60
10.8,10.9975,58,64,60
13.2,13.7975,68,64,60
13.8,14.3975,66,64,60
14.4,14.5975,65,64,60
16.2,16.7975,63,64,60
16.8,17.3975,63,64,60
17.4,17.9975,63,64,60
18.0,18.5975,63,64,60
18.6,18.9975,63,64,60
19.8,19.9975,58,64,60
20.0,20.1975,58,64,60
20.2,20.3975,58,64,60
20.4,20.5975,58,64,60
25.2,25.3975,67,64,60
25.8,25.9975,68,64,60
29.4,29.5975,58,64,60
29.6,29.7975,65,64,60
29.8,29.9975,67,64,60
30.0,30.3975,68,64,60
30.4,30.5975,67,64,60
30.6,30.7975,65,64,60
31.8,31.9975,65,64,60
32.0,32.1975,65,64,60
32.2,32.3975,67,64,60
32.4,32.7975,68,64,60
32.8,32.9975,67,64,60
33.0,33.1975,65,64,60
37.8,37.9975,70,64,60
38.0,38.1975,58,64,60
38.2,38.3975,58,64,60
38.4,38.9975,58,64,60
43.2,43.7975,63,64,60
44.4,44.9975,65,64,60
45.6,46.1975,65,64,60
46.2,46.7975,67,64,60
46.8,47.3975,68,64,60
47.4,47.7975,67,64,60
47.8,47.9975,67,64,60
48.0,48.1975,65,64,60
48.2,48.3975,65,64,60
48.4,48.5975,65,64,60
48.6,48.7975,63,64,60
49.3,49.3975,63,64,60
49.4,49.5975,63,64,60
49.6,49.7975,63,64,60
49.8,49.9975,63,64,60
50.0,50.1975,63,64,60
50.2,50.3975,63,64,60
50.4,50.5975,63,64,60
50.6,50.7975,63,64,60
50.8,50.9975,63,64,60
51.0,51.1975,63,64,60
51.2,51.3975,63,64,60
51.4,51.5975,63,64,60
51.6,51.7975,63,64,60
51.8,51.9975,63,64,60
52.0,52.1975,63,64,60
52.2,52.3975,63,64,60
52.4,52.5975,63,64,60
52.6,52.7975,63,64,60
52.8,53.1975,58,64,60
53.2,53.3975,58,64,60
53.4,53.5975,65,64,60
54.0,54.1975,63,64,60
54.2,54.3975,63,64,60
54.4,54.5975,63,64,60
54.6,54.7975,63,64,60
54.8,54.9975,63,64,60
55.0,55.1975,63,64,60
55.2,55.3975,63,64,60
55.4,55.5975,63,64,60
55.6,55.7975,63,64,60
55.8,55.9975,63,64,60
56.6,56.7975,58,64,60
56.8,56.9975,63,64,60
57.0,57.1975,67,64,60
57.2,57.3975,63,64,60
57.4,57.5975,67,64,60
57.6,57.7975,70,64,60
57.8,57.9975,68,64,60
58.0,58.1975,65,64,60
58.2,58.3975,63,64,60
58.4,58.5975,63,64,60
58.6,58.7975,63,64,60
58.8,58.9975,63,64,60
63.6,63.7975,67,64,60
64.2,64.3975,68,64,60
67.8,67.9975,58,64,60
68.0,68.1975,65,64,60
68.2,68.3975,67,64,60
68.4,68.7975,68,64,60
68.8,68.9975,67,64,60
69.0,69.1975,65,64,60
70.2,70.3975,65,64,60
70.4,70.5975,65,64,60
70.6,70.7975,67,64,60
70.8,71.1975,68,64,60
71.2,71.3975,67,64,60
71.4,71.5975,65,64,60
76.2,76.3975,70,64,60
76.4,76.5975,58,64,60
76.6,76.7975,58,64,60
76.8,77.3975,58,64,60
81.6,82.1975,63,64,60
82.8,83.3975,65,64,60
84.0,84.5975,65,64,60
84.6,85.1975,67,64,60
85.2,85.7975,68,64,60
85.8,86.1975,67,64,60
86.2,86.3975,67,64,60
86.4,86.5975,65,64,60
86.6,86.7975,65,64,60
86.8,86.9975,65,64,60
87.0,87.1975,63,64,60
87.7,87.7975,63,64,60
87.8,87.9975,63,64,60
88.0,88.1975,63,64,60
88.2,88.3975,63,64,60
88.4,88.5975,63,64,60
88.6,88.7975,63,64,60
88.8,88.9975,63,64,60
89.0,89.1975,63,64,60
89.2,89.3975,63,64,60
89.4,89.5975,63,64,60
89.6,89.7975,63,64,60
89.8,89.9975,63,64,60
90.0,90.1975,63,64,60
90.2,90.3975,63,64,60
90.4,90.5975,63,64,60
90.6,90.7975,63,64,60
90.8,90.9975,63,64,60
91.0,91.1975,63,64,60
91.2,91.5975,58,64,60
91.6,91.7975,58,64,60
91.8,91.9975,65,64,60
92.4,92.5975,63,64,60
92.6,92.7975,63,64,60
92.8,92.9975,63,64,60
93.0,93.1975,63,64,60
93.2,93.3975,63,64,60
93.4,93.5975,63,64,60
93.6,93.7975,63,64,60
93.8,93.9975,63,64,60
94.0,94.1975,63,64,60
94.2,94.3975,63,64,60
95.0,95.1975,58,64,60
95.2,95.3975,63,64,60
95.4,95.5975,67,64,60
95.6,95.7975,63,64,60
95.8,95.9975,67,64,60
96.0,96.1975,70,64,60
96.2,96.3975,68,64,60
96.4,96.5975,65,64,60
96.6,96.7975,63,64,60
96.8,96.9975,63,64,60
97.0,97.1975,63,64,60
97.2,97.3975,63,64,60
99.0,99.3975,63,64,60
99.4,99.5975,65,64,60
99.6,99.7975,67,64,60
101.4,101.9975,56,64,60
102.0,102.1975,63,64,60
103.8,104.3975,65,64,60
104.4,104.5975,65,64,60
106.2,106.7975,65,64,60
106.8,106.9975,58,64,60
108.6,108.9975,63,64,60
109.0,109.1975,65,64,60
109.2,109.3975,67,64,60
111.0,111.5975,56,64,60
111.6,111.7975,63,64,60
113.4,113.9975,65,64,60
114.0,114.1975,65,64,60
115.8,116.3975,65,64,60
116.4,116.5975,58,64,60
117.6,118.1975,67,64,60
118.2,118.3975,67,64,60
121.8,121.9975,58,64,60
122.4,122.5975,63,64,60
125.4,125.7975,63,64,60
125.8,125.9975,65,64,60
126.0,126.1975,67,64,60
127.8,128.1975,63,64,60
128.2,128.3975,65,64,60
128.4,128.5975,63,64,60
129.6,130.1975,67,64,60
130.2,130.3975,67,64,60
133.8,133.9975,58,64,60
134.4,134.5975,63,64,60
137.4,137.7975,63,64,60
137.8,137.9975,65,64,60
138.0,138.1975,67,64,60
139.8,140.1975,63,64,60
140.2,140.3975,65,64,60
140.4,140.5975,63,64,60
142.8,143.3975,68,64,60
143.4,143.9975,66,64,60
144.0,144.1975,65,64,60
145.8,146.3975,63,64,60
146.4,146.9975,63,64,60
147.0,147.5975,63,64,60
147.6,148.1975,63,64,60
148.2,148.5975,63,64,60
149.4,149.5975,58,64,60
149.6,149.7975,58,64,60
149.8,149.9975,58,64,60
150.0,150.1975,58,64,60
154.8,154.9975,67,64,60
155.4,155.5975,68,64,60
159.0,159.1975,58,64,60
159.2,159.3975,65,64,60
159.4,159.5975,67,64,60
159.6,159.9975,68,64,60
160.0,160.1975,67,64,60
160.2,160.3975,65,64,60
161.4,161.5975,65,64,60
161.6,161.7975,65,64,60
161.8,161.9975,67,64,60
162.0,162.3975,68,64,60
162.4,162.5975,67,64,60
162.6,162.7975,65,64,60
167.4,167.5975,70,64,60
167.6,167.7975,58,64,60
167.8,167.9975,58,64,60
168.0,168.5975,58,64,60
172.8,173.3975,63,64,60
174.0,174.5975,65,64,60
175.2,175.7975,65,64,60
175.8,176.3975,67,64,60
176.4,176.9975,68,64,60
177.0,177.3975,67,64,60
177.4,177.5975,67,64,60
177.6,177.7975,65,64,60
177.8,177.9975,65,64,60
178.0,178.1975,65,64,60
178.2,178.3975,63,64,60
178.9,178.9975,63,64,60
179.0,179.1975,63,64,60
179.2,179.3975,63,64,60
179.4,179.5975,63,64,60
179.6,179.7975,63,64,60
179.8,179.9975,63,64,60
180.0,180.1975,63,64,60
180.2,180.3975,63,64,60
180.4,180.5975,63,64,60
180.6,180.7975,63,64,60
180.8,180.9975,63,64,60
181.0,181.1975,63,64,60
181.2,181.3975,63,64,60
181.4,181.5975,63,64,60
181.6,181.7975,63,64,60
181.8,181.9975,63,64,60
182.0,182.1975,63,64,60
182.2,182.3975,63,64,60
182.4,182.7975,58,64,60
182.8,182.9975,58,64,60
183.0,183.1975,65,64,60
183.6,183.7975,63,64,60
183.8,183.9975,63,64,60
184.0,184.1975,63,64,60
184.2,184.3975,63,64,60
184.4,184.5975,63,64,60
184.6,184.7975,63,64,60
184.8,184.9975,63,64,60
185.0,185.1975,63,64,60
185.2,185.3975,63,64,60
185.4,185.5975,63,64,60
186.2,186.3975,58,64,60
186.4,186.5975,63,64,60
186.6,186.7975,67,64,60
186.8,186.9975,63,64,60
187.0,187.1975,67,64,60
187.2,187.3975,70,64,60
187.4,187.5975,68,64,60
187.6,187.7975,65,64,60
187.8,187.9975,63,64,60
188.0,188.1975,63,64,60
188.2,188.3975,63,64,60
188.4,188.5975,63,64,60
5.4,5.5975,63,64,60
5.6,5.9975,51,64,60
6.0,6.5975,51,64,60
6.6,7.1975,51,64,60
7.2,7.7975,51,64,60
7.8,8.3975,51,64,60
8.4,8.9975,51,64,60
9.0,9.3975,51,64,60
10.2,10.3975,46,64,60
10.4,10.5975,46,64,60
10.6,10.7975,46,64,60
10.8,10.9975,46,64,60
15.0,15.1975,63,64,60
15.2,15.5975,51,64,60
15.6,16.1975,51,64,60
16.2,16.7975,51,64,60
16.8,17.3975,51,64,60
17.4,17.9975,51,64,60
18.0,18.5975,51,64,60
18.6,18.9975,51,64,60
19.8,19.9975,46,64,60
20.0,20.1975,46,64,60
20.2,20.3975,46,64,60
20.4,20.5975,46,64,60
25.2,25.3975,63,64,60
25.8,25.9975,63,64,60
29.4,29.5975,58,64,60
29.6,29.7975,58,64,60
29.8,29.9975,63,64,60
30.0,30.3975,65,64,60
30.4,30.5975,63,64,60
30.6,30.7975,58,64,60
31.8,31.9975,58,64,60
32.0,32.1975,58,64,60
32.2,32.3975,63,64,60
32.4,32.7975,65,64,60
32.8,32.9975,63,64,60
33.0,33.1975,58,64,60
36.0,36.5975,66,64,60
36.6,37.1975,65,64,60
37.2,37.7975,63,64,60
37.8,37.9975,62,64,60
40.8,41.3975,58,64,60
41.4,41.9975,58,64,60
42.0,42.3975,58,64,60
42.4,42.5975,58,64,60
42.6,42.7975,63,64,60
43.2,43.7975,63,64,60
44.4,44.9975,63,64,60
45.6,46.1975,63,64,60
46.2,46.7975,63,64,60
46.8,47.3975,63,64,60
47.4,47.7975,63,64,60
47.8,47.9975,63,64,60
48.0,48.1975,58,64,60
48.2,48.3975,46,64,60
48.4,48.5975,46,64,60
48.6,48.8,39,64,60
48.8,49.0,27,64,60
49.0,49.2,27,64,60
49.2,49.8,27,64,60
53.2,53.4,46,64,60
53.4,53.5975,60,64,60
54.0,54.1975,60,64,60
54.2,54.3975,48,64,60
54.4,54.5975,48,64,60
54.6,54.7975,48,64,60
54.8,54.9975,48,64,60
55.0,55.1975,48,64,60
55.2,55.3975,48,64,60
55.4,55.5975,48,64,60
55.6,55.7975,48,64,60
55.8,55.9975,48,64,60
56.0,56.1975,51,64,60
56.2,56.3975,55,64,60
56.4,56.5975,58,64,60
56.6,56.7975,55,64,60
56.8,56.9975,58,64,60
57.0,57.1975,63,64,60
57.2,57.3975,58,64,60
57.4,57.5975,63,64,60
57.6,57.7975,67,64,60
57.8,57.9975,65,64,60
58.0,58.1975,58,64,60
58.2,58.3975,55,64,60
58.4,58.5975,55,64,60
58.6,58.7975,55,64,60
58.8,58.9975,55,64,60
63.6,63.7975,63,64,60
64.2,64.3975,63,64,60
67.8,67.9975,58,64,60
68.0,68.1975,58,64,60
68.2,68.3975,63,64,60
68.4,68.7975,65,64,60
68.8,68.9975,63,64,60
69.0,69.1975,58,64,60
70.2,70.3975,58,64,60
70.4,70.5975,58,64,60
70.6,70.7975,63,64,60
70.8,71.1975,65,64,60
71.2,71.3975,63,64,60
71.4,71.5975,58,64,60
74.4,74.9975,66,64,60
75.0,75.5975,65,64,60
75.6,76.1975,63,64,60
76.2,76.3975,62,64,60
79.2,79.7975,58,64,60
79.8,80.3975,58,64,60
80.4,80.7975,58,64,60
80.8,80.9975,58,64,60
81.0,81.1975,63,64,60
81.6,82.1975,63,64,60
82.8,83.3975,63,64,60
84.0,84.5975,63,64,60
84.6,85.1975,63,64,60
85.2,85.7975,63,64,60
85.8,86.1975,63,64,60
86.2,86.3975,63,64,60
86.4,86.5975,58,64,60
86.6,86.7975,46,64,60
86.8,86.9975,46,64,60
87.0,87.2,39,64,60
87.2,87.4,27,64,60
87.4,87.6,27,64,60
87.6,88.2,27,64,60
91.6,91.8,46,64,60
91.8,91.9975,60,64,60
92.4,92.5975,60,64,60
92.6,92.7975,48,64,60
92.8,92.9975,48,64,60
93.0,93.1975,48,64,60
93.2,93.3975,48,64,60
93.4,93.5975,48,64,60
93.6,93.7975,48,64,60
93.8,93.9975,48,64,60
94.0,94.1975,48,64,60
94.2,94.3975,48,64,60
94.4,94.5975,51,64,60
94.6,94.7975,55,64,60
94.8,94.9975,58,64,60
95.0,95.1975,55,64,60
95.2,95.3975,58,64,60
95.4,95.5975,63,64,60
95.6,95.7975,58,64,60
95.8,95.9975,63,64,60
96.0,96.1975,67,64,60
96.2,96.3975,65,64,60
96.4,96.5975,58,64,60
96.6,96.7975,55,64,60
96.8,96.9975,55,64,60
97.0,97.1975,55,64,60
97.2,97.3975,55,64,60
99.0,99.3975,55,64,60
99.4,99.5975,58,64,60
99.6,99.7975,63,64,60
101.4,101.9975,58,64,60
102.0,102.1975,51,64,60
103.8,104.3975,65,64,60
104.4,104.5975,65,64,60
106.2,106.7975,65,64,60
106.8,106.9975,58,64,60
108.6,108.9975,55,64,60
109.0,109.1975,58,64,60
109.2,109.3975,63,64,60
111.0,111.5975,58,64,60
111.6,111.7975,51,64,60
113.4,113.9975,65,64,60
114.0,114.1975,65,64,60
115.8,116.3975,65,64,60
116.4,116.5975,58,64,60
117.6,118.1975,55,64,60
118.2,118.3975,55,64,60
121.8,121.9975,46,64,60
122.4,122.5975,51,64,60
125.4,125.7975,55,64,60
125.8,125.9975,58,64,60
126.0,126.1975,63,64,60
127.8,128.1975,55,64,60
128.2,128.3975,58,64,60
128.4,128.5975,55,64,60
129.6,130.1975,55,64,60
130.2,130.3975,55,64,60
133.8,133.9975,46,64,60
134.4,134.5975,51,64,60
137.4,137.7975,55,64,60
137.8,137.9975,58,64,60
138.0,138.1975,63,64,60
139.8,140.1975,55,64,60
140.2,140.3975,58,64,60
140.4,140.5975,55,64,60
144.6,144.7975,63,64,60
144.8,145.1975,51,64,60
145.2,145.7975,51,64,60
145.8,146.3975,51,64,60
146.4,146.9975,51,64,60
147.0,147.5975,51,64,60
147.6,148.1975,51,64,60
148.2,148.5975,51,64,60
149.4,149.5975,46,64,60
149.6,149.7975,46,64,60
149.8,149.9975,46,64,60
150.0,150.1975,46,64,60
154.8,154.9975,63,64,60
155.4,155.5975,63,64,60
159.0,159.1975,58,64,60
159.2,159.3975,58,64,60
159.4,159.5975,63,64,60
159.6,159.9975,65,64,60
160.0,160.1975,63,64,60
160.2,160.3975,58,64,60
161.4,161.5975,58,64,60
161.6,161.7975,58,64,60
161.8,161.9975,63,64,60
162.0,162.3975,65,64,60
162.4,162.5975,63,64,60
162.6,162.7975,58,64,60
165.6,166.1975,66,64,60
166.2,166.7975,65,64,60
166.8,167.3975,63,64,60
167.4,167.5975,62,64,60
170.4,170.9975,58,64,60
171.0,171.5975,58,64,60
171.6,171.9975,58,64,60
172.0,172.1975,58,64,60
172.2,172.3975,63,64,60
172.8,173.3975,63,64,60
174.0,174.5975,63,64,60
175.2,175.7975,63,64,60
175.8,176.3975,63,64,60
176.4,176.9975,63,64,60
177.0,177.3975,63,64,60
177.4,177.5975,63,64,60
177.6,177.7975,58,64,60
177.8,177.9975,46,64,60
178.0,178.1975,46,64,60
178.2,178.4,39,64,60
178.4,178.6,27,64,60
178.6,178.8,27,64,60
178.8,179.4,27,64,60
182.8,183.0,46,64,60
183.0,183.1975,60,64,60
183.6,183.7975,60,64,60
183.8,183.9975,48,64,60
184.0,184.1975,48,64,60
184.2,184.3975,48,64,60
184.4,184.5975,48,64,60
184.6,184.7975,48,64,60
184.8,184.9975,48,64,60
185.0,185.1975,48,64,60
185.2,185.3975,48,64,60
185.4,185.5975,48,64,60
185.6,185.7975,51,64,60
185.8,185.9975,55,64,60
186.0,186.1975,58,64,60
186.2,186.3975,55,64,60
186.4,186.5975,58,64,60
186.6,186.7975,63,64,60
186.8,186.9975,58,64,60
187.0,187.1975,63,64,60
187.2,187.3975,67,64,60
187.4,187.5975,65,64,60
187.6,187.7975,58,64,60
187.8,187.9975,55,64,60
188.0,188.1975,55,64,60
188.2,188.3975,55,64,60
188.4,188.5975,55,64,60
1.8,2.0,82,64,68
2.0,2.2,70,64,68
2.2,2.4,70,64,68
2.4,3.0,70,64,68
3.0,3.6,70,64,68
3.6,4.2,70,64,68
4.2,4.8,70,64,68
4.8,5.0,70,64,68
6.6,6.8,82,64,68
6.8,7.0,79,64,68
7.0,7.2,75,64,68
7.2,7.4,70,64,68
7.8,8.0,84,64,68
8.0,8.2,80,64,68
8.2,8.4,75,64,68
8.4,8.6,72,64,68
9.0,9.2,75,64,68
9.2,9.4,87,64,68
9.4,9.6,86,64,68
9.6,9.8,84,64,68
9.8,10.0,82,64,68
10.0,10.2,81,64,68
10.2,10.4,82,64,68
10.4,10.6,70,64,68
10.6,10.8,70,64,68
10.8,11.0,70,64,68
11.4,11.6,82,64,68
11.6,11.8,70,64,68
11.8,12.0,70,64,68
12.0,12.6,70,64,68
12.6,13.2,70,64,68
13.2,13.8,70,64,68
13.8,14.4,70,64,68
14.4,14.6,70,64,68
16.2,16.4,82,64,68
16.4,16.6,79,64,68
16.6,16.8,75,64,68
16.8,17.0,70,64,68
17.4,17.6,84,64,68
17.6,17.8,80,64,68
17.8,18.0,75,64,68
18.0,18.2,72,64,68
18.6,18.8,75,64,68
18.8,19.0,87,64,68
19.0,19.2,86,64,68
19.2,19.4,84,64,68
19.4,19.6,82,64,68
19.6,19.8,81,64,68
19.8,20.0,82,64,68
20.0,20.2,70,64,68
20.2,20.4,70,64,68
20.4,20.6,70,64,68
21.6,21.8,77,64,68
22.2,22.4,75,64,68
22.8,23.0,74,64,68
23.4,23.6,72,64,68
26.4,26.6,72,64,68
26.6,26.8,74,64,68
26.8,27.0,76,64,68
27.0,27.2,77,64,68
27.2,27.4,79,64,68
27.4,27.6,80,64,68
27.6,27.8,82,64,68
27.8,28.0,80,64,68
28.0,28.2,79,64,68
28.2,28.4,77,64,68
28.4,28.6,75,64,68
28.6,28.8,74,64,68
28.8,29.0,72,64,68
29.0,29.2,70,64,68
29.2,29.4,69,64,68
29.4,29.6,70,64,68
29.6,29.8,77,64,68
29.8,30.0,79,64,68
30.0,30.4,80,64,68
30.4,30.6,79,64,68
30.6,30.8,77,64,68
31.8,32.0,82,64,68
32.0,32.2,77,64,68
32.2,32.4,79,64,68
32.4,32.8,80,64,68
32.8,33.0,79,64,68
33.0,33.2,77,64,68
35.4,35.6,82,64,68
35.6,35.8,70,64,68
35.8,36.0,70,64,68
36.0,36.6,70,64,68
36.6,37.2,70,64,68
37.2,37.8,70,64,68
37.8,38.0,70,64,68
38.4,39.0,75,64,68
39.0,39.6,77,64,68
39.6,39.8,79,64,68
39.8,40.0,80,64,68
40.0,40.2,82,64,68
40.2,40.4,80,64,68
40.8,41.4,74,64,68
41.4,42.0,75,64,68
42.0,42.2,77,64,68
42.2,42.4,79,64,68
42.4,42.6,80,64,68
42.6,42.8,79,64,68
44.8,45.0,84,64,68
45.0,45.2,84,64,68
46.0,46.2,84,64,68
46.2,46.4,82,64,68
46.4,46.6,79,64,68
46.6,46.8,79,64,68
47.0,47.2,80,64,68
47.2,47.4,80,64,68
47.6,47.8,79,64,68
47.8,48.0,79,64,68
48.4,48.6,77,64,68
49.2,49.4,67,64,68
49.4,49.6,68,64,68
49.6,49.8,70,64,68
49.8,50.0,72,64,68
50.0,50.2,74,64,68
50.2,50.4,75,64,68
50.4,50.6,77,64,68
50.6,50.8,79,64,68
50.8,51.0,80,64,68
51.0,51.2,82,64,68
51.6,51.8,82,64,68
51.8,52.0,79,64,68
52.0,52.2,75,64,68
52.2,52.4,70,64,68
52.4,52.6,75,64,68
52.6,52.8,67,64,68
52.8,53.0,70,64,68
53.0,53.2,68,64,68
53.2,53.4,65,64,68
53.4,53.6,67,64,68
53.6,53.8,82,64,68
53.8,54.0,82,64,68
54.0,54.05,82,64,68
54.05,54.1,84,64,68
54.1,54.15,82,64,68
54.15,54.2,84,64,68
54.2,54.25,82,64,68
54.25,54.3,84,64,68
54.3,54.35,82,64,68
54.35,54.4,84,64,68
54.4,54.45,82,64,68
54.45,54.5,84,64,68
54.5,54.55,82,64,68
54.55,54.6,84,64,68
54.6,54.65,82,64,68
54.65,54.7,84,64,68
54.7,54.75,82,64,68
54.75,54.8,84,64,68
54.8,54.85,82,64,68
54.85,54.9,84,64,68
54.9,54.95,82,64,68
54.95,55.0,84,64,68
55.0,55.05,82,64,68
55.05,55.1,84,64,68
55.1,55.15,82,64,68
55.15,55.2,84,64,68
55.2,55.25,82,64,68
55.25,55.3,84,64,68
55.3,55.35,82,64,68
55.35,55.4,84,64,68
55.4,55.45,82,64,68
55.45,55.5,84,64,68
55.5,55.55,82,64,68
55.55,55.6,84,64,68
55.6,55.65,82,64,68
55.65,55.7,84,64,68
55.7,55.75,82,64,68
55.75,55.8,84,64,68
56.4,56.6,82,64,68
56.6,56.8,79,64,68
56.8,57.0,75,64,68
57.0,57.2,70,64,68
57.2,57.4,75,64,68
57.4,57.6,79,64,68
57.6,57.8,82,64,68
57.8,58.0,80,64,68
58.0,58.2,77,64,68
58.2,58.4,75,64,68
58.4,58.6,75,64,68
58.6,58.8,75,64,68
58.8,59.0,75,64,68
60.0,60.2,77,64,68
60.6,60.8,75,64,68
61.2,61.4,74,64,68
61.8,62.0,72,64,68
64.8,65.0,72,64,68
65.0,65.2,74,64,68
65.2,65.4,76,64,68
65.4,65.6,77,64,68
65.6,65.8,79,64,68
65.8,66.0,80,64,68
66.0,66.2,82,64,68
66.2,66.4,80,64,68
66.4,66.6,79,64,68
66.6,66.8,77,64,68
66.8,67.0,75,64,68
67.0,67.2,74,64,68
67.2,67.4,72,64,68
67.4,67.6,70,64,68
67.6,67.8,69,64,68
67.8,68.0,70,64,68
68.0,68.2,77,64,68
68.2,68.4,79,64,68
68.4,68.8,80,64,68
68.8,69.0,79,64,68
69.0,69.2,77,64,68
70.2,70.4,82,64,68
70.4,70.6,77,64,68
70.6,70.8,79,64,68
70.8,71.2,80,64,68
71.2,71.4,79,64,68
71.4,71.6,77,64,68
73.8,74.0,82,64,68
74.0,74.2,70,64,68
74.2,74.4,70,64,68
74.4,75.0,70,64,68
75.0,75.6,70,64,68
75.6,76.2,70,64,68
76.2,76.4,70,64,68
76.8,77.4,75,64,68
77.4,78.0,77,64,68
78.0,78.2,79,64,68
78.2,78.4,80,64,68
78.4,78.6,82,64,68
78.6,78.8,80,64,68
79.2,79.8,74,64,68
79.8,80.4,75,64,68
80.4,80.6,77,64,68
80.6,80.8,79,64,68
80.8,81.0,80,64,68
81.0,81.2,79,64,68
83.2,83.4,84,64,68
83.4,83.6,84,64,68
84.4,84.6,84,64,68
84.6,84.8,82,64,68
84.8,85.0,79,64,68
85.0,85.2,79,64,68
85.4,85.6,80,64,68
85.6,85.8,80,64,68
86.0,86.2,79,64,68
86.2,86.4,79,64,68
86.8,87.0,77,64,68
87.6,87.8,67,64,68
87.8,88.0,68,64,68
88.0,88.2,70,64,68
88.2,88.4,72,64,68
88.4,88.6,74,64,68
88.6,88.8,75,64,68
88.8,89.0,77,64,68
89.0,89.2,79,64,68
89.2,89.4,80,64,68
89.4,89.6,82,64,68
90.0,90.2,82,64,68
90.2,90.4,79,64,68
90.4,90.6,75,64,68
90.6,90.8,70,64,68
90.8,91.0,75,64,68
91.0,91.2,67,64,68
91.2,91.4,70,64,68
91.4,91.6,68,64,68
91.6,91.8,65,64,68
91.8,92.0,67,64,68
92.0,92.2,82,64,68
92.2,92.4,82,64,68
92.4,92.45,82,64,68
92.45,92.5,84,64,68
92.5,92.55,82,64,68
92.55,92.6,84,64,68
92.6,92.65,82,64,68
92.65,92.7,84,64,68
92.7,92.75,82,64,68
92.75,92.8,84,64,68
92.8,92.85,82,64,68
92.85,92.9,84,64,68
92.9,92.95,82,64,68
92.95,93.0,84,64,68
93.0,93.05,82,64,68
93.05,93.1,84,64,68
93.1,93.15,82,64,68
93.15,93.2,84,64,68
93.2,93.25,82,64,68
93.25,93.3,84,64,68
93.3,93.35,82,64,68
93.35,93.4,84,64,68
93.4,93.45,82,64,68
93.45,93.5,84,64,68
93.5,93.55,82,64,68
93.55,93.6,84,64,68
93.6,93.65,82,64,68
93.65,93.7,84,64,68
93.7,93.75,82,64,68
93.75,93.8,84,64,68
93.8,93.85,82,64,68
93.85,93.9,84,64,68
93.9,93.95,82,64,68
93.95,94.0,84,64,68
94.0,94.05,82,64,68
94.05,94.1,84,64,68
94.1,94.15,82,64,68
94.15,94.2,84,64,68
94.8,95.0,82,64,68
95.0,95.2,79,64,68
95.2,95.4,75,64,68
95.4,95.6,70,64,68
95.6,95.8,75,64,68
95.8,96.0,79,64,68
96.0,96.2,82,64,68
96.2,96.4,80,64,68
96.4,96.6,77,64,68
96.6,96.8,75,64,68
96.8,97.0,75,64,68
97.0,97.2,75,64,68
97.2,97.4,75,64,68
117.6,118.2,76,64,68
118.4,118.6,76,64,68
120.6,120.8,77,64,68
121.2,121.4,82,64,68
121.8,122.0,70,64,68
122.4,122.6,75,64,68
123.0,123.2,69,64,68
123.6,123.8,70,64,68
129.6,130.2,76,64,68
130.4,130.6,76,64,68
132.6,132.8,77,64,68
133.2,133.4,82,64,68
133.8,134.0,70,64,68
134.4,134.6,75,64,68
135.0,135.2,69,64,68
135.6,135.8,70,64,68
141.0,141.2,82,64,68
141.2,141.4,70,64,68
141.4,141.6,70,64,68
141.6,142.2,70,64,68
142.2,142.8,70,64,68
142.8,143.4,70,64,68
143.4,144.0,70,64,68
144.0,144.2,70,64,68
145.8,146.0,82,64,68
146.0,146.2,79,64,68
146.2,146.4,75,64,68
146.4,146.6,70,64,68
147.0,147.2,84,64,68
147.2,147.4,80,64,68
147.4,147.6,75,64,68
147.6,147.8,72,64,68
148.2,148.4,75,64,68
148.4,148.6,87,64,68
148.6,148.8,86,64,68
148.8,149.0,84,64,68
149.0,149.2,82,64,68
149.2,149.4,81,64,68
149.4,149.6,82,64,68
149.6,149.8,70,64,68
149.8,150.0,70,64,68
150.0,150.2,70,64,68
151.2,151.4,77,64,68
151.8,152.0,75,64,68
152.4,152.6,74,64,68
153.0,153.2,72,64,68
156.0,156.2,72,64,68
156.2,156.4,74,64,68
156.4,156.6,76,64,68
156.6,156.8,77,64,68
156.8,157.0,79,64,68
157.0,157.2,80,64,68
157.2,157.4,82,64,68
157.4,157.6,80,64,68
157.6,157.8,79,64,68
157.8,158.0,77,64,68
158.0,158.2,75,64,68
158.2,158.4,74,64,68
158.4,158.6,72,64,68
158.6,158.8,70,64,68
158.8,159.0,69,64,68
159.0,159.2,70,64,68
159.2,159.4,77,64,68
159.4,159.6,79,64,68
159.6,160.0,80,64,68
160.0,160.2,79,64,68
160.2,160.4,77,64,68
161.4,161.6,82,64,68
161.6,161.8,77,64,68
161.8,162.0,79,64,68
162.0,162.4,80,64,68
162.4,162.6,79,64,68
162.6,162.8,77,64,68
165.0,165.2,82,64,68
165.2,165.4,70,64,68
165.4,165.6,70,64,68
165.6,166.2,70,64,68
166.2,166.8,70,64,68
166.8,167.4,70,64,68
167.4,167.6,70,64,68
168.0,168.6,75,64,68
168.6,169.2,77,64,68
169.2,169.4,79,64,68
169.4,169.6,80,64,68
169.6,169.8,82,64,68
169.8,170.0,80,64,68
170.4,171.0,74,64,68
171.0,171.6,75,64,68
171.6,171.8,77,64,68
171.8,172.0,79,64,68
172.0,172.2,80,64,68
172.2,172.4,79,64,68
174.4,174.6,84,64,68
174.6,174.8,84,64,68
175.6,175.8,84,64,68
175.8,176.0,82,64,68
176.0,176.2,79,64,68
176.2,176.4,79,64,68
176.6,176.8,80,64,68
176.8,177.0,80,64,68
177.2,177.4,79,64,68
177.4,177.6,79,64,68
178.0,178.2,77,64,68
178.8,179.0,67,64,68
179.0,179.2,68,64,68
179.2,179.4,70,64,68
179.4,179.6,72,64,68
179.6,179.8,74,64,68
179.8,180.0,75,64,68
180.0,180.2,77,64,68
180.2,180.4,79,64,68
180.4,180.6,80,64,68
180.6,180.8,82,64,68
181.2,181.4,82,64,68
181.4,181.6,79,64,68
181.6,181.8,75,64,68
181.8,182.0,70,64,68
182.0,182.2,75,64,68
182.2,182.4,67,64,68
182.4,182.6,70,64,68
182.6,182.8,68,64,68
182.8,183.0,65,64,68
183.0,183.2,67,64,68
183.2,183.4,82,64,68
183.4,183.6,82,64,68
183.6,183.65,82,64,68
183.65,183.7,84,64,68
183.7,183.75,82,64,68
183.75,183.8,84,64,68
183.8,183.85,82,64,68
183.85,183.9,84,64,68
183.9,183.95,82,64,68
183.95,184.0,84,64,68
184.0,184.05,82,64,68
184.05,184.1,84,64,68
184.1,184.15,82,64,68
184.15,184.2,84,64,68
184.2,184.25,82,64,68
184.25,184.3,84,64,68
184.3,184.35,82,64,68
184.35,184.4,84,64,68
184.4,184.45,82,64,68
184.45,184.5,84,64,68
184.5,184.55,82,64,68
184.55,184.6,84,64,68
184.6,184.65,82,64,68
184.65,184.7,84,64,68
184.7,184.75,82,64,68
184.75,184.8,84,64,68
184.8,184.85,82,64,68
184.85,184.9,84,64,68
184.9,184.95,82,64,68
184.95,185.0,84,64,68
185.0,185.05,82,64,68
185.05,185.1,84,64,68
185.1,185.15,82,64,68
185.15,185.2,84,64,68
185.2,185.25,82,64,68
185.25,185.3,84,64,68
185.3,185.35,82,64,68
185.35,185.4,84,64,68
186.0,186.2,82,64,68
186.2,186.4,79,64,68
186.4,186.6,75,64,68
186.6,186.8,70,64,68
186.8,187.0,75,64,68
187.0,187.2,79,64,68
187.2,187.4,82,64,68
187.4,187.6,80,64,68
187.6,187.8,77,64,68
187.8,188.0,75,64,68
188.0,188.2,75,64,68
188.2,188.4,75,64,68
188.4,188.6,75,64,68
6.6,7.2,70,64,68
7.2,7.8,70,64,68
7.8,9.0,72,64,68
9.0,9.4,77,64,68
9.4,9.6,74,64,68
9.6,9.8,72,64,68
9.8,10.0,70,64,68
10.0,10.2,69,64,68
10.2,10.4,70,64,68
10.4,10.6,82,64,68
10.6,10.8,82,64,68
10.8,11.0,82,64,68
16.2,16.8,70,64,68
16.8,17.4,70,64,68
17.4,18.6,72,64,68
18.6,19.0,77,64,68
19.0,19.2,74,64,68
19.2,19.4,72,64,68
19.4,19.6,70,64,68
19.6,19.8,69,64,68
19.8,20.0,70,64,68
20.0,20.2,82,64,68
20.2,20.4,82,64,68
20.4,20.6,82,64,68
21.0,21.2,79,64,68
21.2,21.4,67,64,68
21.4,21.6,67,64,68
21.6,21.8,67,64,68
22.2,22.4,67,64,68
22.8,23.0,67,64,68
23.4,23.6,67,64,68
25.8,26.0,84,64,68
26.0,26.2,72,64,68
26.2,26.4,72,64,68
26.4,26.6,72,64,68
27.0,27.2,72,64,68
28.6,28.8,68,64,68
28.8,29.0,67,64,68
29.0,29.2,65,64,68
29.2,29.4,63,64,68
29.4,29.6,62,64,68
29.6,29.8,74,64,68
29.8,30.0,75,64,68
30.0,30.4,77,64,68
30.4,30.6,75,64,68
30.6,30.8,74,64,68
31.8,32.0,74,64,68
32.0,32.2,74,64,68
32.2,32.4,75,64,68
32.4,32.8,77,64,68
32.8,33.0,75,64,68
33.0,33.2,74,64,68
38.4,39.0,72,64,68
39.0,40.4,72,64,68
40.8,41.4,70,64,68
41.4,42.0,70,64,68
42.0,42.6,70,64,68
42.6,42.8,70,64,68
43.4,43.6,75,64,68
43.6,43.8,75,64,68
43.8,44.0,75,64,68
44.6,44.8,75,64,68
44.8,45.0,75,64,68
45.0,45.2,75,64,68
45.8,46.0,75,64,68
46.0,46.2,75,64,68
46.2,46.4,75,64,68
46.4,46.6,75,64,68
46.6,46.8,75,64,68
47.0,47.2,75,64,68
47.2,47.4,75,64,68
47.6,47.8,75,64,68
47.8,48.0,75,64,68
48.2,48.4,74,64,68
48.4,48.6,74,64,68
48.6,48.8,67,64,68
54.0,54.2,67,64,68
54.2,54.4,68,64,68
54.4,54.6,70,64,68
54.6,54.8,72,64,68
54.8,55.0,74,64,68
55.0,55.2,75,64,68
55.2,55.4,77,64,68
55.4,55.6,79,64,68
55.6,55.8,80,64,68
55.8,56.0,82,64,68
56.4,56.6,79,64,68
56.6,56.8,75,64,68
56.8,57.0,70,64,68
57.0,57.2,67,64,68
57.2,57.4,70,64,68
57.4,57.6,75,64,68
57.6,57.8,79,64,68
57.8,58.0,77,64,68
58.0,58.2,74,64,68
58.2,58.4,67,64,68
58.4,58.6,67,64,68
58.6,58.8,67,64,68
58.8,59.0,67,64,68
59.4,59.6,79,64,68
59.6,59.8,67,64,68
59.8,60.0,67,64,68
60.0,60.2,67,64,68
60.6,60.8,67,64,68
61.2,61.4,67,64,68
61.8,62.0,67,64,68
64.2,64.4,84,64,68
64.4,64.6,72,64,68
64.6,64.8,72,64,68
64.8,65.0,72,64,68
65.4,65.6,72,64,68
67.0,67.2,68,64,68
67.2,67.4,67,64,68
67.4,67.6,65,64,68
67.6,67.8,63,64,68
67.8,68.0,62,64,68
68.0,68.2,74,64,68
68.2,68.4,75,64,68
68.4,68.8,77,64,68
68.8,69.0,75,64,68
69.0,69.2,74,64,68
70.2,70.4,74,64,68
70.4,70.6,74,64,68
70.6,70.8,75,64,68
70.8,71.2,77,64,68
71.2,71.4,75,64,68
71.4,71.6,74,64,68
76.8,77.4,72,64,68
77.4,78.8,72,64,68
79.2,79.8,70,64,68
79.8,80.4,70,64,68
80.4,81.0,70,64,68
81.0,81.2,70,64,68
81.8,82.0,75,64,68
82.0,82.2,75,64,68
82.2,82.4,75,64,68
83.0,83.2,75,64,68
83.2,83.4,75,64,68
83.4,83.6,75,64,68
84.2,84.4,75,64,68
84.4,84.6,75,64,68
84.6,84.8,75,64,68
84.8,85.0,75,64,68
85.0,85.2,75,64,68
85.4,85.6,75,64,68
85.6,85.8,75,64,68
86.0,86.2,75,64,68
86.2,86.4,75,64,68
86.6,86.8,74,64,68
86.8,87.0,74,64,68
87.0,87.2,67,64,68
92.4,92.6,67,64,68
92.6,92.8,68,64,68
92.8,93.0,70,64,68
93.0,93.2,72,64,68
93.2,93.4,74,64,68
93.4,93.6,75,64,68
93.6,93.8,77,64,68
93.8,94.0,79,64,68
94.0,94.2,80,64,68
94.2,94.4,82,64,68
94.8,95.0,79,64,68
95.0,95.2,75,64,68
95.2,95.4,70,64,68
95.4,95.6,67,64,68
95.6,95.8,70,64,68
95.8,96.0,75,64,68
96.0,96.2,79,64,68
96.2,96.4,77,64,68
96.4,96.6,74,64,68
96.6,96.8,67,64,68
96.8,97.0,67,64,68
97.0,97.2,67,64,68
97.2,97.4,67,64,68
101.4,101.8,70,64,68
101.8,102.0,74,64,68
102.0,102.2,75,64,68
103.8,104.4,65,64,68
104.4,104.6,65,64,68
106.2,106.6,70,64,68
106.6,106.8,69,64,68
106.8,107.0,70,64,68
111.0,111.4,70,64,68
111.4,111.6,74,64,68
111.6,111.8,75,64,68
113.4,114.0,65,64,68
114.0,114.2,65,64,68
115.8,116.2,70,64,68
116.2,116.4,69,64,68
116.4,116.6,70,64,68
117.6,118.2,82,64,68
118.2,118.4,82,64,68
119.4,119.6,72,64,68
120.0,120.2,77,64,68
120.6,120.8,65,64,68
121.2,121.4,70,64,68
121.8,122.0,70,64,68
122.4,122.6,75,64,68
123.0,123.2,69,64,68
123.6,123.8,70,64,68
125.4,126.0,70,64,68
126.0,126.2,70,64,68
127.8,128.2,70,64,68
128.2,128.4,74,64,68
128.4,128.6,75,64,68
129.6,130.2,82,64,68
130.2,130.4,82,64,68
131.4,131.6,72,64,68
132.0,132.2,77,64,68
132.6,132.8,65,64,68
133.2,133.4,70,64,68
133.8,134.0,70,64,68
134.4,134.6,75,64,68
135.0,135.2,69,64,68
135.6,135.8,70,64,68
137.4,138.0,70,64,68
138.0,138.2,70,64,68
139.8,140.2,70,64,68
140.2,140.4,74,64,68
140.4,140.6,75,64,68
145.8,146.4,70,64,68
146.4,147.0,70,64,68
147.0,148.2,72,64,68
148.2,148.6,77,64,68
148.6,148.8,74,64,68
148.8,149.0,72,64,68
149.0,149.2,70,64,68
149.2,149.4,69,64,68
149.4,149.6,70,64,68
149.6,149.8,82,64,68
149.8,150.0,82,64,68
150.0,150.2,82,64,68
150.6,150.8,79,64,68
150.8,151.0,67,64,68
151.0,151.2,67,64,68
151.2,151.4,67,64,68
151.8,152.0,67,64,68
152.4,152.6,67,64,68
153.0,153.2,67,64,68
155.4,155.6,84,64,68
155.6,155.8,72,64,68
155.8,156.0,72,64,68
156.0,156.2,72,64,68
156.6,156.8,72,64,68
158.2,158.4,68,64,68
158.4,158.6,67,64,68
158.6,158.8,65,64,68
158.8,159.0,63,64,68
159.0,159.2,62,64,68
159.2,159.4,74,64,68
159.4,159.6,75,64,68
159.6,160.0,77,64,68
160.0,160.2,75,64,68
160.2,160.4,74,64,68
161.4,161.6,74,64,68
161.6,161.8,74,64,68
161.8,162.0,75,64,68
162.0,162.4,77,64,68
162.4,162.6,75,64,68
162.6,162.8,74,64,68
168.0,168.6,72,64,68
168.6,170.0,72,64,68
170.4,171.0,70,64,68
171.0,171.6,70,64,68
171.6,172.2,70,64,68
172.2,172.4,70,64,68
173.0,173.2,75,64,68
173.2,173.4,75,64,68
173.4,173.6,75,64,68
174.2,174.4,75,64,68
174.4,174.6,75,64,68
174.6,174.8,75,64,68
175.4,175.6,75,64,68
175.6,175.8,75,64,68
175.8,176.0,75,64,68
176.0,176.2,75,64,68
176.2,176.4,75,64,68
176.6,176.8,75,64,68
176.8,177.0,75,64,68
177.2,177.4,75,64,68
177.4,177.6,75,64,68
177.8,178.0,74,64,68
178.0,178.2,74,64,68
178.2,178.4,67,64,68
183.6,183.8,67,64,68
183.8,184.0,68,64,68
184.0,184.2,70,64,68
184.2,184.4,72,64,68
184.4,184.6,74,64,68
184.6,184.8,75,64,68
184.8,185.0,77,64,68
185.0,185.2,79,64,68
185.2,185.4,80,64,68
185.4,185.6,82,64,68
186.0,186.2,79,64,68
186.2,186.4,75,64,68
186.4,186.6,70,64,68
186.6,186.8,67,64,68
186.8,187.0,70,64,68
187.0,187.2,75,64,68
187.2,187.4,79,64,68
187.4,187.6,77,64,68
187.6,187.8,74,64,68
187.8,188.0,67,64,68
188.0,188.2,67,64,68
188.2,188.4,67,64,68
188.4,188.6,67,64,68
2.4,3.0,70,64,71
3.0,3.6,75,64,71
3.6,4.2,74,64,71
4.2,4.4,75,64,71
4.4,4.6,77,64,71
4.6,4.8,78,64,71
4.8,5.0,77,64,71
6.0,6.2,63,64,71
6.2,6.4,67,64,71
6.4,6.6,70,64,71
6.6,6.8,75,64,71
7.2,7.4,63,64,71
7.4,7.6,67,64,71
7.6,7.8,70,64,71
7.8,8.0,75,64,71
8.4,8.6,63,64,71
8.6,8.8,68,64,71
8.8,9.0,72,64,71
9.0,9.4,75,64,71
9.4,9.6,74,64,71
9.6,9.8,72,64,71
9.8,10.0,70,64,71
10.0,10.2,69,64,71
10.2,10.4,70,64,71
10.4,10.6,80,64,71
10.6,10.8,80,64,71
10.8,11.0,80,64,71
12.0,12.6,70,64,71
12.6,13.2,75,64,71
13.2,13.8,74,64,71
13.8,14.0,75,64,71
14.0,14.2,77,64,71
14.2,14.4,78,64,71
14.4,14.6,77,64,71
15.6,15.8,63,64,71
15.8,16.0,67,64,71
16.0,16.2,70,64,71
16.2,16.4,75,64,71
16.8,17.0,63,64,71
17.0,17.2,67,64,71
17.2,17.4,70,64,71
17.4,17.6,75,64,71
18.0,18.2,63,64,71
18.2,18.4,68,64,71
18.4,18.6,72,64,71
18.6,19.0,75,64,71
19.0,19.2,74,64,71
19.2,19.4,72,64,71
19.4,19.6,70,64,71
19.6,19.8,69,64,71
19.8,20.0,70,64,71
20.0,20.2,80,64,71
20.2,20.4,80,64,71
20.4,20.6,80,64,71
21.6,21.8,74,64,71
22.2,22.4,72,64,71
22.8,23.0,65,64,71
23.4,23.6,63,64,71
24.0,24.2,63,64,71
24.2,24.4,65,64,71
24.4,24.6,67,64,71
24.6,24.8,68,64,71
24.8,25.0,72,64,71
25.0,25.2,73,64,71
25.2,25.4,75,64,71
25.4,25.6,77,64,71
25.6,25.8,79,64,71
25.8,26.0,80,64,71
26.4,26.6,70,64,71
27.0,27.2,68,64,71
30.2,30.4,74,64,71
30.4,30.6,75,64,71
30.6,30.8,77,64,71
31.0,31.2,75,64,71
31.2,31.4,74,64,71
31.6,31.8,75,64,71
31.8,32.0,65,64,71
32.6,32.8,70,64,71
32.8,33.0,70,64,71
33.0,33.2,70,64,71
33.4,33.6,75,64,71
33.6,33.8,74,64,71
34.0,34.2,75,64,71
34.2,34.8,75,64,71
36.0,36.6,75,64,71
36.6,37.2,74,64,71
37.2,37.4,75,64,71
37.4,37.6,77,64,71
37.6,37.8,78,64,71
37.8,37.9975,77,64,71
38.4,39.6,72,64,71
39.6,40.2,70,64,71
40.2,40.4,68,64,71
40.8,41.4,74,64,71
41.4,42.0,75,64,71
42.0,42.2,77,64,71
42.2,42.4,79,64,71
42.4,42.6,80,64,71
42.6,42.8,79,64,71
42.8,43.0,67,64,71
43.0,43.2,67,64,71
43.2,43.6,67,64,71
43.6,43.8,79,64,71
43.8,44.0,77,64,71
44.0,44.2,65,64,71
44.2,44.4,65,64,71
44.4,44.8,65,64,71
44.8,45.0,77,64,71
45.0,45.2,77,64,71
45.2,45.4,65,64,71
45.4,45.6,65,64,71
45.6,46.0,65,64,71
46.0,46.2,77,64,71
46.2,46.4,79,64,71
46.4,46.6,67,64,71
46.6,46.8,67,64,71
46.8,47.0,80,64,71
47.0,47.2,68,64,71
47.2,47.4,68,64,71
47.4,47.6,79,64,71
47.6,47.8,67,64,71
47.8,48.0,67,64,71
48.0,48.2,77,64,71
48.2,48.4,65,64,71
48.4,48.6,65,64,71
48.6,48.8,63,64,71
54.0,54.2,67,64,71
54.2,54.4,68,64,71
54.4,54.6,70,64,71
54.6,54.8,72,64,71
54.8,55.0,74,64,71
55.0,55.2,75,64,71
55.2,55.4,77,64,71
55.4,55.6,79,64,71
55.6,55.8,80,64,71
55.8,56.0,82,64,71
56.4,56.6,82,64,71
56.6,56.8,79,64,71
56.8,57.0,75,64,71
57.0,57.2,70,64,71
57.2,57.4,75,64,71
57.4,57.6,67,64,71
57.6,57.8,70,64,71
57.8,58.0,68,64,71
58.0,58.2,65,64,71
58.2,58.4,63,64,71
58.4,58.6,75,64,71
58.6,58.8,75,64,71
58.8,59.0,75,64,71
60.0,60.2,74,64,71
60.6,60.8,72,64,71
61.2,61.4,65,64,71
61.8,62.0,63,64,71
62.4,62.6,63,64,71
62.6,62.8,65,64,71
62.8,63.0,67,64,71
63.0,63.2,68,64,71
63.2,63.4,72,64,71
63.4,63.6,73,64,71
63.6,63.8,75,64,71
63.8,64.0,77,64,71
64.0,64.2,79,64,71
64.2,64.4,80,64,71
64.8,65.0,70,64,71
65.4,65.6,68,64,71
68.6,68.8,74,64,71
68.8,69.0,75,64,71
69.0,69.2,77,64,71
69.4,69.6,75,64,71
69.6,69.8,74,64,71
70.0,70.2,75,64,71
70.2,70.4,65,64,71
71.0,71.2,70,64,71
71.2,71.4,70,64,71
71.4,71.6,70,64,71
71.8,72.0,75,64,71
72.0,72.2,74,64,71
72.4,72.6,75,64,71
72.6,73.2,75,64,71
74.4,75.0,75,64,71
75.0,75.6,74,64,71
75.6,75.8,75,64,71
75.8,76.0,77,64,71
76.0,76.2,78,64,71
76.2,76.3975,77,64,71
76.8,78.0,72,64,71
78.0,78.6,70,64,71
78.6,78.8,68,64,71
79.2,79.8,74,64,71
79.8,80.4,75,64,71
80.4,80.6,77,64,71
80.6,80.8,79,64,71
80.8,81.0,80,64,71
81.0,81.2,79,64,71
81.2,81.4,67,64,71
81.4,81.6,67,64,71
81.6,82.0,67,64,71
82.0,82.2,79,64,71
82.2,82.4,77,64,71
82.4,82.6,65,64,71
82.6,82.8,65,64,71
82.8,83.2,65,64,71
83.2,83.4,77,64,71
83.4,83.6,77,64,71
83.6,83.8,65,64,71
83.8,84.0,65,64,71
84.0,84.4,65,64,71
84.4,84.6,77,64,71
84.6,84.8,79,64,71
84.8,85.0,67,64,71
85.0,85.2,67,64,71
85.2,85.4,80,64,71
85.4,85.6,68,64,71
85.6,85.8,68,64,71
85.8,86.0,79,64,71
86.0,86.2,67,64,71
86.2,86.4,67,64,71
86.4,86.6,77,64,71
86.6,86.8,65,64,71
86.8,87.0,65,64,71
87.0,87.2,63,64,71
92.4,92.6,67,64,71
92.6,92.8,68,64,71
92.8,93.0,70,64,71
93.0,93.2,72,64,71
93.2,93.4,74,64,71
93.4,93.6,75,64,71
93.6,93.8,77,64,71
93.8,94.0,79,64,71
94.0,94.2,80,64,71
94.2,94.4,82,64,71
94.8,95.0,82,64,71
95.0,95.2,79,64,71
95.2,95.4,75,64,71
95.4,95.6,70,64,71
95.6,95.8,75,64,71
95.8,96.0,67,64,71
96.0,96.2,70,64,71
96.2,96.4,68,64,71
96.4,96.6,65,64,71
96.6,96.8,63,64,71
96.8,97.0,75,64,71
97.0,97.2,75,64,71
97.2,97.4,75,64,71
97.8,97.9,79,64,71
97.9,98.0,77,64,71
98.0,98.1,75,64,71
98.1,98.2,77,64,71
98.2,98.3,79,64,71
98.3,98.4,80,64,71
98.4,98.6,82,64,71
100.2,100.3,79,64,71
100.3,100.4,77,64,71
100.4,100.5,75,64,71
100.5,100.6,74,64,71
100.6,100.7,75,64,71
100.7,100.8,72,64,71
100.8,101.0,70,64,71
101.4,101.8,75,64,71
101.8,102.0,77,64,71
102.0,102.2,75,64,71
103.8,104.2,70,64,71
104.2,104.4,72,64,71
104.4,104.6,74,64,71
106.2,106.6,70,64,71
106.6,106.8,72,64,71
106.8,107.0,70,64,71
107.4,107.5,79,64,71
107.5,107.6,77,64,71
107.6,107.7,75,64,71
107.7,107.8,77,64,71
107.8,107.9,79,64,71
107.9,108.0,80,64,71
108.0,108.2,82,64,71
109.8,109.9,79,64,71
109.9,110.0,77,64,71
110.0,110.1,75,64,71
110.1,110.2,74,64,71
110.2,110.3,75,64,71
110.3,110.4,72,64,71
110.4,110.6,70,64,71
111.0,111.4,75,64,71
111.4,111.6,77,64,71
111.6,111.8,75,64,71
113.4,113.8,70,64,71
113.8,114.0,72,64,71
114.0,114.2,74,64,71
115.8,116.2,70,64,71
116.2,116.4,72,64,71
116.4,116.6,70,64,71
117.0,117.1,79,64,71
117.1,117.2,77,64,71
117.2,117.3,75,64,71
117.3,117.4,77,64,71
117.4,117.5,79,64,71
117.5,117.6,80,64,71
117.6,118.2,82,64,71
118.2,118.4,82,64,71
121.8,122.0,70,64,71
122.4,122.6,75,64,71
123.0,123.2,69,64,71
123.6,123.8,70,64,71
124.2,124.3,79,64,71
124.3,124.4,77,64,71
124.4,124.5,75,64,71
124.5,124.6,77,64,71
124.6,124.7,79,64,71
124.7,124.8,80,64,71
124.8,125.0,82,64,71
125.4,125.8,75,64,71
125.8,126.0,77,64,71
126.0,126.2,79,64,71
126.6,126.7,79,64,71
126.7,126.8,77,64,71
126.8,126.9,75,64,71
126.9,127.0,74,64,71
127.0,127.1,75,64,71
127.1,127.2,72,64,71
127.2,127.4,70,64,71
127.8,128.2,75,64,71
128.2,128.4,77,64,71
128.4,128.6,75,64,71
129.0,129.1,79,64,71
129.1,129.2,77,64,71
129.2,129.3,75,64,71
129.3,129.4,77,64,71
129.4,129.5,79,64,71
129.5,129.6,80,64,71
129.6,130.2,82,64,71
130.2,130.4,82,64,71
133.8,134.0,70,64,71
134.4,134.6,75,64,71
135.0,135.2,69,64,71
135.6,135.8,70,64,71
136.2,136.3,79,64,71
136.3,136.4,77,64,71
136.4,136.5,75,64,71
136.5,136.6,77,64,71
136.6,136.7,79,64,71
136.7,136.8,80,64,71
136.8,137.0,82,64,71
137.4,137.8,75,64,71
137.8,138.0,77,64,71
138.0,138.2,79,64,71
138.6,138.7,79,64,71
138.7,138.8,77,64,71
138.8,138.9,75,64,71
138.9,139.0,74,64,71
139.0,139.1,75,64,71
139.1,139.2,72,64,71
139.2,139.4,70,64,71
139.8,140.2,75,64,71
140.2,140.4,77,64,71
140.4,140.6,75,64,71
141.6,142.2,70,64,71
142.2,142.8,75,64,71
142.8,143.4,74,64,71
143.4,143.6,75,64,71
143.6,143.8,77,64,71
143.8,144.0,78,64,71
144.0,144.2,77,64,71
145.2,145.4,63,64,71
145.4,145.6,67,64,71
145.6,145.8,70,64,71
145.8,146.0,75,64,71
146.4,146.6,63,64,71
146.6,146.8,67,64,71
146.8,147.0,70,64,71
147.0,147.2,75,64,71
147.6,147.8,63,64,71
147.8,148.0,68,64,71
148.0,148.2,72,64,71
148.2,148.6,75,64,71
148.6,148.8,74,64,71
148.8,149.0,72,64,71
149.0,149.2,70,64,71
149.2,149.4,69,64,71
149.4,149.6,70,64,71
149.6,149.8,80,64,71
149.8,150.0,80,64,71
150.0,150.2,80,64,71
151.2,151.4,74,64,71
151.8,152.0,72,64,71
152.4,152.6,65,64,71
153.0,153.2,63,64,71
153.6,153.8,63,64,71
153.8,154.0,65,64,71
154.0,154.2,67,64,71
154.2,154.4,68,64,71
154.4,154.6,72,64,71
154.6,154.8,73,64,71
154.8,155.0,75,64,71
155.0,155.2,77,64,71
155.2,155.4,79,64,71
155.4,155.6,80,64,71
156.0,156.2,70,64,71
156.6,156.8,68,64,71
159.8,160.0,74,64,71
160.0,160.2,75,64,71
160.2,160.4,77,64,71
160.6,160.8,75,64,71
160.8,161.0,74,64,71
161.2,161.4,75,64,71
161.4,161.6,65,64,71
162.2,162.4,70,64,71
162.4,162.6,70,64,71
162.6,162.8,70,64,71
163.0,163.2,75,64,71
163.2,163.4,74,64,71
163.6,163.8,75,64,71
163.8,164.4,75,64,71
165.6,166.2,75,64,71
166.2,166.8,74,64,71
166.8,167.0,75,64,71
167.0,167.2,77,64,71
167.2,167.4,78,64,71
167.4,167.5975,77,64,71
168.0,169.2,72,64,71
169.2,169.8,70,64,71
169.8,170.0,68,64,71
170.4,171.0,74,64,71
171.0,171.6,75,64,71
171.6,171.8,77,64,71
171.8,172.0,79,64,71
172.0,172.2,80,64,71
172.2,172.4,79,64,71
172.4,172.6,67,64,71
172.6,172.8,67,64,71
172.8,173.2,67,64,71
173.2,173.4,79,64,71
173.4,173.6,77,64,71
173.6,173.8,65,64,71
173.8,174.0,65,64,71
174.0,174.4,65,64,71
174.4,174.6,77,64,71
174.6,174.8,77,64,71
174.8,175.0,65,64,71
175.0,175.2,65,64,71
175.2,175.6,65,64,71
175.6,175.8,77,64,71
175.8,176.0,79,64,71
176.0,176.2,67,64,71
176.2,176.4,67,64,71
176.4,176.6,80,64,71
176.6,176.8,68,64,71
176.8,177.0,68,64,71
177.0,177.2,79,64,71
177.2,177.4,67,64,71
177.4,177.6,67,64,71
177.6,177.8,77,64,71
177.8,178.0,65,64,71
178.0,178.2,65,64,71
178.2,178.4,63,64,71
183.6,183.8,67,64,71
183.8,184.0,68,64,71
184.0,184.2,70,64,71
184.2,184.4,72,64,71
184.4,184.6,74,64,71
184.6,184.8,75,64,71
184.8,185.0,77,64,71
185.0,185.2,79,64,71
185.2,185.4,80,64,71
185.4,185.6,82,64,71
186.0,186.2,82,64,71
186.2,186.4,79,64,71
186.4,186.6,75,64,71
186.6,186.8,70,64,71
186.8,187.0,75,64,71
187.0,187.2,67,64,71
187.2,187.4,70,64,71
187.4,187.6,68,64,71
187.6,187.8,65,64,71
187.8,188.0,63,64,71
188.0,188.2,75,64,71
188.2,188.4,75,64,71
188.4,188.6,75,64,71
2.4,3.0,68,64,71
3.0,3.6,67,64,71
3.6,4.2,65,64,71
4.2,4.8,63,64,71
4.8,5.0,62,64,71
6.6,6.8,75,64,71
7.2,7.8,67,64,71
7.8,8.4,68,64,71
8.4,9.0,68,64,71
9.0,9.4,75,64,71
9.4,9.6,74,64,71
9.6,9.8,72,64,71
9.8,10.0,70,64,71
10.0,10.2,69,64,71
10.2,10.4,70,64,71
10.4,10.6,70,64,71
10.6,10.8,70,64,71
10.8,11.0,70,64,71
12.0,12.6,68,64,71
12.6,13.2,67,64,71
13.2,13.8,65,64,71
13.8,14.4,63,64,71
14.4,14.6,62,64,71
16.2,16.4,75,64,71
16.8,17.4,67,64,71
17.4,18.0,68,64,71
18.0,18.6,68,64,71
18.6,19.0,75,64,71
19.0,19.2,74,64,71
19.2,19.4,72,64,71
19.4,19.6,70,64,71
19.6,19.8,69,64,71
19.8,20.0,70,64,71
20.0,20.2,70,64,71
20.2,20.4,70,64,71
20.4,20.6,70,64,71
23.4,23.6,75,64,71
23.6,23.8,63,64,71
23.8,24.0,63,64,71
24.0,24.2,63,64,71
26.4,26.6,67,64,71
27.0,27.2,65,64,71
30.2,30.4,65,64,71
30.4,30.6,67,64,71
30.6,30.8,68,64,71
31.0,31.2,67,64,71
31.2,31.4,65,64,71
31.6,31.8,67,64,71
31.8,32.0,65,64,71
32.6,32.8,70,64,71
32.8,33.0,70,64,71
33.0,33.2,70,64,71
33.4,33.6,67,64,71
33.8,34.0,65,64,71
34.0,34.2,65,64,71
34.2,34.8,65,64,71
34.8,35.0,65,64,71
36.0,36.6,70,64,71
36.6,37.2,68,64,71
37.2,37.8,66,64,71
37.8,38.0,65,64,71
40.8,41.4,62,64,71
41.4,42.0,63,64,71
42.0,42.6,68,64,71
42.6,42.8,67,64,71
42.8,43.0,63,64,71
43.0,43.2,63,64,71
43.2,43.6,63,64,71
43.6,43.8,75,64,71
43.8,44.0,75,64,71
44.0,44.2,63,64,71
44.2,44.4,63,64,71
44.8,45.0,75,64,71
45.2,45.4,63,64,71
45.4,45.6,63,64,71
45.6,46.0,63,64,71
46.0,46.2,75,64,71
46.2,46.4,75,64,71
46.4,46.6,63,64,71
46.6,46.8,63,64,71
46.8,47.0,75,64,71
47.0,47.2,63,64,71
47.2,47.4,63,64,71
47.4,47.6,75,64,71
47.6,47.8,63,64,71
47.8,48.0,63,64,71
48.0,48.2,74,64,71
48.2,48.4,62,64,71
48.4,48.6,62,64,71
54.0,54.2,63,64,71
54.2,54.4,65,64,71
54.4,54.6,67,64,71
54.6,54.8,68,64,71
54.8,55.0,70,64,71
55.0,55.2,72,64,71
55.2,55.4,74,64,71
55.4,55.6,75,64,71
55.6,55.8,77,64,71
55.8,56.0,79,64,71
56.4,56.6,79,64,71
56.6,56.8,75,64,71
56.8,57.0,70,64,71
57.0,57.2,67,64,71
57.2,57.4,70,64,71
57.4,57.6,63,64,71
57.6,57.8,67,64,71
57.8,58.0,65,64,71
58.0,58.2,62,64,71
58.2,58.4,63,64,71
58.4,58.6,67,64,71
58.6,58.8,67,64,71
58.8,59.0,67,64,71
61.8,62.0,75,64,71
62.0,62.2,63,64,71
62.2,62.4,63,64,71
62.4,62.6,63,64,71
64.8,65.0,67,64,71
65.4,65.6,65,64,71
68.6,68.8,65,64,71
68.8,69.0,67,64,71
69.0,69.2,68,64,71
69.4,69.6,67,64,71
69.6,69.8,65,64,71
70.0,70.2,67,64,71
70.2,70.4,65,64,71
71.0,71.2,70,64,71
71.2,71.4,70,64,71
71.4,71.6,70,64,71
71.8,72.0,67,64,71
72.2,72.4,65,64,71
72.4,72.6,65,64,71
72.6,73.2,65,64,71
73.2,73.4,65,64,71
74.4,75.0,70,64,71
75.0,75.6,68,64,71
75.6,76.2,66,64,71
76.2,76.4,65,64,71
79.2,79.8,62,64,71
79.8,80.4,63,64,71
80.4,81.0,68,64,71
81.0,81.2,67,64,71
81.2,81.4,63,64,71
81.4,81.6,63,64,71
81.6,82.0,63,64,71
82.0,82.2,75,64,71
82.2,82.4,75,64,71
82.4,82.6,63,64,71
82.6,82.8,63,64,71
83.2,83.4,75,64,71
83.6,83.8,63,64,71
83.8,84.0,63,64,71
84.0,84.4,63,64,71
84.4,84.6,75,64,71
84.6,84.8,75,64,71
84.8,85.0,63,64,71
85.0,85.2,63,64,71
85.2,85.4,75,64,71
85.4,85.6,63,64,71
85.6,85.8,63,64,71
85.8,86.0,75,64,71
86.0,86.2,63,64,71
86.2,86.4,63,64,71
86.4,86.6,74,64,71
86.6,86.8,62,64,71
86.8,87.0,62,64,71
92.4,92.6,63,64,71
92.6,92.8,65,64,71
92.8,93.0,67,64,71
93.0,93.2,68,64,71
93.2,93.4,70,64,71
93.4,93.6,72,64,71
93.6,93.8,74,64,71
93.8,94.0,75,64,71
94.0,94.2,77,64,71
94.2,94.4,79,64,71
94.8,95.0,79,64,71
95.0,95.2,75,64,71
95.2,95.4,70,64,71
95.4,95.6,67,64,71
95.6,95.8,70,64,71
95.8,96.0,63,64,71
96.0,96.2,67,64,71
96.2,96.4,65,64,71
96.4,96.6,62,64,71
96.6,96.8,63,64,71
96.8,97.0,67,64,71
97.0,97.2,67,64,71
97.2,97.4,67,64,71
101.4,101.8,67,64,71
101.8,102.0,68,64,71
102.0,102.2,67,64,71
103.8,104.4,65,64,71
104.4,104.6,65,64,71
106.2,106.6,62,64,71
106.6,106.8,63,64,71
106.8,107.0,62,64,71
111.0,111.4,67,64,71
111.4,111.6,68,64,71
111.6,111.8,67,64,71
113.4,114.0,65,64,71
114.0,114.2,65,64,71
115.8,116.2,62,64,71
116.2,116.4,63,64,71
116.4,116.6,62,64,71
117.6,118.2,73,64,71
118.2,118.4,73,64,71
121.8,122.0,70,64,71
122.4,122.6,75,64,71
123.0,123.2,69,64,71
123.6,123.8,70,64,71
125.4,125.8,70,64,71
125.8,126.0,74,64,71
126.0,126.2,75,64,71
127.8,128.2,67,64,71
128.2,128.4,68,64,71
128.4,128.6,67,64,71
129.6,130.2,73,64,71
130.2,130.4,73,64,71
133.8,134.0,70,64,71
134.4,134.6,75,64,71
135.0,135.2,69,64,71
135.6,135.8,70,64,71
137.4,137.8,70,64,71
137.8,138.0,74,64,71
138.0,138.2,75,64,71
139.8,140.2,67,64,71
140.2,140.4,68,64,71
140.4,140.6,67,64,71
141.6,142.2,68,64,71
142.2,142.8,67,64,71
142.8,143.4,65,64,71
143.4,144.0,63,64,71
144.0,144.2,62,64,71
145.8,146.0,75,64,71
146.4,147.0,67,64,71
147.0,147.6,68,64,71
147.6,148.2,68,64,71
148.2,148.6,75,64,71
148.6,148.8,74,64,71
148.8,149.0,72,64,71
149.0,149.2,70,64,71
149.2,149.4,69,64,71
149.4,149.6,70,64,71
149.6,149.8,70,64,71
149.8,150.0,70,64,71
150.0,150.2,70,64,71
153.0,153.2,75,64,71
153.2,153.4,63,64,71
153.4,153.6,63,64,71
153.6,153.8,63,64,71
156.0,156.2,67,64,71
156.6,156.8,65,64,71
159.8,160.0,65,64,71
160.0,160.2,67,64,71
160.2,160.4,68,64,71
160.6,160.8,67,64,71
160.8,161.0,65,64,71
161.2,161.4,67,64,71
161.4,161.6,65,64,71
162.2,162.4,70,64,71
162.4,162.6,70,64,71
162.6,162.8,70,64,71
163.0,163.2,67,64,71
163.4,163.6,65,64,71
163.6,163.8,65,64,71
163.8,164.4,65,64,71
164.4,164.6,65,64,71
165.6,166.2,70,64,71
166.2,166.8,68,64,71
166.8,167.4,66,64,71
167.4,167.6,65,64,71
170.4,171.0,62,64,71
171.0,171.6,63,64,71
171.6,172.2,68,64,71
172.2,172.4,67,64,71
172.4,172.6,63,64,71
172.6,172.8,63,64,71
172.8,173.2,63,64,71
173.2,173.4,75,64,71
173.4,173.6,75,64,71
173.6,173.8,63,64,71
173.8,174.0,63,64,71
174.4,174.6,75,64,71
174.8,175.0,63,64,71
175.0,175.2,63,64,71
175.2,175.6,63,64,71
175.6,175.8,75,64,71
175.8,176.0,75,64,71
176.0,176.2,63,64,71
176.2,176.4,63,64,71
176.4,176.6,75,64,71
176.6,176.8,63,64,71
176.8,177.0,63,64,71
177.0,177.2,75,64,71
177.2,177.4,63,64,71
177.4,177.6,63,64,71
177.6,177.8,74,64,71
177.8,178.0,62,64,71
178.0,178.2,62,64,71
183.6,183.8,63,64,71
183.8,184.0,65,64,71
184.0,184.2,67,64,71
184.2,184.4,68,64,71
184.4,184.6,70,64,71
184.6,184.8,72,64,71
184.8,185.0,74,64,71
185.0,185.2,75,64,71
185.2,185.4,77,64,71
185.4,185.6,79,64,71
186.0,186.2,79,64,71
186.2,186.4,75,64,71
186.4,186.6,70,64,71
186.6,186.8,67,64,71
186.8,187.0,70,64,71
187.0,187.2,63,64,71
187.2,187.4,67,64,71
187.4,187.6,65,64,71
187.6,187.8,62,64,71
187.8,188.0,63,64,71
188.0,188.2,67,64,71
188.2,188.4,67,64,71
188.4,188.6,67,64,71
6.6,6.8,61,64,70
6.8,7.0,49,64,70
7.0,7.2,49,64,70
7.2,7.8,49,64,70
7.8,8.0,60,64,70
8.0,8.2,48,64,70
8.2,8.4,48,64,70
8.4,9.0,48,64,70
9.2,9.4,63,64,70
9.4,9.6,62,64,70
9.6,9.8,60,64,70
9.8,10.0,58,64,70
10.0,10.2,57,64,70
10.2,10.4,58,64,70
10.4,10.6,46,64,70
10.6,10.8,46,64,70
10.8,11.0,46,64,70
16.2,16.4,61,64,70
16.4,16.6,49,64,70
16.6,16.8,49,64,70
16.8,17.4,49,64,70
17.4,17.6,60,64,70
17.6,17.8,48,64,70
17.8,18.0,48,64,70
18.0,18.6,48,64,70
18.8,19.0,63,64,70
19.0,19.2,62,64,70
19.2,19.4,60,64,70
19.4,19.6,58,64,70
19.6,19.8,57,64,70
19.8,20.0,58,64,70
20.0,20.2,46,64,70
20.2,20.4,46,64,70
20.4,20.6,46,64,70
21.6,21.8,43,64,70
21.8,22.0,45,64,70
22.0,22.2,47,64,70
22.2,22.4,48,64,70
22.4,22.6,51,64,70
22.6,22.8,53,64,70
22.8,23.0,55,64,70
23.0,23.2,57,64,70
23.2,23.4,59,64,70
23.4,23.6,60,64,70
24.0,24.2,61,64,70
24.6,24.8,60,64,70
25.2,25.4,58,64,70
25.8,26.0,56,64,70
27.8,28.0,65,64,70
28.0,28.2,67,64,70
28.2,28.4,68,64,70
28.4,28.6,67,64,70
28.6,28.8,65,64,70
28.8,29.0,63,64,70
29.0,29.2,62,64,70
29.2,29.4,60,64,70
29.4,29.6,58,64,70
31.0,31.2,58,64,70
31.2,31.4,58,64,70
31.6,31.8,58,64,70
31.8,32.0,58,64,70
32.6,32.8,53,64,70
32.8,33.0,55,64,70
33.0,33.2,56,64,70
33.4,33.6,58,64,70
33.6,33.8,58,64,70
34.0,34.2,57,64,70
34.4,34.8,57,64,70
34.8,35.0,58,64,70
38.4,39.0,67,64,70
39.0,39.6,65,64,70
39.6,40.2,64,64,70
40.2,40.4,65,64,70
40.4,40.6,56,64,70
40.6,40.8,56,64,70
40.8,41.4,56,64,70
41.4,42.0,55,64,70
42.0,42.6,53,64,70
42.6,42.8,55,64,70
43.0,43.2,46,64,70
43.2,43.4,58,64,70
43.4,43.6,58,64,70
44.2,44.4,48,64,70
44.4,44.6,60,64,70
44.6,44.8,60,64,70
45.4,45.6,48,64,70
45.6,45.8,60,64,70
45.8,46.0,60,64,70
46.2,46.4,46,64,70
46.4,46.6,58,64,70
46.6,46.8,58,64,70
46.8,47.0,48,64,70
47.0,47.2,60,64,70
47.2,47.4,60,64,70
47.4,47.6,46,64,70
47.6,47.8,58,64,70
47.8,48.0,58,64,70
48.0,48.2,46,64,70
48.2,48.4,58,64,70
48.4,48.6,58,64,70
48.6,48.8,51,64,70
49.2,49.4,51,64,70
49.4,49.6,53,64,70
49.6,49.8,55,64,70
49.8,50.0,56,64,70
50.0,50.2,58,64,70
50.2,50.4,60,64,70
50.4,50.6,62,64,70
50.6,50.8,63,64,70
50.8,51.0,65,64,70
51.0,51.2,67,64,70
51.6,51.8,67,64,70
51.8,52.0,63,64,70
52.0,52.2,58,64,70
52.2,52.4,55,64,70
52.4,52.6,58,64,70
52.6,52.8,51,64,70
52.8,53.0,55,64,70
53.0,53.2,53,64,70
53.2,53.4,50,64,70
53.4,53.6,51,64,70
54.0,54.2,55,64,70
54.2,54.4,56,64,70
54.4,54.6,58,64,70
54.6,54.8,60,64,70
54.8,55.0,62,64,70
55.0,55.2,63,64,70
55.2,55.4,62,64,70
55.4,55.6,63,64,70
55.6,55.8,65,64,70
55.8,56.0,67,64,70
56.6,56.8,67,64,70
56.8,57.0,63,64,70
57.0,57.2,58,64,70
57.2,57.4,63,64,70
57.4,57.6,55,64,70
57.6,57.8,58,64,70
57.8,58.0,56,64,70
58.2,58.4,51,64,70
58.4,58.6,51,64,70
58.6,58.8,51,64,70
58.8,59.0,51,64,70
60.0,60.2,43,64,70
60.2,60.4,45,64,70
60.4,60.6,47,64,70
60.6,60.8,48,64,70
60.8,61.0,51,64,70
61.0,61.2,53,64,70
61.2,61.4,55,64,70
61.4,61.6,57,64,70
61.6,61.8,59,64,70
61.8,62.0,60,64,70
62.4,62.6,61,64,70
63.0,63.2,60,64,70
63.6,63.8,58,64,70
64.2,64.4,56,64,70
66.2,66.4,65,64,70
66.4,66.6,67,64,70
66.6,66.8,68,64,70
66.8,67.0,67,64,70
67.0,67.2,65,64,70
67.2,67.4,63,64,70
67.4,67.6,62,64,70
67.6,67.8,60,64,70
67.8,68.0,58,64,70
69.4,69.6,58,64,70
69.6,69.8,58,64,70
70.0,70.2,58,64,70
70.2,70.4,58,64,70
71.0,71.2,53,64,70
71.2,71.4,55,64,70
71.4,71.6,56,64,70
71.8,72.0,58,64,70
72.0,72.2,58,64,70
72.4,72.6,57,64,70
72.8,73.2,57,64,70
73.2,73.4,58,64,70
76.8,77.4,67,64,70
77.4,78.0,65,64,70
78.0,78.6,64,64,70
78.6,78.8,65,64,70
78.8,79.0,56,64,70
79.0,79.2,56,64,70
79.2,79.8,56,64,70
79.8,80.4,55,64,70
80.4,81.0,53,64,70
81.0,81.2,55,64,70
81.4,81.6,46,64,70
81.6,81.8,58,64,70
81.8,82.0,58,64,70
82.6,82.8,48,64,70
82.8,83.0,60,64,70
83.0,83.2,60,64,70
83.8,84.0,48,64,70
84.0,84.2,60,64,70
84.2,84.4,60,64,70
84.6,84.8,46,64,70
84.8,85.0,58,64,70
85.0,85.2,58,64,70
85.2,85.4,48,64,70
85.4,85.6,60,64,70
85.6,85.8,60,64,70
85.8,86.0,46,64,70
86.0,86.2,58,64,70
86.2,86.4,58,64,70
86.4,86.6,46,64,70
86.6,86.8,58,64,70
86.8,87.0,58,64,70
87.0,87.2,51,64,70
87.6,87.8,51,64,70
87.8,88.0,53,64,70
88.0,88.2,55,64,70
88.2,88.4,56,64,70
88.4,88.6,58,64,70
88.6,88.8,60,64,70
88.8,89.0,62,64,70
89.0,89.2,63,64,70
89.2,89.4,65,64,70
89.4,89.6,67,64,70
90.0,90.2,67,64,70
90.2,90.4,63,64,70
90.4,90.6,58,64,70
90.6,90.8,55,64,70
90.8,91.0,58,64,70
91.0,91.2,51,64,70
91.2,91.4,55,64,70
91.4,91.6,53,64,70
91.6,91.8,50,64,70
91.8,92.0,51,64,70
92.4,92.6,55,64,70
92.6,92.8,56,64,70
92.8,93.0,58,64,70
93.0,93.2,60,64,70
93.2,93.4,62,64,70
93.4,93.6,63,64,70
93.6,93.8,62,64,70
93.8,94.0,63,64,70
94.0,94.2,65,64,70
94.2,94.4,67,64,70
95.0,95.2,67,64,70
95.2,95.4,63,64,70
95.4,95.6,58,64,70
95.6,95.8,63,64,70
95.8,96.0,55,64,70
96.0,96.2,58,64,70
96.2,96.4,56,64,70
96.6,96.8,51,64,70
96.8,97.0,51,64,70
97.0,97.2,51,64,70
97.2,97.4,51,64,70
102.6,102.7,62,64,70
102.7,102.8,60,64,70
102.8,102.9,58,64,70
102.9,103.0,60,64,70
103.0,103.1,62,64,70
103.1,103.2,63,64,70
103.2,103.4,65,64,70
105.0,105.1,62,64,70
105.1,105.2,60,64,70
105.2,105.3,58,64,70
105.3,105.4,57,64,70
105.4,105.5,58,64,70
105.5,105.6,55,64,70
105.6,105.8,53,64,70
112.2,112.3,62,64,70
112.3,112.4,60,64,70
112.4,112.5,58,64,70
112.5,112.6,60,64,70
112.6,112.7,62,64,70
112.7,112.8,63,64,70
112.8,113.0,65,64,70
114.6,114.7,62,64,70
114.7,114.8,60,64,70
114.8,114.9,58,64,70
114.9,115.0,57,64,70
115.0,115.1,58,64,70
115.1,115.2,55,64,70
115.2,115.4,53,64,70
117.6,118.2,64,64,70
118.2,118.4,64,64,70
119.4,119.6,60,64,70
120.0,120.2,65,64,70
120.6,120.8,53,64,70
121.2,121.4,58,64,70
121.8,122.0,58,64,70
122.4,122.6,63,64,70
123.2,123.4,57,64,70
123.6,123.8,58,64,70
124.2,124.3,55,64,70
124.3,124.4,53,64,70
124.4,124.5,51,64,70
124.5,124.6,53,64,70
124.6,124.7,55,64,70
124.7,124.8,56,64,70
124.8,125.0,58,64,70
126.8,126.9,63,64,70
126.9,127.0,62,64,70
127.0,127.1,63,64,70
127.1,127.2,60,64,70
127.2,127.4,58,64,70
129.6,130.2,64,64,70
130.2,130.4,64,64,70
131.4,131.6,60,64,70
132.0,132.2,65,64,70
132.6,132.8,53,64,70
133.2,133.4,58,64,70
133.8,134.0,58,64,70
134.4,134.6,63,64,70
135.2,135.4,57,64,70
135.6,135.8,58,64,70
136.2,136.3,55,64,70
136.3,136.4,53,64,70
136.4,136.5,51,64,70
136.5,136.6,53,64,70
136.6,136.7,55,64,70
136.7,136.8,56,64,70
136.8,137.0,58,64,70
138.8,138.9,63,64,70
138.9,139.0,62,64,70
139.0,139.1,63,64,70
139.1,139.2,60,64,70
139.2,139.4,58,64,70
145.8,146.0,61,64,70
146.0,146.2,49,64,70
146.2,146.4,49,64,70
146.4,147.0,49,64,70
147.0,147.2,60,64,70
147.2,147.4,48,64,70
147.4,147.6,48,64,70
147.6,148.2,48,64,70
148.4,148.6,63,64,70
148.6,148.8,62,64,70
148.8,149.0,60,64,70
149.0,149.2,58,64,70
149.2,149.4,57,64,70
149.4,149.6,58,64,70
149.6,149.8,46,64,70
149.8,150.0,46,64,70
150.0,150.2,46,64,70
151.2,151.4,43,64,70
151.4,151.6,45,64,70
151.6,151.8,47,64,70
151.8,152.0,48,64,70
152.0,152.2,51,64,70
152.2,152.4,53,64,70
152.4,152.6,55,64,70
152.6,152.8,57,64,70
152.8,153.0,59,64,70
153.0,153.2,60,64,70
153.6,153.8,61,64,70
154.2,154.4,60,64,70
154.8,155.0,58,64,70
155.4,155.6,56,64,70
157.4,157.6,65,64,70
157.6,157.8,67,64,70
157.8,158.0,68,64,70
158.0,158.2,67,64,70
158.2,158.4,65,64,70
158.4,158.6,63,64,70
158.6,158.8,62,64,70
158.8,159.0,60,64,70
159.0,159.2,58,64,70
160.6,160.8,58,64,70
160.8,161.0,58,64,70
161.2,161.4,58,64,70
161.4,161.6,58,64,70
162.2,162.4,53,64,70
162.4,162.6,55,64,70
162.6,162.8,56,64,70
163.0,163.2,58,64,70
163.2,163.4,58,64,70
163.6,163.8,57,64,70
164.0,164.4,57,64,70
164.4,164.6,58,64,70
168.0,168.6,67,64,70
168.6,169.2,65,64,70
169.2,169.8,64,64,70
169.8,170.0,65,64,70
170.0,170.2,56,64,70
170.2,170.4,56,64,70
170.4,171.0,56,64,70
171.0,171.6,55,64,70
171.6,172.2,53,64,70
172.2,172.4,55,64,70
172.6,172.8,46,64,70
172.8,173.0,58,64,70
173.0,173.2,58,64,70
173.8,174.0,48,64,70
174.0,174.2,60,64,70
174.2,174.4,60,64,70
175.0,175.2,48,64,70
175.2,175.4,60,64,70
175.4,175.6,60,64,70
175.8,176.0,46,64,70
176.0,176.2,58,64,70
176.2,176.4,58,64,70
176.4,176.6,48,64,70
176.6,176.8,60,64,70
176.8,177.0,60,64,70
177.0,177.2,46,64,70
177.2,177.4,58,64,70
177.4,177.6,58,64,70
177.6,177.8,46,64,70
177.8,178.0,58,64,70
178.0,178.2,58,64,70
178.2,178.4,51,64,70
178.8,179.0,51,64,70
179.0,179.2,53,64,70
179.2,179.4,55,64,70
179.4,179.6,56,64,70
179.6,179.8,58,64,70
179.8,180.0,60,64,70
180.0,180.2,62,64,70
180.2,180.4,63,64,70
180.4,180.6,65,64,70
180.6,180.8,67,64,70
181.2,181.4,67,64,70
181.4,181.6,63,64,70
181.6,181.8,58,64,70
181.8,182.0,55,64,70
182.0,182.2,58,64,70
182.2,182.4,51,64,70
182.4,182.6,55,64,70
182.6,182.8,53,64,70
182.8,183.0,50,64,70
183.0,183.2,51,64,70
183.6,183.8,55,64,70
183.8,184.0,56,64,70
184.0,184.2,58,64,70
184.2,184.4,60,64,70
184.4,184.6,62,64,70
184.6,184.8,63,64,70
184.8,185.0,62,64,70
185.0,185.2,63,64,70
185.2,185.4,65,64,70
185.4,185.6,67,64,70
186.2,186.4,67,64,70
186.4,186.6,63,64,70
186.6,186.8,58,64,70
186.8,187.0,63,64,70
187.0,187.2,55,64,70
187.2,187.4,58,64,70
187.4,187.6,56,64,70
187.8,188.0,51,64,70
188.0,188.2,51,64,70
188.2,188.4,51,64,70
188.4,188.6,51,64,70
7.8,8.0,48,64,70
8.0,8.2,36,64,70
8.2,8.4,36,64,70
8.4,9.0,36,64,70
9.2,9.4,51,64,70
9.4,9.6,50,64,70
9.6,9.8,48,64,70
9.8,10.0,46,64,70
10.0,10.2,45,64,70
10.2,10.4,46,64,70
10.4,10.6,34,64,70
10.6,10.8,34,64,70
10.8,11.0,34,64,70
17.4,17.6,48,64,70
17.6,17.8,36,64,70
17.8,18.0,36,64,70
18.0,18.6,36,64,70
18.8,19.0,51,64,70
19.0,19.2,50,64,70
19.2,19.4,48,64,70
19.4,19.6,46,64,70
19.6,19.8,45,64,70
19.8,20.0,46,64,70
20.0,20.2,34,64,70
20.2,20.4,34,64,70
20.4,20.6,34,64,70
22.8,23.0,43,64,70
23.4,23.6,48,64,70
24.0,24.2,58,64,70
24.6,24.8,56,64,70
25.2,25.4,51,64,70
25.8,26.0,48,64,70
31.0,31.2,51,64,70
31.2,31.4,46,64,70
31.6,31.8,51,64,70
31.8,32.0,46,64,70
32.6,32.8,50,64,70
32.8,33.0,51,64,70
33.0,33.2,53,64,70
33.4,33.6,51,64,70
33.8,34.0,46,64,70
34.2,34.8,48,64,70
34.8,35.0,46,64,70
38.4,39.0,58,64,70
39.0,39.6,56,64,70
39.6,40.2,55,64,70
40.2,40.4,53,64,70
40.4,40.6,53,64,70
40.6,40.8,53,64,70
40.8,41.4,53,64,70
41.4,42.0,51,64,70
42.0,42.6,50,64,70
42.6,42.8,51,64,70
43.0,43.2,43,64,70
43.2,43.4,55,64,70
43.4,43.6,55,64,70
44.2,44.4,44,64,70
44.4,44.6,56,64,70
44.6,44.8,56,64,70
45.4,45.6,44,64,70
45.6,45.8,56,64,70
45.8,46.0,56,64,70
46.2,46.4,46,64,70
46.4,46.6,58,64,70
46.6,46.8,58,64,70
46.8,47.0,48,64,70
47.0,47.2,60,64,70
47.2,47.4,60,64,70
47.4,47.6,46,64,70
47.6,47.8,58,64,70
47.8,48.0,58,64,70
48.0,48.2,46,64,70
48.2,48.4,58,64,70
48.4,48.6,58,64,70
48.6,48.8,51,64,70
51.0,51.2,63,64,70
51.2,51.4,51,64,70
51.4,51.6,51,64,70
51.6,51.8,51,64,70
52.6,52.8,51,64,70
52.8,53.0,46,64,70
53.2,53.4,46,64,70
53.4,53.6,51,64,70
54.0,54.2,51,64,70
54.2,54.4,53,64,70
54.4,54.6,55,64,70
54.6,54.8,56,64,70
54.8,55.0,58,64,70
55.0,55.2,60,64,70
55.2,55.4,53,64,70
55.4,55.6,55,64,70
55.6,55.8,56,64,70
55.8,56.0,58,64,70
56.6,56.8,63,64,70
56.8,57.0,58,64,70
57.0,57.2,55,64,70
57.2,57.4,58,64,70
57.4,57.6,51,64,70
57.6,57.8,55,64,70
57.8,58.0,53,64,70
58.0,58.2,46,64,70
58.2,58.4,51,64,70
58.4,58.6,39,64,70
58.6,58.8,39,64,70
58.8,59.0,39,64,70
61.2,61.4,43,64,70
61.8,62.0,48,64,70
62.4,62.6,58,64,70
63.0,63.2,56,64,70
63.6,63.8,51,64,70
64.2,64.4,48,64,70
69.4,69.6,51,64,70
69.6,69.8,46,64,70
70.0,70.2,51,64,70
70.2,70.4,46,64,70
71.0,71.2,50,64,70
71.2,71.4,51,64,70
71.4,71.6,53,64,70
71.8,72.0,51,64,70
72.2,72.4,46,64,70
72.6,73.2,48,64,70
73.2,73.4,46,64,70
76.8,77.4,58,64,70
77.4,78.0,56,64,70
78.0,78.6,55,64,70
78.6,78.8,53,64,70
78.8,79.0,53,64,70
79.0,79.2,53,64,70
79.2,79.8,53,64,70
79.8,80.4,51,64,70
80.4,81.0,50,64,70
81.0,81.2,51,64,70
81.4,81.6,43,64,70
81.6,81.8,55,64,70
81.8,82.0,55,64,70
82.6,82.8,44,64,70
82.8,83.0,56,64,70
83.0,83.2,56,64,70
83.8,84.0,44,64,70
84.0,84.2,56,64,70
84.2,84.4,56,64,70
84.6,84.8,46,64,70
84.8,85.0,58,64,70
85.0,85.2,58,64,70
85.2,85.4,48,64,70
85.4,85.6,60,64,70
85.6,85.8,60,64,70
85.8,86.0,46,64,70
86.0,86.2,58,64,70
86.2,86.4,58,64,70
86.4,86.6,46,64,70
86.6,86.8,58,64,70
86.8,87.0,58,64,70
87.0,87.2,51,64,70
89.4,89.6,63,64,70
89.6,89.8,51,64,70
89.8,90.0,51,64,70
90.0,90.2,51,64,70
91.0,91.2,51,64,70
91.2,91.4,46,64,70
91.6,91.8,46,64,70
91.8,92.0,51,64,70
92.4,92.6,51,64,70
92.6,92.8,53,64,70
92.8,93.0,55,64,70
93.0,93.2,56,64,70
93.2,93.4,58,64,70
93.4,93.6,60,64,70
93.6,93.8,53,64,70
93.8,94.0,55,64,70
94.0,94.2,56,64,70
94.2,94.4,58,64,70
95.0,95.2,63,64,70
95.2,95.4,58,64,70
95.4,95.6,55,64,70
95.6,95.8,58,64,70
95.8,96.0,51,64,70
96.0,96.2,55,64,70
96.2,96.4,53,64,70
96.4,96.6,46,64,70
96.6,96.8,51,64,70
96.8,97.0,39,64,70
97.0,97.2,39,64,70
97.2,97.4,39,64,70
101.4,101.8,58,64,70
101.8,102.0,46,64,70
102.0,102.2,51,64,70
103.8,104.2,62,64,70
104.2,104.4,57,64,70
104.4,104.6,58,64,70
106.2,106.6,53,64,70
106.6,106.8,41,64,70
106.8,107.0,46,64,70
111.0,111.4,58,64,70
111.4,111.6,46,64,70
111.6,111.8,51,64,70
113.4,113.8,62,64,70
113.8,114.0,57,64,70
114.0,114.2,58,64,70
115.8,116.2,53,64,70
116.2,116.4,41,64,70
116.4,116.6,46,64,70
117.6,118.2,43,64,70
118.2,118.4,43,64,70
121.8,122.0,46,64,70
122.4,122.6,51,64,70
123.0,123.2,45,64,70
123.6,123.8,46,64,70
127.8,128.2,58,64,70
128.2,128.4,46,64,70
128.4,128.6,51,64,70
129.6,130.2,43,64,70
130.2,130.4,43,64,70
133.8,134.0,46,64,70
134.4,134.6,51,64,70
135.0,135.2,45,64,70
135.6,135.8,46,64,70
139.8,140.2,58,64,70
140.2,140.4,46,64,70
140.4,140.6,51,64,70
147.0,147.2,48,64,70
147.2,147.4,36,64,70
147.4,147.6,36,64,70
147.6,148.2,36,64,70
148.4,148.6,51,64,70
148.6,148.8,50,64,70
148.8,149.0,48,64,70
149.0,149.2,46,64,70
149.2,149.4,45,64,70
149.4,149.6,46,64,70
149.6,149.8,34,64,70
149.8,150.0,34,64,70
150.0,150.2,34,64,70
152.4,152.6,43,64,70
153.0,153.2,48,64,70
153.6,153.8,58,64,70
154.2,154.4,56,64,70
154.8,155.0,51,64,70
155.4,155.6,48,64,70
160.6,160.8,51,64,70
160.8,161.0,46,64,70
161.2,161.4,51,64,70
161.4,161.6,46,64,70
162.2,162.4,50,64,70
162.4,162.6,51,64,70
162.6,162.8,53,64,70
163.0,163.2,51,64,70
163.4,163.6,46,64,70
163.8,164.4,48,64,70
164.4,164.6,46,64,70
168.0,168.6,58,64,70
168.6,169.2,56,64,70
169.2,169.8,55,64,70
169.8,170.0,53,64,70
170.0,170.2,53,64,70
170.2,170.4,53,64,70
170.4,171.0,53,64,70
171.0,171.6,51,64,70
171.6,172.2,50,64,70
172.2,172.4,51,64,70
172.6,172.8,43,64,70
172.8,173.0,55,64,70
173.0,173.2,55,64,70
173.8,174.0,44,64,70
174.0,174.2,56,64,70
174.2,174.4,56,64,70
175.0,175.2,44,64,70
175.2,175.4,56,64,70
175.4,175.6,56,64,70
175.8,176.0,46,64,70
176.0,176.2,58,64,70
176.2,176.4,58,64,70
176.4,176.6,48,64,70
176.6,176.8,60,64,70
176.8,177.0,60,64,70
177.0,177.2,46,64,70
177.2,177.4,58,64,70
177.4,177.6,58,64,70
177.6,177.8,46,64,70
177.8,178.0,58,64,70
178.0,178.2,58,64,70
178.2,178.4,51,64,70
180.6,180.8,63,64,70
180.8,181.0,51,64,70
181.0,181.2,51,64,70
181.2,181.4,51,64,70
182.2,182.4,51,64,70
182.4,182.6,46,64,70
182.8,183.0,46,64,70
183.0,183.2,51,64,70
183.6,183.8,51,64,70
183.8,184.0,53,64,70
184.0,184.2,55,64,70
184.2,184.4,56,64,70
184.4,184.6,58,64,70
184.6,184.8,60,64,70
184.8,185.0,53,64,70
185.0,185.2,55,64,70
185.2,185.4,56,64,70
185.4,185.6,58,64,70
186.2,186.4,63,64,70
186.4,186.6,58,64,70
186.6,186.8,55,64,70
186.8,187.0,58,64,70
187.0,187.2,51,64,70
187.2,187.4,55,64,70
187.4,187.6,53,64,70
187.6,187.8,46,64,70
187.8,188.0,51,64,70
188.0,188.2,39,64,70
188.2,188.4,39,64,70
188.4,188.6,39,64,70
