start_time,end_time,note_value,velocity,instrument_program_number
19.5,19.870312,63,64,60
19.875,20.245312,67,64,60
20.25,20.620312,67,64,60
20.625,20.995312,67,64,60
21.0,21.370312,65,64,60
21.375,21.745312,65,64,60
21.75,22.120312,65,64,60
22.125,22.495312,65,64,60
22.5,22.870312,63,64,60
23.25,23.432812,58,64,60
23.4375,23.620312,63,64,60
23.625,23.807812,58,64,60
23.8125,23.995312,63,64,60
24.0,24.370312,67,64,60
24.75,24.932812,63,64,60
24.9375,25.120312,67,64,60
25.125,25.307812,63,64,60
25.3125,25.495312,67,64,60
25.5,25.870312,70,64,60
26.25,26.432812,67,64,60
26.4375,26.620312,70,64,60
26.625,26.807812,67,64,60
26.8125,26.995312,70,64,60
27.0,27.370312,75,64,60
27.375,27.745312,65,64,60
27.75,28.120312,67,64,60
28.125,28.495312,65,64,60
28.5,28.870312,67,64,60
30.0,30.370312,67,64,60
31.5,31.870312,67,64,60
33.0,33.37031,67,64,60
33.375,33.74531,67,64,60
33.75,34.12031,67,64,60
34.125,34.49531,67,64,60
34.5,34.87031,67,64,60
36.0,36.37031,67,64,60
37.5,37.87031,65,64,60
39.0,39.37031,65,64,60
40.5,40.87031,65,64,60
50.625,50.99531,65,64,60
51.0,51.37031,65,64,60
51.375,51.74531,65,64,60
51.75,52.12031,65,64,60
52.125,52.49531,70,64,60
52.5,52.87031,65,64,60
58.5,59.99531,65,64,60
60.0,60.74531,65,64,60
60.75,61.12031,67,64,60
61.125,61.49531,65,64,60
61.5,61.87031,65,64,60
67.5,68.995316,65,64,60
69.0,69.745316,65,64,60
69.75,70.120316,67,64,60
70.125,70.495316,65,64,60
70.5,70.870316,65,64,60
74.25,74.620316,66,64,60
74.625,74.995316,66,64,60
75.0,75.370316,65,64,60
75.75,76.495316,58,64,60
76.5,77.995316,58,64,60
78.0,78.745316,58,64,60
78.75,79.120316,66,64,60
79.125,79.495316,66,64,60
79.5,79.870316,65,64,60
82.5,82.870316,70,64,60
85.5,85.870316,70,64,60
91.5,91.870316,63,64,60
92.25,92.620316,63,64,60
93.0,93.370316,63,64,60
100.5,100.870316,63,64,60
101.25,101.620316,63,64,60
102.0,102.370316,63,64,60
103.125,103.495316,70,64,60
103.5,103.870316,70,64,60
103.875,104.245316,70,64,60
104.625,104.995316,70,64,60
105.0,105.370316,70,64,60
105.375,105.745316,70,64,60
106.125,106.495316,67,64,60
106.5,106.870316,65,64,60
106.875,107.245316,65,64,60
107.25,107.620316,65,64,60
107.625,107.995316,65,64,60
108.0,108.370316,63,64,60
112.875,113.245316,67,64,60
113.25,113.620316,67,64,60
113.625,113.995316,67,64,60
114.0,114.370316,67,64,60
117.75,118.120316,55,64,60
118.125,118.495316,55,64,60
118.5,119.995316,55,64,60
120.0,121.495316,55,64,60
121.5,122.245316,55,64,60
122.25,122.620316,55,64,60
122.625,122.995316,55,64,60
123.0,123.370316,55,64,60
126.75,127.120316,68,64,60
127.125,127.495316,68,64,60
127.5,127.870316,67,64,60
131.25,131.62032,67,64,60
131.625,131.99532,67,64,60
132.375,132.74532,68,64,60
150.0,151.12032,63,64,60
151.125,151.49532,63,64,60
151.5,151.87032,61,64,60
152.25,152.62032,65,64,60
153.0,153.37032,65,64,60
157.5,157.87032,63,64,60
158.25,158.62032,63,64,60
159.0,159.74532,63,64,60
161.625,161.99532,65,64,60
162.0,163.12032,63,64,60
163.125,163.87032,65,64,60
164.25,164.62032,65,64,60
165.0,165.37032,65,64,60
169.5,169.87032,63,64,60
170.25,170.99532,63,64,60
171.0,171.37032,63,64,60
171.75,172.12032,63,64,60
172.125,172.49532,65,64,60
172.5,172.87032,67,64,60
172.875,173.24532,68,64,60
173.25,173.62032,67,64,60
173.625,173.99532,65,64,60
174.0,174.37032,63,64,60
174.75,175.12032,63,64,60
175.125,175.49532,65,64,60
175.5,175.87032,67,64,60
175.875,176.24532,68,64,60
176.25,176.62032,67,64,60
176.625,176.99532,65,64,60
177.0,177.37032,63,64,60
179.25,179.62032,63,64,60
180.0,180.37032,63,64,60
182.25,182.62032,63,64,60
183.0,183.37032,63,64,60
186.0,187.12032,63,64,60
187.125,187.49532,65,64,60
187.5,187.87032,65,64,60
188.25,188.62032,65,64,60
189.0,189.37032,65,64,60
193.5,193.87032,63,64,60
194.25,194.62032,63,64,60
195.0,195.37032,63,64,60
195.75,196.12032,63,64,60
196.125,196.49532,65,64,60
196.5,196.87032,67,64,60
196.875,197.24532,68,64,60
197.25,197.62032,67,64,60
197.625,197.99532,65,64,60
198.0,198.37032,63,64,60
198.75,199.12032,63,64,60
199.125,199.49532,65,64,60
199.5,199.87032,67,64,60
199.875,200.24532,68,64,60
200.25,200.62032,67,64,60
200.625,200.99532,65,64,60
201.0,201.37032,63,64,60
203.25,203.62032,63,64,60
203.625,203.99532,63,64,60
204.0,204.37032,63,64,60
206.25,206.62032,63,64,60
206.625,206.99532,63,64,60
207.0,207.37032,63,64,60
207.75,208.12032,63,64,60
208.125,208.49532,65,64,60
208.5,208.87032,67,64,60
208.875,209.24532,68,64,60
209.625,209.99532,65,64,60
210.0,211.12032,63,64,60
211.125,211.49532,65,64,60
211.5,211.87032,65,64,60
211.875,212.24532,65,64,60
212.625,212.99532,65,64,60
213.375,213.74532,65,64,60
215.25,215.99532,65,64,60
216.0,216.74532,67,64,60
218.25,218.62032,65,64,60
219.0,219.37032,65,64,60
224.25,224.62032,63,64,60
225.0,225.37032,63,64,60
228.75,229.49532,63,64,60
229.5,229.87032,63,64,60
231.0,231.18282,58,64,60
231.1875,231.37032,63,64,60
231.375,231.55782,58,64,60
231.5625,231.74532,63,64,60
231.75,232.12032,67,64,60
232.5,232.87032,63,64,60
233.25,233.62032,63,64,60
235.125,235.49532,58,64,60
235.5,235.87032,58,64,60
235.875,236.24532,58,64,60
236.625,237.37032,58,64,60
237.375,237.74532,58,64,60
246.0,246.37032,67,64,60
246.375,246.74532,67,64,60
246.75,247.12032,67,64,60
247.125,247.49532,67,64,60
247.5,247.87032,65,64,60
247.875,248.24532,65,64,60
248.25,248.62032,65,64,60
248.625,248.99532,65,64,60
249.0,249.18282,63,64,60
249.1875,249.37032,67,64,60
249.375,249.55782,63,64,60
249.5625,249.74532,67,64,60
249.75,250.12032,70,64,60
250.5,251.99532,58,64,60
252.0,252.18282,58,64,60
252.1875,252.37032,65,64,60
252.375,252.55782,58,64,60
252.5625,252.74532,65,64,60
252.75,253.12032,68,64,60
253.5,254.99532,58,64,60
255.75,256.1203,55,64,60
256.125,256.4953,58,64,60
256.5,256.8703,58,64,60
256.875,257.2453,63,64,60
257.25,257.6203,63,64,60
257.625,257.9953,67,64,60
258.75,259.1203,58,64,60
259.125,259.4953,65,64,60
259.5,259.8703,65,64,60
259.875,260.6203,68,64,60
260.625,260.9953,65,64,60
271.125,271.4953,65,64,60
271.5,271.8703,67,64,60
271.875,272.2453,65,64,60
272.25,272.6203,67,64,60
272.625,272.9953,63,64,60
273.0,273.3703,65,64,60
274.125,274.4953,63,64,60
274.5,274.6828,65,64,60
274.6875,274.8703,63,64,60
274.875,275.0578,63,64,60
275.0625,275.2453,63,64,60
275.25,275.4328,65,64,60
275.4375,275.6203,63,64,60
275.625,275.8078,63,64,60
275.8125,275.9953,63,64,60
276.0,276.1828,65,64,60
276.1875,276.3703,63,64,60
276.375,276.5578,63,64,60
276.5625,276.7453,63,64,60
276.75,277.1203,68,64,60
277.125,277.4953,67,64,60
277.5,277.8703,65,64,60
283.125,283.4953,63,64,60
283.5,283.6828,65,64,60
283.6875,283.8703,63,64,60
283.875,284.0578,63,64,60
284.0625,284.2453,63,64,60
284.25,284.4328,65,64,60
284.4375,284.6203,63,64,60
284.625,284.8078,63,64,60
284.8125,284.9953,63,64,60
285.0,285.1828,65,64,60
285.1875,285.3703,63,64,60
285.375,285.5578,63,64,60
285.5625,285.7453,63,64,60
285.75,286.1203,68,64,60
286.125,286.4953,67,64,60
286.5,286.8703,65,64,60
287.625,287.9953,67,64,60
288.0,288.3703,65,64,60
288.375,288.7453,67,64,60
288.75,289.1203,65,64,60
289.125,289.4953,67,64,60
289.5,289.8703,65,64,60
289.875,290.2453,67,64,60
290.25,290.6203,68,64,60
290.625,290.9953,65,64,60
291.0,291.3703,63,64,60
300.375,300.7453,67,64,60
300.75,301.1203,65,64,60
301.125,301.4953,58,64,60
301.5,302.9953,63,64,60
308.25,308.9953,58,64,60
309.0,310.1203,58,64,60
312.75,313.1203,67,64,60
313.125,313.4953,68,64,60
313.5,313.8703,70,64,60
313.875,314.2453,72,64,60
314.625,314.9953,68,64,60
315.0,315.3703,67,64,60
315.375,315.7453,65,64,60
316.125,316.4953,66,64,60
316.5,316.8703,67,64,60
317.25,317.6203,65,64,60
318.75,319.1203,67,64,60
319.125,319.4953,68,64,60
319.5,319.8703,70,64,60
319.875,320.2453,72,64,60
320.625,320.9953,68,64,60
321.0,321.3703,67,64,60
321.75,322.4953,66,64,60
322.5,322.8703,67,64,60
322.875,323.2453,67,64,60
323.25,323.6203,65,64,60
323.625,323.9953,65,64,60
324.0,324.3703,63,64,60
324.75,324.9328,58,64,60
324.9375,325.1203,63,64,60
325.125,325.3078,58,64,60
325.3125,325.4953,63,64,60
325.5,325.8703,67,64,60
326.25,326.4328,63,64,60
326.4375,326.6203,67,64,60
326.625,326.8078,63,64,60
326.8125,326.9953,67,64,60
327.0,327.3703,70,64,60
327.75,327.9328,67,64,60
327.9375,328.1203,70,64,60
328.125,328.3078,67,64,60
328.3125,328.4953,70,64,60
328.5,328.8703,75,64,60
330.0,330.1828,75,64,60
330.1875,330.3703,70,64,60
330.375,330.5578,75,64,60
330.5625,330.7453,70,64,60
330.75,331.1203,67,64,60
331.5,331.6828,70,64,60
331.6875,331.8703,67,64,60
331.875,332.0578,70,64,60
332.0625,332.2453,67,64,60
332.25,332.6203,63,64,60
333.0,333.1828,67,64,60
333.1875,333.3703,63,64,60
333.375,333.5578,67,64,60
333.5625,333.7453,63,64,60
333.75,334.1203,58,64,60
334.5,334.8703,63,64,60
334.875,335.2453,65,64,60
335.25,335.6203,67,64,60
335.625,335.9953,65,64,60
336.0,336.3703,67,64,60
337.5,337.8703,67,64,60
339.0,339.3703,63,64,60
19.5,19.870312,55,64,60
19.875,20.245312,63,64,60
20.25,20.620312,63,64,60
20.625,20.995312,63,64,60
21.0,21.370312,63,64,60
21.375,21.745312,63,64,60
21.75,22.120312,58,64,60
22.125,22.495312,58,64,60
22.5,22.682812,51,64,60
22.6875,22.870312,55,64,60
22.875,23.057812,51,64,60
23.0625,23.245312,55,64,60
23.25,23.620312,58,64,60
24.0,24.182812,55,64,60
24.1875,24.370312,58,64,60
24.375,24.557812,55,64,60
24.5625,24.745312,58,64,60
24.75,25.120312,63,64,60
25.5,25.682812,58,64,60
25.6875,25.870312,63,64,60
25.875,26.057812,58,64,60
26.0625,26.245312,63,64,60
26.25,26.620312,67,64,60
27.0,27.370312,63,64,60
27.375,27.745312,58,64,60
27.75,28.120312,63,64,60
28.125,28.495312,58,64,60
28.5,28.870312,63,64,60
30.0,30.370312,63,64,60
31.5,31.870312,63,64,60
33.0,33.37031,55,64,60
33.375,33.74531,55,64,60
33.75,34.12031,55,64,60
34.125,34.49531,55,64,60
34.5,34.87031,55,64,60
36.0,36.37031,63,64,60
37.5,37.87031,63,64,60
39.0,39.37031,65,64,60
40.5,40.87031,58,64,60
50.625,50.99531,65,64,60
51.0,51.37031,65,64,60
51.375,51.74531,65,64,60
51.75,52.12031,65,64,60
52.125,52.49531,58,64,60
52.5,52.87031,65,64,60
58.5,59.99531,65,64,60
60.0,60.74531,65,64,60
60.75,61.12031,63,64,60
61.125,61.49531,65,64,60
61.5,61.87031,58,64,60
67.5,68.995316,65,64,60
69.0,69.745316,65,64,60
69.75,70.120316,63,64,60
70.125,70.495316,65,64,60
70.5,70.870316,58,64,60
70.875,71.245316,58,64,60
71.25,71.620316,46,64,60
71.625,71.995316,58,64,60
72.0,72.370316,46,64,60
72.375,72.745316,58,64,60
72.75,73.120316,46,64,60
73.125,73.495316,58,64,60
73.5,73.870316,46,64,60
73.875,74.245316,58,64,60
74.25,74.620316,46,64,60
74.625,74.995316,58,64,60
75.0,76.495316,46,64,60
76.5,77.995316,46,64,60
78.0,78.745316,46,64,60
78.75,79.120316,46,64,60
79.125,79.495316,58,64,60
79.5,79.870316,46,64,60
82.125,82.495316,58,64,60
82.5,82.870316,58,64,60
85.125,85.495316,58,64,60
85.5,85.870316,58,64,60
90.0,90.182816,58,64,60
90.1875,90.370316,63,64,60
90.375,90.557816,58,64,60
90.5625,90.745316,63,64,60
90.75,91.120316,67,64,60
91.875,92.057816,67,64,60
92.0625,92.245316,63,64,60
92.25,92.620316,58,64,60
92.625,92.807816,63,64,60
92.8125,92.995316,58,64,60
93.0,93.370316,55,64,60
93.375,93.557816,58,64,60
93.5625,93.745316,55,64,60
93.75,94.120316,51,64,60
99.75,99.932816,58,64,60
99.9375,100.120316,63,64,60
100.125,100.307816,58,64,60
100.3125,100.495316,63,64,60
100.5,100.682816,67,64,60
100.6875,100.870316,63,64,60
100.875,101.245316,58,64,60
101.25,101.432816,63,64,60
101.4375,101.620316,58,64,60
101.625,101.995316,55,64,60
102.0,102.182816,58,64,60
102.1875,102.370316,55,64,60
102.375,102.745316,51,64,60
103.125,103.495316,58,64,60
103.5,103.870316,58,64,60
103.875,104.245316,58,64,60
104.625,104.995316,58,64,60
105.0,105.370316,58,64,60
105.375,105.745316,58,64,60
106.125,106.495316,63,64,60
106.5,106.870316,63,64,60
106.875,107.245316,63,64,60
107.25,107.620316,58,64,60
107.625,107.995316,58,64,60
108.0,108.370316,55,64,60
112.875,113.245316,55,64,60
113.25,113.620316,55,64,60
113.625,113.995316,55,64,60
114.0,114.370316,55,64,60
114.375,114.745316,67,64,60
114.75,115.120316,55,64,60
115.125,115.495316,67,64,60
115.5,115.870316,55,64,60
115.875,116.245316,67,64,60
116.25,116.620316,55,64,60
116.625,116.995316,67,64,60
117.0,117.370316,55,64,60
117.375,117.745316,67,64,60
117.75,118.120316,55,64,60
118.125,118.495316,67,64,60
118.5,118.870316,55,64,60
118.875,119.245316,67,64,60
119.25,119.620316,55,64,60
119.625,119.995316,67,64,60
120.0,120.370316,55,64,60
120.375,120.745316,67,64,60
120.75,121.120316,55,64,60
121.125,121.495316,67,64,60
121.5,121.870316,55,64,60
121.875,122.245316,67,64,60
122.25,122.620316,55,64,60
122.625,122.995316,67,64,60
123.375,123.745316,67,64,60
126.75,127.120316,65,64,60
127.125,127.495316,65,64,60
127.5,127.870316,67,64,60
131.25,131.62032,67,64,60
131.625,131.99532,67,64,60
133.125,133.49532,65,64,60
150.0,151.12032,63,64,60
151.125,151.49532,65,64,60
151.5,151.87032,65,64,60
152.25,152.62032,65,64,60
153.0,153.37032,65,64,60
157.5,157.87032,63,64,60
158.25,158.62032,63,64,60
159.0,159.74532,63,64,60
169.5,169.87032,63,64,60
170.25,170.99532,63,64,60
171.0,171.37032,63,64,60
171.75,172.12032,60,64,60
172.125,172.49532,61,64,60
172.5,172.87032,63,64,60
172.875,173.24532,65,64,60
173.25,173.62032,63,64,60
173.625,173.99532,61,64,60
174.0,174.37032,60,64,60
174.75,175.12032,60,64,60
175.125,175.49532,61,64,60
175.5,175.87032,63,64,60
175.875,176.24532,65,64,60
176.25,176.62032,63,64,60
176.625,176.99532,61,64,60
177.0,177.37032,60,64,60
179.25,179.62032,51,64,60
180.0,180.37032,51,64,60
182.25,182.62032,51,64,60
183.0,183.37032,50,64,60
193.5,193.87032,63,64,60
194.25,194.62032,63,64,60
195.0,195.37032,63,64,60
195.75,196.12032,60,64,60
196.5,196.87032,63,64,60
196.875,197.24532,65,64,60
197.25,197.62032,63,64,60
197.625,197.99532,61,64,60
198.0,198.37032,60,64,60
198.75,199.12032,60,64,60
199.125,199.49532,61,64,60
199.5,199.87032,63,64,60
199.875,200.24532,65,64,60
200.25,200.62032,63,64,60
200.625,200.99532,61,64,60
201.0,201.37032,60,64,60
203.25,203.62032,51,64,60
203.625,203.99532,51,64,60
204.0,204.37032,51,64,60
206.25,206.62032,51,64,60
206.625,206.99532,51,64,60
207.0,207.37032,51,64,60
210.0,211.12032,63,64,60
211.125,211.49532,65,64,60
211.5,211.87032,65,64,60
211.875,212.24532,65,64,60
212.625,212.99532,65,64,60
213.375,213.74532,58,64,60
215.25,215.99532,58,64,60
216.0,216.74532,58,64,60
218.25,218.62032,65,64,60
219.0,219.37032,65,64,60
224.25,224.62032,63,64,60
225.0,225.37032,63,64,60
228.75,229.49532,27,64,60
229.5,230.99532,27,64,60
231.0,231.37032,27,64,60
232.875,233.24532,55,64,60
233.625,233.99532,55,64,60
234.0,234.37032,55,64,60
235.125,235.49532,58,64,60
235.5,235.87032,58,64,60
235.875,236.24532,58,64,60
236.625,236.99532,58,64,60
237.0,237.37032,58,64,60
237.375,237.74532,58,64,60
246.0,246.37032,63,64,60
246.375,246.74532,63,64,60
246.75,247.12032,63,64,60
247.125,247.49532,63,64,60
247.5,247.87032,63,64,60
247.875,248.24532,63,64,60
248.25,248.62032,58,64,60
248.625,248.99532,58,64,60
249.0,249.18282,51,64,60
249.1875,249.37032,55,64,60
249.375,249.55782,51,64,60
249.5625,249.74532,55,64,60
249.75,250.12032,58,64,60
250.5,250.68282,63,64,60
250.6875,250.87032,58,64,60
250.875,251.24532,55,64,60
251.25,251.43282,58,64,60
251.4375,251.62032,55,64,60
251.625,251.99532,51,64,60
252.0,252.18282,46,64,60
252.1875,252.37032,58,64,60
252.375,252.55782,46,64,60
252.5625,252.74532,58,64,60
252.75,253.12032,65,64,60
253.5,254.99532,58,64,60
255.75,256.1203,51,64,60
256.125,256.4953,55,64,60
256.5,256.8703,55,64,60
256.875,257.2453,58,64,60
257.25,257.6203,58,64,60
257.625,257.9953,63,64,60
258.75,259.1203,46,64,60
259.125,259.4953,58,64,60
259.5,259.8703,58,64,60
259.875,260.2453,65,64,60
260.25,260.6203,65,64,60
260.625,260.9953,58,64,60
271.125,271.4953,58,64,60
271.5,271.8703,58,64,60
271.875,272.2453,58,64,60
272.25,272.6203,58,64,60
272.625,272.9953,51,64,60
273.0,273.3703,58,64,60
274.5,275.9953,58,64,60
276.0,276.7453,58,64,60
276.75,277.1203,58,64,60
277.125,277.4953,58,64,60
277.5,277.8703,58,64,60
277.875,278.2453,70,64,60
278.25,278.9953,58,64,60
279.0,280.4953,58,64,60
280.5,281.2453,58,64,60
281.25,281.6203,68,64,60
281.625,281.9953,65,64,60
282.75,283.1203,67,64,60
283.5,284.9953,58,64,60
285.0,285.7453,58,64,60
285.75,286.1203,58,64,60
286.125,286.4953,58,64,60
286.5,286.8703,58,64,60
286.875,287.2453,70,64,60
287.25,287.9953,58,64,60
288.0,288.3703,58,64,60
288.375,288.7453,63,64,60
288.75,289.1203,58,64,60
289.125,289.4953,63,64,60
289.5,289.8703,58,64,60
289.875,290.2453,63,64,60
290.25,290.6203,65,64,60
290.625,290.9953,58,64,60
291.0,291.3703,55,64,60
300.375,300.7453,63,64,60
300.75,301.1203,58,64,60
301.125,301.4953,46,64,60
301.5,302.9953,51,64,60
308.25,308.9953,58,64,60
309.0,310.1203,58,64,60
316.125,316.4953,63,64,60
316.5,316.8703,63,64,60
317.25,317.6203,58,64,60
318.0,318.3703,55,64,60
322.125,322.4953,51,64,60
322.5,322.8703,51,64,60
322.875,323.2453,63,64,60
323.25,323.6203,58,64,60
323.625,323.9953,58,64,60
324.0,324.1828,51,64,60
324.1875,324.3703,55,64,60
324.375,324.5578,51,64,60
324.5625,324.7453,55,64,60
324.75,325.1203,58,64,60
325.5,325.6828,55,64,60
325.6875,325.8703,58,64,60
325.875,326.0578,55,64,60
326.0625,326.2453,58,64,60
326.25,326.6203,63,64,60
327.0,327.1828,58,64,60
327.1875,327.3703,63,64,60
327.375,327.5578,58,64,60
327.5625,327.7453,63,64,60
327.75,328.1203,67,64,60
328.5,328.8703,63,64,60
328.875,329.2453,58,64,60
329.25,329.6203,63,64,60
329.625,329.9953,58,64,60
330.0,330.3703,63,64,60
330.75,330.9328,67,64,60
330.9375,331.1203,63,64,60
331.125,331.3078,67,64,60
331.3125,331.4953,63,64,60
331.5,331.8703,58,64,60
332.25,332.4328,63,64,60
332.4375,332.6203,58,64,60
332.625,332.8078,63,64,60
332.8125,332.9953,58,64,60
333.0,333.3703,53,64,60
333.75,333.9328,58,64,60
333.9375,334.1203,55,64,60
334.125,334.3078,58,64,60
334.3125,334.4953,55,64,60
334.5,334.8703,51,64,60
334.875,335.2453,58,64,60
335.25,335.6203,63,64,60
335.625,335.9953,58,64,60
336.0,336.3703,63,64,60
337.5,337.8703,58,64,60
339.0,339.3703,55,64,60
6.0,6.375,75,64,68
6.75,7.125,75,64,68
7.5,7.875,75,64,68
8.625,9.0,75,64,68
9.0,9.375,74,64,68
9.375,9.75,74,64,68
10.125,10.5,74,64,68
10.5,10.875,75,64,68
10.875,11.25,75,64,68
14.625,15.0,75,64,68
15.0,15.375,74,64,68
15.375,15.75,74,64,68
16.125,16.5,74,64,68
16.5,16.875,75,64,68
16.875,17.25,75,64,68
17.625,18.0,75,64,68
18.0,18.375,75,64,68
18.375,18.75,75,64,68
18.75,19.125,74,64,68
19.125,19.5,74,64,68
19.5,19.875,75,64,68
19.875,20.625,79,64,68
20.625,21.0,79,64,68
21.0,21.1875,77,64,68
21.1875,21.375,79,64,68
21.375,21.5625,80,64,68
21.5625,21.75,82,64,68
21.75,22.125,84,64,68
22.125,22.5,74,64,68
22.5,22.875,75,64,68
24.0,24.375,70,64,68
25.5,25.875,70,64,68
27.0,27.375,79,64,68
27.375,27.75,77,64,68
27.75,28.125,79,64,68
28.125,28.5,77,64,68
28.5,28.875,79,64,68
30.0,30.375,79,64,68
31.5,31.875,79,64,68
33.0,33.375,75,64,68
33.375,33.75,74,64,68
33.75,34.125,75,64,68
34.125,34.5,74,64,68
34.5,34.875,75,64,68
36.0,36.375,75,64,68
37.5,37.875,75,64,68
38.25,38.4375,69,64,68
38.4375,38.625,72,64,68
38.625,38.8125,69,64,68
38.8125,39.0,72,64,68
39.0,39.375,75,64,68
39.75,39.9375,72,64,68
39.9375,40.125,75,64,68
40.125,40.3125,72,64,68
40.3125,40.5,75,64,68
40.5,40.875,74,64,68
40.875,41.25,77,64,68
41.25,41.625,70,64,68
41.625,42.0,74,64,68
42.0,42.375,67,64,68
42.375,42.75,70,64,68
42.75,43.125,63,64,68
43.5,43.875,75,64,68
43.875,44.25,79,64,68
44.25,44.625,72,64,68
44.625,45.0,75,64,68
45.0,45.375,69,64,68
45.375,45.75,72,64,68
45.75,46.125,65,64,68
46.5,46.875,77,64,68
46.875,47.25,81,64,68
47.25,47.625,74,64,68
47.625,48.0,77,64,68
48.0,48.375,70,64,68
48.375,48.75,74,64,68
48.75,49.125,67,64,68
49.125,49.5,70,64,68
49.5,49.875,63,64,68
49.875,50.25,79,64,68
50.25,50.625,77,64,68
50.625,51.0,75,64,68
51.0,51.375,74,64,68
51.375,51.75,72,64,68
51.75,52.125,74,64,68
52.125,52.5,76,64,68
52.5,52.875,77,64,68
58.5,60.0,77,64,68
60.0,60.75,77,64,68
60.75,61.125,75,64,68
61.125,61.5,72,64,68
61.5,61.875,70,64,68
67.125,67.5,82,64,68
67.5,67.6875,81,64,68
67.6875,67.875,82,64,68
67.875,68.0625,82,64,68
68.0625,68.25,82,64,68
68.25,68.4375,81,64,68
68.4375,68.625,82,64,68
68.625,68.8125,82,64,68
68.8125,69.0,82,64,68
69.0,69.1875,81,64,68
69.1875,69.375,82,64,68
69.375,69.5625,82,64,68
69.5625,69.75,82,64,68
69.75,70.125,84,64,68
70.125,70.5,81,64,68
70.5,70.875,82,64,68
74.25,74.625,81,64,68
74.625,75.0,81,64,68
75.0,75.375,82,64,68
78.75,79.125,81,64,68
79.125,79.5,81,64,68
79.5,79.875,82,64,68
82.125,82.5,82,64,68
82.5,82.875,72,64,68
85.125,85.5,84,64,68
85.5,85.875,74,64,68
91.5,91.875,75,64,68
91.875,92.0625,70,64,68
92.0625,92.25,75,64,68
92.25,92.625,79,64,68
92.625,92.8125,75,64,68
92.8125,93.0,79,64,68
93.0,93.375,82,64,68
94.125,94.5,75,64,68
94.5,94.875,74,64,68
94.875,95.25,74,64,68
95.625,96.0,74,64,68
96.0,96.375,75,64,68
96.375,96.75,75,64,68
100.5,100.875,75,64,68
101.25,101.625,75,64,68
102.0,102.375,75,64,68
102.75,103.125,79,64,68
103.125,103.5,79,64,68
103.5,103.875,80,64,68
103.875,104.25,80,64,68
104.625,105.0,79,64,68
105.0,105.375,80,64,68
105.375,105.75,80,64,68
106.125,106.5,79,64,68
106.5,106.875,77,64,68
106.875,107.25,77,64,68
107.25,107.625,77,64,68
107.625,108.0,77,64,68
108.0,108.1875,75,64,68
108.1875,108.375,74,64,68
108.375,108.5625,75,64,68
108.5625,108.75,77,64,68
108.75,108.9375,79,64,68
108.9375,109.125,75,64,68
109.125,109.3125,74,64,68
109.3125,109.5,72,64,68
109.5,109.6875,72,64,68
109.6875,109.875,71,64,68
109.875,110.0625,69,64,68
110.0625,110.25,67,64,68
110.25,110.4375,79,64,68
110.4375,110.625,75,64,68
110.625,110.8125,74,64,68
110.8125,111.0,72,64,68
111.0,111.1875,72,64,68
111.1875,111.375,71,64,68
111.375,111.5625,69,64,68
111.5625,111.75,67,64,68
111.75,111.9375,79,64,68
111.9375,112.125,77,64,68
112.125,112.3125,75,64,68
112.3125,112.5,74,64,68
112.5,112.6875,72,64,68
112.6875,112.875,71,64,68
112.875,113.0625,72,64,68
113.0625,113.25,74,64,68
113.25,113.625,75,64,68
113.625,114.0,72,64,68
114.0,114.375,67,64,68
117.75,118.125,77,64,68
118.125,118.5,77,64,68
118.5,118.875,79,64,68
122.25,122.625,83,64,68
122.625,123.0,83,64,68
123.0,123.375,84,64,68
126.75,127.125,82,64,68
127.125,127.5,82,64,68
127.5,127.875,84,64,68
131.25,131.625,79,64,68
131.625,132.0,79,64,68
132.0,132.375,80,64,68
132.375,132.5625,77,64,68
132.5625,132.75,77,64,68
132.75,132.9375,76,64,68
132.9375,133.125,77,64,68
133.125,133.3125,77,64,68
133.3125,133.5,77,64,68
133.5,133.6875,76,64,68
133.6875,133.875,77,64,68
133.875,134.0625,77,64,68
134.0625,134.25,77,64,68
134.25,134.625,75,64,68
134.625,135.0,74,64,68
135.0,135.375,79,64,68
135.375,135.75,77,64,68
135.75,136.125,75,64,68
136.125,136.5,74,64,68
136.5,136.875,72,64,68
136.875,137.0625,77,64,68
137.0625,137.25,77,64,68
137.25,137.4375,76,64,68
137.4375,137.625,77,64,68
137.625,137.8125,77,64,68
137.8125,138.0,77,64,68
138.0,138.1875,76,64,68
138.1875,138.375,77,64,68
138.375,138.5625,77,64,68
138.5625,138.75,77,64,68
138.75,139.125,75,64,68
139.125,139.5,74,64,68
139.5,139.875,79,64,68
139.875,140.25,77,64,68
140.25,140.625,75,64,68
140.625,141.0,74,64,68
141.0,141.375,72,64,68
216.75,216.9375,72,64,68
216.9375,217.125,77,64,68
217.125,217.3125,72,64,68
217.3125,217.5,77,64,68
217.5,217.6875,81,64,68
217.6875,217.875,77,64,68
217.875,218.25,72,64,68
218.25,218.4375,77,64,68
218.4375,218.625,72,64,68
218.625,219.0,69,64,68
219.0,219.1875,72,64,68
219.1875,219.375,69,64,68
219.375,219.75,65,64,68
224.25,224.625,72,64,68
225.0,225.375,72,64,68
227.25,228.0,79,64,68
228.0,228.375,79,64,68
228.375,228.75,80,64,68
228.75,229.125,81,64,68
229.125,229.5,82,64,68
229.5,229.875,82,64,68
232.5,232.875,75,64,68
233.25,233.625,75,64,68
234.0,234.375,75,64,68
235.125,235.5,75,64,68
235.5,235.875,74,64,68
235.875,236.25,74,64,68
236.625,237.0,74,64,68
237.0,237.375,75,64,68
237.375,237.75,75,64,68
241.125,241.5,75,64,68
241.5,241.875,74,64,68
241.875,242.25,74,64,68
242.625,243.0,74,64,68
243.0,243.375,75,64,68
243.375,243.75,75,64,68
244.125,244.5,75,64,68
244.5,244.875,75,64,68
244.875,245.25,75,64,68
245.25,245.625,74,64,68
245.625,246.0,74,64,68
246.0,246.375,75,64,68
246.375,247.125,79,64,68
247.125,247.5,79,64,68
247.5,247.6875,77,64,68
247.6875,247.875,79,64,68
247.875,248.0625,80,64,68
248.0625,248.25,82,64,68
248.25,248.625,84,64,68
248.625,249.0,74,64,68
249.0,249.375,75,64,68
249.75,250.125,70,64,68
250.125,250.5,75,64,68
250.5,250.875,75,64,68
250.875,251.25,79,64,68
251.25,251.625,79,64,68
251.625,252.0,79,64,68
252.75,253.125,70,64,68
253.125,253.875,74,64,68
253.875,254.25,77,64,68
254.25,254.625,77,64,68
254.625,255.0,80,64,68
255.0,255.375,79,64,68
255.75,256.125,79,64,68
256.125,256.5,75,64,68
256.5,256.875,75,64,68
256.875,257.25,70,64,68
257.25,257.625,70,64,68
257.625,258.0,67,64,68
258.75,259.125,80,64,68
259.125,259.5,77,64,68
259.5,259.875,77,64,68
259.875,260.625,74,64,68
260.625,261.0,70,64,68
263.25,263.4375,79,64,68
263.4375,263.625,80,64,68
263.625,263.8125,80,64,68
263.8125,264.0,80,64,68
264.0,264.375,80,64,68
266.25,266.4328,81,64,68
266.4375,266.6203,82,64,68
266.625,266.8078,82,64,68
266.8125,266.9953,82,64,68
267.0,267.375,82,64,68
267.375,267.75,86,64,68
267.75,268.125,79,64,68
268.125,268.5,82,64,68
268.5,268.875,75,64,68
268.875,269.25,79,64,68
269.25,269.625,72,64,68
269.625,270.0,75,64,68
270.0,270.375,68,64,68
270.375,270.75,84,64,68
270.75,271.125,82,64,68
271.125,271.5,80,64,68
271.5,271.875,79,64,68
271.875,272.25,77,64,68
272.25,272.625,79,64,68
272.625,273.0,81,64,68
278.625,279.0,75,64,68
279.0,279.1875,74,64,68
279.1875,279.375,75,64,68
279.375,279.5625,75,64,68
279.5625,279.75,75,64,68
279.75,279.9375,74,64,68
279.9375,280.125,75,64,68
280.125,280.3125,75,64,68
280.3125,280.5,75,64,68
280.5,280.6875,74,64,68
280.6875,280.875,75,64,68
280.875,281.0625,75,64,68
281.0625,281.25,75,64,68
281.25,281.625,77,64,68
281.625,282.0,74,64,68
282.0,282.375,75,64,68
287.625,288.0,79,64,68
288.0,288.1875,77,64,68
288.1875,288.375,79,64,68
288.375,288.5625,79,64,68
288.5625,288.75,79,64,68
288.75,288.9375,77,64,68
288.9375,289.125,79,64,68
289.125,289.3125,79,64,68
289.3125,289.5,79,64,68
289.5,289.6875,77,64,68
289.6875,289.875,79,64,68
289.875,290.0625,79,64,68
290.0625,290.25,79,64,68
290.25,290.625,80,64,68
290.625,291.0,77,64,68
291.0,291.375,75,64,68
293.25,293.4375,79,64,68
293.4375,293.625,80,64,68
293.625,293.8125,80,64,68
293.8125,294.0,80,64,68
296.25,296.4328,81,64,68
296.4375,296.6203,82,64,68
296.625,296.8078,82,64,68
296.8125,296.9953,82,64,68
297.0,297.375,82,64,68
300.375,300.75,84,64,68
300.75,301.125,77,64,68
301.125,301.5,82,64,68
301.5,303.0,81,64,68
310.125,310.5,79,64,68
310.5,310.875,79,64,68
310.875,311.625,77,64,68
311.625,312.0,76,64,68
312.0,312.375,79,64,68
312.375,312.75,77,64,68
312.75,313.125,79,64,68
313.125,313.5,80,64,68
313.5,313.875,82,64,68
313.875,314.25,84,64,68
314.25,314.625,72,64,68
314.625,315.0,80,64,68
315.0,315.375,79,64,68
315.375,315.75,77,64,68
315.75,316.5,75,64,68
316.5,316.875,75,64,68
316.875,317.625,75,64,68
317.625,318.0,74,64,68
318.0,318.375,77,64,68
318.375,318.75,75,64,68
318.75,319.125,79,64,68
319.125,319.5,80,64,68
319.5,319.875,82,64,68
319.875,320.25,84,64,68
320.25,320.625,72,64,68
320.625,321.0,80,64,68
321.0,321.375,79,64,68
321.375,321.75,77,64,68
321.75,322.5,75,64,68
322.5,322.6875,75,64,68
322.6875,322.875,77,64,68
322.875,323.0625,79,64,68
323.0625,323.25,80,64,68
323.25,323.4375,82,64,68
323.4375,323.625,80,64,68
323.625,323.8125,79,64,68
323.8125,324.0,77,64,68
324.0,324.375,75,64,68
325.5,327.0,79,64,68
327.0,328.5,79,64,68
328.5,328.875,79,64,68
328.875,329.25,77,64,68
329.25,329.625,79,64,68
329.625,330.0,77,64,68
330.0,331.5,79,64,68
331.5,333.0,79,64,68
333.0,334.5,79,64,68
334.5,334.875,79,64,68
334.875,335.25,77,64,68
335.25,335.625,79,64,68
335.625,336.0,77,64,68
336.0,336.375,79,64,68
337.5,337.875,82,64,68
339.0,339.375,79,64,68
6.0,6.375,67,64,68
6.75,7.125,67,64,68
7.5,7.875,67,64,68
8.625,9.0,67,64,68
9.0,9.375,68,64,68
9.375,9.75,68,64,68
10.125,10.5,68,64,68
10.5,10.875,67,64,68
10.875,11.25,67,64,68
14.625,15.0,67,64,68
15.0,15.375,68,64,68
15.375,15.75,68,64,68
16.125,16.5,68,64,68
16.5,16.875,67,64,68
16.875,17.25,67,64,68
17.625,18.0,67,64,68
18.0,18.375,65,64,68
18.375,18.75,65,64,68
18.75,19.125,65,64,68
19.125,19.5,65,64,68
19.5,19.875,67,64,68
19.875,20.625,75,64,68
20.625,21.0,75,64,68
21.0,21.1875,77,64,68
21.1875,21.375,79,64,68
21.375,21.5625,80,64,68
21.5625,21.75,82,64,68
21.75,22.125,84,64,68
22.125,22.5,74,64,68
22.5,22.875,75,64,68
24.0,24.375,67,64,68
25.5,25.875,67,64,68
27.0,27.375,75,64,68
27.375,27.75,74,64,68
27.75,28.125,75,64,68
28.125,28.5,74,64,68
28.5,28.875,75,64,68
30.0,30.375,75,64,68
31.5,31.875,75,64,68
33.0,33.375,72,64,68
33.375,33.75,71,64,68
33.75,34.125,72,64,68
34.125,34.5,71,64,68
34.5,34.875,72,64,68
36.0,36.375,72,64,68
37.5,37.875,72,64,68
39.0,39.375,69,64,68
42.75,42.9375,74,64,68
42.9375,43.125,75,64,68
43.125,43.3125,75,64,68
43.3125,43.5,75,64,68
43.5,43.875,75,64,68
45.75,45.9375,76,64,68
45.9375,46.125,77,64,68
46.125,46.3125,77,64,68
46.3125,46.5,77,64,68
46.5,46.875,77,64,68
49.125,49.5,82,64,68
49.5,49.875,75,64,68
49.875,50.25,79,64,68
50.25,50.625,77,64,68
50.625,51.0,75,64,68
51.0,51.37031,74,64,68
51.375,51.74531,72,64,68
51.75,52.12031,74,64,68
52.125,52.49531,70,64,68
52.5,52.875,69,64,68
53.625,54.0,74,64,68
54.0,54.375,75,64,68
54.375,54.75,74,64,68
54.75,55.125,75,64,68
55.125,55.5,74,64,68
55.5,55.875,75,64,68
55.875,56.25,74,64,68
56.25,56.625,72,64,68
56.625,57.0,70,64,68
57.0,57.375,69,64,68
61.5,61.875,70,64,68
62.625,63.0,74,64,68
63.0,63.375,75,64,68
63.375,63.75,74,64,68
63.75,64.125,75,64,68
64.125,64.5,74,64,68
64.5,64.875,75,64,68
64.875,65.25,74,64,68
65.25,65.625,72,64,68
65.625,66.0,70,64,68
66.0,66.375,69,64,68
66.375,66.75,77,64,68
66.75,67.5,65,64,68
67.5,67.875,72,64,68
67.875,68.25,74,64,68
68.25,68.625,72,64,68
68.625,69.0,74,64,68
69.0,69.375,72,64,68
69.375,69.75,77,64,68
69.75,70.125,75,64,68
70.125,70.5,72,64,68
70.5,70.875,70,64,68
70.875,71.25,77,64,68
71.25,71.625,75,64,68
71.625,72.0,75,64,68
72.0,72.375,74,64,68
72.375,72.75,74,64,68
72.75,73.125,72,64,68
73.125,73.5,72,64,68
73.5,73.870316,70,64,68
73.875,74.245316,70,64,68
74.25,74.620316,69,64,68
74.625,74.995316,69,64,68
75.0,75.375,70,64,68
77.25,77.625,67,64,68
77.625,78.0,67,64,68
78.0,78.375,65,64,68
78.375,78.75,65,64,68
78.75,79.125,63,64,68
79.125,79.5,63,64,68
79.5,79.875,65,64,68
82.125,82.5,82,64,68
82.5,82.875,72,64,68
85.125,85.5,84,64,68
85.5,85.875,74,64,68
88.125,88.5,79,64,68
88.5,88.875,77,64,68
88.875,89.25,75,64,68
89.25,89.625,74,64,68
89.625,90.0,72,64,68
90.0,90.375,70,64,68
90.375,90.75,68,64,68
90.75,91.125,67,64,68
91.125,91.5,65,64,68
91.5,91.875,75,64,68
92.25,92.625,75,64,68
93.0,93.375,75,64,68
94.125,94.5,67,64,68
94.5,94.875,68,64,68
94.875,95.25,68,64,68
95.625,96.0,68,64,68
96.0,96.375,67,64,68
96.375,96.75,67,64,68
100.5,100.875,67,64,68
101.25,101.625,67,64,68
102.0,102.375,67,64,68
102.75,103.125,75,64,68
103.125,103.5,75,64,68
103.5,103.875,74,64,68
103.875,104.25,74,64,68
104.625,105.0,75,64,68
105.0,105.375,74,64,68
105.375,105.75,74,64,68
106.125,106.5,75,64,68
106.5,106.875,75,64,68
106.875,107.25,75,64,68
107.25,107.625,74,64,68
107.625,108.0,74,64,68
108.0,108.375,75,64,68
109.125,109.5,79,64,68
109.5,109.875,79,64,68
109.875,110.25,79,64,68
110.625,111.0,79,64,68
111.0,111.375,79,64,68
111.375,111.75,79,64,68
111.75,111.9375,79,64,68
111.9375,112.125,77,64,68
112.125,112.3125,75,64,68
112.3125,112.5,74,64,68
112.5,112.6875,72,64,68
112.6875,112.875,71,64,68
112.875,113.0625,72,64,68
113.0625,113.25,74,64,68
113.25,113.625,75,64,68
113.625,114.0,72,64,68
114.0,114.375,67,64,68
114.375,114.75,77,64,68
114.75,115.125,75,64,68
115.125,115.5,75,64,68
115.5,115.875,74,64,68
115.875,116.25,74,64,68
116.25,116.625,72,64,68
116.625,117.0,72,64,68
117.0,117.375,71,64,68
117.375,117.75,71,64,68
117.75,118.125,69,64,68
118.125,118.5,69,64,68
118.5,118.875,67,64,68
118.875,119.25,77,64,68
119.25,119.625,75,64,68
119.625,120.0,75,64,68
120.0,120.375,74,64,68
120.375,120.75,74,64,68
120.75,121.125,72,64,68
121.125,121.5,72,64,68
121.5,121.875,71,64,68
121.875,122.25,71,64,68
122.25,122.625,77,64,68
122.625,123.0,77,64,68
123.0,123.375,75,64,68
126.75,127.125,80,64,68
127.125,127.5,80,64,68
127.5,127.875,79,64,68
129.0,131.25,72,64,68
131.25,131.625,76,64,68
131.625,132.0,76,64,68
132.0,132.375,77,64,68
132.375,132.75,68,64,68
132.75,133.125,67,64,68
133.125,133.5,68,64,68
133.5,133.875,67,64,68
133.875,134.25,68,64,68
134.25,134.625,67,64,68
134.625,135.0,65,64,68
135.0,135.375,63,64,68
135.375,135.75,65,64,68
135.75,136.125,67,64,68
136.125,136.5,67,64,68
136.5,136.875,72,64,68
136.875,137.0625,72,64,68
137.0625,137.25,72,64,68
137.25,137.4375,72,64,68
137.4375,137.625,72,64,68
137.625,137.8125,72,64,68
137.8125,138.0,72,64,68
138.0,138.1875,72,64,68
138.1875,138.375,72,64,68
138.375,138.5625,72,64,68
138.5625,138.75,72,64,68
138.75,138.9375,72,64,68
138.9375,139.125,72,64,68
139.125,139.3125,72,64,68
139.3125,139.5,72,64,68
139.5,139.875,72,64,68
139.875,140.25,72,64,68
140.25,140.625,72,64,68
140.625,141.0,67,64,68
141.0,141.375,67,64,68
218.25,218.625,72,64,68
219.0,219.375,72,64,68
224.25,224.625,72,64,68
225.0,225.375,72,64,68
225.75,226.875,72,64,68
226.875,227.25,73,64,68
227.25,227.625,74,64,68
227.625,228.0,75,64,68
228.0,228.375,75,64,68
228.375,228.75,77,64,68
228.75,229.125,78,64,68
229.125,229.5,79,64,68
229.5,229.875,79,64,68
232.5,232.875,67,64,68
233.25,233.625,67,64,68
234.0,234.375,67,64,68
235.125,235.5,67,64,68
235.5,235.875,68,64,68
235.875,236.25,68,64,68
236.625,237.0,68,64,68
237.0,237.375,67,64,68
237.375,237.75,67,64,68
241.125,241.5,67,64,68
241.5,241.875,68,64,68
241.875,242.25,68,64,68
242.625,243.0,68,64,68
243.0,243.375,67,64,68
243.375,243.75,67,64,68
244.125,244.5,67,64,68
244.5,244.875,65,64,68
244.875,245.25,65,64,68
245.25,245.625,65,64,68
245.625,246.0,65,64,68
246.0,246.375,67,64,68
246.375,247.125,75,64,68
247.125,247.5,75,64,68
247.5,247.6875,77,64,68
247.6875,247.875,79,64,68
247.875,248.0625,80,64,68
248.0625,248.25,82,64,68
248.25,248.625,84,64,68
248.625,249.0,74,64,68
249.0,249.375,67,64,68
249.75,250.125,67,64,68
250.125,250.5,70,64,68
250.5,250.875,70,64,68
250.875,251.25,75,64,68
251.25,251.625,75,64,68
251.625,252.0,79,64,68
252.75,253.125,65,64,68
253.125,253.5,70,64,68
253.5,253.875,70,64,68
253.875,254.25,74,64,68
254.25,254.625,74,64,68
254.625,255.0,77,64,68
255.0,255.375,75,64,68
255.75,256.125,75,64,68
256.125,256.5,70,64,68
256.5,256.875,70,64,68
256.875,257.25,67,64,68
257.25,257.625,67,64,68
257.625,258.0,63,64,68
258.75,259.125,77,64,68
259.125,259.5,74,64,68
259.5,259.875,74,64,68
259.875,260.25,70,64,68
260.25,260.625,70,64,68
260.625,261.0,70,64,68
261.0,261.375,67,64,68
261.375,261.75,70,64,68
262.125,262.5,67,64,68
262.875,263.25,63,64,68
264.375,264.75,72,64,68
265.125,265.5,68,64,68
265.875,266.25,65,64,68
267.375,267.75,74,64,68
268.125,268.5,70,64,68
268.875,269.25,67,64,68
269.625,270.0,63,64,68
270.375,270.75,72,64,68
270.75,271.125,70,64,68
271.125,271.5,68,64,68
271.5,271.875,67,64,68
271.875,272.625,70,64,68
272.625,273.0,75,64,68
273.0,273.375,74,64,68
273.375,273.75,82,64,68
273.75,274.5,70,64,68
274.5,276.0,70,64,68
276.0,276.75,70,64,68
276.75,277.125,70,64,68
277.125,277.5,70,64,68
277.5,277.875,70,64,68
282.375,282.75,82,64,68
282.75,283.5,70,64,68
283.5,285.0,70,64,68
285.0,285.75,70,64,68
285.75,286.125,70,64,68
286.125,286.5,70,64,68
286.5,286.875,70,64,68
287.625,288.0,75,64,68
288.0,288.1875,74,64,68
288.1875,288.375,75,64,68
288.375,288.5625,75,64,68
288.5625,288.75,75,64,68
288.75,288.9375,74,64,68
288.9375,289.125,75,64,68
289.125,289.3125,75,64,68
289.3125,289.5,75,64,68
289.5,289.6875,74,64,68
289.6875,289.875,75,64,68
289.875,290.0625,75,64,68
290.0625,290.25,75,64,68
290.25,290.625,72,64,68
290.625,291.0,74,64,68
291.0,291.375,75,64,68
291.375,291.75,82,64,68
291.75,292.125,75,64,68
292.125,292.5,79,64,68
292.5,292.875,72,64,68
292.875,293.25,75,64,68
293.25,293.625,68,64,68
294.0,294.375,80,64,68
294.375,294.75,84,64,68
294.75,295.125,77,64,68
295.125,295.5,80,64,68
295.5,295.875,74,64,68
295.875,296.25,77,64,68
296.25,296.625,70,64,68
297.0,297.3703,80,64,68
297.375,297.7453,86,64,68
297.75,298.1203,79,64,68
298.125,298.4953,82,64,68
298.5,298.875,75,64,68
298.875,299.25,79,64,68
299.25,299.625,72,64,68
299.625,300.0,75,64,68
300.0,300.375,68,64,68
300.375,300.75,72,64,68
300.75,301.125,70,64,68
301.125,301.5,74,64,68
301.5,303.0,75,64,68
310.125,310.5,82,64,68
310.5,310.875,80,64,68
311.25,311.625,79,64,68
312.0,312.375,82,64,68
312.375,312.75,80,64,68
316.125,316.5,78,64,68
316.5,316.875,79,64,68
317.25,317.625,80,64,68
318.0,318.375,79,64,68
318.75,319.125,79,64,68
319.125,319.5,80,64,68
319.5,319.875,82,64,68
319.875,320.25,84,64,68
320.25,320.625,72,64,68
320.625,321.0,80,64,68
321.0,321.375,79,64,68
321.375,321.75,77,64,68
322.125,322.5,78,64,68
322.5,322.875,79,64,68
322.875,323.25,79,64,68
323.25,323.625,77,64,68
323.625,324.0,77,64,68
324.0,324.375,75,64,68
325.5,327.0,75,64,68
327.0,328.5,75,64,68
328.5,328.875,75,64,68
328.875,329.25,74,64,68
329.25,329.625,75,64,68
329.625,330.0,74,64,68
330.0,331.5,75,64,68
331.5,333.0,75,64,68
333.0,334.5,75,64,68
334.5,334.875,75,64,68
334.875,335.25,74,64,68
335.25,335.625,75,64,68
335.625,336.0,74,64,68
336.0,336.375,75,64,68
337.5,337.875,74,64,68
339.0,339.375,75,64,68
5.25,5.4375,70,64,71
5.4375,5.625,75,64,71
5.625,5.8125,70,64,71
5.8125,6.0,75,64,71
6.0,6.1875,79,64,71
6.1875,6.375,75,64,71
6.375,6.75,70,64,71
6.75,6.9375,75,64,71
6.9375,7.125,70,64,71
7.125,7.5,67,64,71
7.5,7.6875,70,64,71
7.6875,7.875,67,64,71
7.875,8.25,63,64,71
8.25,8.4375,63,64,71
8.4375,8.625,67,64,71
8.625,8.8125,65,64,71
8.8125,9.0,63,64,71
9.0,9.1875,62,64,71
9.1875,9.375,63,64,71
9.375,9.5625,65,64,71
9.5625,9.75,67,64,71
9.75,9.9375,68,64,71
9.9375,10.125,70,64,71
10.125,10.3125,72,64,71
10.3125,10.5,74,64,71
10.5,10.6875,75,64,71
10.6875,10.875,77,64,71
10.875,11.0625,79,64,71
11.0625,11.25,80,64,71
11.25,11.4375,82,64,71
11.4375,11.625,80,64,71
11.625,11.8125,79,64,71
11.8125,12.0,77,64,71
12.0,12.1875,75,64,71
12.1875,12.375,74,64,71
12.375,12.5625,72,64,71
12.5625,12.75,71,64,71
12.75,13.125,72,64,71
13.125,13.5,77,64,71
13.5,13.875,75,64,71
13.875,14.25,74,64,71
14.25,14.4375,75,64,71
14.4375,14.625,79,64,71
14.625,14.8125,77,64,71
14.8125,15.0,75,64,71
15.0,15.1875,74,64,71
15.1875,15.375,72,64,71
15.375,15.5625,70,64,71
15.5625,15.75,68,64,71
15.75,15.9375,67,64,71
15.9375,16.125,65,64,71
16.125,16.3125,63,64,71
16.3125,16.5,62,64,71
16.5,16.6875,63,64,71
16.6875,16.875,65,64,71
16.875,17.0625,67,64,71
17.0625,17.25,68,64,71
17.25,17.4375,70,64,71
17.4375,17.625,72,64,71
17.625,18.0,74,64,71
18.0,18.1875,77,64,71
18.1875,18.375,79,64,71
18.375,18.5625,80,64,71
18.5625,18.75,82,64,71
18.75,19.125,84,64,71
19.125,19.5,74,64,71
19.5,19.875,75,64,71
19.875,20.625,70,64,71
20.625,21.0,70,64,71
21.0,21.375,72,64,71
21.375,21.75,72,64,71
21.75,22.125,72,64,71
22.125,22.5,74,64,71
22.5,22.875,75,64,71
24.0,24.375,63,64,71
27.0,27.375,70,64,71
27.375,27.75,70,64,71
27.75,28.125,70,64,71
28.125,28.5,70,64,71
28.5,28.6875,79,64,71
28.6875,28.875,75,64,71
28.875,29.0625,79,64,71
29.0625,29.25,75,64,71
29.25,29.625,72,64,71
30.0,30.1875,75,64,71
30.1875,30.375,72,64,71
30.375,30.5625,75,64,71
30.5625,30.75,72,64,71
30.75,31.125,67,64,71
31.5,31.6875,72,64,71
31.6875,31.875,67,64,71
31.875,32.0625,72,64,71
32.0625,32.25,67,64,71
32.25,32.625,63,64,71
34.5,34.6875,79,64,71
34.6875,34.875,75,64,71
34.875,35.0625,79,64,71
35.0625,35.25,75,64,71
35.25,35.625,72,64,71
36.0,36.1875,75,64,71
36.1875,36.375,72,64,71
36.375,36.5625,75,64,71
36.5625,36.75,72,64,71
36.75,37.125,67,64,71
37.5,37.6875,75,64,71
37.6875,37.875,72,64,71
37.875,38.0625,75,64,71
38.0625,38.25,72,64,71
38.25,38.625,69,64,71
39.0,39.1875,72,64,71
39.1875,39.375,69,64,71
39.375,39.5625,72,64,71
39.5625,39.75,69,64,71
39.75,40.125,65,64,71
49.5,49.875,75,64,71
49.875,50.25,79,64,71
50.25,50.625,77,64,71
50.625,51.0,75,64,71
51.0,51.375,74,64,71
51.375,51.75,72,64,71
51.75,52.125,74,64,71
52.125,52.5,76,64,71
52.5,52.875,77,64,71
58.125,58.5,70,64,71
58.5,58.6875,69,64,71
58.6875,58.875,70,64,71
58.875,59.0625,70,64,71
59.0625,59.25,70,64,71
59.25,59.4375,69,64,71
59.4375,59.625,70,64,71
59.625,59.8125,70,64,71
59.8125,60.0,70,64,71
60.0,60.1875,69,64,71
60.1875,60.375,70,64,71
60.375,60.5625,70,64,71
60.5625,60.75,70,64,71
60.75,61.125,72,64,71
61.125,61.5,69,64,71
61.5,61.875,70,64,71
67.125,67.5,70,64,71
67.5,67.6875,69,64,71
67.6875,67.875,70,64,71
67.875,68.0625,70,64,71
68.0625,68.25,70,64,71
68.25,68.4375,69,64,71
68.4375,68.625,70,64,71
68.625,68.8125,70,64,71
68.8125,69.0,70,64,71
69.0,69.1875,69,64,71
69.1875,69.375,70,64,71
69.375,69.5625,70,64,71
69.5625,69.75,70,64,71
69.75,70.125,72,64,71
70.125,70.5,69,64,71
70.5,70.875,70,64,71
72.75,73.125,67,64,71
73.125,73.5,67,64,71
73.5,73.875,65,64,71
73.875,74.25,65,64,71
74.25,74.625,63,64,71
74.625,75.0,63,64,71
75.0,75.375,62,64,71
75.375,75.75,77,64,71
75.75,76.125,75,64,71
76.125,76.5,75,64,71
76.5,76.875,74,64,71
76.875,77.25,74,64,71
77.25,77.625,72,64,71
77.625,78.0,72,64,71
78.0,78.375,70,64,71
78.375,78.75,70,64,71
78.75,79.125,69,64,71
79.125,79.5,69,64,71
79.5,79.875,70,64,71
82.125,82.5,70,64,71
82.5,82.875,60,64,71
85.125,85.5,72,64,71
85.5,85.875,62,64,71
90.75,90.9375,70,64,71
90.9375,91.125,75,64,71
91.125,91.3125,70,64,71
91.3125,91.5,75,64,71
91.5,91.6875,79,64,71
91.6875,91.875,75,64,71
91.875,92.25,70,64,71
92.25,92.4375,75,64,71
92.4375,92.625,70,64,71
92.625,93.0,67,64,71
93.0,93.1875,70,64,71
93.1875,93.375,67,64,71
93.375,93.75,63,64,71
93.75,93.9375,63,64,71
93.9375,94.125,67,64,71
94.125,94.3125,65,64,71
94.3125,94.5,63,64,71
94.5,94.6875,62,64,71
94.6875,94.875,63,64,71
94.875,95.0625,65,64,71
95.0625,95.25,67,64,71
95.25,95.4375,68,64,71
95.4375,95.625,70,64,71
95.625,95.8125,72,64,71
95.8125,96.0,74,64,71
96.0,96.1875,75,64,71
96.1875,96.375,77,64,71
96.375,96.5625,79,64,71
96.5625,96.75,80,64,71
96.75,96.9375,82,64,71
96.9375,97.125,80,64,71
97.125,97.3125,79,64,71
97.3125,97.5,77,64,71
97.5,97.6875,75,64,71
97.6875,97.875,74,64,71
97.875,98.0625,72,64,71
98.0625,98.25,71,64,71
98.25,98.625,72,64,71
98.625,99.0,77,64,71
99.0,99.375,75,64,71
99.375,99.75,74,64,71
100.125,100.5,70,64,71
100.5,100.875,70,64,71
100.875,101.25,75,64,71
101.25,101.625,75,64,71
101.625,102.0,79,64,71
102.0,102.375,79,64,71
102.375,102.75,82,64,71
102.75,102.9375,82,64,71
102.9375,103.125,79,64,71
103.125,103.3125,77,64,71
103.3125,103.5,75,64,71
103.5,103.6875,75,64,71
103.6875,103.875,74,64,71
103.875,104.0625,72,64,71
104.0625,104.25,70,64,71
104.25,104.4375,82,64,71
104.4375,104.625,79,64,71
104.625,104.8125,77,64,71
104.8125,105.0,75,64,71
105.0,105.1875,75,64,71
105.1875,105.375,74,64,71
105.375,105.5625,72,64,71
105.5625,105.75,70,64,71
105.75,105.9375,75,64,71
105.9375,106.125,77,64,71
106.125,106.3125,79,64,71
106.3125,106.5,80,64,71
106.5,106.6875,82,64,71
106.6875,106.875,82,64,71
106.875,107.0625,84,64,71
107.0625,107.25,80,64,71
107.25,107.4375,79,64,71
107.4375,107.625,77,64,71
107.625,107.8125,75,64,71
107.8125,108.0,74,64,71
108.0,108.375,75,64,71
111.75,111.9375,79,64,71
111.9375,112.125,77,64,71
112.125,112.3125,75,64,71
112.3125,112.5,74,64,71
112.5,112.6875,72,64,71
112.6875,112.875,71,64,71
112.875,113.0625,72,64,71
113.0625,113.25,74,64,71
113.25,113.625,75,64,71
113.625,114.0,72,64,71
114.0,114.375,67,64,71
117.75,118.125,72,64,71
118.125,118.5,72,64,71
118.5,118.875,71,64,71
122.25,122.625,71,64,71
122.625,123.0,71,64,71
123.0,123.375,72,64,71
123.375,123.75,79,64,71
123.75,124.125,77,64,71
124.125,124.5,77,64,71
124.5,124.875,75,64,71
124.875,125.25,75,64,71
125.25,125.625,74,64,71
125.625,126.0,74,64,71
126.0,126.375,72,64,71
126.375,126.75,72,64,71
126.75,127.125,71,64,71
127.125,127.5,71,64,71
127.5,127.875,72,64,71
127.875,128.25,79,64,71
128.25,128.625,77,64,71
128.625,129.0,77,64,71
129.0,129.375,75,64,71
129.375,129.75,75,64,71
129.75,130.125,74,64,71
130.125,130.5,74,64,71
130.5,130.875,72,64,71
130.875,131.25,72,64,71
131.25,131.625,70,64,71
131.625,132.0,70,64,71
132.0,132.375,68,64,71
132.375,132.75,72,64,71
132.75,133.125,72,64,71
133.125,133.5,72,64,71
133.5,133.875,72,64,71
133.875,134.25,72,64,71
134.25,134.625,72,64,71
134.625,135.0,72,64,71
135.0,135.375,72,64,71
135.375,135.75,74,64,71
135.75,136.125,72,64,71
136.125,136.5,70,64,71
136.5,136.875,72,64,71
139.5,139.875,72,64,71
139.875,140.25,68,64,71
140.25,140.625,67,64,71
140.625,141.0,67,64,71
141.0,142.5,72,64,71
142.5,143.25,73,64,71
143.25,144.0,74,64,71
144.0,145.125,75,64,71
145.125,145.5,74,64,71
145.5,145.875,75,64,71
145.875,146.25,74,64,71
146.25,146.625,75,64,71
146.625,147.0,74,64,71
147.0,147.375,75,64,71
147.375,147.75,74,64,71
147.75,148.125,75,64,71
148.125,148.5,77,64,71
148.5,148.875,79,64,71
148.875,149.25,80,64,71
149.25,149.625,72,64,71
149.625,150.0,77,64,71
150.0,150.375,75,64,71
150.375,150.75,73,64,71
150.75,151.5,72,64,71
151.5,151.875,72,64,71
151.875,152.625,70,64,71
152.625,153.0,69,64,71
153.0,153.375,72,64,71
153.375,153.75,70,64,71
153.75,154.125,72,64,71
154.125,154.5,73,64,71
154.5,154.875,75,64,71
154.875,155.25,77,64,71
155.25,155.625,65,64,71
155.625,156.0,73,64,71
156.0,156.375,72,64,71
156.375,156.75,70,64,71
156.75,157.5,68,64,71
157.5,157.875,68,64,71
157.875,158.625,68,64,71
158.625,159.0,67,64,71
159.0,159.375,70,64,71
159.375,159.75,68,64,71
160.875,161.25,80,64,71
161.25,161.625,72,64,71
161.625,162.0,77,64,71
162.0,162.375,75,64,71
162.375,162.75,73,64,71
162.75,163.125,72,64,71
163.125,163.5,75,64,71
163.5,163.875,75,64,71
163.875,164.625,73,64,71
164.625,165.0,72,64,71
165.0,165.375,75,64,71
165.375,165.75,73,64,71
165.75,166.125,72,64,71
166.125,166.5,73,64,71
166.5,166.87032,75,64,71
166.875,167.24532,77,64,71
167.25,167.62032,65,64,71
167.625,167.99532,73,64,71
168.0,168.375,72,64,71
168.375,168.75,70,64,71
168.75,169.5,68,64,71
169.5,169.875,68,64,71
169.875,170.25,72,64,71
170.25,170.625,73,64,71
170.625,171.0,70,64,71
171.0,171.375,68,64,71
181.5,183.0,75,64,71
183.0,183.75,75,64,71
183.75,184.125,75,64,71
184.125,184.5,77,64,71
184.5,184.875,79,64,71
184.875,185.25,80,64,71
185.25,185.625,72,64,71
185.625,186.0,77,64,71
186.0,186.375,75,64,71
186.375,186.75,73,64,71
186.75,187.5,72,64,71
187.5,187.875,72,64,71
187.875,188.625,70,64,71
188.625,189.0,69,64,71
189.0,189.375,72,64,71
189.375,189.75,70,64,71
190.875,191.25,77,64,71
191.25,191.625,65,64,71
191.625,192.0,73,64,71
192.0,192.375,72,64,71
192.375,192.75,70,64,71
192.75,193.5,68,64,71
193.5,193.875,68,64,71
193.875,194.25,72,64,71
194.25,194.625,73,64,71
194.625,195.0,70,64,71
195.0,195.375,68,64,71
205.5,207.0,75,64,71
207.0,207.75,75,64,71
207.75,208.125,75,64,71
208.125,208.5,77,64,71
208.5,208.875,79,64,71
208.875,209.25,80,64,71
209.25,209.625,72,64,71
209.625,210.0,77,64,71
210.0,210.375,75,64,71
210.375,210.75,73,64,71
210.75,211.875,72,64,71
211.875,212.625,70,64,71
212.625,213.0,69,64,71
213.0,213.375,72,64,71
213.375,213.75,70,64,71
213.75,214.125,72,64,71
214.125,214.5,73,64,71
214.5,214.875,75,64,71
214.875,215.25,77,64,71
215.25,215.625,65,64,71
215.625,216.0,73,64,71
216.0,216.75,72,64,71
222.75,222.9375,75,64,71
222.9375,223.125,80,64,71
223.125,223.3125,75,64,71
223.3125,223.5,80,64,71
223.5,223.6875,84,64,71
223.6875,223.875,80,64,71
223.875,224.25,75,64,71
224.25,224.4375,80,64,71
224.4375,224.625,75,64,71
224.625,225.0,72,64,71
225.0,225.1875,75,64,71
225.1875,225.375,72,64,71
225.375,225.75,68,64,71
231.75,231.9375,70,64,71
231.9375,232.125,75,64,71
232.125,232.3125,70,64,71
232.3125,232.5,75,64,71
232.5,232.6875,79,64,71
232.6875,232.875,75,64,71
232.875,233.25,70,64,71
233.25,233.4375,75,64,71
233.4375,233.625,70,64,71
233.625,234.0,67,64,71
234.0,234.1875,70,64,71
234.1875,234.375,67,64,71
234.375,234.75,63,64,71
234.75,234.9375,63,64,71
234.9375,235.125,67,64,71
235.125,235.3125,65,64,71
235.3125,235.5,63,64,71
235.5,235.6875,62,64,71
235.6875,235.875,63,64,71
235.875,236.0625,65,64,71
236.0625,236.25,67,64,71
236.25,236.4375,68,64,71
236.4375,236.625,70,64,71
236.625,236.8125,72,64,71
236.8125,237.0,74,64,71
237.0,237.18282,75,64,71
237.1875,237.37032,77,64,71
237.375,237.55782,79,64,71
237.5625,237.74532,80,64,71
237.75,237.93282,82,64,71
237.9375,238.125,80,64,71
238.125,238.3125,79,64,71
238.3125,238.5,77,64,71
238.5,238.68282,75,64,71
238.6875,238.87032,74,64,71
238.875,239.05782,72,64,71
239.0625,239.24532,71,64,71
239.25,239.62032,72,64,71
239.625,239.99532,77,64,71
240.0,240.375,75,64,71
240.375,240.75,74,64,71
240.75,240.9375,75,64,71
240.9375,241.125,79,64,71
241.125,241.3125,77,64,71
241.3125,241.5,75,64,71
241.5,241.6875,74,64,71
241.6875,241.875,72,64,71
241.875,242.0625,70,64,71
242.0625,242.25,68,64,71
242.25,242.4375,67,64,71
242.4375,242.625,65,64,71
242.625,242.8125,63,64,71
242.8125,243.0,62,64,71
243.0,243.1875,63,64,71
243.1875,243.375,65,64,71
243.375,243.5625,67,64,71
243.5625,243.75,68,64,71
243.75,243.9375,70,64,71
243.9375,244.125,72,64,71
244.125,244.3125,74,64,71
244.3125,244.5,75,64,71
244.5,244.6875,77,64,71
244.6875,244.875,79,64,71
244.875,245.0625,80,64,71
245.0625,245.25,82,64,71
245.25,245.625,84,64,71
245.625,246.0,74,64,71
246.0,246.375,75,64,71
246.375,247.125,70,64,71
247.125,247.5,70,64,71
247.5,247.875,72,64,71
247.875,248.25,72,64,71
248.25,248.625,72,64,71
248.625,249.0,74,64,71
249.0,249.375,75,64,71
255.75,255.9375,82,64,71
255.9375,256.125,79,64,71
256.125,256.5,75,64,71
256.5,256.6875,79,64,71
256.6875,256.875,75,64,71
256.875,257.25,70,64,71
257.25,257.4375,75,64,71
257.4375,257.625,70,64,71
257.625,258.0,67,64,71
258.75,258.9375,82,64,71
258.9375,259.125,80,64,71
259.125,259.5,77,64,71
259.5,259.6875,80,64,71
259.6875,259.875,77,64,71
259.875,260.25,74,64,71
260.25,260.4375,77,64,71
260.4375,260.625,74,64,71
260.625,261.0,70,64,71
261.0,261.375,79,64,71
261.375,261.75,82,64,71
261.75,262.125,75,64,71
262.125,262.5,79,64,71
262.5,262.875,72,64,71
262.875,263.25,75,64,71
263.25,263.625,68,64,71
264.0,264.375,80,64,71
264.375,264.75,84,64,71
264.75,265.125,77,64,71
265.125,265.5,80,64,71
265.5,265.875,74,64,71
265.875,266.25,77,64,71
266.25,266.625,70,64,71
268.5,268.875,75,64,71
268.875,269.25,79,64,71
269.25,269.625,72,64,71
269.625,270.0,75,64,71
270.0,270.375,68,64,71
270.375,270.75,72,64,71
270.75,271.125,70,64,71
271.125,271.5,68,64,71
271.5,271.875,67,64,71
271.875,272.25,65,64,71
272.25,272.625,67,64,71
272.625,273.0,69,64,71
273.0,273.375,70,64,71
287.625,288.0,67,64,71
288.0,288.375,65,64,71
288.375,288.75,67,64,71
288.75,289.125,65,64,71
289.125,289.5,67,64,71
289.5,289.875,65,64,71
289.875,290.25,67,64,71
290.25,290.625,68,64,71
290.625,291.0,68,64,71
291.0,291.375,67,64,71
291.375,291.75,77,64,71
291.75,292.125,75,64,71
292.125,292.5,74,64,71
292.5,292.875,72,64,71
292.875,293.25,70,64,71
293.25,293.625,68,64,71
294.0,294.375,77,64,71
294.375,294.75,79,64,71
294.75,295.125,77,64,71
295.125,295.5,75,64,71
295.5,295.875,74,64,71
295.875,296.25,72,64,71
296.25,296.625,70,64,71
297.0,297.375,79,64,71
297.375,297.75,80,64,71
297.75,298.125,79,64,71
298.125,298.5,77,64,71
298.5,298.875,75,64,71
298.875,299.25,74,64,71
299.25,299.625,72,64,71
299.625,300.0,70,64,71
300.0,300.375,68,64,71
300.375,300.75,67,64,71
300.75,301.125,65,64,71
301.125,301.5,70,64,71
301.5,303.0,69,64,71
303.0,304.125,70,64,71
304.125,304.5,69,64,71
304.5,304.875,70,64,71
304.875,305.25,69,64,71
305.25,305.625,70,64,71
305.625,306.0,69,64,71
306.0,306.375,70,64,71
306.375,306.75,69,64,71
306.75,307.125,70,64,71
307.125,307.5,72,64,71
307.5,307.875,74,64,71
307.875,308.25,75,64,71
308.25,308.625,67,64,71
308.625,309.0,72,64,71
309.0,309.375,70,64,71
309.375,309.75,68,64,71
309.75,310.5,67,64,71
310.5,310.875,67,64,71
310.875,311.625,65,64,71
311.625,312.0,64,64,71
312.0,312.375,67,64,71
312.375,312.75,65,64,71
312.75,313.125,67,64,71
313.125,313.5,68,64,71
313.5,313.875,70,64,71
313.875,314.25,72,64,71
314.25,314.625,60,64,71
314.625,315.0,68,64,71
315.0,315.375,67,64,71
315.375,315.75,65,64,71
315.75,316.5,63,64,71
316.5,316.875,63,64,71
316.875,317.625,63,64,71
317.625,318.0,62,64,71
318.0,318.375,65,64,71
318.375,318.75,63,64,71
318.75,319.125,67,64,71
319.125,319.5,68,64,71
319.5,319.875,70,64,71
319.875,320.25,72,64,71
320.25,320.625,60,64,71
320.625,321.0,68,64,71
321.0,321.375,67,64,71
321.375,321.75,65,64,71
321.75,322.5,63,64,71
322.5,322.6875,63,64,71
322.6875,322.875,65,64,71
322.875,323.0625,67,64,71
323.0625,323.25,68,64,71
323.25,323.4375,70,64,71
323.4375,323.625,68,64,71
323.625,323.8125,67,64,71
323.8125,324.0,65,64,71
324.0,324.375,63,64,71
328.5,328.875,79,64,71
328.875,329.25,77,64,71
329.25,329.625,79,64,71
329.625,330.0,77,64,71
330.0,330.375,79,64,71
333.0,334.5,67,64,71
334.5,334.875,67,64,71
334.875,335.25,77,64,71
335.25,335.625,79,64,71
335.625,336.0,77,64,71
336.0,336.375,79,64,71
337.5,337.875,82,64,71
339.0,339.375,79,64,71
6.0,6.375,70,64,71
6.75,7.125,70,64,71
7.5,7.875,70,64,71
8.625,9.75,58,64,71
10.125,10.5,58,64,71
10.5,10.875,58,64,71
10.875,11.25,58,64,71
11.625,11.8125,63,64,71
11.8125,12.0,65,64,71
12.0,12.375,67,64,71
12.375,12.75,67,64,71
12.75,13.5,68,64,71
13.5,13.875,70,64,71
14.625,15.0,58,64,71
15.0,15.375,58,64,71
15.375,15.75,58,64,71
16.125,16.5,58,64,71
16.5,16.875,58,64,71
16.875,17.25,58,64,71
17.625,18.0,70,64,71
18.0,18.375,72,64,71
18.375,18.75,68,64,71
18.75,19.125,68,64,71
19.125,19.5,68,64,71
19.5,19.6875,79,64,71
19.6875,19.875,77,64,71
19.875,20.0625,75,64,71
20.0625,20.25,74,64,71
20.25,20.4375,72,64,71
20.4375,20.625,70,64,71
20.625,20.8125,68,64,71
20.8125,21.0,67,64,71
21.0,21.1875,65,64,71
21.1875,21.375,67,64,71
21.375,21.5625,68,64,71
21.5625,21.75,70,64,71
21.75,22.125,72,64,71
22.125,22.5,68,64,71
22.5,22.875,67,64,71
24.0,24.375,63,64,71
25.5,25.875,63,64,71
27.0,27.375,67,64,71
27.375,27.75,68,64,71
27.75,28.125,67,64,71
28.125,28.5,68,64,71
28.5,28.875,67,64,71
30.0,30.375,72,64,71
31.5,31.875,72,64,71
33.0,33.375,75,64,71
33.375,33.75,74,64,71
33.75,34.125,75,64,71
34.125,34.5,74,64,71
34.5,34.875,75,64,71
36.0,36.375,67,64,71
37.5,37.875,65,64,71
39.0,39.375,63,64,71
40.875,41.25,65,64,71
41.625,42.0,62,64,71
42.375,42.75,58,64,71
43.875,44.25,67,64,71
44.625,45.0,63,64,71
45.375,45.75,60,64,71
46.875,47.25,69,64,71
47.625,48.0,65,64,71
48.375,48.75,62,64,71
49.875,50.25,67,64,71
50.25,50.625,65,64,71
50.625,51.0,63,64,71
51.0,51.375,62,64,71
51.375,51.75,60,64,71
51.75,52.125,62,64,71
52.125,52.5,64,64,71
52.5,52.875,65,64,71
52.875,53.25,77,64,71
53.25,54.0,65,64,71
54.0,55.5,65,64,71
55.5,56.25,65,64,71
56.25,56.625,65,64,71
56.625,57.0,65,64,71
57.0,57.375,65,64,71
58.125,58.5,62,64,71
58.5,58.875,60,64,71
58.875,59.25,62,64,71
59.25,59.625,60,64,71
59.625,60.0,62,64,71
60.0,60.375,60,64,71
60.375,60.75,62,64,71
60.75,61.125,67,64,71
61.125,61.5,63,64,71
61.5,61.875,62,64,71
61.875,62.25,77,64,71
62.25,63.0,65,64,71
63.0,64.5,65,64,71
64.5,65.25,65,64,71
65.25,65.625,65,64,71
65.625,66.0,65,64,71
66.0,66.375,65,64,71
67.125,67.5,62,64,71
67.5,67.875,63,64,71
67.875,68.25,62,64,71
68.25,68.625,63,64,71
68.625,69.0,62,64,71
69.0,69.375,63,64,71
69.375,69.75,62,64,71
69.75,70.125,67,64,71
70.125,70.5,63,64,71
70.5,70.875,62,64,71
74.25,74.625,78,64,71
74.625,75.0,78,64,71
75.0,75.375,77,64,71
78.75,79.125,78,64,71
79.125,79.5,78,64,71
79.5,79.875,77,64,71
82.125,82.5,70,64,71
82.5,82.875,60,64,71
85.125,85.5,72,64,71
85.5,85.875,62,64,71
91.5,91.875,67,64,71
92.25,92.625,67,64,71
93.0,93.375,67,64,71
94.125,94.5,58,64,71
94.5,94.875,58,64,71
94.875,95.25,58,64,71
95.625,96.0,58,64,71
96.0,96.375,58,64,71
96.375,96.75,58,64,71
97.125,97.3125,63,64,71
97.3125,97.5,65,64,71
97.5,97.875,67,64,71
97.875,98.25,67,64,71
98.25,98.625,68,64,71
98.625,99.0,69,64,71
99.0,99.375,70,64,71
100.5,100.875,70,64,71
101.25,101.625,70,64,71
102.0,102.375,70,64,71
103.125,103.5,67,64,71
103.5,103.875,68,64,71
103.875,104.25,68,64,71
104.625,105.0,67,64,71
105.0,105.375,68,64,71
105.375,105.75,68,64,71
106.125,106.5,67,64,71
106.5,106.875,72,64,71
106.875,107.25,72,64,71
107.25,107.625,68,64,71
107.625,108.0,68,64,71
108.0,108.375,67,64,71
109.125,109.5,63,64,71
109.5,109.875,65,64,71
109.875,110.25,65,64,71
110.625,111.0,63,64,71
111.0,111.375,65,64,71
111.375,111.75,65,64,71
111.75,111.9375,67,64,71
111.9375,112.125,65,64,71
112.125,112.3125,63,64,71
112.3125,112.5,62,64,71
112.5,112.875,60,64,71
112.875,113.0625,72,64,71
113.0625,113.25,74,64,71
113.25,113.625,75,64,71
113.625,114.0,72,64,71
114.0,114.375,67,64,71
114.375,114.75,68,64,71
114.75,115.125,67,64,71
115.125,115.5,67,64,71
115.5,115.875,65,64,71
115.875,116.25,65,64,71
116.25,116.625,63,64,71
116.625,117.0,63,64,71
117.0,117.375,62,64,71
117.375,117.75,62,64,71
117.75,118.125,60,64,71
118.125,118.5,60,64,71
118.5,118.875,59,64,71
118.875,119.25,68,64,71
119.25,119.625,67,64,71
119.625,120.0,67,64,71
120.0,120.375,65,64,71
120.375,120.75,65,64,71
120.75,121.125,63,64,71
121.125,121.5,63,64,71
121.5,121.875,62,64,71
121.875,122.25,62,64,71
122.25,122.625,65,64,71
122.625,123.0,65,64,71
123.0,123.375,63,64,71
123.375,123.75,63,64,71
123.75,124.125,68,64,71
124.125,124.5,68,64,71
124.5,124.875,67,64,71
124.875,125.25,67,64,71
125.25,125.625,65,64,71
125.625,126.0,65,64,71
126.0,126.375,63,64,71
126.375,126.75,63,64,71
126.75,127.125,62,64,71
127.125,127.5,62,64,71
127.5,127.875,63,64,71
127.875,128.25,63,64,71
128.25,128.625,68,64,71
128.625,129.0,68,64,71
129.0,129.375,67,64,71
129.375,129.75,67,64,71
129.75,130.125,65,64,71
130.125,130.5,65,64,71
130.5,130.875,63,64,71
130.875,131.25,63,64,71
131.25,131.625,64,64,71
131.625,132.0,64,64,71
132.0,132.375,65,64,71
136.875,137.0625,60,64,71
137.0625,137.25,60,64,71
137.25,137.4375,60,64,71
137.4375,137.625,60,64,71
137.625,137.8125,60,64,71
137.8125,138.0,60,64,71
138.0,138.1875,60,64,71
138.1875,138.375,60,64,71
138.375,138.5625,60,64,71
138.5625,138.75,60,64,71
138.75,139.125,60,64,71
139.125,139.5,60,64,71
139.5,139.875,60,64,71
139.875,140.25,60,64,71
140.25,140.625,60,64,71
140.625,141.0,65,64,71
141.0,141.375,63,64,71
150.0,151.125,63,64,71
151.125,151.5,65,64,71
151.5,151.875,65,64,71
152.25,152.625,63,64,71
153.0,153.375,65,64,71
157.125,157.5,62,64,71
157.5,157.875,63,64,71
158.25,158.625,63,64,71
159.0,159.375,61,64,71
159.375,159.75,60,64,71
161.625,162.0,60,64,71
162.0,162.75,58,64,71
162.75,163.125,60,64,71
163.125,163.5,65,64,71
163.5,163.875,65,64,71
164.25,164.625,65,64,71
165.0,165.375,65,64,71
169.125,169.5,72,64,71
169.5,169.875,72,64,71
169.875,170.625,63,64,71
170.625,171.0,61,64,71
171.0,171.375,60,64,71
177.75,178.125,70,64,71
178.125,178.5,72,64,71
178.5,178.87032,73,64,71
178.875,179.62032,75,64,71
179.625,179.99532,74,64,71
180.0,180.375,72,64,71
180.375,180.75,70,64,71
180.75,181.125,70,64,71
181.125,181.5,72,64,71
181.5,181.875,73,64,71
181.875,182.625,75,64,71
182.625,183.0,73,64,71
183.0,183.375,72,64,71
183.375,183.75,70,64,71
185.625,186.0,65,64,71
186.0,187.125,63,64,71
187.125,187.5,65,64,71
187.5,187.875,65,64,71
188.25,188.625,63,64,71
189.0,189.375,65,64,71
193.125,193.5,71,64,71
193.5,193.875,72,64,71
193.875,194.625,63,64,71
194.625,195.0,61,64,71
195.0,195.375,60,64,71
201.75,202.125,70,64,71
202.125,202.5,72,64,71
202.5,202.875,73,64,71
202.875,203.625,75,64,71
203.625,204.0,73,64,71
204.0,204.375,72,64,71
204.375,204.75,70,64,71
204.75,205.125,70,64,71
205.125,205.5,72,64,71
205.5,205.875,73,64,71
205.875,206.625,75,64,71
206.625,207.0,73,64,71
207.0,207.375,72,64,71
207.375,207.75,70,64,71
209.625,210.0,60,64,71
210.0,210.75,58,64,71
210.75,211.125,60,64,71
211.125,211.5,75,64,71
211.5,211.875,73,64,71
211.875,212.25,73,64,71
212.625,213.0,72,64,71
213.375,213.75,73,64,71
215.25,216.0,70,64,71
216.0,216.75,70,64,71
218.25,218.625,69,64,71
219.0,219.375,69,64,71
224.25,224.625,68,64,71
225.0,225.375,68,64,71
229.5,229.875,63,64,71
229.875,230.25,65,64,71
230.25,230.625,66,64,71
230.625,231.0,67,64,71
231.0,231.375,67,64,71
232.5,232.875,70,64,71
233.25,233.625,70,64,71
234.0,234.375,70,64,71
235.125,235.875,58,64,71
235.875,236.25,58,64,71
236.625,237.375,58,64,71
237.375,237.75,58,64,71
238.125,238.3125,63,64,71
238.3125,238.5,65,64,71
238.5,238.875,67,64,71
238.875,239.25,67,64,71
239.25,239.625,68,64,71
239.625,240.0,69,64,71
240.0,240.375,70,64,71
241.125,241.5,58,64,71
241.5,241.875,58,64,71
241.875,242.25,58,64,71
242.625,243.0,58,64,71
243.0,243.375,58,64,71
243.375,243.75,58,64,71
244.125,244.5,70,64,71
244.5,244.875,72,64,71
244.875,245.25,68,64,71
245.25,245.625,68,64,71
245.625,246.0,68,64,71
246.0,246.1875,79,64,71
246.1875,246.375,77,64,71
246.375,246.5625,75,64,71
246.5625,246.75,74,64,71
246.75,246.9375,72,64,71
246.9375,247.125,70,64,71
247.125,247.3125,68,64,71
247.3125,247.5,67,64,71
247.5,247.6875,65,64,71
247.6875,247.875,67,64,71
247.875,248.0625,68,64,71
248.0625,248.25,70,64,71
248.25,248.625,72,64,71
248.625,249.0,68,64,71
249.0,249.375,67,64,71
249.75,250.125,63,64,71
250.125,250.5,67,64,71
250.5,250.875,67,64,71
250.875,251.25,70,64,71
251.25,251.625,70,64,71
251.625,252.0,75,64,71
252.75,253.125,62,64,71
253.125,253.5,65,64,71
253.5,253.875,65,64,71
253.875,254.25,70,64,71
254.25,254.625,70,64,71
254.625,255.0,70,64,71
255.0,255.1875,79,64,71
255.1875,255.375,75,64,71
255.375,255.5625,79,64,71
255.5625,255.75,75,64,71
255.75,256.125,70,64,71
256.5,256.6875,75,64,71
256.6875,256.875,70,64,71
256.875,257.25,67,64,71
257.25,257.4375,70,64,71
257.4375,257.625,67,64,71
257.625,258.0,63,64,71
258.0,258.1875,80,64,71
258.1875,258.375,77,64,71
258.375,258.5625,80,64,71
258.5625,258.75,77,64,71
258.75,259.125,70,64,71
259.5,259.6875,77,64,71
259.6875,259.875,74,64,71
259.875,260.25,70,64,71
260.25,260.4375,74,64,71
260.4375,260.625,70,64,71
260.625,261.0,65,64,71
261.0,261.375,67,64,71
261.375,261.75,65,64,71
261.75,262.125,63,64,71
262.125,262.5,62,64,71
262.5,262.875,60,64,71
262.875,263.25,58,64,71
263.25,263.625,56,64,71
264.0,264.375,68,64,71
264.375,264.75,67,64,71
264.75,265.125,65,64,71
265.125,265.5,63,64,71
265.5,265.875,62,64,71
265.875,266.25,60,64,71
266.25,266.625,58,64,71
267.0,267.375,70,64,71
267.375,267.75,68,64,71
267.75,268.125,67,64,71
268.125,268.5,65,64,71
268.5,268.875,63,64,71
268.875,269.25,62,64,71
269.25,269.625,60,64,71
269.625,270.0,58,64,71
270.0,270.375,56,64,71
270.375,270.75,67,64,71
270.75,271.125,65,64,71
271.125,271.5,62,64,71
271.5,271.875,58,64,71
271.875,272.25,65,64,71
272.25,272.625,67,64,71
272.625,273.0,63,64,71
273.0,273.375,62,64,71
278.625,279.0,63,64,71
279.0,279.375,65,64,71
279.375,279.75,63,64,71
280.125,280.5,63,64,71
280.5,280.875,65,64,71
280.875,281.25,63,64,71
281.25,281.625,68,64,71
281.625,282.0,65,64,71
282.0,282.375,63,64,71
286.875,287.25,82,64,71
287.25,288.0,70,64,71
288.0,288.375,62,64,71
288.375,288.75,63,64,71
288.75,289.125,62,64,71
289.125,289.5,63,64,71
289.5,289.875,62,64,71
289.875,290.25,63,64,71
290.25,290.625,65,64,71
290.625,291.0,65,64,71
291.0,291.375,63,64,71
291.375,291.75,74,64,71
291.75,292.125,72,64,71
292.125,292.5,70,64,71
292.5,292.875,68,64,71
292.875,293.25,67,64,71
293.25,293.625,65,64,71
294.0,294.375,77,64,71
294.375,294.75,75,64,71
294.75,295.125,74,64,71
295.125,295.5,72,64,71
295.5,295.875,70,64,71
295.875,296.25,68,64,71
296.25,296.625,67,64,71
297.0,297.375,79,64,71
297.375,297.75,77,64,71
297.75,298.125,75,64,71
298.125,298.5,74,64,71
298.5,298.875,72,64,71
298.875,299.25,70,64,71
299.25,299.625,68,64,71
299.625,300.0,67,64,71
300.0,300.375,65,64,71
300.375,300.75,67,64,71
300.75,301.125,65,64,71
301.125,301.5,65,64,71
301.5,303.0,65,64,71
308.625,309.0,67,64,71
309.0,309.375,65,64,71
309.375,309.75,62,64,71
309.75,310.125,67,64,71
316.125,316.5,66,64,71
316.5,316.875,67,64,71
317.25,317.625,65,64,71
318.0,318.375,67,64,71
318.75,319.125,67,64,71
319.125,319.5,68,64,71
319.5,319.875,70,64,71
319.875,320.25,72,64,71
320.25,320.625,60,64,71
320.625,321.0,68,64,71
321.0,321.375,67,64,71
321.375,321.75,65,64,71
322.125,322.5,67,64,71
322.5,322.875,67,64,71
322.875,323.25,75,64,71
323.25,323.625,74,64,71
323.625,324.0,74,64,71
324.0,324.375,67,64,71
328.5,328.875,67,64,71
328.875,329.25,65,64,71
329.25,329.625,67,64,71
329.625,330.0,65,64,71
330.0,330.375,67,64,71
333.0,334.5,63,64,71
334.5,334.875,63,64,71
334.875,335.25,74,64,71
335.25,335.625,75,64,71
335.625,336.0,74,64,71
336.0,336.375,75,64,71
337.5,337.875,74,64,71
339.0,339.375,75,64,71
6.0,6.375,51,64,70
6.75,7.125,51,64,70
7.5,7.875,51,64,70
8.625,9.0,58,64,70
9.0,9.375,56,64,70
9.375,9.75,56,64,70
10.125,10.5,56,64,70
10.5,10.875,58,64,70
10.875,11.25,58,64,70
14.625,15.0,58,64,70
15.0,15.375,56,64,70
15.375,15.75,56,64,70
16.125,16.5,56,64,70
16.5,16.875,58,64,70
16.875,17.25,58,64,70
17.625,18.0,58,64,70
18.0,18.375,56,64,70
18.375,18.75,60,64,70
18.75,19.125,58,64,70
19.125,19.5,46,64,70
19.5,19.6875,51,64,70
19.6875,19.875,53,64,70
19.875,20.0625,55,64,70
20.0625,20.25,56,64,70
20.25,20.4375,58,64,70
20.4375,20.625,60,64,70
20.625,20.8125,62,64,70
20.8125,21.0,63,64,70
21.0,21.1875,56,64,70
21.1875,21.375,55,64,70
21.375,21.5625,53,64,70
21.5625,21.75,55,64,70
21.75,21.9375,56,64,70
21.9375,22.125,53,64,70
22.125,22.3125,58,64,70
22.3125,22.5,46,64,70
22.5,22.875,51,64,70
27.0,27.375,63,64,70
27.375,27.75,58,64,70
27.75,28.125,63,64,70
28.125,28.5,58,64,70
28.5,28.875,63,64,70
29.25,29.4375,48,64,70
29.4375,29.625,51,64,70
29.625,29.8125,48,64,70
29.8125,30.0,51,64,70
30.0,30.375,55,64,70
30.75,30.9375,51,64,70
30.9375,31.125,55,64,70
31.125,31.3125,51,64,70
31.3125,31.5,55,64,70
31.5,31.875,60,64,70
32.25,32.4375,55,64,70
32.4375,32.625,60,64,70
32.625,32.8125,55,64,70
32.8125,33.0,60,64,70
33.0,33.375,48,64,70
33.375,33.75,55,64,70
33.75,34.125,60,64,70
34.125,34.5,55,64,70
34.5,34.875,60,64,70
35.25,35.4375,48,64,70
35.4375,35.625,51,64,70
35.625,35.8125,48,64,70
35.8125,36.0,51,64,70
36.0,36.375,55,64,70
36.75,36.9375,51,64,70
36.9375,37.125,55,64,70
37.125,37.3125,51,64,70
37.3125,37.5,55,64,70
37.5,37.875,60,64,70
38.25,38.4375,53,64,70
38.4375,38.625,57,64,70
38.625,38.8125,53,64,70
38.8125,39.0,57,64,70
39.0,39.375,60,64,70
39.75,39.9375,57,64,70
39.9375,40.125,60,64,70
40.125,40.3125,57,64,70
40.3125,40.5,60,64,70
40.5,40.875,62,64,70
40.875,41.25,60,64,70
41.25,41.625,58,64,70
41.625,42.0,57,64,70
42.0,42.375,55,64,70
42.375,42.75,53,64,70
42.75,43.125,51,64,70
43.5,43.875,63,64,70
43.875,44.25,62,64,70
44.25,44.625,60,64,70
44.625,45.0,58,64,70
45.0,45.375,57,64,70
45.375,45.75,55,64,70
45.75,46.125,53,64,70
46.5,46.875,65,64,70
46.875,47.25,63,64,70
47.25,47.625,62,64,70
47.625,48.0,60,64,70
48.0,48.375,58,64,70
48.375,48.75,57,64,70
48.75,49.125,55,64,70
49.125,49.5,53,64,70
49.5,49.875,51,64,70
49.875,50.25,62,64,70
50.25,50.625,60,64,70
50.625,51.0,57,64,70
51.0,51.375,58,64,70
51.375,51.75,57,64,70
51.75,52.125,58,64,70
52.125,52.5,55,64,70
52.5,52.875,53,64,70
53.625,54.0,58,64,70
54.0,54.1875,57,64,70
54.1875,54.375,58,64,70
54.375,54.5625,58,64,70
54.5625,54.75,58,64,70
54.75,54.9375,57,64,70
54.9375,55.125,58,64,70
55.125,55.3125,58,64,70
55.3125,55.5,58,64,70
55.5,55.6875,57,64,70
55.6875,55.875,58,64,70
55.875,56.0625,58,64,70
56.0625,56.25,58,64,70
56.25,56.625,63,64,70
56.625,57.0,62,64,70
57.0,57.37031,60,64,70
57.375,57.74531,65,64,70
57.75,58.49531,53,64,70
58.5,60.0,53,64,70
62.625,63.0,58,64,70
63.0,63.18281,57,64,70
63.1875,63.37031,58,64,70
63.375,63.55781,58,64,70
63.5625,63.74531,58,64,70
63.75,63.93281,57,64,70
63.9375,64.120316,58,64,70
64.125,64.307816,58,64,70
64.3125,64.495316,58,64,70
64.5,64.6875,56,64,70
64.6875,64.875,58,64,70
64.875,65.0625,58,64,70
65.0625,65.25,58,64,70
65.25,65.625,63,64,70
65.625,66.0,62,64,70
66.0,66.375,60,64,70
66.375,66.75,65,64,70
66.75,67.5,53,64,70
67.5,67.875,53,64,70
67.875,68.25,53,64,70
68.25,68.625,53,64,70
68.625,69.0,53,64,70
69.0,69.375,53,64,70
69.375,69.75,53,64,70
69.75,70.125,63,64,70
70.125,70.5,65,64,70
70.5,70.875,58,64,70
71.25,71.625,67,64,70
71.625,72.0,67,64,70
72.0,72.375,65,64,70
72.375,72.75,65,64,70
72.75,73.125,63,64,70
73.125,73.5,63,64,70
73.5,73.875,62,64,70
73.875,74.25,62,64,70
74.25,74.625,60,64,70
74.625,75.0,60,64,70
75.0,75.375,62,64,70
75.75,76.125,67,64,70
76.125,76.5,67,64,70
76.5,76.875,65,64,70
76.875,77.25,65,64,70
77.25,77.625,63,64,70
77.625,78.0,63,64,70
78.0,78.375,62,64,70
78.375,78.75,62,64,70
78.75,79.125,60,64,70
79.125,79.5,60,64,70
79.5,80.25,62,64,70
80.25,80.625,50,64,70
80.625,81.0,53,64,70
81.0,81.375,58,64,70
81.375,81.75,60,64,70
81.75,82.125,62,64,70
82.125,82.5,58,64,70
82.5,82.875,48,64,70
82.875,83.25,51,64,70
83.25,83.625,55,64,70
83.625,84.0,59,64,70
84.0,84.375,60,64,70
84.375,84.75,62,64,70
84.75,85.125,63,64,70
85.125,85.5,60,64,70
85.5,85.875,50,64,70
85.875,86.25,53,64,70
86.25,86.625,58,64,70
86.625,87.0,60,64,70
87.0,87.375,62,64,70
87.375,87.75,63,64,70
87.75,88.125,65,64,70
88.125,88.5,67,64,70
88.5,88.875,65,64,70
88.875,89.25,63,64,70
89.25,89.625,62,64,70
89.625,90.0,60,64,70
90.0,90.375,58,64,70
90.375,90.75,56,64,70
90.75,91.125,55,64,70
91.125,91.5,53,64,70
91.5,91.875,51,64,70
92.25,92.625,51,64,70
93.0,93.375,51,64,70
94.125,94.5,58,64,70
94.5,94.875,58,64,70
94.875,95.25,58,64,70
95.625,96.0,58,64,70
96.0,96.375,58,64,70
96.375,96.75,58,64,70
100.5,100.875,63,64,70
101.25,101.625,63,64,70
102.0,102.375,63,64,70
102.75,103.125,63,64,70
103.125,103.5,63,64,70
103.5,103.875,65,64,70
103.875,104.25,65,64,70
104.625,105.0,63,64,70
105.0,105.375,65,64,70
105.375,105.75,65,64,70
106.125,106.5,63,64,70
106.5,106.875,56,64,70
106.875,107.25,56,64,70
107.25,107.625,58,64,70
107.625,108.0,58,64,70
108.0,108.375,51,64,70
109.125,109.5,60,64,70
109.5,109.875,62,64,70
109.875,110.25,62,64,70
110.625,111.0,60,64,70
111.1875,111.5625,62,64,70
111.5625,111.9375,62,64,70
111.9375,112.125,55,64,70
112.125,112.3125,63,64,70
112.3125,112.5,62,64,70
112.5,112.682816,60,64,70
112.6875,112.870316,59,64,70
112.875,113.057816,60,64,70
113.0625,113.245316,62,64,70
113.25,113.620316,63,64,70
113.625,113.995316,60,64,70
114.0,114.375,55,64,70
116.25,116.625,67,64,70
116.625,117.0,67,64,70
117.0,117.375,65,64,70
117.375,117.75,65,64,70
117.75,118.125,63,64,70
118.125,118.5,63,64,70
118.5,118.875,62,64,70
120.75,121.125,67,64,70
121.125,121.5,67,64,70
121.5,121.875,65,64,70
121.875,122.25,65,64,70
122.25,122.625,62,64,70
122.625,123.0,62,64,70
123.0,123.375,60,64,70
125.25,125.625,56,64,70
125.625,126.0,56,64,70
126.0,126.375,55,64,70
126.375,126.75,55,64,70
126.75,127.125,53,64,70
127.125,127.5,53,64,70
127.5,127.875,51,64,70
129.75,130.125,56,64,70
130.125,130.5,56,64,70
130.5,130.875,55,64,70
130.875,131.25,55,64,70
131.25,131.625,60,64,70
131.625,132.0,60,64,70
132.0,132.375,53,64,70
134.625,135.0,65,64,70
135.0,135.375,63,64,70
135.375,135.75,65,64,70
135.75,136.125,67,64,70
136.125,136.5,55,64,70
136.5,136.875,60,64,70
136.875,137.0625,65,64,70
137.0625,137.25,65,64,70
137.25,137.4375,64,64,70
137.4375,137.625,65,64,70
137.625,137.8125,65,64,70
137.8125,138.0,65,64,70
138.0,138.1875,64,64,70
138.1875,138.375,65,64,70
138.375,138.5625,65,64,70
138.5625,138.75,65,64,70
138.75,139.125,63,64,70
139.125,139.5,62,64,70
139.5,139.875,60,64,70
139.875,140.25,60,64,70
140.25,140.625,60,64,70
140.625,141.0,59,64,70
141.0,141.375,60,64,70
149.625,150.0,60,64,70
150.0,150.375,58,64,70
150.375,150.75,55,64,70
150.75,151.125,56,64,70
151.125,151.5,60,64,70
151.5,151.875,61,64,70
152.25,152.625,60,64,70
153.0,153.375,61,64,70
156.0,156.375,63,64,70
156.375,156.75,61,64,70
156.75,157.5,60,64,70
157.5,157.875,60,64,70
157.875,158.625,60,64,70
158.625,159.0,58,64,70
159.0,159.375,55,64,70
159.375,159.75,56,64,70
159.75,160.125,63,64,70
160.125,160.5,63,64,70
160.5,160.875,67,64,70
160.875,161.25,68,64,70
161.625,162.0,63,64,70
162.0,162.375,63,64,70
162.375,162.75,61,64,70
162.75,163.5,60,64,70
163.5,163.875,60,64,70
163.875,164.625,58,64,70
164.625,165.0,57,64,70
165.0,165.375,60,64,70
165.375,165.75,58,64,70
165.75,166.125,60,64,70
166.125,166.5,61,64,70
166.5,166.875,63,64,70
166.875,167.25,65,64,70
167.25,167.625,53,64,70
167.625,168.0,61,64,70
168.0,168.375,60,64,70
168.375,168.75,58,64,70
168.75,169.5,56,64,70
169.5,169.875,56,64,70
169.875,170.25,56,64,70
170.25,170.625,58,64,70
170.625,171.0,55,64,70
171.0,171.375,56,64,70
179.25,179.625,53,64,70
179.625,180.0,55,64,70
180.0,180.375,56,64,70
180.375,180.75,51,64,70
182.25,182.625,53,64,70
182.625,183.0,55,64,70
183.0,183.375,56,64,70
183.375,183.75,58,64,70
183.75,184.125,60,64,70
184.125,184.5,62,64,70
184.5,184.875,63,64,70
184.875,185.25,65,64,70
185.625,186.0,60,64,70
186.0,186.375,58,64,70
186.375,186.75,55,64,70
186.75,187.125,56,64,70
187.125,187.5,60,64,70
187.5,187.875,61,64,70
188.25,188.625,60,64,70
189.0,189.375,61,64,70
189.75,190.125,60,64,70
190.125,190.5,61,64,70
190.5,190.875,63,64,70
190.875,191.25,65,64,70
191.25,191.625,53,64,70
191.625,192.0,61,64,70
192.0,192.375,60,64,70
192.375,192.75,58,64,70
192.75,193.5,56,64,70
193.5,193.875,56,64,70
193.875,194.25,56,64,70
194.25,194.625,58,64,70
194.625,195.0,55,64,70
195.0,195.375,56,64,70
203.25,203.625,53,64,70
203.625,204.0,55,64,70
204.0,204.375,56,64,70
204.375,204.75,51,64,70
206.25,206.625,53,64,70
206.625,207.0,55,64,70
207.0,207.375,56,64,70
207.375,207.75,58,64,70
207.75,208.125,60,64,70
208.125,208.5,61,64,70
208.5,208.875,63,64,70
208.875,209.25,65,64,70
209.625,210.0,65,64,70
210.0,210.375,63,64,70
210.375,210.75,61,64,70
210.75,211.5,60,64,70
211.5,211.875,60,64,70
211.875,212.625,58,64,70
212.625,213.0,57,64,70
213.0,213.375,60,64,70
213.375,213.75,58,64,70
213.75,214.125,60,64,70
214.125,214.5,61,64,70
214.5,214.875,63,64,70
214.875,215.25,65,64,70
215.25,215.625,53,64,70
215.625,216.0,61,64,70
216.0,216.75,60,64,70
217.5,217.875,41,64,70
217.875,218.25,45,64,70
218.25,218.625,48,64,70
218.625,219.0,53,64,70
219.0,219.375,57,64,70
219.75,220.5,57,64,70
220.5,220.875,56,64,70
220.875,221.25,58,64,70
221.25,221.625,59,64,70
221.625,222.0,60,64,70
222.0,222.75,60,64,70
223.5,223.875,44,64,70
223.875,224.25,48,64,70
224.25,224.625,51,64,70
224.625,225.0,56,64,70
225.0,225.375,60,64,70
229.5,229.875,55,64,70
229.875,230.25,56,64,70
230.25,230.625,57,64,70
230.625,231.0,58,64,70
231.0,231.375,58,64,70
232.5,232.875,51,64,70
233.25,233.625,51,64,70
234.0,234.375,51,64,70
235.125,235.5,58,64,70
235.5,235.875,56,64,70
235.875,236.25,56,64,70
236.625,237.0,56,64,70
237.0,237.375,58,64,70
237.375,237.75,58,64,70
241.125,241.5,55,64,70
241.5,241.875,56,64,70
241.875,242.25,56,64,70
242.625,243.0,56,64,70
243.375,243.75,58,64,70
243.75,244.125,58,64,70
244.5,244.875,56,64,70
244.875,245.25,60,64,70
245.25,245.625,58,64,70
245.625,246.0,46,64,70
246.0,246.1875,51,64,70
246.1875,246.375,53,64,70
246.375,246.5625,55,64,70
246.5625,246.75,56,64,70
246.75,246.9375,58,64,70
246.9375,247.125,60,64,70
247.125,247.3125,62,64,70
247.3125,247.5,63,64,70
247.5,247.6875,56,64,70
247.6875,247.875,55,64,70
247.875,248.0625,53,64,70
248.0625,248.25,55,64,70
248.25,248.4375,56,64,70
248.4375,248.625,53,64,70
248.625,248.8125,58,64,70
248.8125,249.0,46,64,70
249.0,249.375,51,64,70
249.75,249.9375,67,64,70
249.9375,250.125,63,64,70
250.125,250.5,58,64,70
250.5,250.6875,63,64,70
250.6875,250.875,58,64,70
250.875,251.25,55,64,70
251.25,251.4375,58,64,70
251.4375,251.625,55,64,70
251.625,252.0,51,64,70
252.75,252.9375,65,64,70
252.9375,253.125,62,64,70
253.125,253.5,58,64,70
253.5,253.6875,62,64,70
253.6875,253.875,58,64,70
253.875,254.25,53,64,70
254.25,254.4375,58,64,70
254.4375,254.625,53,64,70
254.625,255.0,50,64,70
255.0,255.1875,55,64,70
255.1875,255.375,58,64,70
255.375,255.5625,55,64,70
255.5625,255.75,58,64,70
255.75,256.125,63,64,70
258.0,258.1875,53,64,70
258.1875,258.375,58,64,70
258.375,258.5625,53,64,70
258.5625,258.75,58,64,70
258.75,259.125,62,64,70
259.5,259.875,46,64,70
259.875,260.0625,50,64,70
260.0625,260.25,53,64,70
260.25,260.625,58,64,70
260.625,260.8125,62,64,70
260.8125,261.0,58,64,70
261.0,261.375,63,64,70
263.25,263.4375,64,64,70
263.4375,263.625,65,64,70
263.625,263.8125,65,64,70
263.8125,264.0,65,64,70
264.0,264.375,65,64,70
266.25,266.4375,66,64,70
266.4375,266.625,67,64,70
266.625,266.8125,67,64,70
266.8125,267.0,67,64,70
267.0,267.375,67,64,70
267.375,267.75,65,64,70
267.75,268.125,63,64,70
268.125,268.5,60,64,70
268.5,268.875,60,64,70
268.875,269.25,58,64,70
269.25,269.625,56,64,70
269.625,270.0,55,64,70
270.0,270.375,53,64,70
270.375,270.75,63,64,70
270.75,271.125,62,64,70
271.125,271.5,58,64,70
271.5,271.875,63,64,70
271.875,272.25,62,64,70
272.25,272.625,63,64,70
272.625,273.0,60,64,70
273.0,273.375,58,64,70
274.125,274.5,51,64,70
274.5,274.875,50,64,70
274.875,275.25,51,64,70
275.25,275.625,50,64,70
275.625,276.0,51,64,70
276.0,276.375,50,64,70
276.375,276.75,51,64,70
276.75,277.125,53,64,70
277.125,277.5,51,64,70
277.5,277.875,50,64,70
278.625,279.0,55,64,70
279.0,279.375,56,64,70
279.375,279.75,55,64,70
279.75,280.125,56,64,70
280.125,280.5,55,64,70
280.5,280.875,56,64,70
280.875,281.25,55,64,70
281.25,281.625,60,64,70
281.625,282.0,58,64,70
282.0,282.375,51,64,70
283.125,283.5,51,64,70
283.5,283.875,50,64,70
283.875,284.25,51,64,70
284.25,284.625,50,64,70
284.625,285.0,51,64,70
285.0,285.375,50,64,70
285.375,285.75,51,64,70
285.75,286.125,53,64,70
286.125,286.5,51,64,70
286.5,286.875,50,64,70
287.625,288.0,58,64,70
288.0,288.375,58,64,70
288.375,288.75,58,64,70
288.75,289.125,58,64,70
289.125,289.5,58,64,70
289.5,289.875,58,64,70
289.875,290.25,58,64,70
290.25,290.625,60,64,70
290.625,291.0,58,64,70
291.0,291.375,51,64,70
300.375,300.75,63,64,70
300.75,301.125,62,64,70
301.125,301.5,58,64,70
301.5,303.0,60,64,70
308.625,309.0,55,64,70
309.0,309.375,53,64,70
309.375,309.75,50,64,70
309.75,310.125,55,64,70
310.125,310.5,60,64,70
310.5,310.875,60,64,70
311.25,311.625,60,64,70
312.0,312.375,60,64,70
316.125,316.5,60,64,70
316.5,316.875,58,64,70
317.25,317.625,58,64,70
318.0,318.375,55,64,70
318.75,319.125,55,64,70
319.125,319.5,56,64,70
319.5,319.875,58,64,70
319.875,320.25,60,64,70
320.25,320.625,48,64,70
320.625,321.0,56,64,70
321.0,321.375,55,64,70
321.375,321.75,53,64,70
321.75,322.5,51,64,70
322.5,322.6875,51,64,70
322.6875,322.875,53,64,70
322.875,323.0625,55,64,70
323.0625,323.25,56,64,70
323.25,323.4375,58,64,70
323.4375,323.625,56,64,70
323.625,323.8125,55,64,70
323.8125,324.0,53,64,70
324.0,324.375,51,64,70
328.5,328.875,63,64,70
328.875,329.25,62,64,70
329.25,329.625,63,64,70
329.625,330.0,62,64,70
330.0,330.375,63,64,70
331.5,333.0,55,64,70
333.0,334.5,55,64,70
334.5,334.875,55,64,70
334.875,335.25,58,64,70
335.25,335.625,63,64,70
335.625,336.0,58,64,70
336.0,336.375,63,64,70
337.5,337.875,46,64,70
339.0,339.375,51,64,70
6.0,6.375,51,64,70
6.75,7.125,51,64,70
7.5,7.875,51,64,70
8.625,9.0,51,64,70
9.0,9.375,53,64,70
9.375,9.75,53,64,70
10.125,10.5,53,64,70
10.5,10.875,55,64,70
10.875,11.25,55,64,70
14.625,15.0,51,64,70
15.0,15.375,53,64,70
15.375,15.75,53,64,70
16.125,16.5,53,64,70
16.5,16.875,55,64,70
16.875,17.25,55,64,70
17.625,18.0,55,64,70
18.0,18.375,56,64,70
18.375,18.75,53,64,70
18.75,19.125,58,64,70
19.125,19.5,46,64,70
19.5,19.6875,39,64,70
19.6875,19.875,41,64,70
19.875,20.0625,43,64,70
20.0625,20.25,44,64,70
20.25,20.4375,46,64,70
20.4375,20.625,48,64,70
20.625,20.8125,50,64,70
20.8125,21.0,51,64,70
21.0,21.375,44,64,70
21.375,21.5625,53,64,70
21.5625,21.75,55,64,70
21.75,21.9375,56,64,70
21.9375,22.125,53,64,70
22.125,22.3125,58,64,70
22.3125,22.5,46,64,70
22.5,22.875,51,64,70
24.0,24.375,51,64,70
25.5,25.875,51,64,70
27.0,27.375,51,64,70
27.375,27.75,46,64,70
27.75,28.125,51,64,70
28.125,28.5,46,64,70
28.5,28.875,51,64,70
30.0,30.375,48,64,70
31.5,31.875,48,64,70
33.0,33.375,48,64,70
33.375,33.75,43,64,70
33.75,34.125,48,64,70
34.125,34.5,43,64,70
34.5,34.875,48,64,70
36.0,36.375,48,64,70
37.5,37.875,45,64,70
39.0,39.375,41,64,70
40.125,40.5,53,64,70
40.5,40.875,58,64,70
40.875,41.25,57,64,70
41.25,41.625,55,64,70
41.625,42.0,53,64,70
42.0,42.375,51,64,70
42.375,42.75,50,64,70
42.75,43.125,48,64,70
43.5,43.875,60,64,70
43.875,44.25,58,64,70
44.25,44.625,57,64,70
44.625,45.0,55,64,70
45.0,45.375,53,64,70
45.375,45.75,51,64,70
45.75,46.125,50,64,70
46.5,46.875,62,64,70
46.875,47.25,60,64,70
47.25,47.625,58,64,70
47.625,48.0,57,64,70
48.0,48.375,55,64,70
48.375,48.75,53,64,70
48.75,49.125,51,64,70
49.125,49.5,50,64,70
49.5,49.875,48,64,70
49.875,50.25,46,64,70
50.25,50.625,45,64,70
50.625,51.0,41,64,70
51.0,51.375,46,64,70
51.375,51.75,45,64,70
51.75,52.125,46,64,70
52.125,52.5,43,64,70
52.5,52.875,41,64,70
53.625,54.0,46,64,70
54.0,54.375,48,64,70
54.375,54.75,46,64,70
54.75,55.125,48,64,70
55.125,55.5,46,64,70
55.5,55.875,48,64,70
55.875,56.25,46,64,70
56.25,56.625,57,64,70
56.625,57.0,58,64,70
57.0,57.375,53,64,70
58.125,58.5,50,64,70
58.5,58.875,51,64,70
58.875,59.25,50,64,70
59.25,59.625,51,64,70
59.625,60.0,50,64,70
60.0,60.375,51,64,70
60.375,60.75,50,64,70
60.75,61.125,51,64,70
61.125,61.5,53,64,70
61.5,61.875,46,64,70
62.625,63.0,46,64,70
63.0,63.375,48,64,70
63.375,63.75,46,64,70
63.75,64.125,48,64,70
64.125,64.5,46,64,70
64.5,64.875,48,64,70
64.875,65.25,46,64,70
65.25,65.625,45,64,70
65.625,66.0,46,64,70
66.0,66.375,41,64,70
67.125,67.5,50,64,70
67.5,67.875,51,64,70
67.875,68.25,50,64,70
68.25,68.625,51,64,70
68.625,69.0,50,64,70
69.0,69.375,51,64,70
69.375,69.75,50,64,70
69.75,70.125,51,64,70
70.125,70.5,53,64,70
70.5,70.875,46,64,70
73.5,73.875,46,64,70
74.25,74.625,46,64,70
74.625,75.0,58,64,70
75.0,75.375,46,64,70
75.375,75.75,58,64,70
75.75,76.125,46,64,70
76.125,76.5,58,64,70
76.5,76.875,46,64,70
76.875,77.25,58,64,70
77.25,77.625,46,64,70
77.625,78.0,58,64,70
78.0,78.375,46,64,70
78.375,78.75,58,64,70
78.75,79.125,46,64,70
79.125,79.5,58,64,70
79.5,79.875,44,64,70
79.875,80.25,50,64,70
80.25,80.625,53,64,70
80.625,81.0,57,64,70
81.0,81.375,58,64,70
82.125,82.5,46,64,70
82.5,82.875,36,64,70
85.125,85.5,48,64,70
85.5,85.875,38,64,70
91.5,91.875,51,64,70
92.25,92.625,51,64,70
93.0,93.375,51,64,70
94.125,94.5,51,64,70
94.5,94.875,53,64,70
94.875,95.25,53,64,70
95.625,96.0,53,64,70
96.0,96.375,55,64,70
96.375,96.75,55,64,70
100.5,100.875,51,64,70
101.25,101.625,51,64,70
102.0,102.375,51,64,70
102.75,103.125,51,64,70
103.125,103.5,51,64,70
103.5,103.875,53,64,70
103.875,104.25,53,64,70
104.625,105.0,51,64,70
105.0,105.375,53,64,70
105.375,105.75,53,64,70
106.125,106.5,51,64,70
106.5,106.875,43,64,70
106.875,107.25,44,64,70
107.25,107.625,46,64,70
107.625,108.0,46,64,70
108.0,108.375,39,64,70
111.75,111.9375,55,64,70
111.9375,112.125,53,64,70
112.125,112.3125,51,64,70
112.3125,112.5,50,64,70
112.5,112.6875,48,64,70
112.6875,112.875,47,64,70
112.875,113.0625,48,64,70
113.0625,113.25,50,64,70
113.25,113.625,51,64,70
113.625,114.0,48,64,70
114.0,114.375,43,64,70
117.75,118.125,43,64,70
118.125,118.5,55,64,70
118.5,118.875,43,64,70
122.25,122.625,43,64,70
122.625,123.0,55,64,70
123.0,123.375,48,64,70
123.375,123.75,60,64,70
123.75,124.125,48,64,70
124.125,124.5,60,64,70
124.5,124.875,48,64,70
124.875,125.25,60,64,70
125.25,125.625,48,64,70
125.625,126.0,60,64,70
126.0,126.375,48,64,70
126.375,126.75,60,64,70
126.75,127.125,48,64,70
127.125,127.5,60,64,70
127.5,127.875,48,64,70
127.875,128.25,60,64,70
128.25,128.625,48,64,70
128.625,129.0,60,64,70
129.0,129.375,48,64,70
129.375,129.75,60,64,70
129.75,130.125,48,64,70
130.125,130.5,60,64,70
130.5,130.875,48,64,70
130.875,131.25,60,64,70
131.25,131.625,48,64,70
131.625,132.0,60,64,70
132.0,132.375,53,64,70
136.125,136.5,55,64,70
136.5,136.875,60,64,70
136.875,137.25,56,64,70
137.25,137.625,55,64,70
137.625,138.0,56,64,70
138.0,138.375,55,64,70
138.375,138.75,56,64,70
138.75,139.125,55,64,70
139.125,139.5,53,64,70
139.5,139.875,51,64,70
139.875,140.25,53,64,70
140.25,140.625,55,64,70
140.625,141.0,43,64,70
141.0,141.375,48,64,70
149.625,150.0,56,64,70
150.0,150.375,55,64,70
150.375,150.75,51,64,70
150.75,151.125,56,64,70
151.125,151.5,57,64,70
151.5,151.875,58,64,70
152.25,152.625,53,64,70
153.0,153.375,46,64,70
157.125,157.5,50,64,70
157.5,157.875,51,64,70
158.25,158.625,39,64,70
159.0,159.375,44,64,70
161.625,162.0,56,64,70
162.0,162.375,55,64,70
162.375,162.75,51,64,70
162.75,163.125,56,64,70
163.125,163.5,57,64,70
163.5,163.875,58,64,70
164.25,164.625,53,64,70
165.0,165.375,46,64,70
169.125,169.5,50,64,70
169.5,169.875,51,64,70
170.25,170.625,51,64,70
171.0,171.375,44,64,70
174.0,174.375,56,64,70
174.375,174.75,44,64,70
177.0,177.375,56,64,70
177.375,177.75,44,64,70
177.75,178.125,55,64,70
178.125,178.5,56,64,70
178.5,178.875,58,64,70
178.875,179.625,60,64,70
179.625,180.0,58,64,70
180.0,180.375,56,64,70
180.375,180.75,55,64,70
180.75,181.125,55,64,70
181.125,181.5,56,64,70
181.5,181.875,58,64,70
181.875,182.625,60,64,70
182.625,183.0,58,64,70
183.0,183.375,56,64,70
183.375,183.75,55,64,70
185.625,186.0,56,64,70
186.0,186.375,55,64,70
186.375,186.75,51,64,70
186.75,187.125,56,64,70
187.125,187.5,57,64,70
187.5,187.875,58,64,70
188.25,188.625,53,64,70
189.0,189.375,46,64,70
193.125,193.5,50,64,70
193.5,193.875,51,64,70
194.25,194.625,51,64,70
198.0,198.375,56,64,70
198.375,198.75,44,64,70
201.0,201.375,56,64,70
201.375,201.75,44,64,70
201.75,202.125,55,64,70
202.125,202.5,56,64,70
202.5,202.875,58,64,70
202.875,203.625,60,64,70
203.625,204.0,58,64,70
204.0,204.375,56,64,70
204.375,204.75,55,64,70
204.75,205.125,55,64,70
205.125,205.5,56,64,70
205.5,205.875,58,64,70
205.875,206.625,60,64,70
206.625,207.0,58,64,70
207.0,207.375,56,64,70
207.375,207.75,55,64,70
209.625,210.0,56,64,70
210.0,210.375,55,64,70
210.375,210.75,51,64,70
210.75,211.125,56,64,70
211.125,211.5,57,64,70
211.5,211.875,58,64,70
212.25,212.625,53,64,70
213.0,213.375,46,64,70
215.25,216.0,53,64,70
216.0,216.75,52,64,70
218.25,218.625,41,64,70
219.0,219.375,53,64,70
224.25,224.625,44,64,70
225.0,225.375,56,64,70
229.5,231.0,51,64,70
231.0,231.375,51,64,70
232.5,232.875,51,64,70
233.25,233.625,51,64,70
234.0,234.375,51,64,70
235.125,235.5,51,64,70
235.5,235.875,53,64,70
235.875,236.25,53,64,70
236.625,237.0,53,64,70
237.0,237.375,55,64,70
237.375,237.75,55,64,70
241.125,241.5,51,64,70
241.5,241.875,53,64,70
241.875,242.25,53,64,70
242.625,243.0,53,64,70
243.0,243.375,55,64,70
243.375,243.75,55,64,70
244.125,244.5,55,64,70
244.5,244.875,56,64,70
244.875,245.25,53,64,70
245.25,245.625,58,64,70
245.625,246.0,46,64,70
246.0,246.1875,38,64,70
246.1875,246.375,41,64,70
246.375,246.5625,43,64,70
246.5625,246.75,44,64,70
246.75,246.9375,46,64,70
246.9375,247.125,48,64,70
247.125,247.3125,50,64,70
247.3125,247.5,51,64,70
247.5,247.875,44,64,70
247.875,248.0625,53,64,70
248.0625,248.25,55,64,70
248.25,248.4375,56,64,70
248.4375,248.625,53,64,70
248.625,248.8125,58,64,70
248.8125,249.0,46,64,70
249.0,249.375,51,64,70
252.0,252.375,46,64,70
255.0,255.1875,51,64,70
255.1875,255.375,55,64,70
255.375,255.5625,51,64,70
255.5625,255.75,55,64,70
255.75,256.125,58,64,70
256.5,258.0,58,64,70
258.0,258.1875,50,64,70
258.1875,258.375,53,64,70
258.375,258.5625,50,64,70
258.5625,258.75,53,64,70
258.75,259.125,58,64,70
259.5,260.625,46,64,70
260.625,261.0,46,64,70
261.0,261.375,51,64,70
261.375,261.75,62,64,70
261.75,262.125,60,64,70
262.125,262.5,58,64,70
262.5,262.875,56,64,70
262.875,263.25,55,64,70
263.25,263.625,53,64,70
264.0,264.375,65,64,70
264.375,264.75,63,64,70
264.75,265.125,62,64,70
265.125,265.5,60,64,70
265.5,265.875,58,64,70
265.875,266.25,56,64,70
266.25,266.625,55,64,70
267.0,267.375,55,64,70
267.375,267.75,53,64,70
267.75,268.125,51,64,70
268.125,268.5,50,64,70
268.5,268.875,48,64,70
268.875,269.25,46,64,70
269.25,269.625,44,64,70
269.625,270.0,43,64,70
270.0,270.375,41,64,70
270.375,270.75,51,64,70
270.75,271.125,48,64,70
271.125,271.5,46,64,70
271.5,271.875,51,64,70
271.875,272.25,50,64,70
272.25,272.625,51,64,70
272.625,273.0,48,64,70
273.0,273.375,46,64,70
274.125,274.5,43,64,70
274.5,274.875,44,64,70
274.875,275.25,43,64,70
275.25,275.625,44,64,70
275.625,276.0,43,64,70
276.0,276.375,44,64,70
276.375,276.75,43,64,70
276.75,277.125,50,64,70
277.125,277.5,51,64,70
277.5,277.875,46,64,70
278.625,279.0,55,64,70
279.0,279.375,56,64,70
279.375,279.75,55,64,70
279.75,280.125,56,64,70
280.125,280.5,55,64,70
280.5,280.875,56,64,70
280.875,281.25,55,64,70
281.25,281.625,56,64,70
281.625,282.0,58,64,70
282.0,282.375,51,64,70
283.125,283.5,43,64,70
283.5,283.875,44,64,70
283.875,284.25,43,64,70
284.25,284.625,44,64,70
284.625,285.0,43,64,70
285.0,285.375,44,64,70
285.375,285.75,43,64,70
285.75,286.125,50,64,70
286.125,286.5,51,64,70
286.5,286.875,46,64,70
287.625,288.0,55,64,70
288.0,288.375,56,64,70
288.375,288.75,55,64,70
288.75,289.125,56,64,70
289.125,289.5,55,64,70
289.5,289.875,56,64,70
289.875,290.25,55,64,70
290.25,290.625,53,64,70
290.625,291.0,58,64,70
291.0,291.375,51,64,70
300.375,300.75,51,64,70
300.75,301.125,50,64,70
301.125,301.5,46,64,70
301.5,303.0,48,64,70
308.625,309.0,51,64,70
309.0,309.375,50,64,70
309.375,309.75,46,64,70
309.75,310.125,51,64,70
310.125,310.5,52,64,70
310.5,310.875,53,64,70
311.25,311.625,48,64,70
312.0,312.375,53,64,70
316.125,316.5,57,64,70
316.5,316.875,58,64,70
317.25,317.625,46,64,70
318.0,318.375,51,64,70
322.125,322.5,45,64,70
322.5,322.875,46,64,70
322.875,323.25,46,64,70
323.25,323.625,46,64,70
323.625,324.0,46,64,70
324.0,324.375,39,64,70
328.5,328.875,51,64,70
328.875,329.25,46,64,70
329.25,329.625,51,64,70
329.625,330.0,46,64,70
330.0,330.375,51,64,70
331.5,333.0,51,64,70
333.0,334.5,51,64,70
334.5,334.875,51,64,70
334.875,335.25,46,64,70
335.25,335.625,51,64,70
335.625,336.0,46,64,70
336.0,336.375,51,64,70
337.5,337.875,34,64,70
339.0,339.375,39,64,70
