start_time,end_time,note_value,velocity,instrument_program_number
0.2,0.39583334,81,80,0
0.2,0.39583334,69,80,0
0.4,0.79583335,76,80,0
0.4,0.79583335,64,80,0
1.0,1.0458333,64,80,0
1.05,1.0958333,62,80,0
1.1,1.1458334,61,80,0
1.15,1.1958333,59,80,0
1.2,1.5958333,57,80,0
1.8,1.9958333,81,80,0
1.8,1.9958333,69,80,0
2.0,2.3958333,78,80,0
2.0,2.3958333,66,80,0
2.6,2.6458333,66,80,0
2.65,2.6958334,64,80,0
2.7,2.7458334,62,80,0
2.75,2.7958333,61,80,0
2.8,3.1958334,59,80,0
3.4,3.5958333,74,80,0
3.4,3.5958333,86,80,0
3.6,3.9958334,83,80,0
3.6,3.9958334,71,80,0
4.0,4.3958335,80,80,0
4.0,4.3958335,68,80,0
4.4,4.795833,76,80,0
4.4,4.795833,64,80,0
4.8,5.195833,74,80,0
4.8,5.195833,62,80,0
5.2,5.5958333,71,80,0
5.2,5.5958333,59,80,0
5.6,5.9958334,68,80,0
5.6,5.9958334,56,80,0
6.0,6.3958335,64,80,0
6.0,6.3958335,52,80,0
6.6,6.6625,57,80,0
6.6666665,6.7291665,61,80,0
6.733333,6.795833,64,80,0
6.8,6.9958334,69,100,0
7.0,7.195833,71,80,0
7.2,7.3958335,73,80,0
7.4,7.5958333,74,80,0
7.6,7.795833,76,80,0
7.8,7.9958334,78,80,0
8.0,8.195833,80,80,0
8.2,8.395833,81,80,0
8.6,8.795834,68,80,0
8.4,8.995833,76,80,0
8.8,8.995833,69,80,0
9.0,9.195833,74,80,0
9.0,9.195833,71,80,0
9.2,9.395833,73,80,0
9.2,9.395833,64,80,0
10.2,10.395833,56,80,0
10.2,10.395833,64,80,0
10.4,10.595834,66,80,0
10.4,10.595834,57,80,0
10.6,10.795834,68,80,0
10.6,10.795834,59,80,0
10.8,10.995833,69,80,0
10.8,10.995833,61,80,0
11.0,11.195833,64,80,0
11.2,11.395833,69,80,0
11.4,11.595834,73,80,0
11.6,11.795834,71,80,0
11.8,11.995833,68,80,0
11.6,12.195833,76,80,0
12.0,12.195833,69,80,0
12.2,12.395833,71,80,0
12.2,12.395833,74,80,0
12.4,12.595834,73,80,0
12.6,12.795834,71,80,0
12.4,12.995833,64,80,0
12.8,12.995833,69,80,0
13.0,13.195833,71,80,0
13.0,13.195833,63,80,0
13.2,13.395833,68,70,0
13.2,13.595834,59,70,0
13.4,13.595834,64,70,0
13.6,13.795834,69,70,0
13.6,13.995833,63,70,0
13.6,13.995833,57,70,0
13.8,13.995833,71,70,0
14.0,14.195833,68,70,0
14.0,14.395833,59,70,0
14.2,14.395833,64,70,0
14.4,14.595834,69,70,0
14.4,14.795834,63,70,0
14.4,14.795834,57,70,0
14.6,14.795834,71,70,0
14.8,15.195833,68,70,0
14.8,15.195833,64,70,0
14.8,15.195833,59,70,0
15.2,15.595834,64,70,0
15.2,15.595834,59,70,0
15.2,15.595834,56,70,0
15.6,15.995833,64,70,0
15.6,15.995833,59,70,0
15.6,15.995833,56,70,0
16.2,16.395834,81,110,0
16.2,16.395834,69,110,0
16.4,16.795834,76,110,0
16.4,16.795834,64,110,0
17.0,17.045834,64,110,0
17.05,17.095833,62,110,0
17.1,17.145834,61,110,0
17.15,17.195833,59,110,0
17.2,17.595833,57,110,0
19.8,19.995832,64,80,0
19.8,19.995832,56,80,0
20.0,20.195833,66,80,0
20.0,20.195833,57,80,0
20.2,20.395834,68,80,0
20.2,20.395834,59,80,0
20.4,20.595833,61,80,0
20.4,20.595833,69,80,0
20.6,20.795834,64,80,0
20.8,20.995832,69,80,0
21.0,21.195833,73,80,0
21.2,21.395834,71,80,0
21.4,21.595833,68,80,0
21.2,21.795834,76,110,0
21.6,21.795834,69,80,0
21.8,21.995832,74,80,0
21.8,21.995832,71,80,0
22.0,22.395834,73,80,0
22.0,22.395834,64,80,0
23.0,23.195833,76,80,0
23.0,23.195833,68,80,0
23.2,23.395834,78,80,0
23.2,23.395834,69,80,0
23.4,23.595833,80,80,0
23.4,23.595833,71,80,0
23.6,23.795834,73,80,0
23.6,23.795834,81,80,0
23.8,23.995832,83,80,0
23.8,24.195833,76,80,0
24.0,24.195833,85,80,0
24.2,24.395834,81,80,0
24.2,24.395834,86,80,0
24.4,24.795834,85,80,0
24.4,24.795834,88,80,0
24.8,25.195833,80,80,0
24.8,25.195833,76,80,0
24.8,25.195833,74,80,0
24.8,25.195833,71,80,0
25.2,25.595833,73,110,0
25.2,25.595833,76,110,0
25.2,25.595833,81,110,0
26.8,26.929167,64,110,0
26.866667,26.995832,68,110,0
26.933332,27.0625,69,110,0
27.0,27.129168,71,110,0
27.066668,27.195833,73,110,0
27.133333,27.2625,74,110,0
27.2,27.329166,76,110,0
27.266666,27.395834,80,110,0
27.333334,27.4625,81,110,0
27.4,27.529167,83,110,0
27.466667,27.595833,85,110,0
27.533333,27.595833,86,110,0
27.6,27.795834,88,110,0
27.8,27.995832,86,110,0
28.0,28.195833,85,110,0
28.2,28.395834,83,110,0
28.4,28.795834,81,110,0
30.066668,30.195833,71,110,0
30.133333,30.2625,73,110,0
30.2,30.329166,75,110,0
30.266666,30.395834,76,110,0
30.333334,30.4625,77,110,0
30.4,30.529167,78,110,0
30.466667,30.595833,75,110,0
30.533333,30.6625,76,110,0
30.6,30.729166,78,110,0
30.666666,30.795834,80,110,0
30.733334,30.795834,81,110,0
30.8,30.995832,83,120,0
31.0,31.195833,81,120,0
31.2,31.395834,80,120,0
31.4,31.595833,78,120,0
31.6,31.795834,76,120,0
31.8,31.995832,75,120,0
32.0,32.195835,73,120,0
32.2,32.395832,71,120,0
32.4,32.595833,70,120,0
32.6,32.795834,68,120,0
32.8,32.995834,66,120,0
33.0,33.195835,64,120,0
33.2,33.595833,63,80,0
33.4,33.595833,61,80,0
33.6,33.795834,59,80,0
33.6,33.995834,63,80,0
33.8,33.995834,57,80,0
34.0,34.195835,56,80,0
34.0,34.395832,64,80,0
34.2,34.395832,54,80,0
34.4,34.595833,52,80,0
34.4,34.795834,58,80,0
34.6,34.795834,54,80,0
34.8,34.995834,51,80,0
34.8,35.195835,59,80,0
35.0,35.195835,49,80,0
35.2,35.395832,47,80,0
35.2,35.595833,51,80,0
35.4,35.595833,45,80,0
35.6,35.795834,44,80,0
35.6,35.995834,52,80,0
35.8,35.995834,42,80,0
36.0,36.195835,40,80,0
36.0,36.395832,46,80,0
36.2,36.395832,42,80,0
36.4,36.795834,39,80,0
36.4,36.795834,47,80,0
38.6,38.795834,59,80,0
38.8,38.995834,60,80,0
39.0,39.195835,59,80,0
39.2,39.395832,66,80,0
39.4,39.60129,63,80,0
40.22629,40.43319,59,80,0
40.437653,40.647476,60,80,0
40.65194,40.86176,59,80,0
40.866226,41.076046,66,80,0
41.08051,41.293472,63,80,0
41.964767,42.183964,59,80,0
42.18877,42.414734,60,80,0
42.41954,42.6455,59,80,0
42.65031,42.87627,67,80,0
42.881077,43.10704,64,80,0
43.911846,44.10768,63,115,0
44.111847,44.307682,66,80,0
44.311848,44.50768,69,80,0
44.51185,44.70768,71,80,0
44.711845,44.92167,72,80,0
44.926132,45.135952,71,80,0
45.14042,45.35024,74,80,0
45.354702,45.564526,72,80,0
45.56899,45.77881,71,80,0
45.783276,45.993095,69,80,0
45.99756,46.207382,67,80,0
46.211845,46.421665,66,80,0
46.426132,46.821964,64,100,0
47.02613,47.221966,76,100,0
47.22613,47.421963,75,100,0
47.426132,47.621964,76,100,0
47.626133,47.821964,79,100,0
47.82613,48.021965,76,100,0
48.02613,48.321964,76,100,0
48.32613,48.371964,78,100,0
48.376133,48.421963,76,100,0
48.426132,49.221966,75,100,0
49.22613,49.621964,74,100,0
49.626133,50.221966,74,100,0
50.22613,50.421963,79,100,0
50.426132,50.621964,78,100,0
50.626133,50.821964,79,100,0
50.82613,51.021965,83,100,0
51.02613,51.221966,79,100,0
51.22613,51.521965,79,100,0
51.52613,51.571964,81,100,0
51.57613,51.621964,79,100,0
51.626133,52.421963,78,100,0
52.426132,52.821964,77,100,0
52.82613,53.421963,77,100,0
53.426132,53.621964,82,100,0
53.626133,53.821964,81,100,0
53.82613,54.021965,82,100,0
54.02613,54.221966,86,100,0
54.22613,54.421963,82,100,0
54.426132,54.721966,82,100,0
54.72613,54.771965,84,100,0
54.77613,54.821964,82,100,0
54.82613,55.621964,81,100,0
55.626133,56.021965,81,100,0
56.02613,56.221966,81,100,0
56.22613,56.321964,83,100,0
56.27613,56.371964,81,100,0
56.32613,56.421963,80,100,0
56.376133,56.421963,81,100,0
56.426132,57.221966,72,100,0
56.426132,57.221966,84,100,0
57.22613,57.621964,71,100,0
57.22613,57.621964,83,100,0
57.626133,57.821964,83,100,0
57.82613,57.921963,85,100,0
57.876133,57.971966,83,100,0
57.926132,58.021965,82,100,0
57.97613,58.021965,83,100,0
58.02613,58.821964,74,100,0
58.02613,58.821964,86,100,0
58.82613,59.221966,73,100,0
58.82613,59.221966,85,100,0
59.22613,59.421963,85,100,0
59.426132,59.521965,87,100,0
59.47613,59.571964,85,100,0
59.52613,59.621964,84,100,0
59.57613,59.621964,85,100,0
59.626133,60.421963,76,100,0
59.626133,60.421963,88,100,0
60.426132,60.821964,75,100,0
60.426132,60.821964,87,100,0
60.82613,61.221966,75,100,0
60.82613,61.221966,87,100,0
61.426132,61.521965,60,120,0
61.47613,61.571964,59,120,0
61.52613,61.621964,57,120,0
61.57613,61.621964,55,120,0
61.626133,62.021965,54,120,0
62.22613,62.421963,76,80,0
62.22613,62.421963,88,80,0
62.426132,62.821964,75,80,0
62.426132,62.821964,87,80,0
63.02613,63.121964,60,120,0
63.07613,63.171963,59,120,0
63.126133,63.221966,57,120,0
63.176132,63.221966,55,120,0
63.22613,63.621964,54,120,0
63.82613,64.021965,88,70,0
64.02613,64.42197,87,70,0
64.62613,64.82197,88,70,0
64.82613,65.22196,87,70,0
65.42613,65.62196,88,70,0
65.62613,66.021965,87,70,0
67.02613,67.22196,83,90,0
67.42613,67.5553,76,120,0
67.4928,67.62196,88,120,0
67.55946,67.68863,76,120,0
67.62613,67.755295,71,120,0
67.692795,67.82197,83,120,0
67.75947,67.88863,71,120,0
67.82613,67.9553,68,120,0
67.8928,68.021965,80,120,0
67.959465,68.08863,68,120,0
68.02613,68.1553,64,120,0
68.0928,68.22196,76,120,0
68.15946,68.28863,64,120,0
68.22613,68.3553,59,120,0
68.2928,68.42197,71,120,0
68.35947,68.48863,59,120,0
68.42613,68.5553,56,120,0
68.4928,68.62196,68,120,0
68.55946,68.68863,56,120,0
68.62613,68.755295,52,120,0
68.692795,68.82197,64,120,0
68.75947,68.82197,52,120,0
68.82613,69.62196,52,120,0
68.82613,69.62196,54,120,0
69.62613,70.42197,59,120,0
69.62613,70.42197,51,120,0
70.62613,70.74696,52,120,0
70.692795,70.81363,64,120,0
70.75947,70.880295,52,120,0
70.82613,70.942795,56,120,0
70.8928,71.02613,68,120,0
70.959465,71.0803,56,120,0
71.02613,71.146965,59,120,0
71.0928,71.21363,71,120,0
71.15946,71.271965,59,120,0
71.22613,71.3553,64,120,0
71.2928,71.42197,76,120,0
71.35947,71.48863,64,120,0
71.42613,71.5553,68,120,0
71.4928,71.62196,80,120,0
71.55946,71.68863,68,120,0
71.62613,71.755295,71,120,0
71.692795,71.82197,83,120,0
71.75947,71.88863,71,120,0
71.82613,71.9553,76,120,0
71.8928,72.021965,88,120,0
71.959465,72.021965,76,120,0
72.02613,72.82197,78,120,0
72.02613,72.82197,76,120,0
72.82613,73.62196,75,120,0
72.82613,73.62196,83,120,0
73.62613,73.82197,76,100,0
74.0928,74.22196,80,100,0
74.15946,74.28863,81,100,0
74.22613,74.3553,83,100,0
74.2928,74.42197,85,100,0
74.35947,74.42197,87,100,0
74.42613,74.62196,88,100,0
74.62613,74.82197,87,100,0
74.82613,75.021965,85,100,0
75.02613,75.22196,83,100,0
75.22613,75.42197,81,100,0
75.42613,75.62196,80,100,0
75.62613,75.82197,78,100,0
75.82613,76.021965,76,100,0
76.02613,76.22196,75,100,0
76.82613,77.22196,64,100,0
78.42613,78.5553,61,110,0
78.4928,78.62196,63,110,0
78.55946,78.68863,64,110,0
78.62613,78.755295,66,110,0
78.692795,78.82197,68,110,0
78.75947,78.88863,69,110,0
78.82613,78.9553,71,110,0
78.8928,79.021965,75,110,0
78.959465,79.08863,76,110,0
79.02613,79.1553,78,110,0
79.0928,79.22196,80,110,0
79.15946,79.22196,81,110,0
79.22613,79.42197,83,120,0
79.42613,79.62196,81,120,0
79.62613,79.82197,80,120,0
79.82613,80.021965,78,120,0
80.02613,80.22196,76,120,0
80.22613,80.42197,75,120,0
80.42613,80.62196,73,120,0
80.62613,80.82197,71,120,0
80.82613,81.021965,69,120,0
81.02613,81.22196,68,120,0
81.22613,81.42197,66,120,0
81.42613,81.62196,64,120,0
81.62613,81.82197,63,120,0
81.82613,82.021965,61,120,0
82.02613,82.22196,59,120,0
82.22613,82.42197,57,120,0
82.42613,82.62196,56,120,0
82.62613,82.82197,54,120,0
82.82613,83.021965,52,120,0
83.02613,83.22196,51,120,0
83.22613,83.42197,52,80,0
83.42613,83.62196,54,80,0
83.62613,83.82197,56,80,0
83.82613,84.021965,57,80,0
84.02613,84.22196,59,80,0
84.22613,84.42197,61,80,0
84.42613,84.62196,62,80,0
84.02613,84.82197,69,80,0
84.62613,84.82197,63,80,0
84.82613,85.62196,68,80,0
84.82613,85.62196,64,80,0
84.82613,85.62196,59,80,0
85.62613,86.42197,59,80,0
85.62613,86.42197,57,80,0
85.62613,86.42197,66,80,0
86.42613,86.62196,56,80,0
86.62613,86.82197,54,80,0
86.82613,87.021965,56,80,0
86.42613,87.22196,64,80,0
87.02613,87.22196,57,80,0
87.22613,87.42197,59,80,0
87.42613,87.62196,61,80,0
87.62613,87.82197,62,80,0
87.22613,88.021965,69,80,0
87.82613,88.021965,63,80,0
88.02613,88.82197,68,80,0
88.02613,88.82197,64,80,0
88.02613,88.82197,59,80,0
88.82613,89.62196,59,80,0
88.82613,89.62196,57,80,0
88.82613,89.62196,66,80,0
89.62613,90.021965,64,70,0
89.62613,90.021965,59,70,0
89.62613,90.021965,56,70,0
90.42613,90.82197,64,70,0
90.42613,90.82197,59,70,0
90.42613,90.82197,56,70,0
90.82613,91.22196,64,70,0
90.82613,91.22196,59,70,0
90.82613,91.22196,56,70,0
91.22613,91.65024,64,70,0
91.22613,91.65024,59,70,0
91.22613,91.65024,56,70,0
92.083275,92.578064,59,70,0
92.083275,92.578064,56,70,0
93.083275,93.677025,56,70,0
93.083275,93.677025,52,70,0
94.88327,95.07911,81,80,0
94.88327,95.07911,69,80,0
95.083275,95.4791,76,80,0
95.083275,95.4791,64,80,0
95.68327,95.7291,64,80,0
95.73328,95.779106,62,80,0
95.78327,95.82911,61,80,0
95.833275,95.879105,59,80,0
95.88327,96.279106,57,80,0
96.48328,96.67911,81,80,0
96.48328,96.67911,69,80,0
96.68327,97.07911,78,80,0
96.68327,97.07911,66,80,0
97.28327,97.32911,66,80,0
97.333275,97.379105,64,80,0
97.38327,97.42911,62,80,0
97.43327,97.4791,61,80,0
97.48328,97.879105,59,80,0
98.083275,98.279106,74,80,0
98.083275,98.279106,86,80,0
98.28327,98.67911,83,80,0
98.28327,98.67911,71,80,0
98.68327,99.07911,80,80,0
98.68327,99.07911,68,80,0
99.083275,99.4791,76,80,0
99.083275,99.4791,64,80,0
99.48328,99.879105,74,80,0
99.48328,99.879105,62,80,0
99.88327,100.279106,71,80,0
99.88327,100.279106,59,80,0
100.28327,100.67911,68,80,0
100.28327,100.67911,56,80,0
100.68327,101.07911,64,80,0
100.68327,101.07911,52,80,0
101.28327,101.34577,57,80,0
101.34994,101.41244,61,80,0
101.4166,101.4791,64,80,0
101.48328,101.67911,69,100,0
101.68327,101.879105,71,80,0
101.88327,102.07911,73,80,0
102.083275,102.279106,74,80,0
102.28327,102.4791,76,80,0
102.48328,102.67911,78,80,0
102.68327,102.879105,80,80,0
102.88327,103.07911,81,80,0
103.28327,103.4791,68,80,0
103.083275,103.67911,76,80,0
103.48328,103.67911,69,80,0
103.68327,103.879105,74,80,0
103.68327,103.879105,71,80,0
103.88327,104.07911,73,80,0
103.88327,104.07911,64,80,0
104.88327,105.07911,56,80,0
104.88327,105.07911,64,80,0
105.083275,105.279106,66,80,0
105.083275,105.279106,57,80,0
105.28327,105.4791,68,80,0
105.28327,105.4791,59,80,0
105.48328,105.67911,69,80,0
105.48328,105.67911,61,80,0
105.68327,105.879105,64,80,0
105.88327,106.07911,69,80,0
106.083275,106.279106,73,80,0
106.28327,106.4791,71,80,0
106.48328,106.67911,68,80,0
106.28327,106.879105,76,80,0
106.68327,106.879105,69,80,0
106.88327,107.07911,71,80,0
106.88327,107.07911,74,80,0
107.083275,107.279106,73,80,0
107.28327,107.4791,71,80,0
107.083275,107.67911,64,80,0
107.48328,107.67911,69,80,0
107.68327,107.879105,71,80,0
107.68327,107.879105,63,80,0
107.88327,108.07911,68,70,0
107.88327,108.279106,59,70,0
108.083275,108.279106,64,70,0
108.28327,108.4791,69,70,0
108.28327,108.67911,63,70,0
108.28327,108.67911,57,70,0
108.48328,108.67911,71,70,0
108.68327,108.879105,68,70,0
108.68327,109.07911,59,70,0
108.88327,109.07911,64,70,0
109.083275,109.279106,69,70,0
109.083275,109.4791,63,70,0
109.083275,109.4791,57,70,0
109.28327,109.4791,71,70,0
109.48328,109.879105,68,70,0
109.48328,109.879105,64,70,0
109.48328,109.879105,59,70,0
109.88327,110.279106,64,70,0
109.88327,110.279106,59,70,0
109.88327,110.279106,56,70,0
110.28327,110.67911,64,70,0
110.28327,110.67911,59,70,0
110.28327,110.67911,56,70,0
110.88327,111.07911,81,100,0
110.88327,111.07911,69,100,0
111.083275,111.4791,76,100,0
111.083275,111.4791,64,100,0
111.68327,111.7291,64,100,0
111.73328,111.779106,62,100,0
111.78327,111.82911,61,100,0
111.833275,111.879105,59,100,0
111.88327,112.279106,57,100,0
114.48328,114.67911,64,80,0
114.48328,114.67911,56,80,0
114.68327,114.879105,66,80,0
114.68327,114.879105,57,80,0
114.88327,115.07911,68,80,0
114.88327,115.07911,59,80,0
115.083275,115.279106,61,80,0
115.083275,115.279106,69,80,0
115.28327,115.4791,64,80,0
115.48328,115.67911,69,80,0
115.68327,115.879105,73,80,0
115.88327,116.07911,71,80,0
116.083275,116.279106,68,80,0
115.88327,116.4791,76,106,0
116.28327,116.4791,69,80,0
116.48328,116.67911,74,80,0
116.48328,116.67911,71,80,0
116.68327,117.07911,73,80,0
116.68327,117.07911,64,80,0
117.68327,117.879105,76,80,0
117.68327,117.879105,68,80,0
117.88327,118.07911,78,80,0
117.88327,118.07911,69,80,0
118.083275,118.279106,80,80,0
118.083275,118.279106,71,80,0
118.28327,118.4791,73,80,0
118.28327,118.4791,81,80,0
118.48328,118.67911,83,80,0
118.48328,118.879105,76,80,0
118.68327,118.879105,85,80,0
118.88327,119.07911,81,80,0
118.88327,119.07911,86,80,0
119.083275,119.4791,85,80,0
119.083275,119.4791,88,80,0
119.48328,119.879105,80,80,0
119.48328,119.879105,76,80,0
119.48328,119.879105,74,80,0
119.48328,119.879105,71,80,0
119.88327,120.279106,73,110,0
119.88327,120.279106,76,110,0
119.88327,120.279106,81,110,0
121.48328,121.61244,64,110,0
121.54994,121.67911,68,110,0
121.61661,121.74577,69,110,0
121.68327,121.81244,71,110,0
121.74994,121.879105,73,110,0
121.816605,121.94577,74,110,0
121.88327,122.01244,76,110,0
121.94994,122.07911,80,110,0
122.01661,122.145775,81,110,0
122.083275,122.21244,83,110,0
122.14994,122.279106,85,110,0
122.216606,122.279106,86,110,0
122.28327,122.4791,88,110,0
122.48328,122.67911,86,110,0
122.68327,122.879105,85,110,0
122.88327,123.07911,83,110,0
123.083275,123.4791,81,110,0
124.74994,124.879105,71,110,0
124.816605,124.94577,73,110,0
124.88327,125.01244,75,110,0
124.94994,125.07911,76,110,0
125.01661,125.145775,77,110,0
125.083275,125.21244,78,110,0
125.14994,125.279106,75,110,0
125.216606,125.34577,76,110,0
125.28327,125.41244,78,110,0
125.34994,125.4791,80,110,0
125.4166,125.4791,81,110,0
125.48328,125.67911,83,120,0
125.68327,125.879105,81,120,0
125.88327,126.07911,80,120,0
126.083275,126.279106,78,120,0
126.28327,126.4791,76,120,0
126.48328,126.67911,75,120,0
126.68327,126.879105,73,120,0
126.88327,127.07911,71,120,0
127.083275,127.279106,70,120,0
127.28327,127.4791,68,120,0
127.48328,127.67911,66,120,0
127.68327,127.879105,64,120,0
127.88327,128.27911,63,80,0
128.08327,128.27911,61,80,0
128.28328,128.47911,59,80,0
128.28328,128.67911,63,80,0
128.48328,128.67911,57,80,0
128.68327,128.8791,56,80,0
128.68327,129.0791,64,80,0
128.88327,129.0791,54,80,0
129.08327,129.27911,52,80,0
129.08327,129.47911,58,80,0
129.28328,129.47911,54,80,0
129.48328,129.67911,51,80,0
129.48328,129.8791,59,80,0
129.68327,129.8791,49,80,0
129.88327,130.0791,47,80,0
129.88327,130.27911,51,80,0
130.08327,130.27911,45,80,0
130.28328,130.47911,44,80,0
130.28328,130.67911,52,80,0
130.48328,130.67911,42,80,0
130.68327,130.8791,40,80,0
130.68327,131.0791,46,80,0
130.88327,131.0791,42,80,0
131.08327,131.47911,39,80,0
131.08327,131.47911,47,80,0
133.28328,133.47911,59,80,0
133.48328,133.67911,60,80,0
133.68327,133.8791,59,80,0
133.88327,134.0791,66,80,0
134.08327,134.28456,63,80,0
134.90956,135.11646,59,80,0
135.12093,135.33075,60,80,0
135.3352,135.54503,59,80,0
135.5495,135.75932,66,80,0
135.76378,135.97675,63,80,0
136.64804,136.86723,59,80,0
136.87204,137.098,60,80,0
137.10281,137.32878,59,80,0
137.33359,137.55954,67,80,0
137.56435,137.79031,64,80,0
138.62271,138.82529,63,100,0
138.8296,139.0322,66,100,0
139.0365,139.23909,69,100,0
139.2434,139.44598,71,100,0
139.45029,139.66011,72,100,0
139.66458,139.8744,71,100,0
139.87886,140.08868,74,100,0
140.09315,140.30296,72,100,0
140.30743,140.52502,71,100,0
140.52966,140.74725,69,100,0
140.75188,140.96947,67,100,0
140.9741,141.1917,66,100,0
141.19632,141.59216,64,100,0
141.79633,141.99216,76,100,0
141.99632,142.19215,75,100,0
142.19632,142.39215,76,100,0
142.39632,142.59216,79,100,0
142.59633,142.79216,76,100,0
142.79633,143.09216,76,100,0
143.09633,143.14215,78,100,0
143.14632,143.19215,76,100,0
143.19632,143.99216,75,100,0
143.99632,144.39215,74,100,0
144.39632,144.99216,74,100,0
144.99632,145.19215,79,100,0
145.19632,145.39215,78,100,0
145.39632,145.59216,79,100,0
145.59633,145.79216,83,100,0
145.79633,145.99216,79,100,0
145.99632,146.29216,79,100,0
146.29633,146.34216,81,100,0
146.34633,146.39215,79,100,0
146.39632,147.19215,78,100,0
147.19632,147.59216,77,100,0
147.59633,148.19215,77,100,0
148.19632,148.39215,82,100,0
148.39632,148.59216,81,100,0
148.59633,148.79216,82,100,0
148.79633,148.99216,86,100,0
148.99632,149.19215,82,100,0
149.19632,149.49216,82,100,0
149.49632,149.54216,84,100,0
149.54633,149.59216,82,100,0
149.59633,150.39215,81,100,0
150.39632,150.79216,81,100,0
150.79633,150.99216,81,100,0
150.99632,151.09216,83,100,0
151.04633,151.14215,81,100,0
151.09633,151.19215,80,100,0
151.14632,151.19215,81,100,0
151.19632,151.99216,72,100,0
151.19632,151.99216,84,100,0
151.99632,152.39215,71,100,0
151.99632,152.39215,83,100,0
152.39632,152.59216,83,100,0
152.59633,152.69215,85,100,0
152.64632,152.74216,83,100,0
152.69632,152.79216,82,100,0
152.74632,152.79216,83,100,0
152.79633,153.59216,74,100,0
152.79633,153.59216,86,100,0
153.59633,153.99216,73,100,0
153.59633,153.99216,85,100,0
153.99632,154.19215,85,100,0
154.19632,154.29216,87,100,0
154.24632,154.34216,85,100,0
154.29633,154.39215,84,100,0
154.34633,154.39215,85,100,0
154.39632,155.19215,76,100,0
154.39632,155.19215,88,100,0
155.19632,155.59216,75,100,0
155.19632,155.59216,87,100,0
155.59633,155.99216,75,100,0
155.59633,155.99216,87,100,0
156.19632,156.29216,60,120,0
156.24632,156.34216,59,120,0
156.29633,156.39215,57,120,0
156.34633,156.39215,55,120,0
156.39632,156.79216,54,120,0
156.99632,157.19215,76,100,0
156.99632,157.19215,88,100,0
157.19632,157.59216,75,100,0
157.19632,157.59216,87,100,0
157.79633,157.89215,60,120,0
157.84633,157.94215,59,120,0
157.89632,157.99216,57,120,0
157.94632,157.99216,55,120,0
157.99632,158.39215,54,120,0
158.59633,158.79216,88,90,0
158.79633,159.19215,87,90,0
159.39632,159.59216,88,90,0
159.59633,159.99216,87,90,0
160.19632,160.39215,88,90,0
160.39632,160.79216,87,90,0
161.79633,161.99216,83,90,0
162.19632,162.32549,76,120,0
162.26299,162.39215,88,120,0
162.32965,162.45882,76,120,0
162.39632,162.52548,71,120,0
162.46298,162.59216,83,120,0
162.52966,162.65883,71,120,0
162.59633,162.7255,68,120,0
162.663,162.79216,80,120,0
162.72966,162.85883,68,120,0
162.79633,162.92549,64,120,0
162.86299,162.99216,76,120,0
162.92966,163.05882,64,120,0
162.99632,163.12549,59,120,0
163.06299,163.19215,71,120,0
163.12965,163.25882,59,120,0
163.19632,163.32549,56,120,0
163.26299,163.39215,68,120,0
163.32965,163.45882,56,120,0
163.39632,163.52548,52,120,0
163.46298,163.59216,64,120,0
163.52966,163.59216,52,120,0
163.59633,164.39215,52,120,0
163.59633,164.39215,54,120,0
164.39632,165.19215,59,120,0
164.39632,165.19215,51,120,0
165.39632,165.51715,52,120,0
165.46298,165.58382,64,120,0
165.52966,165.65048,52,120,0
165.59633,165.71298,56,120,0
165.663,165.79633,68,120,0
165.72966,165.8505,56,120,0
165.79633,165.91716,59,120,0
165.86299,165.98383,71,120,0
165.92966,166.04216,59,120,0
165.99632,166.12549,64,120,0
166.06299,166.19215,76,120,0
166.12965,166.25882,64,120,0
166.19632,166.32549,68,120,0
166.26299,166.39215,80,120,0
166.32965,166.45882,68,120,0
166.39632,166.52548,71,120,0
166.46298,166.59216,83,120,0
166.52966,166.65883,71,120,0
166.59633,166.7255,76,120,0
166.663,166.79216,88,120,0
166.72966,166.79216,76,120,0
166.79633,167.59216,78,120,0
166.79633,167.59216,76,120,0
167.59633,168.39215,75,120,0
167.59633,168.39215,83,120,0
168.39632,168.59216,76,100,0
168.86299,168.99216,80,100,0
168.92966,169.05882,81,100,0
168.99632,169.12549,83,100,0
169.06299,169.19215,85,100,0
169.12965,169.19215,87,100,0
169.19632,169.39215,88,100,0
169.39632,169.59216,87,100,0
169.59633,169.79216,85,100,0
169.79633,169.99216,83,100,0
169.99632,170.19215,81,100,0
170.19632,170.39215,80,100,0
170.39632,170.59216,78,100,0
170.59633,170.79216,76,100,0
170.79633,170.99216,75,100,0
171.59633,171.99216,64,100,0
173.19632,173.32549,61,110,0
173.26299,173.39215,63,110,0
173.32965,173.45882,64,110,0
173.39632,173.52548,66,110,0
173.46298,173.59216,68,110,0
173.52966,173.65883,69,110,0
173.59633,173.7255,71,110,0
173.663,173.79216,75,110,0
173.72966,173.85883,76,110,0
173.79633,173.92549,78,110,0
173.86299,173.99216,80,110,0
173.92966,173.99216,81,110,0
173.99632,174.19215,83,120,0
174.19632,174.39215,81,120,0
174.39632,174.59216,80,120,0
174.59633,174.79216,78,120,0
174.79633,174.99216,76,120,0
174.99632,175.19215,75,120,0
175.19632,175.39215,73,120,0
175.39632,175.59216,71,120,0
175.59633,175.79216,69,120,0
175.79633,175.99216,68,120,0
175.99632,176.19215,66,120,0
176.19632,176.39215,64,120,0
176.39632,176.59216,63,120,0
176.59633,176.79216,61,120,0
176.79633,176.99216,59,120,0
176.99632,177.19215,57,120,0
177.19632,177.39215,56,120,0
177.39632,177.59216,54,120,0
177.59633,177.79216,52,120,0
177.79633,177.99216,51,120,0
177.99632,178.19215,52,80,0
178.19632,178.39215,54,80,0
178.39632,178.59216,56,80,0
178.59633,178.79216,57,80,0
178.79633,178.99216,59,80,0
178.99632,179.19215,61,80,0
179.19632,179.39215,62,80,0
178.79633,179.59216,69,80,0
179.39632,179.59216,63,80,0
179.59633,180.39215,68,80,0
179.59633,180.39215,64,80,0
179.59633,180.39215,59,80,0
180.39632,181.19215,59,80,0
180.39632,181.19215,57,80,0
180.39632,181.19215,66,80,0
181.19632,181.39215,56,80,0
181.39632,181.59216,54,80,0
181.59633,181.79216,56,80,0
181.19632,181.99216,64,80,0
181.79633,181.99216,57,80,0
181.99632,182.19215,59,80,0
182.19632,182.39215,61,80,0
182.39632,182.59216,62,80,0
181.99632,182.79216,69,80,0
182.59633,182.79216,63,80,0
182.79633,183.59216,68,80,0
182.79633,183.59216,64,80,0
182.79633,183.59216,59,80,0
183.59633,184.39215,59,80,0
183.59633,184.39215,57,80,0
183.59633,184.39215,66,80,0
184.39632,184.79216,64,70,0
184.39632,184.79216,59,70,0
184.39632,184.79216,56,70,0
185.19632,185.59216,64,70,0
185.19632,185.59216,59,70,0
185.19632,185.59216,56,70,0
185.59633,185.99216,64,70,0
185.59633,185.99216,59,70,0
185.59633,185.99216,56,70,0
185.99632,186.42043,64,70,0
185.99632,186.42043,59,70,0
185.99632,186.42043,56,70,0
186.85347,187.34825,59,70,0
186.85347,187.34825,56,70,0
187.85347,188.44722,56,70,0
187.85347,188.44722,52,70,0
191.25346,191.74826,67,70,0
191.25346,191.74826,71,70,0
192.25346,192.74826,67,70,0
193.80347,193.9993,72,110,0
193.80347,193.9993,84,110,0
194.00346,194.39929,67,110,0
194.00346,194.39929,79,110,0
194.60347,194.6993,67,110,0
194.65346,194.7493,65,110,0
194.70346,194.7993,64,110,0
194.75346,194.7993,62,110,0
194.80347,195.1993,60,110,0
195.40346,195.5993,72,110,0
195.40346,195.5993,84,110,0
195.60347,195.9993,69,110,0
195.60347,195.9993,81,110,0
196.20346,196.2993,69,110,0
196.25346,196.3493,67,110,0
196.30347,196.39929,65,110,0
196.35347,196.39929,64,110,0
196.40346,196.7993,62,110,0
197.00346,197.1993,77,110,0
197.00346,197.1993,89,110,0
197.20346,197.5993,86,110,0
197.20346,197.5993,74,110,0
197.60347,197.9993,83,110,0
197.60347,197.9993,71,110,0
198.00346,198.39929,79,110,0
198.00346,198.39929,67,110,0
198.40346,198.7993,77,110,0
198.40346,198.7993,65,110,0
198.80347,199.1993,74,110,0
198.80347,199.1993,62,110,0
199.20346,199.5993,71,110,0
199.20346,199.5993,59,110,0
199.60347,199.9993,67,110,0
199.60347,199.9993,55,110,0
200.00346,200.39929,67,120,0
200.00346,200.39929,55,120,0
200.40346,200.57013,68,110,0
200.40346,200.5993,56,110,0
200.50346,200.68263,63,110,0
200.60347,200.77846,60,110,0
200.60347,200.79514,56,110,0
200.70346,200.8868,63,110,0
200.80347,200.96179,60,110,0
200.80347,200.9743,56,110,0
200.90346,201.0743,63,110,0
201.00346,201.15762,60,110,0
201.00346,201.16597,56,110,0
201.10347,201.27846,63,110,0
201.20346,201.37846,60,110,0
201.20346,201.39513,56,110,0
201.30347,201.47847,63,110,0
201.40346,201.56596,56,110,0
201.40346,201.57013,60,110,0
201.50346,201.6868,63,110,0
201.60347,201.7618,60,110,0
201.60347,201.77013,56,110,0
201.70346,201.8743,63,110,0
201.80347,201.97012,56,110,0
201.80347,201.99513,60,110,0
201.90346,202.07013,63,110,0
202.00346,202.17014,60,110,0
202.00346,202.1743,56,110,0
202.10347,202.26596,63,110,0
202.20346,202.3618,60,110,0
202.20346,202.3868,56,110,0
202.30347,202.4868,63,110,0
202.40346,202.57846,60,110,0
202.40346,202.58263,56,110,0
202.50346,202.69096,63,110,0
202.60347,202.77846,56,110,0
202.60347,202.7868,60,110,0
202.60347,202.7993,87,110,0
202.70346,202.8618,63,110,0
202.80347,202.96596,56,110,0
202.80347,202.97012,60,110,0
202.90346,203.09096,63,110,0
203.00346,203.17847,60,110,0
203.00346,203.17847,56,110,0
202.80347,203.1993,84,110,0
203.10347,203.28262,63,110,0
203.20346,203.3743,60,110,0
203.20346,203.37846,56,110,0
203.30347,203.49097,63,110,0
203.40346,203.59096,56,110,0
203.40346,203.59512,60,110,0
203.20346,203.5993,80,110,0
203.50346,203.6743,63,110,0
203.60347,203.77846,56,110,0
203.60347,203.82846,60,110,0
203.80347,203.82846,60,110,0
203.70346,203.86597,63,110,0
203.80347,203.96596,56,110,0
203.60347,203.9993,75,110,0
203.90346,204.07846,63,110,0
204.00346,204.16597,56,110,0
204.00346,204.18263,60,110,0
204.10347,204.29097,63,110,0
204.20346,204.37013,60,110,0
204.20346,204.3868,56,110,0
204.00346,204.39929,72,110,0
204.30347,204.47012,63,110,0
204.40346,204.5743,60,110,0
204.40346,204.58263,56,110,0
204.50346,204.68263,63,110,0
204.60347,204.76596,60,110,0
204.60347,204.79097,56,110,0
204.40346,204.7993,70,110,0
204.70346,204.87846,63,110,0
204.80347,204.96596,56,110,0
204.80347,204.97847,60,110,0
204.90346,205.05763,63,110,0
205.00346,205.1618,56,110,0
205.00346,205.18263,60,110,0
204.80347,205.1993,68,110,0
205.10347,205.27846,63,110,0
205.20346,205.3743,61,110,0
205.20346,205.37846,55,110,0
205.20346,205.3868,58,110,0
205.30347,205.49097,63,110,0
205.40346,205.55347,58,110,0
205.40346,205.57846,55,110,0
205.40346,205.59512,61,110,0
205.20346,205.5993,67,110,0
205.50346,205.6618,63,110,0
205.60347,205.7618,58,110,0
205.60347,205.7618,55,110,0
205.60347,205.77429,61,110,0
205.70346,205.85347,63,110,0
205.80347,205.96596,58,110,0
205.80347,205.96596,55,110,0
205.80347,205.97847,61,110,0
205.90346,206.06596,63,110,0
206.00346,206.16597,61,110,0
206.00346,206.16597,58,110,0
206.00346,206.1868,55,110,0
206.10347,206.2993,63,110,0
206.20346,206.35347,61,110,0
206.20346,206.3618,58,110,0
206.20346,206.36597,55,110,0
206.30347,206.4868,63,110,0
206.40346,206.57013,58,110,0
206.40346,206.5743,55,110,0
206.40346,206.57846,61,110,0
206.50346,206.68263,63,110,0
206.60347,206.7618,55,110,0
206.60347,206.77013,61,110,0
206.60347,206.77846,58,110,0
206.70346,206.89096,63,110,0
206.80347,206.97012,61,110,0
206.80347,206.97012,58,110,0
206.80347,206.97012,55,110,0
206.90346,207.0743,63,110,0
207.00346,207.1618,58,110,0
207.00346,207.16597,61,110,0
207.00346,207.17014,55,110,0
207.10347,207.26596,63,110,0
207.20346,207.3743,61,110,0
207.20346,207.3743,58,110,0
207.20346,207.39929,55,110,0
207.30347,207.46179,63,110,0
207.40346,207.57013,61,110,0
207.40346,207.57013,55,110,0
207.40346,207.5743,58,110,0
207.40346,207.5993,85,110,0
207.50346,207.67847,63,110,0
207.60347,207.77013,58,110,0
207.60347,207.77013,55,110,0
207.60347,207.78262,61,110,0
207.70346,207.86597,63,110,0
207.80347,207.97012,61,110,0
207.80347,207.9743,58,110,0
207.80347,207.9743,55,110,0
207.60347,207.9993,82,110,0
207.90346,208.07013,63,110,0
208.00346,208.17847,61,110,0
208.00346,208.19096,58,110,0
208.00346,208.19096,55,110,0
208.10347,208.28262,63,110,0
208.20346,208.37846,61,110,0
208.20346,208.38263,55,110,0
208.20346,208.39513,58,110,0
208.00346,208.39929,79,110,0
208.30347,208.4743,63,110,0
208.40346,208.57013,61,110,0
208.40346,208.57846,58,110,0
208.40346,208.58679,55,110,0
208.50346,208.68263,63,110,0
208.60347,208.77429,61,110,0
208.60347,208.77846,55,110,0
208.60347,208.7868,58,110,0
208.40346,208.7993,73,110,0
208.70346,208.88263,63,110,0
208.80347,208.95763,55,110,0
208.80347,208.9743,61,110,0
208.80347,208.9993,58,110,0
208.90346,209.08679,63,110,0
209.00346,209.17014,58,110,0
209.00346,209.1743,61,110,0
209.00346,209.1743,55,110,0
208.80347,209.1993,70,110,0
209.10347,209.27013,63,110,0
209.20346,209.37846,58,110,0
209.20346,209.3868,55,110,0
209.30347,209.4743,61,110,0
209.40346,209.5618,55,110,0
209.40346,209.57013,58,110,0
209.20346,209.5993,67,110,0
209.50346,209.66597,61,110,0
209.60347,209.75763,58,110,0
209.60347,209.76596,55,110,0
209.70346,209.87013,61,110,0
209.80347,209.96179,55,110,0
209.80347,209.96596,58,110,0
209.60347,209.9993,65,110,0
209.90346,210.07013,61,110,0
210.00346,210.14929,58,110,0
210.00346,210.18263,55,110,0
210.10347,210.25763,60,110,0
210.20346,210.35764,55,110,0
210.20346,210.37846,58,110,0
210.00346,210.39929,64,120,0
210.30347,210.4743,60,110,0
210.40346,210.56596,58,110,0
210.40346,210.57846,55,110,0
210.50346,210.6618,60,110,0
210.60347,210.76596,55,110,0
210.60347,210.77429,58,110,0
210.70346,210.87013,60,110,0
210.80347,210.9493,58,110,0
210.80347,210.9743,55,110,0
210.90346,211.08263,60,110,0
211.00346,211.15346,58,110,0
211.00346,211.1868,55,110,0
211.10347,211.27013,60,110,0
211.20346,211.3493,55,110,0
211.20346,211.3618,58,110,0
211.30347,211.45763,60,110,0
211.40346,211.55763,55,110,0
211.40346,211.56596,58,110,0
211.50346,211.6743,60,110,0
211.60347,211.77429,58,110,0
211.60347,211.77846,55,110,0
211.70346,211.87846,60,110,0
211.80347,211.96596,55,110,0
211.80347,211.96596,58,110,0
211.90346,212.06596,60,110,0
212.00346,212.1743,58,110,0
212.00346,212.17847,55,110,0
212.10347,212.2868,60,110,0
212.20346,212.37013,55,110,0
212.20346,212.3743,58,110,0
212.20346,212.39929,82,110,0
212.30347,212.47847,60,110,0
212.40346,212.57013,58,110,0
212.40346,212.5743,55,110,0
212.50346,212.6743,60,110,0
212.60347,212.77013,55,110,0
212.60347,212.77429,58,110,0
212.40346,212.7993,79,110,0
212.70346,212.87846,60,110,0
212.80347,212.97012,55,110,0
212.80347,212.9868,58,110,0
212.90346,213.0743,60,110,0
213.00346,213.17014,55,110,0
213.00346,213.1743,58,110,0
212.80347,213.1993,76,120,0
213.10347,213.2868,60,110,0
213.20346,213.3618,58,110,0
213.20346,213.3868,55,110,0
213.30347,213.45763,60,110,0
213.40346,213.56596,55,110,0
213.40346,213.5743,58,110,0
213.20346,213.5993,72,120,0
213.50346,213.67014,60,110,0
213.60347,213.7618,58,110,0
213.60347,213.79097,55,110,0
213.70346,213.8493,60,110,0
213.80347,213.95346,55,110,0
213.80347,213.9743,58,110,0
213.60347,213.9993,70,121,0
213.90346,214.06596,60,110,0
214.00346,214.1743,55,110,0
214.00346,214.17847,58,110,0
214.10347,214.2618,60,110,0
214.20346,214.36597,55,110,0
214.20346,214.36597,58,110,0
214.00346,214.39929,67,120,0
214.30347,214.47012,60,110,0
214.40346,214.56596,55,110,0
214.40346,214.57013,58,110,0
214.50346,214.64929,60,110,0
214.60347,214.77429,55,110,0
214.40346,214.7993,64,120,0
214.60347,214.7993,58,110,0
214.70346,214.8868,60,110,0
214.80347,214.97847,53,110,0
214.80347,214.9868,56,110,0
214.90346,215.07013,60,110,0
215.00346,215.17847,53,110,0
215.00346,215.17847,56,110,0
215.10347,215.28262,60,110,0
215.20346,215.3743,56,110,0
215.20346,215.37846,53,110,0
215.30347,215.49097,60,110,0
215.40346,215.5618,53,110,0
215.40346,215.58263,56,110,0
215.40346,215.5993,84,120,0
215.50346,215.6743,60,110,0
215.60347,215.77429,53,110,0
215.60347,215.77429,56,110,0
215.70346,215.87013,60,110,0
215.80347,215.97012,53,110,0
215.80347,215.98264,56,110,0
215.60347,215.9993,80,122,0
215.90346,216.0618,60,110,0
216.00346,216.1618,56,110,0
216.00346,216.16597,53,110,0
216.10347,216.27013,60,110,0
216.20346,216.35764,53,110,0
216.20346,216.37013,56,110,0
216.00346,216.39929,77,120,0
216.30347,216.46596,60,110,0
216.40346,216.56596,53,110,0
216.40346,216.56596,56,110,0
216.50346,216.64513,60,110,0
216.60347,216.75346,53,110,0
216.60347,216.75763,56,110,0
216.40346,216.7993,72,120,0
216.70346,216.85347,60,110,0
216.80347,216.95763,53,110,0
216.80347,216.96179,56,110,0
216.90346,217.04514,60,110,0
217.00346,217.1618,53,110,0
217.00346,217.1618,56,110,0
216.80347,217.1993,72,120,0
217.10347,217.26596,60,110,0
217.20346,217.37013,53,110,0
217.20346,217.37846,56,110,0
217.30347,217.45346,60,110,0
217.40346,217.55347,53,110,0
217.40346,217.5618,56,110,0
217.20346,217.5993,68,121,0
217.50346,217.6618,60,110,0
217.60347,217.77429,56,110,0
217.60347,217.77846,53,110,0
217.70346,217.8743,60,110,0
217.80347,217.9868,53,110,0
217.80347,217.99097,56,110,0
217.60347,217.9993,65,123,0
217.90346,218.0743,60,110,0
218.00346,218.1618,53,110,0
218.00346,218.16597,56,110,0
218.00346,218.16597,59,110,0
218.00346,218.16597,62,110,0
218.10347,218.16597,62,110,0
218.20346,218.25763,62,110,0
218.20346,218.37013,59,110,0
218.20346,218.3743,56,110,0
218.30347,218.3743,62,110,0
218.20346,218.3743,53,110,0
218.40346,218.4993,62,110,0
218.40346,218.56596,56,110,0
218.50346,218.57013,62,110,0
218.40346,218.5743,59,110,0
218.40346,218.5743,53,110,0
218.60347,218.6743,62,110,0
218.60347,218.75346,56,110,0
218.70346,218.76596,62,110,0
218.60347,218.77429,53,110,0
218.60347,218.78262,59,110,0
218.60347,218.7993,89,119,0
218.80347,218.85764,62,110,0
218.80347,218.95763,56,110,0
218.80347,218.96596,59,110,0
218.80347,218.96596,53,110,0
218.90346,218.97012,62,110,0
219.00346,219.0743,62,110,0
219.00346,219.15346,56,110,0
219.00346,219.15346,59,110,0
219.10347,219.18263,62,110,0
219.00346,219.1868,53,110,0
218.80347,219.1993,86,120,0
219.20346,219.27429,62,110,0
219.20346,219.3618,56,110,0
219.30347,219.36597,62,110,0
219.20346,219.36597,53,110,0
219.20346,219.38263,59,110,0
219.40346,219.45763,62,110,0
219.40346,219.55763,56,110,0
219.40346,219.5618,59,110,0
219.50346,219.57013,62,110,0
219.40346,219.5743,53,110,0
219.20346,219.5993,83,122,0
219.60347,219.67014,62,110,0
219.60347,219.7618,56,110,0
219.70346,219.7618,62,110,0
219.60347,219.76596,53,110,0
219.60347,219.77013,59,110,0
219.80347,219.8743,62,110,0
219.80347,219.96179,56,110,0
219.90346,219.97012,62,110,0
219.80347,219.9743,59,110,0
219.80347,219.97847,53,110,0
219.60347,219.9993,80,120,0
220.00346,220.0743,62,110,0
220.00346,220.17014,59,110,0
220.10347,220.17014,62,110,0
220.00346,220.1743,56,110,0
220.00346,220.18263,53,110,0
220.20346,220.26596,62,110,0
220.20346,220.35764,59,110,0
220.20346,220.3618,56,110,0
220.20346,220.36597,53,110,0
220.30347,220.37846,62,110,0
220.00346,220.39929,77,120,0
220.40346,220.46596,62,110,0
220.40346,220.57013,56,110,0
220.40346,220.5743,59,110,0
220.50346,220.5743,62,110,0
220.40346,220.5743,53,110,0
220.60347,220.6618,62,110,0
220.60347,220.76596,56,110,0
220.70346,220.77013,62,110,0
220.60347,220.7868,53,110,0
220.40346,220.7993,74,120,0
220.60347,220.7993,59,110,0
220.80347,220.89513,62,110,0
220.90346,220.9743,62,110,0
220.80347,220.97847,59,110,0
220.80347,220.9868,53,110,0
220.80347,220.9993,56,110,0
221.00346,221.06596,62,110,0
221.00346,221.15346,53,110,0
221.00346,221.15762,59,110,0
221.10347,221.15762,62,110,0
221.00346,221.17847,56,110,0
220.80347,221.1993,71,123,0
221.20346,221.35347,52,110,0
221.20346,221.35347,55,110,0
221.30347,221.45763,60,110,0
221.40346,221.55347,55,110,0
221.40346,221.56596,52,110,0
221.20346,221.5993,72,122,0
221.50346,221.67014,60,110,0
221.60347,221.77013,52,110,0
221.60347,221.77013,55,110,0
221.70346,221.8743,60,110,0
221.80347,221.96596,52,110,0
221.80347,221.97847,55,110,0
221.90346,222.09096,60,110,0
222.00346,222.16597,52,110,0
222.00346,222.17014,55,110,0
222.10347,222.27013,60,110,0
222.20346,222.37846,55,110,0
222.20346,222.38263,52,110,0
222.30347,222.47012,60,110,0
222.40346,222.56596,52,110,0
222.40346,222.57846,55,110,0
222.50346,222.66597,60,110,0
222.60347,222.77013,52,110,0
222.60347,222.77013,55,110,0
222.70346,222.7993,60,110,0
222.80347,223.27846,60,100,0
222.80347,223.27846,55,100,0
222.80347,223.27846,52,100,0
223.76346,224.35721,60,100,0
223.76346,224.35721,55,100,0
223.76346,224.35721,52,100,0
224.96347,227.0593,52,100,0
224.96347,227.0593,55,100,0
224.96347,227.0593,60,100,0
227.06346,227.19263,53,100,0
227.13013,227.2593,57,100,0
227.1968,227.2593,60,100,0
227.26346,227.4593,65,110,0
227.46347,227.6593,67,100,0
227.66347,227.8593,69,100,0
227.86346,228.0593,70,100,0
228.06346,228.2593,72,100,0
228.26346,228.4593,74,100,0
228.46347,228.6593,76,100,0
228.66347,228.8593,77,100,0
229.06346,229.2593,64,100,0
228.86346,229.4593,72,100,0
229.26346,229.4593,65,100,0
229.46347,229.6593,67,100,0
229.46347,229.6593,70,100,0
229.66347,229.8593,60,100,0
229.66347,229.8593,69,100,0
230.66347,230.8593,60,100,0
230.66347,230.8593,52,100,0
230.86346,231.0593,53,100,0
230.86346,231.0593,62,100,0
231.06346,231.2593,64,100,0
231.06346,231.2593,55,100,0
231.26346,231.4593,65,100,0
231.26346,231.4593,57,100,0
231.46347,231.6593,60,100,0
231.66347,231.8593,65,100,0
231.86346,232.0593,69,100,0
232.06346,232.2593,67,100,0
232.26346,232.4593,64,100,0
232.06346,232.6593,72,100,0
232.46347,232.6593,65,100,0
232.66347,232.8593,67,100,0
232.66347,232.8593,70,100,0
232.86346,233.0593,69,100,0
232.86346,233.0593,60,100,0
233.26346,233.4593,67,100,0
233.26346,233.4593,62,100,0
233.26346,233.4593,58,100,0
233.66347,233.8593,65,100,0
233.66347,233.8593,60,100,0
233.66347,233.8593,57,100,0
234.06346,234.2593,58,100,0
234.06346,234.2593,55,100,0
234.06346,234.2593,64,100,0
234.46347,234.8593,65,110,0
234.46347,234.8593,57,110,0
234.46347,234.8593,60,110,0
236.26346,236.4593,72,100,0
236.26346,236.4593,64,100,0
236.46347,236.6593,74,100,0
236.46347,236.6593,65,100,0
236.66347,236.8593,76,100,0
236.66347,236.8593,67,100,0
236.86346,237.0593,77,100,0
236.86346,237.0593,69,100,0
237.06346,237.2593,72,100,0
237.26346,237.4593,77,100,0
237.46347,237.6593,81,100,0
237.66347,237.8593,79,100,0
237.86346,238.0593,76,100,0
237.66347,238.2593,84,100,0
238.06346,238.2593,77,100,0
238.26346,238.4593,82,100,0
238.26346,238.4593,79,100,0
238.46347,238.8593,77,100,0
238.46347,238.8593,81,100,0
239.46347,239.6593,73,100,0
239.46347,239.6593,69,100,0
239.66347,239.8593,74,100,0
239.66347,239.8593,71,100,0
239.86346,240.0593,76,100,0
239.86346,240.0593,73,100,0
240.06346,240.2593,74,100,0
240.06346,240.2593,77,100,0
240.26346,240.4593,69,100,0
240.46347,240.6593,74,100,0
240.66347,240.8593,77,100,0
240.86346,241.0593,76,100,0
241.06346,241.2593,73,100,0
240.86346,241.4593,81,100,0
241.26346,241.4593,74,100,0
241.46347,241.6593,79,100,0
241.46347,241.6593,76,100,0
241.66347,241.8593,77,100,0
241.66347,241.8593,69,100,0
242.06346,242.2593,76,100,0
242.06346,242.2593,70,100,0
242.06346,242.2593,67,100,0
242.46347,242.6593,69,100,0
242.46347,242.6593,65,100,0
242.46347,242.6593,74,100,0
242.86346,243.0593,73,100,0
242.86346,243.0593,69,100,0
242.86346,243.0593,64,100,0
243.06346,243.19263,62,110,0
243.13013,243.2593,65,110,0
243.1968,243.2593,69,110,0
243.26346,243.4593,74,110,0
243.46347,243.6593,76,110,0
243.66347,243.8593,77,110,0
243.7968,243.92596,64,110,0
243.86346,244.0593,79,110,0
243.9968,244.12596,65,110,0
244.06346,244.2593,81,110,0
244.26346,244.4593,67,110,0
244.46347,244.6593,69,110,0
244.5968,244.6593,69,110,0
244.73013,244.8593,70,110,0
244.7968,244.8593,74,110,0
244.86346,245.0593,79,110,0
245.06346,245.2593,81,110,0
245.26346,245.4593,82,110,0
245.3968,245.52597,69,110,0
245.46347,245.6593,84,110,0
245.5968,245.72597,70,110,0
245.66347,246.0593,86,110,0
245.86346,246.0593,72,110,0
246.06346,246.2593,74,110,0
246.26346,246.39262,60,110,0
246.33012,246.4593,64,110,0
246.3968,246.4593,67,110,0
246.46347,246.6593,72,110,0
246.66347,246.8593,74,110,0
246.86346,247.0593,76,110,0
246.9968,247.12596,62,110,0
247.06346,247.2593,77,110,0
247.1968,247.32596,64,110,0
247.26346,247.6593,79,110,0
247.46347,247.6593,65,110,0
247.66347,247.8593,67,110,0
247.86346,247.99263,65,110,0
247.93013,248.0593,69,110,0
247.9968,248.0593,72,110,0
248.06346,248.2593,77,110,0
248.26346,248.4593,79,110,0
248.46347,248.6593,81,110,0
248.5968,248.72597,67,110,0
248.66347,248.8593,82,110,0
248.7968,248.92596,69,110,0
248.86346,249.2593,84,110,0
249.06346,249.2593,70,110,0
249.26346,249.4593,72,110,0
249.46347,249.6593,84,80,0
249.66347,249.8593,70,80,0
249.66347,250.0593,76,80,0
249.86346,250.0593,72,80,0
250.06346,250.2593,73,80,0
250.26346,250.4593,76,80,0
250.46347,250.6593,72,80,0
250.46347,250.8593,77,80,0
250.66347,250.8593,70,80,0
250.86346,251.0593,69,80,0
251.06346,251.2593,77,80,0
251.26346,251.4593,67,80,0
251.26346,251.6593,73,80,0
251.46347,251.6593,69,80,0
251.66347,251.8593,70,80,0
251.86346,251.99263,62,110,0
251.93013,252.0593,65,110,0
251.9968,252.0593,69,110,0
252.06346,252.2593,74,110,0
252.26346,252.4593,76,110,0
252.46347,252.6593,77,110,0
252.5968,252.72597,64,110,0
252.66347,252.8593,79,110,0
252.7968,252.92596,65,110,0
252.86346,253.2593,81,110,0
253.06346,253.2593,67,110,0
253.26346,253.4593,69,110,0
253.46347,253.6593,81,80,0
253.66347,253.8593,67,80,0
253.66347,254.0593,73,80,0
253.86346,254.0593,69,80,0
254.06346,254.2593,70,80,0
254.26346,254.4593,73,80,0
254.46347,254.6593,69,80,0
254.46347,254.8593,74,80,0
254.66347,254.8593,67,80,0
254.86346,255.0593,65,80,0
255.06346,255.2593,74,80,0
255.26346,255.4593,65,80,0
255.26346,255.6593,68,80,0
255.46347,255.6593,64,80,0
255.66347,255.8593,62,80,0
255.86346,255.99263,57,110,0
255.93013,256.0593,60,110,0
255.9968,256.0593,64,110,0
256.06348,256.2593,69,110,0
256.26346,256.4593,71,110,0
256.46347,256.6593,72,110,0
256.5968,256.72595,59,110,0
256.66345,256.85928,74,110,0
256.79678,256.92596,60,110,0
256.86346,257.2593,76,110,0
257.06348,257.2593,62,110,0
257.26346,257.4593,64,110,0
257.46347,257.6593,76,80,0
257.66345,257.85928,62,80,0
257.66345,258.0593,68,80,0
257.86346,258.0593,64,80,0
258.06348,258.2593,65,80,0
258.26346,258.4593,68,80,0
258.46347,258.6593,64,80,0
258.46347,258.85928,69,80,0
258.66345,258.85928,62,80,0
258.86346,259.0593,60,80,0
259.06348,259.2593,69,80,0
259.26346,259.4593,60,80,0
259.26346,259.6593,63,80,0
259.46347,259.6593,59,80,0
259.66345,259.85928,57,80,0
259.86346,260.0593,63,80,0
260.06348,260.6593,64,80,0
260.06348,260.6593,56,80,0
260.66345,260.85928,66,110,0
260.66345,260.85928,64,110,0
260.66345,260.85928,57,110,0
260.86346,261.0593,68,80,0
260.86346,261.0593,64,80,0
260.86346,261.0593,59,80,0
261.06348,261.2593,69,80,0
261.06348,261.2593,64,80,0
261.06348,261.2593,60,80,0
261.26346,261.4593,71,80,0
261.26346,261.4593,64,80,0
261.26346,261.4593,62,80,0
261.46347,261.6593,68,80,0
261.46347,261.6593,64,80,0
261.46347,261.6593,59,80,0
261.66345,262.0593,69,80,0
261.66345,262.0593,64,80,0
261.66345,262.0593,60,80,0
262.26346,262.4593,72,110,0
262.26346,262.4593,64,110,0
262.46347,262.6593,71,80,0
262.46347,262.6593,64,80,0
262.46347,262.6593,62,80,0
262.66345,262.85928,69,80,0
262.66345,262.85928,64,80,0
262.66345,262.85928,60,80,0
262.86346,263.0593,68,80,0
262.86346,263.0593,64,80,0
262.86346,263.0593,59,80,0
263.06348,263.2593,66,80,0
263.06348,263.2593,64,80,0
263.06348,263.2593,57,80,0
263.26346,263.6843,64,80,0
263.26346,263.68848,56,80,0
263.86346,264.0593,66,110,0
263.86346,264.0593,64,110,0
263.86346,264.0593,57,110,0
264.06348,264.2593,68,80,0
264.06348,264.2593,64,80,0
264.06348,264.2593,59,80,0
264.26346,264.4593,69,80,0
264.26346,264.4593,64,80,0
264.26346,264.4593,60,80,0
264.46347,264.6593,71,80,0
264.46347,264.6593,64,80,0
264.46347,264.6593,62,80,0
264.66345,264.85928,68,80,0
264.66345,264.85928,64,80,0
264.66345,264.85928,59,80,0
264.86346,265.2593,69,80,0
264.86346,265.2593,64,80,0
264.86346,265.2593,60,80,0
265.46347,265.6593,72,110,0
265.46347,265.6593,64,110,0
265.66345,265.85928,71,80,0
265.66345,265.85928,64,80,0
265.66345,265.85928,62,80,0
265.86346,266.0593,69,80,0
265.86346,266.0593,64,80,0
265.86346,266.0593,60,80,0
266.06348,266.2593,68,80,0
266.06348,266.2593,64,80,0
266.06348,266.2593,59,80,0
266.26346,266.4593,66,80,0
266.26346,266.4593,64,80,0
266.26346,266.4593,57,80,0
266.46347,268.0593,56,120,0
266.46347,268.0593,59,120,0
266.46347,268.0593,64,120,0
268.06348,269.6593,57,120,0
268.06348,269.6593,62,120,0
268.06348,269.6593,66,120,0
268.06348,269.6593,69,120,0
269.66345,271.2593,62,120,0
269.66345,271.2593,64,120,0
269.66345,271.2593,68,120,0
269.66345,271.2593,71,120,0
269.66345,271.2593,74,120,0
271.26346,271.4593,64,120,0
271.26346,271.4593,62,120,0
271.46347,271.6593,64,120,0
271.46347,271.6593,62,120,0
271.66345,271.85928,64,120,0
271.66345,271.85928,62,120,0
271.86346,272.0593,62,120,0
271.86346,272.0593,64,120,0
272.06348,272.2593,74,80,0
272.06348,272.2593,64,80,0
272.06348,272.2593,62,80,0
272.26346,272.4593,73,80,0
272.26346,272.4593,64,80,0
272.26346,272.4593,62,80,0
272.46347,272.6593,71,80,0
272.46347,272.6593,64,80,0
272.46347,272.6593,62,80,0
272.66345,272.85928,69,80,0
272.66345,272.85928,62,80,0
272.66345,272.85928,64,80,0
272.86346,273.0593,64,80,0
272.86346,273.0593,62,80,0
272.86346,273.2593,68,80,0
273.06348,273.2593,64,80,0
273.06348,273.2593,62,80,0
273.26346,273.4593,64,80,0
273.26346,273.4593,62,80,0
273.46347,273.6593,62,80,0
273.46347,273.6593,64,80,0
273.66345,273.85928,64,80,0
273.66345,273.85928,62,80,0
273.66345,273.85928,68,80,0
273.86346,274.0593,64,80,0
273.86346,274.0593,62,80,0
273.86346,274.0593,69,80,0
274.06348,274.2593,64,80,0
274.06348,274.2593,62,80,0
274.06348,274.2593,71,80,0
274.26346,274.4593,62,80,0
274.26346,274.4593,64,80,0
274.26346,274.4593,73,80,0
274.46347,274.67328,74,70,0
274.46347,274.67328,71,70,0
274.46347,274.67328,64,70,0
274.46347,274.67328,62,70,0
275.32062,275.5654,73,70,0
275.32062,275.5654,69,70,0
275.32062,275.5654,61,70,0
276.32062,276.61435,78,70,0
276.32062,276.61435,69,70,0
276.32062,276.61435,66,70,0
277.5206,278.2628,68,70,0
277.5206,278.2628,62,70,0
279.6206,279.81644,81,100,0
279.6206,279.81644,69,100,0
279.82062,280.21643,76,100,0
279.82062,280.21643,64,100,0
280.4206,280.46643,64,100,0
280.4706,280.51645,62,100,0
280.5206,280.56644,61,100,0
280.57062,280.61642,59,100,0
280.6206,281.01645,57,100,0
281.2206,281.41644,81,100,0
281.2206,281.41644,69,100,0
281.4206,281.81644,78,100,0
281.4206,281.81644,66,100,0
282.0206,282.06644,66,100,0
282.07062,282.11642,64,100,0
282.1206,282.16644,62,100,0
282.1706,282.21643,61,100,0
282.2206,282.61642,59,100,0
282.82062,283.01645,74,110,0
282.82062,283.01645,86,110,0
283.0206,283.41644,83,110,0
283.0206,283.41644,71,110,0
283.4206,283.81644,80,110,0
283.4206,283.81644,68,110,0
283.82062,284.21643,76,110,0
283.82062,284.21643,64,110,0
284.2206,284.61642,74,80,0
284.2206,284.61642,62,80,0
284.6206,285.01645,71,80,0
284.6206,285.01645,59,80,0
285.0206,285.41644,68,80,0
285.0206,285.41644,56,80,0
285.4206,285.81644,64,80,0
285.4206,285.81644,52,80,0
286.0206,286.0831,57,80,0
286.08728,286.14978,61,80,0
286.15393,286.21643,64,80,0
286.2206,286.41644,69,110,0
286.4206,286.61642,71,80,0
286.6206,286.81644,73,80,0
286.82062,287.01645,74,80,0
287.0206,287.21643,76,80,0
287.2206,287.41644,78,80,0
287.4206,287.61642,80,80,0
287.6206,287.81644,81,80,0
288.0206,288.21643,68,80,0
287.82062,288.41644,76,80,0
288.2206,288.41644,69,80,0
288.4206,288.61642,74,80,0
288.4206,288.61642,71,80,0
288.6206,288.81644,73,80,0
288.6206,288.81644,64,80,0
289.6206,289.81644,56,80,0
289.6206,289.81644,64,80,0
289.82062,290.01645,66,80,0
289.82062,290.01645,57,80,0
290.0206,290.21643,68,80,0
290.0206,290.21643,59,80,0
290.2206,290.41644,69,80,0
290.2206,290.41644,61,80,0
290.4206,290.61642,64,80,0
290.6206,290.81644,69,80,0
290.82062,291.01645,73,80,0
291.0206,291.21643,71,80,0
291.2206,291.41644,68,80,0
291.0206,291.61642,76,80,0
291.4206,291.61642,69,80,0
291.6206,291.81644,71,80,0
291.6206,291.81644,74,80,0
291.82062,292.01645,73,80,0
292.0206,292.21643,71,80,0
291.82062,292.41644,64,80,0
292.2206,292.41644,69,80,0
292.4206,292.61642,71,80,0
292.4206,292.61642,63,80,0
292.6206,292.82318,68,70,0
292.6206,293.0301,59,70,0
292.8275,293.0301,64,70,0
293.0344,293.237,69,70,0
293.0344,293.44388,63,70,0
293.0344,293.44388,57,70,0
293.2413,293.44388,71,70,0
293.44818,293.65802,68,70,0
293.44818,293.87228,59,70,0
293.66248,293.87228,64,70,0
293.87677,294.08658,69,70,0
293.87677,294.30087,63,70,0
293.87677,294.30087,57,70,0
294.09103,294.30087,71,70,0
294.30533,294.72943,68,70,0
294.30533,294.72943,64,70,0
294.30533,294.72943,59,70,0
295.37677,295.58658,64,70,0
295.59103,295.80087,67,70,0
295.59103,296.01517,61,70,0
295.59103,296.01517,55,70,0
295.80533,296.01517,69,70,0
296.01962,296.22943,66,70,0
296.01962,296.44373,57,70,0
296.23392,296.44373,62,70,0
296.44818,296.65802,67,70,0
296.44818,296.87228,55,70,0
296.44818,296.87228,61,70,0
296.66248,296.87228,69,70,0
296.87677,297.08658,66,70,0
296.87677,297.30087,57,70,0
297.09103,297.30087,62,70,0
297.30533,297.51517,67,70,0
297.30533,297.72943,55,70,0
297.30533,297.72943,61,70,0
297.51962,297.72943,69,70,0
297.73392,298.15802,66,70,0
297.73392,298.15802,62,70,0
297.73392,298.15802,57,70,0
298.81326,299.03085,69,120,0
299.0355,299.25308,74,120,0
299.0355,299.4753,68,120,0
299.0355,299.4753,62,120,0
299.25772,299.4753,76,120,0
299.47992,299.67575,73,120,0
299.47992,299.87576,64,120,0
299.67993,299.87576,69,120,0
299.87994,300.07578,74,120,0
299.87994,300.27576,62,120,0
299.87994,300.27576,68,120,0
300.07993,300.27576,76,120,0
300.27994,300.47577,73,120,0
300.27994,300.67575,64,120,0
300.47992,300.67575,69,120,0
300.67993,300.87576,74,120,0
300.67993,301.07578,62,120,0
300.67993,301.07578,68,120,0
300.87994,301.07578,76,120,0
301.07993,301.47577,73,120,0
301.07993,301.47577,69,120,0
301.07993,301.47577,64,120,0
302.67993,302.8091,64,110,0
302.7466,302.87576,68,110,0
302.81326,302.94244,69,110,0
302.87994,303.0091,71,110,0
302.9466,303.07578,73,110,0
303.01328,303.14243,74,110,0
303.07993,303.2091,76,110,0
303.1466,303.27576,80,110,0
303.21326,303.34244,81,110,0
303.27994,303.4091,83,110,0
303.3466,303.47577,85,110,0
303.41327,303.47577,86,110,0
303.47992,303.67575,88,110,0
303.67993,303.87576,86,110,0
303.87994,304.07578,85,110,0
304.07993,304.27576,83,110,0
304.27994,304.67575,81,110,0
305.87994,306.0091,64,110,0
305.9466,306.07578,68,110,0
306.01328,306.14243,69,111,0
306.07993,306.2091,71,112,0
306.1466,306.27576,73,113,0
306.21326,306.34244,74,114,0
306.27994,306.4091,76,115,0
306.3466,306.47577,80,115,0
306.41327,306.54242,81,116,0
306.47992,306.6091,83,117,0
306.5466,306.67575,85,118,0
306.61325,306.67575,86,119,0
306.67993,306.87576,88,120,0
306.87994,307.07578,86,120,0
307.07993,307.27576,85,120,0
307.27994,307.47577,83,120,0
307.47992,307.67575,81,120,0
307.67993,307.87576,80,120,0
307.87994,308.07578,78,120,0
308.07993,308.27576,76,120,0
308.27994,308.47577,75,120,0
308.47992,308.67575,73,120,0
308.67993,308.87576,71,120,0
308.87994,309.07578,69,120,0
309.07993,309.47577,68,100,0
309.27994,309.47577,66,100,0
309.47992,309.67575,64,100,0
309.47992,309.87576,68,100,0
309.67993,309.87576,62,100,0
309.87994,310.07578,61,100,0
309.87994,310.27576,69,100,0
310.07993,310.27576,59,100,0
310.27994,310.47577,57,100,0
310.27994,310.67575,63,100,0
310.47992,310.67575,59,100,0
310.67993,310.87576,56,100,0
310.67993,311.07578,64,100,0
310.87994,311.07578,54,100,0
311.07993,311.27576,52,100,0
311.07993,311.47577,56,100,0
311.27994,311.47577,50,100,0
311.47992,311.67575,49,100,0
311.47992,311.87576,57,100,0
311.67993,311.87576,47,100,0
311.87994,312.07578,45,100,0
311.87994,312.27576,51,100,0
312.07993,312.27576,47,100,0
312.27994,312.67575,44,100,0
312.27994,312.67575,52,100,0
314.47992,314.67575,64,100,0
314.67993,314.87576,65,100,0
314.87994,315.07578,64,100,0
315.07993,315.27576,71,100,0
315.27994,315.47577,68,100,0
316.10062,316.30322,64,100,0
316.30753,316.51733,65,100,0
316.5218,316.73163,64,100,0
316.73608,316.94592,71,100,0
316.95038,317.1602,68,100,0
317.83133,318.04892,64,100,0
318.05356,318.2795,65,100,0
318.28433,318.51028,64,100,0
318.51508,318.74106,72,100,0
318.74585,318.9718,69,100,0
319.8042,320.0068,68,100,0
320.0111,320.21368,71,100,0
320.21802,320.4206,74,100,0
320.4249,320.62747,76,100,0
320.6318,320.83438,77,100,0
320.83868,321.0442,76,100,0
321.04868,321.25848,79,100,0
321.26294,321.47906,77,100,0
321.48367,321.70288,76,100,0
321.7077,321.93365,74,100,0
321.93845,322.1698,72,100,0
322.1748,322.4098,71,100,0
322.4148,322.8389,69,100,0
323.05026,323.24954,81,100,0
323.25375,323.4496,80,100,0
323.45377,323.6496,81,100,0
323.65375,323.8496,84,100,0
323.85376,324.0496,81,100,0
324.05377,324.3496,81,100,0
324.35376,324.3996,83,100,0
324.40375,324.4496,81,100,0
324.45377,325.2496,80,100,0
325.25375,325.6496,79,100,0
325.65375,326.0496,79,100,0
326.25375,326.4496,84,100,0
326.45377,326.6496,83,100,0
326.65375,326.8496,84,100,0
326.85376,327.0496,88,100,0
327.05377,327.2496,84,100,0
327.25375,327.5496,84,100,0
327.55377,327.5996,86,100,0
327.60376,327.6496,84,100,0
327.65375,328.4496,83,100,0
328.45377,328.8496,82,100,0
328.85376,329.2496,82,100,0
329.45377,329.6496,75,100,0
329.65375,329.8496,74,100,0
329.85376,330.0496,75,100,0
330.05377,330.2496,79,100,0
330.25375,330.4496,75,100,0
330.45377,330.7496,75,100,0
330.75375,330.7996,77,100,0
330.80377,330.8496,75,100,0
330.85376,331.6496,62,100,0
330.85376,331.6496,74,100,0
331.65375,332.0496,74,100,0
332.05377,332.2496,74,100,0
332.25375,332.3496,76,100,0
332.30377,332.3996,74,100,0
332.35376,332.4496,73,100,0
332.40375,332.4496,74,100,0
332.45377,333.2496,65,110,0
332.45377,333.2496,77,110,0
333.25375,333.6496,64,100,0
333.25375,333.6496,76,100,0
333.65375,333.8496,76,100,0
333.85376,333.9496,78,100,0
333.90375,333.9996,76,100,0
333.95377,334.0496,74,100,0
334.00375,334.0496,76,100,0
334.05377,334.8496,67,110,0
334.05377,334.8496,79,110,0
334.85376,335.2496,66,100,0
334.85376,335.2496,78,100,0
335.25375,335.4496,78,100,0
335.45377,335.5496,80,100,0
335.50375,335.5996,78,100,0
335.55377,335.6496,77,100,0
335.60376,335.6496,78,100,0
335.65375,336.4496,69,110,0
335.65375,336.4496,81,110,0
336.45377,336.8496,68,100,0
336.45377,336.8496,80,100,0
336.85376,337.2496,80,100,0
336.85376,337.2496,68,100,0
337.45377,337.5496,65,120,0
337.50375,337.5996,64,120,0
337.55377,337.6496,62,120,0
337.60376,337.6496,60,120,0
337.65375,338.0496,59,120,0
338.25375,338.4496,69,70,0
338.25375,338.4496,81,70,0
338.45377,338.8496,68,70,0
338.45377,338.8496,80,70,0
339.05377,339.1496,65,120,0
339.10376,339.1996,64,120,0
339.15375,339.2496,62,120,0
339.20377,339.2496,60,120,0
339.25375,339.6496,59,120,0
339.85376,340.0496,81,70,0
340.05377,340.4496,80,70,0
340.66064,340.86325,81,70,0
340.86755,341.29166,80,70,0
341.51834,341.73593,81,70,0
341.74057,342.1973,80,70,0
343.2821,343.47794,76,100,0
343.6821,343.81128,69,120,0
343.74878,343.87793,81,120,0
343.81543,343.9446,69,120,0
343.8821,344.01126,64,120,0
343.94876,344.07794,76,120,0
344.01544,344.1446,64,120,0
344.0821,344.21127,61,120,0
344.14877,344.27795,73,120,0
344.21545,344.3446,61,120,0
344.2821,344.4113,57,120,0
344.3488,344.47794,69,120,0
344.41544,344.54462,57,120,0
344.48212,344.61127,52,120,0
344.54877,344.67795,64,120,0
344.61545,344.7446,52,120,0
344.6821,344.81128,49,120,0
344.74878,344.87793,61,120,0
344.81543,344.9446,49,120,0
344.8821,345.01126,45,120,0
344.94876,345.07794,57,120,0
345.01544,345.07794,45,120,0
345.0821,345.87793,59,120,0
345.0821,345.87793,57,120,0
345.8821,346.67795,64,120,0
345.8821,346.67795,56,120,0
346.8821,347.01126,52,120,0
346.94876,347.07794,64,120,0
347.01544,347.1446,52,120,0
347.0821,347.21127,57,120,0
347.14877,347.27795,69,120,0
347.21545,347.3446,57,120,0
347.2821,347.4113,61,120,0
347.3488,347.47794,73,120,0
347.41544,347.54462,61,120,0
347.48212,347.61127,64,120,0
347.54877,347.67795,76,120,0
347.61545,347.7446,64,120,0
347.6821,347.81128,69,120,0
347.74878,347.87793,81,120,0
347.81543,347.9446,69,120,0
347.8821,348.01126,73,120,0
347.94876,348.07794,85,120,0
348.01544,348.1446,73,120,0
348.0821,348.21127,76,120,0
348.14877,348.27795,88,120,0
348.21545,348.27795,76,120,0
348.2821,349.07794,87,120,0
348.2821,349.07794,83,120,0
348.2821,349.07794,81,120,0
348.2821,349.07794,75,120,0
349.0821,349.87793,74,120,0
349.0821,349.87793,80,120,0
349.0821,349.87793,83,120,0
349.0821,349.87793,88,120,0
349.8821,350.07794,81,100,0
349.8821,350.07794,73,100,0
350.3488,350.47794,73,100,0
350.41544,350.54462,74,100,0
350.48212,350.61127,76,100,0
350.54877,350.67795,78,100,0
350.61545,350.67795,80,100,0
350.6821,350.87793,81,100,0
350.8821,351.07794,80,100,0
351.0821,351.27795,78,100,0
351.2821,351.47794,76,100,0
351.48212,351.67795,74,100,0
351.6821,351.87793,73,100,0
351.8821,352.07794,71,100,0
352.0821,352.27795,69,100,0
352.2821,352.47794,68,100,0
353.0821,353.27795,57,100,0
354.6821,354.81128,64,120,0
354.74878,354.87793,68,120,0
354.81543,354.9446,69,120,0
354.8821,355.01126,71,120,0
354.94876,355.07794,73,120,0
355.01544,355.1446,74,120,0
355.0821,355.21127,76,120,0
355.14877,355.27795,80,120,0
355.21545,355.3446,81,120,0
355.2821,355.4113,83,120,0
355.3488,355.47794,85,120,0
355.41544,355.47794,86,120,0
355.48212,355.67795,88,120,0
355.6821,355.87793,86,120,0
355.8821,356.07794,85,120,0
356.0821,356.27795,83,120,0
356.2821,356.47794,81,120,0
356.48212,356.67795,80,120,0
356.6821,356.87793,78,120,0
356.8821,357.07794,76,120,0
357.0821,357.27795,74,120,0
357.2821,357.47794,73,120,0
357.48212,357.67795,71,120,0
357.6821,357.87793,69,120,0
357.8821,358.07794,68,120,0
358.0821,358.27795,66,120,0
358.2821,358.47794,64,120,0
358.48212,358.67795,62,120,0
358.6821,358.87793,61,120,0
358.8821,359.07794,59,120,0
359.0821,359.27795,57,120,0
359.2821,359.47794,56,120,0
359.48212,359.67795,45,85,0
359.6821,359.87793,47,85,0
359.8821,360.07794,49,85,0
359.48212,360.27795,57,85,0
360.0821,360.27795,50,85,0
360.2821,360.47794,52,85,0
360.48212,360.67795,54,85,0
360.6821,360.87793,55,85,0
360.2821,361.07794,62,85,0
360.8821,361.07794,56,85,0
361.0821,361.87793,61,85,0
361.0821,361.87793,57,85,0
361.0821,361.87793,52,85,0
361.8821,362.67795,59,85,0
361.8821,362.67795,52,85,0
361.8821,362.67795,50,85,0
362.6821,362.87793,49,70,0
362.8821,363.07794,47,70,0
363.0821,363.27795,49,70,0
362.6821,363.47794,57,70,0
363.2821,363.47794,50,70,0
363.48212,363.67795,52,70,0
363.6821,363.87793,54,70,0
363.8821,364.07794,55,70,0
363.48212,364.27795,62,70,0
364.0821,364.27795,56,70,0
364.2821,365.07794,61,70,0
364.2821,365.07794,57,70,0
364.2821,365.07794,52,70,0
365.0821,365.87793,59,70,0
365.0821,365.87793,52,70,0
365.0821,365.87793,50,70,0
365.8821,366.27795,57,70,0
365.8821,366.27795,52,70,0
365.8821,366.27795,49,70,0
366.6821,367.07794,57,70,0
366.6821,367.07794,52,70,0
366.6821,367.07794,49,70,0
367.0821,367.47794,57,70,0
367.0821,367.47794,52,70,0
367.0821,367.47794,49,70,0
367.48212,367.9571,57,70,0
367.48212,367.9571,52,70,0
367.48212,367.9571,49,70,0
368.4421,369.03586,52,70,0
368.4421,369.03586,49,70,0
369.64212,370.83585,49,70,0
369.64212,370.83585,45,70,0
371.4421,372.03586,57,1,0
0.2,0.39583334,57,80,0
0.4,0.79583335,52,80,0
1.0,1.0458333,52,80,0
1.05,1.0958333,50,80,0
1.1,1.1458334,49,80,0
1.15,1.1958333,47,80,0
1.2,1.5958333,45,80,0
1.8,1.9958333,57,80,0
2.0,2.3958333,54,80,0
2.6,2.6458333,54,80,0
2.65,2.6958334,52,80,0
2.7,2.7458334,50,80,0
2.75,2.7958333,49,80,0
2.8,3.1958334,47,80,0
3.4,3.5958333,62,80,0
3.6,3.9958334,59,80,0
4.0,4.3958335,56,80,0
4.4,4.795833,52,80,0
4.8,5.195833,50,80,0
5.2,5.5958333,47,80,0
5.6,5.9958334,44,80,0
6.0,6.3958335,40,80,0
7.0,7.0625,57,80,0
6.8,7.195833,45,100,0
6.866667,7.195833,49,80,0
6.9333334,7.195833,52,80,0
8.6,8.795834,52,80,0
8.8,8.995833,54,80,0
9.0,9.195833,56,80,0
9.2,9.395833,57,80,0
9.4,9.595834,45,80,0
9.6,9.795834,49,80,0
9.8,9.995833,50,80,0
10.0,10.595834,52,80,0
10.6,10.795834,50,80,0
10.8,10.995833,49,80,0
11.0,11.195833,52,80,0
11.2,11.395833,49,80,0
11.4,11.595834,45,80,0
11.6,11.795834,44,80,0
11.8,11.995833,40,80,0
12.0,12.195833,42,80,0
12.2,12.395833,44,80,0
12.4,12.595834,45,80,0
12.6,12.795834,44,80,0
12.8,12.995833,42,80,0
13.0,13.195833,47,80,0
13.2,13.395833,52,70,0
13.4,13.595834,47,70,0
13.6,13.795834,54,70,0
13.2,13.995833,40,70,0
13.8,13.995833,47,70,0
14.0,14.195833,52,70,0
14.2,14.395833,47,70,0
14.4,14.595834,54,70,0
14.0,14.795834,40,70,0
14.6,14.795834,47,70,0
14.8,15.195833,52,70,0
14.8,15.195833,40,70,0
15.2,15.595834,40,70,0
15.6,15.995833,40,70,0
16.2,16.395834,57,110,0
16.4,16.795834,52,110,0
17.0,17.045834,52,110,0
17.05,17.095833,50,110,0
17.1,17.145834,49,110,0
17.15,17.195833,47,110,0
17.2,17.595833,45,110,0
17.8,17.929167,33,100,0
17.866667,17.995832,37,100,0
17.933332,17.995832,40,100,0
18.0,18.195833,45,113,0
18.2,18.395834,47,80,0
18.4,18.595833,49,80,0
18.6,18.795834,50,80,0
18.8,18.995832,52,80,0
19.0,19.195833,54,80,0
19.2,19.395834,56,80,0
19.4,19.595833,57,80,0
19.6,20.195833,52,109,0
20.2,20.395834,50,80,0
20.4,20.595833,49,80,0
20.6,20.795834,52,80,0
20.8,20.995832,49,80,0
21.0,21.195833,45,80,0
21.2,21.395834,44,80,0
21.4,21.595833,52,80,0
21.6,21.795834,54,80,0
21.8,21.995832,56,80,0
22.0,22.195833,57,80,0
22.2,22.395834,52,80,0
22.4,22.595833,57,80,0
22.6,22.795834,61,80,0
22.8,23.395834,64,111,0
23.4,23.595833,62,80,0
23.6,23.795834,61,80,0
23.8,23.995832,56,80,0
24.0,24.195833,57,80,0
24.2,24.395834,54,80,0
24.4,24.795834,52,80,0
24.8,25.195833,40,80,0
25.2,25.329166,45,110,0
25.266666,25.395834,49,110,0
25.333334,25.4625,50,110,0
25.4,25.529167,52,110,0
25.466667,25.595833,54,110,0
25.533333,25.6625,56,110,0
25.6,25.729166,57,110,0
25.666666,25.795834,61,110,0
25.733334,25.8625,62,110,0
25.8,25.929167,64,110,0
25.866667,25.995832,66,110,0
25.933332,25.995832,68,110,0
26.0,26.195833,69,110,0
26.2,26.395834,68,110,0
26.4,26.595833,66,110,0
26.6,26.795834,64,110,0
26.8,26.995832,62,110,0
27.0,27.195833,61,110,0
27.2,27.395834,59,110,0
27.4,27.595833,57,110,0
27.6,27.795834,56,110,0
27.8,27.995832,54,110,0
28.0,28.195833,52,110,0
28.2,28.395834,50,110,0
28.4,28.529167,49,110,0
28.466667,28.595833,52,110,0
28.533333,28.6625,54,110,0
28.6,28.729166,56,110,0
28.666666,28.795834,57,110,0
28.733334,28.8625,59,110,0
28.8,28.929167,61,110,0
28.866667,28.995832,64,110,0
28.933332,29.0625,66,110,0
29.0,29.129168,68,110,0
29.066668,29.195833,69,110,0
29.133333,29.195833,71,110,0
29.2,29.395834,73,110,0
29.4,29.595833,71,110,0
29.6,29.795834,69,110,0
29.8,29.995832,68,110,0
30.0,30.195833,69,110,0
30.2,30.395834,68,110,0
30.4,30.595833,66,110,0
30.6,30.795834,64,110,0
30.8,30.995832,63,120,0
31.0,31.195833,61,120,0
31.2,31.395834,59,120,0
31.4,31.595833,57,120,0
31.6,31.795834,56,120,0
31.8,31.995832,54,120,0
32.0,32.195835,52,120,0
32.2,32.395832,51,120,0
32.4,32.595833,49,120,0
32.6,32.795834,47,120,0
32.8,32.995834,46,120,0
33.0,33.195835,42,120,0
33.2,34.795834,47,80,0
34.8,36.595833,35,80,0
36.6,36.795834,39,80,0
36.8,36.995834,42,80,0
37.0,37.195835,46,80,0
37.2,37.395832,47,80,0
37.4,37.595833,51,80,0
37.6,37.795834,54,80,0
37.8,37.995834,58,80,0
38.0,38.195835,59,80,0
38.2,38.395832,58,80,0
38.4,38.595833,59,80,0
39.605602,39.80819,57,80,0
39.8125,40.015087,56,80,0
40.019398,40.22198,57,80,0
41.298103,41.515694,55,80,0
41.520325,41.737915,54,80,0
41.742546,41.96014,55,80,0
43.711845,43.90768,59,80,0
43.51185,45.564526,57,80,0
43.911846,45.564526,60,110,0
45.56899,45.993095,59,80,0
43.111847,46.421665,51,80,0
43.311848,46.421665,54,80,0
45.99756,46.421665,57,80,0
46.426132,46.521965,55,100,0
46.426132,46.521965,52,100,0
46.52613,46.621964,59,100,0
46.626133,46.721966,55,100,0
46.626133,46.721966,52,100,0
46.72613,46.821964,59,100,0
46.82613,46.921963,55,100,0
46.82613,46.921963,52,100,0
46.926132,47.021965,59,100,0
47.02613,47.121964,55,100,0
47.02613,47.121964,52,100,0
47.126133,47.221966,59,100,0
47.22613,47.321964,55,100,0
47.22613,47.321964,52,100,0
47.32613,47.421963,59,100,0
47.426132,47.521965,55,100,0
47.426132,47.521965,52,100,0
47.52613,47.621964,59,100,0
47.626133,47.721966,55,100,0
47.626133,47.721966,52,100,0
47.72613,47.821964,59,100,0
47.82613,47.921963,55,100,0
47.82613,47.921963,52,100,0
47.926132,48.021965,59,100,0
48.02613,48.121964,57,100,0
48.02613,48.121964,54,100,0
48.126133,48.221966,59,100,0
48.22613,48.321964,57,100,0
48.22613,48.321964,54,100,0
48.32613,48.421963,60,100,0
48.426132,48.521965,57,100,0
48.426132,48.521965,54,100,0
48.52613,48.621964,60,100,0
48.626133,48.721966,57,100,0
48.626133,48.721966,54,100,0
48.72613,48.821964,60,100,0
48.82613,48.921963,57,100,0
48.82613,48.921963,54,100,0
48.926132,49.021965,60,100,0
49.02613,49.121964,57,100,0
49.02613,49.121964,54,100,0
49.126133,49.221966,60,100,0
49.22613,49.321964,57,100,0
49.22613,49.321964,54,100,0
49.32613,49.421963,60,100,0
49.426132,49.521965,57,100,0
49.426132,49.521965,54,100,0
49.52613,49.621964,60,100,0
49.626133,49.721966,55,100,0
49.626133,49.721966,59,100,0
49.72613,49.821964,60,100,0
49.82613,49.921963,59,100,0
49.82613,49.921963,55,100,0
49.926132,50.021965,62,100,0
50.02613,50.121964,55,100,0
50.02613,50.121964,59,100,0
50.126133,50.221966,62,100,0
50.22613,50.321964,59,100,0
50.22613,50.321964,55,100,0
50.32613,50.421963,62,100,0
50.426132,50.521965,55,100,0
50.426132,50.521965,59,100,0
50.52613,50.621964,62,100,0
50.626133,50.721966,59,100,0
50.626133,50.721966,55,100,0
50.72613,50.821964,62,100,0
50.82613,50.921963,55,100,0
50.82613,50.921963,59,100,0
50.926132,51.021965,62,100,0
51.02613,51.121964,59,100,0
51.02613,51.121964,55,100,0
51.126133,51.221966,62,100,0
51.22613,51.321964,57,100,0
51.22613,51.321964,60,100,0
51.32613,51.421963,62,100,0
51.426132,51.521965,57,100,0
51.426132,51.521965,60,100,0
51.52613,51.621964,63,100,0
51.626133,51.721966,57,100,0
51.626133,51.721966,60,100,0
51.72613,51.821964,63,100,0
51.82613,51.921963,57,100,0
51.82613,51.921963,60,100,0
51.926132,52.021965,63,100,0
52.02613,52.121964,57,100,0
52.02613,52.121964,60,100,0
52.126133,52.221966,63,100,0
52.22613,52.321964,57,100,0
52.22613,52.321964,60,100,0
52.32613,52.421963,63,100,0
52.426132,52.521965,57,100,0
52.426132,52.521965,60,100,0
52.52613,52.621964,63,100,0
52.626133,52.721966,57,100,0
52.626133,52.721966,60,100,0
52.72613,52.821964,63,100,0
52.82613,52.921963,58,100,0
52.82613,52.921963,62,100,0
52.926132,53.021965,63,100,0
53.02613,53.121964,58,100,0
53.02613,53.121964,62,100,0
53.126133,53.221966,65,100,0
53.22613,53.321964,58,100,0
53.22613,53.321964,62,100,0
53.32613,53.421963,65,100,0
53.426132,53.521965,58,100,0
53.426132,53.521965,62,100,0
53.52613,53.621964,65,100,0
53.626133,53.721966,58,100,0
53.626133,53.721966,62,100,0
53.72613,53.821964,65,100,0
53.82613,53.921963,58,100,0
53.82613,53.921963,62,100,0
53.926132,54.021965,65,100,0
54.02613,54.121964,58,100,0
54.02613,54.121964,62,100,0
54.126133,54.221966,65,100,0
54.22613,54.321964,58,100,0
54.22613,54.321964,62,100,0
54.32613,54.421963,65,100,0
54.426132,54.521965,60,100,0
54.426132,54.521965,63,100,0
54.52613,54.621964,65,100,0
54.626133,54.721966,60,100,0
54.626133,54.721966,63,100,0
54.72613,54.821964,66,100,0
54.82613,54.921963,60,100,0
54.82613,54.921963,63,100,0
54.926132,55.021965,66,100,0
55.02613,55.121964,60,100,0
55.02613,55.121964,63,100,0
55.126133,55.221966,66,100,0
55.22613,55.321964,61,100,0
55.22613,55.321964,64,100,0
55.32613,55.421963,66,100,0
55.426132,55.521965,61,100,0
55.426132,55.521965,64,100,0
55.52613,55.621964,67,100,0
55.626133,55.721966,61,100,0
55.626133,55.721966,64,100,0
55.72613,55.821964,67,100,0
55.82613,55.921963,61,100,0
55.82613,55.921963,64,100,0
55.926132,56.021965,67,100,0
56.02613,56.121964,62,100,0
56.02613,56.121964,66,100,0
56.126133,56.221966,67,100,0
56.22613,56.321964,62,100,0
56.22613,56.321964,66,100,0
56.32613,56.421963,69,100,0
56.426132,56.521965,62,100,0
56.426132,56.521965,66,100,0
56.52613,56.621964,69,100,0
56.626133,56.721966,62,100,0
56.626133,56.721966,66,100,0
56.72613,56.821964,69,100,0
56.82613,56.921963,63,100,0
56.82613,56.921963,66,100,0
56.926132,57.021965,69,100,0
57.02613,57.121964,63,100,0
57.02613,57.121964,66,100,0
57.126133,57.221966,69,100,0
57.22613,57.321964,63,100,0
57.22613,57.321964,66,100,0
57.32613,57.421963,69,100,0
57.426132,57.521965,63,100,0
57.426132,57.521965,66,100,0
57.52613,57.621964,69,100,0
57.626133,57.721966,64,100,0
57.626133,57.721966,68,100,0
57.72613,57.821964,69,100,0
57.82613,57.921963,64,100,0
57.82613,57.921963,68,100,0
57.926132,58.021965,71,100,0
58.02613,58.121964,64,100,0
58.02613,58.121964,68,100,0
58.126133,58.221966,71,100,0
58.22613,58.321964,64,100,0
58.22613,58.321964,68,100,0
58.32613,58.421963,71,100,0
58.426132,58.521965,65,100,0
58.426132,58.521965,68,100,0
58.52613,58.621964,71,100,0
58.626133,58.721966,65,100,0
58.626133,58.721966,68,100,0
58.72613,58.821964,71,100,0
58.82613,58.921963,65,100,0
58.82613,58.921963,68,100,0
58.926132,59.021965,71,100,0
59.02613,59.121964,65,100,0
59.02613,59.121964,68,100,0
59.126133,59.221966,71,100,0
59.22613,59.321964,66,100,0
59.22613,59.321964,69,100,0
59.32613,59.421963,71,100,0
59.426132,59.521965,66,100,0
59.426132,59.521965,69,100,0
59.52613,59.621964,71,100,0
59.626133,59.721966,66,100,0
59.626133,59.721966,69,100,0
59.72613,59.821964,72,100,0
59.82613,59.921963,66,100,0
59.82613,59.921963,69,100,0
59.926132,60.021965,72,100,0
60.02613,60.121964,66,100,0
60.02613,60.121964,69,100,0
60.126133,60.221966,72,100,0
60.22613,60.321964,66,100,0
60.22613,60.321964,69,100,0
60.32613,60.421963,72,100,0
60.426132,60.521965,66,100,0
60.426132,60.521965,69,100,0
60.52613,60.621964,72,100,0
60.626133,60.721966,66,100,0
60.626133,60.721966,69,100,0
60.72613,60.821964,72,100,0
60.82613,61.221966,66,100,0
60.82613,61.221966,69,100,0
61.426132,61.521965,48,120,0
61.47613,61.571964,47,120,0
61.52613,61.621964,45,120,0
61.57613,61.621964,43,120,0
61.626133,62.021965,42,120,0
63.02613,63.121964,48,120,0
63.07613,63.171963,47,120,0
63.126133,63.221966,45,120,0
63.176132,63.221966,43,120,0
63.22613,63.621964,42,120,0
64.42613,64.82197,66,70,0
64.42613,64.82197,69,70,0
64.42613,64.82197,72,70,0
65.22613,65.62196,66,70,0
65.22613,65.62196,69,70,0
65.22613,65.62196,72,70,0
66.02613,66.42197,66,70,0
66.02613,66.42197,69,70,0
66.02613,66.42197,72,70,0
67.22613,67.62196,56,120,0
67.22613,67.62196,59,120,0
67.22613,67.62196,64,120,0
68.82613,69.62196,46,120,0
69.62613,70.42197,45,120,0
69.62613,70.42197,35,120,0
70.42613,70.82197,40,100,0
70.42613,70.82197,44,100,0
72.02613,72.82197,70,120,0
72.82613,73.62196,69,120,0
72.82613,73.62196,59,120,0
73.62613,73.755295,64,100,0
73.692795,73.82197,68,100,0
73.75947,73.88863,69,100,0
73.82613,73.9553,71,100,0
73.8928,74.021965,73,100,0
73.959465,74.08863,75,100,0
74.02613,74.22196,76,100,0
75.22613,75.3553,47,100,0
75.2928,75.42197,51,100,0
75.35947,75.48863,52,100,0
75.42613,75.5553,54,100,0
75.4928,75.62196,56,100,0
75.55946,75.68863,57,100,0
75.62613,75.755295,59,100,0
75.692795,75.82197,63,100,0
75.75947,75.88863,64,100,0
75.82613,75.9553,66,100,0
75.8928,76.021965,68,100,0
75.959465,76.021965,69,100,0
76.02613,76.22196,71,100,0
76.22613,76.42197,69,100,0
76.42613,76.62196,68,100,0
76.62613,76.82197,66,100,0
76.82613,76.9553,40,100,0
76.8928,77.021965,44,100,0
76.959465,77.08863,45,100,0
77.02613,77.1553,47,100,0
77.0928,77.22196,49,100,0
77.15946,77.28863,51,100,0
77.22613,77.3553,52,100,0
77.2928,77.42197,56,100,0
77.35947,77.48863,57,100,0
77.42613,77.5553,59,100,0
77.4928,77.62196,61,100,0
77.55946,77.62196,63,100,0
77.62613,77.82197,64,100,0
77.82613,78.021965,63,100,0
78.02613,78.22196,61,100,0
78.22613,78.42197,59,100,0
78.42613,78.62196,57,100,0
78.62613,78.82197,56,100,0
78.82613,79.021965,54,100,0
79.02613,79.22196,52,100,0
79.22613,79.42197,51,120,0
79.42613,79.62196,49,120,0
79.62613,79.82197,47,120,0
79.82613,80.021965,45,120,0
80.02613,80.22196,44,120,0
80.22613,80.42197,42,120,0
80.42613,80.62196,40,120,0
80.62613,80.82197,39,120,0
80.82613,81.021965,37,120,0
81.02613,81.22196,35,120,0
81.22613,81.42197,33,120,0
81.42613,81.62196,32,120,0
81.62613,82.42197,33,120,0
82.42613,83.22196,35,120,0
83.22613,84.82197,40,80,0
85.02613,85.22196,42,80,0
85.22613,85.42197,44,80,0
85.42613,85.62196,45,80,0
85.62613,85.82197,47,80,0
85.82613,86.021965,49,80,0
86.02613,86.22196,50,80,0
86.22613,86.42197,51,80,0
86.42613,87.22196,52,80,0
87.22613,87.62196,51,80,0
84.82613,88.021965,40,80,0
87.62613,88.021965,54,80,0
88.22613,88.42197,42,80,0
88.42613,88.62196,44,80,0
88.62613,88.82197,45,80,0
88.82613,89.021965,47,80,0
89.02613,89.22196,49,80,0
89.22613,89.42197,50,80,0
88.02613,89.62196,40,80,0
89.42613,89.62196,51,80,0
89.62613,89.75947,40,70,0
89.62613,89.75947,52,70,0
89.82613,89.959465,49,70,0
90.02613,90.15946,47,70,0
90.22613,90.35947,45,70,0
90.42613,90.55946,44,70,0
90.62613,90.75947,45,70,0
90.82613,90.959465,44,70,0
91.02613,91.15946,42,70,0
91.22613,91.51185,40,70,0
92.083275,92.578064,40,70,0
93.083275,93.677025,40,70,0
94.88327,95.07911,57,80,0
95.083275,95.4791,52,80,0
95.68327,95.7291,52,80,0
95.73328,95.779106,50,80,0
95.78327,95.82911,49,80,0
95.833275,95.879105,47,80,0
95.88327,96.279106,45,80,0
96.48328,96.67911,57,80,0
96.68327,97.07911,54,80,0
97.28327,97.32911,54,80,0
97.333275,97.379105,52,80,0
97.38327,97.42911,50,80,0
97.43327,97.4791,49,80,0
97.48328,97.879105,47,80,0
98.083275,98.279106,62,80,0
98.28327,98.67911,59,80,0
98.68327,99.07911,56,80,0
99.083275,99.4791,52,80,0
99.48328,99.879105,50,80,0
99.88327,100.279106,47,80,0
100.28327,100.67911,44,80,0
100.68327,101.07911,40,80,0
101.68327,101.74577,57,80,0
101.48328,101.879105,45,100,0
101.54994,101.879105,49,80,0
101.61661,101.879105,52,80,0
103.28327,103.4791,52,80,0
103.48328,103.67911,54,80,0
103.68327,103.879105,56,80,0
103.88327,104.07911,57,80,0
104.083275,104.279106,45,80,0
104.28327,104.4791,49,80,0
104.48328,104.67911,50,80,0
104.68327,105.279106,52,80,0
105.28327,105.4791,50,80,0
105.48328,105.67911,49,80,0
105.68327,105.879105,52,80,0
105.88327,106.07911,49,80,0
106.083275,106.279106,45,80,0
106.28327,106.4791,44,80,0
106.48328,106.67911,40,80,0
106.68327,106.879105,42,80,0
106.88327,107.07911,44,80,0
107.083275,107.279106,45,80,0
107.28327,107.4791,44,80,0
107.48328,107.67911,42,80,0
107.68327,107.879105,47,80,0
107.88327,108.07911,52,70,0
108.083275,108.279106,47,70,0
108.28327,108.4791,54,70,0
107.88327,108.67911,40,70,0
108.48328,108.67911,47,70,0
108.68327,108.879105,52,70,0
108.88327,109.07911,47,70,0
109.083275,109.279106,54,70,0
108.68327,109.4791,40,70,0
109.28327,109.4791,47,70,0
109.48328,109.879105,52,70,0
109.48328,109.879105,40,70,0
109.88327,110.279106,40,70,0
110.28327,110.67911,40,70,0
110.88327,111.07911,57,100,0
111.083275,111.4791,52,100,0
111.68327,111.7291,52,100,0
111.73328,111.779106,50,100,0
111.78327,111.82911,49,100,0
111.833275,111.879105,47,100,0
111.88327,112.279106,45,100,0
112.48328,112.61244,33,100,0
112.54994,112.67911,37,100,0
112.61661,112.67911,40,100,0
112.68327,112.879105,45,100,0
112.88327,113.07911,47,80,0
113.083275,113.279106,49,80,0
113.28327,113.4791,50,80,0
113.48328,113.67911,52,80,0
113.68327,113.879105,54,80,0
113.88327,114.07911,56,80,0
114.083275,114.279106,57,80,0
114.28327,114.879105,52,110,0
114.88327,115.07911,50,80,0
115.083275,115.279106,49,80,0
115.28327,115.4791,52,80,0
115.48328,115.67911,49,80,0
115.68327,115.879105,45,80,0
115.88327,116.07911,44,80,0
116.083275,116.279106,52,80,0
116.28327,116.4791,54,80,0
116.48328,116.67911,56,80,0
116.68327,116.879105,57,80,0
116.88327,117.07911,52,80,0
117.083275,117.279106,57,80,0
117.28327,117.4791,61,80,0
117.48328,118.07911,64,104,0
118.083275,118.279106,62,80,0
118.28327,118.4791,61,80,0
118.48328,118.67911,56,80,0
118.68327,118.879105,57,80,0
118.88327,119.07911,54,80,0
119.083275,119.4791,52,80,0
119.48328,119.879105,40,80,0
119.88327,120.01244,45,110,0
119.94994,120.07911,49,110,0
120.01661,120.145775,50,110,0
120.083275,120.21244,52,110,0
120.14994,120.279106,54,110,0
120.216606,120.34577,56,110,0
120.28327,120.41244,57,110,0
120.34994,120.4791,61,110,0
120.4166,120.54578,62,110,0
120.48328,120.61244,64,110,0
120.54994,120.67911,66,110,0
120.61661,120.67911,68,110,0
120.68327,120.879105,69,110,0
120.88327,121.07911,68,110,0
121.083275,121.279106,66,110,0
121.28327,121.4791,64,110,0
121.48328,121.67911,62,110,0
121.68327,121.879105,61,110,0
121.88327,122.07911,59,110,0
122.083275,122.279106,57,110,0
122.28327,122.4791,56,110,0
122.48328,122.67911,54,110,0
122.68327,122.879105,52,110,0
122.88327,123.07911,50,110,0
123.083275,123.21244,49,110,0
123.14994,123.279106,52,110,0
123.216606,123.34577,54,110,0
123.28327,123.41244,56,110,0
123.34994,123.4791,57,110,0
123.4166,123.54578,59,110,0
123.48328,123.61244,61,110,0
123.54994,123.67911,64,110,0
123.61661,123.74577,66,110,0
123.68327,123.81244,68,110,0
123.74994,123.879105,69,110,0
123.816605,123.879105,71,110,0
123.88327,124.07911,73,110,0
124.083275,124.279106,71,110,0
124.28327,124.4791,69,110,0
124.48328,124.67911,68,110,0
124.68327,124.879105,69,110,0
124.88327,125.07911,68,110,0
125.083275,125.279106,66,110,0
125.28327,125.4791,64,110,0
125.48328,125.67911,63,120,0
125.68327,125.879105,61,120,0
125.88327,126.07911,59,120,0
126.083275,126.279106,57,120,0
126.28327,126.4791,56,120,0
126.48328,126.67911,54,120,0
126.68327,126.879105,52,120,0
126.88327,127.07911,51,120,0
127.083275,127.279106,49,120,0
127.28327,127.4791,47,120,0
127.48328,127.67911,46,120,0
127.68327,127.879105,42,120,0
127.88327,129.47911,47,80,0
129.48328,131.27911,35,80,0
131.28328,131.47911,39,80,0
131.48328,131.67911,42,80,0
131.68327,131.8791,46,80,0
131.88327,132.0791,47,80,0
132.08327,132.27911,51,80,0
132.28328,132.47911,54,80,0
132.48328,132.67911,58,80,0
132.68327,132.8791,59,80,0
132.88327,133.0791,58,80,0
133.08327,133.27911,59,80,0
134.28888,134.49146,57,80,0
134.49577,134.69836,56,80,0
134.70267,134.90526,57,80,0
135.98137,136.19897,55,80,0
136.2036,136.42119,54,80,0
136.42583,136.64342,55,80,0
138.41582,138.6184,59,80,0
138.20891,140.30296,57,80,0
138.62271,140.30296,60,100,0
140.30743,140.74725,59,100,0
137.79512,141.1917,51,80,0
138.00201,141.1917,54,80,0
140.75188,141.1917,57,100,0
141.19632,141.29216,55,100,0
141.19632,141.29216,52,100,0
141.29633,141.39215,59,100,0
141.39632,141.49216,55,100,0
141.39632,141.49216,52,100,0
141.49632,141.59216,59,100,0
141.59633,141.69215,55,100,0
141.59633,141.69215,52,100,0
141.69632,141.79216,59,100,0
141.79633,141.89215,55,100,0
141.79633,141.89215,52,100,0
141.89632,141.99216,59,100,0
141.99632,142.09216,55,100,0
141.99632,142.09216,52,100,0
142.09633,142.19215,59,100,0
142.19632,142.29216,55,100,0
142.19632,142.29216,52,100,0
142.29633,142.39215,59,100,0
142.39632,142.49216,55,100,0
142.39632,142.49216,52,100,0
142.49632,142.59216,59,100,0
142.59633,142.69215,55,100,0
142.59633,142.69215,52,100,0
142.69632,142.79216,59,100,0
142.79633,142.89215,57,100,0
142.79633,142.89215,54,100,0
142.89632,142.99216,59,100,0
142.99632,143.09216,57,100,0
142.99632,143.09216,54,100,0
143.09633,143.19215,60,100,0
143.19632,143.29216,57,100,0
143.19632,143.29216,54,100,0
143.29633,143.39215,60,100,0
143.39632,143.49216,57,100,0
143.39632,143.49216,54,100,0
143.49632,143.59216,60,100,0
143.59633,143.69215,57,100,0
143.59633,143.69215,54,100,0
143.69632,143.79216,60,100,0
143.79633,143.89215,57,100,0
143.79633,143.89215,54,100,0
143.89632,143.99216,60,100,0
143.99632,144.09216,57,100,0
143.99632,144.09216,54,100,0
144.09633,144.19215,60,100,0
144.19632,144.29216,57,100,0
144.19632,144.29216,54,100,0
144.29633,144.39215,60,100,0
144.39632,144.49216,55,100,0
144.39632,144.49216,59,100,0
144.49632,144.59216,60,100,0
144.59633,144.69215,59,100,0
144.59633,144.69215,55,100,0
144.69632,144.79216,62,100,0
144.79633,144.89215,55,100,0
144.79633,144.89215,59,100,0
144.89632,144.99216,62,100,0
144.99632,145.09216,59,100,0
144.99632,145.09216,55,100,0
145.09633,145.19215,62,100,0
145.19632,145.29216,55,100,0
145.19632,145.29216,59,100,0
145.29633,145.39215,62,100,0
145.39632,145.49216,59,100,0
145.39632,145.49216,55,100,0
145.49632,145.59216,62,100,0
145.59633,145.69215,55,100,0
145.59633,145.69215,59,100,0
145.69632,145.79216,62,100,0
145.79633,145.89215,59,100,0
145.79633,145.89215,55,100,0
145.89632,145.99216,62,100,0
145.99632,146.09216,57,100,0
145.99632,146.09216,60,100,0
146.09633,146.19215,62,100,0
146.19632,146.29216,57,100,0
146.19632,146.29216,60,100,0
146.29633,146.39215,63,100,0
146.39632,146.49216,57,100,0
146.39632,146.49216,60,100,0
146.49632,146.59216,63,100,0
146.59633,146.69215,57,100,0
146.59633,146.69215,60,100,0
146.69632,146.79216,63,100,0
146.79633,146.89215,57,100,0
146.79633,146.89215,60,100,0
146.89632,146.99216,63,100,0
146.99632,147.09216,57,100,0
146.99632,147.09216,60,100,0
147.09633,147.19215,63,100,0
147.19632,147.29216,57,100,0
147.19632,147.29216,60,100,0
147.29633,147.39215,63,100,0
147.39632,147.49216,57,100,0
147.39632,147.49216,60,100,0
147.49632,147.59216,63,100,0
147.59633,147.69215,58,100,0
147.59633,147.69215,62,100,0
147.69632,147.79216,63,100,0
147.79633,147.89215,58,100,0
147.79633,147.89215,62,100,0
147.89632,147.99216,65,100,0
147.99632,148.09216,58,100,0
147.99632,148.09216,62,100,0
148.09633,148.19215,65,100,0
148.19632,148.29216,58,100,0
148.19632,148.29216,62,100,0
148.29633,148.39215,65,100,0
148.39632,148.49216,58,100,0
148.39632,148.49216,62,100,0
148.49632,148.59216,65,100,0
148.59633,148.69215,58,100,0
148.59633,148.69215,62,100,0
148.69632,148.79216,65,100,0
148.79633,148.89215,58,100,0
148.79633,148.89215,62,100,0
148.89632,148.99216,65,100,0
148.99632,149.09216,58,100,0
148.99632,149.09216,62,100,0
149.09633,149.19215,65,100,0
149.19632,149.29216,60,100,0
149.19632,149.29216,63,100,0
149.29633,149.39215,65,100,0
149.39632,149.49216,60,100,0
149.39632,149.49216,63,100,0
149.49632,149.59216,66,100,0
149.59633,149.69215,60,100,0
149.59633,149.69215,63,100,0
149.69632,149.79216,66,100,0
149.79633,149.89215,60,100,0
149.79633,149.89215,63,100,0
149.89632,149.99216,66,100,0
149.99632,150.09216,61,100,0
149.99632,150.09216,64,100,0
150.09633,150.19215,66,100,0
150.19632,150.29216,61,100,0
150.19632,150.29216,64,100,0
150.29633,150.39215,67,100,0
150.39632,150.49216,61,100,0
150.39632,150.49216,64,100,0
150.49632,150.59216,67,100,0
150.59633,150.69215,61,100,0
150.59633,150.69215,64,100,0
150.69632,150.79216,67,100,0
150.79633,150.89215,62,100,0
150.79633,150.89215,66,100,0
150.89632,150.99216,67,100,0
150.99632,151.09216,62,100,0
150.99632,151.09216,66,100,0
151.09633,151.19215,69,100,0
151.19632,151.29216,62,100,0
151.19632,151.29216,66,100,0
151.29633,151.39215,69,100,0
151.39632,151.49216,62,100,0
151.39632,151.49216,66,100,0
151.49632,151.59216,69,100,0
151.59633,151.69215,63,100,0
151.59633,151.69215,66,100,0
151.69632,151.79216,69,100,0
151.79633,151.89215,63,100,0
151.79633,151.89215,66,100,0
151.89632,151.99216,69,100,0
151.99632,152.09216,63,100,0
151.99632,152.09216,66,100,0
152.09633,152.19215,69,100,0
152.19632,152.29216,63,100,0
152.19632,152.29216,66,100,0
152.29633,152.39215,69,100,0
152.39632,152.49216,64,100,0
152.39632,152.49216,68,100,0
152.49632,152.59216,69,100,0
152.59633,152.69215,64,100,0
152.59633,152.69215,68,100,0
152.69632,152.79216,71,100,0
152.79633,152.89215,64,100,0
152.79633,152.89215,68,100,0
152.89632,152.99216,71,100,0
152.99632,153.09216,64,100,0
152.99632,153.09216,68,100,0
153.09633,153.19215,71,100,0
153.19632,153.29216,65,100,0
153.19632,153.29216,68,100,0
153.29633,153.39215,71,100,0
153.39632,153.49216,65,100,0
153.39632,153.49216,68,100,0
153.49632,153.59216,71,100,0
153.59633,153.69215,65,100,0
153.59633,153.69215,68,100,0
153.69632,153.79216,71,100,0
153.79633,153.89215,65,100,0
153.79633,153.89215,68,100,0
153.89632,153.99216,71,100,0
153.99632,154.09216,66,100,0
153.99632,154.09216,69,100,0
154.09633,154.19215,71,100,0
154.19632,154.29216,66,100,0
154.19632,154.29216,69,100,0
154.29633,154.39215,71,100,0
154.39632,154.49216,66,100,0
154.39632,154.49216,69,100,0
154.49632,154.59216,72,100,0
154.59633,154.69215,66,100,0
154.59633,154.69215,69,100,0
154.69632,154.79216,72,100,0
154.79633,154.89215,66,100,0
154.79633,154.89215,69,100,0
154.89632,154.99216,72,100,0
154.99632,155.09216,66,100,0
154.99632,155.09216,69,100,0
155.09633,155.19215,72,100,0
155.19632,155.29216,66,100,0
155.19632,155.29216,69,100,0
155.29633,155.39215,72,100,0
155.39632,155.49216,66,100,0
155.39632,155.49216,69,100,0
155.49632,155.59216,72,100,0
155.59633,155.99216,66,100,0
155.59633,155.99216,69,100,0
156.19632,156.29216,48,120,0
156.24632,156.34216,47,120,0
156.29633,156.39215,45,120,0
156.34633,156.39215,43,120,0
156.39632,156.79216,42,120,0
157.79633,157.89215,48,120,0
157.84633,157.94215,47,120,0
157.89632,157.99216,45,120,0
157.94632,157.99216,43,120,0
157.99632,158.39215,42,120,0
159.19632,159.59216,66,90,0
159.19632,159.59216,69,90,0
159.19632,159.59216,72,90,0
159.99632,160.39215,66,90,0
159.99632,160.39215,69,90,0
159.99632,160.39215,72,90,0
160.79633,161.19215,66,90,0
160.79633,161.19215,69,90,0
160.79633,161.19215,72,90,0
161.99632,162.39215,56,120,0
161.99632,162.39215,59,120,0
161.99632,162.39215,64,120,0
163.59633,164.39215,46,120,0
164.39632,165.19215,45,120,0
164.39632,165.19215,35,120,0
165.19632,165.59216,40,100,0
165.19632,165.59216,44,100,0
166.79633,167.59216,70,120,0
167.59633,168.39215,69,120,0
167.59633,168.39215,59,120,0
168.39632,168.52548,64,100,0
168.46298,168.59216,68,100,0
168.52966,168.65883,69,100,0
168.59633,168.7255,71,100,0
168.663,168.79216,73,100,0
168.72966,168.85883,75,100,0
168.79633,168.99216,76,100,0
169.99632,170.12549,47,100,0
170.06299,170.19215,51,100,0
170.12965,170.25882,52,100,0
170.19632,170.32549,54,100,0
170.26299,170.39215,56,100,0
170.32965,170.45882,57,100,0
170.39632,170.52548,59,100,0
170.46298,170.59216,63,100,0
170.52966,170.65883,64,100,0
170.59633,170.7255,66,100,0
170.663,170.79216,68,100,0
170.72966,170.79216,69,100,0
170.79633,170.99216,71,100,0
170.99632,171.19215,69,100,0
171.19632,171.39215,68,100,0
171.39632,171.59216,66,100,0
171.59633,171.7255,40,100,0
171.663,171.79216,44,100,0
171.72966,171.85883,45,100,0
171.79633,171.92549,47,100,0
171.86299,171.99216,49,100,0
171.92966,172.05882,51,100,0
171.99632,172.12549,52,100,0
172.06299,172.19215,56,100,0
172.12965,172.25882,57,100,0
172.19632,172.32549,59,100,0
172.26299,172.39215,61,100,0
172.32965,172.39215,63,100,0
172.39632,172.59216,64,100,0
172.59633,172.79216,63,100,0
172.79633,172.99216,61,100,0
172.99632,173.19215,59,100,0
173.19632,173.39215,57,100,0
173.39632,173.59216,56,100,0
173.59633,173.79216,54,100,0
173.79633,173.99216,52,100,0
173.99632,174.19215,51,120,0
174.19632,174.39215,49,120,0
174.39632,174.59216,47,120,0
174.59633,174.79216,45,120,0
174.79633,174.99216,44,120,0
174.99632,175.19215,42,120,0
175.19632,175.39215,40,120,0
175.39632,175.59216,39,120,0
175.59633,175.79216,37,120,0
175.79633,175.99216,35,120,0
175.99632,176.19215,33,120,0
176.19632,176.39215,32,120,0
176.39632,177.19215,33,120,0
177.19632,177.99216,35,120,0
177.99632,179.59216,40,80,0
179.79633,179.99216,42,80,0
179.99632,180.19215,44,80,0
180.19632,180.39215,45,80,0
180.39632,180.59216,47,80,0
180.59633,180.79216,49,80,0
180.79633,180.99216,50,80,0
180.99632,181.19215,51,80,0
181.19632,181.99216,52,80,0
181.99632,182.39215,51,80,0
179.59633,182.79216,40,80,0
182.39632,182.79216,54,80,0
182.99632,183.19215,42,80,0
183.19632,183.39215,44,80,0
183.39632,183.59216,45,80,0
183.59633,183.79216,47,80,0
183.79633,183.99216,49,80,0
183.99632,184.19215,50,80,0
182.79633,184.39215,40,80,0
184.19632,184.39215,51,80,0
184.39632,184.52966,40,70,0
184.39632,184.52966,52,70,0
184.59633,184.72966,49,70,0
184.79633,184.92966,47,70,0
184.99632,185.12965,45,70,0
185.19632,185.32965,44,70,0
185.39632,185.52966,45,70,0
185.59633,185.72966,44,70,0
185.79633,185.92966,42,70,0
185.99632,186.28204,40,70,0
186.85347,187.34825,40,70,0
187.85347,188.44722,40,70,0
190.25346,190.74826,64,70,0
191.25346,191.74826,64,70,0
192.25346,192.74826,64,70,0
193.80347,193.9993,60,110,0
194.00346,194.39929,55,110,0
194.60347,194.6993,55,110,0
194.65346,194.7493,53,110,0
194.70346,194.7993,52,110,0
194.75346,194.7993,50,110,0
194.80347,195.1993,48,110,0
195.40346,195.5993,60,110,0
195.60347,195.9993,57,110,0
196.20346,196.2993,57,110,0
196.25346,196.3493,55,110,0
196.30347,196.39929,53,110,0
196.35347,196.39929,52,110,0
196.40346,196.7993,50,110,0
197.00346,197.1993,65,110,0
197.20346,197.5993,62,110,0
197.60347,197.9993,59,110,0
198.00346,198.39929,55,110,0
198.40346,198.7993,53,110,0
198.80347,199.1993,50,110,0
199.20346,199.5993,47,110,0
199.60347,199.9993,43,110,0
200.00346,200.39929,43,120,0
200.00346,200.39929,31,120,0
200.40346,200.7993,44,120,0
200.40346,200.7993,32,120,0
201.00346,201.1993,44,120,0
201.20346,201.5993,39,120,0
201.80347,201.89929,39,120,0
201.85347,201.9493,37,120,0
201.90346,201.9993,36,120,0
201.95346,201.9993,34,120,0
202.00346,202.39929,32,120,0
205.80347,205.9993,51,120,0
206.00346,206.39929,46,120,0
206.60347,206.6993,46,120,0
206.65346,206.7493,44,120,0
206.70346,206.7993,43,120,0
206.75346,206.7993,41,120,0
206.80347,207.1993,39,120,0
210.60347,210.7993,48,120,0
210.80347,211.1993,43,120,0
211.40346,211.4993,43,120,0
211.45346,211.5493,41,120,0
211.50346,211.5993,40,120,0
211.55347,211.5993,38,120,0
211.60347,211.9993,36,120,0
214.80347,215.1993,36,120,0
214.85347,215.1993,41,120,0
214.90346,215.1993,44,120,0
214.95346,215.1993,48,120,0
218.00346,218.39929,36,120,0
218.05347,218.39929,41,120,0
218.10347,218.39929,44,120,0
218.15346,218.39929,48,120,0
221.60347,221.9993,48,120,0
222.00346,222.39929,43,120,0
222.40346,222.7993,40,120,0
222.80347,223.27846,36,100,0
222.80347,223.27846,48,100,0
223.76346,224.35721,48,100,0
223.76346,224.35721,40,100,0
223.76346,224.35721,36,100,0
223.76346,224.35721,43,100,0
224.96347,227.0593,36,100,0
224.96347,227.0593,40,100,0
224.96347,227.0593,43,100,0
224.96347,227.0593,48,100,0
227.26346,227.6593,53,110,0
227.26346,227.6593,48,110,0
227.26346,227.6593,45,110,0
227.26346,227.6593,41,110,0
229.06346,229.2593,48,100,0
229.26346,229.4593,50,100,0
229.46347,229.6593,52,100,0
229.66347,229.8593,53,100,0
229.86346,230.0593,41,100,0
230.06346,230.2593,45,100,0
230.26346,230.4593,46,100,0
230.46347,231.0593,48,100,0
231.06346,231.2593,46,100,0
231.26346,231.4593,45,100,0
231.46347,231.6593,48,100,0
231.66347,231.8593,45,100,0
231.86346,232.0593,41,100,0
232.06346,232.2593,40,100,0
232.26346,232.4593,36,100,0
232.46347,232.6593,38,100,0
232.66347,232.8593,40,100,0
232.86346,233.0593,41,100,0
233.06346,233.2593,45,100,0
233.26346,233.4593,46,100,0
233.46347,233.6593,43,100,0
233.66347,233.8593,48,100,0
233.86346,234.0593,47,100,0
234.06346,234.2593,48,100,0
234.26346,234.39262,41,110,0
234.33012,234.4593,45,110,0
234.3968,234.4593,48,110,0
234.46347,234.6593,53,110,0
234.66347,234.8593,55,100,0
234.86346,235.0593,57,100,0
235.06346,235.2593,58,100,0
235.26346,235.4593,60,100,0
235.46347,235.6593,62,100,0
235.66347,235.8593,64,100,0
235.86346,236.0593,65,100,0
236.06346,236.6593,60,100,0
236.66347,236.8593,58,100,0
236.86346,237.0593,57,100,0
237.06346,237.2593,60,100,0
237.26346,237.4593,57,100,0
237.46347,237.6593,53,100,0
237.66347,237.8593,52,100,0
237.86346,238.0593,48,100,0
238.06346,238.2593,50,100,0
238.26346,238.4593,52,100,0
238.46347,238.6593,53,100,0
238.66347,238.8593,45,100,0
238.86346,239.0593,50,100,0
239.06346,239.2593,53,100,0
239.26346,239.8593,57,110,0
239.86346,240.0593,55,100,0
240.06346,240.2593,53,100,0
240.26346,240.4593,57,100,0
240.46347,240.6593,53,100,0
240.66347,240.8593,50,100,0
240.86346,241.0593,49,100,0
241.06346,241.2593,45,100,0
241.26346,241.4593,47,100,0
241.46347,241.6593,49,100,0
241.66347,241.8593,50,100,0
241.86346,242.0593,53,100,0
242.06346,242.2593,55,100,0
242.26346,242.4593,52,100,0
242.46347,242.6593,57,100,0
242.66347,242.8593,56,100,0
242.86346,243.0593,57,100,0
243.46347,243.59264,50,110,0
243.53014,243.6593,53,110,0
243.5968,243.72597,57,110,0
243.66347,243.8593,62,110,0
243.86346,243.99263,38,110,0
243.93013,244.0593,41,110,0
243.9968,244.0593,45,110,0
244.06346,244.2593,50,110,0
244.26346,244.4593,52,110,0
244.46347,244.6593,53,110,0
245.06346,245.19263,55,110,0
245.13013,245.2593,58,110,0
245.1968,245.32596,62,110,0
245.26346,245.4593,67,110,0
245.46347,245.59264,43,110,0
245.53014,245.6593,46,110,0
245.5968,245.6593,50,110,0
245.66347,245.8593,55,110,0
245.86346,246.0593,57,110,0
246.06346,246.2593,58,110,0
246.66347,246.79263,48,110,0
246.73013,246.8593,52,110,0
246.7968,246.92596,55,110,0
246.86346,247.0593,60,110,0
247.06346,247.19263,36,110,0
247.13013,247.2593,40,110,0
247.1968,247.2593,43,110,0
247.26346,247.4593,48,110,0
247.46347,247.6593,50,110,0
247.66347,247.8593,52,110,0
248.26346,248.39262,53,110,0
248.33012,248.4593,57,110,0
248.3968,248.52597,60,110,0
248.46347,248.6593,65,110,0
248.66347,248.79263,41,110,0
248.73013,248.8593,45,110,0
248.7968,248.8593,48,110,0
248.86346,249.0593,53,110,0
249.06346,249.2593,55,110,0
249.26346,249.4593,57,110,0
249.66347,249.8593,67,80,0
249.86346,250.0593,69,80,0
250.06346,250.2593,70,80,0
250.46347,250.6593,69,80,0
250.66347,250.8593,67,80,0
250.86346,251.0593,65,80,0
251.26346,251.4593,64,80,0
251.46347,251.6593,65,80,0
251.66347,251.8593,67,80,0
252.26346,252.39262,50,110,0
252.33012,252.4593,53,110,0
252.3968,252.52597,57,110,0
252.46347,252.6593,62,110,0
252.66347,252.79263,38,110,0
252.73013,252.8593,41,110,0
252.7968,252.8593,45,110,0
252.86346,253.0593,50,110,0
253.06346,253.2593,52,110,0
253.26346,253.4593,53,110,0
253.66347,253.8593,64,80,0
253.86346,254.0593,65,80,0
254.06346,254.2593,67,80,0
254.46347,254.6593,65,80,0
254.66347,254.8593,64,80,0
254.86346,255.0593,62,80,0
255.26346,255.4593,62,80,0
255.46347,255.6593,60,80,0
255.66347,255.8593,59,80,0
256.26346,256.39264,45,110,0
256.33014,256.4593,48,110,0
256.3968,256.52597,52,110,0
256.46347,256.6593,57,110,0
256.66345,256.79263,33,110,0
256.73013,256.85928,36,110,0
256.79678,256.85928,40,110,0
256.86346,257.0593,45,110,0
257.06348,257.2593,47,110,0
257.26346,257.4593,48,110,0
257.66345,257.85928,59,80,0
257.86346,258.0593,60,80,0
258.06348,258.2593,62,80,0
258.46347,258.6593,60,80,0
258.66345,258.85928,59,80,0
258.86346,259.0593,57,80,0
259.26346,259.4593,57,80,0
259.46347,259.6593,56,80,0
259.66345,259.85928,54,80,0
260.26346,260.39264,40,110,0
260.33014,260.4593,44,110,0
260.3968,260.4593,47,110,0
260.46347,261.6593,52,110,0
261.86346,261.99265,40,110,0
261.93015,262.0593,45,110,0
261.9968,262.0593,48,110,0
262.06348,263.2593,52,110,0
263.46347,263.59262,40,110,0
263.53012,263.6593,44,110,0
263.5968,263.6593,47,110,0
263.66345,264.85928,52,110,0
265.06348,265.19263,40,110,0
265.13013,265.2593,45,110,0
265.1968,265.2593,48,110,0
265.26346,266.4593,52,110,0
266.66345,266.85928,40,120,0
266.86346,267.0593,44,120,0
267.06348,267.2593,47,120,0
267.26346,267.4593,49,120,0
267.46347,267.6593,51,120,0
267.66345,267.85928,52,120,0
267.86346,268.0593,40,120,0
268.26346,268.4593,42,120,0
268.46347,268.6593,45,120,0
268.66345,268.85928,49,120,0
268.86346,269.0593,50,120,0
269.06348,269.2593,52,120,0
269.26346,269.4593,54,120,0
269.46347,269.6593,42,120,0
269.86346,270.0593,44,120,0
270.06348,270.2593,47,120,0
270.26346,270.4593,51,120,0
270.46347,270.6593,52,120,0
270.66345,270.85928,54,120,0
270.86346,271.0593,56,120,0
271.06348,271.2593,57,120,0
271.26346,271.4593,59,120,0
271.46347,271.6593,57,120,0
271.66345,271.85928,56,120,0
271.86346,272.0593,54,120,0
272.06348,272.4593,52,80,0
272.86346,273.0593,52,80,0
273.06348,273.2593,54,80,0
273.26346,273.4593,56,80,0
273.46347,273.6593,57,80,0
273.66345,274.0593,59,80,0
274.46347,274.67328,56,70,0
274.46347,274.67328,52,70,0
275.32062,275.5654,54,70,0
275.32062,275.5654,57,70,0
276.32062,276.61435,59,70,0
276.32062,276.61435,50,70,0
277.5206,278.2628,59,70,0
277.5206,278.2628,52,70,0
279.6206,279.81644,57,100,0
279.82062,280.21643,52,100,0
280.4206,280.46643,52,100,0
280.4706,280.51645,50,100,0
280.5206,280.56644,49,100,0
280.57062,280.61642,47,100,0
280.6206,281.01645,45,100,0
281.2206,281.41644,57,100,0
281.4206,281.81644,54,100,0
282.0206,282.06644,54,100,0
282.07062,282.11642,52,100,0
282.1206,282.16644,50,100,0
282.1706,282.21643,49,100,0
282.2206,282.61642,47,100,0
282.82062,283.01645,62,110,0
283.0206,283.41644,59,110,0
283.4206,283.81644,56,110,0
283.82062,284.21643,52,110,0
284.2206,284.61642,50,80,0
284.6206,285.01645,47,80,0
285.0206,285.41644,44,80,0
285.4206,285.81644,40,80,0
286.4206,286.4831,57,80,0
286.2206,286.61642,45,110,0
286.28726,286.61642,49,80,0
286.35394,286.61642,52,80,0
288.0206,288.21643,52,80,0
288.2206,288.41644,54,80,0
288.4206,288.61642,56,80,0
288.6206,288.81644,57,80,0
288.82062,289.01645,45,80,0
289.0206,289.21643,49,80,0
289.2206,289.41644,50,80,0
289.4206,290.01645,52,80,0
290.0206,290.21643,50,80,0
290.2206,290.41644,49,80,0
290.4206,290.61642,52,80,0
290.6206,290.81644,49,80,0
290.82062,291.01645,45,80,0
291.0206,291.21643,44,80,0
291.2206,291.41644,40,80,0
291.4206,291.61642,42,80,0
291.6206,291.81644,44,80,0
291.82062,292.01645,45,80,0
292.0206,292.21643,44,80,0
292.2206,292.41644,42,80,0
292.4206,292.61642,47,80,0
292.6206,292.82318,52,70,0
292.8275,293.0301,47,70,0
293.0344,293.237,54,70,0
292.6206,293.44388,40,70,0
293.2413,293.44388,47,70,0
293.44818,293.65802,52,70,0
293.66248,293.87228,47,70,0
293.87677,294.08658,54,70,0
293.44818,294.30087,40,70,0
294.09103,294.30087,47,70,0
294.30533,294.72943,52,70,0
294.30533,294.72943,40,70,0
295.59103,295.80087,52,70,0
295.59103,296.01517,40,70,0
295.80533,296.01517,44,70,0
296.01962,296.22943,50,70,0
296.23392,296.44373,45,70,0
296.44818,296.65802,52,70,0
296.01962,296.87228,38,70,0
296.66248,296.87228,45,70,0
296.87677,297.08658,50,70,0
297.09103,297.30087,45,70,0
297.30533,297.51517,52,70,0
296.87677,297.72943,38,70,0
297.51962,297.72943,45,70,0
297.73392,298.15802,50,70,0
297.73392,298.15802,38,70,0
299.0355,299.25308,59,120,0
299.0355,299.4753,47,120,0
299.25772,299.4753,52,120,0
299.47992,299.67575,57,120,0
299.47992,299.87576,45,120,0
299.67993,299.87576,52,120,0
299.87994,300.07578,59,120,0
299.87994,300.27576,47,120,0
300.07993,300.27576,52,120,0
300.27994,300.47577,57,120,0
300.27994,300.67575,45,120,0
300.47992,300.67575,52,120,0
300.67993,300.87576,59,120,0
300.67993,301.07578,47,120,0
300.87994,301.07578,52,120,0
301.07993,301.2091,45,110,0
301.1466,301.27576,49,110,0
301.21326,301.34244,50,110,0
301.27994,301.4091,52,110,0
301.3466,301.47577,54,110,0
301.41327,301.54242,56,110,0
301.47992,301.6091,57,110,0
301.5466,301.67575,61,110,0
301.61325,301.74243,62,110,0
301.67993,301.8091,64,110,0
301.7466,301.87576,66,110,0
301.81326,301.87576,68,110,0
301.87994,302.07578,69,110,0
302.07993,302.27576,68,110,0
302.27994,302.47577,66,110,0
302.47992,302.67575,64,110,0
302.67993,302.87576,62,110,0
302.87994,303.07578,61,110,0
303.07993,303.27576,59,110,0
303.27994,303.47577,57,110,0
303.47992,303.67575,56,110,0
303.67993,303.87576,52,110,0
303.87994,304.07578,54,110,0
304.07993,304.27576,56,110,0
304.27994,304.4091,45,110,0
304.3466,304.47577,49,110,0
304.41327,304.54242,50,110,0
304.47992,304.6091,52,110,0
304.5466,304.67575,54,110,0
304.61325,304.74243,56,110,0
304.67993,304.8091,57,110,0
304.7466,304.87576,61,110,0
304.81326,304.94244,62,110,0
304.87994,305.0091,64,110,0
304.9466,305.07578,66,110,0
305.01328,305.07578,68,110,0
305.07993,305.27576,69,110,0
305.27994,305.47577,68,110,0
305.47992,305.67575,66,110,0
305.67993,305.87576,64,110,0
305.87994,306.07578,62,110,0
306.07993,306.27576,61,112,0
306.27994,306.47577,59,115,0
306.47992,306.67575,57,117,0
306.67993,306.87576,56,120,0
306.87994,307.07578,54,120,0
307.07993,307.27576,52,120,0
307.27994,307.47577,50,120,0
307.47992,307.67575,49,120,0
307.67993,307.87576,47,120,0
307.87994,308.07578,45,120,0
308.07993,308.27576,44,120,0
308.27994,308.47577,42,120,0
308.47992,308.67575,40,120,0
308.67993,308.87576,39,120,0
308.87994,309.07578,36,120,0
309.07993,312.47577,40,100,0
312.47992,312.67575,44,100,0
312.67993,312.87576,47,100,0
312.87994,313.07578,51,100,0
313.07993,313.27576,52,100,0
313.27994,313.47577,56,100,0
313.47992,313.67575,59,100,0
313.67993,313.87576,63,100,0
313.87994,314.07578,64,100,0
314.07993,314.27576,63,100,0
314.27994,314.47577,64,100,0
315.47992,315.68253,62,100,0
315.68683,315.8894,61,100,0
315.89374,316.0963,62,100,0
317.16467,317.38226,60,100,0
317.38687,317.60446,59,100,0
317.6091,317.8267,60,100,0
319.59732,319.7999,64,100,0
319.3904,321.47906,62,100,0
319.8042,321.47906,65,116,0
321.48367,321.93365,64,100,0
318.97662,322.4098,56,100,0
319.18353,322.4098,59,100,0
321.93845,322.4098,62,100,0
322.4148,322.5175,57,100,0
322.4148,322.5175,60,100,0
322.52194,322.62463,64,100,0
322.6291,322.73178,57,100,0
322.6291,322.73178,60,100,0
322.73624,322.8389,64,100,0
322.84338,322.9425,57,100,0
322.84338,322.9425,60,100,0
322.94684,323.04596,64,100,0
323.05026,323.1482,57,100,0
323.05026,323.1482,60,100,0
323.1524,323.24954,64,100,0
323.25375,323.3496,57,100,0
323.25375,323.3496,60,100,0
323.35376,323.4496,64,100,0
323.45377,323.5496,57,100,0
323.45377,323.5496,60,100,0
323.55377,323.6496,64,100,0
323.65375,323.7496,57,100,0
323.65375,323.7496,60,100,0
323.75375,323.8496,64,100,0
323.85376,323.9496,57,100,0
323.85376,323.9496,60,100,0
323.95377,324.0496,64,100,0
324.05377,324.1496,59,100,0
324.05377,324.1496,62,100,0
324.15375,324.2496,64,100,0
324.25375,324.3496,59,100,0
324.25375,324.3496,62,100,0
324.35376,324.4496,65,100,0
324.45377,324.5496,59,100,0
324.45377,324.5496,62,100,0
324.55377,324.6496,65,100,0
324.65375,324.7496,59,100,0
324.65375,324.7496,62,100,0
324.75375,324.8496,65,100,0
324.85376,324.9496,59,100,0
324.85376,324.9496,62,100,0
324.95377,325.0496,65,100,0
325.05377,325.1496,59,100,0
325.05377,325.1496,62,100,0
325.15375,325.2496,65,100,0
325.25375,325.3496,59,100,0
325.25375,325.3496,62,100,0
325.35376,325.4496,65,100,0
325.45377,325.5496,59,100,0
325.45377,325.5496,62,100,0
325.55377,325.6496,65,100,0
325.65375,325.7496,60,100,0
325.65375,325.7496,64,100,0
325.75375,325.8496,67,100,0
325.85376,325.9496,60,100,0
325.85376,325.9496,64,100,0
325.95377,326.0496,67,100,0
326.05377,326.1496,60,100,0
326.05377,326.1496,64,100,0
326.15375,326.2496,67,100,0
326.25375,326.3496,60,100,0
326.25375,326.3496,64,100,0
326.35376,326.4496,67,100,0
326.45377,326.5496,60,100,0
326.45377,326.5496,64,100,0
326.55377,326.6496,67,100,0
326.65375,326.7496,60,100,0
326.65375,326.7496,64,100,0
326.75375,326.8496,67,100,0
326.85376,326.9496,60,100,0
326.85376,326.9496,64,100,0
326.95377,327.0496,67,100,0
327.05377,327.1496,60,100,0
327.05377,327.1496,64,100,0
327.15375,327.2496,67,100,0
327.25375,327.3496,62,100,0
327.25375,327.3496,65,100,0
327.35376,327.4496,67,100,0
327.45377,327.5496,62,100,0
327.45377,327.5496,65,100,0
327.55377,327.6496,68,100,0
327.65375,327.7496,62,100,0
327.65375,327.7496,65,100,0
327.75375,327.8496,68,100,0
327.85376,327.9496,62,100,0
327.85376,327.9496,65,100,0
327.95377,328.0496,68,100,0
328.05377,328.1496,62,100,0
328.05377,328.1496,65,100,0
328.15375,328.2496,68,100,0
328.25375,328.3496,62,100,0
328.25375,328.3496,65,100,0
328.35376,328.4496,68,100,0
328.45377,328.5496,62,100,0
328.45377,328.5496,65,100,0
328.55377,328.6496,68,100,0
328.65375,328.7496,62,100,0
328.65375,328.7496,65,100,0
328.75375,328.8496,68,100,0
328.85376,328.9496,63,100,0
328.95377,329.0496,67,100,0
329.05377,329.1496,55,100,0
329.05377,329.1496,51,100,0
329.15375,329.2496,58,100,0
329.25375,329.3496,51,100,0
329.25375,329.3496,55,100,0
329.35376,329.4496,58,100,0
329.45377,329.5496,51,100,0
329.45377,329.5496,55,100,0
329.55377,329.6496,58,100,0
329.65375,329.7496,51,100,0
329.65375,329.7496,55,100,0
329.75375,329.8496,58,100,0
329.85376,329.9496,51,100,0
329.85376,329.9496,55,100,0
329.95377,330.0496,58,100,0
330.05377,330.1496,51,100,0
330.05377,330.1496,55,100,0
330.15375,330.2496,58,100,0
330.25375,330.3496,51,100,0
330.25375,330.3496,55,100,0
330.35376,330.4496,58,100,0
330.45377,330.5496,53,100,0
330.45377,330.5496,56,100,0
330.55377,330.6496,58,100,0
330.65375,330.7496,53,100,0
330.65375,330.7496,56,100,0
330.75375,330.8496,59,100,0
330.85376,330.9496,53,100,0
330.85376,330.9496,56,100,0
330.95377,331.0496,59,100,0
331.05377,331.1496,53,100,0
331.05377,331.1496,56,100,0
331.15375,331.2496,59,100,0
331.25375,331.3496,54,100,0
331.25375,331.3496,57,100,0
331.35376,331.4496,59,100,0
331.45377,331.5496,54,100,0
331.45377,331.5496,57,100,0
331.55377,331.6496,60,100,0
331.65375,331.7496,54,100,0
331.65375,331.7496,57,100,0
331.75375,331.8496,60,100,0
331.85376,331.9496,54,100,0
331.85376,331.9496,57,100,0
331.95377,332.0496,60,100,0
332.05377,332.1496,55,100,0
332.05377,332.1496,59,100,0
332.15375,332.2496,61,100,0
332.25375,332.3496,55,100,0
332.25375,332.3496,59,100,0
332.35376,332.4496,62,100,0
332.45377,332.5496,55,100,0
332.45377,332.5496,59,100,0
332.55377,332.6496,62,100,0
332.65375,332.7496,55,100,0
332.65375,332.7496,59,100,0
332.75375,332.8496,62,100,0
332.85376,332.9496,56,100,0
332.85376,332.9496,59,100,0
332.95377,333.0496,62,100,0
333.05377,333.1496,56,100,0
333.05377,333.1496,59,100,0
333.15375,333.2496,62,100,0
333.25375,333.3496,56,100,0
333.25375,333.3496,59,100,0
333.35376,333.4496,62,100,0
333.45377,333.5496,56,100,0
333.45377,333.5496,59,100,0
333.55377,333.6496,62,100,0
333.65375,333.7496,57,100,0
333.65375,333.7496,61,100,0
333.75375,333.8496,62,100,0
333.85376,333.9496,57,100,0
333.85376,333.9496,61,100,0
333.95377,334.0496,64,100,0
334.05377,334.1496,57,100,0
334.05377,334.1496,61,100,0
334.15375,334.2496,64,100,0
334.25375,334.3496,57,100,0
334.25375,334.3496,61,100,0
334.35376,334.4496,64,100,0
334.45377,334.5496,57,100,0
334.45377,334.5496,61,100,0
334.55377,334.6496,64,100,0
334.65375,334.7496,57,100,0
334.65375,334.7496,61,100,0
334.75375,334.8496,64,100,0
334.85376,334.9496,57,100,0
334.85376,334.9496,61,100,0
334.95377,335.0496,64,100,0
335.05377,335.1496,57,100,0
335.05377,335.1496,61,100,0
335.15375,335.2496,64,100,0
335.25375,335.3496,62,100,0
335.25375,335.3496,59,100,0
335.35376,335.4496,64,100,0
335.45377,335.5496,59,100,0
335.45377,335.5496,62,100,0
335.55377,335.6496,64,100,0
335.65375,335.7496,62,100,0
335.65375,335.7496,59,100,0
335.75375,335.8496,65,100,0
335.85376,335.9496,59,100,0
335.85376,335.9496,62,100,0
335.95377,336.0496,65,100,0
336.05377,336.1496,62,100,0
336.05377,336.1496,59,100,0
336.15375,336.2496,65,100,0
336.25375,336.3496,59,100,0
336.25375,336.3496,62,100,0
336.35376,336.4496,65,100,0
336.45377,336.5496,62,100,0
336.45377,336.5496,59,100,0
336.55377,336.6496,65,100,0
336.65375,336.7496,59,100,0
336.65375,336.7496,62,100,0
336.75375,336.8496,65,100,0
336.85376,337.2496,59,100,0
336.85376,337.2496,62,100,0
337.45377,337.5496,53,120,0
337.50375,337.5996,52,120,0
337.55377,337.6496,50,120,0
337.60376,337.6496,48,120,0
337.65375,338.0496,47,120,0
339.05377,339.1496,53,120,0
339.10376,339.1996,52,120,0
339.15375,339.2496,50,120,0
339.20377,339.2496,48,120,0
339.25375,339.6496,47,120,0
340.45377,340.86325,59,70,0
340.45377,340.86325,62,70,0
340.45377,340.86325,65,70,0
341.2961,341.73593,59,70,0
341.2961,341.73593,62,70,0
341.2961,341.73593,65,70,0
342.20212,342.6771,59,70,0
342.20212,342.6771,62,70,0
342.20212,342.6771,65,70,0
343.48212,343.87793,61,120,0
343.48212,343.87793,57,120,0
343.48212,343.87793,52,120,0
343.48212,343.87793,49,120,0
345.0821,345.87793,51,120,0
345.0821,345.87793,42,120,0
345.8821,346.67795,50,120,0
345.8821,346.67795,40,120,0
346.6821,347.07794,49,120,0
346.6821,347.07794,45,120,0
348.2821,349.07794,66,120,0
348.2821,349.07794,69,120,0
349.0821,349.87793,64,120,0
349.0821,349.87793,68,120,0
349.8821,350.01126,57,100,0
349.94876,350.07794,61,100,0
350.01544,350.1446,62,100,0
350.0821,350.21127,64,100,0
350.14877,350.27795,66,100,0
350.21545,350.3446,68,100,0
350.2821,350.47794,69,100,0
351.48212,351.61127,40,100,0
351.54877,351.67795,44,100,0
351.61545,351.7446,45,100,0
351.6821,351.81128,47,100,0
351.74878,351.87793,49,100,0
351.81543,351.9446,50,100,0
351.8821,352.01126,52,100,0
351.94876,352.07794,56,100,0
352.01544,352.1446,57,100,0
352.0821,352.21127,59,100,0
352.14877,352.27795,61,100,0
352.21545,352.27795,62,100,0
352.2821,352.47794,64,100,0
352.48212,352.67795,62,100,0
352.6821,352.87793,61,100,0
352.8821,353.07794,59,100,0
353.0821,353.21127,33,110,0
353.14877,353.27795,37,110,0
353.21545,353.3446,38,110,0
353.2821,353.4113,40,110,0
353.3488,353.47794,42,110,0
353.41544,353.54462,44,110,0
353.48212,353.61127,45,110,0
353.54877,353.67795,49,110,0
353.61545,353.7446,50,110,0
353.6821,353.81128,52,110,0
353.74878,353.87793,54,110,0
353.81543,353.87793,56,110,0
353.8821,354.07794,57,110,0
354.0821,354.27795,56,110,0
354.2821,354.47794,54,110,0
354.48212,354.67795,52,110,0
354.6821,354.87793,50,110,0
354.8821,355.07794,49,110,0
355.0821,355.27795,47,110,0
355.2821,355.47794,45,110,0
355.48212,355.67795,44,120,0
355.6821,355.87793,42,120,0
355.8821,356.07794,40,120,0
356.0821,356.27795,38,120,0
356.2821,357.87793,37,120,0
357.8821,358.67795,38,120,0
358.6821,359.47794,40,120,0
359.48212,361.07794,33,85,0
361.2821,361.47794,35,85,0
361.48212,361.67795,37,85,0
361.6821,361.87793,38,85,0
361.8821,362.07794,40,85,0
362.0821,362.27795,42,85,0
362.2821,362.47794,43,85,0
361.0821,362.67795,33,85,0
362.48212,362.67795,44,85,0
362.6821,363.47794,45,70,0
363.48212,363.87793,44,70,0
362.6821,364.27795,33,70,0
363.8821,364.27795,47,70,0
364.48212,364.67795,35,70,0
364.6821,364.87793,37,70,0
364.8821,365.07794,38,70,0
365.0821,365.27795,40,70,0
365.2821,365.47794,42,70,0
365.48212,365.67795,43,70,0
364.2821,365.87793,33,70,0
365.6821,365.87793,44,70,0
365.8821,366.01544,33,70,0
365.8821,366.01544,45,70,0
366.0821,366.21545,42,70,0
366.2821,366.41544,40,70,0
366.48212,366.61545,38,70,0
366.6821,366.81543,37,70,0
366.8821,367.01544,38,70,0
367.0821,367.21545,37,70,0
367.2821,367.41544,35,70,0
367.48212,367.8021,33,70,0
368.4421,368.8421,33,70,0
369.64212,370.83585,33,70,0
