start_time,end_time,note_value,velocity,instrument_program_number
0.48,0.635,61,80,0
0.56,0.715,64,80,0
0.64,0.795,69,80,0
0.72,0.835,73,80,0
0.78,0.895,76,80,0
0.84,0.955,81,80,0
0.9,0.955,85,80,0
0.96,1.435,88,80,0
1.44,1.915,88,80,0
1.92,2.155,88,80,0
2.16,2.275,68,80,0
2.4,3.355,68,80,0
3.36,3.835,68,80,0
3.84,4.315,69,80,0
4.32,4.795,71,80,0
4.8,5.275,73,80,0
5.28,5.755,74,80,0
5.76,5.815,73,80,0
5.82,6.475,76,101,0
6.48,6.595,74,80,0
6.6,6.715,73,80,0
6.72,7.195,71,80,0
7.92,8.035,57,80,0
8.04,8.155,61,80,0
8.16,8.315,64,80,0
8.24,8.395,69,80,0
8.32,8.475,73,80,0
8.4,8.555,76,80,0
8.48,8.635,81,80,0
8.56,8.635,85,80,0
8.64,9.115,88,80,0
9.12,9.595,88,80,0
9.6,9.835,88,80,0
9.84,9.955,66,80,0
10.08,11.035,66,80,0
11.04,11.515,66,80,0
11.52,11.755,68,80,0
11.76,11.875,69,80,0
11.88,11.995,68,80,0
12.0,12.235,66,80,0
12.24,12.475,68,80,0
12.48,12.715,71,80,0
12.72,12.955,69,80,0
12.96,13.195,66,80,0
13.2,13.435,63,80,0
13.44,14.395,66,80,0
13.44,14.395,63,80,0
14.4,14.635,64,80,0
14.64,14.875,76,80,0
14.88,15.115,71,80,0
15.12,15.355,73,80,0
15.6,15.835,71,80,0
15.84,16.075,66,80,0
15.36,16.315,74,80,0
16.08,16.315,68,80,0
16.32,17.275,73,80,0
16.32,17.275,69,80,0
17.28,17.515,64,80,0
17.52,17.755,63,80,0
17.76,17.995,64,80,0
18.0,18.235,66,80,0
17.28,18.715,68,80,0
17.28,18.715,71,80,0
18.24,18.715,64,80,0
19.44,19.675,71,80,0
19.68,19.915,66,80,0
19.2,20.155,59,103,0
19.92,20.155,68,80,0
20.4,20.635,57,80,0
20.64,20.875,61,80,0
20.16,21.115,69,80,0
20.88,21.115,63,80,0
21.12,21.595,68,80,0
21.12,21.595,64,80,0
21.12,21.595,59,80,0
23.28,23.395,57,80,0
23.4,23.515,61,80,0
23.52,23.675,64,80,0
23.6,23.755,69,80,0
23.68,23.835,73,80,0
23.76,23.915,76,80,0
23.84,23.995,81,80,0
23.92,23.995,85,80,0
24.0,24.475,88,80,0
24.48,24.955,88,80,0
24.96,25.195,88,80,0
25.2,25.315,68,80,0
25.44,26.395,68,80,0
26.4,26.875,69,80,0
26.88,26.995,71,80,0
27.0,27.075,73,80,0
27.04,27.115,71,80,0
27.08,27.155,70,80,0
27.12,27.235,71,80,0
27.24,27.355,73,80,0
27.36,27.515,74,80,0
27.52,27.675,76,80,0
27.68,27.835,78,80,0
27.84,28.315,69,80,0
28.32,28.555,73,80,0
28.32,28.795,68,80,0
28.56,28.795,71,80,0
28.8,29.755,71,80,0
28.8,29.755,68,80,0
29.76,29.995,69,80,0
30.0,30.115,78,80,0
30.12,30.235,76,80,0
30.24,30.355,74,80,0
30.36,30.475,73,80,0
30.48,30.595,71,80,0
30.6,30.715,69,80,0
30.72,30.835,68,80,0
30.84,30.955,69,80,0
30.96,31.075,71,80,0
31.08,31.195,69,80,0
31.2,31.675,68,80,0
31.92,32.035,76,80,0
32.04,32.155,74,80,0
32.16,32.275,73,80,0
32.28,32.395,71,80,0
32.4,32.515,69,80,0
32.52,32.635,68,80,0
32.64,32.755,69,80,0
32.76,32.875,71,80,0
32.88,32.995,73,80,0
33.0,33.115,71,80,0
33.12,33.595,69,80,0
33.84,33.955,81,100,0
33.96,34.075,80,100,0
34.08,34.195,78,100,0
34.2,34.315,76,100,0
34.32,34.435,74,100,0
34.44,34.555,73,100,0
34.56,34.675,71,100,0
34.68,34.795,74,100,0
34.8,34.915,78,100,0
34.92,35.035,76,100,0
35.04,35.155,74,100,0
35.16,35.275,73,100,0
35.28,35.395,71,100,0
35.4,35.515,69,100,0
35.52,35.635,68,100,0
35.64,35.755,69,100,0
35.76,35.875,71,100,0
35.88,35.995,69,100,0
36.0,36.115,68,100,0
36.12,36.235,66,100,0
36.24,36.355,64,100,0
36.36,36.475,62,100,0
36.48,36.595,61,80,0
36.6,36.715,69,80,0
36.72,36.835,64,80,0
36.84,36.955,73,80,0
36.96,37.075,69,80,0
37.08,37.195,76,80,0
37.2,37.315,73,80,0
37.32,37.435,81,80,0
37.44,37.555,76,80,0
37.56,37.675,85,80,0
37.68,37.795,81,80,0
37.8,37.915,88,80,0
37.92,38.035,86,80,0
38.04,38.155,85,80,0
38.16,38.275,83,80,0
38.28,38.395,81,80,0
38.4,38.515,80,80,0
38.52,38.635,81,80,0
38.64,38.755,83,80,0
38.76,38.875,81,80,0
38.88,39.355,80,80,0
39.48,39.595,87,80,0
39.6,39.715,88,80,0
39.72,39.835,86,80,0
39.84,39.955,85,80,0
39.96,40.075,83,80,0
40.08,40.195,81,80,0
40.2,40.315,80,80,0
40.32,40.435,81,80,0
40.44,40.555,83,80,0
40.56,40.675,85,80,0
40.68,40.795,83,80,0
40.8,41.275,81,80,0
41.52,41.635,85,100,0
41.64,41.755,83,100,0
41.76,41.875,81,100,0
41.88,41.995,80,100,0
42.0,42.115,78,100,0
42.12,42.235,76,100,0
42.24,42.355,75,100,0
42.36,42.475,78,100,0
42.48,42.595,81,100,0
42.6,42.715,80,100,0
42.72,42.835,78,100,0
42.84,42.955,76,100,0
42.96,43.075,75,100,0
43.08,43.195,73,100,0
43.2,43.315,71,100,0
43.32,43.435,75,100,0
43.44,43.555,78,100,0
43.56,43.675,76,100,0
43.68,43.795,75,100,0
43.8,43.915,73,100,0
43.92,44.035,71,100,0
44.04,44.155,69,100,0
44.16,44.275,68,100,0
44.28,44.395,64,100,0
44.4,44.515,71,100,0
44.52,44.635,68,100,0
44.64,44.755,76,100,0
44.76,44.875,71,100,0
44.88,44.995,80,100,0
45.0,45.115,76,100,0
45.12,45.235,83,100,0
45.24,45.355,80,100,0
45.36,45.475,88,100,0
45.48,45.595,87,100,0
45.6,45.715,85,100,0
45.72,45.835,83,100,0
45.84,45.955,81,100,0
45.96,46.075,80,100,0
46.08,46.195,78,100,0
46.2,46.315,81,100,0
46.32,46.435,85,100,0
46.44,46.555,83,100,0
46.56,46.675,81,100,0
46.68,46.795,80,100,0
46.8,46.915,78,100,0
46.92,47.035,76,100,0
47.04,47.155,75,100,0
47.16,47.275,76,100,0
47.28,47.395,75,100,0
47.4,47.515,73,100,0
47.52,47.635,71,100,0
47.64,47.755,69,100,0
47.76,47.875,68,100,0
47.88,47.995,66,100,0
48.0,48.475,64,80,0
49.44,49.675,71,80,0
49.68,49.915,76,80,0
49.92,50.155,76,80,0
50.16,50.395,75,80,0
50.4,50.515,73,80,0
50.46,50.575,75,80,0
50.52,50.635,73,80,0
50.64,50.875,71,80,0
50.88,51.355,71,80,0
51.36,51.835,71,80,0
51.84,52.315,71,80,0
52.32,52.375,71,80,0
52.38,53.035,80,101,0
53.04,53.155,81,80,0
53.16,53.275,80,80,0
53.28,53.515,78,80,0
53.52,53.755,76,80,0
53.76,53.995,76,80,0
54.0,54.235,75,80,0
54.24,54.355,73,80,0
54.3,54.415,75,80,0
54.36,54.475,73,80,0
54.48,54.715,71,80,0
54.72,55.195,71,80,0
55.2,55.675,71,80,0
55.68,56.155,71,80,0
56.16,56.755,71,81,0
56.22,56.755,76,88,0
56.28,56.755,80,96,0
56.34,56.755,83,104,0
56.88,56.995,85,80,0
57.0,57.115,83,80,0
57.12,57.235,81,80,0
57.24,57.355,80,80,0
57.36,57.475,78,80,0
57.48,57.595,76,80,0
57.6,57.835,76,80,0
57.84,58.075,75,80,0
58.08,58.195,73,80,0
58.14,58.255,75,80,0
58.2,58.315,73,80,0
58.32,58.555,71,80,0
58.56,59.035,71,80,0
59.04,59.515,71,80,0
59.52,59.755,71,80,0
59.76,60.235,76,94,0
59.76,60.235,64,94,0
60.24,60.475,74,80,0
60.24,60.475,62,80,0
60.48,60.715,73,80,0
60.72,60.835,74,80,0
60.78,60.895,73,80,0
60.84,60.955,71,80,0
60.9,60.955,73,80,0
60.48,61.195,61,80,0
60.96,61.195,73,80,0
61.2,61.435,76,80,0
61.2,61.435,64,80,0
61.44,61.915,76,80,0
61.44,61.915,64,80,0
61.92,62.395,74,80,0
61.92,62.395,62,80,0
62.88,63.355,72,80,0
62.88,63.355,60,80,0
63.36,63.595,75,80,0
63.36,63.595,63,80,0
63.6,64.075,73,80,0
63.6,64.075,61,80,0
64.08,64.315,71,80,0
64.08,64.315,59,80,0
64.32,64.555,70,80,0
64.56,64.675,71,80,0
64.62,64.735,70,80,0
64.68,64.795,68,80,0
64.74,64.795,70,80,0
64.32,65.035,58,80,0
64.8,65.035,70,80,0
65.04,65.275,73,80,0
65.04,65.275,61,80,0
65.28,65.755,73,80,0
65.28,65.755,61,80,0
65.76,66.235,71,80,0
65.76,66.235,59,80,0
66.72,67.195,68,80,0
66.72,67.195,56,80,0
67.2,67.435,69,80,0
67.2,67.435,57,80,0
67.44,67.915,69,80,0
67.44,67.915,57,80,0
67.92,68.395,76,80,0
67.92,68.395,64,80,0
68.4,68.875,74,80,0
68.4,68.875,68,80,0
68.88,69.115,73,80,0
68.88,69.115,69,80,0
69.12,69.595,71,80,0
69.12,69.595,68,80,0
70.8,71.035,80,80,0
70.8,71.035,68,80,0
71.04,71.275,81,80,0
71.04,71.275,69,80,0
71.28,71.755,81,80,0
71.28,71.755,69,80,0
71.76,72.235,76,80,0
71.76,72.235,64,80,0
72.24,72.715,74,80,0
72.24,72.715,68,80,0
72.72,72.955,73,80,0
72.72,72.955,69,80,0
72.96,73.435,71,80,0
72.96,73.435,68,80,0
77.34,77.455,61,80,0
77.4,77.515,64,80,0
77.46,77.575,69,80,0
77.52,77.635,73,80,0
77.58,77.695,76,80,0
77.64,77.755,81,80,0
77.7,77.755,85,80,0
77.76,78.235,88,80,0
78.24,78.715,88,80,0
78.72,78.955,88,80,0
78.96,79.075,68,80,0
79.2,80.155,68,80,0
80.16,80.635,68,80,0
80.64,80.995,69,80,0
81.0,81.115,64,80,0
81.12,81.475,71,80,0
81.48,81.595,64,80,0
81.6,81.955,73,80,0
81.96,82.075,69,80,0
82.08,82.435,74,80,0
82.44,82.555,69,80,0
82.56,82.615,73,92,0
82.62,83.275,76,103,0
83.28,83.395,74,80,0
83.4,83.515,73,80,0
83.52,83.995,71,80,0
84.72,84.835,57,80,0
84.84,84.955,61,80,0
84.96,85.115,64,80,0
85.04,85.195,69,80,0
85.12,85.275,73,80,0
85.2,85.355,76,80,0
85.28,85.435,81,80,0
85.36,85.435,85,80,0
85.44,85.915,88,80,0
85.92,86.395,88,80,0
86.4,86.635,88,80,0
86.64,86.755,66,80,0
86.88,87.835,66,80,0
87.84,88.315,66,80,0
88.32,88.555,68,80,0
88.56,88.675,69,80,0
88.68,88.795,68,80,0
88.8,89.035,66,80,0
89.04,89.275,68,80,0
89.28,89.515,71,80,0
89.52,89.755,69,80,0
89.76,89.995,66,80,0
90.0,90.235,63,80,0
90.24,91.195,66,80,0
90.24,91.195,63,80,0
91.2,91.435,64,80,0
91.44,91.675,76,80,0
91.68,91.915,71,80,0
91.92,92.155,73,80,0
92.4,92.635,71,80,0
92.64,92.875,66,80,0
92.16,93.115,74,80,0
92.88,93.115,68,80,0
93.12,94.075,73,80,0
93.12,94.075,69,80,0
94.08,94.315,64,80,0
94.32,94.555,63,80,0
94.56,94.795,64,80,0
94.8,95.035,66,80,0
94.08,95.515,68,80,0
94.08,95.515,71,80,0
95.04,95.515,64,80,0
96.24,96.475,71,80,0
96.48,96.715,66,80,0
96.0,96.955,59,101,0
96.72,96.955,68,80,0
97.2,97.435,57,80,0
97.44,97.675,61,80,0
96.96,97.915,69,80,0
97.68,97.915,63,80,0
97.92,98.395,68,80,0
97.92,98.395,64,80,0
97.92,98.395,59,80,0
99.84,99.995,45,80,0
99.92,100.075,49,80,0
100.0,100.155,52,80,0
100.08,100.315,57,80,0
100.2,100.435,61,80,0
100.32,100.475,64,81,0
100.4,100.555,69,81,0
100.48,100.635,73,81,0
100.56,100.715,76,81,0
100.64,100.795,81,82,0
100.72,100.795,85,82,0
100.8,101.275,88,82,0
101.28,101.755,88,83,0
101.76,101.995,88,85,0
102.0,102.115,68,85,0
102.24,103.195,68,86,0
103.2,103.675,69,88,0
103.68,103.795,71,90,0
103.8,103.875,73,90,0
103.84,103.915,71,90,0
103.88,103.955,70,90,0
103.92,104.035,71,90,0
104.04,104.155,73,91,0
104.16,104.315,74,91,0
104.32,104.475,76,91,0
104.48,104.635,78,92,0
104.64,105.115,69,92,0
105.12,105.355,73,94,0
105.12,105.595,68,94,0
105.36,105.595,71,94,0
105.6,106.555,71,95,0
105.6,106.555,68,95,0
106.56,106.715,69,97,0
106.72,106.875,64,98,0
106.88,107.035,65,98,0
107.04,107.195,66,99,0
107.2,107.355,67,99,0
107.36,107.515,68,99,0
107.68,107.835,69,120,0
107.84,107.995,70,120,0
108.0,108.155,71,120,0
108.16,108.315,72,120,0
108.32,108.475,73,120,0
108.48,108.635,74,120,0
108.64,108.795,75,120,0
108.8,108.955,76,120,0
108.96,109.115,77,120,0
109.12,109.275,76,120,0
109.28,109.435,69,120,0
109.6,109.755,68,120,0
109.76,109.915,69,120,0
109.92,110.075,70,120,0
110.08,110.235,71,120,0
110.24,110.395,72,120,0
110.4,110.555,73,120,0
110.56,110.715,74,120,0
110.72,110.875,75,120,0
110.88,111.035,76,120,0
111.04,111.195,74,120,0
111.2,111.355,68,120,0
111.52,111.675,69,120,0
111.68,111.835,71,120,0
111.84,111.995,72,120,0
112.0,112.155,73,120,0
112.16,112.315,74,120,0
112.32,112.475,75,120,0
112.48,112.635,76,120,0
112.64,112.795,77,120,0
112.8,112.955,78,120,0
112.96,113.115,79,120,0
113.12,113.275,80,120,0
113.28,113.435,81,120,0
113.44,113.595,76,120,0
113.6,113.755,77,120,0
113.76,113.915,74,127,0
113.92,114.075,77,120,0
114.08,114.235,71,120,0
114.24,114.395,72,127,0
114.4,114.555,76,120,0
114.56,114.715,69,120,0
114.72,114.875,71,127,0
114.88,115.035,74,120,0
115.04,115.195,68,120,0
115.2,115.675,69,120,0
115.2,115.675,64,120,0
115.2,115.675,60,120,0
115.68,116.155,69,120,0
115.68,116.155,64,120,0
115.68,116.155,60,120,0
116.64,116.995,69,120,0
116.64,116.995,64,120,0
116.64,116.995,60,120,0
117.0,117.115,69,120,0
117.0,117.115,64,120,0
117.0,117.115,60,120,0
117.12,117.595,77,120,0
117.12,117.595,74,120,0
117.12,117.595,69,120,0
117.12,117.595,65,120,0
117.6,118.075,77,120,0
117.6,118.075,74,120,0
117.6,118.075,69,120,0
117.6,118.075,65,120,0
118.56,118.915,77,120,0
118.56,118.915,74,120,0
118.56,118.915,69,120,0
118.56,118.915,65,120,0
118.92,119.035,77,120,0
118.92,119.035,74,120,0
118.92,119.035,69,120,0
118.92,119.035,65,120,0
119.04,119.515,77,120,0
119.04,119.515,74,120,0
119.04,119.515,71,120,0
119.04,119.515,67,120,0
119.04,119.515,65,120,0
119.52,119.995,77,120,0
119.52,119.995,74,120,0
119.52,119.995,71,120,0
119.52,119.995,67,120,0
119.52,119.995,65,120,0
120.48,120.835,77,120,0
120.48,120.835,74,120,0
120.48,120.835,71,120,0
120.48,120.835,67,120,0
120.48,120.835,65,120,0
120.84,120.955,74,120,0
120.84,120.955,71,120,0
120.84,120.955,67,120,0
120.84,120.955,65,120,0
120.84,120.955,77,120,0
120.96,121.435,77,120,0
120.96,121.435,74,120,0
120.96,121.435,71,120,0
120.96,121.435,67,120,0
120.96,121.435,65,120,0
121.44,121.795,77,120,0
121.44,121.795,74,120,0
121.44,121.795,71,120,0
121.44,121.795,67,120,0
121.44,121.795,65,120,0
121.8,121.915,77,120,0
121.8,121.915,74,120,0
121.8,121.915,71,120,0
121.8,121.915,67,120,0
121.8,121.915,65,120,0
121.92,122.395,76,120,0
121.92,122.395,72,120,0
121.92,122.395,67,120,0
121.92,122.395,64,120,0
122.4,122.755,76,120,0
122.4,122.755,72,120,0
122.4,122.755,67,120,0
122.4,122.755,64,120,0
122.76,122.875,76,120,0
122.76,122.875,72,120,0
122.76,122.875,67,120,0
122.76,122.875,64,120,0
122.88,123.355,74,120,0
122.88,123.355,69,120,0
122.88,123.355,65,120,0
122.88,123.355,62,120,0
123.36,123.715,72,120,0
123.36,123.715,69,120,0
123.36,123.715,66,120,0
123.36,123.715,63,120,0
123.36,123.715,60,120,0
123.72,123.835,72,120,0
123.72,123.835,69,120,0
123.72,123.835,66,120,0
123.72,123.835,63,120,0
123.72,123.835,60,120,0
123.84,124.315,72,120,0
123.84,124.315,67,120,0
123.84,124.315,64,120,0
123.84,124.315,60,120,0
124.32,124.795,71,120,0
124.32,124.795,67,120,0
124.32,124.795,65,120,0
124.32,124.795,62,120,0
124.32,124.795,59,120,0
124.8,125.275,72,120,0
124.8,125.275,67,120,0
124.8,125.275,64,120,0
124.8,125.275,60,120,0
125.92,126.075,64,120,0
126.08,126.235,65,120,0
126.24,126.395,66,120,0
126.4,126.555,67,120,0
126.56,126.715,68,120,0
126.88,127.035,69,120,0
127.04,127.195,70,120,0
127.2,127.355,71,120,0
127.36,127.515,72,120,0
127.52,127.675,73,120,0
127.68,127.835,74,120,0
127.84,127.995,75,120,0
128.0,128.155,76,120,0
128.16,128.315,77,120,0
128.32,128.475,76,120,0
128.48,128.635,69,120,0
128.8,128.955,68,120,0
128.96,129.115,69,120,0
129.12,129.275,70,120,0
129.28,129.435,71,120,0
129.44,129.595,72,120,0
129.6,129.755,73,120,0
129.76,129.915,74,120,0
129.92,130.075,75,120,0
130.08,130.235,76,120,0
130.24,130.395,74,120,0
130.4,130.555,68,120,0
130.72,130.875,69,120,0
130.88,131.035,71,120,0
131.04,131.195,72,120,0
131.2,131.355,73,120,0
131.36,131.515,74,120,0
131.52,131.675,75,120,0
131.68,131.835,76,120,0
131.84,131.995,77,120,0
132.0,132.155,78,120,0
132.16,132.315,79,120,0
132.32,132.475,80,120,0
132.48,132.635,81,120,0
132.64,132.795,76,120,0
132.8,132.955,77,120,0
132.96,133.115,74,120,0
133.12,133.275,77,120,0
133.28,133.435,71,120,0
133.44,133.595,72,120,0
133.6,133.755,76,120,0
133.76,133.915,69,120,0
133.92,134.075,71,120,0
134.08,134.235,74,120,0
134.24,134.395,68,120,0
134.4,134.875,69,120,0
134.4,134.875,64,120,0
134.4,134.875,60,120,0
134.88,135.355,69,120,0
134.88,135.355,64,120,0
134.88,135.355,60,120,0
135.84,136.195,69,120,0
135.84,136.195,64,120,0
135.84,136.195,60,120,0
136.2,136.315,69,120,0
136.2,136.315,64,120,0
136.2,136.315,60,120,0
136.32,136.795,77,120,0
136.32,136.795,74,120,0
136.32,136.795,69,120,0
136.32,136.795,65,120,0
136.8,137.275,77,120,0
136.8,137.275,74,120,0
136.8,137.275,69,120,0
136.8,137.275,65,120,0
137.76,138.115,77,120,0
137.76,138.115,74,120,0
137.76,138.115,69,120,0
137.76,138.115,65,120,0
138.12,138.235,77,120,0
138.12,138.235,74,120,0
138.12,138.235,69,120,0
138.12,138.235,65,120,0
138.24,138.715,77,120,0
138.24,138.715,74,120,0
138.24,138.715,71,120,0
138.24,138.715,67,120,0
138.24,138.715,65,120,0
138.72,139.195,77,120,0
138.72,139.195,74,120,0
138.72,139.195,71,120,0
138.72,139.195,67,120,0
138.72,139.195,65,120,0
139.68,140.035,77,120,0
139.68,140.035,74,120,0
139.68,140.035,71,120,0
139.68,140.035,67,120,0
139.68,140.035,65,120,0
140.04,140.155,74,120,0
140.04,140.155,71,120,0
140.04,140.155,67,120,0
140.04,140.155,65,120,0
140.04,140.155,77,120,0
140.16,140.635,77,120,0
140.16,140.635,74,120,0
140.16,140.635,71,120,0
140.16,140.635,67,120,0
140.16,140.635,65,120,0
140.64,140.995,77,120,0
140.64,140.995,74,120,0
140.64,140.995,71,120,0
140.64,140.995,67,120,0
140.64,140.995,65,120,0
141.0,141.115,77,120,0
141.0,141.115,74,120,0
141.0,141.115,71,120,0
141.0,141.115,67,120,0
141.0,141.115,65,120,0
141.12,141.595,76,120,0
141.12,141.595,72,120,0
141.12,141.595,67,120,0
141.12,141.595,64,120,0
141.6,141.955,76,120,0
141.6,141.955,72,120,0
141.6,141.955,67,120,0
141.6,141.955,64,120,0
141.96,142.075,76,120,0
141.96,142.075,72,120,0
141.96,142.075,67,120,0
141.96,142.075,64,120,0
142.08,142.555,74,120,0
142.08,142.555,69,120,0
142.08,142.555,65,120,0
142.08,142.555,62,120,0
142.56,142.915,72,120,0
142.56,142.915,69,120,0
142.56,142.915,66,120,0
142.56,142.915,63,120,0
142.56,142.915,60,120,0
142.92,143.035,72,120,0
142.92,143.035,69,120,0
142.92,143.035,66,120,0
142.92,143.035,63,120,0
142.92,143.035,60,120,0
143.04,143.515,72,120,0
143.04,143.515,67,120,0
143.04,143.515,64,120,0
143.04,143.515,60,120,0
143.52,143.995,71,120,0
143.52,143.995,67,120,0
143.52,143.995,65,120,0
143.52,143.995,62,120,0
143.52,143.995,59,120,0
144.0,144.475,72,120,0
144.0,144.475,67,120,0
144.0,144.475,64,120,0
144.0,144.475,60,120,0
145.12,145.275,55,120,0
145.28,145.435,56,120,0
145.44,145.595,57,120,0
145.6,145.755,58,120,0
145.76,145.915,59,120,0
145.92,146.075,60,120,0
146.08,146.235,61,120,0
146.24,146.395,62,120,0
146.4,146.555,63,120,0
146.56,146.715,64,120,0
146.72,146.875,65,120,0
146.88,147.035,66,120,0
147.04,147.195,67,120,0
147.2,147.355,68,120,0
147.36,147.515,69,120,0
147.52,147.675,70,120,0
147.68,147.835,71,120,0
147.84,148.315,72,120,0
147.84,148.795,62,120,0
148.32,148.795,71,120,0
149.92,150.075,62,120,0
150.08,150.235,64,120,0
150.24,150.395,65,120,0
150.4,150.555,66,120,0
150.56,150.715,67,120,0
150.72,150.875,68,120,0
150.88,151.035,69,120,0
151.04,151.195,70,120,0
151.2,151.355,71,120,0
151.36,151.515,72,120,0
151.52,151.675,73,120,0
151.68,152.155,74,120,0
151.68,152.635,64,120,0
152.16,152.635,72,120,0
153.76,153.915,64,120,0
153.92,154.075,66,120,0
154.08,154.235,67,120,0
154.24,154.395,69,120,0
154.4,154.555,70,120,0
154.56,154.715,71,120,0
154.72,154.875,72,120,0
154.88,155.035,73,120,0
155.04,155.195,74,120,0
155.2,155.355,75,120,0
155.36,155.515,76,120,0
155.52,155.675,77,120,0
155.68,155.835,78,120,0
155.84,155.995,79,120,0
156.0,156.155,80,120,0
156.16,156.315,81,120,0
156.32,156.475,82,120,0
156.48,156.635,83,120,0
156.64,156.795,71,120,0
156.8,156.955,84,120,0
156.96,157.115,81,120,0
157.12,157.275,71,120,0
157.28,157.435,83,120,0
157.44,157.595,79,120,0
157.6,157.755,71,120,0
157.76,157.915,81,120,0
157.92,158.075,78,120,0
158.08,158.235,69,120,0
158.24,158.395,79,120,0
158.4,158.555,76,120,0
158.56,158.715,67,120,0
158.72,158.875,78,120,0
158.88,159.035,75,120,0
159.04,159.195,66,120,0
159.2,159.355,78,120,0
159.36,159.515,76,120,0
159.52,159.675,68,120,0
159.68,159.835,77,120,0
159.84,159.995,74,120,0
160.0,160.155,71,120,0
160.16,160.315,76,120,0
160.32,160.475,72,120,0
160.48,160.635,69,120,0
160.64,160.795,74,120,0
160.8,160.955,71,120,0
160.96,161.115,68,120,0
161.12,161.275,72,120,0
161.44,161.595,69,120,0
161.6,161.755,70,120,0
161.76,161.915,71,120,0
161.92,162.075,72,120,0
162.08,162.235,73,120,0
162.24,162.395,74,120,0
162.4,162.555,75,120,0
162.56,162.715,76,120,0
162.72,162.875,77,120,0
162.88,163.035,76,120,0
163.04,163.195,69,120,0
163.36,163.515,68,120,0
163.52,163.675,69,120,0
163.68,163.835,70,120,0
163.84,163.995,71,120,0
164.0,164.155,72,120,0
164.16,164.315,73,120,0
164.32,164.475,74,120,0
164.48,164.635,75,120,0
164.64,164.795,76,120,0
164.8,164.955,74,120,0
164.96,165.115,68,120,0
165.28,165.435,69,120,0
165.44,165.595,71,120,0
165.6,165.755,72,120,0
165.76,165.915,74,120,0
165.92,166.075,75,120,0
166.08,166.235,76,120,0
166.24,166.395,77,120,0
166.4,166.555,78,120,0
166.56,166.715,79,120,0
166.72,166.875,80,120,0
166.88,167.035,81,120,0
167.04,167.195,82,120,0
167.2,167.355,83,120,0
167.36,167.515,84,120,0
167.52,167.675,85,120,0
167.68,167.835,86,120,0
167.84,167.995,87,120,0
168.0,168.155,88,120,0
168.16,168.315,84,120,0
168.32,168.475,81,120,0
168.48,168.635,86,120,0
168.64,168.795,83,120,0
168.8,168.955,80,120,0
168.96,169.115,81,120,0
169.12,169.275,77,120,0
169.28,169.435,76,120,0
169.44,169.595,74,120,0
169.6,169.755,72,120,0
169.76,169.915,71,120,0
169.92,170.395,69,120,0
170.88,171.035,60,80,0
171.04,171.195,61,80,0
171.2,171.355,62,80,0
171.36,171.515,63,80,0
171.52,171.675,64,80,0
171.68,171.835,65,80,0
171.84,171.995,66,80,0
172.0,172.155,67,80,0
172.16,172.315,68,80,0
172.32,172.475,69,80,0
172.48,172.635,70,80,0
172.64,172.795,71,80,0
172.8,173.275,72,80,0
172.8,173.755,62,80,0
173.28,173.755,71,80,0
174.88,175.035,62,80,0
175.04,175.195,64,80,0
175.2,175.355,65,80,0
175.36,175.515,66,80,0
175.52,175.675,67,80,0
175.68,175.835,68,80,0
175.84,175.995,69,80,0
176.0,176.155,70,80,0
176.16,176.315,71,80,0
176.32,176.475,72,80,0
176.48,176.635,73,80,0
176.64,177.115,74,80,0
176.64,177.595,64,80,0
177.12,177.595,72,80,0
178.72,178.875,64,80,0
178.88,179.035,66,81,0
179.04,179.195,67,82,0
179.2,179.355,69,83,0
179.36,179.515,70,84,0
179.52,179.675,71,85,0
179.68,179.835,72,86,0
179.84,179.995,73,86,0
180.0,180.155,74,87,0
180.16,180.315,75,88,0
180.32,180.475,76,89,0
180.48,180.635,77,90,0
180.64,180.795,78,91,0
180.8,180.955,79,92,0
180.96,181.115,80,93,0
181.12,181.275,81,93,0
181.28,181.435,82,94,0
181.44,181.595,83,95,0
181.6,181.755,71,96,0
181.76,181.915,84,97,0
181.92,182.075,81,98,0
182.08,182.235,71,99,0
182.24,182.395,83,99,0
182.4,182.555,79,100,0
182.56,182.715,71,100,0
182.72,182.875,81,102,0
182.88,183.035,78,101,0
183.04,183.195,69,102,0
183.2,183.355,79,104,0
183.36,183.515,76,103,0
183.52,183.675,67,104,0
183.68,183.835,78,106,0
183.84,183.995,75,105,0
184.0,184.155,66,106,0
184.16,184.315,78,106,0
184.32,184.475,76,107,0
184.48,184.635,68,108,0
184.64,184.795,77,117,0
184.8,184.955,74,109,0
184.96,185.115,71,110,0
185.12,185.275,76,120,0
185.28,185.435,72,111,0
185.44,185.595,69,111,0
185.6,185.755,74,120,0
185.76,185.915,71,113,0
185.92,186.075,68,113,0
186.08,186.235,72,121,0
186.4,186.555,69,120,0
186.56,186.715,70,120,0
186.72,186.875,71,120,0
186.88,187.035,72,120,0
187.04,187.195,73,120,0
187.2,187.355,74,120,0
187.36,187.515,75,120,0
187.52,187.675,76,120,0
187.68,187.835,77,120,0
187.84,187.995,76,120,0
188.0,188.155,69,120,0
188.32,188.475,68,120,0
188.48,188.635,69,120,0
188.64,188.795,70,120,0
188.8,188.955,71,120,0
188.96,189.115,72,120,0
189.12,189.275,73,120,0
189.28,189.435,74,120,0
189.44,189.595,75,120,0
189.6,189.755,76,120,0
189.76,189.915,74,120,0
189.92,190.075,68,120,0
190.24,190.395,69,120,0
190.4,190.555,71,120,0
190.56,190.715,72,120,0
190.72,190.875,73,120,0
190.88,191.035,74,120,0
191.04,191.195,75,120,0
191.2,191.355,76,120,0
191.36,191.515,77,120,0
191.52,191.675,78,120,0
191.68,191.835,79,120,0
191.84,191.995,80,120,0
192.0,192.155,81,120,0
192.16,192.315,82,120,0
192.32,192.475,83,120,0
192.48,192.635,84,120,0
192.64,192.795,83,120,0
192.8,192.955,86,120,0
192.96,193.115,84,120,0
193.12,193.275,83,120,0
193.28,193.435,86,120,0
193.44,193.595,84,120,0
193.6,193.755,83,114,0
193.76,193.915,81,95,0
193.92,195.835,80,70,0
194.88,195.835,88,70,0
195.84,197.755,78,70,0
195.84,197.755,81,70,0
195.84,197.755,87,70,0
197.76,199.675,86,70,0
197.76,199.675,83,70,0
197.76,199.675,80,70,0
197.76,199.675,76,70,0
199.68,199.835,80,70,0
199.84,199.995,81,70,0
200.0,200.155,82,70,0
200.16,200.315,83,70,0
200.32,200.475,84,70,0
200.48,200.635,85,70,0
200.64,200.795,86,70,0
200.8,200.955,85,70,0
200.96,201.115,83,70,0
201.12,201.275,81,70,0
201.28,201.435,80,70,0
201.44,201.595,78,70,0
201.6,201.755,76,70,0
201.76,201.915,74,70,0
201.92,202.075,73,70,0
202.08,202.235,71,70,0
202.24,202.395,69,70,0
202.4,202.555,68,70,0
202.56,202.715,71,70,0
202.72,202.875,69,70,0
202.88,203.035,68,70,0
203.04,203.195,66,70,0
203.2,203.355,64,70,0
203.36,203.515,63,70,0
203.52,203.675,66,70,0
203.68,203.835,64,70,0
203.84,203.995,62,70,0
204.0,204.155,61,70,0
204.16,204.315,59,70,0
204.32,204.475,58,70,0
204.48,204.635,62,70,0
204.64,204.795,61,70,0
204.8,204.955,59,70,0
204.96,205.115,57,70,0
205.12,205.275,56,70,0
205.28,205.435,54,70,0
205.44,205.595,59,70,0
205.6,205.755,57,70,0
205.76,205.915,56,70,0
205.92,206.075,54,70,0
206.08,206.235,52,70,0
206.24,206.395,51,70,0
206.4,206.555,54,70,0
206.56,206.715,52,70,0
206.72,206.875,50,70,0
206.88,207.035,49,70,0
207.04,207.195,47,70,0
207.2,207.355,46,70,0
207.36,207.51881,50,70,0
207.52394,207.68274,49,70,0
207.68787,207.84668,47,70,0
207.8518,208.01326,45,70,0
208.01846,208.17993,44,70,0
208.18513,208.34659,42,70,0
208.3518,208.52794,40,70,0
208.53362,208.70976,42,70,0
208.71544,208.89157,40,70,0
208.89726,209.091,38,70,0
209.09726,209.291,37,70,0
209.29726,209.49101,35,70,0
210.45726,210.57225,61,80,0
210.51726,210.63226,62,80,0
210.57726,210.69226,64,80,0
210.63725,210.75226,66,80,0
210.69725,210.81226,68,80,0
210.75726,210.87225,69,80,0
210.81726,210.93225,71,80,0
210.87726,210.99226,73,80,0
210.93726,211.05226,74,80,0
210.99725,211.11226,76,80,0
211.05725,211.17226,78,80,0
211.11726,211.23225,80,80,0
211.17726,211.29225,81,80,0
211.23726,211.35226,83,80,0
211.29726,211.41226,85,80,0
211.35725,211.41226,86,80,0
211.41725,211.65225,88,80,0
211.65726,211.77226,68,80,0
211.89726,212.85226,68,80,0
212.85725,213.33226,68,80,0
213.33725,213.69226,69,80,0
213.69725,213.81226,73,80,0
213.75726,213.81226,71,80,0
213.81726,214.17226,71,80,0
214.17726,214.29225,74,80,0
214.23726,214.29225,73,80,0
214.29726,214.65225,73,80,0
214.65726,214.77226,76,80,0
214.71725,214.77226,74,80,0
214.77725,215.13226,74,80,0
215.13725,215.25226,75,80,0
215.25726,215.97226,76,97,0
215.97726,216.09225,74,80,0
216.09726,216.21225,73,80,0
216.21725,216.69226,71,80,0
217.17726,217.29225,57,80,0
217.23726,217.35226,59,80,0
217.29726,217.41226,57,80,0
217.35725,217.47226,56,80,0
217.47726,217.59225,59,80,0
217.53726,217.65225,61,80,0
217.59726,217.71225,63,80,0
217.65726,217.77226,64,80,0
217.71725,217.83226,66,80,0
217.77725,217.89226,68,80,0
217.83725,217.95226,69,80,0
217.89726,218.01225,71,80,0
217.95726,218.07225,73,80,0
218.01726,218.13226,75,80,0
218.07726,218.19226,76,80,0
218.13725,218.29225,78,80,0
218.21725,218.37225,80,80,0
218.29726,218.45226,81,80,0
218.37726,218.53226,83,80,0
218.45726,218.61226,85,80,0
218.53726,218.61226,87,80,0
218.61726,218.85226,88,80,0
218.85725,219.09225,88,80,0
219.09726,219.33226,88,80,0
219.33725,219.45226,66,80,0
219.57726,220.53226,66,80,0
220.53726,221.01225,66,80,0
221.01726,221.25226,68,80,0
221.25726,221.37225,69,80,0
221.37726,221.49226,68,80,0
221.49725,221.73225,66,80,0
221.73726,221.97226,68,80,0
221.97726,222.21225,71,80,0
222.21725,222.45226,69,80,0
222.45726,222.69226,66,80,0
222.69725,222.93225,63,80,0
222.93726,223.89226,66,80,0
222.93726,223.89226,63,80,0
223.89726,224.01225,64,80,0
224.01726,224.13226,76,80,0
224.13725,224.25226,75,80,0
224.25726,224.37225,76,80,0
224.37726,224.49226,78,80,0
224.49725,224.61226,76,80,0
224.61726,224.73225,71,80,0
224.73726,224.85226,73,80,0
224.97726,225.09225,71,80,0
225.09726,225.21225,70,80,0
225.21725,225.33226,71,80,0
225.33725,225.45226,73,80,0
225.45726,225.57225,71,80,0
225.57726,225.69226,66,80,0
224.85725,225.81226,74,100,0
225.69725,225.81226,68,80,0
225.81726,226.77226,73,80,0
225.81726,226.77226,69,80,0
226.77725,227.25226,71,80,0
226.77725,227.25226,68,80,0
226.77725,227.25226,64,80,0
227.85725,227.97226,64,80,0
227.97726,228.09225,63,80,0
228.09726,228.21225,64,80,0
228.21725,228.33226,66,80,0
228.33725,228.45226,64,80,0
228.45726,228.57225,59,80,0
228.57726,228.69226,61,80,0
228.81726,228.93225,71,80,0
228.93726,229.05226,70,80,0
229.05725,229.17226,71,80,0
229.17726,229.29225,73,80,0
229.29726,229.41226,71,80,0
229.41725,229.53226,66,80,0
228.69725,229.65225,62,100,0
229.53726,229.65225,68,80,0
229.65726,230.61226,69,80,0
229.65726,230.61226,61,80,0
230.61726,231.09225,68,80,0
230.61726,231.09225,59,80,0
232.53726,232.65225,57,80,0
232.59726,232.71225,59,80,0
232.65726,232.77226,57,80,0
232.71725,232.83226,56,80,0
232.83725,232.95226,59,80,0
232.89726,233.01225,61,80,0
232.95726,233.07225,62,80,0
233.01726,233.13226,64,80,0
233.07726,233.19226,66,80,0
233.13725,233.25226,68,80,0
233.19725,233.31226,69,80,0
233.25726,233.37225,71,80,0
233.31726,233.43225,73,80,0
233.37726,233.49226,74,80,0
233.43726,233.55226,76,80,0
233.49725,233.65225,78,80,0
233.57726,233.73225,80,80,0
233.65726,233.81226,81,80,0
233.73726,233.89226,83,80,0
233.81726,233.97226,85,80,0
233.89726,233.97226,86,80,0
233.97726,234.21225,88,80,0
234.21725,234.45226,88,80,0
234.45726,234.69226,88,80,0
234.69725,234.81226,68,80,0
234.93726,235.89226,68,80,0
235.89726,236.37225,69,80,0
236.37726,236.49226,71,80,0
236.49725,236.57225,73,80,0
236.53726,236.61226,71,80,0
236.57726,236.65225,70,80,0
236.61726,236.73225,71,80,0
236.73726,236.85226,73,80,0
236.85725,237.01225,74,80,0
237.01726,237.17226,76,80,0
237.17726,237.33226,78,80,0
237.33725,237.81226,69,80,0
237.81726,238.05226,73,80,0
237.81726,238.29225,68,80,0
238.05725,238.29225,71,80,0
238.29726,239.25226,71,80,0
238.29726,239.25226,68,80,0
239.25726,239.49226,69,80,0
239.49725,239.61226,78,80,0
239.61726,239.73225,76,80,0
239.73726,239.85226,74,80,0
239.85725,239.97226,73,80,0
239.97726,240.09225,71,80,0
240.09726,240.21225,69,80,0
240.21725,240.33226,68,80,0
240.33725,240.45226,69,80,0
240.45726,240.57225,71,80,0
240.57726,240.69226,69,80,0
240.69725,241.17226,68,80,0
241.41725,241.53226,76,80,0
241.53726,241.65225,74,80,0
241.65726,241.77226,73,80,0
241.77725,241.89226,71,80,0
241.89726,242.01225,69,80,0
242.01726,242.13226,68,80,0
242.13725,242.25226,69,80,0
242.25726,242.37225,71,80,0
242.37726,242.49226,73,80,0
242.49725,242.61226,71,80,0
242.61726,243.09225,69,80,0
243.33725,243.45226,81,100,0
243.45726,243.57225,80,100,0
243.57726,243.69226,78,100,0
243.69725,243.81226,76,100,0
243.81726,243.93225,74,100,0
243.93726,244.05226,73,100,0
244.05725,244.17226,71,100,0
244.17726,244.29225,74,100,0
244.29726,244.41226,78,100,0
244.41725,244.53226,76,100,0
244.53726,244.65225,74,100,0
244.65726,244.77226,73,100,0
244.77725,244.89226,71,100,0
244.89726,245.01225,69,100,0
245.01726,245.13226,68,100,0
245.13725,245.25226,69,100,0
245.25726,245.37225,71,100,0
245.37726,245.49226,69,100,0
245.49725,245.61226,68,100,0
245.61726,245.73225,66,100,0
245.73726,245.85226,64,100,0
245.85725,245.97226,62,100,0
245.97726,246.09225,61,100,0
246.09726,246.21225,69,100,0
246.21725,246.33226,64,100,0
246.33725,246.45226,73,100,0
246.45726,246.57225,69,100,0
246.57726,246.69226,76,100,0
246.69725,246.81226,73,100,0
246.81726,246.93225,81,100,0
246.93726,247.05226,76,100,0
247.05725,247.17226,85,100,0
247.17726,247.29225,81,100,0
247.29726,247.41226,88,100,0
247.41725,247.53226,86,100,0
247.53726,247.65225,85,97,0
247.65726,247.77226,83,93,0
247.77725,247.89226,81,88,0
247.89726,248.01225,80,80,0
248.01726,248.13226,81,80,0
248.13725,248.25226,83,80,0
248.25726,248.37225,81,80,0
248.37726,248.85226,80,80,0
248.97726,249.09225,87,80,0
249.09726,249.21225,88,80,0
249.21725,249.33226,86,80,0
249.33725,249.45226,85,80,0
249.45726,249.57225,83,80,0
249.57726,249.69226,81,80,0
249.69725,249.81226,80,80,0
249.81726,249.93225,81,80,0
249.93726,250.05226,83,80,0
250.05725,250.17226,85,80,0
250.17726,250.29225,83,80,0
250.29726,250.77226,81,80,0
251.01726,251.13226,85,100,0
251.13725,251.25226,83,100,0
251.25726,251.37225,81,100,0
251.37726,251.49226,80,100,0
251.49725,251.61226,78,100,0
251.61726,251.73225,76,100,0
251.73726,251.85226,75,100,0
251.85725,251.97226,76,100,0
251.97726,252.09225,78,100,0
252.09726,252.21225,80,100,0
252.21725,252.33226,81,100,0
252.33725,252.45226,80,100,0
252.45726,252.57225,78,100,0
252.57726,252.69226,76,100,0
252.69725,252.81226,75,100,0
252.81726,252.93225,73,100,0
252.93726,253.05226,71,100,0
253.05725,253.17226,69,100,0
253.17726,253.29225,68,100,0
253.29726,253.41226,66,100,0
253.41725,253.53226,64,100,0
253.53726,253.65225,63,100,0
253.65726,254.13226,64,100,0
255.57726,256.53226,80,100,0
256.53726,256.77225,81,100,0
256.77725,257.01227,80,100,0
257.01724,257.13226,78,100,0
257.07727,257.19226,80,100,0
257.13727,257.25226,78,100,0
257.25726,257.49225,76,100,0
257.49725,257.97226,76,100,0
257.97726,258.21225,76,100,0
258.03726,258.69226,85,118,0
258.69727,258.81226,86,100,0
258.81726,258.93225,85,100,0
258.93726,259.17227,83,100,0
259.17725,259.41226,81,100,0
259.41727,260.37225,80,100,0
260.37726,260.61224,81,100,0
260.61725,260.85226,80,100,0
260.85727,260.97226,78,100,0
260.91727,261.03226,80,100,0
260.97726,261.09225,78,100,0
261.09726,261.33224,76,100,0
261.33725,261.81226,76,100,0
261.81726,262.05225,76,103,0
261.87726,262.11224,81,108,0
261.93726,262.17227,85,113,0
261.99725,262.53226,88,121,0
262.53726,262.65225,87,100,0
262.65726,262.77225,88,100,0
262.77725,262.89224,86,100,0
262.89725,263.01227,85,100,0
263.01724,263.13226,83,100,0
263.13727,263.25226,81,100,0
263.97726,264.09225,81,100,0
263.25726,264.15225,80,100,0
264.03726,264.15225,80,100,0
264.15726,264.21225,80,100,0
264.09726,264.21225,78,100,0
264.21725,264.45227,81,100,0
264.45724,264.69226,80,100,0
264.69727,264.81226,78,100,0
264.75726,264.87225,80,100,0
264.81726,264.93225,78,100,0
264.93726,265.17227,76,100,0
265.17725,265.41226,76,100,0
265.41727,265.89224,81,100,0
265.41727,265.89224,69,100,0
265.89725,266.13226,79,100,0
265.89725,266.13226,67,100,0
266.13727,266.37225,78,100,0
266.37726,266.49225,79,100,0
266.43726,266.55225,78,100,0
266.49725,266.61224,76,100,0
266.55725,266.67227,78,100,0
266.61725,266.67227,78,100,0
266.13727,266.85226,66,100,0
266.85727,267.09225,81,100,0
266.85727,267.09225,69,100,0
267.09726,267.57227,81,100,0
267.09726,267.57227,69,100,0
267.57727,268.05225,79,100,0
267.57727,268.05225,67,100,0
268.53726,269.01227,77,100,0
268.53726,269.01227,65,100,0
269.01724,269.25226,80,100,0
269.01724,269.25226,68,100,0
269.25726,269.73227,78,100,0
269.25726,269.73227,66,100,0
269.73724,269.97226,76,100,0
269.73724,269.97226,64,100,0
269.97726,270.21225,75,100,0
270.21725,270.33224,76,100,0
270.27725,270.39224,75,100,0
270.33725,270.45227,73,100,0
270.39725,270.45227,75,100,0
269.97726,270.69226,63,100,0
270.45724,270.69226,75,100,0
270.69727,270.93225,78,100,0
270.69727,270.93225,66,100,0
270.93726,271.41226,78,100,0
270.93726,271.41226,66,100,0
271.41727,271.89224,64,100,0
271.41727,271.89224,76,100,0
272.37726,272.85226,73,100,0
272.37726,272.85226,61,100,0
272.85727,273.09225,76,100,0
272.85727,273.09225,64,100,0
273.09726,273.57227,74,100,0
273.09726,273.57227,62,100,0
273.57727,274.05225,73,100,0
273.57727,274.05225,61,100,0
274.05725,274.53226,71,100,0
274.05725,274.53226,59,100,0
274.53726,274.77225,78,100,0
274.53726,274.77225,66,100,0
274.77725,275.49225,69,100,0
275.49725,275.61224,71,100,0
275.55725,275.67227,69,100,0
275.61725,275.73227,68,100,0
275.67725,275.73227,69,100,0
275.73724,276.45227,73,100,0
275.73724,276.69226,68,100,0
275.73724,276.69226,62,100,0
276.45724,276.69226,71,100,0
276.69727,277.17227,69,80,0
276.69727,277.17227,61,80,0
277.17725,277.33224,64,80,0
277.25726,277.41226,69,80,0
277.33725,277.49225,73,80,0
277.41727,277.57227,76,80,0
277.49725,277.65225,81,80,0
277.57727,277.65225,85,80,0
277.65726,278.13226,88,80,0
278.13727,278.61224,88,80,0
278.61725,278.85226,88,80,0
278.85727,278.97226,68,80,0
279.09726,280.05225,68,80,0
280.05725,280.53226,68,80,0
280.77725,280.89224,68,80,0
280.89725,281.01227,69,80,0
281.25726,281.37225,70,80,0
281.37726,281.49225,71,80,0
281.73724,281.85226,72,80,0
281.85727,281.97226,73,80,0
282.21725,282.33224,73,80,0
282.33725,282.45227,74,80,0
282.45724,283.05225,76,80,0
283.05725,283.17227,75,80,0
283.11725,283.23227,76,80,0
283.17725,283.29227,78,80,0
283.23724,283.35226,76,80,0
283.29727,283.41226,74,80,0
283.35727,283.41226,73,80,0
283.41727,283.89224,71,80,0
284.61725,284.73227,57,80,0
284.73724,284.85226,61,80,0
284.85727,285.01227,64,80,0
284.93726,285.09225,69,80,0
285.01724,285.17227,73,80,0
285.09726,285.25226,76,80,0
285.17725,285.33224,81,80,0
285.25726,285.33224,85,80,0
285.33725,285.81226,88,80,0
285.81726,286.29227,88,80,0
286.29727,286.53226,88,80,0
286.53726,286.65225,70,80,0
286.77725,287.49225,70,80,0
287.49725,287.73227,79,80,0
287.73724,287.97226,76,80,0
287.97726,288.21225,70,80,0
288.21725,288.45227,69,80,0
288.45724,288.69226,72,80,0
288.69727,288.93225,77,80,0
288.93726,289.17227,72,80,0
289.17725,289.41226,81,80,0
289.41727,289.65225,77,80,0
289.65726,289.89224,72,80,0
289.89725,290.13226,69,80,0
290.13727,290.25226,70,80,0
290.19727,290.31226,72,80,0
290.25726,290.37225,70,80,0
290.31726,290.43225,72,80,0
290.37726,290.49225,70,80,0
290.43726,290.55225,72,80,0
290.49725,290.61224,69,80,0
290.55725,290.61224,70,80,0
290.61725,291.33224,79,80,0
291.33725,291.57227,76,80,0
291.57727,291.81226,72,80,0
291.81726,292.05225,70,80,0
292.05725,292.17227,69,80,0
292.17725,292.29227,72,80,0
292.29727,292.41226,77,80,0
292.41727,292.53226,76,80,0
292.53726,292.65225,77,80,0
292.65726,292.77225,72,80,0
292.77725,292.89224,81,80,0
292.89725,293.01227,80,80,0
293.01724,293.13226,81,80,0
293.13727,293.25226,77,80,0
293.25726,293.37225,84,80,0
293.37726,293.49225,83,80,0
293.49725,293.61224,84,80,0
293.61725,293.73227,81,80,0
293.73724,293.85226,77,80,0
293.85727,293.97226,72,80,0
293.97726,294.09225,70,80,0
294.03726,294.15225,72,80,0
294.09726,294.21225,70,80,0
294.15726,294.27225,72,80,0
294.21725,294.33224,70,80,0
294.27725,294.39224,72,80,0
294.33725,294.45227,69,80,0
294.39725,294.45227,70,80,0
294.45724,295.41226,79,101,0
295.41727,295.89224,70,80,0
295.89725,296.37225,70,80,0
296.37726,297.33224,79,85,0
297.33725,297.81226,70,97,0
297.81726,298.05225,71,90,0
298.05725,298.29227,78,88,0
298.29727,298.53226,77,85,0
298.53726,298.77225,78,82,0
298.77725,299.01227,76,79,0
299.01724,299.25226,74,76,0
299.25726,299.49225,73,73,0
299.49725,299.73227,71,71,0
299.73724,300.45227,69,70,0
300.45724,300.57227,71,70,0
300.51724,300.63226,69,70,0
300.57727,300.69226,68,70,0
300.63727,300.69226,69,70,0
300.69727,301.41226,73,70,0
301.41727,301.65225,71,70,0
301.65726,301.89224,69,70,0
301.89725,302.13226,64,89,0
301.89725,302.13226,61,82,0
302.13727,302.37225,64,100,0
302.13727,302.37225,61,100,0
302.37726,302.61224,64,100,0
302.37726,302.61224,61,100,0
302.61725,302.85226,64,100,0
302.61725,302.85226,61,100,0
302.85727,303.09225,64,100,0
302.85727,303.09225,61,100,0
303.09726,303.33224,64,100,0
303.09726,303.33224,61,100,0
303.33725,303.57227,64,100,0
303.33725,303.57227,61,100,0
304.13727,304.29227,68,100,0
304.21725,304.37225,71,100,0
304.29727,304.45227,76,100,0
304.37726,304.53226,80,100,0
304.45724,304.53226,83,100,0
304.53726,305.01227,86,100,0
305.01724,305.49225,86,100,0
305.49725,305.97226,85,100,0
305.97726,306.21225,64,100,0
305.97726,306.21225,61,100,0
305.97726,306.21225,57,100,0
306.21725,306.45227,64,100,0
306.21725,306.45227,61,100,0
306.21725,306.45227,57,100,0
306.45724,306.69226,64,100,0
306.45724,306.69226,61,100,0
306.69727,306.93225,64,100,0
306.69727,306.93225,61,100,0
306.93726,307.17227,64,100,0
306.93726,307.17227,61,100,0
307.17725,307.41226,64,100,0
307.17725,307.41226,61,100,0
307.97726,308.13226,68,100,0
308.05725,308.21225,71,100,0
308.13727,308.29227,76,100,0
308.21725,308.37225,80,100,0
308.29727,308.37225,83,100,0
308.37726,308.85226,86,100,0
308.85727,309.33224,86,100,0
309.33725,309.81226,85,100,0
309.81726,310.05225,64,100,0
309.81726,310.05225,61,100,0
309.81726,310.05225,57,100,0
310.05725,310.29227,64,100,0
310.05725,310.29227,61,100,0
310.05725,310.29227,57,100,0
310.29727,310.53226,64,100,0
310.29727,310.53226,61,100,0
310.53726,310.77225,64,100,0
310.53726,310.77225,61,100,0
310.77725,311.01227,64,100,0
310.77725,311.01227,61,100,0
311.01724,311.25226,64,100,0
311.01724,311.25226,61,100,0
311.25726,311.73227,64,100,0
311.25726,311.73227,61,100,0
311.73724,311.89224,57,100,0
311.81726,311.97226,61,100,0
311.89725,312.05225,64,100,0
311.97726,312.13226,69,100,0
312.05725,312.21225,73,100,0
312.13727,312.21225,76,100,0
312.21725,312.69226,81,100,0
312.69727,313.17227,81,100,0
313.17725,313.41226,81,100,0
313.41727,313.53226,62,100,0
313.65726,314.61224,62,100,0
314.61725,315.09225,63,100,0
315.09726,315.81226,64,100,0
315.09726,315.81226,61,100,0
315.81726,316.05225,61,100,0
315.81726,316.05225,57,100,0
316.05725,316.77225,62,100,0
316.05725,316.77225,59,100,0
316.77725,317.01227,59,100,0
316.77725,317.01227,56,100,0
317.01724,317.49225,61,100,0
317.49725,317.65225,57,100,0
317.57727,317.73227,61,100,0
317.65726,317.81226,64,100,0
317.73724,317.89224,69,100,0
317.81726,317.97226,73,100,0
317.89725,317.97226,76,100,0
317.97726,318.45227,81,100,0
318.45724,318.93225,81,100,0
318.93726,319.17227,81,110,0
319.17725,319.29227,62,110,0
319.41727,320.37225,62,110,0
320.37726,320.85226,81,110,0
320.85727,321.09225,81,110,0
321.09726,321.21225,63,110,0
321.33725,322.29227,63,110,0
322.29727,322.77225,81,110,0
322.77725,323.01227,82,110,0
323.01724,323.25226,81,110,0
323.25726,323.49225,79,111,0
323.49725,323.73227,77,111,0
323.97726,324.21225,69,113,0
324.21725,324.45227,67,113,0
323.73724,324.69226,75,112,0
324.45724,324.69226,65,114,0
324.69727,324.93225,70,115,0
324.93726,325.17227,69,115,0
325.17725,325.41226,67,116,0
324.69727,325.65225,74,115,0
325.41727,325.65225,65,116,0
325.89725,326.13226,69,118,0
326.13727,326.37225,67,118,0
325.65726,326.61224,63,117,0
326.37726,326.61224,65,119,0
326.61725,326.77225,70,120,0
326.61725,326.77225,62,120,0
326.77725,326.93225,58,120,0
326.93726,327.09225,59,120,0
327.09726,327.25226,60,120,0
327.25726,327.41226,61,120,0
327.41727,327.57227,62,120,0
327.57727,327.73227,63,120,0
327.73724,327.89224,64,120,0
327.89725,328.05225,65,120,0
328.05725,328.21225,67,120,0
328.21725,328.37225,65,120,0
328.37726,328.53226,58,120,0
328.69727,328.85226,57,120,0
328.85727,329.01227,58,120,0
329.01724,329.17227,59,120,0
329.17725,329.33224,60,120,0
329.33725,329.49225,61,120,0
329.49725,329.65225,62,120,0
329.65726,329.81226,63,120,0
329.81726,329.97226,64,120,0
329.97726,330.13226,65,120,0
330.13727,330.29227,63,120,0
330.29727,330.45227,57,120,0
330.61725,330.77225,58,120,0
330.77725,330.93225,59,120,0
330.93726,331.09225,60,120,0
331.09726,331.25226,61,120,0
331.25726,331.41226,62,120,0
331.41727,331.57227,63,120,0
331.57727,331.73227,64,120,0
331.73724,331.89224,65,120,0
331.89725,332.05225,66,120,0
332.05725,332.21225,67,120,0
332.21725,332.37225,68,120,0
332.53726,332.69226,69,120,0
332.69727,332.85226,71,120,0
332.85727,333.01227,72,120,0
333.01724,333.17227,69,120,0
333.17725,333.33224,71,120,0
333.33725,333.49225,72,120,0
333.49725,333.65225,69,120,0
333.65726,333.81226,71,120,0
333.81726,333.97226,72,120,0
333.97726,334.13226,71,120,0
334.13727,334.29227,69,120,0
334.29727,334.45227,68,120,0
334.45724,334.61224,64,120,0
334.61725,334.77225,65,120,0
334.77725,334.93225,66,120,0
334.93726,335.09225,67,120,0
335.09726,335.25226,68,120,0
335.25726,335.41226,69,120,0
335.41727,335.57227,70,120,0
335.57727,335.73227,71,120,0
335.73724,335.89224,72,120,0
335.89725,336.05225,71,120,0
336.05725,336.21225,64,120,0
336.37726,336.53226,66,120,0
336.53726,336.69226,68,120,0
336.69727,336.85226,69,120,0
336.85727,337.01227,71,120,0
337.01724,337.17227,72,120,0
337.17725,337.33224,73,120,0
337.33725,337.49225,74,120,0
337.49725,337.65225,75,120,0
337.65726,337.81226,76,120,0
337.81726,337.97226,77,120,0
337.97726,338.13226,78,120,0
338.29727,338.45227,68,120,0
338.45724,338.61224,69,120,0
338.61725,338.77225,70,120,0
338.77725,338.93225,71,120,0
338.93726,339.09225,72,120,0
339.09726,339.25226,73,120,0
339.25726,339.41226,74,120,0
339.41727,339.57227,75,120,0
339.57727,339.73227,76,120,0
339.73724,339.89224,74,120,0
339.89725,340.05225,68,120,0
340.21725,340.37225,69,120,0
340.37726,340.53226,71,120,0
340.53726,340.69226,73,120,0
340.69727,340.85226,74,120,0
340.85727,341.01227,75,120,0
341.01724,341.17227,76,120,0
341.17725,341.33224,77,120,0
341.33725,341.49225,78,120,0
341.49725,341.65225,79,120,0
341.65726,341.81226,80,120,0
341.81726,341.97226,81,120,0
342.13727,342.29227,71,120,0
342.29727,342.45227,73,120,0
342.45724,342.61224,74,120,0
342.61725,342.77225,75,120,0
342.77725,342.93225,76,120,0
342.93726,343.09225,77,120,0
343.09726,343.25226,78,120,0
343.25726,343.41226,79,120,0
343.41727,343.57227,80,120,0
343.57727,343.73227,81,120,0
343.73724,343.89224,82,120,0
343.89725,344.05225,83,120,0
344.05725,344.21225,84,120,0
344.21725,344.37225,85,120,0
344.37726,344.53226,86,120,0
344.53726,344.69226,85,120,0
344.69727,344.85226,83,119,0
344.85727,345.01227,81,119,0
345.01724,345.17227,80,118,0
345.17725,345.33224,78,117,0
345.33725,345.49225,76,117,0
345.49725,345.65225,74,116,0
345.65726,345.81226,73,116,0
345.81726,345.97226,71,115,0
345.97726,346.13226,69,114,0
346.13727,346.29227,68,114,0
346.29727,346.45227,66,113,0
346.45724,346.61224,64,113,0
346.61725,346.77225,62,112,0
346.77725,346.93225,61,111,0
346.93726,347.09225,59,111,0
347.09726,347.25226,57,110,0
347.25726,347.41226,56,110,0
347.41727,347.57227,54,109,0
347.57727,347.73227,52,108,0
347.73724,347.8987,50,108,0
347.90393,348.06537,49,107,0
348.0706,348.23206,47,107,0
348.23724,348.40573,45,106,0
348.41116,348.57965,44,105,0
348.58508,348.75357,42,105,0
348.759,348.9435,40,104,0
348.94946,349.134,42,104,0
349.13995,349.32446,40,103,0
349.3304,349.54572,38,102,0
349.55264,349.7679,37,102,0
349.77487,349.99014,35,101,0
350.54587,350.66275,61,80,0
350.60684,350.72372,64,80,0
350.66782,350.7847,69,80,0
350.7288,350.84567,73,80,0
350.78976,350.90665,76,80,0
350.85074,350.96762,81,80,0
350.9117,350.96762,85,80,0
350.9727,351.4554,88,80,0
351.4605,351.94324,88,80,0
351.9483,352.18713,88,80,0
352.1922,352.30908,68,80,0
352.4361,353.40665,68,80,0
353.4117,353.89444,68,80,0
353.89954,354.05704,69,80,0
353.98083,354.13834,71,80,0
354.06213,354.21964,69,80,0
354.14343,354.30093,68,80,0
354.22473,354.38223,69,80,0
354.30603,354.46353,70,80,0
354.38733,354.54486,71,80,0
354.46863,354.62616,73,80,0
354.54993,354.70746,71,80,0
354.63123,354.78876,70,80,0
354.71252,354.87006,71,80,0
354.79382,354.95135,72,80,0
354.87512,355.03265,73,80,0
354.95642,355.11395,74,80,0
355.03772,355.19525,73,80,0
355.11902,355.27655,72,80,0
355.20035,355.35785,73,80,0
355.28165,355.43915,69,80,0
355.36295,355.52045,74,80,0
355.44424,355.60175,76,80,0
355.52554,355.68304,74,80,0
355.60684,355.76434,73,80,0
355.68814,355.84564,74,80,0
355.76944,355.84564,75,80,0
355.85074,356.00827,76,80,0
355.93204,356.08957,78,80,0
356.01334,356.17087,76,80,0
356.09464,356.25217,75,80,0
356.17593,356.33347,76,80,0
356.25723,356.41476,77,80,0
356.33853,356.57736,78,80,0
356.46048,356.6993,76,80,0
356.58246,356.82126,74,80,0
356.7044,356.82126,73,80,0
356.82635,357.30908,71,80,0
358.04587,358.16272,57,80,0
358.16782,358.28467,61,80,0
358.28976,358.44727,64,80,0
358.37106,358.52856,69,80,0
358.45236,358.6099,73,80,0
358.53366,358.6912,76,80,0
358.61496,358.7725,81,80,0
358.69626,358.7725,85,80,0
358.77756,359.0164,88,80,0
359.02145,359.13834,87,80,0
359.1434,359.26028,88,80,0
359.26538,359.38223,87,80,0
359.38733,359.50418,88,80,0
359.50928,359.62613,87,80,0
359.63123,359.74808,88,80,0
359.75317,359.992,88,102,0
359.99707,360.11395,66,80,0
360.24097,360.9676,66,80,0
360.9727,361.08954,74,80,0
361.09464,361.2115,73,80,0
361.21658,361.33347,76,80,0
361.33853,361.4554,74,80,0
361.46048,361.57736,73,80,0
361.58243,361.6993,71,80,0
361.70438,362.431,69,80,0
362.4361,362.55295,71,80,0
362.49707,362.61392,69,80,0
362.55804,362.67493,68,80,0
362.61902,362.67493,69,80,0
362.68,362.91882,73,80,0
362.9239,363.16272,71,80,0
363.1678,363.40662,74,80,0
363.4117,363.6505,68,80,0
363.6556,363.77246,69,80,0
363.77756,363.8944,68,80,0
363.8995,364.0164,71,80,0
364.02145,364.13834,69,80,0
364.1434,364.26028,73,80,0
364.26535,364.38223,71,80,0
364.3873,364.50418,74,80,0
364.50925,364.62613,73,80,0
364.6312,364.74808,76,80,0
364.75317,364.87003,75,80,0
364.87512,364.99197,78,80,0
364.99707,365.11392,76,80,0
365.11902,365.23587,74,80,0
365.24097,365.35785,73,80,0
365.3629,365.4798,71,80,0
365.48486,365.60175,69,80,0
365.6068,366.08954,68,80,0
366.09464,366.33344,68,100,0
366.1556,367.06516,74,101,0
367.07022,367.30905,71,80,0
367.31412,367.55295,68,80,0
367.55804,367.6749,69,80,0
367.68,367.79684,68,80,0
367.80194,367.9188,71,80,0
367.9239,368.04077,69,80,0
368.04584,368.16272,73,80,0
368.1678,368.28467,71,80,0
368.28973,368.40662,74,80,0
368.41168,368.52856,73,80,0
368.53363,368.6505,76,80,0
368.65558,368.77246,75,80,0
368.77756,368.8944,78,80,0
368.8995,369.01636,76,80,0
369.02145,369.1383,74,80,0
369.1434,369.26025,73,80,0
369.26535,369.38223,71,80,0
369.3873,369.50418,69,80,0
369.50925,369.62613,68,80,0
369.57022,369.6871,69,80,0
369.6312,369.74808,68,80,0
369.69217,369.80905,69,80,0
369.75314,369.87003,68,80,0
369.81412,369.931,69,80,0
369.8751,369.99197,66,80,0
369.93607,369.99197,68,80,0
369.99704,370.9676,74,103,0
370.97266,371.2115,71,80,0
371.21655,371.45538,68,80,0
371.46048,371.57733,69,80,0
371.58243,371.69928,68,81,0
371.70438,371.82123,71,83,0
371.82632,371.94318,69,85,0
371.94827,372.06512,73,87,0
372.07022,372.1871,71,89,0
372.19217,372.30905,74,91,0
372.31412,372.431,73,93,0
372.43607,372.55295,76,95,0
372.558,372.6749,75,97,0
372.67996,372.79684,78,99,0
372.80194,372.9188,76,101,0
372.9239,373.04074,81,103,0
373.04584,373.1627,80,105,0
373.1678,373.28464,83,107,0
373.28973,373.4066,81,109,0
373.41168,373.52856,80,105,0
373.53363,373.6505,78,103,0
373.65558,373.77246,76,101,0
373.77753,373.8944,74,99,0
373.89948,374.01636,73,96,0
374.02142,374.1383,71,94,0
374.1434,374.26025,69,92,0
374.26535,374.3822,68,90,0
374.3873,374.51797,66,87,0
374.52365,374.65433,64,85,0
374.66,374.7907,62,83,0
374.7964,374.92706,61,81,0
374.93274,375.0765,59,80,0
375.08273,375.2265,57,80,0
375.23276,375.3765,56,80,0
375.38275,375.5265,54,80,0
375.53275,376.19247,52,80,0
376.1994,376.85913,62,80,0
376.8661,377.5258,59,80,0
377.53275,378.19247,56,80,0
378.1994,380.21948,59,80,0
378.1994,380.21948,56,80,0
378.1994,380.21948,52,80,0
378.1994,380.21948,50,80,0
380.6101,383.59448,57,80,0
380.6101,383.59448,52,80,0
380.6101,383.59448,49,80,0
387.7351,389.21948,57,1,0
0.0,0.235,45,80,0
0.12,0.355,49,80,0
0.24,0.475,52,80,0
0.36,0.595,57,80,0
0.96,1.195,57,80,0
1.2,1.435,64,80,0
1.44,1.675,61,80,0
1.68,1.915,64,80,0
1.92,2.155,59,80,0
2.16,2.395,64,80,0
2.4,2.635,62,80,0
2.64,2.875,64,80,0
2.88,3.115,59,80,0
3.12,3.355,64,80,0
3.36,3.595,62,80,0
3.6,3.835,64,80,0
3.84,4.075,61,80,0
4.08,4.315,64,80,0
4.32,4.555,56,80,0
4.56,4.795,64,80,0
4.8,5.035,57,80,0
5.04,5.275,64,80,0
5.28,5.515,54,80,0
5.52,5.755,57,80,0
5.76,5.995,52,80,0
6.0,6.235,61,80,0
6.24,6.475,57,80,0
6.48,6.715,61,80,0
6.72,6.955,52,80,0
6.96,7.195,56,80,0
7.2,7.435,50,80,0
7.44,7.675,56,80,0
7.68,7.915,49,80,0
7.92,8.155,57,80,0
8.16,8.395,52,80,0
8.4,8.635,57,80,0
8.64,8.875,47,80,0
8.88,9.115,56,80,0
9.12,9.355,52,80,0
9.36,9.595,54,80,0
9.6,9.835,46,80,0
9.84,10.075,54,80,0
10.08,10.315,52,80,0
10.32,10.555,54,80,0
10.56,10.795,49,80,0
10.8,11.035,58,80,0
11.04,11.275,52,80,0
11.28,11.515,58,80,0
11.52,11.755,52,80,0
11.76,11.995,59,80,0
12.0,12.235,56,80,0
12.24,12.475,59,80,0
12.48,12.715,54,80,0
11.52,12.955,47,80,0
12.72,12.955,59,80,0
12.96,13.195,57,80,0
12.96,13.435,47,80,0
13.2,13.435,59,80,0
13.68,13.915,57,80,0
13.92,14.155,59,80,0
14.16,14.395,57,80,0
13.44,14.875,52,80,0
14.4,14.875,56,80,0
16.56,16.795,57,80,0
16.8,17.035,61,80,0
17.04,17.275,63,80,0
15.36,18.475,52,102,0
18.48,18.715,52,80,0
18.72,18.955,47,80,0
18.96,19.195,49,80,0
19.2,20.155,50,80,0
20.16,20.635,49,80,0
20.64,21.115,54,80,0
19.2,21.355,40,104,0
21.12,21.595,52,80,0
21.36,21.595,39,70,0
21.6,21.835,40,70,0
21.84,22.075,42,70,0
22.08,22.315,40,70,0
22.32,22.555,38,70,0
22.56,22.795,37,70,0
22.8,23.035,35,70,0
23.04,23.275,33,80,0
23.28,23.515,52,80,0
23.52,23.755,49,80,0
23.76,23.995,52,80,0
24.0,24.235,45,80,0
24.24,24.475,52,80,0
24.48,24.715,49,80,0
24.72,24.955,52,80,0
24.96,25.195,47,80,0
25.2,25.435,52,80,0
25.44,25.675,50,80,0
25.68,25.915,52,80,0
25.92,26.155,47,80,0
26.16,26.395,52,80,0
26.4,26.635,49,80,0
26.64,26.875,57,80,0
26.88,27.115,50,80,0
27.12,27.355,59,80,0
27.36,27.595,54,80,0
27.6,27.835,59,80,0
27.84,28.075,52,80,0
28.08,28.315,61,80,0
28.32,28.555,52,80,0
28.56,28.795,62,80,0
29.04,29.275,62,80,0
29.28,29.515,64,80,0
29.52,29.755,62,80,0
28.8,30.235,57,80,0
29.76,30.235,61,80,0
31.2,31.315,59,80,0
31.32,31.435,62,80,0
31.44,31.555,64,80,0
31.56,31.675,62,80,0
31.68,32.155,59,80,0
33.12,33.235,61,80,0
33.24,33.355,64,80,0
33.36,33.475,69,80,0
33.48,33.595,64,80,0
33.6,34.075,61,80,0
34.56,35.035,62,100,0
34.56,35.035,66,100,0
35.52,35.995,62,100,0
35.52,35.995,59,100,0
35.52,35.995,52,100,0
36.48,36.955,57,80,0
38.88,38.995,71,80,0
39.0,39.115,74,80,0
39.12,39.235,76,80,0
39.24,39.355,74,80,0
39.36,39.835,71,80,0
40.8,40.915,73,80,0
40.92,41.035,76,80,0
41.04,41.155,81,80,0
41.16,41.275,76,80,0
41.28,41.755,73,80,0
42.24,42.715,66,100,0
42.24,42.715,69,100,0
43.2,43.675,63,100,0
43.2,43.675,66,100,0
44.16,44.635,64,100,0
45.36,45.595,56,100,0
45.36,45.595,52,100,0
45.6,45.835,57,100,0
45.6,45.835,54,100,0
45.84,46.075,59,100,0
45.84,46.075,56,100,0
46.08,46.555,57,100,0
46.08,46.555,61,100,0
47.04,47.515,57,100,0
47.04,47.515,54,100,0
47.04,47.515,51,100,0
47.04,47.515,47,100,0
48.0,48.115,52,80,0
48.12,48.235,59,80,0
48.24,48.355,56,80,0
48.36,48.475,59,80,0
48.48,48.595,64,80,0
48.6,48.715,59,80,0
48.72,48.835,56,80,0
48.84,48.955,59,80,0
48.96,49.075,52,80,0
49.08,49.195,59,80,0
49.2,49.315,56,80,0
49.32,49.435,59,80,0
49.44,49.555,52,80,0
49.56,49.675,59,80,0
49.68,49.795,56,80,0
49.8,49.915,59,80,0
49.92,50.035,57,80,0
50.04,50.155,59,80,0
50.16,50.275,54,80,0
50.28,50.395,59,80,0
50.4,50.515,51,80,0
50.52,50.635,59,80,0
50.64,50.755,47,80,0
50.76,50.875,59,80,0
50.88,50.995,45,80,0
51.0,51.115,59,80,0
51.12,51.235,47,80,0
51.24,51.355,59,80,0
51.36,51.475,45,80,0
51.48,51.595,59,80,0
51.6,51.715,47,80,0
51.72,51.835,59,80,0
51.84,51.955,44,80,0
51.96,52.075,59,80,0
52.08,52.195,47,80,0
52.2,52.315,59,80,0
52.32,52.435,52,80,0
52.44,52.555,59,80,0
52.56,52.675,56,80,0
52.68,52.795,59,80,0
52.8,52.915,52,80,0
52.92,53.035,59,80,0
53.04,53.155,56,80,0
53.16,53.275,59,80,0
53.28,53.395,52,80,0
53.4,53.515,59,80,0
53.52,53.635,56,80,0
53.64,53.755,59,80,0
53.76,53.875,57,80,0
53.88,53.995,59,80,0
54.0,54.115,54,80,0
54.12,54.235,59,80,0
54.24,54.355,51,80,0
54.36,54.475,59,80,0
54.48,54.595,47,80,0
54.6,54.715,59,80,0
54.72,54.835,45,80,0
54.84,54.955,59,80,0
54.96,55.075,47,80,0
55.08,55.195,59,80,0
55.2,55.315,45,80,0
55.32,55.435,59,80,0
55.44,55.555,47,80,0
55.56,55.675,59,80,0
55.68,55.795,44,80,0
55.8,55.915,59,80,0
55.92,56.035,47,80,0
56.04,56.155,59,80,0
56.16,56.275,52,80,0
56.28,56.395,59,80,0
56.4,56.515,56,80,0
56.52,56.635,59,80,0
56.64,56.755,52,80,0
56.76,56.875,59,80,0
56.88,56.995,56,80,0
57.0,57.115,59,80,0
57.12,57.235,52,80,0
57.24,57.355,59,80,0
57.36,57.475,56,80,0
57.48,57.595,59,80,0
57.6,57.715,57,80,0
57.72,57.835,59,80,0
57.84,57.955,54,80,0
57.96,58.075,59,80,0
58.08,58.195,51,80,0
58.2,58.315,59,80,0
58.32,58.435,47,80,0
58.44,58.555,59,80,0
58.56,58.675,45,80,0
58.68,58.795,59,80,0
58.8,58.915,47,80,0
58.92,59.035,59,80,0
59.04,59.155,45,80,0
59.16,59.275,59,80,0
59.28,59.395,47,80,0
59.4,59.515,59,80,0
59.52,59.635,44,80,0
59.64,59.755,59,80,0
59.76,59.875,56,80,0
59.88,59.995,59,80,0
60.0,60.115,44,80,0
60.12,60.235,59,80,0
60.24,60.355,56,80,0
60.36,60.475,59,80,0
60.48,60.595,43,80,0
60.6,60.715,57,80,0
60.72,60.835,55,80,0
60.84,60.955,57,80,0
60.96,61.075,43,80,0
61.08,61.195,57,80,0
61.2,61.315,55,80,0
61.32,61.435,57,80,0
61.44,61.555,42,80,0
61.56,61.675,57,80,0
61.68,61.795,54,80,0
61.8,61.915,57,80,0
61.92,62.035,42,80,0
62.04,62.155,57,80,0
62.16,62.275,54,80,0
62.28,62.395,57,80,0
62.4,62.515,42,80,0
62.52,62.635,56,80,0
62.64,62.755,54,80,0
62.76,62.875,56,80,0
62.88,62.995,42,80,0
63.0,63.115,56,80,0
63.12,63.235,54,80,0
63.24,63.355,56,80,0
63.36,63.475,40,80,0
63.48,63.595,56,80,0
63.6,63.715,52,80,0
63.72,63.835,56,80,0
63.84,63.955,40,80,0
63.96,64.075,56,80,0
64.08,64.195,52,80,0
64.2,64.315,56,80,0
64.32,64.435,40,80,0
64.44,64.555,54,80,0
64.56,64.675,52,80,0
64.68,64.795,54,80,0
64.8,64.915,40,80,0
64.92,65.035,54,80,0
65.04,65.155,52,80,0
65.16,65.275,54,80,0
65.28,65.395,39,80,0
65.4,65.515,54,80,0
65.52,65.635,51,80,0
65.64,65.755,54,80,0
65.76,65.875,39,80,0
65.88,65.995,54,80,0
66.0,66.115,51,80,0
66.12,66.235,54,80,0
66.24,66.355,38,80,0
66.36,66.475,52,80,0
66.48,66.595,50,80,0
66.6,66.715,52,80,0
66.72,66.835,38,80,0
66.84,66.955,52,80,0
66.96,67.075,50,80,0
67.08,67.195,52,80,0
67.2,67.315,37,80,0
67.32,67.435,52,80,0
67.44,67.555,49,80,0
67.56,67.675,52,80,0
67.68,67.795,37,80,0
67.8,67.915,52,80,0
67.92,68.035,49,80,0
68.04,68.155,52,80,0
68.16,68.275,35,80,0
68.28,68.395,52,80,0
68.4,68.515,47,80,0
68.52,68.635,52,80,0
68.64,68.755,33,80,0
68.76,68.875,52,80,0
68.88,68.995,45,80,0
69.0,69.115,52,80,0
69.12,69.235,40,80,0
69.24,69.355,52,80,0
69.36,69.475,42,80,0
69.48,69.595,52,80,0
69.6,69.715,44,80,0
69.72,69.835,52,80,0
69.84,69.955,45,80,0
69.96,70.075,52,80,0
70.08,70.195,47,80,0
70.2,70.315,52,80,0
70.32,70.435,49,80,0
70.44,70.555,52,80,0
70.56,70.675,50,80,0
70.68,70.795,52,80,0
70.8,70.915,47,80,0
70.92,71.035,52,80,0
71.04,71.155,49,80,0
71.16,71.275,52,80,0
71.28,71.395,45,80,0
71.4,71.515,52,80,0
71.52,71.635,37,80,0
71.64,71.755,52,80,0
71.76,71.875,49,80,0
71.88,71.995,52,80,0
72.0,72.115,35,80,0
72.12,72.235,52,80,0
72.24,72.355,47,80,0
72.36,72.475,52,80,0
72.48,72.595,33,80,0
72.6,72.715,52,80,0
72.72,72.835,45,80,0
72.84,72.955,52,80,0
72.96,73.075,40,70,0
73.08,73.195,52,70,0
73.2,73.315,42,70,0
73.32,73.435,52,70,0
73.44,73.555,44,70,0
73.56,73.675,52,70,0
73.68,73.795,45,70,0
73.8,73.915,52,70,0
73.92,74.035,46,70,0
74.04,74.155,52,70,0
74.16,74.275,47,70,0
74.28,74.395,52,70,0
74.4,74.515,48,70,0
74.52,74.635,52,70,0
74.64,74.755,49,70,0
74.76,74.875,52,70,0
74.88,74.995,50,70,0
75.0,75.115,52,70,0
75.12,75.235,49,70,0
75.24,75.355,52,70,0
75.36,75.475,47,70,0
75.48,75.595,52,70,0
75.6,75.715,45,70,0
75.72,75.835,52,70,0
75.84,75.955,44,70,0
75.96,76.075,52,70,0
76.08,76.195,42,70,0
76.2,76.315,52,70,0
76.32,76.435,44,70,0
76.44,76.555,52,70,0
76.56,76.675,40,70,0
76.68,76.795,52,70,0
76.8,76.955,33,80,0
76.88,77.035,37,80,0
76.96,77.115,40,80,0
77.04,77.195,45,80,0
77.12,77.275,49,80,0
77.2,77.355,52,80,0
77.28,77.395,57,80,0
77.76,77.995,57,80,0
78.0,78.235,64,80,0
78.24,78.475,61,80,0
78.48,78.715,64,80,0
78.72,78.955,59,80,0
78.96,79.195,64,80,0
79.2,79.435,62,80,0
79.44,79.675,64,80,0
79.68,79.915,59,80,0
79.92,80.155,64,80,0
80.16,80.395,62,80,0
80.4,80.635,64,80,0
80.64,80.875,61,80,0
80.88,81.115,57,80,0
81.12,81.355,56,80,0
81.36,81.595,52,80,0
81.6,81.835,57,80,0
81.84,82.075,64,80,0
82.08,82.315,54,80,0
82.32,82.555,57,80,0
82.56,82.795,52,80,0
82.8,83.035,61,80,0
83.04,83.275,57,80,0
83.28,83.515,61,80,0
83.52,83.755,52,80,0
83.76,83.995,56,80,0
84.0,84.235,50,80,0
84.24,84.475,56,80,0
84.48,84.715,49,80,0
84.72,84.955,57,80,0
84.96,85.195,52,80,0
85.2,85.435,57,80,0
85.44,85.675,47,80,0
85.68,85.915,56,80,0
85.92,86.155,52,80,0
86.16,86.395,54,80,0
86.4,86.635,46,80,0
86.64,86.875,54,80,0
86.88,87.115,52,80,0
87.12,87.355,54,80,0
87.36,87.595,49,80,0
87.6,87.835,58,80,0
87.84,88.075,52,80,0
88.08,88.315,58,80,0
88.32,88.555,52,80,0
88.56,88.795,59,80,0
88.8,89.035,56,80,0
89.04,89.275,59,80,0
89.28,89.515,54,80,0
88.32,89.755,47,80,0
89.52,89.755,59,80,0
89.76,89.995,57,80,0
89.76,90.235,47,80,0
90.0,90.235,59,80,0
90.48,90.715,57,80,0
90.72,90.955,59,80,0
90.96,91.195,57,80,0
90.24,91.675,52,80,0
91.2,91.675,56,80,0
93.36,93.595,57,80,0
93.6,93.835,61,80,0
93.84,94.075,63,80,0
92.16,95.275,52,104,0
95.28,95.515,52,80,0
95.52,95.755,47,80,0
95.76,95.995,49,80,0
96.0,96.955,50,80,0
96.96,97.435,49,80,0
97.44,97.915,54,80,0
96.0,98.155,40,104,0
97.92,98.395,52,80,0
98.16,98.395,39,70,0
98.4,98.635,40,70,0
98.64,98.875,42,70,0
98.88,99.115,40,70,0
99.12,99.355,38,70,0
99.36,99.595,37,70,0
99.6,99.835,35,70,0
99.84,100.075,33,80,0
100.08,100.315,52,80,0
100.32,100.555,49,81,0
100.56,100.795,52,81,0
100.8,101.035,45,82,0
101.04,101.275,52,83,0
101.28,101.515,49,83,0
101.52,101.755,52,84,0
101.76,101.995,47,85,0
102.0,102.235,52,85,0
102.24,102.475,50,86,0
102.48,102.715,52,87,0
102.72,102.955,47,87,0
102.96,103.195,52,88,0
103.2,103.435,49,88,0
103.44,103.675,57,89,0
103.68,103.915,50,90,0
103.92,104.155,59,90,0
104.16,104.395,54,91,0
104.4,104.635,59,92,0
104.64,104.875,52,92,0
104.88,105.115,61,93,0
105.12,105.355,52,94,0
105.36,105.595,62,94,0
105.84,106.075,62,95,0
106.08,106.315,64,96,0
106.32,106.555,62,97,0
105.6,107.035,57,95,0
107.52,107.995,57,120,0
107.52,107.995,52,120,0
107.52,107.995,48,120,0
107.52,107.995,45,120,0
108.0,108.475,57,120,0
108.0,108.475,60,120,0
108.0,108.475,64,120,0
108.96,109.315,60,120,0
108.96,109.315,57,120,0
108.96,109.315,64,120,0
109.32,109.435,64,120,0
109.32,109.435,60,120,0
109.32,109.435,57,120,0
109.44,109.915,59,120,0
109.44,109.915,62,120,0
109.44,109.915,64,120,0
109.92,110.395,59,120,0
109.92,110.395,62,120,0
109.92,110.395,64,120,0
110.88,111.235,59,120,0
110.88,111.235,62,120,0
110.88,111.235,64,120,0
111.24,111.355,59,120,0
111.24,111.355,62,120,0
111.24,111.355,64,120,0
111.36,111.835,60,120,0
111.36,111.835,64,120,0
113.76,114.235,59,120,0
113.76,114.235,53,120,0
113.76,114.235,50,120,0
114.24,114.715,57,120,0
114.24,114.715,60,120,0
114.24,114.715,52,120,0
114.72,115.195,52,120,0
114.72,115.195,59,120,0
114.72,115.195,62,120,0
115.36,115.515,45,120,0
115.52,115.675,46,120,0
115.68,115.835,47,120,0
115.84,115.995,48,120,0
116.0,116.155,49,120,0
116.16,116.315,50,120,0
116.32,116.475,51,120,0
116.48,116.635,52,120,0
116.64,116.795,53,120,0
116.8,116.955,52,120,0
116.96,117.115,45,120,0
117.28,117.435,38,120,0
117.44,117.595,40,120,0
117.6,117.755,41,120,0
117.76,117.915,42,120,0
117.92,118.075,43,120,0
118.08,118.235,44,120,0
118.24,118.395,45,120,0
118.4,118.555,46,120,0
118.56,118.715,47,120,0
118.72,118.875,45,120,0
118.88,119.035,38,120,0
119.2,119.355,31,120,0
119.36,119.515,33,120,0
119.52,119.675,35,120,0
119.68,119.835,36,120,0
119.84,119.995,38,120,0
120.0,120.155,40,120,0
120.16,120.315,41,120,0
120.32,120.475,43,120,0
120.48,120.635,45,120,0
120.64,120.795,47,120,0
120.8,120.955,48,120,0
120.96,121.115,50,120,0
121.12,121.275,52,120,0
121.28,121.435,53,120,0
121.44,121.595,55,120,0
121.6,121.755,57,120,0
121.76,121.915,59,120,0
121.92,122.075,60,120,0
122.08,122.235,59,120,0
122.24,122.395,57,120,0
122.4,122.555,55,120,0
122.56,122.715,53,120,0
122.72,122.875,52,120,0
122.88,123.035,53,120,0
123.04,123.195,55,120,0
123.2,123.355,57,120,0
123.36,123.515,54,120,0
123.52,123.675,55,120,0
123.68,123.835,57,120,0
123.84,123.995,43,120,0
124.0,124.155,48,120,0
124.16,124.315,52,120,0
124.32,124.475,55,120,0
124.48,124.635,53,120,0
124.64,124.795,50,120,0
124.8,124.955,48,120,0
124.96,125.115,55,120,0
125.12,125.275,52,120,0
125.28,125.435,48,120,0
125.44,125.595,43,120,0
125.6,125.755,40,120,0
125.76,126.235,36,120,0
126.72,127.195,57,120,0
126.72,127.195,52,120,0
126.72,127.195,48,120,0
126.72,127.195,45,120,0
127.2,127.675,57,120,0
127.2,127.675,60,120,0
127.2,127.675,64,120,0
128.16,128.515,60,120,0
128.16,128.515,57,120,0
128.16,128.515,64,120,0
128.52,128.635,64,120,0
128.52,128.635,60,120,0
128.52,128.635,57,120,0
128.64,129.115,59,120,0
128.64,129.115,62,120,0
128.64,129.115,64,120,0
129.12,129.595,59,120,0
129.12,129.595,62,120,0
129.12,129.595,64,120,0
130.08,130.435,59,120,0
130.08,130.435,62,120,0
130.08,130.435,64,120,0
130.44,130.555,59,120,0
130.44,130.555,62,120,0
130.44,130.555,64,120,0
130.56,131.035,60,120,0
130.56,131.035,64,120,0
132.96,133.435,59,120,0
132.96,133.435,53,120,0
132.96,133.435,50,120,0
133.44,133.915,57,120,0
133.44,133.915,60,120,0
133.44,133.915,52,120,0
133.92,134.395,52,120,0
133.92,134.395,59,120,0
133.92,134.395,62,120,0
134.56,134.715,45,120,0
134.72,134.875,46,120,0
134.88,135.035,47,120,0
135.04,135.195,48,120,0
135.2,135.355,49,120,0
135.36,135.515,50,120,0
135.52,135.675,51,120,0
135.68,135.835,52,120,0
135.84,135.995,53,120,0
136.0,136.155,52,120,0
136.16,136.315,45,120,0
136.48,136.635,38,120,0
136.64,136.795,40,120,0
136.8,136.955,41,120,0
136.96,137.115,42,120,0
137.12,137.275,43,120,0
137.28,137.435,44,120,0
137.44,137.595,45,120,0
137.6,137.755,46,120,0
137.76,137.915,47,120,0
137.92,138.075,45,120,0
138.08,138.235,38,120,0
138.4,138.555,31,120,0
138.56,138.715,33,120,0
138.72,138.875,35,120,0
138.88,139.035,36,120,0
139.04,139.195,38,120,0
139.2,139.355,40,120,0
139.36,139.515,41,120,0
139.52,139.675,43,120,0
139.68,139.835,45,120,0
139.84,139.995,47,120,0
140.0,140.155,48,120,0
140.16,140.315,50,120,0
140.32,140.475,52,120,0
140.48,140.635,53,120,0
140.64,140.795,55,120,0
140.8,140.955,57,120,0
140.96,141.115,59,120,0
141.12,141.275,60,120,0
141.28,141.435,59,120,0
141.44,141.595,57,120,0
141.6,141.755,55,120,0
141.76,141.915,53,120,0
141.92,142.075,52,120,0
142.08,142.235,53,120,0
142.24,142.395,55,120,0
142.4,142.555,57,120,0
142.56,142.715,54,120,0
142.72,142.875,55,120,0
142.88,143.035,57,120,0
143.04,143.195,43,120,0
143.2,143.355,48,120,0
143.36,143.515,52,120,0
143.52,143.675,55,120,0
143.68,143.835,53,120,0
143.84,143.995,50,120,0
144.0,144.155,48,120,0
144.16,144.315,55,120,0
144.32,144.475,52,120,0
144.48,144.635,48,120,0
144.64,144.795,43,120,0
144.8,144.955,40,120,0
144.96,145.435,36,120,0
145.92,146.395,55,120,0
145.92,146.395,52,120,0
145.92,146.395,48,120,0
148.0,148.155,43,120,0
148.16,148.315,45,120,0
148.32,148.475,46,120,0
148.48,148.635,47,120,0
148.64,148.795,48,120,0
148.8,148.955,49,120,0
148.96,149.115,50,120,0
149.12,149.275,51,120,0
149.28,149.435,52,120,0
149.44,149.595,53,120,0
149.6,149.755,54,120,0
149.76,150.235,55,120,0
149.76,150.715,50,120,0
150.24,150.715,53,120,0
151.84,151.995,45,120,0
152.0,152.155,47,120,0
152.16,152.315,48,120,0
152.32,152.475,49,120,0
152.48,152.635,50,120,0
152.64,152.795,51,120,0
152.8,152.955,52,120,0
152.96,153.115,53,120,0
153.12,153.275,54,120,0
153.28,153.435,55,120,0
153.44,153.595,56,120,0
153.6,154.075,57,120,0
153.6,154.555,52,120,0
154.08,154.555,55,120,0
155.52,156.955,59,120,0
155.52,156.955,57,120,0
155.52,156.955,54,120,0
155.52,156.955,51,120,0
156.96,157.435,59,120,0
156.96,157.435,54,120,0
156.96,157.435,51,120,0
157.44,157.915,59,120,0
157.44,157.915,55,120,0
157.44,157.915,52,120,0
157.92,158.395,57,120,0
157.92,158.395,60,120,0
158.4,158.875,59,120,0
158.88,159.355,57,120,0
158.88,159.355,47,120,0
159.36,159.835,56,120,0
159.36,159.835,52,120,0
161.28,161.755,57,120,0
161.28,161.755,52,120,0
161.28,161.755,48,120,0
161.28,161.755,45,120,0
161.76,162.235,64,120,0
161.76,162.235,60,120,0
161.76,162.235,57,120,0
162.72,163.075,57,120,0
162.72,163.075,52,120,0
162.72,163.075,48,120,0
162.72,163.075,45,120,0
163.08,163.195,57,120,0
163.08,163.195,48,120,0
163.08,163.195,45,120,0
163.08,163.195,52,120,0
163.2,163.675,56,120,0
163.2,163.675,52,120,0
163.2,163.675,50,120,0
163.2,163.675,47,120,0
163.68,164.155,59,120,0
163.68,164.155,62,120,0
163.68,164.155,64,120,0
164.64,164.995,56,120,0
164.64,164.995,52,120,0
164.64,164.995,50,120,0
164.64,164.995,47,120,0
165.0,165.115,56,120,0
165.0,165.115,52,120,0
165.0,165.115,50,120,0
165.0,165.115,47,120,0
165.12,165.595,57,120,0
165.12,165.595,52,120,0
165.12,165.595,48,120,0
165.6,166.075,60,120,0
165.6,166.075,64,120,0
165.6,166.075,69,120,0
167.52,167.995,57,120,0
167.52,167.995,53,120,0
168.0,168.475,57,120,0
168.0,168.475,60,120,0
168.0,168.475,52,120,0
168.48,168.955,52,120,0
168.48,168.955,59,120,0
168.48,168.955,62,120,0
168.96,169.435,57,120,0
168.96,169.435,60,120,0
170.08,170.235,57,120,0
170.24,170.395,55,120,0
170.4,170.555,53,120,0
170.56,170.715,52,120,0
170.72,170.875,50,120,0
170.88,171.355,48,80,0
172.96,173.115,43,80,0
173.12,173.275,45,80,0
173.28,173.435,46,80,0
173.44,173.595,47,80,0
173.6,173.755,48,80,0
173.76,173.915,49,80,0
173.92,174.075,50,80,0
174.08,174.235,51,80,0
174.24,174.395,52,80,0
174.4,174.555,53,80,0
174.56,174.715,54,80,0
174.72,175.195,55,80,0
174.72,175.675,50,80,0
175.2,175.675,53,80,0
176.8,176.955,45,80,0
176.96,177.115,47,80,0
177.12,177.275,48,80,0
177.28,177.435,49,80,0
177.44,177.595,50,80,0
177.6,177.755,51,80,0
177.76,177.915,52,80,0
177.92,178.075,53,80,0
178.08,178.235,54,80,0
178.24,178.395,55,80,0
178.4,178.555,56,80,0
178.56,179.035,57,80,0
178.56,179.515,52,80,0
179.04,179.515,55,82,0
180.48,181.915,59,90,0
180.48,181.915,57,90,0
180.48,181.915,54,90,0
180.48,181.915,51,90,0
181.92,182.395,59,98,0
181.92,182.395,54,98,0
181.92,182.395,51,98,0
182.4,182.875,59,100,0
182.4,182.875,55,100,0
182.4,182.875,52,100,0
182.88,183.355,57,101,0
182.88,183.355,60,101,0
183.36,183.835,59,103,0
183.84,184.315,57,105,0
183.84,184.315,47,105,0
184.32,184.795,56,107,0
184.32,184.795,52,107,0
186.24,186.715,57,120,0
186.24,186.715,52,120,0
186.24,186.715,48,120,0
186.24,186.715,45,120,0
186.72,187.195,64,120,0
186.72,187.195,60,120,0
186.72,187.195,57,120,0
187.68,188.035,57,120,0
187.68,188.035,52,120,0
187.68,188.035,48,120,0
187.68,188.035,45,120,0
188.04,188.155,57,120,0
188.04,188.155,48,120,0
188.04,188.155,45,120,0
188.04,188.155,52,120,0
188.16,188.635,56,120,0
188.16,188.635,52,120,0
188.16,188.635,50,120,0
188.16,188.635,47,120,0
188.64,189.115,59,120,0
188.64,189.115,62,120,0
188.64,189.115,64,120,0
189.6,189.955,56,120,0
189.6,189.955,52,120,0
189.6,189.955,50,120,0
189.6,189.955,47,120,0
189.96,190.075,56,120,0
189.96,190.075,52,120,0
189.96,190.075,50,120,0
189.96,190.075,47,120,0
190.08,190.555,57,120,0
190.08,190.555,52,120,0
190.08,190.555,48,120,0
190.56,191.035,60,120,0
190.56,191.035,64,120,0
190.56,191.035,69,120,0
192.0,193.915,65,120,0
192.0,193.915,69,120,0
192.96,193.915,75,120,0
194.08,194.235,64,70,0
194.24,194.395,65,70,0
194.4,194.555,66,70,0
194.56,194.715,67,70,0
194.72,194.875,68,70,0
194.88,195.035,69,70,0
195.04,195.195,70,70,0
195.2,195.355,71,70,0
195.36,195.515,72,70,0
195.52,195.675,71,70,0
195.68,195.835,64,70,0
196.0,196.155,66,70,0
196.16,196.315,67,70,0
196.32,196.475,69,70,0
196.48,196.635,70,70,0
196.64,196.795,71,70,0
196.8,196.955,72,70,0
196.96,197.115,69,70,0
197.12,197.275,66,70,0
197.28,197.435,72,70,0
197.44,197.595,69,70,0
197.6,197.755,66,70,0
197.92,198.075,68,70,0
198.08,198.235,69,70,0
198.24,198.395,71,70,0
198.4,198.555,72,70,0
198.56,198.715,73,70,0
198.72,198.875,74,70,0
198.88,199.035,75,70,0
199.04,199.195,76,70,0
199.2,199.355,77,70,0
199.36,199.515,78,70,0
199.52,199.675,79,70,0
209.49725,209.61226,33,80,0
209.55725,209.67226,35,80,0
209.61726,209.73225,37,80,0
209.67726,209.79225,38,80,0
209.73726,209.85226,40,80,0
209.79726,209.91226,42,80,0
209.85725,209.97226,44,80,0
209.91725,210.03226,45,80,0
209.97726,210.09225,47,80,0
210.03726,210.15225,49,80,0
210.09726,210.21225,50,80,0
210.15726,210.27226,52,80,0
210.21725,210.33226,54,80,0
210.27725,210.39226,56,80,0
210.33725,210.45226,57,80,0
210.39726,210.51225,59,80,0
211.41725,211.65225,59,80,0
211.65726,211.89226,64,80,0
211.89726,212.13226,62,80,0
212.13725,212.37225,64,80,0
212.37726,212.61226,59,80,0
212.61726,212.85226,64,80,0
212.85725,213.09225,62,80,0
213.09726,213.33226,64,80,0
213.33725,213.57225,61,80,0
213.57726,213.81226,57,80,0
213.81726,214.05226,56,80,0
214.05725,214.29225,52,80,0
214.29726,214.53226,57,80,0
214.53726,214.77226,64,80,0
214.77725,215.01225,54,80,0
215.01726,215.25226,57,80,0
215.25726,215.49226,52,80,0
215.49725,215.73225,61,80,0
215.73726,215.97226,57,80,0
215.97726,216.21225,61,80,0
216.21725,216.45226,52,80,0
216.45726,216.69226,56,80,0
216.69725,216.93225,50,80,0
216.93726,217.17226,56,80,0
217.17726,217.41226,49,80,0
217.41725,217.65225,57,80,0
217.65726,217.89226,52,80,0
217.89726,218.13226,57,80,0
218.13725,218.37225,47,80,0
218.37726,218.61226,56,80,0
218.61726,218.85226,52,80,0
218.85725,219.09225,54,80,0
219.09726,219.33226,46,80,0
219.33725,219.57225,54,80,0
219.57726,219.81226,52,80,0
219.81726,220.05226,54,80,0
220.05725,220.29225,49,80,0
220.29726,220.53226,58,80,0
220.53726,220.77226,52,80,0
220.77725,221.01225,58,80,0
221.01726,221.25226,52,80,0
221.25726,221.49226,59,80,0
221.49725,221.73225,56,80,0
221.73726,221.97226,59,80,0
221.97726,222.21225,54,80,0
221.01726,222.45226,47,80,0
222.21725,222.45226,59,80,0
222.45726,222.69226,57,80,0
222.45726,222.93225,47,80,0
222.69725,222.93225,59,80,0
223.17726,223.41226,57,80,0
223.41725,223.65225,59,80,0
223.65726,223.89226,57,80,0
222.93726,224.37225,52,80,0
223.89726,224.37225,56,80,0
226.05725,226.17226,57,80,0
226.17726,226.29225,56,80,0
226.29726,226.41226,57,80,0
226.41725,226.53226,59,80,0
226.53726,226.65225,61,80,0
226.65726,226.77226,63,80,0
227.01726,227.13226,51,80,0
224.85725,227.25226,52,100,0
227.13725,227.25226,52,80,0
227.25726,227.37225,54,80,0
227.37726,227.49226,52,80,0
227.49725,227.61226,51,80,0
227.61726,227.73225,52,80,0
227.73726,229.89226,40,100,0
229.89726,230.01225,42,80,0
230.01726,230.13226,44,80,0
230.13725,230.25226,45,80,0
230.25726,230.37225,47,80,0
230.37726,230.49226,49,80,0
230.49725,230.61226,51,80,0
230.61726,230.73225,52,80,0
230.73726,230.85226,54,80,0
230.85725,230.97226,56,80,0
230.97726,231.09225,57,80,0
231.09726,231.21225,59,80,0
231.21725,231.33226,57,80,0
231.33725,231.45226,56,80,0
231.45726,231.57225,54,80,0
231.57726,231.69226,52,80,0
231.69725,231.81226,54,80,0
231.81726,231.93225,52,80,0
231.93726,232.05226,50,80,0
232.05725,232.17226,49,80,0
232.17726,232.29225,50,80,0
232.29726,232.41226,49,80,0
232.41725,232.53226,47,80,0
232.53726,232.77226,45,80,0
232.77725,233.01225,52,80,0
233.01726,233.25226,49,80,0
233.25726,233.49226,52,80,0
233.49725,233.73225,45,80,0
233.73726,233.97226,52,80,0
233.97726,234.21225,49,80,0
234.21725,234.45226,52,80,0
234.45726,234.69226,47,80,0
234.69725,234.93225,52,80,0
234.93726,235.17226,50,80,0
235.17726,235.41226,52,80,0
235.41725,235.65225,47,80,0
235.65726,235.89226,52,80,0
235.89726,236.13226,49,80,0
236.13725,236.37225,57,80,0
236.37726,236.61226,50,80,0
236.61726,236.85226,59,80,0
236.85725,237.09225,54,80,0
237.09726,237.33226,59,80,0
237.33725,237.57225,52,80,0
237.57726,237.81226,61,80,0
237.81726,238.05226,52,80,0
238.05725,238.29225,62,80,0
238.53726,238.77226,62,80,0
238.77725,239.01225,64,80,0
239.01726,239.25226,62,80,0
238.29726,239.73225,57,80,0
239.25726,239.73225,61,80,0
240.69725,240.81226,59,80,0
240.81726,240.93225,62,80,0
240.93726,241.05226,64,80,0
241.05725,241.17226,62,80,0
241.17726,241.65225,59,80,0
242.61726,242.73225,61,80,0
242.73726,242.85226,64,80,0
242.85725,242.97226,69,80,0
242.97726,243.09225,64,80,0
243.09726,243.57225,61,80,0
244.05725,244.53226,62,100,0
244.05725,244.53226,66,100,0
245.01726,245.49226,62,100,0
245.01726,245.49226,59,100,0
245.01726,245.49226,52,100,0
245.97726,246.45226,57,100,0
248.37726,248.49226,71,80,0
248.49725,248.61226,74,80,0
248.61726,248.73225,76,80,0
248.73726,248.85226,74,80,0
248.85725,249.33226,71,80,0
250.29726,250.41226,73,80,0
250.41725,250.53226,76,80,0
250.53726,250.65225,81,80,0
250.65726,250.77226,76,80,0
250.77725,251.25226,73,80,0
251.73726,252.21225,66,100,0
251.73726,252.21225,69,100,0
252.69725,253.17226,54,100,0
252.69725,253.17226,57,100,0
253.65726,253.77226,52,100,0
253.77725,253.89226,64,100,0
253.89726,254.01225,54,100,0
254.01726,254.13226,64,100,0
254.13725,254.25226,56,100,0
254.25726,254.37225,64,100,0
254.37726,254.49226,57,100,0
254.49725,254.61226,64,100,0
254.61726,254.73225,59,100,0
254.73726,254.85226,64,100,0
254.85725,254.97226,61,100,0
254.97726,255.09225,64,100,0
255.09726,255.21225,63,100,0
255.21725,255.33226,64,100,0
255.33725,255.45226,66,100,0
255.45726,255.57225,64,100,0
255.57726,255.69226,62,100,0
255.69725,255.81226,64,100,0
255.81726,255.93225,59,100,0
255.93726,256.05225,64,100,0
256.05725,256.17227,56,100,0
256.17725,256.29227,64,100,0
256.29727,256.41226,52,100,0
256.41727,256.53226,64,100,0
256.53726,256.65225,50,100,0
256.65726,256.77225,64,100,0
256.77725,256.89224,52,100,0
256.89725,257.01227,64,100,0
257.01724,257.13226,50,100,0
257.13727,257.25226,64,100,0
257.25726,257.37225,52,100,0
257.37726,257.49225,64,100,0
257.49725,257.61224,49,100,0
257.61725,257.73227,64,100,0
257.73724,257.85226,52,100,0
257.85727,257.97226,64,100,0
257.97726,258.09225,57,100,0
258.09726,258.21225,64,100,0
258.21725,258.33224,61,100,0
258.33725,258.45227,64,100,0
258.45724,258.57227,57,100,0
258.57727,258.69226,64,100,0
258.69727,258.81226,61,100,0
258.81726,258.93225,64,100,0
258.93726,259.05225,57,100,0
259.05725,259.17227,64,100,0
259.17725,259.29227,61,100,0
259.29727,259.41226,64,100,0
259.41727,259.53226,62,100,0
259.53726,259.65225,64,100,0
259.65726,259.77225,59,100,0
259.77725,259.89224,64,100,0
259.89725,260.01227,56,100,0
260.01724,260.13226,64,100,0
260.13727,260.25226,52,100,0
260.25726,260.37225,64,100,0
260.37726,260.49225,50,100,0
260.49725,260.61224,64,100,0
260.61725,260.73227,52,100,0
260.73724,260.85226,64,100,0
260.85727,260.97226,50,100,0
260.97726,261.09225,64,100,0
261.09726,261.21225,52,100,0
261.21725,261.33224,64,100,0
261.33725,261.45227,49,100,0
261.45724,261.57227,64,100,0
261.57727,261.69226,52,100,0
261.69727,261.81226,64,100,0
261.81726,261.93225,57,100,0
261.93726,262.05225,64,100,0
262.05725,262.17227,61,100,0
262.17725,262.29227,64,100,0
262.29727,262.41226,57,100,0
262.41727,262.53226,64,100,0
262.53726,262.65225,61,100,0
262.65726,262.77225,64,100,0
262.77725,262.89224,57,100,0
262.89725,263.01227,64,100,0
263.01724,263.13226,61,100,0
263.13727,263.25226,64,100,0
263.25726,263.37225,62,100,0
263.37726,263.49225,64,100,0
263.49725,263.61224,59,100,0
263.61725,263.73227,64,100,0
263.73724,263.85226,56,100,0
263.85727,263.97226,64,100,0
263.97726,264.09225,52,100,0
264.09726,264.21225,64,100,0
264.21725,264.33224,50,100,0
264.33725,264.45227,64,100,0
264.45724,264.57227,52,100,0
264.57727,264.69226,64,100,0
264.69727,264.81226,50,100,0
264.81726,264.93225,64,100,0
264.93726,265.05225,52,100,0
265.05725,265.17227,64,100,0
265.17725,265.29227,49,100,0
265.29727,265.41226,64,100,0
265.41727,265.53226,52,100,0
265.53726,265.65225,64,100,0
265.65726,265.77225,49,100,0
265.77725,265.89224,64,100,0
265.89725,266.01227,52,100,0
266.01724,266.13226,64,100,0
266.13727,266.25226,48,100,0
266.25726,266.37225,64,100,0
266.37726,266.49225,50,100,0
266.49725,266.61224,64,100,0
266.61725,266.73227,48,100,0
266.73724,266.85226,64,100,0
266.85727,266.97226,50,100,0
266.97726,267.09225,64,100,0
267.09726,267.21225,47,100,0
267.21725,267.33224,62,100,0
267.33725,267.45227,50,100,0
267.45724,267.57227,62,100,0
267.57727,267.69226,47,100,0
267.69727,267.81226,62,100,0
267.81726,267.93225,50,100,0
267.93726,268.05225,62,100,0
268.05725,268.17227,47,100,0
268.17725,268.29227,61,100,0
268.29727,268.41226,49,100,0
268.41727,268.53226,61,100,0
268.53726,268.65225,47,100,0
268.65726,268.77225,61,100,0
268.77725,268.89224,49,100,0
268.89725,269.01227,61,100,0
269.01724,269.13226,46,100,0
269.13727,269.25226,61,100,0
269.25726,269.37225,49,100,0
269.37726,269.49225,61,100,0
269.49725,269.61224,46,100,0
269.61725,269.73227,61,100,0
269.73724,269.85226,49,100,0
269.85727,269.97226,61,100,0
269.97726,270.09225,45,100,0
270.09726,270.21225,59,100,0
270.21725,270.33224,47,100,0
270.33725,270.45227,59,100,0
270.45724,270.57227,45,100,0
270.57727,270.69226,59,100,0
270.69727,270.81226,47,100,0
270.81726,270.93225,59,100,0
270.93726,271.05225,44,100,0
271.05725,271.17227,59,100,0
271.17725,271.29227,47,100,0
271.29727,271.41226,59,100,0
271.41727,271.53226,44,100,0
271.53726,271.65225,59,100,0
271.65726,271.77225,47,100,0
271.77725,271.89224,59,100,0
271.89725,272.01227,43,100,0
272.01724,272.13226,57,100,0
272.13727,272.25226,45,100,0
272.25726,272.37225,57,100,0
272.37726,272.49225,43,100,0
272.49725,272.61224,57,100,0
272.61725,272.73227,45,100,0
272.73724,272.85226,57,100,0
272.85727,272.97226,42,100,0
272.97726,273.09225,57,100,0
273.09726,273.21225,45,100,0
273.21725,273.33224,57,100,0
273.33725,273.45227,42,100,0
273.45724,273.57227,57,100,0
273.57727,273.69226,45,100,0
273.69727,273.81226,57,100,0
273.81726,273.93225,38,100,0
273.93726,274.05225,57,100,0
274.05725,274.17227,45,100,0
274.17725,274.29227,57,100,0
274.29727,274.41226,39,100,0
274.41727,274.53226,57,100,0
274.53726,274.65225,45,100,0
274.65726,274.77225,57,100,0
274.77725,274.89224,40,100,0
274.89725,275.01227,45,100,0
275.01724,275.13226,49,100,0
275.13727,275.25226,52,100,0
275.25726,275.37225,40,100,0
275.37726,275.49225,45,100,0
275.49725,275.61224,49,100,0
275.61725,275.73227,52,100,0
275.73724,275.85226,40,100,0
275.85727,275.97226,47,100,0
275.97726,276.09225,50,100,0
276.09726,276.21225,52,100,0
276.21725,276.33224,40,100,0
276.33725,276.45227,47,100,0
276.45724,276.57227,50,100,0
276.57727,276.69226,52,100,0
276.77725,276.93225,45,80,0
276.85727,277.01227,49,80,0
276.93726,277.09225,52,80,0
277.01724,277.17227,57,80,0
277.09726,277.25226,61,80,0
277.65726,277.89224,57,80,0
277.89725,278.13226,64,80,0
278.13727,278.37225,61,80,0
278.37726,278.61224,64,80,0
278.61725,278.85226,59,80,0
278.85727,279.09225,64,80,0
279.09726,279.33224,62,80,0
279.33725,279.57227,64,80,0
279.57727,279.81226,59,80,0
279.81726,280.05225,64,80,0
280.05725,280.29227,62,80,0
280.29727,280.53226,64,80,0
280.53726,280.77225,61,80,0
280.77725,281.01227,64,80,0
281.01724,281.25226,56,80,0
281.25726,281.49225,64,80,0
281.49725,281.73227,57,80,0
281.73724,281.97226,64,80,0
281.97726,282.21225,54,80,0
282.21725,282.45227,57,80,0
282.45724,282.69226,52,80,0
282.69727,282.93225,61,80,0
282.93726,283.17227,57,80,0
283.17725,283.41226,61,80,0
283.41727,283.65225,52,80,0
283.65726,283.89224,56,80,0
283.89725,284.13226,50,80,0
284.13727,284.37225,56,80,0
284.37726,284.61224,49,80,0
284.61725,284.85226,57,80,0
284.85727,285.09225,52,80,0
285.09726,285.33224,57,80,0
285.33725,285.57227,49,80,0
285.57727,285.81226,57,80,0
285.81726,286.05225,52,80,0
286.05725,286.29227,57,80,0
286.29727,286.53226,49,80,0
286.53726,286.77225,58,80,0
286.77725,287.01227,52,80,0
287.01724,287.25226,58,80,0
287.25726,287.49225,48,80,0
287.49725,287.73227,58,80,0
287.73724,287.97226,52,80,0
287.97726,288.21225,58,80,0
288.21725,288.45227,48,80,0
288.45724,288.69226,57,80,0
288.69727,288.93225,53,80,0
288.93726,289.17227,57,80,0
289.17725,289.41226,48,80,0
289.41727,289.65225,57,80,0
289.65726,289.89224,53,80,0
289.89725,290.13226,57,80,0
290.13727,290.37225,48,80,0
290.37726,290.61224,58,80,0
290.61725,290.85226,55,80,0
290.85727,291.09225,58,80,0
291.09726,291.33224,48,80,0
291.33725,291.57227,58,80,0
291.57727,291.81226,52,80,0
291.81726,292.05225,58,80,0
292.05725,292.29227,48,80,0
292.29727,292.53226,57,80,0
292.53726,292.77225,53,80,0
292.77725,293.01227,57,80,0
293.01724,293.25226,48,80,0
293.25726,293.49225,57,80,0
293.49725,293.73227,53,80,0
293.73724,293.97226,57,80,0
293.97726,294.21225,48,80,0
294.21725,294.45227,58,80,0
294.45724,294.69226,55,80,0
294.69727,294.93225,58,80,0
294.93726,295.17227,48,80,0
295.17725,295.41226,58,80,0
295.41727,295.65225,52,80,0
295.65726,295.89224,58,80,0
295.89725,296.13226,49,80,0
296.13727,296.37225,58,82,0
296.37726,296.61224,52,85,0
296.61725,296.85226,58,88,0
296.85727,297.09225,49,91,0
297.09726,297.33224,58,94,0
297.33725,297.57227,52,97,0
297.57727,297.81226,58,99,0
297.81726,298.05225,50,90,0
298.05725,298.29227,59,88,0
298.29727,298.53226,54,85,0
298.53726,298.77225,59,82,0
298.77725,299.01227,50,79,0
299.01724,299.25226,59,76,0
299.25726,299.49225,54,73,0
299.49725,299.73227,59,71,0
299.73724,299.97226,52,70,0
299.97726,300.21225,61,70,0
300.21725,300.45227,57,70,0
300.45724,300.69226,61,70,0
300.69727,300.93225,52,70,0
300.93726,301.17227,62,70,0
301.17725,301.41226,56,70,0
301.41727,301.65225,62,70,0
301.65726,302.13226,57,70,0
301.65726,302.13226,61,70,0
302.13727,302.29227,33,100,0
302.21725,302.37225,37,100,0
302.29727,302.45227,40,100,0
302.37726,302.53226,45,100,0
302.45724,302.61224,49,100,0
302.53726,302.61224,52,100,0
302.61725,303.09225,57,100,0
303.09726,303.57227,57,100,0
303.57727,303.81226,64,100,0
303.57727,303.81226,62,100,0
303.57727,303.81226,59,100,0
303.57727,304.05225,56,100,0
303.81726,304.05225,64,100,0
303.81726,304.05225,62,100,0
303.81726,304.05225,59,100,0
304.05725,304.29227,62,100,0
304.05725,304.29227,59,100,0
304.05725,304.29227,64,100,0
304.29727,304.53226,64,100,0
304.29727,304.53226,62,100,0
304.29727,304.53226,59,100,0
304.53726,304.77225,64,100,0
304.53726,304.77225,59,100,0
304.53726,304.77225,56,100,0
304.77725,305.01227,64,100,0
304.77725,305.01227,59,100,0
304.77725,305.01227,56,100,0
305.01724,305.25226,64,100,0
305.01724,305.25226,59,100,0
305.01724,305.25226,56,100,0
305.25726,305.49225,64,100,0
305.25726,305.49225,59,100,0
305.25726,305.49225,56,100,0
305.49725,305.73227,64,100,0
305.49725,305.73227,61,100,0
305.49725,305.73227,57,100,0
305.73724,305.97226,64,100,0
305.73724,305.97226,61,100,0
305.73724,305.97226,57,100,0
305.97726,306.13226,33,100,0
306.05725,306.21225,37,100,0
306.13727,306.29227,40,100,0
306.21725,306.37225,45,100,0
306.29727,306.45227,49,100,0
306.37726,306.45227,52,100,0
306.45724,306.93225,57,100,0
306.93726,307.41226,57,100,0
307.41727,307.65225,64,100,0
307.41727,307.65225,62,100,0
307.41727,307.65225,59,100,0
307.41727,307.89224,56,100,0
307.65726,307.89224,64,100,0
307.65726,307.89224,62,100,0
307.65726,307.89224,59,100,0
307.89725,308.13226,62,100,0
307.89725,308.13226,59,100,0
307.89725,308.13226,64,100,0
308.13727,308.37225,64,100,0
308.13727,308.37225,62,100,0
308.13727,308.37225,59,100,0
308.37726,308.61224,64,100,0
308.37726,308.61224,59,100,0
308.37726,308.61224,56,100,0
308.61725,308.85226,64,100,0
308.61725,308.85226,59,100,0
308.61725,308.85226,56,100,0
308.85727,309.09225,64,100,0
308.85727,309.09225,59,100,0
308.85727,309.09225,56,100,0
309.09726,309.33224,64,100,0
309.09726,309.33224,59,100,0
309.09726,309.33224,56,100,0
309.33725,309.57227,64,100,0
309.33725,309.57227,61,100,0
309.33725,309.57227,57,100,0
309.57727,309.81226,64,100,0
309.57727,309.81226,61,100,0
309.57727,309.81226,57,100,0
309.81726,309.97226,33,100,0
309.89725,310.05225,37,100,0
309.97726,310.13226,40,100,0
310.05725,310.21225,45,100,0
310.13727,310.29227,49,100,0
310.21725,310.29227,52,100,0
310.29727,310.77225,57,100,0
310.77725,311.25226,57,100,0
311.25726,311.49225,57,100,0
311.25726,311.49225,55,100,0
311.49725,311.73227,57,100,0
311.49725,311.73227,55,100,0
311.73724,311.97226,57,100,0
311.73724,311.97226,55,100,0
311.97726,312.21225,57,100,0
311.97726,312.21225,55,100,0
312.21725,312.45227,55,100,0
312.21725,312.45227,57,100,0
312.21725,312.45227,61,100,0
312.45724,312.69226,55,100,0
312.45724,312.69226,57,100,0
312.45724,312.69226,61,100,0
312.69727,312.93225,55,100,0
312.69727,312.93225,57,100,0
312.69727,312.93225,61,100,0
312.93726,313.17227,55,100,0
312.93726,313.17227,57,100,0
312.93726,313.17227,61,100,0
313.17725,313.41226,54,100,0
313.17725,313.41226,57,100,0
313.41727,313.65225,54,100,0
313.41727,313.65225,57,100,0
313.65726,313.89224,54,100,0
313.65726,313.89224,57,100,0
313.89725,314.13226,54,100,0
313.89725,314.13226,57,100,0
314.13727,314.37225,53,100,0
314.13727,314.37225,57,100,0
314.37726,314.61224,53,100,0
314.37726,314.61224,57,100,0
314.61725,314.85226,53,100,0
314.61725,314.85226,57,100,0
314.85727,315.09225,53,100,0
314.85727,315.09225,57,100,0
315.09726,315.33224,52,100,0
315.33725,315.57227,52,100,0
315.57727,315.81226,40,100,0
315.81726,316.05225,52,100,0
316.05725,316.29227,40,100,0
316.29727,316.53226,52,100,0
316.53726,316.77225,40,100,0
316.77725,317.01227,52,100,0
317.01724,317.25226,45,100,0
317.25726,317.49225,57,100,0
317.49725,317.73227,57,100,0
317.73724,317.97226,57,100,0
317.97726,318.21225,55,100,0
317.97726,318.21225,57,100,0
317.97726,318.21225,61,100,0
318.21725,318.45227,55,100,0
318.21725,318.45227,57,100,0
318.21725,318.45227,61,100,0
318.45724,318.69226,55,100,0
318.45724,318.69226,57,100,0
318.45724,318.69226,61,100,0
318.69727,318.93225,55,100,0
318.69727,318.93225,57,100,0
318.69727,318.93225,61,100,0
318.93726,319.17227,54,110,0
318.93726,319.17227,57,110,0
319.17725,319.41226,54,110,0
319.17725,319.41226,57,110,0
319.41727,319.65225,54,110,0
319.41727,319.65225,57,110,0
319.65726,319.89224,54,110,0
319.65726,319.89224,57,110,0
319.89725,320.13226,54,110,0
319.89725,320.13226,57,110,0
320.13727,320.37225,54,110,0
320.13727,320.37225,57,110,0
320.37726,320.61224,54,110,0
320.37726,320.61224,57,110,0
320.61725,320.85226,54,110,0
320.61725,320.85226,57,110,0
320.85727,321.09225,60,110,0
320.85727,321.09225,57,110,0
320.85727,321.09225,53,110,0
321.09726,321.33224,60,110,0
321.09726,321.33224,57,110,0
321.09726,321.33224,53,110,0
321.33725,321.57227,60,110,0
321.33725,321.57227,57,110,0
321.33725,321.57227,53,110,0
321.57727,321.81226,60,110,0
321.57727,321.81226,57,110,0
321.57727,321.81226,53,110,0
321.81726,322.05225,60,110,0
321.81726,322.05225,57,110,0
321.81726,322.05225,53,110,0
322.05725,322.29227,60,110,0
322.05725,322.29227,57,110,0
322.05725,322.29227,53,110,0
322.29727,322.53226,60,110,0
322.29727,322.53226,53,110,0
322.29727,322.53226,63,110,0
322.53726,322.77225,60,110,0
322.53726,322.77225,53,110,0
322.53726,322.77225,63,110,0
322.77725,323.73227,58,110,0
322.77725,323.73227,62,110,0
322.77725,324.69226,53,110,0
323.73724,324.69226,60,112,0
323.73724,324.69226,63,112,0
324.69727,325.65225,62,115,0
324.69727,325.65225,58,115,0
324.69727,325.65225,53,115,0
325.65726,326.61224,51,117,0
325.65726,326.61224,48,117,0
325.65726,326.61224,41,117,0
326.61725,328.05225,50,120,0
326.61725,328.05225,46,120,0
326.61725,328.05225,41,120,0
328.05725,328.41226,50,120,0
328.05725,328.41226,46,120,0
328.05725,328.41226,41,120,0
328.41727,328.53226,50,120,0
328.41727,328.53226,46,120,0
328.41727,328.53226,41,120,0
328.53726,329.97226,51,120,0
328.53726,329.97226,48,120,0
328.53726,329.97226,41,120,0
329.97726,330.33224,51,120,0
329.97726,330.33224,48,120,0
329.97726,330.33224,41,120,0
330.33725,330.45227,51,120,0
330.33725,330.45227,48,120,0
330.33725,330.45227,41,120,0
330.45724,331.89224,50,120,0
330.45724,331.89224,46,120,0
330.45724,331.89224,41,120,0
331.89725,332.25226,50,120,0
331.89725,332.25226,46,120,0
331.89725,332.25226,41,120,0
332.25726,332.37225,50,120,0
332.25726,332.37225,46,120,0
332.25726,332.37225,41,120,0
332.37726,333.81226,50,120,0
332.37726,333.81226,48,120,0
332.37726,333.81226,45,120,0
332.37726,333.81226,42,120,0
333.81726,334.17227,50,120,0
333.81726,334.17227,48,120,0
333.81726,334.17227,45,120,0
333.81726,334.17227,42,120,0
334.17725,334.29227,50,120,0
334.17725,334.29227,48,120,0
334.17725,334.29227,45,120,0
334.17725,334.29227,42,120,0
334.29727,334.77225,52,120,0
334.29727,334.77225,47,120,0
334.29727,334.77225,44,120,0
334.29727,334.77225,40,120,0
334.77725,335.25226,59,120,0
334.77725,335.25226,56,120,0
334.77725,335.25226,52,120,0
335.73724,336.09225,59,120,0
335.73724,336.09225,56,120,0
335.73724,336.09225,52,120,0
336.09726,336.21225,59,120,0
336.09726,336.21225,56,120,0
336.09726,336.21225,52,120,0
336.21725,336.69226,60,120,0
336.21725,336.69226,57,120,0
336.21725,336.69226,52,120,0
336.69727,337.17227,60,120,0
336.69727,337.17227,57,120,0
336.69727,337.17227,52,120,0
337.65726,338.01227,60,120,0
337.65726,338.01227,57,120,0
337.65726,338.01227,52,120,0
338.01724,338.13226,60,120,0
338.01724,338.13226,57,120,0
338.01724,338.13226,52,120,0
338.13727,338.61224,62,120,0
338.13727,338.61224,59,120,0
338.13727,338.61224,52,120,0
338.61725,339.09225,62,120,0
338.61725,339.09225,59,120,0
338.61725,339.09225,52,120,0
339.57727,339.93225,62,120,0
339.57727,339.93225,59,120,0
339.57727,339.93225,52,120,0
339.93726,340.05225,62,120,0
339.93726,340.05225,59,120,0
339.93726,340.05225,52,120,0
340.05725,340.53226,64,120,0
340.05725,340.53226,61,120,0
340.05725,340.53226,52,120,0
340.53726,341.01227,64,120,0
340.53726,341.01227,61,120,0
340.53726,341.01227,52,120,0
341.49725,341.85226,64,120,0
341.49725,341.85226,61,120,0
341.49725,341.85226,52,120,0
341.85727,341.97226,64,120,0
341.85727,341.97226,61,120,0
341.85727,341.97226,52,120,0
341.97726,342.45227,59,120,0
341.97726,342.45227,62,120,0
341.97726,342.45227,56,120,0
341.97726,342.45227,52,120,0
349.9971,350.1546,33,80,0
350.0784,350.2359,37,80,0
350.1597,350.3172,40,80,0
350.241,350.3985,45,80,0
350.3223,350.47983,49,80,0
350.4036,350.56113,52,80,0
350.4849,350.60178,57,80,0
350.9727,351.21152,57,80,0
351.2166,351.4554,64,80,0
351.4605,351.6993,61,80,0
351.7044,351.94324,64,80,0
351.9483,352.18713,59,80,0
352.1922,352.43103,64,80,0
352.4361,352.67493,62,80,0
352.68002,352.91882,64,80,0
352.92392,353.16272,59,80,0
353.16782,353.40665,64,80,0
353.4117,353.65054,62,80,0
353.6556,353.89444,64,80,0
353.89954,354.13834,61,80,0
354.02148,354.26028,64,80,0
354.38733,354.62616,56,80,0
354.63123,354.87006,52,80,0
354.87512,355.11395,57,80,0
355.11902,355.35785,64,80,0
355.36295,355.60175,54,80,0
355.60684,355.84564,57,80,0
355.85074,356.08957,52,80,0
356.09464,356.33347,61,80,0
356.33853,356.57736,57,80,0
356.58246,356.82126,61,80,0
356.82635,357.06516,52,80,0
357.07025,357.30908,56,80,0
357.31415,357.55298,50,80,0
357.55804,357.79688,56,80,0
357.80194,358.04077,49,80,0
358.04587,358.28467,57,80,0
358.28976,358.52856,52,80,0
358.53366,358.7725,57,80,0
358.77756,359.0164,49,80,0
359.02145,359.26028,57,80,0
359.26538,359.50418,49,80,0
359.50928,359.74808,58,80,0
359.75317,359.992,50,80,0
359.99707,360.2359,58,80,0
360.24097,360.4798,52,80,0
360.48486,360.7237,58,80,0
360.7288,360.9676,50,80,0
360.9727,361.2115,59,80,0
361.21658,361.4554,54,80,0
361.46048,361.6993,59,80,0
361.70438,361.9432,52,80,0
361.9483,362.1871,61,80,0
362.1922,362.431,57,80,0
362.4361,362.67493,61,80,0
362.68,362.91882,52,80,0
362.9239,363.16272,62,80,0
363.1678,363.40662,59,80,0
363.4117,363.6505,62,80,0
363.6556,363.8944,57,80,0
363.8995,364.13834,64,80,0
364.1434,364.38223,61,80,0
364.3873,364.62613,64,80,0
364.6312,364.87003,57,80,0
364.87512,365.11392,64,80,0
365.11902,365.35785,61,80,0
365.3629,365.60175,64,80,0
365.6068,365.84564,59,80,0
365.8507,366.08954,64,80,0
366.09464,366.33344,62,80,0
366.33853,366.57733,64,80,0
366.58243,366.82126,52,80,0
366.82632,367.06516,64,80,0
367.07022,367.30905,62,80,0
367.31412,367.55295,64,80,0
367.55804,367.79684,57,80,0
367.80194,368.04077,64,80,0
368.04584,368.28467,61,80,0
368.28973,368.52856,64,80,0
368.53363,368.77246,57,80,0
368.77756,369.01636,64,80,0
369.02145,369.26025,61,80,0
369.26535,369.50418,64,80,0
369.50925,369.74808,59,80,0
369.75314,369.99197,64,80,0
369.99704,370.23587,62,80,0
370.24097,370.47977,64,80,0
370.48486,370.7237,52,80,0
370.72876,370.9676,64,80,0
370.97266,371.2115,62,80,0
371.21655,371.45538,64,80,0
371.46048,371.94318,57,80,0
371.46048,371.94318,61,80,0
375.53275,378.19247,50,80,0
375.53275,378.19247,47,80,0
375.53275,378.19247,40,80,0
378.1994,379.4762,33,80,0
379.4851,381.34448,37,80,0
379.8601,381.34448,40,80,0
380.6101,383.59448,45,80,0
