start_time,end_time,note_value,velocity,instrument_program_number
0.0,0.9277344,45,60,42
0.9375,1.8652344,52,60,42
1.875,3.2714844,54,60,42
3.28125,3.7402344,49,60,42
3.75,4.2089844,52,60,42
4.21875,4.6777344,50,60,42
4.6875,5.1464844,49,60,42
5.15625,5.3808594,50,60,42
5.390625,5.6152344,47,60,42
5.625,6.5527344,45,60,42
6.5625,7.036289,44,60,42
7.04637,7.5359535,40,60,42
7.54637,8.0359535,45,60,42
8.04637,8.5359535,42,60,42
8.54637,9.070923,37,60,42
9.082084,9.669584,39,60,42
9.682084,18.272486,40,85,42
18.281675,18.713661,40,80,42
18.722853,19.154837,40,85,42
19.164028,19.623013,40,91,42
19.632778,20.122362,40,98,42
20.132778,20.67676,40,104,42
20.688334,22.89898,40,110,42
35.09711,35.556095,52,70,42
35.56586,36.024845,57,70,42
36.03461,36.493595,54,70,42
36.50336,36.984917,49,70,42
36.995163,37.510513,51,70,42
37.521477,38.963646,52,70,42
38.97284,39.404823,56,70,42
39.414017,39.846,57,70,42
39.85519,40.287174,56,70,42
40.296368,40.72835,57,70,42
40.73754,41.16953,61,70,42
41.17872,42.493057,64,70,42
42.502247,42.722836,62,70,42
42.722836,42.943424,59,70,42
42.943424,43.371994,57,70,42
43.371994,43.800564,56,70,42
43.800564,44.229137,57,70,42
44.229137,44.657707,61,70,42
44.657707,45.93449,64,70,42
45.94342,46.264847,62,86,42
46.264847,46.37199,61,90,42
46.37199,46.425564,59,91,42
46.425564,46.479134,61,92,42
46.479134,46.532703,59,93,42
46.532703,46.586277,61,93,42
46.586277,46.639847,59,94,42
46.639847,46.69342,61,95,42
46.69342,46.74699,59,95,42
46.74699,46.800564,61,96,42
46.800564,47.14147,62,97,42
47.14147,47.255108,61,101,42
47.255108,47.317608,59,102,42
47.317608,47.380108,61,103,42
47.380108,47.442608,59,104,42
47.442608,47.505108,61,104,42
47.505108,47.567608,59,105,42
47.567608,47.630108,61,106,42
47.630108,47.692608,59,106,42
47.692608,47.755108,61,107,42
47.755108,48.171772,62,108,42
48.171772,48.43566,61,110,42
48.43566,50.300247,59,110,42
50.31066,50.47733,61,60,42
50.47733,50.643997,63,60,42
50.643997,50.81066,64,60,42
50.81066,50.97733,66,60,42
50.97733,51.143997,68,60,42
51.143997,51.31066,69,60,42
51.31066,51.489235,71,60,42
51.489235,51.667805,69,60,42
51.667805,51.846375,68,60,42
51.846375,52.046375,69,60,42
52.046375,52.260014,66,60,42
52.260014,52.487286,63,60,42
52.487286,54.145267,66,60,42
54.15395,56.645264,64,50,42
57.487278,58.728596,45,127,42
58.737274,59.14526,38,120,42
59.153942,59.561928,45,100,42
59.570606,59.978592,38,120,42
59.987274,60.39526,40,100,42
60.40394,60.811924,40,120,42
60.820606,61.645256,57,120,42
61.65394,61.931713,64,100,42
61.931713,62.00116,62,100,42
62.00116,62.070602,64,100,42
62.070602,62.47859,65,120,42
62.48727,62.765045,64,100,42
62.765045,62.83449,59,100,42
62.83449,62.903934,60,100,42
62.903934,63.31192,62,120,42
63.320602,63.72859,60,95,42
63.737267,64.145256,59,83,42
64.15393,67.47858,59,70,42
67.48726,67.79108,59,110,42
67.90393,68.31191,63,110,42
68.320595,68.62441,64,110,42
68.73726,69.14524,58,110,42
69.15392,69.45774,59,110,42
69.570595,69.97858,51,110,42
69.98726,70.29108,52,110,42
70.40392,70.811905,46,110,42
70.82059,71.124405,47,110,42
71.23725,71.36746,63,110,42
71.376144,71.506355,63,110,42
71.51503,71.64524,63,110,42
71.65392,71.95774,64,110,42
72.07059,72.2008,55,110,42
72.20947,72.33968,55,110,42
72.348366,72.47857,55,110,42
72.48725,72.79107,59,110,42
72.903915,73.03413,51,110,42
73.04281,73.17302,51,110,42
73.181694,73.311905,51,110,42
73.32059,73.624405,52,110,42
73.73725,73.86746,40,110,42
73.87614,74.00635,40,110,42
74.01503,74.14523,40,110,42
74.153915,74.45773,47,110,42
75.82058,75.95947,47,70,42
75.95947,76.09836,48,70,42
76.09836,76.23724,47,70,42
76.23724,76.37614,46,70,42
76.37614,76.51502,47,70,42
76.51502,76.653915,46,70,42
76.653915,76.80543,47,70,42
76.80543,76.95694,48,70,42
76.95694,77.10846,47,70,42
77.10846,77.27512,46,70,42
77.27512,77.44179,47,70,42
77.44179,77.60846,46,70,42
77.60846,78.96262,47,70,42
78.97209,79.19936,45,70,42
79.19936,79.426636,42,70,42
79.426636,79.65391,40,70,42
79.65391,79.868195,42,70,42
79.868195,80.08248,44,70,42
80.08248,80.29677,45,70,42
80.29677,80.511055,47,70,42
80.511055,80.72534,49,70,42
80.72534,80.93962,51,70,42
80.93962,81.15391,52,70,42
81.15391,81.368195,54,70,42
81.368195,81.58248,56,70,42
81.58248,81.79677,57,70,42
81.79677,82.01105,59,70,42
82.01105,82.225334,61,70,42
82.225334,82.43962,63,70,42
82.43962,82.65391,64,70,42
82.65391,82.868195,66,70,42
82.868195,83.08248,68,70,42
83.08248,83.29676,69,70,42
83.29676,83.51105,70,70,42
83.51105,83.725334,71,70,42
83.725334,83.93962,70,70,42
83.93962,84.15391,71,70,42
84.15391,84.368195,68,70,42
84.368195,84.42501,64,70,42
84.42501,84.48183,63,70,42
84.48183,84.53864,64,70,42
84.53864,84.59547,66,70,42
84.59547,85.585045,64,70,42
85.59547,86.085045,63,70,42
86.59547,86.809746,47,70,42
86.809746,87.02403,49,70,42
87.02403,87.23832,51,70,42
87.23832,87.45261,52,70,42
87.45261,87.66689,54,70,42
87.66689,87.88118,56,70,42
87.88118,88.09546,57,70,42
88.09546,88.309746,59,70,42
88.309746,88.52403,61,70,42
88.52403,88.73832,63,70,42
88.73832,88.95261,64,70,42
88.95261,89.16689,66,70,42
89.16689,89.38117,68,70,42
89.38117,89.59546,69,70,42
89.59546,89.809746,70,70,42
89.809746,90.02403,71,70,42
90.02403,90.23832,72,70,42
90.23832,90.45261,73,70,42
90.45261,90.666885,72,70,42
90.666885,90.88117,73,70,42
90.88117,91.09546,75,70,42
91.09546,91.309746,73,70,42
91.309746,91.52403,71,70,42
91.52403,91.5776,69,70,42
91.5776,91.63117,68,70,42
91.63117,91.684746,69,70,42
91.684746,91.73832,71,70,42
91.73832,92.58653,69,70,42
92.59546,92.747246,68,70,42
92.809746,93.02403,71,70,42
93.02403,93.23831,76,70,42
93.23831,93.4526,75,70,42
93.4526,94.30081,73,70,42
94.309746,94.461525,71,70,42
94.524025,94.73831,71,70,42
94.73831,94.9526,76,70,42
94.9526,95.166885,75,70,42
95.166885,96.0151,73,70,42
96.024025,96.17581,71,70,42
96.23831,96.4526,71,70,42
96.4526,96.666885,76,70,42
96.666885,97.086525,75,70,42
97.09545,97.5151,73,70,42
97.524025,97.943665,71,70,42
97.9526,98.38143,69,70,42
98.39076,99.05308,68,70,42
99.0624,99.94859,66,70,42
99.957924,100.396355,66,70,42
100.405685,100.84412,66,70,42
100.85345,101.068,64,70,42
101.077324,101.29188,63,70,42
101.30121,101.52582,61,70,42
101.53558,101.7016,59,70,42
101.76996,101.947044,59,70,42
102.01996,102.22428,59,70,42
102.30842,103.15663,59,70,42
103.16556,104.01378,56,70,42
104.022705,105.299484,52,70,42
105.30842,106.15663,47,70,42
106.16556,106.5852,47,70,42
106.59413,107.01377,44,70,42
107.0227,107.22806,40,70,42
107.236984,107.442345,44,70,42
107.45127,108.72806,47,70,42
109.16556,110.01377,69,70,42
110.0227,110.87091,66,70,42
110.87984,111.299484,63,70,42
111.30841,111.72805,59,70,42
111.736984,112.156624,57,70,42
112.16555,112.5852,54,70,42
112.594124,113.01376,51,70,42
113.0227,113.8897,47,70,42
113.899025,114.35801,47,70,42
114.367775,115.35736,47,70,42
115.367775,115.60736,52,70,42
115.617775,115.867775,64,70,42
115.867775,116.117775,66,70,42
116.117775,116.35215,68,70,42
116.35215,116.56644,69,70,42
116.56644,116.78072,64,70,42
116.78072,116.99501,69,70,42
116.99501,117.2093,67,70,42
117.2093,117.36108,68,70,42
117.42358,117.63786,64,70,42
117.63786,117.85215,66,70,42
117.85215,118.06644,68,70,42
118.06644,118.28072,69,70,42
118.28072,118.495,64,70,42
118.495,118.70929,69,70,42
118.70929,118.92358,67,70,42
118.92358,119.07536,68,70,42
119.13786,119.35215,64,70,42
119.35215,119.56644,66,70,42
119.56644,119.780716,68,70,42
119.780716,120.20036,69,70,42
120.85215,121.06643,66,70,42
121.06643,121.280716,69,70,42
121.280716,121.495,68,70,42
121.495,121.70929,66,70,42
122.56643,122.780716,59,70,42
122.780716,122.995,63,70,42
122.995,123.20929,61,70,42
123.20929,123.42358,59,70,42
123.42358,123.637856,56,70,42
123.637856,123.85214,59,70,42
123.85214,124.06643,57,70,42
124.06643,124.280716,56,70,42
124.280716,124.495,52,70,42
124.495,124.70929,57,70,42
124.70929,124.91464,54,70,42
124.92357,125.343216,54,70,42
125.35214,125.98607,52,70,42
125.995,126.04857,54,70,42
126.04857,126.10214,52,70,42
126.10214,126.155716,51,70,42
126.155716,126.20928,52,70,42
126.20928,126.423836,56,70,42
126.43317,126.657776,54,70,42
126.66754,127.126526,52,80,42
136.7196,137.1276,40,100,42
137.13628,137.96092,40,100,42
137.9696,138.02168,42,100,42
138.02168,138.07378,44,100,42
138.07378,138.12585,42,100,42
138.12585,138.17793,44,100,42
138.17793,138.24739,42,100,42
138.24739,138.31683,40,100,42
138.31683,138.38628,42,100,42
138.38628,138.80293,44,120,42
138.80293,139.6276,40,100,42
139.63628,139.68835,42,100,42
139.68835,139.74043,44,100,42
139.74043,139.79253,42,100,42
139.79253,139.8446,44,100,42
139.8446,139.91405,42,100,42
139.91405,139.98349,40,100,42
139.98349,140.05293,42,100,42
140.05293,140.4696,44,120,42
140.4696,140.7821,40,100,42
140.7821,140.88626,39,100,42
140.88626,141.30293,37,120,42
141.30293,141.61543,45,100,42
141.61543,141.7196,44,100,42
141.7196,142.13626,43,120,42
142.13626,142.44876,51,100,42
142.44876,142.55293,49,100,42
142.55293,142.9696,48,120,42
142.9696,143.38626,49,100,42
143.38626,143.80293,47,120,42
143.80293,144.21959,46,100,42
144.21959,144.42793,49,120,42
144.42793,144.63626,47,100,42
144.63626,144.84459,45,100,42
144.84459,145.05293,44,100,42
145.05293,145.46959,47,120,42
145.46959,145.88626,45,100,42
145.88626,146.30293,42,100,42
146.30293,146.7109,40,100,42
146.71959,148.79424,39,120,42
148.80292,149.2109,39,120,42
149.21959,149.62758,39,102,42
149.63626,150.04424,39,84,42
150.05292,150.4609,39,60,42
151.71959,151.85847,59,60,42
151.85847,151.99736,61,60,42
151.99736,152.13625,63,60,42
152.13625,152.27513,64,60,42
152.27513,152.41403,66,60,42
152.41403,152.55292,68,60,42
152.55292,152.605,71,60,42
152.605,152.6918,69,60,42
152.6918,152.83069,68,60,42
152.83069,152.96959,69,60,42
152.96959,153.1211,73,60,42
153.1211,153.28018,71,60,42
153.28018,153.44685,69,60,42
153.44685,153.85484,68,60,42
155.11353,155.25241,52,60,42
155.25241,155.3913,54,60,42
155.3913,155.53018,56,60,42
155.53018,155.66907,57,60,42
155.66907,155.80797,59,60,42
155.80797,155.94685,61,60,42
155.94685,156.08574,62,60,42
156.08574,156.22462,64,60,42
156.22462,156.36351,66,60,42
156.36351,156.51503,68,60,42
156.51503,156.67412,69,60,42
156.67412,156.84079,71,60,42
156.84079,158.49878,73,110,42
158.50745,160.16544,46,110,42
160.17412,162.04044,47,120,42
160.17412,162.04044,56,120,42
162.04912,162.19669,59,120,42
162.25745,162.40501,64,120,42
162.46577,162.61334,68,120,42
162.67412,162.83037,71,120,42
162.8947,163.05095,68,120,42
163.1153,163.28667,68,120,42
163.35722,163.55399,68,120,42
163.635,164.17899,69,120,42
168.07944,168.92766,51,70,42
168.93658,169.78479,59,70,42
169.79373,170.21336,58,70,42
170.22229,170.64194,59,70,42
170.65086,171.07051,61,70,42
171.07944,171.49908,59,70,42
171.50801,172.35622,51,70,42
172.36516,173.21336,59,70,42
173.22229,173.64194,58,70,42
173.65086,174.07051,59,70,42
174.07944,174.49908,61,70,42
174.50801,174.92764,59,70,42
174.93658,175.35622,59,70,42
175.36514,175.78479,57,69,42
175.79372,176.21336,56,67,42
176.22229,176.64194,54,66,42
176.65086,177.09593,52,64,42
177.10541,177.55048,50,63,42
177.55995,178.03374,49,61,42
178.04382,178.5878,47,60,42
178.59938,179.52711,45,60,42
179.53688,180.46461,52,60,42
180.47438,181.87086,54,60,42
181.88063,182.33961,49,60,42
182.34938,182.80836,52,60,42
182.81813,183.27711,50,60,42
183.28688,183.74586,49,60,42
183.75563,183.98024,50,60,42
183.99,184.21461,47,60,42
184.22438,185.15211,45,60,42
185.16188,185.62086,44,60,42
185.63063,186.10442,40,60,42
186.1145,186.58829,45,60,42
186.59837,187.07216,42,60,42
187.08223,187.57182,37,60,42
187.58223,188.1068,39,60,42
188.11795,196.65154,40,85,42
196.66072,197.09271,40,80,42
197.1019,197.53389,40,85,42
197.54308,198.00206,40,91,42
198.01183,198.5014,40,98,42
198.51183,199.0558,40,104,42
199.06738,201.27803,40,110,42
213.66333,214.1084,52,70,42
214.11787,214.57686,57,70,42
214.58662,215.04561,54,70,42
215.05537,215.54495,49,70,42
215.55537,216.09935,51,70,42
216.11092,217.53831,52,70,42
217.54779,217.99286,56,70,42
218.00233,218.43433,57,70,42
218.44351,218.87549,56,70,42
218.88469,219.31667,57,70,42
219.32587,219.75784,61,70,42
219.76704,221.08138,64,70,42
221.09056,221.31116,62,70,42
221.31116,221.53174,59,70,42
221.53174,221.97292,57,70,42
221.97292,222.4141,56,70,42
222.4141,222.85527,57,70,42
222.85527,223.29645,61,70,42
223.29645,224.61078,64,70,42
224.61998,224.95085,62,86,42
224.95085,225.06116,61,90,42
225.06116,225.1163,59,91,42
225.1163,225.17145,61,92,42
225.17145,225.2266,59,93,42
225.2266,225.28174,61,93,42
225.28174,225.33688,59,94,42
225.33688,225.39203,61,95,42
225.39203,225.44717,59,95,42
225.44717,225.50233,61,96,42
225.50233,225.8539,62,97,42
225.8539,225.97108,61,101,42
225.97108,226.03358,59,102,42
226.03358,226.09608,61,103,42
226.09608,226.15858,59,104,42
226.15858,226.22108,61,104,42
226.22108,226.28358,59,105,42
226.28358,226.34608,61,106,42
226.34608,226.40858,59,106,42
226.40858,226.47108,61,107,42
226.47108,226.92108,62,108,42
226.92108,227.22108,61,110,42
227.22108,229.45857,59,110,42
229.47108,229.67108,61,60,42
229.67108,229.85442,63,60,42
229.85442,230.02107,64,60,42
230.02107,230.18774,66,60,42
230.18774,230.35442,68,60,42
230.35442,230.52107,69,60,42
230.52107,230.69965,71,60,42
230.69965,230.87822,69,60,42
230.87822,231.0568,68,60,42
231.0568,231.25679,69,60,42
231.25679,231.47585,66,60,42
231.47585,231.71393,63,60,42
231.71393,233.37192,66,60,42
233.3806,235.87192,64,50,42
236.71393,237.95525,45,127,42
237.96393,238.3719,38,120,42
238.38058,238.78857,45,100,42
238.79726,239.20525,38,120,42
239.21393,239.6219,40,100,42
239.63058,240.03857,40,120,42
240.04726,240.8719,57,120,42
240.88058,241.15836,64,100,42
241.15836,241.22781,62,100,42
241.22781,241.29726,64,100,42
241.29726,241.70523,65,120,42
241.71391,241.9917,64,100,42
241.9917,242.06114,59,100,42
242.06114,242.13058,60,100,42
242.13058,242.53857,62,120,42
242.54726,242.95523,60,95,42
242.96391,243.3719,59,83,42
243.38058,246.70523,59,70,42
246.71391,247.01773,59,110,42
247.13057,247.53856,63,110,42
247.54724,247.85106,64,110,42
247.96391,248.37189,58,110,42
248.38057,248.68439,59,110,42
248.79724,249.20523,51,110,42
249.21391,249.51773,52,110,42
249.63057,250.03856,46,110,42
250.04724,250.35106,47,110,42
250.4639,250.59412,63,110,42
250.6028,250.733,63,110,42
250.74168,250.87189,63,110,42
250.88057,251.18439,64,110,42
251.29724,251.42744,55,110,42
251.43613,251.56633,55,110,42
251.57501,251.70522,55,110,42
251.7139,252.01772,59,110,42
252.13057,252.26077,51,110,42
252.26945,252.39966,51,110,42
252.40834,252.53856,51,110,42
252.54723,252.85106,52,110,42
252.9639,253.0941,40,110,42
253.10278,253.233,40,110,42
253.24168,253.37189,40,110,42
253.38057,253.68439,47,110,42
255.04723,255.18611,47,70,42
255.18611,255.32501,48,70,42
255.32501,255.4639,47,70,42
255.4639,255.60278,46,70,42
255.60278,255.74167,47,70,42
255.74167,255.88055,46,70,42
255.88055,256.01944,47,70,42
256.01944,256.15833,48,70,42
256.15833,256.29724,47,70,42
256.29724,256.44427,46,70,42
256.44427,256.59595,47,70,42
256.59595,256.7522,46,70,42
256.7522,258.0544,47,70,42
258.06387,258.31387,45,70,42
258.31387,258.56387,42,70,42
258.56387,258.77817,40,70,42
258.77817,258.99246,42,70,42
258.99246,259.20673,44,70,42
259.20673,259.42102,45,70,42
259.42102,259.6353,47,70,42
259.6353,259.84958,49,70,42
259.84958,260.06387,51,70,42
260.06387,260.27817,52,70,42
260.27817,260.49246,54,70,42
260.49246,260.70673,56,70,42
260.70673,260.92102,57,70,42
260.92102,261.1353,59,70,42
261.1353,261.34958,61,70,42
261.34958,261.56387,63,70,42
261.56387,261.77817,64,70,42
261.77817,261.99243,66,70,42
261.99243,262.20673,68,70,42
262.20673,262.42102,69,70,42
262.42102,262.6353,70,70,42
262.6353,262.84958,71,70,42
262.84958,263.06387,70,70,42
263.06387,263.27817,71,70,42
263.27817,263.49243,68,70,42
263.49243,263.54602,64,70,42
263.54602,263.59958,63,70,42
263.59958,263.65317,64,70,42
263.65317,263.70673,66,70,42
263.70673,264.65085,64,70,42
264.6613,265.15085,63,70,42
265.6613,265.87555,47,70,42
265.87555,266.08984,49,70,42
266.08984,266.30414,51,70,42
266.30414,266.5184,52,70,42
266.5184,266.7327,54,70,42
266.7327,266.947,56,70,42
266.947,267.1613,57,70,42
267.1613,267.37555,59,70,42
267.37555,267.58984,61,70,42
267.58984,267.80414,63,70,42
267.80414,268.0184,64,70,42
268.0184,268.2327,66,70,42
268.2327,268.447,68,70,42
268.447,268.6613,69,70,42
268.6613,268.87555,70,70,42
268.87555,269.08984,71,70,42
269.08984,269.30414,72,70,42
269.30414,269.5184,73,70,42
269.5184,269.7327,72,70,42
269.7327,269.947,73,70,42
269.947,270.16125,75,70,42
270.16125,270.37555,73,70,42
270.37555,270.58984,71,70,42
270.58984,270.6434,69,70,42
270.6434,270.697,68,70,42
270.697,270.75055,69,70,42
270.75055,270.80414,71,70,42
270.80414,271.65234,69,70,42
271.66125,271.81305,68,70,42
271.87555,272.08984,71,70,42
272.08984,272.30414,76,70,42
272.30414,272.5184,75,70,42
272.5184,273.36664,73,70,42
273.37555,273.52734,71,70,42
273.58984,273.80414,71,70,42
273.80414,274.0184,76,70,42
274.0184,274.2327,75,70,42
274.2327,275.0809,73,70,42
275.08984,275.2416,71,70,42
275.3041,275.5184,71,70,42
275.5184,275.7327,76,70,42
275.7327,276.15234,75,70,42
276.16125,276.5809,73,70,42
276.58984,277.0095,71,70,42
277.0184,277.43805,69,70,42
277.447,278.0809,68,70,42
278.08984,278.95038,66,70,42
278.9596,279.41858,66,70,42
279.42834,279.88733,66,70,42
279.8971,280.1217,64,70,42
280.13147,280.35608,63,70,42
280.36584,280.6054,61,70,42
280.61584,280.7929,59,70,42
280.86584,281.05557,59,70,42
281.1337,281.3462,59,70,42
281.4337,282.31763,59,70,42
282.32654,283.17474,56,70,42
283.1837,284.46048,52,70,42
284.4694,285.31763,47,70,42
285.32654,285.7462,47,70,42
285.75513,286.17474,44,70,42
286.1837,286.38904,40,70,42
286.39798,286.60333,44,70,42
286.61224,287.88904,47,70,42
288.32654,289.17474,69,70,42
289.1837,290.0319,66,70,42
290.04083,290.46045,63,70,42
290.4694,290.88904,59,70,42
290.89795,291.3176,57,70,42
291.32654,291.7462,54,70,42
291.7551,292.17474,51,70,42
292.1837,293.0319,47,70,42
293.04083,293.46045,47,70,42
293.4694,294.3176,47,70,42
294.32654,294.5319,52,70,42
294.54083,294.7551,64,70,42
294.7551,294.9694,66,70,42
294.9694,295.1837,68,70,42
295.1837,295.39795,69,70,42
295.39795,295.61224,64,70,42
295.61224,295.82654,69,70,42
295.82654,296.0408,67,70,42
296.0408,296.1926,68,70,42
296.2551,296.4694,64,70,42
296.4694,296.6837,66,70,42
296.6837,296.89795,68,70,42
296.89795,297.11224,69,70,42
297.11224,297.32654,64,70,42
297.32654,297.5408,69,70,42
297.5408,297.7551,67,70,42
297.7551,297.9069,68,70,42
297.9694,298.1837,64,70,42
298.1837,298.39795,66,70,42
298.39795,298.61224,68,70,42
298.61224,299.0319,69,70,42
299.68365,299.89795,66,70,42
299.89795,300.11224,69,70,42
300.11224,300.32654,68,70,42
300.32654,300.5408,66,70,42
301.39795,301.61224,59,70,42
301.61224,301.82654,63,70,42
301.82654,302.0408,61,70,42
302.0408,302.2551,59,70,42
302.2551,302.4694,56,70,42
302.4694,302.68365,59,70,42
302.68365,302.89795,57,70,42
302.89795,303.11224,56,70,42
303.11224,303.32654,52,70,42
303.32654,303.5408,57,70,42
303.5408,303.74615,54,70,42
303.7551,304.18707,54,70,42
304.19626,304.86206,52,70,42
304.87183,304.93042,54,70,42
304.93042,304.989,52,70,42
304.989,305.0476,51,70,42
305.0476,305.1062,52,70,42
305.1062,305.34576,56,70,42
305.3562,305.59576,54,70,42
305.6062,306.03818,52,80,42
315.63068,316.03867,40,100,42
316.04736,316.872,40,100,42
316.88068,316.93277,42,100,42
316.93277,316.98486,44,100,42
316.98486,317.03693,42,100,42
317.03693,317.08902,44,100,42
317.08902,317.15848,42,100,42
317.15848,317.2279,40,100,42
317.2279,317.29736,42,100,42
317.29736,317.71402,44,120,42
317.71402,318.53867,40,100,42
318.54736,318.59943,42,100,42
318.59943,318.65152,44,100,42
318.65152,318.7036,42,100,42
318.7036,318.75568,44,100,42
318.75568,318.82513,42,100,42
318.82513,318.89456,40,100,42
318.89456,318.96402,42,100,42
318.96402,319.38068,44,120,42
319.38068,319.69318,40,100,42
319.69318,319.79736,39,100,42
319.79736,320.21402,37,120,42
320.21402,320.52652,45,100,42
320.52652,320.63068,44,100,42
320.63068,321.04733,43,120,42
321.04733,321.35983,51,100,42
321.35983,321.46402,49,100,42
321.46402,321.88068,48,120,42
321.88068,322.29733,49,100,42
322.29733,322.71402,47,120,42
322.71402,323.13068,46,100,42
323.13068,323.33902,49,120,42
323.33902,323.54733,47,100,42
323.54733,323.75568,45,100,42
323.75568,323.96402,44,100,42
323.96402,324.38068,47,120,42
324.38068,324.79733,45,100,42
324.79733,325.21402,42,100,42
325.21402,325.62198,40,100,42
325.63068,327.70532,39,120,42
327.714,328.12198,39,120,42
328.13068,328.56265,39,102,42
328.57184,329.03082,39,84,42
329.0406,329.4746,39,60,42
330.7333,330.8722,59,60,42
330.8722,331.01108,61,60,42
331.01108,331.14996,63,60,42
331.14996,331.28885,64,60,42
331.28885,331.42773,66,60,42
331.42773,331.56662,68,60,42
331.56662,331.6218,71,60,42
331.6218,331.71368,69,60,42
331.71368,331.86075,68,60,42
331.86075,332.0078,69,60,42
332.0078,332.16406,73,60,42
332.16406,332.32553,71,60,42
332.32553,332.4922,69,60,42
332.4922,332.94183,68,60,42
334.20053,334.33942,52,60,42
334.33942,334.4783,54,60,42
334.4783,334.6172,56,60,42
334.6172,334.75607,57,60,42
334.75607,334.89496,59,60,42
334.89496,335.03384,61,60,42
335.03384,335.17273,62,60,42
335.17273,335.3116,64,60,42
335.3116,335.4505,66,60,42
335.4505,335.58942,68,60,42
335.58942,335.7283,69,60,42
335.7283,335.8672,71,60,42
335.8672,337.52518,73,110,42
337.53384,339.19183,46,110,42
339.2005,341.06683,47,120,42
339.2005,341.06683,56,120,42
341.0755,341.22308,59,120,42
341.28384,341.4314,64,120,42
341.49216,341.63974,68,120,42
341.7005,341.86148,71,120,42
341.92776,342.08878,68,120,42
342.15506,342.33212,68,120,42
342.40506,342.61755,68,120,42
342.70505,343.19464,69,120,42
346.70505,347.55325,51,70,42
347.5622,348.4104,59,70,42
348.41934,348.839,58,70,42
348.8479,349.26755,59,70,42
349.2765,349.6961,61,70,42
349.70505,350.1247,59,70,42
350.1336,350.98184,51,70,42
350.99075,351.83896,59,70,42
351.8479,352.26755,58,70,42
352.27646,352.6961,59,70,42
352.70505,353.1247,61,70,42
353.1336,353.55325,59,70,42
353.5622,353.98184,59,70,42
353.99075,354.4104,57,69,42
354.41934,354.83896,56,67,42
354.8479,355.28632,54,66,42
355.29565,355.75464,52,64,42
355.7644,356.2234,50,63,42
356.23315,356.72275,49,61,42
356.73315,357.25772,50,70,42
357.26886,359.84576,49,70,42
359.85443,360.67908,56,81,42
360.68777,361.51242,57,85,42
361.5211,362.34576,53,89,42
362.35443,363.17908,54,93,42
363.18777,364.01242,48,97,42
364.0211,365.26242,49,100,42
365.2711,365.67908,48,120,42
365.68774,366.09573,49,100,42
366.10443,366.51242,48,120,42
366.5211,366.96616,49,100,42
366.97565,367.4652,48,120,42
367.47565,367.9652,49,100,42
368.97565,369.31656,64,100,42
369.31656,369.43018,62,100,42
369.43018,369.487,61,100,42
369.487,369.54382,62,100,42
369.54382,369.60065,61,100,42
369.60065,369.65744,62,100,42
369.65744,369.73322,61,100,42
369.73322,369.80896,60,100,42
369.80896,369.88474,61,100,42
369.88474,370.22565,64,100,42
370.22565,370.33926,62,100,42
370.33926,370.39975,61,100,42
370.39975,370.46024,62,100,42
370.46024,370.52072,61,100,42
370.52072,370.5812,62,100,42
370.5812,370.66187,61,100,42
370.66187,370.7425,60,100,42
370.7425,370.82315,61,100,42
370.82315,371.2249,64,100,42
371.2249,371.35886,62,100,42
371.35886,371.88342,61,100,42
374.8135,375.79428,67,100,42
375.80377,376.24884,66,100,42
376.2583,376.70337,64,100,42
376.71286,377.15793,62,100,42
377.1674,377.5994,61,100,42
377.60858,378.04056,57,100,42
378.04974,378.50873,56,100,42
378.5185,379.0081,61,100,42
379.0185,382.38483,54,100,42
382.3935,383.6435,59,100,42
383.6435,384.06015,62,100,42
384.06015,384.47684,61,100,42
384.47684,384.8935,59,100,42
384.8935,384.9456,57,100,42
384.9456,384.99765,59,100,42
384.99765,385.04974,57,100,42
385.04974,385.10184,59,100,42
385.10184,385.17126,57,100,42
385.17126,385.24072,56,100,42
385.24072,385.31015,57,100,42
385.31015,385.5185,59,100,42
385.5185,385.7268,56,100,42
385.7268,386.1348,59,100,42
386.1435,387.3848,57,100,42
389.06015,389.19904,54,100,42
389.19904,389.33792,56,100,42
389.33792,389.4768,54,100,42
389.4768,389.6157,53,100,42
389.6157,389.75458,54,100,42
389.75458,389.8935,56,100,42
389.8935,390.03238,57,100,42
390.03238,390.17126,59,100,42
390.17126,390.31015,57,100,42
390.31015,390.44904,56,100,42
390.44904,390.58792,57,100,42
390.58792,390.7268,59,100,42
390.7268,390.8657,60,100,42
390.8657,391.00458,59,100,42
391.00458,391.1435,62,100,42
391.1435,391.28238,60,100,42
391.28238,391.42126,59,100,42
391.42126,391.56015,57,100,42
391.56015,391.69904,55,100,42
391.69904,391.83792,59,100,42
391.83792,391.9768,57,100,42
391.9768,392.12833,55,100,42
392.12833,392.2874,57,100,42
392.2874,392.45407,54,100,42
392.45407,392.57907,40,120,42
392.57907,392.70407,47,120,42
392.70407,392.80826,55,120,42
392.80826,392.9124,47,120,42
392.9124,393.01657,55,120,42
393.01657,393.12076,47,120,42
393.12076,393.2249,55,120,42
393.2249,393.32907,47,120,42
393.32907,393.43326,40,120,42
393.43326,393.5374,47,120,42
393.5374,393.64157,55,120,42
393.64157,393.74576,47,120,42
393.74576,393.8499,55,120,42
393.8499,393.95407,47,120,42
393.95407,394.05826,55,120,42
394.05826,394.1624,47,120,42
394.1624,394.26657,40,120,42
394.26657,394.37076,47,120,42
394.37076,394.4749,55,120,42
394.4749,394.57907,47,120,42
394.57907,394.68326,55,120,42
394.68326,394.7874,47,120,42
394.7874,394.89157,55,120,42
394.89157,394.99576,47,120,42
394.99576,395.0999,40,120,42
395.0999,395.20407,47,120,42
395.20407,395.30826,55,120,42
395.30826,395.4124,47,120,42
395.4124,395.51657,55,120,42
395.51657,395.62076,47,120,42
395.62076,395.7249,55,120,42
395.7249,395.82907,47,120,42
395.82907,395.93326,40,120,42
395.93326,396.0374,47,120,42
396.0374,396.14157,57,120,42
396.14157,396.24576,47,120,42
396.24576,396.3499,39,120,42
396.3499,396.45407,47,120,42
396.45407,396.55826,57,120,42
396.55826,396.6624,47,120,42
396.6624,396.76657,39,120,42
396.76657,396.87076,47,120,42
396.87076,396.9749,57,120,42
396.9749,397.07907,47,120,42
397.07907,397.18326,39,120,42
397.18326,397.2874,47,120,42
397.2874,397.39157,57,120,42
397.39157,397.49573,47,120,42
397.49573,397.5999,39,120,42
397.5999,397.70407,47,120,42
397.70407,397.80823,57,120,42
397.80823,397.9124,47,120,42
397.9124,398.01657,39,120,42
398.01657,398.12073,47,120,42
398.12073,398.2249,54,120,42
398.2249,398.32907,47,120,42
398.32907,398.43323,39,120,42
398.43323,398.5374,47,120,42
398.5374,398.64157,54,120,42
398.64157,398.74573,47,120,42
398.74573,398.8499,39,120,42
398.8499,398.95407,47,120,42
398.95407,399.05823,54,120,42
399.05823,399.1624,47,120,42
399.1624,399.26657,40,120,42
399.26657,399.37073,47,120,42
399.37073,399.4749,55,120,42
399.4749,399.57907,47,120,42
399.57907,399.68323,55,120,42
399.68323,399.7874,47,120,42
399.7874,399.89157,55,120,42
399.89157,399.99573,47,120,42
399.99573,400.0999,40,120,42
400.0999,400.20407,47,120,42
400.20407,400.30823,55,120,42
400.30823,400.4124,47,120,42
400.4124,400.51657,40,120,42
400.51657,400.62073,49,120,42
400.62073,400.7249,55,120,42
400.7249,400.82907,49,120,42
400.82907,400.93323,42,120,42
400.93323,401.0374,48,120,42
401.0374,401.14157,57,120,42
401.14157,401.24573,48,120,42
401.24573,401.3499,42,120,42
401.3499,401.45407,50,120,42
401.45407,401.55823,57,120,42
401.55823,401.6624,50,120,42
401.6624,401.76657,42,120,42
401.76657,401.87073,50,120,42
401.87073,401.9749,57,120,42
401.9749,402.07907,50,120,42
402.07907,402.18323,42,120,42
402.18323,402.2874,50,120,42
402.2874,402.39157,57,120,42
402.39157,402.49573,50,120,42
402.49573,402.5999,43,120,42
402.5999,402.70407,50,120,42
402.70407,402.80823,57,120,42
402.80823,402.9124,50,120,42
402.9124,403.01657,57,120,42
403.01657,403.12073,50,120,42
403.12073,403.2249,57,120,42
403.2249,403.32907,50,120,42
403.32907,403.43323,43,120,42
403.43323,403.5374,52,120,42
403.5374,403.64157,59,120,42
403.64157,403.74573,52,120,42
403.74573,403.84988,43,120,42
403.84988,403.95407,52,120,42
403.95407,404.05823,59,120,42
404.05823,404.16238,52,120,42
404.16238,404.26657,46,120,42
404.26657,404.37073,52,120,42
404.37073,404.47488,61,120,42
404.47488,404.57907,52,120,42
404.57907,404.68323,46,120,42
404.68323,404.78738,52,120,42
404.78738,404.89157,61,120,42
404.89157,404.99573,52,120,42
404.99573,405.09988,46,120,42
405.09988,405.20407,52,120,42
405.20407,405.30823,61,120,42
405.30823,405.41238,52,120,42
405.41238,405.51657,46,120,42
405.51657,405.62073,54,120,42
405.62073,405.72488,61,120,42
405.72488,405.82907,54,120,42
405.82907,405.93323,47,120,42
405.93323,406.03738,54,120,42
406.03738,406.14157,62,120,42
406.14157,406.24573,54,120,42
406.24573,406.34988,62,120,42
406.34988,406.45407,54,120,42
406.45407,406.55823,62,120,42
406.55823,406.66238,54,120,42
406.66238,406.76657,49,120,42
406.76657,406.87073,53,120,42
406.87073,406.97488,56,120,42
406.97488,407.07907,53,120,42
407.07907,407.18323,56,120,42
407.18323,407.28738,53,120,42
407.28738,407.39157,56,120,42
407.39157,407.49573,53,120,42
407.49573,407.59988,49,120,42
407.59988,407.70407,54,120,42
407.70407,407.80823,57,120,42
407.80823,407.91238,54,120,42
407.91238,408.01657,57,120,42
408.01657,408.12073,54,120,42
408.12073,408.22488,57,120,42
408.22488,408.32907,54,120,42
408.32907,408.43323,49,120,42
408.43323,408.53738,56,120,42
408.53738,408.64157,59,120,42
408.64157,408.74573,56,120,42
408.74573,408.84988,59,120,42
408.84988,408.95407,56,108,42
408.95407,409.05823,59,96,42
409.05823,409.16238,56,83,42
409.16238,409.57037,42,70,42
409.16238,409.57037,49,70,42
409.16238,409.57037,57,70,42
409.99573,413.73703,68,70,42
413.74573,414.15372,68,70,42
414.16238,414.57037,66,70,42
414.57904,414.98703,64,70,42
414.99573,415.4037,63,70,42
415.41238,415.61203,64,70,42
415.62073,415.82037,61,70,42
415.82904,416.23703,61,70,42
416.24573,417.48703,60,70,42
418.7457,419.1537,60,70,42
419.16238,419.30127,61,70,42
419.30127,419.44016,63,70,42
419.44016,419.57904,61,70,42
419.57904,419.71793,60,70,42
419.71793,419.8568,61,70,42
419.8568,419.9957,63,70,42
419.9957,420.13458,64,70,42
420.13458,420.2735,66,70,42
420.2735,420.41238,64,70,42
420.41238,420.55127,63,70,42
420.55127,420.69016,64,70,42
420.69016,420.82904,66,70,42
420.82904,421.2457,68,70,42
421.2457,421.45404,69,68,42
421.45404,421.66238,68,66,42
421.66238,421.8707,66,65,42
421.8707,422.07904,64,63,42
422.07904,422.28738,63,62,42
422.28738,422.4957,61,60,42
422.4957,423.73703,69,70,42
423.7457,423.8412,67,70,42
423.84985,423.94534,66,70,42
423.95404,424.04953,64,70,42
424.0582,424.1537,62,70,42
424.16235,424.98703,61,70,42
424.9957,425.82034,60,70,42
425.82904,427.487,61,70,42
427.4957,429.1537,40,90,42
429.16235,430.82034,42,110,42
430.829,430.89847,59,110,42
430.89847,431.03735,57,109,42
431.03735,431.237,56,107,42
431.2457,431.31512,59,103,42
431.31512,431.454,57,102,42
431.454,431.6537,56,99,42
431.66235,431.73587,59,95,42
431.73587,431.88293,57,94,42
431.88293,432.09433,56,91,42
432.10352,432.18164,59,88,42
432.18164,432.3379,57,86,42
432.3379,432.5625,56,84,42
432.57227,433.00427,57,80,42
434.42337,435.41296,42,50,42
435.42337,436.41296,49,50,42
436.42337,437.41296,50,50,42
437.42337,438.41296,49,50,42
438.42337,439.41296,47,50,42
439.42337,440.41296,45,50,42
440.42337,441.41296,44,50,42
441.42337,442.41296,42,50,42
442.42337,443.41296,38,50,42
443.42337,444.41296,45,50,42
444.42337,445.41296,47,50,42
445.42337,446.41296,45,50,42
446.42337,447.41296,43,50,42
447.42337,448.41296,42,50,42
448.42337,449.41296,40,50,42
449.42337,450.41296,38,50,42
450.42337,452.41296,37,50,42
452.42337,454.41296,38,50,42
454.42337,456.41296,40,50,42
456.42337,458.31644,40,110,42
458.3276,459.21152,45,110,42
459.22046,460.06866,52,70,42
460.0776,461.35437,54,70,42
461.3633,461.78296,49,70,42
461.79187,462.21152,52,70,42
462.22046,462.6401,50,70,42
462.64902,463.06866,49,70,42
463.0776,463.28296,50,70,42
463.29187,463.49725,47,70,42
463.50616,464.35437,45,70,42
464.3633,464.78296,44,70,42
464.79187,465.21152,40,70,42
465.22046,465.6401,45,70,42
465.64902,466.06866,42,70,42
466.0776,466.49722,37,70,42
466.50616,466.9258,39,70,42
466.93472,468.21152,40,70,42
468.22046,468.6401,56,70,42
468.64902,469.06866,57,70,42
469.0776,469.49722,56,70,42
469.50616,469.9258,57,70,42
469.93472,470.35437,61,70,42
470.3633,471.64008,64,70,42
471.64902,472.06866,68,70,42
472.07758,472.49722,69,70,42
472.50616,472.9258,68,70,42
472.93472,473.35437,69,70,42
473.3633,473.78296,73,70,42
473.79187,475.06866,76,90,42
475.07758,475.39902,74,85,42
475.39902,475.50616,73,89,42
475.50616,475.55972,71,90,42
475.55972,475.6133,73,91,42
475.6133,475.66687,71,91,42
475.66687,475.72043,73,92,42
475.72043,475.77402,71,93,42
475.77402,475.82758,73,93,42
475.82758,475.88116,71,94,42
475.88116,475.93472,73,94,42
475.93472,476.25616,74,95,42
476.25616,476.3633,73,99,42
476.3633,476.4201,71,100,42
476.4201,476.47693,73,101,42
476.47693,476.53375,71,101,42
476.53375,476.59058,73,102,42
476.59058,476.6474,71,103,42
476.6474,476.7042,73,103,42
476.7042,476.76102,71,104,42
476.76102,476.81784,73,105,42
476.81784,477.19284,74,105,42
477.19284,477.44284,73,109,42
477.44284,479.30743,71,110,42
479.31784,479.55743,73,70,42
479.56784,479.7732,75,70,42
479.78214,479.9875,76,69,42
479.99643,480.20178,75,68,42
480.2107,480.41605,73,67,42
480.425,480.63034,71,66,42
480.63928,480.84464,69,65,42
480.85355,481.07135,68,65,42
481.08084,481.29865,71,64,42
481.3081,481.5259,69,63,42
481.53537,481.79208,68,62,42
481.80322,482.05994,69,61,42
482.07108,482.35858,66,60,42
482.3711,482.9586,63,60,42
482.9711,483.85858,66,55,42
483.8711,486.85858,64,50,42
490.15442,490.5624,65,122,42
490.57108,490.97906,64,100,42
490.98776,491.39572,52,120,42
491.40442,492.22906,57,120,42
492.23776,492.51553,64,100,42
492.51553,492.58496,62,100,42
492.58496,492.65442,64,100,42
492.65442,493.0624,65,120,42
493.07108,493.34885,64,100,42
493.34885,493.4183,59,100,42
493.4183,493.48773,60,100,42
493.48773,493.89572,62,120,42
493.90442,494.3124,60,95,42
494.32108,494.72906,64,83,42
494.73773,498.06238,64,110,42
498.07108,498.47906,64,110,42
498.48773,498.61795,56,110,42
498.62662,498.75684,56,110,42
498.7655,498.89572,56,110,42
498.90442,499.20822,57,110,42
499.32108,499.45126,48,110,42
499.45996,499.59018,48,110,42
499.59885,499.72906,48,110,42
499.73773,500.04156,52,110,42
500.1544,500.2846,44,110,42
500.2933,500.4235,44,110,42
500.4322,500.56238,44,110,42
500.57108,500.87488,45,110,42
500.98773,501.11795,48,110,42
501.12662,501.25684,47,110,42
501.2655,501.39572,45,110,42
501.4044,501.81238,52,110,42
503.07108,503.20996,52,70,42
503.20996,503.34885,53,70,42
503.34885,503.48773,52,70,42
503.48773,503.62662,51,70,42
503.62662,503.7655,52,70,42
503.7655,503.9044,51,70,42
503.9044,504.04327,52,70,42
504.04327,504.18216,53,70,42
504.18216,504.32108,52,70,42
504.32108,504.4681,51,70,42
504.4681,504.61978,52,70,42
504.61978,504.77603,51,70,42
504.77603,506.11737,52,70,42
506.12714,506.395,50,70,42
506.395,506.66284,47,70,42
506.66284,506.89722,45,70,42
506.89722,507.1115,47,70,42
507.1115,507.32578,49,70,42
507.32578,507.54007,50,70,42
507.54007,507.75436,52,70,42
507.75436,507.96866,54,70,42
507.96866,508.18292,56,70,42
508.18292,508.39722,57,70,42
508.39722,508.6115,59,70,42
508.6115,508.82578,61,70,42
508.82578,509.04007,62,70,42
509.04007,509.25436,64,70,42
509.25436,509.46863,66,70,42
509.46863,509.68292,68,70,42
509.68292,509.89722,69,70,42
509.89722,510.1115,71,70,42
510.1115,510.32578,73,70,42
510.32578,510.54007,74,70,42
510.54007,510.75436,75,70,42
510.75436,510.96863,76,70,42
510.96863,511.18292,75,70,42
511.18292,511.39722,76,70,42
511.39722,511.6211,73,70,42
511.6211,511.6797,69,70,42
511.6797,511.73828,68,70,42
511.73828,511.79688,69,70,42
511.79688,511.85547,71,70,42
511.85547,512.8138,69,70,42
512.8242,513.3138,68,70,42
513.8242,514.0515,40,70,42
514.0515,514.26575,42,70,42
514.26575,514.48004,44,70,42
514.48004,514.69434,45,70,42
514.69434,514.9086,47,70,42
514.9086,515.1229,49,70,42
515.1229,515.3372,50,70,42
515.3372,515.5515,52,70,42
515.5515,515.76575,54,70,42
515.76575,515.98004,56,70,42
515.98004,516.19434,57,70,42
516.19434,516.4086,59,70,42
516.4086,516.6229,61,70,42
516.6229,516.8372,62,70,42
516.8372,517.0515,63,70,42
517.0515,517.26575,64,70,42
517.26575,517.48004,65,70,42
517.48004,517.69434,66,70,42
517.69434,517.9086,65,70,42
517.9086,518.1229,66,70,42
518.1229,518.3372,68,70,42
518.3372,518.5515,66,70,42
518.5515,518.76575,64,70,42
518.76575,518.81934,62,70,42
518.81934,518.8729,61,70,42
518.8729,518.9265,62,70,42
518.9265,518.98004,64,70,42
518.98004,519.82825,62,70,42
519.8372,519.989,61,70,42
520.0515,520.26575,64,70,42
520.26575,520.48004,69,70,42
520.48004,520.69434,68,70,42
520.69434,521.54254,66,70,42
521.55145,521.70325,64,70,42
521.76575,521.98004,64,70,42
521.98004,522.19434,69,70,42
522.19434,522.4086,68,70,42
522.4086,523.25684,66,70,42
523.26575,523.41754,64,70,42
523.48004,523.69434,64,70,42
523.69434,523.9086,69,70,42
523.9086,524.32825,68,70,42
524.3372,524.75684,66,70,42
524.76575,525.1854,64,70,42
525.19434,525.61395,62,70,42
525.6229,526.25684,61,70,42
526.26575,527.11395,59,70,42
527.1229,527.54254,59,70,42
527.55145,527.98004,59,70,42
527.98004,528.19434,57,70,42
528.19434,528.4086,56,70,42
528.4086,528.63586,54,70,42
528.63586,528.7969,52,70,42
528.86316,529.03455,64,70,42
529.1051,529.2948,64,70,42
529.3729,530.23413,64,70,42
530.2431,531.0913,61,70,42
531.1002,532.377,57,70,42
532.3859,533.23413,52,70,42
533.2431,533.67163,52,70,42
533.67163,534.1002,49,70,42
534.1002,534.3145,45,70,42
534.3145,534.5288,49,70,42
534.5288,535.8056,52,70,42
536.2431,537.0913,62,70,42
537.1002,537.9484,59,70,42
537.95734,538.377,56,70,42
538.3859,538.8056,52,70,42
538.8145,539.23413,52,70,42
539.2431,539.6627,47,70,42
539.67163,540.0913,44,70,42
540.1002,540.51984,40,70,42
540.5288,540.9484,52,70,42
540.95734,541.377,52,70,42
541.3859,542.23413,52,70,42
542.24304,542.4484,45,70,42
542.45734,542.6627,57,70,42
542.67163,542.877,59,70,42
542.8859,543.0913,61,70,42
543.1002,543.3145,62,70,42
543.3145,543.5288,57,70,42
543.5288,543.74304,62,70,42
543.74304,543.95734,60,70,42
543.95734,544.10913,61,70,42
544.17163,544.3859,57,70,42
544.3859,544.6002,59,70,42
544.6002,544.8145,61,70,42
544.8145,545.0288,62,70,42
545.0288,545.24304,57,70,42
545.24304,545.45734,62,70,42
545.45734,545.67163,60,70,42
545.67163,545.8234,61,70,42
545.8859,546.1002,57,70,42
546.1002,546.3145,59,70,42
546.3145,546.5288,61,70,42
546.5288,546.9484,62,70,42
547.6002,547.8145,59,70,42
547.8145,548.0288,62,70,42
548.0288,548.24304,61,70,42
548.24304,548.45734,59,70,42
549.3145,549.5288,64,70,42
549.5288,549.74304,68,70,42
549.74304,549.95734,66,70,42
549.95734,550.17163,64,70,42
550.17163,550.3859,61,70,42
550.3859,550.6002,64,70,42
550.6002,550.8145,62,70,42
550.8145,551.02875,61,70,42
551.02875,551.24304,57,70,42
551.24304,551.45734,62,70,42
551.45734,551.6627,59,70,42
551.67163,552.1002,59,70,42
552.1002,552.75604,57,70,42
552.75604,552.81287,59,70,42
552.81287,552.8697,57,70,42
552.8697,552.9265,56,70,42
552.9265,552.98334,57,70,42
552.98334,553.2253,61,70,42
553.2253,553.46716,59,70,42
553.46716,553.8752,57,85,42
563.46716,563.771,45,100,42
563.88385,564.7085,45,100,42
564.71716,564.7692,47,100,42
564.7692,564.82135,49,100,42
564.82135,564.8734,47,100,42
564.8734,564.9255,49,100,42
564.9255,564.99493,47,100,42
564.99493,565.0644,45,100,42
565.0644,565.13385,47,100,42
565.13385,565.5418,49,100,42
565.5505,566.3752,45,100,42
566.38385,566.4359,47,100,42
566.4359,566.488,49,100,42
566.488,566.5401,47,100,42
566.5401,566.59216,49,100,42
566.59216,566.6616,47,100,42
566.6616,566.7311,45,100,42
566.7311,566.8005,47,100,42
566.8005,567.2085,49,100,42
567.21716,567.52966,45,100,42
567.52966,567.63385,44,100,42
567.63385,568.0418,42,100,42
568.0505,568.363,50,100,42
568.363,568.46716,49,100,42
568.46716,568.8751,48,100,42
568.88385,569.19635,56,100,42
569.19635,569.3005,54,100,42
569.3005,569.7085,53,100,42
569.71716,570.1251,54,100,42
570.13385,570.5418,52,100,42
570.5505,570.9585,51,100,42
570.96716,571.1668,54,100,42
571.1755,571.32306,52,100,42
571.38385,571.5314,50,100,42
571.59216,571.73975,49,100,42
571.8005,572.2085,52,100,42
572.21716,572.6251,50,100,42
572.63385,573.0418,47,100,42
573.0505,573.4585,45,100,42
573.46716,575.5418,44,120,42
575.5505,575.9585,44,120,42
575.96716,576.3992,44,100,42
576.4083,576.8673,44,80,42
576.8771,577.3111,44,60,42
578.56976,578.7087,52,50,42
578.7087,578.84753,54,50,42
578.84753,578.98645,56,50,42
578.98645,579.12537,57,50,42
579.12537,579.2642,59,50,42
579.2642,579.40314,61,50,42
579.40314,579.4552,64,50,42
579.4552,579.542,62,50,42
579.542,579.6809,61,50,42
579.6809,579.81976,62,50,42
579.81976,579.9587,66,50,42
579.9587,580.09753,64,50,42
580.09753,580.23645,62,50,42
580.23645,580.6444,61,50,42
581.90314,582.042,45,50,42
582.042,582.1809,47,50,42
582.1809,582.31976,49,50,42
582.31976,582.4587,50,50,42
582.4587,582.59753,52,50,42
582.59753,582.73645,54,50,42
582.73645,582.8753,55,50,42
582.8753,583.0142,57,50,42
583.0142,583.15314,59,50,42
583.15314,583.292,61,50,42
583.292,583.4309,62,60,42
583.4309,583.56976,64,80,42
583.56976,585.2278,66,100,42
585.23645,586.8944,51,100,42
586.90314,588.7694,52,120,42
586.90314,588.7694,61,120,42
588.7781,588.92566,52,120,42
588.98645,589.13403,57,120,42
589.19476,589.34235,61,120,42
589.4031,589.5641,64,120,42
589.6304,589.7914,61,120,42
589.85767,590.0347,61,120,42
590.10767,590.3201,61,120,42
590.40765,590.83966,62,120,42
593.9371,594.81024,56,70,42
594.8194,595.69257,64,70,42
595.7018,596.1337,63,70,42
596.14294,596.57495,64,70,42
596.5841,597.0161,66,70,42
597.02527,597.4573,64,70,42
597.4665,598.3396,56,70,42
598.3488,599.222,64,70,42
599.23114,599.66315,63,70,42
599.67236,600.1043,64,70,42
600.1135,600.54553,66,70,42
600.5547,600.9867,64,70,42
600.99585,601.42786,64,70,42
601.4371,601.869,62,70,42
601.87823,602.3102,61,70,42
602.3194,602.7514,59,70,42
602.76056,603.19257,57,65,42
603.2018,603.6337,55,62,42
603.64294,604.1019,54,58,42
604.1117,604.60126,52,55,42
604.6117,605.48486,50,50,42
605.494,606.3672,57,50,42
606.3764,607.69073,59,50,42
607.6999,608.1319,54,50,42
608.1411,608.57306,57,50,42
608.5823,609.0142,55,50,42
609.02344,609.45544,54,50,42
609.4646,609.6892,55,50,42
609.699,609.9236,52,50,42
609.93335,610.833,50,50,42
610.84247,611.28754,49,50,42
613.1152,613.172,57,50,42
613.172,613.2288,59,50,42
613.2288,613.28564,57,50,42
613.28564,613.34247,59,50,42
613.34247,613.3993,57,50,42
613.3993,613.4561,59,50,42
613.4561,613.5129,57,50,42
613.5129,613.5697,59,50,42
613.5697,614.0148,60,50,42
614.0243,614.46936,59,50,42
614.4788,614.9239,57,50,42
614.93335,615.1512,59,50,42
615.16064,615.3784,54,50,42
615.3879,616.28754,57,50,42
616.297,616.74207,56,50,42
616.7515,617.1966,55,50,42
617.20605,617.6512,58,50,42
617.66064,618.1057,57,50,42
618.1152,618.56024,55,50,42
618.5697,618.78754,57,50,42
618.797,619.0148,52,50,42
619.0243,620.83295,53,50,42
620.84247,622.62415,52,50,42
622.6335,624.389,50,50,42
624.3982,626.12823,48,50,42
626.1373,627.8674,53,50,42
627.87646,629.5818,52,58,42
629.59076,631.2721,50,67,42
631.2809,632.93884,48,76,42
632.9475,633.7722,47,85,42
633.7809,634.6055,45,89,42
634.6142,635.43884,44,94,42
635.4475,636.27216,43,98,42
636.2809,637.1055,42,103,42
637.1142,638.0674,42,107,42
638.07855,638.2348,40,120,42
638.2348,638.3823,42,120,42
638.3823,638.52124,44,120,42
638.52124,638.66016,45,120,42
638.66016,638.799,47,120,42
638.799,638.9379,49,120,42
638.9379,639.04205,50,120,42
639.04205,639.14624,52,120,42
639.14624,639.2504,54,120,42
639.2504,639.35455,56,120,42
639.35455,639.45874,57,120,42
639.45874,639.5629,59,120,42
639.5629,639.66705,61,120,42
639.66705,639.77124,62,120,42
639.77124,640.1792,64,120,42
640.60455,641.0126,40,120,42
641.4379,642.2626,57,120,42
642.27124,643.0959,64,120,42
643.10455,644.35455,66,120,42
644.35455,644.77124,61,120,42
644.77124,645.1879,64,120,42
645.1879,645.60455,62,120,42
645.60455,646.02124,61,120,42
646.02124,646.22955,62,120,42
646.22955,646.43787,59,120,42
646.43787,647.2626,57,120,42
647.27124,647.68787,56,120,42
647.68787,648.10455,52,120,42
648.10455,648.52124,57,120,42
648.52124,648.93787,54,120,42
648.93787,649.3791,49,120,42
649.3791,649.84784,51,120,42
649.84784,651.1246,52,120,42
651.13354,651.55316,61,70,42
651.5621,651.98175,62,70,42
651.99066,652.41034,59,70,42
652.41925,652.83887,54,70,42
652.84784,653.26746,56,70,42
653.27637,654.55316,57,70,42
658.05005,658.46967,49,70,42
658.4786,658.89825,50,70,42
658.90717,659.32684,47,70,42
659.33575,659.7554,42,70,42
659.76434,660.18396,44,70,42
660.1929,661.46967,45,70,42
661.4786,661.89825,49,70,42
661.90717,662.3152,50,70,42
662.32385,662.7318,47,70,42
662.7405,663.1485,42,70,42
663.15717,663.5652,44,70,42
663.57385,664.3985,45,70,42
664.40717,665.2318,44,70,42
665.2405,666.0651,45,70,42
666.07385,666.8985,44,70,42
666.90717,667.3151,45,70,42
667.32385,667.7318,44,68,42
667.7405,668.1485,45,65,42
668.15717,668.5651,44,62,42
668.57385,668.9818,45,60,42
668.9905,669.3985,44,57,42
669.40717,669.8268,45,54,42
669.83575,670.28424,44,51,42
670.294,671.1623,45,50,42
671.1712,672.0194,52,50,42
672.0284,672.8766,54,50,42
672.8855,673.7337,49,50,42
673.7427,674.5909,50,50,42
674.5998,675.448,45,50,42
675.4569,677.1623,40,50,42
677.1712,677.2426,45,50,42
677.2426,677.3141,47,50,42
677.3141,677.3855,45,50,42
677.3855,677.4569,47,50,42
677.4569,677.5284,45,50,42
677.5284,677.5998,47,50,42
677.5998,677.6712,45,50,42
677.6712,677.7426,47,50,42
677.7426,677.8141,45,50,42
677.8141,677.8855,47,50,42
677.8855,677.9569,45,50,42
677.9569,678.0284,47,50,42
678.0284,678.0998,45,50,42
678.0998,678.1712,47,50,42
678.1712,678.2426,45,50,42
678.2426,678.3141,47,50,42
678.3141,678.3855,45,50,42
678.3855,678.4569,47,50,42
678.4569,678.5284,45,50,42
678.5284,678.5998,47,50,42
678.5998,678.6712,45,50,42
678.6712,678.7784,44,50,42
678.7784,678.8855,45,50,42
678.8855,680.5909,40,50,42
680.5998,680.6712,45,50,42
680.6712,680.7426,47,50,42
680.7426,680.8141,45,50,42
680.8141,680.8855,47,50,42
680.8855,680.9569,45,50,42
680.9569,681.0284,47,50,42
681.0284,681.0998,45,50,42
681.0998,681.1712,47,50,42
681.1712,681.2426,45,50,42
681.2426,681.3141,47,50,42
681.3141,681.3855,45,50,42
681.3855,681.4569,47,50,42
681.4569,681.5284,45,50,42
681.5284,681.5998,47,50,42
681.5998,681.6712,45,50,42
681.6712,681.7426,47,50,42
681.7426,681.8141,45,50,42
681.8141,681.8855,47,50,42
681.8855,681.9569,45,50,42
681.9569,682.0284,47,50,42
682.0284,682.0998,45,50,42
682.0998,682.2069,44,50,42
682.2069,682.3141,45,50,42
682.3141,684.0194,52,100,42
684.4569,684.6623,50,100,42
684.8855,685.0908,52,100,42
685.3141,685.53186,40,100,42
685.7686,686.2137,45,100,42
686.6777,687.1673,40,110,42
687.6777,688.4173,45,120,42
691.9277,692.0423,45,1,42
11.088334,11.547318,68,60,0
11.557084,12.002159,69,60,0
12.011629,12.456704,68,60,0
12.466174,12.911249,69,60,0
12.920719,13.365794,73,60,0
13.375264,14.729429,76,60,0
14.738899,15.183974,80,60,0
15.193444,15.625429,81,60,0
15.63462,16.066605,80,60,0
16.075796,16.50778,81,60,0
16.516972,16.948957,85,60,0
16.958147,18.272486,88,60,0
18.281675,18.603367,86,79,0
18.612558,18.713661,85,83,0
18.722853,18.823956,83,85,0
18.778,18.879103,85,86,0
18.833145,18.934248,83,87,0
18.888292,18.989395,85,87,0
18.94344,19.044542,83,88,0
18.998587,19.09969,85,89,0
19.053734,19.154837,83,90,0
19.108881,19.212856,85,90,0
19.164028,19.505825,86,91,0
19.51559,19.623013,85,96,0
19.632778,19.747362,83,98,0
19.695278,19.809862,85,98,0
19.757778,19.872362,83,99,0
19.820278,19.934862,85,100,0
19.882778,19.997362,83,101,0
19.945278,20.059862,85,102,0
20.007778,20.122362,83,102,0
20.070278,20.190649,85,103,0
20.132778,20.53787,86,104,0
20.549444,20.67676,85,109,0
20.688334,20.815647,83,110,0
20.757778,20.885092,85,109,0
20.82722,20.954536,83,108,0
20.896666,21.023981,85,107,0
20.96611,21.093426,83,105,0
21.035555,21.16287,85,104,0
21.105,21.232313,83,103,0
21.174444,21.301758,85,102,0
21.243889,21.371202,83,100,0
21.313332,21.440647,85,99,0
21.382776,21.510092,83,98,0
21.45222,21.579536,85,96,0
21.521666,21.648981,83,95,0
21.59111,21.718424,85,94,0
21.660555,21.787868,83,93,0
21.73,21.857313,85,91,0
21.799442,21.926758,83,90,0
21.868887,21.996202,85,89,0
21.938332,22.065647,83,88,0
22.007776,22.13509,85,86,0
22.07722,22.204535,83,85,0
22.146666,22.27398,85,84,0
22.216108,22.343424,83,82,0
22.285553,22.412868,85,81,0
22.354998,22.482313,83,80,0
22.424442,22.551758,85,79,0
22.493887,22.6212,83,77,0
22.563332,22.690645,85,76,0
22.632776,22.76009,83,75,0
22.702219,22.829535,85,74,0
22.771664,22.89898,83,72,0
22.841108,22.968424,85,71,0
22.910553,23.037868,82,70,0
22.979998,23.107311,83,70,0
23.049442,23.176756,85,70,0
23.118887,23.2462,87,70,0
23.18833,23.315645,88,70,0
23.257774,23.38509,87,70,0
23.327219,23.454535,85,70,0
23.396664,23.52398,83,70,0
23.466108,23.593422,81,70,0
23.535553,23.662867,80,70,0
23.604998,23.732311,78,70,0
23.67444,23.801756,76,70,0
23.743885,23.8712,75,70,0
23.81333,23.940645,73,70,0
23.882774,24.01009,71,70,0
23.952219,24.079533,69,70,0
24.021664,24.148977,68,70,0
24.091108,24.218422,66,70,0
24.160551,24.287867,64,70,0
24.229996,24.357311,63,70,0
24.29944,24.426756,61,70,0
24.368885,24.496199,59,70,0
24.43833,24.565643,57,70,0
24.507774,24.635088,56,70,0
24.577217,24.704533,54,70,0
24.646662,24.773977,52,70,0
24.716106,24.843422,51,70,0
24.785551,24.912867,49,70,0
24.854996,24.98231,47,70,0
24.92444,25.051754,45,70,0
24.993885,25.121199,44,70,0
25.063328,25.176176,42,70,0
25.132772,27.624088,40,70,0
28.4661,29.339262,69,70,0
28.4661,29.339262,57,70,0
29.348454,30.221613,76,70,0
29.348454,30.221613,64,70,0
30.230804,31.545141,78,70,0
30.230804,31.545141,66,70,0
31.554333,31.986319,73,70,0
31.554333,31.986319,61,70,0
31.995508,32.427494,76,70,0
31.995508,32.427494,64,70,0
32.436684,32.86867,74,70,0
32.436684,32.86867,62,70,0
32.87786,33.309845,73,70,0
32.87786,33.309845,61,70,0
33.31904,33.530434,74,70,0
33.31904,33.530434,62,70,0
33.539623,33.751022,71,70,0
33.539623,33.751022,59,70,0
33.760212,34.633373,69,70,0
33.760212,34.633373,57,70,0
34.642567,35.08764,68,70,0
34.642567,35.08764,56,70,0
35.09711,35.556095,64,70,0
35.09711,35.556095,52,70,0
35.56586,36.024845,69,70,0
35.56586,36.024845,57,70,0
36.03461,36.493595,66,70,0
36.03461,36.493595,54,70,0
36.50336,36.984917,61,70,0
36.50336,36.984917,49,70,0
36.995163,37.510513,63,70,0
36.995163,37.510513,51,70,0
37.521477,37.77367,52,70,0
37.653057,37.90525,64,70,0
37.784634,38.036827,52,70,0
37.916214,38.15868,64,70,0
38.047794,38.279648,52,70,0
38.168762,38.400616,64,70,0
38.289726,38.521584,52,70,0
38.410694,38.632767,64,70,0
38.531662,38.74306,52,70,0
38.641956,38.853355,64,70,0
38.75225,38.963646,52,70,0
38.862545,39.07394,64,70,0
38.97284,39.184235,52,70,0
39.083134,39.29453,64,70,0
39.193428,39.404823,52,70,0
39.303722,39.515118,64,70,0
39.414017,39.625412,52,70,0
39.524307,39.735706,64,70,0
39.6346,39.846,52,70,0
39.744896,39.956295,64,70,0
39.85519,40.06659,52,70,0
39.965485,40.176884,64,70,0
40.07578,40.287174,52,70,0
40.186073,40.39747,64,70,0
40.296368,40.507763,52,70,0
40.406662,40.618057,64,70,0
40.516956,40.72835,52,70,0
40.62725,40.838646,64,70,0
40.73754,40.94894,52,70,0
40.847836,41.059235,64,70,0
40.95813,41.16953,52,70,0
41.068424,41.279823,64,70,0
41.17872,41.390118,52,70,0
41.289013,41.390118,64,70,0
41.399307,41.610703,64,70,0
41.5096,41.720997,76,70,0
41.619896,41.83129,64,70,0
41.73019,41.941586,76,70,0
41.840485,42.05188,64,70,0
41.950775,42.162174,76,70,0
42.06107,42.27247,64,70,0
42.171364,42.382763,76,70,0
42.28166,42.493057,64,70,0
42.391953,42.60335,76,70,0
42.502247,42.713642,64,70,0
42.61254,42.823936,76,70,0
42.722836,42.93423,64,70,0
42.83313,43.041637,76,70,0
42.943424,43.14878,64,70,0
43.050568,43.255924,76,70,0
43.157707,43.363064,64,70,0
43.26485,43.470207,76,70,0
43.371994,43.57735,64,70,0
43.479137,43.684494,76,70,0
43.58628,43.791637,64,70,0
43.69342,43.89878,76,70,0
43.800564,44.00592,64,70,0
43.907707,44.113064,76,70,0
44.01485,44.220207,64,70,0
44.121994,44.32735,76,70,0
44.229137,44.434494,64,70,0
44.336277,44.541637,76,70,0
44.44342,44.648777,64,70,0
44.550564,44.648777,76,70,0
44.657707,44.863064,76,70,0
44.76485,44.970207,88,71,0
44.871994,45.07735,76,72,0
44.979134,45.184494,88,74,0
45.086277,45.291634,76,75,0
45.19342,45.398777,88,76,0
45.300564,45.50592,76,78,0
45.407707,45.613064,88,79,0
45.51485,45.720207,76,80,0
45.62199,45.827347,88,82,0
45.729134,45.93449,76,83,0
45.836277,46.041634,88,84,0
45.94342,46.148777,76,86,0
46.050564,46.25592,88,87,0
46.157707,46.363064,76,89,0
46.264847,46.470203,88,90,0
46.37199,46.577347,76,91,0
46.479134,46.68449,88,93,0
46.586277,46.791634,76,94,0
46.69342,46.904728,88,95,0
46.800564,47.018364,76,97,0
46.9142,47.132,88,98,0
47.027836,47.245636,76,99,0
47.14147,47.36969,88,101,0
47.255108,47.49469,76,102,0
47.380108,47.61969,88,104,0
47.505108,47.74469,76,105,0
47.630108,47.882423,88,106,0
47.755108,48.02131,76,108,0
47.893997,48.1602,88,109,0
48.032883,48.299088,76,110,0
48.171772,48.425247,88,110,0
48.43566,48.925247,76,110,0
48.43566,48.925247,88,110,0
57.487278,58.311928,69,120,0
58.32061,58.52026,76,100,0
58.528942,58.728596,74,100,0
58.63311,58.83276,76,100,0
58.737274,59.14526,77,120,0
59.153942,59.353592,76,100,0
59.362274,59.561928,71,100,0
59.466442,59.666092,72,100,0
59.570606,59.978592,74,120,0
59.987274,60.186924,72,100,0
60.195606,60.39526,68,100,0
60.299774,60.499424,69,100,0
60.40394,60.811924,71,120,0
60.820606,61.089703,57,120,0
60.959496,61.228592,60,100,0
61.09838,61.367477,64,100,0
61.23727,61.506367,57,100,0
61.37616,61.645256,60,100,0
61.51505,61.784145,64,100,0
61.65394,61.923035,57,100,0
61.792824,62.061924,60,100,0
61.931713,62.20081,64,100,0
62.070602,62.3397,57,120,0
62.20949,62.47859,62,100,0
62.34838,62.617477,65,100,0
62.48727,62.756367,57,100,0
62.626156,62.895256,60,100,0
62.765045,63.03414,64,100,0
62.903934,63.17303,56,120,0
63.042824,63.31192,59,100,0
63.181713,63.45081,64,100,0
63.320602,63.5897,57,95,0
63.459488,63.72859,60,91,0
63.598377,63.867474,64,87,0
63.737267,64.00636,55,83,0
63.876156,64.145256,59,79,0
64.015045,64.145256,64,75,0
64.15393,64.42303,54,70,0
64.29282,64.56192,59,70,0
64.43171,64.700806,63,70,0
64.5706,64.8397,54,70,0
64.70949,64.978584,59,70,0
64.84837,65.11747,63,70,0
64.98727,65.25636,55,70,0
65.12615,65.39525,59,70,0
65.265045,65.53414,64,70,0
65.40393,65.67303,55,70,0
65.542816,65.81192,59,70,0
65.68171,65.950806,64,70,0
65.820595,66.08969,59,70,0
65.95949,66.228584,63,70,0
66.09837,66.36747,66,70,0
66.23727,66.50636,59,70,0
66.37615,66.64525,63,70,0
66.51504,66.784134,66,70,0
66.65393,66.92303,59,70,0
66.792816,67.06191,64,70,0
66.93171,67.200806,67,70,0
67.070595,67.33969,59,70,0
67.20948,67.47858,64,70,0
67.34837,67.47858,67,70,0
67.48726,67.756355,63,110,0
67.62615,67.89525,66,110,0
67.76504,68.034134,69,110,0
67.90393,68.17303,72,110,0
68.042816,68.31191,71,110,0
68.1817,68.4508,69,110,0
68.320595,68.58969,67,110,0
68.45948,68.72858,71,110,0
68.59837,68.86747,76,110,0
68.73726,69.006355,79,110,0
68.876144,69.14524,78,110,0
69.01504,69.14524,76,110,0
69.15392,69.42302,75,110,0
69.292816,69.56191,78,110,0
69.4317,69.7008,81,110,0
69.570595,69.83969,84,110,0
69.70948,69.97858,83,110,0
69.848366,70.11746,81,110,0
69.98726,70.256355,79,110,0
70.126144,70.39524,83,110,0
70.26504,70.534134,88,110,0
70.40392,70.67302,91,110,0
70.54281,70.811905,90,110,0
70.6817,70.811905,88,110,0
70.82059,71.08968,87,110,0
70.95948,71.22858,90,110,0
71.098366,71.36746,83,110,0
71.23725,71.506355,84,110,0
71.376144,71.64524,83,110,0
71.51503,71.78413,81,110,0
71.65392,71.92302,79,110,0
71.79281,72.061905,81,110,0
71.9317,72.2008,76,110,0
72.07059,72.33968,79,110,0
72.20947,72.47857,78,110,0
72.348366,72.47857,76,110,0
72.48725,72.75635,75,110,0
72.626144,72.89524,78,110,0
72.76503,73.03413,71,110,0
72.903915,73.17302,72,110,0
73.04281,73.311905,71,110,0
73.181694,73.45079,69,110,0
73.32059,73.58968,67,110,0
73.45947,73.72857,69,110,0
73.598366,73.86746,64,110,0
73.73725,74.00635,67,110,0
73.87614,74.14523,66,110,0
74.01503,74.14523,64,110,0
74.153915,74.42301,59,110,0
74.29281,74.561905,60,110,0
74.431694,74.70079,59,110,0
74.57058,74.83968,58,110,0
74.70947,74.97857,59,110,0
74.84836,75.117455,58,110,0
74.98725,75.25635,59,110,0
75.12614,75.39523,60,110,0
75.26503,75.53413,59,110,0
75.403915,75.67301,58,100,0
75.5428,75.8119,59,90,0
75.681694,75.8119,58,80,0
75.82058,76.22857,59,70,0
81.15391,82.00212,83,70,0
82.01105,82.85927,80,70,0
82.868195,83.287834,76,70,0
83.29676,83.71641,71,70,0
83.725334,84.14497,68,70,0
84.15391,84.58599,71,70,0
84.59547,86.085045,66,70,0
84.59547,86.085045,69,70,0
89.16689,90.44367,78,70,0
90.45261,90.872246,66,70,0
90.88117,91.30082,63,70,0
91.309746,91.729385,66,70,0
91.73832,92.58653,66,70,0
91.73832,92.80081,59,70,0
92.59546,92.80081,64,70,0
92.809746,93.0151,64,70,0
93.02403,93.229385,66,70,0
93.23831,93.44367,68,70,0
93.4526,93.65796,69,70,0
93.666885,93.872246,64,70,0
93.88117,94.086525,69,70,0
94.09546,94.30081,67,70,0
94.309746,94.5151,68,70,0
94.524025,94.729385,64,70,0
94.73831,94.94367,66,70,0
94.9526,95.15796,68,70,0
95.166885,95.37224,69,70,0
95.38117,95.586525,64,70,0
95.59545,95.80081,69,70,0
95.80974,96.0151,67,70,0
96.024025,96.229385,68,70,0
96.23831,96.44367,64,70,0
96.4526,96.65795,66,70,0
96.666885,96.87224,68,70,0
96.881165,97.086525,69,70,0
97.09545,97.30081,64,70,0
97.30974,97.5151,68,70,0
97.524025,97.72938,64,70,0
97.73831,97.943665,66,70,0
97.9526,98.15795,59,70,0
98.16688,98.38143,64,70,0
98.39076,98.605316,59,70,0
98.61464,98.82919,63,70,0
98.838524,99.05308,59,70,0
99.0624,99.276955,63,70,0
99.286285,99.50084,59,70,0
99.51016,99.72472,61,70,0
99.51016,99.72472,64,70,0
99.73405,99.94859,58,70,0
99.957924,100.17248,61,70,0
99.957924,100.17248,64,70,0
100.18181,100.396355,58,70,0
100.405685,100.84412,59,70,0
100.405685,100.84412,63,70,0
102.30842,102.51378,52,70,0
102.522705,102.728065,54,70,0
102.73699,102.942345,56,70,0
102.95128,103.15663,57,70,0
103.16556,103.37092,59,70,0
103.379845,103.585205,61,70,0
103.59413,103.79949,63,70,0
103.80842,104.01378,64,70,0
104.022705,104.22806,66,70,0
104.23699,104.442345,68,70,0
104.45127,104.65663,69,70,0
104.66556,104.87092,71,70,0
104.879845,105.085205,73,70,0
105.09413,105.299484,75,70,0
105.30842,105.51377,76,70,0
105.522705,105.72806,78,70,0
105.736984,105.942345,80,70,0
105.95127,106.15663,81,70,0
106.16556,106.37092,82,70,0
106.379845,106.5852,83,70,0
106.59413,106.799484,82,70,0
106.80842,107.01377,83,70,0
107.0227,107.22806,80,70,0
107.236984,107.3352,76,70,0
107.29056,107.38877,75,70,0
107.34413,107.442345,76,70,0
107.3977,107.49591,78,70,0
107.45127,108.299484,76,70,0
108.30841,108.72806,75,70,0
109.16556,109.37091,59,70,0
109.379845,109.5852,61,70,0
109.594124,109.799484,63,70,0
109.594124,109.799484,51,70,0
109.80841,110.01377,64,70,0
109.80841,110.01377,52,70,0
110.0227,110.22806,66,70,0
110.0227,110.22806,54,70,0
110.236984,110.44234,68,70,0
110.236984,110.44234,56,70,0
110.45127,110.656624,69,70,0
110.45127,110.656624,57,70,0
110.66555,110.87091,71,70,0
110.66555,110.87091,59,70,0
110.87984,111.0852,73,70,0
110.87984,111.0852,61,70,0
111.094124,111.299484,75,70,0
111.094124,111.299484,63,70,0
111.30841,111.51377,76,70,0
111.30841,111.51377,64,70,0
111.5227,111.72805,78,70,0
111.5227,111.72805,66,70,0
111.736984,111.94234,80,70,0
111.736984,111.94234,68,70,0
111.95126,112.156624,81,70,0
111.95126,112.156624,69,70,0
112.16555,112.37091,83,70,0
112.16555,112.37091,71,70,0
112.37984,112.5852,85,70,0
112.37984,112.5852,73,70,0
112.594124,112.79948,87,70,0
112.594124,112.79948,75,70,0
112.80841,113.01376,88,70,0
112.80841,113.01376,76,70,0
113.0227,113.22805,90,70,0
113.0227,113.22805,78,70,0
113.23698,113.44234,92,70,0
113.23698,113.44234,80,70,0
113.45126,113.66582,93,70,0
113.45126,113.66582,81,70,0
113.67515,113.8897,90,70,0
113.899025,114.123634,87,70,0
114.1334,114.35801,83,70,0
114.367775,115.35736,81,70,0
115.367775,115.60736,80,70,0
115.617775,115.85736,83,70,0
115.867775,116.10736,88,70,0
116.117775,116.342384,87,70,0
116.35215,117.20036,85,70,0
117.2093,117.41465,83,70,0
117.42358,117.62894,83,70,0
117.63786,117.84322,88,70,0
117.85215,118.05751,87,70,0
118.06644,118.91465,85,70,0
118.92358,119.12894,83,70,0
119.13786,119.34322,83,70,0
119.35215,119.5575,88,70,0
119.56644,119.77179,87,70,0
119.780716,119.98608,85,70,0
119.995,120.20036,81,70,0
120.20929,120.41465,85,70,0
120.42358,120.62893,83,70,0
120.63786,120.843216,81,70,0
121.70929,121.91464,75,70,0
121.92358,122.12893,78,70,0
122.13786,122.343216,76,70,0
122.35214,122.5575,75,70,0
123.42358,123.62893,68,70,0
123.637856,123.843216,71,70,0
123.85214,124.0575,69,70,0
124.06643,124.27179,68,70,0
124.280716,124.48607,64,70,0
124.495,124.700356,69,70,0
124.70929,124.91464,66,70,0
125.35214,125.77178,56,70,0
125.35214,125.77178,59,70,0
125.35214,125.77178,64,70,0
126.20928,126.657776,57,70,0
126.20928,126.657776,59,70,0
126.20928,126.657776,63,70,0
126.66754,127.126526,56,100,0
126.66754,127.126526,59,100,0
126.66754,127.126526,64,100,0
127.13629,127.960945,64,100,0
127.96962,128.06511,66,100,0
128.0217,128.11719,68,100,0
128.07379,128.16928,66,100,0
128.12587,128.22136,68,100,0
128.17795,128.30817,66,100,0
128.2474,128.37761,64,100,0
128.31685,128.44705,66,100,0
128.38629,128.79428,68,120,0
128.80295,129.62761,64,100,0
129.63629,129.73177,66,100,0
129.68837,129.78386,68,100,0
129.74045,129.83594,66,100,0
129.79254,129.88802,68,100,0
129.84462,129.97482,66,100,0
129.91406,130.04427,64,100,0
129.9835,130.11371,66,100,0
130.05295,130.46094,68,120,0
130.46962,130.77344,64,100,0
130.78212,130.87761,63,100,0
130.88629,131.29427,61,120,0
131.30295,131.60677,69,100,0
131.61545,131.71094,68,100,0
131.71962,132.1276,67,120,0
132.13628,132.4401,75,100,0
132.44878,132.54427,73,100,0
132.55295,132.96094,72,120,0
132.96962,133.3776,73,100,0
133.38628,133.79427,71,120,0
133.80295,134.21094,70,100,0
134.2196,134.41927,73,120,0
134.42795,134.6276,71,100,0
134.63628,134.83594,69,100,0
134.8446,135.04427,68,100,0
135.05295,135.46092,71,120,0
135.4696,136.29427,69,100,0
136.30295,136.71092,66,100,0
136.7196,136.91927,64,100,0
136.92795,137.1276,76,100,0
137.0321,137.23177,75,100,0
137.13628,137.33592,76,100,0
137.24045,137.4401,71,100,0
137.3446,137.54427,68,100,0
137.44878,137.64842,71,100,0
137.55293,137.7526,68,100,0
137.6571,137.85677,71,100,0
137.76128,137.96092,76,100,0
137.86543,138.0651,71,100,0
137.9696,138.16927,69,100,0
138.07378,138.27342,71,100,0
138.17793,138.3776,75,100,0
138.2821,138.3776,71,100,0
138.38628,138.58592,68,100,0
138.49043,138.6901,71,100,0
138.5946,138.79425,76,100,0
138.69878,138.89842,75,100,0
138.80293,139.0026,76,100,0
138.9071,139.10675,71,100,0
139.01128,139.21092,68,100,0
139.11543,139.3151,71,100,0
139.2196,139.41925,68,100,0
139.32378,139.52342,71,100,0
139.42793,139.6276,76,100,0
139.5321,139.73175,71,100,0
139.63628,139.83592,69,100,0
139.74043,139.9401,71,100,0
139.8446,140.04425,75,100,0
139.94878,140.04425,71,100,0
140.05293,140.2526,68,100,0
140.1571,140.35675,71,100,0
140.26128,140.46092,76,100,0
140.36543,140.5651,71,100,0
140.4696,140.66925,68,100,0
140.57376,140.77342,71,100,0
140.67793,140.8776,76,100,0
140.7821,140.98175,71,100,0
140.88626,141.08592,69,100,0
140.99043,141.1901,73,100,0
141.0946,141.29425,76,100,0
141.19876,141.29425,73,100,0
141.30293,141.5026,73,100,0
141.4071,141.60675,76,100,0
141.51126,141.71092,81,100,0
141.61543,141.71092,76,100,0
141.7196,141.91925,73,100,0
141.82376,142.02342,75,100,0
141.92793,142.12758,82,100,0
142.0321,142.23175,75,100,0
142.13626,142.33592,70,100,0
142.24043,142.44008,75,100,0
142.3446,142.54425,79,100,0
142.44876,142.64842,75,100,0
142.55293,142.75258,68,100,0
142.6571,142.85675,75,100,0
142.76126,142.96092,80,100,0
142.86543,143.06508,75,100,0
142.9696,143.16925,68,100,0
143.07376,143.27342,73,100,0
143.17793,143.37758,77,100,0
143.2821,143.37758,73,100,0
143.38626,143.58592,68,100,0
143.49043,143.69008,73,100,0
143.5946,143.79425,77,100,0
143.69876,143.89842,73,100,0
143.80293,144.00258,66,100,0
143.90709,144.10675,73,100,0
144.01126,144.21092,78,100,0
144.11543,144.31508,73,100,0
144.21959,144.41925,66,100,0
144.32376,144.52342,71,100,0
144.42793,144.62758,75,100,0
144.53209,144.73175,71,100,0
144.63626,144.8359,68,100,0
144.74043,144.94008,71,100,0
144.84459,145.04425,76,100,0
144.94876,145.04425,71,100,0
145.05293,145.25258,69,100,0
145.15709,145.35675,72,100,0
145.26126,145.4609,76,100,0
145.36543,145.4609,72,100,0
145.46959,145.66925,72,100,0
145.57376,145.7734,76,100,0
145.67793,145.87758,81,100,0
145.78209,145.98175,76,100,0
145.88626,146.0859,72,100,0
145.99043,146.19008,78,100,0
146.09459,146.29425,81,100,0
146.19876,146.29425,78,100,0
146.30293,146.50258,78,100,0
146.40709,146.60675,81,100,0
146.51126,146.7109,84,100,0
146.61543,146.7109,81,100,0
146.71959,146.91925,84,120,0
146.82376,147.0234,81,120,0
146.92792,147.12758,78,120,0
147.03209,147.23175,81,120,0
147.13626,147.3359,84,120,0
147.24042,147.44008,81,120,0
147.34459,147.54425,78,120,0
147.44876,147.6484,81,120,0
147.55292,147.75258,84,120,0
147.65709,147.85675,81,120,0
147.76126,147.9609,78,120,0
147.86542,148.06508,81,120,0
147.96959,148.16924,84,120,0
148.07376,148.2734,81,120,0
148.17792,148.37758,78,120,0
148.28209,148.48174,81,120,0
148.38626,148.5859,84,120,0
148.49042,148.69008,81,120,0
148.59459,148.79424,78,120,0
148.69876,148.8984,81,120,0
148.80292,149.00258,83,120,0
148.90709,149.10674,81,116,0
149.01126,149.2109,78,111,0
149.11542,149.31508,81,107,0
149.21959,149.41924,83,102,0
149.32376,149.5234,81,97,0
149.42792,149.62758,78,93,0
149.53209,149.73174,81,88,0
149.63626,149.8359,83,84,0
149.74042,149.94008,81,79,0
149.84459,150.04424,78,74,0
149.94876,150.04424,81,70,0
150.05292,150.32202,83,60,0
150.1918,150.4609,81,60,0
150.3307,150.5998,80,60,0
150.46959,150.73868,78,60,0
150.60847,150.87758,76,60,0
150.74736,151.01646,75,60,0
150.88625,151.15535,73,60,0
151.02515,151.29424,71,60,0
151.16403,151.43312,69,60,0
151.30292,151.50256,68,60,0
151.40709,151.60674,66,60,0
151.51125,151.7109,64,60,0
151.61542,151.81506,63,60,0
151.71959,152.12756,61,60,0
152.13625,153.43643,59,60,0
153.44685,153.71596,88,60,0
153.58574,153.85484,86,60,0
153.72462,153.99373,85,60,0
153.86353,154.13261,83,60,0
154.00241,154.2715,81,60,0
154.1413,154.4104,80,60,0
154.28018,154.54929,78,60,0
154.41908,154.68817,76,60,0
154.55797,154.82706,74,60,0
154.69685,154.8965,73,60,0
154.80103,155.00067,71,60,0
154.90518,155.10484,69,60,0
155.00935,155.209,68,60,0
155.11353,155.5215,66,60,0
155.53018,156.83037,64,60,0
156.84079,157.24878,73,110,0
156.84079,157.24878,76,110,0
156.84079,157.24878,81,110,0
156.84079,157.24878,85,110,0
158.50745,158.63766,58,110,0
158.64635,158.77655,59,110,0
158.78523,158.91544,61,110,0
158.92412,159.12376,63,110,0
159.02829,159.22794,64,110,0
159.13245,159.3321,66,110,0
159.23662,159.43626,68,110,0
159.34079,159.54044,70,110,0
159.44495,159.6446,71,110,0
159.54912,159.74876,73,110,0
159.65329,159.85294,75,110,0
159.75745,159.9571,76,110,0
159.96579,160.16544,58,110,0
160.27829,160.47794,59,120,0
160.38245,160.5821,61,120,0
160.48662,160.68626,63,120,0
160.59079,160.79044,64,120,0
160.69495,160.8946,66,120,0
160.79912,160.99876,68,120,0
160.90329,161.10294,69,120,0
161.00745,161.13765,71,120,0
161.14633,161.27655,73,120,0
161.28523,161.41544,75,120,0
161.42412,161.62376,76,120,0
161.52827,161.72794,78,120,0
161.63245,161.8321,80,120,0
161.73662,161.8321,81,120,0
161.84077,162.04044,83,120,0
162.04912,162.24876,76,120,0
162.25745,162.45709,80,120,0
162.46577,162.66544,83,120,0
162.67412,162.88551,88,120,0
162.8947,163.1061,92,120,0
163.1153,163.34714,95,120,0
163.35722,163.62343,64,120,0
163.635,163.80861,66,120,0
163.7276,163.9012,68,120,0
163.82019,163.9938,66,120,0
163.91278,164.0864,68,120,0
164.00537,164.17899,66,120,0
164.09796,164.27158,68,120,0
164.19055,164.36417,66,120,0
164.28314,164.45676,68,120,0
164.37575,164.54935,66,120,0
164.46834,164.64195,68,120,0
164.56093,164.73454,66,120,0
164.65352,164.82713,68,120,0
164.74611,164.91972,66,120,0
164.8387,165.01231,68,120,0
164.93129,165.1049,66,120,0
165.0239,165.1975,68,120,0
165.11649,165.29008,66,120,0
165.20908,165.38269,68,120,0
165.30167,165.47528,66,120,0
165.39426,165.56787,68,120,0
165.48685,165.66046,66,120,0
165.57944,165.84564,65,120,0
165.71834,165.84564,66,120,0
165.85722,166.03084,73,120,0
165.94981,166.12343,75,118,0
166.0424,166.21602,73,116,0
166.135,166.30861,75,114,0
166.22758,166.4012,73,111,0
166.32019,166.49379,75,109,0
166.41278,166.58638,73,107,0
166.50537,166.67899,75,105,0
166.59796,166.77158,73,102,0
166.69055,166.86417,75,100,0
166.78314,166.95676,73,98,0
166.87573,167.04935,75,96,0
166.96834,167.14194,73,93,0
167.06093,167.23453,75,91,0
167.15352,167.32713,73,89,0
167.24611,167.41972,75,87,0
167.3387,167.51231,73,84,0
167.43129,167.6049,75,82,0
167.52388,167.6975,73,80,0
167.61649,167.79008,75,78,0
167.70908,167.88268,73,75,0
167.80167,168.06787,72,73,0
167.94055,168.06787,73,70,0
168.07944,168.49908,75,70,0
168.07944,168.92766,66,70,0
168.07944,168.92766,69,70,0
168.50801,168.92766,73,70,0
168.93658,169.35623,71,70,0
168.93658,169.78479,63,70,0
168.93658,169.78479,66,70,0
169.36516,169.78479,69,70,0
169.79373,171.49908,64,70,0
169.79373,171.49908,68,70,0
171.61516,171.92766,75,70,0
171.50801,172.35622,66,70,0
171.56158,172.35622,69,70,0
171.93658,172.35622,73,70,0
172.47229,172.78479,71,70,0
172.36516,173.21336,63,70,0
172.79372,173.21336,69,70,0
172.41872,173.26694,66,70,0
173.22229,174.92764,64,70,0
173.22229,174.92764,68,70,0
174.93658,176.64194,54,70,0
174.93658,176.64194,57,70,0
174.93658,176.64194,59,70,0
174.93658,176.64194,63,70,0
176.65086,177.09593,56,64,0
176.65086,177.09593,59,64,0
176.65086,177.09593,64,64,0
177.10541,177.55048,62,63,0
177.55995,178.03374,61,61,0
178.04382,178.5878,59,60,0
178.59938,179.05836,57,60,0
189.48158,189.92667,68,60,0
189.93613,190.38121,69,60,0
190.39067,190.83575,68,60,0
190.84521,191.2903,69,60,0
191.29976,191.74484,73,60,0
191.7543,193.10847,76,60,0
193.11795,193.56302,80,60,0
193.5725,194.00447,81,60,0
194.01367,194.44565,80,60,0
194.45485,194.88683,81,60,0
194.89601,195.328,85,60,0
195.33719,196.65154,88,60,0
196.66072,196.9824,86,79,0
196.99161,197.09271,85,83,0
197.1019,197.203,83,85,0
197.15704,197.25815,85,86,0
197.21219,197.3133,83,87,0
197.26733,197.36844,85,87,0
197.32248,197.42358,83,88,0
197.37764,197.47873,85,89,0
197.43279,197.53389,83,90,0
197.48793,197.5919,85,90,0
197.54308,197.88487,86,91,0
197.89464,198.00206,85,96,0
198.01183,198.1264,83,98,0
198.07433,198.1889,85,98,0
198.13683,198.2514,83,99,0
198.19933,198.3139,85,100,0
198.26183,198.3764,83,101,0
198.32433,198.4389,85,102,0
198.38683,198.5014,83,102,0
198.44933,198.5697,85,103,0
198.51183,198.91692,86,104,0
198.9285,199.0558,85,109,0
199.06738,199.19469,83,110,0
199.13683,199.26414,85,109,0
199.20627,199.33359,83,108,0
199.27571,199.40303,85,107,0
199.34515,199.47247,83,105,0
199.4146,199.54192,85,104,0
199.48404,199.61136,83,103,0
199.5535,199.6808,85,102,0
199.62294,199.75024,83,100,0
199.69238,199.81969,85,99,0
199.76183,199.88914,83,98,0
199.83127,199.95859,85,96,0
199.90071,200.02803,83,95,0
199.97015,200.09747,85,94,0
200.0396,200.16692,83,93,0
200.10904,200.23636,85,91,0
200.17848,200.3058,83,90,0
200.24794,200.37524,85,89,0
200.31738,200.44469,83,88,0
200.38683,200.51414,85,86,0
200.45627,200.58359,83,85,0
200.52571,200.65303,85,84,0
200.59515,200.72247,83,82,0
200.6646,200.79192,85,81,0
200.73404,200.86136,83,80,0
200.80348,200.9308,85,79,0
200.87294,201.00024,83,77,0
200.94238,201.06969,85,76,0
201.01183,201.13913,83,75,0
201.08127,201.20859,85,74,0
201.15071,201.27803,83,72,0
201.22015,201.34747,85,71,0
201.2896,201.41692,82,70,0
201.35904,201.48636,83,70,0
201.42848,201.5558,85,70,0
201.49794,201.62524,87,70,0
201.56738,201.69469,88,70,0
201.63683,201.76413,87,70,0
201.70627,201.83359,85,70,0
201.77571,201.90303,83,70,0
201.84515,201.97247,81,70,0
201.9146,202.04192,80,70,0
201.98404,202.11136,78,70,0
202.05348,202.1808,76,70,0
202.12292,202.25024,75,70,0
202.19238,202.31969,73,70,0
202.26183,202.38913,71,70,0
202.33127,202.45857,69,70,0
202.40071,202.52803,68,70,0
202.47015,202.59747,66,70,0
202.5396,202.66692,64,70,0
202.60904,202.73636,63,70,0
202.67848,202.8058,61,70,0
202.74792,202.87524,59,70,0
202.81738,202.94469,57,70,0
202.88683,203.01413,56,70,0
202.95627,203.08357,54,70,0
203.02571,203.15303,52,70,0
203.09515,203.22247,51,70,0
203.1646,203.29192,49,70,0
203.23404,203.36136,47,70,0
203.30348,203.4308,45,70,0
203.37292,203.50024,44,70,0
203.44237,203.55522,42,70,0
203.51183,206.00313,40,70,0
206.84515,207.74477,69,70,0
206.84515,207.74477,57,70,0
207.75424,208.65385,76,70,0
207.75424,208.65385,64,70,0
208.66333,210.01749,78,70,0
208.66333,210.01749,66,70,0
210.02696,210.47203,73,70,0
210.02696,210.47203,61,70,0
210.4815,210.92659,76,70,0
210.4815,210.92659,64,70,0
210.93605,211.38113,74,70,0
210.93605,211.38113,62,70,0
211.3906,211.83568,73,70,0
211.3906,211.83568,61,70,0
211.84514,212.06294,74,70,0
211.84514,212.06294,62,70,0
212.07242,212.29022,71,70,0
212.07242,212.29022,59,70,0
212.29968,213.19931,69,70,0
212.29968,213.19931,57,70,0
213.20877,213.65385,68,70,0
213.20877,213.65385,56,70,0
213.66333,214.1084,64,70,0
213.66333,214.1084,52,70,0
214.11787,214.57686,69,70,0
214.11787,214.57686,57,70,0
214.58662,215.04561,66,70,0
214.58662,215.04561,54,70,0
215.05537,215.54495,61,70,0
215.05537,215.54495,49,70,0
215.55537,216.09935,63,70,0
215.55537,216.09935,51,70,0
216.11092,216.37712,52,70,0
216.24982,216.50328,64,70,0
216.3887,216.62828,52,70,0
216.5137,216.74287,64,70,0
216.6387,216.8565,52,70,0
216.75233,216.97014,64,70,0
216.86597,217.08377,52,70,0
216.97961,217.19742,64,70,0
217.09325,217.31105,52,70,0
217.20688,217.42468,64,70,0
217.32051,217.53831,52,70,0
217.43416,217.65196,64,70,0
217.54779,217.7656,52,70,0
217.66142,217.87923,64,70,0
217.77505,217.99286,52,70,0
217.8887,218.10344,64,70,0
218.00233,218.21373,52,70,0
218.11263,218.32402,64,70,0
218.22292,218.43433,52,70,0
218.33322,218.54462,64,70,0
218.44351,218.6549,52,70,0
218.5538,218.7652,64,70,0
218.6641,218.87549,52,70,0
218.7744,218.9858,64,70,0
218.88469,219.09608,52,70,0
218.99498,219.20638,64,70,0
219.10527,219.31667,52,70,0
219.21558,219.42697,64,70,0
219.32587,219.53726,52,70,0
219.43616,219.64755,64,70,0
219.54645,219.75784,52,70,0
219.65674,219.86815,64,70,0
219.76704,219.97844,52,70,0
219.87733,219.97844,64,70,0
219.98763,220.19902,64,70,0
220.09792,220.30931,76,70,0
220.20822,220.41962,64,70,0
220.31851,220.5299,76,70,0
220.4288,220.6402,64,70,0
220.5391,220.75049,76,70,0
220.64938,220.8608,64,70,0
220.75969,220.97108,76,70,0
220.86998,221.08138,64,70,0
220.98027,221.19167,76,70,0
221.09056,221.30197,64,70,0
221.20087,221.41226,76,70,0
221.31116,221.52255,64,70,0
221.42145,221.63284,76,70,0
221.53174,221.74313,64,70,0
221.64204,221.85344,76,70,0
221.75233,221.96373,64,70,0
221.86263,222.07402,76,70,0
221.97292,222.18431,64,70,0
222.0832,222.29462,76,70,0
222.19351,222.4049,64,70,0
222.3038,222.5152,76,70,0
222.4141,222.62549,64,70,0
222.52438,222.73578,76,70,0
222.63469,222.84608,64,70,0
222.74498,222.95638,76,70,0
222.85527,223.06667,64,70,0
222.96556,223.17696,76,70,0
223.07585,223.28726,64,70,0
223.18616,223.28726,76,70,0
223.29645,223.50784,76,70,0
223.40674,223.61813,88,71,0
223.51703,223.72844,76,72,0
223.62733,223.83873,88,74,0
223.73763,223.94902,76,75,0
223.84792,224.05931,88,76,0
223.9582,224.1696,76,78,0
224.06851,224.2799,88,79,0
224.1788,224.3902,76,80,0
224.2891,224.50049,88,82,0
224.39938,224.61078,76,83,0
224.50967,224.72108,88,84,0
224.61998,224.83138,76,86,0
224.73027,224.94167,88,87,0
224.84056,225.05196,76,89,0
224.95085,225.16225,88,90,0
225.06116,225.27255,76,91,0
225.17145,225.38284,88,93,0
225.28174,225.49313,76,94,0
225.39203,225.60976,88,95,0
225.50233,225.72694,76,97,0
225.61952,225.84413,88,98,0
225.73671,225.96132,76,99,0
225.8539,226.08566,88,101,0
225.97108,226.21066,76,102,0
226.09608,226.33566,88,104,0
226.22108,226.46066,76,105,0
226.34608,226.60858,88,106,0
226.47108,226.75858,76,108,0
226.62108,226.90858,88,109,0
226.77107,227.05858,76,110,0
226.92108,227.20857,88,110,0
227.22108,227.80858,76,110,0
227.22108,227.80858,88,110,0
236.71393,237.53857,69,120,0
237.54726,237.7469,76,100,0
237.75558,237.95525,74,100,0
237.85976,238.0594,76,100,0
237.96393,238.3719,77,120,0
238.38058,238.58025,76,100,0
238.58893,238.78857,71,100,0
238.69308,238.89275,72,100,0
238.79726,239.20525,74,120,0
239.21393,239.41357,72,100,0
239.42226,239.6219,68,100,0
239.52643,239.72607,69,100,0
239.63058,240.03857,71,120,0
240.04726,240.31635,57,120,0
240.18614,240.45525,60,100,0
240.32503,240.59413,64,100,0
240.46391,240.73302,57,100,0
240.60281,240.8719,60,100,0
240.7417,241.01079,64,100,0
240.88058,241.14969,57,100,0
241.01947,241.28857,60,100,0
241.15836,241.42746,64,100,0
241.29726,241.56635,57,120,0
241.43614,241.70523,62,100,0
241.57503,241.84413,65,100,0
241.71391,241.98302,57,100,0
241.85281,242.1219,60,100,0
241.9917,242.26079,64,100,0
242.13058,242.39967,56,120,0
242.26947,242.53857,59,100,0
242.40836,242.67746,64,100,0
242.54726,242.81635,57,95,0
242.68614,242.95523,60,91,0
242.82503,243.09412,64,87,0
242.96391,243.23302,55,83,0
243.1028,243.3719,59,79,0
243.2417,243.3719,64,75,0
243.38058,243.64967,54,70,0
243.51947,243.78857,59,70,0
243.65836,243.92746,63,70,0
243.79724,244.06635,54,70,0
243.93614,244.20523,59,70,0
244.07503,244.34412,63,70,0
244.21391,244.48302,55,70,0
244.3528,244.6219,59,70,0
244.49168,244.76079,64,70,0
244.63058,244.89967,55,70,0
244.76947,245.03856,59,70,0
244.90836,245.17746,64,70,0
245.04724,245.31635,59,70,0
245.18613,245.45523,63,70,0
245.32503,245.59412,66,70,0
245.46391,245.733,59,70,0
245.6028,245.8719,63,70,0
245.74168,246.01079,66,70,0
245.88058,246.14967,59,70,0
246.01947,246.28856,64,70,0
246.15836,246.42744,67,70,0
246.29724,246.56635,59,70,0
246.43613,246.70523,64,70,0
246.57503,246.70523,67,70,0
246.71391,246.983,63,110,0
246.8528,247.1219,66,110,0
246.99168,247.26079,69,110,0
247.13057,247.39967,72,110,0
247.26947,247.53856,71,110,0
247.40836,247.67744,69,110,0
247.54724,247.81635,67,110,0
247.68613,247.95523,71,110,0
247.82501,248.09412,76,110,0
247.96391,248.233,79,110,0
248.1028,248.37189,78,110,0
248.24168,248.37189,76,110,0
248.38057,248.64967,75,110,0
248.51945,248.78856,78,110,0
248.65836,248.92744,81,110,0
248.79724,249.06633,84,110,0
248.93613,249.20523,83,110,0
249.07501,249.34412,81,110,0
249.21391,249.483,79,110,0
249.3528,249.62189,83,110,0
249.49168,249.76077,88,110,0
249.63057,249.89967,91,110,0
249.76945,250.03856,90,110,0
249.90836,250.03856,88,110,0
250.04724,250.31633,87,110,0
250.18613,250.45522,90,110,0
250.32501,250.59412,83,110,0
250.4639,250.733,84,110,0
250.6028,250.87189,83,110,0
250.74168,251.01077,81,110,0
250.88057,251.14967,79,110,0
251.01945,251.28856,81,110,0
251.15834,251.42744,76,110,0
251.29724,251.56633,79,110,0
251.43613,251.70522,78,110,0
251.57501,251.70522,76,110,0
251.7139,251.983,75,110,0
251.85278,252.12189,78,110,0
251.99168,252.26077,71,110,0
252.13057,252.39966,72,110,0
252.26945,252.53856,71,110,0
252.40834,252.67744,69,110,0
252.54723,252.81633,67,110,0
252.68613,252.95522,69,110,0
252.82501,253.0941,64,110,0
252.9639,253.233,67,110,0
253.10278,253.37189,66,110,0
253.24168,253.37189,64,110,0
253.38057,253.64966,59,110,0
253.51945,253.78854,60,110,0
253.65834,253.92744,59,110,0
253.79723,254.06633,58,110,0
253.93613,254.20522,59,110,0
254.07501,254.3441,58,110,0
254.2139,254.483,59,110,0
254.35278,254.62189,60,110,0
254.49167,254.76077,59,110,0
254.63057,254.89966,58,100,0
254.76945,255.03854,59,90,0
254.90834,255.03854,58,80,0
255.04723,255.45522,59,70,0
260.27817,261.12637,83,70,0
261.1353,261.98352,80,70,0
261.99243,262.41208,76,70,0
262.42102,262.84067,71,70,0
262.84958,263.26923,68,70,0
263.27817,263.6978,71,70,0
263.70673,265.15085,66,70,0
263.70673,265.15085,69,70,0
267.37555,268.2238,81,70,0
268.2327,269.5095,78,70,0
269.5184,269.93805,66,70,0
269.947,270.36664,63,70,0
270.37555,270.7952,66,70,0
270.80414,271.65234,66,70,0
270.80414,271.86664,59,70,0
271.66125,271.86664,64,70,0
271.87555,272.0809,64,70,0
272.08984,272.2952,66,70,0
272.30414,272.5095,68,70,0
272.5184,272.72375,69,70,0
272.7327,272.93805,64,70,0
272.947,273.15234,69,70,0
273.16125,273.36664,67,70,0
273.37555,273.5809,68,70,0
273.58984,273.7952,64,70,0
273.80414,274.0095,66,70,0
274.0184,274.22375,68,70,0
274.2327,274.43805,69,70,0
274.447,274.65234,64,70,0
274.66125,274.8666,69,70,0
274.87555,275.0809,67,70,0
275.08984,275.2952,68,70,0
275.3041,275.5095,64,70,0
275.5184,275.72375,66,70,0
275.7327,275.93805,68,70,0
275.947,276.15234,69,70,0
276.16125,276.3666,64,70,0
276.37555,276.5809,68,70,0
276.58984,276.7952,64,70,0
276.8041,277.0095,66,70,0
277.0184,277.22375,59,70,0
277.2327,277.43805,64,70,0
277.447,277.65234,59,70,0
277.66125,277.8666,63,70,0
277.87555,278.0809,59,70,0
278.08984,278.2952,63,70,0
278.3041,278.5095,59,70,0
278.5184,278.7298,61,70,0
278.5184,278.7298,64,70,0
278.73898,278.95038,58,70,0
278.9596,279.1842,61,70,0
278.9596,279.1842,64,70,0
279.19397,279.41858,58,70,0
279.42834,279.88733,59,70,0
279.42834,279.88733,63,70,0
281.4337,281.67328,52,70,0
281.6837,281.88904,54,70,0
281.89798,282.10333,56,70,0
282.11224,282.31763,57,70,0
282.32654,282.5319,59,70,0
282.54083,282.7462,61,70,0
282.75513,282.96048,63,70,0
282.9694,283.17474,64,70,0
283.1837,283.38904,66,70,0
283.39798,283.60333,68,70,0
283.61224,283.81763,69,70,0
283.82654,284.0319,71,70,0
284.04083,284.2462,73,70,0
284.25513,284.46048,75,70,0
284.4694,284.67474,76,70,0
284.6837,284.88904,78,70,0
284.89798,285.10333,80,70,0
285.11224,285.31763,81,70,0
285.32654,285.5319,82,70,0
285.54083,285.7462,83,70,0
285.75513,285.96048,82,70,0
285.9694,286.17474,83,70,0
286.1837,286.38904,80,70,0
286.39798,286.4962,76,70,0
286.45154,286.54974,75,70,0
286.5051,286.60333,76,70,0
286.5587,286.6569,78,70,0
286.61224,287.46048,76,70,0
287.4694,287.88904,75,70,0
288.32654,288.5319,59,70,0
288.54083,288.7462,61,70,0
288.7551,288.96048,63,70,0
288.7551,288.96048,51,70,0
288.9694,289.17474,64,70,0
288.9694,289.17474,52,70,0
289.1837,289.38904,66,70,0
289.1837,289.38904,54,70,0
289.39798,289.60333,68,70,0
289.39798,289.60333,56,70,0
289.61224,289.8176,69,70,0
289.61224,289.8176,57,70,0
289.82654,290.0319,71,70,0
289.82654,290.0319,59,70,0
290.04083,290.2462,73,70,0
290.04083,290.2462,61,70,0
290.2551,290.46045,75,70,0
290.2551,290.46045,63,70,0
290.4694,290.67474,76,70,0
290.4694,290.67474,64,70,0
290.6837,290.88904,78,70,0
290.6837,290.88904,66,70,0
290.89795,291.10333,80,70,0
290.89795,291.10333,68,70,0
291.11224,291.3176,81,70,0
291.11224,291.3176,69,70,0
291.32654,291.5319,83,70,0
291.32654,291.5319,71,70,0
291.54083,291.7462,85,70,0
291.54083,291.7462,73,70,0
291.7551,291.96045,87,70,0
291.7551,291.96045,75,70,0
291.9694,292.17474,88,70,0
291.9694,292.17474,76,70,0
292.1837,292.38904,90,70,0
292.1837,292.38904,78,70,0
292.39795,292.60333,92,70,0
292.39795,292.60333,80,70,0
292.61224,292.8176,93,70,0
292.61224,292.8176,81,70,0
292.82654,293.0319,90,70,0
293.04083,293.2462,87,70,0
293.2551,293.46045,83,70,0
293.4694,294.3176,81,70,0
294.32654,294.5319,80,70,0
294.54083,294.7462,83,70,0
294.7551,294.96045,88,70,0
294.9694,295.17474,87,70,0
295.1837,296.0319,85,70,0
296.0408,296.2462,83,70,0
296.2551,296.46045,83,70,0
296.4694,296.67474,88,70,0
296.6837,296.88904,87,70,0
296.89795,297.7462,85,70,0
297.7551,297.96045,83,70,0
297.9694,298.17474,83,70,0
298.1837,298.38904,88,70,0
298.39795,298.6033,87,70,0
298.61224,298.8176,85,70,0
298.82654,299.0319,81,70,0
299.0408,299.24615,85,70,0
299.2551,299.46045,83,70,0
299.4694,299.67474,81,70,0
300.5408,300.74615,75,70,0
300.7551,300.96045,78,70,0
300.9694,301.17474,76,70,0
301.18365,301.38904,75,70,0
302.2551,302.46045,68,70,0
302.4694,302.67474,71,70,0
302.68365,302.88904,69,70,0
302.89795,303.1033,68,70,0
303.11224,303.3176,64,70,0
303.32654,303.5319,69,70,0
303.5408,303.74615,66,70,0
304.19626,304.62827,56,70,0
304.19626,304.62827,59,70,0
304.19626,304.62827,64,70,0
305.1062,305.59576,57,70,0
305.1062,305.59576,59,70,0
305.1062,305.59576,63,70,0
305.6062,306.03818,56,100,0
305.6062,306.03818,59,100,0
305.6062,306.03818,64,100,0
306.04736,306.872,64,100,0
306.8807,306.9762,66,100,0
306.9328,307.02826,68,100,0
306.98486,307.08035,66,100,0
307.03696,307.13245,68,100,0
307.08905,307.21924,66,100,0
307.15848,307.2887,64,100,0
307.22794,307.35812,66,100,0
307.29736,307.70535,68,120,0
307.71405,308.5387,64,100,0
308.54736,308.64285,66,100,0
308.59946,308.69495,68,100,0
308.65152,308.747,66,100,0
308.7036,308.7991,68,100,0
308.7557,308.8859,66,100,0
308.82513,308.95535,64,100,0
308.8946,309.0248,66,100,0
308.96402,309.372,68,120,0
309.3807,309.6845,64,100,0
309.6932,309.7887,63,100,0
309.79736,310.20535,61,120,0
310.21402,310.51785,69,100,0
310.52652,310.622,68,100,0
310.6307,311.0387,67,120,0
311.04736,311.3512,75,100,0
311.35986,311.45535,73,100,0
311.46402,311.872,72,120,0
311.8807,312.2887,73,100,0
312.29736,312.70535,71,120,0
312.71402,313.122,70,100,0
313.1307,313.33035,73,120,0
313.33902,313.53867,71,100,0
313.54736,313.747,69,100,0
313.7557,313.95535,68,100,0
313.96402,314.372,71,120,0
314.3807,315.20535,69,100,0
315.21402,315.622,66,100,0
315.63068,315.83035,64,100,0
315.83902,316.03867,76,100,0
315.94318,316.14285,75,100,0
316.04736,316.247,76,100,0
316.15152,316.35117,71,100,0
316.25568,316.45535,68,100,0
316.35986,316.5595,71,100,0
316.46402,316.66367,68,100,0
316.56818,316.76785,71,100,0
316.67236,316.872,76,100,0
316.77652,316.97617,71,100,0
316.88068,317.08035,69,100,0
316.98486,317.1845,71,100,0
317.08902,317.28867,75,100,0
317.19318,317.28867,71,100,0
317.29736,317.497,68,100,0
317.40152,317.60117,71,100,0
317.50568,317.70535,76,100,0
317.60986,317.8095,75,100,0
317.71402,317.91367,76,100,0
317.81818,318.01785,71,100,0
317.92236,318.122,68,100,0
318.02652,318.22617,71,100,0
318.13068,318.33035,68,100,0
318.23486,318.4345,71,100,0
318.33902,318.53867,76,100,0
318.44318,318.64285,71,100,0
318.54736,318.747,69,100,0
318.65152,318.85117,71,100,0
318.75568,318.95532,75,100,0
318.85986,318.95532,71,100,0
318.96402,319.16367,68,100,0
319.06818,319.26782,71,100,0
319.17236,319.372,76,100,0
319.27652,319.47617,71,100,0
319.38068,319.58032,68,100,0
319.48486,319.6845,71,100,0
319.58902,319.78867,76,100,0
319.69318,319.89282,71,100,0
319.79736,319.997,69,100,0
319.90152,320.10117,73,100,0
320.00568,320.20532,76,100,0
320.10986,320.20532,73,100,0
320.21402,320.41367,73,100,0
320.31818,320.51782,76,100,0
320.42236,320.622,81,100,0
320.52652,320.622,76,100,0
320.63068,320.83032,73,100,0
320.73486,320.9345,75,100,0
320.83902,321.03867,82,100,0
320.94318,321.14282,75,100,0
321.04733,321.247,70,100,0
321.15152,321.35117,75,100,0
321.25568,321.45532,79,100,0
321.35983,321.5595,75,100,0
321.46402,321.66367,68,100,0
321.56818,321.76782,75,100,0
321.67233,321.872,80,100,0
321.77652,321.97617,75,100,0
321.88068,322.08032,68,100,0
321.98483,322.1845,73,100,0
322.08902,322.28867,77,100,0
322.19318,322.28867,73,100,0
322.29733,322.497,68,100,0
322.40152,322.60117,73,100,0
322.50568,322.70532,77,100,0
322.60983,322.8095,73,100,0
322.71402,322.91367,66,100,0
322.81818,323.01782,73,100,0
322.92233,323.122,78,100,0
323.02652,323.22617,73,100,0
323.13068,323.33032,66,100,0
323.23483,323.4345,71,100,0
323.33902,323.53867,75,100,0
323.44318,323.64282,71,100,0
323.54733,323.747,68,100,0
323.65152,323.85117,71,100,0
323.75568,323.95532,76,100,0
323.85983,323.95532,71,100,0
323.96402,324.16367,69,100,0
324.06818,324.26782,72,100,0
324.17233,324.372,76,100,0
324.27652,324.372,72,100,0
324.38068,324.58032,72,100,0
324.48483,324.6845,76,100,0
324.58902,324.78867,81,100,0
324.69318,324.89282,76,100,0
324.79733,324.997,72,100,0
324.90152,325.10117,78,100,0
325.00568,325.20532,81,100,0
325.10983,325.20532,78,100,0
325.21402,325.41367,78,100,0
325.31818,325.51782,81,100,0
325.42233,325.62198,84,100,0
325.52652,325.62198,81,100,0
325.63068,325.83032,84,120,0
325.73483,325.93448,81,120,0
325.83902,326.03867,78,120,0
325.94318,326.14282,81,120,0
326.04733,326.24698,84,120,0
326.15152,326.35117,81,120,0
326.25568,326.45532,78,120,0
326.35983,326.55948,81,120,0
326.46402,326.66367,84,120,0
326.56818,326.76782,81,120,0
326.67233,326.87198,78,120,0
326.77652,326.97617,81,120,0
326.88068,327.08032,84,120,0
326.98483,327.18448,81,120,0
327.08902,327.28867,78,120,0
327.19318,327.39282,81,120,0
327.29733,327.49698,84,120,0
327.4015,327.60117,81,120,0
327.50568,327.70532,78,120,0
327.60983,327.80948,81,120,0
327.714,327.91367,83,120,0
327.81818,328.01782,81,116,0
327.92233,328.12198,78,111,0
328.0265,328.23178,81,107,0
328.13068,328.34207,83,102,0
328.24097,328.45236,81,97,0
328.35126,328.56265,78,93,0
328.46155,328.67926,81,88,0
328.57184,328.79645,83,84,0
328.68903,328.91364,81,79,0
328.8062,329.03082,78,74,0
328.9234,329.03082,81,70,0
329.0406,329.33572,83,60,0
329.19684,329.4746,81,60,0
329.34442,329.61353,80,60,0
329.4833,329.7524,78,60,0
329.6222,329.8913,76,60,0
329.76108,330.03018,75,60,0
329.89996,330.16907,73,60,0
330.03885,330.30795,71,60,0
330.17773,330.44684,69,60,0
330.31665,330.5163,68,60,0
330.4208,330.62045,66,60,0
330.52496,330.7246,64,60,0
330.62915,330.8288,63,60,0
330.7333,331.1413,61,60,0
331.14996,332.48178,59,60,0
332.4922,332.80295,88,60,0
332.65884,332.94183,86,60,0
332.8116,333.08072,85,60,0
332.95053,333.2196,83,60,0
333.08942,333.3585,81,60,0
333.2283,333.4974,80,60,0
333.3672,333.6363,78,60,0
333.50607,333.77518,76,60,0
333.64496,333.91406,74,60,0
333.78384,333.9835,73,60,0
333.88803,334.08768,71,60,0
333.9922,334.19183,69,60,0
334.09634,334.296,68,60,0
334.20053,334.6085,66,60,0
334.6172,335.8585,64,60,0
335.8672,336.27518,73,110,0
335.8672,336.27518,76,110,0
335.8672,336.27518,81,110,0
335.8672,336.27518,85,110,0
337.53384,337.66406,58,110,0
337.67273,337.80295,59,110,0
337.8116,337.94183,61,110,0
337.9505,338.15018,63,110,0
338.0547,338.25433,64,110,0
338.15884,338.3585,66,110,0
338.263,338.46268,68,110,0
338.3672,338.56683,70,110,0
338.47134,338.671,71,110,0
338.5755,338.77515,73,110,0
338.6797,338.87933,75,110,0
338.78384,338.9835,76,110,0
338.9922,339.19183,58,110,0
339.3047,339.50433,59,120,0
339.40884,339.6085,61,120,0
339.513,339.71265,63,120,0
339.6172,339.81683,64,120,0
339.72134,339.921,66,120,0
339.8255,340.02515,68,120,0
339.9297,340.12933,69,120,0
340.03384,340.16406,71,120,0
340.17273,340.30295,73,120,0
340.3116,340.44183,75,120,0
340.4505,340.65015,76,120,0
340.5547,340.75433,78,120,0
340.65884,340.8585,80,120,0
340.763,340.8585,81,120,0
340.86716,341.06683,83,120,0
341.0755,341.27515,76,120,0
341.28384,341.4835,80,120,0
341.49216,341.69183,83,120,0
341.7005,341.9183,88,120,0
341.92776,342.14557,92,120,0
342.15506,342.39462,95,120,0
342.40506,342.69254,64,120,0
342.70505,342.8613,66,120,0
342.7884,342.94464,68,120,0
342.8717,343.02795,66,120,0
342.95505,343.1113,68,120,0
343.0384,343.19464,66,120,0
343.1217,343.27795,68,120,0
343.20505,343.3613,66,120,0
343.2884,343.44464,68,120,0
343.3717,343.52795,66,120,0
343.45505,343.6113,68,120,0
343.5384,343.69464,66,120,0
343.6217,343.77795,68,120,0
343.70505,343.8613,66,120,0
343.7884,343.94464,68,120,0
343.8717,344.02795,66,120,0
343.95505,344.1113,68,120,0
344.0384,344.19464,66,120,0
344.1217,344.27795,68,120,0
344.20505,344.3613,66,120,0
344.2884,344.44464,68,120,0
344.3717,344.52795,66,120,0
344.45505,344.69464,65,120,0
344.58005,344.69464,66,120,0
344.70505,344.8613,73,120,0
344.7884,344.94464,75,118,0
344.8717,345.02795,73,116,0
344.95505,345.1113,75,114,0
345.0384,345.19464,73,111,0
345.1217,345.27795,75,109,0
345.20505,345.3613,73,107,0
345.2884,345.44464,75,105,0
345.3717,345.52795,73,102,0
345.45505,345.6113,75,100,0
345.5384,345.69464,73,98,0
345.6217,345.77795,75,96,0
345.70505,345.8613,73,93,0
345.7884,345.94464,75,91,0
345.8717,346.02795,73,89,0
345.95505,346.1113,75,87,0
346.0384,346.19464,73,84,0
346.1217,346.27795,75,82,0
346.20505,346.3613,73,80,0
346.2884,346.44464,75,78,0
346.3717,346.52795,73,75,0
346.45505,346.69464,72,73,0
346.58005,346.69464,73,70,0
346.70505,347.1247,75,70,0
346.70505,347.55325,66,70,0
346.70505,347.55325,69,70,0
347.1336,347.55325,73,70,0
347.5622,347.98184,71,70,0
347.5622,348.4104,63,70,0
347.5622,348.4104,66,70,0
347.99075,348.4104,69,70,0
348.41934,350.1247,64,70,0
348.41934,350.1247,68,70,0
350.24075,350.55325,75,70,0
350.1336,350.98184,66,70,0
350.1872,350.98184,69,70,0
350.5622,350.98184,73,70,0
351.0979,351.4104,71,70,0
350.99075,351.83896,63,70,0
351.41934,351.83896,69,70,0
351.04434,351.89255,66,70,0
351.8479,353.55325,64,70,0
351.8479,353.55325,68,70,0
353.5622,355.28632,54,70,0
353.5622,355.28632,57,70,0
353.5622,355.28632,59,70,0
353.5622,355.28632,63,70,0
355.29565,355.75464,56,64,0
355.29565,355.75464,59,64,0
355.29565,355.75464,64,64,0
355.7644,356.2234,62,63,0
356.23315,356.72275,61,61,0
356.73315,357.25772,62,70,0
357.26886,358.17908,61,70,0
358.18777,359.01242,68,73,0
359.02112,359.84576,69,77,0
359.85443,360.67908,77,81,0
360.68777,361.51242,78,85,0
361.5211,362.34576,80,89,0
362.35443,363.17908,81,93,0
363.18777,364.01242,90,97,0
363.18777,364.01242,81,97,0
364.0211,365.26242,80,100,0
364.0211,365.26242,89,100,0
365.2711,365.67908,81,120,0
365.2711,365.67908,90,120,0
365.68774,366.09573,80,100,0
365.68774,366.09573,89,100,0
366.10443,366.51242,81,120,0
366.10443,366.51242,90,120,0
366.5211,366.96616,80,100,0
366.5211,366.96616,89,100,0
366.97565,367.4652,81,120,0
366.97565,367.4652,90,120,0
367.47565,367.9652,80,100,0
367.47565,367.9652,89,100,0
372.966,373.29742,81,100,0
373.30692,373.41107,79,100,0
373.42053,373.52472,78,100,0
373.47736,373.5815,79,100,0
373.53418,373.63834,78,100,0
373.591,373.69516,79,100,0
373.64783,373.78986,78,100,0
373.72357,373.86563,77,100,0
373.79932,373.94138,78,100,0
373.8751,374.2065,81,100,0
374.216,374.32016,79,100,0
374.32962,374.44052,78,100,0
374.3901,374.501,79,100,0
374.4506,374.5615,78,100,0
374.51108,374.62198,79,100,0
374.57156,374.72278,78,100,0
374.65222,374.80344,77,100,0
374.73285,374.89163,78,100,0
374.8135,375.20413,81,100,0
375.2153,375.33804,79,100,0
375.3492,376.24884,78,100,0
376.2583,377.15793,67,100,0
376.2583,377.15793,79,100,0
377.1674,378.04056,66,100,0
377.1674,378.04056,78,100,0
378.04974,379.0081,65,100,0
378.04974,379.0081,77,100,0
379.0185,380.30148,66,100,0
379.0185,380.30148,78,100,0
380.31015,380.71814,85,100,0
380.72684,381.13483,83,100,0
381.1435,381.55148,81,100,0
381.56015,381.65564,80,100,0
381.61224,381.70773,81,100,0
381.66434,381.75983,80,100,0
381.7164,381.8119,81,100,0
381.7685,381.8987,80,100,0
381.83795,381.96814,78,100,0
381.90738,382.0376,80,100,0
381.97684,382.17648,81,100,0
382.18515,382.38483,78,100,0
382.3935,382.80148,78,100,0
382.81015,384.05148,77,100,0
385.7268,385.85703,78,100,0
385.86572,385.9959,80,100,0
386.0046,386.1348,78,100,0
386.1435,386.27368,77,100,0
386.28238,386.4126,78,100,0
386.42126,386.55148,80,100,0
386.56015,386.69037,81,100,0
386.69904,386.82925,83,100,0
386.83792,386.96814,81,100,0
386.9768,387.10703,80,100,0
387.11572,387.2459,81,100,0
387.2546,387.3848,83,100,0
387.3935,387.52368,85,100,0
387.53238,387.66257,86,100,0
387.67126,387.80148,85,100,0
387.81015,387.94037,83,100,0
387.94904,388.07925,81,100,0
388.08792,388.21814,80,100,0
388.2268,388.35703,83,100,0
388.3657,388.4959,81,100,0
388.5046,388.6348,80,100,0
388.6435,388.77368,83,100,0
388.78238,388.91257,81,100,0
388.92126,389.05148,80,100,0
389.06015,389.46814,76,100,0
389.4768,390.71814,75,100,0
392.45407,392.90375,67,120,0
392.45407,392.90375,71,120,0
392.45407,392.90375,76,120,0
392.45407,392.90375,79,120,0
395.82907,396.02872,66,120,0
395.93326,396.1329,78,120,0
396.0374,396.23706,66,120,0
396.14157,396.34122,78,120,0
396.24576,396.4454,66,120,0
396.3499,396.54956,78,120,0
396.45407,396.65372,66,120,0
396.55826,396.7579,78,120,0
396.6624,396.86206,66,120,0
396.76657,396.96622,78,120,0
396.87076,397.0704,66,120,0
396.9749,397.17456,78,120,0
397.07907,397.27872,72,120,0
397.18326,397.3829,84,120,0
397.2874,397.48706,72,120,0
397.39157,397.59122,84,120,0
397.49573,397.6954,71,120,0
397.5999,397.79956,83,120,0
397.70407,397.90372,71,120,0
397.80823,398.0079,83,120,0
397.9124,398.11206,69,120,0
398.01657,398.21622,81,120,0
398.12073,398.3204,69,120,0
398.2249,398.42456,81,120,0
398.32907,398.52872,67,120,0
398.43323,398.6329,79,120,0
398.5374,398.73706,67,120,0
398.64157,398.84122,79,120,0
398.74573,398.9454,69,120,0
398.8499,399.04956,81,120,0
398.95407,399.15372,66,120,0
399.05823,399.15372,78,120,0
399.1624,399.36206,67,120,0
399.26657,399.46622,79,120,0
399.37073,399.5704,67,120,0
399.4749,399.67456,79,120,0
399.57907,399.77872,67,120,0
399.68323,399.8829,79,120,0
399.7874,399.98706,67,120,0
399.89157,400.09122,79,120,0
399.99573,400.1954,67,120,0
400.0999,400.29956,79,120,0
400.20407,400.40372,67,120,0
400.30823,400.5079,79,120,0
400.4124,400.61206,72,120,0
400.51657,400.71622,84,120,0
400.62073,400.8204,72,120,0
400.7249,400.92456,84,120,0
400.82907,401.02872,71,120,0
400.93323,401.1329,83,120,0
401.0374,401.23706,71,120,0
401.14157,401.34122,83,120,0
401.24573,401.4454,69,120,0
401.3499,401.54956,81,120,0
401.45407,401.65372,69,120,0
401.55823,401.75787,81,120,0
401.6624,401.86206,67,120,0
401.76657,401.96622,79,120,0
401.87073,402.07037,67,120,0
401.9749,402.17456,79,120,0
402.07907,402.27872,69,120,0
402.18323,402.38287,81,120,0
402.2874,402.48706,66,120,0
402.39157,402.59122,78,120,0
402.49573,402.69537,71,120,0
402.5999,402.79956,83,120,0
402.70407,402.90372,71,120,0
402.80823,403.00787,83,120,0
402.9124,403.11206,71,120,0
403.01657,403.21622,83,120,0
403.12073,403.32037,71,120,0
403.2249,403.42456,83,120,0
403.32907,403.52872,71,120,0
403.43323,403.63287,83,120,0
403.5374,403.73706,71,120,0
403.64157,403.84122,83,120,0
403.74573,403.94537,76,120,0
403.84988,404.04956,88,120,0
403.95407,404.15372,76,120,0
404.05823,404.25787,88,120,0
404.16238,404.36206,74,120,0
404.26657,404.46622,86,120,0
404.37073,404.57037,74,120,0
404.47488,404.67456,86,120,0
404.57907,404.77872,73,120,0
404.68323,404.88287,85,120,0
404.78738,404.98706,73,120,0
404.89157,405.09122,85,120,0
404.99573,405.19537,71,120,0
405.09988,405.29956,83,120,0
405.20407,405.40372,71,120,0
405.30823,405.50787,83,120,0
405.41238,405.61206,73,120,0
405.51657,405.71622,85,120,0
405.62073,405.82037,70,120,0
405.72488,405.82037,82,120,0
405.82907,405.92456,86,120,0
405.82907,405.92456,74,120,0
405.93323,406.02872,76,120,0
406.03738,406.13287,74,120,0
406.14157,406.23706,73,120,0
406.76657,406.86206,78,120,0
406.87073,406.96622,76,120,0
406.97488,407.07037,75,120,0
407.07907,407.17456,77,120,0
407.18323,407.27872,73,120,0
407.28738,407.38287,74,120,0
407.39157,407.48706,73,120,0
407.59988,407.69537,80,120,0
407.70407,407.79956,78,120,0
407.80823,407.90372,77,120,0
407.91238,408.00787,78,120,0
408.01657,408.11203,73,120,0
408.12073,408.21622,74,120,0
408.22488,408.32037,73,120,0
408.43323,408.52872,81,120,0
408.53738,408.63287,80,120,0
408.64157,408.73703,78,120,0
408.74573,408.84122,80,120,0
408.84988,408.94537,73,108,0
408.95407,409.04953,74,96,0
409.05823,409.15372,73,83,0
409.26657,409.36203,83,70,0
409.37073,409.46622,81,70,0
409.47488,409.57037,80,70,0
409.57907,409.67453,81,70,0
409.68323,409.77872,78,70,0
409.78738,409.88287,80,70,0
409.89157,409.98703,78,70,0
410.09988,410.19537,85,70,0
410.20404,410.29953,83,70,0
410.30823,410.40372,82,70,0
410.41238,410.50787,84,70,0
410.51654,410.61203,80,70,0
410.62073,410.71622,82,70,0
410.72488,410.82037,80,70,0
410.93323,411.02872,87,70,0
411.03738,411.13287,85,70,0
411.14154,411.23703,84,70,0
411.24573,411.34122,85,70,0
411.34988,411.44537,80,70,0
411.45404,411.54953,81,70,0
411.55823,411.65372,80,70,0
411.76654,411.86203,88,70,0
411.87073,411.96622,87,70,0
411.97488,412.07037,85,70,0
412.07904,412.17453,87,70,0
412.18323,412.27872,80,70,0
412.28738,412.38287,81,70,0
412.39154,412.48703,80,70,0
412.49573,412.90372,88,70,0
415.82904,417.07037,90,70,0
417.07904,417.48703,93,70,0
417.4957,417.9037,92,70,0
417.91238,418.32037,90,70,0
418.32904,418.73703,88,70,0
418.7457,418.94537,90,70,0
418.95404,419.1537,87,70,0
419.16238,419.57037,90,70,0
419.57904,420.82034,88,70,0
420.82904,420.95926,85,70,0
420.96793,421.09814,87,70,0
421.1068,421.23703,85,69,0
421.2457,421.37592,84,68,0
421.38458,421.5148,85,67,0
421.52347,421.6537,87,66,0
421.66238,421.75784,88,65,0
421.76654,421.86203,90,64,0
421.8707,421.9662,88,63,0
421.97488,422.07034,87,62,0
422.07904,422.20926,88,62,0
422.21793,422.34814,90,61,0
422.3568,422.48703,92,60,0
422.4957,422.62592,86,70,0
422.63458,422.7648,88,70,0
422.77347,422.9037,86,70,0
422.91235,423.04257,85,70,0
423.05127,423.18146,86,70,0
423.19016,423.32034,88,70,0
423.32904,423.42453,90,70,0
423.4332,423.5287,91,70,0
423.53735,423.63284,90,70,0
423.64154,423.73703,88,70,0
423.7457,423.87592,86,70,0
423.88458,424.0148,88,70,0
424.02347,424.1537,90,70,0
424.57904,424.70923,88,70,0
424.71793,424.84814,91,70,0
424.8568,424.98703,92,70,0
425.41235,425.54257,87,70,0
425.55124,425.68146,91,70,0
425.69016,425.82034,92,70,0
425.82904,425.95923,73,70,0
425.96793,426.0981,75,71,0
426.1068,426.23703,73,73,0
426.2457,426.37592,72,75,0
426.38458,426.5148,73,76,0
426.52347,426.6537,75,78,0
426.66235,426.79257,76,80,0
426.80124,426.93146,78,81,0
426.94016,427.07034,76,83,0
427.07904,427.20923,75,85,0
427.21793,427.3481,76,87,0
427.3568,427.487,78,88,0
427.4957,427.62592,80,90,0
427.63458,427.7648,81,92,0
427.77347,427.9037,80,93,0
427.91235,428.04257,79,95,0
428.05124,428.18146,80,97,0
428.19012,428.32034,81,98,0
428.32904,428.45923,82,100,0
428.46793,428.5981,83,102,0
428.6068,428.737,84,104,0
428.7457,428.8412,85,105,0
428.84985,428.94534,84,107,0
428.95404,429.0495,85,108,0
429.0582,429.1537,80,109,0
429.16235,429.362,83,110,0
429.2318,429.362,81,110,0
429.3707,429.57034,80,110,0
429.579,429.7787,83,110,0
429.64847,429.7787,81,110,0
429.78735,429.987,80,110,0
429.9957,430.19534,83,110,0
430.06512,430.19534,81,110,0
430.204,430.4037,80,110,0
430.41235,430.612,83,110,0
430.4818,430.612,81,110,0
430.6207,430.82034,80,110,0
430.829,431.237,69,110,0
430.829,431.237,73,110,0
430.829,431.237,78,110,0
430.829,431.237,81,110,0
432.57227,432.7837,71,80,0
432.6458,432.7837,69,79,0
432.79288,433.00427,68,76,0
433.01346,433.22485,71,72,0
433.08698,433.22485,69,71,0
433.23404,433.44543,68,69,0
433.45462,433.67923,71,65,0
433.53275,433.67923,69,64,0
433.689,433.9136,68,61,0
433.92337,434.16296,71,57,0
434.0067,434.16296,69,56,0
434.17337,434.41296,68,53,0
434.42337,434.91296,69,50,0
438.42337,439.41296,78,50,0
438.42337,439.41296,66,50,0
439.42337,440.41296,85,50,0
439.42337,440.41296,73,50,0
440.42337,441.41296,89,50,0
440.42337,441.41296,77,50,0
441.42337,442.41296,90,50,0
441.42337,442.41296,78,50,0
446.42337,447.41296,74,50,0
446.42337,447.41296,62,50,0
447.42337,448.41296,81,50,0
447.42337,448.41296,69,50,0
448.42337,449.41296,85,50,0
448.42337,449.41296,73,50,0
449.42337,450.41296,86,50,0
449.42337,450.41296,74,50,0
450.42337,452.41296,88,50,0
450.42337,452.41296,76,50,0
452.42337,454.41296,90,50,0
452.42337,454.41296,78,50,0
454.42337,456.41296,85,50,0
454.42337,456.41296,73,50,0
456.42337,456.53796,88,50,0
456.54837,456.66296,87,53,0
456.67337,456.77756,88,57,0
456.78702,456.89117,87,61,0
456.90067,457.00482,88,65,0
457.01428,457.11847,87,68,0
457.12793,457.2321,88,72,0
457.24158,457.34573,87,76,0
457.3552,457.45938,88,80,0
457.46884,457.573,86,84,0
457.58246,457.68665,88,87,0
457.6961,457.80026,86,91,0
457.80975,457.92432,88,95,0
457.93475,458.04932,86,99,0
458.05975,458.18253,88,103,0
458.19366,458.31644,86,106,0
458.3276,458.48386,85,110,0
458.49426,458.6401,88,70,0
458.64902,458.78296,86,70,0
458.7919,458.9258,85,70,0
458.93475,459.06866,83,70,0
459.0776,459.21152,81,70,0
459.22046,459.3544,80,70,0
459.3633,459.49725,78,70,0
459.50616,459.6401,76,70,0
459.64902,459.78296,74,70,0
459.7919,459.9258,73,70,0
459.93475,460.06866,71,70,0
460.0776,460.21152,69,70,0
460.22046,460.3544,68,70,0
460.3633,460.49725,69,70,0
460.50616,460.6401,70,70,0
460.64902,460.78296,71,70,0
460.7919,460.9258,72,70,0
460.93475,461.06866,73,70,0
461.0776,461.21152,74,70,0
461.22046,461.35437,75,70,0
461.3633,461.49725,76,70,0
461.50616,461.6401,73,70,0
461.64902,461.78296,71,70,0
461.79187,461.9258,70,70,0
461.93475,462.06866,79,70,0
462.0776,462.21152,78,70,0
462.22046,462.35437,71,70,0
462.3633,462.49725,79,70,0
462.50616,462.6401,78,70,0
462.64902,462.78296,73,70,0
462.79187,462.9258,79,70,0
462.93475,463.06866,78,70,0
463.0776,463.21152,77,70,0
463.22046,463.35437,78,70,0
463.3633,463.49725,86,70,0
463.50616,463.6401,75,70,0
463.64902,463.78296,84,70,0
463.79187,463.9258,83,70,0
463.93475,464.06866,84,70,0
464.0776,464.21152,74,70,0
464.22046,464.35437,78,70,0
464.3633,464.49725,76,70,0
464.50616,464.6401,83,70,0
464.64902,464.78296,80,70,0
464.79187,464.9258,74,70,0
464.93475,465.06866,80,70,0
465.0776,465.21152,74,70,0
465.22046,465.35437,73,70,0
465.3633,465.49722,83,70,0
465.50616,465.6401,81,70,0
465.64902,465.78296,80,70,0
465.79187,465.9258,83,70,0
465.93472,466.06866,81,70,0
466.0776,466.21152,80,70,0
466.22046,466.35437,83,70,0
466.3633,466.49722,81,70,0
466.50616,466.6401,80,70,0
466.64902,466.78296,83,70,0
466.79187,466.9258,81,70,0
466.93472,467.06866,80,70,0
467.0776,467.21152,83,70,0
467.22046,467.35437,80,70,0
467.3633,467.49722,76,70,0
467.50616,467.6401,80,70,0
467.64902,467.78296,76,70,0
467.79187,467.9258,75,70,0
467.93472,468.06866,76,70,0
468.0776,468.21152,75,70,0
468.22046,468.35437,74,70,0
468.3633,468.49722,76,70,0
468.50616,468.6401,74,70,0
468.64902,468.9258,73,70,0
468.79187,469.06866,76,70,0
468.93472,469.21152,73,70,0
469.0776,469.35437,74,70,0
469.22046,469.49722,76,70,0
469.3633,469.64008,74,70,0
469.50616,469.78296,73,70,0
469.64902,469.9258,76,70,0
469.79187,470.06866,73,70,0
469.93472,470.21152,69,70,0
470.07758,470.35437,76,70,0
470.22046,470.49722,69,70,0
470.3633,470.64008,68,70,0
470.50616,470.78296,71,70,0
470.64902,470.9258,68,70,0
470.79187,471.06866,64,70,0
470.93472,471.21152,68,70,0
471.07758,471.35437,64,70,0
471.22046,471.49722,63,70,0
471.3633,471.64008,64,70,0
471.50616,471.78296,63,70,0
471.64902,471.9258,62,70,0
471.79187,472.06866,64,70,0
471.93472,472.21152,62,70,0
472.07758,472.35437,61,70,0
472.22046,472.49722,64,70,0
472.3633,472.64008,61,70,0
472.50616,472.78296,62,70,0
472.64902,472.9258,64,70,0
472.79187,473.06866,62,70,0
472.93472,473.21152,61,70,0
473.07758,473.35437,64,70,0
473.22046,473.49722,61,70,0
473.3633,473.64008,57,70,0
473.50616,473.78296,61,70,0
473.64902,473.9258,64,70,0
473.79187,474.06866,56,70,0
473.93472,474.21152,59,71,0
474.07758,474.35437,64,73,0
474.22043,474.49722,61,75,0
474.3633,474.64008,64,76,0
474.50616,474.78293,69,78,0
474.64902,474.9258,68,80,0
474.79187,475.06866,73,81,0
474.93472,475.21152,76,83,0
475.07758,475.35437,73,85,0
475.22043,475.49722,76,87,0
475.3633,475.64008,81,88,0
475.50616,475.78293,80,90,0
475.64902,475.9258,83,92,0
475.79187,476.06866,88,93,0
475.93472,476.21152,81,95,0
476.07758,476.35437,85,97,0
476.22043,476.50534,88,98,0
476.3633,476.65686,80,100,0
476.5148,476.80838,83,102,0
476.66632,476.9741,88,104,0
476.81784,477.14075,81,105,0
476.9845,477.30743,85,107,0
477.15118,477.43243,88,109,0
477.44284,477.93243,80,110,0
477.44284,477.93243,76,110,0
477.44284,477.93243,88,110,0
477.44284,477.93243,83,110,0
488.07108,488.89575,69,120,0
488.90442,489.10406,76,100,0
489.11276,489.3124,74,100,0
489.21692,489.41656,76,100,0
489.32108,489.72906,77,120,0
489.73776,489.9374,76,100,0
489.94608,490.14575,71,100,0
490.05026,490.2499,72,100,0
490.15442,490.5624,74,120,0
490.57108,490.77072,72,100,0
490.77942,490.97906,68,100,0
490.88358,491.08322,69,100,0
490.98776,491.39572,71,120,0
491.40442,491.67352,57,120,0
491.5433,491.8124,60,100,0
491.6822,491.9513,64,100,0
491.82108,492.09018,57,100,0
491.95996,492.22906,60,100,0
492.09885,492.36795,64,100,0
492.23776,492.50684,57,100,0
492.37665,492.64572,60,100,0
492.51553,492.7846,64,100,0
492.65442,492.92352,57,120,0
492.7933,493.0624,62,100,0
492.9322,493.2013,65,100,0
493.07108,493.34018,57,100,0
493.20996,493.47906,60,100,0
493.34885,493.61795,64,100,0
493.48773,493.75684,56,120,0
493.62665,493.89572,59,100,0
493.76553,494.0346,64,100,0
493.90442,494.17352,57,95,0
494.0433,494.3124,60,91,0
494.1822,494.4513,64,87,0
494.32108,494.59018,52,83,0
494.45996,494.72906,57,79,0
494.59885,494.72906,64,75,0
494.73773,495.00684,56,70,0
494.87662,495.14572,59,70,0
495.01553,495.2846,62,70,0
495.15442,495.4235,65,70,0
495.2933,495.5624,64,70,0
495.4322,495.7013,62,70,0
495.57108,495.84018,60,70,0
495.70996,495.97906,64,70,0
495.84885,496.11795,69,70,0
495.98773,496.25684,72,70,0
496.12662,496.39572,71,72,0
496.26553,496.39572,69,75,0
496.40442,496.6735,68,78,0
496.5433,496.8124,71,81,0
496.6822,496.9513,74,84,0
496.82108,497.09018,77,87,0
496.95996,497.22906,76,90,0
497.09885,497.36795,74,93,0
497.23773,497.50684,72,96,0
497.37662,497.64572,76,99,0
497.5155,497.7846,81,102,0
497.65442,497.9235,84,104,0
497.7933,498.06238,83,107,0
497.9322,498.06238,81,110,0
498.07108,498.34018,80,110,0
498.20996,498.47906,83,110,0
498.34885,498.61795,74,110,0
498.48773,498.75684,77,110,0
498.62662,498.89572,76,110,0
498.7655,499.0346,74,110,0
498.90442,499.1735,72,110,0
499.0433,499.31238,76,110,0
499.1822,499.45126,69,110,0
499.32108,499.59018,72,110,0
499.45996,499.72906,71,110,0
499.59885,499.72906,69,110,0
499.73773,500.00684,68,110,0
499.87662,500.14572,71,110,0
500.0155,500.2846,62,110,0
500.1544,500.4235,65,110,0
500.2933,500.56238,64,110,0
500.4322,500.70126,62,110,0
500.57108,500.84018,60,110,0
500.70996,500.97906,64,110,0
500.84885,501.11795,57,110,0
500.98773,501.25684,60,110,0
501.12662,501.39572,59,110,0
501.2655,501.39572,57,110,0
501.4044,501.5346,52,110,0
501.54327,501.6735,53,110,0
501.6822,501.81238,52,110,0
501.82108,501.95126,51,110,0
501.95996,502.09015,52,110,0
502.09885,502.22906,51,110,0
502.23773,502.36795,52,110,0
502.37662,502.50684,53,110,0
502.5155,502.64572,52,110,0
502.6544,502.7846,51,100,0
502.79327,502.9235,52,90,0
502.9322,503.06238,51,80,0
503.07108,503.47903,52,70,0
508.39722,509.24542,88,70,0
509.25436,510.10257,85,70,0
510.1115,510.53113,81,70,0
510.54007,510.95972,76,70,0
510.96863,511.38828,73,70,0
511.39722,511.8457,76,70,0
511.85547,513.3138,71,70,0
511.85547,513.3138,74,70,0
515.5515,516.3997,86,70,0
516.4086,517.6854,83,70,0
517.69434,518.114,71,70,0
518.1229,518.54254,68,70,0
518.5515,518.9711,71,70,0
518.98004,519.82825,64,70,0
518.98004,519.82825,71,70,0
519.8372,520.04254,64,70,0
519.8372,520.04254,69,70,0
520.0515,520.25684,69,70,0
520.26575,520.4711,71,70,0
520.48004,520.6854,73,70,0
520.69434,520.8997,74,70,0
520.9086,521.11395,69,70,0
521.1229,521.32825,74,70,0
521.3372,521.54254,72,70,0
521.55145,521.75684,73,70,0
521.76575,521.9711,69,70,0
521.98004,522.1854,71,70,0
522.19434,522.3997,73,70,0
522.4086,522.61395,74,70,0
522.6229,522.82825,69,70,0
522.8372,523.04254,74,70,0
523.05145,523.25684,72,70,0
523.26575,523.4711,73,70,0
523.48004,523.6854,69,70,0
523.69434,523.8997,71,70,0
523.9086,524.11395,73,70,0
524.1229,524.32825,74,70,0
524.3372,524.54254,69,70,0
524.55145,524.75684,73,70,0
524.76575,524.9711,69,70,0
524.98004,525.1854,71,70,0
525.19434,525.3997,64,70,0
525.4086,525.61395,69,70,0
525.6229,525.82825,64,70,0
525.8372,526.04254,68,70,0
526.05145,526.25684,64,70,0
526.26575,526.4711,68,70,0
526.48004,526.6854,64,70,0
526.69434,526.8997,66,70,0
526.69434,526.8997,69,70,0
526.9086,527.11395,63,70,0
527.1229,527.32825,66,70,0
527.1229,527.32825,69,70,0
527.3372,527.54254,63,70,0
527.55145,527.9711,64,70,0
527.55145,527.9711,68,70,0
529.3729,529.59076,57,70,0
529.6002,529.8056,59,70,0
529.8145,530.0199,61,70,0
530.0288,530.23413,62,70,0
530.2431,530.4484,64,70,0
530.4574,530.6627,66,70,0
530.67163,530.877,68,70,0
530.8859,531.0913,69,70,0
531.1002,531.3056,71,70,0
531.3145,531.5199,73,70,0
531.5288,531.73413,74,70,0
531.7431,531.9484,76,70,0
531.9574,532.1627,78,70,0
532.17163,532.377,80,70,0
532.3859,532.5913,81,70,0
532.6002,532.8056,83,70,0
532.8145,533.01984,85,70,0
533.0288,533.23413,86,70,0
533.2431,533.4484,87,70,0
533.45734,533.6627,88,70,0
533.67163,533.877,87,70,0
533.8859,534.0913,88,70,0
534.1002,534.3056,85,70,0
534.3145,534.4127,81,70,0
534.3681,534.4663,80,70,0
534.42163,534.51984,81,70,0
534.4752,534.5734,83,70,0
534.5288,535.377,81,70,0
535.3859,535.8056,80,70,0
536.2431,536.4484,64,70,0
536.2431,536.4484,52,70,0
536.45734,536.6627,66,70,0
536.45734,536.6627,54,70,0
536.67163,536.877,68,70,0
536.67163,536.877,56,70,0
536.8859,537.0913,69,70,0
536.8859,537.0913,57,70,0
537.1002,537.3056,71,70,0
537.1002,537.3056,59,70,0
537.3145,537.51984,73,70,0
537.3145,537.51984,61,70,0
537.5288,537.73413,74,70,0
537.5288,537.73413,62,70,0
537.7431,537.9484,76,70,0
537.7431,537.9484,64,70,0
537.95734,538.1627,78,70,0
537.95734,538.1627,66,70,0
538.17163,538.377,80,70,0
538.17163,538.377,68,70,0
538.3859,538.5913,81,70,0
538.3859,538.5913,69,70,0
538.6002,538.8056,83,70,0
538.6002,538.8056,71,70,0
538.8145,539.01984,85,70,0
538.8145,539.01984,73,70,0
539.0288,539.23413,86,70,0
539.0288,539.23413,74,70,0
539.2431,539.4484,88,70,0
539.2431,539.4484,76,70,0
539.45734,539.6627,90,70,0
539.45734,539.6627,78,70,0
539.67163,539.877,92,70,0
539.67163,539.877,80,70,0
539.8859,540.0913,93,70,0
539.8859,540.0913,81,70,0
540.1002,540.3056,83,70,0
540.3145,540.51984,85,70,0
540.5288,540.73413,86,70,0
540.7431,540.9484,83,70,0
540.95734,541.1627,80,70,0
541.17163,541.26984,76,70,0
541.2252,541.3234,73,70,0
541.2788,541.377,74,70,0
541.33234,541.4306,76,70,0
541.3859,542.23413,74,70,0
542.24304,542.4484,73,70,0
542.45734,542.6627,76,70,0
542.67163,542.877,81,70,0
542.8859,543.0913,80,70,0
543.1002,543.9484,78,70,0
543.95734,544.1627,76,70,0
544.17163,544.26984,76,70,0
544.2252,544.3234,78,70,0
544.2788,544.377,76,70,0
544.33234,544.43054,78,70,0
544.3859,544.5913,81,70,0
544.6002,544.80554,80,70,0
544.8145,545.6627,78,70,0
545.67163,545.877,76,70,0
545.8859,545.98413,76,70,0
545.9395,546.0377,78,70,0
545.99304,546.0913,76,70,0
546.04663,546.14484,78,70,0
546.1002,546.30554,81,70,0
546.3145,546.51984,80,70,0
546.5288,546.73413,78,70,0
546.74304,546.9484,74,70,0
546.95734,547.1627,78,70,0
547.17163,547.377,76,70,0
547.3859,547.5913,74,70,0
548.45734,548.6627,68,70,0
548.67163,548.877,71,70,0
548.8859,549.0913,69,70,0
549.1002,549.30554,68,70,0
550.17163,550.377,73,70,0
550.3859,550.59125,76,70,0
550.6002,550.80554,74,70,0
550.8145,551.01984,73,70,0
551.02875,551.23413,69,70,0
551.24304,551.4484,74,70,0
551.45734,551.6627,71,70,0
552.1002,552.51984,61,70,0
552.1002,552.51984,64,70,0
552.1002,552.51984,69,70,0
552.98334,553.4571,62,70,0
552.98334,553.4571,64,70,0
552.98334,553.4571,68,70,0
553.46716,553.8752,61,100,0
553.46716,553.8752,64,100,0
553.46716,553.8752,69,100,0
553.88385,554.7085,69,100,0
554.71716,554.8127,71,100,0
554.7693,554.86475,73,100,0
554.82135,554.9169,71,100,0
554.8734,554.96893,73,100,0
554.92554,555.0557,71,100,0
554.995,555.1252,69,100,0
555.0644,555.19464,71,100,0
555.13385,555.5419,73,125,0
555.55054,556.3752,69,100,0
556.38385,556.4793,71,100,0
556.4359,556.53143,73,100,0
556.48804,556.5835,71,100,0
556.5401,556.63556,73,100,0
556.59216,556.7224,71,100,0
556.6616,556.7918,69,100,0
556.7311,556.86127,71,100,0
556.80054,557.2085,73,125,0
557.21716,557.521,69,100,0
557.52966,557.6252,68,100,0
557.63385,558.0418,66,125,0
558.05054,558.3543,74,100,0
558.36304,558.4585,73,100,0
558.46716,558.8752,72,125,0
558.88385,559.1877,80,100,0
558.88385,559.1877,68,100,0
559.19635,559.2918,78,100,0
559.19635,559.2918,66,100,0
559.30054,559.7085,77,125,0
559.30054,559.7085,65,125,0
559.71716,560.1252,78,100,0
559.71716,560.1252,66,100,0
560.13385,560.5418,76,125,0
560.13385,560.5418,64,125,0
560.55054,560.9585,75,100,0
560.55054,560.9585,63,100,0
560.96716,561.1668,78,125,0
560.96716,561.1668,66,125,0
561.17554,561.3752,76,100,0
561.17554,561.3752,64,100,0
561.38385,561.5835,74,100,0
561.38385,561.5835,62,100,0
561.59216,561.7918,73,100,0
561.59216,561.7918,61,100,0
561.80054,562.2085,76,125,0
561.80054,562.2085,64,125,0
562.21716,563.0418,74,100,0
562.21716,563.0418,62,100,0
563.05054,563.4585,71,100,0
563.05054,563.4585,59,100,0
563.46716,563.6668,69,100,0
563.67554,563.8752,81,100,0
563.77966,563.9793,80,100,0
563.88385,564.0835,81,100,0
563.98804,564.1877,76,100,0
564.09216,564.2918,73,100,0
564.19635,564.396,76,100,0
564.30054,564.5002,73,100,0
564.40466,564.6043,76,100,0
564.50885,564.7085,81,100,0
564.613,564.8127,76,100,0
564.71716,564.9168,74,100,0
564.82135,565.021,76,100,0
564.9255,565.1252,80,100,0
565.02966,565.1252,76,100,0
565.13385,565.3335,73,100,0
565.238,565.4377,76,100,0
565.34216,565.5418,81,100,0
565.44635,565.646,80,100,0
565.5505,565.7502,81,100,0
565.65466,565.8543,76,100,0
565.75885,565.9585,73,100,0
565.863,566.0627,76,100,0
565.96716,566.1668,73,100,0
566.07135,566.271,76,100,0
566.1755,566.3752,81,100,0
566.27966,566.4793,76,100,0
566.38385,566.5835,74,100,0
566.488,566.6877,76,100,0
566.59216,566.7918,80,100,0
566.69635,566.7918,76,100,0
566.8005,567.0002,73,100,0
566.90466,567.1043,76,100,0
567.00885,567.2085,81,100,0
567.113,567.3127,76,100,0
567.21716,567.4168,73,100,0
567.32135,567.521,76,100,0
567.4255,567.6252,81,100,0
567.52966,567.7293,76,100,0
567.63385,567.8335,74,100,0
567.738,567.9377,78,100,0
567.84216,568.0418,81,100,0
567.94635,568.146,78,100,0
568.0505,568.2502,74,100,0
568.15466,568.3543,78,100,0
568.25885,568.4585,81,100,0
568.363,568.4585,76,100,0
568.46716,568.6668,75,100,0
568.57135,568.771,78,100,0
568.6755,568.8751,80,100,0
568.77966,568.9793,78,100,0
568.88385,569.0835,75,100,0
568.988,569.1876,80,100,0
569.09216,569.2918,84,100,0
569.19635,569.396,80,100,0
569.3005,569.5001,73,100,0
569.40466,569.6043,80,100,0
569.50885,569.7085,83,100,0
569.613,569.8126,80,100,0
569.71716,569.9168,73,100,0
569.82135,570.021,78,100,0
569.9255,570.1251,82,100,0
570.02966,570.1251,78,100,0
570.13385,570.3335,73,100,0
570.238,570.4376,78,100,0
570.34216,570.5418,81,100,0
570.44635,570.646,78,100,0
570.5505,570.7501,71,100,0
570.65466,570.8543,78,100,0
570.75885,570.9585,81,100,0
570.863,571.0626,78,100,0
570.96716,571.1668,71,100,0
571.07135,571.271,76,100,0
571.1755,571.3751,80,100,0
571.27966,571.4793,76,100,0
571.38385,571.5835,73,100,0
571.488,571.6876,76,100,0
571.59216,571.7918,81,100,0
571.69635,571.7918,76,100,0
571.8005,572.0001,74,100,0
571.90466,572.1043,77,100,0
572.00885,572.2085,81,100,0
572.113,572.2085,77,100,0
572.21716,572.4168,77,100,0
572.32135,572.521,81,100,0
572.4255,572.6251,86,100,0
572.52966,572.7293,81,100,0
572.63385,572.8335,77,100,0
572.738,572.9376,83,100,0
572.84216,573.0418,86,100,0
572.94635,573.0418,83,100,0
573.0505,573.2501,83,100,0
573.15466,573.3543,86,106,0
573.25885,573.4585,89,113,0
573.363,573.4585,86,120,0
573.46716,573.6668,89,120,0
573.57135,573.771,86,120,0
573.6755,573.8751,83,120,0
573.77966,573.9793,86,120,0
573.88385,574.0835,89,120,0
573.988,574.1876,86,120,0
574.09216,574.2918,83,120,0
574.19635,574.396,86,120,0
574.3005,574.5001,89,120,0
574.40466,574.6043,86,120,0
574.50885,574.7085,83,120,0
574.613,574.8126,86,120,0
574.71716,574.9168,89,120,0
574.82135,575.021,86,120,0
574.9255,575.1251,83,120,0
575.02966,575.2293,86,120,0
575.13385,575.3335,89,120,0
575.238,575.4376,86,120,0
575.34216,575.5418,83,120,0
575.44635,575.646,86,120,0
575.5505,575.7501,88,120,0
575.65466,575.8543,86,115,0
575.75885,575.9585,83,110,0
575.863,576.06824,86,105,0
575.96716,576.1785,88,100,0
576.07745,576.2888,86,95,0
576.18774,576.3992,83,90,0
576.29803,576.51575,86,85,0
576.4083,576.63293,88,80,0
576.5255,576.7501,86,75,0
576.6427,576.8673,83,70,0
576.7599,576.8673,86,65,0
576.8771,577.02356,88,60,0
577.0333,577.17224,86,60,0
577.1809,577.3111,85,60,0
577.31976,577.45,83,60,0
577.4587,577.58887,81,60,0
577.5976,577.7278,80,60,0
577.73645,577.86664,78,60,0
577.87537,578.00555,76,60,0
578.0142,578.1445,74,60,0
578.15314,578.3528,73,60,0
578.25726,578.457,71,60,0
578.36145,578.5611,69,60,0
578.46564,578.5611,68,60,0
578.56976,578.9778,66,60,0
578.98645,580.2278,64,60,0
580.23645,580.36664,83,60,0
580.37537,580.50555,81,60,0
580.5142,580.6444,79,60,0
580.65314,580.7833,78,60,0
580.792,580.92224,76,60,0
580.9309,581.0611,74,60,0
581.06976,581.2694,73,60,0
581.17395,581.3736,71,60,0
581.27814,581.4778,69,60,0
581.38226,581.5819,67,60,0
581.48645,581.6861,66,60,0
581.59064,581.7903,64,60,0
581.69476,581.8944,62,60,0
581.79895,581.8944,61,60,0
581.90314,582.3111,59,60,0
582.31976,583.5611,57,60,0
583.56976,583.9778,66,100,0
583.56976,583.9778,69,100,0
583.56976,583.9778,74,100,0
583.56976,583.9778,78,100,0
585.23645,585.36664,63,100,0
585.3753,585.50555,64,100,0
585.5142,585.6444,66,100,0
585.65314,585.7486,68,100,0
585.75726,585.8528,69,100,0
585.86145,585.9569,71,100,0
585.96564,586.0611,73,100,0
586.06976,586.1653,75,100,0
586.17395,586.2694,76,100,0
586.27814,586.3736,78,100,0
586.38226,586.4778,80,100,0
586.48645,586.6861,81,100,0
586.69476,586.8944,63,100,0
587.00726,587.1028,64,120,0
587.11145,587.2069,66,120,0
587.2156,587.3111,68,120,0
587.31976,587.4153,69,120,0
587.42395,587.5194,71,120,0
587.5281,587.6236,73,120,0
587.63226,587.7278,74,120,0
587.73645,587.86664,76,120,0
587.8753,588.00555,78,120,0
588.0142,588.1444,80,120,0
588.1531,588.2486,81,120,0
588.25726,588.3528,83,120,0
588.36145,588.4569,85,120,0
588.4656,588.5611,86,120,0
588.56976,588.7694,88,120,0
588.7781,588.9778,73,120,0
588.98645,589.1861,76,120,0
589.19476,589.3944,81,120,0
589.4031,589.6209,85,120,0
589.6304,589.8482,88,120,0
589.85767,590.0972,93,120,0
590.10767,590.39514,69,120,0
590.40765,590.54553,71,120,0
590.4812,590.619,73,120,0
590.5547,590.69257,71,120,0
590.62823,590.7661,73,120,0
590.7018,590.83966,71,120,0
590.77527,590.91315,73,120,0
590.8488,590.9867,71,120,0
590.92236,591.06024,73,120,0
590.9959,591.1337,71,120,0
591.0694,591.2073,73,120,0
591.14294,591.2808,71,120,0
591.2165,591.3543,73,120,0
591.29,591.42786,71,120,0
591.3635,591.5014,73,120,0
591.4371,591.57495,71,120,0
591.51056,591.64844,73,120,0
591.5841,591.722,71,120,0
591.65765,591.79553,73,120,0
591.7312,591.869,71,120,0
591.8047,591.94257,73,120,0
591.87823,592.0161,71,120,0
591.9518,592.16315,70,120,0
592.0621,592.16315,71,120,0
592.17236,592.31024,78,120,0
592.2459,592.3837,80,118,0
592.3194,592.4573,78,116,0
592.39294,592.5308,80,114,0
592.4665,592.6043,78,111,0
592.54,592.67786,80,109,0
592.6135,592.7514,78,107,0
592.6871,592.82495,80,105,0
592.76056,592.89844,78,102,0
592.8341,592.972,80,100,0
592.90765,593.04553,78,98,0
592.9812,593.119,80,96,0
593.0547,593.19257,78,93,0
593.12823,593.2661,80,91,0
593.2018,593.33966,78,89,0
593.27527,593.41315,80,87,0
593.3488,593.4867,78,84,0
593.42236,593.56024,80,82,0
593.49585,593.6337,78,80,0
593.5694,593.7073,80,78,0
593.64294,593.7808,78,75,0
593.7165,593.92786,77,73,0
593.8268,593.92786,78,70,0
593.9371,594.369,80,70,0
593.9371,594.81024,74,70,0
593.9371,594.81024,71,70,0
594.37823,594.81024,78,70,0
594.8194,595.2514,76,70,0
594.8194,595.69257,68,70,0
594.8194,595.69257,71,70,0
595.26056,595.69257,74,70,0
595.7018,597.4573,69,70,0
595.7018,597.4573,73,70,0
597.5768,597.89844,80,70,0
597.4665,598.3396,71,70,0
597.5216,598.3396,74,70,0
597.90765,598.3396,78,70,0
598.4591,598.7808,76,70,0
598.3488,599.222,68,70,0
598.404,599.222,71,70,0
598.79,599.222,74,70,0
599.23114,600.9867,69,70,0
599.23114,600.9867,73,70,0
600.99585,602.7514,59,70,0
600.99585,602.7514,62,70,0
600.99585,602.7514,64,70,0
600.99585,602.7514,68,70,0
602.76056,603.19257,61,65,0
602.76056,603.19257,64,65,0
602.76056,603.19257,69,65,0
603.2018,603.6337,67,62,0
603.64294,604.1019,66,58,0
604.1117,604.60126,64,55,0
604.6117,605.48486,62,50,0
605.494,606.3672,69,50,0
606.3764,607.69073,71,50,0
607.6999,608.1319,66,50,0
608.1411,608.57306,69,50,0
608.5823,609.0142,67,50,0
609.02344,609.45544,66,50,0
609.4646,609.6892,67,50,0
609.699,609.9236,64,50,0
609.93335,610.833,62,60,0
610.84247,611.28754,61,60,0
611.297,611.4012,67,60,0
611.3538,611.458,69,60,0
611.41064,611.51483,67,60,0
611.46747,611.5716,69,60,0
611.5243,611.6284,67,60,0
611.5811,611.68524,69,60,0
611.6379,611.74207,67,60,0
611.6947,611.7989,69,60,0
611.7515,612.1966,71,60,0
612.2061,612.6512,69,60,0
612.66064,613.1057,67,60,0
613.1152,613.333,69,60,0
613.34247,613.56024,66,60,0
613.5697,614.46936,64,60,0
614.4788,614.9239,63,60,0
614.93335,615.03754,74,60,0
614.9902,615.09436,76,60,0
615.047,615.1512,74,60,0
615.1038,615.208,76,60,0
615.16064,615.2648,74,60,0
615.21747,615.3216,76,60,0
615.2743,615.3784,74,60,0
615.3311,615.43524,76,60,0
615.3879,615.833,77,60,0
615.84247,616.28754,76,60,0
616.297,616.74207,74,60,0
616.7515,616.96936,76,60,0
616.9788,617.1966,71,60,0
617.20605,618.1057,74,60,0
618.1152,618.56024,73,60,0
618.5697,618.6739,79,60,0
618.6265,618.7307,81,60,0
618.68335,618.78754,79,60,0
618.7402,618.84436,81,60,0
618.797,618.9012,79,60,0
618.8538,618.95795,81,60,0
618.91064,619.0148,79,60,0
618.96747,619.0716,81,60,0
619.0243,619.46936,82,60,0
619.4788,619.9239,81,60,0
619.93335,620.3784,80,60,0
620.3879,620.6057,81,60,0
620.6152,620.83295,74,60,0
620.84247,621.2809,83,60,0
621.2902,621.72864,81,60,0
621.738,622.1764,80,60,0
622.1857,622.40027,81,60,0
622.4096,622.62415,72,60,0
622.6335,623.0655,83,60,0
623.07465,623.50665,81,60,0
623.51587,623.9478,80,60,0
623.95703,624.1684,81,60,0
624.1776,624.389,77,60,0
624.3982,624.8239,83,60,0
624.83295,625.2587,81,60,0
625.26776,625.6935,80,60,0
625.7025,625.9109,81,60,0
625.9199,626.12823,76,60,0
626.1373,626.2732,83,50,0
626.2822,626.4181,81,50,0
626.4272,626.56305,80,51,0
626.5721,626.78046,81,52,0
626.7895,626.9978,74,53,0
627.0069,627.14276,83,54,0
627.1518,627.28766,81,55,0
627.29675,627.4326,80,55,0
627.44165,627.65,81,56,0
627.65906,627.8674,74,57,0
627.87646,628.0104,83,58,0
628.0193,628.15326,81,59,0
628.1622,628.2961,80,60,0
628.305,628.5104,81,61,0
628.5193,628.7247,72,62,0
628.7336,628.8675,83,63,0
628.87646,629.0104,81,64,0
629.0193,629.15326,80,64,0
629.1622,629.3675,81,65,0
629.37646,629.5818,72,66,0
629.59076,629.7228,83,67,0
629.73157,629.86365,81,68,0
629.87244,630.00446,80,69,0
630.01324,630.21576,81,69,0
630.22455,630.427,77,71,0
630.4358,630.5679,83,72,0
630.57666,630.7087,81,72,0
630.71747,630.84955,80,73,0
630.85834,631.0608,81,74,0
631.0696,631.2721,77,75,0
631.2809,631.4111,83,76,0
631.41974,631.55,81,77,0
631.55865,631.68884,80,78,0
631.6975,631.8972,81,78,0
631.9059,632.1055,76,79,0
632.1142,632.2444,83,81,0
632.2531,632.3833,81,81,0
632.39197,632.5222,80,82,0
632.5309,632.7305,81,83,0
632.7392,632.93884,76,84,0
632.9475,633.07776,81,85,0
633.0864,633.2166,80,86,0
633.22534,633.3555,78,86,0
633.3642,633.56384,80,87,0
633.5725,633.7722,76,88,0
633.7809,633.9111,83,89,0
633.91974,634.05,81,90,0
634.05865,634.18884,80,91,0
634.1975,634.3972,81,92,0
634.4059,634.6055,76,93,0
634.6142,634.7444,84,94,0
634.7531,634.8833,83,95,0
634.89197,635.02216,82,95,0
635.0309,635.2305,83,96,0
635.2392,635.43884,76,97,0
635.4475,635.57776,86,98,0
635.5864,635.7166,85,99,0
635.7253,635.8555,84,100,0
635.8642,636.06384,85,100,0
636.0725,636.27216,81,102,0
636.2809,636.4111,88,103,0
636.41974,636.55,86,103,0
636.55865,636.68884,85,104,0
636.6975,636.89716,86,105,0
636.9059,637.1055,81,106,0
637.1142,637.2562,88,107,0
637.2657,637.4078,87,108,0
637.41724,637.55927,86,109,0
637.5687,637.8006,87,109,0
637.81067,638.0674,81,110,0
638.07855,638.37366,88,120,0
638.2348,638.5126,86,120,0
638.3823,638.6514,85,120,0
638.52124,638.79034,83,120,0
638.66016,638.9292,81,120,0
638.799,639.0681,80,120,0
638.9379,639.20703,78,120,0
639.0768,639.3459,76,120,0
639.2157,639.4848,74,120,0
639.35455,639.49347,73,120,0
639.4327,639.5716,71,120,0
639.5108,639.64105,69,120,0
639.5889,639.7192,68,120,0
639.66705,639.77124,66,120,0
639.77124,640.1792,64,120,0
640.60455,641.0126,68,120,0
640.60455,641.0126,71,120,0
640.60455,641.0126,74,120,0
640.60455,641.0126,76,120,0
640.60455,641.0126,80,120,0
641.4379,642.2626,69,120,0
641.4379,642.2626,81,120,0
642.27124,643.0959,76,120,0
642.27124,643.0959,88,120,0
643.10455,644.35455,78,120,0
643.10455,644.35455,90,120,0
644.35455,644.77124,73,120,0
644.35455,644.77124,85,120,0
644.77124,645.1879,76,120,0
644.77124,645.1879,88,120,0
645.1879,645.60455,74,120,0
645.1879,645.60455,86,120,0
645.60455,646.02124,73,120,0
645.60455,646.02124,85,120,0
646.02124,646.22955,74,120,0
646.02124,646.22955,86,120,0
646.22955,646.43787,71,120,0
646.22955,646.43787,83,120,0
646.43787,647.2626,69,120,0
646.43787,647.2626,81,120,0
647.27124,647.68787,68,120,0
647.27124,647.68787,80,120,0
647.68787,648.10455,64,120,0
647.68787,648.10455,76,120,0
648.10455,648.52124,69,120,0
648.10455,648.52124,81,120,0
648.52124,648.93787,66,120,0
648.52124,648.93787,78,120,0
648.93787,649.3791,61,120,0
648.93787,649.3791,73,120,0
649.3791,649.84784,63,120,0
649.3791,649.84784,75,120,0
649.84784,651.1246,64,120,0
649.84784,651.1246,76,120,0
651.5621,653.26746,59,70,0
651.5621,653.26746,62,70,0
651.5621,653.26746,64,70,0
653.27637,654.55316,57,70,0
653.27637,654.55316,61,70,0
653.27637,654.55316,64,70,0
654.5621,654.98175,68,70,0
654.99066,655.41034,69,70,0
655.41925,655.83887,66,70,0
655.84784,656.28625,61,70,0
656.2956,656.7546,63,70,0
656.76434,658.46967,64,70,0
658.4786,658.68396,64,70,0
658.58575,658.7911,76,70,0
658.6929,658.89825,66,70,0
658.80005,659.0054,76,70,0
658.90717,659.11255,68,70,0
659.01434,659.21967,76,70,0
659.12146,659.32684,69,70,0
659.2286,659.43396,76,70,0
659.33575,659.5411,71,70,0
659.4429,659.64825,76,70,0
659.55005,659.7554,73,70,0
659.65717,659.86255,76,70,0
659.76434,659.96967,74,70,0
659.87146,660.07684,76,70,0
659.9786,660.18396,75,70,0
660.08575,660.18396,76,70,0
660.1929,660.39825,73,70,0
660.30005,660.5054,85,70,0
660.40717,660.61255,74,70,0
660.51434,660.71967,85,70,0
660.62146,660.82684,76,70,0
660.7286,660.93396,85,70,0
660.83575,661.0411,78,70,0
660.9429,661.14825,85,70,0
661.05005,661.2554,80,70,0
661.15717,661.36255,85,70,0
661.26434,661.46967,81,70,0
661.37146,661.57684,85,70,0
661.4786,661.68396,83,70,0
661.58575,661.7911,85,70,0
661.6929,661.89825,84,70,0
661.80005,661.89825,85,70,0
661.90717,662.1068,76,70,0
662.01135,662.211,88,70,0
662.1155,662.3152,78,70,0
662.21967,662.4193,88,70,0
662.32385,662.5235,80,70,0
662.428,662.6277,88,70,0
662.53217,662.7318,81,70,0
662.63635,662.836,88,70,0
662.7405,662.9402,83,70,0
662.84467,663.0443,88,70,0
662.94885,663.1485,85,70,0
663.053,663.2527,88,70,0
663.15717,663.3568,86,70,0
663.26135,663.461,88,70,0
663.3655,663.5652,87,70,0
663.46967,663.5652,88,70,0
663.57385,663.7735,81,70,0
663.57385,663.7735,85,70,0
663.678,663.8777,88,70,0
663.78217,663.9818,90,70,0
663.88635,664.086,88,70,0
663.9905,664.1902,81,70,0
663.9905,664.1902,85,70,0
664.09467,664.2943,88,70,0
664.19885,664.3985,90,70,0
664.303,664.5027,88,70,0
664.40717,664.6068,83,70,0
664.40717,664.6068,86,70,0
664.51135,664.711,88,70,0
664.6155,664.8152,90,70,0
664.71967,664.9193,88,70,0
664.82385,665.0235,83,70,0
664.82385,665.0235,86,70,0
664.928,665.1276,88,70,0
665.03217,665.2318,90,70,0
665.13635,665.336,88,70,0
665.2405,665.4401,81,70,0
665.2405,665.4401,85,70,0
665.34467,665.5443,88,70,0
665.44885,665.6485,90,70,0
665.553,665.7526,88,70,0
665.65717,665.8568,81,70,0
665.65717,665.8568,85,70,0
665.76135,665.961,88,70,0
665.8655,666.0651,90,70,0
665.96967,666.1693,88,70,0
666.07385,666.2735,83,70,0
666.07385,666.2735,86,70,0
666.178,666.3776,88,70,0
666.28217,666.4818,90,70,0
666.38635,666.586,88,70,0
666.4905,666.6901,83,70,0
666.4905,666.6901,86,70,0
666.59467,666.7943,88,70,0
666.69885,666.8985,90,70,0
666.803,666.8985,88,70,0
666.90717,667.03735,81,70,0
666.90717,667.03735,85,70,0
667.0461,667.1763,90,70,0
667.18494,667.3151,88,69,0
667.32385,667.45404,81,68,0
667.32385,667.45404,85,68,0
667.4627,667.59296,90,67,0
667.6016,667.7318,88,66,0
667.7405,667.8707,81,65,0
667.7405,667.8707,85,65,0
667.8794,668.0096,90,64,0
668.01825,668.1485,88,63,0
668.15717,668.28735,81,62,0
668.15717,668.28735,85,62,0
668.2961,668.4263,90,61,0
668.43494,668.5651,88,60,0
668.57385,668.70404,81,60,0
668.57385,668.70404,85,60,0
668.7127,668.84296,90,59,0
668.8516,668.9818,88,58,0
668.9905,669.1207,81,57,0
668.9905,669.1207,85,57,0
669.1294,669.2596,90,56,0
669.26825,669.3985,88,55,0
669.40717,669.5411,81,54,0
669.40717,669.5411,85,54,0
669.55005,669.68396,90,53,0
669.6929,669.8268,88,52,0
669.83575,669.97565,81,51,0
669.83575,669.97565,85,51,0
669.985,670.128,90,50,0
670.13776,670.28424,88,50,0
670.294,670.4405,81,50,0
670.294,670.4405,85,50,0
670.45026,670.5909,90,50,0
670.5998,670.7337,88,50,0
670.7427,670.8409,86,50,0
670.8498,670.948,85,50,0
670.9569,671.0552,83,50,0
671.0641,671.1623,81,50,0
671.1712,671.3052,80,50,0
671.3141,671.448,78,50,0
671.4569,671.5909,76,50,0
671.5998,671.7337,74,50,0
671.7427,671.8766,73,50,0
671.8855,672.0194,71,50,0
672.0284,672.1266,69,50,0
672.1355,672.2337,71,50,0
672.2427,672.3409,69,50,0
672.3498,672.448,68,50,0
672.4569,672.5552,69,50,0
672.5641,672.6623,71,50,0
672.6712,672.7694,73,50,0
672.7784,672.8766,74,50,0
672.8855,672.9837,76,50,0
672.9927,673.0909,78,50,0
673.0998,673.198,79,50,0
673.2069,673.3052,80,50,0
673.3141,673.4123,81,50,0
673.4212,673.5194,80,50,0
673.5284,673.6266,81,50,0
673.6355,673.7337,80,50,0
673.7427,673.8409,81,50,0
673.8498,673.948,83,50,0
673.9569,674.0552,81,50,0
674.0641,674.1623,80,50,0
674.1712,674.2694,81,50,0
674.2784,674.3766,83,50,0
674.3855,674.4837,85,50,0
674.4926,674.5909,86,50,0
674.5998,674.698,87,50,0
674.7069,674.8051,88,50,0
674.8141,674.9123,87,50,0
674.9212,675.0194,88,50,0
675.0284,675.1266,87,50,0
675.1355,675.2337,88,50,0
675.2426,675.3409,90,50,0
675.3498,675.448,88,50,0
675.4569,675.5909,86,50,0
675.5284,675.6623,88,50,0
675.5998,675.7337,86,50,0
675.6712,675.8051,88,50,0
675.7426,675.8766,86,50,0
675.8141,675.948,88,50,0
675.8855,676.0194,86,50,0
675.9569,676.0909,88,50,0
676.0284,676.1623,86,50,0
676.0998,676.2337,88,50,0
676.1712,676.3051,86,50,0
676.2426,676.3766,88,50,0
676.3141,676.448,86,50,0
676.3855,676.5194,88,50,0
676.4569,676.5909,86,50,0
676.5284,676.6623,88,50,0
676.5998,676.7337,86,50,0
676.6712,676.8051,88,50,0
676.7426,676.8766,86,50,0
676.8141,676.948,88,50,0
676.8855,677.0194,86,50,0
676.9569,677.0909,85,50,0
677.0284,677.1623,88,50,0
677.0998,677.1623,86,50,0
677.1712,677.5909,85,50,0
678.8855,679.0194,74,50,0
678.9569,679.0909,76,50,0
679.0284,679.1623,74,50,0
679.0998,679.2337,76,50,0
679.1712,679.3051,74,50,0
679.2426,679.3766,76,50,0
679.3141,679.448,74,50,0
679.3855,679.5194,76,50,0
679.4569,679.5909,74,50,0
679.5284,679.6623,76,50,0
679.5998,679.7337,74,50,0
679.6712,679.8051,76,50,0
679.7426,679.8766,74,50,0
679.8141,679.948,76,50,0
679.8855,680.0194,74,50,0
679.9569,680.0909,76,50,0
680.0284,680.1623,74,50,0
680.0998,680.2337,76,50,0
680.1712,680.3051,74,50,0
680.2426,680.3766,76,50,0
680.3141,680.448,74,50,0
680.3855,680.5194,73,50,0
680.4569,680.5909,76,50,0
680.5284,680.5909,74,50,0
680.5998,681.0194,73,50,0
682.3141,682.448,68,100,0
682.3855,682.5194,69,100,0
682.4569,682.5909,68,100,0
682.5284,682.6623,69,100,0
682.5998,682.7337,68,100,0
682.6712,682.8051,69,100,0
682.7426,682.8766,68,100,0
682.8141,682.948,69,100,0
682.8855,683.0194,68,100,0
682.9569,683.1623,66,100,0
683.1712,683.3766,68,100,0
683.2783,683.4837,69,100,0
683.3855,683.5908,71,100,0
683.4926,683.698,73,100,0
683.5998,683.8051,74,100,0
683.7069,683.9123,76,100,0
683.8141,684.0194,78,100,0
683.9212,684.0194,80,100,0
684.0283,684.3051,81,100,0
684.1712,684.448,83,100,0
684.3141,684.5908,85,100,0
684.4569,684.7337,86,100,0
684.5998,684.8766,88,100,0
684.7426,685.0194,90,100,0
684.8855,685.0908,88,100,0
685.3141,685.53186,83,100,0
685.3141,685.53186,86,100,0
685.3141,685.53186,92,100,0
685.7686,686.2137,81,100,0
685.7686,686.2137,85,100,0
685.7686,686.2137,93,100,0
686.6777,687.1673,59,110,0
686.6777,687.1673,62,110,0
686.6777,687.1673,64,110,0
686.6777,687.1673,68,110,0
687.6777,688.4173,61,120,0
687.6777,688.4173,57,120,0
687.6777,688.4173,64,120,0
687.6777,688.4173,69,120,0
11.088334,11.312943,59,60,0
11.322709,11.547318,62,60,0
11.557084,11.774887,61,60,0
11.784356,12.002159,64,60,0
12.011629,12.229432,59,60,0
12.238901,12.456704,62,60,0
12.466174,12.683977,61,60,0
12.693446,12.911249,64,60,0
12.920719,13.138522,57,60,0
13.147991,13.365794,64,60,0
13.375264,13.593067,52,60,0
13.602536,13.820339,56,60,0
13.829809,14.047612,59,60,0
14.057081,14.274884,64,60,0
14.284354,14.502157,68,60,0
14.511626,14.729429,71,60,0
14.738899,14.956702,76,60,0
14.966171,15.183974,74,60,0
15.193444,15.40484,73,60,0
15.414032,15.625429,76,60,0
15.63462,15.846017,71,60,0
15.855208,16.066605,74,60,0
16.075796,16.287193,73,60,0
16.296385,16.50778,76,60,0
16.516972,16.728369,69,60,0
16.73756,16.948957,73,60,0
16.958147,17.169544,68,60,0
17.178736,17.390133,71,63,0
17.399324,17.610722,64,66,0
17.619911,17.831308,71,69,0
17.8405,18.051897,68,72,0
18.061089,18.272486,71,75,0
18.281675,18.493073,69,79,0
18.281675,18.493073,64,79,0
18.502264,18.713661,73,82,0
18.722853,18.934248,64,85,0
18.722853,18.934248,68,85,0
18.94344,19.154837,71,88,0
19.164028,19.388638,64,91,0
19.164028,19.388638,69,91,0
19.398403,19.623013,73,94,0
19.632778,19.872362,64,98,0
19.632778,19.872362,68,98,0
19.882778,20.122362,71,101,0
20.132778,20.398981,64,104,0
20.132778,20.398981,69,104,0
20.410555,20.67676,73,107,0
20.688334,22.89898,64,110,0
20.688334,22.89898,68,110,0
20.688334,22.89898,71,110,0
28.4661,29.339262,45,70,0
28.4661,29.339262,33,70,0
29.348454,30.221613,52,70,0
29.348454,30.221613,40,70,0
30.230804,31.545141,54,70,0
30.230804,31.545141,42,70,0
31.554333,31.986319,49,70,0
31.554333,31.986319,37,70,0
31.995508,32.427494,52,70,0
31.995508,32.427494,40,70,0
32.436684,32.86867,50,70,0
32.436684,32.86867,38,70,0
32.87786,33.309845,49,70,0
32.87786,33.309845,37,70,0
33.31904,33.530434,50,70,0
33.31904,33.530434,38,70,0
33.539623,33.751022,47,70,0
33.539623,33.751022,35,70,0
33.760212,34.633373,45,70,0
33.760212,34.633373,33,70,0
34.642567,35.08764,44,70,0
34.642567,35.08764,32,70,0
35.09711,35.556095,40,70,0
35.56586,36.024845,45,70,0
36.03461,36.493595,42,70,0
36.50336,36.984917,37,70,0
36.995163,37.510513,39,70,0
37.521477,38.036827,40,70,0
38.97284,39.184235,50,70,0
39.414017,39.625412,49,70,0
39.85519,40.06659,50,70,0
40.296368,40.507763,49,70,0
40.73754,40.94894,45,70,0
41.17872,41.610703,40,80,0
42.502247,42.713642,52,70,0
42.502247,42.713642,59,70,0
42.502247,42.713642,62,70,0
42.943424,43.14878,57,70,0
42.943424,43.14878,61,70,0
43.371994,43.57735,52,70,0
43.371994,43.57735,59,70,0
43.800564,44.00592,49,70,0
43.800564,44.00592,57,70,0
44.229137,44.434494,45,70,0
44.229137,44.434494,49,70,0
44.229137,44.434494,52,70,0
44.229137,44.434494,57,70,0
44.657707,44.863064,40,70,0
44.657707,44.863064,44,70,0
44.657707,44.863064,47,70,0
44.657707,44.863064,52,70,0
45.086277,45.291634,52,75,0
45.086277,45.291634,56,75,0
45.086277,45.291634,59,75,0
45.086277,45.291634,64,75,0
45.51485,45.720207,57,80,0
45.51485,45.720207,61,80,0
45.51485,45.720207,64,80,0
45.51485,45.720207,69,80,0
45.94342,46.148777,45,86,0
45.94342,46.148777,49,86,0
45.94342,46.148777,52,86,0
45.94342,46.148777,57,86,0
46.37199,46.577347,40,91,0
46.37199,46.577347,44,91,0
46.37199,46.577347,47,91,0
46.37199,46.577347,52,91,0
46.800564,47.018364,45,97,0
46.800564,47.018364,49,97,0
46.800564,47.018364,52,97,0
46.800564,47.018364,57,97,0
47.255108,47.49469,40,102,0
47.255108,47.49469,44,102,0
47.255108,47.49469,47,102,0
47.255108,47.49469,52,102,0
47.755108,48.02131,45,108,0
47.755108,48.02131,49,108,0
47.755108,48.02131,52,108,0
47.755108,48.02131,57,108,0
48.43566,48.925247,40,110,0
48.43566,48.925247,44,110,0
48.43566,48.925247,47,110,0
48.43566,48.925247,52,110,0
57.487278,57.756374,57,120,0
57.626167,57.895264,60,100,0
57.765053,58.034153,64,100,0
57.903942,58.17304,57,100,0
58.04283,58.311928,60,100,0
58.18172,58.450817,64,100,0
58.32061,58.589706,57,100,0
58.4595,58.728596,60,100,0
58.598385,58.86748,64,100,0
58.737274,59.00637,57,120,0
58.876163,59.14526,62,100,0
59.015053,59.28415,65,100,0
59.153942,59.42304,57,100,0
59.29283,59.561928,60,100,0
59.431717,59.700813,64,100,0
59.570606,59.839703,50,120,0
59.709496,59.978592,59,100,0
59.848385,60.11748,62,100,0
59.987274,60.25637,52,100,0
60.126163,60.39526,57,100,0
60.26505,60.534145,60,100,0
60.40394,60.673035,52,120,0
60.542828,60.811924,56,100,0
60.681717,60.811924,59,100,0
60.820606,62.061924,45,120,0
62.070602,62.47859,38,120,0
62.48727,62.895256,45,100,0
62.903934,63.31192,40,120,0
63.320602,63.72859,33,95,0
63.737267,64.145256,40,83,0
64.15393,64.978584,35,70,0
64.98727,65.81192,40,70,0
65.820595,66.64525,47,70,0
65.820595,66.64525,35,70,0
66.65393,67.47858,52,70,0
66.65393,67.47858,40,70,0
67.48726,67.89525,47,110,0
67.48726,67.89525,35,110,0
68.320595,68.72858,47,110,0
68.320595,68.72858,35,110,0
69.15392,69.56191,47,110,0
69.15392,69.56191,35,110,0
69.98726,70.39524,47,110,0
69.98726,70.39524,35,110,0
70.82059,71.22858,47,110,0
70.82059,71.22858,35,110,0
71.23725,71.506355,72,110,0
71.376144,71.64524,71,110,0
71.51503,71.78413,69,110,0
71.65392,71.92302,67,110,0
71.79281,72.061905,69,110,0
71.9317,72.2008,64,110,0
72.07059,72.33968,67,110,0
72.20947,72.47857,66,110,0
72.348366,72.47857,64,110,0
72.48725,72.75635,63,110,0
72.626144,72.89524,66,110,0
72.76503,73.03413,59,110,0
72.903915,73.17302,60,110,0
73.04281,73.311905,59,110,0
73.181694,73.45079,57,110,0
73.32059,73.58968,55,110,0
73.45947,73.72857,57,110,0
73.598366,73.86746,52,110,0
73.73725,74.00635,55,110,0
73.87614,74.14523,54,110,0
74.01503,74.14523,52,110,0
74.153915,74.42301,47,110,0
74.29281,74.561905,48,110,0
74.431694,74.70079,47,110,0
74.57058,74.83968,46,110,0
74.70947,74.97857,47,110,0
74.84836,75.117455,46,110,0
74.98725,75.25635,47,110,0
75.12614,75.39523,48,110,0
75.26503,75.53413,47,110,0
75.403915,75.67301,46,100,0
75.5428,75.8119,47,90,0
75.681694,75.8119,46,80,0
75.82058,76.22857,47,70,0
78.063,78.50808,71,70,0
78.51755,78.96262,71,70,0
78.97209,79.41717,71,70,0
79.426636,80.28784,71,70,0
80.29677,81.14498,68,70,0
81.15391,82.430695,64,70,0
82.43962,82.85927,59,70,0
82.868195,83.287834,56,70,0
83.29676,83.71641,56,70,0
83.725334,84.14497,52,70,0
84.15391,84.58599,56,70,0
84.59547,85.085045,59,70,0
85.09547,85.585045,47,70,0
85.59547,86.085045,59,70,0
86.59547,87.44368,69,70,0
87.45261,88.30082,66,70,0
88.309746,88.72939,63,70,0
88.73832,89.15796,59,70,0
89.16689,89.58653,57,70,0
89.59546,90.01511,54,70,0
90.02403,90.44367,51,70,0
90.45261,90.872246,51,70,0
90.88117,91.30082,47,70,0
91.309746,91.729385,51,70,0
91.73832,92.15796,52,70,0
92.166885,92.58653,47,70,0
92.59546,93.0151,52,70,0
93.4526,94.30081,57,70,0
94.309746,95.15796,52,70,0
95.166885,96.0151,57,70,0
96.024025,96.87224,52,70,0
96.881165,97.30081,57,70,0
97.30974,97.72938,52,70,0
97.73831,98.15795,51,70,0
98.16688,98.605316,52,70,0
98.61464,99.50084,47,70,0
99.51016,100.396355,42,70,0
100.405685,100.84412,35,70,0
102.73699,102.942345,40,70,0
102.95128,103.15663,42,70,0
103.16556,103.37092,44,70,0
103.379845,103.585205,45,70,0
103.59413,103.79949,47,70,0
103.80842,104.01378,49,70,0
104.022705,104.22806,51,70,0
104.23699,104.442345,52,70,0
104.45127,104.65663,54,70,0
104.66556,104.87092,56,70,0
104.879845,105.085205,57,70,0
105.09413,105.299484,59,70,0
105.30842,105.51377,61,70,0
105.522705,105.72806,63,70,0
105.736984,105.942345,64,70,0
105.95127,106.15663,66,70,0
106.16556,106.37092,67,70,0
106.379845,106.5852,68,70,0
106.59413,106.799484,67,70,0
106.80842,107.01377,68,70,0
107.0227,107.22806,71,70,0
107.236984,107.442345,68,70,0
107.45127,108.72806,69,70,0
107.45127,108.72806,66,70,0
109.594124,109.799484,35,70,0
109.80841,110.01377,37,70,0
110.0227,110.22806,39,70,0
110.236984,110.44234,40,70,0
110.45127,110.656624,42,70,0
110.66555,110.87091,44,70,0
110.87984,111.0852,45,70,0
111.094124,111.299484,47,70,0
111.30841,111.51377,49,70,0
111.5227,111.72805,51,70,0
111.736984,111.94234,52,70,0
111.95126,112.156624,54,70,0
112.16555,112.37091,56,70,0
112.37984,112.5852,57,70,0
112.594124,112.79948,59,70,0
112.80841,113.01376,61,70,0
113.0227,113.22805,63,70,0
113.23698,113.44234,64,70,0
113.45126,113.66582,66,70,0
113.67515,113.8897,68,70,0
113.899025,114.123634,69,70,0
114.1334,114.35801,71,70,0
114.367775,114.85736,73,70,0
114.867775,115.35736,75,70,0
115.367775,115.85736,76,70,0
116.35215,117.20036,57,70,0
116.35215,117.20036,64,70,0
117.2093,118.05751,64,70,0
117.2093,118.05751,52,70,0
118.06644,118.91465,57,70,0
118.06644,118.91465,64,70,0
118.92358,119.77179,64,70,0
118.92358,119.77179,52,70,0
119.780716,120.20036,69,70,0
120.20929,120.62893,64,70,0
120.63786,121.0575,66,70,0
121.06643,121.48608,61,70,0
121.495,121.91464,63,70,0
121.92358,122.343216,58,70,0
122.35214,122.77179,59,70,0
122.780716,123.200356,55,70,0
123.20929,123.62893,56,70,0
123.637856,124.0575,51,70,0
124.06643,124.48607,52,70,0
124.495,124.91464,45,70,0
124.92357,125.343216,47,70,0
125.780716,126.200356,35,70,0
125.780716,126.200356,47,70,0
126.66754,126.970276,40,100,0
126.82379,127.126526,44,100,0
126.98004,127.266495,47,100,0
127.13629,127.40539,52,100,0
127.27518,127.54427,56,100,0
127.41407,127.68317,59,100,0
127.552956,127.82205,52,100,0
127.69184,127.960945,56,100,0
127.830734,128.09982,59,100,0
127.96962,128.23872,51,100,0
128.1085,128.37761,57,100,0
128.2474,128.37761,59,100,0
128.38629,128.65538,52,120,0
128.52518,128.79428,56,100,0
128.66406,128.93317,59,100,0
128.80295,129.07205,52,100,0
128.94185,129.21094,56,100,0
129.08073,129.34982,59,100,0
129.21962,129.48872,52,100,0
129.3585,129.62761,56,100,0
129.49739,129.7665,59,100,0
129.63629,129.90538,51,100,0
129.77518,130.04427,57,100,0
129.91406,130.04427,59,100,0
130.05295,130.32205,52,120,0
130.19183,130.46094,56,100,0
130.33073,130.59982,59,100,0
130.46962,130.73871,52,100,0
130.6085,130.87761,56,100,0
130.74739,131.0165,59,100,0
130.88629,131.15538,52,120,0
131.02518,131.29427,57,100,0
131.16406,131.43315,61,100,0
131.30295,131.57205,52,100,0
131.44183,131.71094,57,100,0
131.58073,131.71094,61,100,0
131.71962,131.98871,55,120,0
131.8585,132.1276,58,100,0
131.99739,132.2665,63,100,0
132.13628,132.40538,55,100,0
132.27518,132.54427,58,100,0
132.41406,132.68315,63,100,0
132.55295,132.82205,54,120,0
132.69183,132.96094,56,100,0
132.83072,133.09982,63,100,0
132.96962,133.23871,53,100,0
133.1085,133.3776,56,100,0
133.24739,133.3776,61,100,0
133.38628,133.65538,52,120,0
133.52516,133.79427,54,100,0
133.66406,133.93315,61,100,0
133.80295,134.07204,52,100,0
133.94183,134.21094,54,100,0
134.08072,134.34982,61,100,0
134.2196,134.48871,52,120,0
134.3585,134.6276,56,100,0
134.49739,134.76648,59,100,0
134.63628,134.90538,52,100,0
134.77516,135.04427,56,100,0
134.91406,135.04427,61,100,0
135.05295,135.32204,54,120,0
135.19183,135.46092,57,100,0
135.33072,135.59982,61,100,0
135.4696,135.73871,54,100,0
135.6085,135.8776,57,100,0
135.74739,136.01648,61,100,0
135.88628,136.15538,51,120,0
136.02516,136.29427,54,100,0
136.16405,136.43315,59,100,0
136.30295,136.57204,51,100,0
136.44183,136.71092,54,100,0
136.58072,136.71092,59,100,0
136.7196,136.91927,52,100,0
136.92795,137.1276,64,100,0
137.0321,137.23177,63,100,0
137.13628,137.33592,64,100,0
137.24045,137.4401,59,100,0
137.3446,137.54427,56,100,0
137.44878,137.64842,59,100,0
137.55293,137.7526,56,100,0
137.6571,137.85677,59,100,0
137.76128,137.96092,64,100,0
137.86543,138.0651,59,100,0
137.9696,138.16927,57,100,0
138.07378,138.27342,59,100,0
138.17793,138.3776,63,100,0
138.2821,138.3776,59,100,0
138.38628,138.58592,56,100,0
138.49043,138.6901,59,100,0
138.5946,138.79425,64,100,0
138.69878,138.89842,63,100,0
138.80293,139.0026,64,100,0
138.9071,139.10675,59,100,0
139.01128,139.21092,56,100,0
139.11543,139.3151,59,100,0
139.2196,139.41925,56,100,0
139.32378,139.52342,59,100,0
139.42793,139.6276,64,100,0
139.5321,139.73175,59,100,0
139.63628,139.83592,57,100,0
139.74043,139.9401,59,100,0
139.8446,140.04425,63,100,0
139.94878,140.04425,59,100,0
140.05293,140.2526,56,100,0
140.1571,140.35675,59,100,0
140.26128,140.46092,64,100,0
140.36543,140.5651,59,100,0
140.4696,140.66925,56,100,0
140.57376,140.77342,59,100,0
140.67793,140.8776,64,100,0
140.7821,140.98175,59,100,0
140.88626,141.08592,57,100,0
140.99043,141.1901,61,100,0
141.0946,141.29425,64,100,0
141.19876,141.29425,61,100,0
141.30293,141.5026,61,100,0
141.4071,141.60675,64,100,0
141.51126,141.71092,69,100,0
141.61543,141.71092,64,100,0
141.7196,141.91925,61,100,0
141.82376,142.02342,63,100,0
141.92793,142.12758,70,100,0
142.0321,142.23175,63,100,0
142.13626,142.33592,58,100,0
142.24043,142.44008,63,100,0
142.3446,142.54425,67,100,0
142.44876,142.64842,63,100,0
142.55293,142.75258,56,100,0
142.6571,142.85675,63,100,0
142.76126,142.96092,68,100,0
142.86543,143.06508,63,100,0
142.9696,143.16925,56,100,0
143.07376,143.27342,61,100,0
143.17793,143.37758,65,100,0
143.2821,143.37758,61,100,0
143.38626,143.58592,56,100,0
143.49043,143.69008,61,100,0
143.5946,143.79425,65,100,0
143.69876,143.89842,61,100,0
143.80293,144.00258,54,100,0
143.90709,144.10675,61,100,0
144.01126,144.21092,66,100,0
144.11543,144.31508,61,100,0
144.21959,144.41925,54,100,0
144.32376,144.52342,59,100,0
144.42793,144.62758,63,100,0
144.53209,144.73175,59,100,0
144.63626,144.8359,56,100,0
144.74043,144.94008,59,100,0
144.84459,145.04425,64,100,0
144.94876,145.04425,59,100,0
145.05293,145.25258,57,100,0
145.15709,145.35675,60,100,0
145.26126,145.4609,64,100,0
145.36543,145.56508,60,100,0
145.46959,145.66925,57,100,0
145.57376,145.7734,60,100,0
145.67793,145.87758,57,100,0
145.78209,145.98175,60,100,0
145.88626,146.0859,54,100,0
145.99043,146.19008,57,100,0
146.09459,146.29425,54,100,0
146.19876,146.3984,57,100,0
146.30293,146.50258,52,100,0
146.40709,146.60675,54,100,0
146.51126,146.7109,57,100,0
146.61543,146.7109,54,100,0
146.71959,146.91925,51,120,0
146.82376,147.0234,54,120,0
146.92792,147.12758,57,120,0
147.03209,147.23175,54,120,0
147.13626,147.3359,51,120,0
147.24042,147.44008,54,120,0
147.34459,147.54425,57,120,0
147.44876,147.6484,54,120,0
147.55292,147.75258,51,120,0
147.65709,147.85675,54,120,0
147.76126,147.9609,57,120,0
147.86542,148.06508,54,120,0
147.96959,148.16924,51,120,0
148.07376,148.2734,54,120,0
148.17792,148.37758,57,120,0
148.28209,148.48174,54,120,0
148.38626,148.5859,51,120,0
148.49042,148.69008,54,120,0
148.59459,148.79424,57,120,0
148.69876,148.8984,54,120,0
148.80292,149.00258,51,120,0
148.90709,149.10674,54,116,0
149.01126,149.2109,57,111,0
149.11542,149.31508,54,107,0
149.21959,149.41924,51,102,0
149.32376,149.5234,54,97,0
149.42792,149.62758,57,93,0
149.53209,149.73174,54,88,0
149.63626,149.8359,51,84,0
149.74042,149.94008,54,79,0
149.84459,150.04424,57,74,0
149.94876,150.04424,54,70,0
150.05292,150.32202,51,60,0
150.1918,150.4609,54,60,0
150.3307,150.5998,57,60,0
150.46959,150.73868,51,60,0
150.60847,150.87758,54,60,0
150.74736,151.01646,57,60,0
150.88625,151.15535,51,60,0
151.02515,151.29424,54,60,0
151.16403,151.43312,57,60,0
151.30292,151.57202,51,60,0
151.4418,151.7109,54,60,0
151.58069,151.8498,57,60,0
151.71959,151.98868,51,60,0
151.85847,152.12756,54,60,0
151.99736,152.26646,57,60,0
152.13625,152.40535,51,60,0
152.27513,152.54424,54,60,0
152.41403,152.68312,57,60,0
152.55292,152.822,51,60,0
152.6918,152.9609,54,60,0
152.83069,153.11163,57,60,0
152.96959,153.26978,51,60,0
153.1211,153.43643,54,60,0
153.28018,153.43643,57,60,0
153.44685,153.71596,50,60,0
153.58574,153.85484,52,60,0
153.72462,153.99373,56,60,0
153.86353,154.13261,50,60,0
154.00241,154.2715,52,60,0
154.1413,154.4104,56,60,0
154.28018,154.54929,50,60,0
154.41908,154.68817,52,60,0
154.55797,154.82706,56,60,0
154.69685,154.96594,50,60,0
154.83574,155.10484,52,60,0
154.97462,155.10484,56,60,0
155.11353,155.38261,44,60,0
155.11353,155.38261,47,60,0
155.25241,155.5215,50,60,0
155.3913,155.66039,52,60,0
155.53018,155.79929,44,60,0
155.53018,155.79929,47,60,0
155.66907,155.93817,50,60,0
155.80797,156.07706,52,60,0
155.94685,156.21594,44,60,0
155.94685,156.21594,47,60,0
156.08574,156.35484,50,60,0
156.22462,156.50555,52,60,0
156.36351,156.66371,44,60,0
156.36351,156.66371,47,60,0
156.51503,156.83037,50,60,0
156.67412,156.83037,52,60,0
156.84079,157.10988,33,110,0
156.97968,157.24878,35,110,0
157.11856,157.38766,37,110,0
157.25746,157.4571,38,110,0
157.36162,157.56128,40,110,0
157.46579,157.66544,42,110,0
157.56996,157.7696,44,110,0
157.67412,157.87378,45,110,0
157.77829,157.97794,47,110,0
157.88246,158.0821,49,110,0
157.98662,158.18628,50,110,0
158.09079,158.29044,52,110,0
158.29912,158.49878,33,110,0
158.50745,158.91544,34,110,0
160.17412,160.37376,47,120,0
160.27829,160.47794,59,120,0
160.38245,160.5821,57,120,0
160.48662,160.68626,56,120,0
160.59079,160.79044,54,120,0
160.69495,160.8946,52,120,0
160.79912,160.99876,51,120,0
160.90329,161.10294,49,120,0
161.00745,161.13765,47,120,0
161.14633,161.27655,45,120,0
161.28523,161.41544,44,120,0
161.42412,161.62376,42,120,0
161.52827,161.72794,40,120,0
161.63245,161.8321,39,120,0
161.73662,161.8321,37,120,0
161.84077,162.04044,35,120,0
162.04912,162.24876,47,120,0
162.04912,162.24876,52,120,0
162.04912,162.24876,56,120,0
162.25745,162.45709,47,120,0
162.25745,162.45709,52,120,0
162.25745,162.45709,56,120,0
162.46577,162.66544,47,120,0
162.46577,162.66544,52,120,0
162.46577,162.66544,56,120,0
162.67412,162.88551,47,120,0
162.67412,162.88551,52,120,0
162.67412,162.88551,56,120,0
162.8947,163.1061,47,120,0
162.8947,163.1061,52,120,0
162.8947,163.1061,56,120,0
163.1153,163.34714,47,120,0
163.1153,163.34714,52,120,0
163.1153,163.34714,56,120,0
163.35722,163.62343,47,120,0
163.35722,163.62343,52,120,0
163.35722,163.62343,56,120,0
163.635,164.17899,47,120,0
163.635,164.17899,51,120,0
163.635,164.17899,57,120,0
168.07944,169.78479,47,70,0
169.79373,170.64194,40,70,0
170.65086,171.49908,47,70,0
171.50801,173.21336,47,70,0
173.22229,174.07051,40,70,0
174.07944,174.92764,47,70,0
174.93658,175.35622,47,70,0
175.36514,175.78479,45,69,0
175.79372,176.21336,44,67,0
176.22229,176.64194,42,66,0
176.65086,177.09593,40,64,0
177.10541,177.55048,38,63,0
177.55995,178.03374,37,61,0
178.04382,178.5878,35,60,0
178.59938,179.05836,33,60,0
189.48158,189.69939,59,60,0
189.70886,189.92667,62,60,0
189.93613,190.15393,61,60,0
190.1634,190.38121,64,60,0
190.39067,190.60847,59,60,0
190.61795,190.83575,62,60,0
190.84521,191.06302,61,60,0
191.0725,191.2903,64,60,0
191.29976,191.51756,57,60,0
191.52704,191.74484,64,60,0
191.7543,191.9721,52,60,0
191.98158,192.19939,56,60,0
192.20886,192.42665,59,60,0
192.43613,192.65393,64,60,0
192.6634,192.88121,68,60,0
192.89067,193.10847,71,60,0
193.11795,193.33575,76,60,0
193.34521,193.56302,74,60,0
193.5725,193.78389,73,60,0
193.79308,194.00447,76,60,0
194.01367,194.22507,71,60,0
194.23425,194.44565,74,60,0
194.45485,194.66624,73,60,0
194.67543,194.88683,76,60,0
194.89601,195.10742,69,60,0
195.11661,195.328,73,60,0
195.33719,195.54858,68,60,0
195.55779,195.76918,71,63,0
195.77837,195.98976,64,66,0
195.99896,196.21036,71,69,0
196.21954,196.43094,68,72,0
196.44014,196.65154,71,75,0
196.66072,196.87212,69,79,0
196.66072,196.87212,64,79,0
196.88132,197.09271,73,82,0
197.1019,197.3133,64,85,0
197.1019,197.3133,68,85,0
197.32248,197.53389,71,88,0
197.54308,197.76768,64,91,0
197.54308,197.76768,69,91,0
197.77745,198.00206,73,94,0
198.01183,198.2514,64,98,0
198.01183,198.2514,68,98,0
198.26183,198.5014,71,101,0
198.51183,198.77803,64,104,0
198.51183,198.77803,69,104,0
198.7896,199.0558,73,107,0
199.06738,201.27803,64,110,0
199.06738,201.27803,68,110,0
199.06738,201.27803,71,110,0
206.84515,207.74477,45,70,0
206.84515,207.74477,33,70,0
207.75424,208.65385,52,70,0
207.75424,208.65385,40,70,0
208.66333,210.01749,54,70,0
208.66333,210.01749,42,70,0
210.02696,210.47203,49,70,0
210.02696,210.47203,37,70,0
210.4815,210.92659,52,70,0
210.4815,210.92659,40,70,0
210.93605,211.38113,50,70,0
210.93605,211.38113,38,70,0
211.3906,211.83568,49,70,0
211.3906,211.83568,37,70,0
211.84514,212.06294,50,70,0
211.84514,212.06294,38,70,0
212.07242,212.29022,47,70,0
212.07242,212.29022,35,70,0
212.29968,213.19931,45,70,0
212.29968,213.19931,33,70,0
213.20877,213.65385,44,70,0
213.20877,213.65385,32,70,0
213.66333,214.1084,40,70,0
214.11787,214.57686,45,70,0
214.58662,215.04561,42,70,0
215.05537,215.54495,37,70,0
215.55537,216.09935,39,70,0
216.11092,216.62828,40,70,0
217.54779,217.7656,50,70,0
218.00233,218.21373,49,70,0
218.44351,218.6549,50,70,0
218.88469,219.09608,49,70,0
219.32587,219.53726,45,70,0
219.76704,220.19902,40,80,0
221.09056,221.30197,52,70,0
221.09056,221.30197,59,70,0
221.09056,221.30197,62,70,0
221.53174,221.74313,57,70,0
221.53174,221.74313,61,70,0
221.97292,222.18431,52,70,0
221.97292,222.18431,59,70,0
222.4141,222.62549,49,70,0
222.4141,222.62549,57,70,0
222.85527,223.06667,45,70,0
222.85527,223.06667,49,70,0
222.85527,223.06667,52,70,0
222.85527,223.06667,57,70,0
223.29645,223.50784,40,70,0
223.29645,223.50784,44,70,0
223.29645,223.50784,47,70,0
223.29645,223.50784,52,70,0
223.73763,223.94902,52,75,0
223.73763,223.94902,56,75,0
223.73763,223.94902,59,75,0
223.73763,223.94902,64,75,0
224.1788,224.3902,57,80,0
224.1788,224.3902,61,80,0
224.1788,224.3902,64,80,0
224.1788,224.3902,69,80,0
224.61998,224.83138,45,86,0
224.61998,224.83138,49,86,0
224.61998,224.83138,52,86,0
224.61998,224.83138,57,86,0
225.06116,225.27255,40,91,0
225.06116,225.27255,44,91,0
225.06116,225.27255,47,91,0
225.06116,225.27255,52,91,0
225.50233,225.72694,45,97,0
225.50233,225.72694,49,97,0
225.50233,225.72694,52,97,0
225.50233,225.72694,57,97,0
225.97108,226.21066,40,102,0
225.97108,226.21066,44,102,0
225.97108,226.21066,47,102,0
225.97108,226.21066,52,102,0
226.47108,226.75858,45,108,0
226.47108,226.75858,49,108,0
226.47108,226.75858,52,108,0
226.47108,226.75858,57,108,0
227.22108,227.80858,40,110,0
227.22108,227.80858,44,110,0
227.22108,227.80858,47,110,0
227.22108,227.80858,52,110,0
236.71393,236.98302,57,120,0
236.85281,237.12192,60,100,0
236.9917,237.2608,64,100,0
237.13058,237.39969,57,100,0
237.26949,237.53857,60,100,0
237.40837,237.67746,64,100,0
237.54726,237.81636,57,100,0
237.68614,237.95525,60,100,0
237.82503,238.09413,64,100,0
237.96393,238.23302,57,120,0
238.10281,238.3719,62,100,0
238.2417,238.5108,65,100,0
238.38058,238.64969,57,100,0
238.51949,238.78857,60,100,0
238.65837,238.92746,64,100,0
238.79726,239.06635,50,120,0
238.93614,239.20525,59,100,0
239.07503,239.34413,62,100,0
239.21393,239.48302,52,100,0
239.35281,239.6219,57,100,0
239.4917,239.7608,60,100,0
239.63058,239.89969,52,120,0
239.76947,240.03857,56,100,0
239.90837,240.03857,59,100,0
240.04726,241.28857,45,120,0
241.29726,241.70523,38,120,0
241.71391,242.1219,45,100,0
242.13058,242.53857,40,120,0
242.54726,242.95523,33,95,0
242.96391,243.3719,40,83,0
243.38058,244.20523,35,70,0
244.21391,245.03856,40,70,0
245.04724,245.8719,47,70,0
245.04724,245.8719,35,70,0
245.88058,246.70523,52,70,0
245.88058,246.70523,40,70,0
246.71391,247.1219,47,110,0
246.71391,247.1219,35,110,0
247.54724,247.95523,47,110,0
247.54724,247.95523,35,110,0
248.38057,248.78856,47,110,0
248.38057,248.78856,35,110,0
249.21391,249.62189,47,110,0
249.21391,249.62189,35,110,0
250.04724,250.45522,47,110,0
250.04724,250.45522,35,110,0
250.4639,250.733,72,110,0
250.6028,250.87189,71,110,0
250.74168,251.01077,69,110,0
250.88057,251.14967,67,110,0
251.01945,251.28856,69,110,0
251.15834,251.42744,64,110,0
251.29724,251.56633,67,110,0
251.43613,251.70522,66,110,0
251.57501,251.70522,64,110,0
251.7139,251.983,63,110,0
251.85278,252.12189,66,110,0
251.99168,252.26077,59,110,0
252.13057,252.39966,60,110,0
252.26945,252.53856,59,110,0
252.40834,252.67744,57,110,0
252.54723,252.81633,55,110,0
252.68613,252.95522,57,110,0
252.82501,253.0941,52,110,0
252.9639,253.233,55,110,0
253.10278,253.37189,54,110,0
253.24168,253.37189,52,110,0
253.38057,253.64966,47,110,0
253.51945,253.78854,48,110,0
253.65834,253.92744,47,110,0
253.79723,254.06633,46,110,0
253.93613,254.20522,47,110,0
254.07501,254.3441,46,110,0
254.2139,254.483,47,110,0
254.35278,254.62189,48,110,0
254.49167,254.76077,47,110,0
254.63057,254.89966,46,100,0
254.76945,255.03854,47,90,0
254.90834,255.03854,46,80,0
255.04723,255.45522,47,70,0
257.18076,257.6004,71,70,0
257.60934,258.0544,71,70,0
258.06387,258.55347,71,70,0
258.56387,259.41208,71,70,0
259.42102,260.26923,68,70,0
260.27817,261.55493,64,70,0
261.56387,261.98352,59,70,0
261.99243,262.41208,56,70,0
262.42102,262.84067,56,70,0
262.84958,263.26923,52,70,0
263.27817,263.6978,56,70,0
263.70673,264.1518,59,70,0
264.1613,264.65085,47,70,0
264.6613,265.15085,59,70,0
265.6613,266.5095,69,70,0
266.5184,267.36664,66,70,0
267.37555,267.7952,63,70,0
267.80414,268.2238,59,70,0
268.2327,268.65234,57,70,0
268.6613,269.0809,54,70,0
269.08984,269.5095,51,70,0
269.5184,269.93805,51,70,0
269.947,270.36664,47,70,0
270.37555,270.7952,51,70,0
270.80414,271.22375,52,70,0
271.2327,271.65234,47,70,0
271.66125,272.0809,52,70,0
272.5184,273.36664,57,70,0
273.37555,274.22375,52,70,0
274.2327,275.0809,57,70,0
275.08984,275.93805,52,70,0
275.947,276.3666,57,70,0
276.37555,276.7952,52,70,0
276.8041,277.22375,51,70,0
277.2327,277.65234,52,70,0
277.66125,278.5095,47,70,0
278.5184,279.41858,42,70,0
279.42834,279.88733,35,70,0
281.89798,282.10333,40,70,0
282.11224,282.31763,42,70,0
282.32654,282.5319,44,70,0
282.54083,282.7462,45,70,0
282.75513,282.96048,47,70,0
282.9694,283.17474,49,70,0
283.1837,283.38904,51,70,0
283.39798,283.60333,52,70,0
283.61224,283.81763,54,70,0
283.82654,284.0319,56,70,0
284.04083,284.2462,57,70,0
284.25513,284.46048,59,70,0
284.4694,284.67474,61,70,0
284.6837,284.88904,63,70,0
284.89798,285.10333,64,70,0
285.11224,285.31763,66,70,0
285.32654,285.5319,67,70,0
285.54083,285.7462,68,70,0
285.75513,285.96048,67,70,0
285.9694,286.17474,68,70,0
286.1837,286.38904,71,70,0
286.39798,286.60333,68,70,0
286.61224,287.88904,69,70,0
286.61224,287.88904,66,70,0
288.7551,288.96048,35,70,0
288.9694,289.17474,37,70,0
289.1837,289.38904,39,70,0
289.39798,289.60333,40,70,0
289.61224,289.8176,42,70,0
289.82654,290.0319,44,70,0
290.04083,290.2462,45,70,0
290.2551,290.46045,47,70,0
290.4694,290.67474,49,70,0
290.6837,290.88904,51,70,0
290.89795,291.10333,52,70,0
291.11224,291.3176,54,70,0
291.32654,291.5319,56,70,0
291.54083,291.7462,57,70,0
291.7551,291.96045,59,70,0
291.9694,292.17474,61,70,0
292.1837,292.38904,63,70,0
292.39795,292.60333,64,70,0
292.61224,292.8176,66,70,0
292.82654,293.0319,68,70,0
293.04083,293.2462,69,70,0
293.2551,293.46045,71,70,0
293.4694,293.88904,73,70,0
293.89795,294.3176,75,70,0
294.32654,294.7462,76,70,0
295.1837,296.0319,57,70,0
295.1837,296.0319,64,70,0
296.0408,296.88904,64,70,0
296.0408,296.88904,52,70,0
296.89795,297.7462,57,70,0
296.89795,297.7462,64,70,0
297.7551,298.6033,64,70,0
297.7551,298.6033,52,70,0
298.61224,299.0319,69,70,0
299.0408,299.46045,64,70,0
299.4694,299.88904,66,70,0
299.89795,300.3176,61,70,0
300.32654,300.74615,63,70,0
300.7551,301.17474,58,70,0
301.18365,301.6033,59,70,0
301.61224,302.0319,55,70,0
302.0408,302.46045,56,70,0
302.4694,302.88904,51,70,0
302.89795,303.3176,52,70,0
303.32654,303.74615,45,70,0
303.7551,304.18707,47,70,0
304.63745,305.09644,35,70,0
304.63745,305.09644,47,70,0
305.6062,305.8911,40,100,0
305.75327,306.03818,44,100,0
305.9003,306.17758,47,100,0
306.04736,306.31647,52,100,0
306.18625,306.45535,56,100,0
306.32513,306.59424,59,100,0
306.46405,306.73312,52,100,0
306.60294,306.872,56,100,0
306.74182,307.01093,59,100,0
306.8807,307.1498,51,100,0
307.0196,307.2887,57,100,0
307.15848,307.2887,59,100,0
307.29736,307.56647,52,120,0
307.43625,307.70535,56,100,0
307.57513,307.84424,59,100,0
307.71405,307.98312,52,100,0
307.85294,308.122,56,100,0
307.99182,308.26093,59,100,0
308.1307,308.3998,52,100,0
308.2696,308.5387,56,100,0
308.40848,308.67758,59,100,0
308.54736,308.81647,51,100,0
308.68625,308.95535,57,100,0
308.82513,308.95535,59,100,0
308.96402,309.23312,52,120,0
309.10294,309.372,56,100,0
309.24182,309.5109,59,100,0
309.3807,309.6498,52,100,0
309.5196,309.7887,56,100,0
309.65848,309.92758,59,100,0
309.79736,310.06647,52,120,0
309.93625,310.20535,57,100,0
310.07513,310.34424,61,100,0
310.21402,310.48312,52,100,0
310.35294,310.622,57,100,0
310.49182,310.622,61,100,0
310.6307,310.89978,55,120,0
310.7696,311.0387,58,100,0
310.90848,311.17758,63,100,0
311.04736,311.31647,55,100,0
311.18625,311.45535,58,100,0
311.32513,311.59424,63,100,0
311.46402,311.73312,54,120,0
311.6029,311.872,56,100,0
311.74182,312.0109,63,100,0
311.8807,312.14978,53,100,0
312.0196,312.2887,56,100,0
312.15848,312.2887,61,100,0
312.29736,312.56647,52,120,0
312.43625,312.70535,54,100,0
312.57513,312.84424,61,100,0
312.71402,312.98312,52,100,0
312.8529,313.122,54,100,0
312.9918,313.2609,61,100,0
313.1307,313.39978,52,120,0
313.2696,313.53867,56,100,0
313.40848,313.67758,59,100,0
313.54736,313.81647,52,100,0
313.68625,313.95535,56,100,0
313.82513,313.95535,61,100,0
313.96402,314.23312,54,120,0
314.1029,314.372,57,100,0
314.2418,314.5109,61,100,0
314.3807,314.64978,54,100,0
314.5196,314.78867,57,100,0
314.65848,314.92755,61,100,0
314.79736,315.06647,51,120,0
314.93625,315.20535,54,100,0
315.07513,315.34424,59,100,0
315.21402,315.48312,51,100,0
315.3529,315.622,54,100,0
315.4918,315.622,59,100,0
315.63068,315.83035,52,100,0
315.83902,316.03867,64,100,0
315.94318,316.14285,63,100,0
316.04736,316.247,64,100,0
316.15152,316.35117,59,100,0
316.25568,316.45535,56,100,0
316.35986,316.5595,59,100,0
316.46402,316.66367,56,100,0
316.56818,316.76785,59,100,0
316.67236,316.872,64,100,0
316.77652,316.97617,59,100,0
316.88068,317.08035,57,100,0
316.98486,317.1845,59,100,0
317.08902,317.28867,63,100,0
317.19318,317.28867,59,100,0
317.29736,317.497,56,100,0
317.40152,317.60117,59,100,0
317.50568,317.70535,64,100,0
317.60986,317.8095,63,100,0
317.71402,317.91367,64,100,0
317.81818,318.01785,59,100,0
317.92236,318.122,56,100,0
318.02652,318.22617,59,100,0
318.13068,318.33035,56,100,0
318.23486,318.4345,59,100,0
318.33902,318.53867,64,100,0
318.44318,318.64285,59,100,0
318.54736,318.747,57,100,0
318.65152,318.85117,59,100,0
318.75568,318.95532,63,100,0
318.85986,318.95532,59,100,0
318.96402,319.16367,56,100,0
319.06818,319.26782,59,100,0
319.17236,319.372,64,100,0
319.27652,319.47617,59,100,0
319.38068,319.58032,56,100,0
319.48486,319.6845,59,100,0
319.58902,319.78867,64,100,0
319.69318,319.89282,59,100,0
319.79736,319.997,57,100,0
319.90152,320.10117,61,100,0
320.00568,320.20532,64,100,0
320.10986,320.20532,61,100,0
320.21402,320.41367,61,100,0
320.31818,320.51782,64,100,0
320.42236,320.622,69,100,0
320.52652,320.622,64,100,0
320.63068,320.83032,61,100,0
320.73486,320.9345,63,100,0
320.83902,321.03867,70,100,0
320.94318,321.14282,63,100,0
321.04733,321.247,58,100,0
321.15152,321.35117,63,100,0
321.25568,321.45532,67,100,0
321.35983,321.5595,63,100,0
321.46402,321.66367,56,100,0
321.56818,321.76782,63,100,0
321.67233,321.872,68,100,0
321.77652,321.97617,63,100,0
321.88068,322.08032,56,100,0
321.98483,322.1845,61,100,0
322.08902,322.28867,65,100,0
322.19318,322.28867,61,100,0
322.29733,322.497,56,100,0
322.40152,322.60117,61,100,0
322.50568,322.70532,65,100,0
322.60983,322.8095,61,100,0
322.71402,322.91367,54,100,0
322.81818,323.01782,61,100,0
322.92233,323.122,66,100,0
323.02652,323.22617,61,100,0
323.13068,323.33032,54,100,0
323.23483,323.4345,59,100,0
323.33902,323.53867,63,100,0
323.44318,323.64282,59,100,0
323.54733,323.747,56,100,0
323.65152,323.85117,59,100,0
323.75568,323.95532,64,100,0
323.85983,323.95532,59,100,0
323.96402,324.16367,57,100,0
324.06818,324.26782,60,100,0
324.17233,324.372,64,100,0
324.27652,324.47617,60,100,0
324.38068,324.58032,57,100,0
324.48483,324.6845,60,100,0
324.58902,324.78867,57,100,0
324.69318,324.89282,60,100,0
324.79733,324.997,54,100,0
324.90152,325.10117,57,100,0
325.00568,325.20532,54,100,0
325.10983,325.30948,57,100,0
325.21402,325.41367,52,100,0
325.31818,325.51782,54,100,0
325.42233,325.62198,57,100,0
325.52652,325.62198,54,100,0
325.63068,325.83032,51,120,0
325.73483,325.93448,54,120,0
325.83902,326.03867,57,120,0
325.94318,326.14282,54,120,0
326.04733,326.24698,51,120,0
326.15152,326.35117,54,120,0
326.25568,326.45532,57,120,0
326.35983,326.55948,54,120,0
326.46402,326.66367,51,120,0
326.56818,326.76782,54,120,0
326.67233,326.87198,57,120,0
326.77652,326.97617,54,120,0
326.88068,327.08032,51,120,0
326.98483,327.18448,54,120,0
327.08902,327.28867,57,120,0
327.19318,327.39282,54,120,0
327.29733,327.49698,51,120,0
327.4015,327.60117,54,120,0
327.50568,327.70532,57,120,0
327.60983,327.80948,54,120,0
327.714,327.91367,51,120,0
327.81818,328.01782,54,116,0
327.92233,328.12198,57,111,0
328.0265,328.23178,54,107,0
328.13068,328.34207,51,102,0
328.24097,328.45236,54,97,0
328.35126,328.56265,57,93,0
328.46155,328.67926,54,88,0
328.57184,328.79645,51,84,0
328.68903,328.91364,54,79,0
328.8062,329.03082,57,74,0
328.9234,329.03082,54,70,0
329.0406,329.33572,51,60,0
329.19684,329.4746,54,60,0
329.34442,329.61353,57,60,0
329.4833,329.7524,51,60,0
329.6222,329.8913,54,60,0
329.76108,330.03018,57,60,0
329.89996,330.16907,51,60,0
330.03885,330.30795,54,60,0
330.17773,330.44684,57,60,0
330.31665,330.58572,51,60,0
330.45554,330.7246,54,60,0
330.59442,330.8635,57,60,0
330.7333,331.0024,51,60,0
330.8722,331.1413,54,60,0
331.01108,331.28018,57,60,0
331.14996,331.41907,51,60,0
331.28885,331.55795,54,60,0
331.42773,331.7045,57,60,0
331.56662,331.85156,51,60,0
331.71368,331.99863,54,60,0
331.86075,332.1543,57,60,0
332.0078,332.3151,51,60,0
332.16406,332.48178,54,60,0
332.32553,332.48178,57,60,0
332.4922,332.80295,50,60,0
332.65884,332.94183,52,60,0
332.8116,333.08072,56,60,0
332.95053,333.2196,50,60,0
333.08942,333.3585,52,60,0
333.2283,333.4974,56,60,0
333.3672,333.6363,50,60,0
333.50607,333.77518,52,60,0
333.64496,333.91406,56,60,0
333.78384,334.05295,50,60,0
333.92273,334.19183,52,60,0
334.0616,334.19183,56,60,0
334.20053,334.4696,44,60,0
334.20053,334.4696,47,60,0
334.33942,334.6085,50,60,0
334.4783,334.74738,52,60,0
334.6172,334.8863,44,60,0
334.6172,334.8863,47,60,0
334.75607,335.02518,50,60,0
334.89496,335.16406,52,60,0
335.03384,335.30295,44,60,0
335.03384,335.30295,47,60,0
335.17273,335.44183,50,60,0
335.3116,335.58072,52,60,0
335.4505,335.7196,44,60,0
335.4505,335.7196,47,60,0
335.58942,335.8585,50,60,0
335.7283,335.8585,52,60,0
335.8672,336.1363,33,110,0
336.00607,336.27518,35,110,0
336.14496,336.41406,37,110,0
336.28384,336.4835,38,110,0
336.388,336.58768,40,110,0
336.4922,336.69183,42,110,0
336.59634,336.796,44,110,0
336.7005,336.90018,45,110,0
336.8047,337.00433,47,110,0
336.90884,337.1085,49,110,0
337.013,337.21268,50,110,0
337.1172,337.31683,52,110,0
337.3255,337.52518,33,110,0
337.53384,337.94183,34,110,0
339.2005,339.40015,47,120,0
339.3047,339.50433,59,120,0
339.40884,339.6085,57,120,0
339.513,339.71265,56,120,0
339.6172,339.81683,54,120,0
339.72134,339.921,52,120,0
339.8255,340.02515,51,120,0
339.9297,340.12933,49,120,0
340.03384,340.16406,47,120,0
340.17273,340.30295,45,120,0
340.3116,340.44183,44,120,0
340.4505,340.65015,42,120,0
340.5547,340.75433,40,120,0
340.65884,340.8585,39,120,0
340.763,340.8585,37,120,0
340.86716,341.06683,35,120,0
341.0755,341.27515,47,120,0
341.0755,341.27515,52,120,0
341.0755,341.27515,56,120,0
341.28384,341.4835,47,120,0
341.28384,341.4835,52,120,0
341.28384,341.4835,56,120,0
341.49216,341.69183,47,120,0
341.49216,341.69183,52,120,0
341.49216,341.69183,56,120,0
341.7005,341.9183,47,120,0
341.7005,341.9183,52,120,0
341.7005,341.9183,56,120,0
341.92776,342.14557,47,120,0
341.92776,342.14557,52,120,0
341.92776,342.14557,56,120,0
342.15506,342.39462,47,120,0
342.15506,342.39462,52,120,0
342.15506,342.39462,56,120,0
342.40506,342.69254,47,120,0
342.40506,342.69254,52,120,0
342.40506,342.69254,56,120,0
342.70505,343.19464,47,120,0
342.70505,343.19464,51,120,0
342.70505,343.19464,57,120,0
346.70505,348.4104,47,70,0
348.41934,349.26755,40,70,0
349.2765,350.1247,47,70,0
350.1336,351.83896,47,70,0
351.8479,352.6961,40,70,0
352.70505,353.55325,47,70,0
353.5622,353.98184,47,70,0
353.99075,354.4104,45,69,0
354.41934,354.83896,44,67,0
354.8479,355.28632,42,66,0
355.29565,355.75464,40,64,0
355.7644,356.2234,38,63,0
356.23315,356.72275,37,61,0
356.73315,357.25772,38,70,0
357.26886,357.52557,37,70,0
357.53674,357.76135,49,70,0
357.77112,357.97076,37,71,0
357.97943,358.17908,49,72,0
358.18777,358.38742,37,73,0
358.39612,358.59576,49,74,0
358.60443,358.80408,37,75,0
358.81277,359.01242,49,76,0
359.02112,359.22076,37,77,0
359.22943,359.42908,49,78,0
359.43777,359.63742,37,79,0
359.6461,359.84576,49,80,0
359.85443,360.05408,37,81,0
360.06277,360.26242,49,82,0
360.2711,360.47076,37,83,0
360.47943,360.67908,49,84,0
360.68777,360.88742,37,85,0
360.8961,361.09576,49,86,0
361.10443,361.30408,37,87,0
361.31277,361.51242,49,88,0
361.5211,361.72076,37,89,0
361.72943,361.92908,49,90,0
361.93777,362.13742,37,91,0
362.1461,362.34576,49,92,0
362.35443,362.55408,37,93,0
362.56277,362.76242,49,94,0
362.7711,362.97076,37,95,0
362.97943,363.17908,49,96,0
363.18777,363.38742,36,97,0
363.3961,363.59573,48,98,0
363.60443,363.80408,36,99,0
363.81277,364.01242,48,100,0
364.0211,364.22073,37,100,0
364.22943,364.42908,49,100,0
364.43777,364.63742,37,100,0
364.6461,364.84573,49,100,0
364.85443,365.05408,37,100,0
365.06277,365.26242,49,100,0
365.2711,365.47073,36,120,0
365.47943,365.67908,48,100,0
365.68774,365.88742,37,100,0
365.8961,366.09573,49,100,0
366.10443,366.30408,36,120,0
366.31274,366.51242,48,100,0
366.5211,366.7389,37,100,0
366.74835,366.96616,49,100,0
366.97565,367.2152,36,120,0
367.22565,367.4652,48,100,0
367.47565,367.9652,37,100,0
367.47565,367.9652,49,100,0
368.97565,369.42072,54,100,0
368.97565,369.42072,57,100,0
369.43018,369.87524,53,100,0
369.43018,369.87524,56,100,0
369.88474,370.3298,54,100,0
369.88474,370.3298,57,100,0
370.33926,370.81305,53,100,0
370.33926,370.81305,56,100,0
370.82315,371.3477,54,100,0
370.82315,371.3477,57,100,0
371.35886,371.88342,53,100,0
371.35886,371.88342,56,100,0
372.966,373.41107,59,100,0
372.966,373.41107,62,100,0
373.42053,373.86563,58,100,0
373.42053,373.86563,61,100,0
373.8751,374.32016,59,100,0
373.8751,374.32016,62,100,0
374.32962,374.80344,58,100,0
374.32962,374.80344,61,100,0
374.8135,375.33804,59,100,0
374.8135,375.33804,62,100,0
375.3492,375.79428,58,100,0
375.3492,375.79428,61,100,0
376.2583,376.70337,62,100,0
376.2583,376.70337,59,100,0
377.1674,377.5994,49,100,0
377.1674,377.5994,54,100,0
377.1674,377.5994,57,100,0
378.04974,378.50873,59,100,0
378.04974,378.50873,56,100,0
378.04974,378.50873,49,100,0
379.0185,379.32925,42,100,0
379.18515,379.46814,49,100,0
379.33795,379.60703,54,100,0
379.47684,379.74594,57,100,0
379.61572,379.88483,54,100,0
379.7546,380.0237,49,100,0
379.8935,380.1626,42,100,0
380.03238,380.30148,49,100,0
380.17126,380.44037,54,100,0
380.31015,380.57925,57,100,0
380.44907,380.71814,54,100,0
380.58795,380.85703,49,100,0
380.72684,380.9959,42,100,0
380.86572,381.13483,49,100,0
381.0046,381.2737,54,100,0
381.1435,381.4126,57,100,0
381.28238,381.55148,54,100,0
381.42126,381.69037,49,100,0
381.56015,381.82925,42,100,0
381.69904,381.96814,49,100,0
381.83795,382.10703,54,100,0
381.97684,382.2459,57,100,0
382.11572,382.38483,54,100,0
382.2546,382.38483,49,100,0
382.3935,382.6626,37,100,0
382.53238,382.80148,49,100,0
382.67126,382.94037,56,100,0
382.81015,383.07925,59,100,0
382.94904,383.21814,56,100,0
383.08792,383.35703,49,100,0
383.22684,383.4959,37,100,0
383.36572,383.6348,49,100,0
383.5046,383.7737,56,100,0
383.6435,383.9126,59,100,0
383.78238,384.05148,56,100,0
383.92126,384.05148,49,100,0
384.06015,384.32925,37,100,0
384.19904,384.46814,49,100,0
384.33792,384.60703,56,100,0
384.47684,384.7459,59,100,0
384.61572,384.8848,56,100,0
384.7546,385.0237,49,100,0
384.8935,385.1626,37,100,0
385.03238,385.30148,49,100,0
385.17126,385.44037,56,100,0
385.31015,385.57925,59,100,0
385.44904,385.71814,56,100,0
385.58792,385.71814,49,100,0
385.7268,385.9959,42,100,0
385.86572,386.1348,49,100,0
386.0046,386.27368,54,100,0
386.1435,386.4126,57,100,0
386.28238,386.55148,54,100,0
386.42126,386.69037,49,100,0
386.56015,386.82925,42,100,0
386.69904,386.96814,49,100,0
386.83792,387.10703,54,100,0
386.9768,387.2459,57,100,0
387.11572,387.3848,54,100,0
387.2546,387.52368,49,100,0
387.3935,387.66257,42,100,0
387.53238,387.80148,49,100,0
387.67126,387.94037,54,100,0
387.81015,388.07925,57,100,0
387.94904,388.21814,54,100,0
388.08792,388.35703,49,100,0
388.2268,388.4959,42,100,0
388.3657,388.6348,49,100,0
388.5046,388.77368,54,100,0
388.6435,388.91257,57,100,0
388.78238,389.05148,54,100,0
388.92126,389.05148,49,100,0
389.06015,389.32925,35,100,0
389.19904,389.46814,47,100,0
389.33792,389.60703,54,100,0
389.4768,389.7459,57,100,0
389.6157,389.8848,54,100,0
389.75458,390.02368,47,100,0
389.8935,390.16257,35,100,0
390.03238,390.30145,47,100,0
390.17126,390.44037,54,100,0
390.31015,390.57925,57,100,0
390.44904,390.71814,54,100,0
390.58792,390.85703,47,100,0
390.7268,390.9959,35,100,0
390.8657,391.1348,47,100,0
391.00458,391.27368,54,100,0
391.1435,391.41257,57,100,0
391.28238,391.55145,54,100,0
391.42126,391.69034,47,100,0
391.56015,391.82925,35,100,0
391.69904,391.96814,47,100,0
391.83792,392.11887,54,100,0
391.9768,392.277,57,100,0
392.12833,392.44366,54,100,0
392.2874,392.44366,47,100,0
392.45407,393.73706,52,120,0
392.45407,393.73706,40,120,0
393.74576,394.15375,47,120,0
393.74576,394.15375,35,120,0
394.1624,394.5704,45,120,0
394.1624,394.5704,33,120,0
394.57907,394.98706,43,120,0
394.57907,394.98706,31,120,0
394.99576,395.40372,42,120,0
394.99576,395.40372,30,120,0
395.4124,395.61206,43,120,0
395.4124,395.61206,31,120,0
395.62076,395.8204,40,120,0
395.62076,395.8204,28,120,0
395.82907,396.23706,40,120,0
395.82907,396.23706,28,120,0
396.24576,397.48706,39,120,0
396.24576,397.48706,27,120,0
398.74573,399.15372,47,120,0
398.74573,399.15372,35,120,0
399.1624,399.5704,45,120,0
399.1624,399.5704,33,120,0
399.57907,399.98706,43,120,0
399.57907,399.98706,31,120,0
399.99573,400.40372,42,120,0
399.99573,400.40372,30,120,0
400.4124,400.61206,43,120,0
400.4124,400.61206,31,120,0
400.62073,400.8204,40,120,0
400.62073,400.8204,28,120,0
400.82907,402.07037,38,120,0
400.82907,402.07037,26,120,0
402.07907,402.48706,50,120,0
402.07907,402.48706,38,120,0
402.49573,402.90372,48,120,0
402.49573,402.90372,36,120,0
402.9124,403.32037,47,120,0
402.9124,403.32037,35,120,0
403.32907,403.73706,45,120,0
403.32907,403.73706,33,120,0
403.74573,403.94537,47,120,0
403.74573,403.94537,35,120,0
403.95407,404.15372,43,120,0
403.95407,404.15372,31,120,0
404.16238,405.82037,42,120,0
404.16238,405.82037,30,120,0
405.82907,406.23706,47,120,0
405.82907,406.23706,35,120,0
406.66238,407.07037,47,120,0
406.66238,407.07037,35,120,0
407.49573,407.90372,45,120,0
407.49573,407.90372,33,120,0
408.32907,408.73703,44,120,0
408.32907,408.73703,32,120,0
409.16238,409.57037,42,70,0
409.16238,409.57037,30,70,0
409.99573,410.40372,66,70,0
409.99573,410.40372,68,70,0
410.82904,411.23703,64,70,0
410.82904,411.23703,68,70,0
411.66238,412.07037,63,70,0
411.66238,412.07037,66,70,0
411.66238,412.07037,68,70,0
412.49573,412.7648,49,70,0
412.6346,412.90372,56,70,0
412.7735,413.0426,61,70,0
412.91238,413.1815,64,70,0
413.05127,413.32037,61,70,0
413.19016,413.45926,56,70,0
413.32904,413.59814,49,70,0
413.46793,413.73703,56,70,0
413.60684,413.87592,61,70,0
413.74573,414.0148,64,70,0
413.8846,414.15372,61,70,0
414.0235,414.2926,56,70,0
414.16238,414.4315,49,70,0
414.30127,414.57037,56,70,0
414.44016,414.70926,61,70,0
414.57904,414.84814,64,70,0
414.71793,414.98703,61,70,0
414.8568,415.12592,56,70,0
414.99573,415.2648,49,70,0
415.1346,415.4037,56,70,0
415.2735,415.5426,61,70,0
415.41238,415.6815,64,70,0
415.55127,415.82037,61,70,0
415.69016,415.82037,56,70,0
415.82904,416.09814,44,70,0
415.96793,416.23703,56,70,0
416.1068,416.37592,63,70,0
416.24573,416.5148,66,70,0
416.3846,416.6537,63,70,0
416.5235,416.79257,56,70,0
416.66238,416.9315,44,70,0
416.80127,417.07037,56,70,0
416.94016,417.20926,63,70,0
417.07904,417.34814,66,70,0
417.21793,417.48703,63,70,0
417.3568,417.62592,56,70,0
417.4957,417.7648,44,70,0
417.6346,417.9037,56,70,0
417.7735,418.04257,63,70,0
417.91238,418.1815,66,70,0
418.05127,418.32037,63,70,0
418.19016,418.45926,56,70,0
418.32904,418.59814,44,70,0
418.46793,418.73703,56,70,0
418.6068,418.87592,63,70,0
418.7457,419.0148,66,70,0
418.88458,419.1537,63,70,0
419.0235,419.1537,56,70,0
419.16238,419.43146,49,70,0
419.30127,419.57037,56,70,0
419.44016,419.70926,61,70,0
419.57904,419.84814,64,70,0
419.71793,419.98703,61,70,0
419.8568,420.12592,56,70,0
419.9957,420.2648,49,70,0
420.13458,420.4037,56,70,0
420.2735,420.54257,61,70,0
420.41238,420.68146,64,70,0
420.55127,420.82034,61,70,0
420.69016,420.95926,56,70,0
420.82904,421.09814,49,70,0
420.96793,421.23703,56,70,0
421.1068,421.37592,61,69,0
421.2457,421.5148,64,68,0
421.38458,421.6537,61,67,0
421.52347,421.79257,56,66,0
421.66238,421.93146,49,65,0
421.80127,422.07034,56,64,0
421.94016,422.20926,61,63,0
422.07904,422.34814,64,62,0
422.21793,422.48703,61,61,0
422.3568,422.48703,56,60,0
422.4957,422.7648,54,70,0
422.63458,422.9037,57,70,0
422.77347,423.04257,62,70,0
422.91235,423.18146,54,70,0
423.05127,423.32034,57,70,0
423.19016,423.45923,62,70,0
423.32904,423.59814,54,70,0
423.46793,423.73703,57,70,0
423.6068,423.87592,62,70,0
423.7457,424.0148,54,70,0
423.88458,424.1537,57,70,0
424.02347,424.29257,62,70,0
424.16235,424.43146,56,70,0
424.30127,424.57034,61,70,0
424.44016,424.70923,64,70,0
424.57904,424.84814,56,70,0
424.71793,424.98703,61,70,0
424.8568,425.12592,64,70,0
424.9957,425.2648,54,70,0
425.13458,425.4037,56,70,0
425.27347,425.54257,63,70,0
425.41235,425.68146,54,70,0
425.55124,425.82034,56,70,0
425.69016,425.95923,63,70,0
425.82904,426.0981,52,70,0
425.96793,426.23703,56,71,0
426.1068,426.37592,61,73,0
426.2457,426.5148,52,75,0
426.38458,426.6537,56,76,0
426.52347,426.79257,61,78,0
426.66235,426.93146,52,80,0
426.80124,427.07034,56,81,0
426.94016,427.20923,61,83,0
427.07904,427.3481,52,85,0
427.21793,427.487,56,87,0
427.3568,427.62592,61,88,0
427.4957,427.7648,52,90,0
427.63458,427.9037,56,92,0
427.77347,428.04257,61,93,0
427.91235,428.18146,52,95,0
428.05124,428.32034,56,97,0
428.19012,428.45923,61,98,0
428.32904,428.5981,52,100,0
428.46793,428.737,56,102,0
428.6068,428.87592,61,104,0
428.7457,429.0148,52,105,0
428.88458,429.1537,56,107,0
429.02347,429.29257,61,109,0
429.16235,429.43146,54,110,0
429.30124,429.57034,57,110,0
429.44012,429.70923,61,110,0
429.579,429.8481,54,110,0
429.71793,429.987,57,110,0
429.8568,430.1259,61,110,0
429.9957,430.2648,54,110,0
430.13458,430.4037,57,110,0
430.27347,430.54257,61,110,0
430.41235,430.68146,54,110,0
430.55124,430.82034,57,110,0
430.69012,430.82034,61,110,0
430.829,431.237,54,110,0
430.829,431.237,57,110,0
430.829,431.237,61,110,0
436.42337,437.41296,54,50,0
437.42337,438.41296,61,50,0
438.42337,439.41296,59,50,0
438.42337,439.41296,62,50,0
439.42337,440.41296,49,50,0
439.42337,440.41296,57,50,0
439.42337,440.41296,61,50,0
440.42337,441.41296,49,50,0
440.42337,441.41296,56,50,0
440.42337,441.41296,59,50,0
441.42337,442.41296,49,50,0
441.42337,442.41296,54,50,0
441.42337,442.41296,57,50,0
444.42337,445.41296,50,50,0
445.42337,446.41296,57,50,0
446.42337,447.41296,59,50,0
446.42337,447.41296,55,50,0
447.42337,448.41296,54,50,0
447.42337,448.41296,57,50,0
448.42337,449.41296,45,50,0
448.42337,449.41296,52,50,0
448.42337,449.41296,55,50,0
449.42337,450.41296,54,50,0
449.42337,450.41296,50,50,0
449.42337,450.41296,45,50,0
450.42337,452.41296,45,50,0
450.42337,452.41296,49,50,0
450.42337,452.41296,52,50,0
452.42337,454.41296,42,50,0
452.42337,454.41296,47,50,0
452.42337,454.41296,50,50,0
454.42337,456.41296,40,50,0
454.42337,456.41296,45,50,0
454.42337,456.41296,49,50,0
456.42337,458.31644,40,50,0
456.42337,458.31644,44,50,0
456.42337,458.31644,47,50,0
458.3276,458.78296,33,110,0
458.3276,458.78296,45,110,0
464.79187,465.21152,52,70,0
465.22046,465.6401,57,70,0
465.64902,466.06866,54,70,0
466.0776,466.49722,49,70,0
466.50616,466.9258,51,70,0
466.93472,467.1401,52,70,0
468.22046,468.35437,62,70,0
468.3633,468.49722,64,70,0
468.50616,468.6401,62,70,0
468.64902,468.9258,61,70,0
468.79187,469.06866,64,70,0
468.93472,469.21152,61,70,0
469.0776,469.35437,62,70,0
469.22046,469.49722,64,70,0
469.3633,469.64008,62,70,0
469.50616,469.78296,61,70,0
469.64902,469.9258,64,70,0
469.79187,470.06866,61,70,0
469.93472,470.21152,57,70,0
470.07758,470.35437,64,70,0
470.22046,470.49722,57,70,0
470.3633,470.64008,56,70,0
470.50616,470.78296,59,70,0
470.64902,470.9258,56,70,0
470.79187,471.06866,52,70,0
470.93472,471.21152,56,70,0
471.07758,471.35437,52,70,0
471.22046,471.49722,51,70,0
471.3633,471.64008,52,70,0
471.50616,471.78296,51,70,0
471.64902,471.9258,50,70,0
471.79187,472.06866,52,70,0
471.93472,472.21152,50,70,0
472.07758,472.35437,49,70,0
472.22046,472.49722,52,70,0
472.3633,472.64008,49,70,0
472.50616,472.78296,50,70,0
472.64902,472.9258,52,70,0
472.79187,473.06866,50,70,0
472.93472,473.21152,49,70,0
473.07758,473.35437,52,70,0
473.22046,473.49722,49,70,0
473.3633,473.64008,45,70,0
473.50616,473.78296,49,70,0
473.64902,473.9258,52,70,0
473.93472,474.21152,47,71,0
474.07758,474.35437,52,73,0
474.22043,474.49722,49,75,0
474.3633,474.64008,52,76,0
474.50616,474.78293,57,78,0
474.64902,474.9258,56,80,0
474.79187,475.06866,61,81,0
474.93472,475.21152,64,83,0
475.07758,475.35437,61,85,0
475.22043,475.49722,64,87,0
475.3633,475.64008,69,88,0
475.50616,475.78293,68,90,0
475.64902,475.9258,71,92,0
475.79187,476.06866,76,93,0
475.93472,476.21152,69,95,0
476.07758,476.35437,73,97,0
476.22043,476.50534,76,98,0
476.3633,476.65686,68,100,0
476.5148,476.80838,71,102,0
476.66632,476.9741,76,104,0
476.81784,477.14075,69,105,0
476.9845,477.30743,73,107,0
477.15118,477.43243,76,109,0
477.44284,477.93243,76,110,0
477.44284,477.93243,68,110,0
477.44284,477.93243,71,110,0
477.44284,477.93243,64,110,0
488.07108,488.34018,57,120,0
488.21,488.47906,60,100,0
488.34888,488.61795,64,100,0
488.48776,488.75684,57,100,0
488.62665,488.89575,60,100,0
488.76553,489.03464,64,100,0
488.90442,489.17352,57,100,0
489.0433,489.3124,60,100,0
489.1822,489.4513,64,100,0
489.32108,489.59018,57,120,0
489.45996,489.72906,62,100,0
489.59888,489.86795,65,100,0
489.73776,490.00684,57,100,0
489.87665,490.14575,60,100,0
490.01553,490.28464,64,100,0
490.15442,490.42352,50,120,0
490.2933,490.5624,53,100,0
490.4322,490.7013,59,100,0
490.57108,490.84018,52,100,0
490.70996,490.97906,57,100,0
490.84885,491.11795,60,100,0
490.98776,491.25684,52,120,0
491.12665,491.39572,56,100,0
491.26553,491.39572,59,100,0
491.40442,492.64572,45,120,0
492.65442,493.0624,38,120,0
493.07108,493.47906,45,100,0
493.48773,493.89572,40,120,0
493.90442,494.3124,45,95,0
494.32108,494.72906,41,83,0
494.73773,495.14572,40,70,0
495.57108,495.97906,52,70,0
495.57108,495.97906,40,70,0
496.40442,496.8124,40,78,0
496.40442,496.8124,52,78,0
497.23773,497.64572,40,96,0
497.23773,497.64572,52,96,0
498.07108,498.47906,40,110,0
498.07108,498.47906,52,110,0
498.48773,498.75684,65,110,0
498.62662,498.89572,64,110,0
498.7655,499.0346,62,110,0
498.90442,499.1735,60,110,0
499.0433,499.31238,64,110,0
499.1822,499.45126,57,110,0
499.32108,499.59018,60,110,0
499.45996,499.72906,59,110,0
499.59885,499.72906,57,110,0
499.73773,500.00684,56,110,0
499.87662,500.14572,59,110,0
500.0155,500.2846,50,110,0
500.1544,500.4235,53,110,0
500.2933,500.56238,52,110,0
500.4322,500.70126,50,110,0
500.57108,500.84018,48,110,0
500.70996,500.97906,52,110,0
500.84885,501.11795,45,110,0
500.98773,501.25684,48,110,0
501.12662,501.39572,47,110,0
501.2655,501.39572,45,110,0
501.4044,501.5346,40,110,0
501.54327,501.6735,41,110,0
501.6822,501.81238,40,110,0
501.82108,501.95126,39,110,0
501.95996,502.09015,40,110,0
502.09885,502.22906,39,110,0
502.23773,502.36795,40,110,0
502.37662,502.50684,41,110,0
502.5155,502.64572,40,110,0
502.6544,502.7846,39,100,0
502.79327,502.9235,40,90,0
502.9322,503.06238,39,80,0
503.07108,503.47903,40,70,0
505.2172,505.6492,76,70,0
505.6584,506.11737,76,70,0
506.12714,506.65167,76,70,0
506.66284,507.53116,76,70,0
507.54007,508.38828,73,70,0
508.39722,509.674,69,70,0
509.68292,510.10257,64,70,0
510.1115,510.53113,61,70,0
510.54007,510.95972,61,70,0
510.96863,511.38828,57,70,0
511.39722,511.8457,61,70,0
511.85547,512.31445,64,70,0
512.3242,512.8138,52,70,0
512.8242,513.3138,64,70,0
513.8242,514.6854,74,70,0
514.69434,515.54254,71,70,0
515.5515,515.9711,68,70,0
515.98004,516.3997,64,70,0
516.4086,516.82825,62,70,0
516.8372,517.25684,59,70,0
517.26575,517.6854,56,70,0
517.69434,518.114,56,70,0
518.1229,518.54254,52,70,0
518.5515,518.9711,56,70,0
518.98004,519.3997,57,70,0
519.4086,519.82825,52,70,0
519.8372,520.25684,57,70,0
520.69434,521.54254,62,70,0
521.55145,522.3997,57,70,0
522.4086,523.25684,62,70,0
523.26575,524.11395,57,70,0
524.1229,524.54254,62,70,0
524.55145,524.9711,57,70,0
524.98004,525.3997,56,70,0
525.4086,525.82825,57,70,0
525.8372,526.6854,52,70,0
526.69434,527.54254,47,70,0
527.55145,527.9711,40,70,0
529.8145,530.0199,45,70,0
530.0288,530.23413,47,70,0
530.2431,530.4484,49,70,0
530.4574,530.6627,50,70,0
530.67163,530.877,52,70,0
530.8859,531.0913,54,70,0
531.1002,531.3056,56,70,0
531.3145,531.5199,57,70,0
531.5288,531.73413,59,70,0
531.7431,531.9484,61,70,0
531.9574,532.1627,62,70,0
532.17163,532.377,64,70,0
532.3859,532.5913,66,70,0
532.6002,532.8056,68,70,0
532.8145,533.01984,69,70,0
533.0288,533.23413,71,70,0
533.2431,533.4484,72,70,0
533.45734,533.6627,73,70,0
533.67163,533.877,72,70,0
533.8859,534.0913,73,70,0
534.1002,534.3056,76,70,0
534.3145,534.51984,73,70,0
534.5288,535.8056,71,70,0
534.5288,535.8056,74,70,0
536.67163,536.877,40,70,0
536.8859,537.0913,42,70,0
537.1002,537.3056,44,70,0
537.3145,537.51984,45,70,0
537.5288,537.73413,47,70,0
537.7431,537.9484,49,70,0
537.95734,538.1627,50,70,0
538.17163,538.377,52,70,0
538.3859,538.5913,54,70,0
538.6002,538.8056,56,70,0
538.8145,539.01984,57,70,0
539.0288,539.23413,59,70,0
539.2431,539.4484,61,70,0
539.45734,539.6627,62,70,0
539.67163,539.877,64,70,0
539.8859,540.0913,66,70,0
540.1002,540.3056,68,70,0
540.3145,540.51984,69,70,0
540.5288,540.73413,71,70,0
540.7431,540.9484,73,70,0
540.95734,541.1627,74,70,0
541.17163,541.377,68,70,0
541.3859,541.80554,71,70,0
541.8145,542.23413,68,70,0
542.24304,542.6627,69,70,0
543.1002,543.9484,50,70,0
543.1002,543.9484,57,70,0
543.95734,544.80554,45,70,0
543.95734,544.80554,57,70,0
544.8145,545.6627,50,70,0
544.8145,545.6627,57,70,0
545.67163,546.51984,45,70,0
545.67163,546.51984,57,70,0
546.5288,546.9484,62,70,0
546.95734,547.377,58,70,0
547.3859,547.80554,59,70,0
547.8145,548.23413,54,70,0
548.24304,548.6627,56,70,0
548.67163,549.0913,51,70,0
549.1002,549.51984,52,70,0
549.5288,549.9484,48,70,0
549.95734,550.377,49,70,0
550.3859,550.80554,44,70,0
550.8145,551.23413,45,70,0
551.24304,551.6627,38,70,0
551.67163,552.09125,40,70,0
552.52875,552.9739,52,70,0
552.52875,552.9739,40,70,0
553.46716,553.73627,33,100,0
553.6061,553.8752,37,100,0
553.745,554.01404,40,100,0
553.88385,554.0835,45,100,0
553.98804,554.1877,49,100,0
554.09216,554.2919,52,100,0
554.19635,554.396,57,100,0
554.30054,554.56964,49,100,0
554.4394,554.7085,52,100,0
554.5783,554.8474,57,100,0
554.71716,554.98627,52,100,0
554.8561,555.1252,56,100,0
555.13385,555.40295,52,125,0
555.27277,555.5419,57,100,0
555.4116,555.6807,61,100,0
555.55054,555.81964,49,100,0
555.6894,555.9585,52,100,0
555.8283,556.0974,57,100,0
555.96716,556.23627,49,100,0
556.1061,556.3752,52,100,0
556.24493,556.51404,57,100,0
556.38385,556.65295,52,100,0
556.52277,556.7918,56,100,0
556.80054,557.06964,52,125,0
556.9394,557.2085,57,100,0
557.0783,557.3474,61,100,0
557.21716,557.48627,52,100,0
557.3561,557.6252,57,100,0
557.49493,557.76404,61,100,0
557.63385,557.90295,54,125,0
557.77277,558.0418,57,100,0
557.9116,558.1807,62,100,0
558.05054,558.31964,54,100,0
558.1894,558.4585,57,100,0
558.3283,558.5974,62,100,0
558.46716,558.73627,51,125,0
558.6061,558.8752,56,100,0
558.74493,559.01404,60,100,0
558.88385,559.15295,51,100,0
559.02277,559.2918,56,100,0
559.1616,559.4307,60,100,0
559.30054,559.56964,49,125,0
559.4394,559.7085,56,100,0
559.5783,559.8474,59,100,0
559.71716,559.98627,49,100,0
559.8561,560.1252,54,100,0
559.99493,560.1252,58,100,0
560.13385,560.40295,47,125,0
560.27277,560.5418,54,100,0
560.4116,560.6807,57,100,0
560.55054,560.8196,47,100,0
560.6894,560.9585,54,100,0
560.8283,561.0974,57,100,0
560.96716,561.23627,49,125,0
561.1061,561.3752,52,100,0
561.24493,561.51404,57,100,0
561.38385,561.65295,49,100,0
561.5227,561.7918,52,100,0
561.6616,561.9307,57,100,0
561.80054,562.0696,50,125,0
561.9394,562.2085,54,100,0
562.0783,562.3474,59,100,0
562.21716,562.48627,50,100,0
562.3561,562.6252,54,100,0
562.49493,562.76404,59,100,0
562.63385,562.90295,50,125,0
562.7727,563.0418,52,100,0
562.9116,563.1807,56,100,0
563.05054,563.3196,50,100,0
563.1894,563.4585,52,100,0
563.3283,563.5974,56,100,0
563.46716,563.6668,49,100,0
563.46716,563.6668,52,100,0
563.46716,563.6668,57,100,0
563.67554,563.8752,69,100,0
563.77966,563.9793,68,100,0
563.88385,564.0835,69,100,0
563.98804,564.1877,64,100,0
564.09216,564.2918,61,100,0
564.19635,564.396,64,100,0
564.30054,564.5002,61,100,0
564.40466,564.6043,64,100,0
564.50885,564.7085,69,100,0
564.613,564.8127,64,100,0
564.71716,564.9168,62,100,0
564.82135,565.021,64,100,0
564.9255,565.1252,68,100,0
565.02966,565.1252,64,100,0
565.13385,565.3335,61,100,0
565.238,565.4377,64,100,0
565.34216,565.5418,69,100,0
565.44635,565.646,68,100,0
565.5505,565.7502,69,100,0
565.65466,565.8543,64,100,0
565.75885,565.9585,61,100,0
565.863,566.0627,64,100,0
565.96716,566.1668,61,100,0
566.07135,566.271,64,100,0
566.1755,566.3752,69,100,0
566.27966,566.4793,64,100,0
566.38385,566.5835,62,100,0
566.488,566.6877,64,100,0
566.59216,566.7918,68,100,0
566.69635,566.7918,64,100,0
566.8005,567.0002,61,100,0
566.90466,567.1043,64,100,0
567.00885,567.2085,69,100,0
567.113,567.3127,64,100,0
567.21716,567.4168,61,100,0
567.32135,567.521,64,100,0
567.4255,567.6252,69,100,0
567.52966,567.7293,64,100,0
567.63385,567.8335,62,100,0
567.738,567.9377,66,100,0
567.84216,568.0418,69,100,0
567.94635,568.146,66,100,0
568.0505,568.2502,62,100,0
568.15466,568.3543,66,100,0
568.25885,568.4585,69,100,0
568.363,568.4585,64,100,0
568.46716,568.6668,63,100,0
568.57135,568.771,66,100,0
568.6755,568.8751,68,100,0
568.77966,568.9793,66,100,0
568.88385,569.0835,63,100,0
568.988,569.1876,68,100,0
569.09216,569.2918,72,100,0
569.19635,569.396,68,100,0
569.3005,569.5001,61,100,0
569.40466,569.6043,68,100,0
569.50885,569.7085,71,100,0
569.613,569.8126,68,100,0
569.71716,569.9168,61,100,0
569.82135,570.021,66,100,0
569.9255,570.1251,70,100,0
570.02966,570.1251,66,100,0
570.13385,570.3335,61,100,0
570.238,570.4376,66,100,0
570.34216,570.5418,69,100,0
570.44635,570.646,66,100,0
570.5505,570.7501,59,100,0
570.65466,570.8543,66,100,0
570.75885,570.9585,69,100,0
570.863,571.0626,66,100,0
570.96716,571.1668,59,100,0
571.07135,571.271,64,100,0
571.1755,571.3751,68,100,0
571.27966,571.4793,64,100,0
571.38385,571.5835,61,100,0
571.488,571.6876,64,100,0
571.59216,571.7918,69,100,0
571.69635,571.7918,64,100,0
571.8005,572.0001,62,100,0
571.90466,572.1043,65,100,0
572.00885,572.2085,69,100,0
572.113,572.2085,65,100,0
572.21716,572.4168,62,100,0
572.32135,572.521,65,100,0
572.4255,572.6251,62,100,0
572.52966,572.7293,65,100,0
572.63385,572.8335,59,100,0
572.738,572.9376,62,100,0
572.84216,573.0418,65,100,0
572.94635,573.146,62,100,0
573.0505,573.2501,57,100,0
573.15466,573.3543,59,106,0
573.25885,573.4585,62,113,0
573.363,573.4585,59,120,0
573.46716,573.6668,56,120,0
573.57135,573.771,59,120,0
573.6755,573.8751,62,120,0
573.77966,573.9793,59,120,0
573.88385,574.0835,56,120,0
573.988,574.1876,59,120,0
574.09216,574.2918,62,120,0
574.19635,574.396,59,120,0
574.3005,574.5001,56,120,0
574.40466,574.6043,59,120,0
574.50885,574.7085,62,120,0
574.613,574.8126,59,120,0
574.71716,574.9168,56,120,0
574.82135,575.021,59,120,0
574.9255,575.1251,62,120,0
575.02966,575.2293,59,120,0
575.13385,575.3335,56,120,0
575.238,575.4376,59,120,0
575.34216,575.5418,62,120,0
575.44635,575.646,59,120,0
575.5505,575.7501,56,120,0
575.65466,575.8543,59,115,0
575.75885,575.9585,62,110,0
575.863,576.06824,59,105,0
575.96716,576.1785,56,100,0
576.07745,576.2888,59,95,0
576.18774,576.3992,62,90,0
576.29803,576.51575,59,85,0
576.4083,576.63293,56,80,0
576.5255,576.7501,59,75,0
576.6427,576.8673,62,70,0
576.7599,576.8673,59,65,0
576.8771,577.17224,56,60,0
577.0333,577.3111,59,60,0
577.1809,577.45,62,60,0
577.31976,577.58887,56,60,0
577.4587,577.7278,59,60,0
577.5976,577.86664,62,60,0
577.73645,578.00555,56,60,0
577.87537,578.1445,59,60,0
578.0142,578.2833,62,60,0
578.15314,578.42224,56,60,0
578.292,578.5611,59,60,0
578.4309,578.7,62,60,0
578.56976,578.83887,56,60,0
578.7087,578.9778,59,60,0
578.84753,579.11664,62,60,0
578.98645,579.25555,56,60,0
579.12537,579.3944,59,60,0
579.2642,579.5333,62,60,0
579.40314,579.67224,56,60,0
579.542,579.8111,59,60,0
579.6809,579.95,62,60,0
579.81976,580.08887,56,60,0
579.9587,580.2278,59,60,0
580.09753,580.2278,62,60,0
580.23645,580.50555,55,60,0
580.37537,580.6444,57,60,0
580.5142,580.7833,61,60,0
580.65314,580.92224,55,60,0
580.792,581.0611,57,60,0
580.9309,581.2,61,60,0
581.06976,581.33887,55,60,0
581.2087,581.4778,57,60,0
581.34753,581.61664,61,60,0
581.48645,581.75555,55,60,0
581.62537,581.8944,57,60,0
581.7642,581.8944,61,60,0
581.90314,582.17224,49,60,0
582.042,582.3111,52,60,0
582.1809,582.45,55,60,0
582.31976,582.58887,49,60,0
582.4587,582.7278,52,60,0
582.59753,582.86664,55,60,0
582.73645,583.00555,49,60,0
582.8753,583.1444,52,60,0
583.0142,583.2833,55,60,0
583.15314,583.4222,49,60,0
583.292,583.5611,52,71,0
583.4309,583.5611,55,83,0
583.56976,583.7,38,100,0
583.7087,583.83887,40,100,0
583.84753,583.9778,42,100,0
583.98645,584.0819,43,100,0
584.09064,584.1861,45,100,0
584.19476,584.2903,47,100,0
584.29895,584.3944,49,100,0
584.40314,584.4986,50,100,0
584.50726,584.6028,52,100,0
584.61145,584.7069,54,100,0
584.71564,584.8111,55,100,0
584.81976,585.0194,57,100,0
585.02814,585.2278,38,100,0
585.23645,585.6444,39,100,0
586.90314,586.9986,52,120,0
587.00726,587.1028,64,120,0
587.11145,587.2069,62,120,0
587.2156,587.3111,61,120,0
587.31976,587.4153,59,120,0
587.42395,587.5194,57,120,0
587.5281,587.6236,56,120,0
587.63226,587.7278,54,120,0
587.73645,587.86664,52,120,0
587.8753,588.00555,50,120,0
588.0142,588.1444,49,120,0
588.1531,588.2486,47,120,0
588.25726,588.3528,45,120,0
588.36145,588.4569,44,120,0
588.4656,588.5611,42,120,0
588.56976,588.7694,40,120,0
588.7781,588.9778,52,120,0
588.7781,588.9778,57,120,0
588.7781,588.9778,61,120,0
588.98645,589.1861,52,120,0
588.98645,589.1861,57,120,0
588.98645,589.1861,61,120,0
589.19476,589.3944,52,120,0
589.19476,589.3944,57,120,0
589.19476,589.3944,61,120,0
589.4031,589.6209,52,120,0
589.4031,589.6209,57,120,0
589.4031,589.6209,61,120,0
589.6304,589.8482,52,120,0
589.6304,589.8482,57,120,0
589.6304,589.8482,61,120,0
589.85767,590.0972,52,120,0
589.85767,590.0972,57,120,0
589.85767,590.0972,61,120,0
590.10767,590.39514,52,120,0
590.10767,590.39514,57,120,0
590.10767,590.39514,61,120,0
590.40765,590.83966,52,120,0
590.40765,590.83966,56,120,0
590.40765,590.83966,62,120,0
593.9371,595.69257,40,70,0
593.9371,595.69257,52,70,0
595.7018,596.57495,45,70,0
596.5841,597.4573,52,70,0
597.4665,599.222,40,70,0
597.4665,599.222,52,70,0
599.23114,600.1043,45,70,0
600.1135,600.9867,52,70,0
600.99585,601.42786,52,70,0
601.4371,601.869,50,70,0
601.87823,602.3102,49,70,0
602.3194,602.7514,47,70,0
602.76056,603.19257,45,65,0
603.2018,603.6337,43,62,0
603.64294,604.1019,42,58,0
604.1117,604.60126,40,55,0
604.6117,605.48486,38,50,0
605.494,606.3672,45,50,0
606.3764,607.69073,47,50,0
607.6999,608.1319,42,50,0
608.1411,608.57306,45,50,0
608.5823,609.0142,43,50,0
609.02344,609.45544,42,50,0
609.4646,609.6892,43,50,0
609.699,609.9236,40,50,0
609.93335,610.833,38,60,0
610.84247,611.28754,37,60,0
611.7515,612.1966,33,60,0
611.7515,612.1966,45,60,0
613.5697,614.0148,35,60,0
613.5697,614.0148,47,60,0
615.3879,615.833,40,60,0
615.3879,615.833,52,60,0
617.20605,617.6512,45,60,0
617.20605,617.6512,57,60,0
618.5697,619.0148,61,60,0
619.0243,619.24207,61,60,0
619.2515,619.46936,57,60,0
619.4788,619.6966,62,60,0
619.70605,619.9239,57,60,0
619.93335,620.1512,62,60,0
620.16064,620.3784,57,60,0
620.3879,620.6057,62,60,0
620.6152,620.83295,57,60,0
620.84247,621.057,59,60,0
621.06635,621.2809,57,60,0
621.2902,621.50476,60,60,0
621.5141,621.72864,57,60,0
621.738,621.9525,60,60,0
621.96185,622.1764,57,60,0
622.1857,622.40027,60,60,0
622.4096,622.62415,57,60,0
622.6335,622.8449,64,60,0
622.85406,623.0655,57,60,0
623.07465,623.2861,65,60,0
623.2952,623.50665,57,60,0
623.51587,623.72723,65,60,0
623.73645,623.9478,57,60,0
623.95703,624.1684,65,60,0
624.1776,624.389,57,60,0
624.3982,624.6065,63,60,0
624.6156,624.8239,57,60,0
624.83295,625.0413,64,60,0
625.05035,625.2587,57,60,0
625.26776,625.4761,64,60,0
625.48517,625.6935,57,60,0
625.7025,625.9109,64,60,0
625.9199,626.12823,57,60,0
626.1373,626.34564,61,50,0
626.35474,626.56305,57,51,0
626.5721,626.78046,62,52,0
626.7895,626.9978,57,53,0
627.0069,627.2152,61,54,0
627.2243,627.4326,57,55,0
627.44165,627.65,62,56,0
627.65906,627.8674,57,57,0
627.87646,628.0818,59,58,0
628.09076,628.2961,57,59,0
628.305,628.5104,60,61,0
628.5193,628.7247,57,62,0
628.7336,628.93896,59,63,0
628.9479,629.15326,57,64,0
629.1622,629.3675,60,65,0
629.37646,629.5818,57,66,0
629.59076,629.7932,64,67,0
629.802,630.00446,57,68,0
630.01324,630.21576,65,69,0
630.22455,630.427,57,71,0
630.4358,630.63824,64,72,0
630.6471,630.84955,57,73,0
630.85834,631.0608,65,74,0
631.0696,631.2721,57,75,0
631.2809,631.4805,63,76,0
631.4892,631.68884,57,77,0
631.6975,631.8972,64,78,0
631.9059,632.1055,57,79,0
632.1142,632.31384,63,81,0
632.3225,632.5222,57,82,0
632.5309,632.7305,64,83,0
632.7392,632.93884,57,84,0
632.9475,633.1472,62,85,0
633.1559,633.3555,59,86,0
633.3642,633.56384,64,87,0
633.5725,633.7722,62,88,0
633.7809,633.9805,60,89,0
633.9892,634.18884,57,91,0
634.1975,634.3972,62,92,0
634.4059,634.6055,60,93,0
634.6142,634.81384,59,94,0
634.8225,635.02216,56,95,0
635.0309,635.2305,60,96,0
635.2392,635.43884,59,97,0
635.4475,635.64716,57,98,0
635.6559,635.8555,52,99,0
635.8642,636.06384,61,100,0
636.0725,636.27216,57,102,0
636.2809,636.4805,54,103,0
636.2809,636.4805,57,103,0
636.4892,636.68884,62,104,0
636.6975,636.89716,54,105,0
636.6975,636.89716,57,105,0
636.9059,637.1055,62,106,0
637.1142,637.332,53,107,0
637.1142,637.332,57,107,0
637.3415,637.55927,60,108,0
637.5687,637.8006,53,109,0
637.5687,637.8006,57,109,0
637.81067,638.0674,60,110,0
638.07855,638.37366,52,120,0
638.2348,638.5126,57,120,0
638.3823,638.6514,61,120,0
638.52124,638.79034,40,120,0
638.66016,638.9292,45,120,0
638.799,639.0681,49,120,0
638.9379,639.20703,40,120,0
639.0768,639.3459,45,120,0
639.2157,639.4848,49,120,0
639.35455,639.62366,40,120,0
639.49347,639.7626,45,120,0
639.6323,639.7626,49,120,0
639.77124,640.04034,40,120,0
639.91016,640.1792,47,120,0
640.049,640.3181,50,120,0
640.1879,640.45703,40,120,0
640.3268,640.5959,47,120,0
640.4657,640.7348,50,120,0
640.60455,640.87366,40,120,0
640.74347,641.0126,47,120,0
640.8823,641.1514,50,120,0
641.02124,641.29034,40,120,0
641.1601,641.4292,47,120,0
641.299,641.4292,50,120,0
641.4379,642.2626,45,120,0
641.4379,642.2626,33,120,0
642.27124,643.0959,52,120,0
642.27124,643.0959,40,120,0
643.10455,644.35455,54,120,0
643.10455,644.35455,42,120,0
644.35455,644.77124,49,120,0
644.35455,644.77124,37,120,0
644.77124,645.1879,52,120,0
644.77124,645.1879,40,120,0
645.1879,645.60455,50,120,0
645.1879,645.60455,38,120,0
645.60455,646.02124,49,120,0
645.60455,646.02124,37,120,0
646.02124,646.22955,50,120,0
646.02124,646.22955,38,120,0
646.22955,646.43787,47,120,0
646.22955,646.43787,35,120,0
646.43787,647.2626,45,120,0
646.43787,647.2626,33,120,0
647.27124,647.68787,44,120,0
647.27124,647.68787,32,120,0
647.68787,648.10455,40,120,0
648.10455,648.52124,45,120,0
648.52124,648.93787,42,120,0
648.93787,649.3791,37,120,0
649.3791,649.84784,39,120,0
649.84784,651.1246,40,120,0
651.5621,653.26746,40,70,0
651.5621,653.26746,52,70,0
653.27637,654.55316,45,70,0
653.27637,654.55316,52,70,0
654.5621,654.98175,56,70,0
654.99066,655.41034,57,70,0
655.41925,655.83887,54,70,0
655.84784,656.28625,49,70,0
656.2956,656.7546,51,70,0
656.76434,658.46967,52,70,0
658.4786,660.18396,40,70,0
660.1929,661.89825,45,70,0
661.90717,663.5652,40,70,0
663.57385,663.9818,33,70,0
664.40717,664.8152,33,70,0
665.2405,665.6485,33,70,0
666.07385,666.4818,33,70,0
666.90717,667.3151,33,70,0
667.32385,667.7318,33,68,0
667.7405,668.1485,33,65,0
668.15717,668.5651,33,62,0
668.57385,668.9818,33,60,0
668.9905,669.3985,33,57,0
669.40717,669.8268,33,54,0
669.83575,670.28424,33,51,0
670.294,670.7337,33,50,0
672.0284,672.8766,57,50,0
672.8855,673.7337,64,50,0
673.7427,674.5909,66,50,0
674.5998,675.448,61,50,0
675.4569,677.1623,59,50,0
675.4569,677.1623,64,50,0
675.4569,677.1623,68,50,0
677.1712,677.5909,61,50,0
677.1712,677.5909,64,50,0
677.1712,677.5909,69,50,0
678.8855,680.5909,56,50,0
678.8855,680.5909,59,50,0
678.8855,680.5909,64,50,0
680.5998,681.0194,57,50,0
680.5998,681.0194,61,50,0
680.5998,681.0194,64,50,0
682.3141,684.0194,52,100,0
682.3141,684.0194,59,100,0
682.3141,684.0194,62,100,0
684.0283,684.2337,57,100,0
684.0283,684.2337,61,100,0
684.4569,684.6623,50,100,0
684.4569,684.6623,57,100,0
684.4569,684.6623,62,100,0
684.8855,685.0908,52,100,0
684.8855,685.0908,57,100,0
684.8855,685.0908,61,100,0
685.3141,685.53186,40,100,0
685.3141,685.53186,52,100,0
685.7686,686.2137,45,100,0
685.7686,686.2137,57,100,0
686.6777,687.1673,40,110,0
686.6777,687.1673,52,110,0
687.6777,688.4173,33,120,0
687.6777,688.4173,45,120,0
127.96962,128.37761,47,100,45
128.38629,128.79428,52,120,45
129.63629,130.04427,47,100,45
130.05295,130.46094,52,120,45
130.88629,131.29427,45,120,45
131.71962,132.1276,51,120,45
132.55295,132.96094,44,120,45
132.96962,133.3776,49,100,45
133.38628,133.79427,42,120,45
134.2196,134.6276,44,120,45
134.63628,135.04427,49,100,45
135.05295,135.46092,45,120,45
135.88628,136.29427,47,120,45
306.8807,307.2887,47,100,45
307.29736,307.70535,52,120,45
308.54736,308.95535,47,100,45
308.96402,309.372,52,120,45
309.79736,310.20535,45,120,45
310.6307,311.0387,51,120,45
311.46402,311.872,44,120,45
311.8807,312.2887,49,100,45
312.29736,312.70535,42,120,45
313.1307,313.53867,44,120,45
313.54736,313.95535,49,100,45
313.96402,314.372,45,120,45
314.79736,315.20535,47,120,45
554.71716,555.1252,40,100,45
555.13385,555.5419,45,125,45
556.38385,556.7918,40,100,45
556.80054,557.2085,45,125,45
557.63385,558.0418,38,125,45
558.46716,558.8752,44,125,45
559.30054,559.7085,37,125,45
559.71716,560.1252,42,100,45
560.13385,560.5418,47,125,45
560.96716,561.3752,37,125,45
561.38385,561.7918,42,100,45
561.80054,562.2085,38,125,45
562.63385,563.0418,40,125,45
