start_time,end_time,note_value,velocity,instrument_program_number
5.032248,5.417328,52,70,42
5.612892,5.997972,57,70,42
6.193536,6.5786157,59,70,42
6.580632,6.629019,60,70,42
6.629019,6.677406,59,70,42
6.677406,6.77418,57,70,42
6.77418,6.965712,59,70,42
6.967728,7.15926,60,70,42
7.354824,7.739904,62,70,42
7.935468,8.320548,64,70,42
8.516112,8.659257,62,70,42
8.70966,8.758047,62,70,42
8.758047,8.903208,60,70,42
8.903208,9.046353,59,70,42
9.096756,9.239901,57,70,42
9.290304,9.338691,60,70,42
9.338691,9.483852,59,70,42
9.483852,9.675384,57,70,42
10.838688,11.223768,64,70,42
11.225784,11.368929,62,70,42
11.419332,11.562477,60,70,42
11.61288,11.661267,64,70,42
11.661267,11.806428,62,70,42
11.806428,11.99796,60,70,42
13.161264,13.546344,60,70,42
13.54836,13.6915045,59,70,42
13.741908,13.885053,57,70,42
13.935456,13.983843,60,70,42
13.983843,14.129004,59,70,42
14.129004,14.320536,57,70,42
14.5161,14.707632,65,110,42
15.096744,15.288276,65,110,42
15.677388,15.86892,64,110,42
16.258032,16.449564,67,110,42
16.838676,17.036592,67,110,42
17.438677,17.636593,71,110,42
17.838676,18.05073,71,70,42
18.052961,18.631588,71,70,42
18.633604,19.212233,63,65,42
19.214249,19.40578,64,60,42
20.375538,20.954165,71,70,42
20.95618,21.53481,63,70,42
21.536825,22.115454,64,70,42
22.11747,22.696096,62,60,42
22.698112,22.889645,60,50,42
23.859402,24.438028,64,70,42
24.440044,25.018673,56,70,42
25.020689,25.599318,57,70,42
25.601334,26.760605,64,75,42
26.76262,27.921892,57,85,42
27.923908,29.083181,62,95,42
29.085197,29.857372,67,105,42
29.859388,30.002533,67,110,42
30.052937,30.196081,64,110,42
30.246485,30.438017,69,110,42
30.440033,30.583178,65,110,42
30.633581,30.776726,62,110,42
30.82713,31.018661,67,110,42
31.020678,31.163822,64,110,42
31.214226,31.35737,60,110,42
31.988417,32.186333,67,110,42
32.188416,32.336334,62,110,42
32.388416,32.55909,59,110,42
35.4033,35.546444,62,70,42
35.596848,35.78838,62,70,42
35.790398,35.838783,64,70,42
35.838783,35.88717,62,70,42
35.88717,35.983944,60,70,42
35.983944,36.175476,62,70,42
36.17749,36.369022,64,70,42
37.725876,37.869022,59,70,42
37.919422,38.110954,59,70,42
38.112972,38.161358,60,70,42
38.161358,38.209747,59,70,42
38.209747,38.30652,57,70,42
38.30652,38.49805,59,70,42
38.50007,38.6916,60,70,42
38.887165,39.272243,64,70,42
39.467808,39.852886,64,70,42
40.04845,40.433533,69,70,42
40.629097,40.82063,69,70,42
40.822643,41.014175,68,70,42
41.20974,41.59482,64,70,42
41.790382,42.175465,64,70,42
42.37103,42.56256,64,70,42
42.564575,42.756107,69,70,42
42.95167,43.143204,69,70,42
43.14522,43.33675,68,70,42
43.532314,43.723846,64,70,42
43.725864,43.917397,57,70,42
44.11296,44.304493,57,70,42
44.306507,44.49804,52,70,42
44.693604,44.885136,52,70,42
44.887154,45.078686,45,70,42
45.274246,45.46578,45,70,42
45.467796,45.65933,40,70,42
45.854893,46.246357,64,80,42
46.44844,46.868347,64,93,42
47.092884,47.53501,64,106,42
47.75955,48.14463,64,110,42
48.340195,48.725273,69,110,42
48.920837,49.25955,71,110,42
49.25955,49.307934,72,110,42
49.307934,49.40471,71,110,42
49.40471,49.50148,69,110,42
49.50148,49.693012,71,110,42
49.69503,49.886562,72,110,42
50.082127,50.467205,74,110,42
50.66277,51.04785,76,110,42
51.243416,51.582123,74,110,42
51.582123,51.63051,76,110,42
51.63051,51.727283,74,110,42
51.727283,51.82406,72,110,42
51.82406,52.01559,74,110,42
52.017605,52.209137,76,110,42
52.4047,52.789783,71,110,42
52.985348,53.370426,72,110,42
53.56599,53.95107,71,110,42
53.953087,54.001472,72,110,42
54.001472,54.04986,71,110,42
54.04986,54.146633,69,110,42
54.146633,54.338165,71,110,42
54.340183,54.531715,69,110,42
54.72728,55.11236,69,110,42
55.307922,55.499454,68,110,42
55.50147,55.693,69,110,42
55.888565,56.273647,69,110,42
56.46921,56.660744,68,110,42
56.662758,56.85429,69,110,42
57.049854,57.241386,68,110,42
57.2434,57.434933,69,110,42
57.630497,57.82203,68,110,42
57.824047,58.01558,69,110,42
58.211143,58.402676,68,110,42
58.40469,58.596222,69,110,42
58.791786,58.98332,68,110,42
58.985332,61.499443,69,110,42
64.21872,64.816635,52,70,42
64.21872,64.816635,61,70,42
64.81872,65.41663,50,70,42
64.81872,65.41663,59,70,42
65.41872,65.816635,54,70,42
65.41872,65.816635,62,70,42
65.81872,66.01664,52,70,42
65.81872,66.01664,61,70,42
66.01872,66.61664,52,70,42
66.01872,66.61664,61,70,42
66.61872,67.21664,64,70,42
67.21872,67.816635,62,70,42
67.81872,68.21664,66,70,42
67.81872,68.21664,62,70,42
68.21872,68.41663,64,60,42
68.21872,68.41663,61,60,42
68.41872,68.61664,57,50,42
68.41872,68.61664,61,50,42
71.01872,71.21664,52,70,42
71.21872,71.41663,59,70,42
71.41872,71.566635,61,70,42
71.61872,71.816635,61,70,42
71.81872,72.01664,59,70,42
72.01872,72.16663,59,70,42
72.21872,72.41663,59,70,42
72.41872,72.61664,61,70,42
72.61872,72.76664,62,70,42
72.81872,73.01664,62,70,42
73.01872,73.21664,61,70,42
73.21872,73.41663,57,70,42
73.81872,74.41663,52,70,42
73.81872,74.41663,61,70,42
74.41872,75.01664,50,70,42
74.41872,75.01664,59,70,42
75.01872,75.41663,54,70,42
75.01872,75.41663,62,70,42
75.41872,75.61664,52,70,42
75.41872,75.61664,61,70,42
75.61872,76.21664,52,70,42
75.61872,76.21664,61,70,42
76.21872,76.816635,64,70,42
76.81872,77.41663,62,70,42
77.41872,77.816635,66,70,42
77.41872,77.816635,62,70,42
77.81872,78.01664,64,60,42
77.81872,78.01664,61,60,42
78.01872,78.21664,57,50,42
78.01872,78.21664,61,50,42
80.61872,80.816635,52,70,42
80.81872,81.01664,59,70,42
81.01872,81.16663,61,70,42
81.21872,81.41663,61,70,42
81.41872,81.61664,59,70,42
81.61872,81.76664,59,70,42
81.81872,82.01664,59,70,42
82.01872,82.21664,61,70,42
82.21872,82.371735,62,70,42
82.42561,82.630356,62,70,42
82.632515,82.83725,61,70,42
82.83941,83.03732,57,70,42
83.23941,83.437325,61,70,42
83.43941,83.63732,59,70,42
83.83941,84.03732,61,70,42
84.039406,84.23733,59,70,42
84.43941,84.63732,61,70,42
84.639404,84.837326,59,70,42
85.039406,85.23733,61,70,42
85.23941,85.437325,59,70,42
85.639404,85.837326,61,70,42
85.83941,86.03732,59,70,42
86.23941,86.437325,61,75,42
86.43941,86.64,59,78,42
86.84481,87.0454,61,83,42
87.047516,87.25226,59,86,42
87.4613,87.666046,61,91,42
87.668205,87.77165,59,94,42
87.77165,87.87165,61,95,42
87.87165,87.97165,59,96,42
87.97165,88.07165,61,98,42
88.07165,88.17165,59,99,42
88.17165,88.27165,61,100,42
88.27165,88.37165,59,110,42
88.37165,88.47165,61,110,42
88.47165,88.57165,59,110,42
88.57165,88.67165,61,110,42
88.67165,88.77165,59,110,42
88.77165,88.87165,61,110,42
88.87165,88.97165,59,110,42
88.97165,89.07165,61,110,42
89.07165,89.17165,59,110,42
89.17165,89.27165,61,110,42
89.27165,89.37165,59,110,42
89.37165,89.47165,61,110,42
89.47165,89.57165,59,110,42
89.57165,89.67165,61,110,42
89.67165,89.77165,59,110,42
89.77165,89.87165,61,110,42
89.87165,89.97165,59,110,42
89.97165,90.07165,61,110,42
90.07165,90.17165,59,110,42
90.17165,90.27165,61,70,42
90.27165,90.37165,59,70,42
90.37165,90.47165,61,70,42
90.47165,90.57165,59,70,42
90.57165,90.67165,61,70,42
90.67165,90.77165,62,70,42
90.77165,90.87165,61,70,42
90.87165,90.97165,62,70,42
90.97165,91.07165,61,70,42
91.07165,91.17165,62,70,42
91.17165,91.27165,61,70,42
91.27165,91.37165,59,70,42
91.37165,91.47165,57,70,42
91.47165,91.57165,59,70,42
91.57165,91.67165,57,70,42
91.67165,91.77165,59,70,42
91.77165,91.87165,57,70,42
91.87165,91.97165,56,70,42
91.97165,92.07165,54,70,42
92.07165,92.17165,56,70,42
92.17165,92.27165,54,70,42
92.27165,92.37165,56,70,42
92.37165,92.47165,54,70,42
92.47165,92.57165,52,70,42
92.57165,92.67165,54,70,42
92.67165,92.77165,52,70,42
92.77165,92.87165,54,70,42
92.87165,92.97165,52,70,42
92.97165,93.07165,54,70,42
93.07165,93.17165,50,70,42
93.17165,93.27165,52,70,42
93.27165,93.37165,50,70,42
93.37165,93.47165,52,70,42
93.47165,93.57165,50,70,42
93.57165,93.67165,52,70,42
93.67165,93.77165,49,70,42
93.77165,93.87165,50,70,42
93.87165,93.97165,49,70,42
93.97165,94.07165,50,70,42
94.07165,94.17165,49,70,42
94.17165,94.27165,50,70,42
94.27165,94.37165,47,70,42
94.37165,94.47165,49,70,42
94.47165,94.57165,47,70,42
94.57165,94.67165,49,70,42
94.67165,94.77165,47,70,42
94.77165,94.87165,49,70,42
94.87165,94.97165,45,70,42
94.97165,95.07165,47,70,42
95.07165,95.17165,45,70,42
95.17165,95.27165,47,70,42
95.27165,95.37165,45,70,42
95.37165,95.47165,47,70,42
95.47165,95.57165,45,70,42
95.57165,95.67165,47,70,42
95.67165,95.77165,45,70,42
95.77165,95.87165,47,71,42
95.87165,95.97165,45,71,42
95.97165,96.07165,47,72,42
96.07165,96.17165,45,72,42
96.17165,96.27165,47,73,42
96.27165,96.37165,45,73,42
96.37165,96.47165,47,74,42
96.47165,96.57165,45,74,42
96.57165,96.67165,47,75,42
96.67165,96.77165,45,75,42
96.77165,96.87165,47,76,42
96.87165,96.97165,45,76,42
96.97165,97.07165,47,77,42
97.07165,97.17165,45,77,42
97.17165,97.27165,47,78,42
97.27165,97.37165,45,78,42
97.37165,97.47165,47,79,42
97.47165,97.57165,45,79,42
97.57165,97.67165,47,80,42
97.67165,97.77165,45,80,42
97.77165,97.87165,47,80,42
97.87165,97.97165,45,81,42
97.97165,98.07165,47,81,42
98.07165,98.17165,45,82,42
98.17165,98.27165,47,82,42
98.27165,98.37165,45,83,42
98.37165,98.47165,47,83,42
98.47165,98.57165,45,84,42
98.57165,98.67165,47,84,42
98.67165,98.77165,45,85,42
98.77165,98.87165,47,85,42
98.87165,98.97165,45,86,42
98.97165,99.07165,47,86,42
99.07165,99.17165,45,87,42
99.17165,99.27165,47,87,42
99.27165,99.37165,45,88,42
99.37165,99.47165,47,88,42
99.47165,99.57165,45,89,42
99.57165,99.67165,47,89,42
99.67165,99.77165,45,90,42
99.77165,99.87165,47,90,42
99.87165,99.97165,45,90,42
99.97165,100.07165,47,91,42
100.07165,100.17165,45,91,42
100.17165,100.27165,47,92,42
100.27165,100.37165,45,92,42
100.37165,100.47165,47,93,42
100.47165,100.57165,45,93,42
100.57165,100.67165,47,94,42
100.67165,100.77165,45,94,42
100.77165,100.87165,47,95,42
100.87165,100.97165,45,95,42
100.97165,101.07165,47,96,42
101.07165,101.17165,45,96,42
101.17165,101.27165,47,97,42
101.27165,101.37165,45,97,42
101.37165,101.47165,47,98,42
101.47165,101.57165,45,98,42
101.57165,101.67165,47,99,42
101.67165,101.77165,45,99,42
101.77165,101.87165,47,100,42
101.87165,101.97165,45,100,42
101.97165,102.07165,47,100,42
102.07165,102.17165,45,110,42
102.17165,102.27165,47,110,42
102.27165,102.37165,45,110,42
102.37165,102.47165,47,110,42
102.47165,102.57165,45,110,42
102.57165,102.67165,47,110,42
102.67165,102.77165,45,110,42
102.77165,102.87165,47,110,42
102.87165,102.97165,45,110,42
102.97165,103.07165,47,110,42
103.07165,103.17165,45,110,42
103.17165,103.27165,47,110,42
103.27165,103.37165,45,110,42
103.37165,103.47165,47,110,42
103.47165,103.57165,45,110,42
103.57165,103.67165,47,110,42
103.67165,103.77165,45,110,42
103.77165,103.87165,47,110,42
103.87165,103.97165,45,110,42
103.97165,104.07165,47,110,42
104.07165,104.17165,45,110,42
104.17165,104.27165,47,110,42
104.27165,104.37165,45,110,42
104.37165,104.47165,47,110,42
104.47165,104.57165,45,110,42
104.57165,104.67165,47,110,42
104.67165,104.77165,45,110,42
104.77165,104.87165,47,110,42
104.87165,104.97165,45,110,42
104.97165,105.07165,47,110,42
105.07165,105.17165,45,125,42
105.17165,105.27165,47,110,42
105.27165,105.37165,45,110,42
105.37165,105.47165,47,110,42
105.47165,105.57165,45,110,42
105.57165,105.67165,47,110,42
105.67165,105.77165,45,125,42
105.77165,105.87165,47,110,42
105.87165,105.97165,45,110,42
105.97165,106.07165,47,110,42
106.07165,106.17165,45,110,42
106.17165,106.27165,47,110,42
106.27165,106.37165,45,125,42
106.37165,106.47165,47,110,42
106.47165,106.57165,45,110,42
106.57165,106.67165,47,110,42
106.67165,106.77165,45,110,42
106.77165,106.87165,47,110,42
106.87165,107.069565,45,110,42
107.27165,107.46957,47,100,42
107.47165,107.66956,45,97,42
107.87165,108.069565,47,91,42
108.07165,108.273605,45,88,42
108.47981,108.68177,47,82,42
108.68389,108.891495,45,79,42
109.10347,109.31108,47,73,42
109.31326,112.038345,45,70,42
112.87969,113.087296,47,50,42
113.089485,113.29709,45,50,42
114.138435,114.34604,47,50,42
114.34822,114.555824,45,50,42
121.31731,121.702385,52,70,42
121.89795,122.28303,57,70,42
122.47859,122.86368,59,70,42
122.86569,122.91408,60,70,42
122.91408,122.96246,59,70,42
122.96246,123.05924,57,70,42
123.05924,123.25077,59,70,42
123.252785,123.44432,60,70,42
123.639885,124.02496,62,70,42
124.22053,124.605606,64,70,42
124.80117,124.94431,62,70,42
124.99472,125.043106,62,70,42
125.043106,125.18827,60,70,42
125.18827,125.33141,59,70,42
125.38181,125.52496,57,70,42
125.57536,125.62375,60,70,42
125.62375,125.76891,59,70,42
125.76891,125.96044,57,70,42
127.12375,127.50883,64,70,42
127.51084,127.653984,62,70,42
127.70439,127.847534,60,70,42
127.89794,127.94633,64,70,42
127.94633,128.09149,62,70,42
128.09149,128.28302,60,70,42
129.44632,129.8314,60,70,42
129.83342,129.97656,59,70,42
130.02696,130.1701,57,70,42
130.22052,130.2689,60,70,42
130.2689,130.41406,59,70,42
130.41406,130.60559,57,70,42
130.80116,130.99269,65,110,42
131.3818,131.57333,65,110,42
131.96245,132.15398,64,110,42
132.54309,132.73462,67,110,42
133.12373,133.32166,67,110,42
133.72374,133.92165,71,110,42
134.12373,134.33578,71,70,42
134.33801,134.91664,71,70,42
134.91867,135.4973,63,65,42
135.49931,135.69084,64,60,42
136.6606,137.23923,71,70,42
137.24124,137.81987,63,70,42
137.82188,138.40051,64,70,42
138.40253,138.98116,62,60,42
138.98317,139.1747,60,50,42
140.14445,140.72308,64,70,42
140.7251,141.30373,56,70,42
141.30576,141.88437,57,70,42
141.8864,143.04567,64,75,42
143.04768,144.20695,57,85,42
144.20897,145.36824,62,95,42
145.37025,146.14243,67,105,42
146.14445,146.2876,67,110,42
146.338,146.48114,64,110,42
146.53154,146.72308,69,110,42
146.7251,146.86824,65,110,42
146.91864,147.06178,62,110,42
147.11218,147.30373,67,110,42
147.30574,147.45074,64,110,42
147.50182,147.64684,60,110,42
148.28613,148.48404,67,110,42
148.48613,148.63914,62,110,42
148.69302,148.87791,59,110,42
151.77205,151.91519,62,70,42
151.96559,152.15714,62,70,42
152.15915,152.20753,64,70,42
152.20753,152.25592,62,70,42
152.25592,152.35269,60,70,42
152.35269,152.54422,62,70,42
152.54625,152.73778,64,70,42
154.09462,154.23778,59,70,42
154.28818,154.4797,59,70,42
154.48172,154.5301,60,70,42
154.5301,154.57849,59,70,42
154.57849,154.67526,57,70,42
154.67526,154.8668,59,70,42
154.86882,155.06035,60,70,42
155.25592,155.64099,64,70,42
155.83656,156.22163,64,70,42
156.4172,156.80228,69,70,42
156.99785,157.18938,69,70,42
157.19139,157.38292,68,70,42
157.57849,157.96358,64,70,42
158.15913,158.54422,64,70,42
158.73978,158.9313,64,70,42
158.93332,159.12486,69,70,42
159.32042,159.51195,69,70,42
159.51398,159.7055,68,70,42
159.90106,160.09259,64,70,42
160.09462,160.28615,57,70,42
160.4817,160.67325,57,70,42
160.67526,160.86679,52,70,42
161.06235,161.25389,52,70,42
161.2559,161.44743,45,70,42
161.643,161.83453,45,70,42
161.83655,162.02808,40,70,42
162.22365,162.60872,64,80,42
162.80429,163.20221,64,93,42
163.40428,163.84642,64,106,42
164.07095,164.46887,64,110,42
164.67096,165.05603,69,110,42
165.2516,165.5903,71,110,42
165.5903,165.63869,72,110,42
165.63869,165.73546,71,110,42
165.73546,165.83224,69,110,42
165.83224,166.02377,71,110,42
166.02579,166.21732,72,110,42
166.41289,166.79796,74,110,42
166.99353,167.3786,76,110,42
167.57417,167.91289,74,110,42
167.91289,167.96127,76,110,42
167.96127,168.05804,74,110,42
168.05804,168.15482,72,110,42
168.15482,168.34634,74,110,42
168.34836,168.5399,76,110,42
168.73546,169.12054,71,110,42
169.3161,169.70119,72,110,42
169.89674,170.23546,71,110,42
170.23546,170.28384,72,110,42
170.28384,170.38062,71,110,42
170.38062,170.47739,69,110,42
170.47739,170.66893,71,110,42
170.67094,170.86247,69,110,42
171.05803,171.44312,69,110,42
171.63869,171.83022,68,110,42
171.83223,172.02376,69,110,42
172.21933,172.6044,69,110,42
172.79997,172.9915,68,110,42
172.99352,173.18504,69,110,42
173.38062,173.57214,68,110,42
173.57416,173.76569,69,110,42
173.96126,174.15279,68,110,42
174.1548,174.34633,69,110,42
174.5419,174.73343,68,110,42
174.73544,174.92699,69,110,42
175.12254,175.31407,68,110,42
175.31609,177.8302,69,110,42
180.54948,181.1474,52,70,42
180.54948,181.1474,61,70,42
181.14948,181.74739,50,70,42
181.14948,181.74739,59,70,42
181.74948,182.1474,54,70,42
181.74948,182.1474,62,70,42
182.14948,182.3474,52,70,42
182.14948,182.3474,61,70,42
182.34947,182.94739,52,70,42
182.34947,182.94739,61,70,42
182.94948,183.5474,64,70,42
183.54948,184.1474,62,70,42
184.14948,184.5474,66,70,42
184.14948,184.5474,62,70,42
184.54948,184.74739,64,60,42
184.54948,184.74739,61,60,42
184.74948,184.94739,57,50,42
184.74948,184.94739,61,50,42
187.34947,187.5474,52,70,42
187.54948,187.74739,59,70,42
187.74948,187.8974,61,70,42
187.94948,188.1474,61,70,42
188.14948,188.3474,59,70,42
188.34947,188.49739,59,70,42
188.54948,188.74739,59,70,42
188.74948,188.94739,61,70,42
188.94948,189.0974,62,70,42
189.14948,189.3474,62,70,42
189.34947,189.5474,61,70,42
189.54948,189.74739,57,70,42
190.14948,190.74739,52,70,42
190.14948,190.74739,61,70,42
190.74948,191.3474,50,70,42
190.74948,191.3474,59,70,42
191.34947,191.74739,54,70,42
191.34947,191.74739,62,70,42
191.74948,191.94739,52,70,42
191.74948,191.94739,61,70,42
191.94948,192.5474,52,70,42
191.94948,192.5474,61,70,42
192.54948,193.1474,64,70,42
193.14948,193.74739,62,70,42
193.74948,194.1474,66,70,42
193.74948,194.1474,62,70,42
194.14948,194.3474,64,60,42
194.14948,194.3474,61,60,42
194.34947,194.5474,57,50,42
194.34947,194.5474,61,50,42
196.94948,197.1474,52,70,42
197.14948,197.3474,59,70,42
197.34947,197.49739,61,70,42
197.54948,197.74739,61,70,42
197.74948,197.94739,59,70,42
197.94948,198.0974,59,70,42
198.14948,198.3474,59,70,42
198.34947,198.5474,61,70,42
198.54948,198.69739,62,70,42
198.74948,198.94739,62,70,42
198.94948,199.1474,61,70,42
199.14948,199.3474,57,70,42
199.54948,199.74739,61,70,42
199.74948,199.94739,59,70,42
200.14948,200.3474,61,70,42
200.34947,200.5474,59,70,42
200.74948,200.94739,61,70,42
200.94948,201.1474,59,70,42
201.34947,201.5474,61,70,42
201.54948,201.74739,59,70,42
201.94948,202.1474,61,70,42
202.14948,202.3474,59,70,42
202.54948,202.74739,61,75,42
202.74948,202.94739,59,78,42
203.14948,203.3474,61,83,42
203.34947,203.5474,59,86,42
203.74948,203.94739,61,91,42
203.94948,204.04948,59,94,42
204.04948,204.14948,61,95,42
204.14948,204.24948,59,96,42
204.24948,204.34947,61,98,42
204.34947,204.44948,59,99,42
204.44948,204.54948,61,100,42
204.54948,204.64948,59,110,42
204.64948,204.74948,61,110,42
204.74948,204.84947,59,110,42
204.84947,204.94948,61,110,42
204.94948,205.04948,59,110,42
205.04948,205.14948,61,110,42
205.14948,205.24948,59,110,42
205.24948,205.34947,61,110,42
205.34947,205.44948,59,110,42
205.44948,205.54948,61,110,42
205.54948,205.64948,59,110,42
205.64948,205.74948,61,110,42
205.74948,205.84947,59,110,42
205.84947,205.94948,61,110,42
205.94948,206.04948,59,110,42
206.04948,206.14948,61,110,42
206.14948,206.24948,59,110,42
206.24948,206.34947,61,110,42
206.34947,206.44948,59,110,42
206.44948,206.54948,61,70,42
206.54948,206.64948,59,70,42
206.64948,206.74948,61,70,42
206.74948,206.84947,59,70,42
206.84947,206.94948,61,70,42
206.94948,207.04948,62,70,42
207.04948,207.14948,61,70,42
207.14948,207.24948,62,70,42
207.24948,207.34947,61,70,42
207.34947,207.44948,62,70,42
207.44948,207.54948,61,70,42
207.54948,207.64948,59,70,42
207.64948,207.74948,57,70,42
207.74948,207.84947,59,70,42
207.84947,207.94948,57,70,42
207.94948,208.04948,59,70,42
208.04948,208.14948,57,70,42
208.14948,208.24948,56,70,42
208.24948,208.34947,54,70,42
208.34947,208.44948,56,70,42
208.44948,208.54948,54,70,42
208.54948,208.64948,56,70,42
208.64948,208.74948,54,70,42
208.74948,208.84947,52,70,42
208.84947,208.94948,54,70,42
208.94948,209.04948,52,70,42
209.04948,209.14948,54,70,42
209.14948,209.24948,52,70,42
209.24948,209.34947,54,70,42
209.34947,209.44948,50,70,42
209.44948,209.54948,52,70,42
209.54948,209.64948,50,70,42
209.64948,209.74948,52,70,42
209.74948,209.84947,50,70,42
209.84947,209.94948,52,70,42
209.94948,210.04948,49,70,42
210.04948,210.14948,50,70,42
210.14948,210.24948,49,70,42
210.24948,210.34947,50,70,42
210.34947,210.44948,49,70,42
210.44948,210.54948,50,70,42
210.54948,210.64948,47,70,42
210.64948,210.74948,49,70,42
210.74948,210.84947,47,70,42
210.84947,210.94948,49,70,42
210.94948,211.04948,47,70,42
211.04948,211.14948,49,70,42
211.14948,211.24948,45,70,42
211.24948,211.34947,47,70,42
211.34947,211.44948,45,70,42
211.44948,211.54948,47,70,42
211.54948,211.64948,45,70,42
211.64948,211.74948,47,70,42
211.74948,211.84947,45,70,42
211.84947,211.94948,47,70,42
211.94948,212.04948,45,70,42
212.04948,212.14948,47,71,42
212.14948,212.24948,45,71,42
212.24948,212.34947,47,72,42
212.34947,212.44948,45,72,42
212.44948,212.54948,47,73,42
212.54948,212.64948,45,73,42
212.64948,212.74948,47,74,42
212.74948,212.84947,45,74,42
212.84947,212.94948,47,75,42
212.94948,213.04948,45,75,42
213.04948,213.14948,47,76,42
213.14948,213.24948,45,76,42
213.24948,213.34947,47,77,42
213.34947,213.44948,45,77,42
213.44948,213.54948,47,78,42
213.54948,213.64948,45,78,42
213.64948,213.74948,47,79,42
213.74948,213.84947,45,79,42
213.84947,213.94948,47,80,42
213.94948,214.04948,45,80,42
214.04948,214.14948,47,80,42
214.14948,214.24948,45,81,42
214.24948,214.34947,47,81,42
214.34947,214.44948,45,82,42
214.44948,214.54948,47,82,42
214.54948,214.64948,45,83,42
214.64948,214.74948,47,83,42
214.74948,214.84947,45,84,42
214.84947,214.94948,47,84,42
214.94948,215.04948,45,85,42
215.04948,215.14948,47,85,42
215.14948,215.24948,45,86,42
215.24948,215.34947,47,86,42
215.34947,215.44948,45,87,42
215.44948,215.54948,47,87,42
215.54948,215.64948,45,88,42
215.64948,215.74948,47,88,42
215.74948,215.84947,45,89,42
215.84947,215.94948,47,89,42
215.94948,216.04948,45,90,42
216.04948,216.14948,47,90,42
216.14948,216.24948,45,90,42
216.24948,216.34947,47,91,42
216.34947,216.44948,45,91,42
216.44948,216.54948,47,92,42
216.54948,216.64948,45,92,42
216.64948,216.74948,47,93,42
216.74948,216.84947,45,93,42
216.84947,216.94948,47,94,42
216.94948,217.04948,45,94,42
217.04948,217.14948,47,95,42
217.14948,217.24948,45,95,42
217.24948,217.34947,47,96,42
217.34947,217.44948,45,96,42
217.44948,217.54948,47,97,42
217.54948,217.64948,45,97,42
217.64948,217.74948,47,98,42
217.74948,217.84947,45,98,42
217.84947,217.94948,47,99,42
217.94948,218.04948,45,99,42
218.04948,218.14948,47,100,42
218.14948,218.24948,45,100,42
218.24948,218.34947,47,100,42
218.34947,218.44948,45,110,42
218.44948,218.54948,47,110,42
218.54948,218.64948,45,110,42
218.64948,218.74948,47,110,42
218.74948,218.84947,45,110,42
218.84947,218.94948,47,110,42
218.94948,219.04948,45,110,42
219.04948,219.14948,47,110,42
219.14948,219.24948,45,110,42
219.24948,219.34947,47,110,42
219.34947,219.44948,45,110,42
219.44948,219.54948,47,110,42
219.54948,219.64948,45,110,42
219.64948,219.74948,47,110,42
219.74948,219.84947,45,110,42
219.84947,219.94948,47,110,42
219.94948,220.04948,45,110,42
220.04948,220.14948,47,110,42
220.14948,220.24948,45,110,42
220.24948,220.34947,47,110,42
220.34947,220.44948,45,110,42
220.44948,220.54948,47,110,42
220.54948,220.64948,45,110,42
220.64948,220.74948,47,110,42
220.74948,220.84947,45,110,42
220.84947,220.94948,47,110,42
220.94948,221.04948,45,110,42
221.04948,221.14948,47,110,42
221.14948,221.24948,45,110,42
221.24948,221.34947,47,110,42
221.34947,221.44948,45,125,42
221.44948,221.54948,47,110,42
221.54948,221.64948,45,110,42
221.64948,221.74948,47,110,42
221.74948,221.84947,45,110,42
221.84947,221.94948,47,110,42
221.94948,222.04948,45,125,42
222.04948,222.14948,47,110,42
222.14948,222.24948,45,110,42
222.24948,222.34947,47,110,42
222.34947,222.44948,45,110,42
222.44948,222.54948,47,110,42
222.54948,222.64948,45,125,42
222.64948,222.74948,47,110,42
222.74948,222.84947,45,110,42
222.84947,222.94948,47,110,42
222.94948,223.04948,45,110,42
223.04948,223.14948,47,110,42
223.14948,223.3474,45,110,42
223.54948,223.74739,47,100,42
223.74948,223.94739,45,97,42
224.14948,224.3474,47,91,42
224.34947,224.5474,45,88,42
224.74948,224.94739,47,82,42
224.94948,225.1474,45,79,42
225.34947,225.5474,47,73,42
225.54948,228.1474,45,70,42
228.94948,229.1474,47,50,42
229.14948,229.3474,45,50,42
230.14948,230.3474,47,50,42
230.34947,230.5474,45,50,42
237.18286,237.56062,52,70,42
237.75247,238.13025,57,70,42
238.3221,238.69986,59,70,42
238.70184,238.74931,60,70,42
238.74931,238.79677,59,70,42
238.79677,238.89171,57,70,42
238.89171,239.0796,59,70,42
239.08159,239.26949,60,70,42
239.46133,239.8391,62,70,42
240.03094,240.40872,64,70,42
240.60057,240.741,62,70,42
240.79044,240.8379,62,70,42
240.8379,240.98032,60,70,42
240.98032,241.12074,59,70,42
241.17018,241.31061,57,70,42
241.36006,241.40753,60,70,42
241.40753,241.54993,59,70,42
241.54993,241.73782,57,70,42
242.87904,243.25682,64,70,42
243.25879,243.39922,62,70,42
243.44867,243.5891,60,70,42
243.63853,243.686,64,70,42
243.686,243.82841,62,70,42
243.82841,244.01631,60,70,42
245.15752,245.5353,60,70,42
245.53726,245.67769,59,70,42
245.72714,245.86757,57,70,42
245.917,245.96448,60,70,42
245.96448,246.10689,59,70,42
246.10689,246.29478,57,70,42
246.48663,246.67453,65,110,42
247.05624,247.24414,65,110,42
247.62587,247.81377,64,110,42
248.1955,248.38338,67,110,42
248.7651,248.95914,67,110,42
249.35335,249.55809,71,110,42
249.76714,249.96506,71,70,42
249.96713,250.53477,71,70,42
250.53676,251.1044,63,65,42
251.10637,251.29427,64,60,42
252.2456,252.81325,71,70,42
252.81523,253.38287,63,70,42
253.38484,253.95248,64,70,42
253.95447,254.52211,62,60,42
254.5241,254.71198,60,50,42
255.66333,256.23096,64,70,42
256.23294,256.8006,56,70,42
256.80255,257.3702,57,70,42
257.3722,258.50943,64,75,42
258.5114,259.64868,57,85,42
259.65067,260.7879,62,95,42
260.7899,261.54742,67,105,42
261.54938,261.68982,67,110,42
261.73926,261.8797,64,110,42
261.92914,262.11703,69,110,42
262.11902,262.25943,65,110,42
262.30887,262.4493,62,110,42
262.49875,262.68665,67,110,42
262.68863,262.82904,64,110,42
262.8785,263.02164,60,110,42
263.65268,263.85062,67,110,42
263.8527,264.0057,62,110,42
264.0596,264.24448,59,110,42
267.09818,267.23862,62,70,42
267.28806,267.47595,62,70,42
267.47794,267.5254,64,70,42
267.5254,267.57288,62,70,42
267.57288,267.66782,60,70,42
267.66782,267.8557,62,70,42
267.85767,268.04556,64,70,42
269.39127,269.5363,59,70,42
269.58734,269.78528,59,70,42
269.78735,269.83734,60,70,42
269.83734,269.88736,59,70,42
269.88736,269.98734,57,70,42
269.98734,270.18527,59,70,42
270.18735,270.38525,60,70,42
270.58734,270.97525,64,70,42
271.16708,271.54486,64,70,42
271.73672,272.11447,69,70,42
272.30634,272.49423,69,70,42
272.49622,272.6841,68,70,42
272.87595,273.25372,64,70,42
273.44556,273.82333,64,70,42
274.0152,274.2031,64,70,42
274.20505,274.39294,69,70,42
274.5848,274.7727,69,70,42
274.7747,274.9626,68,70,42
275.15442,275.34232,64,70,42
275.3443,275.5322,57,70,42
275.72406,275.91193,57,70,42
275.9139,276.1018,52,70,42
276.29367,276.48157,52,70,42
276.48355,276.67508,45,70,42
276.87064,277.06854,45,70,42
277.07065,277.26855,40,70,42
277.47064,277.86856,64,80,42
278.07065,278.47537,64,93,42
278.68442,279.10336,64,106,42
279.3199,279.7147,64,110,42
279.90652,280.2843,69,110,42
280.47617,280.80844,71,110,42
280.80844,280.8559,72,110,42
280.8559,280.95084,71,110,42
280.95084,281.04578,69,110,42
281.04578,281.23367,71,110,42
281.23566,281.42355,72,110,42
281.6154,281.99316,74,110,42
282.185,282.56277,76,110,42
282.75464,283.0869,74,110,42
283.0869,283.13437,76,110,42
283.13437,283.2293,74,110,42
283.2293,283.32425,72,110,42
283.32425,283.51215,74,110,42
283.51413,283.70203,76,110,42
283.89386,284.27164,71,110,42
284.46347,284.84125,72,110,42
285.0331,285.3654,71,110,42
285.3654,285.41284,72,110,42
285.41284,285.50778,71,110,42
285.50778,285.60272,69,110,42
285.60272,285.79062,71,110,42
285.7926,285.9805,69,110,42
286.17233,286.5501,69,110,42
286.74197,286.92987,68,110,42
286.93182,287.11972,69,110,42
287.31158,287.68936,69,110,42
287.8812,288.0691,68,110,42
288.07108,288.25897,69,110,42
288.4508,288.6387,68,110,42
288.6407,288.82858,69,110,42
289.02045,289.20834,68,110,42
289.2103,289.3982,69,110,42
289.59006,289.77795,68,110,42
289.77994,289.96783,69,110,42
290.15967,290.34756,68,110,42
290.34955,292.8331,69,110,42
293.61945,293.81348,47,50,42
293.81552,294.00955,45,50,42
294.7959,294.98993,47,50,42
294.99197,295.18604,45,50,42
302.84348,303.2856,52,50,42
304.17682,304.6274,52,50,42
304.86057,305.33875,52,50,42
305.59134,306.12408,52,50,42
306.41278,306.78387,52,50,42
306.78778,307.34637,45,50,42
310.72528,310.90887,45,1,42
0.387096,0.77217585,64,70,0
0.96774,1.3528199,69,90,0
1.548384,1.9334639,71,70,0
1.93548,2.030238,72,70,0
1.983867,2.078625,71,70,0
2.032254,2.1270118,69,70,0
2.129028,2.32056,71,70,0
2.322576,2.514108,72,70,0
2.709672,3.0947518,74,70,0
3.290316,3.675396,76,70,0
3.87096,4.062492,74,70,0
4.064508,4.159266,74,70,0
4.112895,4.25604,72,70,0
4.258056,4.449588,71,70,0
4.451604,4.643136,69,70,0
4.645152,4.8366838,71,70,0
4.8387,5.030232,69,70,0
5.225796,5.417328,57,70,0
5.225796,5.417328,60,70,0
5.225796,5.417328,64,70,0
5.80644,5.997972,57,70,0
5.80644,5.997972,60,70,0
5.80644,5.997972,64,70,0
5.80644,5.997972,69,70,0
6.387084,6.5786157,59,70,0
6.387084,6.5786157,64,70,0
6.387084,6.5786157,68,70,0
6.387084,6.5786157,71,70,0
6.580632,6.772164,59,70,0
6.580632,6.772164,64,70,0
6.580632,6.772164,68,70,0
6.580632,6.772164,71,70,0
6.77418,6.965712,59,70,0
6.77418,6.965712,64,70,0
6.77418,6.965712,68,70,0
6.77418,6.965712,71,70,0
6.967728,7.15926,60,70,0
6.967728,7.15926,64,70,0
6.967728,7.15926,69,70,0
6.967728,7.15926,72,70,0
7.548372,7.739904,62,70,0
7.548372,7.739904,67,70,0
7.548372,7.739904,71,70,0
7.548372,7.739904,74,70,0
8.129016,8.320548,64,70,0
8.129016,8.320548,67,70,0
8.129016,8.320548,72,70,0
8.129016,8.320548,76,70,0
8.903208,9.09474,62,70,0
8.903208,9.09474,68,70,0
9.096756,9.288288,60,70,0
9.096756,9.288288,69,70,0
9.290304,9.481836,62,70,0
9.290304,9.481836,68,70,0
9.483852,9.675384,60,70,0
9.483852,9.675384,69,70,0
9.6774,10.06248,77,110,0
10.258044,10.643124,67,110,0
11.225784,11.4173155,65,70,0
11.225784,11.4173155,71,70,0
11.419332,11.610864,64,70,0
11.419332,11.610864,72,70,0
11.61288,11.804412,65,70,0
11.61288,11.804412,71,70,0
11.806428,11.99796,64,70,0
11.806428,11.99796,72,70,0
11.999976,12.385056,74,110,0
12.58062,12.9657,64,110,0
13.54836,13.739892,62,70,0
13.54836,13.739892,68,70,0
13.741908,13.93344,60,70,0
13.741908,13.93344,69,70,0
13.935456,14.126987,62,70,0
13.935456,14.126987,68,70,0
14.129004,14.320536,60,70,0
14.129004,14.320536,69,70,0
14.322552,14.707632,77,110,0
14.903196,15.288276,67,110,0
15.48384,15.86892,76,110,0
16.064484,16.449564,79,110,0
16.645128,17.036592,83,110,0
17.238676,17.636593,83,110,0
17.838676,18.05073,75,70,0
17.838676,18.05073,63,70,0
18.052961,18.244493,76,70,0
18.052961,18.244493,64,70,0
18.24651,18.438042,78,70,0
18.24651,18.438042,66,70,0
18.440058,18.631588,79,70,0
18.440058,18.631588,67,70,0
18.633604,18.825136,78,70,0
18.633604,18.825136,66,70,0
18.827152,19.018684,76,70,0
18.827152,19.018684,64,70,0
19.0207,19.212233,78,70,0
19.0207,19.212233,66,70,0
19.214249,19.40578,79,70,0
19.214249,19.40578,67,70,0
19.407797,19.599329,78,70,0
19.407797,19.599329,66,70,0
19.601345,19.792877,79,70,0
19.601345,19.792877,67,70,0
19.794893,19.986425,81,70,0
19.794893,19.986425,69,70,0
19.988441,20.179974,79,70,0
19.988441,20.179974,67,70,0
20.18199,20.373522,78,70,0
20.18199,20.373522,66,70,0
20.375538,20.567068,76,70,0
20.375538,20.567068,64,70,0
20.569084,20.760616,78,70,0
20.569084,20.760616,66,70,0
20.762632,20.954165,79,70,0
20.762632,20.954165,67,70,0
20.95618,21.147713,78,70,0
20.95618,21.147713,66,70,0
21.149729,21.34126,76,70,0
21.149729,21.34126,64,70,0
21.343277,21.53481,78,70,0
21.343277,21.53481,66,70,0
21.536825,21.728357,79,70,0
21.536825,21.728357,67,70,0
21.730373,21.921906,78,70,0
21.730373,21.921906,66,70,0
21.923922,22.115454,79,70,0
21.923922,22.115454,67,70,0
22.11747,22.309,80,70,0
22.11747,22.309,68,70,0
22.311016,22.502548,78,70,0
22.311016,22.502548,66,70,0
22.504564,22.696096,80,70,0
22.504564,22.696096,68,70,0
22.698112,22.889645,81,70,0
22.698112,22.889645,69,70,0
22.89166,23.083193,83,70,0
22.89166,23.083193,71,70,0
23.085209,23.276741,84,70,0
23.085209,23.276741,72,70,0
23.278757,23.47029,83,70,0
23.278757,23.47029,71,70,0
23.472305,23.663837,81,70,0
23.472305,23.663837,69,70,0
23.665854,23.857386,83,70,0
23.665854,23.857386,71,70,0
23.859402,24.050932,84,70,0
23.859402,24.050932,72,70,0
24.05295,24.24448,83,70,0
24.05295,24.24448,71,70,0
24.246496,24.438028,84,70,0
24.246496,24.438028,72,70,0
24.440044,24.631577,86,70,0
24.440044,24.631577,74,70,0
24.633593,24.825125,84,70,0
24.633593,24.825125,72,70,0
24.82714,25.018673,83,70,0
24.82714,25.018673,71,70,0
25.020689,25.212221,81,70,0
25.020689,25.212221,69,70,0
25.214237,25.40577,83,71,0
25.214237,25.40577,71,71,0
25.407785,25.599318,84,73,0
25.407785,25.599318,72,73,0
25.601334,25.792866,83,75,0
25.601334,25.792866,71,75,0
25.794882,25.986412,81,76,0
25.794882,25.986412,69,76,0
25.988428,26.17996,83,78,0
25.988428,26.17996,71,78,0
26.181976,26.373508,84,80,0
26.181976,26.373508,72,80,0
26.375525,26.567057,83,81,0
26.375525,26.567057,71,81,0
26.569073,26.760605,84,83,0
26.569073,26.760605,72,83,0
26.76262,26.954153,85,85,0
26.76262,26.954153,73,85,0
26.95617,27.147701,84,87,0
26.95617,27.147701,72,87,0
27.149717,27.34125,85,88,0
27.149717,27.34125,73,88,0
27.343266,27.534798,86,90,0
27.343266,27.534798,74,90,0
27.536814,27.728344,85,92,0
27.536814,27.728344,73,92,0
27.730362,27.921892,86,93,0
27.730362,27.921892,74,93,0
27.923908,28.11544,90,95,0
27.923908,28.11544,78,95,0
28.117456,28.308989,89,97,0
28.117456,28.308989,77,97,0
28.311005,28.502537,90,99,0
28.311005,28.502537,78,99,0
28.504553,28.696085,91,100,0
28.504553,28.696085,79,100,0
28.698101,28.889633,90,102,0
28.698101,28.889633,78,102,0
28.89165,29.083181,91,104,0
28.89165,29.083181,79,104,0
29.085197,29.27673,83,105,0
29.085197,29.27673,71,105,0
29.278746,29.470278,81,107,0
29.278746,29.470278,69,107,0
29.472294,29.663824,83,109,0
29.472294,29.663824,71,109,0
29.66584,29.857372,84,110,0
29.66584,29.857372,72,110,0
29.859388,30.05092,79,110,0
30.052937,30.244469,76,110,0
30.246485,30.438017,81,110,0
30.440033,30.631565,77,110,0
30.633581,30.825113,74,110,0
30.82713,31.018661,79,110,0
31.020678,31.21221,76,110,0
31.214226,31.405756,72,110,0
31.988417,32.186333,79,110,0
32.188416,32.386333,74,110,0
32.388416,32.616783,71,110,0
33.080723,33.465805,67,70,0
33.66137,34.046448,72,70,0
34.242012,34.62709,74,70,0
34.62911,34.723866,76,70,0
34.677494,34.77225,74,70,0
34.725883,34.82064,72,70,0
34.822655,35.014187,74,70,0
35.016205,35.207737,76,70,0
35.4033,35.594833,59,70,0
35.596848,35.78838,59,70,0
35.790398,35.885155,60,70,0
35.838783,35.93354,59,70,0
35.88717,35.98193,57,70,0
35.983944,36.175476,59,70,0
36.17749,36.369022,60,70,0
36.564587,36.75612,71,70,0
36.758137,36.94967,71,70,0
36.951683,37.04644,72,70,0
37.000072,37.09483,71,70,0
37.04846,37.143215,69,70,0
37.145233,37.336765,71,70,0
37.33878,37.53031,72,70,0
37.725876,37.917408,56,70,0
37.919422,38.110954,56,70,0
38.112972,38.304504,56,70,0
38.30652,38.49805,56,70,0
38.50007,38.6916,57,70,0
38.887165,39.078697,71,70,0
39.08071,39.272243,71,70,0
39.27426,39.36902,72,70,0
39.322647,39.417404,71,70,0
39.371033,39.465794,69,70,0
39.467808,39.65934,71,70,0
39.661358,39.852886,72,70,0
39.854904,39.94966,74,70,0
39.90329,39.99805,72,70,0
39.95168,40.046436,71,70,0
40.04845,40.239983,72,70,0
40.242,40.433533,75,70,0
40.435547,40.530308,76,70,0
40.483936,40.578693,75,70,0
40.532322,40.62708,73,70,0
40.629097,40.82063,75,70,0
40.822643,41.014175,76,70,0
41.016193,41.11095,77,70,0
41.06458,41.159336,76,70,0
41.112965,41.207726,75,70,0
41.20974,41.40127,76,70,0
41.40329,41.59482,71,70,0
41.596836,41.691593,72,70,0
41.64522,41.739983,71,70,0
41.69361,41.78837,69,70,0
41.790382,41.981915,71,70,0
41.983932,42.175465,72,70,0
42.17748,42.27224,74,70,0
42.22587,42.320625,72,70,0
42.274254,42.36901,71,70,0
42.37103,42.56256,72,70,0
42.564575,42.756107,75,70,0
42.758125,42.852882,76,70,0
42.80651,42.901268,75,70,0
42.854897,42.949657,74,70,0
42.95167,43.143204,75,70,0
43.14522,43.33675,76,70,0
43.338768,43.433525,77,70,0
43.387154,43.481915,76,70,0
43.435543,43.5303,75,70,0
43.532314,43.723846,76,70,0
43.725864,43.917397,76,70,0
43.91941,44.01417,77,70,0
43.9678,44.062557,76,70,0
44.016186,44.110943,75,70,0
44.11296,44.304493,76,70,0
44.306507,44.49804,76,70,0
44.500057,44.594814,77,70,0
44.548443,44.6432,76,70,0
44.59683,44.69159,75,70,0
44.693604,44.885136,76,70,0
44.887154,45.078686,76,70,0
45.0807,45.175457,77,70,0
45.129086,45.223846,76,70,0
45.177475,45.272232,75,70,0
45.274246,45.46578,76,70,0
45.467796,45.65933,76,70,0
45.854893,46.246357,76,80,0
46.44844,46.868347,76,93,0
47.092884,47.53501,76,106,0
47.75955,48.14463,76,110,0
48.340195,48.725273,81,110,0
48.920837,49.30592,83,110,0
49.25955,49.354305,84,110,0
49.307934,49.40269,83,110,0
49.40471,49.499466,81,110,0
49.50148,49.693012,83,110,0
49.69503,49.886562,84,110,0
50.082127,50.467205,86,110,0
50.66277,51.04785,88,110,0
51.243416,51.58011,86,110,0
51.582123,51.67688,88,110,0
51.63051,51.72527,86,110,0
51.727283,51.82204,84,110,0
51.82406,52.01559,86,110,0
52.017605,52.209137,88,110,0
52.4047,52.789783,83,110,0
52.985348,53.370426,84,110,0
53.56599,53.95107,83,110,0
53.953087,54.047844,84,110,0
54.001472,54.09623,83,110,0
54.04986,54.14462,81,110,0
54.146633,54.338165,83,110,0
54.340183,54.531715,81,110,0
54.72728,54.918808,71,110,0
54.72728,54.918808,83,110,0
54.920826,55.11236,72,110,0
54.920826,55.11236,84,110,0
55.307922,55.499454,71,110,0
55.307922,55.499454,83,110,0
55.50147,55.693,69,110,0
55.50147,55.693,81,110,0
55.888565,56.080097,71,110,0
55.888565,56.080097,83,110,0
56.082115,56.273647,72,110,0
56.082115,56.273647,84,110,0
56.46921,56.660744,71,110,0
56.46921,56.660744,83,110,0
56.662758,56.85429,69,110,0
56.662758,56.85429,81,110,0
57.049854,57.241386,71,110,0
57.049854,57.241386,83,110,0
57.2434,57.434933,69,110,0
57.2434,57.434933,81,110,0
57.630497,57.82203,71,110,0
57.630497,57.82203,83,110,0
57.824047,58.01558,69,110,0
57.824047,58.01558,81,110,0
58.211143,58.402676,71,110,0
58.211143,58.402676,83,110,0
58.40469,58.596222,69,110,0
58.40469,58.596222,81,110,0
58.791786,58.98332,71,110,0
58.791786,58.98332,83,110,0
58.985332,59.176865,69,110,0
58.985332,59.176865,81,110,0
59.37243,59.56396,83,104,0
59.56598,59.75751,81,100,0
59.953075,60.144608,71,93,0
60.14662,60.338154,69,90,0
60.53372,60.72525,59,83,0
60.727264,60.918797,57,80,0
61.11436,61.305893,47,73,0
61.30791,61.499443,45,70,0
66.61872,67.21664,52,70,0
66.61872,67.21664,49,70,0
67.21872,67.816635,50,70,0
67.21872,67.816635,47,70,0
67.81872,68.21664,54,70,0
67.81872,68.21664,50,70,0
68.21872,68.41663,49,70,0
68.21872,68.41663,52,70,0
68.41872,68.61664,45,70,0
68.41872,68.61664,49,70,0
69.01872,69.21664,64,70,0
69.01872,69.21664,73,70,0
69.21872,69.41663,64,70,0
69.21872,69.41663,73,70,0
69.41872,69.61664,62,70,0
69.41872,69.61664,71,70,0
69.61872,69.816635,62,70,0
69.61872,69.816635,71,70,0
69.81872,70.01664,62,70,0
69.81872,70.01664,71,70,0
70.01872,70.21664,64,70,0
70.01872,70.21664,73,70,0
70.21872,70.41663,66,70,0
70.21872,70.41663,74,70,0
70.41872,70.61664,66,70,0
70.41872,70.61664,74,70,0
70.61872,70.816635,64,70,0
70.61872,70.816635,73,70,0
70.81872,71.01664,64,70,0
70.81872,71.01664,73,70,0
71.01872,71.21664,73,70,0
71.01872,71.21664,61,70,0
71.21872,71.41663,74,70,0
71.21872,71.41663,62,70,0
71.41872,71.61664,76,70,0
71.41872,71.61664,64,70,0
71.61872,71.816635,76,70,0
71.61872,71.816635,64,70,0
71.81872,72.01664,74,70,0
71.81872,72.01664,62,70,0
72.01872,72.21664,74,70,0
72.01872,72.21664,62,70,0
72.21872,72.41663,74,70,0
72.21872,72.41663,62,70,0
72.41872,72.61664,76,70,0
72.41872,72.61664,64,70,0
72.61872,72.816635,78,70,0
72.61872,72.816635,66,70,0
72.81872,73.01664,78,70,0
72.81872,73.01664,66,70,0
73.01872,73.21664,76,70,0
73.01872,73.21664,64,70,0
73.21872,73.41663,73,70,0
73.21872,73.41663,61,70,0
76.21872,76.816635,52,70,0
76.21872,76.816635,49,70,0
76.81872,77.41663,50,70,0
76.81872,77.41663,47,70,0
77.41872,77.816635,54,70,0
77.41872,77.816635,50,70,0
77.81872,78.01664,49,70,0
77.81872,78.01664,52,70,0
78.01872,78.21664,45,70,0
78.01872,78.21664,49,70,0
78.61872,78.816635,64,70,0
78.61872,78.816635,73,70,0
78.81872,79.01664,64,70,0
78.81872,79.01664,73,70,0
79.01872,79.21664,62,70,0
79.01872,79.21664,71,70,0
79.21872,79.41663,62,70,0
79.21872,79.41663,71,70,0
79.41872,79.61664,62,70,0
79.41872,79.61664,71,70,0
79.61872,79.816635,64,70,0
79.61872,79.816635,73,70,0
79.81872,80.01664,66,70,0
79.81872,80.01664,74,70,0
80.01872,80.21664,66,70,0
80.01872,80.21664,74,70,0
80.21872,80.41663,64,70,0
80.21872,80.41663,73,70,0
80.41872,80.61664,64,70,0
80.41872,80.61664,73,70,0
80.61872,80.816635,73,70,0
80.61872,80.816635,61,70,0
80.81872,81.01664,74,70,0
80.81872,81.01664,62,70,0
81.01872,81.21664,76,70,0
81.01872,81.21664,64,70,0
81.21872,81.41663,76,70,0
81.21872,81.41663,64,70,0
81.41872,81.61664,74,70,0
81.41872,81.61664,62,70,0
81.61872,81.816635,74,70,0
81.61872,81.816635,62,70,0
81.81872,82.01664,74,70,0
81.81872,82.01664,62,70,0
82.01872,82.21664,76,70,0
82.01872,82.21664,64,70,0
82.21872,82.42346,78,70,0
82.21872,82.42346,66,70,0
82.42561,82.630356,78,70,0
82.42561,82.630356,66,70,0
82.632515,82.83725,76,70,0
82.632515,82.83725,64,70,0
82.83941,83.03732,73,70,0
82.83941,83.03732,61,70,0
85.83941,86.437325,76,70,0
85.83941,86.437325,80,70,0
86.43941,87.0454,75,78,0
86.43941,87.0454,78,78,0
87.047516,87.45915,78,86,0
87.047516,87.45915,81,86,0
87.4613,87.666046,76,91,0
87.4613,87.666046,80,91,0
87.668205,88.26957,76,94,0
87.668205,88.26957,80,94,0
88.27165,88.46957,76,110,0
88.27165,88.46957,80,110,0
88.27165,88.46957,88,110,0
88.47165,88.66956,76,110,0
88.47165,88.66956,80,110,0
88.47165,88.66956,88,110,0
88.67165,88.86957,76,110,0
88.67165,88.86957,80,110,0
88.67165,88.86957,88,110,0
88.87165,89.069565,75,110,0
88.87165,89.069565,78,110,0
88.87165,89.069565,87,110,0
89.07165,89.26957,75,110,0
89.07165,89.26957,78,110,0
89.07165,89.26957,87,110,0
89.27165,89.46957,75,110,0
89.27165,89.46957,78,110,0
89.27165,89.46957,87,110,0
89.47165,89.66956,78,110,0
89.47165,89.66956,81,110,0
89.47165,89.66956,90,110,0
89.67165,89.86957,78,110,0
89.67165,89.86957,81,110,0
89.67165,89.86957,90,110,0
89.87165,90.069565,78,110,0
89.87165,90.069565,81,110,0
89.87165,90.069565,90,110,0
90.67165,90.86957,76,70,0
90.67165,90.86957,80,70,0
90.67165,90.86957,88,70,0
90.87165,91.069565,76,70,0
90.87165,91.069565,80,70,0
90.87165,91.069565,88,70,0
91.07165,91.26957,76,70,0
91.07165,91.26957,80,70,0
91.07165,91.26957,88,70,0
93.67165,93.76957,76,70,0
93.77165,93.86957,78,70,0
93.87165,93.96957,76,70,0
93.97165,94.069565,78,70,0
94.07165,94.16956,76,70,0
94.17165,94.26957,78,70,0
94.27165,94.36957,74,70,0
94.37165,94.46957,76,70,0
94.47165,94.569565,74,70,0
94.57165,94.66956,76,70,0
94.67165,94.76957,74,70,0
94.77165,94.86957,76,70,0
94.87165,95.069565,73,70,0
95.47165,96.069565,64,70,0
95.47165,96.069565,73,70,0
96.07165,96.66956,62,72,0
96.07165,96.66956,71,72,0
96.67165,97.069565,66,75,0
96.67165,97.069565,74,75,0
97.07165,97.26957,64,77,0
97.07165,97.26957,73,77,0
97.27165,97.86957,64,78,0
97.27165,97.86957,73,78,0
97.87165,98.46957,73,81,0
97.87165,98.46957,76,81,0
98.47165,99.069565,71,84,0
98.47165,99.069565,74,84,0
99.07165,99.46957,74,87,0
99.07165,99.46957,78,87,0
99.47165,99.66956,76,89,0
99.47165,99.66956,73,89,0
99.67165,100.26957,69,90,0
99.67165,100.26957,73,90,0
100.27165,100.46957,64,92,0
100.27165,100.46957,73,92,0
100.47165,100.66956,64,93,0
100.47165,100.66956,73,93,0
100.67165,100.86957,62,94,0
100.67165,100.86957,71,94,0
100.87165,101.069565,62,95,0
100.87165,101.069565,71,95,0
101.07165,101.26957,62,96,0
101.07165,101.26957,71,96,0
101.27165,101.46957,64,97,0
101.27165,101.46957,73,97,0
101.47165,101.66956,66,98,0
101.47165,101.66956,74,98,0
101.67165,101.86957,66,99,0
101.67165,101.86957,74,99,0
101.87165,102.069565,64,100,0
101.87165,102.069565,73,100,0
102.07165,102.26957,64,110,0
102.07165,102.26957,73,110,0
102.27165,102.46957,64,110,0
102.27165,102.46957,73,110,0
102.47165,102.66956,71,110,0
102.47165,102.66956,74,110,0
102.67165,102.86957,73,110,0
102.67165,102.86957,76,110,0
102.87165,103.069565,73,110,0
102.87165,103.069565,76,110,0
103.07165,103.26957,71,110,0
103.07165,103.26957,74,110,0
103.27165,103.46957,71,110,0
103.27165,103.46957,74,110,0
103.47165,103.66956,71,110,0
103.47165,103.66956,74,110,0
103.67165,103.86957,73,110,0
103.67165,103.86957,76,110,0
103.87165,104.069565,74,110,0
103.87165,104.069565,78,110,0
104.07165,104.26957,74,110,0
104.07165,104.26957,78,110,0
104.27165,104.46957,73,110,0
104.27165,104.46957,76,110,0
104.47165,104.66956,69,110,0
104.47165,104.66956,73,110,0
104.67165,104.86957,74,110,0
104.67165,104.86957,78,110,0
104.87165,105.069565,73,110,0
104.87165,105.069565,76,110,0
105.07165,105.26957,69,125,0
105.07165,105.26957,73,125,0
105.27165,105.46957,74,110,0
105.27165,105.46957,78,110,0
105.47165,105.66956,73,110,0
105.47165,105.66956,76,110,0
105.67165,105.86957,69,125,0
105.67165,105.86957,73,125,0
105.87165,106.069565,74,110,0
105.87165,106.069565,78,110,0
106.07165,106.26957,73,110,0
106.07165,106.26957,76,110,0
106.27165,106.46957,69,125,0
106.27165,106.46957,73,125,0
106.47165,106.66956,74,110,0
106.47165,106.66956,78,110,0
106.67165,106.86957,73,110,0
106.67165,106.86957,76,110,0
106.87165,107.069565,69,110,0
106.87165,107.069565,73,110,0
107.47165,107.66956,64,97,0
107.47165,107.66956,69,97,0
107.47165,107.66956,73,97,0
108.07165,108.273605,64,88,0
108.07165,108.273605,69,88,0
108.07165,108.273605,73,88,0
108.68389,108.891495,64,79,0
108.68389,108.891495,69,79,0
108.68389,108.891495,73,79,0
109.31326,109.52087,64,70,0
109.31326,109.52087,69,70,0
109.31326,109.52087,73,70,0
112.25032,112.66772,64,50,0
113.50906,113.92646,64,50,0
114.7678,115.185196,64,50,0
115.39717,115.81457,64,50,0
116.02654,116.44394,64,50,0
116.655914,117.057236,64,70,0
117.2528,117.63788,69,90,0
117.83344,118.21852,71,70,0
118.220535,118.3153,72,70,0
118.26893,118.363686,71,70,0
118.317314,118.41207,69,70,0
118.414085,118.60562,71,70,0
118.607635,118.799164,72,70,0
118.99473,119.379814,74,70,0
119.57538,119.96046,76,70,0
120.15602,120.34755,74,70,0
120.34956,120.44433,74,70,0
120.39796,120.5411,72,70,0
120.54311,120.73465,71,70,0
120.736664,120.92819,69,70,0
120.930214,121.12174,71,70,0
121.12376,121.31529,69,70,0
121.51086,121.702385,57,70,0
121.51086,121.702385,60,70,0
121.51086,121.702385,64,70,0
122.0915,122.28303,57,70,0
122.0915,122.28303,60,70,0
122.0915,122.28303,64,70,0
122.0915,122.28303,69,70,0
122.67214,122.86368,59,70,0
122.67214,122.86368,64,70,0
122.67214,122.86368,68,70,0
122.67214,122.86368,71,70,0
122.86569,123.05722,59,70,0
122.86569,123.05722,64,70,0
122.86569,123.05722,68,70,0
122.86569,123.05722,71,70,0
123.05924,123.25077,59,70,0
123.05924,123.25077,64,70,0
123.05924,123.25077,68,70,0
123.05924,123.25077,71,70,0
123.252785,123.44432,60,70,0
123.252785,123.44432,64,70,0
123.252785,123.44432,69,70,0
123.252785,123.44432,72,70,0
123.83343,124.02496,62,70,0
123.83343,124.02496,67,70,0
123.83343,124.02496,71,70,0
123.83343,124.02496,74,70,0
124.41408,124.605606,64,70,0
124.41408,124.605606,67,70,0
124.41408,124.605606,72,70,0
124.41408,124.605606,76,70,0
125.18827,125.3798,62,70,0
125.18827,125.3798,68,70,0
125.38181,125.57335,60,70,0
125.38181,125.57335,69,70,0
125.57536,125.76689,62,70,0
125.57536,125.76689,68,70,0
125.76891,125.96044,60,70,0
125.76891,125.96044,69,70,0
125.962456,126.34754,77,110,0
126.543106,126.928185,67,110,0
127.51084,127.70238,65,70,0
127.51084,127.70238,71,70,0
127.70439,127.89592,64,70,0
127.70439,127.89592,72,70,0
127.89794,128.08948,65,70,0
127.89794,128.08948,71,70,0
128.09149,128.28302,64,70,0
128.09149,128.28302,72,70,0
128.28503,128.67012,74,110,0
128.86568,129.25076,64,110,0
129.83342,130.02495,62,70,0
129.83342,130.02495,68,70,0
130.02696,130.2185,60,70,0
130.02696,130.2185,69,70,0
130.22052,130.41205,62,70,0
130.22052,130.41205,68,70,0
130.41406,130.60559,60,70,0
130.41406,130.60559,69,70,0
130.6076,130.99269,77,110,0
131.18825,131.57333,67,110,0
131.7689,132.15398,76,110,0
132.34955,132.73462,79,110,0
132.93019,133.32166,83,110,0
133.52373,133.92165,83,110,0
134.12373,134.33578,75,70,0
134.12373,134.33578,63,70,0
134.33801,134.52956,76,70,0
134.33801,134.52956,64,70,0
134.53157,134.7231,78,70,0
134.53157,134.7231,66,70,0
134.72511,134.91664,79,70,0
134.72511,134.91664,67,70,0
134.91867,135.1102,78,70,0
134.91867,135.1102,66,70,0
135.11221,135.30374,76,70,0
135.11221,135.30374,64,70,0
135.30576,135.4973,78,70,0
135.30576,135.4973,66,70,0
135.49931,135.69084,79,70,0
135.49931,135.69084,67,70,0
135.69286,135.88438,78,70,0
135.69286,135.88438,66,70,0
135.8864,136.07794,79,70,0
135.8864,136.07794,67,70,0
136.07996,136.27148,81,70,0
136.07996,136.27148,69,70,0
136.2735,136.46503,79,70,0
136.2735,136.46503,67,70,0
136.46704,136.65858,78,70,0
136.46704,136.65858,66,70,0
136.6606,136.85213,76,70,0
136.6606,136.85213,64,70,0
136.85414,137.04567,78,70,0
136.85414,137.04567,66,70,0
137.0477,137.23923,79,70,0
137.0477,137.23923,67,70,0
137.24124,137.43277,78,70,0
137.24124,137.43277,66,70,0
137.43478,137.62631,76,70,0
137.43478,137.62631,64,70,0
137.62834,137.81987,78,70,0
137.62834,137.81987,66,70,0
137.82188,138.01341,79,70,0
137.82188,138.01341,67,70,0
138.01543,138.20697,78,70,0
138.01543,138.20697,66,70,0
138.20898,138.40051,79,70,0
138.20898,138.40051,67,70,0
138.40253,138.59406,80,70,0
138.40253,138.59406,68,70,0
138.59607,138.78761,78,70,0
138.59607,138.78761,66,70,0
138.78963,138.98116,80,70,0
138.78963,138.98116,68,70,0
138.98317,139.1747,81,70,0
138.98317,139.1747,69,70,0
139.17673,139.36826,83,70,0
139.17673,139.36826,71,70,0
139.37027,139.5618,84,70,0
139.37027,139.5618,72,70,0
139.56381,139.75534,83,70,0
139.56381,139.75534,71,70,0
139.75737,139.9489,81,70,0
139.75737,139.9489,69,70,0
139.95091,140.14244,83,70,0
139.95091,140.14244,71,70,0
140.14445,140.336,84,70,0
140.14445,140.336,72,70,0
140.33801,140.52954,83,70,0
140.33801,140.52954,71,70,0
140.53156,140.72308,84,70,0
140.53156,140.72308,72,70,0
140.7251,140.91664,86,70,0
140.7251,140.91664,74,70,0
140.91866,141.11018,84,70,0
140.91866,141.11018,72,70,0
141.1122,141.30373,83,70,0
141.1122,141.30373,71,70,0
141.30576,141.49728,81,70,0
141.30576,141.49728,69,70,0
141.4993,141.69083,83,71,0
141.4993,141.69083,71,71,0
141.69284,141.88437,84,73,0
141.69284,141.88437,72,73,0
141.8864,142.07793,83,75,0
141.8864,142.07793,71,75,0
142.07994,142.27147,81,76,0
142.07994,142.27147,69,76,0
142.27348,142.46503,83,78,0
142.27348,142.46503,71,78,0
142.46704,142.65857,84,80,0
142.46704,142.65857,72,80,0
142.66058,142.85211,83,81,0
142.66058,142.85211,71,81,0
142.85413,143.04567,84,83,0
142.85413,143.04567,72,83,0
143.04768,143.23921,85,85,0
143.04768,143.23921,73,85,0
143.24123,143.43275,84,87,0
143.24123,143.43275,72,87,0
143.43477,143.62631,85,88,0
143.43477,143.62631,73,88,0
143.62833,143.81985,86,90,0
143.62833,143.81985,74,90,0
143.82187,144.0134,85,92,0
143.82187,144.0134,73,92,0
144.01543,144.20695,86,93,0
144.01543,144.20695,74,93,0
144.20897,144.4005,90,95,0
144.20897,144.4005,78,95,0
144.40251,144.59406,89,97,0
144.40251,144.59406,77,97,0
144.59607,144.7876,90,99,0
144.59607,144.7876,78,99,0
144.78961,144.98114,91,100,0
144.78961,144.98114,79,100,0
144.98315,145.1747,90,102,0
144.98315,145.1747,78,102,0
145.17671,145.36824,91,104,0
145.17671,145.36824,79,104,0
145.37025,145.56178,83,105,0
145.37025,145.56178,71,105,0
145.5638,145.75534,81,107,0
145.5638,145.75534,69,107,0
145.75735,145.94888,83,109,0
145.75735,145.94888,71,109,0
145.9509,146.14243,84,110,0
145.9509,146.14243,72,110,0
146.14445,146.33598,79,110,0
146.338,146.52953,76,110,0
146.53154,146.72308,81,110,0
146.7251,146.91663,77,110,0
146.91864,147.11017,74,110,0
147.11218,147.30373,79,110,0
147.30574,147.49977,76,110,0
147.50182,147.69585,72,110,0
148.28613,148.48404,79,110,0
148.48613,148.69087,74,110,0
148.69302,148.94041,71,110,0
149.44302,149.83455,67,70,0
150.03012,150.41519,72,70,0
150.61076,150.99583,74,70,0
150.99786,151.09262,76,70,0
151.04625,151.141,74,70,0
151.09464,151.18939,72,70,0
151.1914,151.38293,74,70,0
151.38495,151.57649,76,70,0
151.77205,151.96358,59,70,0
151.96559,152.15714,59,70,0
152.15915,152.2539,60,70,0
152.20753,152.30229,59,70,0
152.25592,152.35068,57,70,0
152.35269,152.54422,59,70,0
152.54625,152.73778,60,70,0
152.93333,153.12486,71,70,0
153.12689,153.31842,71,70,0
153.32043,153.41519,72,70,0
153.36882,153.46358,71,70,0
153.4172,153.51196,69,70,0
153.51398,153.70552,71,70,0
153.70753,153.89906,72,70,0
154.09462,154.28616,56,70,0
154.28818,154.4797,56,70,0
154.48172,154.67325,56,70,0
154.67526,154.8668,56,70,0
154.86882,155.06035,57,70,0
155.25592,155.44745,71,70,0
155.44946,155.64099,71,70,0
155.643,155.73776,72,70,0
155.69139,155.78615,71,70,0
155.73978,155.83455,69,70,0
155.83656,156.02809,71,70,0
156.0301,156.22163,72,70,0
156.22365,156.3184,74,70,0
156.27203,156.3668,72,70,0
156.32043,156.41519,71,70,0
156.4172,156.60873,72,70,0
156.61075,156.80228,75,70,0
156.80429,156.89906,76,70,0
156.85269,156.94745,75,70,0
156.90108,156.99583,73,70,0
156.99785,157.18938,75,70,0
157.19139,157.38292,76,70,0
157.38495,157.4797,77,70,0
157.43333,157.52809,76,70,0
157.48172,157.57648,75,70,0
157.57849,157.77002,76,70,0
157.77203,157.96358,71,70,0
157.96559,158.06035,72,70,0
158.01398,158.10873,71,70,0
158.06236,158.15712,69,70,0
158.15913,158.35066,71,70,0
158.35268,158.54422,72,70,0
158.54623,158.64099,74,70,0
158.59462,158.68938,72,70,0
158.643,158.73776,71,70,0
158.73978,158.9313,72,70,0
158.93332,159.12486,75,70,0
159.12688,159.22163,76,70,0
159.17526,159.27002,75,70,0
159.22365,159.3184,74,70,0
159.32042,159.51195,75,70,0
159.51398,159.7055,76,70,0
159.70752,159.80228,77,70,0
159.7559,159.85066,76,70,0
159.80429,159.89905,75,70,0
159.90106,160.09259,76,70,0
160.09462,160.28615,76,70,0
160.28816,160.38292,77,70,0
160.33655,160.4313,76,70,0
160.38493,160.47969,75,70,0
160.4817,160.67325,76,70,0
160.67526,160.86679,76,70,0
160.8688,160.96356,77,70,0
160.91719,161.01195,76,70,0
160.96558,161.06033,75,70,0
161.06235,161.25389,76,70,0
161.2559,161.44743,76,70,0
161.44945,161.5442,77,70,0
161.49783,161.59259,76,70,0
161.54622,161.64098,75,70,0
161.643,161.83453,76,70,0
161.83655,162.02808,76,70,0
162.22365,162.60872,76,80,0
162.80429,163.20221,76,93,0
163.40428,163.84642,76,106,0
164.07095,164.46887,76,110,0
164.67096,165.05603,81,110,0
165.2516,165.63667,83,110,0
165.5903,165.68506,84,110,0
165.63869,165.73344,83,110,0
165.73546,165.83023,81,110,0
165.83224,166.02377,83,110,0
166.02579,166.21732,84,110,0
166.41289,166.79796,86,110,0
166.99353,167.3786,88,110,0
167.57417,167.91086,86,110,0
167.91289,168.00764,88,110,0
167.96127,168.05603,86,110,0
168.05804,168.1528,84,110,0
168.15482,168.34634,86,110,0
168.34836,168.5399,88,110,0
168.73546,169.12054,83,110,0
169.3161,169.70119,84,110,0
169.89674,170.28183,83,110,0
170.23546,170.33022,84,100,0
170.28384,170.3786,83,100,0
170.38062,170.47537,81,110,0
170.47739,170.66893,83,110,0
170.67094,170.86247,81,110,0
171.05803,171.24957,71,110,0
171.05803,171.24957,83,110,0
171.25159,171.44312,72,110,0
171.25159,171.44312,84,110,0
171.63869,171.83022,71,110,0
171.63869,171.83022,83,110,0
171.83223,172.02376,69,110,0
171.83223,172.02376,81,110,0
172.21933,172.41086,71,110,0
172.21933,172.41086,83,110,0
172.41287,172.6044,72,110,0
172.41287,172.6044,84,110,0
172.79997,172.9915,71,110,0
172.79997,172.9915,83,110,0
172.99352,173.18504,69,110,0
172.99352,173.18504,81,110,0
173.38062,173.57214,71,110,0
173.38062,173.57214,83,110,0
173.57416,173.76569,69,110,0
173.57416,173.76569,81,110,0
173.96126,174.15279,71,110,0
173.96126,174.15279,83,110,0
174.1548,174.34633,69,110,0
174.1548,174.34633,81,110,0
174.5419,174.73343,71,110,0
174.5419,174.73343,83,110,0
174.73544,174.92699,69,110,0
174.73544,174.92699,81,110,0
175.12254,175.31407,71,110,0
175.12254,175.31407,83,110,0
175.31609,175.50763,69,110,0
175.31609,175.50763,81,110,0
175.70319,175.89471,83,104,0
175.89673,176.08827,81,100,0
176.28383,176.47536,71,93,0
176.47739,176.66891,69,90,0
176.86447,177.05602,59,83,0
177.05803,177.24956,57,80,0
177.44511,177.63666,47,73,0
177.63867,177.8302,45,70,0
182.94948,183.5474,52,70,0
182.94948,183.5474,49,70,0
183.54948,184.1474,50,70,0
183.54948,184.1474,47,70,0
184.14948,184.5474,54,70,0
184.14948,184.5474,50,70,0
184.54948,184.74739,49,70,0
184.54948,184.74739,52,70,0
184.74948,184.94739,45,70,0
184.74948,184.94739,49,70,0
185.34947,185.5474,64,70,0
185.34947,185.5474,73,70,0
185.54948,185.74739,64,70,0
185.54948,185.74739,73,70,0
185.74948,185.94739,62,70,0
185.74948,185.94739,71,70,0
185.94948,186.1474,62,70,0
185.94948,186.1474,71,70,0
186.14948,186.3474,62,70,0
186.14948,186.3474,71,70,0
186.34947,186.5474,64,70,0
186.34947,186.5474,73,70,0
186.54948,186.74739,66,70,0
186.54948,186.74739,74,70,0
186.74948,186.94739,66,70,0
186.74948,186.94739,74,70,0
186.94948,187.1474,64,70,0
186.94948,187.1474,73,70,0
187.14948,187.3474,64,70,0
187.14948,187.3474,73,70,0
187.34947,187.5474,73,70,0
187.34947,187.5474,61,70,0
187.54948,187.74739,74,70,0
187.54948,187.74739,62,70,0
187.74948,187.94739,76,70,0
187.74948,187.94739,64,70,0
187.94948,188.1474,76,70,0
187.94948,188.1474,64,70,0
188.14948,188.3474,74,70,0
188.14948,188.3474,62,70,0
188.34947,188.5474,74,70,0
188.34947,188.5474,62,70,0
188.54948,188.74739,74,70,0
188.54948,188.74739,62,70,0
188.74948,188.94739,76,70,0
188.74948,188.94739,64,70,0
188.94948,189.1474,78,70,0
188.94948,189.1474,66,70,0
189.14948,189.3474,78,70,0
189.14948,189.3474,66,70,0
189.34947,189.5474,76,70,0
189.34947,189.5474,64,70,0
189.54948,189.74739,73,70,0
189.54948,189.74739,61,70,0
192.54948,193.1474,52,70,0
192.54948,193.1474,49,70,0
193.14948,193.74739,50,70,0
193.14948,193.74739,47,70,0
193.74948,194.1474,54,70,0
193.74948,194.1474,50,70,0
194.14948,194.3474,49,70,0
194.14948,194.3474,52,70,0
194.34947,194.5474,45,70,0
194.34947,194.5474,49,70,0
194.94948,195.1474,64,70,0
194.94948,195.1474,73,70,0
195.14948,195.3474,64,70,0
195.14948,195.3474,73,70,0
195.34947,195.5474,62,70,0
195.34947,195.5474,71,70,0
195.54948,195.74739,62,70,0
195.54948,195.74739,71,70,0
195.74948,195.94739,62,70,0
195.74948,195.94739,71,70,0
195.94948,196.1474,64,70,0
195.94948,196.1474,73,70,0
196.14948,196.3474,66,70,0
196.14948,196.3474,74,70,0
196.34947,196.5474,66,70,0
196.34947,196.5474,74,70,0
196.54948,196.74739,64,70,0
196.54948,196.74739,73,70,0
196.74948,196.94739,64,70,0
196.74948,196.94739,73,70,0
196.94948,197.1474,73,70,0
196.94948,197.1474,61,70,0
197.14948,197.3474,74,70,0
197.14948,197.3474,62,70,0
197.34947,197.5474,76,70,0
197.34947,197.5474,64,70,0
197.54948,197.74739,76,70,0
197.54948,197.74739,64,70,0
197.74948,197.94739,74,70,0
197.74948,197.94739,62,70,0
197.94948,198.1474,74,70,0
197.94948,198.1474,62,70,0
198.14948,198.3474,74,70,0
198.14948,198.3474,62,70,0
198.34947,198.5474,76,70,0
198.34947,198.5474,64,70,0
198.54948,198.74739,78,70,0
198.54948,198.74739,66,70,0
198.74948,198.94739,78,70,0
198.74948,198.94739,66,70,0
198.94948,199.1474,76,70,0
198.94948,199.1474,64,70,0
199.14948,199.3474,73,70,0
199.14948,199.3474,61,70,0
202.14948,202.74739,76,70,0
202.14948,202.74739,80,70,0
202.74948,203.3474,75,78,0
202.74948,203.3474,78,78,0
203.34947,203.74739,78,86,0
203.34947,203.74739,81,86,0
203.74948,203.94739,76,91,0
203.74948,203.94739,80,91,0
203.94948,204.5474,76,94,0
203.94948,204.5474,80,94,0
204.54948,204.74739,76,110,0
204.54948,204.74739,80,110,0
204.54948,204.74739,88,110,0
204.74948,204.94739,76,110,0
204.74948,204.94739,80,110,0
204.74948,204.94739,88,110,0
204.94948,205.1474,76,110,0
204.94948,205.1474,80,110,0
204.94948,205.1474,88,110,0
205.14948,205.3474,75,110,0
205.14948,205.3474,78,110,0
205.14948,205.3474,87,110,0
205.34947,205.5474,75,110,0
205.34947,205.5474,78,110,0
205.34947,205.5474,87,110,0
205.54948,205.74739,75,110,0
205.54948,205.74739,78,110,0
205.54948,205.74739,87,110,0
205.74948,205.94739,78,110,0
205.74948,205.94739,81,110,0
205.74948,205.94739,90,110,0
205.94948,206.1474,78,110,0
205.94948,206.1474,81,110,0
205.94948,206.1474,90,110,0
206.14948,206.3474,78,110,0
206.14948,206.3474,81,110,0
206.14948,206.3474,90,110,0
206.94948,207.1474,76,70,0
206.94948,207.1474,80,70,0
206.94948,207.1474,88,70,0
207.14948,207.3474,76,70,0
207.14948,207.3474,80,70,0
207.14948,207.3474,88,70,0
207.34947,207.5474,76,70,0
207.34947,207.5474,80,70,0
207.34947,207.5474,88,70,0
209.94948,210.0474,76,70,0
210.04948,210.1474,78,70,0
210.14948,210.24739,76,70,0
210.24948,210.3474,78,70,0
210.34947,210.44739,76,70,0
210.44948,210.5474,78,70,0
210.54948,210.6474,74,70,0
210.64948,210.74739,76,70,0
210.74948,210.8474,74,70,0
210.84947,210.94739,76,70,0
210.94948,211.0474,74,70,0
211.04948,211.1474,76,70,0
211.14948,211.3474,73,70,0
211.74948,212.3474,64,70,0
211.74948,212.3474,73,70,0
212.34947,212.94739,62,72,0
212.34947,212.94739,71,72,0
212.94948,213.3474,66,75,0
212.94948,213.3474,74,75,0
213.34947,213.5474,64,77,0
213.34947,213.5474,73,77,0
213.54948,214.1474,64,78,0
213.54948,214.1474,73,78,0
214.14948,214.74739,73,81,0
214.14948,214.74739,76,81,0
214.74948,215.3474,71,84,0
214.74948,215.3474,74,84,0
215.34947,215.74739,74,87,0
215.34947,215.74739,78,87,0
215.74948,215.94739,76,89,0
215.74948,215.94739,73,89,0
215.94948,216.5474,69,90,0
215.94948,216.5474,73,90,0
216.54948,216.74739,64,92,0
216.54948,216.74739,73,92,0
216.74948,216.94739,64,93,0
216.74948,216.94739,73,93,0
216.94948,217.1474,62,94,0
216.94948,217.1474,71,94,0
217.14948,217.3474,62,95,0
217.14948,217.3474,71,95,0
217.34947,217.5474,62,96,0
217.34947,217.5474,71,96,0
217.54948,217.74739,64,97,0
217.54948,217.74739,73,97,0
217.74948,217.94739,66,98,0
217.74948,217.94739,74,98,0
217.94948,218.1474,66,99,0
217.94948,218.1474,74,99,0
218.14948,218.3474,64,100,0
218.14948,218.3474,73,100,0
218.34947,218.5474,64,110,0
218.34947,218.5474,73,110,0
218.54948,218.74739,64,110,0
218.54948,218.74739,73,110,0
218.74948,218.94739,71,110,0
218.74948,218.94739,74,110,0
218.94948,219.1474,73,110,0
218.94948,219.1474,76,110,0
219.14948,219.3474,73,110,0
219.14948,219.3474,76,110,0
219.34947,219.5474,71,110,0
219.34947,219.5474,74,110,0
219.54948,219.74739,71,110,0
219.54948,219.74739,74,110,0
219.74948,219.94739,71,110,0
219.74948,219.94739,74,110,0
219.94948,220.1474,73,110,0
219.94948,220.1474,76,110,0
220.14948,220.3474,74,110,0
220.14948,220.3474,78,110,0
220.34947,220.5474,74,110,0
220.34947,220.5474,78,110,0
220.54948,220.74739,73,110,0
220.54948,220.74739,76,110,0
220.74948,220.94739,69,110,0
220.74948,220.94739,73,110,0
220.94948,221.1474,74,110,0
220.94948,221.1474,78,110,0
221.14948,221.3474,73,110,0
221.14948,221.3474,76,110,0
221.34947,221.5474,69,125,0
221.34947,221.5474,73,125,0
221.54948,221.74739,74,110,0
221.54948,221.74739,78,110,0
221.74948,221.94739,73,110,0
221.74948,221.94739,76,110,0
221.94948,222.1474,69,125,0
221.94948,222.1474,73,125,0
222.14948,222.3474,74,110,0
222.14948,222.3474,78,110,0
222.34947,222.5474,73,110,0
222.34947,222.5474,76,110,0
222.54948,222.74739,69,125,0
222.54948,222.74739,73,125,0
222.74948,222.94739,74,110,0
222.74948,222.94739,78,110,0
222.94948,223.1474,73,110,0
222.94948,223.1474,76,110,0
223.14948,223.3474,69,110,0
223.14948,223.3474,73,110,0
223.74948,223.94739,64,97,0
223.74948,223.94739,69,97,0
223.74948,223.94739,73,97,0
224.34947,224.5474,64,88,0
224.34947,224.5474,69,88,0
224.34947,224.5474,73,88,0
224.94948,225.1474,64,79,0
224.94948,225.1474,69,79,0
224.94948,225.1474,73,79,0
225.54948,225.74739,64,70,0
225.54948,225.74739,69,70,0
225.54948,225.74739,73,70,0
228.34947,228.74739,64,50,0
229.54948,229.94739,64,50,0
230.74948,231.1474,64,50,0
231.34947,231.75551,64,50,0
231.96172,232.38205,64,50,0
232.59552,232.99344,64,70,0
233.19553,233.57329,69,90,0
233.76514,234.14291,71,70,0
234.14488,234.23784,72,70,0
234.19235,234.28531,71,70,0
234.23982,234.33278,69,70,0
234.33476,234.52266,71,70,0
234.52463,234.71252,72,70,0
234.90437,235.28215,74,70,0
235.474,235.85176,76,70,0
236.04361,236.2315,74,70,0
236.23349,236.32645,74,70,0
236.28096,236.42139,72,70,0
236.42337,236.61125,71,70,0
236.61324,236.80113,69,70,0
236.80312,236.991,71,70,0
236.99298,237.18088,69,70,0
237.37273,237.56062,57,70,0
237.37273,237.56062,60,70,0
237.37273,237.56062,64,70,0
237.94235,238.13025,57,70,0
237.94235,238.13025,60,70,0
237.94235,238.13025,64,70,0
237.94235,238.13025,69,70,0
238.51196,238.69986,59,70,0
238.51196,238.69986,64,70,0
238.51196,238.69986,68,70,0
238.51196,238.69986,71,70,0
238.70184,238.88974,59,70,0
238.70184,238.88974,64,70,0
238.70184,238.88974,68,70,0
238.70184,238.88974,71,70,0
238.89171,239.0796,59,70,0
238.89171,239.0796,64,70,0
238.89171,239.0796,68,70,0
238.89171,239.0796,71,70,0
239.08159,239.26949,60,70,0
239.08159,239.26949,64,70,0
239.08159,239.26949,69,70,0
239.08159,239.26949,72,70,0
239.6512,239.8391,62,70,0
239.6512,239.8391,67,70,0
239.6512,239.8391,71,70,0
239.6512,239.8391,74,70,0
240.22083,240.40872,64,70,0
240.22083,240.40872,67,70,0
240.22083,240.40872,72,70,0
240.22083,240.40872,76,70,0
240.98032,241.16821,62,70,0
240.98032,241.16821,68,70,0
241.17018,241.35808,60,70,0
241.17018,241.35808,69,70,0
241.36006,241.54796,62,70,0
241.36006,241.54796,68,70,0
241.54993,241.73782,60,70,0
241.54993,241.73782,69,70,0
241.7398,242.11757,77,110,0
242.30943,242.6872,67,110,0
243.25879,243.44669,65,70,0
243.25879,243.44669,71,70,0
243.44867,243.63657,64,70,0
243.44867,243.63657,72,70,0
243.63853,243.82643,65,70,0
243.63853,243.82643,71,70,0
243.82841,244.01631,64,70,0
243.82841,244.01631,72,70,0
244.01828,244.39606,74,110,0
244.5879,244.96567,64,110,0
245.53726,245.72516,62,70,0
245.53726,245.72516,68,70,0
245.72714,245.91504,60,70,0
245.72714,245.91504,69,70,0
245.917,246.1049,62,70,0
245.917,246.1049,68,70,0
246.10689,246.29478,60,70,0
246.10689,246.29478,69,70,0
246.29675,246.67453,77,110,0
246.86638,247.24414,67,110,0
247.43599,247.81377,76,110,0
248.00562,248.38338,79,110,0
248.57524,248.95914,83,110,0
249.15726,249.55809,83,110,0
249.76714,249.96506,75,70,0
249.76714,249.96506,63,70,0
249.96713,250.15503,76,70,0
249.96713,250.15503,64,70,0
250.15701,250.34491,78,70,0
250.15701,250.34491,66,70,0
250.34688,250.53477,79,70,0
250.34688,250.53477,67,70,0
250.53676,250.72466,78,70,0
250.53676,250.72466,66,70,0
250.72662,250.91452,76,70,0
250.72662,250.91452,64,70,0
250.9165,251.1044,78,70,0
250.9165,251.1044,66,70,0
251.10637,251.29427,79,70,0
251.10637,251.29427,67,70,0
251.29625,251.48415,78,70,0
251.29625,251.48415,66,70,0
251.48611,251.67401,79,70,0
251.48611,251.67401,67,70,0
251.676,251.86389,81,70,0
251.676,251.86389,69,70,0
251.86586,252.05376,79,70,0
251.86586,252.05376,67,70,0
252.05574,252.24364,78,70,0
252.05574,252.24364,66,70,0
252.2456,252.4335,76,70,0
252.2456,252.4335,64,70,0
252.43549,252.62338,78,70,0
252.43549,252.62338,66,70,0
252.62535,252.81325,79,70,0
252.62535,252.81325,67,70,0
252.81523,253.00313,78,70,0
252.81523,253.00313,66,70,0
253.0051,253.193,76,70,0
253.0051,253.193,64,70,0
253.19498,253.38287,78,70,0
253.19498,253.38287,66,70,0
253.38484,253.57274,79,70,0
253.38484,253.57274,67,70,0
253.57472,253.76262,78,70,0
253.57472,253.76262,66,70,0
253.76459,253.95248,79,70,0
253.76459,253.95248,67,70,0
253.95447,254.14236,80,70,0
253.95447,254.14236,68,70,0
254.14433,254.33223,78,70,0
254.14433,254.33223,66,70,0
254.33421,254.52211,80,70,0
254.33421,254.52211,68,70,0
254.5241,254.71198,81,70,0
254.5241,254.71198,69,70,0
254.71396,254.90186,83,70,0
254.71396,254.90186,71,70,0
254.90384,255.09172,84,70,0
254.90384,255.09172,72,70,0
255.0937,255.2816,83,70,0
255.0937,255.2816,71,70,0
255.28358,255.47147,81,70,0
255.28358,255.47147,69,70,0
255.47345,255.66135,83,70,0
255.47345,255.66135,71,70,0
255.66333,255.85121,84,70,0
255.66333,255.85121,72,70,0
255.8532,256.0411,83,70,0
255.8532,256.0411,71,70,0
256.04306,256.23096,84,70,0
256.04306,256.23096,72,70,0
256.23294,256.42084,86,70,0
256.23294,256.42084,74,70,0
256.42282,256.61072,84,70,0
256.42282,256.61072,72,70,0
256.6127,256.8006,83,70,0
256.6127,256.8006,71,70,0
256.80255,256.99045,81,70,0
256.80255,256.99045,69,70,0
256.99243,257.18033,83,71,0
256.99243,257.18033,71,71,0
257.1823,257.3702,84,73,0
257.1823,257.3702,72,73,0
257.3722,257.5601,83,75,0
257.3722,257.5601,71,75,0
257.56204,257.74994,81,76,0
257.56204,257.74994,69,76,0
257.75192,257.93982,83,78,0
257.75192,257.93982,71,78,0
257.9418,258.1297,84,80,0
257.9418,258.1297,72,80,0
258.13168,258.31958,83,81,0
258.13168,258.31958,71,81,0
258.32153,258.50943,84,83,0
258.32153,258.50943,72,83,0
258.5114,258.6993,85,85,0
258.5114,258.6993,73,85,0
258.7013,258.8892,84,87,0
258.7013,258.8892,72,87,0
258.89117,259.07907,85,88,0
258.89117,259.07907,73,88,0
259.08102,259.26892,86,90,0
259.08102,259.26892,74,90,0
259.2709,259.4588,85,92,0
259.2709,259.4588,73,92,0
259.4608,259.64868,86,93,0
259.4608,259.64868,74,93,0
259.65067,259.83856,90,95,0
259.65067,259.83856,78,95,0
259.8405,260.0284,89,97,0
259.8405,260.0284,77,97,0
260.0304,260.2183,90,99,0
260.0304,260.2183,78,99,0
260.22028,260.40817,91,100,0
260.22028,260.40817,79,100,0
260.41016,260.59805,90,102,0
260.41016,260.59805,78,102,0
260.60004,260.7879,91,104,0
260.60004,260.7879,79,104,0
260.7899,260.97778,83,105,0
260.7899,260.97778,71,105,0
260.97977,261.16766,81,107,0
260.97977,261.16766,69,107,0
261.16965,261.35754,83,109,0
261.16965,261.35754,71,109,0
261.35953,261.54742,84,110,0
261.35953,261.54742,72,110,0
261.54938,261.73727,79,110,0
261.73926,261.92715,76,110,0
261.92914,262.11703,81,110,0
262.11902,262.30692,77,110,0
262.30887,262.49677,74,110,0
262.49875,262.68665,79,110,0
262.68863,262.87653,76,110,0
262.8785,263.07004,72,110,0
263.65268,263.85062,79,110,0
263.8527,264.05743,74,110,0
264.0596,264.30698,71,110,0
264.8096,265.19748,67,70,0
265.38934,265.7671,72,70,0
265.95895,266.33673,74,70,0
266.33868,266.43164,76,70,0
266.38617,266.47913,74,70,0
266.43362,266.52658,72,70,0
266.52856,266.71646,74,70,0
266.71844,266.90634,76,70,0
267.09818,267.28607,59,70,0
267.28806,267.47595,59,70,0
267.47794,267.5709,60,70,0
267.5254,267.61835,59,70,0
267.57288,267.66583,57,70,0
267.66782,267.8557,59,70,0
267.85767,268.04556,60,70,0
268.23743,268.42773,71,70,0
268.42975,268.62003,71,70,0
268.62204,268.7162,72,70,0
268.6701,268.76428,71,70,0
268.7182,268.81235,69,70,0
268.81436,269.00464,71,70,0
269.00665,269.19696,72,70,0
269.39127,269.5853,56,70,0
269.58734,269.78528,56,70,0
269.78735,269.98526,56,70,0
269.98734,270.18527,56,70,0
270.18735,270.38525,57,70,0
270.58734,270.78528,71,70,0
270.78735,270.97525,71,70,0
270.97723,271.0702,72,70,0
271.0247,271.11765,71,70,0
271.07214,271.1651,69,70,0
271.16708,271.35498,71,70,0
271.35696,271.54486,72,70,0
271.54684,271.6398,74,70,0
271.5943,271.68726,72,70,0
271.64178,271.73474,71,70,0
271.73672,271.92462,72,70,0
271.92657,272.11447,75,70,0
272.11646,272.2094,76,70,0
272.16394,272.2569,75,70,0
272.2114,272.30435,73,70,0
272.30634,272.49423,75,70,0
272.49622,272.6841,76,70,0
272.68607,272.77902,77,70,0
272.73355,272.8265,76,70,0
272.781,272.87396,75,70,0
272.87595,273.06384,76,70,0
273.06583,273.25372,71,70,0
273.2557,273.34866,72,70,0
273.30316,273.39612,71,70,0
273.35065,273.4436,69,70,0
273.44556,273.63345,71,70,0
273.63544,273.82333,72,70,0
273.82532,273.91827,74,70,0
273.87277,273.96573,72,70,0
273.92026,274.0132,71,70,0
274.0152,274.2031,72,70,0
274.20505,274.39294,75,70,0
274.39493,274.48788,76,70,0
274.4424,274.53537,75,70,0
274.48987,274.58282,74,70,0
274.5848,274.7727,75,70,0
274.7747,274.9626,76,70,0
274.96454,275.05753,77,70,0
275.01202,275.10498,76,70,0
275.05948,275.15244,75,70,0
275.15442,275.34232,76,70,0
275.3443,275.5322,76,70,0
275.53418,275.62714,77,70,0
275.58163,275.6746,76,70,0
275.62912,275.72208,75,70,0
275.72406,275.91193,76,70,0
275.9139,276.1018,76,70,0
276.1038,276.19675,77,70,0
276.15125,276.24423,76,70,0
276.19873,276.2917,75,70,0
276.29367,276.48157,76,70,0
276.48355,276.67508,76,70,0
276.6771,276.77185,77,70,0
276.72546,276.82022,76,70,0
276.77386,276.86862,75,70,0
276.87064,277.06854,76,70,0
277.07065,277.26855,76,70,0
277.47064,277.86856,76,80,0
278.07065,278.47537,76,93,0
278.68442,279.10336,76,106,0
279.3199,279.7147,76,110,0
279.90652,280.2843,81,110,0
280.47617,280.8539,83,110,0
280.80844,280.9014,84,110,0
280.8559,280.94885,83,110,0
280.95084,281.0438,81,110,0
281.04578,281.23367,83,110,0
281.23566,281.42355,84,110,0
281.6154,281.99316,86,110,0
282.185,282.56277,88,110,0
282.75464,283.08493,86,110,0
283.0869,283.17987,88,110,0
283.13437,283.22733,86,110,0
283.2293,283.32227,84,110,0
283.32425,283.51215,86,110,0
283.51413,283.70203,88,110,0
283.89386,284.27164,83,110,0
284.46347,284.84125,84,110,0
285.0331,285.41086,83,110,0
285.3654,285.45834,84,100,0
285.41284,285.5058,83,100,0
285.50778,285.60074,81,110,0
285.60272,285.79062,83,110,0
285.7926,285.9805,81,110,0
286.17233,286.36023,71,110,0
286.17233,286.36023,83,110,0
286.3622,286.5501,72,110,0
286.3622,286.5501,84,110,0
286.74197,286.92987,71,110,0
286.74197,286.92987,83,110,0
286.93182,287.11972,69,110,0
286.93182,287.11972,81,110,0
287.31158,287.49948,71,110,0
287.31158,287.49948,83,110,0
287.50146,287.68936,72,110,0
287.50146,287.68936,84,110,0
287.8812,288.0691,71,110,0
287.8812,288.0691,83,110,0
288.07108,288.25897,69,110,0
288.07108,288.25897,81,110,0
288.4508,288.6387,71,110,0
288.4508,288.6387,83,110,0
288.6407,288.82858,69,110,0
288.6407,288.82858,81,110,0
289.02045,289.20834,71,110,0
289.02045,289.20834,83,110,0
289.2103,289.3982,69,110,0
289.2103,289.3982,81,110,0
289.59006,289.77795,71,110,0
289.59006,289.77795,83,110,0
289.77994,289.96783,69,110,0
289.77994,289.96783,81,110,0
290.15967,290.34756,71,110,0
290.15967,290.34756,83,110,0
290.34955,290.53745,69,110,0
290.34955,290.53745,81,110,0
290.7293,290.91718,83,104,0
290.91916,291.10706,81,100,0
291.29892,291.48682,71,93,0
291.4888,291.67667,69,90,0
291.86853,292.05643,59,83,0
292.0584,292.24994,57,80,0
292.4455,292.63702,47,73,0
292.63904,292.8331,45,70,0
293.03122,293.42133,64,50,0
294.20767,294.59778,64,50,0
295.38416,295.77426,64,50,0
295.97238,296.36636,64,50,0
296.56845,296.9801,64,50,0
297.18915,297.60077,64,50,0
297.8098,298.22147,69,50,0
298.4305,298.84216,71,50,0
299.0512,299.46283,72,50,0
299.6719,300.08353,71,50,0
300.29257,300.70422,69,50,0
300.91327,301.32492,67,50,0
301.53397,301.9603,65,50,0
302.17682,302.61893,64,50,0
303.51013,303.95227,64,50,0
304.86057,305.33875,64,50,0
305.59134,306.12408,64,50,0
306.41278,306.78387,64,50,0
306.78778,307.34637,57,50,0
0.580644,0.77217585,57,70,0
0.580644,0.77217585,60,70,0
1.161288,1.3528199,57,70,0
1.161288,1.3528199,60,70,0
1.741932,1.9334639,52,70,0
1.741932,1.9334639,56,70,0
1.741932,1.9334639,59,70,0
1.93548,2.1270118,52,70,0
1.93548,2.1270118,56,70,0
1.93548,2.1270118,59,70,0
2.129028,2.32056,52,70,0
2.129028,2.32056,56,70,0
2.129028,2.32056,59,70,0
2.322576,2.514108,57,70,0
2.322576,2.514108,60,70,0
2.90322,3.0947518,55,70,0
2.90322,3.0947518,59,70,0
2.90322,3.0947518,62,70,0
3.483864,3.675396,60,70,0
3.483864,3.675396,64,70,0
3.87096,4.062492,55,70,0
3.87096,4.062492,59,70,0
4.064508,4.25604,57,70,0
4.064508,4.25604,60,70,0
4.258056,4.449588,52,70,0
4.258056,4.449588,56,70,0
4.451604,4.643136,45,70,0
4.451604,4.643136,57,70,0
4.645152,4.8366838,52,70,0
4.645152,4.8366838,56,70,0
4.8387,5.030232,45,70,0
4.8387,5.030232,57,70,0
5.225796,5.417328,45,70,0
5.225796,5.417328,48,70,0
5.225796,5.417328,52,70,0
5.80644,5.997972,45,70,0
5.80644,5.997972,48,70,0
5.80644,5.997972,52,70,0
6.387084,6.5786157,40,70,0
6.387084,6.5786157,52,70,0
6.580632,6.772164,40,70,0
6.580632,6.772164,52,70,0
6.77418,6.965712,40,70,0
6.77418,6.965712,52,70,0
6.967728,7.15926,45,70,0
6.967728,7.15926,48,70,0
6.967728,7.15926,52,70,0
6.967728,7.15926,57,70,0
7.548372,7.739904,43,70,0
7.548372,7.739904,47,70,0
7.548372,7.739904,50,70,0
7.548372,7.739904,55,70,0
8.129016,8.320548,48,70,0
8.129016,8.320548,52,70,0
8.129016,8.320548,55,70,0
8.129016,8.320548,60,70,0
8.516112,8.7076435,55,70,0
8.70966,8.901192,57,70,0
8.903208,9.09474,52,70,0
9.096756,9.288288,45,70,0
9.290304,9.481836,52,70,0
9.483852,9.675384,45,70,0
9.870948,10.06248,50,110,0
9.870948,10.06248,53,110,0
9.870948,10.06248,57,110,0
9.870948,10.06248,62,110,0
10.451592,10.643124,55,110,0
10.451592,10.643124,59,110,0
10.451592,10.643124,62,110,0
11.032236,11.223768,60,70,0
11.225784,11.4173155,55,70,0
11.419332,11.610864,48,70,0
11.61288,11.804412,55,70,0
11.806428,11.99796,48,70,0
12.193524,12.385056,50,110,0
12.193524,12.385056,53,110,0
12.193524,12.385056,59,110,0
12.774168,12.9657,52,110,0
12.774168,12.9657,56,110,0
12.774168,12.9657,59,110,0
13.354812,13.546344,57,70,0
13.54836,13.739892,52,70,0
13.741908,13.93344,45,70,0
13.935456,14.126987,52,70,0
14.129004,14.320536,45,70,0
14.5161,14.707632,50,110,0
14.5161,14.707632,53,110,0
14.5161,14.707632,57,110,0
14.5161,14.707632,62,110,0
15.096744,15.288276,55,110,0
15.096744,15.288276,59,110,0
15.096744,15.288276,62,110,0
15.677388,15.86892,64,110,0
15.677388,15.86892,60,110,0
16.258032,16.449564,58,110,0
16.258032,16.449564,61,110,0
16.258032,16.449564,64,110,0
16.258032,16.449564,67,110,0
16.838676,17.036592,59,110,0
16.838676,17.036592,64,110,0
16.838676,17.036592,67,110,0
17.438677,17.636593,47,110,0
17.438677,17.636593,51,110,0
17.438677,17.636593,54,110,0
17.438677,17.636593,59,110,0
19.214249,19.792877,47,70,0
19.794893,20.373522,39,70,0
20.375538,20.567068,40,70,0
22.698112,23.276741,52,70,0
23.278757,23.857386,44,70,0
23.859402,24.050932,45,70,0
25.020689,25.599318,52,70,0
25.020689,25.599318,40,70,0
25.601334,26.17996,44,75,0
25.601334,26.17996,32,75,0
26.181976,26.760605,45,80,0
26.181976,26.760605,33,80,0
26.76262,27.34125,43,85,0
26.76262,27.34125,31,85,0
27.343266,27.921892,42,90,0
27.343266,27.921892,30,90,0
27.923908,28.502537,48,95,0
27.923908,28.502537,36,95,0
28.504553,29.083181,47,100,0
28.504553,29.083181,35,100,0
29.085197,29.663824,52,105,0
29.085197,29.663824,40,105,0
29.66584,29.857372,52,110,0
29.66584,29.857372,40,110,0
29.859388,30.05092,43,110,0
30.052937,30.244469,48,110,0
30.246485,30.438017,41,110,0
30.440033,30.631565,45,110,0
30.633581,30.825113,50,110,0
30.82713,31.018661,43,110,0
31.020678,31.21221,48,110,0
31.214226,31.405756,52,110,0
31.988417,32.186333,43,110,0
32.188416,32.386333,50,110,0
32.388416,32.616783,43,110,0
32.388416,32.616783,50,110,0
32.388416,32.616783,53,110,0
33.274273,33.465805,60,70,0
33.274273,33.465805,64,70,0
33.854916,34.046448,60,70,0
33.854916,34.046448,64,70,0
34.43556,34.62709,55,70,0
34.43556,34.62709,59,70,0
34.43556,34.62709,62,70,0
34.43556,34.62709,65,70,0
34.62911,34.82064,55,70,0
34.62911,34.82064,59,70,0
34.62911,34.82064,62,70,0
34.62911,34.82064,65,70,0
34.822655,35.014187,55,70,0
34.822655,35.014187,59,70,0
34.822655,35.014187,62,70,0
34.822655,35.014187,65,70,0
35.016205,35.207737,64,70,0
35.016205,35.207737,60,70,0
35.4033,35.594833,43,70,0
35.4033,35.594833,53,70,0
35.596848,35.78838,43,70,0
35.596848,35.78838,53,70,0
35.790398,35.98193,43,70,0
35.790398,35.98193,53,70,0
35.983944,36.175476,43,70,0
35.983944,36.175476,53,70,0
36.17749,36.369022,48,70,0
36.17749,36.369022,52,70,0
36.758137,36.94967,52,70,0
36.758137,36.94967,56,70,0
36.758137,36.94967,59,70,0
36.758137,36.94967,62,70,0
36.951683,37.143215,52,70,0
36.951683,37.143215,56,70,0
36.951683,37.143215,59,70,0
36.951683,37.143215,62,70,0
37.145233,37.336765,52,70,0
37.145233,37.336765,56,70,0
37.145233,37.336765,59,70,0
37.145233,37.336765,62,70,0
37.33878,37.53031,52,70,0
37.33878,37.53031,57,70,0
37.33878,37.53031,60,70,0
37.725876,37.917408,40,70,0
37.725876,37.917408,52,70,0
37.919422,38.110954,40,70,0
37.919422,38.110954,52,70,0
38.112972,38.304504,40,70,0
38.112972,38.304504,52,70,0
38.30652,38.49805,40,70,0
38.30652,38.49805,52,70,0
38.50007,38.6916,45,70,0
38.50007,38.6916,52,70,0
39.08071,39.272243,52,70,0
39.08071,39.272243,56,70,0
39.08071,39.272243,59,70,0
39.661358,39.852886,52,70,0
39.661358,39.852886,57,70,0
39.661358,39.852886,60,70,0
40.242,40.433533,52,70,0
40.242,40.433533,54,70,0
40.242,40.433533,57,70,0
40.822643,41.014175,52,70,0
40.822643,41.014175,56,70,0
40.822643,41.014175,59,70,0
41.40329,41.59482,52,70,0
41.40329,41.59482,56,70,0
41.40329,41.59482,59,70,0
41.983932,42.175465,52,70,0
41.983932,42.175465,57,70,0
41.983932,42.175465,60,70,0
42.564575,42.756107,52,70,0
42.564575,42.756107,54,70,0
42.564575,42.756107,57,70,0
43.14522,43.33675,52,70,0
43.14522,43.33675,56,70,0
43.14522,43.33675,59,70,0
43.725864,43.917397,45,70,0
43.725864,43.917397,48,70,0
43.725864,43.917397,52,70,0
43.725864,43.917397,57,70,0
44.306507,44.49804,40,70,0
44.306507,44.49804,44,70,0
44.306507,44.49804,47,70,0
44.306507,44.49804,52,70,0
44.887154,45.078686,33,70,0
44.887154,45.078686,36,70,0
44.887154,45.078686,40,70,0
44.887154,45.078686,45,70,0
45.467796,45.65933,40,70,0
45.467796,45.65933,44,70,0
45.467796,45.65933,47,70,0
45.467796,45.65933,52,70,0
47.75955,47.95108,45,110,0
47.856323,47.95108,52,110,0
47.9531,48.14463,45,110,0
48.049873,48.241405,52,110,0
48.146645,48.338177,48,110,0
48.24342,48.43495,52,110,0
48.340195,48.531727,45,110,0
48.43697,48.531727,52,110,0
48.53374,48.725273,45,110,0
48.630516,48.82205,52,110,0
48.72729,48.918823,48,110,0
48.824062,49.015594,52,110,0
48.920837,49.11237,40,110,0
49.017612,49.11237,52,110,0
49.114388,49.30592,40,110,0
49.21116,49.40269,52,110,0
49.307934,49.499466,47,110,0
49.40471,49.59624,52,110,0
49.50148,49.693012,40,110,0
49.598255,49.693012,52,110,0
49.69503,49.886562,45,110,0
49.791805,49.983337,52,110,0
49.888577,50.08011,48,110,0
49.98535,50.176884,52,110,0
50.082127,50.27366,43,110,0
50.1789,50.27366,47,110,0
50.275673,50.467205,43,110,0
50.372448,50.56398,47,110,0
50.469223,50.660755,50,110,0
50.565994,50.757526,53,110,0
50.66277,50.8543,48,110,0
50.759544,50.8543,52,110,0
50.85632,51.04785,48,110,0
50.95309,51.144623,52,110,0
51.049866,51.241398,55,110,0
51.14664,51.338173,60,110,0
51.243416,51.434944,43,110,0
51.340187,51.434944,47,110,0
51.436962,51.628494,43,110,0
51.533737,51.72527,47,110,0
51.63051,51.82204,50,110,0
51.727283,51.918816,53,110,0
51.82406,52.01559,43,110,0
51.920834,52.01559,55,110,0
52.017605,52.209137,48,110,0
52.11438,52.305912,52,110,0
52.211155,52.402687,48,110,0
52.307926,52.49946,52,110,0
52.4047,52.596233,40,110,0
52.501476,52.596233,44,110,0
52.59825,52.789783,40,110,0
52.695023,52.886555,44,110,0
52.791798,52.98333,47,110,0
52.888573,53.080105,50,110,0
52.985348,53.176876,45,110,0
53.08212,53.176876,48,110,0
53.178894,53.370426,45,110,0
53.27567,53.4672,48,110,0
53.37244,53.563972,52,110,0
53.469215,53.660748,57,110,0
53.56599,53.757523,40,110,0
53.662766,53.757523,44,110,0
53.759537,53.95107,40,110,0
53.85631,54.047844,44,110,0
53.953087,54.14462,47,110,0
54.04986,54.24139,50,110,0
54.146633,54.338165,40,110,0
54.24341,54.338165,50,110,0
54.340183,54.531715,45,110,0
54.436954,54.628487,48,110,0
54.53373,54.72526,52,110,0
54.630505,54.822037,57,110,0
54.72728,54.918808,50,110,0
54.82405,54.918808,53,110,0
54.920826,55.11236,52,110,0
55.0176,55.209133,57,110,0
55.114372,55.305904,56,110,0
55.211147,55.40268,57,110,0
55.307922,55.499454,40,110,0
55.404697,55.499454,52,110,0
55.50147,55.693,45,110,0
55.598244,55.789776,48,110,0
55.69502,55.88655,52,110,0
55.791794,55.983322,57,110,0
55.888565,56.080097,50,110,0
55.98534,56.080097,53,110,0
56.082115,56.273647,52,110,0
56.178886,56.37042,57,110,0
56.27566,56.467194,56,110,0
56.372437,56.56397,57,110,0
56.46921,56.660744,40,110,0
56.565983,56.660744,52,110,0
56.662758,56.85429,45,110,0
56.759533,56.951065,52,110,0
56.856304,57.047836,48,110,0
56.95308,57.14461,52,110,0
57.049854,57.241386,40,110,0
57.14663,57.241386,52,110,0
57.2434,57.434933,45,110,0
57.340176,57.531708,52,110,0
57.43695,57.628483,48,110,0
57.533726,57.725254,52,110,0
57.630497,57.82203,40,110,0
57.727272,57.82203,52,110,0
57.824047,58.01558,45,110,0
57.92082,58.11235,52,110,0
58.017593,58.209126,48,110,0
58.11437,58.3059,52,110,0
58.211143,58.402676,40,110,0
58.307915,58.402676,52,110,0
58.40469,58.596222,45,110,0
58.501465,58.692997,52,110,0
58.59824,58.78977,48,110,0
58.69501,58.886543,52,110,0
58.791786,58.98332,40,110,0
58.88856,58.98332,52,110,0
58.985332,59.176865,45,110,0
59.178883,59.370415,40,107,0
59.275658,59.467186,45,105,0
59.37243,59.56396,33,104,0
59.469204,59.660736,45,102,0
59.56598,59.75751,40,100,0
59.66275,59.854282,45,99,0
59.759525,59.951057,33,97,0
59.8563,60.047832,45,95,0
59.953075,60.144608,40,93,0
60.049847,60.24138,45,92,0
60.14662,60.338154,33,90,0
60.243397,60.43493,45,88,0
60.34017,60.5317,40,87,0
60.436943,60.628475,45,85,0
60.53372,60.72525,33,83,0
60.630493,60.822025,45,81,0
60.727264,60.918797,40,80,0
60.82404,61.01557,45,78,0
60.920815,61.112347,33,76,0
61.01759,61.20912,45,75,0
61.11436,61.305893,40,73,0
61.211136,61.402668,45,71,0
61.30791,61.499443,33,70,0
61.695007,61.88654,35,70,0
61.888554,62.080086,33,70,0
62.27565,62.467182,35,70,0
62.469196,62.66073,33,70,0
62.856293,63.047825,35,70,0
63.049843,63.241375,33,70,0
63.43694,63.62847,35,70,0
63.630486,63.82452,33,70,0
64.022644,64.216675,35,70,0
64.21872,64.41663,33,70,0
64.61872,64.816635,35,70,0
64.81872,65.01664,33,70,0
65.21872,65.41663,35,70,0
65.41872,65.61664,33,70,0
65.81872,66.01664,35,70,0
66.01872,66.21664,33,70,0
66.41872,66.61664,35,70,0
66.61872,66.816635,33,70,0
67.01872,67.21664,35,70,0
67.21872,67.41663,33,70,0
67.61872,67.816635,35,70,0
67.81872,68.01664,33,70,0
68.21872,68.41663,35,70,0
68.41872,68.51664,33,70,0
68.51872,68.61664,35,70,0
68.61872,68.71664,33,70,0
68.71872,68.816635,35,70,0
68.81872,68.91663,33,70,0
68.91872,69.01664,35,70,0
69.01872,69.11664,33,70,0
69.11872,69.21664,35,70,0
69.21872,69.316635,33,70,0
69.31872,69.41663,35,70,0
69.41872,69.51664,33,70,0
69.51872,69.61664,35,70,0
69.61872,69.71664,33,70,0
69.71872,69.816635,35,70,0
69.81872,69.91663,33,70,0
69.91872,70.01664,35,70,0
70.01872,70.11664,33,70,0
70.11872,70.21664,35,70,0
70.21872,70.316635,33,70,0
70.31872,70.41663,35,70,0
70.41872,70.51664,33,70,0
70.51872,70.61664,35,70,0
70.61872,70.71664,33,70,0
70.71872,70.816635,35,70,0
70.81872,70.91663,33,70,0
70.91872,71.01664,35,70,0
71.01872,71.11664,33,70,0
71.11872,71.21664,35,70,0
71.21872,71.316635,33,70,0
71.31872,71.41663,35,70,0
71.41872,71.51664,33,70,0
71.51872,71.61664,35,70,0
71.61872,71.71664,33,70,0
71.71872,71.816635,35,70,0
71.81872,71.91663,33,70,0
71.91872,72.01664,35,70,0
72.01872,72.11664,33,70,0
72.11872,72.21664,35,70,0
72.21872,72.316635,33,70,0
72.31872,72.41663,35,70,0
72.41872,72.51664,33,70,0
72.51872,72.61664,35,70,0
72.61872,72.71664,33,70,0
72.71872,72.816635,35,70,0
72.81872,72.91663,33,70,0
72.91872,73.01664,35,70,0
73.01872,73.11664,33,70,0
73.11872,73.21664,35,70,0
73.21872,73.41663,33,70,0
73.61872,73.816635,35,70,0
73.81872,74.01664,33,70,0
74.21872,74.41663,35,70,0
74.41872,74.61664,33,70,0
74.81872,75.01664,35,70,0
75.01872,75.21664,33,70,0
75.41872,75.61664,35,70,0
75.61872,75.816635,33,70,0
76.01872,76.21664,35,70,0
76.21872,76.41663,33,70,0
76.61872,76.816635,35,70,0
76.81872,77.01664,33,70,0
77.21872,77.41663,35,70,0
77.41872,77.61664,33,70,0
77.81872,78.01664,35,70,0
78.01872,78.11664,33,70,0
78.11872,78.21664,35,70,0
78.21872,78.316635,33,70,0
78.31872,78.41663,35,70,0
78.41872,78.51664,33,70,0
78.51872,78.61664,35,70,0
78.61872,78.71664,33,70,0
78.71872,78.816635,35,70,0
78.81872,78.91663,33,70,0
78.91872,79.01664,35,70,0
79.01872,79.11664,33,70,0
79.11872,79.21664,35,70,0
79.21872,79.316635,33,70,0
79.31872,79.41663,35,70,0
79.41872,79.51664,33,70,0
79.51872,79.61664,35,70,0
79.61872,79.71664,33,70,0
79.71872,79.816635,35,70,0
79.81872,79.91663,33,70,0
79.91872,80.01664,35,70,0
80.01872,80.11664,33,70,0
80.11872,80.21664,35,70,0
80.21872,80.316635,33,70,0
80.31872,80.41663,35,70,0
80.41872,80.51664,33,70,0
80.51872,80.61664,35,70,0
80.61872,80.71664,33,70,0
80.71872,80.816635,35,70,0
80.81872,80.91663,33,70,0
80.91872,81.01664,35,70,0
81.01872,81.11664,33,70,0
81.11872,81.21664,35,70,0
81.21872,81.316635,33,70,0
81.31872,81.41663,35,70,0
81.41872,81.51664,33,70,0
81.51872,81.61664,35,70,0
81.61872,81.71664,33,70,0
81.71872,81.816635,35,70,0
81.81872,81.91663,33,70,0
81.91872,82.01664,35,70,0
82.01872,82.11664,33,70,0
82.11872,82.21664,35,70,0
82.21872,82.320015,33,70,0
82.32217,82.42346,35,70,0
82.42561,82.52691,33,70,0
82.52906,82.630356,35,70,0
82.632515,82.7338,33,70,0
82.73596,82.83725,35,70,0
82.83941,83.03732,33,70,0
83.43941,84.03732,68,70,0
83.43941,84.03732,64,70,0
84.039406,84.63732,63,70,0
84.039406,84.63732,66,70,0
84.639404,85.03732,66,70,0
84.639404,85.03732,69,70,0
85.039406,85.23733,64,70,0
85.039406,85.23733,68,70,0
85.23941,85.837326,64,70,0
85.23941,85.837326,68,70,0
85.83941,86.437325,64,70,0
85.83941,86.437325,68,70,0
86.43941,87.0454,63,78,0
86.43941,87.0454,66,78,0
87.047516,87.45915,66,86,0
87.047516,87.45915,69,86,0
87.4613,87.666046,64,91,0
87.4613,87.666046,68,91,0
87.668205,88.26957,64,94,0
87.668205,88.26957,68,94,0
88.27165,88.46957,64,110,0
88.27165,88.46957,68,110,0
88.47165,88.66956,64,110,0
88.47165,88.66956,68,110,0
88.67165,88.86957,64,110,0
88.67165,88.86957,68,110,0
88.87165,89.069565,59,110,0
88.87165,89.069565,63,110,0
88.87165,89.069565,66,110,0
89.07165,89.26957,59,110,0
89.07165,89.26957,63,110,0
89.07165,89.26957,66,110,0
89.27165,89.46957,59,110,0
89.27165,89.46957,63,110,0
89.27165,89.46957,66,110,0
89.47165,89.66956,47,110,0
89.47165,89.66956,51,110,0
89.47165,89.66956,54,110,0
89.47165,89.66956,59,110,0
89.67165,89.86957,47,110,0
89.67165,89.86957,51,110,0
89.67165,89.86957,54,110,0
89.67165,89.86957,59,110,0
89.87165,90.069565,47,110,0
89.87165,90.069565,51,110,0
89.87165,90.069565,54,110,0
89.87165,90.069565,59,110,0
90.67165,90.86957,52,70,0
90.67165,90.86957,56,70,0
90.67165,90.86957,59,70,0
90.67165,90.86957,62,70,0
90.87165,91.069565,52,70,0
90.87165,91.069565,56,70,0
90.87165,91.069565,59,70,0
90.87165,91.069565,62,70,0
91.07165,91.26957,52,70,0
91.07165,91.26957,56,70,0
91.07165,91.26957,59,70,0
91.07165,91.26957,62,70,0
93.67165,93.76957,64,70,0
93.77165,93.86957,66,70,0
93.87165,93.96957,64,70,0
93.97165,94.069565,66,70,0
94.07165,94.16956,64,70,0
94.17165,94.26957,66,70,0
94.27165,94.36957,62,70,0
94.37165,94.46957,64,70,0
94.47165,94.569565,62,70,0
94.57165,94.66956,64,70,0
94.67165,94.76957,62,70,0
94.77165,94.86957,64,70,0
94.87165,95.069565,61,70,0
95.47165,96.069565,52,70,0
95.47165,96.069565,61,70,0
96.07165,96.66956,50,72,0
96.07165,96.66956,59,72,0
96.67165,97.069565,54,75,0
96.67165,97.069565,62,75,0
97.07165,97.26957,52,77,0
97.07165,97.26957,61,77,0
97.27165,97.86957,52,78,0
97.27165,97.86957,61,78,0
97.87165,98.46957,61,81,0
97.87165,98.46957,64,81,0
98.47165,99.069565,59,84,0
98.47165,99.069565,62,84,0
99.07165,99.46957,62,87,0
99.07165,99.46957,66,87,0
99.47165,99.66956,64,89,0
99.47165,99.66956,61,89,0
99.67165,100.26957,57,90,0
99.67165,100.26957,61,90,0
100.27165,100.46957,52,92,0
100.27165,100.46957,61,92,0
100.47165,100.66956,52,93,0
100.47165,100.66956,61,93,0
100.67165,100.86957,50,94,0
100.67165,100.86957,59,94,0
100.87165,101.069565,50,95,0
100.87165,101.069565,59,95,0
101.07165,101.26957,50,96,0
101.07165,101.26957,59,96,0
101.27165,101.46957,52,97,0
101.27165,101.46957,61,97,0
101.47165,101.66956,54,98,0
101.47165,101.66956,62,98,0
101.67165,101.86957,54,99,0
101.67165,101.86957,62,99,0
101.87165,102.069565,52,100,0
101.87165,102.069565,61,100,0
102.07165,102.26957,52,110,0
102.07165,102.26957,61,110,0
102.27165,102.46957,52,110,0
102.27165,102.46957,61,110,0
102.47165,102.66956,59,110,0
102.47165,102.66956,62,110,0
102.67165,102.86957,61,110,0
102.67165,102.86957,64,110,0
102.87165,103.069565,61,110,0
102.87165,103.069565,64,110,0
103.07165,103.26957,59,110,0
103.07165,103.26957,62,110,0
103.27165,103.46957,59,110,0
103.27165,103.46957,62,110,0
103.47165,103.66956,59,110,0
103.47165,103.66956,62,110,0
103.67165,103.86957,61,110,0
103.67165,103.86957,64,110,0
103.87165,104.069565,62,110,0
103.87165,104.069565,66,110,0
104.07165,104.26957,62,110,0
104.07165,104.26957,66,110,0
104.27165,104.46957,61,110,0
104.27165,104.46957,64,110,0
104.47165,104.66956,57,110,0
104.47165,104.66956,61,110,0
104.67165,104.86957,62,110,0
104.67165,104.86957,66,110,0
104.87165,105.069565,61,110,0
104.87165,105.069565,64,110,0
105.07165,105.26957,57,125,0
105.07165,105.26957,61,125,0
105.27165,105.46957,62,110,0
105.27165,105.46957,66,110,0
105.47165,105.66956,61,110,0
105.47165,105.66956,64,110,0
105.67165,105.86957,57,125,0
105.67165,105.86957,61,125,0
105.87165,106.069565,62,110,0
105.87165,106.069565,66,110,0
106.07165,106.26957,61,110,0
106.07165,106.26957,64,110,0
106.27165,106.46957,57,125,0
106.27165,106.46957,61,125,0
106.47165,106.66956,62,110,0
106.47165,106.66956,66,110,0
106.67165,106.86957,61,110,0
106.67165,106.86957,64,110,0
106.87165,107.069565,57,110,0
106.87165,107.069565,61,110,0
107.47165,107.66956,52,97,0
107.47165,107.66956,57,97,0
107.47165,107.66956,61,97,0
108.07165,108.273605,52,88,0
108.07165,108.273605,57,88,0
108.07165,108.273605,61,88,0
108.68389,108.891495,52,79,0
108.68389,108.891495,57,79,0
108.68389,108.891495,61,79,0
109.31326,109.52087,52,70,0
109.31326,109.52087,57,70,0
109.31326,109.52087,61,70,0
109.73284,109.940445,35,68,0
109.942635,110.15024,33,66,0
110.36221,110.56982,35,64,0
110.57201,110.77961,33,62,0
110.991585,111.19919,35,59,0
111.20137,111.40898,33,58,0
111.62096,111.82856,35,55,0
111.83074,112.038345,33,54,0
112.87969,113.087296,35,50,0
113.089485,113.29709,33,50,0
114.138435,114.34604,35,50,0
114.34822,114.555824,33,50,0
116.8657,117.057236,57,70,0
116.8657,117.057236,60,70,0
117.44635,117.63788,57,70,0
117.44635,117.63788,60,70,0
118.02699,118.21852,52,70,0
118.02699,118.21852,56,70,0
118.02699,118.21852,59,70,0
118.220535,118.41207,52,70,0
118.220535,118.41207,56,70,0
118.220535,118.41207,59,70,0
118.414085,118.60562,52,70,0
118.414085,118.60562,56,70,0
118.414085,118.60562,59,70,0
118.607635,118.799164,57,70,0
118.607635,118.799164,60,70,0
119.18828,119.379814,55,70,0
119.18828,119.379814,59,70,0
119.18828,119.379814,62,70,0
119.76892,119.96046,60,70,0
119.76892,119.96046,64,70,0
120.15602,120.34755,55,70,0
120.15602,120.34755,59,70,0
120.34956,120.5411,57,70,0
120.34956,120.5411,60,70,0
120.54311,120.73465,52,70,0
120.54311,120.73465,56,70,0
120.736664,120.92819,45,70,0
120.736664,120.92819,57,70,0
120.930214,121.12174,52,70,0
120.930214,121.12174,56,70,0
121.12376,121.31529,45,70,0
121.12376,121.31529,57,70,0
121.51086,121.702385,45,70,0
121.51086,121.702385,48,70,0
121.51086,121.702385,52,70,0
122.0915,122.28303,45,70,0
122.0915,122.28303,48,70,0
122.0915,122.28303,52,70,0
122.67214,122.86368,40,70,0
122.67214,122.86368,52,70,0
122.86569,123.05722,40,70,0
122.86569,123.05722,52,70,0
123.05924,123.25077,40,70,0
123.05924,123.25077,52,70,0
123.252785,123.44432,45,70,0
123.252785,123.44432,48,70,0
123.252785,123.44432,52,70,0
123.252785,123.44432,57,70,0
123.83343,124.02496,43,70,0
123.83343,124.02496,47,70,0
123.83343,124.02496,50,70,0
123.83343,124.02496,55,70,0
124.41408,124.605606,48,70,0
124.41408,124.605606,52,70,0
124.41408,124.605606,55,70,0
124.41408,124.605606,60,70,0
124.80117,124.99271,55,70,0
124.99472,125.18625,57,70,0
125.18827,125.3798,52,70,0
125.38181,125.57335,45,70,0
125.57536,125.76689,52,70,0
125.76891,125.96044,45,70,0
126.156006,126.34754,50,110,0
126.156006,126.34754,53,110,0
126.156006,126.34754,57,110,0
126.156006,126.34754,62,110,0
126.73665,126.928185,55,110,0
126.73665,126.928185,59,110,0
126.73665,126.928185,62,110,0
127.31729,127.50883,60,70,0
127.51084,127.70238,55,70,0
127.70439,127.89592,48,70,0
127.89794,128.08948,55,70,0
128.09149,128.28302,48,70,0
128.47858,128.67012,50,110,0
128.47858,128.67012,53,110,0
128.47858,128.67012,59,110,0
129.05923,129.25076,52,110,0
129.05923,129.25076,56,110,0
129.05923,129.25076,59,110,0
129.63988,129.8314,57,70,0
129.83342,130.02495,52,70,0
130.02696,130.2185,45,70,0
130.22052,130.41205,52,70,0
130.41406,130.60559,45,70,0
130.80116,130.99269,50,110,0
130.80116,130.99269,53,110,0
130.80116,130.99269,57,110,0
130.80116,130.99269,62,110,0
131.3818,131.57333,55,110,0
131.3818,131.57333,59,110,0
131.3818,131.57333,62,110,0
131.96245,132.15398,64,110,0
131.96245,132.15398,60,110,0
132.54309,132.73462,58,110,0
132.54309,132.73462,61,110,0
132.54309,132.73462,64,110,0
132.54309,132.73462,67,110,0
133.12373,133.32166,59,110,0
133.12373,133.32166,64,110,0
133.12373,133.32166,67,110,0
133.72374,133.92165,47,110,0
133.72374,133.92165,51,110,0
133.72374,133.92165,54,110,0
133.72374,133.92165,59,110,0
135.49931,136.07794,47,70,0
136.07996,136.65858,39,70,0
136.6606,136.85213,40,70,0
138.98317,139.5618,52,70,0
139.56381,140.14244,44,70,0
140.14445,140.336,45,70,0
141.30576,141.88437,52,70,0
141.30576,141.88437,40,70,0
141.8864,142.46503,44,75,0
141.8864,142.46503,32,75,0
142.46704,143.04567,45,80,0
142.46704,143.04567,33,80,0
143.04768,143.62631,43,85,0
143.04768,143.62631,31,85,0
143.62833,144.20695,42,90,0
143.62833,144.20695,30,90,0
144.20897,144.7876,48,95,0
144.20897,144.7876,36,95,0
144.78961,145.36824,47,100,0
144.78961,145.36824,35,100,0
145.37025,145.94888,52,105,0
145.37025,145.94888,40,105,0
145.9509,146.14243,52,110,0
145.9509,146.14243,40,110,0
146.14445,146.33598,43,110,0
146.338,146.52953,48,110,0
146.53154,146.72308,41,110,0
146.7251,146.91663,45,110,0
146.91864,147.11017,50,110,0
147.11218,147.30373,43,110,0
147.30574,147.49977,48,110,0
147.50182,147.69585,52,110,0
148.28613,148.48404,43,110,0
148.48613,148.69087,50,110,0
148.69302,148.94041,43,110,0
148.69302,148.94041,50,110,0
148.69302,148.94041,53,110,0
149.64302,149.83455,60,70,0
149.64302,149.83455,64,70,0
150.22366,150.41519,60,70,0
150.22366,150.41519,64,70,0
150.8043,150.99583,55,70,0
150.8043,150.99583,59,70,0
150.8043,150.99583,62,70,0
150.8043,150.99583,65,70,0
150.99786,151.18939,55,70,0
150.99786,151.18939,59,70,0
150.99786,151.18939,62,70,0
150.99786,151.18939,65,70,0
151.1914,151.38293,55,70,0
151.1914,151.38293,59,70,0
151.1914,151.38293,62,70,0
151.1914,151.38293,65,70,0
151.38495,151.57649,64,70,0
151.38495,151.57649,60,70,0
151.77205,151.96358,43,70,0
151.77205,151.96358,53,70,0
151.96559,152.15714,43,70,0
151.96559,152.15714,53,70,0
152.15915,152.35068,43,70,0
152.15915,152.35068,53,70,0
152.35269,152.54422,43,70,0
152.35269,152.54422,53,70,0
152.54625,152.73778,48,70,0
152.54625,152.73778,52,70,0
153.12689,153.31842,52,70,0
153.12689,153.31842,56,70,0
153.12689,153.31842,59,70,0
153.12689,153.31842,62,70,0
153.32043,153.51196,52,70,0
153.32043,153.51196,56,70,0
153.32043,153.51196,59,70,0
153.32043,153.51196,62,70,0
153.51398,153.70552,52,70,0
153.51398,153.70552,56,70,0
153.51398,153.70552,59,70,0
153.51398,153.70552,62,70,0
153.70753,153.89906,52,70,0
153.70753,153.89906,57,70,0
153.70753,153.89906,60,70,0
154.09462,154.28616,40,70,0
154.09462,154.28616,52,70,0
154.28818,154.4797,40,70,0
154.28818,154.4797,52,70,0
154.48172,154.67325,40,70,0
154.48172,154.67325,52,70,0
154.67526,154.8668,40,70,0
154.67526,154.8668,52,70,0
154.86882,155.06035,45,70,0
154.86882,155.06035,52,70,0
155.44946,155.64099,52,70,0
155.44946,155.64099,56,70,0
155.44946,155.64099,59,70,0
156.0301,156.22163,52,70,0
156.0301,156.22163,57,70,0
156.0301,156.22163,60,70,0
156.61075,156.80228,52,70,0
156.61075,156.80228,54,70,0
156.61075,156.80228,57,70,0
157.19139,157.38292,52,70,0
157.19139,157.38292,56,70,0
157.19139,157.38292,59,70,0
157.77203,157.96358,52,70,0
157.77203,157.96358,56,70,0
157.77203,157.96358,59,70,0
158.35268,158.54422,52,70,0
158.35268,158.54422,57,70,0
158.35268,158.54422,60,70,0
158.93332,159.12486,52,70,0
158.93332,159.12486,54,70,0
158.93332,159.12486,57,70,0
159.51398,159.7055,52,70,0
159.51398,159.7055,56,70,0
159.51398,159.7055,59,70,0
160.09462,160.28615,45,70,0
160.09462,160.28615,48,70,0
160.09462,160.28615,52,70,0
160.09462,160.28615,57,70,0
160.67526,160.86679,40,70,0
160.67526,160.86679,44,70,0
160.67526,160.86679,47,70,0
160.67526,160.86679,52,70,0
161.2559,161.44743,33,70,0
161.2559,161.44743,36,70,0
161.2559,161.44743,40,70,0
161.2559,161.44743,45,70,0
161.83655,162.02808,40,70,0
161.83655,162.02808,44,70,0
161.83655,162.02808,47,70,0
161.83655,162.02808,52,70,0
164.07095,164.26888,45,110,0
164.17096,164.26888,52,110,0
164.27095,164.46887,45,110,0
164.37096,164.56886,52,110,0
164.47095,164.66887,48,110,0
164.57095,164.76572,52,110,0
164.67096,164.86249,45,110,0
164.76773,164.86249,52,110,0
164.8645,165.05603,45,110,0
164.96127,165.1528,52,110,0
165.05804,165.24957,48,110,0
165.15482,165.34636,52,110,0
165.2516,165.44313,40,110,0
165.34837,165.44313,52,110,0
165.44514,165.63667,40,110,0
165.54192,165.73344,52,110,0
165.63869,165.83023,47,110,0
165.73546,165.927,52,110,0
165.83224,166.02377,40,110,0
165.92902,166.02377,52,110,0
166.02579,166.21732,45,110,0
166.12256,166.31409,52,110,0
166.21933,166.41087,48,110,0
166.31612,166.50764,52,110,0
166.41289,166.60442,43,110,0
166.50966,166.60442,47,110,0
166.60643,166.79796,43,110,0
166.7032,166.89474,47,110,0
166.79997,166.99152,50,110,0
166.89676,167.08829,53,110,0
166.99353,167.18506,48,110,0
167.0903,167.18506,52,110,0
167.18707,167.3786,48,110,0
167.28384,167.47539,52,110,0
167.38063,167.57216,55,110,0
167.4774,167.66893,60,110,0
167.57417,167.7657,43,110,0
167.67094,167.7657,47,110,0
167.76772,167.95926,43,110,0
167.86449,168.05603,47,110,0
167.96127,168.1528,50,110,0
168.05804,168.24957,53,110,0
168.15482,168.34634,43,110,0
168.25159,168.34634,55,110,0
168.34836,168.5399,48,110,0
168.44514,168.63667,52,110,0
168.54192,168.73344,48,110,0
168.63869,168.83022,52,110,0
168.73546,168.92699,40,110,0
168.83223,168.92699,44,110,0
168.929,169.12054,40,110,0
169.02579,169.21732,44,110,0
169.12256,169.31409,47,110,0
169.21933,169.41086,50,110,0
169.3161,169.50763,45,110,0
169.41287,169.50763,48,110,0
169.50966,169.70119,45,110,0
169.60643,169.79796,48,110,0
169.7032,169.89473,52,110,0
169.79997,169.9915,57,110,0
169.89674,170.08829,40,110,0
169.99352,170.08829,44,110,0
170.0903,170.28183,40,110,0
170.18707,170.3786,44,110,0
170.28384,170.47537,47,110,0
170.38062,170.57214,50,110,0
170.47739,170.66893,40,110,0
170.57417,170.66893,50,110,0
170.67094,170.86247,45,110,0
170.76772,170.95924,48,110,0
170.86449,171.05602,52,110,0
170.96126,171.15279,57,110,0
171.05803,171.24957,50,110,0
171.15482,171.24957,53,110,0
171.25159,171.44312,52,110,0
171.34836,171.53989,57,110,0
171.44513,171.63666,56,110,0
171.5419,171.73344,57,110,0
171.63869,171.83022,40,110,0
171.73546,171.83022,52,110,0
171.83223,172.02376,45,110,0
171.929,172.12053,48,110,0
172.02577,172.2173,52,110,0
172.12254,172.31409,57,110,0
172.21933,172.41086,50,110,0
172.3161,172.41086,53,110,0
172.41287,172.6044,52,110,0
172.50964,172.70117,57,110,0
172.60641,172.79796,56,110,0
172.7032,172.89473,57,110,0
172.79997,172.9915,40,110,0
172.89674,172.9915,52,110,0
172.99352,173.18504,45,110,0
173.09029,173.28181,52,110,0
173.18706,173.3786,48,110,0
173.28384,173.47537,52,110,0
173.38062,173.57214,40,110,0
173.47739,173.57214,52,110,0
173.57416,173.76569,45,110,0
173.67093,173.86247,52,110,0
173.76772,173.95924,48,110,0
173.86449,174.05602,52,110,0
173.96126,174.15279,40,110,0
174.05803,174.15279,52,110,0
174.1548,174.34633,45,110,0
174.25157,174.44312,52,110,0
174.34836,174.53989,48,110,0
174.44513,174.63666,52,110,0
174.5419,174.73343,40,110,0
174.63867,174.73343,52,110,0
174.73544,174.92699,45,110,0
174.83223,175.02376,52,110,0
174.929,175.12053,48,110,0
175.02577,175.2173,52,110,0
175.12254,175.31407,40,110,0
175.21931,175.31407,52,110,0
175.31609,175.50763,45,110,0
175.50964,175.70117,40,107,0
175.60641,175.79794,45,105,0
175.70319,175.89471,33,104,0
175.79996,175.9915,45,102,0
175.89673,176.08827,40,100,0
175.99352,176.18504,45,99,0
176.09029,176.28181,33,97,0
176.18706,176.37859,45,95,0
176.28383,176.47536,40,93,0
176.3806,176.57214,45,92,0
176.47739,176.66891,33,90,0
176.57416,176.76569,45,88,0
176.67093,176.86246,40,87,0
176.7677,176.95923,45,85,0
176.86447,177.05602,33,83,0
176.96124,177.15279,45,81,0
177.05803,177.24956,40,80,0
177.1548,177.34633,45,78,0
177.25157,177.4431,33,76,0
177.34834,177.53987,45,75,0
177.44511,177.63666,40,73,0
177.5419,177.73343,45,71,0
177.63867,177.8302,33,70,0
178.02576,178.2173,35,70,0
178.21931,178.41084,33,70,0
178.60641,178.79794,35,70,0
178.79996,178.99149,33,70,0
179.18706,179.37859,35,70,0
179.3806,179.57213,33,70,0
179.7677,179.95923,35,70,0
179.96124,180.15527,33,70,0
180.3534,180.54744,35,70,0
180.54948,180.74739,33,70,0
180.94948,181.1474,35,70,0
181.14948,181.3474,33,70,0
181.54948,181.74739,35,70,0
181.74948,181.94739,33,70,0
182.14948,182.3474,35,70,0
182.34947,182.5474,33,70,0
182.74948,182.94739,35,70,0
182.94948,183.1474,33,70,0
183.34947,183.5474,35,70,0
183.54948,183.74739,33,70,0
183.94948,184.1474,35,70,0
184.14948,184.3474,33,70,0
184.54948,184.74739,35,70,0
184.74948,184.8474,33,70,0
184.84947,184.94739,35,70,0
184.94948,185.0474,33,70,0
185.04948,185.1474,35,70,0
185.14948,185.24739,33,70,0
185.24948,185.3474,35,70,0
185.34947,185.44739,33,70,0
185.44948,185.5474,35,70,0
185.54948,185.6474,33,70,0
185.64948,185.74739,35,70,0
185.74948,185.8474,33,70,0
185.84947,185.94739,35,70,0
185.94948,186.0474,33,70,0
186.04948,186.1474,35,70,0
186.14948,186.24739,33,70,0
186.24948,186.3474,35,70,0
186.34947,186.44739,33,70,0
186.44948,186.5474,35,70,0
186.54948,186.6474,33,70,0
186.64948,186.74739,35,70,0
186.74948,186.8474,33,70,0
186.84947,186.94739,35,70,0
186.94948,187.0474,33,70,0
187.04948,187.1474,35,70,0
187.14948,187.24739,33,70,0
187.24948,187.3474,35,70,0
187.34947,187.44739,33,70,0
187.44948,187.5474,35,70,0
187.54948,187.6474,33,70,0
187.64948,187.74739,35,70,0
187.74948,187.8474,33,70,0
187.84947,187.94739,35,70,0
187.94948,188.0474,33,70,0
188.04948,188.1474,35,70,0
188.14948,188.24739,33,70,0
188.24948,188.3474,35,70,0
188.34947,188.44739,33,70,0
188.44948,188.5474,35,70,0
188.54948,188.6474,33,70,0
188.64948,188.74739,35,70,0
188.74948,188.8474,33,70,0
188.84947,188.94739,35,70,0
188.94948,189.0474,33,70,0
189.04948,189.1474,35,70,0
189.14948,189.24739,33,70,0
189.24948,189.3474,35,70,0
189.34947,189.44739,33,70,0
189.44948,189.5474,35,70,0
189.54948,189.74739,33,70,0
189.94948,190.1474,35,70,0
190.14948,190.3474,33,70,0
190.54948,190.74739,35,70,0
190.74948,190.94739,33,70,0
191.14948,191.3474,35,70,0
191.34947,191.5474,33,70,0
191.74948,191.94739,35,70,0
191.94948,192.1474,33,70,0
192.34947,192.5474,35,70,0
192.54948,192.74739,33,70,0
192.94948,193.1474,35,70,0
193.14948,193.3474,33,70,0
193.54948,193.74739,35,70,0
193.74948,193.94739,33,70,0
194.14948,194.3474,35,70,0
194.34947,194.44739,33,70,0
194.44948,194.5474,35,70,0
194.54948,194.6474,33,70,0
194.64948,194.74739,35,70,0
194.74948,194.8474,33,70,0
194.84947,194.94739,35,70,0
194.94948,195.0474,33,70,0
195.04948,195.1474,35,70,0
195.14948,195.24739,33,70,0
195.24948,195.3474,35,70,0
195.34947,195.44739,33,70,0
195.44948,195.5474,35,70,0
195.54948,195.6474,33,70,0
195.64948,195.74739,35,70,0
195.74948,195.8474,33,70,0
195.84947,195.94739,35,70,0
195.94948,196.0474,33,70,0
196.04948,196.1474,35,70,0
196.14948,196.24739,33,70,0
196.24948,196.3474,35,70,0
196.34947,196.44739,33,70,0
196.44948,196.5474,35,70,0
196.54948,196.6474,33,70,0
196.64948,196.74739,35,70,0
196.74948,196.8474,33,70,0
196.84947,196.94739,35,70,0
196.94948,197.0474,33,70,0
197.04948,197.1474,35,70,0
197.14948,197.24739,33,70,0
197.24948,197.3474,35,70,0
197.34947,197.44739,33,70,0
197.44948,197.5474,35,70,0
197.54948,197.6474,33,70,0
197.64948,197.74739,35,70,0
197.74948,197.8474,33,70,0
197.84947,197.94739,35,70,0
197.94948,198.0474,33,70,0
198.04948,198.1474,35,70,0
198.14948,198.24739,33,70,0
198.24948,198.3474,35,70,0
198.34947,198.44739,33,70,0
198.44948,198.5474,35,70,0
198.54948,198.6474,33,70,0
198.64948,198.74739,35,70,0
198.74948,198.8474,33,70,0
198.84947,198.94739,35,70,0
198.94948,199.0474,33,70,0
199.04948,199.1474,35,70,0
199.14948,199.3474,33,70,0
199.74948,200.3474,68,70,0
199.74948,200.3474,64,70,0
200.34947,200.94739,63,70,0
200.34947,200.94739,66,70,0
200.94948,201.3474,66,70,0
200.94948,201.3474,69,70,0
201.34947,201.5474,64,70,0
201.34947,201.5474,68,70,0
201.54948,202.1474,64,70,0
201.54948,202.1474,68,70,0
202.14948,202.74739,64,70,0
202.14948,202.74739,68,70,0
202.74948,203.3474,63,78,0
202.74948,203.3474,66,78,0
203.34947,203.74739,66,86,0
203.34947,203.74739,69,86,0
203.74948,203.94739,64,91,0
203.74948,203.94739,68,91,0
203.94948,204.5474,64,94,0
203.94948,204.5474,68,94,0
204.54948,204.74739,64,110,0
204.54948,204.74739,68,110,0
204.74948,204.94739,64,110,0
204.74948,204.94739,68,110,0
204.94948,205.1474,64,110,0
204.94948,205.1474,68,110,0
205.14948,205.3474,59,110,0
205.14948,205.3474,63,110,0
205.14948,205.3474,66,110,0
205.34947,205.5474,59,110,0
205.34947,205.5474,63,110,0
205.34947,205.5474,66,110,0
205.54948,205.74739,59,110,0
205.54948,205.74739,63,110,0
205.54948,205.74739,66,110,0
205.74948,205.94739,47,110,0
205.74948,205.94739,51,110,0
205.74948,205.94739,54,110,0
205.74948,205.94739,59,110,0
205.94948,206.1474,47,110,0
205.94948,206.1474,51,110,0
205.94948,206.1474,54,110,0
205.94948,206.1474,59,110,0
206.14948,206.3474,47,110,0
206.14948,206.3474,51,110,0
206.14948,206.3474,54,110,0
206.14948,206.3474,59,110,0
206.94948,207.1474,52,70,0
206.94948,207.1474,56,70,0
206.94948,207.1474,59,70,0
206.94948,207.1474,62,70,0
207.14948,207.3474,52,70,0
207.14948,207.3474,56,70,0
207.14948,207.3474,59,70,0
207.14948,207.3474,62,70,0
207.34947,207.5474,52,70,0
207.34947,207.5474,56,70,0
207.34947,207.5474,59,70,0
207.34947,207.5474,62,70,0
209.94948,210.0474,64,70,0
210.04948,210.1474,66,70,0
210.14948,210.24739,64,70,0
210.24948,210.3474,66,70,0
210.34947,210.44739,64,70,0
210.44948,210.5474,66,70,0
210.54948,210.6474,62,70,0
210.64948,210.74739,64,70,0
210.74948,210.8474,62,70,0
210.84947,210.94739,64,70,0
210.94948,211.0474,62,70,0
211.04948,211.1474,64,70,0
211.14948,211.3474,61,70,0
211.74948,212.3474,52,70,0
211.74948,212.3474,61,70,0
212.34947,212.94739,50,72,0
212.34947,212.94739,59,72,0
212.94948,213.3474,54,75,0
212.94948,213.3474,62,75,0
213.34947,213.5474,52,77,0
213.34947,213.5474,61,77,0
213.54948,214.1474,52,78,0
213.54948,214.1474,61,78,0
214.14948,214.74739,61,81,0
214.14948,214.74739,64,81,0
214.74948,215.3474,59,84,0
214.74948,215.3474,62,84,0
215.34947,215.74739,62,87,0
215.34947,215.74739,66,87,0
215.74948,215.94739,64,89,0
215.74948,215.94739,61,89,0
215.94948,216.5474,57,90,0
215.94948,216.5474,61,90,0
216.54948,216.74739,52,92,0
216.54948,216.74739,61,92,0
216.74948,216.94739,52,93,0
216.74948,216.94739,61,93,0
216.94948,217.1474,50,94,0
216.94948,217.1474,59,94,0
217.14948,217.3474,50,95,0
217.14948,217.3474,59,95,0
217.34947,217.5474,50,96,0
217.34947,217.5474,59,96,0
217.54948,217.74739,52,97,0
217.54948,217.74739,61,97,0
217.74948,217.94739,54,98,0
217.74948,217.94739,62,98,0
217.94948,218.1474,54,99,0
217.94948,218.1474,62,99,0
218.14948,218.3474,52,100,0
218.14948,218.3474,61,100,0
218.34947,218.5474,52,110,0
218.34947,218.5474,61,110,0
218.54948,218.74739,52,110,0
218.54948,218.74739,61,110,0
218.74948,218.94739,59,110,0
218.74948,218.94739,62,110,0
218.94948,219.1474,61,110,0
218.94948,219.1474,64,110,0
219.14948,219.3474,61,110,0
219.14948,219.3474,64,110,0
219.34947,219.5474,59,110,0
219.34947,219.5474,62,110,0
219.54948,219.74739,59,110,0
219.54948,219.74739,62,110,0
219.74948,219.94739,59,110,0
219.74948,219.94739,62,110,0
219.94948,220.1474,61,110,0
219.94948,220.1474,64,110,0
220.14948,220.3474,62,110,0
220.14948,220.3474,66,110,0
220.34947,220.5474,62,110,0
220.34947,220.5474,66,110,0
220.54948,220.74739,61,110,0
220.54948,220.74739,64,110,0
220.74948,220.94739,57,110,0
220.74948,220.94739,61,110,0
220.94948,221.1474,62,110,0
220.94948,221.1474,66,110,0
221.14948,221.3474,61,110,0
221.14948,221.3474,64,110,0
221.34947,221.5474,57,125,0
221.34947,221.5474,61,125,0
221.54948,221.74739,62,110,0
221.54948,221.74739,66,110,0
221.74948,221.94739,61,110,0
221.74948,221.94739,64,110,0
221.94948,222.1474,57,125,0
221.94948,222.1474,61,125,0
222.14948,222.3474,62,110,0
222.14948,222.3474,66,110,0
222.34947,222.5474,61,110,0
222.34947,222.5474,64,110,0
222.54948,222.74739,57,125,0
222.54948,222.74739,61,125,0
222.74948,222.94739,62,110,0
222.74948,222.94739,66,110,0
222.94948,223.1474,61,110,0
222.94948,223.1474,64,110,0
223.14948,223.3474,57,110,0
223.14948,223.3474,61,110,0
223.74948,223.94739,52,97,0
223.74948,223.94739,57,97,0
223.74948,223.94739,61,97,0
224.34947,224.5474,52,88,0
224.34947,224.5474,57,88,0
224.34947,224.5474,61,88,0
224.94948,225.1474,52,79,0
224.94948,225.1474,57,79,0
224.94948,225.1474,61,79,0
225.54948,225.74739,52,70,0
225.54948,225.74739,57,70,0
225.54948,225.74739,61,70,0
225.94948,226.1474,35,68,0
226.14948,226.3474,33,66,0
226.54948,226.74739,35,64,0
226.74948,226.94739,33,62,0
227.14948,227.3474,35,59,0
227.34947,227.5474,33,58,0
227.74948,227.94739,35,55,0
227.94948,228.1474,33,54,0
228.94948,229.1474,35,50,0
229.14948,229.3474,33,50,0
230.14948,230.3474,35,50,0
230.34947,230.5474,33,50,0
232.79552,232.99344,57,70,0
232.79552,232.99344,60,70,0
233.38539,233.57329,57,70,0
233.38539,233.57329,60,70,0
233.95502,234.14291,52,70,0
233.95502,234.14291,56,70,0
233.95502,234.14291,59,70,0
234.14488,234.33278,52,70,0
234.14488,234.33278,56,70,0
234.14488,234.33278,59,70,0
234.33476,234.52266,52,70,0
234.33476,234.52266,56,70,0
234.33476,234.52266,59,70,0
234.52463,234.71252,57,70,0
234.52463,234.71252,60,70,0
235.09425,235.28215,55,70,0
235.09425,235.28215,59,70,0
235.09425,235.28215,62,70,0
235.66386,235.85176,60,70,0
235.66386,235.85176,64,70,0
236.04361,236.2315,55,70,0
236.04361,236.2315,59,70,0
236.23349,236.42139,57,70,0
236.23349,236.42139,60,70,0
236.42337,236.61125,52,70,0
236.42337,236.61125,56,70,0
236.61324,236.80113,45,70,0
236.61324,236.80113,57,70,0
236.80312,236.991,52,70,0
236.80312,236.991,56,70,0
236.99298,237.18088,45,70,0
236.99298,237.18088,57,70,0
237.37273,237.56062,45,70,0
237.37273,237.56062,48,70,0
237.37273,237.56062,52,70,0
237.94235,238.13025,45,70,0
237.94235,238.13025,48,70,0
237.94235,238.13025,52,70,0
238.51196,238.69986,40,70,0
238.51196,238.69986,52,70,0
238.70184,238.88974,40,70,0
238.70184,238.88974,52,70,0
238.89171,239.0796,40,70,0
238.89171,239.0796,52,70,0
239.08159,239.26949,45,70,0
239.08159,239.26949,48,70,0
239.08159,239.26949,52,70,0
239.08159,239.26949,57,70,0
239.6512,239.8391,43,70,0
239.6512,239.8391,47,70,0
239.6512,239.8391,50,70,0
239.6512,239.8391,55,70,0
240.22083,240.40872,48,70,0
240.22083,240.40872,52,70,0
240.22083,240.40872,55,70,0
240.22083,240.40872,60,70,0
240.60057,240.78847,55,70,0
240.79044,240.97833,57,70,0
240.98032,241.16821,52,70,0
241.17018,241.35808,45,70,0
241.36006,241.54796,52,70,0
241.54993,241.73782,45,70,0
241.92969,242.11757,50,110,0
241.92969,242.11757,53,110,0
241.92969,242.11757,57,110,0
241.92969,242.11757,62,110,0
242.4993,242.6872,55,110,0
242.4993,242.6872,59,110,0
242.4993,242.6872,62,110,0
243.06892,243.25682,60,70,0
243.25879,243.44669,55,70,0
243.44867,243.63657,48,70,0
243.63853,243.82643,55,70,0
243.82841,244.01631,48,70,0
244.20816,244.39606,50,110,0
244.20816,244.39606,53,110,0
244.20816,244.39606,59,110,0
244.77777,244.96567,52,110,0
244.77777,244.96567,56,110,0
244.77777,244.96567,59,110,0
245.3474,245.5353,57,70,0
245.53726,245.72516,52,70,0
245.72714,245.91504,45,70,0
245.917,246.1049,52,70,0
246.10689,246.29478,45,70,0
246.48663,246.67453,50,110,0
246.48663,246.67453,53,110,0
246.48663,246.67453,57,110,0
246.48663,246.67453,62,110,0
247.05624,247.24414,55,110,0
247.05624,247.24414,59,110,0
247.05624,247.24414,62,110,0
247.62587,247.81377,64,110,0
247.62587,247.81377,60,110,0
248.1955,248.38338,58,110,0
248.1955,248.38338,61,110,0
248.1955,248.38338,64,110,0
248.1955,248.38338,67,110,0
248.7651,248.95914,59,110,0
248.7651,248.95914,64,110,0
248.7651,248.95914,67,110,0
249.35335,249.55809,47,110,0
249.35335,249.55809,51,110,0
249.35335,249.55809,54,110,0
249.35335,249.55809,59,110,0
251.10637,251.67401,47,70,0
251.676,252.24364,39,70,0
252.2456,252.4335,40,70,0
254.5241,255.09172,52,70,0
255.0937,255.66135,44,70,0
255.66333,255.85121,45,70,0
256.80255,257.3702,52,70,0
256.80255,257.3702,40,70,0
257.3722,257.93982,44,75,0
257.3722,257.93982,32,75,0
257.9418,258.50943,45,80,0
257.9418,258.50943,33,80,0
258.5114,259.07907,43,85,0
258.5114,259.07907,31,85,0
259.08102,259.64868,42,90,0
259.08102,259.64868,30,90,0
259.65067,260.2183,48,95,0
259.65067,260.2183,36,95,0
260.22028,260.7879,47,100,0
260.22028,260.7879,35,100,0
260.7899,261.35754,52,105,0
260.7899,261.35754,40,105,0
261.35953,261.54742,52,110,0
261.35953,261.54742,40,110,0
261.54938,261.73727,43,110,0
261.73926,261.92715,48,110,0
261.92914,262.11703,41,110,0
262.11902,262.30692,45,110,0
262.30887,262.49677,50,110,0
262.49875,262.68665,43,110,0
262.68863,262.87653,48,110,0
262.8785,263.07004,52,110,0
263.65268,263.85062,43,110,0
263.8527,264.05743,50,110,0
264.0596,264.30698,43,110,0
264.0596,264.30698,50,110,0
264.0596,264.30698,53,110,0
265.00958,265.19748,60,70,0
265.00958,265.19748,64,70,0
265.5792,265.7671,60,70,0
265.5792,265.7671,64,70,0
266.14883,266.33673,55,70,0
266.14883,266.33673,59,70,0
266.14883,266.33673,62,70,0
266.14883,266.33673,65,70,0
266.33868,266.52658,55,70,0
266.33868,266.52658,59,70,0
266.33868,266.52658,62,70,0
266.33868,266.52658,65,70,0
266.52856,266.71646,55,70,0
266.52856,266.71646,59,70,0
266.52856,266.71646,62,70,0
266.52856,266.71646,65,70,0
266.71844,266.90634,64,70,0
266.71844,266.90634,60,70,0
267.09818,267.28607,43,70,0
267.09818,267.28607,53,70,0
267.28806,267.47595,43,70,0
267.28806,267.47595,53,70,0
267.47794,267.66583,43,70,0
267.47794,267.66583,53,70,0
267.66782,267.8557,43,70,0
267.66782,267.8557,53,70,0
267.85767,268.04556,48,70,0
267.85767,268.04556,52,70,0
268.42975,268.62003,52,70,0
268.42975,268.62003,56,70,0
268.42975,268.62003,59,70,0
268.42975,268.62003,62,70,0
268.62204,268.81235,52,70,0
268.62204,268.81235,56,70,0
268.62204,268.81235,59,70,0
268.62204,268.81235,62,70,0
268.81436,269.00464,52,70,0
268.81436,269.00464,56,70,0
268.81436,269.00464,59,70,0
268.81436,269.00464,62,70,0
269.00665,269.19696,52,70,0
269.00665,269.19696,57,70,0
269.00665,269.19696,60,70,0
269.39127,269.5853,40,70,0
269.39127,269.5853,52,70,0
269.58734,269.78528,40,70,0
269.58734,269.78528,52,70,0
269.78735,269.98526,40,70,0
269.78735,269.98526,52,70,0
269.98734,270.18527,40,70,0
269.98734,270.18527,52,70,0
270.18735,270.38525,45,70,0
270.18735,270.38525,52,70,0
270.78735,270.97525,52,70,0
270.78735,270.97525,56,70,0
270.78735,270.97525,59,70,0
271.35696,271.54486,52,70,0
271.35696,271.54486,57,70,0
271.35696,271.54486,60,70,0
271.92657,272.11447,52,70,0
271.92657,272.11447,54,70,0
271.92657,272.11447,57,70,0
272.49622,272.6841,52,70,0
272.49622,272.6841,56,70,0
272.49622,272.6841,59,70,0
273.06583,273.25372,52,70,0
273.06583,273.25372,56,70,0
273.06583,273.25372,59,70,0
273.63544,273.82333,52,70,0
273.63544,273.82333,57,70,0
273.63544,273.82333,60,70,0
274.20505,274.39294,52,70,0
274.20505,274.39294,54,70,0
274.20505,274.39294,57,70,0
274.7747,274.9626,52,70,0
274.7747,274.9626,56,70,0
274.7747,274.9626,59,70,0
275.3443,275.5322,45,70,0
275.3443,275.5322,48,70,0
275.3443,275.5322,52,70,0
275.3443,275.5322,57,70,0
275.9139,276.1018,40,70,0
275.9139,276.1018,44,70,0
275.9139,276.1018,47,70,0
275.9139,276.1018,52,70,0
276.48355,276.67508,33,70,0
276.48355,276.67508,36,70,0
276.48355,276.67508,40,70,0
276.48355,276.67508,45,70,0
277.07065,277.26855,40,70,0
277.07065,277.26855,44,70,0
277.07065,277.26855,47,70,0
277.07065,277.26855,52,70,0
279.3199,279.52463,45,110,0
279.42334,279.52463,52,110,0
279.5268,279.7147,45,110,0
279.62173,279.80963,52,110,0
279.71667,279.90454,48,110,0
279.81158,279.99948,52,110,0
279.90652,280.09442,45,110,0
280.00146,280.09442,52,110,0
280.0964,280.2843,45,110,0
280.19135,280.37924,52,110,0
280.2863,280.47418,48,110,0
280.38123,280.56912,52,110,0
280.47617,280.66403,40,110,0
280.57108,280.66403,52,110,0
280.66602,280.8539,40,110,0
280.76096,280.94885,52,110,0
280.8559,281.0438,47,110,0
280.95084,281.13873,52,110,0
281.04578,281.23367,40,110,0
281.14072,281.23367,52,110,0
281.23566,281.42355,45,110,0
281.33057,281.51846,52,110,0
281.4255,281.6134,48,110,0
281.52045,281.70834,52,110,0
281.6154,281.80328,43,110,0
281.71033,281.80328,47,110,0
281.80527,281.99316,43,110,0
281.9002,282.0881,47,110,0
281.99515,282.18304,50,110,0
282.09006,282.27795,53,110,0
282.185,282.3729,48,110,0
282.27994,282.3729,52,110,0
282.37488,282.56277,48,110,0
282.46982,282.6577,52,110,0
282.56476,282.75266,55,110,0
282.6597,282.8476,60,110,0
282.75464,282.94254,43,110,0
282.84958,282.94254,47,110,0
282.9445,283.1324,43,110,0
283.03943,283.22733,47,110,0
283.13437,283.32227,50,110,0
283.2293,283.4172,53,110,0
283.32425,283.51215,43,110,0
283.4192,283.51215,55,110,0
283.51413,283.70203,48,110,0
283.60907,283.79697,52,110,0
283.70398,283.89188,48,110,0
283.79892,283.98682,52,110,0
283.89386,284.08176,40,110,0
283.9888,284.08176,44,110,0
284.08374,284.27164,40,110,0
284.17868,284.36658,44,110,0
284.27362,284.46152,47,110,0
284.36856,284.55646,50,110,0
284.46347,284.65137,45,110,0
284.5584,284.65137,48,110,0
284.65335,284.84125,45,110,0
284.7483,284.9362,48,110,0
284.84323,285.03113,52,110,0
284.93817,285.12607,57,110,0
285.0331,285.221,40,110,0
285.12805,285.221,44,110,0
285.223,285.41086,40,110,0
285.3179,285.5058,44,110,0
285.41284,285.60074,47,110,0
285.50778,285.69568,50,110,0
285.60272,285.79062,40,110,0
285.69766,285.79062,50,110,0
285.7926,285.9805,45,110,0
285.88754,286.07544,48,110,0
285.98248,286.17035,52,110,0
286.0774,286.2653,57,110,0
286.17233,286.36023,50,110,0
286.26727,286.36023,53,110,0
286.3622,286.5501,52,110,0
286.45715,286.64505,57,110,0
286.5521,286.74,56,110,0
286.64703,286.83493,57,110,0
286.74197,286.92987,40,110,0
286.83688,286.92987,52,110,0
286.93182,287.11972,45,110,0
287.02676,287.21466,48,110,0
287.1217,287.3096,52,110,0
287.21664,287.40454,57,110,0
287.31158,287.49948,50,110,0
287.40652,287.49948,53,110,0
287.50146,287.68936,52,110,0
287.59637,287.78427,57,110,0
287.6913,287.8792,56,110,0
287.78625,287.97415,57,110,0
287.8812,288.0691,40,110,0
287.97614,288.0691,52,110,0
288.07108,288.25897,45,110,0
288.16602,288.3539,52,110,0
288.26096,288.44885,48,110,0
288.3559,288.54376,52,110,0
288.4508,288.6387,40,110,0
288.54575,288.6387,52,110,0
288.6407,288.82858,45,110,0
288.73563,288.92352,52,110,0
288.83057,289.01846,48,110,0
288.9255,289.1134,52,110,0
289.02045,289.20834,40,110,0
289.1154,289.20834,52,110,0
289.2103,289.3982,45,110,0
289.30524,289.49313,52,110,0
289.40018,289.58807,48,110,0
289.49512,289.683,52,110,0
289.59006,289.77795,40,110,0
289.685,289.77795,52,110,0
289.77994,289.96783,45,110,0
289.87488,290.06277,52,110,0
289.9698,290.15768,48,110,0
290.06473,290.25262,52,110,0
290.15967,290.34756,40,110,0
290.2546,290.34756,52,110,0
290.34955,290.53745,45,110,0
290.53943,290.72733,40,107,0
290.63437,290.82227,45,105,0
290.7293,290.91718,33,104,0
290.82422,291.01212,45,102,0
290.91916,291.10706,40,100,0
291.0141,291.202,45,99,0
291.10904,291.29694,33,97,0
291.20398,291.39188,45,95,0
291.29892,291.48682,40,93,0
291.39386,291.58176,45,92,0
291.4888,291.67667,33,90,0
291.5837,291.7716,45,88,0
291.67865,291.86655,40,87,0
291.7736,291.9615,45,85,0
291.86853,292.05643,33,83,0
291.96347,292.15317,45,81,0
292.0584,292.24994,40,80,0
292.15518,292.3467,45,78,0
292.25195,292.44348,33,76,0
292.34872,292.54025,45,75,0
292.4455,292.63702,40,73,0
292.54227,292.73505,45,71,0
292.63904,292.8331,33,70,0
293.61945,293.81348,35,50,0
293.81552,294.00955,33,50,0
294.7959,294.98993,35,50,0
294.99197,295.18604,33,50,0
297.39603,297.60077,40,50,0
298.01672,298.22147,45,50,0
298.63742,298.84216,47,50,0
299.2581,299.46283,48,50,0
299.87878,300.08353,47,50,0
300.49948,300.70422,45,50,0
301.12018,301.32492,43,50,0
301.74823,301.9603,41,50,0
302.39905,302.61893,40,50,0
303.73236,303.95227,40,50,0
305.09134,305.33875,40,50,0
305.84134,306.12408,40,50,0
306.41278,306.78387,40,50,0
306.78778,307.34637,33,50,0
297.39603,297.60077,52,50,45
298.01672,298.22147,57,50,45
298.63742,298.84216,59,50,45
299.2581,299.46283,60,50,45
299.87878,300.08353,59,50,45
300.49948,300.70422,57,50,45
301.12018,301.32492,55,50,45
301.74823,301.9603,53,50,45
302.39905,302.61893,52,50,45
