start_time,end_time,note_value,velocity,instrument_program_number
0.0,0.47916666,52,1,42
4.0,6.9791665,66,60,42
7.0,8.979167,64,60,42
9.0,9.979167,64,60,42
10.0,10.979167,69,60,42
11.0,11.479167,68,60,42
11.5,11.979167,64,60,42
12.0,13.979167,66,60,42
14.0,15.049107,66,60,42
16.273352,17.788233,66,60,42
17.809065,18.288233,66,60,42
18.309065,18.788233,66,60,42
18.809065,19.288233,64,60,42
19.309065,19.663233,63,60,42
19.809065,20.163233,64,60,42
20.309065,23.288233,64,87,42
23.309065,24.038233,68,84,42
24.059065,24.288233,64,90,42
24.309065,25.288233,63,73,42
25.309065,27.288233,66,60,42
27.309065,28.358173,66,60,42
28.380495,31.036743,66,60,42
31.059065,31.572458,59,60,42
31.59478,32.147663,59,60,42
32.171703,32.77066,59,60,42
32.796703,34.811584,59,60,42
34.832417,35.332417,64,60,42
35.332417,35.832417,63,60,42
35.832417,36.332417,64,60,42
36.332417,36.832417,56,60,42
36.832417,38.811584,59,60,42
38.832417,39.811584,57,60,42
39.832417,39.91575,56,60,42
39.91575,39.999084,57,60,42
39.999084,40.082417,56,60,42
40.082417,40.207417,54,60,42
40.207417,40.332417,56,60,42
40.332417,40.582417,57,60,42
40.582417,40.832417,59,60,42
40.832417,41.811584,61,60,42
41.832417,42.811584,59,60,42
42.832417,43.811584,63,60,42
43.832417,44.082417,64,60,42
44.082417,44.332417,63,60,42
44.332417,44.582417,64,60,42
44.582417,44.832417,56,60,42
44.832417,46.311584,59,60,42
46.332417,46.811584,58,60,42
46.832417,47.811584,57,60,42
48.832417,50.311584,57,60,42
50.332417,50.811584,57,75,42
50.832417,51.332417,57,80,42
51.332417,51.832417,56,85,42
51.832417,52.36813,54,90,42
52.36813,52.945053,52,75,42
52.945053,54.92422,61,60,42
54.945053,55.92422,62,60,42
56.695053,56.945053,59,60,42
56.945053,58.445053,61,60,42
58.445053,58.695053,64,60,42
58.695053,58.92422,62,60,42
58.945053,59.92422,62,60,42
60.695053,60.945053,59,60,42
60.945053,62.92422,61,90,42
62.945053,63.99416,62,85,42
64.01648,65.24681,61,68,42
65.27522,68.4483,62,60,42
68.4483,68.59253,64,60,42
68.59253,68.73676,61,60,42
68.73676,69.60215,62,60,42
69.60215,69.89061,64,60,42
69.89061,72.17426,66,60,42
72.1983,73.014275,64,60,42
73.03163,73.8476,62,60,42
73.86497,74.68094,61,60,42
74.698296,76.3476,59,60,42
76.36497,79.68094,60,60,42
80.53163,80.88133,61,50,42
80.88877,81.23847,57,50,42
81.24591,81.59561,56,50,42
81.60306,81.95276,59,50,42
81.9602,83.024185,57,50,42
83.031624,83.15811,59,50,42
83.2102,83.336685,61,50,42
83.38876,83.56734,64,50,42
83.56734,83.693825,62,50,42
83.74591,83.8724,61,50,42
83.92448,84.050964,62,50,42
84.10305,84.281624,61,50,42
84.281624,84.40811,59,50,42
84.46019,84.58668,58,50,42
84.63876,84.76525,59,50,42
84.81734,84.9959,57,50,42
84.9959,85.12239,56,50,42
85.17448,85.300964,54,50,42
85.35305,85.47954,56,50,42
85.53162,85.88132,52,50,42
85.88876,85.97804,54,50,42
85.97804,86.06733,56,50,42
86.06733,86.15662,57,50,42
86.15662,86.2459,59,50,42
86.2459,86.595604,61,50,42
86.60304,86.95274,57,55,42
86.96018,87.30989,56,60,42
87.31733,87.66703,59,65,42
87.67447,88.73846,57,70,42
88.745895,88.87238,59,85,42
88.92447,89.05096,61,88,42
89.103035,89.28161,64,90,42
89.28161,89.4081,62,93,42
89.46018,89.58667,61,95,42
89.63875,89.765236,62,98,42
89.81732,89.995895,61,100,42
89.995895,90.12238,59,103,42
90.17446,90.30095,58,105,42
90.353035,90.47952,59,108,42
90.53161,90.88131,57,110,42
91.99886,99.50926,45,70,42
99.51671,99.86641,44,74,42
99.87385,100.22355,45,78,42
100.23099,100.58069,43,83,42
100.58813,100.937836,42,87,42
100.945274,101.294975,38,92,42
101.302414,101.6696,40,96,42
101.677414,102.069084,52,100,42
102.077415,102.44855,45,70,42
102.813126,103.51997,61,70,42
103.52741,104.94854,62,70,42
104.95598,106.377106,61,70,42
106.384544,107.80567,62,70,42
107.81312,107.984245,61,70,42
107.991684,108.16282,61,70,42
108.17026,108.341385,61,71,42
108.70597,108.8771,63,74,42
108.884544,109.05567,63,75,42
109.06311,109.234245,63,76,42
109.42026,109.591385,64,78,42
109.59882,109.76996,64,79,42
109.7774,109.948524,64,80,42
109.95597,110.1271,66,81,42
110.13454,110.30567,66,82,42
110.31311,110.48424,66,83,42
110.491684,110.66281,66,84,42
110.67025,110.75954,64,85,42
110.75954,110.84882,66,86,42
110.84882,110.93811,68,86,42
110.93811,111.0274,66,87,42
111.0274,111.11668,64,87,42
111.11668,111.20596,66,88,42
111.20596,111.29525,68,88,42
111.29525,111.38454,66,89,42
111.38454,111.47382,64,89,42
111.47382,111.56311,66,90,42
111.56311,111.65239,68,90,42
111.65239,111.74168,66,91,42
111.74168,111.83096,64,91,42
111.83096,111.92025,66,92,42
111.92025,112.00954,68,92,42
112.00954,112.09882,66,93,42
112.09882,112.1881,64,93,42
112.1881,112.27739,66,94,42
112.27739,112.36668,68,94,42
112.36668,112.45596,66,95,42
112.45596,112.54525,64,95,42
112.54525,112.63453,66,96,42
112.63453,112.723816,68,96,42
112.723816,112.8131,66,97,42
112.8131,112.90685,64,97,42
112.90685,113.0006,66,98,42
113.0006,113.09435,68,98,42
113.09435,113.1881,66,98,42
113.1881,113.28679,64,99,42
113.28679,113.385475,68,99,42
113.385475,113.492615,66,100,42
113.492615,113.599754,64,100,42
113.599754,113.7069,63,110,42
113.7069,113.81404,59,110,42
113.81404,113.90333,61,110,42
113.90333,113.992615,63,110,42
113.992615,114.0819,64,110,42
114.0819,114.17119,66,110,42
114.17119,114.26047,68,110,42
114.26047,114.349754,70,110,42
114.349754,115.23517,71,110,42
115.24261,115.369095,71,110,42
115.42118,115.54767,66,110,42
115.599754,115.72624,63,110,42
115.77832,115.949455,59,110,42
119.34975,119.439026,64,100,42
119.40926,120.05659,76,100,42
120.064026,120.59974,75,100,42
120.59974,120.77831,76,100,42
120.77831,121.8423,66,100,42
125.1658,125.25509,64,100,42
125.22533,125.87265,76,100,42
125.88009,126.4158,75,100,42
126.4158,126.594376,76,100,42
126.594376,127.658356,66,100,42
131.69615,133.47443,76,101,42
133.48186,133.66043,78,100,42
133.66043,133.839,76,100,42
133.839,134.01758,75,70,42
134.01758,134.0771,76,70,42
134.0771,134.13663,75,70,42
134.13663,134.19615,73,70,42
134.19615,134.37471,75,70,42
134.37471,134.55328,76,70,42
134.55328,134.74078,78,70,42
134.74078,134.8736,75,70,42
134.92828,135.06808,71,70,42
135.12566,135.27744,69,70,42
135.33994,135.72646,69,70,42
135.73468,136.12119,68,70,42
136.91888,137.66107,67,70,42
137.66888,138.22357,66,90,42
138.23138,138.41107,67,105,42
138.41888,140.26859,68,110,42
140.27603,140.62573,69,110,42
140.63316,141.00035,71,110,42
141.00816,141.39984,71,110,42
141.40817,141.50816,64,70,42
141.50816,141.60817,66,70,42
141.60817,141.69745,68,70,42
141.69745,141.78674,69,70,42
141.78674,141.87602,71,70,42
141.87602,141.96532,73,70,42
141.96532,142.0546,75,70,42
142.0546,142.14388,76,70,42
142.14388,142.23317,75,70,42
142.23317,142.32245,76,70,42
142.32245,142.41174,75,70,42
142.41174,142.50102,73,70,42
142.50102,142.59032,71,70,42
142.59032,142.6796,69,70,42
142.6796,142.76888,68,70,42
142.76888,142.85817,66,70,42
142.85817,143.565,64,70,42
143.57245,144.2793,59,70,42
144.28673,144.37602,64,70,42
144.37602,144.4653,66,70,42
144.4653,144.5546,68,70,42
144.5546,144.64388,69,70,42
144.64388,144.73315,71,70,42
144.73315,144.82245,73,70,42
144.82245,144.91173,75,70,42
144.91173,145.00102,76,70,42
145.00102,145.0903,75,70,42
145.0903,145.1796,76,70,42
145.1796,145.26888,75,70,42
145.26888,145.35815,73,70,42
145.35815,145.44745,71,70,42
145.44745,145.53673,69,70,42
145.53673,145.62602,68,70,42
145.62602,145.7153,66,70,42
145.7153,146.42215,64,70,42
146.42958,147.13643,59,70,42
147.14388,147.315,64,70,42
147.32245,147.49358,68,71,42
147.67958,147.85071,68,73,42
147.85815,148.02928,69,75,42
148.03673,148.20786,69,76,42
148.39386,148.565,69,79,42
148.57243,148.74358,68,80,42
148.751,148.92213,68,81,42
149.10815,149.27928,68,84,42
149.28673,149.45786,66,85,42
149.46529,149.63643,66,86,42
149.64386,149.81499,66,88,42
149.82243,149.99356,66,89,42
150.001,150.17213,68,90,42
150.17958,150.35071,68,92,42
150.53671,150.70786,68,94,42
150.71529,150.88641,69,95,42
150.89386,151.06499,69,97,42
151.251,151.42213,69,99,42
151.42958,151.60071,68,101,42
151.60814,151.77928,68,102,42
151.96529,152.13641,68,105,42
152.14386,152.31499,66,106,42
152.32243,152.49356,66,107,42
152.501,152.67213,66,108,42
152.67957,152.85071,66,110,42
152.85814,153.02927,68,120,42
153.03671,153.20784,68,120,42
153.39386,153.56499,66,120,42
153.75099,153.92213,68,120,42
154.10814,154.27927,66,120,42
154.46529,154.63641,68,120,42
154.82242,154.99356,66,120,42
155.18849,155.36818,68,120,42
155.57599,155.76765,66,120,42
155.776,156.16766,68,120,42
161.176,161.35457,59,70,42
161.35457,161.53313,61,70,42
161.53313,161.7117,62,70,42
161.7117,161.89027,56,70,42
161.89027,162.06885,57,70,42
162.06885,162.24742,59,70,42
162.24742,162.426,52,70,42
162.426,162.60455,54,70,42
162.60455,162.78313,56,70,42
162.78313,162.9617,57,70,42
162.9617,163.14027,59,70,42
163.14027,163.31885,61,70,42
163.31885,163.49742,62,70,42
163.49742,163.67598,63,70,42
163.67598,163.86348,64,70,42
163.86348,164.05098,65,70,42
164.05098,164.23848,66,70,42
164.23848,164.42598,59,70,42
164.42598,164.62599,64,65,42
164.62599,164.84027,62,60,42
164.84027,165.20746,61,50,42
165.21527,165.56497,57,50,42
165.57242,165.92212,56,50,42
165.92955,166.27925,59,50,42
166.2867,167.35068,57,50,42
167.35812,167.4846,59,50,42
167.5367,167.66318,61,50,42
167.71527,167.89383,64,50,42
167.89383,168.02032,62,50,42
168.0724,168.1989,61,50,42
168.25098,168.37747,62,50,42
168.42955,168.60812,61,50,42
168.60812,168.7346,59,50,42
168.7867,168.91318,58,50,42
168.96526,169.09175,59,50,42
169.14383,169.3224,57,50,42
169.3224,169.4489,56,50,42
169.50098,169.62746,54,50,42
169.67955,169.80603,56,50,42
169.85812,170.20782,52,50,42
170.21526,170.30455,54,50,42
170.30455,170.39383,56,50,42
170.39383,170.48311,57,50,42
170.48311,170.5724,59,50,42
170.5724,170.9221,61,50,42
170.92955,171.27925,57,55,42
171.28668,171.63638,56,60,42
171.64383,171.99353,59,65,42
172.00096,173.06496,57,70,42
173.07239,173.19888,59,85,42
173.25096,173.37746,61,88,42
173.42953,173.60811,64,90,42
173.60811,173.73459,62,93,42
173.78668,173.91316,61,95,42
173.96526,174.09174,62,98,42
174.14381,174.32239,61,100,42
174.32239,174.44888,59,103,42
174.50096,174.62746,58,105,42
174.67953,174.80602,59,108,42
174.85811,175.20781,57,110,42
176.28667,183.77922,45,70,42
183.78665,184.13635,44,74,42
184.1438,184.4935,45,78,42
184.50095,184.85065,43,83,42
184.85808,185.20778,42,87,42
185.21523,185.56493,38,92,42
185.57236,185.92207,40,96,42
185.9295,186.2792,52,100,42
186.28665,186.63635,45,70,42
187.00093,187.70778,61,70,42
187.71521,189.13634,62,70,42
189.14378,190.56491,61,70,42
190.57236,191.99348,62,70,42
192.00092,192.17206,61,70,42
192.17949,192.35062,61,70,42
192.35806,192.52919,61,71,42
192.89377,193.06491,63,74,42
193.07234,193.24348,63,75,42
193.25092,193.42204,63,76,42
193.60806,193.77919,64,78,42
193.78664,193.95776,64,79,42
193.9652,194.13634,64,80,42
194.14377,194.32346,66,81,42
194.33127,194.51096,66,82,42
194.51877,194.70792,66,83,42
194.71614,194.90529,66,84,42
194.91351,195.01219,64,85,42
195.01219,195.11087,66,86,42
195.11087,195.20016,68,86,42
195.20016,195.28944,66,87,42
195.28944,195.37874,64,87,42
195.37874,195.46802,66,88,42
195.46802,195.5573,68,88,42
195.5573,195.64659,66,89,42
195.64659,195.73587,64,89,42
195.73587,195.82516,66,90,42
195.82516,195.91444,68,90,42
195.91444,196.00374,66,91,42
196.00374,196.09302,64,91,42
196.09302,196.1823,66,92,42
196.1823,196.27159,68,92,42
196.27159,196.36087,66,93,42
196.36087,196.45016,64,93,42
196.45016,196.53944,66,94,42
196.53944,196.62872,68,94,42
196.62872,196.71802,66,95,42
196.71802,196.8073,64,95,42
196.8073,196.89659,66,96,42
196.89659,196.98587,68,96,42
196.98587,197.07516,66,97,42
197.07516,197.16444,64,97,42
197.16444,197.25372,66,98,42
197.25372,197.34302,68,98,42
197.34302,197.4323,66,98,42
197.4323,197.52159,64,99,42
197.52159,197.61087,68,99,42
197.61087,197.70015,66,100,42
197.70015,197.78944,64,100,42
197.78944,197.87872,63,110,42
197.87872,197.96802,59,110,42
197.96802,198.0573,61,110,42
198.0573,198.14659,63,110,42
198.14659,198.23587,64,110,42
198.23587,198.32515,66,110,42
198.32515,198.41444,68,110,42
198.41444,198.50372,70,110,42
198.50372,199.38914,71,110,42
199.39658,199.52307,71,110,42
199.57515,199.70164,66,110,42
199.75372,199.8802,63,110,42
199.9323,200.10342,59,110,42
203.50371,203.593,64,100,42
203.56323,204.21056,76,100,42
204.218,204.75371,75,100,42
204.75371,204.93228,76,100,42
204.93228,205.99626,66,100,42
209.34486,209.43634,64,100,42
209.40584,210.06895,76,100,42
210.07657,210.62535,75,100,42
210.62535,210.80829,76,100,42
210.80829,211.89822,66,100,42
216.04343,217.91061,76,101,42
217.91843,218.10593,78,100,42
218.10593,218.29343,76,100,42
218.29343,218.48093,75,70,42
218.48093,218.54343,76,70,42
218.54343,218.60593,75,70,42
218.60593,218.66843,73,70,42
218.66843,218.85593,75,70,42
218.85593,219.04343,76,70,42
219.04343,219.23093,78,70,42
219.23093,219.36374,75,70,42
219.41843,219.55124,71,70,42
219.60593,219.74573,69,70,42
219.80328,220.22293,69,70,42
220.23186,220.6515,68,70,42
221.51758,222.25977,67,70,42
222.26758,222.82227,66,90,42
222.83008,223.00977,67,105,42
223.01758,224.86728,68,110,42
224.87471,225.22441,69,110,42
225.23186,225.59904,71,110,42
225.60686,225.99852,71,110,42
226.00685,226.10686,64,70,42
226.10686,226.20685,66,70,42
226.20685,226.29614,68,70,42
226.29614,226.38542,69,70,42
226.38542,226.47472,71,70,42
226.47472,226.564,73,70,42
226.564,226.65329,75,70,42
226.65329,226.74257,76,70,42
226.74257,226.83185,75,70,42
226.83185,226.92114,76,70,42
226.92114,227.01042,75,70,42
227.01042,227.09972,73,70,42
227.09972,227.189,71,70,42
227.189,227.27827,69,70,42
227.27827,227.36757,68,70,42
227.36757,227.45685,66,70,42
227.45685,228.1637,64,70,42
228.17114,228.87798,59,70,42
228.88542,228.9747,64,70,42
228.9747,229.064,66,70,42
229.064,229.15327,68,70,42
229.15327,229.24257,69,70,42
229.24257,229.33185,71,70,42
229.33185,229.42113,73,70,42
229.42113,229.51042,75,70,42
229.51042,229.5997,76,70,42
229.5997,229.689,75,70,42
229.689,229.77827,76,70,42
229.77827,229.86755,75,70,42
229.86755,229.95685,73,70,42
229.95685,230.04613,71,70,42
230.04613,230.13542,69,70,42
230.13542,230.2247,68,70,42
230.2247,230.314,66,70,42
230.314,231.02083,64,70,42
231.02827,231.73512,59,70,42
231.74255,231.91368,64,70,42
231.92113,232.09225,68,71,42
232.27827,232.4494,68,73,42
232.45685,232.62798,69,75,42
232.6354,232.80655,69,76,42
232.99255,233.16368,69,79,42
233.17113,233.34225,68,80,42
233.3497,233.52083,68,81,42
233.70683,233.87798,68,84,42
233.8854,234.05653,66,85,42
234.06398,234.2351,66,86,42
234.24255,234.41368,66,88,42
234.42113,234.59225,66,89,42
234.59969,234.77083,68,90,42
234.77826,234.9494,68,92,42
235.1354,235.30653,68,94,42
235.31398,235.4851,69,95,42
235.49255,235.66368,69,97,42
235.84969,236.02081,69,99,42
236.02826,236.19939,68,101,42
236.20683,236.37796,68,102,42
236.56398,236.7351,68,105,42
236.74254,236.91368,66,106,42
236.92111,237.09224,66,107,42
237.09969,237.27081,66,108,42
237.27826,237.44939,66,110,42
237.45683,237.62796,68,120,42
237.6354,237.80653,68,120,42
237.99254,238.16367,66,120,42
238.34969,238.52081,68,120,42
238.70683,238.87796,66,120,42
239.06396,239.23509,68,120,42
239.42111,239.59224,66,120,42
239.78719,239.96687,68,120,42
240.17204,240.36119,66,120,42
240.36942,240.75594,68,120,42
245.72467,245.90324,59,70,42
245.90324,246.08182,61,70,42
246.08182,246.26038,62,70,42
246.26038,246.43895,56,70,42
246.43895,246.61752,57,70,42
246.61752,246.7961,59,70,42
246.7961,246.97467,52,70,42
246.97467,247.15324,54,70,42
247.15324,247.3318,56,70,42
247.3318,247.51038,57,70,42
247.51038,247.68895,59,70,42
247.68895,247.86752,60,70,42
247.86752,248.0461,61,70,42
248.0461,248.22467,62,70,42
248.22467,248.41217,63,70,42
248.41217,248.59967,64,70,42
248.59967,248.78717,65,70,42
248.78717,248.97467,59,70,42
248.97467,249.17203,64,65,42
249.17203,249.38632,62,60,42
249.38632,249.76381,60,70,42
249.76381,250.12096,57,70,42
250.12096,250.47809,56,70,42
250.47809,250.83524,59,70,42
250.83524,251.89922,57,100,42
251.90666,251.99594,59,100,42
251.99594,252.08524,61,90,42
252.08524,252.17451,62,80,42
252.17451,252.26381,64,70,42
252.26381,252.62094,65,70,42
252.62094,252.97809,62,70,42
252.97809,253.33524,61,70,42
253.33524,253.69237,64,70,42
253.69237,254.58522,62,100,42
254.58522,254.7638,50,100,42
254.7638,254.85309,52,100,42
254.85309,254.94237,54,90,42
254.94237,255.03165,56,80,42
255.03165,255.12094,57,70,42
255.12094,255.47064,59,50,42
255.47809,255.82779,55,50,42
255.83522,256.18494,54,50,42
256.19235,256.54205,57,50,42
256.5495,256.8992,58,50,42
256.90665,257.25635,55,50,42
257.2638,257.6135,56,50,42
257.62094,257.97064,59,50,42
257.9781,258.3278,60,50,42
258.3352,258.6849,57,50,42
258.69235,259.04205,56,50,42
259.0495,259.3992,59,50,42
259.40665,259.75635,60,50,42
259.7638,260.1135,57,50,42
260.12094,260.47064,58,50,42
260.47806,260.82776,61,50,42
260.8352,261.1849,62,50,42
261.19235,261.54205,59,53,42
261.5495,261.8992,60,56,42
261.90665,262.25635,63,59,42
262.2638,262.6135,64,63,42
262.6209,262.9706,60,66,42
262.97806,263.32776,61,69,42
263.3352,263.6849,64,73,42
263.69235,264.04205,65,76,42
264.0495,264.3992,62,79,42
264.40665,264.75635,67,82,42
264.76376,265.11346,64,86,42
265.1209,265.4706,69,89,42
265.47806,265.82776,65,92,42
265.8352,266.2024,71,96,42
266.2102,266.6129,67,99,42
266.62186,266.98047,72,120,42
268.05936,268.58762,36,120,42
268.05936,268.58762,43,120,42
268.05936,268.58762,64,120,42
268.05936,268.58762,72,120,42
268.59506,268.72156,72,120,42
268.77362,268.90012,71,120,42
268.9522,269.0787,69,120,42
269.13077,269.25726,67,120,42
269.30936,269.43582,65,120,42
269.4879,269.83762,64,120,42
270.91647,271.44476,36,120,42
270.91647,271.44476,43,120,42
270.91647,271.44476,64,120,42
270.91647,271.44476,72,120,42
271.4522,271.57867,70,120,42
271.63077,271.75726,67,120,42
271.80933,271.93582,64,120,42
271.9879,272.1144,60,120,42
272.16647,272.29297,67,120,42
272.34506,272.47153,69,120,42
272.52362,272.65012,48,120,42
272.52362,272.65012,57,120,42
272.7022,272.82867,48,120,42
272.7022,272.82867,57,120,42
272.88077,273.00726,48,120,42
272.88077,273.00726,57,120,42
273.05933,273.18582,48,120,42
273.05933,273.18582,58,120,42
273.2379,273.3644,48,120,42
273.2379,273.3644,58,120,42
273.41647,273.54297,48,120,42
273.41647,273.54297,58,120,42
273.59506,273.72153,48,120,42
273.59506,273.72153,58,120,42
273.77362,273.90012,48,120,42
273.77362,273.90012,57,120,42
273.95218,274.07867,48,120,42
273.95218,274.07867,57,120,42
274.13077,274.25726,48,120,42
274.13077,274.25726,57,120,42
274.30933,274.43582,48,120,42
274.30933,274.43582,57,120,42
274.4879,274.61438,48,120,42
274.4879,274.61438,58,120,42
274.66647,274.79297,48,120,42
274.66647,274.79297,58,120,42
274.84506,274.97153,48,120,42
274.84506,274.97153,58,120,42
275.02362,275.15012,48,120,42
275.02362,275.15012,58,120,42
275.20218,275.32867,48,120,42
275.20218,275.32867,57,120,42
275.38077,275.50726,48,120,42
275.38077,275.50726,57,120,42
275.55933,275.68582,48,120,42
275.55933,275.68582,57,120,42
275.7379,275.86438,48,120,42
275.7379,275.86438,57,120,42
275.91647,276.04297,48,120,42
275.91647,276.04297,58,120,42
276.09503,276.22153,48,120,42
276.09503,276.22153,58,120,42
276.27362,276.40012,48,120,42
276.27362,276.40012,58,120,42
276.45218,276.57867,48,120,42
276.45218,276.57867,58,120,42
276.63077,277.15903,60,120,42
277.16647,277.33762,60,120,42
277.34503,277.51617,59,120,42
277.52362,277.69473,57,120,42
277.70218,277.87332,55,120,42
277.88077,278.05188,53,120,42
278.05933,278.5876,52,120,42
278.59503,278.76617,64,120,42
278.77362,278.94473,62,120,42
278.95218,279.12332,60,120,42
279.13074,279.30188,59,120,42
279.30933,279.48047,57,120,42
279.48788,280.01617,55,120,42
280.02362,280.19473,67,120,42
280.20218,280.37332,65,120,42
280.38074,280.55188,65,120,42
280.55933,280.73044,64,120,42
280.73788,280.90903,62,120,42
280.91647,280.97598,60,120,42
280.97598,281.03552,62,120,42
281.03552,281.09503,60,120,42
281.09503,281.15457,62,120,42
281.15457,281.21408,60,120,42
281.21408,281.2736,62,120,42
281.2736,281.33313,60,120,42
281.33313,281.39264,62,120,42
281.39264,281.45218,60,120,42
281.45218,281.5117,62,120,42
281.5117,281.57123,60,120,42
281.57123,281.63074,62,120,42
281.63074,281.69028,60,120,42
281.69028,281.7498,62,120,42
281.7498,281.80933,60,120,42
281.80933,281.86884,62,120,42
281.86884,281.92838,60,120,42
281.92838,281.98788,62,120,42
281.98788,282.04742,60,120,42
282.04742,282.10693,62,120,42
282.10693,282.16647,60,120,42
282.16647,282.25574,59,120,42
282.25574,282.34503,60,120,42
282.34503,282.47153,62,120,42
282.5236,282.6501,60,120,42
282.70218,282.82867,59,120,42
282.88074,283.00723,57,120,42
283.05933,283.1858,55,120,42
283.23788,283.36438,53,120,42
283.41644,283.54294,52,120,42
283.59503,283.72153,50,120,42
283.7736,283.9001,48,115,42
283.95218,284.07864,47,110,42
284.13074,284.25723,45,104,42
284.30933,284.4358,43,98,42
284.48788,284.6207,41,93,42
284.67538,284.8082,40,87,42
284.86288,285.0027,38,81,42
285.06024,285.21204,36,75,42
285.27454,285.64172,41,70,42
286.77454,287.16104,43,50,42
289.78204,289.90854,55,50,42
289.96063,290.0871,55,50,42
290.1392,290.2657,55,50,42
290.31775,290.44424,55,50,42
290.49634,290.62283,55,50,42
290.6749,290.8014,55,50,42
290.8535,290.97995,55,50,42
291.03204,291.15854,55,50,42
291.2106,291.5603,55,50,42
292.6392,292.7657,55,50,42
292.81775,292.94424,55,50,42
292.99634,293.1228,55,50,42
293.1749,293.3014,55,50,42
293.35345,293.47995,55,50,42
293.53204,293.65854,56,50,42
293.7106,293.8371,56,50,42
293.8892,294.01566,56,50,42
294.06775,294.41745,57,50,42
295.4963,295.6228,57,50,42
295.6749,295.8014,57,50,42
295.85345,295.97995,57,50,42
296.03204,296.1585,57,50,42
296.2106,296.3371,57,50,42
296.38916,296.51566,57,50,42
296.56775,296.69733,57,50,42
296.75067,296.88025,57,50,42
296.9336,297.30078,57,50,42
298.47308,298.62064,57,50,42
298.6814,298.82898,57,50,42
298.88974,299.0373,57,50,42
299.09808,299.24564,57,50,42
299.3064,299.46738,57,50,42
299.53366,299.69467,57,50,42
299.76096,299.93802,57,50,42
300.01096,300.2323,57,50,42
300.32346,300.75314,61,70,42
300.76096,301.11066,57,70,42
301.1181,301.4678,56,70,42
301.47522,301.82492,59,70,42
301.83237,302.89636,57,70,42
302.9038,303.03027,59,70,42
303.08237,303.20886,61,70,42
303.26096,303.4395,64,70,42
303.4395,303.566,62,70,42
303.61807,303.74457,61,70,42
303.79666,303.92316,62,70,42
303.97522,304.1538,61,70,42
304.1538,304.28027,59,70,42
304.33237,304.45886,58,70,42
304.51093,304.63742,59,70,42
304.6895,304.86807,57,70,42
304.86807,304.99457,56,70,42
305.04666,305.17313,54,70,42
305.22522,305.3517,56,70,42
305.4038,305.7535,52,70,42
305.76093,305.85022,54,70,42
305.85022,305.9395,56,70,42
305.9395,306.02878,57,70,42
306.02878,306.11807,59,70,42
306.11807,306.46777,61,70,42
306.47522,306.82492,57,73,42
306.83237,307.18207,56,76,42
307.1895,307.5392,59,80,42
307.54663,308.61063,57,83,42
308.61807,308.74457,59,93,42
308.79663,308.92313,61,95,42
308.97522,309.15378,64,97,42
309.15378,309.28027,62,98,42
309.33237,309.45883,61,100,42
309.51093,309.63742,62,102,42
309.68948,309.86807,61,104,42
309.86807,309.99457,59,105,42
310.04663,310.17313,58,107,42
310.22522,310.35168,59,109,42
310.40378,310.75348,57,110,42
311.86008,314.72858,45,60,42
314.73602,316.15714,38,60,42
316.16458,317.5857,40,60,42
317.59314,317.71964,45,60,42
317.77173,317.8982,45,60,42
317.9503,318.07678,45,60,42
318.12885,318.25534,45,60,42
318.30743,318.43393,45,60,42
318.486,318.6125,45,60,42
318.66458,318.79105,45,60,42
318.84314,318.96964,45,60,42
319.0217,319.1482,45,60,42
319.2003,319.32678,45,62,42
319.37885,319.50534,44,65,42
319.55743,319.6839,44,68,42
319.736,319.8625,45,71,42
319.91458,320.04105,45,74,42
320.09314,320.21964,43,77,42
320.2717,320.3982,43,80,42
320.4503,320.57678,42,83,42
320.62885,320.75534,42,86,42
320.80743,320.9339,38,89,42
320.986,321.1125,38,92,42
321.16455,321.29105,40,95,42
321.34314,321.46964,40,97,42
321.5217,321.6482,52,100,42
321.7003,321.82675,52,90,42
321.87885,322.22855,45,70,42
322.59314,323.3,61,70,42
323.3074,324.72855,62,70,42
324.736,324.82526,61,70,42
324.82526,324.91455,64,70,42
324.91455,325.00385,62,70,42
325.00385,325.09314,61,70,42
325.09314,325.1824,62,70,42
325.1824,325.2717,64,70,42
325.2717,325.361,66,70,42
325.361,325.45026,68,70,42
325.45026,325.53955,69,70,42
325.53955,325.62885,68,70,42
325.62885,325.71814,66,70,42
325.71814,325.8074,64,70,42
325.8074,325.8967,62,70,42
325.8967,325.986,61,70,42
325.986,326.07526,59,70,42
326.07526,326.16455,57,70,42
326.16455,326.25385,56,70,42
326.25385,326.3431,57,70,42
326.3431,326.4324,59,70,42
326.4324,326.5217,61,70,42
326.5217,326.611,62,70,42
326.611,326.70026,61,70,42
326.70026,326.78955,59,70,42
326.78955,326.87885,57,70,42
326.87885,326.9681,56,70,42
326.9681,327.0574,57,70,42
327.0574,327.1467,59,70,42
327.1467,327.236,57,70,42
327.236,327.32526,56,70,42
327.32526,327.41455,52,70,42
327.41455,327.50385,54,70,42
327.50385,327.5931,56,70,42
327.5931,327.6824,57,70,42
327.6824,327.7717,59,70,42
327.7717,327.861,61,70,42
327.861,327.95026,59,71,42
327.95026,328.03955,57,71,42
328.03955,328.12885,59,71,42
328.12885,328.2181,61,72,42
328.2181,328.3074,59,72,42
328.3074,328.3967,57,73,42
328.3967,328.48596,59,73,42
328.48596,328.57526,61,73,42
328.57526,328.66455,59,74,42
328.66455,328.75385,57,74,42
328.75385,328.8431,59,75,42
328.8431,328.9324,61,75,42
328.9324,329.0217,59,75,42
329.0217,329.11096,57,76,42
329.11096,329.20026,59,76,42
329.20026,329.28955,61,77,42
329.28955,329.37885,59,77,42
329.37885,329.4681,57,77,42
329.4681,329.5574,59,78,42
329.5574,329.6467,61,78,42
329.6467,329.73596,59,79,42
329.73596,329.82526,57,79,42
329.82526,329.91455,59,79,42
329.91455,330.0038,61,80,42
330.0038,330.0931,59,80,42
330.0931,330.1824,57,80,42
330.1824,330.2717,61,81,42
330.2717,330.36096,59,81,42
330.36096,330.45026,57,82,42
330.45026,330.57675,56,82,42
330.6288,330.7553,68,83,42
330.8074,330.9339,68,84,42
331.3431,331.4696,69,86,42
331.5217,331.64816,69,87,42
332.0574,332.18387,71,89,42
332.23596,332.36246,71,90,42
332.41455,332.54102,71,91,42
332.5931,332.7227,68,91,42
332.77603,332.9056,68,92,42
332.95895,333.09177,68,93,42
333.14645,333.28625,68,94,42
333.34384,333.4425,69,95,42
333.4425,333.5412,71,95,42
333.5412,333.6305,73,95,42
333.6305,333.71976,71,96,42
333.71976,333.80905,69,96,42
333.80905,333.89835,71,97,42
333.89835,333.98764,73,97,42
333.98764,334.0769,71,97,42
334.0769,334.1662,69,98,42
334.1662,334.2555,71,98,42
334.2555,334.34476,73,99,42
334.34476,334.43405,71,99,42
334.43405,334.52335,69,99,42
334.52335,334.6126,73,100,42
334.6126,334.7019,71,100,42
334.7019,334.7912,69,100,42
334.7912,334.9177,68,100,42
334.96976,335.09625,68,100,42
335.14835,335.2748,69,100,42
335.3269,335.4534,69,100,42
335.5055,335.63196,71,100,42
335.68405,335.81055,71,100,42
335.8626,335.9891,68,100,42
336.0412,336.1677,68,100,42
336.21976,336.34625,73,110,42
336.39835,336.5248,73,110,42
336.5769,336.7034,71,110,42
336.75546,336.88196,71,110,42
336.93405,337.06055,69,110,42
337.1126,337.2391,69,110,42
337.2912,337.41766,69,110,42
337.46976,337.59625,69,110,42
337.64835,337.7376,68,110,42
337.7376,337.8269,64,110,42
337.8269,337.9162,66,110,42
337.9162,338.00546,68,110,42
338.00546,338.09476,69,110,42
338.09476,338.18405,71,110,42
338.18405,338.27332,73,110,42
338.27332,338.3626,75,110,42
338.3626,339.9623,76,110,42
339.96976,340.09625,76,120,42
340.14832,340.2748,71,120,42
340.3269,340.45337,68,120,42
340.50546,340.76587,64,120,42
340.8626,341.2123,40,120,42
343.3626,344.06946,69,100,42
344.07687,344.6126,68,100,42
344.6126,344.79117,69,90,42
344.79117,345.85516,59,81,42
349.2827,350.0249,69,100,42
350.0327,350.5952,68,100,42
350.5952,350.7827,69,90,42
350.7827,351.8999,59,81,42
356.3441,358.21127,69,100,42
358.2191,358.4066,71,90,42
358.4066,358.5941,69,80,42
358.5941,358.68784,68,70,42
358.68784,358.7816,69,70,42
358.7816,358.87534,68,70,42
358.87534,358.9691,69,70,42
358.9691,359.1566,71,70,42
359.1566,359.3441,68,70,42
359.3441,359.5316,74,70,42
359.5316,359.7191,71,70,42
359.7191,359.91647,68,70,42
359.91647,360.12482,64,70,42
360.12482,360.53278,62,70,42
360.54147,360.94946,61,70,42
361.79147,362.53366,60,70,42
362.54147,363.10397,59,70,42
363.10397,363.29147,60,70,42
363.29147,365.15866,61,70,42
365.16647,365.53366,62,110,42
365.54147,365.92798,64,110,42
365.9362,366.35583,64,110,42
366.36478,366.46347,57,70,42
366.46347,366.56213,59,70,42
366.56213,366.65143,61,70,42
366.65143,366.74072,62,70,42
366.74072,366.83,64,70,42
366.83,366.91928,66,70,42
366.91928,367.00858,68,70,42
367.00858,367.09784,69,70,42
367.09784,367.18713,68,70,42
367.18713,367.27643,69,70,42
367.27643,367.36572,68,70,42
367.36572,367.455,66,70,42
367.455,367.54428,64,70,42
367.54428,367.63358,62,70,42
367.63358,367.72284,61,70,42
367.72284,367.81213,59,70,42
367.81213,368.51898,57,70,42
368.52643,369.23328,52,70,42
369.2407,369.33,57,70,42
369.33,369.41928,59,70,42
369.41928,369.50858,61,70,42
369.50858,369.59784,62,70,42
369.59784,369.68713,64,70,42
369.68713,369.77643,66,70,42
369.77643,369.8657,68,70,42
369.8657,369.955,69,70,42
369.955,370.04428,68,70,42
370.04428,370.13358,69,70,42
370.13358,370.22284,68,70,42
370.22284,370.31213,66,70,42
370.31213,370.40143,64,70,42
370.40143,370.4907,62,70,42
370.4907,370.58,61,70,42
370.58,370.66928,59,70,42
370.66928,371.37613,57,70,42
371.38354,372.0904,52,70,42
372.09784,372.22433,57,70,42
372.2764,372.44754,57,71,42
372.63354,372.8047,57,75,42
372.81213,372.9386,62,76,42
372.9907,373.16183,62,78,42
373.34784,373.51898,62,82,42
373.5264,373.6529,61,83,42
373.705,373.8761,61,85,42
374.06213,374.23325,61,89,42
374.2407,374.3672,59,90,42
374.41925,374.54575,59,92,42
374.59784,374.72433,59,94,42
374.7764,374.9029,59,96,42
374.955,375.08145,61,97,42
375.13354,375.3047,61,99,42
375.4907,375.66183,61,103,42
375.66925,375.79575,62,104,42
375.84784,376.01895,62,106,42
376.205,376.3761,62,110,42
376.38354,376.5547,61,120,42
377.1871,377.2764,61,120,42
377.2764,377.3657,62,120,42
377.3657,377.455,64,120,42
377.455,377.54425,66,120,42
377.54425,377.63354,64,120,42
377.63354,377.72284,66,120,42
377.72284,377.8121,68,120,42
377.8121,377.9014,69,120,42
377.9014,377.9907,64,120,42
377.9907,378.07996,66,120,42
378.07996,378.16925,68,120,42
378.16925,378.25854,69,120,42
378.25854,378.34784,68,120,42
378.34784,378.4371,69,120,42
378.4371,378.5264,71,120,42
378.5264,378.69754,73,120,42
379.32996,379.41925,52,120,42
379.41925,379.50854,54,120,42
379.50854,379.5978,56,120,42
379.5978,379.6871,57,120,42
379.6871,379.7764,56,120,42
379.7764,379.8657,57,120,42
379.8657,379.95496,59,120,42
379.95496,380.04425,61,120,42
380.04425,380.13354,56,120,42
380.13354,380.2228,57,120,42
380.2228,380.3121,59,120,42
380.3121,380.40585,61,120,42
380.40585,380.4996,59,120,42
380.4996,380.5983,61,120,42
380.5983,380.697,62,120,42
380.697,381.0835,64,120,42
385.90186,386.0804,61,70,42
386.0804,386.259,52,70,42
386.259,386.43756,54,70,42
386.43756,386.61615,56,70,42
386.61615,386.7947,57,70,42
386.7947,386.97327,49,70,42
386.97327,387.15186,50,70,42
387.15186,387.3304,52,70,42
387.3304,387.509,54,70,42
387.509,387.68756,52,70,42
387.68756,387.86612,50,70,42
387.86612,388.0447,49,70,42
388.0447,388.22327,47,70,42
388.22327,388.40186,49,70,42
388.40186,388.5804,50,70,42
388.5804,388.759,51,70,42
388.759,388.93756,52,70,42
388.93756,389.11612,47,70,42
389.11612,389.2947,52,70,42
389.2947,389.47327,50,70,42
389.47327,389.82297,49,70,42
389.8304,390.1801,47,70,42
390.18756,390.53726,45,70,42
390.5447,390.8944,47,70,42
390.90186,391.96582,45,70,42
391.97327,392.32297,43,70,42
392.3304,393.03726,42,70,42
393.04468,393.75153,41,87,42
393.75897,394.46582,40,100,42
394.47327,394.82297,45,83,42
394.8304,395.1801,43,74,42
395.18753,395.89438,42,70,42
395.90182,396.60867,41,87,42
396.61612,397.32297,40,100,42
397.33038,397.68008,45,83,42
397.68753,398.03723,43,74,42
398.04468,398.75153,42,70,42
398.75897,399.47433,42,70,42
399.48196,400.2389,40,70,42
400.24713,400.53494,52,110,42
400.64185,400.95435,52,110,42
401.07043,401.99008,64,110,42
401.999,402.2133,61,70,42
402.2133,402.41064,62,70,42
402.41064,402.60803,64,70,42
402.60803,402.79553,57,70,42
402.79553,402.9741,59,70,42
402.9741,403.15265,61,70,42
403.15265,403.33124,52,70,42
403.33124,403.5098,56,70,42
403.5098,403.6884,57,70,42
403.6884,403.86694,49,70,42
403.86694,404.04553,50,70,42
404.04553,404.2241,52,70,42
404.2241,404.40265,45,70,42
404.40265,404.58124,47,70,42
404.58124,404.7598,49,70,42
404.7598,404.9384,40,70,42
404.9384,405.11694,42,70,42
405.11694,405.2955,44,70,42
405.2955,405.4741,45,70,42
405.4741,405.65265,47,70,42
409.2241,409.40265,40,70,42
409.40265,409.59015,42,70,42
409.59015,409.7875,44,70,42
409.7875,409.975,45,70,42
409.975,410.1536,47,70,42
410.1536,410.33215,49,70,42
410.33215,410.51074,50,70,42
410.51074,410.6893,52,70,42
410.6893,410.86786,51,70,42
410.86786,411.04645,52,70,42
411.04645,411.225,50,70,42
411.225,411.4036,49,70,42
411.4036,411.58215,47,70,42
411.58215,411.7607,45,70,42
411.7607,411.9393,44,70,42
411.9393,412.0658,45,70,42
412.11786,412.29645,45,70,42
412.29645,412.475,47,70,42
412.475,412.6536,49,70,42
412.6536,412.83215,52,70,42
412.83215,412.95865,50,74,42
413.0107,413.1372,49,78,42
413.1893,413.3158,50,83,42
413.36786,413.54645,49,87,42
413.54645,413.6729,47,92,42
413.725,413.8515,46,96,42
413.90356,414.03006,47,100,42
414.08215,414.2607,45,100,42
414.2607,414.3872,44,96,42
414.4393,414.56577,42,92,42
414.61786,414.74435,44,87,42
414.79642,414.9229,45,83,42
414.975,415.15356,45,78,42
415.15356,415.33215,47,74,42
415.33215,415.5107,49,70,42
415.5107,415.6893,52,70,42
415.6893,415.81577,50,74,42
415.86786,415.99435,49,78,42
416.04642,416.1729,50,83,42
416.225,416.40356,49,87,42
416.40356,416.53006,47,92,42
416.58215,416.70862,46,96,42
416.7607,416.8872,47,100,42
416.93927,417.11786,45,100,42
417.11786,417.24435,44,96,42
417.29642,417.4229,42,92,42
417.475,417.60147,44,87,42
417.65356,417.78006,45,83,42
417.83215,418.0107,45,78,42
418.0107,418.18927,47,74,42
418.18927,418.36786,49,70,42
418.36786,418.54642,52,70,42
418.54642,418.6729,50,72,42
418.725,418.85147,49,74,42
418.90356,419.03006,50,76,42
419.08212,419.2607,52,78,42
419.2607,419.3872,51,81,42
419.43927,419.56577,50,83,42
419.61786,419.74432,51,85,42
419.79642,419.97934,54,87,42
419.97934,420.10892,52,89,42
420.16226,420.29507,51,92,42
420.34976,420.48257,52,94,42
420.53726,420.73465,54,96,42
420.73465,420.87445,53,98,42
420.932,421.0796,53,100,42
421.14035,421.2879,53,80,42
421.34866,422.77872,54,70,42
422.78616,424.2073,56,70,42
424.21475,424.92157,57,73,42
424.92902,425.63586,50,75,42
425.6433,426.35016,52,78,42
426.3576,427.1353,40,80,42
427.14426,428.61987,42,82,42
428.62732,430.04846,44,87,42
430.0559,430.76273,45,92,42
430.77017,431.47702,38,94,42
431.48447,432.1913,40,97,42
432.19873,432.90558,40,99,42
432.91302,433.61987,45,101,42
433.62732,434.33417,38,104,42
434.34158,435.04843,40,106,42
435.05588,435.76273,40,108,42
435.77017,435.89667,45,120,42
435.94873,436.07523,57,120,42
436.12732,436.25378,57,120,42
436.30588,436.43237,57,120,42
436.48444,436.61093,57,120,42
436.66302,436.78952,57,120,42
436.84158,436.96808,54,120,42
437.02017,437.14664,51,120,42
437.19873,437.32523,52,120,42
437.37732,437.50378,52,120,42
437.55588,437.68237,49,120,42
437.73444,437.86093,45,120,42
437.91302,438.04584,52,120,42
438.10052,438.23334,52,120,42
438.28802,438.42783,52,120,42
438.48538,438.62518,52,120,42
438.68274,439.041,61,120,42
439.0486,439.40683,57,120,42
439.41446,439.7727,56,120,42
439.7803,440.13855,59,120,42
440.14618,441.2361,52,120,42
441.2437,441.33517,54,120,42
441.33517,441.42664,56,120,42
441.42664,441.51813,57,120,42
441.51813,441.6096,59,120,42
441.6096,441.9678,61,120,42
441.97543,442.33365,57,120,42
442.34128,442.69952,56,120,42
442.70712,443.06537,59,120,42
443.073,444.16293,52,120,42
444.17056,444.26202,54,120,42
444.26202,444.3535,56,120,42
444.3535,444.44495,57,120,42
444.44495,444.5364,59,120,42
444.5364,444.89462,61,120,42
444.90225,445.2605,57,116,42
445.2681,445.62634,56,112,42
445.63397,445.9922,59,107,42
445.99982,446.35803,57,103,42
446.36566,446.7239,52,98,42
446.7315,447.0987,51,94,42
447.1065,447.4737,54,89,42
447.4815,447.8487,52,85,42
447.8565,448.23312,49,81,42
448.24112,448.61774,47,76,42
448.62576,449.01227,50,72,42
449.02048,449.40698,49,67,42
449.41522,449.8122,45,63,42
449.82062,450.2286,44,58,42
450.2373,450.65692,47,54,42
450.66586,451.03305,45,50,42
451.04086,451.40805,42,53,42
451.41586,451.78305,40,56,42
451.79086,452.15805,44,59,42
452.16586,452.53305,45,63,42
452.54086,452.90805,42,66,42
452.91586,453.28305,40,69,42
453.29086,453.65805,44,73,42
453.66586,454.03305,45,76,42
454.04086,454.40805,42,79,42
454.41586,454.78305,40,82,42
454.79086,455.15805,44,86,42
455.16586,455.51556,45,89,42
455.523,455.8727,42,92,42
455.88016,456.24734,40,96,42
456.25516,456.65787,44,99,42
456.6668,457.08646,45,110,42
457.52396,458.01352,45,110,42
457.52396,458.01352,52,110,42
457.52396,458.01352,57,110,42
458.52396,459.26352,45,125,42
462.77396,463.01352,45,1,42
0.0,1.9791666,71,60,0
2.0,2.4791667,76,60,0
2.5,2.9791667,75,60,0
3.0,3.4791667,76,60,0
3.5,3.9791667,68,60,0
4.0,5.9791665,71,60,0
6.0,6.9791665,69,60,0
7.0,7.1458335,68,60,0
7.0833335,7.2291665,69,60,0
7.1666665,7.3125,68,60,0
7.25,7.4791665,66,60,0
7.375,7.6041665,68,60,0
7.5,7.7291665,69,60,0
7.75,7.9791665,71,60,0
8.0,8.979167,73,60,0
9.0,9.979167,71,60,0
10.0,10.979167,75,60,0
11.0,11.479167,76,60,0
11.5,11.979167,68,60,0
12.0,13.479167,71,60,0
13.5,13.979167,70,60,0
14.0,15.049107,69,60,0
16.273352,17.788233,69,60,0
17.809065,18.288233,69,60,0
18.309065,18.788233,69,60,0
18.809065,19.288233,68,60,0
19.309065,19.788233,66,60,0
19.809065,20.288233,64,60,0
20.309065,22.288233,73,60,0
22.309065,23.288233,71,76,0
23.309065,24.038233,76,84,0
24.059065,24.288233,73,90,0
24.309065,24.538233,71,60,0
24.434065,24.663233,73,60,0
24.559065,24.788233,71,60,0
24.684065,24.913233,73,60,0
24.809065,25.038233,71,60,0
24.934065,25.163233,73,60,0
25.059065,25.288233,71,60,0
25.184065,25.413233,73,60,0
25.309065,25.538233,71,60,0
25.434065,25.663233,73,60,0
25.559065,25.788233,71,60,0
25.684065,25.913233,73,60,0
25.809065,26.038233,71,60,0
25.934065,26.163233,73,60,0
26.059065,26.288233,71,60,0
26.184065,26.413233,73,60,0
26.309065,26.538233,70,60,0
26.434065,26.663233,71,60,0
26.559065,26.788233,70,60,0
26.684065,26.913233,71,60,0
26.809065,27.038233,70,60,0
26.934065,27.163233,71,60,0
27.059065,27.288233,70,60,0
27.184065,27.420673,71,60,0
27.309065,27.554602,70,60,0
27.442995,27.68853,71,60,0
27.576923,27.822458,70,60,0
27.710852,27.956387,71,60,0
27.84478,28.090315,70,60,0
27.978708,28.224245,71,60,0
28.112637,28.358173,70,60,0
28.246565,28.492102,71,60,0
28.380495,28.62603,69,60,0
28.514423,28.759958,71,60,0
28.648352,28.893887,69,60,0
28.78228,29.027815,71,60,0
28.916208,29.161745,69,60,0
29.050137,29.295673,71,60,0
29.184065,29.429602,69,60,0
29.317995,29.56353,71,60,0
29.451923,29.965315,69,60,0
29.71978,29.965315,68,60,0
29.987637,30.233173,69,60,0
30.255495,30.50103,66,60,0
30.523352,30.768887,63,60,0
30.791208,31.036743,59,60,0
31.059065,31.304602,58,60,0
31.326923,31.572458,57,60,0
31.59478,31.859203,56,60,0
31.883242,32.147663,57,60,0
32.171703,32.45816,54,60,0
32.484203,32.77066,59,60,0
32.796703,33.811584,52,60,0
35.582417,35.811584,59,60,0
35.707417,35.936584,64,60,0
35.832417,36.811584,68,60,0
37.582417,37.811584,59,60,0
37.707417,37.936584,64,60,0
37.832417,38.811584,69,60,0
39.582417,39.811584,59,60,0
39.707417,39.936584,64,60,0
39.832417,40.811584,68,60,0
41.582417,41.811584,64,60,0
41.707417,41.936584,68,60,0
41.832417,42.811584,71,60,0
43.582417,43.811584,64,60,0
43.707417,43.936584,68,60,0
43.832417,44.811584,71,60,0
45.582417,45.811584,59,60,0
45.707417,45.936584,66,60,0
45.832417,46.811584,71,60,0
47.582417,47.811584,59,60,0
47.707417,47.936584,66,60,0
47.832417,48.811584,71,60,0
49.582417,49.811584,59,70,0
49.707417,49.936584,66,70,0
49.832417,50.811584,69,70,0
51.332417,51.811584,64,85,0
51.832417,52.34581,63,90,0
52.36813,52.921017,64,75,0
53.695053,53.92422,64,60,0
53.820053,54.04922,69,60,0
53.945053,54.92422,73,60,0
55.695053,55.92422,64,60,0
55.820053,56.04922,71,60,0
55.945053,56.92422,74,60,0
57.695053,57.92422,64,60,0
57.820053,58.04922,69,60,0
57.945053,58.92422,73,60,0
59.695053,59.92422,64,60,0
59.820053,60.04922,71,60,0
59.945053,60.92422,74,60,0
66.42907,67.558876,73,60,0
67.58292,68.71272,74,60,0
68.73676,69.86657,52,60,0
68.73676,69.86657,56,60,0
68.73676,69.86657,59,60,0
68.73676,69.86657,62,60,0
69.89061,71.02042,52,60,0
69.89061,71.02042,56,60,0
69.89061,71.02042,59,60,0
69.89061,71.02042,62,60,0
80.53163,80.70276,61,50,0
80.53163,80.70276,57,50,0
80.53163,80.70276,52,50,0
80.7102,80.88133,61,50,0
80.7102,80.88133,57,50,0
80.7102,80.88133,52,50,0
80.88877,81.059906,57,50,0
80.88877,81.059906,61,50,0
80.88877,81.059906,52,50,0
81.067345,81.23847,57,50,0
81.067345,81.23847,61,50,0
81.067345,81.23847,52,50,0
81.24591,81.417046,59,50,0
81.24591,81.417046,62,50,0
81.24591,81.417046,52,50,0
81.424484,81.59561,59,50,0
81.424484,81.59561,62,50,0
81.424484,81.59561,52,50,0
81.60306,81.774185,56,50,0
81.60306,81.774185,62,50,0
81.60306,81.774185,52,50,0
81.781624,81.95276,62,50,0
81.781624,81.95276,56,50,0
81.781624,81.95276,52,50,0
81.9602,82.3099,52,50,0
81.9602,82.3099,57,50,0
81.9602,82.3099,61,50,0
83.38876,83.5599,54,50,0
83.38876,83.5599,59,50,0
83.38876,83.5599,62,50,0
83.56734,83.738464,54,50,0
83.56734,83.738464,59,50,0
83.56734,83.738464,62,50,0
83.74591,83.91704,54,50,0
83.74591,83.91704,59,50,0
83.74591,83.91704,62,50,0
83.92448,84.09561,54,50,0
83.92448,84.09561,59,50,0
83.92448,84.09561,62,50,0
84.10305,84.27418,54,50,0
84.10305,84.27418,59,50,0
84.10305,84.27418,62,50,0
84.281624,84.45275,54,50,0
84.281624,84.45275,59,50,0
84.281624,84.45275,62,50,0
84.46019,84.631325,54,50,0
84.46019,84.631325,59,50,0
84.46019,84.631325,62,50,0
84.63876,84.80989,54,50,0
84.63876,84.80989,59,50,0
84.63876,84.80989,62,50,0
84.81734,85.16704,52,50,0
84.81734,85.16704,59,50,0
84.81734,85.16704,62,50,0
86.2459,86.41703,61,50,0
86.2459,86.41703,57,50,0
86.2459,86.41703,52,50,0
86.42447,86.595604,61,52,0
86.42447,86.595604,57,52,0
86.42447,86.595604,52,52,0
86.60304,86.77418,57,55,0
86.60304,86.77418,61,55,0
86.60304,86.77418,52,55,0
86.78162,86.95274,57,57,0
86.78162,86.95274,61,57,0
86.78162,86.95274,52,57,0
86.96018,87.13132,59,60,0
86.96018,87.13132,62,60,0
86.96018,87.13132,52,60,0
87.138756,87.30989,59,62,0
87.138756,87.30989,62,62,0
87.138756,87.30989,52,62,0
87.31733,87.48846,56,65,0
87.31733,87.48846,62,65,0
87.31733,87.48846,52,65,0
87.495895,87.66703,62,67,0
87.495895,87.66703,56,67,0
87.495895,87.66703,52,67,0
87.67447,87.845604,52,70,0
87.67447,87.845604,57,70,0
87.67447,87.845604,61,70,0
87.85304,88.02417,52,72,0
87.85304,88.02417,57,72,0
87.85304,88.02417,61,72,0
88.03161,88.20274,52,75,0
88.03161,88.20274,57,75,0
88.03161,88.20274,61,75,0
88.21018,88.38131,52,77,0
88.21018,88.38131,57,77,0
88.21018,88.38131,61,77,0
88.388756,88.55988,52,80,0
88.388756,88.55988,57,80,0
88.388756,88.55988,61,80,0
88.56732,88.73846,52,82,0
88.56732,88.73846,57,82,0
88.56732,88.73846,61,82,0
88.745895,88.91702,52,85,0
88.745895,88.91702,57,85,0
88.745895,88.91702,61,85,0
88.92447,89.0956,52,88,0
88.92447,89.0956,57,88,0
88.92447,89.0956,61,88,0
89.103035,89.27417,57,90,0
89.103035,89.27417,54,90,0
89.103035,89.27417,62,90,0
89.28161,89.452736,57,93,0
89.28161,89.452736,54,93,0
89.28161,89.452736,62,93,0
89.46018,89.63131,59,95,0
89.46018,89.63131,54,95,0
89.46018,89.63131,62,95,0
89.63875,89.80988,59,98,0
89.63875,89.80988,54,98,0
89.63875,89.80988,62,98,0
89.81732,89.98845,57,100,0
89.81732,89.98845,59,100,0
89.81732,89.98845,52,100,0
89.995895,90.16702,57,103,0
89.995895,90.16702,59,103,0
89.995895,90.16702,52,103,0
90.17446,90.3456,56,104,0
90.17446,90.3456,64,105,0
90.17446,90.3456,52,105,0
90.353035,90.52416,56,107,0
90.353035,90.52416,64,108,0
90.353035,90.52416,52,108,0
90.53161,90.702736,52,110,0
90.53161,90.702736,57,110,0
90.53161,90.702736,61,110,0
90.710175,90.88131,73,70,0
90.79946,90.9706,76,70,0
90.88875,91.059875,74,70,0
90.978035,91.14916,78,70,0
91.06732,91.23845,76,70,0
91.1566,91.327736,80,70,0
91.24589,91.41702,78,70,0
91.335175,91.50631,81,70,0
91.42446,91.59559,80,70,0
91.51375,91.68897,83,70,0
91.603035,91.78272,81,70,0
91.696785,91.88602,85,70,0
91.790535,91.99018,83,70,0
91.8947,92.0848,86,70,0
91.99886,92.36605,85,70,0
92.37386,92.723564,81,70,0
92.73101,93.08071,80,70,0
93.08815,93.43785,83,70,0
93.44529,94.50928,81,70,0
94.516716,94.68785,83,70,0
94.69529,94.86642,85,70,0
94.873856,95.04499,88,70,0
95.05243,95.22356,86,70,0
95.231,95.40213,85,70,0
95.40957,95.5807,86,70,0
95.58814,95.75927,85,70,0
95.766716,95.93784,83,70,0
95.94528,96.11642,82,70,0
96.123856,96.29498,83,70,0
96.30243,96.47356,81,70,0
96.480995,96.65213,80,70,0
96.65957,96.830696,78,70,0
96.83814,97.00927,80,70,0
97.01671,97.36641,76,70,0
97.373856,97.455696,78,70,0
97.463135,97.54498,80,70,0
97.55242,97.63427,81,70,0
97.64171,97.72356,83,70,0
97.730995,98.080696,85,70,0
98.088135,98.437836,81,70,0
98.44528,98.79498,80,70,0
98.80242,99.15212,83,70,0
99.15956,100.22355,81,70,0
100.23099,100.40212,83,83,0
100.40956,100.58069,85,85,0
100.58813,100.75926,88,87,0
100.7667,100.937836,86,89,0
100.945274,101.1164,85,92,0
101.12384,101.294975,86,94,0
101.302414,101.4821,85,96,0
101.489914,101.6696,83,98,0
101.677414,101.86908,82,100,0
101.87742,102.069084,83,85,0
102.077415,102.26908,81,70,0
102.27741,102.35926,93,70,0
102.3667,102.44855,92,70,0
102.455986,102.537834,93,70,0
102.54527,102.62711,92,70,0
102.63456,102.7164,93,70,0
102.72384,102.80569,92,70,0
102.813126,102.89497,93,70,0
102.90241,102.98426,92,70,0
102.9917,103.07355,90,70,0
103.080986,103.16283,88,70,0
103.17027,103.25211,86,70,0
103.25955,103.3414,85,70,0
103.34884,103.43069,83,70,0
103.438126,103.51997,81,70,0
103.52741,103.60926,80,70,0
103.6167,103.69854,81,70,0
103.705986,103.78783,83,70,0
103.795265,103.87711,85,70,0
103.88455,103.9664,86,70,0
103.97384,104.05569,85,70,0
104.063126,104.144966,83,70,0
104.15241,104.23425,81,70,0
104.2417,104.32354,80,70,0
104.33098,104.41283,81,70,0
104.420265,104.50211,83,70,0
104.50955,104.5914,81,70,0
104.59884,104.68068,80,70,0
104.688126,104.769966,76,70,0
104.77741,104.85925,78,70,0
104.86669,104.94854,80,70,0
104.95598,105.03783,81,70,0
105.045265,105.12711,76,70,0
105.13455,105.21639,78,70,0
105.22384,105.30568,80,70,0
105.31312,105.394966,81,70,0
105.402405,105.48425,83,70,0
105.49169,105.57354,85,70,0
105.58098,105.66283,83,70,0
105.670265,105.752106,81,70,0
105.75955,105.84139,80,70,0
105.84883,105.93068,78,70,0
105.93812,106.019966,76,70,0
106.027405,106.10925,74,70,0
106.11669,106.19854,73,70,0
106.20598,106.28782,71,70,0
106.295265,106.377106,69,70,0
106.384544,106.46639,68,70,0
106.47383,106.55568,69,70,0
106.56312,106.644966,71,70,0
106.652405,106.73425,73,70,0
106.74169,106.82353,74,70,0
106.83098,106.91282,73,70,0
106.92026,107.002106,71,70,0
107.009544,107.09139,69,70,0
107.09883,107.18068,68,70,0
107.18812,107.26996,69,70,0
107.277405,107.359245,71,70,0
107.36669,107.44853,69,70,0
107.45597,107.53782,68,70,0
107.54526,107.627106,64,70,0
107.634544,107.71639,66,70,0
107.72383,107.80567,68,70,0
107.81312,107.89496,69,70,0
107.902405,107.984245,71,70,0
107.991684,108.07353,73,70,0
108.08097,108.16282,71,71,0
108.17026,108.252106,69,71,0
108.259544,108.341385,71,72,0
108.34883,108.43067,73,72,0
108.43812,108.51996,71,73,0
108.5274,108.609245,69,73,0
108.616684,108.69853,71,74,0
108.70597,108.78782,73,74,0
108.79526,108.8771,71,75,0
108.884544,108.966385,69,75,0
108.97382,109.05567,71,76,0
109.06311,109.14496,73,76,0
109.1524,109.234245,71,77,0
109.241684,109.32353,69,77,0
109.33097,109.41281,71,78,0
109.42026,109.5021,73,78,0
109.50954,109.591385,71,79,0
109.59882,109.68067,69,79,0
109.68811,109.76996,71,80,0
109.7774,109.859245,73,80,0
109.866684,109.948524,71,81,0
109.95597,110.03781,69,81,0
110.04525,110.1271,71,82,0
110.13454,110.216385,73,82,0
110.22382,110.30567,71,83,0
110.31311,110.39496,69,83,0
110.4024,110.48424,73,84,0
110.491684,110.573524,71,84,0
110.58096,110.66281,69,85,0
110.67025,110.841385,68,85,0
110.84882,111.01995,76,86,0
110.84882,111.01995,68,86,0
111.0274,111.198524,76,87,0
111.0274,111.198524,68,87,0
111.56311,111.73424,69,90,0
111.56311,111.73424,76,90,0
111.74168,111.91281,69,91,0
111.74168,111.91281,76,91,0
112.27739,112.448524,71,94,0
112.27739,112.448524,76,94,0
112.45596,112.62709,71,95,0
112.45596,112.62709,76,95,0
113.0006,113.18029,73,98,0
113.0006,113.18029,76,98,0
113.1881,113.37725,66,99,0
113.1881,113.37725,73,99,0
113.385475,113.59083,66,100,0
113.385475,113.59083,73,100,0
113.599754,113.985176,66,110,0
113.599754,113.985176,71,110,0
114.43904,114.52089,71,120,0
114.52833,114.61017,73,120,0
114.617615,114.699455,75,120,0
114.7069,114.78874,76,120,0
114.79618,114.87803,78,120,0
114.88547,114.967316,80,120,0
114.974754,115.0566,82,120,0
115.06404,115.14588,83,120,0
115.15333,115.23517,83,120,0
115.24261,115.324455,85,120,0
115.331894,115.41374,87,120,0
115.42118,115.50303,88,120,0
115.51047,115.592316,90,120,0
115.599754,115.681595,92,120,0
115.68904,115.77088,94,120,0
115.77832,115.949455,95,120,0
115.956894,116.12803,90,120,0
116.13547,116.306595,87,120,0
116.31403,116.48517,83,120,0
116.49261,116.66374,78,120,0
116.67118,116.84231,75,120,0
116.84975,117.02088,71,120,0
117.02832,117.19945,66,120,0
117.206894,117.37802,63,120,0
117.38546,117.556595,59,120,0
117.56403,117.73516,54,120,0
117.74261,117.913734,51,120,0
117.92117,118.270874,47,120,0
118.27832,118.62802,59,120,0
120.77831,121.8423,61,60,0
120.77831,121.8423,64,60,0
121.84974,122.02087,61,60,0
121.84974,122.02087,64,60,0
121.84974,122.02087,66,60,0
122.028305,122.19944,61,60,0
122.028305,122.19944,64,60,0
122.028305,122.19944,66,60,0
122.20688,122.37801,61,60,0
122.20688,122.37801,64,60,0
122.20688,122.37801,66,60,0
122.38545,122.55658,61,60,0
122.38545,122.55658,64,60,0
122.38545,122.55658,66,60,0
122.56402,122.73515,59,60,0
122.56402,122.73515,64,60,0
122.56402,122.73515,68,60,0
122.74259,122.91373,59,60,0
122.74259,122.91373,64,60,0
122.74259,122.91373,68,60,0
122.921165,123.09229,57,60,0
122.921165,123.09229,64,60,0
122.921165,123.09229,69,60,0
123.09973,123.27087,57,60,0
123.09973,123.27087,64,60,0
123.09973,123.27087,69,60,0
123.278305,123.45799,59,60,0
123.278305,123.45799,64,60,0
123.278305,123.45799,68,60,0
123.465805,123.65747,59,60,0
123.465805,123.65747,64,60,0
123.465805,123.65747,68,60,0
123.6658,124.03299,61,60,0
123.6658,124.03299,64,60,0
123.6658,124.03299,66,60,0
124.0408,124.40799,61,60,0
124.0408,124.40799,64,60,0
124.0408,124.40799,66,60,0
126.594376,127.658356,61,60,0
126.594376,127.658356,64,60,0
127.6658,127.83693,61,60,0
127.6658,127.83693,64,60,0
127.6658,127.83693,66,60,0
127.84437,128.0155,61,60,0
127.84437,128.0155,64,60,0
127.84437,128.0155,66,60,0
128.02295,128.19408,61,60,0
128.02295,128.19408,64,60,0
128.02295,128.19408,66,60,0
128.2015,128.37265,61,60,0
128.2015,128.37265,64,60,0
128.2015,128.37265,66,60,0
128.38008,128.55121,59,60,0
128.38008,128.55121,64,60,0
128.38008,128.55121,68,60,0
128.55865,128.72978,59,60,0
128.55865,128.72978,64,60,0
128.55865,128.72978,68,60,0
128.73723,128.90836,58,60,0
128.73723,128.90836,64,60,0
128.73723,128.90836,70,60,0
128.9158,129.08693,58,60,0
128.9158,129.08693,64,60,0
128.9158,129.08693,70,60,0
129.09436,129.27405,59,60,0
129.09436,129.27405,64,60,0
129.09436,129.27405,68,60,0
129.28186,129.47354,59,60,0
129.28186,129.47354,64,60,0
129.28186,129.47354,68,60,0
129.48187,129.84906,61,60,0
129.48187,129.84906,64,60,0
129.48187,129.84906,66,60,0
129.85687,130.22406,61,60,0
129.85687,130.22406,64,60,0
129.85687,130.22406,66,60,0
130.98187,131.6887,67,70,0
131.69615,132.22443,66,78,0
130.98187,132.403,64,70,0
132.23186,132.403,67,85,0
132.41043,133.83156,64,87,0
132.41043,133.83156,68,87,0
133.839,134.54585,63,70,0
133.839,134.54585,66,70,0
134.55328,134.92047,66,70,0
134.55328,134.92047,69,70,0
134.92828,135.33101,66,70,0
135.33994,135.72646,66,70,0
135.73468,136.12119,64,70,0
137.57513,137.75482,76,87,0
137.66888,138.59857,88,90,0
138.60638,138.78607,87,110,0
138.79388,138.97357,85,110,0
138.98138,139.16107,83,110,0
139.16888,139.34857,82,110,0
139.35638,139.53607,83,110,0
139.54388,139.72357,82,110,0
139.73138,139.91107,83,110,0
139.91888,140.09001,82,110,0
140.09746,140.26859,83,110,0
140.27603,140.44716,81,110,0
140.4546,140.62573,83,110,0
140.63316,140.81285,80,110,0
140.82066,141.00035,83,110,0
141.00816,141.19983,78,110,0
141.20818,141.39984,83,110,0
141.40817,141.7793,76,70,0
142.85817,142.94002,76,70,0
142.94745,143.0293,78,70,0
143.03674,143.11858,80,70,0
143.12602,143.20787,81,70,0
143.2153,143.29715,83,70,0
143.3046,143.38644,85,70,0
143.39388,143.47572,87,70,0
143.48317,143.565,88,70,0
143.57245,143.6543,87,70,0
143.66174,143.74358,88,70,0
143.75102,143.83287,87,70,0
143.8403,143.92215,85,70,0
143.9296,144.01144,83,70,0
144.01888,144.10072,81,70,0
144.10817,144.19,80,70,0
144.19745,144.2793,78,70,0
144.28673,144.99358,76,80,0
145.00102,145.70786,71,80,0
145.7153,145.79715,76,70,0
145.80458,145.88643,78,70,0
145.89388,145.97572,80,70,0
145.98315,146.065,81,70,0
146.07245,146.1543,83,70,0
146.16173,146.24358,85,70,0
146.25102,146.33286,87,70,0
146.3403,146.42215,88,70,0
146.42958,146.51143,87,70,0
146.51888,146.60072,88,70,0
146.60815,146.69,87,70,0
146.69745,146.77928,85,70,0
146.78673,146.86858,83,70,0
146.876,146.95786,81,70,0
146.9653,147.04715,80,70,0
147.05458,147.13643,78,70,0
147.14388,147.315,80,70,0
147.32245,147.49358,83,71,0
147.67958,147.85071,83,73,0
147.85815,148.02928,85,75,0
148.03673,148.20786,85,76,0
148.39386,148.565,85,79,0
148.57243,148.74358,83,80,0
148.751,148.92213,83,81,0
149.10815,149.27928,83,84,0
149.28673,149.45786,87,85,0
149.46529,149.63643,87,86,0
149.64386,149.81499,87,88,0
149.82243,149.99356,87,89,0
150.001,150.17213,88,90,0
150.001,150.17213,76,90,0
150.17958,150.35071,83,92,0
150.17958,150.35071,71,92,0
150.53671,150.70786,83,94,0
150.53671,150.70786,71,94,0
150.71529,150.88641,85,95,0
150.71529,150.88641,73,95,0
150.89386,151.06499,85,97,0
150.89386,151.06499,73,97,0
151.251,151.42213,85,99,0
151.251,151.42213,73,99,0
151.42958,151.60071,83,101,0
151.42958,151.60071,71,101,0
151.60814,151.77928,83,102,0
151.60814,151.77928,71,102,0
151.96529,152.13641,83,105,0
151.96529,152.13641,71,105,0
152.14386,152.31499,87,106,0
152.14386,152.31499,75,106,0
152.32243,152.49356,87,107,0
152.32243,152.49356,75,107,0
152.501,152.67213,87,108,0
152.501,152.67213,75,108,0
152.67957,152.85071,87,110,0
152.67957,152.85071,75,110,0
152.85814,153.02927,88,120,0
152.85814,153.02927,76,120,0
153.03671,153.20784,88,120,0
153.03671,153.20784,76,120,0
153.39386,153.56499,87,120,0
153.39386,153.56499,75,120,0
153.75099,153.92213,88,120,0
153.75099,153.92213,76,120,0
154.10814,154.27927,87,120,0
154.10814,154.27927,75,120,0
154.46529,154.63641,88,120,0
154.46529,154.63641,76,120,0
154.82242,154.99356,87,120,0
154.82242,154.99356,75,120,0
155.18849,155.36818,88,120,0
155.18849,155.36818,76,120,0
155.57599,155.76765,87,120,0
155.57599,155.76765,75,120,0
155.776,156.16766,76,120,0
155.776,156.16766,80,120,0
155.776,156.16766,83,120,0
155.776,156.76765,88,120,0
156.776,156.96767,83,70,0
156.976,157.16766,85,70,0
157.176,157.36766,86,70,0
157.37599,158.36766,80,70,0
158.37599,158.46767,81,70,0
158.426,158.51765,80,70,0
158.476,158.56766,78,70,0
158.526,158.61766,80,70,0
158.57599,158.76765,81,70,0
158.776,158.96767,83,70,0
158.976,159.16766,74,70,0
159.176,159.35568,76,70,0
159.3635,159.54318,78,70,0
159.551,159.73068,71,70,0
159.7385,159.91818,73,70,0
159.926,160.09712,74,70,0
160.10457,160.2757,68,70,0
160.28314,160.45427,69,70,0
160.4617,160.63284,71,70,0
160.64027,160.8114,62,70,0
160.81885,160.98997,64,70,0
160.99742,161.16855,66,70,0
161.176,161.34712,59,70,0
163.67598,164.23067,56,70,0
164.23848,164.41817,56,70,0
164.42598,164.61765,57,65,0
164.62599,164.83134,59,60,0
164.84027,165.01996,61,50,0
164.84027,165.01996,57,50,0
164.84027,165.01996,52,50,0
165.02777,165.20746,61,50,0
165.02777,165.20746,57,50,0
165.02777,165.20746,52,50,0
165.21527,165.3864,57,50,0
165.21527,165.3864,61,50,0
165.21527,165.3864,52,50,0
165.39384,165.56497,57,50,0
165.39384,165.56497,61,50,0
165.39384,165.56497,52,50,0
165.57242,165.74355,59,50,0
165.57242,165.74355,62,50,0
165.57242,165.74355,52,50,0
165.75098,165.92212,59,50,0
165.75098,165.92212,62,50,0
165.75098,165.92212,52,50,0
165.92955,166.1007,56,50,0
165.92955,166.1007,62,50,0
165.92955,166.1007,52,50,0
166.10812,166.27925,62,50,0
166.10812,166.27925,56,50,0
166.10812,166.27925,52,50,0
166.2867,166.6364,52,50,0
166.2867,166.6364,57,50,0
166.2867,166.6364,61,50,0
167.71527,167.8864,54,50,0
167.71527,167.8864,59,50,0
167.71527,167.8864,62,50,0
167.89383,168.06497,54,50,0
167.89383,168.06497,59,50,0
167.89383,168.06497,62,50,0
168.0724,168.24353,54,50,0
168.0724,168.24353,59,50,0
168.0724,168.24353,62,50,0
168.25098,168.4221,54,50,0
168.25098,168.4221,59,50,0
168.25098,168.4221,62,50,0
168.42955,168.60068,54,50,0
168.42955,168.60068,59,50,0
168.42955,168.60068,62,50,0
168.60812,168.77925,54,50,0
168.60812,168.77925,59,50,0
168.60812,168.77925,62,50,0
168.7867,168.95782,54,50,0
168.7867,168.95782,59,50,0
168.7867,168.95782,62,50,0
168.96526,169.1364,54,50,0
168.96526,169.1364,59,50,0
168.96526,169.1364,62,50,0
169.14383,169.49353,52,50,0
169.14383,169.49353,59,50,0
169.14383,169.49353,62,50,0
170.5724,170.74353,61,50,0
170.5724,170.74353,57,50,0
170.5724,170.74353,52,50,0
170.75098,170.9221,61,52,0
170.75098,170.9221,57,52,0
170.75098,170.9221,52,52,0
170.92955,171.10068,57,55,0
170.92955,171.10068,61,55,0
170.92955,171.10068,52,55,0
171.10811,171.27925,57,57,0
171.10811,171.27925,61,57,0
171.10811,171.27925,52,57,0
171.28668,171.45781,59,60,0
171.28668,171.45781,62,60,0
171.28668,171.45781,52,60,0
171.46526,171.63638,59,62,0
171.46526,171.63638,62,62,0
171.46526,171.63638,52,62,0
171.64383,171.81496,56,65,0
171.64383,171.81496,62,65,0
171.64383,171.81496,52,65,0
171.8224,171.99353,62,67,0
171.8224,171.99353,56,67,0
171.8224,171.99353,52,67,0
172.00096,172.1721,52,70,0
172.00096,172.1721,57,70,0
172.00096,172.1721,61,70,0
172.17953,172.35068,52,72,0
172.17953,172.35068,57,72,0
172.17953,172.35068,61,72,0
172.35811,172.52924,52,75,0
172.35811,172.52924,57,75,0
172.35811,172.52924,61,75,0
172.53668,172.70781,52,77,0
172.53668,172.70781,57,77,0
172.53668,172.70781,61,77,0
172.71526,172.88638,52,80,0
172.71526,172.88638,57,80,0
172.71526,172.88638,61,80,0
172.89383,173.06496,52,82,0
172.89383,173.06496,57,82,0
172.89383,173.06496,61,82,0
173.07239,173.24353,52,85,0
173.07239,173.24353,57,85,0
173.07239,173.24353,61,85,0
173.25096,173.4221,52,88,0
173.25096,173.4221,57,88,0
173.25096,173.4221,61,88,0
173.42953,173.60066,57,90,0
173.42953,173.60066,54,90,0
173.42953,173.60066,62,90,0
173.60811,173.77924,57,93,0
173.60811,173.77924,54,93,0
173.60811,173.77924,62,93,0
173.78668,173.95781,59,95,0
173.78668,173.95781,54,95,0
173.78668,173.95781,62,95,0
173.96526,174.13638,59,98,0
173.96526,174.13638,54,98,0
173.96526,174.13638,62,98,0
174.14381,174.31496,57,100,0
174.14381,174.31496,59,100,0
174.14381,174.31496,52,100,0
174.32239,174.49352,57,103,0
174.32239,174.49352,59,103,0
174.32239,174.49352,52,103,0
174.50096,174.67209,56,104,0
174.50096,174.67209,64,105,0
174.50096,174.67209,52,105,0
174.67953,174.85066,56,107,0
174.67953,174.85066,64,108,0
174.67953,174.85066,52,108,0
174.85811,175.02924,52,110,0
174.85811,175.02924,57,110,0
174.85811,175.02924,61,110,0
175.03668,175.20781,73,70,0
175.12596,175.29709,76,70,0
175.21524,175.38638,74,70,0
175.30453,175.47566,78,70,0
175.39381,175.56494,76,70,0
175.48311,175.65424,80,70,0
175.57239,175.74352,78,70,0
175.66167,175.83281,81,70,0
175.75096,175.92209,80,70,0
175.84024,176.01138,83,70,0
175.92953,176.10066,81,70,0
176.01881,176.18994,85,70,0
176.10811,176.27924,83,70,0
176.19739,176.36852,86,70,0
176.28667,176.63637,85,70,0
176.64381,176.99352,81,70,0
177.00096,177.35066,80,70,0
177.3581,177.7078,83,70,0
177.71524,178.77922,81,70,0
178.78667,178.9578,83,70,0
178.96524,179.13637,85,70,0
179.14381,179.31494,88,70,0
179.32237,179.49352,86,70,0
179.50095,179.67209,85,70,0
179.67952,179.85065,86,70,0
179.8581,180.02922,85,70,0
180.03667,180.2078,83,70,0
180.21524,180.38637,82,70,0
180.3938,180.56494,83,70,0
180.57237,180.7435,81,70,0
180.75095,180.92207,80,70,0
180.92952,181.10065,78,70,0
181.1081,181.27922,80,70,0
181.28667,181.63637,76,70,0
181.6438,181.72565,78,70,0
181.7331,181.81493,80,70,0
181.82237,181.90422,81,70,0
181.91167,181.9935,83,70,0
182.00095,182.35065,85,70,0
182.3581,182.7078,81,70,0
182.71523,183.06493,80,70,0
183.07237,183.42207,83,70,0
183.42952,184.4935,81,70,0
184.50095,184.67207,83,83,0
184.6795,184.85065,85,85,0
184.85808,185.0292,88,87,0
185.03665,185.20778,86,89,0
185.21523,185.38635,85,92,0
185.3938,185.56493,86,94,0
185.57236,185.7435,85,96,0
185.75093,185.92207,83,98,0
185.9295,186.10063,82,100,0
186.10808,186.2792,83,85,0
186.28665,186.45778,81,70,0
186.46523,186.54706,93,70,0
186.5545,186.63635,92,70,0
186.64378,186.72563,93,70,0
186.73308,186.81493,92,70,0
186.82236,186.9042,93,70,0
186.91165,186.9935,92,70,0
187.00093,187.08278,93,70,0
187.09023,187.17206,92,70,0
187.1795,187.26135,90,70,0
187.26878,187.35063,88,70,0
187.35808,187.43993,86,70,0
187.44736,187.5292,85,70,0
187.53665,187.61848,83,70,0
187.62593,187.70778,81,70,0
187.71521,187.79706,80,70,0
187.8045,187.88635,81,70,0
187.89378,187.97563,83,70,0
187.98308,188.06491,85,70,0
188.07236,188.1542,86,70,0
188.16165,188.24348,85,70,0
188.25093,188.33278,83,70,0
188.34021,188.42206,81,70,0
188.4295,188.51135,80,70,0
188.51878,188.60063,81,70,0
188.60808,188.68991,83,70,0
188.69736,188.7792,81,70,0
188.78664,188.86848,80,70,0
188.87593,188.95778,76,70,0
188.96521,189.04706,78,70,0
189.0545,189.13634,80,70,0
189.14378,189.22563,81,70,0
189.23306,189.31491,76,70,0
189.32236,189.4042,78,70,0
189.41164,189.49348,80,70,0
189.50093,189.58278,81,70,0
189.59021,189.67206,83,70,0
189.6795,189.76134,85,70,0
189.76878,189.85063,83,70,0
189.85806,189.93991,81,70,0
189.94736,190.0292,80,70,0
190.03664,190.11848,78,70,0
190.12593,190.20776,76,70,0
190.21521,190.29706,74,70,0
190.30449,190.38634,73,70,0
190.39378,190.47563,71,70,0
190.48306,190.56491,69,70,0
190.57236,190.6542,68,70,0
190.66164,190.74348,69,70,0
190.75093,190.83276,71,70,0
190.84021,190.92206,73,70,0
190.92949,191.01134,74,70,0
191.01878,191.10063,73,70,0
191.10806,191.18991,71,70,0
191.19736,191.27919,69,70,0
191.28664,191.36848,68,70,0
191.37592,191.45776,69,70,0
191.46521,191.54706,71,70,0
191.55449,191.63634,69,70,0
191.64378,191.72562,68,70,0
191.73306,191.81491,64,70,0
191.82236,191.90419,66,70,0
191.91164,191.99348,68,70,0
192.00092,192.08276,69,70,0
192.09021,192.17206,71,70,0
192.17949,192.26134,73,70,0
192.26878,192.35062,71,71,0
192.35806,192.43991,69,71,0
192.44734,192.52919,71,72,0
192.53664,192.61848,73,72,0
192.62592,192.70776,71,73,0
192.71521,192.79704,69,73,0
192.80449,192.88634,71,74,0
192.89377,192.97562,73,74,0
192.98306,193.06491,71,75,0
193.07234,193.15419,69,75,0
193.16164,193.24348,71,76,0
193.25092,193.33276,73,76,0
193.34021,193.42204,71,77,0
193.42949,193.51134,69,77,0
193.51877,193.60062,71,78,0
193.60806,193.68991,73,78,0
193.69734,193.77919,71,79,0
193.78664,193.86847,69,79,0
193.87592,193.95776,71,80,0
193.9652,194.04704,73,80,0
194.05449,194.13634,71,81,0
194.14377,194.2297,69,81,0
194.23752,194.32346,71,82,0
194.33127,194.4172,73,82,0
194.42502,194.51096,71,83,0
194.51877,194.60924,69,83,0
194.61746,194.70792,73,84,0
194.71614,194.8066,71,84,0
194.81482,194.90529,69,85,0
194.91351,195.10265,68,85,0
195.11087,195.28201,76,86,0
195.11087,195.28201,68,86,0
195.28944,195.46057,76,87,0
195.28944,195.46057,68,87,0
195.82516,195.99629,69,90,0
195.82516,195.99629,76,90,0
196.00374,196.17487,69,91,0
196.00374,196.17487,76,91,0
196.53944,196.71057,71,94,0
196.53944,196.71057,76,94,0
196.71802,196.88914,71,95,0
196.71802,196.88914,76,95,0
197.25372,197.42487,73,98,0
197.25372,197.42487,76,98,0
197.4323,197.60342,66,99,0
197.4323,197.60342,73,99,0
197.61087,197.782,66,100,0
197.61087,197.782,73,100,0
197.78944,198.13914,66,110,0
197.78944,198.13914,71,110,0
198.59302,198.67485,71,120,0
198.6823,198.76414,73,120,0
198.77158,198.85342,75,120,0
198.86087,198.94272,76,120,0
198.95015,199.032,78,120,0
199.03944,199.12128,80,120,0
199.12872,199.21057,82,120,0
199.218,199.29985,83,120,0
199.3073,199.38914,83,120,0
199.39658,199.47842,85,120,0
199.48587,199.56772,87,120,0
199.57515,199.657,88,120,0
199.66444,199.74628,90,120,0
199.75372,199.83557,92,120,0
199.843,199.92485,94,120,0
199.9323,200.10342,95,120,0
200.11087,200.282,90,120,0
200.28943,200.46057,87,120,0
200.468,200.63914,83,120,0
200.64658,200.8177,78,120,0
200.82515,200.99628,75,120,0
201.00372,201.17485,71,120,0
201.1823,201.35342,66,120,0
201.36086,201.532,63,120,0
201.53943,201.71056,59,120,0
201.718,201.88913,54,120,0
201.89658,202.0677,51,120,0
202.07515,202.42485,47,120,0
202.43228,202.78198,59,120,0
204.93228,205.99626,61,60,0
204.93228,205.99626,64,60,0
206.00371,206.17484,61,60,0
206.00371,206.17484,64,60,0
206.00371,206.17484,66,60,0
206.18228,206.35341,61,60,0
206.18228,206.35341,64,60,0
206.18228,206.35341,66,60,0
206.36086,206.53198,61,60,0
206.36086,206.53198,64,60,0
206.36086,206.53198,66,60,0
206.53941,206.71056,61,60,0
206.53941,206.71056,64,60,0
206.53941,206.71056,66,60,0
206.71799,206.88913,59,60,0
206.71799,206.88913,64,60,0
206.71799,206.88913,68,60,0
206.89656,207.06769,59,60,0
206.89656,207.06769,64,60,0
206.89656,207.06769,68,60,0
207.07513,207.25482,57,60,0
207.07513,207.25482,64,60,0
207.07513,207.25482,69,60,0
207.26263,207.44232,57,60,0
207.26263,207.44232,64,60,0
207.26263,207.44232,69,60,0
207.45013,207.63928,59,60,0
207.45013,207.63928,64,60,0
207.45013,207.63928,68,60,0
207.6475,207.83664,59,60,0
207.6475,207.83664,64,60,0
207.6475,207.83664,68,60,0
207.84486,208.21205,61,60,0
207.84486,208.21205,64,60,0
207.84486,208.21205,66,60,0
208.21986,208.58705,61,60,0
208.21986,208.58705,64,60,0
208.21986,208.58705,66,60,0
210.80829,211.89822,61,60,0
210.80829,211.89822,64,60,0
211.90584,212.08115,61,60,0
211.90584,212.08115,64,60,0
211.90584,212.08115,66,60,0
212.08876,212.26407,61,60,0
212.08876,212.26407,64,60,0
212.08876,212.26407,66,60,0
212.2717,212.44699,61,60,0
212.2717,212.44699,64,60,0
212.2717,212.44699,66,60,0
212.45462,212.62993,61,60,0
212.45462,212.62993,64,60,0
212.45462,212.62993,66,60,0
212.63754,212.81285,59,60,0
212.63754,212.81285,64,60,0
212.63754,212.81285,68,60,0
212.82048,212.99577,59,60,0
212.82048,212.99577,64,60,0
212.82048,212.99577,68,60,0
213.0034,213.1877,58,60,0
213.0034,213.1877,64,60,0
213.0034,213.1877,70,60,0
213.19571,213.38,58,60,0
213.19571,213.38,64,60,0
213.19571,213.38,70,60,0
213.38802,213.58228,59,60,0
213.38802,213.58228,64,60,0
213.38802,213.58228,68,60,0
213.59071,213.78497,59,60,0
213.59071,213.78497,64,60,0
213.59071,213.78497,68,60,0
213.79343,214.16061,61,60,0
213.79343,214.16061,64,60,0
213.79343,214.16061,66,60,0
214.16843,214.53561,61,60,0
214.16843,214.53561,64,60,0
214.16843,214.53561,66,60,0
215.29343,216.03561,67,70,0
216.04343,216.59811,66,78,0
215.29343,216.78561,64,70,0
216.60593,216.78561,67,85,0
216.79343,218.28561,64,87,0
216.79343,218.28561,68,87,0
218.29343,219.03561,63,70,0
218.29343,219.03561,66,70,0
219.04343,219.41061,66,70,0
219.04343,219.41061,69,70,0
219.41843,219.79506,66,70,0
219.80328,220.22293,66,70,0
220.23186,220.6515,64,70,0
222.17383,222.35352,76,87,0
222.26758,223.19727,88,90,0
223.20508,223.38477,87,110,0
223.39258,223.57227,85,110,0
223.58008,223.75977,83,110,0
223.76758,223.94727,82,110,0
223.95508,224.13477,83,110,0
224.14258,224.32227,82,110,0
224.33008,224.50977,83,110,0
224.51758,224.6887,82,110,0
224.69614,224.86728,83,110,0
224.87471,225.04584,81,110,0
225.05328,225.22441,83,110,0
225.23186,225.41154,80,110,0
225.41936,225.59904,83,110,0
225.60686,225.79852,78,110,0
225.80685,225.99852,83,110,0
226.00685,226.37799,76,70,0
227.45685,227.5387,76,70,0
227.54614,227.62799,78,70,0
227.63542,227.71727,80,70,0
227.72472,227.80655,81,70,0
227.814,227.89584,83,70,0
227.90327,227.98512,85,70,0
227.99257,228.07442,87,70,0
228.08185,228.1637,88,70,0
228.17114,228.25298,87,70,0
228.26042,228.34227,88,70,0
228.3497,228.43155,87,70,0
228.439,228.52084,85,70,0
228.52827,228.61012,83,70,0
228.61757,228.6994,81,70,0
228.70685,228.7887,80,70,0
228.79614,228.87798,78,70,0
228.88542,229.59227,76,80,0
229.5997,230.30655,71,80,0
230.314,230.39583,76,70,0
230.40327,230.48512,78,70,0
230.49255,230.5744,80,70,0
230.58185,230.6637,81,70,0
230.67113,230.75298,83,70,0
230.76042,230.84225,85,70,0
230.8497,230.93155,87,70,0
230.93898,231.02083,88,70,0
231.02827,231.11012,87,70,0
231.11755,231.1994,88,70,0
231.20685,231.2887,87,70,0
231.29613,231.37798,85,70,0
231.38542,231.46725,83,70,0
231.4747,231.55655,81,70,0
231.56398,231.64583,80,70,0
231.65327,231.73512,78,70,0
231.74255,231.91368,80,70,0
231.92113,232.09225,83,71,0
232.27827,232.4494,83,73,0
232.45685,232.62798,85,75,0
232.6354,232.80655,85,76,0
232.99255,233.16368,85,79,0
233.17113,233.34225,83,80,0
233.3497,233.52083,83,81,0
233.70683,233.87798,83,84,0
233.8854,234.05653,87,85,0
234.06398,234.2351,87,86,0
234.24255,234.41368,87,88,0
234.42113,234.59225,87,89,0
234.59969,234.77083,88,90,0
234.59969,234.77083,76,90,0
234.77826,234.9494,83,92,0
234.77826,234.9494,71,92,0
235.1354,235.30653,83,94,0
235.1354,235.30653,71,94,0
235.31398,235.4851,85,95,0
235.31398,235.4851,73,95,0
235.49255,235.66368,85,97,0
235.49255,235.66368,73,97,0
235.84969,236.02081,85,99,0
235.84969,236.02081,73,99,0
236.02826,236.19939,83,101,0
236.02826,236.19939,71,101,0
236.20683,236.37796,83,102,0
236.20683,236.37796,71,102,0
236.56398,236.7351,83,105,0
236.56398,236.7351,71,105,0
236.74254,236.91368,87,106,0
236.74254,236.91368,75,106,0
236.92111,237.09224,87,107,0
236.92111,237.09224,75,107,0
237.09969,237.27081,87,108,0
237.09969,237.27081,75,108,0
237.27826,237.44939,87,110,0
237.27826,237.44939,75,110,0
237.45683,237.62796,88,120,0
237.45683,237.62796,76,120,0
237.6354,237.80653,88,120,0
237.6354,237.80653,76,120,0
237.99254,238.16367,87,120,0
237.99254,238.16367,75,120,0
238.34969,238.52081,88,120,0
238.34969,238.52081,76,120,0
238.70683,238.87796,87,120,0
238.70683,238.87796,75,120,0
239.06396,239.23509,88,120,0
239.06396,239.23509,76,120,0
239.42111,239.59224,87,120,0
239.42111,239.59224,75,120,0
239.78719,239.96687,88,120,0
239.78719,239.96687,76,120,0
240.17204,240.36119,87,120,0
240.17204,240.36119,75,120,0
240.36942,240.75594,76,120,0
240.36942,240.75594,80,120,0
240.36942,240.75594,83,120,0
240.36942,241.34804,88,120,0
241.35626,241.5454,83,70,0
241.55362,241.74277,85,70,0
241.75099,241.94014,86,70,0
241.94836,242.92697,80,70,0
242.9352,243.02567,81,70,0
242.98454,243.075,80,70,0
243.03389,243.12434,78,70,0
243.08322,243.17369,80,70,0
243.13257,243.32172,81,70,0
243.32994,243.51907,83,70,0
243.5273,243.71645,74,70,0
243.72467,243.90436,76,70,0
243.91217,244.09186,78,70,0
244.09967,244.27936,71,70,0
244.28717,244.46686,73,70,0
244.47467,244.6458,74,70,0
244.65324,244.82437,68,70,0
244.83182,245.00294,69,70,0
245.01039,245.18152,71,70,0
245.18895,245.36009,62,70,0
245.36752,245.53867,64,70,0
245.5461,245.71722,66,70,0
245.72467,245.8958,59,70,0
248.22467,248.77936,56,70,0
248.78717,248.96686,56,70,0
248.97467,249.1638,57,65,0
249.17203,249.3774,59,60,0
249.38632,249.57062,52,70,0
249.38632,249.57062,60,70,0
249.57863,249.75609,60,70,0
249.57863,249.75609,64,70,0
249.76381,249.93494,60,70,0
249.76381,249.93494,64,70,0
249.94238,250.11351,60,70,0
249.94238,250.11351,64,70,0
250.12096,250.29208,62,70,0
250.12096,250.29208,65,70,0
250.29953,250.47066,62,70,0
250.29953,250.47066,65,70,0
250.47809,250.64923,62,70,0
250.47809,250.64923,64,70,0
250.65666,250.82779,62,70,0
250.65666,250.82779,64,70,0
250.83524,251.00636,60,70,0
250.83524,251.00636,64,70,0
251.01381,251.18494,69,76,0
251.01381,251.18494,60,76,0
251.19238,251.36351,62,82,0
251.19238,251.36351,69,82,0
251.37094,251.54208,62,88,0
251.37094,251.54208,69,88,0
251.54951,251.72066,62,94,0
251.54951,251.72066,67,94,0
251.54951,251.72066,70,94,0
251.72809,251.89922,62,100,0
251.72809,251.89922,67,100,0
251.72809,251.89922,70,100,0
251.90666,252.07779,61,100,0
251.90666,252.07779,67,100,0
251.90666,252.07779,69,100,0
252.08524,252.25636,61,80,0
252.08524,252.25636,67,80,0
252.08524,252.25636,69,80,0
252.26381,252.43494,62,70,0
252.26381,252.43494,65,70,0
252.26381,252.43494,69,70,0
252.44237,252.61351,65,70,0
252.44237,252.61351,69,70,0
252.62094,252.79208,65,70,0
252.62094,252.79208,69,70,0
252.79951,252.97064,65,70,0
252.79951,252.97064,69,70,0
252.97809,253.14922,67,70,0
252.97809,253.14922,69,70,0
253.15666,253.32779,67,70,0
253.15666,253.32779,69,70,0
253.33524,253.50636,67,70,0
253.33524,253.50636,69,70,0
253.5138,253.68494,67,70,0
253.5138,253.68494,69,70,0
253.69237,253.8635,65,70,0
253.69237,253.8635,69,70,0
253.87094,254.04207,66,76,0
253.87094,254.04207,69,76,0
253.87094,254.04207,74,76,0
254.04951,254.22064,67,82,0
254.04951,254.22064,74,82,0
254.22809,254.39922,67,88,0
254.22809,254.39922,74,88,0
254.40666,254.57779,67,94,0
254.40666,254.57779,72,94,0
254.40666,254.57779,75,94,0
254.58522,254.75636,67,100,0
254.58522,254.75636,72,100,0
254.58522,254.75636,75,100,0
254.7638,254.93492,66,100,0
254.7638,254.93492,72,100,0
254.7638,254.93492,74,100,0
254.94237,255.1135,66,80,0
254.94237,255.1135,72,80,0
254.94237,255.1135,74,80,0
255.12094,255.29207,67,50,0
255.12094,255.29207,71,50,0
255.12094,255.29207,74,50,0
256.5495,256.72064,79,50,0
256.5495,256.72064,67,50,0
256.7281,256.8992,79,50,0
256.7281,256.8992,67,50,0
256.90665,257.0778,79,50,0
256.90665,257.0778,67,50,0
257.08524,257.25635,79,50,0
257.08524,257.25635,67,50,0
257.2638,257.43494,79,50,0
257.2638,257.43494,67,50,0
257.44235,257.6135,79,50,0
257.44235,257.6135,67,50,0
257.62094,257.79205,79,50,0
257.62094,257.79205,67,50,0
257.7995,257.97064,79,50,0
257.7995,257.97064,67,50,0
257.9781,258.3278,67,50,0
257.9781,258.3278,79,50,0
259.40665,259.5778,79,50,0
259.40665,259.5778,67,50,0
259.5852,259.75635,79,50,0
259.5852,259.75635,67,50,0
259.7638,259.9349,79,50,0
259.7638,259.9349,67,50,0
259.94235,260.1135,79,50,0
259.94235,260.1135,67,50,0
260.12094,260.29205,79,50,0
260.12094,260.29205,67,50,0
260.2995,260.47064,79,50,0
260.2995,260.47064,67,50,0
260.47806,260.6492,79,50,0
260.47806,260.6492,67,50,0
260.65665,260.82776,79,50,0
260.65665,260.82776,67,50,0
260.8352,261.1849,67,50,0
260.8352,261.1849,79,50,0
261.5495,261.7206,79,56,0
261.5495,261.7206,67,56,0
261.72806,261.8992,79,58,0
261.72806,261.8992,67,58,0
261.90665,262.07776,79,59,0
261.90665,262.07776,67,59,0
262.0852,262.25635,79,61,0
262.0852,262.25635,67,61,0
262.97806,263.1492,79,69,0
262.97806,263.1492,67,69,0
263.15665,263.32776,79,71,0
263.15665,263.32776,67,71,0
263.3352,263.50635,79,73,0
263.3352,263.50635,67,73,0
263.51376,263.6849,79,74,0
263.51376,263.6849,67,74,0
264.0495,264.2206,67,79,0
264.0495,264.2206,79,79,0
264.22806,264.3992,67,81,0
264.22806,264.3992,79,81,0
264.76376,264.9349,67,86,0
264.76376,264.9349,79,86,0
264.94235,265.11346,67,87,0
264.94235,265.11346,79,87,0
265.47806,265.6492,69,92,0
265.47806,265.6492,77,92,0
265.47806,265.6492,81,92,0
265.65662,265.82776,69,94,0
265.65662,265.82776,77,94,0
265.65662,265.82776,81,94,0
266.2102,266.39935,71,99,0
266.2102,266.39935,79,99,0
266.2102,266.39935,77,99,0
266.2102,266.39935,83,99,0
266.40756,266.6129,71,100,0
266.40756,266.6129,79,100,0
266.40756,266.6129,77,100,0
266.40756,266.6129,83,100,0
266.62186,266.80154,72,120,0
266.62186,266.80154,76,120,0
266.62186,266.80154,79,120,0
266.62186,266.80154,84,120,0
266.80936,266.98047,64,120,0
266.80936,266.98047,67,120,0
266.9879,267.15906,64,120,0
266.9879,267.15906,67,120,0
267.1665,267.33762,64,120,0
267.1665,267.33762,67,120,0
267.34506,267.5162,62,120,0
267.34506,267.5162,65,120,0
267.34506,267.5162,67,120,0
267.52365,267.69476,62,120,0
267.52365,267.69476,65,120,0
267.52365,267.69476,67,120,0
267.7022,267.87335,59,120,0
267.7022,267.87335,62,120,0
267.7022,267.87335,67,120,0
267.88077,268.0519,59,120,0
267.88077,268.0519,62,120,0
267.88077,268.0519,67,120,0
268.05936,268.23047,60,120,0
268.05936,268.23047,64,120,0
268.05936,268.23047,67,120,0
268.2379,268.40906,60,120,0
268.2379,268.40906,64,120,0
268.2379,268.40906,67,120,0
268.4165,268.58762,60,120,0
268.4165,268.58762,64,120,0
268.4165,268.58762,67,120,0
268.59506,268.7662,60,120,0
268.59506,268.7662,64,120,0
268.59506,268.7662,67,120,0
268.77362,268.94476,62,120,0
268.77362,268.94476,65,120,0
268.77362,268.94476,67,120,0
268.9522,269.12332,62,120,0
268.9522,269.12332,65,120,0
268.9522,269.12332,67,120,0
269.13077,269.3019,59,120,0
269.13077,269.3019,62,120,0
269.13077,269.3019,67,120,0
269.30936,269.48047,59,120,0
269.30936,269.48047,62,120,0
269.30936,269.48047,67,120,0
269.4879,269.65906,60,120,0
269.4879,269.65906,64,120,0
269.4879,269.65906,67,120,0
269.6665,269.83762,64,120,0
269.6665,269.83762,67,120,0
269.84506,270.0162,64,120,0
269.84506,270.0162,67,120,0
270.02362,270.19476,64,120,0
270.02362,270.19476,67,120,0
270.2022,270.37332,62,120,0
270.2022,270.37332,65,120,0
270.2022,270.37332,67,120,0
270.38077,270.5519,62,120,0
270.38077,270.5519,65,120,0
270.38077,270.5519,67,120,0
270.55936,270.73047,59,120,0
270.55936,270.73047,62,120,0
270.55936,270.73047,67,120,0
270.7379,270.90906,59,120,0
270.7379,270.90906,62,120,0
270.7379,270.90906,67,120,0
270.91647,271.08762,60,120,0
270.91647,271.08762,64,120,0
270.91647,271.08762,67,120,0
271.09506,271.26617,60,120,0
271.09506,271.26617,64,120,0
271.09506,271.26617,67,120,0
271.27362,271.44476,60,120,0
271.27362,271.44476,64,120,0
271.27362,271.44476,67,120,0
271.4522,271.62332,60,120,0
271.4522,271.62332,64,120,0
271.4522,271.62332,67,120,0
271.63077,271.8019,60,120,0
271.63077,271.8019,64,120,0
271.63077,271.8019,70,120,0
271.80933,271.98047,60,120,0
271.80933,271.98047,64,120,0
271.80933,271.98047,70,120,0
271.9879,272.15906,60,120,0
271.9879,272.15906,64,120,0
271.9879,272.15906,70,120,0
272.16647,272.33762,60,120,0
272.16647,272.33762,64,120,0
272.16647,272.33762,70,120,0
272.34506,272.69476,60,120,0
272.34506,272.69476,65,120,0
272.34506,272.69476,69,120,0
273.77362,274.30188,89,120,0
273.77362,274.30188,77,120,0
274.30933,274.48047,89,120,0
274.30933,274.48047,77,120,0
274.4879,274.65903,88,120,0
274.4879,274.65903,76,120,0
274.66647,274.83762,86,120,0
274.66647,274.83762,74,120,0
274.84506,275.01617,84,120,0
274.84506,275.01617,72,120,0
275.02362,275.19476,82,120,0
275.02362,275.19476,70,120,0
275.20218,275.55188,81,120,0
275.20218,275.55188,69,120,0
275.91647,276.44473,82,120,0
275.91647,276.44473,70,120,0
276.45218,276.62332,82,120,0
276.45218,276.62332,70,120,0
276.63077,276.80188,81,120,0
276.63077,276.80188,69,120,0
276.80933,276.98047,79,120,0
276.80933,276.98047,67,120,0
276.9879,277.15903,77,120,0
276.9879,277.15903,65,120,0
277.16647,277.33762,76,120,0
277.16647,277.33762,64,120,0
277.34503,277.87332,74,120,0
277.34503,277.87332,62,120,0
277.88077,278.05188,86,120,0
277.88077,278.05188,74,120,0
278.05933,278.23047,84,120,0
278.05933,278.23047,72,120,0
278.23788,278.40903,83,120,0
278.23788,278.40903,71,120,0
278.41647,278.5876,81,120,0
278.41647,278.5876,69,120,0
278.59503,278.76617,79,120,0
278.59503,278.76617,67,120,0
278.77362,279.30188,77,120,0
278.77362,279.30188,65,120,0
279.30933,279.48047,89,120,0
279.30933,279.48047,77,120,0
279.48788,279.65903,88,120,0
279.48788,279.65903,76,120,0
279.66647,279.8376,86,120,0
279.66647,279.8376,74,120,0
279.84503,280.01617,84,120,0
279.84503,280.01617,72,120,0
280.02362,280.19473,83,120,0
280.02362,280.19473,71,120,0
280.20218,280.37332,81,120,0
280.20218,280.37332,69,120,0
280.38074,280.55188,93,120,0
280.38074,280.55188,81,120,0
280.55933,280.73044,91,120,0
280.55933,280.73044,79,120,0
280.73788,280.90903,89,120,0
280.73788,280.90903,77,120,0
280.91647,281.0876,76,120,0
280.91647,281.0876,88,120,0
281.09503,281.26617,74,120,0
281.09503,281.26617,86,120,0
281.2736,281.44473,72,120,0
281.2736,281.44473,84,120,0
281.45218,281.6233,71,120,0
281.45218,281.6233,83,120,0
281.63074,281.80188,69,120,0
281.63074,281.80188,81,120,0
281.80933,281.98044,79,120,0
281.98788,282.15903,77,120,0
282.16647,282.3376,76,120,0
282.34503,282.69473,74,120,0
283.7736,284.1233,67,115,0
283.7736,284.1233,72,115,0
283.7736,284.1233,76,115,0
285.27454,285.64172,69,70,0
285.27454,285.64172,74,70,0
285.27454,285.64172,77,70,0
286.77454,287.16104,65,50,0
286.77454,287.16104,71,50,0
286.77454,287.16104,74,50,0
288.3535,288.7032,63,50,0
288.71063,289.06033,60,50,0
289.06775,289.41748,59,50,0
289.4249,289.7746,62,50,0
289.78204,290.13174,63,50,0
290.1392,290.4889,60,50,0
290.49634,290.84604,61,50,0
290.8535,291.2032,64,50,0
291.2106,291.5603,65,50,0
291.56775,291.91745,62,50,0
291.9249,292.2746,63,50,0
292.28204,292.63174,66,50,0
292.6392,292.9889,67,50,0
292.99634,293.34604,64,50,0
293.35345,293.70316,65,50,0
293.7106,294.0603,68,50,0
294.06775,294.41745,69,50,0
294.4249,294.7746,66,50,0
294.78204,295.13174,69,50,0
295.1392,295.4889,65,50,0
295.4963,295.846,69,50,0
295.85345,296.20316,64,50,0
296.2106,296.5603,69,50,0
296.56775,297.11328,63,50,0
297.1211,297.48828,69,50,0
297.4961,297.87274,64,50,0
297.88098,298.2675,69,50,0
298.2757,298.67273,65,50,0
298.6814,299.0894,69,50,0
299.09808,299.5242,64,50,0
299.53366,300.00052,69,50,0
300.01096,300.31042,63,50,0
300.32346,300.56302,57,70,0
300.44846,300.6594,64,70,0
300.44846,300.6594,61,70,0
300.57346,300.75314,69,70,0
300.6672,300.8428,61,70,0
300.6672,300.8428,64,70,0
300.76096,300.93207,57,70,0
300.85022,301.02136,64,70,0
300.85022,301.02136,61,70,0
300.9395,301.11066,69,70,0
301.0288,301.19992,61,70,0
301.0288,301.19992,64,70,0
301.1181,301.2892,59,70,0
301.20737,301.3785,62,70,0
301.20737,301.3785,64,70,0
301.29666,301.4678,68,70,0
301.38596,301.4678,62,70,0
301.38596,301.55707,64,70,0
301.47522,301.64636,62,70,0
301.5645,301.73566,68,70,0
301.6538,301.82492,64,70,0
301.7431,301.82492,62,70,0
301.83237,302.0035,61,70,0
301.92166,302.0928,64,70,0
302.01096,302.18207,69,70,0
302.10022,302.27136,64,70,0
302.1895,302.36066,61,70,0
302.2788,302.44992,64,70,0
302.36807,302.5392,68,70,0
302.45737,302.6285,64,70,0
302.54666,302.71777,61,70,0
302.63596,302.80707,64,70,0
302.72522,302.89636,69,70,0
302.8145,302.98566,64,70,0
302.9038,303.07492,61,70,0
302.99307,303.1642,64,70,0
303.08237,303.2535,67,70,0
303.17166,303.2535,64,70,0
303.26096,303.43207,57,70,0
303.35022,303.52136,62,70,0
303.4395,303.61066,66,70,0
303.5288,303.69992,62,70,0
303.61807,303.7892,58,70,0
303.70737,303.8785,62,70,0
303.79666,303.96777,66,70,0
303.88593,304.05707,62,70,0
303.97522,304.14636,59,70,0
304.0645,304.23566,62,70,0
304.1538,304.32492,66,70,0
304.24307,304.4142,62,70,0
304.33237,304.5035,59,70,0
304.42166,304.59277,62,70,0
304.51093,304.68207,66,70,0
304.60022,304.77136,62,70,0
304.6895,304.86063,59,70,0
304.7788,304.94992,62,70,0
304.86807,305.0392,64,70,0
304.95737,305.1285,62,70,0
305.04666,305.21777,59,70,0
305.13593,305.30707,62,70,0
305.22522,305.39636,64,70,0
305.3145,305.48563,62,70,0
305.4038,305.57492,56,70,0
305.49307,305.6642,62,70,0
305.58237,305.7535,64,70,0
305.67166,305.84277,62,70,0
305.76093,305.93207,59,70,0
305.85022,306.02136,62,70,0
305.9395,306.11063,64,70,0
306.02878,306.11063,62,70,0
306.11807,306.2892,57,70,0
306.20737,306.37848,61,70,0
306.29666,306.46777,64,71,0
306.38593,306.55707,61,72,0
306.47522,306.64636,57,73,0
306.5645,306.73563,61,74,0
306.65378,306.82492,64,75,0
306.74307,306.9142,61,75,0
306.83237,307.00348,59,76,0
306.92166,307.09277,62,77,0
307.01093,307.18207,64,78,0
307.10022,307.27136,62,79,0
307.1895,307.36063,56,80,0
307.27878,307.44992,62,81,0
307.36807,307.5392,64,81,0
307.45737,307.62848,62,82,0
307.54663,307.71777,57,83,0
307.63593,307.80707,61,84,0
307.72522,307.89636,64,85,0
307.8145,307.98563,61,86,0
307.90378,308.07492,57,87,0
307.99307,308.1642,61,87,0
308.08237,308.25348,64,88,0
308.17163,308.34277,61,89,0
308.26093,308.43207,57,90,0
308.35022,308.52133,61,91,0
308.4395,308.61063,64,92,0
308.52878,308.69992,61,93,0
308.61807,308.7892,57,93,0
308.70737,308.87848,61,94,0
308.79663,308.96777,64,95,0
308.88593,309.05707,61,96,0
308.97522,309.14633,57,97,0
309.0645,309.23563,62,98,0
309.15378,309.32492,66,98,0
309.24307,309.4142,62,99,0
309.33237,309.50348,59,100,0
309.42163,309.59277,62,101,0
309.51093,309.68207,66,102,0
309.60022,309.77133,62,103,0
309.68948,309.86063,56,104,0
309.77878,309.94992,62,104,0
309.86807,310.03918,64,105,0
309.95737,310.12848,62,106,0
310.04663,310.21777,56,107,0
310.13593,310.30707,62,108,0
310.22522,310.39633,64,109,0
310.31448,310.39633,62,110,0
310.40378,310.57492,57,110,0
310.40378,310.57492,61,110,0
310.40378,310.57492,64,110,0
310.58237,310.75348,73,70,0
310.67163,310.84277,76,70,0
310.76093,310.93207,74,70,0
310.85022,311.02133,78,70,0
310.93948,311.11063,76,70,0
311.02878,311.19992,80,70,0
311.11807,311.28918,78,70,0
311.20734,311.37848,81,70,0
311.29663,311.46777,80,70,0
311.38593,311.56116,83,70,0
311.47522,311.6549,81,70,0
311.56897,311.75317,85,70,0
311.66272,311.85184,83,70,0
311.76138,311.85184,86,70,0
311.86008,312.22858,85,70,0
312.23602,312.58572,81,70,0
312.59317,312.94287,80,70,0
312.9503,313.3,83,70,0
313.30743,314.37143,81,70,0
314.37888,314.55,83,70,0
314.55743,314.72858,85,70,0
314.73602,314.90714,88,70,0
314.91458,315.08572,86,70,0
315.09314,315.26428,85,70,0
315.27173,315.44284,86,70,0
315.4503,315.62143,85,70,0
315.62888,315.8,83,70,0
315.80743,315.97858,82,70,0
315.986,316.15714,83,70,0
316.16458,316.3357,81,70,0
316.34314,316.51428,80,70,0
316.52173,316.69284,78,70,0
316.7003,316.87143,80,70,0
316.87888,317.22858,76,70,0
317.236,317.31784,78,70,0
317.3253,317.40714,80,70,0
317.41458,317.49643,81,70,0
317.50385,317.5857,83,60,0
317.59314,317.94284,85,70,0
317.9503,318.3,81,70,0
318.30743,318.65714,80,70,0
318.66458,319.01428,83,70,0
319.0217,320.0857,81,70,0
320.09314,320.26428,83,83,0
320.2717,320.44284,85,85,0
320.4503,320.6214,88,87,0
320.62885,320.8,86,89,0
320.80743,320.97855,85,92,0
320.986,321.15714,86,94,0
321.16455,321.3357,85,96,0
321.34314,321.51425,83,98,0
321.5217,321.69284,82,100,0
321.7003,321.8714,83,90,0
321.87885,322.05,81,70,0
322.05743,322.13925,93,70,0
322.1467,322.22855,92,70,0
322.236,322.31784,93,70,0
322.3253,322.40714,92,70,0
322.41455,322.4964,93,70,0
322.50385,322.5857,92,70,0
322.59314,322.675,93,70,0
322.6824,322.76425,92,70,0
322.7717,322.85355,90,70,0
322.861,322.94284,88,70,0
322.9503,323.03214,86,70,0
323.03955,323.1214,85,70,0
323.12885,323.2107,83,70,0
323.21814,323.3,81,70,0
323.3074,323.38925,80,70,0
323.3967,323.47855,81,70,0
323.486,323.56784,83,70,0
323.5753,323.6571,85,70,0
323.66455,323.7464,86,70,0
323.75385,323.8357,85,70,0
323.84314,323.925,83,70,0
323.9324,324.01425,81,70,0
324.0217,324.10355,80,70,0
324.111,324.19284,81,70,0
324.2003,324.2821,83,70,0
324.28955,324.3714,81,70,0
324.37885,324.4607,80,70,0
324.46814,324.55,76,70,0
324.5574,324.63925,78,70,0
324.6467,324.72855,80,70,0
324.736,325.0857,81,70,0
325.45026,325.79996,64,70,0
325.45026,325.79996,73,70,0
326.16455,326.51425,64,70,0
326.16455,326.51425,74,70,0
326.87885,327.22855,64,70,0
326.87885,327.22855,74,70,0
327.5931,327.76425,64,70,0
327.5931,327.76425,73,70,0
327.7717,327.9428,73,70,0
327.7717,327.9428,61,70,0
327.95026,328.1214,73,71,0
327.95026,328.1214,61,71,0
328.48596,328.6571,74,73,0
328.48596,328.6571,62,73,0
328.66455,328.83566,74,74,0
328.66455,328.83566,62,74,0
329.20026,329.3714,76,77,0
329.20026,329.3714,64,77,0
329.37885,329.54996,76,77,0
329.37885,329.54996,64,77,0
329.5574,329.72855,76,78,0
329.5574,329.72855,64,78,0
329.73596,329.9071,78,79,0
329.73596,329.9071,66,79,0
329.91455,330.08566,78,80,0
329.91455,330.08566,66,80,0
330.0931,330.26425,78,80,0
330.0931,330.26425,66,80,0
330.2717,330.4428,78,81,0
330.2717,330.4428,66,81,0
330.45026,330.5321,74,82,0
330.53955,330.6214,76,82,0
330.6288,330.71066,78,83,0
330.7181,330.79996,76,83,0
330.8074,330.88925,74,84,0
330.8967,330.97852,76,84,0
330.98596,331.0678,78,84,0
331.07526,331.1571,76,85,0
331.16455,331.2464,74,85,0
331.2538,331.33566,76,86,0
331.3431,331.42496,78,86,0
331.4324,331.51425,76,86,0
331.5217,331.60352,74,87,0
331.61096,331.6928,76,87,0
331.70026,331.7821,78,88,0
331.78955,331.8714,76,88,0
331.8788,331.96066,74,88,0
331.9681,332.04996,76,89,0
332.0574,332.13925,78,89,0
332.14667,332.22852,76,89,0
332.23596,332.3178,74,90,0
332.32526,332.4071,76,90,0
332.41455,332.49637,78,91,0
332.5038,332.58566,76,91,0
332.5931,332.67694,74,91,0
332.68457,332.7684,76,92,0
332.77603,332.85986,78,92,0
332.8675,332.95135,76,93,0
332.95895,333.0449,74,93,0
333.0527,333.13864,78,93,0
333.14645,333.2369,76,94,0
333.24515,333.3356,74,94,0
333.34384,333.53296,73,95,0
334.7912,334.87305,86,70,0
334.8805,334.9623,88,70,0
334.96976,335.0516,90,70,0
335.05905,335.1409,88,70,0
335.14835,335.2302,86,70,0
335.2376,335.31946,88,70,0
335.3269,335.40875,90,70,0
335.4162,335.49805,88,70,0
335.5055,335.5873,86,70,0
335.59476,335.6766,88,70,0
335.68405,335.7659,90,70,0
335.77335,335.8552,88,70,0
335.8626,335.94446,86,70,0
335.9519,336.03375,90,70,0
336.0412,336.12305,88,70,0
336.13046,336.2123,86,70,0
336.21976,336.3016,85,110,0
336.30905,336.3909,88,110,0
336.39835,336.48016,86,110,0
336.4876,336.56946,85,110,0
336.5769,336.65875,86,110,0
336.6662,336.74805,88,110,0
336.6662,336.74805,86,110,0
336.75546,336.8373,90,110,0
336.84476,336.9266,92,110,0
336.93405,337.0159,93,110,0
337.02335,337.10516,92,110,0
337.1126,337.19446,93,110,0
337.2019,337.28375,92,110,0
337.2912,337.37305,93,110,0
337.38046,337.4623,90,110,0
337.46976,337.5516,88,110,0
337.55905,337.6409,87,110,0
337.64835,337.81946,88,110,0
338.4519,338.53375,76,120,0
338.5412,338.62302,78,120,0
338.63046,338.7123,80,120,0
338.71976,338.8016,81,120,0
338.80905,338.8909,83,120,0
338.89832,338.98016,85,120,0
338.9876,339.06946,87,120,0
339.0769,339.15875,88,120,0
339.1662,339.24802,80,120,0
339.25546,339.3373,81,120,0
339.34476,339.4266,83,120,0
339.43405,339.5159,85,120,0
339.52332,339.60516,87,120,0
339.6126,339.69446,88,120,0
339.7019,339.78375,90,120,0
339.79117,339.87302,92,120,0
339.88046,339.9623,83,120,0
339.96976,340.0516,85,120,0
340.05905,340.14087,87,120,0
340.14832,340.23016,88,120,0
340.2376,340.31946,90,120,0
340.3269,340.40875,92,120,0
340.41617,340.49802,93,120,0
340.50546,340.6766,95,120,0
340.68405,340.85516,92,120,0
340.8626,341.03375,88,120,0
341.04117,341.2123,83,120,0
341.21976,341.39087,80,120,0
341.39832,341.56946,76,120,0
341.5769,341.74802,71,120,0
341.75546,341.9266,68,120,0
341.93402,342.28372,64,120,0
342.29117,342.64087,52,100,0
344.79117,345.85516,54,70,0
344.79117,345.85516,57,70,0
345.8626,346.03372,66,70,0
345.8626,346.03372,69,70,0
345.8626,346.03372,71,70,0
346.04117,346.2123,66,70,0
346.04117,346.2123,69,70,0
346.04117,346.2123,71,70,0
346.21973,346.39087,66,70,0
346.21973,346.39087,69,70,0
346.21973,346.39087,71,70,0
346.39832,346.56943,66,70,0
346.39832,346.56943,69,70,0
346.39832,346.56943,71,70,0
346.57687,346.74802,64,70,0
346.57687,346.74802,69,70,0
346.57687,346.74802,73,70,0
346.75546,346.92657,64,70,0
346.75546,346.92657,69,70,0
346.75546,346.92657,73,70,0
346.93402,347.1137,62,70,0
346.93402,347.1137,69,70,0
346.93402,347.1137,74,70,0
347.12152,347.3012,62,70,0
347.12152,347.3012,69,70,0
347.12152,347.3012,74,70,0
347.30902,347.49817,64,70,0
347.30902,347.49817,69,70,0
347.30902,347.49817,73,70,0
347.50638,347.69553,64,70,0
347.50638,347.69553,69,70,0
347.50638,347.69553,73,70,0
347.70377,348.09027,66,70,0
347.70377,348.09027,69,70,0
347.70377,348.09027,71,70,0
348.09848,348.48502,69,70,0
348.09848,348.48502,66,70,0
348.09848,348.48502,71,70,0
350.7827,351.8999,54,70,0
350.7827,351.8999,57,70,0
351.9077,352.0874,66,70,0
351.9077,352.0874,69,70,0
351.9077,352.0874,71,70,0
352.0952,352.2749,66,70,0
352.0952,352.2749,69,70,0
352.0952,352.2749,71,70,0
352.2827,352.4624,66,70,0
352.2827,352.4624,69,70,0
352.2827,352.4624,71,70,0
352.4702,352.6499,66,70,0
352.4702,352.6499,69,70,0
352.4702,352.6499,71,70,0
352.6577,352.8374,64,70,0
352.6577,352.8374,69,70,0
352.6577,352.8374,73,70,0
352.8452,353.0249,64,70,0
352.8452,353.0249,69,70,0
352.8452,353.0249,73,70,0
353.0327,353.22183,63,70,0
353.0327,353.22183,69,70,0
353.0327,353.22183,75,70,0
353.23007,353.41922,63,70,0
353.23007,353.41922,69,70,0
353.23007,353.41922,75,70,0
353.42743,353.6271,64,70,0
353.42743,353.6271,69,70,0
353.42743,353.6271,73,70,0
353.63577,353.83542,64,70,0
353.63577,353.83542,69,70,0
353.63577,353.83542,73,70,0
353.84412,354.25208,66,70,0
353.84412,354.25208,69,70,0
353.84412,354.25208,71,70,0
354.26077,354.66876,69,70,0
354.26077,354.66876,66,70,0
354.26077,354.66876,71,70,0
355.51077,356.33542,72,70,0
355.51077,356.33542,60,70,0
356.3441,356.89877,71,85,0
356.3441,356.89877,59,85,0
356.9066,357.08627,72,96,0
356.9066,357.08627,60,96,0
357.0941,358.58627,73,100,0
357.0941,358.58627,61,100,0
358.5941,359.71127,74,70,0
358.5941,359.71127,62,70,0
359.7191,360.11612,71,70,0
359.7191,360.11612,59,70,0
360.12482,360.53278,71,70,0
360.12482,360.53278,59,70,0
360.54147,360.94946,69,70,0
362.54147,363.47116,69,70,0
362.54147,363.47116,81,70,0
363.47897,363.65866,80,70,0
363.66647,363.84616,78,74,0
363.85397,364.03366,76,78,0
364.04147,364.22116,75,83,0
364.22897,364.40866,76,87,0
364.41647,364.59616,75,92,0
364.60397,364.78366,76,96,0
364.79147,364.97116,75,100,0
364.97897,365.15866,76,110,0
365.16647,365.34616,74,110,0
365.35397,365.53366,76,110,0
365.54147,365.73062,73,110,0
365.73883,365.92798,76,110,0
365.9362,366.14157,71,110,0
366.15048,366.35583,76,90,0
366.36478,366.73328,69,70,0
367.81213,367.89398,69,70,0
367.90143,367.98328,71,70,0
367.99072,368.07254,73,70,0
368.08,368.16183,74,70,0
368.16928,368.25113,76,70,0
368.25858,368.34042,78,70,0
368.34784,368.4297,80,70,0
368.43713,368.51898,81,70,0
368.52643,368.60828,80,70,0
368.6157,368.69754,81,70,0
368.705,368.78683,80,70,0
368.79428,368.87613,78,70,0
368.88358,368.96542,76,70,0
368.97284,369.0547,74,70,0
369.06213,369.14398,73,70,0
369.15143,369.23328,71,70,0
369.2407,369.94754,69,70,0
369.955,370.66183,64,70,0
370.66928,370.75113,69,70,0
370.75854,370.8404,71,70,0
370.84784,370.9297,73,70,0
370.93713,371.01898,74,70,0
371.02643,371.10825,76,70,0
371.1157,371.19754,78,70,0
371.205,371.28683,80,70,0
371.29428,371.37613,81,70,0
371.38354,371.4654,80,70,0
371.47284,371.5547,81,70,0
371.56213,371.64398,80,70,0
371.65143,371.73325,78,70,0
371.7407,371.82254,76,70,0
371.83,371.91183,74,70,0
371.91928,372.00113,73,70,0
372.00854,372.0904,71,70,0
372.09784,372.26898,73,70,0
372.2764,372.44754,73,71,0
372.63354,372.8047,73,75,0
372.81213,372.98325,78,76,0
372.9907,373.16183,78,78,0
373.34784,373.51898,78,82,0
373.5264,373.69754,76,83,0
373.705,373.8761,76,85,0
374.06213,374.23325,76,89,0
374.2407,374.41183,80,90,0
374.41925,374.5904,80,92,0
374.59784,374.76895,80,94,0
374.7764,374.94754,80,96,0
374.955,375.1261,81,97,0
374.955,375.1261,69,97,0
375.13354,375.3047,81,99,0
375.13354,375.3047,69,99,0
375.4907,375.66183,81,103,0
375.4907,375.66183,69,103,0
375.66925,375.8404,78,104,0
375.66925,375.8404,66,104,0
375.84784,376.01895,78,106,0
375.84784,376.01895,66,106,0
376.205,376.3761,78,110,0
376.205,376.3761,66,110,0
376.38354,376.5547,76,120,0
376.38354,376.5547,64,120,0
378.6157,378.69754,73,120,0
378.70496,378.7868,74,120,0
378.79425,378.8761,76,120,0
378.88354,378.9654,78,120,0
378.97284,379.05466,76,120,0
379.0621,379.14395,78,120,0
379.1514,379.23325,80,120,0
379.2407,379.32254,81,120,0
379.32996,379.41925,76,120,0
379.41925,379.50854,78,120,0
379.50854,379.5978,80,120,0
379.5978,379.6871,81,120,0
379.6871,379.7764,80,120,0
379.7764,379.8657,81,120,0
379.8657,379.95496,83,120,0
379.95496,380.04425,85,120,0
380.04425,380.13354,80,120,0
380.13354,380.2228,81,120,0
380.2228,380.3121,83,120,0
380.3121,380.40585,85,120,0
380.40585,380.4996,83,120,0
380.4996,380.5983,85,120,0
380.5983,380.697,86,120,0
380.697,381.6756,88,120,0
381.6838,381.87296,85,70,0
381.8812,382.07034,86,70,0
382.07855,382.2677,88,70,0
382.2759,382.46506,81,70,0
382.4733,382.65298,83,70,0
382.6608,382.84048,85,70,0
382.8483,383.02798,76,70,0
383.0358,383.21548,80,70,0
383.2233,383.3944,81,70,0
383.40186,383.573,73,70,0
383.58044,383.75156,74,70,0
383.759,383.93015,76,70,0
383.93756,384.1087,69,70,0
384.11615,384.28726,71,70,0
384.2947,384.46585,73,70,0
384.4733,384.6444,64,70,0
384.65186,384.823,68,70,0
384.8304,385.00156,69,70,0
385.009,385.1801,61,70,0
385.18756,385.3587,62,70,0
385.36615,385.53726,64,70,0
385.5447,385.71585,57,70,0
385.72327,385.8944,59,70,0
385.90186,386.073,61,70,0
388.93756,389.1087,64,70,0
389.11612,389.28726,66,70,0
389.2947,389.46582,68,70,0
389.47327,389.6444,69,70,0
389.65186,389.82297,71,70,0
389.8304,390.00156,73,70,0
390.00897,390.1801,74,70,0
390.18756,390.35867,76,70,0
390.36612,390.53726,75,70,0
390.5447,390.71582,76,70,0
390.72327,390.8944,74,70,0
390.90186,391.07297,73,70,0
391.0804,391.25156,71,70,0
391.25897,391.4301,69,70,0
391.43756,391.60867,68,70,0
391.61612,391.78726,69,70,0
391.7947,391.96582,69,70,0
391.97327,392.1444,71,70,0
392.15182,392.32297,73,70,0
392.3304,392.50153,76,70,0
392.50897,392.6801,74,74,0
392.68756,392.85867,73,78,0
392.86612,393.03726,74,83,0
393.04468,393.21582,73,87,0
393.22327,393.3944,71,92,0
393.40182,393.57297,70,96,0
393.5804,393.75153,71,100,0
393.75897,393.9301,69,100,0
393.93756,394.10867,68,96,0
394.11612,394.28726,66,92,0
394.29468,394.46582,68,87,0
394.47327,394.64438,69,83,0
394.65182,394.76343,69,78,0
394.71136,394.82297,71,77,0
394.77087,394.88248,69,76,0
394.8304,395.00153,71,74,0
395.00897,395.1801,73,70,0
395.18753,395.35867,76,70,0
395.36612,395.53723,74,74,0
395.54468,395.71582,73,78,0
395.72327,395.89438,74,83,0
395.90182,396.07297,73,87,0
396.0804,396.25153,71,92,0
396.25897,396.4301,70,96,0
396.43753,396.60867,71,100,0
396.61612,396.78723,69,100,0
396.79468,396.96582,68,96,0
396.97327,397.14438,66,92,0
397.15182,397.32297,68,87,0
397.33038,397.50153,69,83,0
397.50897,397.62057,69,78,0
397.56848,397.68008,71,77,0
397.62802,397.73962,69,76,0
397.68753,397.85867,71,74,0
397.86612,398.03723,73,70,0
398.04468,398.21582,76,70,0
398.22327,398.39438,74,70,0
398.40182,398.57297,73,70,0
398.58038,398.75153,74,70,0
398.75897,398.93008,76,70,0
398.93753,399.10867,75,70,0
399.11612,399.2914,74,70,0
399.29904,399.47433,75,70,0
399.48196,399.65726,76,70,0
399.6649,399.75082,78,78,0
399.75864,399.84457,80,83,0
399.8524,399.94284,81,87,0
399.95108,400.04153,83,91,0
400.04974,400.14023,85,96,0
400.14844,400.2389,86,100,0
400.24713,400.63364,88,110,0
400.64185,401.0615,80,110,0
405.4741,405.6452,47,70,0
405.65265,405.8238,49,70,0
405.83124,406.00235,50,70,0
406.0098,406.18094,52,70,0
406.18835,406.3595,54,70,0
406.36694,406.5381,56,70,0
406.5455,406.71664,57,70,0
406.7241,406.8952,59,70,0
406.90265,407.0738,61,70,0
407.08124,407.25235,62,70,0
407.2598,407.43094,64,70,0
407.43835,407.6095,66,70,0
407.61694,407.78806,68,70,0
407.7955,407.96664,69,70,0
407.9741,408.1452,71,70,0
408.15265,408.3238,73,70,0
408.3312,408.50235,74,70,0
408.5098,408.6809,75,70,0
408.68835,408.8595,76,70,0
408.86694,409.03806,77,70,0
409.0455,409.21664,78,70,0
409.2241,409.3952,71,70,0
409.40265,409.58234,76,70,0
409.59015,409.7793,74,70,0
409.7875,410.14615,73,70,0
410.1536,410.5033,69,70,0
410.51074,410.86044,68,70,0
410.86786,411.21756,71,70,0
411.225,412.289,69,70,0
412.29645,412.64615,79,70,0
412.6536,413.3604,78,70,0
413.36786,414.0747,77,87,0
414.08215,415.14615,76,100,0
415.0643,415.2354,79,76,0
415.15356,415.50327,91,74,0
415.42142,415.59256,78,72,0
415.5107,416.21756,90,70,0
416.1357,416.30685,77,84,0
416.225,416.93185,89,87,0
416.85,417.02112,76,94,0
416.93927,418.00327,88,100,0
417.92142,418.09256,79,76,0
418.0107,418.3604,91,74,0
418.27856,418.4497,78,73,0
418.36786,419.0747,90,70,0
418.99286,419.16397,81,79,0
419.08212,419.78897,93,78,0
419.70712,419.88025,81,92,0
419.79642,420.52945,93,87,0
420.4435,420.62775,81,100,0
420.53726,421.34,93,100,0
421.2445,421.4346,81,79,0
421.34866,422.4216,93,70,0
422.42902,422.60016,92,70,0
422.6076,422.77872,90,70,0
422.6969,422.868,88,70,0
422.78616,422.9573,90,70,0
422.87546,423.0466,92,70,0
422.96475,423.13586,90,70,0
423.1433,423.85016,88,70,0
423.8576,424.2073,86,72,0
424.21475,424.38586,86,73,0
424.3933,424.56445,85,74,0
424.57187,424.743,84,74,0
424.75046,424.92157,85,75,0
424.92902,425.10016,88,75,0
425.1076,425.27872,86,76,0
425.28616,425.4573,78,77,0
425.46475,425.63586,83,77,0
425.6433,425.81445,83,78,0
425.82187,425.993,81,78,0
426.00046,426.17157,80,79,0
426.17902,426.35016,81,80,0
426.3576,426.5373,85,80,0
426.5451,426.7248,83,81,0
426.7326,426.92172,82,81,0
426.92996,427.1353,83,82,0
427.14426,427.3496,81,82,0
427.35852,427.54767,81,83,0
427.35852,427.54767,93,83,0
427.5559,427.72702,81,84,0
427.5559,427.72702,93,84,0
427.73447,427.9056,81,84,0
427.73447,427.9056,93,84,0
427.91306,428.08417,81,85,0
427.91306,428.08417,93,85,0
428.0916,428.26276,81,85,0
428.0916,428.26276,93,85,0
428.27017,428.4413,80,86,0
428.27017,428.4413,92,86,0
428.44876,428.61987,78,87,0
428.44876,428.61987,90,87,0
428.62732,428.79846,78,87,0
428.62732,428.79846,90,87,0
428.8059,428.97702,76,88,0
428.8059,428.97702,88,88,0
428.98447,429.1556,76,88,0
428.98447,429.1556,88,88,0
429.16302,429.33417,76,89,0
429.16302,429.33417,88,89,0
429.3416,429.51273,76,90,0
429.3416,429.51273,88,90,0
429.52017,429.6913,76,90,0
429.52017,429.6913,88,90,0
429.69876,429.86987,76,91,0
429.69876,429.86987,88,91,0
429.87732,430.04846,74,91,0
429.87732,430.04846,86,91,0
430.0559,430.22702,74,92,0
430.0559,430.22702,86,92,0
430.23447,430.4056,73,92,0
430.23447,430.4056,85,92,0
430.41302,430.58417,72,93,0
430.41302,430.58417,84,93,0
430.5916,430.76273,73,94,0
430.5916,430.76273,85,94,0
430.77017,430.9413,76,94,0
430.77017,430.9413,88,94,0
430.94876,431.11987,74,95,0
430.94876,431.11987,86,95,0
431.12732,431.29846,66,95,0
431.12732,431.29846,78,95,0
431.30588,431.47702,71,96,0
431.30588,431.47702,83,96,0
431.48447,431.65558,71,97,0
431.48447,431.65558,83,97,0
431.66302,431.83417,69,97,0
431.66302,431.83417,81,97,0
431.8416,432.01273,68,98,0
431.8416,432.01273,80,98,0
432.02017,432.1913,69,98,0
432.02017,432.1913,81,98,0
432.19873,432.36987,73,99,0
432.19873,432.36987,85,99,0
432.37732,432.54846,71,100,0
432.37732,432.54846,83,100,0
432.55588,432.72702,70,100,0
432.55588,432.72702,82,100,0
432.73447,432.90558,71,101,0
432.73447,432.90558,83,101,0
432.91302,433.08417,74,101,0
433.00232,433.17343,86,102,0
433.0916,433.26273,73,102,0
433.18088,433.35202,85,102,0
433.27017,433.4413,72,103,0
433.35947,433.53058,84,103,0
433.44873,433.61987,73,103,0
433.53802,433.70917,85,103,0
433.62732,433.79843,76,104,0
433.7166,433.88773,88,104,0
433.80588,433.97702,74,104,0
433.89517,434.0663,86,105,0
433.98447,434.15558,66,105,0
434.07373,434.24487,78,105,0
434.16302,434.33417,71,105,0
434.25232,434.42343,83,106,0
434.34158,434.51273,71,106,0
434.43088,434.60202,83,106,0
434.52017,434.69128,69,107,0
434.60947,434.78058,81,107,0
434.69873,434.86987,68,107,0
434.78802,434.95917,80,108,0
434.87732,435.04843,69,108,0
434.96658,435.13773,81,108,0
435.05588,435.22702,73,108,0
435.14517,435.31628,85,109,0
435.23447,435.40558,71,109,0
435.32373,435.49487,83,109,0
435.41302,435.58417,70,110,0
435.50232,435.67343,82,110,0
435.59158,435.76273,71,110,0
435.68088,435.76273,83,110,0
435.77017,435.94128,73,120,0
435.85944,436.03058,85,120,0
435.94873,436.11987,81,120,0
436.03802,436.20917,93,120,0
436.12732,436.29843,81,120,0
436.21658,436.38773,93,120,0
436.30588,436.47702,81,120,0
436.39517,436.56628,93,120,0
436.48444,436.65558,81,120,0
436.57373,436.74487,93,120,0
436.66302,436.83414,81,120,0
436.75232,436.92343,93,120,0
436.84158,437.01273,78,120,0
436.93088,437.10202,90,120,0
437.02017,437.19128,75,120,0
437.10944,437.28058,87,120,0
437.19873,437.36987,76,120,0
437.28802,437.45914,88,120,0
437.37732,437.54843,76,120,0
437.46658,437.63773,88,120,0
437.55588,437.72702,73,120,0
437.64517,437.81628,85,120,0
437.73444,437.90558,69,120,0
437.82373,437.99896,81,120,0
437.91302,438.0927,76,120,0
437.91302,438.0927,73,120,0
438.00677,438.18646,88,120,0
438.00677,438.18646,85,120,0
438.10052,438.2802,76,120,0
438.19427,438.37848,88,120,0
438.28802,438.47717,64,120,0
438.3867,438.57584,76,120,0
438.48538,438.67453,64,120,0
438.58408,438.67453,76,120,0
438.68274,438.85806,64,120,0
438.77423,438.94952,69,120,0
438.77423,438.94952,73,120,0
438.8657,439.041,76,120,0
438.95715,439.13245,69,120,0
438.95715,439.13245,73,120,0
439.0486,439.2239,64,120,0
439.14008,439.31537,69,120,0
439.14008,439.31537,73,120,0
439.23154,439.40683,76,120,0
439.323,439.4983,69,120,0
439.323,439.4983,73,120,0
439.41446,439.58975,64,120,0
439.50592,439.6812,71,120,0
439.50592,439.6812,74,120,0
439.59738,439.7727,76,120,0
439.68884,439.86417,71,120,0
439.68884,439.86417,74,120,0
439.7803,439.95563,64,120,0
439.87177,440.0471,68,120,0
439.87177,440.0471,74,120,0
439.96323,440.13855,76,120,0
440.0547,440.13855,74,120,0
440.0547,440.13855,68,120,0
440.14618,440.32147,64,120,0
440.23764,440.41293,69,120,0
440.23764,440.41293,73,120,0
440.3291,440.5044,76,120,0
440.42056,440.59586,69,120,0
440.42056,440.59586,73,120,0
440.51202,440.68732,64,120,0
440.6035,440.77878,69,120,0
440.6035,440.77878,73,120,0
440.69495,440.87024,76,120,0
440.7864,440.9617,69,120,0
440.7864,440.9617,73,120,0
440.87787,441.05316,64,120,0
440.96933,441.14465,71,120,0
440.96933,441.14465,74,120,0
441.0608,441.2361,76,120,0
441.15225,441.32758,71,120,0
441.15225,441.32758,74,120,0
441.2437,441.41904,64,120,0
441.33517,441.5105,71,120,0
441.33517,441.5105,74,120,0
441.42664,441.60196,76,120,0
441.51813,441.60196,74,120,0
441.51813,441.60196,71,120,0
441.6096,441.78488,64,120,0
441.70105,441.87634,69,120,0
441.70105,441.87634,73,120,0
441.7925,441.9678,76,120,0
441.88397,442.05927,69,120,0
441.88397,442.05927,73,120,0
441.97543,442.15073,64,120,0
442.0669,442.2422,69,120,0
442.0669,442.2422,73,120,0
442.15836,442.33365,76,120,0
442.24982,442.4251,69,120,0
442.24982,442.4251,73,120,0
442.34128,442.5166,64,120,0
442.43274,442.60806,71,120,0
442.43274,442.60806,74,120,0
442.5242,442.69952,76,120,0
442.61566,442.791,71,120,0
442.61566,442.791,74,120,0
442.70712,442.88245,64,120,0
442.7986,442.9739,71,120,0
442.7986,442.9739,74,120,0
442.89008,443.06537,76,120,0
442.98154,443.06537,74,120,0
442.98154,443.06537,71,120,0
443.073,443.2483,64,120,0
443.16446,443.33975,69,120,0
443.16446,443.33975,73,120,0
443.25592,443.4312,76,120,0
443.34738,443.52267,69,120,0
443.34738,443.52267,73,120,0
443.43884,443.61414,64,120,0
443.5303,443.7056,69,120,0
443.5303,443.7056,73,120,0
443.62177,443.79706,76,120,0
443.71323,443.88855,69,120,0
443.71323,443.88855,73,120,0
443.8047,443.98,64,120,0
443.89615,444.07147,69,120,0
443.89615,444.07147,73,120,0
443.9876,444.16293,76,120,0
444.07907,444.2544,69,120,0
444.07907,444.2544,73,120,0
444.17056,444.34586,64,120,0
444.26202,444.43732,69,120,0
444.26202,444.43732,73,120,0
444.3535,444.52878,76,120,0
444.44495,444.52878,69,120,0
444.44495,444.52878,73,120,0
444.5364,444.7117,69,120,0
444.62787,444.80316,73,119,0
444.71933,444.89462,76,118,0
444.8108,444.98608,73,117,0
444.90225,445.07755,69,116,0
444.9937,445.16904,73,115,0
445.08517,445.2605,76,114,0
445.17664,445.35196,73,113,0
445.2681,445.44342,69,112,0
445.35956,445.53488,73,111,0
445.45102,445.62634,76,109,0
445.5425,445.7178,73,108,0
445.63397,445.80927,69,107,0
445.72543,445.90073,73,106,0
445.8169,445.9922,76,105,0
445.90836,445.9922,73,104,0
445.99982,446.1751,73,103,0
446.09128,446.26657,76,102,0
446.18274,446.35803,81,101,0
446.2742,446.4495,76,99,0
446.36566,446.541,73,98,0
446.45712,446.63245,76,97,0
446.54858,446.7239,81,96,0
446.64005,446.81744,76,95,0
446.7315,446.9112,73,94,0
446.82526,447.00494,76,93,0
446.919,447.0987,81,92,0
447.01276,447.19244,76,91,0
447.1065,447.2862,73,89,0
447.20026,447.37994,76,88,0
447.294,447.4737,81,87,0
447.38776,447.4737,76,86,0
447.4815,447.6612,76,85,0
447.57526,447.75494,81,84,0
447.669,447.8487,85,83,0
447.76276,447.94467,81,82,0
447.8565,448.0408,76,81,0
447.95267,448.13696,81,80,0
448.04883,448.23312,85,78,0
448.145,448.32928,81,77,0
448.24112,448.4254,76,76,0
448.33728,448.52158,81,75,0
448.43344,448.61774,85,74,0
448.5296,448.71622,81,73,0
448.62576,448.81488,76,72,0
448.72443,448.91357,81,71,0
448.82312,449.01227,85,70,0
448.9218,449.01227,81,68,0
449.02048,449.20963,81,67,0
449.11917,449.30832,85,66,0
449.21786,449.40698,88,65,0
449.31653,449.50812,85,64,0
449.41522,449.60947,81,63,0
449.51657,449.71082,85,62,0
449.61792,449.8122,88,61,0
449.71927,449.9161,85,60,0
449.82062,450.02026,81,58,0
449.9248,450.12445,85,57,0
450.02896,450.2286,88,56,0
450.13312,450.3355,85,55,0
450.2373,450.44266,81,54,0
450.34442,450.5498,85,53,0
450.45157,450.65692,88,52,0
450.55872,450.65692,85,51,0
450.66586,451.03305,81,50,0
450.66586,451.03305,85,50,0
450.66586,451.03305,88,50,0
452.16586,452.34555,81,63,0
452.16586,452.34555,85,63,0
452.16586,452.34555,88,63,0
452.35336,452.53305,81,64,0
452.35336,452.53305,85,64,0
452.35336,452.53305,88,64,0
452.54086,452.72055,81,66,0
452.54086,452.72055,85,66,0
452.54086,452.72055,88,66,0
452.72836,452.90805,81,68,0
452.72836,452.90805,85,68,0
452.72836,452.90805,88,68,0
452.91586,453.09555,81,69,0
452.91586,453.09555,85,69,0
452.91586,453.09555,88,69,0
453.10336,453.28305,81,71,0
453.10336,453.28305,85,71,0
453.10336,453.28305,88,71,0
453.29086,453.47055,81,73,0
453.29086,453.47055,85,73,0
453.29086,453.47055,88,73,0
453.47836,453.65805,81,74,0
453.47836,453.65805,85,74,0
453.47836,453.65805,88,74,0
454.79086,454.97055,81,86,0
454.79086,454.97055,85,86,0
454.79086,454.97055,88,86,0
454.97836,455.15805,81,87,0
454.97836,455.15805,85,87,0
454.97836,455.15805,88,87,0
455.16586,455.337,81,89,0
455.16586,455.337,85,89,0
455.16586,455.337,88,89,0
455.34442,455.51556,81,91,0
455.34442,455.51556,85,91,0
455.34442,455.51556,88,91,0
455.523,455.69412,81,92,0
455.523,455.69412,85,92,0
455.523,455.69412,88,92,0
455.70157,455.8727,81,94,0
455.70157,455.8727,85,94,0
455.70157,455.8727,88,94,0
455.88016,456.05984,81,96,0
455.88016,456.05984,85,96,0
455.88016,456.05984,88,96,0
456.06766,456.24734,81,97,0
456.06766,456.24734,85,97,0
456.06766,456.24734,88,97,0
456.06766,456.24734,93,97,0
456.25516,456.4443,81,99,0
456.25516,456.4443,85,99,0
456.25516,456.4443,88,99,0
456.25516,456.4443,93,99,0
456.4525,456.65787,81,100,0
456.4525,456.65787,85,100,0
456.4525,456.65787,88,100,0
456.4525,456.65787,93,100,0
456.6668,457.08646,81,110,0
456.6668,457.08646,85,110,0
456.6668,457.08646,88,110,0
456.6668,457.08646,93,110,0
457.52396,458.01352,69,110,0
457.52396,458.01352,73,110,0
457.52396,458.01352,76,110,0
457.52396,458.01352,81,110,0
458.52396,459.26352,57,125,0
458.52396,459.26352,61,125,0
458.52396,459.26352,64,125,0
458.52396,459.26352,69,125,0
0.0,0.47916666,52,60,0
0.5,0.9791667,59,60,0
1.0,1.4791666,56,60,0
1.5,1.9791666,59,60,0
2.0,2.4791667,52,60,0
2.5,2.9791667,59,60,0
3.0,3.4791667,56,60,0
3.5,3.9791667,59,60,0
4.0,4.4791665,51,60,0
4.5,4.9791665,59,60,0
5.0,5.4791665,54,60,0
5.5,5.9791665,59,60,0
6.0,6.4791665,51,60,0
6.5,6.9791665,59,60,0
7.0,7.4791665,52,60,0
7.5,7.9791665,59,60,0
8.0,8.479167,57,60,0
8.5,8.979167,61,60,0
9.0,9.479167,56,60,0
9.5,9.979167,59,60,0
10.0,10.479167,54,60,0
10.0,10.479167,57,60,0
10.5,10.979167,59,60,0
11.0,11.479167,52,60,0
11.0,11.479167,56,60,0
11.5,11.979167,59,60,0
12.0,12.479167,47,60,0
12.5,12.979167,59,60,0
13.0,13.479167,54,60,0
13.5,13.979167,59,60,0
14.0,14.513392,47,60,0
14.535714,15.049107,59,60,0
15.071428,15.624313,54,60,0
15.648352,16.24731,59,60,0
16.273352,16.786745,51,60,0
16.809065,17.288233,59,60,0
17.309065,17.788233,54,60,0
17.809065,18.288233,59,60,0
18.309065,18.788233,51,60,0
18.809065,19.288233,52,60,0
19.309065,19.788233,59,60,0
19.309065,19.788233,57,60,0
19.809065,20.288233,56,60,0
19.809065,20.288233,59,60,0
20.309065,20.788233,57,60,0
20.809065,21.288233,64,64,0
21.309065,21.788233,61,68,0
21.809065,22.288233,64,72,0
22.309065,22.788233,56,76,0
22.309065,22.788233,59,76,0
22.809065,23.288233,64,80,0
23.309065,23.788233,52,84,0
23.309065,23.788233,56,84,0
23.809065,24.288233,61,88,0
24.309065,24.788233,54,60,0
24.809065,25.288233,63,60,0
25.309065,25.788233,59,60,0
25.809065,26.288233,63,60,0
26.309065,26.788233,54,60,0
26.809065,27.288233,64,60,0
27.309065,27.822458,61,60,0
27.84478,28.358173,64,60,0
28.380495,29.429602,59,60,0
28.380495,29.429602,63,60,0
32.796703,33.310097,40,60,0
33.332417,33.811584,47,60,0
33.832417,34.311584,44,60,0
34.332417,34.811584,47,60,0
34.832417,35.311584,40,60,0
35.332417,35.811584,47,60,0
35.832417,36.311584,44,60,0
36.332417,36.811584,47,60,0
36.832417,37.311584,39,60,0
37.332417,37.811584,47,60,0
37.832417,38.311584,42,60,0
38.332417,38.811584,47,60,0
38.832417,39.311584,39,60,0
39.332417,39.811584,47,60,0
39.832417,40.311584,40,60,0
40.332417,40.811584,47,60,0
40.832417,41.311584,45,60,0
41.332417,41.811584,52,60,0
41.832417,42.311584,44,60,0
42.332417,42.811584,52,60,0
42.832417,43.311584,45,60,0
42.832417,43.311584,42,60,0
43.332417,43.811584,47,60,0
43.832417,44.311584,40,60,0
43.832417,44.311584,44,60,0
44.332417,44.811584,47,60,0
44.832417,45.311584,39,60,0
45.332417,45.811584,47,60,0
45.832417,46.311584,42,60,0
46.332417,46.811584,47,60,0
46.832417,47.311584,39,60,0
47.332417,47.811584,47,60,0
47.832417,48.311584,42,60,0
48.332417,48.811584,47,60,0
48.832417,49.311584,39,60,0
49.332417,49.811584,47,65,0
49.832417,50.311584,42,70,0
50.332417,50.811584,47,75,0
50.832417,51.311584,47,80,0
50.832417,51.311584,39,80,0
51.332417,51.811584,47,85,0
51.332417,51.811584,40,85,0
51.832417,52.34581,45,90,0
51.832417,52.34581,47,90,0
52.36813,52.921017,44,75,0
52.36813,52.921017,47,75,0
52.945053,53.42422,45,60,0
53.445053,53.92422,52,60,0
53.945053,54.42422,49,60,0
54.445053,54.92422,52,60,0
54.945053,55.42422,44,60,0
55.445053,55.92422,52,60,0
55.945053,56.42422,47,60,0
56.445053,56.92422,52,60,0
56.945053,57.42422,45,60,0
57.445053,57.92422,52,60,0
57.945053,58.42422,49,60,0
58.445053,58.92422,52,60,0
58.945053,59.42422,44,60,0
59.445053,59.92422,52,60,0
59.945053,60.42422,47,60,0
60.445053,60.92422,52,60,0
60.945053,61.42422,45,60,0
61.445053,61.92422,52,70,0
61.945053,62.42422,46,80,0
62.445053,62.92422,52,90,0
62.945053,63.458447,47,85,0
63.48077,63.99416,52,77,0
64.01648,64.56937,46,68,0
64.59341,65.24681,52,60,0
65.27522,66.40503,47,60,0
65.27522,66.40503,52,60,0
66.42907,67.558876,58,60,0
66.42907,68.71272,64,60,0
67.58292,68.71272,59,60,0
68.73676,69.86657,40,60,0
68.73676,69.86657,44,60,0
68.73676,69.86657,47,60,0
68.73676,69.86657,50,60,0
69.89061,71.02042,40,60,0
69.89061,71.02042,44,60,0
69.89061,71.02042,47,60,0
69.89061,71.02042,50,60,0
80.53163,80.70276,33,50,0
80.7102,80.88133,33,50,0
80.88877,81.059906,33,50,0
81.067345,81.23847,33,50,0
81.24591,81.417046,33,50,0
81.424484,81.59561,33,50,0
81.60306,81.774185,33,50,0
81.781624,81.95276,33,50,0
81.9602,82.3099,33,50,0
83.38876,83.5599,38,50,0
83.56734,83.738464,38,50,0
83.74591,83.91704,38,50,0
83.92448,84.09561,38,50,0
84.10305,84.27418,38,50,0
84.281624,84.45275,38,50,0
84.46019,84.631325,38,50,0
84.63876,84.80989,38,50,0
84.81734,85.16704,40,50,0
86.2459,86.41703,33,50,0
86.42447,86.595604,33,52,0
86.60304,86.77418,33,55,0
86.78162,86.95274,33,57,0
86.96018,87.13132,33,60,0
87.138756,87.30989,33,62,0
87.31733,87.48846,33,65,0
87.495895,87.66703,33,67,0
87.67447,87.845604,33,70,0
87.85304,88.02417,33,72,0
88.03161,88.20274,32,75,0
88.21018,88.38131,32,77,0
88.388756,88.55988,33,80,0
88.56732,88.73846,33,82,0
88.745895,88.91702,31,85,0
88.92447,89.0956,31,88,0
89.103035,89.27417,30,90,0
89.28161,89.452736,30,93,0
89.46018,89.63131,38,95,0
89.63875,89.80988,38,98,0
89.81732,89.98845,40,100,0
89.995895,90.16702,40,103,0
90.17446,90.3456,40,105,0
90.353035,90.52416,40,108,0
90.53161,90.88131,33,110,0
90.53161,90.88131,45,110,0
91.99886,92.17855,52,70,0
92.18636,92.36605,61,70,0
92.37386,92.545,57,70,0
92.55244,92.723564,61,70,0
92.73101,92.90214,52,70,0
92.90958,93.08071,59,70,0
93.08815,93.25928,56,70,0
93.266716,93.43785,62,70,0
93.44529,93.616425,52,70,0
93.62386,93.79499,61,70,0
93.80243,93.973564,57,70,0
93.981,94.15214,61,70,0
94.15958,94.3307,52,70,0
94.33814,94.50928,61,70,0
94.516716,94.68785,57,70,0
94.69529,94.86642,61,70,0
94.873856,95.04499,54,70,0
95.05243,95.22356,62,70,0
95.231,95.40213,57,70,0
95.40957,95.5807,62,70,0
95.58814,95.75927,53,70,0
95.766716,95.93784,62,70,0
95.94528,96.11642,59,70,0
96.123856,96.29498,62,70,0
96.30243,96.47356,52,70,0
96.30243,96.47356,59,70,0
96.480995,96.65213,62,70,0
96.65957,96.830696,59,70,0
96.65957,96.830696,54,70,0
96.83814,97.00927,62,70,0
97.01671,97.18784,56,70,0
97.01671,97.18784,59,70,0
97.19528,97.36641,62,70,0
97.373856,97.54498,52,70,0
97.373856,97.54498,59,70,0
97.55242,97.72356,62,70,0
97.730995,97.90212,52,70,0
97.90957,98.080696,61,70,0
98.088135,98.25927,57,70,0
98.26671,98.437836,61,70,0
98.44528,98.61641,52,70,0
98.62385,98.79498,59,70,0
98.80242,98.97355,56,70,0
98.980995,99.15212,62,70,0
99.15956,99.330696,57,70,0
99.338135,99.50926,61,72,0
99.51671,99.687836,56,74,0
99.695274,99.86641,61,76,0
99.87385,100.044975,57,78,0
100.052414,100.22355,61,81,0
100.23099,100.40212,55,83,0
100.23099,100.40212,57,83,0
100.40956,100.58069,61,85,0
100.58813,100.75926,54,87,0
100.58813,100.75926,57,87,0
100.7667,100.937836,62,89,0
100.945274,101.1164,50,92,0
100.945274,101.1164,54,92,0
101.12384,101.294975,59,94,0
101.302414,101.4821,52,96,0
101.302414,101.4821,56,96,0
101.489914,101.6696,59,98,0
101.677414,101.86908,52,100,0
101.677414,101.86908,56,100,0
101.87742,102.069084,62,85,0
102.077415,102.26908,57,70,0
102.077415,102.26908,61,70,0
102.27741,102.44855,45,70,0
102.27741,102.44855,52,70,0
102.27741,102.44855,57,70,0
102.455986,102.62711,45,70,0
102.455986,102.62711,52,70,0
102.455986,102.62711,57,70,0
102.63456,102.80569,45,70,0
102.63456,102.80569,52,70,0
102.63456,102.80569,57,70,0
102.9917,103.16283,45,70,0
102.9917,103.16283,52,70,0
102.9917,103.16283,57,70,0
103.17027,103.3414,45,70,0
103.17027,103.3414,52,70,0
103.17027,103.3414,57,70,0
103.34884,103.51997,45,70,0
103.34884,103.51997,52,70,0
103.34884,103.51997,57,70,0
103.705986,103.87711,45,70,0
103.705986,103.87711,52,70,0
103.705986,103.87711,59,70,0
103.88455,104.05569,45,70,0
103.88455,104.05569,52,70,0
103.88455,104.05569,59,70,0
104.063126,104.23425,45,70,0
104.063126,104.23425,52,70,0
104.063126,104.23425,59,70,0
104.420265,104.5914,45,70,0
104.420265,104.5914,52,70,0
104.420265,104.5914,59,70,0
104.59884,104.769966,45,70,0
104.59884,104.769966,52,70,0
104.59884,104.769966,59,70,0
104.77741,104.94854,45,70,0
104.77741,104.94854,52,70,0
104.77741,104.94854,59,70,0
105.13455,105.30568,45,70,0
105.13455,105.30568,52,70,0
105.13455,105.30568,57,70,0
105.31312,105.48425,45,70,0
105.31312,105.48425,52,70,0
105.31312,105.48425,57,70,0
105.49169,105.66283,45,70,0
105.49169,105.66283,52,70,0
105.49169,105.66283,57,70,0
105.84883,106.019966,45,70,0
105.84883,106.019966,52,70,0
105.84883,106.019966,57,70,0
106.027405,106.19854,45,70,0
106.027405,106.19854,52,70,0
106.027405,106.19854,57,70,0
106.20598,106.377106,45,70,0
106.20598,106.377106,52,70,0
106.20598,106.377106,57,70,0
106.56312,106.73425,45,70,0
106.56312,106.73425,52,70,0
106.56312,106.73425,59,70,0
106.74169,106.91282,45,70,0
106.74169,106.91282,52,70,0
106.74169,106.91282,59,70,0
106.92026,107.09139,45,70,0
106.92026,107.09139,52,70,0
106.92026,107.09139,59,70,0
107.277405,107.44853,45,70,0
107.277405,107.44853,52,70,0
107.277405,107.44853,59,70,0
107.45597,107.627106,45,70,0
107.45597,107.627106,52,70,0
107.45597,107.627106,59,70,0
107.634544,107.80567,45,70,0
107.634544,107.80567,52,70,0
107.634544,107.80567,59,70,0
107.81312,108.16282,57,70,0
107.81312,108.16282,45,70,0
108.34883,108.51996,57,72,0
108.34883,108.51996,45,72,0
108.5274,108.8771,59,73,0
108.5274,108.8771,47,73,0
109.06311,109.234245,59,76,0
109.06311,109.234245,47,76,0
109.241684,109.591385,61,77,0
109.241684,109.591385,49,77,0
109.7774,109.948524,61,80,0
109.7774,109.948524,49,80,0
109.95597,110.1271,63,81,0
109.95597,110.1271,51,81,0
110.13454,110.30567,63,82,0
110.13454,110.30567,51,82,0
110.31311,110.48424,63,83,0
110.31311,110.48424,51,83,0
110.491684,110.66281,63,84,0
110.491684,110.66281,51,84,0
110.67025,111.01995,64,85,0
110.67025,111.01995,52,85,0
111.20596,111.3771,52,88,0
111.20596,111.3771,56,88,0
111.38454,111.73424,54,89,0
111.38454,111.73424,57,89,0
111.92025,112.09138,54,92,0
111.92025,112.09138,57,92,0
112.09882,112.448524,56,93,0
112.09882,112.448524,59,93,0
112.63453,112.805664,56,96,0
112.63453,112.805664,59,96,0
112.8131,112.99279,58,97,0
112.8131,112.99279,61,97,0
113.0006,113.18029,58,98,0
113.0006,113.18029,64,98,0
113.1881,113.37725,58,99,0
113.1881,113.37725,64,99,0
113.385475,113.59083,58,100,0
113.385475,113.59083,64,100,0
113.599754,113.985176,59,110,0
113.599754,113.985176,63,110,0
115.15333,115.23517,71,120,0
115.24261,115.324455,73,120,0
115.331894,115.41374,75,120,0
115.42118,115.50303,76,120,0
115.51047,115.592316,78,120,0
115.599754,115.681595,80,120,0
115.68904,115.77088,82,120,0
115.77832,115.949455,83,120,0
115.956894,116.12803,78,120,0
116.13547,116.306595,75,120,0
116.31403,116.48517,71,120,0
116.49261,116.66374,66,120,0
116.67118,116.84231,63,120,0
116.84975,117.02088,59,120,0
117.02832,117.19945,54,120,0
117.206894,117.37802,51,120,0
117.38546,117.556595,47,120,0
117.56403,117.73516,42,120,0
117.74261,117.913734,39,120,0
117.92117,118.270874,35,120,0
118.27832,118.62802,47,120,0
120.77831,121.8423,45,60,0
121.84974,122.02087,45,60,0
122.028305,122.19944,45,60,0
122.20688,122.37801,45,60,0
122.38545,122.55658,45,60,0
122.56402,122.73515,47,60,0
122.74259,122.91373,47,60,0
122.921165,123.09229,49,60,0
123.09973,123.27087,49,60,0
123.278305,123.45799,47,60,0
123.465805,123.65747,47,60,0
123.6658,124.03299,45,60,0
124.0408,124.40799,45,60,0
126.594376,127.658356,46,60,0
127.6658,127.83693,46,60,0
127.84437,128.0155,46,60,0
128.02295,128.19408,46,60,0
128.2015,128.37265,46,60,0
128.38008,128.55121,47,60,0
128.55865,128.72978,47,60,0
128.73723,128.90836,49,60,0
128.9158,129.08693,49,60,0
129.09436,129.27405,47,60,0
129.28186,129.47354,47,60,0
129.48187,129.84906,46,60,0
129.85687,130.22406,46,60,0
130.98187,132.403,58,70,0
130.98187,132.403,61,70,0
132.41043,133.83156,59,87,0
133.839,134.92047,47,70,0
134.92828,135.33101,47,70,0
134.92828,135.33101,51,70,0
135.33994,135.72646,51,70,0
135.33994,136.12119,49,70,0
135.73468,136.12119,52,70,0
136.91888,137.66107,55,70,0
137.66888,138.22357,54,90,0
136.91888,138.41107,46,70,0
136.91888,138.41107,49,70,0
138.23138,138.41107,55,105,0
138.41888,139.16107,47,110,0
138.41888,139.16107,52,110,0
138.41888,139.16107,56,110,0
139.16888,140.26859,47,110,0
139.16888,140.26859,56,110,0
139.16888,140.26859,59,110,0
140.27603,140.62573,47,110,0
140.27603,140.62573,54,110,0
140.27603,140.62573,57,110,0
140.63316,141.00035,47,110,0
140.63316,141.00035,52,110,0
140.63316,141.00035,56,110,0
141.00816,141.39984,47,110,0
141.00816,141.39984,51,110,0
141.00816,141.39984,54,110,0
141.00816,141.39984,59,110,0
141.40817,141.59984,52,70,0
141.40817,141.59984,56,70,0
141.50816,141.69002,59,70,0
141.60817,141.7793,52,70,0
141.60817,141.7793,56,70,0
141.69745,141.86859,59,70,0
141.78674,141.95787,52,70,0
141.78674,141.95787,56,70,0
141.87602,142.04715,59,70,0
141.96532,142.13644,52,70,0
141.96532,142.13644,56,70,0
142.0546,142.22572,59,70,0
142.14388,142.31502,52,70,0
142.14388,142.31502,57,70,0
142.23317,142.4043,59,70,0
142.32245,142.49359,52,70,0
142.32245,142.49359,57,70,0
142.41174,142.58287,59,70,0
142.50102,142.67215,52,70,0
142.50102,142.67215,57,70,0
142.59032,142.76144,59,70,0
142.6796,142.85072,52,70,0
142.6796,142.85072,57,70,0
142.76888,142.85072,59,70,0
142.85817,143.0293,52,70,0
142.85817,143.0293,56,70,0
142.94745,143.11858,59,70,0
143.03674,143.20787,52,70,0
143.03674,143.20787,56,70,0
143.12602,143.29715,59,70,0
143.2153,143.38644,52,70,0
143.2153,143.38644,56,70,0
143.3046,143.47572,59,70,0
143.39388,143.565,52,70,0
143.39388,143.565,56,70,0
143.48317,143.6543,59,70,0
143.57245,143.74358,52,70,0
143.57245,143.74358,57,70,0
143.66174,143.83287,59,70,0
143.75102,143.92215,52,70,0
143.75102,143.92215,57,70,0
143.8403,144.01144,59,70,0
143.9296,144.10072,52,70,0
143.9296,144.10072,57,70,0
144.01888,144.19,59,70,0
144.10817,144.2793,52,70,0
144.10817,144.2793,57,70,0
144.19745,144.2793,59,70,0
144.28673,144.45787,52,70,0
144.28673,144.45787,56,70,0
144.37602,144.54715,59,70,0
144.4653,144.63643,52,70,0
144.4653,144.63643,56,70,0
144.5546,144.72572,59,70,0
144.64388,144.815,52,70,0
144.64388,144.815,56,70,0
144.73315,144.9043,59,70,0
144.82245,144.99358,52,70,0
144.82245,144.99358,56,70,0
144.91173,145.08287,59,70,0
145.00102,145.17215,52,70,0
145.00102,145.17215,57,70,0
145.0903,145.26143,59,70,0
145.1796,145.35072,52,70,0
145.1796,145.35072,57,70,0
145.26888,145.44,59,70,0
145.35815,145.5293,52,70,0
145.35815,145.5293,57,70,0
145.44745,145.61858,59,70,0
145.53673,145.70786,52,70,0
145.53673,145.70786,57,70,0
145.62602,145.70786,59,70,0
145.7153,145.88643,52,70,0
145.7153,145.88643,56,70,0
145.80458,145.97572,59,70,0
145.89388,146.065,52,70,0
145.89388,146.065,56,70,0
145.98315,146.1543,59,70,0
146.07245,146.24358,52,70,0
146.07245,146.24358,56,70,0
146.16173,146.33286,59,70,0
146.25102,146.42215,52,70,0
146.25102,146.42215,56,70,0
146.3403,146.51143,59,70,0
146.42958,146.60072,52,70,0
146.42958,146.60072,57,70,0
146.51888,146.69,59,70,0
146.60815,146.77928,52,70,0
146.60815,146.77928,57,70,0
146.69745,146.86858,59,70,0
146.78673,146.95786,52,70,0
146.78673,146.95786,57,70,0
146.876,147.04715,59,70,0
146.9653,147.13643,52,70,0
146.9653,147.13643,57,70,0
147.05458,147.13643,59,70,0
147.14388,147.22571,52,70,0
147.23315,147.315,54,70,0
147.32245,147.40428,56,71,0
147.41173,147.49358,57,71,0
147.501,147.58286,59,72,0
147.5903,147.67215,61,73,0
147.67958,147.76143,63,73,0
147.76888,147.85071,64,74,0
147.85815,147.94,57,75,0
147.94743,148.02928,59,75,0
148.03673,148.11858,61,76,0
148.126,148.20786,62,77,0
148.2153,148.29713,64,77,0
148.30458,148.38643,66,78,0
148.39386,148.47571,68,79,0
148.48315,148.565,69,79,0
148.57243,148.65428,59,80,0
148.66173,148.74358,71,81,0
148.751,148.83286,68,81,0
148.8403,148.92213,64,82,0
148.92958,149.01143,59,82,0
149.01886,149.10071,58,83,0
149.10815,149.19,59,84,0
149.19743,149.27928,58,84,0
149.28673,149.36856,59,85,0
149.376,149.45786,58,86,0
149.46529,149.54713,59,86,0
149.55458,149.63643,57,87,0
149.64386,149.72571,59,88,0
149.73315,149.81499,56,88,0
149.82243,149.90428,59,89,0
149.91173,149.99356,54,90,0
150.001,150.08286,52,90,0
150.09029,150.17213,54,91,0
150.17958,150.26143,56,92,0
150.26886,150.35071,57,92,0
150.35815,150.43999,59,93,0
150.44743,150.52928,61,94,0
150.53671,150.61856,63,94,0
150.626,150.70786,64,95,0
150.71529,150.79713,45,95,0
150.80458,150.88641,47,96,0
150.89386,150.97571,49,97,0
150.98315,151.06499,50,97,0
151.07243,151.15428,52,98,0
151.16171,151.24356,54,99,0
151.251,151.33286,56,99,0
151.34029,151.42213,57,100,0
151.42958,151.51141,47,101,0
151.51886,151.60071,59,101,0
151.60814,151.68999,56,102,0
151.69743,151.77928,52,103,0
151.78671,151.86856,47,103,0
151.876,151.95784,44,104,0
151.96529,152.04713,40,105,0
152.05457,152.13641,44,105,0
152.14386,152.31499,35,106,0
152.23314,152.40428,47,107,0
152.32243,152.49356,35,107,0
152.41171,152.58284,47,108,0
152.501,152.67213,35,108,0
152.59029,152.76141,47,109,0
152.67957,152.85071,35,110,0
152.76886,152.85071,47,110,0
152.85814,153.02927,40,120,0
152.94743,153.11856,47,120,0
153.03671,153.20784,44,120,0
153.12599,153.29713,47,120,0
153.21529,153.38641,40,120,0
153.30457,153.4757,47,120,0
153.39386,153.56499,44,120,0
153.48314,153.65427,47,120,0
153.57243,153.74356,40,120,0
153.66171,153.83284,47,120,0
153.75099,153.92213,44,120,0
153.84029,154.01141,47,120,0
153.92957,154.1007,40,120,0
154.01886,154.18999,47,120,0
154.10814,154.27927,44,120,0
154.19742,154.36856,47,120,0
154.28671,154.45784,40,120,0
154.37599,154.54712,47,120,0
154.46529,154.63641,44,120,0
154.55457,154.7257,47,120,0
154.64386,154.81499,40,120,0
154.73314,154.90427,47,120,0
154.82242,154.99356,44,120,0
154.91171,155.08693,47,120,0
155.00099,155.18068,40,120,0
155.09474,155.27443,47,120,0
155.18849,155.36818,44,120,0
155.28224,155.46767,47,120,0
155.37599,155.56766,40,120,0
155.476,155.66766,47,120,0
155.57599,155.76765,44,120,0
155.676,155.76765,47,120,0
155.776,156.16766,40,120,0
155.776,156.16766,44,120,0
155.776,156.16766,47,120,0
155.776,156.16766,52,120,0
163.67598,164.23067,40,70,0
164.23848,164.41817,40,70,0
164.42598,164.61765,42,65,0
164.62599,164.83134,44,60,0
164.84027,165.01996,33,50,0
165.02777,165.20746,33,50,0
165.21527,165.3864,33,50,0
165.39384,165.56497,33,50,0
165.57242,165.74355,33,50,0
165.75098,165.92212,33,50,0
165.92955,166.1007,33,50,0
166.10812,166.27925,33,50,0
166.2867,166.6364,33,50,0
167.71527,167.8864,38,50,0
167.89383,168.06497,38,50,0
168.0724,168.24353,38,50,0
168.25098,168.4221,38,50,0
168.42955,168.60068,38,50,0
168.60812,168.77925,38,50,0
168.7867,168.95782,38,50,0
168.96526,169.1364,38,50,0
169.14383,169.49353,40,50,0
170.5724,170.74353,33,50,0
170.75098,170.9221,33,52,0
170.92955,171.10068,33,55,0
171.10811,171.27925,33,57,0
171.28668,171.45781,33,60,0
171.46526,171.63638,33,62,0
171.64383,171.81496,33,65,0
171.8224,171.99353,33,67,0
172.00096,172.1721,33,70,0
172.17953,172.35068,33,72,0
172.35811,172.52924,32,75,0
172.53668,172.70781,32,77,0
172.71526,172.88638,33,80,0
172.89383,173.06496,33,82,0
173.07239,173.24353,31,85,0
173.25096,173.4221,31,88,0
173.42953,173.60066,30,90,0
173.60811,173.77924,30,93,0
173.78668,173.95781,38,95,0
173.96526,174.13638,38,98,0
174.14381,174.31496,40,100,0
174.32239,174.49352,40,103,0
174.50096,174.67209,40,105,0
174.67953,174.85066,40,108,0
174.85811,175.20781,33,110,0
174.85811,175.20781,45,110,0
176.28667,176.45781,52,70,0
176.46524,176.63637,61,70,0
176.64381,176.81494,57,70,0
176.82239,176.99352,61,70,0
177.00096,177.17209,52,70,0
177.17953,177.35066,59,70,0
177.3581,177.52924,56,70,0
177.53667,177.7078,62,70,0
177.71524,177.88637,52,70,0
177.89381,178.06494,61,70,0
178.07239,178.24352,57,70,0
178.25096,178.42209,61,70,0
178.42952,178.60066,52,70,0
178.6081,178.77922,61,70,0
178.78667,178.9578,57,70,0
178.96524,179.13637,61,70,0
179.14381,179.31494,54,70,0
179.32237,179.49352,62,70,0
179.50095,179.67209,57,70,0
179.67952,179.85065,62,70,0
179.8581,180.02922,53,70,0
180.03667,180.2078,62,70,0
180.21524,180.38637,59,70,0
180.3938,180.56494,62,70,0
180.57237,180.7435,52,70,0
180.57237,180.7435,59,70,0
180.75095,180.92207,62,70,0
180.92952,181.10065,59,70,0
180.92952,181.10065,54,70,0
181.1081,181.27922,62,70,0
181.28667,181.4578,56,70,0
181.28667,181.4578,59,70,0
181.46523,181.63637,62,70,0
181.6438,181.81493,52,70,0
181.6438,181.81493,59,70,0
181.82237,181.9935,62,70,0
182.00095,182.17207,52,70,0
182.17952,182.35065,61,70,0
182.3581,182.52922,57,70,0
182.53665,182.7078,61,70,0
182.71523,182.88635,52,70,0
182.8938,183.06493,59,70,0
183.07237,183.2435,56,70,0
183.25095,183.42207,62,70,0
183.42952,183.60065,57,70,0
183.60808,183.77922,61,72,0
183.78665,183.95778,56,74,0
183.96523,184.13635,61,76,0
184.1438,184.31493,57,78,0
184.32237,184.4935,61,81,0
184.50095,184.67207,55,83,0
184.50095,184.67207,57,83,0
184.6795,184.85065,61,85,0
184.85808,185.0292,54,87,0
184.85808,185.0292,57,87,0
185.03665,185.20778,62,89,0
185.21523,185.38635,50,92,0
185.21523,185.38635,54,92,0
185.3938,185.56493,59,94,0
185.57236,185.7435,52,96,0
185.57236,185.7435,56,96,0
185.75093,185.92207,59,98,0
185.9295,186.10063,52,100,0
185.9295,186.10063,56,100,0
186.10808,186.2792,62,85,0
186.28665,186.45778,57,70,0
186.28665,186.45778,61,70,0
186.46523,186.63635,45,70,0
186.46523,186.63635,52,70,0
186.46523,186.63635,57,70,0
186.64378,186.81493,45,70,0
186.64378,186.81493,52,70,0
186.64378,186.81493,57,70,0
186.82236,186.9935,45,70,0
186.82236,186.9935,52,70,0
186.82236,186.9935,57,70,0
187.1795,187.35063,45,70,0
187.1795,187.35063,52,70,0
187.1795,187.35063,57,70,0
187.35808,187.5292,45,70,0
187.35808,187.5292,52,70,0
187.35808,187.5292,57,70,0
187.53665,187.70778,45,70,0
187.53665,187.70778,52,70,0
187.53665,187.70778,57,70,0
187.89378,188.06491,45,70,0
187.89378,188.06491,52,70,0
187.89378,188.06491,59,70,0
188.07236,188.24348,45,70,0
188.07236,188.24348,52,70,0
188.07236,188.24348,59,70,0
188.25093,188.42206,45,70,0
188.25093,188.42206,52,70,0
188.25093,188.42206,59,70,0
188.60808,188.7792,45,70,0
188.60808,188.7792,52,70,0
188.60808,188.7792,59,70,0
188.78664,188.95778,45,70,0
188.78664,188.95778,52,70,0
188.78664,188.95778,59,70,0
188.96521,189.13634,45,70,0
188.96521,189.13634,52,70,0
188.96521,189.13634,59,70,0
189.32236,189.49348,45,70,0
189.32236,189.49348,52,70,0
189.32236,189.49348,57,70,0
189.50093,189.67206,45,70,0
189.50093,189.67206,52,70,0
189.50093,189.67206,57,70,0
189.6795,189.85063,45,70,0
189.6795,189.85063,52,70,0
189.6795,189.85063,57,70,0
190.03664,190.20776,45,70,0
190.03664,190.20776,52,70,0
190.03664,190.20776,57,70,0
190.21521,190.38634,45,70,0
190.21521,190.38634,52,70,0
190.21521,190.38634,57,70,0
190.39378,190.56491,45,70,0
190.39378,190.56491,52,70,0
190.39378,190.56491,57,70,0
190.75093,190.92206,45,70,0
190.75093,190.92206,52,70,0
190.75093,190.92206,59,70,0
190.92949,191.10063,45,70,0
190.92949,191.10063,52,70,0
190.92949,191.10063,59,70,0
191.10806,191.27919,45,70,0
191.10806,191.27919,52,70,0
191.10806,191.27919,59,70,0
191.46521,191.63634,45,70,0
191.46521,191.63634,52,70,0
191.46521,191.63634,59,70,0
191.64378,191.81491,45,70,0
191.64378,191.81491,52,70,0
191.64378,191.81491,59,70,0
191.82236,191.99348,45,70,0
191.82236,191.99348,52,70,0
191.82236,191.99348,59,70,0
192.00092,192.35062,57,70,0
192.00092,192.35062,45,70,0
192.53664,192.70776,57,72,0
192.53664,192.70776,45,72,0
192.71521,193.06491,59,73,0
192.71521,193.06491,47,73,0
193.25092,193.42204,59,76,0
193.25092,193.42204,47,76,0
193.42949,193.77919,61,77,0
193.42949,193.77919,49,77,0
193.9652,194.13634,61,80,0
193.9652,194.13634,49,80,0
194.14377,194.32346,63,81,0
194.14377,194.32346,51,81,0
194.33127,194.51096,63,82,0
194.33127,194.51096,51,82,0
194.51877,194.70792,63,83,0
194.51877,194.70792,51,83,0
194.71614,194.90529,63,84,0
194.71614,194.90529,51,84,0
194.91351,195.28201,64,85,0
194.91351,195.28201,52,85,0
195.46802,195.63914,52,88,0
195.46802,195.63914,56,88,0
195.64659,195.99629,54,89,0
195.64659,195.99629,57,89,0
196.1823,196.35344,54,92,0
196.1823,196.35344,57,92,0
196.36087,196.71057,56,93,0
196.36087,196.71057,59,93,0
196.89659,197.06772,56,96,0
196.89659,197.06772,59,96,0
197.07516,197.24629,58,97,0
197.07516,197.24629,61,97,0
197.25372,197.42487,58,98,0
197.25372,197.42487,64,98,0
197.4323,197.60342,58,99,0
197.4323,197.60342,64,99,0
197.61087,197.782,58,100,0
197.61087,197.782,64,100,0
197.78944,198.13914,59,110,0
197.78944,198.13914,63,110,0
199.3073,199.38914,71,120,0
199.39658,199.47842,73,120,0
199.48587,199.56772,75,120,0
199.57515,199.657,76,120,0
199.66444,199.74628,78,120,0
199.75372,199.83557,80,120,0
199.843,199.92485,82,120,0
199.9323,200.10342,83,120,0
200.11087,200.282,78,120,0
200.28943,200.46057,75,120,0
200.468,200.63914,71,120,0
200.64658,200.8177,66,120,0
200.82515,200.99628,63,120,0
201.00372,201.17485,59,120,0
201.1823,201.35342,54,120,0
201.36086,201.532,51,120,0
201.53943,201.71056,47,120,0
201.718,201.88913,42,120,0
201.89658,202.0677,39,120,0
202.07515,202.42485,35,120,0
202.43228,202.78198,47,120,0
204.93228,205.99626,45,60,0
206.00371,206.17484,45,60,0
206.18228,206.35341,45,60,0
206.36086,206.53198,45,60,0
206.53941,206.71056,45,60,0
206.71799,206.88913,47,60,0
206.89656,207.06769,47,60,0
207.07513,207.25482,49,60,0
207.26263,207.44232,49,60,0
207.45013,207.63928,47,60,0
207.6475,207.83664,47,60,0
207.84486,208.21205,45,60,0
208.21986,208.58705,45,60,0
210.80829,211.89822,46,60,0
211.90584,212.08115,46,60,0
212.08876,212.26407,46,60,0
212.2717,212.44699,46,60,0
212.45462,212.62993,46,60,0
212.63754,212.81285,47,60,0
212.82048,212.99577,47,60,0
213.0034,213.1877,49,60,0
213.19571,213.38,49,60,0
213.38802,213.58228,47,60,0
213.59071,213.78497,47,60,0
213.79343,214.16061,46,60,0
214.16843,214.53561,46,60,0
215.29343,216.78561,58,70,0
215.29343,216.78561,61,70,0
216.79343,218.28561,59,87,0
218.29343,219.41061,47,70,0
219.41843,219.79506,47,70,0
219.41843,219.79506,51,70,0
219.80328,220.22293,51,70,0
219.80328,220.6515,49,70,0
220.23186,220.6515,52,70,0
221.51758,222.25977,55,70,0
222.26758,222.82227,54,90,0
221.51758,223.00977,46,70,0
221.51758,223.00977,49,70,0
222.83008,223.00977,55,105,0
223.01758,223.75977,47,110,0
223.01758,223.75977,52,110,0
223.01758,223.75977,56,110,0
223.76758,224.86728,47,110,0
223.76758,224.86728,56,110,0
223.76758,224.86728,59,110,0
224.87471,225.22441,47,110,0
224.87471,225.22441,54,110,0
224.87471,225.22441,57,110,0
225.23186,225.59904,47,110,0
225.23186,225.59904,52,110,0
225.23186,225.59904,56,110,0
225.60686,225.99852,47,110,0
225.60686,225.99852,51,110,0
225.60686,225.99852,54,110,0
225.60686,225.99852,59,110,0
226.00685,226.19852,52,70,0
226.00685,226.19852,56,70,0
226.10686,226.2887,59,70,0
226.20685,226.37799,52,70,0
226.20685,226.37799,56,70,0
226.29614,226.46727,59,70,0
226.38542,226.55656,52,70,0
226.38542,226.55656,56,70,0
226.47472,226.64584,59,70,0
226.564,226.73512,52,70,0
226.564,226.73512,56,70,0
226.65329,226.82442,59,70,0
226.74257,226.9137,52,70,0
226.74257,226.9137,57,70,0
226.83185,227.00299,59,70,0
226.92114,227.09227,52,70,0
226.92114,227.09227,57,70,0
227.01042,227.18155,59,70,0
227.09972,227.27084,52,70,0
227.09972,227.27084,57,70,0
227.189,227.36012,59,70,0
227.27827,227.44942,52,70,0
227.27827,227.44942,57,70,0
227.36757,227.44942,59,70,0
227.45685,227.62799,52,70,0
227.45685,227.62799,56,70,0
227.54614,227.71727,59,70,0
227.63542,227.80655,52,70,0
227.63542,227.80655,56,70,0
227.72472,227.89584,59,70,0
227.814,227.98512,52,70,0
227.814,227.98512,56,70,0
227.90327,228.07442,59,70,0
227.99257,228.1637,52,70,0
227.99257,228.1637,56,70,0
228.08185,228.25298,59,70,0
228.17114,228.34227,52,70,0
228.17114,228.34227,57,70,0
228.26042,228.43155,59,70,0
228.3497,228.52084,52,70,0
228.3497,228.52084,57,70,0
228.439,228.61012,59,70,0
228.52827,228.6994,52,70,0
228.52827,228.6994,57,70,0
228.61757,228.7887,59,70,0
228.70685,228.87798,52,70,0
228.70685,228.87798,57,70,0
228.79614,228.87798,59,70,0
228.88542,229.05655,52,70,0
228.88542,229.05655,56,70,0
228.9747,229.14584,59,70,0
229.064,229.23512,52,70,0
229.064,229.23512,56,70,0
229.15327,229.3244,59,70,0
229.24257,229.4137,52,70,0
229.24257,229.4137,56,70,0
229.33185,229.50298,59,70,0
229.42113,229.59227,52,70,0
229.42113,229.59227,56,70,0
229.51042,229.68155,59,70,0
229.5997,229.77083,52,70,0
229.5997,229.77083,57,70,0
229.689,229.86012,59,70,0
229.77827,229.9494,52,70,0
229.77827,229.9494,57,70,0
229.86755,230.0387,59,70,0
229.95685,230.12798,52,70,0
229.95685,230.12798,57,70,0
230.04613,230.21727,59,70,0
230.13542,230.30655,52,70,0
230.13542,230.30655,57,70,0
230.2247,230.30655,59,70,0
230.314,230.48512,52,70,0
230.314,230.48512,56,70,0
230.40327,230.5744,59,70,0
230.49255,230.6637,52,70,0
230.49255,230.6637,56,70,0
230.58185,230.75298,59,70,0
230.67113,230.84225,52,70,0
230.67113,230.84225,56,70,0
230.76042,230.93155,59,70,0
230.8497,231.02083,52,70,0
230.8497,231.02083,56,70,0
230.93898,231.11012,59,70,0
231.02827,231.1994,52,70,0
231.02827,231.1994,57,70,0
231.11755,231.2887,59,70,0
231.20685,231.37798,52,70,0
231.20685,231.37798,57,70,0
231.29613,231.46725,59,70,0
231.38542,231.55655,52,70,0
231.38542,231.55655,57,70,0
231.4747,231.64583,59,70,0
231.56398,231.73512,52,70,0
231.56398,231.73512,57,70,0
231.65327,231.73512,59,70,0
231.74255,231.8244,52,70,0
231.83185,231.91368,54,70,0
231.92113,232.00298,56,71,0
232.0104,232.09225,57,71,0
232.0997,232.18155,59,72,0
232.18898,232.27083,61,73,0
232.27827,232.3601,63,73,0
232.36755,232.4494,64,74,0
232.45685,232.53868,57,75,0
232.54613,232.62798,59,75,0
232.6354,232.71725,61,76,0
232.7247,232.80655,62,77,0
232.81398,232.89583,64,77,0
232.90327,232.9851,66,78,0
232.99255,233.0744,68,79,0
233.08183,233.16368,69,79,0
233.17113,233.25298,59,80,0
233.2604,233.34225,71,81,0
233.3497,233.43153,68,81,0
233.43898,233.52083,64,82,0
233.52826,233.6101,59,82,0
233.61755,233.6994,58,83,0
233.70683,233.78868,59,84,0
233.79613,233.87798,58,84,0
233.8854,233.96725,59,85,0
233.9747,234.05653,58,86,0
234.06398,234.14583,59,86,0
234.15326,234.2351,57,87,0
234.24255,234.3244,59,88,0
234.33183,234.41368,56,88,0
234.42113,234.50296,59,89,0
234.5104,234.59225,54,90,0
234.59969,234.68153,52,90,0
234.68898,234.77083,54,91,0
234.77826,234.8601,56,92,0
234.86755,234.9494,57,92,0
234.95683,235.03868,59,93,0
235.04613,235.12796,61,94,0
235.1354,235.21725,63,94,0
235.22469,235.30653,64,95,0
235.31398,235.39583,45,95,0
235.40326,235.4851,47,96,0
235.49255,235.57439,49,97,0
235.58183,235.66368,50,97,0
235.67111,235.75296,52,98,0
235.7604,235.84225,54,99,0
235.84969,235.93153,56,99,0
235.93898,236.02081,57,100,0
236.02826,236.1101,47,101,0
236.11755,236.19939,59,101,0
236.20683,236.28868,56,102,0
236.29611,236.37796,52,103,0
236.3854,236.46725,47,103,0
236.47469,236.55653,44,104,0
236.56398,236.64581,40,105,0
236.65326,236.7351,44,105,0
236.74254,236.91368,35,106,0
236.83183,237.00296,47,107,0
236.92111,237.09224,35,107,0
237.0104,237.18153,47,108,0
237.09969,237.27081,35,108,0
237.18896,237.3601,47,109,0
237.27826,237.44939,35,110,0
237.36754,237.44939,47,110,0
237.45683,237.62796,40,120,0
237.54611,237.71724,47,120,0
237.6354,237.80653,44,120,0
237.72469,237.89581,47,120,0
237.81396,237.9851,40,120,0
237.90326,238.07439,47,120,0
237.99254,238.16367,44,120,0
238.08183,238.25296,47,120,0
238.17111,238.34224,40,120,0
238.26039,238.43153,47,120,0
238.34969,238.52081,44,120,0
238.43896,238.61009,47,120,0
238.52826,238.69939,40,120,0
238.61754,238.78867,47,120,0
238.70683,238.87796,44,120,0
238.79611,238.96724,47,120,0
238.88539,239.05653,40,120,0
238.97469,239.14581,47,120,0
239.06396,239.23509,44,120,0
239.15326,239.32439,47,120,0
239.24254,239.41367,40,120,0
239.33182,239.50296,47,120,0
239.42111,239.59224,44,120,0
239.51039,239.68562,47,120,0
239.59969,239.77937,40,120,0
239.69344,239.87312,47,120,0
239.78719,239.96687,44,120,0
239.88094,240.06514,47,120,0
239.97469,240.16382,40,120,0
240.07336,240.26251,47,120,0
240.17204,240.36119,44,120,0
240.27074,240.36119,47,120,0
240.36942,240.75594,40,120,0
240.36942,240.75594,44,120,0
240.36942,240.75594,47,120,0
240.36942,240.75594,52,120,0
248.22467,248.77936,40,70,0
248.78717,248.96686,40,70,0
248.97467,249.1638,42,65,0
249.17203,249.3774,44,60,0
249.38632,249.57062,33,70,0
249.57863,249.75609,33,70,0
249.76381,249.93494,33,70,0
249.94238,250.11351,33,70,0
250.12096,250.29208,33,70,0
250.29953,250.47066,33,70,0
250.47809,250.64923,33,70,0
250.65666,250.82779,33,70,0
250.83524,251.18494,45,70,0
251.19238,251.54208,41,82,0
251.54951,251.89922,40,94,0
251.90666,252.25636,45,100,0
252.26381,252.43494,38,70,0
252.44237,252.61351,38,70,0
252.62094,252.79208,38,70,0
252.79951,252.97064,38,70,0
252.97809,253.14922,38,70,0
253.15666,253.32779,38,70,0
253.33524,253.50636,38,70,0
253.5138,253.68494,38,70,0
253.69237,254.04207,38,70,0
254.04951,254.39922,34,82,0
254.40666,254.75636,33,94,0
254.7638,255.1135,38,100,0
255.12094,255.29207,31,50,0
255.29951,255.47064,31,50,0
255.47809,255.64922,31,50,0
255.65665,255.82779,31,50,0
255.83522,256.00635,31,50,0
256.0138,256.18494,31,50,0
256.19235,256.3635,31,50,0
256.37094,256.54205,31,50,0
256.5495,256.8992,31,50,0
257.9781,258.1492,31,50,0
258.15665,258.3278,31,50,0
258.3352,258.50635,31,50,0
258.5138,258.6849,31,50,0
258.69235,258.8635,31,50,0
258.87094,259.04205,31,50,0
259.0495,259.22064,31,50,0
259.22806,259.3992,31,50,0
259.40665,259.75635,31,50,0
260.8352,261.00635,31,50,0
261.0138,261.1849,31,51,0
261.19235,261.3635,31,53,0
261.3709,261.54205,31,54,0
262.2638,262.4349,31,63,0
262.44235,262.6135,31,64,0
262.6209,262.79205,31,66,0
262.7995,262.9706,31,68,0
263.69235,263.86346,31,76,0
263.69235,263.86346,43,76,0
263.8709,264.04205,31,77,0
263.8709,264.04205,43,77,0
264.40665,264.57776,43,82,0
264.40665,264.57776,55,82,0
264.5852,264.75635,43,84,0
264.5852,264.75635,55,84,0
265.1209,265.29205,53,89,0
265.1209,265.29205,41,89,0
265.2995,265.4706,53,91,0
265.2995,265.4706,41,91,0
265.8352,266.0149,38,96,0
265.8352,266.0149,50,96,0
266.0227,266.2024,38,97,0
266.0227,266.2024,50,97,0
266.62186,266.7078,36,120,0
266.62186,266.7078,48,120,0
266.7156,266.80154,50,120,0
266.80936,266.8912,52,120,0
266.89865,266.98047,53,120,0
266.9879,267.06976,55,120,0
267.0772,267.15906,57,120,0
267.1665,267.24835,59,120,0
267.25577,267.33762,60,120,0
267.34506,267.4269,59,120,0
267.43436,267.5162,60,120,0
267.52365,267.60547,59,120,0
267.6129,267.69476,57,120,0
267.7022,267.78406,55,120,0
267.7915,267.87335,53,120,0
267.88077,267.96262,52,120,0
267.97006,268.0519,50,120,0
268.05936,268.40906,48,120,0
269.4879,269.56976,48,120,0
269.5772,269.65906,50,120,0
269.6665,269.74832,52,120,0
269.75577,269.83762,53,120,0
269.84506,269.9269,55,120,0
269.93436,270.0162,57,120,0
270.02362,270.10547,59,120,0
270.1129,270.19476,60,120,0
270.2022,270.28406,59,120,0
270.29147,270.37332,60,120,0
270.38077,270.46262,59,120,0
270.47006,270.5519,57,120,0
270.55936,270.64117,55,120,0
270.64862,270.73047,53,120,0
270.7379,270.81976,52,120,0
270.8272,270.90906,50,120,0
270.91647,271.26617,48,120,0
272.34506,272.4269,41,120,0
272.43433,272.51617,44,120,0
272.52362,272.60547,45,120,0
272.6129,272.69476,46,120,0
272.7022,272.78403,48,120,0
272.79147,272.87332,50,120,0
272.88077,272.96262,52,120,0
272.97006,273.0519,53,120,0
273.05933,273.14117,52,120,0
273.14862,273.23047,53,120,0
273.2379,273.31976,52,120,0
273.3272,273.40903,50,120,0
273.41647,273.49832,48,120,0
273.50577,273.58762,46,120,0
273.59506,273.6769,45,120,0
273.68433,273.76617,44,120,0
273.77362,274.12332,41,120,0
275.20218,275.28403,41,120,0
275.29147,275.37332,44,120,0
275.38077,275.46262,45,120,0
275.47003,275.55188,46,120,0
275.55933,275.64117,48,120,0
275.64862,275.73047,50,120,0
275.7379,275.81976,52,120,0
275.82718,275.90903,54,120,0
275.91647,275.95367,55,120,0
276.00577,276.08762,53,120,0
276.09503,276.17688,52,120,0
276.18433,276.26617,50,120,0
276.27362,276.35547,48,120,0
276.3629,276.44473,46,120,0
276.45218,276.53403,45,120,0
276.54147,276.62332,44,120,0
276.63077,276.71262,45,120,0
276.72003,276.80188,47,120,0
276.80933,276.89117,48,120,0
276.89862,276.98047,50,120,0
276.9879,277.06973,52,120,0
277.07718,277.15903,53,120,0
277.16647,277.24832,55,120,0
277.25577,277.33762,57,120,0
277.34503,277.42688,47,120,0
277.43433,277.51617,48,120,0
277.52362,277.60547,50,120,0
277.61288,277.69473,52,120,0
277.70218,277.78403,53,120,0
277.79147,277.87332,55,120,0
277.88077,277.9626,57,120,0
277.97003,278.05188,59,120,0
278.05933,278.14117,48,120,0
278.14862,278.23047,50,120,0
278.23788,278.31973,52,120,0
278.32718,278.40903,53,120,0
278.41647,278.49832,55,120,0
278.50577,278.5876,57,120,0
278.59503,278.67688,59,120,0
278.68433,278.76617,60,120,0
278.77362,278.85547,50,120,0
278.86288,278.94473,52,120,0
278.95218,279.03403,53,120,0
279.04147,279.12332,55,120,0
279.13074,279.2126,57,120,0
279.22003,279.30188,59,120,0
279.30933,279.39117,60,120,0
279.39862,279.48047,62,120,0
279.48788,279.56973,52,120,0
279.57718,279.65903,53,120,0
279.66647,279.74832,55,120,0
279.75574,279.8376,57,120,0
279.84503,279.92688,59,120,0
279.93433,280.01617,60,120,0
280.02362,280.10544,62,120,0
280.11288,280.19473,64,120,0
280.20218,280.28403,53,120,0
280.29147,280.37332,55,120,0
280.38074,280.4626,57,120,0
280.47003,280.55188,59,120,0
280.55933,280.64117,60,120,0
280.64862,280.73044,62,120,0
280.73788,280.81973,64,120,0
280.82718,280.90903,65,120,0
280.91647,280.99832,55,120,0
281.00574,281.0876,57,120,0
281.09503,281.17688,59,120,0
281.18433,281.26617,60,120,0
281.2736,281.35544,62,120,0
281.36288,281.44473,64,120,0
281.45218,281.53403,65,120,0
281.54147,281.6233,67,120,0
281.63074,281.7126,57,120,0
281.72003,281.80188,59,120,0
281.80933,281.89117,60,120,0
281.8986,281.98044,62,120,0
281.98788,282.06973,64,120,0
282.07718,282.15903,65,120,0
282.16647,282.2483,67,120,0
282.25574,282.3376,69,120,0
282.34503,282.69473,59,120,0
282.34503,282.69473,62,120,0
283.7736,284.1233,55,115,0
283.7736,284.1233,60,115,0
283.7736,284.1233,64,115,0
285.27454,285.64172,53,70,0
285.27454,285.64172,57,70,0
285.27454,285.64172,62,70,0
286.77454,287.16104,55,50,0
286.77454,287.16104,59,50,0
286.77454,287.16104,62,50,0
288.3535,288.7032,51,50,0
288.71063,289.06033,48,50,0
289.06775,289.41748,47,50,0
289.4249,289.7746,50,50,0
289.78204,290.13174,51,50,0
290.1392,290.4889,48,50,0
290.49634,290.84604,49,50,0
290.8535,291.2032,52,50,0
291.2106,291.5603,53,50,0
291.56775,291.91745,50,50,0
291.9249,292.2746,51,50,0
292.28204,292.63174,54,50,0
292.6392,292.9889,55,50,0
292.99634,293.34604,52,50,0
293.35345,293.70316,53,50,0
293.7106,294.0603,56,50,0
294.06775,294.41745,57,50,0
294.4249,294.7746,54,50,0
294.78204,295.13174,57,50,0
295.1392,295.4889,53,50,0
295.4963,295.846,57,50,0
295.85345,296.20316,52,50,0
296.2106,296.5603,57,50,0
296.56775,296.92596,51,50,0
296.9336,297.30078,57,50,0
297.3086,297.67578,52,50,0
297.6836,298.0701,57,50,0
298.07834,298.46484,53,50,0
298.47308,298.88104,57,50,0
298.88974,299.29773,52,50,0
299.3064,299.75146,57,50,0
299.76096,300.31042,51,50,0
300.32346,301.82492,52,70,0
301.83237,303.2535,45,70,0
303.26096,304.68207,38,70,0
303.26096,304.68207,50,70,0
304.6895,306.11063,40,70,0
304.6895,306.11063,52,70,0
306.11807,306.2892,33,70,0
306.29666,306.46777,33,71,0
306.47522,306.64636,33,73,0
306.65378,306.82492,33,75,0
306.83237,307.00348,33,76,0
307.01093,307.18207,33,78,0
307.1895,307.36063,33,80,0
307.36807,307.5392,33,81,0
307.54663,307.71777,33,83,0
307.72522,307.89636,33,85,0
307.90378,308.07492,33,87,0
308.08237,308.25348,33,88,0
308.26093,308.43207,33,90,0
308.4395,308.61063,33,92,0
308.61807,308.7892,31,93,0
308.79663,308.96777,31,95,0
308.97522,309.14633,30,97,0
309.15378,309.32492,30,98,0
309.33237,309.50348,38,100,0
309.51093,309.68207,38,102,0
309.68948,309.86063,40,104,0
309.86807,310.03918,40,105,0
310.04663,310.21777,40,107,0
310.22522,310.39633,40,109,0
310.40378,310.57492,33,110,0
311.86008,312.04922,52,60,0
311.95877,312.13928,61,60,0
312.05743,312.22858,57,60,0
312.14673,312.31787,61,60,0
312.23602,312.40714,64,60,0
312.3253,312.49643,61,60,0
312.41458,312.58572,57,60,0
312.50388,312.675,61,60,0
312.59317,312.76428,52,60,0
312.68243,312.85358,62,60,0
312.77173,312.94287,59,60,0
312.86102,313.03214,62,60,0
312.9503,313.12143,52,60,0
313.03958,313.21072,62,60,0
313.12888,313.3,56,60,0
313.21817,313.3,62,60,0
313.30743,313.47858,52,60,0
313.39673,313.56787,61,60,0
313.48602,313.65714,57,60,0
313.5753,313.74643,61,60,0
313.66458,313.83572,64,60,0
313.75388,313.925,61,60,0
313.84314,314.01428,57,60,0
313.93243,314.10358,61,60,0
314.02173,314.19284,52,60,0
314.11102,314.28214,61,60,0
314.2003,314.37143,57,60,0
314.28958,314.46072,61,60,0
314.37888,314.55,52,60,0
314.46814,314.63928,61,60,0
314.55743,314.72858,55,60,0
314.64673,314.72858,61,60,0
314.73602,314.90714,54,60,0
314.8253,314.99643,62,60,0
314.91458,315.08572,57,60,0
315.00388,315.175,62,60,0
315.09314,315.26428,54,60,0
315.18243,315.35358,62,60,0
315.27173,315.44284,58,60,0
315.361,315.53214,62,60,0
315.4503,315.62143,54,60,0
315.53958,315.71072,62,60,0
315.62888,315.8,59,60,0
315.71814,315.88928,62,60,0
315.80743,315.97858,54,60,0
315.89673,316.06784,62,60,0
315.986,316.15714,59,60,0
316.0753,316.15714,62,60,0
316.16458,316.3357,56,60,0
316.25388,316.425,62,60,0
316.34314,316.51428,59,60,0
316.43243,316.60358,62,60,0
316.52173,316.69284,56,60,0
316.611,316.78214,62,60,0
316.7003,316.87143,59,60,0
316.78958,316.9607,62,60,0
316.87888,317.05,56,60,0
316.96814,317.13928,62,60,0
317.05743,317.22858,59,60,0
317.14673,317.31784,62,60,0
317.236,317.40714,52,60,0
317.3253,317.49643,62,60,0
317.41458,317.5857,59,60,0
317.50385,317.675,62,60,0
317.59314,317.76428,52,60,0
317.68243,317.85355,61,60,0
317.77173,317.94284,57,60,0
317.861,318.03214,61,60,0
317.9503,318.12143,64,60,0
318.03958,318.2107,61,60,0
318.12885,318.3,57,60,0
318.21814,318.38928,61,60,0
318.30743,318.47855,52,60,0
318.39673,318.56784,62,60,0
318.486,318.65714,59,60,0
318.5753,318.74643,62,60,0
318.66458,318.8357,52,60,0
318.75385,318.925,62,60,0
318.84314,319.01428,56,60,0
318.93243,319.01428,62,60,0
319.0217,319.19284,57,60,0
319.111,319.28214,64,61,0
319.2003,319.37143,61,62,0
319.28958,319.4607,64,64,0
319.37885,319.55,56,65,0
319.46814,319.63928,64,67,0
319.55743,319.72855,61,68,0
319.6467,319.81784,64,70,0
319.736,319.90714,57,71,0
319.8253,319.9964,64,73,0
319.91458,320.0857,61,74,0
320.00385,320.175,64,76,0
320.09314,320.26428,55,77,0
320.18243,320.35355,64,78,0
320.2717,320.44284,57,80,0
320.361,320.44284,64,81,0
320.4503,320.6214,54,83,0
320.53958,320.7107,62,84,0
320.62885,320.8,57,86,0
320.71814,320.88928,62,87,0
320.80743,320.97855,50,89,0
320.8967,321.06784,59,90,0
320.986,321.15714,54,92,0
321.0753,321.2464,59,93,0
321.16455,321.3357,52,95,0
321.25385,321.425,59,96,0
321.34314,321.51425,56,97,0
321.43243,321.60355,59,99,0
321.5217,321.69284,52,100,0
321.611,321.78214,62,92,0
321.7003,321.8714,56,85,0
321.78955,321.8714,62,80,0
321.87885,322.05,45,70,0
322.05743,322.22855,45,70,0
322.05743,322.22855,52,70,0
322.05743,322.22855,57,70,0
322.236,322.40714,45,70,0
322.236,322.40714,52,70,0
322.236,322.40714,57,70,0
322.41455,322.5857,45,70,0
322.41455,322.5857,52,70,0
322.41455,322.5857,57,70,0
322.7717,322.94284,45,70,0
322.7717,322.94284,52,70,0
322.7717,322.94284,57,70,0
322.9503,323.1214,45,70,0
322.9503,323.1214,52,70,0
322.9503,323.1214,57,70,0
323.12885,323.3,45,70,0
323.12885,323.3,52,70,0
323.12885,323.3,57,70,0
323.486,323.6571,45,70,0
323.486,323.6571,52,70,0
323.486,323.6571,59,70,0
323.66455,323.8357,45,70,0
323.66455,323.8357,52,70,0
323.66455,323.8357,59,70,0
323.84314,324.01425,45,70,0
323.84314,324.01425,52,70,0
323.84314,324.01425,59,70,0
324.2003,324.3714,45,70,0
324.2003,324.3714,52,70,0
324.2003,324.3714,59,70,0
324.37885,324.55,45,70,0
324.37885,324.55,52,70,0
324.37885,324.55,59,70,0
324.5574,324.72855,45,70,0
324.5574,324.72855,52,70,0
324.5574,324.72855,59,70,0
324.91455,325.0857,45,70,0
324.91455,325.0857,52,70,0
324.91455,325.0857,57,70,0
325.09314,325.26425,45,70,0
325.09314,325.26425,52,70,0
325.09314,325.26425,57,70,0
325.2717,325.44284,45,70,0
325.2717,325.44284,52,70,0
325.2717,325.44284,57,70,0
325.62885,325.79996,45,70,0
325.62885,325.79996,52,70,0
325.62885,325.79996,57,70,0
325.8074,325.97855,45,70,0
325.8074,325.97855,52,70,0
325.8074,325.97855,57,70,0
325.986,326.1571,45,70,0
325.986,326.1571,52,70,0
325.986,326.1571,57,70,0
326.3431,326.51425,45,70,0
326.3431,326.51425,52,70,0
326.3431,326.51425,59,70,0
326.5217,326.6928,45,70,0
326.5217,326.6928,52,70,0
326.5217,326.6928,59,70,0
326.70026,326.8714,45,70,0
326.70026,326.8714,52,70,0
326.70026,326.8714,59,70,0
327.0574,327.22855,45,70,0
327.0574,327.22855,52,70,0
327.0574,327.22855,59,70,0
327.236,327.4071,45,70,0
327.236,327.4071,52,70,0
327.236,327.4071,59,70,0
327.41455,327.5857,45,70,0
327.41455,327.5857,52,70,0
327.41455,327.5857,59,70,0
327.5931,327.9428,45,70,0
327.5931,327.9428,52,70,0
327.5931,327.9428,57,70,0
328.12885,328.29996,57,72,0
328.12885,328.29996,45,72,0
328.3074,328.6571,59,73,0
328.3074,328.6571,47,73,0
328.8431,329.01425,59,75,0
328.8431,329.01425,47,75,0
329.0217,329.3714,61,76,0
329.0217,329.3714,49,76,0
329.5574,329.72855,61,78,0
329.5574,329.72855,49,78,0
329.73596,329.9071,63,79,0
329.73596,329.9071,51,79,0
329.91455,330.08566,63,80,0
329.91455,330.08566,51,80,0
330.0931,330.26425,63,80,0
330.0931,330.26425,51,80,0
330.2717,330.4428,63,81,0
330.2717,330.4428,51,81,0
330.45026,330.79996,52,82,0
330.45026,330.79996,56,82,0
330.98596,331.1571,52,84,0
330.98596,331.1571,56,84,0
331.16455,331.51425,57,85,0
331.16455,331.51425,54,85,0
331.70026,331.8714,54,88,0
331.70026,331.8714,57,88,0
331.8788,332.22852,56,88,0
331.8788,332.22852,59,88,0
332.41455,332.58566,56,91,0
332.41455,332.58566,59,91,0
332.5931,332.7684,52,91,0
332.5931,332.7684,56,91,0
332.77603,332.95135,52,92,0
332.77603,332.95135,56,92,0
332.95895,333.13864,52,93,0
332.95895,333.13864,56,93,0
333.14645,333.3356,52,94,0
333.14645,333.3356,56,94,0
333.34384,333.53296,57,95,0
333.34384,333.53296,61,95,0
333.5412,333.71234,57,95,0
333.5412,333.71234,61,95,0
333.71976,333.8909,59,96,0
333.71976,333.8909,63,96,0
333.89835,334.06946,59,97,0
333.89835,334.06946,63,97,0
334.0769,334.24805,61,98,0
334.0769,334.24805,64,98,0
334.2555,334.4266,61,99,0
334.2555,334.4266,64,99,0
334.43405,334.6052,63,99,0
334.43405,334.6052,66,99,0
334.6126,334.78375,63,100,0
334.6126,334.78375,66,100,0
334.7912,334.9623,56,100,0
334.7912,334.9623,52,100,0
334.96976,335.1409,56,100,0
334.96976,335.1409,52,100,0
335.14835,335.31946,54,100,0
335.14835,335.31946,57,100,0
335.3269,335.49805,54,100,0
335.3269,335.49805,57,100,0
335.5055,335.6766,56,100,0
335.5055,335.6766,59,100,0
335.68405,335.8552,56,100,0
335.68405,335.8552,59,100,0
335.8626,336.03375,52,100,0
335.8626,336.03375,56,100,0
336.0412,336.2123,52,100,0
336.0412,336.2123,56,100,0
336.21976,336.3909,57,110,0
336.21976,336.3909,61,110,0
336.39835,336.56946,57,110,0
336.39835,336.56946,61,110,0
336.5769,336.74805,56,110,0
336.5769,336.74805,59,110,0
336.75546,336.9266,56,110,0
336.75546,336.9266,59,110,0
336.93405,337.10516,54,110,0
336.93405,337.10516,57,110,0
337.1126,337.28375,54,110,0
337.1126,337.28375,57,110,0
337.2912,337.4623,47,110,0
337.2912,337.4623,54,110,0
337.46976,337.6409,47,110,0
337.46976,337.6409,54,110,0
337.64835,337.81946,52,110,0
337.64835,337.81946,56,110,0
338.4519,338.53375,64,120,0
338.5412,338.62302,66,120,0
338.63046,338.7123,68,120,0
338.71976,338.8016,69,120,0
338.80905,338.8909,71,120,0
338.89832,338.98016,73,120,0
338.9876,339.06946,75,120,0
339.0769,339.15875,76,120,0
339.1662,339.24802,68,120,0
339.25546,339.3373,69,120,0
339.34476,339.4266,71,120,0
339.43405,339.5159,73,120,0
339.52332,339.60516,75,120,0
339.6126,339.69446,76,120,0
339.7019,339.78375,78,120,0
339.79117,339.87302,80,120,0
339.88046,339.9623,71,120,0
339.96976,340.0516,73,120,0
340.05905,340.14087,75,120,0
340.14832,340.23016,76,120,0
340.2376,340.31946,78,120,0
340.3269,340.40875,80,120,0
340.41617,340.49802,81,120,0
340.50546,340.6766,83,120,0
340.68405,340.85516,80,120,0
340.8626,341.03375,76,120,0
341.04117,341.2123,71,120,0
341.21976,341.39087,68,120,0
341.39832,341.56946,64,120,0
341.5769,341.74802,59,120,0
341.75546,341.9266,56,120,0
341.93402,342.28372,52,120,0
342.29117,342.64087,40,100,0
344.79117,345.85516,38,70,0
345.8626,346.03372,50,70,0
346.04117,346.2123,50,70,0
346.21973,346.39087,50,70,0
346.39832,346.56943,50,70,0
346.57687,346.74802,52,70,0
346.75546,346.92657,52,70,0
346.93402,347.1137,54,70,0
347.12152,347.3012,54,70,0
347.30902,347.49817,52,70,0
347.50638,347.69553,52,70,0
347.70377,348.09027,50,70,0
348.09848,348.48502,50,70,0
350.7827,351.8999,39,70,0
351.9077,352.0874,51,70,0
352.0952,352.2749,51,70,0
352.2827,352.4624,51,70,0
352.4702,352.6499,51,70,0
352.6577,352.8374,52,70,0
352.8452,353.0249,52,70,0
353.0327,353.22183,54,70,0
353.23007,353.41922,54,70,0
353.42743,353.6271,52,70,0
353.63577,353.83542,52,70,0
353.84412,354.25208,51,70,0
354.26077,354.66876,51,70,0
355.51077,357.08627,51,70,0
355.51077,357.08627,54,70,0
357.0941,358.58627,52,100,0
357.0941,358.58627,57,100,0
358.5941,359.71127,52,70,0
358.5941,359.71127,59,70,0
359.7191,360.11612,52,70,0
359.7191,360.11612,56,70,0
360.12482,360.53278,56,70,0
360.12482,360.94946,54,70,0
360.54147,360.94946,57,70,0
361.79147,363.28366,50,70,0
361.79147,363.28366,54,70,0
363.29147,364.03366,52,70,0
363.29147,364.03366,57,70,0
364.04147,365.15866,52,83,0
364.04147,365.15866,61,83,0
364.04147,365.15866,64,83,0
365.16647,365.53366,52,110,0
365.16647,365.53366,59,110,0
365.16647,365.53366,62,110,0
365.54147,365.92798,61,110,0
365.54147,365.92798,57,110,0
365.54147,365.92798,52,110,0
365.9362,366.35583,40,110,0
365.9362,366.35583,44,110,0
365.9362,366.35583,47,110,0
365.9362,366.35583,52,110,0
366.36478,366.55392,45,70,0
366.36478,366.55392,49,70,0
366.46347,366.64398,52,70,0
366.56213,366.73328,45,70,0
366.56213,366.73328,49,70,0
366.65143,366.82257,52,70,0
366.74072,366.91183,45,70,0
366.74072,366.91183,49,70,0
366.83,367.00113,52,70,0
366.91928,367.09042,45,70,0
366.91928,367.09042,49,70,0
367.00858,367.09042,52,70,0
367.09784,367.26898,45,70,0
367.09784,367.26898,50,70,0
367.18713,367.35828,52,70,0
367.27643,367.44754,45,70,0
367.27643,367.44754,50,70,0
367.36572,367.53683,52,70,0
367.455,367.62613,45,70,0
367.455,367.62613,50,70,0
367.54428,367.71542,52,70,0
367.63358,367.8047,45,70,0
367.63358,367.8047,50,70,0
367.72284,367.8047,52,70,0
367.81213,367.98328,45,70,0
367.81213,367.98328,49,70,0
367.90143,368.07254,52,70,0
367.99072,368.16183,45,70,0
367.99072,368.16183,49,70,0
368.08,368.25113,52,70,0
368.16928,368.34042,45,70,0
368.16928,368.34042,49,70,0
368.25858,368.4297,52,70,0
368.34784,368.51898,45,70,0
368.34784,368.51898,49,70,0
368.43713,368.51898,52,70,0
368.52643,368.69754,45,70,0
368.52643,368.69754,50,70,0
368.6157,368.78683,52,70,0
368.705,368.87613,45,70,0
368.705,368.87613,50,70,0
368.79428,368.96542,52,70,0
368.88358,369.0547,45,70,0
368.88358,369.0547,50,70,0
368.97284,369.14398,52,70,0
369.06213,369.23328,45,70,0
369.06213,369.23328,50,70,0
369.15143,369.23328,52,70,0
369.2407,369.41183,45,70,0
369.2407,369.41183,49,70,0
369.33,369.50113,52,70,0
369.41928,369.5904,45,70,0
369.41928,369.5904,49,70,0
369.50858,369.6797,52,70,0
369.59784,369.76898,45,70,0
369.59784,369.76898,49,70,0
369.68713,369.85828,52,70,0
369.77643,369.94754,45,70,0
369.77643,369.94754,49,70,0
369.8657,369.94754,52,70,0
369.955,370.12613,45,70,0
369.955,370.12613,50,70,0
370.04428,370.2154,52,70,0
370.13358,370.3047,45,70,0
370.13358,370.3047,50,70,0
370.22284,370.39398,52,70,0
370.31213,370.48328,45,70,0
370.31213,370.48328,50,70,0
370.40143,370.57254,52,70,0
370.4907,370.66183,45,70,0
370.4907,370.66183,50,70,0
370.58,370.66183,52,70,0
370.66928,370.8404,45,70,0
370.66928,370.8404,49,70,0
370.75854,370.9297,52,70,0
370.84784,371.01898,45,70,0
370.84784,371.01898,49,70,0
370.93713,371.10825,52,70,0
371.02643,371.19754,45,70,0
371.02643,371.19754,49,70,0
371.1157,371.28683,52,70,0
371.205,371.37613,45,70,0
371.205,371.37613,49,70,0
371.29428,371.37613,52,70,0
371.38354,371.5547,45,70,0
371.38354,371.5547,50,70,0
371.47284,371.64398,52,70,0
371.56213,371.73325,45,70,0
371.56213,371.73325,50,70,0
371.65143,371.82254,52,70,0
371.7407,371.91183,45,70,0
371.7407,371.91183,50,70,0
371.83,372.00113,52,70,0
371.91928,372.0904,45,70,0
371.91928,372.0904,50,70,0
372.00854,372.0904,52,70,0
372.09784,372.1797,45,70,0
372.18713,372.26898,47,70,0
372.2764,372.35825,49,71,0
372.3657,372.44754,50,72,0
372.455,372.53683,52,73,0
372.54428,372.62613,54,74,0
372.63354,372.7154,56,75,0
372.72284,372.8047,57,76,0
372.81213,372.89398,50,76,0
372.9014,372.98325,52,77,0
372.9907,373.07254,54,78,0
373.08,373.16183,55,79,0
373.16928,373.2511,57,80,0
373.25854,373.3404,59,81,0
373.34784,373.4297,61,82,0
373.43713,373.51898,62,83,0
373.5264,373.60825,52,83,0
373.6157,373.69754,54,84,0
373.705,373.78683,56,85,0
373.79428,373.8761,57,86,0
373.88354,373.9654,59,87,0
373.97284,374.0547,61,88,0
374.06213,374.14398,62,89,0
374.1514,374.23325,64,90,0
374.2407,374.32254,63,90,0
374.33,374.41183,64,91,0
374.41925,374.5011,63,92,0
374.50854,374.5904,64,93,0
374.59784,374.6797,63,94,0
374.68713,374.76895,64,95,0
374.7764,374.85825,63,96,0
374.8657,374.94754,64,96,0
374.955,375.03683,45,97,0
375.04425,375.1261,47,98,0
375.13354,375.2154,49,99,0
375.22284,375.3047,50,100,0
375.31213,375.39395,52,101,0
375.4014,375.48325,54,102,0
375.4907,375.57254,56,103,0
375.58,375.66183,57,103,0
375.66925,375.7511,50,104,0
375.75854,375.8404,52,105,0
375.84784,375.9297,54,106,0
375.9371,376.01895,55,107,0
376.0264,376.10825,57,108,0
376.1157,376.19754,59,109,0
376.205,376.28683,61,110,0
376.29425,376.3761,62,110,0
376.38354,376.4654,52,120,0
376.47284,376.5547,52,120,0
376.5621,376.64395,54,120,0
376.6514,376.73325,56,120,0
376.7407,376.82254,57,120,0
376.83,376.9118,56,120,0
376.91925,377.0011,57,120,0
377.00854,377.0904,59,120,0
377.09784,377.26895,61,120,0
379.32996,379.41925,40,120,0
379.41925,379.50854,42,120,0
379.50854,379.5978,44,120,0
379.5978,379.6871,45,120,0
379.6871,379.7764,44,120,0
379.7764,379.8657,45,120,0
379.8657,379.95496,47,120,0
379.95496,380.04425,49,120,0
380.04425,380.13354,44,120,0
380.13354,380.2228,45,120,0
380.2228,380.3121,47,120,0
380.3121,380.40585,49,120,0
380.40585,380.4996,47,120,0
380.4996,380.5983,49,120,0
380.5983,380.697,50,120,0
380.697,381.0835,52,120,0
389.47327,389.6444,57,70,0
389.47327,389.6444,61,70,0
389.65186,389.82297,52,70,0
389.8304,390.00156,57,70,0
389.8304,390.00156,61,70,0
390.00897,390.1801,52,70,0
390.18756,390.35867,62,70,0
390.18756,390.35867,59,70,0
390.36612,390.53726,52,70,0
390.5447,390.71582,62,70,0
390.5447,390.71582,59,70,0
390.72327,390.8944,52,70,0
390.90186,391.07297,61,70,0
390.90186,391.07297,57,70,0
391.0804,391.25156,52,70,0
391.25897,391.4301,61,70,0
391.25897,391.4301,57,70,0
391.43756,391.60867,52,70,0
391.61612,391.78726,61,70,0
391.61612,391.78726,57,70,0
391.7947,391.96582,52,70,0
391.97327,392.1444,61,70,0
391.97327,392.1444,57,70,0
392.15182,392.32297,52,70,0
392.3304,392.50153,62,70,0
392.50897,392.6801,57,74,0
392.68756,392.85867,62,78,0
392.86612,393.03726,57,83,0
393.04468,393.21582,63,87,0
393.22327,393.3944,57,92,0
393.40182,393.57297,63,96,0
393.5804,393.75153,57,100,0
393.75897,393.9301,64,100,0
393.93756,394.10867,59,96,0
394.11612,394.28726,64,92,0
394.29468,394.46582,62,87,0
394.47327,394.64438,61,83,0
394.65182,394.82297,57,78,0
394.8304,395.00153,64,74,0
395.00897,395.1801,57,70,0
395.18753,395.35867,62,70,0
395.36612,395.53723,57,74,0
395.54468,395.71582,62,78,0
395.72327,395.89438,57,83,0
395.90182,396.07297,63,87,0
396.0804,396.25153,57,92,0
396.25897,396.4301,63,96,0
396.43753,396.60867,57,100,0
396.61612,396.78723,64,100,0
396.79468,396.96582,59,96,0
396.97327,397.14438,64,92,0
397.15182,397.32297,62,87,0
397.33038,397.50153,61,83,0
397.50897,397.68008,57,78,0
397.68753,397.85867,64,74,0
397.86612,398.03723,57,70,0
398.04468,398.21582,62,70,0
398.13397,398.30508,59,70,0
398.22327,398.39438,62,70,0
398.31253,398.48367,59,70,0
398.40182,398.57297,62,70,0
398.49112,398.66223,59,70,0
398.58038,398.75153,62,70,0
398.66968,398.84082,59,70,0
398.75897,398.93008,60,70,0
398.84824,399.01938,57,70,0
398.93753,399.10867,60,70,0
399.02682,399.19995,57,70,0
399.11612,399.2914,60,70,0
399.20758,399.38287,57,70,0
399.29904,399.47433,60,70,0
399.3905,399.5658,57,70,0
399.48196,399.65726,61,70,0
399.57343,399.75082,57,74,0
399.6649,399.84457,61,78,0
399.75864,399.94284,57,83,0
399.8524,400.04153,61,87,0
399.95108,400.14023,57,91,0
400.04974,400.2389,61,96,0
400.14844,400.3376,57,100,0
400.24713,400.63364,52,110,0
400.24713,400.63364,59,110,0
400.24713,400.63364,62,110,0
400.64185,401.0615,52,110,0
400.64185,401.0615,59,110,0
400.64185,401.0615,62,110,0
406.90265,407.0738,49,70,0
407.08124,407.25235,50,70,0
407.2598,407.43094,52,70,0
407.43835,407.6095,54,70,0
407.61694,407.78806,56,70,0
407.7955,407.96664,57,70,0
407.9741,408.1452,59,70,0
408.15265,408.3238,61,70,0
408.3312,408.50235,62,70,0
408.5098,408.6809,63,70,0
408.68835,408.8595,64,70,0
408.86694,409.03806,65,70,0
409.0455,409.21664,66,70,0
409.2241,409.3952,59,70,0
409.40265,409.58234,64,70,0
409.59015,409.7793,62,70,0
409.7875,409.9672,61,70,0
409.7875,409.9672,57,70,0
409.975,410.14615,64,70,0
410.1536,410.3247,61,70,0
410.1536,410.3247,57,70,0
410.33215,410.5033,64,70,0
410.51074,410.68185,56,70,0
410.51074,410.68185,59,70,0
410.6893,410.86044,64,70,0
410.86786,411.039,56,70,0
410.86786,411.039,59,70,0
411.04645,411.21756,64,70,0
411.225,411.39615,61,70,0
411.225,411.39615,57,70,0
411.4036,411.5747,64,70,0
411.58215,411.7533,61,70,0
411.58215,411.7533,57,70,0
411.7607,411.93185,64,70,0
411.9393,412.1104,61,70,0
411.9393,412.1104,57,70,0
412.11786,412.289,64,70,0
412.29645,412.46756,57,70,0
412.29645,412.46756,64,70,0
412.475,412.64615,67,70,0
412.6536,412.8247,57,70,0
412.6536,412.8247,62,70,0
412.83215,413.0033,66,72,0
413.0107,413.18185,57,75,0
413.0107,413.18185,62,75,0
413.1893,413.3604,66,77,0
413.36786,413.539,59,80,0
413.36786,413.539,62,80,0
413.54645,413.71756,65,82,0
413.725,413.89615,59,85,0
413.725,413.89615,62,85,0
413.90356,414.0747,65,88,0
414.08215,414.25327,59,90,0
414.08215,414.25327,62,90,0
414.2607,414.43185,64,93,0
414.4393,414.6104,59,95,0
414.4393,414.6104,62,95,0
414.61786,414.789,64,98,0
414.79642,414.96756,57,100,0
414.79642,414.96756,61,100,0
414.975,415.14615,64,92,0
415.15356,415.3247,57,81,0
415.15356,415.3247,64,81,0
415.33215,415.50327,67,70,0
415.5107,415.68185,57,70,0
415.5107,415.68185,62,70,0
415.6893,415.8604,66,72,0
415.86786,416.039,57,75,0
415.86786,416.039,62,75,0
416.04642,416.21756,66,77,0
416.225,416.39612,59,80,0
416.225,416.39612,62,80,0
416.40356,416.5747,65,82,0
416.58215,416.75327,59,85,0
416.58215,416.75327,62,85,0
416.7607,416.93185,65,88,0
416.93927,417.1104,59,90,0
416.93927,417.1104,62,90,0
417.11786,417.28897,64,93,0
417.29642,417.46756,59,95,0
417.29642,417.46756,62,95,0
417.475,417.64612,64,98,0
417.65356,417.8247,57,100,0
417.65356,417.8247,61,100,0
417.83215,418.00327,64,92,0
418.0107,418.18185,57,81,0
418.0107,418.18185,64,81,0
418.18927,418.3604,67,70,0
418.36786,418.53897,57,70,0
418.45712,418.62827,66,71,0
418.54642,418.71756,62,72,0
418.6357,418.80685,66,73,0
418.725,418.89612,57,74,0
418.81427,418.9854,66,75,0
418.90356,419.0747,62,76,0
418.99286,419.16397,66,77,0
419.08212,419.25327,57,78,0
419.17142,419.34256,66,79,0
419.2607,419.43182,60,81,0
419.35,419.52112,66,82,0
419.43927,419.6104,57,83,0
419.52856,419.6997,66,84,0
419.61786,419.78897,60,85,0
419.70712,419.78897,66,86,0
419.79642,419.9717,57,87,0
419.88788,420.0632,64,88,0
419.97934,420.15466,61,89,0
420.0708,420.2482,64,90,0
420.16226,420.34195,57,92,0
420.256,420.4357,64,93,0
420.34976,420.52945,61,94,0
420.4435,420.62775,64,95,0
420.53726,420.7264,57,96,0
420.63596,420.8251,65,97,0
420.73465,420.9238,61,98,0
420.8333,421.0275,65,99,0
420.932,421.13165,57,100,0
421.03616,421.23584,65,90,0
421.14035,421.34,61,80,0
421.2445,421.34,65,70,0
421.34866,421.52835,57,70,0
421.4424,421.618,66,70,0
421.53616,421.7073,62,70,0
421.62546,421.7966,66,70,0
421.71475,421.88586,57,70,0
421.80405,421.97516,66,70,0
421.8933,422.06445,62,70,0
421.9826,422.15375,66,70,0
422.0719,422.243,57,70,0
422.16116,422.3323,66,70,0
422.25046,422.4216,62,70,0
422.33975,422.51086,66,70,0
422.42902,422.60016,57,70,0
422.5183,422.68945,66,70,0
422.6076,422.77872,62,70,0
422.6969,422.77872,66,70,0
422.78616,422.9573,59,70,0
422.87546,423.0466,64,70,0
422.96475,423.13586,62,70,0
423.05402,423.22516,64,70,0
423.1433,423.31445,59,70,0
423.2326,423.40372,64,70,0
423.3219,423.493,62,70,0
423.41116,423.5823,64,70,0
423.50046,423.6716,59,71,0
423.58975,423.76086,64,71,0
423.67902,423.85016,62,71,0
423.7683,423.93945,64,72,0
423.8576,424.02872,59,72,0
423.94687,424.118,64,72,0
424.03616,424.2073,62,72,0
424.12546,424.2073,64,73,0
424.21475,424.38586,57,73,0
424.30402,424.47516,64,73,0
424.3933,424.56445,61,74,0
424.4826,424.65372,64,74,0
424.57187,424.743,61,74,0
424.66116,424.8323,64,75,0
424.75046,424.92157,61,75,0
424.83975,425.01086,64,75,0
424.92902,425.10016,59,75,0
425.0183,425.18945,66,76,0
425.1076,425.27872,59,76,0
425.19687,425.368,66,76,0
425.28616,425.4573,59,77,0
425.37546,425.54657,66,77,0
425.46475,425.63586,59,77,0
425.55402,425.63586,66,77,0
425.6433,425.81445,61,78,0
425.7326,425.90372,64,78,0
425.82187,425.993,61,78,0
425.91116,426.0823,64,79,0
426.00046,426.17157,61,79,0
426.08972,426.26086,64,79,0
426.17902,426.35016,61,80,0
426.2683,426.44354,64,80,0
426.3576,426.5373,56,80,0
426.45135,426.63104,64,80,0
426.5451,426.7248,56,81,0
426.63885,426.82306,64,81,0
426.7326,426.92172,56,81,0
426.83127,427.02817,64,82,0
426.92996,427.1353,56,82,0
427.0371,427.1353,64,82,0
427.14426,427.3496,54,82,0
427.25137,427.449,62,83,0
427.35852,427.54767,57,83,0
427.4572,427.63776,62,83,0
427.5559,427.72702,54,84,0
427.64517,427.8163,62,84,0
427.73447,427.9056,57,84,0
427.82376,427.99487,62,85,0
427.91306,428.08417,54,85,0
428.00232,428.17346,62,85,0
428.0916,428.26276,57,85,0
428.1809,428.35202,62,86,0
428.27017,428.4413,54,86,0
428.35947,428.5306,62,86,0
428.44876,428.61987,57,87,0
428.53802,428.70917,62,87,0
428.62732,428.79846,56,87,0
428.7166,428.88776,64,87,0
428.8059,428.97702,59,88,0
428.89517,429.0663,64,88,0
428.98447,429.1556,56,88,0
429.07376,429.24487,64,89,0
429.16302,429.33417,59,89,0
429.25232,429.42346,64,89,0
429.3416,429.51273,56,90,0
429.4309,429.60202,64,90,0
429.52017,429.6913,59,90,0
429.60947,429.7806,64,90,0
429.69876,429.86987,56,91,0
429.78802,429.95917,64,91,0
429.87732,430.04846,59,91,0
429.9666,430.13773,64,92,0
430.0559,430.22702,57,92,0
430.14517,430.3163,64,92,0
430.23447,430.4056,61,92,0
430.32376,430.49487,64,93,0
430.41302,430.58417,57,93,0
430.50232,430.67346,64,93,0
430.5916,430.76273,61,94,0
430.68088,430.85202,64,94,0
430.77017,430.9413,50,94,0
430.85947,431.03058,59,95,0
430.94876,431.11987,54,95,0
431.03802,431.20917,59,95,0
431.12732,431.29846,50,95,0
431.2166,431.38773,59,96,0
431.30588,431.47702,54,96,0
431.39517,431.5663,59,96,0
431.48447,431.65558,52,97,0
431.57376,431.74487,61,97,0
431.66302,431.83417,57,97,0
431.75232,431.92346,61,98,0
431.8416,432.01273,52,98,0
431.93088,432.10202,61,98,0
432.02017,432.1913,57,98,0
432.10947,432.28058,61,99,0
432.19873,432.36987,52,99,0
432.28802,432.45917,59,99,0
432.37732,432.54846,56,100,0
432.4666,432.63773,59,100,0
432.55588,432.72702,52,100,0
432.64517,432.8163,59,100,0
432.73447,432.90558,56,101,0
432.82373,432.90558,59,101,0
432.91302,433.08417,57,101,0
433.00232,433.17343,64,102,0
433.0916,433.26273,61,102,0
433.18088,433.35202,64,102,0
433.27017,433.4413,57,103,0
433.35947,433.53058,64,103,0
433.44873,433.61987,61,103,0
433.53802,433.70917,64,103,0
433.62732,433.79843,50,104,0
433.7166,433.88773,59,104,0
433.80588,433.97702,54,104,0
433.89517,434.0663,59,105,0
433.98447,434.15558,50,105,0
434.07373,434.24487,59,105,0
434.16302,434.33417,54,105,0
434.25232,434.42343,59,106,0
434.34158,434.51273,52,106,0
434.43088,434.60202,61,106,0
434.52017,434.69128,57,107,0
434.60947,434.78058,61,107,0
434.69873,434.86987,52,107,0
434.78802,434.95917,61,108,0
434.87732,435.04843,57,108,0
434.96658,435.13773,61,108,0
435.05588,435.22702,52,108,0
435.14517,435.31628,59,109,0
435.23447,435.40558,56,109,0
435.32373,435.49487,59,109,0
435.41302,435.58417,52,110,0
435.50232,435.67343,59,110,0
435.59158,435.76273,56,110,0
435.68088,435.76273,59,110,0
435.77017,435.94128,45,120,0
435.77017,435.94128,49,120,0
435.77017,435.94128,52,120,0
435.77017,435.94128,57,120,0
435.94873,436.11987,45,120,0
436.12732,436.29843,45,120,0
436.30588,436.47702,45,120,0
436.48444,436.65558,45,120,0
436.66302,436.83414,45,120,0
436.84158,437.01273,42,120,0
437.02017,437.19128,39,120,0
437.19873,437.36987,40,120,0
437.37732,437.54843,40,120,0
437.55588,437.72702,37,120,0
437.73444,437.90558,33,120,0
437.91302,438.0927,40,120,0
438.10052,438.2802,40,120,0
438.28802,438.47717,40,120,0
438.48538,438.67453,40,120,0
438.68274,439.041,33,120,0
438.68274,439.041,45,120,0
440.14618,440.5044,49,120,0
440.51202,440.87024,45,120,0
440.87787,441.2361,44,120,0
441.2437,441.60196,47,120,0
441.6096,442.69952,40,120,0
442.70712,442.88245,42,120,0
442.7986,442.9739,44,120,0
442.89008,443.06537,45,120,0
442.98154,443.06537,47,120,0
443.073,443.4312,49,120,0
443.43884,443.79706,45,120,0
443.8047,444.16293,44,120,0
444.17056,444.52878,47,120,0
444.5364,444.89462,49,120,0
444.90225,445.2605,45,116,0
445.2681,445.62634,44,112,0
445.63397,445.9922,47,107,0
445.99982,446.35803,45,103,0
446.36566,446.7239,40,98,0
446.7315,447.0987,39,94,0
447.1065,447.4737,42,89,0
447.4815,447.8487,40,85,0
447.8565,448.23312,37,81,0
448.24112,448.61774,35,76,0
448.62576,449.01227,38,72,0
449.02048,449.40698,37,67,0
449.41522,449.8122,33,63,0
449.82062,450.2286,32,58,0
450.2373,450.65692,35,54,0
450.66586,450.84555,33,50,0
450.85336,451.03305,33,51,0
451.04086,451.22055,33,53,0
451.22836,451.40805,33,54,0
451.41586,451.59555,33,56,0
451.60336,451.78305,33,58,0
451.79086,451.97055,33,59,0
451.97836,452.15805,33,61,0
452.16586,452.34555,33,63,0
452.35336,452.53305,33,64,0
452.54086,452.72055,33,66,0
452.72836,452.90805,33,68,0
452.91586,453.09555,33,69,0
453.10336,453.28305,33,71,0
453.29086,453.47055,33,73,0
453.47836,453.65805,33,74,0
453.66586,453.84555,33,76,0
453.85336,454.03305,33,77,0
454.04086,454.22055,33,79,0
454.22836,454.40805,33,81,0
454.41586,454.59555,33,82,0
454.60336,454.78305,33,84,0
454.79086,454.97055,33,86,0
454.97836,455.15805,33,87,0
455.16586,455.337,33,89,0
455.34442,455.51556,33,91,0
455.523,455.69412,33,92,0
455.70157,455.8727,33,94,0
455.88016,456.05984,33,96,0
456.06766,456.24734,33,97,0
456.06766,456.24734,37,97,0
456.06766,456.24734,40,97,0
456.06766,456.24734,45,97,0
456.25516,456.4443,33,99,0
456.25516,456.4443,37,99,0
456.25516,456.4443,40,99,0
456.25516,456.4443,45,99,0
456.4525,456.65787,33,100,0
456.4525,456.65787,37,100,0
456.4525,456.65787,40,100,0
456.4525,456.65787,45,100,0
456.6668,457.08646,33,110,0
456.6668,457.08646,37,110,0
456.6668,457.08646,40,110,0
456.6668,457.08646,45,110,0
457.52396,458.01352,33,110,0
457.52396,458.01352,37,110,0
457.52396,458.01352,40,110,0
457.52396,458.01352,45,110,0
458.52396,459.26352,33,125,0
458.52396,459.26352,40,125,0
458.52396,459.26352,37,125,0
458.52396,459.26352,45,125,0
