start_time,end_time,note_value,velocity,instrument_program_number
0.0,0.4255948,72,110,0
0.0,0.4255948,67,110,0
0.0,0.4255948,63,110,0
0.4999995,0.5684518,67,110,0
0.571428,0.7827373,75,110,0
0.7857135,0.8541658,72,110,0
0.857142,1.0684513,79,110,0
1.0714275,1.1398798,75,110,0
1.142856,1.3541653,84,110,0
1.3571415,1.4255939,79,110,0
1.42857,1.7113078,87,110,0
1.714284,1.9970218,87,110,0
2.285712,2.5684497,72,80,0
2.285712,2.5684497,67,80,0
2.571426,3.1398778,67,80,0
2.571426,3.1398778,72,80,0
3.142854,3.4255917,71,80,0
3.142854,3.4255917,67,80,0
3.428568,3.854163,71,110,0
3.428568,3.854163,68,110,0
3.428568,3.854163,65,110,0
3.9285674,3.9970198,71,110,0
3.999996,4.211305,77,110,0
4.2142816,4.282734,74,110,0
4.28571,4.4970193,83,110,0
4.4999957,4.5684476,77,110,0
4.571424,4.7827334,86,110,0
4.7857094,4.8541617,83,110,0
4.857138,5.139876,89,110,0
5.142852,5.42559,89,110,0
5.71428,5.997018,74,80,0
5.71428,5.997018,71,80,0
5.999994,6.5684457,74,81,0
5.999994,6.5684457,71,81,0
6.571422,6.85416,72,83,0
6.857136,6.925588,72,85,0
6.8928504,6.925588,75,85,0
6.9285645,7.2827306,79,85,0
7.285707,7.4255877,77,87,0
7.428564,7.711302,75,87,0
7.714278,8.28273,74,89,0
8.285706,8.568444,72,91,0
8.57142,8.639873,67,93,0
8.607134,8.675587,72,93,0
8.642849,8.675587,75,93,0
8.678563,8.997015,79,93,0
8.999991,9.139872,77,95,0
9.142848,9.425586,75,95,0
9.428562,9.997014,74,97,0
9.428562,9.997014,71,97,0
9.99999,10.282728,72,99,0
10.285704,10.3541565,67,100,0
10.321418,10.389871,72,100,0
10.357133,10.389871,75,100,0
10.392847,10.711299,79,110,0
10.392847,10.711299,67,113,0
10.714275,10.854156,77,100,0
10.714275,10.854156,65,100,0
10.857132,11.425584,63,100,0
10.857132,11.425584,75,100,0
11.42856,11.711298,74,100,0
11.42856,11.711298,62,100,0
11.714274,12.282726,60,100,0
11.714274,12.282726,72,100,0
12.285702,12.5684395,71,100,0
12.285702,12.5684395,59,100,0
12.571416,13.139868,56,100,0
12.571416,13.139868,68,100,0
13.142844,13.425582,67,100,0
13.142844,13.425582,55,100,0
13.999986,14.092248,59,70,0
14.095224,14.187486,62,70,0
14.190462,14.282723,65,70,0
14.2857,14.377962,68,70,0
14.380938,14.4732,67,70,0
14.476176,14.568438,65,70,0
14.571414,14.854152,63,70,0
15.71427,15.806532,53,70,0
15.809508,15.90177,56,70,0
15.904746,15.997007,60,70,0
15.999984,16.092245,65,70,0
16.095222,16.187485,63,70,0
16.19046,16.282722,62,70,0
16.285698,16.568436,60,70,0
17.428555,17.520815,55,120,0
17.523792,17.616055,59,120,0
17.61903,17.711292,62,120,0
17.714268,17.80653,65,120,0
17.809505,17.901768,62,120,0
17.904743,17.997005,59,120,0
17.999983,18.425577,60,120,0
17.999983,18.425577,55,120,0
17.999983,18.425577,51,120,0
18.49998,18.568434,60,120,0
18.57141,18.782719,67,120,0
18.785696,18.854147,63,120,0
18.857124,19.068434,72,120,0
19.07141,19.139862,67,120,0
19.142838,19.354147,75,120,0
19.357124,19.425575,72,120,0
19.428553,19.71129,79,120,0
19.428553,19.71129,67,120,0
19.714266,19.997004,79,120,0
19.714266,19.997004,67,120,0
20.214266,20.282719,59,120,0
20.285694,20.497004,67,120,0
20.499979,20.568432,62,120,0
20.571407,20.782717,71,120,0
20.785694,20.854145,67,120,0
20.857122,21.068432,74,120,0
21.071407,21.13986,71,120,0
21.142836,21.425573,79,120,0
21.142836,21.425573,67,120,0
21.42855,21.711288,79,120,0
21.42855,21.711288,67,120,0
21.928549,21.997002,63,120,0
21.999977,22.211287,67,120,0
22.214264,22.282717,63,120,0
22.285692,22.497002,72,120,0
22.499977,22.56843,67,120,0
22.571405,22.782715,75,120,0
22.785692,22.854143,72,120,0
22.85712,23.06843,79,120,0
23.071405,23.139858,75,120,0
23.142834,23.425571,74,120,0
23.428549,23.711287,89,120,0
23.999975,24.282713,71,120,0
24.28569,24.568428,86,120,0
24.857119,25.139856,72,120,0
25.142832,25.42557,84,120,0
27.714258,28.28271,67,80,0
27.999971,28.28271,75,80,0
28.285686,28.854137,75,80,0
28.285686,29.139853,68,80,0
28.857115,29.425566,75,80,0
29.428541,29.711279,77,80,0
29.142828,29.996994,67,80,0
29.714256,30.282707,73,80,0
30.285685,30.568422,71,80,0
29.99997,30.854136,68,80,0
30.571398,30.854136,72,80,0
31.142826,31.711277,76,80,0
31.42854,31.711277,84,80,0
31.714254,32.282707,84,80,0
31.714254,32.56842,77,80,0
32.285683,32.854134,84,80,0
32.85711,33.139847,85,80,0
32.571396,33.42556,76,80,0
33.142822,33.711277,82,80,0
33.714252,33.99699,79,80,0
33.42854,34.282703,72,80,0
33.999966,34.282703,80,80,0
34.571396,35.139847,72,80,0
34.85711,35.139847,80,80,0
35.142822,35.711273,80,80,0
35.142822,35.996986,73,80,0
35.71425,36.282703,80,80,0
36.28568,36.568417,82,80,0
35.999966,36.85413,72,80,0
36.571392,37.139843,78,80,0
37.14282,37.425556,76,80,0
36.857105,37.711273,68,80,0
37.428535,37.996986,77,80,0
37.99996,38.2827,78,80,0
37.71425,38.568413,69,80,0
38.285675,38.854126,75,80,0
38.857105,39.139843,75,80,0
38.57139,39.425556,65,80,0
39.14282,39.71127,74,80,0
39.714245,39.996983,75,80,0
39.42853,40.2827,66,80,0
39.99996,40.2827,66,80,0
39.99996,40.2827,63,80,0
40.285675,40.568413,65,80,0
40.285675,40.568413,62,80,0
41.42853,41.71127,72,80,0
41.714245,41.996983,72,80,0
41.999958,42.282696,72,80,0
42.28567,42.56841,70,80,0
43.142815,43.425552,68,80,0
43.428528,43.711266,68,80,0
43.71424,43.99698,68,80,0
43.999954,44.282692,67,80,0
44.71424,44.854122,72,80,0
44.857098,44.99698,71,80,0
44.999954,45.139835,72,80,0
45.14281,45.282692,74,80,0
45.285667,45.42555,72,80,0
45.571384,45.711266,70,80,0
45.71424,45.854122,69,80,0
45.857098,45.99698,70,80,0
45.999954,46.139835,72,80,0
46.14281,46.282692,70,80,0
46.44356,46.598167,68,80,0
46.601456,46.75606,67,80,0
46.75935,46.913956,68,80,0
46.917248,47.07185,70,80,0
47.07514,47.229744,68,80,0
47.233036,48.545845,67,80,0
48.548824,48.688705,70,80,0
48.69168,48.97442,75,80,0
48.977394,49.83156,75,80,0
49.834538,50.117275,74,80,0
50.691677,51.545845,70,80,0
51.54882,51.61727,70,80,0
51.620247,51.6887,72,80,0
51.691677,51.760128,70,80,0
51.763107,51.83156,69,80,0
51.834534,51.974415,70,80,0
51.97739,52.11727,77,80,0
52.120247,52.402985,80,94,0
52.405964,53.260128,80,80,0
53.263103,53.54584,79,80,0
54.120247,54.260128,67,80,0
54.263103,54.402985,68,80,0
54.40596,54.54584,70,80,0
54.548817,54.688698,72,80,0
54.691673,54.831554,74,80,0
54.83453,54.97441,75,80,0
54.977386,55.117268,77,80,0
55.120247,55.260124,79,80,0
55.263103,55.402985,80,80,0
55.40596,55.54584,82,80,0
55.548817,55.688698,84,80,0
55.691673,55.831554,86,80,0
55.83453,56.688694,87,106,0
56.691673,56.97441,86,80,0
57.548813,57.688694,58,80,0
57.69167,57.83155,60,80,0
57.83453,57.974407,62,80,0
57.977386,58.117268,63,80,0
58.120243,58.260124,65,80,0
58.2631,58.40298,67,80,0
58.405956,58.545837,68,80,0
58.548813,58.688694,70,80,0
58.69167,58.83155,72,80,0
58.834526,58.974407,74,80,0
58.977383,59.117264,75,80,0
59.12024,59.26012,77,80,0
59.2631,60.117264,79,80,0
60.12024,60.68869,87,85,0
60.69167,60.974407,55,88,0
60.977383,61.831547,56,90,0
61.834522,62.68869,57,95,0
62.691666,63.545834,58,110,0
63.54881,63.68869,56,110,0
63.620235,63.760117,58,110,0
63.691666,63.831547,56,110,0
63.763092,63.902973,58,110,0
63.834522,63.974403,56,110,0
63.90595,64.04583,58,110,0
63.97738,64.117256,56,110,0
64.048805,64.18869,58,110,0
64.12024,64.26012,56,110,0
64.191666,64.33154,58,110,0
64.26309,64.40298,55,110,0
64.33452,64.40298,56,110,0
64.40595,64.54583,55,100,0
64.548805,64.68869,58,100,0
64.691666,64.83154,63,100,0
64.83452,64.9744,58,100,0
64.97738,65.117256,63,100,0
65.12023,65.26012,67,100,0
65.26309,65.40297,70,100,0
65.40595,65.54583,67,100,0
65.548805,65.68869,70,100,0
65.691666,65.83154,75,100,0
65.83452,65.9744,79,100,0
65.97738,66.117256,82,100,0
66.12023,66.40297,87,110,0
66.691666,67.54583,63,120,0
67.548805,67.83154,55,110,0
67.83452,68.40297,56,110,0
68.405945,68.68868,63,120,0
68.69166,69.26011,57,110,0
69.263084,69.54582,63,120,0
69.548805,69.68868,58,110,0
69.69166,69.83154,63,110,0
69.83452,69.974396,62,111,0
69.97737,70.117256,63,112,0
70.12023,70.26011,59,113,0
70.263084,70.40297,63,114,0
70.405945,70.54582,60,115,0
70.5488,70.68868,63,115,0
70.69166,70.831535,62,116,0
70.83452,70.974396,63,117,0
70.97737,71.117256,57,118,0
71.12023,71.26011,63,119,0
71.263084,71.40297,58,120,0
71.405945,71.54582,63,120,0
71.5488,71.68868,61,120,0
71.69166,71.831535,63,120,0
71.83451,71.974396,59,120,0
71.97737,72.11725,63,120,0
72.12023,72.26011,60,120,0
72.263084,72.40297,63,120,0
72.405945,72.54582,62,120,0
72.5488,72.68868,63,120,0
72.69166,72.831535,57,120,0
72.83451,72.974396,63,120,0
72.97737,73.26011,58,120,0
73.47737,73.54582,63,120,0
73.5488,73.76011,70,120,0
73.763084,73.831535,67,120,0
73.83451,74.11725,75,120,0
74.33451,74.40296,63,120,0
74.40594,74.61725,69,120,0
74.620224,74.688675,66,120,0
74.69165,74.97439,75,120,0
75.19165,75.26011,63,120,0
75.263084,75.47439,70,120,0
75.47737,75.54582,67,120,0
75.5488,75.831535,75,120,0
76.0488,76.11725,72,120,0
76.120224,76.331535,78,120,0
76.33451,76.40296,75,120,0
76.40594,76.831535,79,120,0
76.83451,76.97439,75,120,0
76.97736,77.11725,75,120,0
77.120224,77.2601,70,120,0
77.26308,77.40296,70,120,0
77.40594,77.545815,67,120,0
77.5488,77.688675,67,120,0
77.69165,77.831535,63,120,0
77.83451,77.97439,63,120,0
77.97736,78.11725,58,120,0
78.120224,78.2601,58,120,0
78.26308,78.40296,55,120,0
78.40594,78.545815,55,120,0
78.54879,78.688675,51,120,0
78.69165,78.83153,51,120,0
78.83451,78.97439,46,120,0
79.54879,79.83153,62,120,0
79.54879,79.83153,58,120,0
79.54879,79.83153,56,120,0
79.54879,79.83153,53,120,0
79.8345,80.11724,63,120,0
79.8345,80.11724,58,120,0
79.8345,80.11724,55,120,0
80.97736,81.2601,70,100,0
80.97736,81.2601,68,100,0
80.97736,81.2601,65,100,0
80.97736,81.2601,62,100,0
81.26308,81.545815,70,100,0
81.26308,81.545815,68,100,0
81.26308,81.545815,65,100,0
81.26308,81.545815,62,100,0
81.54879,81.83153,72,100,0
81.54879,82.11724,67,100,0
81.54879,82.11724,63,100,0
81.8345,82.11724,70,100,0
82.69164,82.97438,74,100,0
82.69164,82.97438,68,100,0
82.69164,82.97438,65,100,0
82.97736,83.2601,74,100,0
82.97736,83.2601,68,100,0
82.97736,83.2601,65,100,0
83.26308,83.545815,77,100,0
83.26308,83.83153,70,100,0
83.26308,83.83153,67,100,0
83.54879,83.83153,75,100,0
84.40593,84.68867,70,100,0
84.40593,84.68867,68,100,0
84.40593,84.68867,65,100,0
84.40593,84.68867,62,100,0
84.69164,84.97438,70,100,0
84.69164,84.97438,68,100,0
84.69164,84.97438,65,100,0
84.69164,84.97438,62,100,0
84.977356,85.26009,72,100,0
84.977356,85.54581,67,100,0
84.977356,85.54581,63,100,0
85.26307,85.54581,70,100,0
86.12022,86.402954,62,80,0
86.12022,86.402954,56,80,0
86.12022,86.402954,53,80,0
86.40593,86.68867,62,80,0
86.40593,86.68867,56,80,0
86.40593,86.68867,53,80,0
86.69164,86.97438,65,79,0
86.69164,87.26009,58,79,0
86.69164,87.26009,55,79,0
86.977356,87.26009,63,78,0
87.834496,88.11723,62,75,0
87.834496,88.11723,56,75,0
87.834496,88.11723,53,75,0
88.12021,88.40295,62,74,0
88.12021,88.40295,56,74,0
88.12021,88.40295,53,74,0
88.40593,89.3028,65,73,0
88.40593,89.3028,62,73,0
88.40593,89.3028,56,73,0
89.30592,89.6028,63,71,0
89.30592,89.6028,58,71,0
89.30592,89.6028,55,71,0
90.205925,90.63152,72,110,0
90.205925,90.63152,67,110,0
90.205925,90.63152,63,110,0
90.705925,90.774376,67,110,0
90.77735,90.98866,75,110,0
90.99164,91.06009,72,110,0
91.063065,91.274376,79,110,0
91.27735,91.3458,75,110,0
91.348785,91.56009,84,110,0
91.563065,91.63152,79,110,0
91.6345,91.91724,87,110,0
91.92021,92.20295,87,110,0
92.49164,92.774376,72,80,0
92.49164,92.774376,67,80,0
92.77735,93.3458,67,80,0
92.77735,93.3458,72,80,0
93.34878,93.631516,71,80,0
93.34878,93.631516,67,80,0
93.63449,94.06009,71,110,0
93.63449,94.06009,68,110,0
93.63449,94.06009,65,110,0
94.13449,94.20295,71,110,0
94.205925,94.41723,77,110,0
94.420204,94.48866,74,110,0
94.49164,94.70294,83,110,0
94.705925,94.774376,77,110,0
94.77735,94.98866,86,110,0
94.99164,95.06009,83,110,0
95.063065,95.3458,89,110,0
95.34878,95.631516,89,110,0
95.920204,96.20294,74,80,0
95.920204,96.20294,71,80,0
96.20592,96.77437,74,81,0
96.20592,96.77437,71,81,0
96.77735,97.06009,72,83,0
97.063065,97.131516,72,85,0
97.09878,97.131516,75,85,0
97.13449,97.488655,79,85,0
97.49163,97.631516,77,87,0
97.63449,97.91723,75,87,0
97.920204,98.488655,74,89,0
98.49163,98.77437,72,91,0
98.77734,98.845795,67,93,0
98.81306,98.881516,72,93,0
98.84878,98.881516,75,93,0
98.88449,99.20294,79,93,0
99.20592,99.345795,77,95,0
99.34878,99.631516,75,95,0
99.63449,100.20294,74,97,0
99.63449,100.20294,71,97,0
100.20592,100.488655,72,99,0
100.49163,100.56008,67,100,0
100.52734,100.595795,72,100,0
100.56306,100.595795,75,100,0
100.59877,100.91722,79,110,0
100.59877,100.91722,67,113,0
100.920204,101.06008,77,100,0
100.920204,101.06008,65,100,0
101.06306,101.63151,63,100,0
101.06306,101.63151,75,100,0
101.63448,101.91722,74,100,0
101.63448,101.91722,62,100,0
101.9202,102.50279,60,100,0
101.9202,102.50279,72,100,0
102.50591,102.80279,71,100,0
102.50591,102.80279,59,100,0
102.805916,103.41841,56,100,0
102.805916,103.41841,68,100,0
103.4217,103.7342,67,100,0
103.4217,103.7342,55,100,0
104.35328,104.45016,59,70,0
104.45328,104.550156,62,70,0
104.55328,104.650154,65,70,0
104.65328,104.75015,68,70,0
104.75328,104.85016,67,70,0
104.85328,104.95016,65,70,0
104.95328,105.25015,63,70,0
106.13899,106.231255,53,70,0
106.23423,106.32649,56,70,0
106.32947,106.42173,60,70,0
106.424706,106.51697,65,70,0
106.51994,106.612206,63,70,0
106.61519,106.70744,62,70,0
106.71043,106.993164,60,70,0
107.85328,107.94554,55,120,0
107.94852,108.04078,59,120,0
108.043755,108.13602,62,120,0
108.13899,108.231255,65,120,0
108.23423,108.32649,62,120,0
108.32947,108.42173,59,120,0
108.424706,108.8503,60,120,0
108.424706,108.8503,55,120,0
108.424706,108.8503,51,120,0
108.924706,108.99316,60,120,0
108.99613,109.20744,67,120,0
109.21042,109.27887,63,120,0
109.28185,109.49316,72,120,0
109.49613,109.56459,67,120,0
109.567566,109.77887,75,120,0
109.781845,109.8503,72,120,0
109.85328,110.13602,79,120,0
109.85328,110.13602,67,120,0
110.13899,110.42173,79,120,0
110.13899,110.42173,67,120,0
110.63899,110.70744,59,120,0
110.71042,110.92173,67,120,0
110.924706,110.99316,62,120,0
110.99613,111.20744,71,120,0
111.21042,111.27887,67,120,0
111.281845,111.49316,74,120,0
111.49613,111.56458,71,120,0
111.56756,111.850296,79,120,0
111.56756,111.850296,67,120,0
111.85327,112.13601,79,120,0
111.85327,112.13601,67,120,0
112.35327,112.42173,63,120,0
112.424706,112.63601,67,120,0
112.63899,112.70744,63,120,0
112.71042,112.92173,72,120,0
112.924706,112.99316,67,120,0
112.99613,113.20744,75,120,0
113.21042,113.27887,72,120,0
113.281845,113.49316,79,120,0
113.49613,113.56458,75,120,0
113.56756,113.850296,74,120,0
113.85327,114.13601,89,120,0
114.4247,114.707436,71,120,0
114.71042,114.99316,86,120,0
115.281845,115.56458,72,120,0
115.56756,115.850296,84,120,0
118.138985,118.707436,67,80,0
118.4247,118.707436,75,80,0
118.71041,119.27886,75,80,0
118.71041,119.564575,68,80,0
119.28184,119.85029,75,80,0
119.853264,120.136,77,80,0
119.56755,120.42172,67,80,0
120.138985,120.707436,73,80,0
120.71041,120.99315,71,80,0
120.4247,121.27886,68,80,0
120.996124,121.27886,72,80,0
121.56755,122.136,76,80,0
121.853264,122.136,84,80,0
122.13898,122.70743,84,80,0
122.13898,122.99314,77,80,0
122.7104,123.27886,84,80,0
123.28184,123.564575,85,80,0
122.996124,123.85029,76,80,0
123.56755,124.136,82,80,0
124.13898,124.421715,79,80,0
123.853264,124.70743,72,80,0
124.42469,124.70743,80,80,0
124.99612,125.56457,72,80,0
125.28183,125.56457,80,80,0
125.56755,126.136,80,80,0
125.56755,126.421715,73,80,0
126.13898,126.70743,80,80,0
126.7104,126.99314,82,80,0
126.42469,127.278854,72,80,0
126.99612,127.56457,78,80,0
127.56754,127.85028,76,80,0
127.28183,128.136,68,80,0
127.85326,128.4217,77,80,0
128.42468,128.70743,78,80,0
128.13898,128.99313,69,80,0
128.7104,129.27885,75,80,0
129.28183,129.56456,75,80,0
128.99611,129.85028,65,80,0
129.56754,130.136,74,80,0
130.13898,130.4217,75,80,0
129.85326,130.70743,66,80,0
130.42468,130.70743,66,80,0
130.42468,130.70743,63,80,0
130.7104,130.99313,65,80,0
130.7104,130.99313,62,80,0
131.85326,132.13599,72,80,0
132.13896,132.4217,72,80,0
132.42468,132.70743,72,80,0
132.7104,132.99313,70,80,0
133.56754,133.85028,68,80,0
133.85326,134.13599,68,80,0
134.13896,134.4217,68,80,0
134.42468,134.70741,67,80,0
135.13896,135.27885,72,80,0
135.28183,135.4217,71,80,0
135.42468,135.56456,72,80,0
135.56754,135.70741,74,80,0
135.71039,135.85028,72,80,0
135.99611,136.13599,70,80,0
136.13896,136.27884,69,80,0
136.28181,136.4217,70,80,0
136.42468,136.56456,72,80,0
136.56754,136.70741,70,80,0
136.85326,136.99313,68,80,0
136.99611,137.13599,67,80,0
137.13896,137.27884,68,80,0
137.28181,137.4217,70,80,0
137.42468,137.56456,68,80,0
137.56754,138.85027,67,80,0
138.85324,138.99313,70,80,0
138.99611,139.27884,75,80,0
139.28181,140.13599,75,80,0
140.13896,140.42169,74,80,0
140.99611,141.85027,70,80,0
141.85324,141.92169,70,80,0
141.92467,141.99312,72,80,0
141.99611,142.06456,70,80,0
142.06754,142.13599,69,80,0
142.13896,142.27884,70,80,0
142.28181,142.42169,77,80,0
142.42467,142.70741,80,95,0
142.71039,143.56456,80,80,0
143.56754,143.85027,79,80,0
144.42467,144.56454,67,80,0
144.56754,144.70741,68,80,0
144.71039,144.85027,70,80,0
144.85324,144.99312,72,80,0
144.9961,145.13599,74,80,0
145.13896,145.27884,75,80,0
145.28181,145.42169,77,80,0
145.42467,145.56454,79,80,0
145.56752,145.70741,80,80,0
145.71039,145.85027,82,80,0
145.85324,145.99312,84,80,0
145.9961,146.13599,86,80,0
146.13896,146.99312,87,104,0
146.9961,147.27884,86,80,0
147.85324,147.99312,58,80,0
147.9961,148.13597,60,80,0
148.13895,148.27884,62,80,0
148.28181,148.42169,63,80,0
148.42467,148.56454,65,80,0
148.56752,148.7074,67,80,0
148.71039,148.85027,68,80,0
148.85324,148.99312,70,80,0
148.9961,149.13597,72,80,0
149.13895,149.27884,74,80,0
149.28181,149.42169,75,80,0
149.42467,149.56454,77,80,0
149.56752,150.42169,79,80,0
150.42467,150.99312,87,85,0
150.9961,151.27882,55,88,0
151.28181,152.13597,56,90,0
152.13895,152.99312,57,95,0
152.9961,153.85025,58,110,0
153.85323,153.99312,56,110,0
153.92467,154.06454,58,110,0
153.9961,154.13597,56,110,0
154.06752,154.2074,58,110,0
154.13895,154.27882,56,110,0
154.21037,154.35025,58,110,0
154.2818,154.42169,56,110,0
154.35323,154.49312,58,110,0
154.42467,154.56454,56,110,0
154.4961,154.63597,58,110,0
154.56752,154.7074,55,110,0
154.63895,154.7074,56,110,0
154.71037,154.85025,55,100,0
154.85323,154.99312,58,100,0
154.9961,155.13597,63,100,0
155.13895,155.27882,58,100,0
155.2818,155.42168,63,100,0
155.42467,155.56454,67,100,0
155.56752,155.7074,70,100,0
155.71037,155.85025,67,100,0
155.85323,155.99312,70,100,0
155.9961,156.13597,75,100,0
156.13895,156.27882,79,100,0
156.2818,156.42168,82,100,0
156.42465,156.7074,87,110,0
156.9961,157.85025,63,120,0
157.85323,158.13597,55,110,0
158.13895,158.7074,56,110,0
158.71037,158.9931,63,120,0
158.99608,159.56453,57,110,0
159.56752,159.85025,63,120,0
159.85323,159.9931,58,110,0
159.99608,160.13597,63,110,0
160.13895,160.27882,62,111,0
160.2818,160.42168,63,112,0
160.42465,160.56453,59,113,0
160.5675,160.7074,63,114,0
160.71037,160.85025,60,115,0
160.85323,160.9931,63,115,0
160.99608,161.13597,62,116,0
161.13895,161.27882,63,117,0
161.2818,161.42168,57,118,0
161.42465,161.56453,63,119,0
161.5675,161.7074,58,120,0
161.71037,161.85025,63,120,0
161.85323,161.9931,61,120,0
161.99608,162.13596,63,120,0
162.13895,162.27882,59,120,0
162.2818,162.42168,63,120,0
162.42465,162.56453,60,120,0
162.5675,162.7074,63,120,0
162.71037,162.85025,62,120,0
162.85323,162.9931,63,120,0
162.99608,163.13596,57,120,0
163.13893,163.27882,63,120,0
163.2818,163.56453,58,120,0
163.7818,163.85025,63,120,0
163.85323,164.06453,70,120,0
164.0675,164.13596,67,120,0
164.13893,164.42168,75,120,0
164.63893,164.70738,63,120,0
164.71036,164.92168,69,120,0
164.92465,164.9931,66,120,0
164.99608,165.27882,75,120,0
165.49608,165.56453,63,120,0
165.5675,165.77882,70,120,0
165.7818,165.85025,67,120,0
165.85323,166.13596,75,120,0
166.35323,166.42168,72,120,0
166.42465,166.63596,78,120,0
166.63893,166.70738,75,120,0
166.71036,167.13596,79,120,0
167.13893,167.27881,75,120,0
167.28178,167.42168,75,120,0
167.42465,167.56453,70,120,0
167.5675,167.70738,70,120,0
167.71036,167.85025,67,120,0
167.85323,167.9931,67,120,0
167.99608,168.13596,63,120,0
168.13893,168.27881,63,120,0
168.28178,168.42168,58,120,0
168.42465,168.56453,58,120,0
168.5675,168.70738,55,120,0
168.71036,168.85023,55,120,0
168.85321,168.9931,51,120,0
168.99608,169.13596,51,120,0
169.13893,169.27881,46,120,0
169.85321,170.13596,62,120,0
169.85321,170.13596,58,120,0
169.85321,170.13596,56,120,0
169.85321,170.13596,53,120,0
170.13893,170.42166,63,120,0
170.13893,170.42166,58,120,0
170.13893,170.42166,55,120,0
171.28178,171.56453,70,100,0
171.28178,171.56453,68,100,0
171.28178,171.56453,65,100,0
171.28178,171.56453,62,100,0
171.5675,171.85023,70,100,0
171.5675,171.85023,68,100,0
171.5675,171.85023,65,100,0
171.5675,171.85023,62,100,0
171.85321,172.13596,72,100,0
171.85321,172.42166,67,100,0
171.85321,172.42166,63,100,0
172.13893,172.42166,70,100,0
172.99608,173.27881,74,100,0
172.99608,173.27881,68,100,0
172.99608,173.27881,65,100,0
173.28178,173.56453,74,100,0
173.28178,173.56453,68,100,0
173.28178,173.56453,65,100,0
173.5675,173.85023,77,100,0
173.5675,174.13596,70,100,0
173.5675,174.13596,67,100,0
173.85321,174.13596,75,100,0
174.71036,174.99309,70,100,0
174.71036,174.99309,68,100,0
174.71036,174.99309,65,100,0
174.71036,174.99309,62,100,0
174.99606,175.27881,70,100,0
174.99606,175.27881,68,100,0
174.99606,175.27881,65,100,0
174.99606,175.27881,62,100,0
175.28178,175.56451,72,100,0
175.28178,175.85023,67,100,0
175.28178,175.85023,63,100,0
175.56749,175.85023,70,100,0
176.42464,176.70738,62,80,0
176.42464,176.70738,56,80,0
176.42464,176.70738,53,80,0
176.71036,176.99309,62,80,0
176.71036,176.99309,56,80,0
176.71036,176.99309,53,80,0
176.99606,177.27881,65,79,0
176.99606,177.56451,58,79,0
176.99606,177.56451,55,79,0
177.28178,177.56451,63,78,0
178.13892,178.42166,62,75,0
178.13892,178.42166,56,75,0
178.13892,178.42166,53,75,0
178.42464,178.70738,62,74,0
178.42464,178.70738,56,74,0
178.42464,178.70738,53,74,0
178.71036,179.65443,65,73,0
178.71036,179.65443,62,73,0
178.71036,179.65443,56,73,0
179.65771,179.97021,63,71,0
179.65771,179.97021,58,71,0
179.65771,179.97021,55,71,0
180.60509,181.03069,72,110,0
180.60509,181.03069,67,110,0
180.60509,181.03069,64,110,0
181.10509,181.17354,67,110,0
181.17651,181.38782,76,110,0
181.3908,181.45924,72,110,0
181.46223,181.67354,79,110,0
181.67651,181.74496,76,110,0
181.74794,181.95924,84,110,0
181.96222,182.03069,79,110,0
182.03366,182.31639,88,110,0
182.31937,182.60211,88,110,0
182.8908,183.17354,76,80,0
182.8908,183.17354,72,80,0
183.17651,183.74496,76,80,0
183.17651,183.74496,72,80,0
183.74794,184.03067,74,80,0
183.74794,184.03067,71,80,0
184.03365,184.45924,74,110,0
184.03365,184.45924,71,110,0
184.53365,184.60211,71,110,0
184.60509,184.81639,77,110,0
184.81937,184.88782,74,110,0
184.8908,185.10211,83,110,0
185.10509,185.17354,77,110,0
185.17651,185.38782,86,110,0
185.3908,185.45924,83,110,0
185.46222,185.74496,89,110,0
185.74794,186.03067,89,110,0
186.31937,186.6021,77,80,0
186.31937,186.6021,74,80,0
186.60507,187.17354,77,80,0
186.60507,187.17354,74,80,0
187.17651,187.45924,76,80,0
187.17651,187.45924,73,80,0
187.46222,187.88782,76,110,0
187.46222,187.88782,73,110,0
187.96222,188.03067,70,110,0
188.03365,188.24496,76,110,0
188.24794,188.31639,73,110,0
188.31937,188.53067,79,110,0
188.53365,188.6021,76,110,0
188.60507,188.81639,82,110,0
188.81937,188.88782,79,110,0
188.8908,189.17352,85,110,0
189.1765,189.45924,67,110,0
189.46222,189.74495,82,110,0
190.03365,190.31639,64,110,0
190.31937,190.6021,79,110,0
190.8908,191.74495,77,80,0
190.8908,191.74495,65,80,0
191.74792,192.31638,72,80,0
191.74792,192.31638,84,80,0
192.31937,192.6021,72,80,0
192.31937,192.6021,84,80,0
192.60507,192.88782,72,80,0
192.60507,192.88782,84,80,0
192.8908,193.17352,71,80,0
192.8908,193.17352,83,80,0
193.1765,193.45924,73,80,0
193.1765,193.45924,85,80,0
193.46222,193.74495,72,80,0
193.46222,193.74495,84,80,0
193.74792,194.03067,70,80,0
193.74792,194.03067,82,80,0
194.03365,194.31638,79,80,0
194.03365,194.31638,67,80,0
194.31935,194.8878,76,80,0
194.31935,194.8878,64,80,0
194.89078,195.17352,79,95,0
194.89078,195.17352,67,95,0
195.1765,195.74495,72,100,0
195.1765,195.74495,84,100,0
195.74792,196.03067,79,85,0
195.74792,196.03067,67,85,0
196.03365,196.8878,70,80,0
196.03365,196.8878,82,80,0
196.89078,197.17352,80,80,0
196.89078,197.17352,68,80,0
197.4622,197.74495,81,80,0
197.4622,197.74495,69,80,0
197.74792,198.6021,70,80,0
197.74792,198.6021,82,80,0
198.60507,199.17352,77,90,0
198.60507,199.17352,89,90,0
199.1765,199.45923,77,98,0
199.1765,199.45923,89,98,0
199.4622,199.74495,77,100,0
199.4622,199.74495,89,100,0
199.74792,200.03065,76,97,0
199.74792,200.03065,88,97,0
200.03363,200.31638,78,93,0
200.03363,200.31638,90,93,0
200.31935,200.60208,77,90,0
200.31935,200.60208,89,90,0
200.60507,200.8878,75,86,0
200.60507,200.8878,87,86,0
200.89078,201.17352,72,82,0
200.89078,201.17352,84,82,0
201.1765,201.74495,69,80,0
201.1765,201.74495,81,80,0
201.74792,202.03065,72,80,0
201.74792,202.03065,84,80,0
202.03363,202.60208,77,80,0
202.03363,202.60208,89,80,0
202.60506,202.8878,72,80,0
202.60506,202.8878,84,80,0
202.89078,203.74495,75,80,0
202.89078,203.74495,87,80,0
203.74792,204.03065,73,80,0
203.74792,204.03065,85,80,0
204.31935,204.60208,73,80,0
204.60506,205.17351,72,100,0
205.17648,205.31638,77,100,0
205.24792,205.3878,75,100,0
205.31935,205.45923,74,100,0
205.39078,205.45923,75,100,0
205.4622,206.03065,80,100,0
206.03363,206.31638,75,100,0
206.31935,206.60208,77,100,0
206.60506,206.8878,76,100,0
206.89078,207.17351,78,100,0
207.17648,207.45923,77,100,0
207.4622,207.74493,75,100,0
207.74791,208.03065,72,100,0
208.03363,208.31636,80,100,0
208.31934,208.60208,79,100,0
208.60506,208.8878,82,100,0
208.89078,209.17351,80,100,0
209.17648,209.45923,78,100,0
209.4622,209.74493,75,100,0
209.74791,210.03065,77,100,0
210.03363,210.31636,76,100,0
210.31934,210.60208,78,100,0
210.60506,210.88779,77,100,0
210.89076,211.17351,75,100,0
211.17648,211.45921,72,100,0
211.4622,212.31636,73,100,0
212.31934,212.88779,73,100,0
212.31934,212.88779,82,100,0
212.89076,213.17351,73,100,0
212.89076,213.17351,82,100,0
213.17648,214.60208,72,116,0
213.17648,214.60208,82,117,0
214.60506,214.88779,70,100,0
214.60506,214.88779,67,100,0
214.89076,215.74493,68,100,0
214.89076,215.74493,65,100,0
215.74791,216.31636,77,105,0
215.74791,216.31636,80,105,0
216.31934,216.60207,77,108,0
216.31934,216.60207,80,108,0
216.60504,218.03064,77,121,0
216.60504,218.03064,79,120,0
218.03362,218.31636,65,110,0
218.03362,218.31636,62,110,0
218.31934,218.60207,63,110,0
218.31934,218.60207,60,110,0
219.17647,219.74493,84,110,0
219.17647,219.74493,75,110,0
219.17647,219.74493,72,110,0
219.74791,220.03064,84,110,0
219.74791,220.03064,75,110,0
219.74791,220.03064,72,110,0
220.03362,220.88779,84,110,0
220.03362,220.88779,80,110,0
220.03362,220.88779,72,110,0
220.89076,221.45921,89,110,0
220.89076,221.45921,80,110,0
220.89076,221.45921,77,110,0
221.46219,221.74492,89,110,0
221.46219,221.74492,80,110,0
221.46219,221.74492,77,110,0
221.7479,223.1735,77,120,0
221.7479,223.1735,79,120,0
221.7479,223.1735,86,120,0
221.7479,223.1735,89,120,0
223.17647,223.45921,77,120,0
223.17647,223.45921,74,120,0
223.46219,224.03064,75,120,0
223.46219,224.03064,72,120,0
224.03362,224.60207,67,120,0
224.03362,224.60207,75,120,0
224.31932,224.88777,68,120,0
224.60504,224.88777,74,120,0
224.60504,224.88777,65,120,0
224.89076,225.1735,72,120,0
224.89076,225.1735,69,120,0
224.89076,225.1735,63,120,0
225.17647,225.45921,71,120,0
225.17647,225.45921,67,120,0
225.17647,225.45921,62,120,0
225.7479,226.03064,79,80,0
225.7479,226.03064,74,80,0
225.7479,226.03064,71,80,0
226.03362,226.31635,77,80,0
226.03362,226.31635,72,80,0
226.03362,226.31635,68,80,0
226.60504,226.88777,75,80,0
226.60504,226.88777,70,80,0
226.60504,226.88777,67,80,0
226.89075,227.1735,74,80,0
226.89075,227.1735,68,80,0
226.89075,227.1735,65,80,0
227.46217,227.74492,72,80,0
227.46217,227.74492,67,80,0
227.46217,227.74492,63,80,0
227.7479,228.03064,71,80,0
227.7479,228.03064,65,80,0
227.7479,228.03064,62,80,0
228.31932,228.60207,68,80,0
228.31932,228.60207,63,80,0
228.31932,228.60207,60,80,0
228.60504,228.88777,67,80,0
228.60504,228.88777,62,80,0
228.60504,228.88777,59,80,0
229.17647,229.4592,79,80,0
229.17647,229.4592,74,80,0
229.17647,229.4592,71,80,0
229.46217,229.74492,77,79,0
229.46217,229.74492,72,79,0
229.46217,229.74492,68,79,0
230.0336,230.31635,75,78,0
230.0336,230.31635,70,78,0
230.0336,230.31635,67,78,0
230.31932,230.60207,74,77,0
230.31932,230.60207,68,77,0
230.31932,230.60207,65,77,0
230.89075,231.1735,72,76,0
230.89075,231.1735,67,76,0
230.89075,231.1735,63,76,0
231.17647,231.4592,71,76,0
231.17647,231.4592,65,76,0
231.17647,231.4592,62,76,0
231.7479,232.03062,68,74,0
231.7479,232.03062,63,74,0
231.7479,232.03062,60,74,0
232.0336,232.31635,67,74,0
232.0336,232.31635,62,74,0
232.0336,232.31635,59,74,0
232.60503,232.88777,65,72,0
232.60503,232.88777,60,72,0
232.60503,232.88777,56,72,0
232.89075,233.1735,63,72,0
232.89075,233.1735,60,72,0
232.89075,233.1735,55,72,0
233.46217,233.74492,62,71,0
233.46217,233.74492,59,71,0
233.46217,233.74492,53,71,0
233.7479,234.17348,60,110,0
233.7479,234.17348,55,110,0
233.7479,234.17348,51,110,0
234.2479,234.31635,67,110,0
234.31932,234.53062,75,110,0
234.5336,234.60205,72,110,0
234.60503,234.81635,79,110,0
234.81932,234.88777,75,110,0
234.89075,235.10205,84,110,0
235.10503,235.17348,79,110,0
235.17645,235.4592,87,110,0
235.46217,235.7449,87,110,0
236.0336,236.31635,72,80,0
236.0336,236.31635,67,80,0
236.31932,236.88777,67,80,0
236.31932,236.88777,72,80,0
236.89075,237.17348,71,80,0
236.89075,237.17348,67,80,0
237.17645,237.60205,71,110,0
237.17645,237.60205,68,110,0
237.17645,237.60205,65,110,0
237.67645,237.7449,71,110,0
237.74788,237.9592,77,110,0
237.96217,238.03062,74,110,0
238.0336,238.2449,83,110,0
238.24788,238.31633,77,110,0
238.3193,238.53062,86,110,0
238.5336,238.60205,83,110,0
238.60503,238.88777,89,110,0
238.89075,239.17348,89,110,0
239.46217,239.7449,74,80,0
239.46217,239.7449,71,80,0
239.74788,240.31633,74,80,0
239.74788,240.31633,71,80,0
240.3193,240.60205,72,81,0
240.60503,240.67348,72,82,0
240.64073,240.67348,75,82,0
240.67645,241.03062,79,82,0
241.0336,241.17348,77,83,0
241.17645,241.4592,75,83,0
241.46217,242.03062,74,84,0
242.0336,242.31633,72,85,0
242.3193,242.38776,67,86,0
242.35503,242.42348,72,86,0
242.39073,242.42348,75,86,0
242.42645,242.7449,79,86,0
242.74788,242.88776,77,87,0
242.89073,243.17348,75,87,0
243.17645,243.7449,74,88,0
243.17645,243.7449,71,88,0
243.74788,244.03062,72,89,0
244.0336,244.10205,67,100,0
244.0693,244.13776,72,100,0
244.10503,244.13776,75,100,0
244.14073,244.45918,79,110,0
244.14073,244.45918,67,113,0
244.46216,244.60205,77,100,0
244.46216,244.60205,65,100,0
244.60503,245.17348,63,100,0
244.60503,245.17348,75,100,0
245.17645,245.45918,74,100,0
245.17645,245.45918,62,100,0
245.46216,246.04475,60,100,0
245.46216,246.04475,72,100,0
246.04788,246.34476,71,100,0
246.04788,246.34476,59,100,0
246.34787,246.96037,56,100,0
246.34787,246.96037,68,100,0
246.96367,247.27617,67,100,0
246.96367,247.27617,55,100,0
247.89525,247.99213,59,80,0
247.99524,248.09212,62,80,0
248.09525,248.19212,65,80,0
248.19525,248.29211,68,80,0
248.29524,248.39212,67,80,0
248.39525,248.49213,65,80,0
248.49524,248.79211,63,80,0
249.69525,249.79211,53,80,0
249.79524,249.89212,56,80,0
249.89525,249.99213,60,80,0
249.99524,250.09212,65,80,0
250.09525,250.19212,63,80,0
250.19525,250.29211,62,80,0
250.29524,250.59212,60,80,0
251.48096,251.57323,55,120,0
251.5762,251.66846,59,120,0
251.67143,251.7637,62,120,0
251.76668,251.85893,65,120,0
251.86191,251.95418,62,120,0
251.95715,252.04941,59,120,0
252.05238,252.33513,60,120,0
254.90953,255.47798,65,80,0
255.19524,255.47798,73,80,0
255.48096,256.0494,73,80,0
255.48096,256.3351,66,80,0
256.05237,256.62082,73,80,0
256.6238,256.90656,75,80,0
256.3381,257.19226,65,80,0
256.90952,257.47797,71,80,0
257.48096,257.7637,69,80,0
257.19525,258.0494,66,80,0
257.76666,258.0494,70,80,0
258.3381,258.90656,77,80,0
258.6238,258.90656,85,80,0
258.90952,259.47797,85,80,0
258.90952,259.7637,78,80,0
259.48096,260.0494,85,80,0
260.05237,260.3351,87,80,0
259.76666,260.62082,77,80,0
260.3381,260.90656,83,80,0
260.90952,261.19226,81,80,0
260.6238,261.47797,78,80,0
261.19522,261.47797,82,80,0
261.76666,262.3351,74,80,0
262.05237,262.3351,82,80,0
262.3381,262.90656,82,80,0
262.3381,263.19226,75,80,0
262.90952,263.47797,82,80,0
263.48096,263.76367,83,80,0
263.19522,264.0494,74,80,0
263.76666,264.3351,80,80,0
264.33807,264.62082,77,80,0
264.05237,264.90652,70,80,0
264.6238,265.19226,78,80,0
265.19522,265.47797,80,80,0
264.90952,265.76367,71,80,0
265.48096,266.0494,77,80,0
266.05237,266.3351,77,80,0
265.76666,266.62082,72,80,0
266.33807,266.90652,76,80,0
266.90952,267.19226,77,80,0
266.6238,267.47797,68,80,0
267.19522,267.47797,68,80,0
267.19522,267.47797,65,80,0
267.48096,267.76367,67,80,0
267.48096,267.76367,64,80,0
268.6238,268.90652,73,80,0
268.90952,269.19226,73,80,0
269.19522,269.47797,73,80,0
269.48093,269.76367,72,80,0
270.33807,270.62082,70,80,0
270.6238,270.90652,70,80,0
270.90952,271.19226,70,80,0
271.19522,271.47797,69,80,0
271.90952,272.04938,74,80,0
272.05237,272.19226,73,80,0
272.19522,272.3351,74,80,0
272.33807,272.47797,76,80,0
272.48093,272.62082,74,80,0
272.76666,272.90652,72,80,0
272.90952,273.04938,71,80,0
273.05237,273.19226,72,80,0
273.19522,273.3351,74,80,0
273.33807,273.47797,72,80,0
273.62378,273.76367,70,80,0
273.76666,273.90652,69,80,0
273.90952,274.04938,70,80,0
274.05237,274.19223,72,80,0
274.19522,274.3351,70,80,0
274.33807,275.62082,69,80,0
275.62378,275.76367,72,80,0
275.76666,276.04938,77,80,0
276.05237,276.90652,77,80,0
276.90952,277.19223,76,80,0
277.76663,278.62082,72,80,0
278.62378,278.76367,72,80,0
278.69522,278.83508,74,80,0
278.76663,278.90652,72,80,0
278.83807,278.97797,71,80,0
278.90952,279.04938,72,80,0
279.05237,279.19223,79,80,0
279.19522,279.47797,82,105,0
279.48093,280.33508,82,80,0
280.33807,280.62082,81,80,0
281.19522,281.33508,69,80,0
281.33807,281.47797,70,80,0
281.48093,281.62082,72,80,0
281.62378,281.76367,74,80,0
281.76663,281.90652,76,80,0
281.9095,282.04938,77,80,0
282.05237,282.19223,79,80,0
282.19522,282.33508,81,80,0
282.33807,282.47794,82,80,0
282.48093,282.62082,84,80,0
282.62378,282.76367,86,80,0
282.76663,282.90652,88,80,0
282.9095,283.76367,89,103,0
283.76663,284.04938,88,80,0
284.62378,284.76367,60,80,0
284.76663,284.90652,62,80,0
284.9095,285.04938,64,80,0
285.05237,285.19223,65,80,0
285.19522,285.33508,67,80,0
285.33807,285.47794,69,80,0
285.48093,285.62082,70,80,0
285.62378,285.76367,72,80,0
285.76663,285.90652,74,80,0
285.9095,286.04938,76,80,0
286.05234,286.19223,77,80,0
286.19522,286.33508,79,80,0
286.33807,287.47794,80,104,0
287.48093,287.76367,79,80,0
287.76663,288.04938,77,80,0
288.62378,288.76367,77,80,0
288.05234,288.83508,75,80,0
288.69522,288.83508,75,80,0
288.83807,288.90652,75,80,0
288.76663,288.90652,74,80,0
288.9095,289.19223,79,80,0
289.19522,289.47794,77,80,0
289.48093,289.76367,74,80,0
289.76663,291.04938,63,110,0
289.76663,291.04938,75,110,0
291.05234,291.19223,67,110,0
291.05234,291.19223,79,110,0
291.1952,291.47794,84,110,0
291.1952,291.47794,72,110,0
291.48093,292.33508,84,110,0
291.48093,292.33508,72,110,0
292.33807,292.6208,71,110,0
292.33807,292.6208,83,110,0
293.1952,294.47794,67,110,0
293.1952,294.47794,79,110,0
294.48093,294.6208,74,110,0
294.48093,294.6208,86,110,0
294.62378,294.90652,77,110,0
294.62378,294.90652,89,110,0
294.9095,295.76364,77,110,0
294.9095,295.76364,89,110,0
295.76663,296.04938,75,110,0
295.76663,296.04938,87,110,0
296.62378,296.76364,63,100,0
296.76663,296.9065,67,100,0
296.9095,297.04938,72,100,0
297.05234,297.19223,67,100,0
297.1952,297.33508,72,100,0
297.33804,297.47794,75,100,0
297.48093,297.6208,72,100,0
297.62378,297.76364,75,100,0
297.76663,297.9065,79,100,0
297.9095,298.04938,75,100,0
298.05234,298.19223,79,100,0
298.1952,298.33508,84,100,0
298.33804,299.19223,84,100,0
299.1952,299.47794,83,100,0
300.05234,300.19223,55,100,0
300.1952,300.33508,59,100,0
300.33804,300.47794,62,100,0
300.4809,300.6208,59,100,0
300.62378,300.76364,62,100,0
300.76663,300.9065,67,100,0
300.9095,301.04935,62,100,0
301.05234,301.19223,67,100,0
301.1952,301.33508,71,100,0
301.33804,301.47794,67,100,0
301.4809,301.6208,71,100,0
301.62378,301.76364,74,100,0
301.76663,302.04935,75,100,0
302.33804,303.19223,84,103,0
303.1952,303.47794,52,108,0
303.4809,304.33508,53,120,0
304.33804,305.1922,54,120,0
305.1952,306.04935,55,120,0
306.05234,306.1922,53,110,0
306.12375,306.26364,55,110,0
306.1952,306.33508,53,110,0
306.26663,306.4065,55,110,0
306.33804,306.47794,53,110,0
306.4095,306.54935,55,110,0
306.4809,306.6208,53,110,0
306.55234,306.6922,55,110,0
306.62375,306.76364,53,110,0
306.6952,306.83508,55,110,0
306.76663,306.9065,52,110,0
306.83804,306.97794,53,110,0
306.9095,307.04935,51,100,0
307.05234,307.1922,55,100,0
307.1952,307.33508,60,100,0
307.33804,307.47794,55,100,0
307.4809,307.6208,60,100,0
307.62375,307.76364,63,100,0
307.7666,307.9065,67,100,0
307.9095,308.04935,63,100,0
308.05234,308.1922,67,100,0
308.1952,308.33508,72,100,0
308.33804,308.47794,75,100,0
308.4809,308.6208,79,100,0
308.62375,308.9065,84,100,0
309.1952,310.04935,60,100,0
310.05234,310.33505,52,100,0
310.33804,310.9065,53,110,0
310.9095,311.1922,60,110,0
311.1952,311.76364,54,110,0
311.7666,312.04935,60,110,0
312.05234,312.1922,55,110,0
312.1952,312.33505,60,110,0
312.33804,312.47794,59,110,0
312.4809,312.6208,60,110,0
312.62375,312.76364,55,110,0
312.7666,312.9065,60,110,0
312.90945,313.04935,56,110,0
313.05234,313.1922,60,110,0
313.1952,313.33505,59,110,0
313.33804,313.4779,60,110,0
313.4809,313.6208,54,110,0
313.62375,313.76364,60,110,0
313.7666,313.9065,55,110,0
313.90945,314.04935,60,110,0
314.05234,314.1922,59,110,0
314.1952,314.33505,60,110,0
314.33804,314.4779,52,110,0
314.4809,314.6208,60,110,0
314.62375,314.76364,53,110,0
314.7666,314.9065,60,110,0
314.90945,315.04935,56,110,0
315.05234,315.1922,60,110,0
315.1952,315.33505,54,110,0
315.33804,315.4779,60,110,0
315.4809,315.76364,55,110,0
315.9809,316.04935,67,110,0
316.0523,316.26364,75,110,0
316.2666,316.33505,72,110,0
316.33804,316.6208,78,120,0
316.83804,316.9065,66,110,0
316.90945,317.12076,75,110,0
317.12375,317.1922,72,110,0
317.1952,317.4779,79,120,0
317.6952,317.76364,67,110,0
317.7666,317.9779,75,110,0
317.9809,318.04935,72,110,0
318.0523,318.33505,81,120,0
318.5523,318.62076,69,110,0
318.62375,318.83505,75,110,0
318.83804,318.9065,72,110,0
318.90945,319.33505,79,120,0
319.33804,319.4779,75,120,0
319.4809,319.62076,75,120,0
319.62375,319.76364,72,120,0
319.7666,319.9065,72,120,0
319.90945,320.04935,67,120,0
320.0523,320.1922,67,120,0
320.19516,320.33505,63,120,0
320.33804,320.4779,63,120,0
320.4809,320.62076,60,120,0
320.62375,320.76364,60,120,0
320.7666,320.9065,55,120,0
320.90945,321.04935,55,120,0
321.0523,321.1922,51,120,0
321.19516,321.33505,51,120,0
321.33804,321.4779,48,120,0
322.0523,322.33505,59,110,0
322.0523,322.33505,55,110,0
322.0523,322.33505,53,110,0
322.0523,322.33505,50,110,0
322.33804,322.62076,60,110,0
322.33804,322.62076,55,110,0
322.33804,322.62076,51,110,0
323.4809,323.7636,67,100,0
323.4809,323.7636,65,100,0
323.4809,323.7636,62,100,0
323.4809,323.7636,59,100,0
323.7666,324.04935,67,100,0
323.7666,324.04935,65,100,0
323.7666,324.04935,62,100,0
323.7666,324.04935,59,100,0
324.0523,324.33505,68,100,0
324.0523,324.62076,63,100,0
324.0523,324.62076,60,100,0
324.33804,324.62076,67,100,0
325.19516,325.4779,71,100,0
325.19516,325.4779,65,100,0
325.19516,325.4779,62,100,0
325.4809,325.7636,71,100,0
325.4809,325.7636,65,100,0
325.4809,325.7636,62,100,0
325.7666,326.04935,74,100,0
325.7666,326.33505,67,100,0
325.7666,326.33505,63,100,0
326.0523,326.33505,72,100,0
326.90945,327.1922,67,89,0
326.90945,327.1922,65,89,0
326.90945,327.1922,62,89,0
326.90945,327.1922,59,89,0
327.19516,327.4779,67,89,0
327.19516,327.4779,65,89,0
327.19516,327.4779,62,89,0
327.19516,327.4779,59,89,0
327.4809,327.7636,68,88,0
327.4809,328.04935,63,88,0
327.4809,328.04935,60,88,0
327.7666,328.04935,67,87,0
328.62375,328.90646,59,86,0
328.62375,328.90646,53,86,0
328.62375,328.90646,50,86,0
328.90945,329.1922,59,85,0
328.90945,329.1922,53,85,0
328.90945,329.1922,50,85,0
329.19516,329.4779,62,84,0
329.19516,329.7636,55,84,0
329.19516,329.7636,51,84,0
329.48087,329.7636,60,84,0
330.3681,330.6806,59,82,0
330.3681,330.6806,53,82,0
330.3681,330.6806,50,82,0
330.6839,330.9964,59,81,0
330.6839,330.9964,53,81,0
330.6839,330.9964,50,81,0
330.99966,331.32953,60,81,0
330.99966,331.32953,55,81,0
330.99966,331.32953,51,81,0
331.99966,332.34488,79,120,0
331.99966,332.34488,74,120,0
331.99966,332.34488,71,120,0
331.99966,332.34488,67,120,0
333.04617,333.74023,72,120,0
333.04617,333.74023,67,120,0
333.04617,333.74023,63,120,0
333.04617,333.74023,60,120,0
334.44153,334.6123,60,1,0
0.0,0.4255948,60,110,0
0.0,0.4255948,55,110,0
0.0,0.4255948,51,110,0
0.0,0.4255948,48,110,0
2.285712,2.5684497,60,80,0
2.285712,2.5684497,63,80,0
2.571426,3.1398778,60,80,0
2.571426,3.1398778,63,80,0
3.142854,3.4255917,62,80,0
3.142854,3.4255917,65,80,0
3.428568,3.854163,62,110,0
3.428568,3.854163,59,110,0
3.428568,3.854163,56,110,0
3.428568,3.854163,53,110,0
3.428568,3.854163,50,110,0
5.71428,5.997018,68,80,0
5.71428,5.997018,65,80,0
5.71428,5.997018,62,80,0
5.999994,6.5684457,62,81,0
5.999994,6.5684457,65,81,0
5.999994,6.5684457,68,81,0
6.571422,6.85416,63,83,0
6.571422,6.85416,67,83,0
7.428564,7.711302,60,87,0
7.428564,7.711302,55,87,0
7.428564,7.711302,51,87,0
7.714278,8.28273,59,89,0
7.714278,8.28273,56,89,0
7.714278,8.28273,53,89,0
8.285706,8.568444,60,91,0
8.285706,8.568444,55,91,0
8.285706,8.568444,51,91,0
9.142848,9.425586,60,95,0
9.142848,9.425586,63,95,0
9.428562,9.997014,62,97,0
9.428562,9.997014,65,97,0
9.99999,10.282728,60,99,0
9.99999,10.282728,63,99,0
10.857132,11.13987,60,100,0
10.857132,11.13987,55,100,0
10.857132,11.13987,51,100,0
11.142846,11.711298,59,100,0
11.142846,11.711298,56,100,0
11.142846,11.711298,53,100,0
11.714274,11.997012,55,100,0
11.714274,11.997012,51,100,0
11.999988,12.5684395,53,100,0
11.999988,12.5684395,50,100,0
12.571416,12.854154,51,100,0
12.571416,12.854154,48,100,0
12.85713,13.139868,50,100,0
12.85713,13.139868,47,100,0
14.2857,14.568438,56,70,0
14.2857,14.568438,53,70,0
14.2857,14.568438,50,70,0
14.2857,14.568438,46,70,0
14.571414,14.854152,55,70,0
14.571414,14.854152,51,70,0
14.571414,14.854152,48,70,0
15.999984,16.282722,50,70,0
15.999984,16.282722,44,70,0
15.999984,16.282722,41,70,0
16.285698,16.568436,51,70,0
16.285698,16.568436,48,70,0
16.285698,16.568436,43,70,0
17.714268,17.997005,43,120,0
17.714268,17.997005,31,120,0
17.999983,18.425577,48,120,0
17.999983,18.425577,43,120,0
17.999983,18.425577,39,120,0
17.999983,18.425577,36,120,0
19.428553,19.71129,55,120,0
19.428553,19.71129,51,120,0
19.428553,19.71129,48,120,0
19.714266,19.997004,55,120,0
19.714266,19.997004,50,120,0
19.714266,19.997004,47,120,0
21.142836,21.425573,55,120,0
21.142836,21.425573,50,120,0
21.142836,21.425573,47,120,0
21.42855,21.711288,55,120,0
21.42855,21.711288,51,120,0
21.42855,21.711288,48,120,0
22.85712,23.139858,55,120,0
22.85712,23.139858,51,120,0
22.85712,23.139858,60,120,0
23.142834,23.425571,62,120,0
23.142834,23.425571,56,120,0
23.142834,23.425571,53,120,0
23.999975,24.282713,55,120,0
23.999975,24.282713,59,120,0
23.999975,24.282713,62,120,0
24.857119,25.139856,60,120,0
24.857119,25.139856,55,120,0
24.857119,25.139856,51,120,0
24.857119,25.139856,48,120,0
27.428543,28.28271,61,80,0
26.571402,29.139853,63,105,0
28.285686,29.139853,60,80,0
29.142828,29.996994,61,80,0
29.142828,29.996994,58,80,0
29.99997,30.854136,56,80,0
29.99997,30.854136,63,80,0
30.857113,31.711277,70,102,0
30.857113,32.56842,72,100,0
31.714254,32.56842,68,80,0
32.571396,33.42556,67,80,0
32.571396,33.42556,70,80,0
33.42854,34.282703,65,80,0
33.42854,34.282703,68,80,0
34.28568,35.139847,66,100,0
34.28568,35.996986,68,102,0
35.142822,35.996986,65,80,0
35.999966,36.85413,63,80,0
35.999966,36.85413,66,80,0
36.857105,37.711273,61,80,0
36.857105,37.711273,65,80,0
37.71425,38.568413,59,80,0
37.71425,38.568413,63,80,0
38.57139,39.425556,58,80,0
39.42853,40.2827,57,80,0
40.57139,40.854126,53,80,0
40.8571,41.13984,55,80,0
41.142815,41.425552,56,80,0
41.42853,41.71127,52,80,0
40.285675,41.996983,46,80,0
41.714245,41.996983,53,80,0
41.999958,42.282696,55,80,0
42.28567,42.56841,50,80,0
42.571384,42.854122,51,80,0
42.8571,43.13984,53,80,0
43.142815,43.425552,48,80,0
41.999958,43.711266,46,80,0
43.428528,43.711266,50,80,0
43.71424,43.99698,51,80,0
43.999954,44.282692,53,80,0
44.28567,44.56841,55,80,0
44.571384,44.854122,56,80,0
44.857098,45.139835,52,80,0
43.71424,45.42555,46,80,0
45.14281,45.42555,53,80,0
45.428528,45.711266,55,80,0
45.71424,45.99698,50,80,0
45.999954,46.282692,51,80,0
46.285667,46.598167,53,80,0
46.601456,46.913956,48,80,0
45.428528,47.229744,46,80,0
46.917248,47.229744,50,80,0
47.233036,47.38764,51,80,0
47.39093,47.545536,58,80,0
47.548824,47.688705,55,80,0
47.69168,47.831562,58,80,0
47.834538,47.97442,53,80,0
47.977394,48.117275,58,80,0
48.12025,48.26013,51,80,0
48.263107,48.40299,58,80,0
48.405968,48.545845,53,80,0
48.548824,48.688705,58,80,0
48.69168,48.831562,55,80,0
48.834538,48.97442,58,80,0
48.977394,49.117275,53,80,0
49.12025,49.26013,58,80,0
49.263107,49.40299,55,80,0
49.405964,49.545845,58,80,0
49.54882,49.6887,56,80,0
49.691677,49.83156,58,80,0
49.834538,49.97442,53,80,0
49.977394,50.117275,58,80,0
50.12025,50.26013,55,80,0
50.263107,50.40299,58,80,0
50.405964,50.545845,56,80,0
50.54882,50.6887,58,80,0
50.691677,50.83156,50,80,0
50.834534,50.974415,58,80,0
50.97739,51.11727,53,80,0
51.12025,51.260128,58,80,0
51.263107,51.40299,51,80,0
51.405964,51.545845,58,80,0
51.54882,51.6887,50,80,0
51.691677,51.83156,58,80,0
51.834534,51.974415,51,80,0
51.97739,52.11727,58,80,0
52.120247,52.260128,53,80,0
52.263103,52.402985,58,80,0
52.405964,52.54584,51,80,0
52.54882,52.6887,58,80,0
52.691677,52.83156,53,80,0
52.834534,52.974415,58,80,0
52.97739,53.11727,55,80,0
53.120247,53.260128,58,80,0
53.263103,53.402985,51,80,0
53.40596,53.54584,58,80,0
53.548817,53.688698,53,80,0
53.691673,53.831554,58,80,0
53.834534,53.97441,55,80,0
53.97739,54.11727,58,80,0
54.120247,54.260128,51,80,0
54.263103,54.402985,58,80,0
54.40596,54.54584,55,80,0
54.548817,54.688698,58,80,0
54.691673,54.831554,51,80,0
54.83453,54.97441,58,80,0
54.977386,55.117268,51,80,0
55.120247,55.260124,58,80,0
55.263103,55.402985,55,80,0
55.40596,55.54584,58,80,0
55.548817,55.688698,51,80,0
55.691673,55.831554,58,80,0
55.83453,55.97441,53,80,0
55.977386,56.117268,58,80,0
56.120243,56.260124,56,80,0
56.2631,56.40298,58,80,0
56.405956,56.545837,53,80,0
56.548817,56.688694,58,80,0
56.691673,56.831554,53,80,0
56.83453,56.97441,58,80,0
56.977386,57.117268,56,80,0
57.120243,57.260124,58,80,0
57.2631,57.40298,53,80,0
57.405956,57.545837,58,80,0
57.548813,57.688694,50,80,0
57.69167,57.83155,58,80,0
57.83453,57.974407,53,80,0
57.977386,58.117268,58,80,0
58.120243,58.260124,50,80,0
58.2631,58.40298,58,80,0
58.405956,58.545837,50,80,0
58.548813,58.688694,58,80,0
58.69167,58.83155,53,80,0
58.834526,58.974407,58,80,0
58.977383,59.117264,50,80,0
59.12024,59.26012,58,80,0
59.405956,59.545837,51,80,0
59.548813,59.688694,50,81,0
59.69167,59.83155,51,82,0
59.834526,59.974407,50,83,0
59.977383,60.117264,51,84,0
60.12024,60.26012,43,85,0
60.263096,60.402977,51,86,0
60.405952,60.545834,44,86,0
60.548813,60.68869,51,87,0
60.69167,60.83155,46,88,0
60.834526,60.974407,51,89,0
60.977383,61.117264,44,90,0
61.12024,61.26012,51,91,0
61.263096,61.402977,46,92,0
61.405952,61.545834,51,93,0
61.54881,61.68869,48,93,0
61.691666,61.831547,51,94,0
61.834522,61.974403,45,95,0
61.977383,62.11726,51,96,0
62.12024,62.26012,46,97,0
62.263096,62.402977,51,98,0
62.405952,62.545834,48,99,0
62.54881,62.68869,51,99,0
62.691666,62.831547,46,110,0
62.834522,62.974403,55,110,0
62.97738,63.11726,51,110,0
63.120235,63.260117,55,110,0
63.263096,63.402973,46,110,0
63.405952,63.545834,55,110,0
63.54881,63.68869,46,110,0
63.691666,63.831547,53,110,0
63.834522,63.974403,50,110,0
63.97738,64.117256,53,110,0
64.12024,64.26012,46,110,0
64.26309,64.40298,53,110,0
64.40595,64.68869,51,100,0
64.40595,64.68869,39,100,0
66.12023,66.26012,43,110,0
66.26309,66.40297,51,110,0
66.405945,66.54583,44,110,0
66.548805,66.68868,51,110,0
66.691666,66.83154,46,110,0
66.83452,66.9744,51,110,0
66.97738,67.117256,43,110,0
67.12023,67.26012,51,110,0
67.26309,67.40297,44,110,0
67.405945,67.54583,51,110,0
67.548805,67.68868,46,110,0
67.69166,67.83154,51,110,0
67.83452,67.974396,44,110,0
67.97737,68.117256,51,110,0
68.12023,68.26012,46,110,0
68.26309,68.40297,51,110,0
68.405945,68.54583,48,110,0
68.548805,68.68868,51,110,0
68.69166,68.83154,45,110,0
68.83452,68.974396,51,110,0
68.97737,69.117256,46,110,0
69.12023,69.26011,51,110,0
69.263084,69.40297,48,110,0
69.405945,69.54582,51,110,0
69.548805,69.68868,46,110,0
69.69166,69.83154,51,110,0
69.83452,69.974396,50,111,0
69.97737,70.117256,51,112,0
70.12023,70.26011,47,113,0
70.263084,70.40297,51,114,0
70.405945,70.54582,48,115,0
70.5488,70.68868,51,115,0
70.69166,70.831535,50,116,0
70.83452,70.974396,51,117,0
70.97737,71.117256,45,118,0
71.12023,71.26011,51,119,0
71.263084,71.40297,46,120,0
71.405945,71.54582,51,120,0
71.5488,71.68868,49,120,0
71.69166,71.831535,51,120,0
71.83451,71.974396,47,120,0
71.97737,72.11725,51,120,0
72.12023,72.26011,48,120,0
72.263084,72.40297,51,120,0
72.405945,72.54582,50,120,0
72.5488,72.68868,51,120,0
72.69166,72.831535,45,120,0
72.83451,72.974396,51,120,0
72.97737,73.26011,46,120,0
73.263084,73.54582,55,120,0
73.263084,73.54582,51,120,0
73.263084,73.54582,46,120,0
74.120224,74.40296,54,120,0
74.120224,74.40296,51,120,0
74.120224,74.40296,48,120,0
74.97737,75.26011,55,120,0
74.97737,75.26011,51,120,0
74.97737,75.26011,46,120,0
75.83451,76.11725,57,120,0
75.83451,76.11725,54,120,0
75.83451,76.11725,51,120,0
75.83451,76.11725,45,120,0
76.69165,76.97439,58,120,0
76.69165,76.97439,55,120,0
76.69165,76.97439,51,120,0
76.69165,76.97439,46,120,0
78.97736,79.83153,46,120,0
78.97736,79.83153,34,120,0
79.8345,80.11724,39,120,0
80.40594,80.688675,45,100,0
80.69165,80.97439,44,100,0
80.97736,81.2601,43,100,0
80.12022,81.545815,46,120,0
81.26308,81.545815,41,100,0
81.54879,81.83153,39,100,0
81.8345,82.11724,43,100,0
82.12022,82.402954,46,100,0
82.40593,82.68867,34,100,0
82.69164,82.97438,41,100,0
82.97736,83.2601,46,100,0
83.26308,83.545815,39,100,0
83.8345,84.11724,45,100,0
84.12022,84.402954,44,100,0
84.40593,84.68867,43,100,0
83.54879,84.97438,46,115,0
84.69164,84.97438,41,100,0
84.977356,85.26009,39,100,0
85.26307,85.54581,43,100,0
85.54878,85.83152,46,100,0
85.8345,86.11724,34,100,0
86.12022,86.402954,41,80,0
86.40593,86.68867,46,80,0
86.69164,86.97438,39,79,0
86.977356,87.26009,43,78,0
87.26307,87.54581,46,77,0
87.54878,87.83152,34,76,0
87.834496,88.11723,41,75,0
88.12021,88.40295,46,74,0
88.40593,88.702805,39,73,0
88.705925,89.0028,43,72,0
89.00593,89.3028,46,71,0
89.30592,89.6028,51,71,0
90.205925,90.63152,60,110,0
90.205925,90.63152,55,110,0
90.205925,90.63152,51,110,0
90.205925,90.63152,48,110,0
92.49164,92.774376,60,80,0
92.49164,92.774376,63,80,0
92.77735,93.3458,60,80,0
92.77735,93.3458,63,80,0
93.34878,93.631516,62,80,0
93.34878,93.631516,65,80,0
93.63449,94.06009,62,110,0
93.63449,94.06009,59,110,0
93.63449,94.06009,56,110,0
93.63449,94.06009,53,110,0
93.63449,94.06009,50,110,0
95.920204,96.20294,68,80,0
95.920204,96.20294,65,80,0
95.920204,96.20294,62,80,0
96.20592,96.77437,62,81,0
96.20592,96.77437,65,81,0
96.20592,96.77437,68,81,0
96.77735,97.06009,63,83,0
96.77735,97.06009,67,83,0
97.63449,97.91723,60,87,0
97.63449,97.91723,55,87,0
97.63449,97.91723,51,87,0
97.920204,98.488655,59,89,0
97.920204,98.488655,56,89,0
97.920204,98.488655,53,89,0
98.49163,98.77437,60,91,0
98.49163,98.77437,55,91,0
98.49163,98.77437,51,91,0
99.34878,99.631516,60,95,0
99.34878,99.631516,63,95,0
99.63449,100.20294,62,97,0
99.63449,100.20294,65,97,0
100.20592,100.488655,60,99,0
100.20592,100.488655,63,99,0
101.06306,101.345795,60,100,0
101.06306,101.345795,55,100,0
101.06306,101.345795,51,100,0
101.34877,101.91722,59,100,0
101.34877,101.91722,56,100,0
101.34877,101.91722,53,100,0
101.9202,102.202934,55,100,0
101.9202,102.202934,51,100,0
102.20592,102.80279,53,100,0
102.20592,102.80279,50,100,0
102.805916,103.10279,51,100,0
102.805916,103.10279,48,100,0
103.10591,103.41841,50,100,0
103.10591,103.41841,47,100,0
104.65328,104.95016,56,70,0
104.65328,104.95016,53,70,0
104.65328,104.95016,50,70,0
104.65328,104.95016,46,70,0
104.95328,105.25015,55,70,0
104.95328,105.25015,51,70,0
104.95328,105.25015,48,70,0
106.424706,106.70744,50,70,0
106.424706,106.70744,44,70,0
106.424706,106.70744,41,70,0
106.71043,106.993164,51,70,0
106.71043,106.993164,48,70,0
106.71043,106.993164,43,70,0
108.13899,108.42173,43,120,0
108.13899,108.42173,31,120,0
108.424706,108.8503,48,120,0
108.424706,108.8503,43,120,0
108.424706,108.8503,39,120,0
108.424706,108.8503,36,120,0
109.85328,110.13602,55,120,0
109.85328,110.13602,51,120,0
109.85328,110.13602,48,120,0
110.13899,110.42173,55,120,0
110.13899,110.42173,50,120,0
110.13899,110.42173,47,120,0
111.56756,111.850296,55,120,0
111.56756,111.850296,50,120,0
111.56756,111.850296,47,120,0
111.85327,112.13601,55,120,0
111.85327,112.13601,51,120,0
111.85327,112.13601,48,120,0
113.281845,113.56458,55,120,0
113.281845,113.56458,51,120,0
113.281845,113.56458,60,120,0
113.56756,113.850296,62,120,0
113.56756,113.850296,56,120,0
113.56756,113.850296,53,120,0
114.4247,114.707436,55,120,0
114.4247,114.707436,59,120,0
114.4247,114.707436,62,120,0
115.281845,115.56458,60,120,0
115.281845,115.56458,55,120,0
115.281845,115.56458,51,120,0
115.281845,115.56458,48,120,0
117.85327,118.707436,61,80,0
116.996124,119.564575,63,101,0
118.71041,119.564575,60,80,0
119.56755,120.42172,61,80,0
119.56755,120.42172,58,80,0
120.4247,121.27886,56,80,0
120.4247,121.27886,63,80,0
121.28184,122.136,70,101,0
121.28184,122.99314,72,103,0
122.13898,122.99314,68,80,0
122.996124,123.85029,67,80,0
122.996124,123.85029,70,80,0
123.853264,124.70743,65,80,0
123.853264,124.70743,68,80,0
124.7104,125.56457,66,101,0
124.7104,126.421715,68,101,0
125.56755,126.421715,65,80,0
126.42469,127.278854,63,80,0
126.42469,127.278854,66,80,0
127.28183,128.136,61,80,0
127.28183,128.136,65,80,0
128.13898,128.99313,59,80,0
128.13898,128.99313,63,80,0
128.99611,129.85028,58,80,0
129.85326,130.70743,57,80,0
130.99611,131.27885,53,80,0
131.28183,131.56456,55,80,0
131.56754,131.85028,56,80,0
131.85326,132.13599,52,80,0
130.7104,132.4217,46,80,0
132.13896,132.4217,53,80,0
132.42468,132.70743,55,80,0
132.7104,132.99313,50,80,0
132.99611,133.27885,51,80,0
133.28183,133.56456,53,80,0
133.56754,133.85028,48,80,0
132.42468,134.13599,46,80,0
133.85326,134.13599,50,80,0
134.13896,134.4217,51,80,0
134.42468,134.70741,53,80,0
134.71039,134.99313,55,80,0
134.99611,135.27885,56,80,0
135.28183,135.56456,52,80,0
134.13896,135.85028,46,80,0
135.56754,135.85028,53,80,0
135.85326,136.13599,55,80,0
136.13896,136.4217,50,80,0
136.42468,136.70741,51,80,0
136.71039,136.99313,53,80,0
136.99611,137.27884,48,80,0
135.85326,137.56456,46,80,0
137.28181,137.56456,50,80,0
137.56754,137.70741,51,80,0
137.71039,137.85027,58,80,0
137.85326,137.99313,55,80,0
137.99611,138.13599,58,80,0
138.13896,138.27884,53,80,0
138.28181,138.4217,58,80,0
138.42468,138.56456,51,80,0
138.56754,138.70741,58,80,0
138.71039,138.85027,53,80,0
138.85324,138.99313,58,80,0
138.99611,139.13599,55,80,0
139.13896,139.27884,58,80,0
139.28181,139.4217,53,80,0
139.42468,139.56456,58,80,0
139.56754,139.70741,55,80,0
139.71039,139.85027,58,80,0
139.85324,139.99313,56,80,0
139.99611,140.13599,58,80,0
140.13896,140.27884,53,80,0
140.28181,140.42169,58,80,0
140.42468,140.56456,55,80,0
140.56754,140.70741,58,80,0
140.71039,140.85027,56,80,0
140.85324,140.99313,58,80,0
140.99611,141.13599,50,80,0
141.13896,141.27884,58,80,0
141.28181,141.42169,53,80,0
141.42467,141.56456,58,80,0
141.56754,141.70741,51,80,0
141.71039,141.85027,58,80,0
141.85324,141.99312,50,80,0
141.99611,142.13599,58,80,0
142.13896,142.27884,51,80,0
142.28181,142.42169,58,80,0
142.42467,142.56456,53,80,0
142.56754,142.70741,58,80,0
142.71039,142.85027,51,80,0
142.85324,142.99312,58,80,0
142.9961,143.13599,53,80,0
143.13896,143.27884,58,80,0
143.28181,143.42169,55,80,0
143.42467,143.56456,58,80,0
143.56754,143.70741,51,80,0
143.71039,143.85027,58,80,0
143.85324,143.99312,53,80,0
143.9961,144.13599,58,80,0
144.13896,144.27884,55,80,0
144.28181,144.42169,58,80,0
144.42467,144.56454,51,80,0
144.56754,144.70741,58,80,0
144.71039,144.85027,55,80,0
144.85324,144.99312,58,80,0
144.9961,145.13599,51,80,0
145.13896,145.27884,58,80,0
145.28181,145.42169,51,80,0
145.42467,145.56454,58,80,0
145.56752,145.70741,55,80,0
145.71039,145.85027,58,80,0
145.85324,145.99312,51,80,0
145.9961,146.13599,58,80,0
146.13896,146.27884,53,80,0
146.28181,146.42169,58,80,0
146.42467,146.56454,56,80,0
146.56752,146.70741,58,80,0
146.71039,146.85027,53,80,0
146.85324,146.99312,58,80,0
146.9961,147.13597,53,80,0
147.13895,147.27884,58,80,0
147.28181,147.42169,56,80,0
147.42467,147.56454,58,80,0
147.56752,147.70741,53,80,0
147.71039,147.85027,58,80,0
147.85324,147.99312,50,80,0
147.9961,148.13597,58,80,0
148.13895,148.27884,53,80,0
148.28181,148.42169,58,80,0
148.42467,148.56454,50,80,0
148.56752,148.7074,58,80,0
148.71039,148.85027,50,80,0
148.85324,148.99312,58,80,0
148.9961,149.13597,53,80,0
149.13895,149.27884,58,80,0
149.28181,149.42169,50,80,0
149.42467,149.56454,58,80,0
149.71037,149.85027,51,80,0
149.85324,149.99312,50,81,0
149.9961,150.13597,51,82,0
150.13895,150.27884,50,83,0
150.28181,150.42169,51,84,0
150.42467,150.56454,43,85,0
150.56752,150.7074,51,86,0
150.71037,150.85027,44,86,0
150.85324,150.99312,51,87,0
150.9961,151.13597,46,88,0
151.13895,151.27882,51,89,0
151.28181,151.42169,44,90,0
151.42467,151.56454,51,91,0
151.56752,151.7074,46,92,0
151.71037,151.85027,51,93,0
151.85324,151.99312,48,93,0
151.9961,152.13597,51,94,0
152.13895,152.27882,45,95,0
152.2818,152.42169,51,96,0
152.42467,152.56454,46,97,0
152.56752,152.7074,51,98,0
152.71037,152.85025,48,99,0
152.85324,152.99312,51,99,0
152.9961,153.13597,46,110,0
153.13895,153.27882,55,110,0
153.2818,153.42169,51,110,0
153.42467,153.56454,55,110,0
153.56752,153.7074,46,110,0
153.71037,153.85025,55,110,0
153.85323,153.99312,46,110,0
153.9961,154.13597,53,110,0
154.13895,154.27882,50,110,0
154.2818,154.42169,53,110,0
154.42467,154.56454,46,110,0
154.56752,154.7074,53,110,0
154.71037,154.99312,51,100,0
154.71037,154.99312,39,100,0
156.42465,156.56454,43,110,0
156.56752,156.7074,51,110,0
156.71037,156.85025,44,110,0
156.85323,156.99312,51,110,0
156.9961,157.13597,46,110,0
157.13895,157.27882,51,110,0
157.2818,157.42168,43,110,0
157.42465,157.56454,51,110,0
157.56752,157.7074,44,110,0
157.71037,157.85025,51,110,0
157.85323,157.9931,46,110,0
157.99608,158.13597,51,110,0
158.13895,158.27882,44,110,0
158.2818,158.42168,51,110,0
158.42465,158.56454,46,110,0
158.56752,158.7074,51,110,0
158.71037,158.85025,48,110,0
158.85323,158.9931,51,110,0
158.99608,159.13597,45,110,0
159.13895,159.27882,51,110,0
159.2818,159.42168,46,110,0
159.42465,159.56453,51,110,0
159.56752,159.7074,48,110,0
159.71037,159.85025,51,110,0
159.85323,159.9931,46,110,0
159.99608,160.13597,51,110,0
160.13895,160.27882,50,111,0
160.2818,160.42168,51,112,0
160.42465,160.56453,47,113,0
160.5675,160.7074,51,114,0
160.71037,160.85025,48,115,0
160.85323,160.9931,51,115,0
160.99608,161.13597,50,116,0
161.13895,161.27882,51,117,0
161.2818,161.42168,45,118,0
161.42465,161.56453,51,119,0
161.5675,161.7074,46,120,0
161.71037,161.85025,51,120,0
161.85323,161.9931,49,120,0
161.99608,162.13596,51,120,0
162.13895,162.27882,47,120,0
162.2818,162.42168,51,120,0
162.42465,162.56453,48,120,0
162.5675,162.7074,51,120,0
162.71037,162.85025,50,120,0
162.85323,162.9931,51,120,0
162.99608,163.13596,45,120,0
163.13893,163.27882,51,120,0
163.2818,163.56453,46,120,0
163.5675,163.85025,55,120,0
163.5675,163.85025,51,120,0
163.5675,163.85025,46,120,0
164.42465,164.70738,54,120,0
164.42465,164.70738,51,120,0
164.42465,164.70738,48,120,0
165.2818,165.56453,55,120,0
165.2818,165.56453,51,120,0
165.2818,165.56453,46,120,0
166.13893,166.42168,57,120,0
166.13893,166.42168,54,120,0
166.13893,166.42168,51,120,0
166.13893,166.42168,45,120,0
166.99608,167.27881,58,120,0
166.99608,167.27881,55,120,0
166.99608,167.27881,51,120,0
166.99608,167.27881,46,120,0
169.28178,170.13596,46,120,0
169.28178,170.13596,34,120,0
170.13893,170.42166,39,120,0
170.71036,170.9931,45,100,0
170.99608,171.27881,44,100,0
171.28178,171.56453,43,100,0
170.42465,171.85023,46,120,0
171.5675,171.85023,41,100,0
171.85321,172.13596,39,100,0
172.13893,172.42166,43,100,0
172.42464,172.70738,46,100,0
172.71036,172.99309,34,100,0
172.99608,173.27881,41,100,0
173.28178,173.56453,46,100,0
173.5675,173.85023,39,100,0
174.13893,174.42166,45,100,0
174.42464,174.70738,44,100,0
174.71036,174.99309,43,100,0
173.85321,175.27881,46,115,0
174.99606,175.27881,41,100,0
175.28178,175.56451,39,100,0
175.56749,175.85023,43,100,0
175.85321,176.13596,46,100,0
176.13893,176.42166,34,100,0
176.42464,176.70738,41,80,0
176.71036,176.99309,46,80,0
176.99606,177.27881,39,79,0
177.28178,177.56451,43,78,0
177.56749,177.85023,46,77,0
177.85321,178.13594,34,76,0
178.13892,178.42166,41,75,0
178.42464,178.70738,46,74,0
178.71036,179.02286,39,73,0
179.02614,179.33864,43,72,0
179.34193,179.65443,46,71,0
179.65771,179.97021,51,71,0
180.60509,181.03069,60,110,0
180.60509,181.03069,55,110,0
180.60509,181.03069,52,110,0
180.60509,181.03069,48,110,0
182.8908,183.17354,64,80,0
182.8908,183.17354,67,80,0
183.17651,183.74496,64,80,0
183.17651,183.74496,67,80,0
183.74794,184.03067,65,80,0
183.74794,184.03067,68,80,0
184.03365,184.45924,65,110,0
184.03365,184.45924,68,110,0
186.31937,186.6021,65,80,0
186.31937,186.6021,68,80,0
186.60507,187.17354,65,80,0
186.60507,187.17354,68,80,0
187.17651,187.45924,67,80,0
187.17651,187.45924,70,80,0
187.46222,187.88782,67,110,0
187.46222,187.88782,70,110,0
190.8908,191.03067,53,80,0
191.03365,191.17352,60,80,0
191.1765,191.31639,56,80,0
191.31937,191.45924,60,80,0
191.46222,191.6021,53,80,0
191.60507,191.74495,60,80,0
191.74792,191.88782,53,80,0
191.8908,192.03067,60,80,0
192.03365,192.17352,56,80,0
192.1765,192.31638,60,80,0
192.31937,192.45924,53,80,0
192.46222,192.6021,60,80,0
192.60507,192.74495,55,80,0
192.74792,192.88782,60,80,0
192.8908,193.03067,58,80,0
193.03365,193.17352,60,80,0
193.1765,193.31638,55,80,0
193.31935,193.45924,60,80,0
193.46222,193.6021,52,80,0
193.60507,193.74495,60,80,0
193.74792,193.88782,55,80,0
193.8908,194.03067,60,80,0
194.03365,194.17352,52,80,0
194.1765,194.31638,60,80,0
194.31935,194.45924,48,80,0
194.46222,194.6021,60,83,0
194.60507,194.74495,52,87,0
194.74792,194.8878,60,91,0
194.89078,195.03067,55,95,0
195.03365,195.17352,60,99,0
195.1765,195.31638,52,100,0
195.31935,195.45924,60,97,0
195.46222,195.6021,55,93,0
195.60507,195.74495,60,89,0
195.74792,195.8878,58,85,0
195.89078,196.03067,60,81,0
196.03365,196.17352,53,80,0
196.1765,196.31638,60,80,0
196.31935,196.45923,56,80,0
196.46222,196.6021,60,80,0
196.60507,196.74495,53,80,0
196.74792,196.8878,60,80,0
196.89078,197.03067,53,80,0
197.03365,197.17352,60,80,0
197.1765,197.31638,52,80,0
197.31935,197.45923,53,80,0
197.4622,197.6021,51,80,0
197.60507,197.74495,53,80,0
197.74792,197.8878,49,80,0
197.89078,198.03067,53,81,0
198.03365,198.17352,48,83,0
198.1765,198.31638,53,85,0
198.31935,198.45923,49,87,0
198.4622,198.6021,53,89,0
198.60507,198.74495,46,90,0
198.74792,198.8878,53,92,0
198.89078,199.03065,48,94,0
199.03363,199.17352,53,96,0
199.1765,199.31638,49,98,0
199.31935,199.45923,53,99,0
199.4622,199.6021,48,100,0
199.60507,199.74495,53,99,0
199.74792,199.8878,51,97,0
199.89078,200.03065,53,95,0
200.03363,200.17352,48,93,0
200.1765,200.31638,53,91,0
200.31935,200.45923,45,90,0
200.4622,200.60208,53,88,0
200.60507,200.74495,48,86,0
200.74792,200.8878,53,84,0
200.89078,201.03065,45,82,0
201.03363,201.17352,53,81,0
201.1765,201.31638,41,80,0
201.31935,201.45923,53,80,0
201.4622,201.60208,45,80,0
201.60506,201.74495,53,80,0
201.74792,201.8878,48,80,0
201.89078,202.03065,53,80,0
202.03363,202.17352,45,80,0
202.1765,202.31638,53,80,0
202.31935,202.45923,48,80,0
202.4622,202.60208,53,80,0
202.60506,202.74495,51,80,0
202.74792,202.8878,53,80,0
202.89078,203.03065,46,80,0
203.03363,203.17351,53,80,0
203.1765,203.31638,49,80,0
203.31935,203.45923,53,80,0
203.4622,203.60208,46,80,0
203.60506,203.74495,53,80,0
203.74792,203.8878,46,80,0
203.89078,204.03065,53,80,0
204.03363,204.17351,49,80,0
204.17648,204.31638,53,80,0
204.31935,204.45923,46,80,0
204.4622,204.60208,53,80,0
204.60506,204.74495,44,100,0
204.74792,204.8878,54,100,0
204.89078,205.03065,51,100,0
205.03363,205.17351,54,100,0
205.17648,205.31638,44,100,0
205.31935,205.45923,54,100,0
205.4622,205.60208,44,100,0
205.60506,205.74493,54,100,0
205.74791,205.8878,48,100,0
205.89078,206.03065,54,100,0
206.03363,206.17351,44,100,0
206.17648,206.31638,54,100,0
206.31935,206.60208,53,100,0
206.31935,206.60208,49,100,0
207.17648,207.45923,68,100,0
207.4622,207.74493,66,100,0
207.74791,208.03065,63,100,0
208.03363,208.31636,65,100,0
208.31934,208.60208,64,100,0
208.60506,208.8878,66,100,0
208.89078,209.17351,65,100,0
209.17648,209.45923,63,100,0
209.4622,209.74493,60,100,0
209.74791,210.03065,61,100,0
210.03363,210.31636,60,100,0
210.31934,210.60208,63,100,0
210.60506,210.88779,61,100,0
210.89076,211.17351,60,100,0
211.17648,211.45921,57,100,0
211.4622,211.74493,58,100,0
211.74791,212.03065,61,100,0
212.03363,212.31636,56,100,0
212.31934,212.60208,55,100,0
212.60506,212.88779,56,100,0
212.89076,213.17351,53,100,0
213.17648,213.45921,52,100,0
213.46219,213.74493,55,100,0
213.74791,214.03064,50,100,0
214.03363,214.31636,48,100,0
214.31934,214.60208,50,100,0
214.60506,214.88779,52,100,0
214.89076,215.17351,53,100,0
215.17648,215.45921,56,101,0
215.46219,215.74493,51,103,0
215.74791,216.03064,50,105,0
216.03362,216.31636,53,106,0
216.31934,216.60207,48,108,0
216.60504,216.88779,47,110,0
216.89076,217.17351,50,110,0
217.17648,217.45921,45,110,0
217.46219,217.74493,43,110,0
217.74791,218.03064,45,110,0
218.03362,218.31636,47,110,0
218.31934,218.60207,48,110,0
218.60504,218.88779,51,110,0
218.89076,219.1735,46,110,0
219.17647,219.45921,44,110,0
219.46219,219.74493,48,110,0
219.74791,220.03064,43,110,0
220.03362,220.31636,41,110,0
220.31934,220.60207,44,110,0
220.60504,220.88779,39,110,0
220.89076,221.1735,38,110,0
221.17647,221.45921,41,110,0
221.46219,221.74492,36,110,0
221.7479,222.03064,35,120,0
222.03362,222.31635,38,120,0
222.31934,222.60207,33,120,0
222.60504,222.88779,31,120,0
222.89076,223.1735,33,120,0
223.17647,223.45921,35,120,0
223.46219,223.74492,36,120,0
223.7479,224.03064,38,120,0
224.03362,224.31635,39,120,0
224.31932,224.88777,41,120,0
224.89076,225.1735,42,120,0
225.17647,225.45921,43,120,0
225.46219,225.74492,55,80,0
226.31932,226.60207,55,80,0
227.17647,227.4592,55,80,0
228.03362,228.31635,55,80,0
228.89075,229.1735,43,80,0
229.7479,230.03062,43,79,0
230.60504,230.88777,43,77,0
231.46217,231.74492,43,75,0
232.31932,232.60205,43,73,0
232.31932,232.60205,31,73,0
233.17647,233.4592,43,71,0
233.17647,233.4592,31,71,0
233.7479,234.17348,48,110,0
233.7479,234.17348,43,110,0
233.7479,234.17348,39,110,0
233.7479,234.17348,36,110,0
236.0336,236.31635,60,80,0
236.0336,236.31635,63,80,0
236.31932,236.88777,60,80,0
236.31932,236.88777,63,80,0
236.89075,237.17348,62,80,0
236.89075,237.17348,65,80,0
237.17645,237.60205,62,110,0
237.17645,237.60205,59,110,0
237.17645,237.60205,56,110,0
237.17645,237.60205,53,110,0
237.17645,237.60205,50,110,0
239.46217,239.7449,68,80,0
239.46217,239.7449,65,80,0
239.46217,239.7449,62,80,0
239.74788,240.31633,62,80,0
239.74788,240.31633,65,80,0
239.74788,240.31633,68,80,0
240.3193,240.60205,63,81,0
240.3193,240.60205,67,81,0
241.17645,241.4592,60,83,0
241.17645,241.4592,55,83,0
241.17645,241.4592,51,83,0
241.46217,242.03062,59,84,0
241.46217,242.03062,56,84,0
241.46217,242.03062,53,84,0
242.0336,242.31633,60,85,0
242.0336,242.31633,55,85,0
242.0336,242.31633,51,85,0
242.89073,243.17348,60,87,0
242.89073,243.17348,63,87,0
243.17645,243.7449,62,88,0
243.17645,243.7449,65,88,0
243.74788,244.03062,60,89,0
243.74788,244.03062,63,89,0
244.60503,244.88776,60,100,0
244.60503,244.88776,55,100,0
244.60503,244.88776,51,100,0
244.89073,245.45918,59,100,0
244.89073,245.45918,56,100,0
244.89073,245.45918,53,100,0
245.46216,245.7449,55,100,0
245.46216,245.7449,51,100,0
245.74788,246.34476,53,100,0
245.74788,246.34476,50,100,0
246.34787,246.64474,51,100,0
246.34787,246.64474,48,100,0
246.64787,246.96037,50,100,0
246.64787,246.96037,47,100,0
248.19525,248.49213,56,80,0
248.19525,248.49213,53,80,0
248.19525,248.49213,50,80,0
248.19525,248.49213,46,80,0
248.49524,248.79211,55,80,0
248.49524,248.79211,51,80,0
248.49524,248.79211,48,80,0
249.99524,250.29211,50,80,0
249.99524,250.29211,44,80,0
249.99524,250.29211,41,80,0
250.29524,250.59212,51,80,0
250.29524,250.59212,48,80,0
250.29524,250.59212,43,80,0
251.76668,252.04941,43,120,0
251.76668,252.04941,31,120,0
252.05238,252.33513,48,120,0
252.05238,252.33513,36,120,0
254.62381,255.47798,59,80,0
253.76666,256.3351,61,103,0
255.48096,256.3351,58,80,0
256.3381,257.19226,56,80,0
256.3381,257.19226,59,80,0
257.19525,258.0494,54,80,0
257.19525,258.0494,61,80,0
258.05237,258.90656,71,102,0
258.05237,259.7637,73,101,0
258.90952,259.7637,70,80,0
259.76666,260.62082,68,80,0
259.76666,260.62082,71,80,0
260.6238,261.47797,66,80,0
260.6238,261.47797,73,80,0
261.48096,262.3351,68,104,0
261.48096,263.19226,70,101,0
262.3381,263.19226,66,80,0
263.19522,264.0494,65,80,0
263.19522,264.0494,68,80,0
264.05237,264.90652,63,80,0
264.05237,264.90652,66,80,0
264.90952,265.76367,61,80,0
264.90952,265.76367,65,80,0
265.76666,266.62082,60,80,0
265.76666,266.62082,67,80,0
266.6238,267.47797,59,80,0
267.48096,267.76367,60,80,0
267.76666,268.0494,55,80,0
268.05237,268.3351,56,80,0
268.33807,268.62082,58,80,0
268.6238,268.90652,53,80,0
267.48096,269.19226,48,80,0
268.90952,269.19226,55,80,0
269.19522,269.47797,56,80,0
269.48093,269.76367,52,80,0
269.76666,270.04938,53,80,0
270.05237,270.3351,55,80,0
270.33807,270.62082,50,80,0
269.19522,270.90652,48,80,0
270.6238,270.90652,52,80,0
270.90952,271.19226,53,80,0
271.19522,271.47797,55,80,0
271.48093,271.76367,57,80,0
271.76666,272.04938,58,80,0
272.05237,272.3351,54,80,0
270.90952,272.62082,48,80,0
272.33807,272.62082,55,80,0
272.62378,272.90652,57,80,0
272.90952,273.19226,52,80,0
273.19522,273.47797,53,80,0
273.48093,273.76367,55,80,0
273.76666,274.04938,50,80,0
272.62378,274.3351,48,80,0
274.05237,274.3351,52,80,0
274.33807,274.47797,53,80,0
274.48093,274.62082,60,80,0
274.62378,274.76367,57,80,0
274.76666,274.90652,60,80,0
274.90952,275.04938,53,80,0
275.05237,275.19223,60,80,0
275.19522,275.3351,53,80,0
275.33807,275.47797,60,80,0
275.48093,275.62082,55,80,0
275.62378,275.76367,60,80,0
275.76666,275.90652,57,80,0
275.90952,276.04938,60,80,0
276.05237,276.19223,55,80,0
276.19522,276.3351,60,80,0
276.33807,276.47797,57,80,0
276.48093,276.62082,60,80,0
276.62378,276.76367,58,80,0
276.76663,276.90652,60,80,0
276.90952,277.04938,55,80,0
277.05237,277.19223,60,80,0
277.19522,277.3351,57,80,0
277.33807,277.47797,60,80,0
277.48093,277.62082,58,80,0
277.62378,277.76367,60,80,0
277.76663,277.90652,52,80,0
277.90952,278.04938,60,80,0
278.05237,278.19223,55,80,0
278.19522,278.33508,60,80,0
278.33807,278.47797,53,80,0
278.48093,278.62082,60,80,0
278.62378,278.76367,52,80,0
278.76663,278.90652,60,80,0
278.90952,279.04938,53,80,0
279.05237,279.19223,60,80,0
279.19522,279.33508,55,80,0
279.33807,279.47797,60,80,0
279.48093,279.62082,53,80,0
279.62378,279.76367,60,80,0
279.76663,279.90652,55,80,0
279.90952,280.04938,60,80,0
280.05237,280.19223,57,80,0
280.19522,280.33508,60,80,0
280.33807,280.47797,53,80,0
280.48093,280.62082,60,80,0
280.62378,280.76367,55,80,0
280.76663,280.90652,60,80,0
280.9095,281.04938,57,80,0
281.05237,281.19223,60,80,0
281.19522,281.33508,53,80,0
281.33807,281.47797,60,80,0
281.48093,281.62082,57,80,0
281.62378,281.76367,60,80,0
281.76663,281.90652,53,80,0
281.9095,282.04938,60,80,0
282.05237,282.19223,53,80,0
282.19522,282.33508,60,80,0
282.33807,282.47794,57,80,0
282.48093,282.62082,60,80,0
282.62378,282.76367,53,80,0
282.76663,282.90652,60,80,0
282.9095,283.04938,55,80,0
283.05237,283.19223,60,80,0
283.19522,283.33508,58,80,0
283.33807,283.47794,60,80,0
283.48093,283.62082,55,80,0
283.62378,283.76367,60,80,0
283.76663,283.90652,55,80,0
283.9095,284.04938,60,80,0
284.05237,284.19223,58,80,0
284.19522,284.33508,60,80,0
284.33807,284.47794,55,80,0
284.48093,284.62082,60,80,0
284.62378,284.76367,52,80,0
284.76663,284.90652,60,80,0
284.9095,285.04938,55,80,0
285.05237,285.19223,60,80,0
285.19522,285.33508,52,80,0
285.33807,285.47794,60,80,0
285.48093,285.62082,52,80,0
285.62378,285.76367,60,80,0
285.76663,285.90652,55,80,0
285.9095,286.04938,60,80,0
286.05234,286.19223,52,80,0
286.19522,286.33508,60,80,0
286.33807,286.47794,53,80,0
286.48093,286.6208,60,80,0
286.62378,286.76367,55,80,0
286.76663,286.90652,60,80,0
286.9095,287.04938,56,80,0
287.05234,287.19223,60,80,0
287.19522,287.33508,53,80,0
287.33807,287.47794,60,80,0
287.48093,287.6208,55,80,0
287.62378,287.76367,60,80,0
287.76663,287.90652,56,80,0
287.9095,288.04938,60,80,0
288.05234,288.19223,55,80,0
288.19522,288.33508,63,80,0
288.33807,288.47794,60,80,0
288.48093,288.6208,63,80,0
288.62378,288.76367,55,80,0
288.76663,288.90652,63,80,0
288.9095,289.04938,55,80,0
289.05234,289.19223,62,80,0
289.19522,289.33508,59,80,0
289.33807,289.47794,62,80,0
289.48093,289.6208,55,80,0
289.62378,289.76367,62,80,0
289.76663,289.90652,48,110,0
289.9095,290.04938,55,110,0
290.05234,290.19223,51,110,0
290.1952,290.33508,55,110,0
290.33807,290.47794,50,110,0
290.48093,290.6208,55,110,0
290.62378,290.76367,48,110,0
290.76663,290.90652,55,110,0
290.9095,291.04938,51,110,0
291.05234,291.19223,55,110,0
291.1952,291.33508,50,110,0
291.33807,291.47794,55,110,0
291.48093,291.6208,50,110,0
291.62378,291.76364,55,110,0
291.76663,291.90652,51,110,0
291.9095,292.04938,55,110,0
292.05234,292.19223,53,110,0
292.1952,292.33508,55,110,0
292.33807,292.47794,50,110,0
292.48093,292.6208,55,110,0
292.62378,292.76364,51,110,0
292.76663,292.90652,55,110,0
292.9095,293.04938,53,110,0
293.05234,293.19223,55,110,0
293.1952,293.33508,47,110,0
293.33807,293.47794,55,110,0
293.48093,293.6208,50,110,0
293.62378,293.76364,55,110,0
293.76663,293.90652,48,110,0
293.9095,294.04938,55,110,0
294.05234,294.19223,47,110,0
294.1952,294.33508,55,110,0
294.33804,294.47794,50,110,0
294.48093,294.6208,55,110,0
294.62378,294.76364,48,110,0
294.76663,294.90652,55,110,0
294.9095,295.04938,48,110,0
295.05234,295.19223,55,110,0
295.1952,295.33508,50,110,0
295.33804,295.47794,55,110,0
295.48093,295.6208,51,110,0
295.62378,295.76364,55,110,0
295.76663,295.9065,48,110,0
295.9095,296.04938,55,110,0
296.05234,296.19223,50,110,0
296.1952,296.33508,55,110,0
296.33804,296.47794,51,110,0
296.48093,296.6208,55,110,0
296.62378,296.76364,48,100,0
296.76663,296.9065,55,100,0
296.9095,297.04938,51,100,0
297.05234,297.19223,55,100,0
297.1952,297.33508,48,100,0
297.33804,297.47794,55,100,0
297.48093,297.6208,48,100,0
297.62378,297.76364,55,100,0
297.76663,297.9065,51,100,0
297.9095,298.04938,55,100,0
298.05234,298.19223,48,100,0
298.1952,298.33508,55,100,0
298.33804,298.47794,50,100,0
298.4809,298.6208,55,100,0
298.62378,298.76364,53,100,0
298.76663,298.9065,55,100,0
298.9095,299.04938,50,100,0
299.05234,299.19223,55,100,0
299.1952,299.33508,50,100,0
299.33804,299.47794,55,100,0
299.4809,299.6208,53,100,0
299.62378,299.76364,55,100,0
299.76663,299.9065,50,100,0
299.9095,300.04935,55,100,0
300.05234,300.19223,47,100,0
300.1952,300.33508,55,100,0
300.33804,300.47794,50,100,0
300.4809,300.6208,55,100,0
300.62378,300.76364,47,100,0
300.76663,300.9065,55,100,0
300.9095,301.04935,47,100,0
301.05234,301.19223,55,100,0
301.1952,301.33508,50,100,0
301.33804,301.47794,55,100,0
301.4809,301.6208,47,100,0
301.62378,301.76364,55,100,0
301.9095,302.04935,48,100,0
302.05234,302.19223,47,101,0
302.1952,302.33508,48,102,0
302.33804,302.47794,47,103,0
302.4809,302.6208,48,104,0
302.62375,302.76364,40,105,0
302.76663,302.9065,48,105,0
302.9095,303.04935,41,106,0
303.05234,303.19223,48,107,0
303.1952,303.33508,43,108,0
303.33804,303.47794,48,109,0
303.4809,303.6208,41,110,0
303.62375,303.76364,48,110,0
303.76663,303.9065,43,110,0
303.9095,304.04935,48,110,0
304.05234,304.1922,44,110,0
304.1952,304.33508,48,110,0
304.33804,304.47794,42,110,0
304.4809,304.6208,48,110,0
304.62375,304.76364,43,110,0
304.76663,304.9065,48,110,0
304.9095,305.04935,45,110,0
305.05234,305.1922,48,110,0
305.1952,305.33508,43,110,0
305.33804,305.47794,51,110,0
305.4809,305.6208,48,110,0
305.62375,305.76364,51,110,0
305.76663,305.9065,43,110,0
305.9095,306.04935,51,110,0
306.05234,306.1922,43,110,0
306.1952,306.33508,50,110,0
306.33804,306.47794,47,110,0
306.4809,306.6208,50,110,0
306.62375,306.76364,43,110,0
306.76663,306.9065,50,110,0
306.9095,307.1922,48,100,0
306.9095,307.1922,36,100,0
308.62375,308.76364,39,100,0
308.7666,308.9065,48,100,0
308.9095,309.04935,41,100,0
309.05234,309.1922,48,102,0
309.1952,309.33505,43,100,0
309.33804,309.47794,48,104,0
309.4809,309.6208,40,100,0
309.62375,309.76364,48,100,0
309.7666,309.9065,41,100,0
309.9095,310.04935,48,102,0
310.05234,310.1922,43,100,0
310.1952,310.33505,48,104,0
310.33804,310.47794,41,110,0
310.4809,310.6208,48,110,0
310.62375,310.76364,43,110,0
310.7666,310.9065,48,110,0
310.9095,311.04935,44,110,0
311.05234,311.1922,48,110,0
311.1952,311.33505,42,110,0
311.33804,311.47794,48,110,0
311.4809,311.6208,43,110,0
311.62375,311.76364,48,110,0
311.7666,311.9065,45,110,0
311.90945,312.04935,48,110,0
312.05234,312.1922,43,110,0
312.1952,312.33505,48,110,0
312.33804,312.47794,47,110,0
312.4809,312.6208,48,110,0
312.62375,312.76364,43,110,0
312.7666,312.9065,48,110,0
312.90945,313.04935,44,110,0
313.05234,313.1922,48,110,0
313.1952,313.33505,47,110,0
313.33804,313.4779,48,110,0
313.4809,313.6208,42,110,0
313.62375,313.76364,48,110,0
313.7666,313.9065,43,110,0
313.90945,314.04935,48,110,0
314.05234,314.1922,47,110,0
314.1952,314.33505,48,110,0
314.33804,314.4779,40,110,0
314.4809,314.6208,48,110,0
314.62375,314.76364,41,110,0
314.7666,314.9065,48,110,0
314.90945,315.04935,44,110,0
315.05234,315.1922,48,110,0
315.1952,315.33505,42,110,0
315.33804,315.4779,48,110,0
315.4809,315.76364,43,110,0
315.7666,316.04935,60,110,0
315.7666,316.04935,63,110,0
315.7666,316.04935,55,110,0
316.62375,316.9065,63,110,0
316.62375,316.9065,60,110,0
316.62375,316.9065,56,110,0
317.4809,317.76364,63,110,0
317.4809,317.76364,60,110,0
317.4809,317.76364,55,110,0
318.33804,318.62076,63,110,0
318.33804,318.62076,60,110,0
318.33804,318.62076,54,110,0
319.1952,319.4779,60,120,0
319.1952,319.4779,63,120,0
319.1952,319.4779,55,120,0
321.4809,322.33505,43,120,0
321.4809,322.33505,31,120,0
322.33804,322.62076,36,110,0
322.90945,323.1922,42,100,0
323.19516,323.4779,41,100,0
323.4809,323.7636,39,100,0
322.62375,324.04935,43,115,0
323.7666,324.04935,38,100,0
324.0523,324.33505,36,100,0
324.33804,324.62076,39,100,0
324.62375,324.9065,43,100,0
324.90945,325.1922,31,100,0
325.19516,325.4779,38,100,0
325.4809,325.7636,43,100,0
325.7666,326.04935,36,110,0
326.338,326.62076,42,90,0
326.62375,326.90646,41,90,0
326.90945,327.1922,39,89,0
326.0523,327.4779,43,117,0
327.19516,327.4779,38,89,0
327.4809,327.7636,36,88,0
327.7666,328.04935,39,87,0
328.0523,328.33505,43,87,0
328.338,328.62076,31,86,0
328.62375,328.90646,38,86,0
328.90945,329.1922,43,85,0
329.19516,329.4779,36,84,0
329.48087,329.7636,39,84,0
329.7666,330.04935,43,83,0
330.0523,330.3648,31,82,0
330.3681,330.6806,38,82,0
330.6839,330.9964,43,81,0
330.99966,331.32953,36,81,0
331.99966,332.34488,43,120,0
331.99966,332.34488,38,120,0
331.99966,332.34488,35,120,0
331.99966,332.34488,31,120,0
333.04617,333.74023,48,120,0
333.04617,333.74023,43,120,0
333.04617,333.74023,39,120,0
333.04617,333.74023,36,120,0
