start_time,end_time,note_value,velocity,instrument_program_number
0.1666665,0.32986078,60,80,0
0.333333,0.49652728,59,80,0
0.4999995,0.66319376,60,80,0
0.666666,0.82986027,65,80,0
0.8333325,0.9965268,65,80,0
0.999999,1.3298597,63,80,0
1.4999985,1.6631927,60,80,0
1.666665,1.8298593,59,80,0
1.8333315,1.9965258,60,80,0
1.999998,2.1631923,68,80,0
2.1666646,2.3298588,68,80,0
2.333331,2.6631918,67,80,0
2.8333304,2.9965248,60,80,0
2.999997,3.1631913,59,80,0
3.1666634,3.3298578,60,80,0
3.33333,3.4965243,72,80,0
3.4999964,3.6631908,72,80,0
3.666663,3.8298573,72,80,0
3.8333294,3.9131906,74,80,0
3.8749962,3.954857,72,80,0
3.9166627,3.9965239,71,80,0
3.9583294,3.9965239,72,80,0
3.999996,4.1631904,75,80,0
4.1666627,4.329857,74,80,0
4.333329,4.516923,77,80,0
4.520829,4.704423,75,80,0
4.708329,4.891923,74,80,0
4.895829,5.079423,72,80,0
5.083329,5.454423,71,80,0
5.645829,5.829423,55,80,0
5.833329,5.9965234,54,80,0
5.9999957,6.16319,55,80,0
6.166662,6.3298564,60,80,0
6.3333287,6.496523,60,80,0
6.499995,6.829856,59,80,0
6.9999943,7.163189,55,80,0
7.166661,7.3298554,54,80,0
7.3333273,7.496522,55,80,0
7.499994,7.6631885,63,80,0
7.6666603,7.829855,63,80,0
7.833327,8.163188,62,80,0
8.333326,8.496521,55,80,0
8.499993,8.663187,59,80,0
8.666659,8.829854,62,80,0
8.833326,8.99652,65,80,0
8.999992,9.163187,68,80,0
9.166659,9.329853,71,80,0
9.333325,9.49652,74,80,0
9.499992,9.663186,77,80,0
9.666658,9.829853,80,80,0
9.833325,10.016919,79,80,0
10.020825,10.204419,77,80,0
10.208325,10.391919,75,80,0
10.395825,10.579419,74,80,0
10.583325,10.954419,72,80,0
11.124991,11.288186,72,80,0
11.291658,11.454852,71,80,0
11.458324,11.621519,72,80,0
11.624991,11.788185,84,80,0
11.791657,11.954852,84,80,0
11.958324,12.288185,84,80,0
12.4583235,12.621518,89,80,0
12.62499,12.788184,87,80,0
12.7916565,12.954851,86,80,0
12.958323,13.121517,84,80,0
13.1249895,13.288184,83,80,0
13.291656,13.45485,86,80,0
13.458323,13.621517,84,80,0
13.791656,13.95485,72,80,0
13.958322,14.121516,71,80,0
14.124989,14.288183,72,80,0
14.291655,14.454849,84,80,0
14.458322,14.621516,84,80,0
14.624988,14.788182,84,80,0
14.791655,14.843738,86,80,0
14.84721,14.899293,84,80,0
14.902765,14.954849,83,80,0
14.958321,15.121515,84,80,0
15.124988,15.288181,89,80,0
15.291654,15.454848,87,80,0
15.458321,15.621514,86,80,0
15.624987,15.788181,84,80,0
15.791654,15.954847,83,80,0
15.95832,16.038181,84,80,0
16.041653,16.121513,86,80,0
16.124987,16.204847,84,81,0
16.20832,16.288181,83,81,0
16.291653,16.371513,84,82,0
16.374987,16.454847,87,82,0
16.458319,16.538181,86,83,0
16.541653,16.621513,84,83,0
16.624987,16.704847,83,84,0
16.708319,16.78818,84,84,0
16.791653,16.871513,83,85,0
16.874987,16.954847,80,85,0
16.958319,17.03818,79,86,0
17.041653,17.121513,77,86,0
17.124985,17.204847,75,87,0
17.208319,17.28818,74,87,0
17.291653,17.371513,72,88,0
17.374985,17.454845,74,88,0
17.458319,17.53818,72,89,0
17.541653,17.621513,71,89,0
17.624985,17.704845,72,90,0
17.708319,17.78818,75,90,0
17.79165,17.871513,74,91,0
17.874985,17.954845,72,91,0
17.958319,18.03818,71,92,0
18.04165,18.121511,72,92,0
18.124985,18.204845,71,93,0
18.208317,18.28818,68,93,0
18.29165,18.371511,67,94,0
18.374985,18.454845,65,94,0
18.458317,18.53818,63,95,0
18.54165,18.621511,62,95,0
18.624985,18.704845,60,96,0
18.708317,18.788177,62,96,0
18.79165,18.871511,60,97,0
18.874983,18.954845,59,97,0
18.958317,19.038177,60,98,0
19.04165,19.121511,63,98,0
19.124983,19.204845,62,99,0
19.208317,19.288177,60,99,0
19.29165,19.371511,59,110,0
19.374983,19.454844,67,110,0
19.458317,19.538177,62,110,0
19.541649,19.621511,59,110,0
19.624983,19.704844,55,110,0
19.708317,19.788177,67,110,0
19.791649,19.871511,63,110,0
19.874983,19.954844,60,110,0
19.958317,20.040459,55,110,0
20.044031,20.126173,67,110,0
20.129744,20.211887,62,110,0
20.215458,20.297602,59,110,0
20.301172,20.385733,55,110,0
20.389408,20.473967,67,110,0
20.477644,20.562202,63,110,0
20.565878,20.650438,60,110,0
20.654114,20.738672,55,110,0
20.74235,20.826908,67,110,0
20.830584,20.915144,62,110,0
20.91882,21.003378,59,110,0
21.007055,21.096899,55,110,0
21.100805,21.190649,67,110,0
21.194555,21.284399,63,110,0
21.288305,21.378149,60,110,0
21.382055,23.628149,55,120,0
21.382055,23.628149,59,120,0
21.382055,23.628149,62,120,0
21.382055,23.628149,67,120,0
23.819555,24.003149,58,80,0
24.007055,24.190649,60,80,0
24.194555,24.378149,62,80,0
24.382055,24.565649,63,80,0
24.569555,24.753149,65,80,0
24.382055,25.128149,58,80,0
24.382055,25.128149,55,80,0
24.757055,25.128149,67,80,0
25.132055,25.503149,65,80,0
25.132055,25.503149,62,80,0
25.132055,25.503149,58,80,0
25.507055,25.878149,63,80,0
25.507055,25.878149,58,80,0
25.882055,26.734734,68,80,0
25.882055,26.734734,62,80,0
25.882055,26.734734,58,80,0
25.882055,26.734734,56,80,0
26.926697,27.11029,58,80,0
27.114197,27.29779,60,80,0
27.301697,27.48529,62,80,0
27.489197,27.67279,63,80,0
27.676697,27.86029,65,80,0
27.489197,28.23529,58,80,0
27.489197,28.23529,55,80,0
27.864197,28.23529,67,80,0
28.239197,28.61029,65,80,0
28.239197,28.61029,60,80,0
28.239197,28.61029,53,80,0
28.614197,28.98529,63,80,0
28.614197,28.98529,60,80,0
28.614197,28.98529,53,80,0
28.989197,29.841875,58,80,0
28.989197,29.841875,53,80,0
28.989197,29.841875,50,80,0
30.033838,30.217432,58,80,0
30.221338,30.404932,60,80,0
30.408838,30.592432,62,80,0
30.596338,30.779932,63,80,0
30.783838,30.967432,65,80,0
30.971338,31.342432,67,80,0
31.346338,31.717432,65,80,0
31.346338,31.717432,62,80,0
31.346338,31.717432,58,80,0
31.721338,32.092434,63,80,0
31.721338,32.092434,58,80,0
32.09634,32.23306,60,100,0
32.143215,32.23306,63,100,0
32.19009,32.23306,68,100,0
32.236965,33.029934,72,100,0
33.03384,33.217434,72,80,0
33.22134,33.404934,70,80,0
33.40884,33.592434,68,80,0
33.59634,33.779934,67,104,0
33.78384,33.967434,65,80,0
33.97134,34.154934,63,80,0
34.15884,34.342434,62,80,0
34.34634,34.717434,60,80,0
34.34634,35.092434,56,80,0
34.34634,35.092434,53,80,0
34.72134,35.092434,58,80,0
35.09634,35.842434,58,80,0
35.09634,35.842434,55,80,0
35.09634,35.842434,51,80,0
36.03384,36.217434,70,80,0
36.22134,36.404934,68,80,0
36.40884,36.592434,67,80,0
36.59634,36.77437,67,104,0
36.778156,36.95619,65,80,0
36.959976,37.138004,63,80,0
37.141792,37.319824,62,80,0
37.323612,37.68346,60,80,0
37.323612,38.047096,56,80,0
37.323612,38.047096,53,80,0
37.68725,38.047096,58,80,0
38.050884,38.77437,58,80,0
38.050884,38.77437,55,80,0
38.050884,38.77437,51,80,0
38.959972,39.138004,70,80,0
38.959972,39.138004,82,80,0
39.141792,39.31982,68,80,0
39.141792,39.31982,80,80,0
39.32361,39.50164,67,80,0
39.32361,39.50164,79,80,0
39.50543,39.678223,79,80,0
39.50543,39.678223,67,80,0
39.681896,39.85469,77,80,0
39.681896,39.85469,65,80,0
39.858368,40.031162,75,80,0
39.858368,40.031162,63,80,0
40.03484,40.207634,74,80,0
40.03484,40.207634,62,80,0
40.211308,40.3841,72,80,0
40.211308,40.3841,60,80,0
40.38778,40.560574,70,80,0
40.38778,40.560574,58,80,0
40.56425,40.737045,72,80,0
40.56425,40.737045,60,80,0
40.74072,40.913513,74,80,0
40.74072,40.913513,62,80,0
40.91719,41.00175,63,80,0
41.005424,41.089985,75,80,0
41.093662,41.17822,63,81,0
41.181896,41.266457,75,81,0
41.27013,41.35469,63,82,0
41.358368,41.442924,75,83,0
41.4466,41.531162,63,83,0
41.53484,41.619396,75,84,0
41.623074,41.70763,63,85,0
41.711308,41.795868,75,85,0
41.799545,41.8841,63,86,0
41.88778,41.972336,75,86,0
41.976013,42.060574,63,87,0
42.06425,42.148808,75,88,0
42.152485,42.23704,63,88,0
42.24072,42.32528,75,89,0
42.328957,42.413513,63,90,0
42.41719,42.501747,75,90,0
42.505424,42.589985,63,91,0
42.593662,42.67822,75,91,0
42.681896,42.766457,63,92,0
42.77013,42.85469,75,93,0
42.858368,42.942924,63,93,0
42.9466,43.031162,75,94,0
43.034836,43.119396,63,95,0
43.123074,43.20763,75,95,0
43.211308,43.295868,63,96,0
43.29954,43.3841,75,96,0
43.38778,43.472336,63,97,0
43.476013,43.560574,75,98,0
43.564247,43.648808,63,98,0
43.652485,43.73704,75,99,0
43.74072,44.089985,75,100,0
43.74072,44.089985,63,100,0
44.27013,44.442924,75,103,0
44.4466,44.619396,74,105,0
44.62307,44.795864,75,106,0
44.79954,44.972336,80,107,0
44.79954,44.972336,84,107,0
44.976013,45.148808,80,108,0
44.976013,45.148808,84,108,0
45.152485,45.501747,80,120,0
45.152485,45.58998,84,120,0
45.59366,45.67822,82,120,0
45.681896,45.766453,80,120,0
45.77013,45.854687,79,120,0
45.858364,45.942924,77,120,0
45.9466,46.03116,75,120,0
46.034836,46.119392,74,120,0
46.12307,46.20763,72,120,0
46.211308,46.295864,71,120,0
46.29954,46.3841,70,120,0
46.387775,46.472336,69,120,0
46.476013,46.56057,68,120,0
46.564247,46.67822,67,120,0
46.681892,46.795864,68,120,0
46.79954,46.913513,70,120,0
46.917187,47.03116,68,120,0
47.034836,47.148804,67,120,0
47.15248,47.266453,65,120,0
47.27013,47.384098,63,120,0
47.387775,47.501747,62,120,0
47.505424,47.619392,60,120,0
47.62307,47.73704,58,120,0
47.74072,47.854687,56,120,0
47.858364,47.972336,55,120,0
48.064247,48.148804,53,120,0
48.15248,48.23704,56,120,0
48.240715,48.325275,60,120,0
48.328953,48.678215,65,120,0
48.770126,48.854687,53,120,0
48.858364,48.94292,56,120,0
48.946598,49.03116,58,120,0
49.034836,49.384098,62,120,0
49.387775,49.469917,74,120,0
49.473488,49.555634,86,120,0
49.559204,49.641346,74,120,0
49.644917,49.727062,86,120,0
49.730633,49.812775,74,120,0
49.816345,49.89849,86,120,0
49.90206,49.984203,74,120,0
49.987774,50.069916,86,120,0
50.07349,50.155632,74,120,0
50.159203,50.241344,86,120,0
50.24492,50.32706,74,120,0
50.33063,50.412773,86,120,0
50.416348,50.49849,74,120,0
50.50206,50.5842,86,120,0
50.587776,50.669918,74,120,0
50.67349,50.75563,86,120,0
50.759205,50.841347,75,120,0
50.844917,50.92706,87,120,0
50.93063,51.012775,75,120,0
51.016346,51.098488,87,120,0
51.10206,51.184204,75,120,0
51.187775,51.269917,87,120,0
51.273487,51.355633,75,120,0
51.359203,51.441345,87,120,0
51.444916,51.52706,75,120,0
51.530632,51.612774,87,120,0
51.616344,51.69849,75,120,0
51.70206,51.784203,87,120,0
51.787773,51.869915,76,120,0
51.87349,51.95563,88,120,0
51.9592,52.041344,76,120,0
52.044918,52.12706,88,120,0
52.216347,52.29849,77,120,0
52.30206,52.3842,80,120,0
52.387775,52.469917,84,120,0
52.473488,52.812775,89,120,0
52.902058,52.984203,74,120,0
52.987774,53.069916,77,120,0
53.073486,53.155632,80,120,0
53.159203,53.49849,86,120,0
53.50206,53.841343,87,120,0
53.50206,53.841343,82,120,0
53.50206,53.841343,79,120,0
53.50206,53.841343,75,120,0
53.844917,54.01277,82,120,0
54.016346,54.1842,82,120,0
54.187775,54.527058,82,120,0
54.53063,54.698486,82,120,0
54.702057,54.869915,82,120,0
54.873486,55.212772,82,120,0
55.216343,55.55563,62,120,0
55.216343,55.55563,56,120,0
55.216343,55.55563,53,120,0
55.902058,56.241344,62,80,0
55.902058,56.241344,56,80,0
55.902058,56.241344,53,80,0
56.244915,56.5842,63,80,0
56.244915,56.5842,55,80,0
56.244915,56.5842,51,80,0
56.587772,56.92706,65,80,0
56.587772,56.92706,63,80,0
56.587772,56.92706,60,80,0
56.93063,57.269913,67,80,0
56.93063,57.269913,63,80,0
56.93063,57.269913,58,80,0
57.273487,57.61277,65,80,0
57.273487,57.61277,56,80,0
57.616344,57.955627,63,80,0
57.616344,57.955627,55,80,0
57.9592,58.041344,82,120,0
58.044914,58.127056,84,120,0
58.130627,58.212772,82,120,0
58.216343,58.298485,81,120,0
58.302055,58.641342,82,120,0
58.644913,58.72706,82,120,0
58.73063,58.81277,84,120,0
58.81634,58.898487,82,120,0
58.902058,58.9842,81,120,0
58.98777,59.327057,82,120,0
59.330627,59.669914,62,120,0
59.330627,59.669914,56,120,0
59.330627,59.669914,53,120,0
60.016342,60.698486,51,120,0
60.016342,60.698486,54,120,0
60.016342,60.698486,57,120,0
60.016342,60.698486,63,120,0
60.702057,61.04134,65,80,0
60.702057,61.04134,63,80,0
60.702057,61.04134,60,80,0
61.044914,61.384197,67,80,0
61.044914,61.384197,63,80,0
61.044914,61.384197,58,80,0
61.38777,61.727055,65,80,0
61.38777,61.727055,62,80,0
61.38777,61.727055,56,80,0
61.730625,62.06049,63,80,0
61.730625,62.06049,55,80,0
62.06396,62.227154,68,80,0
62.06396,62.227154,62,80,0
62.230625,62.39382,67,80,0
62.230625,62.39382,63,80,0
62.730625,62.89382,74,80,0
62.730625,62.89382,68,80,0
62.897293,63.060486,75,80,0
62.897293,63.060486,67,80,0
63.397293,63.560486,80,80,0
63.397293,63.560486,74,80,0
63.563957,63.727154,75,80,0
63.563957,63.727154,79,80,0
64.06396,64.22715,80,80,0
64.06396,64.22715,86,80,0
64.23062,64.39382,79,80,0
64.23062,64.39382,87,80,0
64.73062,65.060486,63,80,0
64.73062,65.060486,58,80,0
64.73062,65.060486,55,80,0
66.23062,66.393814,60,80,0
66.397285,66.560486,59,80,0
66.56396,66.72715,60,80,0
66.73062,66.893814,65,80,0
66.897285,67.060486,65,80,0
67.06396,67.393814,63,80,0
67.56396,67.72715,60,80,0
67.73062,67.893814,59,80,0
67.897285,68.06048,60,80,0
68.06396,68.22715,68,80,0
68.23062,68.393814,68,80,0
68.397285,68.72715,67,80,0
68.897285,69.06048,60,80,0
69.06395,69.22715,59,80,0
69.23062,69.393814,60,80,0
69.397285,69.56048,72,80,0
69.56395,69.72715,72,80,0
69.73062,69.893814,72,80,0
69.897285,69.97715,74,80,0
69.93895,70.018814,72,80,0
69.98062,70.06048,71,80,0
70.022285,70.06048,72,80,0
70.06395,70.22715,75,80,0
70.23062,70.393814,74,80,0
70.397285,70.58088,77,80,0
70.584785,70.76838,75,80,0
70.772285,70.95588,74,80,0
70.959785,71.14338,72,80,0
71.147285,71.51838,71,80,0
71.709785,71.89338,55,80,0
71.897285,72.06048,54,80,0
72.06395,72.22714,55,80,0
72.23062,72.393814,60,80,0
72.397285,72.56048,60,80,0
72.56395,72.893814,59,80,0
73.06395,73.22714,55,80,0
73.23061,73.393814,54,80,0
73.397285,73.56048,55,80,0
73.56395,73.72714,63,80,0
73.73061,73.893814,63,80,0
73.897285,74.22714,62,80,0
74.397285,74.56048,55,80,0
74.56395,74.72714,59,80,0
74.73061,74.89381,62,80,0
74.897285,75.06048,65,80,0
75.06395,75.22714,68,80,0
75.23061,75.39381,71,80,0
75.39728,75.56048,74,80,0
75.56395,75.72714,77,80,0
75.73061,75.89381,80,80,0
75.89728,76.08087,79,80,0
76.08478,76.26837,77,80,0
76.27228,76.45587,75,80,0
76.45978,76.64337,74,80,0
76.64728,77.01837,72,80,0
77.18895,77.35214,72,80,0
77.35561,77.51881,71,80,0
77.52228,77.68548,72,80,0
77.68895,77.85214,84,80,0
77.85561,78.01881,84,80,0
78.02228,78.35214,84,80,0
78.52228,78.68547,89,80,0
78.68895,78.85214,87,80,0
78.85561,79.01881,86,80,0
79.02228,79.18547,84,80,0
79.18894,79.35214,83,80,0
79.35561,79.51881,86,80,0
79.52228,79.68547,84,80,0
79.85561,80.01881,72,80,0
80.02228,80.18547,71,80,0
80.18894,80.35214,72,80,0
80.35561,80.51881,84,80,0
80.52228,80.68547,84,80,0
80.68894,80.852135,84,80,0
80.85561,80.90769,86,80,0
80.91116,80.96325,84,80,0
80.96672,81.01881,83,80,0
81.02228,81.18547,84,80,0
81.18894,81.352135,89,80,0
81.35561,81.51881,87,80,0
81.52228,81.68547,86,80,0
81.68894,81.852135,84,80,0
81.855606,82.01881,83,80,0
82.02228,82.102135,84,80,0
82.105606,82.18547,86,80,0
82.18894,82.26881,84,81,0
82.27228,82.352135,83,82,0
82.355606,82.43547,84,83,0
82.43894,82.51881,87,83,0
82.52228,82.602135,86,84,0
82.605606,82.68547,84,85,0
82.68894,82.76881,83,86,0
82.77228,82.852135,84,87,0
82.855606,82.93547,83,87,0
82.93894,83.01881,80,88,0
83.02228,83.102135,79,89,0
83.105606,83.18547,77,90,0
83.18894,83.2688,75,91,0
83.27228,83.352135,74,91,0
83.355606,83.43547,72,92,0
83.43894,83.5188,74,93,0
83.52228,83.602135,72,94,0
83.605606,83.68547,71,94,0
83.68894,83.7688,72,95,0
83.77228,83.852135,75,96,0
83.855606,83.93547,74,97,0
83.93894,84.0188,72,98,0
84.02227,84.102135,71,98,0
84.105606,84.18547,72,99,0
84.18894,84.2688,71,100,0
84.27227,84.352135,68,101,0
84.355606,84.43547,67,102,0
84.43894,84.5188,65,102,0
84.52227,84.602135,63,103,0
84.605606,84.68547,62,104,0
84.68894,84.7688,60,105,0
84.77227,84.852135,62,106,0
84.855606,84.93547,60,106,0
84.93894,85.0188,59,107,0
85.02227,85.102135,60,108,0
85.105606,85.18547,63,109,0
85.18894,85.2688,62,109,0
85.27227,85.352135,60,110,0
85.355606,85.43547,59,110,0
85.43894,85.5188,67,110,0
85.52227,85.602135,62,110,0
85.605606,85.68547,59,110,0
85.68894,85.7688,55,110,0
85.77227,85.852135,67,110,0
85.855606,85.93546,63,110,0
85.93894,86.0188,60,110,0
86.02227,86.104416,55,110,0
86.10799,86.19013,67,110,0
86.1937,86.27584,62,110,0
86.27941,86.36156,59,110,0
86.36513,86.44727,55,110,0
86.45084,86.53299,67,110,0
86.53656,86.6187,63,110,0
86.62227,86.704414,60,110,0
86.707985,86.79254,55,110,0
86.79622,86.88078,67,110,0
86.88445,86.96902,62,110,0
86.972694,87.05725,59,110,0
87.06093,87.15077,55,110,0
87.15468,87.24452,67,110,0
87.24843,87.33827,63,110,0
87.34218,87.43202,60,110,0
87.43593,89.68202,55,120,0
87.43593,89.68202,59,120,0
87.43593,89.68202,62,120,0
87.43593,89.68202,67,120,0
89.87343,90.05702,58,80,0
90.06093,90.24452,60,80,0
90.24843,90.43202,62,80,0
90.43593,90.61952,63,80,0
90.62343,90.80702,65,80,0
90.43593,91.18202,58,80,0
90.43593,91.18202,55,80,0
90.81093,91.18202,67,80,0
91.18593,91.55702,65,80,0
91.18593,91.55702,62,80,0
91.18593,91.55702,58,80,0
91.56093,91.93202,63,80,0
91.56093,91.93202,58,80,0
91.93593,92.788605,68,80,0
91.93593,92.788605,62,80,0
91.93593,92.788605,58,80,0
91.93593,92.788605,56,80,0
92.98057,93.16416,58,80,0
93.16807,93.35166,60,80,0
93.35557,93.53916,62,80,0
93.54307,93.72666,63,80,0
93.73057,93.91416,65,80,0
93.54307,94.28916,58,80,0
93.54307,94.28916,55,80,0
93.91807,94.28916,67,80,0
94.29307,94.66416,65,80,0
94.29307,94.66416,60,80,0
94.29307,94.66416,53,80,0
94.66807,95.03916,63,80,0
94.66807,95.03916,60,80,0
94.66807,95.03916,53,80,0
95.04307,95.895744,58,80,0
95.04307,95.895744,53,80,0
95.04307,95.895744,50,80,0
96.08771,96.2713,58,80,0
96.27521,96.4588,60,80,0
96.46271,96.6463,62,80,0
96.65021,96.8338,63,80,0
96.83771,97.0213,65,80,0
97.02521,97.3963,67,80,0
97.40021,97.7713,65,80,0
97.40021,97.7713,62,80,0
97.40021,97.7713,58,80,0
97.77521,98.1463,63,80,0
97.77521,98.1463,58,80,0
98.15021,98.28693,60,110,0
98.19708,98.28693,63,110,0
98.24396,98.28693,68,110,0
98.29083,99.0838,72,110,0
99.08771,99.2713,72,80,0
99.27521,99.4588,70,80,0
99.46271,99.6463,68,80,0
99.65021,99.8338,67,102,0
99.83771,100.0213,65,80,0
100.02521,100.2088,63,80,0
100.21271,100.3963,62,80,0
100.40021,100.7713,60,80,0
100.40021,101.1463,56,80,0
100.40021,101.1463,53,80,0
100.77521,101.1463,58,80,0
101.15021,101.8963,58,80,0
101.15021,101.8963,55,80,0
101.15021,101.8963,51,80,0
102.08771,102.2713,70,80,0
102.27521,102.4588,68,80,0
102.46271,102.6463,67,80,0
102.65021,102.82824,67,103,0
102.83203,103.010056,65,80,0
103.01385,103.19188,63,80,0
103.19566,103.373695,62,80,0
103.37748,103.73733,60,80,0
103.37748,104.10097,56,80,0
103.37748,104.10097,53,80,0
103.74112,104.10097,58,80,0
104.10475,104.82824,58,80,0
104.10475,104.82824,55,80,0
104.10475,104.82824,51,80,0
105.01385,105.19187,70,80,0
105.01385,105.19187,82,80,0
105.19566,105.373695,68,80,0
105.19566,105.373695,80,80,0
105.37748,105.55551,67,80,0
105.37748,105.55551,79,80,0
105.559296,105.73209,79,80,0
105.559296,105.73209,67,80,0
105.73577,105.90856,77,80,0
105.73577,105.90856,65,80,0
105.91224,106.08504,75,80,0
105.91224,106.08504,63,80,0
106.08871,106.261505,74,80,0
106.08871,106.261505,62,80,0
106.26518,106.43797,72,80,0
106.26518,106.43797,60,80,0
106.44165,106.61445,70,80,0
106.44165,106.61445,58,80,0
106.61812,106.79092,72,80,0
106.61812,106.79092,60,80,0
106.79459,106.967384,74,80,0
106.79459,106.967384,62,80,0
106.97106,107.05562,63,80,0
107.059296,107.14386,75,80,0
107.14754,107.23209,63,81,0
107.23577,107.32033,75,81,0
107.324005,107.40856,63,82,0
107.41224,107.496796,75,83,0
107.50047,107.58503,63,83,0
107.58871,107.67327,75,84,0
107.67695,107.761505,63,85,0
107.76518,107.84974,75,85,0
107.85342,107.93797,63,86,0
107.94165,108.02621,75,87,0
108.029884,108.11445,63,87,0
108.11812,108.20268,75,88,0
108.20636,108.29092,63,88,0
108.29459,108.37915,75,89,0
108.38283,108.467384,63,90,0
108.47106,108.55562,75,90,0
108.559296,108.64386,63,91,0
108.64753,108.73209,75,92,0
108.73577,108.82033,63,92,0
108.824005,108.90856,75,93,0
108.91224,108.996796,63,94,0
109.00047,109.08503,75,94,0
109.08871,109.17327,63,95,0
109.17694,109.261505,75,95,0
109.26518,109.34974,63,96,0
109.35342,109.43797,75,97,0
109.44165,109.52621,63,97,0
109.529884,109.61444,75,98,0
109.61812,109.70268,63,99,0
109.70635,109.79092,75,99,0
109.79459,110.14385,75,100,0
109.79459,110.14385,63,100,0
110.324005,110.496796,75,104,0
110.50047,110.67326,74,105,0
110.67694,110.84974,75,106,0
110.85342,111.02621,80,108,0
110.85342,111.02621,84,108,0
111.029884,111.202675,80,109,0
111.029884,111.202675,84,109,0
111.20635,111.55562,80,120,0
111.20635,111.64385,84,120,0
111.64753,111.73209,82,120,0
111.73576,111.82033,80,120,0
111.824005,111.90856,79,120,0
111.91224,111.996796,77,120,0
112.00047,112.08503,75,120,0
112.08871,112.17326,74,120,0
112.17694,112.261505,72,120,0
112.265175,112.34974,71,120,0
112.35342,112.43797,70,120,0
112.44165,112.52621,69,120,0
112.529884,112.61444,68,120,0
112.61812,112.728836,67,120,0
112.73241,112.84312,68,120,0
112.84669,112.957405,70,120,0
112.960976,113.07169,68,120,0
113.075264,113.185974,67,120,0
113.189545,113.30026,65,120,0
113.30383,113.41455,63,120,0
113.41812,113.52883,62,120,0
113.5324,113.64312,60,120,0
113.64669,113.7574,58,120,0
113.76098,113.87169,56,120,0
113.87526,113.98598,55,120,0
114.075264,114.1574,53,120,0
114.16097,114.24312,56,120,0
114.24669,114.328835,60,120,0
114.332405,114.67169,65,120,0
114.76098,114.84312,53,120,0
114.84669,114.92883,56,120,0
114.9324,115.01455,58,120,0
115.01812,115.35741,62,120,0
115.36098,115.443115,74,120,0
115.446686,115.52883,86,120,0
115.5324,115.61455,74,120,0
115.61812,115.700264,86,120,0
115.703835,115.78597,74,120,0
115.78954,115.87169,86,120,0
115.87526,115.957405,74,120,0
115.960976,116.04312,86,120,0
116.04669,116.12883,74,120,0
116.1324,116.21455,86,120,0
116.21812,116.30026,74,120,0
116.30383,116.38597,86,120,0
116.38955,116.47169,74,120,0
116.47526,116.5574,86,120,0
116.560974,116.64312,74,120,0
116.64669,116.72883,86,120,0
116.73241,116.814545,75,120,0
116.818115,116.90026,87,120,0
116.90383,116.98598,75,120,0
116.98955,117.071686,87,120,0
117.07526,117.1574,75,120,0
117.16097,117.24312,87,120,0
117.24669,117.328835,75,120,0
117.332405,117.41454,87,120,0
117.41811,117.50026,75,120,0
117.50383,117.585976,87,120,0
117.58955,117.67169,75,120,0
117.67526,117.7574,87,120,0
117.76097,117.84312,76,120,0
117.84669,117.92883,88,120,0
117.9324,118.01454,76,120,0
118.01812,118.10026,88,120,0
118.189545,118.27169,77,120,0
118.27526,118.3574,80,120,0
118.36098,118.443115,84,120,0
118.446686,118.78597,89,120,0
118.87526,118.957405,74,120,0
118.960976,119.04311,77,120,0
119.046684,119.12883,80,120,0
119.1324,119.47169,86,120,0
119.47526,119.814545,87,120,0
119.47526,119.814545,82,120,0
119.47526,119.814545,79,120,0
119.47526,119.814545,75,120,0
119.818115,119.98597,82,120,0
119.98955,120.1574,82,120,0
120.16097,120.50026,82,120,0
120.50383,120.671684,82,120,0
120.675255,120.84312,82,120,0
120.84669,121.185974,82,120,0
121.189545,121.52883,62,120,0
121.189545,121.52883,56,120,0
121.189545,121.52883,53,120,0
121.87526,122.21455,62,80,0
121.87526,122.21455,56,80,0
121.87526,122.21455,53,80,0
122.21812,122.5574,63,80,0
122.21812,122.5574,55,80,0
122.21812,122.5574,51,80,0
122.560974,122.90026,65,80,0
122.560974,122.90026,63,80,0
122.560974,122.90026,60,80,0
122.90383,123.24312,67,80,0
122.90383,123.24312,63,80,0
122.90383,123.24312,58,80,0
123.24669,123.58597,65,80,0
123.24669,123.58597,56,80,0
123.58955,123.928825,63,80,0
123.58955,123.928825,55,80,0
123.9324,124.01454,82,120,0
124.01811,124.10026,84,120,0
124.10383,124.185974,82,120,0
124.189545,124.27168,81,120,0
124.27525,124.61454,82,120,0
124.61811,124.70026,82,120,0
124.70383,124.78597,84,120,0
124.78954,124.87169,82,120,0
124.87526,124.9574,81,120,0
124.96097,125.300255,82,120,0
125.303825,125.64311,62,120,0
125.303825,125.64311,56,120,0
125.303825,125.64311,53,120,0
125.98954,126.671684,51,120,0
125.98954,126.671684,54,120,0
125.98954,126.671684,57,120,0
125.98954,126.671684,63,120,0
126.675255,127.01454,65,80,0
126.675255,127.01454,63,80,0
126.675255,127.01454,60,80,0
127.01811,127.3574,67,80,0
127.01811,127.3574,63,80,0
127.01811,127.3574,58,80,0
127.36097,127.70026,65,80,0
127.36097,127.70026,62,80,0
127.36097,127.70026,56,80,0
127.70383,128.03369,63,80,0
127.70383,128.03369,55,80,0
128.03716,128.20035,68,80,0
128.03716,128.20035,62,80,0
128.20383,128.36702,67,80,0
128.20383,128.36702,63,80,0
128.70383,128.86702,74,80,0
128.70383,128.86702,68,80,0
128.8705,129.03369,75,80,0
128.8705,129.03369,67,80,0
129.3705,129.53369,80,80,0
129.3705,129.53369,74,80,0
129.53716,129.70035,75,80,0
129.53716,129.70035,79,80,0
130.03716,130.20035,80,80,0
130.03716,130.20035,86,80,0
130.20383,130.36702,79,80,0
130.20383,130.36702,87,80,0
130.70383,131.03369,63,80,0
130.70383,131.03369,58,80,0
130.70383,131.03369,55,80,0
133.53716,133.70035,63,80,0
133.70383,133.86702,62,80,0
133.87048,134.03368,63,80,0
134.03716,134.20035,70,80,0
134.20383,134.36702,70,80,0
134.37048,134.53368,61,80,0
134.53716,134.70035,62,80,0
134.70383,134.86702,70,80,0
134.87048,135.03368,70,80,0
136.20381,136.36702,65,80,0
136.37048,136.53368,64,80,0
136.53716,136.70035,65,80,0
136.70381,136.86702,70,80,0
136.87048,137.03368,70,80,0
137.03716,137.20035,63,80,0
137.20381,137.367,64,80,0
137.37048,137.53368,70,80,0
137.53716,137.70035,70,80,0
137.70381,137.867,64,80,0
137.87048,138.03368,65,80,0
138.03716,138.20035,73,80,0
138.20381,138.367,73,80,0
138.37048,138.53368,66,80,0
138.53716,138.70035,67,80,0
138.70381,138.867,73,80,0
138.87048,139.03368,73,80,0
139.03716,139.20035,72,80,0
139.20381,139.367,70,80,0
139.37048,139.53368,69,80,0
139.53716,139.70035,70,80,0
139.70381,139.867,67,80,0
139.87048,140.03368,68,81,0
140.03716,140.20035,77,83,0
140.20381,140.367,77,85,0
140.37048,140.53368,71,87,0
140.53714,140.70035,72,89,0
140.70381,140.867,80,91,0
140.87048,141.03368,80,93,0
141.03714,141.20035,76,95,0
141.20381,141.367,77,97,0
141.37048,141.53368,83,99,0
141.53714,141.70035,83,101,0
141.70381,141.867,79,103,0
141.87048,142.03368,80,105,0
142.03714,142.20035,86,107,0
142.20381,142.367,86,109,0
142.37048,142.53368,85,120,0
142.53714,142.70033,86,120,0
142.70381,142.867,89,120,0
142.87048,143.03368,89,120,0
143.03714,143.70033,89,120,0
143.87048,144.03368,68,120,0
144.03714,144.20033,68,120,0
144.20381,144.367,68,120,0
144.37048,145.03368,59,120,0
145.22464,145.40823,44,120,0
145.41214,145.59573,44,120,0
145.59964,145.78323,44,120,0
145.78714,145.99696,35,120,0
146.00143,146.21124,44,120,0
146.21571,146.42554,44,120,0
146.43,146.63982,44,120,0
146.64429,148.99696,35,120,0
149.00142,149.21124,60,80,0
149.21571,149.3789,59,80,0
149.38237,149.54558,60,80,0
149.54904,149.71223,65,80,0
149.71571,149.8789,65,80,0
149.88237,150.21223,63,80,0
150.38237,150.54558,60,80,0
150.54904,150.71223,59,80,0
150.71571,150.8789,60,80,0
150.88237,151.04556,68,80,0
151.04904,151.21223,68,80,0
151.21571,151.54556,67,80,0
151.71571,151.8789,60,80,0
151.88237,152.04556,59,80,0
152.04904,152.21223,60,80,0
152.21571,152.3789,72,80,0
152.38237,152.54556,72,80,0
152.54904,152.71223,72,80,0
152.71571,152.79556,74,80,0
152.75737,152.83723,72,80,0
152.79904,152.8789,71,80,0
152.84071,152.8789,72,80,0
152.88237,153.04556,75,80,0
153.04904,153.21223,74,80,0
153.21571,153.3993,77,80,0
153.40321,153.5868,75,80,0
153.59071,153.7743,74,80,0
153.77821,153.9618,72,80,0
153.96571,154.3368,71,80,0
154.50737,154.67056,55,80,0
154.67404,154.83723,54,80,0
154.84071,155.0039,55,80,0
155.00737,155.17056,60,80,0
155.17404,155.33723,60,80,0
155.34071,155.67056,59,80,0
155.8407,156.0039,55,80,0
156.00737,156.17056,54,80,0
156.17404,156.33723,55,80,0
156.3407,156.5039,63,80,0
156.50737,156.67056,63,80,0
156.67404,157.0039,62,80,0
157.17404,157.33723,55,80,0
157.3407,157.50389,59,80,0
157.50737,157.67056,62,80,0
157.67404,157.83723,65,80,0
157.8407,158.00389,68,80,0
158.00737,158.17056,71,80,0
158.17404,158.33723,74,80,0
158.3407,158.50389,77,80,0
158.50737,158.67056,80,80,0
158.67404,158.83723,79,80,0
158.8407,159.00389,77,80,0
159.00737,159.17056,75,80,0
159.17404,159.33723,74,80,0
159.3407,159.67056,72,80,0
159.8407,160.00389,72,80,0
160.00737,160.17056,71,80,0
160.17404,160.33723,72,80,0
160.3407,160.50389,84,80,0
160.50737,160.67056,84,80,0
160.67403,161.00389,84,80,0
161.17403,161.33723,89,80,0
161.3407,161.50389,87,80,0
161.50737,161.67056,86,80,0
161.67403,161.83723,84,80,0
161.8407,162.00389,83,80,0
162.00737,162.17056,86,80,0
162.17403,162.33722,84,80,0
162.50737,162.67056,72,80,0
162.67403,162.75389,71,80,0
162.74,162.81987,72,80,0
162.80597,162.88583,73,80,0
162.87195,162.95181,74,80,0
162.93445,163.01431,75,80,0
163.00737,163.08722,76,80,0
163.0907,163.17056,77,80,0
163.17403,163.25389,78,80,0
163.25737,163.33722,79,80,0
163.3407,163.42056,80,80,0
163.42403,163.50389,81,80,0
163.50737,163.58722,82,80,0
163.5907,163.67056,83,80,0
163.67403,163.83722,84,80,0
163.8407,164.00389,89,80,0
164.00737,164.17056,87,80,0
164.17403,164.33722,86,80,0
164.3407,164.50389,84,80,0
164.50737,164.67056,83,80,0
164.67403,164.75389,84,80,0
164.75737,164.83722,86,80,0
164.8407,164.92056,84,81,0
164.92403,165.00389,83,82,0
165.00737,165.08722,84,83,0
165.0907,165.17056,87,83,0
165.17403,165.25389,86,84,0
165.25737,165.33722,84,85,0
165.3407,165.42056,83,86,0
165.42403,165.50389,84,86,0
165.50737,165.58722,83,87,0
165.5907,165.67056,80,88,0
165.67403,165.75389,79,89,0
165.75735,165.83722,77,89,0
165.8407,165.92056,75,90,0
165.92403,166.00389,74,91,0
166.00735,166.08722,72,92,0
166.0907,166.17056,74,93,0
166.17403,166.25389,72,93,0
166.25735,166.33722,71,94,0
166.3407,166.42056,72,95,0
166.42403,166.50389,75,96,0
166.50735,166.58722,74,96,0
166.5907,166.67056,72,97,0
166.67403,166.75389,71,98,0
166.75735,166.83722,72,99,0
166.8407,166.92056,71,99,0
166.92403,167.00389,68,100,0
167.00735,167.08722,67,101,0
167.0907,167.17056,65,102,0
167.17403,167.25389,63,103,0
167.25735,167.33722,62,103,0
167.3407,167.42055,60,104,0
167.42403,167.50389,62,105,0
167.50735,167.58722,60,106,0
167.5907,167.67055,59,106,0
167.67403,167.75389,60,107,0
167.75735,167.83722,63,108,0
167.8407,167.92055,62,109,0
167.92403,168.00389,60,109,0
168.00735,168.1393,59,110,0
168.0907,168.22264,67,110,0
168.17403,168.29903,62,110,0
168.25735,168.4136,59,110,0
168.3407,168.48305,55,110,0
168.42403,168.5768,67,110,0
168.50735,168.6393,63,110,0
168.5907,168.73831,60,110,0
168.67403,168.82045,55,110,0
168.75974,168.9026,67,110,0
168.84546,168.98474,62,110,0
168.93117,169.07204,59,110,0
169.01688,169.16394,55,110,0
169.10512,169.2485,67,110,0
169.19336,169.34409,63,110,0
169.28159,169.42842,60,110,0
169.36983,169.52998,55,110,0
169.46358,169.62764,67,110,0
169.55733,169.71358,62,110,0
169.65108,169.81178,59,110,0
169.74483,169.93678,55,110,0
169.85196,170.04245,67,110,0
169.9591,170.16223,63,110,0
170.0841,170.2039,60,110,0
170.2091,172.9552,55,120,0
170.2091,172.9552,59,120,0
170.2091,172.9552,62,120,0
170.2091,172.9552,67,120,0
173.1466,173.3302,67,80,0
173.3341,173.5177,69,80,0
173.5216,173.7052,71,80,0
173.7091,173.8927,72,80,0
173.8966,174.0802,74,80,0
173.7091,174.4552,67,80,0
173.7091,174.4552,64,80,0
174.0841,174.4552,76,80,0
174.4591,174.8302,74,80,0
174.4591,174.8302,67,80,0
174.4591,174.8302,62,80,0
174.8341,175.2052,72,80,0
174.8341,175.2052,67,80,0
174.8341,175.2052,64,80,0
175.2091,175.9552,77,80,0
175.2091,175.9552,71,80,0
175.2091,175.9552,67,80,0
175.2091,175.9552,65,80,0
176.1466,176.3302,67,80,0
176.3341,176.5177,69,80,0
176.5216,176.7052,71,80,0
176.7091,176.8927,72,80,0
176.8966,177.0802,74,80,0
176.7091,177.4552,67,80,0
176.7091,177.4552,64,80,0
177.0841,177.4552,76,80,0
177.4591,177.8302,74,80,0
177.4591,177.8302,69,80,0
177.4591,177.8302,62,80,0
177.8341,178.2052,72,80,0
177.8341,178.2052,69,80,0
177.8341,178.2052,62,80,0
178.2091,178.9552,67,80,0
178.2091,178.9552,62,80,0
178.2091,178.9552,59,80,0
179.1466,179.3302,67,80,0
179.3341,179.5177,69,80,0
179.5216,179.7052,71,80,0
179.7091,179.8927,72,80,0
179.8966,180.0802,74,80,0
179.7091,180.4552,67,80,0
179.7091,180.4552,64,80,0
180.0841,180.4552,76,80,0
180.4591,180.8302,74,80,0
180.4591,180.8302,67,80,0
180.4591,180.8302,62,80,0
180.8341,181.2052,72,80,0
180.8341,181.2052,67,80,0
180.8341,181.2052,64,80,0
181.2091,181.34583,69,110,0
181.25598,181.34583,72,110,0
181.30286,181.34583,77,110,0
181.34973,182.1427,81,110,0
182.1466,182.3302,81,80,0
182.3341,182.5177,79,80,0
182.5216,182.7052,77,80,0
182.7091,182.8927,76,80,0
182.8966,183.0802,74,80,0
183.0841,183.2677,72,80,0
183.2716,183.4552,71,80,0
183.4591,183.8302,69,80,0
183.4591,184.2052,65,80,0
183.4591,184.2052,62,80,0
183.8341,184.2052,67,80,0
184.2091,184.93259,67,80,0
184.2091,184.93259,64,80,0
184.2091,184.93259,60,80,0
185.1182,185.29623,79,80,0
185.30002,185.47804,77,80,0
185.48184,185.65987,76,80,0
185.66365,185.84169,76,80,0
185.84547,186.0235,74,80,0
186.02728,186.20532,72,80,0
186.2091,186.38713,71,80,0
186.39093,186.75078,68,80,0
186.39093,187.11441,65,80,0
186.39093,187.11441,62,80,0
186.75456,187.11441,67,80,0
187.1182,187.84167,67,80,0
187.1182,187.84167,63,80,0
187.1182,187.84167,60,80,0
188.02728,188.20532,79,80,0
188.02728,188.20532,67,80,0
188.2091,188.3819,77,80,0
188.2091,188.3819,65,80,0
188.38557,188.55836,75,80,0
188.38557,188.55836,63,80,0
188.56204,188.73485,75,80,0
188.56204,188.73485,63,80,0
188.73851,188.91132,74,80,0
188.73851,188.91132,62,80,0
188.915,189.08778,72,80,0
188.915,189.08778,60,80,0
189.09146,189.26425,71,80,0
189.09146,189.26425,59,80,0
189.26793,189.44072,68,80,0
189.26793,189.44072,56,80,0
189.4444,189.61719,67,80,0
189.4444,189.61719,55,80,0
189.62086,189.79367,69,80,0
189.62086,189.79367,57,80,0
189.79733,189.97014,71,80,0
189.79733,189.97014,59,80,0
189.97382,190.32307,72,80,0
189.97382,190.32307,60,80,0
190.50322,190.67601,72,85,0
190.67969,190.8525,71,87,0
190.85616,191.02896,72,89,0
191.03264,191.20543,74,91,0
191.03264,191.20543,77,91,0
191.2091,191.3819,77,93,0
191.2091,191.3819,74,93,0
191.38557,191.73483,72,95,0
191.38557,191.73483,75,95,0
191.915,192.08778,72,101,0
192.09146,192.26425,71,103,0
192.26793,192.44072,72,105,0
192.4444,192.61719,77,107,0
192.4444,192.61719,80,107,0
192.62086,192.79366,77,109,0
192.62086,192.79366,80,109,0
192.79733,193.1466,79,120,0
192.79733,193.1466,75,120,0
193.32675,193.49954,84,120,0
193.50322,193.67601,83,120,0
193.67969,193.85248,84,120,0
193.85616,194.02896,86,120,0
193.85616,194.02896,89,120,0
194.03264,194.20543,86,120,0
194.03264,194.20543,89,120,0
194.2091,194.55836,86,120,0
194.2091,194.6466,89,120,0
194.65028,194.73483,87,120,0
194.73851,194.82307,86,120,0
194.82675,194.9113,84,120,0
194.91498,194.99954,83,120,0
195.00322,195.08778,84,120,0
195.09146,195.17601,86,120,0
195.17969,195.26425,84,120,0
195.26793,195.35248,83,120,0
195.35616,195.44072,80,120,0
195.4444,195.52896,79,120,0
195.53264,195.61719,77,120,0
195.62086,195.73158,75,120,0
195.73515,195.84587,77,120,0
195.84944,195.96016,79,120,0
195.96373,196.07443,77,120,0
196.078,196.18872,75,120,0
196.19229,196.30301,74,120,0
196.30658,196.4173,72,120,0
196.42087,196.53159,70,120,0
196.53516,196.64586,68,120,0
196.64944,196.76015,67,120,0
196.76372,196.87444,65,120,0
196.878,196.98872,63,120,0
197.078,197.16016,62,120,0
197.16373,197.24586,65,120,0
197.24944,197.33157,68,120,0
197.33514,197.67444,74,120,0
197.76372,197.84587,59,120,0
197.84944,197.93158,62,120,0
197.93515,198.01729,65,120,0
198.02086,198.36015,71,120,0
198.36372,198.44586,71,120,0
198.44943,198.53159,83,120,0
198.53516,198.6173,71,120,0
198.62086,198.703,83,120,0
198.70657,198.78873,71,120,0
198.7923,198.87444,83,120,0
198.878,198.96014,71,120,0
198.96373,199.04587,83,120,0
199.04944,199.13158,71,120,0
199.13515,199.2173,83,120,0
199.22087,199.30301,71,120,0
199.30658,199.38872,83,120,0
199.39229,199.47444,71,120,0
199.47801,199.56015,83,120,0
199.56372,199.64586,71,120,0
199.64943,199.73158,83,120,0
199.73515,199.81729,72,120,0
199.82086,199.90302,84,120,0
199.90659,199.98872,72,120,0
199.9923,200.07443,84,120,0
200.078,200.16016,72,120,0
200.16373,200.24586,84,120,0
200.24944,200.33157,72,120,0
200.33514,200.4173,84,120,0
200.42087,200.503,72,120,0
200.50658,200.58871,84,120,0
200.5923,200.67444,72,120,0
200.67801,200.76015,84,120,0
200.76372,200.84587,72,120,0
200.84944,200.93158,84,120,0
200.93515,201.01729,72,120,0
201.02086,201.10301,84,120,0
201.19229,201.27443,77,120,0
201.278,201.36015,80,120,0
201.36372,201.44586,86,120,0
201.44943,201.78873,89,120,0
201.878,201.96014,74,120,0
201.96371,202.04587,77,120,0
202.04944,202.13158,83,120,0
202.13515,202.47444,86,120,0
202.47801,202.81729,84,120,0
202.47801,202.81729,79,120,0
202.47801,202.81729,75,120,0
202.47801,202.81729,72,120,0
202.82086,202.98872,79,120,0
202.9923,203.16016,79,120,0
203.16373,203.503,79,120,0
203.50658,203.67444,79,120,0
203.67801,203.84586,79,120,0
203.84944,204.18872,79,120,0
204.19229,204.53157,59,120,0
204.19229,204.53157,53,120,0
204.19229,204.53157,50,120,0
204.878,205.21729,59,80,0
204.878,205.21729,53,80,0
204.878,205.21729,50,80,0
205.22086,205.56015,60,80,0
205.22086,205.56015,51,80,0
205.22086,205.56015,48,80,0
205.56372,205.903,62,80,0
205.56372,205.903,60,80,0
205.56372,205.903,57,80,0
205.90657,206.24586,63,80,0
205.90657,206.24586,60,80,0
205.90657,206.24586,55,80,0
206.24944,206.58871,62,80,0
206.24944,206.58871,59,80,0
206.24944,206.58871,53,80,0
206.59229,206.93158,60,80,0
206.59229,206.93158,55,80,0
206.59229,206.93158,51,80,0
206.93515,207.01729,79,120,0
207.02086,207.10301,80,120,0
207.10658,207.18872,79,120,0
207.19229,207.27443,78,120,0
207.278,207.6173,79,120,0
207.62086,207.703,79,120,0
207.70657,207.78871,80,120,0
207.7923,207.87444,79,120,0
207.878,207.96014,78,120,0
207.96371,208.30301,79,120,0
208.30658,208.64586,59,120,0
208.30658,208.64586,53,120,0
208.30658,208.64586,50,120,0
208.9923,209.67444,48,120,0
208.9923,209.67444,51,120,0
208.9923,209.67444,54,120,0
208.9923,209.67444,60,120,0
209.67801,210.01729,62,80,0
209.67801,210.01729,60,80,0
209.67801,210.01729,57,80,0
210.02086,210.36015,63,80,0
210.02086,210.36015,60,80,0
210.02086,210.36015,55,80,0
210.36372,210.703,62,80,0
210.36372,210.703,59,80,0
210.36372,210.703,53,80,0
210.70657,211.03644,60,80,0
210.70657,211.03644,55,80,0
210.70657,211.03644,51,80,0
211.0399,211.2031,65,80,0
211.0399,211.2031,59,80,0
211.20657,211.36977,63,80,0
211.20657,211.36977,60,80,0
211.70657,211.86977,71,80,0
211.70657,211.86977,65,80,0
211.87325,212.03644,72,80,0
211.87325,212.03644,63,80,0
212.37325,212.53644,77,80,0
212.37325,212.53644,71,80,0
212.5399,212.7031,75,80,0
212.5399,212.7031,72,80,0
213.0399,213.2031,83,80,0
213.0399,213.2031,77,80,0
213.20657,213.36977,84,80,0
213.20657,213.36977,75,80,0
213.70657,213.86977,66,83,0
213.70657,213.86977,60,83,0
213.87325,214.03644,65,85,0
213.87325,214.03644,61,85,0
214.37323,214.53644,73,91,0
214.37323,214.53644,65,91,0
214.5399,214.7031,72,93,0
214.5399,214.7031,66,93,0
215.0399,215.2031,77,99,0
215.0399,215.2031,73,99,0
215.20657,215.36977,78,101,0
215.20657,215.36977,72,101,0
215.70657,215.86977,85,107,0
215.70657,215.86977,77,107,0
215.87323,216.03642,84,109,0
215.87323,216.03642,78,109,0
216.0399,217.36977,87,120,0
216.0399,217.36977,78,120,0
217.37323,217.7031,85,100,0
217.37323,218.03642,75,100,0
217.70657,218.03642,84,94,0
218.0399,218.36977,82,87,0
218.37323,218.7031,80,81,0
218.70657,218.78642,77,74,0
218.7899,218.86977,78,72,0
218.87323,219.03642,80,71,0
218.0399,220.74211,72,87,0
219.0399,220.74211,78,80,0
220.92226,221.09505,56,80,0
221.09872,221.27151,58,80,0
221.27519,221.44798,60,80,0
221.45166,221.63525,61,80,0
221.63916,221.82275,63,80,0
221.45166,222.19775,56,80,0
221.45166,222.19775,53,80,0
221.82666,222.19775,65,80,0
222.20166,222.57275,63,80,0
222.20166,222.57275,56,80,0
222.57666,222.94775,61,80,0
222.57666,222.94775,56,80,0
222.95166,223.9475,66,80,0
222.95166,223.9475,60,80,0
222.95166,223.9475,56,80,0
222.95166,223.9475,54,80,0
223.95166,224.14749,56,80,0
224.15166,224.34749,58,80,0
224.35167,224.5475,60,80,0
224.55167,224.76149,61,80,0
224.76595,224.97577,63,80,0
224.55167,225.40434,56,80,0
224.55167,225.40434,53,80,0
224.98024,225.40434,65,80,0
225.4088,225.83292,63,80,0
225.4088,225.83292,58,80,0
225.4088,225.83292,51,80,0
225.83737,226.26147,61,80,0
225.83737,226.26147,58,80,0
225.83737,226.26147,51,80,0
226.26595,227.18422,51,80,0
226.26595,227.18422,56,80,0
226.26595,227.18422,48,80,0
227.41978,227.64575,56,80,0
227.65056,227.87653,58,80,0
227.88133,228.10728,60,80,0
228.11209,228.35689,61,80,0
228.36209,228.60689,63,80,0
228.11209,229.10689,56,80,0
228.11209,229.10689,53,80,0
228.61209,229.10689,65,80,0
229.11209,229.60689,63,80,0
229.11209,229.60689,56,80,0
229.61209,230.10689,61,80,0
229.61209,230.10689,56,80,0
230.11209,231.22928,66,80,0
230.11209,231.60428,60,80,0
231.23709,231.60428,63,80,0
230.11209,233.10428,56,80,0
230.11209,233.10428,54,80,0
231.61209,233.10428,60,80,0
233.76834,233.94803,54,80,0
233.95584,234.13553,60,80,0
234.04959,235.35428,66,80,0
235.36209,236.10428,63,80,0
233.86209,238.19803,57,80,0
236.11209,238.19803,60,80,0
238.51834,238.5982,55,120,0
238.56001,238.63988,60,120,0
238.60168,238.68155,63,120,0
238.64334,238.80655,67,120,0
238.81001,238.9732,63,120,0
238.97668,239.13988,60,120,0
239.14334,239.30655,55,120,0
239.31001,239.4732,51,120,0
239.47668,239.63988,48,120,0
239.64334,239.80653,47,120,0
239.81001,239.9732,50,120,0
239.97668,240.13988,48,120,0
240.81001,240.9732,60,80,0
240.97668,241.13988,62,80,0
241.14334,241.30653,64,80,0
241.31001,241.4732,65,80,0
241.47668,241.63988,67,80,0
241.64334,241.80653,68,80,0
241.81001,241.9732,84,80,0
241.97668,242.13988,83,80,0
242.14334,242.30653,84,80,0
242.31001,242.4732,89,80,0
242.47668,242.63988,89,80,0
242.64334,242.9732,88,80,0
243.47667,243.63988,60,80,0
243.64334,243.80653,62,80,0
243.81001,243.9732,64,80,0
243.97667,244.13988,65,80,0
244.14334,244.30653,67,80,0
244.31001,244.4732,68,80,0
244.47667,244.63988,84,80,0
244.64334,244.80653,83,80,0
244.81001,244.9732,84,80,0
244.97667,245.13986,89,80,0
245.14334,245.30653,89,80,0
245.31001,245.63986,88,80,0
245.81001,245.9732,72,80,0
245.97667,246.13986,71,80,0
246.14334,246.30653,72,80,0
246.31001,246.4732,77,80,0
246.47667,246.63986,77,79,0
246.64334,246.9926,76,79,0
247.17274,247.34555,60,77,0
247.34923,247.52202,59,77,0
247.5257,247.69849,60,76,0
247.70216,247.87495,65,76,0
247.87863,248.05142,65,75,0
248.0551,248.4262,64,75,0
248.63011,248.82594,36,73,0
248.83011,249.25421,36,73,0
249.50868,249.87846,36,71,0
249.88368,250.87846,36,71,0
252.25868,252.50346,60,1,0
0.1666665,0.32986078,48,80,0
0.333333,0.49652728,47,80,0
0.4999995,0.66319376,48,80,0
0.666666,0.82986027,53,80,0
0.8333325,0.9965268,53,80,0
0.999999,1.3298597,51,80,0
1.4999985,1.6631927,48,80,0
1.666665,1.8298593,47,80,0
1.8333315,1.9965258,48,80,0
1.999998,2.1631923,56,80,0
2.1666646,2.3298588,56,80,0
2.333331,2.6631918,55,80,0
3.666663,5.079423,66,80,0
3.666663,5.079423,60,80,0
3.666663,5.079423,56,80,0
5.083329,5.454423,67,80,0
5.083329,5.454423,62,80,0
5.083329,5.454423,55,80,0
5.645829,5.829423,43,80,0
5.833329,5.9965234,42,80,0
5.9999957,6.16319,43,80,0
6.166662,6.3298564,48,80,0
6.3333287,6.496523,48,80,0
6.499995,6.829856,47,80,0
6.9999943,7.163189,43,80,0
7.166661,7.3298554,42,80,0
7.3333273,7.496522,43,80,0
7.499994,7.6631885,51,80,0
7.6666603,7.829855,51,80,0
7.833327,8.163188,50,80,0
8.333326,8.496521,43,80,0
8.499993,8.663187,47,80,0
8.666659,8.829854,50,80,0
8.833326,8.99652,53,80,0
8.999992,9.163187,56,80,0
9.166659,9.329853,59,80,0
9.333325,9.49652,62,80,0
9.499992,9.663186,65,80,0
9.666658,9.829853,68,80,0
9.833325,10.016919,67,80,0
10.020825,10.204419,65,80,0
10.208325,10.391919,63,80,0
10.395825,10.579419,62,80,0
10.583325,10.766919,60,80,0
10.770825,10.954419,63,80,0
10.770825,10.954419,67,80,0
10.958325,11.121519,63,80,0
10.958325,11.121519,67,80,0
11.124991,11.288186,63,80,0
11.124991,11.288186,67,80,0
11.291658,11.454852,60,80,0
11.458324,11.621519,64,80,0
11.458324,11.621519,67,80,0
11.458324,11.621519,70,80,0
11.624991,11.788185,64,80,0
11.624991,11.788185,70,80,0
11.624991,11.788185,67,80,0
11.791657,11.954852,64,80,0
11.791657,11.954852,67,80,0
11.791657,11.954852,70,80,0
11.958324,12.121518,60,80,0
12.12499,12.288185,65,80,0
12.12499,12.288185,68,80,0
12.291657,12.454851,65,80,0
12.291657,12.454851,68,80,0
12.4583235,12.621518,65,80,0
12.4583235,12.621518,68,80,0
12.62499,12.788184,60,80,0
12.7916565,12.954851,65,80,0
12.7916565,12.954851,68,80,0
12.7916565,12.954851,71,80,0
12.958323,13.121517,65,80,0
12.958323,13.121517,68,80,0
12.958323,13.121517,71,80,0
13.1249895,13.288184,65,80,0
13.1249895,13.288184,68,80,0
13.1249895,13.288184,71,80,0
13.291656,13.45485,60,80,0
13.458323,13.621517,63,80,0
13.458323,13.621517,67,80,0
13.624989,13.788183,63,80,0
13.624989,13.788183,67,80,0
13.791656,13.95485,63,80,0
13.791656,13.95485,67,80,0
13.958322,14.121516,60,80,0
14.124989,14.288183,64,80,0
14.124989,14.288183,67,80,0
14.124989,14.288183,70,80,0
14.291655,14.454849,64,80,0
14.291655,14.454849,70,80,0
14.291655,14.454849,67,80,0
14.458322,14.621516,64,80,0
14.458322,14.621516,67,80,0
14.458322,14.621516,70,80,0
14.624988,14.788182,60,80,0
14.791655,14.954849,65,80,0
14.791655,14.954849,68,80,0
14.958321,15.121515,65,80,0
14.958321,15.121515,68,80,0
15.124988,15.288181,65,80,0
15.124988,15.288181,68,80,0
15.291654,15.454848,60,80,0
15.458321,15.621514,65,80,0
15.458321,15.621514,68,80,0
15.458321,15.621514,71,80,0
15.624987,15.788181,65,80,0
15.624987,15.788181,68,80,0
15.624987,15.788181,71,80,0
15.791654,15.954847,65,80,0
15.791654,15.954847,68,80,0
15.791654,15.954847,71,80,0
15.95832,16.288181,72,80,0
15.95832,16.288181,67,80,0
15.95832,16.288181,63,80,0
15.95832,16.288181,60,80,0
16.458319,16.621513,66,83,0
16.624987,16.954847,67,84,0
17.124985,17.28818,59,87,0
17.291653,17.621513,60,88,0
17.79165,17.954845,54,91,0
17.958319,18.28818,55,92,0
18.458317,18.621511,47,95,0
18.624985,18.954845,48,96,0
19.124983,19.288177,42,99,0
19.29165,19.621511,43,110,0
19.624983,19.954844,48,110,0
19.624983,19.954844,36,110,0
19.958317,20.297602,43,110,0
19.958317,20.297602,31,110,0
20.301172,20.650438,48,110,0
20.301172,20.650438,36,110,0
20.654114,21.003378,43,110,0
20.654114,21.003378,31,110,0
21.007055,21.378149,48,110,0
21.007055,21.378149,36,110,0
21.382055,23.628149,31,120,0
21.382055,23.628149,35,120,0
21.382055,23.628149,38,120,0
21.382055,23.628149,43,120,0
24.382055,25.128149,51,80,0
24.382055,25.128149,39,80,0
25.132055,25.503149,56,80,0
25.132055,25.503149,44,80,0
25.507055,25.878149,55,80,0
25.507055,25.878149,43,80,0
25.882055,26.734734,53,80,0
25.882055,26.734734,46,80,0
25.882055,26.734734,41,80,0
27.489197,28.23529,51,80,0
27.489197,28.23529,39,80,0
28.239197,28.61029,44,80,0
28.239197,28.61029,32,80,0
28.614197,28.98529,45,80,0
28.614197,28.98529,33,80,0
28.989197,29.841875,46,80,0
28.989197,29.841875,34,80,0
30.596338,31.342432,51,80,0
30.596338,31.342432,39,80,0
31.346338,31.717432,56,80,0
31.346338,31.717432,44,80,0
31.721338,32.092434,55,80,0
31.721338,32.092434,43,80,0
32.09634,32.467434,44,100,0
32.143215,32.467434,48,100,0
32.19009,32.467434,51,100,0
32.236965,32.467434,56,100,0
34.53384,34.717434,34,80,0
34.72134,34.904934,36,80,0
34.90884,35.092434,38,80,0
35.09634,35.279934,39,80,0
35.28384,35.467434,41,80,0
35.47134,35.842434,43,80,0
35.84634,36.217434,41,80,0
33.59634,36.592434,46,80,0
36.22134,36.592434,39,80,0
37.50543,37.68346,34,80,0
37.68725,37.865276,36,80,0
37.869064,38.047096,38,80,0
38.050884,38.228912,39,80,0
38.2327,38.410732,41,80,0
38.41452,38.77437,43,80,0
38.778156,39.138004,41,80,0
36.59634,39.50164,46,80,0
39.141792,39.50164,39,80,0
39.50543,39.85469,53,80,0
39.50543,39.85469,48,80,0
39.50543,39.85469,43,80,0
40.211308,40.560574,56,80,0
40.211308,40.560574,53,80,0
40.211308,40.560574,46,80,0
40.91719,41.266457,55,80,0
40.91719,41.266457,51,80,0
41.4466,41.619396,51,83,0
41.623074,41.795868,50,85,0
41.799545,41.972336,51,86,0
41.976013,42.148808,56,87,0
41.976013,42.148808,48,87,0
42.152485,42.32528,56,88,0
42.152485,42.32528,48,88,0
42.328957,42.67822,55,90,0
42.328957,42.67822,46,90,0
42.858368,43.031162,51,93,0
43.034836,43.20763,50,95,0
43.211308,43.3841,51,96,0
43.38778,43.560574,56,97,0
43.38778,43.560574,60,97,0
43.564247,43.73704,56,98,0
43.564247,43.73704,60,98,0
43.74072,43.913513,58,100,0
43.74072,43.913513,55,100,0
43.91719,44.001747,51,101,0
44.005424,44.089985,63,101,0
44.09366,44.17822,51,102,0
44.181896,44.266453,63,103,0
44.27013,44.35469,51,103,0
44.358364,44.442924,63,104,0
44.4466,44.53116,51,105,0
44.534836,44.619396,63,105,0
44.62307,44.70763,51,106,0
44.711308,44.795864,63,106,0
44.79954,44.8841,51,107,0
44.887775,44.972336,63,108,0
44.976013,45.06057,51,108,0
45.064247,45.148808,63,109,0
45.152485,46.56057,62,120,0
45.152485,46.56057,58,120,0
45.152485,46.56057,56,120,0
45.152485,46.56057,53,120,0
45.152485,46.56057,51,120,0
46.564247,46.913513,63,120,0
46.564247,46.913513,58,120,0
46.564247,46.913513,55,120,0
46.564247,46.913513,51,120,0
47.97601,48.325275,44,120,0
47.97601,48.325275,32,120,0
48.50542,48.678215,44,120,0
48.50542,48.678215,32,120,0
48.681892,49.03116,46,120,0
48.681892,49.03116,34,120,0
49.211304,49.384098,46,120,0
49.211304,49.384098,34,120,0
49.559204,49.641346,68,120,0
49.644917,49.727062,70,120,0
49.730633,49.812775,72,120,0
49.816345,49.89849,70,120,0
49.90206,49.984203,68,120,0
49.987774,50.069916,67,120,0
50.07349,50.184204,65,120,0
50.187775,50.29849,63,120,0
50.30206,50.412773,62,120,0
50.416348,50.52706,60,120,0
50.530632,50.641346,58,120,0
50.644917,50.75563,56,120,0
50.759205,50.86992,55,120,0
50.87349,50.984203,56,120,0
50.987774,51.098488,58,120,0
51.10206,51.212772,56,120,0
51.216347,51.32706,55,120,0
51.33063,51.441345,53,120,0
51.444916,51.55563,51,120,0
51.559204,51.669918,50,120,0
51.67349,51.784203,48,120,0
51.787773,51.898487,46,120,0
51.90206,52.012775,44,120,0
52.016346,52.12706,43,120,0
52.13063,52.469917,44,120,0
52.13063,52.469917,32,120,0
52.644917,52.812775,44,120,0
52.644917,52.812775,32,120,0
52.816345,53.155632,46,120,0
52.816345,53.155632,34,120,0
53.33063,53.49849,46,120,0
53.33063,53.49849,34,120,0
53.50206,53.841343,51,120,0
53.50206,53.841343,46,120,0
53.50206,53.841343,43,120,0
53.50206,53.841343,39,120,0
53.844917,54.01277,64,120,0
53.844917,54.01277,67,120,0
54.016346,54.1842,64,120,0
54.016346,54.1842,67,120,0
54.187775,54.527058,65,120,0
54.187775,54.527058,68,120,0
54.53063,54.698486,67,120,0
54.53063,54.698486,64,120,0
54.702057,54.869915,67,120,0
54.702057,54.869915,64,120,0
54.873486,55.212772,65,120,0
54.873486,55.212772,68,120,0
55.216343,55.55563,46,120,0
55.216343,55.55563,34,120,0
55.902058,56.241344,47,80,0
55.902058,56.241344,35,80,0
56.244915,56.5842,48,80,0
56.244915,56.5842,36,80,0
56.587772,56.92706,45,80,0
56.587772,56.92706,33,80,0
56.93063,57.269913,46,80,0
56.93063,57.269913,34,80,0
57.273487,57.61277,46,80,0
57.273487,57.61277,34,80,0
57.616344,57.955627,51,80,0
57.616344,57.955627,39,80,0
57.9592,58.127056,64,120,0
57.9592,58.127056,67,120,0
58.130627,58.298485,64,120,0
58.130627,58.298485,67,120,0
58.302055,58.641342,65,120,0
58.302055,58.641342,68,120,0
58.644913,58.81277,64,120,0
58.644913,58.81277,67,120,0
58.81634,58.9842,64,120,0
58.81634,58.9842,67,120,0
58.98777,59.327057,65,120,0
58.98777,59.327057,68,120,0
59.330627,59.669914,46,120,0
59.330627,59.669914,34,120,0
60.016342,60.698486,35,120,0
60.016342,60.698486,39,120,0
60.016342,60.698486,42,120,0
60.016342,60.698486,47,120,0
60.702057,61.04134,45,80,0
60.702057,61.04134,33,80,0
61.044914,61.384197,46,80,0
61.044914,61.384197,34,80,0
61.38777,61.727055,46,80,0
61.38777,61.727055,34,80,0
61.730625,61.89382,39,80,0
61.897293,62.06049,51,80,0
62.397293,62.560486,39,80,0
62.56396,62.727154,51,80,0
63.063957,63.227154,39,80,0
63.230625,63.393818,51,80,0
63.730625,63.893818,39,80,0
63.897293,64.060486,51,80,0
64.39729,64.72715,39,80,0
66.23062,66.393814,48,80,0
66.397285,66.560486,47,80,0
66.56396,66.72715,48,80,0
66.73062,66.893814,53,80,0
66.897285,67.060486,53,80,0
67.06396,67.393814,51,80,0
67.56396,67.72715,48,80,0
67.73062,67.893814,47,80,0
67.897285,68.06048,48,80,0
68.06396,68.22715,56,80,0
68.23062,68.393814,56,80,0
68.397285,68.72715,55,80,0
69.73062,71.14338,66,80,0
69.73062,71.14338,60,80,0
69.73062,71.14338,56,80,0
71.147285,71.51838,67,80,0
71.147285,71.51838,62,80,0
71.147285,71.51838,55,80,0
71.709785,71.89338,43,80,0
71.897285,72.06048,42,80,0
72.06395,72.22714,43,80,0
72.23062,72.393814,48,80,0
72.397285,72.56048,48,80,0
72.56395,72.893814,47,80,0
73.06395,73.22714,43,80,0
73.23061,73.393814,42,80,0
73.397285,73.56048,43,80,0
73.56395,73.72714,51,80,0
73.73061,73.893814,51,80,0
73.897285,74.22714,50,80,0
74.397285,74.56048,43,80,0
74.56395,74.72714,47,80,0
74.73061,74.89381,50,80,0
74.897285,75.06048,53,80,0
75.06395,75.22714,56,80,0
75.23061,75.39381,59,80,0
75.39728,75.56048,62,80,0
75.56395,75.72714,65,80,0
75.73061,75.89381,68,80,0
75.89728,76.08087,67,80,0
76.08478,76.26837,65,80,0
76.27228,76.45587,63,80,0
76.45978,76.64337,62,80,0
76.64728,76.83087,60,80,0
76.83478,77.01837,63,80,0
76.83478,77.01837,67,80,0
77.02228,77.18548,63,80,0
77.02228,77.18548,67,80,0
77.18895,77.35214,63,80,0
77.18895,77.35214,67,80,0
77.35561,77.51881,60,80,0
77.52228,77.68548,64,80,0
77.52228,77.68548,67,80,0
77.52228,77.68548,70,80,0
77.68895,77.85214,64,80,0
77.68895,77.85214,70,80,0
77.68895,77.85214,67,80,0
77.85561,78.01881,64,80,0
77.85561,78.01881,67,80,0
77.85561,78.01881,70,80,0
78.02228,78.18547,60,80,0
78.18895,78.35214,65,80,0
78.18895,78.35214,68,80,0
78.35561,78.51881,65,80,0
78.35561,78.51881,68,80,0
78.52228,78.68547,65,80,0
78.52228,78.68547,68,80,0
78.68895,78.85214,60,80,0
78.85561,79.01881,65,80,0
78.85561,79.01881,68,80,0
78.85561,79.01881,71,80,0
79.02228,79.18547,65,80,0
79.02228,79.18547,68,80,0
79.02228,79.18547,71,80,0
79.18894,79.35214,65,80,0
79.18894,79.35214,68,80,0
79.18894,79.35214,71,80,0
79.35561,79.51881,60,80,0
79.52228,79.68547,63,80,0
79.52228,79.68547,67,80,0
79.68894,79.85214,63,80,0
79.68894,79.85214,67,80,0
79.85561,80.01881,63,80,0
79.85561,80.01881,67,80,0
80.02228,80.18547,60,80,0
80.18894,80.35214,64,80,0
80.18894,80.35214,67,80,0
80.18894,80.35214,70,80,0
80.35561,80.51881,64,80,0
80.35561,80.51881,70,80,0
80.35561,80.51881,67,80,0
80.52228,80.68547,64,80,0
80.52228,80.68547,67,80,0
80.52228,80.68547,70,80,0
80.68894,80.852135,60,80,0
80.85561,81.01881,65,80,0
80.85561,81.01881,68,80,0
81.02228,81.18547,65,80,0
81.02228,81.18547,68,80,0
81.18894,81.352135,65,80,0
81.18894,81.352135,68,80,0
81.35561,81.51881,60,80,0
81.52228,81.68547,65,80,0
81.52228,81.68547,68,80,0
81.52228,81.68547,71,80,0
81.68894,81.852135,65,80,0
81.68894,81.852135,68,80,0
81.68894,81.852135,71,80,0
81.855606,82.01881,65,80,0
81.855606,82.01881,68,80,0
81.855606,82.01881,71,80,0
82.02228,82.352135,72,80,0
82.02228,82.352135,67,80,0
82.02228,82.352135,63,80,0
82.02228,82.352135,60,80,0
82.52228,82.68547,66,84,0
82.68894,83.01881,67,86,0
83.18894,83.352135,59,91,0
83.355606,83.68547,60,92,0
83.855606,84.0188,54,97,0
84.02227,84.352135,55,98,0
84.52227,84.68547,47,103,0
84.68894,85.0188,48,105,0
85.18894,85.352135,42,109,0
85.355606,85.68547,43,110,0
85.68894,86.0188,48,110,0
85.68894,86.0188,36,110,0
86.02227,86.36156,43,110,0
86.02227,86.36156,31,110,0
86.36513,86.704414,48,110,0
86.36513,86.704414,36,110,0
86.707985,87.05725,43,110,0
86.707985,87.05725,31,110,0
87.06093,87.43202,48,110,0
87.06093,87.43202,36,110,0
87.43593,89.68202,31,120,0
87.43593,89.68202,35,120,0
87.43593,89.68202,38,120,0
87.43593,89.68202,43,120,0
90.43593,91.18202,51,80,0
90.43593,91.18202,39,80,0
91.18593,91.55702,56,80,0
91.18593,91.55702,44,80,0
91.56093,91.93202,55,80,0
91.56093,91.93202,43,80,0
91.93593,92.788605,53,80,0
91.93593,92.788605,46,80,0
91.93593,92.788605,41,80,0
93.54307,94.28916,51,80,0
93.54307,94.28916,39,80,0
94.29307,94.66416,44,80,0
94.29307,94.66416,32,80,0
94.66807,95.03916,45,80,0
94.66807,95.03916,33,80,0
95.04307,95.895744,46,80,0
95.04307,95.895744,34,80,0
96.65021,97.3963,51,80,0
96.65021,97.3963,39,80,0
97.40021,97.7713,56,80,0
97.40021,97.7713,44,80,0
97.77521,98.1463,55,80,0
97.77521,98.1463,43,80,0
98.15021,98.5213,44,110,0
98.19708,98.5213,48,110,0
98.24396,98.5213,51,110,0
98.29083,98.5213,56,110,0
100.58771,100.7713,34,80,0
100.77521,100.9588,36,80,0
100.96271,101.1463,38,80,0
101.15021,101.3338,39,80,0
101.33771,101.5213,41,80,0
101.52521,101.8963,43,80,0
101.90021,102.2713,41,80,0
99.65021,102.6463,46,80,0
102.27521,102.6463,39,80,0
103.5593,103.73733,34,80,0
103.74112,103.91915,36,80,0
103.922935,104.10097,38,80,0
104.10475,104.28278,39,80,0
104.286575,104.4646,41,80,0
104.46839,104.82824,43,80,0
104.83202,105.19187,41,80,0
102.65021,105.55551,46,80,0
105.19566,105.55551,39,80,0
105.559296,105.90856,53,80,0
105.559296,105.90856,48,80,0
105.559296,105.90856,43,80,0
106.26518,106.61445,56,80,0
106.26518,106.61445,53,80,0
106.26518,106.61445,46,80,0
106.97106,107.32033,55,80,0
106.97106,107.32033,51,80,0
107.50047,107.67327,51,83,0
107.67695,107.84974,50,85,0
107.85342,108.02621,51,86,0
108.029884,108.20268,56,87,0
108.029884,108.20268,48,87,0
108.20636,108.37915,56,88,0
108.20636,108.37915,48,88,0
108.38283,108.73209,55,90,0
108.38283,108.73209,46,90,0
108.91224,109.08503,51,94,0
109.08871,109.261505,50,95,0
109.26518,109.43797,51,96,0
109.44165,109.61444,56,97,0
109.44165,109.61444,60,97,0
109.61812,109.79092,56,99,0
109.61812,109.79092,60,99,0
109.79459,109.967384,58,100,0
109.79459,109.967384,55,100,0
109.97106,110.05562,51,101,0
110.059296,110.14385,63,102,0
110.14753,110.23209,51,102,0
110.23576,110.32033,63,103,0
110.324005,110.40856,51,104,0
110.41224,110.496796,63,104,0
110.50047,110.58503,51,105,0
110.58871,110.67326,63,106,0
110.67694,110.761505,51,106,0
110.76518,110.84974,63,107,0
110.85342,110.93797,51,108,0
110.94165,111.02621,63,108,0
111.029884,111.11444,51,109,0
111.11812,111.202675,63,109,0
111.20635,112.61444,62,120,0
111.20635,112.61444,58,120,0
111.20635,112.61444,56,120,0
111.20635,112.61444,53,120,0
111.20635,112.61444,51,120,0
112.61812,112.957405,63,120,0
112.61812,112.957405,58,120,0
112.61812,112.957405,55,120,0
112.61812,112.957405,51,120,0
113.98955,114.328835,44,120,0
113.98955,114.328835,32,120,0
114.50383,114.67169,44,120,0
114.50383,114.67169,32,120,0
114.67526,115.01455,46,120,0
114.67526,115.01455,34,120,0
115.189545,115.35741,46,120,0
115.189545,115.35741,34,120,0
115.5324,115.61455,68,120,0
115.61812,115.700264,70,120,0
115.703835,115.78597,72,120,0
115.78954,115.87169,70,120,0
115.87526,115.957405,68,120,0
115.960976,116.04312,67,120,0
116.04669,116.1574,65,120,0
116.16097,116.27169,63,120,0
116.27526,116.38597,62,120,0
116.38955,116.50026,60,120,0
116.50383,116.61455,58,120,0
116.61812,116.72883,56,120,0
116.73241,116.84312,55,120,0
116.84669,116.957405,56,120,0
116.960976,117.071686,58,120,0
117.07526,117.185974,56,120,0
117.189545,117.30026,55,120,0
117.30383,117.41454,53,120,0
117.41811,117.52883,51,120,0
117.5324,117.64312,50,120,0
117.64669,117.7574,48,120,0
117.76097,117.87169,46,120,0
117.87526,117.98598,44,120,0
117.98955,118.10026,43,120,0
118.10383,118.443115,44,120,0
118.10383,118.443115,32,120,0
118.61812,118.78597,44,120,0
118.61812,118.78597,32,120,0
118.78954,119.12883,46,120,0
118.78954,119.12883,34,120,0
119.30383,119.47169,46,120,0
119.30383,119.47169,34,120,0
119.47526,119.814545,51,120,0
119.47526,119.814545,46,120,0
119.47526,119.814545,43,120,0
119.47526,119.814545,39,120,0
119.818115,119.98597,64,120,0
119.818115,119.98597,67,120,0
119.98955,120.1574,64,120,0
119.98955,120.1574,67,120,0
120.16097,120.50026,65,120,0
120.16097,120.50026,68,120,0
120.50383,120.671684,67,120,0
120.50383,120.671684,64,120,0
120.675255,120.84312,67,120,0
120.675255,120.84312,64,120,0
120.84669,121.185974,65,120,0
120.84669,121.185974,68,120,0
121.189545,121.52883,46,120,0
121.189545,121.52883,34,120,0
121.87526,122.21455,47,80,0
121.87526,122.21455,35,80,0
122.21812,122.5574,48,80,0
122.21812,122.5574,36,80,0
122.560974,122.90026,45,80,0
122.560974,122.90026,33,80,0
122.90383,123.24312,46,80,0
122.90383,123.24312,34,80,0
123.24669,123.58597,46,80,0
123.24669,123.58597,34,80,0
123.58955,123.928825,51,80,0
123.58955,123.928825,39,80,0
123.9324,124.10026,64,120,0
123.9324,124.10026,67,120,0
124.10383,124.27168,64,120,0
124.10383,124.27168,67,120,0
124.27525,124.61454,65,120,0
124.27525,124.61454,68,120,0
124.61811,124.78597,64,120,0
124.61811,124.78597,67,120,0
124.78954,124.9574,64,120,0
124.78954,124.9574,67,120,0
124.96097,125.300255,65,120,0
124.96097,125.300255,68,120,0
125.303825,125.64311,46,120,0
125.303825,125.64311,34,120,0
125.98954,126.671684,35,120,0
125.98954,126.671684,39,120,0
125.98954,126.671684,42,120,0
125.98954,126.671684,47,120,0
126.675255,127.01454,45,80,0
126.675255,127.01454,33,80,0
127.01811,127.3574,46,80,0
127.01811,127.3574,34,80,0
127.36097,127.70026,46,80,0
127.36097,127.70026,34,80,0
127.70383,127.86702,39,80,0
127.87049,128.03369,51,80,0
128.3705,128.53369,39,80,0
128.53716,128.70035,51,80,0
129.03716,129.20035,39,80,0
129.20383,129.36702,51,80,0
129.70383,129.86702,39,80,0
129.8705,130.03369,51,80,0
130.37048,130.70035,39,80,0
132.20383,132.36702,46,80,0
132.37048,132.53368,45,80,0
132.53716,132.70035,46,80,0
132.70383,132.86702,55,80,0
132.70383,132.86702,58,80,0
132.87048,133.03368,58,80,0
132.87048,133.03368,55,80,0
133.03716,134.36702,55,80,0
133.03716,134.36702,58,80,0
134.37048,134.70035,58,80,0
134.37048,134.70035,56,80,0
134.87048,135.03368,46,80,0
135.03716,135.20035,45,80,0
135.20383,135.36702,46,80,0
135.37048,135.53368,56,80,0
135.37048,135.53368,58,80,0
135.53716,135.70035,56,80,0
135.53716,135.70035,58,80,0
135.70381,137.03368,58,80,0
135.70381,137.03368,56,80,0
137.03716,137.367,58,80,0
137.03716,137.367,55,80,0
137.70381,138.03368,61,80,0
137.70381,138.03368,58,80,0
137.70381,138.03368,53,80,0
138.37048,138.70035,60,80,0
138.37048,138.70035,58,80,0
138.37048,138.70035,55,80,0
138.37048,138.70035,52,80,0
139.70381,140.03368,60,80,0
139.70381,140.03368,56,80,0
139.70381,140.03368,53,80,0
140.37048,140.70035,60,87,0
140.37048,140.70035,56,87,0
140.37048,140.70035,53,87,0
140.37048,140.70035,51,87,0
141.03714,141.367,59,95,0
141.03714,141.367,56,95,0
141.03714,141.367,53,95,0
141.03714,141.367,50,95,0
141.70381,142.03368,56,103,0
141.70381,142.03368,53,103,0
141.70381,142.03368,50,103,0
141.70381,142.03368,48,103,0
142.37048,142.70033,56,120,0
142.37048,142.70033,53,120,0
142.37048,142.70033,50,120,0
142.37048,142.70033,47,120,0
143.20381,143.367,80,120,0
143.37048,143.53368,80,120,0
143.53714,143.70033,80,120,0
143.70381,144.367,71,120,0
144.53714,144.70033,56,120,0
144.70381,144.867,56,120,0
144.87048,145.03368,56,120,0
145.03714,145.22073,47,120,0
145.22464,145.40823,56,120,0
145.41214,145.59573,56,120,0
145.59964,145.78323,56,120,0
145.78714,145.99696,47,120,0
146.00143,146.21124,56,120,0
146.21571,146.42554,56,120,0
146.43,146.63982,56,120,0
146.64429,148.99696,47,120,0
149.00142,149.21124,48,80,0
149.21571,149.3789,47,80,0
149.38237,149.54558,48,80,0
149.54904,149.71223,53,80,0
149.71571,149.8789,53,80,0
149.88237,150.21223,51,80,0
150.38237,150.54558,48,80,0
150.54904,150.71223,47,80,0
150.71571,150.8789,48,80,0
150.88237,151.04556,56,80,0
151.04904,151.21223,56,80,0
151.21571,151.54556,55,80,0
152.54904,153.9618,66,80,0
152.54904,153.9618,60,80,0
152.54904,153.9618,56,80,0
153.96571,154.3368,67,80,0
153.96571,154.3368,62,80,0
153.96571,154.3368,55,80,0
154.50737,154.67056,43,80,0
154.67404,154.83723,42,80,0
154.84071,155.0039,43,80,0
155.00737,155.17056,48,80,0
155.17404,155.33723,48,80,0
155.34071,155.67056,47,80,0
155.8407,156.0039,43,80,0
156.00737,156.17056,42,80,0
156.17404,156.33723,43,80,0
156.3407,156.5039,51,80,0
156.50737,156.67056,51,80,0
156.67404,157.0039,50,80,0
157.17404,157.33723,43,80,0
157.3407,157.50389,47,80,0
157.50737,157.67056,50,80,0
157.67404,157.83723,53,80,0
157.8407,158.00389,56,80,0
158.00737,158.17056,59,80,0
158.17404,158.33723,62,80,0
158.3407,158.50389,65,80,0
158.50737,158.67056,68,80,0
158.67404,158.83723,67,80,0
158.8407,159.00389,65,80,0
159.00737,159.17056,63,80,0
159.17404,159.33723,62,80,0
159.3407,159.50389,60,80,0
159.50737,159.67056,63,80,0
159.50737,159.67056,67,80,0
159.67404,159.83723,63,80,0
159.67404,159.83723,67,80,0
159.8407,160.00389,63,80,0
159.8407,160.00389,67,80,0
160.00737,160.17056,60,80,0
160.17404,160.33723,64,80,0
160.17404,160.33723,67,80,0
160.17404,160.33723,70,80,0
160.3407,160.50389,64,80,0
160.3407,160.50389,70,80,0
160.3407,160.50389,67,80,0
160.50737,160.67056,64,80,0
160.50737,160.67056,67,80,0
160.50737,160.67056,70,80,0
160.67403,160.83723,60,80,0
160.8407,161.00389,65,80,0
160.8407,161.00389,68,80,0
161.00737,161.17056,65,80,0
161.00737,161.17056,68,80,0
161.17403,161.33723,65,80,0
161.17403,161.33723,68,80,0
161.3407,161.50389,60,80,0
161.50737,161.67056,65,80,0
161.50737,161.67056,68,80,0
161.50737,161.67056,71,80,0
161.67403,161.83723,65,80,0
161.67403,161.83723,68,80,0
161.67403,161.83723,71,80,0
161.8407,162.00389,65,80,0
161.8407,162.00389,68,80,0
161.8407,162.00389,71,80,0
162.00737,162.17056,60,80,0
162.17403,162.33722,63,80,0
162.17403,162.33722,67,80,0
162.3407,162.50389,63,80,0
162.3407,162.50389,67,80,0
162.50737,162.67056,63,80,0
162.50737,162.67056,67,80,0
162.67403,162.83722,60,80,0
162.8407,163.00389,64,80,0
162.8407,163.00389,67,80,0
162.8407,163.00389,70,80,0
163.00737,163.17056,64,80,0
163.00737,163.17056,70,80,0
163.00737,163.17056,67,80,0
163.17403,163.33722,64,80,0
163.17403,163.33722,67,80,0
163.17403,163.33722,70,80,0
163.3407,163.50389,60,80,0
163.50737,163.67056,65,80,0
163.50737,163.67056,68,80,0
163.67403,163.83722,65,80,0
163.67403,163.83722,68,80,0
163.8407,164.00389,65,80,0
163.8407,164.00389,68,80,0
164.00737,164.17056,60,80,0
164.17403,164.33722,65,80,0
164.17403,164.33722,68,80,0
164.17403,164.33722,71,80,0
164.3407,164.50389,65,80,0
164.3407,164.50389,68,80,0
164.3407,164.50389,71,80,0
164.50737,164.67056,65,80,0
164.50737,164.67056,68,80,0
164.50737,164.67056,71,80,0
164.67403,165.00389,72,80,0
164.67403,165.00389,67,80,0
164.67403,165.00389,63,80,0
164.67403,165.00389,60,80,0
165.17403,165.33722,66,84,0
165.3407,165.67056,67,86,0
165.8407,166.00389,59,90,0
166.00735,166.33722,60,92,0
166.50735,166.67056,54,96,0
166.67403,167.00389,55,98,0
167.17403,167.33722,47,103,0
167.3407,167.67055,48,104,0
167.8407,168.00389,42,109,0
168.00735,168.33722,43,110,0
168.3407,168.67055,48,110,0
168.3407,168.67055,36,110,0
168.67403,169.0133,43,110,0
168.67403,169.0133,31,110,0
169.01688,169.36615,48,110,0
169.01688,169.36615,36,110,0
169.36983,169.74092,43,110,0
169.36983,169.74092,31,110,0
169.74483,170.2039,48,110,0
169.74483,170.2039,36,110,0
170.2091,172.9552,31,120,0
170.2091,172.9552,35,120,0
170.2091,172.9552,38,120,0
170.2091,172.9552,43,120,0
173.7091,174.4552,60,80,0
173.7091,174.4552,55,80,0
173.7091,174.4552,48,80,0
174.4591,174.8302,59,80,0
174.4591,174.8302,55,80,0
174.4591,174.8302,53,80,0
174.8341,175.2052,60,80,0
174.8341,175.2052,55,80,0
174.8341,175.2052,52,80,0
175.2091,175.9552,62,80,0
175.2091,175.9552,55,80,0
175.2091,175.9552,50,80,0
176.7091,177.4552,60,80,0
176.7091,177.4552,55,80,0
176.7091,177.4552,48,80,0
177.4591,177.8302,57,80,0
177.4591,177.8302,53,80,0
177.8341,178.2052,57,80,0
177.8341,178.2052,54,80,0
178.2091,178.9552,55,80,0
178.2091,178.9552,43,80,0
179.7091,180.4552,60,80,0
179.7091,180.4552,48,80,0
179.7091,180.4552,55,80,0
180.4591,180.8302,59,80,0
180.4591,180.8302,55,80,0
180.4591,180.8302,53,80,0
180.8341,181.2052,60,80,0
180.8341,181.2052,55,80,0
180.8341,181.2052,52,80,0
181.2091,181.5802,53,110,0
181.25598,181.5802,57,110,0
181.30286,181.5802,60,110,0
181.34973,181.5802,65,110,0
183.6466,183.8302,43,80,0
183.8341,184.0177,45,80,0
184.0216,184.2052,47,80,0
184.2091,184.38715,48,80,0
184.39093,184.56895,50,80,0
184.57274,184.93259,52,80,0
184.93639,185.29623,50,80,0
182.7091,185.65987,55,80,0
185.30002,185.65987,48,80,0
186.57274,186.75078,43,80,0
186.75456,186.93259,45,80,0
186.93639,187.11441,47,80,0
187.1182,187.29623,48,80,0
187.30002,187.47804,50,80,0
187.48183,187.84167,51,80,0
187.84547,188.20532,50,80,0
185.66365,188.55836,55,80,0
188.2091,188.55836,48,80,0
188.56204,188.91132,53,80,0
188.56204,188.91132,50,80,0
188.56204,188.91132,44,80,0
188.56204,188.91132,41,80,0
189.26793,189.61719,53,80,0
189.26793,189.61719,50,80,0
189.26793,189.61719,43,80,0
189.26793,189.61719,47,80,0
189.97382,190.1466,51,80,0
189.97382,190.1466,48,80,0
190.15028,190.32307,55,81,0
190.32675,190.49954,55,83,0
190.50322,190.67601,55,85,0
190.67969,190.8525,55,87,0
190.85616,191.02896,55,89,0
191.03264,191.20543,47,91,0
191.2091,191.3819,55,93,0
191.38557,191.55836,48,95,0
191.56204,191.73483,55,97,0
191.73851,191.91132,55,99,0
191.915,192.08778,55,101,0
192.09146,192.26425,55,103,0
192.26793,192.44072,55,105,0
192.4444,192.61719,47,107,0
192.62086,192.79366,55,109,0
192.79733,192.97014,48,120,0
192.97382,193.1466,55,120,0
193.15028,193.32307,55,120,0
193.32675,193.49954,55,120,0
193.50322,193.67601,55,120,0
193.67969,193.85248,55,120,0
193.85616,194.02896,47,120,0
193.85616,194.02896,55,120,0
193.85616,194.02896,53,120,0
193.85616,194.02896,50,120,0
194.03264,194.20543,55,120,0
194.03264,194.20543,50,120,0
194.03264,194.20543,53,120,0
194.03264,194.20543,47,120,0
194.2091,195.61719,55,120,0
194.2091,195.61719,53,120,0
194.2091,195.61719,50,120,0
194.2091,195.61719,47,120,0
195.62086,195.96016,55,120,0
195.62086,195.96016,51,120,0
195.62086,195.96016,48,120,0
196.9923,197.33157,41,120,0
197.50658,197.67444,53,120,0
197.67801,198.01729,43,120,0
198.19229,198.36015,55,120,0
198.53516,198.6173,65,120,0
198.62086,198.703,67,120,0
198.70657,198.78873,68,120,0
198.7923,198.87444,67,120,0
198.878,198.96014,65,120,0
198.96373,199.04587,63,120,0
199.04944,199.16016,62,120,0
199.16373,199.27443,60,120,0
199.27802,199.38872,59,120,0
199.39229,199.503,56,120,0
199.50658,199.6173,55,120,0
199.62086,199.73158,53,120,0
199.73515,199.84587,51,120,0
199.84944,199.96014,53,120,0
199.96371,200.07443,55,120,0
200.078,200.18872,53,120,0
200.19229,200.30301,51,120,0
200.30658,200.4173,50,120,0
200.42087,200.53159,48,120,0
200.53516,200.64586,46,120,0
200.64943,200.76015,44,120,0
200.76372,200.87444,43,120,0
200.878,200.98872,41,120,0
200.9923,201.10301,39,120,0
201.10658,201.44586,41,120,0
201.10658,201.44586,29,120,0
201.62086,201.78873,41,120,0
201.62086,201.78873,29,120,0
201.7923,202.13158,43,120,0
201.7923,202.13158,31,120,0
202.30658,202.47444,43,120,0
202.30658,202.47444,31,120,0
202.47801,202.81729,48,120,0
202.47801,202.81729,43,120,0
202.47801,202.81729,39,120,0
202.47801,202.81729,36,120,0
202.82086,202.98872,64,120,0
202.82086,202.98872,61,120,0
202.9923,203.16016,61,120,0
202.9923,203.16016,64,120,0
203.16373,203.503,62,120,0
203.16373,203.503,65,120,0
203.50658,203.67444,64,120,0
203.50658,203.67444,61,120,0
203.67801,203.84586,61,120,0
203.67801,203.84586,64,120,0
203.84944,204.18872,62,120,0
203.84944,204.18872,65,120,0
204.19229,204.53157,43,120,0
204.19229,204.53157,31,120,0
204.878,205.21729,43,80,0
204.878,205.21729,31,80,0
205.22086,205.56015,44,80,0
205.22086,205.56015,32,80,0
205.56372,205.903,42,80,0
205.56372,205.903,30,80,0
205.90657,206.24586,43,80,0
205.90657,206.24586,31,80,0
206.24944,206.58871,43,80,0
206.24944,206.58871,31,80,0
206.59229,206.93158,48,80,0
206.59229,206.93158,36,80,0
206.93515,207.10301,64,120,0
206.93515,207.10301,61,120,0
207.10658,207.27443,61,120,0
207.10658,207.27443,64,120,0
207.278,207.6173,62,120,0
207.278,207.6173,65,120,0
207.62086,207.78871,64,120,0
207.62086,207.78871,61,120,0
207.7923,207.96014,61,120,0
207.7923,207.96014,64,120,0
207.96371,208.30301,62,120,0
207.96371,208.30301,65,120,0
208.30658,208.64586,43,120,0
208.30658,208.64586,31,120,0
208.9923,209.67444,32,120,0
208.9923,209.67444,36,120,0
208.9923,209.67444,39,120,0
208.9923,209.67444,44,120,0
209.67801,210.01729,42,80,0
209.67801,210.01729,30,80,0
210.02086,210.36015,43,80,0
210.02086,210.36015,31,80,0
210.36372,210.703,43,80,0
210.36372,210.703,31,80,0
210.70657,210.86977,36,80,0
210.87325,211.03644,48,80,0
211.37325,211.53644,36,80,0
211.5399,211.7031,48,80,0
212.0399,212.2031,36,80,0
212.20657,212.36977,48,80,0
212.70657,212.86977,36,80,0
212.87325,213.03644,48,80,0
213.37325,213.53644,32,80,0
213.5399,213.7031,44,81,0
214.0399,214.2031,32,87,0
214.20657,214.36977,44,89,0
214.70657,214.86977,32,95,0
214.87323,215.03644,44,97,0
215.37323,215.53644,32,103,0
215.5399,215.7031,44,105,0
216.0399,220.74211,32,120,0
216.0399,220.74211,44,120,0
221.45166,222.19775,49,80,0
221.45166,222.19775,37,80,0
222.20166,222.57275,48,80,0
222.20166,222.57275,42,80,0
222.57666,222.94775,49,80,0
222.57666,222.94775,41,80,0
222.95166,223.9475,51,80,0
222.95166,223.9475,44,80,0
224.55167,225.40434,49,80,0
224.55167,225.40434,37,80,0
225.4088,225.83292,42,80,0
225.4088,225.83292,30,80,0
225.83737,226.26147,43,80,0
225.83737,226.26147,31,80,0
226.26595,227.18422,44,80,0
226.26595,227.18422,32,80,0
228.11209,229.10689,49,80,0
228.11209,229.10689,37,80,0
229.11209,229.60689,48,80,0
229.11209,229.60689,42,80,0
229.61209,230.10689,49,80,0
229.61209,230.10689,41,80,0
230.11209,233.10428,48,80,0
230.11209,233.10428,44,80,0
230.11209,233.10428,51,80,0
233.11209,233.29178,33,80,0
233.20584,233.38553,36,80,0
233.29959,233.47928,39,80,0
233.39334,233.57303,42,80,0
233.48709,238.19803,45,80,0
233.58084,238.19803,48,80,0
233.67459,238.19803,51,80,0
238.26834,238.3482,31,80,0
238.31001,238.38988,36,80,0
238.35168,238.43155,39,120,0
238.39334,238.4732,43,120,0
238.43501,238.51488,48,120,0
238.47668,238.55655,51,120,0
239.64334,239.9732,43,120,0
239.64334,239.9732,31,120,0
239.97668,240.13988,36,120,0
240.14334,240.30653,48,120,0
240.31001,240.4732,48,120,0
240.47668,240.63988,48,120,0
240.64334,240.80653,48,120,0
240.81001,240.9732,55,80,0
240.81001,240.9732,58,80,0
240.97668,241.13988,55,80,0
240.97668,241.13988,58,80,0
241.14334,241.30653,55,80,0
241.14334,241.30653,58,80,0
241.31001,241.4732,48,80,0
241.47668,241.63988,53,80,0
241.47668,241.63988,56,80,0
241.64334,241.80653,53,80,0
241.64334,241.80653,56,80,0
241.81001,241.9732,53,80,0
241.81001,241.9732,56,80,0
241.97668,242.13988,48,80,0
242.14334,242.30653,53,80,0
242.14334,242.30653,56,80,0
242.14334,242.30653,59,80,0
242.31001,242.4732,53,80,0
242.31001,242.4732,56,80,0
242.31001,242.4732,59,80,0
242.47668,242.63988,53,80,0
242.47668,242.63988,56,80,0
242.47668,242.63988,59,80,0
242.64334,242.80653,48,80,0
242.81001,242.9732,52,80,0
242.81001,242.9732,55,80,0
242.81001,242.9732,60,80,0
242.97668,243.13988,52,80,0
242.97668,243.13988,55,80,0
242.97668,243.13988,60,80,0
243.14334,243.30653,52,80,0
243.14334,243.30653,55,80,0
243.14334,243.30653,60,80,0
243.31001,243.4732,48,80,0
243.47667,243.63988,55,80,0
243.47667,243.63988,58,80,0
243.64334,243.80653,55,80,0
243.64334,243.80653,58,80,0
243.81001,243.9732,55,80,0
243.81001,243.9732,58,80,0
243.97667,244.13988,48,80,0
244.14334,244.30653,53,80,0
244.14334,244.30653,56,80,0
244.31001,244.4732,53,80,0
244.31001,244.4732,56,80,0
244.47667,244.63988,53,80,0
244.47667,244.63988,56,80,0
244.64334,244.80653,48,80,0
244.81001,244.9732,53,80,0
244.81001,244.9732,56,80,0
244.81001,244.9732,59,80,0
244.97667,245.13986,53,80,0
244.97667,245.13986,56,80,0
244.97667,245.13986,59,80,0
245.14334,245.30653,53,80,0
245.14334,245.30653,56,80,0
245.14334,245.30653,59,80,0
245.31001,245.4732,48,80,0
245.47667,245.63986,52,80,0
245.47667,245.63986,55,80,0
245.47667,245.63986,60,80,0
245.64334,245.80653,52,80,0
245.64334,245.80653,55,80,0
245.64334,245.80653,60,80,0
245.81001,245.9732,52,80,0
245.81001,245.9732,55,80,0
245.81001,245.9732,60,80,0
245.97667,246.13986,48,80,0
246.14334,246.30653,55,80,0
246.14334,246.30653,58,80,0
246.31001,246.4732,55,80,0
246.31001,246.4732,58,80,0
246.47667,246.63986,55,79,0
246.47667,246.63986,58,79,0
246.64334,246.81613,48,79,0
246.81981,246.9926,52,78,0
246.81981,246.9926,55,78,0
246.81981,246.9926,60,78,0
246.99628,247.16908,52,78,0
246.99628,247.16908,55,78,0
246.99628,247.16908,60,78,0
247.17274,247.34555,52,77,0
247.17274,247.34555,55,77,0
247.17274,247.34555,60,77,0
247.34923,247.52202,48,77,0
247.5257,247.69849,55,76,0
247.5257,247.69849,58,76,0
247.70216,247.87495,55,76,0
247.70216,247.87495,58,76,0
247.87863,248.05142,55,75,0
247.87863,248.05142,58,75,0
248.0551,248.2387,48,75,0
248.2426,248.4262,52,74,0
248.2426,248.4262,55,74,0
248.2426,248.4262,60,74,0
248.4301,248.62593,52,74,0
248.4301,248.62593,55,74,0
248.4301,248.62593,60,74,0
248.63011,248.82594,52,73,0
248.63011,248.82594,55,73,0
248.63011,248.82594,60,73,0
248.83011,249.03993,48,73,0
249.04439,249.25421,52,72,0
249.04439,249.25421,55,72,0
249.04439,249.25421,60,72,0
249.25868,249.50346,52,72,0
249.25868,249.50346,55,72,0
249.25868,249.50346,60,72,0
249.50868,249.87846,52,71,0
249.50868,249.87846,55,71,0
249.50868,249.87846,60,71,0
249.88368,250.87846,55,71,0
249.88368,250.87846,52,71,0
249.88368,250.87846,48,71,0
