start_time,end_time,note_value,velocity,instrument_program_number
2.25,2.3875,75,110,0
2.25,2.3875,72,110,0
2.25,2.3875,63,110,0
2.25,2.3875,69,110,0
2.4,4.6375,75,110,0
2.4,4.6375,72,110,0
2.4,4.6375,63,110,0
2.4,4.6375,69,110,0
4.65,4.7875,72,110,0
4.65,4.7875,69,110,0
4.8,4.9375,72,107,0
4.875,5.0125,74,105,0
4.95,5.0875,72,103,0
5.025,5.1625,74,101,0
5.1,5.2375,72,99,0
5.175,5.3125,74,98,0
5.25,5.3875,72,96,0
5.325,5.4625,74,94,0
5.4,5.5375,72,92,0
5.475,5.6125,74,90,0
5.55,5.6875,72,88,0
5.625,5.7625,74,86,0
5.7,5.8375,71,85,0
4.8,5.9875,69,107,0
5.85,5.9875,72,81,0
6.0,6.5875,71,80,0
6.0,6.5875,67,80,0
7.2,7.7875,72,80,0
7.2,7.7875,67,80,0
7.2,7.7875,63,80,0
8.55,8.9875,74,110,0
8.55,8.9875,67,110,0
8.55,8.9875,62,110,0
11.85,11.9875,80,110,0
11.85,11.9875,77,110,0
11.85,11.9875,74,110,0
11.85,11.9875,68,110,0
12.0,14.2375,80,110,0
12.0,14.2375,77,110,0
12.0,14.2375,68,110,0
12.0,14.2375,74,110,0
14.25,14.3875,77,110,0
14.25,14.3875,74,110,0
14.4,14.5375,77,107,0
14.475,14.6125,79,105,0
14.55,14.6875,77,103,0
14.625,14.7625,79,101,0
14.7,14.8375,77,99,0
14.775,14.9125,79,98,0
14.85,14.9875,77,96,0
14.925,15.0625,79,94,0
15.0,15.1375,77,92,0
15.075,15.2125,79,90,0
15.15,15.2875,77,88,0
15.225,15.3625,79,86,0
15.3,15.4375,76,85,0
14.4,15.5875,74,107,0
15.45,15.5875,77,81,0
15.6,16.1875,76,80,0
15.6,16.1875,67,80,0
16.8,17.3875,77,80,0
16.8,17.3875,72,80,0
16.8,17.3875,65,80,0
17.925,17.9875,67,110,0
18.0,18.0625,72,110,0
18.075,18.1375,76,110,0
18.225,18.8125,79,110,0
18.225,18.8125,72,110,0
18.225,18.8125,67,110,0
21.45,21.5875,85,110,0
21.45,21.5875,82,110,0
21.45,21.5875,77,110,0
21.45,21.5875,73,110,0
21.6,23.8375,85,110,0
21.6,23.8375,82,110,0
21.6,23.8375,77,110,0
21.6,23.8375,73,110,0
23.85,23.9875,73,110,0
23.85,23.9875,82,110,0
24.0,24.1375,82,107,0
24.075,24.2125,84,105,0
24.15,24.2875,82,104,0
24.225,24.3625,84,102,0
24.3,24.4375,82,100,0
24.375,24.5125,84,98,0
24.45,24.5875,82,97,0
24.525,24.6625,84,95,0
24.6,24.7375,82,93,0
24.675,24.8125,84,91,0
24.75,24.8875,82,90,0
24.825,24.9625,84,88,0
24.9,25.0375,82,86,0
24.975,25.1125,84,84,0
24.0,25.1875,73,107,0
25.05,25.1875,81,83,0
25.125,25.1875,82,81,0
25.2,26.2375,82,80,0
25.2,26.2375,75,80,0
25.2,26.2375,73,80,0
26.25,26.3875,82,78,0
26.25,26.3875,75,78,0
26.25,26.3875,73,78,0
26.4,28.6375,82,78,0
26.4,28.6375,75,78,0
26.4,28.6375,73,78,0
28.65,28.7875,75,73,0
28.65,28.7875,72,73,0
28.65,28.7875,80,73,0
28.8,29.3875,80,73,0
28.8,29.3875,72,73,0
28.8,29.6875,75,73,0
29.85,29.9875,78,71,0
29.85,29.9875,75,71,0
29.85,29.9875,72,71,0
30.0,31.0375,78,70,0
30.0,31.0375,75,70,0
30.0,31.0375,72,70,0
31.05,31.1875,78,70,0
31.05,31.1875,75,70,0
31.05,31.1875,70,70,0
31.2,33.4375,78,70,0
31.2,33.4375,75,70,0
31.2,33.4375,70,70,0
33.45,33.5875,78,70,0
33.45,33.5875,75,70,0
33.45,33.5875,69,70,0
33.6,34.6375,78,70,0
33.6,34.6375,75,70,0
33.6,34.6375,69,70,0
34.65,34.7875,78,70,0
34.65,34.7875,75,70,0
34.65,34.7875,69,70,0
34.8,35.8375,78,70,0
34.8,35.8375,75,70,0
34.8,35.8375,69,70,0
35.85,35.9875,77,70,0
35.85,35.9875,73,70,0
35.85,35.9875,68,70,0
36.0,38.2375,77,70,0
36.0,38.2375,73,70,0
36.0,38.2375,68,70,0
38.25,38.3875,77,70,0
38.25,38.3875,71,70,0
38.25,38.3875,68,70,0
38.4,39.4375,77,70,0
38.4,39.4375,71,70,0
38.4,39.4375,68,70,0
39.45,39.5875,77,70,0
39.45,39.5875,71,70,0
39.45,39.5875,68,70,0
39.6,40.6375,77,70,0
39.6,40.6375,71,70,0
39.6,40.6375,68,70,0
40.65,40.7875,75,70,0
40.65,40.7875,72,70,0
40.65,40.7875,68,70,0
40.8,43.0375,75,70,0
40.8,43.0375,72,70,0
40.8,43.0375,68,70,0
43.05,43.1875,75,70,0
43.05,43.1875,72,70,0
43.05,43.1875,68,70,0
43.2,44.2375,75,70,0
43.2,44.2375,72,70,0
43.2,44.2375,68,70,0
44.25,44.3875,73,70,0
44.25,44.3875,70,70,0
44.25,44.3875,67,70,0
44.4,45.4375,73,70,0
44.4,45.4375,70,70,0
44.4,45.4375,67,70,0
45.45,45.5875,73,85,0
45.45,45.5875,70,85,0
45.45,45.5875,65,85,0
45.6,46.6375,73,88,0
45.6,46.6375,70,88,0
45.6,46.6375,65,88,0
46.65,46.7875,73,104,0
46.65,46.7875,70,104,0
46.65,46.7875,64,104,0
46.8,47.41198,73,106,0
46.8,47.41198,70,106,0
46.8,47.41198,64,106,0
47.425,48.077778,72,110,0
47.425,48.077778,65,110,0
47.425,48.077778,60,110,0
48.091667,48.774807,72,110,0
48.091667,48.774807,65,110,0
48.091667,48.774807,60,110,0
48.78934,49.523716,72,110,0
48.78934,49.523716,66,110,0
48.78934,49.523716,60,110,0
49.53934,50.16434,71,110,0
49.53934,50.16434,67,110,0
49.53934,50.16434,62,110,0
53.369125,54.632423,67,80,0
54.007423,54.632423,60,80,0
54.64572,55.90902,69,80,0
54.64572,55.90902,66,80,0
54.64572,55.90902,60,80,0
55.922314,57.18561,71,80,0
55.922314,57.18561,65,80,0
55.922314,57.18561,62,80,0
57.19891,58.518356,72,80,0
57.19891,58.518356,67,80,0
57.19891,58.518356,63,80,0
58.53224,59.73864,72,80,0
58.53224,59.73864,69,80,0
58.53224,59.73864,63,80,0
59.753174,59.913055,71,80,0
59.753174,59.913055,67,80,0
59.753174,59.913055,62,80,0
59.927593,61.250267,71,80,0
59.927593,61.250267,67,80,0
59.927593,61.250267,62,80,0
63.845123,65.19557,55,80,0
64.54279,65.19557,48,80,0
65.209465,66.50113,57,80,0
65.209465,66.50113,54,80,0
65.209465,66.50113,48,80,0
66.51443,67.777725,59,80,0
66.51443,67.777725,53,80,0
66.51443,67.777725,50,80,0
67.79102,69.05432,60,80,0
67.79102,69.05432,55,80,0
67.79102,69.05432,51,80,0
69.06762,70.243004,60,80,0
69.06762,70.243004,57,80,0
69.06762,70.243004,51,80,0
70.25754,70.41742,59,80,0
70.25754,70.41742,55,80,0
70.25754,70.41742,50,80,0
70.43195,73.208115,55,80,0
70.43195,73.208115,50,80,0
70.43195,73.208115,59,80,0
73.22266,75.99882,59,80,0
75.66451,75.99882,59,80,0
73.22266,75.99882,55,80,0
75.66451,75.99882,55,80,0
73.22266,75.99882,50,80,0
75.66451,75.99882,50,80,0
76.01335,79.00554,59,70,0
76.01335,79.00554,55,70,0
76.01335,79.00554,50,70,0
79.01335,80.609184,62,70,0
79.01335,80.609184,59,70,0
79.01335,80.609184,55,70,0
79.01335,80.609184,50,70,0
80.61335,80.70918,59,90,0
80.61335,80.70918,55,90,0
80.71335,80.90918,44,92,0
80.81335,81.009186,43,93,0
80.913345,81.109184,44,94,0
81.01335,81.20918,43,95,0
81.11335,81.30918,44,97,0
81.21335,81.40918,43,98,0
81.31335,81.509186,44,99,0
81.413345,81.609184,43,100,0
81.51335,81.70918,44,102,0
81.61335,81.80918,43,103,0
81.71335,81.90918,44,104,0
80.61335,82.009186,67,90,0
80.61335,82.009186,62,90,0
81.81335,82.009186,43,105,0
81.913345,82.009186,44,107,0
82.01335,82.109184,43,108,0
82.11335,82.15918,45,110,0
82.163345,82.20918,47,110,0
82.21335,82.70814,48,110,0
83.96335,84.04147,43,110,0
84.046684,84.12481,45,110,0
84.13001,84.20814,47,110,0
84.21335,84.70814,48,110,0
84.71335,85.25312,51,110,0
85.23608,87.91457,47,120,0
88.19062,88.268745,43,110,0
88.27395,88.35207,45,110,0
88.357285,88.43541,47,110,0
88.44062,88.93541,48,110,0
88.94062,89.48039,51,110,0
89.48608,90.29857,47,120,0
90.30425,90.5713,56,110,0
90.57698,90.82177,55,110,0
90.82698,91.07177,53,110,0
91.07698,91.32177,51,110,0
91.32698,91.57177,50,110,0
91.57698,91.69677,51,110,0
91.70198,91.82177,53,110,0
91.82698,91.94677,51,110,0
91.95198,92.07177,50,110,0
92.07698,92.32177,48,110,0
92.32698,92.57177,56,110,0
92.57698,92.82177,55,110,0
92.82698,93.07177,53,101,0
93.07698,93.32177,51,91,0
93.32698,93.57177,50,81,0
93.57698,93.69677,51,80,0
93.70198,93.82177,53,80,0
93.82698,93.94677,51,80,0
93.95198,94.07177,50,80,0
94.07698,94.183464,48,80,0
94.188095,94.29457,56,80,0
94.2992,94.405685,58,81,0
94.41032,94.51679,56,82,0
94.52142,94.62791,55,82,0
94.63254,94.73901,56,83,0
94.743645,94.85013,55,84,0
94.85476,94.96124,53,85,0
94.965866,95.07235,51,85,0
95.07698,95.183464,53,86,0
95.18809,95.29457,51,87,0
95.2992,95.405685,50,87,0
95.41032,95.51679,51,88,0
95.52142,95.62791,53,89,0
95.63254,95.73901,51,90,0
95.743645,95.85013,50,90,0
95.85476,95.961235,48,91,0
95.965866,96.07235,55,92,0
96.07698,96.183464,53,92,0
96.18809,96.29457,51,93,0
96.2992,96.405685,53,94,0
96.41031,96.51679,55,95,0
96.52142,96.62791,53,95,0
96.63253,96.73901,51,96,0
96.743645,96.85013,50,97,0
96.85476,96.961235,56,98,0
96.965866,97.07235,55,98,0
97.07698,97.18346,53,99,0
97.18809,97.29457,55,100,0
97.2992,97.40568,56,100,0
97.41031,97.51679,55,101,0
97.52142,97.62791,53,102,0
97.63253,97.73901,52,103,0
97.743645,97.85013,58,103,0
97.85475,97.961235,56,104,0
97.965866,98.07235,55,105,0
98.07698,98.18346,56,105,0
98.18809,98.29457,60,106,0
98.2992,98.40568,55,107,0
98.41031,98.51679,60,108,0
98.52142,98.6279,53,108,0
98.63253,98.73901,60,109,0
98.743645,98.85013,54,110,0
98.85475,98.961235,60,110,0
98.965866,99.07235,59,120,0
99.07697,99.18346,57,110,0
99.18809,99.29457,55,110,0
99.299194,99.40568,62,110,0
99.41031,99.51679,60,120,0
99.52142,99.6279,59,110,0
99.63253,99.73901,65,110,0
99.743645,99.85012,63,110,0
99.85475,99.961235,62,120,0
99.965866,100.07234,68,110,0
100.07697,100.18346,67,110,0
100.18809,100.29457,65,110,0
100.299194,100.40568,74,120,0
100.41031,100.51679,72,110,0
100.521416,100.6279,71,110,0
100.63253,100.73901,77,110,0
100.743645,100.85012,75,120,0
100.85475,100.961235,74,110,0
100.965866,101.07234,80,110,0
101.07697,101.18346,79,110,0
101.18809,101.29456,77,120,0
101.299194,101.40568,86,110,0
101.41031,101.516785,84,110,0
101.521416,101.6279,83,110,0
101.63253,101.73901,89,120,0
101.74364,101.85012,87,109,0
101.85475,101.961235,86,107,0
101.94734,102.053825,92,105,0
102.07697,102.18346,91,103,0
102.18809,102.29456,89,101,0
102.299194,102.40568,87,99,0
102.41031,102.516785,86,97,0
102.521416,102.631996,84,95,0
102.6368,102.747375,83,93,0
102.75219,102.86276,80,91,0
102.86757,102.97815,79,89,0
102.982956,103.09795,77,87,0
103.10296,103.21796,75,85,0
103.22295,103.34274,74,83,0
103.34795,103.46774,79,81,0
103.47295,103.71178,67,80,0
103.47295,103.71178,63,80,0
103.47295,103.94816,72,80,0
103.71686,103.94816,67,80,0
103.71686,103.94816,63,80,0
103.95308,104.18437,67,80,0
103.95308,104.18437,63,80,0
103.95308,104.42059,75,80,0
104.1893,104.42059,67,80,0
104.1893,104.42059,63,80,0
104.425514,104.656815,67,80,0
104.425514,104.656815,65,80,0
104.661736,104.893036,67,80,0
104.661736,104.893036,65,80,0
104.425514,105.12926,71,80,0
104.89796,105.12926,67,80,0
104.89796,105.12926,65,80,0
105.13418,105.36548,67,80,0
105.13418,105.36548,65,80,0
105.13418,105.36548,80,80,0
105.3704,105.609215,79,80,0
105.3704,105.609215,67,80,0
105.3704,105.609215,65,80,0
105.614296,105.85312,77,80,0
105.614296,105.85312,67,80,0
105.614296,105.85312,65,80,0
105.8582,106.09702,75,80,0
105.8582,106.09702,67,80,0
105.8582,106.09702,65,80,0
106.102104,106.34093,74,80,0
106.102104,106.34093,67,80,0
106.102104,106.34093,65,80,0
106.34601,106.4658,75,80,0
106.47101,106.5908,77,80,0
106.59601,106.7158,75,80,0
106.72101,106.8408,74,80,0
106.84601,107.10144,72,80,0
106.84601,107.10144,67,80,0
107.10687,107.37887,80,80,0
107.10687,107.37887,67,80,0
107.38465,107.65664,79,80,0
107.38465,107.65664,67,80,0
107.66243,107.93442,77,80,0
107.66243,107.93442,67,80,0
107.66243,107.93442,71,80,0
107.94021,108.228195,75,80,0
107.94021,108.228195,67,80,0
107.94021,108.228195,72,80,0
108.23432,108.522316,74,80,0
108.23432,108.522316,67,80,0
108.52844,108.683014,75,80,0
108.689735,108.8443,77,80,0
108.85102,109.022156,75,80,0
109.029594,109.22925,74,80,0
108.85102,109.72751,67,80,0
109.23793,109.72751,72,80,0
109.73793,109.86861,89,80,0
109.73793,110.004974,92,80,0
109.87429,110.004974,79,81,0
110.01065,110.13045,87,82,0
110.01065,110.25545,91,82,0
110.13565,110.25545,79,83,0
110.26065,110.38045,86,84,0
110.26065,110.50545,89,84,0
110.38565,110.50545,79,86,0
110.51065,110.63045,84,87,0
110.51065,110.75545,87,87,0
110.63565,110.75545,79,88,0
110.76065,111.00545,86,89,0
110.88565,111.00545,79,91,0
110.88565,111.00545,80,91,0
111.01065,111.25545,87,92,0
111.13565,111.25545,79,93,0
111.26065,111.50545,86,94,0
111.38565,111.50545,79,96,0
111.51065,111.75545,84,97,0
111.63565,111.75545,79,98,0
111.76065,112.00545,83,99,0
111.88565,112.00545,79,101,0
112.01065,112.13045,79,102,0
112.01065,112.25545,84,102,0
112.13565,112.25545,72,103,0
112.26065,112.38045,79,104,0
112.26065,112.50545,82,104,0
112.38565,112.50545,72,105,0
112.51065,112.75545,80,107,0
112.63565,112.75545,72,108,0
112.76065,113.00545,79,109,0
112.88565,113.00545,72,110,0
113.01065,113.25545,80,110,0
113.13565,113.25545,72,110,0
113.26065,113.50545,77,110,0
113.38565,113.50545,72,110,0
113.51065,113.75545,75,110,0
113.63565,113.75545,72,110,0
113.76065,114.00545,74,110,0
113.88565,114.00545,72,110,0
114.01065,114.25545,74,110,0
114.01065,114.50545,65,110,0
114.26065,114.50545,72,95,0
114.51065,115.05042,66,80,0
114.51065,115.64986,72,80,0
115.05611,115.64986,67,80,0
115.656105,116.31583,69,80,0
115.656105,116.31583,72,80,0
116.32278,116.4825,72,80,0
116.406105,116.56583,74,80,0
116.48944,116.64916,72,80,0
116.57278,116.7325,74,80,0
116.656105,116.81583,72,80,0
116.73944,116.89916,74,80,0
116.32278,116.9825,67,80,0
116.82278,116.9825,72,80,0
116.906105,117.06583,74,80,0
116.98944,117.31583,75,80,0
117.32278,117.64916,74,80,0
117.656105,118.15198,72,110,0
117.656105,118.15198,60,110,0
118.156975,118.63197,63,110,0
118.63698,119.23197,59,110,0
119.23698,119.351974,62,110,0
119.35697,119.47198,65,110,0
119.476974,119.59197,68,110,0
119.59698,119.711975,67,110,0
119.71697,119.83198,68,110,0
119.836975,119.95197,67,110,0
119.95698,120.071976,65,110,0
120.07697,120.19198,63,110,0
120.196976,120.31197,65,110,0
120.296974,120.41197,63,110,0
120.43697,120.55198,62,110,0
120.55698,120.671974,63,110,0
120.67698,120.79198,65,110,0
120.796974,120.91197,63,110,0
120.91698,121.031975,62,110,0
121.03697,121.15198,60,110,0
121.156975,121.27197,63,110,0
121.27698,121.391975,67,110,0
121.39697,121.51198,70,110,0
121.516975,121.63197,68,110,0
121.63698,121.751976,70,110,0
121.75697,121.87198,68,110,0
121.876976,121.991974,67,110,0
121.99698,122.11198,65,110,0
122.116974,122.23197,67,110,0
122.23698,122.351974,65,110,0
122.35697,122.47198,63,110,0
122.476974,122.59197,65,110,0
122.59698,122.711975,67,110,0
122.71697,122.83198,65,110,0
122.836975,122.95197,63,110,0
122.95698,123.071976,62,110,0
123.07697,123.19198,65,110,0
123.196976,123.31197,68,110,0
123.31698,123.43198,72,110,0
123.43697,123.55198,70,110,0
123.55698,123.671974,72,110,0
123.67698,123.79198,70,110,0
123.796974,123.91197,68,110,0
123.91698,124.031975,67,110,0
124.03697,124.15198,68,110,0
124.156975,124.27197,67,110,0
124.27698,124.391975,65,110,0
124.39697,124.51198,67,110,0
124.516975,124.63197,70,110,0
124.63698,124.751976,68,110,0
124.75697,124.87198,67,110,0
124.876976,124.991974,65,110,0
124.99698,125.11198,63,110,0
125.116974,125.23197,62,110,0
125.23698,125.351974,63,110,0
125.35697,125.47198,65,110,0
125.476974,125.59197,59,110,0
125.59698,125.711975,58,110,0
125.71697,125.83198,59,110,0
125.836975,125.95197,58,110,0
125.95698,126.071976,62,110,0
126.07697,126.19198,65,110,0
126.196976,126.31197,68,110,0
126.31698,126.55198,67,110,0
126.55698,126.79198,65,110,0
126.55698,126.79198,53,110,0
126.796974,127.031975,70,110,0
126.796974,127.031975,58,110,0
127.03697,127.27197,68,110,0
127.03697,127.27197,56,110,0
127.27698,127.51198,70,110,0
127.27698,127.51198,58,110,0
127.516975,127.751976,73,110,0
127.516975,127.751976,61,110,0
127.75697,127.991974,72,110,0
127.75697,127.991974,60,110,0
127.99698,128.23198,67,110,0
127.99698,128.23198,55,110,0
128.47697,128.71198,67,110,0
128.47697,128.71198,55,110,0
128.71698,128.95198,72,110,0
128.71698,128.95198,60,110,0
128.95697,129.19197,70,110,0
128.95697,129.19197,58,110,0
129.19698,129.43198,72,110,0
129.19698,129.43198,60,110,0
129.43698,129.67198,75,110,0
129.43698,129.67198,63,110,0
129.67697,129.91197,75,110,0
129.67697,129.91197,63,110,0
129.91698,130.15198,69,110,0
129.91698,130.15198,57,110,0
130.39697,130.63197,70,110,0
130.39697,130.63197,58,110,0
130.63698,130.87198,73,110,0
130.63698,130.87198,61,110,0
130.87697,131.11197,72,110,0
130.87697,131.11197,60,110,0
131.11697,131.35197,73,110,0
131.11697,131.35197,61,110,0
131.35698,131.59198,77,110,0
131.35698,131.59198,65,110,0
131.59697,131.83197,75,110,0
131.59697,131.83197,63,110,0
131.83698,131.95198,70,110,0
131.95697,132.07198,68,110,0
132.07698,132.19197,67,110,0
132.19698,132.31198,63,110,0
132.31697,132.43198,65,110,0
132.43698,132.55197,67,110,0
132.55698,132.67198,68,110,0
132.67697,132.79198,67,110,0
132.79698,132.91197,68,110,0
132.91698,133.03198,70,110,0
133.03697,133.15198,72,110,0
133.15698,133.27197,73,110,0
133.27698,133.39198,72,110,0
133.03697,133.51198,80,110,0
133.39697,133.51198,70,110,0
133.51698,133.99197,84,110,0
133.99698,134.59198,79,110,0
134.59697,134.71198,82,110,0
134.71698,134.83197,85,110,0
134.83698,134.95198,89,110,0
134.95697,135.07198,87,110,0
135.07698,135.19197,89,110,0
135.19698,135.31198,87,110,0
135.31697,135.43198,85,110,0
135.43698,135.55197,84,110,0
135.55698,135.67198,85,110,0
135.67697,135.79198,84,110,0
135.79698,135.91197,82,110,0
135.91698,136.03198,84,110,0
136.03697,136.15198,85,110,0
136.15698,136.27197,84,110,0
136.27698,136.39198,82,110,0
136.39697,136.51198,81,110,0
136.51698,136.63197,84,110,0
136.63698,136.75197,87,110,0
136.75697,136.87198,90,110,0
136.87697,136.99197,89,110,0
136.99698,137.11197,90,110,0
137.11697,137.23198,89,110,0
137.23697,137.35197,87,110,0
137.35698,137.47197,85,110,0
137.47697,137.59198,87,110,0
137.59697,137.71198,85,110,0
137.71698,137.83197,84,110,0
137.83698,137.95198,85,110,0
137.95697,138.07198,87,110,0
138.07698,138.19197,85,110,0
138.19698,138.31198,84,110,0
138.31697,138.43198,82,110,0
138.43698,138.55197,85,110,0
138.55698,138.67198,89,110,0
138.67697,138.79198,92,110,0
138.79698,138.91197,90,110,0
138.91698,139.03198,92,110,0
139.03697,139.15198,90,110,0
139.15698,139.27197,89,110,0
139.27698,139.39198,87,110,0
139.39697,139.51198,89,110,0
139.51698,139.63197,87,110,0
139.63698,139.75197,85,110,0
139.75697,139.87198,87,110,0
139.87697,139.99197,89,110,0
139.99698,140.11197,87,110,0
140.11697,140.23198,85,110,0
140.23697,140.35197,84,110,0
140.35698,140.47197,87,110,0
140.47697,140.59198,90,110,0
140.59697,140.71198,94,110,0
140.71698,140.83197,92,110,0
140.83698,140.95198,94,110,0
140.95697,141.07198,92,110,0
141.07698,141.19197,90,110,0
141.19698,141.31198,89,110,0
141.31697,141.43198,90,110,0
141.43698,141.55197,89,110,0
141.55698,141.67198,87,110,0
141.67697,143.59198,89,120,0
142.63698,143.59198,37,120,0
143.59697,145.67026,38,120,0
144.55698,145.67026,95,120,0
146.42807,148.37183,87,120,0
147.77808,148.37183,84,80,0
148.22807,148.38432,80,80,0
148.37807,148.38432,80,80,0
148.97807,149.27182,79,80,0
149.42807,149.57182,77,80,0
149.57808,150.17183,77,80,0
150.17807,150.47182,75,80,0
150.62807,150.80775,85,80,0
150.62807,150.80775,79,80,0
150.62807,150.80775,73,80,0
150.81557,151.55775,85,80,0
150.81557,151.55775,79,80,0
150.81557,151.55775,73,80,0
151.56557,152.30775,84,80,0
151.56557,152.30775,80,80,0
151.56557,152.30775,72,80,0
152.39891,152.47182,87,80,0
152.48224,152.55516,86,80,0
152.56557,152.63849,87,80,0
152.64891,152.72182,89,80,0
152.73224,152.80516,87,80,0
152.81557,152.88849,83,80,0
152.89891,152.97182,84,80,0
152.98224,153.05516,83,80,0
153.06557,153.13849,84,80,0
153.14891,153.22182,85,80,0
153.23224,153.30516,84,80,0
153.31557,153.40932,79,80,0
153.41557,153.50932,80,80,0
153.51558,153.60933,82,80,0
153.61557,153.70932,80,80,0
153.71558,153.80933,79,80,0
153.81557,153.90932,80,80,0
153.91557,154.01784,80,80,0
154.02353,154.1258,79,80,0
154.13148,154.23375,80,80,0
154.23944,154.3417,82,80,0
154.3474,154.44966,80,80,0
154.46103,154.72807,79,80,0
154.87012,155.0008,77,80,0
155.00648,155.10875,77,80,0
155.11444,155.2167,75,80,0
155.22238,155.32466,77,80,0
155.33034,155.43262,79,80,0
155.4383,155.54057,77,80,0
155.55194,155.81898,75,80,0
155.96103,156.12074,85,80,0
155.96103,156.12074,79,80,0
155.96103,156.12074,73,80,0
156.12769,156.78741,85,80,0
156.12769,156.78741,79,80,0
156.12769,156.78741,73,80,0
156.79436,157.45407,84,80,0
156.79436,157.45407,80,80,0
156.79436,157.45407,72,80,0
158.87769,159.11728,89,80,0
158.87769,159.11728,82,80,0
158.87769,159.11728,79,80,0
159.12769,160.11728,89,80,0
159.12769,160.11728,82,80,0
159.12769,160.11728,79,80,0
160.12769,161.11728,87,80,0
160.12769,161.11728,80,80,0
160.12769,161.11728,75,80,0
162.36769,162.4827,92,120,0
162.48769,162.60269,95,120,0
162.6077,162.72269,92,120,0
162.72769,162.84268,95,120,0
162.84769,162.96269,89,120,0
162.96768,163.08269,92,120,0
163.08769,163.20268,86,120,0
163.20769,163.3227,89,120,0
163.32768,163.44269,83,120,0
163.4477,163.56268,86,120,0
163.56769,163.6827,80,120,0
163.68768,163.80269,83,120,0
163.8077,163.92268,77,120,0
163.92769,164.0427,80,120,0
164.04768,164.16269,74,120,0
164.1677,164.28268,77,120,0
164.28769,164.4027,71,120,0
164.40768,164.53268,74,120,0
164.5277,164.64268,68,120,0
164.64769,164.7627,71,120,0
164.76768,164.88269,65,120,0
164.8877,165.00269,68,120,0
165.00769,165.1227,62,80,0
165.12769,165.24269,63,82,0
165.2477,165.36269,65,85,0
165.36769,165.4827,67,88,0
165.48769,165.60269,68,91,0
165.6077,165.72269,70,94,0
165.72769,165.84268,72,96,0
165.84769,165.96269,73,99,0
165.96768,166.08269,75,102,0
166.08769,166.20268,76,105,0
166.20769,166.3227,77,108,0
166.32768,166.44269,75,110,0
166.4477,166.56268,77,120,0
166.54768,166.66269,75,120,0
166.68768,166.80269,72,120,0
166.8077,166.92268,68,120,0
166.92769,167.0427,77,120,0
167.04768,167.16269,75,120,0
167.1677,167.28268,72,120,0
167.28769,167.4027,68,120,0
167.40768,167.52269,77,120,0
167.5277,167.64268,75,120,0
167.64769,167.7627,73,120,0
167.76768,167.88269,70,120,0
167.8877,168.00269,77,120,0
168.00769,168.1227,75,120,0
168.12769,168.24269,73,120,0
168.2477,168.36269,70,120,0
168.36769,168.4827,82,120,0
168.48769,168.60269,80,120,0
168.6077,168.72269,75,120,0
168.72769,168.84268,72,120,0
168.84769,168.96269,82,120,0
168.96768,169.08269,80,120,0
169.08769,169.20268,75,120,0
169.20769,169.3227,72,120,0
169.32768,169.44269,82,120,0
169.4477,169.56268,80,120,0
169.56769,169.6827,77,120,0
169.68768,169.80269,73,120,0
169.8077,169.92268,87,120,0
169.92769,170.0427,85,120,0
170.04768,170.16269,80,120,0
170.1677,170.28268,73,120,0
170.28769,170.4027,87,120,0
170.40768,170.52269,85,120,0
170.5277,170.64268,80,120,0
170.64769,170.7627,73,120,0
170.76768,170.88269,87,120,0
170.8877,171.00269,85,120,0
171.00769,171.1227,80,120,0
171.12769,171.24269,73,120,0
171.2477,171.36269,85,120,0
171.36769,171.4827,84,120,0
171.48769,171.60269,80,120,0
171.6077,171.72269,75,120,0
171.72769,171.84268,85,120,0
171.84769,171.96269,84,120,0
171.96768,172.08269,80,120,0
172.08769,172.20268,75,120,0
172.20769,172.3227,85,120,0
172.32768,172.44269,84,120,0
172.4477,172.56268,80,120,0
172.56769,172.6827,75,120,0
172.68768,172.80269,84,120,0
172.8077,172.92268,82,120,0
172.92769,173.0427,79,120,0
173.04768,173.16269,73,120,0
173.1677,173.4027,75,120,0
173.1677,173.4027,72,120,0
173.1677,173.64268,80,120,0
173.40768,173.64268,75,120,0
173.40768,173.64268,72,120,0
173.64769,173.88269,75,120,0
173.64769,173.88269,72,120,0
173.64769,174.1227,84,120,0
173.8877,174.1227,75,120,0
173.8877,174.1227,72,120,0
174.12769,174.36269,75,120,0
174.12769,174.36269,70,120,0
174.36769,174.60269,75,120,0
174.36769,174.60269,70,120,0
174.6077,174.84268,75,120,0
174.6077,174.84268,70,120,0
174.12769,175.08269,79,120,0
174.84769,175.08269,75,120,0
174.84769,175.08269,70,120,0
175.08769,175.3227,75,120,0
175.08769,175.3227,68,120,0
175.08769,175.56268,78,120,0
175.32768,175.56268,75,120,0
175.32768,175.56268,68,120,0
175.56769,175.80269,75,120,0
175.56769,175.80269,68,120,0
175.56769,176.0427,80,120,0
175.8077,176.0427,75,120,0
175.8077,176.0427,68,120,0
176.04768,176.28268,73,120,0
176.04768,176.28268,68,120,0
176.28769,176.52269,73,120,0
176.28769,176.52269,68,120,0
176.5277,176.7627,73,120,0
176.5277,176.7627,68,120,0
176.04768,177.00269,77,120,0
176.76768,177.00269,73,120,0
176.76768,177.00269,68,120,0
177.00769,177.24269,73,120,0
177.00769,177.24269,68,120,0
177.00769,177.4827,76,120,0
177.2477,177.4827,73,120,0
177.2477,177.4827,68,120,0
177.48769,177.72269,73,120,0
177.48769,177.72269,68,120,0
177.48769,177.96269,80,120,0
177.72769,177.96269,73,120,0
177.72769,177.96269,68,120,0
177.96768,178.44269,75,120,0
177.96768,178.44269,72,120,0
177.96768,178.44269,68,120,0
178.4477,178.80269,80,120,0
178.4477,178.80269,68,120,0
178.8077,178.92268,84,120,0
178.8077,178.92268,72,120,0
178.92769,179.16269,75,120,0
178.92769,179.16269,87,120,0
179.1677,179.4027,87,120,0
179.40768,179.52269,87,120,0
179.46768,179.58269,89,120,0
179.5277,179.64268,87,120,0
179.58769,179.70268,89,120,0
179.64769,179.7627,87,120,0
179.70769,179.8227,89,120,0
179.76768,179.88269,86,120,0
179.82768,179.94269,87,120,0
179.8877,179.94269,87,120,0
180.12769,180.24269,89,120,0
180.2477,180.36269,91,120,0
180.36769,180.60269,91,120,0
180.6077,180.84268,92,120,0
181.08769,181.3227,75,120,0
181.32768,181.44269,75,120,0
181.3877,181.50269,77,120,0
181.4477,181.56268,75,120,0
181.50769,181.6227,77,120,0
181.56769,181.6827,75,120,0
181.62769,181.74269,77,120,0
181.68768,181.80269,74,120,0
181.7477,181.86269,75,120,0
181.8077,181.86269,75,120,0
182.04768,182.16269,77,120,0
182.1677,182.28268,79,120,0
182.28769,182.52269,79,120,0
182.5277,182.7627,80,120,0
183.00769,183.24269,63,120,0
183.2477,183.36269,65,120,0
183.3077,183.42268,63,120,0
183.36769,183.4827,65,120,0
183.42769,183.5427,63,120,0
183.48769,183.60269,65,120,0
183.6077,183.72269,67,120,0
183.72769,183.84268,68,120,0
183.84769,183.96269,70,120,0
183.96768,184.08269,72,120,0
184.08769,184.20268,71,120,0
184.20769,184.3227,72,120,0
184.32768,184.44269,73,120,0
184.4477,184.56268,74,120,0
184.56769,184.6827,73,120,0
184.68768,184.80269,74,120,0
184.8077,184.92268,75,120,0
184.92769,185.0427,76,120,0
185.04768,185.16269,75,120,0
185.1677,185.28268,76,120,0
185.28769,185.4027,77,120,0
185.40768,185.52269,78,120,0
185.5277,185.64268,79,120,0
185.64769,185.7627,80,120,0
185.76768,185.88269,82,120,0
185.8877,186.00269,84,120,0
186.00769,186.1227,83,120,0
186.12769,186.24269,84,120,0
186.2477,186.36269,85,120,0
186.36769,186.4827,86,120,0
186.48769,186.60269,85,120,0
186.6077,186.72269,86,120,0
186.72769,186.84268,87,120,0
186.84769,186.96269,88,120,0
186.96768,187.08269,87,120,0
187.08769,187.20268,88,120,0
187.20769,187.3227,89,120,0
187.32768,187.44269,90,120,0
187.4477,187.56268,91,120,0
187.56769,188.0427,92,120,0
187.56769,188.0427,80,120,0
188.04768,188.52269,68,120,0
188.04768,188.52269,56,120,0
189.2477,189.3227,43,120,0
189.32768,189.4027,45,120,0
189.40768,189.4827,47,120,0
189.48769,189.96269,48,120,0
191.1677,191.24269,43,120,0
191.2477,191.3227,45,120,0
191.32768,191.4027,47,120,0
191.40768,191.88269,48,120,0
191.8877,192.36269,51,120,0
192.34769,194.74269,47,120,0
195.00769,195.08269,43,120,0
195.08769,195.16269,45,120,0
195.1677,195.24269,47,120,0
195.2477,195.72269,48,120,0
195.72769,196.20268,51,120,0
196.20769,196.92268,47,120,0
196.92769,197.16269,56,120,0
197.1677,197.4027,55,120,0
197.40768,197.64268,53,120,0
197.64769,197.88269,51,120,0
197.8877,198.1227,50,120,0
198.12769,198.24269,51,120,0
198.2477,198.36269,53,120,0
198.36769,198.4827,51,120,0
198.48769,198.60269,50,120,0
198.6077,198.84268,48,120,0
198.84769,199.08269,56,120,0
199.08769,199.3227,55,110,0
199.32768,199.56268,53,100,0
199.56769,199.80269,51,90,0
199.8077,200.0427,50,80,0
200.04768,200.16269,51,80,0
200.1677,200.28268,53,80,0
200.28769,200.4027,51,80,0
200.40768,200.52269,50,80,0
200.5277,200.64268,48,80,0
200.64769,200.7627,56,80,0
200.76768,200.88269,58,81,0
200.8877,201.00269,56,82,0
201.00769,201.1227,55,82,0
201.12769,201.24269,56,83,0
201.2477,201.36269,55,84,0
201.36769,201.4827,53,85,0
201.48769,201.60269,51,85,0
201.6077,201.72269,53,86,0
201.72769,201.84268,51,87,0
201.84769,201.96269,50,87,0
201.96768,202.08269,51,88,0
202.08769,202.20268,53,89,0
202.20769,202.3227,51,90,0
202.32768,202.44269,50,90,0
202.4477,202.56268,48,91,0
202.56769,202.6827,55,92,0
202.68768,202.80269,53,92,0
202.8077,202.92268,51,93,0
202.92769,203.0427,53,94,0
203.04768,203.16269,55,95,0
203.1677,203.28268,53,95,0
203.28769,203.4027,51,96,0
203.40768,203.52269,50,97,0
203.5277,203.64268,56,98,0
203.64769,203.7627,55,98,0
203.76768,203.88269,53,99,0
203.8877,204.00269,55,100,0
204.00769,204.1227,56,100,0
204.12769,204.24269,55,101,0
204.2477,204.36269,53,102,0
204.36769,204.4827,52,103,0
204.48769,204.60269,58,103,0
204.6077,204.72269,56,104,0
204.72769,204.84268,55,105,0
204.84769,204.96269,56,105,0
204.96768,205.08269,60,106,0
205.08769,205.20268,55,107,0
205.20769,205.3227,60,108,0
205.32768,205.44269,53,108,0
205.4477,205.56268,60,109,0
205.56769,205.6827,54,110,0
205.68768,205.80269,60,110,0
205.8077,205.92268,59,120,0
205.92769,206.0427,57,110,0
206.04768,206.16269,55,110,0
206.1677,206.28268,62,110,0
206.28769,206.4027,60,120,0
206.40768,206.52269,59,110,0
206.5277,206.64268,65,110,0
206.64769,206.7627,63,110,0
206.76768,206.88269,62,120,0
206.8877,207.00269,68,110,0
207.00769,207.1227,67,110,0
207.12769,207.24269,65,110,0
207.2477,207.36269,74,120,0
207.36769,207.4827,72,110,0
207.48769,207.60269,71,110,0
207.6077,207.72269,77,110,0
207.72769,207.84268,75,120,0
207.84769,207.96269,74,110,0
207.96768,208.08269,80,110,0
208.08769,208.20268,79,110,0
208.20769,208.3227,77,120,0
208.32768,208.44269,86,110,0
208.4477,208.56268,84,110,0
208.56769,208.6827,83,110,0
208.68768,208.80269,89,120,0
208.8077,208.92268,87,108,0
208.92769,209.0427,86,106,0
209.0277,209.14268,92,105,0
209.1677,209.28268,91,102,0
209.28769,209.4027,89,100,0
209.40768,209.52269,87,98,0
209.5277,209.64268,86,96,0
209.64769,209.7627,84,94,0
209.76768,209.88269,83,92,0
209.8877,210.00269,80,90,0
210.00769,210.1227,79,88,0
210.12769,210.24269,77,86,0
210.2477,210.36269,75,84,0
210.36769,210.4827,74,82,0
210.48769,210.60269,79,80,0
210.6077,210.84268,67,80,0
210.6077,210.84268,63,80,0
210.6077,211.08269,72,80,0
210.84769,211.08269,67,80,0
210.84769,211.08269,63,80,0
211.08769,211.3227,67,80,0
211.08769,211.3227,63,80,0
211.08769,211.56268,75,80,0
211.32768,211.56268,67,80,0
211.32768,211.56268,63,80,0
211.56769,211.80269,67,80,0
211.56769,211.80269,65,80,0
211.8077,212.0427,67,80,0
211.8077,212.0427,65,80,0
211.56769,212.28268,71,80,0
212.04768,212.28268,67,80,0
212.04768,212.28268,65,80,0
212.28769,212.52269,67,80,0
212.28769,212.52269,65,80,0
212.28769,212.52269,80,80,0
212.5277,212.77248,79,80,0
212.5277,212.77248,67,80,0
212.5277,212.77248,65,80,0
212.7777,213.02248,77,80,0
212.7777,213.02248,67,80,0
212.7777,213.02248,65,80,0
213.0277,213.27248,75,80,0
213.0277,213.27248,67,80,0
213.0277,213.27248,65,80,0
213.2777,213.53313,74,80,0
213.2777,213.53313,67,80,0
213.2777,213.53313,65,80,0
213.53856,213.66924,75,80,0
213.67493,213.8056,77,80,0
213.81128,213.94197,75,80,0
213.94765,214.07832,74,80,0
214.08401,214.35106,72,80,0
214.08401,214.35106,67,80,0
214.35674,214.62378,80,80,0
214.35674,214.62378,67,80,0
214.62947,214.89651,79,80,0
214.62947,214.89651,67,80,0
214.90219,215.16924,77,80,0
214.90219,215.16924,67,80,0
214.90219,215.16924,71,80,0
215.17493,215.45468,75,80,0
215.17493,215.45468,67,80,0
215.17493,215.45468,72,80,0
215.46063,215.7404,74,80,0
215.46063,215.7404,67,80,0
215.74635,215.89009,75,80,0
215.89635,216.0401,77,80,0
216.04634,216.20607,75,80,0
216.21301,216.41837,74,80,0
216.04634,216.91689,67,80,0
216.4273,216.91689,72,80,0
216.9273,217.07104,89,80,0
216.9273,217.22105,92,80,0
217.0773,217.22105,79,80,0
217.2273,217.34709,87,80,0
217.2273,217.47209,91,80,0
217.3523,217.47209,79,81,0
217.4773,217.59709,86,82,0
217.4773,217.72209,89,82,0
217.6023,217.72209,79,83,0
217.7273,217.84709,84,85,0
217.7273,217.97209,87,85,0
217.8523,217.97209,79,86,0
217.9773,218.22209,86,87,0
218.1023,218.22209,79,89,0
218.1023,218.22209,80,89,0
218.2273,218.47209,87,90,0
218.3523,218.47209,79,91,0
218.4773,218.72209,86,93,0
218.6023,218.72209,79,94,0
218.7273,218.97209,84,95,0
218.8523,218.97209,79,96,0
218.9773,219.22209,83,98,0
219.1023,219.22209,79,99,0
219.2273,219.34709,79,100,0
219.2273,219.47209,84,100,0
219.3523,219.47209,72,102,0
219.4773,219.59709,79,103,0
219.4773,219.72209,82,103,0
219.6023,219.72209,72,104,0
219.7273,219.97209,80,106,0
219.8523,219.97209,72,107,0
219.9773,220.22209,79,108,0
220.1023,220.22209,72,109,0
220.2273,220.47209,80,110,0
220.3523,220.47209,72,110,0
220.4773,220.72209,77,110,0
220.6023,220.72209,72,110,0
220.7273,220.97209,75,110,0
220.8523,220.97209,72,110,0
220.9773,221.22209,74,110,0
221.1023,221.22209,72,110,0
221.2273,221.47209,74,110,0
221.2273,221.72209,65,110,0
221.4773,221.72209,72,95,0
221.7273,222.29277,66,80,0
221.7273,222.95845,72,80,0
222.29872,222.95845,67,80,0
222.9654,223.62512,69,80,0
222.9654,223.62512,72,80,0
223.63206,223.79178,72,80,0
223.7154,223.87512,74,80,0
223.79872,223.95845,72,80,0
223.88206,224.04178,74,80,0
223.9654,224.12512,72,80,0
224.04872,224.20845,74,80,0
223.63206,224.29178,67,80,0
224.13206,224.29178,72,80,0
224.2154,224.37512,74,80,0
224.29872,224.62512,75,80,0
224.63206,224.95845,74,80,0
224.9654,225.4404,72,110,0
224.9654,225.4404,60,110,0
225.44539,225.9204,63,110,0
225.9254,226.52039,59,110,0
226.52539,226.6404,62,110,0
226.64539,226.76039,65,110,0
226.7654,226.88039,68,110,0
226.88539,227.0004,67,110,0
227.00539,227.12039,68,110,0
227.1254,227.24039,67,110,0
227.24539,227.3604,65,110,0
227.36539,227.4804,63,110,0
227.4854,227.60039,65,110,0
227.58539,227.7004,63,110,0
227.72539,227.8404,62,110,0
227.8454,227.96039,63,110,0
227.9654,228.0804,65,110,0
228.08539,228.2004,63,110,0
228.2054,228.32039,62,110,0
228.3254,228.4404,60,110,0
228.44539,228.5604,63,110,0
228.5654,228.68039,67,110,0
228.6854,228.8004,70,110,0
228.80539,228.9204,68,110,0
228.9254,229.04039,70,110,0
229.0454,229.16039,68,110,0
229.16539,229.2804,67,110,0
229.28539,229.40039,65,110,0
229.4054,229.52039,67,110,0
229.52539,229.6404,65,110,0
229.64539,229.76039,63,110,0
229.7654,229.88039,65,110,0
229.88539,230.0004,67,110,0
230.00539,230.12039,65,110,0
230.1254,230.24039,63,110,0
230.24539,230.3604,62,110,0
230.36539,230.4804,65,110,0
230.4854,230.60039,68,110,0
230.6054,230.7204,72,110,0
230.72539,230.8404,70,110,0
230.8454,230.96039,72,110,0
230.9654,231.0804,70,110,0
231.08539,231.2004,68,110,0
231.2054,231.32039,67,110,0
231.3254,231.4404,68,110,0
231.44539,231.5604,67,110,0
231.5654,231.68039,65,110,0
231.6854,231.8004,67,110,0
231.80539,231.9204,70,110,0
231.9254,232.04039,68,110,0
232.0454,232.16039,67,110,0
232.16539,232.2804,65,110,0
232.28539,232.40039,63,110,0
232.4054,232.52039,62,110,0
232.52539,232.6404,63,110,0
232.64539,232.76039,65,110,0
232.7654,232.88039,59,110,0
232.88539,233.0004,58,110,0
233.00539,233.12039,59,110,0
233.1254,233.24039,58,110,0
233.24539,233.3604,62,110,0
233.36539,233.4804,65,110,0
233.4854,233.60039,68,110,0
233.6054,233.8404,67,110,0
233.8454,234.0804,65,110,0
233.8454,234.0804,53,110,0
234.08539,234.32039,70,110,0
234.08539,234.32039,58,110,0
234.3254,234.5604,68,110,0
234.3254,234.5604,56,110,0
234.5654,234.8004,70,110,0
234.5654,234.8004,58,110,0
234.80539,235.04039,73,110,0
234.80539,235.04039,61,110,0
235.0454,235.2804,72,110,0
235.0454,235.2804,60,110,0
235.28539,235.52039,67,110,0
235.28539,235.52039,55,110,0
235.7654,236.0004,67,110,0
235.7654,236.0004,55,110,0
236.00539,236.24039,72,110,0
236.00539,236.24039,60,110,0
236.24539,236.4804,70,110,0
236.24539,236.4804,58,110,0
236.4854,236.7204,72,110,0
236.4854,236.7204,60,110,0
236.72539,236.96039,75,110,0
236.72539,236.96039,63,110,0
236.9654,237.2004,75,110,0
236.9654,237.2004,63,110,0
237.2054,237.4404,69,110,0
237.2054,237.4404,57,110,0
237.6854,237.9204,70,110,0
237.6854,237.9204,58,110,0
237.9254,238.16039,73,110,0
237.9254,238.16039,61,110,0
238.16539,238.40039,72,110,0
238.16539,238.40039,60,110,0
238.4054,238.6404,73,110,0
238.4054,238.6404,61,110,0
238.64539,238.88039,77,110,0
238.64539,238.88039,65,110,0
238.88539,239.12039,75,110,0
238.88539,239.12039,63,110,0
239.1254,239.24039,70,110,0
239.24539,239.3604,68,110,0
239.36539,239.4804,67,110,0
239.4854,239.60039,63,110,0
239.6054,239.7204,65,110,0
239.72539,239.8404,67,110,0
239.8454,239.96039,68,110,0
239.9654,240.0804,67,110,0
240.08539,240.2004,68,110,0
240.2054,240.32039,70,110,0
240.3254,240.4404,72,110,0
240.44539,240.5604,73,110,0
240.5654,240.68039,72,110,0
240.3254,240.8004,80,110,0
240.6854,240.8004,70,110,0
240.80539,241.2804,84,110,0
241.28539,241.88039,79,110,0
241.88539,242.0004,82,110,0
242.00539,242.12039,85,110,0
242.1254,242.24039,89,110,0
242.24539,242.3604,87,110,0
242.36539,242.4804,89,110,0
242.4854,242.60039,87,110,0
242.6054,242.7204,85,110,0
242.72539,242.8404,84,110,0
242.8454,242.96039,85,110,0
242.9654,243.0804,84,110,0
243.08539,243.2004,82,110,0
243.2054,243.32039,84,110,0
243.3254,243.4404,85,110,0
243.44539,243.5604,84,110,0
243.5654,243.68039,82,110,0
243.6854,243.8004,81,110,0
243.80539,243.9204,84,110,0
243.9254,244.04039,87,110,0
244.0454,244.16039,90,110,0
244.16539,244.2804,89,110,0
244.28539,244.40039,90,110,0
244.4054,244.52039,89,110,0
244.52539,244.6404,87,110,0
244.64539,244.76039,85,110,0
244.7654,244.88039,87,110,0
244.88539,245.0004,85,110,0
245.00539,245.12039,84,110,0
245.1254,245.24039,85,110,0
245.24539,245.3604,87,110,0
245.36539,245.4804,85,110,0
245.4854,245.60039,84,110,0
245.6054,245.7204,82,110,0
245.72539,245.8404,85,110,0
245.8454,245.96039,89,110,0
245.9654,246.0804,92,110,0
246.08539,246.2004,90,110,0
246.2054,246.32039,92,110,0
246.3254,246.4404,90,110,0
246.44539,246.5604,89,110,0
246.5654,246.68039,87,110,0
246.6854,246.8004,89,110,0
246.80539,246.9204,87,110,0
246.9254,247.04039,85,110,0
247.0454,247.16039,87,110,0
247.16539,247.2804,89,110,0
247.28539,247.40039,87,110,0
247.4054,247.52039,85,110,0
247.52539,247.6404,84,110,0
247.64539,247.76039,87,110,0
247.7654,247.88039,90,110,0
247.88539,248.0004,94,110,0
248.00539,248.12039,92,110,0
248.1254,248.24039,94,110,0
248.24539,248.3604,92,110,0
248.36539,248.4804,90,110,0
248.4854,248.60039,89,110,0
248.6054,248.7204,90,110,0
248.72539,248.8404,89,110,0
248.8454,248.96039,87,110,0
248.9654,250.88039,89,120,0
249.9254,250.88039,37,120,0
250.88539,252.98955,38,120,0
251.86539,252.98955,95,120,0
253.59735,255.39111,87,120,0
254.79736,255.39111,84,80,0
255.24736,255.39111,80,80,0
255.39735,255.9911,80,80,0
255.99736,256.2911,79,80,0
256.44736,256.5911,77,80,0
256.59735,257.25708,77,80,0
257.26404,257.59042,75,80,0
257.76404,257.94373,85,80,0
257.76404,257.94373,79,80,0
257.76404,257.94373,73,80,0
257.95154,258.69373,85,80,0
257.95154,258.69373,79,80,0
257.95154,258.69373,73,80,0
258.70154,259.44373,84,80,0
258.70154,259.44373,80,80,0
258.70154,259.44373,72,80,0
259.57654,259.6859,87,80,0
259.70154,259.8109,86,80,0
259.82654,259.91403,87,80,0
259.9265,260.01404,89,80,0
260.02652,260.114,87,80,0
260.12653,260.19943,83,80,0
260.20987,260.28278,84,80,0
260.29318,260.36612,83,80,0
260.37653,260.44943,84,80,0
260.45987,260.53278,85,80,0
260.54318,260.61612,84,80,0
260.62653,260.72028,79,80,0
260.72653,260.82028,80,80,0
260.82654,260.9203,82,80,0
260.9265,261.02026,80,80,0
261.02652,261.12027,79,80,0
261.12653,261.22028,80,80,0
261.22653,261.33902,80,80,0
261.34528,261.45776,79,80,0
261.46402,261.57654,80,80,0
261.58276,261.69528,82,80,0
261.70154,261.81403,80,80,0
261.82654,262.12027,79,80,0
262.27652,262.4203,77,80,0
262.4265,262.53903,77,80,0
262.5453,262.65778,75,80,0
262.66403,262.77652,77,80,0
262.78278,262.89526,79,80,0
262.90152,263.01404,77,80,0
263.02652,263.32028,75,80,0
263.47653,263.62027,85,80,0
263.47653,263.62027,79,80,0
263.47653,263.62027,73,80,0
263.62653,264.28625,85,80,0
263.62653,264.28625,79,80,0
263.62653,264.28625,73,80,0
264.29318,264.9529,84,80,0
264.29318,264.9529,80,80,0
264.29318,264.9529,72,80,0
266.26938,266.47473,89,80,0
266.26938,266.47473,82,80,0
266.26938,266.47473,79,80,0
266.48367,267.33188,89,80,0
266.48367,267.33188,82,80,0
266.48367,267.33188,79,80,0
267.34082,268.18903,87,80,0
267.34082,268.18903,80,80,0
267.34082,268.18903,75,80,0
269.2951,269.4101,92,120,0
269.4151,269.5301,95,120,0
269.5351,269.6501,92,120,0
269.6551,269.77008,95,120,0
269.7751,269.89008,89,120,0
269.89508,270.0101,92,120,0
270.01508,270.1301,86,120,0
270.1351,270.2501,89,120,0
270.2551,270.3701,83,120,0
270.3751,270.49008,86,120,0
270.4951,270.61008,80,120,0
270.61508,270.7301,83,120,0
270.73508,270.8501,77,120,0
270.8551,270.9701,80,120,0
270.9751,271.0901,74,120,0
271.0951,271.21008,77,120,0
271.2151,271.33008,71,120,0
271.33508,271.4501,74,120,0
271.45508,271.5701,68,120,0
271.5751,271.6901,71,120,0
271.6951,271.8101,65,120,0
271.8151,271.93008,68,120,0
271.9351,272.05008,62,80,0
272.05508,272.1701,63,83,0
272.17508,272.2901,65,87,0
272.2951,272.4101,67,90,0
272.4151,272.5301,68,94,0
272.5351,272.6501,70,98,0
272.6551,272.77008,72,101,0
272.7751,272.89008,73,105,0
272.89508,273.0101,75,108,0
273.01508,273.1301,76,112,0
273.1351,273.2501,77,116,0
273.2551,273.3701,75,119,0
273.3751,273.49008,77,120,0
273.4751,273.5901,75,120,0
273.61508,273.7301,72,120,0
273.73508,273.8501,68,120,0
273.8551,273.9701,77,120,0
273.9751,274.0901,75,120,0
274.0951,274.21008,72,120,0
274.2151,274.33008,68,120,0
274.33508,274.4501,77,120,0
274.45508,274.5701,75,120,0
274.5751,274.6901,73,120,0
274.6951,274.8101,70,120,0
274.8151,274.93008,77,120,0
274.9351,275.05008,75,120,0
275.05508,275.1701,73,120,0
275.17508,275.2901,70,120,0
275.2951,275.4101,82,120,0
275.4151,275.5301,80,120,0
275.5351,275.6501,75,120,0
275.6551,275.77008,72,120,0
275.7751,275.89008,82,120,0
275.89508,276.0101,80,120,0
276.01508,276.1301,75,120,0
276.1351,276.2501,72,120,0
276.2551,276.3701,82,120,0
276.3751,276.49008,80,120,0
276.4951,276.61008,77,120,0
276.61508,276.7301,73,120,0
276.73508,276.8501,87,120,0
276.8551,276.9701,85,120,0
276.9751,277.0901,80,120,0
277.0951,277.21008,73,120,0
277.2151,277.33008,87,120,0
277.33508,277.4501,85,120,0
277.45508,277.5701,80,120,0
277.5751,277.6901,73,120,0
277.6951,277.8101,87,120,0
277.8151,277.93008,85,120,0
277.9351,278.05008,80,120,0
278.05508,278.1701,73,120,0
278.17508,278.2901,85,120,0
278.2951,278.4101,84,120,0
278.4151,278.5301,80,120,0
278.5351,278.6501,75,120,0
278.6551,278.77008,85,120,0
278.7751,278.89008,84,120,0
278.89508,279.0101,80,120,0
279.01508,279.1301,75,120,0
279.1351,279.2501,85,120,0
279.2551,279.3701,84,120,0
279.3751,279.49008,80,120,0
279.4951,279.61008,75,120,0
279.61508,279.7301,84,120,0
279.73508,279.8501,82,120,0
279.8551,279.9701,79,120,0
279.9751,280.0901,73,120,0
280.0951,280.33008,75,120,0
280.0951,280.33008,72,120,0
280.0951,280.5701,80,120,0
280.33508,280.5701,75,120,0
280.33508,280.5701,72,120,0
280.5751,280.8101,75,120,0
280.5751,280.8101,72,120,0
280.5751,281.05008,84,120,0
280.8151,281.05008,75,120,0
280.8151,281.05008,72,120,0
281.05508,281.2901,75,120,0
281.05508,281.2901,70,120,0
281.2951,281.5301,75,120,0
281.2951,281.5301,70,120,0
281.5351,281.77008,75,120,0
281.5351,281.77008,70,120,0
281.05508,282.0101,79,120,0
281.7751,282.0101,75,120,0
281.7751,282.0101,70,120,0
282.01508,282.2501,75,120,0
282.01508,282.2501,68,120,0
282.01508,282.49008,78,120,0
282.2551,282.49008,75,120,0
282.2551,282.49008,68,120,0
282.4951,282.7301,75,120,0
282.4951,282.7301,68,120,0
282.4951,282.9701,80,120,0
282.73508,282.9701,75,120,0
282.73508,282.9701,68,120,0
282.9751,283.21008,73,120,0
282.9751,283.21008,68,120,0
283.2151,283.4501,73,120,0
283.2151,283.4501,68,120,0
283.45508,283.6901,73,120,0
283.45508,283.6901,68,120,0
282.9751,283.93008,77,120,0
283.6951,283.93008,73,120,0
283.6951,283.93008,68,120,0
283.9351,284.1701,73,120,0
283.9351,284.1701,68,120,0
283.9351,284.4101,76,120,0
284.17508,284.4101,73,120,0
284.17508,284.4101,68,120,0
284.4151,284.6501,73,120,0
284.4151,284.6501,68,120,0
284.4151,284.89008,80,120,0
284.6551,284.89008,73,120,0
284.6551,284.89008,68,120,0
284.89508,285.3701,75,120,0
284.89508,285.3701,72,120,0
284.89508,285.3701,68,120,0
285.3751,285.7301,80,120,0
285.3751,285.7301,68,120,0
285.73508,285.8501,84,120,0
285.73508,285.8501,72,120,0
285.8551,286.0901,75,120,0
285.8551,286.0901,87,120,0
286.0951,286.33008,87,120,0
286.33508,286.4501,87,120,0
286.39508,286.5101,89,120,0
286.45508,286.5701,87,120,0
286.51508,286.6301,89,120,0
286.5751,286.6901,87,120,0
286.6351,286.7501,89,120,0
286.6951,286.8101,86,120,0
286.7551,286.8701,87,120,0
286.8151,286.8701,87,120,0
287.05508,287.1701,89,120,0
287.17508,287.2901,91,120,0
287.2951,287.5301,91,120,0
287.5351,287.77008,92,120,0
288.01508,288.2501,75,120,0
288.2551,288.3701,75,120,0
288.3151,288.43008,77,120,0
288.3751,288.49008,75,120,0
288.4351,288.55008,77,120,0
288.4951,288.61008,75,120,0
288.55508,288.6701,77,120,0
288.61508,288.7301,74,120,0
288.67508,288.7901,75,120,0
288.73508,288.7901,75,120,0
288.9751,289.0901,77,120,0
289.0951,289.21008,79,120,0
289.2151,289.4501,79,120,0
289.45508,289.6901,80,120,0
289.9351,290.1701,63,120,0
290.17508,290.2901,65,120,0
290.23508,290.3501,63,120,0
290.2951,290.4101,65,120,0
290.3551,290.4701,63,120,0
290.4151,290.5301,65,120,0
290.5351,290.6501,67,120,0
290.6551,290.77008,68,120,0
290.7751,290.89008,70,120,0
290.89508,291.0101,72,120,0
291.01508,291.1301,71,120,0
291.1351,291.2501,72,120,0
291.2551,291.3701,73,120,0
291.3751,291.49008,74,120,0
291.4951,291.61008,73,120,0
291.61508,291.7301,74,120,0
291.73508,291.8501,75,120,0
291.8551,291.9701,76,120,0
291.9751,292.0901,75,120,0
292.0951,292.21008,76,120,0
292.2151,292.33008,77,120,0
292.33508,292.4501,78,120,0
292.45508,292.5701,79,120,0
292.5751,292.6901,80,120,0
292.6951,292.8101,82,120,0
292.8151,292.93008,84,120,0
292.9351,293.05008,83,120,0
293.05508,293.1701,84,120,0
293.17508,293.2901,85,120,0
293.2951,293.4101,86,120,0
293.4151,293.5301,85,120,0
293.5351,293.6501,86,120,0
293.6551,293.77008,87,120,0
293.7751,293.89008,88,120,0
293.89508,294.0101,87,120,0
294.01508,294.1301,88,120,0
294.1351,294.2501,89,120,0
294.2551,294.3701,90,120,0
294.3751,294.49008,91,120,0
294.4951,294.9701,92,120,0
294.4951,294.9701,80,120,0
294.9751,295.4501,68,120,0
294.9751,295.4501,56,120,0
296.89508,297.3701,67,80,0
296.89508,297.3701,55,80,0
298.5751,298.6501,69,120,0
298.6551,298.7301,71,120,0
298.73508,298.8101,72,120,0
298.8151,299.2901,74,120,0
298.8151,299.2901,69,120,0
298.8151,299.2901,62,120,0
300.9751,301.05008,62,80,0
301.05508,301.1301,64,80,0
301.1351,301.21008,66,80,0
301.2151,301.6901,67,80,0
301.2151,301.6901,55,80,0
301.6951,302.1701,70,80,0
301.6951,302.1701,58,80,0
302.17508,303.1301,66,80,0
302.17508,303.1301,54,80,0
303.1351,303.61008,65,80,0
303.1351,303.61008,53,80,0
303.61508,304.0901,68,80,0
303.61508,304.0901,56,80,0
304.0951,305.05008,64,80,0
304.0951,305.05008,52,80,0
305.05508,305.5301,63,80,0
305.05508,305.5301,51,80,0
305.5351,306.0101,67,80,0
305.5351,306.0101,55,80,0
306.01508,306.49008,62,80,0
306.01508,306.49008,50,80,0
306.4951,306.8501,55,80,0
306.4951,306.8501,67,80,0
306.8551,306.9701,70,80,0
306.8551,306.9701,58,80,0
306.9751,307.4501,74,80,0
306.9751,307.4501,62,80,0
307.45508,307.93008,57,80,0
307.45508,307.93008,54,80,0
307.45508,307.93008,62,80,0
307.9351,308.89008,62,80,0
308.89508,309.8501,63,80,0
309.8551,310.8101,57,80,0
310.8151,310.93008,66,80,0
310.8751,310.99008,67,80,0
310.9351,311.05008,66,80,0
310.9951,311.11008,67,80,0
311.05508,311.1701,66,80,0
311.11508,311.2301,67,80,0
311.17508,311.2901,66,80,0
311.23508,311.3501,67,80,0
311.2951,311.4101,66,80,0
311.3551,311.4701,67,80,0
311.4151,311.5301,66,80,0
311.4751,311.5901,67,80,0
311.5351,311.6501,66,80,0
311.5951,311.71008,67,80,0
311.6551,311.77008,64,80,0
311.7151,311.83008,66,80,0
311.7751,311.89008,67,80,0
311.89508,312.0101,62,80,0
312.01508,312.1301,63,80,0
312.1351,312.2501,65,80,0
312.2551,312.3701,67,80,0
312.3751,312.49008,65,80,0
312.4951,312.61008,63,80,0
312.61508,312.7301,62,80,0
312.73508,313.21008,60,80,0
313.2151,313.6901,63,80,0
313.6951,314.4101,59,80,0
314.4151,314.6501,68,80,0
314.6551,314.89008,67,80,0
314.89508,315.1301,65,80,0
315.1351,315.3701,63,80,0
315.3751,315.61008,62,80,0
315.61508,315.7301,64,80,0
315.73508,315.8501,65,80,0
315.8551,315.9701,63,80,0
315.9751,316.0901,62,80,0
316.0951,316.21008,60,80,0
316.2151,316.33008,67,80,0
316.33508,316.4501,65,80,0
315.61508,316.5701,72,80,0
316.45508,316.5701,63,80,0
316.5751,317.05008,65,80,0
316.5751,317.5301,73,80,0
317.05508,317.5301,68,80,0
317.5351,318.2501,64,80,0
317.5351,318.49008,67,80,0
318.2551,318.49008,73,80,0
318.4951,318.61008,76,80,0
318.55508,318.6701,77,80,0
318.4951,318.7301,72,80,0
318.61508,318.7301,76,80,0
318.67508,318.7901,77,80,0
318.73508,318.8501,76,80,0
318.7951,318.9101,77,80,0
318.73508,318.9701,70,80,0
318.8551,318.9701,76,80,0
318.9151,319.0301,77,80,0
318.9751,319.0901,76,80,0
319.0351,319.1501,77,80,0
318.9751,319.21008,68,80,0
319.0951,319.21008,76,80,0
319.1551,319.27008,77,80,0
319.2151,319.33008,76,80,0
319.2751,319.39008,77,80,0
319.2151,319.4501,67,80,0
319.33508,319.4501,74,80,0
319.39508,319.5101,76,80,0
319.45508,319.5701,68,80,0
319.5751,319.6901,70,80,0
319.6951,319.8101,68,80,0
319.45508,319.93008,77,80,0
319.8151,319.93008,67,80,0
319.9351,320.05008,65,80,0
320.05508,320.1701,68,80,0
320.17508,320.2901,73,80,0
320.2951,320.4101,71,80,0
320.4151,320.5301,72,80,0
320.5351,320.6501,71,80,0
320.6551,320.77008,72,80,0
320.7751,320.89008,70,80,0
320.89508,321.0101,72,80,0
321.01508,321.1301,68,80,0
321.1351,321.2501,72,80,0
321.2551,321.3701,67,80,0
321.3751,321.49008,56,80,0
321.3751,321.49008,68,80,0
321.4951,321.61008,58,80,0
321.61508,321.7301,56,80,0
321.73508,321.8501,55,80,0
321.8551,321.9701,53,80,0
321.9751,322.0901,56,80,0
322.0951,322.21008,61,80,0
322.2151,322.33008,59,80,0
322.33508,322.4501,60,80,0
322.45508,322.5701,59,80,0
322.5751,322.6901,60,80,0
322.6951,322.8101,58,80,0
322.8151,322.93008,60,80,0
322.9351,323.05008,56,80,0
323.05508,323.1701,60,80,0
323.17508,323.2901,55,80,0
323.2951,323.4101,60,80,0
323.4151,323.5301,56,81,0
323.5351,323.6501,60,82,0
323.6551,323.77008,55,83,0
323.7751,323.89008,59,85,0
323.89508,324.0101,53,86,0
324.01508,324.1301,60,87,0
324.1351,324.2501,51,89,0
324.2551,324.3701,62,90,0
324.3751,324.49008,55,91,0
324.4951,324.61008,64,92,0
324.61508,324.7301,60,94,0
324.73508,324.8501,65,95,0
324.8551,324.9701,60,96,0
324.9751,325.0901,72,98,0
324.9751,325.0901,66,98,0
325.0951,325.21008,63,99,0
325.2151,325.33008,72,100,0
325.2151,325.33008,67,100,0
325.33508,325.4501,63,101,0
325.45508,325.5701,75,103,0
325.45508,325.5701,72,103,0
325.45508,325.5701,69,103,0
325.5751,325.6901,63,104,0
325.6951,325.8101,75,105,0
325.6951,325.8101,72,105,0
325.6951,325.8101,69,105,0
325.8151,325.93008,63,107,0
325.9351,326.05008,75,108,0
325.9351,326.05008,72,108,0
325.9351,326.05008,69,108,0
326.05508,326.1701,63,109,0
326.17508,326.2901,75,110,0
326.17508,326.2901,72,110,0
326.17508,326.2901,69,110,0
326.2951,326.4101,63,112,0
326.4151,326.5301,75,113,0
326.4151,326.5301,72,113,0
326.4151,326.5301,69,113,0
326.5351,326.6501,63,114,0
326.6551,326.77487,75,116,0
326.6551,326.77487,72,116,0
326.6551,326.77487,69,116,0
326.7801,326.89987,63,117,0
326.9051,327.03577,72,118,0
326.9051,327.03577,69,118,0
326.9051,327.03577,63,118,0
327.04144,327.17215,60,119,0
327.17783,327.67368,67,110,0
327.17783,327.67368,62,110,0
327.17783,327.67368,59,110,0
327.67868,328.1537,71,110,0
327.67868,328.1537,67,110,0
327.67868,328.1537,62,110,0
327.67868,328.1537,59,110,0
328.1587,329.11368,66,110,0
328.1587,329.11368,63,110,0
328.1587,329.11368,60,110,0
328.1587,329.11368,57,110,0
329.11868,329.5937,72,110,0
329.11868,329.5937,69,110,0
329.11868,329.5937,66,110,0
329.11868,329.5937,63,110,0
329.5987,330.0737,75,110,0
329.5987,330.0737,69,110,0
329.5987,330.0737,66,110,0
329.5987,330.0737,63,110,0
330.07867,331.0337,71,110,0
330.07867,331.0337,68,110,0
330.07867,331.0337,65,110,0
330.07867,331.0337,62,110,0
331.0387,331.51367,77,110,0
331.0387,331.51367,74,110,0
331.0387,331.51367,71,110,0
331.0387,331.51367,68,110,0
331.51868,331.99368,80,110,0
331.51868,331.99368,74,110,0
331.51868,331.99368,71,110,0
331.51868,331.99368,68,110,0
331.9987,332.95367,76,110,0
331.9987,332.95367,73,110,0
331.9987,332.95367,70,110,0
331.9987,332.95367,67,110,0
332.95868,333.4337,79,110,0
332.95868,333.4337,76,110,0
332.95868,333.4337,73,110,0
332.95868,333.4337,70,110,0
333.4387,333.9137,82,110,0
333.4387,333.9137,76,110,0
333.4387,333.9137,73,110,0
333.4387,333.9137,70,110,0
333.9187,334.8737,78,110,0
333.9187,334.8737,75,110,0
333.9187,334.8737,72,110,0
333.9187,334.8737,69,110,0
334.8787,335.3537,84,110,0
334.8787,335.3537,81,110,0
334.8787,335.3537,78,110,0
334.8787,335.3537,75,110,0
335.35867,335.83368,87,110,0
335.35867,335.83368,81,110,0
335.35867,335.83368,78,110,0
335.35867,335.83368,75,110,0
335.83868,336.5637,83,110,0
335.83868,336.5637,80,110,0
336.5587,336.5637,80,110,0
335.83868,336.5637,77,110,0
335.83868,336.5637,74,110,0
336.5587,336.7937,92,110,0
336.79868,336.9137,91,110,0
336.9187,337.0337,92,110,0
337.0387,337.1537,91,110,0
337.1587,337.27368,89,110,0
337.2787,337.39368,87,110,0
337.39868,337.51367,89,110,0
337.51868,337.6337,87,110,0
337.63867,337.7537,86,110,0
337.7587,337.8737,87,110,0
337.8787,337.99368,89,110,0
337.9987,338.11368,87,110,0
338.11868,338.23367,86,110,0
338.23868,338.3537,84,110,0
338.35867,338.4737,79,110,0
338.4787,338.5937,81,110,0
338.5987,338.71368,83,110,0
338.7187,339.1937,84,120,0
338.7187,339.1937,72,120,0
339.1987,339.67368,87,120,0
339.1987,339.67368,75,120,0
339.67868,340.39368,83,120,0
339.67868,340.39368,71,120,0
340.39868,340.6337,92,120,0
340.39868,340.6337,80,120,0
340.63867,340.8737,91,120,0
340.63867,340.8737,79,120,0
340.8787,341.11368,89,120,0
340.8787,341.11368,77,120,0
341.11868,341.3537,87,120,0
341.11868,341.3537,75,120,0
341.35867,341.5937,86,120,0
341.35867,341.5937,74,120,0
341.5987,341.71368,87,120,0
341.5987,341.71368,75,120,0
341.7187,341.83368,89,120,0
341.83868,341.95367,87,120,0
341.95868,342.0737,86,120,0
342.07867,342.3137,84,120,0
342.07867,342.3137,72,120,0
342.3187,342.55368,92,80,0
342.3187,342.55368,79,80,0
342.3187,342.55368,77,80,0
342.5587,342.80347,91,80,0
342.5587,342.80347,79,80,0
342.5587,342.80347,77,80,0
342.8087,343.05347,89,80,0
342.8087,343.05347,79,80,0
342.8087,343.05347,77,80,0
343.0587,343.32574,87,80,0
343.0587,343.32574,79,80,0
343.0587,343.32574,77,80,0
343.33142,343.59845,86,80,0
343.33142,343.59845,79,80,0
343.33142,343.59845,77,80,0
343.60413,343.7479,87,80,0
343.75415,343.8979,89,80,0
343.90414,344.04788,87,80,0
344.05414,344.19788,86,80,0
343.90414,344.53052,79,80,0
343.90414,344.53052,75,80,0
344.20413,344.53052,84,80,0
344.53748,344.86386,80,80,0
344.53748,344.86386,67,80,0
344.53748,344.86386,65,80,0
344.87082,345.1972,79,80,0
344.87082,345.1972,67,80,0
344.87082,345.1972,65,80,0
345.20413,345.53052,77,80,0
345.20413,345.53052,67,80,0
345.20413,345.53052,65,80,0
345.53748,345.86386,75,80,0
345.53748,345.86386,67,80,0
345.53748,345.86386,65,80,0
345.87082,346.1972,74,80,0
345.87082,346.1972,67,80,0
345.87082,346.1972,65,80,0
346.20413,346.36386,75,80,0
346.37082,346.53052,77,80,0
346.53748,346.71716,75,80,0
346.72498,346.93033,74,80,0
346.53748,347.42883,67,80,0
346.53748,347.42883,63,80,0
346.93927,347.42883,72,80,0
347.43927,347.583,92,80,0
347.43927,347.583,80,80,0
347.73926,347.86993,91,81,0
347.73926,347.86993,79,81,0
348.012,348.14267,89,82,0
348.012,348.14267,77,82,0
348.2847,348.4154,87,83,0
348.2847,348.4154,75,83,0
348.55743,348.6881,86,84,0
348.55743,348.6881,74,84,0
348.83017,348.96085,87,86,0
348.83017,348.96085,75,86,0
349.1029,349.23358,86,87,0
349.1029,349.23358,74,87,0
349.3756,349.5063,72,88,0
349.3756,349.5063,84,88,0
349.64835,349.77902,83,89,0
349.64835,349.77902,71,89,0
349.92108,350.05176,84,91,0
349.92108,350.05176,72,91,0
350.1938,350.3245,82,92,0
350.1938,350.3245,70,92,0
350.46652,350.5972,80,93,0
350.46652,350.5972,68,93,0
350.73926,350.86993,79,94,0
350.73926,350.86993,67,94,0
351.012,351.14267,80,96,0
351.012,351.14267,68,96,0
351.2847,351.41537,79,97,0
351.30743,351.4381,67,97,0
351.55743,351.6881,77,98,0
351.55743,351.6881,65,98,0
351.83017,351.96085,75,99,0
351.83017,351.96085,63,99,0
352.10287,352.36993,73,101,0
352.10287,352.36993,61,101,0
352.3756,352.64267,80,102,0
352.3756,352.64267,68,102,0
352.64835,352.91537,85,103,0
352.64835,352.91537,73,103,0
352.92108,353.1881,89,104,0
352.92108,353.1881,77,104,0
353.1938,353.46085,92,106,0
353.1938,353.46085,80,106,0
353.46652,353.73358,80,107,0
353.46652,353.73358,68,107,0
353.73926,354.0063,77,108,0
353.73926,354.0063,65,108,0
354.01196,354.27902,73,109,0
354.01196,354.27902,61,109,0
354.2847,354.57846,73,110,0
354.2847,354.57846,61,110,0
354.58472,354.87845,72,106,0
354.58472,354.87845,60,106,0
354.8847,355.17847,72,102,0
354.8847,355.17847,60,102,0
355.1847,355.47845,72,98,0
355.1847,355.47845,60,98,0
355.4847,355.77844,72,94,0
355.4847,355.77844,67,94,0
355.4847,355.77844,60,94,0
355.7847,356.37845,73,90,0
355.7847,356.37845,67,90,0
355.7847,356.37845,60,90,0
356.3847,356.67847,70,82,0
356.3847,356.67847,67,82,0
356.3847,356.67847,60,82,0
356.6847,356.7997,68,110,0
356.80472,356.9197,72,110,0
356.9247,357.0397,70,110,0
357.0447,357.1597,68,110,0
357.1647,357.2797,67,110,0
357.2847,357.39972,65,110,0
357.4047,357.5197,64,110,0
357.52472,357.6397,65,110,0
357.6447,357.7597,67,110,0
357.7647,357.8797,68,110,0
357.8847,357.9997,70,110,0
358.0047,358.1197,67,110,0
358.1247,358.23972,61,110,0
358.2447,358.3597,64,110,0
358.36472,358.4797,67,110,0
358.4847,358.8397,70,110,0
358.8447,359.0797,64,110,0
358.8447,359.0797,52,110,0
359.08472,359.3197,65,110,0
359.08472,359.3197,53,110,0
359.3247,359.5597,64,110,0
359.3247,359.5597,52,110,0
359.5647,359.7997,65,110,0
359.5647,359.7997,53,110,0
359.80472,360.0397,70,110,0
359.80472,360.0397,58,110,0
360.0447,360.2797,68,110,0
360.0447,360.2797,56,110,0
360.2847,360.5197,65,110,0
360.2847,360.5197,53,110,0
360.7647,360.9997,65,110,0
360.7647,360.9997,53,110,0
361.0047,361.23972,67,110,0
361.0047,361.23972,55,110,0
361.2447,361.7197,67,110,0
361.2447,361.7197,55,110,0
361.7247,361.95972,72,110,0
361.7247,361.95972,60,110,0
361.9647,362.1997,70,110,0
361.9647,362.1997,58,110,0
362.2047,362.4397,67,110,0
362.2047,362.4397,55,110,0
362.6847,362.9197,67,110,0
362.6847,362.9197,55,110,0
362.9247,363.1597,68,110,0
362.9247,363.1597,56,110,0
363.1647,363.6397,68,110,0
363.1647,363.6397,56,110,0
363.6447,363.8797,73,110,0
363.6447,363.8797,61,110,0
363.8847,364.1197,72,110,0
363.8847,364.1197,60,110,0
364.1247,364.23972,72,110,0
364.1247,364.23972,60,110,0
364.2447,364.3597,70,110,0
364.36472,364.5997,69,110,0
364.6047,364.7197,70,110,0
364.7247,364.8397,72,110,0
364.8447,364.95972,65,110,0
364.9647,365.0797,66,110,0
365.08472,365.1997,65,110,0
365.2047,365.3197,63,110,0
365.3247,365.4397,65,110,0
365.4447,365.5597,66,110,0
365.5647,365.67972,65,110,0
365.3247,365.7997,70,110,0
365.6847,365.7997,63,110,0
365.80472,365.9197,61,110,0
365.9247,366.0397,65,110,0
366.0447,366.1597,61,110,0
365.80472,366.2797,73,110,0
366.1647,366.2797,65,110,0
366.2847,366.39972,63,110,0
366.4047,366.5197,65,110,0
366.52472,366.6397,66,110,0
366.6447,366.7597,65,110,0
366.2847,366.9997,69,110,0
366.7647,366.9997,63,110,0
367.0047,367.1197,75,110,0
367.0047,367.23972,78,110,0
367.1247,367.23972,73,110,0
367.2447,367.3597,77,110,0
367.36472,367.4797,78,110,0
367.4847,367.5997,77,110,0
367.2447,367.7197,72,110,0
367.6047,367.7197,75,110,0
367.7247,367.8397,73,110,0
367.8447,367.95972,75,110,0
367.9647,368.0797,73,110,0
368.08472,368.1997,72,110,0
368.2047,368.3197,73,110,0
368.3247,368.4397,75,110,0
368.4447,368.5597,73,110,0
368.5647,368.67972,72,110,0
368.6847,368.7997,70,110,0
368.80472,368.9197,73,110,0
368.9247,369.0397,77,110,0
369.0447,369.1597,80,110,0
369.1647,369.2797,78,110,0
369.2847,369.39972,80,110,0
369.4047,369.5197,78,110,0
369.52472,369.6397,77,110,0
369.6447,369.7597,75,110,0
369.7647,369.8797,77,110,0
369.8847,369.9997,75,110,0
370.0047,370.1197,73,110,0
370.1247,370.23972,75,110,0
370.2447,370.3597,77,110,0
370.36472,370.4797,75,110,0
370.4847,370.5997,73,110,0
370.6047,370.7197,72,110,0
370.7247,370.8397,75,110,0
370.8447,370.95972,78,110,0
370.9647,371.0797,82,110,0
371.08472,371.1997,80,110,0
371.2047,371.3197,82,110,0
371.3247,371.4397,80,110,0
371.4447,371.5597,78,110,0
371.5647,371.67972,77,110,0
371.6847,371.7997,78,110,0
371.80472,371.9197,77,110,0
371.9247,372.0397,75,110,0
372.0447,372.1597,80,110,0
372.1647,372.2797,82,110,0
372.2847,372.39972,80,110,0
372.0447,372.5197,85,110,0
372.4047,372.5197,78,110,0
372.52472,372.6397,77,110,0
372.6447,372.7597,78,110,0
372.7647,372.8797,80,110,0
372.52472,372.9997,89,110,0
372.8847,372.9997,77,110,0
373.0047,373.23972,75,110,0
373.0047,373.7197,84,110,0
373.6047,373.7197,87,110,0
373.7247,373.8397,90,110,0
373.8447,373.95972,94,110,0
373.9647,374.0797,92,110,0
374.08472,374.1997,94,110,0
374.2047,374.3197,92,110,0
374.3247,374.4397,90,110,0
374.4447,374.5597,89,110,0
374.5647,374.67972,90,110,0
374.6847,374.7997,89,110,0
374.80472,374.9197,87,110,0
374.9247,375.0397,89,110,0
375.0447,375.1597,90,110,0
375.1647,375.2797,89,110,0
375.2847,375.39972,87,110,0
375.4047,375.5197,86,110,0
375.52472,375.6397,89,110,0
375.6447,375.7597,92,110,0
375.7647,375.8797,95,110,0
375.8847,375.9997,94,110,0
376.0047,376.1197,95,110,0
376.1247,376.23972,94,110,0
376.2447,376.3597,92,110,0
376.36472,376.4797,90,110,0
376.4847,376.5997,92,110,0
376.6047,376.7197,90,110,0
376.7247,376.8397,89,110,0
376.8447,376.95972,90,110,0
376.9647,377.0797,92,110,0
377.08472,377.1997,90,110,0
377.2047,377.3197,89,110,0
377.3247,377.4397,88,110,0
377.4447,377.5597,91,110,0
377.5647,377.67972,94,110,0
377.6847,377.7997,85,110,0
377.80472,377.9197,84,110,0
377.9247,378.0397,85,110,0
378.0447,378.1597,84,110,0
378.1647,378.2797,82,110,0
378.2847,378.39972,80,110,0
378.4047,378.5197,82,110,0
378.52472,378.6397,80,110,0
378.6447,378.7597,79,110,0
378.7647,378.8797,80,110,0
378.8847,378.9997,82,110,0
379.0047,379.1197,80,110,0
379.1247,379.23972,79,110,0
379.2447,379.3597,78,110,0
379.36472,379.4797,81,110,0
379.4847,379.5997,84,110,0
379.6047,379.7197,87,110,0
379.7247,379.8397,86,110,0
379.8447,379.95972,87,110,0
379.9647,380.0797,86,110,0
380.08472,380.1997,84,110,0
380.2047,380.3197,82,110,0
380.3247,380.4397,84,110,0
380.4447,380.5597,82,110,0
380.5647,380.67972,81,110,0
380.6847,380.7997,83,110,0
380.80472,380.9197,84,110,0
380.9247,381.0397,83,110,0
381.0447,381.1597,81,110,0
381.1647,381.2797,83,110,0
381.2847,381.39972,86,110,0
381.4047,381.5197,89,110,0
381.52472,381.6397,92,110,0
381.6447,381.7597,91,110,0
381.7647,381.8797,92,110,0
381.8847,381.9997,91,110,0
382.0047,382.1197,89,110,0
382.1247,382.23972,87,110,0
382.2447,382.3597,89,110,0
382.36472,382.4797,87,110,0
382.4847,382.5997,86,110,0
382.6047,382.7197,87,110,0
382.7247,382.8397,89,110,0
382.8447,382.95972,87,110,0
382.9647,383.0797,86,110,0
383.08472,383.1997,87,110,0
383.2047,383.3197,91,110,0
383.3247,383.4397,93,110,0
383.4447,383.5597,95,110,0
383.5647,384.5197,96,110,0
384.52472,385.4797,36,110,0
385.4847,386.4595,29,110,0
386.4647,387.55292,99,110,0
388.1046,389.7353,91,110,0
389.19553,389.7353,88,80,0
389.6046,389.7353,84,80,0
389.741,390.33475,84,80,0
390.34097,390.63474,83,80,0
390.791,390.93472,81,80,0
390.94098,391.6007,81,80,0
391.60767,391.93405,79,80,0
392.10767,392.28735,89,80,0
392.10767,392.28735,86,80,0
392.10767,392.28735,77,80,0
392.29517,393.03735,89,80,0
392.29517,393.03735,86,80,0
392.29517,393.03735,77,80,0
393.04517,393.78735,88,80,0
393.04517,393.78735,84,80,0
393.04517,393.78735,76,80,0
393.92017,394.02954,91,80,0
394.04517,394.15454,90,80,0
394.17017,394.25766,91,80,0
394.27014,394.35767,93,80,0
394.37015,394.45764,91,80,0
394.47015,394.54306,87,80,0
394.5535,394.6264,87,80,0
394.6368,394.70975,89,80,0
394.72015,394.78265,87,80,0
394.7916,394.8541,83,80,0
394.863,394.9255,84,80,0
394.93445,395.0148,86,80,0
395.0237,395.113,84,80,0
395.12195,395.2023,78,80,0
395.2112,395.3005,79,80,0
395.30945,395.3898,80,80,0
395.3987,395.488,81,80,0
395.49695,395.5773,79,80,0
395.5862,395.6755,76,80,0
395.68445,395.7648,72,80,0
395.79156,395.89783,72,80,0
395.90408,396.0103,71,80,0
396.01657,396.1291,72,80,0
396.1353,396.24783,74,80,0
396.2541,396.37283,72,80,0
396.39157,396.68533,71,80,0
396.84158,396.98532,69,80,0
396.84158,396.98532,65,80,0
396.84158,396.98532,60,80,0
396.99158,397.09784,69,80,0
397.10406,397.21033,67,80,0
397.21658,397.32907,69,80,0
397.33533,397.4478,71,80,0
397.45407,397.5728,69,80,0
397.59158,397.8853,67,80,0
398.04156,398.18533,77,80,0
398.04156,398.18533,71,80,0
398.1916,398.78534,77,80,0
398.1916,398.78534,71,80,0
398.79156,399.3853,76,80,0
398.79156,399.3853,72,80,0
400.63443,400.83978,81,80,0
400.63443,400.83978,74,80,0
400.63443,400.83978,67,80,0
400.84872,401.69693,81,80,0
400.84872,401.69693,74,80,0
400.84872,401.69693,67,80,0
401.70587,402.55408,79,80,0
401.70587,402.55408,67,80,0
403.82922,403.95993,80,80,0
403.82922,403.95993,74,80,0
403.9656,404.50537,80,80,0
403.9656,404.50537,74,80,0
404.51105,405.59628,79,80,0
404.51105,405.59628,73,80,0
405.60196,406.6872,77,80,0
405.60196,406.6872,79,80,0
405.60196,406.6872,82,80,0
406.69287,407.50537,82,110,0
407.51105,407.7908,81,104,0
406.69287,408.0905,79,110,0
406.69287,408.0905,76,110,0
407.79675,408.0905,82,112,0
408.09677,408.51642,83,120,0
408.09677,408.51642,80,120,0
408.09677,408.51642,77,120,0
408.68442,408.81512,72,80,0
408.79807,408.92874,77,80,0
408.93442,409.06512,80,80,0
409.0708,409.61057,84,80,0
409.77533,409.906,72,80,0
409.88898,410.01965,77,80,0
410.02533,410.156,80,80,0
410.1617,410.70148,84,80,0
410.8435,410.9742,72,80,0
410.9799,411.11057,79,80,0
411.11624,411.24692,82,80,0
411.2526,411.7924,84,80,0
411.93442,412.0651,72,80,0
412.0708,412.20148,76,80,0
412.20715,412.33783,79,80,0
412.3435,412.8833,84,80,0
413.02533,413.156,72,80,0
413.16168,413.2924,77,80,0
413.29807,413.42874,80,80,0
413.43442,413.5651,84,80,0
413.5708,413.70148,88,80,0
413.70715,413.83783,89,80,0
413.8435,413.97418,84,80,0
413.9799,414.0651,87,80,0
414.0708,414.156,85,80,0
414.16168,414.24692,82,80,0
414.2526,414.33783,85,80,0
414.3435,414.42874,84,80,0
414.43442,414.51965,80,80,0
414.52533,414.61057,84,80,0
414.61624,414.70148,82,80,0
414.70715,414.7924,79,80,0
414.79807,414.8833,82,80,0
414.88898,414.97418,80,80,0
414.9799,415.0651,77,80,0
415.0708,415.17703,77,80,0
415.1833,415.28955,76,80,0
415.29578,415.4083,77,80,0
415.41455,415.52704,79,80,0
415.5333,415.65204,77,80,0
415.0708,415.99716,70,80,0
415.67078,415.99716,76,80,0
416.17078,416.3305,73,80,0
416.17078,416.3305,68,80,0
416.33746,416.47028,73,80,0
416.4781,416.6109,72,80,0
416.6187,416.76602,73,80,0
416.77496,416.93567,75,80,0
416.94458,417.11423,73,80,0
416.33746,417.6306,67,80,0
417.14102,417.6306,72,80,0
417.89102,418.05075,82,80,0
418.05768,418.16394,82,80,0
418.1702,418.27643,80,80,0
418.28268,418.3934,82,80,0
418.39935,418.5065,84,81,0
418.51245,418.62555,82,82,0
418.6434,418.92316,80,82,0
418.9291,419.2089,84,83,0
419.21484,419.316,84,85,0
419.32196,419.42316,83,85,0
419.4291,419.53464,84,86,0
419.5403,419.64258,86,86,0
419.6483,419.75623,84,87,0
419.7733,420.0403,83,87,0
420.046,420.31305,86,89,0
420.31873,420.41113,86,90,0
420.41656,420.50894,84,91,0
420.51437,420.6122,86,91,0
420.61765,420.71545,87,92,0
420.7209,420.82416,86,92,0
420.84045,421.0959,84,93,0
421.10135,421.35678,87,94,0
421.3622,421.4546,87,95,0
421.46002,421.55243,86,96,0
421.55786,421.65567,87,96,0
421.6611,421.75894,89,97,0
421.76437,421.86765,87,97,0
421.88394,422.13937,86,98,0
422.1448,422.40024,89,99,0
422.40567,422.49423,89,101,0
422.49942,422.58798,87,101,0
422.59317,422.68692,89,102,0
422.69214,422.7859,91,102,0
422.7911,422.89005,89,103,0
422.90567,423.15048,87,103,0
423.15567,423.40048,91,105,0
423.40567,423.49423,91,106,0
423.49942,423.58798,89,106,0
423.59317,423.68692,91,107,0
423.69214,423.7859,92,107,0
423.7911,423.89005,91,108,0
423.90567,424.15048,89,109,0
424.15567,424.40048,92,110,0
424.40567,424.4907,92,111,0
424.4957,424.5807,91,112,0
424.5857,424.6757,92,112,0
424.6807,424.7707,94,113,0
424.7757,424.8707,92,113,0
424.88568,425.1207,91,114,0
425.12567,425.3607,94,115,0
425.3657,425.45068,94,117,0
425.4557,425.54068,92,117,0
425.5457,425.63693,94,117,0
425.64215,425.7359,96,118,0
425.7411,425.84006,94,119,0
425.85568,426.1111,92,119,0
426.11655,426.3836,95,120,0
426.38928,426.51428,96,120,0
426.5197,426.6447,99,120,0
426.65015,426.76993,93,120,0
426.77515,426.89493,96,120,0
426.90015,427.01514,90,120,0
427.02014,427.13516,93,120,0
427.14014,427.25516,87,120,0
427.26016,427.37515,90,120,0
427.38016,427.49515,84,120,0
427.50015,427.61514,87,120,0
427.62015,427.73514,81,120,0
427.74014,427.85516,84,120,0
427.86014,427.97516,78,120,0
427.98016,428.09515,81,120,0
428.10016,428.21515,75,120,0
428.22015,428.33514,78,120,0
428.34015,428.45514,74,120,0
428.46014,428.57513,77,120,0
428.58014,428.69516,71,120,0
428.70013,428.81516,74,120,0
428.82016,428.93515,68,120,0
428.94016,429.05515,71,120,0
429.06015,429.17514,65,120,0
429.18015,429.29514,68,120,0
429.30014,429.41516,62,120,0
429.42014,429.53516,65,120,0
429.54016,429.65515,59,120,0
429.66016,429.77515,62,120,0
429.78015,429.89514,56,120,0
429.90015,430.01514,59,120,0
430.02014,430.13516,53,120,0
430.14014,430.25516,56,120,0
430.26016,430.37515,55,80,0
430.38016,430.49515,59,82,0
430.50015,430.61514,60,85,0
430.62015,430.73514,62,88,0
430.74014,430.85516,63,90,0
430.86014,430.97516,65,93,0
430.98016,431.09515,67,96,0
431.10016,431.21515,68,99,0
431.22015,431.33514,71,101,0
431.34015,431.45514,72,104,0
431.46014,431.57513,74,107,0
431.58014,431.69516,75,109,0
431.70013,431.81516,77,112,0
431.82016,431.93515,78,115,0
431.94016,432.05515,79,118,0
432.06015,432.17514,78,120,0
432.18015,432.29514,80,120,0
432.30014,432.41516,79,120,0
432.42014,432.53516,75,120,0
432.54016,432.65515,72,120,0
432.66016,432.77515,80,120,0
432.78015,432.89514,79,120,0
432.90015,433.01514,75,120,0
433.02014,433.13516,72,120,0
433.14014,433.25516,80,120,0
433.26016,433.37515,79,120,0
433.38016,433.49515,77,120,0
433.50015,433.61514,74,120,0
433.62015,433.73514,80,120,0
433.74014,433.85516,79,120,0
433.86014,433.97516,77,120,0
433.98016,434.09515,74,120,0
434.10016,434.21515,85,120,0
434.22015,434.33514,84,120,0
434.34015,434.45514,79,120,0
434.46014,434.57513,76,120,0
434.58014,434.69516,85,120,0
434.70013,434.81516,84,120,0
434.82016,434.93515,79,120,0
434.94016,435.05515,76,120,0
435.06015,435.17514,91,120,0
435.18015,435.29514,89,120,0
435.30014,435.41516,84,120,0
435.42014,435.53516,77,120,0
435.54016,435.65515,91,120,0
435.66016,435.77515,89,120,0
435.78015,435.89514,84,120,0
435.90015,436.01514,77,120,0
436.02014,436.13516,91,120,0
436.14014,436.25516,90,120,0
436.26016,436.37515,87,120,0
436.38016,436.49515,84,120,0
436.50015,436.61514,91,120,0
436.62015,436.73514,90,120,0
436.74014,436.85516,87,120,0
436.86014,436.97516,84,120,0
436.98016,437.09515,92,120,0
437.10016,437.21515,91,120,0
437.22015,437.33514,87,120,0
437.34015,437.45514,84,120,0
437.46014,437.57513,89,120,0
437.58014,437.69516,87,120,0
437.70013,437.81516,84,120,0
437.82016,437.93515,79,120,0
437.94016,438.05515,89,120,0
438.06015,438.17514,87,120,0
438.18015,438.29514,84,120,0
438.30014,438.41516,79,120,0
438.42014,438.53516,87,120,0
438.54016,438.65515,86,120,0
438.66016,438.77515,83,120,0
438.78015,438.89514,77,120,0
438.90015,439.13516,79,120,0
438.90015,439.13516,75,120,0
438.90015,439.37515,84,120,0
439.14014,439.37515,79,120,0
439.14014,439.37515,75,120,0
439.38016,439.61514,79,120,0
439.38016,439.61514,75,120,0
439.38016,439.85516,87,120,0
439.62015,439.85516,79,120,0
439.62015,439.85516,75,120,0
439.86014,440.09515,79,120,0
439.86014,440.09515,74,120,0
440.10016,440.33514,79,120,0
440.10016,440.33514,74,120,0
440.34015,440.57513,79,120,0
440.34015,440.57513,74,120,0
439.86014,440.81516,83,120,0
440.58014,440.81516,79,120,0
440.58014,440.81516,74,120,0
440.82016,441.05515,79,120,0
440.82016,441.05515,72,120,0
440.82016,441.29514,82,120,0
441.06015,441.29514,79,120,0
441.06015,441.29514,72,120,0
441.30014,441.53516,79,120,0
441.30014,441.53516,72,120,0
441.30014,441.77515,84,120,0
441.54016,441.77515,79,120,0
441.54016,441.77515,72,120,0
441.78015,442.01514,72,120,0
441.80014,442.03516,77,120,0
442.02014,442.03516,77,120,0
442.02014,442.25516,72,120,0
442.26016,442.49515,77,120,0
442.26016,442.49515,72,120,0
441.78015,442.73514,81,120,0
442.50015,442.73514,77,120,0
442.50015,442.73514,72,120,0
442.74014,442.97516,77,120,0
442.74014,442.97516,72,120,0
442.74014,443.21515,80,120,0
442.98016,443.21515,77,120,0
442.98016,443.21515,72,120,0
443.22015,443.45514,77,120,0
443.22015,443.45514,72,120,0
443.22015,443.69516,84,120,0
443.46014,443.69516,75,120,0
443.46014,443.69516,72,120,0
443.70013,444.17514,79,120,0
443.70013,444.17514,75,120,0
443.70013,444.17514,72,120,0
444.18015,444.53516,84,120,0
444.18015,444.53516,72,120,0
444.54016,444.65515,87,120,0
444.54016,444.65515,75,120,0
444.66016,444.89514,91,120,0
444.66016,444.89514,79,120,0
444.90015,445.13516,91,120,0
445.14014,445.25516,91,120,0
445.20013,445.31516,92,120,0
445.26016,445.37515,91,120,0
445.32016,445.43515,92,120,0
445.38016,445.49515,91,120,0
445.44016,445.55515,92,120,0
445.50015,445.61514,90,120,0
445.56015,445.61514,91,120,0
445.62015,445.85516,91,120,0
445.86014,446.09515,95,120,0
446.10016,446.33514,95,110,0
446.34015,446.57513,96,100,0
446.82016,447.05515,79,120,0
447.06015,447.17514,79,120,0
447.12015,447.23514,80,120,0
447.18015,447.29514,79,120,0
447.24014,447.35516,80,120,0
447.30014,447.41516,79,120,0
447.36014,447.47516,80,120,0
447.42014,447.53516,78,120,0
447.48016,447.53516,79,120,0
447.54016,447.77515,79,120,0
447.78015,448.01514,83,120,0
448.02014,448.25516,83,110,0
448.26016,448.49515,84,100,0
448.74014,448.97516,67,120,0
448.98016,449.09515,68,120,0
449.10016,449.21515,67,120,0
449.22015,449.33514,69,120,0
449.34015,449.45514,71,120,0
449.46014,449.57513,72,120,0
449.58014,449.69516,74,120,0
449.70013,449.81516,75,120,0
449.82016,449.93515,74,120,0
449.94016,450.05515,75,120,0
450.06015,450.17514,76,120,0
450.18015,450.29514,77,120,0
450.30014,450.41516,76,120,0
450.42014,450.53516,77,120,0
450.54016,450.65515,78,120,0
450.66016,450.77515,79,120,0
450.78015,450.89514,78,120,0
450.90015,451.01514,79,120,0
451.02014,451.13516,81,120,0
451.14014,451.25516,82,120,0
451.26016,451.37515,83,120,0
451.38016,451.49515,84,120,0
451.50015,451.61514,86,120,0
451.62015,451.73514,87,120,0
451.74014,451.85516,86,120,0
451.86014,451.97516,87,120,0
451.98016,452.09515,88,120,0
452.10016,452.21515,89,120,0
452.22015,452.33514,88,120,0
452.34015,452.45514,89,120,0
452.46014,452.57513,90,120,0
452.58014,452.69516,91,120,0
452.70013,452.81516,90,120,0
452.82016,452.93515,91,120,0
452.94016,453.05515,93,120,0
453.06015,453.17514,94,120,0
453.18015,453.29514,95,120,0
453.30014,453.77515,96,120,0
453.78015,454.25516,72,120,0
453.78015,454.25516,60,120,0
454.74014,455.21515,75,120,0
454.74014,455.21515,69,120,0
454.74014,455.21515,66,120,0
454.74014,455.21515,63,120,0
455.70013,456.17514,71,120,0
455.70013,456.17514,68,120,0
455.70013,456.17514,65,120,0
455.70013,456.17514,62,120,0
456.66016,457.13516,74,120,0
456.66016,457.13516,71,120,0
456.66016,457.13516,68,120,0
456.66016,457.13516,65,120,0
457.64014,458.13495,70,110,0
457.64014,458.13495,67,110,0
457.64014,458.13495,64,110,0
457.64014,458.13495,61,110,0
458.6619,459.1782,73,100,0
458.6619,459.1782,70,100,0
458.6619,459.1782,67,100,0
458.6619,459.1782,64,100,0
459.7291,460.26886,69,90,0
459.7291,460.26886,65,90,0
459.7291,460.26886,60,90,0
460.87454,461.4683,72,80,0
460.87454,461.4683,69,80,0
460.87454,461.4683,65,80,0
462.53085,463.48587,72,80,0
462.53085,463.48587,68,80,0
462.53085,463.48587,65,80,0
463.49084,464.44586,72,80,0
463.49084,464.44586,70,80,0
463.49084,464.44586,67,80,0
464.45087,465.16586,72,80,0
464.45087,465.40585,68,80,0
464.45087,465.40585,65,80,0
465.17087,465.40585,74,80,0
465.17087,465.40585,71,80,0
465.41086,465.90564,76,80,0
465.41086,465.90564,72,80,0
465.41086,465.90564,67,80,0
465.41086,465.90564,64,80,0
465.91086,466.1663,64,80,0
466.17172,466.30862,65,80,0
465.91086,466.45148,72,80,0
466.31458,466.45148,67,80,0
466.45743,467.43332,72,80,0
466.45743,467.43332,68,80,0
466.45743,467.43332,65,80,0
467.43832,468.3933,72,80,0
467.43832,468.3933,70,80,0
467.43832,468.3933,67,80,0
468.39832,469.1133,72,80,0
468.39832,469.3533,65,80,0
468.39832,469.3533,68,80,0
469.11832,469.3533,77,80,0
469.3583,469.8531,79,80,0
469.3583,469.8531,76,80,0
469.3583,469.8531,72,80,0
469.3583,469.8531,67,80,0
469.8583,470.11374,64,80,0
470.11917,470.25607,65,80,0
469.8583,470.41336,72,80,0
470.26202,470.41336,67,80,0
470.41992,471.3958,72,80,0
470.41992,471.3958,68,80,0
470.41992,471.3958,65,80,0
470.41992,471.3958,60,80,0
471.4008,472.3558,72,80,0
471.4008,472.3558,70,80,0
471.4008,472.3558,67,80,0
471.4008,472.3558,60,80,0
472.3608,473.0758,72,80,0
472.3608,473.0758,68,80,0
472.3608,473.0758,65,80,0
472.3608,473.0758,60,80,0
473.0808,473.34784,83,100,0
473.0808,473.34784,80,100,0
473.0808,473.34784,77,100,0
473.0808,473.34784,74,100,0
473.35352,475.52966,83,100,0
473.35352,475.52966,80,100,0
473.35352,475.52966,77,100,0
473.35352,475.52966,74,100,0
475.53534,476.70053,84,80,0
475.53534,476.70053,79,80,0
475.53534,476.70053,76,80,0
476.7068,478.41138,84,75,0
476.7068,478.41138,79,75,0
476.7068,478.41138,76,75,0
478.427,484.41138,84,70,0
478.427,484.41138,79,70,0
478.427,484.41138,76,70,0
486.677,487.41138,60,1,0
1.05,1.1875,63,110,0
1.05,1.1875,51,110,0
1.2,2.2375,54,110,0
1.2,2.2375,42,110,0
2.25,2.3875,42,110,0
2.25,2.3875,30,110,0
2.4,4.6375,54,110,0
2.4,4.6375,42,110,0
4.65,4.7875,63,110,0
4.65,4.7875,54,110,0
4.8,5.9875,63,107,0
4.8,5.9875,54,107,0
6.0,6.5875,62,80,0
6.0,6.5875,55,80,0
7.2,7.7875,60,80,0
7.2,7.7875,55,80,0
7.2,7.7875,48,80,0
7.8,8.05,35,110,0
7.875,8.125,38,110,0
7.95,8.2,43,110,0
8.025,8.275,47,110,0
8.1,8.35,50,110,0
8.175,8.425,55,110,0
8.25,8.5,59,110,0
8.325,8.5125,62,110,0
8.4,8.525,67,110,0
8.475,8.5375,71,110,0
8.55,8.9875,47,110,0
8.55,8.9875,35,110,0
10.65,10.7875,68,110,0
10.65,10.7875,56,110,0
10.8,11.8375,59,110,0
10.8,11.8375,47,110,0
11.85,11.9875,47,110,0
11.85,11.9875,35,110,0
12.0,14.2375,59,110,0
12.0,14.2375,47,110,0
14.25,14.3875,68,110,0
14.25,14.3875,59,110,0
14.4,15.5875,68,107,0
14.4,15.5875,59,107,0
15.6,16.1875,61,80,0
15.6,16.1875,58,80,0
16.8,17.3875,60,80,0
16.8,17.3875,56,80,0
17.4,17.65,40,110,0
17.475,17.725,43,110,0
17.55,17.8,48,110,0
17.625,17.875,52,110,0
17.7,17.95,55,110,0
17.775,18.025,60,110,0
17.85,18.1,64,110,0
18.225,18.8125,52,110,0
18.225,18.8125,40,110,0
20.25,20.3875,61,110,0
20.25,20.3875,49,110,0
20.4,21.4375,52,110,0
20.4,21.4375,40,110,0
21.45,21.5875,53,110,0
21.45,21.5875,41,110,0
21.6,23.8375,53,110,0
21.6,23.8375,41,110,0
23.85,23.9875,61,110,0
23.85,23.9875,53,110,0
23.85,23.9875,58,110,0
24.0,25.1875,61,107,0
24.0,25.1875,58,107,0
24.0,25.1875,53,107,0
25.2,26.2375,61,80,0
25.2,26.2375,58,80,0
25.2,26.2375,54,80,0
26.25,26.3875,61,78,0
26.25,26.3875,58,78,0
26.25,26.3875,55,78,0
26.4,28.6375,61,78,0
26.4,28.6375,58,78,0
26.4,28.6375,55,78,0
28.65,28.7875,60,73,0
28.65,28.7875,56,73,0
28.8,29.3875,60,73,0
28.8,29.3875,56,73,0
29.85,29.9875,66,71,0
29.85,29.9875,63,71,0
29.85,29.9875,57,71,0
30.0,31.0375,66,70,0
30.0,31.0375,63,70,0
30.0,31.0375,57,70,0
31.05,31.1875,66,70,0
31.05,31.1875,63,70,0
31.05,31.1875,58,70,0
31.2,33.4375,66,70,0
31.2,33.4375,63,70,0
31.2,33.4375,58,70,0
33.45,33.5875,66,70,0
33.45,33.5875,63,70,0
33.45,33.5875,59,70,0
33.6,34.6375,66,70,0
33.6,34.6375,63,70,0
33.6,34.6375,59,70,0
34.65,34.7875,63,70,0
34.65,34.7875,60,70,0
34.65,34.7875,66,70,0
34.8,35.8375,66,70,0
34.8,35.8375,63,70,0
34.8,35.8375,60,70,0
35.85,35.9875,65,70,0
35.85,35.9875,61,70,0
36.0,38.2375,65,70,0
36.0,38.2375,61,70,0
38.25,38.3875,65,70,0
38.25,38.3875,62,70,0
38.4,39.4375,65,70,0
38.4,39.4375,62,70,0
39.45,39.5875,50,70,0
39.45,39.5875,38,70,0
39.6,40.6375,50,70,0
39.6,40.6375,38,70,0
40.65,40.7875,51,70,0
40.65,40.7875,39,70,0
40.8,43.0375,51,70,0
40.8,43.0375,39,70,0
43.05,43.1875,51,70,0
43.05,43.1875,39,70,0
43.2,44.2375,51,70,0
43.2,44.2375,39,70,0
44.25,44.3875,52,70,0
44.25,44.3875,40,70,0
44.4,45.4375,52,70,0
44.4,45.4375,40,70,0
45.45,45.5875,53,85,0
45.45,45.5875,41,85,0
45.6,46.6375,53,88,0
45.6,46.6375,41,88,0
46.65,46.7875,55,104,0
46.65,46.7875,43,104,0
46.8,47.41198,55,106,0
46.8,47.41198,43,106,0
47.425,48.077778,56,110,0
47.425,48.077778,44,110,0
48.091667,48.774807,56,110,0
48.091667,48.774807,44,110,0
48.78934,49.523716,44,110,0
48.78934,49.523716,32,110,0
49.53934,50.16434,43,110,0
49.53934,50.16434,31,110,0
50.17764,50.80264,55,110,0
50.815937,51.440937,55,80,0
51.45423,52.07923,55,110,0
51.45423,52.07923,56,110,0
52.09253,52.71753,56,80,0
52.09253,52.71753,53,80,0
52.730827,53.355827,55,110,0
52.730827,53.355827,53,110,0
53.369125,53.994125,55,80,0
53.369125,53.994125,53,80,0
54.007423,54.632423,55,80,0
54.007423,54.632423,51,80,0
54.64572,55.27072,55,80,0
54.64572,55.90902,51,80,0
55.28402,55.90902,55,80,0
55.922314,56.547314,55,80,0
55.922314,57.18561,50,80,0
56.56061,57.18561,55,80,0
57.19891,57.85169,55,80,0
57.19891,58.518356,48,80,0
57.865578,58.518356,55,80,0
58.53224,59.21538,55,80,0
58.53224,59.73864,42,80,0
59.753174,59.913055,43,80,0
59.229916,60.61073,55,80,0
59.927593,60.61073,43,80,0
60.625267,61.250267,43,110,0
61.26356,61.88856,43,80,0
61.90186,62.52686,43,110,0
61.90186,62.52686,44,110,0
62.540157,63.165157,44,80,0
62.540157,63.165157,41,80,0
63.178455,63.831234,43,110,0
63.178455,63.831234,41,110,0
63.845123,64.52826,43,80,0
63.845123,64.52826,41,80,0
64.54279,65.19557,43,80,0
64.54279,65.19557,39,80,0
65.209465,65.86224,43,80,0
65.209465,66.50113,39,80,0
65.87613,66.50113,43,80,0
66.51443,67.13943,43,80,0
66.51443,67.777725,38,80,0
67.152725,67.777725,43,80,0
67.79102,68.41602,43,80,0
67.79102,69.05432,36,80,0
68.42932,69.05432,43,80,0
69.06762,69.72039,43,80,0
69.06762,70.243004,30,80,0
70.25754,70.41742,31,80,0
69.73428,71.1151,43,80,0
71.12963,71.81277,43,80,0
71.82731,72.510445,43,80,0
70.43195,73.208115,31,80,0
72.52498,73.208115,43,80,0
73.22266,73.90579,43,80,0
73.92033,74.60347,43,80,0
74.618004,75.30114,43,80,0
73.22266,75.99882,31,80,0
75.315674,75.99882,43,80,0
76.01335,76.19304,31,70,0
76.1071,76.28679,32,70,0
76.20085,76.38054,31,70,0
76.2946,76.47429,32,70,0
76.38835,76.56804,31,70,0
76.4821,76.66179,32,70,0
76.57585,76.75554,31,70,0
76.6696,76.84929,32,70,0
76.76335,76.94304,31,70,0
76.8571,77.03679,32,70,0
76.95085,77.13054,31,70,0
77.0446,77.22429,32,70,0
77.13835,77.31804,31,70,0
77.2321,77.41179,32,70,0
77.32585,77.50554,31,70,0
77.4196,77.59929,32,70,0
77.51335,77.69304,31,70,0
77.6071,77.78679,32,70,0
77.70085,77.88054,31,70,0
77.7946,77.97429,32,70,0
77.88835,78.06804,31,70,0
77.9821,78.16179,32,70,0
78.07585,78.25554,31,70,0
78.1696,78.34929,32,70,0
78.26335,78.44304,31,70,0
78.3571,78.53679,32,70,0
78.45085,78.63054,31,70,0
78.5446,78.72429,32,70,0
78.63835,78.81804,31,70,0
78.7321,78.91179,32,70,0
78.82585,79.00554,31,70,0
78.9196,79.05918,32,70,0
79.01335,79.20918,31,70,0
79.11335,79.30918,32,71,0
79.21335,79.40918,31,73,0
79.31335,79.509186,32,74,0
79.413345,79.609184,31,75,0
79.51335,79.70918,32,76,0
79.61335,79.80918,31,78,0
79.71335,79.90918,32,79,0
79.81335,80.009186,31,80,0
79.913345,80.109184,32,81,0
80.01335,80.20918,31,83,0
80.11335,80.30918,32,84,0
80.21335,80.40918,31,85,0
80.31335,80.509186,32,87,0
80.413345,80.609184,31,88,0
80.51335,80.70918,32,89,0
80.61335,80.80918,31,90,0
80.71335,80.90918,32,92,0
80.81335,81.009186,31,93,0
80.913345,81.109184,32,94,0
81.01335,81.20918,31,95,0
81.11335,81.30918,32,97,0
81.21335,81.40918,31,98,0
81.31335,81.509186,32,99,0
81.413345,81.609184,31,100,0
81.51335,81.70918,32,102,0
81.61335,81.80918,31,103,0
81.71335,81.90918,32,104,0
81.81335,82.009186,31,105,0
81.913345,82.109184,32,107,0
82.11335,82.15918,33,110,0
82.01335,82.20918,31,108,0
82.163345,82.20918,35,110,0
82.21335,82.70814,36,110,0
83.96335,84.04147,31,110,0
84.046684,84.12481,33,110,0
84.13001,84.20814,35,110,0
84.21335,84.70814,36,110,0
84.71335,85.25312,39,110,0
85.23608,87.91457,35,110,0
88.19062,88.268745,31,110,0
88.27395,88.35207,33,110,0
88.357285,88.43541,35,110,0
88.44062,88.93541,36,110,0
88.94062,89.48039,39,110,0
89.48608,90.29857,35,110,0
90.30425,90.5713,44,110,0
90.57698,90.82177,43,110,0
90.82698,91.07177,41,110,0
91.07698,91.32177,39,110,0
91.32698,91.57177,38,110,0
91.57698,91.69677,39,110,0
91.70198,91.82177,41,110,0
91.82698,91.94677,39,110,0
91.95198,92.07177,38,110,0
92.07698,92.32177,36,110,0
92.32698,92.57177,44,110,0
92.57698,92.82177,43,110,0
92.82698,93.07177,41,101,0
93.07698,93.32177,39,91,0
93.32698,93.57177,38,81,0
93.57698,93.69677,39,80,0
93.70198,93.82177,41,80,0
93.82698,93.94677,39,80,0
93.95198,94.07177,38,80,0
94.07698,94.183464,36,80,0
94.188095,94.29457,44,80,0
94.2992,94.405685,46,81,0
94.41032,94.51679,44,82,0
94.52142,94.62791,43,82,0
94.63254,94.73901,44,83,0
94.743645,94.85013,43,84,0
94.85476,94.96124,41,85,0
94.965866,95.07235,39,85,0
95.07698,95.183464,41,86,0
95.18809,95.29457,39,87,0
95.2992,95.405685,38,87,0
95.41032,95.51679,39,88,0
95.52142,95.62791,41,89,0
95.63254,95.73901,39,90,0
95.743645,95.85013,38,90,0
95.85476,95.961235,36,91,0
95.965866,96.07235,43,92,0
96.07698,96.183464,41,92,0
96.18809,96.29457,39,93,0
96.2992,96.405685,41,94,0
96.41031,96.51679,43,95,0
96.52142,96.62791,41,95,0
96.63253,96.73901,39,96,0
96.743645,96.85013,38,97,0
96.85476,96.961235,44,98,0
96.965866,97.07235,43,98,0
97.07698,97.18346,41,99,0
97.18809,97.29457,43,100,0
97.2992,97.40568,44,100,0
97.41031,97.51679,43,101,0
97.52142,97.62791,41,102,0
97.63253,97.73901,40,103,0
97.743645,97.85013,46,103,0
97.85475,97.961235,44,104,0
97.965866,98.07235,43,105,0
98.07698,98.18346,44,105,0
98.18809,98.29457,48,106,0
98.2992,98.40568,43,107,0
98.41031,98.51679,48,108,0
98.52142,98.6279,41,108,0
98.63253,98.73901,48,109,0
98.743645,98.85013,42,110,0
98.85475,98.961235,48,110,0
98.965866,99.07235,47,120,0
99.07697,99.18346,45,110,0
99.18809,99.29457,43,110,0
99.299194,99.40568,50,110,0
99.41031,99.51679,48,120,0
99.52142,99.6279,47,110,0
99.63253,99.73901,53,110,0
99.743645,99.85012,51,110,0
99.85475,99.961235,50,120,0
99.965866,100.07234,56,110,0
100.07697,100.18346,55,110,0
100.18809,100.29457,53,110,0
100.299194,100.40568,62,120,0
100.41031,100.51679,60,110,0
100.521416,100.6279,59,110,0
100.63253,100.73901,65,110,0
100.743645,100.85012,63,120,0
100.85475,100.961235,62,110,0
100.965866,101.07234,68,110,0
101.07697,101.18346,67,110,0
101.18809,101.29456,65,120,0
101.299194,101.40568,74,110,0
101.41031,101.516785,72,110,0
101.521416,101.6279,71,110,0
101.63253,101.73901,77,120,0
101.74364,101.85012,75,109,0
101.85475,101.961235,74,107,0
101.94734,102.053825,80,105,0
102.07697,102.18346,79,103,0
102.18809,102.29456,77,101,0
102.299194,102.40568,75,99,0
102.41031,102.516785,74,97,0
102.521416,102.631996,72,95,0
102.6368,102.747375,71,93,0
102.75219,102.86276,68,91,0
102.86757,102.97815,67,89,0
102.982956,103.09795,65,87,0
103.10296,103.21796,63,85,0
103.22295,103.34274,62,83,0
103.34795,103.46774,67,81,0
103.47295,103.94816,60,80,0
103.95308,104.42059,48,80,0
103.95308,104.42059,36,80,0
104.89796,105.36548,43,80,0
104.89796,105.36548,31,80,0
105.614296,105.85312,62,80,0
105.614296,105.85312,55,80,0
105.8582,106.09702,60,80,0
105.8582,106.09702,55,80,0
106.102104,106.34093,59,80,0
106.102104,106.34093,55,80,0
106.84601,107.10144,63,80,0
106.84601,107.10144,60,80,0
107.10687,107.37887,65,80,0
107.10687,107.37887,55,80,0
107.38465,107.65664,63,80,0
107.38465,107.65664,55,80,0
107.66243,107.93442,62,80,0
107.66243,107.93442,55,80,0
107.94021,108.228195,60,80,0
107.94021,108.228195,55,80,0
108.23432,108.522316,59,80,0
108.23432,108.522316,55,80,0
108.85102,109.72751,63,80,0
108.85102,109.72751,60,80,0
109.73793,110.25545,31,80,0
109.73793,110.25545,43,80,0
110.26065,110.50545,31,84,0
110.26065,110.50545,43,84,0
110.51065,110.75545,45,87,0
110.51065,110.75545,33,87,0
110.76065,111.00545,47,89,0
110.76065,111.00545,35,89,0
111.01065,111.25545,48,92,0
111.01065,111.25545,36,92,0
111.26065,111.50545,47,94,0
111.26065,111.50545,35,94,0
111.51065,111.75545,48,97,0
111.51065,111.75545,36,97,0
111.76065,112.00545,50,99,0
111.76065,112.00545,38,99,0
112.01065,112.25545,51,102,0
112.01065,112.25545,39,102,0
112.26065,112.50545,51,104,0
112.26065,112.50545,39,104,0
112.51065,112.75545,53,107,0
112.51065,112.75545,41,107,0
112.76065,113.00545,51,109,0
112.76065,113.00545,39,109,0
113.01065,113.25545,53,110,0
113.01065,113.25545,41,110,0
113.26065,113.75545,65,110,0
113.26065,113.75545,60,110,0
113.26065,113.75545,56,110,0
113.76065,114.00545,65,110,0
113.76065,114.00545,60,110,0
113.76065,114.00545,56,110,0
114.01065,114.50545,60,110,0
114.01065,114.50545,56,110,0
114.51065,115.05042,56,80,0
114.51065,115.64986,63,80,0
115.05611,115.64986,55,80,0
115.656105,116.31583,63,80,0
115.656105,116.31583,54,80,0
116.32278,116.9825,63,80,0
116.32278,116.9825,55,80,0
116.98944,117.64916,65,80,0
116.98944,117.64916,59,80,0
116.98944,117.781105,55,80,0
117.78654,117.91154,53,110,0
117.91698,118.031975,51,110,0
118.03697,118.15198,50,110,0
118.156975,118.27197,48,110,0
118.27698,118.391975,50,110,0
118.39697,118.51198,51,110,0
118.516975,118.63197,48,110,0
118.63698,118.751976,50,110,0
118.75697,118.87198,48,110,0
118.876976,118.991974,47,110,0
118.99698,119.11198,45,110,0
119.116974,119.23197,43,110,0
119.23698,119.351974,47,110,0
119.35697,119.47198,50,110,0
119.476974,119.59197,53,110,0
119.59698,119.83198,51,110,0
119.836975,120.071976,43,110,0
119.836975,120.071976,31,110,0
120.07697,120.31197,48,110,0
120.07697,120.31197,36,110,0
120.31698,120.55198,47,110,0
120.31698,120.55198,35,110,0
120.55698,120.79198,48,110,0
120.55698,120.79198,36,110,0
120.796974,121.031975,53,110,0
120.796974,121.031975,41,110,0
121.03697,121.27197,51,110,0
121.03697,121.27197,39,110,0
121.27698,121.51198,48,110,0
121.27698,121.51198,36,110,0
121.75697,121.991974,48,110,0
121.75697,121.991974,36,110,0
121.99698,122.23197,50,110,0
121.99698,122.23197,38,110,0
122.23698,122.47198,48,110,0
122.23698,122.47198,36,110,0
122.476974,122.711975,50,110,0
122.476974,122.711975,38,110,0
122.71697,122.95197,55,110,0
122.71697,122.95197,43,110,0
122.95698,123.19198,53,110,0
122.95698,123.19198,41,110,0
123.196976,123.43198,51,110,0
123.196976,123.43198,39,110,0
123.43697,123.671974,50,110,0
123.43697,123.671974,38,110,0
123.67698,123.91197,46,110,0
123.67698,123.91197,34,110,0
123.91698,124.15198,48,110,0
123.91698,124.15198,36,110,0
124.156975,124.391975,50,110,0
124.156975,124.391975,38,110,0
124.39697,124.87198,51,110,0
124.39697,124.87198,39,110,0
124.876976,125.351974,55,110,0
124.876976,125.351974,43,110,0
125.35697,125.59197,50,110,0
125.35697,125.59197,38,110,0
125.59698,125.95197,38,110,0
125.95698,126.071976,41,110,0
126.07697,126.19198,44,110,0
126.196976,126.31197,48,110,0
126.31698,126.43198,46,110,0
126.43697,126.55198,48,110,0
126.55698,126.671974,46,110,0
126.67698,126.79198,44,110,0
126.796974,126.91197,43,110,0
126.91698,127.031975,44,110,0
127.03697,127.15198,43,110,0
127.156975,127.27197,41,110,0
127.27698,127.391975,43,110,0
127.39697,127.51198,44,110,0
127.516975,127.63197,43,110,0
127.63698,127.751976,41,110,0
127.75697,127.87198,40,110,0
127.876976,127.991974,43,110,0
127.99698,128.11197,46,110,0
128.11697,128.23198,49,110,0
128.23697,128.35197,48,110,0
128.35698,128.47197,49,110,0
128.47697,128.59198,48,110,0
128.59697,128.71198,46,110,0
128.71698,128.83197,44,110,0
128.83698,128.95198,46,110,0
128.95697,129.07198,44,110,0
129.07698,129.19197,43,110,0
129.19698,129.31198,44,110,0
129.31697,129.43198,46,110,0
129.43698,129.55197,44,110,0
129.55698,129.67198,42,110,0
129.67697,129.79198,41,110,0
129.79698,129.91197,45,110,0
129.91698,130.03198,48,110,0
130.03697,130.15198,51,110,0
130.15698,130.27197,49,110,0
130.27698,130.39198,51,110,0
130.39697,130.51198,50,110,0
130.51698,130.63197,48,110,0
130.63698,130.75197,46,110,0
130.75697,130.87198,48,110,0
130.87697,130.99197,46,110,0
130.99698,131.11197,45,110,0
131.11697,131.23198,46,110,0
131.23697,131.35197,48,110,0
131.35698,131.47197,46,110,0
131.47697,131.59198,44,110,0
131.59697,131.71198,43,110,0
131.71698,131.83197,46,110,0
131.83698,131.95198,50,110,0
131.95697,132.07198,53,110,0
132.07698,132.19197,51,110,0
132.19698,132.31198,53,110,0
132.31697,132.43198,51,110,0
132.43698,132.55197,49,110,0
132.55698,132.67198,48,110,0
132.67697,132.79198,49,110,0
132.79698,132.91197,48,110,0
132.91698,133.03198,46,110,0
133.03697,133.51198,44,110,0
133.51698,133.63197,68,110,0
133.63698,133.75197,72,110,0
133.75697,133.87198,70,110,0
133.87697,133.99197,68,110,0
133.99698,134.11197,70,110,0
134.11697,134.23198,68,110,0
134.23697,134.35197,67,110,0
134.35698,134.47197,65,110,0
134.47697,134.59198,63,110,0
134.59697,134.71198,67,110,0
134.71698,134.83197,70,110,0
134.83698,134.95198,73,110,0
134.95697,135.19197,72,110,0
135.19698,135.43198,67,110,0
135.19698,135.43198,55,110,0
135.43698,135.67198,68,110,0
135.43698,135.67198,56,110,0
135.67697,135.91197,67,110,0
135.67697,135.91197,55,110,0
135.91698,136.15198,68,110,0
135.91698,136.15198,56,110,0
136.15698,136.39198,73,110,0
136.15698,136.39198,61,110,0
136.39697,136.63197,72,110,0
136.39697,136.63197,60,110,0
136.63698,136.87198,69,110,0
136.63698,136.87198,57,110,0
137.11697,137.35197,57,110,0
137.11697,137.35197,69,110,0
137.35698,137.59198,70,110,0
137.35698,137.59198,58,110,0
137.59697,137.83197,69,110,0
137.59697,137.83197,57,110,0
137.83698,138.07198,70,110,0
137.83698,138.07198,58,110,0
138.07698,138.31198,75,110,0
138.07698,138.31198,63,110,0
138.31697,138.55197,73,110,0
138.31697,138.55197,61,110,0
138.55698,138.79198,70,110,0
138.55698,138.79198,58,110,0
139.03697,139.27197,70,110,0
139.03697,139.27197,58,110,0
139.27698,139.51198,72,110,0
139.27698,139.51198,60,110,0
139.51698,139.75197,70,110,0
139.51698,139.75197,58,110,0
139.75697,139.99197,72,110,0
139.75697,139.99197,60,110,0
139.99698,140.23198,77,110,0
139.99698,140.23198,65,110,0
140.23697,140.47197,75,110,0
140.23697,140.47197,63,110,0
140.47697,140.71198,72,110,0
140.47697,140.71198,60,110,0
140.95697,141.19197,44,110,0
140.95697,141.19197,32,110,0
141.19698,141.43198,46,110,0
141.19698,141.43198,34,110,0
141.43698,141.67198,48,110,0
141.43698,141.67198,36,110,0
141.67697,141.91197,53,120,0
141.67697,141.91197,49,120,0
141.79698,142.03198,56,120,0
141.91698,142.15198,53,120,0
141.91698,142.15198,49,120,0
142.03697,142.27197,56,120,0
142.15698,142.39198,53,120,0
142.15698,142.39198,49,120,0
142.27698,142.51198,56,120,0
142.39697,142.63197,53,120,0
142.39697,142.63197,49,120,0
142.51698,142.75197,56,120,0
142.63698,142.87198,53,120,0
142.63698,142.87198,49,120,0
142.75697,142.99197,56,120,0
142.87697,143.11197,53,120,0
142.87697,143.11197,49,120,0
142.99698,143.23198,56,120,0
143.11697,143.35197,53,120,0
143.11697,143.35197,49,120,0
143.23697,143.47197,56,120,0
143.35698,143.59198,53,120,0
143.35698,143.59198,49,120,0
143.47697,143.59198,56,120,0
143.59697,143.83197,56,120,0
143.59697,143.83197,53,120,0
143.59697,143.83197,50,120,0
143.71698,143.95198,59,120,0
143.83698,144.07198,56,120,0
143.83698,144.07198,53,120,0
143.83698,144.07198,50,120,0
143.95697,144.19197,59,120,0
144.07698,144.31198,56,120,0
144.07698,144.31198,53,120,0
144.07698,144.31198,50,120,0
144.19698,144.43198,59,120,0
144.31697,144.55197,56,120,0
144.31697,144.55197,53,120,0
144.31697,144.55197,50,120,0
144.43698,144.67677,59,120,0
144.55698,144.80177,56,120,0
144.55698,144.80177,53,120,0
144.55698,144.80177,50,120,0
144.68198,144.93198,59,120,0
144.80698,145.06241,56,120,0
144.80698,145.06241,53,120,0
144.80698,145.06241,50,120,0
144.93741,145.19853,59,120,0
145.06784,145.33488,56,120,0
145.06784,145.33488,53,120,0
145.06784,145.33488,50,120,0
145.20421,145.48433,59,120,0
145.34058,145.67026,56,120,0
145.34058,145.67026,53,120,0
145.34058,145.67026,50,120,0
145.49057,145.67026,59,120,0
145.67807,148.37183,51,120,0
148.22807,148.37183,51,80,0
145.67807,148.37183,39,120,0
148.22807,148.37183,60,80,0
148.22807,148.37183,63,80,0
148.37807,149.27182,61,80,0
148.37807,149.27182,58,80,0
148.37807,149.27182,51,80,0
149.42807,149.57182,60,80,0
149.42807,149.57182,56,80,0
149.42807,149.57182,51,80,0
149.57808,150.17183,60,80,0
149.57808,150.17183,56,80,0
149.57808,150.17183,51,80,0
150.17807,150.47182,58,80,0
150.17807,150.47182,55,80,0
150.17807,150.47182,51,80,0
150.62807,150.80775,58,80,0
150.62807,150.80775,55,80,0
150.65932,150.839,51,80,0
150.81557,150.839,51,80,0
150.81557,151.55775,58,80,0
150.81557,151.55775,55,80,0
151.56557,152.30775,60,80,0
151.56557,152.30775,56,80,0
151.56557,152.30775,51,80,0
153.91557,154.72807,61,80,0
153.91557,154.72807,58,80,0
153.91557,154.72807,51,80,0
154.87012,155.0008,60,80,0
154.87012,155.0008,56,80,0
154.87012,155.0008,51,80,0
155.00648,155.81898,58,80,0
155.00648,155.81898,51,80,0
155.00648,155.81898,55,80,0
155.96103,156.12074,58,80,0
155.96103,156.12074,55,80,0
155.96103,156.12074,52,80,0
156.12769,156.78741,58,80,0
156.12769,156.78741,55,80,0
156.12769,156.78741,52,80,0
156.79436,157.45407,56,80,0
156.79436,157.45407,53,80,0
158.87769,159.11728,70,80,0
158.87769,159.11728,67,80,0
158.87769,159.11728,61,80,0
159.12769,160.11728,70,80,0
159.12769,160.11728,67,80,0
159.12769,160.11728,61,80,0
160.12769,161.11728,72,80,0
160.12769,161.11728,68,80,0
160.12769,161.11728,60,80,0
162.36769,162.60269,71,120,0
162.36769,162.60269,68,120,0
162.36769,162.60269,65,120,0
162.36769,162.60269,62,120,0
162.6077,162.84268,71,120,0
162.6077,162.84268,68,120,0
162.6077,162.84268,65,120,0
162.6077,162.84268,62,120,0
162.84769,162.96269,77,120,0
162.96768,163.08269,80,120,0
163.08769,163.20268,74,120,0
163.20769,163.3227,77,120,0
163.32768,163.44269,71,120,0
163.4477,163.56268,74,120,0
163.56769,163.6827,68,120,0
163.68768,163.80269,71,120,0
163.8077,163.92268,65,120,0
163.92769,164.0427,68,120,0
164.04768,164.16269,62,120,0
164.1677,164.28268,65,120,0
164.28769,164.4027,59,120,0
164.40768,164.52269,62,120,0
164.5277,164.64268,56,120,0
164.64769,164.7627,59,120,0
164.76768,164.88269,53,120,0
164.8877,165.00269,56,120,0
165.00769,165.1227,50,80,0
165.12769,165.24269,51,82,0
165.2477,165.36269,53,85,0
165.36769,165.4827,55,88,0
165.48769,165.60269,56,91,0
165.6077,165.72269,58,94,0
165.72769,165.84268,60,96,0
165.84769,165.96269,61,99,0
165.96768,166.08269,63,102,0
166.08769,166.20268,64,105,0
166.20769,166.3227,65,108,0
166.32768,166.44269,63,110,0
166.4477,166.92268,44,120,0
166.4477,166.92268,32,120,0
166.92769,167.4027,48,120,0
166.92769,167.4027,36,120,0
167.40768,168.36269,43,120,0
167.40768,168.36269,31,120,0
168.36769,168.84268,42,120,0
168.36769,168.84268,30,120,0
168.84769,169.3227,44,120,0
168.84769,169.3227,32,120,0
169.32768,170.28268,41,120,0
169.32768,170.28268,29,120,0
170.28769,170.7627,40,120,0
170.28769,170.7627,28,120,0
170.76768,171.24269,43,120,0
170.76768,171.24269,31,120,0
171.2477,171.72269,39,120,0
171.2477,171.72269,27,120,0
171.72769,172.08269,44,120,0
171.72769,172.08269,32,120,0
172.08769,172.20268,48,120,0
172.08769,172.20268,36,120,0
172.20769,172.6827,51,120,0
172.20769,172.6827,39,120,0
172.68768,173.16269,39,120,0
172.68768,173.16269,27,120,0
173.28769,173.4027,60,120,0
173.40768,173.52269,58,120,0
173.5277,173.64268,56,120,0
173.64769,173.7627,55,120,0
173.76768,173.88269,56,120,0
173.8877,174.00269,58,120,0
174.00769,174.1227,56,120,0
174.2477,174.36269,67,120,0
174.36769,174.4827,65,120,0
174.48769,174.60269,63,120,0
174.6077,174.72269,62,120,0
174.72769,174.84268,63,120,0
174.84769,174.96269,65,120,0
174.96768,175.08269,63,120,0
175.20769,175.3227,51,120,0
175.32768,175.44269,49,120,0
175.4477,175.56268,48,120,0
175.56769,175.6827,47,120,0
175.68768,175.80269,48,120,0
175.8077,175.92268,49,120,0
175.92769,176.0427,48,120,0
176.1677,176.28268,65,120,0
176.28769,176.4027,63,120,0
176.40768,176.52269,61,120,0
176.5277,176.64268,60,120,0
176.64769,176.7627,61,120,0
176.76768,176.88269,63,120,0
176.8877,177.00269,61,120,0
177.12769,177.24269,37,120,0
177.2477,177.36269,39,120,0
177.36769,177.4827,40,120,0
177.48769,177.60269,39,120,0
177.6077,177.72269,37,120,0
177.72769,177.84268,36,120,0
177.84769,177.96269,37,120,0
177.96768,178.08269,38,120,0
178.08769,178.20268,39,120,0
178.20769,178.3227,41,120,0
178.32768,178.44269,39,120,0
178.4477,178.56268,37,120,0
178.56769,178.6827,36,120,0
178.68768,178.80269,34,120,0
178.8077,178.92268,32,120,0
178.92769,179.0427,31,120,0
179.04768,179.16269,32,120,0
179.1677,179.28268,34,120,0
179.28769,179.4027,36,120,0
179.40768,179.52269,37,120,0
179.5277,179.64268,36,120,0
179.64769,179.7627,37,120,0
179.76768,179.88269,35,120,0
179.8877,180.00269,36,120,0
180.00769,180.1227,37,120,0
180.12769,180.24269,39,120,0
180.2477,180.36269,37,120,0
180.36769,180.4827,36,120,0
180.48769,180.60269,35,120,0
180.6077,180.72269,36,120,0
180.72769,180.84268,32,120,0
180.84769,180.96269,31,120,0
180.96768,181.08269,32,120,0
181.08769,181.20268,34,120,0
181.20769,181.3227,36,120,0
181.32768,181.44269,37,120,0
181.4477,181.56268,36,120,0
181.56769,181.6827,37,120,0
181.68768,181.80269,35,120,0
181.8077,181.92268,36,120,0
181.92769,182.0427,37,120,0
182.04768,182.16269,39,120,0
182.1677,182.28268,37,120,0
182.28769,182.4027,36,120,0
182.40768,182.52269,35,120,0
182.5277,182.64268,36,120,0
182.64769,182.7627,32,120,0
182.76768,182.88269,31,120,0
182.8877,183.00269,32,120,0
183.00769,183.1227,34,120,0
183.12769,183.24269,36,120,0
183.2477,183.36269,37,120,0
183.36769,183.4827,39,120,0
183.48769,183.60269,41,120,0
183.6077,183.72269,43,120,0
183.72769,183.84268,44,120,0
183.84769,183.96269,46,120,0
183.96768,184.08269,48,120,0
184.08769,184.20268,47,120,0
184.20769,184.3227,48,120,0
184.32768,184.44269,49,120,0
184.4477,184.56268,50,120,0
184.56769,184.6827,49,120,0
184.68768,184.80269,50,120,0
184.8077,184.92268,51,120,0
184.92769,185.0427,52,120,0
185.04768,185.16269,51,120,0
185.1677,185.28268,52,120,0
185.28769,185.4027,53,120,0
185.40768,185.52269,54,120,0
185.5277,185.64268,55,120,0
185.64769,185.7627,56,120,0
185.76768,185.88269,58,120,0
185.8877,186.00269,60,120,0
186.00769,186.1227,59,120,0
186.12769,186.24269,60,120,0
186.2477,186.36269,61,120,0
186.36769,186.4827,62,120,0
186.48769,186.60269,61,120,0
186.6077,186.72269,62,120,0
186.72769,186.84268,63,120,0
186.84769,186.96269,64,120,0
186.96768,187.08269,63,120,0
187.08769,187.20268,64,120,0
187.20769,187.3227,65,120,0
187.32768,187.44269,66,120,0
187.4477,187.56268,67,120,0
187.56769,188.0427,68,120,0
188.04768,188.52269,32,120,0
188.04768,188.52269,44,120,0
189.2477,189.3227,31,120,0
189.32768,189.4027,33,120,0
189.40768,189.4827,35,120,0
189.48769,189.96269,36,120,0
191.1677,191.24269,31,120,0
191.2477,191.3227,33,120,0
191.32768,191.4027,35,120,0
191.40768,191.88269,36,120,0
191.8877,192.36269,39,120,0
192.34769,194.74269,35,120,0
195.00769,195.08269,31,120,0
195.08769,195.16269,33,120,0
195.1677,195.24269,35,120,0
195.2477,195.72269,36,120,0
195.72769,196.20268,39,120,0
196.20769,196.92268,35,120,0
196.92769,197.16269,44,120,0
197.1677,197.4027,43,120,0
197.40768,197.64268,41,120,0
197.64769,197.88269,39,120,0
197.8877,198.1227,38,120,0
198.12769,198.24269,39,120,0
198.2477,198.36269,41,120,0
198.36769,198.4827,39,120,0
198.48769,198.60269,38,120,0
198.6077,198.84268,36,120,0
198.84769,199.08269,44,120,0
199.08769,199.3227,43,110,0
199.32768,199.56268,41,100,0
199.56769,199.80269,39,90,0
199.8077,200.0427,38,80,0
200.04768,200.16269,39,80,0
200.1677,200.28268,41,80,0
200.28769,200.4027,39,80,0
200.40768,200.52269,38,80,0
200.5277,200.64268,36,80,0
200.64769,200.7627,44,80,0
200.76768,200.88269,46,81,0
200.8877,201.00269,44,82,0
201.00769,201.1227,43,82,0
201.12769,201.24269,44,83,0
201.2477,201.36269,43,84,0
201.36769,201.4827,41,85,0
201.48769,201.60269,39,85,0
201.6077,201.72269,41,86,0
201.72769,201.84268,39,87,0
201.84769,201.96269,38,87,0
201.96768,202.08269,39,88,0
202.08769,202.20268,41,89,0
202.20769,202.3227,39,90,0
202.32768,202.44269,38,90,0
202.4477,202.56268,36,91,0
202.56769,202.6827,43,92,0
202.68768,202.80269,41,92,0
202.8077,202.92268,39,93,0
202.92769,203.0427,41,94,0
203.04768,203.16269,43,95,0
203.1677,203.28268,41,95,0
203.28769,203.4027,39,96,0
203.40768,203.52269,38,97,0
203.5277,203.64268,44,98,0
203.64769,203.7627,43,98,0
203.76768,203.88269,41,99,0
203.8877,204.00269,43,100,0
204.00769,204.1227,44,100,0
204.12769,204.24269,43,101,0
204.2477,204.36269,41,102,0
204.36769,204.4827,40,103,0
204.48769,204.60269,46,103,0
204.6077,204.72269,44,104,0
204.72769,204.84268,43,105,0
204.84769,204.96269,44,105,0
204.96768,205.08269,48,106,0
205.08769,205.20268,43,107,0
205.20769,205.3227,48,108,0
205.32768,205.44269,41,108,0
205.4477,205.56268,48,109,0
205.56769,205.6827,42,110,0
205.68768,205.80269,48,110,0
205.8077,205.92268,47,120,0
205.92769,206.0427,45,110,0
206.04768,206.16269,43,110,0
206.1677,206.28268,50,110,0
206.28769,206.4027,48,120,0
206.40768,206.52269,47,110,0
206.5277,206.64268,53,110,0
206.64769,206.7627,51,110,0
206.76768,206.88269,50,120,0
206.8877,207.00269,56,110,0
207.00769,207.1227,55,110,0
207.12769,207.24269,53,110,0
207.2477,207.36269,62,120,0
207.36769,207.4827,60,110,0
207.48769,207.60269,59,110,0
207.6077,207.72269,65,110,0
207.72769,207.84268,63,120,0
207.84769,207.96269,62,110,0
207.96768,208.08269,68,110,0
208.08769,208.20268,67,110,0
208.20769,208.3227,65,120,0
208.32768,208.44269,74,110,0
208.4477,208.56268,72,110,0
208.56769,208.6827,71,110,0
208.68768,208.80269,77,120,0
208.8077,208.92268,75,108,0
208.92769,209.0427,74,106,0
209.0277,209.14268,80,105,0
209.1677,209.28268,79,102,0
209.28769,209.4027,77,100,0
209.40768,209.52269,75,98,0
209.5277,209.64268,74,96,0
209.64769,209.7627,72,94,0
209.76768,209.88269,71,92,0
209.8877,210.00269,68,90,0
210.00769,210.1227,67,88,0
210.12769,210.24269,65,86,0
210.2477,210.36269,63,84,0
210.36769,210.4827,62,82,0
210.48769,210.60269,67,80,0
210.6077,211.08269,60,80,0
211.08769,211.56268,48,80,0
211.08769,211.56268,36,80,0
212.04768,212.52269,43,80,0
212.04768,212.52269,31,80,0
212.7777,213.02248,62,80,0
212.7777,213.02248,55,80,0
213.0277,213.27248,60,80,0
213.0277,213.27248,55,80,0
213.2777,213.53313,59,80,0
213.2777,213.53313,55,80,0
214.08401,214.35106,63,80,0
214.08401,214.35106,60,80,0
214.35674,214.62378,65,80,0
214.35674,214.62378,55,80,0
214.62947,214.89651,63,80,0
214.62947,214.89651,55,80,0
214.90219,215.16924,62,80,0
214.90219,215.16924,55,80,0
215.17493,215.45468,60,80,0
215.17493,215.45468,55,80,0
215.46063,215.7404,59,80,0
215.46063,215.7404,55,80,0
216.04634,216.91689,63,80,0
216.04634,216.91689,60,80,0
216.9273,217.47209,31,80,0
216.9273,217.47209,43,80,0
217.4773,217.72209,31,82,0
217.4773,217.72209,43,82,0
217.7273,217.97209,45,85,0
217.7273,217.97209,33,85,0
217.9773,218.22209,47,87,0
217.9773,218.22209,35,87,0
218.2273,218.47209,48,90,0
218.2273,218.47209,36,90,0
218.4773,218.72209,47,93,0
218.4773,218.72209,35,93,0
218.7273,218.97209,48,95,0
218.7273,218.97209,36,95,0
218.9773,219.22209,50,98,0
218.9773,219.22209,38,98,0
219.2273,219.47209,51,100,0
219.2273,219.47209,39,100,0
219.4773,219.72209,51,103,0
219.4773,219.72209,39,103,0
219.7273,219.97209,53,106,0
219.7273,219.97209,41,106,0
219.9773,220.22209,51,108,0
219.9773,220.22209,39,108,0
220.2273,220.47209,53,110,0
220.2273,220.47209,41,110,0
220.4773,220.97209,65,110,0
220.4773,220.97209,60,110,0
220.4773,220.97209,56,110,0
220.9773,221.22209,65,110,0
220.9773,221.22209,60,110,0
220.9773,221.22209,56,110,0
221.2273,221.72209,60,110,0
221.2273,221.72209,56,110,0
221.7273,222.29277,56,80,0
221.7273,222.95845,63,80,0
222.29872,222.95845,55,80,0
222.9654,223.62512,63,80,0
222.9654,223.62512,54,80,0
223.63206,224.29178,63,80,0
223.63206,224.29178,55,80,0
224.29872,224.95845,65,80,0
224.29872,224.95845,59,80,0
224.29872,225.0804,55,80,0
225.08539,225.2004,53,110,0
225.2054,225.32039,51,110,0
225.3254,225.4404,50,110,0
225.44539,225.5604,48,110,0
225.5654,225.68039,50,110,0
225.6854,225.8004,51,110,0
225.80539,225.9204,48,110,0
225.9254,226.04039,50,110,0
226.0454,226.16039,48,110,0
226.16539,226.2804,47,110,0
226.28539,226.40039,45,110,0
226.4054,226.52039,43,110,0
226.52539,226.6404,47,110,0
226.64539,226.76039,50,110,0
226.7654,226.88039,53,110,0
226.88539,227.12039,51,110,0
227.1254,227.3604,43,110,0
227.1254,227.3604,31,110,0
227.36539,227.60039,48,110,0
227.36539,227.60039,36,110,0
227.6054,227.8404,47,110,0
227.6054,227.8404,35,110,0
227.8454,228.0804,48,110,0
227.8454,228.0804,36,110,0
228.08539,228.32039,53,110,0
228.08539,228.32039,41,110,0
228.3254,228.5604,51,110,0
228.3254,228.5604,39,110,0
228.5654,228.8004,48,110,0
228.5654,228.8004,36,110,0
229.0454,229.2804,48,110,0
229.0454,229.2804,36,110,0
229.28539,229.52039,50,110,0
229.28539,229.52039,38,110,0
229.52539,229.76039,48,110,0
229.52539,229.76039,36,110,0
229.7654,230.0004,50,110,0
229.7654,230.0004,38,110,0
230.00539,230.24039,55,110,0
230.00539,230.24039,43,110,0
230.24539,230.4804,53,110,0
230.24539,230.4804,41,110,0
230.4854,230.7204,51,110,0
230.4854,230.7204,39,110,0
230.72539,230.96039,50,110,0
230.72539,230.96039,38,110,0
230.9654,231.2004,46,110,0
230.9654,231.2004,34,110,0
231.2054,231.4404,48,110,0
231.2054,231.4404,36,110,0
231.44539,231.68039,50,110,0
231.44539,231.68039,38,110,0
231.6854,232.16039,51,110,0
231.6854,232.16039,39,110,0
232.16539,232.6404,55,110,0
232.16539,232.6404,43,110,0
232.64539,232.88039,50,110,0
232.64539,232.88039,38,110,0
232.88539,233.24039,38,110,0
233.24539,233.3604,41,110,0
233.36539,233.4804,44,110,0
233.4854,233.60039,48,110,0
233.6054,233.7204,46,110,0
233.72539,233.8404,48,110,0
233.8454,233.96039,46,110,0
233.9654,234.0804,44,110,0
234.08539,234.2004,43,110,0
234.2054,234.32039,44,110,0
234.3254,234.4404,43,110,0
234.44539,234.5604,41,110,0
234.5654,234.68039,43,110,0
234.6854,234.8004,44,110,0
234.80539,234.9204,43,110,0
234.9254,235.04039,41,110,0
235.0454,235.16039,40,110,0
235.16539,235.2804,43,110,0
235.28539,235.40039,46,110,0
235.4054,235.52039,49,110,0
235.52539,235.6404,48,110,0
235.64539,235.76039,49,110,0
235.7654,235.88039,48,110,0
235.88539,236.0004,46,110,0
236.00539,236.12039,44,110,0
236.1254,236.24039,46,110,0
236.24539,236.3604,44,110,0
236.36539,236.4804,43,110,0
236.4854,236.60039,44,110,0
236.6054,236.7204,46,110,0
236.72539,236.8404,44,110,0
236.8454,236.96039,42,110,0
236.9654,237.0804,41,110,0
237.08539,237.2004,45,110,0
237.2054,237.32039,48,110,0
237.3254,237.4404,51,110,0
237.44539,237.5604,49,110,0
237.5654,237.68039,51,110,0
237.6854,237.8004,50,110,0
237.80539,237.9204,48,110,0
237.9254,238.04039,46,110,0
238.0454,238.16039,48,110,0
238.16539,238.2804,46,110,0
238.28539,238.40039,45,110,0
238.4054,238.52039,46,110,0
238.52539,238.6404,48,110,0
238.64539,238.76039,46,110,0
238.7654,238.88039,44,110,0
238.88539,239.0004,43,110,0
239.00539,239.12039,46,110,0
239.1254,239.24039,50,110,0
239.24539,239.3604,53,110,0
239.36539,239.4804,51,110,0
239.4854,239.60039,53,110,0
239.6054,239.7204,51,110,0
239.72539,239.8404,49,110,0
239.8454,239.96039,48,110,0
239.9654,240.0804,49,110,0
240.08539,240.2004,48,110,0
240.2054,240.32039,46,110,0
240.3254,240.8004,44,110,0
240.80539,240.9204,68,110,0
240.9254,241.04039,72,110,0
241.0454,241.16039,70,110,0
241.16539,241.2804,68,110,0
241.28539,241.40039,70,110,0
241.4054,241.52039,68,110,0
241.52539,241.6404,67,110,0
241.64539,241.76039,65,110,0
241.7654,241.88039,63,110,0
241.88539,242.0004,67,110,0
242.00539,242.12039,70,110,0
242.1254,242.24039,73,110,0
242.24539,242.4804,72,110,0
242.4854,242.7204,67,110,0
242.4854,242.7204,55,110,0
242.72539,242.96039,68,110,0
242.72539,242.96039,56,110,0
242.9654,243.2004,67,110,0
242.9654,243.2004,55,110,0
243.2054,243.4404,68,110,0
243.2054,243.4404,56,110,0
243.44539,243.68039,73,110,0
243.44539,243.68039,61,110,0
243.6854,243.9204,72,110,0
243.6854,243.9204,60,110,0
243.9254,244.16039,69,110,0
243.9254,244.16039,57,110,0
244.4054,244.6404,69,110,0
244.4254,244.66039,57,110,0
244.64539,244.88039,70,110,0
244.64539,244.88039,58,110,0
244.88539,245.12039,69,110,0
244.88539,245.12039,57,110,0
245.1254,245.3604,70,110,0
245.1254,245.3604,58,110,0
245.36539,245.60039,75,110,0
245.36539,245.60039,63,110,0
245.6054,245.8404,73,110,0
245.6054,245.8404,61,110,0
245.8454,246.0804,70,110,0
245.8454,246.0804,58,110,0
246.3254,246.5604,70,110,0
246.3254,246.5604,58,110,0
246.5654,246.8004,72,110,0
246.5654,246.8004,60,110,0
246.80539,247.04039,70,110,0
246.80539,247.04039,58,110,0
247.0454,247.2804,72,110,0
247.0454,247.2804,60,110,0
247.28539,247.52039,77,110,0
247.28539,247.52039,65,110,0
247.52539,247.76039,75,110,0
247.52539,247.76039,63,110,0
247.7654,248.0004,72,110,0
247.7654,248.0004,60,110,0
248.24539,248.4804,44,110,0
248.24539,248.4804,32,110,0
248.4854,248.7204,46,110,0
248.4854,248.7204,34,110,0
248.72539,248.96039,48,110,0
248.72539,248.96039,36,110,0
248.9654,249.2004,53,120,0
248.9654,249.2004,49,120,0
249.08539,249.32039,56,120,0
249.2054,249.4404,53,120,0
249.2054,249.4404,49,120,0
249.3254,249.5604,56,120,0
249.44539,249.68039,53,120,0
249.44539,249.68039,49,120,0
249.5654,249.8004,56,120,0
249.6854,249.9204,53,120,0
249.6854,249.9204,49,120,0
249.80539,250.04039,56,120,0
249.9254,250.16039,53,120,0
249.9254,250.16039,49,120,0
250.0454,250.2804,56,120,0
250.16539,250.40039,53,120,0
250.16539,250.40039,49,120,0
250.28539,250.52039,56,120,0
250.4054,250.6404,53,120,0
250.4054,250.6404,49,120,0
250.52539,250.76039,56,120,0
250.64539,250.88039,53,120,0
250.64539,250.88039,49,120,0
250.7654,250.88039,56,120,0
250.88539,251.12039,56,120,0
250.88539,251.12039,53,120,0
250.88539,251.12039,50,120,0
251.00539,251.24039,59,120,0
251.1254,251.3604,56,120,0
251.1254,251.3604,53,120,0
251.1254,251.3604,50,120,0
251.24539,251.48518,59,120,0
251.36539,251.61018,56,120,0
251.36539,251.61018,53,120,0
251.36539,251.61018,50,120,0
251.49039,251.73518,59,120,0
251.61539,251.86018,56,120,0
251.61539,251.86018,53,120,0
251.61539,251.86018,50,120,0
251.74039,251.99039,59,120,0
251.86539,252.12083,56,120,0
251.86539,252.12083,53,120,0
251.86539,252.12083,50,120,0
251.99583,252.25127,59,120,0
252.12627,252.3817,56,120,0
252.12627,252.3817,53,120,0
252.12627,252.3817,50,120,0
252.2567,252.5178,59,120,0
252.38713,252.65417,56,120,0
252.38713,252.65417,53,120,0
252.38713,252.65417,50,120,0
252.5235,252.8036,59,120,0
252.65985,252.98955,56,120,0
252.65985,252.98955,53,120,0
252.65985,252.98955,50,120,0
252.80986,252.98955,59,120,0
252.99736,255.39111,51,120,0
255.24736,255.39111,51,80,0
252.99736,255.39111,39,120,0
255.24736,255.39111,60,80,0
255.24736,255.39111,63,80,0
255.39735,256.2911,61,80,0
255.39735,256.2911,58,80,0
255.39735,256.2911,51,80,0
256.44736,256.5911,60,80,0
256.44736,256.5911,56,80,0
256.44736,256.5911,51,80,0
256.59735,257.25708,60,80,0
256.59735,257.25708,56,80,0
256.59735,257.25708,51,80,0
257.26404,257.59042,58,80,0
257.26404,257.59042,55,80,0
257.26404,257.59042,51,80,0
257.76404,257.94373,58,80,0
257.76404,257.94373,55,80,0
257.7953,257.97498,51,80,0
257.95154,257.97498,51,80,0
257.95154,258.69373,58,80,0
257.95154,258.69373,55,80,0
258.70154,259.44373,60,80,0
258.70154,259.44373,56,80,0
258.70154,259.44373,51,80,0
261.22653,262.12027,61,80,0
261.22653,262.12027,58,80,0
261.22653,262.12027,51,80,0
262.27652,262.4203,60,80,0
262.27652,262.4203,56,80,0
262.27652,262.4203,51,80,0
262.4265,263.32028,58,80,0
262.4265,263.32028,51,80,0
262.4265,263.32028,55,80,0
263.47653,263.62027,58,80,0
263.47653,263.62027,55,80,0
263.47653,263.62027,52,80,0
263.62653,264.28625,58,80,0
263.62653,264.28625,55,80,0
263.62653,264.28625,52,80,0
264.29318,264.9529,56,80,0
264.29318,264.9529,53,80,0
266.26938,266.47473,70,80,0
266.26938,266.47473,67,80,0
266.26938,266.47473,61,80,0
266.48367,267.33188,70,80,0
266.48367,267.33188,67,80,0
266.48367,267.33188,61,80,0
267.34082,268.18903,72,80,0
267.34082,268.18903,68,80,0
267.34082,268.18903,60,80,0
269.2951,269.5301,71,120,0
269.2951,269.5301,68,120,0
269.2951,269.5301,65,120,0
269.2951,269.5301,62,120,0
269.5351,269.77008,71,120,0
269.5351,269.77008,68,120,0
269.5351,269.77008,65,120,0
269.5351,269.77008,62,120,0
269.7751,269.89008,77,120,0
269.89508,270.0101,80,120,0
270.01508,270.1301,74,120,0
270.1351,270.2501,77,120,0
270.2551,270.3701,71,120,0
270.3751,270.49008,74,120,0
270.4951,270.61008,68,120,0
270.61508,270.7301,71,120,0
270.73508,270.8501,65,120,0
270.8551,270.9701,68,120,0
270.9751,271.0901,62,120,0
271.0951,271.21008,65,120,0
271.2151,271.33008,59,120,0
271.33508,271.4501,62,120,0
271.45508,271.5701,56,120,0
271.5751,271.6901,59,120,0
271.6951,271.8101,53,120,0
271.8151,271.93008,56,120,0
271.9351,272.05008,50,80,0
272.05508,272.1701,51,83,0
272.17508,272.2901,53,87,0
272.2951,272.4101,55,90,0
272.4151,272.5301,56,94,0
272.5351,272.6501,58,98,0
272.6551,272.77008,60,101,0
272.7751,272.89008,61,105,0
272.89508,273.0101,63,108,0
273.01508,273.1301,64,112,0
273.1351,273.2501,65,116,0
273.2551,273.3701,63,119,0
273.3751,273.8501,44,120,0
273.3751,273.8501,32,120,0
273.8551,274.33008,48,120,0
273.8551,274.33008,36,120,0
274.33508,275.2901,43,120,0
274.33508,275.2901,31,120,0
275.2951,275.77008,42,120,0
275.2951,275.77008,30,120,0
275.7751,276.2501,44,120,0
275.7751,276.2501,32,120,0
276.2551,277.21008,41,120,0
276.2551,277.21008,29,120,0
277.2151,277.6901,40,120,0
277.2151,277.6901,28,120,0
277.6951,278.1701,43,120,0
277.6951,278.1701,31,120,0
278.17508,278.6501,39,120,0
278.17508,278.6501,27,120,0
278.6551,279.0101,44,120,0
278.6551,279.0101,32,120,0
279.01508,279.1301,48,120,0
279.01508,279.1301,36,120,0
279.1351,279.61008,51,120,0
279.1351,279.61008,39,120,0
279.61508,280.0901,39,120,0
279.61508,280.0901,27,120,0
280.2151,280.33008,60,120,0
280.33508,280.4501,58,120,0
280.45508,280.5701,56,120,0
280.5751,280.6901,55,120,0
280.6951,280.8101,56,120,0
280.8151,280.93008,58,120,0
280.9351,281.05008,56,120,0
281.17508,281.2901,67,120,0
281.2951,281.4101,65,120,0
281.4151,281.5301,63,120,0
281.5351,281.6501,62,120,0
281.6551,281.77008,63,120,0
281.7751,281.89008,65,120,0
281.89508,282.0101,63,120,0
282.1351,282.2501,51,120,0
282.2551,282.3701,49,120,0
282.3751,282.49008,48,120,0
282.4951,282.61008,47,120,0
282.61508,282.7301,48,120,0
282.73508,282.8501,49,120,0
282.8551,282.9701,48,120,0
283.0951,283.21008,65,120,0
283.2151,283.33008,63,120,0
283.33508,283.4501,61,120,0
283.45508,283.5701,60,120,0
283.5751,283.6901,61,120,0
283.6951,283.8101,63,120,0
283.8151,283.93008,61,120,0
284.05508,284.1701,37,120,0
284.17508,284.2901,39,120,0
284.2951,284.4101,40,120,0
284.4151,284.5301,39,120,0
284.5351,284.6501,37,120,0
284.6551,284.77008,36,120,0
284.7751,284.89008,37,120,0
284.89508,285.0101,38,120,0
285.01508,285.1301,39,120,0
285.1351,285.2501,41,120,0
285.2551,285.3701,39,120,0
285.3751,285.49008,37,120,0
285.4951,285.61008,36,120,0
285.61508,285.7301,34,120,0
285.73508,285.8501,32,120,0
285.8551,285.9701,31,120,0
285.9751,286.0901,32,120,0
286.0951,286.21008,34,120,0
286.2151,286.33008,36,120,0
286.33508,286.4501,37,120,0
286.45508,286.5701,36,120,0
286.5751,286.6901,37,120,0
286.6951,286.8101,35,120,0
286.8151,286.93008,36,120,0
286.9351,287.05008,37,120,0
287.05508,287.1701,39,120,0
287.17508,287.2901,37,120,0
287.2951,287.4101,36,120,0
287.4151,287.5301,35,120,0
287.5351,287.6501,36,120,0
287.6551,287.77008,32,120,0
287.7751,287.89008,31,120,0
287.89508,288.0101,32,120,0
288.01508,288.1301,34,120,0
288.1351,288.2501,36,120,0
288.2551,288.3701,37,120,0
288.3751,288.49008,36,120,0
288.4951,288.61008,37,120,0
288.61508,288.7301,35,120,0
288.73508,288.8501,36,120,0
288.8551,288.9701,37,120,0
288.9751,289.0901,39,120,0
289.0951,289.21008,37,120,0
289.2151,289.33008,36,120,0
289.33508,289.4501,35,120,0
289.45508,289.5701,36,120,0
289.5751,289.6901,32,120,0
289.6951,289.8101,31,120,0
289.8151,289.93008,32,120,0
289.9351,290.05008,34,120,0
290.05508,290.1701,36,120,0
290.17508,290.2901,37,120,0
290.2951,290.4101,39,120,0
290.4151,290.5301,41,120,0
290.5351,290.6501,43,120,0
290.6551,290.77008,44,120,0
290.7751,290.89008,46,120,0
290.89508,291.0101,48,120,0
291.01508,291.1301,47,120,0
291.1351,291.2501,48,120,0
291.2551,291.3701,49,120,0
291.3751,291.49008,50,120,0
291.4951,291.61008,49,120,0
291.61508,291.7301,50,120,0
291.73508,291.8501,51,120,0
291.8551,291.9701,52,120,0
291.9751,292.0901,51,120,0
292.0951,292.21008,52,120,0
292.2151,292.33008,53,120,0
292.33508,292.4501,54,120,0
292.45508,292.5701,55,120,0
292.5751,292.6901,56,120,0
292.6951,292.8101,58,120,0
292.8151,292.93008,60,120,0
292.9351,293.05008,59,120,0
293.05508,293.1701,60,120,0
293.17508,293.2901,61,120,0
293.2951,293.4101,62,120,0
293.4151,293.5301,61,120,0
293.5351,293.6501,62,120,0
293.6551,293.77008,63,120,0
293.7751,293.89008,64,120,0
293.89508,294.0101,63,120,0
294.01508,294.1301,64,120,0
294.1351,294.2501,65,120,0
294.2551,294.3701,66,120,0
294.3751,294.49008,67,120,0
294.4951,294.9701,68,120,0
294.9751,295.4501,32,120,0
294.9751,295.4501,44,120,0
296.89508,297.3701,43,80,0
296.89508,297.3701,31,80,0
298.8151,299.2901,42,120,0
298.8151,299.2901,30,120,0
300.9751,301.05008,38,80,0
301.05508,301.1301,40,80,0
301.1351,301.21008,42,80,0
301.2151,301.6901,43,80,0
301.2151,301.6901,31,80,0
301.6951,302.1701,46,80,0
301.6951,302.1701,34,80,0
302.17508,303.1301,42,80,0
302.17508,303.1301,30,80,0
303.1351,303.61008,41,80,0
303.1351,303.61008,29,80,0
303.61508,304.0901,44,80,0
303.61508,304.0901,32,80,0
304.0951,305.05008,40,80,0
304.0951,305.05008,28,80,0
305.05508,305.5301,39,80,0
305.05508,305.5301,27,80,0
305.5351,306.0101,43,80,0
305.5351,306.0101,31,80,0
306.01508,306.49008,38,80,0
306.01508,306.49008,26,80,0
306.4951,306.8501,31,80,0
306.4951,306.8501,43,80,0
306.8551,306.9701,46,80,0
306.8551,306.9701,34,80,0
306.9751,307.4501,50,80,0
306.9751,307.4501,38,80,0
307.45508,307.93008,48,80,0
307.45508,307.93008,36,80,0
307.9351,308.4101,47,80,0
307.9351,308.4101,35,80,0
308.4151,308.89008,43,80,0
308.4151,308.89008,31,80,0
308.89508,309.3701,55,80,0
309.3751,309.8501,60,80,0
309.8551,310.5701,54,80,0
310.55508,310.7901,63,80,0
310.8151,311.05008,62,80,0
311.05508,311.2901,60,80,0
311.2951,311.5301,57,80,0
311.2951,311.77008,50,80,0
311.5351,311.77008,57,80,0
311.7751,312.2501,59,80,0
311.7751,312.7301,55,80,0
312.73508,313.6901,56,80,0
313.6951,314.6501,50,80,0
314.6551,314.77008,59,80,0
314.7151,314.83008,60,80,0
314.7751,314.89008,59,80,0
314.83508,314.9501,60,80,0
314.89508,315.0101,59,80,0
314.95508,315.0701,60,80,0
315.01508,315.1301,59,80,0
315.0751,315.1901,60,80,0
315.1351,315.2501,59,80,0
315.1951,315.3101,60,80,0
315.2551,315.3701,59,80,0
315.3151,315.43008,60,80,0
315.3751,315.49008,59,80,0
315.4351,315.55008,60,80,0
315.4951,315.61008,57,80,0
315.55508,315.6701,59,80,0
315.61508,316.0901,60,80,0
316.2151,316.33008,58,80,0
316.33508,316.4501,56,80,0
316.45508,316.5701,55,80,0
316.5751,317.05008,56,80,0
317.05508,317.5301,53,80,0
317.5351,318.0101,58,80,0
318.01508,318.49008,55,80,0
318.4951,318.9701,60,80,0
318.9751,319.4501,48,80,0
319.45508,320.4101,53,80,0
320.4151,320.5301,52,80,0
320.4751,320.5901,53,80,0
320.5351,320.6501,52,80,0
320.5951,320.71008,53,80,0
320.6551,320.77008,52,80,0
320.7151,320.83008,53,80,0
320.7751,320.89008,52,80,0
320.83508,320.9501,53,80,0
320.89508,321.0101,52,80,0
320.95508,321.0701,53,80,0
321.01508,321.1301,52,80,0
321.0751,321.1901,53,80,0
321.1351,321.2501,52,80,0
321.1951,321.3101,53,80,0
321.2551,321.3701,50,80,0
321.3151,321.43008,52,80,0
321.3751,322.33008,53,80,0
321.3751,322.33008,41,80,0
322.33508,322.4501,40,80,0
322.39508,322.5101,41,80,0
322.45508,322.5701,40,80,0
322.51508,322.6301,41,80,0
322.5751,322.6901,40,80,0
322.6351,322.7501,41,80,0
322.6951,322.8101,40,80,0
322.7551,322.8701,41,80,0
322.8151,322.93008,40,80,0
322.8751,322.99008,41,80,0
322.9351,323.05008,40,80,0
322.9951,323.11008,41,80,0
323.05508,323.1701,40,80,0
323.11508,323.2301,41,80,0
323.17508,323.2901,38,80,0
323.23508,323.3501,40,80,0
323.2951,323.5301,41,80,0
323.5351,323.77008,39,82,0
323.7751,324.0101,38,85,0
324.01508,324.2501,36,87,0
324.2551,324.49008,35,90,0
324.4951,324.7301,34,92,0
324.73508,324.9701,33,95,0
324.9751,325.21008,32,98,0
325.2151,325.4501,31,100,0
325.45508,325.93008,30,103,0
325.9351,326.4101,42,108,0
325.9351,326.4101,30,108,0
326.4151,326.89987,42,113,0
326.4151,326.89987,30,113,0
326.9051,327.17215,42,118,0
326.9051,327.17215,30,118,0
327.30826,327.55368,31,110,0
327.4387,327.67368,33,110,0
327.5587,327.7937,35,110,0
327.79868,328.0337,43,110,0
327.9187,328.1537,45,110,0
328.0387,328.27368,47,110,0
328.2787,328.51367,31,110,0
328.39868,328.6337,36,110,0
328.51868,328.7537,39,110,0
328.63867,328.8737,42,110,0
328.7587,328.99368,45,110,0
328.8787,329.11368,48,110,0
329.01868,329.2537,51,110,0
329.23868,329.3537,31,110,0
329.35867,329.4737,36,110,0
329.4787,329.5937,39,110,0
329.7187,329.83368,43,110,0
329.83868,329.95367,48,110,0
329.95868,330.0737,51,110,0
330.1987,330.3137,31,110,0
330.3187,330.4337,38,110,0
330.4387,330.55368,41,110,0
330.5587,330.67368,43,110,0
330.67868,330.7937,47,110,0
330.79868,330.9137,50,110,0
330.9187,331.0337,53,110,0
331.1587,331.27368,31,110,0
331.2787,331.39368,38,110,0
331.39868,331.51367,41,110,0
331.63867,331.7537,43,110,0
331.7587,331.8737,50,110,0
331.8787,331.99368,53,110,0
332.11868,332.23367,31,110,0
332.23868,332.3537,43,110,0
332.35867,332.4737,46,110,0
332.4787,332.5937,49,110,0
332.5987,332.71368,52,110,0
332.7187,332.83368,55,110,0
332.83868,332.95367,58,110,0
333.07867,333.1937,31,110,0
333.1987,333.3137,43,110,0
333.3187,333.4337,46,110,0
333.5587,333.67368,43,110,0
333.67868,333.7937,55,110,0
333.79868,333.9137,58,110,0
334.0387,334.1537,31,110,0
334.1587,334.27368,45,110,0
334.2787,334.39368,48,110,0
334.39868,334.51367,51,110,0
334.51868,334.6337,54,110,0
334.63867,334.7537,57,110,0
334.7587,334.8737,60,110,0
334.9987,335.11368,31,110,0
335.11868,335.23367,45,110,0
335.23868,335.3537,48,110,0
335.4787,335.5937,54,110,0
335.5987,335.71368,57,110,0
335.7187,335.83368,60,110,0
335.95868,336.0737,31,110,0
336.07867,336.1937,47,110,0
336.1987,336.3137,50,110,0
336.3187,336.4337,53,110,0
336.4387,336.55368,56,110,0
336.5587,336.67368,53,110,0
336.67868,336.7937,56,110,0
336.79868,336.9137,55,110,0
336.9187,337.0337,56,110,0
337.0387,337.1537,55,110,0
337.1587,337.27368,53,110,0
337.2787,337.39368,51,110,0
337.39868,337.51367,53,110,0
337.51868,337.6337,51,110,0
337.63867,337.7537,50,110,0
337.7587,337.8737,51,110,0
337.8787,337.99368,53,110,0
337.9987,338.11368,51,110,0
338.11868,338.23367,50,110,0
338.23868,338.3537,48,110,0
338.35867,338.4737,43,110,0
338.4787,338.5937,45,110,0
338.5987,338.71368,47,110,0
338.7187,339.1937,48,120,0
338.7187,339.1937,36,120,0
339.1987,339.67368,51,120,0
339.1987,339.67368,39,120,0
339.67868,340.39368,47,120,0
339.67868,340.39368,35,120,0
340.39868,340.6337,56,120,0
340.39868,340.6337,44,120,0
340.63867,340.8737,55,120,0
340.63867,340.8737,43,120,0
340.8787,341.11368,53,120,0
340.8787,341.11368,41,120,0
341.11868,341.3537,51,120,0
341.11868,341.3537,39,120,0
341.35867,341.5937,50,120,0
341.35867,341.5937,38,120,0
341.5987,341.71368,39,120,0
341.7187,341.83368,41,120,0
341.83868,341.95367,39,120,0
341.95868,342.0737,38,120,0
342.07867,342.3137,48,120,0
342.07867,342.3137,36,120,0
342.5587,342.80347,59,80,0
342.5587,342.80347,55,80,0
342.8087,343.05347,59,80,0
342.8087,343.05347,55,80,0
343.0587,343.32574,60,80,0
343.0587,343.32574,55,80,0
343.33142,343.59845,59,80,0
343.33142,343.59845,55,80,0
343.90414,344.53052,60,80,0
343.90414,344.53052,48,80,0
344.87082,345.1972,43,80,0
344.87082,345.1972,31,80,0
345.20413,345.53052,43,80,0
345.20413,345.53052,31,80,0
345.53748,345.86386,45,80,0
345.53748,345.86386,31,80,0
345.87082,346.1972,47,80,0
345.87082,346.1972,31,80,0
346.53748,347.42883,48,80,0
346.53748,347.42883,36,80,0
347.58926,347.733,47,80,0
347.58926,347.733,35,80,0
347.8756,348.00632,47,81,0
347.8756,348.00632,35,81,0
348.14835,348.27902,47,83,0
348.14835,348.27902,35,83,0
348.42108,348.55176,47,84,0
348.42108,348.55176,35,84,0
348.6938,348.8245,47,85,0
348.6938,348.8245,35,85,0
348.96652,349.0972,48,86,0
348.96652,349.0972,36,86,0
349.23926,349.36993,50,88,0
349.23926,349.36993,38,88,0
349.512,349.64267,51,89,0
349.512,349.64267,39,89,0
349.7847,349.9154,50,90,0
349.7847,349.9154,38,90,0
350.05743,350.1881,39,91,0
350.05743,350.1881,51,91,0
350.33017,350.46085,52,93,0
350.33017,350.46085,40,93,0
350.6029,350.73358,53,94,0
350.6029,350.73358,41,94,0
350.8756,351.0063,52,95,0
350.8756,351.0063,40,95,0
351.14835,351.27902,53,96,0
351.14835,351.27902,41,96,0
351.42108,351.55176,55,97,0
351.42108,351.55176,43,97,0
351.6938,351.8245,56,99,0
351.6938,351.8245,44,99,0
351.96652,352.0972,56,100,0
351.96652,352.0972,53,100,0
352.23926,352.5063,56,101,0
352.23926,352.5063,53,101,0
352.512,352.77902,61,102,0
352.512,352.77902,56,102,0
352.512,352.77902,53,102,0
352.80743,353.0745,61,104,0
353.05743,353.0745,61,105,0
352.80743,353.0745,56,104,0
353.05743,353.0745,56,105,0
352.80743,353.0745,53,104,0
353.05743,353.0745,53,105,0
353.33017,353.5972,61,106,0
353.33017,353.5972,56,106,0
353.33017,353.5972,53,106,0
353.60287,353.86993,61,107,0
353.60287,353.86993,56,107,0
353.60287,353.86993,53,107,0
353.8756,354.14267,61,109,0
353.8756,354.14267,56,109,0
353.8756,354.14267,53,109,0
354.14835,354.27902,56,110,0
354.14835,354.27902,53,110,0
354.4347,354.57846,56,108,0
354.4347,354.57846,53,108,0
354.7347,354.87845,55,104,0
354.7347,354.87845,52,104,0
355.0347,355.17847,55,100,0
355.0347,355.17847,52,100,0
355.33472,355.47845,55,96,0
355.33472,355.47845,52,96,0
355.4847,355.77844,55,94,0
355.4847,355.77844,52,94,0
355.7847,356.37845,40,90,0
356.3847,356.47845,36,110,0
356.4847,356.57846,38,110,0
356.58472,356.67847,40,110,0
356.6847,357.1597,41,110,0
356.6847,357.1597,29,110,0
357.1647,357.6397,44,110,0
357.1647,357.6397,32,110,0
357.6447,358.23972,40,110,0
357.6447,358.23972,28,110,0
358.2447,358.3597,43,110,0
358.36472,358.4797,46,110,0
358.4847,358.5997,49,110,0
358.6047,358.7197,48,110,0
358.7247,358.8397,49,110,0
358.8447,358.95972,48,110,0
358.9647,359.0797,46,110,0
359.08472,359.1997,44,110,0
359.2047,359.3197,46,110,0
359.3247,359.4397,44,110,0
359.4447,359.5597,43,110,0
359.5647,359.67972,44,110,0
359.6847,359.7997,46,110,0
359.80472,359.9197,44,110,0
359.9247,360.0397,43,110,0
360.0447,360.1597,41,110,0
360.1647,360.2797,44,110,0
360.2847,360.39972,46,110,0
360.4047,360.5197,48,110,0
360.52472,360.6397,49,110,0
360.6447,360.7597,51,110,0
360.7647,360.8797,49,110,0
360.8847,360.9997,48,110,0
361.0047,361.1197,46,110,0
361.1247,361.23972,48,110,0
361.2447,361.3597,46,110,0
361.36472,361.4797,45,110,0
361.4847,361.5997,46,110,0
361.6047,361.7197,48,110,0
361.7247,361.8397,46,110,0
361.8447,361.95972,44,110,0
361.9647,362.0797,43,110,0
362.08472,362.1997,46,110,0
362.2047,362.3197,49,110,0
362.3247,362.4397,53,110,0
362.4447,362.5597,51,110,0
362.5647,362.67972,53,110,0
362.6847,362.7997,51,110,0
362.80472,362.9197,49,110,0
362.9247,363.0397,48,110,0
363.0447,363.1597,49,110,0
363.1647,363.2797,48,110,0
363.2847,363.39972,46,110,0
363.4047,363.5197,48,110,0
363.52472,363.6397,49,110,0
363.6447,363.7597,48,110,0
363.7647,363.8797,46,110,0
363.8847,363.9997,45,110,0
364.0047,364.1197,48,110,0
364.1247,364.23972,51,110,0
364.2447,364.3597,54,110,0
364.36472,364.4797,53,110,0
364.4847,364.5997,54,110,0
364.6047,364.7197,53,110,0
364.7247,364.8397,51,110,0
364.8447,364.95972,49,110,0
364.9647,365.0797,51,110,0
365.08472,365.1997,49,110,0
365.2047,365.3197,48,110,0
365.3247,365.4397,49,110,0
365.4447,365.5597,51,110,0
365.5647,365.67972,49,110,0
365.6847,365.7997,48,110,0
365.80472,365.9197,46,110,0
365.9247,366.0397,49,110,0
366.0447,366.1597,46,110,0
366.1647,366.2797,49,110,0
366.2847,366.39972,48,110,0
366.4047,366.5197,49,110,0
366.52472,366.6397,51,110,0
366.6447,366.7597,49,110,0
366.7647,366.8797,48,110,0
366.8847,366.9997,49,110,0
367.0047,367.1197,48,110,0
367.1247,367.23972,46,110,0
367.2447,367.4797,45,110,0
367.4847,367.7197,53,110,0
367.4847,367.7197,41,110,0
367.7247,367.95972,58,110,0
367.7247,367.95972,46,110,0
367.9647,368.1997,57,110,0
367.9647,368.1997,45,110,0
368.2047,368.4397,58,110,0
368.2047,368.4397,46,110,0
368.4447,368.67972,63,110,0
368.4447,368.67972,51,110,0
368.6847,368.9197,61,110,0
368.6847,368.9197,49,110,0
368.9247,369.1597,58,110,0
368.9247,369.1597,46,110,0
369.4047,369.6397,58,110,0
369.4047,369.6397,46,110,0
369.6447,369.8797,60,110,0
369.6447,369.8797,48,110,0
369.8847,370.1197,58,110,0
369.8847,370.1197,46,110,0
370.1247,370.3597,60,110,0
370.1247,370.3597,48,110,0
370.36472,370.5997,65,110,0
370.36472,370.5997,53,110,0
370.6047,370.8397,63,110,0
370.6047,370.8397,51,110,0
370.8447,371.0797,60,110,0
370.8447,371.0797,48,110,0
371.3247,371.5597,60,110,0
371.3247,371.5597,48,110,0
371.5647,371.7997,61,110,0
371.5647,371.7997,49,110,0
371.80472,372.0397,60,110,0
371.80472,372.0397,48,110,0
372.0447,372.1597,65,110,0
372.1647,372.2797,66,110,0
372.2847,372.39972,65,110,0
372.4047,372.5197,63,110,0
372.52472,372.6397,61,110,0
372.6447,372.7597,63,110,0
372.7647,372.8797,65,110,0
372.8847,372.9997,61,110,0
373.0047,373.1197,68,110,0
373.1247,373.23972,70,110,0
373.2447,373.3597,68,110,0
373.36472,373.4797,67,110,0
373.4847,373.5997,68,110,0
373.6047,373.7197,72,110,0
373.7247,373.8397,75,110,0
373.8447,373.95972,78,110,0
373.9647,374.0797,77,110,0
374.08472,374.1997,78,110,0
374.2047,374.3197,77,110,0
374.3247,374.4397,75,110,0
374.4447,374.5597,73,110,0
374.5647,374.67972,75,110,0
374.6847,374.7997,73,110,0
374.80472,374.9197,72,110,0
374.9247,375.0397,73,110,0
375.0447,375.1597,75,110,0
375.1647,375.2797,73,110,0
375.2847,375.39972,71,110,0
375.4047,375.5197,70,110,0
375.52472,375.6397,74,110,0
375.6447,375.7597,77,110,0
375.7647,375.8797,80,110,0
375.8847,375.9997,78,110,0
376.0047,376.1197,80,110,0
376.1247,376.23972,78,110,0
376.2447,376.3597,77,110,0
376.36472,376.4797,75,110,0
376.4847,376.5997,77,110,0
376.6047,376.7197,75,110,0
376.7247,376.8397,74,110,0
376.8447,376.95972,75,110,0
376.9647,377.0797,77,110,0
377.08472,377.1997,75,110,0
377.2047,377.3197,73,110,0
377.3247,377.4397,72,110,0
377.4447,377.5597,76,110,0
377.5647,377.67972,79,110,0
377.6847,377.7997,77,110,0
377.80472,377.9197,76,110,0
377.9247,378.0397,77,110,0
378.0447,378.1597,76,110,0
378.1647,378.2797,79,110,0
378.2847,378.39972,77,110,0
378.4047,378.5197,79,110,0
378.52472,378.6397,77,110,0
378.6447,378.7597,76,110,0
378.7647,378.8797,77,110,0
378.8847,378.9997,79,110,0
379.0047,379.1197,77,110,0
379.1247,379.23972,75,110,0
379.2447,379.3597,74,110,0
379.36472,379.4797,78,110,0
379.4847,379.5997,81,110,0
379.6047,379.7197,84,110,0
379.7247,379.8397,82,110,0
379.8447,379.95972,84,110,0
379.9647,380.0797,82,110,0
380.08472,380.1997,81,110,0
380.2047,380.3197,79,110,0
380.3247,380.4397,81,110,0
380.4447,380.5597,79,110,0
380.5647,380.67972,78,110,0
380.6847,380.7997,79,110,0
380.80472,380.9197,81,110,0
380.9247,381.0397,79,110,0
381.0447,381.1597,78,110,0
381.1647,381.2797,79,110,0
381.2847,381.39972,83,110,0
381.4047,381.5197,86,110,0
381.52472,381.6397,89,110,0
381.6447,381.7597,87,110,0
381.7647,381.8797,89,110,0
381.8847,381.9997,87,110,0
382.0047,382.1197,86,110,0
382.1247,382.23972,84,110,0
382.2447,382.3597,86,110,0
382.36472,382.4797,84,110,0
382.4847,382.5997,83,110,0
382.6047,382.7197,84,110,0
382.7247,382.8397,86,110,0
382.8447,382.95972,84,110,0
382.9647,383.0797,83,110,0
383.08472,383.3197,84,110,0
383.3247,383.4397,43,110,0
383.4447,383.5597,41,110,0
383.5647,383.7997,43,110,0
383.5647,383.7997,39,110,0
383.6847,383.9197,48,110,0
383.80472,384.0397,43,110,0
383.80472,384.0397,39,110,0
383.9247,384.1597,48,110,0
384.0447,384.2797,43,110,0
384.0447,384.2797,39,110,0
384.1647,384.39972,48,110,0
384.2847,384.5197,43,110,0
384.2847,384.5197,39,110,0
384.4047,384.5197,48,110,0
384.52472,384.7597,46,110,0
384.52472,384.7597,43,110,0
384.52472,384.7597,40,110,0
384.6447,384.8797,48,110,0
384.7647,384.9997,46,110,0
384.7647,384.9997,43,110,0
384.7647,384.9997,40,110,0
384.8847,385.1197,48,110,0
385.0047,385.23972,46,110,0
385.0047,385.23972,43,110,0
385.0047,385.23972,40,110,0
385.1247,385.3597,48,110,0
385.2447,385.4797,46,110,0
385.2447,385.4797,43,110,0
385.2447,385.4797,40,110,0
385.36472,385.4797,48,110,0
385.4847,385.7197,44,110,0
385.4847,385.7197,41,110,0
385.6047,385.8397,48,110,0
385.7247,385.95972,44,110,0
385.7247,385.95972,41,110,0
385.8447,386.0845,48,110,0
385.9647,386.2095,44,110,0
385.9647,386.2095,41,110,0
386.0897,386.3345,48,110,0
386.2147,386.4595,44,110,0
386.2147,386.4595,41,110,0
386.3397,386.4595,48,110,0
386.4647,386.72015,48,110,0
386.4647,386.72015,45,110,0
386.4647,386.72015,42,110,0
386.59515,386.8506,51,110,0
386.7256,386.98102,48,110,0
386.7256,386.98102,45,110,0
386.7256,386.98102,42,110,0
386.85602,387.11713,51,110,0
386.98645,387.25348,48,110,0
386.98645,387.25348,45,110,0
386.98645,387.25348,42,110,0
387.1228,387.40292,51,110,0
387.2592,387.55292,48,110,0
387.2592,387.55292,45,110,0
387.2592,387.55292,42,110,0
387.40918,387.55292,51,110,0
387.55917,389.59894,43,110,0
387.55917,389.59894,31,110,0
389.6046,389.7353,67,80,0
389.6046,389.7353,64,80,0
389.6046,389.7353,55,80,0
389.741,390.63474,65,80,0
389.741,390.63474,62,80,0
389.741,390.63474,55,80,0
390.791,390.93472,64,80,0
390.791,390.93472,60,80,0
390.791,390.93472,55,80,0
390.94098,391.6007,64,80,0
390.94098,391.6007,60,80,0
390.94098,391.6007,55,80,0
391.60767,391.93405,62,80,0
391.60767,391.93405,59,80,0
391.60767,391.93405,55,80,0
392.10767,392.28735,62,80,0
392.10767,392.28735,59,80,0
392.10767,392.28735,55,80,0
392.29517,393.03735,62,80,0
392.29517,393.03735,59,80,0
392.29517,393.03735,55,80,0
393.04517,393.78735,64,80,0
393.04517,393.78735,60,80,0
393.04517,393.78735,55,80,0
395.79156,396.68533,53,80,0
395.79156,396.68533,50,80,0
395.79156,396.68533,43,80,0
396.84158,396.98532,53,80,0
396.84158,396.98532,48,80,0
396.84158,396.98532,43,80,0
396.99158,397.8853,53,80,0
396.99158,397.8853,47,80,0
396.99158,397.8853,43,80,0
398.04156,398.18533,62,80,0
398.04156,398.18533,55,80,0
398.1916,398.78534,62,80,0
398.1916,398.78534,56,80,0
398.79156,399.3853,60,80,0
398.79156,399.3853,57,80,0
400.63443,400.83978,59,80,0
400.63443,400.83978,55,80,0
400.63443,400.83978,53,80,0
400.84872,401.69693,59,80,0
400.84872,401.69693,55,80,0
400.84872,401.69693,53,80,0
401.70587,402.55408,60,80,0
401.70587,402.55408,55,80,0
401.70587,402.55408,52,80,0
403.82922,403.95993,71,80,0
403.82922,403.95993,65,80,0
403.9656,404.50537,71,80,0
403.9656,404.50537,65,80,0
404.51105,405.59628,70,80,0
404.51105,405.59628,64,80,0
405.60196,406.6872,61,80,0
405.60196,406.6872,67,80,0
405.60196,406.6872,70,80,0
406.69287,408.0905,70,80,0
406.69287,408.0905,67,80,0
406.69287,408.0905,61,80,0
408.09677,408.51642,68,120,0
408.09677,408.51642,65,120,0
408.09677,408.51642,61,120,0
408.52533,410.156,60,80,0
408.52533,410.156,48,80,0
410.1617,410.5651,56,80,0
410.1617,410.5651,44,80,0
410.5708,410.70148,53,80,0
410.5708,410.70148,41,80,0
410.70715,411.24692,53,80,0
410.70715,411.24692,41,80,0
411.2526,411.51965,52,80,0
411.2526,411.51965,40,80,0
411.6617,411.7924,49,80,0
411.6617,411.7924,37,80,0
411.79807,412.33783,49,80,0
411.79807,412.33783,37,80,0
412.3435,412.61057,48,80,0
412.3435,412.61057,36,80,0
412.7526,412.8833,58,80,0
412.7526,412.8833,46,80,0
412.88898,413.42874,58,80,0
412.88898,413.42874,46,80,0
413.43442,413.97418,56,80,0
413.43442,413.97418,44,80,0
415.0708,415.99716,60,80,0
415.0708,415.99716,55,80,0
415.0708,415.99716,48,80,0
416.17078,416.3305,60,80,0
416.17078,416.3305,53,80,0
416.17078,416.3305,48,80,0
416.33746,417.6306,51,80,0
416.33746,417.6306,60,80,0
417.89102,418.05075,60,80,0
417.89102,418.05075,55,80,0
417.89102,418.05075,51,80,0
416.33746,418.05768,48,80,0
418.05768,418.35144,60,80,0
418.05768,418.35144,56,80,0
418.05768,418.35144,53,80,0
418.3577,418.63745,60,81,0
418.3577,418.63745,56,81,0
418.3577,418.63745,53,81,0
418.9291,419.2089,63,83,0
418.9291,419.2089,57,83,0
418.9291,419.2089,54,83,0
419.21484,419.4946,62,85,0
419.21484,419.4946,59,85,0
419.21484,419.4946,55,85,0
419.50055,419.76758,62,86,0
419.50055,419.76758,59,86,0
419.50055,419.76758,55,86,0
420.046,420.31305,65,89,0
420.046,420.31305,59,89,0
420.046,420.31305,55,89,0
420.31873,420.57416,63,90,0
420.31873,420.57416,60,90,0
420.31873,420.57416,56,90,0
420.5796,420.83502,63,91,0
420.5796,420.83502,60,91,0
420.5796,420.83502,56,91,0
421.10135,421.35678,65,94,0
421.10135,421.35678,60,94,0
421.10135,421.35678,57,94,0
421.3622,421.61765,65,95,0
421.3622,421.61765,62,95,0
421.3622,421.61765,58,95,0
421.62308,421.8785,65,97,0
421.62308,421.8785,62,97,0
421.62308,421.8785,58,97,0
422.1448,422.40024,67,99,0
422.1448,422.40024,62,99,0
422.1448,422.40024,59,99,0
422.40567,422.65048,67,101,0
422.40567,422.65048,63,101,0
422.40567,422.65048,60,101,0
422.65567,422.90048,67,102,0
422.65567,422.90048,63,102,0
422.65567,422.90048,60,102,0
423.15567,423.40048,67,105,0
423.15567,423.40048,63,105,0
423.15567,423.40048,60,105,0
423.40567,423.65048,71,106,0
423.40567,423.65048,68,106,0
423.40567,423.65048,65,106,0
423.40567,423.65048,62,106,0
423.65567,423.90048,71,107,0
423.65567,423.90048,68,107,0
423.65567,423.90048,65,107,0
423.65567,423.90048,62,107,0
424.15567,424.40048,71,110,0
424.15567,424.40048,68,110,0
424.15567,424.40048,65,110,0
424.15567,424.40048,62,110,0
424.40567,424.6407,72,111,0
424.40567,424.6407,67,111,0
424.40567,424.6407,63,111,0
424.6457,424.88068,72,113,0
424.6457,424.88068,67,113,0
424.6457,424.88068,63,113,0
425.12567,425.3607,72,115,0
425.12567,425.3607,67,115,0
425.12567,425.3607,64,115,0
425.3657,425.60068,72,117,0
425.3657,425.60068,68,117,0
425.3657,425.60068,65,117,0
425.60568,425.85046,72,118,0
425.60568,425.85046,68,118,0
425.60568,425.85046,65,118,0
426.11655,426.3836,74,120,0
426.11655,426.3836,68,120,0
426.11655,426.3836,65,120,0
426.38928,426.6447,75,120,0
426.38928,426.6447,69,120,0
426.38928,426.6447,66,120,0
426.65015,426.76993,81,120,0
426.78036,426.90015,84,120,0
426.90015,427.01514,78,120,0
427.02014,427.13516,81,120,0
427.14014,427.25516,75,120,0
427.26016,427.37515,78,120,0
427.38016,427.49515,72,120,0
427.50015,427.61514,75,120,0
427.62015,427.73514,69,120,0
427.74014,427.85516,72,120,0
427.86014,427.97516,66,120,0
427.98016,428.09515,69,120,0
428.10016,428.21515,63,120,0
428.22015,428.33514,66,120,0
428.34015,428.45514,62,120,0
428.46014,428.57513,65,120,0
428.58014,428.69516,59,120,0
428.70013,428.81516,62,120,0
428.82016,428.93515,56,120,0
428.94016,429.05515,59,120,0
429.06015,429.17514,53,120,0
429.18015,429.29514,56,120,0
429.30014,429.41516,50,120,0
429.42014,429.53516,53,120,0
429.54016,429.65515,47,120,0
429.66016,429.77515,50,120,0
429.78015,429.89514,44,120,0
429.90015,430.01514,47,120,0
430.02014,430.13516,41,120,0
430.14014,430.25516,44,120,0
430.26016,430.37515,43,80,0
430.38016,430.49515,47,82,0
430.50015,430.61514,48,85,0
430.62015,430.73514,50,88,0
430.74014,430.85516,51,90,0
430.86014,430.97516,53,93,0
430.98016,431.09515,55,96,0
431.10016,431.21515,56,99,0
431.22015,431.33514,59,101,0
431.34015,431.45514,60,104,0
431.46014,431.57513,62,107,0
431.58014,431.69516,63,109,0
431.70013,431.81516,65,112,0
431.82016,431.93515,66,115,0
431.94016,432.17514,67,118,0
432.18015,432.65515,48,120,0
432.18015,432.65515,36,120,0
432.66016,433.13516,51,120,0
432.66016,433.13516,39,120,0
433.14014,434.09515,47,120,0
433.14014,434.09515,35,120,0
434.10016,434.57513,46,120,0
434.10016,434.57513,34,120,0
434.58014,435.05515,48,120,0
434.58014,435.05515,36,120,0
435.06015,436.01514,45,120,0
435.06015,436.01514,33,120,0
436.02014,436.49515,44,120,0
436.02014,436.49515,32,120,0
436.50015,436.97516,48,120,0
436.50015,436.97516,36,120,0
436.98016,437.45514,43,120,0
436.98016,437.45514,31,120,0
437.46014,437.81516,48,120,0
437.46014,437.81516,36,120,0
437.82016,437.93515,51,120,0
437.82016,437.93515,39,120,0
437.94016,438.41516,55,120,0
437.94016,438.41516,43,120,0
438.42014,438.89514,43,120,0
438.42014,438.89514,31,120,0
439.02014,439.13516,62,120,0
439.14014,439.25516,60,120,0
439.26016,439.37515,59,120,0
439.38016,439.49515,60,120,0
439.50015,439.61514,62,120,0
439.62015,439.73514,63,120,0
439.74014,439.85516,60,120,0
439.98016,440.09515,45,120,0
440.10016,440.21515,43,120,0
440.22015,440.33514,42,120,0
440.34015,440.45514,43,120,0
440.46014,440.57513,45,120,0
440.58014,440.69516,47,120,0
440.70013,440.81516,43,120,0
440.94016,441.05515,65,120,0
441.06015,441.17514,64,120,0
441.18015,441.29514,62,120,0
441.30014,441.41516,64,120,0
441.42014,441.53516,65,120,0
441.54016,441.65515,67,120,0
441.66016,441.77515,64,120,0
441.90015,442.01514,43,120,0
442.02014,442.13516,41,120,0
442.14014,442.25516,40,120,0
442.26016,442.37515,41,120,0
442.38016,442.49515,43,120,0
442.50015,442.61514,45,120,0
442.62015,442.73514,41,120,0
442.86014,442.97516,55,120,0
442.98016,443.09515,53,120,0
443.10016,443.21515,52,120,0
443.22015,443.33514,53,120,0
443.34015,443.45514,55,120,0
443.46014,443.57513,56,120,0
443.58014,443.69516,54,120,0
443.70013,443.81516,55,120,0
443.82016,443.93515,51,120,0
443.94016,444.05515,48,120,0
444.06015,444.17514,43,120,0
444.18015,444.29514,39,120,0
444.30014,444.41516,43,120,0
444.42014,444.53516,39,120,0
444.54016,444.65515,36,120,0
444.66016,444.77515,35,120,0
444.78015,444.89514,43,120,0
444.90015,445.01514,38,120,0
445.02014,445.13516,43,120,0
445.14014,445.25516,39,120,0
445.26016,445.37515,43,120,0
445.38016,445.49515,41,120,0
445.50015,445.61514,43,120,0
445.62015,445.73514,39,120,0
445.74014,445.85516,43,120,0
445.86014,445.97516,38,120,0
445.98016,446.09515,43,120,0
446.10016,446.21515,39,120,0
446.22015,446.33514,43,120,0
446.34015,446.45514,36,120,0
446.46014,446.57513,43,120,0
446.58014,446.69516,35,120,0
446.70013,446.81516,43,120,0
446.82016,446.93515,38,120,0
446.94016,447.05515,43,120,0
447.06015,447.17514,39,120,0
447.18015,447.29514,43,120,0
447.30014,447.41516,41,120,0
447.42014,447.53516,43,120,0
447.54016,447.65515,39,120,0
447.66016,447.77515,43,120,0
447.78015,447.89514,38,120,0
447.90015,448.01514,43,120,0
448.02014,448.13516,39,120,0
448.14014,448.25516,43,120,0
448.26016,448.37515,36,120,0
448.38016,448.49515,43,120,0
448.50015,448.61514,35,120,0
448.62015,448.73514,43,120,0
448.74014,448.85516,38,120,0
448.86014,448.97516,43,120,0
448.98016,449.09515,44,120,0
449.10016,449.21515,43,120,0
449.22015,449.33514,45,120,0
449.34015,449.45514,47,120,0
449.46014,449.57513,48,120,0
449.58014,449.69516,50,120,0
449.70013,449.81516,51,120,0
449.82016,449.93515,50,120,0
449.94016,450.05515,51,120,0
450.06015,450.17514,52,120,0
450.18015,450.29514,53,120,0
450.30014,450.41516,52,120,0
450.42014,450.53516,53,120,0
450.54016,450.65515,54,120,0
450.66016,450.77515,55,120,0
450.78015,450.89514,54,120,0
450.90015,451.01514,55,120,0
451.02014,451.13516,57,120,0
451.14014,451.25516,58,120,0
451.26016,451.37515,59,120,0
451.38016,451.49515,60,120,0
451.50015,451.61514,62,120,0
451.62015,451.73514,63,120,0
451.74014,451.85516,62,120,0
451.86014,451.97516,63,120,0
451.98016,452.09515,64,120,0
452.10016,452.21515,65,120,0
452.22015,452.33514,64,120,0
452.34015,452.45514,65,120,0
452.46014,452.57513,66,120,0
452.58014,452.69516,67,120,0
452.70013,452.81516,66,120,0
452.82016,452.93515,67,120,0
452.94016,453.05515,69,120,0
453.06015,453.17514,70,120,0
453.18015,453.29514,71,120,0
453.30014,453.77515,72,120,0
453.78015,454.25516,48,120,0
453.78015,454.25516,36,120,0
454.74014,455.21515,48,120,0
454.74014,455.21515,36,120,0
455.70013,456.17514,48,120,0
455.70013,456.17514,36,120,0
456.66016,457.13516,48,120,0
456.66016,457.13516,36,120,0
457.64014,458.13495,48,110,0
457.64014,458.13495,36,110,0
458.6619,459.1782,48,100,0
458.6619,459.1782,36,100,0
459.7291,460.26886,48,90,0
459.7291,460.26886,36,90,0
460.87454,461.4683,48,80,0
460.87454,461.4683,36,80,0
461.74725,461.87793,48,80,0
461.88364,462.0143,49,80,0
462.02,462.145,48,80,0
462.15042,462.27542,46,80,0
462.28085,462.40063,44,80,0
462.40585,462.52563,43,80,0
462.53085,462.64584,41,80,0
462.65085,462.76587,48,80,0
462.77084,462.88586,49,80,0
462.89087,463.00586,48,80,0
463.01086,463.12585,46,80,0
463.13086,463.24585,44,80,0
463.25085,463.36584,43,80,0
463.37085,463.48587,41,80,0
463.49084,463.60587,40,80,0
463.61087,463.72586,48,80,0
463.73087,463.84586,49,80,0
463.85086,463.96585,48,80,0
463.97086,464.08585,46,80,0
464.09085,464.20587,43,80,0
464.21085,464.32587,40,80,0
464.33087,464.44586,48,80,0
464.45087,464.56586,41,80,0
464.57086,464.68585,48,80,0
464.69086,464.80585,49,80,0
464.81085,464.92587,48,80,0
464.93085,465.04587,46,80,0
465.05087,465.16586,44,80,0
465.17087,465.28586,43,80,0
465.29086,465.40585,41,80,0
465.41086,465.53064,36,80,0
465.53586,465.65564,38,80,0
465.66086,465.78064,39,80,0
465.78586,465.90564,41,80,0
465.91086,466.03586,43,80,0
466.0413,466.1663,36,80,0
466.17172,466.30862,38,80,0
466.31458,466.45148,40,80,0
466.45743,466.58243,41,80,0
466.5879,466.7129,48,80,0
466.71832,466.8333,49,80,0
466.83832,466.9533,48,80,0
466.9583,467.0733,46,80,0
467.0783,467.1933,44,80,0
467.1983,467.31332,43,80,0
467.3183,467.43332,41,80,0
467.43832,467.5533,40,80,0
467.55832,467.6733,48,80,0
467.6783,467.7933,49,80,0
467.7983,467.9133,48,80,0
467.9183,468.03333,46,80,0
468.0383,468.15332,43,80,0
468.15833,468.27332,40,80,0
468.27832,468.3933,48,80,0
468.39832,468.5133,41,80,0
468.5183,468.6333,48,80,0
468.6383,468.7533,49,80,0
468.7583,468.87332,48,80,0
468.8783,468.99332,46,80,0
468.99832,469.1133,44,80,0
469.11832,469.2333,43,80,0
469.2383,469.3533,41,80,0
469.3583,469.4781,36,80,0
469.4833,469.6031,38,80,0
469.6083,469.7281,39,80,0
469.7333,469.8531,41,80,0
469.8583,469.9833,43,80,0
469.98874,470.11374,36,80,0
470.11917,470.25607,38,80,0
470.26202,470.41336,40,80,0
470.41992,470.54492,41,80,0
470.55035,470.67535,48,80,0
470.68082,470.7958,49,80,0
470.8008,470.9158,48,80,0
470.9208,471.0358,46,80,0
471.0408,471.1558,44,80,0
471.1608,471.2758,43,80,0
471.2808,471.3958,41,80,0
471.4008,471.5158,40,80,0
471.5208,471.6358,48,80,0
471.6408,471.7558,49,80,0
471.7608,471.8758,48,80,0
471.8808,471.9958,46,80,0
472.0008,472.1158,43,80,0
472.1208,472.2358,40,80,0
472.2408,472.3558,48,80,0
472.3608,472.4758,41,80,0
472.4808,472.5958,44,80,0
472.6008,472.7158,41,80,0
472.7208,472.83582,36,80,0
472.8408,472.9558,41,80,0
472.96082,473.0758,44,80,0
473.0808,473.2115,41,80,0
473.21716,473.34784,36,80,0
473.35352,473.48422,41,80,0
473.4899,473.62057,44,80,0
473.62625,473.75693,41,80,0
473.7626,473.8933,36,80,0
473.899,474.02966,41,80,0
474.03534,474.16602,44,80,0
474.17172,474.3024,41,80,0
474.30807,474.43875,36,80,0
474.44443,474.5751,41,80,0
474.5808,474.7115,44,80,0
474.71716,474.84784,41,80,0
474.85352,474.98422,36,80,0
474.96716,475.09784,41,80,0
475.10352,475.23422,44,80,0
475.2399,475.37057,41,80,0
475.37625,475.50693,36,80,0
475.53534,475.952,43,80,0
475.82104,475.952,43,79,0
475.6782,476.09488,48,80,0
476.10678,476.24426,43,78,0
475.96393,476.3943,36,78,0
476.40677,476.54428,43,76,0
476.25677,476.69427,48,77,0
476.7068,476.85956,43,75,0
476.55676,477.0262,36,76,0
477.0401,477.19287,43,74,0
476.87344,477.35956,52,74,0
477.37344,477.56985,43,72,0
477.2068,477.78415,36,73,0
477.802,478.0312,43,71,0
477.58774,478.39575,52,72,0
478.052,478.41138,36,70,0
478.427,484.41138,36,70,0
478.427,484.41138,24,70,0
