start_time,end_time,note_value,velocity,instrument_program_number
0.0,0.9791667,72,80,0
0.0,1.4791666,64,80,0
1.0,1.4791666,67,80,0
1.5,2.96875,64,80,0
1.5,4.631944,67,80,0
3.0,4.631944,65,80,0
4.6666665,5.6354165,74,80,0
4.6666665,6.1354165,62,80,0
5.6666665,6.1354165,67,80,0
6.1666665,7.645833,62,80,0
6.1666665,9.145833,67,80,0
7.6666665,9.145833,64,80,0
9.166666,10.645833,65,80,0
9.166666,10.645833,67,80,0
10.666666,12.135416,67,80,0
12.166666,13.645833,76,80,0
12.166666,13.645833,64,80,0
13.666666,15.145833,72,80,0
13.666666,15.145833,67,80,0
15.166666,16.645834,72,80,0
15.166666,16.645834,64,80,0
16.666666,18.145834,71,80,0
16.666666,18.145834,62,80,0
18.166666,19.645834,71,80,0
18.166666,19.645834,67,80,0
18.166666,19.645834,62,80,0
19.666666,21.145834,72,80,0
19.666666,22.645834,67,80,0
21.166666,22.645834,76,90,0
22.666666,24.145834,79,100,0
22.666666,24.145834,67,100,0
24.166666,25.645834,79,100,0
24.166666,27.145834,69,100,0
25.666666,27.145834,77,93,0
27.166666,28.145834,74,85,0
27.166666,28.145834,69,85,0
28.166666,28.645834,72,80,0
28.166666,28.645834,69,80,0
28.166666,28.645834,62,80,0
28.666666,30.145834,71,80,0
28.666666,30.145834,67,80,0
28.666666,30.145834,62,80,0
30.166666,31.645834,72,80,0
30.166666,31.645834,67,80,0
30.166666,31.645834,60,80,0
31.666666,32.645832,74,80,0
31.666666,32.645832,67,80,0
31.666666,32.645832,62,80,0
32.666668,33.145832,67,80,0
32.666668,34.145832,62,80,0
34.166668,34.645832,62,90,0
34.666668,35.645832,60,90,0
34.666668,35.645832,64,90,0
33.166668,36.145832,67,80,0
35.666668,36.145832,65,80,0
35.666668,36.145832,59,80,0
36.166668,37.145832,72,80,0
36.166668,37.645832,64,80,0
37.166668,37.645832,67,80,0
37.666668,39.135418,64,80,0
37.666668,40.79861,67,80,0
39.166668,40.79861,65,80,0
40.833332,41.802082,74,80,0
40.833332,42.302082,62,80,0
41.833332,42.302082,67,80,0
42.333332,43.8125,62,80,0
42.333332,45.3125,67,80,0
43.833332,45.3125,64,80,0
45.333332,46.8125,65,80,0
45.333332,46.8125,67,80,0
46.833332,48.302082,67,80,0
48.333332,49.8125,76,80,0
48.333332,49.8125,64,80,0
49.833332,51.3125,72,80,0
49.833332,51.3125,67,80,0
51.333332,52.8125,72,80,0
51.333332,52.8125,64,80,0
52.833332,54.3125,71,80,0
52.833332,54.3125,62,80,0
54.333332,55.8125,71,80,0
54.333332,55.8125,67,80,0
54.333332,55.8125,62,80,0
55.833332,57.3125,72,80,0
55.833332,58.8125,67,80,0
57.333332,58.8125,76,90,0
58.833332,60.3125,79,100,0
58.833332,60.3125,67,100,0
60.333332,61.8125,79,100,0
60.333332,63.3125,69,100,0
61.833332,63.3125,77,93,0
63.333332,64.3125,74,85,0
63.333332,64.3125,69,85,0
64.333336,64.8125,72,80,0
64.333336,64.8125,69,80,0
64.333336,64.8125,62,80,0
64.833336,66.3125,71,80,0
64.833336,66.3125,67,80,0
64.833336,66.3125,62,80,0
66.333336,67.8125,72,80,0
66.333336,67.8125,67,80,0
66.333336,67.8125,60,80,0
67.833336,68.8125,74,80,0
67.833336,68.8125,67,80,0
67.833336,68.8125,62,80,0
68.833336,69.3125,67,80,0
68.833336,70.3125,62,80,0
70.333336,70.8125,64,90,0
70.333336,70.8125,60,90,0
70.833336,71.8125,65,90,0
70.833336,71.8125,59,90,0
69.333336,72.3125,67,80,0
71.833336,72.3125,60,80,0
71.833336,72.3125,64,80,0
72.333336,73.8125,64,80,0
73.833336,76.8125,72,80,0
73.833336,76.8125,64,80,0
76.833336,77.8125,72,80,0
76.833336,78.3125,64,80,0
77.833336,78.3125,71,80,0
78.333336,81.3125,71,80,0
78.333336,81.3125,64,80,0
81.333336,82.8125,71,80,0
82.333336,82.8125,76,80,0
82.833336,84.3125,76,80,0
82.833336,84.3125,71,80,0
84.333336,85.8125,76,80,0
84.333336,85.8125,72,80,0
85.833336,86.8125,74,80,0
85.833336,86.8125,71,80,0
86.833336,87.3125,72,80,0
86.833336,87.3125,69,80,0
87.333336,88.8125,72,80,0
87.333336,88.8125,69,80,0
88.833336,90.3125,71,80,0
88.833336,90.3125,68,80,0
90.333336,91.8125,72,80,0
90.333336,91.8125,69,80,0
90.333336,91.8125,64,80,0
91.833336,94.8125,74,80,0
91.833336,94.8125,71,80,0
91.833336,94.8125,67,80,0
94.833336,96.3125,74,87,0
94.833336,96.3125,71,87,0
94.833336,96.3125,67,87,0
96.333336,99.3125,76,90,0
96.333336,99.3125,72,90,0
96.333336,99.3125,67,90,0
99.333336,100.8125,77,97,0
99.333336,100.8125,72,97,0
99.333336,100.8125,69,97,0
100.833336,102.3125,74,101,0
100.833336,102.3125,71,101,0
100.833336,102.3125,67,101,0
102.333336,103.8125,74,105,0
102.333336,103.8125,71,105,0
102.333336,103.8125,67,105,0
103.833336,104.8125,74,108,0
103.833336,104.8125,71,108,0
103.833336,104.8125,67,108,0
104.833336,105.3125,79,110,0
104.833336,105.3125,74,110,0
104.833336,105.3125,71,110,0
105.333336,106.3125,79,110,0
105.333336,106.3125,74,110,0
105.333336,106.3125,71,110,0
106.333336,106.8125,76,90,0
106.333336,106.8125,72,90,0
106.333336,106.8125,67,90,0
106.833336,108.3125,76,80,0
106.833336,108.3125,72,80,0
106.833336,108.3125,67,80,0
108.333336,109.8125,64,80,0
109.833336,112.8125,72,80,0
109.833336,112.8125,64,80,0
112.833336,113.8125,72,80,0
112.833336,114.3125,64,80,0
113.833336,114.3125,71,80,0
114.333336,117.3125,71,80,0
114.333336,117.3125,64,80,0
117.333336,118.8125,71,80,0
118.333336,118.8125,76,80,0
118.833336,120.3125,76,80,0
118.833336,120.3125,71,80,0
120.333336,121.8125,76,80,0
120.333336,121.8125,72,80,0
121.833336,122.8125,74,80,0
121.833336,122.8125,71,80,0
122.833336,123.3125,72,80,0
122.833336,123.3125,69,80,0
123.333336,124.8125,72,80,0
123.333336,124.8125,69,80,0
124.833336,126.3125,71,80,0
124.833336,126.3125,68,80,0
126.333336,127.8125,72,80,0
126.333336,127.8125,69,80,0
126.333336,127.8125,64,80,0
127.833336,130.8125,74,80,0
127.833336,130.8125,71,80,0
127.833336,130.8125,67,80,0
130.83333,132.3125,74,87,0
130.83333,132.3125,71,87,0
130.83333,132.3125,67,87,0
132.33333,135.3125,76,90,0
132.33333,135.3125,72,90,0
132.33333,135.3125,67,90,0
135.33333,136.8125,77,97,0
135.33333,136.8125,72,97,0
135.33333,136.8125,69,97,0
136.83333,138.3125,74,101,0
136.83333,138.3125,71,101,0
136.83333,138.3125,67,101,0
138.33333,139.8125,74,105,0
138.33333,139.8125,71,105,0
138.33333,139.8125,67,105,0
139.83333,140.8125,74,108,0
139.83333,140.8125,71,108,0
139.83333,140.8125,67,108,0
140.83333,141.3125,79,110,0
140.83333,141.3125,74,110,0
140.83333,141.3125,71,110,0
141.33333,142.3125,79,110,0
141.33333,142.3125,74,110,0
141.33333,142.3125,71,110,0
142.33333,142.8125,76,90,0
142.33333,142.8125,72,90,0
142.33333,142.8125,67,90,0
142.83333,144.3125,76,80,0
142.83333,144.3125,72,80,0
142.83333,144.3125,67,80,0
144.33333,145.3125,72,80,0
145.33333,145.8125,64,80,0
145.83333,146.8125,69,80,0
146.83333,147.3125,64,80,0
147.33333,148.3125,67,80,0
148.33333,148.8125,65,80,0
148.83333,149.8125,74,80,0
149.83333,150.3125,62,80,0
150.33333,151.3125,67,80,0
151.33333,151.8125,62,80,0
151.83333,152.8125,65,80,0
152.83333,153.3125,64,80,0
153.33333,154.3125,67,80,0
154.33333,154.8125,65,80,0
154.83333,155.8125,69,80,0
155.83333,156.3125,67,80,0
156.33333,157.3125,76,80,0
157.33333,157.8125,64,80,0
157.83333,158.8125,72,80,0
158.83333,159.3125,64,80,0
159.33333,160.3125,72,80,0
159.33333,160.3125,63,80,0
160.33333,160.8125,71,80,0
160.33333,160.8125,62,80,0
160.83333,161.8125,60,80,0
160.83333,161.8125,69,80,0
161.83333,162.3125,67,80,0
161.83333,162.3125,59,80,0
162.33333,163.3125,69,80,0
162.33333,163.3125,60,80,0
163.33333,163.8125,71,80,0
163.33333,163.8125,62,80,0
163.83333,164.8125,72,80,0
164.83333,165.3125,64,85,0
165.33333,166.3125,76,87,0
166.33333,166.8125,67,93,0
166.83333,167.8125,79,95,0
166.83333,167.8125,70,95,0
167.83333,168.3125,70,100,0
167.83333,168.3125,67,100,0
168.33333,169.3125,79,100,0
168.33333,169.3125,69,100,0
169.33333,169.8125,69,95,0
169.33333,169.8125,67,95,0
169.83333,170.8125,77,93,0
169.83333,170.8125,69,93,0
170.83333,171.3125,69,87,0
171.33333,172.3125,74,85,0
171.33333,172.3125,69,85,0
172.33333,172.8125,72,80,0
172.33333,172.8125,66,80,0
172.83333,173.8125,72,80,0
172.83333,174.3125,65,80,0
172.83333,174.3125,62,80,0
173.83333,174.3125,71,80,0
174.33333,175.3125,72,80,0
175.33333,175.8125,73,80,0
174.33333,176.3125,65,80,0
174.33333,176.3125,62,80,0
175.83333,176.3125,73,80,0
176.33333,176.8125,65,80,0
176.33333,176.8125,62,80,0
176.33333,176.8125,74,80,0
176.33333,176.8125,67,80,0
176.83333,177.3125,65,80,0
176.83333,177.3125,62,80,0
176.83333,177.3125,67,80,0
177.33333,177.8125,65,80,0
177.33333,177.8125,62,80,0
177.83333,178.3125,64,80,0
178.33333,178.8125,62,80,0
178.83333,179.3125,60,80,0
179.33333,179.8125,62,80,0
177.33333,180.3125,67,80,0
179.83333,180.3125,59,80,0
180.33333,181.3125,72,80,0
181.33333,181.8125,64,80,0
181.83333,182.8125,69,80,0
182.83333,183.3125,64,80,0
183.33333,184.3125,67,80,0
184.33333,184.8125,65,80,0
184.83333,185.8125,74,80,0
185.83333,186.3125,62,80,0
186.33333,187.3125,67,80,0
187.33333,187.8125,62,80,0
187.83333,188.8125,65,80,0
188.83333,189.3125,64,80,0
189.33333,190.3125,67,80,0
190.33333,190.8125,65,80,0
190.83333,191.8125,69,80,0
191.83333,192.3125,67,80,0
192.33333,193.3125,76,80,0
193.33333,193.8125,64,80,0
193.83333,194.8125,72,80,0
194.83333,195.3125,64,80,0
195.33333,196.3125,72,80,0
195.33333,196.3125,63,80,0
196.33333,196.8125,71,80,0
196.33333,196.8125,62,80,0
196.83333,197.8125,60,80,0
196.83333,197.8125,69,80,0
197.83333,198.3125,67,80,0
197.83333,198.3125,59,80,0
198.33333,199.3125,69,80,0
198.33333,199.3125,60,80,0
199.33333,199.8125,71,80,0
199.33333,199.8125,62,80,0
199.83333,200.8125,72,80,0
200.83333,201.3125,64,85,0
201.33333,202.3125,76,87,0
202.33333,202.8125,67,93,0
202.83333,203.8125,79,95,0
202.83333,203.8125,70,95,0
203.83333,204.3125,70,100,0
203.83333,204.3125,67,100,0
204.33333,205.3125,79,100,0
204.33333,205.3125,69,100,0
205.33333,205.8125,69,95,0
205.33333,205.8125,67,95,0
205.83333,206.8125,77,93,0
205.83333,206.8125,69,93,0
206.83333,207.3125,69,87,0
207.33333,208.3125,74,85,0
207.33333,208.3125,69,85,0
208.33333,208.8125,72,80,0
208.33333,208.8125,66,80,0
208.83333,209.8125,72,80,0
208.83333,210.3125,65,80,0
208.83333,210.3125,62,80,0
209.83333,210.3125,71,80,0
210.33333,211.3125,72,80,0
211.33333,211.8125,73,80,0
210.33333,212.3125,65,80,0
210.33333,212.3125,62,80,0
211.83333,212.3125,73,80,0
212.33333,212.8125,65,80,0
212.33333,212.8125,62,80,0
212.33333,212.8125,74,80,0
212.33333,212.8125,67,80,0
212.83333,213.3125,65,80,0
212.83333,213.3125,62,80,0
212.83333,213.3125,67,80,0
213.33333,213.8125,65,80,0
213.33333,213.8125,62,80,0
213.83333,214.3125,64,80,0
213.33333,214.8125,67,80,0
214.33333,214.8125,65,80,0
214.83333,215.3125,67,80,0
214.83333,215.3125,64,80,0
215.33333,215.8125,68,80,0
215.33333,215.8125,64,80,0
215.33333,215.8125,62,80,0
215.83333,216.3125,69,80,0
215.83333,216.3125,64,80,0
215.83333,216.3125,60,80,0
216.33333,216.8125,71,80,0
216.33333,216.8125,64,80,0
216.33333,216.8125,59,80,0
216.83333,217.3125,64,80,0
216.83333,217.3125,60,80,0
217.33333,217.8125,64,80,0
217.33333,217.8125,62,80,0
217.83333,218.8125,72,80,0
218.83333,219.3125,64,80,0
218.83333,219.3125,60,80,0
219.33333,220.3125,65,80,0
219.33333,220.3125,62,80,0
219.33333,220.3125,59,80,0
220.33333,220.8125,64,80,0
220.83333,221.8125,72,80,0
221.83333,222.3125,64,80,0
221.83333,222.3125,60,80,0
222.33333,223.3125,71,80,0
223.33333,223.8125,59,80,0
223.33333,224.3125,64,80,0
223.83333,224.3125,60,80,0
224.33333,224.8125,72,80,0
224.83333,225.3125,71,80,0
225.33333,225.8125,72,80,0
225.83333,226.3125,71,80,0
225.83333,226.3125,64,80,0
226.33333,226.8125,76,80,0
226.33333,227.3125,71,80,0
226.83333,227.8125,77,80,0
227.33333,227.8125,71,80,0
227.83333,228.3125,76,80,0
227.83333,228.3125,72,80,0
228.33333,229.3125,76,80,0
228.33333,229.3125,72,80,0
229.33333,229.8125,74,80,0
229.33333,229.8125,68,80,0
229.83333,230.3125,74,80,0
229.83333,230.3125,68,80,0
230.33333,230.8125,72,80,0
230.33333,230.8125,69,80,0
230.83333,231.8125,69,80,0
230.83333,231.8125,72,80,0
231.83333,232.3125,71,80,0
231.83333,232.3125,68,80,0
232.33333,233.4213,71,80,0
232.33333,233.4213,68,80,0
233.44444,233.97685,72,80,0
233.44444,233.97685,64,80,0
234.0,235.08797,72,80,0
234.0,235.08797,64,80,0
235.11111,235.64352,74,80,0
235.11111,235.64352,71,80,0
235.66667,236.19907,74,80,0
235.66667,236.19907,71,80,0
236.22223,237.20139,71,80,0
237.22223,237.70139,65,82,0
237.72223,238.70139,64,83,0
236.22223,239.20139,74,80,0
238.72223,239.20139,65,85,0
239.22223,240.70139,75,87,0
239.22223,240.70139,71,87,0
240.22223,240.70139,65,89,0
240.72223,242.20139,76,90,0
240.72223,242.20139,70,90,0
241.72223,242.20139,64,93,0
242.22223,243.20139,76,94,0
242.22223,243.20139,70,94,0
242.22223,243.20139,67,94,0
243.22223,243.70139,79,96,0
243.22223,243.70139,76,96,0
243.22223,243.70139,70,96,0
243.72223,244.70139,79,97,0
243.72223,245.20139,69,97,0
244.72223,245.20139,77,100,0
245.22223,246.20139,76,101,0
245.22223,246.70139,71,101,0
245.22223,246.70139,65,101,0
246.22223,246.70139,74,103,0
247.72223,248.20139,74,107,0
246.72223,248.70139,73,105,0
248.22223,248.70139,74,108,0
246.72223,249.20139,71,105,0
248.22223,249.20139,71,108,0
248.72223,249.20139,81,109,0
246.72223,249.70139,65,105,0
249.22223,249.70139,79,110,0
249.22223,249.70139,74,110,0
249.72223,250.20139,79,110,0
249.72223,250.20139,74,110,0
250.22223,250.70139,77,103,0
250.22223,250.70139,71,103,0
250.72223,251.20139,76,95,0
251.22223,251.70139,77,87,0
250.72223,252.20139,72,95,0
251.72223,252.20139,76,80,0
252.22223,252.70139,64,80,0
252.72223,253.23561,65,80,0
253.25793,253.79034,64,80,0
253.81349,254.38849,64,80,0
254.4135,255.48244,72,80,0
255.50476,255.98393,64,80,0
255.50476,255.98393,60,80,0
256.00476,256.98392,65,80,0
256.00476,256.98392,62,80,0
256.00476,256.98392,59,80,0
257.00476,257.48392,64,80,0
257.50476,258.48392,72,80,0
258.50476,258.98392,64,80,0
258.50476,258.98392,60,80,0
259.00476,259.98392,71,80,0
260.00476,260.48392,59,80,0
260.00476,260.98392,64,80,0
260.50476,260.98392,60,80,0
261.00476,261.48392,72,80,0
261.50476,261.98392,71,80,0
262.00476,262.48392,72,80,0
262.50476,262.98392,71,80,0
262.50476,262.98392,64,80,0
263.00476,263.48392,76,80,0
263.00476,263.98392,71,80,0
263.50476,264.48392,77,80,0
264.00476,264.48392,71,80,0
264.50476,264.98392,76,80,0
264.50476,264.98392,72,80,0
265.00476,265.98392,76,80,0
265.00476,265.98392,72,80,0
266.00476,266.48392,74,80,0
266.00476,266.48392,68,80,0
266.50476,266.98392,74,80,0
266.50476,266.98392,68,80,0
267.00476,267.48392,72,80,0
267.00476,267.48392,69,80,0
267.50476,268.48392,69,80,0
267.50476,268.48392,72,80,0
268.50476,268.98392,71,80,0
268.50476,268.98392,68,80,0
269.00476,270.05386,71,80,0
269.00476,270.05386,68,80,0
270.0762,270.6086,72,80,0
270.0762,270.6086,64,80,0
270.63174,271.7197,72,80,0
270.63174,271.7197,64,80,0
271.74286,272.31787,74,80,0
271.74286,272.31787,71,80,0
272.34286,272.91785,74,80,0
272.34286,272.91785,71,80,0
272.94287,274.0118,71,80,0
274.03412,274.5133,65,82,0
274.53412,275.5133,64,83,0
272.94287,276.0133,74,80,0
275.53412,276.0133,65,85,0
276.03412,277.5133,75,87,0
276.03412,277.5133,71,87,0
277.03412,277.5133,65,89,0
277.53412,279.0133,76,90,0
277.53412,279.0133,70,90,0
278.53412,279.0133,64,93,0
279.03412,280.0133,76,94,0
279.03412,280.0133,70,94,0
279.03412,280.0133,67,94,0
280.03412,280.5133,79,96,0
280.03412,280.5133,76,96,0
280.03412,280.5133,70,96,0
280.53412,281.5133,79,97,0
280.53412,282.0133,69,97,0
281.53412,282.0133,77,100,0
282.03412,283.0133,76,101,0
282.03412,283.5133,71,101,0
282.03412,283.5133,65,101,0
283.03412,283.5133,74,103,0
284.53412,285.0133,74,107,0
283.53412,285.5133,73,105,0
285.03412,285.5133,74,108,0
285.53412,286.0133,81,109,0
283.53412,286.5133,71,105,0
285.03412,286.5133,71,108,0
283.53412,286.5133,65,105,0
286.03412,286.5133,79,110,0
286.03412,286.5133,74,110,0
286.53412,287.0133,79,110,0
286.53412,287.0133,74,110,0
287.03412,287.5133,77,104,0
287.03412,287.5133,71,104,0
287.53412,288.0133,76,98,0
288.03412,288.5133,77,92,0
287.53412,289.0133,72,98,0
288.53412,289.0133,76,86,0
289.03412,289.5133,76,80,0
289.03412,289.5133,72,80,0
290.75034,291.13885,76,80,0
290.75034,291.13885,67,80,0
291.15576,291.34155,72,80,0
291.15576,291.34155,64,80,0
291.35846,291.74695,71,80,0
291.35846,291.74695,62,80,0
291.76385,291.94968,72,80,0
291.76385,291.94968,64,80,0
291.96655,292.35507,74,80,0
291.96655,292.35507,65,80,0
292.37195,292.55777,71,80,0
292.37195,292.55777,62,80,0
292.57468,292.96317,70,80,0
292.57468,292.96317,61,80,0
292.98007,293.1659,71,80,0
292.98007,293.1659,62,80,0
294.399,294.7875,53,80,0
294.80438,294.9902,50,80,0
295.0071,295.3956,49,80,0
295.4125,295.59833,50,80,0
295.6152,296.00372,67,80,0
296.0206,296.20642,64,80,0
296.2233,296.61182,63,80,0
296.62872,296.8145,64,80,0
296.83142,297.21994,67,80,0
297.23682,297.42264,64,80,0
297.4395,297.82803,67,80,0
297.84494,298.03073,65,80,0
298.04764,298.43616,69,80,0
298.45303,298.63885,66,80,0
298.65573,299.04425,69,80,0
299.06116,299.24695,67,80,0
299.26385,300.46317,76,80,0
299.26385,300.46317,67,80,0
300.48007,301.67938,72,80,0
300.48007,301.67938,67,80,0
301.6963,302.0848,72,80,0
301.6963,302.0848,64,80,0
302.10168,302.2875,71,80,0
302.10168,302.2875,62,80,0
302.30438,302.6929,74,80,0
302.30438,302.6929,65,80,0
302.7098,302.8956,72,80,0
302.7098,302.8956,64,80,0
302.9125,303.30103,72,80,0
302.9125,303.30103,64,80,0
303.3179,303.50372,70,80,0
303.3179,303.50372,61,80,0
303.5206,303.90912,72,80,0
303.5206,303.90912,64,80,0
303.92603,304.11182,71,80,0
303.92603,304.11182,62,80,0
304.12872,305.32803,71,80,0
304.12872,305.32803,67,80,0
304.12872,305.32803,62,80,0
305.34494,306.54425,72,80,0
305.34494,306.54425,67,80,0
306.56116,306.94965,76,87,0
306.56116,307.15237,64,87,0
306.96655,307.15237,74,89,0
307.16925,307.55777,77,91,0
307.16925,307.76047,67,91,0
307.57465,307.76047,76,93,0
307.77737,308.16586,74,94,0
308.18277,308.3686,73,97,0
308.38547,308.774,76,98,0
308.79086,308.97668,74,100,0
308.9936,309.38208,73,100,0
307.77737,309.5848,79,94,0
309.399,309.5848,71,97,0
309.60168,309.9902,74,95,0
310.00708,310.1929,73,92,0
309.60168,310.5983,79,95,0
310.2098,310.801,69,90,0
310.6152,310.801,76,87,0
310.8179,311.20642,79,85,0
311.2233,311.40912,77,81,0
311.426,311.8145,76,80,0
310.8179,312.0172,69,85,0
311.83142,312.0172,73,80,0
312.03412,312.42264,76,80,0
312.03412,312.62534,69,80,0
312.4395,312.62534,74,80,0
312.6422,313.23343,72,80,0
312.6422,313.23343,69,80,0
313.25034,313.84155,71,80,0
313.25034,313.84155,62,80,0
313.85843,314.24695,67,80,0
313.85843,314.44965,72,80,0
314.26385,314.44965,64,80,0
314.46655,314.85507,67,80,0
314.46655,315.05777,73,80,0
314.87195,315.46317,65,80,0
315.07465,315.66586,74,80,0
315.48007,315.66586,62,80,0
315.68277,316.0713,74,80,0
315.68277,316.0713,68,80,0
315.68277,316.0713,65,80,0
316.08817,316.274,67,80,0
316.08817,316.274,65,80,0
316.08817,316.274,62,80,0
316.29086,316.67938,65,80,0
316.29086,316.67938,62,80,0
316.29086,316.88208,67,80,0
316.6963,316.88208,62,80,0
316.899,317.2875,59,80,0
317.30438,317.4902,60,80,0
317.50708,317.8956,62,80,0
316.899,318.0983,67,80,0
317.9125,318.0983,60,80,0
318.1152,318.50372,65,80,0
318.1152,318.70642,67,80,0
318.5206,318.70642,64,80,0
319.9395,320.32803,76,80,0
319.9395,320.32803,67,80,0
320.3449,320.53073,72,80,0
320.3449,320.53073,64,80,0
320.54764,320.93613,71,80,0
320.54764,320.93613,62,80,0
320.95303,321.13885,72,80,0
320.95303,321.13885,64,80,0
321.15573,321.54425,74,80,0
321.15573,321.54425,65,80,0
321.56113,321.74695,71,80,0
321.56113,321.74695,62,80,0
321.76385,322.15234,70,80,0
321.76385,322.15234,61,80,0
322.16925,322.35507,71,80,0
322.16925,322.35507,62,80,0
323.58817,323.97668,53,80,0
323.99356,324.17938,50,80,0
324.1963,324.58478,49,80,0
324.60168,324.78748,50,80,0
324.80438,325.1929,67,80,0
325.20978,325.3956,64,80,0
325.41248,325.801,63,80,0
325.8179,326.0037,64,80,0
326.0206,326.40912,67,80,0
326.426,326.61182,64,80,0
326.6287,327.0172,67,80,0
327.03412,327.2199,65,80,0
327.23682,327.62534,69,80,0
327.6422,327.82803,66,80,0
327.8449,328.23343,69,80,0
328.25034,328.43613,67,80,0
328.45303,329.65234,76,80,0
328.45303,329.65234,67,80,0
329.66925,330.86856,72,80,0
329.66925,330.86856,67,80,0
330.88547,331.274,72,80,0
330.88547,331.274,64,80,0
331.29086,331.47668,71,80,0
331.29086,331.47668,62,80,0
331.49356,331.88208,74,80,0
331.49356,331.88208,65,80,0
331.899,332.08478,72,80,0
331.899,332.08478,64,80,0
332.10168,332.4902,72,80,0
332.10168,332.4902,64,80,0
332.50708,332.6929,70,80,0
332.50708,332.6929,61,80,0
332.70978,333.0983,72,80,0
332.70978,333.0983,64,80,0
333.1152,333.301,71,80,0
333.1152,333.301,62,80,0
333.3179,334.5172,71,80,0
333.3179,334.5172,67,80,0
333.3179,334.5172,62,80,0
334.53412,335.73343,72,80,0
334.53412,335.73343,67,80,0
335.75034,336.13882,76,87,0
335.75034,336.34155,64,87,0
336.15573,336.34155,74,89,0
336.35843,336.74695,77,91,0
336.35843,336.94965,67,91,0
336.76382,336.94965,76,93,0
336.96655,337.35504,74,94,0
337.37195,337.55777,73,97,0
337.57465,337.96317,76,98,0
337.98004,338.16586,74,100,0
338.18277,338.57126,73,100,0
336.96655,338.774,79,94,0
338.58817,338.774,71,97,0
338.79086,339.17938,74,95,0
339.19626,339.38208,73,92,0
338.79086,339.78748,79,95,0
339.39896,339.99017,69,90,0
339.80438,339.99017,76,87,0
340.00708,340.3956,79,85,0
340.41248,340.5983,77,81,0
340.61517,341.0037,76,80,0
340.00708,341.2064,69,85,0
341.0206,341.2064,73,80,0
341.2233,341.61182,76,80,0
341.2233,341.8145,69,80,0
341.6287,341.8145,74,80,0
341.8314,342.4226,72,80,0
341.8314,342.4226,69,80,0
342.4395,343.03073,71,80,0
342.4395,343.03073,62,80,0
343.0476,343.43613,67,80,0
343.0476,343.63882,72,80,0
343.45303,343.63882,64,80,0
343.65573,344.04425,67,80,0
343.65573,344.24695,73,80,0
344.06113,344.65234,65,80,0
344.26382,344.85504,74,80,0
344.66925,344.85504,62,80,0
344.87195,345.26047,74,80,0
344.87195,345.26047,68,80,0
344.87195,345.26047,65,80,0
345.27734,345.46317,67,80,0
345.27734,345.46317,65,80,0
345.27734,345.46317,62,80,0
345.48004,345.86856,65,80,0
345.48004,345.86856,62,80,0
345.48004,346.07126,67,80,0
345.88547,346.07126,62,80,0
346.08817,346.47668,65,80,0
346.08817,346.47668,59,80,0
346.49356,346.67938,64,80,0
346.49356,346.67938,60,80,0
346.69626,347.08478,64,80,0
346.08817,347.28748,67,80,0
347.10168,347.28748,64,80,0
347.10168,347.28748,62,80,0
347.10168,347.28748,68,80,0
347.30438,347.6929,69,80,0
347.30438,347.6929,64,80,0
347.30438,347.6929,60,80,0
347.70978,347.8956,71,80,0
347.70978,347.8956,64,80,0
347.70978,348.32318,59,80,0
347.91248,348.32318,64,80,0
348.34106,348.5559,62,80,0
348.34106,348.5559,59,80,0
348.34106,349.03897,64,80,0
348.57544,349.03897,60,80,0
348.57544,349.03897,57,80,0
349.0598,349.28897,64,80,0
349.0598,349.28897,62,80,0
349.0598,349.28897,56,80,0
349.3098,349.74542,60,80,0
349.76434,349.9608,63,80,0
349.3098,350.37872,72,80,0
350.39563,350.58142,71,80,0
349.97864,350.98685,64,80,0
351.00372,351.18954,63,80,0
350.59833,351.59494,72,80,0
351.61185,351.79764,71,80,0
351.20642,352.20306,64,80,0
352.21994,352.40576,63,80,0
351.81454,352.81116,72,80,0
352.82806,353.01385,71,80,0
352.42264,353.41928,64,80,0
353.43616,353.62198,65,80,0
353.03076,354.02737,71,80,0
354.04428,354.23007,72,80,0
353.63885,354.6355,64,80,0
354.65237,354.8382,65,80,0
354.24698,355.2436,71,80,0
355.2605,355.4463,72,80,0
354.85507,355.8517,64,80,0
355.8686,356.0544,65,80,0
355.4632,356.4598,71,80,0
356.4767,356.6625,76,80,0
356.0713,357.0679,64,80,0
356.6794,357.67603,76,80,0
356.6794,357.67603,71,80,0
357.6929,357.87872,76,80,0
357.6929,357.87872,72,80,0
357.89563,358.89224,76,80,0
357.89563,358.89224,72,80,0
358.90912,359.09494,74,80,0
358.90912,359.09494,71,80,0
358.90912,359.09494,68,80,0
359.11185,359.50034,74,80,0
359.11185,359.50034,71,80,0
359.11185,359.50034,64,80,0
359.51724,359.70306,72,80,0
359.51724,359.70306,69,80,0
359.51724,359.70306,65,80,0
359.71994,360.10846,69,80,0
359.71994,360.10846,66,80,0
359.71994,360.10846,72,80,0
360.12534,360.31116,71,80,0
360.12534,360.31116,68,80,0
360.12534,360.31116,59,80,0
360.32806,360.71655,71,80,0
360.32806,360.71655,68,80,0
360.32806,360.71655,59,80,0
360.73346,361.32468,71,82,0
360.73346,361.32468,68,82,0
360.73346,361.32468,59,82,0
361.34155,361.93277,71,87,0
361.34155,361.93277,68,87,0
361.34155,361.93277,59,87,0
361.94968,362.5409,72,91,0
361.94968,362.5409,69,91,0
361.94968,362.5409,60,91,0
362.55777,363.149,72,96,0
362.55777,363.149,69,96,0
362.55777,363.149,60,96,0
363.1659,363.7571,74,100,0
363.1659,363.7571,71,100,0
363.1659,363.7571,62,100,0
363.774,363.9598,86,80,0
363.774,363.9598,83,80,0
363.774,363.9598,74,80,0
363.97668,364.3652,86,80,0
363.97668,364.3652,83,80,0
363.97668,364.3652,74,80,0
364.3821,364.5679,74,80,0
364.5848,364.97333,73,80,0
364.9902,365.17603,74,81,0
365.59833,365.78412,71,83,0
365.80103,366.18954,70,84,0
366.20642,366.39224,71,85,0
365.1929,366.79764,74,82,0
366.40912,367.00034,67,86,0
366.81454,367.00034,75,87,0
367.01724,367.40576,77,87,0
367.42264,367.60846,76,89,0
367.01724,368.01385,67,87,0
368.03076,368.21655,72,90,0
368.23346,368.62198,71,91,0
368.63885,368.82468,72,92,0
368.84155,369.23007,72,93,0
367.62534,369.43277,76,89,0
369.24698,369.43277,70,94,0
369.44968,369.8382,69,95,0
369.85507,370.0409,70,96,0
369.44968,370.4463,76,95,0
370.05777,370.649,70,97,0
370.4632,370.649,76,98,0
370.6659,371.0544,70,98,0
370.6659,371.0544,79,98,0
371.0713,371.2571,69,100,0
371.0713,371.2571,77,100,0
371.274,371.6625,74,100,0
371.274,371.6625,69,100,0
371.6794,371.8652,72,101,0
371.6794,371.8652,78,101,0
371.8821,372.2706,81,102,0
371.8821,373.08142,74,102,0
372.2875,373.08142,79,103,0
372.8956,373.08142,75,105,0
373.09833,373.28412,76,106,0
373.09833,373.48682,81,106,0
373.50372,374.29764,79,107,0
374.11182,374.29764,77,109,0
374.31454,374.70303,81,109,0
374.31454,374.70303,71,109,0
374.31454,374.70303,77,109,0
374.71994,374.90576,79,110,0
374.71994,374.90576,74,110,0
374.71994,374.90576,71,110,0
374.92264,375.31116,74,110,0
374.92264,375.31116,71,110,0
375.32803,375.51385,71,100,0
374.92264,375.91925,79,110,0
375.53076,375.91925,72,95,0
375.93616,376.12198,74,85,0
375.93616,376.12198,77,85,0
376.13885,376.52737,67,80,0
376.13885,376.7407,76,80,0
376.54425,376.7407,59,80,0
376.75854,377.16925,60,80,0
377.1871,377.38354,62,80,0
377.4014,377.837,60,80,0
377.85596,378.06427,59,80,0
377.85596,378.52533,64,80,0
378.08322,378.52533,57,80,0
378.54486,378.7597,64,80,0
378.54486,378.7597,62,80,0
378.54486,378.7597,56,80,0
378.77924,379.18997,60,80,0
379.20782,379.39362,63,80,0
378.77924,379.79904,72,80,0
379.81592,380.00174,71,80,0
379.41052,380.40714,64,80,0
380.42404,380.60983,63,80,0
380.01862,381.01526,72,80,0
381.03214,381.21796,71,80,0
380.62674,381.62335,64,80,0
381.64026,381.82605,63,80,0
381.23483,382.23148,72,80,0
382.24835,382.43417,71,80,0
381.84296,382.83957,64,80,0
382.85648,383.04227,65,80,0
382.45105,383.4477,71,80,0
383.46457,383.6504,72,80,0
383.05917,384.0558,64,80,0
384.0727,384.25848,65,80,0
383.66727,384.66388,71,80,0
384.6808,384.8666,72,80,0
384.2754,385.272,64,80,0
385.28888,385.4747,65,80,0
384.88348,385.8801,71,80,0
385.897,386.08282,76,80,0
385.4916,386.48822,64,80,0
386.0997,387.0963,76,80,0
386.0997,387.0963,71,80,0
387.11322,387.29904,76,80,0
387.11322,387.29904,72,80,0
387.31592,388.31253,76,80,0
387.31592,388.31253,72,80,0
388.32944,388.51526,74,80,0
388.32944,388.51526,71,80,0
388.32944,388.51526,68,80,0
388.53214,388.92065,74,80,0
388.53214,388.92065,71,80,0
388.53214,388.92065,64,80,0
388.93753,389.12335,72,80,0
388.93753,389.12335,69,80,0
388.93753,389.12335,65,80,0
389.14026,389.52875,69,80,0
389.14026,389.52875,66,80,0
389.14026,389.52875,72,80,0
389.54565,389.73145,71,80,0
389.54565,389.73145,68,80,0
389.54565,389.73145,59,80,0
389.74835,390.13687,71,80,0
389.74835,390.13687,68,80,0
389.74835,390.13687,59,80,0
390.15375,390.74496,71,82,0
390.15375,390.74496,68,82,0
390.15375,390.74496,59,82,0
390.76187,391.3531,71,87,0
390.76187,391.3531,68,87,0
390.76187,391.3531,59,87,0
391.36996,391.9718,72,91,0
391.36996,391.9718,69,91,0
391.36996,391.9718,60,91,0
391.98965,392.61465,72,96,0
391.98965,392.61465,69,96,0
391.98965,392.61465,60,96,0
392.6325,393.3161,74,100,0
392.6325,393.3161,71,100,0
392.6325,393.3161,62,100,0
393.33563,393.53207,86,80,0
393.33563,393.53207,83,80,0
393.33563,393.53207,74,80,0
393.54993,393.96063,86,80,0
393.54993,393.96063,83,80,0
393.54993,393.96063,74,80,0
393.97852,394.1643,74,80,0
394.1812,394.56973,73,80,0
394.5866,394.77243,74,81,0
395.19473,395.38052,71,83,0
395.39743,395.78592,70,84,0
395.80283,395.98865,71,85,0
394.7893,396.39404,74,82,0
396.00552,396.59674,67,86,0
396.41092,396.59674,75,87,0
396.61365,397.00214,77,87,0
397.01904,397.20486,76,89,0
396.61365,397.61026,67,87,0
397.62714,397.81296,72,90,0
397.82986,398.21835,71,91,0
398.23526,398.42108,72,92,0
398.43796,398.82648,72,93,0
397.22174,399.02917,76,89,0
398.84335,399.02917,70,94,0
399.04608,399.43457,69,95,0
399.45148,399.6373,70,96,0
399.04608,400.0427,76,95,0
399.65417,400.2454,70,97,0
400.05957,400.2454,76,98,0
400.2623,400.6508,70,98,0
400.2623,400.6508,79,98,0
400.6677,400.8535,69,100,0
400.6677,400.8535,77,100,0
400.8704,401.2589,74,100,0
400.8704,401.2589,69,100,0
401.2758,401.4616,72,101,0
401.2758,401.4616,78,101,0
401.4785,401.867,81,102,0
401.4785,402.67783,74,102,0
401.8839,402.67783,79,103,0
402.492,402.67783,75,105,0
402.6947,402.88052,76,106,0
402.6947,403.08322,81,106,0
403.10013,403.89404,79,107,0
403.70822,403.89404,77,109,0
403.91092,404.29944,81,109,0
403.91092,404.29944,71,109,0
403.91092,404.29944,77,109,0
404.31635,404.50214,79,110,0
404.31635,404.50214,74,110,0
404.31635,404.50214,71,110,0
404.51904,404.90756,74,110,0
404.51904,404.90756,71,110,0
404.92444,405.11026,71,98,0
404.51904,405.51566,79,110,0
405.12714,405.51566,72,92,0
405.53256,405.71835,74,80,0
405.53256,405.71835,77,80,0
405.73526,406.12378,67,80,0
405.73526,406.32648,76,80,0
406.14066,406.73187,79,80,0
406.74878,406.93457,79,80,0
406.74878,406.93457,77,80,0
406.95148,407.13815,84,110,0
407.14627,407.23557,79,110,0
407.24368,407.43036,76,110,0
407.43848,407.52777,72,110,0
407.5359,407.72256,67,110,0
407.73068,407.81998,64,110,0
407.8281,408.01477,60,110,0
408.0229,408.11218,55,110,0
408.1203,408.59918,67,110,0
408.1203,408.59918,64,110,0
408.6073,409.18362,67,110,0
408.6073,409.18362,64,110,0
409.19174,409.281,67,110,0
409.19174,409.281,64,110,0
409.28912,409.76804,67,110,0
409.28912,409.76804,65,110,0
409.77615,410.35245,67,110,0
409.77615,410.35245,65,110,0
410.36057,410.44983,67,110,0
410.36057,410.44983,65,110,0
410.45795,410.64465,89,110,0
410.65277,410.74207,86,110,0
410.75015,410.93686,83,110,0
410.94498,411.03427,79,110,0
411.0424,411.22906,77,110,0
411.23718,411.32648,74,110,0
411.3346,411.52127,71,110,0
411.5294,411.61868,67,110,0
411.6268,412.10568,67,110,0
411.6268,412.10568,65,110,0
412.1138,412.6901,67,110,0
412.1138,412.6901,65,110,0
412.6982,412.7875,67,110,0
412.6982,412.7875,65,110,0
412.79562,413.2745,67,110,0
413.28262,413.85892,67,110,0
413.86703,413.95633,67,110,0
413.96445,414.15112,91,110,0
414.15924,414.24854,88,110,0
414.25665,414.44336,84,110,0
414.45148,414.54074,79,110,0
414.54886,414.73557,76,110,0
414.74368,414.83295,72,110,0
414.84106,415.02777,67,110,0
415.0359,415.12515,79,110,0
415.13327,415.61218,73,110,0
415.13327,415.61218,70,110,0
415.13327,415.61218,67,110,0
415.13327,415.61218,79,110,0
415.6203,416.1966,79,110,0
415.6203,416.1966,74,110,0
415.6203,416.1966,71,110,0
415.6203,416.1966,67,110,0
416.2047,416.294,79,110,0
416.2047,416.294,74,110,0
416.2047,416.294,71,110,0
416.2047,416.294,67,110,0
416.30212,416.781,71,110,0
416.30212,416.781,67,110,0
416.30212,416.781,79,110,0
416.78912,417.36542,79,110,0
416.78912,417.36542,67,110,0
416.78912,417.36542,72,110,0
417.37354,417.46283,79,110,0
417.37354,417.46283,67,110,0
417.37354,417.46283,72,110,0
417.47095,417.94983,88,110,0
417.47095,417.94983,79,110,0
417.47095,417.94983,76,110,0
417.95795,418.53424,88,110,0
417.95795,418.53424,79,110,0
417.95795,418.53424,76,110,0
418.54236,418.63165,84,110,0
418.54236,418.63165,76,110,0
418.54236,418.63165,72,110,0
418.63977,418.82645,84,110,0
418.83456,418.92386,81,110,0
418.93198,419.11865,78,110,0
419.12677,419.21606,75,110,0
419.22418,419.41086,72,110,0
419.41898,419.50827,69,110,0
419.5164,419.7031,66,110,0
419.7112,419.80048,63,110,0
419.7112,419.80048,72,110,0
419.8086,419.9953,83,110,0
420.00342,420.09268,79,110,0
420.1008,420.2875,74,110,0
420.29562,420.3849,71,110,0
420.393,420.5797,67,110,0
420.58783,420.6771,62,110,0
420.6852,420.87192,59,110,0
420.88004,421.45633,71,110,0
420.88004,421.45633,74,110,0
420.88004,421.45633,80,110,0
420.88004,421.45633,83,110,0
421.46445,421.55374,80,110,0
421.46445,422.04074,83,110,0
421.46445,422.04074,74,110,0
421.46445,422.04074,71,110,0
421.56186,422.04074,79,110,0
422.04886,422.13815,83,110,0
422.04886,422.13815,79,110,0
422.04886,422.13815,74,110,0
422.04886,422.13815,71,110,0
422.14627,422.33295,84,110,0
422.34106,422.43036,79,110,0
422.43848,422.62515,76,123,0
422.63327,422.72256,72,110,0
422.73068,422.91736,67,110,0
422.92548,423.01477,64,110,0
423.0229,423.20956,76,110,0
423.21768,423.30698,72,110,0
423.3151,423.50177,76,110,0
423.5099,423.59918,72,110,0
423.6073,423.79398,79,122,0
423.8021,423.8914,76,110,0
423.8995,424.08618,72,110,0
424.0943,424.1836,67,110,0
424.1917,424.3784,76,124,0
424.3865,424.4758,72,110,0
424.48392,424.6706,79,110,0
424.6787,424.768,76,110,0
424.77612,424.96283,84,122,0
424.97095,425.0602,79,110,0
425.06833,425.25504,76,110,0
425.26315,425.35242,72,110,0
425.36053,425.54724,79,124,0
425.55536,425.64462,76,110,0
425.94495,426.13165,79,124,0
426.13977,426.22903,76,110,0
426.23715,426.42386,73,110,0
426.43198,426.52127,76,110,0
426.52936,426.71606,79,123,0
426.72418,426.81348,76,110,0
426.8216,427.00827,77,110,0
427.0164,427.10568,74,110,0
427.1138,427.30048,77,126,0
427.3086,427.3979,69,110,0
427.406,427.59268,77,110,0
427.6008,427.6901,65,110,0
427.6982,427.8849,69,123,0
427.893,427.9823,65,110,0
427.99042,428.1771,69,110,0
428.1852,428.2745,65,110,0
428.28262,428.4693,77,124,0
428.47742,428.5667,74,110,0
428.57483,428.7615,69,110,0
428.76962,428.85892,81,110,0
428.86703,429.0537,77,126,0
429.06183,429.15112,74,110,0
429.15924,429.34592,72,110,0
429.35403,429.44333,71,110,0
429.45145,429.63812,77,122,0
429.64624,429.73553,74,110,0
429.74365,429.93033,83,110,0
429.93845,430.02774,77,110,0
430.03586,430.22256,74,125,0
430.23068,430.31995,71,110,0
430.32806,430.51477,74,110,0
430.5229,430.61215,72,110,0
430.62027,430.80698,80,124,0
430.8151,430.90436,77,110,0
430.91248,431.09918,84,110,0
431.1073,431.19656,81,110,0
431.20468,431.3914,77,125,0
431.3995,431.48877,72,110,0
431.4969,431.6836,75,110,0
431.6917,431.781,74,110,0
431.7891,431.9758,86,123,0
431.98392,432.0732,74,110,0
432.08133,432.268,86,110,0
432.27612,432.36542,74,110,0
432.37354,432.5602,86,123,0
432.56833,432.65762,74,110,0
432.56833,432.65762,79,110,0
432.66574,432.85242,72,110,0
432.86053,432.94983,76,110,0
432.66574,433.14462,79,110,0
432.95795,433.14462,77,110,0
433.15274,433.24203,74,110,0
433.15274,433.24203,77,110,0
433.25015,433.43683,71,110,0
433.44495,433.53424,72,110,0
433.15274,433.72903,79,110,0
433.54236,433.72903,74,110,0
433.73715,433.82645,72,110,0
433.83456,434.02124,74,110,0
434.02936,434.11865,76,110,0
433.73715,434.31345,79,110,0
434.12677,434.31345,77,110,0
434.32156,434.41086,76,110,0
434.32156,434.41086,79,110,0
434.41898,434.60565,77,110,0
434.61377,434.70306,79,110,0
434.71118,434.89786,81,110,0
434.90598,434.99527,83,110,0
435.0034,435.19006,84,110,0
435.19818,435.28748,79,110,0
435.2956,435.4823,76,110,0
435.49042,435.57968,72,110,0
435.5878,435.7745,67,110,0
435.78262,435.8719,64,110,0
435.88,436.0667,60,110,0
436.07483,436.1641,55,110,0
436.1722,436.65112,67,110,0
436.1722,436.65112,64,110,0
436.65924,437.23553,67,110,0
436.65924,437.23553,64,110,0
437.24365,437.33295,67,110,0
437.24365,437.33295,64,110,0
437.34106,437.81995,67,110,0
437.34106,437.81995,65,110,0
437.82806,438.40436,67,110,0
437.82806,438.40436,65,110,0
438.41248,438.50177,67,110,0
438.41248,438.50177,65,110,0
438.5099,438.69656,89,110,0
438.70468,438.79398,86,110,0
438.8021,438.98877,83,110,0
438.9969,439.08618,79,110,0
439.0943,439.28098,77,110,0
439.2891,439.3784,74,110,0
439.3865,439.57318,71,110,0
439.5813,439.6706,67,110,0
439.6787,440.1576,67,110,0
439.6787,440.1576,65,110,0
440.1657,440.74203,67,110,0
440.1657,440.74203,65,110,0
440.75015,440.83942,67,110,0
440.75015,440.83942,65,110,0
440.84753,441.32645,67,110,0
441.33456,441.91086,67,110,0
441.91898,442.00824,67,110,0
442.01636,442.20306,91,110,0
442.21118,442.30045,88,110,0
442.30856,442.49527,84,110,0
442.5034,442.59268,79,110,0
442.6008,442.78748,76,110,0
442.7956,442.8849,72,110,0
442.893,443.07968,67,110,0
443.0878,443.1771,79,110,0
443.1852,443.6641,73,110,0
443.1852,443.6641,70,110,0
443.1852,443.6641,67,110,0
443.1852,443.6641,79,110,0
443.6722,444.2485,79,110,0
443.6722,444.2485,74,110,0
443.6722,444.2485,71,110,0
443.6722,444.2485,67,110,0
444.25662,444.34592,79,110,0
444.25662,444.34592,74,110,0
444.25662,444.34592,71,110,0
444.25662,444.34592,67,110,0
444.35403,444.83292,71,110,0
444.35403,444.83292,67,110,0
444.35403,444.83292,79,110,0
444.84103,445.41733,79,110,0
444.84103,445.41733,67,110,0
444.84103,445.41733,72,110,0
445.42545,445.51474,79,110,0
445.42545,445.51474,67,110,0
445.42545,445.51474,72,110,0
445.52286,446.00177,88,110,0
445.52286,446.00177,79,110,0
445.52286,446.00177,76,110,0
446.0099,446.58618,88,110,0
446.0099,446.58618,79,110,0
446.0099,446.58618,76,110,0
446.5943,446.68356,84,110,0
446.5943,446.68356,76,110,0
446.5943,446.68356,72,110,0
446.69168,446.8784,84,110,0
446.8865,446.97577,81,110,0
446.9839,447.1706,78,110,0
447.1787,447.26797,75,110,0
447.2761,447.4628,72,110,0
447.47092,447.56018,69,110,0
447.5683,447.755,66,110,0
447.76312,447.85242,63,110,0
447.76312,447.85242,72,110,0
447.86053,448.0472,83,110,0
448.05533,448.14462,79,110,0
448.15274,448.33942,74,110,0
448.34753,448.43683,71,110,0
448.44495,448.63162,67,110,0
448.63974,448.72903,62,110,0
448.73715,448.92383,59,110,0
448.93195,449.50824,71,110,0
448.93195,449.50824,74,110,0
448.93195,449.50824,80,110,0
448.93195,449.50824,83,110,0
449.51636,449.60565,80,110,0
449.51636,450.09265,83,110,0
449.51636,450.09265,74,110,0
449.51636,450.09265,71,110,0
449.61377,450.09265,79,110,0
450.10077,450.19006,83,110,0
450.10077,450.19006,79,110,0
450.10077,450.19006,74,110,0
450.10077,450.19006,71,110,0
450.19818,450.38486,84,110,0
450.39297,450.48227,79,110,0
450.4904,450.67706,76,123,0
450.68518,450.77448,72,110,0
450.7826,450.96927,67,110,0
450.9774,451.06668,64,110,0
451.0748,451.2615,76,110,0
451.26962,451.3589,72,110,0
451.367,451.5537,76,110,0
451.56183,451.6511,72,110,0
451.6592,451.84592,79,122,0
451.85403,451.9433,76,110,0
451.95142,452.13812,72,110,0
452.14624,452.2355,67,110,0
452.24362,452.43033,76,124,0
452.43845,452.5277,72,110,0
452.53583,452.72253,79,110,0
452.73065,452.81992,76,110,0
452.82803,453.01474,84,122,0
453.02286,453.11215,79,110,0
453.12027,453.30695,76,110,0
453.31506,453.40436,72,110,0
453.41248,453.59915,79,124,0
453.60727,453.69656,76,110,0
453.9969,454.18356,79,124,0
454.19168,454.28098,76,110,0
454.2891,454.47577,73,110,0
454.4839,454.57318,76,110,0
454.5813,454.76797,79,123,0
454.7761,454.8654,76,110,0
454.8735,455.06018,77,110,0
455.0683,455.1576,74,110,0
455.1657,455.3524,77,126,0
455.3605,455.4498,69,110,0
455.45792,455.6446,77,110,0
455.6527,455.742,65,110,0
455.75012,455.9368,69,123,0
455.94492,456.0342,65,110,0
456.04233,456.229,69,110,0
456.23712,456.32642,65,110,0
456.33453,456.52124,77,124,0
456.52933,456.61862,74,110,0
456.62674,456.81345,69,110,0
456.82156,456.91083,81,110,0
456.91895,457.10565,77,126,0
457.11377,457.20303,74,110,0
457.21115,457.39786,72,110,0
457.40598,457.49524,71,110,0
457.50336,457.69006,77,122,0
457.69818,457.78745,74,110,0
457.79556,457.98227,83,110,0
457.9904,458.07965,77,110,0
458.08777,458.27448,74,125,0
458.2826,458.3719,71,110,0
458.38,458.56668,74,110,0
458.5748,458.6641,72,110,0
458.6722,458.8589,80,124,0
458.867,458.9563,77,110,0
458.96442,459.1511,84,110,0
459.1592,459.2485,81,110,0
459.25662,459.4433,77,125,0
459.45142,459.5407,72,110,0
459.54883,459.7355,75,110,0
459.74362,459.83292,74,110,0
459.84103,460.0277,86,123,0
460.03583,460.12512,74,110,0
460.13324,460.31992,86,110,0
460.32803,460.41733,74,110,0
460.42545,460.61212,86,123,0
460.62024,460.70953,74,110,0
460.62024,460.70953,79,110,0
460.71765,460.90433,72,110,0
460.91245,461.00174,76,110,0
460.71765,461.19653,79,110,0
461.00986,461.19653,77,110,0
461.20465,461.29395,74,110,0
461.20465,461.29395,77,110,0
461.30206,461.48874,71,110,0
461.49686,461.58615,72,110,0
461.20465,461.78098,79,110,0
461.59427,461.78098,74,110,0
461.78906,461.87836,72,110,0
461.88647,462.07318,74,110,0
462.0813,462.17056,76,110,0
461.78906,462.3654,79,110,0
462.17868,462.3654,77,110,0
462.3735,462.46277,76,110,0
462.4709,462.6576,77,110,0
462.6657,462.75497,74,110,0
462.3735,462.9498,79,110,0
462.7631,462.9498,77,110,0
462.95792,463.04718,76,110,0
462.95792,463.04718,79,110,0
463.0553,463.242,74,110,0
463.0553,463.242,80,110,0
463.25012,463.3394,81,110,0
463.25012,463.3394,72,110,0
463.3475,463.5342,71,110,0
463.3475,463.5342,83,110,0
463.63974,463.82642,59,110,0
463.83453,463.92383,60,110,0
463.54233,464.11862,64,110,0
463.93195,464.11862,62,110,0
464.12674,464.21603,64,110,0
464.12674,464.21603,60,110,0
464.22415,464.70303,72,110,0
464.22415,464.70303,64,110,0
464.71115,465.28745,72,110,0
464.71115,465.28745,64,110,0
465.29556,465.38486,72,110,0
465.29556,465.38486,64,110,0
465.39297,465.57965,84,80,0
465.58777,465.67706,80,80,0
465.68518,465.87186,81,80,0
465.87997,465.96927,76,80,0
465.9774,466.16406,74,80,0
466.17218,466.26147,72,80,0
466.2696,466.45627,76,80,0
466.4644,466.55368,72,80,0
466.5618,466.74847,71,80,0
466.7566,466.8459,69,80,0
466.854,467.0407,72,80,0
467.0488,467.1381,69,80,0
467.1462,467.33292,71,80,0
467.34103,467.43268,69,80,0
467.441,467.6365,72,80,0
467.64517,467.74066,71,120,0
467.64517,467.74066,65,120,0
467.64517,467.74066,62,120,0
467.74936,468.22824,71,120,0
467.74936,468.22824,64,120,0
467.74936,468.22824,62,120,0
468.23636,468.81265,71,120,0
468.23636,468.81265,64,120,0
468.23636,468.81265,62,120,0
468.82077,468.91006,71,120,0
468.82077,468.91006,64,120,0
468.82077,468.91006,62,120,0
468.91818,469.10486,84,80,0
469.11298,469.20227,83,80,0
469.2104,469.39706,88,80,0
469.40518,469.49448,83,80,0
469.5026,469.6893,81,80,0
469.69742,469.78668,80,80,0
469.7948,469.9815,83,80,0
469.98962,470.0789,76,80,0
470.087,470.2737,83,80,0
470.28183,470.3711,76,80,0
470.3792,470.56592,77,80,0
470.57404,470.6633,74,80,0
470.67142,470.85812,72,80,0
470.86624,470.9555,71,80,0
470.96362,471.15033,76,80,0
471.15845,471.24774,71,80,0
471.25583,471.44254,72,80,0
471.45065,471.53995,71,81,0
471.54807,471.73474,76,82,0
471.74286,471.83215,71,84,0
471.84027,472.02695,74,85,0
472.03506,472.12436,72,86,0
472.13248,472.31915,76,87,0
472.32727,472.41656,72,89,0
472.42468,472.61136,76,90,0
472.61948,472.70877,74,92,0
472.7169,472.90356,80,92,0
472.91168,473.00098,74,94,0
473.0091,473.19577,77,95,0
473.2039,473.29318,76,97,0
473.3013,473.48798,81,98,0
473.4961,473.5854,76,99,0
473.5935,473.78018,81,100,0
473.7883,473.8776,77,102,0
473.8857,474.0724,81,103,0
474.0805,474.1698,71,104,0
474.17792,474.3646,81,105,0
474.3727,474.462,78,107,0
474.47012,474.6568,81,108,0
474.66492,474.94904,72,110,0
474.76233,474.94904,81,110,0
474.95715,475.04642,71,110,0
475.05453,475.24124,81,110,0
475.24936,475.33862,80,110,0
475.34674,476.11786,74,123,0
475.34674,476.11786,83,121,0
476.12598,476.21524,72,110,0
476.22336,476.41006,83,110,0
476.41818,476.50745,81,110,0
476.51556,477.28668,76,123,0
476.51556,477.28668,84,122,0
477.2948,477.3841,74,110,0
477.3922,477.5789,84,110,0
477.587,477.6763,83,110,0
477.68442,478.1633,86,125,0
477.68442,478.1633,77,121,0
478.17142,478.2607,86,110,0
478.17142,478.2607,77,110,0
478.26883,478.78098,86,110,0
478.26883,478.78098,83,110,0
478.26883,478.78098,79,110,0
478.26883,478.78098,77,110,0
478.78964,479.42816,86,110,0
478.78964,479.42816,83,110,0
478.78964,479.42816,79,110,0
478.78964,479.42816,77,110,0
479.43777,479.7585,77,110,0
479.43777,479.7585,79,110,0
479.43777,479.7585,83,110,0
479.43777,479.7585,86,110,0
479.76746,479.85672,83,110,0
479.86484,480.05154,89,110,0
480.05966,480.14896,86,110,0
480.15704,480.34375,84,110,0
480.35187,480.44116,83,110,0
480.44928,480.63596,86,110,0
480.64407,480.73337,83,110,0
480.7415,480.92816,79,110,0
480.93628,481.02557,77,110,0
481.0337,481.22037,81,110,0
481.2285,481.31778,77,110,0
481.3259,481.51257,76,110,0
481.5207,481.61,74,110,0
481.6181,481.80478,77,110,0
481.8129,481.9022,74,110,0
481.9103,482.3892,76,110,0
481.9103,482.3892,72,110,0
481.9103,482.3892,67,110,0
482.3973,482.9736,76,110,0
482.3973,482.9736,72,110,0
482.3973,482.9736,67,110,0
482.98172,483.2658,67,110,0
482.98172,483.2658,72,110,0
482.98172,483.2658,76,110,0
483.27393,483.36322,71,110,0
483.27393,483.36322,67,110,0
483.37134,483.55804,72,110,0
483.37134,483.55804,69,110,0
483.56613,483.65543,74,110,0
483.56613,483.65543,71,110,0
483.66354,483.85025,67,124,0
483.85837,483.94763,64,110,0
483.95575,484.14246,65,110,0
484.15057,484.23984,67,110,0
483.66354,484.43466,76,122,0
484.44278,484.53204,73,110,0
484.54016,484.72687,74,110,0
484.735,484.82425,76,110,0
484.24796,485.01907,69,123,0
485.0272,485.11646,65,110,0
485.12457,485.31128,67,110,0
485.3194,485.4087,69,110,0
484.83237,485.6035,77,127,0
485.41678,485.6035,71,122,0
485.6116,485.7009,73,110,0
485.6116,485.7009,70,110,0
485.709,485.8957,74,110,0
485.709,485.8957,71,110,0
485.9038,485.9931,76,110,0
485.9038,485.9931,72,110,0
486.00122,486.5775,71,123,0
486.00122,486.7723,74,123,0
486.78043,486.86972,73,110,0
486.87784,487.0645,74,110,0
487.07263,487.16193,76,110,0
486.58563,487.35672,67,110,0
487.36484,487.45413,69,110,0
487.46225,487.64893,71,110,0
487.65704,487.74634,72,110,0
487.17004,487.94113,74,123,0
487.94925,488.03854,76,110,0
488.04666,488.23334,77,110,0
487.75446,488.33075,71,110,0
488.24146,488.33075,78,110,0
488.53366,488.62296,76,110,0
488.63107,488.81775,74,110,0
488.82587,488.91516,72,110,0
488.33887,489.11,79,124,0
488.92328,489.11,74,110,0
489.1181,489.20737,81,110,0
489.1181,489.4022,74,110,0
489.21548,489.4022,79,110,0
489.4103,489.49957,81,110,0
489.4103,489.6944,74,110,0
489.5077,489.6944,79,110,0
489.7025,489.79178,77,110,0
489.7025,489.79178,74,110,0
489.7025,489.9866,67,110,0
489.7999,489.9866,76,110,0
489.99472,490.08398,77,110,0
489.99472,490.08398,74,110,0
489.99472,490.2788,67,110,0
490.0921,490.2788,76,110,0
490.28693,490.3762,77,110,0
490.28693,490.3762,74,110,0
490.28693,490.571,67,110,0
490.3843,490.571,76,110,0
490.57913,490.66843,74,110,0
490.6765,490.86322,72,110,0
490.87134,490.96063,71,110,0
490.96875,491.15543,72,110,0
491.16354,491.25284,76,110,0
491.26096,491.44763,64,110,0
491.45575,491.54504,76,110,0
491.45575,491.54504,72,110,0
491.55316,491.73984,64,110,0
491.74796,491.83725,74,110,0
491.74796,491.83725,71,110,0
491.84537,492.03204,64,110,0
492.04016,492.12946,72,110,0
492.04016,492.12946,69,110,0
492.13757,492.32425,64,110,0
492.33237,492.42166,71,110,0
492.33237,492.42166,68,110,0
492.42978,492.91486,72,110,0
492.42978,492.91486,64,110,0
492.92355,493.57083,72,110,0
492.92355,493.57083,64,110,0
493.5809,493.69177,72,110,0
493.5809,493.69177,64,110,0
493.70187,493.90723,84,80,0
493.91614,494.0078,80,80,0
494.01614,494.20544,81,80,0
494.21356,494.30283,76,80,0
494.31094,494.49765,74,80,0
494.50577,494.59506,72,80,0
494.60315,494.78986,76,80,0
494.79797,494.88727,72,80,0
494.8954,495.08206,71,80,0
495.09018,495.17947,69,80,0
495.1876,495.37427,72,80,0
495.3824,495.47168,69,80,0
495.4798,495.66647,71,80,0
495.6746,495.7639,69,80,0
495.772,495.95868,72,80,0
495.9668,496.0561,71,120,0
495.9668,496.0561,65,120,0
495.9668,496.0561,62,120,0
496.0642,496.5431,71,120,0
496.0642,496.5431,64,120,0
496.0642,496.5431,62,120,0
496.5512,497.1275,71,120,0
496.5512,497.1275,64,120,0
496.5512,497.1275,62,120,0
497.13562,497.2249,71,120,0
497.13562,497.2249,64,120,0
497.13562,497.2249,62,120,0
497.23303,497.4197,84,80,0
497.42783,497.51712,83,80,0
497.52524,497.7119,88,80,0
497.72003,497.80933,83,80,0
497.81744,498.00412,81,80,0
498.01224,498.10153,80,80,0
498.10965,498.29636,83,80,0
498.30447,498.39374,76,80,0
498.40186,498.58856,83,80,0
498.59668,498.68594,76,80,0
498.69406,498.88077,77,80,0
498.8889,498.97815,74,80,0
498.98627,499.17297,72,80,0
499.1811,499.27036,71,80,0
499.27847,499.46518,76,80,0
499.4733,499.56256,71,80,0
499.57068,499.7574,72,80,0
499.7655,499.85477,71,81,0
499.86288,500.0496,76,82,0
500.0577,500.147,71,84,0
500.15512,500.3418,74,85,0
500.3499,500.4392,72,86,0
500.44733,500.634,76,87,0
500.64212,500.7314,72,89,0
500.73953,500.9262,76,90,0
500.93433,501.02362,74,92,0
501.03174,501.2184,80,92,0
501.22653,501.31583,74,94,0
501.32394,501.51062,77,95,0
501.51874,501.60803,76,97,0
501.61615,501.80283,81,98,0
501.81094,501.90024,76,99,0
501.90836,502.09503,81,100,0
502.10315,502.19244,77,102,0
502.20056,502.38724,81,103,0
502.39536,502.48465,71,104,0
502.49277,502.67944,81,105,0
502.68756,502.77686,78,107,0
502.78497,502.97165,81,108,0
502.97977,503.26385,72,110,0
503.07718,503.26385,81,110,0
503.27197,503.36127,71,110,0
503.3694,503.5561,81,110,0
503.5642,503.65347,80,110,0
503.6616,504.44568,74,123,0
503.6616,504.44568,83,121,0
504.45435,504.54984,72,110,0
504.5585,504.75818,83,110,0
504.76685,504.86234,81,110,0
504.871,505.69568,76,123,0
504.871,505.69568,84,122,0
505.70435,505.79984,74,110,0
505.8085,506.00815,84,110,0
506.01685,506.11234,83,110,0
506.121,506.63315,86,125,0
506.121,506.63315,77,121,0
506.64185,506.73734,86,110,0
506.64185,506.73734,77,110,0
506.746,507.2728,86,110,0
506.746,507.2728,83,110,0
506.746,507.2728,79,110,0
506.746,507.2728,77,110,0
507.28174,507.9397,86,110,0
507.28174,507.9397,83,110,0
507.28174,507.9397,79,110,0
507.28174,507.9397,77,110,0
507.9493,508.27005,77,110,0
507.9493,508.27005,79,110,0
507.9493,508.27005,83,110,0
507.9493,508.27005,86,110,0
508.27896,508.37317,83,110,0
508.3817,508.57373,89,110,0
508.58185,508.67114,86,110,0
508.67926,508.86594,84,110,0
508.87405,508.96335,83,110,0
508.97147,509.15814,86,110,0
509.16626,509.25555,83,110,0
509.26367,509.45038,79,110,0
509.45847,509.54776,77,110,0
509.55588,509.74258,81,110,0
509.7507,509.83997,77,110,0
509.84808,510.0348,76,110,0
510.0429,510.13217,74,110,0
510.1403,510.327,77,110,0
510.3351,510.42438,74,110,0
510.4325,510.9114,76,110,0
510.4325,510.9114,72,110,0
510.4325,510.9114,67,110,0
510.91953,511.49582,76,110,0
510.91953,511.49582,72,110,0
510.91953,511.49582,67,110,0
511.50394,511.78802,67,110,0
511.50394,511.78802,72,110,0
511.50394,511.78802,76,110,0
511.79614,511.88544,71,110,0
511.79614,511.88544,67,110,0
511.89355,512.08026,72,110,0
511.89355,512.08026,69,110,0
512.0883,512.1776,74,110,0
512.0883,512.1776,71,110,0
512.1857,512.37244,67,124,0
512.38055,512.46985,64,110,0
512.47797,512.6647,65,110,0
512.6728,512.762,67,110,0
512.1857,512.95685,76,122,0
512.96497,513.05426,73,110,0
513.0624,513.2491,74,110,0
513.2572,513.34644,76,110,0
512.77014,513.54126,69,123,0
513.5494,513.6387,65,110,0
513.6468,513.8335,67,110,0
513.8416,513.9309,69,110,0
513.35455,514.1257,77,127,0
513.93896,514.1257,71,122,0
514.1338,514.2231,73,110,0
514.1338,514.2231,70,110,0
514.2312,514.4179,74,110,0
514.2312,514.4179,71,110,0
514.426,514.5153,76,110,0
514.426,514.5153,72,110,0
514.52344,515.09973,71,123,0
514.52344,515.2945,74,123,0
515.3026,515.3919,73,110,0
515.4,515.58673,74,110,0
515.59485,515.68414,76,110,0
515.10785,515.8789,67,110,0
515.887,515.9763,69,110,0
515.98444,516.17114,71,110,0
516.17926,516.26855,72,110,0
515.69226,516.4633,74,123,0
516.47144,516.5607,76,110,0
516.56885,516.75555,77,110,0
516.2767,516.85297,71,110,0
516.7637,516.85297,78,110,0
517.05585,517.14514,76,110,0
517.15326,517.33997,74,110,0
517.3481,517.4374,72,110,0
516.8611,517.6322,79,124,0
517.4455,517.6322,74,110,0
517.6403,517.72955,81,110,0
517.6403,517.9244,74,110,0
517.7377,517.9244,79,110,0
517.9325,518.0218,81,110,0
517.9325,518.2166,74,110,0
518.0299,518.2166,79,110,0
518.22473,518.31396,77,110,0
518.22473,518.31396,74,110,0
518.22473,518.5088,67,110,0
518.3221,518.5088,76,110,0
518.5169,518.6062,77,110,0
518.5169,518.6062,74,110,0
518.5169,518.82886,67,110,0
518.6143,518.82886,76,80,0
518.95013,519.173,64,80,0
518.95013,519.173,59,80,0
519.304,519.5359,55,80,0
519.54596,519.66656,57,80,0
519.67755,519.9466,55,80,0
519.304,520.0966,60,80,0
519.9591,520.0966,53,80,0
520.10913,520.6638,60,70,0
520.10913,520.6638,52,70,0
520.67163,521.7888,60,70,0
520.67163,521.7888,52,70,0
520.67163,521.7888,55,70,0
522.35913,523.4763,55,70,0
522.35913,523.4763,53,70,0
522.35913,523.4763,50,70,0
522.35913,523.4763,47,70,0
524.04663,525.1638,55,70,0
524.04663,525.1638,53,70,0
524.04663,525.1638,50,70,0
524.04663,525.1638,47,70,0
525.73413,526.8513,62,70,0
525.73413,526.8513,59,70,0
525.73413,526.8513,55,70,0
525.73413,526.8513,53,70,0
527.42163,527.9763,53,73,0
527.42163,527.9763,50,73,0
527.42163,528.5388,55,73,0
527.98413,528.5388,52,66,0
527.98413,528.5388,48,66,0
529.10913,530.2263,55,80,0
529.10913,530.2263,52,80,0
529.10913,530.2263,48,80,0
530.79663,531.9138,53,80,0
530.79663,531.9138,50,80,0
530.79663,531.9138,55,80,0
532.48413,533.0388,54,80,0
532.48413,533.0388,51,80,0
532.48413,533.6013,55,80,0
533.04663,533.6013,52,70,0
534.17163,535.2888,64,80,0
534.17163,535.2888,55,80,0
534.17163,535.2888,52,80,0
535.85913,536.9763,60,80,0
535.85913,536.9763,57,80,0
535.85913,536.9763,54,80,0
535.85913,536.9763,51,80,0
537.54663,538.6638,60,80,0
537.54663,538.6638,56,80,0
537.54663,538.6638,53,80,0
537.54663,538.6638,50,80,0
539.23413,540.3513,59,80,0
539.23413,540.3513,57,80,0
539.23413,540.3513,53,80,0
539.23413,540.3513,50,80,0
540.92163,542.0388,59,80,0
540.92163,542.0388,55,80,0
540.92163,542.0388,53,80,0
540.92163,542.0388,50,80,0
542.60913,543.1638,54,80,0
542.60913,543.1638,51,80,0
542.60913,543.7263,60,80,0
543.17163,543.7263,55,70,0
543.17163,543.7263,52,70,0
544.29663,544.8513,59,80,0
544.29663,545.4138,55,80,0
544.29663,545.4138,64,80,0
544.85913,545.4138,60,70,0
545.98413,547.1013,67,80,0
545.98413,547.1013,64,80,0
545.98413,547.1013,61,80,0
545.98413,547.1013,58,80,0
547.67163,548.7888,67,80,0
547.67163,548.7888,64,80,0
547.67163,548.7888,61,80,0
547.67163,548.7888,58,80,0
549.35913,550.4763,65,80,0
549.35913,550.4763,60,80,0
549.35913,550.4763,53,80,0
551.04663,552.1638,62,80,0
551.04663,552.1638,56,80,0
551.04663,552.1638,53,80,0
552.73413,553.2888,56,80,0
552.73413,553.8513,59,80,0
552.73413,553.8513,53,80,0
553.29663,553.8513,55,70,0
554.42163,554.9763,53,80,0
554.42163,555.5388,60,80,0
554.42163,555.5388,55,80,0
554.98413,555.5388,52,70,0
556.10913,556.6638,62,80,0
556.10913,556.6638,55,80,0
556.10913,557.2263,53,80,0
556.67163,557.2263,55,70,0
556.67163,557.2263,50,70,0
557.23413,557.37994,55,80,0
557.40076,557.54663,57,80,0
557.56744,557.71326,59,80,0
557.73413,557.87085,60,80,0
557.8904,558.0271,62,80,0
558.04663,558.18335,64,80,0
558.2029,558.3279,65,80,0
558.3457,558.4707,67,80,0
558.4886,558.6136,69,80,0
558.6314,558.7497,71,80,0
558.76654,558.8848,72,80,0
558.9017,559.01996,74,80,0
559.0368,559.1551,76,80,0
559.17194,559.2902,77,80,0
559.3071,559.42535,79,80,0
559.44226,559.5605,81,80,0
559.5774,559.6956,79,80,0
559.7125,559.83075,83,80,0
559.84766,559.9449,84,70,0
559.95874,560.05597,86,70,0
560.0699,560.1671,84,70,0
560.18097,560.2782,83,70,0
560.2921,560.3893,84,70,0
560.4032,560.5004,83,70,0
560.5143,560.6115,84,70,0
560.6254,560.72266,86,70,0
560.7365,560.83374,84,70,0
560.84766,560.9449,79,70,0
560.95874,561.05597,81,70,0
561.0699,561.1671,79,70,0
561.18097,561.2782,78,70,0
561.2921,561.3893,79,70,0
561.4032,561.5004,78,70,0
561.5143,561.6115,79,70,0
561.6254,561.72266,81,70,0
561.7365,561.83374,79,70,0
561.84766,561.9449,78,70,0
561.95874,562.05597,79,70,0
562.0699,562.1671,78,70,0
562.18097,562.2782,79,70,0
562.2921,562.3893,81,70,0
562.4032,562.5004,79,70,0
562.5143,562.6115,85,70,0
562.6254,562.72266,86,70,0
562.7365,562.83374,85,70,0
562.84766,562.9449,86,70,0
562.95874,563.05597,88,70,0
563.0699,563.1671,86,70,0
563.18097,563.2782,85,70,0
563.2921,563.3893,86,70,0
563.4032,563.5004,85,70,0
563.5143,563.6115,86,70,0
563.6254,563.72266,88,70,0
563.7365,563.83374,86,70,0
563.84766,563.9449,85,70,0
563.95874,564.05597,86,70,0
564.0699,564.1671,85,70,0
564.18097,564.2782,86,70,0
564.2921,564.3893,88,70,0
564.4032,564.5004,86,70,0
564.5143,564.6115,79,70,0
564.6254,564.72266,81,70,0
564.7365,564.83374,79,70,0
564.84766,564.9449,81,70,0
564.95874,565.05597,83,70,0
565.0699,565.1671,81,70,0
565.18097,565.2782,79,70,0
565.2921,565.3893,81,70,0
565.4032,565.5004,79,70,0
565.5143,565.6115,83,70,0
565.6254,565.72266,84,70,0
565.7365,565.83374,83,70,0
565.84766,565.9449,84,70,0
565.95874,566.05597,86,70,0
566.0699,566.1671,84,70,0
566.18097,566.2782,86,70,0
566.2921,566.3893,88,70,0
566.4032,566.5004,86,70,0
566.5143,566.6115,87,70,0
566.6254,566.72266,88,70,0
566.7365,566.83374,87,70,0
566.84766,566.9449,88,70,0
566.95874,567.05597,81,70,0
567.0699,567.1671,79,70,0
567.18097,567.2782,78,70,0
567.2921,567.3893,81,70,0
567.4032,567.5004,79,70,0
567.5143,567.6115,78,70,0
567.6254,567.72266,81,70,0
567.7365,567.83374,79,70,0
567.84766,567.9449,77,70,0
567.95874,568.05597,79,70,0
568.0699,568.16705,80,70,0
568.18097,568.28516,81,70,0
568.30005,568.4042,82,70,0
568.41907,568.52325,83,70,0
568.5381,568.64746,84,70,0
568.6631,568.77246,85,70,0
568.7881,568.89746,86,70,0
568.9131,569.0103,88,70,0
569.02423,569.12146,89,70,0
569.1353,569.23254,88,70,0
569.24646,569.3437,86,70,0
569.35754,569.4548,88,70,0
569.4687,569.5659,86,70,0
569.5798,569.677,84,70,0
569.6909,569.7881,86,70,0
569.802,569.89923,84,70,0
569.9131,570.0103,83,70,0
570.02423,570.12146,86,70,0
570.1353,570.23254,84,70,0
570.24646,570.3437,82,70,0
570.35754,570.4548,84,70,0
570.4687,570.5659,83,70,0
570.5798,570.677,84,70,0
570.6909,570.7881,86,70,0
570.802,570.89923,84,70,0
570.9131,571.0103,83,70,0
571.02423,571.12146,84,70,0
571.1353,571.23254,83,70,0
571.24646,571.3437,82,70,0
571.35754,571.4548,83,70,0
571.4687,571.5659,82,70,0
571.5798,571.677,83,70,0
571.6909,571.7881,84,70,0
571.802,571.89923,83,70,0
571.9131,572.0103,85,70,0
572.02423,572.12146,88,70,0
572.1353,572.23254,86,70,0
572.24646,572.3437,88,70,0
572.35754,572.4548,89,70,0
572.4687,572.5659,88,70,0
572.5798,572.677,89,70,0
572.6909,572.7881,91,70,0
572.802,572.89923,89,70,0
572.9131,573.0103,79,70,0
573.02423,573.12146,91,70,0
573.1353,573.23254,79,70,0
573.24646,573.3437,84,70,0
573.35754,573.4548,91,70,0
573.47217,573.56934,84,70,0
573.5798,573.677,83,70,0
573.6909,573.7881,91,70,0
573.802,573.89923,83,70,0
573.9131,574.0103,84,70,0
574.02423,574.12146,91,70,0
574.1353,574.23254,86,70,0
574.24646,574.3437,87,70,0
574.35754,574.4548,91,70,0
574.4687,574.5659,88,70,0
574.5798,574.677,89,70,0
574.6909,574.7881,91,70,0
574.802,574.89923,90,70,0
574.9131,575.0103,91,70,0
575.02423,575.12146,93,70,0
575.1353,575.23254,90,70,0
575.24646,575.3437,91,70,0
575.35754,575.4548,90,70,0
575.4687,575.5659,91,70,0
575.5798,575.677,85,70,0
575.6909,575.7881,93,70,0
575.802,575.89923,91,70,0
575.9131,576.0103,85,70,0
576.02423,576.12146,93,70,0
576.1353,576.23254,91,70,0
576.24646,576.3437,85,70,0
576.35754,576.4548,89,70,0
576.4687,576.5659,88,70,0
576.5798,576.677,85,70,0
576.6909,576.7881,93,70,0
576.802,576.89923,91,70,0
576.9131,577.0103,85,70,0
577.02423,577.12146,93,70,0
577.1353,577.23254,91,70,0
577.24646,577.3437,86,70,0
577.35754,577.4548,91,70,0
577.4687,577.5659,89,70,0
577.5798,577.677,81,70,0
577.6909,577.7881,88,70,0
577.802,577.89923,86,70,0
577.9131,578.0103,80,70,0
578.02423,578.12146,88,70,0
578.1353,578.23254,86,70,0
578.24646,578.3437,79,70,0
578.35754,578.4548,88,70,0
578.4687,578.5659,86,70,0
578.5798,578.677,79,70,0
578.6909,578.7881,86,70,0
578.802,578.89923,84,70,0
578.9131,579.0103,79,70,0
579.02423,579.12146,86,70,0
579.1353,579.23254,84,70,0
579.24646,579.3437,77,70,0
579.35754,579.4548,84,70,0
579.4687,579.5659,83,70,0
579.5798,579.677,79,70,0
579.6909,579.7881,86,70,0
579.802,579.89923,84,70,0
579.9131,580.0103,79,70,0
580.02423,580.12146,86,70,0
580.1353,580.23254,84,70,0
580.24646,580.3437,79,70,0
580.35754,580.4548,86,70,0
580.4687,580.5659,85,70,0
580.5798,580.677,81,70,0
580.6909,580.7881,88,70,0
580.802,580.89923,86,70,0
580.9131,581.0103,81,70,0
581.02423,581.12146,88,70,0
581.1353,581.23254,86,70,0
581.24646,581.3437,83,70,0
581.35754,581.4548,88,70,0
581.4687,581.5659,86,70,0
581.5798,581.677,85,70,0
581.6909,581.7881,86,70,0
581.802,581.89923,79,70,0
581.9131,582.0103,81,70,0
582.02423,582.12146,78,70,0
582.1353,582.23254,79,70,0
582.24646,582.3437,81,70,0
582.35754,582.4548,78,70,0
582.4687,582.5659,79,70,0
582.5798,582.677,81,70,0
582.6909,582.7881,78,70,0
582.802,582.89923,79,70,0
582.9131,583.0103,81,70,0
583.02423,583.12146,78,70,0
583.1353,583.23254,79,70,0
583.24646,583.3437,81,70,0
583.35754,583.4548,78,70,0
583.4687,583.5659,79,70,0
583.5798,583.677,81,70,0
583.6909,583.7881,80,70,0
583.802,583.89923,88,70,0
583.9131,584.0173,83,70,0
584.03217,584.13855,81,70,0
584.1542,584.26355,88,70,0
584.2792,584.3974,84,70,0
584.4143,584.53546,83,70,0
584.5533,584.6783,88,70,0
585.6053,586.0409,59,70,0
585.6053,586.4954,60,70,0
586.0598,586.4954,57,60,0
586.9689,587.4045,59,70,0
586.9689,587.8591,60,70,0
587.42346,587.8591,57,60,0
588.3325,588.7681,59,70,0
588.3325,589.22266,60,70,0
588.78705,589.22266,57,60,0
589.69617,590.1318,57,70,0
589.69617,590.5863,59,70,0
590.1507,590.5863,56,60,0
591.0598,591.4954,57,70,0
591.0598,591.94995,59,70,0
591.51434,591.94995,56,60,0
592.42346,592.8591,57,70,0
592.42346,593.3136,64,70,0
592.42346,593.3136,59,70,0
592.878,593.3136,56,60,0
593.78705,594.22266,56,70,0
593.78705,594.67725,64,70,0
593.78705,594.67725,60,70,0
594.24164,594.67725,57,60,0
595.1507,595.5863,55,70,0
595.1507,596.0409,64,70,0
595.1507,596.0409,60,70,0
595.6053,596.0409,57,60,0
596.51434,596.94995,62,70,0
596.51434,596.94995,59,70,0
596.9689,597.4045,60,60,0
596.9689,597.4045,57,60,0
597.878,598.7681,60,70,0
597.878,598.7681,57,70,0
597.878,598.7681,54,70,0
597.878,598.7681,51,70,0
599.24164,600.1318,59,70,0
599.24164,600.1318,56,70,0
599.24164,600.1318,53,70,0
599.24164,600.1318,50,70,0
600.6052,601.4954,60,70,0
600.6052,601.4954,57,70,0
600.6052,601.4954,52,70,0
601.9689,602.4045,60,70,0
601.9689,602.8591,62,70,0
601.9689,602.8591,53,70,0
602.42346,602.8591,59,60,0
603.3325,603.7681,48,70,0
603.3325,604.22266,50,70,0
603.78705,604.22266,47,60,0
604.69617,605.1318,60,70,0
604.69617,605.5863,62,70,0
604.69617,605.5863,53,70,0
605.1507,605.5863,59,60,0
606.0598,606.4954,62,70,0
606.0598,606.94995,64,70,0
606.0598,606.94995,55,70,0
606.51434,606.94995,60,60,0
607.42346,607.8591,50,70,0
607.42346,608.3136,52,70,0
607.878,608.3136,48,60,0
608.78705,609.22266,56,70,0
608.78705,609.67725,65,70,0
608.78705,609.67725,62,70,0
608.78705,609.67725,59,70,0
609.24164,609.67725,55,60,0
610.1507,610.5863,48,70,0
610.1507,611.04083,50,70,0
610.6052,611.04083,47,60,0
611.51434,611.94995,48,70,0
611.51434,612.4045,55,70,0
611.51434,612.4045,50,70,0
611.9689,612.4045,47,60,0
612.878,613.3136,60,70,0
612.878,613.7681,67,70,0
612.878,613.7681,62,70,0
613.3325,613.7681,59,60,0
614.24164,614.67725,55,70,0
614.24164,614.67725,50,70,0
614.24164,614.67725,47,70,0
614.69617,615.1318,52,60,0
614.69617,615.1318,48,60,0
615.6052,616.04083,64,70,0
615.6052,616.04083,60,70,0
616.0598,616.4954,52,70,0
616.9689,617.4045,76,70,0
616.9689,617.4045,74,70,0
617.4234,617.859,64,70,0
617.4234,617.859,62,70,0
617.878,618.19745,76,70,0
617.878,618.19745,72,70,0
617.878,618.19745,64,70,0
618.2113,618.30853,84,70,0
618.32245,618.4196,86,70,0
618.43353,618.53076,83,70,0
618.5446,618.64185,84,70,0
618.65576,618.753,83,70,0
618.76685,618.8641,81,70,0
618.878,618.9752,80,70,0
618.9891,619.0863,81,70,0
619.1002,619.19745,83,70,0
619.2113,619.30853,81,70,0
619.32245,619.4196,83,70,0
619.43353,619.53076,84,70,0
619.5446,619.64185,83,70,0
619.65576,619.753,84,70,0
619.76685,619.8641,86,70,0
619.878,619.9752,84,70,0
619.9891,620.0863,86,70,0
620.1002,620.19745,84,70,0
620.2113,620.30853,83,70,0
620.32245,620.4196,84,70,0
620.43353,620.53076,86,70,0
620.5446,620.64185,84,70,0
620.65576,620.753,83,70,0
620.76685,620.8641,81,70,0
620.878,620.9752,83,70,0
620.9891,621.0863,84,70,0
621.1002,621.1974,86,70,0
621.2113,621.30853,84,70,0
621.3224,621.4196,83,70,0
621.43353,621.53076,81,70,0
621.5446,621.64185,80,70,0
621.65576,621.753,81,70,0
621.76685,621.8641,83,70,0
621.878,621.9752,80,70,0
621.9891,622.0863,81,70,0
622.1002,622.1974,83,70,0
622.2113,622.30853,81,70,0
622.3224,622.4196,83,70,0
622.43353,622.53076,84,70,0
622.5446,622.64185,83,70,0
622.65576,622.753,84,70,0
622.76685,622.8641,86,70,0
622.878,622.9752,83,70,0
622.9891,623.0863,84,70,0
623.1002,623.1974,86,70,0
623.2113,623.30853,89,70,0
623.3224,623.4196,88,70,0
623.43353,623.53076,86,70,0
623.5446,623.64185,84,70,0
623.65576,623.753,83,70,0
623.76685,623.8641,88,70,0
623.878,623.9752,81,70,0
623.9891,624.0863,80,70,0
624.1002,624.1974,88,70,0
624.2113,624.30853,83,70,0
624.3224,624.4196,81,70,0
624.43353,624.53076,88,70,0
624.5446,624.64185,84,70,0
624.65576,624.753,83,70,0
624.76685,624.8641,88,70,0
624.878,624.9752,86,70,0
624.9891,625.0863,84,70,0
625.1002,625.1974,88,70,0
625.2113,625.30853,84,70,0
625.3224,625.4196,83,70,0
625.43353,625.53076,88,70,0
625.5446,625.64185,86,70,0
625.65576,625.753,84,70,0
625.76685,625.8641,88,70,0
625.878,625.9752,86,70,0
625.9891,626.0863,84,70,0
626.1002,626.1974,88,70,0
626.2113,626.30853,84,70,0
626.3224,626.4196,83,70,0
626.43353,626.53076,86,70,0
626.5446,626.64185,83,70,0
626.65576,626.753,81,70,0
626.76685,626.8641,84,70,0
626.878,626.9752,83,70,0
626.9891,627.0863,81,70,0
627.1002,627.1974,84,70,0
627.2113,627.30853,83,70,0
627.3224,627.4196,86,70,0
627.43353,627.53076,84,70,0
627.5446,627.64185,83,70,0
627.65576,627.753,81,70,0
627.76685,627.8641,86,70,0
627.878,627.9752,81,70,0
627.9891,628.0863,80,70,0
628.1002,628.1974,83,70,0
628.2113,628.30853,81,70,0
628.3224,628.4196,84,70,0
628.43353,628.53076,83,70,0
628.5446,628.64185,81,70,0
628.65576,628.753,80,70,0
628.76685,628.8641,83,70,0
628.878,628.9752,84,70,0
628.9891,629.0863,86,70,0
629.1002,629.1974,84,70,0
629.2113,629.30853,83,70,0
629.3224,629.4196,84,70,0
629.43353,629.53076,83,70,0
629.5446,629.64185,84,70,0
629.65576,629.753,86,70,0
629.76685,629.8641,84,70,0
629.878,629.9752,86,70,0
629.9891,630.0863,88,70,0
630.1002,630.1974,85,70,0
630.2113,630.30853,86,70,0
630.3224,630.4196,83,70,0
630.43353,630.53076,84,70,0
630.5446,630.64185,82,70,0
630.65576,630.753,83,70,0
630.76685,630.8641,81,70,0
630.878,630.9752,83,70,0
630.9891,631.0863,81,70,0
631.1002,631.1974,84,70,0
631.2113,631.30853,83,70,0
631.3224,631.4196,86,70,0
631.43353,631.53076,84,70,0
631.5446,631.64185,86,70,0
631.65576,631.753,85,70,0
631.76685,631.8641,87,70,0
631.878,631.9752,86,70,0
631.9891,632.0863,88,70,0
632.1002,632.1974,86,70,0
632.2113,632.30853,89,70,0
632.3224,632.4196,86,70,0
632.43353,632.53076,88,70,0
632.5446,632.64185,87,70,0
632.65576,632.753,89,70,0
632.76685,632.8641,87,70,0
632.878,632.9752,88,70,0
632.9891,633.0863,89,70,0
633.1002,633.1974,87,70,0
633.2113,633.30853,88,70,0
633.3224,633.4196,85,70,0
633.43353,633.53076,86,70,0
633.5446,633.64185,83,70,0
633.65576,633.753,86,70,0
633.76685,633.8641,84,70,0
633.878,633.9752,86,70,0
633.9891,634.0863,88,70,0
634.1002,634.1974,86,70,0
634.2113,634.30853,88,70,0
634.3224,634.4196,89,70,0
634.43353,634.53076,88,70,0
634.5446,634.64185,89,70,0
634.65576,634.753,87,70,0
634.76685,634.8641,88,70,0
634.878,634.9752,89,70,0
634.9891,635.0863,91,70,0
635.1002,635.1974,88,70,0
635.2113,635.3155,89,70,0
635.3303,635.4345,88,70,0
635.4494,635.5536,89,70,0
635.5684,635.6778,88,70,0
635.6934,635.8028,91,70,0
635.8184,635.9278,89,70,0
635.9434,636.0476,86,70,0
636.0625,636.1637,89,70,0
636.17755,636.2748,86,70,0
636.2887,636.3859,89,70,0
636.3998,636.497,86,70,0
636.5109,636.60815,89,70,0
636.622,636.71924,86,70,0
636.73315,636.8303,89,70,0
636.84424,636.94147,86,70,0
636.9553,637.05255,89,70,0
637.06647,637.1637,86,70,0
637.17755,637.2748,89,70,0
637.2887,637.3859,86,70,0
637.3998,637.497,90,70,0
637.5109,637.60815,86,70,0
637.622,637.71924,90,70,0
637.73315,637.8303,86,70,0
637.84424,637.94147,90,70,0
637.9553,638.05255,86,70,0
638.06647,638.1637,90,70,0
638.17755,638.2748,86,70,0
638.2887,638.3859,91,70,0
638.3998,638.497,86,70,0
638.5109,638.60815,91,70,0
638.622,638.71924,86,70,0
638.73315,638.8303,91,70,0
638.84424,638.94147,86,70,0
638.9553,639.05255,91,70,0
639.06647,639.1637,86,70,0
639.17755,639.2748,91,70,0
639.2887,639.3859,89,70,0
639.3998,639.497,91,70,0
639.5109,639.60815,86,70,0
639.622,639.71924,89,70,0
639.73315,639.8303,86,70,0
639.84424,639.94147,88,70,0
639.9553,640.05255,91,70,0
640.06647,640.1637,89,70,0
640.17755,640.2748,88,70,0
640.2887,640.3859,89,70,0
640.3998,640.497,88,70,0
640.5109,640.60815,86,70,0
640.622,640.71924,89,70,0
640.73315,640.8303,88,70,0
640.84424,640.94147,84,70,0
640.9553,641.05255,91,70,0
641.06647,641.1637,89,70,0
641.17755,641.2748,88,70,0
641.2887,641.3859,89,70,0
641.3998,641.497,88,70,0
641.5109,641.60815,86,70,0
641.622,641.71924,89,70,0
641.73315,641.8303,88,70,0
641.84424,641.94147,84,70,0
641.9553,642.05255,89,70,0
642.06647,642.1637,88,70,0
642.17755,642.2748,86,70,0
642.2887,642.3859,88,70,0
642.3998,642.497,86,70,0
642.5109,642.60815,83,70,0
642.622,642.71924,86,70,0
642.73315,642.8303,84,70,0
642.84424,642.94147,83,70,0
642.9553,643.05255,89,70,0
643.06647,643.1637,88,70,0
643.17755,643.2748,86,70,0
643.2887,643.3859,88,70,0
643.3998,643.497,86,70,0
643.5109,643.60815,83,70,0
643.622,643.71924,86,70,0
643.73315,643.8303,84,70,0
643.84424,643.94147,83,70,0
643.9553,644.05255,89,70,0
644.06647,644.1637,88,70,0
644.17755,644.2748,86,70,0
644.2887,644.3928,88,70,0
644.4077,644.5119,86,70,0
644.5268,644.6309,83,70,0
644.6458,644.7552,86,70,0
644.7708,644.8802,84,70,0
644.8958,645.0052,83,70,0
645.0208,645.1275,91,70,0
645.14276,645.2474,89,70,0
645.2619,645.36365,88,70,0
645.3782,645.4799,89,70,0
645.49445,645.5962,88,70,0
645.6107,645.71246,86,70,0
645.727,645.8312,89,70,0
645.84607,645.95624,88,70,0
645.97314,646.0914,84,70,0
647.21277,647.31696,79,70,0
647.3318,647.436,77,70,0
647.45087,647.55505,76,70,0
647.5699,647.6741,77,70,0
647.68896,647.79315,76,70,0
647.808,647.9122,74,70,0
647.92706,648.03125,77,70,0
648.0461,648.15027,76,70,0
648.16516,648.2693,72,70,0
648.2842,648.38837,77,70,0
648.40326,648.5074,76,70,0
648.5223,648.62646,74,70,0
648.64136,648.7455,76,70,0
648.7604,648.86456,74,70,0
648.87946,648.9836,71,70,0
648.9985,649.10266,74,70,0
649.11755,649.2217,72,70,0
649.2366,649.34076,71,70,0
649.35565,649.4598,77,70,0
649.4747,649.57886,76,70,0
649.59375,649.6979,74,70,0
649.71277,649.81696,76,70,0
649.8318,649.936,74,70,0
649.95087,650.05505,71,70,0
650.0699,650.1741,74,70,0
650.18896,650.29315,72,70,0
650.308,650.4122,71,70,0
650.42706,650.53375,77,70,0
650.549,650.6557,76,70,0
650.67096,650.77765,74,70,0
650.7929,650.9023,76,70,0
650.9179,651.0273,74,70,0
651.0429,651.1523,71,70,0
651.1679,651.283,74,70,0
651.2995,651.41595,72,70,0
651.43286,651.5511,71,70,0
652.7234,653.7978,76,70,0
652.7234,653.7978,72,70,0
653.8127,655.8226,72,75,0
653.8127,655.8226,76,75,0
655.8365,656.8226,88,85,0
655.8365,656.8226,84,85,0
655.8365,656.8226,76,85,0
656.8365,657.8226,88,91,0
656.8365,657.8226,84,91,0
656.8365,657.8226,76,91,0
657.8365,658.8226,88,96,0
657.8365,658.8226,84,96,0
657.8365,658.8226,76,96,0
658.8365,659.8226,89,101,0
658.8365,659.8226,86,101,0
658.8365,659.8226,77,101,0
659.8365,660.6255,86,107,0
659.8365,660.6255,83,107,0
659.8365,660.6255,74,107,0
660.813,660.9588,33,110,0
660.9797,661.1255,35,110,0
660.6463,661.2646,31,110,0
661.1463,661.6559,36,110,0
661.28143,661.77496,40,110,0
661.41656,661.894,43,110,0
661.9089,662.3394,60,110,0
662.01996,662.45056,64,110,0
662.1311,662.56165,67,110,0
662.2422,662.6727,72,110,0
662.35333,662.7839,76,110,0
662.57556,662.7839,76,110,0
662.4644,662.89496,79,110,0
662.68665,662.89496,79,110,0
662.8012,663.2318,84,110,0
662.9089,663.3464,88,110,0
663.36127,663.4654,83,110,0
663.4803,663.5845,84,110,0
663.59937,663.70874,86,110,0
663.72437,663.83374,83,110,0
663.84937,663.95874,84,110,0
663.97437,664.09937,88,110,0
664.1172,664.2422,83,110,0
664.2601,664.3851,84,110,0
665.59406,666.0246,69,110,0
665.70514,666.1357,72,110,0
665.92737,666.1357,72,110,0
665.8163,666.2468,76,110,0
666.03845,666.2468,76,110,0
666.2607,666.48395,76,110,0
666.1496,666.5881,81,110,0
666.35,666.5881,81,110,0
666.4393,666.6067,84,110,0
666.52856,666.6921,88,110,0
666.74286,666.85223,83,110,0
666.86786,666.97723,84,110,0
666.99286,667.1111,76,110,0
667.128,667.2462,83,110,0
667.26733,667.38556,84,110,0
667.39825,667.535,88,110,0
667.5545,667.6912,83,110,0
667.71075,667.8475,84,110,0
668.2724,668.7568,88,110,0
668.6474,668.7568,88,110,0
668.3974,668.8818,84,110,0
668.7724,668.8818,84,110,0
668.5224,669.0068,76,110,0
668.8974,669.0068,76,110,0
669.3974,669.8818,89,110,0
669.7724,669.8818,89,110,0
669.5224,670.0068,86,110,0
669.8974,670.0068,86,110,0
669.6513,670.1357,77,110,0
670.0263,670.1357,77,110,0
670.1474,670.2568,88,110,0
670.2724,670.3818,84,110,0
670.3974,670.5068,76,110,0
670.5224,670.6406,89,110,0
670.65753,670.77576,86,110,0
670.79266,670.91095,77,110,0
670.9278,671.0528,86,110,0
671.0707,671.2046,83,110,0
671.2254,671.3713,74,110,0
671.3921,671.5707,73,110,0
671.49927,671.67395,74,110,0
671.6064,671.7753,76,110,0
671.70776,671.8749,74,110,0
671.8091,671.9736,76,110,0
671.9078,672.069,74,110,0
672.0065,672.1627,76,110,0
672.1002,672.2565,74,110,0
672.194,672.3502,76,110,0
672.2877,672.444,74,110,0
672.3815,672.5377,76,110,0
672.4752,672.6315,74,110,0
672.569,672.7252,76,110,0
672.6627,672.819,74,110,0
672.7565,672.9127,76,110,0
672.8502,673.0065,74,110,0
672.944,673.1002,76,110,0
673.0377,673.194,74,110,0
673.1315,673.2877,76,110,0
673.2252,673.3815,74,110,0
673.319,673.4752,76,110,0
673.4127,673.569,74,110,0
673.5065,673.6627,76,110,0
673.6002,673.7565,74,110,0
673.694,673.8502,76,110,0
673.7877,673.944,74,110,0
673.8815,674.0377,76,110,0
673.9752,674.1315,74,110,0
674.069,674.2252,76,110,0
674.1627,674.319,74,110,0
674.2565,674.4127,76,110,0
674.3502,674.5065,74,110,0
674.444,674.6002,76,110,0
674.5377,674.694,74,110,0
674.6315,674.7877,76,110,0
674.7252,674.8815,74,110,0
674.819,674.9752,76,110,0
674.9127,675.069,74,110,0
675.0065,675.1627,76,110,0
675.1002,675.2565,74,110,0
675.194,675.3502,76,110,0
675.2877,675.444,74,110,0
675.3815,675.5377,76,110,0
675.4752,675.6315,74,110,0
675.569,675.7252,76,110,0
675.6627,675.819,74,110,0
675.7565,675.9127,76,110,0
675.8502,676.0065,74,110,0
675.944,676.1002,76,110,0
676.0377,676.194,74,110,0
676.1315,676.2877,76,110,0
676.2252,676.3815,74,110,0
676.319,676.4752,76,110,0
676.4127,676.569,74,110,0
676.5065,676.6627,76,104,0
676.6002,676.7565,74,98,0
676.694,676.8502,76,92,0
676.7877,676.944,74,86,0
676.8815,677.0377,76,80,0
676.9752,677.1315,74,80,0
677.069,677.2252,76,80,0
677.1627,677.319,74,80,0
677.2565,677.4127,76,80,0
677.3502,677.5065,74,80,0
677.444,677.6002,76,80,0
677.5377,677.694,74,80,0
677.6315,677.7877,76,80,0
677.069,677.80334,81,80,0
677.7252,677.8815,74,80,0
677.819,677.9752,76,80,0
677.9127,678.069,74,80,0
678.0065,678.1627,76,80,0
677.819,678.17834,79,80,0
678.1002,678.2565,74,80,0
678.194,678.3502,76,80,0
678.2877,678.444,74,80,0
678.3815,678.5377,76,80,0
678.4752,678.6315,74,80,0
678.569,678.7252,76,80,0
678.6627,678.819,74,80,0
678.7565,678.9127,76,80,0
678.8502,679.0065,74,80,0
678.944,679.1002,76,80,0
679.0377,679.194,74,80,0
679.1315,679.2877,76,80,0
679.2252,679.3815,74,80,0
679.319,679.4752,75,80,0
679.4127,679.569,74,80,0
679.5065,679.6627,75,80,0
679.6002,679.7565,74,80,0
679.694,679.8502,75,80,0
679.7877,679.944,74,80,0
679.8815,680.0377,75,80,0
679.9752,680.1315,74,80,0
680.069,680.2252,75,80,0
680.1627,680.319,74,80,0
680.2565,680.4127,75,80,0
678.194,680.42834,79,80,0
680.3502,680.5065,74,80,0
680.444,680.6002,75,80,0
680.5377,680.694,74,80,0
680.6315,680.7877,75,80,0
680.7252,680.8815,74,80,0
680.819,680.9752,75,80,0
680.9127,681.069,74,80,0
681.0065,681.1627,75,80,0
680.444,681.17834,80,80,0
681.1002,681.2565,74,80,0
681.194,681.3502,75,80,0
681.2877,681.444,74,80,0
681.3815,681.5377,75,80,0
681.194,681.55334,79,80,0
681.4752,681.6315,74,80,0
681.569,681.7252,75,80,0
681.6627,681.819,74,80,0
681.7565,681.9127,75,80,0
681.8502,682.0065,74,80,0
681.944,682.1002,75,80,0
682.0377,682.194,74,80,0
682.1315,682.2877,75,80,0
681.569,682.30334,79,80,0
682.2252,682.3815,74,80,0
682.319,682.4752,75,80,0
682.4127,682.569,74,80,0
682.5065,682.6627,75,80,0
682.6002,682.7565,74,80,0
682.694,682.8502,75,80,0
682.7877,682.944,74,80,0
682.8815,683.0377,75,80,0
682.9752,683.1315,74,80,0
683.069,683.2252,75,80,0
683.1627,683.319,74,80,0
683.2565,683.4127,75,80,0
682.694,683.42834,79,80,0
683.3502,683.5065,74,80,0
683.444,683.6002,75,80,0
683.5377,683.694,74,80,0
683.6315,683.7877,75,80,0
683.7252,683.88477,74,80,0
683.819,683.9834,75,80,0
683.91766,684.0821,74,80,0
684.0163,684.1808,75,80,0
684.115,684.2795,74,80,0
684.2137,684.3782,75,80,0
684.3124,684.47687,74,80,0
684.4111,684.57556,75,80,0
683.819,684.592,79,80,0
684.50977,684.6742,74,80,0
684.6084,684.7729,75,80,0
684.7071,684.8716,74,80,0
684.8058,684.9703,75,80,0
684.9045,685.07074,74,80,0
685.0032,685.17206,75,80,0
685.1045,685.27344,74,80,0
685.2059,685.37476,75,80,0
685.3072,685.47614,74,80,0
685.40857,685.5775,75,80,0
685.50995,685.67883,74,80,0
685.61127,685.7802,75,80,0
685.71265,685.88153,74,80,0
685.81396,685.9829,75,80,0
685.91534,686.0842,74,80,0
686.01666,686.1856,75,80,0
685.0032,686.2025,79,80,0
686.11804,686.2869,74,80,0
686.21936,686.3883,75,80,0
686.32074,686.4896,74,80,0
686.42206,686.591,75,80,0
686.52344,686.6924,74,80,0
686.62476,686.7937,75,80,0
686.72614,686.8951,74,80,0
686.8275,686.9964,75,80,0
686.92883,687.0978,74,80,0
687.0302,687.1991,75,80,0
687.13153,687.3005,74,80,0
687.2329,687.4018,75,80,0
686.21936,687.4187,80,80,0
687.3342,687.5032,74,80,0
687.4356,687.6045,75,80,0
687.5369,687.7059,74,80,0
687.6383,687.8072,75,80,0
687.7396,687.90857,74,80,0
687.841,688.00995,75,80,0
687.9424,688.11127,74,80,0
688.0437,688.21265,75,80,0
688.1451,688.31396,74,80,0
688.2464,688.41534,75,80,0
688.3478,688.51666,74,80,0
688.4491,688.61804,75,80,0
687.4356,688.63495,80,80,0
688.5505,688.7143,74,80,0
688.6518,688.80804,75,80,0
688.74554,688.9018,74,80,0
688.8393,688.99554,75,80,0
688.93304,689.0893,74,80,0
689.0268,689.18304,75,80,0
689.12054,689.2768,74,80,0
689.2143,689.37054,75,80,0
689.30804,689.4643,74,80,0
689.4018,689.55804,75,80,0
689.49554,689.6518,74,80,0
689.5893,689.74554,75,80,0
688.6518,689.76117,80,80,0
689.68304,689.8393,74,80,0
689.7768,689.93304,75,80,0
689.87054,690.0268,74,80,0
689.9643,690.12054,75,80,0
690.05804,690.2143,74,80,0
690.1518,690.30804,75,80,0
690.24554,690.4018,74,80,0
690.3393,690.49554,75,80,0
690.43304,690.5893,74,80,0
690.5268,690.68304,75,80,0
690.62054,690.7768,74,80,0
690.7143,690.87054,75,80,0
689.7768,690.88617,80,80,0
690.80804,690.9643,74,80,0
690.9018,691.05804,75,80,0
690.99554,691.1518,74,80,0
691.0893,691.24554,75,80,0
691.18304,691.3393,74,80,0
691.2768,691.43304,75,80,0
691.37054,691.5268,74,80,0
691.4643,691.62054,75,80,0
691.55804,691.7143,74,80,0
691.6518,691.80804,75,80,0
691.74554,691.9018,74,80,0
691.8393,691.99554,75,80,0
690.9018,692.01117,80,80,0
691.93304,692.0893,74,80,0
692.0268,692.18304,75,80,0
692.0268,692.18304,82,80,0
692.12054,692.2768,74,80,0
692.12054,692.2768,80,80,0
692.2143,692.37054,75,80,0
692.2143,692.37054,82,80,0
692.30804,692.4643,74,81,0
692.30804,692.4643,80,81,0
692.4018,692.55804,75,81,0
692.4018,692.55804,82,81,0
692.49554,692.6518,74,81,0
692.49554,692.6518,80,81,0
692.5893,692.74554,75,82,0
692.5893,692.74554,82,82,0
692.68304,692.8393,74,82,0
692.68304,692.8393,80,82,0
692.7768,692.93304,75,82,0
692.7768,692.93304,82,82,0
692.87054,693.0268,74,83,0
692.87054,693.0268,80,83,0
692.9643,693.12054,75,83,0
692.9643,693.12054,82,83,0
693.05804,693.2143,74,83,0
693.05804,693.2143,80,83,0
693.1518,693.30804,75,84,0
693.1518,693.30804,82,84,0
693.24554,693.4018,74,84,0
693.24554,693.4018,80,84,0
693.3393,693.49554,75,84,0
693.3393,693.49554,82,84,0
693.43304,693.5893,74,85,0
693.43304,693.5893,80,85,0
693.5268,693.68304,75,85,0
693.5268,693.68304,82,85,0
693.62054,693.7768,74,85,0
693.62054,693.7768,80,85,0
693.7143,693.87054,75,85,0
693.7143,693.87054,82,85,0
693.80804,693.9643,74,86,0
693.80804,693.9643,80,86,0
693.9018,694.05804,75,86,0
693.9018,694.05804,82,86,0
693.99554,694.1518,74,86,0
693.99554,694.1518,80,86,0
694.0893,694.24554,75,87,0
694.0893,694.24554,82,87,0
694.18304,694.3393,74,87,0
694.18304,694.3393,80,87,0
694.2768,694.43304,75,87,0
694.2768,694.43304,82,87,0
694.37054,694.5268,74,88,0
694.37054,694.5268,80,88,0
694.4643,694.62054,75,88,0
694.4643,694.62054,82,88,0
694.55804,694.7143,74,88,0
694.55804,694.7143,80,88,0
694.6518,694.80804,75,89,0
694.6518,694.80804,82,89,0
694.74554,694.9018,74,89,0
694.74554,694.9018,80,89,0
694.8393,694.99554,75,89,0
694.8393,694.99554,82,89,0
694.93304,695.0893,74,90,0
694.93304,695.0893,80,90,0
695.0268,695.18304,75,90,0
695.0268,695.18304,82,90,0
695.12054,695.2768,74,90,0
695.12054,695.2768,80,90,0
695.2143,695.37054,82,90,0
695.2143,695.37054,75,90,0
695.30804,695.4643,74,90,0
695.30804,695.4643,80,90,0
695.4018,695.55804,75,90,0
695.4018,695.55804,82,90,0
695.49554,695.6518,74,90,0
695.49554,695.6518,80,90,0
695.5893,695.74554,75,90,0
695.5893,695.74554,82,90,0
695.68304,695.8393,74,89,0
695.68304,695.8393,80,89,0
695.7768,695.93304,75,89,0
695.7768,695.93304,82,89,0
695.87054,696.0268,74,89,0
695.87054,696.0268,80,89,0
695.9643,696.12054,75,88,0
695.9643,696.12054,82,88,0
696.05804,696.2143,74,88,0
696.05804,696.2143,80,88,0
696.1518,696.30804,75,88,0
696.1518,696.30804,82,88,0
696.24554,696.4018,74,87,0
696.24554,696.4018,80,87,0
696.3393,696.49554,82,87,0
696.3393,696.49554,75,87,0
696.43304,696.5893,74,87,0
696.43304,696.5893,80,87,0
696.5268,696.68304,75,86,0
696.5268,696.68304,82,86,0
696.62054,696.7768,74,86,0
696.62054,696.7768,80,86,0
696.7143,696.87054,75,86,0
696.7143,696.87054,82,86,0
696.80804,696.9643,74,85,0
696.80804,696.9643,80,85,0
696.9018,697.05804,75,85,0
696.9018,697.05804,82,85,0
696.99554,697.1518,74,85,0
696.99554,697.1518,80,85,0
697.0893,697.24554,75,85,0
697.0893,697.24554,82,85,0
697.18304,697.3393,74,84,0
697.18304,697.3393,80,84,0
697.2768,697.43304,75,84,0
697.2768,697.43304,82,84,0
697.37054,697.5268,74,84,0
697.37054,697.5268,80,84,0
697.4643,697.62054,82,83,0
697.4643,697.62054,75,83,0
697.55804,697.7176,74,83,0
697.55804,697.7176,80,83,0
697.6518,697.8163,75,83,0
697.6518,697.8163,82,83,0
697.7505,697.915,74,82,0
697.7505,697.915,80,82,0
697.8492,698.0137,75,82,0
697.8492,698.0137,82,82,0
697.9479,698.11237,74,82,0
697.9479,698.11237,80,82,0
698.0466,698.211,75,81,0
698.0466,698.211,82,81,0
698.1452,698.3097,74,81,0
698.1452,698.3097,80,81,0
698.2439,698.4084,75,81,0
698.2439,698.4084,82,81,0
698.3426,698.5071,74,80,0
698.3426,698.5071,80,80,0
698.4413,698.6058,75,80,0
698.4413,698.6058,82,80,0
698.54,698.70447,74,80,0
698.54,698.70447,80,80,0
698.6387,698.8031,82,80,0
698.6387,698.8031,75,80,0
698.73737,698.90356,74,80,0
698.73737,698.90356,80,80,0
698.836,699.00494,75,80,0
698.836,699.00494,82,80,0
698.9374,699.10626,74,80,0
698.9374,699.10626,80,80,0
699.0387,699.20764,75,80,0
699.0387,699.20764,82,80,0
699.1401,699.309,74,80,0
699.1401,699.309,80,80,0
699.24146,699.41034,75,80,0
699.24146,699.41034,82,80,0
699.3428,699.5117,74,80,0
699.3428,699.5117,80,80,0
699.44415,699.61304,75,80,0
699.44415,699.61304,82,80,0
699.5455,699.7144,74,80,0
699.5455,699.7144,80,80,0
699.64685,699.81573,75,80,0
699.64685,699.81573,82,80,0
699.74817,699.9171,74,80,0
699.74817,699.9171,80,80,0
699.84955,700.01843,82,80,0
699.84955,700.01843,75,80,0
699.95087,700.11475,74,80,0
699.95087,700.11475,80,80,0
700.05225,700.2085,81,80,0
700.146,700.30225,82,80,0
700.23975,700.396,81,80,0
700.3335,700.48975,82,80,0
700.42725,700.5835,81,80,0
700.521,700.67725,82,80,0
700.61475,700.771,81,80,0
700.7085,700.86475,82,80,0
700.80225,700.9585,81,80,0
700.896,701.05225,82,80,0
700.98975,701.146,81,80,0
701.0835,701.23975,82,80,0
701.17725,701.23975,82,80,0
701.271,701.42725,84,80,0
701.36475,701.521,82,81,0
701.4585,701.61475,84,81,0
701.55225,701.7085,82,82,0
701.646,701.80225,84,82,0
701.73975,701.896,82,83,0
701.8335,701.9948,84,83,0
701.92725,702.0961,82,83,0
702.02856,702.20135,84,84,0
702.12994,702.30853,82,84,0
702.23706,702.41565,84,85,0
702.34424,702.5228,82,85,0
702.45135,702.62994,84,86,0
702.55853,702.73706,82,86,0
702.66565,702.84424,84,86,0
702.7728,702.95135,82,87,0
702.87994,703.05853,84,87,0
702.98706,703.16565,82,88,0
703.09424,703.2728,84,88,0
703.20135,703.37994,82,89,0
703.30853,703.48706,84,89,0
703.41565,703.59424,82,90,0
703.5228,703.70135,84,90,0
703.62994,703.80853,83,90,0
703.73706,703.91565,84,91,0
703.84424,704.0228,83,91,0
703.95135,704.12994,84,92,0
704.05853,704.23706,83,92,0
704.16565,704.34424,84,93,0
704.27277,704.45135,83,93,0
704.37994,704.55853,84,93,0
704.48706,704.66565,83,94,0
704.59424,704.77277,84,94,0
704.70135,704.87994,83,95,0
704.80853,704.98706,84,95,0
704.91565,704.98706,84,96,0
705.02277,705.20135,86,96,0
705.12994,705.30853,84,97,0
705.23706,705.41565,86,97,0
705.34424,705.52277,84,97,0
705.45135,705.62994,86,98,0
705.55853,705.73706,84,98,0
705.66565,705.84424,86,99,0
705.77277,705.95135,84,99,0
705.87994,706.05853,86,100,0
705.98706,706.16565,84,100,0
706.09424,706.27277,86,100,0
706.20135,706.37994,84,101,0
706.30853,706.48706,86,101,0
706.41565,706.59424,84,102,0
706.52277,706.70135,86,102,0
706.62994,706.80853,84,103,0
706.73706,706.91565,86,103,0
706.84424,707.02277,84,104,0
706.95135,707.12994,86,104,0
707.05853,707.23706,84,104,0
707.16565,707.34424,86,105,0
707.27277,707.45135,84,105,0
707.37994,707.55853,86,106,0
707.48706,707.66565,85,106,0
707.59424,707.77277,86,107,0
707.70135,707.87994,85,107,0
707.80853,707.98706,86,107,0
707.91565,708.09424,85,108,0
708.02277,708.20135,86,108,0
708.12994,708.30853,85,109,0
708.23706,708.41565,86,109,0
708.34424,708.52277,85,110,0
708.45135,708.62994,86,110,0
708.55853,708.73706,85,110,0
708.66565,708.84424,86,110,0
708.77277,708.84424,86,110,0
708.87994,709.05853,87,109,0
708.98706,709.16565,86,109,0
709.09424,709.27277,87,108,0
709.20135,709.37994,86,107,0
709.30853,709.48706,87,107,0
709.41565,709.59424,86,106,0
709.52277,709.70135,87,105,0
709.62994,709.80853,86,105,0
709.73706,709.91565,87,104,0
709.84424,710.02277,86,103,0
709.95135,710.12994,87,103,0
710.05853,710.23706,86,102,0
710.16565,710.34424,87,102,0
710.27277,710.45135,86,101,0
710.37994,710.55853,87,100,0
710.48706,710.66565,86,100,0
710.59424,710.77277,87,99,0
710.70135,710.87994,86,98,0
710.80853,710.98706,87,98,0
710.91565,711.09424,86,97,0
711.02277,711.20135,87,96,0
711.12994,711.30853,86,96,0
711.23706,711.41565,87,95,0
711.34424,711.52277,86,95,0
711.45135,711.62994,87,94,0
711.55853,711.73706,86,93,0
711.66565,711.84424,87,93,0
711.77277,711.95135,86,92,0
711.87994,712.05853,87,91,0
711.98706,712.16565,86,91,0
712.09424,712.27277,87,90,0
712.20135,712.37994,86,89,0
712.30853,712.48706,87,89,0
712.41565,712.59424,86,88,0
712.52277,712.70135,87,88,0
712.62994,712.80853,86,87,0
712.73706,712.91565,87,86,0
712.84424,713.02277,86,86,0
712.95135,713.12994,87,85,0
713.05853,713.23706,86,84,0
713.16565,713.34424,87,84,0
713.27277,713.45135,86,83,0
713.37994,713.55853,87,82,0
713.48706,713.66565,86,82,0
713.59424,713.77277,87,81,0
713.70135,713.87994,84,81,0
713.80853,713.97815,86,80,0
713.91565,715.03674,87,80,0
715.04065,716.16174,91,80,0
716.16565,718.03674,94,80,0
718.04065,718.41174,93,80,0
718.41565,718.78674,92,80,0
718.79065,719.16174,80,80,0
719.16565,719.53674,79,80,0
719.16565,719.53674,70,80,0
719.54065,719.91174,79,80,0
719.54065,720.31683,72,80,0
719.91565,720.31683,77,80,0
720.32104,720.7452,75,80,0
720.32104,720.7452,72,80,0
720.74963,721.1508,75,80,0
720.74963,721.1508,68,80,0
720.74963,721.1508,65,80,0
721.155,721.5261,68,80,0
721.155,721.5261,65,80,0
721.155,721.9011,74,80,0
721.53,721.9011,68,80,0
721.53,721.9011,65,80,0
721.905,722.2761,68,80,0
721.905,722.2761,65,80,0
722.28,722.6511,68,80,0
722.28,722.6511,65,80,0
722.28,723.0144,75,80,0
722.655,723.0144,68,80,0
722.655,723.0144,65,80,0
723.03,723.3894,68,80,0
723.03,723.3894,65,80,0
723.405,723.7935,68,80,0
723.405,723.7935,65,80,0
723.405,723.7935,77,80,0
723.8104,724.199,68,80,0
723.8104,724.199,65,80,0
723.8104,724.199,70,80,0
724.2158,724.5752,67,80,0
724.2158,724.9502,70,80,0
724.5908,724.9502,67,80,0
724.9658,725.3252,67,80,0
725.3408,725.7002,67,80,0
725.7158,726.0752,67,80,0
726.0908,726.4502,67,80,0
726.4658,726.8252,67,80,0
726.4658,726.8252,63,80,0
726.8408,727.2294,67,80,0
726.8408,727.2294,63,80,0
727.2463,727.63477,67,80,0
727.2463,727.63477,63,80,0
727.6517,728.02997,67,80,0
727.6517,728.02997,65,80,0
728.0464,728.40576,67,80,0
728.0464,728.40576,65,80,0
728.0464,728.78076,71,80,0
728.4214,728.78076,67,80,0
728.4214,728.78076,65,80,0
728.7964,729.15576,67,80,0
728.7964,729.15576,65,80,0
729.1714,729.53076,67,80,0
729.1714,729.53076,65,80,0
729.1714,729.90576,72,80,0
729.5464,729.90576,67,80,0
729.5464,729.90576,65,80,0
729.9214,730.28076,67,80,0
729.9214,730.28076,65,80,0
730.2964,730.6849,67,80,0
730.2964,730.6849,65,80,0
730.2964,730.6849,74,80,0
730.7018,731.09033,67,80,0
730.7018,731.09033,65,80,0
731.1072,731.4855,63,80,0
731.1072,731.8613,67,80,0
731.50195,731.8613,63,80,0
731.87695,732.2363,63,80,0
732.25195,732.6113,63,80,0
732.62695,732.9863,63,80,0
733.00195,733.3613,63,80,0
733.37695,733.7363,63,80,0
733.37695,733.7363,60,80,0
733.75195,734.14044,63,80,0
733.75195,734.14044,60,80,0
734.15735,734.54584,63,80,0
734.15735,734.54584,60,80,0
734.56274,734.94104,61,80,0
734.56274,734.94104,63,80,0
734.95746,735.31683,61,80,0
734.95746,735.31683,63,80,0
734.95746,735.69183,67,80,0
735.33246,735.69183,61,80,0
735.33246,735.69183,63,80,0
735.70746,736.06683,61,80,0
735.70746,736.06683,63,80,0
736.08246,736.44183,61,80,0
736.08246,736.44183,63,80,0
736.08246,736.81683,68,80,0
736.45746,736.81683,61,80,0
736.45746,736.81683,63,80,0
736.83246,737.19183,61,80,0
736.83246,737.19183,63,80,0
737.20746,737.56683,61,80,0
737.20746,737.56683,63,80,0
737.20746,737.56683,70,80,0
737.58246,737.94183,61,80,0
737.58246,737.94183,63,80,0
737.95746,738.31683,61,80,0
737.95746,738.69183,63,80,0
738.33246,738.69183,60,80,0
738.70746,739.06683,60,80,0
738.70746,739.06683,63,80,0
739.08246,739.44183,60,80,0
739.08246,739.44183,63,80,0
739.45746,739.81683,60,80,0
739.45746,739.81683,62,80,0
739.45746,739.81683,69,80,0
739.83246,740.19183,60,80,0
739.83246,740.19183,62,80,0
740.20746,740.56683,60,80,0
740.20746,740.94183,62,80,0
740.58246,740.94183,59,80,0
740.95746,741.31683,59,80,0
740.95746,741.31683,62,80,0
741.33246,741.69183,61,80,0
741.33246,741.69183,58,80,0
741.70746,742.06683,67,80,0
741.70746,742.06683,61,80,0
741.70746,742.06683,58,80,0
742.08246,742.44183,60,80,0
742.08246,742.44183,58,80,0
742.45746,742.81683,58,80,0
742.45746,743.19183,60,80,0
742.83246,743.19183,57,80,0
743.20746,743.56683,57,80,0
743.20746,743.56683,60,80,0
743.58246,743.94183,59,80,0
743.58246,743.94183,56,80,0
743.95746,744.31683,65,80,0
743.95746,744.31683,56,80,0
743.95746,744.31683,58,80,0
744.33246,744.69183,58,80,0
744.33246,744.69183,56,80,0
744.70746,745.06683,56,80,0
744.70746,745.44183,58,80,0
745.08246,745.44183,55,80,0
745.45746,745.81683,58,80,0
745.45746,745.81683,55,80,0
745.83246,746.19183,58,80,0
745.83246,746.19183,55,80,0
746.20746,746.56683,63,80,0
746.20746,746.56683,55,80,0
746.58246,746.94183,57,80,0
746.58246,746.94183,55,80,0
746.95746,747.31683,55,80,0
746.95746,747.71075,57,80,0
747.33246,747.71075,54,80,0
747.72723,748.1157,62,80,0
747.72723,748.1157,56,80,0
747.72723,748.1157,54,80,0
748.1326,748.5211,62,80,0
748.1326,748.5211,56,80,0
748.1326,748.5211,53,80,0
748.538,748.9163,62,80,0
748.538,748.9163,55,80,0
748.538,748.9163,53,80,0
748.93274,749.2921,55,80,0
748.93274,749.2921,53,80,0
749.30774,749.6671,55,80,0
749.30774,749.6671,53,80,0
749.68274,750.0421,55,80,0
749.68274,750.0421,51,80,0
750.05774,750.4171,60,80,0
750.05774,750.4171,55,80,0
750.05774,750.4171,51,80,0
750.43274,750.80133,60,80,0
750.43274,750.80133,54,80,0
750.43274,750.80133,51,80,0
750.8174,751.186,60,80,0
750.8174,751.186,53,80,0
750.8174,751.186,51,80,0
751.202,751.5706,53,80,0
751.202,751.5706,51,80,0
751.5866,751.9649,53,80,0
751.5866,751.9649,51,80,0
751.9813,752.3596,53,80,0
751.9813,752.3596,49,80,0
752.3761,752.7544,58,80,0
752.3761,752.7544,49,80,0
752.3761,752.7544,53,80,0
752.7708,753.15936,58,80,0
752.7708,753.15936,51,80,0
752.7708,753.15936,49,80,0
753.1762,753.57556,58,80,0
753.1762,753.57556,51,80,0
753.1762,753.57556,49,80,0
753.5929,754.0036,51,80,0
753.5929,754.0036,49,80,0
754.0215,754.4679,51,80,0
754.0215,754.4679,48,80,0
754.4858,754.8694,51,80,0
754.4858,754.8694,48,80,0
754.8858,755.2452,60,81,0
754.8858,755.2452,51,81,0
755.2608,755.6202,63,81,0
755.2608,755.6202,60,81,0
755.6358,755.9952,63,82,0
755.6358,755.9952,60,82,0
756.0108,756.3702,72,83,0
756.0108,756.3702,63,83,0
756.3858,756.7452,72,83,0
756.3858,756.7452,62,83,0
756.7608,757.1202,72,84,0
756.7608,757.1202,62,84,0
757.1358,757.4952,71,85,0
757.1358,757.4952,62,85,0
757.5108,757.8702,64,85,0
757.5108,757.8702,60,85,0
757.5108,758.2452,72,85,0
757.8858,758.2452,64,86,0
757.8858,758.2452,60,86,0
758.2608,758.6202,67,86,0
758.2608,758.6202,64,86,0
758.2608,758.6202,60,86,0
758.6358,758.9952,64,87,0
759.0108,759.3702,62,88,0
759.3858,759.7452,64,88,0
759.7608,760.1202,65,89,0
760.1358,760.4952,64,90,0
758.6358,760.8702,67,87,0
760.5108,760.8702,65,90,0
760.8858,761.2452,62,91,0
760.8858,761.6202,74,91,0
761.2608,761.6202,60,91,0
761.6358,761.9952,62,92,0
761.6358,761.9952,65,92,0
761.6358,761.9952,67,92,0
762.0108,762.3702,62,93,0
762.3858,762.7452,64,93,0
762.7608,763.1202,62,94,0
763.1358,763.4952,64,95,0
763.5108,763.8702,65,95,0
762.0108,764.2452,67,93,0
763.8858,764.2452,64,96,0
764.2608,764.6202,65,96,0
764.6358,764.9952,64,97,0
764.2608,765.3702,67,96,0
765.0108,765.3702,65,98,0
765.3858,765.7452,60,98,0
765.7608,766.1202,59,99,0
765.3858,766.4952,67,98,0
766.1358,766.4952,60,100,0
766.5108,766.8702,64,100,0
766.8858,767.2452,62,101,0
766.5108,767.6202,76,100,0
767.2608,767.6202,64,102,0
767.6358,767.9952,67,102,0
768.0108,768.3702,65,103,0
767.6358,768.7452,72,102,0
768.3858,768.7452,64,103,0
768.7608,769.1202,64,104,0
769.1358,769.4952,63,105,0
768.7608,769.8702,72,104,0
769.5108,769.8702,64,105,0
769.8858,770.2452,62,106,0
770.2608,770.6202,62,107,0
769.8858,770.9952,71,106,0
770.6358,770.9952,62,107,0
771.0108,771.3702,67,108,0
771.0108,771.3702,62,108,0
771.3858,771.7452,67,108,0
771.3858,771.7452,62,108,0
771.0108,772.1202,71,108,0
771.7608,772.1202,67,109,0
771.7608,772.1202,62,109,0
772.1358,772.4952,67,110,0
772.5108,772.8702,66,110,0
772.1358,773.2452,72,110,0
772.8858,773.2452,67,110,0
773.2608,773.6202,64,110,0
773.6358,773.9952,67,110,0
773.2608,774.3702,76,110,0
774.0108,774.3702,67,110,0
774.3858,774.7452,74,110,0
774.7608,775.1202,73,110,0
774.3858,775.4952,79,110,0
775.1358,775.4952,74,110,0
775.5108,775.8702,73,110,0
775.8858,776.2452,71,107,0
775.5108,776.6202,79,110,0
776.2608,776.6202,73,104,0
776.6358,776.9952,74,100,0
777.0108,777.3702,73,97,0
776.6358,777.7452,77,100,0
777.3858,777.7452,74,93,0
777.7608,778.1202,65,90,0
777.7608,778.4952,74,90,0
778.1358,778.4952,65,86,0
778.5108,778.8702,72,83,0
778.5108,778.8702,66,83,0
778.8858,779.2452,67,80,0
779.2608,779.6202,69,81,0
778.8858,779.9952,71,80,0
779.6358,779.9952,67,89,0
780.0108,780.3702,66,91,0
780.3858,780.7452,67,94,0
780.0108,781.1202,72,91,0
780.7608,781.1202,66,97,0
781.1358,781.4952,65,80,0
781.1358,781.8702,74,87,0
781.5108,781.8702,65,80,0
781.8858,782.2452,67,80,0
781.8858,782.2452,65,80,0
782.2608,782.6202,65,80,0
782.2608,782.6202,62,80,0
782.6358,782.9952,64,80,0
782.6358,782.9952,60,80,0
783.0108,783.3702,65,80,0
783.0108,783.3702,59,80,0
783.3858,783.7452,65,80,0
783.3858,783.7452,59,80,0
782.2608,784.1202,67,80,0
783.7608,784.1202,64,80,0
783.7608,784.1202,60,80,0
784.1358,784.4952,64,80,0
784.1358,784.4952,62,80,0
784.5108,784.8702,62,80,0
784.5108,785.27435,64,80,0
784.8858,785.27435,60,80,0
785.2912,785.70197,64,80,0
785.2912,785.70197,59,80,0
785.7198,786.10834,64,80,0
785.7198,786.10834,60,80,0
786.1252,786.48456,64,81,0
786.5002,786.85956,64,82,0
786.8752,787.23456,64,83,0
787.2502,787.60956,64,84,0
785.7198,787.98456,72,80,0
787.6252,787.98456,64,85,0
788.0002,788.35956,64,86,0
788.0002,788.73456,72,86,0
788.3752,788.73456,64,87,0
788.7502,789.10956,64,88,0
788.7502,789.10956,71,88,0
789.1252,789.48456,64,90,0
789.5002,789.85956,64,91,0
789.8752,790.23456,64,92,0
790.2502,790.60956,64,93,0
790.6252,790.98456,64,94,0
789.1252,791.35956,71,90,0
791.0002,791.35956,64,95,0
791.3752,791.73456,64,96,0
791.3752,792.10956,71,96,0
791.7502,792.10956,64,97,0
792.1252,792.48456,76,99,0
792.1252,792.48456,64,99,0
792.5002,792.85956,71,100,0
792.5002,792.85956,64,100,0
792.8752,793.23456,71,101,0
792.8752,793.23456,64,101,0
792.5002,793.60956,76,100,0
793.2502,793.60956,71,102,0
793.2502,793.60956,64,102,0
793.6252,793.98456,72,103,0
793.6252,793.98456,64,103,0
794.0002,794.35956,72,104,0
794.0002,794.35956,64,104,0
793.6252,794.73456,76,103,0
794.3752,794.73456,72,105,0
794.3752,794.73456,64,105,0
794.7502,795.10956,71,106,0
794.7502,795.48456,74,106,0
795.1252,795.48456,68,108,0
795.5002,795.85956,72,109,0
795.5002,795.85956,69,109,0
795.8752,796.23456,69,110,0
795.8752,796.23456,64,110,0
796.2502,796.60956,69,105,0
796.2502,796.60956,64,105,0
795.8752,796.98456,72,110,0
796.6252,796.98456,69,100,0
796.6252,796.98456,64,100,0
797.0002,797.35956,68,95,0
797.0002,797.35956,64,95,0
797.3752,797.73456,68,89,0
797.3752,797.73456,64,89,0
797.0002,798.10956,71,95,0
797.7502,798.10956,64,84,0
797.7502,798.10956,68,84,0
798.1252,798.48456,69,80,0
798.1252,798.48456,64,80,0
798.5002,798.85956,69,81,0
798.5002,798.85956,64,81,0
798.1252,799.23456,72,80,0
798.8752,799.23456,69,82,0
798.8752,799.23456,64,82,0
799.2502,799.60956,71,83,0
799.2502,799.60956,67,83,0
799.6252,799.98456,71,84,0
799.6252,799.98456,67,84,0
800.0002,800.35956,71,85,0
800.0002,800.35956,67,85,0
800.3752,800.73456,71,86,0
800.3752,800.73456,67,86,0
800.7502,801.10956,71,87,0
800.7502,801.10956,67,87,0
799.2502,801.48456,74,83,0
801.1252,801.48456,71,88,0
801.1252,801.48456,67,88,0
801.5002,801.85956,71,89,0
801.5002,801.85956,65,89,0
801.8752,802.23456,71,90,0
801.8752,802.23456,65,90,0
801.5002,802.60956,74,89,0
802.2502,802.60956,71,91,0
802.2502,802.60956,65,91,0
802.6252,802.98456,70,92,0
802.6252,802.98456,64,92,0
803.0002,803.35956,70,93,0
803.0002,803.35956,64,93,0
803.3752,803.73456,70,94,0
803.3752,803.73456,64,94,0
803.7502,804.10956,70,95,0
803.7502,804.10956,64,95,0
804.1252,804.48456,70,96,0
804.1252,804.48456,64,96,0
802.6252,804.85956,76,92,0
804.5002,804.85956,70,97,0
804.5002,804.85956,64,97,0
804.8752,805.23456,69,98,0
804.8752,805.23456,65,98,0
805.2502,805.60956,69,99,0
805.2502,805.60956,72,99,0
804.8752,805.98456,77,98,0
805.6252,805.98456,72,100,0
805.6252,805.98456,68,100,0
806.0002,806.35956,72,101,0
806.0002,806.35956,67,101,0
806.3752,806.73456,72,102,0
806.3752,806.73456,67,102,0
806.0002,807.10956,74,101,0
806.7502,807.10956,72,103,0
806.7502,807.10956,67,103,0
807.1252,807.48456,72,104,0
807.1252,807.48456,67,104,0
807.5002,807.85956,72,105,0
807.5002,807.85956,67,105,0
807.1252,808.23456,74,104,0
807.8752,808.23456,67,106,0
807.8752,808.23456,72,106,0
808.2502,808.60956,71,107,0
808.2502,808.60956,67,107,0
808.2502,808.98456,74,107,0
808.6252,808.98456,72,108,0
808.6252,808.98456,67,108,0
809.0002,809.35956,79,109,0
809.0002,809.35956,72,109,0
809.0002,809.35956,67,109,0
809.3752,809.73456,74,110,0
809.3752,810.10956,79,110,0
809.7502,810.10956,71,99,0
810.1252,810.48456,76,88,0
810.1252,810.48456,67,88,0
810.5002,810.85956,64,80,0
810.8752,811.23456,63,80,0
810.5002,811.60956,76,80,0
811.2502,811.60956,64,80,0
811.6252,811.98456,71,110,0
811.6252,812.35956,76,110,0
812.0002,812.35956,68,99,0
812.3752,812.73456,72,88,0
812.3752,812.73456,64,88,0
812.7502,813.10956,64,80,0
813.1252,813.48456,64,80,0
812.7502,813.85956,72,80,0
813.5002,813.85956,64,80,0
813.8752,814.23456,79,110,0
813.8752,814.60956,84,110,0
814.2502,814.60956,76,103,0
814.6252,814.98456,81,96,0
814.6252,814.98456,72,96,0
815.0002,815.35956,72,80,0
815.3752,815.73456,73,80,0
815.3752,815.73456,79,80,0
815.0002,816.10956,81,80,0
815.7502,816.10956,74,80,0
815.7502,816.10956,77,80,0
816.1252,816.48456,76,110,0
816.1252,816.85956,81,110,0
816.5002,816.85956,73,103,0
816.8752,817.23456,77,96,0
816.8752,817.23456,69,96,0
817.2502,817.60956,69,80,0
817.6252,817.98456,69,80,0
817.2502,818.35956,77,80,0
817.2502,818.35956,74,80,0
818.0002,818.35956,69,80,0
818.3752,818.73456,68,80,0
818.7502,819.10956,68,81,0
818.3752,819.48456,77,80,0
818.3752,819.48456,74,80,0
819.1252,819.48456,68,82,0
819.5002,819.85956,67,83,0
819.8752,820.23456,67,84,0
820.2502,820.60956,67,85,0
820.6252,820.98456,67,86,0
821.0002,821.35956,67,87,0
819.5002,821.73456,74,83,0
819.5002,821.73456,77,83,0
821.3752,821.73456,67,88,0
821.7502,822.10956,67,90,0
821.7502,822.10956,71,90,0
822.1252,822.48456,67,91,0
822.1252,822.48456,72,91,0
821.7502,822.85956,77,90,0
822.5002,822.85956,67,92,0
822.5002,822.85956,74,92,0
822.8752,823.23456,67,93,0
823.2502,823.60956,67,94,0
822.8752,823.98456,76,93,0
823.6252,823.98456,67,95,0
824.0002,824.35956,71,96,0
824.0002,824.35956,67,96,0
824.3752,824.73456,71,97,0
824.3752,824.73456,67,97,0
824.0002,825.10956,79,96,0
824.7502,825.10956,71,99,0
824.7502,825.10956,67,99,0
825.1252,825.48456,69,100,0
825.1252,825.48456,79,100,0
825.5002,825.85956,69,101,0
825.5002,825.85956,77,101,0
825.8752,826.23456,72,102,0
825.8752,826.23456,69,102,0
825.8752,826.23456,74,102,0
826.2502,826.60956,67,103,0
826.2502,826.60956,64,103,0
826.6252,826.98456,67,104,0
826.6252,826.98456,64,104,0
826.2502,827.35956,72,103,0
827.0002,827.35956,67,105,0
827.0002,827.35956,64,105,0
827.3752,827.7535,67,106,0
827.3752,827.7535,65,106,0
827.3752,828.15845,76,106,0
827.76996,828.15845,67,108,0
827.76996,828.15845,65,108,0
828.17535,828.6045,74,109,0
828.17535,828.6045,67,109,0
828.17535,828.6045,65,109,0
828.624,828.8932,71,110,0
828.76685,829.0072,74,108,0
828.9059,829.1387,83,106,0
829.041,829.2715,71,103,0
829.166,829.3965,74,101,0
829.291,829.5137,79,98,0
829.416,829.6504,72,96,0
829.541,829.7754,79,93,0
829.666,829.9004,84,91,0
829.791,830.0332,72,80,0
829.916,830.1543,79,80,0
830.041,830.2871,84,80,0
830.166,830.3887,71,80,0
830.291,830.5254,79,80,0
830.416,830.6582,83,80,0
830.541,830.7637,72,80,0
830.666,830.8926,79,80,0
830.791,831.00195,84,80,0
830.916,831.1387,80,110,0
831.041,831.2676,83,108,0
831.166,831.37695,92,106,0
831.291,831.5293,80,103,0
831.416,831.6543,83,101,0
831.541,831.7676,88,98,0
831.666,831.88477,81,96,0
831.791,832.0371,88,93,0
831.916,832.1465,93,91,0
832.041,832.2676,81,80,0
832.166,832.38086,88,80,0
832.291,832.5137,93,80,0
832.416,832.62695,80,80,0
832.541,832.75977,88,80,0
832.666,832.88477,92,80,0
832.791,833.00586,81,80,0
832.916,833.1387,84,80,0
833.041,833.2676,93,80,0
833.166,833.37695,76,110,0
833.291,833.50977,79,108,0
833.416,833.63086,88,106,0
833.541,833.7871,76,103,0
833.666,833.8965,79,101,0
833.791,834.0176,84,98,0
833.916,834.12695,77,96,0
834.041,834.2871,84,93,0
834.166,834.40204,89,91,0
834.291,834.5377,77,80,0
834.42255,834.6693,84,80,0
834.55414,834.81244,89,80,0
834.6857,834.9476,76,80,0
834.82086,835.0827,84,80,0
834.956,835.2161,88,80,0
835.0911,835.35425,77,80,0
835.234,835.53,84,80,0
835.38354,835.5349,89,80,0
835.5398,835.9526,88,80,0
835.5398,836.3279,93,80,0
835.9568,836.3279,85,80,0
836.3318,836.7029,89,80,0
836.3318,836.7029,81,80,0
836.7068,837.0779,81,80,0
837.0818,837.4529,81,80,0
836.7068,837.8279,89,80,0
837.4568,837.8279,81,81,0
837.8318,838.2029,81,82,0
837.8318,838.2029,86,82,0
838.2068,838.5779,86,83,0
838.2068,838.5779,81,83,0
837.8318,838.9529,89,82,0
838.5818,838.9529,86,84,0
838.5818,838.9529,81,84,0
838.9568,839.3279,86,85,0
838.9568,839.3279,80,85,0
839.3318,839.7029,86,85,0
839.3318,839.7029,80,85,0
838.9568,840.0779,89,85,0
839.7068,840.0779,86,86,0
839.7068,840.0779,80,86,0
840.0818,840.44116,86,87,0
840.0818,840.44116,79,87,0
840.4568,840.81616,86,88,0
840.4568,840.81616,79,88,0
840.8318,841.19116,86,89,0
840.8318,841.19116,79,89,0
841.2068,841.56616,86,90,0
841.2068,841.56616,79,90,0
841.5818,841.94116,86,90,0
841.5818,841.94116,79,90,0
840.0818,842.31616,89,87,0
841.9568,842.31616,86,91,0
841.9568,842.31616,79,91,0
842.3318,842.69116,86,92,0
842.3318,842.69116,79,92,0
842.7068,843.06616,86,93,0
842.7068,843.06616,79,93,0
842.3318,843.44116,89,92,0
843.0818,843.44116,86,94,0
843.0818,843.44116,79,94,0
843.4568,843.81616,86,95,0
843.4568,843.81616,84,95,0
843.8318,844.19116,86,95,0
843.8318,844.19116,84,95,0
844.2068,844.56616,86,96,0
844.2068,844.56616,84,96,0
844.5818,844.94116,86,97,0
844.5818,844.94116,84,97,0
844.9568,845.31616,86,98,0
844.9568,845.31616,84,98,0
843.4568,845.69116,90,95,0
845.3318,845.69116,84,99,0
845.3318,845.69116,86,99,0
845.7068,846.06616,86,100,0
845.7068,846.06616,84,100,0
846.0818,846.44116,86,101,0
846.0818,846.44116,84,101,0
845.7068,846.81616,90,100,0
846.4568,846.81616,86,101,0
846.4568,846.81616,84,101,0
846.8318,847.19116,88,102,0
846.8318,847.19116,84,102,0
847.2068,847.56616,88,103,0
847.2068,847.56616,84,103,0
847.2068,847.56616,79,103,0
846.8318,847.94116,91,102,0
847.5818,847.94116,88,104,0
847.5818,847.94116,84,104,0
847.5818,847.94116,79,104,0
847.9568,848.31616,83,105,0
847.9568,848.31616,79,105,0
848.3318,848.69116,83,106,0
848.3318,848.69116,79,106,0
847.9568,849.06616,89,105,0
848.7068,849.06616,83,106,0
848.7068,849.06616,79,106,0
849.0818,849.44116,83,107,0
849.0818,849.44116,79,107,0
849.0818,849.81616,91,107,0
849.4568,849.81616,83,108,0
849.4568,849.81616,79,108,0
849.8318,850.19116,93,109,0
849.8318,850.19116,83,109,0
849.8318,850.19116,79,109,0
850.2068,850.56616,83,110,0
850.2068,850.56616,79,110,0
850.5818,850.94116,83,110,0
850.5818,850.94116,79,110,0
850.9568,851.31616,83,110,0
850.9568,851.31616,79,110,0
850.2068,851.69116,93,110,0
851.3318,851.69116,83,110,0
851.3318,851.69116,79,110,0
851.7068,852.06616,93,110,0
851.7068,852.06616,83,110,0
851.7068,852.06616,79,110,0
852.0818,852.44116,91,110,0
852.0818,852.44116,84,110,0
852.0818,852.44116,79,110,0
852.4568,852.81616,91,110,0
852.4568,852.81616,84,110,0
852.4568,852.81616,79,110,0
852.8318,853.19116,89,110,0
852.8318,853.19116,83,110,0
852.8318,853.19116,79,110,0
853.2068,853.56616,88,110,0
853.2068,853.56616,84,110,0
853.2068,853.56616,79,110,0
853.5818,853.94116,79,110,0
853.5818,854.31616,88,110,0
853.5818,854.31616,84,110,0
853.9568,854.31616,79,110,0
854.3318,854.69116,91,110,0
854.3318,854.69116,88,110,0
854.3318,854.69116,79,110,0
854.7068,855.06616,79,110,0
854.7068,855.44116,90,110,0
854.7068,855.44116,87,110,0
855.0818,855.44116,79,110,0
855.4568,855.81616,89,110,0
855.4568,855.81616,86,110,0
855.4568,855.81616,79,110,0
855.8318,856.2101,88,110,0
855.8318,856.2101,82,110,0
855.8318,856.2101,79,110,0
856.2265,856.61505,89,110,0
856.2265,856.61505,83,110,0
856.2265,856.61505,79,110,0
856.63196,857.06104,86,110,0
856.63196,857.06104,83,110,0
856.63196,857.06104,79,110,0
857.08057,857.2692,86,110,0
857.19775,857.3725,88,110,0
857.30493,857.4738,86,110,0
857.40625,857.5701,88,110,0
857.5076,857.6639,86,110,0
857.6014,857.7576,88,110,0
857.6951,857.8514,86,110,0
857.7889,857.9451,88,110,0
857.8826,858.0389,86,110,0
857.9764,858.1326,88,110,0
858.0701,858.2264,85,110,0
858.1639,858.34094,86,120,0
858.2576,858.46075,90,127,0
858.3826,858.5712,91,127,0
858.4998,858.6745,93,126,0
858.60693,858.7741,91,120,0
858.7083,858.8728,93,118,0
858.807,858.97144,91,115,0
858.9057,859.0701,93,115,0
859.00433,859.1688,91,114,0
859.103,859.2675,93,113,0
859.2017,859.3662,91,112,0
859.3004,859.4649,93,111,0
859.3991,859.56354,91,110,0
859.4978,859.66223,93,109,0
859.59644,859.7609,91,109,0
859.6951,859.8596,93,108,0
859.7938,859.9583,91,107,0
859.8925,860.057,93,106,0
859.9912,860.1557,91,105,0
860.0899,860.25433,93,104,0
860.18854,860.353,91,103,0
860.28723,860.4517,93,103,0
860.3859,860.5504,91,102,0
860.4846,860.6491,93,101,0
860.5833,860.7478,91,100,0
860.682,860.84644,93,99,0
860.7807,860.9451,91,98,0
860.87933,861.0438,93,98,0
860.978,861.1425,91,97,0
861.0767,861.2412,93,96,0
861.1754,861.3399,91,95,0
861.2741,861.43854,93,94,0
861.3728,861.53723,91,93,0
861.47144,861.6359,93,92,0
861.5701,861.7346,91,92,0
861.6688,861.8333,93,91,0
861.7675,861.932,91,90,0
861.8662,862.0307,93,89,0
861.9649,862.12933,91,88,0
862.06354,862.228,93,87,0
862.16223,862.3267,91,86,0
862.2609,862.4254,93,86,0
862.3596,862.5241,91,85,0
862.4583,862.6228,93,84,0
862.557,862.72144,91,83,0
862.6557,862.8201,93,82,0
862.75433,862.9188,91,81,0
862.853,863.0175,93,81,0
862.9517,863.1162,91,80,0
863.0504,863.2149,93,80,0
863.1491,863.31354,91,80,0
863.2478,863.41223,93,80,0
863.34644,863.5109,91,80,0
863.4451,863.6096,93,80,0
863.5438,863.7083,91,80,0
863.6425,863.807,93,80,0
863.0504,863.8234,84,80,0
863.7412,863.9057,91,80,0
863.8399,864.00433,93,80,0
863.93854,864.103,91,80,0
864.03723,864.2017,93,80,0
863.8399,864.2182,79,80,0
864.1359,864.3004,91,80,0
864.2346,864.3991,93,80,0
864.3333,864.4978,91,80,0
864.432,864.59644,93,80,0
864.5307,864.6951,91,80,0
864.62933,864.7938,93,80,0
864.728,864.8925,91,80,0
864.8267,864.9912,93,80,0
864.9254,865.0899,91,80,0
865.0241,865.18854,93,80,0
865.1228,865.28723,91,80,0
865.22144,865.3859,93,80,0
865.3201,865.4846,91,80,0
865.4188,865.5833,93,80,0
865.5175,865.682,91,80,0
865.6162,865.7807,93,80,0
865.7149,865.87933,91,80,0
865.81354,865.978,93,80,0
865.91223,866.0767,91,80,0
866.0109,866.1754,93,80,0
866.1096,866.2741,91,80,0
866.2083,866.3728,93,80,0
866.307,866.47144,91,80,0
866.4057,866.5701,93,80,0
864.2346,866.5866,79,80,0
866.50433,866.6688,91,80,0
866.603,866.7675,93,80,0
866.7017,866.8662,91,80,0
866.8004,866.9649,93,80,0
866.8991,867.06354,91,80,0
866.9978,867.16223,93,80,0
867.09644,867.2609,91,80,0
867.1951,867.3596,93,80,0
866.603,867.37604,86,80,0
867.2938,867.4583,91,80,0
867.3925,867.557,93,80,0
867.4912,867.6557,91,80,0
867.5899,867.75433,93,80,0
867.3925,867.7708,79,80,0
867.68854,867.853,91,80,0
867.78723,867.9517,93,80,0
867.8859,868.0504,91,80,0
867.9846,868.1491,93,80,0
868.0833,868.2478,91,80,0
868.182,868.34644,93,80,0
868.2807,868.4451,91,80,0
868.37933,868.5438,93,80,0
868.478,868.6425,91,80,0
868.5767,868.7412,93,80,0
868.6754,868.8399,91,80,0
868.7741,868.93854,93,80,0
868.8728,869.03723,91,80,0
868.97144,869.1359,93,80,0
869.0701,869.2346,91,80,0
869.1688,869.3333,93,80,0
869.2675,869.432,91,80,0
869.3662,869.53064,93,80,0
869.4649,869.62933,91,80,0
869.56354,869.728,93,80,0
869.66223,869.8267,91,80,0
869.7609,869.9254,93,80,0
869.8596,870.0241,91,80,0
869.9583,870.1228,93,80,0
867.78723,870.1392,79,80,0
870.057,870.22144,91,80,0
870.15564,870.3201,93,80,0
870.25433,870.4188,91,80,0
870.353,870.5175,93,80,0
870.4517,870.6162,91,80,0
870.5504,870.7149,93,80,0
870.6491,870.81354,91,80,0
870.7478,870.91223,93,80,0
870.84644,871.0109,91,80,0
870.9451,871.1096,93,80,0
871.0438,871.2083,91,80,0
871.1425,871.307,93,80,0
870.15564,871.3234,79,80,0
871.2412,871.40564,91,80,0
871.3399,871.50433,93,80,0
871.43854,871.603,91,80,0
871.53723,871.7017,93,80,0
871.6359,871.8004,91,80,0
871.7346,871.8991,93,80,0
871.8333,871.9978,91,80,0
871.932,872.09644,93,80,0
872.03064,872.1951,91,80,0
872.12933,872.2938,93,80,0
872.228,872.3925,91,80,0
872.3267,872.4912,93,80,0
871.3399,872.5076,79,80,0
872.4254,872.5899,91,80,0
872.5241,872.68854,93,80,0
872.6228,872.78723,91,80,0
872.72144,872.8859,93,80,0
872.8201,872.9846,91,80,0
872.9188,873.0833,93,80,0
873.0175,873.182,91,80,0
873.1162,873.28064,93,80,0
873.2149,873.37933,91,80,0
873.31354,873.478,93,80,0
873.41223,873.5767,91,80,0
873.5109,873.6754,93,80,0
872.5241,873.69183,88,80,0
873.6096,873.7741,91,80,0
873.7083,873.8728,93,80,0
873.807,873.97144,91,80,0
873.90564,874.0701,93,80,0
874.00433,874.1688,91,80,0
874.103,874.2675,93,80,0
874.2017,874.3662,91,80,0
874.3004,874.4649,93,80,0
874.3991,874.56354,91,80,0
874.4978,874.66223,93,80,0
874.59644,874.7609,91,80,0
874.6951,874.8596,93,80,0
873.7083,874.87604,84,80,0
874.7938,874.9583,91,80,0
874.8925,875.057,93,80,0
874.9912,875.15564,91,80,0
875.0899,875.25433,93,80,0
875.18854,875.353,91,80,0
875.28723,875.4517,93,80,0
875.3859,875.5504,91,80,0
875.4846,875.6491,93,80,0
875.5833,875.7478,91,80,0
875.682,875.84644,93,80,0
875.78064,875.9451,91,80,0
875.87933,876.0438,93,80,0
874.8925,876.0603,84,80,0
875.978,876.1425,91,80,0
876.0767,876.2412,93,80,0
876.1754,876.3399,91,80,0
876.2741,876.43854,93,80,0
876.3728,876.53723,91,80,0
876.47144,876.6359,93,80,0
876.5701,876.7346,91,80,0
876.6688,876.8333,93,80,0
876.7675,876.932,91,80,0
876.8662,877.03064,93,80,0
876.9649,877.12933,91,80,0
877.06354,877.228,93,80,0
876.0767,877.2445,83,80,0
877.16223,877.2445,91,80,0
877.2609,877.4097,81,80,0
877.3502,877.499,79,80,0
877.4395,877.5883,81,80,0
877.5288,877.6776,79,80,0
877.6181,877.7669,81,80,0
877.70734,877.85614,79,80,0
877.79663,877.94543,81,80,0
877.8859,878.0347,79,80,0
877.9752,878.124,81,80,0
878.0645,878.2133,79,80,0
878.1538,878.3026,81,80,0
877.2609,878.3175,83,80,0
878.33234,878.48114,81,80,0
878.2431,878.57043,79,80,0
878.42163,878.57043,79,80,0
878.5109,878.6597,81,80,0
878.6002,878.76764,79,80,0
878.6895,878.8383,81,80,0
878.7788,878.9462,79,80,0
878.8681,879.0169,81,80,0
878.95734,879.1285,79,80,0
879.04663,879.19543,81,80,0
879.1359,879.30707,79,80,0
879.2252,879.374,81,80,0
878.33234,879.3889,84,80,0
879.3145,879.4782,79,80,0
879.4038,879.5526,81,80,0
879.4931,879.66046,79,80,0
879.58234,879.73114,81,80,0
879.67163,879.8428,79,80,0
879.7609,879.9097,81,80,0
879.8502,880.01764,79,80,0
879.9395,880.0883,81,80,0
880.0288,880.1999,79,80,0
880.1181,880.2669,81,80,0
880.20734,880.3785,79,80,0
880.29663,880.44543,81,80,0
879.4038,880.4603,88,80,0
880.3859,880.5496,79,80,0
880.4752,880.624,81,80,0
880.4752,880.64636,91,80,0
880.5645,880.73193,79,80,0
880.6538,880.8026,81,80,0
880.7431,880.91046,79,80,0
880.83234,880.98114,81,80,0
880.92163,881.0965,79,80,0
881.0109,881.1597,81,80,0
881.1002,881.2751,79,80,0
881.1895,881.3383,81,80,0
881.2788,881.4462,79,80,0
881.3681,881.5169,81,80,0
881.45734,881.60614,79,80,0
881.54663,881.69543,81,80,0
881.54663,881.7103,91,80,0
881.6359,881.8108,79,80,0
881.7252,881.874,81,80,0
881.8145,881.9894,79,80,0
881.9038,882.0526,81,80,0
881.9931,882.1642,79,80,0
882.08234,882.23114,81,80,0
882.17163,882.3353,79,80,0
882.2609,882.4097,81,80,0
882.3502,882.52136,79,80,0
882.4395,882.5883,81,80,0
882.5288,882.68134,79,80,0
882.6181,882.7669,81,80,0
882.70734,882.87103,79,80,0
882.79663,882.94543,81,80,0
882.8859,883.0608,79,80,0
882.9752,883.124,81,80,0
883.0645,883.23566,79,80,0
883.1538,883.3026,81,80,0
883.24304,883.40674,79,80,0
883.33234,883.48114,81,80,0
883.42163,883.5965,79,80,0
883.5109,883.6597,81,80,0
882.6181,883.6746,89,80,0
883.6002,883.7602,79,80,0
883.6895,883.8383,81,80,0
883.7788,883.9425,79,80,0
883.86804,884.03546,81,80,0
883.95734,884.12103,79,80,0
884.04663,884.19543,81,80,0
884.1359,884.2959,79,80,0
884.2252,884.374,81,80,0
883.6895,884.3889,86,80,0
884.3145,884.48566,79,80,0
884.4038,884.5526,81,80,0
884.49304,884.66046,79,80,0
884.58234,884.73114,81,80,0
884.4038,884.74603,84,80,0
884.67163,884.8316,79,80,0
884.7609,884.9097,81,80,0
884.8502,885.01764,79,80,0
884.9395,885.0883,81,80,0
885.0288,885.2036,79,80,0
885.11804,885.2669,81,80,0
885.20734,885.37476,79,80,0
885.29663,885.44543,81,80,0
885.3859,885.5496,79,80,0
885.4752,885.624,81,80,0
885.5645,885.73566,79,80,0
885.6538,885.8026,81,80,0
884.7609,885.8175,83,80,0
885.74304,885.90674,79,80,0
885.83234,885.98114,81,80,0
885.92163,886.08905,79,80,0
886.0109,886.1597,81,80,0
886.1002,886.2751,79,80,0
886.1895,886.3383,81,80,0
886.2788,886.4425,79,80,0
886.36804,886.5169,81,80,0
886.45734,886.62103,79,80,0
886.54663,886.69543,81,80,0
886.6359,886.80707,79,80,0
886.7252,886.874,81,80,0
885.83234,886.8889,84,80,0
886.8145,886.98193,79,80,0
886.9038,887.0526,81,80,0
886.99304,887.1679,79,80,0
887.08234,887.23114,81,80,0
887.17163,887.3486,79,80,0
887.2609,887.4134,81,80,0
887.3524,887.51245,79,80,0
887.44385,887.5963,81,80,0
886.9038,887.6115,86,80,0
887.53534,887.623,79,80,0
887.6268,887.7166,79,80,0
887.6268,887.783,81,80,0
887.7205,887.90295,79,80,0
887.8143,887.9832,81,80,0
887.91565,888.1068,79,80,0
888.01697,888.1732,81,80,0
888.1107,888.2943,79,80,0
888.20447,888.3607,81,80,0
888.2982,888.4818,79,80,0
888.39197,888.5482,81,80,0
888.4857,888.6615,79,80,0
888.57947,888.7357,81,80,0
888.6732,888.849,79,80,0
888.76697,888.9232,81,80,0
888.8607,889.0326,79,80,0
888.95447,889.1107,81,80,0
889.0482,889.2318,79,80,0
889.14197,889.2982,81,80,0
889.2357,889.4154,79,80,0
889.32947,889.4857,81,80,0
889.4232,889.599,79,80,0
889.51697,889.6732,81,80,0
889.6107,889.7865,79,80,0
889.70447,889.8607,81,80,0
889.7982,889.9818,79,80,0
889.89197,890.0482,81,80,0
889.9857,890.1615,79,80,0
890.07947,890.2357,81,80,0
890.1732,890.3529,79,80,0
890.26697,890.4232,81,80,0
890.3607,890.5248,79,80,0
890.45447,890.6107,81,80,0
890.5482,890.7201,79,80,0
890.64197,890.7982,81,80,0
890.7357,890.9037,79,80,0
890.82947,890.9857,81,80,0
890.26697,891.00134,74,80,0
890.9232,891.1068,79,80,0
891.01697,891.1732,81,80,0
891.1107,891.2943,79,80,0
891.20447,891.3607,81,80,0
891.01697,891.37634,67,80,0
891.2982,891.474,79,80,0
891.39197,891.5482,81,80,0
891.4857,891.6654,79,80,0
891.57947,891.7357,81,80,0
891.6732,891.8529,79,80,0
891.76697,891.9232,81,80,0
891.8607,892.0209,79,80,0
891.95447,892.1107,81,80,0
892.0482,892.224,79,80,0
892.14197,892.2982,81,80,0
892.2357,892.4154,79,80,0
892.32947,892.4857,81,80,0
892.4232,892.599,79,80,0
892.51697,892.6732,81,80,0
892.6107,892.7943,79,80,0
892.70447,892.8607,81,80,0
892.7982,892.9818,79,80,0
892.89197,893.0482,81,80,0
892.9857,893.1615,79,80,0
893.07947,893.2357,81,80,0
891.39197,893.25134,67,80,0
893.1732,893.3451,79,80,0
893.26697,893.4232,81,80,0
893.3607,893.5365,79,80,0
893.45447,893.6107,81,80,0
893.26697,893.6185,84,80,0
893.5482,893.7318,79,80,0
893.64197,893.7982,81,80,0
893.7357,893.9193,79,80,0
893.82947,893.9857,81,80,0
893.64197,894.00134,85,80,0
893.9232,894.099,79,80,0
894.01697,894.1732,81,80,0
894.1107,894.2865,79,80,0
894.20447,894.3607,81,80,0
894.01697,894.37634,86,80,0
894.2982,894.38806,79,80,0
894.39197,894.4818,79,80,0
894.39197,894.5482,81,80,0
894.4857,894.6615,79,80,0
894.57947,894.7357,81,80,0
894.6732,894.8529,79,80,0
894.76697,894.9232,81,80,0
894.8607,895.0326,79,80,0
894.95447,895.1107,81,80,0
895.0482,895.2318,79,80,0
895.14197,895.2982,81,80,0
895.2357,895.4154,79,80,0
895.32947,895.4857,81,80,0
895.4232,895.6068,79,80,0
895.51697,895.6732,81,80,0
895.6107,895.7943,79,80,0
895.70447,895.8607,81,80,0
895.7982,895.9818,79,80,0
895.89197,896.0482,81,80,0
895.9857,896.1654,79,80,0
896.07947,896.2357,81,80,0
896.1732,896.3451,79,80,0
896.26697,896.4232,81,80,0
896.3607,896.5443,79,80,0
896.45447,896.6107,81,80,0
896.5482,896.72833,79,80,0
896.64197,896.80646,81,80,0
896.74066,896.9339,79,80,0
896.83936,897.00385,81,80,0
896.64197,897.02026,72,80,0
896.93805,897.13385,79,80,0
897.03674,897.2056,81,80,0
897.13806,897.33234,79,80,0
897.23944,897.4083,81,80,0
897.03674,897.42523,73,80,0
897.34076,897.52893,79,80,0
897.44214,897.6157,81,80,0
897.54626,897.7531,79,80,0
897.65045,897.82904,81,80,0
897.44214,897.84686,74,80,0
897.7576,897.97217,79,80,0
897.86475,898.06006,81,80,0
897.86475,898.18243,67,80,0
897.98193,898.2137,79,80,0
898.0991,898.30743,81,80,0
898.2241,898.4533,79,80,0
898.3491,898.4533,79,80,0
898.5158,898.7798,81,80,0
898.67725,898.9451,79,80,0
898.8335,899.09985,78,80,0
898.9764,899.23444,79,80,0
899.11725,899.3533,81,80,0
899.2561,899.5095,83,80,0
899.39124,899.63617,84,80,0
899.52637,899.75867,81,80,0
899.6615,899.91064,83,80,0
899.79663,900.05005,84,80,0
899.93176,900.18097,83,80,0
900.0669,900.3161,81,80,0
900.2021,900.44275,83,80,0
900.3372,900.6033,84,80,0
900.47235,900.7215,86,80,0
900.6075,900.86084,88,80,0
900.7426,900.996,84,80,0
900.87775,901.1227,86,80,0
901.0129,901.2493,88,80,0
901.148,901.40137,86,80,0
901.28314,901.51965,85,80,0
901.4183,901.659,86,80,0
901.5534,901.80255,88,80,0
901.68854,901.9419,89,80,0
901.82367,902.0728,91,80,0
901.9588,902.21643,88,80,0
902.09393,902.33887,89,80,0
902.22906,902.4867,91,80,0
902.3642,902.63025,89,80,0
902.4993,902.7654,88,80,0
902.6345,902.8879,89,80,0
902.76965,903.0272,88,80,0
902.9048,903.15393,86,80,0
903.0399,903.30597,88,80,0
903.17505,903.4284,86,80,0
903.3102,903.56775,84,80,0
903.4453,903.71136,86,80,0
903.58044,903.8465,84,80,0
903.7156,903.9816,83,80,0
903.8507,904.11676,84,80,0
903.98584,904.24347,83,80,0
904.121,904.3743,84,80,0
904.2561,904.52216,86,80,0
904.39124,904.62775,84,80,0
904.52637,904.7924,86,80,0
904.6615,904.92334,88,80,0
904.79663,905.0346,86,80,0
904.93176,905.1867,88,80,0
905.06335,905.30597,89,80,0
905.19495,905.4532,91,80,0
905.32654,905.6025,93,80,0
905.4617,905.7587,91,80,0
905.60736,905.8678,95,80,0
905.7636,906.012,96,80,0
905.8918,906.1322,95,81,0
906.02,906.24835,93,82,0
906.1482,906.40063,91,83,0
906.2764,906.49677,89,84,0
906.4046,906.65704,88,85,0
906.53284,906.75806,86,86,0
906.661,906.89374,84,88,0
906.79095,907.0171,83,89,0
906.9225,907.17334,84,90,0
907.0541,907.30493,83,91,0
907.18567,907.4439,81,92,0
907.31726,907.5833,79,93,0
907.4524,907.71844,77,94,0
907.5875,907.81976,76,96,0
907.72266,907.9601,74,97,0
907.8578,908.11633,72,98,0
907.9948,908.25085,71,99,0
908.13367,908.3941,72,100,0
908.2726,908.5156,71,101,0
908.41144,908.6632,69,102,0
908.55035,908.8078,67,104,0
908.6893,908.9685,65,105,0
908.83014,909.0999,64,106,0
908.97296,909.28235,62,107,0
909.1292,909.4511,60,108,0
909.3074,909.6132,59,109,0
909.54486,910.4628,60,110,0
910.48236,910.9316,55,110,0
910.9511,912.5946,55,110,0
912.61774,913.79834,77,120,0
913.8255,914.4505,71,110,0
914.47766,915.7548,89,120,0
915.78204,916.40704,83,100,0
916.4342,917.71136,86,80,0
916.4342,917.71136,77,80,0
916.4342,917.71136,74,80,0
917.7385,918.3635,84,80,0
917.7385,918.3635,76,80,0
917.7385,918.3635,72,80,0
918.3907,919.8237,84,80,0
918.3907,919.8237,76,80,0
918.3907,919.8237,72,80,0
920.68835,922.4691,84,70,0
920.68835,922.4691,76,70,0
920.68835,922.4691,72,70,0
924.0082,931.4457,52,70,0
924.0082,931.4457,55,70,0
924.0082,931.4457,60,70,0
937.5082,940.4457,60,1,0
0.0,1.4791666,43,80,0
0.0,1.4791666,36,80,0
1.5,2.96875,43,80,0
1.5,2.96875,36,80,0
3.0,4.631944,43,80,0
3.0,4.631944,38,80,0
4.6666665,6.1354165,43,80,0
4.6666665,6.1354165,36,80,0
6.1666665,7.645833,43,80,0
6.1666665,7.645833,35,80,0
7.6666665,9.145833,43,80,0
7.6666665,9.145833,36,80,0
9.166666,10.645833,43,80,0
9.166666,10.645833,38,80,0
10.666666,12.145833,43,80,0
10.666666,12.145833,40,80,0
12.166666,13.645833,43,80,0
12.166666,13.645833,36,80,0
13.666666,15.145833,43,80,0
13.666666,15.145833,40,80,0
16.666666,18.145834,43,80,0
15.166666,19.145834,31,80,0
18.166666,19.145834,43,80,0
19.166666,19.645834,41,80,0
19.166666,19.645834,29,80,0
19.666666,22.645834,40,80,0
19.666666,22.645834,28,80,0
22.666666,24.145834,40,100,0
22.666666,24.145834,28,100,0
24.166666,27.145834,38,100,0
24.166666,27.145834,26,100,0
27.166666,28.145834,41,85,0
27.166666,28.145834,29,85,0
28.166666,28.645834,42,80,0
28.166666,28.645834,30,80,0
28.666666,30.145834,43,80,0
28.666666,31.645834,31,80,0
30.166666,31.645834,45,80,0
31.666666,32.645832,47,80,0
32.666668,34.145832,47,80,0
34.166668,34.645832,47,90,0
34.666668,35.645832,48,90,0
35.666668,36.145832,50,80,0
36.166668,37.645832,43,80,0
36.166668,37.645832,36,80,0
37.666668,39.135418,43,80,0
37.666668,39.135418,36,80,0
39.166668,40.79861,43,80,0
39.166668,40.79861,38,80,0
40.833332,42.302082,43,80,0
40.833332,42.302082,36,80,0
42.333332,43.8125,43,80,0
42.333332,43.8125,35,80,0
43.833332,45.3125,43,80,0
43.833332,45.3125,36,80,0
45.333332,46.8125,43,80,0
45.333332,46.8125,38,80,0
46.833332,48.3125,43,80,0
46.833332,48.3125,40,80,0
48.333332,49.8125,43,80,0
48.333332,49.8125,36,80,0
49.833332,51.3125,43,80,0
49.833332,51.3125,40,80,0
52.833332,54.3125,43,80,0
51.333332,55.3125,31,80,0
54.333332,55.3125,43,80,0
55.333332,55.8125,41,80,0
55.333332,55.8125,29,80,0
55.833332,58.8125,40,80,0
55.833332,58.8125,28,80,0
58.833332,60.3125,40,100,0
58.833332,60.3125,28,100,0
60.333332,63.3125,38,100,0
60.333332,63.3125,26,100,0
63.333332,64.3125,41,85,0
63.333332,64.3125,29,85,0
64.333336,64.8125,42,80,0
64.333336,64.8125,30,80,0
64.833336,66.3125,43,80,0
64.833336,67.8125,31,80,0
66.333336,67.8125,45,80,0
67.833336,68.8125,47,80,0
68.833336,70.3125,47,80,0
70.333336,70.8125,48,90,0
70.833336,71.8125,50,90,0
71.833336,72.3125,48,80,0
72.333336,73.8125,52,80,0
73.833336,76.8125,45,80,0
75.333336,76.8125,52,80,0
76.833336,78.3125,52,80,0
76.833336,78.3125,45,80,0
78.333336,81.3125,44,80,0
79.833336,81.3125,52,80,0
81.333336,82.8125,52,80,0
81.333336,82.8125,44,80,0
82.833336,84.3125,52,80,0
82.833336,84.3125,44,80,0
84.333336,85.8125,52,80,0
84.333336,85.8125,45,80,0
85.833336,87.3125,52,80,0
85.833336,87.3125,45,80,0
87.333336,90.3125,40,80,0
88.833336,90.3125,52,80,0
90.333336,91.8125,45,80,0
90.333336,91.8125,33,80,0
91.833336,94.8125,43,80,0
91.833336,94.8125,31,80,0
94.833336,96.3125,43,87,0
94.833336,96.3125,31,87,0
96.333336,99.3125,48,90,0
96.333336,99.3125,36,90,0
99.333336,100.8125,41,97,0
99.333336,100.8125,29,97,0
100.833336,102.3125,43,101,0
100.833336,102.3125,31,101,0
102.333336,103.8125,43,105,0
102.333336,103.8125,31,105,0
103.833336,104.8125,43,108,0
103.833336,104.8125,31,108,0
104.833336,105.3125,43,110,0
104.833336,105.3125,31,110,0
105.333336,106.3125,43,110,0
105.333336,106.3125,31,110,0
106.333336,106.8125,48,90,0
106.333336,106.8125,36,90,0
106.833336,108.3125,48,80,0
106.833336,108.3125,36,80,0
108.333336,109.8125,52,80,0
109.833336,112.8125,45,80,0
111.333336,112.8125,52,80,0
112.833336,114.3125,52,80,0
112.833336,114.3125,45,80,0
114.333336,117.3125,44,80,0
115.833336,117.3125,52,80,0
117.333336,118.8125,52,80,0
117.333336,118.8125,44,80,0
118.833336,120.3125,52,80,0
118.833336,120.3125,44,80,0
120.333336,121.8125,52,80,0
120.333336,121.8125,45,80,0
121.833336,123.3125,52,80,0
121.833336,123.3125,45,80,0
123.333336,126.3125,40,80,0
124.833336,126.3125,52,80,0
126.333336,127.8125,45,80,0
126.333336,127.8125,33,80,0
127.833336,130.8125,43,80,0
127.833336,130.8125,31,80,0
130.83333,132.3125,43,87,0
130.83333,132.3125,31,87,0
132.33333,135.3125,48,90,0
132.33333,135.3125,36,90,0
135.33333,136.8125,41,97,0
135.33333,136.8125,29,97,0
136.83333,138.3125,43,101,0
136.83333,138.3125,31,101,0
138.33333,139.8125,43,105,0
138.33333,139.8125,31,105,0
139.83333,140.8125,43,108,0
139.83333,140.8125,31,108,0
140.83333,141.3125,43,110,0
140.83333,141.3125,31,110,0
141.33333,142.3125,43,110,0
141.33333,142.3125,31,110,0
142.33333,142.8125,48,90,0
142.33333,142.8125,36,90,0
142.83333,143.3125,48,80,0
142.83333,143.3125,36,80,0
143.33333,143.8125,55,80,0
143.83333,144.3125,53,80,0
144.33333,144.8125,52,80,0
144.83333,145.3125,48,80,0
145.33333,146.3125,55,80,0
146.33333,146.8125,49,80,0
146.83333,147.8125,55,80,0
147.83333,148.3125,50,80,0
148.33333,149.3125,55,80,0
149.33333,149.8125,46,80,0
149.83333,150.8125,55,80,0
150.83333,151.3125,47,80,0
151.33333,152.3125,55,80,0
152.33333,152.8125,48,80,0
152.83333,153.3125,55,80,0
153.33333,153.8125,52,80,0
153.83333,154.3125,50,80,0
154.33333,155.3125,55,80,0
155.33333,155.8125,51,80,0
155.83333,156.3125,52,80,0
156.33333,156.8125,55,80,0
156.83333,157.3125,48,80,0
157.33333,158.3125,55,80,0
158.33333,158.8125,52,80,0
158.83333,159.8125,55,80,0
159.83333,160.3125,42,80,0
160.33333,161.3125,55,80,0
161.33333,161.8125,43,80,0
161.83333,162.8125,55,80,0
162.83333,163.3125,41,80,0
163.33333,164.3125,55,80,0
164.33333,164.8125,40,82,0
164.83333,165.8125,55,85,0
165.83333,166.3125,36,90,0
166.33333,167.3125,52,93,0
167.33333,167.8125,36,98,0
167.83333,168.8125,52,100,0
168.83333,169.3125,37,98,0
169.33333,170.3125,52,95,0
170.33333,170.8125,38,90,0
170.83333,171.3125,53,87,0
171.33333,171.8125,54,85,0
171.83333,172.3125,42,82,0
172.33333,172.8125,57,80,0
172.83333,173.3125,56,80,0
173.33333,173.8125,43,80,0
173.83333,174.3125,55,80,0
174.33333,174.8125,57,80,0
174.83333,175.3125,43,80,0
175.33333,176.3125,59,80,0
176.33333,176.8125,59,80,0
176.83333,177.3125,59,80,0
177.33333,177.8125,59,80,0
177.83333,178.3125,60,80,0
178.33333,178.8125,53,80,0
178.83333,179.3125,52,80,0
179.33333,179.8125,53,80,0
179.83333,180.3125,50,80,0
180.33333,180.8125,52,80,0
180.83333,181.3125,48,80,0
181.33333,182.3125,55,80,0
181.83333,182.3125,55,80,0
182.33333,182.8125,49,80,0
182.83333,183.8125,55,80,0
183.83333,184.3125,50,80,0
184.33333,185.3125,55,80,0
185.33333,185.8125,46,80,0
185.83333,186.8125,55,80,0
186.83333,187.3125,47,80,0
187.33333,188.3125,55,80,0
188.33333,188.8125,48,80,0
188.83333,189.3125,55,80,0
189.33333,189.8125,52,80,0
189.83333,190.3125,50,80,0
190.33333,191.3125,55,80,0
191.33333,191.8125,51,80,0
191.83333,192.3125,52,80,0
192.33333,192.8125,55,80,0
192.83333,193.3125,48,80,0
193.33333,194.3125,55,80,0
194.33333,194.8125,52,80,0
194.83333,195.8125,55,80,0
195.83333,196.3125,42,80,0
196.33333,197.3125,55,80,0
197.33333,197.8125,43,80,0
197.83333,198.8125,55,80,0
198.83333,199.3125,41,80,0
199.33333,200.3125,55,80,0
200.33333,200.8125,40,82,0
200.83333,201.8125,55,85,0
201.83333,202.3125,36,90,0
202.33333,203.3125,52,93,0
203.33333,203.8125,36,98,0
203.83333,204.8125,52,100,0
204.83333,205.3125,37,98,0
205.33333,206.3125,52,95,0
206.33333,206.8125,38,90,0
206.83333,207.3125,53,87,0
207.33333,207.8125,54,85,0
207.83333,208.3125,42,82,0
208.33333,208.8125,57,80,0
208.83333,209.3125,56,80,0
209.33333,209.8125,43,80,0
209.83333,210.3125,55,80,0
210.33333,210.8125,57,80,0
210.83333,211.3125,43,80,0
211.33333,212.3125,59,80,0
212.33333,212.8125,59,80,0
212.83333,213.8125,59,80,0
213.83333,214.3125,60,80,0
214.33333,214.8125,62,80,0
214.83333,215.3125,60,80,0
215.33333,215.8125,59,80,0
215.83333,216.3125,57,80,0
216.33333,216.8125,56,80,0
216.83333,217.3125,57,80,0
217.33333,217.8125,59,80,0
217.83333,218.3125,57,80,0
218.33333,218.8125,45,80,0
218.83333,219.8125,52,80,0
219.83333,220.3125,44,80,0
220.33333,221.3125,52,80,0
221.33333,221.8125,45,80,0
221.83333,222.8125,52,80,0
222.83333,223.3125,44,80,0
223.33333,224.3125,52,80,0
224.33333,224.8125,45,80,0
224.83333,225.8125,52,80,0
225.83333,226.3125,44,80,0
226.33333,227.3125,56,80,0
227.33333,227.8125,56,80,0
227.83333,228.8125,57,80,0
228.83333,229.3125,57,80,0
229.33333,230.3125,59,80,0
230.33333,230.8125,60,80,0
230.83333,231.3125,62,80,0
231.33333,231.8125,63,80,0
231.83333,232.3125,64,80,0
232.33333,232.86574,64,80,0
232.88889,233.4213,64,80,0
233.44444,233.97685,57,80,0
234.0,234.53241,57,80,0
234.55556,235.08797,57,80,0
235.11111,235.64352,55,80,0
235.66667,236.70139,55,80,0
236.72223,237.20139,43,81,0
237.22223,238.20139,55,82,0
238.22223,238.70139,43,84,0
238.72223,239.70139,55,85,0
239.72223,240.20139,43,88,0
240.22223,241.20139,55,89,0
241.22223,241.70139,36,91,0
241.72223,242.70139,48,93,0
242.72223,243.20139,36,95,0
243.22223,244.20139,48,96,0
244.22223,244.70139,29,99,0
244.72223,245.20139,41,100,0
245.22223,245.70139,43,101,0
245.72223,246.20139,31,102,0
246.22223,247.20139,43,103,0
247.22223,247.70139,31,106,0
247.72223,248.70139,43,107,0
248.72223,249.20139,31,109,0
249.22223,249.70139,47,110,0
249.72223,250.20139,47,110,0
250.22223,250.70139,55,103,0
250.22223,250.70139,43,103,0
250.72223,251.20139,55,95,0
250.72223,251.70139,48,95,0
251.22223,251.70139,57,87,0
251.72223,252.20139,55,80,0
251.72223,252.20139,48,80,0
252.22223,252.70139,52,80,0
252.72223,253.23561,53,80,0
253.25793,253.79034,52,80,0
253.81349,254.94589,52,80,0
254.96904,255.48244,45,80,0
255.50476,256.48392,52,80,0
256.50476,256.98392,44,80,0
257.00476,257.98392,52,80,0
258.00476,258.48392,45,80,0
258.50476,259.48392,52,80,0
259.50476,259.98392,44,80,0
260.00476,260.98392,52,80,0
261.00476,261.48392,45,80,0
261.50476,262.48392,52,80,0
262.50476,262.98392,44,80,0
263.00476,263.98392,56,80,0
264.00476,264.48392,56,80,0
264.50476,265.48392,57,80,0
265.50476,265.98392,57,80,0
266.00476,266.98392,59,80,0
267.00476,267.48392,60,80,0
267.50476,267.98392,62,80,0
268.00476,268.48392,63,80,0
268.50476,268.98392,64,80,0
269.00476,269.51816,64,80,0
269.54047,270.05386,64,80,0
270.0762,270.6086,57,80,0
270.63174,271.16415,57,80,0
271.1873,271.7197,57,80,0
271.74286,272.31787,55,80,0
272.34286,273.47525,55,80,0
273.4984,274.0118,43,81,0
274.03412,275.0133,55,82,0
275.03412,275.5133,43,84,0
275.53412,276.5133,55,85,0
276.53412,277.0133,43,88,0
277.03412,278.0133,55,89,0
278.03412,278.5133,36,91,0
278.53412,279.5133,48,93,0
279.53412,280.0133,36,95,0
280.03412,281.0133,48,96,0
281.03412,281.5133,29,99,0
281.53412,282.0133,41,100,0
282.03412,282.5133,43,101,0
282.53412,283.0133,31,102,0
283.03412,284.0133,43,103,0
284.03412,284.5133,31,106,0
284.53412,285.5133,43,107,0
285.53412,286.0133,31,109,0
286.03412,286.5133,47,110,0
286.53412,287.0133,47,110,0
287.03412,287.5133,55,104,0
287.03412,287.5133,43,104,0
287.53412,288.0133,55,98,0
287.53412,288.5133,48,98,0
288.03412,288.5133,57,92,0
288.53412,289.0133,55,86,0
288.53412,289.0133,48,86,0
289.03412,289.5133,55,80,0
289.03412,289.5133,48,80,0
289.53412,289.92264,60,80,0
289.93954,290.12534,55,80,0
290.14224,290.53076,54,80,0
290.54764,290.73346,55,80,0
290.75034,291.34155,55,80,0
291.35846,292.55777,55,80,0
292.57468,293.1659,55,80,0
293.18277,293.5713,50,80,0
293.58817,293.774,43,80,0
293.7909,294.17938,42,80,0
294.1963,294.3821,43,80,0
294.399,294.9902,45,80,0
295.0071,296.20642,47,80,0
296.2233,296.8145,48,80,0
296.83142,297.42264,49,80,0
297.4395,298.03073,50,80,0
298.04764,298.63885,51,80,0
298.65573,299.24695,52,80,0
299.26385,299.65237,50,80,0
299.66925,299.85507,47,80,0
299.87195,300.26047,50,80,0
300.27737,300.46317,48,80,0
300.48007,300.8686,53,80,0
300.88547,301.0713,51,80,0
301.08817,301.47668,53,80,0
301.4936,301.67938,52,80,0
301.6963,302.8956,55,80,0
302.9125,304.11182,43,80,0
304.12872,304.51724,41,80,0
304.53412,304.71994,40,80,0
304.73682,305.12534,43,80,0
305.14224,305.32803,41,80,0
305.34494,305.73343,40,80,0
305.75034,305.93616,38,82,0
305.95303,306.34155,41,83,0
306.35843,306.54425,40,86,0
306.56116,306.94965,36,87,0
306.96655,307.15237,35,89,0
307.16925,307.55777,38,91,0
307.57465,307.76047,36,93,0
307.77737,308.16586,34,94,0
308.18277,308.3686,33,97,0
308.38547,308.774,36,98,0
308.79086,308.97668,34,100,0
308.9936,309.5848,33,100,0
309.60168,310.1929,45,95,0
310.2098,310.801,38,90,0
310.8179,311.40912,50,85,0
311.426,312.0172,41,80,0
312.03412,313.03073,41,80,0
313.04764,313.23343,42,80,0
313.25034,313.63885,45,80,0
313.65573,313.84155,43,80,0
313.85843,314.44965,45,80,0
313.85843,315.66586,43,80,0
314.46655,315.66586,46,80,0
315.68277,316.67938,43,80,0
315.68277,316.88208,47,80,0
316.6963,316.88208,47,80,0
316.899,317.2875,50,80,0
317.30438,317.4902,52,80,0
317.50708,317.8956,53,80,0
317.9125,318.0983,52,80,0
318.1152,318.50372,50,80,0
318.5206,318.70642,48,80,0
318.7233,319.11182,60,80,0
319.12872,319.3145,55,80,0
319.33142,319.71994,54,80,0
319.73682,319.92264,55,80,0
319.9395,320.53073,55,80,0
320.54764,321.74695,55,80,0
321.76385,322.35507,55,80,0
322.37195,322.76047,50,80,0
322.77734,322.96317,43,80,0
322.98007,323.36856,42,80,0
323.38547,323.5713,43,80,0
323.58817,324.17938,45,80,0
324.1963,325.3956,47,80,0
325.41248,326.0037,48,80,0
326.0206,326.61182,49,80,0
326.6287,327.2199,50,80,0
327.23682,327.82803,51,80,0
327.8449,328.43613,52,80,0
328.45303,328.84155,50,80,0
328.85843,329.04425,47,80,0
329.06113,329.44965,50,80,0
329.46655,329.65234,48,80,0
329.66925,330.05777,53,80,0
330.07465,330.26047,51,80,0
330.27734,330.66586,53,80,0
330.68277,330.86856,52,80,0
330.88547,332.08478,55,80,0
332.10168,333.301,43,80,0
333.3179,333.70642,41,80,0
333.7233,333.90912,40,80,0
333.926,334.3145,43,80,0
334.33142,334.5172,41,80,0
334.53412,334.9226,40,80,0
334.9395,335.12534,38,82,0
335.1422,335.53073,41,83,0
335.5476,335.73343,40,86,0
335.75034,336.13882,36,87,0
336.15573,336.34155,35,89,0
336.35843,336.74695,38,91,0
336.76382,336.94965,36,93,0
336.96655,337.35504,34,94,0
337.37195,337.55777,33,97,0
337.57465,337.96317,36,98,0
337.98004,338.16586,34,100,0
338.18277,338.774,33,100,0
338.79086,339.38208,45,95,0
339.39896,339.99017,38,90,0
340.00708,340.5983,50,85,0
340.61517,341.2064,41,80,0
341.2233,342.2199,41,80,0
342.23682,342.4226,42,80,0
342.4395,342.82803,45,80,0
342.8449,343.03073,43,80,0
343.0476,343.63882,45,80,0
343.0476,344.85504,43,80,0
343.65573,344.85504,46,80,0
344.87195,345.86856,43,80,0
344.87195,346.07126,47,80,0
345.88547,346.07126,47,80,0
346.08817,346.47668,50,80,0
346.49356,346.67938,48,80,0
346.69626,347.08478,48,80,0
347.10168,347.28748,47,80,0
347.30438,347.6929,45,80,0
347.70978,348.32318,44,80,0
348.34106,348.5559,44,80,0
348.57544,349.03897,45,80,0
349.0598,349.28897,47,80,0
349.76434,349.9608,51,80,0
349.3098,350.37872,45,80,0
350.39563,350.58142,44,80,0
349.97864,350.78415,52,80,0
351.00372,351.18954,51,80,0
350.59833,351.59494,45,80,0
351.61185,351.79764,44,80,0
351.20642,352.20306,52,80,0
352.21994,352.40576,51,80,0
351.81454,352.81116,45,80,0
352.82806,353.01385,44,80,0
352.42264,353.41928,52,80,0
353.43616,353.62198,53,80,0
353.03076,354.02737,44,80,0
354.04428,354.23007,45,80,0
353.63885,354.6355,52,80,0
354.65237,354.8382,53,80,0
354.24698,355.2436,44,80,0
355.2605,355.4463,45,80,0
354.85507,355.8517,52,80,0
355.8686,356.0544,53,80,0
355.4632,356.4598,44,80,0
356.4767,356.6625,45,80,0
356.0713,357.0679,52,80,0
357.0848,357.27063,44,80,0
357.0848,357.27063,32,80,0
357.2875,358.48685,45,80,0
358.30103,358.48685,45,80,0
357.2875,358.48685,33,80,0
358.30103,358.48685,33,80,0
358.50372,358.89224,47,80,0
358.50372,358.89224,35,80,0
359.11185,359.50034,48,80,0
359.11185,359.50034,36,80,0
359.51724,359.70306,50,80,0
359.51724,359.70306,38,80,0
359.71994,360.10846,51,80,0
359.71994,360.10846,39,80,0
360.12534,360.31116,52,80,0
360.12534,360.31116,40,80,0
360.32806,360.71655,52,80,0
360.32806,360.71655,40,80,0
360.73346,361.32468,52,82,0
360.73346,361.32468,40,82,0
361.34155,361.93277,52,87,0
361.34155,361.93277,40,87,0
361.94968,362.5409,45,91,0
361.94968,362.5409,33,91,0
362.55777,363.149,45,96,0
362.55777,363.149,33,96,0
363.1659,363.7571,43,100,0
363.1659,363.7571,31,100,0
363.774,363.9598,43,80,0
363.774,363.9598,31,80,0
363.97668,364.3652,43,80,0
363.97668,364.3652,31,80,0
364.3821,364.5679,65,80,0
364.5848,364.97333,64,80,0
364.9902,365.17603,65,81,0
365.1929,365.58142,65,82,0
365.59833,365.78412,62,83,0
365.80103,366.18954,61,84,0
366.20642,366.39224,62,85,0
364.5848,367.00034,55,80,0
366.40912,367.00034,59,86,0
367.01724,367.40576,62,87,0
367.42264,367.60846,60,89,0
367.62534,368.01385,60,89,0
367.01724,368.21655,55,87,0
368.03076,368.21655,64,90,0
368.23346,368.62198,62,91,0
368.63885,369.23007,64,92,0
368.23346,369.43277,60,91,0
369.24698,369.43277,67,94,0
369.44968,369.8382,66,95,0
369.85507,370.4463,67,96,0
369.44968,370.649,60,95,0
370.4632,370.649,67,98,0
370.6659,371.0544,64,98,0
370.6659,371.2571,53,98,0
371.0713,371.2571,65,100,0
371.274,371.6625,54,100,0
371.274,371.8652,60,100,0
371.6794,371.8652,57,101,0
371.8821,372.2706,60,102,0
371.8821,372.2706,54,102,0
372.2875,372.87872,59,103,0
372.2875,373.08142,55,103,0
372.8956,373.08142,59,105,0
373.09833,373.68954,60,106,0
373.70642,374.09494,61,107,0
373.09833,374.29764,55,106,0
374.11182,374.29764,62,109,0
374.31454,374.70303,65,109,0
374.31454,374.70303,62,109,0
374.31454,374.70303,55,109,0
374.71994,374.90576,65,110,0
374.71994,374.90576,62,110,0
374.71994,374.90576,55,110,0
374.92264,375.31116,65,110,0
374.92264,375.31116,62,110,0
374.92264,375.31116,55,110,0
375.32803,375.51385,55,100,0
375.32803,375.51385,43,100,0
375.53076,375.91925,57,95,0
375.53076,375.91925,45,95,0
375.93616,376.12198,59,85,0
375.93616,376.12198,47,85,0
376.13885,376.52737,60,80,0
376.13885,376.52737,48,80,0
376.54425,376.7407,50,80,0
376.75854,377.16925,52,80,0
377.1871,377.38354,53,80,0
377.4014,377.837,52,80,0
377.85596,378.06427,50,80,0
378.08322,378.52533,48,80,0
378.54486,378.7597,47,80,0
379.20782,379.39362,51,80,0
378.77924,379.79904,45,80,0
379.81592,380.00174,44,80,0
379.41052,380.20444,52,80,0
380.42404,380.60983,51,80,0
380.01862,381.01526,45,80,0
381.03214,381.21796,44,80,0
380.62674,381.62335,52,80,0
381.64026,381.82605,51,80,0
381.23483,382.23148,45,80,0
382.24835,382.43417,44,80,0
381.84296,382.83957,52,80,0
382.85648,383.04227,53,80,0
382.45105,383.4477,44,80,0
383.46457,383.6504,45,80,0
383.05917,384.0558,52,80,0
384.0727,384.25848,53,80,0
383.66727,384.66388,44,80,0
384.6808,384.8666,45,80,0
384.2754,385.272,52,80,0
385.28888,385.4747,53,80,0
384.88348,385.8801,44,80,0
385.897,386.08282,45,80,0
385.4916,386.48822,52,80,0
386.5051,386.69092,44,80,0
386.5051,386.69092,32,80,0
386.70782,387.90714,45,80,0
387.7213,387.90714,45,80,0
386.70782,387.90714,33,80,0
387.7213,387.90714,33,80,0
387.92404,388.31253,47,80,0
387.92404,388.31253,35,80,0
388.53214,388.92065,48,80,0
388.53214,388.92065,36,80,0
388.93753,389.12335,50,80,0
388.93753,389.12335,38,80,0
389.14026,389.52875,51,80,0
389.14026,389.52875,39,80,0
389.54565,389.73145,52,80,0
389.54565,389.73145,40,80,0
389.74835,390.13687,52,80,0
389.74835,390.13687,40,80,0
390.15375,390.74496,52,82,0
390.15375,390.74496,40,82,0
390.76187,391.3531,52,87,0
390.76187,391.3531,40,87,0
391.36996,391.9718,45,91,0
391.36996,391.9718,33,91,0
391.98965,392.61465,45,96,0
391.98965,392.61465,33,96,0
392.6325,393.3161,43,100,0
392.6325,393.3161,31,100,0
393.33563,393.53207,43,80,0
393.33563,393.53207,31,80,0
393.54993,393.96063,43,80,0
393.54993,393.96063,31,80,0
393.97852,394.1643,65,80,0
394.1812,394.56973,64,80,0
394.5866,394.77243,65,81,0
394.7893,395.17783,65,82,0
395.19473,395.38052,62,83,0
395.39743,395.78592,61,84,0
395.80283,395.98865,62,85,0
394.1812,396.59674,55,80,0
396.00552,396.59674,59,86,0
396.61365,397.00214,62,87,0
397.01904,397.20486,60,89,0
397.22174,397.61026,60,89,0
396.61365,397.81296,55,87,0
397.62714,397.81296,64,90,0
397.82986,398.21835,62,91,0
398.23526,398.82648,64,92,0
397.82986,399.02917,60,91,0
398.84335,399.02917,67,94,0
399.04608,399.43457,66,95,0
399.45148,400.0427,67,96,0
399.04608,400.2454,60,95,0
400.05957,400.2454,67,98,0
400.2623,400.6508,64,98,0
400.2623,400.8535,53,98,0
400.6677,400.8535,65,100,0
400.8704,401.2589,54,100,0
400.8704,401.4616,60,100,0
401.2758,401.4616,57,101,0
401.4785,401.867,60,102,0
401.4785,401.867,54,102,0
401.8839,402.47513,59,103,0
401.8839,402.67783,55,103,0
402.492,402.67783,59,105,0
402.6947,403.28592,60,106,0
403.30283,403.69135,61,107,0
402.6947,403.89404,55,106,0
403.70822,403.89404,62,109,0
403.91092,404.29944,65,109,0
403.91092,404.29944,62,109,0
403.91092,404.29944,55,109,0
404.31635,404.50214,65,110,0
404.31635,404.50214,62,110,0
404.31635,404.50214,55,110,0
404.51904,404.90756,65,110,0
404.51904,404.90756,62,110,0
404.51904,404.90756,55,110,0
404.92444,405.11026,55,98,0
404.92444,405.11026,43,98,0
405.12714,405.51566,57,92,0
405.12714,405.51566,45,92,0
405.53256,405.71835,59,80,0
405.53256,405.71835,47,80,0
405.73526,406.12378,60,80,0
405.73526,406.12378,48,80,0
406.14066,406.32648,71,80,0
406.34335,406.73187,72,80,0
406.74878,406.93457,74,80,0
408.1203,408.30698,36,110,0
408.3151,408.4044,40,110,0
408.4125,408.59918,43,110,0
408.6073,408.6966,48,110,0
408.7047,408.89142,52,110,0
408.8995,408.9888,55,110,0
408.99692,409.18362,59,110,0
409.19174,409.281,64,110,0
409.28912,409.47583,38,110,0
409.48395,409.5732,43,110,0
409.58133,409.76804,47,110,0
409.77615,409.86542,50,110,0
409.87354,410.06024,55,110,0
410.06836,410.15762,59,110,0
410.16574,410.35245,61,110,0
410.36057,410.44983,62,110,0
411.6268,411.81348,38,110,0
411.8216,411.9109,43,110,0
411.919,412.10568,47,110,0
412.1138,412.2031,50,110,0
412.2112,412.3979,55,110,0
412.406,412.4953,59,110,0
412.50342,412.6901,61,110,0
412.6982,412.7875,62,110,0
412.79562,412.9823,36,110,0
412.99042,413.0797,43,110,0
413.08783,413.2745,48,110,0
413.28262,413.37192,52,110,0
413.38004,413.5667,55,110,0
413.57483,413.66412,60,110,0
413.67224,413.85892,63,110,0
413.86703,413.95633,64,110,0
415.13327,415.31998,40,110,0
415.3281,415.41736,46,110,0
415.42548,415.61218,49,110,0
415.6203,415.70956,52,110,0
415.71768,415.9044,53,110,0
415.9125,416.0018,59,110,0
416.0099,416.1966,62,110,0
416.2047,416.294,65,110,0
416.30212,416.4888,51,110,0
416.49692,416.5862,55,110,0
416.59433,416.781,59,110,0
416.78912,416.87842,63,110,0
416.88654,417.0732,52,110,0
417.08133,417.17062,55,110,0
417.17874,417.36542,60,110,0
417.37354,417.46283,64,110,0
417.47095,417.65762,48,110,0
417.66574,417.75504,52,110,0
417.76315,417.94983,55,110,0
417.95795,418.04724,59,110,0
418.05536,418.24203,36,110,0
418.25015,418.33945,40,110,0
418.34756,418.53424,43,110,0
418.54236,418.63165,48,110,0
418.63977,419.11865,43,110,0
418.63977,419.11865,31,110,0
419.12677,419.7031,43,110,0
419.12677,419.7031,31,110,0
419.7112,420.2875,31,110,0
419.7112,420.2875,43,110,0
420.29562,420.87192,43,110,0
420.29562,420.87192,31,110,0
420.88004,420.9693,41,110,0
420.88004,420.9693,29,110,0
420.97742,421.16412,29,110,0
421.17224,421.26154,35,110,0
421.26962,421.45633,38,110,0
421.46445,421.55374,41,110,0
421.56186,421.74854,47,110,0
421.75665,421.84595,50,110,0
421.85406,422.04074,52,110,0
422.04886,422.13815,53,110,0
422.14627,422.43036,52,110,0
422.14627,422.43036,40,110,0
423.0229,423.20956,67,110,0
423.21768,423.30698,64,110,0
423.3151,423.50177,60,110,0
423.5099,423.59918,55,110,0
423.6073,423.79398,52,110,0
423.8021,423.8914,48,110,0
423.8995,424.08618,64,110,0
424.0943,424.1836,60,110,0
424.1917,424.3784,55,110,0
424.3865,424.4758,52,110,0
424.48392,424.6706,64,110,0
424.6787,424.768,60,110,0
424.77612,424.96283,55,110,0
424.97095,425.0602,52,110,0
425.06833,425.25504,60,110,0
425.26315,425.35242,55,110,0
425.36053,425.54724,52,110,0
425.55536,425.64462,48,110,0
425.65274,425.83945,57,110,0
425.84756,425.93683,55,110,0
425.94495,426.13165,52,110,0
426.13977,426.22903,49,110,0
426.23715,426.42386,45,110,0
426.43198,426.52127,55,110,0
426.52936,426.71606,52,110,0
426.72418,426.81348,49,110,0
426.8216,427.00827,57,110,0
427.0164,427.10568,53,110,0
427.1138,427.30048,50,110,0
427.3086,427.3979,53,110,0
427.406,427.59268,50,110,0
427.6008,427.6901,62,110,0
427.6982,427.8849,65,110,0
427.893,427.9823,62,110,0
427.99042,428.1771,65,110,0
428.1852,428.2745,62,110,0
428.28262,428.4693,57,110,0
428.47742,428.5667,53,110,0
428.57483,428.7615,65,110,0
428.76962,428.85892,62,110,0
428.86703,429.0537,57,110,0
429.06183,429.15112,53,110,0
429.15924,429.34592,55,110,0
429.35403,429.44333,65,110,0
429.45145,429.63812,62,110,0
429.64624,429.73553,59,110,0
429.74365,429.93033,55,110,0
429.93845,430.02774,59,110,0
430.03586,430.22256,62,110,0
430.23068,430.31995,65,110,0
430.32806,430.51477,56,110,0
430.5229,430.61215,68,110,0
430.62027,430.80698,65,110,0
430.8151,430.90436,60,110,0
430.91248,431.09918,57,110,0
431.1073,431.19656,60,110,0
431.20468,431.3914,65,110,0
431.3995,431.48877,69,110,0
431.4969,431.6836,58,110,0
431.6917,431.781,70,110,0
431.7891,431.9758,58,110,0
431.98392,432.0732,70,110,0
432.08133,432.268,58,110,0
432.27612,432.36542,70,110,0
432.37354,432.5602,59,110,0
432.56833,432.65762,71,110,0
432.66574,432.85242,59,110,0
432.86053,432.94983,60,110,0
432.95795,433.14462,62,110,0
433.15274,433.24203,59,110,0
433.25015,433.43683,62,110,0
433.44495,433.53424,64,110,0
433.54236,433.72903,65,110,0
433.73715,433.82645,64,110,0
433.83456,434.02124,71,110,0
434.02936,434.11865,72,110,0
434.12677,434.31345,74,110,0
434.32156,434.41086,72,110,0
434.41898,434.60565,74,110,0
434.61377,434.70306,76,110,0
434.71118,434.89786,77,110,0
434.90598,434.99527,74,110,0
436.1722,436.35892,36,110,0
436.36703,436.4563,40,110,0
436.46442,436.65112,43,110,0
436.65924,436.7485,48,110,0
436.75662,436.94333,52,110,0
436.95145,437.04074,55,110,0
437.04883,437.23553,59,110,0
437.24365,437.33295,64,110,0
437.34106,437.52774,38,110,0
437.53586,437.62515,43,110,0
437.63327,437.81995,47,110,0
437.82806,437.91736,50,110,0
437.92548,438.11215,55,110,0
438.12027,438.20956,59,110,0
438.21768,438.40436,61,110,0
438.41248,438.50177,62,110,0
439.6787,439.8654,38,110,0
439.8735,439.9628,43,110,0
439.97092,440.1576,47,110,0
440.1657,440.255,50,110,0
440.26312,440.4498,55,110,0
440.45792,440.5472,59,110,0
440.55533,440.74203,61,110,0
440.75015,440.83942,62,110,0
440.84753,441.03424,36,110,0
441.04236,441.13162,43,110,0
441.13974,441.32645,48,110,0
441.33456,441.42383,52,110,0
441.43195,441.61865,55,110,0
441.62677,441.71603,60,110,0
441.72415,441.91086,63,110,0
441.91898,442.00824,64,110,0
443.1852,443.3719,40,110,0
443.38,443.4693,46,110,0
443.47742,443.6641,49,110,0
443.6722,443.7615,52,110,0
443.76962,443.9563,53,110,0
443.96442,444.0537,59,110,0
444.06183,444.2485,62,110,0
444.25662,444.34592,65,110,0
444.35403,444.5407,51,110,0
444.54883,444.63812,55,110,0
444.64624,444.83292,59,110,0
444.84103,444.93033,63,110,0
444.93845,445.12512,52,110,0
445.13324,445.22253,55,110,0
445.23065,445.41733,60,110,0
445.42545,445.51474,64,110,0
445.52286,445.70953,48,110,0
445.71765,445.80695,52,110,0
445.81506,446.00177,55,110,0
446.0099,446.09915,59,110,0
446.10727,446.29398,36,110,0
446.3021,446.39136,40,110,0
446.39948,446.58618,43,110,0
446.5943,446.68356,48,110,0
446.69168,447.1706,43,110,0
446.69168,447.1706,31,110,0
447.1787,447.755,43,110,0
447.1787,447.755,31,110,0
447.76312,448.33942,31,110,0
447.76312,448.33942,43,110,0
448.34753,448.92383,43,110,0
448.34753,448.92383,31,110,0
448.93195,449.02124,41,110,0
448.93195,449.02124,29,110,0
449.02936,449.21603,29,110,0
449.22415,449.31345,35,110,0
449.32156,449.50824,38,110,0
449.51636,449.60565,41,110,0
449.61377,449.80045,47,110,0
449.80856,449.89786,50,110,0
449.90598,450.09265,52,110,0
450.10077,450.19006,53,110,0
450.19818,450.48227,52,110,0
450.19818,450.48227,40,110,0
451.0748,451.2615,67,110,0
451.26962,451.3589,64,110,0
451.367,451.5537,60,110,0
451.56183,451.6511,55,110,0
451.6592,451.84592,52,110,0
451.85403,451.9433,48,110,0
451.95142,452.13812,64,110,0
452.14624,452.2355,60,110,0
452.24362,452.43033,55,110,0
452.43845,452.5277,52,110,0
452.53583,452.72253,64,110,0
452.73065,452.81992,60,110,0
452.82803,453.01474,55,110,0
453.02286,453.11215,52,110,0
453.12027,453.30695,60,110,0
453.31506,453.40436,55,110,0
453.41248,453.59915,52,110,0
453.60727,453.69656,48,110,0
453.70468,453.89136,57,110,0
453.89948,453.98877,55,110,0
453.9969,454.18356,52,110,0
454.19168,454.28098,49,110,0
454.2891,454.47577,45,110,0
454.4839,454.57318,55,110,0
454.5813,454.76797,52,110,0
454.7761,454.8654,49,110,0
454.8735,455.06018,57,110,0
455.0683,455.1576,53,110,0
455.1657,455.3524,50,110,0
455.3605,455.4498,53,110,0
455.45792,455.6446,50,110,0
455.6527,455.742,62,110,0
455.75012,455.9368,65,110,0
455.94492,456.0342,62,110,0
456.04233,456.229,65,110,0
456.23712,456.32642,62,110,0
456.33453,456.52124,57,110,0
456.52933,456.61862,53,110,0
456.62674,456.81345,65,110,0
456.82156,456.91083,62,110,0
456.91895,457.10565,57,110,0
457.11377,457.20303,53,110,0
457.21115,457.39786,55,110,0
457.40598,457.49524,65,110,0
457.50336,457.69006,62,110,0
457.69818,457.78745,59,110,0
457.79556,457.98227,55,110,0
457.9904,458.07965,59,110,0
458.08777,458.27448,62,110,0
458.2826,458.3719,65,110,0
458.38,458.56668,56,110,0
458.5748,458.6641,68,110,0
458.6722,458.8589,65,110,0
458.867,458.9563,60,110,0
458.96442,459.1511,57,110,0
459.1592,459.2485,60,110,0
459.25662,459.4433,65,110,0
459.45142,459.5407,69,110,0
459.54883,459.7355,58,110,0
459.74362,459.83292,70,110,0
459.84103,460.0277,58,110,0
460.03583,460.12512,70,110,0
460.13324,460.31992,58,110,0
460.32803,460.41733,70,110,0
460.42545,460.61212,59,110,0
460.62024,460.70953,71,110,0
460.71765,460.90433,59,110,0
460.91245,461.00174,60,110,0
461.00986,461.19653,62,110,0
461.20465,461.29395,59,110,0
461.30206,461.48874,62,110,0
461.49686,461.58615,64,110,0
461.59427,461.78098,65,110,0
461.78906,461.87836,64,110,0
461.88647,462.07318,71,110,0
462.0813,462.17056,72,110,0
462.17868,462.3654,74,110,0
462.3735,462.46277,72,110,0
462.4709,462.6576,74,110,0
462.6657,462.75497,71,110,0
462.7631,462.9498,74,110,0
462.95792,463.04718,72,110,0
463.0553,463.242,71,110,0
463.25012,463.3394,69,110,0
463.3475,463.5342,68,110,0
463.63974,463.82642,32,110,0
463.83453,463.92383,33,110,0
463.93195,464.11862,35,110,0
464.12674,464.41083,33,110,0
464.41895,464.50824,36,110,0
464.51636,464.70303,40,110,0
464.71115,464.80045,44,110,0
464.80856,464.99524,45,110,0
465.00336,465.09265,48,110,0
465.10077,465.28745,52,110,0
465.29556,465.38486,56,110,0
465.39297,465.87186,57,80,0
465.87997,466.45627,57,80,0
465.87997,466.45627,60,80,0
465.87997,466.45627,64,80,0
466.4644,467.0407,57,80,0
466.4644,467.0407,60,80,0
466.4644,467.0407,64,80,0
467.0488,467.6365,57,80,0
467.0488,467.6365,60,80,0
467.0488,467.6365,64,80,0
467.64517,467.74066,45,120,0
467.64517,467.74066,33,120,0
467.74936,467.93604,31,120,0
467.94415,468.03345,35,120,0
468.04156,468.22824,40,120,0
468.23636,468.32565,44,120,0
468.33377,468.52045,47,120,0
468.52856,468.61786,52,120,0
468.62598,468.81265,56,120,0
468.82077,468.91006,57,120,0
468.91818,469.39706,64,80,0
468.91818,469.39706,59,80,0
468.91818,469.39706,56,80,0
469.40518,469.9815,64,80,0
469.40518,469.9815,59,80,0
469.40518,469.9815,56,80,0
469.98962,470.56592,56,80,0
469.98962,470.56592,59,80,0
469.98962,470.56592,64,80,0
470.57404,471.15033,64,80,0
470.57404,471.15033,59,80,0
470.57404,471.15033,56,80,0
471.15845,471.24774,64,80,0
471.15845,471.24774,59,80,0
471.15845,471.24774,56,80,0
471.25583,471.73474,44,80,0
471.74286,471.83215,56,84,0
471.84027,472.31915,45,85,0
472.32727,472.41656,57,89,0
472.42468,472.90356,47,90,0
472.91168,473.00098,59,94,0
473.0091,473.48798,48,95,0
473.4961,473.5854,60,99,0
473.5935,474.0724,50,100,0
474.0805,474.1698,62,104,0
474.17792,474.6568,51,105,0
474.66492,474.7542,63,110,0
474.76233,475.53345,64,110,0
475.54156,475.63083,52,110,0
475.63895,475.82565,53,110,0
475.83377,475.92303,52,110,0
475.93115,476.70227,57,110,0
476.7104,476.79968,45,110,0
476.8078,476.99448,47,110,0
477.0026,477.0919,45,110,0
477.1,477.8711,43,124,0
477.8792,477.9685,31,110,0
477.97662,478.1633,32,110,0
478.17142,478.46848,31,110,0
478.47714,478.57263,35,110,0
478.58133,478.78098,38,110,0
478.78964,478.88513,43,110,0
478.89383,479.09918,47,110,0
479.10812,479.20633,50,110,0
479.21524,479.42816,54,110,0
479.43777,479.54355,55,110,0
479.55316,480.05154,53,110,0
479.55316,480.05154,47,110,0
479.55316,480.05154,43,110,0
479.55316,480.05154,50,110,0
480.05966,480.63596,53,110,0
480.05966,480.63596,50,110,0
480.05966,480.63596,47,110,0
480.05966,480.63596,43,110,0
480.64407,481.22037,43,110,0
480.64407,481.22037,47,110,0
480.64407,481.22037,50,110,0
480.64407,481.22037,53,110,0
481.2285,481.80478,53,110,0
481.2285,481.80478,50,110,0
481.2285,481.80478,47,110,0
481.2285,481.80478,43,110,0
481.8129,481.9022,53,110,0
481.8129,481.9022,50,110,0
481.8129,481.9022,47,110,0
481.8129,481.9022,43,110,0
481.9103,482.097,36,110,0
482.1051,482.1944,40,110,0
482.2025,482.3892,43,110,0
482.3973,482.4866,47,110,0
482.49472,482.6814,48,110,0
482.6895,482.7788,52,110,0
482.78693,482.9736,55,110,0
482.98172,483.071,59,110,0
483.07913,483.2658,60,110,0
483.27393,483.36322,65,110,0
483.37134,483.55804,64,110,0
483.56613,483.65543,62,110,0
483.66354,483.85025,60,110,0
483.85837,483.94763,36,110,0
483.95575,484.14246,38,110,0
484.15057,484.23984,40,110,0
484.24796,484.43466,41,122,0
484.44278,484.53204,55,110,0
484.54016,484.72687,53,110,0
484.735,484.82425,52,110,0
484.83237,485.01907,50,123,0
485.0272,485.11646,38,110,0
485.12457,485.31128,40,110,0
485.3194,485.4087,41,110,0
485.41678,485.9931,43,124,0
486.00122,486.1879,55,110,0
486.196,486.2853,54,110,0
486.29343,486.4801,55,110,0
486.48822,486.5775,57,110,0
486.58563,487.35672,59,122,0
487.36484,487.45413,60,110,0
487.46225,487.64893,62,110,0
487.65704,487.74634,64,110,0
487.75446,487.94113,65,110,0
487.94925,488.03854,64,110,0
488.04666,488.23334,62,110,0
488.24146,488.33075,60,110,0
488.33887,488.52554,59,110,0
488.53366,488.62296,60,110,0
488.63107,488.81775,59,110,0
488.82587,488.91516,57,110,0
488.92328,489.11,59,110,0
489.1181,489.4022,59,110,0
489.4103,489.6944,59,110,0
489.7025,489.79178,59,110,0
489.7999,489.9866,60,110,0
489.99472,490.08398,59,110,0
490.0921,490.2788,60,110,0
490.28693,490.3762,59,110,0
490.3843,490.571,60,110,0
490.57913,490.66843,62,110,0
490.6765,490.86322,64,110,0
490.87134,490.96063,62,110,0
490.96875,491.15543,64,110,0
491.16354,491.25284,60,110,0
491.74796,492.32425,40,110,0
492.33237,492.42166,40,110,0
492.42978,492.61646,33,112,0
492.62457,492.71387,36,110,0
492.722,492.91486,40,110,0
492.92355,493.01904,44,110,0
493.0277,493.22736,45,110,0
493.23605,493.33865,48,110,0
493.348,493.57083,52,110,0
493.5809,493.69177,56,110,0
493.70187,494.20544,57,80,0
494.21356,494.78986,57,80,0
494.21356,494.78986,60,80,0
494.21356,494.78986,64,80,0
494.79797,495.37427,57,80,0
494.79797,495.37427,60,80,0
494.79797,495.37427,64,80,0
495.3824,495.95868,57,80,0
495.3824,495.95868,60,80,0
495.3824,495.95868,64,80,0
495.9668,496.0561,45,120,0
495.9668,496.0561,33,120,0
496.0642,496.2509,31,120,0
496.259,496.3483,35,120,0
496.3564,496.5431,40,120,0
496.5512,496.6405,44,120,0
496.64862,496.8353,47,120,0
496.8434,496.9327,52,120,0
496.94083,497.1275,56,120,0
497.13562,497.2249,57,120,0
497.23303,497.7119,64,80,0
497.23303,497.7119,59,80,0
497.23303,497.7119,56,80,0
497.72003,498.29636,64,80,0
497.72003,498.29636,59,80,0
497.72003,498.29636,56,80,0
498.30447,498.88077,56,80,0
498.30447,498.88077,59,80,0
498.30447,498.88077,64,80,0
498.8889,499.46518,64,80,0
498.8889,499.46518,59,80,0
498.8889,499.46518,56,80,0
499.4733,499.56256,64,80,0
499.4733,499.56256,59,80,0
499.4733,499.56256,56,80,0
499.57068,500.0496,44,80,0
500.0577,500.147,56,84,0
500.15512,500.634,45,85,0
500.64212,500.7314,57,89,0
500.73953,501.2184,47,90,0
501.22653,501.31583,59,94,0
501.32394,501.80283,48,95,0
501.81094,501.90024,60,99,0
501.90836,502.38724,50,100,0
502.39536,502.48465,62,104,0
502.49277,502.97165,51,105,0
502.97977,503.06906,63,110,0
503.07718,503.8483,64,110,0
503.8564,503.94568,52,110,0
503.9538,504.1405,53,110,0
504.14862,504.23788,52,110,0
504.246,505.07068,57,110,0
505.07935,505.17484,45,110,0
505.1835,505.38318,47,110,0
505.39185,505.48734,45,110,0
505.496,506.32065,43,124,0
506.32935,506.42484,31,110,0
506.4335,506.63315,32,110,0
506.64185,506.95135,31,110,0
506.9603,507.0585,35,110,0
507.06744,507.2728,38,110,0
507.28174,507.37994,43,110,0
507.38885,507.59424,47,110,0
507.60315,507.70892,50,110,0
507.71854,507.9397,54,110,0
507.9493,508.05508,55,110,0
508.0647,508.57373,53,110,0
508.0647,508.57373,47,110,0
508.0647,508.57373,43,110,0
508.0647,508.57373,50,110,0
508.58185,509.15814,53,110,0
508.58185,509.15814,50,110,0
508.58185,509.15814,47,110,0
508.58185,509.15814,43,110,0
509.16626,509.74258,43,110,0
509.16626,509.74258,47,110,0
509.16626,509.74258,50,110,0
509.16626,509.74258,53,110,0
509.7507,510.327,53,110,0
509.7507,510.327,50,110,0
509.7507,510.327,47,110,0
509.7507,510.327,43,110,0
510.3351,510.42438,53,110,0
510.3351,510.42438,50,110,0
510.3351,510.42438,47,110,0
510.3351,510.42438,43,110,0
510.4325,510.6192,36,110,0
510.62732,510.71658,40,110,0
510.7247,510.9114,43,110,0
510.91953,511.0088,47,110,0
511.0169,511.2036,48,110,0
511.21173,511.30103,52,110,0
511.3091,511.49582,55,110,0
511.50394,511.59323,59,110,0
511.60135,511.78802,60,110,0
511.79614,511.88544,65,110,0
511.89355,512.08026,64,110,0
512.0883,512.1776,62,110,0
512.1857,512.37244,60,110,0
512.38055,512.46985,36,110,0
512.47797,512.6647,38,110,0
512.6728,512.762,40,110,0
512.77014,512.95685,41,122,0
512.96497,513.05426,55,110,0
513.0624,513.2491,53,110,0
513.2572,513.34644,52,110,0
513.35455,513.54126,50,123,0
513.5494,513.6387,38,110,0
513.6468,513.8335,40,110,0
513.8416,513.9309,41,110,0
513.93896,514.5153,43,124,0
514.52344,514.7101,55,110,0
514.7182,514.8075,54,110,0
514.8156,515.0023,55,110,0
515.01044,515.09973,57,110,0
515.10785,515.8789,59,122,0
515.887,515.9763,60,110,0
515.98444,516.17114,62,110,0
516.17926,516.26855,64,110,0
516.2767,516.4633,65,110,0
516.47144,516.5607,64,110,0
516.56885,516.75555,62,110,0
516.7637,516.85297,60,110,0
516.8611,517.0477,59,110,0
517.05585,517.14514,60,110,0
517.15326,517.33997,59,110,0
517.3481,517.4374,57,110,0
517.4455,517.6322,59,110,0
517.6403,517.9244,59,110,0
517.9325,518.2166,59,110,0
518.22473,518.31396,59,110,0
518.3221,518.5088,60,110,0
518.5169,518.6062,59,110,0
518.6143,518.82886,60,80,0
518.8382,518.9408,45,80,0
518.95013,519.173,43,80,0
519.18304,519.29395,41,80,0
519.304,519.5359,40,80,0
519.54596,519.66656,41,80,0
519.67755,519.9466,40,80,0
519.9591,520.0966,38,80,0
520.10913,520.2888,36,70,0
520.29663,520.4763,43,70,0
520.48413,520.6638,36,70,0
520.67163,520.8513,43,70,0
520.85913,521.0388,36,70,0
521.04663,521.2263,43,70,0
521.23413,521.4138,36,70,0
521.42163,521.6013,43,70,0
521.60913,521.7888,36,70,0
521.79663,521.9763,43,70,0
521.98413,522.1638,36,70,0
522.17163,522.3513,43,70,0
522.35913,522.5388,36,70,0
522.54663,522.7263,43,70,0
522.73413,522.9138,36,70,0
522.92163,523.1013,43,70,0
523.10913,523.2888,36,70,0
523.29663,523.4763,43,70,0
523.48413,523.6638,36,70,0
523.67163,523.8513,43,70,0
523.85913,524.0388,36,70,0
524.04663,524.2263,43,70,0
524.23413,524.4138,36,70,0
524.42163,524.6013,43,70,0
524.60913,524.7888,36,70,0
524.79663,524.9763,43,70,0
524.98413,525.1638,36,70,0
525.17163,525.3513,43,70,0
525.35913,525.5388,36,70,0
525.54663,525.7263,43,70,0
525.73413,525.9138,36,70,0
525.92163,526.1013,43,70,0
526.10913,526.2888,36,70,0
526.29663,526.4763,43,70,0
526.48413,526.6638,36,70,0
526.67163,526.8513,43,70,0
526.85913,527.0388,36,70,0
527.04663,527.2263,43,71,0
527.23413,527.4138,36,72,0
527.42163,527.6013,43,73,0
527.60913,527.7888,36,74,0
527.79663,527.9763,43,76,0
527.98413,528.1638,36,77,0
528.17163,528.3513,43,78,0
528.35913,528.5388,36,79,0
528.54663,528.7263,43,80,0
528.73413,528.9138,36,80,0
528.92163,529.1013,43,80,0
529.10913,529.2888,36,80,0
529.29663,529.4763,43,80,0
529.48413,529.6638,36,80,0
529.67163,529.8513,43,80,0
529.85913,530.0388,36,80,0
530.04663,530.2263,43,80,0
530.23413,530.4138,36,80,0
530.42163,530.6013,43,80,0
530.60913,530.7888,36,80,0
530.79663,530.9763,43,80,0
530.98413,531.1638,36,80,0
531.17163,531.3513,43,80,0
531.35913,531.5388,36,80,0
531.54663,531.7263,43,80,0
531.73413,531.9138,36,80,0
531.92163,532.1013,43,80,0
532.10913,532.2888,36,80,0
532.29663,532.4763,43,80,0
532.48413,532.6638,36,80,0
532.67163,532.8513,43,80,0
532.85913,533.0388,36,80,0
533.04663,533.2263,43,80,0
533.23413,533.4138,36,80,0
533.42163,533.6013,43,80,0
533.60913,533.7888,36,80,0
533.79663,533.9763,43,80,0
533.98413,534.1638,36,80,0
534.17163,534.3513,43,80,0
534.35913,534.5388,36,80,0
534.54663,534.7263,43,80,0
534.73413,534.9138,36,80,0
534.92163,535.1013,43,80,0
535.10913,535.2888,36,80,0
535.29663,535.4763,43,80,0
535.48413,535.6638,36,80,0
535.67163,535.8513,43,80,0
535.85913,536.0388,36,80,0
536.04663,536.2263,43,80,0
536.23413,536.4138,36,80,0
536.42163,536.6013,43,80,0
536.60913,536.7888,36,80,0
536.79663,536.9763,43,80,0
536.98413,537.1638,36,80,0
537.17163,537.3513,43,80,0
537.35913,537.5388,36,80,0
537.54663,537.7263,43,80,0
537.73413,537.9138,36,80,0
537.92163,538.1013,43,80,0
538.10913,538.2888,36,80,0
538.29663,538.4763,43,80,0
538.48413,538.6638,36,80,0
538.67163,538.8513,43,80,0
538.85913,539.0388,36,80,0
539.04663,539.2263,43,80,0
539.23413,539.4138,36,80,0
539.42163,539.6013,43,80,0
539.60913,539.7888,36,80,0
539.79663,539.9763,43,80,0
539.98413,540.1638,36,80,0
540.17163,540.3513,43,80,0
540.35913,540.5388,36,80,0
540.54663,540.7263,43,80,0
540.73413,540.9138,36,80,0
540.92163,541.1013,43,80,0
541.10913,541.2888,36,80,0
541.29663,541.4763,43,80,0
541.48413,541.6638,36,80,0
541.67163,541.8513,43,80,0
541.85913,542.0388,36,80,0
542.04663,542.2263,43,80,0
542.23413,542.4138,36,80,0
542.42163,542.6013,43,80,0
542.60913,542.7888,36,80,0
542.79663,542.9763,43,80,0
542.98413,543.1638,36,80,0
543.17163,543.3513,43,80,0
543.35913,543.5388,36,80,0
543.54663,543.7263,43,80,0
543.73413,543.9138,36,80,0
543.92163,544.1013,43,80,0
544.10913,544.2888,36,80,0
544.29663,544.4763,43,80,0
544.48413,544.6638,36,80,0
544.67163,544.8513,43,80,0
544.85913,545.0388,36,80,0
545.04663,545.2263,43,80,0
545.23413,545.4138,36,80,0
545.42163,545.6013,43,80,0
545.60913,545.7888,36,80,0
545.79663,545.9763,43,80,0
545.98413,546.1638,36,80,0
546.17163,546.3513,43,80,0
546.35913,546.5388,36,80,0
546.54663,546.7263,43,80,0
546.73413,546.9138,36,80,0
546.92163,547.1013,43,80,0
547.10913,547.2888,36,80,0
547.29663,547.4763,43,80,0
547.48413,547.6638,36,80,0
547.67163,547.8513,43,80,0
547.85913,548.0388,36,80,0
548.04663,548.2263,43,80,0
548.23413,548.4138,36,80,0
548.42163,548.6013,43,80,0
548.60913,548.7888,36,80,0
548.79663,548.9763,45,80,0
548.98413,549.1638,36,80,0
549.17163,549.3513,45,80,0
549.35913,549.5388,36,80,0
549.54663,549.7263,45,80,0
549.73413,549.9138,36,80,0
549.92163,550.1013,45,80,0
550.10913,550.2888,36,80,0
550.29663,550.4763,45,80,0
550.48413,550.6638,36,80,0
550.67163,550.8513,47,80,0
550.85913,551.0388,36,80,0
551.04663,551.2263,47,80,0
551.23413,551.4138,36,80,0
551.42163,551.6013,47,80,0
551.60913,551.7888,36,80,0
551.79663,551.9763,47,80,0
551.98413,552.1638,36,80,0
552.17163,552.3513,50,80,0
552.35913,552.5388,36,80,0
552.54663,552.7263,50,80,0
552.73413,552.9138,36,80,0
552.92163,553.1013,50,80,0
553.10913,553.2888,36,80,0
553.29663,553.4763,50,80,0
553.48413,553.6638,36,80,0
553.67163,553.8513,50,80,0
553.85913,554.0388,36,80,0
554.04663,554.2263,48,80,0
554.23413,554.4138,36,80,0
554.42163,554.6013,48,80,0
554.60913,554.7888,36,80,0
554.79663,554.9763,48,80,0
554.98413,555.1638,36,80,0
555.17163,555.3513,48,80,0
555.35913,555.5388,36,80,0
555.54663,555.7263,47,80,0
555.73413,555.9138,36,80,0
555.92163,556.1013,47,80,0
556.10913,556.2888,36,80,0
556.29663,556.4763,47,80,0
556.48413,556.6638,36,80,0
556.67163,556.8513,47,80,0
556.85913,557.0388,36,80,0
557.04663,557.2263,47,80,0
557.23413,557.37994,47,80,0
557.40076,557.54663,48,80,0
557.56744,557.71326,50,80,0
557.73413,557.87085,52,80,0
557.8904,558.0271,53,80,0
558.04663,558.18335,55,80,0
558.2029,558.3279,57,80,0
558.3457,558.4707,59,80,0
558.4886,558.6136,60,80,0
558.6314,558.7497,62,80,0
558.76654,558.8848,64,80,0
558.9017,559.01996,65,80,0
559.0368,559.1551,67,80,0
559.17194,559.2902,69,80,0
559.3071,559.42535,71,80,0
559.44226,559.5605,72,80,0
559.5774,559.6956,76,80,0
559.7125,559.83075,74,80,0
559.84766,560.1671,76,70,0
560.18097,560.5004,76,70,0
560.5143,560.83374,76,70,0
560.84766,561.1671,76,70,0
561.18097,561.5004,75,70,0
561.5143,561.83374,76,70,0
561.84766,562.1671,74,70,0
562.18097,562.5004,76,70,0
562.5143,562.83374,79,70,0
562.5143,562.83374,76,70,0
562.84766,563.1671,79,70,0
562.84766,563.1671,77,70,0
563.18097,563.5004,79,70,0
563.18097,563.5004,76,70,0
563.5143,563.83374,79,70,0
563.5143,563.83374,77,70,0
563.84766,564.1671,79,70,0
563.84766,564.1671,76,70,0
564.18097,564.5004,79,70,0
564.18097,564.5004,77,70,0
564.5143,564.83374,77,70,0
564.5143,564.83374,71,70,0
564.84766,565.1671,77,70,0
564.84766,565.1671,72,70,0
565.18097,565.5004,77,70,0
565.18097,565.5004,71,70,0
565.5143,565.83374,77,70,0
565.5143,565.83374,74,70,0
565.84766,566.1671,79,70,0
565.84766,566.1671,76,70,0
566.18097,566.5004,79,70,0
566.18097,566.5004,77,70,0
566.5143,566.83374,79,70,0
566.5143,566.83374,78,70,0
566.84766,566.9449,79,70,0
566.95874,567.05597,77,70,0
567.0699,567.1671,76,70,0
567.18097,567.2782,75,70,0
567.2921,567.3893,77,70,0
567.4032,567.5004,76,70,0
567.5143,567.6115,75,70,0
567.6254,567.72266,77,70,0
567.7365,567.83374,76,70,0
567.84766,567.9449,74,70,0
567.95874,568.05597,76,70,0
568.07336,568.17053,77,70,0
568.18097,568.28516,78,70,0
568.30005,568.4042,79,70,0
568.41907,568.52325,80,70,0
568.5381,568.64746,81,70,0
568.6631,568.77246,82,70,0
568.7881,568.89746,83,70,0
568.9131,569.23254,81,70,0
569.24646,569.5659,79,70,0
569.24646,569.5659,77,70,0
569.5798,569.89923,79,70,0
569.5798,569.89923,76,70,0
569.9131,570.23254,79,70,0
569.9131,570.23254,76,70,0
570.24646,570.5659,79,70,0
570.24646,570.5659,74,70,0
570.5798,570.89923,79,70,0
570.5798,570.89923,76,70,0
570.9131,571.23254,79,70,0
570.9131,571.23254,74,70,0
571.24646,571.5659,79,70,0
571.24646,571.5659,73,70,0
571.5798,571.89923,79,70,0
571.5798,571.89923,74,70,0
571.9131,572.23254,79,70,0
571.9131,572.23254,77,70,0
572.24646,572.5659,79,70,0
572.24646,572.5659,72,70,0
572.5798,572.89923,79,70,0
572.5798,572.89923,74,70,0
572.9131,573.23254,76,70,0
573.24646,573.5659,76,70,0
573.5798,573.89923,74,70,0
573.9131,574.23254,76,70,0
574.24646,574.5659,84,70,0
574.5798,574.89923,86,70,0
574.9131,575.23254,88,70,0
575.24646,575.5659,88,70,0
575.5798,575.89923,76,70,0
575.5798,575.89923,82,70,0
575.9131,576.23254,83,70,0
575.9131,576.23254,76,70,0
576.24646,576.5659,79,70,0
576.24646,576.5659,76,70,0
576.5798,576.89923,83,70,0
576.5798,576.89923,76,70,0
576.9131,577.23254,83,70,0
576.9131,577.23254,76,70,0
577.24646,577.5659,81,70,0
577.24646,577.5659,77,70,0
577.5798,577.89923,77,70,0
577.9131,578.23254,77,70,0
578.24646,578.5659,77,70,0
578.5798,578.89923,76,70,0
578.9131,579.23254,76,70,0
579.24646,579.5659,74,70,0
579.5798,579.89923,76,70,0
579.9131,580.23254,76,70,0
580.24646,580.5659,76,70,0
580.5798,580.89923,77,70,0
580.9131,581.23254,78,70,0
581.24646,581.5659,79,70,0
581.5798,581.89923,77,70,0
581.5798,581.89923,71,70,0
581.9131,582.23254,77,70,0
581.9131,582.23254,71,70,0
582.24646,582.5659,76,70,0
582.24646,582.5659,72,70,0
582.5798,582.89923,77,70,0
582.5798,582.89923,74,70,0
582.9131,583.23254,77,70,0
582.9131,583.23254,74,70,0
583.24646,583.5659,76,70,0
583.24646,583.5659,72,70,0
583.5798,583.89923,74,70,0
583.5798,583.89923,71,70,0
583.9131,584.26355,72,70,0
583.9131,584.26355,69,70,0
584.2792,584.6783,71,70,0
584.2792,584.6783,68,70,0
584.69617,584.895,52,70,0
584.84766,585.0607,40,70,0
584.9992,585.217,52,70,0
585.1507,585.3685,40,70,0
585.30225,585.5153,52,70,0
585.45374,585.6668,40,70,0
585.6053,585.80884,52,70,0
585.7568,585.9556,40,70,0
585.90826,586.1024,52,70,0
586.0598,586.28235,40,70,0
586.2113,586.4149,52,70,0
586.36285,586.5901,40,70,0
586.51434,586.7322,52,70,0
586.6659,586.86,40,70,0
586.8174,587.0399,52,70,0
586.9689,587.17725,40,70,0
587.1204,587.3193,52,70,0
587.2719,587.47076,40,70,0
587.42346,587.63654,52,70,0
587.57495,587.7928,40,70,0
587.7265,587.9395,52,70,0
587.878,588.09106,40,70,0
588.0295,588.24255,52,70,0
588.181,588.3941,40,70,0
588.3325,588.5456,52,70,0
588.4841,588.69714,40,70,0
588.63556,588.8439,52,70,0
588.78705,588.99066,40,70,0
588.9386,589.1564,52,70,0
589.0901,589.2937,40,70,0
589.24164,589.44995,52,70,0
589.3931,589.6062,40,70,0
589.5447,589.76245,52,70,0
589.69617,589.914,40,70,0
589.84766,590.07025,52,70,0
589.9992,590.217,40,70,0
590.1507,590.3732,52,70,0
590.30225,590.52,40,70,0
590.45374,590.66205,52,70,0
590.6053,590.82306,40,70,0
590.7568,590.97455,52,70,0
590.90826,591.12134,40,70,0
591.0598,591.2729,52,70,0
591.2113,591.42914,40,70,0
591.36285,591.6185,52,70,0
591.51434,591.7558,40,70,0
591.6659,591.88367,52,70,0
591.8174,592.021,40,70,0
591.9689,592.1725,52,70,0
592.1204,592.3145,40,70,0
592.2719,592.4803,52,70,0
592.42346,592.627,40,70,0
592.57495,592.788,52,70,0
592.72644,592.9395,40,70,0
592.878,593.09106,52,70,0
593.0295,593.2284,40,70,0
593.181,593.38464,52,70,0
593.3325,593.5267,40,70,0
593.4841,593.74445,52,70,0
593.63556,593.8723,40,70,0
593.78705,593.98596,52,70,0
593.9386,594.1469,40,70,0
594.0901,594.2937,52,70,0
594.24164,594.44995,40,70,0
594.3931,594.61566,52,70,0
594.5447,594.76245,40,70,0
594.69617,594.92346,52,70,0
594.84766,595.0607,40,70,0
594.9992,595.22174,52,70,0
595.1507,595.3591,40,70,0
595.30225,595.5248,52,70,0
595.45374,595.6668,40,70,0
595.6053,595.8136,52,70,0
595.7568,595.96985,40,70,0
595.90826,596.1119,52,70,0
596.0598,596.28705,40,70,0
596.2113,596.4244,52,70,0
596.36285,596.5664,40,70,0
596.51434,596.72266,52,70,0
596.66583,596.8789,40,70,0
596.8174,597.01624,52,70,0
596.9689,597.163,40,70,0
597.1204,597.3145,52,70,0
597.2719,597.4755,40,70,0
597.42346,597.6223,52,70,0
597.57495,597.7738,40,70,0
597.72644,597.92535,52,70,0
597.878,598.0721,40,70,0
598.0295,598.2331,52,70,0
598.181,598.3846,40,70,0
598.3325,598.53613,52,70,0
598.4841,598.6971,40,70,0
598.63556,598.8392,52,70,0
598.78705,598.99066,40,70,0
598.9386,599.1469,52,70,0
599.0901,599.30316,40,70,0
599.24164,599.4547,52,70,0
599.3931,599.6062,40,70,0
599.5447,599.753,52,70,0
599.69617,599.90924,40,70,0
599.84766,600.0655,52,70,0
599.9992,600.2075,40,70,0
600.1507,600.34955,45,70,0
600.30225,600.52,33,70,0
600.45374,600.6668,45,70,0
600.6052,600.8278,33,70,0
600.7568,600.97455,45,70,0
600.90826,601.1545,33,70,0
601.0598,601.3013,45,70,0
601.2113,601.4244,33,70,0
601.36285,601.5806,45,70,0
601.51434,601.71796,31,70,0
601.66583,601.88367,43,70,0
601.8174,602.0447,31,70,0
601.9689,602.2009,43,70,0
602.1204,602.3335,31,70,0
602.2719,602.485,43,70,0
602.42346,602.65546,31,70,0
602.57495,602.7927,43,70,0
602.72644,602.92535,31,70,0
602.878,603.11,43,70,0
603.0295,603.24255,31,70,0
603.181,603.40356,43,70,0
603.3325,603.55505,31,70,0
603.4841,603.6924,43,70,0
603.63556,603.85333,31,70,0
603.78705,604.0049,43,70,0
603.9386,604.16583,31,70,0
604.0901,604.29846,43,70,0
604.24164,604.4357,31,70,0
604.3931,604.6251,43,70,0
604.5446,604.7719,31,70,0
604.69617,604.92816,43,70,0
604.84766,605.0655,31,70,0
604.9992,605.217,43,70,0
605.1507,605.3591,31,70,0
605.30225,605.52,43,70,0
605.45374,605.66205,31,70,0
605.6052,605.7994,43,70,0
605.7568,605.9888,31,70,0
605.90826,606.1403,43,70,0
606.0598,606.28235,31,70,0
606.2113,606.4007,43,70,0
606.36285,606.57587,31,70,0
606.51434,606.74634,43,70,0
606.66583,606.8931,31,70,0
606.8174,607.0257,43,70,0
606.9689,607.22455,31,70,0
607.1204,607.3619,43,70,0
607.2719,607.50867,31,70,0
607.42346,607.6318,43,70,0
607.57495,607.82587,31,70,0
607.72644,607.9395,43,70,0
607.878,608.11,31,70,0
608.0295,608.252,43,70,0
608.181,608.38934,31,70,0
608.3325,608.5598,43,70,0
608.4841,608.7066,31,70,0
608.63556,608.86285,43,70,0
608.78705,609.0191,31,70,0
608.9386,609.1422,43,70,0
609.0901,609.29846,31,70,0
609.24164,609.4547,43,70,0
609.3931,609.6062,31,70,0
609.5446,609.76245,43,70,0
609.69617,609.8998,31,70,0
609.84766,610.10333,43,70,0
609.9992,610.22174,31,70,0
610.1507,610.4017,43,70,0
610.30225,610.51526,31,70,0
610.45374,610.6905,43,70,0
610.6052,610.82306,31,70,0
610.7568,610.9604,43,70,0
610.90826,611.1261,31,70,0
611.0598,611.28235,43,70,0
611.2113,611.42914,31,70,0
611.36285,611.5901,43,70,0
611.51434,611.74164,31,70,0
611.66583,611.8742,43,70,0
611.8174,612.03046,31,70,0
611.9689,612.20087,43,70,0
612.1204,612.3524,31,70,0
612.2719,612.47076,43,70,0
612.42346,612.61285,31,70,0
612.57495,612.7927,43,70,0
612.72644,612.9348,31,70,0
612.878,613.09106,43,70,0
613.0295,613.24255,31,70,0
613.181,613.3988,43,70,0
613.3325,613.55505,31,70,0
613.484,613.70184,43,70,0
613.63556,613.84863,31,70,0
613.78705,614.0191,43,70,0
613.9386,614.16113,31,70,0
614.0901,614.3079,43,70,0
614.24164,614.4689,31,70,0
614.3931,614.6062,43,70,0
614.5446,614.76245,31,70,0
614.69617,614.8998,43,70,0
614.84766,615.0418,36,70,0
614.9992,615.19806,43,70,0
615.1507,615.359,36,70,0
615.30225,615.51056,43,70,0
615.45374,615.6668,36,70,0
615.6052,615.82776,43,70,0
615.7568,615.984,36,70,0
615.90826,616.1308,43,70,0
616.0598,616.2681,36,70,0
616.2113,616.45276,43,70,0
616.36285,616.5854,36,70,0
616.51434,616.7274,44,70,0
616.66583,616.88837,35,70,0
616.8174,617.03046,44,70,0
616.9689,617.17725,35,70,0
617.1204,617.324,44,70,0
617.2719,617.485,35,70,0
617.4234,617.6365,44,70,0
617.57495,617.80225,35,70,0
617.72644,617.8732,44,70,0
617.878,618.19745,45,70,0
617.878,618.19745,33,70,0
618.2113,618.53076,76,70,0
618.5446,618.8641,76,70,0
618.878,619.19745,76,70,0
619.2113,619.53076,76,70,0
619.5446,619.8641,76,70,0
619.878,620.19745,76,70,0
620.2113,620.53076,76,70,0
620.5446,620.8641,76,70,0
620.878,621.1974,76,70,0
621.2113,621.53076,76,70,0
621.5446,621.8641,76,70,0
621.878,622.1974,76,70,0
622.2113,622.53076,76,70,0
622.5446,622.8641,76,70,0
622.878,623.1974,76,70,0
623.2113,623.53076,76,70,0
623.5446,623.8641,76,70,0
623.878,624.1974,76,70,0
624.2113,624.53076,76,70,0
624.5446,624.8641,76,70,0
624.878,625.1974,76,70,0
625.2113,625.53076,76,70,0
625.5446,625.8641,76,70,0
625.878,626.1974,76,70,0
626.2113,626.53076,76,70,0
626.5446,626.8641,76,70,0
626.878,627.1974,76,70,0
627.2113,627.53076,76,70,0
627.5446,627.8641,76,70,0
627.878,628.1974,76,70,0
628.2113,628.53076,76,70,0
628.5446,628.8641,76,70,0
628.878,629.1974,69,70,0
629.2113,629.53076,81,70,0
629.5446,629.8641,80,70,0
629.878,630.1974,79,70,0
630.2113,630.53076,79,70,0
630.5446,630.8641,79,70,0
630.878,631.1974,79,70,0
631.2113,631.53076,79,70,0
631.5446,631.8641,79,70,0
631.878,632.1974,79,70,0
632.2113,632.53076,79,70,0
632.5446,632.8641,79,70,0
632.878,633.1974,79,70,0
633.2113,633.53076,79,70,0
633.5446,633.8641,79,70,0
633.878,634.1974,79,70,0
634.2113,634.53076,79,70,0
634.5446,634.8641,79,70,0
634.878,635.1974,81,70,0
635.2113,635.5536,80,70,0
635.5684,635.9278,81,70,0
635.9434,636.2748,82,70,0
636.2887,636.60815,82,70,0
636.622,636.94147,82,70,0
636.9553,637.2748,83,70,0
637.2887,637.60815,83,70,0
637.622,637.94147,83,70,0
637.9553,638.2748,83,70,0
638.2887,638.60815,83,70,0
638.622,638.94147,83,70,0
638.9553,639.2748,83,70,0
639.2887,639.60815,79,70,0
639.2887,639.60815,83,70,0
639.622,639.94147,84,70,0
639.9553,640.2748,84,70,0
640.2887,640.60815,79,70,0
640.2887,640.60815,76,70,0
640.2887,640.60815,72,70,0
640.622,640.94147,79,70,0
640.622,640.94147,76,70,0
640.622,640.94147,72,70,0
640.9553,641.2748,79,70,0
640.9553,641.2748,76,70,0
640.9553,641.2748,72,70,0
641.2887,641.60815,79,70,0
641.2887,641.60815,76,70,0
641.2887,641.60815,72,70,0
641.622,641.94147,79,70,0
641.622,641.94147,76,70,0
641.622,641.94147,72,70,0
641.9553,642.2748,79,70,0
641.9553,642.2748,77,70,0
641.9553,642.2748,74,70,0
641.9553,642.2748,72,70,0
642.2887,642.60815,79,70,0
642.2887,642.60815,77,70,0
642.2887,642.60815,74,70,0
642.2887,642.60815,72,70,0
642.622,642.94147,79,70,0
642.622,642.94147,77,70,0
642.622,642.94147,74,70,0
642.622,642.94147,72,70,0
642.9553,643.2748,79,70,0
642.9553,643.2748,77,70,0
642.9553,643.2748,74,70,0
642.9553,643.2748,72,70,0
643.2887,643.60815,79,70,0
643.2887,643.60815,77,70,0
643.2887,643.60815,74,70,0
643.2887,643.60815,72,70,0
643.622,643.94147,79,70,0
643.622,643.94147,77,70,0
643.622,643.94147,74,70,0
643.622,643.94147,72,70,0
643.9553,644.2748,79,70,0
643.9553,644.2748,77,70,0
643.9553,644.2748,74,70,0
643.9553,644.2748,72,70,0
644.2887,644.6309,79,70,0
644.2887,644.6309,77,70,0
644.2887,644.6309,74,70,0
644.2887,644.6309,72,70,0
644.6458,645.0052,79,70,0
644.6458,645.0052,77,70,0
644.6458,645.0052,74,70,0
644.6458,645.0052,72,70,0
645.0208,645.36365,79,70,0
645.0208,645.36365,76,70,0
645.0208,645.36365,72,70,0
645.3782,645.71246,79,70,0
645.3782,645.71246,76,70,0
645.3782,645.71246,72,70,0
645.727,646.0914,79,70,0
645.727,646.0914,76,70,0
645.727,646.0914,72,70,0
646.1083,646.2265,79,70,0
646.2434,646.35785,77,70,0
646.3735,646.48285,76,70,0
646.4985,646.60266,77,70,0
646.61755,646.7217,76,70,0
646.7366,646.84076,74,70,0
646.85565,646.9598,77,70,0
646.9747,647.07886,76,70,0
647.09375,647.1979,72,70,0
647.21277,647.55505,72,70,0
647.5699,647.9122,67,70,0
647.5699,647.9122,64,70,0
647.5699,647.9122,60,70,0
647.92706,648.2693,67,70,0
647.92706,648.2693,64,70,0
647.92706,648.2693,60,70,0
648.2842,648.62646,67,70,0
648.2842,648.62646,65,70,0
648.2842,648.62646,62,70,0
648.2842,648.62646,60,70,0
648.64136,648.9836,67,70,0
648.64136,648.9836,65,70,0
648.64136,648.9836,62,70,0
648.64136,648.9836,60,70,0
648.9985,649.34076,67,70,0
648.9985,649.34076,65,70,0
648.9985,649.34076,62,70,0
648.9985,649.34076,60,70,0
649.35565,649.6979,67,70,0
649.35565,649.6979,65,70,0
649.35565,649.6979,62,70,0
649.35565,649.6979,60,70,0
649.71277,650.05505,67,70,0
649.71277,650.05505,65,70,0
649.71277,650.05505,62,70,0
649.71277,650.05505,60,70,0
650.0699,650.4122,67,70,0
650.0699,650.4122,65,70,0
650.0699,650.4122,62,70,0
650.0699,650.4122,60,70,0
650.42706,650.77765,67,70,0
650.42706,650.77765,65,70,0
650.42706,650.77765,62,70,0
650.42706,650.77765,60,70,0
650.7929,651.1523,67,70,0
650.7929,651.1523,65,70,0
650.7929,651.1523,62,70,0
650.7929,651.1523,60,70,0
651.1679,651.5511,67,70,0
651.1679,651.5511,65,70,0
651.1679,651.5511,62,70,0
651.1679,651.5511,60,70,0
651.7031,651.9523,60,70,0
651.568,651.9565,48,70,0
651.83826,652.06323,64,70,0
651.9734,652.33276,52,70,0
652.0984,652.33276,60,70,0
652.2234,652.4343,64,70,0
652.3484,652.70776,55,70,0
652.4734,652.7117,60,70,0
652.5984,652.81714,64,70,0
652.8484,653.0554,60,70,0
652.7234,653.0945,59,70,0
652.9734,653.18024,64,71,0
653.2174,653.44434,60,72,0
653.0984,653.44806,55,71,0
653.3365,653.55225,64,72,0
653.5746,653.768,60,74,0
653.4555,653.80896,53,73,0
653.6936,653.8908,64,74,0
653.9317,654.1289,60,75,0
653.8127,654.1661,52,75,0
654.0508,654.2462,64,76,0
654.28094,654.48926,60,77,0
654.1698,654.4997,50,77,0
654.392,654.5795,64,78,0
654.61426,654.80176,60,79,0
654.5032,654.833,48,78,0
654.72534,654.9094,64,79,0
654.9476,655.13855,60,81,0
654.8365,655.16284,45,80,0
655.0587,655.2566,64,81,0
655.28094,655.4858,57,82,0
655.1698,655.4997,48,82,0
655.392,655.60034,60,83,0
655.61426,655.8157,57,84,0
655.5032,655.833,52,84,0
655.72534,655.9233,60,85,0
655.9476,656.1351,57,86,0
655.8365,656.1663,56,85,0
656.0587,656.2462,60,87,0
656.28094,656.4823,57,88,0
656.1698,656.4997,52,87,0
656.392,656.60034,60,88,0
656.61426,656.82605,57,89,0
656.5032,656.833,50,89,0
656.72534,656.9337,60,90,0
656.9476,657.1351,57,91,0
656.8365,657.1663,48,91,0
657.0587,657.2705,60,92,0
657.28094,657.4858,57,93,0
657.1698,657.4997,47,92,0
657.392,657.60034,60,94,0
657.61426,657.80524,57,95,0
657.5032,657.833,45,94,0
657.72534,657.93024,60,95,0
657.9476,658.13855,55,97,0
657.8365,658.1663,43,96,0
658.0587,658.2705,60,97,0
658.28094,658.4615,55,98,0
658.1698,658.4997,48,98,0
658.392,658.58997,60,99,0
658.61426,658.80176,55,100,0
658.5032,658.833,52,99,0
658.72534,658.9198,60,101,0
658.9476,659.1594,55,102,0
658.8365,659.1663,43,101,0
659.0587,659.2497,59,102,0
659.28094,659.48926,55,104,0
659.1698,659.4997,47,103,0
659.392,659.6038,59,104,0
659.61426,659.8122,55,105,0
659.5032,659.833,50,105,0
659.72534,659.9258,59,106,0
659.9555,660.18243,50,107,0
659.8365,660.1899,43,107,0
660.0746,660.3161,55,108,0
660.32874,660.61505,53,109,0
660.1936,660.6411,43,108,0
660.4797,660.6411,55,109,0
660.813,660.9588,53,110,0
660.9797,661.1255,55,110,0
660.6463,661.2646,52,110,0
661.55176,662.0061,48,110,0
661.6708,662.1172,52,110,0
661.7898,662.22833,55,110,0
664.4029,664.9497,33,110,0
664.5458,665.08484,36,110,0
664.68866,665.22003,40,110,0
664.8315,665.34106,45,110,0
664.9666,665.4601,48,110,0
665.10175,665.57916,52,110,0
665.2369,665.6913,57,110,0
665.35596,665.80237,60,110,0
665.475,665.91345,64,110,0
667.867,668.3818,31,110,0
668.00214,668.5068,36,110,0
668.13727,668.6318,40,110,0
668.2724,668.7568,43,110,0
668.3974,668.8818,48,110,0
668.5224,669.0068,52,110,0
668.6474,669.0068,55,110,0
669.0224,669.5068,31,110,0
669.1474,669.6318,35,110,0
669.2763,669.7607,38,110,0
669.3974,669.8818,43,110,0
669.5224,670.0068,47,110,0
669.7724,670.1318,55,110,0
669.6513,670.1357,50,110,0
673.694,674.42834,48,110,0
673.694,674.42834,36,110,0
674.444,674.80334,43,110,0
674.444,674.80334,31,110,0
674.819,677.05334,31,110,0
674.819,677.05334,43,110,0
677.069,677.80334,72,80,0
677.819,678.17834,71,80,0
678.194,680.42834,71,80,0
680.444,681.17834,72,80,0
681.194,681.55334,71,80,0
681.569,682.30334,71,80,0
682.694,683.42834,71,80,0
683.819,684.592,71,80,0
685.0032,686.2025,71,80,0
686.21936,687.4187,70,80,0
687.4356,688.2295,53,80,0
687.4356,688.2295,41,80,0
688.2464,688.63495,46,80,0
688.2464,688.63495,34,80,0
688.6518,690.88617,34,80,0
688.6518,690.88617,46,80,0
690.9018,691.63617,65,80,0
691.6518,692.01117,58,80,0
692.0268,692.18304,67,80,0
692.12054,692.2768,65,80,0
692.2143,692.37054,67,80,0
692.30804,692.4643,65,81,0
692.4018,692.55804,67,81,0
692.49554,692.6518,65,81,0
692.5893,692.74554,67,82,0
692.68304,692.8393,65,82,0
692.7768,692.93304,67,82,0
692.87054,693.0268,65,83,0
692.9643,693.12054,67,83,0
692.0268,693.13617,58,80,0
693.05804,693.2143,65,83,0
693.1518,693.30804,67,84,0
693.24554,693.4018,65,84,0
693.3393,693.49554,67,84,0
693.43304,693.5893,65,85,0
693.5268,693.68304,67,85,0
693.62054,693.7768,65,85,0
693.7143,693.87054,67,85,0
693.80804,693.9643,65,86,0
693.9018,694.05804,67,86,0
693.99554,694.1518,65,86,0
694.0893,694.24554,67,87,0
693.1518,694.26117,58,84,0
694.18304,694.3393,65,87,0
694.2768,694.43304,67,87,0
694.37054,694.5268,65,88,0
694.4643,694.62054,67,88,0
694.55804,694.7143,65,88,0
694.6518,694.80804,67,89,0
694.74554,694.9018,65,89,0
694.8393,694.99554,67,89,0
694.93304,695.0893,65,90,0
695.0268,695.18304,67,90,0
695.12054,695.2768,65,90,0
695.2143,695.37054,67,90,0
694.2768,695.38617,58,87,0
695.30804,695.4643,65,90,0
695.4018,695.55804,67,90,0
695.49554,695.6518,65,90,0
695.5893,695.74554,67,90,0
695.68304,695.8393,65,89,0
695.7768,695.93304,67,89,0
695.87054,696.0268,65,89,0
695.9643,696.12054,67,88,0
696.05804,696.2143,65,88,0
696.1518,696.30804,67,88,0
696.24554,696.4018,65,87,0
696.3393,696.49554,67,87,0
695.4018,696.51117,58,90,0
696.43304,696.5893,65,87,0
696.5268,696.68304,67,86,0
696.62054,696.7768,65,86,0
696.7143,696.87054,67,86,0
696.80804,696.9643,65,85,0
696.9018,697.05804,67,85,0
696.99554,697.1518,65,85,0
697.0893,697.24554,67,85,0
697.18304,697.3393,65,84,0
697.2768,697.43304,67,84,0
697.37054,697.5268,65,84,0
697.4643,697.62054,67,83,0
696.5268,697.63617,58,86,0
697.55804,697.7176,65,83,0
697.6518,697.8163,67,83,0
697.7505,697.915,65,82,0
697.8492,698.0137,67,82,0
697.9479,698.11237,65,82,0
698.0466,698.211,67,81,0
698.1452,698.3097,65,81,0
698.2439,698.4084,67,81,0
698.3426,698.5071,65,80,0
698.4413,698.6058,67,80,0
698.54,698.70447,65,80,0
698.6387,698.8031,67,80,0
697.6518,698.8196,58,83,0
698.73737,698.90356,65,80,0
698.836,698.90356,65,80,0
698.836,699.00494,67,80,0
698.9374,699.10626,65,80,0
699.0387,699.20764,67,80,0
699.1401,699.309,65,80,0
699.24146,699.41034,67,80,0
699.3428,699.5117,65,80,0
699.44415,699.61304,67,80,0
699.5455,699.7144,65,80,0
699.64685,699.81573,67,80,0
699.74817,699.9171,65,80,0
699.84955,700.01843,67,80,0
698.836,700.03534,58,80,0
699.95087,700.11475,65,80,0
708.77277,713.46924,34,110,0
713.48706,713.89777,32,82,0
713.91565,716.15,31,80,0
716.16565,717.275,30,80,0
717.29065,719.15,29,80,0
719.16565,719.525,31,80,0
719.54065,720.30414,32,80,0
720.32104,720.73175,33,80,0
720.74963,721.5144,34,80,0
724.5908,725.3252,51,80,0
724.5908,725.3252,39,80,0
725.7158,726.4502,53,80,0
725.7158,726.4502,41,80,0
726.8408,727.2294,55,80,0
726.8408,727.2294,43,80,0
727.2463,727.63477,48,80,0
727.2463,727.63477,36,80,0
727.6517,728.40576,47,80,0
727.6517,728.40576,35,80,0
731.50195,732.2363,48,80,0
731.50195,732.2363,36,80,0
732.62695,733.3613,49,80,0
732.62695,733.3613,37,80,0
733.75195,734.14044,51,80,0
733.75195,734.14044,39,80,0
734.15735,734.54584,32,80,0
734.15735,734.54584,44,80,0
734.56274,735.31683,43,80,0
734.56274,735.31683,31,80,0
738.33246,739.06683,56,80,0
738.33246,739.06683,44,80,0
739.45746,740.19183,54,80,0
739.45746,740.19183,42,80,0
740.58246,741.31683,55,80,0
740.58246,741.31683,43,80,0
741.70746,742.44183,76,80,0
742.83246,743.56683,77,80,0
743.95746,744.69183,74,80,0
745.08246,745.81683,51,80,0
745.08246,745.81683,39,80,0
746.20746,746.94183,48,80,0
746.20746,746.94183,36,80,0
747.33246,747.71075,50,80,0
747.33246,747.71075,38,80,0
747.72723,748.1157,48,80,0
747.72723,748.1157,36,80,0
748.1326,748.5211,47,80,0
748.1326,748.5211,35,80,0
748.538,749.2921,71,80,0
749.68274,750.4171,72,80,0
750.8174,751.5706,69,80,0
751.9813,752.7544,46,80,0
751.9813,752.7544,34,80,0
753.1762,754.0036,43,80,0
753.1762,754.0036,31,80,0
754.0215,754.3295,32,80,0
754.1881,754.4679,44,80,0
754.3429,754.6082,32,80,0
754.4858,754.7419,44,80,0
754.6209,754.85706,32,80,0
754.7543,754.9913,44,81,0
754.8858,755.1163,32,81,0
755.0108,755.23346,44,81,0
755.1358,755.35846,32,81,0
755.2608,755.5069,42,81,0
755.3858,755.6241,30,82,0
755.5108,755.7491,42,82,0
755.6358,755.8819,30,82,0
755.7608,755.9913,42,82,0
755.8858,756.10065,30,82,0
756.0108,756.23737,42,83,0
756.1358,756.36237,30,83,0
756.2608,756.3702,42,83,0
756.3858,756.60455,31,83,0
756.5108,756.72565,43,83,0
756.6358,756.8702,31,84,0
756.7608,756.9952,43,84,0
756.8858,757.1241,31,84,0
757.0108,757.2491,43,84,0
757.1358,757.35455,31,85,0
757.2608,757.4952,43,85,0
757.3858,757.61237,31,90,0
757.5108,757.73737,43,80,0
757.6358,757.85846,36,80,0
757.7608,757.9952,40,81,0
757.8858,758.1202,43,81,0
758.0108,758.22565,48,81,0
758.1358,758.34674,52,81,0
758.2608,758.4913,48,81,0
758.3858,758.59283,52,82,0
758.5108,758.753,55,82,0
758.6358,758.8702,48,82,0
758.7608,758.98346,52,82,0
758.8858,759.128,55,82,0
759.0108,759.2491,47,83,0
759.1358,759.3741,50,83,0
759.2608,759.503,55,83,0
759.3858,759.61237,48,83,0
759.5108,759.72565,52,84,0
759.6358,759.8702,55,84,0
759.7608,760.003,50,84,0
759.8858,760.1202,53,84,0
760.0108,760.253,55,84,0
760.1358,760.378,48,85,0
760.2608,760.46783,52,85,0
760.3858,760.6202,55,85,0
760.5108,760.7491,50,85,0
760.6358,760.878,53,85,0
760.7608,760.97955,55,86,0
760.8858,761.10065,47,86,0
761.0108,761.22565,53,86,0
761.1358,761.378,55,86,0
761.2608,761.47955,45,86,0
761.3858,761.6319,48,87,0
761.5108,761.72565,55,87,0
761.6358,761.86237,47,87,0
761.7608,761.97174,50,87,0
761.8858,762.10846,55,88,0
762.0108,762.22174,47,88,0
762.1358,762.335,50,88,0
762.2608,762.47565,55,88,0
762.3858,762.628,48,88,0
762.5108,762.753,52,89,0
762.6358,762.8702,55,89,0
762.7608,762.98737,47,89,0
762.8858,763.128,50,89,0
763.0108,763.2413,55,89,0
763.1358,763.34674,48,90,0
763.2608,763.4639,52,90,0
763.3858,763.59674,55,90,0
763.5108,763.73346,52,90,0
763.6358,763.85455,53,90,0
763.7608,763.96783,55,91,0
763.8858,764.09674,48,91,0
764.0108,764.2413,52,91,0
764.1358,764.34674,55,91,0
764.2608,764.48346,50,91,0
764.3858,764.60065,53,92,0
764.5108,764.753,55,92,0
764.6358,764.8741,49,92,0
764.7608,764.97565,52,92,0
764.8858,765.1202,55,93,0
765.0108,765.2139,50,93,0
765.1358,765.36237,53,93,0
765.2608,765.47955,55,93,0
765.3858,765.585,52,93,0
765.5108,765.753,55,94,0
765.6397,765.8702,52,94,0
765.7608,765.97174,55,94,0
765.8858,766.11237,52,94,0
766.0108,766.23346,55,94,0
766.1358,766.35846,52,95,0
766.2608,766.46783,55,95,0
766.3858,766.6358,52,95,0
766.5108,766.7413,48,95,0
766.6358,766.8741,55,95,0
766.7608,766.97174,48,96,0
766.8858,767.11237,55,96,0
767.0108,767.22174,48,96,0
767.1358,767.3819,55,96,0
767.2608,767.4952,48,97,0
767.3858,767.61237,55,97,0
767.5108,767.7452,48,97,0
767.6358,767.8741,52,100,0
767.7608,767.98346,55,100,0
767.8858,768.1241,52,100,0
768.0108,768.2452,55,101,0
768.1358,768.3702,50,101,0
768.2608,768.4913,55,102,0
768.3858,768.6202,48,102,0
768.5108,768.73737,55,102,0
768.6358,768.8702,48,103,0
768.7608,768.9991,43,103,0
768.8858,769.10846,54,104,0
769.0108,769.22174,55,104,0
769.1358,769.36237,42,104,0
769.2608,769.48346,54,105,0
769.3858,769.59674,55,105,0
769.5108,769.73737,43,106,0
769.6358,769.85065,54,106,0
769.7608,769.9991,55,107,0
769.8858,770.10846,43,107,0
770.0108,770.2452,54,107,0
770.1358,770.36237,55,108,0
770.2608,770.503,42,108,0
770.3858,770.6241,54,109,0
770.5108,770.7491,55,109,0
770.6358,770.8741,43,109,0
770.7608,770.9991,54,110,0
770.8858,771.1163,55,110,0
771.0108,771.2491,42,111,0
771.1358,771.3663,54,111,0
771.2608,771.4952,55,112,0
771.3858,771.6319,42,112,0
771.5108,771.7452,54,112,0
771.6397,771.85846,55,113,0
771.7608,772.0069,41,113,0
771.8858,772.10065,54,114,0
772.0147,772.23346,55,114,0
772.1358,772.35455,40,114,0
772.2608,772.503,48,105,0
772.3858,772.61237,55,105,0
772.5108,772.7569,39,105,0
772.6358,772.8663,48,105,0
772.7608,772.98346,55,105,0
772.8858,773.11237,40,105,0
773.0108,773.23346,48,105,0
773.1358,773.35065,55,105,0
773.2608,773.4952,48,105,0
773.3858,773.6319,52,105,0
773.5108,773.72955,55,105,0
773.6358,773.878,47,105,0
773.7608,773.9991,50,105,0
773.8858,774.1319,55,105,0
774.0108,774.2413,48,105,0
774.1358,774.3819,52,105,0
774.2608,774.503,55,105,0
774.3858,774.6241,46,105,0
774.5108,774.7491,50,105,0
774.6358,774.878,55,105,0
774.7608,774.9991,45,105,0
774.8858,775.1202,52,105,0
775.0108,775.23737,55,105,0
775.1358,775.34674,46,105,0
775.2608,775.503,50,105,0
775.3858,775.59674,55,105,0
775.5108,775.7139,45,105,0
775.6358,775.86237,52,104,0
775.7608,775.9991,55,103,0
775.8858,776.10065,57,102,0
776.0108,776.23346,55,101,0
776.1358,776.3702,52,100,0
776.2608,776.47174,45,99,0
776.3858,776.60846,52,97,0
776.5108,776.73346,55,96,0
776.6358,776.85065,45,95,0
776.7608,776.9991,50,94,0
776.8858,777.10846,53,93,0
777.0108,777.2452,57,92,0
777.1358,777.3741,53,91,0
777.2608,777.48737,50,89,0
777.3858,777.6241,45,88,0
777.5108,777.7452,50,87,0
777.6358,777.8702,53,86,0
777.7608,777.97955,45,85,0
777.8858,778.1241,50,84,0
778.0108,778.2491,53,82,0
778.1358,778.3819,45,81,0
778.2608,778.503,50,80,0
778.3858,778.6202,53,79,0
778.5108,778.753,44,78,0
778.6358,778.8741,50,77,0
778.7608,778.9991,54,76,0
778.8858,779.10065,43,75,0
779.0108,779.2491,50,75,0
779.1358,779.378,55,76,0
779.2608,779.4952,43,76,0
779.3858,779.6202,50,77,0
779.5108,779.753,55,78,0
779.6358,779.84283,43,78,0
779.7608,779.9991,50,79,0
779.8858,780.128,55,80,0
780.0108,780.23346,43,80,0
780.1358,780.378,50,81,0
780.2608,780.4952,57,82,0
780.3858,780.6319,43,82,0
780.5108,780.7413,50,83,0
780.6358,780.8702,57,84,0
780.7608,780.9991,43,84,0
780.8858,781.1241,50,75,0
781.0108,781.2491,57,75,0
781.1358,781.3819,43,75,0
781.2608,781.503,55,75,0
781.3858,781.6202,59,75,0
781.5108,781.7491,45,75,0
781.6358,781.8702,55,75,0
781.7647,781.9952,60,75,0
781.8858,782.09674,47,75,0
782.0108,782.2491,55,75,0
782.1358,782.3389,62,75,0
782.2608,782.47955,47,75,0
782.3858,782.6163,55,75,0
782.5108,782.72955,59,75,0
782.6358,782.8702,48,75,0
782.7608,782.9952,52,75,0
782.8858,783.1202,55,75,0
783.0108,783.22955,50,75,0
783.1358,783.35065,53,75,0
783.2608,783.4991,55,75,0
783.3858,783.60065,50,75,0
783.5108,783.7452,53,75,0
783.6358,783.8702,55,75,0
783.7608,783.97955,48,75,0
783.8858,784.10455,52,75,0
784.0108,784.22565,55,75,0
784.1358,784.35846,47,75,0
784.2608,784.4991,52,75,0
784.3858,784.6202,56,75,0
784.5108,784.753,47,75,0
784.6358,784.8741,52,75,0
784.7608,785.0125,56,75,0
784.8858,785.1392,45,75,0
785.02094,785.287,52,75,0
785.15607,785.41174,57,75,0
785.2912,785.57245,44,75,0
785.4341,785.6796,52,75,0
785.57697,785.81696,56,75,0
785.7198,785.96893,45,75,0
785.8549,786.0872,52,75,0
785.99005,786.215,57,75,0
786.1252,786.35175,44,76,0
786.2502,786.47675,52,76,0
786.3752,786.59,56,76,0
786.5002,786.715,45,77,0
786.6252,786.84393,52,77,0
786.7541,786.97675,57,78,0
786.8752,787.09,45,78,0
787.0002,787.1955,52,78,0
787.1252,787.35956,57,79,0
787.2502,787.48846,44,79,0
787.3752,787.60565,52,79,0
787.5002,787.7463,56,80,0
787.6252,787.84393,45,80,0
787.7502,787.9963,52,80,0
787.8752,788.1174,57,81,0
788.0002,788.22675,45,81,0
788.1252,788.35175,52,82,0
788.2502,788.465,57,82,0
788.3752,788.60956,45,82,0
788.5002,788.73846,52,83,0
788.6291,788.8752,57,83,0
788.7502,788.98065,44,83,0
788.8752,789.09,52,84,0
789.0041,789.2502,59,84,0
789.1252,789.3674,44,85,0
789.2502,789.4963,52,85,0
789.3752,789.60956,59,85,0
789.5002,789.7463,45,86,0
789.6252,789.8713,52,86,0
789.7502,789.9963,59,86,0
789.8752,790.10956,44,87,0
790.0002,790.2424,52,87,0
790.1252,790.35565,59,88,0
790.2502,790.48846,44,88,0
790.3752,790.61346,52,88,0
790.5002,790.72284,59,89,0
790.6252,790.85956,45,89,0
790.7502,790.98846,52,89,0
790.8752,791.11346,59,90,0
791.0002,791.23456,44,90,0
791.1252,791.34,52,91,0
791.2502,791.48456,59,91,0
791.3752,791.5822,44,91,0
791.5002,791.73065,52,92,0
791.6252,791.85565,59,92,0
791.7502,791.9611,45,92,0
791.8752,792.0861,52,93,0
792.0002,792.23065,59,93,0
792.1252,792.3361,44,94,0
792.2502,792.48456,52,94,0
792.3752,792.5861,59,94,0
792.5002,792.7033,44,95,0
792.6252,792.85956,52,95,0
792.7502,792.9963,59,95,0
792.8752,793.09,45,96,0
793.0002,793.2424,52,96,0
793.1252,793.36346,59,97,0
793.2502,793.48456,44,97,0
793.3752,793.6213,52,97,0
793.5002,793.73456,59,98,0
793.6252,793.8361,45,98,0
793.7502,793.98456,52,98,0
793.8752,794.09784,60,99,0
794.0002,794.2033,47,99,0
794.1252,794.35956,52,100,0
794.2502,794.4611,60,100,0
794.3752,794.5861,45,100,0
794.5002,794.71893,52,101,0
794.6252,794.8322,60,101,0
794.7502,794.98065,41,101,0
794.8752,795.09393,53,102,0
795.0002,795.23065,41,102,0
795.1252,795.34,53,103,0
795.2502,795.48065,41,103,0
795.3752,795.61346,53,103,0
795.5002,795.72675,39,104,0
795.6252,795.8322,51,104,0
795.7502,795.98456,39,104,0
795.8752,796.11346,40,105,0
796.0002,796.23065,51,104,0
796.1252,796.3713,52,102,0
796.2502,796.4924,39,100,0
796.3752,796.59784,51,98,0
796.5002,796.72284,52,97,0
796.6252,796.8713,40,95,0
796.7502,796.98456,51,93,0
796.8752,797.09784,52,91,0
797.0002,797.23846,40,90,0
797.1252,797.35956,51,88,0
797.2502,797.48846,52,86,0
797.3752,797.61346,39,84,0
797.5002,797.73846,51,83,0
797.6252,797.8674,52,81,0
797.7502,797.97675,40,79,0
797.8752,798.1174,51,77,0
798.0002,798.23846,52,76,0
798.1252,798.3674,33,75,0
798.2502,798.4963,44,75,0
798.3752,798.60565,45,75,0
798.5002,798.7463,32,76,0
798.6252,798.85175,44,76,0
798.7502,798.97675,45,76,0
798.8752,799.09,33,77,0
799.0002,799.22284,44,77,0
799.1252,799.3713,45,77,0
799.2502,799.4963,31,78,0
799.3752,799.61346,42,78,0
799.5002,799.7111,43,78,0
799.6252,799.85956,30,79,0
799.7502,799.98065,42,79,0
799.8752,800.09393,43,79,0
800.0002,800.2424,31,80,0
800.1252,800.3674,42,80,0
800.2502,800.48065,43,80,0
800.3752,800.60175,31,81,0
800.5002,800.72675,42,81,0
800.6252,800.86346,43,81,0
800.7502,800.965,30,82,0
800.8752,801.10565,42,82,0
801.0002,801.22675,43,82,0
801.1252,801.3322,31,83,0
801.2502,801.47675,42,83,0
801.3752,801.60956,43,83,0
801.5002,801.72284,31,84,0
801.6252,801.84,42,84,0
801.7502,801.98456,43,84,0
801.8752,802.09,30,85,0
802.0002,802.2463,42,85,0
802.1252,802.3361,43,85,0
802.2502,802.46893,31,86,0
802.3752,802.61346,42,86,0
802.5002,802.73456,43,86,0
802.6252,802.84393,31,87,0
802.7502,802.98456,36,87,0
802.8752,803.1213,43,87,0
803.0002,803.23456,30,88,0
803.1252,803.34,36,88,0
803.2502,803.4924,42,88,0
803.3752,803.61346,31,89,0
803.5002,803.73065,36,89,0
803.6252,803.86346,43,89,0
803.7502,803.9611,31,90,0
803.8752,804.1213,36,90,0
804.0002,804.2424,43,90,0
804.1252,804.3674,30,91,0
804.2502,804.47284,36,91,0
804.3752,804.60565,42,91,0
804.5002,804.73456,31,92,0
804.6252,804.85565,36,92,0
804.7502,804.98846,43,92,0
804.8752,805.1213,29,93,0
805.0002,805.23456,36,93,0
805.1252,805.35956,41,93,0
805.2502,805.48846,29,94,0
805.3752,805.60956,36,94,0
805.5002,805.7463,41,94,0
805.6252,805.8674,29,95,0
805.7502,805.9963,36,95,0
805.8752,806.09,41,95,0
806.0002,806.23456,31,96,0
806.1252,806.34,36,96,0
806.2502,806.48846,38,96,0
806.3752,806.59393,43,97,0
806.5002,806.72284,48,97,0
806.6252,806.8674,50,97,0
806.7502,806.98456,55,98,0
806.8752,807.10175,52,98,0
807.0002,807.2424,48,98,0
807.1252,807.35956,43,99,0
807.2502,807.47284,48,99,0
807.3752,807.60565,50,99,0
807.5002,807.7463,55,100,0
807.6252,807.86346,50,100,0
807.7502,807.96893,48,100,0
807.8752,808.1213,43,101,0
808.0002,808.23846,55,101,0
808.1252,808.35956,60,101,0
808.2502,808.48065,43,102,0
808.3752,808.6213,55,102,0
808.5002,808.7463,59,102,0
808.6252,808.85956,45,103,0
808.7502,808.9963,55,103,0
808.8752,809.10565,60,103,0
809.0002,809.21893,47,104,0
809.1252,809.34,55,104,0
809.2502,809.46893,62,104,0
809.3752,809.60175,47,105,0
809.5002,809.71893,55,102,0
809.6252,809.85956,59,98,0
809.7502,809.97284,43,94,0
809.8752,810.10956,55,91,0
810.0002,810.22284,62,87,0
810.1252,810.34784,48,83,0
810.2502,810.47675,55,79,0
810.3752,810.60956,60,76,0
810.5002,810.7072,48,75,0
810.6252,810.8361,55,75,0
810.7502,810.98456,60,75,0
810.8752,811.09784,47,75,0
811.0002,811.21893,55,75,0
811.1252,811.34393,59,75,0
811.2502,811.4963,48,75,0
811.3752,811.5822,55,75,0
811.5002,811.73456,60,75,0
811.6252,811.85565,44,75,0
811.7502,811.965,52,75,0
811.8752,812.09784,56,75,0
812.0002,812.2111,40,75,0
812.1252,812.35565,52,75,0
812.2502,812.465,59,75,0
812.3752,812.60175,45,75,0
812.5002,812.73846,52,75,0
812.6252,812.84,57,75,0
812.7502,812.97675,45,75,0
812.8752,813.09784,52,75,0
813.0002,813.22675,57,75,0
813.1252,813.35175,44,75,0
813.2502,813.48846,52,75,0
813.3752,813.60175,56,75,0
813.5002,813.73456,45,75,0
813.6252,813.8713,52,75,0
813.7502,813.98846,57,75,0
813.8752,814.11346,40,75,0
814.0002,814.22675,48,75,0
814.1252,814.35956,52,75,0
814.2502,814.48846,36,75,0
814.3752,814.6213,48,75,0
814.5002,814.73456,55,75,0
814.6252,814.84784,41,75,0
814.7502,814.965,48,75,0
814.8752,815.1213,53,75,0
815.0002,815.23846,41,75,0
815.1252,815.36346,48,75,0
815.2502,815.4924,53,75,0
815.3752,815.60565,40,75,0
815.5002,815.7111,45,75,0
815.6252,815.84393,52,75,0
815.7502,815.9611,38,75,0
815.8752,816.09784,45,75,0
816.0002,816.23065,50,75,0
816.1252,816.36346,37,75,0
816.2502,816.48456,45,75,0
816.3752,816.60175,49,75,0
816.5002,816.73456,33,75,0
816.6252,816.86346,45,75,0
816.7541,816.9924,52,75,0
816.8752,817.1213,38,75,0
817.0002,817.2424,45,75,0
817.1252,817.35956,50,75,0
817.2502,817.48846,38,75,0
817.3752,817.6174,45,75,0
817.5002,817.7424,50,75,0
817.6252,817.8713,37,75,0
817.7502,817.98846,45,75,0
817.8752,818.11346,49,75,0
818.0002,818.23456,38,75,0
818.1252,818.36346,45,75,0
818.2502,818.4924,50,75,0
818.3752,818.60565,36,75,0
818.5002,818.73456,41,75,0
818.6252,818.8713,48,75,0
818.7502,818.98065,35,76,0
818.8752,819.11346,41,76,0
819.0002,819.2424,47,76,0
819.1252,819.36346,36,77,0
819.2502,819.48456,41,77,0
819.3752,819.60175,48,77,0
819.5002,819.73065,35,78,0
819.6252,819.8713,43,78,0
819.7502,819.97284,47,79,0
819.8752,820.11346,34,79,0
820.0002,820.2424,43,79,0
820.1252,820.36346,46,80,0
820.2502,820.48456,35,80,0
820.3752,820.6174,43,80,0
820.5002,820.72675,47,81,0
820.6252,820.85956,35,81,0
820.7502,820.965,43,82,0
820.8752,821.09784,47,82,0
821.0002,821.2424,34,82,0
821.1252,821.34784,43,83,0
821.2502,821.48456,46,83,0
821.3752,821.60956,35,83,0
821.5002,821.73846,43,84,0
821.6252,821.84,47,84,0
821.7502,821.98456,31,85,0
821.8752,822.10565,42,85,0
822.0002,822.23456,43,85,0
822.1252,822.36346,33,86,0
822.2502,822.48065,43,86,0
822.3752,822.6174,45,86,0
822.5002,822.71893,35,87,0
822.6252,822.85175,43,87,0
822.7502,822.98846,47,88,0
822.8752,823.10565,36,88,0
823.0002,823.22675,43,88,0
823.1252,823.35175,48,89,0
823.2502,823.48065,35,89,0
823.3752,823.59393,43,89,0
823.5002,823.72675,47,90,0
823.6252,823.84393,36,90,0
823.7502,823.98456,43,91,0
823.8752,824.0861,48,91,0
824.0002,824.23846,36,91,0
824.1252,824.3674,47,92,0
824.2502,824.4924,48,92,0
824.3752,824.6213,38,92,0
824.5002,824.7463,48,93,0
824.6252,824.8674,50,93,0
824.7502,824.98456,40,94,0
824.8752,825.10956,48,94,0
825.0002,825.23065,52,94,0
825.1252,825.34,41,95,0
825.2502,825.4963,48,95,0
825.3752,825.61346,53,95,0
825.5002,825.72675,41,96,0
825.6252,825.8361,48,96,0
825.7502,825.9572,53,97,0
825.8752,826.09,42,97,0
826.0002,826.2424,48,97,0
826.1252,826.3674,54,98,0
826.2502,826.4963,43,98,0
826.3752,826.6213,48,98,0
826.5002,826.73846,55,99,0
826.6252,826.85565,43,99,0
826.7502,826.98456,47,100,0
826.8752,827.10956,55,100,0
827.0002,827.2424,43,100,0
827.1252,827.36346,48,101,0
827.2502,827.4862,55,101,0
827.3752,827.6343,43,101,0
827.5068,827.7494,47,102,0
827.63837,827.87976,55,102,0
827.76996,828.0064,43,103,0
827.9051,828.16693,48,103,0
828.0402,828.2959,55,103,0
828.17535,828.4531,43,104,0
828.3182,828.6045,47,104,0
828.4678,828.624,55,104,0
828.624,829.4121,67,115,0
828.624,829.4121,55,115,0
829.416,829.7871,64,96,0
829.416,829.7871,52,96,0
829.791,830.9121,64,80,0
829.791,830.9121,52,80,0
830.916,831.6621,64,110,0
830.916,831.6621,52,110,0
831.666,832.0371,60,96,0
831.666,832.0371,48,96,0
832.041,833.1621,60,80,0
832.041,833.1621,48,80,0
833.166,833.9004,48,110,0
833.166,833.9121,60,110,0
833.916,834.2754,57,96,0
833.916,834.2754,45,96,0
834.291,835.52026,57,80,0
834.291,835.52026,45,80,0
835.5398,835.7836,49,80,0
835.6827,835.91876,57,80,0
835.82166,836.06616,61,80,0
835.9568,836.17554,45,80,0
836.0818,836.29663,57,80,0
836.2068,836.42163,64,80,0
836.3318,836.55835,50,80,0
836.4568,836.67944,57,80,0
836.5818,836.7927,62,80,0
836.7068,836.9177,50,80,0
836.8318,837.05444,57,80,0
836.9568,837.19116,62,80,0
837.0818,837.30444,49,80,0
837.2068,837.42554,57,81,0
837.3318,837.56226,61,81,0
837.4568,837.67554,50,81,0
837.5818,837.824,57,81,0
837.7068,837.94507,62,82,0
837.8318,838.07007,50,82,0
837.9568,838.19507,57,82,0
838.0818,838.2927,62,83,0
838.2068,838.44507,48,83,0
838.3318,838.56616,57,83,0
838.4568,838.69116,60,83,0
838.5818,838.824,50,84,0
838.7068,838.949,57,84,0
838.8318,839.07007,62,84,0
838.9568,839.199,48,85,0
839.0818,839.31616,53,85,0
839.2068,839.449,60,85,0
839.3318,839.56616,47,85,0
839.4568,839.67163,53,86,0
839.5818,839.824,59,86,0
839.7068,839.93726,48,86,0
839.8318,840.07007,53,87,0
839.9568,840.199,60,87,0
840.0818,840.324,47,87,0
840.2068,840.44116,55,87,0
840.3318,840.57007,59,88,0
840.4568,840.68726,46,88,0
840.5818,840.79663,55,88,0
840.7068,840.9529,58,88,0
840.8318,841.05054,47,89,0
840.9568,841.18335,55,89,0
841.0818,841.30444,59,89,0
841.2068,841.4529,47,90,0
841.3318,841.55835,55,90,0
841.4568,841.67554,59,90,0
841.5818,841.7927,46,90,0
841.7068,841.92163,55,91,0
841.8318,842.04663,58,91,0
841.9568,842.19507,47,91,0
842.0818,842.30054,55,92,0
842.2068,842.44507,59,92,0
842.3318,842.57007,47,92,0
842.4568,842.7029,55,92,0
842.5818,842.8279,59,93,0
842.7068,842.9529,46,93,0
842.8318,843.06226,55,93,0
842.9568,843.19507,58,94,0
843.0818,843.324,47,94,0
843.2068,843.44116,55,94,0
843.3318,843.54663,59,94,0
843.4568,843.7029,45,95,0
843.5818,843.81226,50,95,0
843.7068,843.94116,57,95,0
843.8318,844.06226,44,95,0
843.9568,844.19116,50,96,0
844.0818,844.324,56,96,0
844.2068,844.44116,45,96,0
844.3318,844.574,50,97,0
844.4568,844.7029,57,97,0
844.5818,844.80444,45,97,0
844.7068,844.93335,50,97,0
844.8318,845.0388,57,98,0
844.9568,845.19507,44,98,0
845.0818,845.3279,50,98,0
845.2068,845.43335,56,99,0
845.3318,845.55835,45,99,0
845.4568,845.69116,50,99,0
845.5818,845.824,57,99,0
845.7068,845.94507,45,100,0
845.8318,846.04663,50,100,0
845.9568,846.199,57,100,0
846.0818,846.32007,44,101,0
846.2068,846.44507,50,101,0
846.3318,846.57007,56,101,0
846.4568,846.69116,45,101,0
846.5818,846.81616,50,102,0
846.7068,846.9138,57,102,0
846.8318,847.05835,43,102,0
846.9568,847.17554,48,102,0
847.0818,847.2927,55,103,0
847.2068,847.42163,43,103,0
847.3318,847.55054,47,103,0
847.4568,847.68726,55,104,0
847.5818,847.80835,43,104,0
847.7068,847.92163,48,104,0
847.8318,848.074,55,104,0
847.9568,848.19116,43,105,0
848.0818,848.3279,50,105,0
848.2068,848.43726,55,105,0
848.3318,848.5427,43,106,0
848.4568,848.67163,49,106,0
848.5818,848.7927,55,106,0
848.7068,848.93335,43,106,0
848.8318,849.04663,50,107,0
848.9568,849.17163,55,107,0
849.0818,849.31226,43,107,0
849.2068,849.43335,52,108,0
849.3318,849.54663,55,108,0
849.4568,849.68335,43,108,0
849.5818,849.81226,52,108,0
849.7068,849.9529,55,109,0
849.8318,850.07007,43,109,0
849.9568,850.2029,53,109,0
850.0818,850.31616,55,109,0
850.2068,850.42163,43,110,0
850.3318,850.574,53,110,0
850.4568,850.7029,55,110,0
850.5818,850.80054,43,110,0
850.7068,850.9529,52,110,0
850.8318,851.06226,55,110,0
850.9568,851.18726,43,110,0
851.0818,851.324,53,110,0
851.2068,851.44507,55,110,0
851.3318,851.56616,43,110,0
851.4568,851.68726,53,110,0
851.5818,851.7927,55,110,0
851.7068,851.9138,43,110,0
851.8318,852.06616,53,110,0
851.9568,852.17944,55,110,0
852.0818,852.2927,43,110,0
852.2068,852.44507,52,110,0
852.3318,852.56226,55,110,0
852.4568,852.68726,43,110,0
852.5818,852.824,52,110,0
852.7068,852.93335,55,110,0
852.8318,853.07007,43,110,0
852.9568,853.19507,50,110,0
853.0818,853.30054,55,110,0
853.2068,853.449,43,110,0
853.3318,853.56616,48,110,0
853.4568,853.69507,55,110,0
853.5818,853.79663,43,110,0
853.7068,853.94116,48,110,0
853.8318,854.074,55,110,0
853.9568,854.18726,43,110,0
854.0818,854.324,47,110,0
854.2068,854.4529,55,110,0
854.3318,854.55835,43,110,0
854.4568,854.69116,48,110,0
854.5818,854.80444,55,110,0
854.7068,854.94116,43,110,0
854.8318,855.05835,45,110,0
854.9568,855.19116,55,110,0
855.0818,855.31616,43,110,0
855.2068,855.4138,45,110,0
855.3318,855.56226,55,110,0
855.4568,855.67554,43,110,0
855.5818,855.81616,47,110,0
855.7068,855.92633,55,110,0
855.8318,856.07025,43,110,0
855.9634,856.1936,49,110,0
856.095,856.3363,55,110,0
856.2265,856.47144,43,110,0
856.36163,856.59393,50,110,0
856.49677,856.748,55,110,0
856.63196,856.84174,43,110,0
856.7391,856.9585,47,110,0
856.8462,857.0757,50,110,0
856.9634,857.0757,53,110,0
857.08057,857.3005,55,110,0
857.19775,857.40204,59,110,0
857.30493,857.5034,62,110,0
857.40625,857.5975,65,110,0
863.0504,863.30536,76,80,0
863.182,863.4287,72,80,0
863.31354,863.5685,76,80,0
863.4451,863.6672,72,80,0
863.5767,863.81934,76,80,0
863.7083,863.9591,72,80,0
863.8399,864.0866,76,80,0
863.97144,864.2264,72,80,0
864.103,864.34564,76,80,0
864.2346,864.4813,72,80,0
864.3662,864.6006,76,80,0
864.4978,864.7322,72,80,0
864.62933,864.87195,76,80,0
864.7609,865.01996,72,80,0
864.8925,865.1392,76,80,0
865.0241,865.27905,72,80,0
865.1557,865.41473,76,80,0
865.28723,865.52576,72,80,0
865.4188,865.6573,76,80,0
865.5504,865.793,73,80,0
865.682,865.92456,76,80,0
865.81354,866.0644,73,80,0
865.9451,866.18365,76,80,0
866.0767,866.31934,73,80,0
866.2083,866.455,76,80,0
866.3399,866.58246,73,80,0
866.47144,866.7223,76,80,0
866.603,866.86206,71,80,0
866.7346,866.99365,77,80,0
866.8662,867.1129,71,80,0
866.9978,867.24036,77,80,0
867.12933,867.3637,71,80,0
867.2609,867.5118,77,80,0
867.3925,867.64746,71,80,0
867.5241,867.77905,77,80,0
867.6557,867.91473,71,80,0
867.78723,868.0216,77,80,0
867.9188,868.17786,71,80,0
868.0504,868.2971,77,80,0
868.182,868.4287,71,80,0
868.31354,868.57263,77,80,0
868.4451,868.68774,71,80,0
868.5767,868.8234,77,80,0
868.7083,868.96326,71,80,0
868.8399,869.07837,77,80,0
868.97144,869.20996,72,80,0
869.103,869.3333,76,80,0
869.2346,869.4649,72,80,0
869.3662,869.58826,76,80,0
869.4978,869.75684,72,80,0
869.62933,869.8884,76,80,0
869.7609,870.00354,73,80,0
869.8925,870.1392,76,80,0
870.0241,870.2749,73,80,0
870.15564,870.4106,77,80,0
870.28723,870.5422,74,80,0
870.4188,870.6491,77,80,0
870.5504,870.793,75,80,0
870.682,870.91223,78,80,0
870.81354,871.0479,75,80,0
870.9451,871.19183,76,80,0
871.0767,871.3152,75,80,0
871.2083,871.4468,76,80,0
871.3399,871.5743,64,80,0
871.47144,871.70996,76,80,0
871.603,871.8333,64,80,0
871.7346,871.97723,76,80,0
871.8662,872.12115,64,80,0
871.9978,872.2486,76,80,0
872.12933,872.3637,64,80,0
872.2609,872.4953,76,80,0
872.3925,872.6433,64,80,0
872.5241,872.7749,72,80,0
872.65564,872.8859,60,80,0
872.78723,873.03394,72,80,0
872.9188,873.17377,60,80,0
873.0504,873.3012,72,80,0
873.182,873.4328,60,80,0
873.31354,873.55615,72,80,0
873.4451,873.6795,60,80,0
873.5767,873.8275,72,80,0
873.7083,873.955,64,80,0
873.8399,874.07837,76,80,0
873.97144,874.2264,64,80,0
874.103,874.3539,76,80,0
874.2346,874.4731,64,80,0
874.3662,874.62115,76,80,0
874.4978,874.728,64,80,0
874.62933,874.8884,76,80,0
874.7609,875.01996,64,80,0
874.8925,875.15155,76,80,0
875.0241,875.26666,67,80,0
875.15564,875.4106,76,80,0
875.28723,875.54626,67,80,0
875.4188,875.67786,76,80,0
875.5504,875.7971,67,80,0
875.682,875.94104,76,80,0
875.81354,876.0644,67,80,0
875.9451,876.20416,76,80,0
876.0767,876.33575,67,80,0
876.2083,876.4262,74,80,0
876.3399,876.5619,67,80,0
876.47144,876.7017,74,80,0
876.603,876.84155,67,80,0
876.7346,876.9854,74,80,0
876.8662,877.1006,67,80,0
876.9978,877.2445,74,80,0
877.12933,877.3614,67,80,0
877.2609,877.46924,74,80,0
877.38,877.60693,65,80,0
877.499,877.71106,74,80,0
877.6181,877.83014,65,80,0
877.7371,877.94543,74,80,0
877.85614,878.0757,65,80,0
877.9752,878.191,74,80,0
878.09424,878.3249,65,80,0
878.2133,878.4365,74,80,0
878.33234,878.5556,64,80,0
878.4514,878.6746,67,80,0
878.57043,878.79364,64,80,0
878.6895,878.9239,67,80,0
878.80853,879.0206,64,80,0
878.9276,879.1434,67,80,0
879.04663,879.2661,64,80,0
879.1657,879.3852,67,80,0
879.2847,879.51166,64,80,0
879.4038,879.6382,60,80,0
879.5228,879.74603,64,80,0
879.6419,879.87256,60,80,0
879.7609,879.9953,64,80,0
879.88,880.1144,60,80,0
879.999,880.2148,64,80,0
880.1181,880.3525,60,80,0
880.2371,880.4678,64,80,0
880.35614,880.5757,60,80,0
880.4752,880.70215,58,80,0
880.59424,880.8249,60,80,0
880.7133,880.944,58,80,0
880.83234,881.063,60,80,0
880.9514,881.1746,58,80,0
881.07043,881.3048,60,80,0
881.1895,881.409,58,80,0
881.30853,881.53174,60,80,0
881.4276,881.65454,58,80,0
881.54663,881.77356,57,80,0
881.6657,881.9001,60,80,0
881.7847,882.00793,57,80,0
881.9038,882.11957,60,80,0
882.0228,882.2572,57,80,0
882.1419,882.35767,60,80,0
882.2609,882.48413,57,80,0
882.38,882.6032,60,80,0
882.499,882.7222,57,80,0
882.6181,882.8376,60,80,0
882.7371,882.9678,57,80,0
882.85614,883.0905,60,80,0
882.9752,883.2059,59,80,0
883.09424,883.3175,62,80,0
883.2133,883.444,59,80,0
883.33234,883.55927,62,80,0
883.4514,883.6672,59,80,0
883.57043,883.79364,62,80,0
883.6895,883.9053,59,80,0
883.80853,884.0243,65,80,0
883.9276,884.13965,59,80,0
884.04663,884.2661,65,80,0
884.1657,884.3852,59,80,0
884.2847,884.49304,65,80,0
884.4038,884.63074,64,80,0
884.5228,884.7535,60,80,0
884.6419,884.85767,64,80,0
884.7609,884.98413,62,80,0
884.88,885.10693,65,80,0
884.999,885.2222,62,80,0
885.11804,885.3413,67,80,0
885.2371,885.4566,64,80,0
885.35614,885.5868,67,80,0
885.4752,885.6947,62,80,0
885.59424,885.8286,65,80,0
885.7133,885.9328,62,80,0
885.83234,886.05927,60,80,0
885.9514,886.1746,64,80,0
886.07043,886.2899,60,80,0
886.1895,886.4239,65,80,0
886.30853,886.5392,62,80,0
886.4276,886.662,65,80,0
886.54663,886.7773,60,80,0
886.6657,886.89264,64,80,0
886.7847,887.00793,60,80,0
886.9038,887.1233,59,80,0
887.0228,887.24603,62,80,0
887.1419,887.37146,59,80,0
887.2609,887.4934,60,80,0
887.3829,887.61914,57,80,0
887.5048,887.74786,60,80,0
887.6268,887.8776,59,80,0
887.7518,888.00433,62,80,0
887.88184,888.13416,59,80,0
888.01697,888.26306,48,80,0
888.14197,888.38025,64,80,0
888.26697,888.50916,60,80,0
888.39197,888.63025,64,80,0
888.51697,888.76306,60,80,0
888.64197,888.88806,64,80,0
888.76697,889.01306,60,80,0
888.89197,889.12244,64,80,0
889.01697,889.25134,60,80,0
889.14197,889.38806,48,80,0
889.26697,889.51306,64,80,0
889.39197,889.63806,60,80,0
889.51697,889.76306,64,80,0
889.64197,889.88416,60,80,0
889.76697,890.00525,64,80,0
889.89197,890.13806,60,80,0
890.01697,890.224,64,80,0
890.14197,890.38806,60,80,0
890.26697,890.50134,48,80,0
890.39197,890.6185,65,80,0
890.51697,890.75916,60,80,0
890.64197,890.87244,65,80,0
890.76697,891.00916,60,80,0
890.89197,891.13806,65,80,0
891.01697,891.24744,60,80,0
891.14197,891.37634,65,80,0
891.26697,891.4896,60,80,0
891.39197,891.63416,48,80,0
891.51697,891.76306,64,80,0
891.64197,891.8685,60,80,0
891.76697,891.99744,64,80,0
891.89197,892.13025,60,80,0
892.01697,892.25916,64,80,0
892.14197,892.38025,60,80,0
892.26697,892.50134,64,80,0
892.39197,892.63806,60,80,0
892.51697,892.7357,48,80,0
892.64197,892.87244,52,80,0
892.76697,892.9896,48,80,0
892.89197,893.12634,52,80,0
893.01697,893.2396,48,80,0
893.14197,893.37634,52,80,0
893.26697,893.50134,48,80,0
893.39197,893.62244,52,80,0
893.51697,893.75525,48,80,0
893.64197,893.88806,36,80,0
893.76697,893.9935,53,80,0
893.89197,894.13806,48,80,0
894.01697,894.25134,53,80,0
894.14197,894.38025,48,80,0
894.26697,894.50525,53,80,0
894.39197,894.6146,48,80,0
894.51697,894.76306,53,80,0
894.64197,894.88806,48,80,0
894.76697,895.00916,36,80,0
894.89197,895.12634,52,80,0
895.01697,895.26306,48,80,0
895.14197,895.38806,52,80,0
895.26697,895.49744,48,80,0
895.39197,895.62244,52,80,0
895.51697,895.76306,48,80,0
895.64197,895.8568,52,80,0
895.76697,896.01306,48,80,0
895.89197,896.12244,36,80,0
896.01697,896.26306,52,80,0
896.14197,896.38806,48,80,0
896.26697,896.4896,52,80,0
896.39197,896.63806,48,80,0
896.51697,896.753,52,80,0
896.64197,896.8846,48,80,0
896.77356,897.0326,52,80,0
896.90515,897.15497,48,80,0
897.03674,897.3028,36,80,0
897.1719,897.421,53,80,0
897.307,897.57666,48,80,0
897.44214,897.7174,53,80,0
897.581,897.8603,48,80,0
897.72186,898.00146,53,80,0
897.86475,898.15643,48,80,0
898.021,898.34393,53,80,0
898.18243,898.51056,48,80,0
899.6615,899.91064,79,80,0
899.79663,900.05426,81,80,0
899.93176,900.1978,79,80,0
900.0669,900.33295,78,80,0
900.2021,900.46387,79,80,0
900.3372,900.58215,81,80,0
900.47235,900.7384,83,80,0
900.6075,900.8566,84,80,0
900.7426,900.996,81,80,0
900.87775,901.1353,83,80,0
901.0129,901.26624,84,80,0
901.148,901.39294,83,80,0
901.28314,901.5408,82,80,0
901.4183,901.6674,83,80,0
901.5534,901.80676,84,80,0
901.68854,901.9419,86,80,0
901.82367,902.0813,88,80,0
901.9588,902.20795,85,80,0
902.09393,902.33887,86,80,0
902.22906,902.46136,88,80,0
902.3642,902.63025,86,80,0
902.4993,902.75696,84,80,0
902.6345,902.8879,86,80,0
902.76965,903.0272,84,80,0
902.9048,903.17084,83,80,0
903.0399,903.26794,84,80,0
903.17505,903.42,83,80,0
903.3102,903.5424,81,80,0
903.4453,903.69025,83,80,0
903.58044,903.8169,81,80,0
903.7156,903.9563,79,80,0
903.8507,904.10406,81,80,0
903.98584,904.22235,79,80,0
904.121,904.3743,81,80,0
904.2561,904.51794,83,80,0
904.39124,904.6573,81,80,0
904.52637,904.7924,83,80,0
904.6615,904.92755,84,80,0
904.79663,905.051,83,80,0
904.93176,905.19086,84,80,0
905.06335,905.31006,86,80,0
905.19495,905.449,88,80,0
905.32654,905.5878,89,80,0
905.4617,905.7441,88,80,0
905.60736,905.87976,86,80,0
905.7636,906.016,88,80,0
905.8918,906.13617,86,81,0
906.02,906.26843,84,82,0
906.1482,906.40063,83,83,0
906.2764,906.5208,81,84,0
906.4046,906.637,79,85,0
906.53284,906.7745,77,86,0
906.661,906.9184,76,88,0
906.79095,907.04175,74,89,0
906.9225,907.1528,76,90,0
907.0541,907.3008,74,91,0
907.18567,907.4313,72,92,0
907.31726,907.5833,71,93,0
907.4524,907.70575,69,94,0
907.5875,907.84937,67,96,0
907.72266,907.98175,65,97,0
907.8578,908.125,64,98,0
907.9948,908.2596,62,99,0
908.13367,908.3941,64,100,0
908.2726,908.546,62,101,0
908.41144,908.6589,60,102,0
908.55035,908.78546,59,104,0
908.6893,908.9417,57,105,0
908.83014,909.0999,55,106,0
908.97296,909.2761,53,107,0
909.1292,909.498,52,108,0
909.3074,909.63275,50,109,0
910.9511,912.03906,36,120,0
912.0622,912.5946,31,110,0
912.61774,917.0592,31,110,0
917.08636,917.71136,43,80,0
917.08636,917.71136,31,80,0
917.7385,918.3635,48,80,0
917.7385,918.3635,36,80,0
919.105,919.8237,55,80,0
919.105,919.8237,43,80,0
919.855,920.6536,60,80,0
919.855,920.6536,48,80,0
921.5707,922.4691,43,70,0
921.5707,922.4691,31,70,0
922.5082,923.9457,48,70,0
922.5082,923.9457,36,70,0
924.0082,931.4457,36,70,0
924.0082,931.4457,48,70,0
