start_time,end_time,note_value,velocity,instrument_program_number
0.0,0.74609375,67,100,0
0.0,0.74609375,62,100,0
0.0,0.74609375,59,100,0
0.75,0.87109375,62,100,0
0.875,0.99609375,67,100,0
1.0,1.1210938,71,100,0
1.125,1.2460938,74,100,0
1.25,1.3710938,72,100,0
1.375,1.4960938,69,100,0
1.5,1.8710938,67,100,0
1.875,2.2460938,67,80,0
2.25,2.6210938,66,80,0
2.625,2.9960938,67,80,0
3.0,3.5585938,69,80,0
3.5625,3.7460938,69,80,0
3.75,4.3085938,71,80,0
4.3125,4.4960938,71,80,0
4.5,4.8710938,74,80,0
4.875,4.9453125,72,80,0
4.921875,4.9960938,74,80,0
4.96875,5.046875,72,80,0
5.015625,5.0859375,74,80,0
5.0625,5.1328125,72,80,0
5.109375,5.1875,74,80,0
5.15625,5.234375,71,80,0
5.203125,5.2460938,72,80,0
5.25,5.6210938,71,80,0
6.025,6.771094,79,110,0
6.025,6.771094,74,110,0
6.025,6.771094,71,110,0
6.775,6.896094,74,106,0
6.9,7.021094,79,105,0
7.025,7.146094,83,104,0
7.15,7.271094,86,103,0
7.275,7.396094,84,102,0
7.4,7.521094,81,101,0
7.525,7.896094,79,101,0
7.9,8.271093,79,80,0
8.275,8.646093,78,80,0
8.65,9.021093,79,80,0
9.025,9.583593,81,80,0
9.5875,9.771093,81,80,0
9.775,10.333593,83,80,0
10.3375,10.521093,83,80,0
10.525,10.896093,86,80,0
10.9,10.970312,84,80,0
10.946875,11.021093,86,80,0
10.99375,11.071875,84,80,0
11.040625,11.110937,86,80,0
11.0875,11.157812,84,80,0
11.134375,11.2125,86,80,0
11.18125,11.259375,83,80,0
11.228125,11.271093,84,80,0
11.275,11.458593,83,80,0
11.4625,11.646093,84,80,0
11.65,11.833593,85,80,0
11.8375,12.021093,86,80,0
12.025,12.208593,87,80,0
12.2125,12.396093,88,80,0
12.5875,12.771093,88,80,0
12.775,12.958593,86,80,0
12.9625,13.146093,84,80,0
13.15,13.333593,83,80,0
13.3375,13.521093,81,80,0
13.525,13.708593,85,80,0
13.7125,13.896093,86,80,0
14.0875,14.271093,86,80,0
14.275,14.458593,84,80,0
14.4625,14.646093,83,80,0
14.65,14.833593,81,80,0
14.8375,15.021093,79,80,0
15.025,15.208593,78,80,0
15.2125,15.396093,76,80,0
15.4,15.583593,74,80,0
15.5875,15.771093,72,80,0
15.775,15.958593,71,80,0
15.9625,16.146093,69,80,0
16.15,16.333593,67,80,0
16.3375,16.521093,66,80,0
16.525,16.708593,67,80,0
16.7125,16.771093,69,80,0
16.775,16.833593,67,80,0
16.8375,16.896093,66,80,0
16.9,17.083593,67,80,0
17.0875,17.271093,69,80,0
17.275,17.458593,71,80,0
17.4625,17.646093,72,80,0
17.65,17.833593,73,80,0
17.8375,18.021093,74,80,0
18.025,18.208593,75,80,0
18.2125,18.396093,76,80,0
18.5875,18.771093,76,80,0
18.775,18.958593,74,80,0
18.9625,19.146093,72,80,0
19.15,19.333593,71,80,0
19.3375,19.521093,69,80,0
19.525,19.708593,75,80,0
19.7125,19.896093,76,80,0
20.0875,20.271093,76,80,0
20.275,20.470833,76,80,0
20.475,20.670834,73,80,0
20.675,20.88482,69,80,0
20.889286,21.134077,67,80,0
21.139286,21.51038,66,100,0
21.514286,21.63538,81,110,0
21.639286,21.76038,78,110,0
21.764286,21.88538,74,110,0
21.889286,22.26038,72,110,0
22.264286,22.38538,81,110,0
22.389286,22.51038,78,110,0
22.514286,22.63538,72,110,0
22.639286,23.01038,71,110,0
23.014286,23.13538,79,110,0
23.139286,23.26038,74,110,0
23.264286,23.38538,71,110,0
23.389286,23.76038,67,110,0
23.764286,23.88538,74,110,0
23.889286,24.01038,71,110,0
24.014286,24.13538,67,110,0
24.139286,24.51038,66,110,0
24.514286,24.63538,81,110,0
24.639286,24.76038,78,110,0
24.764286,24.88538,74,110,0
24.889286,25.26038,72,110,0
25.264286,25.38538,81,110,0
25.389286,25.51038,78,110,0
25.514286,25.63538,72,110,0
25.639286,26.01038,71,110,0
26.014286,26.13538,79,110,0
26.139286,26.26038,74,110,0
26.264286,26.38538,71,110,0
26.389286,26.76038,67,110,0
26.764286,26.88538,74,110,0
26.889286,27.01038,71,110,0
27.014286,27.13538,67,110,0
27.139286,27.51038,62,110,0
27.514286,27.63538,74,110,0
27.639286,27.76038,71,110,0
27.764286,27.88538,67,110,0
27.889286,28.285118,62,110,0
28.289286,28.42768,74,110,0
28.432142,28.570536,71,110,0
28.574999,28.713392,67,110,0
28.717857,29.141964,62,110,0
29.762499,29.946093,69,80,0
29.949999,30.133593,69,80,0
30.137499,30.321093,69,80,0
30.324999,30.696093,74,80,0
30.699999,31.071093,73,80,0
31.074999,31.446093,74,80,0
31.449999,31.821093,76,80,0
31.824999,32.00859,79,80,0
32.012497,32.19609,78,80,0
32.199997,32.57109,76,80,0
32.762497,32.94609,69,80,0
32.949997,33.13359,69,80,0
33.137497,33.32109,69,80,0
33.324997,33.69609,76,80,0
33.699997,34.07109,74,80,0
34.074997,34.44609,76,80,0
34.074997,34.44609,73,80,0
34.449997,34.82109,78,80,0
34.449997,34.82109,74,80,0
34.824997,35.00859,81,80,0
34.824997,35.00859,76,80,0
35.012497,35.19609,79,80,0
35.199997,35.57109,78,80,0
35.199997,35.57109,74,80,0
35.762497,35.94609,81,80,0
35.949997,36.13359,79,80,0
36.137497,36.32109,78,80,0
36.324997,36.50859,78,80,0
36.512497,36.69609,76,80,0
36.699997,36.88359,76,80,0
36.887497,37.07109,76,80,0
37.074997,37.25859,74,80,0
37.262497,37.44609,81,80,0
37.449997,37.63359,79,80,0
37.637497,37.82109,78,80,0
37.824997,38.00859,78,80,0
38.012497,38.19609,76,80,0
38.199997,38.38359,76,80,0
38.387497,38.57109,76,80,0
38.574997,38.75859,74,80,0
38.762497,38.94609,81,80,0
38.949997,39.13359,79,80,0
39.137497,39.32109,78,80,0
39.324997,39.50859,78,80,0
39.512497,39.69609,76,80,0
39.887497,40.07109,76,80,0
40.074997,40.25859,76,80,0
40.262497,40.44609,74,80,0
40.637497,40.82109,74,80,0
40.824997,41.00859,74,80,0
41.012497,41.19609,73,80,0
41.199997,41.38359,71,80,0
41.387497,41.57109,69,80,0
41.574997,41.75859,68,80,0
41.762497,41.94609,69,80,0
41.949997,42.13359,71,80,0
42.137497,42.32109,73,80,0
42.324997,42.69609,74,80,0
42.699997,43.07109,73,80,0
43.074997,43.44609,74,80,0
43.449997,43.82109,76,80,0
43.824997,44.00859,79,80,0
43.824997,44.00859,74,80,0
44.012497,44.19609,78,80,0
44.199997,44.57109,76,80,0
44.199997,44.57109,73,80,0
44.762497,44.94609,69,80,0
44.949997,45.13359,69,80,0
45.137497,45.32109,69,80,0
45.324997,45.69609,76,80,0
45.699997,46.07109,74,80,0
46.074997,46.44609,76,80,0
46.074997,46.44609,73,80,0
46.449997,46.82109,78,80,0
46.449997,46.82109,74,80,0
46.824997,47.00859,81,80,0
46.824997,47.00859,76,80,0
47.012497,47.19609,79,80,0
47.199997,47.57109,78,80,0
47.199997,47.57109,74,80,0
47.762497,47.94609,81,80,0
47.949997,48.13359,79,80,0
48.137497,48.32109,78,80,0
48.324997,48.50859,78,80,0
48.512497,48.69609,76,80,0
48.699997,48.88359,76,80,0
48.887497,49.07109,76,80,0
49.074997,49.25859,74,80,0
49.262497,49.44609,81,80,0
49.449997,49.63359,79,80,0
49.637497,49.82109,78,80,0
49.824997,50.00859,78,80,0
50.012497,50.19609,76,80,0
50.199997,50.38359,76,80,0
50.387497,50.57109,76,80,0
50.574997,50.75859,74,80,0
50.762497,50.94609,81,80,0
50.949997,51.13359,79,80,0
51.137497,51.32109,78,80,0
51.324997,51.50859,78,80,0
51.512497,51.69609,76,80,0
51.699997,51.88359,79,80,0
51.887497,52.07109,76,80,0
52.074997,52.270832,76,80,0
52.274998,52.470833,74,80,0
52.475,52.70096,74,80,0
52.70577,52.93173,73,80,0
52.936535,52.96388,74,110,0
52.967785,53.05763,81,110,0
53.061535,53.18263,79,110,0
53.186535,53.30763,78,110,0
53.311535,53.43263,76,110,0
53.436535,53.55763,74,110,0
53.561535,53.68263,73,110,0
53.686535,53.80763,71,110,0
53.811535,53.93263,69,110,0
53.936535,54.05763,67,110,0
54.061535,54.18263,66,110,0
54.186535,54.30763,64,110,0
54.311535,54.43263,62,110,0
54.436535,54.80763,61,110,0
54.811535,55.18263,61,110,0
55.186535,55.55763,61,110,0
55.561535,55.93263,61,110,0
55.936535,56.05763,62,110,0
56.061535,56.18263,64,110,0
56.186535,56.30763,66,110,0
56.311535,56.43263,67,110,0
56.436535,56.55763,69,110,0
56.561535,56.68263,71,110,0
56.686535,56.80763,73,110,0
56.811535,56.93263,74,110,0
56.936535,57.05763,76,110,0
57.061535,57.18263,78,110,0
57.186535,57.30763,79,110,0
57.311535,57.43263,81,110,0
57.436535,57.80763,79,110,0
57.811535,58.18263,79,110,0
58.186535,58.55763,79,110,0
58.561535,58.93263,79,110,0
58.936535,58.96388,78,110,0
58.967785,59.05763,81,110,0
59.061535,59.18263,79,110,0
59.186535,59.30763,78,110,0
59.311535,59.43263,76,110,0
59.436535,59.55763,74,110,0
59.561535,59.68263,73,110,0
59.686535,59.80763,71,110,0
59.811535,59.93263,69,110,0
59.936535,60.05763,67,110,0
60.061535,60.18263,66,110,0
60.186535,60.30763,64,110,0
60.311535,60.43263,62,110,0
60.436535,60.80763,60,110,0
60.811535,61.18263,60,110,0
61.186535,61.55763,60,110,0
61.561535,61.93263,60,110,0
61.936535,62.05763,59,110,0
62.061535,62.18263,64,110,0
62.186535,62.30763,67,110,0
62.311535,62.43263,71,110,0
62.436535,62.55763,67,110,0
62.561535,62.68263,64,110,0
62.686535,63.05763,62,110,0
63.061535,63.24513,66,110,0
63.249035,63.43263,64,110,0
63.436535,63.55763,62,110,0
63.561535,63.68263,64,110,0
63.686535,63.80763,66,110,0
63.811535,63.93263,67,110,0
63.936535,64.05763,69,110,0
64.06154,64.18263,71,110,0
64.18654,64.30763,73,110,0
64.31154,64.43263,74,110,0
64.43654,64.55763,76,110,0
64.56154,64.68263,78,110,0
64.68654,64.80763,79,110,0
64.81154,64.93263,81,110,0
64.93654,66.43263,83,110,0
64.93654,66.43263,79,110,0
66.43654,66.80763,81,110,0
66.43654,66.80763,78,110,0
66.81154,67.18263,79,110,0
66.81154,67.18263,76,110,0
67.18654,67.55763,78,110,0
67.18654,67.55763,74,110,0
67.56154,67.93263,76,110,0
67.56154,67.93263,73,110,0
67.93654,68.05763,81,110,0
68.06154,68.18263,79,110,0
68.18654,68.30763,78,110,0
68.31154,68.43263,76,110,0
68.43654,68.55763,74,110,0
68.56154,68.68263,73,110,0
68.68654,68.80763,71,110,0
68.81154,68.93263,69,110,0
68.93654,69.05763,67,110,0
69.06154,69.18263,66,110,0
69.18654,69.30763,64,110,0
69.31154,69.43263,62,110,0
69.43654,70.93263,67,110,0
69.43654,70.93263,71,110,0
70.93654,71.30763,69,110,0
70.93654,71.30763,66,110,0
71.31154,71.68263,67,110,0
71.31154,71.68263,64,110,0
71.68654,72.05763,66,110,0
71.68654,72.05763,62,110,0
72.06154,72.43263,61,110,0
72.06154,72.43263,64,110,0
72.43654,72.80763,62,110,0
72.81154,72.93263,81,110,0
72.93654,73.05763,78,110,0
73.06154,73.18263,74,110,0
73.18654,73.55763,73,110,0
73.56154,73.68263,79,110,0
73.68654,73.80763,76,110,0
73.81154,73.93263,73,110,0
73.93654,74.30763,74,110,0
74.31154,74.43263,69,110,0
74.43654,74.55763,66,110,0
74.56154,74.68263,62,110,0
74.68654,75.05763,61,110,0
75.06154,75.18263,67,110,0
75.18654,75.30763,64,110,0
75.31154,75.43263,61,110,0
75.43654,75.80763,62,110,0
75.81154,75.93263,67,110,0
75.93654,76.05763,64,110,0
76.06154,76.18263,61,110,0
76.18654,76.58237,62,110,0
76.58654,76.72493,67,110,0
76.72939,76.86778,64,110,0
76.87225,77.01064,61,110,0
77.01511,77.43922,62,110,0
77.44368,77.900406,62,110,0
77.44368,77.900406,57,110,0
77.44368,77.900406,54,110,0
77.90522,78.361946,62,110,0
77.90522,78.361946,57,110,0
77.90522,78.361946,54,110,0
78.82829,79.57439,67,100,0
78.82829,79.57439,62,100,0
78.82829,79.57439,59,100,0
79.57829,79.69939,62,100,0
79.70329,79.82439,67,100,0
79.82829,79.94939,71,100,0
79.95329,80.07439,74,100,0
80.07829,80.19939,72,100,0
80.20329,80.32439,69,100,0
80.32829,80.69939,67,100,0
80.70329,81.07439,67,80,0
81.07829,81.44939,66,80,0
81.45329,81.82439,67,80,0
81.82829,82.38689,69,80,0
82.39079,82.57439,69,80,0
82.57829,83.13689,71,80,0
83.14079,83.32439,71,80,0
83.32829,83.69939,74,80,0
83.70329,83.773605,72,80,0
83.75017,83.82439,74,80,0
83.79704,83.87517,72,80,0
83.84392,83.91423,74,80,0
83.89079,83.961105,72,80,0
83.93767,84.01579,74,80,0
83.98454,84.06267,71,80,0
84.03142,84.07439,72,80,0
84.07829,84.44939,71,80,0
84.82829,85.57439,79,110,0
84.82829,85.57439,74,110,0
84.82829,85.57439,71,110,0
85.57829,85.69939,74,106,0
85.70329,85.82439,79,105,0
85.82829,85.94939,83,104,0
85.95329,86.07439,86,103,0
86.07829,86.19939,84,102,0
86.20329,86.32439,81,101,0
86.32829,86.69939,79,101,0
86.70329,87.07439,79,80,0
87.07829,87.44939,78,80,0
87.45329,87.82439,79,80,0
87.82829,88.38689,81,80,0
88.39079,88.57439,81,80,0
88.57829,89.13689,83,80,0
89.14079,89.32439,83,80,0
89.32829,89.69939,86,80,0
89.70329,89.773605,84,80,0
89.75017,89.82439,86,80,0
89.79704,89.87517,84,80,0
89.84392,89.91423,86,80,0
89.89079,89.961105,84,80,0
89.93767,90.01579,86,80,0
89.98454,90.06267,83,80,0
90.03142,90.07439,84,80,0
90.07829,90.26189,83,80,0
90.26579,90.44939,84,80,0
90.45329,90.63689,85,80,0
90.64079,90.82439,86,80,0
90.82829,91.01189,87,80,0
91.01579,91.19939,88,80,0
91.39079,91.57439,88,80,0
91.57829,91.76189,86,80,0
91.76579,91.94939,84,80,0
91.95329,92.13689,83,80,0
92.14079,92.32439,81,80,0
92.32829,92.51189,85,80,0
92.51579,92.69939,86,80,0
92.89079,93.07439,86,80,0
93.07829,93.26189,84,80,0
93.26579,93.44939,83,80,0
93.45329,93.63689,81,80,0
93.64079,93.82439,79,80,0
93.82829,94.01189,78,80,0
94.01579,94.19939,76,80,0
94.20329,94.38689,74,80,0
94.39079,94.57439,72,80,0
94.57829,94.76189,71,80,0
94.76579,94.94939,69,80,0
94.95329,95.13689,67,80,0
95.14079,95.32439,66,80,0
95.32829,95.51189,67,80,0
95.51579,95.57439,69,80,0
95.57829,95.63689,67,80,0
95.64079,95.69939,66,80,0
95.70329,95.88689,67,80,0
95.89079,96.07439,69,80,0
96.07829,96.26189,71,80,0
96.26579,96.44939,72,80,0
96.45329,96.63689,73,80,0
96.64079,96.82439,74,80,0
96.82829,97.01189,75,80,0
97.01579,97.19939,76,80,0
97.39079,97.57439,76,80,0
97.57829,97.76189,74,80,0
97.76579,97.94939,72,80,0
97.95329,98.13689,71,80,0
98.14079,98.32439,69,80,0
98.32829,98.51189,75,80,0
98.51579,98.69939,76,80,0
98.89079,99.07439,76,80,0
99.07829,99.274124,76,80,0
99.27829,99.47413,73,80,0
99.478294,99.68811,69,80,0
99.69258,99.9024,67,80,0
99.90686,100.277954,66,100,0
100.28186,100.402954,81,110,0
100.40686,100.527954,78,110,0
100.53186,100.652954,74,110,0
100.65686,101.027954,72,110,0
101.03186,101.152954,81,110,0
101.15686,101.277954,78,110,0
101.28186,101.402954,72,110,0
101.40686,101.777954,71,110,0
101.78186,101.902954,79,110,0
101.90686,102.027954,74,110,0
102.03186,102.152954,71,110,0
102.15686,102.527954,67,110,0
102.53186,102.652954,74,110,0
102.65686,102.777954,71,110,0
102.78186,102.902954,67,110,0
102.90686,103.277954,66,110,0
103.28186,103.402954,81,110,0
103.40686,103.527954,78,110,0
103.53186,103.652954,74,110,0
103.65686,104.027954,72,110,0
104.03186,104.152954,81,110,0
104.15686,104.277954,78,110,0
104.28186,104.402954,72,110,0
104.40686,104.777954,71,110,0
104.78186,104.902954,79,110,0
104.90686,105.027954,74,110,0
105.03186,105.152954,71,110,0
105.15686,105.527954,67,110,0
105.53186,105.652954,74,110,0
105.65686,105.777954,71,110,0
105.78186,105.902954,67,110,0
105.90686,106.277954,62,110,0
106.28186,106.402954,74,110,0
106.40686,106.527954,71,110,0
106.53186,106.652954,67,110,0
106.65686,107.027954,62,110,0
107.03186,107.152954,74,110,0
107.15686,107.277954,71,110,0
107.28186,107.402954,67,110,0
107.40686,107.777954,62,110,0
108.34436,108.527954,69,80,0
108.53186,108.715454,69,80,0
108.71936,108.902954,69,80,0
108.90686,109.277954,74,80,0
109.28186,109.652954,73,80,0
109.65686,110.027954,74,80,0
110.03186,110.402954,76,80,0
110.40686,110.590454,79,80,0
110.59436,110.777954,78,80,0
110.78186,111.152954,76,80,0
111.34436,111.527954,69,80,0
111.53186,111.715454,69,80,0
111.71936,111.902954,69,80,0
111.90686,112.277954,76,80,0
112.28186,112.652954,74,80,0
112.65686,113.027954,76,80,0
112.65686,113.027954,73,80,0
113.03186,113.402954,78,80,0
113.03186,113.402954,74,80,0
113.40686,113.590454,81,80,0
113.40686,113.590454,76,80,0
113.59436,113.777954,79,80,0
113.78186,114.152954,78,80,0
113.78186,114.152954,74,80,0
114.34436,114.527954,81,80,0
114.53186,114.715454,79,80,0
114.71936,114.902954,78,80,0
114.90686,115.090454,78,80,0
115.09436,115.277954,76,80,0
115.28186,115.465454,76,80,0
115.46936,115.652954,76,80,0
115.65686,115.840454,74,80,0
115.84436,116.027954,81,80,0
116.03186,116.215454,79,80,0
116.21936,116.402954,78,80,0
116.40686,116.590454,78,80,0
116.59436,116.777954,76,80,0
116.78186,116.965454,76,80,0
116.96936,117.152954,76,80,0
117.15686,117.340454,74,80,0
117.34436,117.527954,81,80,0
117.53186,117.715454,79,80,0
117.71936,117.902954,78,80,0
117.90686,118.090454,78,80,0
118.09436,118.277954,76,80,0
118.46936,118.652954,76,80,0
118.65686,118.840454,76,80,0
118.84436,119.027954,74,80,0
119.21936,119.402954,74,80,0
119.40686,119.590454,74,80,0
119.59436,119.777954,73,80,0
119.78186,119.965454,71,80,0
119.96936,120.152954,69,80,0
120.15686,120.340454,68,80,0
120.34436,120.527954,69,80,0
120.53186,120.715454,71,80,0
120.71936,120.902954,73,80,0
120.90686,121.277954,74,80,0
121.28186,121.652954,73,80,0
121.65686,122.027954,74,80,0
122.03186,122.402954,76,80,0
122.40686,122.590454,79,80,0
122.40686,122.590454,74,80,0
122.59436,122.777954,78,80,0
122.78186,123.152954,76,80,0
122.78186,123.152954,73,80,0
123.34436,123.527954,69,80,0
123.53186,123.715454,69,80,0
123.71936,123.902954,69,80,0
123.90686,124.277954,76,80,0
124.28186,124.652954,74,80,0
124.65686,125.027954,76,80,0
124.65686,125.027954,73,80,0
125.03186,125.402954,78,80,0
125.03186,125.402954,74,80,0
125.40686,125.590454,81,80,0
125.40686,125.590454,76,80,0
125.59436,125.777954,79,80,0
125.78186,126.152954,78,80,0
125.78186,126.152954,74,80,0
126.34436,126.527954,81,80,0
126.53186,126.715454,79,80,0
126.71936,126.902954,78,80,0
126.90686,127.090454,78,80,0
127.09436,127.277954,76,80,0
127.28186,127.465454,76,80,0
127.46936,127.652954,76,80,0
127.65686,127.840454,74,80,0
127.84436,128.02795,81,80,0
128.03186,128.21545,79,80,0
128.21936,128.40295,78,80,0
128.40686,128.59045,78,80,0
128.59436,128.77795,76,80,0
128.78186,128.96545,76,80,0
128.96936,129.15295,76,80,0
129.15686,129.34045,74,80,0
129.34436,129.52795,81,80,0
129.53186,129.71545,79,80,0
129.71936,129.90295,78,80,0
129.90686,130.09045,78,80,0
130.09436,130.27795,76,80,0
130.28186,130.46545,79,80,0
130.46936,130.65295,76,80,0
130.65686,130.85269,76,80,0
130.85686,131.0527,74,80,0
131.05687,131.26668,74,80,0
131.27115,131.48097,73,80,0
131.48543,131.51668,74,110,0
131.52115,131.62383,81,110,0
131.6283,131.75832,79,110,0
131.76222,131.88332,78,110,0
131.88722,132.00832,76,110,0
132.01222,132.13332,74,110,0
132.13722,132.25832,73,110,0
132.26222,132.38332,71,110,0
132.38722,132.50832,69,110,0
132.51222,132.63332,67,110,0
132.63722,132.75832,66,110,0
132.76222,132.88332,64,110,0
132.88722,133.00832,62,110,0
133.01222,133.38332,61,110,0
133.38722,133.75832,61,110,0
133.76222,134.13332,61,110,0
134.13722,134.50832,61,110,0
134.51222,134.63332,62,110,0
134.63722,134.75832,64,110,0
134.76222,134.88332,66,110,0
134.88722,135.00832,67,110,0
135.01222,135.13332,69,110,0
135.13722,135.25832,71,110,0
135.26222,135.38332,73,110,0
135.38722,135.50832,74,110,0
135.51222,135.63332,76,110,0
135.63722,135.75832,78,110,0
135.76222,135.88332,79,110,0
135.88722,136.00832,81,110,0
136.01222,136.38332,79,110,0
136.38722,136.75832,79,110,0
136.76222,137.13332,79,110,0
137.13722,137.50832,79,110,0
137.51222,137.53957,78,110,0
137.54347,137.63332,81,110,0
137.63722,137.75832,79,110,0
137.76222,137.88332,78,110,0
137.88722,138.00832,76,110,0
138.01222,138.13332,74,110,0
138.13722,138.25832,73,110,0
138.26222,138.38332,71,110,0
138.38722,138.50832,69,110,0
138.51222,138.63332,67,110,0
138.63722,138.75832,66,110,0
138.76222,138.88332,64,110,0
138.88722,139.00832,62,110,0
139.01222,139.38332,60,110,0
139.38722,139.75832,60,110,0
139.76222,140.13332,60,110,0
140.13722,140.50832,60,110,0
140.51222,140.63332,59,110,0
140.63722,140.75832,64,110,0
140.76222,140.88332,67,110,0
140.88722,141.00832,71,110,0
141.01222,141.13332,67,110,0
141.13722,141.25832,64,110,0
141.26222,141.63332,62,110,0
141.63722,141.82082,66,110,0
141.82472,142.00832,64,110,0
142.01222,142.13332,62,110,0
142.13722,142.25832,64,110,0
142.26222,142.38332,66,110,0
142.38722,142.50832,67,110,0
142.51222,142.63332,69,110,0
142.63722,142.75832,71,110,0
142.76222,142.88332,73,110,0
142.88722,143.00832,74,110,0
143.01222,143.13332,76,110,0
143.13722,143.25832,78,110,0
143.26222,143.38332,79,110,0
143.38722,143.50832,81,110,0
143.51222,145.00832,83,110,0
143.51222,145.00832,79,110,0
145.01222,145.38332,81,110,0
145.01222,145.38332,78,110,0
145.38722,145.75832,79,110,0
145.38722,145.75832,76,110,0
145.76222,146.13332,78,110,0
145.76222,146.13332,74,110,0
146.13722,146.50832,76,110,0
146.13722,146.50832,73,110,0
146.51222,146.63332,81,110,0
146.63722,146.75832,79,110,0
146.76222,146.88332,78,110,0
146.88722,147.00832,76,110,0
147.01222,147.13332,74,110,0
147.13722,147.25832,73,110,0
147.26222,147.38332,71,110,0
147.38722,147.50832,69,110,0
147.51222,147.63332,67,110,0
147.63722,147.75832,66,110,0
147.76222,147.88332,64,110,0
147.88722,148.00832,62,110,0
148.01222,149.50832,67,110,0
148.01222,149.50832,71,110,0
149.51222,149.88332,69,110,0
149.51222,149.88332,66,110,0
149.88722,150.25832,67,110,0
149.88722,150.25832,64,110,0
150.26222,150.63332,66,110,0
150.26222,150.63332,62,110,0
150.63722,151.00832,61,110,0
150.63722,151.00832,64,110,0
151.01222,151.38332,62,110,0
151.38722,151.50832,81,110,0
151.51222,151.63332,78,110,0
151.63722,151.75832,74,110,0
151.76222,152.13332,73,110,0
152.13722,152.25832,79,110,0
152.26222,152.38332,76,110,0
152.38722,152.50832,73,110,0
152.51222,152.88332,74,110,0
152.88722,153.00832,69,110,0
153.01222,153.13332,66,110,0
153.13722,153.25832,62,110,0
153.26222,153.63332,61,110,0
153.63722,153.75832,67,110,0
153.76222,153.88332,64,110,0
153.88722,154.00832,61,110,0
154.01222,154.38332,62,110,0
154.38722,154.50832,67,110,0
154.51222,154.63332,64,110,0
154.63722,154.75832,61,110,0
154.76222,155.14528,62,110,0
155.14932,155.28294,67,110,0
155.28725,155.42087,64,110,0
155.42517,155.55879,61,110,0
155.56311,155.9726,62,110,0
155.9769,156.38638,62,110,0
155.9769,156.38638,57,110,0
155.9769,156.38638,54,110,0
156.3907,156.80017,62,110,0
156.3907,156.80017,57,110,0
156.3907,156.80017,54,110,0
157.21828,158.00317,69,110,0
157.21828,158.00317,65,110,0
157.21828,158.12817,74,110,0
158.13208,158.25317,77,80,0
158.25708,158.37817,76,80,0
158.38208,158.50317,74,80,0
158.50708,158.62817,72,80,0
158.63208,158.75317,71,80,0
158.75708,159.12817,69,80,0
159.13208,159.50317,68,80,0
159.50708,159.87817,69,80,0
159.88208,160.25317,71,80,0
160.25708,160.62817,72,80,0
160.63208,161.00317,74,80,0
161.00708,161.37817,76,91,0
161.38208,161.75317,74,100,0
161.75708,161.84692,72,110,0
161.85083,161.94067,76,110,0
161.94458,162.62817,81,110,0
162.63208,162.75317,84,80,0
162.75708,162.87817,83,80,0
162.88208,163.00317,81,80,0
163.00708,163.12817,79,80,0
163.13208,163.25317,78,80,0
163.25708,163.62817,76,80,0
163.63208,164.00317,75,80,0
164.00708,164.37817,76,80,0
164.38208,164.75317,78,80,0
164.75708,165.31567,79,80,0
165.31958,165.40942,78,80,0
165.41333,165.50317,79,80,0
165.50708,165.69067,81,80,0
165.69458,165.87817,79,80,0
165.88208,166.06567,78,80,0
166.06958,166.25317,76,80,0
166.25708,166.62817,75,80,0
166.81958,167.00317,83,80,0
166.81958,167.00317,79,80,0
167.00708,167.37817,81,80,0
167.00708,167.37817,78,80,0
167.56958,167.75317,75,80,0
167.56958,167.75317,78,80,0
167.75708,168.12817,79,80,0
167.75708,168.12817,76,80,0
168.31958,168.50317,79,80,0
168.31958,168.50317,76,80,0
168.50708,168.87817,78,80,0
168.50708,168.87817,75,80,0
168.88208,169.25317,79,80,0
168.88208,169.25317,76,80,0
169.25708,169.62817,78,80,0
169.25708,169.62817,75,80,0
169.81958,170.00317,83,80,0
169.81958,170.00317,79,80,0
170.00708,170.37817,81,80,0
170.00708,170.37817,78,80,0
170.56958,170.75317,75,80,0
170.56958,170.75317,78,80,0
170.75708,171.12817,79,80,0
170.75708,171.12817,76,80,0
171.31958,171.50317,79,80,0
171.31958,171.50317,76,80,0
171.50708,171.87817,78,80,0
171.50708,171.87817,75,80,0
171.88208,172.25317,79,80,0
171.88208,172.25317,76,80,0
172.25708,172.62817,78,80,0
172.25708,172.62817,75,80,0
173.75708,174.12817,79,80,0
173.75708,174.12817,76,80,0
175.25708,175.44067,84,80,0
175.44458,175.62817,83,81,0
175.63208,175.81567,84,83,0
175.81958,176.00317,83,85,0
176.00708,176.19067,84,87,0
176.19458,176.37817,83,89,0
176.38208,176.56567,81,91,0
176.56958,176.75317,79,93,0
176.75708,176.94067,78,95,0
176.94458,177.12817,76,97,0
177.13208,177.32791,74,99,0
177.33208,177.52791,72,101,0
177.53207,177.7419,71,103,0
177.74635,177.95618,69,105,0
177.96065,178.1866,67,107,0
178.19142,178.4362,66,109,0
178.44142,179.24107,67,110,0
178.44142,179.24107,62,110,0
178.44142,179.24107,59,110,0
179.24498,179.36607,62,110,0
179.36998,179.49107,67,110,0
179.49498,179.61607,71,110,0
179.61998,179.74107,74,110,0
179.74498,179.86607,72,110,0
179.86998,179.99107,69,110,0
179.99498,180.36607,67,110,0
180.36998,180.74107,67,80,0
180.74498,181.11607,66,80,0
181.11998,181.49107,67,80,0
181.49498,182.05357,69,80,0
182.05748,182.24107,69,80,0
182.24498,182.80357,71,80,0
182.80748,182.99107,71,80,0
182.99498,183.36607,74,80,0
183.36998,183.44029,72,80,0
183.41685,183.49107,74,80,0
183.46373,183.54185,72,80,0
183.5106,183.58092,74,80,0
183.55748,183.62779,72,80,0
183.60435,183.68248,74,80,0
183.65123,183.72935,71,80,0
183.6981,183.74107,72,80,0
183.74498,184.11607,71,80,0
184.49498,185.24107,79,110,0
184.49498,185.24107,74,110,0
184.49498,185.24107,71,110,0
185.24498,185.36607,74,110,0
185.36998,185.49107,79,110,0
185.49498,185.61607,83,110,0
185.61998,185.74107,86,110,0
185.74498,185.86607,84,110,0
185.86998,185.99107,81,110,0
185.99498,186.36607,79,110,0
186.36998,186.74107,79,80,0
186.74498,187.11607,78,80,0
187.11998,187.49107,79,80,0
187.49498,188.05357,81,80,0
188.05748,188.24107,81,80,0
188.24498,188.80357,83,80,0
188.80748,188.99107,83,80,0
188.99498,189.17857,84,80,0
189.18248,189.36607,79,80,0
189.36998,189.55357,81,80,0
189.55748,189.74107,77,80,0
189.74498,189.92857,76,80,0
189.93248,190.11607,79,80,0
190.11998,190.30357,77,80,0
190.30748,190.49107,74,80,0
190.49498,190.52232,72,80,0
190.52623,190.61607,79,80,0
190.61998,190.74107,77,80,0
190.74498,190.86607,76,80,0
190.86998,190.99107,74,80,0
190.99498,191.11607,72,80,0
191.11998,191.24107,71,80,0
191.24498,191.36607,69,80,0
191.36998,191.49107,67,80,0
191.49498,191.61607,65,80,0
191.61998,191.74107,64,80,0
191.74498,191.86607,62,80,0
191.86998,191.99107,60,80,0
191.99498,192.36607,59,80,0
192.36998,192.74107,59,80,0
192.74498,193.11607,59,80,0
193.11998,193.49107,59,80,0
193.49498,193.61607,60,80,0
193.61998,193.74107,62,80,0
193.74498,193.86607,64,80,0
193.86998,193.99107,65,80,0
193.99498,194.11607,67,80,0
194.11998,194.24107,69,80,0
194.24498,194.36607,71,80,0
194.36998,194.49107,72,80,0
194.49498,194.61607,74,80,0
194.61998,194.74107,76,80,0
194.74498,194.86607,77,80,0
194.86998,194.99107,79,80,0
194.99498,195.36607,77,80,0
195.36998,195.74107,77,80,0
195.74498,196.11607,77,80,0
196.11998,196.49107,77,80,0
196.49498,196.61607,76,80,0
196.61998,196.74107,74,80,0
196.74498,196.86607,72,81,0
196.86998,196.99107,71,82,0
196.99498,197.11607,69,83,0
197.11998,197.24107,67,84,0
197.24498,197.36607,65,85,0
197.36998,197.49107,64,86,0
197.49498,197.61607,62,87,0
197.61998,197.74107,60,87,0
197.74498,197.86607,59,88,0
197.86998,197.99107,57,89,0
197.99498,198.36607,56,90,0
198.36998,198.74107,56,93,0
198.74498,199.11607,56,95,0
199.11998,199.49107,56,98,0
199.49498,199.86607,57,101,0
199.86998,200.61607,69,103,0
200.61998,200.99107,67,109,0
200.99498,201.36607,66,110,0
201.36998,201.49107,81,110,0
201.49498,201.61607,78,110,0
201.61998,201.74107,74,110,0
201.74498,202.11607,72,110,0
202.11998,202.24107,81,110,0
202.24498,202.36607,78,110,0
202.36998,202.49107,72,110,0
202.49498,202.86607,71,110,0
202.86998,202.99107,79,110,0
202.99498,203.11607,74,110,0
203.11998,203.24107,71,110,0
203.24498,203.61607,67,110,0
203.61998,203.74107,74,110,0
203.74498,203.86607,71,110,0
203.86998,203.99107,67,110,0
203.99498,204.36607,66,110,0
204.36998,204.49107,81,110,0
204.49498,204.61607,78,110,0
204.61998,204.74107,74,110,0
204.74498,205.11607,72,110,0
205.11998,205.24107,81,110,0
205.24498,205.36607,78,110,0
205.36998,205.49107,72,110,0
205.49498,205.86607,71,110,0
205.86998,205.99107,79,110,0
205.99498,206.11607,74,110,0
206.11998,206.24107,71,110,0
206.24498,206.61607,67,110,0
206.61998,206.74107,74,110,0
206.74498,206.86607,71,110,0
206.86998,206.99107,67,110,0
206.99498,207.36607,62,110,0
207.36998,207.49107,74,110,0
207.49498,207.61607,71,110,0
207.61998,207.74107,67,110,0
207.74498,208.14082,62,110,0
208.14499,208.28337,74,110,0
208.28784,208.42624,71,110,0
208.4307,208.56909,67,110,0
208.57356,208.99767,62,110,0
209.63069,209.82654,62,80,0
209.8307,210.02654,62,80,0
210.0307,210.22653,62,80,0
210.2307,210.61429,67,80,0
210.6182,210.98929,66,80,0
210.9932,211.36429,67,80,0
211.3682,211.73929,69,80,0
211.7432,211.92679,72,80,0
211.9307,212.11429,71,80,0
212.1182,212.48929,69,80,0
212.6807,212.86429,62,80,0
212.8682,213.05179,62,80,0
213.0557,213.23929,62,80,0
213.2432,213.61429,69,80,0
213.6182,213.98929,67,80,0
213.9932,214.36429,69,80,0
213.9932,214.36429,66,80,0
214.3682,214.73929,71,80,0
214.3682,214.73929,67,80,0
214.7432,214.92679,74,80,0
214.7432,214.92679,69,80,0
214.9307,215.11429,72,80,0
215.1182,215.48929,71,80,0
215.1182,215.48929,67,80,0
215.6807,215.86429,74,80,0
215.8682,216.05179,72,80,0
216.0557,216.23929,71,80,0
216.2432,216.42679,71,80,0
216.4307,216.61429,69,80,0
216.6182,216.80179,69,80,0
216.8057,216.98929,69,80,0
216.9932,217.17679,67,80,0
217.1807,217.36429,74,80,0
217.3682,217.55179,72,80,0
217.5557,217.73929,71,80,0
217.7432,217.92679,71,80,0
217.9307,218.11429,69,80,0
218.1182,218.30179,69,80,0
218.3057,218.48929,69,80,0
218.4932,218.67679,67,80,0
218.6807,218.86429,74,80,0
218.8682,219.05179,72,80,0
219.0557,219.23929,71,80,0
219.2432,219.42679,71,80,0
219.4307,219.61429,69,80,0
219.8057,219.98929,69,80,0
219.9932,220.17679,69,80,0
220.1807,220.36429,67,80,0
220.5557,220.73929,67,80,0
220.7432,220.92679,66,80,0
220.9307,221.11429,67,80,0
221.1182,221.30179,69,80,0
221.3057,221.48929,71,80,0
221.4932,221.67679,72,80,0
221.6807,221.86429,74,80,0
221.8682,222.05179,76,80,0
222.0557,222.23929,78,80,0
222.2432,222.61429,79,80,0
222.6182,222.98929,78,80,0
222.9932,223.36429,79,80,0
223.3682,223.73929,81,80,0
223.7432,223.92679,84,80,0
223.9307,224.11429,83,80,0
224.1182,224.48929,81,80,0
224.6807,224.86429,74,80,0
224.8682,225.05179,74,80,0
225.0557,225.23929,74,80,0
225.2432,225.61429,81,80,0
225.6182,225.98929,79,80,0
225.9932,226.36429,81,80,0
225.9932,226.36429,78,80,0
226.3682,226.73929,83,80,0
226.3682,226.73929,79,80,0
226.7432,226.92679,86,80,0
226.7432,226.92679,81,80,0
226.9307,227.11429,84,80,0
227.1182,227.48929,83,80,0
227.1182,227.48929,79,80,0
227.6807,227.86429,86,80,0
227.8682,228.05179,84,80,0
228.0557,228.23929,83,80,0
228.2432,228.42679,83,80,0
228.4307,228.61429,81,80,0
228.6182,228.80179,81,80,0
228.8057,228.98929,81,80,0
228.9932,229.17679,79,80,0
229.1807,229.36429,86,80,0
229.3682,229.55179,84,80,0
229.5557,229.73929,83,80,0
229.7432,229.92679,83,80,0
229.9307,230.11429,81,80,0
230.1182,230.30179,81,80,0
230.3057,230.48929,81,80,0
230.4932,230.67679,79,80,0
230.6807,230.86429,86,80,0
230.8682,231.05179,84,80,0
231.0557,231.23929,83,80,0
231.2432,231.42679,83,80,0
231.4307,231.61429,81,80,0
231.6182,231.80179,84,80,0
231.8057,231.98929,81,80,0
231.9932,232.18903,81,80,0
232.19319,232.38904,79,80,0
232.3932,232.60301,79,80,0
232.60748,232.8173,78,80,0
232.82176,232.85301,79,110,0
232.85748,232.96016,86,110,0
232.96463,233.09465,84,110,0
233.09856,233.21965,83,110,0
233.22356,233.34465,81,110,0
233.34856,233.46965,79,110,0
233.47356,233.59465,78,110,0
233.59856,233.71965,76,110,0
233.72356,233.84465,74,110,0
233.84856,233.96965,72,110,0
233.97356,234.09465,71,110,0
234.09856,234.21965,69,110,0
234.22356,234.34465,67,110,0
234.34856,234.71965,66,110,0
234.72356,235.09465,66,110,0
235.09856,235.46965,66,110,0
235.47356,235.84465,66,110,0
235.84856,235.96965,67,110,0
235.97356,236.09465,69,110,0
236.09856,236.21965,71,110,0
236.22356,236.34465,72,110,0
236.34856,236.46965,74,110,0
236.47356,236.59465,76,110,0
236.59856,236.71965,78,110,0
236.72356,236.84465,79,110,0
236.84856,236.96965,81,110,0
236.97356,237.09465,83,110,0
237.09856,237.21965,84,110,0
237.22356,237.34465,86,110,0
237.34856,237.71965,84,110,0
237.72356,238.09465,84,110,0
238.09856,238.46965,84,110,0
238.47356,238.84465,84,110,0
238.84856,238.8759,83,110,0
238.8798,238.96965,86,110,0
238.97356,239.09465,84,110,0
239.09856,239.21965,83,110,0
239.22356,239.34465,81,110,0
239.34856,239.46965,79,110,0
239.47356,239.59465,78,110,0
239.59856,239.71965,76,110,0
239.72356,239.84465,74,110,0
239.84856,239.96965,72,110,0
239.97356,240.09465,71,110,0
240.09856,240.21965,69,110,0
240.22356,240.34465,67,110,0
240.34856,240.71965,65,110,0
240.72356,241.09465,65,110,0
241.09856,241.46965,65,110,0
241.47356,241.84465,65,110,0
241.84856,241.96965,64,110,0
241.97356,242.09465,69,110,0
242.09856,242.21965,72,110,0
242.22356,242.34465,76,110,0
242.34856,242.46965,72,110,0
242.47356,242.59465,69,110,0
242.59856,242.96965,67,110,0
242.97356,243.05559,69,110,0
243.02043,243.10246,71,110,0
243.0673,243.14153,69,110,0
243.11418,243.1884,71,110,0
243.16106,243.23137,69,110,0
243.20793,243.28215,71,110,0
243.2548,243.34074,67,110,0
243.30168,243.34465,69,110,0
243.34856,243.46965,67,110,0
243.47356,243.59465,69,110,0
243.59856,243.71965,71,110,0
243.72356,243.84465,72,110,0
243.84856,243.96965,74,110,0
243.97356,244.09465,76,110,0
244.09856,244.21965,78,110,0
244.22356,244.34465,79,110,0
244.34856,244.46965,81,110,0
244.47356,244.59465,83,110,0
244.59856,244.71965,84,110,0
244.72356,244.84465,86,110,0
244.84856,246.34465,88,110,0
244.84856,246.34465,84,110,0
246.34856,246.71965,83,110,0
246.34856,246.71965,86,110,0
246.72356,247.09465,84,110,0
246.72356,247.09465,81,110,0
247.09856,247.46965,83,110,0
247.09856,247.46965,79,110,0
247.47356,247.84465,81,110,0
247.47356,247.84465,78,110,0
247.84856,247.96965,86,110,0
247.97356,248.09465,84,110,0
248.09856,248.21965,83,110,0
248.22356,248.34465,81,110,0
248.34856,248.46965,79,110,0
248.47356,248.59465,78,110,0
248.59856,248.71965,76,110,0
248.72356,248.84465,74,110,0
248.84856,248.96965,72,110,0
248.97356,249.09465,71,110,0
249.09856,249.21965,69,110,0
249.22356,249.34465,67,110,0
249.34856,250.84465,76,110,0
249.34856,250.84465,72,110,0
250.84856,251.21965,74,80,0
250.84856,251.21965,71,80,0
251.22356,251.59465,72,80,0
251.22356,251.59465,69,80,0
251.59856,251.96965,71,80,0
251.59856,251.96965,67,80,0
251.97356,252.34465,69,80,0
251.97356,252.34465,66,80,0
252.34856,252.71965,67,110,0
252.72356,252.84465,86,110,0
252.84856,252.96965,83,110,0
252.97356,253.09465,79,110,0
253.09856,253.46965,78,110,0
253.47356,253.59465,84,110,0
253.59856,253.71965,81,110,0
253.72356,253.84465,78,110,0
253.84856,254.21965,79,110,0
254.22356,254.34465,74,110,0
254.34856,254.46965,71,110,0
254.47356,254.59465,67,110,0
254.59856,254.96965,66,110,0
254.97356,255.09465,72,110,0
255.09856,255.21965,69,110,0
255.22356,255.34465,66,110,0
255.34856,255.71965,67,110,0
255.72356,255.84465,86,110,0
255.84856,255.96965,83,110,0
255.97356,256.09464,79,110,0
256.09854,256.46964,78,110,0
256.47354,256.59464,84,110,0
256.59854,256.71964,81,110,0
256.72354,256.84464,78,110,0
256.84854,257.21964,79,110,0
257.22354,257.34464,74,110,0
257.34854,257.46964,71,110,0
257.47354,257.59464,67,110,0
257.59854,257.96964,66,110,0
257.97354,258.09464,72,110,0
258.09854,258.21964,69,110,0
258.22354,258.34464,66,110,0
258.34854,258.71964,67,110,0
258.72354,258.84464,72,110,0
258.84854,258.96964,69,110,0
258.97354,259.09464,66,110,0
259.09854,259.4944,67,110,0
259.49857,259.63693,72,110,0
259.64142,259.79095,69,110,0
259.79617,259.95764,66,110,0
259.96283,260.38693,67,110,0
260.81998,261.3148,78,110,0
260.81998,261.3148,74,110,0
260.81998,261.3148,72,110,0
260.81998,261.3148,69,110,0
261.81998,262.8148,79,110,0
261.81998,262.8148,74,110,0
261.81998,262.8148,71,110,0
264.31998,264.8148,67,1,0
0.0,0.74609375,55,100,0
0.0,0.74609375,43,100,0
1.875,2.2460938,59,80,0
2.25,2.6210938,57,80,0
2.625,2.9960938,55,80,0
3.0,3.3710938,54,80,0
3.375,3.7460938,50,80,0
3.75,4.1210938,55,80,0
4.125,4.4960938,53,80,0
4.5,4.8710938,52,80,0
4.875,5.2460938,54,80,0
5.25,5.4335938,55,80,0
5.4375,5.6210938,55,80,0
5.625,5.820833,59,80,0
5.825,6.0208335,62,80,0
6.025,6.771094,67,110,0
6.025,6.771094,55,110,0
7.9,8.083593,71,80,0
8.0875,8.271093,74,80,0
8.275,8.458593,69,80,0
8.4625,8.646093,74,80,0
8.65,8.833593,67,80,0
8.8375,9.021093,74,80,0
9.025,9.208593,66,80,0
9.2125,9.396093,74,80,0
9.4,9.583593,62,80,0
9.5875,9.771093,74,80,0
9.775,9.958593,67,80,0
9.9625,10.146093,74,80,0
10.15,10.333593,65,80,0
10.3375,10.521093,74,80,0
10.525,10.708593,64,80,0
10.7125,10.896093,67,80,0
10.9,11.083593,66,80,0
11.0875,11.271093,69,80,0
11.275,11.646093,67,80,0
12.4,12.771093,69,80,0
12.4,12.771093,64,80,0
12.4,12.771093,60,80,0
13.9,14.271093,67,80,0
13.9,14.271093,62,80,0
13.9,14.271093,59,80,0
15.025,15.396093,60,80,0
15.775,16.146093,62,80,0
16.525,16.896093,55,80,0
18.4,18.771093,57,80,0
18.4,18.771093,52,80,0
18.4,18.771093,48,80,0
19.9,20.271093,57,80,0
19.9,20.271093,52,80,0
19.9,20.271093,49,80,0
21.139286,21.26038,50,100,0
21.264286,21.38538,54,100,0
21.389286,21.51038,57,100,0
21.514286,21.63538,50,100,0
21.639286,21.76038,54,100,0
21.764286,21.88538,57,100,0
21.889286,22.01038,50,100,0
22.014286,22.13538,54,100,0
22.139286,22.26038,57,100,0
22.264286,22.38538,50,100,0
22.389286,22.51038,54,100,0
22.514286,22.63538,57,100,0
22.639286,22.76038,50,100,0
22.764286,22.88538,55,100,0
22.889286,23.01038,59,100,0
23.014286,23.13538,50,100,0
23.139286,23.26038,55,100,0
23.264286,23.38538,59,100,0
23.389286,23.51038,50,100,0
23.514286,23.63538,55,100,0
23.639286,23.76038,59,100,0
23.764286,23.88538,50,100,0
23.889286,24.01038,55,100,0
24.014286,24.13538,59,100,0
24.139286,24.26038,50,100,0
24.264286,24.38538,54,100,0
24.389286,24.51038,57,100,0
24.514286,24.63538,50,100,0
24.639286,24.76038,54,100,0
24.764286,24.88538,57,100,0
24.889286,25.01038,50,100,0
25.014286,25.13538,54,100,0
25.139286,25.26038,57,100,0
25.264286,25.38538,50,100,0
25.389286,25.51038,54,100,0
25.514286,25.63538,57,100,0
25.639286,25.76038,50,100,0
25.764286,25.88538,55,100,0
25.889286,26.01038,59,100,0
26.014286,26.13538,50,100,0
26.139286,26.26038,55,100,0
26.264286,26.38538,59,100,0
26.389286,26.51038,50,100,0
26.514286,26.63538,55,100,0
26.639286,26.76038,59,100,0
26.764286,26.88538,50,100,0
26.889286,27.01038,55,100,0
27.014286,27.13538,59,100,0
27.139286,27.26038,50,100,0
27.264286,27.38538,54,100,0
27.389286,27.51038,57,100,0
27.514286,27.63538,50,100,0
27.639286,27.76038,55,100,0
27.764286,27.88538,59,100,0
27.889286,28.018452,50,100,0
28.02262,28.151785,54,100,0
28.155952,28.285118,57,100,0
28.289286,28.42768,50,100,0
28.432142,28.570536,55,100,0
28.574999,28.713392,59,100,0
28.717857,29.141964,54,100,0
28.717857,29.141964,50,100,0
30.324999,30.508593,66,80,0
30.512499,30.696093,69,80,0
30.699999,30.883593,67,80,0
30.887499,31.071093,69,80,0
31.074999,31.258593,66,80,0
31.262499,31.446093,69,80,0
31.449999,31.633593,61,80,0
31.637499,31.821093,69,80,0
31.824999,32.00859,62,80,0
32.012497,32.19609,69,80,0
32.199997,32.38359,61,80,0
32.387497,32.57109,69,80,0
32.574997,32.94609,57,80,0
33.324997,33.50859,67,80,0
33.512497,33.69609,69,80,0
33.699997,33.88359,66,80,0
33.887497,34.07109,69,80,0
34.074997,34.25859,64,80,0
34.262497,34.44609,69,80,0
34.449997,34.63359,62,80,0
34.637497,34.82109,69,80,0
34.824997,35.00859,61,80,0
35.012497,35.19609,69,80,0
35.199997,35.38359,62,80,0
35.387497,35.57109,69,80,0
35.574997,35.94609,62,80,0
36.324997,37.07109,71,80,0
36.324997,37.07109,67,80,0
37.074997,37.44609,69,80,0
37.074997,37.44609,66,80,0
37.824997,38.57109,71,80,0
37.824997,38.57109,67,80,0
38.574997,38.94609,69,80,0
38.574997,38.94609,66,80,0
39.699997,40.07109,67,80,0
40.449997,40.82109,68,80,0
40.824997,41.19609,69,80,0
41.199997,41.57109,57,80,0
42.324997,42.50859,66,80,0
42.512497,42.69609,69,80,0
42.699997,42.88359,67,80,0
42.887497,43.07109,69,80,0
43.074997,43.25859,66,80,0
43.262497,43.44609,69,80,0
43.449997,43.63359,61,80,0
43.637497,43.82109,69,80,0
43.824997,44.00859,62,80,0
44.012497,44.19609,69,80,0
44.199997,44.38359,57,80,0
44.387497,44.57109,69,80,0
44.574997,44.94609,57,80,0
45.324997,45.50859,67,80,0
45.512497,45.69609,69,80,0
45.699997,45.88359,66,80,0
45.887497,46.07109,69,80,0
46.074997,46.25859,64,80,0
46.262497,46.44609,69,80,0
46.449997,46.63359,62,80,0
46.637497,46.82109,69,80,0
46.824997,47.00859,61,80,0
47.012497,47.19609,69,80,0
47.199997,47.38359,62,80,0
47.387497,47.57109,69,80,0
47.574997,47.94609,62,80,0
48.324997,49.07109,71,80,0
48.324997,49.07109,67,80,0
49.074997,49.44609,69,80,0
49.074997,49.44609,66,80,0
49.824997,50.57109,71,80,0
49.824997,50.57109,67,80,0
50.574997,50.94609,69,80,0
50.574997,50.94609,66,80,0
51.699997,52.07109,55,80,0
52.074997,52.470833,57,80,0
52.475,52.93173,45,80,0
52.936535,53.30763,50,110,0
54.436535,54.55763,52,110,0
54.561535,54.68263,55,110,0
54.686535,54.80763,57,110,0
54.811535,54.93263,52,110,0
54.936535,55.05763,55,110,0
55.061535,55.18263,57,110,0
55.186535,55.30763,52,110,0
55.311535,55.43263,55,110,0
55.436535,55.55763,57,110,0
55.561535,55.68263,52,110,0
55.686535,55.80763,55,110,0
55.811535,55.93263,57,110,0
55.936535,56.30763,54,110,0
55.936535,56.30763,50,110,0
57.436535,57.55763,49,110,0
57.561535,57.68263,52,110,0
57.686535,57.80763,57,110,0
57.811535,57.93263,49,110,0
57.936535,58.05763,52,110,0
58.061535,58.18263,57,110,0
58.186535,58.30763,49,110,0
58.311535,58.43263,52,110,0
58.436535,58.55763,57,110,0
58.561535,58.68263,49,110,0
58.686535,58.80763,52,110,0
58.811535,58.93263,57,110,0
58.936535,59.30763,50,110,0
60.436535,60.55763,50,110,0
60.561535,60.68263,54,110,0
60.686535,60.80763,57,110,0
60.811535,60.93263,50,110,0
60.936535,61.05763,54,110,0
61.061535,61.18263,57,110,0
61.186535,61.30763,50,110,0
61.311535,61.43263,54,110,0
61.436535,61.55763,57,110,0
61.561535,61.68263,50,110,0
61.686535,61.80763,54,110,0
61.811535,61.93263,57,110,0
61.936535,62.68263,43,110,0
62.311535,62.68263,55,110,0
62.686535,63.05763,45,110,0
62.686535,63.05763,54,110,0
63.061535,63.43263,45,110,0
63.061535,63.43263,55,110,0
63.436535,63.80763,54,110,0
63.436535,63.80763,50,110,0
65.06154,65.18263,55,110,0
65.18654,65.30763,57,110,0
65.31154,65.43263,59,110,0
65.43654,65.55763,61,110,0
65.56154,65.68263,62,110,0
65.68654,65.80763,64,110,0
65.81154,65.93263,66,110,0
65.93654,66.05763,67,110,0
66.06154,66.18263,69,110,0
66.18654,66.30763,71,110,0
66.31154,66.43263,73,110,0
66.43654,66.80763,74,110,0
66.81154,67.18263,67,110,0
67.18654,67.55763,69,110,0
67.56154,67.93263,57,110,0
69.56154,69.68263,43,110,0
69.68654,69.80763,45,110,0
69.81154,69.93263,47,110,0
69.93654,70.05763,49,110,0
70.06154,70.18263,50,110,0
70.18654,70.30763,52,110,0
70.31154,70.43263,54,110,0
70.43654,70.55763,55,110,0
70.56154,70.68263,57,110,0
70.68654,70.80763,59,110,0
70.81154,70.93263,61,110,0
70.93654,71.30763,62,110,0
71.31154,71.68263,55,110,0
71.68654,72.05763,57,110,0
72.06154,72.43263,45,110,0
72.43654,72.55763,50,110,0
72.56154,72.68263,54,110,0
72.68654,72.80763,57,110,0
72.81154,72.93263,50,110,0
72.93654,73.05763,54,110,0
73.06154,73.18263,57,110,0
73.18654,73.30763,50,110,0
73.31154,73.43263,55,110,0
73.43654,73.55763,57,110,0
73.56154,73.68263,50,110,0
73.68654,73.80763,55,110,0
73.81154,73.93263,57,110,0
73.93654,74.05763,50,110,0
74.06154,74.18263,54,110,0
74.18654,74.30763,57,110,0
74.31154,74.43263,50,110,0
74.43654,74.55763,54,110,0
74.56154,74.68263,57,110,0
74.68654,74.80763,50,110,0
74.81154,74.93263,55,110,0
74.93654,75.05763,57,110,0
75.06154,75.18263,50,110,0
75.18654,75.30763,55,110,0
75.31154,75.43263,57,110,0
75.43654,75.55763,50,110,0
75.56154,75.68263,54,110,0
75.68654,75.80763,57,110,0
75.81154,75.93263,50,110,0
75.93654,76.05763,55,110,0
76.06154,76.18263,57,110,0
76.18654,76.315704,50,110,0
76.31987,76.449036,54,110,0
76.4532,76.58237,57,110,0
76.58654,76.72493,50,110,0
76.72939,76.86778,55,110,0
76.87225,77.01064,57,110,0
77.01511,77.43922,54,110,0
77.01511,77.43922,50,110,0
77.44368,77.900406,50,110,0
77.44368,77.900406,38,110,0
77.90522,78.361946,50,110,0
77.90522,78.361946,38,110,0
78.82829,79.57439,55,100,0
78.82829,79.57439,43,100,0
80.70329,81.07439,59,80,0
81.07829,81.44939,57,80,0
81.45329,81.82439,55,80,0
81.82829,82.19939,54,80,0
82.20329,82.57439,50,80,0
82.57829,82.94939,55,80,0
82.95329,83.32439,53,80,0
83.32829,83.69939,52,80,0
83.70329,84.07439,54,80,0
84.07829,84.26189,55,80,0
84.26579,84.44939,55,80,0
84.45329,84.63689,59,80,0
84.64079,84.82439,62,80,0
84.82829,85.57439,67,110,0
84.82829,85.57439,55,110,0
86.70329,86.88689,71,80,0
86.89079,87.07439,74,80,0
87.07829,87.26189,69,80,0
87.26579,87.44939,74,80,0
87.45329,87.63689,67,80,0
87.64079,87.82439,74,80,0
87.82829,88.01189,66,80,0
88.01579,88.19939,74,80,0
88.20329,88.38689,62,80,0
88.39079,88.57439,74,80,0
88.57829,88.76189,67,80,0
88.76579,88.94939,74,80,0
88.95329,89.13689,65,80,0
89.14079,89.32439,74,80,0
89.32829,89.51189,64,80,0
89.51579,89.69939,67,80,0
89.70329,89.88689,66,80,0
89.89079,90.07439,69,80,0
90.07829,90.44939,67,80,0
91.20329,91.57439,69,80,0
91.20329,91.57439,64,80,0
91.20329,91.57439,60,80,0
92.70329,93.07439,67,80,0
92.70329,93.07439,62,80,0
92.70329,93.07439,59,80,0
93.82829,94.19939,60,80,0
94.57829,94.94939,62,80,0
95.32829,95.69939,55,80,0
97.20329,97.57439,57,80,0
97.20329,97.57439,52,80,0
97.20329,97.57439,48,80,0
98.70329,99.07439,57,80,0
98.70329,99.07439,52,80,0
98.70329,99.07439,49,80,0
99.90686,100.027954,50,100,0
100.03186,100.152954,54,100,0
100.15686,100.277954,57,100,0
100.28186,100.402954,50,100,0
100.40686,100.527954,54,100,0
100.53186,100.652954,57,100,0
100.65686,100.777954,50,100,0
100.78186,100.902954,54,100,0
100.90686,101.027954,57,100,0
101.03186,101.152954,50,100,0
101.15686,101.277954,54,100,0
101.28186,101.402954,57,100,0
101.40686,101.527954,50,100,0
101.53186,101.652954,55,100,0
101.65686,101.777954,59,100,0
101.78186,101.902954,50,100,0
101.90686,102.027954,55,100,0
102.03186,102.152954,59,100,0
102.15686,102.277954,50,100,0
102.28186,102.402954,55,100,0
102.40686,102.527954,59,100,0
102.53186,102.652954,50,100,0
102.65686,102.777954,55,100,0
102.78186,102.902954,59,100,0
102.90686,103.027954,50,100,0
103.03186,103.152954,54,100,0
103.15686,103.277954,57,100,0
103.28186,103.402954,50,100,0
103.40686,103.527954,54,100,0
103.53186,103.652954,57,100,0
103.65686,103.777954,50,100,0
103.78186,103.902954,54,100,0
103.90686,104.027954,57,100,0
104.03186,104.152954,50,100,0
104.15686,104.277954,54,100,0
104.28186,104.402954,57,100,0
104.40686,104.527954,50,100,0
104.53186,104.652954,55,100,0
104.65686,104.777954,59,100,0
104.78186,104.902954,50,100,0
104.90686,105.027954,55,100,0
105.03186,105.152954,59,100,0
105.15686,105.277954,50,100,0
105.28186,105.402954,55,100,0
105.40686,105.527954,59,100,0
105.53186,105.652954,50,100,0
105.65686,105.777954,55,100,0
105.78186,105.902954,59,100,0
105.90686,106.027954,50,100,0
106.03186,106.152954,54,100,0
106.15686,106.277954,57,100,0
106.28186,106.402954,50,100,0
106.40686,106.527954,55,100,0
106.53186,106.652954,59,100,0
106.65686,106.777954,50,100,0
106.78186,106.902954,54,100,0
106.90686,107.027954,57,100,0
107.03186,107.152954,50,100,0
107.15686,107.277954,55,100,0
107.28186,107.402954,59,100,0
107.40686,107.777954,54,100,0
107.40686,107.777954,50,100,0
108.90686,109.090454,66,80,0
109.09436,109.277954,69,80,0
109.28186,109.465454,67,80,0
109.46936,109.652954,69,80,0
109.65686,109.840454,66,80,0
109.84436,110.027954,69,80,0
110.03186,110.215454,61,80,0
110.21936,110.402954,69,80,0
110.40686,110.590454,62,80,0
110.59436,110.777954,69,80,0
110.78186,110.965454,61,80,0
110.96936,111.152954,69,80,0
111.15686,111.527954,57,80,0
111.90686,112.090454,67,80,0
112.09436,112.277954,69,80,0
112.28186,112.465454,66,80,0
112.46936,112.652954,69,80,0
112.65686,112.840454,64,80,0
112.84436,113.027954,69,80,0
113.03186,113.215454,62,80,0
113.21936,113.402954,69,80,0
113.40686,113.590454,61,80,0
113.59436,113.777954,69,80,0
113.78186,113.965454,62,80,0
113.96936,114.152954,69,80,0
114.15686,114.527954,62,80,0
114.90686,115.652954,71,80,0
114.90686,115.652954,67,80,0
115.65686,116.027954,69,80,0
115.65686,116.027954,66,80,0
116.40686,117.152954,71,80,0
116.40686,117.152954,67,80,0
117.15686,117.527954,69,80,0
117.15686,117.527954,66,80,0
118.28186,118.652954,67,80,0
119.03186,119.402954,68,80,0
119.40686,119.777954,69,80,0
119.78186,120.152954,57,80,0
120.90686,121.090454,66,80,0
121.09436,121.277954,69,80,0
121.28186,121.465454,67,80,0
121.46936,121.652954,69,80,0
121.65686,121.840454,66,80,0
121.84436,122.027954,69,80,0
122.03186,122.215454,61,80,0
122.21936,122.402954,69,80,0
122.40686,122.590454,62,80,0
122.59436,122.777954,69,80,0
122.78186,122.965454,57,80,0
122.96936,123.152954,69,80,0
123.15686,123.527954,57,80,0
123.90686,124.090454,67,80,0
124.09436,124.277954,69,80,0
124.28186,124.465454,66,80,0
124.46936,124.652954,69,80,0
124.65686,124.840454,64,80,0
124.84436,125.027954,69,80,0
125.03186,125.215454,62,80,0
125.21936,125.402954,69,80,0
125.40686,125.590454,61,80,0
125.59436,125.777954,69,80,0
125.78186,125.965454,62,80,0
125.96936,126.152954,69,80,0
126.15686,126.527954,62,80,0
126.90686,127.652954,71,80,0
126.90686,127.652954,67,80,0
127.65686,128.02795,69,80,0
127.65686,128.02795,66,80,0
128.40686,129.15295,71,80,0
128.40686,129.15295,67,80,0
129.15686,129.52795,69,80,0
129.15686,129.52795,66,80,0
130.28186,130.65295,55,80,0
130.65686,131.0527,57,80,0
131.05687,131.48097,45,80,0
131.48543,131.88332,50,110,0
133.01222,133.13332,52,110,0
133.13722,133.25832,55,110,0
133.26222,133.38332,57,110,0
133.38722,133.50832,52,110,0
133.51222,133.63332,55,110,0
133.63722,133.75832,57,110,0
133.76222,133.88332,52,110,0
133.88722,134.00832,55,110,0
134.01222,134.13332,57,110,0
134.13722,134.25832,52,110,0
134.26222,134.38332,55,110,0
134.38722,134.50832,57,110,0
134.51222,134.88332,54,110,0
134.51222,134.88332,50,110,0
136.01222,136.13332,49,110,0
136.13722,136.25832,52,110,0
136.26222,136.38332,57,110,0
136.38722,136.50832,49,110,0
136.51222,136.63332,52,110,0
136.63722,136.75832,57,110,0
136.76222,136.88332,49,110,0
136.88722,137.00832,52,110,0
137.01222,137.13332,57,110,0
137.13722,137.25832,49,110,0
137.26222,137.38332,52,110,0
137.38722,137.50832,57,110,0
137.51222,137.88332,50,110,0
139.01222,139.13332,50,110,0
139.13722,139.25832,54,110,0
139.26222,139.38332,57,110,0
139.38722,139.50832,50,110,0
139.51222,139.63332,54,110,0
139.63722,139.75832,57,110,0
139.76222,139.88332,50,110,0
139.88722,140.00832,54,110,0
140.01222,140.13332,57,110,0
140.13722,140.25832,50,110,0
140.26222,140.38332,54,110,0
140.38722,140.50832,57,110,0
140.51222,141.25832,43,110,0
140.88722,141.25832,55,110,0
141.26222,141.63332,45,110,0
141.26222,141.63332,54,110,0
141.63722,142.00832,45,110,0
141.63722,142.00832,55,110,0
142.01222,142.38332,54,110,0
142.01222,142.38332,50,110,0
143.63722,143.75832,55,110,0
143.76222,143.88332,57,110,0
143.88722,144.00832,59,110,0
144.01222,144.13332,61,110,0
144.13722,144.25832,62,110,0
144.26222,144.38332,64,110,0
144.38722,144.50832,66,110,0
144.51222,144.63332,67,110,0
144.63722,144.75832,69,110,0
144.76222,144.88332,71,110,0
144.88722,145.00832,73,110,0
145.01222,145.38332,74,110,0
145.38722,145.75832,67,110,0
145.76222,146.13332,69,110,0
146.13722,146.50832,57,110,0
148.13722,148.25832,43,110,0
148.26222,148.38332,45,110,0
148.38722,148.50832,47,110,0
148.51222,148.63332,49,110,0
148.63722,148.75832,50,110,0
148.76222,148.88332,52,110,0
148.88722,149.00832,54,110,0
149.01222,149.13332,55,110,0
149.13722,149.25832,57,110,0
149.26222,149.38332,59,110,0
149.38722,149.50832,61,110,0
149.51222,149.88332,62,110,0
149.88722,150.25832,55,110,0
150.26222,150.63332,57,110,0
150.63722,151.00832,45,110,0
151.01222,151.13332,50,110,0
151.13722,151.25832,54,110,0
151.26222,151.38332,57,110,0
151.38722,151.50832,50,110,0
151.51222,151.63332,54,110,0
151.63722,151.75832,57,110,0
151.76222,151.88332,50,110,0
151.88722,152.00832,55,110,0
152.01222,152.13332,57,110,0
152.13722,152.25832,50,110,0
152.26222,152.38332,55,110,0
152.38722,152.50832,57,110,0
152.51222,152.63332,50,110,0
152.63722,152.75832,54,110,0
152.76222,152.88332,57,110,0
152.88722,153.00832,50,110,0
153.01222,153.13332,54,110,0
153.13722,153.25832,57,110,0
153.26222,153.38332,50,110,0
153.38722,153.50832,55,110,0
153.51222,153.63332,57,110,0
153.63722,153.75832,50,110,0
153.76222,153.88332,55,110,0
153.88722,154.00832,57,110,0
154.01222,154.13332,50,110,0
154.13722,154.25832,54,110,0
154.26222,154.38332,57,110,0
154.38722,154.50832,50,110,0
154.51222,154.63332,55,110,0
154.63722,154.75832,57,110,0
154.76222,154.88722,50,110,0
154.89125,155.01625,54,110,0
155.02028,155.14528,57,110,0
155.14932,155.28294,50,110,0
155.28725,155.42087,55,110,0
155.42517,155.55879,57,110,0
155.56311,155.9726,54,110,0
155.56311,155.9726,50,110,0
155.9769,156.38638,50,110,0
155.9769,156.38638,38,110,0
156.3907,156.80017,50,110,0
156.3907,156.80017,38,110,0
157.21828,158.00317,62,110,0
157.21828,158.00317,50,110,0
158.94458,159.12817,64,80,0
159.13208,159.31567,62,80,0
159.31958,159.50317,64,80,0
159.50708,159.69067,60,80,0
159.69458,159.87817,64,80,0
159.88208,160.06567,56,80,0
160.06958,160.25317,64,80,0
160.25708,160.44067,57,80,0
160.44458,160.62817,64,80,0
160.63208,160.81567,59,80,0
160.81958,161.00317,64,80,0
161.00708,161.19067,60,80,0
161.19458,161.37817,64,86,0
161.38208,161.56567,59,93,0
161.56958,161.75317,64,100,0
161.75708,161.87817,57,110,0
161.88208,162.00317,60,110,0
162.00708,162.12817,64,110,0
162.13208,162.25317,69,110,0
162.25708,162.37817,64,110,0
162.38208,162.50317,60,110,0
162.50708,162.87817,57,110,0
163.44458,163.62817,71,80,0
163.63208,163.81567,69,80,0
163.81958,164.00317,71,80,0
164.00708,164.19067,67,80,0
164.19458,164.37817,71,80,0
164.38208,164.56567,63,80,0
164.56958,164.75317,71,80,0
164.75708,164.94067,64,80,0
164.94458,165.12817,71,80,0
165.13208,165.31567,64,80,0
165.31958,165.50317,71,80,0
165.50708,165.69067,60,80,0
165.69458,165.87817,69,80,0
165.88208,166.06567,61,80,0
166.06958,166.25317,69,80,0
166.25708,166.44067,59,80,0
166.44458,166.62817,71,80,0
166.63208,166.81567,71,80,0
166.81958,167.00317,71,80,0
167.00708,167.19067,71,80,0
167.19458,167.37817,71,80,0
167.38208,167.56567,71,80,0
167.56958,167.75317,71,80,0
167.75708,167.94067,71,80,0
167.94458,168.12817,71,80,0
168.13208,168.31567,71,80,0
168.31958,168.50317,71,80,0
168.50708,168.69067,71,80,0
168.69458,168.87817,71,80,0
168.88208,169.06567,71,80,0
169.06958,169.25317,71,80,0
169.25708,169.44067,59,80,0
169.44458,169.62817,71,80,0
169.63208,169.81567,71,80,0
169.81958,170.00317,71,80,0
170.00708,170.19067,71,80,0
170.19458,170.37817,71,80,0
170.38208,170.56567,71,80,0
170.56958,170.75317,71,80,0
170.75708,170.94067,71,80,0
170.94458,171.12817,71,80,0
171.13208,171.31567,71,80,0
171.31958,171.50317,71,80,0
171.50708,171.69067,71,80,0
171.69458,171.87817,71,80,0
171.88208,172.06567,71,80,0
172.06958,172.25317,71,80,0
172.25708,172.44067,71,80,0
172.44458,172.62817,70,80,0
172.63208,172.81567,71,80,0
172.81958,173.00317,70,80,0
173.00708,173.19067,71,80,0
173.19458,173.37817,69,80,0
173.38208,173.56567,67,80,0
173.56958,173.75317,66,80,0
173.75708,173.94067,64,80,0
173.94458,174.12817,63,80,0
174.13208,174.31567,64,80,0
174.31958,174.50317,63,80,0
174.50708,174.69067,64,80,0
174.69458,174.87817,62,80,0
174.88208,175.06567,60,80,0
175.06958,175.25317,59,80,0
175.25708,175.44067,57,80,0
175.44458,175.62817,56,81,0
175.63208,175.81567,57,83,0
175.81958,176.00317,56,85,0
176.00708,176.19067,57,87,0
176.19458,176.37817,55,89,0
176.38208,176.56567,54,91,0
176.56958,176.75317,52,93,0
176.75708,178.4362,50,95,0
177.53207,178.4362,60,103,0
178.44142,179.24107,55,110,0
178.44142,179.24107,43,110,0
180.36998,180.74107,59,80,0
180.74498,181.11607,57,80,0
181.11998,181.49107,55,80,0
181.49498,181.86607,54,80,0
181.86998,182.24107,50,80,0
182.24498,182.61607,55,80,0
182.61998,182.99107,53,80,0
182.99498,183.36607,52,80,0
183.36998,183.74107,54,80,0
183.74498,183.92857,55,80,0
183.93248,184.11607,55,80,0
184.11998,184.30357,59,80,0
184.30748,184.49107,62,80,0
184.49498,185.24107,67,110,0
184.49498,185.24107,55,110,0
186.36998,186.55357,71,80,0
186.55748,186.74107,74,80,0
186.74498,186.92857,69,80,0
186.93248,187.11607,74,80,0
187.11998,187.30357,67,80,0
187.30748,187.49107,74,80,0
187.49498,187.67857,66,80,0
187.68248,187.86607,74,80,0
187.86998,188.05357,62,80,0
188.05748,188.24107,74,80,0
188.24498,188.42857,67,80,0
188.43248,188.61607,74,80,0
188.61998,188.80357,65,80,0
188.80748,188.99107,74,80,0
188.99498,189.36607,64,80,0
189.36998,189.74107,65,80,0
189.74498,190.11607,67,80,0
190.11998,190.49107,55,80,0
190.49498,190.86607,60,80,0
191.99498,192.11607,50,80,0
192.11998,192.24107,53,80,0
192.24498,192.36607,55,80,0
192.36998,192.49107,50,80,0
192.49498,192.61607,53,80,0
192.61998,192.74107,55,80,0
192.74498,192.86607,50,80,0
192.86998,192.99107,53,80,0
192.99498,193.11607,55,80,0
193.11998,193.24107,50,80,0
193.24498,193.36607,53,80,0
193.36998,193.49107,55,80,0
193.49498,193.86607,52,80,0
193.49498,193.86607,48,80,0
194.99498,195.11607,47,80,0
195.11998,195.24107,50,80,0
195.24498,195.36607,55,80,0
195.36998,195.49107,47,80,0
195.49498,195.61607,50,80,0
195.61998,195.74107,55,80,0
195.74498,195.86607,47,80,0
195.86998,195.99107,50,80,0
195.99498,196.11607,55,80,0
196.11998,196.24107,47,80,0
196.24498,196.36607,50,80,0
196.36998,196.49107,55,80,0
196.49498,196.86607,48,80,0
197.99498,198.11607,47,90,0
198.11998,198.24107,50,91,0
198.24498,198.36607,52,92,0
198.36998,198.49107,47,93,0
198.49498,198.61607,50,94,0
198.61998,198.74107,52,95,0
198.74498,198.86607,47,95,0
198.86998,198.99107,50,96,0
198.99498,199.11607,52,97,0
199.11998,199.24107,47,98,0
199.24498,199.36607,50,99,0
199.36998,199.49107,52,100,0
199.49498,199.61607,48,101,0
199.61998,199.74107,52,102,0
199.74498,199.86607,57,103,0
199.86998,199.99107,48,103,0
199.99498,200.11607,52,104,0
200.11998,200.24107,57,105,0
200.24498,200.36607,49,106,0
200.36998,200.49107,52,107,0
200.49498,200.61607,57,108,0
200.61998,200.74107,49,109,0
200.74498,200.86607,52,110,0
200.86998,200.99107,57,110,0
200.99498,201.11607,50,110,0
201.11998,201.24107,54,110,0
201.24498,201.36607,57,110,0
201.36998,201.49107,50,110,0
201.49498,201.61607,54,110,0
201.61998,201.74107,57,110,0
201.74498,201.86607,50,110,0
201.86998,201.99107,54,110,0
201.99498,202.11607,57,110,0
202.11998,202.24107,50,110,0
202.24498,202.36607,54,110,0
202.36998,202.49107,57,110,0
202.49498,202.61607,50,110,0
202.61998,202.74107,55,110,0
202.74498,202.86607,59,110,0
202.86998,202.99107,50,110,0
202.99498,203.11607,55,110,0
203.11998,203.24107,59,110,0
203.24498,203.36607,50,110,0
203.36998,203.49107,55,110,0
203.49498,203.61607,59,110,0
203.61998,203.74107,50,110,0
203.74498,203.86607,55,110,0
203.86998,203.99107,59,110,0
203.99498,204.11607,50,110,0
204.11998,204.24107,54,110,0
204.24498,204.36607,57,110,0
204.36998,204.49107,50,110,0
204.49498,204.61607,54,110,0
204.61998,204.74107,57,110,0
204.74498,204.86607,50,110,0
204.86998,204.99107,54,110,0
204.99498,205.11607,57,110,0
205.11998,205.24107,50,110,0
205.24498,205.36607,54,110,0
205.36998,205.49107,57,110,0
205.49498,205.61607,50,110,0
205.61998,205.74107,55,110,0
205.74498,205.86607,59,110,0
205.86998,205.99107,50,110,0
205.99498,206.11607,55,110,0
206.11998,206.24107,59,110,0
206.24498,206.36607,50,110,0
206.36998,206.49107,55,110,0
206.49498,206.61607,59,110,0
206.61998,206.74107,50,110,0
206.74498,206.86607,55,110,0
206.86998,206.99107,59,110,0
206.99498,207.11607,50,110,0
207.11998,207.24107,54,110,0
207.24498,207.36607,57,110,0
207.36998,207.49107,50,110,0
207.49498,207.61607,55,110,0
207.61998,207.74107,59,110,0
207.74498,207.87415,50,110,0
207.87831,208.00749,54,110,0
208.01166,208.14082,57,110,0
208.14499,208.28337,50,110,0
208.28784,208.42624,55,110,0
208.4307,208.56909,59,110,0
208.57356,208.99767,54,110,0
208.57356,208.99767,50,110,0
210.2307,210.42653,59,80,0
210.4307,210.61429,62,80,0
210.6182,210.80179,60,80,0
210.8057,210.98929,62,80,0
210.9932,211.17679,59,80,0
211.1807,211.36429,62,80,0
211.3682,211.55179,54,80,0
211.5557,211.73929,62,80,0
211.7432,211.92679,55,80,0
211.9307,212.11429,62,80,0
212.1182,212.30179,54,80,0
212.3057,212.48929,62,80,0
212.4932,212.86429,50,80,0
213.2432,213.42679,60,80,0
213.4307,213.61429,62,80,0
213.6182,213.80179,59,80,0
213.8057,213.98929,62,80,0
213.9932,214.17679,57,80,0
214.1807,214.36429,62,80,0
214.3682,214.55179,55,80,0
214.5557,214.73929,62,80,0
214.7432,214.92679,54,80,0
214.9307,215.11429,62,80,0
215.1182,215.30179,55,80,0
215.3057,215.48929,62,80,0
215.4932,215.86429,55,80,0
216.2432,216.98929,64,80,0
216.2432,216.98929,60,80,0
216.9932,217.36429,62,80,0
216.9932,217.36429,59,80,0
217.7432,218.48929,64,80,0
217.7432,218.48929,60,80,0
218.4932,218.86429,62,80,0
218.4932,218.86429,59,80,0
219.6182,219.98929,60,80,0
219.6182,219.98929,64,80,0
220.3682,220.73929,64,80,0
220.3682,220.73929,61,80,0
220.7432,221.11429,62,80,0
222.2432,222.42679,71,80,0
222.4307,222.61429,74,80,0
222.6182,222.80179,72,80,0
222.8057,222.98929,74,80,0
222.9932,223.17679,71,80,0
223.1807,223.36429,74,80,0
223.3682,223.55179,66,80,0
223.5557,223.73929,74,80,0
223.7432,223.92679,67,80,0
223.9307,224.11429,74,80,0
224.1182,224.30179,66,80,0
224.3057,224.48929,74,80,0
224.4932,224.86429,62,80,0
225.2432,225.42679,72,80,0
225.4307,225.61429,74,80,0
225.6182,225.80179,71,80,0
225.8057,225.98929,74,80,0
225.9932,226.17679,69,80,0
226.1807,226.36429,74,80,0
226.3682,226.55179,67,80,0
226.5557,226.73929,74,80,0
226.7432,226.92679,66,80,0
226.9307,227.11429,74,80,0
227.1182,227.30179,67,80,0
227.3057,227.48929,74,80,0
227.4932,227.86429,67,80,0
228.2432,228.61429,76,80,0
228.2432,228.98929,72,80,0
228.6182,228.98929,78,80,0
228.9932,229.36429,74,80,0
228.9932,229.36429,71,80,0
229.7432,230.11429,76,80,0
229.7432,230.48929,72,80,0
230.1182,230.48929,78,80,0
230.4932,230.86429,74,80,0
230.4932,230.86429,71,80,0
231.6182,231.98929,72,80,0
231.9932,232.38904,74,80,0
232.3932,232.8173,62,80,0
232.82176,233.21965,67,110,0
234.34856,234.46965,57,110,0
234.47356,234.59465,60,110,0
234.59856,234.71965,62,110,0
234.72356,234.84465,57,110,0
234.84856,234.96965,60,110,0
234.97356,235.09465,62,110,0
235.09856,235.21965,57,110,0
235.22356,235.34465,60,110,0
235.34856,235.46965,62,110,0
235.47356,235.59465,57,110,0
235.59856,235.71965,60,110,0
235.72356,235.84465,62,110,0
235.84856,236.21965,59,110,0
235.84856,236.21965,55,110,0
237.34856,237.46965,54,110,0
237.47356,237.59465,57,110,0
237.59856,237.71965,62,110,0
237.72356,237.84465,54,110,0
237.84856,237.96965,57,110,0
237.97356,238.09465,62,110,0
238.09856,238.21965,54,110,0
238.22356,238.34465,57,110,0
238.34856,238.46965,62,110,0
238.47356,238.59465,54,110,0
238.59856,238.71965,57,110,0
238.72356,238.84465,62,110,0
238.84856,239.21965,59,110,0
238.84856,239.21965,55,110,0
240.34856,240.46965,47,110,0
240.47356,240.59465,50,110,0
240.59856,240.71965,55,110,0
240.72356,240.84465,47,110,0
240.84856,240.96965,50,110,0
240.97356,241.09465,55,110,0
241.09856,241.21965,47,110,0
241.22356,241.34465,50,110,0
241.34856,241.46965,56,110,0
241.47356,241.59465,47,110,0
241.59856,241.71965,50,110,0
241.72356,241.84465,56,110,0
241.84856,241.96965,48,110,0
241.97356,242.09465,52,110,0
242.09856,242.21965,57,110,0
242.22356,242.34465,48,110,0
242.34856,242.46965,52,110,0
242.47356,242.59465,57,110,0
242.59856,242.71965,50,110,0
242.72356,242.84465,55,110,0
242.84856,242.96965,59,110,0
242.97356,243.09465,50,110,0
243.09856,243.21965,54,110,0
243.22356,243.34465,60,110,0
243.34856,243.71965,59,110,0
243.34856,243.71965,55,110,0
244.97356,245.09465,60,110,0
245.09856,245.21965,62,110,0
245.22356,245.34465,64,110,0
245.34856,245.46965,66,110,0
245.47356,245.59465,67,110,0
245.59856,245.71965,69,110,0
245.72356,245.84465,71,110,0
245.84856,245.96965,72,110,0
245.97356,246.09465,74,110,0
246.09856,246.21965,76,110,0
246.22356,246.34465,78,110,0
246.34856,246.71965,79,110,0
246.72356,247.09465,72,110,0
247.09856,247.46965,74,110,0
247.47356,247.84465,62,110,0
249.47356,249.59465,48,110,0
249.59856,249.71965,50,110,0
249.72356,249.84465,52,110,0
249.84856,249.96965,54,110,0
249.97356,250.09465,55,110,0
250.09856,250.21965,57,110,0
250.22356,250.34465,59,110,0
250.34856,250.46965,60,110,0
250.47356,250.59465,62,110,0
250.59856,250.71965,64,110,0
250.72356,250.84465,66,110,0
250.84856,251.21965,67,111,0
251.22356,251.59465,60,80,0
251.59856,251.96965,62,80,0
251.97356,252.34465,50,80,0
252.34856,252.46965,43,110,0
252.47356,252.59465,47,110,0
252.59856,252.71965,50,110,0
252.72356,252.84465,43,110,0
252.84856,252.96965,47,110,0
252.97356,253.09465,50,110,0
253.09856,253.21965,43,110,0
253.22356,253.34465,48,110,0
253.34856,253.46965,50,110,0
253.47356,253.59465,43,110,0
253.59856,253.71965,48,110,0
253.72356,253.84465,50,110,0
253.84856,253.96965,43,110,0
253.97356,254.09465,47,110,0
254.09856,254.21965,50,110,0
254.22356,254.34465,43,110,0
254.34856,254.46965,47,110,0
254.47356,254.59465,50,110,0
254.59856,254.71965,43,110,0
254.72356,254.84465,48,110,0
254.84856,254.96965,50,110,0
254.97356,255.09465,43,110,0
255.09856,255.21965,48,110,0
255.22356,255.34465,50,110,0
255.34856,255.46965,43,110,0
255.47356,255.59465,47,110,0
255.59856,255.71965,50,110,0
255.72356,255.84465,43,110,0
255.84856,255.96965,47,110,0
255.97356,256.09464,50,110,0
256.09854,256.21964,43,110,0
256.22354,256.34464,48,110,0
256.34854,256.46964,50,110,0
256.47354,256.59464,43,110,0
256.59854,256.71964,48,110,0
256.72354,256.84464,50,110,0
256.84854,256.96964,43,110,0
256.97354,257.09464,47,110,0
257.09854,257.21964,50,110,0
257.22354,257.34464,43,110,0
257.34854,257.46964,47,110,0
257.47354,257.59464,50,110,0
257.59854,257.71964,43,110,0
257.72354,257.84464,48,110,0
257.84854,257.96964,50,110,0
257.97354,258.09464,43,110,0
258.09854,258.21964,48,110,0
258.22354,258.34464,50,110,0
258.34854,258.46964,43,110,0
258.47354,258.59464,47,110,0
258.59854,258.71964,50,110,0
258.72354,258.84464,43,110,0
258.84854,258.96964,48,110,0
258.97354,259.09464,50,110,0
259.09854,259.22772,43,110,0
259.2319,259.36105,47,110,0
259.36523,259.4944,50,110,0
259.49857,259.63693,43,110,0
259.64142,259.79095,48,110,0
259.79617,259.95764,50,110,0
259.96283,260.38693,43,110,0
260.81998,261.3148,50,110,0
260.81998,261.3148,38,110,0
261.81998,262.8148,43,110,0
261.81998,262.8148,31,110,0
