start_time,end_time,note_value,velocity,instrument_program_number
0.0,1.2239584,59,80,0
0.0,2.4739583,64,80,0
1.25,2.4739583,62,80,0
2.5,3.0989583,64,80,0
3.125,3.3072917,65,80,0
3.3333333,3.515625,64,80,0
3.5416667,3.7239583,63,80,0
3.75,4.3489585,64,80,0
2.5,4.9739585,60,80,0
4.375,4.9739585,72,80,0
5.0,6.8489585,68,80,0
6.875,7.1614585,71,80,0
5.0,7.4739585,64,80,0
7.1875,7.4739585,69,80,0
7.5,8.723958,64,80,0
7.5,8.723958,69,80,0
8.75,9.973958,64,80,0
8.75,9.973958,72,80,0
8.75,9.973958,76,80,0
10.0,11.223958,64,80,0
10.0,11.223958,76,80,0
10.0,11.848958,69,80,0
11.25,11.848958,62,80,0
11.25,11.848958,74,80,0
11.875,12.473958,64,80,0
11.875,12.473958,67,80,0
11.875,12.473958,73,80,0
11.875,12.473958,76,80,0
12.5,13.723958,65,80,0
12.5,13.723958,69,80,0
12.5,13.723958,74,80,0
12.5,13.723958,77,80,0
13.75,14.348958,58,80,0
13.75,14.348958,65,80,0
13.75,14.348958,70,80,0
14.375,14.973958,60,80,0
14.375,14.973958,64,80,0
14.375,14.973958,69,80,0
15.0,16.223959,62,80,0
15.0,16.223959,64,80,0
15.0,16.223959,68,80,0
16.25,16.848959,69,80,0
16.25,17.473959,60,80,0
16.25,17.473959,64,80,0
16.875,17.473959,72,80,0
17.5,18.098959,64,80,0
17.5,18.098959,72,80,0
17.5,18.098959,76,80,0
18.125,18.723959,69,80,0
18.125,18.723959,72,80,0
18.75,19.46875,68,80,0
18.75,20.21875,71,80,0
19.5,20.21875,67,80,0
20.25,21.425,64,80,0
20.25,21.425,67,80,0
20.25,21.425,71,80,0
21.45,22.625,65,80,0
21.45,22.625,71,80,0
21.45,22.625,79,80,0
22.65,23.825,67,80,0
22.65,23.825,72,80,0
22.65,23.825,76,80,0
22.65,23.825,79,80,0
23.85,25.025,72,80,0
23.85,25.025,76,80,0
23.85,25.025,79,80,0
23.85,25.025,84,80,0
25.05,26.225,72,80,0
25.05,26.225,77,80,0
25.05,26.225,84,80,0
26.25,27.425,77,80,0
26.25,27.425,84,80,0
26.25,27.425,89,80,0
27.45,29.225,89,80,0
27.45,29.225,77,80,0
27.45,29.225,83,80,0
27.45,29.225,86,80,0
29.25,29.825,50,80,0
29.25,29.825,53,80,0
29.25,29.825,59,80,0
29.85,31.025,50,80,0
29.85,31.025,53,80,0
29.85,31.025,59,80,0
31.05,32.225,52,80,0
31.05,32.225,55,80,0
31.05,32.225,61,80,0
32.25,33.425,53,80,0
32.25,33.425,57,80,0
32.25,33.425,62,80,0
33.45,34.025,55,80,0
33.45,34.025,60,80,0
34.05,34.625,55,80,0
34.05,34.625,59,80,0
34.65,35.825,67,80,0
34.65,35.825,55,80,0
34.65,35.825,60,80,0
35.85,36.725,57,80,0
35.85,36.725,69,80,0
35.85,37.025,64,80,0
36.75,37.025,59,80,0
36.75,37.025,71,80,0
37.05,38.327175,59,80,0
37.05,38.327175,65,80,0
37.05,38.327175,71,80,0
38.354347,39.073097,60,80,0
38.354347,39.073097,64,80,0
38.354347,39.073097,72,80,0
44.86304,46.038044,62,80,0
44.86304,47.23804,67,80,0
46.06304,47.23804,65,80,0
47.263042,47.838043,67,80,0
47.86304,48.038044,69,80,0
48.06304,48.23804,67,80,0
47.263042,48.43804,64,80,0
48.263042,48.43804,66,80,0
48.463043,49.088043,67,80,0
49.115215,49.833965,76,80,0
49.115215,49.833965,79,80,0
49.115215,49.833965,88,80,0
49.865215,51.14239,71,80,0
49.865215,51.14239,74,80,0
49.865215,51.14239,83,80,0
51.169563,52.44674,74,80,0
51.169563,52.44674,77,80,0
51.169563,52.44674,86,80,0
52.47391,53.751083,72,80,0
52.47391,53.751083,76,80,0
52.47391,53.751083,84,80,0
54.97826,55.553257,79,80,0
55.57826,55.753258,81,80,0
55.77826,55.95326,79,80,0
55.97826,56.15326,78,80,0
56.178257,56.753258,79,80,0
56.77826,57.35326,88,80,0
57.378258,59.753258,88,80,0
59.77826,60.35326,79,80,0
60.378258,60.553257,81,80,0
60.57826,60.753258,79,80,0
60.77826,60.95326,78,80,0
60.97826,61.553257,79,80,0
61.57826,62.15326,88,80,0
62.178257,63.95326,88,80,0
63.97826,64.55326,79,80,0
64.57826,66.05326,79,80,0
66.07826,66.15326,81,80,0
66.17826,66.25326,79,80,0
66.27826,66.35326,78,80,0
66.37826,66.65326,79,80,0
66.67826,66.95326,88,80,0
66.97826,67.55326,88,80,0
67.57826,68.15326,78,80,0
67.57826,68.15326,84,80,0
67.57826,68.15326,87,80,0
68.17826,68.75326,66,80,0
68.17826,68.75326,69,80,0
68.17826,68.75326,75,80,0
69.37826,69.50326,65,80,0
69.52826,69.65326,71,80,0
69.67826,69.80326,74,80,0
69.82826,70.85326,77,80,0
70.87826,70.95326,79,80,0
70.97826,71.05326,77,80,0
71.07826,71.15326,76,80,0
71.17826,71.45326,77,80,0
71.47826,71.75326,86,80,0
71.77826,72.35326,86,80,0
72.37826,72.95326,76,80,0
72.37826,72.95326,79,80,0
72.37826,72.95326,82,80,0
72.37826,72.95326,85,80,0
72.97826,73.55326,67,80,0
72.97826,73.55326,64,80,0
72.97826,73.55326,73,80,0
74.17826,74.45326,62,80,0
74.47826,75.65326,75,80,0
75.67826,75.75326,83,80,0
75.77826,75.85326,81,80,0
75.87826,75.95326,80,80,0
75.97826,76.15326,81,80,0
76.17826,76.35326,72,80,0
76.37826,76.55326,84,80,0
76.57826,77.15326,84,80,0
77.17826,77.75326,74,80,0
77.17826,77.75326,80,80,0
77.17826,77.75326,83,80,0
77.77826,78.35326,62,80,0
77.77826,78.35326,65,80,0
77.77826,78.35326,71,80,0
78.97826,80.15326,71,80,0
78.97826,80.15326,80,80,0
78.97826,80.15326,83,80,0
80.17826,81.95326,71,80,0
80.17826,81.95326,74,80,0
80.17826,81.95326,83,80,0
81.97826,82.55326,69,80,0
81.97826,82.55326,72,80,0
81.97826,82.55326,81,80,0
82.57826,83.15326,64,80,0
82.57826,83.15326,72,80,0
82.57826,83.15326,76,80,0
83.17826,83.75326,64,80,0
83.17826,83.75326,72,80,0
83.17826,83.75326,76,80,0
83.77826,84.95326,64,80,0
83.77826,84.95326,72,80,0
83.77826,84.95326,76,80,0
84.97826,86.75326,62,80,0
84.97826,86.75326,71,80,0
84.97826,86.75326,74,80,0
86.77826,87.95326,69,80,0
86.77826,87.95326,60,80,0
86.77826,87.95326,72,80,0
87.97826,88.55326,60,80,0
87.97826,88.55326,69,80,0
87.97826,88.55326,72,80,0
88.57826,91.60326,60,80,0
88.57826,91.60326,63,80,0
88.57826,91.60326,66,80,0
88.57826,91.60326,69,80,0
88.57826,91.60326,72,80,0
91.63043,92.25543,60,80,0
91.63043,92.25543,63,80,0
91.63043,92.25543,66,80,0
91.63043,92.25543,72,80,0
92.28261,92.93601,63,80,0
92.28261,92.93601,66,80,0
92.28261,92.93601,69,80,0
92.964424,93.683174,64,80,0
92.964424,93.683174,68,80,0
93.714424,96.683174,56,80,0
93.714424,96.683174,59,80,0
93.714424,96.683174,64,80,0
93.714424,96.683174,68,80,0
96.714424,97.1988,64,80,0
97.089424,97.1988,64,80,0
96.901924,97.464424,63,80,0
97.276924,97.808174,68,80,0
97.651924,97.808174,68,80,0
97.464424,97.933174,71,80,0
98.026924,98.1363,68,80,0
97.839424,98.401924,67,80,0
98.214424,98.79255,71,80,0
98.589424,98.79255,71,80,0
98.401924,98.98005,76,80,0
98.964424,99.16755,71,80,0
98.776924,99.29255,70,80,0
99.151924,99.66755,76,80,0
99.526924,99.66755,76,80,0
99.339424,99.8863,80,80,0
99.901924,100.1988,76,80,0
99.714424,100.23005,75,80,0
100.089424,100.66442,80,80,0
100.614426,100.66442,80,80,0
100.276924,100.739426,83,80,0
100.464424,100.87692,78,80,0
100.76443,101.14776,83,80,0
100.91442,101.324844,75,80,0
101.06442,101.46026,76,80,0
101.18942,101.55401,80,80,0
101.31442,101.699844,70,80,0
101.43942,101.86651,71,80,0
101.56442,101.887344,76,80,0
101.68942,102.02276,67,80,0
101.81442,102.25192,68,80,0
101.93942,102.30401,71,80,0
102.06442,102.49151,63,80,0
102.18942,102.55401,64,80,0
102.43942,102.55401,64,80,0
102.31442,102.64776,68,80,0
102.56442,102.93942,59,80,0
102.68942,103.03317,56,80,0
102.81442,103.14255,52,80,0
104.06442,104.390816,64,80,0
104.06442,104.724144,68,80,0
104.39776,104.724144,59,80,0
104.73109,105.05748,66,80,0
104.73109,105.05748,69,80,0
105.06442,105.39081,68,80,0
105.06442,105.724144,71,80,0
105.39776,105.724144,64,80,0
105.73109,106.05748,73,80,0
105.73109,106.41001,69,80,0
106.06442,106.80903,76,80,0
106.417366,106.80903,66,80,0
106.81736,107.26929,74,80,0
106.81736,107.26929,71,80,0
107.2789,108.97533,71,80,0
108.99319,109.719574,69,80,0
109.39319,110.05291,81,80,0
110.05985,110.38624,80,80,0
109.72652,110.719574,69,80,0
110.39319,111.05291,78,80,0
111.05985,111.38624,76,80,0
110.72652,111.719574,69,80,0
111.39318,112.0529,78,80,0
111.72652,112.73877,69,80,0
112.05985,112.73877,76,80,0
112.746124,113.11331,64,80,0
112.746124,113.11331,73,80,0
113.121124,113.540764,64,80,0
113.121124,113.540764,71,80,0
114.40684,115.15981,76,80,0
115.16874,115.53593,73,80,0
114.74017,115.91093,64,80,0
115.54374,115.91093,71,80,0
116.66874,117.38933,78,80,0
117.04374,117.38933,66,83,0
117.39668,117.72307,74,86,0
117.73002,118.056404,73,89,0
118.06335,118.3571,81,93,0
118.06335,118.3571,69,93,0
118.36335,118.61878,78,96,0
118.624214,118.85018,76,99,0
118.85499,119.05082,85,103,0
118.85499,119.05082,73,103,0
119.054985,119.25082,81,106,0
119.25499,119.45082,80,109,0
119.45499,119.59561,76,110,0
119.45499,119.606026,88,110,0
119.53832,119.699776,87,106,0
119.62165,119.7727,86,102,0
119.70499,119.856026,85,98,0
119.78832,119.93936,83,94,0
119.87165,119.99145,81,89,0
119.95499,120.11124,80,85,0
120.03832,120.19457,78,81,0
120.12165,120.24665,76,80,0
120.20499,120.36818,74,80,0
120.28832,120.451515,76,80,0
120.37165,120.53485,74,80,0
120.45499,120.61818,76,80,0
120.53832,120.701515,74,80,0
120.62165,120.78485,76,80,0
120.70499,120.86818,74,80,0
120.78832,120.951515,76,80,0
120.87165,121.03484,74,80,0
120.95499,121.11818,76,80,0
121.03832,121.201515,74,80,0
121.12165,121.28484,76,80,0
121.20499,121.36818,74,80,0
121.28832,121.451515,76,80,0
121.37165,121.53484,74,80,0
121.45499,121.61818,76,80,0
121.53832,121.701515,74,80,0
121.62165,121.701515,76,80,0
121.70499,121.86818,75,80,0
121.788315,121.951515,76,80,0
121.87165,122.03484,75,80,0
121.95499,122.11818,76,80,0
122.038315,122.201515,75,80,0
122.12165,122.28484,76,80,0
122.20499,122.36818,75,80,0
122.288315,122.451515,76,80,0
122.37165,122.53484,75,80,0
122.45499,122.61818,76,80,0
122.538315,122.701515,75,80,0
122.62165,122.78484,76,80,0
122.70499,122.86818,75,80,0
122.788315,122.951515,76,80,0
122.87165,123.03484,75,80,0
122.95499,123.11818,76,80,0
123.038315,123.201515,75,80,0
123.12165,123.28484,76,80,0
123.20499,123.36818,75,80,0
123.288315,123.45151,76,80,0
123.37165,123.53484,75,80,0
123.45499,123.61818,76,80,0
123.538315,123.70151,75,80,0
123.62165,123.70151,76,80,0
123.70499,123.81146,74,80,0
123.76054,123.86702,76,80,0
123.81609,123.92258,78,80,0
123.87165,123.978134,76,81,0
123.92721,124.03368,78,81,0
123.98276,124.08924,76,81,0
124.038315,124.1448,78,82,0
124.09387,124.200356,76,82,0
124.14943,124.255905,78,83,0
124.20498,124.31146,76,83,0
124.26054,124.36702,78,83,0
124.31609,124.42258,76,84,0
124.37165,124.478134,78,84,0
124.42721,124.53368,76,85,0
124.48276,124.58924,78,85,0
124.538315,124.6448,76,85,0
124.59387,124.700356,78,86,0
124.64943,124.755905,76,86,0
124.70498,124.81146,78,87,0
124.76054,124.86702,76,87,0
124.81609,124.92258,78,87,0
124.87165,124.97813,76,88,0
124.92721,125.03368,78,88,0
124.98276,125.08924,76,89,0
125.038315,125.1448,78,89,0
125.09387,125.200356,76,89,0
125.14943,125.255905,78,90,0
125.20498,125.31146,76,90,0
125.26054,125.36702,78,91,0
125.31609,125.42258,76,91,0
125.37165,125.47813,78,91,0
125.4272,125.53368,76,92,0
125.48276,125.58924,78,92,0
125.538315,125.6448,76,93,0
125.59387,125.70035,78,93,0
125.64943,125.755905,76,93,0
125.70498,125.81146,78,94,0
125.76054,125.86702,76,94,0
125.81609,125.92258,78,94,0
125.87165,125.97813,76,95,0
125.9272,126.03368,78,95,0
125.98276,126.08924,76,96,0
126.038315,126.1448,78,96,0
126.09387,126.20035,76,96,0
126.14942,126.255905,78,97,0
126.20498,126.31146,76,97,0
126.26054,126.36702,78,98,0
126.31609,126.42258,76,98,0
126.37165,126.47813,78,98,0
126.4272,126.53368,76,99,0
126.48276,126.58924,78,99,0
126.538315,126.6448,76,100,0
126.59387,126.70035,78,100,0
126.64942,126.755905,76,100,0
126.70498,126.81146,78,101,0
126.76054,126.86702,76,101,0
126.81609,126.92257,78,102,0
126.87164,126.97813,76,102,0
126.9272,127.03368,78,102,0
126.98276,127.08924,76,103,0
127.038315,127.1448,78,103,0
127.09387,127.20035,76,104,0
127.14942,127.255905,78,104,0
127.20498,127.31146,76,104,0
127.26054,127.36702,78,105,0
127.31609,127.42257,76,105,0
127.37164,127.47813,78,106,0
127.4272,127.53368,76,106,0
127.48276,127.58924,78,106,0
127.538315,127.64479,76,107,0
127.593864,127.70035,78,107,0
127.64942,127.755905,76,107,0
127.70498,127.81146,78,108,0
127.76054,127.86702,76,108,0
127.81609,127.92257,78,109,0
127.87164,127.92257,76,109,0
127.9272,128.14479,76,110,0
127.9272,128.14479,80,110,0
127.9272,128.14479,83,110,0
127.9272,128.14479,88,110,0
128.14943,128.70035,73,110,0
128.14943,128.70035,76,110,0
128.14943,128.70035,81,110,0
128.14943,128.70035,85,110,0
128.70497,128.81146,86,110,0
128.81609,128.92258,88,110,0
128.9272,129.03368,90,110,0
129.03831,129.47812,71,110,0
129.03831,129.47812,83,110,0
129.70497,129.92258,76,110,0
129.70497,129.92258,88,110,0
129.9272,130.47812,69,110,0
129.9272,130.47812,81,110,0
130.48276,130.58923,83,110,0
130.59387,130.70035,85,110,0
130.70497,130.81146,86,110,0
130.81609,131.2559,68,110,0
130.81609,131.2559,80,110,0
131.48276,131.70035,85,80,0
131.70497,131.81146,78,80,0
131.81609,131.92256,80,80,0
131.9272,132.03368,81,80,0
132.03831,132.14479,83,80,0
132.14941,132.2559,81,80,0
132.26053,132.367,80,80,0
132.37164,132.47812,78,80,0
132.48276,132.58923,80,80,0
132.59386,132.70035,81,80,0
132.70497,132.81146,83,80,0
132.81609,132.92256,85,80,0
132.9272,133.03368,86,80,0
133.03831,133.14479,85,80,0
133.14941,133.2559,83,80,0
133.26053,133.367,81,80,0
133.37164,133.47812,83,80,0
133.48276,133.59332,85,80,0
133.59813,133.70871,86,80,0
133.71352,133.83331,88,80,0
133.83852,133.95831,90,80,0
133.96352,134.09421,92,80,0
134.09988,134.23056,93,80,0
134.23625,134.39597,81,80,0
134.23625,134.39597,85,80,0
134.40291,134.56264,87,80,0
134.56958,136.05396,81,80,0
134.56958,136.05396,90,80,0
136.06958,136.80396,80,80,0
136.06958,136.80396,88,80,0
137.26402,137.48161,83,110,0
137.26402,137.48161,71,110,0
137.48625,138.03717,81,110,0
137.48625,138.03717,69,110,0
138.0418,138.14828,83,110,0
138.15291,138.2594,85,110,0
138.26402,138.3705,86,110,0
138.37514,138.59273,68,110,0
138.37514,138.59273,80,110,0
139.0418,139.2594,68,110,0
139.0418,139.2594,80,110,0
139.26402,139.81494,78,110,0
139.26402,139.81494,66,110,0
139.81958,139.92606,80,110,0
139.9307,140.03717,81,110,0
140.0418,140.14828,83,110,0
140.15291,140.3705,64,110,0
140.15291,140.3705,76,110,0
140.37514,140.81494,76,80,0
140.37514,140.81494,68,80,0
140.81958,141.03717,66,80,0
140.81958,141.25938,62,80,0
140.81958,141.25938,74,80,0
141.0418,141.25938,71,80,0
141.26402,141.48161,62,80,0
141.26402,141.48161,64,80,0
141.26402,141.48161,71,80,0
141.48624,141.59273,61,80,0
141.48624,141.70384,69,80,0
141.59735,141.70384,62,80,0
141.70847,141.81494,64,80,0
141.81958,141.92606,66,80,0
141.93068,142.03717,64,80,0
141.70847,142.14828,69,80,0
142.0418,142.14828,62,80,0
142.15291,142.25938,61,80,0
142.26402,142.3705,62,80,0
142.15291,142.59273,69,80,0
142.37514,142.59273,64,80,0
142.59735,143.03717,73,80,0
142.59735,143.03717,81,80,0
143.0418,143.48161,81,80,0
143.0418,143.48161,73,80,0
143.48624,143.70383,71,80,0
143.48624,143.70383,80,80,0
143.70847,143.92606,73,80,0
143.70847,143.92606,81,80,0
143.93068,144.14827,76,80,0
144.37512,144.59273,69,80,0
144.15291,144.81494,74,80,0
144.59735,145.03717,68,80,0
144.81956,145.03717,76,80,0
145.0418,145.25938,73,80,0
145.26402,145.48161,81,80,0
145.0418,145.70383,69,80,0
145.48624,145.70383,76,80,0
146.15291,146.59271,71,80,0
146.15291,146.59271,80,80,0
146.59735,146.81494,71,80,0
146.59735,146.81494,80,80,0
146.81956,147.03716,69,80,0
146.81956,147.03716,81,80,0
147.0418,147.25938,73,80,0
147.0418,147.25938,76,80,0
147.264,147.48161,69,80,0
147.264,147.48161,73,80,0
147.48624,147.70383,68,80,0
147.48624,147.70383,76,80,0
147.70847,147.931,68,80,0
147.93573,148.15826,69,81,0
147.70847,148.38554,74,80,0
148.39027,148.61281,76,85,0
148.16301,148.8435,68,83,0
148.61755,148.8435,68,87,0
148.84831,149.07428,69,89,0
148.61755,149.30505,74,87,0
149.30986,149.53581,76,93,0
149.07909,149.76317,68,91,0
149.54062,149.76317,74,95,0
149.7679,149.99043,68,97,0
149.7679,149.99043,76,97,0
149.99516,150.21277,69,99,0
149.99516,150.21277,74,99,0
150.21739,150.43498,76,101,0
150.4396,150.5461,74,103,0
150.21739,150.65721,68,101,0
150.55072,150.65721,76,104,0
150.66183,150.76831,78,105,0
150.77295,150.87943,80,106,0
150.88406,150.99054,81,107,0
150.99516,151.10165,83,108,0
151.10628,151.21275,85,109,0
151.21739,151.32387,86,110,0
151.3285,151.5461,76,110,0
151.3285,151.5461,88,110,0
151.55072,151.76831,71,110,0
151.55072,151.76831,83,110,0
151.77295,152.32387,81,120,0
151.77295,152.32387,69,120,0
152.3285,152.43498,83,110,0
152.4396,152.5461,85,110,0
152.55072,152.6572,86,110,0
152.66183,153.10165,68,110,0
152.66183,153.10165,80,110,0
153.3285,153.5461,68,110,0
153.3285,153.5461,80,110,0
153.55072,154.10165,78,110,0
153.55072,154.10165,66,110,0
154.10628,154.21275,80,110,0
154.21739,154.32387,81,110,0
154.32849,154.43498,83,110,0
154.4396,154.87943,64,110,0
154.4396,154.87943,76,110,0
155.10628,155.32387,52,110,0
155.32849,155.43498,54,110,0
155.4396,155.5461,56,110,0
155.55072,155.6572,57,110,0
155.66183,155.76831,59,110,0
155.77293,155.87943,57,110,0
155.88405,155.99054,56,110,0
155.99516,156.10164,57,110,0
156.10628,156.21275,59,110,0
156.21739,156.32387,57,110,0
156.32849,156.43498,56,110,0
156.4396,156.54608,54,110,0
156.55072,156.6572,56,110,0
156.66183,156.76831,57,110,0
156.77293,156.87943,59,109,0
156.88405,156.99054,61,107,0
156.99516,157.10164,62,105,0
157.10628,157.21275,64,103,0
157.21738,157.32387,66,101,0
157.32849,157.43498,68,99,0
157.4396,157.54608,69,97,0
157.55072,157.6572,68,95,0
157.66183,157.76831,69,93,0
157.77293,157.87943,66,91,0
157.88405,157.99052,62,89,0
157.99516,158.10164,64,87,0
158.10628,158.21275,66,85,0
158.21738,158.32387,59,83,0
158.32849,158.43498,64,81,0
158.4396,158.6572,57,80,0
158.88405,158.99052,61,80,0
158.99516,159.10164,62,80,0
159.10628,159.21275,64,80,0
159.21738,159.32387,66,80,0
158.88405,159.54608,69,80,0
159.32849,159.54608,64,80,0
159.77293,159.87943,61,80,0
159.88405,159.99052,62,80,0
159.99516,160.10164,64,80,0
160.10628,160.21275,66,80,0
159.77293,160.43497,69,80,0
160.21738,160.43497,64,80,0
160.66182,160.76831,62,80,0
160.77293,160.87943,64,80,0
160.88405,160.99052,66,80,0
160.66182,161.10164,68,80,0
160.99516,161.10164,64,80,0
161.10626,161.54608,64,80,0
161.10626,161.54608,76,80,0
161.55072,161.6572,62,80,0
161.66182,161.76831,64,80,0
161.77293,161.87941,66,80,0
161.55072,161.99052,68,80,0
161.88405,161.99052,64,80,0
161.99516,162.21275,69,80,0
161.99516,162.21275,64,80,0
162.4396,162.54608,61,80,0
162.5507,162.6572,62,80,0
162.66182,162.76831,64,80,0
162.77293,162.87941,66,80,0
162.4396,163.10164,69,80,0
162.88405,163.10164,64,80,0
163.32849,163.43497,61,80,0
163.4396,163.54608,62,80,0
163.5507,163.6572,64,80,0
163.66182,163.76831,66,80,0
163.32849,163.99052,69,80,0
163.77293,163.99052,64,80,0
164.21738,164.32385,62,80,0
164.32849,164.43497,64,80,0
164.4396,164.54608,66,80,0
164.21738,164.6572,68,80,0
164.5507,164.6572,64,80,0
164.66182,165.10164,64,80,0
164.66182,165.10164,76,80,0
165.10626,165.21275,64,83,0
165.21738,165.32385,66,83,0
165.32849,165.43497,68,84,0
165.10626,165.54608,69,83,0
165.4396,165.54608,66,85,0
165.5507,165.99052,66,86,0
165.5507,165.99052,73,86,0
165.99515,166.10164,66,89,0
166.10626,166.21274,68,90,0
166.21738,166.32385,69,91,0
165.99515,166.43497,71,89,0
166.32849,166.43497,68,91,0
166.43959,166.87941,80,92,0
166.88405,166.99052,68,95,0
166.99515,167.10164,69,96,0
167.10626,167.21274,71,97,0
166.88405,167.32385,73,95,0
167.21738,167.32385,69,98,0
167.32849,167.7683,69,99,0
167.32849,167.7683,76,99,0
167.77293,167.87941,69,102,0
167.88403,167.99052,71,103,0
167.99515,168.10164,73,103,0
167.77293,168.21274,75,102,0
168.10626,168.21274,71,104,0
168.21738,168.65718,83,105,0
168.66182,169.10164,71,108,0
168.66182,169.10164,76,108,0
168.66182,169.10164,80,108,0
168.66182,169.10164,83,108,0
169.10626,169.65718,83,110,0
169.10626,169.7683,75,110,0
169.10626,169.7683,78,110,0
169.66182,169.7683,85,110,0
169.77293,169.87941,87,110,0
169.88403,169.99052,85,110,0
169.99515,170.54608,83,110,0
169.99515,170.65718,75,110,0
169.99515,170.65718,78,110,0
170.5507,170.65718,85,110,0
170.66182,170.7683,87,110,0
170.77292,170.87941,85,110,0
170.88403,171.11534,75,110,0
170.88403,171.11534,83,110,0
171.12025,171.35156,76,110,0
171.12025,171.35156,85,110,0
171.35648,171.58777,78,110,0
171.35648,171.58777,81,110,0
171.35648,171.58777,87,110,0
171.5927,171.82399,80,110,0
171.5927,171.82399,83,110,0
171.5927,171.82399,88,110,0
171.82892,172.07372,87,110,0
171.82892,172.07372,90,110,0
172.07892,172.32372,88,110,0
172.07892,172.32372,92,110,0
172.32892,172.82372,90,120,0
172.32892,172.82372,93,120,0
173.32892,173.65762,69,80,0
173.66225,173.76874,68,80,0
173.77336,174.10207,66,80,0
174.10669,174.21318,68,80,0
174.2178,174.65762,69,80,0
174.66225,175.10207,68,80,0
175.10669,175.54651,73,80,0
175.55113,175.99095,76,80,0
175.99557,176.4354,68,80,0
175.99557,176.4354,73,80,0
176.44002,177.32428,63,80,0
176.44002,177.32428,66,80,0
176.44002,177.32428,71,80,0
177.32892,178.21317,61,80,0
177.32892,178.21317,64,80,0
177.32892,178.21317,70,80,0
178.2178,178.67453,63,80,0
178.2178,178.67453,71,80,0
178.67934,179.02069,76,70,0
178.67934,179.02069,80,70,0
179.0255,179.13606,71,70,0
179.0255,179.13606,78,70,0
179.14088,179.49588,68,70,0
179.14088,179.49588,76,70,0
179.50087,179.61588,71,70,0
179.50087,179.61588,78,70,0
179.62088,180.09587,76,70,0
179.62088,180.09587,80,70,0
180.10088,180.42958,81,110,0
180.10088,180.5407,75,110,0
180.10088,180.5407,78,110,0
180.4342,180.5407,83,110,0
180.54532,180.76291,76,110,0
180.54532,180.76291,80,110,0
180.76755,180.98514,80,110,0
180.76755,180.98514,88,110,0
180.98976,181.31847,69,110,0
180.98976,181.31847,78,110,0
181.3231,181.42958,71,110,0
181.3231,181.42958,80,110,0
181.4342,181.6518,68,110,0
181.4342,181.6518,76,110,0
181.65643,181.87402,76,80,0
181.87865,182.42958,71,80,0
182.4342,182.5407,73,80,0
182.54532,182.6518,75,80,0
182.65643,182.76291,76,80,0
182.76755,183.20735,73,80,0
182.76755,183.31847,64,80,0
183.32309,183.42958,66,80,0
183.4342,183.5407,68,80,0
183.54532,183.6518,69,80,0
183.65643,184.20735,78,80,0
184.21199,184.31847,80,80,0
184.32309,184.42958,81,80,0
184.4342,184.5407,83,80,0
184.54532,184.98514,80,80,0
184.54532,185.09624,71,80,0
185.10088,185.20735,73,80,0
185.21199,185.31847,75,80,0
185.32309,185.42958,76,80,0
185.4342,185.6518,71,80,0
185.65643,185.98514,71,81,0
185.98976,186.09624,73,84,0
186.10088,186.20735,75,85,0
186.21198,186.31847,76,86,0
186.32309,186.54068,64,87,0
186.32309,186.76291,73,87,0
186.54532,186.87402,64,89,0
186.87865,186.98512,66,91,0
186.98976,187.09624,68,92,0
187.10088,187.20735,69,93,0
187.21198,187.42958,78,94,0
187.21198,187.6518,69,94,0
187.4342,187.76291,78,96,0
187.76753,187.87402,80,99,0
187.87865,187.98512,81,100,0
187.98976,188.09624,83,100,0
188.10088,188.31847,71,80,0
188.10088,188.31847,80,80,0
188.10088,188.31847,83,80,0
188.32309,188.76291,64,84,0
188.32309,188.76291,68,84,0
188.32309,188.76291,71,84,0
188.76753,189.31847,71,92,0
188.76753,189.31847,68,92,0
188.76753,189.31847,64,92,0
189.32309,189.42957,64,102,0
189.32309,189.42957,68,102,0
189.32309,189.42957,71,102,0
189.4342,189.76291,64,104,0
189.4342,189.76291,68,104,0
189.4342,189.76291,71,104,0
189.76753,189.87401,64,110,0
189.76753,189.87401,68,110,0
189.76753,189.87401,71,110,0
189.87865,189.98512,63,110,0
189.87865,189.98512,66,110,0
189.87865,189.98512,71,110,0
189.98976,190.09624,73,110,0
190.10086,190.20735,75,110,0
190.21198,190.31847,76,110,0
190.32309,190.42957,75,110,0
190.4342,190.54068,76,110,0
190.54532,190.6518,78,110,0
190.65642,190.76291,80,110,0
190.76753,190.87401,78,110,0
190.87865,190.98512,80,110,0
190.98976,191.09624,81,110,0
191.10086,191.20735,83,110,0
191.21198,191.31847,81,110,0
191.32309,191.42957,83,110,0
191.4342,191.54068,85,110,0
191.5453,191.6518,87,110,0
191.65642,191.87401,88,110,0
191.87865,192.31845,76,82,0
191.87865,192.31845,80,82,0
191.87865,192.31845,83,82,0
192.32309,192.87401,83,91,0
192.32309,192.87401,80,91,0
192.32309,192.87401,76,91,0
192.87865,192.98512,76,102,0
192.87865,192.98512,80,102,0
192.87865,192.98512,83,102,0
192.98975,193.31845,76,104,0
192.98975,193.31845,80,104,0
192.98975,193.31845,83,104,0
193.32309,193.42957,76,110,0
193.32309,193.42957,80,110,0
193.32309,193.42957,83,110,0
193.4342,193.54068,75,120,0
193.4342,193.54068,78,120,0
193.4342,193.54068,83,120,0
193.5453,193.6518,85,120,0
193.65642,193.7629,87,120,0
193.76753,193.87401,88,120,0
193.87865,193.98512,87,120,0
193.98975,194.09624,88,120,0
194.10086,194.20735,90,120,0
194.21198,194.31845,92,120,0
194.32309,194.42957,90,120,0
194.43419,194.54068,92,120,0
194.5453,194.6518,93,120,0
194.65642,194.7629,95,120,0
194.76753,194.87401,93,120,0
194.87865,194.98512,95,120,0
194.98975,195.09624,97,120,0
195.10086,195.20734,99,120,0
195.21198,195.6518,88,120,0
195.21198,195.6518,92,120,0
195.21198,195.6518,100,120,0
195.87865,196.09624,78,80,0
195.87865,196.09624,85,80,0
195.87865,196.09624,90,80,0
196.10086,196.54068,78,80,0
196.10086,196.54068,85,80,0
196.10086,196.54068,90,80,0
196.76753,196.98512,81,80,0
196.76753,196.98512,93,80,0
196.98975,197.20734,81,80,0
196.98975,197.20734,93,80,0
197.21198,197.42957,75,80,0
197.21198,197.42957,81,80,0
197.21198,197.42957,87,80,0
197.43419,197.65178,75,80,0
197.43419,197.65178,81,80,0
197.43419,197.65178,87,80,0
197.65642,197.87401,76,80,0
197.65642,197.87401,80,80,0
197.65642,197.87401,88,80,0
197.87863,198.31845,78,80,0
197.87863,198.31845,87,80,0
197.87863,198.31845,90,80,0
198.76753,199.20734,59,70,0
198.76753,199.20734,66,70,0
198.76753,199.20734,69,70,0
199.43419,199.65178,59,70,0
199.43419,199.65178,64,70,0
199.43419,199.65178,68,70,0
199.65642,200.09622,59,70,0
199.65642,200.09622,64,70,0
199.65642,200.09622,68,70,0
200.32307,200.54066,61,70,0
200.32307,200.54066,64,70,0
200.32307,200.54066,66,70,0
200.5453,200.7629,61,70,0
200.5453,200.7629,64,70,0
200.5453,200.7629,66,70,0
200.76752,200.98512,63,70,0
200.76752,200.98512,71,70,0
200.98975,201.20734,63,70,0
200.98975,201.20734,71,70,0
201.21196,201.42957,64,70,0
201.43419,201.87401,64,70,0
202.10086,202.31845,76,110,0
202.10086,202.31845,88,110,0
202.32307,202.87401,73,110,0
202.32307,202.87401,76,110,0
202.32307,202.87401,81,110,0
202.32307,202.87401,85,110,0
202.87863,202.9851,86,110,0
202.98975,203.09622,88,110,0
203.10086,203.20734,90,110,0
203.21196,203.65178,71,110,0
203.21196,203.65178,83,110,0
203.87863,204.09622,76,110,0
203.87863,204.09622,88,110,0
204.10086,204.65178,69,110,0
204.10086,204.65178,81,110,0
204.6564,204.7629,83,110,0
204.76752,204.87401,85,110,0
204.87863,204.9851,86,110,0
204.98975,205.42955,68,110,0
204.98975,205.42955,80,110,0
205.6564,205.874,85,80,0
205.87863,205.9851,78,80,0
205.98975,206.09622,80,80,0
206.10085,206.20734,81,80,0
206.21196,206.31845,83,80,0
206.32307,206.42955,81,80,0
206.43419,206.54066,80,80,0
206.54529,206.65178,78,80,0
206.6564,206.7629,80,80,0
206.76752,206.874,81,80,0
206.87863,206.9851,83,80,0
206.98975,207.09622,85,80,0
207.10085,207.20734,86,80,0
207.21196,207.31844,85,80,0
207.32307,207.42955,83,80,0
207.43419,207.54066,81,80,0
207.54529,207.65178,83,80,0
207.6564,207.7687,85,80,0
207.77359,207.8859,86,80,0
207.89078,208.00308,88,80,0
208.00797,208.12027,90,80,0
208.12515,208.24802,92,80,0
208.25336,208.37622,93,80,0
208.38156,208.53448,81,80,0
208.38156,208.53448,85,80,0
208.54114,208.69406,87,80,0
208.70071,209.88821,81,80,0
208.70071,209.88821,90,80,0
209.90071,210.48822,80,80,0
209.90071,210.48822,88,80,0
210.94516,211.16275,83,110,0
210.94516,211.16275,71,110,0
211.16737,211.7183,81,110,0
211.16737,211.7183,69,110,0
211.72293,211.82942,83,110,0
211.83405,211.94052,85,110,0
211.94516,212.05164,86,110,0
212.05627,212.27386,68,110,0
212.05627,212.27386,80,110,0
212.72293,212.94052,68,110,0
212.72293,212.94052,80,110,0
212.94516,213.49608,78,110,0
212.94516,213.49608,66,110,0
213.50072,213.6072,80,110,0
213.61182,213.7183,81,110,0
213.72293,213.8294,83,110,0
213.83405,214.05164,64,110,0
213.83405,214.05164,76,110,0
214.05626,214.49608,76,80,0
214.05626,214.49608,68,80,0
214.50072,214.7183,66,80,0
214.50072,214.94052,62,80,0
214.50072,214.94052,74,80,0
214.72293,214.94052,71,80,0
214.94516,215.16275,62,80,0
214.94516,215.16275,64,80,0
214.94516,215.16275,71,80,0
215.16737,215.27386,61,80,0
215.16737,215.38496,69,80,0
215.27849,215.38496,62,80,0
215.3896,215.49608,64,80,0
215.5007,215.6072,66,80,0
215.61182,215.7183,64,80,0
215.3896,215.8294,69,80,0
215.72293,215.8294,62,80,0
215.83405,215.94052,61,80,0
215.94516,216.05164,62,80,0
215.83405,216.27385,69,80,0
216.05626,216.27385,64,80,0
216.27849,216.7183,73,80,0
216.27849,216.7183,81,80,0
216.72293,217.16275,81,80,0
216.72293,217.16275,73,80,0
217.16737,217.38496,71,80,0
217.16737,217.38496,80,80,0
217.3896,217.6072,73,80,0
217.3896,217.6072,81,80,0
217.61182,217.8294,76,80,0
218.05626,218.27385,69,80,0
217.83405,218.49608,74,80,0
218.27849,218.71829,68,80,0
218.5007,218.71829,76,80,0
218.72293,218.94052,73,80,0
218.94514,219.16273,81,80,0
218.72293,219.38496,69,80,0
219.16737,219.38496,76,80,0
219.83403,220.27385,71,80,0
219.83403,220.27385,80,80,0
220.27849,220.49608,71,80,0
220.27849,220.49608,80,80,0
220.5007,220.71829,69,80,0
220.5007,220.71829,81,80,0
220.72293,220.94052,73,80,0
220.72293,220.94052,76,80,0
220.94514,221.16273,69,80,0
220.94514,221.16273,73,80,0
221.16737,221.38496,68,80,0
221.16737,221.38496,76,80,0
221.38959,221.60718,68,80,0
221.61182,221.8294,69,81,0
221.38959,222.05164,74,80,0
222.05626,222.27385,76,85,0
221.83403,222.49608,68,83,0
222.27847,222.49608,68,87,0
222.5007,222.71829,69,89,0
222.27847,222.94052,74,87,0
222.94514,223.16273,76,93,0
222.72293,223.38496,68,91,0
223.16737,223.38496,74,95,0
223.38959,223.60718,68,97,0
223.38959,223.60718,76,97,0
223.61182,223.8294,69,99,0
223.61182,223.8294,74,99,0
223.83403,224.05162,76,101,0
224.05626,224.16273,74,103,0
223.83403,224.27385,68,101,0
224.16737,224.27385,76,104,0
224.27847,224.38496,78,105,0
224.38959,224.49606,80,106,0
224.5007,224.60718,81,107,0
224.61182,224.71829,83,108,0
224.72292,224.8294,85,109,0
224.83403,224.94052,86,110,0
224.94514,225.16273,76,110,0
224.94514,225.16273,88,110,0
225.16736,225.38496,71,110,0
225.16736,225.38496,83,110,0
225.38959,225.9405,81,120,0
225.38959,225.9405,69,120,0
225.94514,226.05162,83,110,0
226.05626,226.16273,85,110,0
226.16736,226.27385,86,110,0
226.27847,226.71829,68,110,0
226.27847,226.71829,80,110,0
226.94514,227.16273,68,110,0
226.94514,227.16273,80,110,0
227.16736,227.71829,78,110,0
227.16736,227.71829,66,110,0
227.72292,227.8294,80,110,0
227.83403,227.9405,81,110,0
227.94514,228.05162,83,110,0
228.05626,228.49606,64,110,0
228.05626,228.49606,76,110,0
228.72292,228.9405,52,110,0
228.94514,229.05162,54,110,0
229.05624,229.16273,56,110,0
229.16736,229.27385,57,110,0
229.27847,229.38495,59,110,0
229.38959,229.49606,57,110,0
229.5007,229.60718,56,110,0
229.6118,229.71829,57,110,0
229.72292,229.82939,59,110,0
229.83403,229.9405,57,110,0
229.94514,230.05162,56,110,0
230.05624,230.16273,54,110,0
230.16736,230.27385,56,110,0
230.27847,230.38495,57,110,0
230.38959,230.49606,59,109,0
230.50069,230.60718,61,107,0
230.6118,230.71829,62,105,0
230.72292,230.82939,64,103,0
230.83403,230.9405,66,101,0
230.94514,231.05162,68,99,0
231.05624,231.16273,69,97,0
231.16736,231.27383,68,95,0
231.27847,231.38495,69,93,0
231.38959,231.49606,66,91,0
231.50069,231.60718,62,89,0
231.6118,231.71829,64,87,0
231.72292,231.82939,66,85,0
231.83403,231.9405,59,83,0
231.94513,232.05162,64,81,0
232.05624,232.27383,57,80,0
232.50069,232.60718,61,80,0
232.6118,232.71828,62,80,0
232.72292,232.82939,64,80,0
232.83403,232.9405,66,80,0
232.50069,233.16273,69,80,0
232.94513,233.16273,64,80,0
233.38957,233.49606,61,80,0
233.50069,233.60718,62,80,0
233.6118,233.71828,64,80,0
233.72292,233.82939,66,80,0
233.38957,234.05162,69,80,0
233.83403,234.05162,64,80,0
234.27847,234.38495,62,80,0
234.38957,234.49606,64,80,0
234.50069,234.60718,66,80,0
234.27847,234.71828,68,80,0
234.6118,234.71828,64,80,0
234.72292,235.16272,64,80,0
234.72292,235.16272,76,80,0
235.16736,235.27383,62,80,0
235.27847,235.38495,64,80,0
235.38957,235.49606,66,80,0
235.16736,235.60718,68,80,0
235.50069,235.60718,64,80,0
235.6118,235.82939,69,80,0
235.6118,235.82939,64,80,0
236.05624,236.16272,61,80,0
236.16736,236.27383,62,80,0
236.27847,236.38495,64,80,0
236.38957,236.49606,66,80,0
236.05624,236.71828,69,80,0
236.50069,236.71828,64,80,0
236.94513,237.05162,61,80,0
237.05624,237.16272,62,80,0
237.16736,237.27383,64,80,0
237.27846,237.38495,66,80,0
236.94513,237.60716,69,80,0
237.38957,237.60716,64,80,0
237.83401,237.9405,62,80,0
237.94513,238.0516,64,80,0
238.05624,238.16272,66,80,0
237.83401,238.27383,68,80,0
238.16736,238.27383,64,80,0
238.27846,238.71828,64,80,0
238.27846,238.71828,76,80,0
238.7229,238.82939,64,83,0
238.83401,238.9405,66,83,0
238.94513,239.0516,68,84,0
238.7229,239.16272,69,83,0
239.05624,239.16272,66,85,0
239.16736,239.60716,66,86,0
239.16736,239.60716,73,86,0
239.6118,239.71828,66,89,0
239.7229,239.82939,68,90,0
239.83401,239.9405,69,91,0
239.6118,240.0516,71,89,0
239.94513,240.0516,68,91,0
240.05624,240.49605,80,92,0
240.50069,240.60716,68,95,0
240.6118,240.71828,69,96,0
240.7229,240.82939,71,97,0
240.50069,240.94049,73,95,0
240.83401,240.94049,69,98,0
240.94513,241.38495,69,99,0
240.94513,241.38495,76,99,0
241.38957,241.49605,69,102,0
241.50069,241.60716,71,103,0
241.6118,241.71828,73,103,0
241.38957,241.82939,75,102,0
241.7229,241.82939,71,104,0
241.83401,242.27383,83,105,0
242.27846,242.71828,71,108,0
242.27846,242.71828,76,108,0
242.27846,242.71828,80,108,0
242.27846,242.71828,83,108,0
242.7229,243.27383,83,110,0
242.7229,243.38493,75,110,0
242.7229,243.38493,78,110,0
243.27846,243.38493,85,110,0
243.38957,243.49605,87,110,0
243.50069,243.60716,85,110,0
243.61179,244.16272,83,110,0
243.61179,244.27383,75,110,0
243.61179,244.27383,78,110,0
244.16734,244.27383,85,110,0
244.27846,244.38493,87,110,0
244.38957,244.49605,85,110,0
244.50069,244.73198,75,110,0
244.50069,244.73198,83,110,0
244.7369,244.9682,76,110,0
244.7369,244.9682,85,110,0
244.97311,245.20442,78,110,0
244.97311,245.20442,81,110,0
244.97311,245.20442,87,110,0
245.20934,245.44064,80,110,0
245.20934,245.44064,83,110,0
245.20934,245.44064,88,110,0
245.44556,245.69035,87,110,0
245.44556,245.69035,90,110,0
245.69556,245.94035,88,110,0
245.69556,245.94035,92,110,0
245.94556,246.44035,90,120,0
245.94556,246.44035,93,120,0
246.94556,247.27426,69,80,0
247.2789,247.38538,68,80,0
247.39,247.7187,66,80,0
247.72334,247.82982,68,80,0
247.83444,248.27426,69,80,0
248.27888,248.7187,68,80,0
248.72334,249.16315,73,80,0
249.16779,249.60759,76,80,0
249.61223,250.05203,68,80,0
249.61223,250.05203,73,80,0
250.05667,250.94093,63,80,0
250.05667,250.94093,66,80,0
250.05667,250.94093,71,80,0
250.94556,251.82982,61,80,0
250.94556,251.82982,64,80,0
250.94556,251.82982,70,80,0
251.83444,252.27426,63,80,0
251.83444,252.27426,71,80,0
252.27888,252.62024,76,70,0
252.27888,252.62024,80,70,0
252.62505,252.73561,71,70,0
252.62505,252.73561,78,70,0
252.74043,253.09543,68,70,0
252.74043,253.09543,76,70,0
253.10043,253.21542,71,70,0
253.10043,253.21542,78,70,0
253.22043,253.69542,76,70,0
253.22043,253.69542,80,70,0
253.70042,254.02913,81,110,0
253.70042,254.14024,75,110,0
253.70042,254.14024,78,110,0
254.03375,254.14024,83,110,0
254.14487,254.36246,76,110,0
254.14487,254.36246,80,110,0
254.3671,254.58469,80,110,0
254.3671,254.58469,88,110,0
254.58931,254.91801,69,110,0
254.58931,254.91801,78,110,0
254.92265,255.02913,71,110,0
254.92265,255.02913,80,110,0
255.03375,255.25134,68,110,0
255.03375,255.25134,76,110,0
255.25598,255.47357,76,80,0
255.4782,256.0291,71,80,0
256.03375,256.14023,73,80,0
256.14487,256.25134,75,80,0
256.25598,256.36246,76,80,0
256.3671,256.80692,73,80,0
256.3671,256.91803,64,80,0
256.92264,257.0291,66,80,0
257.03375,257.14023,68,80,0
257.14487,257.25134,69,80,0
257.25598,257.80692,78,80,0
257.81152,257.918,80,80,0
257.92264,258.0291,81,80,0
258.03375,258.14023,83,80,0
258.14487,258.5847,80,80,0
258.14487,258.6958,71,80,0
258.7004,258.80692,73,80,0
258.81152,258.918,75,80,0
258.92264,259.0291,76,80,0
259.03375,259.25134,71,80,0
259.25598,259.5847,71,81,0
259.5893,259.6958,73,84,0
259.7004,259.80692,75,85,0
259.81152,259.918,76,86,0
259.92264,260.14023,64,87,0
259.92264,260.36246,73,87,0
260.14487,260.47357,64,89,0
260.4782,260.5847,66,91,0
260.5893,260.6958,68,92,0
260.7004,260.80692,69,93,0
260.81152,261.0291,78,94,0
260.81152,261.25134,69,94,0
261.03375,261.36246,78,96,0
261.3671,261.47357,80,99,0
261.4782,261.5847,81,100,0
261.5893,261.6958,83,100,0
261.7004,261.918,71,80,0
261.7004,261.918,80,80,0
261.7004,261.918,83,80,0
261.92264,262.36246,64,84,0
261.92264,262.36246,68,84,0
261.92264,262.36246,71,84,0
262.3671,262.918,71,92,0
262.3671,262.918,68,92,0
262.3671,262.918,64,92,0
262.92264,263.0291,64,102,0
262.92264,263.0291,68,102,0
262.92264,263.0291,71,102,0
263.03375,263.36246,64,104,0
263.03375,263.36246,68,104,0
263.03375,263.36246,71,104,0
263.3671,263.47357,64,110,0
263.3671,263.47357,68,110,0
263.3671,263.47357,71,110,0
263.47818,263.5847,63,110,0
263.47818,263.5847,66,110,0
263.47818,263.5847,71,110,0
263.5893,263.6958,73,110,0
263.7004,263.8069,75,110,0
263.81152,263.918,76,110,0
263.92264,264.0291,75,110,0
264.03375,264.14023,76,110,0
264.14487,264.25134,78,110,0
264.25598,264.36246,80,110,0
264.3671,264.47357,78,110,0
264.47818,264.5847,80,110,0
264.5893,264.69577,81,110,0
264.7004,264.8069,83,110,0
264.81152,264.918,81,110,0
264.92264,265.0291,83,110,0
265.03375,265.14023,85,110,0
265.14487,265.25134,87,110,0
265.25598,265.47357,88,110,0
265.47818,265.918,76,82,0
265.47818,265.918,80,82,0
265.47818,265.918,83,82,0
265.92264,266.47357,83,91,0
265.92264,266.47357,80,91,0
265.92264,266.47357,76,91,0
266.47818,266.5847,76,102,0
266.47818,266.5847,80,102,0
266.47818,266.5847,83,102,0
266.5893,266.918,76,104,0
266.5893,266.918,80,104,0
266.5893,266.918,83,104,0
266.92264,267.0291,76,110,0
266.92264,267.0291,80,110,0
266.92264,267.0291,83,110,0
267.03375,267.14023,75,120,0
267.03375,267.14023,78,120,0
267.03375,267.14023,83,120,0
267.14487,267.25134,85,120,0
267.25598,267.36246,87,120,0
267.36707,267.47357,88,120,0
267.47818,267.5847,87,120,0
267.5893,267.69577,88,120,0
267.7004,267.8069,90,120,0
267.81152,267.918,92,120,0
267.92264,268.0291,90,120,0
268.03375,268.14023,92,120,0
268.14487,268.25134,93,120,0
268.25598,268.36246,95,120,0
268.36707,268.47357,93,120,0
268.47818,268.58466,95,120,0
268.5893,268.69577,97,120,0
268.7004,268.8069,99,120,0
268.81152,269.25134,88,120,0
268.81152,269.25134,92,120,0
268.81152,269.25134,100,120,0
269.47818,269.69577,78,80,0
269.47818,269.69577,85,80,0
269.47818,269.69577,90,80,0
269.7004,270.14023,78,80,0
269.7004,270.14023,85,80,0
269.7004,270.14023,90,80,0
270.36707,270.58466,81,80,0
270.36707,270.58466,93,80,0
270.5893,270.8069,81,80,0
270.5893,270.8069,93,80,0
270.81152,271.0291,75,80,0
270.81152,271.0291,81,80,0
270.81152,271.0291,87,80,0
271.03375,271.25134,75,80,0
271.03375,271.25134,81,80,0
271.03375,271.25134,87,80,0
271.25595,271.47354,76,80,0
271.25595,271.47354,80,80,0
271.25595,271.47354,88,80,0
271.47818,271.918,78,80,0
271.47818,271.918,87,80,0
271.47818,271.918,90,80,0
272.36707,272.8069,59,70,0
272.36707,272.8069,66,70,0
272.36707,272.8069,69,70,0
273.03375,273.25134,59,70,0
273.03375,273.25134,64,70,0
273.03375,273.25134,68,70,0
273.25595,273.69577,59,70,0
273.25595,273.69577,64,70,0
273.25595,273.69577,68,70,0
273.92264,274.14023,61,70,0
273.92264,274.14023,64,70,0
273.92264,274.14023,66,70,0
274.14484,274.36246,61,70,0
274.14484,274.36246,64,70,0
274.14484,274.36246,66,70,0
274.36707,274.58466,63,70,0
274.36707,274.58466,71,70,0
274.5893,274.8069,63,70,0
274.5893,274.8069,71,70,0
274.81152,275.0291,64,70,0
275.03375,275.47354,64,70,0
275.71442,275.9457,71,70,0
275.95062,276.8906,59,70,0
275.95062,276.8906,64,70,0
275.95062,276.8906,68,70,0
276.8955,277.83545,64,70,0
276.8955,277.83545,69,70,0
277.8404,278.78033,59,70,0
277.8404,278.78033,64,70,0
277.8404,278.78033,71,70,0
278.78525,279.72522,61,70,0
278.78525,279.72522,64,70,0
278.78525,279.72522,73,70,0
279.73013,280.70068,62,70,0
279.73013,280.70068,69,70,0
279.73013,280.70068,74,70,0
280.70575,281.70053,64,70,0
280.70575,281.70053,69,70,0
280.70575,281.70053,76,70,0
281.70575,281.96118,66,70,0
281.70575,281.96118,69,70,0
281.70575,281.96118,78,70,0
281.9666,282.22205,73,70,0
281.9666,282.22205,76,70,0
282.22748,282.49454,71,70,0
282.22748,282.49454,74,70,0
282.5002,282.8266,69,70,0
282.5002,282.8266,73,70,0
282.83356,284.15994,69,70,0
282.83356,284.15994,73,70,0
284.41687,286.3127,64,70,0
284.5002,286.3127,69,70,0
284.58356,286.3127,72,70,0
286.33356,286.55115,64,120,0
286.33356,286.55115,76,120,0
286.55576,286.99557,60,120,0
286.55576,286.99557,72,120,0
294.33353,294.55112,55,80,0
294.55576,295.1067,52,80,0
295.11133,295.2178,53,80,0
295.2224,295.32892,55,80,0
295.33353,295.44003,57,80,0
295.44464,295.88446,50,80,0
296.11133,296.32892,53,80,0
296.33353,296.88446,50,80,0
296.8891,296.99557,52,80,0
297.0002,297.1067,53,80,0
297.11133,297.2178,55,80,0
297.2224,297.44,48,80,0
297.44464,297.66223,58,80,0
297.66687,297.88446,58,80,0
297.8891,298.1067,57,80,0
298.11133,298.32892,58,80,0
298.33353,298.55112,57,80,0
298.55576,298.64835,55,80,0
298.6113,298.70392,57,80,0
298.66687,298.77335,55,80,0
298.7224,298.81964,57,80,0
298.77798,298.8752,55,80,0
298.83353,298.9354,57,80,0
298.8891,298.9817,53,80,0
298.94464,298.99557,55,80,0
299.2224,299.44,57,80,0
299.44464,299.66223,57,80,0
299.66687,299.88446,55,80,0
299.8891,300.1067,57,80,0
300.1113,300.32892,55,80,0
300.55576,300.77335,69,80,0
300.77798,301.3289,65,80,0
301.33353,301.44,67,80,0
301.44464,301.55112,69,80,0
301.55576,301.66223,70,80,0
301.66687,302.1067,64,80,0
302.33353,302.55112,67,80,0
302.55576,303.1067,64,80,0
303.1113,303.2178,65,80,0
303.2224,303.3289,67,80,0
303.33353,303.44,69,80,0
303.44464,303.66223,62,80,0
303.66687,303.88446,74,80,0
303.8891,304.1067,74,80,0
304.1113,304.3289,72,80,0
304.33353,304.55112,74,80,0
304.55576,304.77335,72,80,0
304.77798,304.87518,71,80,0
304.83353,304.9354,72,80,0
304.8891,304.99557,71,80,0
304.94464,305.03723,72,80,0
305.00018,305.09277,71,80,0
305.05576,305.15298,72,80,0
305.1113,305.2039,69,80,0
305.16687,305.21777,71,80,0
305.44464,305.66223,72,80,0
305.66687,305.88446,72,80,0
305.88907,306.1067,71,80,0
306.1113,306.3289,72,80,0
306.33353,306.55112,71,80,0
306.55576,306.6576,69,80,0
306.6113,306.71777,71,80,0
306.66687,306.76407,69,80,0
306.7224,306.81964,71,80,0
306.77798,306.87057,69,80,0
306.83353,306.94,71,80,0
306.88907,306.9863,68,80,0
306.94464,306.99557,69,80,0
307.00018,307.21777,71,80,0
307.2224,307.44,69,80,0
307.44464,307.49557,68,80,0
307.50018,307.55112,69,80,0
307.55576,307.60666,68,80,0
307.6113,307.66223,69,80,0
307.66687,307.71777,68,80,0
307.7224,307.77335,69,80,0
307.77798,307.8289,66,80,0
307.66687,307.88446,76,80,0
307.83353,307.88446,68,80,0
307.88907,307.99557,69,80,0
308.00018,308.10666,68,81,0
308.1113,308.21777,66,82,0
308.2224,308.3289,64,84,0
307.88907,308.44,72,80,0
308.44464,308.55112,74,86,0
308.55576,308.66223,76,88,0
308.66687,308.77335,77,89,0
308.33353,308.88446,69,85,0
308.88907,308.99557,68,92,0
309.00018,309.10666,66,93,0
308.77795,309.21777,71,90,0
309.1113,309.21777,64,94,0
309.44464,309.66223,74,98,0
309.2224,309.77335,68,96,0
309.77795,309.88446,68,102,0
309.88907,309.99557,66,104,0
310.00018,310.10666,64,105,0
309.66687,310.21777,71,101,0
310.1113,310.3289,68,106,0
310.2224,310.3289,72,108,0
310.33353,310.44,74,109,0
310.33353,310.55112,64,109,0
310.44464,310.55112,76,110,0
310.55576,310.77335,69,110,0
310.55576,310.99554,64,110,0
310.77795,310.99554,81,110,0
311.00018,311.21777,81,110,0
311.2224,311.44,79,110,0
311.00018,311.66223,69,110,0
311.44464,311.66223,81,110,0
311.66687,311.88446,71,110,0
311.66687,311.88446,79,110,0
311.88907,311.98166,77,110,0
311.94464,312.04184,79,110,0
312.00018,312.09277,77,110,0
311.88907,312.10666,71,110,0
312.05576,312.1576,79,110,0
312.1113,312.2039,77,110,0
312.16684,312.25482,79,110,0
312.2224,312.315,76,110,0
312.1113,312.3289,69,110,0
312.27795,312.3289,77,110,0
312.33353,312.55112,71,110,0
312.55576,312.77335,79,110,0
312.55576,312.77335,69,110,0
312.77795,312.99554,79,110,0
312.77795,313.21777,67,110,0
313.00018,313.21777,77,110,0
313.2224,313.44,79,110,0
313.44464,313.66223,69,110,0
313.44464,313.66223,77,110,0
313.66684,313.88446,69,110,0
313.66684,313.88446,76,110,0
313.88907,313.99554,74,110,0
313.88907,314.10666,67,110,0
314.00018,314.10666,72,110,0
314.1113,314.3289,69,110,0
314.1113,314.3289,79,110,0
314.33353,314.55112,72,110,0
314.33353,314.77335,77,110,0
314.55576,314.77335,74,110,0
314.77795,314.99554,67,110,0
314.77795,315.21777,76,110,0
315.00018,315.44,69,110,0
315.2224,315.66223,74,110,0
315.44464,315.66223,68,110,0
315.66684,315.88443,67,110,0
315.66684,315.88443,72,110,0
315.88907,315.99554,72,110,0
316.00018,316.10666,71,110,0
316.1113,316.21777,69,110,0
315.88907,316.3289,65,110,0
316.2224,316.3289,71,110,0
316.33353,316.44,72,110,0
316.44464,316.55112,71,110,0
316.55573,316.66223,69,110,0
316.33353,316.77335,67,110,0
316.66684,316.77335,67,110,0
316.88907,316.99554,64,110,0
317.00018,317.10666,62,110,0
317.1113,317.21777,60,110,0
316.77795,317.3289,72,110,0
317.33353,317.44,71,110,0
317.44464,317.55112,69,110,0
317.55573,317.66223,67,110,0
317.2224,317.77332,65,110,0
317.77795,317.88443,62,110,0
317.88907,317.99554,60,110,0
318.00018,318.10666,58,110,0
317.66684,318.21777,70,110,0
318.2224,318.3289,69,110,0
318.33353,318.44,67,110,0
318.1113,318.55112,65,110,0
318.44464,318.55112,65,110,0
318.66684,318.77332,64,110,0
318.77795,318.88443,62,110,0
318.88907,318.99554,60,110,0
318.55573,319.10666,70,110,0
319.00018,319.21777,64,110,0
319.1113,319.21777,69,110,0
319.2224,319.3289,67,110,0
319.2224,319.44,62,110,0
319.33353,319.44,65,110,0
319.4446,319.66223,60,110,0
319.4446,319.66223,64,110,0
319.66684,319.88443,65,110,0
319.66684,319.88443,72,110,0
319.88907,320.10666,62,110,0
319.88907,320.10666,72,110,0
320.1113,320.3289,64,110,0
320.1113,320.3289,70,110,0
320.33353,320.43536,61,110,0
320.38907,320.49554,62,110,0
320.4446,320.53723,61,110,0
320.33353,320.55112,70,110,0
320.50018,320.60202,62,110,0
320.55573,320.63443,61,110,0
320.6113,320.71777,62,110,0
320.66684,320.7409,59,110,0
320.55573,320.77332,69,110,0
320.7224,320.77332,61,110,0
320.77795,320.99554,62,110,0
321.00018,321.10666,64,110,0
321.1113,321.21777,65,110,0
320.77795,321.44,69,110,0
321.4446,321.6622,67,110,0
321.2224,321.88443,62,110,0
321.66684,321.88443,67,110,0
321.88907,322.10666,60,110,0
321.88907,322.10666,65,110,0
322.1113,322.3289,65,110,0
322.1113,322.55112,58,110,0
322.3335,322.55112,64,110,0
322.55573,322.77332,64,110,0
322.77795,322.88443,62,110,0
322.55573,322.99554,57,110,0
322.88907,322.99554,60,110,0
323.2224,323.44,69,110,0
323.4446,323.6622,69,110,0
323.00018,323.88443,72,110,0
323.66684,323.88443,67,110,0
323.88907,324.10666,67,110,0
324.1113,324.3289,66,110,0
324.3335,324.5511,66,110,0
324.55573,324.6622,64,110,0
323.88907,324.77332,74,110,0
324.66684,324.77332,62,110,0
324.77795,324.99554,74,110,0
324.77795,325.21777,67,110,0
325.00018,325.21777,79,110,0
325.2224,325.44,72,110,0
325.2224,325.44,79,110,0
325.4446,325.6622,74,110,0
325.4446,325.6622,77,110,0
325.66684,325.88443,69,110,0
325.66684,325.88443,77,110,0
325.88907,326.10666,67,110,0
325.88907,326.10666,76,110,0
326.1113,326.3289,67,110,0
326.1113,326.3289,76,110,0
326.3335,326.44,65,110,0
326.3335,326.44,74,110,0
326.4446,326.5511,64,110,0
326.4446,326.5511,72,110,0
326.55573,326.77332,72,110,0
326.55573,326.77332,77,110,0
326.77795,326.88443,72,110,0
326.77795,326.99554,67,110,0
326.88907,326.99554,70,110,0
327.00018,327.21777,65,110,0
327.00018,327.21777,69,110,0
327.22238,327.3289,67,110,0
327.22238,327.44,62,110,0
327.3335,327.44,65,110,0
327.4446,327.5511,64,110,0
327.4446,327.6622,70,110,0
327.55573,327.6622,62,110,0
327.66684,327.77332,61,109,0
327.66684,327.88443,70,109,0
327.77795,327.88443,62,108,0
327.88907,328.10666,61,107,0
327.88907,328.10666,64,107,0
328.1113,328.43997,69,106,0
328.4446,328.5511,68,103,0
328.55573,328.6622,66,103,0
328.66684,328.77332,64,102,0
328.77795,328.99554,68,101,0
329.22238,329.3289,57,98,0
329.3335,329.43997,55,97,0
329.4446,329.5511,54,96,0
329.55573,329.6622,52,96,0
329.66684,329.88443,55,95,0
330.11127,330.21777,67,92,0
330.22238,330.3289,66,91,0
330.3335,330.43997,64,90,0
330.4446,330.5511,62,89,0
330.55573,330.77332,66,88,0
331.66684,331.88443,59,81,0
331.66684,331.88443,67,81,0
331.88907,331.99554,60,80,0
332.00018,332.10666,59,80,0
332.11127,332.21777,57,80,0
332.22238,332.32886,55,80,0
331.88907,332.43997,64,80,0
332.4446,332.5511,65,80,0
332.55573,332.6622,67,80,0
332.66684,332.77332,69,80,0
332.3335,332.88443,60,80,0
332.77795,333.21777,62,80,0
333.4446,333.6622,65,80,0
333.66684,334.21777,62,80,0
334.22238,334.32886,64,80,0
334.3335,334.43997,65,80,0
334.4446,334.5511,67,80,0
334.55573,334.77332,64,80,0
334.77795,334.99554,76,80,0
335.00015,335.21774,76,80,0
335.22238,335.43997,74,80,0
335.4446,335.6622,76,80,0
335.66684,335.88443,74,80,0
335.88904,335.98627,72,80,0
335.9446,336.04645,74,80,0
336.00015,336.09738,72,80,0
336.05573,336.15295,74,80,0
336.11127,336.21313,72,80,0
336.16684,336.26404,74,80,0
336.22238,336.30573,71,80,0
336.27795,336.32886,72,80,0
336.55573,336.77332,74,80,0
336.77795,336.99554,74,80,0
337.00015,337.21774,72,80,0
337.22238,337.43997,74,80,0
337.4446,337.6622,72,80,0
337.66684,337.75943,71,80,0
337.72238,337.8196,72,80,0
337.77795,337.87054,71,80,0
337.8335,337.92145,72,80,0
337.88904,337.98163,71,80,0
337.9446,338.04184,72,80,0
338.00015,338.09738,69,80,0
338.05573,338.10663,67,80,0
338.11127,338.32886,72,80,0
338.3335,338.77332,72,80,0
338.77795,338.99554,72,80,0
339.00015,339.21774,72,80,0
339.22238,339.43997,79,88,0
339.22238,339.43997,71,88,0
339.4446,339.6622,79,97,0
339.4446,339.6622,72,97,0
339.66684,339.77332,77,106,0
339.66684,339.88443,67,106,0
339.77792,339.88443,76,110,0
339.88904,340.10663,81,110,0
339.88904,340.32886,69,110,0
340.11127,340.32886,72,110,0
340.3335,340.43997,69,110,0
340.4446,340.5511,71,110,0
340.55573,340.6622,72,110,0
340.66684,340.77332,74,110,0
340.77792,341.21774,71,110,0
341.00015,341.21774,62,110,0
341.22238,341.32886,59,110,0
341.3335,341.43997,60,110,0
341.4446,341.5511,62,110,0
341.55573,341.6622,64,110,0
341.66684,342.10663,60,110,0
341.88904,342.10663,76,110,0
342.11127,342.21774,72,110,0
342.22238,342.32886,74,110,0
342.3335,342.43997,76,110,0
342.4446,342.5511,77,110,0
342.77792,342.88443,67,110,0
342.55573,342.9955,74,110,0
343.00015,343.10663,62,110,0
343.11127,343.21774,64,110,0
343.22238,343.32886,65,110,0
343.3335,343.43997,67,110,0
343.4446,343.6622,76,110,0
343.4446,343.6622,84,110,0
343.88904,344.10663,64,110,0
343.88904,344.10663,72,110,0
344.3335,344.5511,62,110,0
344.3335,344.5511,71,110,0
344.77792,344.9955,74,110,0
344.77792,344.9955,83,110,0
345.22238,345.43997,74,110,0
345.22238,345.43997,86,110,0
345.6668,345.8844,65,110,0
345.6668,345.8844,74,110,0
346.11127,346.32886,64,110,0
346.11127,346.32886,73,110,0
346.5557,346.9955,76,110,0
346.5557,347.43997,85,110,0
347.00015,347.8844,75,110,0
347.4446,348.32886,84,110,0
347.88904,348.7733,74,110,0
348.3335,349.21774,83,110,0
348.77792,349.6622,72,110,0
349.22238,349.8844,81,110,0
349.6668,350.10663,74,110,0
349.88904,350.10663,80,110,0
350.11127,350.32886,76,110,0
350.11127,350.32886,81,110,0
350.3335,350.43997,64,110,0
350.3335,350.5511,69,110,0
350.44458,350.5511,66,110,0
350.5557,350.6622,69,110,0
350.5557,350.7733,63,110,0
350.6668,350.7733,67,110,0
350.77792,350.8844,66,110,0
350.88904,350.9955,64,110,0
351.00015,351.10663,53,110,0
351.00015,351.21774,69,120,0
351.11127,351.21774,55,110,0
351.22238,351.32886,57,110,0
351.3335,351.43997,59,110,0
351.44458,351.5511,57,110,0
351.5557,351.66217,59,110,0
351.6668,351.7733,60,110,0
351.77792,351.8844,59,110,0
351.88904,351.9955,60,110,0
352.00015,352.10663,63,110,0
352.11127,352.21774,64,110,0
352.22238,352.32886,66,110,0
352.3335,352.43997,79,110,0
352.44458,352.5511,78,110,0
352.5557,352.66217,76,110,0
352.3335,352.7733,67,110,0
352.6668,352.7733,75,110,0
352.77792,352.8844,76,110,0
352.88904,352.9955,74,110,0
353.00015,353.10663,72,110,0
353.11127,353.21774,71,110,0
353.22238,353.32886,72,110,0
353.33347,353.43997,71,110,0
353.44458,353.5511,69,110,0
353.5557,353.66217,67,110,0
353.6668,353.7733,69,110,0
353.77792,353.8844,67,110,0
353.88904,353.9955,66,110,0
354.00015,354.10663,64,110,0
354.11127,354.21774,72,110,0
354.22238,354.32886,71,110,0
354.33347,354.43997,69,110,0
354.44458,354.5511,67,110,0
354.5557,354.66217,57,110,0
354.5557,354.7733,72,120,0
354.6668,354.7733,59,110,0
354.77792,354.8844,60,110,0
354.88904,354.9955,62,110,0
355.00015,355.10663,60,110,0
355.11127,355.21774,62,110,0
355.22238,355.32886,64,110,0
355.33347,355.43997,66,110,0
355.44458,355.55106,64,110,0
355.5557,355.66217,66,110,0
355.6668,355.7733,67,110,0
355.77792,355.8844,69,110,0
355.88904,355.9955,83,110,0
356.00015,356.10663,81,110,0
356.11127,356.21774,79,110,0
355.88904,356.32886,71,110,0
356.22235,356.32886,78,110,0
356.33347,356.43997,79,110,0
356.44458,356.55106,78,110,0
356.5557,356.66217,76,110,0
356.6668,356.7733,74,110,0
356.77792,356.8844,76,110,0
356.88904,356.9955,74,110,0
357.00015,357.10663,72,110,0
357.11127,357.21774,71,110,0
357.33347,357.43997,74,110,0
357.44458,357.55106,72,110,0
357.5557,357.66217,71,110,0
357.22235,357.7733,79,121,0
357.77792,357.8844,81,110,0
357.88904,357.9955,83,110,0
358.00015,358.10663,84,110,0
357.6668,358.21774,72,110,0
358.22235,358.32886,72,110,0
358.33347,358.43994,71,110,0
358.44458,358.55106,69,110,0
358.11127,358.66217,78,122,0
358.6668,358.7733,79,110,0
358.77792,358.8844,81,110,0
358.88904,358.9955,83,110,0
358.5557,359.10663,71,110,0
359.11127,359.21774,71,110,0
359.22235,359.32886,69,110,0
359.33347,359.43994,67,110,0
359.00015,359.55106,76,121,0
359.5557,359.66217,78,110,0
359.6668,359.7733,79,110,0
359.44458,359.8844,69,110,0
359.77792,359.8844,81,110,0
359.88904,360.10663,81,110,0
360.11124,360.55106,79,110,0
360.33347,360.55106,71,110,0
360.5557,360.9955,69,110,0
360.5557,360.9955,78,110,0
361.00015,361.43994,76,110,0
361.00015,361.43994,67,110,0
361.44458,361.66217,66,110,0
361.44458,361.66217,75,110,0
361.6668,361.7733,64,110,0
361.77792,361.8844,66,110,0
361.88904,361.9955,68,110,0
361.6668,362.10663,76,110,0
362.00015,362.10663,69,110,0
362.11124,362.21774,71,110,0
362.22235,362.32883,72,110,0
362.33347,362.43994,74,110,0
362.44458,362.55106,76,110,0
362.5557,362.66217,78,110,0
362.6668,362.7733,80,110,0
362.77792,362.8844,81,110,0
362.88904,362.9955,83,110,0
363.00012,363.10663,84,110,0
363.11124,363.21774,86,110,0
363.22235,363.32883,88,110,0
363.33347,363.43994,76,110,0
363.44458,363.66217,81,110,0
364.5557,364.7733,69,110,0
364.77792,365.32883,68,110,0
365.33347,365.43994,69,110,0
365.44458,365.55106,71,110,0
365.44458,365.66217,74,110,0
365.5557,365.66217,72,110,0
365.88904,366.10663,84,110,0
365.6668,366.2177,72,110,0
366.22235,366.32883,74,110,0
366.33347,366.43994,76,110,0
366.44458,366.55106,77,110,0
366.11124,366.66217,81,110,0
366.6668,366.7733,83,110,0
366.77792,366.8844,84,110,0
366.5557,366.9955,71,110,0
366.889,366.9955,86,110,0
367.00012,367.2177,80,110,0
367.22235,367.43994,74,110,0
367.6668,367.8844,83,110,0
367.44458,367.9955,71,110,0
368.00012,368.10663,72,110,0
368.11124,368.2177,74,110,0
368.22235,368.32883,76,110,0
367.889,368.43994,80,110,0
368.44458,368.55106,81,110,0
368.5557,368.66217,83,110,0
368.33347,368.7733,72,110,0
368.6668,368.7733,84,110,0
368.77792,368.9955,76,110,0
368.77792,368.9955,84,110,0
369.00012,369.2177,74,110,0
369.00012,369.2177,83,110,0
369.22235,369.43994,76,110,0
369.22235,369.43994,84,110,0
369.44458,369.66217,74,110,0
369.44458,369.66217,83,110,0
369.6668,369.764,81,110,0
369.72235,369.81958,83,110,0
369.7779,369.87512,81,110,0
369.83347,369.9307,83,110,0
369.889,369.9816,81,110,0
369.94458,370.0418,83,110,0
370.00012,370.08347,80,110,0
369.6668,370.1066,72,110,0
370.0557,370.1066,81,110,0
370.33347,370.55106,74,110,0
370.33347,370.55106,83,110,0
370.5557,370.7733,74,110,0
370.5557,370.7733,83,110,0
370.7779,370.9955,72,110,0
370.7779,370.9955,81,110,0
371.00012,371.2177,74,110,0
371.00012,371.2177,83,110,0
371.22235,371.43994,72,110,0
371.22235,371.43994,81,110,0
371.44458,371.5418,80,110,0
371.50012,371.59735,81,110,0
371.5557,371.6529,80,110,0
371.61124,371.6992,81,110,0
371.6668,371.75476,80,110,0
371.72235,371.81494,81,110,0
371.7779,371.86124,78,110,0
371.44458,371.8844,71,110,0
371.83347,371.8844,80,110,0
372.11124,372.32883,72,123,0
372.11124,372.32883,81,123,0
372.33347,372.55106,72,110,0
372.33347,372.55106,81,110,0
372.5557,372.7733,71,110,0
372.5557,372.7733,79,110,0
373.00012,373.2177,71,123,0
373.00012,373.2177,79,123,0
373.22235,373.43994,71,110,0
373.22235,373.43994,79,110,0
373.44458,373.66217,69,110,0
373.44458,373.66217,77,110,0
373.889,374.1066,74,123,0
373.889,374.1066,77,123,0
374.11124,374.32883,74,110,0
374.11124,374.32883,77,110,0
374.33347,374.55106,76,123,0
374.33347,374.55106,72,123,0
374.5557,374.7733,72,110,0
374.5557,374.7733,76,110,0
374.7779,374.99548,71,123,0
374.7779,374.99548,74,123,0
375.00012,375.2177,64,110,0
375.00012,375.2177,72,110,0
375.22235,375.32883,71,123,0
375.22235,375.43994,64,123,0
375.33347,375.43994,69,110,0
375.44458,375.66217,69,110,0
375.44458,375.66217,81,110,0
375.66678,375.88437,70,123,0
375.66678,375.88437,79,123,0
375.889,376.1066,69,110,0
375.889,376.1066,77,110,0
376.11124,376.2177,67,123,0
376.11124,376.2177,76,123,0
376.22235,376.32883,65,110,0
376.22235,376.32883,74,110,0
376.33347,376.55106,72,110,0
376.33347,376.55106,84,110,0
376.55566,376.7733,72,120,0
376.55566,376.7733,81,120,0
376.7779,376.99548,71,120,0
376.7779,376.99548,80,120,0
377.00012,377.2177,72,120,0
377.00012,377.2177,81,120,0
377.22235,377.32883,80,120,0
377.33347,377.43994,81,120,0
377.44458,377.55106,83,120,0
377.55566,377.66217,84,120,0
377.66678,377.7733,68,120,0
377.7779,377.88437,69,120,0
377.889,377.99548,71,120,0
377.66678,378.1066,75,120,0
378.00012,378.1066,72,120,0
378.11124,378.2177,68,120,0
378.22235,378.32883,69,120,0
378.33347,378.43994,71,120,0
378.11124,378.55106,63,120,0
378.44458,378.55106,72,120,0
378.55566,378.66217,56,120,0
378.66678,378.77325,57,120,0
378.7779,378.88437,59,120,0
378.55566,378.99548,63,120,0
378.889,378.99548,60,120,0
379.00012,379.2449,51,120,0
379.25012,379.4949,63,120,0
379.25012,379.4949,69,120,0
379.25012,379.4949,72,120,0
379.50012,379.7449,63,120,0
379.50012,379.7449,69,120,0
379.50012,379.7449,72,120,0
379.75012,379.9949,71,120,0
379.75012,379.9949,64,120,0
379.75012,379.9949,68,120,0
380.00012,380.26718,60,120,0
380.00012,380.26718,63,120,0
380.00012,380.26718,66,120,0
380.00012,380.26718,71,120,0
380.27286,380.5399,60,120,0
380.27286,380.5399,63,120,0
380.27286,380.5399,66,120,0
380.27286,380.5399,69,120,0
380.54556,380.81262,60,120,0
380.54556,380.81262,63,120,0
380.54556,380.81262,66,120,0
380.54556,380.81262,69,120,0
380.8183,381.08536,59,120,0
380.8183,381.08536,64,120,0
380.8183,381.08536,68,120,0
381.19104,381.46185,40,120,0
381.29102,381.54938,44,120,0
381.39102,381.6452,47,120,0
381.59103,381.86188,52,120,0
381.69104,381.97437,56,120,0
381.79102,382.06186,59,120,0
381.99103,382.2702,52,120,0
382.09103,382.3702,56,120,0
382.19104,382.46603,59,120,0
382.39102,382.66602,64,120,0
382.49103,382.76602,68,120,0
382.59103,382.8702,71,120,0
382.79102,383.06186,64,120,0
382.89102,383.16602,68,120,0
382.99103,383.27435,71,120,0
383.19104,383.4577,76,120,0
383.29102,383.5577,80,120,0
383.39102,383.67438,83,120,0
383.59103,383.87854,76,120,0
383.69104,383.97018,80,120,0
383.79102,384.06186,83,120,0
383.89102,384.17438,88,120,0
383.99103,384.2452,92,120,0
384.09103,384.28687,95,120,0
384.19104,384.28687,100,120,0
384.29102,384.84195,73,120,0
384.29102,384.84195,76,120,0
384.29102,384.84195,81,120,0
384.29102,384.84195,85,120,0
384.8466,384.95306,86,120,0
384.9577,385.06418,88,120,0
385.06882,385.1753,90,120,0
385.17993,385.61972,71,120,0
385.17993,385.61972,83,120,0
385.8466,386.06418,76,120,0
385.8466,386.06418,88,120,0
386.06882,386.61972,69,120,0
386.06882,386.61972,81,120,0
386.62436,386.73083,83,120,0
386.73547,386.84195,85,120,0
386.8466,386.95306,86,120,0
386.9577,387.39752,68,120,0
386.9577,387.39752,80,120,0
387.62436,387.84195,85,80,0
387.8466,387.95306,78,80,0
387.9577,388.06418,80,80,0
388.06882,388.1753,81,80,0
388.1799,388.2864,83,80,0
388.29102,388.3975,81,80,0
388.40213,388.5086,80,80,0
388.51324,388.61972,78,80,0
388.62436,388.73083,80,80,0
388.73547,388.84195,81,80,0
388.8466,388.95306,83,80,0
388.9577,389.06418,85,80,0
389.06882,389.1753,86,80,0
389.1799,389.2864,85,80,0
389.29102,389.3975,83,80,0
389.40213,389.5086,81,80,0
389.51324,389.61972,83,80,0
389.62436,389.73492,85,80,0
389.73975,389.8503,86,80,0
389.85513,389.9657,88,80,0
389.97052,390.0811,90,80,0
390.0859,390.2057,92,80,0
390.2109,390.3307,93,80,0
390.3359,390.47964,81,80,0
390.3359,390.47964,85,80,0
390.4859,390.62964,87,80,0
390.6359,391.8234,81,80,0
390.6359,391.8234,90,80,0
391.8359,392.67517,80,80,0
391.8359,392.67517,88,80,0
392.69302,392.96008,76,80,0
392.96576,393.5167,81,80,0
393.52133,393.6278,80,80,0
393.63242,393.73892,78,80,0
393.74353,393.85004,76,80,0
393.63242,393.96112,69,80,0
393.96576,394.07224,68,80,0
394.07687,394.18335,66,80,0
393.85464,394.29446,74,80,0
394.188,394.29446,64,80,0
394.2991,394.73892,62,80,0
394.52133,394.73892,73,80,0
394.74353,395.29446,78,80,0
395.2991,395.40558,76,80,0
395.41022,395.5167,74,80,0
395.52133,395.6278,73,80,0
395.41022,395.73892,66,80,0
395.74353,395.85,64,80,0
395.85464,395.96112,62,80,0
395.63242,396.07224,71,80,0
395.96576,396.07224,61,80,0
396.07687,396.5167,59,80,0
398.07687,398.29446,52,80,0
398.2991,398.40558,54,80,0
398.41022,398.5167,56,80,0
398.5213,398.6278,57,80,0
398.63242,398.73892,59,80,0
398.74353,398.85,57,80,0
398.85464,398.96112,56,80,0
398.96576,399.07224,54,80,0
399.07687,399.18335,56,80,0
399.188,399.29446,57,80,0
399.2991,399.40558,59,80,0
399.41022,399.5167,61,80,0
399.5213,399.6278,62,80,0
399.63242,399.7389,61,80,0
399.74353,399.85,59,80,0
399.85464,399.96112,57,80,0
399.85464,400.07224,64,80,0
399.96576,400.07224,59,80,0
400.07687,400.18335,61,80,0
400.07687,400.18335,66,80,0
400.188,400.29446,62,80,0
400.188,400.29446,68,80,0
400.2991,400.40558,64,81,0
400.2991,400.40558,69,81,0
400.4102,400.5167,66,82,0
400.4102,400.5167,71,82,0
400.5213,400.6278,64,82,0
400.5213,400.6278,69,82,0
400.63242,400.7389,62,83,0
400.63242,400.7389,68,83,0
400.74353,400.85,61,84,0
400.74353,400.85,66,84,0
400.85464,400.96112,62,84,0
400.85464,400.96112,68,84,0
400.96576,401.07224,64,85,0
400.96576,401.07224,69,85,0
401.07687,401.18335,66,86,0
401.07687,401.18335,71,86,0
401.188,401.29446,68,86,0
401.188,401.29446,73,86,0
401.2991,401.40558,69,87,0
401.2991,401.40558,74,87,0
401.4102,401.5167,68,88,0
401.4102,401.5167,73,88,0
401.5213,401.6278,66,88,0
401.5213,401.6278,71,88,0
401.63242,401.7389,64,89,0
401.63242,401.7389,69,89,0
401.74353,401.85,66,90,0
401.74353,401.85,71,90,0
401.85464,401.96112,67,90,0
401.85464,401.96112,73,90,0
401.96576,402.07224,69,91,0
401.96576,402.07224,74,91,0
402.07687,402.18335,71,92,0
402.07687,402.18335,76,92,0
402.188,402.29446,73,92,0
402.188,402.29446,78,92,0
402.2991,402.40558,71,93,0
402.2991,402.40558,76,93,0
402.4102,402.5167,69,94,0
402.4102,402.5167,74,94,0
402.5213,402.62778,67,94,0
402.5213,402.62778,73,94,0
402.63242,402.7389,69,95,0
402.63242,402.7389,74,95,0
402.74353,402.85,71,96,0
402.74353,402.85,76,96,0
402.85464,402.96112,73,96,0
402.85464,402.96112,78,96,0
402.96576,403.07224,74,97,0
402.96576,403.07224,79,97,0
403.07687,403.18335,76,98,0
403.07687,403.18335,81,98,0
403.188,403.29446,78,98,0
403.188,403.40558,81,98,0
403.29907,403.40558,79,99,0
403.4102,403.5167,78,100,0
403.4102,403.62778,81,100,0
403.5213,403.62778,76,100,0
403.63242,403.85,78,80,0
403.63242,403.85,81,80,0
404.07687,404.18335,74,80,0
404.188,404.29446,76,80,0
404.29907,404.40558,78,80,0
404.4102,404.5167,79,80,0
404.07687,404.7389,81,80,0
404.5213,404.7389,78,80,0
404.96576,405.07224,74,80,0
405.07687,405.18335,76,80,0
405.188,405.29446,78,80,0
405.29907,405.40558,79,80,0
404.96576,405.62778,81,80,0
405.4102,405.62778,73,80,0
405.85464,405.96112,73,80,0
405.96576,406.07224,79,80,0
406.07687,406.18335,73,80,0
405.85464,406.29446,81,80,0
406.188,406.29446,79,80,0
406.29907,406.7389,91,80,0
406.74353,406.85,73,80,0
406.85464,406.96112,79,80,0
406.96576,407.07224,73,80,0
406.74353,407.18335,85,80,0
407.07687,407.18335,79,80,0
407.18796,407.40558,78,80,0
407.18796,407.62778,86,80,0
407.63242,407.7389,74,80,0
407.74353,407.85,76,80,0
407.85464,407.96112,78,80,0
407.96576,408.07224,79,80,0
407.63242,408.29446,81,80,0
408.07687,408.29446,78,80,0
408.5213,408.62778,74,80,0
408.63242,408.7389,76,80,0
408.74353,408.85,78,80,0
408.85464,408.96112,79,80,0
408.5213,409.18335,81,80,0
408.96576,409.18335,73,80,0
409.4102,409.51666,73,80,0
409.5213,409.62778,79,80,0
409.63242,409.7389,73,81,0
409.4102,409.85,81,80,0
409.74353,409.85,79,81,0
409.85464,410.29446,91,82,0
410.29907,410.40555,73,84,0
410.4102,410.51666,79,84,0
410.5213,410.62778,73,85,0
410.29907,410.7389,85,84,0
410.63242,410.7389,79,85,0
410.74353,411.18335,86,86,0
411.18796,411.29446,69,88,0
411.29907,411.40555,71,88,0
411.4102,411.51666,69,89,0
411.18796,411.62778,74,88,0
411.5213,411.62778,71,89,0
411.63242,412.07224,83,90,0
412.07684,412.18335,71,92,0
412.18796,412.29446,73,93,0
412.29907,412.40555,71,93,0
412.07684,412.51666,76,92,0
412.4102,412.51666,73,94,0
412.5213,412.96112,85,94,0
412.96576,413.07224,73,96,0
413.07684,413.18335,74,97,0
413.18796,413.29443,73,97,0
412.96576,413.40555,76,96,0
413.29907,413.40555,74,98,0
413.4102,413.85,86,98,0
413.85464,413.96112,74,101,0
413.96573,414.07224,76,101,0
414.07684,414.18335,74,102,0
413.85464,414.29443,80,101,0
414.18796,414.29443,76,102,0
414.29907,414.7389,88,103,0
414.74353,414.85,76,105,0
414.85464,414.96112,78,105,0
414.96573,415.07224,76,106,0
414.74353,415.18335,81,105,0
415.07684,415.18335,78,106,0
415.18796,415.62778,88,107,0
415.63242,415.7389,76,109,0
415.74353,415.85,78,109,0
415.85464,415.96112,76,110,0
415.63242,416.07224,80,109,0
415.96573,416.07224,78,110,0
416.07684,416.62778,88,110,0
416.07684,416.7389,80,110,0
416.07684,416.7389,83,110,0
416.63242,416.7389,90,110,0
416.74353,416.85,92,110,0
416.8546,416.96112,90,110,0
416.96573,417.51666,88,110,0
416.96573,417.62778,80,110,0
416.96573,417.62778,83,110,0
417.5213,417.62778,90,110,0
417.63242,417.7389,92,110,0
417.74353,417.85,90,110,0
417.8546,418.08963,88,120,0
417.8546,418.32962,83,120,0
417.8546,418.32962,80,120,0
418.09464,418.32962,90,120,0
418.33463,418.56964,80,120,0
418.33463,418.56964,88,120,0
418.33463,418.56964,92,120,0
418.57462,418.81943,81,120,0
418.57462,418.81943,90,120,0
418.57462,418.81943,93,120,0
418.82462,419.09167,83,120,0
418.82462,419.09167,92,120,0
418.82462,419.09167,95,120,0
419.09735,419.3911,85,120,0
419.09735,419.3911,93,120,0
419.09735,419.3911,97,120,0
419.39737,419.99112,86,120,0
419.39737,419.99112,95,120,0
419.39737,419.99112,98,120,0
420.4418,420.7705,74,80,0
420.77515,420.88162,73,80,0
420.88623,421.21494,71,80,0
421.21957,421.32605,73,80,0
421.3307,421.7705,74,80,0
421.77515,422.21494,73,80,0
422.21957,422.6594,78,80,0
422.66403,423.10382,81,80,0
423.10846,423.54828,73,80,0
423.10846,423.54828,78,80,0
423.55292,424.43716,68,80,0
423.55292,424.43716,71,80,0
423.55292,424.43716,76,80,0
424.4418,425.32605,66,80,0
424.4418,425.32605,69,80,0
424.4418,425.32605,75,80,0
425.3307,425.7705,68,80,0
425.3307,425.7705,76,80,0
425.77512,426.1165,81,70,0
425.77512,426.1165,85,70,0
426.12128,426.23187,76,70,0
426.12128,426.23187,83,70,0
426.23666,426.60645,73,70,0
426.23666,426.60645,81,70,0
426.61166,426.73145,76,70,0
426.61166,426.73145,83,70,0
426.73666,427.23145,81,70,0
426.73666,427.23145,85,70,0
427.23666,427.56537,83,110,0
427.23666,427.56537,86,110,0
427.57,427.67648,80,110,0
427.57,427.67648,88,110,0
427.68112,427.8987,81,110,0
427.68112,427.8987,85,110,0
427.90332,428.1209,85,110,0
427.90332,428.1209,93,110,0
428.12555,428.45425,74,110,0
428.12555,428.45425,83,110,0
428.4589,428.56537,76,110,0
428.4589,428.56537,85,110,0
428.57,428.7876,73,110,0
428.57,428.7876,81,110,0
428.7922,429.00983,81,80,0
429.01443,429.56537,76,80,0
429.57,429.67648,78,80,0
429.68112,429.7876,80,80,0
429.7922,429.8987,81,80,0
429.90332,430.34314,78,80,0
429.90332,430.45425,69,80,0
430.4589,430.56537,71,80,0
430.57,430.67648,73,80,0
430.6811,430.7876,74,80,0
430.7922,431.34314,83,80,0
431.34778,431.45425,85,80,0
431.4589,431.56537,86,80,0
431.57,431.67648,88,80,0
431.6811,432.1209,85,80,0
431.6811,432.23203,76,80,0
432.23666,432.34314,78,80,0
432.34778,432.45425,80,80,0
432.4589,432.56537,81,80,0
432.57,432.7876,76,80,0
432.7922,433.1209,76,81,0
433.12555,433.23203,78,84,0
433.23666,433.34314,80,85,0
433.34778,433.45425,81,86,0
433.4589,433.67648,69,87,0
433.4589,433.89868,78,87,0
433.6811,434.0098,69,89,0
434.01443,434.1209,71,91,0
434.12555,434.23203,73,92,0
434.23666,434.34314,74,93,0
434.34778,434.56537,83,94,0
434.34778,434.7876,74,94,0
434.56998,434.89868,83,96,0
434.90332,435.0098,85,99,0
435.01443,435.1209,86,100,0
435.12555,435.23203,88,100,0
435.23666,435.45425,76,80,0
435.23666,435.45425,85,80,0
435.23666,435.45425,88,80,0
435.4589,435.89868,69,84,0
435.4589,435.89868,73,84,0
435.4589,435.89868,76,84,0
435.90332,436.45425,76,92,0
435.90332,436.45425,73,92,0
435.90332,436.45425,69,92,0
436.4589,436.56537,69,102,0
436.4589,436.56537,73,102,0
436.4589,436.56537,76,102,0
436.56998,436.89868,69,104,0
436.56998,436.89868,73,104,0
436.56998,436.89868,76,104,0
436.90332,437.0098,69,110,0
436.90332,437.0098,73,110,0
436.90332,437.0098,76,110,0
437.01443,437.1209,64,110,0
437.01443,437.1209,68,110,0
437.01443,437.1209,71,110,0
437.01443,437.1209,76,110,0
437.12555,437.23203,66,110,0
437.23666,437.34314,68,110,0
437.34778,437.45425,69,110,0
437.45886,437.56537,68,110,0
437.56998,437.67648,69,110,0
437.6811,437.78757,71,110,0
437.7922,437.89868,73,110,0
437.90332,438.0098,71,110,0
438.01443,438.1209,73,110,0
438.12555,438.23203,74,110,0
438.23666,438.34314,76,110,0
438.34778,438.45425,74,110,0
438.45886,438.56537,76,110,0
438.56998,438.67648,78,110,0
438.6811,438.78757,80,110,0
438.7922,439.0098,69,110,0
438.7922,439.0098,73,110,0
438.7922,439.0098,76,110,0
438.7922,439.0098,81,110,0
439.01443,439.45425,69,82,0
439.01443,439.45425,73,82,0
439.01443,439.45425,76,82,0
439.45886,440.0098,76,91,0
439.45886,440.0098,73,91,0
439.45886,440.0098,69,91,0
440.01443,440.1209,69,102,0
440.01443,440.1209,73,102,0
440.01443,440.1209,76,102,0
440.12555,440.45425,69,104,0
440.12555,440.45425,73,104,0
440.12555,440.45425,76,104,0
440.45886,440.56537,69,110,0
440.45886,440.56537,73,110,0
440.45886,440.56537,76,110,0
440.56998,440.67645,76,120,0
440.6811,440.78757,78,120,0
440.7922,440.89868,80,120,0
440.90332,441.0098,81,120,0
441.01443,441.1209,80,120,0
441.12555,441.23203,81,120,0
441.23666,441.34314,83,120,0
441.34775,441.45425,85,120,0
441.45886,441.56537,83,120,0
441.56998,441.67645,85,120,0
441.6811,441.78757,86,120,0
441.7922,441.89868,88,120,0
441.90332,442.0098,86,120,0
442.01443,442.1209,88,120,0
442.12555,442.23203,90,120,0
442.23666,442.34314,92,120,0
442.34775,442.78757,81,120,0
442.34775,442.78757,85,120,0
442.34775,442.78757,93,120,0
443.01443,443.23203,71,80,0
443.01443,443.23203,78,80,0
443.01443,443.23203,83,80,0
443.23666,443.67645,71,80,0
443.23666,443.67645,78,80,0
443.23666,443.67645,83,80,0
443.90332,444.1209,74,80,0
443.90332,444.1209,86,80,0
444.12555,444.34314,74,80,0
444.12555,444.34314,86,80,0
444.34775,444.56534,68,80,0
444.34775,444.56534,74,80,0
444.34775,444.56534,80,80,0
444.56998,444.78757,68,80,0
444.56998,444.78757,74,80,0
444.56998,444.78757,80,80,0
444.7922,445.0098,69,80,0
444.7922,445.0098,73,80,0
444.7922,445.0098,81,80,0
445.01443,445.45425,71,80,0
445.01443,445.45425,80,80,0
445.01443,445.45425,83,80,0
445.90332,446.3672,64,70,0
445.90332,446.3672,71,70,0
445.90332,446.3672,74,70,0
446.60645,446.83594,64,70,0
446.60645,446.83594,69,70,0
446.60645,446.83594,73,70,0
446.84082,447.3047,64,70,0
446.84082,447.3047,69,70,0
446.84082,447.3047,73,70,0
447.54395,447.77344,66,70,0
447.54395,447.77344,69,70,0
447.54395,447.77344,71,70,0
447.77832,448.0078,66,70,0
447.77832,448.0078,69,70,0
447.77832,448.0078,71,70,0
448.0127,448.2422,68,70,0
448.0127,448.2422,76,70,0
448.24707,448.47656,68,70,0
448.24707,448.47656,76,70,0
448.48145,448.71094,69,70,0
448.71582,449.1797,69,70,0
451.52832,452.5231,62,80,0
451.52832,452.5231,64,80,0
452.52832,453.1481,64,80,0
453.15332,453.2731,66,80,0
453.27832,453.3981,68,80,0
452.52832,453.5231,61,80,0
453.40332,453.5231,69,80,0
453.52832,454.5231,62,80,0
453.52832,454.5231,64,80,0
453.52832,454.5231,68,80,0
454.52832,455.0231,61,80,0
454.52832,455.0231,64,80,0
454.52832,455.1481,69,80,0
455.15332,455.2731,71,80,0
455.27832,455.3981,73,80,0
455.40332,455.5231,76,80,0
455.52832,456.5231,62,80,0
455.52832,456.5231,64,80,0
456.52832,457.164,64,80,0
457.16934,457.2922,66,80,0
457.29755,457.4204,68,80,0
456.52832,457.5486,61,80,0
457.42575,457.5486,69,80,0
457.55396,458.61038,62,80,0
457.55396,458.61038,64,80,0
457.55396,458.61038,68,80,0
458.6159,459.15567,61,80,0
458.6159,459.15567,64,80,0
458.6159,459.29825,69,80,0
459.3042,459.4411,71,80,0
459.44708,459.58398,73,80,0
459.58994,459.72684,76,80,0
459.7328,461.72684,79,80,0
459.7328,461.72684,76,80,0
459.7328,461.72684,73,80,0
459.7328,461.72684,67,80,0
461.7328,462.01254,69,120,0
461.7328,462.01254,81,120,0
462.0185,462.4583,66,120,0
462.0185,462.4583,78,120,0
463.57404,463.79163,57,80,0
463.57404,463.79163,69,80,0
463.79626,464.23608,53,80,0
463.79626,464.23608,65,80,0
467.1296,467.3472,58,80,0
467.3518,467.90274,55,80,0
467.90738,468.01385,57,80,0
468.0185,468.12497,58,80,0
468.1296,468.23608,60,80,0
468.24072,468.6805,57,80,0
468.90738,469.12497,72,80,0
469.1296,469.6805,69,80,0
469.68515,469.79163,71,80,0
469.79626,469.90274,72,80,0
469.90738,470.01385,74,80,0
470.0185,470.4583,68,80,0
470.68515,470.90274,74,80,0
470.90738,471.4583,71,80,0
471.46292,471.5694,73,80,0
471.57404,471.6805,74,80,0
471.68515,471.79163,76,80,0
472.03247,472.2638,69,80,0
471.79626,472.5,74,80,0
472.2687,472.7362,68,80,0
472.5049,472.7362,76,80,0
472.74115,472.97244,73,80,0
472.97736,473.20865,81,80,0
472.74115,473.4449,69,80,0
473.2136,473.4449,76,80,0
473.92224,474.38977,71,80,0
473.92224,474.38977,80,80,0
474.39468,474.62598,71,80,0
474.39468,474.62598,80,80,0
474.6309,474.8757,69,80,0
474.6309,474.8757,81,80,0
474.8809,475.1257,73,80,0
474.8809,475.1257,76,80,0
475.1309,475.3757,69,80,0
475.1309,475.3757,73,80,0
475.3809,475.6257,68,80,0
475.3809,475.6257,76,80,0
475.6309,475.8757,68,80,0
475.8809,476.1257,69,80,0
475.6309,476.3757,74,80,0
476.1309,476.6257,68,80,0
476.3809,476.6257,76,80,0
476.6309,476.89087,64,80,0
476.6309,476.89087,73,80,0
476.8964,477.15634,69,80,0
477.16187,477.42184,66,80,0
477.42737,477.68732,62,80,0
477.42737,477.68732,68,80,0
477.69284,477.96738,64,80,0
477.69284,477.96738,69,80,0
477.97324,478.24774,68,80,0
477.97324,478.24774,71,80,0
478.2536,478.54733,69,80,0
478.5536,478.69736,68,80,0
478.2536,478.84735,64,80,0
478.70358,478.84735,76,80,0
478.8536,478.9808,74,80,0
478.91995,479.04718,76,80,0
478.8536,479.11356,68,80,0
478.98633,479.11356,74,80,0
479.0527,479.17993,76,80,0
479.11908,479.2463,74,80,0
479.18546,479.31265,76,80,0
479.11908,479.37903,69,80,0
479.25183,479.37903,74,80,0
479.3182,479.4454,76,80,0
479.38458,479.51178,74,80,0
479.45093,479.57816,76,80,0
479.5173,479.64453,73,80,0
479.58368,479.64453,74,80,0
479.38458,479.91,68,80,0
479.65005,479.91,76,80,0
479.91553,480.1755,73,80,0
480.18103,480.44098,81,80,0
479.91553,480.70648,69,80,0
480.4465,480.70648,76,80,0
481.24298,481.50293,77,80,0
481.24298,481.7684,68,80,0
481.24298,481.7684,80,80,0
481.50845,481.7684,76,80,0
481.77396,482.0339,71,80,0
481.77396,482.0339,80,80,0
482.03943,482.31396,69,80,0
482.03943,482.31396,81,80,0
482.3198,482.59433,73,80,0
482.3198,482.59433,76,80,0
482.6002,482.89392,69,80,0
482.6002,482.89392,73,80,0
482.90018,483.20938,68,80,0
482.90018,483.20938,76,80,0
483.21597,483.34317,74,80,0
483.28235,483.40955,76,80,0
483.21597,483.47592,68,80,0
483.34872,483.47592,74,80,0
483.41507,483.5423,76,80,0
483.48145,483.60867,74,80,0
483.54782,483.67505,76,80,0
483.48145,483.74142,69,80,0
483.6142,483.74142,74,80,0
483.68057,483.80777,76,80,0
483.74695,483.87415,74,80,0
483.81332,483.94052,76,80,0
483.8797,484.0069,73,80,0
483.94604,484.0069,74,80,0
483.74695,484.27237,68,80,0
484.01242,484.27237,76,80,0
484.27792,484.33875,73,80,0
484.3443,484.40512,74,80,0
484.41064,484.4715,71,80,0
484.27792,484.53787,64,80,0
484.27792,484.53787,69,80,0
484.47702,484.53787,73,80,0
484.5434,484.80334,64,80,0
484.5434,484.80334,69,80,0
484.8089,485.07593,57,80,0
484.8089,485.07593,66,80,0
485.0816,485.3614,62,80,0
485.0816,485.3614,64,80,0
485.0816,485.3614,68,80,0
485.36734,485.66107,64,80,0
485.36734,485.66107,69,80,0
485.66733,485.9611,66,80,0
485.66733,485.9611,71,80,0
485.96732,486.09802,59,80,0
485.96732,486.09802,68,80,0
486.1037,486.23438,66,80,0
486.24005,486.37073,68,80,0
486.3764,486.5071,69,80,0
486.5128,486.6378,71,80,0
486.64322,486.76822,73,80,0
486.77365,486.89343,74,80,0
486.89865,487.01843,76,80,0
487.02365,487.13684,73,80,0
487.14175,487.25494,71,80,0
487.25986,487.37305,69,80,0
487.378,487.49118,71,80,0
487.4961,487.60928,73,80,0
487.6142,487.7274,74,80,0
487.7323,487.8455,76,80,0
487.7323,487.96362,88,80,0
487.85043,487.96362,78,80,0
487.96854,488.08173,76,80,0
487.96854,488.19983,81,80,0
488.08664,488.19983,74,80,0
488.20474,488.31793,76,80,0
488.32288,488.43607,73,80,0
488.44098,488.55417,71,80,0
488.55908,488.67227,73,80,0
488.6772,488.79037,74,80,0
488.7953,488.90848,76,80,0
488.91342,489.0266,73,80,0
489.03152,489.1447,71,80,0
489.14963,489.26282,69,80,0
489.26773,489.38092,71,80,0
489.38586,489.49905,69,80,0
489.38586,489.49905,73,80,0
489.50397,489.61716,71,80,0
489.50397,489.61716,74,80,0
489.62207,489.73526,73,80,0
489.62207,489.73526,76,80,0
489.74017,489.85336,74,80,0
489.74017,489.85336,78,80,0
489.8583,489.97147,73,80,0
489.8583,489.97147,76,80,0
489.9764,490.0896,71,80,0
489.9764,490.0896,74,80,0
490.0945,490.2077,73,80,0
490.0945,490.2077,76,80,0
490.21262,490.3258,69,80,0
490.21262,490.3258,73,80,0
490.33072,490.4439,71,80,0
490.44885,490.56204,73,80,0
490.56696,490.68015,74,80,0
490.68506,490.79825,76,80,0
490.80316,490.91635,73,80,0
490.9213,491.0345,71,80,0
491.0394,491.1526,69,80,0
491.1575,491.2707,71,80,0
491.2756,491.5069,73,80,0
491.97028,492.18787,88,80,0
492.1925,492.4101,81,80,0
492.85916,493.07675,64,80,0
493.0814,493.30734,57,80,0
495.23648,495.4541,64,80,0
495.4587,495.5652,61,79,0
495.56982,495.6763,62,79,0
495.68094,495.7874,64,79,0
495.79205,495.89853,66,78,0
495.90317,496.12076,62,78,0
496.1254,496.343,57,77,0
496.3476,496.4541,54,77,0
496.4587,496.5652,57,76,0
496.56982,496.6763,62,76,0
496.68094,496.7874,59,76,0
496.79205,497.00964,56,75,0
497.01428,497.23187,74,75,0
497.23648,497.343,71,74,0
497.3476,497.45407,73,74,0
497.4587,497.5652,74,73,0
497.23648,497.6763,68,74,0
497.56982,497.6763,76,73,0
497.68094,497.89853,73,73,0
497.90317,498.12076,76,72,0
497.68094,498.343,69,73,0
498.12537,498.343,81,71,0
498.79205,498.89853,64,70,0
498.90317,499.00964,62,70,0
499.01428,499.12076,61,70,0
499.12537,499.23187,62,70,0
499.23648,499.343,64,70,0
499.3476,499.45407,66,70,0
499.4587,499.6763,62,70,0
499.68094,499.7874,57,70,0
499.79205,499.89853,55,70,0
499.90317,500.00964,54,70,0
500.01428,500.12076,57,70,0
500.12537,500.23187,62,70,0
500.23648,500.34296,59,70,0
500.3476,500.5652,56,70,0
500.56982,500.6763,74,70,0
500.68094,500.7874,73,70,0
500.79205,500.89853,71,70,0
500.90317,501.00964,73,70,0
501.01428,501.12076,74,70,0
500.79205,501.23187,68,70,0
501.12537,501.23187,76,70,0
501.23648,501.4753,73,70,0
501.48038,501.7192,76,70,0
501.23648,501.9631,69,70,0
501.7243,501.9631,81,70,0
502.48483,502.6155,74,70,0
502.6212,502.75186,73,70,0
502.75754,502.88824,71,70,0
502.89392,503.0246,73,70,0
503.03027,503.16095,74,70,0
502.2121,503.29733,68,70,0
503.16666,503.29733,76,70,0
503.303,503.59674,73,70,0
503.603,503.89676,76,70,0
503.303,504.19675,69,70,0
503.903,504.19675,81,70,0
504.83633,504.99606,74,70,0
505.003,505.16272,73,70,0
505.16968,505.37503,71,70,0
505.38394,505.58932,73,70,0
505.59824,505.83783,74,70,0
504.503,506.2076,68,70,0
505.84824,506.2076,76,70,0
506.22324,506.46805,61,125,0
506.22324,506.46805,64,125,0
506.22324,506.46805,69,125,0
506.47324,506.71805,64,125,0
506.47324,506.71805,69,125,0
506.47324,506.71805,73,125,0
506.72324,506.96805,69,125,0
506.72324,506.96805,73,125,0
506.72324,506.96805,76,125,0
506.97324,507.21805,69,125,0
506.97324,507.21805,73,125,0
506.97324,507.21805,76,125,0
506.97324,507.21805,81,125,0
507.22324,507.763,85,125,0
507.22324,507.763,73,125,0
507.22324,507.763,76,125,0
507.22324,507.763,81,125,0
507.7687,508.4284,76,125,0
507.7687,508.4284,81,125,0
507.7687,508.4284,85,125,0
507.7687,508.4284,88,125,0
508.43536,510.4284,93,125,0
508.43536,510.4284,88,125,0
508.43536,510.4284,85,125,0
508.43536,510.4284,81,125,0
513.10205,513.7617,69,1,0
0.0,1.2239584,32,80,0
0.0,1.2239584,44,80,0
1.25,2.4739583,35,80,0
1.25,2.4739583,47,80,0
2.5,4.9739585,33,80,0
2.5,4.9739585,45,80,0
5.0,6.2239585,35,80,0
5.0,6.2239585,47,80,0
6.25,7.4739585,38,80,0
6.25,7.4739585,50,80,0
7.5,8.723958,36,80,0
7.5,8.723958,48,80,0
8.75,9.973958,33,80,0
8.75,9.973958,45,80,0
10.0,11.848958,41,80,0
10.0,11.848958,53,80,0
11.875,12.473958,40,80,0
11.875,12.473958,52,80,0
12.5,14.348958,50,80,0
12.5,14.348958,38,80,0
14.375,14.973958,36,80,0
14.375,14.973958,48,80,0
15.0,16.223959,35,80,0
15.0,16.223959,47,80,0
16.25,17.473959,33,80,0
16.25,17.473959,45,80,0
17.5,20.21875,28,80,0
17.5,20.21875,40,80,0
20.25,21.425,40,80,0
20.25,21.425,52,80,0
21.45,22.625,38,80,0
21.45,22.625,50,80,0
22.65,23.825,36,80,0
22.65,23.825,48,80,0
23.85,25.025,34,80,0
23.85,25.025,46,80,0
25.05,26.225,33,80,0
25.05,26.225,45,80,0
26.25,27.425,32,80,0
26.25,27.425,44,80,0
27.45,29.825,31,80,0
27.45,29.825,43,80,0
29.85,33.425,31,80,0
29.85,33.425,43,80,0
33.45,34.025,43,80,0
33.45,34.025,52,80,0
34.05,34.625,41,80,0
34.05,34.625,50,80,0
34.65,35.825,40,80,0
34.65,35.825,52,80,0
35.85,36.425,38,80,0
35.85,37.025,50,80,0
36.45,37.025,43,80,0
37.05,38.327175,43,80,0
37.05,38.327175,50,80,0
38.354347,39.073097,36,80,0
38.354347,39.073097,48,80,0
39.854347,42.435867,43,80,0
42.463043,43.038044,43,80,0
43.06304,43.23804,45,80,0
43.263042,43.43804,43,80,0
43.463043,43.638042,42,80,0
43.663044,44.23804,43,80,0
44.263042,44.838043,52,80,0
44.86304,46.038044,47,80,0
44.86304,47.23804,55,80,0
46.06304,47.23804,50,80,0
47.263042,49.833965,48,80,0
47.263042,49.833965,55,80,0
49.865215,52.44674,55,80,0
52.47391,53.09891,55,80,0
53.126083,53.316303,57,80,0
53.343475,53.533695,55,80,0
53.560867,53.751083,54,80,0
53.77826,54.35326,55,80,0
54.378258,54.95326,64,80,0
54.97826,55.253258,48,80,0
55.27826,57.35326,64,80,0
57.378258,57.95326,55,80,0
57.97826,58.15326,57,80,0
58.178257,58.35326,55,80,0
58.378258,58.553257,54,80,0
58.57826,59.15326,55,80,0
59.178257,59.753258,64,80,0
59.77826,60.053257,47,80,0
59.97826,62.15326,64,80,0
62.178257,62.753258,55,80,0
62.77826,62.95326,57,80,0
62.97826,63.15326,55,80,0
63.178257,63.35326,54,80,0
63.378258,63.95326,55,80,0
63.97826,64.55326,64,80,0
64.57826,64.70326,46,80,0
64.77826,65.20326,64,80,0
65.17826,65.75326,61,80,0
65.77826,66.35326,58,80,0
66.37826,66.95326,55,80,0
66.97826,67.55326,54,80,0
66.97826,68.15326,45,80,0
67.57826,68.15326,57,80,0
68.17826,68.75326,60,80,0
68.77826,69.35326,63,80,0
69.37826,69.50326,43,80,0
69.52826,69.95326,62,80,0
69.97826,70.55326,59,80,0
70.57826,71.15326,56,80,0
71.17826,71.75326,53,80,0
71.77826,72.35326,52,80,0
71.77826,72.95326,43,80,0
72.37826,72.95326,55,80,0
72.97826,73.55326,58,80,0
73.57826,74.15326,61,80,0
74.17826,74.45326,41,80,0
74.47826,74.75326,60,80,0
74.77826,75.35326,57,80,0
75.37826,75.95326,54,80,0
75.97826,76.55326,51,80,0
76.57826,77.30326,50,80,0
76.57826,77.75326,41,80,0
77.17826,77.95326,53,80,0
77.77826,78.57826,56,80,0
78.37826,79.22826,59,80,0
78.97826,79.85326,50,80,0
78.97826,80.15326,40,80,0
79.57826,80.40326,52,80,0
80.17826,80.95326,56,80,0
80.77826,81.52826,59,80,0
81.37826,82.12826,48,80,0
81.37826,82.55326,40,80,0
81.97826,82.72826,52,80,0
82.57826,83.35326,56,80,0
83.17826,83.92826,57,80,0
83.77826,84.60326,47,80,0
83.77826,84.95326,40,80,0
84.37826,85.22826,50,80,0
84.97826,85.80326,52,80,0
85.57826,86.40326,56,80,0
86.17826,87.00326,45,80,0
86.17826,87.35326,40,80,0
86.77826,87.65326,48,80,0
87.37826,88.25326,51,80,0
87.97826,88.75326,52,80,0
88.57826,89.15326,42,80,0
89.17826,89.75326,45,80,0
89.77826,90.35326,48,80,0
90.37826,90.95326,51,80,0
90.97826,91.60326,54,80,0
91.63043,92.25543,57,80,0
88.57826,92.93601,40,80,0
92.28261,92.93601,60,80,0
92.964424,93.683174,47,80,0
92.964424,93.683174,52,80,0
92.964424,93.683174,40,80,0
92.964424,93.683174,44,80,0
92.964424,93.683174,59,80,0
93.714424,98.1988,40,80,0
93.714424,98.1988,44,80,0
93.714424,98.1988,47,80,0
93.714424,98.1988,52,80,0
102.93942,103.17901,47,80,0
103.06442,103.46547,44,80,0
103.31442,103.46547,44,80,0
103.18942,103.69463,40,80,0
103.43942,103.8613,47,80,0
103.56442,104.012344,52,80,0
103.68942,104.05922,56,80,0
103.81442,104.05922,59,80,0
103.93942,104.05922,64,80,0
104.06442,104.724144,52,80,0
104.73109,105.05748,51,80,0
105.06442,105.724144,50,80,0
105.73109,106.05748,49,80,0
104.06442,107.26929,40,80,0
106.06442,107.26929,47,80,0
107.2789,108.97533,40,80,0
107.2789,108.97533,52,80,0
109.39319,110.05291,66,80,0
110.05985,110.38624,64,80,0
110.39319,111.05291,62,80,0
110.39319,111.38624,57,80,0
111.05985,111.38624,61,80,0
111.39318,112.0529,49,80,0
112.05985,112.38624,50,80,0
111.39318,112.73877,61,80,0
112.746124,113.11331,57,80,0
112.39318,113.540764,52,80,0
113.121124,113.540764,56,80,0
114.40684,115.15981,61,80,0
115.16874,115.53593,57,80,0
114.74017,115.91093,52,80,0
115.54374,115.91093,56,80,0
116.66874,117.38933,62,80,0
117.39668,117.72307,59,86,0
117.73002,118.056404,57,89,0
118.06335,118.3571,66,93,0
118.36335,118.61878,62,96,0
118.624214,118.85018,61,99,0
118.85499,119.05082,69,103,0
119.054985,119.25082,66,106,0
119.25499,119.45082,64,109,0
119.45499,120.36471,64,110,0
119.45499,120.36471,68,110,0
119.45499,120.36471,71,110,0
119.45499,120.36471,74,110,0
125.26054,125.47813,64,91,0
125.26054,125.47813,68,91,0
125.26054,125.47813,71,91,0
125.26054,125.47813,74,91,0
125.48276,125.92258,52,92,0
125.48276,125.92258,56,92,0
125.48276,125.92258,59,92,0
125.48276,125.92258,62,92,0
127.038315,127.255905,52,103,0
127.038315,127.255905,56,103,0
127.038315,127.255905,59,103,0
127.038315,127.255905,62,103,0
127.26054,127.70035,40,105,0
127.26054,127.70035,44,105,0
127.26054,127.70035,47,105,0
127.26054,127.70035,50,105,0
127.9272,128.14479,40,110,0
127.9272,128.14479,52,110,0
128.14943,128.36702,45,110,0
128.14943,128.36702,57,110,0
128.37164,128.58923,71,110,0
128.37164,128.58923,59,110,0
128.59387,129.14479,69,110,0
128.59387,129.14479,57,110,0
129.14943,129.2559,59,110,0
129.26053,129.36702,61,110,0
129.37164,129.47812,62,110,0
129.48276,129.92258,56,110,0
130.14941,130.36702,56,110,0
130.14941,130.36702,68,110,0
130.37164,130.92256,54,110,0
130.37164,130.92256,66,110,0
130.9272,131.03368,56,110,0
131.03831,131.14479,57,110,0
131.14941,131.2559,59,110,0
131.26053,131.47812,52,110,0
131.48276,131.92256,76,80,0
131.48276,131.92256,64,80,0
131.9272,132.367,64,80,0
131.9272,132.367,74,80,0
132.37164,132.81146,71,80,0
132.37164,132.81146,64,80,0
132.81609,133.2559,64,80,0
132.81609,133.2559,69,80,0
133.26053,133.47812,64,80,0
133.26053,133.47812,68,80,0
133.48276,133.70871,69,80,0
133.71352,133.95831,68,80,0
133.96352,134.23056,66,80,0
134.23625,134.56264,59,80,0
134.23625,134.56264,71,80,0
134.56958,136.05396,59,80,0
134.56958,136.05396,71,80,0
136.06958,136.80396,64,80,0
136.06958,136.80396,71,80,0
136.81958,137.03717,52,110,0
136.81958,137.03717,64,110,0
137.04181,137.59273,49,110,0
137.04181,137.59273,61,110,0
137.59735,137.70384,62,110,0
137.70847,137.81496,64,110,0
137.81958,137.92606,66,110,0
137.9307,138.3705,47,110,0
137.9307,138.3705,59,110,0
138.59735,138.81494,52,110,0
138.59735,138.81494,64,110,0
138.81958,139.3705,45,110,0
138.81958,139.3705,57,110,0
139.37514,139.48161,59,110,0
139.48625,139.59273,61,110,0
139.59735,139.70384,62,110,0
139.70847,140.14828,44,110,0
139.70847,140.14828,56,110,0
140.37514,140.59273,52,80,0
140.59735,140.70384,54,80,0
140.70847,140.81494,56,80,0
140.81958,140.92606,57,80,0
140.9307,141.03717,59,80,0
141.0418,141.14828,57,80,0
141.15291,141.25938,56,80,0
141.26402,141.3705,54,80,0
141.37514,141.48161,56,80,0
141.48624,141.59273,57,80,0
141.59735,141.70384,59,80,0
141.70847,141.81494,61,80,0
141.81958,141.92606,62,80,0
141.93068,142.03717,61,80,0
142.0418,142.14828,59,80,0
142.15291,142.25938,57,80,0
142.26402,142.3705,59,80,0
142.37514,142.48161,61,80,0
142.48624,142.59273,62,80,0
142.59735,142.70383,64,80,0
142.70847,142.81494,66,80,0
142.81958,142.92606,68,80,0
142.93068,143.03717,69,80,0
143.0418,143.14828,66,80,0
143.15291,143.25938,63,80,0
143.26402,143.3705,64,80,0
143.37512,143.48161,66,80,0
143.48624,143.59273,62,80,0
143.48624,143.70383,52,80,0
143.59735,143.70383,59,80,0
143.70847,143.81494,57,80,0
143.81958,143.92606,61,80,0
143.93068,144.03717,57,80,0
144.0418,144.14827,61,80,0
144.15291,144.3705,52,80,0
144.37512,144.59273,53,80,0
144.15291,145.03717,59,80,0
145.0418,145.48161,57,80,0
144.59735,145.70383,52,80,0
145.48624,145.70383,61,80,0
145.70847,145.92606,64,80,0
145.70847,145.92606,52,80,0
145.93068,146.14827,52,80,0
146.15291,146.3705,53,80,0
145.93068,146.59271,62,80,0
146.59735,146.81494,64,80,0
146.37512,147.03716,52,80,0
146.81956,147.03716,61,80,0
147.0418,147.25938,69,80,0
147.264,147.48161,64,80,0
147.48624,147.70383,52,80,0
147.48624,147.70383,59,80,0
147.70847,147.931,52,80,0
147.70847,148.15826,59,80,0
147.93573,148.15826,53,81,0
148.16301,148.8435,52,83,0
148.61755,148.8435,52,87,0
148.16301,149.07428,59,83,0
148.61755,149.07428,59,87,0
148.84831,149.07428,53,89,0
149.07909,149.76317,52,91,0
149.07909,149.99043,59,91,0
149.7679,149.99043,59,97,0
149.7679,149.99043,52,97,0
149.99516,150.21277,53,99,0
150.21739,150.43498,52,101,0
150.4396,150.65721,53,103,0
150.66183,150.76831,52,105,0
150.21739,150.87943,59,101,0
150.77295,150.87943,50,106,0
150.88406,151.10165,49,107,0
151.10628,151.32387,40,109,0
151.3285,151.87943,37,110,0
151.88406,151.99054,38,110,0
151.99516,152.10165,40,110,0
152.10628,152.21275,42,110,0
152.21739,152.6572,35,110,0
152.88405,153.10165,40,110,0
153.10628,153.6572,33,110,0
153.66183,153.76831,35,110,0
153.77295,153.87943,37,110,0
153.88405,153.99054,38,110,0
153.99516,154.43498,32,110,0
154.66183,154.87943,40,110,0
154.88405,154.99054,42,110,0
154.99516,155.10164,44,110,0
155.10628,155.21275,45,110,0
155.21739,155.32387,47,110,0
155.32849,155.43498,45,110,0
155.4396,155.5461,44,110,0
155.55072,155.6572,42,110,0
155.66183,155.76831,44,110,0
155.77293,155.87943,45,110,0
155.88405,155.99054,47,110,0
155.99516,156.10164,49,110,0
156.10628,156.21275,50,110,0
156.21739,156.32387,49,110,0
156.32849,156.43498,47,110,0
156.4396,156.54608,45,110,0
156.55072,156.6572,47,110,0
156.66183,156.76831,49,110,0
156.77293,156.87943,50,109,0
156.88405,156.99054,52,107,0
156.99516,157.10164,54,105,0
157.10628,157.21275,56,103,0
157.21738,157.32387,57,101,0
157.32849,157.43498,54,99,0
157.4396,157.54608,51,97,0
157.55072,157.6572,52,95,0
157.66183,157.76831,54,93,0
157.77293,157.87943,50,91,0
157.88405,157.99052,47,89,0
157.99516,158.10164,49,87,0
158.10628,158.21275,50,85,0
158.21738,158.32387,52,83,0
158.32849,158.43498,40,81,0
158.4396,158.54608,49,80,0
158.55072,158.6572,50,80,0
158.66183,158.76831,52,80,0
158.4396,158.87943,45,80,0
158.77293,158.87943,54,80,0
158.88405,159.10164,52,80,0
159.32849,159.43497,49,80,0
159.4396,159.54608,50,80,0
159.55072,159.6572,52,80,0
159.32849,159.76831,45,80,0
159.66182,159.76831,54,80,0
159.77293,159.99052,52,80,0
160.21738,160.32387,50,80,0
160.32849,160.43497,52,80,0
160.4396,160.54608,54,80,0
160.21738,160.6572,47,80,0
160.55072,160.6572,52,80,0
160.66182,160.87943,52,80,0
161.10626,161.21275,50,80,0
161.21738,161.32387,52,80,0
161.32849,161.43497,54,80,0
161.10626,161.54608,47,80,0
161.4396,161.54608,52,80,0
161.55072,161.99052,52,80,0
161.99516,162.10164,49,80,0
162.10626,162.21275,50,80,0
162.21738,162.32387,52,80,0
161.99516,162.43497,45,80,0
162.32849,162.43497,54,80,0
162.4396,162.6572,52,80,0
162.88405,162.99052,49,80,0
162.99516,163.10164,50,80,0
163.10626,163.21275,52,80,0
162.88405,163.32385,45,80,0
163.21738,163.32385,54,80,0
163.32849,163.54608,52,80,0
163.77293,163.87941,50,80,0
163.88405,163.99052,52,80,0
163.99515,164.10164,54,80,0
163.77293,164.21275,47,80,0
164.10626,164.21275,52,80,0
164.21738,164.43497,52,80,0
164.66182,164.7683,52,80,0
164.77293,164.87941,57,80,0
164.88405,164.99052,52,81,0
164.66182,165.10164,49,80,0
164.99515,165.10164,57,82,0
165.5507,165.6572,54,86,0
165.66182,165.7683,57,87,0
165.77293,165.87941,54,87,0
165.5507,165.99052,50,86,0
165.88405,165.99052,59,88,0
166.43959,166.54608,56,92,0
166.5507,166.6572,57,93,0
166.66182,166.7683,56,94,0
166.43959,166.87941,52,92,0
166.77293,166.87941,59,95,0
167.32849,167.43497,57,99,0
167.43959,167.54608,59,99,0
167.5507,167.6572,57,100,0
167.32849,167.7683,54,99,0
167.66182,167.7683,59,101,0
168.21738,168.32385,56,105,0
168.32849,168.43497,57,106,0
168.43959,168.54608,59,106,0
168.5507,168.65718,57,107,0
168.66182,168.7683,56,108,0
168.77293,168.87941,59,109,0
168.88403,168.99052,64,110,0
168.99515,169.10164,68,110,0
169.10626,169.21274,69,110,0
169.21738,169.32385,68,110,0
169.32848,169.43497,66,110,0
169.43959,169.54608,68,110,0
169.10626,169.99052,71,110,0
169.5507,169.99052,69,110,0
169.99515,170.10162,69,110,0
170.10626,170.21274,68,110,0
170.21738,170.32385,66,110,0
170.32848,170.43497,68,110,0
169.99515,170.87941,71,110,0
170.43959,170.87941,69,110,0
170.88403,171.11534,69,110,0
170.88403,171.11534,71,110,0
171.12025,171.35156,68,110,0
171.12025,171.35156,71,110,0
171.35648,171.58777,66,110,0
171.35648,171.58777,69,110,0
171.35648,171.58777,71,110,0
171.5927,171.82399,64,110,0
171.5927,171.82399,68,110,0
171.5927,171.82399,71,110,0
171.82892,172.07372,63,110,0
171.82892,172.07372,66,110,0
171.82892,172.07372,71,110,0
172.07892,172.32372,61,110,0
172.07892,172.32372,64,110,0
172.07892,172.32372,71,110,0
172.32892,172.82372,59,120,0
172.32892,172.82372,63,120,0
172.32892,172.82372,71,120,0
175.10669,175.4354,64,80,0
175.44003,175.54651,63,80,0
175.55113,175.87984,61,80,0
175.88448,175.99095,63,80,0
175.99557,176.4354,64,80,0
176.88448,177.21317,54,80,0
177.2178,177.32428,53,80,0
177.32892,177.65762,54,80,0
177.66225,177.76872,52,80,0
177.77336,178.21317,49,80,0
178.2178,178.67453,47,80,0
178.67934,179.02069,64,70,0
178.67934,179.02069,68,70,0
179.0255,179.13606,59,70,0
179.0255,179.13606,66,70,0
179.14088,179.49588,56,70,0
179.14088,179.49588,64,70,0
179.50087,179.61588,59,70,0
179.50087,179.61588,66,70,0
179.62088,180.09587,64,70,0
179.62088,180.09587,68,70,0
180.10088,180.31847,71,110,0
180.3231,180.5407,59,110,0
180.54532,180.76291,64,110,0
180.76755,180.98514,52,110,0
180.98976,181.20735,59,110,0
181.21199,181.42958,47,110,0
181.4342,181.6518,40,110,0
181.65643,181.87402,52,80,0
181.65643,181.87402,56,80,0
181.65643,181.87402,59,80,0
181.87865,182.09625,40,80,0
182.10088,182.31847,52,80,0
182.10088,182.31847,56,80,0
182.10088,182.31847,59,80,0
182.3231,182.5407,52,80,0
182.3231,182.5407,56,80,0
182.3231,182.5407,59,80,0
182.54532,182.76291,52,80,0
182.54532,182.76291,56,80,0
182.54532,182.76291,59,80,0
182.76755,182.98514,40,80,0
182.98976,183.20735,52,80,0
182.98976,183.20735,57,80,0
182.98976,183.20735,61,80,0
183.21199,183.42958,52,80,0
183.21199,183.42958,57,80,0
183.21199,183.42958,61,80,0
183.4342,183.6518,52,80,0
183.4342,183.6518,57,80,0
183.4342,183.6518,61,80,0
183.65643,183.87402,40,80,0
183.87865,184.09624,52,80,0
183.87865,184.09624,54,80,0
183.87865,184.09624,57,80,0
183.87865,184.09624,59,80,0
184.10088,184.31847,52,80,0
184.10088,184.31847,54,80,0
184.10088,184.31847,57,80,0
184.10088,184.31847,59,80,0
184.32309,184.5407,52,80,0
184.32309,184.5407,54,80,0
184.32309,184.5407,57,80,0
184.32309,184.5407,59,80,0
184.54532,184.76291,40,80,0
184.76753,184.98514,52,80,0
184.76753,184.98514,56,80,0
184.76753,184.98514,59,80,0
184.98976,185.20735,52,80,0
184.98976,185.20735,56,80,0
184.98976,185.20735,59,80,0
185.21199,185.42958,52,80,0
185.21199,185.42958,56,80,0
185.21199,185.42958,59,80,0
185.4342,185.6518,40,80,0
185.65643,185.87402,52,81,0
185.65643,185.87402,56,81,0
185.65643,185.87402,59,81,0
185.87865,186.09624,52,83,0
185.87865,186.09624,56,83,0
185.87865,186.09624,59,83,0
186.10088,186.31847,52,85,0
186.10088,186.31847,56,85,0
186.10088,186.31847,59,85,0
186.32309,186.54068,40,87,0
186.54532,186.76291,52,89,0
186.54532,186.76291,57,89,0
186.54532,186.76291,61,89,0
186.76753,186.98512,52,90,0
186.76753,186.98512,57,90,0
186.76753,186.98512,61,90,0
186.98976,187.20735,52,92,0
186.98976,187.20735,57,92,0
186.98976,187.20735,61,92,0
187.21198,187.42958,40,94,0
187.4342,187.6518,52,96,0
187.4342,187.6518,54,96,0
187.4342,187.6518,57,96,0
187.4342,187.6518,59,96,0
187.65642,187.87402,52,98,0
187.65642,187.87402,54,98,0
187.65642,187.87402,57,98,0
187.65642,187.87402,59,98,0
187.87865,188.09624,52,100,0
187.87865,188.09624,54,100,0
187.87865,188.09624,57,100,0
187.87865,188.09624,59,100,0
188.10088,188.20735,40,80,0
188.21198,188.31847,42,82,0
188.32309,188.42957,44,84,0
188.4342,188.54068,45,86,0
188.54532,188.6518,44,88,0
188.65642,188.76291,45,90,0
188.76753,188.87402,47,92,0
188.87865,188.98512,49,94,0
188.98976,189.09624,47,96,0
189.10088,189.20735,49,98,0
189.21198,189.31847,51,100,0
189.32309,189.42957,52,102,0
189.4342,189.54068,51,104,0
189.54532,189.6518,52,106,0
189.65642,189.76291,54,108,0
189.76753,189.87401,56,110,0
189.87865,190.09624,47,110,0
189.87865,190.09624,54,110,0
189.87865,190.09624,57,110,0
190.10086,190.54068,35,110,0
190.10086,190.54068,47,110,0
190.54532,191.09624,47,110,0
190.54532,191.09624,35,110,0
191.10086,191.20735,47,110,0
191.10086,191.20735,54,110,0
191.10086,191.20735,57,110,0
191.21198,191.54068,47,110,0
191.21198,191.54068,54,110,0
191.21198,191.54068,57,110,0
191.5453,191.6518,47,110,0
191.5453,191.6518,54,110,0
191.5453,191.6518,57,110,0
191.65642,191.76291,52,110,0
191.76753,191.87401,54,80,0
191.87865,191.98512,56,82,0
191.98976,192.09624,57,84,0
192.10086,192.20735,56,86,0
192.21198,192.31845,57,88,0
192.32309,192.42957,59,91,0
192.4342,192.54068,61,93,0
192.5453,192.6518,59,95,0
192.65642,192.76291,61,97,0
192.76753,192.87401,63,99,0
192.87865,192.98512,64,102,0
192.98975,193.09624,63,104,0
193.10086,193.20735,64,106,0
193.21198,193.31845,66,108,0
193.32309,193.42957,68,110,0
193.4342,193.6518,59,120,0
193.4342,193.6518,66,120,0
193.4342,193.6518,69,120,0
193.65642,194.09624,47,120,0
193.65642,194.09624,59,120,0
194.10086,194.6518,59,120,0
194.10086,194.6518,47,120,0
194.65642,194.7629,59,120,0
194.65642,194.7629,66,120,0
194.65642,194.7629,69,120,0
194.76753,195.09624,59,120,0
194.76753,195.09624,66,120,0
194.76753,195.09624,69,120,0
195.10086,195.20734,59,120,0
195.10086,195.20734,66,120,0
195.10086,195.20734,69,120,0
195.21198,195.6518,61,120,0
195.21198,195.6518,64,120,0
195.21198,195.6518,68,120,0
195.87865,196.09624,57,80,0
195.87865,196.09624,69,80,0
196.10086,196.54068,57,80,0
196.10086,196.54068,69,80,0
196.76753,196.98512,54,80,0
196.76753,196.98512,66,80,0
196.98975,197.20734,54,80,0
196.98975,197.20734,66,80,0
197.21198,197.42957,59,80,0
197.21198,197.42957,66,80,0
197.43419,197.65178,59,80,0
197.43419,197.65178,66,80,0
197.65642,197.87401,52,80,0
197.65642,197.87401,66,80,0
197.87863,198.31845,47,80,0
197.87863,198.31845,59,80,0
198.76753,199.20734,51,70,0
199.43419,199.65178,52,70,0
199.65642,200.09622,52,70,0
200.32307,200.54066,45,70,0
200.5453,200.7629,45,70,0
200.76752,200.98512,47,70,0
200.98975,201.20734,47,70,0
201.21196,201.42957,40,70,0
201.43419,201.87401,40,70,0
202.32307,202.54066,45,110,0
202.32307,202.54066,57,110,0
202.5453,202.7629,71,110,0
202.5453,202.7629,59,110,0
202.76752,203.31845,69,110,0
202.76752,203.31845,57,110,0
203.32307,203.42955,59,110,0
203.43419,203.54066,61,110,0
203.5453,203.65178,62,110,0
203.6564,204.09622,56,110,0
204.32307,204.54066,56,110,0
204.32307,204.54066,68,110,0
204.5453,205.09622,54,110,0
204.5453,205.09622,66,110,0
205.10085,205.20734,56,110,0
205.21196,205.31845,57,110,0
205.32307,205.42955,59,110,0
205.43419,205.65178,52,110,0
205.6564,206.09622,76,80,0
205.6564,206.09622,64,80,0
206.10085,206.54066,64,80,0
206.10085,206.54066,74,80,0
206.54529,206.9851,71,80,0
206.54529,206.9851,64,80,0
206.98975,207.42955,64,80,0
206.98975,207.42955,69,80,0
207.43419,207.65178,64,80,0
207.43419,207.65178,68,80,0
207.6564,207.8859,69,80,0
207.89078,208.12027,68,80,0
208.12515,208.37622,66,80,0
208.38156,208.69406,59,80,0
208.38156,208.69406,71,80,0
208.70071,209.88821,59,80,0
208.70071,209.88821,71,80,0
209.90071,210.48822,64,80,0
209.90071,210.48822,71,80,0
210.50072,210.7183,52,110,0
210.50072,210.7183,64,110,0
210.72293,211.27386,49,110,0
210.72293,211.27386,61,110,0
211.27849,211.38498,62,110,0
211.3896,211.49608,64,110,0
211.50072,211.6072,66,110,0
211.61182,212.05164,47,110,0
211.61182,212.05164,59,110,0
212.27849,212.49608,52,110,0
212.27849,212.49608,64,110,0
212.50072,213.05164,45,110,0
212.50072,213.05164,57,110,0
213.05626,213.16275,59,110,0
213.16737,213.27386,61,110,0
213.27849,213.38496,62,110,0
213.3896,213.8294,44,110,0
213.3896,213.8294,56,110,0
214.05626,214.27386,52,80,0
214.27849,214.38496,54,80,0
214.3896,214.49608,56,80,0
214.50072,214.6072,57,80,0
214.61182,214.7183,59,80,0
214.72293,214.8294,57,80,0
214.83405,214.94052,56,80,0
214.94516,215.05164,54,80,0
215.05626,215.16275,56,80,0
215.16737,215.27386,57,80,0
215.27849,215.38496,59,80,0
215.3896,215.49608,61,80,0
215.5007,215.6072,62,80,0
215.61182,215.7183,61,80,0
215.72293,215.8294,59,80,0
215.83405,215.94052,57,80,0
215.94516,216.05164,59,80,0
216.05626,216.16275,61,80,0
216.16737,216.27385,62,80,0
216.27849,216.38496,64,80,0
216.3896,216.49608,66,80,0
216.5007,216.6072,68,80,0
216.61182,216.7183,69,80,0
216.72293,216.8294,66,80,0
216.83405,216.94052,63,80,0
216.94514,217.05164,64,80,0
217.05626,217.16275,66,80,0
217.16737,217.27385,62,80,0
217.16737,217.38496,52,80,0
217.27849,217.38496,59,80,0
217.3896,217.49608,57,80,0
217.5007,217.6072,61,80,0
217.61182,217.71829,57,80,0
217.72293,217.8294,61,80,0
217.83405,218.05164,52,80,0
218.05626,218.27385,53,80,0
217.83405,218.71829,59,80,0
218.72293,219.16273,57,80,0
218.27849,219.38496,52,80,0
219.16737,219.38496,61,80,0
219.38959,219.6072,64,80,0
219.38959,219.6072,52,80,0
219.61182,219.8294,52,80,0
219.83403,220.05164,53,80,0
219.61182,220.27385,62,80,0
220.27849,220.49608,64,80,0
220.05626,220.71829,52,80,0
220.5007,220.71829,61,80,0
220.72293,220.94052,69,80,0
220.94514,221.16273,64,80,0
221.16737,221.38496,52,80,0
221.16737,221.38496,59,80,0
221.38959,221.60718,52,80,0
221.38959,221.8294,59,80,0
221.61182,221.8294,53,81,0
221.83403,222.49608,52,83,0
222.27847,222.49608,52,87,0
221.83403,222.71829,59,83,0
222.27847,222.71829,59,87,0
222.5007,222.71829,53,89,0
222.72293,223.38496,52,91,0
222.72293,223.60718,59,91,0
223.38959,223.60718,59,97,0
223.38959,223.60718,52,97,0
223.61182,223.8294,53,99,0
223.83403,224.05162,52,101,0
224.05626,224.27385,53,103,0
224.27847,224.38496,52,105,0
223.83403,224.49606,59,101,0
224.38959,224.49606,50,106,0
224.5007,224.71829,49,107,0
224.72292,224.94052,40,109,0
224.94514,225.49606,37,110,0
225.5007,225.60718,38,110,0
225.61182,225.71829,40,110,0
225.72292,225.8294,42,110,0
225.83403,226.27385,35,110,0
226.5007,226.71829,40,110,0
226.72292,227.27385,33,110,0
227.27847,227.38495,35,110,0
227.38959,227.49606,37,110,0
227.5007,227.60718,38,110,0
227.6118,228.05162,32,110,0
228.27847,228.49606,40,110,0
228.5007,228.60718,42,110,0
228.6118,228.71829,44,110,0
228.72292,228.8294,45,110,0
228.83403,228.9405,47,110,0
228.94514,229.05162,45,110,0
229.05624,229.16273,44,110,0
229.16736,229.27385,42,110,0
229.27847,229.38495,44,110,0
229.38959,229.49606,45,110,0
229.5007,229.60718,47,110,0
229.6118,229.71829,49,110,0
229.72292,229.82939,50,110,0
229.83403,229.9405,49,110,0
229.94514,230.05162,47,110,0
230.05624,230.16273,45,110,0
230.16736,230.27385,47,110,0
230.27847,230.38495,49,110,0
230.38959,230.49606,50,109,0
230.50069,230.60718,52,107,0
230.6118,230.71829,54,105,0
230.72292,230.82939,56,103,0
230.83403,230.9405,57,101,0
230.94514,231.05162,54,99,0
231.05624,231.16273,51,97,0
231.16736,231.27383,52,95,0
231.27847,231.38495,54,93,0
231.38959,231.49606,50,91,0
231.50069,231.60718,47,89,0
231.6118,231.71829,49,87,0
231.72292,231.82939,50,85,0
231.83403,231.9405,52,83,0
231.94513,232.05162,40,81,0
232.05624,232.16273,49,80,0
232.16736,232.27383,50,80,0
232.27847,232.38495,52,80,0
232.05624,232.49606,45,80,0
232.38959,232.49606,54,80,0
232.50069,232.71828,52,80,0
232.94513,233.05162,49,80,0
233.05624,233.16273,50,80,0
233.16736,233.27383,52,80,0
232.94513,233.38495,45,80,0
233.27847,233.38495,54,80,0
233.38957,233.60718,52,80,0
233.83403,233.9405,50,80,0
233.94513,234.05162,52,80,0
234.05624,234.16272,54,80,0
233.83403,234.27383,47,80,0
234.16736,234.27383,52,80,0
234.27847,234.49606,52,80,0
234.72292,234.82939,50,80,0
234.83403,234.9405,52,80,0
234.94513,235.05162,54,80,0
234.72292,235.16272,47,80,0
235.05624,235.16272,52,80,0
235.16736,235.60718,52,80,0
235.6118,235.71828,49,80,0
235.72292,235.82939,50,80,0
235.83401,235.9405,52,80,0
235.6118,236.05162,45,80,0
235.94513,236.05162,54,80,0
236.05624,236.27383,52,80,0
236.50069,236.60716,49,80,0
236.6118,236.71828,50,80,0
236.72292,236.82939,52,80,0
236.50069,236.9405,45,80,0
236.83401,236.9405,54,80,0
236.94513,237.16272,52,80,0
237.38957,237.49606,50,80,0
237.50069,237.60716,52,80,0
237.6118,237.71828,54,80,0
237.38957,237.82939,47,80,0
237.72292,237.82939,52,80,0
237.83401,238.0516,52,80,0
238.27846,238.38495,52,80,0
238.38957,238.49606,57,80,0
238.50069,238.60716,52,81,0
238.27846,238.71828,49,80,0
238.6118,238.71828,57,82,0
239.16736,239.27383,54,86,0
239.27846,239.38495,57,87,0
239.38957,239.49605,54,87,0
239.16736,239.60716,50,86,0
239.50069,239.60716,59,88,0
240.05624,240.16272,56,92,0
240.16734,240.27383,57,93,0
240.27846,240.38495,56,94,0
240.05624,240.49605,52,92,0
240.38957,240.49605,59,95,0
240.94513,241.0516,57,99,0
241.05624,241.16272,59,99,0
241.16734,241.27383,57,100,0
240.94513,241.38495,54,99,0
241.27846,241.38495,59,101,0
241.83401,241.94049,56,105,0
241.94513,242.0516,57,106,0
242.05624,242.16272,59,106,0
242.16734,242.27383,57,107,0
242.27846,242.38495,56,108,0
242.38957,242.49605,59,109,0
242.50069,242.60716,64,110,0
242.61179,242.71828,68,110,0
242.7229,242.82939,69,110,0
242.83401,242.94049,68,110,0
242.94513,243.0516,66,110,0
243.05624,243.16272,68,110,0
242.7229,243.60716,71,110,0
243.16734,243.60716,69,110,0
243.61179,243.71828,69,110,0
243.7229,243.82939,68,110,0
243.83401,243.94049,66,110,0
243.94513,244.0516,68,110,0
243.61179,244.49605,71,110,0
244.05623,244.49605,69,110,0
244.50069,244.73198,69,110,0
244.50069,244.73198,71,110,0
244.7369,244.9682,68,110,0
244.7369,244.9682,71,110,0
244.97311,245.20442,66,110,0
244.97311,245.20442,69,110,0
244.97311,245.20442,71,110,0
245.20934,245.44064,64,110,0
245.20934,245.44064,68,110,0
245.20934,245.44064,71,110,0
245.44556,245.69035,63,110,0
245.44556,245.69035,66,110,0
245.44556,245.69035,71,110,0
245.69556,245.94035,61,110,0
245.69556,245.94035,64,110,0
245.69556,245.94035,71,110,0
245.94556,246.44035,59,120,0
245.94556,246.44035,63,120,0
245.94556,246.44035,71,120,0
248.72334,249.05203,64,80,0
249.05667,249.16315,63,80,0
249.16779,249.49649,61,80,0
249.50111,249.60759,63,80,0
249.61223,250.05203,64,80,0
250.50111,250.82982,54,80,0
250.83444,250.94093,53,80,0
250.94556,251.27426,54,80,0
251.27888,251.38538,52,80,0
251.39,251.82982,49,80,0
251.83444,252.27426,47,80,0
252.27888,252.62024,64,70,0
252.27888,252.62024,68,70,0
252.62505,252.73561,59,70,0
252.62505,252.73561,66,70,0
252.74043,253.09543,56,70,0
252.74043,253.09543,64,70,0
253.10043,253.21542,59,70,0
253.10043,253.21542,66,70,0
253.22043,253.69542,64,70,0
253.22043,253.69542,68,70,0
253.70042,253.91801,71,110,0
253.92265,254.14024,59,110,0
254.14487,254.36246,64,110,0
254.3671,254.58469,52,110,0
254.58931,254.8069,59,110,0
254.81154,255.02913,47,110,0
255.03375,255.25134,40,110,0
255.25598,255.47357,52,80,0
255.25598,255.47357,56,80,0
255.25598,255.47357,59,80,0
255.4782,255.6958,40,80,0
255.70042,255.91801,52,80,0
255.70042,255.91801,56,80,0
255.70042,255.91801,59,80,0
255.92265,256.14023,52,80,0
255.92265,256.14023,56,80,0
255.92265,256.14023,59,80,0
256.14487,256.36246,52,80,0
256.14487,256.36246,56,80,0
256.14487,256.36246,59,80,0
256.3671,256.5847,40,80,0
256.58932,256.80692,52,80,0
256.58932,256.80692,57,80,0
256.58932,256.80692,61,80,0
256.81152,257.0291,52,80,0
256.81152,257.0291,57,80,0
256.81152,257.0291,61,80,0
257.03375,257.25134,52,80,0
257.03375,257.25134,57,80,0
257.03375,257.25134,61,80,0
257.25598,257.47357,40,80,0
257.4782,257.6958,52,80,0
257.4782,257.6958,54,80,0
257.4782,257.6958,57,80,0
257.4782,257.6958,59,80,0
257.7004,257.918,52,80,0
257.7004,257.918,54,80,0
257.7004,257.918,57,80,0
257.7004,257.918,59,80,0
257.92264,258.14023,52,80,0
257.92264,258.14023,54,80,0
257.92264,258.14023,57,80,0
257.92264,258.14023,59,80,0
258.14487,258.36246,40,80,0
258.3671,258.5847,52,80,0
258.3671,258.5847,56,80,0
258.3671,258.5847,59,80,0
258.58932,258.80692,52,80,0
258.58932,258.80692,56,80,0
258.58932,258.80692,59,80,0
258.81152,259.0291,52,80,0
258.81152,259.0291,56,80,0
258.81152,259.0291,59,80,0
259.03375,259.25134,40,80,0
259.25598,259.47357,52,81,0
259.25598,259.47357,56,81,0
259.25598,259.47357,59,81,0
259.4782,259.6958,52,83,0
259.4782,259.6958,56,83,0
259.4782,259.6958,59,83,0
259.7004,259.918,52,85,0
259.7004,259.918,56,85,0
259.7004,259.918,59,85,0
259.92264,260.14023,40,87,0
260.14487,260.36246,52,89,0
260.14487,260.36246,57,89,0
260.14487,260.36246,61,89,0
260.3671,260.5847,52,90,0
260.3671,260.5847,57,90,0
260.3671,260.5847,61,90,0
260.5893,260.80692,52,92,0
260.5893,260.80692,57,92,0
260.5893,260.80692,61,92,0
260.81152,261.0291,40,94,0
261.03375,261.25134,52,96,0
261.03375,261.25134,54,96,0
261.03375,261.25134,57,96,0
261.03375,261.25134,59,96,0
261.25598,261.47357,52,98,0
261.25598,261.47357,54,98,0
261.25598,261.47357,57,98,0
261.25598,261.47357,59,98,0
261.4782,261.6958,52,100,0
261.4782,261.6958,54,100,0
261.4782,261.6958,57,100,0
261.4782,261.6958,59,100,0
261.7004,261.8069,40,80,0
261.81152,261.918,42,82,0
261.92264,262.0291,44,84,0
262.03375,262.14023,45,86,0
262.14487,262.25134,44,88,0
262.25598,262.36246,45,90,0
262.3671,262.47357,47,92,0
262.47818,262.5847,49,94,0
262.5893,262.6958,47,96,0
262.7004,262.8069,49,98,0
262.81152,262.918,51,100,0
262.92264,263.0291,52,102,0
263.03375,263.14023,51,104,0
263.14487,263.25134,52,106,0
263.25598,263.36246,54,108,0
263.3671,263.47357,56,110,0
263.47818,263.6958,47,110,0
263.47818,263.6958,54,110,0
263.47818,263.6958,57,110,0
263.7004,264.14023,35,110,0
263.7004,264.14023,47,110,0
264.14487,264.69577,47,110,0
264.14487,264.69577,35,110,0
264.7004,264.8069,47,110,0
264.7004,264.8069,54,110,0
264.7004,264.8069,57,110,0
264.81152,265.14023,47,110,0
264.81152,265.14023,54,110,0
264.81152,265.14023,57,110,0
265.14487,265.25134,47,110,0
265.14487,265.25134,54,110,0
265.14487,265.25134,57,110,0
265.25598,265.36246,52,110,0
265.3671,265.47357,54,80,0
265.47818,265.5847,56,82,0
265.5893,265.69577,57,84,0
265.7004,265.8069,56,86,0
265.81152,265.918,57,88,0
265.92264,266.0291,59,91,0
266.03375,266.14023,61,93,0
266.14487,266.25134,59,95,0
266.25598,266.36246,61,97,0
266.36707,266.47357,63,99,0
266.47818,266.5847,64,102,0
266.5893,266.69577,63,104,0
266.7004,266.8069,64,106,0
266.81152,266.918,66,108,0
266.92264,267.0291,68,110,0
267.03375,267.25134,59,120,0
267.03375,267.25134,66,120,0
267.03375,267.25134,69,120,0
267.25598,267.69577,47,120,0
267.25598,267.69577,59,120,0
267.7004,268.25134,59,120,0
267.7004,268.25134,47,120,0
268.25598,268.36246,59,120,0
268.25598,268.36246,66,120,0
268.25598,268.36246,69,120,0
268.36707,268.69577,59,120,0
268.36707,268.69577,66,120,0
268.36707,268.69577,69,120,0
268.7004,268.8069,59,120,0
268.7004,268.8069,66,120,0
268.7004,268.8069,69,120,0
268.81152,269.25134,61,120,0
268.81152,269.25134,64,120,0
268.81152,269.25134,68,120,0
269.47818,269.69577,57,80,0
269.47818,269.69577,69,80,0
269.7004,270.14023,57,80,0
269.7004,270.14023,69,80,0
270.36707,270.58466,54,80,0
270.36707,270.58466,66,80,0
270.5893,270.8069,54,80,0
270.5893,270.8069,66,80,0
270.81152,271.0291,59,80,0
270.81152,271.0291,66,80,0
271.03375,271.25134,59,80,0
271.03375,271.25134,66,80,0
271.25595,271.47354,52,80,0
271.25595,271.47354,66,80,0
271.47818,271.918,47,80,0
271.47818,271.918,59,80,0
272.36707,272.8069,51,70,0
273.03375,273.25134,52,70,0
273.25595,273.69577,52,70,0
273.92264,274.14023,45,70,0
274.14484,274.36246,45,70,0
274.36707,274.58466,47,70,0
274.5893,274.8069,47,70,0
274.81152,275.0291,40,70,0
275.03375,275.47354,40,70,0
275.95062,276.8906,40,70,0
275.95062,276.8906,52,70,0
276.8955,277.1268,52,70,0
277.1317,277.363,57,70,0
277.36795,277.59924,57,70,0
276.8955,277.83545,49,70,0
277.60416,277.83545,52,70,0
277.8404,278.78033,44,70,0
277.8404,278.78033,52,70,0
278.78525,279.01657,52,70,0
279.02148,279.25278,57,70,0
278.78525,279.489,45,70,0
279.2577,279.489,57,70,0
279.49393,279.72522,45,70,0
279.73013,280.70068,42,70,0
279.73013,280.70068,45,70,0
280.70575,280.95053,45,70,0
280.95575,281.20053,52,70,0
281.20575,281.45053,52,70,0
280.70575,281.70053,37,70,0
281.45575,281.70053,45,70,0
281.70575,281.96118,38,70,0
281.70575,281.96118,50,70,0
281.9666,282.22205,40,70,0
281.9666,282.22205,52,70,0
282.22748,282.49454,42,70,0
282.22748,282.49454,54,70,0
282.5002,282.8266,39,70,0
282.5002,282.8266,51,70,0
282.83356,284.15994,40,70,0
282.83356,284.15994,52,70,0
284.16687,286.3127,52,70,0
284.2502,286.3127,57,70,0
284.33356,286.3127,60,70,0
286.33356,286.55115,40,120,0
286.33356,286.55115,52,120,0
286.55576,286.99557,36,120,0
286.55576,286.99557,48,120,0
288.11133,288.32892,40,80,0
288.33356,288.88446,36,80,0
288.8891,288.99557,38,80,0
289.0002,289.1067,40,80,0
289.11133,289.2178,41,80,0
289.22244,289.66226,35,80,0
289.8891,290.1067,38,80,0
290.11133,290.66223,35,80,0
290.66687,290.77335,36,80,0
290.77798,290.88446,38,80,0
290.8891,290.99557,40,80,0
291.0002,291.2178,33,80,0
291.22244,291.44003,45,80,0
291.44464,291.66223,45,80,0
291.66687,291.88446,43,80,0
291.8891,292.1067,45,80,0
292.11133,292.32892,43,80,0
292.33353,292.4215,41,80,0
292.3891,292.49094,43,80,0
292.44464,292.53723,41,80,0
292.5002,292.58817,43,80,0
292.55576,292.64374,41,80,0
292.61133,292.69928,43,80,0
292.66687,292.75482,40,80,0
292.72244,292.77335,41,80,0
293.0002,293.2178,43,80,0
293.22244,293.44003,43,80,0
293.44464,293.66223,41,80,0
293.66687,293.88446,43,80,0
293.8891,294.1067,41,80,0
294.11133,294.32892,40,80,0
294.33353,294.44003,38,80,0
294.44464,294.55112,36,80,0
294.55576,294.66223,48,80,0
294.66687,294.77335,47,80,0
294.77798,294.88446,45,80,0
294.8891,294.99557,43,80,0
295.0002,295.55112,48,80,0
295.55576,295.66223,47,80,0
295.66687,295.77335,45,80,0
295.77798,295.88446,43,80,0
295.8891,296.44003,46,80,0
296.44464,296.55112,45,80,0
296.55576,296.66223,43,80,0
296.66687,296.77335,41,80,0
296.77798,297.32892,46,80,0
297.33353,297.44,45,80,0
297.44464,297.55112,43,80,0
297.55576,297.66223,41,80,0
297.66687,297.88446,40,80,0
297.8891,298.1067,41,80,0
298.11133,298.32892,38,80,0
298.33353,298.55112,40,80,0
298.55576,298.77335,40,80,0
298.77798,298.99557,38,80,0
299.0002,299.2178,40,80,0
299.2224,299.44,38,80,0
299.44464,299.5326,37,80,0
299.5002,299.6067,38,80,0
299.55576,299.6391,37,80,0
299.6113,299.69928,38,80,0
299.66687,299.75946,37,80,0
299.7224,299.8104,38,80,0
299.77798,299.86594,35,80,0
299.83353,299.88446,37,80,0
300.1113,300.32892,38,80,0
300.33353,300.55112,50,80,0
300.33353,300.55112,53,80,0
300.55576,300.66223,52,80,0
300.55576,300.66223,55,80,0
300.66687,300.77335,53,80,0
300.66687,300.77335,57,80,0
300.77798,300.88446,55,80,0
300.77798,300.88446,58,80,0
300.8891,300.99557,53,80,0
300.8891,300.99557,57,80,0
301.0002,301.1067,52,80,0
301.0002,301.1067,55,80,0
301.1113,301.2178,50,80,0
301.1113,301.2178,53,80,0
301.2224,301.77335,59,80,0
301.2224,301.77335,55,80,0
301.77798,301.88446,53,80,0
301.77798,301.88446,57,80,0
301.8891,301.99557,52,80,0
301.8891,301.99557,55,80,0
302.00018,302.1067,50,80,0
302.00018,302.1067,53,80,0
302.1113,302.3289,52,80,0
302.1113,302.3289,55,80,0
302.55576,302.66223,53,80,0
302.55576,302.66223,57,80,0
302.66687,302.77335,52,80,0
302.66687,302.77335,55,80,0
302.77798,302.88446,50,80,0
302.77798,302.88446,53,80,0
302.8891,302.99557,49,80,0
302.8891,302.99557,52,80,0
303.00018,303.55112,57,80,0
303.00018,303.55112,53,80,0
303.55576,303.66223,52,80,0
303.55576,303.66223,55,80,0
303.66687,303.77335,50,80,0
303.66687,303.77335,53,80,0
303.77798,303.88446,49,80,0
303.77798,303.88446,52,80,0
303.8891,304.1067,50,80,0
303.8891,304.1067,53,80,0
304.1113,304.3289,62,80,0
304.1113,304.3289,53,80,0
304.55576,304.77335,55,80,0
304.55576,304.77335,64,80,0
304.77798,304.99557,55,80,0
304.77798,304.99557,64,80,0
305.00018,305.21777,53,80,0
305.00018,305.21777,62,80,0
305.2224,305.44,55,80,0
305.2224,305.44,64,80,0
305.44464,305.66223,53,80,0
305.44464,305.66223,62,80,0
305.66687,306.1067,52,80,0
305.66687,306.1067,60,80,0
306.33353,306.55112,53,80,0
306.33353,306.55112,62,80,0
306.55576,306.77335,55,80,0
306.55576,306.77335,62,80,0
306.77798,306.99557,52,80,0
306.77798,306.99557,60,80,0
307.00018,307.21777,50,80,0
307.00018,307.21777,62,80,0
307.2224,307.44,53,80,0
307.2224,307.44,60,80,0
307.44464,307.66223,60,80,0
307.44464,307.88446,52,80,0
307.66687,307.88446,59,80,0
307.88907,307.99557,60,80,0
308.00018,308.10666,59,81,0
308.1113,308.21777,57,82,0
307.88907,308.3289,45,80,0
308.2224,308.3289,56,84,0
308.33353,308.88446,60,85,0
308.88907,308.99557,59,92,0
309.00018,309.10666,57,93,0
309.1113,309.21777,56,94,0
309.2224,309.77335,59,96,0
309.77795,309.88446,59,102,0
309.88907,309.99557,57,104,0
308.77795,310.10666,52,90,0
310.00018,310.10666,56,105,0
310.1113,310.3289,52,106,0
310.1113,310.3289,59,106,0
310.33353,310.55112,50,109,0
310.33353,310.55112,56,109,0
310.55576,310.99554,48,110,0
310.55576,310.99554,57,110,0
311.00018,311.21777,49,110,0
311.2224,311.44,57,110,0
311.00018,311.66223,64,110,0
311.66687,311.88446,62,110,0
311.88907,312.10666,62,110,0
311.44464,312.3289,50,110,0
312.1113,312.3289,60,110,0
312.33353,312.55112,62,110,0
312.55576,312.77335,60,110,0
312.33353,313.21777,55,110,0
312.77795,313.21777,59,110,0
313.44464,313.66223,60,110,0
313.2224,313.88446,48,110,0
313.66684,313.88446,60,110,0
313.88907,314.10666,58,110,0
313.88907,314.10666,64,110,0
314.1113,314.3289,57,110,0
314.1113,314.3289,60,110,0
314.33353,314.55112,57,110,0
314.55576,314.77335,59,110,0
314.77795,314.99554,60,110,0
315.00018,315.21777,53,110,0
315.2224,315.66223,65,110,0
315.66684,315.88443,64,110,0
315.88907,316.3289,62,110,0
316.1113,316.3289,43,110,0
316.33353,316.77335,60,110,0
316.33353,316.88443,40,120,0
316.88907,316.99554,41,110,0
317.00018,317.10666,43,110,0
317.1113,317.21777,45,110,0
317.2224,317.66223,38,110,0
317.88907,318.10666,43,110,0
318.1113,318.66223,38,120,0
318.66684,318.77332,40,110,0
318.77795,318.88443,41,110,0
318.88907,318.99554,43,110,0
319.00018,319.21777,36,110,0
319.2224,319.44,46,110,0
319.4446,319.66223,47,110,0
319.66684,319.88443,45,110,0
319.88907,319.9909,43,110,0
319.9446,320.05112,45,110,0
320.00018,320.10202,43,110,0
320.05573,320.16223,45,110,0
320.1113,320.21777,43,110,0
320.16684,320.2687,45,110,0
320.2224,320.3196,41,110,0
320.27795,320.3289,43,110,0
320.33353,320.66223,45,110,0
320.66684,320.77332,43,110,0
320.77795,320.99554,41,110,0
321.00018,321.10666,40,110,0
321.1113,321.21777,38,110,0
321.2224,321.88443,46,120,0
321.88907,322.10666,45,110,0
322.1113,322.55112,43,110,0
322.55573,322.99554,41,110,0
323.00018,323.21777,40,110,0
323.2224,323.44,60,110,0
323.2224,323.44,52,110,0
323.4446,323.6622,60,110,0
323.4446,323.88443,51,110,0
323.66684,323.88443,58,110,0
323.88907,324.10666,58,110,0
323.88907,324.3289,50,110,0
324.1113,324.3289,57,110,0
324.3335,324.5511,57,110,0
324.55573,324.6622,55,110,0
324.3335,324.77332,48,110,0
324.66684,324.77332,54,110,0
324.77795,325.21777,46,110,0
324.77795,325.21777,58,110,0
325.2224,325.44,45,110,0
325.4446,325.6622,46,110,0
325.66684,326.10666,48,110,0
325.88907,326.10666,58,110,0
326.1113,326.3289,58,110,0
326.3335,326.44,57,110,0
326.1113,326.5511,46,110,0
326.4446,326.5511,55,110,0
326.55573,326.77332,45,110,0
326.55573,326.77332,57,110,0
326.77795,326.99554,40,110,0
326.77795,326.99554,60,110,0
327.00018,327.21777,60,110,0
327.00018,327.21777,41,110,0
327.22238,327.44,58,110,0
327.22238,327.44,46,110,0
327.4446,327.6622,43,110,0
327.66684,327.88443,46,109,0
327.88907,328.10666,45,107,0
328.1113,328.3289,50,106,0
328.1113,328.3289,41,106,0
328.3335,328.88443,47,104,0
328.88907,328.99554,48,100,0
329.00018,329.10666,50,99,0
328.3335,329.21777,40,104,0
329.11127,329.21777,52,99,0
329.22238,329.77332,40,98,0
329.77795,329.88443,42,94,0
329.88907,329.99554,43,93,0
329.22238,330.10666,49,98,0
330.00018,330.10666,45,92,0
330.11127,330.6622,47,92,0
330.66684,330.77332,47,88,0
330.77795,330.88443,48,87,0
330.11127,330.99554,38,92,0
330.88907,330.99554,50,86,0
331.00018,331.10666,55,85,0
331.11127,331.21777,53,84,0
331.22238,331.32886,52,84,0
331.00018,331.43997,47,85,0
331.3335,331.43997,50,83,0
331.00018,331.5511,38,85,0
331.4446,331.6622,53,82,0
331.55573,331.6622,40,81,0
331.66684,331.77332,41,81,0
331.77795,331.88443,43,80,0
331.88907,332.10666,36,80,0
332.3335,332.43997,48,80,0
332.4446,332.5511,47,80,0
332.55573,332.6622,45,80,0
332.66684,332.77332,43,80,0
332.77795,332.99554,53,80,0
332.88907,332.99554,59,80,0
333.00015,333.10666,57,80,0
333.11127,333.21777,55,80,0
333.22238,333.77332,59,80,0
333.77795,333.88443,57,80,0
333.88907,333.99554,55,80,0
334.00015,334.10666,53,80,0
334.11127,334.21777,55,80,0
334.22238,334.32886,53,80,0
334.3335,334.43997,52,80,0
334.11127,334.5511,59,80,0
334.4446,334.5511,50,80,0
334.55573,334.6622,60,80,0
334.55573,334.77332,48,80,0
334.66684,334.77332,59,80,0
334.77795,334.88443,57,80,0
334.88907,334.99554,55,80,0
335.00015,335.21774,60,80,0
335.22238,335.43997,59,80,0
335.4446,335.6622,60,80,0
335.66684,335.88443,50,80,0
335.66684,335.88443,59,80,0
335.88904,335.9909,57,80,0
335.9446,336.0511,59,80,0
336.00015,336.10202,57,80,0
335.88904,336.10666,50,80,0
336.05573,336.15295,59,80,0
336.11127,336.19925,57,80,0
336.16684,336.25943,59,80,0
336.22238,336.3196,55,80,0
336.11127,336.32886,48,80,0
336.27795,336.32886,57,80,0
336.3335,336.5511,50,80,0
336.55573,336.77332,59,80,0
336.55573,336.77332,48,80,0
336.77795,336.99554,59,80,0
336.77795,337.21774,47,80,0
337.00015,337.21774,57,80,0
337.22238,337.43997,59,80,0
337.4446,337.6622,48,80,0
337.4446,337.6622,57,80,0
337.66684,337.88443,55,80,0
337.66684,337.88443,48,80,0
337.88904,337.99554,57,80,0
337.88904,338.10663,47,80,0
338.00015,338.10663,59,80,0
338.11127,338.32886,45,80,0
338.11127,338.32886,52,80,0
338.3335,338.5511,43,80,0
338.3335,338.5511,52,80,0
338.55573,338.77332,42,80,0
338.77795,338.88443,40,80,0
338.55573,338.99554,50,80,0
338.88904,338.99554,38,80,0
339.00015,339.21774,43,80,0
339.00015,339.21774,50,80,0
339.22238,339.43997,53,88,0
339.22238,339.43997,55,88,0
339.4446,339.6622,52,97,0
339.4446,339.6622,55,97,0
339.66684,339.77332,50,106,0
339.66684,339.88443,60,106,0
339.77792,339.88443,48,110,0
339.88904,340.10663,41,110,0
339.88904,340.10663,53,110,0
340.3335,340.5511,29,110,0
340.77792,340.99554,31,110,0
341.22238,341.43997,43,110,0
341.66684,341.88443,45,110,0
342.11127,342.32886,33,110,0
342.55573,342.6622,35,110,0
343.00015,343.10663,47,110,0
343.4446,343.6622,36,110,0
343.6668,343.88443,50,110,0
343.88904,343.9955,48,110,0
344.00015,344.10663,50,110,0
344.11127,344.21774,52,110,0
344.22238,344.32886,53,110,0
344.3335,344.5511,55,110,0
344.55573,344.77332,41,110,0
344.77792,344.8844,38,110,0
344.88904,344.9955,40,110,0
345.00015,345.10663,41,110,0
345.11127,345.21774,43,110,0
345.22238,345.43997,41,110,0
345.4446,345.6622,52,110,0
345.6668,345.77332,50,110,0
345.77792,345.8844,52,110,0
345.88904,345.9955,53,110,0
346.00015,346.10663,55,110,0
346.11127,346.32886,57,110,0
346.3335,346.5511,45,110,0
346.5557,346.6622,40,110,0
346.6668,346.77332,42,110,0
346.77792,346.8844,43,110,0
346.88904,346.9955,45,110,0
347.00015,347.21774,42,110,0
347.22238,347.43997,57,110,0
347.4446,347.5511,54,110,0
347.5557,347.6622,56,110,0
347.6668,347.77332,57,110,0
347.77792,347.8844,59,110,0
347.88904,348.10663,44,110,0
348.11127,348.32886,59,110,0
348.3335,348.43997,56,110,0
348.4446,348.5511,57,110,0
348.5557,348.6622,59,110,0
348.6668,348.7733,60,110,0
348.77792,348.9955,45,110,0
349.00015,349.21774,60,110,0
349.22238,349.32886,57,110,0
349.3335,349.43997,59,110,0
349.44458,349.5511,60,110,0
349.5557,349.6622,62,110,0
349.6668,349.8844,47,110,0
349.88904,350.10663,62,110,0
350.11127,350.21774,59,110,0
350.11127,350.32886,48,110,0
350.22238,350.32886,60,110,0
350.3335,350.5511,52,110,0
350.3335,350.5511,48,110,0
350.5557,350.6622,47,110,0
350.5557,350.7733,54,110,0
350.6668,350.7733,49,110,0
350.77792,350.8844,51,110,0
350.88904,350.9955,52,110,0
351.00015,351.10663,51,110,0
351.11127,351.21774,52,110,0
351.22238,351.32886,54,110,0
351.3335,351.43997,55,110,0
351.44458,351.5511,54,110,0
351.5557,351.66217,55,110,0
351.6668,351.7733,57,110,0
351.77792,351.8844,55,110,0
351.88904,351.9955,57,110,0
352.00015,352.10663,59,110,0
352.11127,352.21774,60,110,0
352.22238,352.32886,63,110,0
352.3335,352.43997,52,110,0
352.3335,352.43997,64,110,0
352.44458,352.5511,54,110,0
352.5557,352.66217,55,110,0
352.6668,352.7733,57,110,0
352.77792,352.8844,67,120,0
352.77792,352.9955,52,120,0
352.88904,352.9955,66,110,0
353.00015,353.10663,64,110,0
353.11127,353.21774,62,110,0
353.22238,353.32886,64,110,0
353.33347,353.43997,62,110,0
353.44458,353.5511,60,110,0
353.5557,353.66217,59,110,0
353.6668,353.7733,60,110,0
353.77792,353.8844,59,110,0
353.88904,353.9955,57,110,0
354.00015,354.10663,55,110,0
354.11127,354.21774,50,120,0
354.22238,354.32886,52,110,0
354.33347,354.43997,53,110,0
354.11127,354.5511,57,120,0
354.44458,354.5511,55,110,0
354.5557,354.66217,53,110,0
354.6668,354.7733,55,110,0
354.77792,354.8844,57,110,0
354.88904,354.9955,59,110,0
355.00015,355.10663,57,110,0
355.11127,355.21774,59,110,0
355.22238,355.32886,60,110,0
355.33347,355.43997,62,110,0
355.44458,355.55106,60,110,0
355.5557,355.66217,62,110,0
355.6668,355.7733,64,110,0
355.77792,355.8844,66,110,0
355.88904,355.9955,67,110,0
355.88904,355.9955,55,110,0
356.00015,356.10663,57,110,0
356.11127,356.21774,59,110,0
356.22235,356.32886,60,110,0
356.33347,356.43997,71,121,0
356.33347,356.55106,55,121,0
356.44458,356.55106,69,110,0
356.5557,356.66217,67,110,0
356.6668,356.7733,66,110,0
356.77792,356.8844,67,110,0
356.88904,356.9955,66,110,0
357.00015,357.10663,64,110,0
357.11127,357.21774,62,110,0
357.33347,357.43997,59,110,0
357.44458,357.55106,57,110,0
357.5557,357.66217,55,110,0
357.22235,357.7733,64,122,0
357.77792,357.8844,66,110,0
357.88904,357.9955,67,110,0
358.00015,358.10663,69,110,0
357.6668,358.21774,57,110,0
358.22235,358.32886,57,110,0
358.33347,358.43994,55,110,0
358.44458,358.55106,54,110,0
358.11127,358.66217,62,120,0
358.6668,358.7733,64,110,0
358.77792,358.8844,66,110,0
358.88904,358.9955,67,110,0
358.5557,359.10663,55,110,0
359.11127,359.21774,55,110,0
359.22235,359.32886,54,110,0
359.33347,359.43994,52,110,0
359.00015,359.55106,60,120,0
359.5557,359.66217,63,110,0
359.6668,359.7733,64,110,0
359.44458,359.8844,54,110,0
359.77792,359.8844,66,110,0
359.88904,359.9955,35,110,0
360.00015,360.10663,37,110,0
360.11124,360.21774,39,110,0
360.22235,360.32886,40,110,0
360.33347,360.43994,42,110,0
360.44458,360.55106,43,110,0
360.5557,360.66217,45,110,0
360.6668,360.7733,47,110,0
360.77792,360.8844,49,110,0
360.88904,360.9955,51,110,0
361.00015,361.10663,52,110,0
361.11124,361.21774,54,110,0
361.22235,361.32886,55,110,0
361.22235,361.43994,59,110,0
361.33347,361.43994,57,110,0
361.44458,361.66217,59,110,0
361.5557,361.66217,47,110,0
361.6668,361.8844,59,110,0
361.6668,361.8844,62,110,0
361.88904,362.10663,57,110,0
361.88904,362.32883,60,110,0
362.11124,362.32883,52,110,0
362.33347,362.7733,59,110,0
362.33347,362.7733,50,110,0
362.77792,363.21774,57,110,0
362.77792,363.21774,48,110,0
363.22235,363.43994,47,110,0
363.22235,363.43994,56,110,0
363.44458,363.66217,45,110,0
363.44458,363.66217,57,110,0
363.6668,363.8844,52,110,0
364.11124,364.32883,60,110,0
363.88904,364.43994,48,110,0
364.44458,364.55106,50,110,0
364.5557,364.66217,52,110,0
364.6668,364.7733,53,110,0
364.33347,364.8844,57,110,0
364.88904,364.9955,59,110,0
365.00012,365.10663,60,110,0
364.77792,365.2177,47,110,0
365.11124,365.2177,62,110,0
365.22235,365.66217,56,110,0
365.44458,365.66217,52,110,0
365.6668,365.8844,57,110,0
365.88904,366.10663,64,110,0
366.11124,366.66217,60,110,0
366.6668,366.7733,62,110,0
366.77792,366.8844,64,110,0
365.6668,366.9955,52,110,0
366.889,366.9955,65,110,0
367.00012,367.2177,59,110,0
367.6668,367.8844,62,110,0
367.889,368.43994,59,110,0
367.44458,368.55106,52,110,0
368.44458,368.55106,60,110,0
368.5557,368.66217,62,110,0
368.5557,368.7733,52,110,0
368.6668,368.7733,64,110,0
368.77792,368.8844,48,110,0
368.889,368.9955,50,110,0
369.00012,369.1066,52,110,0
369.11124,369.2177,53,110,0
369.22235,369.43994,52,110,0
369.44458,369.66217,53,110,0
369.44458,369.66217,62,110,0
369.6668,369.8844,53,110,0
369.6668,369.8844,62,110,0
369.889,370.1066,52,110,0
369.889,370.1066,60,110,0
370.11124,370.32883,53,110,0
370.11124,370.32883,62,110,0
370.33347,370.55106,52,110,0
370.33347,370.55106,60,110,0
370.5557,370.9955,50,110,0
370.5557,370.9955,59,110,0
371.22235,371.43994,52,110,0
371.22235,371.43994,60,110,0
371.44458,371.66217,52,110,0
371.44458,371.66217,60,110,0
371.6668,371.8844,50,110,0
371.6668,371.8844,59,110,0
371.889,372.1066,50,110,0
371.889,372.1066,59,110,0
372.11124,372.32883,48,110,0
372.11124,372.32883,57,110,0
372.5557,372.7733,59,110,0
372.5557,372.7733,62,110,0
372.7779,372.99548,59,110,0
372.7779,372.99548,62,110,0
373.00012,373.2177,57,110,0
373.00012,373.2177,60,110,0
373.44458,373.66217,57,110,0
373.44458,373.66217,60,110,0
373.66678,373.8844,57,110,0
373.66678,373.8844,60,110,0
373.889,374.1066,56,110,0
373.889,374.1066,59,110,0
374.11124,374.32883,56,110,0
374.11124,374.32883,59,110,0
374.33347,374.55106,57,110,0
374.33347,374.55106,60,110,0
374.5557,374.7733,45,110,0
374.5557,374.7733,48,110,0
374.7779,374.99548,47,110,0
374.7779,374.99548,50,110,0
375.00012,375.2177,47,110,0
375.00012,375.2177,50,110,0
375.22235,375.43994,48,110,0
375.22235,375.43994,52,110,0
375.44458,375.66217,48,110,0
375.44458,375.66217,52,110,0
375.66678,375.88437,49,110,0
375.66678,375.88437,52,110,0
375.889,376.1066,49,110,0
375.889,376.1066,52,110,0
376.11124,376.32883,50,110,0
376.11124,376.32883,53,110,0
376.33347,376.55106,51,110,0
376.33347,376.55106,54,110,0
376.33347,376.55106,57,110,0
376.33347,376.55106,60,110,0
376.55566,376.7733,52,120,0
376.55566,376.7733,57,120,0
376.55566,376.7733,60,120,0
376.7779,377.2177,28,120,0
376.7779,377.2177,33,120,0
376.7779,377.2177,40,120,0
377.22235,379.4949,40,120,0
377.22235,379.4949,27,120,0
377.22235,379.4949,24,120,0
379.50012,379.9949,28,120,0
379.50012,379.9949,32,120,0
379.50012,379.9949,40,120,0
380.00012,380.5399,28,120,0
380.00012,380.5399,33,120,0
380.00012,380.5399,40,120,0
380.54556,381.08536,28,120,0
380.54556,381.08536,35,120,0
380.54556,381.08536,40,120,0
381.09103,381.3827,28,120,0
381.19104,381.48688,32,120,0
381.29102,381.5827,35,120,0
381.49103,381.7702,40,120,0
381.59103,381.8702,44,120,0
381.69104,381.97852,47,120,0
381.89102,382.17853,40,120,0
381.99103,382.24936,44,120,0
382.09103,382.38687,47,120,0
382.29102,382.58685,52,120,0
382.39102,382.68686,56,120,0
382.49103,382.76187,59,120,0
382.69104,382.9577,52,120,0
382.79102,383.06604,56,120,0
382.89102,383.1827,59,120,0
383.09103,383.37854,64,120,0
383.19104,383.46185,68,120,0
383.29102,383.56604,71,120,0
383.49103,383.76602,64,120,0
383.59103,383.86188,68,120,0
383.69104,383.97018,71,120,0
384.09103,384.28687,28,120,0
384.09103,384.28687,40,120,0
384.29102,384.50864,45,120,0
384.29102,384.50864,57,120,0
384.51324,384.73083,71,120,0
384.51324,384.73083,59,120,0
384.73547,385.2864,69,120,0
384.73547,385.2864,57,120,0
385.29102,385.39752,59,120,0
385.40213,385.5086,61,120,0
385.51324,385.61972,62,120,0
385.62436,386.06418,56,120,0
386.29102,386.5086,56,120,0
386.29102,386.5086,68,120,0
386.51324,387.06418,54,120,0
386.51324,387.06418,66,120,0
387.06882,387.1753,56,120,0
387.1799,387.2864,57,120,0
387.29102,387.39752,59,120,0
387.40213,387.84195,52,120,0
388.06882,388.5086,64,80,0
388.06882,388.5086,74,80,0
388.51324,388.95306,71,80,0
388.51324,388.95306,64,80,0
388.9577,389.3975,64,80,0
388.9577,389.3975,69,80,0
389.40213,389.61972,64,80,0
389.40213,389.61972,68,80,0
389.62436,389.8503,69,80,0
389.85513,390.0811,68,80,0
390.0859,390.3307,66,80,0
390.3359,390.62964,59,80,0
390.3359,390.62964,71,80,0
390.6359,391.8234,59,80,0
390.6359,391.8234,71,80,0
391.8359,392.67517,64,80,0
391.8359,392.67517,71,80,0
392.69302,392.96008,40,80,0
392.96576,393.18335,40,80,0
393.188,393.40558,40,80,0
392.96576,393.5167,37,80,0
393.41022,393.6278,40,80,0
393.52133,393.6278,38,80,0
393.63242,393.85004,40,80,0
393.74353,393.85004,42,80,0
393.85464,394.07224,40,80,0
393.85464,394.29446,35,80,0
394.07687,394.29446,40,80,0
394.2991,394.5167,40,80,0
394.52133,394.73892,40,80,0
394.74353,394.96112,40,80,0
394.96576,395.18335,40,80,0
394.74353,395.29446,33,80,0
395.188,395.40558,40,80,0
395.2991,395.40558,35,80,0
395.41022,395.5167,37,80,0
395.41022,395.6278,40,80,0
395.52133,395.6278,38,80,0
395.63242,395.85,40,80,0
395.63242,396.07224,32,80,0
395.85464,396.07224,40,80,0
396.07687,396.29446,40,80,0
396.2991,396.5167,40,80,0
396.5213,396.6278,42,80,0
396.63242,396.73892,44,80,0
396.74353,396.85,45,80,0
396.85464,396.96112,47,80,0
396.96576,397.07224,45,80,0
397.07687,397.18335,44,80,0
397.188,397.29446,42,80,0
397.2991,397.40558,44,80,0
397.41022,397.5167,45,80,0
397.5213,397.6278,47,80,0
397.63242,397.73892,49,80,0
397.74353,397.85,50,80,0
397.85464,397.96112,49,80,0
397.96576,398.07224,47,80,0
398.07687,398.18335,45,80,0
398.188,398.29446,47,80,0
398.2991,398.40558,45,80,0
398.41022,398.5167,47,80,0
398.5213,398.6278,49,80,0
398.63242,398.73892,50,80,0
398.74353,398.85,49,80,0
398.85464,398.96112,47,80,0
398.96576,399.07224,45,80,0
399.07687,399.18335,47,80,0
399.188,399.29446,49,80,0
399.2991,399.40558,56,80,0
399.41022,399.5167,57,80,0
399.5213,399.6278,59,80,0
399.63242,399.7389,57,80,0
399.74353,399.85,56,80,0
399.85464,399.96112,54,80,0
399.96576,400.07224,56,80,0
400.07687,400.18335,57,80,0
400.188,400.29446,59,80,0
400.2991,400.40558,61,81,0
400.4102,400.5167,62,82,0
400.5213,400.6278,61,82,0
400.63242,400.7389,59,83,0
400.74353,400.85,57,84,0
400.85464,400.96112,59,84,0
400.96576,401.07224,61,85,0
401.07687,401.18335,62,86,0
401.188,401.29446,64,86,0
401.2991,401.40558,66,87,0
401.4102,401.5167,64,88,0
401.5213,401.6278,62,88,0
401.63242,401.7389,61,89,0
401.74353,401.85,62,90,0
401.85464,401.96112,64,90,0
401.96576,402.07224,66,91,0
402.07687,402.18335,67,92,0
402.188,402.29446,69,92,0
402.2991,402.40558,67,93,0
402.4102,402.5167,66,94,0
402.5213,402.62778,64,94,0
402.63242,402.7389,66,95,0
402.74353,402.85,67,96,0
402.85464,402.96112,69,96,0
402.96576,403.07224,71,97,0
403.07687,403.18335,73,98,0
403.188,403.29446,74,98,0
403.29907,403.40558,76,99,0
403.4102,403.5167,74,100,0
403.5213,403.62778,73,100,0
403.63242,403.7389,66,80,0
403.74353,403.85,67,80,0
403.85464,403.96112,69,80,0
403.63242,404.07224,62,80,0
403.96576,404.07224,71,80,0
404.07687,404.29446,69,80,0
404.5213,404.62778,66,80,0
404.63242,404.7389,67,80,0
404.74353,404.85,69,80,0
404.5213,404.96112,62,80,0
404.85464,404.96112,71,80,0
404.96576,405.18335,69,80,0
405.4102,405.5167,67,80,0
405.5213,405.62778,69,80,0
405.63242,405.7389,71,80,0
405.4102,405.85,64,80,0
405.74353,405.85,69,80,0
406.29907,406.40558,67,80,0
406.4102,406.51666,69,80,0
406.5213,406.62778,71,80,0
406.29907,406.7389,64,80,0
406.63242,406.7389,69,80,0
407.18796,407.29446,66,80,0
407.29907,407.40558,67,80,0
407.4102,407.51666,69,80,0
407.18796,407.62778,62,80,0
407.5213,407.62778,71,80,0
407.63242,407.85,69,80,0
408.07687,408.18335,66,80,0
408.18796,408.29446,67,80,0
408.29907,408.40558,69,80,0
408.07687,408.51666,62,80,0
408.4102,408.51666,71,80,0
408.5213,408.7389,69,80,0
408.96576,409.07224,67,80,0
409.07687,409.18335,69,80,0
409.18796,409.29446,71,80,0
408.96576,409.40555,64,80,0
409.29907,409.40555,69,80,0
409.85464,409.96112,67,82,0
409.96576,410.07224,69,82,0
410.07684,410.18335,71,83,0
409.85464,410.29446,64,82,0
410.18796,410.29446,69,83,0
410.74353,410.85,57,86,0
410.85464,410.96112,62,86,0
410.96576,411.07224,57,87,0
410.74353,411.18335,54,86,0
411.07684,411.18335,62,87,0
411.18796,411.40555,66,88,0
411.63242,411.7389,59,90,0
411.74353,411.85,66,91,0
411.85464,411.96112,59,91,0
411.63242,412.07224,56,90,0
411.96576,412.07224,64,92,0
412.07684,412.29446,68,92,0
412.5213,412.62778,61,94,0
412.63242,412.7389,64,95,0
412.74353,412.85,61,95,0
412.5213,412.96112,57,94,0
412.85464,412.96112,64,96,0
412.96576,413.18335,69,96,0
413.4102,413.51666,62,98,0
413.5213,413.62778,64,99,0
413.63242,413.7389,62,99,0
413.4102,413.85,59,98,0
413.74353,413.85,64,100,0
413.85464,414.07224,71,101,0
414.29907,414.40555,61,103,0
414.4102,414.51666,64,103,0
414.5213,414.62778,61,104,0
414.63242,414.7389,64,104,0
414.74353,414.96112,73,105,0
415.18796,415.29443,62,107,0
415.29907,415.40555,64,107,0
415.4102,415.51666,68,108,0
415.5213,415.62778,71,108,0
415.63242,415.85,74,109,0
415.85464,416.07224,74,110,0
416.07684,416.18332,74,110,0
416.18796,416.29443,73,110,0
416.29907,416.40555,71,110,0
416.4102,416.51666,73,110,0
416.07684,416.96112,76,110,0
416.5213,416.96112,74,110,0
416.96573,417.07224,74,110,0
417.07684,417.18332,73,110,0
417.18796,417.29443,71,110,0
417.29907,417.40555,73,110,0
416.96573,417.85,76,110,0
417.4102,417.85,74,110,0
417.8546,418.08963,74,120,0
417.8546,418.08963,76,120,0
418.09464,418.32962,73,120,0
418.09464,418.32962,76,120,0
418.33463,418.56964,71,120,0
418.33463,418.56964,74,120,0
418.33463,418.56964,76,120,0
418.57462,418.81943,69,120,0
418.57462,418.81943,73,120,0
418.57462,418.81943,76,120,0
418.82462,419.09167,68,120,0
418.82462,419.09167,71,120,0
418.82462,419.09167,76,120,0
419.09735,419.3911,66,120,0
419.09735,419.3911,69,120,0
419.09735,419.3911,76,120,0
419.39737,419.99112,64,120,0
419.39737,419.99112,68,120,0
419.39737,419.99112,76,120,0
422.21957,422.54828,69,80,0
422.55292,422.6594,68,80,0
422.66403,422.99274,66,80,0
422.99734,423.10382,68,80,0
423.10846,423.54828,69,80,0
423.99734,424.32605,47,80,0
424.3307,424.43716,46,80,0
424.4418,424.7705,47,80,0
424.77512,424.88162,45,80,0
424.88623,425.32605,42,80,0
425.3307,425.7705,40,80,0
425.77512,426.1165,69,70,0
425.77512,426.1165,73,70,0
426.12128,426.23187,64,70,0
426.12128,426.23187,71,70,0
426.23666,426.60645,61,70,0
426.23666,426.60645,69,70,0
426.61166,426.73145,64,70,0
426.61166,426.73145,71,70,0
426.73666,427.23145,69,70,0
426.73666,427.23145,73,70,0
427.23666,427.45425,76,110,0
427.4589,427.67648,64,110,0
427.68112,427.8987,69,110,0
427.90332,428.1209,57,110,0
428.12555,428.34314,64,110,0
428.34778,428.56537,52,110,0
428.57,429.00983,45,110,0
429.01443,429.23203,45,80,0
429.23666,429.45425,64,80,0
429.23666,429.45425,61,80,0
429.23666,429.45425,57,80,0
429.4589,429.67648,64,80,0
429.4589,429.67648,61,80,0
429.4589,429.67648,57,80,0
429.68112,429.8987,64,80,0
429.68112,429.8987,61,80,0
429.68112,429.8987,57,80,0
429.90332,430.1209,45,80,0
430.12555,430.34314,66,80,0
430.12555,430.34314,62,80,0
430.12555,430.34314,57,80,0
430.34778,430.56537,66,80,0
430.34778,430.56537,62,80,0
430.34778,430.56537,57,80,0
430.57,430.7876,66,80,0
430.57,430.7876,62,80,0
430.57,430.7876,57,80,0
430.7922,431.0098,45,80,0
431.01443,431.23203,64,80,0
431.01443,431.23203,62,80,0
431.01443,431.23203,59,80,0
431.01443,431.23203,57,80,0
431.23666,431.45425,64,80,0
431.23666,431.45425,62,80,0
431.23666,431.45425,59,80,0
431.23666,431.45425,57,80,0
431.4589,431.67648,64,80,0
431.4589,431.67648,62,80,0
431.4589,431.67648,59,80,0
431.4589,431.67648,57,80,0
431.6811,431.8987,45,80,0
431.90332,432.1209,64,80,0
431.90332,432.1209,61,80,0
431.90332,432.1209,57,80,0
432.12555,432.34314,64,80,0
432.12555,432.34314,61,80,0
432.12555,432.34314,57,80,0
432.34778,432.56537,64,80,0
432.34778,432.56537,61,80,0
432.34778,432.56537,57,80,0
432.57,432.7876,45,80,0
432.7922,433.0098,64,81,0
432.7922,433.0098,61,81,0
432.7922,433.0098,57,81,0
433.01443,433.23203,64,83,0
433.01443,433.23203,61,83,0
433.01443,433.23203,57,83,0
433.23666,433.45425,64,85,0
433.23666,433.45425,61,85,0
433.23666,433.45425,57,85,0
433.4589,433.67648,45,87,0
433.6811,433.89868,66,89,0
433.6811,433.89868,62,89,0
433.6811,433.89868,57,89,0
433.90332,434.1209,66,90,0
433.90332,434.1209,62,90,0
433.90332,434.1209,57,90,0
434.12555,434.34314,66,92,0
434.12555,434.34314,62,92,0
434.12555,434.34314,57,92,0
434.34778,434.56537,45,94,0
434.56998,434.7876,64,96,0
434.56998,434.7876,62,96,0
434.56998,434.7876,59,96,0
434.56998,434.7876,57,96,0
434.7922,435.0098,64,98,0
434.7922,435.0098,62,98,0
434.7922,435.0098,59,98,0
434.7922,435.0098,57,98,0
435.01443,435.23203,64,100,0
435.01443,435.23203,62,100,0
435.01443,435.23203,59,100,0
435.01443,435.23203,57,100,0
435.23666,435.34314,45,80,0
435.34778,435.45425,47,82,0
435.4589,435.56537,49,84,0
435.56998,435.67648,50,86,0
435.6811,435.7876,49,88,0
435.7922,435.89868,50,90,0
435.90332,436.0098,52,92,0
436.01443,436.1209,54,94,0
436.12555,436.23203,52,96,0
436.23666,436.34314,54,98,0
436.34778,436.45425,56,100,0
436.4589,436.56537,57,102,0
436.56998,436.67648,56,104,0
436.6811,436.78757,57,106,0
436.7922,436.89868,59,108,0
436.90332,437.0098,61,110,0
437.01443,437.23203,52,110,0
437.01443,437.23203,59,110,0
437.01443,437.23203,62,110,0
437.23666,437.67648,40,110,0
437.23666,437.67648,52,110,0
437.6811,438.23203,52,110,0
437.6811,438.23203,40,110,0
438.23666,438.34314,40,110,0
438.23666,438.34314,47,110,0
438.23666,438.34314,50,110,0
438.34778,438.67648,40,110,0
438.34778,438.67648,47,110,0
438.34778,438.67648,50,110,0
438.6811,438.78757,40,110,0
438.6811,438.78757,47,110,0
438.6811,438.78757,50,110,0
438.7922,438.89868,45,110,0
438.90332,439.0098,47,80,0
439.01443,439.1209,49,82,0
439.12555,439.23203,50,84,0
439.23666,439.34314,49,86,0
439.34778,439.45425,50,88,0
439.45886,439.56537,52,91,0
439.56998,439.67645,54,93,0
439.6811,439.78757,52,95,0
439.7922,439.89868,54,97,0
439.90332,440.0098,56,99,0
440.01443,440.1209,57,102,0
440.12555,440.23203,56,104,0
440.23666,440.34314,57,106,0
440.34778,440.45425,59,108,0
440.45886,440.56537,61,110,0
440.56998,440.78757,52,120,0
440.56998,440.78757,59,120,0
440.56998,440.78757,62,120,0
440.7922,441.23203,52,120,0
440.7922,441.23203,64,120,0
441.23666,441.78757,64,120,0
441.23666,441.78757,52,120,0
441.7922,441.89868,64,120,0
441.7922,441.89868,71,120,0
441.7922,441.89868,74,120,0
441.90332,442.23203,64,120,0
441.90332,442.23203,71,120,0
441.90332,442.23203,74,120,0
442.23666,442.34314,64,120,0
442.23666,442.34314,71,120,0
442.23666,442.34314,74,120,0
442.34775,442.78757,66,120,0
442.34775,442.78757,69,120,0
442.34775,442.78757,73,120,0
443.01443,443.23203,50,80,0
443.01443,443.23203,62,80,0
443.23666,443.67645,50,80,0
443.23666,443.67645,62,80,0
443.90332,444.1209,47,80,0
443.90332,444.1209,59,80,0
444.12555,444.34314,47,80,0
444.12555,444.34314,59,80,0
444.34775,444.56534,52,80,0
444.34775,444.56534,64,80,0
444.56998,444.78757,52,80,0
444.56998,444.78757,64,80,0
444.7922,445.0098,45,80,0
444.7922,445.0098,57,80,0
445.01443,445.45425,40,80,0
445.01443,445.45425,52,80,0
445.90332,446.3672,56,70,0
446.60645,446.83594,57,70,0
446.84082,447.3047,57,70,0
447.54395,447.77344,50,70,0
447.77832,448.0078,50,70,0
448.0127,448.2422,52,70,0
448.24707,448.47656,52,70,0
448.48145,448.71094,45,70,0
448.71582,449.1797,45,70,0
449.65332,449.8828,35,70,0
449.8877,450.1172,40,70,0
450.12207,450.35156,40,70,0
450.35645,450.58594,33,70,0
450.59082,451.0547,33,70,0
451.52832,451.7731,35,80,0
451.77832,452.0231,40,80,0
452.02832,452.2731,40,80,0
452.27832,452.5231,33,80,0
452.52832,453.0231,33,80,0
453.52832,453.7731,35,80,0
453.77832,454.0231,40,80,0
454.02832,454.2731,40,80,0
454.27832,454.5231,33,80,0
454.52832,455.0231,33,80,0
455.52832,455.7731,35,80,0
455.77832,456.0231,40,80,0
456.02832,456.2731,40,80,0
456.27832,456.5231,33,80,0
456.52832,457.0358,33,80,0
457.55396,457.8139,35,80,0
457.81943,458.0794,40,80,0
458.08493,458.34488,40,80,0
458.3504,458.61038,33,80,0
458.6159,459.15567,33,80,0
459.7328,461.72684,57,80,0
459.7328,461.72684,52,80,0
459.7328,461.72684,49,80,0
459.7328,461.72684,45,80,0
461.7328,462.01254,33,120,0
461.7328,462.01254,45,120,0
462.0185,462.4583,30,120,0
462.0185,462.4583,42,120,0
463.57404,463.79163,33,80,0
463.57404,463.79163,45,80,0
463.79626,464.23608,29,80,0
463.79626,464.23608,41,80,0
465.35184,465.56943,45,80,0
465.57404,466.12497,41,80,0
466.1296,466.23608,43,80,0
466.24072,466.3472,45,80,0
466.35184,466.4583,46,80,0
466.46292,466.90274,40,80,0
467.1296,467.3472,43,80,0
467.3518,467.90274,40,80,0
467.90738,468.01385,41,80,0
468.0185,468.12497,43,80,0
468.1296,468.23608,45,80,0
468.24072,468.6805,41,80,0
469.1296,470.01385,53,80,0
469.1296,470.01385,57,80,0
470.0185,470.4583,52,80,0
470.0185,470.4583,59,80,0
470.68515,470.90274,59,80,0
470.90738,471.4583,56,80,0
471.46292,471.5694,57,80,0
471.57404,471.6805,59,80,0
471.68515,471.79163,61,80,0
470.90738,472.02756,52,80,0
472.03247,472.2638,53,80,0
471.79626,472.7362,59,80,0
472.74115,473.20865,57,80,0
472.2687,473.4449,52,80,0
473.2136,473.4449,61,80,0
473.4498,473.6811,52,80,0
473.4498,473.6811,64,80,0
473.68604,473.91733,52,80,0
473.92224,474.15353,53,80,0
473.68604,474.38977,62,80,0
474.39468,474.62598,64,80,0
474.15845,474.8757,52,80,0
474.6309,474.8757,61,80,0
474.8809,475.1257,69,80,0
475.1309,475.3757,64,80,0
475.3809,475.6257,52,80,0
475.3809,475.6257,59,80,0
475.6309,475.8757,52,80,0
475.8809,476.1257,53,80,0
475.6309,476.6257,59,80,0
476.1309,476.6257,52,80,0
476.6309,476.89087,45,80,0
476.6309,476.89087,57,80,0
476.8964,477.15634,49,80,0
477.16187,477.42184,50,80,0
477.42737,477.68732,47,80,0
477.69284,477.96738,49,80,0
477.97324,478.24774,50,80,0
477.97324,478.24774,62,80,0
478.2536,478.54733,52,80,0
478.2536,478.54733,61,80,0
478.5536,478.84735,52,80,0
478.5536,478.84735,59,80,0
478.8536,479.11356,52,80,0
479.11908,479.37903,53,80,0
478.8536,479.91,59,80,0
479.38458,479.91,52,80,0
479.91553,480.44098,57,80,0
479.91553,480.70648,52,80,0
480.4465,480.70648,61,80,0
480.712,480.97195,52,80,0
480.712,480.97195,64,80,0
480.97748,481.1047,62,80,0
481.04385,481.17108,64,80,0
481.11023,481.23746,62,80,0
481.1766,481.3038,64,80,0
481.24298,481.37018,62,80,0
481.30936,481.43655,64,80,0
480.97748,481.50293,52,80,0
481.3757,481.50293,62,80,0
481.44208,481.5693,64,80,0
481.50845,481.63568,62,80,0
481.57483,481.70206,64,80,0
481.6412,481.7684,61,80,0
481.70758,481.7684,62,80,0
481.77396,482.0339,64,80,0
482.03943,482.31396,52,80,0
482.03943,482.31396,61,80,0
482.3198,482.59433,69,80,0
482.6002,482.89392,64,80,0
482.90018,483.20938,52,80,0
482.90018,483.20938,59,80,0
483.21597,483.47592,52,80,0
483.48145,483.74142,54,80,0
483.21597,484.27237,59,80,0
483.74695,484.27237,52,80,0
484.27792,484.53787,57,80,0
484.27792,484.53787,61,80,0
484.5434,484.80334,49,80,0
484.8089,485.07593,50,80,0
485.0816,485.3614,47,80,0
485.36734,485.66107,49,80,0
485.66733,485.9611,50,80,0
485.96732,486.09802,52,80,0
486.1037,486.23438,63,80,0
486.24005,486.37073,64,80,0
486.3764,486.5071,66,80,0
486.5128,486.6378,68,80,0
486.64322,486.76822,69,80,0
486.77365,486.89343,71,80,0
486.89865,487.01843,73,80,0
487.02365,487.13684,69,80,0
487.14175,487.25494,68,80,0
487.25986,487.37305,66,80,0
487.378,487.49118,68,80,0
487.4961,487.60928,69,80,0
487.6142,487.7274,71,80,0
487.7323,487.8455,73,80,0
487.85043,487.96362,74,80,0
487.96854,488.08173,73,80,0
488.08664,488.19983,71,80,0
488.20474,488.31793,73,80,0
488.32288,488.43607,69,80,0
488.44098,488.55417,68,80,0
488.55908,488.67227,69,80,0
488.6772,488.79037,71,80,0
488.7953,488.90848,73,80,0
488.91342,489.0266,69,80,0
489.03152,489.1447,68,80,0
489.14963,489.26282,66,80,0
489.26773,489.38092,68,80,0
489.62207,489.85336,64,80,0
489.8583,490.0896,57,80,0
490.33072,490.4439,68,80,0
490.44885,490.56204,69,80,0
490.56696,490.68015,71,80,0
490.68506,490.79825,73,80,0
490.80316,490.91635,69,80,0
490.9213,491.0345,68,80,0
491.0394,491.1526,66,80,0
491.1575,491.2707,68,80,0
491.2756,491.5069,69,80,0
491.51184,491.74313,76,80,0
491.74805,491.96564,69,80,0
492.4147,492.63232,76,80,0
492.63693,492.85452,69,80,0
493.31216,493.54715,52,80,0
493.55215,493.79694,45,80,0
493.80215,494.06918,40,80,0
494.0749,494.20557,32,80,0
494.21124,494.34192,33,80,0
494.3476,494.4541,32,80,0
494.4587,494.5652,33,80,0
494.56982,494.6763,32,80,0
494.68094,494.7874,33,80,0
494.79205,494.89853,32,80,0
494.90317,495.00964,33,80,0
495.01428,495.12076,32,80,0
495.1254,495.23187,33,80,0
495.23648,495.343,32,80,0
495.3476,495.4541,33,80,0
495.4587,495.5652,32,79,0
495.56982,495.6763,33,79,0
495.68094,495.7874,32,79,0
495.79205,495.89853,33,78,0
495.90317,496.00964,32,78,0
496.01428,496.12076,33,78,0
496.1254,496.23187,32,77,0
496.23648,496.343,33,77,0
496.3476,496.4541,32,77,0
496.4587,496.5652,33,76,0
496.56982,496.6763,32,76,0
496.68094,496.7874,33,76,0
496.79205,496.89853,32,75,0
496.90317,497.00964,33,75,0
497.01428,497.12076,32,75,0
497.1254,497.23187,33,74,0
497.23648,497.343,32,74,0
497.3476,497.45407,33,74,0
497.4587,497.5652,32,73,0
496.79205,497.6763,28,75,0
497.56982,497.6763,33,73,0
497.68094,497.7874,32,73,0
497.79205,497.89853,33,72,0
497.90317,498.00964,32,72,0
498.01428,498.12076,33,72,0
498.12537,498.23187,32,71,0
498.23648,498.343,33,71,0
498.3476,498.45407,32,71,0
498.4587,498.5652,33,71,0
498.56982,498.6763,32,70,0
498.68094,498.7874,33,70,0
498.79205,498.89853,32,70,0
498.90317,499.00964,33,70,0
499.01428,499.12076,32,70,0
499.12537,499.23187,33,70,0
499.23648,499.343,32,70,0
499.3476,499.45407,33,70,0
499.4587,499.5652,32,70,0
499.56982,499.6763,33,70,0
499.68094,499.7874,32,70,0
499.79205,499.89853,33,70,0
499.90317,500.00964,32,70,0
500.01428,500.12076,33,70,0
500.12537,500.23187,32,70,0
500.23648,500.34296,33,70,0
500.3476,500.45407,32,70,0
500.4587,500.5652,33,70,0
500.56982,500.6763,32,70,0
500.68094,500.7874,33,70,0
500.79205,500.89853,32,70,0
500.90317,501.00964,33,70,0
501.01428,501.12076,32,70,0
500.3476,501.23187,28,70,0
501.12537,501.23187,33,70,0
501.23648,501.35336,32,70,0
501.35843,501.4753,33,70,0
501.48038,501.59726,32,70,0
501.60236,501.7192,33,70,0
501.7243,501.84116,32,70,0
501.84625,501.9631,33,70,0
501.9682,502.08505,32,70,0
502.09015,502.207,33,70,0
502.2121,502.34277,32,70,0
502.34845,502.47916,33,70,0
502.48483,502.6155,32,70,0
502.6212,502.75186,33,70,0
502.75754,502.88824,32,70,0
502.89392,503.0246,33,70,0
503.03027,503.16095,32,70,0
502.2121,503.29733,28,70,0
503.16666,503.29733,33,70,0
503.303,503.44675,32,70,0
503.453,503.59674,33,70,0
503.603,503.74677,32,70,0
503.753,503.89676,33,70,0
503.903,504.04675,32,70,0
504.053,504.19675,33,70,0
504.203,504.34674,32,70,0
504.353,504.49677,33,70,0
504.503,504.66272,32,70,0
504.66968,504.8294,33,70,0
504.83633,504.99606,32,70,0
505.003,505.16272,33,70,0
505.16968,505.37503,32,70,0
505.38394,505.58932,33,70,0
505.59824,505.83783,32,70,0
504.503,506.2076,28,70,0
505.84824,506.2076,33,70,0
506.22324,506.46805,33,125,0
506.22324,506.46805,45,125,0
506.47324,506.71805,33,125,0
506.47324,506.71805,37,125,0
506.47324,506.71805,40,125,0
506.47324,506.71805,45,125,0
506.72324,506.96805,33,125,0
506.72324,506.96805,37,125,0
506.72324,506.96805,40,125,0
506.72324,506.96805,45,125,0
506.97324,507.21805,33,125,0
506.97324,507.21805,37,125,0
506.97324,507.21805,40,125,0
506.97324,507.21805,45,125,0
507.22324,507.763,33,125,0
507.22324,507.763,37,125,0
507.22324,507.763,40,125,0
507.22324,507.763,45,125,0
507.7687,508.4284,33,125,0
507.7687,508.4284,37,125,0
507.7687,508.4284,40,125,0
507.7687,508.4284,45,125,0
508.43536,510.4284,33,125,0
508.43536,510.4284,37,125,0
508.43536,510.4284,40,125,0
508.43536,510.4284,45,125,0
