start_time,end_time,note_value,velocity,instrument_program_number
0.0,0.59583336,72,110,0
0.0,0.59583336,66,110,0
0.6,0.79583335,73,110,0
0.6,0.79583335,65,110,0
0.8,0.99583334,68,110,0
0.8,0.99583334,65,110,0
1.4142855,1.6241068,70,80,0
1.4142855,1.6241068,66,80,0
1.628571,1.945535,71,80,0
1.628571,1.945535,63,80,0
1.9499992,2.0526776,70,80,0
1.9499992,2.0526776,61,80,0
2.057142,2.2669632,68,80,0
2.057142,2.2669632,59,80,0
2.2714274,2.4812486,66,80,0
2.2714274,2.4812486,58,80,0
2.485713,2.9098196,65,80,0
2.485713,2.9098196,56,80,0
3.342855,3.9386883,73,110,0
3.342855,3.9386883,70,110,0
3.942855,4.1386886,75,110,0
3.942855,4.1386886,71,110,0
4.142855,4.538688,76,110,0
4.142855,4.538688,73,110,0
4.742855,4.9386883,78,80,0
4.742855,4.9386883,75,80,0
4.942855,5.2488894,80,80,0
4.942855,5.2488894,76,80,0
5.2531996,5.352338,76,80,0
5.2531996,5.352338,73,80,0
5.356648,5.566469,71,80,0
5.356648,5.566469,75,80,0
5.5709333,5.7807546,73,80,0
5.5709333,5.7807546,70,80,0
5.785219,6.209326,75,80,0
5.785219,6.209326,71,80,0
6.642361,7.3043976,71,80,0
6.642361,7.3043976,66,80,0
7.309027,7.5266194,70,80,0
7.309027,7.5266194,66,80,0
7.531249,7.971063,75,80,0
7.531249,7.971063,66,80,0
8.197915,8.381509,73,80,0
8.197915,8.381509,66,80,0
8.385415,8.662759,71,80,0
8.385415,8.756509,66,80,0
8.666665,8.756509,70,80,0
8.760415,8.944009,68,80,0
8.760415,8.944009,66,80,0
8.947915,9.131509,73,80,0
8.947915,9.131509,65,80,0
9.135415,9.225259,70,80,0
9.229165,9.319009,66,81,0
9.322915,9.412759,65,82,0
9.416665,9.506509,66,83,0
9.510415,9.600259,71,85,0
9.604165,9.694009,78,86,0
9.697915,9.787759,70,87,0
9.791665,9.881509,78,89,0
9.885415,9.975259,75,90,0
9.979165,10.069009,78,91,0
10.072915,10.162759,73,93,0
10.166665,10.256509,78,94,0
10.260415,10.350259,77,95,0
10.354165,10.444009,80,97,0
10.447915,10.537759,77,98,0
10.541665,10.631509,85,99,0
10.635415,10.725259,78,110,0
10.729165,10.819009,82,110,0
10.822915,10.912759,78,110,0
10.916665,11.006509,85,110,0
11.010415,11.100259,78,110,0
11.104165,11.194009,85,110,0
11.197915,11.287759,82,110,0
11.291665,11.381509,85,110,0
11.385415,11.475259,82,110,0
11.479165,11.569009,85,110,0
11.572915,11.662759,82,110,0
11.666665,11.756509,85,110,0
11.760415,11.850259,80,110,0
11.854165,11.944009,83,110,0
11.947915,12.037759,77,110,0
12.041665,12.131509,85,110,0
12.135415,12.225259,82,110,0
12.229165,12.319009,78,110,0
12.322915,12.412759,70,110,0
12.416665,12.506509,78,110,0
12.510415,12.600259,71,110,0
12.604165,12.694009,78,110,0
12.697915,12.787759,70,110,0
12.791665,12.881509,78,110,0
12.885415,12.975259,75,110,0
12.979165,13.069009,78,110,0
13.072915,13.162759,73,110,0
13.166665,13.256509,78,110,0
13.260415,13.350259,77,110,0
13.354165,13.444009,80,110,0
13.447915,13.537759,77,110,0
13.541665,13.631509,85,110,0
13.635415,13.725259,78,110,0
13.729165,13.819009,82,110,0
13.822915,13.912759,78,110,0
13.916665,14.006509,85,110,0
14.010415,14.100259,78,110,0
14.104165,14.194009,85,110,0
14.197915,14.287759,82,110,0
14.291665,14.381509,85,110,0
14.385415,14.475259,82,110,0
14.479165,14.569009,85,110,0
14.572915,14.662759,82,110,0
14.666665,14.756509,85,110,0
14.760415,14.850259,80,110,0
14.854165,14.944009,83,110,0
14.947915,15.037759,77,110,0
15.041665,15.131509,85,110,0
15.135415,15.225259,82,110,0
15.229165,15.319009,85,110,0
15.322915,15.412759,82,110,0
15.322915,15.412759,78,110,0
15.416665,15.506509,85,110,0
15.510415,15.600259,78,110,0
15.604165,15.694009,80,110,0
15.697915,15.787759,78,110,0
15.791665,15.881509,83,110,0
15.885415,15.981248,78,110,0
15.985415,16.08125,80,110,0
16.085415,16.181248,78,110,0
16.185415,16.281248,87,110,0
16.285416,16.388094,78,110,0
16.392557,16.495235,80,110,0
16.4997,16.602379,78,110,0
16.606844,16.709522,87,110,0
16.713985,16.923807,85,110,0
16.713985,16.923807,80,110,0
16.713985,16.923807,77,110,0
16.928272,17.018116,60,110,0
17.022022,17.111866,61,110,0
17.303272,17.393116,64,110,0
17.397022,17.486866,65,110,0
17.678272,17.768116,67,110,0
17.772022,17.861866,68,110,0
18.053272,18.143116,72,110,0
18.147022,18.236866,73,110,0
18.428272,18.518116,76,110,0
18.522022,18.611866,77,110,0
18.803272,18.893116,79,110,0
18.897022,18.986866,80,110,0
19.178272,19.268116,84,110,0
19.272022,19.361866,85,110,0
19.553272,19.643116,88,110,0
19.647022,19.736866,89,110,0
19.928272,20.018116,91,80,0
20.022022,20.111866,92,80,0
20.303272,20.393116,88,80,0
20.397022,20.486866,89,80,0
20.678272,20.768116,84,80,0
20.772022,20.861866,85,80,0
21.053272,21.143116,79,80,0
21.147022,21.236866,80,80,0
21.428272,21.518116,76,80,0
21.522022,21.611866,77,80,0
21.803272,21.893116,72,80,0
21.897022,21.986866,73,80,0
22.178272,22.268116,72,80,0
22.272022,22.361866,73,80,0
22.553272,22.643116,72,80,0
22.647022,22.736866,73,80,0
22.928272,23.018116,72,70,0
23.022022,23.111866,73,70,0
23.303272,23.393116,60,70,0
23.397022,23.486866,61,70,0
23.690771,23.786604,72,70,0
23.790771,23.886604,73,70,0
24.105057,24.207735,60,70,0
24.2122,24.314878,61,70,0
24.319342,24.877935,72,110,0
24.319342,24.877935,66,110,0
24.881842,25.065435,73,110,0
24.881842,25.065435,65,110,0
25.069342,25.440435,68,110,0
25.069342,25.440435,65,110,0
25.631842,25.815435,70,80,0
25.631842,25.815435,66,80,0
25.819342,26.105633,71,80,0
25.819342,26.105633,63,80,0
26.109665,26.202406,70,80,0
26.109665,26.202406,61,80,0
26.206438,26.41626,68,80,0
26.206438,26.41626,59,80,0
26.420725,26.630545,66,80,0
26.420725,26.630545,58,80,0
26.63501,27.059116,65,80,0
26.63501,27.059116,56,80,0
27.492151,28.050745,73,110,0
27.492151,28.050745,70,110,0
28.054651,28.238245,75,110,0
28.054651,28.238245,71,110,0
28.242151,28.613245,76,110,0
28.242151,28.613245,73,110,0
28.804651,28.988245,78,80,0
28.804651,28.988245,75,80,0
28.992151,29.282183,80,80,0
28.992151,29.282183,76,80,0
29.286268,29.380222,76,80,0
29.286268,29.380222,73,80,0
29.384308,29.59413,71,80,0
29.384308,29.59413,75,80,0
29.598593,29.808414,73,80,0
29.598593,29.808414,70,80,0
29.812878,30.236986,75,80,0
29.812878,30.236986,71,80,0
30.670021,31.332056,71,70,0
30.670021,31.332056,66,70,0
31.336687,31.55428,70,70,0
31.336687,31.55428,66,70,0
31.558908,31.998722,75,70,0
31.558908,31.998722,66,70,0
32.225574,32.44317,73,70,0
32.225574,32.44317,66,70,0
32.447796,32.7765,71,70,0
32.447796,32.88761,66,70,0
32.781128,32.88761,70,70,0
32.89224,33.109833,68,70,0
32.89224,33.109833,66,70,0
33.114464,33.298058,73,80,0
33.114464,33.298058,65,80,0
33.301964,33.391808,70,70,0
33.395714,33.485558,66,72,0
33.489464,33.579308,65,75,0
33.583214,33.673058,66,77,0
33.676964,33.766808,71,80,0
33.770714,33.860558,78,83,0
33.864464,33.954308,70,85,0
33.958214,34.048058,78,88,0
34.051964,34.141808,75,91,0
34.145714,34.235558,78,93,0
34.239464,34.329308,73,96,0
34.333214,34.423058,78,99,0
34.426964,34.516808,77,101,0
34.520714,34.610558,80,104,0
34.614464,34.704308,77,107,0
34.708214,34.798058,85,109,0
34.801964,34.891808,78,110,0
34.895714,34.985558,82,110,0
34.989464,35.079308,78,110,0
35.083214,35.173058,85,110,0
35.176964,35.266808,78,110,0
35.270714,35.360558,85,110,0
35.364464,35.454308,82,110,0
35.458214,35.548058,85,110,0
35.551964,35.641808,82,110,0
35.645714,35.735558,85,110,0
35.739464,35.829308,82,110,0
35.833214,35.923058,85,110,0
35.926964,36.016808,80,110,0
36.020714,36.110558,83,110,0
36.114464,36.204308,77,110,0
36.208214,36.298058,85,110,0
36.301964,36.391808,82,110,0
36.395714,36.485558,78,110,0
36.489464,36.579308,70,110,0
36.583214,36.673058,78,110,0
36.676964,36.766808,71,110,0
36.770714,36.860558,78,110,0
36.864464,36.954308,70,110,0
36.958214,37.048058,78,110,0
37.051964,37.141808,75,110,0
37.145714,37.235558,78,110,0
37.239464,37.329308,73,110,0
37.333214,37.423058,78,110,0
37.426964,37.516808,77,110,0
37.520714,37.610558,80,110,0
37.614464,37.704308,77,110,0
37.708214,37.798058,85,110,0
37.801964,37.891808,78,110,0
37.895714,37.985558,82,110,0
37.989464,38.079308,78,110,0
38.083214,38.173058,85,110,0
38.176964,38.266808,78,110,0
38.270714,38.360558,82,110,0
38.364464,38.454308,78,110,0
38.458214,38.548058,87,110,0
38.551964,38.641808,78,110,0
38.645714,38.735558,87,110,0
38.739464,38.829308,78,110,0
38.833214,38.923058,87,110,0
38.926964,39.016808,78,110,0
39.020714,39.110558,87,110,0
39.114464,39.204308,78,110,0
39.208214,39.298058,87,110,0
39.301964,39.485558,77,110,0
39.301964,39.485558,86,110,0
39.489464,39.64962,71,110,0
39.583214,39.673058,70,110,0
39.864464,40.03634,70,110,0
39.958214,40.048058,68,110,0
40.239464,40.407433,68,110,0
40.333214,40.423058,66,110,0
40.614464,40.78634,66,110,0
40.708214,40.798058,65,110,0
40.989464,41.16915,65,110,0
41.083214,41.173058,63,110,0
41.364464,41.540245,63,110,0
41.458214,41.548058,61,110,0
41.739464,41.907433,61,110,0
41.833214,41.923058,59,110,0
42.114464,42.282433,59,110,0
42.208214,42.298058,58,110,0
42.49804,42.690033,58,107,0
42.59608,42.690033,57,105,0
42.890198,43.06585,58,99,0
42.988235,43.082188,56,97,0
43.29175,43.390213,58,91,0
43.394493,43.49295,54,89,0
43.711517,43.814198,58,83,0
43.81866,43.92134,53,81,0
44.113304,44.296898,58,110,0
44.207054,44.296898,63,110,0
44.300804,44.484398,63,110,0
44.394554,44.484398,67,110,0
44.488304,44.671898,67,110,0
44.582054,44.671898,70,110,0
44.675804,44.859398,70,110,0
44.769554,44.859398,75,110,0
44.863304,45.046898,75,110,0
44.957054,45.046898,79,110,0
45.050804,45.234398,79,110,0
45.144554,45.234398,82,110,0
45.238304,45.421898,82,110,0
45.332054,45.515648,87,110,0
45.425804,45.609398,91,110,0
45.613304,45.703148,66,80,0
45.707054,45.796898,70,80,0
45.800804,45.890648,63,80,0
45.894554,45.984398,70,80,0
45.988304,46.078148,66,80,0
46.082054,46.171898,70,80,0
46.175804,46.265648,63,80,0
46.269554,46.359398,70,80,0
46.363304,46.453148,66,80,0
46.457054,46.546898,70,80,0
46.550804,46.640648,68,80,0
46.644554,46.734398,70,80,0
46.738304,46.828148,65,80,0
46.832054,46.921898,70,80,0
47.113304,47.296898,58,110,0
47.207054,47.296898,63,110,0
47.300804,47.484398,63,110,0
47.394554,47.484398,67,110,0
47.488304,47.671898,67,110,0
47.582054,47.671898,70,110,0
47.675804,47.859398,70,110,0
47.769554,47.859398,75,110,0
47.863304,48.046898,75,110,0
47.957054,48.046898,79,110,0
48.050804,48.234398,79,110,0
48.144554,48.234398,82,110,0
48.238304,48.421898,82,110,0
48.332054,48.515648,87,110,0
48.425804,48.609398,91,110,0
48.613304,48.703148,66,80,0
48.707054,48.796898,70,80,0
48.800804,48.890648,63,80,0
48.894554,48.984398,70,80,0
48.988304,49.078148,66,80,0
49.082054,49.171898,70,80,0
49.175804,49.265648,63,80,0
49.269554,49.359398,70,80,0
49.363304,49.453148,66,80,0
49.457054,49.546898,70,80,0
49.550804,49.640648,68,80,0
49.644554,49.734398,70,80,0
49.738304,49.828148,65,80,0
49.832054,49.921898,70,80,0
49.925804,50.015648,63,80,0
50.019554,50.109398,66,81,0
50.113304,50.203148,66,83,0
50.207054,50.296898,75,85,0
50.300804,50.390648,65,87,0
50.394554,50.484398,74,89,0
50.488304,50.578148,74,91,0
50.582054,50.671898,77,93,0
50.675804,50.765648,66,95,0
50.769554,50.859398,75,97,0
50.863304,50.953148,75,99,0
50.957054,51.046898,78,101,0
51.050804,51.140648,74,103,0
51.144554,51.234398,77,105,0
51.238304,51.328148,77,107,0
51.332054,51.421898,80,109,0
51.425804,51.515648,66,110,0
51.519554,51.609398,75,110,0
51.613304,51.703148,75,110,0
51.707054,51.796898,78,110,0
51.800804,51.890648,74,110,0
51.894554,51.984398,77,110,0
51.988304,52.078148,77,110,0
52.082054,52.171898,80,110,0
52.175804,52.265648,75,110,0
52.269554,52.359398,78,110,0
52.363304,52.453148,78,110,0
52.457054,52.546898,87,110,0
52.550804,52.640648,77,110,0
52.644554,52.734398,86,110,0
52.738304,52.828148,80,110,0
52.832054,52.921898,89,110,0
52.925804,53.015648,63,80,0
53.019554,53.109398,66,81,0
53.113304,53.203148,66,83,0
53.207054,53.296898,75,85,0
53.300804,53.390648,65,87,0
53.394554,53.484398,74,89,0
53.488304,53.578148,74,91,0
53.582054,53.671898,77,93,0
53.675804,53.765648,66,95,0
53.769554,53.859398,75,97,0
53.863304,53.953148,75,99,0
53.957054,54.046898,78,101,0
54.050804,54.140648,74,103,0
54.144554,54.234398,77,105,0
54.238304,54.328148,77,107,0
54.332054,54.421898,80,109,0
54.425804,54.515648,66,110,0
54.519554,54.609398,75,110,0
54.613304,54.703148,75,110,0
54.707054,54.796898,78,110,0
54.800804,54.890648,74,110,0
54.894554,54.984398,77,110,0
54.988304,55.078148,77,110,0
55.082054,55.171898,80,110,0
55.175804,55.265648,75,110,0
55.269554,55.359398,78,110,0
55.363304,55.453148,78,110,0
55.457054,55.546898,87,110,0
55.550804,55.640648,76,110,0
55.644554,55.734398,78,110,0
55.738304,55.828148,78,110,0
55.832054,55.921898,88,110,0
55.925804,56.10549,75,110,0
56.019554,56.183617,78,110,0
56.113304,56.28518,83,110,0
56.207054,56.382835,87,110,0
56.300804,56.468773,83,110,0
56.394554,56.56643,87,110,0
56.488304,56.656273,83,110,0
56.582054,56.671898,87,110,0
56.675804,57.234398,89,120,0
56.675804,57.234398,86,120,0
56.675804,57.234398,83,120,0
56.675804,57.234398,77,120,0
57.238304,57.414085,58,120,0
57.332054,57.500023,59,120,0
57.613304,57.78518,58,120,0
57.707054,57.875023,59,120,0
57.988304,58.16018,61,120,0
58.082054,58.257835,62,120,0
58.363304,58.54299,64,120,0
58.457054,58.632835,65,120,0
58.738304,58.894554,70,120,0
58.832054,58.996117,71,120,0
59.113304,59.28518,73,120,0
59.207054,59.36721,74,120,0
59.488304,59.66799,76,120,0
59.582054,59.74221,77,120,0
59.863304,60.019554,82,120,0
59.957054,60.121117,83,120,0
60.238304,60.394554,85,120,0
60.332054,60.496117,86,120,0
60.613304,60.78518,88,80,0
60.707054,60.863304,89,80,0
60.988304,61.16799,86,80,0
61.082054,61.246117,89,80,0
61.363304,61.52346,88,80,0
61.457054,61.63674,89,80,0
61.738304,61.91018,86,80,0
61.832054,62.007835,89,80,0
62.113304,62.27346,88,80,0
62.207054,62.382835,89,80,0
62.488304,62.64846,86,80,0
62.582054,62.757835,89,80,0
62.863304,63.039085,86,80,0
62.957054,63.125023,89,80,0
63.238304,63.41018,76,80,0
63.332054,63.49221,77,80,0
63.613304,63.77346,76,80,0
63.707054,63.88674,77,80,0
63.988304,64.15627,74,80,0
64.082054,64.24612,77,80,0
64.363304,64.539085,76,80,0
64.457054,64.62893,77,80,0
64.738304,64.90627,74,80,0
64.832054,65.00393,77,80,0
65.113304,65.2969,76,70,0
65.207054,65.382835,77,70,0
65.488304,65.65627,74,70,0
65.582054,65.75393,77,70,0
65.863304,66.03127,74,70,0
65.957054,66.14065,77,70,0
66.238304,66.41018,74,70,0
66.332054,66.5075,77,70,0
66.62188,66.80979,85,70,0
66.71992,66.89149,86,70,0
67.01404,67.19786,82,70,0
67.112076,67.287704,83,70,0
67.417015,67.61529,85,70,0
67.52046,67.702614,86,70,0
67.84613,68.03132,82,70,0
67.957245,68.06372,83,70,0
68.06835,68.664185,89,110,0
68.06835,68.664185,83,110,0
68.06835,68.664185,77,110,0
68.66835,68.86419,90,110,0
68.66835,68.86419,82,110,0
68.66835,68.86419,78,110,0
68.868355,69.064186,85,110,0
68.868355,69.064186,82,110,0
68.868355,69.064186,78,110,0
69.46835,69.664185,63,80,0
69.46835,69.664185,59,80,0
69.66835,69.97439,64,80,0
69.66835,69.97439,56,80,0
69.9787,70.077835,63,80,0
69.9787,70.077835,54,80,0
70.082146,70.299736,61,80,0
70.082146,70.299736,52,80,0
70.30437,70.52196,59,80,0
70.30437,70.52196,51,80,0
70.52659,70.9664,49,80,0
70.52659,70.9664,58,80,0
71.415474,72.011314,87,110,0
71.415474,72.011314,83,110,0
71.415474,72.011314,78,110,0
71.415474,72.011314,75,110,0
72.01548,72.21131,88,110,0
72.01548,72.21131,83,110,0
72.01548,72.21131,80,110,0
72.01548,72.21131,76,110,0
72.21548,72.61131,90,110,0
72.21548,72.61131,87,110,0
72.21548,72.61131,81,110,0
72.21548,72.61131,78,110,0
72.815475,73.011314,59,80,0
72.815475,73.011314,56,80,0
73.01548,73.32151,61,80,0
73.01548,73.32151,57,80,0
73.32582,73.42496,57,80,0
73.32582,73.42496,54,80,0
73.42927,73.642136,56,80,0
73.42927,73.642136,52,80,0
73.64666,73.85952,54,80,0
73.64666,73.85952,51,80,0
73.86405,74.294304,56,80,0
73.86405,74.294304,52,80,0
74.73362,75.39565,88,110,0
74.73362,75.39565,83,110,0
74.73362,75.39565,76,110,0
75.40028,75.617874,87,110,0
75.40028,75.617874,83,110,0
75.40028,75.617874,75,110,0
75.622505,75.840096,92,110,0
75.622505,75.840096,83,110,0
75.622505,75.840096,80,110,0
76.28917,76.47276,66,80,0
76.28917,76.47276,59,80,0
76.28917,76.47276,54,80,0
76.47667,76.75401,64,80,0
76.47667,76.84776,59,80,0
76.47667,76.84776,56,80,0
76.75792,76.84776,63,80,0
76.85167,77.03526,61,80,0
76.85167,77.03526,59,80,0
76.85167,77.03526,56,80,0
77.03917,77.22276,58,80,0
77.03917,77.22276,66,80,0
77.22667,77.31651,63,80,0
77.32042,77.41026,59,81,0
77.41417,77.50401,58,83,0
77.50792,77.59776,59,85,0
77.60167,77.69151,64,87,0
77.69542,77.78526,71,89,0
77.78917,77.87901,63,91,0
77.88292,77.97276,71,93,0
77.97667,78.06651,68,95,0
78.07042,78.16026,71,97,0
78.16417,78.25401,66,99,0
78.25792,78.34776,71,101,0
78.35167,78.44151,70,103,0
78.44542,78.53526,73,105,0
78.53917,78.62901,70,107,0
78.63292,78.72276,78,109,0
78.72667,78.81651,71,110,0
78.82042,78.91026,75,110,0
78.91417,79.00401,71,110,0
79.00792,79.09776,78,110,0
79.10167,79.19151,71,110,0
79.19542,79.28526,78,110,0
79.28917,79.37901,75,110,0
79.38292,79.47276,78,110,0
79.47667,79.56651,75,110,0
79.57042,79.66026,78,110,0
79.66417,79.75401,75,110,0
79.75792,79.84776,78,110,0
79.85167,79.94151,73,110,0
79.94542,80.03526,76,110,0
80.03917,80.12901,73,110,0
80.13292,80.22276,78,110,0
80.22667,80.31651,75,110,0
80.32042,80.41026,71,110,0
80.41417,80.50401,63,110,0
80.50792,80.59776,71,110,0
80.60167,80.69151,64,110,0
80.69542,80.78526,71,110,0
80.78917,80.87901,63,110,0
80.88292,80.97276,71,110,0
80.97667,81.06651,68,110,0
81.07042,81.16026,71,110,0
81.16417,81.25401,66,110,0
81.25792,81.34776,71,110,0
81.35167,81.44151,70,110,0
81.44542,81.53526,73,110,0
81.53917,81.62901,70,110,0
81.63292,81.72276,78,110,0
81.72667,81.81651,71,110,0
81.82042,81.91026,75,110,0
81.91417,82.00401,71,110,0
82.00792,82.09776,78,110,0
82.10167,82.19151,71,110,0
82.19542,82.28526,78,110,0
82.28917,82.37901,74,110,0
82.38292,82.47276,78,110,0
82.47667,82.56651,74,110,0
82.57042,82.66026,83,110,0
82.66417,82.75401,74,110,0
82.75792,82.84776,83,110,0
82.85167,82.94151,73,110,0
82.85167,82.94151,77,110,0
82.94542,83.03526,83,110,0
83.03917,83.12901,80,110,0
83.03917,83.12901,73,110,0
83.13292,83.22276,83,110,0
83.22667,83.31651,78,110,0
83.22667,83.31651,73,110,0
83.32042,83.41026,81,110,0
83.41417,83.50401,78,110,0
83.41417,83.50401,73,110,0
83.50792,83.59776,81,110,0
83.60167,83.69441,78,110,0
83.60167,83.69441,73,110,0
83.69845,83.79118,81,110,0
83.79522,83.88796,78,110,0
83.79522,83.88796,73,110,0
83.89199,83.98473,81,110,0
83.98877,84.0846,78,110,0
83.98877,84.0846,73,110,0
84.08877,84.1846,81,110,0
84.18877,84.2846,73,110,0
84.18877,84.2846,69,110,0
84.288765,84.3846,78,110,0
84.38876,84.49145,73,110,0
84.38876,84.49145,66,110,0
84.49591,84.59859,78,110,0
84.60305,84.72285,72,110,0
84.60305,84.72285,66,110,0
84.72805,84.84785,78,110,0
84.85305,85.09785,73,110,0
84.85305,85.09785,65,110,0
84.85305,85.09785,77,110,0
85.10305,85.26321,73,110,0
85.1968,85.286644,71,110,0
85.47805,85.64211,71,110,0
85.5718,85.661644,69,110,0
85.85305,86.02883,69,110,0
85.9468,86.036644,68,110,0
86.22805,86.39602,68,110,0
86.3218,86.411644,66,110,0
86.60305,86.774925,66,110,0
86.6968,86.786644,65,110,0
86.97805,87.15774,65,110,0
87.0718,87.161644,62,110,0
87.35305,87.524925,62,110,0
87.4468,87.536644,61,110,0
87.72805,87.90774,61,110,0
87.8218,87.911644,60,110,0
88.10305,88.274925,61,98,0
88.1968,88.286644,60,96,0
88.4841,88.66555,61,92,0
88.58087,88.673615,59,91,0
88.87765,89.06098,61,80,0
88.977646,89.07348,57,80,0
89.29193,89.49729,61,80,0
89.39908,89.501755,56,80,0
89.720505,89.9041,58,110,0
89.814255,89.9041,66,110,0
89.908005,90.0916,66,110,0
90.001755,90.0916,70,110,0
90.095505,90.2791,70,110,0
90.189255,90.2791,73,110,0
90.283005,90.4666,73,110,0
90.376755,90.4666,78,110,0
90.470505,90.6541,78,110,0
90.564255,90.6541,82,110,0
90.658005,90.8416,82,110,0
90.751755,90.8416,85,110,0
90.845505,91.0291,85,110,0
90.939255,91.0291,94,110,0
91.033005,91.2166,94,110,0
91.220505,91.31035,70,80,0
91.314255,91.4041,73,80,0
91.408005,91.49785,66,80,0
91.501755,91.5916,73,80,0
91.595505,91.68535,69,80,0
91.689255,91.7791,73,80,0
91.783005,91.87285,66,80,0
91.876755,91.9666,73,80,0
91.970505,92.06035,69,80,0
92.064255,92.1541,73,80,0
92.158005,92.24785,71,80,0
92.251755,92.3416,73,80,0
92.345505,92.43535,68,80,0
92.439255,92.5291,73,80,0
92.720505,92.9041,58,110,0
92.814255,92.9041,66,110,0
92.908005,93.0916,66,110,0
93.001755,93.0916,70,110,0
93.095505,93.2791,70,110,0
93.189255,93.2791,73,110,0
93.283005,93.4666,73,110,0
93.376755,93.4666,78,110,0
93.470505,93.6541,78,110,0
93.564255,93.6541,82,110,0
93.658005,93.8416,82,110,0
93.751755,93.8416,85,110,0
93.845505,94.0291,85,110,0
93.939255,94.0291,94,110,0
94.033005,94.2166,94,110,0
94.220505,94.31035,70,80,0
94.314255,94.4041,73,80,0
94.408005,94.49785,66,80,0
94.501755,94.5916,73,80,0
94.595505,94.68535,69,80,0
94.689255,94.7791,73,80,0
94.783005,94.87285,66,80,0
94.876755,94.9666,73,80,0
94.970505,95.06035,69,80,0
95.064255,95.1541,73,80,0
95.158005,95.24785,71,80,0
95.251755,95.3416,73,80,0
95.345505,95.43535,68,80,0
95.439255,95.5291,73,80,0
95.533005,95.62285,66,80,0
95.626755,95.7166,69,81,0
95.720505,95.81035,69,83,0
95.814255,95.9041,78,85,0
95.908005,95.99785,68,87,0
96.001755,96.0916,77,89,0
96.095505,96.18535,77,91,0
96.189255,96.2791,80,93,0
96.283005,96.37285,69,95,0
96.376755,96.4666,78,97,0
96.470505,96.56035,78,99,0
96.564255,96.6541,81,101,0
96.658005,96.74785,77,103,0
96.751755,96.8416,80,105,0
96.845505,96.93535,80,107,0
96.939255,97.0291,83,109,0
97.033005,97.12285,69,110,0
97.126755,97.2166,78,110,0
97.220505,97.31035,78,110,0
97.314255,97.4041,81,110,0
97.408005,97.49785,77,110,0
97.501755,97.5916,80,110,0
97.595505,97.68535,80,110,0
97.689255,97.7791,83,110,0
97.783005,97.87285,78,110,0
97.876755,97.9666,81,110,0
97.970505,98.06035,81,110,0
98.064255,98.1541,90,110,0
98.158005,98.24785,80,110,0
98.251755,98.3416,89,110,0
98.345505,98.43535,83,110,0
98.439255,98.5291,92,110,0
98.533005,98.62285,66,80,0
98.626755,98.7166,69,81,0
98.720505,98.81035,69,83,0
98.814255,98.9041,78,85,0
98.908005,98.99785,68,87,0
99.001755,99.0916,77,89,0
99.095505,99.18535,77,91,0
99.189255,99.2791,80,93,0
99.283005,99.37285,69,95,0
99.376755,99.4666,78,97,0
99.470505,99.56035,78,99,0
99.564255,99.6541,81,101,0
99.658005,99.74785,77,103,0
99.751755,99.8416,80,105,0
99.845505,99.93535,80,107,0
99.939255,100.0291,83,109,0
100.033005,100.12285,69,110,0
100.126755,100.2166,78,110,0
100.220505,100.31035,78,110,0
100.314255,100.4041,81,110,0
100.408005,100.49785,77,110,0
100.501755,100.5916,80,110,0
100.595505,100.68535,80,110,0
100.689255,100.7791,83,110,0
100.783005,100.87575,78,110,0
100.879776,100.97252,81,110,0
100.976555,101.0693,81,110,0
101.073326,101.16607,90,110,0
101.1701,101.26284,78,110,0
101.26688,101.35962,81,110,0
101.36365,101.45639,81,110,0
101.46042,101.55316,90,110,0
101.5572,101.65303,78,110,0
101.657196,101.75303,81,110,0
101.757195,101.85303,81,110,0
101.85719,101.95303,90,110,0
101.9572,102.059875,78,110,0
102.06434,102.167015,81,110,0
102.17148,102.291275,81,110,0
102.29648,102.416275,90,110,0
102.42148,103.1313,90,120,0
102.42148,103.1313,84,120,0
102.42148,103.1313,78,120,0
102.42148,103.1313,81,120,0
103.135765,103.33666,59,120,0
103.24291,103.43599,60,120,0
103.53755,103.721146,59,119,0
103.6313,103.795364,60,119,0
103.91255,104.08052,65,118,0
104.0063,104.170364,66,118,0
104.28755,104.46333,68,117,0
104.3813,104.545364,69,117,0
104.66255,104.84224,71,116,0
104.7563,104.92818,72,115,0
105.03755,105.201614,77,114,0
105.1313,105.28755,78,114,0
105.41255,105.57271,80,113,0
105.5063,105.67427,81,113,0
105.78755,105.951614,83,112,0
105.8813,106.05318,84,112,0
106.16255,106.33052,89,111,0
106.2563,106.43599,90,111,0
106.53755,106.71724,92,80,0
106.6313,106.78755,93,80,0
106.91255,107.0688,89,80,0
107.0063,107.16646,90,80,0
107.28755,107.4438,92,80,0
107.3813,107.564896,93,80,0
107.66255,107.83443,89,80,0
107.7563,107.93208,90,80,0
108.03755,108.201614,83,80,0
108.1313,108.31099,84,80,0
108.41255,108.58443,81,80,0
108.5063,108.68599,84,80,0
108.78755,108.94771,83,80,0
108.8813,109.045364,84,80,0
109.16255,109.3188,83,80,0
109.2563,109.41646,84,80,0
109.53755,109.701614,81,80,0
109.6313,109.80318,84,80,0
109.91255,110.07271,83,80,0
110.0063,110.170364,84,80,0
110.28755,110.45943,81,80,0
110.3813,110.54927,84,80,0
110.66255,110.83443,71,80,0
110.7563,110.92427,72,80,0
111.03755,111.19771,69,80,0
111.1313,111.28755,72,80,0
111.41255,111.596146,71,80,0
111.5063,111.670364,72,80,0
111.78755,111.95552,69,80,0
111.8813,112.04146,72,80,0
112.16255,112.34224,71,80,0
112.2563,112.42427,72,80,0
112.53755,112.71724,69,80,0
112.6313,112.80708,72,80,0
112.91255,113.08052,69,80,0
113.0063,113.18599,72,80,0
113.28755,113.46333,69,80,0
113.3813,113.54146,72,80,0
113.66255,113.83833,69,80,0
113.7563,113.92667,72,80,0
114.0436,114.22909,80,70,0
114.14037,114.305695,81,70,0
114.430695,114.62022,83,70,0
114.52747,114.71591,84,70,0
114.82424,114.99508,80,70,0
114.92425,115.11353,81,70,0
115.23853,115.4677,83,70,0
115.36353,115.48332,84,70,0
115.48853,116.084366,84,110,0
115.48853,116.084366,78,110,0
115.48853,116.084366,72,110,0
116.08853,116.28436,85,110,0
116.08853,116.28436,77,110,0
116.08853,116.28436,73,110,0
116.28853,116.684364,80,110,0
116.28853,116.684364,77,110,0
116.28853,116.684364,73,110,0
116.88853,117.084366,58,80,0
116.88853,117.084366,49,80,0
117.08853,117.3904,59,80,0
117.08853,117.3904,51,80,0
117.39465,117.49244,58,80,0
117.39465,117.49244,49,80,0
117.4967,117.70211,56,80,0
117.4967,117.70211,47,80,0
117.70648,117.9119,54,80,0
117.70648,117.9119,46,80,0
117.916275,118.33148,53,80,0
117.916275,118.33148,44,80,0
118.75543,119.339584,85,110,0
118.75543,119.339584,82,110,0
118.75543,119.339584,73,110,0
119.343666,119.53566,87,110,0
119.343666,119.53566,83,110,0
119.343666,119.53566,75,110,0
119.53975,119.92782,88,110,0
119.53975,119.92782,85,110,0
119.53975,119.92782,76,110,0
120.12798,120.31997,54,80,0
120.12798,120.31997,51,80,0
120.32406,120.623886,56,80,0
120.32406,120.623886,52,80,0
120.62811,120.72524,52,80,0
120.62811,120.72524,49,80,0
120.72946,120.939285,51,80,0
120.72946,120.939285,47,80,0
120.94375,121.15357,49,80,0
120.94375,121.15357,46,80,0
121.158035,121.58214,51,80,0
121.158035,121.58214,47,80,0
122.015175,122.677216,83,80,0
122.015175,122.677216,71,80,0
122.68184,122.926636,82,80,0
122.68184,122.926636,70,80,0
122.93184,123.426636,87,80,0
122.93184,123.426636,75,80,0
123.68184,123.926636,61,80,0
123.68184,123.926636,54,80,0
123.93184,124.237465,59,80,0
124.24163,124.33746,58,80,0
123.93184,124.53747,54,80,0
124.34163,124.53747,56,80,0
124.54163,124.737465,61,80,0
124.54163,124.737465,53,80,0
124.74163,125.33746,58,80,0
124.74163,125.33746,54,80,0
125.34163,125.53747,63,80,0
125.34163,125.53747,54,80,0
125.54163,125.83746,59,80,0
125.84163,125.93746,58,80,0
125.54163,126.13747,54,80,0
125.941635,126.13747,56,80,0
126.14163,126.33746,61,80,0
126.14163,126.33746,53,80,0
126.34163,126.93746,58,80,0
126.34163,126.93746,54,80,0
126.941635,127.13747,54,80,0
126.941635,127.13747,66,80,0
126.941635,127.13747,63,80,0
127.14163,127.43746,64,82,0
127.441635,127.53747,63,86,0
127.14163,127.737465,58,82,0
127.14163,127.737465,54,82,0
127.54163,127.737465,61,87,0
127.74163,127.93746,66,89,0
127.74163,127.93746,61,89,0
127.74163,127.93746,58,89,0
127.941635,128.53746,64,92,0
127.941635,128.53746,61,92,0
127.941635,128.53746,58,92,0
128.54163,128.73746,78,99,0
128.54163,128.73746,76,99,0
128.54163,128.73746,70,99,0
128.74164,129.03746,78,102,0
129.04163,129.13747,76,106,0
128.74164,129.33746,75,102,0
129.14163,129.33746,75,107,0
128.74164,129.33746,71,102,0
129.34163,129.53746,78,109,0
129.34163,129.53746,75,109,0
129.54163,129.83746,80,110,0
129.84163,129.93747,78,110,0
129.54163,130.13747,73,110,0
129.54163,130.13747,71,110,0
129.94164,130.13747,77,110,0
130.14163,130.33746,80,110,0
130.14163,130.33746,77,110,0
130.34163,130.63747,80,110,0
130.64163,130.73746,78,110,0
130.74164,130.93747,77,110,0
130.94164,131.13747,85,110,0
131.14163,131.43747,82,110,0
131.44164,131.53746,80,110,0
131.54163,131.73746,78,110,0
131.74164,131.93747,85,110,0
131.94164,132.23746,80,110,0
132.24164,132.33746,78,110,0
132.34163,132.53746,77,110,0
132.54163,132.73746,85,110,0
132.74164,133.03746,78,110,0
133.04163,133.13747,77,110,0
133.14163,133.33746,75,110,0
133.34163,133.53746,85,110,0
133.54163,133.83746,77,110,0
133.84163,133.93747,75,110,0
133.94164,134.13747,85,110,0
133.94164,134.13747,73,110,0
134.14163,134.33746,83,110,0
134.14163,134.33746,71,110,0
134.34163,134.6586,83,110,0
134.66306,134.76573,82,80,0
134.34163,134.99617,73,110,0
134.7702,134.99617,80,80,0
135.00098,135.22693,73,80,0
135.00098,135.22693,71,80,0
135.23174,135.60153,71,80,0
135.23174,135.72653,73,80,0
135.60674,135.72653,70,80,0
135.73174,136.0255,73,80,0
135.73174,136.0255,71,80,0
135.73174,136.0255,68,80,0
136.03174,136.32549,73,80,0
136.03174,136.32549,70,80,0
136.03174,136.32549,66,80,0
136.33174,137.5255,73,80,0
136.33174,137.5255,68,80,0
136.33174,137.5255,65,80,0
137.53174,139.02393,75,70,0
137.53174,139.02393,69,70,0
137.53174,139.02393,66,70,0
139.92062,140.13821,68,99,0
139.97618,140.20303,71,100,0
140.03174,140.26785,73,101,0
140.0873,140.28636,77,101,0
140.14285,140.35118,61,102,0
140.19841,140.42062,65,103,0
140.25397,140.47618,68,103,0
140.30952,140.53636,71,104,0
140.5873,141.67062,85,107,0
140.36507,141.69377,73,104,0
140.42062,141.69377,77,105,0
140.47618,141.69377,80,106,0
140.53174,141.69377,83,106,0
140.64285,141.69377,89,108,0
141.69841,141.86752,57,110,0
141.78664,141.95209,66,110,0
141.87488,142.04399,57,110,0
141.9631,142.13591,66,110,0
142.05135,142.21678,57,110,0
142.13959,142.29767,66,110,0
142.22781,142.39693,58,110,0
142.31606,142.47781,66,110,0
142.40428,142.56606,59,110,0
142.49252,142.66164,66,110,0
142.58075,142.74252,63,110,0
142.66899,142.82341,71,110,0
142.75723,142.91899,68,110,0
142.84546,143.01091,71,110,0
142.9337,143.10281,65,110,0
143.02193,143.1837,73,110,0
143.11017,143.27928,69,120,0
143.19841,143.36385,78,120,0
143.28664,143.45575,69,120,0
143.37488,143.53664,78,120,0
143.4631,143.63591,69,120,0
143.55135,143.70209,78,120,0
143.63959,143.79767,70,120,0
143.72781,143.89325,78,120,0
143.81606,143.9631,71,120,0
143.90428,144.06238,78,120,0
143.99252,144.15796,75,120,0
144.08075,144.23517,83,120,0
144.16899,144.32707,80,120,0
144.25723,144.41531,83,120,0
144.34546,144.49988,77,120,0
144.4337,144.59854,85,120,0
144.52193,144.69936,78,120,0
144.61871,144.7921,82,120,0
144.71548,144.7921,82,120,0
144.81226,144.98564,85,120,0
144.90903,145.07838,82,120,0
145.0058,145.20674,85,120,0
145.10257,145.38382,83,120,0
145.10257,145.39944,80,120,0
145.22757,145.40726,89,120,0
145.41507,146.53226,90,120,0
145.41507,146.53226,82,120,0
145.41507,146.53226,78,120,0
148.41507,148.78226,66,1,0
0.0,0.59583336,54,110,0
0.0,0.59583336,50,110,0
0.6,0.79583335,56,110,0
0.6,0.79583335,49,110,0
0.8,0.99583334,49,110,0
0.8,0.99583334,47,110,0
1.4142855,1.6241068,49,80,0
1.4142855,1.6241068,46,80,0
1.628571,1.945535,44,80,0
1.9499992,2.0526776,46,80,0
2.057142,2.2669632,47,80,0
2.2714274,2.4812486,48,80,0
2.485713,2.9098196,49,80,0
3.342855,3.9386883,67,110,0
3.342855,3.9386883,64,110,0
3.942855,4.1386886,66,110,0
3.942855,4.1386886,63,110,0
4.142855,4.538688,64,110,0
4.142855,4.538688,61,110,0
4.742855,4.9386883,63,80,0
4.742855,4.9386883,59,80,0
4.942855,5.2488894,56,80,0
4.942855,5.352338,52,80,0
5.2531996,5.352338,61,80,0
5.356648,5.566469,63,80,0
5.356648,5.566469,54,80,0
5.5709333,5.7807546,64,80,0
5.5709333,5.7807546,54,80,0
5.785219,6.209326,63,80,0
5.785219,6.209326,59,80,0
6.642361,7.3043976,63,80,0
7.309027,7.5266194,61,80,0
7.531249,7.971063,59,80,0
8.197915,8.381509,58,80,0
8.385415,8.662759,56,80,0
8.666665,8.756509,58,80,0
8.760415,8.944009,59,80,0
8.947915,9.131509,49,80,0
9.135415,9.319009,54,80,0
9.322915,9.506509,61,82,0
9.510415,9.694009,63,85,0
9.697915,9.881509,61,87,0
9.885415,10.069009,59,90,0
10.072915,10.256509,58,93,0
10.260415,10.444009,56,95,0
10.447915,10.631509,49,98,0
10.635415,10.819009,54,110,0
10.822915,11.006509,49,110,0
11.010415,11.194009,46,110,0
11.197915,11.381509,49,110,0
11.385415,11.569009,42,110,0
11.572915,11.756509,49,110,0
11.760415,11.944009,37,110,0
11.947915,12.131509,49,110,0
12.135415,12.319009,42,110,0
12.322915,12.506509,61,110,0
12.510415,12.694009,63,110,0
12.697915,12.881509,61,110,0
12.885415,13.069009,59,110,0
13.072915,13.256509,58,110,0
13.260415,13.444009,56,110,0
13.447915,13.631509,49,110,0
13.635415,13.819009,54,110,0
13.822915,14.006509,49,110,0
14.010415,14.194009,46,110,0
14.197915,14.381509,49,110,0
14.385415,14.569009,42,110,0
14.572915,14.756509,49,110,0
14.760415,14.944009,37,110,0
14.947915,15.131509,49,110,0
15.135415,15.319009,42,110,0
15.322915,15.506509,54,110,0
15.510415,15.694009,39,110,0
15.697915,15.881509,51,110,0
15.885415,16.08125,35,110,0
16.085415,16.281248,47,110,0
16.285416,16.495235,32,110,0
16.4997,16.709522,44,110,0
16.713985,16.923807,49,110,0
16.713985,16.923807,37,110,0
17.115772,17.205616,60,110,0
17.209522,17.299366,61,110,0
17.490772,17.580616,64,110,0
17.584522,17.674366,65,110,0
17.865772,17.955616,67,110,0
17.959522,18.049366,68,110,0
18.240772,18.330616,72,110,0
18.334522,18.424366,73,110,0
18.615772,18.705616,76,110,0
18.709522,18.799366,77,110,0
18.990772,19.080616,79,110,0
19.084522,19.174366,80,110,0
19.365772,19.455616,84,110,0
19.459522,19.549366,85,110,0
19.740772,19.830616,88,80,0
19.834522,19.924366,89,80,0
20.115772,20.205616,84,80,0
20.209522,20.299366,85,80,0
20.490772,20.580616,79,80,0
20.584522,20.674366,80,80,0
20.865772,20.955616,76,80,0
20.959522,21.049366,77,80,0
21.240772,21.330616,72,80,0
21.334522,21.424366,73,80,0
21.615772,21.705616,67,80,0
21.709522,21.799366,68,80,0
21.990772,22.080616,64,80,0
22.084522,22.174366,65,80,0
22.365772,22.455616,60,80,0
22.459522,22.549366,61,80,0
22.740772,22.830616,60,70,0
22.834522,22.924366,61,70,0
23.115772,23.205616,48,70,0
23.209522,23.299366,49,70,0
23.490772,23.586605,60,70,0
23.59077,23.686605,61,70,0
23.890772,23.99345,48,70,0
23.997913,24.100594,49,70,0
24.319342,24.877935,54,110,0
24.319342,24.877935,50,110,0
24.881842,25.065435,56,110,0
24.881842,25.065435,49,110,0
25.069342,25.440435,49,110,0
25.069342,25.440435,47,110,0
25.631842,25.815435,49,80,0
25.631842,25.815435,46,80,0
25.819342,26.105633,44,80,0
26.109665,26.202406,46,80,0
26.206438,26.41626,47,80,0
26.420725,26.630545,48,80,0
26.63501,27.059116,49,80,0
27.492151,28.050745,67,110,0
27.492151,28.050745,64,110,0
28.054651,28.238245,66,110,0
28.054651,28.238245,63,110,0
28.242151,28.613245,64,110,0
28.242151,28.613245,61,110,0
28.804651,28.988245,63,80,0
28.804651,28.988245,59,80,0
28.992151,29.282183,56,80,0
28.992151,29.380222,52,80,0
29.286268,29.380222,61,80,0
29.384308,29.59413,63,80,0
29.384308,29.59413,54,80,0
29.598593,29.808414,64,80,0
29.598593,29.808414,54,80,0
29.812878,30.236986,63,80,0
29.812878,30.236986,59,80,0
30.670021,31.332056,63,70,0
31.336687,31.55428,61,70,0
31.558908,31.998722,59,70,0
32.225574,32.44317,58,70,0
32.447796,32.7765,56,70,0
32.781128,32.88761,58,70,0
32.89224,33.109833,59,70,0
33.114464,33.298058,49,80,0
33.301964,33.485558,54,70,0
33.489464,33.673058,61,75,0
33.676964,33.860558,63,80,0
33.864464,34.048058,61,85,0
34.051964,34.235558,59,91,0
34.239464,34.423058,58,96,0
34.426964,34.610558,56,101,0
34.614464,34.798058,49,107,0
34.801964,34.985558,54,110,0
34.989464,35.173058,49,110,0
35.176964,35.360558,46,110,0
35.364464,35.548058,49,110,0
35.551964,35.735558,42,110,0
35.739464,35.923058,49,110,0
35.926964,36.110558,37,110,0
36.114464,36.298058,49,110,0
36.301964,36.485558,42,110,0
36.489464,36.673058,61,110,0
36.676964,36.860558,63,110,0
36.864464,37.048058,61,110,0
37.051964,37.235558,59,110,0
37.239464,37.423058,58,110,0
37.426964,37.610558,56,110,0
37.614464,37.798058,49,110,0
37.801964,37.985558,54,110,0
37.989464,38.173058,42,110,0
38.176964,38.360558,51,110,0
38.364464,38.548058,39,110,0
38.551964,38.735558,47,110,0
38.739464,38.923058,35,110,0
38.926964,39.110558,45,110,0
39.114464,39.298058,33,110,0
39.301964,39.485558,46,110,0
39.301964,39.485558,34,110,0
39.676964,39.860558,70,110,0
39.770714,39.860558,68,110,0
40.051964,40.22384,68,110,0
40.145714,40.235558,66,110,0
40.426964,40.602745,66,110,0
40.520714,40.610558,65,110,0
40.801964,40.97384,65,110,0
40.895714,40.985558,63,110,0
41.176964,41.352745,63,110,0
41.270714,41.360558,61,110,0
41.551964,41.716026,61,110,0
41.645714,41.735558,59,110,0
41.926964,42.08712,59,110,0
42.020714,42.110558,58,110,0
42.301964,42.395916,58,110,0
42.4,42.493954,57,109,0
42.69412,42.78807,58,103,0
42.792156,42.886112,56,101,0
43.086273,43.184734,58,95,0
43.189014,43.28747,54,93,0
43.497234,43.59991,58,87,0
43.604374,43.707054,53,85,0
43.925804,44.671898,39,110,0
44.113304,44.671898,55,110,0
44.300804,44.859398,58,110,0
44.488304,45.046898,63,110,0
44.675804,45.234398,67,110,0
44.863304,45.421898,70,110,0
45.050804,45.421898,75,110,0
45.238304,45.609398,79,110,0
45.425804,45.609398,82,110,0
45.613304,45.796898,51,80,0
45.800804,45.984398,54,80,0
45.988304,46.171898,51,80,0
46.175804,46.359398,54,80,0
46.363304,46.546898,51,80,0
46.550804,46.734398,53,80,0
46.550804,46.921898,46,80,0
46.738304,46.921898,50,80,0
46.925804,47.671898,39,110,0
47.113304,47.671898,55,110,0
47.300804,47.859398,58,110,0
47.488304,48.046898,63,110,0
47.675804,48.234398,67,110,0
47.863304,48.421898,70,110,0
48.050804,48.421898,75,110,0
48.238304,48.609398,79,110,0
48.425804,48.609398,82,110,0
48.613304,48.796898,51,80,0
48.800804,48.984398,54,80,0
48.988304,49.171898,51,80,0
49.175804,49.359398,54,80,0
49.363304,49.546898,51,80,0
49.550804,49.734398,53,80,0
49.550804,49.921898,46,80,0
49.738304,49.921898,50,80,0
49.925804,50.109398,51,80,0
50.113304,50.296898,51,83,0
50.300804,50.484398,58,87,0
50.488304,50.671898,46,91,0
50.675804,50.859398,51,95,0
50.863304,51.046898,39,99,0
51.050804,51.234398,46,103,0
51.238304,51.421898,34,107,0
51.425804,51.609398,39,110,0
51.613304,51.796898,51,110,0
51.800804,51.984398,58,110,0
51.988304,52.171898,46,110,0
52.175804,52.359398,51,110,0
52.363304,52.546898,39,110,0
52.550804,52.734398,46,110,0
52.738304,52.921898,34,110,0
52.925804,53.109398,39,80,0
53.113304,53.296898,51,83,0
53.300804,53.484398,58,87,0
53.488304,53.671898,46,91,0
53.675804,53.859398,51,95,0
53.863304,54.046898,39,99,0
54.050804,54.234398,46,103,0
54.238304,54.421898,34,107,0
54.425804,54.609398,39,110,0
54.613304,54.796898,51,110,0
54.800804,54.984398,58,110,0
54.988304,55.171898,46,110,0
55.175804,55.359398,51,110,0
55.363304,55.546898,39,110,0
55.550804,55.734398,49,110,0
55.738304,55.921898,37,110,0
55.925804,56.109398,47,110,0
56.113304,56.296898,35,110,0
56.300804,56.484398,47,110,0
56.488304,56.671898,35,110,0
56.675804,57.234398,43,120,0
56.675804,57.234398,31,120,0
57.425804,57.59768,58,120,0
57.519554,57.69143,59,120,0
57.800804,57.968773,61,120,0
57.894554,58.070335,62,120,0
58.175804,58.351585,64,120,0
58.269554,58.437523,65,120,0
58.550804,58.718773,70,120,0
58.644554,58.808617,71,120,0
58.925804,59.089867,73,120,0
59.019554,59.175804,74,120,0
59.300804,59.48049,76,120,0
59.394554,59.55471,77,120,0
59.675804,59.832054,82,120,0
59.769554,59.94143,83,120,0
60.050804,60.23049,85,120,0
60.144554,60.312523,86,120,0
60.425804,60.59768,85,80,0
60.519554,60.687523,86,80,0
60.800804,60.96096,82,80,0
60.894554,61.078148,83,80,0
61.175804,61.339867,85,80,0
61.269554,61.44143,86,80,0
61.550804,61.707054,82,80,0
61.644554,61.812523,83,80,0
61.925804,62.08596,85,80,0
62.019554,62.187523,86,80,0
62.300804,62.46096,82,80,0
62.394554,62.570335,83,80,0
62.675804,62.84768,78,80,0
62.769554,62.92971,79,80,0
63.050804,63.207054,76,80,0
63.144554,63.312523,77,80,0
63.425804,63.593773,73,80,0
63.519554,63.69143,74,80,0
63.800804,63.968773,70,80,0
63.894554,64.07424,71,80,0
64.175804,64.33987,73,80,0
64.269554,64.43362,74,80,0
64.550804,64.73049,70,80,0
64.644554,64.80471,71,80,0
64.925804,65.09377,73,70,0
65.019554,65.17971,74,70,0
65.300804,65.46487,82,70,0
65.394554,65.56252,83,70,0
65.675804,65.84377,85,70,0
65.769554,65.94143,86,70,0
66.050804,66.2344,82,70,0
66.144554,66.31643,83,70,0
66.425804,66.61371,73,70,0
66.52384,66.69949,74,70,0
66.81796,66.993614,70,70,0
66.916,67.08348,71,70,0
67.21011,67.39977,73,70,0
67.31356,67.50322,74,70,0
67.62391,67.82298,70,70,0
67.735016,67.93409,71,70,0
68.06835,68.664185,71,110,0
68.06835,68.664185,67,110,0
68.66835,68.86419,73,110,0
68.66835,68.86419,70,110,0
68.66835,68.86419,66,110,0
68.868355,69.064186,73,110,0
68.868355,69.064186,70,110,0
68.868355,69.064186,66,110,0
69.46835,69.664185,35,80,0
69.66835,69.97439,37,80,0
69.9787,70.077835,39,80,0
70.082146,70.299736,40,80,0
70.30437,70.52196,41,80,0
70.52659,70.9664,42,80,0
71.415474,72.011314,71,110,0
71.415474,72.011314,69,110,0
72.01548,72.21131,71,110,0
72.01548,72.21131,68,110,0
72.21548,72.61131,71,110,0
72.21548,72.61131,69,110,0
72.21548,72.61131,66,110,0
72.815475,73.011314,40,80,0
73.01548,73.32151,33,80,0
73.32582,73.42496,45,80,0
73.42927,73.642136,47,80,0
73.64666,73.85952,35,80,0
73.86405,74.294304,40,80,0
74.73362,75.39565,71,110,0
74.73362,75.39565,68,110,0
75.40028,75.617874,71,110,0
75.40028,75.617874,66,110,0
75.622505,75.840096,71,110,0
75.622505,75.840096,64,110,0
76.28917,76.47276,39,80,0
76.47667,76.75401,37,80,0
76.75792,76.84776,39,80,0
76.85167,77.03526,40,80,0
77.03917,77.22276,42,80,0
77.22667,77.41026,47,80,0
77.41417,77.59776,54,83,0
77.60167,77.78526,56,87,0
77.78917,77.97276,54,91,0
77.97667,78.16026,52,95,0
78.16417,78.34776,51,99,0
78.35167,78.53526,49,103,0
78.53917,78.72276,42,107,0
78.72667,78.91026,47,110,0
78.91417,79.09776,42,110,0
79.10167,79.28526,39,110,0
79.28917,79.47276,42,110,0
79.47667,79.66026,35,110,0
79.66417,79.84776,42,110,0
79.85167,80.03526,30,110,0
80.03917,80.22276,42,110,0
80.22667,80.41026,35,110,0
80.41417,80.59776,54,110,0
80.60167,80.78526,56,110,0
80.78917,80.97276,54,110,0
80.97667,81.16026,52,110,0
81.16417,81.34776,51,110,0
81.35167,81.53526,49,110,0
81.53917,81.72276,42,110,0
81.72667,81.91026,47,110,0
81.91417,82.09776,42,110,0
82.10167,82.28526,38,110,0
82.28917,82.47276,42,110,0
82.47667,82.66026,35,110,0
82.66417,82.84776,42,110,0
82.85167,83.03526,37,110,0
83.03917,83.22276,41,110,0
83.22667,83.41026,42,110,0
83.41417,83.59776,49,110,0
83.60167,83.79118,45,110,0
83.79522,83.98473,49,110,0
83.98877,84.1846,42,110,0
84.18877,84.3846,54,110,0
84.38876,84.59859,38,110,0
84.60305,84.84785,50,110,0
84.85305,85.09785,49,110,0
84.85305,85.09785,37,110,0
85.29055,85.45071,71,110,0
85.3843,85.474144,69,110,0
85.66555,85.837425,69,110,0
85.7593,85.849144,68,110,0
86.04055,86.21633,68,110,0
86.1343,86.224144,66,110,0
86.41555,86.57961,66,110,0
86.5093,86.599144,65,110,0
86.79055,86.95071,65,110,0
86.8843,86.974144,62,110,0
87.16555,87.34524,62,110,0
87.2593,87.349144,61,110,0
87.54055,87.72024,61,110,0
87.6343,87.724144,60,110,0
87.91555,88.07571,61,100,0
88.0093,88.099144,60,99,0
88.29055,88.480064,61,95,0
88.38733,88.480064,59,93,0
88.67765,88.86515,61,80,0
88.77765,88.87348,57,80,0
89.077644,89.269615,61,80,0
89.18479,89.28747,56,80,0
89.50622,90.2791,42,110,0
89.720505,90.2791,58,110,0
89.908005,90.4666,61,110,0
90.095505,90.6541,66,110,0
90.283005,90.8416,70,110,0
90.470505,91.0291,73,110,0
90.658005,91.0291,78,110,0
90.845505,91.2166,82,110,0
91.033005,91.2166,85,110,0
91.220505,91.4041,54,80,0
91.408005,91.5916,57,80,0
91.595505,91.7791,54,80,0
91.783005,91.9666,57,80,0
91.970505,92.1541,54,80,0
92.158005,92.3416,56,80,0
92.158005,92.5291,49,80,0
92.345505,92.5291,53,80,0
92.533005,93.2791,42,110,0
92.720505,93.2791,58,110,0
92.908005,93.4666,61,110,0
93.095505,93.6541,66,110,0
93.283005,93.8416,70,110,0
93.470505,94.0291,73,110,0
93.658005,94.0291,78,110,0
93.845505,94.2166,82,110,0
94.033005,94.2166,85,110,0
94.220505,94.4041,54,80,0
94.408005,94.5916,57,80,0
94.595505,94.7791,54,80,0
94.783005,94.9666,57,80,0
94.970505,95.1541,54,80,0
95.158005,95.3416,56,80,0
95.158005,95.5291,49,80,0
95.345505,95.5291,53,80,0
95.533005,95.7166,54,80,0
95.720505,95.9041,54,83,0
95.908005,96.0916,61,87,0
96.095505,96.2791,49,91,0
96.283005,96.4666,54,95,0
96.470505,96.6541,42,99,0
96.658005,96.8416,49,103,0
96.845505,97.0291,37,107,0
97.033005,97.2166,42,110,0
97.220505,97.4041,54,110,0
97.408005,97.5916,61,110,0
97.595505,97.7791,49,110,0
97.783005,97.9666,54,110,0
97.970505,98.1541,42,110,0
98.158005,98.3416,49,110,0
98.345505,98.5291,37,110,0
98.533005,98.7166,42,80,0
98.720505,98.9041,54,83,0
98.908005,99.0916,61,87,0
99.095505,99.2791,49,91,0
99.283005,99.4666,54,95,0
99.470505,99.6541,42,99,0
99.658005,99.8416,49,103,0
99.845505,100.0291,37,107,0
100.033005,100.2166,42,110,0
100.220505,100.4041,54,110,0
100.408005,100.5916,61,110,0
100.595505,100.7791,49,110,0
100.783005,100.97252,54,110,0
100.976555,101.16607,42,110,0
101.1701,101.35962,52,110,0
101.36365,101.55316,40,110,0
101.5572,101.75303,50,110,0
101.757195,101.95303,38,110,0
101.9572,102.167015,50,110,0
102.17148,102.416275,38,110,0
102.42148,103.1313,50,120,0
102.42148,103.1313,38,120,0
103.35005,103.52583,59,120,0
103.4438,103.61177,60,120,0
103.72505,103.8813,65,119,0
103.8188,103.98677,66,118,0
104.10005,104.27974,68,117,0
104.1938,104.36568,69,117,0
104.47505,104.64693,71,116,0
104.5688,104.732864,72,116,0
104.85005,105.01802,77,115,0
104.9438,105.127396,78,115,0
105.22505,105.40083,80,114,0
105.3188,105.482864,81,114,0
105.60005,105.77583,83,113,0
105.6938,105.86177,84,112,0
105.97505,106.13521,89,111,0
106.0688,106.24068,90,111,0
106.35005,106.51021,92,80,0
106.4438,106.61958,93,80,0
106.72505,106.89302,89,80,0
106.8188,106.99458,90,80,0
107.10005,107.27193,83,80,0
107.1938,107.36958,84,80,0
107.47505,107.65474,80,80,0
107.5688,107.752396,81,80,0
107.85005,108.02583,80,80,0
107.9438,108.107864,81,80,0
108.22505,108.39693,77,80,0
108.3188,108.48677,78,80,0
108.60005,108.76802,71,80,0
108.6938,108.86568,72,80,0
108.97505,109.15083,68,80,0
109.0688,109.22896,69,80,0
109.35005,109.51802,65,80,0
109.4438,109.61958,66,80,0
109.72505,109.90083,68,80,0
109.8188,110.002396,69,80,0
110.10005,110.26802,65,80,0
110.1938,110.36568,66,80,0
110.47505,110.65083,80,80,0
110.5688,110.74068,81,80,0
110.85005,111.033646,77,80,0
110.9438,111.12349,78,80,0
111.22505,111.39693,80,80,0
111.3188,111.502396,81,80,0
111.60005,111.764114,77,80,0
111.6938,111.86177,78,80,0
111.97505,112.13521,80,80,0
112.0688,112.23677,81,80,0
112.35005,112.52193,77,80,0
112.4438,112.61568,78,80,0
112.72505,112.889114,80,80,0
112.8188,112.98677,81,80,0
113.10005,113.283646,77,80,0
113.1938,113.35005,78,80,0
113.47505,113.64302,80,80,0
113.5688,113.732864,81,80,0
113.85005,114.02747,68,70,0
113.94683,114.136345,69,70,0
114.23715,114.42263,71,70,0
114.33392,114.51537,72,70,0
114.624245,114.79925,68,70,0
114.72424,114.90758,69,70,0
115.02425,115.21621,71,70,0
115.131386,115.32707,72,70,0
115.48853,116.084366,66,110,0
115.48853,116.084366,62,110,0
116.08853,116.28436,68,110,0
116.08853,116.28436,65,110,0
116.08853,116.28436,61,110,0
116.28853,116.684364,68,110,0
116.28853,116.684364,61,110,0
116.28853,116.684364,65,110,0
116.88853,117.084366,42,80,0
117.08853,117.3904,35,80,0
117.39465,117.49244,37,80,0
117.4967,117.70211,39,80,0
117.70648,117.9119,36,80,0
117.916275,118.33148,37,80,0
118.75543,119.339584,66,110,0
118.75543,119.339584,61,110,0
118.75543,119.339584,64,110,0
119.343666,119.53566,66,110,0
119.343666,119.53566,63,110,0
119.343666,119.53566,59,110,0
119.53975,119.92782,66,110,0
119.53975,119.92782,61,110,0
119.53975,119.92782,58,110,0
120.12798,120.31997,35,80,0
120.32406,120.623886,40,80,0
120.62811,120.72524,37,80,0
120.72946,120.939285,42,80,0
120.94375,121.15357,42,80,0
121.158035,121.58214,35,80,0
122.015175,122.677216,66,80,0
122.015175,122.677216,63,80,0
122.68184,122.926636,66,80,0
122.68184,122.926636,61,80,0
122.93184,123.426636,66,80,0
122.93184,123.426636,59,80,0
123.68184,123.926636,46,80,0
123.93184,124.237465,44,80,0
124.24163,124.33746,46,80,0
124.34163,124.53747,47,80,0
124.54163,124.737465,49,80,0
124.74163,125.03747,42,80,0
125.04163,125.13747,44,80,0
125.14163,125.33746,46,80,0
125.34163,125.53747,47,80,0
125.54163,125.83746,44,80,0
125.84163,125.93746,46,80,0
125.941635,126.13747,47,80,0
126.14163,126.33746,49,80,0
126.34163,126.63747,42,80,0
126.64163,126.737465,44,80,0
126.74163,126.93746,46,80,0
126.941635,127.13747,47,80,0
127.14163,127.43746,49,82,0
127.441635,127.53747,51,86,0
127.54163,127.737465,52,87,0
127.74163,127.93746,54,89,0
127.941635,128.23746,56,92,0
128.24164,128.33746,58,96,0
128.34163,128.53746,59,97,0
128.54163,128.73746,61,99,0
128.74164,129.03746,63,102,0
129.04163,129.13747,64,106,0
129.14163,129.33746,66,107,0
129.34163,129.53746,71,109,0
129.54163,129.83746,65,110,0
129.84163,129.93747,66,110,0
129.94164,130.13747,68,110,0
130.14163,130.33746,73,110,0
130.34163,130.63747,65,110,0
130.64163,130.73746,66,110,0
130.74164,130.93747,68,110,0
130.94164,131.13747,73,110,0
131.14163,131.43747,66,110,0
131.44164,131.53746,68,110,0
131.54163,131.73746,70,110,0
131.74164,131.93747,73,110,0
131.94164,132.23746,65,110,0
132.24164,132.33746,66,110,0
132.34163,132.53746,68,110,0
132.54163,132.73746,73,110,0
132.74164,133.03746,63,110,0
133.04163,133.13747,65,110,0
133.14163,133.33746,66,110,0
133.34163,133.53746,73,110,0
133.54163,133.83746,61,110,0
133.84163,133.93747,63,110,0
133.94164,134.13747,65,110,0
134.14163,134.33746,65,110,0
134.14163,134.33746,68,110,0
134.34163,134.6586,68,110,0
134.34163,134.6586,65,110,0
134.66306,134.76573,70,80,0
134.66306,134.76573,66,80,0
134.7702,134.99617,71,80,0
134.7702,134.99617,68,80,0
135.00098,135.22693,56,80,0
135.00098,135.22693,53,80,0
135.23174,135.60153,56,80,0
135.23174,135.60153,53,80,0
135.60674,135.72653,58,80,0
135.60674,135.72653,54,80,0
135.73174,136.0255,59,80,0
135.73174,136.0255,56,80,0
136.03174,136.32549,61,80,0
136.03174,136.32549,58,80,0
136.33174,137.5255,61,80,0
136.33174,137.5255,59,80,0
137.53174,139.02393,60,70,0
137.53174,139.02393,57,70,0
139.03174,139.22156,37,90,0
139.0873,139.30489,41,90,0
139.14285,139.36507,44,91,0
139.19841,139.416,47,91,0
139.25397,139.45767,49,92,0
139.30952,139.51321,53,93,0
139.36507,139.59192,56,93,0
139.42062,139.66138,59,94,0
139.47618,139.69841,61,94,0
139.53174,139.73544,65,95,0
139.5873,139.79562,49,96,0
139.64285,139.86044,53,96,0
139.69841,139.92062,56,97,0
139.75397,139.95303,59,98,0
139.80952,140.02711,61,98,0
139.86507,140.0873,65,99,0
141.69841,142.22414,48,110,0
142.22781,142.4006,49,110,0
142.40428,142.57709,51,110,0
142.58075,142.75356,47,110,0
142.75723,142.93002,53,110,0
141.69841,143.10649,42,110,0
142.9337,143.10649,49,110,0
143.11017,143.63591,60,120,0
143.63959,143.81238,61,120,0
143.81606,143.98885,63,120,0
143.99252,144.16531,59,120,0
144.16899,144.34178,65,120,0
143.11017,144.51825,54,120,0
144.34546,144.51825,61,120,0
144.52193,144.71144,66,120,0
144.71548,144.905,61,120,0
144.90903,145.09854,54,120,0
145.10257,145.40726,49,120,0
145.41507,146.53226,42,120,0
