start_time,end_time,note_value,velocity,instrument_program_number
0.0,1.3194441,59,80,0
0.0,1.3194441,68,80,0
1.333333,2.6527772,59,80,0
1.333333,3.3194437,64,80,0
2.666666,3.9861102,61,80,0
3.3333325,3.9861102,66,80,0
3.999999,5.319443,54,80,0
3.999999,5.319443,63,80,0
5.333332,7.9861093,54,80,0
5.333332,7.9861093,57,80,0
5.333332,7.9861093,59,80,0
7.999998,9.319442,56,80,0
7.999998,9.319442,59,80,0
7.999998,9.319442,68,80,0
9.333331,10.652775,59,80,0
9.333331,11.319442,64,80,0
10.666664,11.986108,61,80,0
11.33333,11.986108,66,80,0
11.999997,13.319441,63,80,0
11.999997,13.319441,66,80,0
13.33333,14.652774,70,80,0
13.33333,14.652774,61,80,0
13.33333,14.652774,64,80,0
14.666663,15.986107,63,80,0
14.666663,15.986107,66,80,0
14.666663,15.986107,71,80,0
15.999996,16.06944,59,80,0
16.08333,16.152773,64,80,0
16.166662,16.236107,68,80,0
16.249996,17.31944,71,80,0
17.333328,18.652773,59,80,0
17.333328,19.319439,64,80,0
19.333328,19.652773,68,80,0
18.666662,19.986107,61,80,0
19.666662,19.986107,66,80,0
19.999994,21.319439,63,80,0
22.16666,22.319439,57,80,0
21.333328,22.486105,59,80,0
22.333328,22.486105,59,80,0
22.499994,22.569439,57,80,0
22.583328,22.652773,56,80,0
22.66666,23.986105,57,80,0
23.999994,25.319439,56,80,0
25.333326,27.319437,64,83,0
25.333326,27.986105,52,83,0
27.333326,27.986105,58,89,0
27.999992,29.319437,55,80,0
27.999992,30.652771,58,80,0
29.333326,30.652771,52,80,0
30.666658,32.151035,59,80,0
30.666658,32.151035,51,80,0
32.16666,33.486103,59,80,0
32.16666,33.486103,68,80,0
33.499992,34.819435,59,80,0
33.499992,35.486103,64,80,0
34.833324,36.15277,61,80,0
35.499992,36.15277,66,80,0
36.166656,37.486103,54,80,0
36.166656,37.486103,63,80,0
37.499992,40.152767,54,80,0
37.499992,40.152767,57,80,0
37.499992,40.152767,59,80,0
40.166656,41.4861,56,80,0
40.166656,41.4861,59,80,0
40.166656,41.4861,68,80,0
41.49999,42.819435,59,80,0
41.49999,43.4861,64,80,0
42.833324,44.152767,61,80,0
43.49999,44.152767,66,80,0
44.166656,45.4861,63,80,0
44.166656,45.4861,66,80,0
45.49999,46.81943,70,80,0
45.49999,46.81943,61,80,0
45.49999,46.81943,64,80,0
46.83332,48.152767,63,80,0
46.83332,48.152767,66,80,0
46.83332,48.152767,71,80,0
48.166656,48.2361,59,80,0
48.24999,48.31943,64,80,0
48.33332,48.402767,68,80,0
48.416656,49.4861,71,80,0
49.49999,50.81943,59,80,0
49.49999,51.4861,64,80,0
51.49999,51.81943,68,80,0
50.83332,52.152763,61,80,0
51.83332,52.152763,66,80,0
52.166653,53.4861,63,80,0
54.33332,54.4861,57,80,0
53.49999,54.652763,59,80,0
54.49999,54.652763,59,80,0
54.666653,54.7361,57,80,0
54.74999,54.81943,56,80,0
54.83332,56.152763,57,80,0
56.166653,57.486095,56,80,0
57.499985,59.486095,64,83,0
57.499985,60.152763,52,83,0
59.499985,60.152763,58,89,0
60.166653,61.486095,55,80,0
60.166653,62.819427,58,80,0
61.499985,62.819427,52,80,0
62.833317,64.317696,59,80,0
62.833317,64.317696,51,80,0
64.33332,65.7361,71,80,0
65.749985,67.06943,66,80,0
65.749985,67.73609,71,80,0
67.08332,68.40276,68,80,0
67.749985,68.40276,73,80,0
68.41665,69.73609,71,80,0
69.749985,71.06943,64,80,0
69.749985,71.73609,69,80,0
71.08331,72.40276,66,80,0
71.749985,72.40276,71,80,0
72.41665,73.73609,69,80,0
73.749985,75.06943,64,80,0
73.749985,75.73609,68,80,0
75.08331,76.40276,64,80,0
75.749985,76.40276,76,80,0
76.41665,77.73609,63,80,0
76.41665,77.73609,68,80,0
77.749985,79.06943,61,80,0
77.749985,79.06943,67,80,0
79.08331,80.56769,59,80,0
79.08331,80.56769,68,80,0
80.58331,80.680534,57,80,0
80.69443,80.79165,61,80,0
80.805534,80.902756,66,81,0
80.91665,81.902756,69,82,0
81.91665,83.902756,69,88,0
83.91665,84.56943,73,101,0
84.91665,85.01387,63,107,0
85.027756,85.12498,66,108,0
85.13887,85.23609,69,109,0
85.24998,86.56943,73,109,0
86.58331,87.23609,71,100,0
87.24998,87.902756,66,96,0
87.24998,87.902756,69,96,0
87.91665,88.56942,64,91,0
87.91665,88.56942,68,91,0
88.58331,89.56942,68,80,0
88.58331,89.902756,64,80,0
89.58331,89.902756,69,80,0
89.91665,91.23609,64,80,0
89.91665,91.902756,71,80,0
91.24998,92.56942,63,80,0
91.91664,92.56942,69,80,0
92.58331,95.359474,59,80,0
92.58331,95.359474,63,80,0
92.58331,95.359474,66,80,0
92.58331,95.359474,69,80,0
95.37401,96.85838,59,80,0
95.37401,96.85838,64,80,0
95.37401,96.85838,68,80,0
96.87401,98.27679,71,80,0
98.29067,99.610115,66,80,0
98.29067,100.27679,71,80,0
99.62401,100.94345,68,80,0
100.29067,100.94345,73,80,0
100.95734,102.27679,71,80,0
102.29067,103.610115,64,80,0
102.29067,104.27679,69,80,0
103.62401,104.94345,66,80,0
104.29067,104.94345,71,80,0
104.95734,106.27679,69,80,0
106.29067,107.610115,64,80,0
106.29067,108.27678,68,80,0
107.62401,108.94345,64,80,0
108.29067,108.94345,76,80,0
108.95734,110.27678,63,80,0
108.95734,110.27678,68,80,0
110.29067,111.671486,61,80,0
110.29067,111.671486,67,80,0
111.68602,113.20846,59,80,0
111.68602,113.20846,68,80,0
113.22448,113.33666,57,80,0
113.352684,113.46487,61,80,0
113.48089,113.59307,66,81,0
113.60909,114.646484,69,82,0
114.66038,116.646484,69,88,0
116.66038,117.313156,73,101,0
117.66038,117.7576,63,107,0
117.771484,117.868706,66,108,0
117.8826,117.97982,69,109,0
117.993706,119.313156,73,109,0
119.32704,119.97982,71,100,0
119.993706,120.646484,66,91,0
119.993706,120.646484,69,91,0
120.66038,121.313156,64,81,0
120.66038,121.313156,68,81,0
121.32704,122.313156,68,80,0
121.32704,122.646484,64,80,0
122.32704,122.646484,69,80,0
122.66038,123.97982,64,80,0
122.66038,124.646484,71,80,0
123.993706,125.31315,63,80,0
124.66038,125.31315,69,80,0
125.32704,128.20676,59,80,0
125.32704,128.20676,63,80,0
125.32704,128.20676,66,80,0
125.32704,128.20676,69,80,0
128.22238,129.87169,59,80,0
128.22238,129.87169,64,80,0
128.22238,129.87169,68,80,0
129.88905,130.2085,71,80,0
130.22238,132.54184,83,80,0
132.55573,133.54182,76,80,0
133.55573,133.87517,78,80,0
133.88905,135.2085,76,80,0
135.22238,137.7085,75,80,0
137.72238,137.87517,71,80,0
137.88905,138.2085,71,80,0
138.22238,139.87517,83,80,0
139.88905,140.54182,75,80,0
140.55573,140.66682,76,80,0
140.68073,140.79182,78,80,0
140.80573,140.91682,76,80,0
140.93073,141.05573,75,80,0
141.06961,141.2085,76,80,0
141.22238,141.54182,78,80,0
141.55573,141.87517,80,80,0
141.88905,143.2085,80,80,0
143.22238,145.2085,78,80,0
145.22238,145.87517,75,80,0
145.88905,146.2085,71,80,0
146.22238,147.87517,83,80,0
147.88905,148.54182,80,80,0
148.55571,149.54182,78,80,0
149.55571,149.87517,76,80,0
149.88905,150.54182,76,80,0
150.55571,151.87517,75,80,0
151.88905,152.54182,73,80,0
152.55571,153.2085,71,80,0
153.22238,153.87515,69,80,0
153.88905,154.51405,69,80,0
154.52734,155.15234,68,80,0
155.16565,155.79065,66,80,0
155.80394,156.42894,71,80,0
156.44225,157.70554,70,80,0
157.08054,157.70554,76,80,0
157.71884,158.34383,78,80,0
158.35713,158.98213,76,80,0
158.99542,159.62042,78,80,0
157.71884,160.2865,70,80,0
159.63373,160.2865,79,80,0
160.3004,161.35693,71,80,0
160.3004,161.35693,75,80,0
161.37183,161.71408,71,80,0
161.72896,162.07123,71,80,0
162.0861,164.42937,83,80,0
164.44325,165.42937,76,80,0
165.44325,165.7627,78,80,0
165.77658,167.09602,76,80,0
167.10991,169.59602,75,80,0
169.60991,169.7627,71,80,0
169.77658,170.09602,71,80,0
170.10991,171.7627,83,80,0
171.77658,172.42935,75,80,0
172.44325,172.55435,76,80,0
172.56825,172.67935,78,80,0
172.69325,172.80435,76,80,0
172.81825,172.94325,75,80,0
172.95714,173.09602,76,80,0
173.10991,173.42935,78,80,0
173.44325,173.7627,80,80,0
173.77658,175.09602,80,80,0
175.10991,177.09602,78,80,0
177.10991,177.7627,75,80,0
177.77658,178.09602,71,80,0
178.10991,179.7627,83,80,0
179.77658,180.42935,80,80,0
180.44325,181.42935,78,80,0
181.44324,181.7627,76,80,0
181.77658,182.42935,76,80,0
182.44324,183.7627,75,80,0
183.77658,184.42935,73,80,0
184.44324,185.09602,71,80,0
185.10991,185.7627,69,80,0
185.77658,186.40158,69,80,0
186.41487,187.03987,68,80,0
187.05318,187.67818,66,80,0
187.69147,188.31647,71,80,0
188.32977,189.59306,70,80,0
188.96806,189.59306,76,80,0
189.60637,190.23137,78,80,0
190.24466,190.86966,76,80,0
190.88295,191.53574,78,80,0
189.60637,192.23276,70,80,0
191.54962,192.23276,79,80,0
192.2473,193.35667,71,80,0
192.2473,193.35667,75,80,0
193.3723,193.73167,71,80,0
193.7473,194.10667,71,80,0
194.1223,195.81674,83,80,0
195.83063,196.48341,71,80,0
196.4973,197.48341,72,80,0
197.4973,197.81674,73,80,0
197.83063,198.15007,73,80,0
198.16396,199.81674,81,80,0
199.83063,200.48341,69,80,0
200.4973,201.48341,70,80,0
201.4973,201.81674,71,80,0
201.83063,202.15007,71,80,0
202.16396,203.81674,80,80,0
203.83063,204.48341,68,80,0
204.4973,205.4834,69,80,0
205.4973,205.81674,76,80,0
204.4973,206.4834,64,80,0
205.83063,206.4834,76,80,0
206.4973,207.81674,63,85,0
206.4973,207.81674,75,85,0
207.83063,208.4834,61,97,0
207.83063,208.4834,67,97,0
208.4973,209.15007,59,103,0
208.4973,209.15007,68,103,0
209.16396,209.81674,57,109,0
209.16396,209.81674,69,109,0
209.83063,210.15007,81,110,0
210.16396,211.81674,93,110,0
211.83063,212.4834,80,80,0
212.4973,213.4834,81,80,0
213.4973,213.81674,85,80,0
213.83063,214.81674,82,80,0
214.83063,215.15007,85,80,0
215.16396,216.15007,82,80,0
216.16396,216.4834,83,80,0
216.4973,217.4834,81,80,0
217.4973,217.81674,80,80,0
217.83063,217.9834,80,80,0
217.9973,218.4834,92,80,0
218.49728,218.65007,80,80,0
218.66396,219.4834,88,80,0
219.49728,219.81674,87,80,0
219.83063,220.81674,85,80,0
220.83063,221.15007,83,80,0
221.16396,222.4834,81,80,0
222.49728,223.4834,82,80,0
223.49728,223.81674,83,80,0
223.83063,224.4834,78,80,0
224.49728,225.4834,80,80,0
225.49728,225.81673,78,80,0
225.83063,226.15007,78,80,0
226.16396,227.81673,83,80,0
227.83063,228.4834,71,80,0
228.49728,229.4834,72,80,0
229.49728,229.81673,73,80,0
229.83063,230.15007,73,80,0
230.16396,231.81673,81,80,0
231.83063,232.4834,69,80,0
232.49728,233.4834,70,80,0
233.49728,233.81673,71,80,0
233.83063,234.15007,71,80,0
234.16396,235.81673,80,80,0
235.83063,236.4834,68,80,0
236.49728,237.4834,69,80,0
237.49728,237.81673,76,80,0
236.49728,238.4834,64,80,0
237.83063,238.4834,76,80,0
238.49728,239.81673,63,85,0
238.49728,239.81673,75,85,0
239.83061,240.4834,61,97,0
239.83061,240.4834,67,97,0
240.49728,241.15007,59,103,0
240.49728,241.15007,68,103,0
241.16396,241.81673,57,109,0
241.16396,241.81673,69,109,0
241.83061,242.15007,81,110,0
242.16396,243.81673,93,110,0
243.83061,244.4834,80,80,0
244.49728,245.4834,81,80,0
245.49728,245.81673,85,80,0
245.83061,246.81673,82,80,0
246.83061,247.15005,85,80,0
247.16396,248.15005,82,80,0
248.16396,248.4834,83,80,0
248.49728,249.4834,81,80,0
249.49728,249.81673,80,80,0
249.83061,249.9834,80,80,0
249.99728,250.4834,92,80,0
250.49728,250.65005,80,80,0
250.66396,251.4834,88,80,0
251.49728,251.81673,87,80,0
251.83061,252.81673,85,80,0
252.83061,253.15005,83,80,0
253.16396,254.4834,81,80,0
254.49728,255.52333,82,80,0
255.53896,255.89833,83,80,0
255.91396,256.75323,78,80,0
256.7711,258.46753,80,80,0
258.67288,258.85257,59,80,0
258.86038,259.04007,68,80,0
259.42288,259.60257,64,80,0
259.61038,259.79007,59,80,0
260.17288,260.35257,61,80,0
260.36038,260.54007,66,80,0
260.92288,261.10257,63,80,0
261.11038,261.29007,54,80,0
261.67288,261.85257,52,80,0
261.86038,262.04007,59,80,0
262.42288,262.60257,59,80,0
262.61038,262.79007,54,80,0
263.17288,263.35257,68,80,0
263.36038,263.54007,80,80,0
263.92288,264.10257,76,80,0
264.11038,264.29007,71,80,0
264.67288,264.85257,73,80,0
264.86038,265.04007,78,80,0
265.42288,265.60257,75,81,0
265.61038,265.79007,78,82,0
266.17288,266.35257,82,85,0
266.36038,266.54007,76,86,0
266.92288,267.10257,75,89,0
266.92288,267.10257,78,89,0
267.11038,267.29007,83,91,0
267.67288,267.85257,83,94,0
267.86038,268.04007,76,95,0
268.42288,268.60257,80,98,0
268.61038,268.79007,88,99,0
269.17288,269.35257,88,98,0
269.36038,269.54007,90,97,0
269.92288,270.10257,88,93,0
270.11038,270.29007,87,92,0
270.67288,270.85257,87,88,0
270.86038,271.04007,85,87,0
271.42288,271.60257,83,83,0
271.61038,271.79007,81,82,0
272.17288,272.35257,81,81,0
272.36038,272.54007,80,83,0
272.92288,273.10257,80,89,0
273.11038,273.29007,81,90,0
273.67288,273.85257,82,96,0
273.86038,274.04007,88,98,0
274.43274,274.6219,82,99,0
274.43274,274.6219,88,99,0
274.63013,274.81924,81,97,0
274.63013,274.81924,89,97,0
275.2332,275.43283,82,91,0
275.2332,275.43283,91,91,0
275.44153,275.64117,88,90,0
275.44153,275.64117,82,90,0
276.07877,276.29016,95,84,0
276.29935,276.53894,83,82,0
276.79935,277.219,68,80,0
277.22794,277.6196,64,80,0
277.62793,277.99512,64,80,0
278.00293,278.37012,64,80,0
278.37793,278.46387,64,80,0
278.47168,278.55762,66,80,0
278.56543,278.65137,64,80,0
278.65918,278.74512,66,80,0
278.75293,278.83887,64,80,0
278.84668,278.93262,66,80,0
278.94043,279.02637,63,80,0
279.03418,279.12012,64,80,0
279.12793,279.49512,69,80,0
279.50293,279.87012,66,80,0
279.87793,280.24512,66,80,0
279.12793,280.62012,64,80,0
280.25293,280.62012,66,80,0
280.62793,280.71387,66,80,0
280.72168,280.80762,68,80,0
280.81543,280.90137,66,80,0
280.90918,280.99512,68,80,0
281.00293,281.08887,66,80,0
281.09668,281.18262,68,80,0
281.19043,281.27637,65,80,0
280.62793,281.37012,63,80,0
281.28418,281.37012,66,80,0
281.37793,281.74512,71,80,0
281.75293,282.12012,68,80,0
282.12793,282.49512,68,80,0
281.37793,282.87012,66,80,0
282.50293,282.87012,68,80,0
282.87793,282.96387,68,80,0
282.97168,283.05762,69,80,0
283.06543,283.15137,68,80,0
283.15918,283.24512,69,80,0
283.25293,283.33887,68,80,0
283.34668,283.43262,69,80,0
283.44043,283.52637,66,80,0
282.87793,283.62012,64,80,0
283.53418,283.62012,68,80,0
283.62793,283.99512,73,80,0
284.00293,284.37012,69,80,0
284.37793,284.75943,69,80,0
283.62793,285.14905,68,80,0
284.76755,285.14905,69,80,0
285.15714,285.2513,69,80,0
285.2599,285.35406,71,80,0
285.36264,285.45682,69,80,0
285.46536,285.55954,71,80,0
285.5681,285.66632,69,80,0
285.67526,285.77347,71,80,0
285.78238,285.8806,68,80,0
285.15714,285.98776,66,80,0
285.88953,285.98776,69,80,0
286.21097,286.41632,68,80,0
286.21097,286.41632,71,80,0
286.21097,286.41632,80,80,0
286.62524,286.81693,68,80,0
286.62524,286.81693,71,80,0
286.62524,286.81693,76,80,0
287.01276,287.19244,68,80,0
287.01276,287.19244,71,80,0
287.01276,287.19244,75,80,0
287.38776,287.56744,68,80,0
287.38776,287.56744,71,80,0
287.38776,287.56744,76,80,0
287.76276,287.94244,68,80,0
287.76276,287.94244,71,80,0
287.76276,287.94244,75,80,0
288.13776,288.31744,68,80,0
288.13776,288.31744,71,80,0
288.13776,288.31744,76,80,0
288.51276,288.69244,69,80,0
288.51276,288.69244,75,80,0
288.51276,288.69244,78,80,0
288.51276,288.69244,81,80,0
288.88776,289.06744,69,80,0
288.88776,289.06744,75,80,0
288.88776,289.06744,78,80,0
289.26276,289.44244,69,80,0
289.26276,289.44244,75,80,0
289.26276,289.44244,77,80,0
289.63776,289.81744,69,80,0
289.63776,289.81744,75,80,0
289.63776,289.81744,78,80,0
290.01276,290.19244,69,80,0
290.01276,290.19244,75,80,0
290.01276,290.19244,77,80,0
290.38776,290.56744,69,80,0
290.38776,290.56744,75,80,0
290.38776,290.56744,78,80,0
290.76276,290.94244,71,81,0
290.76276,290.94244,76,81,0
290.76276,290.94244,80,81,0
290.76276,290.94244,83,81,0
291.13776,291.31744,71,85,0
291.13776,291.31744,76,85,0
291.13776,291.31744,80,85,0
291.51276,291.69244,71,89,0
291.51276,291.69244,76,89,0
291.51276,291.69244,80,89,0
291.88776,292.06744,71,92,0
291.88776,292.06744,76,92,0
291.88776,292.06744,83,92,0
292.26276,292.44244,70,96,0
292.26276,292.44244,76,96,0
292.26276,292.44244,79,96,0
292.26276,292.44244,82,96,0
292.63776,292.81744,76,99,0
292.63776,292.81744,82,99,0
292.63776,292.81744,88,99,0
293.01276,293.19244,76,99,0
293.01276,293.19244,82,99,0
293.01276,293.19244,88,99,0
293.38776,293.56744,78,95,0
293.38776,293.56744,82,95,0
293.38776,293.56744,90,95,0
293.7726,293.96176,79,91,0
293.7726,293.96176,82,91,0
293.7726,293.96176,91,91,0
294.16736,294.3565,76,88,0
294.16736,294.3565,82,88,0
294.16736,294.3565,88,88,0
294.5702,294.76712,76,84,0
294.5702,294.76712,82,84,0
294.5702,294.76712,88,84,0
294.99628,295.20767,75,81,0
294.99628,295.20767,83,81,0
294.99628,295.20767,87,81,0
295.4252,295.62485,78,70,0
295.6335,295.82266,83,70,0
296.21576,296.39545,83,70,0
296.40326,296.58295,78,70,0
296.96576,297.14545,83,70,0
297.15326,297.33295,85,70,0
297.71576,297.89545,81,70,0
297.90326,298.08295,85,70,0
298.46576,298.64545,85,70,0
298.65326,298.83295,82,70,0
299.21576,299.39545,81,70,0
299.40326,299.58295,83,70,0
299.96576,300.14545,80,70,0
300.15326,300.33295,83,70,0
300.71576,300.89545,92,72,0
300.90326,301.08295,83,74,0
301.46576,301.64545,83,82,0
301.65326,301.83295,92,84,0
302.21576,302.39545,83,92,0
302.40326,302.58295,87,94,0
302.97562,303.16476,80,100,0
303.173,303.36215,70,97,0
303.173,303.36215,79,97,0
303.77322,303.97012,70,87,0
303.77322,303.97012,79,87,0
303.9787,304.18405,71,84,0
303.9787,304.18405,80,84,0
304.60727,304.79892,80,81,0
304.80725,304.98694,81,82,0
305.36975,305.54944,93,85,0
305.55725,305.73694,81,86,0
306.11975,306.29944,81,89,0
306.30725,306.48694,85,90,0
306.86975,307.04944,82,93,0
307.05725,307.23694,83,94,0
307.61975,307.79944,95,97,0
307.80725,307.98694,83,98,0
308.36975,308.54944,93,99,0
308.55725,308.73694,92,98,0
309.11975,309.29944,80,94,0
309.11975,309.29944,88,94,0
309.30725,309.48694,88,93,0
309.30725,309.48694,92,93,0
309.86975,310.04944,80,89,0
309.86975,310.04944,88,89,0
310.05725,310.23694,76,87,0
310.05725,310.23694,80,87,0
310.61975,310.79944,80,83,0
310.61975,310.79944,83,83,0
310.80725,310.98694,78,82,0
310.80725,310.98694,81,82,0
311.36975,311.54944,78,80,0
311.36975,311.54944,81,80,0
311.55725,311.73694,81,80,0
311.55725,311.73694,90,80,0
312.12708,312.31375,81,80,0
312.12708,312.31375,90,80,0
312.32187,312.50858,78,80,0
312.32187,312.50858,81,80,0
312.91696,313.1139,78,80,0
312.91696,313.1139,81,80,0
313.12244,313.33383,71,80,0
313.12244,313.33383,80,80,0
313.56363,313.97162,74,80,0
313.9803,314.3668,62,80,0
314.37503,314.74222,62,80,0
314.75003,315.11722,62,80,0
315.12503,315.21097,62,80,0
315.21878,315.30472,64,80,0
315.31253,315.39847,62,80,0
315.40628,315.49222,64,80,0
315.50003,315.58597,62,80,0
315.59378,315.67972,64,80,0
315.68753,315.77347,61,80,0
315.78128,315.86722,62,80,0
315.87503,316.24222,71,80,0
315.87503,316.61722,62,80,0
316.25003,316.61722,68,80,0
316.62503,316.99222,68,80,0
316.62503,317.36722,61,80,0
317.00003,317.36722,68,80,0
317.37503,317.46097,68,80,0
317.46878,317.55472,69,80,0
317.56253,317.64847,68,80,0
317.65628,317.74222,69,80,0
317.75003,317.83597,68,80,0
317.84378,317.92972,69,80,0
317.93753,318.02347,66,80,0
317.37503,318.11722,59,80,0
318.03128,318.11722,68,80,0
318.12503,318.49222,73,80,0
318.12503,318.86722,68,80,0
318.50003,318.86722,69,80,0
318.87503,319.24222,69,80,0
318.87503,319.61722,66,80,0
319.25003,319.61722,69,80,0
319.62503,319.71097,69,80,0
319.71878,319.80472,71,80,0
319.81253,319.89847,69,80,0
319.90628,319.99222,71,80,0
320.00003,320.08597,69,80,0
320.09378,320.17972,71,80,0
320.18753,320.27347,68,80,0
319.62503,320.36722,64,80,0
320.28128,320.36722,69,80,0
320.37503,320.74222,68,80,0
320.37503,320.74222,80,80,0
320.75003,321.11722,68,80,0
320.75003,321.11722,76,80,0
321.12503,321.51154,67,80,0
321.12503,321.51154,76,80,0
321.51974,321.90628,67,80,0
321.51974,321.90628,75,80,0
321.9145,322.00998,75,80,0
321.96658,322.06207,76,80,0
322.01865,322.11414,75,80,0
322.07074,322.16623,76,80,0
322.12283,322.21832,75,80,0
322.1749,322.2704,76,80,0
321.9145,322.32248,71,80,0
322.227,322.32248,73,80,0
322.27908,322.3771,75,80,0
322.33115,322.43225,76,80,0
322.38632,322.4874,78,80,0
322.44147,322.54257,76,80,0
322.4966,322.59772,78,80,0
322.55176,322.65286,76,80,0
322.6069,322.708,78,80,0
322.33115,322.76315,71,80,0
322.66205,322.76315,75,80,0
322.7172,322.76315,76,80,0
322.98068,323.18033,69,81,0
322.98068,323.18033,73,81,0
322.98068,323.18033,76,81,0
323.38638,323.5755,69,84,0
323.38638,323.5755,81,84,0
323.77124,323.95093,68,87,0
323.77124,323.95093,80,87,0
324.14624,324.32593,69,91,0
324.14624,324.32593,81,91,0
324.52124,324.70093,72,94,0
324.52124,324.70093,84,94,0
324.89624,325.07593,73,97,0
324.89624,325.07593,85,97,0
325.27124,325.45093,73,100,0
325.27124,325.45093,85,100,0
325.64624,325.82593,71,103,0
325.64624,325.82593,83,103,0
326.02124,326.20093,73,106,0
326.02124,326.20093,85,106,0
326.39624,326.57593,71,109,0
326.39624,326.57593,83,109,0
326.77124,326.95093,69,97,0
326.77124,326.95093,81,97,0
327.14624,327.32593,68,91,0
327.14624,327.32593,80,91,0
327.52124,327.70093,78,80,0
327.52124,327.70093,90,80,0
327.89624,328.07593,76,80,0
327.89624,328.07593,88,80,0
328.27124,328.45093,80,80,0
328.27124,328.45093,92,80,0
328.64624,328.82593,80,80,0
328.64624,328.82593,68,80,0
329.02124,329.20093,75,80,0
329.02124,329.20093,77,80,0
329.02124,329.20093,80,80,0
329.02124,329.20093,83,80,0
329.39624,329.57593,72,80,0
329.39624,329.57593,75,80,0
329.39624,329.57593,78,80,0
329.39624,329.57593,81,80,0
329.79803,330.0034,71,80,0
329.79803,330.0034,75,80,0
329.79803,330.0034,78,80,0
329.79803,330.0034,81,80,0
330.2266,330.43195,72,80,0
330.2266,330.43195,75,80,0
330.2266,330.43195,78,80,0
330.2266,330.43195,81,80,0
330.65515,330.86053,71,80,0
330.65515,330.86053,75,80,0
330.65515,330.86053,78,80,0
330.65515,330.86053,81,80,0
331.08374,331.2891,63,80,0
331.08374,331.2891,66,80,0
331.08374,331.2891,69,80,0
331.52878,331.74994,63,80,0
331.52878,331.74994,66,80,0
331.52878,331.74994,69,80,0
332.00955,332.36893,59,80,0
332.00955,332.36893,64,80,0
332.00955,332.36893,68,80,0
332.38455,332.58038,64,110,0
332.78455,332.9804,68,110,0
333.18457,333.3804,71,110,0
333.58456,333.7804,75,110,0
333.98456,334.1804,76,110,0
334.38455,334.58038,80,110,0
334.78455,334.9804,82,124,0
334.98456,335.1804,82,110,0
335.18457,335.3804,83,110,0
335.58456,335.6804,80,110,0
335.68457,335.7804,83,110,0
335.78455,335.8804,81,110,0
335.88455,335.9804,80,110,0
335.98456,336.08038,76,110,0
336.08456,336.1804,80,110,0
336.18457,336.2804,78,110,0
336.28455,336.3804,76,110,0
336.38455,336.4804,75,110,0
336.48456,336.58038,78,110,0
336.58456,336.6804,76,110,0
336.68457,336.7804,75,110,0
336.78455,336.8804,71,110,0
336.88455,336.9804,75,110,0
336.98456,337.08038,73,110,0
337.08456,337.1804,71,110,0
337.18457,337.2804,68,110,0
337.28455,337.3804,71,110,0
337.38455,337.4804,69,110,0
337.48456,337.58038,68,110,0
337.58456,337.6804,64,110,0
337.68457,337.7804,68,110,0
337.78455,337.8804,66,110,0
337.88455,337.9804,64,110,0
337.98456,338.08038,67,110,0
338.08456,338.1804,64,110,0
338.18457,338.2804,63,110,0
338.28455,338.3804,64,110,0
338.38455,338.4804,63,110,0
338.48456,338.58038,66,110,0
338.58456,338.6804,71,110,0
338.68457,338.7804,63,110,0
338.78455,338.9804,64,80,0
338.98456,339.1804,66,82,0
339.18457,339.3804,68,85,0
339.38455,339.58038,69,87,0
339.58456,339.7804,71,90,0
339.78455,339.9804,73,93,0
339.98456,340.1804,74,95,0
340.18457,340.3804,75,98,0
340.38455,340.58038,76,100,0
340.58456,340.7804,78,103,0
340.78455,340.9804,79,106,0
340.98456,341.1804,80,108,0
341.18457,341.3804,81,110,0
341.38455,341.58038,82,110,0
341.58456,341.7804,83,110,0
341.78455,341.9804,81,110,0
341.98456,342.08038,80,80,0
342.08456,342.1804,83,81,0
342.18457,342.2804,81,82,0
342.28455,342.3804,80,83,0
342.38455,342.4804,78,85,0
342.48456,342.58038,76,86,0
342.58456,342.6804,75,87,0
342.68457,342.7804,76,89,0
342.78455,342.8804,75,90,0
342.88455,342.9804,78,91,0
342.98456,343.08038,76,93,0
343.08456,343.1804,75,94,0
343.18457,343.2804,73,95,0
343.28455,343.3804,71,96,0
343.38455,343.4804,70,98,0
343.48456,343.58038,69,99,0
343.58456,343.6804,68,100,0
343.68457,343.7804,71,102,0
343.78455,343.8804,69,103,0
343.88455,343.9804,68,104,0
343.98456,344.08038,66,106,0
344.08456,344.1804,64,107,0
344.18457,344.2804,63,108,0
344.28455,344.3804,64,109,0
344.38455,344.4804,67,110,0
344.48456,344.58038,64,110,0
344.58456,344.6804,67,110,0
344.68457,344.7804,64,110,0
344.78455,344.8804,70,110,0
344.88455,344.9804,64,110,0
344.98456,345.08038,71,110,0
345.08456,345.1804,63,110,0
345.18457,345.3804,71,80,0
345.38455,345.58038,71,80,0
345.58456,345.7804,71,80,0
345.78455,345.9804,73,80,0
345.98456,346.1804,71,80,0
346.18457,346.3804,69,80,0
346.38455,346.58038,69,80,0
346.58456,346.7804,71,80,0
346.78455,346.9804,69,80,0
346.98456,347.1804,68,80,0
347.18457,347.3804,68,80,0
347.38455,347.58038,70,80,0
347.58456,347.7804,68,80,0
347.78455,347.9804,67,87,0
347.98456,348.1804,68,94,0
348.18457,348.4804,59,102,0
348.18457,348.4804,68,102,0
348.18457,348.4804,71,102,0
348.48456,348.58038,69,110,0
348.58456,348.6804,73,110,0
348.68457,348.7804,71,110,0
348.78455,348.8804,69,110,0
348.88455,348.9804,68,110,0
348.98456,349.08038,66,110,0
349.08456,349.1804,64,110,0
349.18457,349.2804,63,110,0
349.28455,349.3804,59,110,0
349.38455,349.4804,61,110,0
349.48456,349.58038,63,110,0
349.58456,349.6804,64,110,0
349.68457,349.7804,66,110,0
349.78455,349.8804,68,110,0
349.88455,349.9804,69,110,0
349.98456,350.08038,71,110,0
350.08456,350.1804,70,110,0
350.18457,350.2804,71,110,0
350.28455,350.3804,73,110,0
350.38455,350.4804,75,110,0
350.48456,350.58038,76,110,0
350.58456,350.6804,78,110,0
350.68457,350.7804,76,110,0
350.78455,350.8804,75,110,0
350.88455,350.9804,71,110,0
350.98456,351.08038,73,110,0
351.08456,351.1804,75,110,0
351.18457,351.2804,76,110,0
351.28455,351.3804,75,110,0
351.38455,351.4804,76,110,0
351.48456,351.58038,78,110,0
351.58456,351.6804,80,80,0
351.68457,351.7804,83,80,0
351.78455,351.8804,81,80,0
351.88455,351.9804,80,80,0
351.98456,352.08038,78,80,0
352.08456,352.1804,77,80,0
352.18457,352.2804,75,80,0
352.28455,352.3804,77,80,0
352.38455,352.4804,78,80,0
352.48456,352.58038,81,80,0
352.58456,352.6804,80,80,0
352.68457,352.7804,78,80,0
352.78455,352.8804,76,80,0
352.88455,352.9804,75,80,0
352.98456,353.08038,73,80,0
353.08456,353.1804,75,80,0
353.18457,353.2804,76,80,0
353.28455,353.3804,80,80,0
353.38455,353.4804,78,80,0
353.48456,353.58038,76,80,0
353.58456,353.6804,75,80,0
353.68457,353.7804,73,80,0
353.78455,353.8804,72,80,0
353.88455,353.9804,73,80,0
353.98456,354.08038,75,80,0
354.08456,354.1804,70,83,0
354.18457,354.2804,75,87,0
354.28455,354.3804,73,91,0
354.38455,354.4804,71,94,0
354.48456,354.58038,75,98,0
354.58456,354.6804,76,102,0
354.68457,354.7804,74,106,0
354.78455,354.9804,73,110,0
354.98456,355.1804,69,110,0
354.98456,355.1804,81,110,0
355.18457,355.3804,69,110,0
355.18457,355.3804,81,110,0
355.38455,355.58038,73,110,0
355.38455,355.58038,85,110,0
355.58456,355.7804,73,110,0
355.58456,355.7804,85,110,0
355.78455,355.9804,71,110,0
355.78455,355.9804,83,110,0
355.98456,356.1804,69,110,0
355.98456,356.1804,81,110,0
356.18457,356.3804,68,110,0
356.18457,356.3804,80,110,0
356.38455,356.58038,68,110,0
356.38455,356.58038,80,110,0
356.58456,356.7804,66,110,0
356.58456,356.7804,78,110,0
356.78455,356.9804,66,110,0
356.78455,356.9804,78,110,0
356.98456,357.1804,68,110,0
356.98456,357.1804,80,110,0
357.18457,357.3804,69,110,0
357.18457,357.3804,81,110,0
357.38455,357.58038,71,110,0
357.38455,357.58038,83,110,0
357.58456,357.7804,68,110,0
357.58456,357.7804,80,110,0
357.78455,358.12436,71,110,0
358.18192,358.37106,75,80,0
358.3793,358.56845,76,80,0
358.57666,358.7658,68,80,0
358.77405,358.96317,69,80,0
358.9714,359.16055,71,80,0
359.16876,360.7395,64,80,0
360.7477,361.13422,68,80,0
361.14246,361.52896,66,80,0
361.5372,362.71317,64,80,0
362.7214,363.8974,63,80,0
363.9056,364.09476,66,80,0
362.7214,364.2921,69,80,0
364.10297,364.2921,68,80,0
364.30035,364.4895,69,80,0
364.30035,364.68686,73,80,0
364.4977,364.68686,63,80,0
364.69507,364.88422,64,80,0
364.69507,365.0816,71,80,0
364.89246,365.0816,66,80,0
365.0898,365.47632,64,80,0
365.0898,365.87106,69,80,0
365.8793,366.2658,68,80,0
366.27402,366.46317,68,80,0
366.4714,366.66055,69,80,0
366.66876,366.8579,71,80,0
366.86612,367.05527,64,80,0
367.0635,367.25266,66,80,0
367.26086,367.45,68,80,0
366.27402,367.84476,76,80,0
367.85297,368.23947,80,80,0
368.2477,368.63422,78,80,0
368.64246,368.8316,66,80,0
368.8398,369.02896,68,80,0
369.03717,369.22632,69,80,0
369.23456,369.4237,66,80,0
369.43192,369.62106,68,80,0
368.64246,369.81842,76,80,0
369.6293,369.81842,69,80,0
369.82666,371.00266,75,80,0
369.82666,371.39737,81,80,0
371.4056,371.7921,85,80,0
371.01086,372.18686,78,80,0
371.80032,372.18686,83,80,0
372.19507,372.97632,78,80,0
372.19507,372.97632,81,80,0
372.98456,373.37106,76,80,0
372.98456,373.37106,80,80,0
373.37927,373.56842,80,80,0
373.57666,373.7658,81,80,0
373.77402,373.96317,83,81,0
373.97137,374.16052,76,82,0
374.16876,374.3579,78,82,0
374.36612,374.55527,80,83,0
374.5635,374.75262,68,84,0
374.5635,374.95,71,84,0
374.76086,374.95,69,84,0
374.95822,375.14737,71,85,0
375.1556,375.34476,64,86,0
375.35297,375.5421,66,86,0
375.55032,375.73947,68,87,0
375.7477,375.93686,69,88,0
375.94507,376.13422,71,88,0
376.14243,376.33157,73,89,0
375.7477,376.52896,59,88,0
376.3398,376.52896,66,90,0
376.53717,376.72632,68,91,0
376.73456,376.92368,69,91,0
376.93192,377.12106,78,92,0
377.12927,377.31842,80,93,0
377.32666,377.5158,81,93,0
377.52402,377.71317,78,94,0
377.72137,377.91052,80,95,0
377.91876,378.1079,81,95,0
378.11612,378.30527,83,96,0
378.31348,378.50262,85,97,0
378.51086,378.7,87,97,0
378.70822,378.89737,83,98,0
378.9056,379.09473,85,99,0
379.10297,379.2921,87,99,0
379.30032,379.48947,88,100,0
379.4977,379.68686,90,99,0
379.69507,379.88422,92,98,0
379.89243,380.08157,88,97,0
380.0898,380.27896,90,96,0
380.28717,380.47632,92,95,0
380.48453,380.67368,80,93,0
380.68192,380.87106,81,92,0
380.87927,381.06842,83,91,0
381.07666,381.26578,80,90,0
381.27402,381.46317,81,89,0
381.47137,381.66052,83,88,0
381.66876,382.46045,71,86,0
381.66876,382.46045,83,86,0
382.4689,382.88855,70,82,0
382.4689,382.88855,82,82,0
382.89746,383.0917,82,80,0
383.10016,383.29443,79,80,0
383.30286,383.49713,76,80,0
383.50558,383.69983,70,80,0
383.70828,383.90253,76,80,0
383.91098,384.10522,79,80,0
384.11368,384.30792,82,80,0
384.31638,384.51065,79,80,0
384.51907,384.71335,81,80,0
384.72177,384.91605,77,80,0
384.9245,385.11874,79,80,0
385.1272,385.32144,76,80,0
385.3299,385.72687,76,80,0
385.3299,385.72687,82,80,0
385.7353,386.13226,75,80,0
385.7353,386.13226,83,80,0
386.14072,386.73526,71,80,0
386.74347,386.93262,75,80,0
386.94086,387.12997,76,80,0
387.1382,387.32736,68,80,0
387.33557,387.52472,69,80,0
387.53296,387.7221,71,80,0
387.73032,389.30103,64,80,0
389.30927,389.69577,68,80,0
389.704,390.0905,66,80,0
390.09872,391.27472,64,80,0
391.28296,392.45892,63,80,0
392.46716,392.6563,66,80,0
391.28296,392.85367,69,80,0
392.66452,392.85367,68,80,0
392.86188,393.05103,69,80,0
392.86188,393.2484,73,80,0
393.05927,393.2484,63,80,0
393.25662,393.44577,64,80,0
393.25662,393.64313,71,80,0
393.454,393.64313,66,80,0
393.65137,394.03787,64,80,0
393.65137,394.43262,69,80,0
394.44083,394.82736,68,80,0
394.83557,395.02472,68,80,0
395.03293,395.22208,69,80,0
395.23032,395.41946,71,80,0
395.42767,395.61682,64,80,0
395.62506,395.81418,66,80,0
395.82242,396.01157,68,80,0
394.83557,396.4063,76,80,0
396.41452,396.80103,80,80,0
396.80927,397.19577,78,80,0
397.20398,397.39313,66,80,0
397.40137,397.5905,68,80,0
397.59872,397.78787,69,80,0
397.7961,397.98523,66,80,0
397.99347,398.18262,68,80,0
397.20398,398.37997,76,80,0
398.19083,398.37997,69,80,0
398.3882,399.56418,75,80,0
398.3882,399.95892,81,80,0
399.96716,400.35367,85,80,0
399.57242,400.7484,78,80,0
400.36188,400.7484,83,80,0
400.75662,401.53787,78,80,0
400.75662,401.53787,81,80,0
401.54608,401.93262,76,80,0
401.54608,401.93262,80,80,0
401.94083,402.12997,80,80,0
402.1382,402.32733,81,80,0
402.33557,402.52472,83,81,0
402.53293,402.72208,76,82,0
402.73032,402.91946,78,82,0
402.92767,403.11682,80,83,0
403.12503,403.31418,68,84,0
403.12503,403.51157,71,84,0
403.32242,403.51157,69,84,0
403.51978,403.70892,71,85,0
403.71713,403.90628,64,86,0
403.91452,404.10367,66,86,0
404.11188,404.30103,68,87,0
404.30927,404.49838,69,88,0
404.50662,404.69577,71,88,0
404.70398,404.89313,73,89,0
404.30927,405.0905,59,88,0
404.90137,405.0905,66,90,0
405.09872,405.28787,68,91,0
405.29608,405.48523,69,91,0
405.49347,405.68262,78,92,0
405.69083,405.87997,80,93,0
405.88818,406.07733,81,93,0
406.08557,406.27472,78,94,0
406.28293,406.47208,80,95,0
406.48032,406.66943,81,95,0
406.67767,406.86682,83,96,0
406.87503,407.06418,85,97,0
407.07242,407.26157,87,97,0
407.26978,407.45892,83,98,0
407.46713,407.65628,85,99,0
407.66452,407.85367,87,99,0
407.86188,408.05103,88,100,0
408.05923,408.24838,90,99,0
408.25662,408.44577,92,98,0
408.45398,408.64313,88,97,0
408.65137,408.84048,90,96,0
408.84872,409.03787,92,95,0
409.04608,409.23523,80,93,0
409.24347,409.4326,81,92,0
409.44083,409.62997,83,91,0
409.63818,409.82733,80,90,0
409.83557,410.02472,81,89,0
410.03293,410.22208,83,88,0
410.2303,411.02744,71,86,0
410.2303,411.02744,83,86,0
411.03598,411.45563,70,82,0
411.03598,411.45563,82,82,0
411.46457,411.66147,82,80,0
411.67004,411.86697,79,80,0
411.87552,412.07245,76,80,0
412.081,412.27792,70,80,0
412.28647,412.4834,76,80,0
412.49197,412.68887,79,80,0
412.69745,412.89435,82,80,0
412.90292,413.09982,79,80,0
413.1084,413.30533,81,80,0
413.31387,413.5108,77,80,0
413.51935,413.71902,79,80,0
413.7277,413.92734,76,80,0
413.93604,414.35565,76,80,0
413.93604,414.35565,82,80,0
414.3646,414.7903,75,80,0
414.3646,414.7903,83,80,0
414.79938,415.2513,74,80,0
415.26093,415.46628,74,70,0
415.4752,415.67212,68,70,0
415.4752,415.67212,61,70,0
415.4752,415.67212,65,70,0
415.6807,415.8698,74,70,0
415.87805,416.0672,68,70,0
415.87805,416.0672,61,70,0
415.87805,416.0672,65,70,0
416.0754,416.26456,74,70,0
416.2728,416.4619,68,70,0
416.2728,416.4619,61,70,0
416.2728,416.4619,65,70,0
416.47015,416.6593,84,70,0
416.6675,416.85666,85,70,0
416.8649,417.05405,86,70,0
417.06226,417.2514,85,70,0
417.2596,417.64615,86,70,0
417.65436,417.8435,73,70,0
417.85175,418.04086,66,70,0
417.85175,418.04086,69,70,0
418.0491,418.23825,73,70,0
418.24646,418.4356,66,70,0
418.24646,418.4356,69,70,0
418.44385,418.63297,73,70,0
418.6412,418.83035,66,70,0
418.6412,418.83035,69,70,0
418.83856,419.0277,73,70,0
419.03595,419.2251,63,70,0
419.03595,419.2251,66,70,0
419.03595,419.2251,69,70,0
419.2333,419.42245,73,70,0
419.43066,419.6198,63,70,0
419.43066,419.6198,66,70,0
419.43066,419.6198,69,70,0
419.62805,419.8172,73,70,0
419.8254,420.01456,63,70,0
419.8254,420.01456,66,70,0
419.8254,420.01456,69,70,0
420.02277,420.2119,83,70,0
420.22015,420.4093,84,70,0
420.4175,420.60666,85,70,0
420.6149,420.80402,84,70,0
420.81226,421.19876,85,70,0
421.207,421.39615,71,70,0
421.40436,421.5935,64,70,0
421.40436,421.5935,68,70,0
421.6017,421.79086,71,70,0
421.7991,421.98825,64,70,0
421.7991,421.98825,68,70,0
421.99646,422.1856,71,70,0
422.19382,422.38297,64,70,0
422.19382,422.38297,68,70,0
422.3912,422.58035,76,80,0
422.58856,422.7777,64,81,0
422.58856,422.7777,67,81,0
422.58856,422.7777,73,81,0
422.78595,422.97507,76,83,0
422.9833,423.17245,64,85,0
422.9833,423.17245,67,85,0
422.9833,423.17245,73,85,0
423.18066,423.3698,76,87,0
423.37805,423.5672,64,88,0
423.37805,423.5672,67,88,0
423.37805,423.5672,73,88,0
423.5754,423.76456,76,90,0
423.77277,423.9619,64,92,0
423.77277,423.9619,67,92,0
423.77277,423.9619,73,92,0
423.97015,424.1593,76,94,0
424.1675,424.35666,64,95,0
424.1675,424.35666,67,95,0
424.1675,424.35666,73,95,0
424.36487,424.55402,76,97,0
424.56226,424.7514,64,99,0
424.56226,424.7514,67,99,0
424.56226,424.7514,73,99,0
424.7596,424.94876,76,101,0
424.957,425.14612,64,102,0
424.957,425.14612,67,102,0
424.957,425.14612,73,102,0
425.15436,425.3435,76,104,0
425.3517,425.54086,64,106,0
425.3517,425.54086,67,106,0
425.3517,425.54086,73,106,0
425.5491,425.73825,75,108,0
425.74646,425.9356,63,109,0
425.74646,425.9356,67,109,0
425.74646,425.9356,73,109,0
425.94382,426.13297,75,110,0
426.1412,426.33035,63,110,0
426.1412,426.33035,68,110,0
426.1412,426.33035,71,110,0
426.33856,426.5277,75,110,0
426.53592,426.72507,63,110,0
426.53592,426.72507,68,110,0
426.53592,426.72507,71,110,0
426.7333,426.92245,75,110,0
426.93066,427.1198,63,110,0
426.93066,427.1198,68,110,0
426.93066,427.1198,71,110,0
427.12805,427.31717,75,110,0
427.3254,427.51456,63,110,0
427.3254,427.51456,67,110,0
427.3254,427.51456,70,110,0
427.52277,427.7119,75,110,0
427.72015,427.9093,63,110,0
427.72015,427.9093,67,110,0
427.72015,427.9093,70,110,0
427.9175,428.10666,75,110,0
428.11487,428.30402,63,110,0
428.11487,428.30402,67,110,0
428.11487,428.30402,70,110,0
428.31226,428.5014,75,110,0
428.5096,428.69876,63,110,0
428.5096,428.69876,68,110,0
428.5096,428.69876,71,110,0
428.70697,428.89612,75,110,0
428.90436,429.0935,63,110,0
428.90436,429.0935,68,110,0
428.90436,429.0935,71,110,0
429.1017,429.29086,76,110,0
429.2991,429.48822,64,110,0
429.2991,429.48822,68,110,0
429.2991,429.48822,71,110,0
429.49646,429.6856,81,120,0
429.69382,429.88297,83,120,0
429.8912,430.08035,85,120,0
430.08856,430.2777,78,120,0
430.28592,430.47507,80,120,0
430.4833,430.67245,81,120,0
430.68066,430.8698,69,120,0
430.68066,431.06717,73,120,0
430.87802,431.06717,71,120,0
431.0754,431.26456,73,120,0
431.27277,431.4619,69,120,0
431.47015,431.65927,71,120,0
431.6675,431.85666,73,120,0
431.86487,432.05402,69,110,0
432.06226,432.2514,71,107,0
432.2596,432.44876,73,103,0
432.45697,432.64612,69,99,0
432.65436,432.8435,71,95,0
431.86487,433.04086,61,110,0
432.8517,433.04086,73,91,0
433.04907,433.23822,66,90,0
433.24646,433.4356,68,90,0
433.44382,433.63297,69,90,0
433.04907,433.83032,73,90,0
433.6412,433.83032,66,90,0
433.83856,434.0277,68,90,0
433.83856,434.22507,71,90,0
434.03592,434.22507,69,90,0
434.2333,434.42245,78,90,0
434.43066,434.6198,80,90,0
434.62802,434.81717,81,90,0
434.8254,435.01456,78,90,0
435.02277,435.2119,80,90,0
434.2333,435.40927,71,90,0
435.22012,435.40927,81,90,0
435.4175,435.60666,80,90,0
435.4175,435.80402,71,90,0
435.61487,435.80402,81,90,0
435.81226,436.00137,83,90,0
436.0096,436.19876,85,90,0
436.20697,436.39612,87,90,0
436.40436,436.79086,88,90,0
436.79907,436.98822,87,90,0
436.99646,437.1856,85,90,0
437.19382,437.38297,83,90,0
437.39117,437.58032,81,90,0
437.58856,437.7777,80,90,0
437.78592,437.97507,80,90,0
437.9833,438.17242,78,90,0
438.18066,438.3698,76,90,0
438.37802,438.56717,80,90,0
438.5754,438.76453,78,90,0
437.78592,438.9619,83,90,0
438.77277,438.9619,76,90,0
438.97012,439.1644,78,90,0
439.17282,439.3671,76,90,0
439.37555,439.5752,75,90,0
439.58386,439.78354,78,90,0
439.7922,439.99756,76,90,0
438.97012,440.21185,81,90,0
440.0065,440.21185,75,90,0
440.22076,440.82864,81,90,0
440.42627,441.03412,78,90,0
440.63174,441.23962,75,91,0
440.83722,441.4451,71,92,0
441.0427,441.65057,69,93,0
441.24817,441.85605,66,94,0
441.45364,442.06152,63,94,0
441.86462,442.06152,63,96,0
441.65912,442.267,59,95,0
442.0701,442.67798,66,97,0
442.27557,442.89188,69,98,0
442.48105,443.11536,71,99,0
442.68652,443.11536,75,99,0
442.90082,443.11536,83,80,0
443.1247,443.57663,80,80,0
443.58624,443.7859,74,70,0
443.79456,443.9942,65,70,0
443.79456,443.9942,68,70,0
443.79456,443.9942,71,70,0
444.0029,444.19205,74,70,0
444.20026,444.3894,68,70,0
444.20026,444.3894,61,70,0
444.20026,444.3894,65,70,0
444.39764,444.5868,74,70,0
444.595,444.78415,68,70,0
444.595,444.78415,61,70,0
444.595,444.78415,65,70,0
444.79236,444.9815,74,70,0
444.98975,445.1789,68,70,0
444.98975,445.1789,61,70,0
444.98975,445.1789,65,70,0
445.1871,445.37625,84,70,0
445.38446,445.5736,85,70,0
445.58185,445.771,86,70,0
445.7792,445.96835,85,70,0
445.9766,446.3631,86,70,0
446.3713,446.56046,73,70,0
446.5687,446.75784,66,70,0
446.5687,446.75784,69,70,0
446.76605,446.9552,73,70,0
446.9634,447.15256,66,70,0
446.9634,447.15256,69,70,0
447.1608,447.34995,73,70,0
447.35815,447.5473,66,70,0
447.35815,447.5473,69,70,0
447.5555,447.74466,73,70,0
447.7529,447.94205,63,70,0
447.7529,447.94205,66,70,0
447.7529,447.94205,69,70,0
447.95026,448.1394,73,70,0
448.14764,448.33676,63,70,0
448.14764,448.33676,66,70,0
448.14764,448.33676,69,70,0
448.345,448.53415,73,70,0
448.54236,448.7315,63,70,0
448.54236,448.7315,66,70,0
448.54236,448.7315,69,70,0
448.73975,448.9289,83,70,0
448.9371,449.12625,84,70,0
449.13446,449.3236,85,70,0
449.33185,449.521,84,70,0
449.5292,449.9157,85,70,0
449.92395,450.1131,71,70,0
450.1213,450.31046,64,70,0
450.1213,450.31046,68,70,0
450.3187,450.5078,71,70,0
450.51605,450.7052,64,70,0
450.51605,450.7052,68,70,0
450.7134,450.90256,71,70,0
450.9108,451.09995,64,70,0
450.9108,451.09995,68,70,0
451.10815,451.2973,76,80,0
451.3055,451.49466,64,81,0
451.3055,451.49466,67,81,0
451.3055,451.49466,73,81,0
451.5029,451.69205,76,83,0
451.70026,451.8894,64,85,0
451.70026,451.8894,67,85,0
451.70026,451.8894,73,85,0
451.8976,452.08676,76,87,0
452.095,452.28415,64,88,0
452.095,452.28415,67,88,0
452.095,452.28415,73,88,0
452.29236,452.4815,76,90,0
452.48975,452.67886,64,92,0
452.48975,452.67886,67,92,0
452.48975,452.67886,73,92,0
452.6871,452.87625,76,94,0
452.88446,453.0736,64,95,0
452.88446,453.0736,67,95,0
452.88446,453.0736,73,95,0
453.08185,453.271,76,97,0
453.2792,453.46835,64,99,0
453.2792,453.46835,67,99,0
453.2792,453.46835,73,99,0
453.47656,453.6657,76,101,0
453.67395,453.8631,64,102,0
453.67395,453.8631,67,102,0
453.67395,453.8631,73,102,0
453.8713,454.06046,76,104,0
454.06866,454.2578,64,106,0
454.06866,454.2578,67,106,0
454.06866,454.2578,73,106,0
454.26605,454.4552,75,108,0
454.4634,454.65256,63,109,0
454.4634,454.65256,67,109,0
454.4634,454.65256,73,109,0
454.6608,454.8499,75,110,0
454.85815,455.0473,63,110,0
454.85815,455.0473,68,110,0
454.85815,455.0473,71,110,0
455.0555,455.24466,75,110,0
455.2529,455.44205,63,110,0
455.2529,455.44205,68,110,0
455.2529,455.44205,71,110,0
455.45026,455.6394,75,110,0
455.6476,455.83676,63,110,0
455.6476,455.83676,68,110,0
455.6476,455.83676,71,110,0
455.845,456.03415,75,110,0
456.04236,456.2315,63,110,0
456.04236,456.2315,67,110,0
456.04236,456.2315,70,110,0
456.23972,456.42886,75,110,0
456.4371,456.62625,63,110,0
456.4371,456.62625,67,110,0
456.4371,456.62625,70,110,0
456.63446,456.8236,75,110,0
456.83185,457.02097,63,110,0
456.83185,457.02097,67,110,0
456.83185,457.02097,70,110,0
457.0292,457.21835,75,110,0
457.22656,457.4157,63,110,0
457.22656,457.4157,68,110,0
457.22656,457.4157,71,110,0
457.42395,457.61307,75,110,0
457.6213,457.81046,63,110,0
457.6213,457.81046,68,110,0
457.6213,457.81046,71,110,0
457.81866,458.0078,76,110,0
458.01605,458.2052,64,110,0
458.01605,458.2052,68,110,0
458.01605,458.2052,71,110,0
458.2134,458.40256,81,120,0
458.41077,458.5999,83,120,0
458.60815,458.7973,85,120,0
458.8055,458.99466,78,120,0
459.0029,459.19202,80,120,0
459.20026,459.3894,81,120,0
459.3976,459.58676,69,120,0
459.3976,459.78412,73,120,0
459.595,459.78412,71,120,0
459.79236,459.9815,73,120,0
459.98972,460.17886,69,120,0
460.1871,460.37625,71,120,0
460.38446,460.5736,73,120,0
460.58182,460.77097,69,110,0
460.7792,460.96835,71,107,0
460.97656,461.1657,73,103,0
461.17395,461.36307,69,99,0
461.3713,461.56046,71,95,0
460.58182,461.7578,61,110,0
461.56866,461.7578,73,91,0
461.76605,461.95517,66,90,0
461.9634,462.15256,68,90,0
462.16077,462.3499,69,90,0
461.76605,462.5473,73,90,0
462.35815,462.5473,66,90,0
462.5555,462.74466,68,90,0
462.5555,462.94202,71,90,0
462.75287,462.94202,69,90,0
462.95026,463.1394,78,90,0
463.1476,463.33676,80,90,0
463.34497,463.53412,81,90,0
463.54236,463.7315,78,90,0
463.73972,463.92886,80,90,0
462.95026,464.12622,71,90,0
463.9371,464.12622,81,90,0
464.13446,464.3236,80,90,0
464.13446,464.52097,71,90,0
464.33182,464.52097,81,90,0
464.5292,464.71835,83,90,0
464.72656,464.9157,85,90,0
464.92392,465.11307,87,90,0
465.1213,465.5078,88,90,0
465.51602,465.70517,87,90,0
465.7134,465.90256,85,90,0
465.91077,466.0999,83,90,0
466.10815,466.29727,81,90,0
466.3055,466.49466,80,90,0
466.50287,466.69202,80,90,0
466.70026,466.8894,78,90,0
466.8976,467.08676,76,90,0
467.09497,467.28412,80,90,0
467.29236,467.4815,78,90,0
466.50287,467.67886,83,90,0
467.48972,467.67886,76,90,0
467.68707,467.87622,78,90,0
467.88446,468.0736,76,90,0
468.08182,468.27875,75,90,0
468.2873,468.48422,78,90,0
468.49277,468.69815,76,90,0
467.68707,468.92163,81,90,0
468.70706,468.92163,75,90,0
468.93094,469.56876,81,90,0
469.15482,469.7771,78,90,0
469.3691,469.98544,75,91,0
469.57745,470.19376,71,92,0
469.78577,470.4021,69,93,0
469.9941,470.61044,66,94,0
470.20245,470.81876,63,94,0
470.6191,470.81876,63,96,0
470.41077,471.0271,59,95,0
470.82745,471.46527,66,97,0
471.03577,471.71448,69,98,0
471.2441,471.98624,71,99,0
471.47488,471.98624,75,99,0
471.72488,471.98624,83,80,0
471.99762,472.6504,80,80,0
473.33093,473.92783,56,110,0
473.93094,474.82782,52,110,0
474.83093,474.9778,54,110,0
474.53094,475.1278,57,110,0
474.98096,475.1278,49,110,0
475.13095,475.42783,51,110,0
475.43094,475.7278,47,110,0
475.13095,476.02783,54,110,0
476.03094,476.17783,56,110,0
475.73096,476.32782,59,110,0
476.18094,476.32782,51,110,0
476.33093,476.6278,52,110,0
476.63095,476.92783,50,110,0
476.33093,477.2278,56,110,0
476.93094,477.2278,49,110,0
477.23096,477.3778,57,110,0
476.93094,477.52783,61,110,0
477.38095,477.52783,52,110,0
477.53094,477.82782,54,110,0
477.83093,478.1278,48,110,0
477.53094,478.42783,57,110,0
478.43094,478.7278,58,110,0
478.73096,479.02783,59,110,0
479.03094,479.32782,57,110,0
479.33093,479.6278,56,110,0
479.63095,479.92783,59,110,0
479.63095,479.92783,52,110,0
479.93094,480.2278,59,110,0
480.23096,480.52783,64,110,0
479.93094,480.82782,56,110,0
480.83093,481.1278,57,110,0
480.53094,481.42783,64,110,0
481.13095,481.42783,58,110,0
481.43094,481.7278,57,110,0
481.43094,481.7278,65,110,0
481.73096,482.02783,64,110,0
481.73096,482.02783,67,110,0
482.03094,482.32782,65,110,0
482.03094,482.32782,69,110,0
482.33093,482.6278,67,110,0
482.33093,482.6278,70,110,0
482.63095,482.92783,63,110,0
482.63095,482.92783,71,110,0
482.93094,483.52783,56,110,0
483.53094,484.42783,52,110,0
484.43094,484.57782,54,110,0
484.13095,484.7278,57,110,0
484.58093,484.7278,49,110,0
484.73096,485.02783,51,110,0
484.73096,485.32782,54,110,0
485.03094,485.32782,47,110,0
485.48096,485.6278,71,110,0
485.63095,485.77783,73,110,0
485.33093,485.92783,68,110,0
485.78094,485.92783,75,110,0
485.93094,486.07782,76,110,0
486.08093,486.2278,78,110,0
486.23096,486.3778,80,110,0
486.38095,486.52783,76,110,0
486.53094,486.67783,81,110,0
486.68094,486.82782,73,110,0
486.83093,486.9778,75,110,0
486.98096,487.1278,76,110,0
487.13095,487.27783,78,110,0
487.28094,487.42783,80,110,0
487.43094,487.57782,81,110,0
487.58093,487.7278,78,110,0
487.73096,487.8778,83,110,0
487.88095,488.02783,75,110,0
488.03094,488.17783,76,110,0
488.18094,488.32782,78,110,0
488.33093,488.4778,80,110,0
488.48096,488.6278,81,110,0
488.63095,488.77783,83,110,0
488.78094,488.92783,80,110,0
488.93094,489.07782,84,110,0
489.08093,489.2278,76,110,0
489.23096,489.3778,78,110,0
489.38095,489.52783,80,110,0
489.53094,489.67783,81,110,0
489.68094,489.82782,83,110,0
489.83093,489.9778,84,110,0
489.98096,490.1278,81,110,0
490.13095,490.27783,86,110,0
490.28094,490.42783,78,110,0
490.43094,490.57782,79,110,0
490.58093,490.7278,81,110,0
490.73096,490.8778,83,110,0
490.88095,491.02783,84,110,0
491.03094,491.17783,86,110,0
491.18094,491.32782,83,110,0
491.33093,491.4778,88,110,0
491.48096,491.6278,86,110,0
491.63095,491.77783,88,110,0
491.78094,491.92783,89,110,0
491.93094,492.07782,91,110,0
491.93094,492.2278,88,110,0
492.08093,492.2278,94,110,0
492.23096,492.3778,87,110,0
492.23096,492.3778,95,110,0
492.38095,492.52783,87,110,0
492.53094,492.67783,86,110,0
492.68094,492.82782,78,110,0
492.83093,492.9778,80,110,0
492.98096,493.1278,82,110,0
493.13095,493.27783,83,110,0
493.28094,493.42783,85,110,0
493.43094,493.57782,86,110,0
493.58093,493.7278,78,110,0
493.73096,493.8778,77,110,0
493.88095,494.02783,61,110,0
494.03094,494.17783,63,110,0
494.18094,494.32782,65,110,0
494.33093,494.4778,66,110,0
494.48096,494.6278,68,110,0
494.63095,494.77783,69,110,0
494.78094,494.92783,61,110,0
494.93094,495.2278,60,110,0
494.93094,495.52783,68,110,0
495.23096,495.82782,64,110,0
495.83093,495.9778,61,110,0
495.98096,496.1278,64,110,0
495.53094,496.27783,56,110,0
496.28094,496.42783,63,110,0
496.28094,496.42783,55,110,0
496.43094,496.57782,65,110,0
496.58093,496.7278,67,110,0
496.73096,496.8778,68,110,0
496.88095,497.02783,70,110,0
497.03094,497.17783,71,110,0
497.18094,497.32782,68,110,0
497.48096,497.6278,69,110,0
497.63095,497.77783,73,110,0
497.33093,497.92783,81,110,0
497.78094,497.92783,71,110,0
497.93094,498.07782,69,110,0
498.08093,498.2278,61,110,0
498.23096,498.3778,63,110,0
498.38095,498.52783,64,110,0
498.53094,498.67783,66,110,0
497.93094,498.82782,73,110,0
498.68094,498.82782,63,110,0
498.83093,498.9778,64,110,0
498.83093,499.1278,68,110,0
498.83093,499.1278,71,110,0
498.98096,499.1278,66,110,0
499.13095,499.27783,59,110,0
499.13095,499.42783,66,110,0
499.13095,499.42783,69,110,0
499.28094,499.42783,63,110,0
499.58093,499.7278,61,110,0
499.43094,499.8778,64,110,0
499.43094,499.8778,68,110,0
499.73096,499.8778,59,110,0
499.88095,500.02783,68,110,0
499.88095,500.02783,76,110,0
500.03094,500.17783,69,110,0
500.03094,500.17783,78,110,0
500.18094,500.32782,71,110,0
500.18094,500.32782,80,110,0
500.33093,500.4778,73,110,0
500.33093,500.4778,81,110,0
500.48096,500.6278,75,110,0
500.48096,500.6278,83,110,0
500.63095,500.77783,76,110,0
500.63095,500.77783,85,110,0
500.78094,500.92783,78,110,0
500.78094,500.92783,87,110,0
500.93094,501.07782,85,110,0
500.93094,501.07782,88,110,0
501.08093,501.2278,83,110,0
501.08093,501.2278,87,110,0
501.23096,501.3778,85,110,0
501.23096,501.3778,88,110,0
501.38095,501.52783,87,110,0
501.38095,501.52783,90,110,0
501.53094,501.67783,88,110,0
501.53094,501.67783,92,110,0
501.68094,501.82782,90,110,0
501.68094,501.82782,93,110,0
501.83093,501.9778,92,110,0
501.83093,501.9778,95,110,0
501.98096,502.1278,83,110,0
502.13095,502.7278,83,110,0
502.73096,503.6278,74,110,0
503.63095,503.77783,73,110,0
503.33093,503.92783,68,110,0
503.78094,503.92783,71,110,0
503.93094,504.2278,61,110,0
503.93094,504.2278,69,110,0
504.23096,504.82782,69,110,0
504.83093,504.9778,68,110,0
504.53094,505.1278,75,110,0
504.98096,505.1278,66,110,0
505.13095,505.42783,64,110,0
505.13095,505.42783,68,110,0
505.43094,506.02783,73,110,0
505.43094,506.02783,76,110,0
505.73096,506.17783,70,110,0
506.03094,506.17783,71,110,0
506.03094,506.17783,75,110,0
506.18094,506.32782,70,110,0
506.18094,506.32782,73,110,0
506.33093,506.6278,63,110,0
506.33093,506.6278,68,110,0
506.33093,506.6278,71,110,0
506.63095,506.92783,71,110,0
506.63095,506.92783,75,110,0
506.63095,506.92783,80,110,0
506.93094,507.52783,73,110,0
506.93094,507.52783,76,110,0
506.93094,507.52783,81,110,0
507.53094,507.67783,60,110,0
507.68094,507.82782,57,110,0
507.83093,507.9778,63,110,0
507.53094,508.1278,66,110,0
507.53094,508.1278,69,110,0
507.98096,508.1278,63,110,0
508.13095,508.7278,76,110,0
508.13095,508.7278,80,110,0
508.13095,508.7278,83,110,0
508.73096,508.8778,68,110,0
508.88095,509.02783,64,110,0
508.73096,509.32782,71,110,0
508.73096,509.32782,76,110,0
509.33093,509.92783,81,110,0
509.33093,509.92783,85,110,0
509.33093,509.92783,93,110,0
509.93094,510.07782,81,110,0
509.93094,510.07782,85,110,0
510.08093,510.2278,78,110,0
510.08093,510.2278,81,110,0
510.23096,510.3778,81,110,0
510.23096,510.3778,85,110,0
510.38095,510.52783,81,110,0
510.38095,510.52783,85,110,0
510.53094,510.82782,81,110,0
510.53094,510.82782,85,110,0
510.83093,510.9778,80,110,0
510.83093,510.9778,83,110,0
510.98096,511.1278,78,110,0
510.98096,511.1278,81,110,0
511.13095,511.42783,71,110,0
511.13095,511.42783,80,110,0
511.43094,511.7278,73,110,0
511.43094,511.7278,78,110,0
511.43094,511.7278,82,110,0
511.73096,512.3278,83,80,0
512.33093,513.22784,74,80,0
513.23096,513.3778,73,80,0
512.93097,513.52783,68,80,0
513.3809,513.52783,71,80,0
513.53094,513.8278,61,80,0
513.53094,513.8278,69,80,0
513.83093,514.4278,69,80,0
514.43097,514.5778,68,80,0
514.1309,514.72784,75,80,0
514.58093,514.72784,66,80,0
514.73096,515.02783,64,80,0
514.73096,515.02783,68,80,0
515.03094,515.6278,73,80,0
515.03094,515.6278,76,80,0
515.33093,515.77783,70,80,0
515.6309,515.77783,71,80,0
515.6309,515.77783,75,80,0
515.78094,515.9278,70,80,0
515.78094,515.9278,73,80,0
515.93097,516.22784,63,80,0
515.93097,516.22784,68,80,0
515.93097,516.22784,71,80,0
516.23096,516.52783,71,80,0
516.23096,516.52783,75,80,0
516.23096,516.52783,80,80,0
516.53094,517.13385,73,80,0
516.53094,517.13385,76,80,0
516.53094,517.13385,81,80,0
517.137,517.28534,60,80,0
517.2885,517.4369,57,80,0
517.44,517.5884,63,80,0
517.137,517.7399,66,80,0
517.137,517.7399,69,80,0
517.59155,517.7399,63,80,0
517.74304,518.35175,76,80,0
517.74304,518.35175,80,80,0
517.74304,518.35175,83,80,0
518.355,518.5056,68,80,0
518.5088,518.6594,64,80,0
518.355,518.9671,71,80,0
518.355,518.9671,76,80,0
518.97034,519.5825,81,80,0
518.97034,519.5825,85,80,0
518.97034,519.5825,93,80,0
519.5857,519.7364,81,80,0
519.5857,519.7364,85,80,0
519.73956,519.8902,78,80,0
519.73956,519.8902,81,80,0
519.89343,520.04407,81,80,0
519.89343,520.04407,85,80,0
520.04724,520.1979,81,80,0
520.04724,520.1979,85,80,0
520.2011,520.5404,81,80,0
520.2011,520.5404,85,80,0
520.54395,520.7118,80,80,0
520.54395,520.7118,83,80,0
520.7154,520.88324,78,80,0
520.7154,520.88324,81,80,0
520.88684,521.1316,76,80,0
520.88684,521.1316,80,80,0
521.13684,521.68054,64,80,0
521.13684,521.68054,71,80,0
521.38684,521.68054,66,80,0
521.6868,522.1764,63,80,0
521.6868,522.1764,71,80,0
521.6868,522.1764,66,80,0
522.1868,523.03503,68,80,0
522.1868,523.03503,71,80,0
523.04395,523.89215,64,80,0
523.04395,523.89215,71,80,0
523.9011,524.7493,66,80,0
523.9011,524.7493,71,80,0
524.75824,525.60645,63,80,0
524.75824,525.60645,71,80,0
525.61536,526.4636,71,80,0
525.61536,527.32074,59,80,0
526.47253,527.32074,71,80,0
527.32965,527.7493,71,80,0
527.32965,528.17786,68,80,0
527.75824,528.17786,71,80,0
528.1868,528.60645,71,80,0
528.1868,529.03503,64,80,0
528.61536,529.03503,71,80,0
529.04395,529.4636,71,80,0
529.04395,529.89215,66,80,0
529.47253,529.89215,71,80,0
529.9011,530.32074,71,80,0
529.9011,530.7493,66,80,0
530.32965,530.7493,71,80,0
530.75824,531.17786,71,80,0
530.75824,531.60645,70,80,0
531.1868,531.60645,71,80,0
531.61536,532.03503,71,80,0
532.04395,532.46356,71,80,0
532.04395,532.46356,75,80,0
532.04395,532.46356,78,80,0
532.04395,532.46356,83,80,0
532.47253,532.78174,71,80,0
532.7883,533.09753,71,80,0
532.47253,533.4133,76,80,0
532.47253,533.4133,83,80,0
533.1041,533.4133,71,80,0
533.41986,533.7291,71,80,0
533.73566,534.04486,70,80,0
533.41986,534.36066,76,80,0
534.05145,534.36066,71,80,0
534.36725,534.67645,71,80,0
534.36725,534.99225,80,80,0
534.68304,534.99225,71,80,0
534.99884,535.30804,71,80,0
534.99884,535.30804,78,80,0
535.31464,535.46594,71,80,0
535.47253,535.62384,73,80,0
535.63043,535.78174,71,80,0
535.7883,535.93964,73,80,0
535.9462,536.09753,71,80,0
535.31464,536.25543,75,80,0
536.10406,536.25543,73,80,0
536.26196,536.4133,71,80,0
536.41986,536.5712,73,80,0
536.57776,536.72906,71,80,0
536.73566,536.88696,73,80,0
536.89355,537.04486,71,80,0
536.26196,537.20276,83,80,0
537.05145,537.20276,73,80,0
537.20935,537.36066,71,80,0
537.36725,537.51855,73,80,0
537.52515,537.67645,71,80,0
537.68304,537.83435,73,80,0
537.84094,537.99225,71,80,0
537.20935,538.15015,81,80,0
537.99884,538.15015,73,80,0
538.15674,538.30804,71,80,0
538.31464,538.46594,78,80,0
538.47253,538.62384,76,80,0
538.63043,538.78174,78,80,0
538.7883,538.93964,76,80,0
538.15674,539.09753,80,80,0
538.94617,539.09753,78,80,0
539.10406,539.25543,76,80,0
539.26196,539.41327,78,80,0
539.41986,539.57117,76,80,0
539.57776,539.72906,78,80,0
539.73566,539.88696,76,80,0
539.89355,540.04486,78,80,0
540.05145,540.20276,76,80,0
540.20935,540.36066,78,80,0
540.36725,540.51855,76,80,0
539.10406,540.67645,88,80,0
540.52515,540.67645,78,80,0
540.68304,540.83435,76,80,0
540.68304,540.99225,88,80,0
540.84094,540.99225,78,80,0
540.99884,541.15015,76,80,0
541.15674,541.30804,79,80,0
541.31464,541.46594,76,80,0
541.47253,541.62384,79,80,0
541.6304,541.78174,76,80,0
540.99884,541.93964,88,80,0
541.78827,541.93964,79,80,0
541.94617,542.09753,76,80,0
542.10406,542.2554,79,80,0
542.26196,542.41327,76,80,0
542.41986,542.57117,79,80,0
542.57776,542.72906,76,80,0
541.94617,542.88696,82,80,0
542.73566,542.88696,79,80,0
542.89355,542.9852,75,70,0
542.9935,543.0852,73,70,0
543.09357,543.18524,71,70,0
543.19354,543.2852,73,70,0
543.2936,543.38525,71,70,0
543.39355,543.4852,73,70,0
543.4935,543.5852,71,70,0
542.89355,543.68524,83,81,0
543.59357,543.68524,73,71,0
543.69354,543.7852,71,71,0
543.7936,543.88525,73,71,0
543.89355,543.9852,71,71,0
543.69354,544.0852,68,86,0
543.9935,544.0852,73,71,0
544.09357,544.18524,71,71,0
544.19354,544.2852,73,71,0
544.2936,544.38525,71,72,0
544.09357,544.4852,64,83,0
544.39355,544.4852,73,72,0
544.4935,544.5852,71,72,0
544.59357,544.68524,73,72,0
544.69354,544.7852,71,72,0
544.4935,544.88525,64,90,0
544.7936,544.88525,73,72,0
544.89355,544.9852,71,73,0
544.9935,545.0852,73,73,0
545.09357,545.18524,71,73,0
544.89355,545.2852,68,83,0
545.19354,545.2852,73,73,0
545.2936,545.38525,71,73,0
545.39355,545.4852,73,73,0
545.4935,545.5852,71,73,0
545.2936,545.68524,68,86,0
545.59357,545.68524,73,74,0
545.69354,545.7852,71,74,0
545.7936,545.88525,73,74,0
545.89355,545.9852,71,74,0
545.69354,546.0852,66,87,0
545.9935,546.0852,73,74,0
546.09357,546.18524,71,74,0
546.19354,546.2852,73,74,0
546.2936,546.38525,71,75,0
546.09357,546.4852,66,85,0
546.39355,546.4852,73,75,0
546.4935,546.5852,71,75,0
546.59357,546.68524,73,75,0
546.69354,546.7852,71,75,0
546.4935,546.88525,63,87,0
546.7936,546.88525,73,75,0
546.89355,546.9852,71,76,0
546.9935,547.0852,73,76,0
547.09357,547.18524,71,76,0
546.89355,547.2852,63,87,0
547.19354,547.2852,73,76,0
547.2936,547.38525,71,76,0
547.39355,547.4852,73,76,0
547.4935,547.5852,71,76,0
547.2936,547.68524,64,91,0
547.59357,547.68524,73,77,0
547.69354,547.7852,71,77,0
547.7936,547.88525,73,77,0
547.89355,547.9852,71,77,0
547.69354,548.0852,64,90,0
547.9935,548.0852,73,77,0
548.09357,548.18524,71,77,0
548.19354,548.2852,73,77,0
548.2936,548.38525,71,78,0
548.09357,548.4852,63,90,0
548.39355,548.4852,73,78,0
548.4935,548.5852,71,78,0
548.59357,548.68524,73,78,0
548.69354,548.7852,71,78,0
548.4935,548.88525,68,90,0
548.7936,548.88525,73,78,0
548.89355,548.9852,71,79,0
548.9935,549.0852,73,79,0
549.09357,549.18524,71,79,0
548.89355,549.2852,64,91,0
549.19354,549.2852,73,79,0
549.2936,549.38525,71,79,0
549.39355,549.4852,73,79,0
549.4935,549.5852,71,79,0
549.2936,549.68524,64,92,0
549.59357,549.68524,73,80,0
549.69354,549.7852,71,80,0
549.7936,549.88525,73,80,0
549.89355,549.9852,71,80,0
549.69354,550.0852,68,94,0
549.9935,550.0852,73,80,0
550.09357,550.18524,71,80,0
550.19354,550.2852,73,80,0
550.2936,550.38525,71,81,0
550.09357,550.4852,68,94,0
550.39355,550.4852,73,81,0
550.4935,550.5852,71,81,0
550.59357,550.68524,73,81,0
550.69354,550.7852,71,81,0
550.4935,550.88525,66,92,0
550.7936,550.88525,73,81,0
550.89355,550.9852,71,82,0
550.9935,551.0852,73,82,0
551.09357,551.18524,71,82,0
550.89355,551.2852,66,98,0
551.19354,551.2852,73,82,0
551.2936,551.38525,71,82,0
551.39355,551.4852,73,82,0
551.4935,551.5852,71,82,0
551.2936,551.68524,66,94,0
551.59357,551.68524,73,83,0
551.69354,551.7852,71,83,0
551.7936,551.88525,73,83,0
551.89355,551.9852,71,83,0
551.69354,552.0852,70,98,0
551.9935,552.0852,73,83,0
552.09357,552.18524,71,83,0
552.19354,552.2852,73,83,0
552.2936,552.38525,71,84,0
552.09357,552.4852,70,100,0
552.39355,552.4852,73,84,0
552.4935,552.6185,71,75,0
552.56024,552.68524,73,75,0
552.6269,552.7519,71,75,0
552.69354,552.81854,73,75,0
552.76025,552.88525,71,75,0
552.8269,552.9519,73,76,0
552.76025,553.01855,83,90,0
552.89355,553.01855,71,76,0
552.9602,553.0852,73,76,0
553.0269,553.1519,71,76,0
553.09357,553.21857,73,76,0
553.0269,553.2852,83,91,0
553.1602,553.2852,71,77,0
553.22687,553.35187,73,77,0
553.2936,553.4186,71,77,0
553.3602,553.4852,73,77,0
553.2936,553.5519,83,92,0
553.4269,553.5519,71,77,0
553.4935,553.6185,73,78,0
553.56024,553.68524,71,78,0
553.6269,553.7519,73,78,0
553.56024,553.81854,82,93,0
553.69354,553.81854,71,78,0
553.76025,553.88525,73,78,0
553.8269,553.9519,71,79,0
553.89355,554.01855,73,79,0
553.8269,554.0852,83,93,0
553.9602,554.0852,71,79,0
554.0269,554.1519,73,79,0
554.09357,554.21857,71,80,0
554.1602,554.2852,73,80,0
554.09357,554.35187,83,94,0
554.22687,554.35187,71,80,0
554.2936,554.4186,73,80,0
554.3602,554.4852,71,80,0
554.4269,554.5519,73,81,0
554.3602,554.6185,76,95,0
554.4935,554.6185,71,81,0
554.56024,554.68524,73,81,0
554.6269,554.7519,71,81,0
554.69354,554.81854,73,81,0
554.6269,554.88525,76,96,0
554.76025,554.88525,71,82,0
554.8269,554.9519,73,82,0
554.89355,555.01855,71,82,0
554.9602,555.0852,73,82,0
554.89355,555.1519,76,97,0
555.0269,555.1519,71,82,0
555.09357,555.21857,73,83,0
555.1602,555.2852,71,83,0
555.22687,555.35187,73,83,0
555.1602,555.4186,80,97,0
555.2936,555.4186,71,83,0
555.3602,555.4852,73,84,0
555.4269,555.5519,71,84,0
555.4935,555.6185,73,84,0
555.4269,555.68524,78,98,0
555.56024,555.68524,71,84,0
555.6269,555.7519,73,84,0
555.69354,555.81854,71,85,0
555.76025,555.88525,73,85,0
555.69354,555.9519,78,99,0
555.8269,555.9519,71,85,0
555.89355,556.01855,73,85,0
555.9602,556.0852,71,85,0
556.0269,556.1519,73,86,0
555.9602,556.21857,75,100,0
556.09357,556.21857,71,86,0
556.1602,556.2852,73,86,0
556.22687,556.35187,71,86,0
556.2936,556.4186,73,86,0
556.22687,556.4852,75,101,0
556.3602,556.4852,71,87,0
556.4269,556.5519,73,87,0
556.4935,556.6185,71,87,0
556.56024,556.68524,73,87,0
556.4935,556.7519,75,101,0
556.6269,556.7519,71,88,0
556.69354,556.81854,73,88,0
556.76025,556.88525,71,88,0
556.8269,556.9519,73,88,0
556.76025,557.01855,83,102,0
556.89355,557.01855,71,88,0
556.9602,557.0852,73,89,0
557.0269,557.1519,71,89,0
557.09357,557.21857,73,89,0
557.0269,557.2852,83,103,0
557.1602,557.2852,71,89,0
557.22687,557.35187,73,89,0
557.2936,557.4186,71,90,0
557.3602,557.4852,73,90,0
557.2936,557.5519,83,104,0
557.4269,557.5519,71,90,0
557.4935,557.6185,73,90,0
557.56024,557.68524,71,90,0
557.6269,557.7519,73,91,0
557.56024,557.81854,82,104,0
557.69354,557.81854,71,91,0
557.76025,557.88525,73,91,0
557.8269,557.9519,71,91,0
557.89355,558.01855,73,92,0
557.8269,558.0852,81,105,0
557.9602,558.0852,71,92,0
558.0269,558.1519,73,92,0
558.09357,558.21857,71,92,0
558.1602,558.2852,73,92,0
558.09357,558.35187,81,106,0
558.22687,558.35187,71,93,0
558.2936,558.4186,73,93,0
558.3602,558.4852,71,93,0
558.4269,558.5519,73,93,0
558.3602,558.6185,80,107,0
558.4935,558.6185,71,93,0
558.56024,558.68524,73,94,0
558.6269,558.7519,71,94,0
558.69354,558.81854,73,94,0
558.6269,558.88525,80,108,0
558.76025,558.88525,71,94,0
558.8269,558.88525,73,94,0
558.89355,559.01855,76,100,0
558.9602,559.0852,78,100,0
558.89355,559.1519,80,108,0
559.0269,559.1519,76,100,0
559.09357,559.21857,78,100,0
559.1602,559.2852,76,100,0
559.22687,559.35187,78,100,0
559.1602,559.4186,88,109,0
559.2936,559.4186,76,100,0
559.3602,559.4852,78,100,0
559.4269,559.5519,76,100,0
559.4935,559.6185,78,100,0
559.4269,559.68524,88,110,0
559.56024,559.68524,76,100,0
559.6269,559.7519,78,100,0
559.69354,559.81854,76,100,0
559.76025,559.88525,78,100,0
559.69354,559.9519,88,111,0
559.8269,559.9519,76,100,0
559.89355,560.01855,78,100,0
559.9602,560.0852,76,100,0
560.0269,560.1519,78,100,0
559.9602,560.21857,87,112,0
560.09357,560.21857,76,100,0
560.1602,560.2852,78,100,0
560.22687,560.35187,76,100,0
560.2936,560.4186,78,100,0
560.22687,560.4852,88,112,0
560.3602,560.4852,76,100,0
560.4269,560.5519,78,100,0
560.4935,560.6185,76,100,0
560.56024,560.68524,78,100,0
560.4935,560.7519,88,113,0
560.6269,560.7519,76,100,0
560.69354,560.81854,78,100,0
560.76025,560.88525,76,100,0
560.8269,560.9519,78,100,0
560.76025,561.01855,87,114,0
560.89355,561.01855,76,100,0
560.9602,561.0852,78,100,0
561.0269,561.1519,76,100,0
561.09357,561.21857,78,100,0
561.0269,561.2852,88,115,0
561.1602,561.2852,76,100,0
561.22687,561.3543,78,100,0
561.2936,561.42377,76,100,0
561.363,561.4932,78,100,0
561.2936,561.5627,88,116,0
561.43243,561.5627,76,100,0
561.5019,561.6321,78,100,0
561.57135,561.70154,76,100,0
561.6408,561.7727,78,100,0
561.57135,561.8442,82,116,0
561.7102,561.8442,76,100,0
561.7817,561.9156,78,100,0
561.8531,561.987,76,100,0
561.9245,562.0584,78,100,0
561.8531,562.1299,82,117,0
561.9959,562.1299,76,100,0
562.0674,562.2031,78,100,0
562.1388,562.2767,76,100,0
562.21234,562.3502,78,100,0
562.1388,562.4237,82,118,0
562.2858,562.4237,76,100,0
562.3594,562.49725,78,100,0
562.4329,562.5708,75,100,0
562.5065,562.6473,76,100,0
562.4329,562.7242,83,119,0
562.57996,563.0503,75,100,0
562.7338,563.0503,74,110,0
562.7338,563.0503,77,110,0
562.7338,563.0503,80,110,0
562.7338,563.0503,86,110,0
563.0607,563.26263,74,110,0
563.0607,563.26263,77,110,0
563.0607,563.26263,80,110,0
563.0607,563.26263,86,110,0
563.17615,563.3719,83,110,0
563.2915,563.479,80,110,0
563.3987,563.5808,77,110,0
563.5058,563.6808,74,110,0
563.6058,563.7808,77,110,0
563.7058,563.8808,80,110,0
563.8058,563.9808,83,110,0
563.9058,564.0808,80,110,0
564.0058,564.1808,77,110,0
564.1058,564.2808,74,110,0
564.2058,564.3808,71,110,0
564.3058,564.4808,68,110,0
564.4058,564.5808,71,110,0
564.5058,564.6808,74,110,0
564.6058,564.7808,77,110,0
564.7058,564.8808,74,110,0
564.8058,564.9808,71,110,0
564.9058,565.0808,68,110,0
565.0058,565.1808,65,110,0
565.1058,565.2808,73,110,0
565.2058,565.3808,71,110,0
565.3058,565.4808,68,110,0
565.4058,565.5808,65,110,0
565.5058,565.6808,85,110,0
565.6058,565.7808,81,110,0
565.7058,565.8808,78,110,0
565.8058,565.9808,73,110,0
565.9058,566.0808,72,110,0
566.0058,566.1808,73,110,0
566.1058,566.2808,78,110,0
566.2058,566.3808,81,110,0
566.3058,566.4808,78,110,0
566.4058,566.5808,73,110,0
566.5058,566.6808,69,110,0
566.6058,566.7808,66,110,0
566.7058,566.8808,65,110,0
566.8058,566.9808,66,110,0
566.9058,567.0808,69,110,0
567.0058,567.1808,73,110,0
567.1058,567.2808,72,110,0
567.2058,567.3808,69,110,0
567.3058,567.4808,66,110,0
567.4058,567.5808,64,110,0
567.5058,567.6808,71,110,0
567.6058,567.7808,69,110,0
567.7058,567.8808,66,110,0
567.8058,567.9808,63,110,0
567.9058,568.0808,80,110,0
568.0058,568.1808,76,110,0
568.1058,568.2808,71,110,0
568.2058,568.3808,68,110,0
568.3058,568.4808,67,110,0
568.4058,568.5808,68,110,0
568.5058,568.6808,71,110,0
568.6058,568.7808,76,110,0
568.7058,568.8808,71,110,0
568.8058,568.9808,68,110,0
568.9058,569.0808,64,110,0
569.0058,569.1808,59,110,0
569.1058,569.2808,58,110,0
569.2058,569.3808,59,110,0
569.3058,569.4808,64,110,0
569.4058,569.5808,68,110,0
569.5058,569.6808,60,110,0
569.6058,569.7808,61,110,0
569.7058,569.8808,64,110,0
569.8058,569.9808,69,110,0
569.9058,570.0808,68,110,0
570.0058,570.1808,69,110,0
570.1058,570.2808,73,110,0
570.2058,570.3808,76,110,0
570.3058,570.4808,68,110,0
570.4058,570.5808,69,110,0
570.5058,570.6808,73,110,0
570.6058,570.7808,76,110,0
570.7058,570.8808,67,110,0
570.8058,570.9808,68,110,0
570.9058,571.0808,71,110,0
571.0058,571.1808,76,110,0
571.1058,571.2808,67,110,0
571.2058,571.3808,68,110,0
571.3058,571.4808,71,110,0
571.4058,571.5808,76,110,0
571.5058,571.6808,66,110,0
571.6058,571.7808,67,110,0
571.7058,571.8808,70,110,0
571.8058,571.9808,76,110,0
571.9058,572.0808,66,110,0
572.0058,572.1808,67,110,0
572.1058,572.2808,70,110,0
572.2058,572.3808,76,110,0
572.3058,572.4808,67,110,0
572.4058,572.5808,68,110,0
572.5058,572.6808,71,110,0
572.6058,572.7808,76,110,0
572.7058,572.8891,57,110,0
572.8058,572.98914,66,110,0
572.9058,573.0891,63,110,0
573.0058,573.18915,69,110,0
573.1058,573.2891,63,110,0
573.2058,573.3891,69,110,0
573.3058,573.48914,66,110,0
573.4058,573.5891,75,110,0
573.5058,573.68915,66,110,0
573.6058,573.7891,75,110,0
573.7058,573.8891,69,110,0
573.8058,573.98914,78,110,0
573.9058,574.0891,69,110,0
574.0058,574.18915,78,110,0
574.1058,574.2891,75,110,0
574.2058,574.3891,81,110,0
574.3058,574.48914,75,110,0
574.4058,574.5891,81,110,0
574.5058,574.68915,78,110,0
574.6058,574.7891,87,110,0
574.7058,574.8891,78,110,0
574.8058,574.98914,87,110,0
574.9058,575.0891,81,110,0
575.0058,575.18915,90,110,0
575.1058,575.2891,81,110,0
575.2058,575.3891,90,110,0
575.3058,575.48914,87,110,0
575.4058,575.5891,93,110,0
575.5058,575.68915,84,110,0
575.6058,575.7891,90,110,0
575.7058,575.8891,87,110,0
575.8058,575.98914,93,110,0
575.9058,576.0891,83,110,0
576.0058,576.18915,90,110,0
576.1058,576.2891,87,110,0
576.2058,576.3891,93,110,0
576.3058,576.48914,82,110,0
576.4058,576.5891,90,110,0
576.5058,576.68915,87,110,0
576.6058,576.7891,93,110,0
576.7058,576.8891,81,110,0
576.8058,576.98914,90,110,0
576.9058,577.0891,87,110,0
577.0058,577.18915,93,110,0
577.1058,577.2891,80,110,0
577.2058,577.3891,88,110,0
577.3058,577.48914,83,110,0
577.4058,577.5891,92,110,0
577.5058,577.68915,80,110,0
577.6058,577.7891,88,110,0
577.7058,577.8891,83,110,0
577.8058,577.98914,92,110,0
577.9058,578.0891,83,110,0
578.0058,578.18915,92,110,0
578.1058,578.2891,88,110,0
578.2058,578.3891,95,110,0
578.3058,578.48914,82,110,0
578.4058,578.5891,91,110,0
578.5058,578.68915,88,110,0
578.6058,578.7891,94,110,0
578.7058,578.8891,81,110,0
578.8058,578.98914,90,110,0
578.9058,579.0891,87,110,0
579.0058,579.18915,93,110,0
579.1058,579.2891,80,110,0
579.2058,579.3891,89,110,0
579.3058,579.48914,86,110,0
579.4058,579.5891,92,110,0
579.5058,579.68915,81,110,0
579.6058,579.7891,90,110,0
579.7058,579.8891,87,110,0
579.8058,579.98914,93,110,0
579.9058,580.0891,81,110,0
580.0058,580.18915,90,110,0
580.1058,580.2891,87,110,0
580.2058,580.3891,93,110,0
580.3058,580.48914,78,110,0
580.4058,580.5891,87,110,0
580.5058,580.68915,81,110,0
580.6058,580.7891,90,110,0
580.7058,580.8891,75,110,0
580.8058,580.98914,81,110,0
580.9058,581.0891,78,110,0
581.0058,581.18915,87,110,0
581.1058,581.2891,69,110,0
581.2058,581.3891,78,110,0
581.3058,581.48914,75,110,0
581.4058,581.5891,81,110,0
581.5058,581.68915,80,110,0
581.6058,581.7891,71,110,0
581.7058,581.8891,73,110,0
581.8058,581.98914,75,110,0
581.9058,582.0891,76,110,0
582.0058,582.18915,78,110,0
582.1058,582.2891,80,110,0
582.2058,582.2975,82,110,0
582.3058,582.4308,83,100,0
582.37244,582.49744,85,100,0
582.43915,582.56415,83,100,0
582.5058,582.6308,85,100,0
582.57245,582.69745,83,100,0
582.6391,582.7641,85,100,0
582.7058,582.8308,83,100,0
582.77246,582.89746,85,100,0
582.8391,582.9641,83,100,0
582.9058,583.0308,85,100,0
582.7058,583.0975,95,110,0
582.9725,583.0975,83,100,0
583.0391,583.1641,85,100,0
583.1058,583.2308,83,100,0
583.1725,583.2975,85,100,0
583.23914,583.36414,83,100,0
583.3058,583.4308,85,100,0
583.37244,583.49744,83,100,0
583.43915,583.56415,85,100,0
583.5058,583.6308,83,100,0
583.57245,583.69745,85,100,0
583.6391,583.7641,83,100,0
583.7058,583.8308,85,100,0
583.5058,583.89746,95,110,0
583.77246,583.89746,83,100,0
583.8391,583.9641,85,100,0
583.9058,584.0308,83,100,0
583.9725,584.0975,85,100,0
584.0391,584.1641,83,100,0
584.1058,584.2308,85,100,0
584.1725,584.2975,83,100,0
584.23914,584.36414,85,100,0
584.3058,584.4308,83,100,0
584.37244,584.49744,85,100,0
584.43915,584.56415,83,100,0
584.5058,584.6308,85,100,0
584.3058,584.69745,97,110,0
584.57245,584.69745,83,100,0
584.6391,584.7641,85,100,0
584.7058,584.8308,83,100,0
584.77246,584.89746,85,100,0
584.8391,584.9641,83,100,0
584.9058,585.0308,85,100,0
584.9725,585.0975,83,100,0
585.0391,585.1641,85,100,0
585.1058,585.2308,83,100,0
585.1725,585.2975,85,100,0
585.23914,585.36414,83,100,0
585.3058,585.4308,85,100,0
585.1058,585.49744,97,110,0
585.37244,585.49744,83,100,0
585.43915,585.56415,85,100,0
585.5058,585.6308,83,100,0
585.57245,585.69745,85,100,0
585.6391,585.7641,83,100,0
585.7058,585.8308,85,100,0
585.77246,585.89746,83,100,0
585.8391,585.9641,85,100,0
585.9058,586.0308,83,100,0
585.9725,586.0975,85,100,0
586.0391,586.1641,83,100,0
586.1058,586.2308,85,100,0
585.9058,586.2975,93,110,0
586.1725,586.2975,83,100,0
586.23914,586.36414,85,100,0
586.3058,586.4308,83,100,0
586.37244,586.49744,85,100,0
586.43915,586.56415,83,100,0
586.5058,586.6308,85,100,0
586.57245,586.69745,83,100,0
586.6391,586.7641,85,100,0
586.7058,586.8308,83,100,0
586.77246,586.89746,85,100,0
586.8391,586.9641,83,100,0
586.9058,587.0308,85,100,0
586.7058,587.0975,95,110,0
586.9725,587.0975,83,100,0
587.0391,587.1641,85,100,0
587.1058,587.2308,83,100,0
587.1725,587.2975,85,100,0
587.23914,587.36414,83,100,0
587.3058,587.4308,85,100,0
587.37244,587.49744,83,100,0
587.43915,587.56415,85,100,0
587.5058,587.6308,83,100,0
587.57245,587.69745,85,100,0
587.6391,587.7641,83,100,0
587.7058,587.8308,85,100,0
587.5058,587.89746,95,110,0
587.77246,587.89746,83,100,0
587.8391,587.9641,85,100,0
587.9058,588.0308,83,100,0
587.9725,588.0975,85,100,0
588.0391,588.1641,83,100,0
588.1058,588.2308,85,100,0
588.1725,588.2975,83,100,0
588.23914,588.36414,85,100,0
588.3058,588.4308,83,100,0
588.37244,588.49744,85,100,0
588.43915,588.56415,83,100,0
588.5058,588.6308,85,100,0
588.3058,588.69745,92,110,0
588.57245,588.69745,83,100,0
588.6391,588.7641,85,100,0
588.7058,588.8308,83,100,0
588.77246,588.89746,85,100,0
588.8391,588.9641,83,100,0
588.9058,589.0308,85,100,0
588.9725,589.0975,83,100,0
589.0391,589.1641,85,100,0
589.1058,589.2308,83,100,0
589.1725,589.2975,85,100,0
589.23914,589.36414,83,100,0
589.3058,589.4308,85,100,0
589.1058,589.49744,93,110,0
589.37244,589.49744,83,100,0
589.43915,589.56415,85,100,0
589.5058,589.6308,83,100,0
589.57245,589.69745,85,100,0
589.6391,589.7641,83,100,0
589.7058,589.8308,85,100,0
589.77246,589.89746,83,100,0
589.8391,589.9641,85,100,0
589.9058,590.0308,83,100,0
589.9725,590.0975,85,100,0
590.0391,590.1641,83,100,0
590.1058,590.2308,85,100,0
589.9058,590.2975,92,110,0
590.1725,590.2975,83,100,0
590.23914,590.36414,85,100,0
590.3058,590.4308,83,100,0
590.37244,590.49744,85,100,0
590.43915,590.56415,83,100,0
590.5058,590.6308,85,100,0
590.57245,590.69745,83,100,0
590.6391,590.7641,85,100,0
590.7058,590.8308,83,100,0
590.77246,590.89746,85,100,0
590.8391,590.9641,83,100,0
590.9058,591.0308,85,100,0
590.7058,591.0975,91,110,0
590.9725,591.0975,83,100,0
591.0391,591.1641,85,100,0
591.1058,591.2308,83,100,0
591.1725,591.2975,85,100,0
591.23914,591.36414,83,100,0
591.3058,591.4308,85,100,0
591.37244,591.49744,83,100,0
591.43915,591.56415,85,100,0
591.5058,591.6308,83,100,0
591.57245,591.69745,85,100,0
591.6391,591.7641,83,100,0
591.7058,591.8308,85,100,0
591.5058,591.89746,92,110,0
591.77246,591.89746,83,100,0
591.8391,591.9641,85,100,0
591.9058,592.0308,83,100,0
591.9725,592.0975,85,100,0
592.0391,592.1641,83,100,0
592.1058,592.2308,85,100,0
592.1725,592.2975,83,100,0
592.23914,592.36414,85,100,0
592.3058,592.4308,83,100,0
592.37244,592.49744,85,100,0
592.43915,592.56415,83,100,0
592.5058,592.6308,85,100,0
592.3058,592.69745,93,110,0
592.57245,592.69745,83,100,0
592.6391,592.7641,85,100,0
592.7058,592.8308,83,100,0
592.77246,592.89746,85,100,0
592.8391,592.9641,83,100,0
592.9058,593.0308,85,100,0
592.9725,593.0975,83,100,0
593.0391,593.1641,85,100,0
593.1058,593.2308,83,100,0
593.1725,593.2975,85,100,0
593.23914,593.36414,83,100,0
593.3058,593.4308,85,100,0
593.1058,593.49744,93,110,0
593.37244,593.49744,83,100,0
593.43915,593.56415,85,100,0
593.5058,593.6308,83,100,0
593.57245,593.69745,85,100,0
593.6391,593.7641,83,100,0
593.7058,593.8308,85,100,0
593.77246,593.89746,83,100,0
593.8391,593.9641,85,100,0
593.9058,594.0308,83,100,0
593.9725,594.0975,85,100,0
594.0391,594.1641,83,100,0
594.1058,594.2308,85,100,0
593.9058,594.2975,97,110,0
594.1725,594.2975,83,100,0
594.23914,594.36414,85,100,0
594.3058,594.4308,83,100,0
594.37244,594.49744,85,100,0
594.43915,594.56415,83,100,0
594.5058,594.6308,85,100,0
594.57245,594.69745,83,100,0
594.6391,594.7641,85,100,0
594.7058,594.8308,83,100,0
594.77246,594.89746,85,100,0
594.8391,594.9641,83,100,0
594.9058,595.0308,85,100,0
594.7058,595.0975,95,110,0
594.9725,595.0975,83,100,0
595.0391,595.1641,85,100,0
595.1058,595.2308,83,100,0
595.1725,595.2975,85,100,0
595.23914,595.36414,83,100,0
595.3058,595.4308,85,100,0
595.37244,595.49744,83,100,0
595.43915,595.56415,85,100,0
595.5058,595.6308,83,100,0
595.57245,595.69745,85,100,0
595.6391,595.7641,83,100,0
595.7058,595.8308,85,100,0
595.5058,595.89746,93,110,0
595.77246,595.89746,83,100,0
595.8391,595.9641,85,100,0
595.9058,596.0308,83,100,0
595.9725,596.0975,85,100,0
596.0391,596.1641,83,100,0
596.1058,596.2308,85,100,0
596.1725,596.2975,83,100,0
596.23914,596.36414,85,100,0
596.3058,596.4308,83,100,0
596.37244,596.49744,85,100,0
596.43915,596.56415,83,100,0
596.5058,596.6308,85,100,0
596.3058,596.69745,92,110,0
596.57245,596.69745,83,100,0
596.6391,596.7641,85,100,0
596.7058,596.8308,83,100,0
596.77246,596.89746,85,100,0
596.8391,596.9641,83,100,0
596.9058,597.0308,85,100,0
596.9725,597.0975,83,100,0
597.0391,597.1641,85,100,0
597.1058,597.2308,83,100,0
597.1725,597.2975,85,100,0
597.23914,597.36414,83,100,0
597.3058,597.4308,85,100,0
597.1058,597.49744,92,110,0
597.37244,597.49744,83,100,0
597.43915,597.56415,85,100,0
597.5058,597.6308,83,100,0
597.57245,597.69745,85,100,0
597.6391,597.7641,83,100,0
597.7058,597.8308,85,100,0
597.77246,597.89746,83,100,0
597.8391,597.9641,85,100,0
597.9058,598.0308,83,100,0
597.9725,598.0975,85,100,0
598.0391,598.1641,83,100,0
598.1058,598.2308,85,100,0
597.9058,598.2975,95,110,0
598.1725,598.2975,83,100,0
598.23914,598.36414,85,100,0
598.3058,598.4308,83,100,0
598.37244,598.49744,85,100,0
598.43915,598.56415,83,100,0
598.5058,598.6308,85,100,0
598.57245,598.69745,83,100,0
598.6391,598.7641,85,100,0
598.7058,598.8308,83,100,0
598.77246,598.89746,85,100,0
598.8391,598.9641,83,100,0
598.9058,599.0308,85,100,0
598.7058,599.0975,93,110,0
598.9725,599.0975,83,100,0
599.0391,599.1641,85,100,0
599.1058,599.2308,83,100,0
599.1725,599.2975,85,100,0
599.23914,599.36414,83,100,0
599.3058,599.4308,85,100,0
599.37244,599.49744,83,100,0
599.43915,599.56415,85,100,0
599.5058,599.6308,83,100,0
599.57245,599.69745,85,100,0
599.6391,599.7641,83,100,0
599.7058,599.8308,85,100,0
599.5058,599.89746,93,110,0
599.77246,599.89746,83,100,0
599.8391,599.9641,85,100,0
599.9058,600.0308,83,100,0
599.9725,600.0975,85,100,0
600.0391,600.1641,83,100,0
600.1058,600.2308,85,100,0
600.1725,600.2975,83,100,0
600.23914,600.36414,85,100,0
600.3058,600.4308,83,100,0
600.37244,600.49744,85,100,0
600.43915,600.56415,83,100,0
600.5058,600.6308,85,100,0
600.3058,600.69745,90,110,0
600.57245,600.69745,83,100,0
600.6391,600.7641,85,100,0
600.7058,600.8308,83,100,0
600.77246,600.89746,85,100,0
600.8391,600.9641,83,100,0
600.9058,601.0308,85,100,0
600.9725,601.0975,83,100,0
601.0391,601.1641,85,100,0
601.1058,601.2308,83,100,0
601.1725,601.2975,85,100,0
601.23914,601.36414,83,100,0
601.3058,601.4308,85,100,0
601.1058,601.49744,87,110,0
601.37244,601.49744,83,100,0
601.43915,601.56415,85,100,0
601.5058,601.6308,83,100,0
601.57245,601.69745,85,100,0
601.6391,601.7641,83,100,0
601.7058,601.8308,85,99,0
601.77246,601.89746,83,99,0
601.8391,601.9641,85,99,0
601.9058,602.0308,83,98,0
601.9725,602.0975,85,98,0
602.0391,602.1641,83,98,0
602.1058,602.2308,85,97,0
601.9058,602.2975,81,111,0
602.1725,602.2975,83,97,0
602.23914,602.36414,85,97,0
602.3058,602.4308,83,96,0
602.37244,602.49744,85,96,0
602.43915,602.56415,83,96,0
602.5058,602.6308,85,95,0
602.57245,602.69745,83,95,0
602.6391,602.7641,85,95,0
602.7058,602.8308,83,94,0
602.77246,602.89746,85,94,0
602.8391,602.9641,83,94,0
602.9058,603.0308,85,93,0
602.7058,603.0975,78,103,0
602.9725,603.0975,83,93,0
603.0391,603.1641,85,93,0
603.1058,603.2308,83,92,0
603.1725,603.2975,85,92,0
603.23914,603.36414,83,92,0
603.3058,603.4308,85,91,0
603.37244,603.49744,83,91,0
603.43915,603.56415,85,91,0
603.5058,603.6308,83,90,0
603.57245,603.69745,85,90,0
603.6391,603.7641,83,90,0
603.7058,603.8308,85,87,0
603.5058,603.89746,75,101,0
603.77246,603.89746,83,84,0
603.8391,603.9641,85,80,0
603.9058,604.0308,71,89,0
603.9725,604.0975,73,88,0
604.0391,604.1641,71,88,0
604.1058,604.2308,73,88,0
604.1725,604.2975,71,87,0
604.23914,604.36414,73,87,0
604.3058,604.4308,71,87,0
604.37244,604.49744,73,86,0
604.43915,604.56415,71,86,0
604.5058,604.6308,73,86,0
604.3058,604.69745,81,94,0
604.57245,604.69745,71,85,0
604.6391,604.7641,73,85,0
604.7058,604.8308,71,85,0
604.77246,604.89746,73,84,0
604.8391,604.9641,71,84,0
604.9058,605.0308,73,84,0
604.9725,605.0975,71,83,0
605.0391,605.1641,73,83,0
605.1058,605.2308,71,83,0
605.1725,605.2975,73,82,0
605.23914,605.36414,71,82,0
605.3058,605.4308,73,82,0
605.1058,605.49744,78,90,0
605.37244,605.49744,71,81,0
605.43915,605.56415,73,81,0
605.5058,605.6308,71,81,0
605.57245,605.69745,73,80,0
605.6391,605.7641,71,80,0
605.7058,605.8308,73,80,0
605.77246,605.89746,71,79,0
605.8391,605.9641,73,79,0
605.9058,606.0308,71,79,0
605.9725,606.0975,73,78,0
606.0391,606.1641,71,78,0
606.1058,606.2308,73,78,0
605.9058,606.2975,75,84,0
606.1725,606.2975,71,78,0
606.23914,606.3683,73,77,0
606.3058,606.4397,71,77,0
606.3772,606.51117,73,77,0
606.44867,606.5826,71,76,0
606.5201,606.654,73,76,0
606.5915,606.72546,71,76,0
606.66296,606.7969,73,75,0
606.7344,606.8683,71,75,0
606.8058,606.9397,73,75,0
606.8772,607.01117,71,74,0
606.94867,607.0826,73,74,0
606.7344,607.154,69,80,0
607.0201,607.154,71,74,0
607.0915,607.23584,73,73,0
607.16296,607.3192,71,73,0
607.2463,607.4025,73,73,0
607.3296,607.48584,71,72,0
607.41296,607.5692,73,72,0
607.4963,607.6525,71,72,0
607.5796,607.73584,73,71,0
607.66296,607.8192,71,71,0
607.7463,607.9025,73,71,0
607.8296,607.98584,71,70,0
607.91296,608.0692,73,70,0
607.66296,608.1525,66,77,0
607.9963,608.1525,71,70,0
608.0796,608.2504,73,69,0
608.16296,608.35046,71,69,0
608.26294,608.45044,73,69,0
608.3629,608.5504,71,68,0
608.46295,608.65045,73,68,0
608.5629,608.7504,71,68,0
608.66296,608.8723,73,67,0
608.76294,608.9973,71,67,0
608.88794,609.1223,73,67,0
609.01294,609.28375,71,67,0
609.13794,609.45044,73,66,0
608.76294,609.6171,63,77,0
609.3046,609.6171,70,66,0
609.47125,609.6171,71,66,0
609.63794,610.9574,59,80,0
609.63794,610.9574,68,80,0
610.97125,612.2907,59,80,0
610.97125,612.9574,64,80,0
612.3046,613.624,61,80,0
612.97125,613.624,66,80,0
613.63794,614.9574,54,80,0
613.63794,614.9574,63,80,0
614.97125,617.624,54,80,0
614.97125,617.624,57,80,0
614.97125,617.624,59,80,0
617.63794,618.9574,56,80,0
617.63794,618.9574,59,80,0
617.63794,618.9574,68,80,0
618.97125,620.2907,59,80,0
618.97125,620.9574,64,80,0
620.3046,621.624,61,80,0
620.97125,621.624,66,80,0
621.63794,622.9574,63,80,0
621.63794,622.9574,66,80,0
622.97125,624.2907,70,80,0
622.97125,624.2907,61,80,0
622.97125,624.2907,64,80,0
624.3046,625.624,63,80,0
624.3046,625.624,66,80,0
624.3046,625.624,71,80,0
625.63794,625.7074,59,80,0
625.72125,625.7907,64,80,0
625.8046,625.874,68,80,0
625.88794,626.9574,71,80,0
626.97125,628.2907,59,80,0
626.97125,628.9574,64,80,0
628.97125,629.2907,68,80,0
628.3046,629.624,61,80,0
629.3046,629.624,66,80,0
629.63794,630.9574,63,80,0
631.8046,631.9574,57,80,0
630.97125,632.124,59,80,0
631.97125,632.124,59,80,0
632.13794,632.2074,57,80,0
632.22125,632.2907,56,80,0
632.3046,633.624,57,80,0
633.63794,634.9574,56,80,0
634.97125,636.9574,64,80,0
634.97125,637.624,52,80,0
636.97125,637.624,58,80,0
637.63794,638.9574,55,80,0
637.63794,640.35205,58,80,0
638.97125,640.35205,52,80,0
640.36664,641.851,59,80,0
640.36664,641.851,51,80,0
641.86664,643.2803,71,80,0
643.29517,644.6146,66,80,0
643.29517,645.2813,71,80,0
644.62854,645.94794,68,80,0
645.29517,645.94794,73,80,0
645.96185,647.2813,71,80,0
647.29517,648.6146,64,80,0
647.29517,649.2813,69,80,0
648.62854,649.94794,66,80,0
649.29517,649.94794,71,80,0
649.96185,651.2813,69,80,0
651.29517,652.6146,64,80,0
651.29517,653.2813,68,80,0
652.62854,653.97833,64,80,0
653.29517,653.97833,76,80,0
653.99286,655.37366,63,80,0
653.99286,655.37366,68,80,0
655.3882,656.87256,61,80,0
655.3882,656.87256,67,80,0
656.8882,658.4507,59,80,0
656.8882,658.4507,68,80,0
658.46716,659.93976,57,80,0
658.46716,659.93976,61,80,0
658.46716,659.93976,66,80,0
658.46716,659.93976,69,80,0
659.9543,661.9404,69,85,0
661.9543,662.60706,73,94,0
662.9543,663.0515,63,98,0
663.0654,663.1626,66,98,0
663.1765,663.27374,69,99,0
663.2876,664.60706,73,99,0
664.621,665.27374,71,95,0
665.2876,665.9404,66,88,0
665.2876,665.9404,69,88,0
665.9543,666.60706,64,81,0
665.9543,666.60706,68,81,0
666.621,667.60706,68,80,0
666.621,667.9404,64,80,0
667.621,667.9404,69,80,0
667.9543,669.27374,64,80,0
667.9543,669.98706,71,80,0
669.2876,670.7013,63,80,0
670.0019,670.7013,69,80,0
670.7162,673.9126,59,80,0
670.7162,673.9126,63,80,0
670.7162,673.9126,66,80,0
670.7162,673.9126,69,80,0
673.9305,677.3412,59,80,0
673.9305,677.3412,64,80,0
673.9305,677.3412,68,80,0
682.5019,684.19836,64,1,0
0.0,1.3194441,40,80,0
1.333333,2.6527772,44,80,0
2.666666,3.9861102,45,80,0
3.999999,5.319443,47,80,0
5.333332,6.6527762,49,80,0
6.666665,7.9861093,51,80,0
7.999998,9.319442,52,80,0
9.333331,10.652775,56,80,0
10.666664,11.986108,58,80,0
11.999997,13.319441,59,80,0
13.33333,14.652774,54,80,0
14.666663,15.319441,47,80,0
15.333329,15.986107,45,80,0
16.249996,18.652773,44,80,0
17.333328,18.652773,56,80,0
18.666662,19.986107,45,80,0
19.999994,21.319439,47,80,0
19.999994,21.319439,54,80,0
21.333328,22.652773,49,80,0
21.333328,22.652773,52,80,0
22.66666,23.986105,51,80,0
22.66666,23.986105,54,80,0
23.999994,25.319439,52,80,0
25.333326,26.652771,37,83,0
25.333326,26.652771,49,83,0
26.66666,27.986105,36,87,0
26.66666,27.986105,48,87,0
27.999992,29.319437,40,80,0
27.999992,30.652771,36,80,0
29.333326,30.652771,43,80,0
30.666658,32.151035,35,80,0
30.666658,32.151035,47,80,0
32.16666,33.486103,40,80,0
33.499992,34.819435,44,80,0
34.833324,36.15277,45,80,0
36.166656,37.486103,47,80,0
37.499992,38.819435,49,80,0
38.833324,40.152767,51,80,0
40.166656,41.4861,52,80,0
41.49999,42.819435,56,80,0
42.833324,44.152767,58,80,0
44.166656,45.4861,59,80,0
45.49999,46.81943,54,80,0
46.83332,47.4861,47,80,0
47.49999,48.152767,45,80,0
48.416656,50.81943,44,80,0
49.49999,50.81943,56,80,0
50.83332,52.152763,45,80,0
52.166653,53.4861,47,80,0
52.166653,53.4861,54,80,0
53.49999,54.81943,49,80,0
53.49999,54.81943,52,80,0
54.83332,56.152763,51,80,0
54.83332,56.152763,54,80,0
56.166653,57.486095,52,80,0
57.499985,58.81943,37,83,0
57.499985,58.81943,49,83,0
58.83332,60.152763,36,87,0
58.83332,60.152763,48,87,0
60.166653,61.486095,40,80,0
60.166653,62.819427,36,80,0
61.499985,62.819427,43,80,0
62.833317,64.317696,35,80,0
62.833317,64.317696,47,80,0
64.33332,65.7361,59,80,0
65.749985,67.06943,51,80,0
65.749985,67.06943,59,80,0
67.08332,68.40276,53,80,0
67.08332,68.40276,59,80,0
68.41665,69.73609,54,80,0
68.41665,69.73609,59,80,0
69.749985,71.06943,49,80,0
69.749985,71.06943,59,80,0
71.08331,72.40276,51,80,0
71.08331,72.40276,59,80,0
72.41665,73.73609,52,80,0
72.41665,73.73609,59,80,0
73.749985,75.06943,47,80,0
73.749985,75.06943,59,80,0
75.08331,76.40276,49,80,0
75.08331,76.40276,61,80,0
76.41665,77.73609,51,80,0
76.41665,77.73609,59,80,0
77.749985,79.06943,51,80,0
77.749985,79.06943,58,80,0
79.08331,80.56769,44,80,0
79.08331,80.56769,56,80,0
80.91665,81.902756,54,82,0
80.91665,81.902756,42,82,0
81.91665,83.23609,54,88,0
81.91665,83.23609,57,88,0
83.24998,84.56943,52,97,0
83.24998,84.56943,54,97,0
83.24998,84.56943,57,97,0
84.58331,87.902756,51,105,0
84.66665,87.902756,54,106,0
84.74998,87.902756,57,106,0
84.83331,87.902756,59,107,0
87.91665,88.56942,56,91,0
87.91665,88.56942,52,91,0
87.91665,88.56942,59,91,0
88.58331,91.23609,47,80,0
89.91665,91.23609,56,80,0
91.24998,92.56942,47,80,0
91.24998,92.56942,54,80,0
92.58331,93.96413,40,80,0
93.97866,95.359474,47,80,0
95.37401,96.85838,52,80,0
96.87401,98.27679,59,80,0
98.29067,99.610115,51,80,0
98.29067,99.610115,59,80,0
99.62401,100.94345,53,80,0
99.62401,100.94345,59,80,0
100.95734,102.27679,54,80,0
100.95734,102.27679,59,80,0
102.29067,103.610115,49,80,0
102.29067,103.610115,59,80,0
103.62401,104.94345,51,80,0
103.62401,104.94345,59,80,0
104.95734,106.27679,52,80,0
104.95734,106.27679,59,80,0
106.29067,107.610115,47,80,0
106.29067,107.610115,59,80,0
107.62401,108.94345,49,80,0
107.62401,108.94345,61,80,0
108.95734,110.27678,51,80,0
108.95734,110.27678,59,80,0
110.29067,111.671486,51,80,0
110.29067,111.671486,58,80,0
111.68602,113.20846,44,80,0
111.68602,113.20846,56,80,0
113.60909,114.646484,54,82,0
113.60909,114.646484,42,82,0
114.66038,115.97982,54,88,0
114.66038,115.97982,57,88,0
115.99371,117.313156,52,97,0
115.99371,117.313156,54,97,0
115.99371,117.313156,57,97,0
117.32704,120.646484,51,105,0
117.41038,120.646484,54,106,0
117.49371,120.646484,57,106,0
117.57704,120.646484,59,107,0
120.66038,121.313156,56,81,0
120.66038,121.313156,52,81,0
120.66038,121.313156,59,81,0
121.32704,123.97982,47,80,0
122.66038,123.97982,56,80,0
123.993706,125.31315,47,80,0
123.993706,125.31315,54,80,0
125.32704,126.707855,40,80,0
126.72239,128.20676,47,80,0
128.22238,129.87169,52,80,0
130.22238,131.2085,40,80,0
131.22238,132.54184,47,80,0
131.22238,132.54184,52,80,0
131.22238,132.54184,56,80,0
131.22238,132.54184,59,80,0
132.55573,133.87517,47,80,0
132.55573,133.87517,52,80,0
132.55573,133.87517,56,80,0
132.55573,133.87517,59,80,0
133.88905,135.2085,44,80,0
135.22238,136.54182,47,80,0
135.22238,136.54182,54,80,0
135.22238,136.54182,57,80,0
135.22238,136.54182,59,80,0
136.55573,137.87517,47,80,0
136.55573,137.87517,54,80,0
136.55573,137.87517,57,80,0
136.55573,137.87517,59,80,0
137.88905,139.2085,44,80,0
139.22238,140.54182,47,80,0
139.22238,140.54182,52,80,0
139.22238,140.54182,56,80,0
139.22238,140.54182,59,80,0
140.55573,141.87517,47,80,0
140.55573,141.87517,52,80,0
140.55573,141.87517,56,80,0
140.55573,141.87517,59,80,0
141.88905,143.2085,45,80,0
143.22238,144.54182,47,80,0
143.22238,144.54182,51,80,0
143.22238,144.54182,54,80,0
143.22238,144.54182,59,80,0
144.55573,145.87517,47,80,0
144.55573,145.87517,51,80,0
144.55573,145.87517,54,80,0
144.55573,145.87517,59,80,0
145.88905,147.2085,44,80,0
147.22238,148.54182,47,80,0
147.22238,148.54182,52,80,0
147.22238,148.54182,56,80,0
147.22238,148.54182,59,80,0
148.55571,149.87517,47,80,0
148.55571,149.87517,52,80,0
148.55571,149.87517,56,80,0
148.55571,149.87517,59,80,0
149.88905,151.2085,42,80,0
151.22238,152.54182,47,80,0
151.22238,152.54182,51,80,0
151.22238,152.54182,54,80,0
151.22238,152.54182,57,80,0
152.55571,153.87515,39,80,0
152.55571,153.87515,47,80,0
153.88905,155.15234,40,80,0
153.88905,155.15234,47,80,0
155.16565,155.79065,39,80,0
155.16565,156.42894,47,80,0
155.80394,156.42894,38,80,0
156.44225,157.70554,37,80,0
157.08054,157.70554,30,80,0
157.71884,158.34383,37,80,0
158.35713,158.98213,43,80,0
158.99542,159.62042,42,80,0
157.71884,160.2865,30,80,0
159.63373,160.2865,40,80,0
160.3004,160.9998,42,80,0
160.3004,160.9998,35,80,0
161.01468,161.35693,37,80,0
161.37183,161.71408,39,80,0
162.0861,163.09602,40,80,0
163.10991,164.42937,47,80,0
163.10991,164.42937,52,80,0
163.10991,164.42937,56,80,0
163.10991,164.42937,59,80,0
164.44325,165.7627,47,80,0
164.44325,165.7627,52,80,0
164.44325,165.7627,56,80,0
164.44325,165.7627,59,80,0
165.77658,167.09602,44,80,0
167.10991,168.42935,47,80,0
167.10991,168.42935,54,80,0
167.10991,168.42935,57,80,0
167.10991,168.42935,59,80,0
168.44325,169.7627,47,80,0
168.44325,169.7627,54,80,0
168.44325,169.7627,57,80,0
168.44325,169.7627,59,80,0
169.77658,171.09602,44,80,0
171.10991,172.42935,47,80,0
171.10991,172.42935,52,80,0
171.10991,172.42935,56,80,0
171.10991,172.42935,59,80,0
172.44325,173.7627,47,80,0
172.44325,173.7627,52,80,0
172.44325,173.7627,56,80,0
172.44325,173.7627,59,80,0
173.77658,175.09602,45,80,0
175.10991,176.42935,47,80,0
175.10991,176.42935,51,80,0
175.10991,176.42935,54,80,0
175.10991,176.42935,59,80,0
176.44325,177.7627,47,80,0
176.44325,177.7627,51,80,0
176.44325,177.7627,54,80,0
176.44325,177.7627,59,80,0
177.77658,179.09602,44,80,0
179.10991,180.42935,47,80,0
179.10991,180.42935,52,80,0
179.10991,180.42935,56,80,0
179.10991,180.42935,59,80,0
180.44325,181.7627,47,80,0
180.44325,181.7627,52,80,0
180.44325,181.7627,56,80,0
180.44325,181.7627,59,80,0
181.77658,183.09602,42,80,0
183.10991,184.42935,47,80,0
183.10991,184.42935,51,80,0
183.10991,184.42935,54,80,0
183.10991,184.42935,57,80,0
184.44324,185.7627,39,80,0
184.44324,185.7627,47,80,0
185.77658,187.03987,40,80,0
185.77658,187.03987,47,80,0
187.05318,187.67818,39,80,0
187.05318,188.31647,47,80,0
187.69147,188.31647,38,80,0
188.32977,189.59306,37,80,0
188.96806,189.59306,30,80,0
189.60637,190.23137,37,80,0
190.24466,190.86966,43,80,0
190.88295,191.53574,42,80,0
189.60637,192.23276,30,80,0
191.54962,192.23276,40,80,0
192.2473,192.98167,42,80,0
192.2473,192.98167,35,80,0
192.9973,193.73167,37,80,0
192.9973,193.73167,40,80,0
193.7473,195.15007,39,80,0
193.7473,195.15007,42,80,0
195.16397,196.48341,51,80,0
195.16397,196.48341,54,80,0
195.16397,196.48341,59,80,0
196.4973,197.81674,53,80,0
196.4973,197.81674,56,80,0
196.4973,197.81674,61,80,0
198.16396,199.15007,42,80,0
199.16396,200.48341,54,80,0
199.16396,200.48341,57,80,0
200.4973,201.81674,51,80,0
200.4973,201.81674,54,80,0
200.4973,201.81674,59,80,0
201.83063,203.15007,40,80,0
203.16396,204.48341,52,80,0
203.16396,204.48341,56,80,0
203.16396,204.48341,59,80,0
204.4973,205.81674,49,80,0
204.4973,206.4834,61,80,0
205.83063,207.15007,51,80,0
206.4973,207.81674,59,85,0
207.16396,208.4834,51,91,0
207.83063,208.4834,58,97,0
208.4973,209.15007,44,103,0
208.4973,209.15007,56,103,0
209.16396,209.81674,54,109,0
209.16396,211.15007,42,109,0
211.16396,212.4834,54,80,0
211.16396,212.4834,57,80,0
212.4973,213.81674,49,80,0
212.4973,213.81674,52,80,0
212.4973,213.81674,57,80,0
213.83063,215.15007,39,80,0
215.16396,216.4834,51,80,0
215.16396,216.4834,54,80,0
215.16396,216.4834,57,80,0
215.16396,216.4834,59,80,0
216.4973,217.81674,52,80,0
216.4973,217.81674,56,80,0
216.4973,217.81674,59,80,0
217.83063,219.15007,47,80,0
219.16396,220.4834,56,80,0
219.16396,220.4834,59,80,0
219.16396,220.4834,64,80,0
220.49728,221.81674,54,80,0
220.49728,221.81674,57,80,0
220.49728,221.81674,59,80,0
220.49728,221.81674,63,80,0
221.83063,223.15007,40,80,0
223.16396,224.4834,52,80,0
223.16396,224.4834,54,80,0
223.16396,224.4834,57,80,0
223.16396,224.4834,59,80,0
223.16396,224.4834,63,80,0
224.49728,225.15007,52,80,0
224.49728,225.15007,56,80,0
224.49728,225.15007,59,80,0
224.49728,225.15007,64,80,0
225.16396,225.81673,51,80,0
225.16396,225.81673,54,80,0
225.16396,225.81673,59,80,0
225.16396,225.81673,63,80,0
225.83063,227.15007,39,80,0
227.16396,228.4834,51,80,0
227.16396,228.4834,54,80,0
227.16396,228.4834,59,80,0
228.49728,229.81673,53,80,0
228.49728,229.81673,56,80,0
228.49728,229.81673,61,80,0
230.16396,231.15007,42,80,0
231.16396,232.4834,54,80,0
231.16396,232.4834,57,80,0
232.49728,233.81673,51,80,0
232.49728,233.81673,54,80,0
232.49728,233.81673,59,80,0
233.83063,235.15007,40,80,0
235.16396,236.4834,52,80,0
235.16396,236.4834,56,80,0
235.16396,236.4834,59,80,0
236.49728,237.81673,49,80,0
236.49728,238.4834,61,80,0
237.83063,239.15007,51,80,0
238.49728,239.81673,59,85,0
239.16396,240.4834,51,91,0
239.83061,240.4834,58,97,0
240.49728,241.15007,44,103,0
240.49728,241.15007,56,103,0
241.16396,241.81673,54,109,0
241.16396,243.15007,42,109,0
243.16396,244.4834,54,80,0
243.16396,244.4834,57,80,0
244.49728,245.81673,49,80,0
244.49728,245.81673,52,80,0
244.49728,245.81673,57,80,0
245.83061,247.15005,39,80,0
247.16396,248.4834,51,80,0
247.16396,248.4834,54,80,0
247.16396,248.4834,57,80,0
247.16396,248.4834,59,80,0
248.49728,249.81673,52,80,0
248.49728,249.81673,56,80,0
248.49728,249.81673,59,80,0
249.83061,251.15005,47,80,0
251.16396,252.4834,56,80,0
251.16396,252.4834,59,80,0
251.16396,252.4834,64,80,0
252.49728,253.81673,54,80,0
252.49728,253.81673,57,80,0
252.49728,253.81673,59,80,0
252.49728,253.81673,63,80,0
253.83061,255.15005,40,80,0
255.16396,256.75323,52,80,0
255.16396,256.75323,54,80,0
255.16396,256.75323,57,80,0
255.16396,256.75323,59,80,0
255.16396,256.75323,63,80,0
256.7711,258.46753,52,80,0
256.7711,258.46753,56,80,0
256.7711,258.46753,59,80,0
256.7711,258.46753,64,80,0
258.48538,258.66507,40,80,0
259.04788,259.22757,52,80,0
259.23538,259.41507,56,80,0
259.79788,259.97757,44,80,0
259.98538,260.16507,45,80,0
260.54788,260.72757,57,80,0
260.73538,260.91507,59,80,0
261.29788,261.47757,47,80,0
261.48538,261.66507,49,80,0
262.04788,262.22757,61,80,0
262.23538,262.41507,63,80,0
262.79788,262.97757,51,80,0
262.98538,263.16507,52,80,0
263.54788,263.72757,64,80,0
263.73538,263.91507,68,80,0
264.29788,264.47757,56,80,0
264.48538,264.66507,58,80,0
265.04788,265.22757,70,80,0
265.23538,265.41507,71,80,0
265.79788,265.97757,66,83,0
265.98538,266.16507,66,84,0
266.54788,266.72757,73,87,0
266.73538,266.91507,71,88,0
267.29788,267.47757,69,92,0
267.48538,267.66507,68,93,0
268.04788,268.22757,80,96,0
268.23538,268.41507,76,97,0
268.79788,268.97757,71,100,0
268.98538,269.16507,73,99,0
269.54788,269.72757,70,96,0
269.73538,269.91507,70,94,0
270.29788,270.47757,71,91,0
270.48538,270.66507,73,89,0
271.04788,271.22757,76,86,0
271.23538,271.41507,75,84,0
271.79788,271.97757,78,81,0
271.98538,272.16507,74,80,0
272.54788,272.72757,77,85,0
272.73538,272.91507,73,87,0
273.29788,273.47757,76,92,0
273.48538,273.66507,72,94,0
274.04788,274.22757,79,99,0
274.23538,274.42453,72,100,0
274.82748,275.01663,84,95,0
275.02484,275.2245,72,93,0
275.64984,275.8495,84,88,0
275.8582,276.06958,83,86,0
276.54935,276.78894,71,81,0
277.22794,277.6196,47,80,0
277.22794,277.6196,52,80,0
277.22794,277.6196,56,80,0
277.62793,277.99512,47,80,0
277.62793,277.99512,52,80,0
277.62793,277.99512,56,80,0
278.00293,278.37012,47,80,0
278.00293,278.37012,52,80,0
278.00293,278.37012,56,80,0
278.37793,278.74512,47,80,0
278.37793,278.74512,52,80,0
278.37793,278.74512,56,80,0
278.75293,279.12012,47,80,0
278.75293,279.12012,52,80,0
278.75293,279.12012,56,80,0
279.12793,279.49512,47,80,0
279.12793,279.49512,54,80,0
279.12793,279.49512,57,80,0
279.50293,279.87012,47,80,0
279.50293,279.87012,54,80,0
279.50293,279.87012,57,80,0
279.87793,280.24512,47,80,0
279.87793,280.24512,54,80,0
279.87793,280.24512,57,80,0
280.25293,280.62012,47,80,0
280.25293,280.62012,54,80,0
280.25293,280.62012,57,80,0
280.62793,280.99512,47,80,0
280.62793,280.99512,54,80,0
280.62793,280.99512,57,80,0
281.00293,281.37012,47,80,0
281.00293,281.37012,54,80,0
281.00293,281.37012,57,80,0
281.37793,281.74512,47,80,0
281.37793,281.74512,56,80,0
281.37793,281.74512,59,80,0
281.75293,282.12012,47,80,0
281.75293,282.12012,56,80,0
281.75293,282.12012,59,80,0
282.12793,282.49512,47,80,0
282.12793,282.49512,56,80,0
282.12793,282.49512,59,80,0
282.50293,282.87012,47,80,0
282.50293,282.87012,56,80,0
282.50293,282.87012,59,80,0
282.87793,283.24512,47,80,0
282.87793,283.24512,56,80,0
282.87793,283.24512,59,80,0
283.25293,283.62012,47,80,0
283.25293,283.62012,56,80,0
283.25293,283.62012,59,80,0
283.62793,283.99512,47,80,0
283.62793,283.99512,57,80,0
283.62793,283.99512,61,80,0
284.00293,284.37012,47,80,0
284.00293,284.37012,57,80,0
284.00293,284.37012,61,80,0
284.37793,284.75943,47,80,0
284.37793,284.75943,57,80,0
284.37793,284.75943,61,80,0
284.76755,285.14905,47,80,0
284.76755,285.14905,57,80,0
284.76755,285.14905,61,80,0
285.15714,285.55954,59,80,0
285.15714,285.55954,63,80,0
285.5681,285.98776,59,80,0
285.5681,285.98776,63,80,0
285.99667,286.20203,47,80,0
286.42526,286.6169,56,80,0
286.42526,286.6169,59,80,0
286.42526,286.6169,64,80,0
286.82526,287.00494,56,80,0
286.82526,287.00494,59,80,0
286.82526,287.00494,64,80,0
287.20026,287.37994,56,80,0
287.20026,287.37994,59,80,0
287.20026,287.37994,64,80,0
287.57526,287.75494,56,80,0
287.57526,287.75494,59,80,0
287.57526,287.75494,64,80,0
287.95026,288.12994,56,80,0
287.95026,288.12994,59,80,0
287.95026,288.12994,64,80,0
288.32526,288.50494,47,80,0
288.70026,288.87994,54,80,0
288.70026,288.87994,57,80,0
288.70026,288.87994,59,80,0
288.70026,288.87994,63,80,0
289.07526,289.25494,54,80,0
289.07526,289.25494,57,80,0
289.07526,289.25494,59,80,0
289.07526,289.25494,63,80,0
289.45026,289.62994,54,80,0
289.45026,289.62994,57,80,0
289.45026,289.62994,59,80,0
289.45026,289.62994,63,80,0
289.82526,290.00494,54,80,0
289.82526,290.00494,57,80,0
289.82526,290.00494,59,80,0
289.82526,290.00494,63,80,0
290.20026,290.37994,54,80,0
290.20026,290.37994,57,80,0
290.20026,290.37994,59,80,0
290.20026,290.37994,63,80,0
290.57526,290.75494,47,80,0
290.95026,291.12994,56,83,0
290.95026,291.12994,59,83,0
290.95026,291.12994,64,83,0
291.32526,291.50494,56,87,0
291.32526,291.50494,59,87,0
291.32526,291.50494,64,87,0
291.70026,291.87994,56,90,0
291.70026,291.87994,59,90,0
291.70026,291.87994,64,90,0
292.07526,292.25494,49,94,0
292.45026,292.62994,55,98,0
292.45026,292.62994,58,98,0
292.45026,292.62994,64,98,0
292.82526,293.00494,48,100,0
293.20026,293.37994,55,97,0
293.20026,293.37994,58,97,0
293.20026,293.37994,64,97,0
293.57526,293.7644,55,93,0
293.57526,293.7644,58,93,0
293.57526,293.7644,64,93,0
293.97,294.15912,55,90,0
293.97,294.15912,58,90,0
293.97,294.15912,64,90,0
294.36472,294.56165,48,86,0
294.36472,294.56165,55,86,0
294.7757,294.9871,47,82,0
294.7757,294.9871,59,82,0
295.21686,295.4165,63,70,0
295.8309,296.02005,71,70,0
296.02826,296.20795,63,70,0
296.59076,296.77045,71,70,0
296.77826,296.95795,65,70,0
297.34076,297.52045,68,70,0
297.52826,297.70795,66,70,0
298.09076,298.27045,73,70,0
298.27826,298.45795,64,70,0
298.84076,299.02045,67,70,0
299.02826,299.20795,72,70,0
299.59076,299.77045,63,70,0
299.77826,299.95795,64,70,0
300.34076,300.52045,76,70,0
300.52826,300.70795,75,70,0
301.09076,301.27045,63,77,0
301.27826,301.45795,62,79,0
301.84076,302.02045,74,87,0
302.02826,302.20795,75,89,0
302.59076,302.77045,63,97,0
302.77826,302.9674,64,99,0
303.37036,303.5595,63,94,0
303.56772,303.76465,56,91,0
304.19296,304.39835,54,81,0
304.40726,304.59894,66,80,0
304.99475,305.17444,77,83,0
305.18225,305.36194,78,84,0
305.74475,305.92444,73,87,0
305.93225,306.11194,78,88,0
306.49475,306.67444,73,91,0
306.68225,306.86194,78,92,0
307.24475,307.42444,75,95,0
307.43225,307.61194,81,96,0
307.99475,308.17444,75,99,0
308.18225,308.36194,83,100,0
308.74475,308.92444,76,97,0
308.93225,309.11194,83,95,0
309.49475,309.67444,71,91,0
309.68225,309.86194,72,90,0
310.24475,310.42444,73,86,0
310.43225,310.61194,73,85,0
310.99475,311.17444,75,81,0
311.18225,311.36194,76,80,0
311.74475,311.92444,63,80,0
311.93225,312.11896,64,80,0
312.5167,312.70337,51,80,0
312.7115,312.9084,52,80,0
313.34302,313.5544,50,80,0
313.56363,313.97162,62,80,0
313.9803,314.3668,50,80,0
314.37503,314.74222,50,80,0
314.75003,315.11722,50,80,0
315.12503,315.21097,50,80,0
315.21878,315.30472,52,80,0
315.31253,315.39847,50,80,0
315.40628,315.49222,52,80,0
315.50003,315.58597,50,80,0
315.59378,315.67972,52,80,0
315.68753,315.77347,49,80,0
315.78128,315.86722,50,80,0
315.87503,316.24222,49,80,0
315.87503,316.24222,53,80,0
315.87503,316.24222,56,80,0
316.25003,316.61722,49,80,0
316.25003,316.61722,53,80,0
316.25003,316.61722,56,80,0
316.62503,316.99222,49,80,0
316.62503,316.99222,53,80,0
316.62503,316.99222,56,80,0
317.00003,317.36722,49,80,0
317.00003,317.36722,53,80,0
317.00003,317.36722,56,80,0
317.37503,317.74222,49,80,0
317.37503,317.74222,53,80,0
317.37503,317.74222,56,80,0
317.75003,318.11722,49,80,0
317.75003,318.11722,53,80,0
317.75003,318.11722,56,80,0
318.12503,318.49222,49,80,0
318.12503,318.49222,54,80,0
318.12503,318.49222,57,80,0
318.50003,318.86722,49,80,0
318.50003,318.86722,54,80,0
318.50003,318.86722,57,80,0
318.87503,319.24222,49,80,0
318.87503,319.24222,54,80,0
318.87503,319.24222,57,80,0
319.25003,319.61722,49,80,0
319.25003,319.61722,54,80,0
319.25003,319.61722,57,80,0
319.62503,319.99222,49,80,0
319.62503,319.99222,52,80,0
319.62503,319.99222,57,80,0
320.00003,320.36722,49,80,0
320.00003,320.36722,52,80,0
320.00003,320.36722,57,80,0
320.37503,320.74222,47,80,0
320.37503,320.74222,52,80,0
320.37503,320.74222,56,80,0
320.75003,321.11722,47,80,0
320.75003,321.11722,52,80,0
320.75003,321.11722,56,80,0
321.12503,321.51154,46,80,0
321.12503,321.51154,52,80,0
321.12503,321.51154,55,80,0
321.51974,321.90628,46,80,0
321.51974,321.90628,51,80,0
321.51974,321.90628,55,80,0
321.9145,322.32248,44,80,0
321.9145,322.32248,51,80,0
321.9145,322.32248,56,80,0
322.33115,322.76315,44,80,0
322.33115,322.76315,47,80,0
322.33115,322.76315,52,80,0
322.77234,322.972,42,80,0
322.77234,322.972,54,80,0
323.189,323.37814,54,83,0
323.189,323.37814,57,83,0
323.189,323.37814,61,83,0
323.189,323.37814,64,83,0
323.58374,323.76343,54,86,0
323.58374,323.76343,57,86,0
323.58374,323.76343,61,86,0
323.58374,323.76343,64,86,0
323.95874,324.13843,54,89,0
323.95874,324.13843,57,89,0
323.95874,324.13843,61,89,0
323.95874,324.13843,64,89,0
324.33374,324.51343,54,92,0
324.33374,324.51343,57,92,0
324.33374,324.51343,61,92,0
324.33374,324.51343,64,92,0
324.70874,324.88843,54,95,0
324.70874,324.88843,57,95,0
324.70874,324.88843,61,95,0
324.70874,324.88843,64,95,0
325.08374,325.26343,42,98,0
325.45874,325.63843,54,102,0
325.45874,325.63843,57,102,0
325.45874,325.63843,59,102,0
325.45874,325.63843,63,102,0
325.83374,326.01343,54,105,0
325.83374,326.01343,57,105,0
325.83374,326.01343,59,105,0
325.83374,326.01343,63,105,0
326.20874,326.38843,54,108,0
326.20874,326.38843,57,108,0
326.20874,326.38843,59,108,0
326.20874,326.38843,63,108,0
326.58374,326.76343,54,100,0
326.58374,326.76343,57,100,0
326.58374,326.76343,59,100,0
326.58374,326.76343,63,100,0
326.95874,327.13843,56,94,0
326.95874,327.13843,64,94,0
326.95874,327.13843,59,94,0
327.33374,327.51343,49,80,0
327.70874,327.88843,56,80,0
327.70874,327.88843,61,80,0
327.70874,327.88843,64,80,0
328.08374,328.26343,47,80,0
328.45874,328.63843,56,80,0
328.45874,328.63843,59,80,0
328.45874,328.63843,64,80,0
328.83374,329.01343,47,80,0
329.20874,329.38843,60,80,0
329.20874,329.38843,63,80,0
329.20874,329.38843,66,80,0
329.20874,329.38843,69,80,0
329.58374,329.7891,59,80,0
329.58374,329.7891,63,80,0
329.58374,329.7891,66,80,0
329.58374,329.7891,69,80,0
330.0123,330.21768,60,80,0
330.0123,330.21768,63,80,0
330.0123,330.21768,66,80,0
330.0123,330.21768,69,80,0
330.4409,330.64624,59,80,0
330.4409,330.64624,63,80,0
330.4409,330.64624,66,80,0
330.4409,330.64624,69,80,0
330.86945,331.0748,48,80,0
330.86945,331.0748,54,80,0
330.86945,331.0748,57,80,0
331.29803,331.51917,35,80,0
331.29803,331.51917,47,80,0
331.75955,331.99915,40,80,0
331.75955,331.99915,52,80,0
332.38455,332.4804,56,110,0
332.48456,332.58038,59,110,0
332.58456,332.6804,57,110,0
332.68457,332.7804,56,110,0
332.78455,332.8804,52,110,0
332.88455,332.9804,56,110,0
332.98456,333.08038,54,110,0
333.08456,333.1804,52,110,0
333.18457,333.2804,51,110,0
333.28455,333.3804,54,110,0
333.38455,333.4804,52,110,0
333.48456,333.58038,51,110,0
333.58456,333.6804,47,110,0
333.68457,333.7804,51,110,0
333.78455,333.8804,49,110,0
333.88455,333.9804,47,110,0
333.98456,334.08038,44,110,0
334.08456,334.1804,47,110,0
334.18457,334.2804,45,110,0
334.28455,334.3804,44,110,0
334.38455,334.4804,40,110,0
334.48456,334.58038,44,110,0
334.58456,334.6804,42,110,0
334.68457,334.7804,40,110,0
334.78455,334.8804,37,110,0
334.88455,334.9804,40,110,0
334.98456,335.08038,39,110,0
335.08456,335.1804,37,110,0
335.18457,335.2804,35,110,0
335.28455,335.3804,37,110,0
335.38455,335.4804,38,110,0
335.48456,335.58038,39,110,0
335.58456,335.7804,40,110,0
335.98456,336.1804,44,110,0
336.38455,336.58038,47,110,0
336.78455,336.9804,51,110,0
337.18457,337.3804,52,110,0
337.58456,337.7804,56,110,0
337.98456,338.1804,58,124,0
338.18457,338.3804,58,110,0
338.38455,338.58038,59,110,0
338.78455,338.8804,56,80,0
338.88455,338.9804,59,81,0
338.98456,339.08038,57,82,0
339.08456,339.1804,56,83,0
339.18457,339.2804,54,85,0
339.28455,339.3804,52,86,0
339.38455,339.4804,51,87,0
339.48456,339.58038,52,89,0
339.58456,339.6804,51,90,0
339.68457,339.7804,54,91,0
339.78455,339.8804,52,93,0
339.88455,339.9804,51,94,0
339.98456,340.08038,49,95,0
340.08456,340.1804,47,96,0
340.18457,340.2804,46,98,0
340.28455,340.3804,45,99,0
340.38455,340.4804,44,100,0
340.48456,340.58038,47,102,0
340.58456,340.6804,45,103,0
340.68457,340.7804,44,104,0
340.78455,340.8804,42,106,0
340.88455,340.9804,40,107,0
340.98456,341.08038,39,108,0
341.08456,341.1804,40,109,0
341.18457,341.2804,39,110,0
341.28455,341.3804,37,110,0
341.38455,341.4804,42,110,0
341.48456,341.58038,40,110,0
341.58456,341.6804,39,110,0
341.68457,341.7804,35,110,0
341.78455,341.8804,37,110,0
341.88455,341.9804,39,110,0
341.98456,342.1804,40,80,0
342.18457,342.3804,42,82,0
342.38455,342.58038,44,85,0
342.58456,342.7804,45,87,0
342.78455,342.9804,47,90,0
342.98456,343.1804,49,93,0
343.18457,343.3804,50,95,0
343.38455,343.58038,51,98,0
343.58456,343.7804,52,100,0
343.78455,343.9804,54,103,0
343.98456,344.1804,56,106,0
344.18457,344.3804,57,108,0
344.38455,344.58038,58,110,0
344.58456,344.7804,59,110,0
344.78455,344.9804,60,110,0
344.98456,345.1804,59,110,0
345.18457,345.2804,56,80,0
345.28455,345.3804,59,80,0
345.38455,345.4804,57,80,0
345.48456,345.58038,56,80,0
345.58456,345.6804,54,80,0
345.68457,345.7804,53,80,0
345.78455,345.8804,51,80,0
345.88455,345.9804,53,80,0
345.98456,346.08038,54,80,0
346.08456,346.1804,57,80,0
346.18457,346.2804,56,80,0
346.28455,346.3804,54,80,0
346.38455,346.4804,52,80,0
346.48456,346.58038,51,80,0
346.58456,346.6804,49,80,0
346.68457,346.7804,51,80,0
346.78455,346.8804,52,80,0
346.88455,346.9804,56,80,0
346.98456,347.08038,54,80,0
347.08456,347.1804,52,80,0
347.18457,347.2804,51,80,0
347.28455,347.3804,49,80,0
347.38455,347.4804,48,80,0
347.48456,347.58038,49,80,0
347.58456,347.6804,51,80,0
347.68457,347.7804,49,83,0
347.78455,347.8804,47,87,0
347.88455,347.9804,46,91,0
347.98456,348.08038,44,94,0
348.08456,348.1804,42,98,0
348.18457,348.2804,40,102,0
348.28455,348.3804,38,106,0
348.38455,348.58038,37,110,0
348.58456,348.7804,45,110,0
348.58456,348.7804,57,110,0
348.78455,348.9804,45,110,0
348.78455,348.9804,57,110,0
348.98456,349.1804,49,110,0
348.98456,349.1804,61,110,0
349.18457,349.3804,49,110,0
349.18457,349.3804,61,110,0
349.38455,349.58038,47,110,0
349.38455,349.58038,59,110,0
349.58456,349.7804,45,110,0
349.58456,349.7804,57,110,0
349.78455,349.9804,44,110,0
349.78455,349.9804,56,110,0
349.98456,350.1804,44,110,0
349.98456,350.1804,56,110,0
350.18457,350.3804,42,110,0
350.18457,350.3804,54,110,0
350.38455,350.58038,42,110,0
350.38455,350.58038,54,110,0
350.58456,350.7804,44,110,0
350.58456,350.7804,56,110,0
350.78455,350.9804,45,110,0
350.78455,350.9804,57,110,0
350.98456,351.1804,47,110,0
350.98456,351.1804,59,110,0
351.18457,351.3804,44,110,0
351.18457,351.3804,56,110,0
351.38455,351.58038,59,110,0
351.38455,351.58038,71,110,0
351.58456,351.7804,59,80,0
351.58456,351.7804,71,80,0
351.78455,351.9804,59,80,0
351.78455,351.9804,71,80,0
351.98456,352.1804,59,80,0
351.98456,352.1804,71,80,0
352.18457,352.3804,61,80,0
352.18457,352.3804,73,80,0
352.38455,352.58038,59,80,0
352.38455,352.58038,71,80,0
352.58456,352.7804,57,80,0
352.58456,352.7804,69,80,0
352.78455,352.9804,57,80,0
352.78455,352.9804,69,80,0
352.98456,353.1804,59,80,0
352.98456,353.1804,71,80,0
353.18457,353.3804,57,80,0
353.18457,353.3804,69,80,0
353.38455,353.58038,56,80,0
353.38455,353.58038,68,80,0
353.58456,353.7804,56,80,0
353.58456,353.7804,68,80,0
353.78455,353.9804,57,80,0
353.78455,353.9804,69,80,0
353.98456,354.1804,56,80,0
353.98456,354.1804,68,80,0
354.18457,354.3804,55,87,0
354.18457,354.3804,67,87,0
354.38455,354.58038,56,94,0
354.38455,354.58038,68,94,0
354.58456,354.8804,59,102,0
354.88455,354.9804,57,110,0
354.98456,355.08038,61,110,0
355.08456,355.1804,59,110,0
355.18457,355.2804,57,110,0
355.28455,355.3804,56,110,0
355.38455,355.4804,54,110,0
355.48456,355.58038,52,110,0
355.58456,355.6804,51,110,0
355.68457,355.7804,47,110,0
355.78455,355.8804,49,110,0
355.88455,355.9804,51,110,0
355.98456,356.08038,52,110,0
356.08456,356.1804,54,110,0
356.18457,356.2804,56,110,0
356.28455,356.3804,57,110,0
356.38455,356.4804,59,110,0
356.48456,356.58038,58,110,0
356.58456,356.6804,59,110,0
356.68457,356.7804,61,110,0
356.78455,356.8804,63,110,0
356.88455,356.9804,64,110,0
356.98456,357.08038,66,110,0
357.08456,357.1804,64,110,0
357.18457,357.2804,63,110,0
357.28455,357.3804,59,110,0
357.38455,357.4804,61,110,0
357.48456,357.58038,63,110,0
357.58456,357.6804,64,110,0
357.68457,357.7804,63,110,0
357.78455,357.8804,64,110,0
357.88455,357.9804,66,110,0
357.98456,358.7658,47,80,0
359.16876,359.3579,56,80,0
359.36615,359.5553,57,80,0
359.5635,359.75266,59,80,0
359.76086,359.95,52,80,0
359.95825,360.1474,54,80,0
360.35297,361.13422,47,80,0
360.1556,361.52896,56,80,0
361.5372,361.72635,57,80,0
361.73456,361.9237,59,80,0
361.93192,362.12106,61,80,0
362.1293,362.31845,54,80,0
362.32666,362.5158,56,80,0
362.52402,362.71317,57,80,0
362.7214,362.91055,42,80,0
362.91876,363.1079,44,80,0
363.11615,363.30527,45,80,0
362.7214,363.50266,47,80,0
363.3135,363.50266,42,80,0
363.51086,363.7,44,80,0
363.70825,363.8974,45,80,0
363.9056,364.68686,35,80,0
365.0898,365.27896,59,80,0
365.2872,365.47632,63,80,0
365.48456,365.6737,64,80,0
365.68192,365.87106,56,80,0
365.8793,366.06842,57,80,0
366.07666,366.2658,59,80,0
366.27402,367.05527,47,80,0
367.45825,367.64737,56,80,0
367.45825,367.84476,59,80,0
367.6556,367.84476,57,80,0
367.85297,368.0421,59,80,0
368.05035,368.23947,52,80,0
368.2477,368.43686,54,80,0
368.44507,368.63422,56,80,0
368.64246,369.4237,47,80,0
369.82666,370.0158,54,80,0
369.82666,370.21317,59,80,0
370.02402,370.21317,56,80,0
370.2214,370.41052,57,80,0
370.41876,370.6079,54,80,0
370.61612,370.80527,56,80,0
370.8135,371.00266,57,80,0
371.01086,371.2,47,80,0
371.20822,371.39737,49,80,0
371.4056,371.59476,51,80,0
371.60297,371.7921,47,80,0
371.80032,371.98947,49,80,0
371.9977,372.18686,51,80,0
372.19507,372.38422,47,80,0
372.39246,372.58157,51,80,0
372.5898,372.77896,52,80,0
372.78717,372.97632,44,80,0
372.98456,373.1737,45,80,0
373.18192,373.37106,47,80,0
373.37927,374.95,40,80,0
374.95822,375.34476,44,85,0
375.35297,375.73947,42,86,0
375.7477,376.52896,40,88,0
376.53717,376.92368,39,91,0
376.93192,377.31842,39,92,0
377.32666,377.71317,37,93,0
377.72137,378.1079,35,95,0
376.93192,378.50262,45,92,0
378.11612,378.50262,33,96,0
378.51086,378.89737,37,97,0
378.51086,378.89737,49,97,0
378.9056,379.2921,35,99,0
378.9056,379.2921,47,99,0
379.30032,380.08157,33,100,0
379.30032,380.08157,45,100,0
380.0898,380.47632,32,96,0
380.0898,380.47632,44,96,0
380.48453,381.26578,42,93,0
380.48453,381.26578,54,93,0
381.27402,381.66052,40,89,0
381.27402,381.66052,52,89,0
381.66876,381.8579,52,86,0
381.86612,382.05527,54,85,0
382.06348,382.25775,55,84,0
381.66876,382.46045,49,86,0
382.2662,382.46045,52,83,0
382.4689,382.67426,54,82,0
382.4689,382.88855,48,82,0
382.68317,382.88855,55,81,0
383.10016,383.29443,52,80,0
383.30286,383.49713,55,80,0
383.50558,383.69983,58,80,0
383.70828,383.90253,55,80,0
383.91098,384.10522,52,80,0
384.11368,384.30792,55,80,0
384.31638,384.51065,52,80,0
384.51907,384.71335,53,80,0
384.72177,384.91605,57,80,0
384.9245,385.11874,58,80,0
382.89746,385.32144,48,80,0
385.1272,385.32144,55,80,0
385.3299,385.72687,48,80,0
385.7353,386.13226,47,80,0
386.14072,386.53766,45,80,0
386.5461,387.7221,44,80,0
387.73032,387.91946,56,80,0
387.92767,388.11682,57,80,0
388.12506,388.3142,59,80,0
388.32242,388.51157,52,80,0
388.5198,388.70892,54,80,0
388.91452,389.69577,47,80,0
388.71716,390.0905,56,80,0
390.09872,390.28787,57,80,0
390.2961,390.48526,59,80,0
390.49347,390.68262,61,80,0
390.69086,390.87997,54,80,0
390.8882,391.07736,56,80,0
391.08557,391.27472,57,80,0
391.28296,391.47208,42,80,0
391.48032,391.66946,44,80,0
391.67767,391.86682,45,80,0
391.28296,392.0642,47,80,0
391.87506,392.0642,42,80,0
392.07242,392.26157,44,80,0
392.26978,392.45892,45,80,0
392.46716,393.2484,35,80,0
393.65137,393.8405,59,80,0
393.84872,394.03787,63,80,0
394.0461,394.23526,64,80,0
394.24347,394.43262,56,80,0
394.44083,394.62997,57,80,0
394.6382,394.82736,59,80,0
394.83557,395.61682,47,80,0
396.01978,396.20892,56,80,0
396.01978,396.4063,59,80,0
396.21716,396.4063,57,80,0
396.41452,396.60367,59,80,0
396.61188,396.80103,52,80,0
396.80927,396.9984,54,80,0
397.00662,397.19577,56,80,0
397.20398,397.98523,47,80,0
398.3882,398.57736,54,80,0
398.3882,398.77472,59,80,0
398.58557,398.77472,56,80,0
398.78293,398.97208,57,80,0
398.98032,399.16946,54,80,0
399.17767,399.36682,56,80,0
399.37503,399.56418,57,80,0
399.57242,399.76157,47,80,0
399.76978,399.95892,49,80,0
399.96716,400.15628,51,80,0
400.16452,400.35367,47,80,0
400.36188,400.55103,49,80,0
400.55927,400.7484,51,80,0
400.75662,400.94577,47,80,0
400.95398,401.14313,51,80,0
401.15137,401.3405,52,80,0
401.34872,401.53787,44,80,0
401.54608,401.73523,45,80,0
401.74347,401.93262,47,80,0
401.94083,403.51157,40,80,0
403.51978,403.90628,44,85,0
403.91452,404.30103,42,86,0
404.30927,405.0905,40,88,0
405.09872,405.48523,39,91,0
405.49347,405.87997,39,92,0
405.88818,406.27472,37,93,0
406.28293,406.66943,35,95,0
405.49347,407.06418,45,92,0
406.67767,407.06418,33,96,0
407.07242,407.45892,37,97,0
407.07242,407.45892,49,97,0
407.46713,407.85367,35,99,0
407.46713,407.85367,47,99,0
407.86188,408.64313,33,100,0
407.86188,408.64313,45,100,0
408.65137,409.03787,32,96,0
408.65137,409.03787,44,96,0
409.04608,409.82733,42,93,0
409.04608,409.82733,54,93,0
409.83557,410.22208,40,89,0
409.83557,410.22208,52,89,0
410.2303,410.41943,52,86,0
410.42767,410.61682,54,85,0
410.62503,410.82196,55,84,0
410.2303,411.02744,49,86,0
410.8305,411.02744,52,83,0
411.03598,411.24136,54,82,0
411.03598,411.45563,48,82,0
411.25027,411.45563,55,81,0
411.67004,411.86697,52,80,0
411.87552,412.07245,55,80,0
412.081,412.27792,58,80,0
412.28647,412.4834,55,80,0
412.49197,412.68887,52,80,0
412.69745,412.89435,55,80,0
412.90292,413.09982,52,80,0
413.1084,413.30533,53,80,0
413.31387,413.5108,57,80,0
413.51935,413.71902,58,80,0
411.46457,413.92734,48,80,0
413.7277,413.92734,55,80,0
413.93604,414.35565,48,80,0
414.3646,414.7903,47,80,0
414.79938,415.2513,59,80,0
415.26093,415.46628,49,70,0
415.4752,415.67212,53,70,0
415.4752,415.67212,56,70,0
415.4752,415.67212,59,70,0
415.6807,415.8698,49,70,0
415.87805,416.0672,53,70,0
415.87805,416.0672,56,70,0
415.87805,416.0672,59,70,0
416.0754,416.26456,49,70,0
416.2728,416.4619,53,70,0
416.2728,416.4619,56,70,0
416.2728,416.4619,59,70,0
416.47015,416.6593,49,70,0
416.6675,416.85666,53,70,0
416.6675,416.85666,56,70,0
416.6675,416.85666,59,70,0
416.8649,417.05405,49,70,0
417.06226,417.2514,53,70,0
417.06226,417.2514,56,70,0
417.06226,417.2514,59,70,0
417.2596,417.44876,49,70,0
417.457,417.64615,53,70,0
417.457,417.64615,56,70,0
417.457,417.64615,59,70,0
417.65436,417.8435,49,70,0
417.85175,418.04086,54,70,0
417.85175,418.04086,57,70,0
418.0491,418.23825,49,70,0
418.24646,418.4356,54,70,0
418.24646,418.4356,57,70,0
418.44385,418.63297,49,70,0
418.6412,418.83035,54,70,0
418.6412,418.83035,57,70,0
418.83856,419.0277,47,70,0
419.03595,419.2251,57,70,0
419.03595,419.2251,54,70,0
419.03595,419.2251,51,70,0
419.2333,419.42245,47,70,0
419.43066,419.6198,57,70,0
419.43066,419.6198,54,70,0
419.43066,419.6198,51,70,0
419.62805,419.8172,47,70,0
419.8254,420.01456,57,70,0
419.8254,420.01456,54,70,0
419.8254,420.01456,51,70,0
420.02277,420.2119,47,70,0
420.22015,420.4093,57,70,0
420.22015,420.4093,54,70,0
420.22015,420.4093,51,70,0
420.4175,420.60666,47,70,0
420.6149,420.80402,57,70,0
420.6149,420.80402,54,70,0
420.6149,420.80402,51,70,0
420.81226,421.0014,47,70,0
421.0096,421.19876,57,70,0
421.0096,421.19876,54,70,0
421.0096,421.19876,51,70,0
421.207,421.39615,47,70,0
421.40436,421.5935,56,70,0
421.40436,421.5935,52,70,0
421.6017,421.79086,47,70,0
421.7991,421.98825,56,70,0
421.7991,421.98825,52,70,0
421.99646,422.1856,47,70,0
422.19382,422.38297,56,70,0
422.19382,422.38297,52,70,0
422.3912,422.58035,46,80,0
422.58856,422.7777,55,81,0
422.58856,422.7777,52,81,0
422.58856,422.7777,49,81,0
422.78595,422.97507,46,83,0
422.9833,423.17245,55,85,0
422.9833,423.17245,52,85,0
422.9833,423.17245,49,85,0
423.18066,423.3698,46,87,0
423.37805,423.5672,55,88,0
423.37805,423.5672,52,88,0
423.37805,423.5672,49,88,0
423.5754,423.76456,46,90,0
423.77277,423.9619,55,92,0
423.77277,423.9619,52,92,0
423.77277,423.9619,49,92,0
423.97015,424.1593,46,94,0
424.1675,424.35666,55,95,0
424.1675,424.35666,52,95,0
424.1675,424.35666,49,95,0
424.36487,424.55402,46,97,0
424.56226,424.7514,55,99,0
424.56226,424.7514,52,99,0
424.56226,424.7514,49,99,0
424.7596,424.94876,46,101,0
424.957,425.14612,55,102,0
424.957,425.14612,52,102,0
424.957,425.14612,49,102,0
425.15436,425.3435,46,104,0
425.3517,425.54086,55,106,0
425.3517,425.54086,52,106,0
425.3517,425.54086,49,106,0
425.5491,425.73825,46,108,0
425.74646,425.9356,51,109,0
425.74646,425.9356,55,109,0
425.74646,425.9356,49,109,0
425.94382,426.13297,44,110,0
426.1412,426.33035,56,110,0
426.1412,426.33035,51,110,0
426.1412,426.33035,47,110,0
426.33856,426.5277,44,110,0
426.53592,426.72507,56,110,0
426.53592,426.72507,51,110,0
426.53592,426.72507,47,110,0
426.7333,426.92245,44,110,0
426.93066,427.1198,56,110,0
426.93066,427.1198,51,110,0
426.93066,427.1198,47,110,0
427.12805,427.31717,44,110,0
427.3254,427.51456,55,110,0
427.3254,427.51456,51,110,0
427.3254,427.51456,49,110,0
427.52277,427.7119,44,110,0
427.72015,427.9093,55,110,0
427.72015,427.9093,51,110,0
427.72015,427.9093,49,110,0
427.9175,428.10666,44,110,0
428.11487,428.30402,55,110,0
428.11487,428.30402,51,110,0
428.11487,428.30402,49,110,0
428.31226,428.5014,44,110,0
428.5096,428.69876,56,110,0
428.5096,428.69876,51,110,0
428.5096,428.69876,47,110,0
428.70697,428.89612,44,110,0
428.90436,429.0935,56,110,0
428.90436,429.0935,51,110,0
428.90436,429.0935,47,110,0
429.1017,429.29086,44,110,0
429.2991,429.48822,52,110,0
429.2991,429.48822,56,110,0
429.2991,429.48822,47,110,0
429.49646,429.6856,42,120,0
429.69382,429.88297,45,120,0
429.69382,429.88297,49,120,0
429.69382,429.88297,52,120,0
429.8912,430.08035,42,120,0
430.08856,430.2777,45,120,0
430.08856,430.2777,49,120,0
430.08856,430.2777,52,120,0
430.28592,430.47507,42,120,0
430.4833,430.67245,45,120,0
430.4833,430.67245,49,120,0
430.4833,430.67245,52,120,0
430.68066,430.8698,42,120,0
430.87802,431.06717,45,120,0
430.87802,431.06717,49,120,0
430.87802,431.06717,52,120,0
431.0754,431.26456,42,120,0
431.27277,431.4619,45,120,0
431.27277,431.4619,49,120,0
431.27277,431.4619,52,120,0
431.47015,431.65927,42,120,0
431.6675,431.85666,45,120,0
431.6675,431.85666,49,120,0
431.6675,431.85666,52,120,0
431.86487,432.05402,54,110,0
432.06226,432.2514,56,107,0
432.2596,432.44876,57,103,0
432.45697,432.64612,54,99,0
432.65436,432.8435,56,95,0
431.86487,433.04086,52,110,0
432.8517,433.04086,57,91,0
433.04907,433.23822,51,90,0
433.24646,433.4356,52,90,0
433.44382,433.63297,54,90,0
433.6412,433.83032,51,90,0
433.83856,434.0277,52,90,0
434.03592,434.22507,54,90,0
434.2333,434.42245,51,90,0
434.43066,434.6198,49,90,0
434.62802,434.81717,47,90,0
434.8254,435.01456,45,90,0
435.02277,435.2119,44,90,0
435.22012,435.40927,42,90,0
435.4175,435.60666,52,90,0
435.61487,435.80402,51,90,0
435.81226,436.00137,49,90,0
436.0096,436.19876,47,90,0
436.20697,436.39612,45,90,0
436.40436,436.59348,44,90,0
436.6017,436.79086,47,90,0
436.79907,436.98822,49,90,0
436.99646,437.1856,51,90,0
437.19382,437.38297,52,90,0
437.39117,437.58032,54,90,0
437.58856,437.7777,56,90,0
437.78592,437.97507,52,90,0
437.9833,438.17242,54,90,0
438.18066,438.3698,56,90,0
438.37802,438.56717,52,90,0
438.5754,438.76453,54,90,0
437.78592,438.9619,47,90,0
438.77277,438.9619,56,90,0
438.97012,439.1644,54,90,0
439.17282,439.3671,56,90,0
439.37555,439.5752,57,90,0
439.58386,439.78354,54,90,0
439.7922,439.99756,56,90,0
438.97012,440.21185,47,90,0
440.0065,440.21185,57,90,0
440.22076,440.82864,35,90,0
440.42627,441.03412,39,90,0
440.63174,441.23962,42,91,0
440.83722,441.4451,45,92,0
441.0427,441.65057,47,93,0
441.24817,441.85605,51,94,0
441.45364,442.06152,54,94,0
441.86462,442.06152,54,96,0
441.65912,442.267,57,95,0
442.0701,442.67798,51,97,0
442.27557,442.89188,47,98,0
442.48105,443.11536,45,99,0
442.90082,443.11536,35,80,0
442.68652,443.12003,42,99,0
443.1247,443.57663,40,80,0
443.58624,443.7859,49,70,0
443.79456,443.9942,53,70,0
443.79456,443.9942,56,70,0
443.79456,443.9942,59,70,0
444.0029,444.19205,49,70,0
444.20026,444.3894,53,70,0
444.20026,444.3894,56,70,0
444.20026,444.3894,59,70,0
444.39764,444.5868,49,70,0
444.595,444.78415,53,70,0
444.595,444.78415,56,70,0
444.595,444.78415,59,70,0
444.79236,444.9815,49,70,0
444.98975,445.1789,53,70,0
444.98975,445.1789,56,70,0
444.98975,445.1789,59,70,0
445.1871,445.37625,49,70,0
445.38446,445.5736,53,70,0
445.38446,445.5736,56,70,0
445.38446,445.5736,59,70,0
445.58185,445.771,49,70,0
445.7792,445.96835,53,70,0
445.7792,445.96835,56,70,0
445.7792,445.96835,59,70,0
445.9766,446.1657,49,70,0
446.17395,446.3631,53,70,0
446.17395,446.3631,56,70,0
446.17395,446.3631,59,70,0
446.3713,446.56046,49,70,0
446.5687,446.75784,54,70,0
446.5687,446.75784,57,70,0
446.76605,446.9552,49,70,0
446.9634,447.15256,54,70,0
446.9634,447.15256,57,70,0
447.1608,447.34995,49,70,0
447.35815,447.5473,54,70,0
447.35815,447.5473,57,70,0
447.5555,447.74466,47,70,0
447.7529,447.94205,57,70,0
447.7529,447.94205,54,70,0
447.7529,447.94205,51,70,0
447.95026,448.1394,47,70,0
448.14764,448.33676,57,70,0
448.14764,448.33676,54,70,0
448.14764,448.33676,51,70,0
448.345,448.53415,47,70,0
448.54236,448.7315,57,70,0
448.54236,448.7315,54,70,0
448.54236,448.7315,51,70,0
448.73975,448.9289,47,70,0
448.9371,449.12625,57,70,0
448.9371,449.12625,54,70,0
448.9371,449.12625,51,70,0
449.13446,449.3236,47,70,0
449.33185,449.521,57,70,0
449.33185,449.521,54,70,0
449.33185,449.521,51,70,0
449.5292,449.71835,47,70,0
449.72656,449.9157,57,70,0
449.72656,449.9157,54,70,0
449.72656,449.9157,51,70,0
449.92395,450.1131,47,70,0
450.1213,450.31046,56,70,0
450.1213,450.31046,52,70,0
450.3187,450.5078,47,70,0
450.51605,450.7052,56,70,0
450.51605,450.7052,52,70,0
450.7134,450.90256,47,70,0
450.9108,451.09995,56,70,0
450.9108,451.09995,52,70,0
451.10815,451.2973,46,80,0
451.3055,451.49466,55,81,0
451.3055,451.49466,52,81,0
451.3055,451.49466,49,81,0
451.5029,451.69205,46,83,0
451.70026,451.8894,55,85,0
451.70026,451.8894,52,85,0
451.70026,451.8894,49,85,0
451.8976,452.08676,46,87,0
452.095,452.28415,55,88,0
452.095,452.28415,52,88,0
452.095,452.28415,49,88,0
452.29236,452.4815,46,90,0
452.48975,452.67886,55,92,0
452.48975,452.67886,52,92,0
452.48975,452.67886,49,92,0
452.6871,452.87625,46,94,0
452.88446,453.0736,55,95,0
452.88446,453.0736,52,95,0
452.88446,453.0736,49,95,0
453.08185,453.271,46,97,0
453.2792,453.46835,55,99,0
453.2792,453.46835,52,99,0
453.2792,453.46835,49,99,0
453.47656,453.6657,46,101,0
453.67395,453.8631,55,102,0
453.67395,453.8631,52,102,0
453.67395,453.8631,49,102,0
453.8713,454.06046,46,104,0
454.06866,454.2578,55,106,0
454.06866,454.2578,52,106,0
454.06866,454.2578,49,106,0
454.26605,454.4552,46,108,0
454.4634,454.65256,51,109,0
454.4634,454.65256,55,109,0
454.4634,454.65256,49,109,0
454.6608,454.8499,44,110,0
454.85815,455.0473,56,110,0
454.85815,455.0473,51,110,0
454.85815,455.0473,47,110,0
455.0555,455.24466,44,110,0
455.2529,455.44205,56,110,0
455.2529,455.44205,51,110,0
455.2529,455.44205,47,110,0
455.45026,455.6394,44,110,0
455.6476,455.83676,56,110,0
455.6476,455.83676,51,110,0
455.6476,455.83676,47,110,0
455.845,456.03415,44,110,0
456.04236,456.2315,55,110,0
456.04236,456.2315,51,110,0
456.04236,456.2315,49,110,0
456.23972,456.42886,44,110,0
456.4371,456.62625,55,110,0
456.4371,456.62625,51,110,0
456.4371,456.62625,49,110,0
456.63446,456.8236,44,110,0
456.83185,457.02097,55,110,0
456.83185,457.02097,51,110,0
456.83185,457.02097,49,110,0
457.0292,457.21835,44,110,0
457.22656,457.4157,56,110,0
457.22656,457.4157,51,110,0
457.22656,457.4157,47,110,0
457.42395,457.61307,44,110,0
457.6213,457.81046,56,110,0
457.6213,457.81046,51,110,0
457.6213,457.81046,47,110,0
457.81866,458.0078,44,110,0
458.01605,458.2052,52,110,0
458.01605,458.2052,56,110,0
458.01605,458.2052,47,110,0
458.2134,458.40256,42,120,0
458.41077,458.5999,45,120,0
458.41077,458.5999,49,120,0
458.41077,458.5999,52,120,0
458.60815,458.7973,42,120,0
458.8055,458.99466,45,120,0
458.8055,458.99466,49,120,0
458.8055,458.99466,52,120,0
459.0029,459.19202,42,120,0
459.20026,459.3894,45,120,0
459.20026,459.3894,49,120,0
459.20026,459.3894,52,120,0
459.3976,459.58676,42,120,0
459.595,459.78412,45,120,0
459.595,459.78412,49,120,0
459.595,459.78412,52,120,0
459.79236,459.9815,42,120,0
459.98972,460.17886,45,120,0
459.98972,460.17886,49,120,0
459.98972,460.17886,52,120,0
460.1871,460.37625,42,120,0
460.38446,460.5736,45,120,0
460.38446,460.5736,49,120,0
460.38446,460.5736,52,120,0
460.58182,460.77097,54,110,0
460.7792,460.96835,56,107,0
460.97656,461.1657,57,103,0
461.17395,461.36307,54,99,0
461.3713,461.56046,56,95,0
460.58182,461.7578,52,110,0
461.56866,461.7578,57,91,0
461.76605,461.95517,51,90,0
461.9634,462.15256,52,90,0
462.16077,462.3499,54,90,0
462.35815,462.5473,51,90,0
462.5555,462.74466,52,90,0
462.75287,462.94202,54,90,0
462.95026,463.1394,51,90,0
463.1476,463.33676,49,90,0
463.34497,463.53412,47,90,0
463.54236,463.7315,45,90,0
463.73972,463.92886,44,90,0
463.9371,464.12622,42,90,0
464.13446,464.3236,52,90,0
464.33182,464.52097,51,90,0
464.5292,464.71835,49,90,0
464.72656,464.9157,47,90,0
464.92392,465.11307,45,90,0
465.1213,465.31046,44,90,0
465.31866,465.5078,47,90,0
465.51602,465.70517,49,90,0
465.7134,465.90256,51,90,0
465.91077,466.0999,52,90,0
466.10815,466.29727,54,90,0
466.3055,466.49466,56,90,0
466.50287,466.69202,52,90,0
466.70026,466.8894,54,90,0
466.8976,467.08676,56,90,0
467.09497,467.28412,52,90,0
467.29236,467.4815,54,90,0
466.50287,467.67886,47,90,0
467.48972,467.67886,56,90,0
467.68707,467.87622,54,90,0
467.88446,468.0736,56,90,0
468.08182,468.27875,57,90,0
468.2873,468.48422,54,90,0
468.49277,468.69815,56,90,0
467.68707,468.92163,47,90,0
468.70706,468.92163,57,90,0
468.93094,469.56876,35,90,0
469.15482,469.7771,39,90,0
469.3691,469.98544,42,91,0
469.57745,470.19376,45,92,0
469.78577,470.4021,47,93,0
469.9941,470.61044,51,94,0
470.20245,470.81876,54,94,0
470.6191,470.81876,54,96,0
470.41077,471.0271,57,95,0
470.82745,471.46527,51,97,0
471.03577,471.71448,47,98,0
471.2441,471.98624,45,99,0
471.72488,471.98624,35,80,0
471.47488,471.9919,42,99,0
471.99762,472.6504,40,80,0
473.63095,473.92783,40,110,0
473.93094,474.82782,44,110,0
474.83093,475.1278,42,110,0
475.13095,476.02783,45,110,0
476.03094,476.32782,44,110,0
476.33093,477.2278,47,110,0
477.23096,477.52783,45,110,0
477.53094,477.82782,48,110,0
477.83093,478.42783,40,110,0
478.43094,478.57782,42,110,0
478.13095,478.7278,47,110,0
478.58093,478.7278,37,110,0
478.73096,479.02783,39,110,0
479.03094,479.6278,35,110,0
478.73096,479.6278,42,110,0
479.63095,479.92783,44,110,0
479.78094,479.92783,39,110,0
479.93094,480.2278,40,110,0
480.23096,480.52783,35,110,0
480.53094,480.82782,36,110,0
480.83093,481.42783,37,110,0
481.13095,481.42783,49,110,0
481.43094,481.7278,48,110,0
481.73096,482.02783,43,110,0
482.03094,482.32782,41,110,0
481.43094,482.6278,36,110,0
482.33093,482.6278,40,110,0
482.63095,482.92783,35,110,0
482.63095,482.92783,42,110,0
483.08093,483.2278,35,110,0
483.23096,483.3778,37,110,0
483.38095,483.52783,39,110,0
483.53094,483.67783,40,110,0
483.68094,483.82782,42,110,0
483.83093,483.9778,44,110,0
483.98096,484.1278,40,110,0
484.13095,484.27783,42,110,0
484.28094,484.42783,35,110,0
484.43094,484.57782,39,110,0
484.58093,484.7278,40,110,0
484.73096,484.8778,42,110,0
484.88095,485.02783,44,110,0
485.03094,485.17783,45,110,0
485.18094,485.32782,42,110,0
485.33093,485.4778,47,110,0
485.48096,485.6278,51,110,0
485.63095,485.77783,52,110,0
485.78094,485.92783,54,110,0
485.93094,486.52783,56,110,0
485.93094,486.82782,64,110,0
486.83093,486.9778,66,110,0
486.53094,487.1278,54,110,0
486.98096,487.1278,61,110,0
487.13095,487.42783,63,110,0
487.13095,487.7278,57,110,0
487.43094,488.02783,59,110,0
488.03094,488.17783,68,110,0
487.73096,488.32782,56,110,0
488.18094,488.32782,63,110,0
488.33093,488.6278,64,110,0
488.33093,488.92783,59,110,0
488.63095,488.92783,62,110,0
488.93094,489.2278,60,110,0
489.23096,489.3778,69,110,0
488.93094,489.52783,57,110,0
489.38095,489.52783,64,110,0
489.53094,489.82782,65,110,0
489.83093,490.1278,64,110,0
489.53094,490.42783,60,110,0
490.13095,490.42783,62,110,0
490.43094,490.57782,71,110,0
490.58093,490.7278,66,110,0
490.43094,491.02783,59,110,0
490.73096,491.02783,67,110,0
491.03094,491.32782,65,110,0
491.03094,491.32782,55,110,0
491.33093,491.4778,64,110,0
491.48096,491.6278,65,110,0
491.63095,491.77783,67,110,0
491.78094,491.92783,65,110,0
491.33093,492.2278,60,110,0
491.93094,492.2278,64,110,0
492.23096,492.52783,66,110,0
492.23096,492.52783,59,110,0
492.53094,493.1278,59,110,0
493.13095,494.02783,50,110,0
494.03094,494.17783,49,110,0
494.18094,494.32782,47,110,0
494.33093,494.6278,45,110,0
494.63095,495.07782,42,110,0
495.08093,495.2278,32,110,0
495.23096,495.3778,34,110,0
495.38095,495.52783,36,110,0
495.53094,495.67783,37,110,0
495.68094,495.82782,39,110,0
495.83093,495.9778,40,110,0
495.98096,496.1278,37,110,0
496.13095,496.42783,39,110,0
496.43094,496.57782,51,110,0
496.58093,496.7278,49,110,0
496.73096,497.02783,47,110,0
497.03094,497.4778,44,110,0
497.48096,497.6278,42,110,0
497.63095,497.77783,51,110,0
497.33093,497.92783,54,110,0
497.78094,497.92783,53,110,0
497.93094,498.07782,54,110,0
498.08093,498.2278,49,110,0
498.23096,498.3778,54,110,0
498.38095,498.52783,52,110,0
498.53094,498.67783,51,110,0
497.93094,498.82782,57,110,0
498.68094,498.82782,47,110,0
498.83093,498.9778,49,110,0
498.98096,499.1278,51,110,0
499.13095,499.27783,52,110,0
499.28094,499.42783,47,110,0
499.43094,499.57782,49,110,0
499.58093,499.7278,46,110,0
499.73096,500.32782,47,110,0
500.33093,500.6278,35,110,0
500.63095,501.52783,33,110,0
501.53094,501.82782,32,110,0
501.83093,502.42783,52,110,0
502.43094,502.57782,50,110,0
502.58093,502.7278,49,110,0
502.73096,502.8778,47,110,0
502.88095,503.02783,50,110,0
503.03094,503.17783,42,110,0
503.18094,503.32782,42,110,0
503.33093,503.4778,41,110,0
503.48096,503.6278,49,110,0
503.63095,503.77783,41,110,0
503.78094,503.92783,41,110,0
503.93094,504.07782,42,110,0
504.08093,504.2278,54,110,0
504.23096,504.3778,49,110,0
504.38095,504.52783,49,110,0
504.53094,504.67783,48,110,0
504.68094,504.82782,51,110,0
504.83093,504.9778,44,110,0
504.98096,505.1278,44,110,0
505.13095,505.27783,49,110,0
505.28094,505.42783,52,110,0
505.43094,505.57782,44,110,0
505.58093,505.7278,44,110,0
505.73096,505.8778,43,110,0
505.88095,506.02783,55,110,0
506.03094,506.17783,51,110,0
506.18094,506.32782,51,110,0
506.33093,506.4778,44,110,0
506.48096,506.6278,56,110,0
506.63095,506.77783,44,110,0
506.78094,507.2278,44,110,0
507.23096,507.3778,42,110,0
507.38095,507.52783,40,110,0
507.53094,507.82782,39,110,0
507.83093,508.42783,48,110,0
508.43094,508.57782,47,110,0
508.58093,508.7278,45,110,0
508.73096,509.02783,44,110,0
509.03094,509.17783,64,110,0
509.03094,509.6278,56,110,0
509.18094,509.6278,64,110,0
509.63095,509.77783,54,110,0
509.63095,509.77783,63,110,0
509.78094,509.92783,52,110,0
509.78094,509.92783,61,110,0
509.93094,510.2278,51,110,0
509.93094,510.2278,59,110,0
510.23096,510.52783,47,110,0
510.23096,510.52783,51,110,0
510.53094,510.67783,49,110,0
510.53094,510.67783,52,110,0
510.68094,510.82782,47,110,0
510.68094,510.82782,51,110,0
510.83093,510.9778,49,110,0
510.83093,510.9778,52,110,0
510.98096,511.1278,51,110,0
510.98096,511.1278,54,110,0
511.13095,511.27783,52,110,0
511.28094,511.42783,47,110,0
511.43094,511.57782,40,110,0
511.58093,512.02783,52,110,0
512.03094,512.1778,50,80,0
512.18097,512.3278,49,80,0
512.33093,512.47784,47,80,0
512.48096,512.6278,50,80,0
512.6309,512.77783,42,80,0
512.78094,512.9278,42,80,0
512.93097,513.0778,41,80,0
513.08093,513.22784,49,80,0
513.23096,513.3778,41,80,0
513.3809,513.52783,41,80,0
513.53094,513.6778,42,80,0
513.68097,513.8278,54,80,0
513.83093,513.97784,49,80,0
513.98096,514.1278,49,80,0
514.1309,514.27783,48,80,0
514.28094,514.4278,51,80,0
514.43097,514.5778,44,80,0
514.58093,514.72784,44,80,0
514.73096,514.8778,49,80,0
514.8809,515.02783,52,80,0
515.03094,515.1778,44,80,0
515.18097,515.3278,44,80,0
515.33093,515.47784,43,80,0
515.48096,515.6278,55,80,0
515.6309,515.77783,51,80,0
515.78094,515.9278,51,80,0
515.93097,516.0778,44,80,0
516.08093,516.22784,56,80,0
516.23096,516.3778,44,80,0
516.3809,516.8308,44,80,0
516.834,516.98236,42,80,0
516.9855,517.13385,40,80,0
517.137,517.4369,39,80,0
517.44,518.04724,48,80,0
518.04724,518.1979,47,80,0
518.2011,518.35175,45,80,0
518.355,518.6594,44,80,0
518.66266,518.8133,64,80,0
518.66266,519.27484,56,80,0
518.81647,519.27484,64,80,0
519.278,519.42865,54,80,0
519.278,519.42865,63,80,0
519.4319,519.5825,52,80,0
519.4319,519.5825,61,80,0
519.5857,519.8902,51,80,0
519.5857,519.8902,59,80,0
519.89343,520.1979,47,80,0
519.89343,520.1979,51,80,0
520.2011,520.36896,49,80,0
520.2011,520.36896,52,80,0
520.37256,520.5404,47,80,0
520.37256,520.5404,51,80,0
520.54395,520.7118,49,80,0
520.54395,520.7118,52,80,0
520.7154,520.88324,51,80,0
520.7154,520.88324,54,80,0
520.88684,521.1316,52,80,0
520.88684,521.1316,56,80,0
521.13684,521.3816,44,80,0
521.38684,521.68054,45,80,0
521.6868,522.1764,47,80,0
522.1868,523.03503,40,80,0
522.1868,523.03503,47,80,0
523.04395,523.89215,44,80,0
523.04395,523.89215,47,80,0
523.9011,524.7493,42,80,0
523.9011,524.7493,47,80,0
524.75824,525.60645,45,80,0
524.75824,525.60645,47,80,0
525.61536,526.4636,42,80,0
525.61536,526.4636,47,80,0
526.47253,527.32074,44,80,0
526.47253,527.32074,47,80,0
527.32965,527.7493,47,80,0
527.32965,528.17786,40,80,0
527.75824,528.17786,47,80,0
528.1868,528.60645,47,80,0
528.1868,529.03503,44,80,0
528.61536,529.03503,47,80,0
529.04395,529.4636,42,80,0
529.04395,529.4636,47,80,0
529.47253,529.89215,40,80,0
529.47253,529.89215,47,80,0
529.9011,530.32074,47,80,0
529.9011,530.7493,39,80,0
530.32965,530.7493,47,80,0
530.75824,531.17786,47,80,0
530.75824,531.60645,37,80,0
531.1868,531.60645,47,80,0
531.61536,532.03503,35,80,0
531.61536,532.03503,47,80,0
532.04395,532.46356,45,80,0
532.04395,532.46356,47,80,0
532.47253,532.78174,47,80,0
532.7883,533.09753,47,80,0
532.47253,533.4133,44,80,0
533.1041,533.4133,47,80,0
533.41986,533.7291,47,80,0
533.73566,534.04486,46,80,0
533.41986,534.36066,44,80,0
534.05145,534.36066,47,80,0
534.36725,534.67645,47,80,0
534.68304,534.99225,47,80,0
534.36725,535.30804,45,80,0
534.99884,535.30804,47,80,0
535.31464,535.46594,47,80,0
535.47253,535.62384,49,80,0
535.63043,535.78174,47,80,0
535.7883,535.93964,49,80,0
535.9462,536.09753,47,80,0
535.31464,536.25543,42,80,0
536.10406,536.25543,49,80,0
536.26196,536.4133,47,80,0
536.41986,536.5712,49,80,0
536.57776,536.72906,47,80,0
536.73566,536.88696,49,80,0
536.89355,537.04486,47,80,0
536.26196,537.20276,39,80,0
537.05145,537.20276,49,80,0
537.20935,537.36066,47,80,0
537.36725,537.51855,49,80,0
537.52515,537.67645,47,80,0
537.68304,537.83435,49,80,0
537.84094,537.99225,47,80,0
537.20935,538.15015,42,80,0
537.99884,538.15015,49,80,0
538.15674,538.30804,47,80,0
538.15674,538.46594,40,80,0
538.31464,538.46594,54,80,0
538.47253,538.62384,52,80,0
538.63043,538.78174,54,80,0
538.7883,538.93964,52,80,0
538.94617,539.09753,54,80,0
539.10406,539.25543,52,80,0
539.26196,539.41327,54,80,0
539.41986,539.57117,52,80,0
539.57776,539.72906,54,80,0
539.73566,539.88696,52,80,0
539.89355,540.04486,54,80,0
540.05145,540.20276,52,80,0
540.20935,540.36066,54,80,0
540.36725,540.51855,52,80,0
539.10406,540.67645,49,80,0
540.52515,540.67645,54,80,0
540.68304,540.83435,52,80,0
540.68304,540.99225,48,80,0
540.84094,540.99225,54,80,0
540.99884,541.15015,55,80,0
541.15674,541.30804,52,80,0
541.31464,541.46594,55,80,0
541.47253,541.62384,52,80,0
541.6304,541.78174,55,80,0
540.99884,541.93964,48,80,0
541.78827,541.93964,52,80,0
541.94617,542.09753,43,80,0
542.10406,542.2554,40,80,0
542.26196,542.41327,43,80,0
542.41986,542.57117,40,80,0
542.57776,542.72906,43,80,0
541.94617,542.88696,36,80,0
542.73566,542.88696,40,80,0
542.89355,542.9852,35,70,0
542.9935,543.0852,47,70,0
543.09357,543.18524,35,70,0
543.19354,543.2852,47,70,0
543.2936,543.38525,35,70,0
543.39355,543.4852,47,70,0
543.4935,543.5852,35,70,0
543.59357,543.68524,47,71,0
543.69354,543.7852,47,71,0
543.7936,543.88525,49,71,0
543.89355,543.9852,47,71,0
543.69354,544.0852,40,85,0
543.9935,544.0852,49,71,0
544.09357,544.18524,47,71,0
544.19354,544.2852,49,71,0
544.2936,544.38525,47,72,0
544.09357,544.4852,44,83,0
544.39355,544.4852,49,72,0
544.4935,544.5852,47,72,0
544.59357,544.68524,49,72,0
544.69354,544.7852,47,72,0
544.4935,544.88525,44,88,0
544.7936,544.88525,49,72,0
544.89355,544.9852,47,73,0
544.9935,545.0852,49,73,0
545.09357,545.18524,47,73,0
544.89355,545.2852,40,89,0
545.19354,545.2852,49,73,0
545.2936,545.38525,47,73,0
545.39355,545.4852,49,73,0
545.4935,545.5852,47,73,0
545.2936,545.68524,40,84,0
545.59357,545.68524,49,74,0
545.69354,545.7852,47,74,0
545.7936,545.88525,49,74,0
545.89355,545.9852,47,74,0
545.69354,546.0852,39,87,0
545.9935,546.0852,49,74,0
546.09357,546.18524,47,74,0
546.19354,546.2852,49,74,0
546.2936,546.38525,47,75,0
546.09357,546.4852,39,88,0
546.39355,546.4852,49,75,0
546.4935,546.5852,47,75,0
546.59357,546.68524,49,75,0
546.69354,546.7852,47,75,0
546.4935,546.88525,45,87,0
546.7936,546.88525,49,75,0
546.89355,546.9852,47,76,0
546.9935,547.0852,49,76,0
547.09357,547.18524,47,76,0
546.89355,547.2852,45,94,0
547.19354,547.2852,49,76,0
547.2936,547.38525,47,76,0
547.39355,547.4852,49,76,0
547.4935,547.5852,47,76,0
547.2936,547.68524,44,91,0
547.59357,547.68524,49,77,0
547.69354,547.7852,47,77,0
547.7936,547.88525,49,77,0
547.89355,547.9852,47,77,0
547.69354,548.0852,44,90,0
547.9935,548.0852,49,77,0
548.09357,548.18524,47,77,0
548.19354,548.2852,49,77,0
548.2936,548.38525,47,78,0
548.09357,548.4852,42,89,0
548.39355,548.4852,49,78,0
548.4935,548.5852,47,78,0
548.59357,548.68524,49,78,0
548.69354,548.7852,47,78,0
548.4935,548.88525,40,91,0
548.7936,548.88525,49,78,0
548.89355,548.9852,47,79,0
548.9935,549.0852,49,79,0
549.09357,549.18524,47,79,0
548.89355,549.2852,44,100,0
549.19354,549.2852,49,79,0
549.2936,549.38525,47,79,0
549.39355,549.4852,49,79,0
549.4935,549.5852,47,79,0
549.2936,549.68524,44,96,0
549.59357,549.68524,49,80,0
549.69354,549.7852,47,80,0
549.7936,549.88525,49,80,0
549.89355,549.9852,47,80,0
549.69354,550.0852,40,93,0
549.9935,550.0852,49,80,0
550.09357,550.18524,47,80,0
550.19354,550.2852,49,80,0
550.2936,550.38525,47,81,0
550.09357,550.4852,40,80,0
550.39355,550.4852,49,81,0
550.4935,550.5852,47,81,0
550.59357,550.68524,49,81,0
550.69354,550.7852,47,81,0
550.4935,550.88525,39,81,0
550.7936,550.88525,49,81,0
550.89355,550.9852,47,82,0
550.9935,551.0852,49,82,0
551.09357,551.18524,47,82,0
550.89355,551.2852,39,99,0
551.19354,551.2852,49,82,0
551.2936,551.38525,47,82,0
551.39355,551.4852,49,82,0
551.4935,551.5852,47,82,0
551.2936,551.68524,39,97,0
551.59357,551.68524,49,83,0
551.69354,551.7852,47,83,0
551.7936,551.88525,49,83,0
551.89355,551.9852,47,83,0
551.69354,552.0852,37,97,0
551.9935,552.0852,49,83,0
552.09357,552.18524,47,83,0
552.19354,552.2852,49,83,0
552.2936,552.38525,47,84,0
552.09357,552.4852,37,96,0
552.39355,552.4852,49,84,0
552.4935,552.6185,47,65,0
552.56024,552.68524,49,65,0
552.4935,552.7519,35,90,0
552.6269,552.7519,47,65,0
552.69354,552.81854,49,65,0
552.76025,552.88525,47,65,0
552.8269,552.9519,49,66,0
552.76025,553.01855,45,90,0
552.89355,553.01855,47,66,0
552.9602,553.0852,49,66,0
553.0269,553.1519,47,66,0
553.09357,553.21857,49,66,0
553.0269,553.2852,45,91,0
553.1602,553.2852,47,67,0
553.22687,553.35187,49,67,0
553.2936,553.4186,47,67,0
553.3602,553.4852,49,67,0
553.2936,553.5519,44,92,0
553.4269,553.5519,47,67,0
553.4935,553.6185,49,68,0
553.56024,553.68524,47,68,0
553.6269,553.7519,49,68,0
553.56024,553.81854,44,93,0
553.69354,553.81854,47,68,0
553.76025,553.88525,49,68,0
553.8269,553.9519,47,69,0
553.89355,554.01855,49,69,0
553.8269,554.0852,44,93,0
553.9602,554.0852,47,69,0
554.0269,554.1519,49,69,0
554.09357,554.21857,47,70,0
554.1602,554.2852,49,70,0
554.09357,554.35187,44,94,0
554.22687,554.35187,47,70,0
554.2936,554.4186,49,70,0
554.3602,554.4852,47,70,0
554.4269,554.5519,49,71,0
554.3602,554.6185,44,95,0
554.4935,554.6185,47,71,0
554.56024,554.68524,49,71,0
554.6269,554.7519,47,71,0
554.69354,554.81854,49,71,0
554.6269,554.88525,44,96,0
554.76025,554.88525,47,72,0
554.8269,554.9519,49,72,0
554.89355,555.01855,47,72,0
554.9602,555.0852,49,72,0
554.89355,555.1519,44,97,0
555.0269,555.1519,47,72,0
555.09357,555.21857,49,73,0
555.1602,555.2852,47,73,0
555.22687,555.35187,49,73,0
555.1602,555.4186,45,97,0
555.2936,555.4186,47,73,0
555.3602,555.4852,49,74,0
555.4269,555.5519,47,74,0
555.4935,555.6185,49,74,0
555.4269,555.68524,45,98,0
555.56024,555.68524,47,74,0
555.6269,555.7519,49,74,0
555.69354,555.81854,47,75,0
555.76025,555.88525,49,75,0
555.69354,555.9519,45,99,0
555.8269,555.9519,47,75,0
555.89355,556.01855,49,75,0
555.9602,556.0852,47,75,0
556.0269,556.1519,49,76,0
555.9602,556.21857,42,100,0
556.09357,556.21857,47,76,0
556.1602,556.2852,49,76,0
556.22687,556.35187,47,76,0
556.2936,556.4186,49,76,0
556.22687,556.4852,42,101,0
556.3602,556.4852,47,77,0
556.4269,556.5519,49,77,0
556.4935,556.6185,47,77,0
556.56024,556.68524,49,77,0
556.4935,556.7519,42,101,0
556.6269,556.7519,47,78,0
556.69354,556.81854,49,78,0
556.76025,556.88525,47,78,0
556.8269,556.9519,49,78,0
556.76025,557.01855,39,102,0
556.89355,557.01855,47,78,0
556.9602,557.0852,49,79,0
557.0269,557.1519,47,79,0
557.09357,557.21857,49,79,0
557.0269,557.2852,39,103,0
557.1602,557.2852,47,79,0
557.22687,557.35187,49,79,0
557.2936,557.4186,47,80,0
557.3602,557.4852,49,80,0
557.2936,557.5519,39,104,0
557.4269,557.5519,47,80,0
557.4935,557.6185,49,80,0
557.56024,557.68524,47,80,0
557.6269,557.7519,49,81,0
557.56024,557.81854,37,104,0
557.69354,557.81854,47,81,0
557.76025,557.88525,49,81,0
557.8269,557.9519,47,81,0
557.89355,558.01855,49,82,0
557.8269,558.0852,39,105,0
557.9602,558.0852,47,82,0
558.0269,558.1519,49,82,0
558.09357,558.21857,47,82,0
558.1602,558.2852,49,82,0
558.09357,558.35187,39,106,0
558.22687,558.35187,47,83,0
558.2936,558.4186,49,83,0
558.3602,558.4852,47,83,0
558.4269,558.5519,49,83,0
558.3602,558.6185,40,107,0
558.4935,558.6185,47,83,0
558.56024,558.68524,49,84,0
558.6269,558.7519,47,84,0
558.69354,558.81854,49,84,0
558.6269,558.88525,40,108,0
558.76025,558.88525,47,84,0
558.8269,558.88525,49,84,0
558.89355,559.01855,52,80,0
558.9602,559.0852,54,80,0
559.0269,559.1519,52,80,0
559.09357,559.21857,54,80,0
559.1602,559.2852,52,80,0
559.22687,559.35187,54,80,0
559.1602,559.4186,49,109,0
559.2936,559.4186,52,80,0
559.3602,559.4852,54,80,0
559.4269,559.5519,52,80,0
559.4935,559.6185,54,80,0
559.4269,559.68524,49,110,0
559.56024,559.68524,52,80,0
559.6269,559.7519,54,80,0
559.69354,559.81854,52,80,0
559.76025,559.88525,54,80,0
559.69354,559.9519,49,111,0
559.8269,559.9519,52,80,0
559.89355,560.01855,54,80,0
559.9602,560.0852,52,80,0
560.0269,560.1519,54,80,0
559.9602,560.21857,48,112,0
560.09357,560.21857,52,80,0
560.1602,560.2852,54,80,0
560.22687,560.35187,52,80,0
560.2936,560.4186,54,80,0
560.22687,560.4852,49,112,0
560.3602,560.4852,52,80,0
560.4269,560.5519,54,80,0
560.4935,560.6185,52,80,0
560.56024,560.68524,54,80,0
560.4935,560.7519,49,113,0
560.6269,560.7519,52,80,0
560.69354,560.81854,54,80,0
560.76025,560.88525,52,80,0
560.8269,560.9519,54,80,0
560.76025,561.01855,48,114,0
560.89355,561.01855,52,80,0
560.9602,561.0852,54,80,0
561.0269,561.1519,52,80,0
561.09357,561.21857,54,80,0
561.0269,561.2852,49,115,0
561.1602,561.2852,52,80,0
561.22687,561.3543,54,80,0
561.2936,561.42377,52,80,0
561.363,561.4932,54,80,0
561.2936,561.5627,49,116,0
561.43243,561.5627,52,80,0
561.5019,561.6321,54,80,0
561.57135,561.70154,52,80,0
561.6408,561.7727,54,80,0
561.57135,561.8442,48,116,0
561.7102,561.8442,52,80,0
561.7817,561.9156,54,80,0
561.8531,561.987,52,80,0
561.9245,562.0584,54,80,0
561.8531,562.1299,48,117,0
561.9959,562.1299,52,80,0
562.0674,562.1299,54,80,0
562.1388,562.2767,35,100,0
562.21234,562.3502,37,100,0
562.2858,562.4237,35,100,0
562.3594,562.49725,37,100,0
562.4329,562.5708,35,100,0
562.5065,562.6473,37,100,0
562.57996,562.7242,35,100,0
562.6569,562.80115,37,100,0
562.7338,562.88367,35,100,0
562.8107,562.967,37,100,0
562.89404,563.0503,35,100,0
562.9774,563.12805,37,100,0
563.0607,563.20496,35,100,0
563.13763,563.2819,37,100,0
563.2146,563.354,35,100,0
563.2915,563.4254,37,100,0
563.3629,563.4969,35,100,0
563.4344,563.56415,37,100,0
563.5058,563.6308,35,100,0
563.57245,563.69745,37,100,0
563.6391,563.7641,35,100,0
563.7058,563.8308,37,100,0
563.77246,563.89746,35,100,0
563.8391,563.9641,37,100,0
563.9058,564.0308,35,100,0
563.9725,564.0975,37,100,0
564.0391,564.1641,35,100,0
564.1058,564.2308,37,100,0
564.1725,564.2975,35,100,0
564.23914,564.36414,37,100,0
564.3058,564.4308,35,100,0
564.37244,564.49744,37,100,0
564.43915,564.56415,35,100,0
564.5058,564.6308,37,100,0
564.57245,564.69745,35,100,0
564.6391,564.7641,37,100,0
564.7058,564.8308,35,100,0
564.77246,564.89746,37,100,0
564.8391,564.9641,35,100,0
564.9058,565.0308,37,100,0
564.9725,565.0975,35,100,0
565.0391,565.1641,37,100,0
565.1058,565.2308,35,100,0
565.1725,565.2975,37,100,0
565.23914,565.36414,35,100,0
565.3058,565.4308,37,100,0
565.37244,565.49744,35,100,0
565.43915,565.56415,37,100,0
565.5058,565.6308,35,100,0
565.57245,565.69745,37,100,0
565.6391,565.7641,35,100,0
565.7058,565.8308,37,100,0
565.77246,565.89746,35,100,0
565.8391,565.9641,37,100,0
565.9058,566.0308,35,100,0
565.9725,566.0975,37,100,0
566.0391,566.1641,35,100,0
566.1058,566.2308,37,100,0
566.1725,566.2975,35,100,0
566.23914,566.36414,37,100,0
566.3058,566.4308,35,100,0
566.37244,566.49744,37,100,0
566.43915,566.56415,35,100,0
566.5058,566.6308,37,100,0
566.57245,566.69745,35,100,0
566.6391,566.7641,37,100,0
566.7058,566.8308,35,100,0
566.77246,566.89746,37,100,0
566.8391,566.9641,35,100,0
566.9058,567.0308,37,100,0
566.9725,567.0975,35,100,0
567.0391,567.1641,37,100,0
567.1058,567.2308,35,100,0
567.1725,567.2975,37,100,0
567.23914,567.36414,35,100,0
567.3058,567.4308,37,100,0
567.37244,567.49744,35,100,0
567.43915,567.56415,37,100,0
567.5058,567.6308,35,100,0
567.57245,567.69745,37,100,0
567.6391,567.7641,35,100,0
567.7058,567.8308,37,100,0
567.77246,567.89746,35,100,0
567.8391,567.9641,37,100,0
567.9058,568.0308,35,100,0
567.9725,568.0975,37,100,0
568.0391,568.1641,35,100,0
568.1058,568.2308,37,100,0
568.1725,568.2975,35,100,0
568.23914,568.36414,37,100,0
568.3058,568.4308,35,100,0
568.37244,568.49744,37,100,0
568.43915,568.56415,35,100,0
568.5058,568.6308,37,100,0
568.57245,568.69745,35,100,0
568.6391,568.7641,37,100,0
568.7058,568.8308,35,100,0
568.77246,568.89746,37,100,0
568.8391,568.9641,35,100,0
568.9058,569.0308,37,100,0
568.9725,569.0975,35,100,0
569.0391,569.1641,37,100,0
569.1058,569.2308,35,100,0
569.1725,569.2975,37,100,0
569.23914,569.36414,35,100,0
569.3058,569.4308,37,100,0
569.37244,569.49744,35,100,0
569.43915,569.56415,37,100,0
569.5058,569.6308,35,100,0
569.57245,569.69745,37,100,0
569.6391,569.7641,35,100,0
569.7058,569.8308,37,100,0
569.77246,569.89746,35,100,0
569.8391,569.9641,37,100,0
569.9058,570.0308,35,100,0
569.9725,570.0975,37,100,0
570.0391,570.1641,35,100,0
570.1058,570.2308,37,100,0
570.1725,570.2975,35,100,0
570.23914,570.36414,37,100,0
570.3058,570.4308,35,100,0
570.37244,570.49744,37,100,0
570.43915,570.56415,35,100,0
570.5058,570.6308,37,100,0
570.57245,570.69745,35,100,0
570.6391,570.7641,37,100,0
570.7058,570.8308,35,100,0
570.77246,570.89746,37,100,0
570.8391,570.9641,35,100,0
570.9058,571.0308,37,100,0
570.9725,571.0975,35,100,0
571.0391,571.1641,37,100,0
571.1058,571.2308,35,100,0
571.1725,571.2975,37,100,0
571.23914,571.36414,35,100,0
571.3058,571.4308,37,100,0
571.37244,571.49744,35,100,0
571.43915,571.56415,37,100,0
571.5058,571.6308,35,100,0
571.57245,571.69745,37,100,0
571.6391,571.7641,35,100,0
571.7058,571.8308,37,100,0
571.77246,571.89746,35,100,0
571.8391,571.9641,37,100,0
571.9058,572.0308,35,100,0
571.9725,572.0975,37,100,0
572.0391,572.1641,35,100,0
572.1058,572.2308,37,100,0
572.1725,572.2975,35,100,0
572.23914,572.36414,37,100,0
572.3058,572.4308,35,100,0
572.37244,572.49744,37,100,0
572.43915,572.56415,35,100,0
572.5058,572.6308,37,100,0
572.57245,572.69745,35,100,0
572.6391,572.7641,37,100,0
572.7058,572.8308,35,100,0
572.77246,572.89746,37,100,0
572.8391,572.9641,35,100,0
572.9058,573.0308,37,100,0
572.9725,573.0975,35,100,0
573.0391,573.1641,37,100,0
573.1058,573.2308,35,100,0
573.1725,573.2975,37,100,0
573.23914,573.36414,35,100,0
573.3058,573.4308,37,100,0
573.37244,573.49744,35,100,0
573.43915,573.56415,37,100,0
573.5058,573.6308,35,100,0
573.57245,573.69745,37,100,0
573.6391,573.7641,35,100,0
573.7058,573.8308,37,100,0
573.77246,573.89746,35,100,0
573.8391,573.9641,37,100,0
573.9058,574.0308,35,100,0
573.9725,574.0975,37,100,0
574.0391,574.1641,35,100,0
574.1058,574.2308,37,100,0
574.1725,574.2975,35,100,0
574.23914,574.36414,37,100,0
574.3058,574.4308,35,100,0
574.37244,574.49744,37,100,0
574.43915,574.56415,35,100,0
574.5058,574.6308,37,100,0
574.57245,574.69745,35,100,0
574.6391,574.7641,37,100,0
574.7058,574.8308,35,100,0
574.77246,574.89746,37,100,0
574.8391,574.9641,35,100,0
574.9058,575.0308,37,100,0
574.9725,575.0975,35,100,0
575.0391,575.1641,37,100,0
575.1058,575.2308,35,100,0
575.1725,575.2975,37,100,0
575.23914,575.36414,35,100,0
575.3058,575.4308,37,100,0
575.37244,575.49744,35,100,0
575.43915,575.56415,37,100,0
575.5058,575.6308,35,100,0
575.57245,575.69745,37,100,0
575.6391,575.7641,35,100,0
575.7058,575.8308,37,100,0
575.77246,575.89746,35,100,0
575.8391,575.9641,37,100,0
575.9058,576.0308,35,100,0
575.9725,576.0975,37,100,0
576.0391,576.1641,35,100,0
576.1058,576.2308,37,100,0
576.1725,576.2975,35,100,0
576.23914,576.36414,37,100,0
576.3058,576.4308,35,100,0
576.37244,576.49744,37,100,0
576.43915,576.56415,35,100,0
576.5058,576.6308,37,100,0
576.57245,576.69745,35,100,0
576.6391,576.7641,37,100,0
576.7058,576.8308,35,100,0
576.77246,576.89746,37,100,0
576.8391,576.9641,35,100,0
576.9058,577.0308,37,100,0
576.9725,577.0975,35,100,0
577.0391,577.1641,37,100,0
577.1058,577.2308,35,100,0
577.1725,577.2975,37,100,0
577.23914,577.36414,35,100,0
577.3058,577.4308,37,100,0
577.37244,577.49744,35,100,0
577.43915,577.56415,37,100,0
577.5058,577.6308,35,100,0
577.57245,577.69745,37,100,0
577.6391,577.7641,35,100,0
577.7058,577.8308,37,100,0
577.77246,577.89746,35,100,0
577.8391,577.9641,37,100,0
577.9058,578.0308,35,100,0
577.9725,578.0975,37,100,0
578.0391,578.1641,35,100,0
578.1058,578.2308,37,100,0
578.1725,578.2975,35,100,0
578.23914,578.36414,37,100,0
578.3058,578.4308,35,100,0
578.37244,578.49744,37,100,0
578.43915,578.56415,35,100,0
578.5058,578.6308,37,100,0
578.57245,578.69745,35,100,0
578.6391,578.7641,37,100,0
578.7058,578.8308,35,100,0
578.77246,578.89746,37,100,0
578.8391,578.9641,35,100,0
578.9058,579.0308,37,100,0
578.9725,579.0975,35,100,0
579.0391,579.1641,37,100,0
579.1058,579.2308,35,100,0
579.1725,579.2975,37,100,0
579.23914,579.36414,35,100,0
579.3058,579.4308,37,100,0
579.37244,579.49744,35,100,0
579.43915,579.56415,37,100,0
579.5058,579.6308,35,100,0
579.57245,579.69745,37,100,0
579.6391,579.7641,35,100,0
579.7058,579.8308,37,100,0
579.77246,579.89746,35,100,0
579.8391,579.9641,37,100,0
579.9058,580.0308,35,100,0
579.9725,580.0975,37,100,0
580.0391,580.1641,35,100,0
580.1058,580.2308,37,100,0
580.1725,580.2975,35,100,0
580.23914,580.36414,37,100,0
580.3058,580.4308,35,100,0
580.37244,580.49744,37,100,0
580.43915,580.56415,35,100,0
580.5058,580.6308,37,100,0
580.57245,580.69745,35,100,0
580.6391,580.7641,37,100,0
580.7058,580.8308,35,100,0
580.77246,580.89746,37,100,0
580.8391,580.9641,35,100,0
580.9058,581.0308,37,100,0
580.9725,581.0975,35,100,0
581.0391,581.1641,37,100,0
581.1058,581.2308,35,100,0
581.1725,581.2975,37,100,0
581.23914,581.36414,35,100,0
581.3058,581.4308,37,100,0
581.37244,581.49744,35,100,0
581.43915,581.56415,39,100,0
581.5058,581.5975,40,80,0
581.6058,581.69745,59,80,0
581.7058,581.7975,61,80,0
581.8058,581.89746,63,80,0
581.9058,581.99744,64,80,0
582.0058,582.0975,66,80,0
582.1058,582.19745,68,80,0
582.2058,582.2975,70,80,0
582.3058,582.5975,71,110,0
582.5058,582.68915,74,110,0
582.6058,582.7891,73,110,0
582.7058,582.8891,71,110,0
582.8058,582.98914,73,110,0
582.9058,583.0891,71,110,0
583.0058,583.18915,69,110,0
583.1058,583.2891,68,110,0
583.2058,583.3891,69,110,0
583.3058,583.48914,68,110,0
583.4058,583.5891,66,110,0
583.5058,583.68915,65,110,0
583.6058,583.7891,66,110,0
583.7058,583.8891,65,110,0
583.8058,583.98914,62,110,0
583.9058,584.0891,61,110,0
584.0058,584.18915,62,110,0
584.1058,584.2891,61,110,0
584.2058,584.3891,59,110,0
584.3058,584.48914,57,110,0
584.4058,584.5891,59,110,0
584.5058,584.68915,57,110,0
584.6058,584.7891,56,110,0
584.7058,584.99744,54,110,0
584.9058,585.0891,73,110,0
585.0058,585.18915,71,110,0
585.1058,585.2891,69,110,0
585.2058,585.3891,71,110,0
585.3058,585.48914,69,110,0
585.4058,585.5891,68,110,0
585.5058,585.68915,66,110,0
585.6058,585.7891,68,110,0
585.7058,585.8891,66,110,0
585.8058,585.98914,65,110,0
585.9058,586.0891,66,110,0
586.0058,586.18915,64,110,0
586.1058,586.2891,63,110,0
586.2058,586.3891,61,110,0
586.3058,586.48914,59,110,0
586.4058,586.5891,61,110,0
586.5058,586.68915,59,110,0
586.6058,586.7891,57,110,0
586.7058,586.8891,56,110,0
586.8058,586.98914,57,110,0
586.9058,587.0891,56,110,0
587.0058,587.18915,54,110,0
587.1058,587.39746,52,110,0
587.3058,587.48914,71,110,0
587.4058,587.5891,69,110,0
587.5058,587.68915,68,110,0
587.6058,587.7891,69,110,0
587.7058,587.8891,68,110,0
587.8058,587.98914,66,110,0
587.9058,588.0891,64,110,0
588.0058,588.18915,66,110,0
588.1058,588.2891,64,110,0
588.2058,588.3891,63,110,0
588.3058,588.48914,64,110,0
588.4058,588.5891,63,110,0
588.5058,588.68915,61,110,0
588.6058,588.7891,59,110,0
588.7058,588.8891,57,110,0
588.8058,588.98914,59,110,0
588.9058,589.0891,57,110,0
589.0058,589.18915,56,110,0
589.1058,589.2891,54,110,0
589.2058,589.3891,52,110,0
589.3058,589.48914,51,110,0
589.4058,589.5891,49,110,0
589.5058,589.68915,51,110,0
589.6058,589.7891,59,110,0
589.7058,589.8891,56,110,0
589.8058,589.98914,59,110,0
589.9058,590.0891,63,110,0
590.0058,590.18915,59,110,0
590.1058,590.2891,56,110,0
590.2058,590.3891,59,110,0
590.3058,590.48914,51,110,0
590.4058,590.5891,59,110,0
590.5058,590.68915,55,110,0
590.6058,590.7891,59,110,0
590.7058,590.8891,63,110,0
590.8058,590.98914,59,110,0
590.9058,591.0891,55,110,0
591.0058,591.18915,59,110,0
591.1058,591.2891,51,110,0
591.2058,591.3891,59,110,0
591.3058,591.48914,56,110,0
591.4058,591.5891,59,110,0
591.5058,591.68915,63,110,0
591.6058,591.7891,59,110,0
591.7058,591.8891,56,110,0
591.8058,591.98914,59,110,0
591.9058,592.0891,51,110,0
592.0058,592.18915,63,110,0
592.1058,592.2891,59,110,0
592.2058,592.3891,63,110,0
592.3058,592.48914,54,110,0
592.4058,592.5891,63,110,0
592.5058,592.68915,59,110,0
592.6058,592.7891,63,110,0
592.7058,592.8891,57,110,0
592.8058,592.98914,63,110,0
592.9058,593.0891,59,110,0
593.0058,593.18915,63,110,0
593.1058,593.2891,59,110,0
593.2058,593.3891,66,110,0
593.3058,593.48914,63,110,0
593.4058,593.5891,66,110,0
593.5058,593.68915,63,110,0
593.6058,593.7891,69,110,0
593.7058,593.8891,66,110,0
593.8058,593.98914,69,110,0
593.9058,594.0891,64,110,0
594.0058,594.18915,69,110,0
594.1058,594.2891,66,110,0
594.2058,594.3891,69,110,0
594.3058,594.48914,63,110,0
594.4058,594.5891,69,110,0
594.5058,594.68915,66,110,0
594.6058,594.7891,69,110,0
594.7058,594.8891,63,110,0
594.8058,594.98914,71,110,0
594.9058,595.0891,66,110,0
595.0058,595.18915,71,110,0
595.1058,595.2891,64,110,0
595.2058,595.3891,73,110,0
595.3058,595.48914,68,110,0
595.4058,595.5891,73,110,0
595.5058,595.68915,66,110,0
595.6058,595.7891,75,110,0
595.7058,595.8891,69,110,0
595.8058,595.98914,75,110,0
595.9058,596.0891,68,110,0
596.0058,596.18915,76,110,0
596.1058,596.2891,75,110,0
596.2058,596.3891,76,110,0
596.3058,596.48914,75,110,0
596.4058,596.5891,76,110,0
596.5058,596.68915,73,110,0
596.6058,596.7891,70,110,0
596.7058,596.8891,71,110,0
596.8058,596.98914,68,110,0
596.9058,597.0891,66,110,0
597.0058,597.18915,64,110,0
597.1058,597.2891,63,110,0
597.2058,597.3891,64,110,0
597.3058,597.48914,63,110,0
597.4058,597.5891,61,110,0
597.5058,597.68915,59,110,0
597.6058,597.7891,57,110,0
597.7058,597.8891,56,110,0
597.8058,597.98914,54,110,0
597.9058,598.0891,52,110,0
598.0058,598.18915,51,110,0
598.1058,598.2891,49,110,0
598.2058,598.3891,47,110,0
598.3058,598.48914,45,110,0
598.4058,598.5891,44,110,0
598.5058,598.68915,42,110,0
598.6058,598.7891,40,110,0
598.7058,598.8891,39,110,0
598.8058,598.98914,35,110,0
598.9058,599.0891,37,110,0
599.0058,599.18915,39,110,0
599.1058,599.2891,40,110,0
599.2058,599.3891,42,110,0
599.3058,599.48914,45,110,0
599.4058,599.5891,47,110,0
599.5058,599.68915,42,110,0
599.6058,599.7891,45,110,0
599.7058,599.8891,47,110,0
599.8058,599.98914,51,110,0
599.9058,600.0891,40,110,0
600.0058,600.18915,42,110,0
600.1058,600.2891,45,110,0
600.2058,600.3891,47,110,0
600.3058,600.48914,42,110,0
600.4058,600.5891,45,110,0
600.5058,600.68915,47,110,0
600.6058,600.7891,51,110,0
600.7058,600.8891,40,110,0
600.8058,600.98914,42,110,0
600.9058,601.0891,45,110,0
601.0058,601.18915,47,110,0
601.1058,601.2891,42,110,0
601.2058,601.3891,45,110,0
601.3058,601.48914,47,110,0
601.4058,601.5891,51,110,0
601.5058,601.68915,40,110,0
601.6058,601.7891,42,110,0
601.7058,601.8891,45,110,0
601.8058,601.98914,47,109,0
601.9058,602.0891,42,109,0
602.0058,602.18915,45,108,0
602.1058,602.2891,47,108,0
602.2058,602.3891,51,107,0
602.3058,602.48914,40,107,0
602.4058,602.5891,42,106,0
602.5058,602.68915,45,105,0
602.6058,602.7891,47,105,0
602.7058,602.8891,42,104,0
602.8058,602.98914,45,104,0
602.9058,603.0891,47,103,0
603.0058,603.18915,51,103,0
603.1058,603.2891,40,102,0
603.2058,603.3891,42,101,0
603.3058,603.48914,45,101,0
603.4058,603.5891,47,100,0
603.5058,603.68915,42,100,0
603.6058,603.7891,45,99,0
603.7058,603.8891,47,99,0
603.8058,603.98914,51,98,0
603.9058,604.0891,40,97,0
604.0058,604.18915,42,97,0
604.1058,604.2891,45,96,0
604.2058,604.3891,47,96,0
604.3058,604.48914,42,95,0
604.4058,604.5891,45,95,0
604.5058,604.68915,47,94,0
604.6058,604.7891,51,93,0
604.7058,604.8891,40,93,0
604.8058,604.98914,42,92,0
604.9058,605.0891,45,92,0
605.0058,605.18915,47,91,0
605.1058,605.2891,42,91,0
605.2058,605.3891,45,90,0
605.3058,605.48914,47,89,0
605.4058,605.5891,51,89,0
605.5058,605.68915,40,88,0
605.6058,605.7891,42,88,0
605.7058,605.8891,45,87,0
605.8058,605.98914,47,87,0
605.9058,606.0891,42,86,0
606.0058,606.18915,45,86,0
606.1058,606.2891,47,85,0
606.2058,606.3951,51,84,0
606.3058,606.5022,40,84,0
606.41296,606.6094,42,83,0
606.5201,606.7165,45,83,0
606.6272,606.82367,47,82,0
606.7344,606.9308,42,82,0
606.8415,607.03796,45,81,0
606.94867,607.1451,47,80,0
607.0558,607.2671,51,80,0
607.16296,607.3921,40,79,0
607.28796,607.5171,42,79,0
607.41296,607.6421,45,78,0
607.53796,607.7671,47,78,0
607.66296,607.8921,42,77,0
607.78796,608.0171,45,76,0
607.91296,608.1421,47,76,0
608.03796,608.28796,51,75,0
608.16296,608.4379,40,75,0
608.3129,608.58795,42,74,0
608.46295,608.7379,45,74,0
608.6129,608.9192,47,73,0
608.76294,609.1067,42,72,0
608.95044,609.34625,45,72,0
609.13794,609.59625,47,71,0
609.38794,609.6171,51,71,0
609.63794,610.9574,40,80,0
610.97125,612.2907,44,80,0
612.3046,613.624,45,80,0
613.63794,614.9574,47,80,0
614.97125,616.2907,49,80,0
616.3046,617.624,51,80,0
617.63794,618.9574,52,80,0
618.97125,620.2907,56,80,0
620.3046,621.624,58,80,0
621.63794,622.9574,59,80,0
622.97125,624.2907,54,80,0
624.3046,624.9574,47,80,0
624.97125,625.624,45,80,0
625.88794,628.2907,44,80,0
626.97125,628.2907,56,80,0
628.3046,629.624,45,80,0
629.63794,630.9574,47,80,0
629.63794,630.9574,54,80,0
630.97125,632.2907,49,80,0
630.97125,632.2907,52,80,0
632.3046,633.624,51,80,0
632.3046,633.624,54,80,0
633.63794,634.9574,52,80,0
634.97125,636.2907,37,80,0
634.97125,636.2907,49,80,0
636.3046,637.624,36,80,0
636.3046,637.624,48,80,0
637.63794,638.9574,40,80,0
637.63794,640.35205,36,80,0
638.97125,640.35205,43,80,0
640.36664,641.851,35,80,0
640.36664,641.851,47,80,0
641.86664,643.2803,59,80,0
643.29517,644.6146,51,80,0
643.29517,644.6146,59,80,0
644.62854,645.94794,53,80,0
644.62854,645.94794,59,80,0
645.96185,647.2813,54,80,0
645.96185,647.2813,59,80,0
647.29517,648.6146,49,80,0
647.29517,648.6146,59,80,0
648.62854,649.94794,51,80,0
648.62854,649.94794,59,80,0
649.96185,651.2813,52,80,0
649.96185,651.2813,59,80,0
651.29517,652.6146,47,80,0
651.29517,652.6146,59,80,0
652.62854,653.97833,49,80,0
652.62854,653.97833,61,80,0
653.99286,655.37366,51,80,0
653.99286,655.37366,59,80,0
655.3882,656.87256,51,80,0
655.3882,656.87256,58,80,0
656.8882,658.4507,44,80,0
656.8882,658.4507,56,80,0
658.46716,659.93976,42,80,0
658.46716,659.93976,54,80,0
659.9543,661.27374,54,85,0
659.9543,661.27374,57,85,0
661.28766,662.60706,52,91,0
661.28766,662.60706,54,91,0
661.28766,662.60706,57,91,0
662.621,665.9404,51,97,0
662.7043,665.9404,54,97,0
662.7876,665.9404,57,97,0
662.871,665.9404,59,98,0
665.9543,666.60706,56,81,0
665.9543,666.60706,52,81,0
665.9543,666.60706,59,81,0
666.621,669.27374,47,80,0
667.9543,669.27374,56,80,0
669.2876,670.7013,47,80,0
669.2876,670.7013,54,80,0
670.7162,672.20056,40,80,0
672.2162,673.9126,47,80,0
673.9305,677.3412,52,80,0
