start_time,end_time,note_value,velocity,instrument_program_number
0.0,0.2790272,72,1,40
0.97044975,2.4548247,67,70,40
2.4704497,4.72045,72,70,40
4.72045,5.47045,67,70,40
5.47045,6.22045,64,70,40
6.22045,6.954825,60,70,40
6.97045,8.454824,60,70,40
8.470449,9.954824,59,70,40
9.970449,10.704824,60,70,40
10.720449,10.907949,62,70,40
10.907949,11.095449,60,70,40
11.095449,11.282949,59,70,40
11.282949,11.470449,60,70,40
11.470449,13.123894,64,70,40
13.142276,14.006246,62,70,40
15.524629,16.259003,65,70,40
16.274628,18.509003,77,90,40
18.524628,19.259003,74,90,40
19.274628,20.047655,71,95,40
20.064102,20.928072,72,100,40
20.946455,22.114218,62,70,40
22.130665,22.328033,62,70,40
22.328033,22.525402,65,70,40
22.525402,24.482637,69,70,40
24.499084,24.696453,67,70,40
24.696453,24.893822,65,70,40
24.893822,25.09119,64,70,40
25.09119,25.288559,62,70,40
25.288559,25.485928,60,70,40
25.485928,25.683296,59,70,40
25.683296,27.296635,62,70,40
27.316166,28.234135,60,70,40
29.003666,29.378666,60,70,40
29.378666,29.753666,64,70,40
29.753666,30.128666,67,70,40
30.128666,30.503666,72,70,40
30.503666,32.191166,76,70,40
32.191166,32.378666,74,70,40
32.378666,32.566166,72,70,40
32.566166,32.753666,71,70,40
32.753666,32.941166,72,70,40
32.941166,33.128666,74,70,40
33.128666,33.316166,76,70,40
33.316166,33.503666,77,70,40
33.503666,33.691166,79,70,40
33.691166,33.878666,78,70,40
33.878666,34.066166,81,70,40
34.066166,34.253666,79,70,40
34.253666,34.441166,77,70,40
34.441166,34.628666,76,70,40
34.628666,34.816166,74,70,40
34.816166,35.003666,72,70,40
35.003666,36.65711,76,70,40
36.67549,37.539463,74,70,40
38.307846,38.682846,60,70,40
38.682846,39.057846,64,70,40
39.057846,39.432846,67,70,40
39.432846,39.807846,72,70,40
39.807846,41.495346,76,70,40
41.495346,41.682846,72,70,40
41.682846,41.870346,79,70,40
41.870346,42.057846,78,70,40
42.057846,42.245346,79,70,40
42.245346,42.432846,76,70,40
42.432846,42.620346,84,70,40
42.620346,42.807846,83,70,40
42.807846,42.995346,84,70,40
42.995346,43.182846,79,70,40
43.182846,43.370346,88,70,40
43.370346,43.557846,84,70,40
43.557846,43.745346,79,70,40
43.745346,43.932846,76,70,40
43.932846,44.120346,74,70,40
44.120346,44.307846,72,70,40
44.307846,44.686134,76,70,40
44.70258,44.83416,77,70,40
44.83416,44.96574,76,70,40
44.96574,45.097317,74,70,40
45.097317,45.317905,76,70,40
45.317905,45.538494,77,70,40
45.538494,45.759083,78,70,40
45.759083,45.97967,79,70,40
45.97967,46.84364,74,70,40
47.651497,47.75018,73,70,40
47.75018,48.424522,74,70,40
48.44097,48.539654,73,70,40
48.539654,49.249634,74,70,40
49.266994,51.50137,74,70,40
51.516994,52.06387,76,70,40
52.079494,52.25137,74,70,40
52.266994,52.81387,79,70,40
52.829494,53.00137,74,70,40
53.016994,53.56387,83,70,40
53.579494,53.75137,74,70,40
53.766994,56.00137,74,70,40
56.016994,56.56387,76,70,40
56.579494,56.75137,74,70,40
56.766994,57.31387,79,70,40
57.329494,57.50137,74,70,40
57.516994,58.06387,83,70,40
58.079494,58.25137,75,70,40
58.266994,58.454494,78,70,40
58.454494,58.641994,76,75,40
58.641994,58.829494,74,80,40
58.829494,59.016994,72,85,40
59.016994,59.204494,71,90,40
59.204494,59.391994,69,95,40
59.391994,59.516994,76,100,40
59.579494,59.704494,76,85,40
59.766994,60.50137,76,70,40
60.516994,61.34512,67,70,40
61.360744,61.43887,69,70,40
61.43887,61.516994,67,70,40
61.516994,61.59512,66,70,40
61.59512,61.673244,67,70,40
61.673244,61.75137,69,70,40
61.75137,61.829494,71,70,40
61.829494,61.923244,72,70,40
61.923244,62.016994,74,70,40
62.016994,62.37637,76,70,40
62.579494,62.75137,66,70,40
62.766994,64.400955,69,70,40
64.42179,65.400955,67,70,40
66.17179,66.906166,67,70,40
66.92179,67.656166,67,70,40
67.67179,69.906166,71,70,40
69.92179,70.656166,72,70,40
70.67179,71.406166,74,70,40
71.42179,71.968666,76,70,40
71.98429,72.156166,72,70,40
72.17179,73.77641,76,70,40
73.795944,74.71391,74,70,40
75.52292,76.25729,79,70,40
76.27292,77.00729,79,70,40
77.02292,79.25729,83,70,40
79.27292,80.00729,84,90,40
80.02292,80.75729,86,97,40
80.77292,81.31979,88,104,40
81.33542,81.50729,84,109,40
81.52292,83.38229,89,110,40
83.39792,83.75729,86,95,40
83.77292,84.13229,83,70,40
84.14792,84.50729,79,70,40
84.52292,84.90121,80,70,40
84.917656,85.295944,81,70,40
85.31239,85.72311,82,70,40
85.74097,86.22013,83,70,40
86.24097,88.47534,84,70,40
88.49097,89.22534,79,70,40
89.24097,89.97534,76,70,40
89.99097,90.72534,72,70,40
90.74097,92.97534,84,70,40
92.99097,93.72534,79,70,40
93.74097,94.47534,76,70,40
94.49097,95.22534,72,70,40
95.24097,96.72534,84,70,40
96.74097,98.22534,86,83,40
98.24097,99.845695,75,97,40
98.24097,99.845695,87,97,40
99.86259,101.40777,76,110,40
99.86259,101.61089,88,110,40
101.61089,101.79839,87,90,40
101.79839,101.98589,89,70,40
101.98589,102.17339,88,70,40
102.17339,102.36089,86,70,40
102.36089,102.54839,84,70,40
102.54839,102.73589,83,70,40
102.73589,102.92339,81,70,40
102.92339,103.11089,79,70,40
103.11089,103.29839,80,70,40
103.29839,103.48589,83,70,40
103.48589,103.67339,81,70,40
103.67339,103.8761,79,70,40
103.8761,104.078804,77,70,40
104.078804,104.29939,76,70,40
104.29939,104.54939,74,70,40
104.54939,105.52856,72,70,40
107.79939,108.187904,71,50,40
108.204796,108.59331,71,50,40
108.6102,108.99871,69,50,40
109.0156,109.4384,67,50,40
109.45678,110.191154,72,50,40
112.45678,112.83507,67,50,40
112.85152,113.229805,67,50,40
113.246254,113.68186,67,50,40
113.7008,114.253685,67,50,40
114.277725,115.0121,67,50,40
117.277725,118.07164,64,50,40
118.899345,119.69326,60,50,40
122.18763,122.28601,72,55,40
122.32652,122.4249,72,55,40
122.46541,122.56379,70,55,40
122.604294,122.702675,69,55,40
122.74319,123.015175,74,55,40
123.298744,123.39712,70,55,40
123.43763,123.53601,70,55,40
123.576515,123.6749,69,55,40
123.71541,123.81379,67,55,40
123.854294,124.12629,72,70,40
124.40985,124.50823,72,70,40
124.54874,124.68184,72,70,40
124.68763,124.82073,70,70,40
124.826515,124.95962,69,70,40
124.96541,125.06378,69,70,40
125.104294,125.2374,69,70,40
125.24319,125.37628,67,70,40
125.38207,125.515175,65,70,40
125.52096,125.61934,65,70,40
125.65985,125.79295,65,70,40
125.79874,125.89712,64,70,40
125.93763,126.036,65,70,40
126.076515,126.20962,66,70,40
126.2154,126.31378,67,70,40
126.354294,126.452675,67,70,40
126.49318,126.59156,67,70,40
126.63207,126.73045,74,70,40
126.77096,126.90406,74,70,40
126.90985,127.04295,72,70,40
127.04874,127.18184,70,70,40
127.18762,127.286,70,70,40
127.326515,127.45962,70,70,40
127.4654,127.5985,69,70,40
127.604294,127.7374,67,70,40
127.74318,127.84156,67,70,40
127.88207,128.01517,67,70,40
128.02097,128.11934,66,70,40
128.15985,128.25822,67,70,40
128.29874,128.43184,68,70,40
128.43762,128.53601,69,70,40
128.5765,128.6749,69,70,40
128.71541,128.81378,69,70,40
128.8543,128.95267,77,70,40
128.99318,129.12628,77,70,40
129.13206,129.26517,79,70,40
129.27095,129.40405,81,70,40
129.40985,129.50822,79,70,40
129.54874,129.68184,79,70,40
129.68762,129.82072,77,70,40
129.8265,129.95961,76,70,40
129.96541,130.06378,74,70,40
130.1043,130.2374,74,70,40
130.24318,130.37628,76,70,40
130.38206,130.51517,77,70,40
130.52095,130.61934,76,70,40
130.65985,130.79295,76,70,40
130.79874,130.93184,74,70,40
130.93762,131.07072,72,70,40
131.0765,131.1749,77,110,40
131.2154,131.3485,77,110,40
131.3543,131.4874,79,110,40
131.49318,131.62628,81,110,40
131.63206,131.73044,79,110,40
131.77095,131.90405,79,110,40
131.90984,132.04294,77,110,40
132.04874,132.18184,76,110,40
132.18762,132.286,74,110,40
132.3265,132.45961,74,110,40
132.4654,132.5985,79,110,40
132.6043,132.7374,71,110,40
132.74318,133.29294,72,110,40
133.29874,133.39711,72,70,40
133.43762,133.57072,72,70,40
133.5765,133.70961,70,70,40
133.7154,133.8485,69,70,40
133.85428,133.95267,69,70,40
133.99318,134.12628,69,70,40
134.13206,134.26517,67,70,40
134.27095,134.40405,65,70,40
134.40984,134.50822,65,70,40
134.54874,134.68182,65,70,40
134.68762,134.786,64,70,40
134.8265,134.92488,65,70,40
134.9654,135.0985,66,70,40
135.10428,135.20267,67,70,40
135.24318,135.34155,67,70,40
135.38206,135.48044,67,70,40
135.52095,135.61932,74,70,40
135.65984,135.79294,74,70,40
135.79872,135.93182,72,70,40
135.93762,136.07072,70,70,40
136.0765,136.17488,70,70,40
136.2154,136.3485,70,70,40
136.35428,136.48738,69,70,40
136.49318,136.62627,67,70,40
136.63206,136.73044,67,70,40
136.77095,136.90405,67,70,40
136.90984,137.00822,66,70,40
137.04872,137.14711,67,70,40
137.18762,137.32072,68,70,40
137.3265,137.42488,69,70,40
137.4654,137.56377,69,70,40
137.60428,137.70267,69,70,40
137.74316,137.84155,77,70,40
137.88206,138.01517,77,70,40
138.02095,138.15405,79,70,40
138.15984,138.29294,81,70,40
138.29872,138.39711,79,70,40
138.43762,138.57071,79,70,40
138.5765,138.70961,77,70,40
138.7154,138.8485,76,70,40
138.85428,138.95267,74,70,40
138.99316,139.12627,74,70,40
139.13206,139.26517,76,70,40
139.27095,139.40405,77,70,40
139.40984,139.50821,76,70,40
139.54872,139.68182,76,70,40
139.6876,139.82071,74,70,40
139.8265,139.95961,72,70,40
139.9654,140.06377,77,110,40
140.10428,140.23738,77,110,40
140.24316,140.37627,79,110,40
140.38205,140.51515,81,110,40
140.52095,140.61932,79,110,40
140.65984,140.79294,79,110,40
140.79872,140.93182,77,110,40
140.9376,141.07071,76,110,40
141.0765,141.17488,74,110,40
141.2154,141.3485,74,110,40
141.35428,141.4925,79,110,40
141.4985,141.64226,71,110,40
141.64851,142.24226,72,110,40
143.35962,143.458,78,70,40
143.4985,143.6316,78,70,40
143.63739,143.7705,79,70,40
143.77629,143.9094,81,70,40
143.91518,144.01355,82,70,40
144.05406,144.18716,82,70,40
144.19295,144.32605,84,70,40
144.33183,144.46494,86,70,40
145.58183,145.68022,76,70,40
145.72073,145.85384,76,70,40
145.85962,145.99272,77,70,40
145.9985,146.1316,79,70,40
146.13739,146.23578,81,70,40
146.27628,146.40938,81,70,40
146.41518,146.54828,82,70,40
146.55406,146.68716,84,70,40
146.69295,146.79134,81,70,40
146.83183,146.96494,81,71,40
146.97073,147.10382,79,72,40
147.10962,147.24272,77,74,40
147.2485,147.34688,82,75,40
147.38739,147.5205,82,77,40
147.52628,147.65938,81,78,40
147.66518,147.79828,79,80,40
147.80406,147.90244,81,81,40
147.94295,148.07605,81,83,40
148.08183,148.21494,79,84,40
148.22072,148.35382,77,86,40
148.35962,148.458,76,87,40
148.4985,148.6316,76,89,40
148.63739,148.7705,74,90,40
148.77628,148.90938,72,91,40
148.91518,149.01355,81,93,40
149.05406,149.18716,81,94,40
149.19295,149.32605,79,96,40
149.33183,149.46494,77,97,40
149.47072,149.5691,82,99,40
149.60962,149.74272,82,100,40
149.7485,149.8816,81,102,40
149.88739,150.0205,79,103,40
150.02628,150.12845,81,105,40
150.17052,150.30873,81,106,40
150.31474,150.4585,79,108,40
150.46474,150.61606,77,109,40
150.62263,153.39462,84,110,40
153.4004,153.4988,86,70,40
153.53929,153.6724,86,70,40
153.67819,153.8113,84,70,40
153.81708,153.95018,82,70,40
153.95596,154.05435,82,70,40
154.09485,154.22795,82,70,40
154.23375,154.36684,81,70,40
154.37263,154.50574,79,70,40
154.51152,154.6099,79,70,40
154.6504,154.78351,79,70,40
154.78929,154.88768,77,70,40
154.92819,155.02657,79,70,40
155.06708,155.20018,80,70,40
155.20596,155.30434,81,70,40
155.34485,155.44324,81,70,40
155.48373,155.58212,81,70,40
155.62263,155.72101,82,70,40
155.76152,155.89462,82,70,40
155.9004,156.03351,84,70,40
156.03929,156.1724,86,70,40
156.17819,156.27657,84,70,40
156.31708,156.45018,84,70,40
156.45596,156.58907,82,70,40
156.59485,156.72795,81,70,40
156.73373,156.83212,79,70,40
156.87263,157.00574,79,70,40
157.01152,157.14462,81,70,40
157.1504,157.28351,82,70,40
157.28929,157.38768,81,70,40
157.42818,157.56128,81,70,40
157.56708,157.70018,79,70,40
157.70596,157.83907,77,70,40
157.84485,157.94322,82,110,40
157.98373,158.11684,82,110,40
158.12263,158.25572,84,110,40
158.26152,158.39462,86,110,40
158.4004,158.49878,84,110,40
158.53929,158.6724,84,110,40
158.67818,158.81128,82,110,40
158.81708,158.95018,81,110,40
158.95596,159.05434,79,110,40
159.09485,159.22795,79,110,40
159.23373,159.36684,84,110,40
159.37262,159.50572,76,110,40
159.51152,160.06128,77,110,40
161.17818,161.27657,78,70,40
161.31706,161.45016,78,70,40
161.45596,161.58907,79,70,40
161.59485,161.72795,81,70,40
161.73373,161.8321,82,70,40
161.87262,162.00572,82,70,40
162.0115,162.1446,84,70,40
162.1504,162.28351,86,70,40
163.4004,163.49878,76,70,40
163.53929,163.6724,76,70,40
163.67818,163.81128,77,70,40
163.81706,163.95016,79,70,40
163.95595,164.05434,81,70,40
164.09485,164.22795,81,70,40
164.23373,164.36684,82,70,40
164.37262,164.50572,84,70,40
164.5115,164.6099,81,70,40
164.6504,164.7835,81,71,40
164.78929,164.9224,79,72,40
164.92818,165.06128,77,74,40
165.06706,165.16545,82,75,40
165.20595,165.33905,82,77,40
165.34485,165.47795,81,78,40
165.48373,165.61684,79,80,40
165.62262,165.721,81,81,40
165.7615,165.8946,81,83,40
165.90039,166.0335,79,84,40
166.03929,166.1724,77,86,40
166.17818,166.27655,76,87,40
166.31706,166.45016,76,89,40
166.45595,166.58905,74,90,40
166.59485,166.72794,72,91,40
166.73373,166.8321,81,93,40
166.87262,167.00572,81,94,40
167.0115,167.1446,79,96,40
167.15039,167.2835,77,97,40
167.28929,167.39145,82,99,40
167.43352,167.57173,82,100,40
167.57774,167.71597,81,102,40
167.72197,167.8602,79,103,40
167.86621,167.97246,81,105,40
168.0162,168.15996,81,106,40
168.16621,168.31595,79,108,40
168.32246,168.48218,77,109,40
168.48912,171.31667,84,110,40
171.32245,171.42084,86,70,40
171.46135,171.59445,86,70,40
171.60023,171.73334,84,70,40
171.73912,171.87222,82,70,40
171.878,171.9764,82,70,40
172.01689,172.15,82,70,40
172.15579,172.2889,81,70,40
172.29468,172.42778,79,70,40
172.43356,172.53195,79,70,40
172.57245,172.70555,79,70,40
172.71135,172.80972,77,70,40
172.85023,172.94861,79,70,40
172.98912,173.12222,80,70,40
173.128,173.2264,81,70,40
173.26689,173.36528,81,70,40
173.40579,173.50417,81,70,40
173.54468,173.64305,82,70,40
173.68356,173.81667,82,70,40
173.82245,173.95555,84,70,40
173.96133,174.09444,86,70,40
174.10023,174.19861,84,70,40
174.23912,174.37222,84,70,40
174.378,174.51111,82,70,40
174.51689,174.65,81,70,40
174.65579,174.75417,79,70,40
174.79468,174.92778,79,70,40
174.93356,175.06667,81,70,40
175.07245,175.20555,82,70,40
175.21133,175.30972,81,70,40
175.35023,175.48334,81,70,40
175.48912,175.62222,79,70,40
175.628,175.76111,77,70,40
175.76689,175.86528,82,110,40
175.90578,176.03888,82,110,40
176.04468,176.17778,84,110,40
176.18356,176.31667,86,110,40
176.32245,176.42082,84,110,40
176.46133,176.59444,84,110,40
176.60023,176.73332,82,110,40
176.73912,176.87222,81,110,40
176.878,176.98016,79,110,40
177.02223,177.16046,79,110,40
177.16647,177.31021,84,110,40
177.31647,177.4662,76,110,40
177.47272,178.0912,77,110,40
178.09772,178.19609,81,70,40
178.2366,178.3697,81,70,40
178.37549,178.50859,79,70,40
178.51439,178.64749,77,70,40
178.65327,178.75165,77,70,40
178.79216,178.92526,77,70,40
178.93105,179.06415,76,70,40
179.06993,179.20303,74,70,40
179.20883,179.3072,74,70,40
179.34772,179.48082,74,70,40
179.4866,179.6197,72,70,40
179.62549,179.75859,71,70,40
179.76439,179.86276,71,70,40
179.90327,180.03638,71,70,40
180.04216,180.17526,69,70,40
180.18105,180.31415,67,70,40
180.31993,180.59193,67,70,40
180.87549,181.14748,71,75,40
181.43105,181.70303,74,81,40
181.9866,182.25859,77,87,40
182.54216,182.81415,83,93,40
183.09772,183.38016,86,99,40
183.67464,183.96838,89,105,40
184.3288,187.32098,55,110,40
184.3288,187.32098,65,110,40
191.2663,192.0163,64,70,40
192.0163,192.7663,67,70,40
192.7663,193.5163,72,70,40
193.5163,194.2663,76,70,40
194.2663,195.08228,79,70,40
195.09964,198.08401,79,70,40
198.09964,199.58401,67,70,40
199.59964,201.83401,67,100,40
204.84964,205.58401,71,70,40
205.59964,206.33401,80,73,40
206.34964,208.20901,79,76,40
208.22464,208.41214,77,84,40
208.41214,208.58401,76,84,40
208.59964,209.33401,76,85,40
209.34964,210.08401,74,88,40
210.09964,210.83401,77,92,40
210.84964,212.33401,81,95,40
212.34964,213.297,71,101,40
213.297,213.49437,72,105,40
213.49437,213.69174,74,106,40
213.69174,213.88911,76,106,40
213.88911,214.1034,77,107,40
214.1034,214.31767,67,108,40
214.31767,214.55205,69,109,40
214.55205,214.81992,71,110,40
214.81992,215.86902,72,110,40
216.64134,217.00072,60,70,40
217.01634,217.37572,64,70,40
217.39134,217.75072,67,70,40
217.76634,218.12572,72,70,40
218.14134,219.82884,76,70,40
219.82884,220.01634,74,70,40
220.01634,220.20384,72,70,40
220.20384,220.39134,71,70,40
220.39134,220.57884,72,70,40
220.57884,220.76634,74,70,40
220.76634,220.95384,76,70,40
220.95384,221.14134,77,70,40
221.14134,221.32884,79,70,40
221.32884,221.51634,78,70,40
221.51634,221.70384,81,70,40
221.70384,221.89134,79,70,40
221.89134,222.07884,77,70,40
222.07884,222.26634,76,70,40
222.26634,222.45384,74,70,40
222.45384,222.64134,72,70,40
222.64134,223.76634,76,70,40
223.76634,223.95384,77,70,40
223.95384,224.14134,76,70,40
224.14134,224.87572,74,70,40
225.64134,225.82884,55,70,40
225.82884,226.01634,60,70,40
226.01634,226.20384,64,70,40
226.20384,226.39134,60,70,40
226.39134,226.57884,67,70,40
226.57884,226.76634,64,70,40
226.76634,226.95384,72,70,40
226.95384,227.12572,67,70,40
227.14134,228.64134,76,70,40
228.73509,228.82884,74,70,40
228.82884,228.92259,72,70,40
228.92259,229.01634,71,70,40
229.01634,229.11009,72,70,40
229.11009,229.20384,74,70,40
229.20384,229.29759,76,70,40
229.29759,229.39134,77,70,40
229.39134,229.48509,81,70,40
229.48509,229.57884,79,70,40
229.57884,229.67259,77,70,40
229.67259,229.76634,76,70,40
229.76634,229.86009,77,70,40
229.86009,229.95384,79,70,40
229.95384,230.04759,81,70,40
230.04759,230.14134,83,70,40
230.14134,230.23509,84,70,40
230.23509,230.32884,83,70,40
230.32884,230.42259,88,70,40
230.42259,230.51634,86,70,40
230.51634,230.61009,84,70,40
230.61009,230.70384,83,70,40
230.70384,230.79759,81,70,40
230.79759,230.89134,79,70,40
230.89134,230.98509,78,70,40
230.98509,231.07884,79,70,40
231.07884,231.17259,81,70,40
231.17259,231.26634,79,70,40
231.26634,231.36009,77,70,40
231.36009,231.45384,76,70,40
231.45384,231.54759,74,70,40
231.54759,231.62572,72,70,40
231.64134,232.00072,76,70,40
232.01634,232.14134,77,70,40
232.14134,232.26634,76,70,40
232.26634,232.39134,74,70,40
232.39134,232.57884,76,70,40
232.57884,232.76634,77,70,40
232.76634,232.95384,78,70,40
232.95384,233.14134,79,70,40
233.14134,233.87572,74,70,40
234.64134,234.73509,73,70,40
234.73509,235.37572,74,70,40
235.39134,235.48509,73,70,40
235.48509,236.12572,74,70,40
236.14134,238.37572,74,70,40
238.39134,238.93822,76,70,40
238.95384,239.12572,74,70,40
239.14134,239.68822,79,70,40
239.70384,239.87572,74,70,40
239.89134,240.43822,83,70,40
240.45384,240.62572,74,70,40
240.64134,242.31322,74,70,40
242.32884,242.45384,74,70,40
242.51634,242.64134,74,70,40
242.70384,242.82884,74,70,40
242.89134,243.07884,76,70,40
243.07884,243.20384,74,70,40
243.26634,243.39134,74,70,40
243.45384,243.57884,74,70,40
243.64134,243.82884,79,70,40
243.82884,243.95384,74,70,40
244.01634,244.14134,74,70,40
244.20384,244.32884,74,70,40
244.39134,244.57884,83,70,40
244.57884,244.70384,75,70,40
244.76634,244.89134,75,70,40
244.95384,245.07884,75,70,40
245.14134,245.32884,78,70,40
245.32884,245.51634,76,75,40
245.51634,245.70384,74,80,40
245.70384,245.89134,72,85,40
245.89134,246.07884,71,90,40
246.07884,246.26634,69,95,40
246.26634,246.39134,76,100,40
246.45384,246.57884,76,85,40
246.64134,247.37572,76,70,40
247.39134,248.21947,67,70,40
248.23509,248.31322,69,70,40
248.31322,248.39134,67,70,40
248.39134,248.46947,66,70,40
248.46947,248.54759,67,70,40
248.54759,248.62572,69,70,40
248.62572,248.70384,71,70,40
248.70384,248.79759,72,70,40
248.79759,248.89134,74,70,40
248.89134,249.25072,76,70,40
249.45384,249.62572,66,70,40
249.64134,251.30861,69,70,40
251.32814,252.13817,67,70,40
252.94409,253.71712,67,70,40
253.73357,254.50659,67,70,40
254.52304,256.875,71,70,40
256.89145,257.6645,72,70,40
257.68094,258.45395,74,70,40
258.4704,259.04605,76,70,40
259.0625,259.24344,72,70,40
259.2599,260.94592,76,70,40
260.96826,261.78772,74,70,40
262.59363,263.36667,79,70,40
263.38312,264.15613,79,70,40
264.17258,266.52457,83,70,40
266.54102,267.31403,84,90,40
267.33047,268.10352,86,97,40
268.11993,268.69562,88,104,40
268.71207,268.89297,84,109,40
268.90942,270.86667,89,110,40
270.88312,271.26138,86,90,40
271.27783,271.65613,83,70,40
271.67258,272.05087,79,70,40
272.06732,272.4666,80,70,40
272.48398,272.8833,81,70,40
272.90063,273.32346,82,70,40
273.34183,273.82175,83,70,40
273.84406,276.2665,84,70,40
276.28296,277.056,79,70,40
277.07245,277.84546,76,70,40
277.8619,278.63495,72,70,40
278.6514,281.00336,84,70,40
281.0198,281.79285,79,70,40
281.8093,282.5823,76,70,40
282.59875,283.3718,72,70,40
283.3882,284.88248,84,70,40
284.8981,286.38248,86,83,40
286.3981,287.9763,75,97,40
286.3981,287.9763,87,97,40
287.9947,289.51215,76,110,40
287.9947,289.72513,88,110,40
289.72513,289.92252,87,93,40
289.92252,290.11987,89,70,40
290.11987,290.31723,88,70,40
290.31723,290.51462,86,70,40
290.51462,290.71198,84,70,40
290.71198,290.90933,83,70,40
290.90933,291.10672,81,70,40
291.10672,291.31503,79,70,40
291.31503,291.52338,80,70,40
291.52338,291.73172,83,70,40
291.73172,291.94003,81,70,40
291.94003,292.1744,79,70,40
292.1744,292.40878,77,70,40
292.40878,292.67667,76,70,40
292.67667,292.98917,74,70,40
292.98917,293.76218,72,70,40
296.14703,296.52533,71,50,40
296.54178,296.92007,71,50,40
296.93652,297.3593,69,50,40
297.3777,297.85687,67,50,40
297.8777,298.65073,72,50,40
301.03558,301.41388,67,50,40
301.43033,301.80862,67,50,40
301.82507,302.24786,67,50,40
302.26624,302.74542,67,50,40
302.76624,303.53928,67,50,40
305.92413,306.30243,65,50,40
306.31888,306.69717,65,55,40
306.71362,307.1364,67,60,40
307.1548,307.63394,68,65,40
307.6548,308.42783,67,70,40
310.85654,311.30576,60,50,40
311.3253,311.7745,60,55,40
311.79404,312.30743,60,60,40
312.32974,312.9287,60,65,40
312.95474,313.72778,60,70,40
316.11264,317.84183,60,50,40
317.86264,318.09183,60,50,40
318.11264,322.09183,60,50,40
325.61264,326.09183,60,1,40
0.0,0.2790272,72,1,40
2.4704497,4.72045,67,70,40
4.72045,5.47045,64,70,40
5.47045,6.22045,60,70,40
6.22045,6.954825,55,70,40
6.97045,9.954824,55,70,40
9.970449,11.454824,55,70,40
11.470449,13.123894,60,70,40
13.142276,14.006246,59,70,40
16.274628,18.509003,62,90,40
18.524628,19.259003,65,90,40
19.274628,20.047655,65,95,40
20.064102,20.928072,64,100,40
20.946455,24.0879,57,70,40
24.10435,25.666847,59,70,40
25.683296,27.296635,59,70,40
27.316166,28.234135,55,70,40
30.503666,32.73804,55,70,40
30.503666,32.73804,64,70,40
35.003666,35.77669,64,70,40
35.79314,36.65711,67,70,40
36.67549,37.539463,62,70,40
39.807846,42.04222,55,70,40
39.807846,42.04222,64,70,40
44.307846,45.08087,64,70,40
45.097317,45.96129,67,70,40
45.97967,46.84364,62,70,40
49.266994,50.00137,66,70,40
50.016994,50.56387,69,70,40
50.579494,50.75137,66,70,40
50.766994,51.50137,71,70,40
53.766994,54.50137,66,70,40
54.516994,55.06387,69,70,40
55.079494,55.25137,66,70,40
55.266994,56.00137,71,70,40
56.016994,57.50137,62,70,40
57.516994,58.25137,63,70,40
58.266994,59.37637,64,70,40
59.391994,59.75137,67,100,40
59.766994,60.50137,67,70,40
60.516994,61.25137,62,70,40
61.266994,62.00137,60,70,40
62.016994,62.75137,60,70,40
62.766994,63.934757,60,70,40
63.951202,64.17179,62,70,40
64.17179,64.42179,60,70,40
64.42179,65.400955,59,70,40
67.67179,69.906166,67,70,40
69.92179,70.656166,67,70,40
70.67179,71.406166,67,70,40
71.42179,71.968666,67,70,40
71.98429,72.156166,72,70,40
72.17179,73.77641,72,70,40
73.795944,74.71391,71,70,40
75.52292,76.25729,67,70,40
76.27292,77.00729,67,70,40
77.02292,79.25729,71,70,40
79.27292,80.00729,72,90,40
80.02292,80.75729,74,97,40
80.77292,81.31979,76,104,40
81.33542,81.50729,72,109,40
81.52292,83.38229,77,110,40
83.39792,83.75729,74,92,40
83.77292,84.13229,71,70,40
84.14792,84.50729,67,70,40
84.52292,84.90121,68,70,40
84.917656,85.295944,69,70,40
85.31239,85.72311,70,70,40
85.74097,86.22013,71,70,40
86.24097,86.97534,72,70,40
86.99097,88.47534,55,70,40
86.99097,88.47534,64,70,40
88.49097,89.22534,55,70,40
88.49097,89.22534,64,70,40
89.24097,89.97534,55,70,40
89.24097,89.97534,64,70,40
89.99097,90.72534,55,70,40
89.99097,90.72534,64,70,40
91.49097,92.97534,55,70,40
91.49097,92.97534,64,70,40
92.99097,93.72534,55,70,40
92.99097,93.72534,64,70,40
93.74097,94.47534,55,70,40
93.74097,94.47534,64,70,40
94.49097,95.22534,55,70,40
94.49097,95.22534,64,70,40
95.24097,96.72534,65,70,40
96.74097,98.22534,65,83,40
98.24097,99.845695,66,97,40
99.86259,100.6565,55,110,40
99.86259,100.6565,67,110,40
100.67339,101.40777,55,70,40
101.42339,102.15777,60,70,40
102.17339,102.90777,64,70,40
102.92339,103.65777,65,70,40
103.67339,104.52856,59,70,40
104.54939,105.52856,60,70,40
107.79939,108.187904,62,50,40
108.204796,108.59331,62,50,40
108.6102,108.99871,60,50,40
109.0156,109.4384,59,50,40
109.45678,110.191154,60,50,40
112.45678,112.83507,55,50,40
112.45678,112.83507,65,50,40
112.85152,113.229805,55,50,40
112.85152,113.229805,65,50,40
113.246254,113.68186,55,50,40
113.246254,113.68186,65,50,40
113.7008,114.253685,55,50,40
113.7008,114.253685,65,50,40
114.277725,115.0121,55,50,40
114.277725,115.0121,64,50,40
117.277725,118.07164,60,50,40
118.899345,119.69326,55,50,40
124.96541,126.3485,60,70,40
127.18762,128.57072,60,70,40
128.8543,128.95267,69,70,40
128.99318,129.12628,69,70,40
129.13206,129.26517,67,70,40
129.27095,129.40405,65,70,40
129.40985,129.50822,64,70,40
129.54874,129.68184,64,70,40
129.68762,129.82072,65,70,40
129.8265,129.95961,67,70,40
129.96541,130.06378,65,70,40
130.1043,130.2374,65,70,40
130.24318,130.37628,64,70,40
130.38206,130.51517,62,70,40
130.52095,130.61934,60,70,40
130.65985,130.79295,60,70,40
130.79874,130.93184,62,70,40
130.93762,131.07072,64,70,40
131.0765,131.1749,62,110,40
131.2154,131.3485,62,110,40
131.3543,131.4874,64,110,40
131.49318,131.62628,65,110,40
131.63206,131.73044,64,110,40
131.77095,131.90405,64,110,40
131.90984,132.04294,62,110,40
132.04874,132.18184,60,110,40
132.18762,132.32072,65,110,40
132.3265,132.45961,65,110,40
132.4654,132.5985,65,110,40
132.6043,132.7374,65,110,40
132.74318,133.29294,64,110,40
133.85428,135.23738,60,70,40
136.0765,137.45961,60,70,40
137.74316,137.84155,69,70,40
137.88206,138.01517,69,70,40
138.02095,138.15405,67,70,40
138.15984,138.29294,65,70,40
138.29872,138.39711,64,70,40
138.43762,138.57071,64,70,40
138.5765,138.70961,65,70,40
138.7154,138.8485,67,70,40
138.85428,138.95267,65,70,40
138.99316,139.12627,65,70,40
139.13206,139.26517,64,70,40
139.27095,139.40405,62,70,40
139.40984,139.50821,60,70,40
139.54872,139.68182,60,70,40
139.6876,139.82071,62,70,40
139.8265,139.95961,64,70,40
139.9654,140.06377,62,110,40
140.10428,140.23738,62,110,40
140.24316,140.37627,64,110,40
140.38205,140.51515,65,110,40
140.52095,140.61932,64,110,40
140.65984,140.79294,64,110,40
140.79872,140.93182,62,110,40
140.9376,141.07071,60,110,40
141.0765,141.20961,65,110,40
141.2154,141.3485,65,110,40
141.35428,141.4925,65,110,40
141.4985,141.64226,65,110,40
141.64851,142.24226,64,110,40
142.2485,142.3469,75,70,40
142.38739,142.5205,75,70,40
142.52629,142.6594,74,70,40
142.66518,142.79828,72,70,40
142.80406,142.90245,72,70,40
142.94295,143.07605,72,70,40
143.08185,143.21495,70,70,40
143.22073,143.35384,69,70,40
143.35962,143.458,69,70,40
143.4985,143.6316,69,70,40
143.63739,143.7705,70,70,40
143.77629,143.9094,72,70,40
143.91518,144.18716,74,70,40
144.47073,144.5691,74,70,40
144.60962,144.74272,74,70,40
144.7485,144.8816,72,70,40
144.88739,145.0205,70,70,40
145.02629,145.12466,70,70,40
145.16518,145.29828,70,70,40
145.30406,145.43716,69,70,40
145.44295,145.57605,67,70,40
145.58183,145.68022,67,70,40
145.72073,145.85384,67,70,40
145.85962,145.99272,69,70,40
145.9985,146.1316,70,70,40
146.13739,146.40938,72,70,40
146.69295,146.79134,69,70,40
146.83183,146.96494,69,71,40
146.97073,147.10382,67,72,40
147.10962,147.24272,65,74,40
147.2485,147.34688,70,75,40
147.38739,147.5205,70,77,40
147.52628,147.65938,69,78,40
147.66518,147.79828,67,80,40
147.80406,147.90244,69,81,40
147.94295,148.07605,69,83,40
148.08183,148.21494,67,84,40
148.22072,148.35382,65,86,40
148.35962,148.458,64,87,40
148.4985,148.6316,64,89,40
148.63739,148.7705,62,90,40
148.77628,148.90938,60,91,40
148.91518,149.01355,69,93,40
149.05406,149.18716,69,94,40
149.19295,149.32605,67,96,40
149.33183,149.46494,65,97,40
149.47072,149.5691,70,99,40
149.60962,149.74272,70,100,40
149.7485,149.8816,69,102,40
149.88739,150.0205,67,103,40
150.02628,150.12845,69,105,40
150.17052,150.30873,69,106,40
150.31474,150.4585,67,108,40
150.46474,150.61606,65,109,40
150.62263,151.17241,72,110,40
151.17819,151.27657,72,70,40
151.31708,151.45018,72,70,40
151.45596,151.58907,70,70,40
151.59485,151.72795,69,70,40
151.73375,151.83212,69,70,40
151.87263,152.00574,69,70,40
152.01152,152.14462,67,70,40
152.1504,152.28351,65,70,40
152.2893,152.38768,65,70,40
152.42819,152.5613,65,70,40
152.56708,152.66545,64,70,40
152.70596,152.80435,65,70,40
152.84485,152.97795,66,70,40
152.98375,153.08212,67,70,40
153.12263,153.22101,67,70,40
153.26152,153.3599,67,70,40
153.4004,153.4988,74,70,40
153.53929,153.6724,74,70,40
153.67819,153.8113,72,70,40
153.81708,153.95018,70,70,40
153.95596,154.05435,70,70,40
154.09485,154.22795,70,70,40
154.23375,154.36684,69,70,40
154.37263,154.50574,67,70,40
154.51152,154.6099,67,70,40
154.6504,154.78351,67,70,40
154.78929,154.88768,65,70,40
154.92819,155.02657,67,70,40
155.06708,155.16545,69,70,40
155.20596,155.33907,65,70,40
155.34485,155.47795,64,70,40
155.48373,155.61684,63,70,40
155.62263,155.72101,62,70,40
155.76152,155.89462,74,70,40
155.9004,156.03351,72,70,40
156.03929,156.1724,70,70,40
156.17819,156.27657,69,70,40
156.31708,156.45018,69,70,40
156.45596,156.58907,70,70,40
156.59485,156.72795,72,70,40
156.73373,156.83212,70,70,40
156.87263,157.00574,70,70,40
157.01152,157.14462,69,70,40
157.1504,157.28351,67,70,40
157.28929,157.38768,65,70,40
157.42818,157.56128,65,70,40
157.56708,157.70018,67,70,40
157.70596,157.83907,69,70,40
157.84485,157.94322,70,110,40
157.98373,158.11684,67,110,40
158.12263,158.25572,69,110,40
158.26152,158.39462,70,110,40
158.4004,158.49878,69,110,40
158.53929,158.6724,69,110,40
158.67818,158.81128,67,110,40
158.81708,158.95018,65,110,40
158.95596,159.08907,70,110,40
159.09485,159.22795,70,110,40
159.23373,159.36684,70,110,40
159.37262,159.50572,70,110,40
159.51152,160.06128,69,110,40
160.06706,160.16545,75,70,40
160.20596,160.33907,75,70,40
160.34485,160.47795,74,70,40
160.48373,160.61684,72,70,40
160.62262,160.72101,72,70,40
160.76152,160.89462,72,70,40
160.9004,161.03351,70,70,40
161.03929,161.1724,69,70,40
161.17818,161.27657,69,70,40
161.31706,161.45016,69,70,40
161.45596,161.58907,70,70,40
161.59485,161.72795,72,70,40
161.73373,162.00572,74,70,40
162.28929,162.38766,74,70,40
162.42818,162.56128,74,70,40
162.56706,162.70016,72,70,40
162.70596,162.83907,70,70,40
162.84485,162.94322,70,70,40
162.98373,163.11684,70,70,40
163.12262,163.25572,69,70,40
163.2615,163.3946,67,70,40
163.4004,163.49878,67,70,40
163.53929,163.6724,67,70,40
163.67818,163.81128,69,70,40
163.81706,163.95016,70,70,40
163.95595,164.22795,72,70,40
164.5115,164.6099,69,70,40
164.6504,164.7835,69,71,40
164.78929,164.9224,67,72,40
164.92818,165.06128,65,74,40
165.06706,165.16545,70,75,40
165.20595,165.33905,70,77,40
165.34485,165.47795,69,78,40
165.48373,165.61684,67,80,40
165.62262,165.721,69,81,40
165.7615,165.8946,69,83,40
165.90039,166.0335,67,84,40
166.03929,166.1724,65,86,40
166.17818,166.27655,64,87,40
166.31706,166.45016,64,89,40
166.45595,166.58905,62,90,40
166.59485,166.72794,60,91,40
166.73373,166.8321,69,93,40
166.87262,167.00572,69,94,40
167.0115,167.1446,67,96,40
167.15039,167.2835,65,97,40
167.28929,167.39145,70,99,40
167.43352,167.57173,70,100,40
167.57774,167.71597,69,102,40
167.72197,167.8602,67,103,40
167.86621,167.97246,69,105,40
168.0162,168.15996,69,106,40
168.16621,168.31595,67,108,40
168.32246,168.48218,65,109,40
168.48912,169.09445,72,110,40
169.10023,169.19861,72,70,40
169.23912,169.37222,72,70,40
169.378,169.51111,70,70,40
169.5169,169.65001,69,70,40
169.65579,169.75417,69,70,40
169.79468,169.92778,69,70,40
169.93356,170.06667,67,70,40
170.07245,170.20555,65,70,40
170.21135,170.30972,65,70,40
170.35023,170.48334,65,70,40
170.48912,170.58751,64,70,40
170.628,170.7264,65,70,40
170.7669,170.90001,66,70,40
170.90579,171.00417,67,70,40
171.04468,171.14305,67,70,40
171.18356,171.28195,67,70,40
171.32245,171.42084,74,70,40
171.46135,171.59445,74,70,40
171.60023,171.73334,72,70,40
171.73912,171.87222,70,70,40
171.878,171.9764,70,70,40
172.01689,172.15,70,70,40
172.15579,172.2889,69,70,40
172.29468,172.42778,67,70,40
172.43356,172.53195,67,70,40
172.57245,172.70555,67,70,40
172.71135,172.80972,65,70,40
172.85023,172.94861,67,70,40
172.98912,173.0875,69,70,40
173.128,173.26111,65,70,40
173.26689,173.4,64,70,40
173.40579,173.5389,63,70,40
173.54468,173.64305,62,70,40
173.68356,173.81667,74,70,40
173.82245,173.95555,72,70,40
173.96133,174.09444,70,70,40
174.10023,174.19861,69,70,40
174.23912,174.37222,69,70,40
174.378,174.51111,70,70,40
174.51689,174.65,72,70,40
174.65579,174.75417,70,70,40
174.79468,174.92778,70,70,40
174.93356,175.06667,69,70,40
175.07245,175.20555,67,70,40
175.21133,175.30972,65,70,40
175.35023,175.48334,65,70,40
175.48912,175.62222,67,70,40
175.628,175.76111,69,70,40
175.76689,175.86528,70,110,40
175.90578,176.03888,67,110,40
176.04468,176.17778,69,110,40
176.18356,176.31667,70,110,40
176.32245,176.42082,69,110,40
176.46133,176.59444,69,110,40
176.60023,176.73332,67,110,40
176.73912,176.87222,65,110,40
176.878,177.01622,70,110,40
177.02223,177.16046,70,110,40
177.16647,177.31021,70,110,40
177.31647,177.4662,70,110,40
177.47272,178.0912,69,110,40
178.65327,178.75165,69,70,40
178.79216,178.92526,69,70,40
178.93105,179.06415,67,70,40
179.06993,179.20303,65,70,40
179.20883,179.3072,65,70,40
179.34772,179.48082,65,70,40
179.4866,179.6197,64,70,40
179.62549,179.75859,62,70,40
179.76439,179.86276,62,70,40
179.90327,180.03638,62,70,40
180.04216,180.17526,60,70,40
180.18105,180.31415,59,70,40
180.31993,180.59193,59,70,40
180.87549,181.14748,62,75,40
181.43105,181.70303,67,81,40
181.9866,182.25859,74,87,40
182.54216,182.81415,74,93,40
183.09772,183.38016,77,99,40
183.67464,183.96838,74,105,40
184.3288,187.32098,62,110,40
191.2663,192.0163,60,70,40
192.0163,192.7663,64,70,40
192.7663,193.5163,67,70,40
193.5163,194.2663,72,70,40
194.2663,195.08228,76,70,40
195.09964,198.08401,77,70,40
198.09964,199.58401,64,70,40
199.59964,201.08401,61,100,40
201.09964,201.83401,65,100,40
206.34964,207.83401,65,76,40
207.84964,208.58401,64,82,40
208.59964,210.08401,69,85,40
210.09964,211.58401,65,92,40
211.59964,212.33401,59,98,40
212.34964,213.08401,65,101,40
213.09964,214.79759,65,104,40
214.81992,215.86902,64,110,40
218.14134,220.37572,55,70,40
218.14134,220.37572,64,70,40
222.64134,223.37572,64,70,40
223.39134,224.12572,67,70,40
224.14134,224.87572,62,70,40
227.14134,229.37572,55,70,40
227.14134,229.37572,64,70,40
231.64134,232.37572,64,70,40
232.39134,233.12572,67,70,40
233.14134,233.87572,62,70,40
236.14134,236.87572,66,70,40
236.89134,237.43822,69,70,40
237.45384,237.62572,66,70,40
237.64134,238.37572,71,70,40
240.64134,241.37572,66,70,40
241.39134,241.57884,69,70,40
241.57884,241.76634,66,70,40
241.76634,241.95384,69,70,40
241.95384,242.14134,66,70,40
242.14134,242.87572,71,70,40
242.89134,244.37572,62,70,40
244.39134,245.12572,63,70,40
245.14134,246.25072,64,70,40
246.26634,246.62572,67,100,40
246.64134,247.37572,67,70,40
247.39134,248.12572,62,70,40
248.14134,248.87572,60,70,40
248.89134,249.62572,60,70,40
249.83871,250.03607,60,70,40
250.03607,250.23344,59,70,40
250.23344,250.43082,60,70,40
250.43082,250.6451,59,70,40
250.6451,250.85939,60,70,40
250.85939,251.09377,62,70,40
251.09377,251.32814,60,70,40
251.32814,252.13817,59,70,40
254.52304,256.875,67,70,40
256.89145,257.6645,67,70,40
257.68094,258.45395,67,70,40
258.4704,259.04605,67,70,40
259.0625,259.24344,72,70,40
259.2599,260.94592,72,70,40
260.96826,261.78772,71,70,40
262.59363,263.36667,67,70,40
263.38312,264.15613,67,70,40
264.17258,266.52457,71,70,40
266.54102,267.31403,72,90,40
267.33047,268.10352,74,97,40
268.11993,268.69562,76,104,40
268.71207,268.89297,72,109,40
268.90942,270.86667,77,110,40
270.88312,271.26138,74,90,40
271.27783,271.65613,71,70,40
271.67258,272.05087,67,70,40
272.06732,272.4666,68,70,40
272.48398,272.8833,69,70,40
272.90063,273.32346,70,70,40
273.34183,273.82175,71,70,40
273.84406,277.2698,72,70,40
273.84406,277.2698,64,70,40
277.2698,277.46716,60,70,40
277.46716,277.66455,64,70,40
277.66455,277.8619,67,70,40
277.8619,278.0593,72,70,40
278.0593,278.25665,67,70,40
278.25665,278.454,64,70,40
278.454,278.6514,60,70,40
278.6514,282.00665,76,70,40
282.00665,282.204,60,70,40
282.204,282.4014,64,70,40
282.4014,282.59875,67,70,40
282.59875,282.7961,72,70,40
282.7961,282.9935,67,70,40
282.9935,283.19086,64,70,40
283.19086,283.3882,60,70,40
283.5856,283.7731,60,71,40
283.7731,283.9606,65,73,40
283.9606,284.1481,69,75,40
284.1481,284.3356,72,76,40
284.3356,284.5231,69,78,40
284.5231,284.7106,65,80,40
284.7106,284.8981,60,81,40
285.0856,285.2731,60,85,40
285.2731,285.4606,65,87,40
285.4606,285.6481,69,88,40
285.6481,285.8356,72,90,40
285.8356,286.0231,69,92,40
286.0231,286.2106,65,93,40
286.2106,286.3981,60,95,40
286.5856,286.7731,60,98,40
286.7731,286.9606,72,100,40
286.9606,287.1481,60,102,40
287.1481,287.3508,72,104,40
287.3508,287.5535,60,105,40
287.5535,287.77408,72,107,40
287.77408,287.9947,60,109,40
288.21527,288.40277,60,70,40
288.40277,288.59027,64,70,40
288.59027,288.77777,67,70,40
288.77777,288.96527,72,70,40
288.96527,289.15277,67,70,40
289.15277,289.34027,64,70,40
289.34027,289.52777,60,70,40
289.72513,289.92252,60,70,40
289.92252,290.11987,64,70,40
290.11987,290.31723,67,70,40
290.31723,290.51462,72,70,40
290.51462,290.71198,67,70,40
290.71198,290.90933,64,70,40
290.90933,291.10672,60,70,40
291.31503,291.52338,59,70,40
291.52338,291.73172,62,70,40
291.73172,291.94003,59,70,40
291.94003,292.1744,62,70,40
292.1744,292.40878,59,70,40
292.40878,292.67667,62,70,40
292.67667,292.98917,59,70,40
292.98917,293.76218,60,70,40
296.14703,296.52533,62,50,40
296.54178,296.92007,62,50,40
296.93652,297.3593,60,50,40
297.3777,297.85687,59,50,40
297.8777,298.65073,60,50,40
301.03558,301.41388,55,50,40
301.03558,301.41388,65,50,40
301.43033,301.80862,55,50,40
301.43033,301.80862,65,50,40
301.82507,302.24786,55,50,40
301.82507,302.24786,65,50,40
302.26624,302.74542,55,50,40
302.26624,302.74542,65,50,40
302.76624,303.53928,55,50,40
302.76624,303.53928,64,50,40
305.92413,306.30243,60,50,40
306.31888,306.69717,60,55,40
306.71362,307.1364,64,60,40
307.1548,307.63394,65,65,40
307.6548,308.42783,64,70,40
311.3253,311.7745,60,55,40
311.79404,312.30743,55,60,40
312.32974,312.9287,56,65,40
312.95474,313.72778,55,70,40
316.11264,317.84183,55,50,40
317.86264,318.09183,55,50,40
318.11264,322.09183,55,50,40
0.0,0.2790272,48,1,41
2.4704497,4.72045,64,70,41
4.72045,5.47045,60,70,41
5.47045,6.22045,55,70,41
6.22045,6.954825,52,70,41
6.97045,9.954824,53,70,41
9.970449,11.454824,52,70,41
11.470449,12.243476,55,70,41
12.259923,13.123894,54,70,41
13.142276,14.006246,55,70,41
16.274628,18.509003,59,90,41
18.524628,19.259003,59,90,41
19.274628,20.047655,62,95,41
20.064102,20.928072,60,100,41
20.946455,22.508953,57,70,41
22.525402,24.0879,53,70,41
24.10435,25.666847,53,70,41
25.683296,26.851059,53,70,41
26.867506,27.08179,55,70,41
27.08179,27.316166,53,70,41
27.316166,28.234135,52,70,41
30.503666,32.73804,60,70,41
35.003666,35.77669,55,70,41
35.79314,36.65711,60,70,41
36.67549,37.539463,59,70,41
39.807846,42.04222,60,70,41
44.307846,45.08087,55,70,41
45.097317,45.96129,60,70,41
45.97967,46.84364,59,70,41
46.862022,47.635048,62,70,41
47.651497,48.424522,59,70,41
48.44097,49.249634,55,70,41
49.266994,50.00137,57,70,41
50.016994,50.56387,54,70,41
50.579494,50.75137,50,70,41
50.766994,51.50137,55,70,41
53.766994,54.50137,57,70,41
54.516994,55.06387,54,70,41
55.079494,55.25137,50,70,41
55.266994,56.00137,55,70,41
56.016994,57.50137,55,70,41
57.516994,58.25137,55,70,41
58.266994,58.641994,55,70,41
58.641994,59.016994,56,80,41
59.016994,59.391994,57,90,41
59.391994,59.766994,58,100,41
59.766994,60.50137,59,70,41
60.516994,61.25137,59,70,41
61.266994,62.00137,57,70,41
62.016994,62.75137,57,70,41
63.556465,64.400955,54,70,41
64.42179,65.400955,55,70,41
67.67179,69.906166,62,70,41
69.92179,70.656166,60,70,41
70.67179,71.406166,65,70,41
71.42179,71.968666,64,70,41
71.98429,72.156166,67,70,41
72.17179,72.906166,67,70,41
72.92179,73.77641,55,70,41
73.795944,74.71391,55,70,41
74.733444,75.50647,55,70,41
75.52292,76.25729,59,70,41
76.27292,77.00729,62,70,41
77.02292,79.25729,55,70,41
77.02292,79.25729,67,70,41
79.27292,80.00729,55,90,41
79.27292,80.00729,67,90,41
80.02292,80.75729,55,97,41
80.02292,80.75729,65,97,41
80.77292,81.50729,55,104,41
80.77292,81.50729,64,104,41
81.52292,83.75729,55,110,41
81.52292,83.75729,62,110,41
86.24097,88.47534,48,70,41
86.24097,88.47534,60,70,41
88.49097,89.22534,48,70,41
88.49097,89.22534,60,70,41
89.24097,89.97534,48,70,41
89.24097,89.97534,60,70,41
89.99097,90.72534,48,70,41
89.99097,90.72534,60,70,41
90.74097,92.97534,48,70,41
90.74097,92.97534,60,70,41
92.99097,93.72534,48,70,41
92.99097,93.72534,60,70,41
93.74097,94.47534,48,70,41
93.74097,94.47534,60,70,41
94.49097,95.22534,48,70,41
94.49097,95.22534,60,70,41
95.24097,96.72534,48,70,41
95.24097,96.72534,60,70,41
96.74097,98.22534,48,83,41
96.74097,98.22534,60,83,41
98.24097,99.845695,48,97,41
98.24097,99.845695,60,97,41
99.86259,100.6565,48,110,41
99.86259,100.6565,60,110,41
100.67339,101.40777,52,70,41
101.42339,102.15777,55,70,41
102.17339,102.90777,60,70,41
102.92339,103.65777,59,70,41
103.67339,104.52856,53,70,41
104.54939,105.52856,52,70,41
107.79939,108.187904,55,50,41
108.204796,108.59331,55,50,41
108.6102,108.99871,55,50,41
109.0156,109.4384,55,50,41
109.45678,110.191154,55,50,41
112.45678,112.83507,62,50,41
112.85152,113.229805,62,50,41
113.246254,113.68186,60,50,41
113.7008,114.253685,59,50,41
114.277725,115.0121,60,50,41
117.277725,118.07164,55,50,41
118.899345,119.69326,52,50,41
124.96541,125.06378,60,70,41
125.104294,125.2374,60,70,41
125.24319,125.37628,58,70,41
125.38207,125.515175,57,70,41
125.52096,125.61934,57,70,41
125.65985,125.79295,57,70,41
125.79874,125.93184,55,70,41
125.93763,126.07073,53,70,41
126.076515,126.3485,52,70,41
127.18762,127.286,62,70,41
127.326515,127.45962,62,70,41
127.4654,127.5985,60,70,41
127.604294,127.7374,58,70,41
127.74318,127.84156,58,70,41
127.88207,128.01517,58,70,41
128.02097,128.15405,57,70,41
128.15985,128.29295,55,70,41
128.29874,128.57072,53,70,41
128.8543,129.68184,60,70,41
129.96541,130.51517,59,70,41
130.52095,130.79295,60,70,41
131.0765,131.1749,57,110,41
131.2154,131.3485,57,110,41
131.3543,131.4874,55,110,41
131.49318,131.62628,53,110,41
131.63206,131.73044,60,110,41
131.77095,131.90405,60,110,41
131.90984,132.04294,59,110,41
132.04874,132.18184,60,110,41
132.18762,132.32072,55,110,41
132.3265,132.45961,55,110,41
132.4654,132.5985,55,110,41
132.6043,132.7374,55,110,41
132.74318,133.29294,55,110,41
133.85428,133.95267,60,70,41
133.99318,134.12628,60,70,41
134.13206,134.26517,58,70,41
134.27095,134.40405,57,70,41
134.40984,134.50822,57,70,41
134.54874,134.68182,57,70,41
134.68762,134.82072,55,70,41
134.8265,134.95961,53,70,41
134.9654,135.23738,52,70,41
136.0765,136.17488,62,70,41
136.2154,136.3485,62,70,41
136.35428,136.48738,60,70,41
136.49318,136.62627,58,70,41
136.63206,136.73044,58,70,41
136.77095,136.90405,58,70,41
136.90984,137.04294,57,70,41
137.04872,137.18182,55,70,41
137.18762,137.45961,53,70,41
137.74316,138.57071,60,70,41
138.85428,139.40405,59,70,41
139.40984,139.68182,60,70,41
139.9654,140.06377,57,110,41
140.10428,140.23738,57,110,41
140.24316,140.37627,55,110,41
140.38205,140.51515,53,110,41
140.52095,140.61932,60,110,41
140.65984,140.79294,60,110,41
140.79872,140.93182,59,110,41
140.9376,141.07071,60,110,41
141.0765,141.20961,55,110,41
141.2154,141.3485,55,110,41
141.35428,141.4925,55,110,41
141.4985,141.64226,55,110,41
141.64851,142.24226,55,110,41
142.80406,142.90245,69,70,41
142.94295,143.07605,69,70,41
143.08185,143.21495,67,70,41
143.22073,143.35384,66,70,41
143.35962,143.458,72,70,41
143.4985,143.6316,72,70,41
143.63739,143.7705,70,70,41
143.77629,143.9094,69,70,41
143.91518,144.01355,62,70,41
144.05406,144.18716,62,70,41
144.19295,144.32605,60,70,41
144.33183,144.46494,58,70,41
145.02629,145.12466,67,70,41
145.16518,145.29828,67,70,41
145.30406,145.43716,65,70,41
145.44295,145.57605,64,70,41
145.58183,145.68022,70,70,41
145.72073,145.85384,70,70,41
145.85962,145.99272,69,70,41
145.9985,146.1316,67,70,41
146.13739,146.23578,60,70,41
146.27628,146.40938,60,70,41
146.41518,146.54828,58,70,41
146.55406,146.68716,57,70,41
146.69295,146.79134,53,70,41
146.83183,146.96494,53,71,41
146.97073,147.10382,55,72,41
147.10962,147.24272,57,74,41
147.2485,147.34688,52,75,41
147.38739,147.5205,52,77,41
147.52628,147.65938,53,78,41
147.66518,147.79828,55,80,41
147.80406,147.90244,53,81,41
147.94295,148.07605,53,83,41
148.08183,148.21494,55,84,41
148.22072,148.35382,57,86,41
148.35962,148.90938,58,87,41
148.91518,149.18716,48,93,41
149.19295,149.46494,60,96,41
149.47072,149.74272,48,99,41
149.7485,150.0205,60,102,41
150.02628,150.30873,48,105,41
150.31474,150.61606,60,108,41
150.62263,150.89462,48,110,41
151.17819,155.33907,60,110,41
155.62263,156.45018,65,70,41
156.73373,157.28351,64,70,41
157.28929,157.38768,65,70,41
157.42818,157.56128,65,70,41
157.56708,157.70018,64,70,41
157.70596,157.83907,63,70,41
157.84485,157.94322,62,110,41
157.98373,158.11684,62,110,41
158.12263,158.25572,60,110,41
158.26152,158.39462,58,110,41
158.4004,158.53351,60,110,41
158.53929,158.6724,60,110,41
158.67818,158.81128,60,110,41
158.81708,158.95018,60,110,41
158.95596,159.08907,48,110,41
158.95596,159.08907,60,110,41
159.09485,159.22795,48,110,41
159.09485,159.22795,60,110,41
159.23373,159.36684,48,110,41
159.23373,159.36684,60,110,41
159.37262,159.50572,48,110,41
159.37262,159.50572,60,110,41
159.51152,160.06128,53,110,41
160.62262,160.72101,69,70,41
160.76152,160.89462,69,70,41
160.9004,161.03351,67,70,41
161.03929,161.1724,66,70,41
161.17818,161.27657,72,70,41
161.31706,161.45016,72,70,41
161.45596,161.58907,70,70,41
161.59485,161.72795,69,70,41
161.73373,161.8321,62,70,41
161.87262,162.00572,62,70,41
162.0115,162.1446,60,70,41
162.1504,162.28351,58,70,41
162.84485,162.94322,67,70,41
162.98373,163.11684,67,70,41
163.12262,163.25572,65,70,41
163.2615,163.3946,64,70,41
163.4004,163.49878,70,70,41
163.53929,163.6724,70,70,41
163.67818,163.81128,69,70,41
163.81706,163.95016,67,70,41
163.95595,164.05434,60,70,41
164.09485,164.22795,60,70,41
164.23373,164.36684,58,70,41
164.37262,164.50572,57,70,41
164.5115,164.6099,53,70,41
164.6504,164.7835,53,71,41
164.78929,164.9224,55,72,41
164.92818,165.06128,57,74,41
165.06706,165.16545,52,75,41
165.20595,165.33905,52,77,41
165.34485,165.47795,53,78,41
165.48373,165.61684,55,80,41
165.62262,165.721,53,81,41
165.7615,165.8946,53,83,41
165.90039,166.0335,55,84,41
166.03929,166.1724,57,86,41
166.17818,166.72794,58,87,41
166.73373,167.00572,48,93,41
167.0115,167.2835,60,96,41
167.28929,167.57173,48,99,41
167.57774,167.8602,60,102,41
167.86621,168.15996,48,105,41
168.16621,168.48218,60,108,41
168.48912,168.8155,48,110,41
169.10023,173.26111,60,110,41
173.54468,174.37222,65,70,41
174.65579,175.20555,64,70,41
175.21133,175.30972,65,70,41
175.35023,175.48334,65,70,41
175.48912,175.62222,64,70,41
175.628,175.76111,63,70,41
175.76689,175.86528,62,110,41
175.90578,176.03888,62,110,41
176.04468,176.17778,60,110,41
176.18356,176.31667,58,110,41
176.32245,176.45555,60,110,41
176.46133,176.59444,60,110,41
176.60023,176.73332,60,110,41
176.73912,176.87222,60,110,41
176.878,177.01622,48,110,41
176.878,177.01622,60,110,41
177.02223,177.16046,48,110,41
177.02223,177.16046,60,110,41
177.16647,177.31021,48,110,41
177.16647,177.31021,60,110,41
177.31647,177.4662,48,110,41
177.31647,177.4662,60,110,41
177.47272,178.0912,53,110,41
179.20883,179.3072,69,70,41
179.34772,179.48082,69,70,41
179.4866,179.6197,67,70,41
179.62549,179.75859,65,70,41
179.76439,179.86276,65,70,41
179.90327,180.03638,65,70,41
180.04216,180.17526,64,70,41
180.18105,180.31415,62,70,41
180.31993,180.59193,62,70,41
180.87549,181.14748,67,75,41
181.43105,181.70303,71,81,41
181.9866,182.25859,67,87,41
182.54216,182.81415,67,93,41
183.09772,183.38016,67,99,41
183.67464,183.96838,67,105,41
184.3288,187.32098,59,110,41
191.2663,192.0163,55,70,41
192.0163,192.7663,60,70,41
192.7663,193.5163,64,70,41
193.5163,194.2663,67,70,41
194.2663,195.08228,72,70,41
195.09964,198.08401,74,70,41
198.09964,199.58401,60,70,41
199.59964,201.08401,58,100,41
201.09964,201.83401,59,90,41
201.84964,202.58401,55,70,41
202.59964,203.33401,59,70,41
203.34964,204.08401,62,70,41
204.09964,206.33401,65,70,41
206.34964,207.08401,59,76,41
207.09964,207.83401,62,79,41
207.84964,208.58401,60,82,41
208.59964,210.08401,53,85,41
210.09964,211.58401,50,92,41
211.59964,213.08401,55,98,41
213.09964,215.86902,48,104,41
218.14134,220.37572,60,70,41
222.64134,223.37572,55,70,41
223.39134,224.12572,60,70,41
224.14134,224.87572,59,70,41
227.14134,229.37572,60,70,41
231.64134,232.37572,55,70,41
232.39134,233.12572,60,70,41
233.14134,233.87572,59,70,41
233.89134,234.62572,62,70,41
234.64134,235.37572,59,70,41
235.39134,236.12572,55,70,41
236.14134,236.87572,57,70,41
236.89134,237.43822,54,70,41
237.45384,237.62572,50,70,41
237.64134,238.37572,55,70,41
240.64134,241.37572,57,70,41
241.39134,241.57884,54,70,41
241.57884,241.76634,50,70,41
241.76634,241.95384,54,70,41
241.95384,242.14134,50,70,41
242.14134,242.87572,55,70,41
242.89134,244.37572,55,70,41
244.39134,245.12572,55,70,41
245.14134,245.51634,55,70,41
245.51634,245.89134,56,80,41
245.89134,246.26634,57,90,41
246.26634,246.64134,58,100,41
246.64134,247.37572,59,70,41
247.39134,248.12572,59,70,41
248.14134,248.87572,57,70,41
248.89134,249.62572,57,70,41
250.43082,251.30861,54,70,41
251.32814,252.13817,55,70,41
254.52304,256.875,62,70,41
256.89145,257.6645,60,70,41
257.68094,258.45395,65,70,41
258.4704,259.04605,64,70,41
259.0625,259.24344,67,70,41
259.2599,260.0329,67,70,41
260.04935,260.94592,55,70,41
260.96826,261.78772,55,70,41
264.17258,266.52457,67,70,41
266.54102,267.31403,67,90,41
267.33047,268.10352,67,97,41
268.11993,268.69562,67,104,41
268.71207,268.89297,64,110,41
268.90942,269.68243,62,110,41
270.48837,271.26138,55,70,41
275.69086,275.88824,48,70,41
275.88824,276.0856,52,70,41
276.0856,276.28296,55,70,41
276.28296,276.48035,60,70,41
276.48035,276.6777,55,70,41
276.6777,276.87506,52,70,41
276.87506,277.07245,48,70,41
277.07245,280.4277,60,70,41
280.4277,280.62506,48,70,41
280.62506,280.82245,52,70,41
280.82245,281.0198,55,70,41
281.0198,281.21716,60,70,41
281.21716,281.41455,55,70,41
281.41455,281.6119,52,70,41
281.6119,281.8093,48,70,41
281.8093,284.13248,60,70,41
284.1481,285.63248,48,76,41
284.1481,285.63248,60,76,41
285.6481,287.13248,48,90,41
285.6481,287.13248,60,90,41
287.1481,287.9763,54,104,41
287.9947,288.76215,55,110,41
288.77777,289.51215,55,70,41
289.52777,290.30078,60,70,41
290.31723,291.09027,64,70,41
291.10672,291.9227,65,70,41
291.94003,292.9631,53,70,41
292.98917,293.76218,52,70,41
296.14703,296.52533,55,50,41
296.54178,296.92007,55,50,41
296.93652,297.3593,55,50,41
297.3777,297.85687,55,50,41
297.8777,298.65073,55,50,41
301.03558,301.41388,62,50,41
301.43033,301.80862,62,50,41
301.82507,302.24786,60,50,41
302.26624,302.74542,59,50,41
302.76624,303.53928,60,50,41
304.34518,304.72348,60,50,41
304.73993,305.11823,60,50,41
305.13467,305.51294,58,50,41
305.5294,305.90768,56,50,41
305.92413,306.30243,56,50,41
306.31888,306.69717,56,55,41
306.71362,307.1364,55,60,41
307.1548,307.63394,53,65,41
307.6548,308.42783,60,70,41
310.85654,311.30576,53,50,41
311.3253,311.7745,53,55,41
311.79404,312.30743,52,60,41
312.32974,312.9287,53,65,41
312.95474,313.72778,52,70,41
316.11264,317.84183,52,50,41
317.86264,318.09183,52,50,41
318.11264,322.09183,52,50,41
0.0,0.2790272,48,1,42
2.4704497,4.72045,36,70,42
4.72045,5.47045,40,70,42
5.47045,6.22045,43,70,42
6.22045,6.954825,48,70,42
6.97045,9.954824,50,70,42
9.970449,11.454824,48,70,42
11.470449,14.006246,43,70,42
16.274628,18.509003,43,90,42
18.524628,19.259003,55,90,42
19.274628,20.047655,56,95,42
20.064102,20.928072,57,100,42
20.946455,22.508953,53,70,42
22.525402,24.0879,38,70,42
24.10435,25.666847,43,70,42
25.683296,28.234135,36,70,42
30.503666,32.73804,48,70,42
35.003666,35.77669,48,70,42
35.79314,36.65711,52,70,42
36.67549,37.539463,55,70,42
39.807846,42.04222,48,70,42
44.307846,45.08087,48,70,42
45.097317,45.96129,52,70,42
45.97967,46.84364,55,70,42
49.266994,50.75137,48,70,42
50.766994,51.50137,47,70,42
53.766994,55.25137,48,70,42
55.266994,56.75137,47,70,42
56.766994,58.25137,47,70,42
58.266994,59.37637,48,70,42
59.391994,59.75137,49,100,42
59.766994,61.25137,50,70,42
61.266994,62.75137,38,70,42
62.766994,65.400955,43,70,42
65.42179,66.156166,55,70,42
66.17179,66.906166,59,70,42
66.92179,67.656166,62,70,42
67.67179,69.906166,65,70,42
69.92179,70.656166,64,70,42
70.67179,71.406166,59,70,42
71.42179,71.968666,60,70,42
71.98429,72.156166,64,70,42
72.17179,72.54679,67,70,42
72.54679,72.92179,66,70,42
72.92179,73.327194,67,70,42
73.327194,73.795944,66,70,42
73.795944,74.71391,67,70,42
74.733444,75.50647,43,70,42
75.52292,76.25729,47,70,42
76.27292,77.00729,50,70,42
77.02292,79.25729,53,70,42
79.27292,80.00729,52,90,42
80.02292,80.75729,47,97,42
80.77292,81.50729,48,104,42
81.52292,83.75729,43,110,42
86.24097,88.47534,48,70,42
88.49097,89.22534,48,70,42
89.24097,89.97534,48,70,42
89.99097,90.72534,48,70,42
90.74097,92.97534,46,70,42
92.99097,93.72534,46,70,42
93.74097,94.47534,46,70,42
94.49097,95.22534,46,70,42
95.24097,96.72534,45,70,42
96.74097,98.22534,45,83,42
98.24097,99.845695,44,97,42
99.86259,102.90777,43,110,42
102.92339,104.52856,43,70,42
104.54939,105.52856,48,70,42
107.79939,108.187904,53,50,42
108.204796,108.59331,53,50,42
108.6102,108.99871,53,50,42
109.0156,109.4384,53,50,42
109.45678,110.191154,52,50,42
112.45678,112.83507,47,50,42
112.85152,113.229805,47,50,42
113.246254,113.68186,45,50,42
113.7008,114.253685,43,50,42
114.277725,115.0121,48,50,42
117.277725,118.07164,36,50,42
118.899345,119.69326,36,50,42
124.96541,125.2374,53,70,42
125.52096,125.79295,53,70,42
126.076515,126.3485,48,70,42
127.18762,127.45962,36,70,42
127.74318,128.01517,48,70,42
128.29874,128.57072,41,70,42
128.8543,129.40405,53,70,42
129.40985,129.68184,48,70,42
129.96541,130.51517,43,70,42
130.52095,130.79295,48,70,42
131.0765,131.1749,53,110,42
131.2154,131.3485,53,110,42
131.3543,131.4874,52,110,42
131.49318,131.62628,50,110,42
131.63206,131.90405,55,110,42
132.18762,132.286,47,110,42
132.3265,132.45961,47,110,42
132.4654,132.5985,45,110,42
132.6043,132.7374,43,110,42
132.74318,133.29294,48,110,42
133.85428,134.12628,53,70,42
134.40984,134.68182,53,70,42
134.9654,135.23738,48,70,42
136.0765,136.3485,36,70,42
136.63206,136.90405,48,70,42
137.18762,137.45961,41,70,42
137.74316,138.29294,53,70,42
138.29872,138.57071,48,70,42
138.85428,139.40405,43,70,42
139.40984,139.68182,48,70,42
139.9654,140.06377,53,110,42
140.10428,140.23738,53,110,42
140.24316,140.37627,52,110,42
140.38205,140.51515,50,110,42
140.52095,140.79294,55,110,42
141.0765,141.17488,47,110,42
141.2154,141.3485,47,110,42
141.35428,141.4925,45,110,42
141.4985,141.64226,43,110,42
141.64851,142.24226,48,110,42
143.35962,143.458,63,70,42
143.4985,143.6316,63,70,42
143.63739,143.7705,62,70,42
143.77629,143.9094,60,70,42
143.91518,144.01355,58,70,42
144.05406,144.18716,58,70,42
144.19295,144.32605,57,70,42
144.33183,144.46494,55,70,42
145.58183,145.68022,61,70,42
145.72073,145.85384,61,70,42
145.85962,145.99272,60,70,42
145.9985,146.1316,58,70,42
146.13739,146.23578,57,70,42
146.27628,146.40938,57,70,42
146.41518,146.54828,55,70,42
146.55406,146.68716,53,70,42
146.69295,146.96494,48,70,42
146.97073,147.24272,60,72,42
147.2485,147.5205,48,75,42
147.52628,147.79828,60,78,42
147.80406,148.07605,48,81,42
148.08183,148.35382,60,84,42
148.35962,148.6316,48,87,42
148.63739,148.90938,60,90,42
148.91518,149.01355,41,93,42
149.05406,149.18716,41,94,42
149.19295,149.32605,43,96,42
149.33183,149.46494,45,97,42
149.47072,149.5691,40,99,42
149.60962,149.74272,40,100,42
149.7485,149.8816,41,102,42
149.88739,150.0205,43,103,42
150.02628,150.12845,41,105,42
150.17052,150.30873,41,106,42
150.31474,150.4585,40,108,42
150.46474,150.61606,41,109,42
150.62263,150.89462,36,110,42
151.17819,151.86685,60,110,42
151.87263,152.00574,60,70,42
152.01152,152.14462,58,70,42
152.1504,152.28351,57,70,42
152.2893,152.38768,57,70,42
152.42819,152.5613,57,70,42
152.56708,152.70018,55,70,42
152.70596,152.83907,53,70,42
152.84485,153.11685,52,70,42
153.95596,154.05435,62,70,42
154.09485,154.22795,62,70,42
154.23375,154.36684,60,70,42
154.37263,154.50574,58,70,42
154.51152,154.6099,58,70,42
154.6504,154.78351,58,70,42
154.78929,154.9224,57,70,42
154.92819,155.0613,55,70,42
155.06708,155.33907,53,70,42
155.62263,156.1724,58,70,42
156.17819,156.45018,53,70,42
157.28929,157.56128,53,70,42
157.84485,157.94322,46,110,42
157.98373,158.11684,46,110,42
158.12263,158.25572,45,110,42
158.26152,158.39462,43,110,42
158.4004,158.6724,48,110,42
158.95596,159.05434,40,110,42
159.09485,159.22795,40,110,42
159.23373,159.36684,38,110,42
159.37262,159.50572,36,110,42
159.51152,160.06128,41,110,42
161.17818,161.27657,63,70,42
161.31706,161.45016,63,70,42
161.45596,161.58907,62,70,42
161.59485,161.72795,60,70,42
161.73373,161.8321,58,70,42
161.87262,162.00572,58,70,42
162.0115,162.1446,57,70,42
162.1504,162.28351,55,70,42
163.4004,163.49878,61,70,42
163.53929,163.6724,61,70,42
163.67818,163.81128,60,70,42
163.81706,163.95016,58,70,42
163.95595,164.05434,57,70,42
164.09485,164.22795,57,70,42
164.23373,164.36684,55,70,42
164.37262,164.50572,53,70,42
164.5115,164.7835,48,70,42
164.78929,165.06128,60,72,42
165.06706,165.33905,48,75,42
165.34485,165.61684,60,78,42
165.62262,165.8946,48,81,42
165.90039,166.1724,60,84,42
166.17818,166.45016,48,87,42
166.45595,166.72794,60,90,42
166.73373,166.8321,41,93,42
166.87262,167.00572,41,94,42
167.0115,167.1446,43,96,42
167.15039,167.2835,45,97,42
167.28929,167.39145,40,99,42
167.43352,167.57173,40,100,42
167.57774,167.71597,41,102,42
167.72197,167.8602,43,103,42
167.86621,167.97246,41,105,42
168.0162,168.15996,41,106,42
168.16621,168.31595,40,108,42
168.32246,168.48218,41,109,42
168.48912,168.8155,36,110,42
169.10023,169.7889,60,110,42
169.79468,169.92778,60,70,42
169.93356,170.06667,58,70,42
170.07245,170.20555,57,70,42
170.21135,170.30972,57,70,42
170.35023,170.48334,57,70,42
170.48912,170.62222,55,70,42
170.628,170.76111,53,70,42
170.7669,171.0389,52,70,42
171.878,171.9764,62,70,42
172.01689,172.15,62,70,42
172.15579,172.2889,60,70,42
172.29468,172.42778,58,70,42
172.43356,172.53195,58,70,42
172.57245,172.70555,58,70,42
172.71135,172.84444,57,70,42
172.85023,172.98334,55,70,42
172.98912,173.26111,53,70,42
173.54468,174.09444,58,70,42
174.10023,174.37222,53,70,42
175.21133,175.48334,53,70,42
175.76689,175.86528,46,110,42
175.90578,176.03888,46,110,42
176.04468,176.17778,45,110,42
176.18356,176.31667,43,110,42
176.32245,176.59444,48,110,42
176.878,176.98016,40,110,42
177.02223,177.16046,40,110,42
177.16647,177.31021,38,110,42
177.31647,177.4662,36,110,42
177.47272,178.0912,41,110,42
180.31993,180.41832,57,70,42
180.45883,180.59193,57,71,42
180.59772,180.73082,55,72,42
180.7366,180.8697,53,74,42
180.87549,180.97388,53,75,42
181.01437,181.14748,53,77,42
181.15327,181.28638,52,78,42
181.29216,181.42526,50,80,42
181.43105,181.52942,50,81,42
181.56993,181.70303,50,83,42
181.70882,181.84192,48,84,42
181.84772,181.98082,47,86,42
181.9866,182.08498,47,87,42
182.12549,182.25859,47,89,42
182.26437,182.39748,45,90,42
182.40327,182.53638,43,91,42
182.54216,182.64053,47,93,42
182.68105,182.81415,47,94,42
182.81993,182.95303,45,96,42
182.95882,183.09192,43,97,42
183.09772,183.19987,47,99,42
183.24194,183.38016,47,100,42
183.38617,183.5244,45,102,42
183.53041,183.66862,43,103,42
183.67464,183.78088,47,105,42
183.82463,183.96838,47,106,42
183.97464,184.13435,45,108,42
184.1413,184.32098,43,109,42
184.3288,184.46161,47,110,42
184.5163,184.69598,47,70,42
184.7038,184.88348,45,70,42
184.8913,187.32098,43,70,42
189.0163,190.50067,55,70,42
190.5163,192.7663,60,70,42
192.7663,193.5163,55,70,42
193.5163,194.2663,52,70,42
194.2663,195.08228,48,70,42
195.09964,196.58401,48,70,42
196.59964,198.08401,47,70,42
198.09964,198.83401,48,70,42
198.84964,199.03714,50,70,42
199.03714,199.22464,48,70,42
199.22464,199.41214,47,70,42
199.41214,199.58401,48,70,42
199.59964,201.08401,52,100,42
201.09964,201.83401,50,90,42
203.34964,204.08401,50,70,42
204.09964,206.33401,53,70,42
206.34964,207.08401,50,76,42
207.09964,207.83401,47,79,42
207.84964,208.58401,48,82,42
208.59964,210.08401,41,85,42
210.09964,211.95901,69,125,42
211.97464,212.16214,67,99,42
212.16214,212.34964,65,100,42
212.34964,212.53714,64,101,42
212.53714,212.72464,62,102,42
212.72464,212.91214,60,103,42
212.91214,213.09964,59,103,42
213.09964,214.79759,62,104,42
214.81992,215.86902,60,110,42
218.14134,218.50072,36,70,42
218.51634,218.87572,48,70,42
218.89134,219.25072,52,70,42
219.26634,219.62572,55,70,42
219.64134,220.37572,60,70,42
222.64134,223.37572,48,70,42
223.39134,224.12572,52,70,42
224.14134,224.87572,55,70,42
227.14134,227.32884,36,70,42
227.32884,227.51634,43,70,42
227.51634,227.70384,48,70,42
227.70384,227.89134,43,70,42
227.89134,228.07884,52,70,42
228.07884,228.26634,48,70,42
228.26634,228.45384,55,70,42
228.45384,228.64134,52,70,42
228.64134,229.37572,60,70,42
231.64134,232.37572,48,70,42
232.39134,233.12572,52,70,42
233.14134,233.32884,55,70,42
233.32884,233.51634,43,70,42
233.51634,233.70384,47,70,42
233.70384,233.89134,50,70,42
233.89134,234.07884,55,70,42
234.07884,234.26634,59,70,42
234.26634,234.45384,62,70,42
234.45384,234.64134,60,70,42
234.64134,234.82884,59,70,42
234.82884,235.01634,57,70,42
235.01634,235.20384,55,70,42
235.20384,235.39134,54,70,42
235.39134,235.57884,55,70,42
235.57884,235.76634,50,70,42
235.76634,235.95384,47,70,42
235.95384,236.14134,43,70,42
236.14134,237.62572,48,70,42
237.64134,239.32884,47,70,42
239.32884,239.51634,50,70,42
239.51634,239.70384,49,70,42
239.70384,239.89134,50,70,42
239.89134,240.07884,48,70,42
240.07884,240.26634,47,70,42
240.26634,240.45384,45,70,42
240.45384,240.64134,43,70,42
240.64134,242.12572,48,70,42
242.14134,243.82884,47,70,42
243.82884,244.01634,50,70,42
244.01634,244.20384,49,70,42
244.20384,244.39134,50,70,42
244.39134,244.57884,48,70,42
244.57884,244.76634,47,70,42
244.76634,244.95384,45,70,42
244.95384,245.14134,43,70,42
245.14134,246.25072,48,70,42
246.26634,246.62572,49,100,42
246.64134,248.12572,50,70,42
248.14134,249.62572,38,70,42
249.64134,251.56252,43,70,42
251.56252,251.75987,43,70,42
251.75987,251.95724,47,70,42
251.95724,252.15462,50,70,42
252.15462,252.35199,55,70,42
252.35199,252.54935,47,70,42
252.54935,252.74672,50,70,42
252.74672,252.94409,55,70,42
252.94409,253.14145,59,70,42
253.14145,253.33882,50,70,42
253.33882,253.5362,55,70,42
253.5362,253.73357,59,70,42
253.73357,253.93092,62,70,42
253.93092,254.1283,55,70,42
254.1283,254.32567,59,70,42
254.32567,254.52304,62,70,42
254.52304,256.875,65,70,42
256.89145,257.6645,64,70,42
257.68094,258.45395,59,70,42
258.4704,259.04605,60,70,42
259.0625,259.24344,64,70,42
259.2599,260.2577,67,70,42
260.2577,260.466,66,70,42
260.466,260.70038,67,70,42
260.70038,260.96826,66,70,42
260.96826,261.18884,67,70,42
261.18884,261.40942,43,70,42
261.40942,261.60678,47,70,42
261.60678,261.80417,50,70,42
261.80417,262.00153,55,70,42
262.00153,262.19888,47,70,42
262.19888,262.39627,50,70,42
262.39627,262.59363,55,70,42
262.59363,262.79102,59,70,42
262.79102,262.98837,50,70,42
262.98837,263.18573,55,70,42
263.18573,263.38312,59,70,42
263.38312,263.58047,62,70,42
263.58047,263.77783,55,70,42
263.77783,263.97522,59,70,42
263.97522,264.17258,62,70,42
264.17258,266.52457,65,70,42
266.54102,267.31403,64,90,42
267.33047,268.10352,59,97,42
268.11993,268.89297,60,104,42
268.90942,269.68243,55,110,42
270.48837,272.27563,43,70,42
272.27563,272.48398,42,70,42
272.48398,272.69232,43,70,42
272.69232,272.90063,42,70,42
272.90063,273.12125,43,70,42
273.12125,273.34183,41,70,42
273.34183,273.5762,40,70,42
273.5762,273.84406,38,70,42
273.84406,274.0003,36,70,42
274.1119,274.3093,36,70,42
274.3093,274.50665,40,70,42
274.50665,274.704,43,70,42
274.704,274.9014,48,70,42
274.9014,275.09875,43,70,42
275.09875,275.2961,40,70,42
275.2961,275.4935,36,70,42
275.4935,278.63495,48,70,42
278.6514,278.7665,46,70,42
278.84875,279.0461,46,70,42
279.0461,279.2435,52,70,42
279.2435,279.44086,55,70,42
279.44086,279.6382,58,70,42
279.6382,279.8356,55,70,42
279.8356,280.03296,52,70,42
280.03296,280.23035,46,70,42
280.23035,281.79285,58,70,42
281.8093,283.3718,46,70,42
283.3882,284.88248,45,70,42
284.8981,286.38248,45,83,42
286.3981,287.9763,44,97,42
287.9947,288.76215,43,110,42
288.77777,289.51215,48,70,42
289.52777,290.30078,52,70,42
290.31723,291.09027,55,70,42
291.10672,292.9631,43,70,42
292.98917,293.76218,48,70,42
296.14703,296.52533,53,50,42
296.54178,296.92007,53,50,42
296.93652,297.3593,53,50,42
297.3777,297.85687,53,50,42
297.8777,298.65073,52,50,42
301.03558,301.41388,47,50,42
301.43033,301.80862,47,50,42
301.82507,302.24786,45,50,42
302.26624,302.74542,43,50,42
302.76624,303.53928,48,50,42
305.92413,306.30243,48,50,42
306.31888,306.69717,48,55,42
306.71362,307.1364,48,60,42
307.1548,307.63394,48,65,42
307.6548,308.42783,48,70,42
309.23373,309.61203,48,50,42
309.62848,310.00674,48,50,42
310.0232,310.42252,46,50,42
310.43988,310.83917,44,50,42
310.85654,311.30576,44,50,42
311.3253,311.7745,44,55,42
311.79404,312.30743,43,60,42
312.32974,312.9287,41,65,42
312.95474,313.72778,48,70,42
316.11264,317.84183,36,50,42
317.86264,318.09183,36,50,42
318.11264,322.09183,36,50,42
