start_time,end_time,note_value,velocity,instrument_program_number
0.0,0.18359375,67,1,40
3.0,3.1835938,62,70,40
3.375,3.5585938,67,70,40
3.75,4.3085938,71,70,40
4.3125,4.4023438,69,70,40
4.40625,4.4960938,67,70,40
4.5,4.6367188,66,70,40
4.6875,4.8242188,69,70,40
4.875,5.0117188,67,70,40
5.0625,5.2083335,64,70,40
5.2625,5.4583335,62,70,40
9.0625,9.246094,75,70,40
9.4375,9.621094,78,70,40
9.8125,10.371094,81,70,40
10.375,10.464844,79,70,40
10.46875,10.558594,78,70,40
10.5625,10.699219,76,70,40
10.75,10.886719,79,70,40
10.9375,11.077724,78,70,40
11.129807,11.2756405,75,70,40
11.329807,11.5256405,76,70,40
12.129807,12.510416,77,70,40
12.514422,12.60657,76,70,40
12.610577,12.7027235,74,70,40
12.70673,12.802564,72,70,40
12.80673,12.902563,71,70,40
12.90673,12.958099,74,70,40
12.958099,13.009469,72,70,40
13.009469,13.107928,71,70,40
13.112209,13.214888,72,70,40
13.219352,13.32203,74,70,40
13.326494,13.536316,76,70,40
13.755066,14.393457,84,100,40
14.397922,14.500601,81,83,40
14.505065,14.607743,78,85,40
14.612207,14.768457,74,87,40
14.826493,14.972326,74,92,40
15.026493,15.163212,74,96,40
15.213993,15.350712,74,100,40
15.401493,15.585087,74,110,40
15.776493,15.960087,79,110,40
16.151493,16.710087,83,120,40
16.713993,16.803837,81,110,40
16.807743,16.897587,79,110,40
16.901493,17.038212,78,110,40
17.088993,17.225712,79,110,40
17.276493,17.413212,81,110,40
17.463993,17.600712,83,110,40
17.651493,17.835087,84,110,40
18.401493,18.585087,74,110,40
18.776493,18.960087,81,110,40
19.151493,19.710087,84,120,40
19.713993,19.803837,83,110,40
19.807743,19.897587,81,110,40
19.901493,20.038212,86,110,40
20.088993,20.225712,83,110,40
20.276493,20.413212,84,110,40
20.463993,20.600712,81,110,40
20.651493,20.788212,79,110,40
20.838993,20.928837,83,70,40
20.932743,21.022587,79,70,40
21.026493,21.585087,74,70,40
21.588993,21.678837,74,70,40
21.682743,21.772587,73,70,40
21.776493,22.335087,74,70,40
22.338993,22.428837,74,70,40
22.432743,22.522587,76,70,40
22.526493,22.663212,72,70,40
22.713993,22.803837,72,70,40
22.807743,22.897587,74,70,40
22.901493,23.038212,71,70,40
23.088993,23.178837,71,70,40
23.182743,23.272587,72,70,40
23.276493,23.413212,69,70,40
23.463993,23.553837,69,70,40
23.557743,23.647587,71,70,40
23.651493,23.835087,67,70,40
23.838993,23.932743,71,70,40
23.932743,24.026493,67,70,40
24.026493,24.585087,62,70,40
24.588993,24.682743,62,70,40
24.682743,24.776493,61,70,40
24.776493,25.335087,62,70,40
25.338993,25.432743,62,75,40
25.432743,25.526493,60,77,40
25.526493,25.620243,59,80,40
25.620243,25.713993,60,82,40
25.713993,25.807743,59,85,40
25.807743,25.897587,57,87,40
25.901493,26.038212,55,90,40
26.088993,26.182743,67,95,40
26.182743,26.276493,66,98,40
26.276493,26.370243,67,100,40
26.370243,26.463993,69,103,40
26.463993,26.557743,71,105,40
26.557743,26.647587,73,108,40
26.651493,26.788212,74,110,40
26.838993,26.932743,74,110,40
26.932743,27.026493,73,110,40
27.026493,27.120243,74,110,40
27.120243,27.213993,76,110,40
27.213993,27.307743,78,110,40
27.307743,27.397587,74,110,40
27.401493,27.538212,79,110,40
27.588993,27.682743,79,110,40
27.682743,27.776493,78,110,40
27.776493,27.870243,79,110,40
27.870243,27.963993,81,110,40
27.963993,28.057743,83,110,40
28.057743,28.147587,85,110,40
28.151493,28.335087,86,120,40
29.651493,30.585087,81,120,40
30.588993,30.772587,82,120,40
30.776493,30.960087,81,120,40
30.963993,31.147587,82,120,40
31.151493,31.335087,81,120,40
32.651493,33.585087,86,120,40
33.588993,33.772587,85,120,40
33.776493,33.960087,86,120,40
33.963993,34.147587,85,120,40
34.151493,34.335087,86,120,40
34.526493,35.085087,89,120,40
35.088993,35.272587,88,120,40
35.276493,35.460087,89,120,40
35.463993,35.647587,88,120,40
35.651493,35.928837,89,120,40
36.026493,36.585087,77,120,40
36.588993,36.72571,76,120,40
36.776493,36.91321,77,120,40
36.963993,37.10071,77,120,40
37.151493,37.28821,76,120,40
37.338993,37.47571,69,120,40
37.526493,38.085087,81,120,40
38.088993,38.22571,71,120,40
38.276493,38.835087,83,120,40
38.838993,38.97571,73,120,40
39.026493,39.585087,85,120,40
39.588993,39.72571,74,120,40
39.776493,40.335087,86,120,40
40.338993,40.522587,76,110,40
40.526493,40.710087,88,110,40
40.713993,40.902294,86,110,40
40.9063,41.046524,85,110,40
41.098606,41.244442,83,110,40
41.298607,41.448437,81,110,40
41.504086,41.660336,79,90,40
41.718372,41.906673,78,70,40
41.91068,42.29129,78,70,40
42.295296,42.675903,78,70,40
42.67991,42.86821,78,70,40
42.87222,42.964363,79,70,40
42.968372,43.06052,78,70,40
43.064526,43.156673,76,70,40
43.16068,43.252827,78,70,40
43.256832,43.445133,79,70,40
43.44914,43.63744,76,70,40
43.64145,43.82975,78,70,40
43.833755,44.022057,74,70,40
44.026062,44.214363,74,70,40
44.21837,44.40667,73,70,40
44.41068,44.59898,71,70,40
44.602985,44.791286,69,70,40
44.79529,44.983593,81,70,40
44.9876,45.36821,81,70,40
45.372215,45.752823,81,70,40
45.75683,45.94513,81,70,40
45.94914,46.041286,83,70,40
46.04529,46.13744,81,70,40
46.141445,46.233593,79,70,40
46.2376,46.329746,81,70,40
46.33375,46.473976,83,70,40
46.52606,46.666283,79,70,40
46.71837,46.858593,76,70,40
46.910675,47.0509,73,70,40
47.10298,47.291283,74,70,40
49.41067,49.550896,79,70,40
49.60298,49.743206,76,70,40
49.795288,49.935513,73,70,40
49.987595,50.12782,67,70,40
50.1799,50.320126,67,70,40
50.37221,50.512436,67,70,40
50.564518,50.656666,69,70,40
50.66067,50.75282,67,70,40
50.756824,50.848972,66,70,40
50.852978,50.945126,67,70,40
50.94913,51.329742,69,70,40
52.48759,52.627815,83,70,40
52.6799,52.820126,79,70,40
52.872208,53.012432,74,70,40
53.064514,53.20474,71,70,40
53.25682,53.397045,71,70,40
53.44913,53.589355,71,70,40
53.641438,53.73759,73,70,40
53.73759,53.833744,71,70,40
53.833744,53.929897,69,70,40
53.929897,54.022045,71,70,40
54.026054,54.166275,73,90,40
54.21836,54.358585,73,70,40
54.410667,54.50682,74,70,40
54.50682,54.602974,73,70,40
54.602974,54.699127,71,70,40
54.699127,54.791275,73,70,40
54.795284,54.935505,74,90,40
54.98759,55.127815,74,70,40
55.179897,55.27605,76,70,40
55.27605,55.372204,74,70,40
55.372204,55.468357,73,70,40
55.468357,55.560505,74,70,40
55.564514,55.70474,76,90,40
55.75682,55.897045,76,70,40
55.949127,56.04528,78,70,40
56.04528,56.141434,76,70,40
56.141434,56.237587,74,70,40
56.237587,56.329735,76,70,40
56.333744,56.47397,78,90,40
56.52605,56.666275,78,70,40
56.718357,56.81451,79,70,40
56.81451,56.910664,78,70,40
56.910664,57.010666,76,70,40
57.010666,57.1065,78,70,40
57.110664,57.491272,79,70,40
57.49528,57.87589,76,70,40
57.879894,58.64512,73,70,40
58.649124,59.02973,85,70,40
59.03374,59.41435,79,70,40
59.418354,60.18358,76,70,40
60.187584,60.568195,88,70,40
60.5722,60.95281,85,70,40
60.956814,61.72204,79,70,40
61.726044,62.106655,91,70,40
62.11066,62.49127,88,70,40
62.495274,63.275723,85,70,40
63.27989,63.475723,89,70,40
63.47989,63.66819,86,75,40
63.6722,63.8605,83,80,40
63.864506,64.0528,80,85,40
64.056816,64.24512,77,90,40
64.24912,64.43742,74,95,40
64.44143,64.63726,71,100,40
64.641426,64.84263,68,105,40
64.84691,65.44691,69,110,40
65.44691,65.546906,66,110,40
65.546906,65.646904,62,110,40
65.646904,65.71357,64,110,40
65.71357,65.78024,66,110,40
65.78024,65.84691,64,110,40
65.84691,65.913574,66,110,40
65.913574,65.98024,64,110,40
65.98024,66.046906,66,110,40
66.046906,66.11733,64,110,40
66.11733,66.18775,66,110,40
66.18775,66.25817,64,110,40
66.25817,66.3351,66,110,40
66.3351,66.41202,64,100,40
66.41202,66.48414,66,80,40
66.488945,66.86955,73,70,40
66.87356,67.254166,67,70,40
67.25817,68.0234,64,70,40
68.027405,68.40801,76,70,40
68.41202,68.792625,73,70,40
68.79663,69.56186,67,70,40
69.565865,69.94647,79,70,40
69.95048,70.331085,76,70,40
70.33509,71.10032,73,70,40
71.104324,71.292625,79,60,40
71.29663,71.48493,76,60,40
71.48894,71.869545,73,60,40
71.87355,72.06185,82,60,40
72.06586,72.25416,79,60,40
72.25817,72.63878,76,60,40
72.642784,73.408005,82,60,40
73.41201,73.60031,81,60,40
73.60432,73.79262,80,60,40
73.79663,73.98493,81,60,40
73.98894,74.17724,77,60,40
74.181244,74.369545,76,60,40
74.56586,74.75416,76,60,40
74.95047,75.52339,77,60,40
75.5274,75.619545,79,60,40
75.62355,75.7157,81,60,40
75.7197,76.484924,82,60,40
76.48893,76.67723,81,60,40
76.681244,76.869545,80,60,40
76.87355,77.06185,81,60,40
77.06586,77.25416,77,60,40
77.25816,77.446465,76,60,40
77.64278,77.83108,76,60,40
78.02739,78.60031,77,60,40
78.60432,78.79262,76,60,40
78.79662,80.33108,75,110,40
80.33508,80.908,76,86,40
80.912,81.00415,73,96,40
81.008156,81.1003,69,97,40
81.10432,81.16842,71,99,40
81.16842,81.23252,73,100,40
81.23252,81.29662,71,101,40
81.29662,81.360725,73,102,40
81.360725,81.42483,71,103,40
81.42483,81.48893,73,104,40
81.48893,81.55303,71,106,40
81.55303,81.617134,73,107,40
81.617134,81.68124,71,108,40
81.68124,81.773384,69,109,40
81.77739,81.86954,71,110,40
81.87354,81.937645,73,110,40
81.937645,82.00175,74,110,40
82.00175,82.06585,73,110,40
82.06585,82.12995,74,110,40
82.12995,82.19405,73,110,40
82.19405,82.258156,74,110,40
82.258156,82.32226,73,110,40
82.32226,82.38636,74,110,40
82.38636,82.45046,73,110,40
82.45046,82.514565,74,110,40
82.514565,82.57867,73,110,40
82.57867,82.64278,74,110,40
82.64278,82.70688,73,110,40
82.70688,82.77098,74,110,40
82.77098,82.83508,73,110,40
82.83508,82.899185,74,110,40
82.899185,82.96329,73,110,40
82.96329,83.02739,74,110,40
83.02739,83.09149,73,110,40
83.09149,83.155594,74,110,40
83.155594,83.219696,73,110,40
83.219696,83.311844,71,110,40
83.31585,83.408,73,110,40
83.412,83.476105,74,120,40
83.476105,83.54021,76,120,40
83.54021,83.60431,74,120,40
83.60431,83.70046,73,120,40
83.70046,83.796616,74,120,40
83.796616,83.86072,76,120,40
83.86072,83.92482,78,120,40
83.92482,83.98892,76,120,40
83.98892,84.08508,74,120,40
84.08508,84.17722,76,120,40
84.18124,84.46569,78,120,40
84.56585,84.8503,76,120,40
84.95046,85.33107,74,120,40
86.48892,86.67722,81,120,40
86.873535,87.06184,88,120,40
87.258156,87.83107,91,120,40
87.835075,87.92722,90,120,40
87.93123,88.02338,88,120,40
88.02738,88.40799,86,120,40
89.56584,89.75414,81,120,40
89.75815,89.94645,81,120,40
89.950455,90.138756,88,120,40
90.14277,90.33107,88,120,40
90.335075,90.90799,91,120,40
90.911995,91.00414,90,120,40
91.00815,91.100296,88,120,40
91.1043,91.24453,86,115,40
91.29661,91.388756,88,100,40
91.39276,91.48491,90,100,40
91.488914,91.62914,91,115,40
91.68123,91.77338,90,100,40
91.77738,91.86953,88,100,40
91.873535,92.01936,86,115,40
92.07353,92.169365,88,100,40
92.17353,92.26936,90,100,40
92.27354,92.42336,91,115,40
92.47901,92.58169,90,100,40
92.58615,92.688835,88,100,40
92.6933,92.87921,86,115,40
93.073044,93.258965,81,115,40
93.45279,94.20833,78,115,40
94.21228,94.3982,81,115,40
94.592026,94.77795,78,115,40
94.97177,95.72731,74,115,40
95.73126,95.91718,78,115,40
96.11101,96.29693,74,115,40
96.49076,97.24629,69,115,40
97.25025,97.388695,74,110,40
97.440125,97.578575,69,110,40
97.63,98.00578,66,110,40
98.00974,98.14819,69,110,40
98.199615,98.338066,66,110,40
98.38949,98.765274,62,110,40
98.76923,98.907684,66,110,40
98.95911,99.09756,62,110,40
99.14898,99.52477,57,110,40
99.528725,99.667175,69,110,40
99.7186,99.85705,66,110,40
99.90847,100.28426,62,110,40
100.288216,100.42667,69,110,40
100.47809,100.61654,66,110,40
100.66796,101.043755,62,110,40
101.04771,101.18616,69,110,40
101.23758,101.37603,66,110,40
101.42745,101.803246,62,110,40
101.807205,101.94565,69,105,40
101.99708,102.13552,66,103,40
102.18695,103.33192,62,101,40
103.33592,103.4789,69,88,40
103.532005,103.67497,66,86,40
103.72808,104.91607,62,84,40
104.920235,105.07006,69,70,40
105.12572,105.27554,66,68,40
105.33119,107.88054,60,66,40
108.313576,108.50188,58,70,40
108.69819,108.88649,63,70,40
109.08281,109.65572,67,70,40
109.65973,109.75188,65,70,40
109.75588,109.84803,63,70,40
109.852036,109.99226,62,70,40
110.04434,110.18457,63,70,40
110.23666,110.37688,65,70,40
110.42896,110.56918,67,70,40
110.62127,110.80957,68,70,40
111.390495,111.5788,70,70,40
111.775116,111.96342,77,70,40
112.15973,112.73264,80,70,40
112.73665,112.8288,79,70,40
112.8328,112.92495,77,70,40
112.928955,113.06918,82,70,40
113.12126,113.26149,79,70,40
113.313576,113.459404,80,70,40
113.51357,113.65941,77,70,40
113.71357,113.85029,75,70,40
113.90107,113.99091,79,70,40
113.99482,114.08466,75,70,40
114.08857,114.64716,70,70,40
114.65107,114.74091,70,70,40
114.74482,114.83466,69,70,40
114.83857,115.39716,70,70,40
115.40107,115.49091,70,70,40
115.49482,115.58466,72,70,40
115.58857,115.72529,68,70,40
115.77607,115.86591,68,70,40
115.86982,115.95966,70,70,40
115.96357,116.10029,67,70,40
116.15107,116.24091,67,70,40
116.24482,116.33466,68,70,40
116.33857,116.47529,65,70,40
116.52607,116.61591,65,70,40
116.61982,116.70966,67,70,40
116.71357,116.85029,63,70,40
116.90107,116.99091,67,70,40
116.99482,117.08466,63,70,40
117.08857,117.64716,58,70,40
117.65107,117.74091,58,70,40
117.74482,117.83466,57,70,40
117.83857,118.39949,58,70,40
118.40344,118.49442,58,70,40
118.49838,118.58936,57,70,40
118.593315,119.16137,58,70,40
119.165375,119.25752,58,70,40
119.26153,119.353676,57,70,40
119.35768,119.50351,58,70,40
119.55768,119.71393,59,70,40
119.771965,119.928215,60,70,40
119.98625,120.076096,60,71,40
120.08,120.169846,59,71,40
120.17375,120.31047,60,72,40
120.36125,120.49797,62,73,40
120.54875,120.68547,63,75,40
120.73625,120.826096,63,76,40
120.83,120.919846,62,77,40
120.92375,121.06047,63,77,40
121.11125,121.24797,64,79,40
121.29875,121.43547,65,80,40
121.48625,121.576096,65,81,40
121.58,121.669846,64,82,40
121.67375,121.81047,65,82,40
121.86125,121.99797,67,84,40
122.04875,122.18547,68,85,40
122.23625,122.326096,68,86,40
122.33,122.419846,67,87,40
122.42375,122.56047,68,88,40
122.61125,122.74797,69,89,40
122.79875,122.93547,70,90,40
122.98625,123.076096,70,91,40
123.08,123.169846,69,92,40
123.17375,123.31047,70,93,40
123.36125,123.49797,71,94,40
123.54875,123.68547,72,95,40
123.73625,123.826096,72,97,40
123.83,123.919846,71,97,40
123.92375,124.06047,72,98,40
124.11125,124.24797,74,99,40
124.29875,124.43547,75,100,40
124.48625,124.576096,75,102,40
124.58,124.669846,74,102,40
124.67375,124.81047,75,103,40
124.86125,124.99797,76,104,40
125.04875,125.18547,77,106,40
125.23625,125.326096,77,107,40
125.33,125.419846,76,108,40
125.42375,125.56047,77,108,40
125.61125,125.74797,78,109,40
125.79875,125.982346,79,110,40
125.98625,126.076096,78,110,40
126.08,126.169846,79,110,40
126.17375,126.263596,83,110,40
126.2675,126.357346,79,110,40
126.36125,126.451096,78,110,40
126.455,126.544846,79,110,40
126.54875,126.638596,84,110,40
126.6425,126.732346,79,110,40
126.73625,126.826096,78,110,40
126.83,126.919846,79,110,40
126.92375,127.013596,77,110,40
127.0175,127.107346,75,110,40
127.11125,127.201096,74,110,40
127.205,127.294846,72,110,40
127.29875,127.482346,71,110,40
127.48625,127.576096,66,110,40
127.58,127.669846,67,110,40
127.67375,127.763596,71,110,40
127.7675,127.857346,67,110,40
127.86125,127.951096,66,110,40
127.955,128.04485,67,110,40
128.04875,128.1386,72,110,40
128.1425,128.23235,67,110,40
128.23625,128.3261,66,110,40
128.33,128.41985,67,110,40
128.42375,128.5136,65,110,40
128.5175,128.60735,63,110,40
128.61125,128.7011,62,110,40
128.705,128.79485,60,110,40
128.79875,128.98235,55,110,40
128.98625,129.0761,78,110,40
129.08,129.16985,79,110,40
129.17375,129.2636,83,110,40
129.2675,129.35735,79,110,40
129.36125,129.4511,83,110,40
129.455,129.54485,79,110,40
129.54875,129.6386,84,110,40
129.6425,129.73235,79,110,40
129.73625,129.8261,78,110,40
129.83,129.91985,79,110,40
129.92375,130.0136,77,110,40
130.0175,130.10735,75,110,40
130.11125,130.2011,74,110,40
130.205,130.29485,72,110,40
130.29875,130.48235,71,110,40
130.48625,130.5761,66,110,40
130.58,130.66985,67,110,40
130.67375,130.7636,71,110,40
130.7675,130.85735,67,110,40
130.86125,130.9511,71,110,40
130.955,131.04485,67,110,40
131.04875,131.1386,72,110,40
131.1425,131.23235,67,110,40
131.23625,131.3261,66,110,40
131.33,131.41985,67,110,40
131.42375,131.5136,65,110,40
131.5175,131.60735,63,110,40
131.61125,131.7011,62,110,40
131.705,131.79485,60,110,40
131.79875,132.16985,55,110,40
132.17375,132.2675,71,70,40
132.2675,132.36125,67,70,40
132.36125,132.455,66,71,40
132.455,132.54875,67,72,40
132.54875,132.6425,71,73,40
132.6425,132.73625,67,74,40
132.73625,132.83,66,75,40
132.83,132.92375,67,76,40
132.92375,133.0175,71,77,40
133.0175,133.11125,67,78,40
133.11125,133.205,66,79,40
133.205,133.29875,67,80,40
133.29875,133.3925,74,81,40
133.3925,133.48625,71,82,40
133.48625,133.58,70,83,40
133.58,133.67375,71,84,40
133.67375,133.7675,74,85,40
133.7675,133.86125,71,86,40
133.86125,133.955,70,87,40
133.955,134.04875,71,88,40
134.04875,134.1425,74,89,40
134.1425,134.23625,71,90,40
134.23625,134.33,70,90,40
134.33,134.42375,71,91,40
134.42375,134.5175,74,92,40
134.5175,134.61125,71,93,40
134.61125,134.705,70,94,40
134.705,134.79875,71,95,40
134.79875,134.8925,77,96,40
134.8925,134.98625,74,97,40
134.98625,135.08,73,98,40
135.08,135.17375,74,99,40
135.17375,135.2675,77,100,40
135.2675,135.36125,74,101,40
135.36125,135.455,73,102,40
135.455,135.54875,74,103,40
135.54875,135.6425,77,104,40
135.6425,135.73625,74,105,40
135.73625,135.83119,73,106,40
135.83119,135.92612,74,107,40
135.92612,136.02228,77,108,40
136.02228,136.11842,74,109,40
136.11842,136.21458,73,110,40
136.21458,136.31075,74,110,40
136.31075,136.41074,81,120,40
136.41074,136.51074,77,120,40
136.51074,136.61073,76,120,40
136.61073,136.71074,77,120,40
136.71074,136.81075,81,120,40
136.81075,136.91074,79,120,40
136.91074,137.01347,77,120,40
137.01347,137.11621,76,120,40
137.11621,137.21896,74,120,40
137.21896,137.3217,72,120,40
137.3217,137.42444,71,120,40
137.42444,137.52718,69,120,40
137.52718,137.62991,67,120,40
137.62991,137.73265,65,120,40
137.73265,137.8398,64,120,40
137.8398,137.94247,62,120,40
137.94695,138.13054,60,100,40
138.32195,138.50554,60,70,40
138.69695,139.25554,64,70,40
139.25945,139.34929,62,70,40
139.3532,139.44304,60,70,40
139.44695,139.58366,59,70,40
139.63445,139.77116,60,70,40
139.82195,139.95866,62,70,40
140.00945,140.14616,64,70,40
140.19695,140.38054,65,70,40
140.94695,141.13054,55,70,40
141.32195,141.50554,62,70,40
141.69695,142.25554,65,70,40
142.25945,142.34929,64,70,40
142.3532,142.44304,62,70,40
142.44695,142.58366,67,70,40
142.63445,142.77116,64,70,40
142.82195,142.95866,67,70,40
143.00945,143.14616,64,70,40
143.19695,143.38054,60,70,40
146.19695,146.33366,83,70,40
146.38445,146.52116,84,70,40
146.57195,146.70866,86,70,40
146.75945,146.89616,88,70,40
146.94695,147.13054,89,70,40
149.19695,149.33366,84,70,40
149.38445,149.52116,86,70,40
149.57195,149.70866,88,70,40
149.75945,149.89616,89,70,40
149.94695,150.82195,91,100,40
150.88445,151.02116,89,70,40
151.07195,151.20866,88,70,40
151.25945,151.39616,86,70,40
151.44695,152.19304,84,100,40
152.19695,152.33366,88,70,40
152.38445,152.52116,86,70,40
152.57195,152.70866,84,70,40
152.75945,152.89616,83,70,40
152.94695,153.69304,81,100,40
153.69695,153.83366,84,70,40
153.88445,154.02116,83,70,40
154.07195,154.20866,81,70,40
154.25945,154.39616,79,70,40
154.44695,155.19304,78,100,40
155.19695,155.33366,81,70,40
155.38445,155.52116,79,70,40
155.57195,155.70866,78,70,40
155.75945,155.89616,76,70,40
155.94695,156.69304,74,100,40
158.19695,158.38054,74,120,40
158.57195,158.75554,78,120,40
158.94695,159.69304,81,120,40
161.19695,161.38054,78,120,40
161.57195,161.75554,81,120,40
161.94695,162.69304,84,120,40
164.22386,164.4197,81,115,40
164.62386,164.82506,84,92,40
165.04362,165.42424,87,70,40
165.42824,165.80885,84,70,40
165.81285,166.57808,81,70,40
166.58209,166.96269,84,70,40
166.9667,167.3473,81,70,40
167.35132,168.11655,78,70,40
168.12054,168.50116,84,70,40
168.50516,168.88577,81,70,40
168.88977,169.27039,78,70,40
169.2744,169.655,75,70,40
169.65901,170.03961,72,70,40
170.04362,170.42422,69,70,40
170.42824,170.80885,70,70,40
170.81285,171.19347,67,70,40
171.19746,171.57808,66,70,40
171.58208,171.96269,81,70,40
171.96669,172.3473,78,70,40
172.35132,172.73192,75,70,40
172.73593,173.12656,72,70,40
173.13066,173.53185,69,70,40
173.53607,173.9484,70,70,40
173.95273,174.37685,67,70,40
174.3813,175.14653,66,70,40
175.15053,175.9359,67,65,40
175.94,176.7466,66,62,40
176.75082,177.5798,67,58,40
177.58415,178.43683,66,55,40
178.44128,183.31004,67,50,40
183.91629,184.1046,63,60,40
184.3009,184.48921,68,60,40
184.68552,185.25844,72,60,40
185.26244,185.35458,70,60,40
185.3586,185.45074,68,60,40
185.45476,185.59497,67,60,40
185.64706,185.78728,68,60,40
185.83937,185.97958,70,60,40
186.03168,186.1775,72,60,40
186.23167,186.4275,73,60,40
187.03168,187.1775,67,60,40
187.23167,187.3775,68,60,40
187.43167,187.5815,70,60,40
187.63715,187.7934,72,60,40
187.85144,188.06126,73,60,40
188.70857,188.86482,73,60,40
188.92287,189.07912,74,60,40
189.13715,189.30542,76,60,40
189.36792,189.55022,78,60,40
189.61792,189.86272,79,60,40
191.61792,191.86272,78,65,40
192.11792,192.36272,79,76,40
192.61792,192.88496,81,88,40
193.16338,193.71806,83,100,40
193.91338,197.65556,84,110,40
200.28838,200.4251,66,70,40
200.47588,200.6126,67,70,40
200.66338,200.8001,69,70,40
200.85088,200.9876,71,70,40
201.03838,201.1751,72,70,40
201.22588,201.3626,73,70,40
201.41338,201.5501,74,70,40
201.60088,201.7376,76,70,40
201.78838,201.9251,78,70,40
201.97588,202.1126,79,70,40
202.16338,202.3001,81,70,40
202.35088,202.4876,82,70,40
202.53838,202.6751,83,70,40
202.72588,202.8626,79,70,40
202.91338,203.0501,78,70,40
203.10088,203.2376,81,70,40
203.28838,203.4251,79,70,40
203.47588,203.6126,76,70,40
203.66338,203.8001,74,70,40
203.85088,203.9876,66,70,40
204.03838,204.1751,69,70,40
204.22588,204.3626,62,70,40
205.35088,205.4876,81,70,40
205.53838,205.6751,78,70,40
205.72588,205.8626,75,70,40
205.91338,206.0501,76,70,40
206.10088,206.2376,79,70,40
206.28838,206.4251,78,70,40
206.47588,206.6126,76,70,40
206.66338,206.8001,75,70,40
206.85088,206.9876,73,70,40
207.03838,207.1751,71,70,40
207.22588,207.3626,73,70,40
207.41338,207.5501,75,70,40
207.60088,207.7376,76,70,40
207.78838,207.9251,78,70,40
207.97588,208.1126,79,70,40
208.16338,208.3001,81,70,40
208.35088,208.4876,83,70,40
208.53838,208.6751,85,70,40
208.72588,208.8626,87,70,40
208.91338,209.0501,88,70,40
209.10088,209.2376,91,70,40
209.28838,209.4251,90,70,40
209.47588,209.6126,87,70,40
209.66338,209.8001,88,70,40
209.85088,209.9876,79,70,40
210.03838,210.1751,83,70,40
210.22588,210.3626,76,70,40
210.41338,210.5501,77,70,40
210.60088,210.7376,71,70,40
210.78838,210.9251,74,70,40
210.97588,211.1126,65,70,40
211.16338,211.3001,64,70,40
211.35088,211.4876,72,70,40
211.53838,211.6751,67,70,40
211.72588,211.8626,76,70,40
211.91338,212.0501,84,70,40
212.10088,212.2376,78,74,40
212.28838,212.4251,81,78,40
212.47588,212.6161,72,82,40
212.66818,212.80841,78,86,40
212.86049,213.00072,69,90,40
213.0528,213.19862,72,94,40
213.25279,213.40904,66,98,40
213.46709,213.65068,74,110,40
213.84209,214.02568,79,110,40
214.21709,214.77568,83,110,40
214.77959,214.86943,81,110,40
214.87334,214.96318,79,110,40
214.96709,215.1038,78,110,40
215.15459,215.2913,79,110,40
215.34209,215.4788,81,110,40
215.52959,215.6663,83,110,40
215.71709,215.90068,84,110,40
216.46709,216.65068,74,110,40
216.84209,217.02568,81,110,40
217.21709,217.77568,84,110,40
217.77959,217.86943,83,110,40
217.87334,217.96318,81,110,40
217.96709,218.1038,86,110,40
218.15459,218.2913,83,110,40
218.34209,218.4788,84,110,40
218.52959,218.6663,81,110,40
218.71709,218.8538,79,110,40
218.90459,218.99443,83,70,40
218.99834,219.08818,79,70,40
219.09209,219.65068,74,70,40
219.65459,219.74443,74,70,40
219.74834,219.83818,73,70,40
219.84209,220.40068,74,70,40
220.40459,220.49443,74,70,40
220.49834,220.58818,76,70,40
220.59209,220.7288,72,70,40
220.77959,220.86943,72,70,40
220.87334,220.96318,74,70,40
220.96709,221.1038,71,70,40
221.15459,221.24443,71,70,40
221.24834,221.33818,72,70,40
221.34209,221.4788,69,70,40
221.52959,221.61943,69,70,40
221.62334,221.71318,71,70,40
221.71709,221.90068,67,70,40
221.90459,221.99443,71,70,40
221.99834,222.08818,67,70,40
222.09209,222.65068,62,70,40
222.65459,222.74443,62,70,40
222.74834,222.83818,61,70,40
222.84209,223.40068,62,70,40
223.40459,223.49834,62,75,40
223.49834,223.59209,61,77,40
223.59209,223.68584,62,80,40
223.68584,223.77959,60,82,40
223.77959,223.87334,59,85,40
223.87334,223.96709,57,87,40
223.96709,224.1038,55,90,40
224.15459,224.24834,67,95,40
224.24834,224.34209,66,98,40
224.34209,224.43584,67,100,40
224.43584,224.52959,69,103,40
224.52959,224.62334,71,105,40
224.62334,224.71709,73,108,40
224.71709,224.8538,74,110,40
224.90459,224.99834,74,110,40
224.99834,225.09209,73,110,40
225.09209,225.18584,74,110,40
225.18584,225.27959,76,110,40
225.27959,225.37334,78,110,40
225.37334,225.46709,74,110,40
225.46709,225.6038,79,110,40
225.65459,225.74834,79,110,40
225.74834,225.84209,78,110,40
225.84209,225.93584,79,110,40
225.93584,226.02959,81,110,40
226.02959,226.12334,83,110,40
226.12334,226.21709,85,110,40
226.21709,226.58818,86,120,40
227.71709,228.65068,74,120,40
228.65459,228.83818,75,120,40
228.84209,229.02568,74,120,40
229.02959,229.21318,75,120,40
229.21709,229.40068,74,120,40
230.71709,231.65068,79,120,40
231.65459,231.83818,78,120,40
231.84209,232.02568,79,120,40
232.02959,232.21318,78,120,40
232.21709,232.40068,79,120,40
232.59209,233.15068,82,120,40
233.15459,233.33818,81,120,40
233.34209,233.52568,82,120,40
233.52959,233.71318,81,120,40
233.71709,233.90068,82,120,40
234.09209,234.65068,70,110,40
234.65459,234.7913,69,110,40
234.84209,234.9788,70,110,40
235.02959,235.1663,70,110,40
235.21709,235.3538,69,110,40
235.40459,235.5413,62,110,40
235.59209,236.15068,74,110,40
236.15459,236.2913,64,110,40
236.34209,236.90068,76,110,40
236.90459,237.0413,66,110,40
237.09209,237.65538,78,110,40
237.6594,237.7996,67,110,40
237.8517,238.43214,79,110,40
238.43631,238.58214,69,105,40
238.6363,238.78215,81,101,40
238.83632,238.98215,79,97,40
239.03632,239.18614,78,93,40
239.24179,239.39162,76,88,40
239.44727,239.60352,74,84,40
239.66156,239.82982,72,80,40
239.89232,240.03816,71,70,40
240.09233,240.47293,71,70,40
240.47694,240.85754,71,70,40
240.86156,241.00179,71,70,40
241.05386,241.14601,72,70,40
241.15001,241.24216,71,70,40
241.24617,241.33832,69,70,40
241.34232,241.43446,71,70,40
241.43848,241.62679,72,70,40
241.63078,241.81909,69,70,40
241.82309,242.0114,71,70,40
242.0154,242.2037,67,70,40
242.2077,242.39601,67,70,40
242.40001,242.58832,66,70,40
242.59232,242.78062,64,70,40
242.78462,242.97293,62,70,40
242.97694,243.16524,74,70,40
243.16925,243.54985,74,70,40
243.55386,243.93446,74,70,40
243.93848,244.0787,74,70,40
244.13078,244.22293,76,70,40
244.22693,244.31908,74,70,40
244.32309,244.41524,73,70,40
244.41925,244.51138,74,70,40
244.5154,244.65562,76,70,40
244.7077,244.84793,72,70,40
244.90001,245.04024,69,70,40
245.09232,245.23254,66,70,40
245.28462,245.47293,67,70,40
247.59232,247.73254,84,70,40
247.78462,247.92485,81,70,40
247.97693,248.11716,78,70,40
248.16924,248.30946,72,70,40
248.36154,248.54985,72,70,40
248.55385,248.74216,72,70,40
248.74615,248.84232,74,70,40
248.84232,248.93848,72,70,40
248.93848,249.03462,71,70,40
249.03462,249.13078,72,70,40
249.13078,249.31908,74,70,40
250.66924,250.80946,76,70,40
250.86154,251.00177,72,70,40
251.05385,251.19408,67,70,40
251.24615,251.38638,64,70,40
251.43846,251.62677,64,70,40
251.63077,251.81908,64,70,40
251.82309,251.91924,66,70,40
251.91924,252.0154,64,70,40
252.0154,252.11154,63,70,40
252.11154,252.2077,64,70,40
252.2077,252.34792,66,90,40
252.40001,252.54022,66,70,40
252.59232,252.68846,67,70,40
252.68846,252.78462,66,70,40
252.78462,252.88077,64,70,40
252.88077,252.97693,66,70,40
252.97693,253.11716,67,90,40
253.16924,253.30946,67,70,40
253.36154,253.4577,69,70,40
253.4577,253.55385,67,70,40
253.55385,253.65001,66,70,40
253.65001,253.74615,67,70,40
253.74615,253.88638,69,90,40
253.93846,254.07869,69,70,40
254.13077,254.22693,71,70,40
254.22693,254.32307,69,70,40
254.32307,254.41924,68,70,40
254.41924,254.51538,69,70,40
254.51538,254.6593,71,90,40
254.71275,254.85667,71,70,40
254.91013,255.01147,72,70,40
255.01147,255.11282,71,70,40
255.11282,255.217,69,70,40
255.217,255.32413,71,70,40
255.32413,255.70474,72,70,40
255.70876,256.08936,69,70,40
256.09335,256.85858,66,70,40
256.8626,257.2432,78,70,40
257.24722,257.6278,72,70,40
257.63184,258.39703,69,70,40
258.40106,258.78168,81,70,40
258.78568,259.1663,78,70,40
259.1703,259.93552,72,70,40
259.9395,260.32013,84,70,40
260.32413,260.70474,81,70,40
260.70874,261.47397,78,70,40
261.47797,261.6663,82,70,40
261.6703,261.85858,79,74,40
261.86258,262.0509,76,78,40
262.0549,262.2432,73,83,40
262.2472,262.43552,70,87,40
262.4395,262.6278,67,92,40
262.6318,262.82013,64,96,40
262.82413,263.01242,61,100,40
263.01645,263.59335,62,110,40
263.59335,263.69336,59,110,40
263.69336,263.79337,55,110,40
263.79337,263.86185,57,110,40
263.86185,263.93033,59,110,40
263.93033,263.99884,57,110,40
263.99884,264.06732,59,110,40
264.06732,264.13583,57,110,40
264.13583,264.2043,59,110,40
264.2043,264.27576,57,110,40
264.27576,264.34717,59,105,40
264.34717,264.4186,57,99,40
264.4186,264.50192,59,93,40
264.50192,264.58527,57,86,40
264.58527,264.6634,59,80,40
264.6686,265.0492,72,70,40
265.05322,265.43384,69,70,40
265.43784,266.20306,66,70,40
266.20706,266.58768,78,70,40
266.59167,266.9723,72,70,40
266.9763,267.74152,69,70,40
267.7455,268.12613,81,70,40
268.13013,268.51074,78,70,40
268.51474,269.27997,72,70,40
269.28397,269.4723,84,60,40
269.4763,269.66458,81,60,40
269.6686,270.0492,78,60,40
270.05322,270.24152,87,60,40
270.2455,270.4338,84,60,40
270.43784,270.81842,81,60,40
270.82245,271.58768,87,60,40
271.59167,271.77997,86,60,40
271.78397,271.9723,85,60,40
271.9763,272.16458,86,60,40
272.16858,272.3569,82,60,40
272.3609,272.64536,81,60,40
272.7455,273.02997,81,60,40
273.13013,273.70303,82,60,40
273.70706,273.7992,84,60,40
273.8032,273.89536,86,60,40
273.89935,274.66458,87,60,40
274.66858,274.8569,86,60,40
274.8609,275.0492,85,60,40
275.0532,275.24152,86,60,40
275.2455,275.4338,82,60,40
275.43784,275.7223,81,60,40
275.82245,276.1069,81,60,40
276.20706,276.77997,82,60,40
276.78397,276.97226,81,60,40
276.9763,278.51074,80,100,40
278.51474,279.08765,81,96,40
279.09167,279.1838,78,90,40
279.1878,279.27997,74,90,40
279.28397,279.34808,76,91,40
279.34808,279.41217,78,92,40
279.41217,279.4763,76,93,40
279.4763,279.54037,78,94,40
279.54037,279.6045,76,95,40
279.6045,279.66858,78,96,40
279.66858,279.7327,76,96,40
279.7327,279.79678,78,97,40
279.79678,279.8609,76,98,40
279.8609,279.95706,74,99,40
279.95706,280.0492,76,100,40
280.0532,280.1173,78,110,40
280.1173,280.1814,79,110,40
280.1814,280.2455,78,110,40
280.2455,280.3096,79,110,40
280.3096,280.37372,78,110,40
280.37372,280.4378,79,110,40
280.4378,280.50192,78,110,40
280.50192,280.566,79,110,40
280.566,280.63013,78,110,40
280.63013,280.6942,79,110,40
280.6942,280.75833,78,110,40
280.75833,280.82242,79,110,40
280.82242,280.88654,78,110,40
280.88654,280.95062,79,110,40
280.95062,281.01474,78,110,40
281.01474,281.07883,79,110,40
281.07883,281.14294,78,110,40
281.14294,281.20703,79,110,40
281.20703,281.27115,78,110,40
281.27115,281.33524,79,110,40
281.33524,281.39935,78,110,40
281.39935,281.4955,76,110,40
281.4955,281.58765,78,110,40
281.59167,281.65576,79,120,40
281.65576,281.71988,81,120,40
281.71988,281.78397,79,120,40
281.78397,281.88013,78,120,40
281.88013,281.9763,79,120,40
281.9763,282.04037,81,120,40
282.04037,282.1045,83,120,40
282.1045,282.16858,81,120,40
282.16858,282.26474,79,120,40
282.26474,282.35687,81,120,40
282.3609,282.6053,83,120,40
282.7455,282.96634,81,120,40
283.1455,283.5291,79,120,40
284.65802,284.8416,74,110,40
285.03302,285.2166,81,110,40
285.40802,285.9666,84,110,40
285.97052,286.06036,83,110,40
286.06427,286.1541,81,110,40
286.15802,286.5291,79,110,40
287.65802,287.79474,74,110,40
287.84552,287.98224,74,110,40
288.03302,288.16974,81,110,40
288.22052,288.35724,81,110,40
288.40802,288.9666,84,110,40
288.97052,289.06036,83,110,40
289.06427,289.1541,81,110,40
289.15802,289.29474,79,110,40
289.34552,289.43536,81,110,40
289.43927,289.5291,83,110,40
289.53302,289.66974,84,110,40
289.72052,289.81036,83,110,40
289.81427,289.9041,81,110,40
289.90802,290.04474,79,110,40
290.09552,290.18536,81,110,40
290.18927,290.2791,83,110,40
290.28302,290.41974,84,110,40
290.47052,290.56036,83,110,40
290.56427,290.6541,81,110,40
290.65802,290.74786,79,121,40
290.84552,291.2166,86,120,40
291.22052,291.5916,86,120,40
291.59552,291.9666,86,120,40
291.97052,292.3416,86,120,40
292.53302,292.7166,83,110,40
292.90802,293.6541,79,110,40
293.65802,293.8416,83,110,40
294.03302,294.2166,79,110,40
294.40802,295.1541,74,110,40
295.15802,295.3416,79,110,40
295.53302,295.7166,74,110,40
295.90802,296.6541,71,110,40
296.65802,296.79474,74,110,40
296.84552,296.98224,71,110,40
297.03302,297.4041,67,110,40
297.40802,297.54474,71,110,40
297.59552,297.73224,67,110,40
297.78302,298.1541,62,110,40
298.15802,298.29474,67,110,40
298.34552,298.48224,62,110,40
298.53302,298.9041,59,110,40
298.90802,299.04474,62,110,40
299.09552,299.23224,59,110,40
299.28302,299.6541,55,110,40
299.65802,299.79474,62,110,40
299.84552,299.98224,59,110,40
300.03302,300.4041,55,110,40
300.40802,300.54645,62,105,40
300.59787,300.73633,59,103,40
300.78775,301.16354,55,100,40
301.1675,301.3077,62,94,40
301.3598,301.50003,59,91,40
301.55212,302.71188,55,88,40
302.71594,302.85986,62,71,40
302.91333,303.05722,59,68,40
303.1107,304.30124,55,65,40
304.30542,304.45526,65,60,40
304.5109,304.66074,62,60,40
304.71637,307.77823,55,60,40
308.3845,308.57773,67,60,40
308.7792,308.97247,72,60,40
309.17395,309.76193,76,60,40
309.76605,309.86063,74,60,40
309.86475,309.95932,72,60,40
309.9634,310.10733,71,60,40
310.1608,310.30472,72,60,40
310.35815,310.50208,74,60,40
310.5555,310.69943,76,60,40
310.7529,310.94614,77,60,40
311.54236,311.73563,67,60,40
311.9371,312.13037,72,60,40
312.33185,313.1172,76,60,40
313.1213,313.31714,62,60,40
313.5213,313.7225,69,60,40
313.93228,314.7499,72,60,40
314.75418,314.95538,71,60,40
315.16513,315.36633,79,60,40
315.5761,316.18826,83,60,40
316.19254,316.291,81,60,40
316.2953,316.39374,79,60,40
316.398,316.54785,78,60,40
316.6035,316.75333,79,60,40
316.80896,316.9652,81,60,40
317.02325,317.19153,83,60,40
317.25403,317.47998,84,60,40
318.1771,318.3783,74,60,40
318.58807,318.78925,81,60,40
318.99902,319.61118,84,60,40
319.82092,319.97076,86,60,40
320.02643,320.17624,83,62,40
320.2319,320.3817,84,64,40
320.43738,320.5872,81,66,40
320.64285,320.79065,86,68,40
320.84555,320.99335,83,70,40
321.04825,321.1941,84,73,40
321.24826,321.3941,81,75,40
321.44824,321.59216,86,77,40
321.64563,321.78955,83,79,40
321.843,321.98505,84,81,40
322.0378,322.17984,81,83,40
322.2326,322.37283,86,86,40
322.4249,322.56512,83,88,40
322.61722,322.75394,84,90,40
322.80472,322.94144,81,92,40
322.99222,323.08206,86,94,40
323.08597,323.1758,86,95,40
323.17972,323.26956,83,96,40
323.27347,323.3633,83,97,40
323.36722,323.45706,84,99,40
323.46097,323.5508,84,100,40
323.55472,323.64456,81,101,40
323.64847,323.7383,81,102,40
323.74222,323.83206,86,103,40
323.83597,323.9258,86,104,40
323.92972,324.01956,83,105,40
324.02347,324.1133,83,106,40
324.11722,324.20706,84,107,40
324.21097,324.3008,84,108,40
324.30472,324.39456,81,109,40
324.39847,324.4883,81,110,40
324.49222,324.58206,86,115,40
324.58597,324.6758,86,115,40
324.67972,324.76956,83,115,40
324.77347,324.8633,83,115,40
324.86722,324.95706,79,115,40
324.96097,325.0508,79,115,40
325.05472,325.14456,74,115,40
325.14847,325.2383,74,115,40
325.24222,325.3332,71,115,40
325.33716,325.42813,71,115,40
325.4321,325.52307,67,115,40
325.52704,325.618,67,115,40
325.62198,325.764,62,115,40
325.81677,325.96262,69,115,40
325.81677,325.96262,78,115,40
326.01675,326.3126,71,115,40
326.01675,326.3126,79,115,40
326.81677,327.13373,67,120,40
326.81677,327.13373,74,120,40
326.81677,327.13373,83,120,40
327.67392,328.09802,55,127,40
330.35248,330.45517,67,1,40
0.0,0.18359375,67,1,40
3.0,3.1835938,59,70,40
3.375,3.5585938,62,70,40
3.75,4.3085938,67,70,40
4.3125,4.4023438,66,70,40
4.40625,4.4960938,64,70,40
4.5,4.6367188,62,70,40
4.6875,4.8242188,62,70,40
4.875,5.0117188,61,70,40
5.0625,5.2083335,61,70,40
5.2625,5.4583335,62,70,40
9.0625,9.246094,69,70,40
9.4375,9.621094,75,70,40
9.8125,10.371094,75,70,40
10.375,10.558594,75,70,40
10.5625,10.699219,71,70,40
10.75,10.886719,71,70,40
10.9375,11.077724,72,70,40
11.129807,11.2756405,71,70,40
11.329807,11.5256405,71,70,40
12.129807,12.902563,65,70,40
12.90673,13.32203,64,70,40
13.755066,14.822029,66,96,40
14.826493,14.972326,57,92,40
15.026493,15.163212,59,96,40
15.213993,15.350712,60,100,40
15.401493,15.585087,62,110,40
15.776493,15.960087,67,110,40
16.151493,16.710087,71,120,40
16.713993,16.803837,69,110,40
16.807743,16.897587,67,110,40
16.901493,17.038212,66,110,40
17.088993,17.225712,67,110,40
17.276493,17.413212,69,110,40
17.463993,17.600712,71,110,40
17.651493,17.835087,72,110,40
18.401493,18.585087,62,110,40
18.776493,18.960087,69,110,40
19.151493,19.710087,72,121,40
19.713993,19.803837,71,110,40
19.807743,19.897587,69,110,40
19.901493,20.038212,74,110,40
20.088993,20.225712,71,110,40
20.276493,20.413212,72,110,40
20.463993,20.600712,69,110,40
20.651493,21.022587,67,110,40
21.213993,21.397587,71,70,40
21.401493,21.772587,72,70,40
21.963993,22.147587,72,70,40
22.151493,22.288212,71,70,40
22.338993,22.475712,71,70,40
22.526493,22.663212,67,70,40
22.713993,22.850712,69,70,40
22.901493,23.038212,71,70,40
23.088993,23.225712,67,70,40
23.276493,23.413212,64,70,40
23.463993,23.600712,66,70,40
23.651493,24.022587,59,70,40
24.213993,24.397587,59,70,40
24.401493,24.772587,60,70,40
24.963993,25.147587,60,70,40
25.151493,25.335087,59,70,40
25.338993,25.522587,62,75,40
25.526493,25.710087,62,80,40
25.713993,25.897587,62,85,40
25.901493,26.085087,67,90,40
26.088993,26.272587,67,95,40
26.276493,26.460087,67,100,40
26.463993,26.647587,67,105,40
26.651493,27.022587,66,110,40
28.338993,28.522587,57,120,40
28.338993,28.522587,65,120,40
28.526493,28.710087,57,120,40
28.526493,28.710087,65,120,40
28.713993,28.897587,57,120,40
28.713993,28.897587,65,120,40
28.901493,29.085087,57,120,40
28.901493,29.085087,65,120,40
29.088993,29.272587,57,120,40
29.088993,29.272587,65,120,40
29.276493,29.460087,57,120,40
29.276493,29.460087,65,120,40
29.463993,29.647587,57,120,40
29.463993,29.647587,65,120,40
29.651493,29.835087,57,120,40
29.651493,29.835087,67,120,40
29.838993,30.022587,57,120,40
29.838993,30.022587,67,120,40
30.026493,30.210087,57,120,40
30.026493,30.210087,67,120,40
30.213993,30.397587,57,120,40
30.213993,30.397587,67,120,40
30.401493,30.585087,57,120,40
30.401493,30.585087,67,120,40
30.588993,30.772587,57,120,40
30.588993,30.772587,67,120,40
30.776493,30.960087,57,120,40
30.776493,30.960087,67,120,40
30.963993,31.147587,57,120,40
30.963993,31.147587,67,120,40
31.151493,31.335087,57,120,40
31.151493,31.335087,64,120,40
31.338993,31.522587,57,120,40
31.338993,31.522587,64,120,40
31.526493,31.710087,57,120,40
31.526493,31.710087,64,120,40
31.713993,31.897587,57,120,40
31.713993,31.897587,64,120,40
31.901493,32.085087,57,120,40
31.901493,32.085087,64,120,40
32.088993,32.272587,57,120,40
32.088993,32.272587,64,120,40
32.276493,32.460087,57,120,40
32.276493,32.460087,64,120,40
32.463993,32.647587,57,120,40
32.463993,32.647587,64,120,40
32.651493,32.835087,57,120,40
32.651493,32.835087,65,120,40
32.838993,33.022587,65,120,40
33.026493,33.210087,65,120,40
33.213993,33.397587,65,120,40
33.401493,33.585087,65,120,40
33.588993,33.772587,65,120,40
33.776493,33.960087,65,120,40
33.963993,34.147587,65,120,40
34.151493,34.335087,65,120,40
34.338993,34.522587,65,120,40
34.526493,34.710087,65,120,40
34.713993,34.897587,65,120,40
34.901493,35.085087,65,120,40
35.088993,35.272587,65,120,40
35.276493,35.460087,65,120,40
35.463993,35.647587,65,120,40
35.651493,35.835087,65,120,40
35.838993,36.022587,65,120,40
36.026493,36.210087,65,120,40
36.213993,36.397587,65,120,40
36.401493,36.585087,65,120,40
36.588993,36.772587,64,120,40
36.776493,36.960087,65,120,40
36.963993,37.147587,65,120,40
37.151493,37.335087,64,120,40
37.713993,37.85071,73,120,40
37.901493,38.085087,62,120,40
38.463993,38.60071,74,120,40
38.651493,38.835087,64,120,40
39.213993,39.35071,76,120,40
39.401493,39.585087,66,120,40
39.963993,40.10071,78,120,40
40.151493,40.522587,67,100,40
41.718372,41.858597,62,70,40
41.91068,42.050903,66,70,40
42.10299,42.24321,69,70,40
42.295296,42.43552,73,70,40
42.487602,42.627827,74,70,40
42.67991,42.820133,73,70,40
42.87222,43.012444,74,70,40
43.064526,43.20475,71,70,40
43.256832,43.445133,67,70,40
43.64145,43.82975,68,70,40
44.026062,44.40667,69,70,40
44.79529,44.935516,66,70,40
44.9876,45.127823,69,70,40
45.17991,45.320133,74,70,40
45.372215,45.51244,76,70,40
45.56452,45.704746,78,70,40
45.75683,45.897053,76,70,40
45.94914,46.089363,78,70,40
46.141445,46.28167,74,70,40
46.33375,46.473976,71,70,40
46.52606,46.666283,71,70,40
46.71837,46.858593,67,70,40
46.910675,47.0509,64,70,40
47.10298,47.291283,66,70,40
49.41067,49.550896,61,70,40
49.60298,49.743206,64,70,40
49.795288,49.935513,67,70,40
49.987595,50.12782,73,70,40
50.1799,50.320126,76,70,40
50.37221,50.512436,64,70,40
50.564518,50.704742,64,70,40
50.756824,50.89705,64,70,40
50.94913,51.329742,57,70,40
52.48759,52.627815,55,70,40
52.6799,52.820126,59,70,40
52.872208,53.012432,62,70,40
53.064514,53.20474,67,70,40
53.25682,53.397045,67,70,40
53.44913,53.589355,67,70,40
53.641438,53.781662,67,70,40
53.833744,53.97397,67,70,40
54.026054,54.406662,67,70,40
54.410667,54.791275,67,90,40
55.179897,55.560505,66,90,40
55.949127,56.329735,64,90,40
56.718357,57.1065,62,90,40
57.110664,57.87589,61,70,40
57.879894,58.2605,67,70,40
58.26451,58.64512,64,70,40
58.649124,59.41435,61,70,40
59.418354,59.798965,67,70,40
59.80297,60.18358,64,70,40
60.187584,60.95281,61,70,40
60.956814,61.337425,67,70,40
61.34143,61.72204,64,70,40
61.726044,62.49127,61,70,40
62.495274,62.875885,67,70,40
62.87989,63.275723,64,70,40
63.27989,64.24512,59,70,40
63.27989,64.24512,62,70,40
64.24912,64.63726,62,95,40
64.641426,65.04274,62,105,40
65.046906,65.19274,62,110,40
65.24691,65.39274,62,110,40
65.44691,65.59274,62,110,40
65.646904,65.84274,61,110,40
65.84691,66.04274,61,110,40
66.046906,66.25377,61,110,40
66.25817,66.48414,61,110,40
68.027405,68.40801,67,70,40
68.41202,68.792625,64,70,40
69.565865,69.94647,76,70,40
69.95048,70.331085,73,70,40
72.642784,72.831085,55,60,40
72.83509,73.02339,60,60,40
73.0274,73.2157,55,60,40
73.2197,73.408005,60,60,40
73.41201,73.60031,57,60,40
73.60432,73.79262,60,60,40
73.79663,73.98493,57,60,40
73.98894,74.17724,60,60,40
74.181244,74.369545,58,60,40
74.37355,74.56185,60,60,40
74.56586,74.75416,58,60,40
74.75816,74.946465,60,60,40
74.95047,75.13877,57,60,40
75.142784,75.331085,60,60,40
75.33509,75.52339,57,60,40
75.5274,75.7157,60,60,40
75.7197,75.908005,55,60,40
75.91201,76.10031,60,60,40
76.10432,76.29262,55,60,40
76.29662,76.484924,60,60,40
76.48893,76.67723,57,60,40
76.681244,76.869545,60,60,40
76.87355,77.06185,57,60,40
77.06586,77.25416,60,60,40
77.25816,77.446465,58,60,40
77.45047,77.63877,60,60,40
77.64278,77.83108,58,60,40
77.83508,78.023384,60,60,40
78.02739,78.21569,57,60,40
78.2197,78.408005,60,60,40
78.41201,78.60031,57,60,40
78.60432,78.79262,60,60,40
78.79662,78.984924,57,60,40
78.98893,79.17723,60,63,40
79.18124,79.36954,60,66,40
79.37354,79.561844,60,69,40
79.56585,79.75415,60,73,40
79.75816,79.946465,60,76,40
79.95047,80.13877,60,79,40
80.14278,80.33108,60,83,40
80.33508,80.523384,61,86,40
80.52739,80.71569,61,89,40
80.719696,80.908,61,92,40
80.912,81.1003,61,96,40
81.10432,81.29262,62,99,40
81.29662,81.484924,62,102,40
81.48893,81.67723,62,106,40
81.68124,81.86954,62,109,40
81.87354,82.061844,64,110,40
82.06585,82.25415,67,110,40
82.258156,82.44646,67,110,40
82.45046,82.63876,67,110,40
82.64278,82.83108,67,110,40
82.83508,83.023384,67,110,40
83.02739,83.21569,67,110,40
83.219696,83.408,67,110,40
83.412,83.6003,66,120,40
83.60431,83.79261,66,120,40
83.796616,83.98492,71,120,40
83.98892,84.17722,71,120,40
84.18124,84.36954,69,120,40
84.37354,84.561844,69,120,40
84.56585,84.75415,67,120,40
84.758156,84.94646,67,120,40
84.95046,85.23492,66,120,40
85.335075,85.61953,74,120,40
85.719696,86.29261,78,120,40
86.296616,86.38876,76,120,40
86.39277,86.48492,74,120,40
86.48892,86.58107,73,120,40
86.585075,86.67722,74,120,40
86.68123,86.77338,76,120,40
86.77738,86.86953,78,120,40
86.873535,86.96568,79,120,40
86.96969,87.06184,78,120,40
87.06585,87.15799,76,120,40
87.162,87.25415,74,120,40
87.258156,87.3503,73,120,40
87.35431,87.44646,74,120,40
87.45046,87.54261,76,120,40
87.546616,87.63876,74,120,40
87.64277,87.73492,73,120,40
87.73892,87.83107,69,120,40
87.835075,87.92722,71,120,40
87.93123,88.02338,73,120,40
88.02738,88.21568,74,120,40
88.21969,88.40799,69,120,40
88.411995,88.600296,74,120,40
88.60431,88.79261,74,120,40
88.796616,89.36953,78,120,40
89.373535,89.46568,76,120,40
89.46969,89.56184,74,120,40
89.56584,89.65799,73,120,40
89.661995,89.75414,74,120,40
89.75815,89.850296,76,120,40
89.8543,89.94645,78,120,40
89.950455,90.0426,79,120,40
90.04661,90.138756,78,120,40
90.14277,90.23491,76,120,40
90.23892,90.33107,74,120,40
90.335075,90.42722,73,120,40
90.43123,90.52338,74,120,40
90.52738,90.61953,76,120,40
90.623535,90.71568,74,120,40
90.71969,90.81184,73,120,40
90.81584,90.90799,69,120,40
90.911995,91.00414,71,120,40
91.00815,91.100296,73,120,40
91.1043,91.2926,74,115,40
91.29661,91.677216,73,115,40
91.68123,91.86953,73,115,40
91.873535,92.06937,74,115,40
92.07353,92.47473,61,115,40
92.47901,92.688835,61,115,40
92.6933,92.87921,62,115,40
93.073044,93.258965,69,115,40
93.45279,94.20833,66,115,40
94.21228,94.3982,69,115,40
94.592026,94.77795,66,115,40
94.97177,95.72731,62,115,40
95.73126,95.91718,66,115,40
96.11101,96.29693,62,115,40
96.49076,97.24629,57,115,40
97.25025,97.62604,62,110,40
97.63,98.38553,57,110,40
98.38949,99.14503,57,110,40
99.14898,99.90452,57,110,40
99.90847,100.66401,57,110,40
100.66796,101.4235,57,110,40
101.42745,102.18299,57,110,40
102.18695,103.72399,57,101,40
103.72808,105.32691,57,84,40
105.33119,107.88054,57,66,40
108.313576,108.50188,55,70,40
108.69819,108.88649,58,70,40
109.08281,109.65572,58,70,40
109.65973,109.84803,58,70,40
109.852036,109.99226,58,70,40
110.04434,110.18457,58,70,40
110.23666,110.37688,58,70,40
110.42896,110.56918,58,70,40
110.62127,110.80957,58,70,40
111.390495,111.5788,62,70,40
111.775116,111.96342,70,70,40
112.15973,112.73264,70,70,40
112.73665,112.92495,70,70,40
112.928955,113.06918,70,70,40
113.12126,113.26149,70,70,40
113.313576,113.459404,70,70,40
113.51357,113.65941,68,70,40
113.71357,114.08466,67,70,40
114.27607,114.45966,67,70,40
114.46357,114.83466,68,70,40
115.02607,115.20966,68,70,40
115.21357,115.35029,67,70,40
115.40107,115.53779,67,70,40
115.58857,115.72529,60,70,40
115.77607,115.91279,65,70,40
115.96357,116.10029,58,70,40
116.15107,116.28779,63,70,40
116.33857,116.47529,63,70,40
116.52607,116.66279,62,70,40
116.71357,117.08466,55,70,40
117.27607,117.45966,55,70,40
117.46357,117.83466,56,70,40
118.02607,118.20966,56,70,40
118.21357,118.58936,55,70,40
118.78319,118.96911,58,70,40
118.97307,119.353676,65,70,40
119.55768,119.7675,65,70,40
119.771965,120.169846,64,70,40
120.36125,120.49797,72,73,40
120.54875,120.732346,72,75,40
121.11125,121.24797,72,79,40
121.29875,121.482346,72,80,40
121.86125,122.044846,60,84,40
122.04875,122.419846,60,85,40
122.61125,122.794846,65,89,40
122.79875,123.169846,65,90,40
123.36125,123.544846,67,94,40
123.54875,123.919846,67,95,40
124.11125,124.294846,67,99,40
124.29875,124.669846,67,100,40
124.86125,125.044846,72,104,40
125.04875,125.419846,72,106,40
125.61125,125.794846,72,109,40
125.79875,126.04875,71,110,40
126.17375,126.42375,62,110,40
126.92375,127.17375,63,110,40
127.67375,127.92375,67,110,40
127.67375,127.92375,74,110,40
128.42375,128.67375,67,110,40
128.42375,128.67375,75,110,40
129.17375,129.42375,62,110,40
129.92375,130.17375,63,110,40
130.67375,130.92375,67,110,40
130.67375,130.92375,74,110,40
131.42375,131.67375,67,110,40
131.42375,131.67375,75,110,40
131.79875,132.16985,67,110,40
131.79875,132.16985,74,110,40
132.17375,132.54485,59,70,40
133.67375,134.04485,62,85,40
135.17375,135.54485,65,100,40
140.19695,140.33366,77,70,40
140.38445,140.52116,76,70,40
140.57195,140.70866,74,70,40
140.75945,140.89616,72,70,40
140.94695,141.13054,71,70,40
143.19695,143.33366,79,70,40
143.38445,143.52116,76,70,40
143.57195,143.70866,79,70,40
143.75945,143.89616,76,70,40
143.94695,144.19695,72,70,40
144.32195,144.57195,67,70,40
144.69695,144.94695,72,70,40
145.07195,145.63054,76,90,40
145.63445,145.72429,74,70,40
145.7282,145.81804,72,70,40
145.82195,145.95866,71,70,40
146.00945,146.14616,72,70,40
146.19695,146.33366,74,70,40
146.38445,146.52116,76,70,40
146.57195,146.70866,77,70,40
147.32195,147.57195,67,70,40
147.69695,147.94695,74,70,40
148.07195,148.63054,77,90,40
148.63445,148.72429,76,70,40
148.7282,148.81804,74,70,40
148.82195,148.95866,72,70,40
149.00945,149.14616,74,70,40
149.19695,149.33366,76,70,40
149.38445,149.52116,77,70,40
149.57195,149.70866,79,70,40
150.32195,150.45866,79,70,40
150.50945,150.64616,77,70,40
150.69695,150.83366,76,70,40
150.88445,151.02116,74,70,40
151.07195,151.25554,72,70,40
151.82195,151.95866,76,70,40
152.00945,152.14616,74,70,40
152.19695,152.33366,72,70,40
152.38445,152.52116,71,70,40
152.57195,152.75554,69,70,40
153.32195,153.45866,72,70,40
153.50945,153.64616,71,70,40
153.69695,153.83366,69,70,40
153.88445,154.02116,67,70,40
154.07195,154.25554,66,70,40
154.82195,154.95866,69,70,40
155.00945,155.14616,67,70,40
155.19695,155.33366,66,70,40
155.38445,155.52116,64,70,40
155.57195,155.75554,62,70,40
161.19695,161.38054,62,120,40
161.57195,161.75554,66,120,40
161.94695,162.69304,69,120,40
164.22386,164.4197,66,115,40
164.62386,164.82506,69,92,40
165.04362,165.80885,72,70,40
165.81285,166.19347,63,70,40
166.19748,166.57808,60,70,40
166.58209,167.3473,57,70,40
167.35132,167.73192,72,70,40
167.73593,168.11655,69,70,40
168.12054,168.50116,66,70,40
168.50516,168.88577,75,70,40
168.88977,169.27039,72,70,40
169.2744,169.655,69,70,40
169.65901,170.03961,66,70,40
170.04362,170.42422,63,70,40
170.42824,170.80885,64,70,40
170.81285,171.19347,61,70,40
171.19746,171.57808,62,70,40
171.58208,171.96269,75,70,40
171.96669,172.3473,72,70,40
172.35132,172.73192,69,70,40
172.73593,173.12656,66,70,40
173.13066,173.53185,63,70,40
173.53607,173.9484,64,70,40
173.95273,174.37685,61,70,40
174.3813,175.14653,62,70,40
175.15053,175.9359,61,65,40
175.94,176.7466,62,62,40
176.75082,177.5798,61,58,40
177.58415,178.43683,62,55,40
178.44128,180.3114,61,50,40
180.31628,183.31004,58,50,40
183.91629,184.1046,60,60,40
184.3009,184.48921,60,60,40
184.68552,185.25844,60,60,40
185.26244,185.45074,60,60,40
185.45476,185.59497,61,60,40
185.64706,185.78728,61,60,40
185.83937,185.97958,61,60,40
186.03168,186.1775,61,60,40
186.23167,186.4275,61,60,40
187.03168,187.1775,67,60,40
187.23167,187.3775,67,60,40
187.43167,187.5815,67,60,40
187.63715,187.7934,67,60,40
187.85144,188.06126,67,60,40
188.70857,188.86482,67,60,40
188.92287,189.07912,67,60,40
189.13715,189.30542,67,60,40
189.36792,189.55022,67,60,40
189.61792,189.86272,67,60,40
191.61792,191.86272,72,65,40
192.11792,192.36272,71,76,40
192.61792,192.88496,69,88,40
193.16338,193.71806,67,100,40
193.91338,197.65556,66,110,40
201.41338,201.59697,62,70,40
201.78838,201.97197,67,70,40
202.16338,202.72197,71,70,40
202.72588,202.81572,69,70,40
202.81963,202.90947,67,70,40
202.91338,203.0501,66,70,40
203.10088,203.2376,69,70,40
203.28838,203.4251,67,70,40
203.47588,203.6126,64,70,40
203.66338,203.84697,66,70,40
207.41338,207.59697,66,70,40
207.78838,207.97197,69,70,40
208.16338,208.72197,72,70,40
208.72588,208.81572,71,70,40
208.81963,208.90947,69,70,40
208.91338,209.0501,67,70,40
209.10088,209.2376,71,70,40
209.28838,209.4251,72,70,40
209.47588,209.6126,71,70,40
209.66338,209.84697,71,70,40
210.41338,210.78447,65,70,40
210.78838,210.87822,64,70,40
210.88213,210.97197,62,70,40
210.97588,211.06572,60,70,40
211.06963,211.15947,59,70,40
211.16338,211.21025,62,70,40
211.21025,211.25713,60,70,40
211.25713,211.34697,59,70,40
211.35088,211.44072,60,70,40
211.44463,211.53447,62,70,40
211.53838,211.72197,64,70,40
211.91338,212.47197,72,70,40
212.47588,212.56802,69,82,40
212.57202,212.66417,66,84,40
212.66818,212.80841,62,86,40
212.86049,213.00072,62,90,40
213.0528,213.19862,62,94,40
213.25279,213.40904,62,98,40
213.46709,213.65068,62,110,40
213.84209,214.02568,67,110,40
214.21709,214.77568,71,110,40
214.77959,214.86943,69,110,40
214.87334,214.96318,67,110,40
214.96709,215.1038,66,110,40
215.15459,215.2913,67,110,40
215.34209,215.4788,69,110,40
215.52959,215.6663,71,110,40
215.71709,215.90068,72,110,40
216.46709,216.65068,62,110,40
216.84209,217.02568,69,110,40
217.21709,217.77568,72,110,40
217.77959,217.86943,71,110,40
217.87334,217.96318,69,110,40
217.96709,218.1038,74,110,40
218.15459,218.2913,71,110,40
218.34209,218.4788,72,110,40
218.52959,218.6663,69,110,40
218.71709,219.08818,67,110,40
219.27959,219.46318,71,70,40
219.46709,219.83818,72,70,40
220.02959,220.21318,72,70,40
220.21709,220.3538,71,70,40
220.40459,220.5413,71,70,40
220.59209,220.7288,67,70,40
220.77959,220.9163,69,70,40
220.96709,221.1038,71,70,40
221.15459,221.2913,67,70,40
221.34209,221.4788,64,70,40
221.52959,221.6663,66,70,40
221.71709,222.08818,59,70,40
222.27959,222.46318,59,70,40
222.46709,222.83818,60,70,40
223.02959,223.21318,60,70,40
223.21709,223.40068,59,70,40
223.40459,223.58818,62,75,40
223.59209,223.77568,62,80,40
223.77959,223.96318,62,85,40
223.96709,224.15068,67,90,40
224.15459,224.33818,67,95,40
224.34209,224.52568,67,100,40
224.52959,224.71318,67,105,40
224.71709,225.08818,66,110,40
226.40459,226.58818,58,110,40
226.40459,226.58818,62,110,40
226.59209,226.77568,58,110,40
226.59209,226.77568,62,110,40
226.77959,226.96318,58,110,40
226.77959,226.96318,62,110,40
226.96709,227.15068,58,110,40
226.96709,227.15068,62,110,40
227.15459,227.33818,58,110,40
227.15459,227.33818,62,110,40
227.34209,227.52568,58,110,40
227.34209,227.52568,62,110,40
227.52959,227.71318,58,110,40
227.52959,227.71318,62,110,40
227.71709,227.90068,60,110,40
227.71709,227.90068,62,110,40
227.90459,228.08818,60,110,40
227.90459,228.08818,62,110,40
228.09209,228.27568,60,110,40
228.09209,228.27568,62,110,40
228.27959,228.46318,60,110,40
228.27959,228.46318,62,110,40
228.46709,228.65068,60,110,40
228.46709,228.65068,62,110,40
228.65459,228.83818,60,110,40
228.65459,228.83818,62,110,40
228.84209,229.02568,60,110,40
228.84209,229.02568,62,110,40
229.02959,229.21318,60,110,40
229.02959,229.21318,62,110,40
229.21709,229.40068,57,110,40
229.21709,229.40068,62,110,40
229.40459,229.58818,57,110,40
229.40459,229.58818,62,110,40
229.59209,229.77568,57,110,40
229.59209,229.77568,62,110,40
229.77959,229.96318,57,110,40
229.77959,229.96318,62,110,40
229.96709,230.15068,57,110,40
229.96709,230.15068,62,110,40
230.15459,230.33818,57,110,40
230.15459,230.33818,62,110,40
230.34209,230.52568,57,110,40
230.34209,230.52568,62,110,40
230.52959,230.71318,57,110,40
230.52959,230.71318,62,110,40
230.71709,230.90068,58,110,40
230.71709,230.90068,62,110,40
230.90459,231.08818,58,110,40
230.90459,231.08818,62,110,40
231.09209,231.27568,58,110,40
231.09209,231.27568,62,110,40
231.27959,231.46318,58,110,40
231.27959,231.46318,62,110,40
231.46709,231.65068,58,110,40
231.46709,231.65068,62,110,40
231.65459,231.83818,58,110,40
231.65459,231.83818,62,110,40
231.84209,232.02568,58,110,40
231.84209,232.02568,62,110,40
232.02959,232.21318,58,110,40
232.02959,232.21318,62,110,40
232.21709,232.40068,58,110,40
232.21709,232.40068,67,110,40
232.40459,232.58818,58,110,40
232.40459,232.58818,67,110,40
232.59209,232.77568,58,110,40
232.59209,232.77568,67,110,40
232.77959,232.96318,58,110,40
232.77959,232.96318,67,110,40
232.96709,233.15068,58,110,40
232.96709,233.15068,67,110,40
233.15459,233.33818,58,110,40
233.15459,233.33818,67,110,40
233.34209,233.52568,58,110,40
233.34209,233.52568,67,110,40
233.52959,233.71318,58,110,40
233.52959,233.71318,67,110,40
233.71709,233.90068,58,120,40
233.71709,233.90068,67,120,40
234.09209,234.65068,67,110,40
234.65459,234.7913,66,110,40
234.84209,234.9788,67,110,40
235.02959,235.1663,67,110,40
235.21709,235.58818,66,110,40
235.77959,235.9163,66,110,40
235.96709,236.15068,55,110,40
236.52959,236.6663,67,110,40
236.71709,236.90068,57,110,40
237.27959,237.4163,69,110,40
237.46709,237.65538,59,110,40
238.044,238.18423,71,110,40
238.23631,238.43214,60,110,40
239.89232,240.03816,55,70,40
240.09233,240.23254,59,70,40
240.28464,240.42485,62,70,40
240.47694,240.61716,66,70,40
240.66925,240.80948,67,70,40
240.86156,241.00179,66,70,40
241.05386,241.19409,67,70,40
241.24617,241.3864,64,70,40
241.43848,241.62679,60,70,40
241.82309,242.0114,61,70,40
242.2077,242.39601,62,70,40
242.97694,243.11716,59,70,40
243.16925,243.30946,62,70,40
243.36156,243.50177,67,70,40
243.55386,243.69408,69,70,40
243.74617,243.8864,71,70,40
243.93848,244.0787,69,70,40
244.13078,244.27101,71,70,40
244.32309,244.46332,67,70,40
244.5154,244.65562,64,70,40
244.7077,244.84793,64,70,40
244.90001,245.04024,60,70,40
245.09232,245.23254,57,70,40
245.28462,245.38078,59,70,40
245.38078,245.47693,71,70,40
245.47693,245.57309,69,70,40
245.57309,245.66924,67,70,40
245.66924,245.7654,66,70,40
245.7654,245.86156,64,70,40
245.86156,245.9577,62,70,40
245.9577,246.05386,60,70,40
246.05386,246.24216,59,70,40
246.24617,246.62677,59,70,40
246.63078,247.01138,59,70,40
247.0154,247.20369,59,70,40
247.2077,247.30385,60,70,40
247.30385,247.40001,59,70,40
247.40001,247.49617,57,70,40
247.49617,247.59232,59,70,40
247.59232,247.97293,60,70,40
249.13078,249.31908,62,70,40
249.32309,249.70369,62,70,40
249.7077,250.0883,62,70,40
250.09232,250.28061,62,70,40
250.28462,250.38078,64,70,40
250.38078,250.47693,62,70,40
250.47693,250.57309,60,70,40
250.57309,250.66924,62,70,40
250.66924,251.04985,64,70,40
252.59232,252.97292,60,90,40
253.36154,253.74216,59,90,40
254.13077,254.51138,57,90,40
254.91013,255.31967,67,90,40
255.32413,255.70474,66,70,40
256.09335,256.47397,60,70,40
256.47797,256.85858,57,70,40
256.8626,257.6278,66,70,40
257.63184,258.01242,60,70,40
258.01645,258.39703,57,70,40
258.40106,259.1663,66,70,40
259.1703,259.5509,60,70,40
259.5549,259.93552,57,70,40
259.9395,260.70474,66,70,40
260.70874,261.08936,60,70,40
261.09335,261.47397,57,70,40
261.47797,262.43552,58,70,40
261.47797,262.43552,67,70,40
262.4395,262.6278,58,92,40
262.4395,262.6278,67,92,40
262.6318,262.82013,58,96,40
262.6318,262.82013,67,96,40
262.82413,263.01242,58,100,40
262.82413,263.01242,67,100,40
263.01645,263.20474,59,110,40
263.01645,263.20474,67,110,40
263.20874,263.39703,59,110,40
263.40106,263.58936,59,110,40
263.59335,263.78918,59,110,40
263.79337,263.99457,60,110,40
263.99884,264.20004,60,110,40
264.2043,264.41412,60,110,40
264.4186,264.6634,60,93,40
266.20706,266.58768,72,70,40
266.59167,266.9723,69,70,40
267.7455,268.12613,72,70,40
268.13013,268.51074,69,70,40
270.82245,271.01074,60,60,40
271.01474,271.20306,65,60,40
271.20706,271.39536,60,60,40
271.39935,271.58768,65,60,40
271.59167,271.77997,62,60,40
271.78397,271.9723,65,60,40
271.9763,272.16458,62,60,40
272.16858,272.3569,65,60,40
272.3609,272.5492,63,60,40
272.55322,272.74152,65,60,40
272.7455,272.9338,63,60,40
272.93784,273.12613,65,60,40
273.13013,273.31842,62,60,40
273.32245,273.51074,65,60,40
273.51474,273.70303,62,60,40
273.70706,273.89536,65,60,40
273.89935,274.08768,60,60,40
274.09167,274.27997,65,60,40
274.28397,274.4723,60,60,40
274.4763,274.66458,65,60,40
274.66858,274.8569,62,60,40
274.8609,275.0492,65,60,40
275.0532,275.24152,62,60,40
275.2455,275.4338,65,60,40
275.43784,275.62613,63,60,40
275.63013,275.81842,65,60,40
275.82245,276.01074,63,60,40
276.01474,276.20303,65,60,40
276.20706,276.39536,62,60,40
276.39935,276.58765,65,60,40
276.59167,276.77997,62,60,40
276.78397,276.97226,65,60,40
276.9763,277.16458,65,60,40
277.16858,277.3569,65,62,40
277.3609,277.5492,65,65,40
277.5532,277.74152,65,67,40
277.7455,277.9338,65,70,40
277.9378,278.12613,65,73,40
278.13013,278.31842,65,75,40
278.32242,278.51074,65,78,40
278.51474,278.70303,66,81,40
278.70706,278.89536,66,83,40
278.89935,279.08765,66,86,40
279.09167,279.27997,66,89,40
279.28397,279.47226,67,91,40
279.4763,279.66458,67,94,40
279.66858,279.85687,67,96,40
279.8609,280.0492,67,99,40
280.0532,280.24152,69,110,40
280.2455,280.4338,60,110,40
280.4378,280.62613,60,110,40
280.63013,280.81842,60,110,40
280.82242,281.01074,60,110,40
281.01474,281.20303,60,110,40
281.20703,281.39536,60,110,40
281.39935,281.58765,60,110,40
281.59167,281.77997,59,120,40
281.78397,281.97226,59,120,40
281.9763,282.16458,64,120,40
282.16858,282.35687,64,120,40
282.3609,282.5492,67,120,40
282.5532,282.7415,67,120,40
282.7455,282.94135,66,120,40
282.9455,283.14133,66,120,40
283.1455,283.34134,67,120,40
283.53302,283.7166,67,110,40
283.90802,284.4666,71,110,40
284.47052,284.56036,69,110,40
284.56427,284.6541,67,110,40
284.65802,284.74786,66,110,40
284.75177,284.8416,67,110,40
284.84552,284.93536,69,110,40
284.93927,285.0291,71,110,40
285.03302,285.12286,72,110,40
285.12677,285.2166,71,110,40
285.22052,285.31036,69,110,40
285.31427,285.4041,67,110,40
285.40802,285.49786,66,110,40
285.50177,285.5916,67,110,40
285.59552,285.68536,69,110,40
285.68927,285.7791,67,110,40
285.78302,285.87286,66,110,40
285.87677,285.9666,62,110,40
285.97052,286.06036,64,110,40
286.06427,286.1541,66,110,40
286.15802,286.29474,67,110,40
286.34552,286.48224,74,110,40
286.53302,286.66974,79,110,40
286.72052,286.85724,79,110,40
286.90802,287.4666,83,110,40
287.47052,287.56036,81,110,40
287.56427,287.6541,79,110,40
287.65802,287.74786,78,110,40
287.84552,287.93536,69,110,40
287.93927,288.0291,71,110,40
288.03302,288.12286,72,110,40
288.12677,288.2166,71,110,40
288.22052,288.31036,69,110,40
288.31427,288.4041,67,110,40
288.40802,288.49786,66,110,40
288.50177,288.5916,67,110,40
288.59552,288.68536,69,110,40
288.68927,288.7791,67,110,40
288.78302,288.87286,66,110,40
288.87677,288.9666,62,110,40
288.97052,289.06036,64,110,40
289.06427,289.1541,66,110,40
289.15802,289.3416,67,110,40
289.34552,289.7166,66,110,40
289.72052,289.9041,66,110,40
289.90802,290.0916,67,110,40
290.09552,290.4666,66,110,40
290.47052,290.6541,66,110,40
290.65802,290.79474,67,120,40
290.84552,290.93536,69,120,40
290.93927,291.0291,71,120,40
291.03302,291.16974,72,120,40
291.22052,291.31036,71,120,40
291.31427,291.4041,69,120,40
291.40802,291.54474,67,120,40
291.59552,291.68536,69,120,40
291.68927,291.7791,71,120,40
291.78302,291.91974,72,120,40
291.97052,292.06036,71,120,40
292.06427,292.1541,69,120,40
292.15802,292.3416,67,120,40
292.53302,292.7166,71,110,40
292.90802,293.6541,67,110,40
293.65802,293.8416,71,110,40
294.03302,294.2166,67,110,40
294.40802,295.1541,62,110,40
295.15802,295.3416,67,110,40
295.53302,295.7166,62,110,40
295.90802,296.6541,59,110,40
296.65802,297.0291,62,110,40
297.03302,297.7791,62,110,40
297.78302,298.5291,62,110,40
298.53302,299.2791,62,110,40
299.28302,300.0291,62,110,40
300.03302,300.78378,62,110,40
300.78775,301.5481,62,100,40
301.55212,303.10657,62,88,40
303.1107,304.7121,62,65,40
304.71637,307.77823,62,60,40
308.3845,308.57773,64,60,40
308.7792,308.97247,67,60,40
309.17395,309.76193,67,60,40
309.76605,309.95932,67,60,40
309.9634,310.10733,67,60,40
310.1608,310.30472,67,60,40
310.35815,310.50208,67,60,40
310.5555,310.69943,67,60,40
310.7529,310.94614,67,60,40
311.54236,311.73563,67,60,40
311.9371,312.13037,67,60,40
312.33185,313.1172,67,60,40
313.1213,313.31714,62,60,40
313.5213,313.7225,62,60,40
313.93228,314.7499,62,60,40
314.75418,314.95538,62,60,40
315.16513,315.36633,74,60,40
315.5761,316.18826,74,60,40
316.19254,316.39374,74,60,40
316.398,316.54785,74,60,40
316.6035,316.75333,74,60,40
316.80896,316.9652,74,60,40
317.02325,317.19153,74,60,40
317.25403,317.47998,74,60,40
318.1771,318.3783,69,60,40
318.58807,318.78925,74,60,40
318.99902,319.61118,74,60,40
319.61545,319.81665,74,60,40
319.82092,319.97076,74,60,40
320.02643,320.17624,71,62,40
320.2319,320.3817,72,64,40
320.43738,320.5872,69,66,40
320.64285,320.79065,74,68,40
320.84555,320.99335,71,70,40
321.04825,321.1941,72,73,40
321.24826,321.3941,69,75,40
321.44824,321.59216,74,77,40
321.64563,321.78955,79,79,40
321.843,321.98505,76,81,40
322.0378,322.17984,78,83,40
322.2326,322.37283,79,86,40
322.4249,322.56512,79,88,40
322.61722,322.75394,76,90,40
322.80472,322.94144,78,92,40
322.99222,323.08206,79,94,40
323.08597,323.1758,79,95,40
323.17972,323.26956,79,96,40
323.27347,323.3633,79,97,40
323.36722,323.45706,76,99,40
323.46097,323.5508,76,100,40
323.55472,323.64456,78,101,40
323.64847,323.7383,78,102,40
323.74222,323.83206,79,103,40
323.83597,323.9258,79,104,40
323.92972,324.01956,79,105,40
324.02347,324.1133,79,106,40
324.11722,324.20706,76,107,40
324.21097,324.3008,76,108,40
324.30472,324.39456,78,109,40
324.39847,324.4883,78,110,40
324.49222,324.62894,79,115,40
324.67972,324.76956,71,115,40
324.77347,324.8633,71,115,40
324.86722,324.95706,67,115,40
324.96097,325.0508,67,115,40
325.05472,325.14456,62,115,40
325.14847,325.2383,62,115,40
325.24222,325.3332,59,115,40
325.33716,325.42813,59,115,40
325.4321,325.52307,55,115,40
325.52704,325.618,55,115,40
325.62198,325.7153,62,115,40
325.71936,325.8127,62,115,40
325.81677,325.9126,72,115,40
325.91678,326.0126,72,115,40
326.01675,326.3126,62,115,40
326.01675,326.3126,71,115,40
326.81677,327.13373,71,120,40
326.81677,327.13373,79,120,40
327.67392,328.09802,55,127,40
0.0,0.18359375,55,1,41
3.0,3.1835938,59,70,41
3.375,3.5585938,59,70,41
3.75,4.3085938,55,70,41
4.3125,4.4023438,57,70,41
4.40625,4.4960938,59,70,41
4.5,4.6367188,57,70,41
4.6875,4.8242188,54,70,41
4.875,5.0117188,52,70,41
5.0625,5.2083335,55,70,41
5.2625,5.4583335,54,70,41
9.0625,9.246094,66,70,41
9.4375,9.621094,69,70,41
9.8125,10.371094,72,70,41
10.375,10.464844,71,70,41
10.46875,10.558594,69,70,41
10.5625,10.699219,67,70,41
10.75,10.886719,67,70,41
10.9375,11.077724,69,70,41
11.129807,11.2756405,69,70,41
11.329807,11.5256405,67,70,41
12.129807,12.902563,62,70,41
12.90673,13.32203,60,70,41
13.755066,14.822029,57,103,41
14.826493,14.972326,54,92,41
15.026493,15.163212,55,96,41
15.213993,15.350712,57,100,41
15.401493,15.538212,59,110,41
15.588993,15.725712,59,110,41
15.776493,15.913212,59,110,41
15.963993,16.100712,59,110,41
16.151493,16.288212,59,110,41
16.338993,16.475712,59,110,41
16.526493,16.663212,59,110,41
16.713993,16.850712,59,110,41
16.901493,17.038212,60,110,41
17.088993,17.225712,60,110,41
17.276493,17.413212,60,110,41
17.463993,17.600712,60,110,41
17.651493,17.788212,60,110,41
17.838993,17.975712,59,110,41
18.026493,18.163212,57,110,41
18.213993,18.350712,55,110,41
18.401493,18.538212,54,110,41
18.588993,18.725712,54,110,41
18.776493,18.913212,54,110,41
18.963993,19.100712,54,110,41
19.151493,19.288212,54,110,41
19.338993,19.475712,54,110,41
19.526493,19.663212,54,110,41
19.713993,19.850712,62,110,41
19.901493,20.038212,62,110,41
20.088993,20.225712,67,110,41
20.276493,20.413212,64,110,41
20.463993,20.600712,66,110,41
20.651493,21.022587,59,110,41
21.213993,21.397587,67,70,41
21.401493,21.772587,66,70,41
21.963993,22.147587,66,70,41
22.151493,22.288212,67,70,41
22.338993,22.475712,65,70,41
22.526493,22.663212,64,70,41
22.713993,22.850712,66,70,41
22.901493,23.038212,67,70,41
23.088993,23.225712,64,70,41
23.276493,23.413212,60,70,41
23.463993,23.600712,62,70,41
23.651493,24.022587,55,70,41
24.213993,24.397587,55,70,41
24.401493,24.772587,57,70,41
24.963993,25.147587,57,70,41
25.151493,25.335087,55,70,41
25.338993,25.522587,59,75,41
25.526493,25.710087,59,80,41
25.713993,25.897587,59,85,41
25.901493,26.085087,59,90,41
26.088993,26.272587,59,95,41
26.276493,26.460087,57,100,41
26.463993,26.647587,57,105,41
26.651493,27.022587,57,110,41
28.338993,28.522587,62,120,41
28.526493,28.710087,62,120,41
28.713993,28.897587,62,120,41
28.901493,29.085087,62,120,41
29.088993,29.272587,62,120,41
29.276493,29.460087,62,120,41
29.463993,29.647587,62,120,41
29.651493,29.835087,64,120,41
29.838993,30.022587,64,120,41
30.026493,30.210087,64,120,41
30.213993,30.397587,64,120,41
30.401493,30.585087,64,120,41
30.588993,30.772587,64,120,41
30.776493,30.960087,64,120,41
30.963993,31.147587,64,120,41
31.151493,31.335087,61,120,41
31.338993,31.522587,61,120,41
31.526493,31.710087,61,120,41
31.713993,31.897587,61,120,41
31.901493,32.085087,61,120,41
32.088993,32.272587,61,120,41
32.276493,32.460087,61,120,41
32.463993,32.647587,61,120,41
32.651493,32.835087,62,120,41
32.838993,33.022587,62,120,41
33.026493,33.210087,62,120,41
33.213993,33.397587,62,120,41
33.401493,33.585087,62,120,41
33.588993,33.772587,62,120,41
33.776493,33.960087,62,120,41
33.963993,34.147587,62,120,41
34.151493,34.335087,62,120,41
34.338993,34.522587,62,120,41
34.526493,34.710087,62,120,41
34.713993,34.897587,62,120,41
34.901493,35.085087,62,120,41
35.088993,35.272587,62,120,41
35.276493,35.460087,62,120,41
35.463993,35.647587,62,120,41
35.651493,35.835087,62,120,41
35.838993,36.022587,62,120,41
36.026493,36.210087,62,120,41
36.213993,36.397587,62,120,41
36.401493,36.585087,62,120,41
36.588993,36.772587,61,120,41
36.776493,36.960087,62,120,41
36.963993,37.147587,62,120,41
37.151493,37.335087,61,120,41
37.713993,37.85071,69,120,41
37.901493,38.085087,68,120,41
38.463993,38.60071,68,120,41
38.651493,38.835087,67,120,41
39.213993,39.35071,67,120,41
39.401493,39.585087,66,120,41
39.963993,40.10071,66,120,41
40.151493,40.522587,61,100,41
44.79529,44.935516,62,70,41
44.9876,45.127823,66,70,41
45.17991,45.320133,69,70,41
45.372215,45.51244,73,70,41
45.56452,45.704746,74,70,41
45.75683,45.897053,73,70,41
45.94914,46.089363,74,70,41
46.141445,46.28167,71,70,41
46.33375,46.473976,67,70,41
46.52606,46.666283,64,70,41
46.71837,46.858593,69,70,41
46.910675,47.0509,57,70,41
47.10298,47.19513,62,70,41
47.199135,47.291283,66,70,41
47.29529,47.387436,64,70,41
47.391445,47.483593,62,70,41
47.4876,47.579746,61,70,41
47.58375,47.6759,59,70,41
47.679905,47.772053,57,70,41
47.77606,47.868206,55,70,41
47.87221,48.060513,54,70,41
48.06452,48.44513,54,70,41
48.449135,48.829742,54,70,41
48.83375,49.022053,54,70,41
49.02606,49.118206,55,70,41
49.12221,49.21436,54,70,41
49.218365,49.310513,52,70,41
49.314518,49.406666,54,70,41
49.41067,49.791283,55,70,41
50.94913,51.137432,57,70,41
51.14144,51.52205,57,70,41
51.526054,51.906662,57,70,41
51.91067,52.098972,57,70,41
52.102978,52.195126,59,70,41
52.19913,52.29128,57,70,41
52.295284,52.387432,55,70,41
52.391438,52.483585,57,70,41
52.48759,52.868202,59,70,41
54.410667,54.791275,64,90,41
55.179897,55.560505,62,90,41
55.949127,56.329735,61,90,41
56.718357,57.1065,59,90,41
57.110664,57.87589,57,70,41
57.879894,58.2605,58,70,41
58.26451,58.64512,55,70,41
58.649124,59.41435,57,70,41
59.418354,59.798965,58,70,41
59.80297,60.18358,55,70,41
60.187584,60.95281,57,70,41
60.956814,61.337425,58,70,41
61.34143,61.72204,55,70,41
61.726044,62.49127,57,70,41
62.495274,62.875885,58,70,41
62.87989,63.275723,55,70,41
63.27989,64.24512,56,70,41
64.24912,64.43742,59,95,41
64.44143,64.63726,62,100,41
64.641426,64.84263,65,105,41
64.84691,65.04274,66,110,41
65.046906,65.19274,54,110,41
65.24691,65.39274,54,110,41
65.44691,65.59274,54,110,41
65.646904,65.84274,55,110,41
65.84691,66.04274,55,110,41
66.046906,66.25377,55,110,41
66.25817,66.48414,55,110,41
67.25817,67.63878,67,70,41
67.64279,68.0234,64,70,41
68.79663,69.17724,67,70,41
69.18125,69.56186,64,70,41
70.33509,70.7157,67,70,41
70.71971,71.10032,64,70,41
72.25817,72.44647,58,60,41
72.45048,72.63878,55,60,41
72.642784,73.408005,52,60,41
73.41201,74.17724,53,60,41
74.181244,74.946465,55,60,41
74.95047,75.7157,53,60,41
75.7197,76.484924,52,60,41
76.48893,77.25416,53,60,41
77.25816,78.023384,55,60,41
78.02739,78.79262,53,60,41
78.79662,78.984924,60,60,41
78.98893,79.17723,57,63,41
79.18124,79.36954,57,66,41
79.37354,79.561844,57,69,41
79.56585,79.75415,57,73,41
79.75816,79.946465,57,76,41
79.95047,80.13877,57,79,41
80.14278,80.33108,57,83,41
80.33508,80.523384,57,86,41
80.52739,80.71569,57,89,41
80.719696,80.908,57,92,41
80.912,81.1003,57,96,41
81.10432,81.29262,56,99,41
81.29662,81.484924,56,102,41
81.48893,81.67723,56,106,41
81.68124,81.86954,56,109,41
81.87354,82.061844,55,110,41
82.06585,82.25415,64,110,41
82.258156,82.44646,64,110,41
82.45046,82.63876,64,110,41
82.64278,82.83108,64,110,41
82.83508,83.023384,64,110,41
83.02739,83.21569,64,110,41
83.219696,83.408,64,110,41
83.412,83.6003,62,120,41
83.60431,83.79261,62,120,41
83.796616,83.98492,62,120,41
83.98892,84.17722,62,120,41
84.18124,84.36954,62,120,41
84.37354,84.561844,62,120,41
84.56585,84.75415,61,120,41
84.758156,84.94646,61,120,41
84.95046,85.23492,62,120,41
85.335075,85.61953,62,120,41
85.719696,86.29261,66,120,41
86.296616,86.38876,64,120,41
86.39277,86.48492,62,120,41
86.48892,86.67722,61,120,41
86.68123,86.86953,67,120,41
86.873535,87.06184,67,120,41
87.06585,87.25415,67,120,41
87.258156,87.44646,67,120,41
87.45046,87.63876,67,120,41
87.64277,87.83107,67,120,41
87.835075,88.02338,67,120,41
88.02738,88.21568,66,120,41
88.21969,88.40799,57,120,41
88.411995,88.600296,62,120,41
88.60431,88.79261,62,120,41
88.796616,89.36953,66,120,41
89.373535,89.46568,64,120,41
89.46969,89.56184,62,120,41
89.56584,89.65799,61,120,41
89.661995,89.75414,62,120,41
89.75815,89.850296,64,120,41
89.8543,89.94645,66,120,41
89.950455,90.0426,67,120,41
90.04661,90.138756,66,120,41
90.14277,90.23491,64,120,41
90.23892,90.33107,62,120,41
90.335075,90.42722,61,120,41
90.43123,90.52338,62,120,41
90.52738,90.61953,64,120,41
90.623535,90.71568,62,120,41
90.71969,90.81184,61,120,41
90.81584,90.90799,57,120,41
90.911995,91.00414,59,120,41
91.00815,91.100296,61,120,41
91.1043,91.2926,62,115,41
91.29661,91.677216,67,115,41
91.68123,91.86953,67,115,41
91.873535,92.06937,66,115,41
92.07353,92.47473,55,115,41
92.47901,92.688835,55,115,41
92.6933,93.069084,54,115,41
93.45279,93.63871,69,115,41
93.832535,94.018456,66,115,41
94.21228,94.96782,62,115,41
94.97177,95.15769,66,115,41
95.35152,95.53744,62,115,41
95.73126,96.4868,57,115,41
96.49076,96.676674,62,115,41
96.87051,97.05642,57,115,41
97.25025,97.62604,54,110,41
97.63,98.38553,54,110,41
98.38949,99.14503,54,110,41
99.14898,99.90452,54,110,41
99.90847,100.66401,54,110,41
100.66796,101.4235,54,110,41
101.42745,102.18299,54,110,41
102.18695,103.72399,54,101,41
103.72808,105.32691,54,84,41
105.33119,107.88054,54,66,41
108.313576,108.50188,55,70,41
108.69819,108.88649,55,70,41
109.08281,109.65572,55,70,41
109.65973,109.84803,55,70,41
109.852036,109.99226,56,70,41
110.04434,110.18457,55,70,41
110.23666,110.37688,53,70,41
110.42896,110.56918,51,70,41
110.62127,110.80957,50,70,41
111.390495,111.5788,65,70,41
111.775116,111.96342,62,70,41
112.15973,112.73264,65,70,41
112.73665,112.8288,63,70,41
112.8328,112.92495,62,70,41
112.928955,113.06918,67,70,41
113.12126,113.26149,63,70,41
113.313576,113.459404,65,70,41
113.51357,113.65941,62,70,41
113.71357,114.08466,63,70,41
114.27607,114.45966,63,70,41
114.46357,114.83466,62,70,41
115.02607,115.20966,62,70,41
115.21357,115.35029,63,70,41
115.40107,115.53779,64,70,41
115.58857,115.72529,65,70,41
115.77607,115.91279,62,70,41
115.96357,116.10029,63,70,41
116.15107,116.28779,60,70,41
116.33857,116.47529,56,70,41
116.52607,116.66279,58,70,41
116.71357,117.08466,51,70,41
117.27607,117.45966,51,70,41
117.46357,117.83466,53,70,41
118.02607,118.20966,53,70,41
118.21357,118.58936,51,70,41
118.78319,118.96911,55,70,41
118.97307,119.353676,53,70,41
119.55768,119.7675,53,70,41
119.771965,120.169846,55,70,41
120.36125,120.49797,53,73,41
120.54875,120.732346,55,75,41
121.11125,121.24797,55,79,41
121.29875,121.482346,56,80,41
121.86125,122.044846,60,84,41
122.04875,122.419846,65,85,41
122.61125,122.794846,60,89,41
122.79875,123.169846,62,90,41
123.36125,123.544846,62,94,41
123.54875,123.919846,63,95,41
124.11125,124.294846,65,99,41
124.29875,124.669846,63,100,41
124.86125,125.044846,60,104,41
125.04875,125.419846,60,106,41
125.61125,125.794846,60,109,41
125.79875,126.04875,59,110,41
126.17375,126.42375,59,110,41
126.92375,127.17375,60,110,41
127.67375,127.92375,59,110,41
128.42375,128.67375,60,110,41
129.17375,129.42375,59,110,41
129.92375,130.17375,60,110,41
130.67375,130.92375,59,110,41
131.42375,131.67375,60,110,41
131.79875,132.16985,59,110,41
132.17375,132.54485,55,70,41
133.67375,134.04485,59,85,41
135.17375,135.54485,62,100,41
137.94695,138.13054,52,100,41
137.94695,138.13054,55,100,41
138.13445,138.31804,52,70,41
138.13445,138.31804,55,70,41
138.32195,138.50554,52,70,41
138.32195,138.50554,55,70,41
138.50945,138.69304,52,70,41
138.50945,138.69304,55,70,41
138.69695,138.88054,52,70,41
138.69695,138.88054,55,70,41
138.88445,139.06804,52,70,41
138.88445,139.06804,55,70,41
139.07195,139.25554,52,70,41
139.07195,139.25554,55,70,41
139.25945,139.44304,52,70,41
139.25945,139.44304,55,70,41
139.44695,139.63054,53,70,41
139.44695,139.63054,55,70,41
139.63445,139.81804,53,70,41
139.63445,139.81804,55,70,41
139.82195,140.00554,53,70,41
139.82195,140.00554,55,70,41
140.00945,140.19304,53,70,41
140.00945,140.19304,55,70,41
140.19695,140.38054,53,70,41
140.19695,140.38054,55,70,41
140.38445,140.56804,53,70,41
140.38445,140.56804,55,70,41
140.57195,140.75554,53,70,41
140.57195,140.75554,55,70,41
140.75945,140.94304,53,70,41
140.75945,140.94304,55,70,41
140.94695,141.13054,53,70,41
140.94695,141.13054,55,70,41
141.13445,141.31804,53,70,41
141.13445,141.31804,55,70,41
141.32195,141.50554,53,70,41
141.32195,141.50554,55,70,41
141.50945,141.69304,53,70,41
141.50945,141.69304,55,70,41
141.69695,141.88054,53,70,41
141.69695,141.88054,55,70,41
141.88445,142.06804,53,70,41
141.88445,142.06804,55,70,41
142.07195,142.25554,53,70,41
142.07195,142.25554,55,70,41
142.25945,142.44304,53,70,41
142.25945,142.44304,55,70,41
142.44695,142.63054,52,70,41
142.44695,142.63054,55,70,41
142.63445,142.81804,52,70,41
142.63445,142.81804,55,70,41
142.82195,143.00554,52,70,41
142.82195,143.00554,55,70,41
143.00945,143.19304,52,70,41
143.00945,143.19304,55,70,41
143.19695,143.38054,52,70,41
143.19695,143.38054,55,70,41
143.38445,143.56804,52,70,41
143.38445,143.56804,55,70,41
143.57195,143.75554,52,70,41
143.57195,143.75554,55,70,41
143.75945,143.94304,52,70,41
143.75945,143.94304,55,70,41
143.94695,144.13054,52,70,41
143.94695,144.13054,55,70,41
144.13445,144.31804,55,70,41
144.13445,144.31804,67,70,41
144.32195,144.50554,55,70,41
144.32195,144.50554,67,70,41
144.50945,144.69304,55,70,41
144.50945,144.69304,67,70,41
144.69695,144.88054,55,70,41
144.69695,144.88054,67,70,41
144.88445,145.06804,55,70,41
144.88445,145.06804,67,70,41
145.07195,145.25554,55,70,41
145.07195,145.25554,67,70,41
145.25945,145.44304,55,70,41
145.25945,145.44304,67,70,41
145.44695,145.63054,55,70,41
145.44695,145.63054,67,70,41
145.63445,145.81804,55,70,41
145.63445,145.81804,67,70,41
145.82195,146.00554,55,70,41
145.82195,146.00554,67,70,41
146.00945,146.19304,55,70,41
146.00945,146.19304,67,70,41
146.19695,146.38054,55,70,41
146.19695,146.38054,67,70,41
146.38445,146.56804,55,70,41
146.38445,146.56804,67,70,41
146.57195,146.75554,55,70,41
146.57195,146.75554,67,70,41
146.75945,146.94304,55,70,41
146.75945,146.94304,67,70,41
146.94695,147.13054,55,70,41
146.94695,147.13054,67,70,41
147.13445,147.31804,55,70,41
147.13445,147.31804,67,70,41
147.32195,147.50554,55,70,41
147.32195,147.50554,67,70,41
147.50945,147.69304,55,70,41
147.50945,147.69304,67,70,41
147.69695,147.88054,55,70,41
147.69695,147.88054,67,70,41
147.88445,148.06804,55,70,41
147.88445,148.06804,67,70,41
148.07195,148.25554,55,70,41
148.07195,148.25554,67,70,41
148.25945,148.44304,55,70,41
148.25945,148.44304,67,70,41
148.44695,148.63054,55,70,41
148.44695,148.63054,67,70,41
148.63445,148.81804,55,70,41
148.63445,148.81804,67,70,41
148.82195,149.00554,55,70,41
148.82195,149.00554,67,70,41
149.00945,149.19304,55,70,41
149.00945,149.19304,67,70,41
149.19695,149.38054,55,70,41
149.19695,149.38054,67,70,41
149.38445,149.56804,55,70,41
149.38445,149.56804,67,70,41
149.57195,149.70866,60,70,41
149.75945,149.89616,62,70,41
149.94695,150.08366,64,70,41
150.13445,150.27116,65,70,41
150.32195,150.45866,67,70,41
151.07195,151.20866,57,70,41
151.25945,151.39616,59,70,41
151.44695,151.58366,60,70,41
151.63445,151.77116,62,70,41
151.82195,152.00554,64,70,41
152.57195,152.70866,54,70,41
152.75945,152.89616,55,70,41
152.94695,153.08366,57,70,41
153.13445,153.27116,59,70,41
153.32195,153.50554,60,70,41
154.07195,154.20866,50,70,41
154.25945,154.39616,52,70,41
154.44695,154.58366,54,70,41
154.63445,154.77116,55,70,41
154.82195,155.00554,57,70,41
155.57195,155.70866,50,120,41
155.75945,155.89616,52,120,41
155.94695,156.08366,54,120,41
156.13445,156.27116,55,120,41
156.32195,156.45866,57,120,41
156.50945,156.64616,59,120,41
156.69695,158.56804,48,120,41
156.69695,158.56804,60,120,41
158.57195,158.70866,50,120,41
158.75945,158.89616,52,120,41
158.94695,159.08366,54,120,41
159.13445,159.27116,55,120,41
159.32195,159.45866,57,120,41
159.50945,159.64616,59,120,41
159.69695,161.56804,48,120,41
159.69695,161.56804,60,120,41
161.57195,161.70866,50,120,41
161.75945,161.89616,52,120,41
161.94695,162.08366,54,120,41
162.13445,162.27116,55,120,41
162.32195,162.45866,57,120,41
162.50945,162.64616,59,120,41
162.69695,165.03917,48,120,41
162.69695,165.03917,60,120,41
165.04362,165.23193,54,70,41
165.42824,165.61655,57,70,41
165.81285,166.19347,60,70,41
166.19748,166.57808,57,70,41
166.58209,167.3473,54,70,41
167.35132,167.73192,63,70,41
167.73593,168.11655,60,70,41
168.12054,168.50116,57,70,41
168.50516,168.88577,72,70,41
168.88977,169.27039,69,70,41
169.2744,169.655,66,70,41
169.65901,170.03961,63,70,41
170.04362,170.42422,60,70,41
170.42824,170.80885,61,70,41
170.81285,171.19347,58,70,41
171.19746,171.57808,57,70,41
171.58208,171.96269,72,70,41
171.96669,172.3473,69,70,41
172.35132,172.73192,66,70,41
172.73593,173.12656,63,70,41
173.13066,173.53185,60,70,41
173.53607,173.9484,61,70,41
173.95273,174.37685,58,70,41
174.3813,175.14653,57,70,41
175.15053,175.9359,55,65,41
175.94,176.7466,57,62,41
176.75082,177.5798,55,58,41
177.58415,178.43683,57,55,41
178.44128,180.3114,55,50,41
180.31628,183.31004,61,50,41
183.91629,184.1046,51,60,41
184.3009,184.48921,51,60,41
184.68552,185.25844,51,60,41
185.26244,185.45074,51,60,41
185.45476,185.59497,51,60,41
185.64706,185.78728,51,60,41
185.83937,185.97958,51,60,41
186.03168,186.1775,51,60,41
186.23167,186.4275,51,60,41
187.03168,187.1775,64,60,41
187.23167,187.3775,64,60,41
187.43167,187.5815,64,60,41
187.63715,187.7934,64,60,41
187.85144,188.06126,64,60,41
188.70857,188.86482,64,60,41
188.92287,189.07912,64,60,41
189.13715,189.30542,64,60,41
189.36792,189.55022,64,60,41
189.61792,189.86272,64,60,41
191.61792,191.86272,62,65,41
192.11792,192.36272,62,76,41
192.61792,192.88496,62,88,41
193.16338,193.71806,62,100,41
193.91338,197.65556,62,110,41
201.41338,201.59697,59,70,41
201.78838,201.97197,59,70,41
202.16338,202.72197,67,70,41
202.72588,202.81572,66,70,41
202.81963,202.90947,64,70,41
202.91338,203.0501,62,70,41
203.10088,203.2376,66,70,41
203.28838,203.4251,64,70,41
203.47588,203.6126,61,70,41
203.66338,203.84697,62,70,41
207.41338,207.59697,63,70,41
207.78838,207.97197,66,70,41
208.16338,208.72197,69,70,41
208.72588,208.81572,67,70,41
208.81963,208.90947,66,70,41
208.91338,209.0501,64,70,41
209.10088,209.2376,67,70,41
209.28838,209.4251,69,70,41
209.47588,209.6126,69,70,41
209.66338,209.84697,67,70,41
210.41338,211.15947,50,70,41
211.16338,211.34697,52,70,41
211.91338,212.85648,54,102,41
212.86049,213.00072,40,90,41
213.0528,213.19862,62,94,41
213.25279,213.40904,60,98,41
213.46709,213.6038,59,110,41
213.65459,213.7913,59,110,41
213.84209,213.9788,59,110,41
214.02959,214.1663,59,110,41
214.21709,214.3538,59,110,41
214.40459,214.5413,59,110,41
214.59209,214.7288,59,110,41
214.77959,214.9163,59,110,41
214.96709,215.1038,60,110,41
215.15459,215.2913,59,110,41
215.34209,215.4788,57,110,41
215.52959,215.6663,55,110,41
215.71709,215.80693,54,110,41
215.81084,215.90068,57,110,41
215.90459,215.99443,62,110,41
215.99834,216.08818,66,110,41
216.09209,216.18193,69,110,41
216.18584,216.27568,66,110,41
216.27959,216.36943,62,110,41
216.37334,216.46318,59,110,41
216.46709,216.6038,54,110,41
216.65459,216.7913,54,110,41
216.84209,216.9788,54,110,41
217.02959,217.1663,54,110,41
217.21709,217.3538,54,110,41
217.40459,217.5413,54,110,41
217.59209,217.7288,54,110,41
217.77959,217.9163,54,110,41
217.96709,218.1038,55,110,41
218.15459,218.2913,67,110,41
218.34209,218.4788,67,110,41
218.52959,218.6663,66,110,41
218.71709,219.08818,59,110,41
219.27959,219.46318,67,70,41
219.46709,219.83818,66,70,41
220.02959,220.21318,66,70,41
220.21709,220.3538,67,70,41
220.40459,220.5413,65,70,41
220.59209,220.7288,64,70,41
220.77959,220.9163,66,70,41
220.96709,221.1038,67,70,41
221.15459,221.2913,64,70,41
221.34209,221.4788,60,70,41
221.52959,221.6663,62,70,41
221.71709,222.08818,55,70,41
222.27959,222.46318,55,70,41
222.46709,222.83818,57,70,41
223.02959,223.21318,57,70,41
223.21709,223.40068,55,70,41
223.40459,223.58818,59,75,41
223.59209,223.77568,59,80,41
223.77959,223.96318,59,85,41
223.96709,224.15068,59,90,41
224.15459,224.33818,59,95,41
224.34209,224.52568,57,100,41
224.52959,224.71318,57,105,41
224.71709,225.08818,57,110,41
226.40459,226.58818,55,110,41
226.59209,226.77568,55,110,41
226.77959,226.96318,55,110,41
226.96709,227.15068,55,110,41
227.15459,227.33818,55,110,41
227.34209,227.52568,55,110,41
227.52959,227.71318,55,110,41
227.71709,227.90068,57,110,41
227.90459,228.08818,57,110,41
228.09209,228.27568,57,110,41
228.27959,228.46318,57,110,41
228.46709,228.65068,57,110,41
228.65459,228.83818,57,110,41
228.84209,229.02568,57,110,41
229.02959,229.21318,57,110,41
229.21709,229.40068,54,110,41
229.40459,229.58818,54,110,41
229.59209,229.77568,54,110,41
229.77959,229.96318,54,110,41
229.96709,230.15068,54,110,41
230.15459,230.33818,54,110,41
230.34209,230.52568,54,110,41
230.52959,230.71318,54,110,41
230.71709,230.90068,55,110,41
230.90459,231.08818,55,110,41
231.09209,231.27568,55,110,41
231.27959,231.46318,55,110,41
231.46709,231.65068,55,110,41
231.65459,231.83818,55,110,41
231.84209,232.02568,55,110,41
232.02959,232.21318,55,110,41
232.21709,232.40068,55,110,41
232.40459,232.58818,63,110,41
232.59209,232.77568,63,110,41
232.77959,232.96318,63,110,41
232.96709,233.15068,63,110,41
233.15459,233.33818,63,110,41
233.34209,233.52568,63,110,41
233.52959,233.71318,63,110,41
233.71709,233.8538,64,120,41
233.90459,234.0413,62,110,41
234.09209,234.2288,64,110,41
234.27959,234.4163,66,110,41
234.46709,234.83818,67,110,41
234.84209,235.21318,61,110,41
235.21709,235.58818,62,110,41
235.77959,235.9163,62,110,41
235.96709,236.15068,61,110,41
236.52959,236.6663,61,110,41
236.71709,236.90068,60,110,41
237.27959,237.4163,60,110,41
237.46709,237.65538,59,110,41
238.044,238.18423,59,110,41
238.23631,238.43214,54,110,41
242.97694,243.11716,55,70,41
243.16925,243.30946,59,70,41
243.36156,243.50177,62,70,41
243.55386,243.69408,66,70,41
243.74617,243.8864,67,70,41
243.93848,244.0787,66,70,41
244.13078,244.27101,67,70,41
244.32309,244.46332,64,70,41
244.5154,244.65562,60,70,41
244.7077,244.84793,57,70,41
244.90001,245.04024,62,70,41
245.09232,245.23254,50,70,41
245.28462,245.47293,55,70,41
247.59232,247.73254,57,70,41
247.78462,247.92485,60,70,41
247.97693,248.11716,66,70,41
248.16924,248.30946,67,70,41
248.36154,248.54985,69,70,41
248.55385,248.74216,57,70,41
248.74615,248.93446,57,70,41
248.93848,249.12677,57,70,41
249.13078,249.31908,59,70,41
250.66924,250.80946,48,70,41
250.86154,251.00177,52,70,41
251.05385,251.19408,55,70,41
251.24615,251.38638,59,70,41
251.43846,251.62677,60,70,41
251.63077,251.81908,60,70,41
251.82309,252.01138,60,70,41
252.0154,252.20369,60,70,41
252.2077,252.5883,60,70,41
252.59232,252.97292,57,90,41
253.36154,253.74216,55,90,41
254.13077,254.51138,54,90,41
254.91013,255.31967,52,90,41
255.32413,256.08936,50,70,41
256.09335,256.47397,51,70,41
256.47797,256.85858,48,70,41
256.8626,257.6278,50,70,41
257.63184,258.01242,51,70,41
258.01645,258.39703,48,70,41
258.40106,259.1663,50,70,41
259.1703,259.5509,51,70,41
259.5549,259.93552,48,70,41
259.9395,260.70474,50,70,41
260.70874,261.08936,51,70,41
261.09335,261.47397,48,70,41
261.47797,261.6663,49,70,41
261.6703,261.85858,52,74,41
261.86258,262.0509,55,78,41
262.0549,262.2432,58,83,41
262.2472,262.43552,61,87,41
262.4395,262.6278,64,92,41
262.6318,262.82013,67,96,41
262.82413,263.01242,64,100,41
263.01645,263.20474,62,110,41
263.20874,263.39703,55,110,41
263.40106,263.58936,55,110,41
263.59335,263.78918,55,110,41
263.79337,263.99457,54,110,41
263.99884,264.20004,54,110,41
264.2043,264.41412,54,110,41
264.4186,264.6634,54,93,41
265.43784,265.81845,72,70,41
265.82245,266.20306,69,70,41
266.9763,267.3569,72,70,41
267.3609,267.74152,69,70,41
268.51474,268.89536,72,70,41
268.89935,269.27997,69,70,41
270.05322,270.4338,60,60,41
270.43784,270.62613,63,60,41
270.63013,270.81842,60,60,41
270.82245,271.58768,57,60,41
271.59167,272.3569,58,60,41
272.3609,273.12613,60,60,41
273.13013,273.89536,58,60,41
273.89935,274.66458,57,60,41
274.66858,275.4338,58,60,41
275.43784,276.20303,60,60,41
276.20706,276.97226,58,60,41
276.9763,277.16458,58,60,41
277.16858,277.3569,62,62,41
277.3609,277.5492,62,65,41
277.5532,277.74152,62,67,41
277.7455,277.9338,62,70,41
277.9378,278.12613,62,73,41
278.13013,278.31842,62,75,41
278.32242,278.51074,62,78,41
278.51474,278.70303,62,81,41
278.70706,278.89536,62,83,41
278.89935,279.08765,62,86,41
279.09167,279.27997,62,89,41
279.28397,279.47226,61,91,41
279.4763,279.66458,61,94,41
279.66858,279.85687,61,96,41
279.8609,280.0492,61,99,41
280.0532,280.24152,60,110,41
280.2455,280.4338,57,110,41
280.4378,280.62613,57,110,41
280.63013,280.81842,57,110,41
280.82242,281.01074,57,110,41
281.01474,281.20303,57,110,41
281.20703,281.39536,57,110,41
281.39935,281.58765,57,110,41
281.59167,281.77997,55,120,41
281.78397,281.97226,55,120,41
281.9763,282.16458,64,120,41
282.16858,282.35687,64,120,41
282.3609,282.5492,62,120,41
282.5532,282.7415,62,120,41
282.7455,282.94135,60,120,41
282.9455,283.14133,60,120,41
283.1455,283.5291,59,120,41
284.65802,284.8416,60,110,41
284.84552,285.0291,60,110,41
285.03302,285.2166,60,110,41
285.22052,285.4041,60,110,41
285.40802,285.5916,60,110,41
285.59552,285.7791,60,110,41
285.78302,285.9666,60,110,41
285.97052,286.1541,60,110,41
286.15802,286.3416,59,110,41
286.34552,286.5291,62,110,41
286.53302,286.7166,67,110,41
286.72052,286.9041,67,110,41
286.90802,287.4666,71,110,41
287.47052,287.56036,69,110,41
287.56427,287.6541,67,110,41
287.65802,287.74786,66,110,41
287.84552,287.93536,57,110,41
287.93927,288.0291,59,110,41
288.03302,288.12286,60,110,41
288.12677,288.2166,59,110,41
288.22052,288.31036,57,110,41
288.31427,288.4041,55,110,41
288.40802,288.49786,54,110,41
288.50177,288.5916,55,110,41
288.59552,288.68536,57,110,41
288.68927,288.7791,55,110,41
288.78302,288.87286,54,110,41
288.87677,288.9666,50,110,41
288.97052,289.06036,52,110,41
289.06427,289.1541,54,110,41
289.15802,289.3416,55,110,41
289.34552,289.7166,60,110,41
289.72052,289.9041,60,110,41
289.90802,290.0916,59,110,41
290.09552,290.4666,60,110,41
290.47052,290.6541,60,110,41
290.65802,290.79474,59,120,41
290.84552,290.93536,57,120,41
290.93927,291.0291,59,120,41
291.03302,291.16974,60,120,41
291.22052,291.31036,59,120,41
291.31427,291.4041,57,120,41
291.40802,291.54474,55,120,41
291.59552,291.68536,57,120,41
291.68927,291.7791,59,120,41
291.78302,291.91974,60,120,41
291.97052,292.06036,59,120,41
292.06427,292.1541,57,120,41
292.15802,292.3416,55,120,41
292.90802,293.0916,74,110,41
293.28302,293.4666,71,110,41
293.65802,294.4041,67,110,41
294.40802,294.5916,71,110,41
294.78302,294.9666,67,110,41
295.15802,295.9041,62,110,41
295.90802,296.0916,67,110,41
296.28302,296.4666,62,110,41
296.65802,297.0291,59,110,41
297.03302,297.7791,59,110,41
297.78302,298.5291,59,110,41
298.53302,299.2791,59,110,41
299.28302,300.0291,59,110,41
300.03302,300.78378,59,110,41
300.78775,301.5481,59,100,41
301.55212,303.10657,59,88,41
303.1107,304.7121,59,65,41
304.71637,307.77823,59,60,41
308.3845,308.57773,60,60,41
308.7792,308.97247,64,60,41
309.17395,309.76193,64,60,41
309.76605,309.95932,64,60,41
309.9634,310.10733,65,60,41
310.1608,310.30472,64,60,41
310.35815,310.50208,62,60,41
310.5555,310.69943,60,60,41
310.7529,310.94614,59,60,41
311.54236,311.73563,64,60,41
311.9371,312.13037,64,60,41
312.33185,313.1172,64,60,41
313.1213,313.31714,57,60,41
313.5213,313.7225,57,60,41
313.93228,314.54443,57,60,41
314.5487,314.7499,54,60,41
314.75418,314.95538,59,60,41
315.16513,315.36633,71,60,41
315.5761,316.18826,71,60,41
316.398,316.54785,72,60,41
316.6035,316.75333,71,60,41
316.80896,316.9652,69,60,41
317.02325,317.19153,67,60,41
317.25403,317.47998,66,60,41
318.1771,318.3783,66,60,41
318.58807,318.78925,66,60,41
318.99902,319.61118,66,60,41
319.61545,319.81665,66,60,41
319.82092,319.97076,67,60,41
320.02643,320.17624,67,62,41
320.2319,320.3817,69,64,41
320.43738,320.5872,67,66,41
320.64285,320.79065,67,68,41
320.84555,320.99335,67,70,41
321.04825,321.1941,69,73,41
321.24826,321.3941,67,75,41
321.44824,321.59216,67,77,41
321.64563,321.78955,67,79,41
321.843,321.98505,64,81,41
322.0378,322.17984,66,83,41
322.2326,322.37283,67,86,41
322.4249,322.56512,67,88,41
322.61722,322.75394,64,90,41
322.80472,322.94144,66,92,41
322.99222,323.08206,67,94,41
323.08597,323.1758,67,95,41
323.17972,323.26956,67,96,41
323.27347,323.3633,67,97,41
323.36722,323.45706,64,99,41
323.46097,323.5508,64,100,41
323.55472,323.64456,66,101,41
323.64847,323.7383,66,102,41
323.74222,323.83206,67,103,41
323.83597,323.9258,67,104,41
323.92972,324.01956,67,105,41
324.02347,324.1133,67,106,41
324.11722,324.20706,64,107,41
324.21097,324.3008,64,108,41
324.30472,324.39456,66,109,41
324.39847,324.4883,66,110,41
324.49222,324.58206,67,115,41
324.58597,324.6758,67,115,41
324.67972,324.76956,71,115,41
324.77347,324.8633,71,115,41
324.86722,324.95706,67,115,41
324.96097,325.0508,67,115,41
325.05472,325.14456,62,115,41
325.14847,325.2383,62,115,41
325.24222,325.3332,59,115,41
325.33716,325.42813,59,115,41
325.4321,325.52307,55,115,41
325.52704,325.618,55,115,41
325.62198,325.7153,62,115,41
325.71936,325.8127,62,115,41
325.81677,325.9126,50,115,41
325.91678,326.0126,50,115,41
326.01675,326.3126,55,115,41
326.81677,327.13373,67,120,41
327.67392,328.09802,55,127,41
0.0,0.18359375,50,70,42
0.375,0.55859375,55,70,42
0.75,1.3085938,59,70,42
1.3125,1.4023438,57,70,42
1.40625,1.4960938,55,70,42
1.5,1.6367188,54,70,42
1.6875,1.8242188,55,70,42
1.875,2.0117188,57,70,42
2.0625,2.1992188,59,70,42
2.25,2.4335938,60,70,42
3.0,3.1835938,55,70,42
3.375,3.5585938,55,70,42
3.75,4.3085938,52,70,42
4.3125,4.4023438,54,70,42
4.40625,4.4960938,55,70,42
4.5,4.6367188,57,70,42
4.6875,4.8242188,45,70,42
4.875,5.0117188,45,70,42
5.0625,5.2083335,45,70,42
5.2625,5.4583335,50,70,42
6.0625,6.2460938,50,70,42
6.4375,6.6210938,57,70,42
6.8125,7.3710938,60,70,42
7.375,7.4648438,59,70,42
7.46875,7.5585938,57,70,42
7.5625,7.6992188,55,70,42
7.75,7.8867188,56,70,42
7.9375,8.074219,57,70,42
8.125,8.261719,58,70,42
8.3125,8.496094,59,70,42
9.0625,9.246094,59,70,42
9.4375,9.621094,59,70,42
9.8125,10.371094,59,70,42
10.375,10.558594,59,70,42
10.5625,10.699219,64,70,42
10.75,10.886719,64,70,42
10.9375,11.077724,59,70,42
11.129807,11.2756405,59,70,42
11.329807,11.5256405,52,70,42
12.129807,12.902563,55,70,42
12.90673,13.32203,48,70,42
13.755066,14.822029,50,101,42
14.826493,14.972326,48,92,42
15.026493,15.163212,47,96,42
15.213993,15.350712,45,100,42
15.401493,15.538212,43,110,42
15.588993,15.725712,55,110,42
15.776493,15.913212,55,110,42
15.963993,16.100712,55,110,42
16.151493,16.288212,55,110,42
16.338993,16.475712,55,110,42
16.526493,16.663212,55,110,42
16.713993,16.850712,55,110,42
16.901493,17.038212,57,110,42
17.088993,17.225712,57,110,42
17.276493,17.413212,57,110,42
17.463993,17.600712,57,110,42
17.651493,17.788212,57,110,42
17.838993,17.975712,55,110,42
18.026493,18.163212,54,110,42
18.213993,18.350712,52,110,42
18.401493,18.538212,50,110,42
18.588993,18.725712,50,110,42
18.776493,18.913212,50,110,42
18.963993,19.100712,50,110,42
19.151493,19.288212,50,110,42
19.338993,19.475712,50,110,42
19.526493,19.663212,50,110,42
19.713993,19.850712,48,110,42
19.901493,20.038212,47,110,42
20.088993,20.225712,52,110,42
20.276493,20.413212,48,110,42
20.463993,20.600712,50,110,42
20.651493,21.022587,43,110,42
23.651493,24.022587,43,70,42
24.213993,24.397587,55,70,42
24.401493,24.772587,54,70,42
24.963993,25.147587,54,70,42
25.151493,25.335087,43,70,42
25.338993,25.522587,55,75,42
25.526493,25.710087,55,80,42
25.713993,25.897587,55,85,42
25.901493,26.085087,40,90,42
26.088993,26.272587,52,95,42
26.276493,26.460087,52,100,42
26.463993,26.647587,52,105,42
26.651493,27.022587,50,110,42
28.151493,28.522587,38,120,42
28.526493,28.897587,50,120,42
28.901493,29.460087,53,120,42
29.463993,29.553837,52,120,42
29.557743,29.647587,50,120,42
29.651493,29.788212,49,120,42
29.838993,29.975712,50,120,42
30.026493,30.163212,52,120,42
30.213993,30.350712,53,120,42
30.401493,30.585087,55,120,42
31.151493,31.522587,45,120,42
31.526493,31.897587,52,120,42
31.901493,32.460087,55,120,42
32.463993,32.553837,53,120,42
32.557743,32.647587,52,120,42
32.651493,32.78821,50,120,42
32.838993,32.97571,52,120,42
33.026493,33.16321,53,120,42
33.213993,33.35071,55,120,42
33.401493,33.585087,57,120,42
34.151493,34.28821,46,120,42
34.338993,34.47571,48,120,42
34.526493,34.66321,50,120,42
34.713993,34.85071,51,120,42
34.901493,35.085087,53,120,42
35.651493,35.78821,44,120,42
35.838993,35.97571,45,120,42
36.026493,36.16321,47,120,42
36.213993,36.35071,49,120,42
36.401493,36.678837,50,120,42
36.776493,37.053837,44,120,42
37.151493,37.335087,45,120,42
37.713993,37.85071,57,120,42
37.901493,38.085087,45,120,42
38.463993,38.60071,57,120,42
38.651493,38.835087,45,120,42
39.213993,39.35071,57,120,42
39.401493,39.585087,45,120,42
39.963993,40.10071,57,120,42
40.151493,40.522587,45,100,42
47.87221,48.012436,38,70,42
48.06452,48.204742,42,70,42
48.25683,48.397053,45,70,42
48.449135,48.58936,49,70,42
48.64144,48.781666,50,70,42
48.83375,48.973972,49,70,42
49.02606,49.166283,50,70,42
49.218365,49.35859,50,70,42
49.41067,49.791283,52,70,42
50.94913,51.089355,42,70,42
51.14144,51.281666,45,70,42
51.333748,51.473972,50,70,42
51.526054,51.66628,52,70,42
51.71836,51.858585,54,70,42
51.91067,52.050896,53,70,42
52.102978,52.243202,54,70,42
52.295284,52.43551,52,70,42
52.48759,52.868202,55,70,42
54.026054,54.406662,57,70,42
54.795284,55.17589,57,70,42
55.564514,55.94512,57,70,42
56.333744,56.71435,57,70,42
57.110664,57.87589,45,70,42
57.879894,58.2605,46,70,42
58.26451,58.64512,43,70,42
58.649124,59.41435,45,70,42
59.418354,59.798965,46,70,42
59.80297,60.18358,43,70,42
60.187584,60.95281,45,70,42
60.956814,61.337425,46,70,42
61.34143,61.72204,43,70,42
61.726044,62.49127,45,70,42
62.495274,62.875885,46,70,42
62.87989,63.275723,43,70,42
63.27989,63.475723,44,70,42
63.47989,63.66819,47,75,42
63.6722,63.8605,50,80,42
63.864506,64.0528,53,85,42
64.056816,64.43742,56,90,42
64.641426,64.84263,47,105,42
64.84691,65.04274,45,110,42
65.046906,65.24274,45,110,42
65.24691,65.44274,45,110,42
65.44691,65.64274,45,110,42
65.646904,65.84274,45,110,42
65.84691,66.04274,45,110,42
66.046906,66.25377,45,110,42
66.25817,66.48414,45,110,42
66.488945,67.254166,57,70,42
67.25817,67.63878,58,70,42
67.64279,68.0234,55,70,42
68.027405,68.792625,57,70,42
68.79663,69.17724,58,70,42
69.18125,69.56186,55,70,42
69.565865,70.331085,57,70,42
70.33509,70.7157,58,70,42
70.71971,71.10032,55,70,42
71.104324,71.48493,57,60,42
71.48894,71.67724,58,60,42
71.681244,71.869545,55,60,42
71.87355,72.25416,52,60,42
72.25817,72.44647,55,60,42
72.45048,72.63878,52,60,42
72.642784,78.023384,48,60,42
78.02739,78.79262,53,60,42
78.79662,78.984924,54,60,42
78.98893,79.17723,54,63,42
79.18124,79.36954,54,66,42
79.37354,79.561844,54,69,42
79.56585,79.75415,54,73,42
79.75816,79.946465,54,76,42
79.95047,80.13877,54,79,42
80.14278,80.33108,54,83,42
80.33508,80.523384,52,86,42
80.52739,80.71569,52,89,42
80.719696,80.908,52,92,42
80.912,81.1003,52,96,42
81.10432,81.29262,52,99,42
81.29662,81.484924,52,102,42
81.48893,81.67723,52,106,42
81.68124,81.86954,52,109,42
81.87354,82.061844,45,110,42
82.06585,82.25415,57,110,42
82.258156,82.44646,57,110,42
82.45046,82.63876,57,110,42
82.64278,82.83108,58,110,42
82.83508,83.023384,58,110,42
83.02739,83.21569,58,110,42
83.219696,83.408,58,110,42
83.412,83.6003,59,120,42
83.60431,83.79261,59,120,42
83.796616,83.98492,56,120,42
83.98892,84.17722,56,120,42
84.18124,84.36954,57,120,42
84.37354,84.561844,57,120,42
84.56585,84.75415,45,120,42
84.758156,84.94646,45,120,42
84.95046,85.04261,50,120,42
85.046616,85.13876,52,120,42
85.14277,85.23492,54,120,42
85.23892,85.33107,55,120,42
85.335075,85.42722,57,120,42
85.43123,85.52338,55,120,42
85.52738,85.61953,54,120,42
85.62354,85.71568,52,120,42
85.719696,85.811844,50,120,42
85.81585,85.908,52,120,42
85.912,86.00415,54,120,42
86.008156,86.1003,55,120,42
86.10431,86.19646,57,120,42
86.20046,86.29261,59,120,42
86.296616,86.38876,61,120,42
86.39277,86.48492,62,120,42
86.48892,86.67722,50,120,42
86.68123,86.86953,50,120,42
86.873535,87.06184,50,120,42
87.06585,87.25415,50,120,42
87.258156,87.44646,50,120,42
87.45046,87.63876,50,120,42
87.64277,87.83107,50,120,42
87.835075,88.02338,50,120,42
88.02738,88.11953,50,120,42
88.123535,88.21568,52,120,42
88.21969,88.31184,54,120,42
88.31584,88.40799,55,120,42
88.411995,88.50414,57,120,42
88.50815,88.600296,55,120,42
88.60431,88.69645,54,120,42
88.70046,88.79261,52,120,42
88.796616,88.88876,50,120,42
88.89277,88.98492,52,120,42
88.98892,89.08107,54,120,42
89.085075,89.17722,55,120,42
89.18123,89.27338,57,120,42
89.27738,89.36953,59,120,42
89.373535,89.46568,61,120,42
89.46969,89.56184,62,120,42
89.56584,89.75414,38,120,42
89.75815,89.94645,50,120,42
89.950455,90.138756,50,120,42
90.14277,90.33107,50,120,42
90.335075,90.52338,50,120,42
90.52738,90.71568,50,120,42
90.71969,90.90799,50,120,42
90.911995,91.100296,50,120,42
91.1043,91.2926,38,115,42
91.29661,91.48491,50,115,42
91.488914,91.677216,50,115,42
91.68123,91.86953,50,115,42
91.873535,92.06937,38,115,42
92.07353,92.26936,50,115,42
92.27354,92.47473,50,115,42
92.47901,92.688835,50,115,42
92.6933,93.069084,38,115,42
93.45279,93.63871,57,115,42
93.832535,94.018456,54,115,42
94.21228,94.96782,50,115,42
94.97177,95.15769,54,115,42
95.35152,95.53744,50,115,42
95.73126,96.4868,45,115,42
96.49076,96.676674,50,115,42
96.87051,97.05642,45,115,42
97.25025,97.62604,42,110,42
97.63,97.76845,57,110,42
97.81987,97.95832,54,110,42
98.00974,98.38553,50,110,42
98.38949,98.52794,54,110,42
98.57936,98.71781,50,110,42
98.76923,99.14503,45,110,42
99.14898,99.28743,50,110,42
99.33885,99.4773,45,110,42
99.528725,99.90452,42,110,42
99.90847,100.04692,45,110,42
100.09834,100.23679,42,110,42
100.288216,100.66401,38,110,42
100.66796,100.80641,45,110,42
100.857834,100.996284,42,110,42
101.04771,101.4235,38,110,42
101.42745,101.5659,45,110,42
101.617325,101.755775,42,110,42
101.807205,102.56274,38,105,42
102.566696,102.70692,45,97,42
102.759,102.89922,42,95,42
102.95131,104.11615,38,92,42
104.12024,104.26607,45,79,42
104.32024,104.46607,42,77,42
104.52023,105.73787,38,75,42
105.74215,105.8984,45,62,42
105.956436,106.112686,42,60,42
106.17072,107.88054,38,50,42
108.313576,108.50188,39,70,42
108.69819,108.88649,51,70,42
109.08281,109.65572,51,70,42
109.65973,109.84803,51,70,42
109.852036,109.99226,53,70,42
110.04434,110.18457,51,70,42
110.23666,110.37688,50,70,42
110.42896,110.56918,48,70,42
110.62127,110.80957,46,70,42
111.390495,111.5788,58,70,42
111.775116,111.96342,58,70,42
112.15973,112.73264,58,70,42
112.73665,112.92495,56,70,42
112.928955,113.06918,55,70,42
113.12126,113.26149,60,70,42
113.313576,113.459404,56,70,42
113.51357,113.65941,58,70,42
113.71357,114.08466,51,70,42
117.27607,117.45966,51,70,42
117.46357,117.83466,50,70,42
118.02607,118.20966,50,70,42
118.21357,118.58936,51,70,42
118.78319,118.96911,51,70,42
118.97307,119.353676,49,70,42
119.55768,119.7675,49,70,42
119.771965,120.169846,48,70,42
120.36125,120.49797,48,73,42
120.54875,120.732346,48,75,42
121.11125,121.24797,46,79,42
121.29875,121.482346,44,80,42
121.86125,122.044846,52,84,42
122.04875,122.419846,53,85,42
122.61125,122.794846,51,89,42
122.79875,123.169846,50,90,42
123.36125,123.544846,53,94,42
123.54875,123.919846,51,95,42
124.11125,124.294846,47,99,42
124.29875,124.669846,48,100,42
124.86125,125.044846,46,104,42
125.04875,125.419846,45,106,42
125.61125,125.794846,44,109,42
125.79875,125.982346,43,110,42
125.98625,126.169846,47,110,42
126.17375,126.357346,50,110,42
126.36125,126.544846,55,110,42
126.54875,126.732346,43,110,42
126.73625,126.919846,48,110,42
126.92375,127.107346,51,110,42
127.11125,127.294846,55,110,42
127.29875,127.482346,43,110,42
127.48625,127.669846,47,110,42
127.67375,127.857346,50,110,42
127.86125,128.04485,55,110,42
128.04875,128.23235,43,110,42
128.23625,128.41985,48,110,42
128.42375,128.60735,51,110,42
128.61125,128.79485,55,110,42
128.79875,128.98235,43,110,42
128.98625,129.16985,47,110,42
129.17375,129.35735,50,110,42
129.36125,129.54485,55,110,42
129.54875,129.73235,43,110,42
129.73625,129.91985,48,110,42
129.92375,130.10735,51,110,42
130.11125,130.29485,55,110,42
130.29875,130.48235,43,110,42
130.48625,130.66985,47,110,42
130.67375,130.85735,50,110,42
130.86125,131.04485,55,110,42
131.04875,131.23235,43,110,42
131.23625,131.41985,48,110,42
131.42375,131.60735,51,110,42
131.61125,131.79485,55,110,42
131.79875,132.16985,43,110,42
133.29875,133.66985,43,81,42
134.79875,135.16985,43,96,42
137.94695,138.13054,36,100,42
138.13445,138.31804,48,70,42
138.32195,138.50554,48,70,42
138.50945,138.69304,48,70,42
138.69695,138.88054,48,70,42
138.88445,139.06804,48,70,42
139.07195,139.25554,48,70,42
139.25945,139.44304,48,70,42
139.44695,139.63054,48,70,42
139.63445,139.81804,48,70,42
139.82195,140.00554,48,70,42
140.00945,140.19304,48,70,42
140.19695,140.38054,48,70,42
140.38445,140.56804,48,70,42
140.57195,140.75554,48,70,42
140.75945,140.94304,48,70,42
140.94695,141.13054,48,70,42
141.13445,141.31804,48,70,42
141.32195,141.50554,48,70,42
141.50945,141.69304,48,70,42
141.69695,141.88054,48,70,42
141.88445,142.06804,48,70,42
142.07195,142.25554,48,70,42
142.25945,142.44304,48,70,42
142.44695,142.63054,48,70,42
142.63445,142.81804,48,70,42
142.82195,143.00554,48,70,42
143.00945,143.19304,48,70,42
143.19695,143.38054,48,70,42
143.38445,143.56804,48,70,42
143.57195,143.75554,48,70,42
143.75945,143.94304,48,70,42
143.94695,144.19695,43,70,42
144.32195,144.57195,48,70,42
144.69695,145.25554,52,91,42
145.25945,145.34929,50,70,42
145.3532,145.44304,48,70,42
145.44695,145.58366,47,70,42
145.63445,145.77116,48,70,42
145.82195,145.95866,50,70,42
146.00945,146.14616,52,70,42
146.19695,146.38054,53,70,42
146.94695,147.19695,43,70,42
147.32195,147.57195,50,70,42
147.69695,148.25554,53,90,42
148.25945,148.34929,52,70,42
148.3532,148.44304,50,70,42
148.44695,148.58366,48,70,42
148.63445,148.77116,50,70,42
148.82195,148.95866,52,70,42
149.00945,149.14616,53,70,42
149.19695,150.07976,55,100,42
150.13445,150.27116,53,70,42
150.32195,150.45866,52,70,42
150.50945,150.64616,50,70,42
150.69695,151.44304,48,100,42
151.44695,151.58366,52,70,42
151.63445,151.77116,50,70,42
151.82195,151.95866,48,70,42
152.00945,152.14616,47,70,42
152.19695,152.94304,45,100,42
152.94695,153.08366,48,70,42
153.13445,153.27116,47,70,42
153.32195,153.45866,45,70,42
153.50945,153.64616,43,70,42
153.69695,154.44304,42,100,42
154.44695,154.58366,45,70,42
154.63445,154.77116,43,70,42
154.82195,154.95866,42,70,42
155.00945,155.14616,40,70,42
155.19695,155.94304,38,100,42
155.94695,156.08366,38,120,42
156.13445,156.27116,40,120,42
156.32195,156.45866,42,120,42
156.50945,156.64616,43,120,42
156.69695,156.83366,45,120,42
156.88445,157.02116,47,120,42
157.07195,157.20866,48,120,42
157.25945,157.39616,47,120,42
157.44695,157.58366,48,120,42
157.63445,157.77116,47,120,42
157.82195,157.95866,45,120,42
158.00945,158.14616,43,120,42
158.19695,158.33366,42,120,42
158.38445,158.52116,40,120,42
158.57195,158.70866,38,120,42
158.75945,158.89616,37,120,42
158.94695,159.08366,38,120,42
159.13445,159.27116,40,120,42
159.32195,159.45866,42,120,42
159.50945,159.64616,43,120,42
159.69695,159.83366,45,120,42
159.88445,160.02116,47,120,42
160.07195,160.20866,48,120,42
160.25945,160.39616,47,120,42
160.44695,160.58366,48,120,42
160.63445,160.77116,47,120,42
160.82195,160.95866,45,120,42
161.00945,161.14616,43,120,42
161.19695,161.33366,42,120,42
161.38445,161.52116,40,120,42
161.57195,161.70866,38,120,42
161.75945,161.89616,37,120,42
161.94695,162.08366,38,120,42
162.13445,162.27116,40,120,42
162.32195,162.45866,42,120,42
162.50945,162.64616,43,120,42
162.69695,162.83366,45,120,42
162.88445,163.02116,47,120,42
163.07195,163.20866,48,120,42
163.25945,163.39616,49,120,42
163.44695,163.58716,50,120,42
163.63925,163.77946,49,120,42
163.83156,163.97179,50,120,42
164.02386,164.1697,49,120,42
164.22386,164.36969,50,115,42
164.42386,164.5697,49,104,42
164.62386,164.7737,50,92,42
164.82935,164.9856,49,80,42
165.04362,175.14653,50,70,42
175.15053,175.9359,51,65,42
175.94,176.7466,50,62,42
176.75082,177.5798,51,58,42
177.58415,178.43683,50,55,42
178.44128,183.31004,51,50,42
183.91629,184.1046,44,60,42
184.3009,184.48921,44,60,42
184.68552,185.25844,44,60,42
185.26244,185.45074,44,60,42
185.45476,185.59497,46,60,42
185.64706,185.78728,46,60,42
185.83937,185.97958,46,60,42
186.03168,186.1775,46,60,42
186.23167,186.4275,46,60,42
187.03168,187.1775,58,60,42
187.23167,187.3775,58,60,42
187.43167,187.5815,58,60,42
187.63715,187.7934,58,60,42
187.85144,188.06126,58,60,42
188.70857,188.86482,57,60,42
188.92287,189.07912,57,60,42
189.13715,189.30542,57,60,42
189.36792,189.55022,57,60,42
189.61792,189.86272,57,60,42
191.61792,191.86272,57,65,42
192.11792,192.36272,55,76,42
192.61792,192.88496,54,88,42
193.16338,193.71806,52,100,42
193.91338,197.65556,50,110,42
198.41338,198.59697,50,70,42
198.78838,198.97197,55,70,42
199.16338,199.72197,59,70,42
199.72588,199.81572,57,70,42
199.81963,199.90947,55,70,42
199.91338,200.0501,54,70,42
200.10088,200.2376,55,70,42
200.28838,200.4251,57,70,42
200.47588,200.6126,59,70,42
200.66338,200.84697,60,70,42
201.41338,201.59697,55,70,42
201.78838,201.97197,55,70,42
202.16338,202.72197,52,70,42
202.72588,202.81572,54,70,42
202.81963,202.90947,55,70,42
202.91338,203.0501,57,70,42
203.10088,203.2376,57,70,42
203.28838,203.4251,45,70,42
203.47588,203.6126,45,70,42
203.66338,203.84697,50,70,42
204.41338,204.59697,50,70,42
204.78838,204.97197,57,70,42
205.16338,205.72197,60,70,42
205.72588,205.81572,59,70,42
205.81963,205.90947,57,70,42
205.91338,206.0501,55,70,42
206.10088,206.2376,55,70,42
206.28838,206.4251,57,70,42
206.47588,206.6126,58,70,42
206.66338,206.84697,59,70,42
207.41338,207.59697,59,70,42
207.78838,207.97197,59,70,42
208.16338,208.72197,59,70,42
208.72588,208.90947,59,70,42
208.91338,209.0501,64,70,42
209.10088,209.2376,64,70,42
209.28838,209.4251,59,70,42
209.47588,209.6126,59,70,42
209.66338,209.84697,55,70,42
210.41338,211.15947,43,70,42
211.16338,211.34697,48,70,42
211.91338,212.85648,50,110,42
212.86049,213.00072,48,90,42
213.0528,213.19862,47,94,42
213.25279,213.40904,45,98,42
213.46709,213.6038,43,110,42
213.65459,213.7913,55,110,42
213.84209,213.9788,55,110,42
214.02959,214.1663,55,110,42
214.21709,214.3538,55,110,42
214.40459,214.5413,55,110,42
214.59209,214.7288,55,110,42
214.77959,214.9163,55,110,42
214.96709,215.1038,57,110,42
215.15459,215.2913,55,110,42
215.34209,215.4788,54,110,42
215.52959,215.6663,52,110,42
215.71709,215.80693,50,110,42
215.81084,215.90068,54,110,42
215.90459,215.99443,57,110,42
215.99834,216.08818,62,110,42
216.09209,216.18193,66,110,42
216.18584,216.27568,62,110,42
216.27959,216.36943,57,110,42
216.37334,216.46318,54,110,42
216.46709,216.6038,50,110,42
216.65459,216.7913,50,110,42
216.84209,216.9788,50,110,42
217.02959,217.1663,50,110,42
217.21709,217.3538,50,110,42
217.40459,217.5413,50,110,42
217.59209,217.7288,50,110,42
217.77959,217.9163,48,110,42
217.96709,218.1038,47,110,42
218.15459,218.2913,52,110,42
218.34209,218.4788,50,110,42
218.52959,218.6663,50,110,42
218.71709,219.08818,43,110,42
221.71709,222.08818,43,70,42
222.27959,222.46318,55,70,42
222.46709,222.83818,54,70,42
223.02959,223.21318,54,70,42
223.21709,223.40068,43,70,42
223.40459,223.58818,55,75,42
223.59209,223.77568,55,80,42
223.77959,223.96318,55,85,42
223.96709,224.15068,40,90,42
224.15459,224.33818,52,95,42
224.34209,224.52568,52,100,42
224.52959,224.71318,52,105,42
224.71709,225.08818,50,110,42
226.21709,226.40068,38,120,42
226.59209,226.77568,43,120,42
226.96709,227.52568,46,120,42
227.52959,227.61943,45,120,42
227.62334,227.71318,43,120,42
227.71709,227.8538,42,120,42
227.90459,228.0413,43,120,42
228.09209,228.2288,45,120,42
228.27959,228.4163,46,120,42
228.46709,228.65068,48,120,42
229.21709,229.40068,38,120,42
229.59209,229.77568,45,120,42
229.96709,230.52568,48,120,42
230.52959,230.61943,46,120,42
230.62334,230.71318,45,120,42
230.71709,230.8538,43,120,42
230.90459,231.0413,45,120,42
231.09209,231.2288,46,120,42
231.27959,231.4163,48,120,42
231.46709,231.65068,50,120,42
232.21709,232.3538,51,120,42
232.40459,232.5413,53,120,42
232.59209,232.7288,55,120,42
232.77959,232.9163,56,120,42
232.96709,233.15068,58,120,42
233.71709,233.8538,49,120,42
233.90459,234.0413,50,110,42
234.09209,234.2288,52,110,42
234.27959,234.4163,54,110,42
234.46709,234.83818,55,110,42
234.84209,235.21318,49,110,42
235.21709,235.58818,50,110,42
235.77959,235.9163,50,110,42
235.96709,236.15068,38,110,42
236.52959,236.6663,50,110,42
236.71709,236.90068,38,110,42
237.27959,237.4163,50,110,42
237.46709,237.65538,38,110,42
238.044,238.18423,50,110,42
238.23631,238.43214,38,110,42
246.05386,246.19408,43,70,42
246.24617,246.38638,47,70,42
246.43848,246.57869,50,70,42
246.63078,246.771,54,70,42
246.82309,247.01138,55,70,42
247.0154,247.20369,54,70,42
247.2077,247.396,55,70,42
247.40001,247.58832,55,70,42
247.59232,247.97293,57,70,42
249.13078,249.271,47,70,42
249.32309,249.4633,50,70,42
249.5154,249.65561,55,70,42
249.7077,249.84793,57,70,42
249.90001,250.0883,59,70,42
250.09232,250.28061,58,70,42
250.28462,250.47292,59,70,42
250.47693,250.66524,59,70,42
250.66924,251.04985,60,70,42
252.2077,252.5883,50,90,42
252.97693,253.35753,50,90,42
253.74615,254.12677,50,90,42
254.51538,254.906,50,90,42
255.32413,256.08936,38,70,42
256.09335,256.47397,39,70,42
256.47797,256.85858,36,70,42
256.8626,257.6278,38,70,42
257.63184,258.01242,39,70,42
258.01645,258.39703,36,70,42
258.40106,259.1663,38,70,42
259.1703,259.5509,39,70,42
259.5549,259.93552,36,70,42
259.9395,260.70474,38,70,42
260.70874,261.08936,39,70,42
261.09335,261.47397,36,70,42
261.47797,261.6663,37,70,42
261.6703,261.85858,40,74,42
261.86258,262.0509,43,78,42
262.0549,262.2432,46,83,42
262.2472,262.43552,49,87,42
262.4395,262.6278,52,92,42
262.6318,262.82013,55,96,42
262.82413,263.01242,52,100,42
263.01645,263.20474,50,110,42
263.20874,263.39703,50,110,42
263.40106,263.58936,50,110,42
263.59335,263.78918,50,110,42
263.79337,263.99457,50,110,42
263.99884,264.20004,50,110,42
264.2043,264.41412,50,110,42
264.4186,264.6634,50,93,42
264.6686,265.43384,62,70,42
265.43784,265.81845,63,70,42
265.82245,266.20306,60,70,42
266.20706,266.9723,62,70,42
266.9763,267.3569,63,70,42
267.3609,267.74152,60,70,42
267.7455,268.51074,62,70,42
268.51474,268.89536,63,70,42
268.89935,269.27997,60,70,42
269.28397,269.66458,62,60,42
269.6686,269.8569,63,60,42
269.8609,270.0492,60,60,42
270.05322,270.4338,57,60,42
270.43784,270.62613,60,60,42
270.63013,270.81842,57,60,42
270.82245,276.20303,53,60,42
276.20706,277.16458,46,60,42
276.9763,277.16458,58,60,42
277.16858,277.3569,58,62,42
277.3609,277.5492,58,65,42
277.5532,277.74152,58,67,42
277.7455,277.9338,58,70,42
277.9378,278.12613,58,73,42
278.13013,278.31842,58,75,42
278.32242,278.51074,58,78,42
278.51474,278.70303,57,81,42
278.70706,278.89536,57,83,42
278.89935,279.08765,57,86,42
279.09167,279.27997,57,89,42
279.28397,279.47226,57,91,42
279.4763,279.66458,57,94,42
279.66858,279.85687,57,96,42
279.8609,280.0492,57,99,42
280.0532,280.24152,50,110,42
280.2455,280.4338,50,110,42
280.4378,280.62613,50,110,42
280.63013,280.81842,50,110,42
280.82242,281.01074,51,110,42
281.01474,281.20303,51,110,42
281.20703,281.39536,51,110,42
281.39935,281.58765,51,110,42
281.59167,281.77997,52,120,42
281.78397,281.97226,52,120,42
281.9763,282.16458,49,120,42
282.16858,282.35687,49,120,42
282.3609,282.5492,50,120,42
282.5532,282.7415,50,120,42
282.7455,282.94135,38,120,42
282.9455,283.14133,38,120,42
283.1455,283.24133,43,120,42
283.2455,283.34134,45,110,42
283.34552,283.43536,47,110,42
283.43927,283.5291,48,110,42
283.53302,283.62286,50,110,42
283.62677,283.7166,48,110,42
283.72052,283.81036,47,110,42
283.81427,283.9041,45,110,42
283.90802,283.99786,43,110,42
284.00177,284.0916,45,110,42
284.09552,284.18536,47,110,42
284.18927,284.2791,48,110,42
284.28302,284.37286,50,110,42
284.37677,284.4666,52,110,42
284.47052,284.56036,54,110,42
284.56427,284.6541,55,110,42
284.65802,284.8416,43,110,42
284.84552,285.0291,55,110,42
285.03302,285.2166,55,110,42
285.22052,285.4041,55,110,42
285.40802,285.5916,55,110,42
285.59552,285.7791,55,110,42
285.78302,285.9666,55,110,42
285.97052,286.1541,55,110,42
286.15802,286.24786,43,110,42
286.25177,286.3416,45,110,42
286.34552,286.43536,47,110,42
286.43927,286.5291,48,110,42
286.53302,286.62286,50,110,42
286.62677,286.7166,48,110,42
286.72052,286.81036,47,110,42
286.81427,286.9041,45,110,42
286.90802,286.99786,43,110,42
287.00177,287.0916,45,110,42
287.09552,287.18536,47,110,42
287.18927,287.2791,48,110,42
287.28302,287.37286,50,110,42
287.37677,287.4666,52,110,42
287.47052,287.56036,54,110,42
287.56427,287.6541,55,110,42
287.65802,287.8416,43,110,42
287.84552,288.0291,43,110,42
288.03302,288.2166,43,110,42
288.22052,288.4041,43,110,42
288.40802,288.5916,43,110,42
288.59552,288.7791,43,110,42
288.78302,288.9666,43,110,42
288.97052,289.1541,43,110,42
289.15802,289.3416,43,110,42
289.34552,289.5291,55,110,42
289.53302,289.7166,55,110,42
289.72052,289.9041,55,110,42
289.90802,290.0916,43,110,42
290.09552,290.2791,55,110,42
290.28302,290.4666,55,110,42
290.47052,290.6541,55,110,42
290.65802,290.79474,43,120,42
290.84552,290.93536,42,120,42
290.93927,291.0291,40,120,42
291.03302,291.16974,38,120,42
291.22052,291.31036,40,120,42
291.31427,291.4041,42,120,42
291.40802,291.54474,43,120,42
291.59552,291.68536,42,120,42
291.68927,291.7791,40,120,42
291.78302,291.91974,38,120,42
291.97052,292.06036,40,120,42
292.06427,292.1541,42,120,42
292.15802,292.3416,43,120,42
292.90802,293.0916,62,110,42
293.28302,293.4666,59,110,42
293.65802,294.4041,55,110,42
294.40802,294.5916,59,110,42
294.78302,294.9666,55,110,42
295.15802,295.9041,50,110,42
295.90802,296.0916,55,110,42
296.28302,296.4666,50,110,42
296.65802,297.0291,47,110,42
297.03302,297.16974,62,110,42
297.22052,297.35724,59,110,42
297.40802,297.7791,55,110,42
297.78302,297.91974,59,110,42
297.97052,298.10724,55,110,42
298.15802,298.5291,50,110,42
298.53302,298.66974,55,110,42
298.72052,298.85724,50,110,42
298.90802,299.2791,47,110,42
299.28302,299.41974,50,110,42
299.47052,299.60724,47,110,42
299.65802,300.0291,43,110,42
300.03302,300.16974,50,110,42
300.22052,300.35724,47,110,42
300.40802,300.78378,43,105,42
300.78775,300.9262,50,100,42
300.97763,301.1161,47,97,42
301.1675,301.9327,43,94,42
301.93674,302.07877,50,83,42
302.13153,302.2736,47,80,42
302.32632,303.5013,43,77,42
303.50543,303.65125,50,60,42
303.7054,303.85126,47,60,42
303.90543,305.12305,43,60,42
305.12735,305.2836,53,60,42
305.3416,305.76572,50,60,42
305.7702,307.77823,43,60,42
308.3845,308.57773,48,60,42
308.7792,308.97247,60,60,42
309.17395,309.76193,60,60,42
309.76605,309.95932,60,60,42
309.9634,310.10733,62,60,42
310.1608,310.30472,60,60,42
310.35815,310.50208,59,60,42
310.5555,310.69943,57,60,42
310.7529,310.94614,55,60,42
311.54236,311.73563,48,60,42
311.9371,312.13037,60,60,42
312.33185,313.1172,60,60,42
313.1213,313.31714,42,60,42
313.5213,313.7225,54,60,42
313.93228,314.54443,54,60,42
314.5487,314.7499,50,60,42
314.75418,314.95538,55,60,42
315.16513,315.36633,67,60,42
315.5761,316.18826,67,60,42
316.19254,316.39374,67,60,42
316.398,316.54785,69,60,42
316.6035,316.75333,67,60,42
316.80896,316.9652,66,60,42
317.02325,317.19153,64,60,42
317.25403,317.47998,62,60,42
318.1771,318.3783,50,60,42
318.58807,318.78925,62,60,42
318.99902,319.61118,62,60,42
319.61545,319.81665,60,60,42
319.82092,319.97076,59,60,42
320.02643,320.17624,64,62,42
320.2319,320.3817,60,64,42
320.43738,320.5872,62,66,42
320.64285,320.79065,59,68,42
320.84555,320.99335,64,70,42
321.04825,321.1941,60,73,42
321.24826,321.3941,62,75,42
321.44824,321.59216,59,77,42
321.64563,321.78955,52,79,42
321.843,321.98505,48,81,42
322.0378,322.17984,50,83,42
322.2326,322.37283,47,86,42
322.4249,322.56512,52,88,42
322.61722,322.75394,48,90,42
322.80472,322.94144,50,92,42
322.99222,323.08206,47,94,42
323.08597,323.1758,47,95,42
323.17972,323.26956,52,96,42
323.27347,323.3633,52,97,42
323.36722,323.45706,48,99,42
323.46097,323.5508,48,100,42
323.55472,323.64456,50,101,42
323.64847,323.7383,50,102,42
323.74222,323.83206,47,103,42
323.83597,323.9258,47,104,42
323.92972,324.01956,52,105,42
324.02347,324.1133,52,106,42
324.11722,324.20706,48,107,42
324.21097,324.3008,48,108,42
324.30472,324.39456,50,109,42
324.39847,324.4883,50,110,42
324.49222,324.6758,43,115,42
324.67972,324.8633,59,115,42
324.86722,325.0508,55,115,42
325.05472,325.2383,50,115,42
325.24222,325.42813,47,115,42
325.4321,325.618,43,115,42
325.62198,325.8127,50,115,42
325.81677,326.0126,38,115,42
326.01675,326.3126,43,115,42
326.81677,327.13373,55,120,42
327.67392,328.09802,43,127,42
