start_time,end_time,note_value,velocity,instrument_program_number
0.1923075,0.37660217,77,80,0
0.384615,0.5689097,79,80,0
0.5769225,0.7612172,77,80,0
0.76923,0.9535247,75,80,0
0.9615375,1.1458322,74,80,0
1.153845,1.3381397,72,80,0
1.3461525,1.5304472,70,80,0
1.53846,1.9150622,69,80,0
1.923075,2.2996771,70,80,0
2.30769,2.684292,71,80,0
2.692305,3.2612147,72,80,0
3.2692275,3.4535222,78,80,0
3.461535,3.6458297,81,80,0
3.6538424,3.8381371,79,80,0
3.84615,4.0304446,77,80,0
4.0384574,4.222752,75,80,0
4.230765,4.4150596,74,80,0
4.4230723,4.607367,72,80,0
4.61538,4.991982,70,80,0
4.999995,5.3765974,72,80,0
5.38461,5.7612123,73,80,0
5.769225,6.338135,74,80,0
6.3461475,6.530442,77,80,0
6.538455,6.7227497,79,80,0
6.7307625,6.915057,74,80,0
6.92307,7.1073647,77,80,0
7.1153774,7.299672,75,80,0
7.307685,7.4919796,77,80,0
7.4999924,7.684287,72,80,0
7.6923,7.8765945,75,80,0
7.8846073,8.068902,74,80,0
8.076915,8.2612095,79,80,0
8.269222,8.453517,74,80,0
8.46153,8.645824,77,80,0
8.653837,8.838132,75,80,0
8.846145,9.030439,77,80,0
9.038452,9.222747,72,80,0
9.23076,9.415054,74,80,0
9.423067,9.607362,75,80,0
9.615375,9.799669,76,80,0
9.807682,9.991977,77,80,0
9.99999,10.184285,78,80,0
10.192298,10.376593,79,80,0
10.384605,10.5689,81,80,0
10.576913,10.761208,82,80,0
10.76922,10.953515,84,80,0
10.961528,11.145823,85,80,0
11.153835,11.346097,86,80,0
11.355025,11.560383,76,80,0
11.569311,11.988954,79,80,0
11.997882,12.417524,77,80,0
12.6407385,12.846095,77,80,0
12.6407385,12.846095,65,80,0
12.855024,13.039319,79,80,0
12.855024,13.039319,67,80,0
13.047332,13.2316265,77,80,0
13.047332,13.2316265,65,80,0
13.239639,13.423934,75,80,0
13.239639,13.423934,63,80,0
13.431947,13.616241,62,80,0
13.431947,13.616241,74,80,0
13.624254,13.808549,72,80,0
13.624254,13.808549,60,80,0
13.816562,14.000856,70,80,0
13.816562,14.000856,58,80,0
14.008869,14.385471,69,80,0
14.008869,14.385471,57,80,0
14.393484,14.770086,70,80,0
14.393484,14.770086,58,80,0
14.778099,15.154701,71,80,0
14.778099,15.154701,59,80,0
15.162714,15.731624,72,80,0
15.162714,15.731624,60,80,0
15.739636,15.923931,78,80,0
15.739636,15.923931,66,80,0
15.931944,16.11624,81,80,0
15.931944,16.11624,69,80,0
16.124252,16.308546,79,80,0
16.124252,16.308546,67,80,0
16.316559,16.500854,77,80,0
16.316559,16.500854,65,80,0
16.508867,16.693161,75,80,0
16.508867,16.693161,63,80,0
16.701174,16.88547,74,80,0
16.701174,16.88547,62,80,0
16.893482,17.077776,72,80,0
16.893482,17.077776,60,80,0
17.085789,17.46239,70,80,0
17.085789,17.46239,58,80,0
17.470404,17.847006,72,80,0
17.470404,17.847006,60,80,0
17.855019,18.23162,73,80,0
17.855019,18.23162,61,80,0
18.239634,18.808544,74,80,0
18.239634,18.808544,62,80,0
18.816557,19.00085,77,80,0
19.008863,19.19316,79,80,0
19.201172,19.385466,74,80,0
19.393478,19.577774,77,80,0
19.008863,19.77008,68,80,0
19.585787,19.77008,75,81,0
19.778093,19.962389,77,82,0
19.778093,20.154696,69,82,0
19.970402,20.154696,72,83,0
20.162708,20.347004,75,84,0
20.162708,20.53931,70,84,0
20.355017,20.53931,74,85,0
20.547323,20.731619,79,86,0
20.739632,20.923925,74,87,0
20.931938,21.116234,77,88,0
20.547323,21.30854,68,86,0
21.124247,21.30854,75,89,0
21.316553,21.500849,77,90,0
21.316553,21.693155,69,90,0
21.508862,21.693155,72,91,0
21.701168,21.885464,75,92,0
21.701168,21.885464,70,92,0
21.893476,22.07777,74,93,0
21.893476,22.07777,62,93,0
22.085783,22.270079,75,94,0
22.085783,22.270079,63,94,0
22.278091,22.462387,77,95,0
22.278091,22.462387,65,95,0
22.4704,22.654694,78,96,0
22.4704,22.654694,66,96,0
22.662706,22.847002,79,97,0
22.662706,22.847002,67,97,0
22.855015,23.049753,81,98,0
22.855015,23.049753,69,98,0
23.058681,23.264038,82,99,0
23.058681,23.264038,70,99,0
23.272966,23.69261,70,100,0
23.272966,23.69261,58,100,0
23.701538,24.121181,72,100,0
23.701538,24.121181,60,100,0
24.13011,24.549751,73,80,0
24.13011,24.549751,61,80,0
24.55868,25.075392,74,80,0
24.55868,25.075392,62,80,0
25.083405,25.2677,70,80,0
25.179558,25.363853,69,80,0
25.275713,25.460007,70,80,0
25.371866,25.55616,71,80,0
25.46802,25.652315,72,80,0
25.564175,25.748468,73,80,0
25.660328,25.844622,74,80,0
25.756481,25.940777,75,80,0
25.852634,26.03693,76,80,0
25.94879,26.133083,77,80,0
26.044943,26.229237,78,80,0
26.141096,26.325392,79,80,0
26.23725,26.421545,80,80,0
26.333405,26.517698,81,80,0
26.429558,26.613852,82,80,0
26.525711,26.710007,70,80,0
26.621864,26.80616,72,80,0
26.71802,26.902313,69,80,0
26.814173,26.998466,70,80,0
26.910326,27.202679,74,80,0
26.910326,27.309822,63,80,0
27.211609,27.309822,72,80,0
27.31875,27.738394,70,80,0
27.31875,27.738394,62,80,0
28.175892,29.024107,74,80,0
28.175892,29.024107,65,80,0
29.033035,29.227291,72,80,0
29.134386,29.328642,74,80,0
29.235737,29.429995,72,80,0
29.337088,29.531345,74,80,0
29.43844,29.632696,71,80,0
29.539791,29.734047,72,80,0
29.641142,29.8354,74,80,0
29.742493,29.93675,75,80,0
29.843845,30.240805,67,80,0
30.24925,30.64621,69,80,0
30.24925,30.64621,63,80,0
30.654655,31.051613,70,80,0
31.06006,31.254316,65,80,0
30.654655,31.457018,62,80,0
31.465466,32.26783,74,80,0
31.465466,32.26783,65,80,0
32.276276,32.47053,72,80,0
32.478977,32.605667,74,80,0
32.546543,32.673233,72,80,0
32.614113,32.740803,71,80,0
32.68168,32.875935,72,80,0
32.276276,33.07864,67,80,0
32.88438,33.07864,74,80,0
33.087086,33.28134,70,80,0
33.289787,33.416477,72,80,0
33.357353,33.484043,70,80,0
33.424923,33.551613,69,80,0
33.49249,33.686745,70,80,0
33.087086,33.88945,64,80,0
33.69519,33.88945,72,80,0
33.897896,34.294853,70,80,0
34.3033,34.497555,69,80,0
33.897896,34.70026,65,80,0
35.11411,35.916473,69,80,0
35.21546,35.916473,77,81,0
35.31681,35.916473,81,82,0
35.92492,36.727283,69,89,0
36.02627,36.727283,77,90,0
36.12762,36.727283,81,91,0
36.73573,37.538094,69,98,0
36.93843,37.538094,81,100,0
36.837082,37.960392,77,99,0
37.647892,37.960392,77,108,0
37.54654,38.348904,69,107,0
37.74924,38.348904,81,109,0
38.35735,39.159714,77,110,0
38.35735,39.159714,89,110,0
39.16816,39.362415,76,110,0
39.16816,39.362415,88,110,0
39.97897,40.781334,74,110,0
39.97897,40.781334,86,110,0
40.78978,40.984035,72,110,0
40.78978,40.984035,84,110,0
41.60059,42.200253,70,110,0
41.60059,42.200253,82,110,0
42.2087,42.605656,69,110,0
42.2087,42.605656,81,110,0
42.6141,43.011063,79,110,0
42.6141,43.011063,67,110,0
43.01951,43.416466,77,110,0
43.01951,43.416466,65,110,0
43.42491,43.619167,79,110,0
43.42491,43.619167,67,110,0
43.627613,44.024574,80,110,0
43.627613,44.024574,68,110,0
44.03302,44.227276,81,110,0
44.03302,44.227276,69,110,0
44.438423,44.835384,69,110,0
44.438423,45.646194,65,110,0
44.84383,45.646194,71,110,0
45.65464,46.051598,72,110,0
45.65464,46.051598,64,110,0
46.060043,46.457005,65,110,0
46.46545,46.862408,67,110,0
46.060043,47.267815,62,110,0
46.870853,47.267815,68,110,0
47.27626,47.673218,69,110,0
47.27626,47.673218,60,110,0
47.681664,48.078625,62,110,0
48.08707,48.484028,64,110,0
47.681664,48.68673,58,110,0
48.492474,48.68673,65,110,0
48.69518,49.092136,57,110,0
49.100582,49.49754,55,110,0
49.50599,49.902946,53,110,0
49.911392,50.105648,52,110,0
50.114094,50.30835,53,110,0
50.215446,50.409702,45,80,0
50.316795,50.511055,48,80,0
50.418148,50.612404,53,80,0
50.5195,50.713757,57,80,0
50.62085,50.81511,60,80,0
50.722202,50.91646,65,80,0
50.823555,51.01781,69,80,0
50.924904,51.11916,60,80,0
51.026257,51.220512,65,80,0
51.127605,51.321865,69,80,0
51.22896,51.423214,72,80,0
51.33031,51.524567,65,80,0
51.43166,51.62592,69,80,0
51.533012,51.72727,72,80,0
51.634365,51.82862,77,80,0
51.735714,51.92997,76,80,0
51.837067,52.031322,82,80,0
51.938416,52.132675,79,80,0
52.03977,52.234024,76,80,0
52.14112,52.335377,72,80,0
52.24247,52.436726,79,80,0
52.343822,52.53808,76,80,0
52.445175,52.63943,72,80,0
52.546524,52.74078,70,80,0
52.647877,52.842133,76,80,0
52.749226,52.943485,72,80,0
52.85058,53.044834,70,80,0
52.95193,53.146187,67,80,0
53.05328,53.247536,72,80,0
53.154633,53.34889,70,80,0
53.255985,53.45024,67,80,0
53.357334,53.55159,53,80,0
53.458687,53.652943,45,80,0
53.560036,53.754295,48,80,0
53.66139,53.855644,53,80,0
53.76274,53.956997,57,80,0
53.86409,54.058346,60,80,0
53.965443,54.1597,65,80,0
54.066795,54.26105,69,80,0
54.168144,54.3624,60,80,0
54.269497,54.463753,65,80,0
54.370846,54.565105,69,80,0
54.4722,54.666454,72,80,0
54.57355,54.767807,65,80,0
54.6749,54.869156,69,80,0
54.776253,54.97051,72,80,0
54.8776,55.07186,77,80,0
54.978954,55.17321,76,80,0
55.080307,55.274563,82,80,0
55.181656,55.375916,79,80,0
55.28301,55.477264,76,80,0
55.38436,55.578617,72,80,0
55.48571,55.679966,79,80,0
55.587063,55.78132,76,80,0
55.68841,55.88267,72,80,0
55.789764,55.98402,70,80,0
55.891117,56.085373,76,80,0
55.992466,56.186726,72,80,0
56.09382,56.288074,70,80,0
56.19517,56.389427,67,80,0
56.29652,56.490776,72,80,0
56.397873,56.59213,70,80,0
56.49922,56.69348,67,80,0
56.600574,56.79483,69,80,0
56.701927,56.896183,57,81,0
56.803276,56.99753,60,81,0
56.90463,57.098885,65,82,0
57.00598,57.200237,69,83,0
57.10733,57.301586,72,83,0
57.31003,57.50429,81,85,0
57.411385,57.60564,72,85,0
57.208683,57.706993,77,84,0
57.512737,57.706993,77,86,0
57.614086,57.808342,81,87,0
57.71544,57.909695,84,87,0
57.81679,58.011047,77,88,0
57.91814,58.112396,81,88,0
58.019493,58.21375,84,89,0
58.120842,58.3151,89,90,0
58.323547,58.517803,57,91,0
58.424896,58.619152,60,92,0
58.52625,58.720505,65,92,0
58.627598,58.821857,69,93,0
58.72895,58.923206,72,94,0
58.931652,59.12591,81,95,0
59.033005,59.22726,72,95,0
58.830303,59.328613,77,94,0
59.134357,59.328613,77,96,0
59.235706,59.429962,81,97,0
59.33706,59.531315,84,97,0
59.438408,59.632668,77,98,0
59.53976,59.734016,81,99,0
59.641113,59.83537,84,99,0
59.742462,59.93672,89,100,0
59.945168,60.139423,58,101,0
60.046516,60.240772,61,102,0
60.14787,60.342125,65,102,0
60.249218,60.443478,70,103,0
60.35057,60.544827,73,104,0
60.553272,60.74753,82,105,0
60.654625,60.84888,73,106,0
60.451923,60.950233,77,104,0
60.755978,60.950233,77,106,0
60.857327,61.051582,82,107,0
60.95868,61.152935,85,108,0
61.060028,61.254288,77,108,0
61.16138,61.355637,82,109,0
61.262733,61.45699,85,109,0
61.364082,61.55834,89,110,0
61.465435,61.65969,76,110,0
61.566788,61.761044,88,110,0
61.668137,61.862392,85,110,0
61.76949,61.963745,82,110,0
61.87084,62.065098,76,110,0
61.97219,62.166447,73,110,0
62.073544,62.2678,70,110,0
62.174892,62.36915,64,110,0
62.276245,62.4705,61,110,0
62.377598,62.571854,63,110,0
62.478947,62.673687,61,110,0
62.5803,62.78083,60,110,0
62.682613,62.88881,58,110,0
62.789757,63.005997,61,110,0
62.898575,63.123184,60,110,0
63.015762,63.24037,58,110,0
63.13295,63.591934,57,110,0
65.958115,66.152374,60,80,0
66.16082,66.35508,62,80,0
66.363525,66.55778,60,80,0
66.56622,66.76048,58,80,0
66.76893,66.96318,57,80,0
66.97163,67.165886,55,80,0
67.17433,67.36859,53,80,0
67.37704,67.773994,53,80,0
69.201355,69.32805,63,80,0
69.26892,69.395615,65,80,0
69.336494,69.46318,63,80,0
69.40406,69.59831,65,80,0
69.606766,69.80102,63,80,0
69.80946,70.00372,62,80,0
70.01217,70.20642,60,80,0
70.21487,70.40913,58,80,0
70.41757,70.61183,57,80,0
70.62028,71.017235,57,80,0
71.22838,71.42264,72,80,0
71.43108,71.62534,74,80,0
71.63379,71.82804,72,80,0
71.83649,72.03075,70,80,0
72.03919,72.23345,69,80,0
72.2419,72.43615,67,80,0
72.444595,72.638855,65,80,0
72.85,73.04426,75,80,0
73.24501,73.429306,75,80,0
73.43732,73.62161,74,80,0
73.62962,73.81392,72,80,0
73.82194,74.006226,70,80,0
74.014244,74.19854,69,80,0
73.052704,74.39085,77,80,0
74.20655,74.39085,77,80,0
74.39886,74.58315,75,80,0
74.59116,74.77546,74,80,0
74.78347,74.967766,72,80,0
74.97578,75.16007,70,80,0
75.16809,75.35238,69,80,0
75.3604,75.54469,77,80,0
75.552704,75.737,75,80,0
75.74501,75.929306,74,80,0
75.93732,76.12161,72,80,0
76.12962,76.31392,70,80,0
76.25783,76.44212,69,80,0
76.38603,76.57033,77,80,0
76.51424,76.69853,75,80,0
76.64244,76.82674,74,80,0
76.77065,76.95494,72,80,0
76.89886,77.08315,70,80,0
76.99501,77.179306,69,80,0
77.09116,77.27546,77,80,0
77.18732,77.37161,75,80,0
77.28347,77.467766,74,80,0
77.37962,77.56392,72,80,0
77.47578,77.66007,70,80,0
77.57193,77.756226,69,80,0
77.66808,77.85238,77,80,0
77.76424,77.94853,75,80,0
77.86039,78.044685,74,80,0
77.95654,78.14084,72,80,0
78.0527,78.23699,70,80,0
78.14886,78.333145,69,80,0
78.24501,78.4293,78,80,0
78.43732,78.62161,75,80,0
78.51744,78.70174,74,80,0
78.59757,78.78187,72,80,0
78.6777,78.86199,70,80,0
78.74982,78.93411,69,80,0
78.82193,79.006226,79,80,0
78.34116,79.19853,77,80,0
79.01424,79.19853,77,80,0
79.20654,79.39084,75,80,0
79.39885,79.583145,74,80,0
79.591156,79.77545,72,80,0
79.78347,79.96776,70,80,0
79.97578,80.35238,69,80,0
80.36039,80.73699,70,80,0
80.745,81.121605,71,80,0
81.129616,81.69853,72,80,0
81.70654,81.89084,78,80,0
81.89885,82.083145,81,80,0
82.091156,82.27545,79,80,0
82.47577,82.660065,75,80,0
82.66808,82.85237,74,80,0
82.86039,83.044685,72,80,0
83.0527,83.23699,69,80,0
83.245,83.4293,70,80,0
83.43731,83.621605,71,80,0
83.629616,83.81391,72,80,0
83.82192,84.198524,73,80,0
84.20654,84.77545,74,80,0
82.28346,84.96776,77,80,0
84.78346,84.96776,77,80,0
84.97577,85.160065,79,80,0
85.168076,85.35237,74,80,0
85.55269,85.736984,75,80,0
85.36038,85.92929,77,80,0
85.745,85.92929,77,80,0
85.93731,86.121605,72,80,0
86.129616,86.31391,75,80,0
86.32192,86.50622,74,80,0
86.51423,86.698524,79,80,0
86.706535,86.89083,74,80,0
87.09115,87.275444,75,81,0
86.89884,87.46775,77,80,0
87.28346,87.46775,77,82,0
87.47577,87.660065,72,83,0
87.668076,87.85237,74,85,0
87.86038,88.04468,75,86,0
88.05269,88.236984,76,87,0
88.244995,88.42929,77,89,0
88.4373,88.6216,78,90,0
88.629616,88.8139,79,91,0
88.82192,89.00622,81,93,0
89.01423,89.198524,82,94,0
89.206535,89.40079,84,95,0
89.40924,89.60349,85,97,0
89.61194,89.8173,86,98,0
89.826225,90.031586,76,99,0
90.04051,90.46015,79,80,0
90.46908,91.31729,77,80,0
91.11194,91.31729,77,80,0
91.11194,91.31729,65,80,0
91.326225,91.51052,79,80,0
91.326225,91.51052,67,80,0
91.51853,91.70283,77,80,0
91.51853,91.70283,65,80,0
91.71084,91.895134,75,80,0
91.71084,91.895134,63,80,0
91.903145,92.08744,62,80,0
91.903145,92.08744,74,80,0
92.09545,92.27975,72,80,0
92.09545,92.27975,60,80,0
92.28776,92.47205,70,80,0
92.28776,92.47205,58,80,0
92.48007,92.856674,69,80,0
92.48007,92.856674,57,80,0
92.864685,93.24129,70,80,0
92.864685,93.24129,58,80,0
93.2493,93.6259,71,80,0
93.2493,93.6259,59,80,0
93.63391,94.20282,72,80,0
93.63391,94.20282,60,80,0
94.21084,94.395134,78,80,0
94.21084,94.395134,66,80,0
94.403145,94.58744,81,80,0
94.403145,94.58744,69,80,0
94.59545,94.77975,79,80,0
94.59545,94.77975,67,80,0
94.78776,94.97205,77,80,0
94.78776,94.97205,65,80,0
94.980064,95.16436,75,80,0
94.980064,95.16436,63,80,0
95.17237,95.35667,74,80,0
95.17237,95.35667,62,80,0
95.36468,95.54897,72,80,0
95.36468,95.54897,60,80,0
95.55699,95.74128,69,80,0
95.55699,95.74128,57,80,0
95.7493,95.93359,70,80,0
95.7493,95.93359,58,80,0
95.941605,96.1259,71,80,0
95.941605,96.1259,59,80,0
96.13391,96.31821,72,80,0
96.13391,96.31821,60,80,0
96.32622,96.70282,73,80,0
96.32622,96.70282,61,80,0
96.71083,97.27975,74,80,0
96.71083,97.27975,62,80,0
97.480064,97.66436,79,80,0
97.67237,97.85667,74,80,0
97.28776,98.04897,77,80,0
97.86468,98.04897,77,80,0
97.480064,98.24128,68,80,0
98.056984,98.24128,75,80,0
98.24929,98.433586,77,80,0
98.24929,98.62589,69,80,0
98.441605,98.62589,72,80,0
98.63391,98.81821,75,80,0
98.63391,99.01051,70,80,0
98.82622,99.01051,74,80,0
99.018524,99.20282,79,80,0
99.21083,99.39513,74,80,0
99.40314,99.58743,77,80,0
99.018524,99.77974,68,80,0
99.59544,99.77974,75,80,0
99.78775,99.972046,77,80,0
99.78775,100.16435,69,80,0
99.980064,100.16435,72,80,0
100.17237,100.35667,75,80,0
100.17237,100.35667,70,80,0
100.36468,100.54897,74,80,0
100.36468,100.54897,62,80,0
100.556984,100.74128,75,80,0
100.556984,100.74128,63,80,0
100.74929,100.933586,77,80,0
100.74929,100.933586,65,80,0
100.9416,101.13586,78,80,0
100.9416,101.13586,66,80,0
101.1443,101.338554,79,80,0
101.1443,101.338554,67,80,0
101.347,101.55236,81,80,0
101.347,101.55236,69,80,0
101.56129,101.76665,82,80,0
101.56129,101.76665,70,80,0
101.77557,102.19521,70,80,0
101.77557,102.19521,58,80,0
102.20415,102.62379,72,80,0
102.20415,102.62379,60,80,0
102.63271,103.05236,73,80,0
102.63271,103.05236,61,80,0
103.06129,103.578,74,80,0
103.06129,103.578,62,80,0
103.58601,103.77031,70,80,0
103.68217,103.86646,69,80,0
103.77832,103.962616,70,80,0
103.87447,104.05877,71,80,0
103.97063,104.15492,72,80,0
104.06678,104.251076,73,80,0
104.16293,104.34723,74,80,0
104.25909,104.44338,75,80,0
104.35524,104.539536,76,80,0
104.45139,104.63569,77,80,0
104.54755,104.73184,78,80,0
104.64371,104.827995,79,80,0
104.73986,104.92415,80,80,0
104.83601,105.02031,81,80,0
104.93217,105.11646,82,80,0
105.02832,105.212616,70,80,0
105.12447,105.30877,72,80,0
105.22063,105.40492,69,80,0
105.31678,105.501076,70,80,0
105.41293,105.69338,74,80,0
105.41293,105.789536,63,80,0
105.70139,105.789536,72,80,0
105.79755,106.17415,70,80,0
105.79755,106.17415,62,80,0
106.56678,107.327995,61,110,0
106.56678,107.327995,53,110,0
107.336006,107.904915,59,110,0
107.91293,108.001076,61,110,0
107.336006,108.09723,54,110,0
108.00909,108.09723,63,110,0
108.10524,108.48184,54,110,0
108.48985,108.866455,57,110,0
108.48985,108.866455,53,110,0
108.874466,109.27686,58,110,0
108.874466,109.27686,49,110,0
109.28542,109.482346,53,110,0
109.69639,110.50974,61,110,0
109.69639,110.50974,53,110,0
110.5183,111.27952,60,110,0
110.5183,111.27952,55,110,0
111.28753,112.04875,70,110,0
111.28753,112.04875,60,110,0
112.05676,112.433365,68,110,0
112.05676,112.433365,60,110,0
112.441376,113.2026,68,110,0
112.441376,113.2026,65,110,0
113.21061,113.58721,76,110,0
113.21061,113.58721,67,110,0
113.21061,113.58721,64,110,0
112.441376,113.77952,77,110,0
113.59522,113.77952,77,110,0
113.59522,113.77952,68,110,0
113.59522,113.77952,65,110,0
113.78753,113.87567,60,80,0
113.88368,113.971825,58,80,0
113.979836,114.06798,60,80,0
114.07599,114.16413,56,80,0
114.17214,114.260284,60,80,0
114.268295,114.35644,55,80,0
114.364456,114.45259,60,80,0
114.46061,114.548744,53,80,0
114.55676,114.6449,60,80,0
114.652916,114.74106,52,80,0
114.74907,114.83721,60,80,0
114.84522,114.933365,53,80,0
114.941376,115.02952,60,80,0
115.03753,115.12567,55,80,0
115.13368,115.31798,60,80,0
115.229836,115.41413,56,80,0
115.32599,115.510284,65,80,0
115.42214,115.60644,63,80,0
115.518295,115.70259,65,80,0
115.61445,115.798744,61,80,0
115.7106,115.8949,65,80,0
115.806755,115.99105,60,80,0
115.902916,116.087204,65,80,0
115.99907,116.18336,58,80,0
116.09522,116.27952,65,80,0
116.191376,116.37567,57,80,0
116.28753,116.471825,65,80,0
116.38368,116.56798,58,80,0
116.479836,116.66413,65,80,0
116.57599,116.760284,60,80,0
116.67214,116.85644,65,80,0
116.768295,116.95259,61,80,0
116.86445,117.048744,65,81,0
116.9606,117.1449,61,81,0
117.056755,117.24105,67,82,0
117.15291,117.337204,65,82,0
117.24906,117.43336,67,83,0
117.34522,117.52951,65,83,0
117.441376,117.62566,68,84,0
117.53753,117.721825,65,84,0
117.63368,117.81798,68,85,0
117.729836,117.91413,65,85,0
117.82599,118.010284,70,85,0
117.92214,118.10644,64,86,0
118.018295,118.20259,70,86,0
118.11445,118.298744,64,87,0
118.2106,118.3949,65,87,0
118.40291,118.587204,72,88,0
118.40291,118.587204,60,88,0
118.49906,118.68336,70,89,0
118.595215,118.77951,72,89,0
118.595215,118.77951,60,89,0
118.69137,118.87566,68,90,0
118.78752,118.97182,72,90,0
118.78752,118.97182,60,90,0
118.88368,119.06797,67,91,0
118.979836,119.16412,72,91,0
118.979836,119.16412,60,91,0
119.07599,119.260284,65,91,0
119.17214,119.35644,72,92,0
119.17214,119.35644,60,92,0
119.268295,119.45259,64,92,0
119.36445,119.548744,72,93,0
119.36445,119.548744,60,93,0
119.4606,119.6449,65,93,0
119.556755,119.74105,72,94,0
119.556755,119.74105,60,94,0
119.65291,119.837204,67,94,0
119.74906,119.93336,72,95,0
119.74906,119.93336,60,95,0
119.845215,120.02951,68,95,0
119.94137,120.12566,65,96,0
120.03752,120.22182,75,96,0
119.94137,120.31797,77,96,0
120.133675,120.31797,77,97,0
120.133675,120.31797,65,97,0
120.22983,120.41412,73,97,0
120.32599,120.51028,77,97,0
120.32599,120.51028,65,97,0
120.42214,120.60643,72,98,0
120.518295,120.70259,77,98,0
120.518295,120.70259,65,98,0
120.61445,120.798744,70,99,0
120.7106,120.8949,77,99,0
120.7106,120.8949,65,99,0
120.806755,120.99105,69,100,0
120.90291,121.087204,77,100,0
120.90291,121.087204,65,100,0
120.99906,121.18336,70,101,0
121.095215,121.27951,77,101,0
121.095215,121.27951,65,101,0
121.19137,121.37566,72,102,0
121.28752,121.47182,77,102,0
121.28752,121.47182,65,102,0
121.383675,121.56797,73,103,0
121.47983,121.66412,77,103,0
121.47983,121.66412,65,103,0
121.57598,121.76028,73,103,0
121.672134,121.85643,79,104,0
121.672134,121.85643,67,104,0
121.76829,121.95258,77,104,0
121.86445,122.04874,79,105,0
121.86445,122.04874,67,105,0
121.9606,122.14489,77,105,0
122.056755,122.24105,80,106,0
122.056755,122.24105,68,106,0
122.15291,122.337204,77,106,0
122.24906,122.43336,68,107,0
122.24906,122.43336,80,107,0
122.345215,122.52951,77,107,0
122.44137,122.62566,82,108,0
122.44137,122.62566,70,108,0
122.53752,122.72182,76,108,0
122.633675,122.81797,82,109,0
122.633675,122.81797,70,109,0
122.72983,122.91412,76,120,0
122.82598,123.01028,77,120,0
123.01829,123.39489,89,120,0
123.40291,123.5872,89,120,0
123.595215,123.68336,88,120,0
123.69137,123.77951,85,120,0
123.78752,123.87566,82,120,0
123.883675,123.97182,79,120,0
123.97983,124.06797,73,120,0
123.97983,124.16412,76,120,0
124.07598,124.16412,72,120,0
124.172134,124.26028,73,120,0
124.172134,124.35643,76,120,0
124.26829,124.35643,70,120,0
124.36444,124.54874,68,120,0
124.36444,124.93335,77,120,0
124.55675,124.93335,77,120,0
125.133675,125.22182,76,120,0
125.22983,125.31797,73,120,0
125.32598,125.41412,70,120,0
125.422134,125.51028,67,120,0
125.51829,125.61119,61,120,0
124.94137,125.71303,77,120,0
125.51829,125.71303,64,120,0
125.61964,125.71303,60,120,0
125.721954,125.82017,61,120,0
125.721954,125.927315,64,120,0
125.8291,125.927315,58,120,0
125.93624,126.35588,65,120,0
125.93624,126.35588,56,120,0
127.94723,128.8046,58,110,0
128.8126,128.90076,61,110,0
128.90877,128.9969,60,110,0
129.00491,129.09306,58,110,0
129.10107,129.47768,56,110,0
129.48569,129.86229,53,110,0
131.02415,131.88152,63,110,0
131.88953,131.97768,66,110,0
131.98569,132.07382,65,110,0
132.08183,132.16998,63,110,0
132.178,132.5546,61,110,0
132.5626,132.93921,58,110,0
132.94722,133.70844,73,110,0
133.71645,134.28537,72,110,0
134.29338,134.38152,73,110,0
134.38953,134.47768,75,110,0
134.48569,134.86229,67,110,0
133.71645,134.95844,63,110,0
134.96645,135.0546,66,110,0
135.0626,135.15074,65,110,0
134.8703,135.2469,69,110,0
135.15875,135.2469,63,110,0
135.25491,135.63152,61,110,0
135.25491,136.01613,70,110,0
135.63953,136.01613,58,110,0
136.02414,136.78535,78,110,0
137.3703,137.45844,78,110,0
137.46645,137.5546,80,110,0
137.5626,137.93921,72,110,0
136.79337,138.03535,68,110,0
138.04337,138.13152,71,110,0
138.13953,138.22766,70,110,0
136.79337,138.32382,77,110,0
137.94722,138.32382,74,110,0
138.23567,138.32382,68,110,0
138.33183,138.70844,66,110,0
138.33183,139.09305,75,110,0
138.71645,139.09305,63,110,0
140.25491,141.20844,80,110,0
140.25491,141.20844,83,110,0
141.21645,141.30458,82,110,0
141.21645,141.30458,78,110,0
141.31259,141.40074,80,110,0
141.40875,141.78535,78,110,0
141.40875,141.78535,75,110,0
141.79337,142.74689,78,110,0
141.79337,142.74689,82,110,0
141.31259,142.84305,77,110,0
142.7549,142.84305,77,110,0
142.7549,142.84305,80,110,0
142.85106,142.9392,78,110,0
142.85106,142.9392,75,110,0
142.94722,143.51613,77,110,0
142.94722,143.51613,73,110,0
143.52414,143.61227,78,110,0
143.52414,143.61227,75,110,0
143.62029,143.70844,77,110,0
143.62029,143.70844,80,110,0
143.71645,144.09305,72,110,0
143.71645,144.09305,68,110,0
144.10106,144.47766,73,110,0
144.10106,144.47766,70,110,0
144.48567,145.05458,75,110,0
144.48567,145.05458,72,110,0
145.06259,145.15074,73,110,0
145.15875,145.24689,78,110,0
145.15875,145.24689,75,110,0
145.2549,145.6315,70,110,0
145.2549,145.6315,67,110,0
145.06259,145.8238,77,110,0
145.63951,146.01611,72,110,0
145.63951,146.01611,69,110,0
146.02414,146.59305,73,110,0
146.60106,146.6892,75,112,0
146.02414,146.78535,70,110,0
146.6972,147.16997,77,112,0
146.79337,147.36227,78,112,0
147.37029,147.45842,80,114,0
146.79337,147.55458,73,112,0
147.46645,147.55458,82,115,0
147.56259,148.1315,83,115,0
148.13951,148.22766,85,117,0
147.56259,148.3238,78,115,0
148.23567,148.3238,87,118,0
148.33182,148.70842,70,118,0
148.33182,148.70842,65,118,0
148.71643,149.09303,69,119,0
148.71643,149.09303,63,119,0
149.10106,149.28535,70,120,0
149.10106,149.28535,61,120,0
149.29337,149.47766,65,80,0
149.38951,149.5738,63,80,0
149.48567,149.66997,65,80,0
149.58182,149.76611,61,80,0
149.67798,149.86227,65,80,0
149.77412,149.95842,60,80,0
149.87029,150.05458,65,80,0
149.96643,150.15073,58,80,0
150.06259,150.24689,65,80,0
150.15874,150.34303,57,80,0
150.2549,150.4392,65,80,0
150.35106,150.53534,58,80,0
150.4472,150.6315,65,80,0
150.54337,150.72766,60,80,0
150.63951,150.8238,65,80,0
150.73567,150.91997,61,80,0
150.83182,151.01611,70,80,0
150.92798,151.11227,68,80,0
151.02412,151.20842,70,80,0
151.12029,151.30458,66,80,0
151.21643,151.40073,70,80,0
151.31259,151.49689,65,80,0
151.40874,151.59303,70,80,0
151.5049,151.6892,63,80,0
151.60104,151.78534,70,80,0
151.6972,151.8815,62,80,0
151.79335,151.97765,70,80,0
151.88951,152.0738,63,80,0
151.98567,152.16995,70,80,0
152.08182,152.26611,65,80,0
152.17798,152.36227,70,80,0
152.27412,152.45842,66,80,0
152.37029,152.55458,70,80,0
152.46643,152.65073,66,80,0
152.56259,152.74689,72,80,0
152.65874,152.84303,70,80,0
152.7549,152.9392,72,80,0
152.85104,153.03534,70,80,0
152.9472,153.1315,73,80,0
153.04335,153.22765,70,80,0
153.13951,153.3238,73,80,0
153.23566,153.41995,70,80,0
153.33182,153.51611,75,80,0
153.42798,153.61226,69,80,0
153.52412,153.70842,75,80,0
153.62029,153.80458,69,80,0
153.71643,153.90073,70,80,0
153.90874,154.09303,65,81,0
154.0049,154.1892,75,82,0
153.90874,154.28534,77,81,0
154.10104,154.28534,77,83,0
154.10104,154.28534,65,83,0
154.1972,154.3815,73,83,0
154.29335,154.47765,77,84,0
154.29335,154.47765,65,84,0
154.38951,154.5738,72,85,0
154.48566,154.66995,77,85,0
154.48566,154.66995,65,85,0
154.58182,154.76611,70,86,0
154.67796,154.86226,77,87,0
154.67796,154.86226,65,87,0
154.77412,154.95842,69,87,0
154.87029,155.05457,77,88,0
154.87029,155.05457,65,88,0
154.96643,155.15073,70,88,0
155.06259,155.24689,77,89,0
155.06259,155.24689,65,89,0
155.15874,155.34303,72,90,0
155.2549,155.4392,77,90,0
155.2549,155.4392,65,90,0
155.35104,155.53534,73,91,0
155.4472,155.6315,82,92,0
155.4472,155.6315,70,92,0
155.54335,155.72765,80,92,0
155.63951,155.8238,82,93,0
155.63951,155.8238,70,93,0
155.73566,155.91995,78,94,0
155.83182,156.01611,82,94,0
155.83182,156.01611,70,94,0
155.92796,156.11226,77,95,0
156.02412,156.20842,82,95,0
156.02412,156.20842,70,95,0
156.12027,156.30457,75,96,0
156.21643,156.40073,82,97,0
156.21643,156.40073,70,97,0
156.31259,156.49687,74,97,0
156.40874,156.59303,82,98,0
156.40874,156.59303,70,98,0
156.5049,156.6892,75,99,0
156.60104,156.78534,82,99,0
156.60104,156.78534,70,99,0
156.6972,156.8815,77,100,0
156.79335,156.97765,82,101,0
156.79335,156.97765,70,101,0
156.88951,157.0738,78,101,0
156.98566,157.16995,82,102,0
156.98566,157.16995,70,102,0
157.08182,157.26611,78,102,0
157.17796,157.36226,84,103,0
157.17796,157.36226,72,103,0
157.27412,157.45842,82,104,0
157.37027,157.55457,84,104,0
157.37027,157.55457,72,104,0
157.46643,157.65073,82,105,0
157.56258,157.74687,85,106,0
157.56258,157.74687,73,106,0
157.65874,157.84303,82,106,0
157.75488,157.93918,85,107,0
157.75488,157.93918,73,107,0
157.85104,158.03534,82,108,0
157.9472,158.13148,87,108,0
157.9472,158.13148,75,108,0
158.04335,158.22765,81,109,0
158.13951,158.3238,87,109,0
158.13951,158.3238,75,109,0
158.23566,158.41995,81,120,0
158.33182,158.51611,82,120,0
158.52412,158.90073,89,120,0
158.90874,159.09303,89,120,0
159.10104,159.28534,87,120,0
159.19719,159.38148,84,120,0
159.29335,159.47765,81,120,0
159.38951,159.57379,77,120,0
159.48566,159.66995,75,120,0
159.58182,159.76611,74,120,0
159.67796,159.86226,75,120,0
159.77412,159.86226,72,120,0
159.87027,160.05457,70,120,0
160.06258,160.43918,77,120,0
160.44719,160.63148,77,120,0
160.6395,160.82379,75,120,0
160.73566,160.91995,72,120,0
160.83182,161.0161,69,120,0
160.92796,161.12233,65,120,0
161.02412,161.22948,63,120,0
161.13126,161.33662,62,120,0
161.2384,161.44376,63,120,0
161.34555,161.44376,60,120,0
161.45268,161.87233,58,120,0
164.88126,165.37083,61,80,0
164.88126,165.37083,58,80,0
164.88126,165.87083,63,80,0
165.38126,165.87083,59,80,0
165.38126,165.87083,56,80,0
168.45268,168.94226,66,80,0
168.95268,169.65804,65,80,0
169.66696,169.87233,65,80,0
169.88126,170.08661,66,80,0
168.45268,170.3009,63,80,0
168.45268,170.3009,60,80,0
170.09554,170.3009,65,80,0
170.30983,170.72946,66,80,0
170.7384,171.37233,65,80,0
171.38126,171.58661,65,80,0
171.59554,171.80089,66,80,0
170.30983,172.01518,63,80,0
170.30983,172.01518,60,80,0
171.80983,172.01518,65,80,0
172.02411,172.65804,66,80,0
172.02411,172.65804,63,80,0
172.02411,172.65804,60,80,0
172.66696,172.87233,65,80,0
172.88126,173.48091,66,80,0
173.48936,173.68361,65,80,0
173.69206,173.87636,66,80,0
173.78821,173.9725,65,80,0
173.88437,174.06866,66,80,0
173.98051,174.16481,65,80,0
174.07668,174.26097,66,80,0
174.17284,174.35712,65,80,0
174.26898,174.45328,66,80,0
174.36514,174.54944,65,80,0
174.46129,174.64558,66,80,0
174.55745,174.74174,65,80,0
174.6536,174.83789,66,80,0
174.74976,174.93405,65,80,0
174.8459,175.0302,66,80,0
174.94206,175.12636,65,80,0
175.03821,175.2225,66,80,0
175.13437,175.31866,65,80,0
175.23051,175.41481,67,80,0
175.32668,175.51097,65,80,0
175.42282,175.60712,67,80,0
175.51898,175.70328,65,80,0
175.61514,175.79942,67,80,0
175.71129,175.89558,65,80,0
175.80745,175.99174,67,80,0
175.9036,176.08789,65,80,0
175.99976,176.18405,67,80,0
176.0959,176.2802,65,80,0
176.19206,176.37636,67,80,0
176.28821,176.4725,65,80,0
176.38437,176.56866,67,80,0
176.48051,176.66481,65,80,0
176.57668,176.76097,67,80,0
176.67282,176.85712,65,80,0
176.96129,177.14558,65,80,0
177.1536,177.33789,77,80,0
177.3459,177.5302,65,80,0
177.73051,177.91481,65,80,0
177.92282,178.10712,77,80,0
178.11513,178.29942,65,80,0
178.49976,178.68404,65,80,0
178.69206,178.87636,77,80,0
178.88437,179.06866,65,80,0
179.07668,179.45328,77,80,0
180.03821,180.2225,65,80,0
180.42282,180.60712,65,80,0
180.80743,180.99173,65,80,0
180.23051,181.18404,77,80,0
180.99974,181.18404,77,80,0
181.19205,181.37634,65,80,0
181.57668,181.76096,65,80,0
181.96129,182.14558,65,80,0
181.76898,182.5302,77,80,0
182.1536,182.5302,77,80,0
183.30743,183.68404,89,80,0
183.88435,184.06865,65,80,0
183.11513,184.45326,77,80,0
184.07666,184.45326,77,80,0
184.8459,185.41481,89,80,0
184.6536,185.79942,77,80,0
185.42282,185.79942,77,80,0
185.80743,185.99173,79,95,0
185.90358,186.08788,81,95,0
185.99974,186.18404,82,95,0
186.0959,186.28018,84,95,0
186.19205,186.37634,86,95,0
186.28821,186.4725,84,95,0
186.38435,186.56865,82,95,0
186.48051,186.66481,81,95,0
186.57666,186.76096,79,95,0
186.67282,186.85712,77,95,0
186.76897,186.95326,76,95,0
186.86513,187.04942,74,95,0
186.96127,187.14557,72,95,0
187.05743,187.24173,70,95,0
187.15358,187.33788,69,95,0
187.24974,187.43404,67,95,0
187.34589,187.53018,65,95,0
187.44205,187.62634,64,80,0
187.53821,187.72249,67,80,0
187.63435,187.81865,65,80,0
187.73051,187.91481,69,80,0
187.82666,188.01096,67,80,0
187.92282,188.10712,70,80,0
188.01897,188.20326,69,80,0
188.11513,188.29942,72,80,0
188.21127,188.39557,70,80,0
188.30743,188.49173,74,80,0
188.40358,188.58788,72,80,0
188.49974,188.68404,75,80,0
188.59589,188.78018,74,80,0
188.69205,188.87634,77,80,0
188.7882,188.97249,76,80,0
188.88435,189.06865,79,80,0
188.98051,189.06865,77,80,0
189.07666,189.26096,75,80,0
189.07666,189.26096,63,80,0
189.26897,189.45326,74,80,0
189.26897,189.45326,62,80,0
189.46127,189.64557,72,80,0
189.46127,189.64557,60,80,0
189.65358,189.83788,70,80,0
189.65358,189.83788,58,80,0
189.84589,190.22249,69,80,0
189.84589,190.22249,57,80,0
190.2305,190.6071,70,80,0
190.2305,190.6071,58,80,0
190.61513,190.99173,71,80,0
190.61513,190.99173,59,80,0
190.99974,191.56865,72,80,0
190.99974,191.56865,60,80,0
191.57666,191.76096,66,80,0
191.6728,191.8571,78,80,0
191.76897,191.95326,69,80,0
191.86511,192.04941,81,80,0
191.96127,192.14557,67,80,0
192.05743,192.24171,79,80,0
192.15358,192.33788,65,80,0
192.24974,192.36993,77,80,0
192.34589,192.53018,63,80,0
192.44205,192.62634,75,80,0
192.5382,192.72249,62,80,0
192.63435,192.81865,74,80,0
192.7305,192.9148,60,80,0
192.82666,193.01096,72,80,0
192.9228,193.1071,57,80,0
193.01897,193.20326,69,80,0
193.11511,193.29941,58,80,0
193.21127,193.39557,70,80,0
193.30742,193.49171,59,80,0
193.40358,193.58788,71,80,0
193.49974,193.68402,60,80,0
193.59589,193.78018,72,80,0
193.69205,194.06865,73,80,0
193.69205,194.06865,61,80,0
194.07666,194.64557,62,80,0
194.07666,194.64557,74,80,0
194.65358,194.83788,65,80,0
194.74973,194.93402,77,80,0
194.84589,195.03018,67,80,0
194.94205,195.12633,79,80,0
195.0382,195.22249,62,80,0
195.13435,195.31865,74,80,0
195.2305,195.4148,65,80,0
195.32666,195.51096,77,80,0
195.4228,195.6071,63,80,0
195.51897,195.70326,75,80,0
195.61511,195.79941,65,80,0
195.71127,195.89557,77,80,0
195.80742,195.99171,60,80,0
195.90358,196.08788,72,80,0
195.99973,196.18402,63,80,0
196.09589,196.28018,75,80,0
196.19203,196.37633,62,80,0
196.2882,196.47249,74,80,0
196.38434,196.56863,67,80,0
196.4805,196.6648,79,80,0
196.57666,196.76094,62,80,0
196.6728,196.8571,74,80,0
196.76897,196.95326,65,80,0
196.86511,197.04941,77,80,0
196.96127,197.14557,63,80,0
197.05742,197.24171,75,80,0
197.15358,197.33788,65,80,0
197.24973,197.43402,77,80,0
197.34589,197.53018,60,80,0
197.44203,197.62633,72,80,0
197.5382,197.72249,63,80,0
197.63434,197.81863,75,80,0
197.7305,197.9148,62,80,0
197.82664,198.01094,74,80,0
197.9228,198.1071,63,80,0
198.01897,198.20325,75,80,0
198.11511,198.29941,65,80,0
198.21127,198.40033,77,80,0
198.30742,198.50168,66,80,0
198.40877,198.60303,78,80,0
198.51012,198.70438,67,80,0
198.61148,198.80573,79,80,0
198.71283,198.90709,69,80,0
198.81418,199.00844,81,80,0
198.91553,199.10979,70,80,0
199.01688,199.21645,82,80,0
199.11823,199.53787,70,80,0
199.11823,199.53787,58,80,0
199.5468,199.96645,72,80,0
199.5468,199.96645,60,80,0
199.97537,200.39502,73,80,0
199.97537,200.39502,61,80,0
200.40395,201.01682,74,80,0
200.40395,201.01682,62,80,0
200.92867,201.11296,70,80,0
201.02483,201.20912,69,80,0
201.12097,201.30527,70,80,0
201.21713,201.40143,71,80,0
201.31328,201.49757,72,80,0
201.40944,201.59373,73,80,0
201.50558,201.68988,74,80,0
201.60175,201.78604,75,80,0
201.69789,201.88219,76,80,0
201.79405,201.97835,77,80,0
201.89021,202.0745,78,80,0
201.98636,202.17065,79,80,0
202.08252,202.26682,80,80,0
202.17867,202.36296,81,80,0
202.27483,202.45912,82,80,0
202.37097,202.55527,70,80,0
202.46713,202.65143,72,80,0
202.56328,202.74757,69,80,0
202.65944,202.84373,70,80,0
202.75558,203.03604,74,80,0
202.75558,203.13219,63,80,0
203.04405,203.13219,72,80,0
203.1402,203.5168,70,80,0
203.1402,203.5168,62,80,0
203.90944,204.67065,74,95,0
203.90944,204.67065,65,95,0
204.67867,204.86296,72,80,0
204.77483,204.9591,74,80,0
204.87097,205.05527,72,80,0
204.96713,205.15143,74,80,0
205.06328,205.24757,71,80,0
205.15944,205.34373,72,80,0
204.67867,205.43988,67,80,0
205.25558,205.43988,74,80,0
205.35175,205.53604,75,80,0
205.44789,205.8245,67,80,0
205.8325,206.2091,69,80,0
205.8325,206.2091,63,80,0
206.21712,206.59372,70,80,0
206.60175,206.78604,65,80,0
206.21712,206.97835,62,80,0
206.98636,207.74757,65,80,0
206.98636,207.74757,74,80,0
207.94789,208.06808,74,80,0
207.75558,208.13219,72,80,0
208.012,208.13219,72,80,0
208.0761,208.19629,71,80,0
208.1402,208.42065,72,80,0
207.75558,208.5168,67,80,0
208.42867,208.5168,74,80,0
208.71712,208.83731,72,80,0
208.52481,208.90141,70,80,0
208.78122,208.90141,70,80,0
208.84532,208.96552,69,80,0
208.90942,209.18988,70,80,0
208.52481,209.28603,64,80,0
209.19789,209.28603,72,80,0
209.29405,209.71368,70,80,0
209.29405,210.14226,65,80,0
209.72261,210.14226,69,80,0
210.15118,210.9994,67,80,0
210.15118,210.9994,79,80,0
211.20064,211.32083,79,80,0
211.00833,211.38493,77,80,0
211.26474,211.38493,77,80,0
211.32884,211.44904,76,80,0
211.39294,211.67339,77,80,0
211.00833,211.76955,72,80,0
211.68141,211.76955,79,80,0
211.96986,212.09006,77,80,0
211.77756,212.15416,75,80,0
212.03397,212.15416,75,80,0
212.09807,212.21826,74,80,0
212.16217,212.44263,75,80,0
211.77756,212.53877,69,80,0
212.45064,212.53877,77,80,0
212.54678,212.92339,75,80,0
212.54678,213.308,70,80,0
212.9314,213.308,74,80,0
213.70064,214.46185,74,83,0
213.79678,214.46185,82,84,0
213.89294,214.46185,86,85,0
214.46986,215.23108,74,91,0
214.56602,215.23108,82,92,0
214.66217,215.23108,86,93,0
215.23909,216.0003,74,99,0
215.33525,216.0003,82,100,0
215.4314,216.0003,86,101,0
216.00833,216.76955,74,107,0
216.10448,216.76955,82,108,0
216.20064,216.76955,86,109,0
216.77756,217.53877,74,110,0
216.77756,217.53877,86,110,0
217.54678,217.73108,72,110,0
217.54678,217.73108,84,110,0
218.31601,219.07722,70,110,0
218.31601,219.07722,82,110,0
219.08525,219.26953,69,110,0
219.08525,219.26953,81,110,0
219.85448,220.42339,67,110,0
219.85448,220.42339,79,110,0
220.4314,220.808,77,110,0
220.4314,220.808,65,110,0
220.81601,221.19261,75,110,0
220.81601,221.19261,63,110,0
221.20062,221.57722,74,110,0
221.20062,221.57722,62,110,0
221.58524,221.76953,72,110,0
221.58524,221.76953,60,110,0
221.77754,222.15414,73,110,0
221.77754,222.15414,61,110,0
222.16217,222.34647,74,110,0
222.9314,223.69261,64,110,0
222.9314,223.69261,74,110,0
223.70062,224.07722,65,110,0
223.70062,224.07722,72,110,0
224.46985,225.23106,61,110,0
224.46985,225.23106,70,110,0
225.23909,225.61569,69,110,0
225.23909,225.61569,62,110,0
225.6237,226.0003,67,110,0
225.6237,226.0003,55,110,0
226.00832,226.38492,57,110,0
226.00832,226.57722,66,110,0
226.39293,226.76953,58,110,0
226.58524,226.96184,65,80,0
226.77754,227.15414,60,80,0
226.77754,227.15414,55,80,0
226.96985,227.34645,63,80,0
227.16216,227.53876,58,80,0
227.16216,227.53876,53,80,0
227.35446,227.73106,62,80,0
227.54677,227.92337,57,80,0
227.54677,227.92337,51,80,0
227.73907,227.92337,60,80,0
227.93138,228.11568,58,80,0
228.02754,228.21184,50,80,0
228.1237,228.30798,53,80,0
228.21985,228.40414,58,80,0
228.31601,228.5003,62,80,0
228.41216,228.59645,65,80,0
228.50832,228.69261,70,80,0
228.60446,228.78876,74,80,0
228.70062,228.88492,65,80,0
228.79677,228.98106,70,80,0
228.89293,229.07722,74,80,0
228.98907,229.17337,77,80,0
229.08524,229.26953,70,80,0
229.18138,229.36568,74,80,0
229.27754,229.46184,77,80,0
229.37369,229.55798,82,80,0
229.46985,229.65414,81,80,0
229.56601,229.75029,87,80,0
229.66216,229.84645,84,80,0
229.75832,229.94261,81,80,0
229.95062,230.13492,84,80,0
230.04677,230.23106,81,80,0
229.85446,230.32722,77,80,0
230.14293,230.32722,77,80,0
230.23907,230.42337,75,80,0
230.33524,230.51953,81,80,0
230.43138,230.61568,77,80,0
230.52754,230.71184,75,80,0
230.62369,230.80798,72,80,0
230.71985,230.90414,77,80,0
230.816,231.00029,75,80,0
230.91216,231.09645,72,80,0
231.00832,231.1926,58,80,0
231.10446,231.28876,50,80,0
231.20062,231.38492,53,80,0
231.29677,231.48106,58,80,0
231.39293,231.57722,62,80,0
231.48907,231.67337,65,80,0
231.58524,231.76953,70,80,0
231.68138,231.86568,74,80,0
231.77754,231.96184,65,80,0
231.87369,232.05798,70,80,0
231.96985,232.15414,74,80,0
232.066,232.25029,77,80,0
232.16216,232.34645,70,80,0
232.2583,232.4426,74,80,0
232.35446,232.53876,77,80,0
232.45062,232.6349,82,80,0
232.54677,232.73106,81,80,0
232.64293,232.82722,87,80,0
232.73907,232.92337,84,80,0
232.83524,233.01953,81,80,0
233.02754,233.21184,84,80,0
233.12369,233.30798,81,80,0
232.93138,233.40414,77,80,0
233.21985,233.40414,77,80,0
233.316,233.50029,75,80,0
233.41216,233.59645,81,80,0
233.5083,233.6926,77,80,0
233.60446,233.78876,75,80,0
233.7006,233.8849,72,80,0
233.79677,233.98106,77,80,0
233.89291,234.07721,75,80,0
233.98907,234.17337,72,80,0
234.08524,234.26952,70,80,0
234.18138,234.36568,50,80,0
234.27754,234.46184,53,80,0
234.37369,234.55798,58,81,0
234.46985,234.65414,62,81,0
234.566,234.75029,65,82,0
234.66216,234.84645,70,82,0
234.7583,234.9426,74,83,0
234.85446,235.03876,65,83,0
234.9506,235.1349,70,84,0
235.04677,235.23106,74,84,0
235.14291,235.32721,77,85,0
235.23907,235.42337,70,85,0
235.33522,235.51952,74,86,0
235.43138,235.61568,77,86,0
235.52754,235.71182,82,87,0
235.71985,235.90414,50,87,0
235.816,236.00029,53,88,0
235.91216,236.09645,58,88,0
236.0083,236.1926,62,89,0
236.10446,236.28876,65,89,0
236.2006,236.3849,70,90,0
236.29677,236.48106,74,90,0
236.39291,236.57721,65,91,0
236.48907,236.67337,70,91,0
236.58522,236.76952,74,92,0
236.68138,236.86568,77,92,0
236.77753,236.96182,70,93,0
236.87369,237.05798,74,93,0
236.96985,237.15413,77,94,0
237.066,237.25029,82,94,0
237.2583,237.4426,51,95,0
237.35446,237.53876,55,95,0
237.4506,237.6349,58,96,0
237.54677,237.73106,63,96,0
237.64291,237.82721,67,97,0
237.73907,237.92337,70,97,0
237.83522,238.01952,75,98,0
237.93138,238.11568,67,98,0
238.02753,238.21182,70,99,0
238.12369,238.30798,75,99,0
238.21983,238.40413,79,100,0
238.316,238.50029,70,100,0
238.41216,238.59644,75,101,0
238.5083,238.6926,79,101,0
238.60446,238.78876,82,102,0
239.46983,239.65413,62,106,0
239.566,239.75029,65,106,0
239.66214,239.84644,68,107,0
239.7583,239.9426,70,107,0
239.85445,240.03874,74,108,0
239.92657,240.09483,77,108,0
239.99869,240.18298,80,108,0
240.0708,240.2551,84,109,0
240.14291,240.32721,82,109,0
240.23907,240.42337,80,80,0
240.43138,240.61568,79,80,0
240.62369,240.80798,77,80,0
240.816,241.00029,75,80,0
241.0083,241.3849,74,80,0
241.39291,241.76952,75,80,0
241.77753,242.15413,76,80,0
242.16214,242.53874,77,80,0
242.73906,242.82721,83,80,0
242.78714,242.87529,84,80,0
242.83522,242.92336,81,80,0
242.8833,242.97144,83,80,0
242.93138,243.11566,86,80,0
243.12369,243.30798,84,80,0
243.316,243.50029,82,80,0
243.5083,243.6926,80,80,0
243.7006,243.8849,79,80,0
244.08522,244.26952,74,80,0
244.27753,244.46182,75,80,0
244.46983,244.65413,76,80,0
243.89291,244.84644,77,80,0
244.66214,244.84644,77,80,0
244.85445,245.23105,78,80,0
245.23906,245.80797,79,80,0
245.81598,246.00027,79,80,0
246.0083,246.19258,80,80,0
246.2006,246.3849,79,80,0
246.39291,246.58716,77,80,0
246.59561,246.78987,75,80,0
246.79831,246.99257,74,80,0
247.00102,247.19527,72,80,0
247.20372,247.62337,71,80,0
247.6323,248.05193,72,80,0
248.06087,248.4805,73,80,0
248.48943,248.90907,74,80,0
249.11537,249.30452,79,80,0
249.31274,249.50188,80,80,0
249.5101,249.69925,79,80,0
249.70747,249.89662,77,80,0
249.90485,250.094,75,80,0
250.10222,250.29135,74,80,0
250.29958,250.48872,72,80,0
250.69432,250.88347,75,80,0
250.89168,251.08083,77,80,0
251.08905,251.2782,75,80,0
251.28642,251.47557,74,80,0
251.4838,251.67293,72,80,0
251.68115,251.8703,70,80,0
251.87852,252.06767,69,80,0
254.543,254.73215,57,80,0
254.64168,254.83083,58,80,0
254.74037,254.9295,60,80,0
254.83905,255.0282,62,80,0
254.93773,255.12688,63,80,0
255.03642,255.22557,65,80,0
255.1351,255.32425,67,80,0
255.23378,255.42293,69,80,0
255.36537,255.5545,70,80,0
255.49695,255.6861,71,80,0
255.62852,255.81767,72,80,0
255.7601,255.94925,73,80,0
255.89168,256.05615,74,80,0
256.02325,256.1466,75,80,0
256.15485,256.2782,69,80,0
256.2864,256.40976,70,80,0
256.418,256.54135,71,80,0
256.54956,256.67294,72,80,0
256.68115,256.8045,74,80,0
256.81274,256.9361,75,80,0
256.9443,257.06766,69,80,0
257.0759,257.19925,70,80,0
257.20746,257.3308,71,80,0
257.33905,257.4624,72,80,0
257.47064,257.594,74,80,0
257.6022,257.79135,75,80,0
257.7009,257.89005,69,80,0
257.79956,257.9887,68,80,0
257.89825,258.0874,69,80,0
257.99695,258.1861,70,80,0
258.0956,258.28476,71,80,0
258.1943,258.38345,72,80,0
258.293,258.48215,73,80,0
258.3917,258.51505,74,80,0
258.52325,258.6466,75,80,0
258.65485,258.7782,76,80,0
258.7864,258.97556,79,80,0
258.9838,259.17294,77,80,0
259.18115,259.36545,77,80,0
259.30936,259.42953,75,80,0
259.43756,259.55774,74,80,0
259.56577,259.68597,74,80,0
259.69397,259.81418,72,80,0
259.82217,259.94238,70,80,0
259.95038,260.0706,70,80,0
260.07858,260.1988,68,80,0
260.2068,260.327,69,80,0
260.335,260.4552,72,80,0
260.4632,260.5834,69,80,0
260.5914,260.7116,70,80,0
260.7196,261.09622,71,80,0
261.10422,261.67313,72,80,0
261.68115,261.86545,78,80,0
261.87344,262.05774,81,80,0
262.06577,262.25006,79,80,0
262.25806,262.4664,79,80,0
262.3863,262.5946,77,80,0
262.5145,262.63467,75,80,0
262.6427,262.81094,75,80,0
262.7709,262.97922,74,80,0
262.8991,263.0193,72,80,0
263.0273,263.22763,72,80,0
263.15552,263.3959,69,80,0
263.28372,263.5241,70,80,0
263.41193,263.62827,74,80,0
263.54013,263.6603,71,80,0
263.66833,263.86865,72,80,0
263.79654,264.17313,73,80,0
264.18115,264.68594,74,80,0
264.69397,264.93436,77,80,0
264.82217,264.94235,76,80,0
264.95038,265.17474,77,80,0
265.07858,265.29492,79,80,0
265.2068,265.43915,74,80,0
265.335,265.57538,77,80,0
265.4632,265.58337,75,80,0
265.5914,265.7116,74,80,0
265.7196,265.8398,75,80,0
265.976,266.09622,72,80,0
266.10422,266.22443,75,80,0
266.23242,266.35263,74,80,0
266.36063,266.48083,73,80,0
266.48883,266.60904,74,80,0
266.61703,266.73724,79,80,0
266.74524,266.86545,74,80,0
265.8478,266.99365,77,80,0
266.87344,266.99365,77,80,0
267.00165,267.12186,75,80,0
267.12985,267.25006,74,80,0
267.25806,267.37827,75,80,0
267.38626,267.50647,77,80,0
267.51447,267.63467,72,80,0
267.64267,267.82697,75,80,0
267.73883,267.92313,74,80,0
267.835,268.0193,73,80,0
267.93115,268.11545,74,80,0
268.02728,268.21158,75,80,0
268.12344,268.30774,76,80,0
268.2196,268.4039,77,80,0
268.31577,268.50006,78,80,0
268.41193,268.5962,79,80,0
268.50806,268.69235,80,80,0
268.60422,268.7885,81,80,0
268.70038,268.88467,82,80,0
268.79654,268.98083,83,80,0
268.89267,269.07697,84,80,0
268.98883,269.17313,85,80,0
269.085,269.2693,86,80,0
269.18115,269.36545,87,80,0
269.27728,269.46158,86,80,0
269.37344,269.55774,84,80,0
269.4696,269.6539,82,80,0
269.56577,269.75006,81,80,0
269.6619,269.8462,79,80,0
269.75806,269.94235,77,80,0
269.85422,270.0385,76,80,0
269.95038,270.32697,79,80,0
270.335,270.9039,77,80,0
270.9119,271.0962,77,80,0
270.9119,271.0962,65,80,0
271.10422,271.2885,79,80,0
271.10422,271.2885,67,80,0
271.29654,271.4808,77,80,0
271.29654,271.4808,65,80,0
271.61703,271.73724,75,80,0
271.61703,271.73724,63,80,0
271.74524,271.86545,74,80,0
271.74524,271.86545,62,80,0
272.00165,272.12186,72,80,0
272.00165,272.12186,60,80,0
272.12985,272.25006,70,80,0
272.12985,272.25006,58,80,0
272.38626,272.50647,68,80,0
272.38626,272.50647,56,80,0
272.51447,272.63467,69,80,0
272.51447,272.63467,57,80,0
272.77087,272.89108,69,80,0
272.77087,272.89108,57,80,0
272.89908,273.0193,70,80,0
272.89908,273.0193,58,80,0
273.02728,273.4039,71,80,0
273.02728,273.4039,59,80,0
273.4119,273.9808,72,80,0
273.4119,273.9808,60,80,0
273.98883,274.17313,78,80,0
273.98883,274.17313,66,80,0
274.18112,274.36542,81,80,0
274.18112,274.36542,69,80,0
274.37344,274.55774,79,80,0
274.37344,274.55774,67,80,0
274.69397,274.81415,77,80,0
274.69397,274.81415,65,80,0
274.82217,274.94235,75,80,0
274.82217,274.94235,63,80,0
275.07858,275.19876,74,80,0
275.07858,275.19876,62,80,0
275.2068,275.32697,72,80,0
275.2068,275.32697,60,80,0
275.4632,275.58337,69,80,0
275.4632,275.58337,57,80,0
275.5914,275.71158,70,80,0
275.5914,275.71158,58,80,0
275.8478,275.968,71,80,0
275.8478,275.968,59,80,0
275.976,276.0962,72,80,0
275.976,276.0962,60,80,0
276.10422,276.4808,73,80,0
276.10422,276.4808,61,80,0
276.48883,276.99362,74,80,0
277.00165,277.12183,77,80,0
276.48883,277.25003,62,80,0
277.12985,277.25003,76,80,0
277.25806,277.49844,77,80,0
277.38626,277.50644,79,80,0
277.51447,277.63467,74,80,0
277.64267,277.88306,77,80,0
277.77087,277.89108,75,80,0
277.25806,278.0193,68,80,0
277.89908,278.0193,74,80,0
278.02728,278.1475,75,80,0
278.1555,278.39587,77,80,0
278.02728,278.4039,69,80,0
278.2837,278.4039,72,80,0
278.4119,278.5321,75,80,0
278.5401,278.6603,74,80,0
278.4119,278.7885,70,80,0
278.6683,278.7885,73,80,0
278.7965,278.91672,74,80,0
278.9247,279.04492,79,80,0
279.05292,279.17313,74,80,0
279.18112,279.4215,77,80,0
279.30933,279.42953,75,80,0
278.7965,279.55774,68,80,0
279.43753,279.55774,74,80,0
279.56573,279.68594,75,80,0
279.69394,279.90228,77,80,0
279.56573,279.94235,69,80,0
279.82214,279.94235,72,80,0
279.95035,280.07056,75,80,0
279.95035,280.07056,70,80,0
280.07855,280.19876,74,80,0
280.07855,280.19876,62,80,0
280.20676,280.32697,73,80,0
280.20676,280.32697,61,80,0
280.335,280.45517,74,80,0
280.335,280.45517,62,80,0
280.4632,280.58337,75,80,0
280.4632,280.58337,63,80,0
280.5914,280.71158,76,80,0
280.5914,280.71158,64,80,0
280.7196,280.84628,65,80,0
280.7196,280.96454,77,80,0
280.85474,280.9814,78,80,0
280.85474,280.9814,66,80,0
280.98987,281.11655,79,80,0
280.98987,281.11655,67,80,0
281.125,281.25168,80,80,0
281.125,281.25168,68,80,0
281.26013,281.3868,81,80,0
281.26013,281.3868,69,80,0
281.39526,281.52194,82,80,0
281.39526,281.52194,70,80,0
281.5304,281.95004,70,80,0
281.5304,281.95004,58,80,0
281.95898,282.3786,72,80,0
281.95898,282.3786,60,80,0
282.38754,282.8072,73,80,0
282.38754,282.8072,61,80,0
282.8161,283.429,74,80,0
282.8161,283.429,62,80,0
283.34085,283.52515,70,80,0
283.43698,283.62128,69,80,0
283.53314,283.71744,70,80,0
283.6293,283.8136,71,80,0
283.72546,283.90976,72,80,0
283.8216,284.0059,73,80,0
283.91776,284.10205,74,80,0
284.01392,284.1982,75,80,0
284.11008,284.29437,76,80,0
284.20624,284.3905,77,80,0
284.30237,284.48666,78,80,0
284.39853,284.58282,79,80,0
284.4947,284.679,80,80,0
284.59085,284.77515,81,80,0
284.68698,284.87128,82,80,0
284.78314,284.96744,70,80,0
284.8793,285.0636,72,80,0
284.97546,285.15976,69,80,0
285.0716,285.2559,70,80,0
285.16776,285.4482,74,80,0
285.16776,285.54437,63,80,0
285.4562,285.54437,72,80,0
285.55237,285.73666,70,80,0
285.64853,285.83282,65,80,0
285.55237,285.929,62,80,0
285.7447,285.929,67,80,0
285.84085,286.02515,69,80,0
285.93698,286.12128,70,80,0
286.03314,286.21744,72,80,0
286.1293,286.3136,74,80,0
286.22546,286.41452,75,80,0
286.3216,287.12396,77,80,0
286.3216,287.12396,70,80,0
287.13242,287.93478,77,100,0
287.13242,287.93478,70,100,0
287.94324,288.54288,70,100,0
288.55133,288.64423,72,100,0
287.94324,288.74557,77,100,0
288.65268,288.74557,74,100,0
288.75403,289.5564,77,100,0
288.75403,289.5564,75,100,0
289.56485,290.13376,74,100,0
290.14175,290.22992,75,100,0
289.56485,290.32605,82,100,0
290.2379,290.63373,77,100,0
290.33408,290.73648,82,100,0
290.33408,290.73648,79,100,0
290.74503,291.14743,84,100,0
290.74503,291.14743,79,100,0
290.74503,291.14743,72,100,0
291.156,291.55838,74,100,0
291.156,291.55838,86,100,0
291.156,291.96936,77,100,0
291.56696,291.96936,87,100,0
291.56696,291.96936,75,100,0
291.9779,292.3803,86,100,0
291.9779,292.79126,74,100,0
292.38885,292.79126,82,100,0
292.79984,293.54202,77,100,0
292.79984,293.54202,70,100,0
293.54984,294.29202,77,100,0
293.54984,294.29202,70,100,0
294.29984,294.85452,70,100,0
294.86234,294.94827,72,100,0
294.29984,295.04202,77,100,0
294.9561,295.04202,74,100,0
295.04984,295.79202,77,100,0
295.04984,295.79202,75,100,0
295.79984,296.35452,74,100,0
296.36234,296.44827,75,100,0
295.79984,296.54202,82,100,0
296.4561,296.82327,77,100,0
296.54984,296.91702,82,100,0
296.54984,296.91702,79,100,0
296.92484,297.29202,84,101,0
296.92484,297.29202,79,101,0
296.92484,297.29202,72,101,0
297.29984,297.66702,74,102,0
297.29984,297.66702,86,102,0
297.29984,298.04202,77,102,0
297.67484,298.04202,87,103,0
297.67484,298.04202,75,103,0
298.04984,298.41702,86,104,0
298.04984,298.79202,74,104,0
298.42484,298.79202,82,105,0
298.79984,299.35452,74,106,0
298.79984,299.35452,70,106,0
299.36234,299.44827,75,107,0
299.36234,299.44827,72,107,0
298.79984,299.54202,82,106,0
299.4561,299.54202,74,107,0
299.4561,299.82327,77,107,0
299.54984,299.91702,82,108,0
299.54984,299.91702,79,108,0
299.92484,300.29202,84,109,0
299.92484,300.29202,79,109,0
299.92484,300.29202,72,109,0
300.29984,300.66702,74,110,0
300.29984,300.66702,86,110,0
300.29984,301.04202,77,110,0
300.67484,301.04202,87,111,0
300.67484,301.04202,75,111,0
301.04984,301.42642,86,112,0
301.04984,301.81104,74,112,0
301.43445,301.81104,82,113,0
301.81906,302.41074,74,114,0
301.81906,302.41074,70,114,0
302.41907,302.5107,75,115,0
302.41907,302.5107,72,115,0
301.81906,302.61072,82,114,0
302.51904,302.61072,74,115,0
302.51904,302.92288,77,115,0
302.61905,303.02704,82,116,0
302.61905,303.02704,79,116,0
302.61905,303.02704,75,116,0
303.03574,303.4437,84,117,0
303.03574,303.4437,82,117,0
303.03574,303.4437,76,117,0
303.03574,303.4437,72,117,0
303.4524,303.87204,77,118,0
303.4524,303.87204,82,118,0
303.4524,303.87204,86,118,0
303.4524,303.87204,74,118,0
303.88095,304.37054,81,118,0
303.88095,304.37054,75,118,0
303.88095,304.37054,69,118,0
304.38095,304.5863,82,119,0
304.38095,304.8006,74,119,0
304.38095,304.8006,70,119,0
304.59525,304.8006,77,80,0
304.80954,305.0149,79,80,0
305.0238,305.2292,77,80,0
305.2381,305.44345,75,80,0
305.4524,305.65775,74,80,0
305.6667,305.87204,72,80,0
305.88095,306.0863,70,80,0
306.09525,306.3006,69,80,0
306.30954,306.5149,67,80,0
306.09525,307.3908,63,80,0
306.5238,307.3908,65,80,0
307.40015,307.6147,67,80,0
307.40015,307.8386,63,80,0
307.62402,307.8386,69,80,0
307.8479,308.06247,70,80,0
307.8479,308.06247,62,80,0
308.07178,308.28635,65,80,0
308.2957,308.51022,67,80,0
308.51956,308.7341,65,80,0
308.74344,308.95798,63,80,0
308.96732,309.18185,62,80,0
309.1912,309.40573,60,80,0
309.41507,309.62964,58,80,0
309.63895,309.8601,57,80,0
309.86972,310.09088,55,80,0
309.63895,311.01395,51,80,0
310.1005,311.01395,53,80,0
311.02356,311.24472,55,80,0
311.02356,311.4755,51,80,0
311.25433,311.4755,57,80,0
311.4851,311.9514,58,80,0
311.4851,311.9514,50,80,0
311.9613,312.45087,69,80,0
311.9613,312.45087,63,80,0
312.4613,312.9954,70,80,0
312.4613,312.9954,62,80,0
313.00674,313.89426,81,120,0
313.00674,313.89426,75,120,0
313.00674,313.89426,72,120,0
313.90674,315.69424,70,120,0
313.90674,315.69424,74,120,0
313.90674,315.69424,82,120,0
316.60675,317.19424,82,1,0
0.76923,1.1458322,58,80,0
0.9615375,1.1458322,65,80,0
1.153845,1.5304472,62,80,0
1.3461525,1.5304472,65,80,0
1.53846,1.9150622,60,80,0
1.7307675,1.9150622,65,80,0
1.923075,2.2996771,58,80,0
2.1153824,2.2996771,65,80,0
2.4999976,2.684292,65,80,0
2.692305,2.8765998,65,80,0
2.8846126,3.0689073,65,80,0
3.07692,3.2612147,65,80,0
3.2692275,3.4535222,65,80,0
3.461535,3.6458297,65,80,0
2.30769,3.8381371,63,80,0
2.30769,3.8381371,57,80,0
3.6538424,3.8381371,65,80,0
3.84615,4.222752,57,80,0
4.0384574,4.222752,65,80,0
4.230765,4.607367,63,80,0
4.4230723,4.607367,65,80,0
4.61538,4.991982,62,80,0
4.8076873,4.991982,65,80,0
4.999995,5.3765974,57,80,0
5.1923027,5.3765974,65,80,0
5.5769176,5.7612123,65,80,0
5.769225,5.95352,65,80,0
5.9615326,6.1458273,65,80,0
6.15384,6.338135,65,80,0
5.38461,6.530442,58,80,0
6.3461475,6.530442,65,80,0
6.538455,6.915057,58,80,0
6.7307625,6.915057,65,80,0
6.92307,7.299672,60,80,0
7.1153774,7.299672,65,80,0
7.307685,7.684287,57,80,0
7.4999924,7.684287,65,80,0
7.6923,8.068902,58,80,0
7.8846073,8.068902,65,80,0
8.076915,8.453517,59,80,0
8.269222,8.453517,65,80,0
8.46153,8.838132,60,80,0
8.653837,8.838132,65,80,0
8.846145,9.222747,57,80,0
9.038452,9.222747,65,80,0
9.23076,9.607362,58,80,0
9.423067,9.607362,62,80,0
9.615375,9.991977,57,80,0
9.807682,9.991977,60,80,0
9.99999,10.376593,55,80,0
10.192298,10.376593,58,80,0
10.384605,10.761208,55,80,0
10.576913,10.761208,58,80,0
10.76922,11.145823,48,80,0
10.961528,11.145823,58,80,0
11.153835,11.560383,48,80,0
11.355025,11.560383,58,80,0
11.783596,11.988954,58,80,0
11.997882,12.2032385,57,80,0
12.212168,12.417524,55,80,0
11.569311,12.846095,53,80,0
12.426453,12.846095,57,80,0
13.239639,13.616241,46,80,0
13.431947,13.616241,53,80,0
13.624254,14.000856,50,80,0
13.816562,14.000856,53,80,0
14.008869,14.385471,48,80,0
14.201177,14.385471,53,80,0
14.393484,14.770086,46,80,0
14.585792,14.770086,53,80,0
14.970407,15.154701,53,80,0
15.162714,15.347009,53,80,0
15.355021,15.539316,53,80,0
15.547329,15.731624,53,80,0
15.739636,15.923931,53,80,0
15.931944,16.11624,53,80,0
14.778099,16.308546,51,80,0
14.778099,16.308546,45,80,0
16.124252,16.308546,53,80,0
16.316559,16.693161,45,80,0
16.508867,16.693161,53,80,0
16.701174,17.077776,51,80,0
16.893482,17.077776,53,80,0
17.085789,17.46239,50,80,0
17.278097,17.46239,53,80,0
17.470404,17.847006,45,80,0
17.662712,17.847006,53,80,0
18.047327,18.23162,53,80,0
18.239634,18.42393,53,80,0
18.431942,18.616236,53,80,0
18.624249,18.808544,53,80,0
17.855019,19.00085,46,80,0
18.816557,19.00085,53,80,0
19.008863,19.385466,46,80,0
19.201172,19.385466,53,80,0
19.393478,19.77008,48,80,0
19.585787,19.77008,53,81,0
19.778093,20.154696,45,82,0
19.970402,20.154696,53,83,0
20.162708,20.53931,46,84,0
20.355017,20.53931,53,85,0
20.547323,20.923925,47,86,0
20.739632,20.923925,53,87,0
20.931938,21.30854,48,88,0
21.124247,21.30854,53,89,0
21.316553,21.693155,45,90,0
21.508862,21.693155,53,91,0
21.701168,22.07777,46,92,0
21.893476,22.07777,53,93,0
22.085783,22.462387,44,94,0
22.278091,22.462387,46,95,0
22.4704,22.847002,43,96,0
22.662706,22.847002,46,97,0
22.855015,23.264038,39,98,0
23.058681,23.264038,51,99,0
23.272966,23.69261,41,100,0
23.487253,23.69261,50,100,0
23.701538,24.121181,41,100,0
23.915823,24.121181,45,100,0
24.13011,24.335466,38,80,0
24.55868,24.764038,58,80,0
24.772966,24.978323,58,80,0
24.987251,25.171545,58,80,0
24.344395,25.363853,46,80,0
25.179558,25.363853,58,80,0
25.371866,25.748468,57,80,0
25.564175,25.748468,58,80,0
25.756481,26.133083,55,80,0
25.94879,26.133083,58,80,0
26.141096,26.517698,53,80,0
26.333405,26.517698,63,80,0
26.525711,26.902313,53,80,0
26.71802,26.902313,62,80,0
26.910326,27.309822,53,80,0
27.104465,27.309822,57,80,0
27.31875,27.738394,58,80,0
27.31875,27.738394,46,80,0
28.175892,29.024107,62,80,0
28.175892,29.024107,58,80,0
29.033035,30.240805,60,80,0
29.033035,30.240805,51,80,0
30.24925,30.64621,60,80,0
30.24925,30.64621,53,80,0
30.654655,31.457018,58,80,0
30.654655,31.457018,46,80,0
31.465466,32.26783,62,80,0
31.465466,32.26783,58,80,0
32.276276,33.07864,55,80,0
32.276276,33.07864,52,80,0
33.087086,33.88945,60,80,0
33.087086,33.88945,48,80,0
33.897896,34.70026,60,80,0
33.897896,34.70026,53,80,0
34.708706,35.51107,45,80,0
34.810055,35.51107,53,80,0
34.911407,35.51107,57,80,0
35.519516,36.32188,46,84,0
35.620865,36.32188,53,85,0
35.722218,36.32188,57,86,0
36.330326,37.13269,48,93,0
36.431675,37.13269,53,94,0
36.533028,37.13269,57,96,0
37.141136,37.9435,50,103,0
37.242485,37.9435,53,104,0
37.343838,37.9435,57,105,0
37.951946,38.348904,69,110,0
37.951946,38.75431,65,110,0
37.951946,38.75431,62,110,0
38.35735,39.159714,71,110,0
39.16816,39.362415,72,110,0
38.762756,39.565117,67,110,0
38.762756,39.565117,60,110,0
39.573566,39.970524,62,110,0
39.573566,39.970524,65,110,0
39.573566,40.375927,58,110,0
39.97897,40.781334,64,110,0
39.97897,40.781334,67,110,0
40.78978,40.984035,65,110,0
40.78978,40.984035,69,110,0
40.384377,41.186737,57,110,0
41.195187,41.592144,62,110,0
41.195187,41.997547,55,110,0
41.195187,41.997547,58,110,0
41.60059,41.997547,64,110,0
42.005993,42.402954,65,110,0
42.005993,42.402954,60,110,0
42.005993,42.402954,53,110,0
42.4114,42.808357,58,110,0
42.4114,42.808357,46,110,0
42.816803,43.213764,57,110,0
42.816803,43.213764,48,110,0
43.22221,43.619167,52,110,0
43.22221,43.619167,48,110,0
43.627613,44.024574,53,110,0
43.627613,44.024574,41,110,0
44.438423,44.835384,53,110,0
44.438423,45.240788,50,110,0
44.84383,45.646194,56,110,0
45.249233,46.051598,48,110,0
45.65464,46.051598,57,110,0
46.060043,46.457005,50,110,0
46.060043,46.862408,46,110,0
46.46545,47.267815,52,110,0
46.870853,47.673218,45,110,0
47.27626,47.673218,53,110,0
47.681664,48.078625,50,110,0
47.681664,48.484028,43,110,0
48.08707,48.68673,49,110,0
48.492474,48.889435,41,110,0
48.69518,49.092136,48,110,0
48.89788,49.294838,34,110,0
49.100582,49.49754,46,110,0
49.303284,49.700245,36,110,0
49.50599,49.902946,45,110,0
49.70869,50.105648,36,110,0
49.911392,50.105648,43,110,0
50.114094,50.511055,29,110,0
50.5195,51.72727,41,80,0
50.924904,51.72727,45,80,0
51.33031,51.72727,48,80,0
51.735714,53.34889,43,80,0
51.735714,53.34889,41,80,0
52.14112,53.34889,46,80,0
52.546524,53.34889,48,80,0
52.95193,53.34889,52,80,0
53.357334,53.754295,41,80,0
53.76274,54.97051,53,80,0
54.168144,54.97051,57,80,0
54.57355,54.97051,60,80,0
54.978954,56.59213,55,80,0
54.978954,56.59213,53,80,0
55.38436,56.59213,58,80,0
55.789764,56.59213,60,80,0
56.19517,56.59213,64,80,0
56.600574,56.99753,41,80,0
57.00598,58.21375,53,83,0
57.411385,58.21375,57,85,0
57.81679,58.21375,60,88,0
58.222195,58.619152,39,90,0
58.627598,59.83537,51,93,0
59.033005,59.83537,57,95,0
59.438408,59.83537,60,98,0
59.843815,60.240772,37,101,0
60.249218,61.45699,49,103,0
60.654625,61.45699,53,106,0
61.060028,61.45699,58,108,0
61.87084,62.2678,46,110,0
62.276245,62.673687,49,110,0
61.465435,63.123184,42,110,0
62.682613,63.123184,52,110,0
63.13295,64.060684,53,110,0
63.13295,64.060684,41,110,0
64.304825,64.529434,48,80,0
64.5392,64.73346,50,80,0
64.741905,64.93616,48,80,0
64.9446,65.13886,46,80,0
65.14731,65.34156,45,80,0
65.350006,65.544266,43,80,0
65.55271,65.74697,41,80,0
65.75542,66.152374,41,80,0
67.579735,67.70643,51,80,0
67.64731,67.773994,53,80,0
67.714874,67.84156,51,80,0
67.78244,67.9767,53,80,0
67.985146,68.1794,51,80,0
68.18784,68.3821,50,80,0
68.39055,68.5848,48,80,0
68.59325,68.787506,46,80,0
68.79595,68.99021,45,80,0
68.99866,69.395615,45,80,0
70.822975,71.017235,60,80,0
71.02568,71.21993,62,80,0
71.22838,71.42264,60,80,0
71.43108,71.62534,58,80,0
71.63379,71.82804,57,80,0
71.83649,72.03075,55,80,0
72.03919,72.23345,53,80,0
72.444595,72.638855,63,80,0
72.6473,72.84155,65,80,0
72.85,73.04426,63,80,0
73.052704,73.237,62,80,0
73.24501,73.429306,60,80,0
73.43732,73.62161,58,80,0
73.62962,73.81392,57,80,0
79.20654,79.583145,58,80,0
79.39885,79.583145,65,80,0
79.591156,79.96776,62,80,0
79.78347,79.96776,65,80,0
79.97578,80.35238,60,80,0
80.16808,80.35238,65,80,0
80.36039,80.73699,58,80,0
80.5527,80.73699,65,80,0
80.93731,81.121605,65,80,0
81.129616,81.31391,65,80,0
81.32193,81.50622,65,80,0
81.51424,81.69853,65,80,0
81.70654,81.89084,65,80,0
81.89885,82.083145,65,80,0
80.745,82.27545,63,80,0
80.745,82.27545,57,80,0
82.091156,82.27545,65,80,0
82.28346,82.660065,57,80,0
82.47577,82.660065,65,80,0
82.66808,83.044685,63,80,0
82.86039,83.044685,65,80,0
83.0527,83.4293,62,80,0
83.245,83.4293,65,80,0
83.43731,83.81391,57,80,0
83.629616,83.81391,65,80,0
84.01423,84.198524,65,80,0
84.20654,84.39083,65,80,0
84.39885,84.583145,65,80,0
84.591156,84.77545,65,80,0
83.82192,84.96776,58,80,0
84.78346,84.96776,65,80,0
84.97577,85.35237,58,80,0
85.168076,85.35237,65,80,0
85.36038,85.736984,60,80,0
85.55269,85.736984,65,80,0
85.745,86.121605,57,80,0
85.93731,86.121605,65,80,0
86.129616,86.50622,58,80,0
86.32192,86.50622,65,80,0
86.51423,86.89083,59,80,0
86.706535,86.89083,65,80,0
86.89884,87.275444,60,80,0
87.09115,87.275444,65,81,0
87.28346,87.660065,57,82,0
87.47577,87.660065,65,83,0
87.668076,88.04468,58,85,0
87.86038,88.04468,62,86,0
88.05269,88.42929,57,87,0
88.244995,88.42929,60,89,0
88.4373,88.8139,55,90,0
88.629616,88.8139,58,91,0
88.82192,89.198524,55,93,0
89.01423,89.198524,58,94,0
89.206535,89.60349,48,95,0
89.40924,89.60349,58,97,0
89.61194,90.031586,48,98,0
89.826225,90.031586,58,99,0
90.2548,90.46015,58,80,0
90.46908,90.67444,57,80,0
90.683365,90.888725,55,80,0
90.04051,91.31729,53,80,0
90.89765,91.31729,57,80,0
91.71084,92.08744,46,80,0
91.903145,92.08744,53,80,0
92.09545,92.47205,50,80,0
92.28776,92.47205,53,80,0
92.48007,92.856674,48,80,0
92.67238,92.856674,53,80,0
92.864685,93.24129,46,80,0
93.05699,93.24129,53,80,0
93.441605,93.6259,53,80,0
93.63391,93.81821,53,80,0
93.82622,94.01051,53,80,0
94.01853,94.20282,53,80,0
94.21084,94.395134,53,80,0
94.403145,94.58744,53,80,0
93.2493,94.77975,51,80,0
93.2493,94.77975,45,80,0
94.59545,94.77975,53,80,0
94.78776,95.16436,45,80,0
94.980064,95.16436,53,80,0
95.17237,95.54897,51,80,0
95.36468,95.54897,53,80,0
95.55699,95.93359,50,80,0
95.7493,95.93359,53,80,0
95.941605,96.31821,45,80,0
96.13391,96.31821,53,80,0
96.518524,96.70282,53,80,0
96.71083,96.89513,53,80,0
96.903145,97.08743,53,80,0
97.09545,97.27975,53,80,0
96.32622,97.47205,46,80,0
97.28776,97.47205,53,80,0
97.480064,97.85667,46,80,0
97.67237,97.85667,53,80,0
97.86468,98.24128,48,80,0
98.056984,98.24128,53,80,0
98.24929,98.62589,45,80,0
98.441605,98.62589,53,80,0
98.63391,99.01051,46,80,0
98.82622,99.01051,53,80,0
99.018524,99.39513,47,80,0
99.21083,99.39513,53,80,0
99.40314,99.77974,48,80,0
99.59544,99.77974,53,80,0
99.78775,100.16435,45,80,0
99.980064,100.16435,53,80,0
100.17237,100.54897,46,80,0
100.36468,100.54897,53,80,0
100.556984,100.933586,44,80,0
100.74929,100.933586,46,80,0
100.9416,101.338554,43,80,0
101.1443,101.338554,46,80,0
101.347,101.76665,39,80,0
101.56129,101.76665,51,80,0
101.77557,102.19521,41,80,0
101.98986,102.19521,50,80,0
102.20415,102.62379,41,80,0
102.418434,102.62379,45,80,0
102.63271,102.83807,38,80,0
103.06129,103.26665,58,80,0
103.27557,103.48093,58,80,0
103.48986,103.67416,58,80,0
102.847,103.86646,46,80,0
103.68217,103.86646,58,80,0
103.87447,104.251076,57,80,0
104.06678,104.251076,58,80,0
104.25909,104.63569,55,80,0
104.45139,104.63569,58,80,0
104.64371,105.02031,53,80,0
104.83601,105.02031,63,80,0
105.02832,105.40492,53,80,0
105.22063,105.40492,62,80,0
105.41293,105.789536,53,80,0
105.60524,105.789536,57,80,0
105.79755,106.17415,58,80,0
105.79755,106.17415,46,80,0
106.56678,107.327995,49,110,0
106.56678,107.327995,46,110,0
107.336006,107.904915,47,110,0
107.91293,108.001076,49,110,0
108.00909,108.09723,51,110,0
107.336006,108.48184,39,110,0
108.10524,108.48184,42,110,0
108.48985,108.866455,45,110,0
108.48985,108.866455,41,110,0
108.874466,109.68782,46,110,0
108.874466,109.68782,34,110,0
109.69639,110.50974,46,110,0
109.69639,110.50974,49,110,0
110.5183,111.27952,48,110,0
110.5183,111.27952,40,110,0
111.28753,112.04875,52,110,0
111.28753,112.04875,55,110,0
112.05676,112.433365,56,110,0
112.05676,112.433365,53,110,0
112.441376,112.81798,59,110,0
112.441376,112.81798,47,110,0
112.82599,113.2026,48,110,0
112.82599,113.2026,60,110,0
113.21061,113.58721,48,110,0
113.21061,113.58721,36,110,0
113.59522,113.77952,41,110,0
113.59522,113.77952,53,110,0
113.78753,113.971825,43,80,0
113.78753,113.971825,40,80,0
113.979836,114.16413,44,80,0
113.979836,114.16413,41,80,0
114.17214,114.35644,46,80,0
114.17214,114.35644,43,80,0
114.364456,114.548744,48,80,0
114.364456,114.548744,44,80,0
114.55676,114.74106,49,80,0
114.55676,114.74106,46,80,0
114.74907,114.933365,48,80,0
114.74907,114.933365,44,80,0
114.941376,115.12567,46,80,0
114.941376,115.12567,43,80,0
115.13368,115.31798,44,80,0
115.13368,115.31798,41,80,0
115.32599,115.510284,48,80,0
115.32599,115.510284,45,80,0
115.518295,115.70259,49,80,0
115.518295,115.70259,46,80,0
115.7106,115.8949,51,80,0
115.7106,115.8949,48,80,0
115.902916,116.087204,53,80,0
115.902916,116.087204,49,80,0
116.09522,116.27952,54,80,0
116.09522,116.27952,51,80,0
116.28753,116.471825,53,80,0
116.28753,116.471825,49,80,0
116.479836,116.66413,51,80,0
116.479836,116.66413,48,80,0
116.67214,116.85644,49,80,0
116.67214,116.85644,46,80,0
116.86445,117.048744,49,81,0
116.86445,117.048744,46,81,0
117.056755,117.24105,50,82,0
117.056755,117.24105,47,82,0
117.24906,117.43336,50,83,0
117.24906,117.43336,47,83,0
117.441376,117.62566,53,84,0
117.441376,117.62566,48,84,0
117.63368,117.81798,53,85,0
117.63368,117.81798,48,85,0
117.82599,118.010284,55,85,0
117.82599,118.010284,48,85,0
118.018295,118.20259,55,86,0
118.018295,118.20259,48,86,0
118.2106,118.3949,57,87,0
118.2106,118.3949,53,87,0
118.40291,118.587204,40,88,0
118.40291,118.587204,52,88,0
118.595215,118.77951,41,89,0
118.595215,118.77951,53,89,0
118.78752,118.97182,43,90,0
118.78752,118.97182,55,90,0
118.979836,119.16412,44,91,0
118.979836,119.16412,56,91,0
119.17214,119.35644,46,92,0
119.17214,119.35644,58,92,0
119.36445,119.548744,44,93,0
119.36445,119.548744,56,93,0
119.556755,119.74105,43,94,0
119.556755,119.74105,55,94,0
119.74906,119.93336,41,95,0
119.74906,119.93336,53,95,0
119.94137,120.12566,45,96,0
119.94137,120.12566,57,96,0
120.133675,120.31797,46,97,0
120.133675,120.31797,58,97,0
120.32599,120.51028,48,97,0
120.32599,120.51028,60,97,0
120.518295,120.70259,49,98,0
120.518295,120.70259,61,98,0
120.7106,120.8949,51,99,0
120.7106,120.8949,63,99,0
120.90291,121.087204,49,100,0
120.90291,121.087204,61,100,0
121.095215,121.27951,48,101,0
121.095215,121.27951,60,101,0
121.28752,121.47182,58,102,0
121.28752,121.47182,50,102,0
121.47983,121.66412,58,103,0
121.47983,121.66412,61,103,0
121.672134,121.85643,59,104,0
121.672134,121.85643,62,104,0
121.86445,122.04874,59,105,0
121.86445,122.04874,62,105,0
122.056755,122.24105,60,106,0
122.056755,122.24105,65,106,0
122.24906,122.43336,60,107,0
122.24906,122.43336,65,107,0
122.44137,122.62566,60,108,0
122.44137,122.62566,67,108,0
122.633675,122.81797,60,109,0
122.633675,122.81797,67,109,0
122.82598,123.01028,65,120,0
122.82598,123.01028,60,120,0
122.82598,123.01028,56,120,0
122.82598,123.01028,53,120,0
123.01829,123.20258,65,120,0
123.01829,123.20258,60,120,0
123.01829,123.20258,56,120,0
123.01829,123.20258,53,120,0
123.210594,123.39489,65,120,0
123.210594,123.39489,60,120,0
123.210594,123.39489,56,120,0
123.210594,123.39489,53,120,0
123.40291,123.5872,65,120,0
123.40291,123.5872,60,120,0
123.40291,123.5872,56,120,0
123.40291,123.5872,53,120,0
123.595215,123.77951,64,120,0
123.595215,123.77951,60,120,0
123.595215,123.77951,58,120,0
123.595215,123.77951,55,120,0
123.595215,123.77951,53,120,0
123.78752,123.97182,64,120,0
123.78752,123.97182,60,120,0
123.78752,123.97182,58,120,0
123.78752,123.97182,55,120,0
123.78752,123.97182,53,120,0
123.97983,124.16412,64,120,0
123.97983,124.16412,60,120,0
123.97983,124.16412,58,120,0
123.97983,124.16412,55,120,0
123.97983,124.16412,53,120,0
124.172134,124.35643,64,120,0
124.172134,124.35643,60,120,0
124.172134,124.35643,58,120,0
124.172134,124.35643,55,120,0
124.172134,124.35643,53,120,0
124.36444,124.54874,53,120,0
124.36444,124.54874,48,120,0
124.36444,124.54874,44,120,0
124.36444,124.54874,41,120,0
124.55675,124.74104,53,120,0
124.55675,124.74104,48,120,0
124.55675,124.74104,44,120,0
124.55675,124.74104,41,120,0
124.749054,124.93335,53,120,0
124.749054,124.93335,48,120,0
124.749054,124.93335,44,120,0
124.749054,124.93335,41,120,0
124.94137,125.125656,53,120,0
124.94137,125.125656,48,120,0
124.94137,125.125656,44,120,0
124.94137,125.125656,41,120,0
125.133675,125.31797,52,120,0
125.133675,125.31797,48,120,0
125.133675,125.31797,46,120,0
125.133675,125.31797,43,120,0
125.133675,125.31797,41,120,0
125.32598,125.51028,52,120,0
125.32598,125.51028,48,120,0
125.32598,125.51028,46,120,0
125.32598,125.51028,43,120,0
125.32598,125.51028,41,120,0
125.51829,125.71303,52,120,0
125.51829,125.71303,48,120,0
125.51829,125.71303,46,120,0
125.51829,125.71303,43,120,0
125.51829,125.71303,41,120,0
125.721954,125.927315,52,120,0
125.721954,125.927315,48,120,0
125.721954,125.927315,46,120,0
125.721954,125.927315,43,120,0
125.721954,125.927315,41,120,0
125.93624,126.784454,53,120,0
125.93624,126.784454,41,120,0
126.79338,127.5546,44,110,0
127.562614,128.13152,43,110,0
128.13954,128.22768,44,110,0
128.23569,128.32384,46,110,0
128.33185,128.70845,38,110,0
128.71646,129.09306,40,110,0
129.10107,129.47768,41,110,0
129.8703,130.63152,49,110,0
130.63953,131.20844,48,110,0
131.21646,131.3046,49,110,0
131.3126,131.40076,51,110,0
131.40877,131.78537,43,110,0
131.79338,132.16998,45,110,0
132.178,132.5546,46,110,0
134.48569,135.2469,53,110,0
135.25491,135.63152,46,110,0
137.5626,138.32382,58,110,0
138.33183,138.70844,51,110,0
139.10106,139.86227,54,110,0
139.10106,139.86227,58,110,0
139.8703,140.43921,53,110,0
139.8703,140.43921,56,110,0
140.44722,140.53535,58,110,0
140.44722,140.53535,54,110,0
140.54337,140.63152,59,110,0
140.54337,140.63152,56,110,0
140.63953,141.01613,51,110,0
140.63953,141.01613,48,110,0
141.02414,141.40074,53,110,0
141.02414,141.40074,50,110,0
141.40875,141.97766,51,110,0
141.40875,141.97766,54,110,0
141.98567,142.07382,56,110,0
141.98567,142.07382,53,110,0
142.08183,142.16997,58,110,0
142.08183,142.16997,54,110,0
142.17798,142.55458,49,110,0
142.17798,142.55458,46,110,0
142.56259,142.9392,53,110,0
142.56259,142.9392,49,110,0
142.94722,143.32382,53,110,0
142.94722,143.32382,49,110,0
143.33183,144.28535,53,110,0
143.33183,144.28535,56,110,0
144.29337,144.3815,54,110,0
144.29337,144.3815,51,110,0
144.38953,144.47766,53,110,0
144.38953,144.47766,49,110,0
144.48567,144.86227,48,110,0
144.48567,144.86227,51,110,0
144.87029,145.8238,63,110,0
144.87029,145.8238,66,110,0
145.83183,145.91997,61,110,0
145.83183,145.91997,65,110,0
145.92798,146.01611,60,110,0
145.92798,146.01611,63,110,0
146.02414,146.59305,58,110,0
146.02414,146.59305,61,110,0
146.60106,146.78535,60,112,0
146.60106,146.78535,56,112,0
146.79337,147.36227,54,112,0
146.79337,147.36227,58,112,0
147.37029,147.55458,56,114,0
147.37029,147.55458,53,114,0
147.56259,147.9392,54,115,0
147.56259,148.3238,51,115,0
147.9472,148.3238,63,117,0
148.33182,148.70842,61,118,0
148.33182,148.70842,53,118,0
148.71643,149.09303,60,119,0
148.71643,149.09303,53,119,0
149.10106,149.28535,58,120,0
149.10106,149.28535,46,120,0
149.29337,149.47766,45,80,0
149.29337,149.47766,48,80,0
149.48567,149.66997,49,80,0
149.48567,149.66997,46,80,0
149.67798,149.86227,51,80,0
149.67798,149.86227,48,80,0
149.87029,150.05458,53,80,0
149.87029,150.05458,49,80,0
150.06259,150.24689,54,80,0
150.06259,150.24689,51,80,0
150.2549,150.4392,53,80,0
150.2549,150.4392,49,80,0
150.4472,150.6315,51,80,0
150.4472,150.6315,48,80,0
150.63951,150.8238,49,80,0
150.63951,150.8238,46,80,0
150.83182,151.01611,53,80,0
150.83182,151.01611,50,80,0
151.02412,151.20842,54,80,0
151.02412,151.20842,51,80,0
151.21643,151.40073,56,80,0
151.21643,151.40073,53,80,0
151.40874,151.59303,58,80,0
151.40874,151.59303,54,80,0
151.60104,151.78534,59,80,0
151.60104,151.78534,56,80,0
151.79335,151.97765,58,80,0
151.79335,151.97765,54,80,0
151.98567,152.16995,56,80,0
151.98567,152.16995,53,80,0
152.17798,152.36227,54,80,0
152.17798,152.36227,51,80,0
152.37029,152.55458,54,80,0
152.37029,152.55458,51,80,0
152.56259,152.74689,55,80,0
152.56259,152.74689,52,80,0
152.7549,152.9392,55,80,0
152.7549,152.9392,52,80,0
152.9472,153.1315,58,80,0
152.9472,153.1315,53,80,0
153.13951,153.3238,58,80,0
153.13951,153.3238,53,80,0
153.33182,153.51611,60,80,0
153.33182,153.51611,53,80,0
153.52412,153.70842,60,80,0
153.52412,153.70842,53,80,0
153.71643,153.90073,58,80,0
153.71643,153.90073,46,80,0
153.90874,154.09303,57,81,0
153.90874,154.09303,45,81,0
154.10104,154.28534,58,83,0
154.10104,154.28534,46,83,0
154.29335,154.47765,60,84,0
154.29335,154.47765,48,84,0
154.48566,154.66995,61,85,0
154.48566,154.66995,49,85,0
154.67796,154.86226,63,87,0
154.67796,154.86226,51,87,0
154.87029,155.05457,61,88,0
154.87029,155.05457,49,88,0
155.06259,155.24689,60,89,0
155.06259,155.24689,48,89,0
155.2549,155.4392,58,90,0
155.2549,155.4392,46,90,0
155.4472,155.6315,62,92,0
155.4472,155.6315,50,92,0
155.63951,155.8238,63,93,0
155.63951,155.8238,51,93,0
155.83182,156.01611,65,94,0
155.83182,156.01611,53,94,0
156.02412,156.20842,66,95,0
156.02412,156.20842,54,95,0
156.21643,156.40073,68,97,0
156.21643,156.40073,56,97,0
156.40874,156.59303,66,98,0
156.40874,156.59303,54,98,0
156.60104,156.78534,65,99,0
156.60104,156.78534,53,99,0
156.79335,156.97765,63,101,0
156.79335,156.97765,51,101,0
156.98566,157.16995,63,102,0
156.98566,157.16995,66,102,0
157.17796,157.36226,67,103,0
157.17796,157.36226,64,103,0
157.37027,157.55457,64,104,0
157.37027,157.55457,67,104,0
157.56258,157.74687,70,106,0
157.56258,157.74687,65,106,0
157.75488,157.93918,70,107,0
157.75488,157.93918,65,107,0
157.9472,158.13148,72,108,0
157.9472,158.13148,65,108,0
158.13951,158.3238,72,109,0
158.13951,158.3238,65,109,0
158.33182,158.51611,70,120,0
158.33182,158.51611,65,120,0
158.33182,158.51611,61,120,0
158.33182,158.51611,58,120,0
158.52412,158.70842,70,120,0
158.52412,158.70842,65,120,0
158.52412,158.70842,61,120,0
158.52412,158.70842,58,120,0
158.71643,158.90073,70,120,0
158.71643,158.90073,65,120,0
158.71643,158.90073,61,120,0
158.71643,158.90073,58,120,0
158.90874,159.09303,70,120,0
158.90874,159.09303,65,120,0
158.90874,159.09303,61,120,0
158.90874,159.09303,58,120,0
159.10104,159.28534,69,120,0
159.10104,159.28534,65,120,0
159.10104,159.28534,63,120,0
159.10104,159.28534,60,120,0
159.10104,159.28534,58,120,0
159.29335,159.47765,69,120,0
159.29335,159.47765,65,120,0
159.29335,159.47765,63,120,0
159.29335,159.47765,60,120,0
159.29335,159.47765,58,120,0
159.48566,159.66995,69,120,0
159.48566,159.66995,65,120,0
159.48566,159.66995,63,120,0
159.48566,159.66995,60,120,0
159.48566,159.66995,58,120,0
159.67796,159.86226,69,120,0
159.67796,159.86226,65,120,0
159.67796,159.86226,63,120,0
159.67796,159.86226,60,120,0
159.67796,159.86226,58,120,0
159.87027,160.05457,58,120,0
159.87027,160.05457,53,120,0
159.87027,160.05457,49,120,0
159.87027,160.05457,46,120,0
160.06258,160.24687,58,120,0
160.06258,160.24687,53,120,0
160.06258,160.24687,49,120,0
160.06258,160.24687,46,120,0
160.25488,160.43918,58,120,0
160.25488,160.43918,53,120,0
160.25488,160.43918,49,120,0
160.25488,160.43918,46,120,0
160.44719,160.63148,58,120,0
160.44719,160.63148,53,120,0
160.44719,160.63148,49,120,0
160.44719,160.63148,46,120,0
160.6395,160.82379,57,120,0
160.6395,160.82379,53,120,0
160.6395,160.82379,51,120,0
160.6395,160.82379,48,120,0
160.6395,160.82379,46,120,0
160.83182,161.0161,57,120,0
160.83182,161.0161,53,120,0
160.83182,161.0161,51,120,0
160.83182,161.0161,48,120,0
160.83182,161.0161,46,120,0
161.02412,161.22948,57,120,0
161.02412,161.22948,53,120,0
161.02412,161.22948,51,120,0
161.02412,161.22948,48,120,0
161.02412,161.22948,46,120,0
161.2384,161.44376,57,120,0
161.2384,161.44376,53,120,0
161.2384,161.44376,51,120,0
161.2384,161.44376,48,120,0
161.2384,161.44376,46,120,0
161.45268,162.51518,46,120,0
162.52411,162.72948,49,80,0
162.7384,162.94376,51,80,0
162.95268,163.15805,49,80,0
163.16698,163.37233,47,80,0
163.38126,163.58661,46,80,0
163.59555,163.8009,44,80,0
163.80983,164.01518,42,80,0
164.02411,164.44376,41,80,0
164.45268,164.87233,42,80,0
164.88126,165.37083,43,80,0
165.38126,166.08661,44,80,0
166.09554,166.3009,51,80,0
166.30983,166.51518,52,80,0
166.52411,166.72948,51,80,0
166.7384,166.94376,49,80,0
166.95268,167.15804,47,80,0
167.16698,167.37233,46,80,0
167.38126,167.58661,44,80,0
167.59554,168.01518,43,80,0
168.02411,168.44376,44,80,0
168.45268,170.3009,45,80,0
170.30983,172.01518,46,80,0
172.02411,172.44376,45,80,0
176.76898,176.95328,63,80,0
176.76898,176.95328,55,80,0
176.96129,177.14558,62,80,0
176.96129,177.14558,53,80,0
177.1536,177.33789,60,80,0
177.1536,177.33789,51,80,0
177.3459,177.5302,58,80,0
177.3459,177.5302,50,80,0
177.53821,177.91481,57,80,0
177.53821,177.91481,48,80,0
177.92282,178.29942,50,80,0
177.92282,178.29942,58,80,0
178.30743,178.68404,59,80,0
178.30743,178.68404,56,80,0
178.69206,179.26097,57,80,0
178.69206,179.26097,60,80,0
179.26898,179.45328,66,80,0
179.46129,179.64558,69,80,0
179.6536,179.83789,67,80,0
179.8459,180.0302,65,80,0
180.03821,180.2225,63,80,0
180.03821,180.2225,55,80,0
180.23051,180.41481,62,80,0
180.23051,180.41481,53,80,0
180.42282,180.60712,60,80,0
180.42282,180.60712,51,80,0
180.61513,180.99173,58,80,0
180.61513,180.99173,50,80,0
180.99974,181.37634,60,80,0
180.99974,181.37634,57,80,0
181.38435,181.76096,61,80,0
181.38435,181.76096,57,80,0
181.76898,182.33789,58,80,0
181.76898,182.33789,62,80,0
182.3459,182.5302,65,80,0
182.53821,182.7225,67,80,0
182.53821,182.91481,59,80,0
182.73051,182.91481,62,80,0
182.92282,183.10712,65,80,0
182.92282,183.29942,60,80,0
183.11513,183.29942,63,80,0
183.30743,183.49173,65,80,0
183.30743,183.68404,57,80,0
183.49974,183.68404,60,80,0
183.69205,183.87634,63,80,0
183.69205,184.06865,58,80,0
183.88435,184.06865,62,80,0
184.07666,184.26096,67,80,0
184.07666,184.45326,59,80,0
184.26897,184.45326,62,80,0
184.46129,184.64557,65,80,0
184.46129,184.83789,60,80,0
184.6536,184.83789,63,80,0
184.8459,185.0302,65,80,0
184.8459,185.2225,57,80,0
185.03821,185.2225,60,80,0
185.23051,185.41481,63,80,0
185.23051,185.60712,58,80,0
185.42282,185.79942,62,80,0
185.61513,185.99173,57,80,0
185.80743,186.37634,60,80,0
185.99974,186.76096,55,80,0
186.38435,187.14557,58,80,0
186.76897,187.53018,48,80,0
187.15358,187.91481,58,80,0
187.53821,188.29942,53,80,0
187.92282,188.29942,57,80,0
189.07666,189.45326,46,80,0
189.26897,189.45326,53,80,0
189.46127,189.83788,50,80,0
189.65358,189.83788,53,80,0
189.84589,190.03018,51,80,0
189.84589,190.22249,48,80,0
190.0382,190.22249,53,80,0
190.2305,190.4148,50,80,0
190.2305,190.6071,46,80,0
190.4228,190.6071,53,80,0
190.80743,190.99173,53,80,0
190.99974,191.18404,53,80,0
191.19205,191.37634,53,80,0
191.38435,191.56865,53,80,0
191.57666,191.76096,53,80,0
191.76897,191.95326,53,80,0
190.61513,192.14557,51,80,0
190.61513,192.14557,45,80,0
191.96127,192.14557,53,80,0
192.15358,192.53018,45,80,0
192.34589,192.53018,53,80,0
192.5382,192.9148,51,80,0
192.7305,192.9148,53,80,0
192.9228,193.29941,50,80,0
193.11511,193.29941,53,80,0
193.30742,193.68402,45,80,0
193.49974,193.68402,53,80,0
193.88435,194.06865,53,80,0
194.07666,194.26096,53,80,0
194.26897,194.45326,53,80,0
194.46127,194.64557,53,80,0
193.69205,194.83788,46,80,0
194.65358,194.83788,53,80,0
194.84589,195.03018,53,80,0
194.84589,195.22249,47,80,0
195.0382,195.22249,53,80,0
195.2305,195.6071,48,80,0
195.4228,195.6071,53,80,0
195.61511,195.99171,45,80,0
195.80742,195.99171,53,80,0
195.99973,196.37633,46,80,0
196.19203,196.37633,53,80,0
196.38434,196.76094,47,80,0
196.57666,196.76094,53,80,0
196.76897,197.14557,48,80,0
196.96127,197.14557,53,80,0
197.15358,197.53018,45,80,0
197.34589,197.53018,53,80,0
197.5382,197.9148,46,80,0
197.7305,197.9148,53,80,0
197.9228,198.29941,44,80,0
198.11511,198.29941,46,80,0
198.30742,198.70438,43,80,0
198.51012,198.70438,46,80,0
198.71283,199.10979,39,80,0
198.91553,199.10979,51,80,0
199.11823,199.53787,41,80,0
199.33252,199.53787,50,80,0
199.5468,199.96645,41,80,0
199.7611,199.96645,45,80,0
199.97537,200.18073,34,80,0
200.40395,200.6093,58,80,0
200.61823,200.8236,58,80,0
200.83252,201.01682,58,80,0
200.18965,201.20912,46,80,0
201.02483,201.20912,58,80,0
201.21713,201.59373,56,80,0
201.40944,201.59373,58,80,0
201.60175,201.97835,55,80,0
201.79405,201.97835,58,80,0
201.98636,202.36296,51,80,0
202.17867,202.36296,63,80,0
202.37097,202.74757,53,80,0
202.56328,202.74757,62,80,0
202.75558,203.13219,53,80,0
202.94789,203.13219,57,80,0
203.1402,203.5168,58,80,0
203.1402,203.5168,46,80,0
203.90944,204.67065,62,95,0
203.90944,204.67065,58,95,0
204.67867,205.8245,60,80,0
204.67867,205.8245,51,80,0
205.8325,206.2091,60,80,0
205.8325,206.2091,53,80,0
206.21712,206.97835,58,80,0
206.21712,206.97835,46,80,0
206.98636,207.74757,58,80,0
206.98636,207.74757,62,80,0
207.75558,208.5168,55,80,0
207.75558,208.5168,52,80,0
208.52481,209.28603,60,80,0
208.52481,209.28603,48,80,0
209.29405,210.14226,60,80,0
209.29405,210.14226,53,80,0
210.15118,210.9994,58,80,0
210.15118,210.9994,62,80,0
211.00833,211.76955,60,80,0
211.00833,211.76955,57,80,0
211.77756,212.53877,53,80,0
211.77756,212.53877,65,80,0
212.54678,213.308,58,80,0
212.54678,213.308,65,80,0
213.31602,214.07724,50,80,0
213.41217,214.07724,58,80,0
213.50833,214.07724,62,81,0
214.08525,214.84647,51,87,0
214.1814,214.84647,58,88,0
214.27756,214.84647,62,89,0
214.85448,215.61569,53,95,0
214.95064,215.61569,58,96,0
215.04678,215.61569,62,97,0
215.6237,216.38493,55,103,0
215.71986,216.38493,58,104,0
215.81601,216.38493,62,105,0
216.39294,216.76955,70,110,0
216.39294,216.76955,65,110,0
216.39294,216.76955,62,110,0
216.77756,217.15416,64,110,0
216.77756,217.15416,67,110,0
216.77756,217.53877,70,110,0
217.16217,217.92339,65,110,0
217.54678,217.92339,69,110,0
217.9314,218.308,67,110,0
217.9314,218.308,62,110,0
217.9314,218.308,58,110,0
218.31601,218.69261,61,110,0
218.31601,219.07722,64,110,0
218.31601,219.07722,67,110,0
218.70062,219.26953,62,110,0
219.08525,219.46185,65,110,0
219.46986,219.84647,55,110,0
219.46986,219.84647,58,110,0
219.46986,219.84647,63,110,0
219.85448,220.23108,57,110,0
219.85448,220.23108,60,110,0
219.85448,220.42339,63,110,0
220.23909,220.61569,58,110,0
220.4314,220.808,62,110,0
220.6237,221.0003,51,110,0
220.81601,221.19261,60,110,0
221.00832,221.38492,53,110,0
221.20062,221.57722,58,110,0
221.39293,221.76953,53,110,0
221.58524,222.15414,57,110,0
221.77754,222.34647,46,110,0
222.16217,222.53877,58,110,0
222.54678,222.92339,53,110,0
222.54678,223.308,46,110,0
222.9314,223.69261,55,110,0
223.31601,224.07722,45,110,0
223.70062,224.07722,57,110,0
224.08524,224.84645,43,110,0
224.46985,225.23106,52,110,0
224.85446,225.61569,41,110,0
225.23909,225.61569,53,110,0
225.6237,226.0003,46,110,0
225.6237,226.38492,39,110,0
226.00832,226.38492,48,110,0
226.39293,226.76953,50,110,0
226.39293,226.76953,38,110,0
226.77754,227.15414,39,80,0
227.16216,227.53876,41,80,0
227.54677,227.92337,29,80,0
227.93138,228.30798,34,80,0
228.31601,229.46184,46,80,0
228.70062,229.46184,50,80,0
229.08524,229.46184,53,80,0
229.46985,231.00029,48,80,0
229.46985,231.00029,46,80,0
229.85446,231.00029,51,80,0
230.23907,231.00029,53,80,0
230.62369,231.00029,57,80,0
231.00832,231.38492,34,80,0
231.39293,232.53876,46,80,0
231.77754,232.53876,50,80,0
232.16216,232.53876,53,80,0
232.54677,234.07721,48,80,0
232.54677,234.07721,46,80,0
232.93138,234.07721,51,80,0
233.316,234.07721,53,80,0
233.7006,234.07721,57,80,0
234.08524,234.46184,34,80,0
234.46985,235.61568,46,81,0
234.85446,235.61568,50,83,0
235.23907,235.61568,53,85,0
235.62369,236.00029,32,87,0
236.0083,237.15413,44,89,0
236.39291,237.15413,50,91,0
236.77753,237.15413,53,93,0
237.16216,237.53876,31,95,0
237.54677,238.6926,43,96,0
237.93138,238.6926,46,98,0
238.316,238.6926,51,100,0
238.7006,238.8849,38,102,0
238.79677,238.98106,41,103,0
238.89291,239.07721,44,103,0
238.98907,239.17337,46,103,0
239.08522,239.26952,50,104,0
239.18138,239.36568,53,104,0
239.27753,239.46182,56,105,0
239.37369,239.55798,58,105,0
240.23907,240.61568,63,80,0
240.43138,240.61568,70,80,0
240.62369,241.00029,67,80,0
240.816,241.00029,70,80,0
241.0083,241.1926,68,80,0
241.0083,241.3849,65,80,0
241.2006,241.3849,70,80,0
241.39291,241.57721,67,80,0
241.39291,241.76952,63,80,0
241.58522,241.76952,70,80,0
241.96983,242.15413,70,80,0
242.16214,242.34644,70,80,0
242.35445,242.53874,70,80,0
242.54675,242.73105,70,80,0
242.73906,242.92336,70,80,0
242.93138,243.11566,70,80,0
241.77753,243.30798,68,80,0
241.77753,243.30798,62,80,0
243.12369,243.30798,70,80,0
243.316,243.6926,62,80,0
243.5083,243.6926,70,80,0
243.7006,244.07721,69,80,0
243.89291,244.07721,70,80,0
244.08522,244.46182,67,80,0
244.27753,244.46182,70,80,0
244.46983,244.84644,62,80,0
244.66214,244.84644,70,80,0
244.85445,245.23105,63,80,0
245.04675,245.23105,70,80,0
245.23906,245.61566,63,80,0
245.43137,245.61566,71,80,0
245.62367,246.00027,63,80,0
245.81598,246.00027,72,80,0
246.59561,246.78987,67,80,0
246.79831,247.19527,63,80,0
247.00102,247.19527,67,80,0
247.20372,247.40907,65,80,0
247.20372,247.62337,62,80,0
247.418,247.62337,67,80,0
247.6323,247.83765,63,80,0
247.6323,248.05193,60,80,0
247.84657,248.05193,67,80,0
248.27515,248.4805,67,80,0
248.48943,248.6948,67,80,0
248.70372,248.90907,67,80,0
248.06087,249.10715,65,80,0
248.06087,249.10715,59,80,0
248.918,249.10715,67,80,0
250.69432,250.88347,67,80,0
250.89168,251.08083,68,80,0
251.08905,251.2782,67,80,0
251.28642,251.47557,65,80,0
251.4838,251.67293,63,80,0
251.68115,251.8703,62,80,0
251.87852,252.06767,60,80,0
252.27327,252.4624,63,80,0
252.47063,252.65977,65,80,0
252.668,252.85715,63,80,0
252.86537,253.05452,62,80,0
253.06273,253.25188,60,80,0
253.2601,253.44925,58,80,0
253.45747,253.64662,57,80,0
253.65485,253.84398,55,80,0
253.8522,254.04135,53,80,0
254.04958,254.23872,51,80,0
254.24695,254.4361,50,80,0
254.44432,254.63345,48,80,0
254.64168,254.83083,46,80,0
254.83905,255.0282,45,80,0
255.03642,255.22557,43,80,0
255.23378,259.17294,41,80,0
259.18115,259.36545,46,80,0
259.37347,259.55774,65,80,0
259.56577,259.94238,62,80,0
259.7581,259.94238,65,80,0
259.95038,260.327,60,80,0
260.1427,260.327,65,80,0
260.335,260.7116,58,80,0
260.5273,260.7116,65,80,0
260.91193,261.09622,65,80,0
261.10422,261.2885,65,80,0
261.29654,261.48083,65,80,0
261.48883,261.67313,65,80,0
261.68115,261.86545,65,80,0
261.87344,262.05774,65,80,0
260.7196,262.25006,63,80,0
260.7196,262.25006,57,80,0
262.06577,262.25006,65,80,0
262.25806,262.63467,57,80,0
262.45038,262.63467,65,80,0
262.6427,263.0193,63,80,0
262.835,263.0193,65,80,0
263.0273,263.4039,62,80,0
263.2196,263.4039,65,80,0
263.41193,263.7885,57,80,0
263.60422,263.7885,65,80,0
263.98883,264.17313,65,80,0
264.18115,264.36545,65,80,0
264.37344,264.55774,65,80,0
264.56577,264.75006,65,80,0
263.79654,264.94235,58,80,0
264.75806,264.94235,65,80,0
264.95038,265.13467,65,80,0
264.95038,265.32697,59,80,0
265.14267,265.32697,65,80,0
265.335,265.7116,60,80,0
265.5273,265.7116,65,80,0
265.7196,266.09622,57,80,0
265.91193,266.09622,65,80,0
266.10422,266.48083,58,80,0
266.29654,266.48083,65,80,0
266.48883,266.86545,58,80,0
266.68115,266.86545,65,80,0
266.87344,267.25006,60,80,0
267.06577,267.25006,65,80,0
267.25806,267.63467,57,80,0
267.45038,267.63467,65,80,0
267.64267,268.0193,58,80,0
267.835,268.0193,62,80,0
268.02728,268.4039,57,80,0
268.2196,268.4039,60,80,0
268.41193,268.7885,55,80,0
268.60422,268.7885,58,80,0
268.79654,269.17313,55,80,0
268.98883,269.17313,58,80,0
269.18115,269.55774,48,80,0
269.37344,269.55774,58,80,0
269.56577,269.94235,48,80,0
269.75806,270.13467,58,80,0
270.14267,270.32697,58,80,0
270.335,270.5193,57,80,0
270.52728,270.71158,55,80,0
269.95038,271.0962,53,80,0
270.7196,271.0962,57,80,0
271.48883,271.86545,46,80,0
271.68115,271.86545,53,80,0
271.87344,272.25006,50,80,0
272.06577,272.25006,53,80,0
272.25806,272.44235,51,80,0
272.25806,272.63467,48,80,0
272.45038,272.63467,53,80,0
272.64267,272.82697,50,80,0
272.64267,273.0193,46,80,0
272.835,273.0193,53,80,0
273.2196,273.4039,53,80,0
273.4119,273.5962,53,80,0
273.60422,273.7885,53,80,0
273.7965,273.9808,53,80,0
273.98883,274.17313,53,80,0
274.18112,274.36542,53,80,0
273.02728,274.55774,51,80,0
273.02728,274.55774,45,80,0
274.37344,274.55774,53,80,0
274.56577,274.94235,45,80,0
274.75806,274.94235,53,80,0
274.95038,275.32697,51,80,0
275.14267,275.32697,53,80,0
275.335,275.71158,50,80,0
275.52728,275.71158,53,80,0
275.7196,276.0962,45,80,0
275.9119,276.0962,53,80,0
276.2965,276.4808,53,80,0
276.48883,276.67313,53,80,0
276.68112,276.86542,53,80,0
276.87344,277.05774,53,80,0
276.10422,277.25003,46,80,0
277.06573,277.25003,53,80,0
277.25806,277.63467,47,80,0
277.45038,277.63467,53,80,0
277.64267,278.0193,48,80,0
277.835,278.0193,53,80,0
278.02728,278.4039,41,80,0
278.2196,278.4039,53,80,0
278.4119,278.7885,46,80,0
278.60422,278.7885,53,80,0
278.7965,279.17313,46,80,0
278.98883,279.17313,53,80,0
279.18112,279.55774,48,80,0
279.37344,279.55774,53,80,0
279.56573,279.94235,41,80,0
279.75806,279.94235,53,80,0
279.95035,280.32697,46,80,0
280.14267,280.32697,53,80,0
280.335,280.71158,44,80,0
280.52728,280.71158,46,80,0
280.7196,281.11655,43,80,0
280.9223,281.11655,46,80,0
281.125,281.52194,39,80,0
281.3277,281.52194,51,80,0
281.5304,281.95004,41,80,0
281.7447,281.95004,50,80,0
281.95898,282.3786,41,80,0
282.17325,282.3786,45,80,0
282.38754,282.5929,34,80,0
282.8161,283.02148,58,80,0
283.0304,283.23575,58,80,0
283.2447,283.429,58,80,0
282.60184,283.62128,46,80,0
283.43698,283.62128,58,80,0
283.6293,284.0059,56,80,0
283.8216,284.0059,58,80,0
284.01392,284.3905,55,80,0
284.20624,284.3905,58,80,0
284.39853,284.77515,51,80,0
284.59085,284.77515,63,80,0
284.78314,285.15976,53,80,0
284.97546,285.15976,62,80,0
285.16776,285.54437,53,80,0
285.36008,285.54437,57,80,0
285.55237,285.929,58,80,0
285.55237,285.929,46,80,0
286.3216,287.12396,65,80,0
286.3216,287.12396,62,80,0
287.13242,287.93478,65,100,0
287.13242,287.93478,63,100,0
287.13242,287.93478,60,100,0
287.94324,288.74557,65,100,0
287.94324,288.74557,62,100,0
287.94324,288.74557,58,100,0
288.75403,289.5564,65,100,0
288.75403,289.5564,60,100,0
288.75403,289.5564,57,100,0
289.56485,290.32605,65,100,0
289.56485,290.32605,56,100,0
289.56485,290.73648,58,100,0
290.33408,290.73648,63,100,0
290.33408,290.73648,55,100,0
290.74503,291.14743,60,100,0
290.74503,291.14743,58,100,0
290.74503,291.14743,52,100,0
291.156,291.55838,53,100,0
291.156,291.55838,58,100,0
291.156,291.55838,62,100,0
291.56696,291.96936,60,100,0
291.56696,291.96936,57,100,0
291.56696,291.96936,53,100,0
291.9779,292.3803,58,100,0
291.9779,292.3803,46,100,0
292.79984,292.97952,62,100,0
292.8936,293.07327,61,100,0
292.98734,293.16702,62,100,0
293.0811,293.26077,61,100,0
293.17484,293.35452,62,100,0
293.2686,293.44827,65,100,0
293.36234,293.54202,63,100,0
293.4561,293.63577,62,100,0
293.54984,293.72952,60,100,0
293.6436,293.82327,59,100,0
293.73734,293.91702,60,100,0
293.8311,294.01077,59,100,0
293.92484,294.10452,60,100,0
294.0186,294.19827,63,100,0
294.11234,294.29202,62,100,0
294.2061,294.38577,60,100,0
294.29984,294.47952,58,100,0
294.3936,294.57327,57,100,0
294.48734,294.66702,58,100,0
294.5811,294.76077,57,100,0
294.67484,294.85452,58,100,0
294.7686,294.94827,62,100,0
294.86234,295.04202,60,100,0
294.9561,295.13577,58,100,0
295.04984,295.22952,57,100,0
295.1436,295.32327,56,100,0
295.23734,295.41702,57,100,0
295.3311,295.51077,56,100,0
295.42484,295.60452,57,100,0
295.5186,295.69827,60,100,0
295.61234,295.79202,58,100,0
295.7061,295.88577,57,100,0
295.79984,295.97952,56,100,0
295.8936,296.07327,55,100,0
295.98734,296.16702,56,100,0
296.0811,296.26077,55,100,0
296.17484,296.35452,56,100,0
296.2686,296.44827,60,100,0
296.36234,296.54202,58,100,0
296.4561,296.63577,56,100,0
296.54984,296.72952,55,100,0
296.6436,296.82327,58,100,0
296.73734,296.91702,57,100,0
296.8311,297.01077,58,100,0
296.92484,297.10452,52,101,0
297.0186,297.19827,58,101,0
297.11234,297.29202,57,101,0
297.2061,297.38577,58,101,0
297.29984,297.47952,53,102,0
297.3936,297.57327,58,102,0
297.48734,297.66702,57,102,0
297.5811,297.76077,58,102,0
297.67484,297.85452,53,103,0
297.7686,297.94827,57,103,0
297.86234,298.04202,56,103,0
297.9561,298.13577,57,103,0
298.04984,298.22952,58,104,0
298.1436,298.32327,60,104,0
298.23734,298.41702,62,104,0
298.3311,298.51077,63,104,0
298.42484,298.60452,65,105,0
298.5186,298.69827,67,105,0
298.61234,298.79202,69,105,0
298.7061,298.88577,70,105,0
298.79984,298.97952,68,106,0
298.8936,299.07327,67,106,0
298.98734,299.16702,65,106,0
299.0811,299.26077,63,106,0
299.17484,299.35452,62,107,0
299.2686,299.44827,60,107,0
299.36234,299.54202,58,107,0
299.4561,299.63577,56,107,0
299.54984,299.72952,55,108,0
299.6436,299.82327,58,108,0
299.73734,299.91702,57,108,0
299.8311,300.01077,58,108,0
299.92484,300.10452,52,109,0
300.0186,300.19827,58,109,0
300.11234,300.29202,57,109,0
300.2061,300.38577,58,109,0
300.29984,300.47952,53,110,0
300.3936,300.57327,58,110,0
300.48734,300.66702,57,110,0
300.5811,300.76077,58,110,0
300.67484,300.85452,53,111,0
300.7686,300.94827,57,111,0
300.86234,301.04202,56,111,0
300.9561,301.13797,57,111,0
301.04984,301.23413,58,112,0
301.14597,301.33026,57,112,0
301.24213,301.42642,55,112,0
301.3383,301.52258,53,112,0
301.43445,301.61874,51,113,0
301.5306,301.7149,50,113,0
301.62674,301.81104,48,113,0
301.7229,301.91074,46,113,0
301.81906,302.0107,44,114,0
301.91907,302.11072,43,114,0
302.01904,302.21072,41,114,0
302.11905,302.31073,39,114,0
302.21906,302.41074,38,115,0
302.31906,302.5107,36,115,0
302.41907,302.61072,34,115,0
302.51904,302.71454,32,115,0
302.61905,302.8187,31,116,0
302.72324,302.92288,43,116,0
302.8274,303.02704,42,116,0
302.93155,303.1312,43,116,0
303.03574,303.23538,30,117,0
303.1399,303.33954,42,117,0
303.24405,303.4437,41,117,0
303.34824,303.5506,43,117,0
303.4524,303.65775,29,118,0
303.55954,303.7649,41,118,0
303.6667,303.87204,40,118,0
303.7738,303.99554,41,118,0
303.88095,304.12054,29,118,0
304.00595,304.24554,41,119,0
304.13095,304.37054,40,119,0
304.25595,304.4792,41,119,0
304.38095,304.8006,34,119,0
305.0238,305.2292,65,80,0
305.2381,305.44345,67,80,0
305.4524,305.65775,65,80,0
305.6667,305.87204,63,80,0
305.88095,306.0863,62,80,0
306.09525,306.3006,60,80,0
306.30954,306.5149,58,80,0
306.5238,306.7292,57,80,0
306.09525,306.94345,53,80,0
306.7381,306.94345,55,80,0
306.9524,307.16693,53,80,0
307.17627,307.3908,51,80,0
307.40015,307.6147,50,80,0
306.9524,307.8386,41,80,0
307.62402,307.8386,48,80,0
307.8479,308.28635,46,80,0
308.51956,308.7341,53,80,0
308.74344,308.95798,55,80,0
308.96732,309.18185,53,80,0
309.1912,309.40573,51,80,0
309.41507,309.62964,50,80,0
309.63895,309.8601,48,80,0
309.86972,310.09088,46,80,0
310.1005,310.32166,45,80,0
309.63895,310.5524,41,80,0
310.33127,310.5524,43,80,0
310.56204,310.78317,41,80,0
310.7928,311.01395,39,80,0
311.02356,311.24472,38,80,0
310.56204,311.4755,29,80,0
311.25433,311.4755,36,80,0
311.4851,311.9514,34,80,0
311.9613,312.45087,60,80,0
311.9613,312.45087,53,80,0
312.4613,312.9954,58,80,0
313.00674,313.89426,53,120,0
313.00674,313.89426,41,120,0
313.90674,315.69424,34,120,0
313.90674,315.69424,46,120,0
