start_time,end_time,note_value,velocity,instrument_program_number
0.0,0.18359375,67,110,0
0.0,0.18359375,64,110,0
0.0,0.18359375,59,110,0
0.0,0.18359375,55,110,0
0.375,0.93359375,67,110,0
0.375,1.1210938,64,110,0
0.375,1.1210938,59,110,0
0.375,1.1210938,55,110,0
0.9375,1.1210938,66,110,0
1.125,1.3085938,64,110,0
1.125,1.3085938,52,110,0
1.5,1.6835938,69,110,0
1.5,1.6835938,66,110,0
1.5,1.6835938,57,110,0
2.25,2.6330638,69,80,0
2.25,2.6330638,66,80,0
2.637096,3.2137077,69,80,0
2.637096,3.2137077,66,80,0
3.21774,3.4072556,67,80,0
3.411288,3.7943518,69,80,0
3.411288,3.7943518,66,80,0
3.798384,4.181448,71,80,0
3.798384,4.181448,67,80,0
4.572576,4.75617,71,110,0
4.572576,4.75617,67,110,0
4.572576,4.75617,62,110,0
4.572576,4.75617,59,110,0
4.947576,5.50617,71,110,0
4.947576,5.69367,67,110,0
4.947576,5.69367,62,110,0
4.947576,5.69367,59,110,0
5.510076,5.69367,69,110,0
5.697576,5.88117,67,110,0
5.697576,5.88117,59,110,0
6.072576,6.25617,73,110,0
6.072576,6.25617,70,110,0
6.072576,6.25617,61,110,0
6.822576,7.20564,73,80,0
6.822576,7.20564,70,80,0
7.209672,7.786284,73,80,0
7.209672,7.786284,70,80,0
7.790316,7.9798317,71,80,0
7.983864,8.366928,73,80,0
7.983864,8.366928,70,80,0
8.37096,8.754024,74,80,0
8.37096,8.754024,71,80,0
9.145152,9.915312,74,80,0
9.919344,10.302408,79,80,0
10.30644,10.689504,76,80,0
10.693536,11.0766,74,80,0
11.080632,11.463696,72,80,0
11.467728,12.237887,72,80,0
12.24192,12.624984,81,80,0
12.629016,13.399176,72,80,0
13.403208,13.786272,71,80,0
13.790304,14.560464,71,80,0
14.564496,14.947559,67,80,0
14.951592,15.748171,67,79,0
15.752481,16.161964,64,75,0
16.166273,17.036797,64,73,0
18.16981,21.154184,59,70,0
18.16981,21.154184,51,70,0
21.16981,22.133516,76,80,0
21.16981,22.133516,88,80,0
22.137548,22.327065,87,80,0
22.137548,22.327065,75,80,0
22.331097,22.71416,88,80,0
22.331097,22.71416,76,80,0
22.718193,23.488352,66,80,0
22.718193,23.488352,64,80,0
22.718193,23.488352,60,80,0
23.492386,23.875448,66,85,0
23.492386,23.875448,64,85,0
23.492386,23.875448,61,85,0
23.87948,24.456093,66,88,0
24.460125,24.649641,67,92,0
24.653673,24.84319,69,93,0
23.87948,25.036737,57,88,0
23.87948,25.036737,63,88,0
24.847221,25.036737,67,94,0
25.04077,25.423832,66,80,0
25.427864,25.810928,64,80,0
25.81496,26.77867,76,80,0
25.81496,26.77867,88,80,0
26.782701,26.972218,87,97,0
26.782701,26.972218,75,97,0
26.97625,27.359312,88,100,0
26.97625,27.359312,76,100,0
27.363344,28.133505,66,101,0
27.363344,28.133505,64,101,0
27.363344,28.133505,60,101,0
28.137537,28.561644,66,80,0
28.137537,28.561644,64,80,0
28.137537,28.561644,61,80,0
28.566109,29.359858,66,80,0
29.366108,29.659859,69,80,0
29.666107,29.959858,67,80,0
28.566109,30.333296,63,80,0
28.566109,30.333296,57,80,0
29.966108,30.333296,66,80,0
30.341108,31.33069,64,80,0
30.341108,31.33069,55,80,0
32.341106,32.765213,71,70,0
32.341106,32.765213,59,70,0
32.76968,33.569344,71,70,0
32.76968,33.569344,59,70,0
33.57325,33.944344,76,72,0
33.57325,33.944344,64,72,0
33.94825,34.694344,76,73,0
33.94825,34.694344,64,73,0
34.69825,35.069344,83,75,0
34.69825,35.069344,71,75,0
35.07325,35.819344,83,76,0
35.07325,35.819344,71,76,0
35.82325,36.194344,88,78,0
35.82325,36.194344,76,78,0
36.19825,36.944344,88,79,0
36.19825,36.944344,76,79,0
36.94825,37.131844,89,110,0
36.94825,37.131844,86,110,0
36.94825,37.131844,83,110,0
36.94825,37.131844,77,110,0
37.32325,37.881844,89,110,0
37.32325,37.881844,86,110,0
37.32325,37.881844,83,110,0
37.32325,37.881844,77,110,0
37.88575,38.045906,88,110,0
37.9795,38.143562,86,110,0
38.07325,38.233406,84,110,0
38.167,38.327156,83,110,0
38.26075,38.432625,81,110,0
38.3545,38.52247,79,110,0
38.44825,38.608406,77,110,0
38.542,38.702156,76,110,0
38.63575,38.795906,74,110,0
38.7295,38.889656,72,110,0
38.82325,38.944344,71,110,0
38.88575,39.002937,69,110,0
38.94825,39.06153,67,110,0
39.01075,39.131844,65,110,0
39.07325,39.18653,64,110,0
39.13575,39.256844,62,110,0
39.19825,39.32325,60,110,0
39.27247,39.401375,59,110,0
39.346687,39.4795,57,110,0
39.420906,39.55372,55,110,0
39.495125,39.569344,54,110,0
39.57325,39.756844,55,110,0
40.32325,40.506844,65,80,0
40.32325,40.506844,62,80,0
40.32325,40.506844,55,80,0
40.69825,40.881844,64,80,0
40.69825,40.881844,60,80,0
40.69825,40.881844,55,80,0
41.44825,41.631844,86,110,0
41.44825,41.631844,83,110,0
41.44825,41.631844,80,110,0
41.44825,41.631844,74,110,0
41.82325,42.381844,86,110,0
41.82325,42.381844,83,110,0
41.82325,42.381844,80,110,0
41.82325,42.381844,74,110,0
42.38575,42.542,84,110,0
42.4795,42.643562,83,110,0
42.57325,42.745125,81,110,0
42.667,42.84278,80,110,0
42.76075,42.920906,78,110,0
42.8545,43.02247,76,110,0
42.94825,43.11622,74,110,0
43.042,43.202156,72,110,0
43.13575,43.295906,71,110,0
43.2295,43.38575,69,110,0
43.32325,43.43653,68,110,0
43.38575,43.506844,66,110,0
43.44825,43.569344,64,110,0
43.51075,43.627937,62,110,0
43.57325,43.694344,60,110,0
43.63575,43.7295,59,110,0
43.69825,43.819344,57,110,0
43.77247,43.901375,56,110,0
43.846687,43.963875,54,110,0
43.920906,44.049812,52,110,0
43.995125,44.069344,51,110,0
44.07325,44.444344,52,110,0
44.82325,45.006844,62,110,0
44.82325,45.006844,59,110,0
44.82325,45.006844,52,110,0
45.19825,45.40807,60,110,0
45.19825,45.40807,57,110,0
45.19825,45.40807,52,110,0
46.055393,46.4795,82,80,0
46.483963,47.122356,82,80,0
47.12682,47.332176,81,80,0
47.233963,47.421463,79,80,0
47.341106,47.528606,77,80,0
47.448246,47.65807,75,80,0
47.55539,47.747356,74,80,0
47.662533,47.854496,72,80,0
47.769676,47.957176,70,80,0
47.87682,48.06432,69,80,0
47.983963,48.175926,67,80,0
48.091103,48.28307,65,80,0
48.198246,48.43039,63,80,0
48.341103,48.582176,62,80,0
48.48396,48.698246,60,80,0
48.62682,49.050926,58,80,0
49.05539,51.136936,58,80,0
51.1411,51.536934,67,80,0
51.541103,52.287197,67,80,0
52.291103,52.662197,73,80,0
52.291103,52.662197,67,80,0
52.666103,53.412197,73,80,0
52.666103,53.412197,67,80,0
53.416103,53.787197,79,95,0
53.416103,53.787197,76,95,0
53.416103,53.787197,73,95,0
53.791103,54.537197,79,97,0
54.541103,54.912197,78,102,0
53.791103,55.662197,73,97,0
53.791103,55.662197,76,97,0
54.916103,55.662197,77,104,0
55.666103,56.037197,78,109,0
55.666103,56.037197,76,109,0
55.666103,56.037197,73,109,0
56.041103,57.162197,78,110,0
56.041103,57.162197,74,110,0
56.041103,57.162197,71,110,0
57.166103,58.287197,83,110,0
57.166103,58.287197,78,110,0
57.166103,58.287197,71,110,0
58.291103,58.474697,71,110,0
58.291103,58.474697,66,110,0
58.666103,58.849697,72,110,0
58.666103,58.849697,60,110,0
59.416103,59.599697,72,110,0
59.416103,59.599697,67,110,0
59.791103,59.974697,75,110,0
59.791103,59.974697,63,110,0
60.541103,60.724697,75,110,0
60.541103,60.724697,69,110,0
60.916103,61.099697,76,110,0
60.916103,61.099697,64,110,0
61.666103,61.849697,76,110,0
61.666103,61.849697,71,110,0
62.041103,62.224697,77,110,0
62.041103,62.224697,65,110,0
62.791103,62.974697,76,70,0
62.791103,62.974697,71,70,0
62.791103,62.974697,68,70,0
62.978603,63.162197,77,70,0
62.978603,63.162197,71,70,0
62.978603,63.162197,68,70,0
63.166103,63.349697,77,70,0
63.166103,63.349697,71,70,0
63.166103,63.349697,68,70,0
63.353603,63.537197,77,70,0
63.353603,63.537197,71,70,0
63.353603,63.537197,68,70,0
63.541103,63.724697,77,70,0
63.541103,63.724697,71,70,0
63.541103,63.724697,68,70,0
63.728603,63.912197,77,70,0
63.728603,63.912197,71,70,0
63.728603,63.912197,68,70,0
63.916103,64.09969,77,70,0
63.916103,64.09969,71,70,0
63.916103,64.09969,68,70,0
64.1036,64.28719,77,76,0
64.1036,64.28719,71,76,0
64.1036,64.28719,68,76,0
64.2911,64.47469,77,82,0
64.2911,64.47469,71,82,0
64.2911,64.47469,68,82,0
64.4786,64.66219,77,88,0
64.4786,64.66219,71,88,0
64.4786,64.66219,68,88,0
64.6661,64.84969,77,94,0
64.6661,64.84969,71,94,0
64.6661,64.84969,68,94,0
64.8536,65.03719,77,100,0
64.8536,65.03719,71,100,0
64.8536,65.03719,68,100,0
65.0411,65.26707,90,120,0
65.0411,65.26707,88,120,0
65.0411,65.26707,85,120,0
65.0411,65.26707,82,120,0
65.0411,65.26707,78,120,0
65.27187,65.47446,91,120,0
65.27187,65.47446,88,120,0
65.27187,65.47446,85,120,0
65.27187,65.47446,82,120,0
65.27187,65.47446,79,120,0
65.47877,65.66236,91,120,0
65.47877,65.66236,88,120,0
65.47877,65.66236,85,120,0
65.47877,65.66236,82,120,0
65.47877,65.66236,79,120,0
65.66627,65.84986,91,120,0
65.66627,65.84986,88,120,0
65.66627,65.84986,85,120,0
65.66627,65.84986,82,120,0
65.66627,65.84986,79,120,0
65.85377,66.03736,91,120,0
65.85377,66.03736,88,120,0
65.85377,66.03736,85,120,0
65.85377,66.03736,82,120,0
65.85377,66.03736,79,120,0
66.04127,66.22486,91,120,0
66.04127,66.22486,88,120,0
66.04127,66.22486,85,120,0
66.04127,66.22486,82,120,0
66.04127,66.22486,79,120,0
66.22877,66.4246,91,115,0
66.22877,66.4246,88,115,0
66.22877,66.4246,85,115,0
66.22877,66.4246,82,115,0
66.22877,66.4246,79,115,0
66.428764,66.6246,91,111,0
66.428764,66.6246,88,111,0
66.428764,66.6246,85,111,0
66.428764,66.6246,82,111,0
66.428764,66.6246,79,111,0
66.62877,66.84636,91,106,0
66.62877,66.84636,88,106,0
66.62877,66.84636,85,106,0
66.62877,66.84636,82,106,0
66.62877,66.84636,79,106,0
66.85099,67.06858,91,101,0
66.85099,67.06858,88,101,0
66.85099,67.06858,85,101,0
66.85099,67.06858,82,101,0
66.85099,67.06858,79,101,0
67.07321,67.318,91,96,0
67.07321,67.318,88,96,0
67.07321,67.318,85,96,0
67.07321,67.318,82,96,0
67.07321,67.318,79,96,0
67.32321,67.61696,91,91,0
67.32321,67.61696,88,91,0
67.32321,67.61696,85,91,0
67.32321,67.61696,82,91,0
67.32321,67.61696,79,91,0
67.623215,68.05055,91,80,0
67.623215,68.05055,79,80,0
68.05446,69.17555,78,80,0
68.05446,69.17555,90,80,0
69.17946,70.30055,71,80,0
69.17946,70.30055,83,80,0
70.30446,71.42555,66,80,0
70.30446,71.42555,78,80,0
71.42946,72.17555,59,80,0
71.42946,72.55055,71,80,0
72.55446,72.92555,67,80,0
72.92946,73.30055,66,80,0
73.30446,74.05055,66,80,0
74.05446,74.42555,70,80,0
74.61696,74.80055,79,80,0
74.80446,75.36305,91,80,0
75.36696,75.55055,90,80,0
75.74196,75.92555,90,80,0
75.92946,76.48805,85,80,0
76.49196,76.67555,83,80,0
76.86696,77.05055,83,80,0
77.05446,77.61305,79,80,0
77.61696,77.80055,78,80,0
77.99196,78.17555,78,80,0
78.17946,78.73805,73,80,0
78.74196,78.92555,71,80,0
78.92946,79.30055,71,80,0
79.30446,79.67555,67,80,0
79.67946,80.05055,66,80,0
80.05446,80.21766,66,80,0
80.22113,80.38432,62,80,0
80.387794,80.55099,59,80,0
80.55446,80.71766,55,80,0
80.72113,80.88432,54,80,0
80.887794,81.05099,58,80,0
81.05446,81.38432,59,110,0
82.05446,83.17555,59,110,0
82.05446,83.17555,55,110,0
83.17946,83.92555,60,80,0
83.17946,84.30055,55,80,0
83.92946,85.05055,67,80,0
84.30446,85.42555,64,80,0
84.30446,85.42555,61,80,0
84.30446,85.42555,58,80,0
85.05446,85.42555,66,80,0
85.42946,85.80055,59,80,0
85.42946,85.80055,66,80,0
85.42946,85.80055,62,80,0
86.55446,87.67555,59,80,0
86.55446,87.67555,55,80,0
87.67946,88.42555,60,80,0
87.67946,88.80055,55,80,0
88.42946,89.55055,67,80,0
88.80446,89.92555,64,80,0
88.80446,89.92555,61,80,0
88.80446,89.92555,58,80,0
89.55446,89.92555,66,80,0
90.67946,91.80055,67,80,0
91.05446,92.17555,62,79,0
91.05446,92.17555,59,79,0
91.80446,92.17555,66,77,0
92.92946,94.05055,67,74,0
93.30446,94.42555,64,73,0
93.30446,94.42555,61,73,0
94.05446,94.42555,70,71,0
94.42946,94.80055,71,70,0
94.42946,94.80055,62,70,0
94.42946,94.80055,59,70,0
95.55446,95.92555,71,70,0
95.55446,95.92555,62,70,0
95.55446,95.92555,59,70,0
96.67946,97.05055,71,70,0
96.67946,97.05055,62,70,0
96.67946,97.05055,59,70,0
97.80446,98.92555,71,70,0
98.92946,100.05055,71,70,0
100.05446,100.80055,71,70,0
100.80446,100.98805,71,80,0
100.80446,101.17555,81,80,0
100.99196,101.17555,71,80,0
101.17946,101.36305,71,80,0
101.36696,101.55055,71,80,0
101.17946,101.73805,81,80,0
101.55446,101.73805,71,80,0
101.74196,101.92555,71,80,0
101.74196,101.92555,79,80,0
101.92946,102.11305,71,80,0
101.92946,102.11305,78,80,0
102.11696,102.30055,71,80,0
102.30446,102.48805,71,80,0
102.30446,102.67555,83,80,0
102.30446,102.67555,79,80,0
102.49196,102.67555,71,80,0
102.67946,102.86305,71,80,0
102.86696,103.05055,71,80,0
103.05446,103.23805,71,80,0
103.05446,103.42555,83,80,0
103.05446,103.42555,79,80,0
103.24196,103.42555,71,80,0
103.42946,103.61305,71,80,0
103.61696,103.80055,71,80,0
103.42946,103.98805,83,80,0
103.42946,103.98805,80,80,0
103.80446,103.98805,71,80,0
103.99196,104.17555,71,80,0
103.99196,104.17555,81,80,0
104.17946,104.36305,71,80,0
104.17946,104.36305,83,80,0
104.17946,104.36305,80,80,0
104.36696,104.55055,71,80,0
104.55446,104.92555,84,80,0
104.55446,104.92555,81,80,0
104.55446,104.92555,72,80,0
105.30446,105.67555,84,80,0
105.30446,105.67555,72,80,0
105.67946,106.23805,84,83,0
105.67946,106.23805,72,83,0
106.24196,106.42555,83,87,0
106.24196,106.42555,71,87,0
106.42946,106.61305,81,89,0
106.42946,106.61305,69,89,0
106.80446,107.17555,86,92,0
106.80446,107.17555,74,92,0
107.55446,107.92555,86,98,0
107.55446,107.92555,74,98,0
107.92946,108.48805,86,102,0
107.92946,108.48805,74,102,0
108.49196,108.67555,84,106,0
108.49196,108.67555,72,106,0
108.67946,108.86305,86,108,0
108.67946,108.86305,74,108,0
109.05446,109.61305,87,110,0
109.05446,109.61305,75,110,0
109.61696,109.80055,86,110,0
109.61696,109.80055,74,110,0
109.80446,109.98805,87,110,0
109.80446,109.98805,75,110,0
110.17946,110.73805,63,110,0
110.74196,110.92555,62,110,0
110.92946,111.11305,63,110,0
111.30446,111.86305,66,110,0
111.30446,111.86305,63,110,0
111.86696,112.05055,65,110,0
111.86696,112.05055,62,110,0
112.05446,112.23805,66,110,0
112.05446,112.23805,63,110,0
112.42946,112.98805,78,110,0
112.42946,112.98805,75,110,0
112.99196,113.17555,77,110,0
112.99196,113.17555,74,110,0
113.17946,113.36305,78,110,0
113.17946,113.36305,75,110,0
113.55446,114.11305,84,110,0
113.55446,114.11305,72,110,0
114.11696,114.30055,83,110,0
114.11696,114.30055,71,110,0
114.30446,114.48805,84,110,0
114.30446,114.48805,72,110,0
114.67946,115.23805,57,110,0
115.24196,115.42555,56,110,0
115.42946,115.61305,57,110,0
115.80446,116.36305,90,110,0
115.80446,116.36305,78,110,0
116.36696,116.55055,89,110,0
116.36696,116.55055,77,110,0
116.55446,116.73805,78,110,0
116.55446,116.73805,90,110,0
116.92946,117.48805,72,110,0
116.92946,117.48805,69,110,0
116.92946,117.48805,66,110,0
117.49196,117.67555,71,110,0
117.49196,117.67555,69,110,0
117.49196,117.67555,66,110,0
117.67946,117.86305,72,110,0
117.67946,117.86305,69,110,0
117.67946,117.86305,66,110,0
118.05446,118.42555,71,110,0
118.05446,118.42555,68,110,0
118.05446,118.42555,65,110,0
118.61696,118.80055,77,80,0
118.61696,118.80055,71,80,0
118.61696,118.80055,68,80,0
118.80446,119.17555,76,80,0
118.80446,119.17555,72,80,0
118.80446,119.17555,67,80,0
119.17946,119.55055,75,80,0
119.17946,119.55055,69,80,0
119.17946,119.55055,66,80,0
119.74196,119.92555,75,80,0
119.74196,119.92555,69,80,0
119.74196,119.92555,66,80,0
119.92946,120.30055,74,80,0
119.92946,120.30055,71,80,0
119.92946,120.30055,65,80,0
120.30446,120.67555,73,80,0
120.30446,120.67555,67,80,0
120.30446,120.67555,64,80,0
120.86696,121.05055,72,80,0
120.86696,121.05055,67,80,0
120.86696,121.05055,63,80,0
121.05446,121.42555,71,80,0
121.05446,121.42555,67,80,0
121.05446,121.42555,62,80,0
121.42946,121.61305,70,80,0
121.42946,121.61305,64,80,0
121.42946,121.61305,61,80,0
121.80446,121.98805,69,80,0
121.80446,121.98805,64,80,0
121.80446,121.98805,61,80,0
122.17946,122.36305,68,80,0
122.17946,122.36305,63,80,0
122.17946,122.36305,61,80,0
122.55446,122.73805,67,80,0
122.92946,123.11305,66,82,0
123.30446,123.48805,65,84,0
123.67946,123.86305,64,87,0
124.05446,124.23805,63,89,0
124.42946,124.61305,62,92,0
124.80446,124.98805,61,94,0
125.17946,125.36305,60,97,0
125.55446,125.73805,59,99,0
125.92946,126.11305,58,95,0
126.30446,126.48805,57,90,0
126.67946,126.87529,56,84,0
127.07946,127.28928,56,80,0
127.29375,127.50356,55,80,0
127.50803,129.16101,67,80,0
129.16518,129.961,67,80,0
129.96518,130.36101,72,80,0
130.36517,130.761,69,80,0
130.76517,131.13626,67,80,0
131.14017,131.51126,65,80,0
131.51517,132.26126,65,80,0
132.26517,132.63626,74,80,0
132.64017,133.38626,65,80,0
133.39017,133.76126,64,80,0
133.76517,133.92532,64,80,0
133.85892,134.04251,67,80,0
133.95267,134.12454,72,80,0
134.04642,134.21048,76,80,0
134.14017,134.29642,77,80,0
134.23392,134.39407,72,80,0
134.32767,134.49564,69,80,0
134.42142,134.57767,65,80,0
134.51517,134.68314,69,80,0
134.60892,134.78079,72,80,0
134.70267,134.88235,77,80,0
134.79642,134.96829,81,80,0
134.89017,134.96829,81,80,0
134.98392,135.14798,74,80,0
135.07767,135.24954,81,80,0
135.17142,135.33548,86,80,0
135.26517,135.44876,81,80,0
135.35892,135.5347,74,80,0
135.45267,135.63626,81,80,0
135.54642,135.71829,82,80,0
135.64017,135.81595,79,80,0
135.73392,135.90579,74,80,0
135.82767,136.01126,79,80,0
135.92142,136.08939,82,80,0
136.01517,136.18704,79,80,0
136.10892,136.27689,73,80,0
136.20267,136.37845,79,80,0
136.29642,136.46048,82,80,0
136.39017,136.55814,79,80,0
136.48392,136.64798,72,80,0
136.57767,136.74954,79,80,0
136.67142,136.83939,82,80,0
136.76517,136.93314,76,80,0
136.85892,137.03079,72,80,0
136.95267,137.12064,76,80,0
137.04642,137.21439,79,80,0
137.14017,137.21439,79,80,0
137.23392,137.40579,76,80,0
137.32767,137.49564,79,80,0
137.42142,137.59329,84,80,0
137.51517,137.67532,79,80,0
137.60892,137.77298,76,80,0
137.70267,137.88626,79,80,0
137.79642,137.96048,84,80,0
137.89017,138.06595,81,80,0
137.98392,138.15189,77,80,0
138.07767,138.25735,81,80,0
138.17142,138.33939,84,80,0
138.26517,138.43314,81,80,0
138.35892,138.51907,77,80,0
138.45267,138.62454,81,80,0
138.54642,138.7222,84,80,0
138.64017,138.81204,81,80,0
138.73392,138.9097,77,81,0
138.82767,138.99954,81,81,0
138.92142,139.08939,86,81,0
139.01517,139.17923,81,81,0
139.10892,139.27298,77,82,0
139.20267,139.38235,81,82,0
139.29642,139.4722,86,82,0
139.39017,139.55032,82,82,0
139.48392,139.65579,77,83,0
139.57767,139.74564,82,83,0
139.67142,139.8472,86,83,0
139.76517,139.94095,83,83,0
139.85892,140.0347,78,83,0
139.95267,140.11673,83,84,0
140.04642,140.21439,86,84,0
140.14017,140.31595,83,84,0
140.23392,140.40579,76,84,0
140.32767,140.49564,83,85,0
140.42142,140.5972,86,85,0
140.51517,140.67923,83,85,0
140.60892,140.77689,76,85,0
140.70267,140.87454,83,86,0
140.79642,140.95267,86,86,0
140.89017,141.05423,83,86,0
140.98392,141.15189,76,86,0
141.07767,141.23782,83,87,0
141.17142,141.3511,86,87,0
141.26517,141.43314,83,87,0
141.35892,141.53079,76,87,0
141.45267,141.61673,83,87,0
141.54642,141.71829,86,88,0
141.64017,141.81204,83,88,0
141.73392,141.9136,76,88,0
141.82767,141.99954,83,88,0
141.92142,142.08548,86,89,0
142.01517,142.18704,83,89,0
142.10892,142.2847,76,89,0
142.20267,142.37845,83,89,0
142.29642,142.4722,84,90,0
142.39017,142.56595,81,90,0
142.48392,142.6597,76,90,0
142.57767,142.75345,81,90,0
142.67142,142.85501,84,90,0
142.76517,142.93704,81,91,0
142.85892,143.03079,76,91,0
142.95267,143.11282,81,91,0
143.04642,143.2222,84,91,0
143.14017,143.30814,81,92,0
143.23392,143.39407,74,92,0
143.32767,143.49173,81,92,0
143.42142,143.58548,83,92,0
143.51517,143.67142,80,93,0
143.60892,143.7847,74,93,0
143.70267,143.88235,80,93,0
143.79642,143.96048,83,93,0
143.89017,144.05814,80,94,0
143.98392,144.14798,74,94,0
144.07767,144.25345,80,94,0
144.17142,144.32767,83,94,0
144.26517,144.43314,80,94,0
144.35892,144.51517,74,95,0
144.45267,144.62064,80,95,0
144.54642,144.71439,83,95,0
144.64017,144.81204,80,95,0
144.73392,144.89798,81,96,0
144.82767,144.98782,72,96,0
144.92142,145.08157,81,96,0
145.01517,145.17532,80,96,0
145.10892,145.27689,81,97,0
145.20267,145.38626,72,97,0
145.29642,145.48001,81,97,0
145.39017,145.48001,81,97,0
145.48392,145.6636,71,98,0
145.57767,145.74173,81,98,0
145.67142,145.84329,83,98,0
145.76517,145.94095,81,98,0
145.85892,146.03079,71,98,0
145.95267,146.12064,81,99,0
146.04642,146.21439,83,99,0
146.14017,146.31595,81,99,0
146.23392,146.39798,71,99,0
146.32767,146.49173,81,100,0
146.42142,146.60501,83,100,0
146.51517,146.69876,81,100,0
146.60892,146.78079,71,100,0
146.70267,146.87454,81,101,0
146.79642,146.9722,83,101,0
146.89017,147.05814,81,101,0
146.98392,147.15579,71,101,0
147.07767,147.25345,81,101,0
147.17142,147.34329,83,102,0
147.26517,147.42923,81,102,0
147.35892,147.51907,71,102,0
147.45267,147.62454,81,102,0
147.54642,147.73001,83,103,0
147.64017,147.81204,81,103,0
147.73392,147.91751,71,103,0
147.82767,147.99564,81,103,0
147.92142,148.1011,83,104,0
148.01517,148.18314,81,104,0
148.10892,148.29251,71,104,0
148.20267,148.37454,81,104,0
148.29642,148.4722,83,105,0
148.39017,148.56985,81,105,0
148.48392,148.66751,71,105,0
148.57767,148.76126,81,105,0
148.67142,148.84329,83,105,0
148.76517,148.94095,79,106,0
148.85892,149.0347,71,106,0
148.95267,149.12454,79,106,0
149.04642,149.21439,83,106,0
149.14017,149.31985,79,107,0
149.23392,149.4097,71,107,0
149.32767,149.48782,79,107,0
149.42142,149.59329,83,107,0
149.51517,149.59329,83,108,0
149.60892,149.77689,76,108,0
149.70267,149.87845,83,108,0
149.79642,149.95267,88,108,0
149.89017,150.05814,84,108,0
149.98392,150.14798,76,109,0
150.07767,150.24954,84,109,0
150.17142,150.3511,88,109,0
150.26517,150.42923,84,109,0
150.35892,150.53079,76,110,0
150.45267,150.62454,84,110,0
150.54642,150.7222,88,110,0
150.64017,150.80814,84,110,0
150.73392,150.90579,76,111,0
150.82767,150.99564,84,111,0
150.92142,151.09329,88,111,0
151.01517,151.18704,85,111,0
151.10892,151.27298,79,112,0
151.20267,151.37845,85,112,0
151.29642,151.46439,88,112,0
151.39017,151.56204,85,112,0
151.48392,151.6636,79,112,0
151.57767,151.75345,85,113,0
151.67142,151.83939,88,113,0
151.76517,151.93314,85,113,0
151.85892,152.03079,79,113,0
151.95267,152.12454,85,114,0
152.04642,152.23001,88,114,0
152.14017,152.31985,83,114,0
152.23392,152.41751,79,114,0
152.32767,152.49564,83,115,0
152.42142,152.5972,88,115,0
152.51517,152.67532,91,115,0
152.60892,152.78079,90,115,0
152.70267,152.88235,88,116,0
152.79642,152.9722,87,116,0
152.89017,153.05814,88,116,0
152.98392,153.1597,87,116,0
153.07767,153.24564,88,116,0
153.17142,153.34329,90,117,0
153.26517,153.43704,91,117,0
153.35892,153.52689,90,117,0
153.45267,153.63235,88,117,0
153.54642,153.71048,87,118,0
153.64017,153.80814,91,118,0
153.73392,153.89798,90,118,0
153.82767,154.00345,88,118,0
153.92142,154.08548,87,119,0
154.01517,154.18704,91,119,0
154.10892,154.27689,90,119,0
154.20267,154.37845,88,119,0
154.29642,154.38626,87,119,0
154.39017,154.48001,91,120,0
154.48392,154.57376,90,120,0
154.57767,154.66751,88,120,0
154.67142,154.76126,87,120,0
154.76517,154.94876,88,120,0
155.51517,155.69876,91,80,0
155.70267,155.88626,90,80,0
155.89017,156.07376,88,80,0
156.07767,156.26126,87,80,0
156.26517,156.63626,88,80,0
156.64017,157.01126,91,80,0
157.01517,157.38626,90,80,0
157.39017,157.76126,88,80,0
157.76517,158.13626,87,80,0
158.14017,158.51126,88,80,0
158.89017,159.63626,91,79,0
159.64017,160.38626,90,77,0
160.39017,160.76126,88,76,0
161.14017,161.88626,67,75,0
161.89017,162.07376,66,73,0
162.07767,162.26126,64,73,0
162.26517,162.63626,64,73,0
163.76517,164.11444,67,70,0
164.11812,164.29091,66,70,0
164.29459,164.46738,64,70,0
164.47105,164.63425,64,70,0
164.97105,165.13425,67,80,0
165.13773,165.30092,66,82,0
165.30438,165.46758,64,85,0
165.62105,165.76793,91,90,0
165.77106,165.91792,90,92,0
165.92105,166.06793,88,95,0
166.22105,166.36794,67,100,0
166.37105,166.51793,66,103,0
166.52106,166.66792,64,105,0
166.97105,167.15465,67,110,0
167.34605,167.90465,67,110,0
167.34605,168.09215,64,110,0
167.34605,168.09215,59,110,0
167.34605,168.09215,55,110,0
167.90855,168.09215,66,110,0
168.09605,168.27965,64,110,0
168.09605,168.27965,55,110,0
168.47105,168.65465,69,110,0
168.47105,168.65465,66,110,0
168.47105,168.65465,57,110,0
169.22105,169.60411,69,80,0
169.22105,169.60411,66,80,0
169.60815,170.18477,69,80,0
169.60815,170.18477,66,80,0
170.1888,170.37831,67,80,0
170.38234,170.76541,69,80,0
170.38234,170.76541,66,80,0
170.76944,171.1525,71,80,0
170.76944,171.1525,67,80,0
171.54362,171.72722,71,110,0
171.54362,171.72722,67,110,0
171.54362,171.72722,62,110,0
171.54362,171.72722,59,110,0
171.91862,172.47722,71,110,0
171.91862,172.66472,67,110,0
171.91862,172.66472,62,110,0
171.91862,172.66472,59,110,0
172.48112,172.66472,69,110,0
172.66862,172.85222,67,110,0
172.66862,172.85222,59,110,0
173.04362,173.22722,73,110,0
173.04362,173.22722,70,110,0
173.04362,173.22722,61,110,0
173.79362,174.1767,73,80,0
173.79362,174.1767,70,80,0
174.18073,174.75734,73,80,0
174.18073,174.75734,70,80,0
174.76137,174.95088,71,80,0
174.95491,175.33798,73,80,0
174.95491,175.33798,70,80,0
175.34201,175.72508,74,80,0
175.34201,175.72508,71,80,0
176.11621,176.88637,74,80,0
176.8904,177.27347,79,80,0
177.2775,177.66055,76,80,0
177.6646,178.04765,74,80,0
178.05168,178.43475,72,80,0
178.43878,179.20894,72,80,0
179.21297,179.59604,81,80,0
179.60007,180.37022,72,80,0
180.37427,180.75732,71,80,0
180.76135,181.53152,71,80,0
181.53555,181.91861,67,80,0
181.92264,182.69281,67,80,0
182.69684,183.12094,64,80,0
183.12541,184.04877,64,80,0
185.22064,188.20502,59,80,0
185.22064,188.20502,51,80,0
188.22064,189.21648,76,80,0
188.22064,189.21648,88,80,0
189.22064,189.41647,87,85,0
189.22064,189.41647,75,85,0
189.42064,189.81648,88,86,0
189.42064,189.81648,76,86,0
189.82065,190.61649,66,88,0
189.82065,190.61649,64,88,0
189.82065,190.61649,60,88,0
190.62065,191.01648,66,93,0
190.62065,191.01648,64,93,0
190.62065,191.01648,61,93,0
191.02065,191.61649,66,95,0
191.62065,191.81648,67,98,0
191.82065,192.01648,69,99,0
191.02065,192.21648,57,95,0
191.02065,192.21648,63,95,0
192.02065,192.21648,67,100,0
192.22064,192.61649,66,80,0
192.62065,193.01648,64,80,0
193.02065,194.01648,76,80,0
193.02065,194.01648,88,80,0
194.02065,194.21648,87,80,0
194.02065,194.21648,75,80,0
194.22064,194.61649,88,80,0
194.22064,194.61649,76,80,0
194.62065,195.47333,66,80,0
194.62065,195.47333,64,80,0
194.62065,195.47333,60,80,0
195.47778,195.9019,66,80,0
195.47778,195.9019,64,80,0
195.47778,195.9019,61,80,0
195.90636,196.59386,66,80,0
196.59866,196.82463,69,80,0
196.82944,197.09648,67,80,0
195.90636,197.46935,63,80,0
195.90636,197.46935,57,80,0
197.10216,197.46935,66,80,0
197.47716,198.32538,64,80,0
197.47716,198.32538,55,80,0
199.19145,199.57451,67,80,0
199.19145,199.57451,55,80,0
199.57854,200.3487,67,80,0
199.57854,200.3487,55,80,0
200.35274,200.72383,72,80,0
200.35274,200.72383,60,80,0
200.72774,201.47383,72,80,0
200.72774,201.47383,60,80,0
201.47774,201.84883,79,80,0
201.47774,201.84883,67,80,0
201.85274,202.59883,79,80,0
201.85274,202.59883,67,80,0
202.60274,202.97383,84,80,0
202.60274,202.97383,72,80,0
202.97774,203.72383,84,80,0
202.97774,203.72383,72,80,0
203.72774,203.91133,89,110,0
203.72774,203.91133,86,110,0
203.72774,203.91133,77,110,0
204.10274,204.66133,89,110,0
204.10274,204.66133,86,110,0
204.10274,204.66133,77,110,0
204.66524,204.84102,88,110,0
204.75899,204.94258,86,110,0
204.85274,205.03633,84,110,0
204.94649,205.10664,83,110,0
205.04024,205.21211,81,110,0
205.13399,205.30586,79,110,0
205.22774,205.39961,77,110,0
205.32149,205.50117,76,110,0
205.41524,205.59102,74,110,0
205.50899,205.67305,72,110,0
205.60274,205.71992,71,110,0
205.66524,205.78242,69,110,0
205.72774,205.84492,67,110,0
205.79024,205.91133,65,110,0
205.85274,205.97383,64,110,0
205.91524,206.02852,62,110,0
205.97774,206.11055,60,110,0
206.05196,206.18477,59,110,0
206.12617,206.2629,57,110,0
206.2004,206.3254,55,110,0
206.27461,206.34883,54,110,0
206.35274,206.53633,55,110,0
207.10274,207.28633,65,110,0
207.10274,207.28633,62,110,0
207.10274,207.28633,55,110,0
207.47774,207.66133,64,110,0
207.47774,207.66133,60,110,0
207.47774,207.66133,55,110,0
208.22774,208.41133,86,110,0
208.22774,208.41133,83,110,0
208.22774,208.41133,80,110,0
208.22774,208.41133,74,110,0
208.60274,209.16133,86,110,0
208.60274,209.16133,83,110,0
208.60274,209.16133,80,110,0
208.60274,209.16133,74,110,0
209.16524,209.33711,84,110,0
209.25899,209.42696,83,110,0
209.35274,209.52461,81,110,0
209.44649,209.60664,80,110,0
209.54024,209.7043,78,110,0
209.63399,209.79805,76,110,0
209.72774,209.8918,74,110,0
209.82149,209.98555,72,110,0
209.91524,210.0832,71,110,0
210.00899,210.17305,69,110,0
210.10274,210.21992,68,110,0
210.16524,210.28242,66,110,0
210.22774,210.34883,64,110,0
210.29024,210.41133,62,110,0
210.35274,210.47383,60,110,0
210.41524,210.53633,59,110,0
210.47774,210.60274,57,110,0
210.55196,210.68867,56,110,0
210.62617,210.7629,54,110,0
210.7004,210.8332,52,110,0
210.77461,210.84883,51,110,0
210.85274,211.22383,52,110,0
211.60274,211.78633,62,110,0
211.60274,211.78633,59,110,0
211.60274,211.78633,52,110,0
211.97774,212.16133,60,110,0
211.97774,212.16133,57,110,0
211.97774,212.16133,52,110,0
212.72774,213.12357,84,80,0
213.12773,213.72357,84,80,0
213.72774,213.9194,82,80,0
213.82773,214.00273,81,80,0
213.92773,214.1069,79,80,0
214.02774,214.2069,77,80,0
214.12773,214.31107,76,80,0
214.22774,214.4069,74,80,0
214.32773,214.49857,72,80,0
214.42773,214.59857,70,80,0
214.52774,214.71106,69,80,0
214.62773,214.81523,67,80,0
214.72774,214.8819,65,80,0
214.8069,214.94023,64,80,0
214.88606,215.0444,62,80,0
214.96524,215.1069,60,80,0
215.0444,215.12357,58,80,0
215.12773,215.52356,57,80,0
215.52774,216.32356,57,80,0
216.32773,216.7108,63,80,0
216.32773,216.7108,57,80,0
216.71483,217.48499,63,80,0
216.71483,217.48499,57,80,0
217.48903,217.86012,69,80,0
217.48903,217.86012,63,80,0
217.86403,218.61012,69,80,0
217.86403,218.61012,63,80,0
218.61403,218.98512,75,80,0
218.61403,218.98512,69,80,0
218.61403,218.98512,63,80,0
218.98903,219.73512,75,80,0
218.98903,219.73512,69,80,0
218.98903,219.73512,63,80,0
219.73903,220.11012,84,80,0
219.73903,220.11012,81,80,0
219.73903,220.11012,75,80,0
219.73903,220.11012,72,80,0
220.11403,220.86012,84,80,0
220.11403,220.86012,81,80,0
220.11403,220.86012,75,80,0
220.11403,220.86012,72,80,0
220.86403,221.23512,83,92,0
220.86403,221.23512,81,92,0
220.86403,221.23512,75,92,0
220.86403,221.23512,71,92,0
221.23903,221.98512,82,98,0
221.23903,221.98512,75,98,0
221.23903,221.98512,70,98,0
221.98903,222.36012,83,110,0
221.98903,222.36012,81,110,0
221.98903,222.36012,75,110,0
221.98903,222.36012,71,110,0
222.36403,223.48512,83,110,0
222.36403,223.48512,76,110,0
222.36403,223.48512,71,110,0
223.48903,224.61012,88,110,0
223.48903,224.61012,76,110,0
224.61403,224.79762,76,110,0
224.61403,224.79762,74,110,0
224.61403,224.79762,71,110,0
224.98903,225.17262,77,110,0
224.98903,225.17262,72,110,0
224.98903,225.17262,65,110,0
225.73903,225.92262,77,110,0
225.73903,225.92262,76,110,0
225.73903,225.92262,72,110,0
226.11403,226.29762,80,110,0
226.11403,226.29762,74,110,0
226.11403,226.29762,68,110,0
226.86403,227.04762,80,110,0
226.86403,227.04762,76,110,0
226.86403,227.04762,74,110,0
226.86403,227.04762,68,110,0
227.23903,227.42262,81,110,0
227.23903,227.42262,76,110,0
227.23903,227.42262,69,110,0
227.98903,228.17262,81,110,0
227.98903,228.17262,76,110,0
227.98903,228.17262,69,110,0
228.36403,228.54762,82,110,0
228.36403,228.54762,79,110,0
228.36403,228.54762,76,110,0
228.36403,228.54762,70,110,0
229.11403,229.29762,81,70,0
229.11403,229.29762,76,70,0
229.11403,229.29762,73,70,0
229.30153,229.48512,82,70,0
229.30153,229.48512,76,70,0
229.30153,229.48512,73,70,0
229.48903,229.67262,82,70,0
229.48903,229.67262,76,70,0
229.48903,229.67262,73,70,0
229.67653,229.86012,82,70,0
229.67653,229.86012,76,70,0
229.67653,229.86012,73,70,0
229.86403,230.04762,82,70,0
229.86403,230.04762,76,70,0
229.86403,230.04762,73,70,0
230.05153,230.23512,82,70,0
230.05153,230.23512,76,70,0
230.05153,230.23512,73,70,0
230.23903,230.42262,82,70,0
230.23903,230.42262,76,70,0
230.23903,230.42262,73,70,0
230.42653,230.61012,82,78,0
230.42653,230.61012,76,78,0
230.42653,230.61012,73,78,0
230.61403,230.79762,82,86,0
230.61403,230.79762,76,86,0
230.61403,230.79762,73,86,0
230.80153,230.98512,82,94,0
230.80153,230.98512,76,94,0
230.80153,230.98512,73,94,0
230.98903,231.17854,82,102,0
230.98903,231.17854,76,102,0
230.98903,231.17854,73,102,0
231.18257,231.3924,82,110,0
231.18257,231.3924,76,110,0
231.18257,231.3924,73,110,0
231.39685,231.64165,95,120,0
231.39685,231.64165,83,120,0
231.64685,231.85667,96,120,0
231.64685,231.85667,84,120,0
231.86115,232.05698,96,120,0
231.86115,232.05698,84,120,0
232.06114,232.25697,96,120,0
232.06114,232.25697,84,120,0
232.26114,232.46655,96,120,0
232.26114,232.46655,84,120,0
232.47093,232.67635,96,120,0
232.47093,232.67635,84,120,0
232.68073,232.89359,96,115,0
232.68073,232.89359,84,115,0
232.89812,233.11098,96,111,0
232.89812,233.11098,84,111,0
233.11551,233.32837,96,106,0
233.11551,233.32837,84,106,0
233.3329,233.54576,96,101,0
233.3329,233.54576,84,101,0
233.55028,233.79507,96,96,0
233.55028,233.79507,84,96,0
233.80028,234.16747,96,91,0
233.80028,234.16747,84,91,0
234.17528,234.64012,96,80,0
234.17528,234.64012,84,80,0
234.64403,235.76512,83,80,0
234.64403,235.76512,95,80,0
235.76903,236.89012,76,80,0
235.76903,236.89012,88,80,0
236.89403,238.01512,71,80,0
236.89403,238.01512,83,80,0
238.01903,238.76512,64,80,0
238.01903,239.14012,76,80,0
239.14403,239.51512,72,80,0
239.51903,239.89012,71,80,0
239.89403,240.64012,71,80,0
240.64403,241.01512,75,80,0
241.01903,241.20262,76,80,0
241.20653,241.39012,72,80,0
241.39403,241.95262,84,80,0
241.95653,242.14012,83,80,0
242.33153,242.51512,83,80,0
242.51903,243.07762,78,80,0
243.08153,243.26512,76,80,0
243.45653,243.64012,76,80,0
243.64403,244.20262,72,80,0
244.20653,244.39012,71,80,0
244.58153,244.76512,71,80,0
244.76903,245.32762,66,80,0
245.33153,245.51512,64,80,0
245.51903,245.89012,64,80,0
245.89403,246.26512,60,80,0
246.26903,246.64012,59,80,0
246.64403,246.80724,59,80,0
246.8107,246.97389,55,80,0
246.97737,247.14056,52,80,0
247.14403,247.30724,48,80,0
247.3107,247.47389,47,80,0
247.47737,247.64056,51,80,0
247.64403,247.97389,52,80,0
248.64403,249.76512,64,80,0
248.64403,249.76512,60,80,0
249.76903,250.51512,65,80,0
249.76903,250.89012,60,80,0
250.51903,251.64012,72,80,0
250.89403,252.01512,69,80,0
250.89403,252.01512,66,80,0
250.89403,252.01512,63,80,0
251.64403,252.01512,71,80,0
252.01903,252.39012,67,80,0
252.01903,252.39012,71,80,0
252.01903,252.39012,64,80,0
253.14403,254.26512,52,80,0
253.14403,254.26512,48,80,0
254.26903,255.01512,53,80,0
254.26903,255.39012,48,80,0
255.01903,256.14014,60,80,0
255.39403,256.51514,57,80,0
255.39403,256.51514,54,80,0
255.39403,256.51514,51,80,0
256.14404,256.51514,59,80,0
257.26904,258.4794,60,80,0
257.65613,258.8932,55,80,0
257.65613,258.8932,52,80,0
258.4837,258.8932,59,80,0
259.7251,260.88235,60,79,0
260.11218,261.26944,57,78,0
260.11218,261.26944,54,78,0
260.88638,261.26944,63,78,0
261.27347,261.65656,64,77,0
261.27347,261.65656,55,77,0
262.04767,263.20493,72,77,0
262.43475,263.592,69,77,0
262.43475,263.592,66,77,0
262.43475,263.592,63,77,0
263.20895,263.592,71,76,0
264.37024,265.58063,72,75,0
264.75735,265.99442,67,75,0
264.75735,265.99442,64,75,0
265.58493,265.99442,71,74,0
266.8263,267.98355,72,73,0
267.2134,268.37067,69,73,0
267.2134,268.37067,66,73,0
267.98758,268.37067,75,72,0
268.3747,268.77054,76,72,0
268.3747,268.77054,67,72,0
269.17468,270.42737,84,71,0
269.57468,270.85593,81,71,0
269.57468,270.85593,78,71,0
269.57468,270.85593,75,71,0
270.43182,270.85593,83,71,0
272.9461,273.34195,78,80,0
272.9461,273.34195,75,80,0
273.34613,273.94196,79,80,0
273.34613,273.94196,76,80,0
273.9461,274.14194,78,80,0
273.9461,274.14194,75,80,0
274.14612,274.54196,76,80,0
274.5461,274.94196,81,80,0
274.5461,274.94196,78,80,0
275.34613,275.74194,81,80,0
275.34613,275.74194,78,80,0
275.74612,276.34195,81,80,0
275.74612,276.34195,78,80,0
276.34613,276.54196,79,80,0
276.5461,276.94196,81,80,0
276.5461,276.94196,78,80,0
276.9461,277.3702,83,80,0
276.9461,277.3702,79,80,0
277.80325,278.22736,83,80,0
278.23184,278.93817,83,80,0
278.94336,279.18817,81,80,0
279.19336,279.7871,83,80,0
279.19336,279.7871,79,80,0
279.79337,281.27774,84,80,0
279.79337,281.27774,81,80,0
282.79337,283.7892,76,80,0
282.79337,283.7892,88,80,0
283.79337,283.9892,87,80,0
283.79337,283.9892,75,80,0
283.99338,284.3892,88,80,0
283.99338,284.3892,76,80,0
284.39337,285.1892,66,85,0
284.39337,285.1892,64,85,0
284.39337,285.1892,60,85,0
285.19336,285.5892,66,95,0
285.19336,285.5892,64,95,0
285.19336,285.5892,61,95,0
285.59335,286.1892,66,100,0
286.19336,286.3892,67,93,0
286.39337,286.5892,69,91,0
285.59335,286.7892,63,100,0
285.59335,286.7892,57,100,0
286.59335,286.7892,67,88,0
286.79337,287.1892,66,86,0
287.19336,287.5892,64,81,0
287.59335,288.63177,76,80,0
287.59335,288.63177,88,80,0
288.63623,288.84604,87,97,0
288.63623,288.84604,75,97,0
288.8505,289.27463,88,100,0
288.8505,289.27463,76,100,0
289.27908,290.19736,66,100,0
289.27908,290.19736,64,100,0
289.27908,290.19736,60,100,0
290.20215,290.71848,66,81,0
290.20215,290.71848,64,81,0
290.20215,290.71848,61,81,0
290.7239,291.55917,66,70,0
291.565,291.8775,69,70,0
291.88416,292.19666,67,70,0
290.7239,292.6929,63,70,0
290.7239,292.6929,57,70,0
292.2033,292.6929,66,70,0
292.7033,295.6929,64,70,0
292.7033,295.6929,55,70,0
299.7033,300.6929,64,1,0
0.0,0.18359375,52,110,0
0.0,0.18359375,40,110,0
0.375,1.1210938,52,110,0
0.375,1.1210938,40,110,0
1.125,1.3085938,52,110,0
1.125,1.3085938,40,110,0
1.5,1.6835938,50,110,0
1.5,1.6835938,38,110,0
2.25,2.6330638,62,80,0
2.637096,3.2137077,62,80,0
2.637096,3.2137077,60,80,0
3.21774,3.4072556,62,80,0
3.21774,3.4072556,59,80,0
3.411288,3.7943518,60,80,0
3.411288,3.7943518,57,80,0
3.798384,4.181448,59,80,0
3.798384,4.181448,55,80,0
4.572576,4.75617,55,110,0
4.572576,4.75617,43,110,0
4.947576,5.69367,55,110,0
4.947576,5.69367,43,110,0
5.697576,5.88117,43,110,0
5.697576,5.88117,31,110,0
6.072576,6.25617,42,110,0
6.072576,6.25617,30,110,0
6.822576,7.20564,66,80,0
7.209672,7.786284,66,80,0
7.209672,7.786284,64,80,0
7.790316,7.9798317,66,80,0
7.790316,7.9798317,62,80,0
7.983864,8.366928,64,80,0
7.983864,8.366928,61,80,0
8.37096,8.754024,62,80,0
8.37096,8.754024,59,80,0
9.532248,10.302408,62,80,0
9.532248,10.689504,59,80,0
10.30644,11.463696,64,80,0
9.532248,11.463696,67,80,0
10.693536,11.463696,57,80,0
11.467728,11.850792,63,80,0
11.467728,12.624984,66,80,0
11.854824,12.624984,62,80,0
12.629016,13.01208,66,80,0
13.016112,13.786272,67,80,0
13.790304,14.1733675,55,80,0
14.1774,14.947559,52,80,0
14.951592,15.334656,64,79,0
15.338688,16.161964,60,77,0
17.041605,17.498335,55,70,0
16.166273,18.162865,48,73,0
16.580067,18.162865,36,71,0
17.503143,18.162865,52,70,0
18.16981,21.154184,47,70,0
18.16981,21.154184,35,70,0
21.556906,22.71416,59,80,0
21.556906,22.71416,52,80,0
21.556906,22.71416,43,80,0
22.718193,23.488352,45,80,0
22.718193,23.875448,52,80,0
23.492386,23.875448,46,85,0
23.87948,25.036737,47,88,0
25.04077,25.810928,55,80,0
25.04077,25.810928,48,80,0
25.81496,26.004477,47,80,0
26.008509,26.198025,45,83,0
26.202057,26.972218,43,86,0
26.202057,27.359312,59,86,0
26.202057,27.359312,52,86,0
26.97625,27.359312,44,100,0
27.363344,28.133505,45,101,0
28.137537,28.561644,46,80,0
28.566109,30.333296,47,80,0
28.566109,30.333296,35,80,0
30.341108,31.33069,52,80,0
30.341108,31.33069,40,80,0
32.341106,32.765213,47,70,0
32.341106,32.765213,35,70,0
32.76968,33.569344,47,70,0
32.76968,33.569344,35,70,0
33.57325,33.944344,52,72,0
33.57325,33.944344,40,72,0
33.94825,34.694344,52,73,0
33.94825,34.694344,40,73,0
34.69825,35.069344,59,75,0
34.69825,35.069344,47,75,0
35.07325,35.819344,59,76,0
35.07325,35.819344,47,76,0
35.82325,36.194344,64,78,0
35.82325,36.194344,52,78,0
36.19825,36.944344,64,79,0
36.19825,36.944344,52,79,0
36.94825,37.131844,65,110,0
36.94825,37.131844,62,110,0
36.94825,37.131844,59,110,0
36.94825,37.131844,55,110,0
37.32325,37.881844,65,110,0
37.32325,37.881844,62,110,0
37.32325,37.881844,59,110,0
37.32325,37.881844,55,110,0
40.32325,40.506844,47,80,0
40.32325,40.506844,35,80,0
40.69825,40.881844,48,80,0
40.69825,40.881844,36,80,0
41.44825,41.631844,62,110,0
41.44825,41.631844,59,110,0
41.44825,41.631844,56,110,0
41.44825,41.631844,52,110,0
41.82325,42.381844,62,110,0
41.82325,42.381844,59,110,0
41.82325,42.381844,56,110,0
41.82325,42.381844,52,110,0
44.82325,45.006844,44,110,0
44.82325,45.006844,32,110,0
45.19825,45.40807,45,110,0
45.19825,45.40807,33,110,0
46.055393,46.4795,58,80,0
46.483963,48.193783,58,80,0
49.912533,50.33664,64,80,0
50.341103,51.136936,64,80,0
51.1411,51.536934,64,80,0
51.1411,51.536934,58,80,0
51.541103,52.287197,64,80,0
51.541103,52.287197,58,80,0
52.291103,52.662197,64,80,0
52.291103,52.662197,58,80,0
52.666103,53.412197,64,80,0
52.666103,53.412197,58,80,0
53.416103,53.787197,67,95,0
53.416103,53.787197,64,95,0
53.416103,53.787197,61,95,0
53.416103,53.787197,58,95,0
53.791103,54.537197,67,97,0
54.541103,54.912197,66,102,0
53.791103,55.662197,58,97,0
53.791103,55.662197,61,97,0
53.791103,55.662197,64,97,0
54.916103,55.662197,65,104,0
55.666103,56.037197,66,109,0
55.666103,56.037197,64,109,0
55.666103,56.037197,61,109,0
55.666103,56.037197,58,109,0
56.041103,56.224697,66,110,0
56.041103,56.224697,62,110,0
56.041103,56.224697,59,110,0
56.228603,56.412197,66,110,0
56.228603,56.412197,62,110,0
56.228603,56.412197,59,110,0
56.416103,56.599697,66,110,0
56.416103,56.599697,62,110,0
56.416103,56.599697,59,110,0
56.603603,56.787197,66,110,0
56.603603,56.787197,62,110,0
56.603603,56.787197,59,110,0
56.791103,56.974697,66,110,0
56.791103,56.974697,62,110,0
56.791103,56.974697,59,110,0
56.978603,57.162197,66,110,0
56.978603,57.162197,62,110,0
56.978603,57.162197,59,110,0
57.166103,57.349697,59,110,0
57.166103,57.349697,54,110,0
57.166103,57.349697,50,110,0
57.353603,57.537197,59,110,0
57.353603,57.537197,54,110,0
57.353603,57.537197,50,110,0
57.541103,57.724697,59,110,0
57.541103,57.724697,54,110,0
57.541103,57.724697,50,110,0
57.728603,57.912197,59,110,0
57.728603,57.912197,54,110,0
57.728603,57.912197,50,110,0
57.916103,58.099697,59,110,0
57.916103,58.099697,54,110,0
57.916103,58.099697,50,110,0
58.103603,58.287197,59,110,0
58.103603,58.287197,54,110,0
58.103603,58.287197,50,110,0
58.291103,58.474697,57,110,0
58.291103,58.474697,54,110,0
58.291103,58.474697,51,110,0
58.478603,58.662197,57,110,0
58.478603,58.662197,54,110,0
58.478603,58.662197,51,110,0
58.666103,58.849697,55,110,0
58.666103,58.849697,52,110,0
58.853603,59.037197,55,110,0
58.853603,59.037197,52,110,0
59.041103,59.224697,55,110,0
59.041103,59.224697,52,110,0
59.228603,59.412197,52,110,0
59.228603,59.412197,55,110,0
59.416103,59.599697,59,110,0
59.416103,59.599697,55,110,0
59.416103,59.599697,52,110,0
59.603603,59.787197,59,110,0
59.603603,59.787197,55,110,0
59.603603,59.787197,52,110,0
59.791103,59.974697,57,110,0
59.791103,59.974697,54,110,0
59.978603,60.162197,57,110,0
59.978603,60.162197,54,110,0
60.166103,60.349697,57,110,0
60.166103,60.349697,54,110,0
60.353603,60.537197,57,110,0
60.353603,60.537197,54,110,0
60.541103,60.724697,60,110,0
60.541103,60.724697,57,110,0
60.541103,60.724697,54,110,0
60.728603,60.912197,60,110,0
60.728603,60.912197,57,110,0
60.728603,60.912197,54,110,0
60.916103,61.099697,59,110,0
60.916103,61.099697,55,110,0
61.103603,61.287197,59,110,0
61.103603,61.287197,55,110,0
61.291103,61.474697,59,110,0
61.291103,61.474697,55,110,0
61.478603,61.662197,59,110,0
61.478603,61.662197,55,110,0
61.666103,61.849697,59,110,0
61.666103,61.849697,56,110,0
61.853603,62.037197,62,110,0
61.853603,62.037197,59,110,0
61.853603,62.037197,56,110,0
62.041103,62.224697,61,110,0
62.041103,62.224697,59,110,0
62.041103,62.224697,56,110,0
62.228603,62.412197,61,110,0
62.228603,62.412197,59,110,0
62.228603,62.412197,56,110,0
62.416103,62.599697,61,110,0
62.416103,62.599697,59,110,0
62.416103,62.599697,56,110,0
62.603603,62.787197,61,110,0
62.603603,62.787197,59,110,0
62.603603,62.787197,56,110,0
62.791103,62.974697,61,70,0
62.978603,63.162197,61,70,0
63.166103,63.349697,61,70,0
63.353603,63.537197,61,70,0
63.541103,63.724697,61,70,0
63.728603,63.912197,61,70,0
63.916103,64.09969,61,70,0
64.1036,64.28719,61,76,0
64.2911,64.47469,61,82,0
64.4786,64.66219,61,88,0
64.6661,64.84969,61,94,0
64.8536,65.03719,61,100,0
65.0411,65.26707,64,120,0
65.0411,65.26707,61,120,0
65.0411,65.26707,58,120,0
65.0411,65.26707,54,120,0
65.27187,65.47446,64,120,0
65.27187,65.47446,61,120,0
65.27187,65.47446,58,120,0
65.27187,65.47446,54,120,0
65.47877,65.66236,64,120,0
65.47877,65.66236,61,120,0
65.47877,65.66236,58,120,0
65.47877,65.66236,54,120,0
65.66627,65.84986,64,120,0
65.66627,65.84986,61,120,0
65.66627,65.84986,58,120,0
65.66627,65.84986,54,120,0
65.85377,66.03736,64,120,0
65.85377,66.03736,61,120,0
65.85377,66.03736,58,120,0
65.85377,66.03736,54,120,0
66.04127,66.22486,64,120,0
66.04127,66.22486,61,120,0
66.04127,66.22486,58,120,0
66.04127,66.22486,54,120,0
66.22877,66.4246,64,115,0
66.22877,66.4246,61,115,0
66.22877,66.4246,58,115,0
66.22877,66.4246,54,115,0
66.428764,66.6246,64,111,0
66.428764,66.6246,61,111,0
66.428764,66.6246,58,111,0
66.428764,66.6246,54,111,0
66.62877,66.84636,64,106,0
66.62877,66.84636,61,106,0
66.62877,66.84636,58,106,0
66.62877,66.84636,54,106,0
66.85099,67.06858,64,101,0
66.85099,67.06858,61,101,0
66.85099,67.06858,58,101,0
66.85099,67.06858,54,101,0
67.07321,67.318,64,96,0
67.07321,67.318,61,96,0
67.07321,67.318,58,96,0
67.07321,67.318,54,96,0
67.32321,67.61696,64,91,0
67.32321,67.61696,61,91,0
67.32321,67.61696,58,91,0
67.32321,67.61696,54,91,0
67.623215,67.85524,47,80,0
67.77321,67.94899,62,80,0
67.86696,68.04274,54,80,0
67.96071,68.13258,62,80,0
68.05446,68.22633,49,80,0
68.14821,68.32399,64,80,0
68.24196,68.41774,54,80,0
68.33571,68.5193,64,80,0
68.42946,68.60133,50,80,0
68.52321,68.69118,66,80,0
68.61696,68.79274,54,80,0
68.71071,68.890396,66,80,0
68.80446,68.97633,47,80,0
68.89821,69.0818,62,80,0
68.99196,69.16774,54,80,0
69.08571,69.24977,62,80,0
69.17946,69.359146,49,80,0
69.27321,69.44508,64,80,0
69.36696,69.54274,54,80,0
69.46071,69.63649,64,80,0
69.55446,69.734146,50,80,0
69.64821,69.82399,66,80,0
69.74196,69.90602,54,80,0
69.83571,70.01149,66,80,0
69.92946,70.109146,47,80,0
70.02321,70.183365,62,80,0
70.11696,70.296646,54,80,0
70.21071,70.38649,62,80,0
70.30446,70.47633,49,80,0
70.39821,70.56618,64,80,0
70.49196,70.67555,54,80,0
70.58571,70.75368,64,80,0
70.67946,70.859146,50,80,0
70.77321,70.94118,66,80,0
70.86696,71.03883,54,80,0
70.96071,71.13649,66,80,0
71.05446,71.234146,47,80,0
71.14821,71.32399,62,80,0
71.24196,71.41774,54,80,0
71.33571,71.515396,62,80,0
71.42946,71.60133,49,80,0
71.52321,71.69899,64,80,0
71.61696,71.796646,54,80,0
71.71071,71.890396,64,80,0
71.80446,71.96852,50,80,0
71.89821,72.06227,66,80,0
71.99196,72.15993,54,80,0
72.08571,72.245865,66,80,0
72.17946,72.35133,52,80,0
72.27321,72.43727,62,80,0
72.36696,72.55055,59,80,0
72.46071,72.63258,62,80,0
72.55446,72.72243,53,80,0
72.64821,72.81618,62,80,0
72.74196,72.90602,59,80,0
72.83571,72.995865,62,80,0
72.92946,73.09352,54,80,0
73.02321,73.2068,62,80,0
73.11696,73.296646,59,80,0
73.21071,73.38649,62,80,0
73.30446,73.47633,54,80,0
73.39821,73.56618,62,80,0
73.49196,73.66383,59,80,0
73.58571,73.76149,62,80,0
73.67946,73.839615,54,80,0
73.77321,73.933365,62,80,0
73.86696,74.02321,59,80,0
73.96071,74.1443,62,80,0
74.05446,74.22633,54,80,0
74.14821,74.32008,64,80,0
74.24196,74.42555,61,80,0
74.33571,74.51149,64,80,0
74.42946,74.60524,47,80,0
74.52321,74.69118,62,80,0
74.61696,74.79274,54,80,0
74.71071,74.88258,62,80,0
74.80446,74.97243,49,80,0
74.89821,75.06227,64,80,0
74.99196,75.15993,54,80,0
75.08571,75.25368,64,80,0
75.17946,75.35133,50,80,0
75.27321,75.43727,66,80,0
75.36696,75.53493,54,80,0
75.46071,75.62868,66,80,0
75.55446,75.73024,47,80,0
75.64821,75.81618,62,80,0
75.74196,75.91774,54,80,0
75.83571,76.015396,62,80,0
75.92946,76.109146,49,80,0
76.02321,76.18727,64,80,0
76.11696,76.28102,54,80,0
76.21071,76.3943,64,80,0
76.30446,76.46852,50,80,0
76.39821,76.56227,66,80,0
76.49196,76.671646,54,80,0
76.58571,76.765396,66,80,0
76.67946,76.839615,47,80,0
76.77321,76.9568,62,80,0
76.86696,77.027115,54,80,0
76.96071,77.12868,62,80,0
77.05446,77.22243,49,80,0
77.14821,77.31618,64,80,0
77.24196,77.40602,54,80,0
77.33571,77.515396,64,80,0
77.42946,77.589615,50,80,0
77.52321,77.7068,66,80,0
77.61696,77.78883,54,80,0
77.71071,77.87868,66,80,0
77.80446,77.97243,47,80,0
77.89821,78.07008,62,80,0
77.99196,78.17555,54,80,0
78.08571,78.245865,62,80,0
78.17946,78.34743,49,80,0
78.27321,78.44508,64,80,0
78.36696,78.55055,54,80,0
78.46071,78.63258,64,80,0
78.55446,78.73805,50,80,0
78.64821,78.82008,66,80,0
78.74196,78.91774,54,80,0
78.83571,78.99977,66,80,0
78.92946,79.09743,52,80,0
79.02321,79.183365,62,80,0
79.11696,79.28883,59,80,0
79.21071,79.390396,62,80,0
79.30446,79.48024,53,80,0
79.39821,79.558365,62,80,0
79.49196,79.652115,59,80,0
79.58571,79.7693,62,80,0
79.67946,79.84743,54,80,0
79.77321,79.94118,62,80,0
79.86696,80.03883,59,80,0
79.96071,80.05055,62,80,0
80.05446,80.71766,54,80,0
80.72113,81.05099,42,80,0
80.72113,81.05099,30,80,0
81.05446,81.21765,47,110,0
81.05446,81.21765,35,110,0
81.22113,81.38432,49,110,0
81.22113,81.38432,37,110,0
81.387794,81.55099,50,110,0
81.387794,81.55099,38,110,0
81.55446,81.71765,52,110,0
81.55446,81.71765,40,110,0
81.72112,83.17555,42,120,0
81.72112,83.17555,54,121,0
83.17946,84.30055,52,80,0
83.17946,84.30055,40,80,0
84.30446,85.42555,54,80,0
84.30446,85.42555,42,80,0
85.42946,85.61305,47,110,0
85.42946,85.61305,35,110,0
85.61696,85.80055,49,110,0
85.61696,85.80055,37,110,0
85.80446,85.98805,50,110,0
85.80446,85.98805,38,110,0
85.99196,86.17555,52,110,0
85.99196,86.17555,40,110,0
86.17946,87.67555,42,120,0
86.17946,87.67555,54,120,0
87.67946,88.80055,52,80,0
87.67946,88.80055,40,80,0
88.80446,89.92555,54,80,0
88.80446,89.92555,42,80,0
91.05446,92.17555,47,79,0
91.05446,92.17555,35,79,0
93.30446,94.42555,42,73,0
93.30446,94.42555,30,73,0
94.42946,94.80055,47,70,0
94.42946,94.80055,35,70,0
95.55446,95.92555,47,70,0
95.55446,95.92555,35,70,0
96.67946,97.05055,47,70,0
96.67946,97.05055,35,70,0
100.80446,101.17555,69,80,0
100.80446,101.17555,66,80,0
101.17946,101.55055,69,80,0
101.17946,101.55055,66,80,0
101.92946,102.11305,69,80,0
101.92946,102.11305,66,80,0
102.30446,102.67555,67,80,0
102.30446,102.67555,64,80,0
103.05446,103.42555,67,80,0
103.05446,103.42555,64,80,0
103.42946,103.80055,65,80,0
103.42946,103.80055,62,80,0
104.17946,104.36305,65,80,0
104.17946,104.36305,62,80,0
104.55446,104.73805,64,80,0
104.55446,104.73805,60,80,0
104.74196,104.92555,64,80,0
104.92946,105.11305,64,80,0
105.11696,105.30055,64,80,0
105.30446,105.48805,64,80,0
105.49196,105.67555,64,81,0
105.67946,105.86305,64,83,0
105.67946,106.05055,60,83,0
105.67946,106.05055,57,83,0
105.86696,106.05055,64,84,0
106.05446,106.23805,64,86,0
106.24196,106.42555,64,87,0
106.42946,106.61305,64,89,0
106.42946,106.61305,60,89,0
106.42946,106.61305,57,89,0
106.61696,106.80055,64,91,0
106.80446,106.98805,65,92,0
106.80446,107.17555,59,92,0
106.80446,107.17555,56,92,0
106.99196,107.17555,65,94,0
107.17946,107.36305,65,95,0
107.36696,107.55055,65,97,0
107.55446,107.73805,65,98,0
107.55446,107.92555,59,98,0
107.55446,107.92555,56,98,0
107.74196,107.92555,65,100,0
107.92946,108.11305,65,102,0
107.92946,108.30055,58,102,0
107.92946,108.30055,56,102,0
108.11696,108.30055,65,103,0
108.30446,108.48805,65,105,0
108.49196,108.67555,65,106,0
108.67946,108.86305,58,108,0
108.67946,108.86305,56,108,0
108.67946,108.86305,65,108,0
108.86696,109.05055,65,109,0
109.05446,109.23805,63,110,0
109.05446,109.23805,58,110,0
109.05446,109.23805,55,110,0
109.24196,109.42555,63,110,0
109.24196,109.42555,58,110,0
109.24196,109.42555,55,110,0
109.42946,109.61305,63,110,0
109.42946,109.61305,58,110,0
109.42946,109.61305,55,110,0
109.61696,109.80055,63,110,0
109.61696,109.80055,58,110,0
109.61696,109.80055,55,110,0
109.80446,109.98805,63,110,0
109.80446,109.98805,58,110,0
109.80446,109.98805,55,110,0
109.99196,110.17555,63,110,0
109.99196,110.17555,58,110,0
109.99196,110.17555,55,110,0
110.17946,110.36305,58,110,0
110.17946,110.36305,54,110,0
110.36696,110.55055,58,110,0
110.36696,110.55055,54,110,0
110.55446,110.73805,58,110,0
110.55446,110.73805,54,110,0
110.74196,110.92555,58,110,0
110.74196,110.92555,54,110,0
110.92946,111.11305,58,110,0
110.92946,111.11305,54,110,0
111.11696,111.30055,58,110,0
111.11696,111.30055,54,110,0
111.30446,111.48805,54,110,0
111.30446,111.48805,51,110,0
111.49196,111.67555,54,110,0
111.49196,111.67555,51,110,0
111.67946,111.86305,54,110,0
111.67946,111.86305,51,110,0
111.86696,112.05055,54,110,0
111.86696,112.05055,51,110,0
112.05446,112.23805,54,110,0
112.05446,112.23805,51,110,0
112.24196,112.42555,54,110,0
112.24196,112.42555,51,110,0
112.42946,112.61305,51,110,0
112.42946,112.61305,48,110,0
112.61696,112.80055,51,110,0
112.61696,112.80055,48,110,0
112.80446,112.98805,51,110,0
112.80446,112.98805,48,110,0
112.99196,113.17555,51,110,0
112.99196,113.17555,48,110,0
113.17946,113.36305,51,110,0
113.17946,113.36305,48,110,0
113.36696,113.55055,51,110,0
113.36696,113.55055,48,110,0
113.55446,113.73805,48,110,0
113.55446,113.73805,45,110,0
113.74196,113.92555,48,110,0
113.74196,113.92555,45,110,0
113.92946,114.11305,48,110,0
113.92946,114.11305,45,110,0
114.11696,114.30055,48,110,0
114.11696,114.30055,45,110,0
114.30446,114.48805,48,110,0
114.30446,114.48805,45,110,0
114.49196,114.67555,48,110,0
114.49196,114.67555,45,110,0
114.67946,114.86305,48,110,0
114.67946,114.86305,45,110,0
114.67946,114.86305,42,110,0
114.86696,115.05055,48,110,0
114.86696,115.05055,45,110,0
114.86696,115.05055,42,110,0
115.05446,115.23805,48,110,0
115.05446,115.23805,45,110,0
115.05446,115.23805,42,110,0
115.24196,115.42555,48,110,0
115.24196,115.42555,45,110,0
115.24196,115.42555,42,110,0
115.42946,115.61305,48,110,0
115.42946,115.61305,45,110,0
115.42946,115.61305,42,110,0
115.61696,115.80055,48,110,0
115.61696,115.80055,45,110,0
115.61696,115.80055,42,110,0
115.80446,115.98805,48,110,0
115.80446,115.98805,45,110,0
115.80446,115.98805,42,110,0
115.80446,115.98805,39,110,0
115.99196,116.17555,48,110,0
115.99196,116.17555,45,110,0
115.99196,116.17555,42,110,0
115.99196,116.17555,39,110,0
116.17946,116.36305,48,110,0
116.17946,116.36305,45,110,0
116.17946,116.36305,42,110,0
116.17946,116.36305,39,110,0
116.36696,116.55055,48,110,0
116.36696,116.55055,45,110,0
116.36696,116.55055,42,110,0
116.36696,116.55055,39,110,0
116.55446,116.73805,48,110,0
116.55446,116.73805,45,110,0
116.55446,116.73805,42,110,0
116.55446,116.73805,39,110,0
116.74196,116.92555,48,110,0
116.74196,116.92555,45,110,0
116.74196,116.92555,42,110,0
116.74196,116.92555,39,110,0
116.92946,117.11305,48,110,0
116.92946,117.11305,45,110,0
116.92946,117.11305,42,110,0
116.92946,117.11305,38,110,0
117.11696,117.30055,48,110,0
117.11696,117.30055,45,110,0
117.11696,117.30055,42,110,0
117.11696,117.30055,38,110,0
117.30446,117.48805,48,110,0
117.30446,117.48805,45,110,0
117.30446,117.48805,42,110,0
117.30446,117.48805,38,110,0
117.49196,117.67555,48,110,0
117.49196,117.67555,45,110,0
117.49196,117.67555,42,110,0
117.49196,117.67555,38,110,0
117.67946,117.86305,48,110,0
117.67946,117.86305,45,110,0
117.67946,117.86305,42,110,0
117.67946,117.86305,38,110,0
117.86696,118.05055,48,110,0
117.86696,118.05055,45,110,0
117.86696,118.05055,42,110,0
117.86696,118.05055,38,110,0
118.05446,118.23805,43,110,0
118.05446,118.23805,31,110,0
118.24196,118.42555,31,110,0
118.24196,118.42555,43,110,0
118.42946,118.61305,43,110,0
118.42946,118.61305,31,110,0
119.36696,119.55055,43,80,0
119.36696,119.55055,31,80,0
119.55446,119.73805,43,80,0
119.55446,119.73805,31,80,0
120.49196,120.67555,43,80,0
120.49196,120.67555,31,80,0
120.67946,120.86305,43,80,0
120.67946,120.86305,31,80,0
121.61696,121.80055,43,80,0
121.61696,121.80055,31,80,0
121.99196,122.17555,43,80,0
121.99196,122.17555,31,80,0
122.36696,122.55055,43,80,0
122.36696,122.55055,31,80,0
122.74196,122.92555,43,81,0
122.74196,122.92555,31,81,0
123.11696,123.30055,45,83,0
123.11696,123.30055,33,83,0
123.49196,123.67555,47,86,0
123.49196,123.67555,35,86,0
123.86696,124.05055,48,88,0
123.86696,124.05055,36,88,0
124.24196,124.42555,49,91,0
124.24196,124.42555,37,91,0
124.61696,124.80055,50,93,0
124.61696,124.80055,38,93,0
124.99196,125.17555,51,96,0
124.99196,125.17555,39,96,0
125.36696,125.55055,52,98,0
125.36696,125.55055,40,98,0
125.74196,125.92555,53,100,0
125.74196,125.92555,41,100,0
126.11696,126.30055,54,93,0
126.11696,126.30055,42,93,0
126.49196,126.67555,55,87,0
126.49196,126.67555,43,87,0
126.87946,127.075294,55,81,0
126.87946,127.075294,43,81,0
128.36517,129.16101,65,80,0
129.16518,129.561,65,80,0
129.16518,129.561,59,80,0
129.56517,129.961,64,80,0
129.56517,129.961,60,80,0
129.96518,130.36101,60,80,0
130.36517,130.761,61,80,0
130.76517,131.13626,62,80,0
131.14017,131.51126,57,80,0
131.51517,131.88626,58,80,0
131.89017,132.26126,59,80,0
132.26517,132.63626,55,80,0
132.64017,133.01126,62,80,0
133.01517,133.38626,61,80,0
133.39017,133.76126,60,80,0
133.76517,134.13626,58,80,0
133.76517,134.51126,60,80,0
134.14017,134.51126,57,80,0
134.51517,134.88626,65,80,0
134.51517,134.88626,53,80,0
134.89017,135.26126,62,80,0
134.89017,135.26126,54,80,0
135.26517,135.63626,60,80,0
135.26517,135.63626,55,80,0
135.64017,136.01126,58,80,0
135.64017,136.01126,50,80,0
136.01517,136.38626,53,80,0
136.01517,136.76126,58,80,0
136.39017,136.76126,52,80,0
136.76517,137.13626,67,80,0
137.14017,137.51126,48,80,0
137.14017,137.88626,58,80,0
137.51517,137.88626,53,80,0
137.89017,138.26126,53,80,0
137.89017,138.26126,57,80,0
138.26517,139.01126,45,80,0
139.01517,139.38626,50,81,0
139.39017,139.76126,46,82,0
139.76517,140.13626,45,83,0
140.14017,140.51126,44,84,0
140.51517,140.88626,44,85,0
140.89017,141.26126,44,86,0
141.26517,142.01126,52,87,0
141.64017,142.01126,44,88,0
142.01517,142.38626,45,89,0
142.39017,143.13626,52,90,0
142.76517,143.13626,45,91,0
143.14017,143.51126,47,92,0
143.51517,144.26126,52,93,0
143.89017,144.26126,47,94,0
144.26517,144.63626,48,94,0
144.64017,145.38626,52,106,0
145.01517,145.38626,48,96,0
145.39017,145.76126,51,97,0
145.76517,146.51126,59,110,0
146.14017,146.51126,51,99,0
146.51517,146.88626,52,100,0
146.89017,147.63626,60,111,0
147.26517,147.63626,52,102,0
147.64017,148.01126,54,103,0
148.01517,148.76126,63,118,0
148.39017,148.76126,54,105,0
148.76517,149.13626,55,106,0
149.14017,149.88626,64,121,0
149.51517,149.88626,55,108,0
149.89017,150.26126,57,108,0
150.26517,151.01126,66,120,0
150.64017,151.01126,57,110,0
151.01517,151.38626,58,111,0
151.39017,152.13626,67,121,0
151.76517,152.13626,58,113,0
152.51517,152.88626,64,115,0
152.14017,153.26126,59,114,0
152.89017,153.26126,67,116,0
153.26517,153.63626,71,117,0
153.64017,154.01126,76,118,0
154.01517,154.38626,79,119,0
154.76517,154.85501,79,120,0
154.85892,154.94876,78,120,0
154.95267,155.04251,76,120,0
155.04642,155.13626,75,120,0
155.14017,155.32376,76,120,0
155.89017,156.07376,79,80,0
156.07767,156.26126,78,80,0
156.26517,156.44876,76,80,0
156.45267,156.63626,75,80,0
156.64017,157.01126,76,80,0
157.39017,157.76126,79,80,0
157.76517,158.13626,78,80,0
158.14017,158.51126,76,80,0
158.51517,158.88626,75,79,0
158.89017,159.26126,76,79,0
160.01517,160.76126,79,77,0
160.76517,161.51126,78,75,0
161.51517,161.88626,76,74,0
162.26517,163.01126,67,73,0
163.01517,163.19876,66,71,0
163.20267,163.38626,64,71,0
163.39017,163.76126,64,71,0
164.11812,164.46738,67,70,0
164.47105,164.63425,66,70,0
164.63773,164.80092,64,70,0
164.80438,164.96758,64,70,0
165.30438,165.46758,79,85,0
165.47105,165.61794,78,87,0
165.62105,165.76793,76,90,0
165.92105,166.06793,79,95,0
166.07106,166.21793,78,98,0
166.22105,166.36794,76,100,0
166.52106,166.66792,55,105,0
166.67105,166.81793,54,108,0
166.82106,166.96793,52,110,0
166.97105,167.34215,52,110,0
167.34605,168.09215,52,110,0
167.34605,168.09215,40,110,0
168.09605,168.27965,52,110,0
168.09605,168.27965,40,110,0
168.47105,168.65465,50,110,0
168.47105,168.65465,38,110,0
169.22105,169.60411,62,80,0
169.60815,170.18477,62,80,0
169.60815,170.18477,60,80,0
170.1888,170.37831,62,80,0
170.1888,170.37831,59,80,0
170.38234,170.76541,60,80,0
170.38234,170.76541,57,80,0
170.76944,171.1525,59,80,0
170.76944,171.1525,55,80,0
171.54362,171.72722,55,110,0
171.54362,171.72722,43,110,0
171.91862,172.66472,55,110,0
171.91862,172.66472,43,110,0
172.66862,172.85222,43,110,0
172.66862,172.85222,31,110,0
173.04362,173.41472,42,110,0
173.04362,173.41472,30,110,0
173.79362,174.1767,66,80,0
174.18073,174.75734,66,80,0
174.18073,174.75734,64,80,0
174.76137,174.95088,66,80,0
174.76137,174.95088,62,80,0
174.95491,175.33798,64,80,0
174.95491,175.33798,61,80,0
175.34201,175.72508,62,80,0
175.34201,175.72508,59,80,0
176.5033,177.27347,62,80,0
176.5033,177.66055,59,80,0
177.2775,178.43475,64,80,0
176.5033,178.43475,67,80,0
177.6646,178.43475,57,80,0
178.43878,178.82184,63,80,0
178.43878,179.59604,66,80,0
178.82588,179.59604,62,80,0
179.60007,179.98314,66,80,0
179.98717,180.75732,67,80,0
180.76135,181.14442,55,80,0
181.14845,181.91861,52,80,0
181.92264,182.30571,64,80,0
182.30974,183.12094,60,80,0
184.05399,184.54877,55,80,0
183.12541,185.2137,48,80,0
183.55399,185.2137,36,80,0
184.55399,185.2137,52,80,0
185.22064,188.20502,47,80,0
185.22064,188.20502,35,80,0
188.62065,189.81648,59,82,0
188.62065,189.81648,52,82,0
188.62065,189.81648,43,82,0
189.82065,190.61649,45,88,0
189.82065,191.01648,52,88,0
190.62065,191.01648,46,93,0
191.02065,192.21648,47,95,0
192.22064,193.01648,55,80,0
192.22064,193.01648,48,80,0
193.02065,193.21648,47,80,0
193.22064,193.41647,45,80,0
193.42064,194.21648,43,80,0
193.42064,194.61649,59,80,0
193.42064,194.61649,52,80,0
194.22064,194.61649,44,80,0
194.62065,195.47333,45,80,0
195.47778,195.9019,46,80,0
195.90636,197.46935,47,80,0
195.90636,197.46935,35,80,0
197.47716,198.32538,52,80,0
197.47716,198.32538,40,80,0
199.19145,199.57451,43,80,0
199.19145,199.57451,31,80,0
199.57854,200.3487,43,80,0
199.57854,200.3487,31,80,0
200.35274,200.72383,48,80,0
200.35274,200.72383,36,80,0
200.72774,201.47383,48,80,0
200.72774,201.47383,36,80,0
201.47774,201.84883,55,80,0
201.47774,201.84883,43,80,0
201.85274,202.59883,55,80,0
201.85274,202.59883,43,80,0
202.60274,202.97383,60,80,0
202.60274,202.97383,48,80,0
202.97774,203.72383,60,80,0
202.97774,203.72383,48,80,0
203.72774,203.91133,65,110,0
203.72774,203.91133,62,110,0
203.72774,203.91133,59,110,0
203.72774,203.91133,67,110,0
204.10274,204.66133,65,110,0
204.10274,204.66133,62,110,0
204.10274,204.66133,59,110,0
204.10274,204.66133,67,110,0
207.10274,207.28633,47,110,0
207.10274,207.28633,35,110,0
207.47774,207.66133,48,110,0
207.47774,207.66133,36,110,0
208.22774,208.41133,62,110,0
208.22774,208.41133,59,110,0
208.22774,208.41133,56,110,0
208.22774,208.41133,52,110,0
208.60274,209.16133,62,110,0
208.60274,209.16133,59,110,0
208.60274,209.16133,56,110,0
208.60274,209.16133,52,110,0
211.60274,211.78633,44,110,0
211.60274,211.78633,32,110,0
211.97774,212.16133,45,110,0
211.97774,212.16133,33,110,0
212.72774,212.92357,57,80,0
212.72774,212.92357,48,80,0
212.72774,212.92357,41,80,0
213.12773,215.12357,41,80,0
213.12773,215.12357,48,80,0
213.12773,215.12357,57,80,0
215.12773,215.52356,48,80,0
215.12773,215.52356,41,80,0
215.52774,216.32356,48,80,0
215.52774,216.32356,41,80,0
216.32773,216.7108,48,80,0
216.32773,216.7108,41,80,0
216.71483,217.48499,48,80,0
216.71483,217.48499,41,80,0
217.48903,217.86012,57,80,0
217.48903,217.86012,48,80,0
217.48903,217.86012,42,80,0
217.86403,218.61012,57,80,0
217.86403,218.61012,48,80,0
217.86403,218.61012,42,80,0
218.61403,218.98512,57,80,0
218.61403,218.98512,48,80,0
218.61403,218.98512,42,80,0
218.98903,219.73512,57,80,0
218.98903,219.73512,48,80,0
218.98903,219.73512,42,80,0
219.73903,220.11012,57,80,0
219.73903,220.11012,48,80,0
219.73903,220.11012,42,80,0
220.11403,221.98512,42,80,0
220.11403,221.98512,47,80,0
220.11403,221.98512,57,80,0
221.98903,222.36012,57,110,0
221.98903,222.36012,47,110,0
221.98903,222.36012,42,110,0
222.36403,222.54762,55,110,0
222.36403,222.54762,47,110,0
222.36403,222.54762,43,110,0
222.55153,222.73512,59,110,0
222.55153,222.73512,55,110,0
222.73903,222.92262,59,110,0
222.73903,222.92262,55,110,0
222.92653,223.11012,59,110,0
222.92653,223.11012,55,110,0
223.11403,223.29762,59,110,0
223.11403,223.29762,55,110,0
223.30153,223.48512,59,110,0
223.30153,223.48512,55,110,0
223.48903,223.67262,59,110,0
223.48903,223.67262,56,110,0
223.67653,223.86012,59,110,0
223.67653,223.86012,56,110,0
223.86403,224.04762,59,110,0
223.86403,224.04762,56,110,0
224.05153,224.23512,59,110,0
224.05153,224.23512,56,110,0
224.23903,224.42262,59,110,0
224.23903,224.42262,56,110,0
224.42653,224.61012,59,110,0
224.42653,224.61012,56,110,0
224.61403,224.79762,62,110,0
224.61403,224.79762,59,110,0
224.61403,224.79762,56,110,0
224.80153,224.98512,62,110,0
224.80153,224.98512,59,110,0
224.80153,224.98512,56,110,0
224.98903,225.17262,60,110,0
224.98903,225.17262,57,110,0
225.17653,225.36012,60,110,0
225.17653,225.36012,57,110,0
225.36403,225.54762,60,110,0
225.36403,225.54762,57,110,0
225.55153,225.73512,60,110,0
225.55153,225.73512,57,110,0
225.73903,225.92262,64,110,0
225.73903,225.92262,60,110,0
225.73903,225.92262,57,110,0
225.92653,226.11012,64,110,0
225.92653,226.11012,60,110,0
225.92653,226.11012,57,110,0
226.11403,226.29762,62,110,0
226.11403,226.29762,59,110,0
226.30153,226.48512,62,110,0
226.30153,226.48512,59,110,0
226.48903,226.67262,62,110,0
226.48903,226.67262,59,110,0
226.67653,226.86012,62,110,0
226.67653,226.86012,59,110,0
226.86403,227.04762,64,110,0
226.86403,227.04762,62,110,0
226.86403,227.04762,59,110,0
227.05153,227.23512,64,110,0
227.05153,227.23512,62,110,0
227.05153,227.23512,59,110,0
227.23903,227.42262,64,110,0
227.23903,227.42262,60,110,0
227.42653,227.61012,64,110,0
227.42653,227.61012,60,110,0
227.61403,227.79762,64,110,0
227.61403,227.79762,60,110,0
227.80153,227.98512,64,110,0
227.80153,227.98512,60,110,0
227.98903,228.17262,64,110,0
227.98903,228.17262,60,110,0
228.17653,228.36012,64,110,0
228.17653,228.36012,60,110,0
228.36403,228.54762,64,110,0
228.36403,228.54762,61,110,0
228.55153,228.73512,64,110,0
228.55153,228.73512,61,110,0
228.73903,228.92262,64,110,0
228.73903,228.92262,61,110,0
228.92653,229.11012,64,110,0
228.92653,229.11012,61,110,0
229.11403,229.29762,66,70,0
229.30153,229.48512,66,70,0
229.48903,229.67262,66,70,0
229.67653,229.86012,66,70,0
229.86403,230.04762,66,70,0
230.05153,230.23512,66,70,0
230.23903,230.42262,66,70,0
230.42653,230.61012,66,78,0
230.61403,230.79762,66,86,0
230.80153,230.98512,66,94,0
230.98903,231.17854,66,102,0
231.18257,231.3924,66,110,0
231.39685,231.64165,69,120,0
231.39685,231.64165,63,120,0
231.39685,231.64165,59,120,0
231.39685,231.64165,66,120,0
231.64685,231.85667,69,120,0
231.64685,231.85667,63,120,0
231.64685,231.85667,59,120,0
231.64685,231.85667,66,120,0
231.86115,232.05698,69,120,0
231.86115,232.05698,63,120,0
231.86115,232.05698,59,120,0
231.86115,232.05698,66,120,0
232.06114,232.25697,69,120,0
232.06114,232.25697,63,120,0
232.06114,232.25697,59,120,0
232.06114,232.25697,66,120,0
232.26114,232.46655,69,120,0
232.26114,232.46655,63,120,0
232.26114,232.46655,59,120,0
232.26114,232.46655,66,120,0
232.47093,232.67635,69,120,0
232.47093,232.67635,63,120,0
232.47093,232.67635,59,120,0
232.47093,232.67635,66,120,0
232.68073,232.89359,69,115,0
232.68073,232.89359,63,115,0
232.68073,232.89359,59,115,0
232.68073,232.89359,66,115,0
232.89812,233.11098,69,111,0
232.89812,233.11098,63,111,0
232.89812,233.11098,59,111,0
232.89812,233.11098,66,111,0
233.11551,233.32837,69,106,0
233.11551,233.32837,63,106,0
233.11551,233.32837,59,106,0
233.11551,233.32837,66,106,0
233.3329,233.54576,69,101,0
233.3329,233.54576,63,101,0
233.3329,233.54576,59,101,0
233.3329,233.54576,66,101,0
233.55028,233.79507,69,96,0
233.55028,233.79507,63,96,0
233.55028,233.79507,59,96,0
233.55028,233.79507,66,96,0
233.80028,234.16747,69,91,0
233.80028,234.16747,63,91,0
233.80028,234.16747,59,91,0
233.80028,234.16747,66,91,0
234.17528,234.4409,52,80,0
234.36278,234.53075,67,80,0
234.45653,234.6245,59,80,0
234.55028,234.71434,67,80,0
234.64403,234.82372,54,80,0
234.73778,234.90965,69,80,0
234.83153,235.01122,59,80,0
234.92528,235.09325,69,80,0
235.01903,235.19481,55,80,0
235.11278,235.27684,71,80,0
235.20653,235.3745,59,80,0
235.30028,235.46434,71,80,0
235.39403,235.55809,52,80,0
235.48778,235.65184,67,80,0
235.58153,235.74168,59,80,0
235.67528,235.85497,67,80,0
235.76903,235.94481,54,80,0
235.86278,236.03465,69,80,0
235.95653,236.11278,59,80,0
236.05028,236.23387,69,80,0
236.14403,236.30809,55,80,0
236.23778,236.41747,71,80,0
236.33153,236.51122,59,80,0
236.42528,236.60106,71,80,0
236.51903,236.67918,52,80,0
236.61278,236.79247,67,80,0
236.70653,236.87059,59,80,0
236.80028,236.97215,67,80,0
236.89403,237.05809,54,80,0
236.98778,237.17137,69,80,0
237.08153,237.2495,59,80,0
237.17528,237.33934,69,80,0
237.26903,237.45262,55,80,0
237.36278,237.52293,71,80,0
237.45653,237.63231,59,80,0
237.55028,237.73387,71,80,0
237.64403,237.80028,52,80,0
237.73778,237.89403,67,80,0
237.83153,237.9995,59,80,0
237.92528,238.09715,67,80,0
238.01903,238.1909,54,80,0
238.11278,238.27684,69,80,0
238.20653,238.3745,59,80,0
238.30028,238.47215,69,80,0
238.39403,238.55809,55,80,0
238.48778,238.65575,71,80,0
238.58153,238.7495,59,80,0
238.67528,238.84325,71,80,0
238.76903,238.937,57,80,0
238.86278,239.03465,67,80,0
238.95653,239.12059,64,80,0
239.05028,239.22215,67,80,0
239.14403,239.312,58,80,0
239.23778,239.40965,67,80,0
239.33153,239.51512,64,80,0
239.42528,239.60887,67,80,0
239.51903,239.69481,59,80,0
239.61278,239.79637,67,80,0
239.70653,239.88231,64,80,0
239.80028,239.96825,67,80,0
239.89403,240.05809,59,80,0
239.98778,240.14793,67,80,0
240.08153,240.23778,64,80,0
240.17528,240.34325,67,80,0
240.26903,240.43309,59,80,0
240.36278,240.53075,67,80,0
240.45653,240.6245,64,80,0
240.55028,240.72215,67,80,0
240.64403,240.8159,59,80,0
240.73778,240.90965,69,80,0
240.83153,240.99559,66,80,0
240.92528,241.10497,69,80,0
241.01903,241.19872,40,80,0
241.11278,241.28856,55,80,0
241.20653,241.38622,47,80,0
241.30028,241.47997,55,80,0
241.39403,241.56981,42,80,0
241.48778,241.65965,57,80,0
241.58153,241.76512,47,80,0
241.67528,241.85106,57,80,0
241.76903,241.94481,43,80,0
241.86278,242.02684,59,80,0
241.95653,242.11668,47,80,0
242.05028,242.22606,59,80,0
242.14403,242.32372,40,80,0
242.23778,242.40575,55,80,0
242.33153,242.49168,47,80,0
242.42528,242.58543,55,80,0
242.51903,242.70262,42,80,0
242.61278,242.77684,57,80,0
242.70653,242.8784,47,80,0
242.80028,242.96825,57,80,0
242.89403,243.0659,43,80,0
242.98778,243.15184,59,80,0
243.08153,243.2495,47,80,0
243.17528,243.34325,59,80,0
243.26903,243.4409,40,80,0
243.36278,243.52684,55,80,0
243.45653,243.63231,47,80,0
243.55028,243.71434,55,80,0
243.64403,243.8159,42,80,0
243.73778,243.90965,57,80,0
243.83153,243.99168,47,80,0
243.92528,244.10497,57,80,0
244.01903,244.1909,43,80,0
244.11278,244.27684,59,80,0
244.20653,244.36668,47,80,0
244.30028,244.46825,59,80,0
244.39403,244.55809,40,80,0
244.48778,244.65965,55,80,0
244.58153,244.76122,47,80,0
244.67528,244.85887,55,80,0
244.76903,244.9409,42,80,0
244.86278,245.03856,57,80,0
244.95653,245.1284,47,80,0
245.05028,245.20653,57,80,0
245.14403,245.30418,43,80,0
245.23778,245.39793,59,80,0
245.33153,245.49168,47,80,0
245.42528,245.58543,59,80,0
245.51903,245.68309,45,80,0
245.61278,245.78075,55,80,0
245.70653,245.8745,52,80,0
245.80028,245.97606,55,80,0
245.89403,246.062,46,80,0
245.98778,246.14793,55,80,0
246.08153,246.25731,52,80,0
246.17528,246.34325,55,80,0
246.26903,246.43309,47,80,0
246.36278,246.53075,55,80,0
246.45653,246.6284,52,80,0
246.55028,246.64012,55,80,0
246.64403,247.30724,47,80,0
247.3107,247.64056,35,80,0
247.64403,247.80722,40,110,0
247.8107,247.97389,42,110,0
247.8107,247.97389,54,110,0
247.97737,248.14056,43,110,0
247.97737,248.14056,55,110,0
248.14403,248.30722,45,110,0
248.14403,248.30722,57,110,0
248.3107,249.76512,47,120,0
248.3107,249.76512,59,120,0
249.76903,250.89012,57,80,0
249.76903,250.89012,45,80,0
250.89403,252.01512,59,80,0
250.89403,252.01512,47,80,0
252.01903,252.20262,28,110,0
252.01903,252.20262,40,110,0
252.20653,252.39012,30,110,0
252.20653,252.39012,42,110,0
252.39403,252.57762,31,110,0
252.39403,252.57762,43,110,0
252.58153,252.76512,33,110,0
252.58153,252.76512,45,110,0
252.76903,254.26512,35,120,0
252.76903,254.26512,47,120,0
254.26903,255.39012,45,80,0
254.26903,255.39012,33,80,0
255.39403,256.51514,47,80,0
255.39403,256.51514,35,80,0
257.65613,258.8932,47,80,0
257.65613,258.8932,40,80,0
260.11218,261.26944,47,78,0
260.11218,261.26944,35,78,0
261.27347,261.65656,40,77,0
262.43475,263.592,59,77,0
262.43475,263.592,47,77,0
264.75735,265.99442,59,75,0
264.75735,265.99442,52,75,0
267.2134,268.37067,59,73,0
267.2134,268.37067,47,73,0
268.3747,268.77054,52,72,0
269.57468,270.85593,71,71,0
271.71756,272.54196,72,80,0
272.5461,272.94196,71,80,0
272.9461,273.34195,69,80,0
272.9461,273.34195,66,80,0
273.34613,273.94196,67,80,0
273.34613,273.94196,64,80,0
273.9461,274.14194,69,80,0
273.9461,274.14194,66,80,0
274.14612,274.54196,67,80,0
274.5461,274.94196,69,80,0
274.5461,274.94196,66,80,0
274.5461,274.94196,62,80,0
275.34613,275.74194,74,80,0
275.74612,276.34195,74,80,0
275.74612,276.34195,72,80,0
276.34613,276.54196,74,80,0
276.34613,276.54196,71,80,0
276.5461,276.94196,72,80,0
276.5461,276.94196,69,80,0
276.9461,277.3702,71,80,0
276.9461,277.3702,67,80,0
277.80325,278.22736,79,80,0
278.23184,278.93817,79,80,0
278.94336,279.18817,78,80,0
279.19336,279.7871,76,80,0
279.79337,281.27774,75,80,0
283.19336,284.3892,59,80,0
283.19336,284.3892,52,80,0
283.19336,284.3892,43,80,0
284.39337,285.1892,45,85,0
285.19336,285.5892,46,95,0
285.59335,286.7892,47,100,0
286.79337,287.5892,55,86,0
286.79337,287.5892,48,86,0
287.59335,287.7892,47,80,0
287.59335,287.7892,35,80,0
287.79337,287.9892,45,83,0
287.79337,287.9892,33,83,0
287.99338,288.84604,43,86,0
287.99338,288.84604,31,86,0
288.8505,289.27463,44,100,0
288.8505,289.27463,32,100,0
289.27908,290.19736,45,100,0
289.27908,290.19736,33,100,0
290.20215,290.71848,46,81,0
290.20215,290.71848,34,81,0
290.7239,292.6929,47,70,0
290.7239,292.6929,35,70,0
292.7033,295.6929,40,70,0
