start_time,end_time,note_value,velocity,instrument_program_number
0.428571,0.63392794,64,80,0
0.6428565,0.84821343,66,80,0
0.857142,1.0488087,64,80,0
1.057142,1.2488086,59,80,0
1.257142,1.4368294,64,80,0
0.857142,1.6243294,68,80,0
1.444642,1.6243294,59,80,0
1.632142,1.8118294,68,80,0
1.632142,1.9993294,71,80,0
1.819642,1.9993294,59,80,0
2.007142,2.1868296,66,80,0
2.007142,2.3743296,69,80,0
2.194642,2.3743296,59,80,0
2.382142,2.5618296,64,80,0
2.382142,2.7493296,68,80,0
2.569642,2.7493296,59,80,0
2.757142,2.9368296,63,80,0
2.757142,3.1243296,66,80,0
2.944642,3.1243296,59,80,0
3.132142,3.3118296,63,80,0
3.132142,3.4993296,66,80,0
3.319642,3.4993296,59,80,0
3.507142,3.6868296,64,80,0
3.507142,3.8743296,68,80,0
3.694642,3.8743296,59,80,0
3.882142,4.0618296,64,80,0
3.882142,4.2493296,69,80,0
4.069642,4.2493296,59,80,0
4.257142,4.4368296,64,80,0
4.257142,4.6243296,73,80,0
4.444642,4.6243296,59,80,0
4.632142,4.8118296,66,80,0
4.632142,4.9993296,71,80,0
4.819642,4.9993296,59,80,0
5.007142,5.1868296,63,80,0
5.007142,5.3743296,66,80,0
5.194642,5.3743296,59,80,0
5.382142,6.1243296,68,80,0
5.382142,6.1243296,64,80,0
5.382142,6.1243296,59,80,0
6.507142,6.6868296,76,80,0
6.694642,6.8743296,78,80,0
6.882142,7.6243296,80,80,0
6.882142,7.6243296,68,80,0
7.632142,7.9993296,83,80,0
7.632142,7.9993296,71,80,0
8.007142,8.37433,81,80,0
8.007142,8.37433,69,80,0
8.382142,8.74933,80,80,0
8.382142,8.74933,68,80,0
8.757142,9.12433,78,80,0
8.757142,9.12433,66,80,0
9.132142,9.49933,78,80,0
9.132142,9.49933,66,80,0
9.507142,9.87433,80,80,0
9.507142,9.87433,68,80,0
9.882142,10.24933,81,80,0
9.882142,10.24933,69,80,0
10.257142,10.62433,85,80,0
10.257142,10.62433,73,80,0
10.632142,10.99933,83,80,0
10.632142,10.99933,71,80,0
11.007142,11.37433,87,80,0
11.007142,11.37433,75,80,0
11.382142,12.12433,88,80,0
11.382142,12.12433,76,80,0
12.507142,12.87433,71,80,0
12.882142,13.62433,70,80,0
13.632142,14.37433,76,80,0
14.382142,15.49933,75,80,0
15.507142,15.87433,69,80,0
15.882142,16.624329,68,80,0
16.632141,17.374329,74,80,0
17.382141,18.499329,73,80,0
18.507141,18.874329,73,80,0
18.882141,19.249329,72,82,0
19.257141,19.624329,73,84,0
19.632141,19.999329,69,87,0
19.632141,19.999329,64,87,0
19.632141,19.999329,61,87,0
20.007141,20.374329,68,89,0
20.007141,20.374329,64,89,0
20.007141,20.374329,59,89,0
20.382141,20.749329,68,91,0
20.382141,21.124329,58,91,0
20.382141,21.124329,64,91,0
20.757141,21.499329,66,94,0
21.132141,21.874329,64,96,0
21.132141,21.874329,57,96,0
21.507141,21.874329,66,98,0
21.882141,22.249329,66,80,0
21.882141,22.249329,63,80,0
21.882141,22.249329,57,80,0
22.257141,22.624329,71,80,0
22.257141,22.624329,63,80,0
22.632141,22.999329,70,80,0
23.007141,23.374329,71,80,0
23.007141,23.374329,63,80,0
23.382141,24.124329,64,80,0
24.507141,24.874329,83,80,0
24.507141,24.874329,71,80,0
24.882141,25.624329,70,80,0
24.882141,25.624329,82,80,0
25.632141,26.374329,76,80,0
25.632141,26.374329,88,80,0
26.382141,27.499329,87,80,0
26.382141,27.499329,75,80,0
27.507141,27.874329,81,80,0
27.507141,27.874329,69,80,0
27.882141,28.624329,80,80,0
27.882141,28.624329,68,80,0
28.632141,29.374329,86,80,0
28.632141,29.374329,74,80,0
29.382141,30.499329,73,80,0
29.382141,30.499329,85,80,0
30.507141,30.874329,85,80,0
30.507141,30.874329,73,80,0
30.882141,31.249329,72,82,0
30.882141,31.249329,84,82,0
31.257141,31.624329,85,84,0
31.257141,31.624329,73,84,0
31.632141,31.999329,81,87,0
31.632141,31.999329,69,87,0
32.00714,32.37433,80,89,0
32.00714,32.37433,68,89,0
32.38214,32.74933,80,91,0
32.38214,32.74933,68,91,0
32.75714,33.49933,78,94,0
32.75714,33.49933,66,94,0
33.50714,33.87433,78,98,0
33.50714,33.87433,66,98,0
33.88214,34.24933,78,80,0
33.88214,34.24933,66,80,0
34.25714,34.62433,83,80,0
34.25714,34.62433,71,80,0
34.63214,34.99933,82,80,0
34.63214,34.99933,70,80,0
35.00714,35.37433,83,80,0
35.00714,35.37433,71,80,0
35.38214,36.12433,76,80,0
35.38214,36.12433,64,80,0
36.532143,36.7375,64,80,0
36.746426,36.951786,66,80,0
36.960712,37.152378,64,80,0
37.160713,37.35238,59,80,0
37.360714,37.5404,64,80,0
36.960712,37.7279,68,80,0
37.548214,37.7279,59,80,0
37.735714,37.9154,68,80,0
37.735714,38.1029,71,80,0
37.923214,38.1029,59,80,0
38.110714,38.2904,66,80,0
38.110714,38.4779,69,80,0
38.298214,38.4779,59,80,0
38.485714,38.6654,64,80,0
38.485714,38.8529,68,80,0
38.673214,38.8529,59,80,0
38.860714,39.0404,63,80,0
38.860714,39.2279,66,80,0
39.048214,39.2279,59,80,0
39.235714,39.4154,63,80,0
39.235714,39.6029,66,80,0
39.423214,39.6029,59,80,0
39.610714,39.7904,64,80,0
39.610714,39.9779,68,80,0
39.798214,39.9779,59,80,0
39.985714,40.1654,64,80,0
39.985714,40.3529,69,80,0
40.173214,40.3529,59,80,0
40.360714,40.5404,64,80,0
40.360714,40.7279,73,80,0
40.548214,40.7279,59,80,0
40.735714,40.9154,66,80,0
40.735714,41.1029,71,80,0
40.923214,41.1029,59,80,0
41.110714,41.2904,63,80,0
41.110714,41.4779,66,80,0
41.298214,41.4779,59,80,0
41.485714,42.2279,68,80,0
41.485714,42.2279,64,80,0
41.485714,42.2279,59,80,0
42.235714,42.2904,78,80,0
42.298214,42.4154,76,80,0
42.423214,42.6029,75,81,0
42.610714,42.7904,76,82,0
42.798214,42.9779,78,83,0
42.985714,43.0404,81,84,0
43.048214,43.1654,80,85,0
43.173214,43.3529,78,85,0
43.360714,43.5404,80,87,0
43.548214,43.7279,81,88,0
43.735714,44.1029,83,89,0
43.735714,44.1029,71,89,0
44.110714,44.4779,81,91,0
44.110714,44.4779,69,91,0
44.485714,44.8529,68,94,0
44.485714,44.8529,80,94,0
44.860714,45.2279,78,96,0
44.860714,45.2279,66,96,0
45.235714,45.6029,78,99,0
45.235714,45.6029,66,99,0
45.610714,45.9779,80,101,0
45.610714,45.9779,68,101,0
45.985714,46.3529,81,103,0
45.985714,46.3529,69,103,0
46.360714,46.7279,85,106,0
46.360714,46.7279,73,106,0
46.735714,47.1029,83,108,0
46.735714,47.1029,71,108,0
47.110714,47.4779,87,110,0
47.110714,47.4779,81,110,0
47.110714,47.4779,75,110,0
47.485714,48.277378,88,110,0
47.485714,48.277378,80,110,0
47.485714,48.277378,76,110,0
48.685715,49.062317,68,110,0
48.685715,49.062317,64,110,0
49.070328,50.170303,68,110,0
49.070328,50.170303,64,110,0
50.177834,50.53175,76,80,0
50.177834,50.53175,68,80,0
50.177834,50.53175,64,80,0
50.53928,51.616085,75,80,0
50.53928,51.616085,68,80,0
50.53928,51.616085,66,80,0
50.53928,51.616085,63,80,0
51.623615,51.97753,68,110,0
51.623615,51.97753,66,110,0
51.623615,51.97753,63,110,0
51.98506,53.061867,68,110,0
51.98506,53.061867,66,110,0
51.98506,53.061867,63,110,0
53.069397,53.423313,75,80,0
53.069397,53.423313,68,80,0
53.069397,53.423313,66,80,0
53.069397,53.423313,63,80,0
53.430843,54.50765,76,80,0
53.430843,54.50765,68,80,0
53.430843,54.50765,64,80,0
54.51518,54.869095,68,110,0
54.51518,54.869095,64,110,0
54.876625,55.95343,68,110,0
54.876625,55.95343,64,110,0
55.96096,56.314877,76,80,0
55.96096,56.314877,68,80,0
55.96096,56.314877,64,80,0
56.322407,57.399216,76,80,0
56.322407,57.399216,66,80,0
56.322407,57.399216,64,80,0
57.406742,57.76066,64,110,0
57.406742,57.76066,61,110,0
57.76819,58.916645,59,110,0
57.76819,58.916645,64,110,0
58.92521,59.377132,76,110,0
58.92521,59.377132,71,110,0
58.92521,59.377132,64,110,0
59.386745,59.80639,76,110,0
59.386745,59.80639,73,110,0
59.386745,59.80639,70,110,0
59.386745,59.80639,64,110,0
60.965317,62.082504,76,80,0
60.965317,62.082504,85,80,0
62.090317,62.457504,83,80,0
62.090317,62.457504,75,80,0
62.465317,62.832504,83,80,0
62.465317,62.832504,75,80,0
62.840317,63.207504,82,80,0
62.840317,63.207504,73,80,0
63.215317,63.582504,82,80,0
63.215317,63.582504,73,80,0
63.590317,63.957504,83,80,0
63.590317,63.957504,75,80,0
63.965317,65.082504,85,80,0
63.965317,65.082504,76,80,0
65.09032,65.457504,83,80,0
65.09032,65.457504,75,80,0
65.46532,65.832504,82,80,0
65.46532,65.832504,73,80,0
65.84032,66.207504,76,80,0
65.84032,66.207504,85,80,0
66.21532,66.582504,75,80,0
66.21532,66.582504,83,80,0
66.59032,66.957504,73,80,0
66.59032,66.957504,82,80,0
66.96532,67.332504,83,80,0
66.96532,67.332504,78,80,0
67.34032,67.707504,82,80,0
67.71532,68.082504,80,80,0
68.09032,68.457504,78,80,0
68.46532,68.832504,80,80,0
68.84032,69.207504,78,80,0
69.21532,69.582504,76,80,0
69.59032,69.957504,75,80,0
69.96532,71.10183,75,80,0
71.110054,71.30697,76,80,0
71.31554,71.51245,78,80,0
71.52101,71.92341,73,80,0
71.93197,72.12112,78,80,0
72.12934,72.31848,80,80,0
72.326706,72.50639,78,80,0
72.514206,72.69389,80,80,0
72.701706,72.88139,78,80,0
72.889206,73.06889,80,80,0
73.076706,73.25639,78,80,0
73.264206,73.44389,80,80,0
73.451706,73.63139,78,80,0
73.639206,73.81889,80,80,0
73.826706,74.00639,78,80,0
73.076706,74.19389,85,80,0
73.076706,74.19389,88,80,0
74.014206,74.19389,80,80,0
74.201706,74.38139,78,80,0
74.201706,74.56889,87,80,0
74.201706,74.56889,83,80,0
74.389206,74.56889,80,80,0
74.576706,74.75639,78,80,0
74.576706,74.94389,87,80,0
74.576706,74.94389,83,80,0
74.764206,74.94389,80,80,0
74.951706,75.13139,78,80,0
74.951706,75.31889,85,80,0
74.951706,75.31889,82,80,0
75.139206,75.31889,80,80,0
75.326706,75.50639,78,80,0
75.326706,75.69389,85,80,0
75.326706,75.69389,82,80,0
75.514206,75.69389,80,80,0
75.701706,75.88139,78,80,0
75.701706,76.06889,87,80,0
75.701706,76.06889,83,80,0
75.889206,76.06889,80,80,0
76.076706,76.25639,78,80,0
76.264206,76.44389,80,81,0
76.451706,76.63139,78,83,0
76.639206,76.81889,80,85,0
76.826706,77.00639,78,87,0
76.076706,77.19389,88,80,0
76.076706,77.19389,85,80,0
77.014206,77.19389,80,89,0
77.201706,77.38139,78,91,0
77.201706,77.56889,87,91,0
77.201706,77.56889,83,91,0
77.389206,77.56889,80,93,0
77.576706,77.94389,85,95,0
77.576706,77.94389,82,95,0
77.764206,77.94389,78,97,0
77.951706,78.31889,92,99,0
77.951706,78.31889,88,99,0
78.139206,78.31889,78,101,0
78.326706,78.69389,90,103,0
78.326706,78.69389,87,103,0
78.514206,78.69389,78,105,0
78.701706,79.06889,88,107,0
78.701706,79.06889,85,107,0
78.889206,79.06889,78,109,0
79.076706,79.44389,83,110,0
79.076706,79.44389,87,110,0
79.264206,79.44389,78,109,0
79.451706,79.81889,87,108,0
79.451706,79.81889,90,108,0
79.639206,79.81889,78,107,0
79.826706,80.19389,85,105,0
79.826706,80.19389,88,105,0
80.014206,80.19389,78,104,0
80.201706,80.56889,83,103,0
80.201706,80.56889,87,103,0
80.389206,80.56889,78,101,0
80.576706,80.94389,82,100,0
80.576706,80.94389,85,100,0
80.764206,80.94389,78,99,0
80.951706,81.31889,85,97,0
80.951706,81.31889,88,97,0
81.139206,81.31889,78,96,0
81.326706,81.69389,83,95,0
81.326706,81.69389,87,95,0
81.514206,81.69389,78,94,0
81.701706,82.06889,82,92,0
81.701706,82.06889,85,92,0
81.889206,82.06889,78,91,0
82.076706,82.44389,83,90,0
82.264206,82.44389,78,88,0
82.451706,82.81889,81,87,0
82.639206,82.81889,72,86,0
82.826706,83.218376,80,84,0
83.02671,83.218376,72,83,0
83.22671,83.64635,80,82,0
83.440994,83.64635,72,81,0
83.65528,83.860634,80,70,0
83.65528,83.860634,72,70,0
83.86956,84.07492,68,70,0
84.08385,84.27551,70,70,0
84.28385,84.47552,72,70,0
84.48385,84.538536,75,70,0
84.54635,84.663536,73,70,0
84.67135,84.851036,72,70,0
84.85885,85.038536,73,70,0
85.04635,85.226036,75,70,0
85.23385,85.413536,76,70,0
85.42135,85.601036,72,70,0
85.60885,85.788536,73,70,0
85.79635,85.976036,75,70,0
85.98385,86.038536,78,70,0
86.04635,86.163536,76,70,0
86.17135,86.351036,75,70,0
86.35885,86.538536,76,70,0
86.54635,86.726036,78,70,0
86.73385,86.913536,80,70,0
86.92135,87.101036,78,70,0
87.10885,87.288536,76,70,0
87.29635,87.476036,75,70,0
87.48385,87.663536,76,70,0
87.67135,87.851036,75,70,0
87.85885,88.038536,73,70,0
88.04635,88.226036,80,70,0
88.23385,88.425514,75,70,0
88.43385,88.62552,73,70,0
88.63385,88.825516,71,70,0
88.83385,89.02551,78,70,0
89.03385,89.239204,73,70,0
89.24814,89.45349,71,70,0
89.46242,89.66778,70,70,0
89.676704,89.882065,78,70,0
89.89099,91.38318,78,80,0
89.89099,91.38318,75,80,0
89.89099,91.38318,66,80,0
91.39099,92.13318,76,80,0
91.39099,92.13318,73,80,0
91.39099,92.13318,64,80,0
92.14099,92.88318,75,80,0
92.14099,92.88318,71,80,0
92.14099,92.88318,63,80,0
92.89099,93.63318,73,80,0
92.89099,93.63318,68,80,0
93.64099,94.38318,68,80,0
93.64099,95.13318,71,80,0
94.39099,95.13318,66,80,0
95.14099,95.50818,70,80,0
95.14099,95.88318,66,80,0
95.51599,95.88318,78,80,0
95.89099,97.38318,78,80,0
95.89099,97.38318,69,80,0
95.89099,97.38318,66,80,0
97.39099,98.13318,76,87,0
97.39099,98.13318,69,87,0
97.39099,98.13318,64,87,0
98.14099,98.88318,75,91,0
98.14099,98.88318,69,91,0
98.14099,98.88318,66,91,0
98.14099,98.88318,63,91,0
98.89099,99.63318,73,95,0
98.89099,99.63318,69,95,0
99.64099,101.13318,63,99,0
99.64099,101.13318,69,99,0
99.64099,101.13318,71,99,0
101.14099,101.88318,69,107,0
101.14099,101.88318,66,107,0
101.14099,101.88318,63,107,0
101.89099,102.07068,69,110,0
102.07849,102.25818,75,106,0
102.26599,102.44568,78,102,0
102.45349,102.63318,75,98,0
102.64099,102.83266,81,93,0
102.84099,103.03266,87,89,0
103.04099,103.246346,90,85,0
103.25528,103.46063,87,81,0
103.46956,104.31778,93,80,0
104.54099,104.746346,63,80,0
104.75527,104.96063,64,80,0
104.96956,105.17492,66,80,0
105.183846,105.389206,64,80,0
105.39813,105.60349,59,80,0
105.61242,105.804085,64,80,0
105.183846,106.00408,68,80,0
105.812416,106.00408,59,80,0
106.01242,106.19211,68,80,0
106.01242,106.37961,71,80,0
106.19992,106.37961,59,80,0
106.38742,106.56711,66,80,0
106.38742,106.75461,69,80,0
106.57492,106.75461,59,80,0
106.76242,106.94211,64,80,0
106.76242,107.12961,68,80,0
106.94992,107.12961,59,80,0
107.13742,107.31711,63,80,0
107.13742,107.50461,66,80,0
107.32492,107.50461,59,80,0
107.51242,107.69211,63,80,0
107.51242,107.87961,66,80,0
107.69992,107.87961,59,80,0
107.88742,108.06711,64,80,0
107.88742,108.25461,68,80,0
108.07492,108.25461,59,80,0
108.26242,108.44211,64,80,0
108.26242,108.62961,69,80,0
108.44992,108.62961,59,80,0
108.63742,108.81711,64,80,0
108.63742,109.00461,73,80,0
108.82492,109.00461,59,80,0
109.01242,109.19211,66,80,0
109.01242,109.37961,71,80,0
109.19992,109.37961,59,80,0
109.38742,109.56711,63,80,0
109.38742,109.75461,66,80,0
109.57492,109.75461,59,80,0
109.76242,110.50461,68,80,0
109.76242,110.50461,64,80,0
109.76242,110.50461,59,80,0
110.88742,111.06711,76,80,0
111.07492,111.25461,78,80,0
111.26242,112.00461,80,80,0
111.26242,112.00461,68,80,0
112.01242,112.37961,83,80,0
112.01242,112.37961,71,80,0
112.38742,112.75461,81,80,0
112.38742,112.75461,69,80,0
112.76242,113.12961,80,80,0
112.76242,113.12961,68,80,0
113.13742,113.50461,78,80,0
113.13742,113.50461,66,80,0
113.51242,113.87961,78,80,0
113.51242,113.87961,66,80,0
113.88742,114.25461,80,80,0
113.88742,114.25461,68,80,0
114.26242,114.62961,81,80,0
114.26242,114.62961,69,80,0
114.63742,115.00461,85,89,0
114.63742,115.00461,73,89,0
115.01242,115.37961,83,99,0
115.01242,115.37961,71,99,0
115.38742,115.75461,87,80,0
115.38742,115.75461,75,80,0
115.76242,116.50461,88,80,0
115.76242,116.50461,76,80,0
116.88742,117.25461,71,80,0
117.26242,118.00461,70,80,0
118.01242,118.75461,76,80,0
118.76242,119.87961,75,80,0
119.88742,120.25461,69,80,0
120.26242,121.00461,68,80,0
121.01242,121.75461,74,80,0
121.76242,122.87961,73,80,0
122.88742,123.25461,73,80,0
123.26242,123.62961,72,82,0
123.63742,124.00461,73,84,0
124.01242,124.37961,69,87,0
124.01242,124.37961,64,87,0
124.01242,124.37961,61,87,0
124.38742,124.75461,68,89,0
124.38742,124.75461,64,89,0
124.38742,124.75461,59,89,0
124.76242,125.12961,68,91,0
124.76242,125.50461,58,91,0
124.76242,125.50461,64,91,0
125.13742,125.87961,66,94,0
125.51242,126.25461,64,96,0
125.51242,126.25461,57,96,0
125.88742,126.25461,66,98,0
126.26242,126.62961,66,80,0
126.26242,126.62961,63,80,0
126.26242,126.62961,57,80,0
126.63742,127.00461,71,80,0
126.63742,127.00461,63,80,0
127.01242,127.37961,70,80,0
127.38742,127.75461,71,80,0
127.38742,127.75461,63,80,0
127.76242,128.50461,64,80,0
128.88742,129.25461,83,80,0
128.88742,129.25461,71,80,0
129.26242,130.00461,70,80,0
129.26242,130.00461,82,80,0
130.01242,130.75461,76,80,0
130.01242,130.75461,88,80,0
130.76242,131.87961,87,80,0
130.76242,131.87961,75,80,0
131.88742,132.25461,81,80,0
131.88742,132.25461,69,80,0
132.26242,133.00461,80,80,0
132.26242,133.00461,68,80,0
133.01242,133.75461,86,80,0
133.01242,133.75461,74,80,0
133.76242,134.87961,73,80,0
133.76242,134.87961,85,80,0
134.88742,135.25461,85,80,0
134.88742,135.25461,73,80,0
135.26242,135.62961,72,82,0
135.26242,135.62961,84,82,0
135.63742,136.00461,85,84,0
135.63742,136.00461,73,84,0
136.01242,136.37961,81,87,0
136.01242,136.37961,69,87,0
136.38742,136.75461,80,89,0
136.38742,136.75461,68,89,0
136.76242,137.12961,80,91,0
136.76242,137.12961,68,91,0
137.13742,137.87961,78,94,0
137.13742,137.87961,66,94,0
137.88742,138.25461,78,98,0
137.88742,138.25461,66,98,0
138.26242,138.62961,78,80,0
138.26242,138.62961,66,80,0
138.63742,139.00461,83,80,0
138.63742,139.00461,71,80,0
139.01242,139.37961,82,80,0
139.01242,139.37961,70,80,0
139.38742,139.75461,83,80,0
139.38742,139.75461,71,80,0
139.76242,140.50461,76,80,0
139.76242,140.50461,64,80,0
140.91241,141.11777,64,80,0
141.12671,141.33206,66,80,0
141.34099,141.54634,64,80,0
141.55527,141.76064,59,80,0
141.76956,141.96123,64,80,0
141.34099,142.16122,68,80,0
141.96956,142.16122,59,80,0
142.16956,142.34924,68,80,0
142.16956,142.53674,71,80,0
142.35706,142.53674,59,80,0
142.54456,142.72424,66,80,0
142.54456,142.91174,69,80,0
142.73206,142.91174,59,80,0
142.91956,143.09924,64,80,0
142.91956,143.28674,68,80,0
143.10706,143.28674,59,80,0
143.29456,143.47424,63,80,0
143.29456,143.66174,66,80,0
143.48206,143.66174,59,80,0
143.66956,143.84924,63,80,0
143.66956,144.03674,66,80,0
143.85706,144.03674,59,80,0
144.04456,144.22424,64,80,0
144.04456,144.41174,68,80,0
144.23206,144.41174,59,80,0
144.41956,144.59924,64,80,0
144.41956,144.78674,69,80,0
144.60706,144.78674,59,80,0
144.79456,144.97424,64,80,0
144.79456,145.16174,73,80,0
144.98206,145.16174,59,80,0
145.16956,145.34924,66,80,0
145.16956,145.53674,71,80,0
145.35706,145.53674,59,80,0
145.54456,145.72424,63,80,0
145.54456,145.91174,66,80,0
145.73206,145.91174,59,80,0
145.91956,146.66174,68,80,0
145.91956,146.66174,64,80,0
145.91956,146.66174,59,80,0
146.66956,146.72424,78,80,0
146.73206,146.84924,76,80,0
146.85706,147.03674,75,81,0
147.04456,147.22424,76,82,0
147.23206,147.41174,78,83,0
147.41956,147.47424,81,84,0
147.48206,147.59924,80,84,0
147.60706,147.78674,78,85,0
147.79456,147.97424,80,86,0
147.98206,148.16174,81,87,0
148.16956,148.53674,83,88,0
148.16956,148.53674,71,88,0
148.54456,148.91174,81,91,0
148.54456,148.91174,69,91,0
148.91956,149.28674,68,93,0
148.91956,149.28674,80,93,0
149.29456,149.66174,78,95,0
149.29456,149.66174,66,95,0
149.66956,150.03674,78,97,0
149.66956,150.03674,66,97,0
150.04456,150.41174,80,99,0
150.04456,150.41174,68,99,0
150.41956,150.78674,81,102,0
150.41956,150.78674,69,102,0
150.79456,151.16174,85,104,0
150.79456,151.16174,73,104,0
151.16956,151.53674,83,106,0
151.16956,151.53674,71,106,0
151.54456,151.91174,87,108,0
151.54456,151.91174,81,108,0
151.54456,151.91174,75,108,0
151.91956,152.66174,88,110,0
151.91956,152.66174,80,110,0
151.91956,152.66174,76,110,0
153.04456,153.41174,68,80,0
153.04456,153.41174,64,80,0
153.41956,153.78674,69,80,0
153.41956,154.16174,63,80,0
153.79456,154.16174,73,80,0
154.16956,154.53674,71,80,0
154.16956,154.53674,64,80,0
154.54456,154.91174,69,80,0
154.54456,154.91174,75,80,0
154.91956,155.28674,68,80,0
154.91956,156.03674,76,80,0
155.29456,156.03674,67,80,0
156.04456,156.41174,79,80,0
156.41956,156.78674,81,80,0
156.79456,157.16174,84,88,0
157.16956,157.53674,83,97,0
157.54456,157.91174,87,105,0
157.54456,157.91174,81,105,0
157.54456,157.91174,75,105,0
157.91956,158.66174,88,110,0
157.91956,158.66174,79,110,0
157.91956,158.66174,76,110,0
159.04456,159.41174,67,80,0
159.41956,159.78674,69,80,0
159.79456,160.16174,72,81,0
160.16956,160.53674,71,83,0
160.54456,160.91174,75,85,0
160.54456,160.91174,69,85,0
160.91956,161.28674,76,87,0
160.91956,161.28674,67,87,0
161.29456,161.66174,79,89,0
161.29456,161.66174,76,89,0
161.66956,162.03674,76,91,0
161.66956,162.03674,84,91,0
162.04456,162.41174,76,93,0
162.04456,162.41174,84,93,0
162.41956,162.78674,84,95,0
162.41956,162.78674,76,95,0
162.79456,163.17606,81,97,0
162.79456,163.17606,84,97,0
163.18417,163.61615,86,99,0
163.18417,163.61615,89,99,0
163.62535,164.05733,89,101,0
163.62535,164.05733,86,101,0
164.06653,164.45819,89,103,0
164.06653,164.45819,86,103,0
164.46652,164.85818,89,105,0
164.46652,164.85818,86,105,0
164.86652,165.2582,89,107,0
164.86652,165.2582,86,107,0
165.26653,165.65819,89,108,0
165.26653,165.65819,86,108,0
165.66652,169.17528,86,80,0
165.66652,169.17528,89,80,0
169.1834,169.9545,89,80,0
169.1834,169.9545,86,80,0
169.96262,170.34412,88,80,0
169.96262,170.34412,84,80,0
170.35223,170.7439,86,80,0
170.75223,171.1439,81,80,0
170.75223,171.1439,74,80,0
171.15224,171.55463,79,80,0
171.15224,171.55463,76,80,0
171.56319,171.77458,79,80,0
171.56319,171.77458,74,80,0
171.56319,171.77458,71,80,0
171.78378,171.99518,67,80,0
172.00436,173.59702,79,80,0
172.00436,173.59702,76,80,0
172.00436,173.59702,67,80,0
173.60524,174.38649,77,80,0
173.60524,174.38649,74,80,0
173.60524,174.38649,65,80,0
174.39471,175.17596,76,80,0
174.39471,175.17596,72,80,0
174.39471,175.17596,67,80,0
175.18419,175.96544,74,80,0
175.18419,175.96544,69,80,0
175.97366,176.75491,69,80,0
175.97366,177.54439,72,80,0
176.76314,177.54439,67,80,0
177.55261,177.93912,71,80,0
177.55261,178.33386,67,80,0
177.94734,178.33386,79,80,0
178.34209,179.9128,79,80,0
178.34209,179.9128,75,80,0
178.34209,179.9128,67,80,0
179.92102,180.70227,77,80,0
179.92102,180.70227,74,80,0
179.92102,180.70227,65,80,0
180.7105,181.49174,75,80,0
180.7105,181.49174,72,80,0
180.7105,181.49174,67,80,0
180.7105,181.49174,63,80,0
181.49997,182.28122,74,80,0
181.49997,182.28122,68,80,0
182.28944,183.0707,69,80,0
182.28944,183.86017,72,80,0
183.07892,183.86017,67,80,0
183.8684,184.2549,72,80,0
183.8684,184.2549,66,80,0
184.26312,184.64964,80,80,0
184.65787,186.22859,80,80,0
184.65787,186.22859,76,80,0
184.65787,186.22859,68,80,0
186.23682,187.01807,78,80,0
186.23682,187.01807,75,80,0
186.23682,187.01807,66,80,0
187.02628,187.80753,76,80,0
187.02628,187.80753,73,80,0
187.02628,187.80753,68,80,0
187.81575,188.597,75,80,0
187.81575,188.597,69,80,0
188.60522,189.38647,70,80,0
188.60522,190.17595,73,80,0
189.3947,190.17595,68,80,0
190.18417,190.5707,72,80,0
190.18417,190.96542,68,80,0
190.57892,190.96542,80,80,0
190.97365,192.48557,80,80,0
190.97365,192.48557,77,80,0
190.97365,192.48557,68,80,0
192.49338,193.23557,78,87,0
192.49338,193.23557,75,87,0
192.49338,193.23557,66,87,0
193.24338,193.98557,77,91,0
193.24338,193.98557,73,91,0
193.24338,193.98557,68,91,0
193.24338,193.98557,65,91,0
193.99338,194.73557,75,95,0
193.99338,194.73557,69,95,0
194.74338,195.48557,73,99,0
194.74338,196.23557,69,99,0
195.49338,196.23557,72,103,0
196.24338,196.61057,73,107,0
196.24338,196.61057,69,107,0
196.61838,196.98557,81,108,0
196.61838,196.98557,78,108,0
196.99338,199.98557,69,110,0
196.99338,199.98557,78,110,0
196.99338,199.98557,81,110,0
199.99338,203.04611,75,110,0
199.99338,203.04611,78,110,0
199.99338,203.04611,81,110,0
199.99338,203.04611,87,110,0
203.0548,206.08604,78,110,0
203.0548,206.08604,81,110,0
203.0548,206.08604,87,110,0
203.0548,206.08604,90,110,0
206.09425,206.48077,78,110,0
206.489,206.67815,69,80,0
206.68637,206.8755,72,80,0
206.88373,207.07288,71,80,0
207.0811,207.27025,70,80,0
207.27847,207.46762,71,80,0
207.47585,207.66498,68,80,0
207.6732,208.05972,78,100,0
208.06795,208.25708,69,80,0
208.2653,208.45445,72,80,0
208.46268,208.65182,71,80,0
208.66005,208.8492,70,80,0
208.85742,209.04655,71,80,0
209.05478,209.24393,68,80,0
209.25215,209.63867,78,100,0
209.6469,209.83603,69,80,0
209.84425,210.0334,72,80,0
210.04163,210.23077,71,80,0
210.239,210.42813,70,80,0
210.43636,210.6255,71,80,0
210.63373,210.82288,69,80,0
210.8311,211.02025,68,80,0
211.02847,211.2176,66,80,0
211.22583,211.41498,68,80,0
211.4232,211.61235,66,80,0
211.62057,211.81749,64,80,0
211.82605,212.02296,63,80,0
212.03152,212.2369,64,80,0
212.24582,212.45117,66,80,0
212.4601,212.65176,64,80,0
212.6601,212.85176,59,80,0
212.8601,213.0398,64,80,0
212.4601,213.2273,68,80,0
213.0476,213.2273,59,80,0
213.2351,213.4148,68,80,0
213.2351,213.6023,71,80,0
213.4226,213.6023,59,80,0
213.6101,213.7898,66,80,0
213.6101,213.9773,69,80,0
213.7976,213.9773,59,80,0
213.9851,214.1648,64,80,0
213.9851,214.3523,68,80,0
214.1726,214.3523,59,80,0
214.3601,214.5398,63,80,0
214.3601,214.7273,66,80,0
214.5476,214.7273,59,80,0
214.7351,214.9148,63,80,0
214.7351,215.1023,66,80,0
214.9226,215.1023,59,80,0
215.1101,215.2898,64,80,0
215.1101,215.4773,68,80,0
215.2976,215.4773,59,80,0
215.4851,215.6648,64,80,0
215.4851,215.8523,69,80,0
215.6726,215.8523,59,80,0
215.8601,216.0398,64,80,0
215.8601,216.2273,73,80,0
216.0476,216.2273,59,80,0
216.2351,216.4148,66,80,0
216.2351,216.6023,71,80,0
216.4226,216.6023,59,80,0
216.6101,216.7898,63,80,0
216.6101,216.9773,66,80,0
216.7976,216.9773,59,80,0
216.9851,217.7273,68,80,0
216.9851,217.7273,64,80,0
216.9851,217.7273,59,80,0
218.1101,218.2898,76,80,0
218.2976,218.4773,78,80,0
218.4851,219.2273,80,80,0
218.4851,219.2273,68,80,0
219.2351,219.6023,83,80,0
219.2351,219.6023,71,80,0
219.6101,219.9773,81,80,0
219.6101,219.9773,69,80,0
219.9851,220.3523,80,80,0
219.9851,220.3523,68,80,0
220.3601,220.7273,78,80,0
220.3601,220.7273,66,80,0
220.7351,221.1023,78,80,0
220.7351,221.1023,66,80,0
221.1101,221.4773,80,80,0
221.1101,221.4773,68,80,0
221.4851,221.8523,81,80,0
221.4851,221.8523,69,80,0
221.8601,222.2273,85,89,0
221.8601,222.2273,73,89,0
222.2351,222.6023,83,99,0
222.2351,222.6023,71,99,0
222.6101,222.9773,87,80,0
222.6101,222.9773,75,80,0
222.9851,223.7273,88,80,0
222.9851,223.7273,76,80,0
224.1101,224.4773,71,80,0
224.4851,225.2273,70,80,0
225.2351,225.9773,76,80,0
225.9851,227.1023,75,80,0
227.1101,227.4773,69,80,0
227.4851,228.2273,68,80,0
228.2351,228.9773,74,80,0
228.9851,230.1023,73,80,0
230.1101,230.4773,73,80,0
230.4851,230.8523,72,82,0
230.8601,231.2273,73,84,0
231.2351,231.6023,69,87,0
231.2351,231.6023,64,87,0
231.2351,231.6023,61,87,0
231.6101,231.9773,68,89,0
231.6101,231.9773,64,89,0
231.6101,231.9773,59,89,0
231.9851,232.3523,68,91,0
231.9851,232.7273,58,91,0
231.9851,232.7273,64,91,0
232.3601,233.1023,66,94,0
232.7351,233.4773,64,96,0
232.7351,233.4773,57,96,0
233.1101,233.4773,66,98,0
233.4851,233.8523,66,80,0
233.4851,233.8523,63,80,0
233.4851,233.8523,57,80,0
233.8601,234.2273,71,80,0
233.8601,234.2273,63,80,0
234.2351,234.6023,70,80,0
234.6101,234.9773,71,80,0
234.6101,234.9773,63,80,0
234.9851,235.7273,64,80,0
236.1101,236.4773,83,80,0
236.1101,236.4773,71,80,0
236.4851,237.2273,70,80,0
236.4851,237.2273,82,80,0
237.2351,237.9773,76,80,0
237.2351,237.9773,88,80,0
237.9851,239.1023,87,80,0
237.9851,239.1023,75,80,0
239.1101,239.4773,81,80,0
239.1101,239.4773,69,80,0
239.4851,240.2273,80,80,0
239.4851,240.2273,68,80,0
240.2351,240.9773,86,80,0
240.2351,240.9773,74,80,0
240.9851,242.1023,73,80,0
240.9851,242.1023,85,80,0
242.1101,242.4773,85,80,0
242.1101,242.4773,73,80,0
242.4851,242.8523,72,82,0
242.4851,242.8523,84,82,0
242.8601,243.2273,85,84,0
242.8601,243.2273,73,84,0
243.2351,243.6023,81,87,0
243.2351,243.6023,69,87,0
243.6101,243.9773,80,89,0
243.6101,243.9773,68,89,0
243.9851,244.3523,80,91,0
243.9851,244.3523,68,91,0
244.3601,245.1023,78,94,0
244.3601,245.1023,66,94,0
245.1101,245.4773,78,100,0
245.1101,245.4773,66,100,0
245.4851,245.8523,78,80,0
245.4851,245.8523,66,80,0
245.8601,246.2273,83,80,0
245.8601,246.2273,71,80,0
246.2351,246.6023,82,80,0
246.2351,246.6023,70,80,0
246.6101,246.9773,83,80,0
246.6101,246.9773,71,80,0
246.9851,247.7273,76,80,0
246.9851,247.7273,64,80,0
248.1351,248.34045,64,80,0
248.34938,248.55475,66,80,0
248.56367,248.76903,64,80,0
248.77795,248.9833,59,80,0
248.99225,249.18391,64,80,0
248.56367,249.38391,68,80,0
249.19225,249.38391,59,80,0
249.39224,249.57193,68,80,0
249.39224,249.75943,71,80,0
249.57974,249.75943,59,80,0
249.76724,249.94693,66,80,0
249.76724,250.13443,69,80,0
249.95474,250.13443,59,80,0
250.14224,250.32193,64,80,0
250.14224,250.50943,68,80,0
250.32974,250.50943,59,80,0
250.51724,250.69693,63,80,0
250.51724,250.88443,66,80,0
250.70474,250.88443,59,80,0
250.89224,251.07193,63,80,0
250.89224,251.25943,66,80,0
251.07974,251.25943,59,80,0
251.26724,251.44693,64,80,0
251.26724,251.63443,68,80,0
251.45474,251.63443,59,80,0
251.64224,251.82193,64,80,0
251.64224,252.00943,69,80,0
251.82974,252.00943,59,80,0
252.01724,252.19693,64,80,0
252.01724,252.38443,73,80,0
252.20474,252.38443,59,80,0
252.39224,252.57193,66,80,0
252.39224,252.75943,71,80,0
252.57974,252.75943,59,80,0
252.76724,252.94693,63,80,0
252.76724,253.13443,66,80,0
252.95474,253.13443,59,80,0
253.14224,253.88443,68,80,0
253.14224,253.88443,64,80,0
253.14224,253.88443,59,80,0
253.89224,253.94693,78,80,0
253.95474,254.07193,76,80,0
254.07974,254.25943,75,81,0
254.26724,254.44693,76,82,0
254.45474,254.63443,78,83,0
254.64224,254.69693,81,84,0
254.70474,254.82193,80,84,0
254.82974,255.00943,78,85,0
255.01724,255.19693,80,86,0
255.20474,255.38443,81,87,0
255.39224,255.75943,83,88,0
255.39224,255.75943,71,88,0
255.76724,256.13443,81,91,0
255.76724,256.13443,69,91,0
256.14224,256.50943,68,93,0
256.14224,256.50943,80,93,0
256.51724,256.88443,78,95,0
256.51724,256.88443,66,95,0
256.89224,257.25943,78,97,0
256.89224,257.25943,66,97,0
257.26724,257.63443,80,99,0
257.26724,257.63443,68,99,0
257.64224,258.00943,81,102,0
257.64224,258.00943,69,102,0
258.01724,258.38443,85,104,0
258.01724,258.38443,73,104,0
258.39224,258.75943,83,106,0
258.39224,258.75943,71,106,0
258.76724,259.13443,87,108,0
258.76724,259.13443,81,108,0
258.76724,259.13443,75,108,0
259.14224,259.88443,88,110,0
259.14224,259.88443,80,110,0
259.14224,259.88443,76,110,0
260.26724,260.63443,68,110,0
260.26724,260.63443,64,110,0
260.64224,261.75943,68,110,0
260.64224,261.75943,64,110,0
261.76724,262.13443,76,80,0
261.76724,262.13443,68,80,0
261.76724,262.13443,64,80,0
262.14224,263.25943,75,80,0
262.14224,263.25943,68,80,0
262.14224,263.25943,66,80,0
262.14224,263.25943,63,80,0
263.26724,263.63443,68,110,0
263.26724,263.63443,63,110,0
263.64224,264.75943,68,110,0
263.64224,264.75943,62,110,0
263.64224,264.75943,64,110,0
264.76724,265.13443,74,80,0
264.76724,265.13443,64,80,0
264.76724,265.13443,62,80,0
265.14224,266.25943,73,80,0
265.14224,266.25943,64,80,0
265.14224,266.25943,61,80,0
266.26724,266.63443,61,110,0
266.64224,267.75943,61,110,0
266.64224,267.75943,59,110,0
267.76724,268.13443,71,80,0
267.76724,268.13443,61,80,0
267.76724,268.13443,59,80,0
268.14224,269.25943,69,80,0
268.14224,269.25943,57,80,0
268.14224,269.25943,61,80,0
269.26724,269.63443,81,110,0
269.26724,269.63443,78,110,0
269.26724,269.63443,73,110,0
269.64224,270.75943,81,110,0
269.64224,270.75943,78,110,0
269.64224,270.75943,71,110,0
270.76724,271.13443,69,110,0
270.76724,271.13443,66,110,0
271.14224,272.25943,69,110,0
271.14224,272.25943,64,110,0
272.26724,272.63443,81,110,0
272.26724,272.63443,76,110,0
272.26724,272.63443,69,110,0
272.64224,273.00943,81,110,0
272.64224,273.00943,78,110,0
272.64224,273.00943,75,110,0
272.64224,273.00943,69,110,0
274.14224,275.25943,90,80,0
274.14224,275.25943,81,80,0
275.26724,275.63443,88,80,0
275.26724,275.63443,80,80,0
275.64224,276.00943,88,80,0
275.64224,276.00943,80,80,0
276.01724,276.38443,78,80,0
276.01724,276.38443,87,80,0
276.39224,276.75943,78,80,0
276.39224,276.75943,87,80,0
276.76724,277.13443,80,80,0
276.76724,277.13443,88,80,0
277.14224,278.25943,90,80,0
277.14224,278.25943,81,80,0
278.26724,278.63443,88,80,0
278.26724,278.63443,80,80,0
278.64224,279.00943,78,80,0
278.64224,279.00943,87,80,0
279.01724,279.38443,81,80,0
279.01724,279.38443,90,80,0
279.39224,279.75943,80,80,0
279.39224,279.75943,88,80,0
279.76724,280.13443,78,80,0
279.76724,280.13443,87,80,0
280.14224,280.50943,88,80,0
280.14224,280.50943,83,80,0
280.51724,280.88443,87,80,0
280.89224,281.25943,85,80,0
281.26724,281.63443,83,80,0
281.64224,282.00943,85,80,0
282.01724,282.38443,83,80,0
282.39224,282.77875,81,80,0
282.787,283.1735,80,80,0
283.1817,284.3577,80,80,0
284.36594,284.5713,81,80,0
284.5802,284.78555,83,80,0
284.7945,285.21414,78,80,0
285.22305,285.41473,71,80,0
285.42307,285.61475,73,80,0
285.62308,285.80276,71,80,0
285.81058,285.99026,73,80,0
285.99808,286.17776,71,80,0
286.18558,286.36526,73,80,0
286.37308,286.55276,71,80,0
286.56058,286.74026,73,80,0
286.74808,286.92776,71,80,0
286.93558,287.11526,73,80,0
287.12308,287.30276,71,80,0
286.37308,287.49026,81,80,0
286.37308,287.49026,78,80,0
287.31058,287.49026,73,80,0
287.49808,287.67776,71,80,0
287.49808,287.86526,80,80,0
287.49808,287.86526,76,80,0
287.68558,287.86526,73,80,0
287.87308,288.05276,71,80,0
287.87308,288.24026,80,80,0
287.87308,288.24026,76,80,0
288.06058,288.24026,73,80,0
288.24808,288.42776,71,80,0
288.24808,288.61526,78,80,0
288.24808,288.61526,75,80,0
288.43558,288.61526,73,80,0
288.62308,288.80276,71,80,0
288.62308,288.99026,78,80,0
288.62308,288.99026,75,80,0
288.81058,288.99026,73,80,0
288.99808,289.17776,71,80,0
288.99808,289.36526,80,80,0
288.99808,289.36526,76,80,0
289.18558,289.36526,73,80,0
289.37308,289.55276,71,80,0
289.56058,289.74026,73,81,0
289.74808,289.92776,71,83,0
289.93558,290.11526,73,85,0
290.12308,290.30276,71,87,0
289.37308,290.49026,81,80,0
289.37308,290.49026,78,80,0
290.31058,290.49026,73,89,0
290.49808,290.67776,71,91,0
290.49808,290.86526,80,91,0
290.49808,290.86526,76,91,0
290.68558,290.86526,73,93,0
290.87308,291.24026,75,95,0
290.87308,291.24026,78,95,0
291.06058,291.24026,71,97,0
291.24808,291.61526,81,99,0
291.24808,291.61526,85,99,0
291.43558,291.61526,71,101,0
291.62308,291.99026,80,103,0
291.62308,291.99026,83,103,0
291.81058,291.99026,71,105,0
291.99808,292.36526,78,107,0
291.99808,292.36526,81,107,0
292.18558,292.36526,71,109,0
292.37308,292.74026,76,110,0
292.37308,292.74026,80,110,0
292.56058,292.74026,71,109,0
292.74808,293.11526,80,107,0
292.74808,293.11526,83,107,0
292.93558,293.11526,71,106,0
293.12308,293.49026,78,104,0
293.12308,293.49026,81,104,0
293.31058,293.49026,71,102,0
293.49808,293.86526,76,101,0
293.49808,293.86526,80,101,0
293.68558,293.86526,71,99,0
293.87308,294.24026,75,97,0
293.87308,294.24026,78,97,0
294.06058,294.24026,71,96,0
294.24808,294.61526,78,94,0
294.24808,294.61526,81,94,0
294.43558,294.61526,71,92,0
294.62308,294.99026,76,91,0
294.62308,294.99026,80,91,0
294.81058,294.99026,71,89,0
294.99808,295.36526,75,87,0
294.99808,295.36526,78,87,0
295.18558,295.36526,71,86,0
295.37308,295.75455,71,84,0
295.37308,295.75455,76,84,0
295.56787,295.75455,68,82,0
295.76266,296.14417,71,81,0
295.76266,296.14417,74,81,0
295.9575,296.14417,65,79,0
296.15228,296.54926,71,77,0
296.15228,296.54926,73,77,0
296.35498,296.54926,65,76,0
296.55768,296.97733,71,74,0
296.55768,296.97733,73,74,0
296.77197,296.97733,65,72,0
296.98627,297.19162,73,71,0
296.98627,297.19162,65,71,0
297.20056,297.4059,73,80,0
297.41483,297.60397,75,80,0
297.6122,297.80136,77,80,0
297.80957,297.86713,80,80,0
297.87537,297.99872,78,80,0
298.00693,298.19608,77,80,0
298.2043,298.39346,78,80,0
298.40167,298.59082,80,80,0
298.59903,298.78818,81,80,0
298.79642,298.98557,77,80,0
298.99377,299.18292,78,80,0
299.19116,299.38028,80,80,0
299.38852,299.44608,83,80,0
299.4543,299.57767,81,80,0
299.58588,299.77502,80,80,0
299.78326,299.9724,81,80,0
299.98062,300.16977,83,80,0
300.17798,300.36713,85,80,0
300.37537,300.5645,83,80,0
300.57272,300.76187,81,80,0
300.77008,300.95923,80,80,0
300.96747,301.15662,81,80,0
301.16483,301.35397,80,80,0
301.3622,301.55133,78,80,0
301.55957,301.74872,85,80,0
301.75693,301.94608,80,80,0
301.9543,302.14346,78,80,0
302.15167,302.3486,76,80,0
302.35715,302.55408,83,80,0
302.56262,302.76797,78,80,0
302.77692,302.98227,76,80,0
302.9912,303.21582,75,80,0
303.2256,303.4502,83,80,0
303.45996,305.0645,83,80,0
303.45996,305.0645,80,80,0
303.45996,305.0645,71,80,0
305.07272,305.85397,81,80,0
305.07272,305.85397,78,80,0
305.07272,305.85397,69,80,0
305.8622,306.64346,80,80,0
305.8622,306.64346,76,80,0
305.8622,306.64346,71,80,0
306.65167,307.43292,78,80,0
306.65167,307.43292,73,80,0
307.44116,308.2224,73,80,0
307.44116,309.01187,76,80,0
308.23062,309.01187,71,80,0
309.0201,309.40662,75,80,0
309.0201,309.80136,71,80,0
309.41483,309.80136,83,80,0
309.80957,311.38028,83,80,0
309.80957,311.38028,74,80,0
309.80957,311.38028,71,80,0
311.38852,312.16977,81,90,0
311.38852,312.16977,74,90,0
311.38852,312.16977,69,90,0
312.17798,312.95923,80,95,0
312.17798,312.95923,74,95,0
312.17798,312.95923,71,95,0
312.17798,312.95923,68,95,0
312.96747,313.74872,78,100,0
312.96747,313.74872,74,100,0
313.75693,314.53818,76,106,0
313.75693,314.53818,74,106,0
314.54642,315.32767,76,110,0
314.54642,315.32767,74,110,0
314.54642,315.32767,71,110,0
315.33588,316.11713,86,110,0
315.33588,316.11713,74,110,0
316.12537,317.69608,86,110,0
316.12537,317.69608,74,110,0
317.7043,319.47238,77,110,0
317.7043,319.47238,89,110,0
319.48062,319.66977,65,106,0
319.67798,319.87225,71,102,0
319.88068,320.07495,74,98,0
320.08337,320.28876,77,93,0
320.29767,320.50302,83,89,0
320.51196,320.74014,86,85,0
320.75006,320.97824,83,81,0
320.98816,321.80322,89,80,0
322.2062,322.5927,76,80,0
322.60092,322.98746,77,80,0
322.99567,323.38217,80,80,0
323.3904,323.77692,79,80,0
323.78513,324.17166,74,80,0
324.17987,324.56638,76,80,0
324.57462,324.96112,77,80,0
324.96936,325.35587,76,80,0
325.36407,325.7506,71,80,0
325.75882,326.54007,72,80,0
325.75882,327.32953,64,80,0
326.5483,327.32953,73,80,0
327.33777,328.11902,74,80,0
327.33777,328.11902,62,80,0
328.12723,329.30322,81,80,0
329.31146,329.69797,82,80,0
329.70618,330.0927,81,80,0
330.10092,330.48743,77,80,0
330.49567,330.88217,82,80,0
330.89038,331.27692,77,80,0
331.28513,331.67163,77,80,0
331.67987,332.06638,73,80,0
332.07462,332.46112,78,80,0
332.46933,332.85587,73,80,0
332.86407,333.25058,73,80,0
333.25882,333.64532,70,80,0
333.65356,334.04007,82,80,0
334.04828,334.4348,78,80,0
334.44302,334.82953,78,80,0
334.83777,335.22427,73,80,0
335.23248,335.61902,85,80,0
335.62723,336.01373,81,85,0
336.02197,336.40848,81,91,0
336.41672,336.80322,78,97,0
336.81143,337.19797,84,103,0
337.20618,337.59268,78,109,0
337.60092,337.98743,83,110,0
337.99567,338.18478,78,110,0
339.17987,339.36902,75,110,0
339.37723,339.56638,83,110,0
339.5746,339.76373,75,110,0
339.77197,339.96112,76,110,0
339.96933,340.15848,78,110,0
340.16672,340.35583,83,110,0
340.36407,340.55322,78,110,0
340.56143,340.75058,80,110,0
340.75882,340.94797,81,110,0
340.95618,341.14532,83,110,0
341.15353,341.34268,81,110,0
341.35092,341.54007,80,110,0
341.54828,341.73743,78,110,0
341.74564,341.93478,83,110,0
341.94302,342.13217,78,110,0
342.14038,342.32953,76,110,0
342.33777,342.5269,75,110,0
342.53513,342.72427,83,109,0
342.73248,342.92163,75,107,0
342.92987,343.11902,76,105,0
343.12723,343.31638,78,103,0
343.3246,343.51373,83,101,0
343.52197,343.71112,78,99,0
343.71933,343.90848,80,97,0
343.9167,344.10583,81,95,0
344.11407,344.30322,83,93,0
344.31143,344.50058,81,91,0
344.50882,344.69794,80,89,0
344.70618,344.89532,78,87,0
344.90353,345.09268,83,85,0
345.10092,345.29007,78,83,0
345.29828,345.48743,76,81,0
345.49564,345.68478,75,80,0
345.69302,345.88217,83,80,0
345.89038,346.07953,75,80,0
346.08774,346.2769,76,80,0
346.28513,346.47427,78,80,0
346.48248,346.67163,83,80,0
346.67987,346.869,78,80,0
346.87723,347.06638,80,80,0
347.0746,347.26373,81,80,0
347.27197,347.4611,83,80,0
347.46933,347.65848,81,80,0
347.6667,347.85583,80,80,0
347.86407,348.05322,78,80,0
348.06143,348.25058,83,80,0
348.2588,348.44794,78,80,0
348.45618,348.64532,76,80,0
348.65353,348.84268,75,80,0
348.85092,349.04004,76,80,0
349.04828,349.23743,75,80,0
349.24564,349.43478,73,80,0
349.44302,349.63467,71,80,0
349.643,349.8347,73,80,0
349.84302,350.03467,63,80,0
350.043,350.23468,64,80,0
350.243,350.44836,66,80,0
350.4573,350.66266,69,80,0
350.67157,350.91116,68,80,0
350.92157,351.16116,66,80,0
351.17157,351.35126,68,80,0
351.35907,351.53876,71,80,0
351.54657,351.72626,59,80,0
351.73407,351.91376,71,80,0
351.92157,352.10126,68,80,0
352.10907,352.28876,71,80,0
352.29657,352.47626,66,80,0
352.48407,352.66376,71,80,0
352.67157,352.85126,64,80,0
352.85907,353.03876,71,80,0
353.04657,353.22626,63,80,0
353.23407,353.41376,71,80,0
353.42157,353.60126,63,80,0
353.60907,353.78876,71,80,0
353.79657,353.97626,65,80,0
353.98407,354.16376,71,80,0
354.17157,354.35126,66,80,0
354.35907,354.53876,71,80,0
354.54657,354.72626,69,80,0
354.73407,354.91376,71,80,0
354.92157,355.10126,68,80,0
355.10907,355.28876,71,80,0
355.29657,355.47626,71,80,0
355.48407,355.66376,75,80,0
355.67157,355.85126,71,80,0
355.85907,356.03876,76,80,0
356.04657,356.22626,71,80,0
356.23407,356.41376,78,80,0
356.42157,356.60126,71,80,0
356.60907,356.78876,79,80,0
356.79657,356.97626,71,80,0
356.98407,357.16376,80,80,0
357.17157,357.35126,71,80,0
357.35907,357.53876,76,80,0
357.54657,357.72626,71,80,0
357.17157,357.91376,80,80,0
357.73407,357.91376,76,80,0
357.92157,358.10126,76,80,0
357.92157,358.28876,83,80,0
358.10907,358.28876,69,80,0
358.29657,358.47626,73,80,0
358.29657,358.66376,81,80,0
358.48407,358.66376,76,80,0
358.67157,358.85126,76,80,0
358.67157,359.03876,80,80,0
358.85907,359.03876,71,80,0
359.04657,359.22626,75,80,0
359.04657,359.41376,78,80,0
359.23407,359.41376,71,80,0
359.42157,359.60126,75,80,0
359.42157,359.78876,78,80,0
359.60907,359.78876,71,80,0
359.79657,359.97626,76,80,0
359.79657,360.16376,80,80,0
359.98407,360.16376,71,80,0
360.17157,360.35126,78,80,0
360.17157,360.53876,81,80,0
360.35907,360.53876,71,80,0
360.54657,360.72626,80,80,0
360.54657,360.91376,85,80,0
360.73407,360.91376,71,80,0
360.92157,361.10126,78,80,0
360.92157,361.28876,83,80,0
361.10907,361.28876,71,80,0
361.29657,361.66376,87,80,0
361.29657,361.66376,81,80,0
361.29657,361.66376,75,80,0
361.67157,361.85126,88,80,0
361.67157,361.85126,80,80,0
361.67157,361.85126,76,80,0
361.85907,362.03876,76,80,0
362.04657,362.22626,71,80,0
362.23407,362.41376,68,80,0
362.42157,362.60126,71,80,0
362.60907,362.78876,68,80,0
362.79657,362.97626,66,80,0
362.98407,363.16376,75,80,0
363.17157,363.35126,66,80,0
363.35907,363.53876,76,80,0
363.54657,363.72626,73,80,0
363.73407,363.91376,66,80,0
363.92157,364.10126,66,80,0
364.10907,364.28876,78,80,0
364.29657,364.47626,73,80,0
364.48407,364.66376,66,80,0
364.67157,364.85126,66,80,0
364.85907,365.03876,75,80,0
365.04657,365.22626,71,80,0
365.23407,365.41376,66,80,0
365.42157,365.60126,63,80,0
365.60907,365.78876,71,80,0
365.79657,365.97626,64,80,0
365.98407,366.16376,69,80,0
366.17157,366.35126,64,80,0
366.35907,366.53876,71,80,0
366.54657,366.72626,68,80,0
366.73407,366.91376,64,80,0
366.92157,367.10126,64,80,0
367.10907,367.28876,76,80,0
367.29657,367.47626,71,80,0
367.48407,367.66376,64,80,0
367.67157,367.85126,64,80,0
367.85907,368.03876,76,80,0
368.04657,368.22626,73,80,0
368.23407,368.41376,69,80,0
368.42157,368.60126,64,80,0
368.60907,368.78876,76,80,0
368.79657,368.97626,64,80,0
368.98407,369.16376,76,81,0
369.17157,369.35126,64,83,0
369.35907,369.53876,76,85,0
369.54657,369.72626,64,87,0
369.73407,369.91376,76,88,0
369.92157,370.10126,64,90,0
370.10907,370.28876,76,92,0
370.29657,370.47626,64,94,0
370.48407,370.66376,76,95,0
370.67157,370.85126,64,97,0
370.85907,371.03876,76,99,0
371.04657,371.22626,64,101,0
371.23407,371.41376,76,102,0
371.42157,371.60126,64,104,0
371.60907,371.78876,76,106,0
371.79657,371.97626,64,108,0
371.98407,372.16376,76,93,0
372.17157,372.35126,63,80,0
372.35907,372.53876,75,80,0
372.54657,372.72626,71,80,0
372.73407,372.91376,66,80,0
372.92157,373.10126,66,80,0
373.10907,373.28876,78,80,0
373.29657,373.47626,75,80,0
373.48407,373.66376,69,80,0
373.67157,374.41376,68,80,0
374.79657,375.16376,83,80,0
374.79657,375.16376,71,80,0
375.17157,375.91376,70,80,0
375.17157,375.91376,82,80,0
375.92157,376.66376,76,80,0
375.92157,376.66376,88,80,0
376.67157,377.78876,87,80,0
376.67157,377.78876,75,80,0
377.79657,378.16376,81,80,0
377.79657,378.16376,69,80,0
378.17157,378.91376,80,80,0
378.17157,378.91376,68,80,0
378.92157,379.66376,86,80,0
378.92157,379.66376,74,80,0
379.67157,380.78876,73,80,0
379.67157,380.78876,85,80,0
380.79657,381.16376,85,80,0
380.79657,381.16376,73,80,0
381.17157,381.53876,72,83,0
381.17157,381.53876,84,83,0
381.54657,381.91376,85,87,0
381.54657,381.91376,73,87,0
381.92157,382.28876,81,90,0
381.92157,382.28876,69,90,0
382.29657,382.66376,80,94,0
382.29657,382.66376,68,94,0
382.67157,383.03876,80,97,0
382.67157,383.03876,68,97,0
383.04657,383.78876,78,101,0
383.04657,383.78876,66,101,0
383.79657,384.16376,78,108,0
383.79657,384.16376,66,108,0
384.17157,384.53876,78,80,0
384.17157,384.53876,66,80,0
384.54657,384.91376,83,80,0
384.54657,384.91376,71,80,0
384.92157,385.28876,82,80,0
384.92157,385.28876,70,80,0
385.29657,385.66376,83,80,0
385.29657,385.66376,71,80,0
385.67157,386.03876,64,80,0
385.67157,386.03876,76,80,0
386.04657,386.41376,83,80,0
386.04657,386.41376,71,80,0
386.42157,386.78876,82,80,0
386.42157,386.78876,70,80,0
386.79657,387.16376,83,80,0
386.79657,387.16376,71,80,0
387.35907,387.53876,75,80,0
387.54657,387.72626,83,80,0
387.73407,387.91376,81,80,0
387.92157,388.10126,78,80,0
388.10907,388.28876,75,80,0
388.29657,388.47626,71,80,0
388.48407,388.66376,69,80,0
388.85907,389.03876,68,80,0
389.04657,389.22626,83,80,0
389.23407,389.41376,80,80,0
389.42157,389.60126,76,80,0
389.60907,389.78876,71,80,0
389.79657,389.97626,69,80,0
389.98407,390.16376,68,80,0
390.17157,390.53876,78,80,0
390.17157,390.53876,66,80,0
390.54657,390.91376,83,82,0
390.54657,390.91376,71,82,0
390.92157,391.28876,82,85,0
390.92157,391.28876,70,85,0
391.29657,391.66376,83,87,0
391.29657,391.66376,71,87,0
391.67157,392.03876,77,90,0
391.67157,392.03876,65,90,0
392.04657,392.41376,86,93,0
392.04657,392.41376,74,93,0
392.42157,392.78876,85,95,0
392.42157,392.78876,73,95,0
392.79657,393.16376,86,98,0
392.79657,393.16376,74,98,0
393.17157,393.53876,85,100,0
393.54657,393.91376,78,103,0
393.92157,394.28876,81,106,0
394.29657,394.66376,73,108,0
394.67157,395.03876,78,110,0
395.04657,395.41376,73,107,0
395.42157,395.78876,76,103,0
395.79657,396.16376,66,99,0
396.17157,396.53876,71,95,0
396.54657,396.91376,68,91,0
396.92157,397.28876,71,87,0
397.29657,397.66376,64,83,0
397.67157,398.03876,63,80,0
398.04657,398.41376,71,80,0
398.42157,398.8081,66,80,0
398.42157,398.8081,63,80,0
398.8163,399.23596,71,80,0
398.8163,399.23596,63,80,0
399.45917,399.66452,62,81,0
399.67346,399.86514,68,83,0
399.87347,400.06512,65,85,0
400.26096,400.44064,61,89,0
400.44846,400.62814,69,91,0
400.63596,400.81564,66,93,0
401.01096,401.19064,71,97,0
401.19846,401.37814,83,99,0
401.38596,401.56564,80,101,0
401.76096,401.94064,73,105,0
401.94846,402.12814,85,107,0
402.13596,402.31564,81,109,0
402.52347,402.71512,74,110,0
402.72345,402.91513,86,110,0
402.92346,403.11514,83,110,0
403.33774,403.5431,73,110,0
403.55203,403.7574,85,110,0
403.76633,403.97168,83,110,0
407.1806,407.57227,78,80,0
407.5806,407.97226,85,80,0
407.9806,408.37228,83,80,0
408.3806,408.77228,78,80,0
408.7806,410.77228,81,80,0
410.7806,411.17227,81,80,0
411.1806,411.57227,80,80,0
411.5806,411.97226,76,80,0
411.9806,413.97226,80,80,0
413.9806,414.37228,80,80,0
413.9806,414.37228,76,80,0
414.3806,414.77228,78,80,0
414.3806,414.77228,75,80,0
414.7806,415.17227,75,80,0
414.7806,415.17227,71,80,0
415.1806,415.57227,78,80,0
415.1806,415.57227,75,80,0
415.5806,415.97226,78,80,0
415.5806,415.97226,72,80,0
415.9806,416.37228,76,80,0
415.9806,416.37228,73,80,0
416.3806,416.78857,73,80,0
416.3806,416.78857,69,80,0
416.79727,417.1942,76,80,0
416.79727,417.1942,73,80,0
417.20267,417.58417,76,80,0
417.20267,417.58417,70,80,0
417.5923,417.9738,75,80,0
417.5923,417.9738,71,80,0
417.9819,418.3899,71,80,0
417.9819,418.3899,68,80,0
418.39856,418.78506,74,80,0
418.39856,418.78506,71,80,0
418.7933,419.1798,74,80,0
418.7933,419.1798,68,80,0
419.18802,419.57455,73,80,0
419.18802,419.57455,69,80,0
419.58276,419.96927,72,80,0
419.58276,419.96927,63,80,0
419.9775,420.364,64,80,0
419.9775,420.364,71,80,0
420.37225,420.75876,71,80,0
420.37225,420.75876,61,80,0
420.76697,420.95126,69,80,0
420.76697,420.95126,63,80,0
420.9593,421.1436,66,80,0
421.15158,421.33588,64,80,0
421.3439,421.5282,66,80,0
421.53622,421.7159,64,80,0
421.72372,421.9034,59,80,0
421.91122,422.0909,64,80,0
421.53622,422.2784,68,80,0
422.09872,422.2784,59,80,0
422.28622,422.4659,68,80,0
422.28622,422.6534,71,80,0
422.47372,422.6534,59,80,0
422.66122,422.8409,66,80,0
422.66122,423.0284,69,80,0
422.84872,423.0284,59,80,0
423.03622,423.2159,64,80,0
423.03622,423.4034,68,80,0
423.22372,423.4034,59,80,0
423.41122,423.5909,63,80,0
423.41122,423.7784,66,80,0
423.59872,423.7784,59,80,0
423.78622,423.9659,63,80,0
423.78622,424.1534,66,80,0
423.97372,424.1534,59,80,0
424.16122,424.3409,64,80,0
424.16122,424.5284,68,80,0
424.34872,424.5284,59,80,0
424.53622,424.7159,64,80,0
424.53622,424.9034,69,80,0
424.72372,424.9034,59,80,0
424.91122,425.0909,64,80,0
424.91122,425.2784,73,80,0
425.09872,425.2784,59,80,0
425.28622,425.4659,66,80,0
425.28622,425.6534,71,80,0
425.47372,425.6534,59,80,0
425.66122,425.8409,63,80,0
425.66122,426.0284,66,80,0
425.84872,426.2159,59,80,0
426.22372,426.4034,59,80,0
426.41122,426.5909,64,80,0
426.03622,426.7784,68,80,0
426.59872,426.7784,59,80,0
426.78622,426.9659,64,80,0
426.97372,427.1534,59,80,0
427.16122,427.3409,64,80,0
427.16122,427.5284,68,80,0
427.34872,427.5284,59,80,0
427.53622,427.7159,64,80,0
427.53622,427.9034,69,80,0
427.72372,427.9034,59,80,0
427.91122,428.0909,64,80,0
427.91122,428.2784,73,80,0
428.09872,428.2784,59,80,0
428.28622,428.4659,66,80,0
428.28622,428.6534,71,80,0
428.47372,428.6534,59,80,0
428.66122,428.8409,63,80,0
428.66122,429.0284,66,80,0
428.84872,429.0284,59,80,0
429.03622,429.7784,68,80,0
429.03622,429.7784,64,80,0
429.03622,429.7784,59,80,0
430.16122,430.5284,80,80,0
430.16122,430.5284,68,80,0
430.53622,430.9279,81,80,0
430.53622,430.9279,69,80,0
430.93622,431.32788,85,80,0
430.93622,431.32788,73,80,0
431.3362,431.72787,83,80,0
431.3362,431.72787,71,80,0
431.7362,432.12787,87,80,0
431.7362,432.12787,75,80,0
432.1362,432.98444,88,80,0
432.1362,432.98444,76,80,0
434.31204,434.76395,57,80,0
434.77356,435.2255,56,80,0
435.2351,435.68704,64,80,0
435.2351,435.68704,68,80,0
435.69666,436.1629,66,80,0
435.69666,436.1629,64,80,0
436.17282,436.6391,78,80,0
436.17282,436.6391,76,80,0
436.17282,436.6391,73,80,0
436.64902,437.1153,76,80,0
436.64902,437.5915,73,80,0
437.1252,437.5915,85,80,0
437.6014,437.80676,85,80,0
437.8157,438.02106,83,81,0
438.02997,438.23532,80,82,0
438.24426,438.44962,76,83,0
438.45856,438.6639,75,84,0
438.67282,438.8782,73,85,0
438.88712,439.09247,71,86,0
439.1014,439.30676,69,87,0
439.3157,439.5126,68,88,0
439.52118,439.71808,66,89,0
439.72665,439.92355,64,91,0
439.93213,440.12906,76,92,0
440.1376,440.33453,75,93,0
440.34308,440.54,73,94,0
440.54855,440.74548,85,95,0
440.75406,440.95096,83,96,0
440.95953,441.14868,83,97,0
441.1569,441.34604,81,98,0
441.35425,441.5434,93,99,0
441.55164,441.74078,92,101,0
441.749,441.93814,92,102,0
441.94635,442.1355,90,103,0
442.14374,442.3329,93,104,0
442.3411,442.53024,90,105,0
442.53848,442.72278,88,106,0
442.73077,442.91507,87,107,0
442.9231,443.11475,90,110,0
443.12308,443.31476,81,110,0
443.3231,443.52,81,100,0
443.52856,443.7255,80,90,0
443.73404,443.95865,88,80,0
443.9684,444.28787,80,80,0
444.30176,444.7809,78,80,0
444.80176,445.2809,85,80,0
445.30176,445.87674,83,80,0
445.90176,446.47675,75,80,0
446.50174,449.0205,76,80,0
455.05176,458.0205,64,1,0
0.857142,1.2488086,52,80,0
0.857142,1.2488086,40,80,0
2.382142,2.7493296,47,80,0
2.382142,2.7493296,35,80,0
3.882142,4.2493296,49,80,0
3.882142,4.2493296,37,80,0
4.632142,4.9993296,51,80,0
4.632142,4.9993296,39,80,0
5.007142,5.3743296,47,80,0
5.007142,5.3743296,35,80,0
5.382142,5.5618296,52,80,0
5.382142,5.5618296,40,80,0
5.569642,5.7493296,56,80,0
5.757142,5.9368296,59,80,0
5.944642,6.1243296,57,80,0
6.132142,6.3118296,56,80,0
6.319642,6.4993296,57,80,0
6.507142,6.6868296,56,80,0
6.694642,6.8743296,54,80,0
6.882142,7.0618296,52,80,0
7.069642,7.2493296,59,80,0
7.257142,7.4368296,47,80,0
7.444642,7.6243296,59,80,0
7.632142,7.8118296,52,80,0
7.819642,7.9993296,59,80,0
8.007142,8.18683,47,80,0
8.194642,8.37433,59,80,0
8.382142,8.56183,51,80,0
8.569642,8.74933,59,80,0
8.757142,8.93683,47,80,0
8.944642,9.12433,59,80,0
9.132142,9.31183,51,80,0
9.319642,9.49933,59,80,0
9.507142,9.68683,53,80,0
9.694642,9.87433,59,80,0
9.882142,10.06183,54,80,0
10.069642,10.24933,59,80,0
10.257142,10.43683,57,80,0
10.444642,10.62433,59,80,0
10.632142,10.81183,56,80,0
10.819642,10.99933,59,80,0
11.007142,11.18683,54,80,0
11.007142,11.18683,47,80,0
11.194642,11.37433,57,80,0
11.382142,11.56183,56,80,0
11.382142,11.56183,52,80,0
11.569642,11.74933,59,80,0
11.757142,11.93683,56,80,0
11.944642,12.12433,52,80,0
12.132142,12.31183,51,80,0
12.319642,12.49933,59,80,0
12.507142,12.68683,54,80,0
12.694642,12.87433,51,80,0
12.882142,13.06183,49,80,0
13.069642,13.24933,58,80,0
13.257142,13.43683,54,80,0
13.444642,13.62433,49,80,0
13.632142,13.81183,42,80,0
13.819642,13.99933,58,80,0
14.007142,14.18683,54,80,0
14.194642,14.37433,49,80,0
14.382142,14.56183,47,80,0
14.569642,14.74933,59,80,0
14.757142,14.93683,54,80,0
14.944642,15.12433,51,80,0
15.132142,15.31183,47,80,0
15.319642,15.49933,59,80,0
15.507142,15.68683,49,80,0
15.694642,15.87433,57,80,0
15.882142,16.061829,47,80,0
16.069641,16.249329,56,80,0
16.257141,16.436829,52,80,0
16.444641,16.624329,47,80,0
16.632141,16.811829,40,80,0
16.819641,16.999329,56,80,0
17.007141,17.186829,52,80,0
17.194641,17.374329,47,80,0
17.382141,17.561829,45,80,0
17.569641,17.749329,57,80,0
17.757141,17.936829,52,80,0
17.944641,18.124329,49,80,0
18.132141,18.311829,45,80,0
18.319641,18.499329,52,80,0
18.507141,18.686829,44,80,0
18.694641,18.874329,52,81,0
18.882141,19.061829,44,82,0
19.069641,19.249329,52,83,0
19.257141,19.436829,45,84,0
19.444641,19.624329,52,85,0
19.632141,19.811829,45,87,0
19.819641,19.999329,52,88,0
20.007141,20.186829,47,89,0
20.194641,20.374329,52,90,0
20.382141,20.561829,49,91,0
20.569641,20.749329,52,92,0
20.757141,20.936829,49,94,0
20.944641,21.124329,52,95,0
21.132141,21.311829,48,96,0
21.319641,21.499329,52,97,0
21.507141,21.686829,48,98,0
21.694641,21.874329,52,88,0
21.882141,22.061829,47,80,0
22.069641,22.249329,54,80,0
22.257141,22.436829,47,80,0
22.444641,22.624329,54,80,0
22.444641,22.624329,57,80,0
22.632141,22.811829,47,80,0
22.819641,22.999329,54,80,0
22.819641,22.999329,57,80,0
23.007141,23.186829,47,80,0
23.194641,23.374329,54,80,0
23.194641,23.374329,57,80,0
23.382141,23.561829,56,80,0
23.382141,23.561829,52,80,0
23.569641,23.749329,59,80,0
23.757141,23.936829,56,80,0
23.944641,24.124329,52,80,0
24.132141,24.311829,51,80,0
24.319641,24.499329,59,80,0
24.507141,24.686829,54,80,0
24.694641,24.874329,51,80,0
24.882141,25.061829,49,80,0
25.069641,25.249329,58,80,0
25.257141,25.436829,54,80,0
25.444641,25.624329,49,80,0
25.632141,25.811829,42,80,0
25.819641,25.999329,58,80,0
26.007141,26.186829,54,80,0
26.194641,26.374329,49,80,0
26.382141,26.561829,47,80,0
26.569641,26.749329,59,80,0
26.757141,26.936829,54,80,0
26.944641,27.124329,51,80,0
27.132141,27.311829,47,80,0
27.319641,27.499329,59,80,0
27.507141,27.686829,49,80,0
27.694641,27.874329,57,80,0
27.882141,28.061829,47,80,0
28.069641,28.249329,56,80,0
28.257141,28.436829,52,80,0
28.444641,28.624329,47,80,0
28.632141,28.811829,40,80,0
28.819641,28.999329,56,80,0
29.007141,29.186829,52,80,0
29.194641,29.374329,47,80,0
29.382141,29.561829,45,80,0
29.569641,29.749329,57,80,0
29.757141,29.936829,52,80,0
29.944641,30.124329,49,80,0
30.132141,30.311829,45,80,0
30.319641,30.499329,52,80,0
30.507141,30.686829,44,80,0
30.694641,30.874329,52,81,0
30.882141,31.061829,44,82,0
31.069641,31.249329,52,83,0
31.257141,31.436829,45,84,0
31.444641,31.624329,52,85,0
31.632141,31.811829,45,87,0
31.632141,31.811829,49,87,0
31.819641,31.999329,52,88,0
32.00714,32.18683,47,89,0
32.00714,32.18683,52,89,0
32.19464,32.37433,56,90,0
32.38214,32.56183,49,91,0
32.38214,32.56183,52,91,0
32.56964,32.74933,58,92,0
32.75714,32.93683,49,94,0
32.75714,32.93683,52,94,0
32.94464,33.12433,58,95,0
33.13214,33.31183,48,96,0
33.13214,33.31183,52,96,0
33.31964,33.49933,57,97,0
33.50714,33.68683,48,98,0
33.50714,33.68683,52,100,0
33.69464,33.87433,57,89,0
33.88214,34.06183,47,80,0
33.88214,34.06183,51,80,0
34.06964,34.24933,57,80,0
34.25714,34.43683,47,80,0
34.25714,34.43683,51,80,0
34.44464,34.62433,57,80,0
34.63214,34.81183,47,80,0
34.63214,34.81183,51,80,0
34.81964,34.99933,57,80,0
35.00714,35.18683,47,80,0
35.00714,35.18683,51,80,0
35.19464,35.37433,57,80,0
35.38214,35.56183,56,80,0
35.38214,35.56183,52,80,0
35.56964,35.74933,52,80,0
35.75714,35.93683,51,80,0
35.94464,36.12433,49,80,0
36.13214,36.323807,47,80,0
36.33214,36.523808,45,80,0
36.532143,36.7375,44,80,0
36.746426,36.951786,42,80,0
36.960712,37.35238,40,80,0
38.485714,38.8529,35,80,0
39.985714,40.3529,37,80,0
40.735714,41.1029,39,80,0
41.110714,41.4779,35,80,0
41.485714,41.8529,40,80,0
41.860714,42.0404,64,80,0
42.048214,42.2279,59,80,0
42.235714,42.4154,64,80,0
42.423214,42.6029,59,81,0
42.610714,42.7904,64,82,0
42.798214,42.9779,59,83,0
42.985714,43.1654,64,84,0
43.173214,43.3529,59,85,0
43.360714,43.5404,64,87,0
43.548214,43.7279,59,88,0
43.735714,43.9154,68,89,0
43.923214,44.1029,59,90,0
44.110714,44.2904,66,91,0
44.298214,44.4779,59,93,0
44.485714,44.6654,64,94,0
44.673214,44.8529,59,95,0
44.860714,45.0404,63,96,0
45.048214,45.2279,59,97,0
45.235714,45.4154,63,99,0
45.423214,45.6029,59,100,0
45.610714,45.7904,65,101,0
45.798214,45.9779,59,102,0
45.985714,46.1654,66,103,0
46.173214,46.3529,59,105,0
46.360714,46.5404,69,106,0
46.548214,46.7279,59,107,0
46.735714,46.9154,68,108,0
46.923214,47.1029,59,109,0
47.110714,47.2904,66,110,0
47.298214,47.4779,59,110,0
47.485714,47.67738,64,110,0
47.685715,47.87738,59,110,0
47.88571,48.07738,56,110,0
48.085712,48.277378,59,110,0
48.285713,48.67738,52,110,0
49.070328,49.254623,61,110,0
49.262634,49.44693,56,110,0
49.454945,49.628136,52,110,0
49.635666,49.808857,56,110,0
49.816387,50.170303,49,110,0
50.177834,50.53175,61,80,0
50.53928,50.71247,60,80,0
50.72,50.893196,56,80,0
50.900726,51.073917,51,80,0
51.081448,51.25464,56,80,0
51.26217,51.616085,48,80,0
51.623615,51.97753,60,110,0
51.98506,52.158253,56,110,0
52.165783,52.338978,51,110,0
52.346508,52.5197,48,110,0
52.52723,52.700424,51,110,0
52.707954,53.061867,44,110,0
53.069397,53.423313,60,80,0
53.430843,53.604034,61,80,0
53.611565,53.78476,56,80,0
53.79229,53.96548,52,80,0
53.97301,54.146206,56,80,0
54.153736,54.50765,49,80,0
54.51518,54.869095,61,110,0
54.876625,55.04982,59,110,0
55.057346,55.23054,56,110,0
55.23807,55.411263,52,110,0
55.418793,55.591988,56,110,0
55.599518,55.95343,47,110,0
55.96096,56.314877,59,80,0
56.322407,56.4956,58,80,0
56.50313,56.676323,54,80,0
56.683853,56.857044,49,80,0
56.864574,57.03777,54,80,0
57.0453,57.399216,46,80,0
57.406742,57.76066,46,110,0
57.76819,57.941383,44,110,0
57.948914,58.122105,40,110,0
58.129635,58.31393,35,110,0
58.32194,58.506237,40,110,0
58.51425,58.916645,32,110,0
58.92521,59.377132,32,110,0
58.92521,59.377132,44,110,0
59.386745,59.80639,42,110,0
59.386745,59.80639,30,110,0
59.81532,60.006985,66,80,0
60.015316,60.206985,68,80,0
60.215317,60.395004,66,80,0
60.402817,60.582504,68,80,0
60.590317,60.770004,66,80,0
60.777817,60.957504,68,80,0
60.965317,61.145004,66,80,0
61.152817,61.332504,68,80,0
61.340317,61.520004,66,80,0
61.527817,61.707504,68,80,0
61.715317,61.895004,66,80,0
60.965317,62.082504,61,80,0
60.965317,62.082504,58,80,0
61.902817,62.082504,68,80,0
62.090317,62.270004,66,80,0
62.090317,62.457504,63,80,0
62.090317,62.457504,59,80,0
62.277817,62.457504,68,80,0
62.465317,62.645004,66,80,0
62.465317,62.832504,63,80,0
62.465317,62.832504,59,80,0
62.652817,62.832504,68,80,0
62.840317,63.020004,66,80,0
62.840317,63.207504,64,80,0
62.840317,63.207504,61,80,0
63.027817,63.207504,68,80,0
63.215317,63.395004,66,80,0
63.215317,63.582504,64,80,0
63.215317,63.582504,61,80,0
63.402817,63.582504,68,80,0
63.590317,63.770004,66,80,0
63.590317,63.957504,63,80,0
63.590317,63.957504,59,80,0
63.777817,63.957504,68,80,0
63.965317,64.145004,66,80,0
64.15282,64.332504,68,80,0
64.34032,64.520004,66,80,0
64.52782,64.707504,68,80,0
64.71532,64.895004,66,80,0
63.965317,65.082504,61,80,0
63.965317,65.082504,58,80,0
64.90282,65.082504,68,80,0
65.09032,65.270004,66,80,0
65.09032,65.457504,63,80,0
65.09032,65.457504,59,80,0
65.27782,65.457504,68,80,0
65.46532,65.645004,66,80,0
65.46532,65.832504,64,80,0
65.46532,65.832504,61,80,0
65.65282,65.832504,68,80,0
65.84032,66.020004,66,80,0
65.84032,66.207504,61,80,0
65.84032,66.207504,58,80,0
66.02782,66.207504,68,80,0
66.21532,66.395004,66,80,0
66.21532,66.582504,63,80,0
66.21532,66.582504,59,80,0
66.40282,66.582504,68,80,0
66.59032,66.770004,66,80,0
66.59032,66.957504,64,80,0
66.59032,66.957504,61,80,0
66.77782,66.957504,68,80,0
66.96532,67.145004,66,80,0
66.96532,67.145004,63,80,0
67.15282,67.332504,71,80,0
67.34032,67.520004,66,80,0
67.52782,67.707504,71,80,0
67.71532,67.895004,64,80,0
67.90282,68.082504,71,80,0
68.09032,68.270004,63,80,0
68.27782,68.457504,71,80,0
68.46532,68.645004,64,80,0
68.65282,68.832504,71,80,0
68.84032,69.020004,66,80,0
69.02782,69.207504,71,80,0
69.21532,69.395004,68,80,0
69.40282,69.582504,71,80,0
69.59032,69.770004,65,80,0
69.77782,69.957504,71,80,0
70.15282,70.332504,68,80,0
70.34032,70.520004,70,80,0
70.52782,70.707504,71,80,0
70.71532,70.904465,70,80,0
70.91269,71.10183,71,80,0
71.110054,71.30697,73,80,0
69.96532,71.51245,66,80,0
71.31554,71.51245,75,80,0
71.52101,71.92341,70,80,0
71.52101,71.92341,66,80,0
71.93197,72.12112,68,80,0
72.12934,72.31848,66,80,0
72.326706,72.50639,68,80,0
72.514206,72.69389,66,80,0
72.701706,72.88139,68,80,0
72.889206,73.06889,66,80,0
73.076706,73.25639,68,80,0
73.264206,73.44389,66,80,0
73.451706,73.63139,68,80,0
73.639206,73.81889,66,80,0
73.826706,74.00639,68,80,0
73.076706,74.19389,61,80,0
73.076706,74.19389,58,80,0
74.014206,74.19389,66,80,0
74.201706,74.38139,68,80,0
74.201706,74.56889,63,80,0
74.201706,74.56889,59,80,0
74.389206,74.56889,66,80,0
74.576706,74.75639,68,80,0
74.576706,74.94389,63,80,0
74.576706,74.94389,59,80,0
74.764206,74.94389,66,80,0
74.951706,75.13139,68,80,0
74.951706,75.31889,64,80,0
74.951706,75.31889,61,80,0
75.139206,75.31889,66,80,0
75.326706,75.50639,68,80,0
75.326706,75.69389,64,80,0
75.326706,75.69389,61,80,0
75.514206,75.69389,66,80,0
75.701706,75.88139,68,80,0
75.701706,76.06889,63,80,0
75.701706,76.06889,59,80,0
75.889206,76.06889,66,80,0
76.076706,76.25639,68,80,0
76.264206,76.44389,66,81,0
76.451706,76.63139,68,83,0
76.639206,76.81889,66,85,0
76.826706,77.00639,68,87,0
76.076706,77.19389,61,80,0
76.076706,77.19389,58,80,0
77.014206,77.19389,66,89,0
77.201706,77.38139,68,91,0
77.201706,77.56889,63,91,0
77.201706,77.56889,59,91,0
77.389206,77.56889,66,93,0
77.576706,77.75639,64,95,0
77.576706,77.75639,61,95,0
77.764206,77.94389,66,97,0
77.951706,78.13139,58,99,0
77.951706,78.13139,54,99,0
78.139206,78.31889,66,101,0
78.326706,78.50639,59,103,0
78.326706,78.50639,56,103,0
78.514206,78.69389,66,105,0
78.701706,78.88139,61,107,0
78.701706,78.88139,58,107,0
78.889206,79.06889,66,109,0
79.076706,79.25639,63,110,0
79.076706,79.25639,59,110,0
79.264206,79.44389,66,109,0
79.451706,79.63139,59,108,0
79.451706,79.63139,56,108,0
79.639206,79.81889,66,107,0
79.826706,80.00639,61,105,0
79.826706,80.00639,58,105,0
80.014206,80.19389,66,104,0
80.201706,80.38139,63,103,0
80.201706,80.38139,59,103,0
80.389206,80.56889,66,101,0
80.576706,80.75639,64,100,0
80.576706,80.75639,61,100,0
80.764206,80.94389,66,99,0
80.951706,81.13139,61,97,0
80.951706,81.13139,58,97,0
81.139206,81.31889,66,96,0
81.326706,81.50639,63,95,0
81.326706,81.50639,59,95,0
81.514206,81.69389,66,94,0
81.701706,81.88139,64,92,0
81.701706,81.88139,61,92,0
81.889206,82.06889,66,91,0
82.076706,82.25639,63,90,0
82.264206,82.44389,66,88,0
82.451706,82.63139,63,87,0
82.639206,82.81889,66,86,0
82.826706,83.01837,63,84,0
83.02671,83.218376,66,83,0
83.22671,83.43207,63,82,0
83.440994,83.64635,66,81,0
83.65528,84.07492,66,70,0
83.65528,84.07492,63,70,0
84.67135,84.851036,56,70,0
84.85885,85.038536,58,70,0
85.04635,85.226036,60,70,0
85.23385,85.413536,61,70,0
85.42135,85.601036,56,70,0
85.60885,85.788536,58,70,0
85.79635,85.976036,60,70,0
85.98385,86.038536,63,70,0
86.04635,86.163536,61,70,0
86.17135,86.351036,60,70,0
86.35885,86.538536,61,70,0
86.54635,86.726036,63,70,0
86.73385,86.913536,64,70,0
86.92135,87.101036,63,70,0
87.10885,87.288536,64,70,0
87.29635,87.476036,66,70,0
87.48385,87.663536,68,70,0
87.67135,87.851036,66,70,0
87.85885,88.038536,64,70,0
88.04635,88.226036,65,70,0
88.23385,88.62552,66,70,0
89.03385,89.45349,54,70,0
89.89099,90.13318,47,80,0
90.14099,90.38318,54,80,0
90.39099,90.63318,51,80,0
90.64099,90.88318,47,80,0
90.89099,91.13318,59,80,0
91.14099,91.38318,54,80,0
91.39099,91.63318,49,80,0
91.64099,91.88318,58,80,0
91.89099,92.13318,54,80,0
92.14099,92.38318,51,80,0
92.39099,92.63318,59,80,0
92.64099,92.88318,54,80,0
92.89099,93.13318,52,80,0
93.14099,93.38318,61,80,0
93.39099,93.63318,56,80,0
93.64099,93.88318,53,80,0
93.89099,94.13318,62,80,0
94.14099,94.38318,56,80,0
94.39099,94.63318,54,80,0
94.64099,94.88318,63,80,0
94.89099,95.13318,59,80,0
95.14099,95.38318,52,80,0
95.39099,95.63318,61,80,0
95.64099,95.88318,58,80,0
95.89099,96.07068,51,80,0
96.07849,96.25818,59,80,0
96.26599,96.44568,54,81,0
96.45349,96.63318,51,82,0
96.64099,96.82068,47,83,0
96.82849,97.00818,54,84,0
97.01599,97.19568,51,85,0
97.20349,97.38318,47,86,0
97.39099,97.57068,49,87,0
97.57849,97.75818,57,88,0
97.76599,97.94568,52,89,0
97.95349,98.13318,49,90,0
98.14099,98.32068,51,91,0
98.32849,98.50818,59,92,0
98.51599,98.69568,54,93,0
98.70349,98.88318,51,94,0
98.89099,99.07068,52,95,0
99.07849,99.25818,61,96,0
99.26599,99.44568,57,97,0
99.45349,99.63318,52,98,0
99.64099,99.82068,54,99,0
99.82849,100.00818,59,100,0
100.01599,100.19568,57,101,0
100.20349,100.38318,54,102,0
100.39099,100.57068,54,103,0
100.57849,100.75818,59,104,0
100.76599,100.94568,57,105,0
100.95349,101.13318,54,106,0
101.14099,101.32068,48,107,0
101.32849,101.50818,57,108,0
101.51599,101.69568,54,108,0
101.70349,101.88318,51,109,0
101.89099,102.07068,48,110,0
102.07849,102.25818,57,106,0
102.26599,102.44568,54,102,0
102.45349,102.63318,51,98,0
102.64099,102.83266,48,93,0
102.84099,103.03266,57,89,0
103.04099,103.246346,54,85,0
103.25528,103.46063,51,81,0
103.46956,103.67492,47,80,0
103.683846,103.889206,57,80,0
103.89813,104.10349,54,80,0
104.11242,104.31778,51,80,0
104.326706,104.53206,47,80,0
104.54099,104.746346,57,80,0
104.75527,104.96063,56,80,0
104.96956,105.17492,54,80,0
105.183846,105.60349,52,80,0
105.183846,105.60349,40,80,0
106.76242,107.12961,47,80,0
106.76242,107.12961,35,80,0
108.26242,108.62961,49,80,0
108.26242,108.62961,37,80,0
109.01242,109.37961,51,80,0
109.01242,109.37961,39,80,0
109.38742,109.75461,47,80,0
109.38742,109.75461,35,80,0
109.76242,109.94211,52,80,0
109.76242,109.94211,40,80,0
109.94992,110.12961,56,80,0
110.13742,110.31711,59,80,0
110.32492,110.50461,57,80,0
110.51242,110.69211,56,80,0
110.69992,110.87961,57,80,0
110.88742,111.06711,56,80,0
111.07492,111.25461,54,80,0
111.26242,111.44211,52,80,0
111.44992,111.62961,59,80,0
111.63742,111.81711,47,80,0
111.82492,112.00461,59,80,0
112.01242,112.19211,52,80,0
112.19992,112.37961,59,80,0
112.38742,112.56711,47,80,0
112.57492,112.75461,59,80,0
112.76242,112.94211,51,80,0
112.94992,113.12961,59,80,0
113.13742,113.31711,47,80,0
113.32492,113.50461,59,80,0
113.51242,113.69211,51,80,0
113.69992,113.87961,59,80,0
113.88742,114.06711,53,80,0
114.07492,114.25461,59,80,0
114.26242,114.44211,54,80,0
114.44992,114.62961,59,84,0
114.63742,114.81711,57,89,0
114.82492,115.00461,59,94,0
115.01242,115.19211,56,99,0
115.19992,115.37961,59,80,0
115.38742,115.56711,54,80,0
115.38742,115.56711,47,80,0
115.57492,115.75461,57,80,0
115.76242,115.94211,56,80,0
115.76242,115.94211,52,80,0
115.94992,116.12961,59,80,0
116.13742,116.31711,56,80,0
116.32492,116.50461,52,80,0
116.51242,116.69211,51,80,0
116.69992,116.87961,59,80,0
116.88742,117.06711,54,80,0
117.07492,117.25461,51,80,0
117.26242,117.44211,49,80,0
117.44992,117.62961,58,80,0
117.63742,117.81711,54,80,0
117.82492,118.00461,49,80,0
118.01242,118.19211,42,80,0
118.19992,118.37961,58,80,0
118.38742,118.56711,54,80,0
118.57492,118.75461,49,80,0
118.76242,118.94211,47,80,0
118.94992,119.12961,59,80,0
119.13742,119.31711,54,80,0
119.32492,119.50461,51,80,0
119.51242,119.69211,47,80,0
119.69992,119.87961,59,80,0
119.88742,120.06711,49,80,0
120.07492,120.25461,57,80,0
120.26242,120.44211,47,80,0
120.44992,120.62961,56,80,0
120.63742,120.81711,52,80,0
120.82492,121.00461,47,80,0
121.01242,121.19211,40,80,0
121.19992,121.37961,56,80,0
121.38742,121.56711,52,80,0
121.57492,121.75461,47,80,0
121.76242,121.94211,45,80,0
121.94992,122.12961,57,80,0
122.13742,122.31711,52,80,0
122.32492,122.50461,49,80,0
122.51242,122.69211,45,80,0
122.69992,122.87961,52,80,0
122.88742,123.06711,44,80,0
123.07492,123.25461,52,81,0
123.26242,123.44211,44,82,0
123.44992,123.62961,52,83,0
123.63742,123.81711,45,84,0
123.82492,124.00461,52,85,0
124.01242,124.19211,45,87,0
124.19992,124.37961,52,88,0
124.38742,124.56711,47,89,0
124.57492,124.75461,52,90,0
124.76242,124.94211,49,91,0
124.94992,125.12961,52,92,0
125.13742,125.31711,49,94,0
125.32492,125.50461,52,95,0
125.51242,125.69211,48,96,0
125.69992,125.87961,52,97,0
125.88742,126.06711,48,98,0
126.07492,126.25461,52,90,0
126.26242,126.44211,47,80,0
126.44992,126.62961,54,80,0
126.63742,126.81711,47,80,0
126.82492,127.00461,54,80,0
126.82492,127.00461,57,80,0
127.01242,127.19211,47,80,0
127.19992,127.37961,54,80,0
127.19992,127.37961,57,80,0
127.38742,127.56711,47,80,0
127.57492,127.75461,54,80,0
127.57492,127.75461,57,80,0
127.76242,127.94211,56,80,0
127.76242,127.94211,52,80,0
127.94992,128.12961,59,80,0
128.13742,128.31711,56,80,0
128.32492,128.50461,52,80,0
128.51242,128.69211,51,80,0
128.69992,128.87961,59,80,0
128.88742,129.06711,54,80,0
129.07492,129.25461,51,80,0
129.26242,129.44211,49,80,0
129.44992,129.62961,58,80,0
129.63742,129.81711,54,80,0
129.82492,130.00461,49,80,0
130.01242,130.19211,42,80,0
130.19992,130.37961,58,80,0
130.38742,130.56711,54,80,0
130.57492,130.75461,49,80,0
130.76242,130.94211,47,80,0
130.94992,131.12961,59,80,0
131.13742,131.31711,54,80,0
131.32492,131.50461,51,80,0
131.51242,131.69211,47,80,0
131.69992,131.87961,59,80,0
131.88742,132.06711,49,80,0
132.07492,132.25461,57,80,0
132.26242,132.44211,47,80,0
132.44992,132.62961,56,80,0
132.63742,132.81711,52,80,0
132.82492,133.00461,47,80,0
133.01242,133.19211,40,80,0
133.19992,133.37961,56,80,0
133.38742,133.56711,52,80,0
133.57492,133.75461,47,80,0
133.76242,133.94211,45,80,0
133.94992,134.12961,57,80,0
134.13742,134.31711,52,80,0
134.32492,134.50461,49,80,0
134.51242,134.69211,45,80,0
134.69992,134.87961,52,80,0
134.88742,135.06711,44,80,0
135.07492,135.25461,52,81,0
135.26242,135.44211,44,82,0
135.44992,135.62961,52,83,0
135.63742,135.81711,45,84,0
135.82492,136.00461,52,85,0
136.01242,136.19211,45,87,0
136.01242,136.19211,49,87,0
136.19992,136.37961,52,88,0
136.38742,136.56711,47,89,0
136.38742,136.56711,52,89,0
136.57492,136.75461,56,90,0
136.76242,136.94211,49,91,0
136.76242,136.94211,52,91,0
136.94992,137.12961,58,92,0
137.13742,137.31711,49,94,0
137.13742,137.31711,52,94,0
137.32492,137.50461,58,95,0
137.51242,137.69211,48,96,0
137.51242,137.69211,52,96,0
137.69992,137.87961,57,97,0
137.88742,138.06711,48,98,0
137.88742,138.06711,52,98,0
138.07492,138.25461,57,92,0
138.26242,138.44211,47,80,0
138.26242,138.44211,51,80,0
138.44992,138.62961,57,80,0
138.63742,138.81711,47,80,0
138.63742,138.81711,51,80,0
138.82492,139.00461,57,80,0
139.01242,139.19211,47,80,0
139.01242,139.19211,51,80,0
139.19992,139.37961,57,80,0
139.38742,139.56711,47,80,0
139.38742,139.56711,51,80,0
139.57492,139.75461,57,80,0
139.76242,139.94211,56,80,0
139.76242,139.94211,52,80,0
139.94992,140.12961,52,80,0
140.13742,140.31711,51,80,0
140.32492,140.50461,49,80,0
140.51242,140.70409,47,80,0
140.71242,140.90408,45,80,0
140.91241,141.11777,44,80,0
141.12671,141.33206,42,80,0
141.34099,141.76064,40,80,0
142.91956,143.28674,35,80,0
144.41956,144.78674,37,80,0
145.16956,145.53674,39,80,0
145.54456,145.91174,35,80,0
145.91956,146.28674,40,80,0
146.29456,146.47424,64,80,0
146.48206,146.66174,59,80,0
146.66956,146.84924,64,80,0
146.85706,147.03674,59,81,0
147.04456,147.22424,64,82,0
147.23206,147.41174,59,83,0
147.41956,147.59924,64,84,0
147.60706,147.78674,59,85,0
147.79456,147.97424,64,86,0
147.98206,148.16174,59,87,0
148.16956,148.34924,68,88,0
148.35706,148.53674,59,89,0
148.54456,148.72424,66,91,0
148.73206,148.91174,59,92,0
148.91956,149.09924,64,93,0
149.10706,149.28674,59,94,0
149.29456,149.47424,63,95,0
149.48206,149.66174,59,96,0
149.66956,149.84924,63,97,0
149.85706,150.03674,59,98,0
150.04456,150.22424,65,99,0
150.23206,150.41174,59,101,0
150.41956,150.59924,66,102,0
150.60706,150.78674,59,103,0
150.79456,150.97424,69,104,0
150.98206,151.16174,59,105,0
151.16956,151.34924,68,106,0
151.35706,151.53674,59,107,0
151.54456,151.72424,66,108,0
151.73206,151.91174,59,109,0
151.91956,152.09924,64,110,0
152.10706,152.28674,59,110,0
152.29456,152.47424,56,110,0
152.48206,152.66174,59,110,0
152.66956,152.84924,52,100,0
152.85706,153.03674,59,90,0
153.04456,153.22424,47,80,0
153.23206,153.41174,59,80,0
153.41956,153.59924,54,80,0
153.60706,153.78674,59,80,0
153.79456,153.97424,57,80,0
153.98206,154.16174,59,80,0
154.16956,154.34924,56,80,0
154.35706,154.53674,59,80,0
154.54456,154.72424,54,80,0
154.73206,154.91174,59,80,0
154.91956,155.09924,52,80,0
155.10706,155.28674,59,80,0
155.29456,155.47424,64,80,0
155.48206,155.66174,59,80,0
155.66956,155.84924,64,80,0
155.85706,156.03674,59,80,0
156.04456,156.22424,64,80,0
156.23206,156.41174,59,80,0
156.41956,156.59924,66,80,0
156.60706,156.78674,59,84,0
156.79456,156.97424,69,88,0
156.98206,157.16174,59,92,0
157.16956,157.34924,67,97,0
157.35706,157.53674,59,101,0
157.54456,157.72424,66,105,0
157.73206,157.91174,59,109,0
157.91956,158.09924,64,110,0
158.10706,158.28674,59,110,0
158.29456,158.47424,55,110,0
158.48206,158.66174,59,110,0
158.66956,158.84924,52,100,0
158.85706,159.03674,59,90,0
159.04456,159.22424,47,80,0
159.23206,159.41174,59,80,0
159.41956,159.59924,54,80,0
159.60706,159.78674,59,80,0
159.79456,159.97424,57,81,0
159.98206,160.16174,59,82,0
160.16956,160.34924,55,83,0
160.35706,160.53674,59,84,0
160.54456,160.72424,54,85,0
160.73206,160.91174,59,86,0
160.91956,161.09924,52,87,0
161.10706,161.28674,64,88,0
161.29456,161.47424,50,89,0
161.48206,161.66174,62,90,0
161.66956,161.84924,48,91,0
161.85706,162.03674,60,92,0
162.04456,162.22424,47,93,0
162.23206,162.41174,59,94,0
162.41956,162.59924,45,95,0
162.60706,162.78674,57,96,0
162.79456,162.98125,43,97,0
162.98936,163.17606,55,98,0
163.18417,163.39557,41,99,0
163.40475,163.61615,53,100,0
163.62535,163.83675,40,101,0
163.84593,164.05733,52,102,0
164.06653,164.2582,38,103,0
164.26653,164.45819,50,104,0
164.46652,164.65819,36,105,0
164.66652,164.85818,48,106,0
164.86652,165.05818,35,107,0
165.06653,165.2582,47,108,0
165.26653,165.45819,33,108,0
165.46652,165.65819,45,109,0
165.66652,165.85818,31,80,0
165.86652,166.05818,43,80,0
166.06653,166.2532,35,80,0
166.26132,166.44801,47,80,0
166.45613,166.64282,38,80,0
166.65094,166.83763,50,80,0
166.84575,167.03242,42,80,0
167.04054,167.22723,54,80,0
167.23535,167.42204,43,80,0
167.43016,167.61685,55,80,0
167.62495,167.81165,47,80,0
167.81976,168.00645,59,80,0
168.01457,168.20126,50,80,0
168.20938,168.39606,62,80,0
168.40417,168.59087,54,80,0
168.59898,168.78568,66,80,0
168.7938,168.98048,55,80,0
168.9886,169.17528,67,80,0
169.1834,169.37009,57,80,0
169.3782,169.5649,69,80,0
169.57301,169.7597,59,80,0
169.76782,169.9545,71,80,0
169.96262,170.1493,60,80,0
170.15742,170.34412,72,80,0
170.35223,170.5439,65,80,0
170.55223,170.7439,72,80,0
170.75223,170.9439,66,80,0
170.95222,171.1439,72,80,0
171.15224,171.34915,67,80,0
171.35771,171.55463,72,80,0
171.56319,171.99518,55,80,0
172.00436,172.27347,48,80,0
172.28215,172.54439,55,80,0
172.55261,172.80754,52,80,0
172.81577,173.07071,48,80,0
173.07893,173.33386,60,80,0
173.34209,173.59702,55,80,0
173.60524,173.86017,50,80,0
173.8684,174.12334,59,80,0
174.13156,174.38649,55,80,0
174.39471,174.64964,52,80,0
174.65787,174.91281,60,80,0
174.92104,175.17596,55,80,0
175.18419,175.43912,53,80,0
175.44734,175.70229,62,80,0
175.71051,175.96544,57,80,0
175.97366,176.22859,54,80,0
176.23682,176.49176,63,80,0
176.49997,176.75491,60,80,0
176.76314,177.01807,55,80,0
177.02629,177.28122,64,80,0
177.28944,177.54439,60,80,0
177.55261,177.80754,55,80,0
177.81577,178.0707,65,80,0
178.07892,178.33386,62,80,0
178.07892,178.33386,59,80,0
178.34209,178.53122,60,80,0
178.34209,178.53122,48,80,0
178.53944,178.72859,55,80,0
178.73682,178.92596,51,80,0
178.93419,179.12334,55,80,0
179.13155,179.3207,48,80,0
179.32892,179.51807,60,80,0
179.52629,179.71544,55,80,0
179.72366,179.9128,48,80,0
179.92102,180.11017,50,80,0
180.1184,180.30754,59,80,0
180.31577,180.50491,55,80,0
180.51314,180.70227,50,80,0
180.7105,180.89964,51,80,0
180.90787,181.09702,60,80,0
181.10524,181.29437,55,80,0
181.3026,181.49174,51,80,0
181.49997,181.68912,53,80,0
181.69734,181.88649,62,80,0
181.89471,182.08385,56,80,0
182.09207,182.28122,53,80,0
182.28944,182.47859,54,80,0
182.48682,182.67596,63,80,0
182.68419,182.87332,60,80,0
182.88155,183.0707,54,80,0
183.07892,183.26807,55,80,0
183.27629,183.46542,63,80,0
183.47365,183.6628,60,80,0
183.67102,183.86017,55,80,0
183.8684,184.05754,56,80,0
184.06577,184.2549,63,80,0
184.26312,184.45227,60,80,0
184.4605,184.64964,63,80,0
184.65787,184.9128,49,80,0
184.65787,184.9128,61,80,0
184.92102,185.17595,56,80,0
185.18417,185.43912,52,80,0
185.44734,185.70227,49,80,0
185.7105,185.96542,61,80,0
185.97365,186.22859,56,80,0
186.23682,186.49174,51,80,0
186.49997,186.7549,60,80,0
186.76312,187.01807,56,80,0
187.02628,187.28122,52,80,0
187.28944,187.54437,61,80,0
187.5526,187.80753,56,80,0
187.81575,188.0707,54,80,0
188.07892,188.33385,63,80,0
188.34207,188.597,57,80,0
188.60522,188.86017,55,80,0
188.8684,189.12332,64,80,0
189.13155,189.38647,61,80,0
189.3947,189.64964,56,80,0
189.65785,189.9128,64,80,0
189.92102,190.17595,61,80,0
190.18417,190.37332,56,80,0
190.38155,190.5707,63,80,0
190.57892,190.76805,60,80,0
190.77628,190.96542,63,80,0
190.97365,191.1628,61,80,0
190.97365,191.1628,49,80,0
191.17102,191.36015,56,80,0
191.36838,191.54807,53,81,0
191.55588,191.73557,56,82,0
191.74338,191.92307,49,83,0
191.93088,192.11057,61,84,0
192.11838,192.29807,56,85,0
192.30588,192.48557,49,86,0
192.49338,192.67307,51,87,0
192.68088,192.86057,60,88,0
192.86838,193.04807,56,89,0
193.05588,193.23557,51,90,0
193.24338,193.42307,53,91,0
193.43088,193.61057,61,92,0
193.61838,193.79807,56,93,0
193.80588,193.98557,53,94,0
193.99338,194.17307,54,95,0
194.18088,194.36057,61,96,0
194.36838,194.54807,57,97,0
194.55588,194.73557,54,98,0
194.74338,194.92307,54,99,0
194.93088,195.11057,61,100,0
195.11838,195.29807,57,101,0
195.30588,195.48557,54,102,0
195.49338,195.67307,54,103,0
195.68088,195.86057,61,104,0
195.86838,196.04807,57,105,0
196.05588,196.23557,54,106,0
196.24338,196.42307,52,107,0
196.43088,196.61057,61,108,0
196.61838,196.79807,57,108,0
196.80588,196.98557,52,109,0
196.99338,197.36057,59,110,0
196.99338,197.36057,51,110,0
197.36838,197.54807,57,110,0
197.55588,197.73557,60,110,0
197.74338,197.92307,59,110,0
197.93088,198.11057,58,110,0
198.11838,198.29807,59,110,0
198.30588,198.48557,54,110,0
198.49338,198.67307,51,110,0
198.68088,198.86057,49,110,0
198.86838,199.04807,51,110,0
199.05588,199.23557,47,110,0
199.24338,199.61057,51,110,0
199.61838,199.98557,54,110,0
200.36838,200.54807,57,110,0
200.55588,200.73557,60,110,0
200.74338,200.92307,59,110,0
200.93088,201.11057,58,110,0
201.11838,201.29807,59,110,0
201.30588,201.48557,54,110,0
201.49338,201.67307,51,110,0
201.68088,201.86057,49,110,0
201.86838,202.04807,51,110,0
202.05588,202.23557,47,110,0
202.24338,202.6299,51,110,0
202.63812,203.04611,54,110,0
203.4298,203.60948,57,110,0
203.6173,203.79698,60,110,0
203.8048,203.98448,59,110,0
203.9923,204.17198,58,110,0
204.1798,204.35948,59,110,0
204.3673,204.54698,54,110,0
204.5548,204.73448,51,110,0
204.7423,204.92198,49,110,0
204.9298,205.10948,51,110,0
205.1173,205.29698,47,110,0
205.3048,205.49393,51,110,0
205.50215,205.6913,49,110,0
205.69952,205.88867,51,110,0
205.8969,206.08604,54,110,0
206.09425,206.48077,57,110,0
206.489,206.8755,51,80,0
206.88373,207.27025,54,80,0
207.27847,207.66498,59,80,0
207.6732,208.05972,57,80,0
208.06795,208.45445,51,80,0
208.46268,208.8492,54,80,0
208.85742,209.24393,59,80,0
209.25215,209.63867,57,80,0
209.6469,210.0334,51,80,0
210.04163,210.42813,54,80,0
210.43636,211.02025,59,80,0
211.02847,211.2176,57,80,0
211.22583,211.41498,59,80,0
211.4232,211.61235,57,80,0
211.62057,211.81749,56,80,0
211.82605,212.02296,57,80,0
212.03152,212.2369,56,80,0
212.24582,212.45117,54,80,0
212.4601,212.85176,52,80,0
212.4601,212.85176,40,80,0
213.9851,214.3523,47,80,0
213.9851,214.3523,35,80,0
215.4851,215.8523,49,80,0
215.4851,215.8523,37,80,0
216.2351,216.6023,51,80,0
216.2351,216.6023,39,80,0
216.6101,216.9773,47,80,0
216.6101,216.9773,35,80,0
216.9851,217.1648,52,80,0
216.9851,217.1648,40,80,0
217.1726,217.3523,56,80,0
217.3601,217.5398,59,80,0
217.5476,217.7273,57,80,0
217.7351,217.9148,56,80,0
217.9226,218.1023,57,80,0
218.1101,218.2898,56,80,0
218.2976,218.4773,54,80,0
218.4851,218.6648,52,80,0
218.6726,218.8523,59,80,0
218.8601,219.0398,47,80,0
219.0476,219.2273,59,80,0
219.2351,219.4148,52,80,0
219.4226,219.6023,59,80,0
219.6101,219.7898,47,80,0
219.7976,219.9773,59,80,0
219.9851,220.1648,51,80,0
220.1726,220.3523,59,80,0
220.3601,220.5398,47,80,0
220.5476,220.7273,59,80,0
220.7351,220.9148,51,80,0
220.9226,221.1023,59,80,0
221.1101,221.2898,53,80,0
221.2976,221.4773,59,80,0
221.4851,221.6648,54,80,0
221.6726,221.8523,59,84,0
221.8601,222.0398,57,89,0
222.0476,222.2273,59,94,0
222.2351,222.4148,56,99,0
222.4226,222.6023,59,89,0
222.6101,222.7898,54,80,0
222.6101,222.7898,47,80,0
222.7976,222.9773,57,80,0
222.9851,223.1648,56,80,0
222.9851,223.1648,52,80,0
223.1726,223.3523,59,80,0
223.3601,223.5398,56,80,0
223.5476,223.7273,52,80,0
223.7351,223.9148,51,80,0
223.9226,224.1023,59,80,0
224.1101,224.2898,54,80,0
224.2976,224.4773,51,80,0
224.4851,224.6648,49,80,0
224.6726,224.8523,58,80,0
224.8601,225.0398,54,80,0
225.0476,225.2273,49,80,0
225.2351,225.4148,42,80,0
225.4226,225.6023,58,80,0
225.6101,225.7898,54,80,0
225.7976,225.9773,49,80,0
225.9851,226.1648,47,80,0
226.1726,226.3523,59,80,0
226.3601,226.5398,54,80,0
226.5476,226.7273,51,80,0
226.7351,226.9148,47,80,0
226.9226,227.1023,59,80,0
227.1101,227.2898,49,80,0
227.2976,227.4773,57,80,0
227.4851,227.6648,47,80,0
227.6726,227.8523,56,80,0
227.8601,228.0398,52,80,0
228.0476,228.2273,47,80,0
228.2351,228.4148,40,80,0
228.4226,228.6023,56,80,0
228.6101,228.7898,52,80,0
228.7976,228.9773,47,80,0
228.9851,229.1648,45,80,0
229.1726,229.3523,57,80,0
229.3601,229.5398,52,80,0
229.5476,229.7273,49,80,0
229.7351,229.9148,45,80,0
229.9226,230.1023,52,80,0
230.1101,230.2898,44,80,0
230.2976,230.4773,52,81,0
230.4851,230.6648,44,82,0
230.6726,230.8523,52,83,0
230.8601,231.0398,45,84,0
231.0476,231.2273,52,85,0
231.2351,231.4148,45,87,0
231.4226,231.6023,52,88,0
231.6101,231.7898,47,89,0
231.7976,231.9773,52,90,0
231.9851,232.1648,49,91,0
232.1726,232.3523,52,92,0
232.3601,232.5398,49,94,0
232.5476,232.7273,52,95,0
232.7351,232.9148,48,96,0
232.9226,233.1023,52,97,0
233.1101,233.2898,48,98,0
233.2976,233.4773,52,90,0
233.4851,233.6648,47,80,0
233.6726,233.8523,54,80,0
233.8601,234.0398,47,80,0
234.0476,234.2273,54,80,0
234.0476,234.2273,57,80,0
234.2351,234.4148,47,80,0
234.4226,234.6023,54,80,0
234.4226,234.6023,57,80,0
234.6101,234.7898,47,80,0
234.7976,234.9773,54,80,0
234.7976,234.9773,57,80,0
234.9851,235.1648,56,80,0
234.9851,235.1648,52,80,0
235.1726,235.3523,59,80,0
235.3601,235.5398,56,80,0
235.5476,235.7273,52,80,0
235.7351,235.9148,51,80,0
235.9226,236.1023,59,80,0
236.1101,236.2898,54,80,0
236.2976,236.4773,51,80,0
236.4851,236.6648,49,80,0
236.6726,236.8523,58,80,0
236.8601,237.0398,54,80,0
237.0476,237.2273,49,80,0
237.2351,237.4148,42,80,0
237.4226,237.6023,58,80,0
237.6101,237.7898,54,80,0
237.7976,237.9773,49,80,0
237.9851,238.1648,47,80,0
238.1726,238.3523,59,80,0
238.3601,238.5398,54,80,0
238.5476,238.7273,51,80,0
238.7351,238.9148,47,80,0
238.9226,239.1023,59,80,0
239.1101,239.2898,49,80,0
239.2976,239.4773,57,80,0
239.4851,239.6648,47,80,0
239.6726,239.8523,56,80,0
239.8601,240.0398,52,80,0
240.0476,240.2273,47,80,0
240.2351,240.4148,40,80,0
240.4226,240.6023,56,80,0
240.6101,240.7898,52,80,0
240.7976,240.9773,47,80,0
240.9851,241.1648,45,80,0
241.1726,241.3523,57,80,0
241.3601,241.5398,52,80,0
241.5476,241.7273,49,80,0
241.7351,241.9148,45,80,0
241.9226,242.1023,52,80,0
242.1101,242.2898,44,80,0
242.2976,242.4773,52,81,0
242.4851,242.6648,44,82,0
242.6726,242.8523,52,83,0
242.8601,243.0398,45,84,0
243.0476,243.2273,52,85,0
243.2351,243.4148,45,87,0
243.2351,243.4148,49,87,0
243.4226,243.6023,52,88,0
243.6101,243.7898,47,89,0
243.6101,243.7898,52,89,0
243.7976,243.9773,56,90,0
243.9851,244.1648,49,91,0
243.9851,244.1648,52,91,0
244.1726,244.3523,58,92,0
244.3601,244.5398,49,94,0
244.3601,244.5398,52,94,0
244.5476,244.7273,58,95,0
244.7351,244.9148,48,96,0
244.7351,244.9148,52,96,0
244.9226,245.1023,57,97,0
245.1101,245.2898,48,100,0
245.1101,245.2898,52,100,0
245.2976,245.4773,57,90,0
245.4851,245.6648,47,80,0
245.4851,245.6648,51,80,0
245.6726,245.8523,57,80,0
245.8601,246.0398,47,80,0
245.8601,246.0398,51,80,0
246.0476,246.2273,57,80,0
246.2351,246.4148,47,80,0
246.2351,246.4148,51,80,0
246.4226,246.6023,57,80,0
246.6101,246.7898,47,80,0
246.6101,246.7898,51,80,0
246.7976,246.9773,57,80,0
246.9851,247.1648,56,80,0
246.9851,247.1648,52,80,0
247.1726,247.3523,52,80,0
247.3601,247.5398,51,80,0
247.5476,247.7273,49,80,0
247.7351,247.92677,47,80,0
247.9351,248.12677,45,80,0
248.1351,248.34045,44,80,0
248.34938,248.55475,42,80,0
248.56367,248.9833,40,80,0
250.14224,250.50943,35,80,0
251.64224,252.00943,37,80,0
252.39224,252.75943,39,80,0
252.76724,253.13443,35,80,0
253.14224,253.50943,40,80,0
253.51724,253.69693,64,80,0
253.70474,253.88443,59,80,0
253.89224,254.07193,64,80,0
254.07974,254.25943,59,81,0
254.26724,254.44693,64,82,0
254.45474,254.63443,59,83,0
254.64224,254.82193,64,84,0
254.82974,255.00943,59,85,0
255.01724,255.19693,64,86,0
255.20474,255.38443,59,87,0
255.39224,255.57193,68,88,0
255.57974,255.75943,59,89,0
255.76724,255.94693,66,91,0
255.95474,256.13443,59,92,0
256.14224,256.32193,64,93,0
256.32974,256.50943,59,94,0
256.51724,256.69693,63,95,0
256.70474,256.88443,59,96,0
256.89224,257.07193,63,97,0
257.07974,257.25943,59,98,0
257.26724,257.44693,65,99,0
257.45474,257.63443,59,101,0
257.64224,257.82193,66,102,0
257.82974,258.00943,59,103,0
258.01724,258.19693,69,104,0
258.20474,258.38443,59,105,0
258.39224,258.57193,68,106,0
258.57974,258.75943,59,107,0
258.76724,258.94693,66,108,0
258.95474,259.13443,59,109,0
259.14224,259.32193,64,110,0
259.32974,259.50943,59,110,0
259.51724,259.69693,56,110,0
259.70474,259.88443,59,110,0
259.89224,260.25943,52,110,0
260.64224,260.82193,61,110,0
260.82974,261.00943,56,110,0
261.01724,261.19693,52,110,0
261.20474,261.38443,56,110,0
261.39224,261.75943,49,110,0
261.76724,262.13443,61,80,0
262.14224,262.32193,60,80,0
262.32974,262.50943,56,80,0
262.51724,262.69693,51,80,0
262.70474,262.88443,56,80,0
262.89224,263.25943,48,80,0
263.26724,263.63443,60,110,0
263.64224,263.82193,59,110,0
263.82974,264.00943,56,110,0
264.01724,264.19693,52,110,0
264.20474,264.38443,56,110,0
264.39224,264.75943,47,110,0
264.76724,265.13443,59,80,0
265.14224,265.32193,57,80,0
265.32974,265.50943,52,80,0
265.51724,265.69693,49,80,0
265.70474,265.88443,52,80,0
265.89224,266.25943,45,80,0
266.26724,266.63443,57,110,0
266.64224,266.82193,56,110,0
266.82974,267.00943,53,110,0
267.01724,267.19693,49,110,0
267.20474,267.38443,53,110,0
267.39224,267.75943,44,110,0
267.76724,268.13443,56,80,0
268.14224,268.32193,54,80,0
268.32974,268.50943,49,80,0
268.51724,268.69693,45,80,0
268.70474,268.88443,49,80,0
268.89224,269.25943,42,80,0
269.26724,269.63443,66,110,0
269.64224,269.82193,63,110,0
269.82974,270.00943,59,110,0
270.01724,270.19693,54,110,0
270.20474,270.38443,59,110,0
270.39224,270.75943,51,110,0
270.76724,271.13443,51,110,0
271.14224,271.32193,48,110,0
271.32974,271.50943,45,110,0
271.51724,271.69693,40,110,0
271.70474,271.88443,45,110,0
271.89224,272.25943,36,110,0
272.26724,272.63443,60,110,0
272.26724,272.63443,48,110,0
272.64224,273.00943,59,110,0
272.64224,273.00943,47,110,0
273.01724,273.19693,71,80,0
273.20474,273.38443,73,80,0
273.39224,273.57193,71,80,0
273.57974,273.75943,73,80,0
273.76724,273.94693,71,80,0
273.95474,274.13443,73,80,0
274.14224,274.32193,71,80,0
274.32974,274.50943,73,80,0
274.51724,274.69693,71,80,0
274.70474,274.88443,73,80,0
274.89224,275.07193,71,80,0
274.14224,275.25943,63,80,0
274.14224,275.25943,66,80,0
275.07974,275.25943,73,80,0
275.26724,275.44693,71,80,0
275.26724,275.63443,68,80,0
275.26724,275.63443,64,80,0
275.45474,275.63443,73,80,0
275.64224,275.82193,71,80,0
275.64224,276.00943,68,80,0
275.64224,276.00943,64,80,0
275.82974,276.00943,73,80,0
276.01724,276.19693,71,80,0
276.01724,276.38443,69,80,0
276.01724,276.38443,66,80,0
276.20474,276.38443,73,80,0
276.39224,276.57193,71,80,0
276.39224,276.75943,69,80,0
276.39224,276.75943,66,80,0
276.57974,276.75943,73,80,0
276.76724,276.94693,71,80,0
276.76724,277.13443,68,80,0
276.76724,277.13443,64,80,0
276.95474,277.13443,73,80,0
277.14224,277.32193,71,80,0
277.32974,277.50943,73,80,0
277.51724,277.69693,71,80,0
277.70474,277.88443,73,80,0
277.89224,278.07193,71,80,0
277.14224,278.25943,66,80,0
277.14224,278.25943,63,80,0
278.07974,278.25943,73,80,0
278.26724,278.44693,71,80,0
278.26724,278.63443,68,80,0
278.26724,278.63443,64,80,0
278.45474,278.63443,73,80,0
278.64224,278.82193,71,80,0
278.64224,279.00943,69,80,0
278.64224,279.00943,66,80,0
278.82974,279.00943,73,80,0
279.01724,279.19693,71,80,0
279.01724,279.38443,66,80,0
279.01724,279.38443,63,80,0
279.20474,279.38443,73,80,0
279.39224,279.57193,71,80,0
279.39224,279.75943,68,80,0
279.39224,279.75943,64,80,0
279.57974,279.75943,73,80,0
279.76724,279.94693,71,80,0
279.76724,280.13443,69,80,0
279.76724,280.13443,66,80,0
279.95474,280.13443,73,80,0
280.14224,280.32193,71,80,0
280.14224,280.32193,68,80,0
280.32974,280.50943,76,80,0
280.51724,280.69693,71,80,0
280.70474,280.88443,76,80,0
280.89224,281.07193,69,80,0
281.07974,281.25943,76,80,0
281.26724,281.44693,68,80,0
281.45474,281.63443,76,80,0
281.64224,281.82193,69,80,0
281.82974,282.00943,76,80,0
282.01724,282.19693,71,80,0
282.20474,282.38443,76,80,0
282.39224,282.5814,73,80,0
282.5896,282.77875,76,80,0
282.787,282.97614,70,80,0
282.98434,283.1735,76,80,0
283.3791,283.56824,73,80,0
283.57645,283.7656,75,80,0
283.77383,283.96295,76,80,0
283.9712,284.16034,75,80,0
284.16855,284.3577,76,80,0
284.36594,284.5713,78,80,0
283.1817,284.78555,71,80,0
284.5802,284.78555,80,80,0
284.7945,285.21414,75,80,0
284.7945,285.21414,71,80,0
285.22305,285.41473,61,80,0
285.42307,285.61475,59,80,0
285.62308,285.80276,61,80,0
285.81058,285.99026,59,80,0
285.99808,286.17776,61,80,0
286.18558,286.36526,59,80,0
286.37308,286.55276,61,80,0
286.56058,286.74026,59,80,0
286.74808,286.92776,61,80,0
286.93558,287.11526,59,80,0
287.12308,287.30276,61,80,0
286.37308,287.49026,54,80,0
286.37308,287.49026,51,80,0
287.31058,287.49026,59,80,0
287.49808,287.67776,61,80,0
287.49808,287.86526,56,80,0
287.49808,287.86526,52,80,0
287.68558,287.86526,59,80,0
287.87308,288.05276,61,80,0
287.87308,288.24026,56,80,0
287.87308,288.24026,52,80,0
288.06058,288.24026,59,80,0
288.24808,288.42776,61,80,0
288.24808,288.61526,57,80,0
288.24808,288.61526,54,80,0
288.43558,288.61526,59,80,0
288.62308,288.80276,61,80,0
288.62308,288.99026,57,80,0
288.62308,288.99026,54,80,0
288.81058,288.99026,59,80,0
288.99808,289.17776,61,80,0
288.99808,289.36526,56,80,0
288.99808,289.36526,52,80,0
289.18558,289.36526,59,80,0
289.37308,289.55276,61,80,0
289.56058,289.74026,59,81,0
289.74808,289.92776,61,83,0
289.93558,290.11526,59,85,0
290.12308,290.30276,61,87,0
289.37308,290.49026,54,80,0
289.37308,290.49026,51,80,0
290.31058,290.49026,59,89,0
290.49808,290.67776,61,91,0
290.49808,290.86526,56,91,0
290.49808,290.86526,52,91,0
290.68558,290.86526,59,93,0
290.87308,291.05276,57,95,0
290.87308,291.24026,54,95,0
291.06058,291.24026,59,97,0
291.24808,291.42776,51,99,0
291.24808,291.61526,47,99,0
291.43558,291.61526,59,101,0
291.62308,291.80276,52,103,0
291.62308,291.99026,49,103,0
291.81058,291.99026,59,105,0
291.99808,292.17776,54,107,0
291.99808,292.36526,51,107,0
292.18558,292.36526,59,109,0
292.37308,292.55276,56,110,0
292.37308,292.74026,52,110,0
292.56058,292.74026,59,109,0
292.74808,292.92776,52,107,0
292.74808,293.11526,49,107,0
292.93558,293.11526,59,106,0
293.12308,293.30276,54,104,0
293.12308,293.49026,51,104,0
293.31058,293.49026,59,102,0
293.49808,293.67776,56,101,0
293.49808,293.86526,52,101,0
293.68558,293.86526,59,99,0
293.87308,294.05276,57,97,0
293.87308,294.24026,54,97,0
294.06058,294.24026,59,96,0
294.24808,294.42776,54,94,0
294.24808,294.61526,51,94,0
294.43558,294.61526,59,92,0
294.62308,294.80276,56,91,0
294.62308,294.99026,52,91,0
294.81058,294.99026,59,89,0
294.99808,295.17776,57,87,0
294.99808,295.36526,54,87,0
295.18558,295.36526,59,86,0
295.37308,295.55975,56,84,0
295.56787,295.75455,59,82,0
295.76266,295.94937,56,81,0
295.9575,296.14417,59,79,0
296.15228,296.34656,56,77,0
296.35498,296.54926,59,76,0
296.55768,296.76306,56,74,0
296.77197,296.97733,59,72,0
296.98627,297.4059,59,71,0
296.98627,297.4059,56,71,0
298.00693,298.19608,61,80,0
298.2043,298.39346,63,80,0
298.40167,298.59082,65,80,0
298.59903,298.78818,66,80,0
298.79642,298.98557,61,80,0
298.99377,299.18292,63,80,0
299.19116,299.38028,65,80,0
299.38852,299.44608,68,80,0
299.4543,299.57767,66,80,0
299.58588,299.77502,65,80,0
299.78326,299.9724,66,80,0
299.98062,300.16977,68,80,0
300.17798,300.36713,69,80,0
300.37537,300.5645,68,80,0
300.57272,300.76187,69,80,0
300.77008,300.95923,71,80,0
300.96747,301.15662,73,80,0
301.16483,301.35397,71,80,0
301.3622,301.55133,69,80,0
301.55957,301.74872,70,80,0
301.75693,302.14346,71,80,0
302.56262,302.98227,59,80,0
303.45996,303.73672,52,80,0
303.74567,304.01187,59,80,0
304.0201,304.27502,56,80,0
304.28326,304.5382,52,80,0
304.54642,304.80136,64,80,0
304.80957,305.0645,59,80,0
305.07272,305.32767,54,80,0
305.33588,305.59082,63,80,0
305.59906,305.85397,59,80,0
305.8622,306.11713,56,80,0
306.12537,306.3803,64,80,0
306.38852,306.64346,59,80,0
306.65167,306.90662,57,80,0
306.91483,307.16977,66,80,0
307.178,307.43292,61,80,0
307.44116,307.69608,58,80,0
307.7043,307.95923,67,80,0
307.96747,308.2224,64,80,0
308.23062,308.48557,59,80,0
308.49377,308.74872,68,80,0
308.75693,309.01187,64,80,0
309.0201,309.27502,57,80,0
309.28326,309.53818,66,80,0
309.54642,309.80136,63,80,0
309.80957,309.99872,56,80,0
310.00693,310.19608,64,81,0
310.2043,310.39346,59,82,0
310.40167,310.59082,56,83,0
310.59903,310.78818,52,85,0
310.79642,310.98557,59,86,0
310.99377,311.18292,56,87,0
311.19116,311.38028,52,89,0
311.38852,311.57767,54,90,0
311.58588,311.77502,62,91,0
311.78326,311.9724,57,93,0
311.98062,312.16977,54,94,0
312.17798,312.36713,56,95,0
312.37537,312.5645,64,96,0
312.57272,312.76187,59,98,0
312.77008,312.95923,56,99,0
312.96747,313.15662,57,100,0
313.16483,313.35397,66,102,0
313.3622,313.55133,62,103,0
313.55957,313.74872,57,104,0
313.75693,313.94608,59,106,0
313.9543,314.14346,68,107,0
314.15167,314.34082,62,108,0
314.34903,314.53818,59,109,0
314.54642,314.73557,56,110,0
314.74377,314.93292,62,110,0
314.94113,315.13028,59,110,0
315.13852,315.32767,56,110,0
315.33588,315.52502,53,110,0
315.53326,315.72238,62,110,0
315.73062,315.91977,59,110,0
315.92798,316.11713,56,110,0
316.12537,316.3145,53,110,0
316.32272,316.51187,62,110,0
316.52008,316.70923,59,110,0
316.71747,316.90662,56,110,0
316.91483,317.10397,53,110,0
317.11218,317.30133,62,110,0
317.30957,317.49872,59,110,0
317.50693,317.69608,56,110,0
317.7043,317.89343,50,110,0
317.90167,318.09082,59,110,0
318.09903,318.28818,56,110,0
318.29642,318.48553,53,110,0
318.49377,318.68292,50,110,0
318.69113,318.88028,59,110,0
318.88852,319.07767,56,110,0
319.08588,319.27502,53,110,0
319.28323,319.47238,47,110,0
319.48062,319.66977,56,106,0
319.67798,319.87225,53,102,0
319.88068,320.07495,50,98,0
320.08337,320.28876,47,93,0
320.29767,320.50302,56,89,0
320.51196,320.74014,53,85,0
320.75006,320.97824,50,81,0
320.98816,321.1935,47,80,0
321.20242,321.4078,55,80,0
321.41672,321.60587,53,80,0
321.61407,321.80322,50,80,0
321.81146,322.0006,47,80,0
322.00882,322.19797,55,80,0
322.2062,322.39532,47,80,0
322.40356,322.5927,55,80,0
322.60092,323.38217,55,80,0
322.60092,323.38217,47,80,0
323.78513,324.17166,67,80,0
324.17987,324.56638,67,80,0
324.57462,324.96112,68,80,0
324.96936,325.35587,67,80,0
325.36407,325.7506,55,80,0
325.36407,325.7506,62,80,0
325.75882,326.14532,55,80,0
326.15356,326.54007,58,80,0
326.5483,326.9348,57,80,0
326.94302,327.32953,55,80,0
326.94302,327.32953,52,80,0
327.33777,327.72427,57,80,0
327.33777,327.72427,53,80,0
327.7325,328.11902,58,80,0
327.7325,328.11902,55,80,0
328.12723,328.51376,57,80,0
328.12723,328.51376,53,80,0
328.52197,328.90848,52,80,0
328.52197,328.90848,49,80,0
328.91672,329.30322,53,80,0
328.91672,329.30322,50,80,0
329.31146,330.0927,65,80,0
329.31146,330.0927,62,80,0
330.10092,330.88217,60,80,0
330.10092,330.88217,63,80,0
330.89038,331.27692,61,80,0
330.89038,331.27692,58,80,0
331.28513,331.67163,61,80,0
331.28513,331.67163,58,80,0
331.67987,332.46112,56,80,0
331.67987,332.46112,59,80,0
332.46933,333.25058,58,80,0
332.46933,333.25058,54,80,0
333.25882,334.04007,54,80,0
333.25882,334.04007,58,80,0
334.04828,334.82953,58,80,0
334.04828,334.82953,54,80,0
334.83777,335.61902,54,80,0
334.83777,335.61902,58,80,0
335.62723,336.40848,61,85,0
335.62723,336.40848,58,85,0
335.62723,336.40848,54,85,0
336.41672,337.19797,52,97,0
336.41672,337.19797,54,97,0
336.41672,337.19797,57,97,0
336.41672,337.19797,61,97,0
337.20618,337.59268,59,109,0
337.20618,337.59268,57,109,0
337.20618,337.59268,54,109,0
337.20618,337.59268,51,109,0
337.60092,337.79007,51,110,0
337.79828,337.98743,59,110,0
337.99567,338.18478,51,110,0
338.19302,338.38217,52,110,0
338.39038,338.57953,54,110,0
338.58777,338.77692,59,110,0
338.78513,338.97427,54,110,0
338.98248,339.17163,56,110,0
339.17987,339.36902,57,110,0
339.37723,339.56638,59,110,0
339.5746,339.76373,57,110,0
339.77197,339.96112,56,110,0
339.96933,340.15848,54,110,0
340.16672,340.35583,59,110,0
340.36407,340.55322,54,110,0
340.56143,340.75058,52,110,0
340.75882,340.94797,51,110,0
340.95618,341.14532,59,110,0
341.15353,341.34268,51,110,0
341.35092,341.54007,52,110,0
341.54828,341.73743,54,110,0
341.74564,341.93478,59,110,0
341.94302,342.13217,54,110,0
342.14038,342.32953,56,110,0
342.33777,342.5269,57,110,0
342.53513,342.72427,59,109,0
342.73248,342.92163,57,107,0
342.92987,343.11902,56,105,0
343.12723,343.31638,54,103,0
343.3246,343.51373,59,101,0
343.52197,343.71112,54,99,0
343.71933,343.90848,52,97,0
343.9167,344.10583,51,95,0
344.11407,344.30322,59,93,0
344.31143,344.50058,51,91,0
344.50882,344.69794,52,89,0
344.70618,344.89532,54,87,0
344.90353,345.09268,59,85,0
345.10092,345.29007,54,83,0
345.29828,345.48743,56,81,0
345.49564,345.68478,57,80,0
345.69302,345.88217,59,80,0
345.89038,346.07953,57,80,0
346.08774,346.2769,56,80,0
346.28513,346.47427,54,80,0
346.48248,346.67163,59,80,0
346.67987,346.869,54,80,0
346.87723,347.06638,52,80,0
347.0746,347.26373,51,80,0
347.27197,347.4611,59,80,0
347.46933,347.65848,51,80,0
347.6667,347.85583,52,80,0
347.86407,348.05322,54,80,0
348.06143,348.25058,59,80,0
348.2588,348.44794,54,80,0
348.45618,348.64532,56,80,0
348.65353,348.84268,57,80,0
348.85092,349.04004,56,80,0
349.04828,349.23743,57,80,0
349.24564,349.43478,57,80,0
349.44302,349.63467,59,80,0
349.643,349.8347,58,80,0
349.84302,350.03467,57,80,0
350.043,350.23468,56,80,0
350.243,350.44836,54,80,0
350.4573,350.66266,51,80,0
350.4573,350.66266,47,80,0
350.67157,350.91116,52,80,0
350.67157,350.91116,49,80,0
350.92157,351.16116,54,80,0
350.92157,351.16116,51,80,0
351.17157,351.53876,52,80,0
351.17157,351.91376,56,80,0
351.92157,352.28876,59,80,0
352.29657,352.66376,57,80,0
352.67157,353.03876,47,80,0
352.67157,353.03876,56,80,0
353.04657,353.41376,54,80,0
353.42157,353.78876,54,80,0
353.79657,354.16376,56,80,0
354.17157,354.53876,47,80,0
354.17157,354.53876,57,80,0
354.54657,354.91376,61,80,0
354.92157,355.28876,47,80,0
354.92157,355.28876,59,80,0
355.29657,355.66376,45,80,0
355.29657,355.66376,54,80,0
355.67157,356.03876,56,80,0
355.67157,356.03876,44,80,0
357.17157,357.35126,52,80,0
357.35907,357.53876,64,80,0
357.54657,357.72626,52,80,0
357.73407,357.91376,64,80,0
357.92157,358.10126,49,80,0
358.10907,358.28876,61,80,0
358.29657,358.47626,45,80,0
358.48407,358.66376,57,80,0
358.67157,358.85126,47,80,0
358.85907,359.03876,59,80,0
359.04657,359.22626,47,80,0
359.23407,359.41376,59,80,0
359.42157,359.60126,57,80,0
359.60907,359.78876,69,80,0
359.79657,359.97626,56,80,0
359.98407,360.16376,68,80,0
360.17157,360.35126,54,80,0
360.35907,360.53876,66,80,0
360.54657,360.72626,52,80,0
360.73407,360.91376,64,80,0
360.92157,361.10126,51,80,0
361.10907,361.28876,63,80,0
361.29657,361.47626,47,80,0
361.48407,361.66376,59,80,0
361.67157,362.41376,64,80,0
361.67157,362.41376,52,80,0
362.79657,363.16376,59,80,0
362.79657,363.16376,51,80,0
363.17157,363.91376,58,80,0
363.17157,363.91376,49,80,0
363.92157,364.66376,64,80,0
363.92157,364.66376,58,80,0
364.67157,365.41376,63,80,0
364.67157,365.41376,59,80,0
365.42157,365.78876,59,80,0
365.42157,365.78876,47,80,0
365.79657,366.16376,57,80,0
365.79657,366.16376,49,80,0
366.17157,366.91376,56,80,0
366.17157,366.91376,50,80,0
366.92157,367.66376,62,80,0
366.92157,367.66376,56,80,0
367.67157,368.78876,61,80,0
367.67157,368.78876,57,80,0
368.79657,369.16376,61,80,0
368.79657,369.16376,57,80,0
369.17157,369.53876,60,83,0
369.17157,369.53876,56,83,0
369.54657,369.91376,61,87,0
369.54657,369.91376,57,87,0
369.92157,370.28876,57,90,0
369.92157,370.28876,49,90,0
370.29657,370.66376,56,94,0
370.29657,370.66376,47,94,0
370.67157,371.03876,56,97,0
370.67157,371.03876,47,97,0
371.04657,371.78876,54,101,0
371.04657,371.78876,46,101,0
371.79657,372.16376,54,108,0
371.79657,372.16376,46,108,0
372.17157,372.53876,54,80,0
372.54657,372.91376,59,80,0
372.92157,373.28876,58,80,0
372.17157,373.66376,47,80,0
373.29657,373.66376,59,80,0
373.67157,373.85126,56,80,0
373.67157,373.85126,52,80,0
373.85907,374.03876,59,80,0
374.04657,374.22626,56,80,0
374.23407,374.41376,52,80,0
374.42157,374.60126,51,80,0
374.60907,374.78876,59,80,0
374.79657,374.97626,54,80,0
374.98407,375.16376,51,80,0
375.17157,375.35126,49,80,0
375.35907,375.53876,58,80,0
375.54657,375.72626,54,80,0
375.73407,375.91376,49,80,0
375.92157,376.10126,42,80,0
376.10907,376.28876,58,80,0
376.29657,376.47626,54,80,0
376.48407,376.66376,49,80,0
376.67157,376.85126,47,80,0
376.85907,377.03876,59,80,0
377.04657,377.22626,54,80,0
377.23407,377.41376,51,80,0
377.42157,377.60126,47,80,0
377.60907,377.78876,59,80,0
377.79657,377.97626,49,80,0
377.98407,378.16376,57,80,0
378.17157,378.35126,47,80,0
378.35907,378.53876,56,80,0
378.54657,378.72626,52,80,0
378.73407,378.91376,47,80,0
378.92157,379.10126,40,80,0
379.10907,379.28876,56,80,0
379.29657,379.47626,52,80,0
379.48407,379.66376,47,80,0
379.67157,379.85126,45,80,0
379.85907,380.03876,57,80,0
380.04657,380.22626,52,80,0
380.23407,380.41376,49,80,0
380.42157,380.60126,45,80,0
380.60907,380.78876,52,80,0
380.79657,380.97626,44,80,0
380.98407,381.16376,52,81,0
381.17157,381.35126,44,83,0
381.35907,381.53876,52,85,0
381.54657,381.72626,45,87,0
381.73407,381.91376,52,88,0
381.92157,382.10126,45,90,0
381.92157,382.10126,49,90,0
382.10907,382.28876,52,92,0
382.29657,382.47626,47,94,0
382.29657,382.47626,52,94,0
382.48407,382.66376,56,95,0
382.67157,382.85126,49,97,0
382.67157,382.85126,52,97,0
382.85907,383.03876,58,99,0
383.04657,383.22626,49,101,0
383.04657,383.22626,52,101,0
383.23407,383.41376,58,102,0
383.42157,383.60126,48,104,0
383.42157,383.60126,52,104,0
383.60907,383.78876,57,106,0
383.79657,383.97626,48,108,0
383.79657,383.97626,52,108,0
383.98407,384.16376,57,96,0
384.17157,384.35126,47,80,0
384.35907,384.53876,57,80,0
384.35907,384.53876,54,80,0
384.35907,384.53876,51,80,0
384.54657,384.72626,47,80,0
384.73407,384.91376,57,80,0
384.73407,384.91376,54,80,0
384.73407,384.91376,51,80,0
384.92157,385.10126,47,80,0
385.10907,385.28876,57,80,0
385.10907,385.28876,54,80,0
385.10907,385.28876,51,80,0
385.29657,385.47626,47,80,0
385.48407,385.66376,57,80,0
385.48407,385.66376,54,80,0
385.48407,385.66376,51,80,0
385.67157,385.85126,47,80,0
385.85907,386.03876,52,80,0
385.85907,386.03876,56,80,0
386.04657,386.22626,47,80,0
386.23407,386.41376,56,80,0
386.23407,386.41376,52,80,0
386.42157,386.60126,47,80,0
386.60907,386.78876,52,80,0
386.60907,386.78876,56,80,0
386.79657,386.97626,47,80,0
386.98407,387.16376,56,80,0
386.98407,387.16376,52,80,0
387.54657,387.91376,59,80,0
387.92157,388.28876,58,80,0
387.17157,388.66376,54,80,0
387.17157,388.66376,47,80,0
388.29657,388.66376,59,80,0
389.04657,389.41376,59,80,0
389.42157,389.78876,58,80,0
388.67157,390.16376,52,80,0
388.67157,390.16376,47,80,0
389.79657,390.16376,59,80,0
390.17157,390.35126,47,80,0
390.35907,390.53876,57,81,0
390.35907,390.53876,54,81,0
390.35907,390.53876,51,81,0
390.54657,390.72626,47,82,0
390.73407,390.91376,57,83,0
390.73407,390.91376,54,83,0
390.73407,390.91376,51,83,0
390.92157,391.10126,47,85,0
391.10907,391.28876,57,86,0
391.10907,391.28876,54,86,0
391.10907,391.28876,51,86,0
391.29657,391.47626,47,87,0
391.48407,391.66376,57,89,0
391.48407,391.66376,54,89,0
391.48407,391.66376,51,89,0
391.67157,391.85126,47,90,0
391.85907,392.03876,56,91,0
391.85907,392.03876,53,91,0
391.85907,392.03876,50,91,0
392.04657,392.22626,47,93,0
392.23407,392.41376,56,94,0
392.23407,392.41376,53,94,0
392.23407,392.41376,50,94,0
392.42157,392.60126,47,95,0
392.60907,392.78876,56,96,0
392.60907,392.78876,53,96,0
392.60907,392.78876,50,96,0
392.79657,392.97626,47,98,0
392.98407,393.16376,56,99,0
392.98407,393.16376,53,99,0
392.98407,393.16376,50,99,0
393.17157,393.35126,45,100,0
393.35907,393.53876,49,102,0
393.35907,393.53876,54,102,0
393.54657,393.72626,45,103,0
393.73407,393.91376,49,104,0
393.73407,393.91376,54,104,0
393.92157,394.10126,45,106,0
394.10907,394.28876,49,107,0
394.10907,394.28876,54,107,0
394.29657,394.47626,45,108,0
394.48407,394.66376,49,109,0
394.48407,394.66376,54,109,0
394.67157,394.85126,46,110,0
394.85907,395.03876,49,109,0
394.85907,395.03876,52,109,0
394.85907,395.03876,54,109,0
395.04657,395.22626,46,107,0
395.23407,395.41376,49,105,0
395.23407,395.41376,52,105,0
395.23407,395.41376,54,105,0
395.42157,395.60126,46,103,0
395.60907,395.78876,49,101,0
395.60907,395.78876,52,101,0
395.60907,395.78876,54,101,0
395.79657,395.97626,46,99,0
395.98407,396.16376,49,97,0
395.98407,396.16376,52,97,0
395.98407,396.16376,54,97,0
396.17157,396.35126,47,95,0
396.35907,396.53876,52,93,0
396.35907,396.53876,56,93,0
396.54657,396.72626,47,91,0
396.73407,396.91376,52,89,0
396.73407,396.91376,56,89,0
396.92157,397.10126,47,87,0
397.10907,397.28876,52,85,0
397.10907,397.28876,56,85,0
397.29657,397.47626,47,83,0
397.48407,397.66376,52,81,0
397.48407,397.66376,56,81,0
397.67157,397.85126,47,80,0
397.85907,398.03876,54,80,0
398.04657,398.22626,47,80,0
398.23407,398.41376,51,80,0
398.42157,398.61072,47,80,0
398.61896,398.8081,59,80,0
398.8163,399.02167,47,80,0
399.0306,399.23596,59,80,0
399.2449,400.06512,59,80,0
400.07346,400.81564,57,87,0
400.82346,401.56564,59,95,0
400.82346,401.56564,56,95,0
401.57346,402.31564,57,103,0
401.57346,402.31564,54,103,0
402.32346,402.71512,56,110,0
402.32346,402.71512,53,110,0
403.12347,403.5431,56,110,0
403.12347,403.5431,53,110,0
405.1806,405.37228,61,80,0
405.3806,405.57227,63,80,0
405.5806,405.97226,64,80,0
405.9806,406.37228,67,80,0
406.3806,406.77228,66,80,0
405.5806,407.17227,58,80,0
406.7806,407.17227,61,80,0
407.1806,409.17227,63,80,0
409.1806,409.57227,66,80,0
409.5806,409.97226,64,80,0
409.9806,410.37228,61,80,0
410.3806,412.37228,64,80,0
412.3806,412.77228,64,80,0
407.1806,413.17227,59,80,0
412.7806,413.17227,63,80,0
413.1806,413.57227,59,80,0
413.5806,413.97226,63,80,0
413.9806,414.37228,58,80,0
414.3806,414.77228,59,80,0
414.7806,415.17227,63,80,0
415.1806,415.57227,59,80,0
415.5806,415.97226,56,80,0
415.9806,416.37228,57,80,0
415.9806,416.37228,47,80,0
416.3806,416.78857,61,80,0
416.79727,417.1942,57,80,0
417.20267,417.58417,55,80,0
417.5923,417.9738,56,80,0
417.5923,417.9738,47,80,0
417.9819,418.3899,59,80,0
418.39856,418.78506,56,80,0
418.7933,419.1798,53,80,0
419.18802,419.57455,54,80,0
419.18802,419.57455,47,80,0
419.58276,419.96927,57,80,0
419.58276,420.364,47,80,0
419.9775,420.364,56,80,0
420.37225,420.75876,52,80,0
420.76697,420.95126,54,80,0
420.37225,421.1436,47,80,0
420.9593,421.1436,57,80,0
421.15158,421.33588,56,80,0
421.15158,421.5282,47,80,0
421.3439,421.5282,54,80,0
421.53622,421.9034,52,80,0
421.53622,421.9034,40,80,0
423.03622,423.4034,47,80,0
423.03622,423.4034,35,80,0
424.53622,424.9034,49,80,0
424.53622,424.9034,37,80,0
425.28622,425.6534,51,80,0
425.28622,425.6534,39,80,0
425.66122,426.0284,47,80,0
425.66122,426.0284,35,80,0
426.03622,426.7784,52,80,0
426.03622,426.7784,40,80,0
427.16122,427.5284,47,80,0
427.53622,428.2784,49,80,0
428.28622,428.6534,51,80,0
428.66122,429.0284,57,80,0
428.66122,429.0284,47,80,0
429.03622,429.2159,56,80,0
429.03622,429.2159,52,80,0
429.22372,429.4034,47,80,0
429.41122,429.5909,56,80,0
429.41122,429.5909,52,80,0
429.59872,429.7784,47,80,0
429.78622,429.9659,56,80,0
429.78622,429.9659,52,80,0
429.97372,430.1534,47,80,0
430.16122,430.3409,56,80,0
430.16122,430.3409,53,80,0
430.34872,430.5284,47,80,0
430.53622,430.72787,57,80,0
430.53622,430.72787,54,80,0
430.7362,430.9279,47,80,0
430.93622,431.12787,61,80,0
430.93622,431.12787,57,80,0
431.1362,431.32788,47,80,0
431.3362,431.52786,59,80,0
431.3362,431.52786,56,80,0
431.53622,431.72787,47,80,0
431.7362,431.9279,57,80,0
431.7362,431.9279,54,80,0
431.93622,432.12787,47,80,0
432.1362,432.55585,56,80,0
432.1362,432.55585,52,80,0
432.5648,432.98444,42,80,0
432.99335,433.413,40,80,0
433.42194,433.84155,49,80,0
433.8505,435.2255,47,80,0
435.2351,435.45627,49,80,0
435.46588,435.68704,47,80,0
435.69666,436.6391,46,80,0
436.64902,437.5915,66,80,0
436.64902,437.5915,64,80,0
436.64902,437.5915,58,80,0
437.6014,438.02106,68,80,0
437.6014,438.02106,64,80,0
437.6014,438.02106,59,80,0
438.45856,438.8782,66,84,0
438.45856,438.8782,59,84,0
439.3157,439.71808,64,88,0
439.3157,439.71808,61,88,0
440.1376,440.54,61,93,0
440.1376,440.54,57,93,0
440.95953,441.34604,57,97,0
440.95953,441.34604,54,97,0
441.749,442.1355,54,102,0
441.749,442.1355,51,102,0
442.53848,442.91507,63,106,0
442.53848,442.91507,59,106,0
443.3231,443.7255,64,80,0
443.3231,443.7255,61,80,0
443.73404,444.28787,64,80,0
443.73404,444.28787,61,80,0
444.30176,445.2809,57,80,0
445.30176,446.47675,59,80,0
446.50174,449.0205,52,80,0
