start_time,end_time,note_value,velocity,instrument_program_number
3.0,4.5,55,69,0
4.5,4.625,51,69,0
4.625,4.75,53,69,0
4.75,4.875,55,69,0
4.875,5.0,51,69,0
5.0,5.15,48,69,0
7.0,8.5,60,69,0
8.5,8.625,56,69,0
8.625,8.75,58,69,0
8.75,8.875,60,69,0
8.875,9.0,56,69,0
9.0,9.15,53,69,0
11.0,12.25,53,69,0
12.25,12.5,51,69,0
12.5,12.575,50,69,0
12.75,12.825,48,69,0
13.0,13.5,47,69,0
13.5,14.0,46,73,0
14.0,14.54536,45,77,0
14.54536,15.090814,44,80,0
15.090814,16.290699,43,69,0
16.290699,17.623892,36,69,0
16.290699,17.623892,43,69,0
17.623892,20.623718,31,69,0
17.623892,20.623718,43,69,0
20.623718,22.62424,36,77,0
22.62424,22.71799,36,88,0
22.74924,22.84299,35,88,0
22.87424,22.96799,36,88,0
22.99924,23.09299,35,88,0
23.12424,23.21799,36,88,0
23.24924,23.34299,35,88,0
23.37424,23.46799,36,88,0
23.49924,23.59299,35,88,0
23.62424,23.71799,36,88,0
23.74924,23.84299,35,88,0
23.87424,23.96799,36,88,0
23.99924,24.09299,35,88,0
24.12424,24.21799,36,88,0
24.24924,24.34299,35,88,0
24.37424,24.46799,36,88,0
24.49924,24.59299,35,88,0
24.62424,26.62424,36,77,0
26.62424,26.71799,36,88,0
26.74924,26.84299,35,88,0
26.87424,26.96799,36,88,0
26.99924,27.09299,35,88,0
27.12424,27.21799,36,88,0
27.24924,27.34299,35,88,0
27.37424,27.46799,36,88,0
27.49924,27.59299,35,88,0
27.62424,27.71799,36,88,0
27.74924,27.84299,35,88,0
27.87424,27.96799,36,88,0
27.99924,28.09299,35,88,0
28.12424,28.21799,36,88,0
28.24924,28.34299,35,88,0
28.37424,28.46799,36,88,0
28.49924,28.59299,35,88,0
28.62424,30.62424,36,77,0
30.62424,32.12424,36,84,0
32.12424,32.62424,39,89,0
33.62424,34.62424,31,92,0
32.62424,34.62424,43,107,0
34.74924,34.87424,36,77,0
34.87424,34.99924,39,77,0
34.99924,35.12424,43,77,0
35.12424,35.27424,48,77,0
35.74924,35.87424,48,79,0
35.87424,35.99924,51,80,0
35.99924,36.12424,55,80,0
36.12424,36.27424,60,80,0
36.62424,37.928543,62,81,0
36.62424,37.928543,65,81,0
36.62424,37.928543,68,81,0
37.928543,38.18941,62,84,0
37.928543,38.18941,65,84,0
37.928543,38.18941,68,84,0
38.18941,38.450283,62,85,0
38.18941,38.450283,65,85,0
38.18941,38.450283,68,85,0
38.450283,38.71115,62,86,0
38.450283,38.71115,65,86,0
38.450283,38.71115,68,86,0
38.71115,40.0155,63,86,0
38.71115,40.0155,67,86,0
40.0155,40.276367,63,89,0
40.276367,40.53724,68,90,0
40.53724,40.798107,66,91,0
40.798107,41.34351,67,92,0
40.798107,41.888966,55,92,0
41.34351,41.888966,63,88,0
41.888966,42.434418,62,84,0
41.888966,42.434418,65,84,0
41.888966,42.979874,55,84,0
42.434418,42.979874,65,80,0
42.979874,43.47997,60,77,0
42.979874,43.47997,63,77,0
45.22997,45.47997,47,88,0
45.47997,45.72997,48,89,0
45.72997,45.97997,50,90,0
45.97997,46.22997,51,92,0
46.22997,46.47997,48,92,0
46.47997,46.72997,45,94,0
46.72997,46.97997,42,95,0
46.97997,47.05497,43,96,0
47.22997,47.47997,43,98,0
47.22997,47.47997,48,98,0
47.22997,47.47997,51,98,0
47.22997,47.47997,55,98,0
47.47997,47.72997,43,99,0
47.47997,47.72997,48,99,0
47.47997,47.72997,51,99,0
47.47997,47.72997,55,99,0
47.72997,47.97997,43,100,0
47.72997,47.97997,48,100,0
47.72997,47.97997,51,100,0
47.72997,47.97997,55,100,0
48.22997,48.47997,43,103,0
48.22997,48.47997,50,103,0
48.22997,48.47997,53,103,0
48.22997,48.47997,55,103,0
48.47997,48.72997,43,104,0
48.47997,48.72997,50,104,0
48.47997,48.72997,53,104,0
48.47997,48.72997,55,104,0
48.72997,48.97997,43,105,0
48.72997,48.97997,50,105,0
48.72997,48.97997,53,105,0
48.72997,48.97997,55,105,0
48.97997,49.129967,36,122,0
48.97997,49.129967,39,122,0
48.97997,49.129967,43,122,0
48.97997,49.129967,48,122,0
49.97997,50.129967,31,122,0
49.97997,50.129967,35,122,0
49.97997,50.129967,38,122,0
49.97997,50.129967,43,122,0
50.97997,51.129967,36,122,0
50.97997,51.129967,39,122,0
50.97997,51.129967,43,122,0
50.97997,51.129967,48,122,0
52.97997,54.47997,62,77,0
52.97997,54.47997,65,77,0
52.97997,54.47997,67,77,0
54.47997,54.97997,60,77,0
54.47997,54.97997,63,77,0
54.47997,55.525326,67,77,0
55.525326,56.07078,66,77,0
54.97997,56.616234,55,77,0
56.07078,56.616234,67,77,0
57.11633,57.26633,36,122,0
57.11633,57.26633,39,122,0
57.11633,57.26633,43,122,0
57.11633,57.26633,48,122,0
57.11633,57.26633,60,122,0
57.11633,57.26633,63,122,0
57.11633,57.26633,67,122,0
57.11633,57.26633,72,122,0
59.11633,59.185642,46,122,0
59.11633,59.185642,50,122,0
59.11633,59.185642,53,122,0
59.11633,59.185642,58,122,0
59.11633,59.185642,68,122,0
59.11633,59.185642,74,122,0
59.11633,59.185642,77,122,0
59.11633,59.185642,80,122,0
75.27024,75.374084,46,77,0
75.616394,75.65101,46,77,0
75.73178,75.86816,51,77,0
76.18634,76.28861,51,77,0
76.527245,76.56134,51,77,0
76.640884,76.77424,46,77,0
77.08535,77.18535,46,77,0
77.41868,77.45201,46,77,0
77.52979,78.752014,43,77,0
78.752014,78.78535,39,77,0
78.86312,78.96313,41,77,0
79.19646,79.22979,43,77,0
79.30757,79.4409,44,77,0
79.752014,79.85201,44,77,0
80.08534,80.118675,43,77,0
80.19646,80.32979,41,77,0
80.6409,80.7409,41,77,0
80.974236,81.00757,39,77,0
81.08534,81.529785,38,77,0
81.529785,82.19646,41,89,0
82.41868,82.51868,38,77,0
82.75201,82.78534,39,77,0
82.86312,82.99645,41,77,0
83.30756,83.40756,41,77,0
83.6409,83.67423,43,78,0
83.75201,83.852005,44,78,0
84.08534,84.118675,46,79,0
84.19645,84.296455,48,79,0
84.529785,84.56312,50,80,0
84.64089,85.64089,51,80,0
85.97423,86.07423,48,83,0
86.30756,86.3409,44,83,0
86.41867,86.552,46,77,0
86.86311,86.96311,46,77,0
87.19645,87.22978,46,77,0
87.307556,87.440895,46,77,0
87.75201,87.852005,46,77,0
88.085335,88.11867,46,77,0
88.19645,89.19645,51,77,0
89.52978,89.629776,47,84,0
89.86311,89.89645,46,86,0
89.97422,90.10756,45,86,0
90.41867,90.51867,45,89,0
90.752,90.78533,45,91,0
90.86311,90.996445,45,92,0
91.307556,91.407555,45,84,0
91.64089,91.674225,45,78,0
91.752,91.835335,34,77,0
91.86311,91.94644,46,77,0
91.97422,92.057556,34,77,0
92.085335,92.16866,46,77,0
92.19644,92.27978,34,77,0
92.307556,92.390884,46,77,0
92.41866,92.502,34,77,0
92.52978,92.61311,46,77,0
92.640884,92.72422,34,77,0
92.752,92.835335,46,77,0
92.86311,92.94644,34,77,0
92.97422,93.057556,46,77,0
93.085335,93.16866,34,77,0
93.19644,93.27978,46,77,0
93.307556,93.390884,34,77,0
93.41866,93.502,46,77,0
93.52978,93.613106,34,77,0
93.640884,93.72422,46,77,0
93.752,93.835335,34,77,0
93.863106,93.94644,46,77,0
93.97422,94.057556,34,78,0
94.08533,94.16866,46,79,0
94.19644,94.27978,34,79,0
94.307556,94.390884,46,80,0
94.41866,94.502,34,80,0
94.52978,94.613106,46,80,0
94.640884,94.72422,34,81,0
94.752,94.83533,46,81,0
94.863106,94.94644,34,82,0
94.97422,95.05755,46,83,0
95.08533,95.16866,34,83,0
95.19644,95.27978,46,83,0
95.30755,95.390884,34,84,0
95.41866,95.502,46,84,0
95.52978,95.613106,34,85,0
95.640884,95.72422,46,85,0
95.752,95.83533,34,86,0
95.863106,95.94644,46,86,0
95.97422,96.05755,34,86,0
96.08533,96.16866,46,87,0
96.19644,96.27977,34,88,0
96.30755,96.390884,46,88,0
96.41866,96.50199,34,89,0
96.52977,96.613106,46,89,0
96.640884,96.72422,34,89,0
96.75199,96.83533,46,90,0
96.863106,96.94644,34,90,0
96.97422,97.05755,46,91,0
97.08533,97.16866,34,92,0
97.19644,97.27977,46,92,0
97.30755,97.390884,34,92,0
97.41866,97.50199,46,92,0
97.52977,97.613106,34,93,0
97.640884,97.72421,46,94,0
97.75199,97.83533,34,94,0
97.863106,97.94644,46,95,0
97.97421,98.05755,34,95,0
98.08533,98.16866,46,95,0
98.196434,98.27977,34,96,0
98.30755,98.390884,46,96,0
98.41866,98.50199,34,97,0
98.52977,98.613106,46,98,0
98.640884,98.72421,34,98,0
98.75199,98.83533,46,98,0
98.863106,98.946434,34,99,0
98.97421,99.05755,46,99,0
99.08533,99.168655,34,100,0
99.196434,99.27977,46,100,0
99.30755,99.390884,34,101,0
99.418655,99.50199,46,101,0
99.52977,99.613106,34,101,0
99.640884,99.72421,46,102,0
99.75199,99.83533,34,103,0
99.863106,99.946434,46,103,0
99.97421,100.05755,34,104,0
100.08533,100.168655,46,104,0
100.196434,100.27977,34,104,0
100.30755,100.39088,46,105,0
100.418655,100.50199,34,105,0
100.52977,100.613106,46,106,0
100.64088,100.72421,34,107,0
100.75199,100.83533,46,107,0
100.8631,100.946434,34,107,0
100.97421,101.05755,46,107,0
101.08533,101.168655,34,107,0
101.196434,101.27977,46,107,0
101.30755,101.39088,34,107,0
101.418655,101.50199,46,107,0
101.52977,101.6131,36,107,0
101.64088,101.72421,46,107,0
101.75199,101.83532,36,107,0
101.8631,101.946434,46,107,0
101.97421,102.05755,38,107,0
102.08532,102.168655,46,107,0
102.196434,102.27977,38,107,0
102.30755,102.39088,46,107,0
102.418655,102.88016,39,107,0
103.572464,103.68785,50,77,0
103.68785,103.80324,51,77,0
103.80324,103.87247,53,77,0
104.034004,104.10323,46,77,0
104.26477,104.61092,39,77,0
104.26477,104.61092,51,77,0
104.95708,105.13016,34,77,0
104.95708,105.13016,46,77,0
105.18785,105.534004,39,77,0
105.18785,105.534004,51,77,0
105.88016,106.05323,46,77,0
105.88016,106.05323,58,77,0
106.11092,106.45708,51,89,0
106.11092,106.45708,63,89,0
107.26477,107.38015,50,77,0
107.38015,107.49554,51,77,0
107.49554,107.564766,53,77,0
107.72631,107.79554,46,77,0
107.95708,108.026306,51,77,0
108.18784,108.30323,52,77,0
108.30323,108.41862,53,77,0
108.41862,108.48785,55,78,0
108.64938,108.71861,48,80,0
108.88015,108.94939,53,83,0
109.11092,109.2263,55,85,0
109.2263,109.34169,56,86,0
109.34169,109.41092,58,87,0
109.57246,109.64169,51,89,0
109.80323,109.87246,56,92,0
110.034,110.14938,50,93,0
110.14938,110.26476,51,95,0
110.26476,110.334,53,95,0
110.49554,110.564766,46,98,0
110.7263,110.79553,51,100,0
110.95707,111.07246,50,102,0
111.07246,111.18784,51,103,0
111.18784,111.25707,53,104,0
111.41861,111.48784,46,107,0
111.64938,111.71861,51,107,0
111.88015,111.94938,46,107,0
111.88015,111.94938,58,107,0
112.110916,112.180145,51,107,0
112.110916,112.180145,63,107,0
112.34169,112.41092,46,107,0
112.34169,112.41092,58,107,0
112.57246,112.641685,51,107,0
112.57246,112.641685,63,107,0
112.80322,112.87246,46,107,0
112.80322,112.87246,58,107,0
113.034,113.103226,51,107,0
113.034,113.103226,63,107,0
113.26476,113.33399,46,107,0
113.26476,113.33399,58,107,0
113.49553,114.31354,43,122,0
113.49553,114.31354,55,122,0
114.586266,115.40445,31,122,0
114.586266,115.40445,43,122,0
115.67717,116.49535,32,122,0
115.67717,116.49535,44,122,0
116.76808,117.5409,33,116,0
116.76808,117.5409,45,116,0
117.7909,117.9159,34,111,0
117.7909,117.9159,46,111,0
117.95757,118.08257,51,110,0
118.12424,118.24924,55,110,0
118.2909,118.4159,58,109,0
118.45757,118.58257,55,108,0
118.62424,118.74924,51,107,0
118.7909,118.9159,46,107,0
118.95757,119.08257,51,105,0
119.12424,119.24924,55,104,0
119.2909,119.4159,58,104,0
119.45757,119.58257,55,103,0
119.62424,119.74924,51,102,0
119.7909,119.9159,46,101,0
119.95757,120.08257,51,101,0
120.12424,120.24924,55,100,0
120.2909,120.4159,58,99,0
120.45757,120.58257,55,98,0
120.62424,120.74924,51,97,0
120.7909,120.9159,46,96,0
120.95757,121.08257,51,95,0
121.12424,121.24924,55,95,0
121.2909,121.4159,46,94,0
121.45757,121.58257,50,93,0
121.62424,121.74924,56,92,0
121.7909,121.862946,51,77,0
121.7909,121.862946,55,77,0
122.030945,122.15095,67,77,0
122.15095,122.240944,65,77,0
122.27094,122.36095,63,77,0
122.390945,122.48094,62,77,0
122.51095,122.600945,60,77,0
122.63094,122.72095,58,77,0
122.750946,122.84094,56,77,0
122.87094,122.960945,55,77,0
122.990944,123.08095,53,77,0
123.11095,123.20094,51,77,0
123.23094,123.320946,50,77,0
123.350945,123.44094,48,77,0
123.47095,123.56094,46,77,0
123.59094,123.68095,44,77,0
123.710945,123.80094,43,77,0
123.83095,123.920944,46,77,0
123.95094,124.04095,51,77,0
124.070946,124.16094,55,77,0
124.19094,124.31094,56,77,0
124.31094,124.40095,53,77,0
124.43095,124.46694,50,77,0
124.55094,124.586945,44,77,0
124.670944,124.76095,43,77,0
124.79095,124.88094,46,77,0
124.91094,125.000946,51,77,0
125.030945,125.12094,55,77,0
125.15095,125.27094,56,77,0
125.27094,125.36095,53,77,0
125.390945,125.42694,50,77,0
125.51095,125.54694,44,77,0
125.63094,125.70021,43,77,0
125.861755,125.94829,67,77,0
125.977135,126.063675,65,77,0
126.09252,126.17906,63,78,0
126.20791,126.29444,62,79,0
126.32329,126.40983,60,80,0
126.438675,126.525215,58,81,0
126.55406,126.640594,56,82,0
126.66944,126.75598,55,83,0
126.78483,126.87137,53,84,0
126.900215,126.98675,51,85,0
127.015594,127.102135,50,86,0
127.13098,127.21752,48,86,0
127.24637,127.3329,46,88,0
127.36175,127.44829,44,89,0
127.477135,127.650215,43,89,0
127.7079,127.82329,52,92,0
127.82329,127.938675,53,92,0
127.938675,128.0079,55,93,0
128.16945,128.23868,48,95,0
128.4002,128.46944,53,97,0
128.63098,128.74637,55,99,0
128.74637,128.86176,56,100,0
128.86176,128.93098,58,101,0
129.09251,129.16174,51,103,0
129.32329,129.39252,56,104,0
129.55406,129.66943,62,107,0
129.66943,129.78482,63,107,0
129.78482,129.85405,65,107,0
130.0156,130.08482,58,107,0
130.24637,130.41943,63,107,0
130.47713,130.59251,62,107,0
130.59251,130.7079,63,107,0
130.7079,130.77713,65,107,0
130.93867,131.0079,58,107,0
131.16943,131.23866,63,107,0
131.4002,131.46944,46,107,0
131.4002,131.46944,58,107,0
131.63098,131.70021,51,107,0
131.63098,131.70021,63,107,0
131.86174,131.93097,46,107,0
131.86174,131.93097,58,107,0
132.09251,132.16174,51,107,0
132.09251,132.16174,63,107,0
132.32329,132.39252,46,107,0
132.32329,132.39252,58,107,0
132.55405,132.62329,51,107,0
132.55405,132.62329,63,107,0
132.78482,132.85405,46,107,0
132.78482,132.85405,58,107,0
133.0156,133.76552,43,122,0
133.0156,133.76552,55,122,0
134.01552,134.76552,31,92,0
134.01552,134.76552,43,92,0
135.01552,136.45555,32,127,0
135.01552,136.45555,44,127,0
136.93555,137.68552,29,122,0
136.93555,137.68552,41,122,0
137.93552,138.68552,39,92,0
137.93552,138.68552,51,92,0
138.93552,140.37555,38,127,0
138.93552,140.37555,46,127,0
138.93552,140.37555,50,127,0
140.8755,141.03905,39,122,0
140.8755,141.03905,51,122,0
141.96632,142.12996,32,122,0
141.96632,142.12996,44,122,0
143.05724,143.22087,34,122,0
143.05724,143.22087,46,122,0
145.23904,145.68893,34,122,0
145.23904,145.68893,46,122,0
147.63893,149.13914,46,69,0
149.13914,149.26414,43,69,0
149.26414,149.38914,44,69,0
149.38914,149.51414,46,69,0
149.51414,149.63914,43,69,0
149.63914,151.63914,39,69,0
151.63914,153.13914,47,69,0
153.13914,153.26414,44,69,0
153.26414,153.38914,46,69,0
153.38914,153.51414,47,69,0
153.51414,153.63914,44,69,0
153.63914,155.63914,39,69,0
155.63914,157.13914,46,69,0
157.13914,157.26414,42,69,0
157.26414,157.38914,44,69,0
157.38914,157.51414,46,69,0
157.51414,157.63914,42,69,0
157.63914,159.63914,39,69,0
159.63914,161.13914,42,69,0
161.13914,161.26414,39,69,0
161.26414,161.38914,40,69,0
161.38914,161.51414,42,69,0
161.51414,161.63914,39,69,0
161.63914,163.63914,35,69,0
163.63914,165.13914,43,69,0
165.13914,165.26414,40,69,0
165.26414,165.38914,42,69,0
165.38914,165.51414,43,69,0
165.51414,165.63914,40,69,0
165.63914,167.63914,35,69,0
167.63914,169.13914,42,69,0
169.13914,169.26414,38,69,0
169.26414,169.38914,40,69,0
169.38914,169.51414,42,69,0
169.51414,169.63914,38,69,0
169.63914,171.63914,35,69,0
171.63914,173.13914,38,69,0
173.13914,173.26414,35,69,0
173.26414,173.38914,36,69,0
173.38914,173.51414,38,69,0
173.51414,173.63914,35,69,0
173.63914,175.63914,31,69,0
175.63914,177.13914,39,69,0
177.13914,177.26414,36,69,0
177.26414,177.38914,38,69,0
177.38914,177.51414,39,69,0
177.51414,177.63914,36,69,0
177.63914,179.63914,31,69,0
179.63914,181.13914,38,69,0
181.13914,181.26414,35,69,0
181.26414,181.38914,36,69,0
181.38914,181.51414,38,69,0
181.51414,181.63914,35,69,0
181.63914,181.78319,31,69,0
182.11919,182.23918,35,72,0
182.23918,182.35919,36,73,0
182.35919,182.47919,38,74,0
182.47919,182.59918,35,74,0
182.59918,182.74318,31,75,0
183.07918,183.19919,35,78,0
183.19919,183.31918,36,79,0
183.31918,183.43918,38,80,0
183.43918,183.55919,35,80,0
183.55919,183.70319,31,81,0
184.03918,184.15918,35,84,0
184.15918,184.27919,36,85,0
184.27919,184.39919,38,86,0
184.39919,184.51918,35,86,0
184.51918,184.66318,31,88,0
184.99919,185.11919,36,91,0
185.11919,185.23918,38,92,0
185.23918,185.35919,39,92,0
185.35919,185.47919,36,93,0
185.47919,185.62318,31,94,0
185.95918,186.07918,38,97,0
186.07918,186.19919,39,98,0
186.19919,186.31918,41,98,0
186.31918,186.43918,38,99,0
186.43918,186.58319,31,100,0
186.91919,187.03918,39,103,0
187.03918,187.15918,41,104,0
187.15918,187.27919,43,104,0
187.27919,187.39919,39,105,0
187.39919,187.74538,32,107,0
187.39919,187.74538,44,107,0
187.86076,187.9646,56,77,0
188.20691,188.24153,56,77,0
188.3223,188.46075,51,77,0
188.78384,188.88768,51,77,0
189.12999,189.16461,51,77,0
189.24538,190.5146,48,77,0
190.5146,190.54922,44,77,0
190.62999,190.73384,46,77,0
190.97614,191.01076,48,77,0
191.09152,191.23,49,77,0
191.55307,191.6569,49,77,0
191.89922,191.93384,48,77,0
192.0146,192.15306,46,77,0
192.47614,192.57999,46,77,0
192.8223,192.8569,44,77,0
192.93768,193.07614,43,77,0
193.39922,193.50307,43,77,0
193.74538,193.77998,41,77,0
193.86075,193.92896,39,77,0
194.76987,194.8835,32,77,0
194.8835,194.99713,44,77,0
194.99713,195.11076,34,77,0
195.11076,195.22441,46,77,0
195.22441,195.33804,36,77,0
195.33804,195.45168,48,77,0
195.45168,195.5653,37,77,0
195.5653,195.67896,49,77,0
195.67896,195.79259,39,77,0
195.79259,195.90622,51,77,0
195.90622,196.01985,41,77,0
196.01985,196.1335,53,77,0
196.1335,196.24713,43,77,0
196.24713,196.36076,55,77,0
196.36076,196.47441,39,77,0
196.47441,196.58804,51,77,0
196.58804,197.04259,44,77,0
197.7244,197.95168,36,84,0
197.95168,198.17894,36,92,0
198.17894,198.40622,36,99,0
198.40622,198.51735,29,107,0
198.51735,198.62846,41,107,0
198.62846,198.73958,31,107,0
198.73958,198.85068,43,107,0
198.85068,198.96179,32,92,0
198.96179,199.0729,44,92,0
199.0729,199.18402,34,92,0
199.18402,199.29514,46,92,0
199.29514,199.40623,36,92,0
199.40623,199.51735,48,92,0
199.51735,199.62846,38,92,0
199.62846,199.73958,50,92,0
199.73958,199.85068,40,92,0
199.85068,199.96179,52,92,0
199.96179,200.0729,36,92,0
200.0729,200.18402,48,92,0
200.18402,200.62846,41,92,0
200.18402,200.62846,53,92,0
201.40623,201.43958,32,100,0
201.40623,201.43958,44,100,0
201.51735,201.61736,34,101,0
201.51735,201.61736,46,101,0
201.85068,201.88402,36,105,0
201.85068,201.88402,48,105,0
201.96179,202.09512,37,107,0
201.96179,202.09512,49,107,0
202.40623,202.50624,37,107,0
202.40623,202.50624,49,107,0
202.73956,202.7729,37,107,0
202.73956,202.7729,49,107,0
202.85068,202.98401,32,107,0
202.85068,202.98401,44,107,0
203.29512,203.39513,32,107,0
203.29512,203.39513,44,107,0
203.62846,203.66179,32,107,0
203.62846,203.66179,44,107,0
203.73956,204.73956,29,127,0
203.73956,204.73956,41,127,0
205.0729,205.1729,41,107,0
205.0729,205.1729,53,107,0
205.40623,205.43956,41,107,0
205.40623,205.43956,53,107,0
205.51735,205.65068,46,107,0
205.51735,205.65068,58,107,0
205.96179,206.06178,46,107,0
205.96179,206.06178,58,107,0
206.29512,206.32846,46,107,0
206.29512,206.32846,58,107,0
206.40623,206.53957,41,107,0
206.40623,206.53957,53,107,0
206.85068,206.95068,41,107,0
206.85068,206.95068,53,107,0
207.184,207.21735,41,107,0
207.184,207.21735,53,107,0
207.29512,207.69511,37,127,0
207.29512,207.69511,49,127,0
208.62845,208.72845,37,107,0
208.62845,208.72845,49,107,0
208.96179,208.99512,37,107,0
208.96179,208.99512,49,107,0
209.07289,209.23956,30,107,0
209.07289,209.23956,42,107,0
209.29512,209.36432,46,107,0
209.52585,209.59508,49,107,0
209.75662,209.82585,53,107,0
209.9874,210.05663,54,107,0
210.21815,210.28738,58,107,0
210.44893,210.51816,61,107,0
210.6797,210.74893,53,107,0
210.91046,210.97969,52,107,0
211.14124,211.21046,55,107,0
211.37201,211.44124,58,107,0
211.60277,211.672,55,107,0
211.83354,211.90277,52,107,0
212.06432,212.13354,55,107,0
212.29507,212.3643,52,107,0
212.52585,212.59508,48,107,0
212.75662,212.82585,41,107,0
212.75662,212.82585,53,107,0
212.98738,213.05663,56,107,0
213.21815,213.28738,60,107,0
213.44893,213.51816,64,107,0
213.67969,213.74893,65,107,0
213.91046,213.97969,67,107,0
214.14124,214.21046,68,107,0
214.372,214.44124,60,107,0
214.60277,214.672,59,107,0
214.83354,214.90277,62,107,0
215.0643,215.13354,65,107,0
215.29507,215.3643,62,107,0
215.52585,215.59508,59,107,0
215.75662,215.82585,62,107,0
215.98738,216.05661,59,107,0
216.21815,216.28738,55,107,0
216.44893,216.51816,36,107,0
216.44893,216.51816,48,107,0
216.67969,216.74892,51,107,0
216.91046,216.97969,55,107,0
217.14124,217.21046,59,107,0
217.372,217.44122,60,107,0
217.60277,217.672,62,107,0
217.83354,217.90277,63,107,0
218.0643,218.13353,59,107,0
218.29507,218.3643,60,107,0
218.52585,218.59508,54,107,0
218.7566,218.82584,55,107,0
218.98738,219.05661,50,107,0
219.21815,219.28738,51,107,0
219.44891,219.51814,47,107,0
219.67969,219.74892,48,107,0
219.91046,219.97969,44,107,0
220.14122,220.2566,43,77,0
220.2566,220.372,44,77,0
220.372,220.48738,43,78,0
220.48738,220.60277,45,79,0
220.60277,220.71815,43,80,0
220.71815,220.83353,46,80,0
220.83353,220.94891,43,80,0
220.94891,221.0643,47,81,0
221.0643,221.17969,43,82,0
221.17969,221.29507,48,83,0
221.29507,221.41046,43,83,0
221.41046,221.52583,49,84,0
221.52583,221.64122,43,84,0
221.64122,221.7566,50,85,0
221.7566,221.872,43,86,0
221.872,221.98738,51,86,0
221.98738,222.10277,43,87,0
222.10277,222.21814,52,88,0
222.21814,222.33353,43,88,0
222.33353,222.44891,53,89,0
222.44891,222.5643,43,89,0
222.5643,222.67969,56,90,0
222.67969,222.79507,43,91,0
222.79507,222.91046,55,92,0
222.91046,223.02583,43,92,0
223.02583,223.14122,53,89,0
223.14122,223.2566,43,86,0
223.2566,223.372,51,83,0
223.372,223.48738,43,80,0
223.48738,223.60277,50,77,0
223.60277,223.71814,43,74,0
223.71814,223.83353,48,71,0
223.83353,223.94891,43,69,0
223.94891,224.0643,47,69,0
224.0643,224.17969,50,69,0
224.17969,224.29507,47,69,0
224.29507,224.41045,43,69,0
224.41045,224.52583,47,69,0
224.52583,224.64122,50,69,0
224.64122,224.7566,47,69,0
224.7566,224.872,43,69,0
224.872,224.98738,47,69,0
224.98738,225.10275,50,69,0
225.10275,225.21814,47,69,0
225.21814,225.33353,43,69,0
225.33353,225.44891,47,69,0
225.44891,225.5643,50,69,0
225.5643,225.67969,47,69,0
225.67969,225.79506,43,69,0
225.79506,225.91045,48,69,0
225.91045,226.02583,51,69,0
226.02583,226.14122,48,69,0
226.14122,226.2566,43,69,0
226.2566,226.372,48,69,0
226.372,226.48738,51,69,0
226.48738,226.60275,48,69,0
226.60275,226.71814,43,69,0
226.71814,226.83353,48,69,0
226.83353,226.94891,51,69,0
226.94891,227.0643,48,69,0
227.0643,227.17969,43,69,0
227.17969,227.29506,48,69,0
227.29506,227.41045,51,69,0
227.41045,227.52583,48,69,0
227.52583,227.64122,43,69,0
227.64122,227.7566,47,70,0
227.7566,227.872,43,71,0
227.872,227.98737,45,72,0
227.98737,228.10275,43,74,0
228.10275,228.21814,46,74,0
228.21814,228.33353,43,76,0
228.33353,228.44891,47,77,0
228.44891,228.5643,43,78,0
228.5643,228.67967,48,79,0
228.67967,228.79506,43,80,0
228.79506,228.91045,49,81,0
228.91045,229.02583,43,83,0
229.02583,229.14122,50,83,0
229.14122,229.2566,43,85,0
229.2566,229.37198,51,86,0
229.37198,229.48737,43,87,0
229.48737,229.60275,52,88,0
229.60275,229.71814,43,89,0
229.71814,229.83353,53,90,0
229.83353,229.94891,43,92,0
229.94891,230.0643,56,90,0
230.0643,230.17967,43,89,0
230.17967,230.29506,55,88,0
230.29506,230.41045,43,86,0
230.41045,230.52583,53,85,0
230.52583,230.64122,43,84,0
230.64122,230.7566,51,83,0
230.7566,230.87198,43,81,0
230.87198,230.98737,50,80,0
230.98737,231.10275,43,79,0
231.10275,231.21814,48,77,0
231.21814,231.33353,43,77,0
231.33353,231.44891,47,77,0
231.44891,231.56429,50,77,0
231.56429,231.67967,47,77,0
231.67967,231.79506,43,77,0
231.79506,231.91045,47,77,0
231.91045,232.02583,50,77,0
232.02583,232.14122,47,77,0
232.14122,232.25659,43,77,0
232.25659,232.37198,47,77,0
232.37198,232.48737,50,77,0
232.48737,232.60275,47,77,0
232.60275,232.71814,43,77,0
232.71814,232.83353,47,77,0
232.83353,232.9489,50,77,0
232.9489,233.06429,47,77,0
233.06429,233.17967,43,77,0
233.17967,233.29506,48,76,0
233.29506,233.41045,51,75,0
233.41045,233.52583,48,75,0
233.52583,233.64122,43,74,0
233.64122,233.75659,48,74,0
233.75659,233.87198,51,74,0
233.87198,233.98737,48,73,0
233.98737,234.10275,43,73,0
234.10275,234.21814,48,72,0
234.21814,234.33353,51,71,0
234.33353,234.4489,48,71,0
234.4489,234.56429,43,71,0
234.56429,234.67967,48,70,0
234.67967,234.79506,51,70,0
234.79506,234.91045,48,69,0
234.91045,235.02583,43,69,0
235.02583,235.1412,47,69,0
235.1412,235.25659,50,69,0
235.25659,235.37198,47,69,0
235.37198,235.48737,43,69,0
235.48737,235.60275,47,69,0
235.60275,235.71814,50,69,0
235.71814,235.83351,47,69,0
235.83351,235.9489,43,69,0
235.9489,236.06429,48,69,0
236.06429,236.17967,51,69,0
236.17967,236.29506,48,69,0
236.29506,236.41045,43,69,0
236.41045,236.52582,48,69,0
236.52582,236.6412,51,69,0
236.6412,236.75659,48,69,0
236.75659,236.87198,43,69,0
236.87198,236.98737,47,69,0
236.98737,237.10275,50,69,0
237.10275,237.21814,47,69,0
237.21814,237.33351,43,69,0
237.33351,237.4489,47,69,0
237.4489,237.56429,50,69,0
237.56429,237.67967,47,69,0
237.67967,237.79506,43,69,0
237.79506,237.91045,48,69,0
237.91045,238.02582,51,69,0
238.02582,238.1412,48,69,0
238.1412,238.25659,43,69,0
238.25659,238.37198,48,69,0
238.37198,238.48737,51,69,0
238.48737,238.60275,48,69,0
238.60275,238.71812,47,69,0
238.71812,238.83351,43,71,0
238.83351,238.9489,44,72,0
238.9489,239.06429,43,74,0
239.06429,239.17967,44,75,0
239.17967,239.29506,43,77,0
239.29506,239.41043,44,79,0
239.41043,239.52582,43,80,0
239.52582,239.6412,44,82,0
239.6412,239.75659,43,83,0
239.75659,239.87198,44,85,0
239.87198,239.98737,43,87,0
239.98737,240.10274,44,89,0
240.10274,240.2227,43,90,0
240.2227,240.34271,44,92,0
240.34271,240.4627,43,93,0
240.4627,240.5827,44,95,0
240.5827,240.70271,43,97,0
240.70271,240.82271,44,98,0
240.82271,240.9427,43,100,0
240.9427,241.06766,41,101,0
241.06766,241.19266,43,103,0
241.19266,241.31766,41,105,0
241.31766,241.44266,43,107,0
241.44266,241.56766,39,108,0
241.56766,241.69266,43,110,0
241.69266,241.81766,39,111,0
241.81766,241.94806,43,113,0
241.94806,242.07849,38,115,0
242.07849,242.20892,43,116,0
242.20892,242.33936,38,118,0
242.33936,242.46979,43,119,0
242.46979,243.69702,36,122,0
242.46979,243.69702,39,122,0
242.46979,243.69702,43,122,0
244.10611,244.24246,51,122,0
244.24246,244.37883,53,122,0
244.37883,244.5152,55,122,0
244.5152,244.65157,51,122,0
244.65157,244.8152,48,122,0
246.83337,248.46974,60,127,0
248.46974,248.6061,56,122,0
248.6061,248.74246,58,122,0
248.74246,248.87883,60,122,0
248.87883,249.0152,56,122,0
249.0152,249.17883,53,122,0
251.197,252.56064,53,77,0
252.56064,252.83337,51,77,0
252.83337,252.91519,50,77,0
253.1061,253.18791,48,77,0
253.37883,253.78792,47,77,0
253.92427,254.33337,46,78,0
254.46973,254.87881,45,80,0
255.01518,255.42427,44,82,0
255.56064,256.46054,43,77,0
256.76053,257.76038,36,77,0
256.76053,257.76038,43,77,0
258.09372,260.34354,31,77,0
258.09372,260.34354,43,77,0
261.09354,261.99387,44,77,0
262.29385,263.29373,37,77,0
262.29385,263.29373,44,77,0
263.62704,265.8769,32,77,0
263.62704,265.8769,44,77,0
267.9604,268.9604,29,73,0
267.9604,268.9604,41,73,0
269.2937,271.54355,31,69,0
269.2937,271.54355,43,69,0
272.29355,274.09384,48,69,0
272.29355,274.09384,51,69,0
273.49387,275.89386,56,71,0
274.69385,276.49387,47,73,0
274.69385,276.49387,50,73,0
275.89386,276.49387,55,74,0
276.49387,277.09384,53,75,0
277.09384,279.09406,36,77,0
279.09406,279.1878,36,88,0
279.21906,279.3128,35,88,0
279.34406,279.4378,36,88,0
279.46906,279.5628,35,88,0
279.59406,279.6878,36,88,0
279.71906,279.8128,35,88,0
279.84406,279.9378,36,88,0
279.96906,280.0628,35,88,0
280.09406,280.1878,36,88,0
280.21906,280.3128,35,88,0
280.34406,280.4378,36,88,0
280.46906,280.5628,35,88,0
280.59406,280.6878,36,88,0
280.71906,280.8128,35,88,0
280.84406,280.9378,36,88,0
280.96906,281.0628,35,88,0
281.09406,282.59406,36,77,0
283.09406,283.1878,36,88,0
283.21906,283.3128,35,88,0
283.34406,283.4378,36,88,0
283.46906,283.5628,35,88,0
283.59406,283.6878,36,88,0
283.71906,283.8128,35,88,0
283.84406,283.9378,36,88,0
283.96906,284.0628,35,88,0
284.09406,284.1878,36,88,0
284.21906,284.3128,35,88,0
284.34406,284.4378,36,88,0
284.46906,284.5628,35,88,0
284.59406,284.6878,36,88,0
284.71906,284.8128,35,88,0
284.84406,284.9378,36,88,0
284.96906,285.0628,35,88,0
285.09406,287.09406,36,77,0
287.09406,288.59406,36,84,0
288.59406,289.09406,39,89,0
290.09406,291.09406,31,92,0
289.09406,291.09406,43,107,0
291.21906,291.34406,36,77,0
291.34406,291.46906,39,77,0
291.46906,291.59406,43,77,0
291.59406,291.74405,48,77,0
292.21906,292.34406,48,79,0
292.34406,292.46906,51,80,0
292.46906,292.59406,55,80,0
292.59406,292.74405,60,80,0
293.09406,294.07227,62,81,0
293.09406,294.07227,65,81,0
293.09406,294.07227,68,81,0
294.39838,294.59402,62,84,0
294.39838,294.59402,65,84,0
294.39838,294.59402,68,84,0
294.65924,294.8549,62,85,0
294.65924,294.8549,65,85,0
294.65924,294.8549,68,85,0
294.9201,295.11575,62,86,0
294.9201,295.11575,65,86,0
294.9201,295.11575,68,86,0
295.18097,296.15924,63,86,0
295.18097,296.15924,67,86,0
296.48532,296.68097,63,89,0
296.7462,296.94183,68,90,0
297.00705,297.2027,66,91,0
297.2679,297.81332,67,92,0
297.2679,298.3588,55,92,0
297.81332,298.3588,63,88,0
298.3588,298.90424,62,84,0
298.3588,298.90424,65,84,0
298.3588,299.4497,55,84,0
298.90424,299.4497,65,80,0
299.4497,299.8248,60,77,0
299.4497,299.8248,63,77,0
301.6998,301.9498,47,88,0
301.9498,302.1998,48,89,0
302.1998,302.4498,50,90,0
302.4498,302.6998,51,92,0
302.6998,302.9498,48,92,0
302.9498,303.1998,45,94,0
303.1998,303.4498,42,95,0
303.4498,303.52478,43,96,0
303.6998,303.8873,43,98,0
303.6998,303.8873,48,98,0
303.6998,303.8873,51,98,0
303.6998,303.8873,55,98,0
303.9498,304.1373,43,99,0
303.9498,304.1373,48,99,0
303.9498,304.1373,51,99,0
303.9498,304.1373,55,99,0
304.1998,304.3873,43,100,0
304.1998,304.3873,48,100,0
304.1998,304.3873,51,100,0
304.1998,304.3873,55,100,0
304.6998,304.8873,43,103,0
304.6998,304.8873,50,103,0
304.6998,304.8873,53,103,0
304.6998,304.8873,55,103,0
304.9498,305.1373,43,104,0
304.9498,305.1373,50,104,0
304.9498,305.1373,53,104,0
304.9498,305.1373,55,104,0
305.1998,305.3873,43,105,0
305.1998,305.3873,50,105,0
305.1998,305.3873,53,105,0
305.1998,305.3873,55,105,0
305.4498,305.5998,36,122,0
305.4498,305.5998,39,122,0
305.4498,305.5998,43,122,0
305.4498,305.5998,48,122,0
306.4498,306.5998,31,122,0
306.4498,306.5998,35,122,0
306.4498,306.5998,38,122,0
306.4498,306.5998,43,122,0
307.4498,307.5998,36,122,0
307.4498,307.5998,39,122,0
307.4498,307.5998,43,122,0
307.4498,307.5998,48,122,0
308.9498,309.3248,60,77,0
308.9498,309.3248,63,77,0
308.9498,309.3248,67,77,0
309.4498,310.5748,62,77,0
309.4498,310.5748,65,77,0
309.4498,310.5748,67,77,0
310.9498,311.3248,60,77,0
310.9498,311.3248,63,77,0
310.9498,311.9955,67,77,0
311.9955,312.541,66,77,0
311.45007,312.67734,55,77,0
312.541,313.08643,67,77,0
313.6316,313.78162,36,122,0
313.6316,313.78162,39,122,0
313.6316,313.78162,43,122,0
313.6316,313.78162,48,122,0
314.6316,314.78162,34,122,0
314.6316,314.78162,38,122,0
314.6316,314.78162,41,122,0
314.6316,314.78162,46,122,0
315.6319,315.79553,46,122,0
315.6319,315.79553,50,122,0
315.6319,315.79553,53,122,0
315.6319,315.79553,58,122,0
317.81387,317.9853,43,122,0
317.81387,317.9853,46,122,0
317.81387,317.9853,52,122,0
317.81387,317.9853,55,122,0
320.09912,320.24915,44,107,0
320.09912,320.24915,48,107,0
320.09912,320.24915,53,107,0
320.09912,320.24915,56,107,0
321.09912,321.24915,32,107,0
321.09912,321.24915,44,107,0
322.09912,322.24915,31,107,0
322.09912,322.24915,43,107,0
338.46582,338.56964,43,77,0
338.81195,338.8466,43,77,0
338.92734,339.06372,48,77,0
339.3819,339.48416,48,77,0
339.7228,339.7569,48,77,0
339.83646,339.9728,43,77,0
340.291,340.39328,43,77,0
340.6319,340.666,43,77,0
340.74554,341.97787,40,77,0
341.97787,342.0112,36,77,0
342.089,342.189,38,77,0
342.42233,342.45566,40,77,0
342.53345,342.66678,41,77,0
342.97787,343.07788,41,77,0
343.31122,343.34454,40,77,0
343.42233,343.55566,38,77,0
343.86676,343.96677,38,77,0
344.2001,344.23343,36,77,0
344.31122,344.75565,35,77,0
344.75565,345.42233,38,89,0
345.64453,345.74454,35,77,0
345.97787,346.0112,36,77,0
346.089,346.22232,38,77,0
346.53345,346.63342,38,78,0
346.86676,346.9001,40,80,0
346.97787,347.07788,41,80,0
347.31122,347.34454,43,81,0
347.42233,347.5223,45,82,0
347.75565,347.789,47,83,0
347.86676,348.86676,48,99,0
349.2001,349.3001,45,89,0
349.53342,349.56677,41,91,0
349.64453,349.77786,43,77,0
350.089,350.189,43,77,0
350.4223,350.45566,43,77,0
350.53342,350.66675,43,77,0
350.97787,351.07788,43,77,0
351.31122,351.34454,43,77,0
351.4223,352.4223,48,77,0
352.75565,352.85565,44,84,0
353.089,353.1223,43,86,0
353.2001,353.33344,42,86,0
353.64453,353.74454,42,89,0
353.97787,354.0112,42,91,0
354.089,354.22232,42,92,0
354.53342,354.63342,42,84,0
354.86676,354.9001,42,78,0
354.97787,355.0612,31,77,0
355.089,355.1723,43,77,0
355.2001,355.28342,31,77,0
355.3112,355.39453,43,77,0
355.4223,355.50565,31,77,0
355.53342,355.61676,43,77,0
355.64453,355.72787,31,77,0
355.75565,355.839,43,77,0
355.86676,355.9501,31,77,0
355.97787,356.0612,43,77,0
356.089,356.1723,31,77,0
356.2001,356.28342,43,77,0
356.3112,356.39453,31,77,0
356.4223,356.50565,43,77,0
356.53342,356.61676,31,77,0
356.64453,356.72787,43,77,0
356.75565,356.839,31,77,0
356.86676,356.9501,43,77,0
356.97787,357.0612,31,77,0
357.089,357.1723,43,77,0
357.20007,357.28342,31,78,0
357.3112,357.39453,43,79,0
357.4223,357.50565,31,79,0
357.53342,357.61676,43,80,0
357.64453,357.72787,31,80,0
357.75565,357.839,43,80,0
357.86676,357.95007,31,81,0
357.97787,358.0612,43,81,0
358.089,358.1723,31,82,0
358.20007,358.28342,43,83,0
358.3112,358.39453,31,83,0
358.4223,358.50565,43,83,0
358.53342,358.61676,31,84,0
358.64453,358.72787,43,84,0
358.75565,358.839,31,85,0
358.86676,358.95007,43,85,0
358.97787,359.0612,31,86,0
359.089,359.1723,43,86,0
359.20007,359.28342,31,86,0
359.3112,359.39453,43,87,0
359.4223,359.50565,31,88,0
359.53342,359.61676,43,88,0
359.64453,359.72787,31,89,0
359.75565,359.839,43,89,0
359.86676,359.95007,31,89,0
359.97787,360.0612,43,90,0
360.089,360.1723,31,90,0
360.20007,360.28342,43,91,0
360.3112,360.39453,31,92,0
360.4223,360.50565,43,92,0
360.53342,360.61676,31,92,0
360.64453,360.72787,43,92,0
360.75565,360.83896,31,93,0
360.86676,360.95007,43,94,0
360.97787,361.0612,31,94,0
361.08896,361.1723,43,95,0
361.20007,361.28342,31,95,0
361.3112,361.39453,43,95,0
361.4223,361.50565,31,96,0
361.53342,361.61676,43,96,0
361.64453,361.72787,31,97,0
361.75565,361.83896,43,98,0
361.86676,361.95007,31,98,0
361.97787,362.0612,43,98,0
362.08896,362.1723,31,99,0
362.20007,362.28342,43,99,0
362.3112,362.39453,31,100,0
362.4223,362.50565,43,100,0
362.53342,362.61676,31,101,0
362.64453,362.72787,43,101,0
362.75565,362.83896,31,101,0
362.86676,362.95007,43,102,0
362.97787,363.0612,31,103,0
363.08896,363.1723,43,103,0
363.20007,363.28342,31,104,0
363.3112,363.39453,43,104,0
363.4223,363.50565,31,104,0
363.53342,363.61676,43,105,0
363.64453,363.72787,31,105,0
363.75565,363.83896,43,106,0
363.86676,363.95007,31,107,0
363.97784,364.0612,43,107,0
364.08896,364.1723,31,107,0
364.20007,364.28342,43,107,0
364.3112,364.39453,31,107,0
364.4223,364.50565,43,107,0
364.53342,364.61676,31,107,0
364.64453,364.72784,43,107,0
364.75565,364.83896,31,107,0
364.86676,364.95007,43,107,0
364.97784,365.0612,31,107,0
365.08896,365.1723,43,107,0
365.20007,365.28342,33,107,0
365.3112,365.39453,43,99,0
365.4223,365.50565,35,92,0
365.53342,365.61676,43,84,0
365.64453,365.9821,36,77,0
366.7898,366.90518,47,77,0
366.90518,367.02057,48,77,0
367.02057,367.08978,50,77,0
367.2513,367.32056,43,77,0
367.4821,367.62054,48,77,0
368.1744,368.24362,43,77,0
368.1744,368.24362,55,77,0
368.40518,368.54364,48,89,0
368.40518,368.54364,60,89,0
369.09747,369.16672,43,77,0
369.09747,369.16672,55,77,0
369.32825,369.4667,48,77,0
369.32825,369.4667,60,77,0
370.4821,370.59747,47,77,0
370.59747,370.71286,48,77,0
370.71286,370.7821,50,77,0
370.94363,371.01285,43,77,0
371.1744,371.24362,48,77,0
371.40518,371.52054,48,77,0
371.52054,371.63593,49,77,0
371.63593,371.70517,51,78,0
371.8667,371.93594,44,80,0
372.09747,372.16672,49,82,0
372.32825,372.44363,52,84,0
372.44363,372.55902,53,85,0
372.55902,372.62823,55,86,0
372.7898,372.859,48,88,0
373.02054,373.08978,53,89,0
373.2513,373.3667,62,92,0
373.3667,373.4821,63,92,0
373.4821,373.55133,65,93,0
373.71286,373.78207,55,95,0
373.94363,374.01285,60,97,0
374.1744,374.28976,62,99,0
374.28976,374.40515,63,100,0
374.40515,374.4744,65,101,0
374.63593,374.70517,55,103,0
374.8667,374.93594,60,104,0
375.09747,375.1667,43,107,0
375.09747,375.1667,55,107,0
375.32825,375.39746,48,107,0
375.32825,375.39746,60,107,0
375.55902,375.62823,43,107,0
375.55902,375.62823,55,107,0
375.78976,375.859,48,107,0
375.78976,375.859,60,107,0
376.02054,376.08978,43,107,0
376.02054,376.08978,55,107,0
376.2513,376.32056,48,107,0
376.2513,376.32056,60,107,0
376.4821,376.55133,43,107,0
376.4821,376.55133,55,107,0
376.71286,377.46277,39,122,0
376.71286,377.46277,51,122,0
377.71277,378.46277,40,122,0
377.71277,378.46277,52,122,0
378.71277,379.53085,41,127,0
378.71277,379.53085,53,127,0
379.8036,380.56503,29,122,0
379.8036,380.56503,41,122,0
380.81503,380.94003,31,107,0
380.81503,380.94003,43,107,0
380.98172,381.10672,48,107,0
381.14838,381.27338,51,107,0
381.31503,381.44003,55,107,0
381.48172,381.60672,51,107,0
381.64838,381.77338,48,107,0
381.81503,381.94003,43,107,0
381.98172,382.10672,48,107,0
382.14838,382.27338,51,107,0
382.31503,382.44003,55,107,0
382.48172,382.60672,51,107,0
382.64838,382.77338,48,107,0
382.81503,382.94003,43,107,0
382.98172,383.10672,48,107,0
383.14838,383.27338,51,107,0
383.31503,383.44003,55,107,0
383.48172,383.60672,51,107,0
383.64838,383.77338,48,107,0
383.81503,383.94003,43,107,0
383.98172,384.10672,48,107,0
384.14838,384.27338,51,107,0
384.31503,384.44003,43,107,0
384.48172,384.60672,47,96,0
384.64838,384.77338,53,86,0
384.81503,384.90878,48,77,0
384.94003,385.03378,55,77,0
385.06503,385.15878,54,77,0
385.19003,385.28378,55,77,0
385.31503,385.40878,53,77,0
385.44003,385.53378,51,77,0
385.56503,385.65878,50,77,0
385.69003,385.78378,48,77,0
385.81503,385.90878,47,77,0
385.94003,386.03378,48,77,0
386.06503,386.15878,50,77,0
386.19003,386.28378,48,77,0
386.31503,386.40878,47,77,0
386.44003,386.53378,44,77,0
386.56503,386.65878,43,77,0
386.69003,386.78378,41,77,0
386.81503,386.90878,39,77,0
386.94003,387.03378,43,77,0
387.06503,387.15878,48,77,0
387.19003,387.28378,51,77,0
387.31503,387.44003,53,77,0
387.44003,387.53378,50,77,0
387.56503,387.60254,47,77,0
387.69003,387.72754,41,77,0
387.81503,387.90878,39,77,0
387.94003,388.03378,43,77,0
388.06503,388.15878,48,77,0
388.19003,388.28378,51,77,0
388.31503,388.44003,53,77,0
388.44003,388.53378,50,77,0
388.56503,388.60254,47,77,0
388.69003,388.78378,41,77,0
388.81503,388.90878,39,77,0
388.94003,389.03378,55,77,0
389.06503,389.15878,54,77,0
389.19003,389.28378,55,77,0
389.31503,389.40878,53,77,0
389.44003,389.53378,51,77,0
389.56503,389.65878,50,77,0
389.69003,389.78378,48,77,0
389.81503,389.90878,47,77,0
389.94003,390.03378,48,77,0
390.06503,390.15878,50,77,0
390.19003,390.28378,48,77,0
390.31503,390.40878,47,77,0
390.44003,390.53378,44,77,0
390.56503,390.65878,43,77,0
390.69003,390.78378,41,77,0
390.81503,390.89005,39,77,0
391.06503,391.19003,48,78,0
391.19003,391.31503,50,79,0
391.31503,391.39005,51,80,0
391.56503,391.64005,44,82,0
391.81503,391.89005,50,84,0
392.06503,392.19003,52,86,0
392.19003,392.31503,53,86,0
392.31503,392.39005,55,88,0
392.56503,392.64005,48,89,0
392.81503,392.89005,53,92,0
393.06503,393.19003,59,93,0
393.19003,393.31503,60,94,0
393.31503,393.39005,62,95,0
393.56503,393.64005,55,97,0
393.81503,393.89005,60,99,0
394.06503,394.19003,59,101,0
394.19003,394.31503,60,101,0
394.31503,394.39005,62,103,0
394.56503,394.64005,55,104,0
394.81503,394.89005,60,107,0
395.06503,395.14005,43,108,0
395.06503,395.14005,55,108,0
395.31503,395.39005,48,110,0
395.31503,395.39005,60,110,0
395.56503,395.64005,43,112,0
395.56503,395.64005,55,112,0
395.81503,395.89005,48,114,0
395.81503,395.89005,60,114,0
396.06503,396.14005,43,116,0
396.06503,396.14005,55,116,0
396.31503,396.39005,48,118,0
396.31503,396.39005,60,118,0
396.56503,396.64005,43,119,0
396.56503,396.64005,55,119,0
396.81503,397.56503,39,122,0
396.81503,397.56503,51,122,0
397.81503,398.56503,40,92,0
397.81503,398.56503,52,92,0
398.81503,400.2601,41,127,0
398.81503,400.2601,53,127,0
400.74008,401.49005,37,107,0
400.74008,401.49005,49,107,0
401.74005,402.49005,36,92,0
401.74005,402.49005,48,92,0
402.74005,404.18008,35,107,0
402.74005,404.18008,43,107,0
402.74005,404.18008,47,107,0
404.68005,404.8436,36,122,0
404.68005,404.8436,48,122,0
405.77084,405.9345,29,122,0
405.77084,405.9345,41,122,0
406.86176,407.0254,31,122,0
406.86176,407.0254,43,122,0
409.04358,409.2072,31,122,0
409.04358,409.2072,43,122,0
411.2254,412.7255,43,77,0
412.7255,412.8505,40,77,0
412.8505,412.9755,41,77,0
412.9755,413.1005,43,77,0
413.1005,413.2255,40,77,0
413.2255,415.2255,36,77,0
415.2255,416.7255,44,77,0
416.7255,416.8505,41,77,0
416.8505,416.9755,43,77,0
416.9755,417.1005,44,77,0
417.1005,417.2255,41,77,0
417.2255,419.2255,36,77,0
419.2255,420.7255,43,77,0
420.7255,420.8505,40,77,0
420.8505,420.9755,41,77,0
420.9755,421.1005,43,77,0
421.1005,421.2255,40,77,0
421.2255,423.2255,36,77,0
423.2255,424.7255,44,77,0
424.7255,424.8505,41,77,0
424.8505,424.9755,43,77,0
424.9755,425.1005,44,77,0
425.1005,425.2255,41,77,0
425.2255,427.2255,36,77,0
427.2255,427.31924,36,77,0
427.3505,427.44424,43,77,0
427.4755,427.56924,36,77,0
427.6005,427.69424,43,77,0
427.7255,427.81924,36,77,0
427.8505,427.94424,43,78,0
427.9755,428.06924,36,80,0
428.1005,428.19424,43,81,0
428.2255,428.31924,36,83,0
428.3505,428.44424,43,84,0
428.4755,428.56924,36,86,0
428.6005,428.69424,43,88,0
428.7255,428.81924,36,89,0
428.8505,428.94424,43,91,0
428.9755,429.06924,36,92,0
429.1005,429.19424,43,94,0
429.2255,429.31924,36,95,0
429.3505,429.44424,43,97,0
429.4755,429.56924,36,99,0
429.6005,429.69424,43,101,0
429.7255,429.81924,36,102,0
429.8505,429.94424,43,104,0
429.9755,430.06924,36,105,0
430.1005,430.19424,43,107,0
430.2255,430.31924,36,108,0
430.3505,430.44424,43,110,0
430.4755,430.56924,36,112,0
430.6005,430.69424,43,113,0
430.7255,430.81924,36,115,0
430.8505,430.94424,43,116,0
430.9755,431.06924,36,118,0
431.1005,431.19424,43,119,0
431.2255,431.38904,34,122,0
431.2255,431.38904,46,122,0
431.77084,431.93448,46,122,0
431.77084,431.93448,52,122,0
431.77084,431.93448,55,122,0
433.95267,434.08902,52,77,0
434.08902,434.2254,53,77,0
434.2254,434.36176,55,77,0
434.36176,434.4981,52,77,0
434.4981,434.66177,48,77,0
435.58902,435.75266,32,122,0
435.58902,435.75266,44,122,0
436.1345,436.29813,44,122,0
436.1345,436.29813,48,122,0
436.1345,436.29813,53,122,0
436.1345,436.29813,56,122,0
438.3163,438.4414,56,77,0
438.4414,438.5664,58,77,0
438.5664,438.6914,60,77,0
438.6914,438.8164,56,77,0
438.8164,438.9664,53,77,0
439.3164,439.4414,56,77,0
439.4414,439.5664,58,77,0
439.5664,439.6914,60,77,0
439.6914,439.8164,56,77,0
439.8164,439.96045,61,69,0
440.29645,440.40445,61,69,0
440.65643,440.69244,61,69,0
440.77643,440.92044,56,69,0
441.25644,441.36444,56,69,0
441.61642,441.65244,56,69,0
441.73645,443.05643,53,69,0
443.05643,443.0911,49,69,0
443.17188,443.2757,51,69,0
443.518,443.55264,53,69,0
443.6334,443.77185,54,69,0
444.09494,444.1988,54,69,0
444.4411,444.4757,53,69,0
444.5565,444.69495,51,69,0
445.018,445.12186,51,69,0
445.36417,445.39877,49,69,0
445.47955,446.74878,48,69,0
446.74878,446.7834,48,69,0
446.86417,446.96802,49,69,0
447.21033,447.24493,51,69,0
447.3257,447.46417,53,69,0
447.78723,447.89108,53,69,0
448.1334,448.168,51,69,0
448.24878,448.38724,49,69,0
448.71033,448.81415,49,69,0
449.05646,449.0911,48,69,0
449.17184,449.2757,46,69,0
449.518,449.5526,49,69,0
449.6334,449.73724,48,69,0
449.97955,450.01416,46,69,0
450.09494,450.19876,44,69,0
450.44107,450.4757,48,69,0
450.55646,450.6603,46,69,0
450.90262,450.93723,44,69,0
451.018,451.12186,43,69,0
451.36417,451.39877,46,69,0
451.47955,451.5834,44,69,0
451.82568,451.86032,43,69,0
451.94107,452.42105,41,69,0
452.42105,452.90103,43,69,0
452.90103,453.86105,44,69,0
453.86105,454.82104,32,73,0
453.86105,454.82104,44,73,0
454.82104,454.91476,31,77,0
454.82104,454.91476,43,77,0
454.946,455.03976,44,77,0
455.071,455.16476,43,77,0
455.196,455.28976,47,77,0
455.321,455.41476,43,77,0
455.446,455.53976,44,77,0
455.571,455.66476,43,77,0
455.696,455.78976,47,77,0
455.821,455.91476,43,77,0
455.946,456.03976,44,77,0
456.071,456.16476,43,77,0
456.196,456.28976,47,77,0
456.321,456.41476,43,77,0
456.446,456.53976,44,77,0
456.571,456.66476,43,77,0
456.696,456.78976,47,77,0
456.821,456.91476,43,77,0
456.946,457.03976,44,77,0
457.071,457.16476,43,77,0
457.196,457.28976,48,77,0
457.321,457.41476,43,77,0
457.446,457.53976,44,77,0
457.571,457.66476,43,77,0
457.696,457.78976,48,78,0
457.821,457.91476,43,79,0
457.946,458.03976,44,79,0
458.071,458.16476,43,80,0
458.196,458.28976,48,80,0
458.321,458.41476,43,81,0
458.446,458.53976,44,81,0
458.571,458.66476,43,82,0
458.696,458.78976,48,83,0
458.821,458.91476,43,83,0
458.946,459.03976,44,84,0
459.071,459.16476,43,84,0
459.196,459.28976,50,85,0
459.321,459.41476,43,86,0
459.446,459.53976,44,86,0
459.571,459.66476,43,86,0
459.696,459.78976,50,87,0
459.821,459.91476,43,88,0
459.946,460.03976,44,89,0
460.071,460.16476,43,89,0
460.196,460.28976,52,89,0
460.321,460.41476,43,90,0
460.446,460.53976,44,91,0
460.571,460.66476,43,92,0
460.696,460.78976,52,92,0
460.821,460.91476,43,92,0
460.946,461.03976,53,93,0
461.071,461.16476,43,94,0
461.196,461.28976,53,94,0
461.321,461.41476,43,95,0
461.446,461.53976,53,95,0
461.571,461.66476,43,96,0
461.696,461.78976,53,96,0
461.821,461.91476,43,97,0
461.946,462.03976,53,98,0
462.071,462.16476,43,98,0
462.196,462.28976,53,99,0
462.321,462.41476,43,99,0
462.446,462.53976,54,100,0
462.571,462.66476,43,101,0
462.696,462.78976,54,101,0
462.821,462.91476,43,101,0
462.946,463.03976,55,102,0
463.071,463.16476,60,103,0
463.196,463.28976,55,104,0
463.321,463.41476,51,104,0
463.446,463.53976,55,104,0
463.571,463.66476,48,105,0
463.696,463.78976,51,106,0
463.821,463.91476,43,107,0
463.946,464.03976,48,107,0
464.071,464.16476,39,107,0
464.196,464.28976,43,107,0
464.321,464.41476,36,107,0
464.446,464.53976,43,107,0
464.571,464.66476,39,107,0
464.696,464.78976,36,107,0
464.821,464.91476,32,122,0
464.946,465.03976,43,122,0
465.071,465.16476,31,122,0
465.196,465.28976,43,122,0
465.321,465.41476,32,122,0
465.446,465.53976,43,122,0
465.571,465.66476,31,122,0
465.696,465.78976,43,122,0
465.821,465.91476,32,122,0
465.946,466.03976,43,122,0
466.071,466.16476,31,122,0
466.196,466.28976,43,122,0
466.321,466.41476,32,122,0
466.446,466.53976,43,122,0
466.571,466.66476,31,122,0
466.696,466.78976,43,122,0
466.821,466.91476,36,122,0
466.946,467.03976,48,110,0
467.071,467.16476,35,99,0
467.196,467.28976,47,88,0
467.321,467.41476,36,77,0
467.446,467.53976,48,77,0
467.571,467.66476,38,77,0
467.696,467.78976,50,77,0
467.821,467.91476,39,77,0
467.946,468.03976,51,77,0
468.071,468.16476,41,77,0
468.196,468.28976,53,77,0
468.321,468.41476,43,77,0
468.446,468.53976,55,77,0
468.571,468.66476,39,77,0
468.696,468.78976,51,77,0
468.821,468.91476,36,77,0
468.946,469.03976,48,77,0
469.071,469.16476,35,77,0
469.196,469.28976,47,77,0
469.321,469.41476,36,77,0
469.446,469.53976,48,77,0
469.571,469.66476,38,77,0
469.696,469.78976,50,77,0
469.821,469.91476,39,77,0
469.946,470.03976,51,77,0
470.071,470.16476,40,77,0
470.196,470.28976,52,77,0
470.321,470.41476,41,77,0
470.446,470.53976,53,77,0
470.571,470.66476,43,77,0
470.696,470.78976,55,77,0
470.821,470.91476,44,77,0
470.946,471.03976,56,77,0
471.071,471.16476,40,77,0
471.196,471.28976,52,77,0
471.321,471.41476,41,77,0
471.446,471.53976,53,77,0
471.571,471.66476,43,77,0
471.696,471.78976,55,77,0
471.821,471.91476,44,77,0
471.946,472.03976,56,77,0
472.071,472.16476,46,77,0
472.196,472.28976,58,77,0
472.321,472.41476,48,77,0
472.446,472.53976,60,77,0
472.571,472.66476,44,77,0
472.696,472.78976,56,77,0
472.821,472.91476,41,77,0
472.946,473.03976,53,77,0
473.071,473.16476,43,77,0
473.196,473.28976,55,77,0
473.321,473.41476,44,77,0
473.446,473.53976,56,77,0
473.571,473.66476,43,77,0
473.696,473.78976,55,77,0
473.821,473.91476,41,77,0
473.946,474.03976,53,77,0
474.071,474.16476,39,77,0
474.196,474.28976,51,77,0
474.321,474.41476,38,77,0
474.446,474.53976,50,77,0
474.571,474.66476,36,77,0
474.696,474.78976,48,77,0
474.821,474.91476,35,77,0
474.946,475.03976,47,77,0
475.071,475.16476,38,77,0
475.196,475.28976,50,77,0
475.321,475.41476,41,78,0
475.446,475.53976,53,79,0
475.571,475.66476,43,79,0
475.696,475.78976,55,80,0
475.821,475.91476,44,80,0
475.946,476.03976,56,80,0
476.071,476.16476,38,81,0
476.196,476.28976,50,81,0
476.321,476.41476,43,82,0
476.446,476.53976,55,83,0
476.571,476.66476,41,83,0
476.696,476.78976,53,83,0
476.821,476.91476,39,84,0
476.946,477.03976,51,84,0
477.071,477.16476,43,85,0
477.196,477.28976,55,85,0
477.321,477.41476,47,86,0
477.446,477.53976,59,86,0
477.571,477.66476,48,86,0
477.696,477.78976,60,87,0
477.821,477.91476,51,88,0
477.946,478.03976,63,88,0
478.071,478.16476,48,89,0
478.196,478.28976,60,89,0
478.321,478.41476,44,89,0
478.446,478.53976,56,86,0
478.571,478.66476,42,83,0
478.696,478.78976,54,80,0
478.821,478.91476,43,77,0
478.946,479.03976,55,77,0
479.071,479.16476,48,77,0
479.196,479.28976,60,77,0
479.321,479.41476,51,77,0
479.446,479.53976,63,77,0
479.571,479.66476,48,77,0
479.696,479.78976,60,77,0
479.821,479.91476,43,77,0
479.946,480.03976,55,77,0
480.071,480.16476,47,77,0
480.196,480.28976,59,77,0
480.321,480.41476,50,77,0
480.446,480.53976,62,77,0
480.571,480.66476,55,77,0
480.696,480.78976,67,77,0
480.821,481.071,51,77,0
481.071,481.321,55,77,0
481.321,481.571,54,78,0
481.571,481.821,55,79,0
481.821,482.06104,53,80,0
482.06104,482.30106,51,81,0
482.30106,482.54105,50,82,0
482.54105,482.78104,48,83,0
482.78104,483.02106,47,84,0
483.02106,483.26105,50,85,0
483.26105,483.50104,53,86,0
483.50104,483.74106,55,86,0
483.74106,483.98105,56,88,0
483.98105,484.22104,50,89,0
484.22104,484.46103,55,89,0
484.46103,484.70105,53,90,0
484.70105,484.94104,51,92,0
484.94104,485.18103,55,92,0
485.18103,485.42105,59,93,0
485.42105,485.66104,60,94,0
485.66104,485.90103,63,95,0
485.90103,486.14105,60,96,0
486.14105,486.38104,56,97,0
486.38104,486.62103,54,98,0
486.62103,486.86105,55,99,0
486.86105,487.10104,51,100,0
487.10104,487.34103,48,101,0
487.34103,487.57648,51,101,0
487.57648,487.80722,55,103,0
487.80722,488.038,54,104,0
488.038,488.26877,55,104,0
488.26877,488.49954,43,105,0
488.49954,488.5688,48,107,0
488.49954,488.5688,60,107,0
488.73032,488.79953,55,107,0
488.73032,488.79953,67,107,0
488.9611,489.0303,51,107,0
488.9611,489.0303,63,107,0
489.19186,489.26108,48,107,0
489.19186,489.26108,60,107,0
489.4226,489.49185,43,107,0
489.4226,489.49185,55,107,0
489.65338,489.72263,48,107,0
489.65338,489.72263,60,107,0
489.88416,489.9534,43,107,0
489.88416,489.9534,55,107,0
490.11493,490.18414,39,107,0
490.11493,490.18414,51,107,0
490.3457,490.41492,36,107,0
490.3457,490.41492,48,107,0
490.57648,490.6457,43,107,0
490.57648,490.6457,55,107,0
490.80722,490.87646,39,107,0
490.80722,490.87646,51,107,0
491.038,491.10724,36,107,0
491.038,491.10724,48,107,0
491.26877,491.338,35,107,0
491.26877,491.338,47,107,0
491.49954,491.56876,38,107,0
491.49954,491.56876,50,107,0
491.73032,491.79953,31,107,0
491.73032,491.79953,43,107,0
491.9611,492.0303,35,107,0
491.9611,492.0303,47,107,0
492.19183,492.26108,36,107,0
492.19183,492.26108,48,107,0
492.4226,492.49185,55,107,0
492.4226,492.49185,67,107,0
492.65338,492.72263,51,107,0
492.65338,492.72263,63,107,0
492.88416,492.95337,48,107,0
492.88416,492.95337,60,107,0
493.11493,493.18414,43,107,0
493.11493,493.18414,55,107,0
493.3457,493.41492,48,107,0
493.3457,493.41492,60,107,0
493.57645,493.6457,43,107,0
493.57645,493.6457,55,107,0
493.80722,493.87646,39,107,0
493.80722,493.87646,51,107,0
494.038,494.10724,36,107,0
494.038,494.10724,48,107,0
494.26877,494.338,43,107,0
494.26877,494.338,55,107,0
494.49954,494.56876,39,107,0
494.49954,494.56876,51,107,0
494.73032,494.79953,36,107,0
494.73032,494.79953,48,107,0
494.96106,495.0303,35,107,0
494.96106,495.0303,47,107,0
495.19183,495.26108,38,107,0
495.19183,495.26108,50,107,0
495.4226,495.49185,31,107,0
495.4226,495.49185,43,107,0
495.65338,495.72263,35,107,0
495.65338,495.72263,47,107,0
495.88416,495.95337,36,107,0
495.88416,495.95337,48,107,0
496.11493,496.18414,43,107,0
496.11493,496.18414,55,107,0
496.3457,496.41492,39,107,0
496.3457,496.41492,51,107,0
496.57645,496.6457,36,107,0
496.57645,496.6457,48,107,0
496.8118,496.8838,35,107,0
496.8118,496.8838,47,107,0
497.0518,497.1238,38,107,0
497.0518,497.1238,50,107,0
497.2918,497.3638,31,107,0
497.2918,497.3638,43,107,0
497.5318,497.6038,35,107,0
497.5318,497.6038,47,107,0
497.7718,497.8078,36,122,0
497.8918,497.9278,48,122,0
498.0118,498.0478,43,122,0
498.1318,498.16782,55,122,0
498.2518,498.2878,39,122,0
498.3718,498.4078,51,122,0
498.4918,498.52927,36,122,0
498.61676,498.65427,48,122,0
498.74176,498.77927,35,122,0
498.86676,498.90427,47,122,0
498.99176,499.02927,38,122,0
499.11676,499.15427,50,122,0
499.24176,499.27927,31,122,0
499.36676,499.40427,43,122,0
499.49176,499.52927,35,122,0
499.61676,499.65427,47,122,0
499.74176,499.9053,36,122,0
499.74176,499.9053,48,122,0
500.83258,501.01245,36,122,0
500.83258,501.01245,39,122,0
500.83258,501.01245,43,122,0
500.83258,501.01245,48,122,0
502.03247,502.21246,36,122,0
502.03247,502.21246,39,122,0
502.03247,502.21246,43,122,0
502.03247,502.21246,48,122,0
3.0,4.5,67,69,0
4.5,4.625,63,69,0
4.625,4.75,65,69,0
4.75,4.875,67,69,0
4.875,5.0,63,69,0
5.0,5.15,60,69,0
7.0,8.5,72,69,0
8.5,8.625,68,69,0
8.625,8.75,70,69,0
8.75,8.875,72,69,0
8.875,9.0,68,69,0
9.0,9.15,65,69,0
11.0,12.25,65,69,0
12.25,12.5,63,69,0
12.5,12.575,62,69,0
12.75,12.825,60,69,0
13.0,13.5,59,69,0
13.5,14.0,58,73,0
14.0,14.54536,57,77,0
14.54536,15.090814,56,80,0
15.090814,16.290699,55,69,0
16.290699,17.623892,48,69,0
16.290699,17.623892,51,69,0
16.290699,17.623892,55,69,0
17.623892,20.623718,47,69,0
17.623892,20.623718,50,69,0
17.623892,20.623718,55,69,0
20.623718,20.74924,48,77,0
20.74924,20.87424,51,77,0
20.87424,20.99924,55,77,0
20.99924,21.12424,51,77,0
21.12424,21.24924,48,77,0
21.24924,21.37424,51,77,0
21.37424,21.49924,55,77,0
21.49924,21.62424,51,77,0
21.62424,21.74924,48,77,0
21.74924,21.87424,51,77,0
21.87424,21.99924,55,77,0
21.99924,22.12424,51,77,0
22.12424,22.24924,48,77,0
22.24924,22.37424,51,77,0
22.37424,22.49924,55,77,0
22.49924,22.62424,51,77,0
22.62424,24.62424,48,77,0
22.62424,24.62424,52,77,0
22.62424,24.62424,55,77,0
24.62424,24.74924,48,77,0
24.74924,24.87424,53,77,0
24.87424,24.99924,56,77,0
24.99924,25.12424,53,77,0
25.12424,25.24924,48,77,0
25.24924,25.37424,53,77,0
25.37424,25.49924,56,77,0
25.49924,25.62424,53,77,0
25.62424,25.74924,48,77,0
25.74924,25.87424,53,77,0
25.87424,25.99924,56,77,0
25.99924,26.12424,53,77,0
26.12424,26.24924,48,77,0
26.24924,26.37424,53,77,0
26.37424,26.49924,56,77,0
26.49924,26.62424,53,77,0
26.62424,28.62424,48,77,0
26.62424,28.62424,53,77,0
26.62424,28.62424,56,77,0
28.74924,28.87424,50,77,0
28.87424,28.99924,53,77,0
28.99924,29.12424,56,77,0
29.12424,29.24924,59,78,0
29.24924,29.37424,62,79,0
29.37424,29.49924,65,79,0
29.49924,29.62424,68,80,0
29.62424,29.74924,71,80,0
29.74924,29.87424,68,80,0
29.87424,29.99924,65,81,0
29.99924,30.12424,62,81,0
30.12424,30.24924,59,82,0
30.24924,30.37424,56,83,0
30.37424,30.49924,53,83,0
30.49924,30.62424,50,83,0
30.74924,30.87424,51,84,0
30.87424,30.99924,55,85,0
30.99924,31.12424,60,85,0
31.12424,31.24924,63,86,0
31.24924,31.37424,67,86,0
31.37424,31.49924,72,86,0
31.49924,31.62424,67,87,0
31.62424,31.74924,72,88,0
31.74924,31.87424,67,88,0
31.87424,31.99924,63,89,0
31.99924,32.12424,60,89,0
32.12424,32.24924,55,89,0
32.24924,32.37424,60,90,0
32.37424,32.49924,55,90,0
32.49924,32.62424,51,91,0
32.87424,32.99924,51,103,0
32.99924,33.12424,55,101,0
33.12424,33.24924,60,99,0
33.24924,33.37424,55,97,0
33.37424,33.49924,51,95,0
33.49924,33.62424,55,93,0
33.87424,33.99924,50,88,0
33.99924,34.12424,55,86,0
34.12424,34.24924,59,84,0
34.24924,34.37424,55,82,0
34.37424,34.49924,50,80,0
34.49924,34.62424,55,78,0
34.62424,34.77424,51,77,0
35.24924,35.37424,51,78,0
35.37424,35.49924,55,78,0
35.49924,35.62424,60,78,0
35.62424,35.66174,63,79,0
35.74924,35.87424,63,79,0
35.87424,35.99924,67,80,0
35.99924,36.12424,72,80,0
36.12424,36.24924,75,80,0
36.24924,36.37424,72,80,0
36.37424,36.49924,74,80,0
36.49924,36.62424,75,81,0
36.62424,36.780716,77,81,0
37.145935,38.18941,77,98,0
38.18941,38.319847,75,85,0
38.319847,38.450283,74,86,0
38.450283,38.580715,72,86,0
38.580715,38.71115,71,86,0
38.71115,38.867672,79,86,0
39.23289,40.276367,79,104,0
40.276367,40.406803,77,90,0
40.406803,40.53724,75,90,0
40.53724,40.66767,74,91,0
40.66767,40.798107,72,91,0
40.798107,41.888966,72,92,0
41.888966,42.979874,71,84,0
42.979874,43.22997,72,77,0
43.22997,43.47997,73,77,0
43.47997,43.72997,74,79,0
43.72997,43.97997,75,80,0
43.97997,44.22997,76,81,0
44.22997,44.47997,77,83,0
44.47997,44.72997,78,84,0
44.72997,44.97997,79,85,0
44.97997,46.22997,79,86,0
46.22997,46.35497,80,92,0
46.35497,46.47997,79,93,0
46.47997,46.60497,77,94,0
46.60497,46.72997,75,95,0
46.72997,46.85497,74,95,0
46.85497,46.97997,72,95,0
46.97997,47.97997,72,116,0
47.97997,48.0508,71,101,0
48.0508,48.121635,72,101,0
48.121635,48.192467,71,102,0
48.192467,48.2633,72,102,0
48.2633,48.334133,71,103,0
48.334133,48.40497,72,103,0
48.40497,48.4758,71,104,0
48.4758,48.559135,72,104,0
48.559135,48.642467,71,104,0
48.642467,48.7258,72,104,0
48.7258,48.809135,71,105,0
48.809135,48.892467,69,105,0
48.892467,48.9758,71,106,0
48.97997,49.129967,60,122,0
48.97997,49.129967,63,122,0
48.97997,49.129967,67,122,0
48.97997,49.129967,72,122,0
49.97997,50.129967,62,122,0
49.97997,50.129967,67,122,0
49.97997,50.129967,71,122,0
49.97997,50.129967,74,122,0
50.97997,51.129967,63,122,0
50.97997,51.129967,67,122,0
50.97997,51.129967,72,122,0
50.97997,51.129967,75,122,0
52.47997,52.60497,77,77,0
52.60497,52.72997,75,77,0
52.72997,52.85497,74,77,0
52.85497,52.97997,72,77,0
52.97997,53.47997,72,77,0
53.47997,54.35497,71,77,0
54.35497,54.47997,72,77,0
54.47997,54.55497,72,77,0
54.55497,54.629967,74,77,0
54.629967,54.704967,72,77,0
54.704967,54.77997,74,77,0
54.77997,54.85497,72,77,0
54.85497,54.91747,71,77,0
54.91747,54.97997,72,77,0
54.97997,55.525326,72,77,0
54.97997,55.525326,72,77,0
55.525326,56.07078,69,77,0
54.97997,56.07078,76,77,0
56.07078,56.616234,71,77,0
56.07078,56.616234,74,77,0
58.11633,58.26633,34,122,0
58.11633,58.26633,38,122,0
58.11633,58.26633,41,122,0
58.11633,58.26633,46,122,0
58.11633,58.26633,62,122,0
58.11633,58.26633,65,122,0
58.11633,58.26633,68,122,0
58.11633,58.26633,70,122,0
58.11633,58.26633,74,122,0
59.34718,59.462563,58,122,0
59.462563,59.57795,60,122,0
59.57795,59.64718,62,122,0
59.808716,59.87795,63,122,0
60.039486,60.108715,65,77,0
60.270256,60.339485,67,77,0
60.501022,60.570255,68,77,0
60.731792,60.801025,65,77,0
60.962563,61.03179,67,77,0
61.193333,61.26256,70,77,0
61.4241,61.493332,67,77,0
61.65487,61.7241,63,77,0
61.88564,61.95487,62,77,0
62.116405,62.18564,65,77,0
62.347176,62.41641,62,77,0
62.577946,62.647175,58,77,0
62.808716,62.877945,63,77,0
63.039482,63.108715,58,77,0
63.270252,63.33948,60,77,0
63.501022,63.57025,62,77,0
63.73179,63.80102,63,77,0
63.96256,64.03179,65,77,0
64.19333,64.26256,63,77,0
64.424095,64.493324,61,77,0
64.65487,64.7241,60,77,0
64.885635,64.954865,63,77,0
65.1164,65.18564,60,77,0
65.347176,65.416405,58,77,0
65.57794,65.64717,56,77,0
65.80871,65.877945,60,77,0
66.03948,66.10871,56,77,0
66.27025,66.33948,57,77,0
66.501015,66.57025,58,77,0
66.73179,66.80102,57,77,0
66.962555,67.031784,58,77,0
67.19333,67.26256,57,77,0
67.424095,67.493324,58,77,0
67.65486,67.72409,57,77,0
67.885635,67.954865,58,77,0
68.1164,68.18563,60,77,0
68.34717,68.4164,62,77,0
68.57794,68.64717,58,77,0
68.80871,68.87794,62,77,0
69.039474,69.10871,63,77,0
69.27025,69.33948,65,77,0
69.501015,69.570244,67,77,0
69.73178,69.80102,68,77,0
69.962555,70.031784,65,77,0
70.19332,70.26255,67,77,0
70.42409,70.493324,70,77,0
70.65486,70.72409,75,77,0
70.88563,70.95486,79,77,0
71.1164,71.18563,82,77,0
71.34717,71.4164,79,77,0
71.577934,71.64716,80,77,0
71.80871,71.87794,84,77,0
72.039474,72.1087,79,77,0
72.27024,72.33948,82,77,0
72.501015,72.570244,79,77,0
72.73178,72.80101,75,77,0
72.96255,73.031784,74,77,0
73.19332,73.26255,80,77,0
73.42409,73.49332,77,77,0
73.654854,73.72409,74,77,0
73.88563,73.95486,75,77,0
74.116394,74.18562,70,77,0
74.34716,74.4164,67,77,0
74.577934,74.64716,63,77,0
74.8087,74.87793,58,77,0
75.039474,75.1087,63,77,0
75.27024,75.33947,56,77,0
75.50101,75.57024,62,77,0
75.73178,75.79997,55,77,0
75.95907,76.027245,67,77,0
76.18634,76.25452,65,77,0
76.41361,76.48179,63,77,0
76.640884,76.70757,62,77,0
76.86313,76.929794,68,77,0
77.08535,77.152016,65,77,0
77.30757,77.37424,62,77,0
77.52979,77.59646,63,77,0
77.752014,77.81868,67,77,0
77.974236,78.0409,70,77,0
78.19646,78.26312,68,77,0
78.41868,78.485344,67,77,0
78.6409,78.707565,65,77,0
78.86312,78.92979,63,77,0
79.08534,79.152016,61,77,0
79.30757,79.36312,61,77,0
79.36312,79.413124,60,77,0
79.52979,79.59646,59,77,0
79.752014,79.81868,60,77,0
79.974236,80.0409,64,77,0
80.19646,80.252014,67,77,0
80.252014,80.30201,65,77,0
80.41868,80.485344,63,77,0
80.6409,80.707565,65,77,0
80.86312,80.92979,67,77,0
81.08534,81.15201,68,77,0
81.30756,81.37423,67,77,0
81.529785,81.59645,68,77,0
81.75201,81.81868,67,77,0
81.974236,82.0409,68,77,0
82.19646,82.26312,67,77,0
82.41868,82.485344,65,77,0
82.6409,82.707565,63,77,0
82.86312,82.92979,62,77,0
83.08534,83.15201,63,77,0
83.30756,83.37423,65,77,0
83.529785,83.59645,63,77,0
83.75201,83.81867,62,78,0
83.97423,84.04089,60,79,0
84.19645,84.263115,58,79,0
84.41867,84.485344,56,80,0
84.64089,84.707565,55,80,0
84.86312,84.92979,58,80,0
85.08534,85.15201,63,81,0
85.30756,85.37423,67,81,0
85.529785,85.59645,70,82,0
85.75201,85.81867,67,83,0
85.97423,86.04089,68,83,0
86.19645,86.263115,72,83,0
86.41867,86.48534,63,77,0
86.41867,86.48534,67,77,0
86.64089,86.70756,58,77,0
86.86311,86.92978,63,77,0
86.86311,86.92978,67,77,0
87.085335,87.15201,58,77,0
87.307556,87.37423,65,77,0
87.307556,87.37423,68,77,0
87.529785,87.59645,58,77,0
87.75201,87.81867,65,77,0
87.75201,87.81867,68,77,0
87.97423,88.04089,58,77,0
88.19645,88.263115,54,77,0
88.41867,88.48534,58,77,0
88.64089,88.70756,63,79,0
88.86311,88.92978,66,80,0
89.085335,89.152,70,81,0
89.307556,89.37422,63,83,0
89.307556,89.37422,66,83,0
89.52978,89.59644,63,84,0
89.52978,89.59644,66,84,0
89.752,89.818665,63,85,0
89.752,89.818665,66,85,0
89.97422,90.04089,63,86,0
89.97422,90.04089,66,86,0
90.19645,90.263115,60,88,0
90.41867,90.48534,63,89,0
90.41867,90.48534,66,89,0
90.64089,90.70756,60,90,0
90.86311,90.92978,63,92,0
90.86311,90.92978,66,92,0
91.085335,91.152,60,88,0
91.307556,91.37422,63,84,0
91.307556,91.37422,66,84,0
91.52978,91.59644,60,80,0
91.752,91.86311,62,77,0
91.752,91.86311,65,77,0
91.86311,91.97422,58,77,0
91.97422,92.085335,60,77,0
92.085335,92.19644,62,77,0
92.19644,92.307556,63,77,0
92.307556,92.41866,65,77,0
92.41866,92.52978,67,77,0
92.52978,92.640884,69,77,0
92.640884,92.752,70,77,0
92.752,92.86311,72,77,0
92.86311,92.97422,74,77,0
92.97422,93.085335,75,77,0
93.085335,93.19644,77,77,0
93.19644,93.307556,79,77,0
93.307556,93.41866,81,77,0
93.41866,93.52978,82,77,0
93.52978,93.66311,84,77,0
93.97422,94.10755,60,78,0
94.41866,95.30755,84,95,0
95.30755,95.41866,82,84,0
95.41866,95.52978,62,84,0
95.52978,95.640884,63,85,0
95.640884,95.752,65,85,0
95.752,95.863106,67,86,0
95.863106,95.97422,68,86,0
95.97422,96.08533,70,86,0
96.08533,96.19644,72,87,0
96.19644,96.30755,74,88,0
96.30755,96.41866,75,88,0
96.41866,96.52977,77,89,0
96.52977,96.640884,79,89,0
96.640884,96.75199,80,89,0
96.75199,96.863106,82,90,0
96.863106,96.97422,84,90,0
96.97422,97.08533,86,91,0
97.08533,97.21866,87,92,0
97.52977,97.6631,63,93,0
97.97421,98.863106,87,114,0
98.863106,98.97421,89,119,0
98.97421,99.08533,87,99,0
99.08533,99.196434,86,100,0
99.196434,99.30755,87,100,0
99.30755,99.418655,89,101,0
99.418655,99.52977,88,101,0
99.52977,99.640884,89,101,0
99.640884,99.75199,88,102,0
99.75199,99.863106,89,124,0
99.863106,99.97421,87,103,0
99.97421,100.08533,86,104,0
100.08533,100.196434,87,104,0
100.196434,100.30755,89,104,0
100.30755,100.418655,88,105,0
100.418655,100.52977,89,105,0
100.52977,100.64088,88,106,0
100.64088,100.75199,89,107,0
100.75199,100.8631,87,107,0
100.8631,100.97421,86,107,0
100.97421,101.08533,87,107,0
101.08533,101.196434,86,107,0
101.196434,101.30755,84,107,0
101.30755,101.418655,82,107,0
101.418655,101.52977,84,107,0
101.52977,101.64088,82,107,0
101.64088,101.75199,80,107,0
101.75199,101.8631,79,107,0
101.8631,101.97421,80,107,0
101.97421,102.08532,79,107,0
102.08532,102.196434,77,107,0
102.196434,102.30755,75,107,0
102.30755,102.418655,77,107,0
102.418655,102.487854,75,107,0
102.64939,102.995544,70,77,0
103.11092,103.45708,70,77,0
103.572464,103.91862,70,77,0
104.034004,104.14939,72,77,0
104.14939,104.26477,74,77,0
104.26477,104.334,75,77,0
104.495544,104.95708,70,77,0
104.95708,105.072464,72,77,0
105.072464,105.18785,74,77,0
105.18785,105.25708,75,77,0
105.41862,105.88016,82,77,0
105.88016,105.99554,84,77,0
105.99554,106.11092,86,77,0
106.11092,106.18015,87,77,0
106.34169,106.68784,70,77,0
106.80323,107.14938,70,77,0
107.26477,107.61092,70,77,0
107.72631,107.84169,72,77,0
107.84169,107.95708,74,77,0
107.95708,108.026306,75,77,0
108.18784,108.64938,72,77,0
108.64938,108.76477,74,80,0
108.76477,108.88015,76,82,0
108.88015,108.94939,77,83,0
109.11092,109.57246,75,85,0
109.57246,109.68784,77,89,0
109.68784,109.80323,79,90,0
109.80323,109.87246,80,92,0
110.034,110.49554,82,93,0
110.49554,110.610916,84,98,0
110.610916,110.7263,86,99,0
110.7263,110.79553,87,100,0
110.95707,111.41861,82,102,0
111.41861,111.534,84,107,0
111.534,111.64938,86,107,0
111.64938,111.684,87,107,0
111.76476,111.88015,82,107,0
111.88015,111.99554,84,107,0
111.99554,112.110916,86,107,0
112.110916,112.14553,87,107,0
112.2263,112.34169,82,107,0
112.34169,112.45707,84,107,0
112.45707,112.57246,86,107,0
112.57246,112.60707,87,107,0
112.68784,112.80322,82,107,0
112.80322,112.91861,84,107,0
112.91861,113.034,86,107,0
113.034,113.06861,87,107,0
113.149376,113.26476,82,107,0
113.26476,113.38015,84,107,0
113.38015,113.49553,86,107,0
113.49553,114.449905,87,122,0
114.449905,114.586266,63,122,0
114.586266,114.660126,63,122,0
114.660126,114.73399,65,122,0
114.73399,114.80785,63,122,0
114.80785,114.88172,65,122,0
114.88172,114.95558,63,122,0
114.95558,115.02945,65,122,0
115.02945,115.10331,63,122,0
115.10331,115.17718,65,122,0
115.17718,115.25104,63,122,0
115.25104,115.3249,65,122,0
115.3249,115.398766,63,122,0
115.40445,115.54081,62,122,0
115.54081,115.67717,63,122,0
115.67717,117.04081,84,127,0
117.04081,117.1659,87,115,0
117.1659,117.2909,86,114,0
117.2909,117.4159,89,114,0
117.4159,117.5409,87,113,0
117.5409,117.6659,86,113,0
117.6659,117.7909,84,112,0
117.7909,118.2909,84,111,0
118.2909,119.0409,82,109,0
119.0409,119.2284,87,105,0
119.2909,119.5409,87,104,0
119.5409,119.7284,79,103,0
119.7909,120.0409,79,101,0
120.0409,120.2284,82,100,0
120.2909,120.5409,82,99,0
120.5409,120.7284,75,98,0
120.7909,120.8534,75,96,0
120.8534,120.9159,77,96,0
120.9159,120.9784,75,95,0
120.9784,121.0409,77,95,0
121.0409,121.1034,75,95,0
121.1034,121.1659,77,95,0
121.1659,121.2284,75,95,0
121.2284,121.2909,77,94,0
121.2909,121.6659,79,94,0
121.6659,121.7909,77,92,0
121.7909,121.97095,75,77,0
122.030945,122.15095,79,77,0
122.15095,122.27094,77,77,0
122.27094,122.36095,75,77,0
122.390945,122.48094,74,77,0
122.51095,122.600945,72,77,0
122.63094,122.72095,70,77,0
122.750946,122.84094,68,77,0
122.87094,122.960945,67,77,0
122.990944,123.08095,65,77,0
123.11095,123.20094,63,77,0
123.23094,123.320946,62,77,0
123.350945,123.44094,60,77,0
123.47095,123.56094,58,77,0
123.59094,123.68095,56,77,0
123.710945,123.80094,55,77,0
123.83095,123.920944,58,77,0
123.95094,124.04095,63,77,0
124.070946,124.16094,67,77,0
124.19094,124.31094,68,89,0
124.31094,124.40095,65,77,0
124.43095,124.46694,62,77,0
124.55094,124.586945,56,77,0
124.670944,124.76095,55,77,0
124.79095,124.88094,58,77,0
124.91094,125.000946,63,77,0
125.030945,125.12094,67,77,0
125.15095,125.27094,68,89,0
125.27094,125.36095,65,77,0
125.390945,125.42694,62,77,0
125.51095,125.54694,56,77,0
125.63094,125.70021,55,77,0
125.861755,125.94829,79,77,0
125.977135,126.063675,77,77,0
126.09252,126.17906,75,78,0
126.20791,126.29444,74,79,0
126.32329,126.40983,72,80,0
126.438675,126.525215,70,81,0
126.55406,126.640594,68,82,0
126.66944,126.75598,67,83,0
126.78483,126.87137,65,84,0
126.900215,126.98675,63,85,0
127.015594,127.102135,62,86,0
127.13098,127.21752,60,86,0
127.24637,127.3329,58,88,0
127.36175,127.44829,56,89,0
127.477135,127.546364,55,89,0
127.7079,127.79444,67,92,0
127.82329,127.90983,68,92,0
127.938675,128.05406,70,93,0
128.05406,128.1406,67,94,0
128.16945,128.20406,64,95,0
128.28482,128.31944,58,96,0
128.4002,128.46944,56,97,0
128.63098,128.71751,70,99,0
128.74637,128.8329,72,100,0
128.86176,128.97713,73,101,0
128.97713,129.06367,70,101,0
129.09251,129.12714,67,103,0
129.2079,129.24252,61,104,0
129.32329,129.39252,60,104,0
129.55406,129.6406,77,107,0
129.66943,129.75598,79,107,0
129.78482,129.9002,80,107,0
129.9002,129.98676,77,107,0
130.0156,130.05022,74,107,0
130.13098,130.16559,68,107,0
130.24637,130.3329,67,107,0
130.36174,130.44829,75,107,0
130.47713,130.56367,77,107,0
130.59251,130.67906,79,107,0
130.7079,130.82329,80,107,0
130.82329,130.90982,77,107,0
130.93867,130.97328,74,107,0
131.05406,131.08867,68,107,0
131.16943,131.20406,67,107,0
131.28482,131.37137,79,107,0
131.4002,131.5156,80,107,0
131.5156,131.63098,77,107,0
131.63098,131.66559,79,107,0
131.74637,131.86174,79,107,0
131.86174,131.97713,80,107,0
131.97713,132.09251,77,107,0
132.09251,132.12714,79,107,0
132.2079,132.32329,79,107,0
132.32329,132.43867,80,107,0
132.43867,132.55405,77,107,0
132.55405,132.58867,79,107,0
132.66943,132.78482,79,107,0
132.78482,132.9002,80,107,0
132.9002,133.0156,77,107,0
133.0156,133.51552,82,122,0
135.13556,135.25555,60,122,0
135.25555,135.37555,61,122,0
135.37555,135.49556,63,122,0
135.49556,135.61555,65,122,0
135.61555,135.73555,67,122,0
135.73555,135.85555,68,122,0
135.85555,135.97556,70,122,0
135.97556,136.09555,72,122,0
136.09555,136.21555,73,122,0
136.21555,136.33556,75,122,0
136.33556,136.45555,77,122,0
136.45555,136.57555,79,122,0
136.57555,136.69556,80,122,0
136.69556,136.81555,82,122,0
136.81555,136.93555,84,122,0
136.93555,137.43552,68,122,0
139.05556,139.17555,70,122,0
139.17555,139.29555,72,122,0
139.29555,139.41556,74,122,0
139.41556,139.53555,75,122,0
139.53555,139.65555,77,122,0
139.65555,139.77556,79,122,0
139.77556,139.89555,80,122,0
139.89555,140.01555,82,122,0
140.01555,140.13556,84,122,0
140.13556,140.25555,86,122,0
140.25555,140.37555,87,122,0
140.37555,140.5005,89,122,0
140.5005,140.6255,86,122,0
140.6255,140.7505,82,122,0
140.7505,140.8755,80,122,0
140.8755,141.42087,79,122,0
141.42087,141.5845,67,122,0
141.42087,141.5845,70,122,0
141.42087,141.5845,75,122,0
141.42087,141.5845,79,122,0
142.51178,142.67542,72,122,0
142.51178,142.67542,75,122,0
142.51178,142.67542,80,122,0
142.51178,142.67542,84,122,0
143.60269,143.76633,70,122,0
143.60269,143.76633,75,122,0
143.60269,143.76633,79,122,0
143.60269,143.76633,82,122,0
145.83893,146.01894,62,122,0
145.83893,146.01894,65,122,0
145.83893,146.01894,68,122,0
145.83893,146.01894,70,122,0
145.83893,146.01894,74,122,0
147.63893,147.76414,55,55,0
147.76414,147.88914,58,55,0
147.88914,148.01414,63,55,0
148.01414,148.13914,58,55,0
148.13914,148.26414,55,55,0
148.26414,148.38914,58,55,0
148.38914,148.51414,63,55,0
148.51414,148.63914,58,55,0
148.63914,148.76414,55,55,0
148.76414,148.88914,58,55,0
148.88914,149.01414,63,55,0
149.01414,149.13914,58,55,0
149.13914,149.26414,55,55,0
149.26414,149.38914,58,55,0
149.38914,149.51414,63,55,0
149.51414,149.63914,58,55,0
149.63914,149.76414,55,55,0
149.76414,149.88914,58,55,0
149.88914,150.01414,63,55,0
150.01414,150.13914,58,55,0
150.13914,150.26414,55,55,0
150.26414,150.38914,58,55,0
150.38914,150.51414,63,55,0
150.51414,150.63914,58,55,0
150.63914,150.76414,55,55,0
150.76414,150.88914,58,55,0
150.88914,151.01414,63,55,0
151.01414,151.13914,58,55,0
151.13914,151.26414,55,55,0
151.26414,151.38914,58,55,0
151.38914,151.51414,63,55,0
151.51414,151.63914,58,55,0
151.63914,151.76414,53,55,0
151.76414,151.88914,56,55,0
151.88914,152.01414,63,55,0
152.01414,152.13914,56,55,0
152.13914,152.26414,53,55,0
152.26414,152.38914,56,55,0
152.38914,152.51414,62,55,0
152.51414,152.63914,56,55,0
152.63914,152.76414,53,55,0
152.76414,152.88914,56,55,0
152.88914,153.01414,62,55,0
153.01414,153.13914,56,55,0
153.13914,153.26414,53,55,0
153.26414,153.38914,56,55,0
153.38914,153.51414,62,55,0
153.51414,153.63914,56,55,0
153.63914,153.76414,53,55,0
153.76414,153.88914,56,55,0
153.88914,154.01414,62,55,0
154.01414,154.13914,56,55,0
154.13914,154.26414,53,55,0
154.26414,154.38914,56,55,0
154.38914,154.51414,62,55,0
154.51414,154.63914,56,55,0
154.63914,154.76414,53,55,0
154.76414,154.88914,56,55,0
154.88914,155.01414,62,55,0
155.01414,155.13914,56,55,0
155.13914,155.26414,53,55,0
155.26414,155.38914,56,55,0
155.38914,155.51414,62,55,0
155.51414,155.63914,56,55,0
155.63914,155.76414,54,55,0
155.76414,155.88914,58,55,0
155.88914,156.01414,63,55,0
156.01414,156.13914,58,55,0
156.13914,156.26414,54,55,0
156.26414,156.38914,58,55,0
156.38914,156.51414,63,55,0
156.51414,156.63914,58,55,0
156.63914,156.76414,54,55,0
156.76414,156.88914,58,55,0
156.88914,157.01414,63,55,0
157.01414,157.13914,58,55,0
157.13914,157.26414,54,55,0
157.26414,157.38914,58,55,0
157.38914,157.51414,63,55,0
157.51414,157.63914,58,55,0
157.63914,157.76414,54,55,0
157.76414,157.88914,58,55,0
157.88914,158.01414,63,55,0
158.01414,158.13914,58,55,0
158.13914,158.26414,54,55,0
158.26414,158.38914,58,55,0
158.26414,158.38914,63,55,0
158.38914,158.51414,66,55,0
158.51414,158.63914,58,55,0
158.51414,158.63914,63,55,0
158.63914,158.76414,54,55,0
158.76414,158.88914,58,55,0
158.76414,158.88914,63,55,0
158.88914,159.01414,66,55,0
159.01414,159.13914,58,55,0
159.01414,159.13914,63,55,0
159.13914,159.26414,54,55,0
159.26414,159.38914,58,55,0
159.26414,159.38914,63,55,0
159.38914,159.51414,66,55,0
159.51414,159.63914,58,55,0
159.51414,159.63914,63,55,0
159.63914,159.76414,54,55,0
159.76414,159.88914,59,55,0
159.76414,159.88914,63,55,0
159.88914,160.01414,66,55,0
160.01414,160.13914,59,55,0
160.01414,160.13914,63,55,0
160.13914,160.26414,54,55,0
160.26414,160.38914,59,55,0
160.26414,160.38914,63,55,0
160.38914,160.51414,66,55,0
160.51414,160.63914,59,55,0
160.51414,160.63914,63,55,0
160.63914,160.76414,54,55,0
160.76414,160.88914,59,55,0
160.76414,160.88914,63,55,0
160.88914,161.01414,66,55,0
161.01414,161.13914,59,55,0
161.01414,161.13914,63,55,0
161.13914,161.26414,54,55,0
161.26414,161.38914,59,55,0
161.26414,161.38914,63,55,0
161.38914,161.51414,66,55,0
161.51414,161.63914,59,55,0
161.51414,161.63914,63,55,0
161.63914,161.76414,54,55,0
161.76414,161.88914,59,55,0
161.76414,161.88914,63,55,0
161.88914,162.01414,66,55,0
162.01414,162.13914,59,55,0
162.01414,162.13914,63,55,0
162.13914,162.26414,54,55,0
162.26414,162.38914,59,55,0
162.26414,162.38914,63,55,0
162.38914,162.51414,66,55,0
162.51414,162.63914,59,55,0
162.51414,162.63914,63,55,0
162.63914,162.76414,54,55,0
162.76414,162.88914,59,55,0
162.76414,162.88914,63,55,0
162.88914,163.01414,66,55,0
163.01414,163.13914,59,55,0
163.01414,163.13914,63,55,0
163.13914,163.26414,54,55,0
163.26414,163.38914,59,55,0
163.26414,163.38914,63,55,0
163.38914,163.51414,66,55,0
163.51414,163.63914,59,55,0
163.51414,163.63914,63,55,0
163.63914,163.76414,55,55,0
163.76414,163.88914,59,55,0
163.76414,163.88914,61,55,0
163.88914,164.01414,64,55,0
164.01414,164.13914,59,55,0
164.01414,164.13914,61,55,0
164.13914,164.26414,55,55,0
164.26414,164.38914,58,55,0
164.26414,164.38914,61,55,0
164.38914,164.51414,64,55,0
164.51414,164.63914,58,55,0
164.51414,164.63914,61,55,0
164.63914,164.76414,55,55,0
164.76414,164.88914,58,55,0
164.76414,164.88914,61,55,0
164.88914,165.01414,64,55,0
165.01414,165.13914,58,55,0
165.01414,165.13914,61,55,0
165.13914,165.26414,55,55,0
165.26414,165.38914,58,55,0
165.26414,165.38914,61,55,0
165.38914,165.51414,64,55,0
165.51414,165.63914,58,55,0
165.51414,165.63914,61,55,0
165.63914,165.76414,55,55,0
165.76414,165.88914,58,55,0
165.76414,165.88914,61,55,0
165.88914,166.01414,64,55,0
166.01414,166.13914,58,55,0
166.01414,166.13914,61,55,0
166.13914,166.26414,55,55,0
166.26414,166.38914,58,55,0
166.26414,166.38914,61,55,0
166.38914,166.51414,64,55,0
166.51414,166.63914,58,55,0
166.51414,166.63914,61,55,0
166.63914,166.76414,54,55,0
166.76414,166.88914,58,55,0
166.76414,166.88914,61,55,0
166.88914,167.01414,64,55,0
167.01414,167.13914,58,55,0
167.01414,167.13914,61,55,0
167.13914,167.26414,54,55,0
167.26414,167.38914,58,55,0
167.26414,167.38914,61,55,0
167.38914,167.51414,64,55,0
167.51414,167.63914,58,55,0
167.51414,167.63914,61,55,0
167.63914,167.76414,54,55,0
167.76414,167.88914,59,55,0
167.88914,168.01414,62,55,0
168.01414,168.13914,59,55,0
168.13914,168.26414,54,55,0
168.26414,168.38914,59,55,0
168.38914,168.51414,62,55,0
168.51414,168.63914,59,55,0
168.63914,168.76414,54,55,0
168.76414,168.88914,59,55,0
168.88914,169.01414,62,55,0
169.01414,169.13914,59,55,0
169.13914,169.26414,54,55,0
169.26414,169.38914,59,55,0
169.38914,169.51414,62,55,0
169.51414,169.63914,59,55,0
169.63914,169.76414,54,55,0
169.76414,169.88914,59,55,0
169.88914,170.01414,62,55,0
170.01414,170.13914,59,55,0
170.13914,170.26414,54,55,0
170.26414,170.38914,59,55,0
170.38914,170.51414,62,55,0
170.51414,170.63914,59,55,0
170.63914,170.76414,54,55,0
170.76414,170.88914,59,55,0
170.88914,171.01414,62,55,0
171.01414,171.13914,59,55,0
171.13914,171.26414,54,55,0
171.26414,171.38914,59,55,0
171.38914,171.51414,62,55,0
171.51414,171.63914,59,55,0
171.63914,171.76414,55,55,0
171.76414,171.88914,59,55,0
171.88914,172.01414,62,55,0
172.01414,172.13914,59,55,0
172.13914,172.26414,55,55,0
172.26414,172.38914,59,55,0
172.38914,172.51414,62,55,0
172.51414,172.63914,59,55,0
172.63914,172.76414,55,55,0
172.76414,172.88914,59,55,0
172.88914,173.01414,62,55,0
173.01414,173.13914,59,55,0
173.13914,173.26414,55,55,0
173.26414,173.38914,59,55,0
173.38914,173.51414,62,55,0
173.51414,173.63914,59,55,0
173.63914,173.76414,55,55,0
173.76414,173.88914,59,55,0
173.88914,174.01414,62,55,0
174.01414,174.13914,59,55,0
174.13914,174.26414,55,55,0
174.26414,174.38914,59,55,0
174.38914,174.51414,62,55,0
174.51414,174.63914,59,55,0
174.63914,174.76414,55,55,0
174.76414,174.88914,59,55,0
174.88914,175.01414,62,55,0
175.01414,175.13914,59,55,0
175.13914,175.26414,55,55,0
175.26414,175.38914,59,55,0
175.38914,175.51414,62,55,0
175.51414,175.63914,59,55,0
175.63914,175.76414,55,55,0
175.76414,175.88914,57,55,0
175.76414,175.88914,60,55,0
175.88914,176.01414,63,55,0
176.01414,176.13914,57,55,0
176.01414,176.13914,60,55,0
176.13914,176.26414,55,55,0
176.26414,176.38914,57,55,0
176.26414,176.38914,60,55,0
176.38914,176.51414,63,55,0
176.51414,176.63914,57,55,0
176.51414,176.63914,60,55,0
176.63914,176.76414,55,55,0
176.76414,176.88914,57,55,0
176.76414,176.88914,60,55,0
176.88914,177.01414,63,55,0
177.01414,177.13914,57,55,0
177.01414,177.13914,60,55,0
177.13914,177.26414,55,55,0
177.26414,177.38914,57,55,0
177.26414,177.38914,60,55,0
177.38914,177.51414,63,55,0
177.51414,177.63914,57,55,0
177.51414,177.63914,60,55,0
177.63914,177.76414,55,55,0
177.76414,177.88914,57,55,0
177.76414,177.88914,60,55,0
177.88914,178.01414,63,55,0
178.01414,178.13914,57,55,0
178.01414,178.13914,60,55,0
178.13914,178.26414,55,55,0
178.26414,178.38914,57,55,0
178.26414,178.38914,60,55,0
178.38914,178.51414,66,55,0
178.51414,178.63914,57,55,0
178.51414,178.63914,60,55,0
178.63914,178.76414,55,55,0
178.76414,178.88914,57,55,0
178.76414,178.88914,60,55,0
178.88914,179.01414,66,55,0
179.01414,179.13914,57,55,0
179.01414,179.13914,60,55,0
179.13914,179.26414,55,55,0
179.26414,179.38914,57,55,0
179.26414,179.38914,60,55,0
179.38914,179.51414,66,55,0
179.51414,179.63914,57,55,0
179.51414,179.63914,60,55,0
179.63914,179.76414,55,55,0
179.76414,179.88914,59,55,0
179.76414,179.88914,62,55,0
179.88914,180.01414,67,55,0
180.01414,180.13914,59,55,0
180.01414,180.13914,62,55,0
180.13914,180.26414,55,55,0
180.26414,180.38914,59,55,0
180.26414,180.38914,62,55,0
180.38914,180.51414,67,55,0
180.51414,180.63914,59,55,0
180.51414,180.63914,62,55,0
180.63914,180.76414,55,55,0
180.76414,180.88914,59,55,0
180.76414,180.88914,62,55,0
180.88914,181.01414,67,55,0
181.01414,181.13914,59,55,0
181.01414,181.13914,62,55,0
181.13914,181.26414,55,55,0
181.26414,181.38914,59,55,0
181.26414,181.38914,62,55,0
181.38914,181.51414,67,55,0
181.51414,181.63914,59,55,0
181.51414,181.63914,62,55,0
181.63914,181.78319,55,69,0
182.11919,182.23918,59,72,0
182.23918,182.35919,60,73,0
182.35919,182.47919,62,74,0
182.47919,182.59918,59,74,0
182.59918,182.74318,55,75,0
183.07918,183.19919,59,78,0
183.19919,183.31918,60,79,0
183.31918,183.43918,62,80,0
183.43918,183.55919,59,80,0
183.55919,183.70319,55,81,0
184.03918,184.15918,59,84,0
184.15918,184.27919,60,85,0
184.27919,184.39919,62,86,0
184.39919,184.51918,59,86,0
184.51918,184.66318,55,88,0
184.99919,185.11919,60,91,0
185.11919,185.23918,62,92,0
185.23918,185.35919,63,92,0
185.35919,185.47919,60,93,0
185.47919,185.62318,55,94,0
185.95918,186.07918,62,97,0
186.07918,186.19919,63,98,0
186.19919,186.31918,65,98,0
186.31918,186.43918,62,99,0
186.43918,186.58319,55,100,0
186.91919,187.03918,63,103,0
187.03918,187.15918,65,104,0
187.15918,187.27919,67,104,0
187.27919,187.39919,63,105,0
187.39919,187.74538,56,107,0
187.39919,187.74538,68,107,0
187.86076,187.9646,68,77,0
188.20691,188.24153,68,77,0
188.3223,188.46075,63,77,0
188.78384,188.88768,63,77,0
189.12999,189.16461,63,77,0
189.24538,190.5146,60,77,0
190.5146,190.54922,56,77,0
190.62999,190.73384,58,77,0
190.97614,191.01076,60,77,0
191.09152,191.14922,63,77,0
191.14922,191.27037,61,77,0
191.55307,191.6569,61,77,0
191.89922,191.93384,60,77,0
192.0146,192.0723,60,77,0
192.0723,192.19345,58,77,0
192.47614,192.57999,58,77,0
192.8223,192.8569,56,77,0
192.93768,192.99538,56,77,0
192.99538,193.11653,55,77,0
193.39922,193.50307,55,77,0
193.74538,193.77998,53,77,0
193.86075,194.03122,51,77,0
194.08804,194.15622,63,80,0
194.3153,194.3835,62,84,0
194.54259,194.61076,61,88,0
194.76987,195.11076,60,77,0
196.58804,196.70168,56,77,0
196.70168,196.8153,68,77,0
196.8153,196.92896,55,77,0
196.92896,197.04259,67,77,0
197.04259,197.15622,56,77,0
197.15622,197.26985,68,77,0
197.26985,197.3835,58,77,0
197.3835,197.49713,70,77,0
197.49713,197.61076,60,77,0
197.61076,197.7244,72,80,0
197.7244,197.83804,58,84,0
197.83804,197.95168,70,88,0
197.95168,198.0653,56,92,0
198.0653,198.17894,68,95,0
198.17894,198.29259,55,99,0
198.29259,198.40622,67,103,0
198.40622,198.85068,53,107,0
198.40622,198.85068,65,107,0
200.18402,200.29512,65,92,0
200.29512,200.40623,77,92,0
200.40623,200.51735,64,92,0
200.51735,200.62846,76,92,0
200.62846,200.73958,65,92,0
200.73958,200.85068,77,92,0
200.85068,200.96179,66,94,0
200.96179,201.0729,78,95,0
201.0729,201.18402,68,96,0
201.18402,201.29512,80,98,0
201.29512,201.40623,66,99,0
201.40623,201.51735,78,100,0
201.51735,201.62846,65,101,0
201.62846,201.73958,77,103,0
201.73958,201.85068,63,104,0
201.85068,201.96179,75,105,0
201.96179,202.40623,61,107,0
201.96179,202.40623,73,107,0
203.73956,203.87291,77,127,0
203.73956,203.87291,89,127,0
204.184,204.28401,77,107,0
204.184,204.28401,89,107,0
204.51735,204.55067,77,107,0
204.51735,204.55067,89,107,0
204.62846,204.7618,72,107,0
204.62846,204.7618,84,107,0
205.0729,205.1729,72,107,0
205.0729,205.1729,84,107,0
205.40623,205.43956,72,107,0
205.40623,205.43956,84,107,0
205.51735,205.65068,73,107,0
205.51735,205.65068,85,107,0
207.29512,207.42845,73,127,0
207.29512,207.42845,85,127,0
207.73956,207.83957,73,107,0
207.73956,207.83957,85,107,0
208.07289,208.10623,73,107,0
208.07289,208.10623,85,107,0
208.184,208.31734,68,107,0
208.184,208.31734,80,107,0
208.62845,208.72845,68,107,0
208.62845,208.72845,80,107,0
208.96179,208.99512,68,107,0
208.96179,208.99512,80,107,0
209.07289,209.13956,70,107,0
209.07289,209.13956,82,107,0
209.41046,209.44508,58,107,0
209.64124,209.67586,61,107,0
209.87201,209.90662,65,107,0
210.10277,210.13739,66,107,0
210.33354,210.36816,70,107,0
210.56432,210.59892,73,107,0
210.79507,210.8297,65,107,0
211.02585,211.06047,64,107,0
211.25662,211.29123,67,107,0
211.4874,211.522,70,107,0
211.71815,211.75278,67,107,0
211.94893,211.98354,64,107,0
212.1797,212.21431,67,107,0
212.41046,212.44508,64,107,0
212.64124,212.67584,60,107,0
212.87201,212.90662,65,107,0
213.10277,213.13739,68,107,0
213.33354,213.36815,72,107,0
213.56432,213.59892,76,107,0
213.79507,213.8297,77,107,0
214.02585,214.06047,79,107,0
214.25662,214.29123,80,107,0
214.48738,214.522,72,107,0
214.71815,214.75278,71,107,0
214.94893,214.98354,74,107,0
215.17969,215.21431,77,107,0
215.41046,215.44508,74,107,0
215.64124,215.67584,71,107,0
215.872,215.90662,74,107,0
216.10277,216.13739,71,107,0
216.33354,216.36815,67,107,0
216.5643,216.59892,60,107,0
216.79507,216.8297,63,107,0
217.02585,217.06046,67,107,0
217.2566,217.29123,71,107,0
217.48738,217.522,72,107,0
217.71815,217.75276,74,107,0
217.94891,217.98354,75,107,0
218.17969,218.21431,71,107,0
218.41046,218.44507,72,107,0
218.64122,218.67584,66,107,0
218.872,218.90662,67,107,0
219.10277,219.13737,62,107,0
219.33354,219.36815,63,107,0
219.5643,219.59892,59,107,0
219.79507,219.82968,60,107,0
220.02585,220.06046,56,77,0
220.14122,220.17584,55,77,0
220.2566,220.29123,56,77,0
220.372,220.40662,55,78,0
220.48738,220.52199,57,79,0
220.60277,220.63737,55,80,0
220.71815,220.75276,58,80,0
220.83353,220.86815,55,80,0
220.94891,220.98354,59,81,0
221.0643,221.09892,55,82,0
221.17969,221.2143,60,83,0
221.29507,221.32968,55,83,0
221.41046,221.44507,61,84,0
221.52583,221.56046,55,84,0
221.64122,221.67584,62,85,0
221.7566,221.79123,55,86,0
221.872,221.90662,63,86,0
221.98738,222.02199,55,87,0
222.10277,222.13737,64,88,0
222.21814,222.25276,55,88,0
222.33353,222.36815,65,89,0
222.44891,222.48354,55,89,0
222.5643,222.59892,68,90,0
222.67969,222.7143,55,91,0
222.79507,222.82968,67,92,0
222.91046,222.94507,55,92,0
223.02583,223.06046,65,89,0
223.14122,223.17584,55,86,0
223.2566,223.29123,63,83,0
223.372,223.4066,55,80,0
223.48738,223.52199,62,77,0
223.60277,223.63737,55,74,0
223.71814,223.75276,60,71,0
223.83353,223.86815,55,69,0
223.94891,223.98354,59,69,0
224.0643,224.0989,62,69,0
224.17969,224.2143,59,69,0
224.29507,224.32968,55,69,0
224.41045,224.44507,59,69,0
224.52583,224.56046,62,69,0
224.64122,224.67584,59,69,0
224.7566,224.79121,55,69,0
224.872,224.9066,59,69,0
224.98738,225.02199,62,69,0
225.10275,225.13737,59,69,0
225.21814,225.25276,55,69,0
225.33353,225.36815,59,69,0
225.44891,225.48354,62,69,0
225.5643,225.5989,59,69,0
225.67969,225.7143,55,69,0
225.79506,225.82968,60,69,0
225.91045,225.94507,63,69,0
226.02583,226.06046,60,69,0
226.14122,226.17584,55,69,0
226.2566,226.29121,60,69,0
226.372,226.4066,63,69,0
226.48738,226.52199,60,69,0
226.60275,226.63737,55,69,0
226.71814,226.75276,60,69,0
226.83353,226.86815,63,69,0
226.94891,226.98352,60,69,0
227.0643,227.0989,55,69,0
227.17969,227.2143,60,69,0
227.29506,227.32968,63,69,0
227.41045,227.44507,60,69,0
227.52583,227.56046,55,69,0
227.64122,227.67583,59,70,0
227.7566,227.79121,55,71,0
227.872,227.9066,57,72,0
227.98737,228.02199,55,74,0
228.10275,228.13737,58,74,0
228.21814,228.25276,55,76,0
228.33353,228.36813,59,77,0
228.44891,228.48352,55,78,0
228.5643,228.5989,60,79,0
228.67967,228.7143,55,80,0
228.79506,228.82968,61,81,0
228.91045,228.94507,55,83,0
229.02583,229.06046,62,83,0
229.14122,229.17583,55,85,0
229.2566,229.29121,63,86,0
229.37198,229.4066,55,87,0
229.48737,229.52199,64,88,0
229.60275,229.63737,55,89,0
229.71814,229.75276,65,90,0
229.83353,229.86813,55,92,0
229.94891,229.98352,68,90,0
230.0643,230.0989,55,89,0
230.17967,230.2143,67,88,0
230.29506,230.32968,55,86,0
230.41045,230.44507,65,85,0
230.52583,230.56044,55,84,0
230.64122,230.67583,63,83,0
230.7566,230.79121,55,81,0
230.87198,230.9066,62,80,0
230.98737,231.02199,55,79,0
231.10275,231.13737,60,77,0
231.21814,231.33353,55,77,0
231.33353,231.44891,59,77,0
231.44891,231.56429,62,77,0
231.56429,231.67967,59,77,0
231.67967,231.79506,55,77,0
231.79506,231.91045,59,77,0
231.91045,232.02583,62,77,0
232.02583,232.14122,59,77,0
232.14122,232.25659,55,77,0
232.25659,232.37198,59,77,0
232.37198,232.48737,62,77,0
232.48737,232.60275,59,77,0
232.60275,232.71814,55,77,0
232.71814,232.83353,59,77,0
232.83353,232.9489,62,77,0
232.9489,233.06429,59,77,0
233.06429,233.17967,55,77,0
233.17967,233.29506,60,76,0
233.29506,233.41045,63,75,0
233.41045,233.52583,60,75,0
233.52583,233.64122,55,74,0
233.64122,233.75659,60,74,0
233.75659,233.87198,63,74,0
233.87198,233.98737,60,73,0
233.98737,234.10275,55,73,0
234.10275,234.21814,60,72,0
234.21814,234.33353,63,71,0
234.33353,234.4489,60,71,0
234.4489,234.56429,55,71,0
234.56429,234.67967,60,70,0
234.67967,234.79506,63,70,0
234.79506,234.91045,60,69,0
234.91045,235.02583,55,69,0
235.02583,235.1412,59,69,0
235.1412,235.25659,62,69,0
235.25659,235.37198,59,69,0
235.37198,235.48737,55,69,0
235.48737,235.60275,59,69,0
235.60275,235.71814,62,69,0
235.71814,235.83351,59,69,0
235.83351,235.9489,55,69,0
235.9489,236.06429,60,69,0
236.06429,236.17967,63,69,0
236.17967,236.29506,60,69,0
236.29506,236.41045,55,69,0
236.41045,236.52582,60,69,0
236.52582,236.6412,63,69,0
236.6412,236.75659,60,69,0
236.75659,236.87198,55,69,0
236.87198,236.98737,59,69,0
236.98737,237.10275,62,69,0
237.10275,237.21814,59,69,0
237.21814,237.33351,55,69,0
237.33351,237.4489,59,69,0
237.4489,237.56429,62,69,0
237.56429,237.67967,59,69,0
237.67967,237.79506,55,69,0
237.79506,237.91045,60,69,0
237.91045,238.02582,63,69,0
238.02582,238.1412,60,69,0
238.1412,238.25659,55,69,0
238.25659,238.37198,60,69,0
238.37198,238.48737,63,69,0
238.48737,238.60275,60,69,0
238.60275,238.71812,59,69,0
238.71812,238.83351,55,71,0
238.83351,238.9489,56,72,0
238.9489,239.06429,55,74,0
239.06429,239.17967,56,75,0
239.17967,239.29506,55,77,0
239.29506,239.41043,56,79,0
239.41043,239.52582,55,80,0
239.52582,239.6412,56,82,0
239.6412,239.75659,55,83,0
239.75659,239.87198,56,85,0
239.87198,239.98737,55,87,0
239.98737,240.10274,56,89,0
240.10274,240.2227,55,90,0
240.2227,240.34271,56,92,0
240.34271,240.4627,55,93,0
240.4627,240.5827,56,95,0
240.5827,240.70271,55,97,0
240.70271,240.82271,56,98,0
240.82271,240.9427,55,100,0
240.9427,241.06766,53,101,0
241.06766,241.19266,55,103,0
241.19266,241.31766,53,105,0
241.31766,241.44266,55,107,0
241.44266,241.56766,51,108,0
241.56766,241.69266,55,110,0
241.69266,241.81766,51,111,0
241.81766,241.94806,55,113,0
241.94806,242.07849,50,115,0
242.07849,242.20892,55,116,0
242.20892,242.33936,50,118,0
242.33936,242.46979,55,119,0
242.46979,243.69702,48,122,0
242.46979,243.69702,51,122,0
242.46979,243.69702,55,122,0
244.10611,244.24246,63,122,0
244.24246,244.37883,65,122,0
244.37883,244.5152,67,122,0
244.5152,244.65157,63,122,0
244.65157,244.8152,60,122,0
246.83337,248.46974,72,127,0
248.46974,248.6061,68,122,0
248.6061,248.74246,70,122,0
248.74246,248.87883,72,122,0
248.87883,249.0152,68,122,0
249.0152,249.17883,65,122,0
251.197,252.56064,65,77,0
252.56064,252.83337,63,77,0
252.83337,252.91519,62,77,0
253.1061,253.18791,60,77,0
253.37883,253.78792,59,77,0
253.92427,254.33337,58,78,0
254.46973,254.87881,57,80,0
255.01518,255.42427,56,82,0
255.56064,256.46054,55,77,0
256.76053,257.76038,48,77,0
256.76053,257.76038,51,77,0
256.76053,257.76038,55,77,0
258.09372,260.34354,47,77,0
258.09372,260.34354,50,77,0
258.09372,260.34354,55,77,0
261.09354,261.99387,56,77,0
262.29385,263.29373,49,77,0
262.29385,263.29373,53,77,0
262.29385,263.29373,56,77,0
263.62704,265.8769,48,77,0
263.62704,265.8769,51,77,0
263.62704,265.8769,56,77,0
266.6269,267.62704,56,77,0
267.9604,269.2937,48,73,0
267.9604,269.2937,53,73,0
267.9604,269.2937,56,73,0
269.2937,271.54355,47,69,0
269.2937,271.54355,50,69,0
269.2937,271.54355,55,69,0
272.29355,274.09384,60,69,0
272.29355,274.09384,63,69,0
273.49387,275.89386,68,71,0
274.69385,276.49387,59,73,0
274.69385,276.49387,62,73,0
275.89386,276.49387,67,74,0
276.49387,277.09384,65,75,0
277.09384,277.21906,55,77,0
277.09384,277.21906,60,77,0
277.09384,277.21906,63,77,0
277.21906,277.34406,51,77,0
277.34406,277.46906,55,77,0
277.46906,277.59406,51,77,0
277.59406,277.71906,48,77,0
277.71906,277.84406,51,77,0
277.84406,277.96906,55,77,0
277.96906,278.09406,51,77,0
278.09406,278.21906,48,77,0
278.21906,278.34406,51,77,0
278.34406,278.46906,55,77,0
278.46906,278.59406,51,77,0
278.59406,278.71906,48,77,0
278.71906,278.84406,51,77,0
278.84406,278.96906,55,77,0
278.96906,279.09406,51,77,0
279.09406,280.59406,48,77,0
279.09406,280.59406,52,77,0
279.09406,280.59406,55,77,0
281.09406,281.21906,48,77,0
281.21906,281.34406,53,77,0
281.34406,281.46906,56,77,0
281.46906,281.59406,53,77,0
281.59406,281.71906,48,77,0
281.71906,281.84406,53,77,0
281.84406,281.96906,56,77,0
281.96906,282.09406,53,77,0
282.09406,282.21906,48,77,0
282.21906,282.34406,53,77,0
282.34406,282.46906,56,77,0
282.46906,282.59406,53,77,0
282.59406,282.71906,48,77,0
282.71906,282.84406,53,77,0
282.84406,282.96906,56,77,0
282.96906,283.09406,53,77,0
283.09406,284.59406,48,77,0
283.09406,284.59406,53,77,0
283.09406,284.59406,56,77,0
285.21906,285.34406,50,77,0
285.34406,285.46906,53,77,0
285.46906,285.59406,56,77,0
285.59406,285.71906,59,78,0
285.71906,285.84406,62,79,0
285.84406,285.96906,65,79,0
285.96906,286.09406,68,80,0
286.09406,286.21906,71,80,0
286.21906,286.34406,68,80,0
286.34406,286.46906,65,81,0
286.46906,286.59406,62,81,0
286.59406,286.71906,59,82,0
286.71906,286.84406,56,83,0
286.84406,286.96906,53,83,0
286.96906,287.09406,50,83,0
287.21906,287.34406,51,84,0
287.34406,287.46906,55,85,0
287.46906,287.59406,60,85,0
287.59406,287.71906,63,86,0
287.71906,287.84406,67,86,0
287.84406,287.96906,72,86,0
287.96906,288.09406,67,87,0
288.09406,288.21906,72,88,0
288.21906,288.34406,67,88,0
288.34406,288.46906,63,89,0
288.46906,288.59406,60,89,0
288.59406,288.71906,55,89,0
288.71906,288.84406,60,90,0
288.84406,288.96906,55,90,0
288.96906,289.09406,51,91,0
289.34406,289.46906,51,103,0
289.46906,289.59406,55,101,0
289.59406,289.71906,60,99,0
289.71906,289.84406,55,97,0
289.84406,289.96906,51,95,0
289.96906,290.09406,55,93,0
290.34406,290.46906,50,88,0
290.46906,290.59406,55,86,0
290.59406,290.71906,59,84,0
290.71906,290.84406,55,82,0
290.84406,290.96906,50,80,0
290.96906,291.09406,55,78,0
291.09406,291.24405,51,77,0
291.71906,291.84406,51,78,0
291.84406,291.96906,55,78,0
291.96906,292.09406,60,78,0
292.09406,292.21906,63,79,0
292.21906,292.25656,63,79,0
292.34406,292.46906,67,80,0
292.46906,292.59406,72,80,0
292.59406,292.71906,75,80,0
292.71906,292.84406,72,80,0
292.84406,292.96906,74,80,0
292.96906,293.09406,75,81,0
293.09406,293.25055,77,81,0
293.61575,294.65924,77,83,0
294.65924,294.78967,75,85,0
294.78967,294.9201,74,86,0
294.9201,295.05054,72,86,0
295.05054,295.18097,71,86,0
295.18097,295.3375,79,86,0
295.7027,296.7462,79,88,0
296.7462,296.87662,77,90,0
296.87662,297.00705,75,90,0
297.00705,297.13748,74,91,0
297.13748,297.23532,72,91,0
297.2679,298.3588,72,92,0
298.3588,299.4497,71,84,0
299.4497,299.6998,72,77,0
299.6998,299.9498,73,77,0
299.9498,300.1998,74,79,0
300.1998,300.4498,75,80,0
300.4498,300.6998,76,81,0
300.6998,300.9498,77,83,0
300.9498,301.1998,78,84,0
301.1998,301.3873,79,85,0
301.4498,302.6998,79,86,0
302.6998,302.8248,80,92,0
302.8248,302.9498,79,93,0
302.9498,303.0748,77,94,0
303.0748,303.1998,75,95,0
303.1998,303.3248,74,95,0
303.3248,303.4498,72,95,0
303.4498,304.4498,72,116,0
304.4498,304.52063,71,101,0
304.52063,304.59146,72,101,0
304.59146,304.6623,71,102,0
304.6623,304.73312,72,102,0
304.73312,304.80396,71,103,0
304.80396,304.8748,72,103,0
304.8748,304.94562,71,104,0
304.94562,305.02896,72,104,0
305.02896,305.1123,71,104,0
305.1123,305.19562,72,104,0
305.19562,305.27896,71,105,0
305.27896,305.3623,69,105,0
305.3623,305.44562,71,106,0
305.44562,305.5956,60,122,0
305.44562,305.5956,63,122,0
305.44562,305.5956,67,122,0
305.44562,305.5956,72,122,0
306.44562,306.5956,62,122,0
306.44562,306.5956,67,122,0
306.44562,306.5956,71,122,0
306.44562,306.5956,74,122,0
307.44562,307.5956,63,122,0
307.44562,307.5956,67,122,0
307.44562,307.5956,72,122,0
307.44562,307.5956,75,122,0
308.94562,309.07062,77,77,0
309.07062,309.19562,75,77,0
309.19562,309.32062,74,77,0
309.32062,309.44562,72,77,0
309.44562,309.94562,72,77,0
309.94562,310.82062,71,77,0
310.82062,310.94562,72,77,0
310.94562,311.02063,72,77,0
311.02063,311.0956,74,77,0
311.0956,311.17062,72,77,0
311.17062,311.24564,74,77,0
311.24564,311.32062,72,77,0
311.32062,311.38312,71,77,0
311.38312,311.44562,72,77,0
311.991,312.53644,69,77,0
311.44562,312.53644,72,77,0
311.44562,312.53644,75,77,0
312.53644,313.08188,71,77,0
312.53644,313.08188,74,77,0
313.62735,313.77744,60,122,0
313.62735,313.77744,63,122,0
313.62735,313.77744,67,122,0
313.62735,313.77744,72,122,0
314.62744,314.77744,62,122,0
314.62744,314.77744,65,122,0
314.62744,314.77744,68,122,0
314.62744,314.77744,70,122,0
314.62744,314.77744,74,122,0
315.62744,315.791,68,122,0
315.62744,315.791,74,122,0
315.62744,315.791,77,122,0
315.62744,315.791,80,122,0
317.80917,317.98053,70,122,0
317.80917,317.98053,76,122,0
317.80917,317.98053,79,122,0
317.80917,317.98053,82,122,0
320.09482,320.24496,72,107,0
320.09482,320.24496,77,107,0
320.09482,320.24496,84,107,0
321.09497,321.24496,60,107,0
321.09497,321.24496,66,107,0
321.09497,321.24496,72,107,0
322.09497,322.16995,59,107,0
322.09497,322.16995,62,107,0
322.09497,322.16995,67,107,0
322.09497,322.16995,71,107,0
322.34497,322.465,67,107,0
322.465,322.501,69,107,0
322.58502,322.657,71,107,0
322.825,322.897,72,107,0
323.065,323.13702,74,77,0
323.30502,323.377,76,77,0
323.545,323.617,77,77,0
323.785,323.857,74,77,0
324.02502,324.09702,76,77,0
324.265,324.337,79,77,0
324.505,324.577,76,77,0
324.745,324.81702,72,77,0
324.98502,325.057,71,77,0
325.225,325.297,74,77,0
325.465,325.53702,71,77,0
325.70502,325.777,67,77,0
325.945,326.017,72,77,0
326.185,326.25702,67,77,0
326.42502,326.497,69,77,0
326.665,326.737,71,77,0
326.905,326.97702,72,77,0
327.14502,327.217,74,77,0
327.385,327.45428,72,77,0
327.6158,327.68506,70,77,0
327.8466,327.9158,69,77,0
328.07736,328.14658,72,77,0
328.30814,328.37735,69,77,0
328.53888,328.60812,67,77,0
328.76965,328.8389,65,77,0
329.00043,329.06967,69,77,0
329.2312,329.30045,66,77,0
329.46198,329.5312,69,77,0
329.69275,329.76196,67,77,0
329.9235,329.99274,66,77,0
330.15427,330.2235,67,77,0
330.38504,330.45428,66,77,0
330.6158,330.68506,67,77,0
330.8466,330.9158,66,77,0
331.07736,331.14658,67,77,0
331.3081,331.37735,69,77,0
331.53888,331.60812,71,77,0
331.76965,331.8389,67,77,0
332.00043,332.06967,71,77,0
332.2312,332.3004,72,77,0
332.46198,332.5312,74,77,0
332.69275,332.76196,76,77,0
332.9235,332.99274,77,77,0
333.15427,333.2235,74,77,0
333.38504,333.45428,76,77,0
333.6158,333.68503,79,77,0
333.8466,333.9158,84,77,0
334.07736,334.14658,88,77,0
334.3081,334.37735,87,77,0
334.53888,334.60812,88,77,0
334.76965,334.8389,89,77,0
335.00043,335.06964,86,77,0
335.2312,335.3004,84,77,0
335.46198,335.5312,88,77,0
335.69272,335.76196,84,77,0
335.9235,335.99274,88,77,0
336.15427,336.2235,83,77,0
336.38504,336.45428,86,77,0
336.6158,336.68503,83,77,0
336.8466,336.9158,86,77,0
337.07733,337.14658,84,77,0
337.3081,337.37735,79,77,0
337.53888,337.60812,76,77,0
337.76965,337.8389,72,77,0
338.00043,338.06964,67,77,0
338.2312,338.3004,64,77,0
338.46194,338.5312,62,77,0
338.69272,338.76196,65,77,0
338.92734,338.99554,64,77,0
339.15463,339.2228,64,77,0
339.3819,339.45007,62,77,0
339.60916,339.67737,60,77,0
339.83646,339.90463,59,77,0
340.06372,340.1319,65,77,0
340.291,340.35916,62,77,0
340.51828,340.58646,59,77,0
340.74554,340.81372,60,77,0
340.9728,341.041,64,77,0
341.20007,341.26678,67,77,0
341.42233,341.48898,65,77,0
341.64456,341.7112,64,77,0
341.86676,341.93344,62,77,0
342.089,342.15567,60,77,0
342.31122,342.37787,58,77,0
342.53345,342.6001,57,77,0
342.75565,342.82233,61,77,0
342.97787,343.04456,62,77,0
343.2001,343.26675,64,77,0
343.42233,343.439,67,77,0
343.47787,343.5279,65,77,0
343.64453,343.7112,64,77,0
343.86676,343.93344,65,77,0
344.089,344.15567,66,77,0
344.31122,344.32788,69,77,0
344.36676,344.41678,67,77,0
344.53345,344.6001,66,77,0
344.75565,344.82233,67,77,0
344.97787,345.04456,69,77,0
345.2001,345.26675,71,77,0
345.42233,345.48898,72,77,0
345.64453,345.7112,74,77,0
345.86676,345.93344,76,77,0
346.089,346.15567,77,77,0
346.31122,346.37787,76,77,0
346.53345,346.6001,74,78,0
346.75565,346.82233,72,79,0
346.97787,347.04456,71,80,0
347.2001,347.26675,69,81,0
347.42233,347.48898,67,82,0
347.64453,347.7112,65,83,0
347.86676,347.93344,64,84,0
348.089,348.15564,67,85,0
348.31122,348.37787,72,86,0
348.53342,348.6001,67,86,0
348.75565,348.82233,64,88,0
348.97787,349.04456,60,89,0
349.2001,349.26675,65,89,0
349.42233,349.48898,69,90,0
349.64453,349.86676,60,77,0
349.64453,349.86676,64,77,0
349.86676,350.089,55,77,0
350.089,350.31122,60,77,0
350.089,350.31122,64,77,0
350.31122,350.53342,55,77,0
350.53342,350.75565,62,77,0
350.53342,350.75565,65,77,0
350.75565,350.97787,55,77,0
350.97787,351.2001,62,77,0
350.97787,351.2001,65,77,0
351.2001,351.4223,55,77,0
351.4223,351.48898,60,77,0
351.4223,351.48898,63,77,0
351.64453,351.86676,67,77,0
351.86676,352.089,72,79,0
352.089,352.31122,67,80,0
352.31122,352.53342,63,81,0
352.53342,352.75565,60,83,0
352.75565,352.82233,60,84,0
352.75565,352.82233,63,84,0
352.97787,353.04453,60,85,0
352.97787,353.04453,63,85,0
353.2001,353.4223,60,86,0
353.2001,353.4223,63,86,0
353.4223,353.64453,57,88,0
353.64453,353.86676,60,89,0
353.64453,353.86676,63,89,0
353.86676,354.089,57,90,0
354.089,354.3112,60,92,0
354.089,354.3112,63,92,0
354.3112,354.53342,57,88,0
354.53342,354.75565,60,84,0
354.53342,354.75565,63,84,0
354.75565,354.97787,57,80,0
354.97787,355.0612,59,77,0
354.97787,355.0612,62,77,0
355.089,355.1723,55,77,0
355.2001,355.28342,57,77,0
355.3112,355.39453,59,77,0
355.4223,355.50565,60,77,0
355.53342,355.61676,62,77,0
355.64453,355.72787,64,77,0
355.75565,355.839,66,77,0
355.86676,355.9501,67,77,0
355.97787,356.0612,69,77,0
356.089,356.1723,71,77,0
356.2001,356.28342,72,77,0
356.3112,356.39453,74,77,0
356.4223,356.50565,76,77,0
356.53342,356.61676,78,77,0
356.64453,356.72787,79,77,0
356.75565,356.88898,80,77,0
357.20007,357.33344,56,78,0
357.64453,358.3112,80,95,0
358.53342,358.61676,83,84,0
358.64453,358.72787,59,84,0
358.75565,358.839,60,85,0
358.86676,358.95007,62,85,0
358.97787,359.0612,63,86,0
359.089,359.1723,65,86,0
359.20007,359.28342,67,86,0
359.3112,359.39453,69,87,0
359.4223,359.50565,71,88,0
359.53342,359.61676,72,88,0
359.64453,359.72787,74,89,0
359.75565,359.839,75,89,0
359.86676,359.95007,77,89,0
359.97787,360.0612,79,90,0
360.089,360.1723,81,90,0
360.20007,360.28342,83,91,0
360.3112,360.44452,84,92,0
360.75565,360.88898,60,93,0
361.20007,361.70007,84,114,0
361.86676,362.03342,85,98,0
362.08896,362.20007,86,119,0
362.20007,362.3112,85,99,0
362.3112,362.4223,86,100,0
362.4223,362.53342,85,100,0
362.53342,362.64453,86,101,0
362.64453,362.75565,84,101,0
362.75565,362.86676,83,101,0
362.86676,362.97787,84,102,0
362.97787,363.08896,86,124,0
363.08896,363.20007,85,103,0
363.20007,363.3112,86,104,0
363.3112,363.4223,85,104,0
363.4223,363.53342,86,104,0
363.53342,363.64453,84,105,0
363.64453,363.75565,83,105,0
363.75565,363.86676,84,106,0
363.86676,363.97784,86,107,0
363.97784,364.08896,87,107,0
364.08896,364.20007,86,107,0
364.20007,364.3112,84,107,0
364.3112,364.4223,83,107,0
364.4223,364.53342,84,107,0
364.53342,364.64453,83,107,0
364.64453,364.75565,81,107,0
364.75565,364.86676,79,107,0
364.86676,364.97784,81,107,0
364.97784,365.08896,79,107,0
365.08896,365.20007,78,107,0
365.20007,365.3112,79,107,0
365.3112,365.4223,77,99,0
365.4223,365.53342,76,92,0
365.53342,365.64453,74,84,0
365.64453,365.86676,72,77,0
365.86676,366.21286,67,77,0
366.32825,366.6744,67,77,0
366.7898,367.2513,67,77,0
367.2513,367.3667,69,77,0
367.3667,367.4821,71,77,0
367.4821,367.55133,72,77,0
367.71286,368.1744,67,77,0
368.1744,368.2898,69,77,0
368.2898,368.40518,71,77,0
368.40518,368.4744,72,77,0
368.63593,369.09747,79,77,0
369.09747,369.21286,81,77,0
369.21286,369.32825,83,77,0
369.32825,369.3975,84,77,0
369.55902,369.90518,67,77,0
370.02054,370.3667,67,77,0
370.4821,370.94363,67,77,0
370.94363,371.05902,69,77,0
371.05902,371.1744,71,77,0
371.1744,371.24362,72,77,0
371.40518,371.8667,68,77,0
371.8667,371.9821,70,80,0
371.9821,372.09747,72,81,0
372.09747,372.16672,73,82,0
372.32825,372.7898,72,84,0
372.7898,372.90515,74,88,0
372.90515,373.02054,76,89,0
373.02054,373.08978,77,89,0
373.2513,373.71286,79,92,0
373.71286,373.82825,81,95,0
373.82825,373.94363,83,96,0
373.94363,374.01285,84,97,0
374.1744,374.63593,79,99,0
374.63593,374.7513,81,103,0
374.7513,374.8667,83,104,0
374.8667,374.9013,84,104,0
374.9821,375.09747,79,105,0
375.09747,375.21286,81,107,0
375.21286,375.32825,83,107,0
375.32825,375.36285,84,107,0
375.44363,375.55902,79,107,0
375.55902,375.6744,81,107,0
375.6744,375.78976,83,107,0
375.78976,375.8244,84,107,0
375.90515,376.02054,79,107,0
376.02054,376.13593,81,107,0
376.13593,376.2513,83,107,0
376.2513,376.28592,84,107,0
376.3667,376.4821,79,107,0
376.4821,376.59747,81,107,0
376.59747,376.71286,83,107,0
376.71286,377.36902,84,122,0
377.58777,377.68152,60,122,0
377.71277,377.7628,60,122,0
377.7805,377.83047,62,122,0
377.8482,377.8982,60,122,0
377.9159,377.9659,62,122,0
377.9836,378.0336,60,122,0
378.05133,378.10132,62,122,0
378.11902,378.16904,60,122,0
378.18674,378.23672,62,122,0
378.25446,378.30444,60,122,0
378.32214,378.37216,62,122,0
378.38986,378.43985,60,122,0
378.46277,378.55652,59,122,0
378.58777,378.68152,60,122,0
378.71277,379.93994,80,122,0
379.93994,380.06503,83,122,0
380.06503,380.19003,84,122,0
380.19003,380.31503,83,122,0
380.31503,380.44003,86,122,0
380.44003,380.56503,84,122,0
380.56503,380.69003,82,122,0
380.69003,380.81503,80,122,0
380.81503,381.31503,80,107,0
381.31503,382.06503,79,107,0
382.06503,382.25253,84,107,0
382.31503,382.56503,84,107,0
382.56503,382.75253,75,107,0
382.81503,383.06503,75,107,0
383.06503,383.25253,79,107,0
383.31503,383.56503,79,107,0
383.56503,383.75253,72,107,0
383.81503,383.87753,72,107,0
383.87753,383.94003,74,107,0
383.94003,384.00253,72,107,0
384.00253,384.06503,74,107,0
384.06503,384.12753,72,107,0
384.12753,384.19003,74,107,0
384.19003,384.25253,72,107,0
384.25253,384.31503,74,107,0
384.31503,384.69003,75,107,0
384.69003,384.81503,74,84,0
384.81503,384.90878,72,77,0
384.94003,385.03378,67,77,0
385.06503,385.15878,66,77,0
385.19003,385.28378,67,77,0
385.31503,385.40878,65,77,0
385.44003,385.53378,63,77,0
385.56503,385.65878,62,77,0
385.69003,385.78378,60,77,0
385.81503,385.90878,59,77,0
385.94003,386.03378,60,77,0
386.06503,386.15878,62,77,0
386.19003,386.28378,60,77,0
386.31503,386.40878,59,77,0
386.44003,386.53378,56,77,0
386.56503,386.65878,55,77,0
386.69003,386.78378,53,77,0
386.81503,386.90878,51,77,0
386.94003,387.03378,55,77,0
387.06503,387.15878,60,77,0
387.19003,387.28378,63,77,0
387.31503,387.44003,65,89,0
387.44003,387.53378,62,77,0
387.56503,387.60254,59,77,0
387.69003,387.72754,53,77,0
387.81503,387.90878,51,77,0
387.94003,388.03378,55,77,0
388.06503,388.15878,60,77,0
388.19003,388.28378,63,77,0
388.31503,388.44003,65,89,0
388.44003,388.53378,62,77,0
388.56503,388.60254,59,77,0
388.69003,388.72754,53,77,0
388.81503,388.90878,51,77,0
388.94003,389.03378,67,77,0
389.06503,389.15878,66,77,0
389.19003,389.28378,67,77,0
389.31503,389.40878,65,77,0
389.44003,389.53378,63,77,0
389.56503,389.65878,62,77,0
389.69003,389.78378,60,77,0
389.81503,389.90878,59,77,0
389.94003,390.03378,60,77,0
390.06503,390.15878,62,77,0
390.19003,390.28378,60,77,0
390.31503,390.40878,59,77,0
390.44003,390.53378,56,77,0
390.56503,390.65878,55,77,0
390.69003,390.78378,53,77,0
390.81503,390.90878,51,77,0
390.94003,391.03378,60,77,0
391.06503,391.15878,63,78,0
391.19003,391.28378,65,79,0
391.31503,391.44003,66,80,0
391.44003,391.53378,63,81,0
391.56503,391.60254,60,82,0
391.69003,391.72754,54,83,0
391.81503,391.90878,53,84,0
391.94003,392.03378,65,85,0
392.06503,392.15878,67,86,0
392.19003,392.28378,68,86,0
392.31503,392.44003,70,88,0
392.44003,392.53378,67,89,0
392.56503,392.60254,64,89,0
392.69003,392.72754,58,90,0
392.81503,392.90878,56,92,0
392.94003,393.03378,65,92,0
393.06503,393.15878,74,93,0
393.19003,393.28378,75,94,0
393.31503,393.44003,77,95,0
393.44003,393.53378,74,96,0
393.56503,393.60254,71,97,0
393.69003,393.72754,65,98,0
393.81503,393.90878,63,99,0
393.94003,394.03378,67,100,0
394.06503,394.15878,74,101,0
394.19003,394.28378,75,101,0
394.31503,394.44003,77,103,0
394.44003,394.53378,74,104,0
394.56503,394.60254,71,104,0
394.69003,394.72754,65,105,0
394.81503,394.85254,63,107,0
394.94003,395.06503,75,107,0
395.06503,395.19003,77,108,0
395.19003,395.31503,74,109,0
395.31503,395.35254,75,110,0
395.44003,395.56503,75,111,0
395.56503,395.69003,77,112,0
395.69003,395.81503,74,113,0
395.81503,395.85254,75,114,0
395.94003,396.06503,75,115,0
396.06503,396.19003,77,116,0
396.19003,396.31503,74,116,0
396.31503,396.35254,75,118,0
396.44003,396.56503,75,119,0
396.56503,396.69003,77,119,0
396.69003,396.81503,74,120,0
396.81503,397.19003,79,122,0
398.94003,399.0301,56,107,0
399.0601,399.1501,58,107,0
399.18008,399.27008,60,107,0
399.30008,399.39008,61,107,0
399.42007,399.5101,63,107,0
399.5401,399.6301,65,107,0
399.6601,399.7501,67,107,0
399.7801,399.8701,68,107,0
399.9001,399.99008,70,107,0
400.02008,400.11008,72,107,0
400.14008,400.23007,73,107,0
400.2601,400.3501,75,107,0
400.3801,400.4701,77,107,0
400.5001,400.5901,79,107,0
400.6201,400.71008,80,107,0
400.74008,401.11505,68,107,0
402.86008,402.95007,67,107,0
402.98007,403.0701,69,107,0
403.1001,403.1901,71,107,0
403.2201,403.3101,72,107,0
403.3401,403.43008,74,107,0
403.46008,403.55008,75,107,0
403.58008,403.67007,77,107,0
403.70007,403.7901,79,107,0
403.8201,403.9101,81,107,0
403.9401,404.0301,83,107,0
404.0601,404.1501,84,107,0
404.18008,404.2738,86,107,0
404.30505,404.3988,87,107,0
404.43005,404.5238,89,107,0
404.55505,404.6488,86,107,0
404.68005,404.8436,87,122,0
405.2254,405.38904,72,122,0
405.2254,405.38904,75,122,0
405.2254,405.38904,79,122,0
405.2254,405.38904,84,122,0
406.3163,406.47995,68,122,0
406.3163,406.47995,72,122,0
406.3163,406.47995,77,122,0
406.3163,406.47995,80,122,0
407.40723,407.57086,67,122,0
407.40723,407.57086,72,122,0
407.40723,407.57086,75,122,0
407.40723,407.57086,79,122,0
409.58905,409.7527,59,122,0
409.58905,409.7527,62,122,0
409.58905,409.7527,65,122,0
409.58905,409.7527,67,122,0
409.58905,409.7527,71,122,0
411.2254,411.31924,52,59,0
411.3505,411.44424,55,59,0
411.4755,411.56924,60,59,0
411.6005,411.69424,55,59,0
411.7255,411.81924,52,59,0
411.8505,411.94424,55,59,0
411.9755,412.06924,60,59,0
412.1005,412.19424,55,59,0
412.2255,412.31924,52,59,0
412.3505,412.44424,55,59,0
412.4755,412.56924,60,59,0
412.6005,412.69424,55,59,0
412.7255,412.81924,52,59,0
412.8505,412.94424,55,59,0
412.9755,413.06924,60,59,0
413.1005,413.19424,55,59,0
413.2255,413.31924,52,59,0
413.3505,413.44424,55,59,0
413.4755,413.56924,60,59,0
413.6005,413.69424,55,59,0
413.7255,413.81924,52,59,0
413.8505,413.94424,55,59,0
413.9755,414.06924,60,59,0
414.1005,414.19424,55,59,0
414.2255,414.31924,52,59,0
414.3505,414.44424,55,59,0
414.4755,414.56924,60,59,0
414.6005,414.69424,55,59,0
414.7255,414.81924,52,59,0
414.8505,414.94424,55,59,0
414.9755,415.06924,60,59,0
415.1005,415.19424,55,59,0
415.2255,415.31924,50,59,0
415.3505,415.44424,53,59,0
415.3505,415.44424,56,59,0
415.4755,415.56924,60,59,0
415.6005,415.69424,53,59,0
415.6005,415.69424,56,59,0
415.7255,415.81924,50,59,0
415.8505,415.94424,53,59,0
415.8505,415.94424,56,59,0
415.9755,416.06924,59,59,0
416.1005,416.19424,53,59,0
416.1005,416.19424,56,59,0
416.2255,416.31924,50,59,0
416.3505,416.44424,53,59,0
416.3505,416.44424,56,59,0
416.4755,416.56924,59,59,0
416.6005,416.69424,53,59,0
416.6005,416.69424,56,59,0
416.7255,416.81924,50,59,0
416.8505,416.94424,53,59,0
416.8505,416.94424,56,59,0
416.9755,417.06924,59,59,0
417.1005,417.19424,53,59,0
417.1005,417.19424,56,59,0
417.2255,417.31924,50,59,0
417.3505,417.44424,53,59,0
417.3505,417.44424,56,59,0
417.4755,417.56924,59,59,0
417.6005,417.69424,53,59,0
417.6005,417.69424,56,59,0
417.7255,417.81924,50,59,0
417.8505,417.94424,53,59,0
417.8505,417.94424,56,59,0
417.9755,418.06924,59,59,0
418.1005,418.19424,53,59,0
418.1005,418.19424,56,59,0
418.2255,418.31924,50,59,0
418.3505,418.44424,53,59,0
418.3505,418.44424,56,59,0
418.4755,418.56924,59,59,0
418.6005,418.69424,53,59,0
418.6005,418.69424,56,59,0
418.7255,418.81924,50,59,0
418.8505,418.94424,53,59,0
418.8505,418.94424,56,59,0
418.9755,419.06924,59,59,0
419.1005,419.19424,53,59,0
419.1005,419.19424,56,59,0
419.2255,419.31924,52,59,0
419.3505,419.44424,55,59,0
419.4755,419.56924,59,59,0
419.6005,419.69424,55,59,0
419.7255,419.81924,52,59,0
419.8505,419.94424,55,59,0
419.9755,420.06924,60,59,0
420.1005,420.19424,55,59,0
420.2255,420.31924,52,59,0
420.3505,420.44424,55,59,0
420.4755,420.56924,60,59,0
420.6005,420.69424,55,59,0
420.7255,420.81924,52,59,0
420.8505,420.94424,55,59,0
420.9755,421.06924,60,59,0
421.1005,421.19424,55,59,0
421.2255,421.31924,52,59,0
421.3505,421.44424,55,59,0
421.4755,421.56924,60,59,0
421.6005,421.69424,55,59,0
421.7255,421.81924,52,59,0
421.8505,421.94424,55,59,0
421.9755,422.06924,60,59,0
422.1005,422.19424,55,59,0
422.2255,422.31924,52,59,0
422.3505,422.44424,55,59,0
422.4755,422.56924,60,59,0
422.6005,422.69424,55,59,0
422.7255,422.81924,52,59,0
422.8505,422.94424,55,59,0
422.9755,423.06924,60,59,0
423.1005,423.19424,55,59,0
423.2255,423.31924,50,59,0
423.3505,423.44424,53,59,0
423.3505,423.44424,56,59,0
423.4755,423.56924,60,59,0
423.6005,423.69424,53,59,0
423.6005,423.69424,56,59,0
423.7255,423.81924,50,59,0
423.8505,423.94424,53,59,0
423.8505,423.94424,56,59,0
423.9755,424.06924,59,59,0
424.1005,424.19424,53,59,0
424.1005,424.19424,56,59,0
424.2255,424.31924,50,59,0
424.3505,424.44424,53,59,0
424.3505,424.44424,56,59,0
424.4755,424.56924,59,59,0
424.6005,424.69424,53,59,0
424.6005,424.69424,56,59,0
424.7255,424.81924,50,59,0
424.8505,424.94424,53,59,0
424.8505,424.94424,56,59,0
424.9755,425.06924,59,59,0
425.1005,425.19424,53,59,0
425.1005,425.19424,56,59,0
425.2255,425.31924,50,59,0
425.3505,425.44424,53,59,0
425.3505,425.44424,56,59,0
425.4755,425.56924,59,59,0
425.6005,425.69424,53,59,0
425.6005,425.69424,56,59,0
425.7255,425.81924,50,59,0
425.8505,425.94424,53,59,0
425.8505,425.94424,56,59,0
425.9755,426.06924,59,59,0
426.1005,426.19424,53,59,0
426.1005,426.19424,56,59,0
426.2255,426.31924,50,59,0
426.3505,426.44424,53,59,0
426.3505,426.44424,56,59,0
426.4755,426.56924,59,59,0
426.6005,426.69424,53,59,0
426.6005,426.69424,56,59,0
426.7255,426.81924,50,59,0
426.8505,426.94424,53,59,0
426.8505,426.94424,56,59,0
426.9755,427.06924,59,59,0
427.1005,427.19424,53,59,0
427.1005,427.19424,56,59,0
427.2255,427.31924,52,77,0
427.3505,427.44424,55,77,0
427.4755,427.56924,60,77,0
427.6005,427.69424,55,77,0
427.7255,427.81924,64,77,0
427.8505,427.94424,60,78,0
427.9755,428.06924,67,80,0
428.1005,428.19424,64,81,0
428.2255,428.31924,72,83,0
428.3505,428.44424,67,84,0
428.4755,428.56924,76,86,0
428.6005,428.69424,72,88,0
428.7255,428.81924,79,89,0
428.8505,428.94424,76,91,0
428.9755,429.06924,84,92,0
429.1005,429.19424,79,94,0
429.2255,429.31924,88,95,0
429.3505,429.44424,84,97,0
429.4755,429.56924,79,99,0
429.6005,429.69424,84,101,0
429.7255,429.81924,76,102,0
429.8505,429.94424,79,104,0
429.9755,430.06924,72,105,0
430.1005,430.19424,76,107,0
430.2255,430.31924,67,108,0
430.3505,430.44424,72,110,0
430.4755,430.56924,64,112,0
430.6005,430.69424,67,113,0
430.7255,430.81924,60,115,0
430.8505,430.94424,64,116,0
430.9755,431.06924,55,118,0
431.1005,431.19424,60,119,0
431.2255,431.38904,52,122,0
431.2255,431.38904,55,122,0
431.2255,431.38904,60,122,0
431.77084,431.93448,60,122,0
431.77084,431.93448,64,122,0
431.77084,431.93448,67,122,0
431.77084,431.93448,72,122,0
433.95267,434.08902,64,77,0
434.08902,434.2254,65,77,0
434.2254,434.36176,67,77,0
434.36176,434.4981,64,77,0
434.4981,434.66177,60,77,0
435.58902,435.75266,48,122,0
435.58902,435.75266,53,122,0
435.58902,435.75266,56,122,0
435.58902,435.75266,60,122,0
436.1345,436.29813,60,122,0
436.1345,436.29813,65,122,0
436.1345,436.29813,68,122,0
436.1345,436.29813,72,122,0
438.3163,438.4414,68,77,0
438.4414,438.5664,70,77,0
438.5664,438.6914,72,77,0
438.6914,438.8164,68,77,0
438.8164,438.9664,65,77,0
439.3164,439.4414,68,77,0
439.4414,439.5664,70,77,0
439.5664,439.6914,72,77,0
439.6914,439.8164,68,77,0
439.8164,439.96045,73,69,0
440.29645,440.40445,73,69,0
440.65643,440.69244,73,69,0
440.77643,440.92044,68,69,0
441.25644,441.36444,68,69,0
441.61642,441.65244,68,69,0
441.73645,443.05643,65,69,0
443.05643,443.0911,61,69,0
443.17188,443.2757,63,69,0
443.518,443.55264,65,69,0
443.6334,443.77185,66,69,0
444.09494,444.1988,66,69,0
444.4411,444.4757,65,69,0
444.5565,444.69495,63,69,0
445.018,445.12186,63,69,0
445.36417,445.39877,61,69,0
445.47955,446.74878,60,69,0
446.74878,446.7834,60,69,0
446.86417,446.96802,61,69,0
447.21033,447.24493,63,69,0
447.3257,447.46417,65,69,0
447.78723,447.89108,65,69,0
448.1334,448.168,63,69,0
448.24878,448.38724,61,69,0
448.71033,448.81415,61,69,0
449.05646,449.0911,60,69,0
449.17184,449.2757,58,69,0
449.518,449.5526,61,69,0
449.6334,449.73724,60,69,0
449.97955,450.01416,58,69,0
450.09494,450.19876,56,69,0
450.44107,450.4757,60,69,0
450.55646,450.6603,58,69,0
450.90262,450.93723,56,69,0
451.018,451.12186,55,69,0
451.36417,451.39877,58,69,0
451.47955,451.5834,56,69,0
451.82568,451.86032,55,69,0
451.94107,452.42105,53,69,0
452.42105,452.90103,55,69,0
452.90103,453.86105,56,69,0
453.86105,454.82104,48,73,0
453.86105,454.82104,60,73,0
454.82104,455.321,50,77,0
454.82104,455.321,59,77,0
456.321,457.321,86,77,0
457.321,458.321,84,77,0
458.321,459.321,84,81,0
459.321,460.321,83,86,0
460.321,461.321,82,90,0
461.321,461.821,81,95,0
461.821,462.321,83,97,0
462.321,463.071,84,99,0
463.071,463.571,67,103,0
463.071,463.571,72,103,0
463.071,463.571,75,103,0
463.571,464.071,72,105,0
463.571,464.071,75,105,0
463.571,464.071,79,105,0
464.071,464.571,75,107,0
464.071,464.571,79,107,0
464.071,464.571,84,107,0
464.571,464.821,79,107,0
464.571,464.821,84,107,0
464.571,464.821,87,107,0
464.821,465.071,74,122,0
464.821,465.071,77,122,0
464.821,465.071,83,122,0
465.071,465.321,74,122,0
465.071,465.321,77,122,0
465.071,465.321,83,122,0
465.321,465.571,74,122,0
465.321,465.571,77,122,0
465.321,465.571,83,122,0
465.571,465.821,74,122,0
465.571,465.821,77,122,0
465.571,465.821,83,122,0
465.821,466.071,74,122,0
465.821,466.071,77,122,0
465.821,466.071,83,122,0
466.071,466.321,74,122,0
466.071,466.321,77,122,0
466.071,466.321,83,122,0
466.321,466.571,74,122,0
466.321,466.571,77,122,0
466.321,466.571,83,122,0
466.571,466.821,74,122,0
466.571,466.821,77,122,0
466.571,466.821,83,122,0
466.821,467.071,72,127,0
466.821,467.071,75,127,0
466.821,467.071,84,127,0
467.071,467.321,59,99,0
467.321,467.571,60,77,0
467.571,467.821,62,77,0
467.821,468.071,63,77,0
468.071,468.321,65,77,0
468.321,468.571,67,77,0
468.571,468.821,63,77,0
468.821,469.071,60,77,0
469.071,469.321,59,77,0
469.321,469.571,60,77,0
469.571,469.821,62,77,0
469.821,470.071,63,77,0
470.071,470.321,64,77,0
470.321,470.571,65,77,0
470.571,470.821,67,77,0
470.821,471.071,68,77,0
471.071,471.321,64,77,0
471.321,471.571,65,77,0
471.571,471.821,67,77,0
471.821,472.071,68,77,0
472.071,472.321,70,77,0
472.321,472.571,72,77,0
472.571,472.821,68,77,0
472.821,473.071,65,77,0
473.071,473.321,67,77,0
473.321,473.571,68,77,0
473.571,473.821,67,77,0
473.821,474.071,65,77,0
474.071,474.321,63,77,0
474.321,474.571,62,77,0
474.571,474.821,60,77,0
474.821,475.071,59,77,0
475.071,475.321,62,77,0
475.321,475.571,65,78,0
475.571,475.821,67,79,0
475.821,476.071,68,80,0
476.071,476.321,62,81,0
476.321,476.571,67,82,0
476.571,476.821,65,83,0
476.821,477.071,63,84,0
477.071,477.321,67,85,0
477.321,477.571,71,86,0
477.571,477.821,72,86,0
477.821,478.071,75,88,0
478.071,478.321,72,89,0
478.321,478.571,68,89,0
478.571,478.821,66,83,0
478.821,479.071,67,77,0
479.071,479.321,72,77,0
479.321,479.571,75,77,0
479.571,479.821,72,77,0
479.821,480.071,67,77,0
480.071,480.321,71,77,0
480.321,480.571,74,77,0
480.571,480.821,79,77,0
480.821,480.91476,63,77,0
480.946,481.03976,75,77,0
481.071,481.16476,67,77,0
481.196,481.28976,79,77,0
481.321,481.41476,66,78,0
481.446,481.53976,78,79,0
481.571,481.66476,67,79,0
481.696,481.78976,79,80,0
481.821,481.91104,65,80,0
481.94104,482.03104,77,80,0
482.06104,482.15103,63,81,0
482.18103,482.27106,75,81,0
482.30106,482.39105,62,82,0
482.42105,482.51105,74,83,0
482.54105,482.63104,60,83,0
482.66104,482.75104,72,83,0
482.78104,482.87103,59,84,0
482.90103,482.99106,71,84,0
483.02106,483.11105,62,85,0
483.14105,483.23105,74,85,0
483.26105,483.35104,65,86,0
483.38104,483.47104,77,86,0
483.50104,483.59103,67,86,0
483.62103,483.71103,79,87,0
483.74106,483.83105,68,88,0
483.86105,483.95105,80,88,0
483.98105,484.07104,62,89,0
484.10104,484.19104,74,89,0
484.22104,484.31104,67,89,0
484.34103,484.43103,79,90,0
484.46103,484.55106,65,90,0
484.58105,484.67105,77,91,0
484.70105,484.79105,63,92,0
484.82104,484.91104,75,92,0
484.94104,485.03104,67,92,0
485.06104,485.15103,79,92,0
485.18103,485.27106,71,93,0
485.30106,485.39105,83,94,0
485.42105,485.51105,72,94,0
485.54105,485.63104,84,95,0
485.66104,485.75104,75,95,0
485.78104,485.87103,87,95,0
485.90103,485.99106,72,96,0
486.02106,486.11105,84,96,0
486.14105,486.23105,68,97,0
486.26105,486.35104,80,98,0
486.38104,486.47104,66,98,0
486.50104,486.59103,78,98,0
486.62103,486.71103,67,99,0
486.74106,486.83105,79,99,0
486.86105,486.95105,63,100,0
486.98105,487.07104,75,100,0
487.10104,487.19104,60,101,0
487.22104,487.31104,72,101,0
487.34103,487.43103,63,101,0
487.46103,487.5476,75,102,0
487.57648,487.663,67,103,0
487.69186,487.77838,79,103,0
487.80722,487.89377,66,104,0
487.9226,488.00916,78,104,0
488.038,488.12454,67,104,0
488.15338,488.23993,79,105,0
488.26877,488.35532,55,105,0
488.38416,488.4707,67,106,0
488.61493,488.70148,72,107,0
488.8457,488.93222,79,107,0
489.07648,489.163,75,107,0
489.30722,489.39377,72,107,0
489.538,489.62454,67,107,0
489.76877,489.85532,72,107,0
489.99954,490.0861,67,107,0
490.23032,490.31683,63,107,0
490.4611,490.5476,60,107,0
490.69183,490.77838,67,107,0
490.9226,491.00916,63,107,0
491.15338,491.23993,60,107,0
491.38416,491.4707,59,107,0
491.61493,491.70148,62,107,0
491.8457,491.93222,55,107,0
492.07648,492.163,59,107,0
492.30722,492.39377,60,107,0
492.538,492.62454,79,107,0
492.76877,492.85532,75,107,0
492.99954,493.0861,72,107,0
493.23032,493.31683,67,107,0
493.4611,493.5476,72,107,0
493.69183,493.77838,67,107,0
493.9226,494.00916,63,107,0
494.15338,494.23993,60,107,0
494.38416,494.4707,67,107,0
494.61493,494.70145,63,107,0
494.8457,494.93222,60,107,0
495.07645,495.163,59,107,0
495.30722,495.39377,62,107,0
495.538,495.62454,55,107,0
495.76877,495.85532,59,107,0
495.99954,496.08606,60,107,0
496.23032,496.31683,67,107,0
496.46106,496.5476,63,107,0
496.69183,496.7818,60,107,0
496.9318,497.0218,59,107,0
497.1718,497.2618,62,107,0
497.4118,497.5018,55,107,0
497.6518,497.7418,59,107,0
497.7718,497.86182,60,122,0
497.8918,497.9818,72,122,0
498.0118,498.1018,67,122,0
498.1318,498.2218,79,122,0
498.2518,498.3418,63,122,0
498.3718,498.4618,75,122,0
498.4918,498.5855,60,122,0
498.61676,498.7105,72,122,0
498.74176,498.8355,59,122,0
498.86676,498.9605,71,122,0
498.99176,499.0855,62,122,0
499.11676,499.2105,74,122,0
499.24176,499.3355,55,122,0
499.36676,499.4605,67,122,0
499.49176,499.5855,59,122,0
499.61676,499.7105,71,122,0
499.74176,499.9053,60,122,0
499.74176,499.9053,72,122,0
500.83258,501.01245,60,122,0
500.83258,501.01245,63,122,0
500.83258,501.01245,67,122,0
500.83258,501.01245,72,122,0
502.03247,502.21246,51,122,0
502.03247,502.21246,55,122,0
502.03247,502.21246,60,122,0
20.623718,22.12424,79,127,40
22.165907,22.37424,77,127,40
22.415907,22.62424,75,127,40
24.62424,26.12424,84,127,40
26.165907,26.37424,82,127,40
26.415907,26.62424,80,127,40
28.62424,30.12424,77,127,40
30.165907,30.37424,74,127,40
30.415907,30.62424,71,127,40
32.040905,32.24924,77,127,40
32.290905,32.49924,74,127,40
32.62424,33.62424,72,127,40
34.62424,34.99924,72,127,40
36.885063,37.145935,72,127,40
37.319847,37.66767,72,127,40
38.97202,39.23289,74,127,40
39.406803,39.754627,71,127,40
40.45028,40.798107,69,127,40
41.2526,42.434418,67,127,40
43.22997,43.47997,61,127,40
43.646633,43.97997,63,127,40
44.146633,44.47997,65,127,40
44.646633,44.97997,67,127,40
46.22997,46.35497,68,127,40
46.396633,46.60497,65,127,40
46.646633,46.85497,62,127,40
46.97997,47.97997,60,127,40
48.0383,48.192467,59,127,40
48.2508,48.40497,60,127,40
48.4758,48.642467,59,127,40
48.7258,48.892467,69,127,40
48.97997,49.129967,60,127,40
49.47997,49.85497,55,127,40
49.47997,49.85497,63,127,40
49.47997,49.85497,72,127,40
50.47997,50.85497,59,127,40
50.47997,50.85497,67,127,40
50.47997,50.85497,74,127,40
51.47997,51.85497,60,127,40
51.47997,51.85497,67,127,40
51.47997,51.85497,75,127,40
53.22997,53.47997,78,127,40
53.646633,53.97997,78,127,40
57.61633,57.99133,55,127,40
57.61633,57.99133,63,127,40
57.61633,57.99133,72,127,40
58.61633,58.99133,58,127,40
58.61633,58.99133,65,127,40
58.61633,58.99133,74,127,40
59.57795,59.924103,62,127,40
59.57795,59.924103,70,127,40
59.57795,59.924103,80,127,40
60.501022,60.60487,70,127,40
60.84718,60.881794,70,127,40
60.962563,61.101025,75,127,40
61.4241,61.527946,75,127,40
61.770252,61.80487,75,127,40
61.88564,62.0241,70,127,40
62.347176,62.451023,70,127,40
62.69333,62.727943,70,127,40
62.808716,64.07794,67,127,40
64.19333,64.29717,65,127,40
64.53948,64.5741,67,127,40
64.65487,64.712555,70,127,40
65.1164,65.22025,68,127,40
65.462555,65.49717,67,127,40
65.57794,65.635635,67,127,40
66.03948,66.143326,65,127,40
66.385635,66.42025,63,127,40
66.501015,66.962555,62,127,40
67.885635,67.98948,62,127,40
68.23179,68.2664,63,127,40
68.34717,68.485634,65,127,40
68.80871,68.91255,65,127,40
69.15486,69.189476,67,127,40
69.27025,69.37409,68,127,40
69.6164,69.65102,70,127,40
69.73178,69.83563,72,127,40
70.077934,70.11256,74,127,40
70.19332,71.23178,75,127,40
71.577934,71.681786,72,127,40
71.92409,71.9587,68,127,40
72.039474,72.17793,70,127,40
72.501015,72.60486,70,127,40
72.84717,72.88178,70,127,40
72.96255,73.10101,70,127,40
73.42409,73.52793,70,127,40
73.77024,73.804855,70,127,40
73.88563,73.95486,63,127,40
74.116394,74.18562,67,127,40
74.34716,74.4164,70,127,40
74.577934,74.64716,75,127,40
74.8087,74.87793,79,127,40
75.039474,75.1087,75,127,40
75.27024,75.33947,74,127,40
75.50101,75.57024,77,127,40
75.73178,75.79997,75,127,40
75.95907,76.027245,79,127,40
76.18634,76.25452,77,127,40
76.41361,76.48179,75,127,40
76.640884,76.70757,74,127,40
76.86313,76.929794,80,127,40
77.08535,77.152016,77,127,40
77.30757,77.37424,74,127,40
77.52979,77.59646,75,127,40
77.752014,77.81868,79,127,40
77.974236,78.0409,82,127,40
78.19646,78.26312,80,127,40
78.41868,78.485344,79,127,40
78.6409,78.707565,77,127,40
78.86312,78.92979,75,127,40
79.08534,79.152016,73,127,40
79.30757,79.36312,73,127,40
79.52979,79.59646,71,127,40
79.752014,79.81868,72,127,40
79.974236,80.0409,76,127,40
80.19646,80.252014,79,127,40
80.41868,80.485344,75,127,40
80.6409,80.707565,77,127,40
80.86312,80.92979,79,127,40
81.08534,81.15201,80,127,40
81.30756,81.37423,79,127,40
81.529785,81.59645,80,127,40
81.75201,81.81868,79,127,40
81.974236,82.0409,80,127,40
82.19646,82.26312,79,127,40
82.41868,82.485344,77,127,40
82.6409,82.707565,75,127,40
82.86312,82.92979,74,127,40
83.08534,83.15201,75,127,40
83.30756,83.37423,77,127,40
83.529785,83.59645,75,127,40
83.75201,83.81867,74,127,40
83.97423,84.04089,72,127,40
84.19645,84.263115,70,127,40
84.41867,84.485344,68,127,40
84.64089,84.707565,67,127,40
84.86312,84.92979,70,127,40
85.08534,85.15201,75,127,40
85.30756,85.37423,79,127,40
85.529785,85.59645,82,127,40
85.75201,85.81867,79,127,40
85.97423,86.04089,80,127,40
86.19645,86.263115,84,127,40
86.41867,86.48534,82,127,40
86.64089,86.86311,82,127,40
87.01126,87.307556,75,127,40
87.529785,87.75201,80,127,40
87.900154,88.14089,74,127,40
88.19645,88.41867,66,127,40
88.56682,88.86311,75,127,40
89.085335,89.307556,82,127,40
89.52978,89.59644,87,127,40
89.752,89.818665,87,127,40
89.97422,90.19645,87,127,40
90.41867,90.48534,78,127,40
90.64089,90.70756,78,127,40
90.86311,91.085335,87,127,40
91.307556,91.37422,78,127,40
91.52978,91.59644,78,127,40
91.752,92.085335,77,127,40
93.52978,93.63904,69,127,40
93.752,93.86126,58,127,40
93.97422,94.08348,62,127,40
94.19644,94.3057,65,127,40
94.41866,94.52792,69,127,40
94.640884,94.750145,72,127,40
94.863106,94.97237,75,127,40
95.08533,95.19459,79,127,40
95.30755,95.44089,80,127,40
95.752,95.88533,56,127,40
96.19644,96.94644,80,127,40
97.19644,97.305695,55,127,40
97.41866,97.52792,58,127,40
97.640884,97.750145,62,127,40
97.863106,97.97237,65,127,40
98.08533,98.19459,68,127,40
98.30755,98.41681,72,127,40
98.52977,98.63903,75,127,40
98.75199,98.86125,79,127,40
98.90014,99.08533,79,127,40
99.12236,99.30755,79,127,40
99.34458,99.52977,79,127,40
99.5668,99.75199,79,127,40
99.78903,99.97421,79,127,40
100.01125,100.196434,79,127,40
100.233475,100.418655,79,127,40
100.455696,100.64088,79,127,40
100.67792,100.8631,79,127,40
100.90014,101.08533,79,127,40
101.12236,101.30755,75,127,40
101.34458,101.52977,75,127,40
101.5668,101.75199,72,127,40
101.789024,101.97421,72,127,40
102.011246,102.196434,68,127,40
102.23347,102.418655,68,127,40
102.64939,102.76477,79,127,40
102.88016,102.9667,75,127,40
102.995544,103.082085,74,127,40
103.11092,103.197464,72,127,40
103.22631,103.31285,70,127,40
103.3417,103.42824,68,127,40
103.45708,103.54362,67,127,40
103.572464,103.659004,65,127,40
103.68785,103.77439,63,127,40
103.80324,103.88977,62,127,40
103.91862,104.00516,60,127,40
104.034004,104.120544,58,127,40
104.14939,104.23592,56,127,40
104.26477,104.35131,55,127,40
104.38016,104.4667,58,127,40
104.495544,104.58208,63,127,40
104.61092,104.697464,67,127,40
104.72631,104.8417,68,127,40
104.95708,105.04362,62,127,40
105.072464,105.159004,56,127,40
105.18785,105.27438,55,127,40
105.30323,105.38977,58,127,40
105.41862,105.50516,63,127,40
105.534004,105.62054,67,127,40
105.64938,105.76477,68,127,40
105.88016,105.96669,62,127,40
105.99554,106.08208,56,127,40
106.11092,106.284004,55,127,40
106.34169,106.45708,79,127,40
106.572464,106.659004,75,127,40
106.68784,106.77438,74,127,40
106.80323,106.88977,72,127,40
106.91862,107.00516,70,127,40
107.034,107.12054,68,127,40
107.14938,107.23592,67,127,40
107.26477,107.35131,65,127,40
107.38015,107.46669,63,127,40
107.49554,107.58208,62,127,40
107.61092,107.697464,60,127,40
107.72631,107.81284,58,127,40
107.84169,107.92823,56,127,40
107.95708,108.04362,55,127,40
108.072464,108.159,58,127,40
108.18784,108.27438,67,127,40
108.30323,108.38977,68,127,40
108.41862,108.534,70,127,40
108.64938,108.73592,64,127,40
108.76477,108.8513,58,127,40
108.88015,108.96669,56,127,40
108.99554,109.08208,68,127,40
109.11092,109.19746,70,127,40
109.2263,109.31284,72,127,40
109.34169,109.45708,73,127,40
109.57246,109.659,67,127,40
109.68784,109.77438,61,127,40
109.80323,109.88976,60,127,40
109.91861,110.00515,72,127,40
110.034,110.12054,77,127,40
110.14938,110.23592,79,127,40
110.26476,110.38015,80,127,40
110.49554,110.58208,74,127,40
110.610916,110.69746,68,127,40
110.7263,110.81284,67,127,40
110.84169,110.92823,75,127,40
110.95707,111.04361,77,127,40
111.07246,111.159,79,127,40
111.18784,111.30323,80,127,40
111.41861,111.50515,74,127,40
111.534,111.62054,68,127,40
111.64938,111.735916,67,127,40
111.76476,111.88015,79,127,40
111.91861,112.110916,77,127,40
112.2263,112.34169,79,127,40
112.38015,112.57246,77,127,40
112.68784,112.80322,79,127,40
112.84169,113.034,77,127,40
113.149376,113.26476,79,127,40
113.30322,113.49553,77,127,40
115.67717,116.76808,56,127,40
115.67717,116.76808,65,127,40
115.67717,116.76808,75,127,40
117.70757,118.2909,58,127,40
117.70757,118.2909,67,127,40
119.20757,120.2909,58,127,40
119.20757,120.2909,67,127,40
121.20757,121.7909,58,127,40
121.20757,121.7909,68,127,40
122.030945,122.390945,70,127,40
122.51095,122.87094,70,127,40
122.990944,123.47095,70,127,40
123.51095,123.710945,74,127,40
123.95094,124.43095,70,127,40
124.47095,124.670944,74,127,40
124.91094,125.390945,82,127,40
125.43095,125.63094,86,127,40
125.861755,126.20791,70,127,40
126.32329,126.66944,70,127,40
126.78483,127.24637,70,127,40
127.28483,127.477135,74,127,40
127.7079,128.16945,72,127,40
128.2079,128.4002,76,127,40
128.63098,129.09251,75,127,40
129.13098,129.32329,79,127,40
129.55406,130.0156,82,127,40
130.05406,130.24637,86,127,40
130.47713,130.93867,82,127,40
130.97713,131.16943,86,127,40
131.28482,131.4002,82,127,40
131.43867,131.63098,86,127,40
131.74637,131.86174,82,127,40
131.9002,132.09251,86,127,40
132.2079,132.32329,82,127,40
132.36174,132.55405,86,127,40
132.66943,132.78482,82,127,40
132.82329,133.0156,86,127,40
133.80717,134.01552,63,127,40
134.0676,134.21864,63,127,40
134.27072,134.42177,65,127,40
134.47385,134.6249,63,127,40
134.76552,134.89052,62,127,40
135.01552,136.45555,72,127,40
136.93555,137.81052,80,127,40
137.93552,138.00322,59,127,40
138.0553,138.20634,61,127,40
138.25842,138.40947,59,127,40
138.46155,138.6126,61,127,40
138.68552,138.81052,58,127,40
138.93552,140.37555,58,127,40
138.93552,140.37555,68,127,40
140.8755,141.2845,58,127,40
140.8755,141.2845,67,127,40
141.96632,142.37541,56,127,40
141.96632,142.37541,63,127,40
141.96632,142.37541,72,127,40
143.05724,143.46632,55,127,40
143.05724,143.46632,63,127,40
143.05724,143.46632,70,127,40
145.23904,145.68893,58,127,40
145.23904,145.68893,65,127,40
145.23904,145.68893,74,127,40
150.13914,150.63914,75,127,40
151.05582,151.51414,75,127,40
151.63914,152.13914,75,127,40
154.13914,154.63914,83,127,40
155.05582,155.51414,82,127,40
155.63914,156.13914,82,127,40
158.13914,158.63914,75,127,40
158.13914,158.63914,78,127,40
159.13914,159.63914,75,127,40
159.13914,159.63914,78,127,40
162.13914,162.63914,83,127,40
163.05582,163.51414,83,127,40
163.63914,164.13914,83,127,40
166.13914,166.63914,91,127,40
167.05582,167.51414,90,127,40
167.63914,168.13914,90,127,40
170.05582,170.63914,71,127,40
170.05582,170.63914,74,127,40
171.13914,171.63914,71,127,40
171.13914,171.63914,74,127,40
174.13914,174.63914,79,127,40
175.05582,175.63914,79,127,40
176.05582,178.13914,78,127,40
178.55582,179.13914,78,127,40
179.63914,180.13914,86,127,40
182.03918,182.23918,71,127,40
182.27919,182.47919,74,127,40
182.59918,182.74318,67,127,40
183.07918,183.19919,71,127,40
183.23918,183.43918,74,127,40
183.55919,183.70319,67,127,40
184.03918,184.15918,71,127,40
184.19919,184.39919,74,127,40
184.51918,184.66318,67,127,40
184.99919,185.11919,72,127,40
185.15918,185.35919,75,127,40
185.47919,185.62318,67,127,40
185.95918,186.07918,74,127,40
186.11919,186.31918,77,127,40
186.43918,186.58319,67,127,40
186.91919,187.03918,75,127,40
187.07918,187.27919,79,127,40
187.39919,187.53769,80,127,40
187.86076,187.9646,80,127,40
188.20691,188.24153,80,127,40
188.3223,188.46075,75,127,40
188.78384,188.88768,75,127,40
189.12999,189.16461,75,127,40
189.24538,190.5146,72,127,40
190.62999,190.73384,70,127,40
190.97614,191.01076,72,127,40
191.09152,191.14922,75,127,40
191.55307,191.6569,73,127,40
191.89922,191.93384,72,127,40
192.0146,192.0723,72,127,40
192.47614,192.57999,70,127,40
192.8223,192.8569,68,127,40
192.93768,192.99538,68,127,40
193.39922,193.50307,67,127,40
193.74538,193.77998,65,127,40
193.86075,193.92896,63,127,40
194.08804,194.15622,75,127,40
194.3153,194.3835,77,127,40
194.54259,194.61076,79,127,40
194.76987,194.90622,80,127,40
195.22441,195.32668,80,127,40
195.5653,195.59941,80,127,40
195.67896,195.8153,75,127,40
196.1335,196.23576,75,127,40
196.47441,196.5085,75,127,40
196.58804,197.52554,72,127,40
197.83804,197.87213,72,127,40
197.95168,198.05394,74,127,40
198.29259,198.32668,76,127,40
198.40622,198.53958,77,127,40
198.85068,198.95068,77,127,40
199.18402,199.21735,77,127,40
199.29514,199.42847,72,127,40
199.73958,199.83957,72,127,40
200.0729,200.10623,72,127,40
200.18402,201.40623,68,127,40
201.51735,201.61736,61,127,40
201.85068,201.88402,63,127,40
201.96179,202.02846,65,127,40
202.18402,202.29512,73,127,40
202.33217,202.51735,77,127,40
202.55438,202.73956,77,127,40
202.85068,202.96179,80,127,40
202.99883,203.18402,80,127,40
203.22105,203.40623,84,127,40
203.44327,203.62846,82,127,40
203.73956,203.95901,85,127,40
204.0729,204.18216,73,127,40
204.29512,204.40439,72,127,40
204.51735,204.6266,70,127,40
204.73956,204.84883,69,127,40
204.96179,205.07104,66,127,40
205.184,205.29327,65,127,40
205.40623,205.51549,63,127,40
205.73956,205.85068,70,127,40
205.88771,206.0729,73,127,40
206.10994,206.29512,73,127,40
206.40623,206.51735,77,127,40
206.55438,206.73956,77,127,40
206.7766,206.96179,81,127,40
206.99883,207.184,79,127,40
207.29512,207.51735,82,127,40
207.62845,207.73772,70,127,40
207.85068,207.95993,68,127,40
208.07289,208.18216,66,127,40
208.29512,208.40437,65,127,40
208.51735,208.6266,63,127,40
208.73956,208.84882,61,127,40
208.96179,209.07104,59,127,40
209.52585,210.21815,85,127,40
210.44893,210.70854,70,127,40
210.79507,210.88162,70,127,40
210.91046,211.04893,70,127,40
211.37201,212.06432,84,127,40
212.29507,212.5547,60,127,40
212.64124,212.72777,60,127,40
212.75662,212.89508,60,127,40
213.21815,213.91046,80,127,40
214.14124,214.40085,65,127,40
214.48738,214.57393,65,127,40
214.60277,214.74123,65,127,40
215.0643,215.75662,86,127,40
215.98738,216.247,55,127,40
215.98738,216.247,65,127,40
216.33354,216.42007,55,127,40
216.33354,216.42007,65,127,40
216.44893,216.58739,55,127,40
216.44893,216.58739,63,127,40
216.91046,217.60277,84,127,40
217.83354,218.09315,84,127,40
218.17969,218.26624,84,127,40
218.29507,218.3643,84,127,40
218.52585,218.59508,78,127,40
218.7566,218.82584,79,127,40
218.98738,219.05661,74,127,40
219.21815,219.28738,75,127,40
219.44891,219.51814,71,127,40
219.67969,219.74892,72,127,40
219.91046,219.97969,68,127,40
220.14122,220.48738,67,127,40
222.44891,222.67969,71,127,40
222.83353,223.14122,74,127,40
223.29507,223.60277,77,127,40
223.83353,224.17969,79,127,40
224.29507,224.7566,79,127,40
225.21814,225.33353,79,127,40
225.372,225.5643,75,127,40
225.67969,226.02583,75,127,40
226.14122,226.60275,75,127,40
227.0643,227.17969,77,127,40
227.21814,227.41045,74,127,40
227.52583,227.98737,67,127,40
229.83353,230.0643,71,127,40
230.21814,230.52583,74,127,40
230.67967,230.98737,77,127,40
231.21814,231.56429,79,127,40
231.67967,232.02583,79,127,40
232.60275,232.71814,79,127,40
232.75659,232.9489,75,127,40
233.06429,233.41045,75,127,40
233.52583,233.87198,75,127,40
234.4489,234.56429,77,127,40
234.60275,234.79506,74,127,40
234.91045,235.37198,67,127,40
236.29506,236.41045,77,127,40
236.4489,236.6412,74,127,40
236.75659,237.21814,67,127,40
238.1412,238.25659,77,127,40
238.29506,238.48737,74,127,40
238.52582,238.77582,79,127,40
238.83351,239.17967,55,127,40
238.83351,239.17967,67,127,40
239.29506,239.6412,55,127,40
239.29506,239.6412,67,127,40
239.75659,240.10274,55,127,40
239.75659,240.10274,67,127,40
240.2227,240.5827,55,127,40
240.2227,240.5827,67,127,40
240.70271,241.06766,55,127,40
240.70271,241.06766,67,127,40
241.19266,241.56766,55,127,40
241.19266,241.56766,67,127,40
241.69266,241.7864,69,127,40
241.81766,241.91545,71,127,40
241.94806,242.04588,72,127,40
242.07849,242.17632,74,127,40
242.20892,242.30675,75,127,40
242.33936,242.43718,77,127,40
242.46979,244.10611,79,127,40
244.15157,244.37883,77,127,40
244.42429,244.65157,75,127,40
246.83337,248.06065,84,127,40
248.46974,248.6061,80,127,40
248.65155,248.87883,84,127,40
249.0152,249.42429,77,127,40
251.197,252.56064,77,127,40
252.74246,252.91519,74,127,40
253.1061,253.18791,72,127,40
253.37883,253.78792,71,127,40
253.92427,254.33337,70,127,40
254.46973,254.87881,69,127,40
255.01518,255.42427,68,127,40
255.56064,256.64053,67,127,40
256.76053,258.09372,67,127,40
272.89386,273.34384,80,127,40
273.49387,273.94385,80,127,40
274.09384,274.54385,80,127,40
274.69385,275.89386,80,127,40
276.49387,276.94385,79,127,40
277.09384,278.59406,79,127,40
278.63574,278.84406,77,127,40
278.88574,279.09406,75,127,40
281.09406,282.59406,84,127,40
282.63574,282.84406,82,127,40
282.88574,283.09406,80,127,40
285.09406,286.59406,77,127,40
286.63574,286.84406,74,127,40
286.88574,287.09406,71,127,40
288.51074,288.71906,77,127,40
288.76074,288.96906,74,127,40
289.09406,290.09406,72,127,40
291.09406,291.46906,72,127,40
293.3549,293.61575,72,127,40
293.78967,294.13748,72,127,40
295.44183,295.7027,74,127,40
295.87662,296.22446,71,127,40
296.9201,297.2027,69,127,40
297.2679,297.81332,63,127,40
298.90424,299.6998,67,127,40
299.86646,300.1998,62,127,40
300.36646,300.6998,64,127,40
300.86646,301.1998,66,127,40
301.4498,302.6998,67,127,40
302.74146,302.9498,67,127,40
302.99146,303.1998,63,127,40
303.24146,303.41855,60,127,40
303.4498,304.4498,60,127,40
304.50812,304.6623,59,127,40
304.7206,304.8748,60,127,40
304.94562,305.1123,59,127,40
305.19562,305.3623,69,127,40
305.4498,305.5998,60,127,40
305.9498,306.3248,55,127,40
305.9498,306.3248,63,127,40
305.9498,306.3248,72,127,40
306.9498,307.3248,59,127,40
306.9498,307.3248,67,127,40
306.9498,307.3248,74,127,40
307.9498,308.3248,60,127,40
307.9498,308.3248,67,127,40
307.9498,308.3248,75,127,40
309.6998,309.9498,78,127,40
310.11646,310.4498,78,127,40
314.1316,314.5066,55,127,40
314.1316,314.5066,63,127,40
314.1316,314.5066,72,127,40
315.1316,315.5066,56,127,40
315.1316,315.5066,65,127,40
315.1316,315.5066,74,127,40
316.17734,317.26825,80,127,40
317.31372,317.541,77,127,40
317.58643,317.81387,74,127,40
318.38528,319.52817,70,127,40
318.38528,319.52817,82,127,40
319.57578,319.81387,79,127,40
319.86148,320.09912,76,127,40
320.59912,320.97412,72,127,40
320.59912,320.97412,84,127,40
321.59912,321.71164,84,127,40
321.97412,322.01163,84,127,40
322.09912,322.24915,83,127,40
322.58902,322.733,79,127,40
323.549,323.657,79,127,40
323.909,323.945,79,127,40
324.02902,324.173,84,127,40
324.509,324.617,84,127,40
324.86902,324.905,84,127,40
324.989,325.133,79,127,40
325.469,325.577,79,127,40
325.829,325.86502,79,127,40
325.949,327.269,76,127,40
327.3889,327.49274,74,127,40
327.73505,327.76965,76,127,40
327.85043,327.9081,79,127,40
328.31198,328.4158,77,127,40
328.6581,328.69275,76,127,40
328.7735,328.8312,76,127,40
329.23505,329.3389,74,127,40
329.5812,329.6158,72,127,40
329.6966,330.1581,71,127,40
331.0812,331.18506,71,127,40
331.42734,331.46198,72,127,40
331.54272,331.68118,74,127,40
332.00427,332.10812,74,127,40
332.35043,332.38504,76,127,40
332.46582,332.56967,77,127,40
332.81195,332.8466,79,127,40
332.92734,333.0312,81,127,40
333.2735,333.3081,83,127,40
333.3889,334.42734,84,127,40
334.7735,334.87735,81,127,40
335.11966,335.15427,77,127,40
335.23505,335.3735,79,127,40
335.69656,335.8004,79,127,40
336.04272,336.07733,79,127,40
336.1581,336.29657,79,127,40
336.61966,336.7235,79,127,40
336.96582,337.00043,79,127,40
337.08118,337.15042,72,127,40
337.31195,337.3812,64,127,40
337.54272,337.61197,67,127,40
337.7735,337.84274,72,127,40
338.00427,338.0735,76,127,40
338.23505,338.30426,72,127,40
338.46582,338.53503,71,127,40
338.69656,338.7658,74,127,40
338.92734,338.99554,72,127,40
339.15463,339.2228,76,127,40
339.3819,339.45007,74,127,40
339.60916,339.67737,72,127,40
339.83646,339.90463,71,127,40
340.06372,340.1319,77,127,40
340.291,340.35916,74,127,40
340.51828,340.58646,71,127,40
340.74554,340.81372,72,127,40
340.9728,341.041,76,127,40
341.20007,341.26678,79,127,40
341.42233,341.48898,77,127,40
341.64456,341.7112,76,127,40
341.86676,341.93344,74,127,40
342.089,342.15567,72,127,40
342.31122,342.37787,70,127,40
342.53345,342.6001,69,127,40
342.75565,342.82233,73,127,40
342.97787,343.04456,74,127,40
343.2001,343.26675,76,127,40
343.42233,343.47787,79,127,40
343.64453,343.7112,76,127,40
343.86676,343.93344,77,127,40
344.089,344.15567,78,127,40
344.31122,344.36676,81,127,40
344.53345,344.6001,78,127,40
344.75565,344.82233,79,127,40
344.97787,345.04456,81,127,40
345.2001,345.26675,83,127,40
345.42233,345.48898,84,127,40
345.64453,345.7112,86,127,40
345.86676,345.93344,88,127,40
346.089,346.15567,89,127,40
346.31122,346.37787,88,127,40
346.53345,346.6001,86,127,40
346.75565,346.82233,84,127,40
346.97787,347.04456,83,127,40
347.2001,347.26675,81,127,40
347.42233,347.48898,79,127,40
347.64453,347.7112,77,127,40
347.86676,347.93344,76,127,40
348.089,348.15564,79,127,40
348.31122,348.37787,84,127,40
348.53342,348.6001,79,127,40
348.75565,348.82233,76,127,40
348.97787,349.04456,72,127,40
349.2001,349.26675,77,127,40
349.42233,349.48898,81,127,40
349.64453,349.7112,76,127,40
349.86676,350.089,79,127,40
350.23712,350.53342,72,127,40
350.75565,350.97787,77,127,40
351.126,351.4223,71,127,40
351.64453,351.86676,79,127,40
352.01492,352.25565,79,127,40
352.31122,352.53342,75,127,40
352.75565,352.82233,84,127,40
352.97787,353.04453,84,127,40
353.2001,353.4223,84,127,40
353.64453,353.7112,75,127,40
353.86676,353.9334,75,127,40
354.089,354.3112,84,127,40
354.53342,354.6001,75,127,40
354.75565,354.82233,75,127,40
354.97787,355.3112,74,127,40
356.86676,356.976,60,127,40
357.089,357.19824,63,127,40
357.3112,357.42047,67,127,40
357.53342,357.64267,70,127,40
357.75565,357.8649,74,127,40
357.97787,358.08713,77,127,40
358.20007,358.30936,80,127,40
358.4223,358.53156,84,127,40
358.97787,359.1112,62,127,40
359.4223,360.4223,74,127,40
360.53342,360.64267,65,127,40
360.75565,360.8649,68,127,40
360.97787,361.08713,72,127,40
361.20007,361.3112,75,127,40
361.34824,361.53342,75,127,40
361.57047,361.75565,75,127,40
361.79266,361.97787,75,127,40
362.08896,362.20007,77,127,40
362.23712,362.4223,77,127,40
362.45935,362.64453,77,127,40
362.68158,362.86676,74,127,40
362.97787,363.08896,77,127,40
363.126,363.3112,77,127,40
363.34824,363.53342,77,127,40
363.57047,363.75565,74,127,40
363.86676,363.97784,77,127,40
364.0149,364.20007,77,127,40
364.23712,364.4223,74,127,40
364.45935,364.64453,74,127,40
364.68155,364.78897,71,127,40
364.86676,364.95007,71,127,40
364.97784,365.0612,59,127,40
365.08896,365.1723,59,127,40
365.20007,365.28342,60,127,40
365.3112,365.39453,60,127,40
365.4223,365.50565,62,127,40
365.53342,365.61676,62,127,40
365.64453,365.72784,63,127,40
365.75565,365.86676,79,127,40
365.90518,366.09747,79,127,40
366.13596,366.32825,75,127,40
366.3667,366.55902,72,127,40
366.59747,366.7898,72,127,40
366.82825,367.02057,72,127,40
367.05902,367.2513,68,127,40
367.2898,367.4821,65,127,40
367.59747,367.68402,67,127,40
367.71286,367.7994,72,127,40
367.82825,367.9148,75,127,40
367.94363,368.05902,77,127,40
368.1744,368.26093,71,127,40
368.2898,368.3763,65,127,40
368.40518,368.4917,63,127,40
368.52057,368.6071,67,127,40
368.63593,368.72247,72,127,40
368.7513,368.83786,75,127,40
368.8667,368.9821,77,127,40
369.09747,369.18402,71,127,40
369.21286,369.2994,65,127,40
369.32825,369.4148,63,127,40
369.44363,369.55902,79,127,40
369.59747,369.7898,79,127,40
369.82825,370.02054,75,127,40
370.05902,370.2513,72,127,40
370.2898,370.4821,72,127,40
370.52054,370.71286,72,127,40
370.7513,370.94363,68,127,40
370.9821,371.1744,65,127,40
371.2898,371.3763,72,127,40
371.40518,371.4917,75,127,40
371.52054,371.6071,77,127,40
371.63593,371.7513,78,127,40
371.8667,371.95325,72,127,40
371.9821,372.06863,66,127,40
372.09747,372.18402,65,127,40
372.21286,372.2994,77,127,40
372.32825,372.4148,79,127,40
372.44363,372.53015,80,127,40
372.55902,372.6744,82,127,40
372.7898,372.8763,76,127,40
372.90515,372.9917,70,127,40
373.02054,373.1071,68,127,40
373.13593,373.22247,77,127,40
373.2513,373.33786,83,127,40
373.3667,373.45325,84,127,40
373.4821,373.59747,86,127,40
373.71286,373.7994,79,127,40
373.82825,373.9148,77,127,40
373.94363,374.03015,75,127,40
374.05902,374.14554,79,127,40
374.1744,374.26093,83,127,40
374.28976,374.3763,84,127,40
374.40515,374.52054,86,127,40
374.63593,374.72247,79,127,40
374.7513,374.83786,77,127,40
374.8667,374.95325,75,127,40
374.9821,375.09747,75,127,40
375.13593,375.32825,74,127,40
375.44363,375.55902,75,127,40
375.59747,375.78976,74,127,40
375.90515,376.02054,75,127,40
376.05902,376.2513,74,127,40
376.3667,376.4821,75,127,40
376.52054,376.71286,74,127,40
378.71277,379.53085,60,127,40
378.71277,379.53085,68,127,40
379.8036,380.81503,60,127,40
379.8036,380.81503,62,127,40
381.23172,382.31503,60,127,40
381.23172,382.31503,63,127,40
383.23172,384.31503,60,127,40
383.23172,384.31503,63,127,40
384.73172,384.89005,60,127,40
384.73172,384.89005,63,127,40
385.06503,385.56503,67,127,40
386.06503,386.56503,67,127,40
386.60672,386.81503,71,127,40
387.06503,387.56503,67,127,40
387.60672,387.81503,71,127,40
388.06503,388.56503,79,127,40
388.60672,388.81503,83,127,40
389.06503,389.56503,67,127,40
390.06503,390.56503,67,127,40
390.60672,390.81503,71,127,40
391.06503,391.56503,68,127,40
391.60672,391.81503,72,127,40
392.06503,392.56503,72,127,40
392.60672,392.81503,76,127,40
393.06503,393.56503,79,127,40
393.60672,393.81503,83,127,40
394.06503,394.56503,79,127,40
394.60672,394.81503,83,127,40
394.94003,395.06503,79,127,40
395.10672,395.31503,83,127,40
395.44003,395.56503,79,127,40
395.60672,395.81503,83,127,40
395.94003,396.06503,79,127,40
396.10672,396.31503,83,127,40
396.44003,396.56503,79,127,40
396.60672,396.81503,83,127,40
397.60672,397.81503,60,127,40
397.86713,398.01816,60,127,40
398.07025,398.22128,62,127,40
398.27338,398.4244,60,127,40
398.56503,398.69003,59,127,40
398.81503,400.2601,68,127,40
400.74008,401.61505,77,127,40
401.74005,401.80774,56,127,40
401.85983,402.01086,58,127,40
402.06296,402.214,56,127,40
402.26608,402.4171,58,127,40
402.49005,402.61505,55,127,40
402.74005,404.18008,55,127,40
402.74005,404.18008,65,127,40
404.68005,405.08905,55,127,40
404.68005,405.08905,63,127,40
404.68005,405.08905,72,127,40
405.77084,406.17996,65,127,40
405.77084,406.17996,72,127,40
405.77084,406.17996,80,127,40
406.86176,407.27084,63,127,40
406.86176,407.27084,72,127,40
406.86176,407.27084,79,127,40
409.04358,409.45267,55,127,40
409.04358,409.45267,62,127,40
409.04358,409.45267,71,127,40
413.7255,414.2255,72,127,40
414.64215,415.2255,72,127,40
415.30884,415.4755,74,127,40
415.64215,417.7255,71,127,40
418.14215,418.7255,77,127,40
419.2255,419.7255,74,127,40
421.4755,421.7255,79,127,40
421.89215,422.2255,79,127,40
422.39215,422.7255,75,127,40
422.89215,423.2255,72,127,40
423.30884,423.4755,74,127,40
423.64215,425.7255,71,127,40
426.14215,426.7255,77,127,40
427.2255,429.7255,64,127,40
427.2255,429.7255,72,127,40
430.2255,430.7255,64,127,40
430.2255,430.7255,72,127,40
431.2255,432.86176,64,127,40
431.2255,432.86176,72,127,40
431.2255,432.86176,79,127,40
432.90723,433.1345,77,127,40
433.17993,433.40723,76,127,40
435.58902,437.2254,84,127,40
437.27084,437.4981,82,127,40
437.54358,437.77084,80,127,40
441.25644,441.37643,80,127,40
441.41644,441.61642,84,127,40
441.73645,441.88043,85,127,40
442.21643,442.32443,85,127,40
442.57645,442.61243,85,127,40
442.69644,442.84042,80,127,40
443.17188,443.2757,80,127,40
443.518,443.55264,80,127,40
443.6334,444.90262,82,127,40
445.018,445.12186,84,127,40
445.36417,445.39877,85,127,40
445.47955,445.618,87,127,40
445.9411,446.04492,87,127,40
446.28723,446.32187,85,127,40
446.40262,446.46033,85,127,40
446.86417,446.96802,84,127,40
447.21033,447.24493,82,127,40
447.3257,448.59494,81,127,40
448.71033,448.81415,82,127,40
449.05646,449.0911,84,127,40
449.17184,449.2757,85,127,40
449.518,449.5526,79,127,40
449.6334,449.73724,80,127,40
449.97955,450.01416,82,127,40
450.09494,450.19876,84,127,40
450.44107,450.4757,77,127,40
450.55646,450.6603,79,127,40
450.90262,450.93723,80,127,40
451.018,451.12186,82,127,40
451.36417,451.39877,76,127,40
451.47955,451.5834,77,127,40
451.82568,451.86032,79,127,40
451.94107,452.42105,80,127,40
452.82104,453.86105,77,127,40
454.74106,455.321,79,127,40
456.321,456.821,77,127,40
457.73767,458.821,75,127,40
459.73767,460.821,73,127,40
461.73767,462.321,74,127,40
463.071,463.446,79,127,40
463.571,463.946,84,127,40
464.071,464.446,87,127,40
464.571,464.946,91,127,40
465.071,465.146,91,127,40
465.321,465.396,91,127,40
465.571,465.646,91,127,40
465.821,465.896,91,127,40
466.071,466.146,91,127,40
466.321,466.396,91,127,40
466.571,466.646,91,127,40
466.821,468.321,91,127,40
468.36267,468.571,89,127,40
468.61267,468.821,87,127,40
470.821,472.321,84,127,40
472.36267,472.571,82,127,40
472.61267,472.821,80,127,40
474.821,476.321,77,127,40
476.36267,476.571,74,127,40
476.61267,476.821,71,127,40
478.23767,478.446,77,127,40
478.48767,478.696,74,127,40
478.821,479.821,72,127,40
480.821,481.0085,72,127,40
481.071,481.446,84,127,40
481.571,481.94104,84,127,40
482.06104,482.13306,84,127,40
482.30106,482.37305,86,127,40
482.54105,482.61304,87,127,40
482.78104,482.92505,89,127,40
483.26105,483.98105,89,127,40
484.22104,484.34103,87,127,40
484.38104,484.58105,84,127,40
484.62103,484.84503,91,127,40
485.18103,485.90103,91,127,40
486.14105,486.26105,89,127,40
486.30106,486.50104,86,127,40
486.62103,487.57648,84,127,40
488.49954,488.8457,84,127,40
491.15338,491.26877,79,127,40
492.07648,492.163,91,127,40
492.19183,492.65338,87,127,40
494.8457,494.96106,79,127,40
495.76877,495.85532,91,127,40
495.88416,496.3457,87,127,40
496.69183,496.8118,79,127,40
497.6518,497.7418,91,127,40
497.7718,498.2518,87,127,40
498.4918,498.61676,67,127,40
498.65842,498.86676,78,127,40
498.90842,499.11676,78,127,40
499.15842,499.36676,78,127,40
499.40842,499.61676,78,127,40
499.65842,500.15076,75,127,40
500.83258,501.28247,67,127,40
500.83258,501.28247,75,127,40
500.83258,501.28247,84,127,40
502.03247,502.48245,55,127,40
502.03247,502.48245,63,127,40
502.03247,502.48245,72,127,40
22.040907,22.24924,75,127,40
22.290907,22.49924,79,127,40
22.62424,22.99924,72,127,40
26.040907,26.24924,80,127,40
26.290907,26.49924,84,127,40
26.62424,26.99924,77,127,40
30.12424,30.24924,75,127,40
30.290907,30.49924,72,127,40
30.540907,32.12424,79,127,40
32.165905,32.37424,75,127,40
32.415905,32.62424,72,127,40
33.540905,34.62424,71,127,40
37.05898,37.406803,74,127,40
37.580715,38.97202,71,127,40
39.145935,39.49376,75,127,40
39.754627,40.53724,72,127,40
40.798107,41.34351,63,127,40
42.434418,43.22997,67,127,40
43.396633,43.72997,62,127,40
43.896633,44.22997,64,127,40
44.396633,44.72997,66,127,40
44.97997,46.22997,67,127,40
46.271633,46.47997,67,127,40
46.521633,46.72997,63,127,40
46.771633,46.97997,60,127,40
47.97997,48.0508,59,127,40
48.109135,48.2633,60,127,40
48.321636,48.4758,59,127,40
48.559135,48.7258,60,127,40
48.809135,48.9758,59,127,40
53.396633,53.72997,79,127,40
53.97997,54.47997,79,127,40
64.00102,64.11256,63,127,40
64.635635,64.83371,68,127,40
65.55871,65.75679,65,127,40
66.962555,67.65486,65,127,40
79.28905,79.413124,72,127,40
80.17794,80.30201,77,127,40
86.78904,87.085335,79,127,40
87.307556,87.37423,80,127,40
87.67793,87.97423,77,127,40
88.3446,88.64089,70,127,40
88.78904,89.085335,78,127,40
89.23348,89.37422,87,127,40
90.122375,90.263115,78,127,40
91.01126,91.152,78,127,40
93.640884,93.750145,57,127,40
93.863106,93.97237,60,127,40
94.08533,94.19459,63,127,40
94.307556,94.41681,67,127,40
94.52978,94.63903,70,127,40
94.752,94.86126,74,127,40
94.97422,95.08348,77,127,40
95.19644,95.3057,81,127,40
97.30755,97.41681,56,127,40
97.52977,97.63903,60,127,40
97.75199,97.86125,63,127,40
97.97421,98.08347,67,127,40
98.196434,98.305695,70,127,40
98.41866,98.527916,74,127,40
98.640884,98.75014,77,127,40
98.863106,98.97421,80,127,40
99.01125,99.196434,77,127,40
99.233475,99.418655,80,127,40
99.455696,99.640884,80,127,40
99.75199,99.863106,80,127,40
99.90014,100.08533,77,127,40
100.12236,100.30755,80,127,40
100.34458,100.52977,80,127,40
100.64088,100.75199,80,127,40
100.789024,100.97421,77,127,40
101.01125,101.196434,77,127,40
101.233475,101.418655,74,127,40
101.52977,101.64088,74,127,40
101.67792,101.8631,70,127,40
101.90014,102.08532,70,127,40
102.12236,102.30755,67,127,40
102.418655,102.5917,67,127,40
102.68785,102.85131,77,127,40
104.76477,104.92823,65,127,40
105.68785,105.85131,65,127,40
106.38016,106.54362,77,127,40
108.45708,108.62054,67,127,40
109.38015,109.54361,70,127,40
110.30323,110.46669,77,127,40
111.2263,111.38976,77,127,40
111.80322,111.99554,80,127,40
112.110916,112.19746,79,127,40
112.26476,112.45707,80,127,40
112.57246,112.659,79,127,40
112.7263,112.91861,80,127,40
113.034,113.12053,79,127,40
113.18784,113.38015,80,127,40
113.41861,114.04081,82,127,40
116.67717,117.7909,57,127,40
116.67717,117.7909,66,127,40
118.20757,119.2909,58,127,40
118.20757,119.2909,67,127,40
120.20757,121.2909,58,127,40
120.20757,121.2909,67,127,40
121.70757,121.862946,58,127,40
121.70757,121.862946,67,127,40
123.390945,123.59094,72,127,40
123.63094,123.78294,75,127,40
124.350945,124.55094,72,127,40
124.59094,124.74294,75,127,40
125.31094,125.51095,84,127,40
125.55094,125.70021,87,127,40
127.16944,127.36175,72,127,40
127.400215,127.546364,75,127,40
128.09251,128.28482,74,127,40
128.32329,128.46944,77,127,40
129.0156,129.2079,77,127,40
129.24637,129.39252,80,127,40
129.93867,130.13098,84,127,40
130.16943,130.3156,87,127,40
130.86174,131.05406,84,127,40
131.16943,131.20406,87,127,40
131.32329,131.5156,84,127,40
131.63098,131.66559,87,127,40
131.78482,131.97713,84,127,40
132.09251,132.12714,87,127,40
132.24637,132.43867,84,127,40
132.55405,132.58867,87,127,40
132.7079,132.9002,84,127,40
132.93867,133.89052,87,127,40
134.01552,134.08322,63,127,40
134.1353,134.28635,65,127,40
134.33842,134.48947,63,127,40
134.54155,134.6926,65,127,40
134.80717,135.01552,63,127,40
137.72717,137.93552,59,127,40
137.9876,138.13864,59,127,40
138.19072,138.34177,61,127,40
138.39384,138.54489,59,127,40
138.72717,138.93552,59,127,40
150.55582,151.13914,79,127,40
152.05582,154.13914,74,127,40
154.55582,155.13914,74,127,40
156.05582,158.13914,75,127,40
158.63914,159.13914,75,127,40
158.63914,159.13914,78,127,40
159.63914,162.13914,75,127,40
159.63914,162.13914,78,127,40
162.55582,163.13914,87,127,40
164.05582,166.13914,82,127,40
166.55582,167.13914,82,127,40
168.05582,170.13914,83,127,40
170.63914,171.13914,71,127,40
170.63914,171.13914,74,127,40
171.63914,174.13914,71,127,40
171.63914,174.13914,74,127,40
174.55582,175.13914,83,127,40
175.63914,176.13914,79,127,40
178.13914,178.63914,87,127,40
179.05582,179.51414,86,127,40
180.05582,182.11919,79,127,40
182.15918,182.35919,72,127,40
182.39919,182.59918,71,127,40
183.11919,183.31918,72,127,40
183.35919,183.55919,71,127,40
184.07918,184.27919,72,127,40
184.31918,184.51918,71,127,40
185.03918,185.23918,74,127,40
185.27919,185.47919,72,127,40
185.99919,186.19919,75,127,40
186.23918,186.43918,74,127,40
186.95918,187.15918,77,127,40
187.19919,187.39919,75,127,40
190.43768,190.54922,68,127,40
191.0723,191.27037,73,127,40
191.99538,192.19345,70,127,40
192.91844,193.11653,67,127,40
201.33217,201.43958,60,127,40
202.22105,202.40623,75,127,40
202.44327,202.62846,75,127,40
202.6655,202.85068,78,127,40
202.88771,203.0729,79,127,40
203.10994,203.29512,82,127,40
203.33217,203.51735,80,127,40
203.55438,203.73956,84,127,40
203.96179,204.07104,73,127,40
204.184,204.29327,72,127,40
204.40623,204.51549,70,127,40
204.62846,204.73772,69,127,40
204.85068,204.95993,66,127,40
205.0729,205.18216,65,127,40
205.29512,205.40439,63,127,40
205.51735,205.73679,61,127,40
205.77661,205.96179,72,127,40
205.99883,206.184,72,127,40
206.22105,206.40623,75,127,40
206.44327,206.62845,76,127,40
206.6655,206.85068,79,127,40
206.88771,207.07289,77,127,40
207.10994,207.29512,81,127,40
207.44327,207.6266,70,127,40
207.73956,207.84883,68,127,40
207.96179,208.07104,66,127,40
208.184,208.29327,65,127,40
208.40623,208.51549,63,127,40
208.62845,208.73772,61,127,40
208.85068,208.95993,59,127,40
209.07289,209.41046,58,127,40
222.60277,222.91046,72,127,40
223.0643,223.372,75,127,40
223.52583,223.77583,78,127,40
225.2566,225.44891,77,127,40
225.48738,225.67969,74,127,40
227.10275,227.29506,75,127,40
227.33353,227.52583,72,127,40
229.98737,230.29506,72,127,40
230.44891,230.7566,75,127,40
230.91045,231.21814,78,127,40
232.64122,232.83353,77,127,40
232.87198,233.06429,74,127,40
234.48737,234.67967,75,127,40
234.71814,234.91045,72,127,40
235.29506,235.71814,79,127,40
236.33351,236.52582,75,127,40
236.56429,236.75659,72,127,40
237.1412,237.67967,79,127,40
238.17967,238.37198,75,127,40
238.41045,238.60275,72,127,40
244.10611,244.24246,75,127,40
244.28792,244.5152,79,127,40
244.65157,245.06065,72,127,40
248.5152,248.74246,82,127,40
248.78792,249.0152,80,127,40
252.46973,252.83337,75,127,40
258.09372,260.34354,67,127,40
275.79385,276.34384,79,127,40
278.51074,278.71906,75,127,40
278.76074,278.96906,79,127,40
279.09406,279.46906,72,127,40
282.51074,282.71906,80,127,40
282.76074,282.96906,84,127,40
283.09406,283.46906,77,127,40
286.59406,286.71906,75,127,40
286.76074,286.96906,72,127,40
287.01074,288.59406,79,127,40
288.63574,288.84406,75,127,40
288.88574,289.0628,72,127,40
290.01074,291.09406,71,127,40
293.5288,293.87662,74,127,40
294.13748,295.44183,71,127,40
295.61575,295.9636,75,127,40
296.22446,297.00705,72,127,40
297.7224,298.6315,67,127,40
299.6998,299.9498,61,127,40
300.11646,300.4498,63,127,40
300.61646,300.9498,65,127,40
301.11646,301.3873,67,127,40
302.6998,302.8248,68,127,40
302.86646,303.0748,65,127,40
303.11646,303.3248,62,127,40
304.4498,304.52063,59,127,40
304.57895,304.73312,60,127,40
304.79144,304.94562,59,127,40
305.02896,305.19562,60,127,40
305.27896,305.44562,59,127,40
309.86646,310.1998,79,127,40
310.4498,310.8248,79,127,40
317.26825,317.4046,79,127,40
317.45007,317.67734,75,127,40
319.52817,319.67102,80,127,40
319.71863,319.95673,77,127,40
327.189,327.30502,72,127,40
327.8312,328.02927,77,127,40
328.75427,328.95236,74,127,40
330.1581,330.85043,74,127,40
343.4038,343.5279,77,127,40
344.2927,344.41678,79,127,40
350.01492,350.31122,76,127,40
350.53342,350.6001,71,127,40
350.9038,351.2001,74,127,40
351.4223,351.48898,72,127,40
351.7927,352.089,84,127,40
352.45935,352.7001,72,127,40
353.34824,353.48898,75,127,40
354.23712,354.37787,75,127,40
356.97787,357.08713,62,127,40
357.20007,357.30936,65,127,40
357.4223,357.53156,68,127,40
357.64453,357.75378,72,127,40
357.86676,357.976,75,127,40
358.089,358.19824,79,127,40
358.3112,358.42047,82,127,40
358.53342,358.66675,86,127,40
360.34824,360.53156,63,127,40
360.64453,360.75378,67,127,40
360.86676,360.976,70,127,40
361.08896,361.19824,74,127,40
361.23712,361.4223,74,127,40
361.45935,361.64453,74,127,40
361.68158,361.86676,74,127,40
361.90378,362.08896,76,127,40
362.126,362.3112,76,127,40
362.34824,362.53342,76,127,40
362.57047,362.75565,75,127,40
362.79266,362.95007,75,127,40
363.0149,363.20007,76,127,40
363.23712,363.4223,76,127,40
363.45935,363.64453,75,127,40
363.68155,363.83896,75,127,40
363.90378,364.08896,79,127,40
364.126,364.3112,75,127,40
364.34824,364.53342,75,127,40
364.57047,364.75565,72,127,40
365.79266,365.9821,78,127,40
366.02057,366.21286,77,127,40
366.2513,366.44363,74,127,40
366.4821,366.6744,71,127,40
366.71286,366.90518,74,127,40
366.94363,367.13593,71,127,40
367.1744,367.3667,67,127,40
367.40518,367.56863,63,127,40
367.9821,368.14557,74,127,40
368.90518,369.06863,74,127,40
369.4821,369.6744,78,127,40
369.71286,369.90518,77,127,40
369.94363,370.13593,74,127,40
370.1744,370.3667,71,127,40
370.40518,370.59747,74,127,40
370.63593,370.82825,71,127,40
370.8667,371.05902,67,127,40
371.09747,371.26093,63,127,40
371.6744,371.83786,75,127,40
372.59747,372.76093,79,127,40
373.52054,373.68402,83,127,40
374.44363,374.6071,83,127,40
375.02054,375.21286,77,127,40
375.2513,375.41476,75,127,40
375.4821,375.6744,77,127,40
375.71286,375.8763,75,127,40
375.94363,376.13593,77,127,40
376.1744,376.33786,75,127,40
376.40515,376.59747,77,127,40
376.63593,377.08777,79,127,40
380.73172,381.31503,60,127,40
380.73172,381.31503,63,127,40
382.23172,383.31503,60,127,40
382.23172,383.31503,63,127,40
384.23172,384.81503,59,127,40
384.23172,384.81503,65,127,40
385.56503,386.06503,67,127,40
386.48172,386.69003,69,127,40
386.73172,386.89005,72,127,40
387.48172,387.69003,69,127,40
387.73172,387.89005,72,127,40
388.48172,388.69003,81,127,40
388.73172,388.89005,84,127,40
389.56503,390.06503,67,127,40
390.48172,390.69003,69,127,40
390.73172,390.89005,72,127,40
391.48172,391.69003,70,127,40
391.73172,391.89005,73,127,40
392.48172,392.69003,74,127,40
392.73172,392.89005,77,127,40
393.48172,393.69003,81,127,40
393.73172,393.89005,84,127,40
394.48172,394.69003,81,127,40
394.81503,394.90878,84,127,40
394.98172,395.19003,81,127,40
395.31503,395.40878,84,127,40
395.48172,395.69003,81,127,40
395.81503,395.90878,84,127,40
395.98172,396.19003,81,127,40
396.31503,396.40878,84,127,40
396.48172,396.69003,81,127,40
396.81503,397.69003,84,127,40
397.81503,397.88275,60,127,40
397.93484,398.08588,62,127,40
398.13797,398.289,60,127,40
398.3411,398.49213,62,127,40
398.60672,398.81503,60,127,40
401.5317,401.74005,56,127,40
401.7921,401.94318,56,127,40
401.99524,402.1463,58,127,40
402.19836,402.34943,56,127,40
402.5317,402.74005,56,127,40
414.14215,414.7255,76,127,40
415.2255,415.30884,71,127,40
415.39215,415.7255,72,127,40
417.7255,418.2255,74,127,40
418.64215,419.2255,71,127,40
419.64215,421.4755,72,127,40
421.64215,421.9755,78,127,40
422.14215,422.4755,77,127,40
422.64215,422.9755,74,127,40
423.2255,423.30884,71,127,40
423.39215,423.7255,72,127,40
425.7255,426.2255,74,127,40
426.64215,427.2255,71,127,40
429.7255,430.2255,64,127,40
429.7255,430.2255,72,127,40
430.7255,431.2255,64,127,40
430.7255,431.2255,72,127,40
432.86176,432.99814,76,127,40
433.04358,433.27084,79,127,40
433.3163,433.8163,72,127,40
437.2254,437.36176,80,127,40
437.4072,437.6345,84,127,40
437.67993,438.17993,77,127,40
441.29645,441.49643,82,127,40
441.53644,441.73645,80,127,40
444.8257,444.93726,82,127,40
446.3834,446.58148,84,127,40
448.518,448.62955,81,127,40
452.34103,452.90103,79,127,40
453.78104,454.82104,78,127,40
456.821,457.821,76,127,40
458.821,459.821,74,127,40
460.821,461.821,72,127,40
462.23767,463.071,75,127,40
468.321,468.446,87,127,40
468.48767,468.696,91,127,40
468.73767,469.196,84,127,40
472.321,472.446,80,127,40
472.48767,472.696,84,127,40
472.73767,473.196,77,127,40
476.321,476.446,75,127,40
476.48767,476.696,72,127,40
476.73767,478.321,79,127,40
478.36267,478.571,75,127,40
478.61267,478.821,72,127,40
479.73767,480.821,71,127,40
484.26105,484.46103,86,127,40
484.50104,484.70105,83,127,40
486.18103,486.38104,87,127,40
486.42105,486.62103,84,127,40
487.49954,488.49954,83,127,40
491.26877,491.87454,91,127,40
494.96106,495.56683,91,127,40
496.8118,497.4418,91,127,40
498.53342,498.74176,79,127,40
498.78342,498.99176,79,127,40
499.03342,499.24176,79,127,40
499.28342,499.49176,79,127,40
499.53342,499.74176,79,127,40
47.96747,48.121635,60,127,40
48.17997,48.334133,59,127,40
48.392467,48.559135,60,127,40
48.642467,48.809135,59,127,40
133.9999,134.15092,65,127,40
134.20302,134.35405,63,127,40
134.40614,134.55717,65,127,40
134.60927,134.7603,63,127,40
137.91989,138.07092,61,127,40
138.12302,138.27405,59,127,40
138.32614,138.47717,61,127,40
138.52927,138.6803,59,127,40
304.4373,304.59146,60,127,40
304.64978,304.80396,59,127,40
304.8623,305.02896,60,127,40
305.1123,305.27896,59,127,40
397.7994,397.95047,62,127,40
398.00253,398.1536,60,127,40
398.20566,398.35672,62,127,40
398.40878,398.55984,60,127,40
401.72443,401.87546,58,127,40
401.92755,402.07858,56,127,40
402.13068,402.2817,58,127,40
402.3338,402.48483,56,127,40
415.2255,415.39215,72,127,40
423.2255,423.39215,72,127,40
