start_time,end_time,note_value,velocity,instrument_program_number
1.0,3.180587,44,69,0
1.0,3.180587,56,69,0
3.180587,4.8169503,46,69,0
3.180587,4.8169503,53,69,0
5.362405,6.180587,51,69,0
6.453314,7.271496,49,50,0
6.453314,7.271496,51,50,0
7.544223,8.771496,48,59,0
7.544223,8.771496,51,59,0
9.726041,11.416722,56,69,0
9.726041,11.416722,60,69,0
11.416722,11.7167225,58,97,0
11.416722,11.7167225,61,97,0
11.7167225,11.941723,60,101,0
11.7167225,11.941723,63,101,0
12.016723,14.635132,61,127,0
12.016723,14.635132,65,127,0
15.453314,16.271496,58,77,0
15.453314,16.271496,61,77,0
16.271496,16.47604,61,69,0
16.271496,16.47604,65,69,0
16.544222,17.635132,63,69,0
17.635132,18.044222,51,69,0
18.72604,19.81695,56,69,0
18.72604,19.81695,60,69,0
19.81695,20.907858,53,69,0
19.81695,20.907858,56,69,0
20.907858,22.544222,50,69,0
20.907858,22.544222,56,69,0
23.089676,24.72604,46,69,0
23.089676,24.72604,50,69,0
24.72604,24.998768,48,69,0
24.72604,24.998768,51,69,0
24.998768,25.203312,50,69,0
24.998768,25.203312,53,69,0
25.271494,26.498768,51,69,0
25.271494,26.498768,55,69,0
27.453312,28.271494,55,69,0
27.453312,28.271494,58,69,0
27.453312,28.271494,63,69,0
28.544222,29.362404,55,53,0
28.544222,29.362404,58,53,0
28.544222,29.362404,63,53,0
29.63513,31.380585,56,68,0
29.63513,31.380585,60,68,0
29.63513,31.380585,63,68,0
31.380585,31.653313,55,89,0
31.380585,31.653313,58,89,0
31.653313,31.857857,53,90,0
31.653313,31.857857,56,90,0
31.926039,32.74422,58,69,0
33.01695,33.83513,34,69,0
33.01695,33.83513,46,69,0
34.107857,35.90763,39,69,0
34.107857,35.90763,51,69,0
36.50763,38.144222,32,69,0
36.50763,38.144222,44,69,0
38.689674,40.32604,34,69,0
38.689674,40.32604,46,69,0
40.32604,40.598766,36,69,0
40.598766,40.871494,37,69,0
40.871494,41.962402,39,69,0
41.962402,42.780582,37,69,0
41.962402,42.780582,46,69,0
43.05331,44.689674,36,69,0
43.05331,44.689674,44,69,0
45.23513,46.871494,44,69,0
45.23513,46.871494,48,69,0
46.871494,47.14422,46,97,0
46.871494,47.14422,49,97,0
47.14422,47.348766,48,101,0
47.14422,47.348766,51,101,0
47.416946,49.871494,49,127,0
47.416946,49.871494,53,127,0
50.689674,51.507854,46,77,0
50.689674,51.507854,49,77,0
51.507854,51.712402,49,77,0
51.507854,51.712402,53,77,0
51.780582,52.871494,51,77,0
52.871494,53.280582,39,77,0
53.962402,54.780582,44,77,0
53.962402,54.780582,48,77,0
55.05331,55.87149,41,77,0
55.05331,55.87149,48,77,0
56.14422,57.780582,38,77,0
56.14422,57.780582,46,77,0
58.32604,59.962402,34,77,0
58.32604,59.962402,46,77,0
59.962402,60.235126,36,77,0
60.235126,60.439674,38,77,0
60.507854,62.14422,39,77,0
60.507854,62.14422,46,77,0
62.689674,63.507854,31,77,0
62.689674,63.507854,43,77,0
63.780582,64.59876,31,80,0
63.780582,64.59876,43,80,0
64.87149,66.61694,32,84,0
64.87149,66.61694,44,84,0
66.61694,66.88967,31,89,0
66.61694,66.88967,43,89,0
66.88967,67.094215,29,90,0
66.88967,67.094215,41,90,0
67.1624,67.98058,34,69,0
67.1624,67.98058,46,69,0
68.25331,69.07149,34,69,0
68.25331,69.07149,46,69,0
69.344215,70.98058,39,69,0
71.52604,72.07149,55,69,0
72.07149,72.61694,51,69,0
72.61694,73.1624,55,69,0
73.1624,73.707855,51,69,0
73.707855,74.25331,56,69,0
74.25331,74.79877,51,69,0
74.79877,75.344215,60,69,0
75.344215,75.88967,51,69,0
75.88967,76.43513,56,69,0
76.43513,76.98058,51,69,0
76.98058,77.52604,56,69,0
77.52604,78.07149,57,69,0
78.07149,78.61694,58,69,0
78.61694,79.1624,51,69,0
79.1624,79.707855,55,69,0
79.707855,80.25331,51,69,0
80.25331,80.79876,58,69,0
80.79876,81.344215,51,71,0
81.344215,81.88967,59,74,0
81.88967,82.43513,51,77,0
82.43513,82.98058,60,80,0
82.98058,83.52604,63,83,0
83.52604,84.07149,60,86,0
84.07149,84.61694,56,89,0
84.61694,85.1624,55,92,0
85.1624,85.707855,51,86,0
85.707855,86.25331,56,80,0
86.25331,86.6624,60,74,0
86.79876,87.207855,63,69,0
87.344215,87.75331,51,69,0
87.88967,88.29876,51,69,0
88.43513,88.844215,51,69,0
88.98058,90.07149,44,69,0
88.98058,90.07149,56,69,0
90.07149,91.1624,45,71,0
90.07149,91.1624,57,71,0
91.1624,92.79876,46,74,0
91.1624,92.79876,58,74,0
92.79876,93.344215,47,79,0
92.79876,93.344215,59,79,0
93.344215,94.1624,48,80,0
93.344215,94.1624,60,80,0
94.43513,95.2533,48,83,0
94.43513,95.2533,58,83,0
95.52603,96.61694,41,86,0
95.52603,96.61694,53,86,0
96.61694,97.516716,43,105,0
96.61694,97.516716,51,105,0
96.61694,97.516716,55,105,0
97.81672,98.83967,44,69,0
97.81672,98.83967,56,69,0
99.18058,99.45331,56,76,0
99.18058,99.45331,60,76,0
99.45331,99.726036,58,77,0
99.45331,99.726036,61,77,0
99.726036,99.93058,60,79,0
99.726036,99.93058,63,79,0
99.998764,101.08967,61,80,0
99.998764,101.08967,65,80,0
101.45331,101.726036,60,88,0
101.45331,101.726036,63,88,0
101.81694,102.08967,58,89,0
101.81694,102.08967,61,89,0
102.18058,102.54421,63,92,0
102.54421,102.81694,60,89,0
102.18058,102.998764,51,92,0
102.90785,103.016945,60,88,0
103.27149,103.635124,55,86,0
103.635124,103.90785,61,84,0
103.27149,104.08967,51,86,0
103.998764,104.10785,61,82,0
104.3624,104.444214,56,80,0
104.3624,104.444214,60,80,0
104.635124,104.90785,51,79,0
104.90785,105.18058,53,77,0
105.18058,105.45331,51,76,0
105.45331,105.726036,49,74,0
105.726036,105.998764,48,73,0
105.998764,106.271484,46,71,0
106.271484,106.476036,44,70,0
106.54421,107.08967,43,69,0
107.08967,107.635124,39,69,0
107.635124,108.18058,43,69,0
108.18058,108.726036,39,69,0
108.726036,109.271484,44,69,0
109.271484,109.81694,39,69,0
109.81694,110.3624,48,69,0
110.3624,110.771484,39,69,0
110.90785,111.45331,44,69,0
111.45331,111.998764,39,69,0
111.998764,112.54421,44,69,0
112.54421,113.08967,45,69,0
113.08967,113.635124,46,69,0
113.635124,114.18058,39,69,0
114.18058,114.726036,43,69,0
114.726036,115.271484,39,69,0
115.271484,115.81694,46,69,0
115.81694,116.3624,39,71,0
116.3624,116.90785,47,74,0
116.90785,117.45331,39,77,0
117.45331,117.99876,48,80,0
117.99876,118.54421,51,83,0
118.54421,119.08967,48,86,0
119.08967,119.635124,44,89,0
119.635124,120.18058,43,92,0
120.18058,120.726036,39,86,0
120.726036,121.271484,44,80,0
121.271484,121.68058,48,74,0
121.81694,122.226036,51,69,0
122.3624,122.771484,39,69,0
122.90785,123.31694,39,69,0
123.45331,123.8624,39,69,0
123.99876,125.08967,32,69,0
123.99876,125.08967,44,69,0
125.08967,126.18058,33,71,0
125.08967,126.18058,45,71,0
126.18058,127.81694,34,74,0
126.18058,127.81694,46,74,0
127.81694,128.22603,35,79,0
127.81694,128.22603,47,79,0
128.3624,129.18057,36,80,0
128.3624,129.18057,48,80,0
129.45331,130.27148,36,83,0
129.45331,130.27148,48,83,0
130.54422,131.63512,29,86,0
130.54422,131.63512,41,86,0
131.63512,132.8349,31,107,0
131.63512,132.8349,43,107,0
132.8349,134.19876,32,69,0
132.8349,134.19876,44,69,0
134.19876,134.47148,44,71,0
134.19876,134.47148,48,71,0
134.47148,134.74422,46,73,0
134.47148,134.74422,49,73,0
134.74422,134.94876,48,74,0
134.74422,134.94876,51,74,0
135.01694,136.10785,49,77,0
135.01694,136.10785,53,77,0
136.47148,136.74422,48,86,0
136.47148,136.74422,51,86,0
136.83513,137.10785,46,89,0
136.83513,137.10785,49,89,0
137.19876,138.01694,51,92,0
138.28967,139.10785,39,80,0
139.38057,139.78967,32,69,0
139.38057,139.78967,44,69,0
140.47148,141.5624,59,69,0
140.47148,141.5624,63,69,0
141.5624,142.6533,58,69,0
141.5624,142.6533,61,69,0
142.6533,143.59113,51,69,0
142.6533,143.59113,58,69,0
142.6533,143.59113,61,69,0
143.59113,144.05988,56,69,0
143.59113,144.05988,59,69,0
145.7005,145.77081,37,69,0
145.93488,146.00519,40,69,0
146.16925,146.23956,44,69,0
146.40363,146.47394,49,69,0
146.638,146.70831,52,69,0
146.87238,146.94269,56,69,0
147.10675,147.17706,61,69,0
147.34113,147.69269,51,69,0
149.4505,149.52081,37,69,0
149.68488,149.75519,43,69,0
149.91925,149.98956,46,69,0
150.15363,150.22394,49,69,0
150.388,150.45831,55,69,0
150.62238,150.69269,58,69,0
150.85675,150.92706,61,69,0
151.09113,151.44269,47,69,0
153.2005,153.27081,31,81,0
153.43488,153.50519,34,83,0
153.66925,153.73956,39,84,0
153.90363,153.97394,43,86,0
154.138,154.20831,46,87,0
154.37238,154.44269,51,89,0
154.60675,154.67706,55,90,0
154.84113,155.19269,44,69,0
154.84113,155.19269,56,69,0
155.77863,156.13019,38,69,0
155.77863,156.13019,50,69,0
156.71613,156.9505,39,69,0
156.71613,156.9505,51,69,0
156.9505,157.18488,58,71,0
157.18488,157.41925,55,74,0
157.41925,157.65363,52,77,0
157.65363,157.888,51,80,0
157.888,158.12238,49,83,0
158.12238,158.35675,47,86,0
158.35675,158.59113,46,89,0
158.59113,158.94269,44,69,0
160.7005,160.77081,37,69,0
160.93488,161.00519,40,69,0
161.16925,161.23956,44,69,0
161.40363,161.47394,49,69,0
161.638,161.70831,52,69,0
161.87238,161.94269,56,69,0
162.10675,162.17706,61,69,0
162.34113,162.69269,47,69,0
164.4505,164.52081,39,69,0
164.68488,164.75519,46,69,0
164.91925,164.98956,49,69,0
165.15363,165.22394,51,69,0
165.388,165.45831,55,69,0
165.62238,165.69269,58,69,0
165.85675,165.92706,61,69,0
166.09113,166.44269,52,69,0
168.2005,168.27081,38,81,0
168.43488,168.50519,41,83,0
168.66925,168.73956,46,84,0
168.90363,168.97394,50,86,0
169.138,169.20831,53,87,0
169.37238,169.44269,58,89,0
169.60675,169.67706,62,90,0
169.84113,170.19269,51,69,0
171.9505,172.18488,54,71,0
172.18488,172.41925,53,74,0
172.41925,172.65363,51,77,0
172.65363,172.888,49,80,0
172.888,173.12238,48,83,0
173.12238,173.35675,46,86,0
173.35675,173.59113,45,89,0
173.59113,173.66144,46,69,0
173.8255,173.89581,34,69,0
174.05988,174.13019,37,69,0
174.29425,174.36456,41,69,0
174.52863,174.59894,46,69,0
174.763,174.83331,49,69,0
174.99738,175.06769,53,69,0
175.23175,175.30206,58,69,0
175.46613,175.81769,51,69,0
177.5755,177.64581,29,69,0
177.80988,177.88019,34,69,0
178.04425,178.11456,37,69,0
178.27863,178.34894,41,69,0
178.513,178.58331,46,69,0
178.74738,178.81769,49,69,0
178.98175,179.05206,53,69,0
179.21613,179.56769,41,69,0
181.3255,181.39581,30,69,0
181.55988,181.63019,34,70,0
181.79425,181.86456,37,70,0
182.02863,182.09894,42,71,0
182.263,182.33331,46,71,0
182.49738,182.56769,49,71,0
182.73175,182.80206,54,72,0
182.96613,183.31769,43,73,0
185.0755,185.14581,32,77,0
185.30988,185.38019,35,77,0
185.54425,185.61456,39,77,0
185.77863,185.84894,44,78,0
186.013,186.08331,47,79,0
186.24738,186.31769,51,79,0
186.48175,186.55206,56,80,0
186.71613,187.06769,40,80,0
188.8255,188.89581,39,84,0
189.05988,189.13019,43,85,0
189.29425,189.36456,46,85,0
189.52863,189.59894,51,86,0
189.763,189.83331,55,86,0
189.99738,190.06769,58,86,0
190.23175,190.30206,63,87,0
190.46613,190.81769,51,107,0
192.5755,192.64581,39,69,0
192.80988,192.88019,43,69,0
193.04425,193.11456,46,69,0
193.27863,193.34894,51,69,0
193.513,193.58331,55,69,0
193.74738,193.81769,58,69,0
193.98175,194.05206,63,69,0
194.21613,194.56769,51,107,0
196.3255,196.39581,39,69,0
196.55988,196.63019,43,69,0
196.79425,196.86456,46,69,0
197.02863,197.09894,51,69,0
197.263,197.33331,46,69,0
197.49738,197.56769,43,69,0
197.73175,197.80206,39,69,0
198.2005,198.27081,39,69,0
198.43488,198.50519,43,69,0
198.66925,198.73956,46,69,0
198.90363,198.97394,51,69,0
199.138,199.20831,46,69,0
199.37238,199.44269,43,69,0
199.60675,199.67706,39,69,0
200.0755,200.30988,39,68,0
200.30988,200.54425,43,68,0
200.54425,200.77863,46,68,0
200.77863,201.013,51,67,0
201.013,201.24738,46,66,0
201.24738,201.48175,43,66,0
201.48175,201.71613,39,65,0
201.71613,201.9505,51,65,0
201.9505,202.18488,46,65,0
202.18488,202.41925,43,64,0
202.41925,202.65363,39,64,0
202.65363,202.888,51,63,0
202.888,203.12238,46,62,0
203.12238,203.35675,43,62,0
203.35675,203.59113,39,62,0
203.59113,203.8255,49,62,0
203.8255,204.05988,46,62,0
204.05988,204.29425,43,62,0
204.29425,204.52863,39,62,0
204.52863,204.763,49,62,0
204.763,204.99738,46,62,0
204.99738,205.23175,43,62,0
205.23175,205.46613,39,63,0
205.46613,205.7005,49,64,0
205.7005,205.93488,46,65,0
205.93488,206.16925,43,65,0
206.16925,206.40363,39,65,0
206.40363,206.638,49,66,0
206.638,206.87238,46,67,0
206.87238,207.10675,43,68,0
207.10675,207.28253,39,68,0
207.34113,207.5755,49,69,0
207.5755,207.80988,46,69,0
207.80988,208.04425,43,69,0
208.04425,208.27863,44,69,0
208.27863,208.513,46,69,0
208.513,208.74738,48,69,0
208.74738,208.98175,49,69,0
208.98175,209.21613,51,69,0
209.21613,209.4505,53,69,0
209.4505,209.68488,55,69,0
209.68488,209.91925,56,69,0
209.91925,210.15363,58,69,0
210.15363,210.388,60,69,0
210.388,210.62238,61,69,0
210.62238,210.85675,63,69,0
210.85675,211.09113,65,69,0
211.09113,211.3255,67,69,0
211.3255,211.55988,68,70,0
211.55988,211.79425,70,71,0
211.79425,212.02863,72,73,0
212.02863,212.263,73,74,0
212.263,212.49738,75,76,0
212.49738,212.73175,77,77,0
212.73175,212.96613,75,79,0
212.96613,213.2005,73,80,0
213.2005,213.43488,72,81,0
213.43488,213.66925,70,83,0
213.66925,213.90363,68,84,0
213.90363,214.138,67,86,0
214.138,214.37238,68,87,0
214.37238,214.60675,70,89,0
214.60675,214.84113,72,90,0
214.84113,215.0755,73,92,0
215.0755,215.30988,72,89,0
215.30988,215.55174,70,86,0
215.55174,215.79369,68,83,0
215.79369,216.04361,67,80,0
216.04361,216.29361,65,77,0
216.29361,216.54361,63,74,0
216.54361,216.7375,61,71,0
216.80215,217.83664,56,69,0
216.80215,217.83664,60,69,0
217.83664,218.87112,44,69,0
217.83664,218.87112,56,69,0
218.87112,220.42285,46,69,0
218.87112,220.42285,53,69,0
220.9401,221.71596,51,69,0
221.97458,222.75043,49,50,0
221.97458,222.75043,51,50,0
223.00905,224.0979,48,59,0
223.00905,224.0979,51,59,0
224.94467,226.49626,56,69,0
224.94467,226.49626,60,69,0
226.49626,227.0135,57,86,0
226.49626,227.0135,60,86,0
227.0135,227.53075,58,92,0
227.0135,227.53075,61,92,0
227.53075,228.04799,60,92,0
227.53075,228.04799,63,92,0
228.04799,229.5997,61,109,0
228.04799,229.5997,65,109,0
230.11694,230.8928,58,69,0
230.11694,230.8928,61,69,0
230.8928,231.08678,61,69,0
230.8928,231.08678,65,69,0
231.15143,232.11931,63,69,0
232.11931,232.48221,51,69,0
233.12029,234.15477,56,69,0
233.12029,234.15477,60,69,0
234.15477,234.93062,53,69,0
234.15477,234.93062,56,69,0
235.18924,236.74097,50,69,0
235.18924,236.74097,56,69,0
237.25821,238.70996,46,69,0
237.25821,238.70996,50,69,0
238.70996,238.95189,48,69,0
238.70996,238.95189,51,69,0
238.95189,239.13335,50,69,0
238.95189,239.13335,53,69,0
239.19383,240.35748,51,69,0
239.19383,240.35748,55,69,0
241.26265,242.03851,55,69,0
241.26265,242.03851,58,69,0
242.29713,243.073,55,50,0
242.29713,243.073,58,50,0
242.29713,243.073,61,50,0
243.33162,244.91144,56,69,0
243.33162,244.91144,60,69,0
244.91144,245.18416,55,69,0
244.91144,245.18416,58,69,0
245.18416,245.38872,53,69,0
245.18416,245.38872,56,69,0
245.4569,246.27507,58,69,0
246.5478,247.36598,34,69,0
246.5478,247.36598,46,69,0
247.6387,249.27507,39,69,0
247.6387,249.27507,51,69,0
249.94995,250.07927,32,69,0
250.07927,250.20857,34,69,0
250.20857,250.33789,36,69,0
250.33789,250.4672,37,69,0
250.4672,250.59651,39,69,0
250.59651,250.72581,41,69,0
250.72581,250.85513,43,69,0
250.85513,250.98444,44,69,0
250.98444,251.11375,46,69,0
251.11375,251.24306,48,69,0
251.24306,251.37238,46,69,0
251.37238,251.50168,44,69,0
251.50168,251.63098,43,69,0
251.63098,251.7603,41,69,0
251.7603,251.8896,39,69,0
251.8896,252.27754,37,69,0
254.08789,254.2172,39,69,0
254.2172,254.34651,41,69,0
254.34651,254.47581,43,69,0
254.47581,254.60512,44,69,0
254.60512,254.73444,46,69,0
254.73444,254.86374,48,69,0
254.86374,254.99306,50,69,0
254.99306,255.12236,51,69,0
255.12236,255.25168,53,69,0
255.25168,255.38098,51,69,0
255.38098,255.5103,53,69,0
255.5103,255.6396,49,69,0
255.6396,255.76892,51,69,0
255.76892,255.89822,49,69,0
255.89822,256.02753,51,69,0
256.02753,256.41547,48,69,0
258.2258,258.35513,33,70,0
258.35513,258.48444,34,71,0
258.48444,258.61374,36,73,0
258.61374,258.74304,37,74,0
258.74304,258.87238,39,76,0
258.87238,259.00168,41,77,0
259.00168,259.13098,43,79,0
259.13098,259.26028,45,80,0
259.26028,259.38962,46,81,0
259.38962,259.51892,48,83,0
259.51892,259.64822,49,84,0
259.64822,259.77753,51,86,0
259.77753,259.90683,53,87,0
259.90683,260.03616,55,89,0
260.03616,260.16547,56,90,0
260.16547,260.20425,58,109,0
260.29477,260.39175,46,92,0
260.42407,260.52106,49,92,0
260.5534,260.6504,46,92,0
260.6827,260.7797,49,92,0
260.812,260.909,46,92,0
260.9413,261.0383,49,92,0
261.07065,261.16763,46,92,0
261.19995,261.29694,49,92,0
261.32925,261.42624,46,92,0
261.45856,261.55554,49,92,0
261.5879,261.68488,46,92,0
261.7172,261.81418,49,92,0
261.8465,261.94348,46,92,0
261.9758,262.07278,49,92,0
262.10513,262.2021,46,92,0
262.23444,262.33142,34,92,0
262.36374,262.46072,46,92,0
262.49304,262.59003,34,92,0
262.62238,262.71933,46,92,0
262.75168,262.84866,34,92,0
262.88098,262.97797,46,92,0
263.01028,263.10727,34,92,0
263.1396,263.23657,46,92,0
263.26892,263.3659,37,92,0
263.39822,263.4952,49,92,0
263.52753,263.6245,37,92,0
263.65683,263.7538,49,92,0
263.78616,263.88315,34,92,0
263.91547,264.01245,46,92,0
264.04477,264.14175,34,92,0
264.17407,264.27106,46,92,0
264.4327,264.562,39,69,0
264.562,264.6913,41,69,0
264.6913,264.82065,43,69,0
264.82065,264.94995,44,69,0
264.94995,265.07925,46,69,0
265.07925,265.20856,48,69,0
265.20856,265.3379,50,69,0
265.3379,265.4672,51,69,0
265.4672,265.5965,50,69,0
265.5965,265.7258,51,69,0
265.7258,265.8551,53,69,0
265.8551,265.98444,51,69,0
265.98444,266.11374,49,69,0
266.11374,266.21072,48,69,0
266.24304,266.37234,46,69,0
266.37234,266.50168,44,69,0
266.50168,266.63098,32,69,0
266.63098,266.76028,34,69,0
266.76028,266.8896,36,69,0
266.8896,267.01892,37,69,0
267.01892,267.14822,39,69,0
267.14822,267.27753,41,69,0
267.27753,267.40683,43,69,0
267.40683,267.53616,44,69,0
267.53616,267.66547,46,69,0
267.66547,267.79477,48,69,0
267.79477,267.92407,46,69,0
267.92407,268.0534,44,69,0
268.0534,268.1827,43,69,0
268.1827,268.312,41,69,0
268.312,268.4413,39,69,0
268.4413,268.82925,38,69,0
270.6396,270.73657,34,69,0
270.76892,270.86588,36,69,0
270.89822,270.9952,38,69,0
271.02753,271.1245,39,69,0
271.15683,271.2538,41,69,0
271.28613,271.38312,43,69,0
271.41547,271.51245,45,69,0
271.54477,271.64175,46,69,0
271.67407,271.77106,45,69,0
271.80338,271.90036,46,69,0
271.9327,272.0297,48,69,0
272.062,272.159,49,69,0
272.1913,272.2883,46,69,0
272.32062,272.4176,48,69,0
272.44995,272.54694,49,69,0
272.57925,272.67624,51,92,0
272.70856,272.80554,51,92,0
272.83786,272.93484,53,92,0
272.9672,273.06415,55,92,0
273.0965,273.19348,56,92,0
273.2258,273.32278,58,92,0
273.3551,273.4521,60,92,0
273.48444,273.5814,62,92,0
274.77753,274.8745,31,92,0
274.90683,275.0038,32,92,0
275.03613,275.13312,34,92,0
275.16547,275.26245,36,93,0
275.29477,275.39175,38,94,0
275.42407,275.52106,39,94,0
275.55338,275.65036,41,95,0
275.6827,275.77966,43,95,0
275.812,275.909,44,95,0
275.9413,276.0383,46,96,0
276.07062,276.1676,48,96,0
276.19995,276.2969,46,97,0
276.32925,276.42624,48,98,0
276.45856,276.55554,50,98,0
276.58786,276.68484,51,98,0
276.8465,276.94348,48,99,0
276.9758,277.07278,53,100,0
277.1051,277.2021,56,100,0
277.2344,277.3314,60,101,0
277.36374,277.46072,53,101,0
277.49304,277.59003,56,101,0
277.62234,277.71933,60,102,0
276.71716,277.88098,32,99,0
276.71716,277.88098,44,99,0
278.2689,278.65683,29,104,0
278.2689,278.65683,41,104,0
278.78613,279.562,34,69,0
278.78613,279.562,46,69,0
279.82062,280.5965,34,69,0
279.82062,280.5965,46,69,0
280.8551,281.24304,39,69,0
280.8551,281.24304,51,69,0
282.92407,283.4413,55,69,0
283.4413,283.95856,51,69,0
283.95856,284.4758,55,69,0
284.4758,284.99304,51,69,0
284.99304,285.51028,56,69,0
285.51028,286.02753,51,69,0
286.02753,286.54477,60,69,0
286.54477,287.062,51,69,0
287.062,287.57922,56,69,0
287.57922,288.09647,51,69,0
288.09647,288.6137,56,69,0
288.6137,289.13095,57,69,0
289.13095,289.6482,58,69,0
289.6482,290.16544,51,69,0
290.16544,290.68268,55,69,0
290.68268,291.19992,51,69,0
291.19992,291.71716,58,69,0
291.71716,292.2344,51,71,0
292.2344,292.75165,59,74,0
292.75165,293.2689,51,77,0
293.2689,293.78613,60,80,0
293.78613,294.30338,63,83,0
294.30338,294.82062,60,86,0
294.82062,295.33786,56,89,0
295.33786,295.8551,55,92,0
295.8551,296.37234,51,86,0
296.37234,296.8896,56,80,0
296.8896,297.2775,60,74,0
297.40683,297.79474,63,69,0
297.92407,298.31198,51,69,0
298.4413,298.82922,51,69,0
298.95853,299.34647,51,69,0
299.47577,300.51025,44,69,0
299.47577,300.51025,56,69,0
300.51025,301.54474,45,74,0
300.51025,301.54474,57,74,0
301.54474,303.09647,46,80,0
301.54474,303.09647,58,80,0
303.09647,303.6137,47,88,0
303.09647,303.6137,59,88,0
303.6137,304.38956,48,90,0
303.6137,304.38956,60,90,0
304.6482,305.42404,46,95,0
304.6482,305.42404,58,95,0
305.68268,306.71716,41,101,0
305.68268,306.71716,53,101,0
306.71716,307.75165,43,127,0
306.71716,307.75165,51,127,0
306.71716,307.75165,55,127,0
307.75165,309.04474,44,69,0
307.75165,309.04474,56,69,0
309.04474,309.30338,56,71,0
309.04474,309.30338,60,71,0
309.30338,309.56198,58,73,0
309.30338,309.56198,61,73,0
309.56198,309.75595,60,74,0
309.56198,309.75595,63,74,0
309.8206,310.33783,61,77,0
309.8206,310.33783,65,77,0
310.33783,310.59647,63,80,0
310.33783,310.59647,66,80,0
310.59647,310.85507,61,82,0
310.59647,310.85507,65,82,0
310.85507,311.1137,63,84,0
310.85507,311.1137,66,84,0
311.1137,311.3723,61,86,0
311.1137,311.3723,65,86,0
311.3723,311.63095,60,88,0
311.3723,311.63095,63,88,0
311.63095,311.82492,58,89,0
311.63095,311.82492,61,89,0
311.88956,312.4068,63,69,0
311.88956,312.92404,51,69,0
312.4068,312.92404,60,69,0
312.92404,313.44128,58,69,0
313.44128,313.82922,61,69,0
312.92404,313.95853,51,69,0
313.95853,314.46283,56,69,0
313.95853,314.46283,60,69,0
316.14386,316.5318,39,69,0
318.34213,318.43912,39,69,0
318.47147,318.56845,44,69,0
318.60077,318.69775,48,69,0
318.73007,318.82706,51,69,0
318.85938,318.95636,48,69,0
318.9887,319.0857,44,69,0
319.118,319.215,39,69,0
319.2473,319.3443,51,69,0
319.37662,319.4736,48,69,0
319.50595,319.60294,44,69,0
319.63525,319.73224,39,69,0
319.76456,319.86154,51,69,0
319.89386,319.99084,48,69,0
320.0232,320.12018,44,69,0
320.1525,320.24948,39,69,0
320.2818,320.66974,51,69,0
322.48007,322.57706,39,69,0
322.60938,322.70636,46,69,0
322.7387,322.8357,49,69,0
322.868,322.965,51,69,0
322.9973,323.0943,49,69,0
323.12662,323.2236,46,69,0
323.25595,323.3529,39,69,0
323.38525,323.48224,49,69,0
323.51456,323.61154,46,69,0
323.64386,323.74084,43,69,0
323.77316,323.87015,37,69,0
323.9025,323.99948,48,69,0
324.0318,324.12878,44,69,0
324.1611,324.2581,39,69,0
324.2904,324.3874,36,69,0
324.41974,325.45422,34,69,0
324.41974,325.45422,46,69,0
325.45422,326.48868,35,74,0
325.45422,326.48868,47,74,0
326.48868,327.00592,36,80,0
326.48868,327.00592,48,80,0
327.00592,327.52316,39,83,0
327.00592,327.52316,51,83,0
327.52316,328.0404,36,86,0
327.52316,328.0404,48,86,0
328.0404,328.55765,32,89,0
328.0404,328.55765,44,89,0
328.55765,329.0749,31,92,0
328.55765,329.0749,43,92,0
329.0749,329.59213,27,86,0
329.0749,329.59213,39,86,0
329.59213,330.10938,32,80,0
329.59213,330.10938,44,80,0
330.10938,330.62662,36,74,0
330.10938,330.62662,48,74,0
330.62662,331.7904,39,69,0
332.17834,332.56628,39,69,0
332.6956,332.79257,32,69,0
332.6956,332.79257,44,69,0
332.8249,332.92188,32,69,0
332.9542,333.05118,34,69,0
333.08353,333.1805,36,69,0
333.21283,333.3098,37,69,0
333.34213,333.43912,39,69,0
333.47144,333.56842,41,69,0
333.60077,333.69775,43,69,0
333.73007,333.82706,44,69,0
333.85938,333.95636,46,69,0
333.98868,334.08566,48,69,0
334.118,334.21497,46,69,0
334.2473,334.3443,44,69,0
334.37662,334.4736,43,69,0
334.50592,334.6029,41,69,0
334.63525,334.7322,39,69,0
334.76456,335.15247,37,69,0
336.96283,337.0598,39,69,0
337.09213,337.18912,41,69,0
337.22144,337.31842,43,69,0
337.35077,337.44772,44,69,0
337.48007,337.57706,46,69,0
337.60938,337.70636,48,69,0
337.73868,337.83566,50,69,0
337.86798,337.96497,51,69,0
337.9973,338.0943,53,69,0
338.12662,338.2236,51,69,0
338.25592,338.3529,53,69,0
338.38522,338.4822,49,69,0
338.51456,338.61154,51,69,0
338.64386,338.74084,49,69,0
338.77316,338.87015,51,69,0
338.90247,339.2904,48,69,0
341.10074,341.19772,45,69,0
341.23007,341.32706,46,70,0
341.35938,341.45636,48,71,0
341.48868,341.58566,49,71,0
341.61798,341.71497,51,72,0
341.7473,341.8443,53,73,0
341.87662,341.9736,55,74,0
342.00592,342.1029,57,74,0
342.13522,342.2322,58,75,0
342.26456,342.3615,60,76,0
342.39386,342.49084,61,77,0
342.52316,342.62015,63,77,0
342.65247,342.74945,65,78,0
342.7818,342.87875,67,79,0
342.9111,343.0081,69,80,0
343.0404,343.23438,70,80,0
343.299,343.396,37,81,0
343.42834,343.52533,49,82,0
343.55765,343.65463,39,83,0
343.68695,343.78394,51,83,0
343.81625,343.91324,37,84,0
343.9456,344.04257,49,85,0
344.0749,344.17188,39,86,0
344.2042,344.30118,51,86,0
344.3335,344.43048,37,87,0
344.46283,344.5598,49,88,0
344.59213,344.68912,36,89,0
344.72144,344.81842,48,89,0
344.85074,344.94772,34,90,0
344.98007,345.07703,46,91,0
345.10938,345.88522,39,69,0
345.10938,345.88522,51,69,0
346.14386,346.9197,39,69,0
347.17834,347.43695,32,69,0
347.17834,347.43695,44,69,0
347.52316,347.78177,63,69,0
347.86798,348.12662,63,69,0
348.21283,348.47144,63,69,0
348.55765,348.81625,63,69,0
348.90247,349.1611,63,69,0
349.24728,349.50592,68,69,0
349.59213,349.85074,63,69,0
349.93695,350.1956,63,69,0
349.24728,350.28177,72,69,0
350.28177,350.5404,70,69,0
350.62662,350.88522,63,69,0
350.97144,351.23004,63,69,0
350.28177,351.31625,73,69,0
351.6611,351.9197,63,69,0
352.00592,352.26453,63,69,0
352.35074,352.60938,63,69,0
351.31625,352.86798,68,69,0
351.31625,352.86798,72,69,0
352.69556,352.9542,63,69,0
353.0404,353.299,63,69,0
353.38522,353.64386,68,69,0
353.73004,353.98868,63,69,0
354.0749,354.3335,63,69,0
353.38522,354.4197,72,69,0
354.4197,354.6783,70,69,0
354.76453,355.02316,63,69,0
355.10938,355.36798,63,69,0
354.4197,355.4542,73,69,0
355.4542,355.84213,68,69,0
355.4542,355.84213,72,69,0
357.52316,357.80078,36,62,0
357.52316,357.80078,48,62,0
357.89337,358.17114,36,62,0
357.89337,358.17114,48,62,0
358.26373,358.5415,36,62,0
358.26373,358.5415,48,62,0
358.6341,358.93393,36,62,0
358.6341,358.93393,48,62,0
359.0339,359.33392,36,62,0
359.0339,359.33392,48,62,0
359.43393,359.7463,36,62,0
359.43393,359.7463,48,62,0
359.8505,360.788,36,62,0
359.8505,360.788,48,62,0
361.80426,361.87067,36,122,0
361.87067,361.93707,38,122,0
361.93707,362.00348,40,122,0
362.00348,362.0699,41,122,0
362.0699,362.1363,43,122,0
362.1363,362.2027,45,122,0
362.2027,362.2691,47,122,0
362.273,363.2105,48,127,0
363.91364,363.98004,48,122,0
363.98004,364.04645,50,122,0
364.04645,364.11285,52,122,0
364.11285,364.17926,53,122,0
364.17926,364.24567,55,122,0
364.24567,364.31207,57,122,0
364.31207,364.37848,59,122,0
364.3824,365.3199,60,127,0
366.2574,367.8089,41,62,0
367.8089,368.06754,43,62,0
368.06754,368.32614,45,62,0
368.32614,369.61923,46,62,0
369.61923,369.87787,43,62,0
369.87787,370.13647,45,62,0
370.13647,370.3951,46,62,0
370.3951,371.6882,48,62,0
371.6882,371.94684,50,63,0
371.94684,372.20544,46,64,0
372.20544,372.46408,48,64,0
372.46408,374.0158,45,69,0
374.53305,375.3089,70,69,0
374.53305,375.3089,73,69,0
375.5675,376.08475,73,69,0
375.5675,376.08475,77,69,0
376.602,378.67096,43,69,0
376.602,378.67096,51,69,0
378.67096,380.2227,56,69,0
378.67096,380.2227,60,69,0
380.2227,380.48132,58,74,0
380.2227,380.48132,61,74,0
380.48132,380.73993,60,75,0
380.48132,380.73993,63,75,0
380.73993,381.25717,61,77,0
380.73993,381.25717,65,77,0
381.25717,381.51578,63,78,0
381.25717,381.51578,66,78,0
381.51578,381.7744,61,79,0
381.51578,381.7744,65,79,0
381.7744,382.03302,63,80,0
381.7744,382.03302,66,80,0
382.03302,382.29166,61,81,0
382.03302,382.29166,65,81,0
382.29166,382.55026,60,82,0
382.29166,382.55026,63,82,0
382.55026,382.8089,58,83,0
382.55026,382.8089,61,83,0
382.8089,383.58475,63,84,0
383.84338,383.9296,55,88,0
383.9296,384.01578,56,88,0
384.01578,384.102,55,88,0
384.102,384.1882,56,89,0
384.1882,384.2744,55,89,0
384.2744,384.36063,56,89,0
384.36063,384.4468,55,89,0
384.4468,384.53302,56,89,0
384.53302,384.61923,55,90,0
384.61923,384.70544,56,90,0
384.70544,384.79166,53,91,0
383.84338,384.87787,51,88,0
384.79166,384.87787,55,91,0
384.87787,385.13647,44,69,0
384.87787,385.13647,56,69,0
385.2227,385.4813,51,69,0
385.5675,385.82614,51,69,0
385.91235,386.17096,51,69,0
386.25717,386.51578,51,69,0
386.602,386.86063,51,69,0
386.9468,387.20544,56,69,0
387.29166,387.55026,51,69,0
387.63647,387.8951,51,69,0
386.9468,387.9813,60,69,0
387.9813,388.23993,58,69,0
388.32614,388.58475,51,69,0
388.67096,388.92957,51,69,0
387.9813,389.01578,61,69,0
389.36063,389.61923,51,69,0
389.70544,389.96405,51,69,0
390.05026,390.3089,51,69,0
389.01578,390.5675,56,69,0
389.01578,390.5675,60,69,0
390.39508,390.65372,51,69,0
390.73993,390.99854,51,69,0
391.08475,391.34338,56,69,0
391.42957,391.6882,51,69,0
391.7744,392.03302,51,69,0
391.08475,392.11923,60,69,0
392.11923,392.37784,58,69,0
392.46405,392.7227,51,69,0
392.8089,393.0675,51,69,0
392.11923,393.15372,61,69,0
393.15372,393.92957,56,69,0
393.15372,393.92957,60,69,0
395.2227,395.5003,36,62,0
395.2227,395.5003,48,62,0
395.5929,395.87067,36,62,0
395.5929,395.87067,48,62,0
395.96326,396.24103,36,62,0
395.96326,396.24103,48,62,0
396.33362,396.63345,36,62,0
396.33362,396.63345,48,62,0
396.73343,397.03345,36,62,0
396.73343,397.03345,48,62,0
397.13345,397.44583,36,62,0
397.13345,397.44583,48,62,0
397.55002,398.48752,36,62,0
397.55002,398.48752,48,62,0
399.50378,399.5702,36,122,0
399.5702,399.6366,38,122,0
399.6366,399.703,40,122,0
399.703,399.7694,41,122,0
399.7694,399.83582,43,122,0
399.83582,399.90222,45,122,0
399.90222,399.96863,47,122,0
399.97253,400.91003,48,127,0
401.84753,401.91394,48,122,0
401.91394,401.98035,50,122,0
401.98035,402.04675,52,122,0
402.04675,402.11316,53,122,0
402.11316,402.17957,55,122,0
402.17957,402.24597,57,122,0
402.24597,402.31238,59,122,0
402.31628,402.78503,60,127,0
406.61563,408.16736,55,62,0
408.16736,408.426,57,73,0
408.426,408.6846,58,74,0
408.6846,409.46048,60,77,0
409.7191,410.49496,58,84,0
409.7191,410.49496,60,84,0
410.75357,411.91736,57,69,0
410.75357,411.91736,60,69,0
410.75357,411.91736,65,69,0
412.82254,413.85703,46,69,0
412.82254,413.85703,49,69,0
413.85703,414.37427,49,69,0
413.85703,414.37427,53,69,0
414.8915,416.44324,55,69,0
414.8915,416.44324,58,69,0
414.8915,416.44324,63,69,0
416.96048,417.99493,44,69,0
416.96048,417.99493,48,69,0
417.99493,418.51218,48,69,0
417.99493,418.51218,51,69,0
419.02942,420.58115,49,62,0
419.02942,420.58115,61,62,0
421.0984,422.65012,46,62,0
421.0984,422.65012,58,62,0
423.16736,424.7191,51,62,0
423.16736,424.7191,63,62,0
425.23633,426.78806,39,62,0
425.23633,426.78806,51,62,0
427.3053,427.6932,44,62,0
427.3053,427.6932,56,62,0
429.37424,430.40872,48,62,0
429.37424,430.40872,56,62,0
430.40872,431.4432,51,77,0
430.40872,431.4432,58,77,0
431.4432,431.96045,56,69,0
431.4432,431.96045,60,69,0
433.51218,434.54666,58,69,0
433.51218,434.54666,61,69,0
434.54666,435.58115,56,77,0
434.54666,435.58115,60,77,0
435.58115,436.0984,51,69,0
435.58115,436.0984,58,69,0
438.16736,438.55527,48,88,0
438.16736,438.55527,56,88,0
439.20184,439.58975,51,80,0
439.20184,439.58975,58,80,0
440.2363,440.62424,56,73,0
440.2363,440.62424,60,73,0
442.30527,442.6932,58,88,0
442.30527,442.6932,61,88,0
443.33975,443.7277,56,80,0
443.33975,443.7277,60,80,0
443.857,444.24493,51,69,0
443.857,444.24493,58,69,0
444.37424,444.76218,39,45,0
444.89148,445.27942,39,45,0
445.40872,445.79666,39,45,0
445.92596,446.3139,39,50,0
446.4432,446.83115,39,47,0
446.96045,447.3484,39,47,0
447.4777,447.8656,39,48,0
447.99493,448.38284,39,55,0
448.51218,448.9001,39,50,0
449.02942,449.41733,39,52,0
449.54666,449.93457,39,53,0
450.0639,450.4518,39,50,0
450.0639,450.4518,49,50,0
450.58112,450.96906,39,45,0
450.58112,450.96906,49,45,0
451.09836,451.4863,39,45,0
451.09836,451.4863,49,45,0
451.6156,452.00354,39,45,0
451.6156,452.00354,49,45,0
452.13284,452.52078,39,50,0
452.13284,452.52078,48,50,0
452.6501,453.03802,39,45,0
452.6501,453.03802,48,45,0
453.16733,453.55527,39,45,0
453.16733,453.55527,48,45,0
453.68457,454.0725,39,45,0
453.68457,454.0725,48,45,0
454.2018,454.2988,31,69,0
454.33112,454.4281,32,69,0
454.46045,454.55743,34,70,0
454.58975,454.68674,36,71,0
454.71906,454.81604,37,71,0
454.84836,454.94534,36,72,0
454.9777,455.07468,34,73,0
455.107,455.20398,32,74,0
455.2363,455.33328,31,74,0
455.3656,455.4626,32,75,0
455.49493,455.5919,34,76,0
455.62424,455.72122,36,77,0
455.75354,455.85052,37,77,0
455.88284,455.97983,39,78,0
456.01218,456.10913,41,79,0
456.14148,456.23846,43,80,0
456.27078,456.36777,44,80,0
456.4001,456.49707,46,80,0
456.5294,456.62637,48,81,0
456.65872,456.7557,49,82,0
456.78802,456.885,51,83,0
456.91733,457.0143,49,83,0
457.04663,457.14362,48,84,0
457.17596,457.27295,46,85,0
457.30527,457.40225,44,86,0
457.43457,457.53156,46,86,0
457.56387,457.66086,48,87,0
457.6932,457.7902,49,88,0
457.8225,457.9195,51,89,0
457.9518,458.0488,53,89,0
458.08112,458.1781,55,90,0
458.21045,458.3074,56,91,0
458.33975,458.7277,51,69,0
459.37424,459.76215,39,69,0
459.37424,459.76215,51,69,0
460.40872,460.79663,44,69,0
460.40872,460.79663,56,69,0
462.47766,462.8656,51,62,0
462.47766,462.8656,58,62,0
462.47766,462.8656,61,62,0
463.51215,463.9001,51,62,0
463.51215,463.9001,58,62,0
463.51215,463.9001,61,62,0
464.54663,464.93457,56,62,0
464.54663,464.93457,60,62,0
466.6156,467.0321,39,62,0
466.6156,467.0321,46,62,0
466.6156,467.0321,49,62,0
467.72656,468.17636,39,62,0
467.72656,468.17636,46,62,0
467.72656,468.17636,49,62,0
468.92636,469.48825,32,62,0
471.92575,474.73746,32,62,0
471.92575,474.73746,44,62,0
475.67496,478.48746,32,62,0
475.67496,478.48746,44,62,0
1.0,1.8169507,72,69,0
1.0,2.6351326,63,69,0
2.089678,2.9078598,72,69,0
3.180587,4.271496,72,69,0
3.180587,4.8169503,61,69,0
4.271496,5.089678,70,69,0
5.089678,5.2942233,68,69,0
5.362405,5.9078593,68,69,0
5.362405,6.180587,58,59,0
5.9078593,6.453314,67,69,0
6.453314,6.9987683,65,69,0
6.453314,7.271496,58,59,0
6.9987683,7.4078593,67,69,0
7.544223,8.635132,68,69,0
7.544223,8.771496,60,69,0
8.635132,9.044223,63,69,0
9.726041,10.544223,72,69,0
9.726041,10.544223,75,69,0
10.81695,11.7167225,72,88,0
10.81695,11.7167225,75,88,0
12.016723,13.816723,72,127,0
12.016723,13.816723,75,127,0
13.816723,14.362405,70,77,0
13.816723,14.362405,73,77,0
14.362405,14.635132,69,77,0
14.362405,14.635132,72,77,0
14.635132,14.907859,70,77,0
14.635132,14.907859,73,77,0
14.907859,15.180586,72,77,0
14.907859,15.180586,75,77,0
15.180586,15.453314,70,77,0
15.180586,15.453314,73,77,0
15.453314,16.06695,73,77,0
15.453314,16.06695,77,77,0
16.271496,16.47604,70,69,0
16.271496,16.47604,73,69,0
16.544222,17.635132,68,69,0
16.544222,17.635132,72,69,0
17.635132,18.044222,67,69,0
17.635132,18.044222,70,69,0
18.72604,19.544222,63,69,0
18.72604,19.544222,72,69,0
19.81695,20.635132,68,69,0
19.81695,20.635132,72,69,0
20.907858,21.72604,72,69,0
21.72604,21.998768,70,69,0
20.907858,22.544222,65,69,0
21.998768,24.180586,77,69,0
24.180586,24.453312,75,69,0
24.453312,24.72604,74,69,0
24.72604,24.998768,72,69,0
24.998768,25.203312,70,69,0
25.271494,26.362404,68,69,0
26.362404,26.771494,67,69,0
27.453312,28.544222,70,69,0
28.544222,28.816948,72,74,0
28.816948,29.089676,70,76,0
29.089676,29.362404,68,77,0
29.362404,29.566948,67,79,0
29.63513,30.834904,65,80,0
30.834904,30.971495,67,86,0
30.971495,31.107857,65,86,0
31.107857,31.24422,64,87,0
31.24422,31.380585,65,88,0
31.380585,31.653313,67,89,0
31.653313,31.857857,68,90,0
31.926039,32.74422,63,69,0
31.926039,32.74422,67,69,0
33.01695,33.289677,67,69,0
33.01695,33.83513,56,69,0
33.01695,33.83513,62,69,0
33.289677,33.83513,65,69,0
33.83513,34.039677,63,69,0
34.107857,35.30763,55,69,0
34.107857,35.30763,63,69,0
35.30763,36.20763,55,56,0
35.30763,36.20763,58,56,0
35.30763,36.20763,61,56,0
36.50763,37.32604,51,69,0
36.50763,37.32604,56,69,0
36.50763,37.32604,60,69,0
37.598766,38.416946,51,69,0
37.598766,38.416946,60,69,0
38.689674,39.780586,60,69,0
38.689674,39.916946,49,69,0
39.780586,40.598766,58,69,0
40.32604,40.73513,48,69,0
40.598766,40.80331,56,69,0
40.871494,41.416946,56,69,0
40.871494,41.689674,46,69,0
41.416946,41.962402,55,69,0
41.962402,42.50786,53,69,0
41.962402,42.780582,51,69,0
42.50786,42.916946,55,69,0
43.05331,43.871494,51,69,0
43.05331,44.144222,56,69,0
44.144222,44.55331,51,69,0
45.23513,46.05331,60,69,0
45.23513,46.05331,63,69,0
46.32604,47.14422,60,88,0
46.32604,47.14422,63,88,0
47.416946,49.05331,60,127,0
47.416946,49.05331,63,127,0
49.05331,49.598766,58,84,0
49.05331,49.598766,61,84,0
49.598766,49.871494,57,77,0
49.598766,49.871494,60,77,0
49.871494,50.14422,58,77,0
49.871494,50.14422,61,77,0
50.14422,50.416946,60,77,0
50.14422,50.416946,63,77,0
50.416946,50.621494,58,77,0
50.416946,50.621494,61,77,0
50.689674,51.507854,61,77,0
50.689674,51.507854,65,77,0
51.507854,51.712402,58,77,0
51.507854,51.712402,61,77,0
51.780582,52.871494,56,77,0
51.780582,52.871494,60,77,0
52.871494,53.280582,55,77,0
52.871494,53.280582,58,77,0
53.962402,54.780582,51,77,0
53.962402,54.780582,56,77,0
53.962402,54.780582,60,77,0
55.05331,55.87149,53,77,0
55.05331,55.87149,56,77,0
55.05331,55.87149,60,77,0
56.14422,57.780582,53,77,0
56.14422,57.780582,56,77,0
56.14422,57.780582,58,77,0
58.32604,59.962402,50,77,0
58.32604,59.962402,58,77,0
59.962402,60.235126,51,77,0
60.235126,60.439674,53,77,0
60.507854,61.598766,50,77,0
60.507854,61.598766,53,77,0
60.507854,61.598766,58,77,0
61.598766,62.007854,51,77,0
61.598766,62.007854,55,77,0
61.598766,62.007854,58,77,0
62.689674,63.780582,51,77,0
62.689674,63.780582,58,77,0
63.780582,64.59876,52,80,0
63.780582,64.59876,58,80,0
63.780582,64.59876,61,80,0
64.87149,66.61694,53,84,0
64.87149,66.61694,56,84,0
64.87149,66.61694,60,84,0
66.61694,66.88967,58,89,0
66.61694,66.88967,64,89,0
66.88967,67.094215,60,90,0
66.88967,67.094215,65,90,0
67.707855,67.98058,58,69,0
67.98058,68.18513,63,69,0
68.79877,69.07149,56,69,0
69.07149,69.27604,62,69,0
69.88967,70.094215,55,69,0
70.1624,70.36694,58,69,0
70.43513,70.516945,63,69,0
70.707855,70.78967,65,69,0
70.98058,71.0624,67,69,0
71.25331,71.33513,68,69,0
71.52604,72.344215,70,69,0
72.61694,73.23058,70,69,0
73.43513,73.707855,71,69,0
73.707855,74.79877,72,69,0
74.79877,75.207855,68,69,0
75.61694,75.88967,70,69,0
75.88967,76.98058,72,69,0
76.98058,77.25331,73,69,0
77.25331,77.52604,72,69,0
77.52604,77.79876,70,69,0
77.79876,78.00331,72,69,0
78.07149,79.1624,73,69,0
79.1624,79.326035,70,69,0
79.98058,80.25331,72,69,0
80.25331,81.344215,73,69,0
81.344215,82.43513,74,74,0
82.43513,83.79876,75,80,0
83.79876,84.07149,76,87,0
84.07149,84.344215,77,89,0
84.344215,84.61694,75,90,0
84.61694,85.1624,75,92,0
85.1624,85.36694,73,86,0
85.707855,86.25331,73,80,0
86.25331,86.457855,72,74,0
86.79876,87.88967,72,69,0
87.88967,88.43513,70,69,0
88.43513,88.844215,63,69,0
88.43513,88.844215,67,69,0
88.43513,88.844215,71,69,0
88.98058,89.79876,63,69,0
88.98058,89.79876,68,69,0
88.98058,89.79876,72,69,0
90.07149,90.88967,63,71,0
90.07149,90.88967,66,71,0
90.07149,90.88967,72,71,0
91.1624,92.25331,72,74,0
91.1624,92.38967,61,74,0
91.1624,92.38967,65,74,0
92.25331,93.07149,70,77,0
93.07149,93.27603,68,80,0
92.79876,93.344215,62,79,0
92.79876,93.344215,65,79,0
93.344215,93.88967,65,80,0
93.344215,93.88967,68,80,0
93.88967,94.43513,64,81,0
93.88967,94.43513,67,81,0
94.43513,94.844215,62,83,0
94.43513,94.844215,65,83,0
94.98058,95.52603,64,84,0
94.98058,95.52603,67,84,0
95.52603,96.344215,56,86,0
95.52603,96.344215,65,86,0
95.52603,96.344215,68,86,0
96.61694,97.516716,58,105,0
96.61694,97.516716,63,105,0
97.81672,98.635124,75,69,0
98.90785,99.726036,75,74,0
99.998764,100.3624,75,80,0
100.3624,100.726036,73,82,0
100.726036,100.998764,72,84,0
101.08967,101.3624,73,86,0
101.45331,101.726036,75,88,0
101.81694,102.08967,77,89,0
102.18058,102.27149,68,92,0
102.27149,102.3624,70,91,0
102.3624,102.45331,68,90,0
102.45331,102.54421,70,90,0
102.54421,102.635124,68,89,0
102.635124,102.726036,70,89,0
102.726036,102.81694,68,89,0
102.81694,102.90785,70,88,0
102.90785,102.998764,68,88,0
102.998764,103.08967,70,87,0
103.08967,103.18058,67,86,0
103.18058,103.27149,68,86,0
103.27149,104.08967,72,86,0
104.08967,104.3624,70,81,0
104.3624,104.444214,68,80,0
104.635124,104.90785,63,79,0
104.90785,105.18058,65,77,0
105.18058,105.45331,63,76,0
105.45331,105.726036,61,74,0
105.726036,105.998764,60,73,0
105.998764,106.271484,58,71,0
106.271484,106.476036,56,70,0
106.54421,107.08967,55,69,0
107.08967,107.635124,51,69,0
107.635124,108.18058,55,69,0
108.18058,108.726036,51,69,0
108.726036,109.271484,56,69,0
109.271484,109.81694,51,69,0
109.81694,110.3624,60,69,0
110.3624,110.771484,51,69,0
110.90785,111.45331,56,69,0
111.45331,111.998764,51,69,0
111.998764,112.54421,56,69,0
112.54421,113.08967,57,69,0
113.08967,113.635124,58,69,0
113.635124,114.18058,51,69,0
114.18058,114.726036,55,69,0
114.726036,115.135124,51,69,0
115.271484,115.81694,58,69,0
115.81694,116.3624,51,71,0
116.3624,116.90785,59,74,0
116.90785,117.45331,51,77,0
117.45331,117.99876,60,80,0
117.99876,118.54421,63,83,0
118.54421,119.08967,68,86,0
119.08967,119.49876,72,89,0
119.635124,120.18058,70,92,0
120.18058,120.385124,67,86,0
120.726036,121.271484,63,80,0
121.271484,121.476036,68,74,0
121.81694,122.90785,68,69,0
122.90785,123.31694,67,69,0
123.45331,123.8624,51,69,0
123.45331,123.8624,55,69,0
123.99876,125.08967,51,69,0
123.99876,125.08967,56,69,0
125.08967,126.18058,51,71,0
125.08967,126.18058,54,71,0
126.18058,127.81694,49,74,0
126.18058,127.81694,53,74,0
127.81694,128.22603,50,79,0
127.81694,128.22603,53,79,0
128.3624,128.90785,53,80,0
128.90785,129.45331,52,81,0
129.45331,129.99876,50,83,0
129.99876,130.40785,52,84,0
130.54422,131.63512,48,86,0
130.54422,131.63512,53,86,0
131.63512,132.8349,46,107,0
131.63512,132.8349,51,107,0
131.63512,132.8349,58,107,0
132.8349,133.6533,48,69,0
132.8349,133.6533,51,69,0
132.8349,133.6533,60,69,0
133.92603,134.74422,60,69,0
133.92603,134.74422,63,69,0
135.01694,135.38057,60,77,0
135.01694,135.38057,63,77,0
135.38057,135.6533,58,79,0
135.38057,135.6533,61,79,0
135.74422,136.01694,57,81,0
135.74422,136.01694,60,81,0
136.10785,136.38057,58,84,0
136.10785,136.38057,61,84,0
136.47148,136.74422,60,86,0
136.47148,136.74422,63,86,0
136.83513,137.10785,61,89,0
136.83513,137.10785,65,89,0
137.5624,137.92603,56,88,0
137.5624,137.92603,60,88,0
137.92603,138.19876,63,84,0
138.6533,139.01694,55,77,0
138.6533,139.01694,61,77,0
139.01694,139.28967,63,73,0
139.38057,139.78967,56,69,0
139.38057,139.78967,60,69,0
140.47148,141.5624,68,69,0
140.47148,141.5624,75,69,0
141.5624,142.6533,67,69,0
141.5624,142.6533,73,69,0
142.6533,143.35675,63,69,0
142.6533,143.35675,67,69,0
142.6533,143.35675,70,69,0
143.59113,143.66144,63,69,0
143.59113,143.66144,68,69,0
143.59113,143.66144,71,69,0
143.8255,143.89581,63,69,0
144.05988,144.13019,68,69,0
144.29425,144.36456,71,69,0
144.52863,144.59894,75,69,0
144.763,144.83331,80,69,0
144.99738,145.06769,83,69,0
145.23175,145.30206,87,69,0
145.46613,145.60675,88,69,0
147.5755,147.64581,59,69,0
147.80988,147.88019,63,69,0
148.04425,148.11456,68,69,0
148.27863,148.34894,71,69,0
148.513,148.58331,75,69,0
148.74738,148.81769,80,69,0
148.98175,149.05206,83,69,0
149.21613,149.35675,79,69,0
151.3255,151.39581,56,70,0
151.55988,151.63019,59,71,0
151.79425,151.86456,63,73,0
152.02863,152.09894,68,74,0
152.263,152.33331,71,76,0
152.49738,152.56769,75,77,0
152.73175,152.80206,80,79,0
152.96613,153.10675,82,80,0
155.0755,155.14581,59,69,0
155.30988,155.38019,63,69,0
155.54425,155.61456,68,69,0
156.013,156.08331,59,69,0
156.24738,156.31769,65,69,0
156.48175,156.55206,68,69,0
156.71613,156.9505,67,69,0
156.9505,157.18488,70,71,0
157.18488,157.41925,67,74,0
157.41925,157.65363,64,77,0
157.65363,157.888,63,80,0
157.888,158.12238,61,83,0
158.12238,158.35675,59,86,0
158.35675,158.53253,58,89,0
158.59113,158.66144,56,69,0
158.8255,158.89581,63,69,0
159.05988,159.13019,68,69,0
159.29425,159.36456,71,69,0
159.52863,159.59894,75,69,0
159.763,159.83331,80,69,0
159.99738,160.06769,83,69,0
160.23175,160.30206,87,69,0
160.46613,160.60675,88,69,0
162.5755,162.64581,63,69,0
162.80988,162.88019,68,69,0
163.04425,163.11456,71,69,0
163.27863,163.34894,75,69,0
163.513,163.58331,80,69,0
163.74738,163.81769,83,69,0
163.98175,164.05206,87,69,0
164.21613,164.56769,79,69,0
166.3255,166.39581,56,70,0
166.55988,166.63019,59,71,0
166.79425,166.86456,64,73,0
167.02863,167.09894,68,74,0
167.263,167.33331,71,76,0
167.49738,167.56769,76,77,0
167.73175,167.80206,80,79,0
167.96613,168.10675,82,80,0
170.0755,170.14581,87,69,0
170.30988,170.38019,82,69,0
170.54425,170.61456,78,69,0
170.77863,170.84894,75,69,0
171.013,171.08331,70,69,0
171.24738,171.31769,66,69,0
171.48175,171.55206,70,69,0
171.71613,172.06769,63,69,0
172.65363,173.26886,65,80,0
172.65363,173.26886,77,80,0
173.47394,173.56183,65,90,0
173.47394,173.56183,77,90,0
173.59113,174.99738,65,69,0
173.59113,174.99738,70,69,0
173.59113,174.99738,73,69,0
173.59113,174.99738,77,69,0
175.46613,176.87238,66,69,0
175.46613,176.87238,70,69,0
175.46613,176.87238,73,69,0
175.46613,176.87238,78,69,0
177.34113,178.74738,65,69,0
177.34113,178.74738,70,69,0
177.34113,178.74738,73,69,0
177.34113,178.74738,77,69,0
179.21613,180.62238,57,69,0
179.21613,180.62238,63,69,0
179.21613,180.62238,69,69,0
181.09113,182.49738,58,69,0
181.09113,182.49738,61,69,0
181.09113,182.49738,70,69,0
182.96613,184.37238,58,73,0
182.96613,184.37238,61,73,0
182.96613,184.37238,63,73,0
182.96613,184.37238,70,73,0
184.84113,186.24738,59,77,0
184.84113,186.24738,63,77,0
184.84113,186.24738,71,77,0
186.71613,188.12238,62,80,0
186.71613,188.12238,68,80,0
186.71613,188.12238,74,80,0
188.59113,189.99738,63,84,0
188.59113,189.99738,67,84,0
188.59113,189.99738,75,84,0
190.46613,191.87238,65,107,0
190.46613,191.87238,68,107,0
190.46613,191.87238,71,107,0
190.46613,191.87238,74,107,0
192.34113,193.74738,67,69,0
192.34113,193.74738,70,69,0
192.34113,193.74738,75,69,0
194.21613,195.62238,62,107,0
194.21613,195.62238,65,107,0
194.21613,195.62238,68,107,0
194.21613,195.62238,71,107,0
196.09113,197.49738,63,69,0
196.09113,197.49738,67,69,0
196.09113,197.49738,70,69,0
197.96613,199.37238,58,69,0
197.96613,199.37238,63,69,0
197.96613,199.37238,67,69,0
199.84113,202.8294,55,69,0
199.84113,202.8294,58,69,0
199.84113,202.8294,63,69,0
203.59113,203.8255,75,62,0
203.59113,203.8255,79,62,0
203.59113,203.8255,84,62,0
203.8255,204.05988,72,62,0
204.05988,204.29425,75,62,0
204.29425,204.52863,79,62,0
204.52863,204.763,82,62,0
204.763,204.99738,79,62,0
204.99738,205.23175,75,62,0
205.23175,205.46613,72,63,0
205.46613,205.7005,82,64,0
205.7005,205.93488,79,65,0
205.93488,206.16925,75,65,0
206.16925,206.40363,72,65,0
206.40363,206.638,82,66,0
206.638,206.87238,79,67,0
206.87238,207.10675,75,68,0
207.10675,207.28253,72,68,0
207.34113,207.5755,61,69,0
207.5755,207.80988,58,69,0
207.80988,208.04425,55,69,0
208.04425,208.27863,56,69,0
208.27863,208.513,58,69,0
208.513,208.74738,60,69,0
208.74738,208.98175,61,69,0
208.98175,209.21613,63,69,0
209.21613,209.4505,65,69,0
209.4505,209.68488,67,69,0
209.68488,209.91925,68,69,0
209.91925,210.15363,70,69,0
210.15363,210.388,72,69,0
210.388,210.62238,73,69,0
210.62238,210.85675,75,69,0
210.85675,211.09113,77,69,0
211.09113,211.3255,79,69,0
211.3255,211.55988,80,70,0
211.55988,211.79425,82,71,0
211.79425,212.02863,84,73,0
212.02863,212.263,85,74,0
212.263,212.49738,87,76,0
212.49738,212.73175,89,77,0
212.73175,212.96613,87,79,0
212.96613,213.2005,85,80,0
213.2005,213.43488,84,81,0
213.43488,213.66925,82,83,0
213.66925,213.90363,80,84,0
213.90363,214.138,79,86,0
214.138,214.37238,80,87,0
214.37238,214.60675,82,89,0
214.60675,214.84113,84,90,0
214.84113,215.0755,85,92,0
215.0755,215.30988,84,89,0
215.30988,215.55174,82,86,0
215.55174,215.79369,80,83,0
215.79369,216.04361,79,80,0
216.04361,216.29361,77,77,0
216.29361,216.54361,75,74,0
216.54361,216.7375,73,71,0
216.80215,217.57802,72,69,0
217.83664,218.6125,63,69,0
217.83664,218.6125,72,69,0
218.87112,219.90561,72,69,0
218.87112,220.42285,61,69,0
219.90561,220.68147,70,69,0
220.68147,220.87543,68,69,0
220.9401,221.45734,68,69,0
220.9401,221.71596,58,69,0
221.45734,221.97458,67,69,0
221.97458,222.4918,58,69,0
221.97458,222.4918,65,69,0
222.4918,222.87975,67,69,0
223.00905,223.97693,68,69,0
223.00905,224.0979,60,69,0
223.97693,224.33984,63,69,0
224.94467,225.7204,72,69,0
224.94467,225.7204,75,69,0
225.97902,226.75488,72,80,0
225.97902,226.75488,75,80,0
227.0135,228.56522,72,109,0
227.0135,228.56522,75,109,0
228.56522,229.08246,70,69,0
228.56522,229.08246,73,69,0
229.08246,229.34108,69,69,0
229.08246,229.34108,72,69,0
229.34108,229.5997,70,69,0
229.34108,229.5997,73,69,0
229.5997,229.85832,72,69,0
229.5997,229.85832,75,69,0
229.85832,230.11694,70,69,0
229.85832,230.11694,73,69,0
230.11694,230.8928,73,69,0
230.11694,230.8928,77,69,0
230.8928,231.08678,70,69,0
230.8928,231.08678,73,69,0
231.15143,232.11931,68,69,0
231.15143,232.11931,72,69,0
232.11931,232.48221,67,69,0
232.11931,232.48221,70,69,0
233.12029,233.89615,63,69,0
233.12029,233.89615,72,69,0
234.15477,234.93062,68,69,0
234.15477,234.93062,72,69,0
235.18924,235.9651,72,69,0
235.9651,236.22372,70,69,0
235.18924,236.74097,65,69,0
236.22372,238.22609,77,69,0
238.22609,238.46802,75,69,0
238.46802,238.70996,74,69,0
238.70996,238.95189,72,69,0
238.95189,239.13335,70,69,0
239.19383,240.22818,68,69,0
240.22818,240.6161,67,69,0
241.26265,242.29713,63,69,0
241.26265,242.29713,70,69,0
242.29713,242.55576,72,69,0
242.55576,242.81438,70,71,0
242.81438,243.073,68,74,0
243.073,243.26697,67,77,0
242.29713,243.33162,64,69,0
243.33162,244.3661,65,69,0
244.3661,244.50235,67,69,0
244.50235,244.63872,65,69,0
244.63872,244.77507,64,69,0
244.77507,244.91144,65,69,0
244.91144,245.18416,67,69,0
245.18416,245.38872,68,69,0
245.4569,246.27507,63,69,0
245.4569,246.27507,67,69,0
246.5478,246.68416,67,69,0
246.68416,247.19553,65,69,0
246.5478,247.36598,56,69,0
246.5478,247.36598,62,69,0
247.36598,247.57053,63,69,0
247.6387,248.72961,55,69,0
247.6387,248.72961,63,69,0
248.72961,249.5478,55,80,0
248.72961,249.5478,58,80,0
248.72961,249.5478,61,80,0
249.82053,250.20857,51,69,0
249.82053,250.20857,56,69,0
249.82053,250.20857,60,69,0
252.01892,252.14822,49,69,0
252.14822,252.27754,51,69,0
252.27754,252.40685,53,69,0
252.40685,252.53616,55,69,0
252.53616,252.66547,57,69,0
252.66547,252.79478,58,69,0
252.79478,252.92409,60,69,0
252.92409,253.0534,61,69,0
253.0534,253.18271,63,69,0
253.18271,253.31203,65,69,0
253.31203,253.44133,63,69,0
253.44133,253.57065,61,69,0
253.57065,253.69995,60,69,0
253.69995,253.82927,58,69,0
253.82927,253.95857,56,69,0
253.95857,254.34651,55,69,0
256.15686,256.28616,56,69,0
256.28616,256.41547,58,69,0
256.41547,256.54477,60,69,0
256.54477,256.6741,61,69,0
256.6741,256.8034,63,69,0
256.8034,256.9327,65,69,0
256.9327,257.062,67,69,0
257.062,257.1913,68,69,0
257.1913,257.32065,72,69,0
257.32065,257.44995,70,69,0
257.44995,257.57925,68,69,0
257.57925,257.70856,67,69,0
257.70856,257.8379,65,69,0
257.8379,257.9672,63,69,0
257.9672,258.0965,61,69,0
258.0965,258.19348,60,69,0
258.2258,258.35513,48,70,0
258.35513,258.48444,49,71,0
258.48444,258.61374,51,73,0
258.61374,258.74304,53,74,0
258.74304,258.87238,55,76,0
258.87238,259.00168,57,77,0
259.00168,259.13098,58,79,0
259.13098,259.26028,60,80,0
259.26028,259.38962,61,81,0
259.38962,259.51892,63,83,0
259.51892,259.64822,65,84,0
259.64822,259.77753,67,86,0
259.77753,259.90683,69,87,0
259.90683,260.03616,70,89,0
260.03616,260.16547,72,90,0
260.16547,260.20425,73,109,0
260.29477,260.39175,61,92,0
260.42407,260.52106,65,92,0
260.5534,260.6504,61,92,0
260.6827,260.7797,65,92,0
260.812,260.909,61,92,0
260.9413,261.0383,65,92,0
261.07065,261.16763,61,92,0
261.19995,261.29694,65,92,0
261.32925,261.42624,61,92,0
261.45856,261.55554,65,92,0
261.5879,261.68488,61,92,0
261.7172,261.81418,65,92,0
261.8465,261.94348,61,92,0
261.9758,262.07278,65,92,0
262.10513,262.2021,61,92,0
262.23444,262.33142,53,92,0
262.36374,262.46072,61,92,0
262.49304,262.59003,53,92,0
262.62238,262.71933,61,92,0
262.75168,262.84866,53,92,0
262.88098,262.97797,61,92,0
263.01028,263.10727,53,92,0
263.1396,263.23657,61,92,0
263.26892,263.3659,58,92,0
263.39822,263.4952,65,92,0
263.52753,263.6245,58,92,0
263.65683,263.7538,65,92,0
263.78616,263.88315,53,92,0
263.91547,264.01245,61,92,0
264.04477,264.14175,53,92,0
264.17407,264.27106,61,92,0
264.3034,265.3379,56,69,0
264.3034,265.3379,60,69,0
265.3379,265.7258,55,69,0
265.3379,265.7258,58,69,0
266.37234,267.14822,51,69,0
266.37234,267.14822,56,69,0
266.37234,267.14822,60,69,0
267.40683,268.1827,51,69,0
267.40683,268.1827,56,69,0
267.40683,268.1827,60,69,0
268.4413,268.5383,53,69,0
268.4413,268.5383,56,69,0
268.4413,268.5383,58,69,0
268.57062,268.6676,46,69,0
268.69995,268.79694,48,69,0
268.82925,268.92624,50,69,0
268.95856,269.05554,51,69,0
269.08786,269.18484,53,69,0
269.2172,269.31418,55,69,0
269.3465,269.44348,57,69,0
269.4758,269.57278,58,69,0
269.6051,269.7021,60,69,0
269.73444,269.83142,62,69,0
269.86374,269.96072,63,69,0
269.99304,270.09003,65,69,0
270.12234,270.21933,67,69,0
270.25168,270.34863,68,69,0
270.38098,270.47797,69,69,0
270.51028,270.89822,70,69,0
273.61374,273.71072,63,92,0
273.74304,273.84003,65,92,0
273.87234,273.96933,67,92,0
274.00165,274.09863,68,92,0
274.13098,274.22797,70,92,0
274.26028,274.35727,68,92,0
274.3896,274.48657,67,92,0
274.5189,274.61588,65,92,0
274.64822,275.03613,63,92,0
277.75165,277.84863,65,103,0
277.88098,277.97797,56,103,0
278.01028,278.10727,60,104,0
278.1396,278.23657,65,104,0
278.2689,278.36588,68,104,0
278.39822,278.49518,65,105,0
278.52753,278.6245,60,105,0
278.65683,278.7538,56,106,0
278.91547,279.01242,55,69,0
279.04477,279.14175,58,69,0
279.17407,279.27106,55,69,0
279.30338,279.40036,63,69,0
279.43268,279.52966,55,69,0
279.562,279.659,58,69,0
279.6913,279.7883,55,69,0
279.94992,280.0469,56,69,0
280.07925,280.17624,58,69,0
280.20856,280.30554,56,69,0
280.33786,280.43484,62,69,0
280.46716,280.56415,56,69,0
280.5965,280.69348,58,69,0
280.7258,280.82278,56,69,0
280.8551,280.9521,55,69,0
280.9844,281.0814,51,69,0
281.11374,281.21072,53,69,0
281.24304,281.34003,55,69,0
281.37234,281.46933,56,69,0
281.50165,281.59863,58,69,0
281.63098,281.72794,60,69,0
281.76028,281.85727,62,69,0
281.8896,281.937,65,69,0
281.95425,282.00165,63,69,0
282.0189,282.11588,62,69,0
282.1482,282.24518,63,69,0
282.27753,282.3745,65,69,0
282.40683,282.45425,68,69,0
282.4715,282.5189,67,69,0
282.53613,282.63312,65,69,0
282.66544,282.76242,67,69,0
282.79477,282.89175,68,69,0
282.92407,283.69992,70,69,0
283.95856,284.7344,70,69,0
284.7344,284.99304,71,69,0
284.99304,286.02753,72,69,0
286.02753,286.41544,68,69,0
286.80338,286.99734,70,69,0
287.062,288.09647,72,69,0
288.09647,288.3551,73,69,0
288.3551,288.6137,72,69,0
288.6137,288.87234,70,69,0
288.87234,289.0663,72,69,0
289.13095,290.16544,73,69,0
290.16544,290.55338,70,69,0
290.9413,291.13528,72,69,0
291.19992,291.28613,73,69,0
291.28613,291.37234,75,69,0
291.37234,291.45856,73,70,0
291.45856,291.54474,75,70,0
291.54474,291.63095,73,71,0
291.63095,291.71716,75,71,0
291.71716,291.80338,73,71,0
291.80338,291.8896,75,72,0
291.8896,291.9758,73,73,0
291.9758,292.06198,75,73,0
292.06198,292.1482,73,74,0
292.1482,292.2344,75,74,0
292.2344,292.32062,74,74,0
292.32062,292.40683,75,75,0
292.40683,292.49304,74,75,0
292.49304,292.57922,75,76,0
292.57922,292.66544,74,77,0
292.66544,292.75165,75,77,0
292.75165,292.83786,74,77,0
292.83786,292.92407,75,77,0
292.92407,293.01025,74,78,0
293.01025,293.09647,75,79,0
293.09647,293.18268,74,79,0
293.18268,293.2689,75,80,0
293.2689,293.3551,75,80,0
293.3551,293.4413,77,80,0
293.4413,293.5275,75,81,0
293.5275,293.6137,77,81,0
293.6137,293.69992,75,82,0
293.69992,293.78613,77,83,0
293.78613,293.87234,75,83,0
293.87234,293.95856,77,83,0
293.95856,294.04474,75,84,0
294.04474,294.13095,77,84,0
294.13095,294.21716,74,85,0
294.21716,294.30338,75,85,0
294.30338,294.56198,80,86,0
294.56198,294.82062,79,87,0
294.82062,295.07922,77,89,0
295.07922,295.33786,75,90,0
295.33786,295.59647,75,92,0
295.59647,295.67407,73,89,0
295.8551,295.93268,73,86,0
296.1137,296.1913,73,83,0
296.37234,296.63095,73,80,0
296.63095,296.70856,72,77,0
296.8896,296.96716,72,74,0
297.1482,297.22577,72,71,0
297.40683,298.4413,72,69,0
298.4413,298.95853,70,69,0
298.95853,299.47577,63,69,0
298.95853,299.47577,67,69,0
298.95853,299.47577,71,69,0
299.47577,300.25165,63,69,0
299.47577,300.25165,68,69,0
299.47577,300.25165,72,69,0
300.51025,301.28613,63,74,0
300.51025,301.28613,66,74,0
300.51025,301.28613,72,74,0
301.54474,302.57922,72,80,0
301.54474,302.70853,61,80,0
301.54474,302.70853,65,80,0
302.57922,303.3551,70,85,0
303.09647,303.4844,62,88,0
303.09647,303.4844,65,88,0
303.3551,303.54904,68,89,0
303.6137,304.13095,65,90,0
303.6137,304.13095,68,90,0
304.13095,304.6482,64,93,0
304.13095,304.6482,67,93,0
304.6482,305.16544,62,95,0
304.6482,305.16544,65,95,0
305.16544,305.55338,64,98,0
305.16544,305.55338,67,98,0
305.68268,306.71716,56,101,0
305.68268,306.71716,65,101,0
305.68268,306.71716,68,101,0
306.71716,307.493,58,127,0
306.71716,307.493,63,127,0
306.71716,307.493,70,127,0
307.75165,308.5275,72,69,0
307.75165,308.5275,75,69,0
308.78613,309.56198,75,69,0
309.8206,310.07922,75,77,0
310.07922,310.33783,73,78,0
310.33783,310.59647,72,80,0
310.59647,310.85507,73,82,0
310.85507,311.1137,72,84,0
311.1137,311.3723,73,86,0
311.3723,311.63095,75,88,0
311.63095,311.82492,77,89,0
311.88956,311.97577,68,69,0
311.97577,312.06198,70,69,0
312.06198,312.1482,68,69,0
312.1482,312.2344,70,69,0
312.2344,312.3206,68,69,0
312.3206,312.4068,70,69,0
312.4068,312.51025,68,69,0
312.51025,312.6137,70,69,0
312.6137,312.71716,68,69,0
312.71716,312.8206,67,69,0
312.8206,312.92404,68,69,0
312.92404,313.69992,72,69,0
313.69992,313.89386,70,69,0
312.92404,313.95853,67,69,0
313.95853,314.46283,68,69,0
316.2732,316.37018,51,69,0
316.4025,316.49948,55,69,0
316.5318,316.62878,58,69,0
316.6611,316.7581,63,69,0
316.79044,316.88742,58,69,0
316.91974,317.01672,55,69,0
317.04904,317.14603,51,69,0
317.17834,317.27533,63,69,0
317.30768,317.40466,58,69,0
317.43698,317.53397,55,69,0
317.56628,317.66327,51,69,0
317.6956,317.79257,63,69,0
317.82492,317.92188,59,69,0
317.95422,318.0512,55,69,0
318.08353,318.1805,51,69,0
318.21283,318.60077,63,69,0
320.4111,320.5081,51,69,0
320.54044,320.6374,56,69,0
320.66974,320.76672,60,69,0
320.79904,320.89603,63,69,0
320.92834,321.02533,60,69,0
321.05765,321.15463,56,69,0
321.18698,321.28397,51,69,0
321.31628,321.41327,63,69,0
321.4456,321.54257,60,69,0
321.5749,321.67188,56,69,0
321.70422,321.8012,51,69,0
321.83353,321.9305,63,69,0
321.96283,322.0598,60,69,0
322.09213,322.18912,57,69,0
322.22147,322.31845,51,69,0
322.35077,322.7387,63,69,0
324.54904,324.64603,51,69,0
324.67834,324.77533,63,70,0
324.80765,324.90463,51,71,0
324.93698,325.03397,63,71,0
325.06628,325.16327,51,72,0
325.1956,325.29257,63,73,0
325.3249,325.42188,51,74,0
325.45422,325.5512,63,74,0
325.58353,325.6805,51,75,0
325.71283,325.8098,63,76,0
325.84213,325.93912,51,77,0
325.97147,326.06842,63,77,0
326.10077,326.19775,51,78,0
326.23007,326.32706,63,79,0
326.35938,326.45636,51,80,0
326.48868,326.618,63,80,0
326.618,326.7473,51,80,0
326.7473,326.87662,56,81,0
326.87662,327.00592,60,82,0
327.13525,327.26456,56,83,0
327.26456,327.39386,60,84,0
327.39386,327.52316,63,85,0
327.6525,327.7818,60,86,0
327.7818,327.9111,63,87,0
327.9111,328.0404,68,88,0
328.16974,328.29904,63,89,0
328.29904,328.42834,68,90,0
328.42834,328.55765,72,91,0
328.68698,328.81628,63,90,0
328.81628,328.9456,70,89,0
328.9456,329.0749,73,87,0
329.2042,329.33353,58,84,0
329.33353,329.46283,61,83,0
329.46283,329.59213,63,81,0
329.72144,329.85077,56,79,0
329.85077,329.98007,60,77,0
329.98007,330.10938,63,76,0
330.23868,330.368,56,73,0
330.368,330.4973,60,71,0
330.4973,330.62662,63,70,0
330.75592,330.8529,51,69,0
330.88525,330.98224,56,69,0
331.01456,331.11154,60,69,0
331.14386,331.24084,63,69,0
331.27316,331.37015,60,69,0
331.4025,331.49945,56,69,0
331.5318,331.62878,51,69,0
331.6611,331.7581,63,69,0
331.7904,331.8874,58,69,0
331.9197,332.0167,55,69,0
332.04904,332.14603,51,69,0
332.17834,332.27533,63,69,0
332.30765,332.40463,59,69,0
332.43695,332.53394,55,69,0
332.56628,332.66327,51,69,0
332.6956,333.08353,51,69,0
332.6956,333.08353,56,69,0
332.6956,333.08353,60,69,0
334.89386,334.99084,50,69,0
335.02316,335.12015,51,69,0
335.15247,335.24945,53,69,0
335.2818,335.37878,55,69,0
335.4111,335.5081,57,69,0
335.5404,335.6374,58,69,0
335.6697,335.7667,60,69,0
335.79904,335.89603,61,69,0
335.92834,336.02533,63,69,0
336.05765,336.15463,65,69,0
336.18695,336.28394,63,69,0
336.31628,336.41327,61,69,0
336.4456,336.54257,60,69,0
336.5749,336.67188,58,69,0
336.7042,336.80118,56,69,0
336.83353,337.22144,55,69,0
339.0318,339.12878,56,69,0
339.1611,339.2581,58,69,0
339.2904,339.3874,60,69,0
339.4197,339.5167,61,69,0
339.54904,339.646,63,69,0
339.67834,339.77533,65,69,0
339.80765,339.90463,67,69,0
339.93695,340.03394,68,69,0
340.06628,340.16324,72,69,0
340.1956,340.29257,70,69,0
340.3249,340.42188,68,69,0
340.4542,340.55118,67,69,0
340.5835,340.68048,65,69,0
340.71283,340.8098,63,69,0
340.84213,340.93912,61,69,0
340.97144,341.06842,60,69,0
341.10074,341.19772,60,69,0
341.23007,341.32706,61,70,0
341.35938,341.45636,63,71,0
341.48868,341.58566,65,71,0
341.61798,341.71497,67,72,0
341.7473,341.8443,69,73,0
341.87662,341.9736,70,74,0
342.00592,342.1029,72,74,0
342.13522,342.2322,73,75,0
342.26456,342.3615,75,76,0
342.39386,342.49084,77,77,0
342.52316,342.62015,79,77,0
342.65247,342.74945,81,78,0
342.7818,342.87875,82,79,0
342.9111,343.0081,84,80,0
343.0404,343.23438,85,80,0
343.299,343.396,58,81,0
343.42834,343.52533,70,82,0
343.55765,343.65463,57,83,0
343.68695,343.78394,69,83,0
343.81625,343.91324,58,84,0
343.9456,344.04257,70,85,0
344.0749,344.17188,57,86,0
344.2042,344.30118,69,86,0
344.3335,344.43048,58,87,0
344.46283,344.5598,70,88,0
344.59213,344.68912,60,89,0
344.72144,344.81842,72,89,0
344.85074,344.94772,61,90,0
344.98007,345.07703,73,91,0
345.23868,345.33566,60,69,0
345.36798,345.46497,63,69,0
345.4973,345.59427,68,69,0
345.62662,345.7236,72,69,0
345.75592,345.8529,68,69,0
345.88522,345.9822,63,69,0
346.01453,346.1115,60,69,0
346.27316,346.37015,61,69,0
346.40247,346.49945,63,69,0
346.53177,346.62875,61,69,0
346.6611,346.7581,70,69,0
346.7904,346.8874,61,69,0
346.9197,347.0167,63,69,0
347.049,347.146,61,69,0
347.17834,347.56625,60,69,0
349.24728,349.59213,75,69,0
349.59213,349.93695,80,69,0
349.93695,350.28177,84,69,0
350.28177,350.62662,85,69,0
350.62662,350.97144,82,69,0
350.97144,351.31625,79,69,0
351.31625,351.40247,80,69,0
351.40247,351.48868,82,69,0
351.48868,351.5749,80,69,0
351.5749,351.6611,82,69,0
351.6611,351.74728,80,69,0
351.74728,351.8335,82,69,0
351.8335,351.9197,80,69,0
351.9197,352.00592,79,69,0
352.00592,352.09213,80,69,0
352.09213,352.2861,84,69,0
352.35074,353.38522,75,69,0
353.38522,353.73004,75,69,0
353.73004,354.0749,80,69,0
354.0749,354.4197,84,69,0
354.4197,354.76453,85,69,0
354.76453,355.10938,82,69,0
355.10938,355.4542,79,69,0
355.4542,355.97144,80,69,0
357.52316,357.80078,55,62,0
357.52316,357.80078,60,62,0
357.52316,357.80078,64,62,0
357.89337,358.17114,55,62,0
357.89337,358.17114,60,62,0
357.89337,358.17114,64,62,0
358.26373,358.5415,55,62,0
358.26373,358.5415,60,62,0
358.26373,358.5415,64,62,0
358.6341,358.93393,55,62,0
358.6341,358.93393,60,62,0
358.6341,358.93393,64,62,0
359.0339,359.33392,55,62,0
359.0339,359.33392,60,62,0
359.0339,359.33392,64,62,0
359.43393,359.7463,55,62,0
359.43393,359.7463,60,62,0
359.43393,359.7463,64,62,0
359.8505,360.788,55,62,0
359.8505,360.788,60,62,0
359.8505,360.788,64,62,0
361.80426,361.8531,48,122,0
361.87067,361.9195,50,122,0
361.93707,361.9859,52,122,0
362.00348,362.0523,53,122,0
362.0699,362.1187,55,122,0
362.1363,362.18512,57,122,0
362.2027,362.25153,59,122,0
362.273,362.97614,60,127,0
363.91364,363.96246,60,122,0
363.98004,364.02887,62,122,0
364.04645,364.09528,64,122,0
364.11285,364.16168,65,122,0
364.17926,364.2281,67,122,0
364.24567,364.2945,69,122,0
364.31207,364.3609,71,122,0
364.3824,365.0855,72,127,0
366.2574,367.8089,57,62,0
366.2574,367.8089,60,62,0
366.2574,367.8089,65,62,0
368.32614,369.87787,55,62,0
368.32614,369.87787,62,62,0
368.32614,369.87787,65,62,0
370.3951,371.94684,55,62,0
370.3951,371.94684,60,62,0
370.3951,371.94684,64,62,0
372.46408,373.62787,57,69,0
372.46408,373.62787,60,69,0
372.46408,373.62787,65,69,0
374.53305,375.5675,85,69,0
375.5675,375.95544,82,69,0
376.602,378.15372,55,69,0
376.602,378.15372,58,69,0
376.602,378.15372,63,69,0
378.67096,379.44684,84,69,0
379.70544,380.48132,84,73,0
380.73993,380.99854,84,77,0
380.99854,381.25717,82,77,0
381.25717,381.51578,81,78,0
381.51578,381.7744,82,79,0
381.7744,382.03302,81,80,0
382.03302,382.29166,82,81,0
382.29166,382.55026,84,82,0
382.55026,382.8089,85,83,0
382.8089,382.8951,80,84,0
382.8951,382.9813,82,84,0
382.9813,383.0675,80,84,0
383.0675,383.15372,82,85,0
383.15372,383.23993,80,85,0
383.23993,383.32614,82,86,0
383.32614,383.41235,80,86,0
383.41235,383.49854,82,86,0
383.49854,383.58475,80,86,0
383.58475,383.67096,82,86,0
383.67096,383.75717,79,87,0
383.75717,383.84338,80,87,0
383.84338,384.74854,84,88,0
384.74854,384.84552,82,91,0
384.87787,385.13647,80,69,0
385.2227,385.4813,63,69,0
385.5675,385.82614,63,69,0
385.91235,386.17096,63,69,0
386.25717,386.51578,63,69,0
386.602,386.86063,63,69,0
386.9468,387.20544,68,69,0
387.29166,387.55026,63,69,0
387.63647,387.8951,63,69,0
386.9468,387.9813,72,69,0
387.9813,388.23993,70,69,0
388.32614,388.58475,63,69,0
387.9813,388.75717,73,69,0
388.67096,388.92957,63,69,0
389.01578,389.36063,75,69,0
389.36063,389.61923,80,69,0
389.70544,389.96405,84,69,0
390.05026,390.3089,87,69,0
390.39508,390.65372,87,69,0
390.73993,390.99854,87,69,0
391.08475,391.34338,87,69,0
391.42957,391.6882,63,69,0
391.7744,392.03302,63,69,0
392.11923,392.37784,70,69,0
392.46405,392.7227,63,69,0
392.8089,393.0675,63,69,0
392.11923,393.15372,73,69,0
393.15372,393.41232,68,69,0
393.15372,393.41232,72,69,0
393.49854,393.75717,60,62,0
393.84335,394.102,60,62,0
394.1882,394.4468,60,62,0
394.53302,394.79166,60,62,0
394.87784,395.13647,60,62,0
395.2227,395.5003,55,62,0
395.2227,395.5003,60,62,0
395.2227,395.5003,64,62,0
395.5929,395.87067,55,62,0
395.5929,395.87067,60,62,0
395.5929,395.87067,64,62,0
395.96326,396.24103,55,62,0
395.96326,396.24103,60,62,0
395.96326,396.24103,64,62,0
396.33362,396.63345,55,62,0
396.33362,396.63345,60,62,0
396.33362,396.63345,64,62,0
396.73343,397.03345,55,62,0
396.73343,397.03345,60,62,0
396.73343,397.03345,64,62,0
397.13345,397.44583,55,62,0
397.13345,397.44583,60,62,0
397.13345,397.44583,64,62,0
397.55002,398.48752,55,62,0
397.55002,398.48752,60,62,0
397.55002,398.48752,64,62,0
400.67566,400.74207,60,122,0
400.74207,400.80847,62,122,0
400.80847,400.87488,64,122,0
400.87488,400.94128,65,122,0
400.94128,401.0077,67,122,0
401.0077,401.0741,69,122,0
401.0741,401.1405,71,122,0
401.1444,401.61316,72,127,0
403.0194,403.08582,72,122,0
403.08582,403.15222,74,122,0
403.15222,403.21863,76,122,0
403.21863,403.28806,77,122,0
403.28806,403.36133,79,122,0
403.36133,403.4346,81,122,0
403.4346,403.5079,83,122,0
403.5122,403.90012,84,127,0
404.5467,405.32254,81,69,0
405.58118,406.35703,81,69,0
406.61563,407.65012,81,62,0
407.65012,408.426,79,69,0
408.426,408.61996,77,74,0
408.6846,409.20184,77,77,0
409.20184,409.7191,76,80,0
409.7191,410.23633,74,84,0
410.23633,410.62427,76,88,0
410.75357,411.78806,77,69,0
411.78806,412.3053,72,69,0
412.82254,413.85703,58,69,0
412.82254,413.85703,61,69,0
413.85703,414.37427,61,69,0
413.85703,414.37427,65,69,0
414.8915,415.926,75,69,0
415.926,416.44324,70,69,0
416.96048,417.99493,56,69,0
416.96048,417.99493,60,69,0
417.99493,418.51218,60,69,0
417.99493,418.51218,63,69,0
419.28806,419.54666,77,62,0
419.54666,419.8053,79,62,0
419.8053,420.0639,81,62,0
420.0639,420.32254,82,62,0
420.32254,420.58115,84,62,0
420.58115,420.83978,85,62,0
420.83978,421.0984,87,62,0
421.0984,421.35703,88,62,0
421.35703,421.61563,89,62,0
421.61563,421.87427,88,62,0
421.87427,422.13287,89,62,0
422.13287,422.3915,87,62,0
422.3915,422.65012,85,62,0
422.65012,422.90875,84,62,0
422.90875,423.1027,82,62,0
423.16736,423.42596,84,62,0
423.42596,423.6846,85,62,0
423.6846,423.9432,86,62,0
423.9432,424.20184,87,62,0
424.20184,424.23416,87,62,0
424.23416,424.46045,85,62,0
424.46045,424.65442,84,62,0
424.7191,424.7514,84,62,0
424.7514,424.9777,82,62,0
424.9777,425.17166,80,62,0
425.23633,425.26865,82,62,0
425.26865,425.49493,80,62,0
425.49493,425.6889,79,62,0
425.75357,425.7859,79,62,0
425.7859,426.01218,77,62,0
426.01218,426.20615,75,62,0
426.2708,426.30313,77,62,0
426.30313,426.52942,75,62,0
426.52942,426.7234,73,62,0
426.78806,426.82037,73,62,0
426.82037,427.04666,72,62,0
427.04666,427.24063,70,62,0
427.3053,427.6932,68,62,0
429.37424,430.40872,63,62,0
429.37424,430.40872,68,62,0
430.40872,431.4432,67,77,0
430.40872,431.4432,70,77,0
431.4432,431.83115,68,69,0
431.4432,431.83115,72,69,0
433.51218,434.54666,70,69,0
433.51218,434.54666,73,69,0
434.54666,435.58115,68,77,0
434.54666,435.58115,72,77,0
435.58115,435.9691,67,69,0
435.58115,435.9691,70,69,0
436.0984,436.48633,63,47,0
436.0984,436.48633,75,47,0
436.61563,437.00354,63,48,0
436.61563,437.00354,75,48,0
437.13287,437.52078,63,50,0
437.13287,437.52078,75,50,0
437.65012,438.03802,63,56,0
437.65012,438.03802,75,56,0
438.16736,438.55527,63,53,0
438.16736,438.55527,75,53,0
438.6846,439.0725,63,54,0
438.6846,439.0725,75,54,0
439.20184,439.58975,63,50,0
439.20184,439.58975,75,50,0
439.71906,440.107,63,50,0
439.71906,440.107,75,50,0
440.2363,440.62424,63,47,0
440.2363,440.62424,75,47,0
440.75354,441.14148,63,48,0
440.75354,441.14148,75,48,0
441.27078,441.65872,63,50,0
441.27078,441.65872,75,50,0
441.78802,442.17596,63,56,0
441.78802,442.17596,75,56,0
442.30527,442.6932,63,53,0
442.30527,442.6932,75,53,0
442.8225,443.21045,63,54,0
442.8225,443.21045,75,54,0
443.33975,443.7277,63,50,0
443.33975,443.7277,75,50,0
443.857,444.24493,63,69,0
443.857,444.24493,75,69,0
445.92596,446.02295,55,69,0
446.05527,446.15225,56,69,0
446.18457,446.28156,58,70,0
446.3139,446.4109,60,71,0
446.4432,446.5402,61,71,0
446.5725,446.6695,60,72,0
446.7018,446.7988,58,73,0
446.83115,446.92813,56,74,0
446.96045,447.05743,55,74,0
447.08975,447.18674,56,75,0
447.21906,447.31604,58,76,0
447.3484,447.44534,60,77,0
447.4777,447.57468,61,77,0
447.607,447.70398,63,78,0
447.7363,447.83328,65,79,0
447.8656,447.9626,67,80,0
447.99493,448.09192,68,80,0
448.12424,448.22122,70,80,0
448.25354,448.35052,72,81,0
448.38284,448.47983,73,82,0
448.51218,448.60916,75,83,0
448.64148,448.73846,73,83,0
448.77078,448.86777,72,84,0
448.9001,448.99707,70,85,0
449.02942,449.1264,68,86,0
449.15872,449.2557,70,86,0
449.28802,449.385,72,87,0
449.41733,449.5143,73,88,0
449.54666,449.64365,75,89,0
449.67596,449.77295,77,89,0
449.80527,449.90225,79,90,0
449.93457,450.03156,80,91,0
450.0639,450.16086,79,69,0
450.1932,450.2902,80,69,0
450.3225,450.4195,82,69,0
450.4518,450.5488,84,69,0
450.58112,450.6781,85,69,0
450.71045,450.80743,84,69,0
450.83975,450.93674,82,69,0
450.96906,451.06604,80,69,0
451.09836,451.19534,79,69,0
451.2277,451.32468,77,69,0
451.357,451.45398,75,69,0
451.4863,451.58328,73,69,0
451.6156,451.7126,72,69,0
451.74493,451.84192,70,69,0
451.87424,451.97122,68,69,0
452.00354,452.10052,67,69,0
452.13284,452.22983,68,69,0
452.26218,452.35916,70,69,0
452.39148,452.48846,72,69,0
452.52078,452.61777,73,69,0
452.6501,452.74707,75,69,0
452.77942,452.87637,73,69,0
452.90872,453.0057,72,69,0
453.03802,453.135,70,69,0
453.16733,453.2643,68,69,0
453.29663,453.39362,67,69,0
453.42596,453.52295,65,69,0
453.55527,453.65225,63,69,0
453.68457,453.78156,61,69,0
453.81387,453.91086,60,69,0
453.9432,454.0402,58,69,0
454.0725,454.1695,56,69,0
454.2018,455.75354,51,69,0
454.2018,455.75354,58,69,0
454.2018,455.75354,61,69,0
454.2018,455.75354,63,69,0
456.27078,457.8225,60,80,0
456.27078,457.8225,63,80,0
458.33975,458.43674,55,69,0
458.46906,458.56604,56,69,0
458.59836,458.69534,58,69,0
458.7277,458.82465,60,69,0
458.857,458.95398,61,69,0
458.9863,459.08328,60,69,0
459.1156,459.2126,58,69,0
459.2449,459.3419,56,69,0
459.37424,459.47122,55,69,0
459.50354,459.60052,56,69,0
459.63284,459.72983,58,69,0
459.76215,459.85913,60,69,0
459.89148,459.98846,61,69,0
460.02078,460.11777,63,69,0
460.1501,460.24707,65,69,0
460.2794,460.37637,67,69,0
460.40872,460.5057,68,69,0
460.53802,460.635,70,69,0
460.66733,460.7643,72,69,0
460.79663,460.89362,73,69,0
460.92596,461.02292,75,69,0
461.05527,461.15225,73,69,0
461.18457,461.28156,72,69,0
461.31387,461.41086,70,69,0
461.4432,461.54016,68,69,0
461.5725,461.6695,70,69,0
461.7018,461.7988,72,69,0
461.83112,461.9281,73,69,0
461.96042,462.0574,75,69,0
462.08975,462.18674,77,69,0
462.21906,462.31604,79,69,0
462.34836,462.44534,80,69,0
462.47766,462.57465,79,62,0
462.607,462.70398,80,62,0
462.7363,462.83328,82,62,0
462.8656,462.9626,84,62,0
462.9949,463.0919,85,62,0
463.12424,463.22122,84,62,0
463.25354,463.35052,82,62,0
463.38284,463.47983,80,62,0
463.51215,463.60913,79,62,0
463.64148,463.73843,77,62,0
463.77078,463.86777,75,62,0
463.9001,463.99707,73,62,0
464.0294,464.12637,72,62,0
464.15872,464.25568,70,62,0
464.28802,464.385,68,62,0
464.41733,464.5143,67,62,0
464.54663,464.64362,68,62,0
464.67593,464.77292,70,62,0
464.80527,464.90225,72,62,0
464.93457,465.03156,73,62,0
465.06387,465.16086,75,62,0
465.19318,465.29016,73,62,0
465.3225,465.4195,72,62,0
465.4518,465.5488,70,62,0
465.58112,465.6781,68,62,0
465.71042,465.8074,67,62,0
465.83975,465.93674,65,62,0
465.96906,466.06604,63,62,0
466.09836,466.19534,61,62,0
466.22766,466.32465,60,62,0
466.357,466.45395,58,62,0
466.4863,466.58328,56,62,0
466.6156,466.7196,55,62,0
466.75433,466.8585,56,62,0
466.89322,466.99738,58,62,0
467.0321,467.13626,60,62,0
467.171,467.27518,61,62,0
467.30988,467.41406,60,62,0
467.44876,467.55295,58,62,0
467.58768,467.69183,56,62,0
467.72656,467.83887,55,62,0
467.87637,467.98886,53,62,0
468.02637,468.13885,51,62,0
468.17636,468.28888,49,62,0
468.32635,468.43887,48,62,0
468.47638,468.58887,46,62,0
468.62637,468.73886,44,62,0
468.77637,468.88885,43,62,0
468.92636,469.48825,44,62,0
471.92575,474.73746,48,62,0
471.92575,474.73746,51,62,0
471.92575,474.73746,60,62,0
475.67496,478.48746,48,62,0
475.67496,478.48746,51,62,0
475.67496,478.48746,56,62,0
36.50763,37.598766,72,127,40
38.689674,39.780586,72,127,40
40.416946,40.80331,68,127,40
40.871494,41.416946,68,127,40
41.780582,42.50786,65,127,40
43.05331,44.144222,68,127,40
45.23513,46.05331,75,127,40
46.32604,47.416946,75,127,40
48.871494,49.598766,73,127,40
49.689674,50.14422,73,127,40
50.23513,50.689674,73,127,40
51.32604,51.780582,73,127,40
52.689674,53.689674,70,127,40
53.962402,55.05331,72,127,40
55.962402,56.962402,72,127,40
57.23513,59.416946,77,127,40
59.507854,59.962402,74,127,40
60.05331,60.439674,70,127,40
60.507854,61.598766,68,127,40
62.689674,63.780582,70,127,40
63.87149,64.326035,70,127,40
64.41695,64.87149,67,127,40
65.87126,66.207855,67,127,40
66.29877,66.61694,65,127,40
66.707855,67.1624,68,127,40
68.25331,68.52604,67,127,40
68.88967,69.27604,63,127,40
69.344215,70.1624,63,127,40
73.707855,75.344215,63,127,40
75.43513,75.82149,63,127,40
75.88967,76.707855,63,127,40
78.07149,79.707855,63,127,40
79.79876,80.18513,63,127,40
80.25331,82.98058,63,127,40
83.52604,84.07149,68,127,40
84.43513,85.1624,70,127,40
85.707855,86.25331,63,127,40
86.79876,87.88967,68,127,40
95.52603,96.61694,68,127,40
97.81672,98.635124,63,127,40
97.81672,98.635124,72,127,40
98.90785,99.726036,72,127,40
99.998764,100.27149,72,127,40
100.3624,100.635124,70,127,40
100.726036,100.998764,69,127,40
101.08967,101.3624,70,127,40
101.45331,101.726036,72,127,40
101.81694,102.08967,73,127,40
102.18058,102.54421,60,127,40
102.90785,103.18058,63,127,40
103.27149,103.635124,61,127,40
103.998764,104.27149,63,127,40
104.3624,105.18058,63,127,40
106.54421,107.635124,70,127,40
108.271484,108.726036,71,127,40
109.635124,110.226036,68,127,40
110.635124,110.90785,70,127,40
111.81694,112.271484,73,127,40
112.3624,112.81694,70,127,40
113.08967,114.18058,73,127,40
114.99876,115.20331,72,127,40
115.271484,116.3624,73,127,40
117.45331,118.81694,75,127,40
118.90785,119.3624,77,127,40
119.635124,120.18058,75,127,40
120.726036,121.271484,73,127,40
121.81694,122.90785,72,127,40
123.271484,123.99876,71,127,40
124.90785,126.18058,72,127,40
127.08967,128.08966,70,127,40
128.3624,128.90785,68,127,40
129.27148,129.99876,65,127,40
130.3624,131.63512,68,127,40
132.8349,133.6533,75,127,40
133.92603,134.74422,75,127,40
135.01694,135.38057,75,127,40
135.74422,136.01694,72,127,40
136.10785,136.38057,73,127,40
136.47148,136.74422,75,127,40
136.83513,137.10785,77,127,40
137.19876,137.28967,68,127,40
137.38057,137.6533,68,127,40
137.74422,138.01694,68,127,40
138.10785,139.10785,72,127,40
139.38057,140.19876,68,127,40
142.6533,143.18097,75,127,40
143.35675,143.53253,75,127,40
143.59113,145.46613,75,127,40
147.34113,149.21613,75,127,40
151.09113,152.96613,68,127,40
154.84113,156.71613,71,127,40
157.65363,158.26886,75,127,40
158.47394,158.56183,75,127,40
158.59113,160.46613,75,127,40
162.34113,164.21613,75,127,40
166.09113,167.96613,68,127,40
169.84113,171.9505,63,127,40
172.02863,172.41925,65,127,40
172.49738,172.888,61,127,40
172.96613,173.35675,58,127,40
173.43488,173.94269,58,127,40
175.7005,175.77081,66,127,40
175.93488,176.00519,70,127,40
176.16925,176.23956,73,127,40
176.40363,176.47394,78,127,40
176.638,176.70831,82,127,40
176.87238,176.94269,87,127,40
177.10675,177.17706,90,127,40
177.34113,177.69269,89,127,40
179.4505,179.52081,63,127,40
179.68488,179.75519,69,127,40
179.91925,179.98956,72,127,40
180.15363,180.22394,75,127,40
180.388,180.45831,81,127,40
180.62238,180.69269,84,127,40
180.85675,180.92706,87,127,40
181.09113,181.44269,85,127,40
183.2005,183.27081,63,127,40
183.43488,183.50519,67,127,40
183.66925,183.73956,70,127,40
183.90363,183.97394,75,127,40
184.138,184.20831,79,127,40
184.37238,184.44269,82,127,40
184.60675,184.67706,87,127,40
184.84113,185.19269,83,127,40
186.9505,187.02081,68,127,40
187.18488,187.25519,71,127,40
187.41925,187.48956,74,127,40
187.65363,187.72394,80,127,40
187.888,187.95831,82,127,40
188.12238,188.19269,83,127,40
188.35675,188.42706,80,127,40
188.59113,188.94269,79,127,40
190.7005,190.77081,87,127,40
190.93488,191.00519,83,127,40
191.16925,191.23956,80,127,40
191.40363,191.47394,75,127,40
191.638,191.70831,71,127,40
191.87238,191.94269,68,127,40
192.10675,192.17706,71,127,40
192.34113,192.69269,63,127,40
194.4505,194.52081,87,127,40
194.68488,194.75519,83,127,40
194.91925,194.98956,80,127,40
195.15363,195.22394,75,127,40
195.388,195.45831,71,127,40
195.62238,195.69269,68,127,40
195.85675,195.92706,71,127,40
196.09113,196.44269,63,127,40
197.02863,197.38019,67,127,40
197.02863,197.38019,75,127,40
198.90363,199.25519,70,127,40
198.90363,199.25519,79,127,40
199.84113,204.52863,70,127,40
199.84113,204.52863,79,127,40
208.27863,208.80597,63,127,40
208.27863,208.80597,73,127,40
212.96613,213.2005,55,127,40
213.27863,213.66925,58,127,40
213.74738,214.138,61,127,40
214.21613,214.60675,58,127,40
214.68488,215.0755,55,127,40
215.15363,215.55174,58,127,40
215.63239,216.04361,61,127,40
216.12695,216.54361,65,127,40
216.62975,217.3194,68,127,40
223.00905,223.25113,63,127,40
223.33177,223.735,72,127,40
223.97693,224.21887,80,127,40
224.29951,224.53339,87,127,40
224.70274,224.77531,87,127,40
224.94467,225.7204,87,127,40
231.15143,231.39351,87,127,40
231.47415,231.87738,80,127,40
232.11931,232.36124,74,127,40
232.4419,232.68062,70,127,40
232.86166,232.93924,67,127,40
233.12029,233.89615,63,127,40
237.25821,237.50029,70,127,40
237.58093,237.98415,77,127,40
238.22609,238.46802,81,127,40
238.54868,238.78255,82,127,40
238.95189,239.02448,82,127,40
239.19383,239.48463,82,127,40
239.58162,239.6786,82,127,40
239.71094,240.00188,87,127,40
240.09886,240.19585,82,127,40
240.22818,240.51912,87,127,40
240.6161,240.71309,82,127,40
240.7454,241.03636,87,127,40
241.13335,241.23033,82,127,40
241.26265,242.03851,87,127,40
243.33162,243.59024,77,127,40
243.67645,244.10748,84,127,40
244.19368,244.63872,88,127,40
244.91144,244.99326,89,127,40
245.18416,245.26598,89,127,40
245.4569,246.00235,87,127,40
247.09326,247.7069,82,127,40
247.91144,248.18416,75,127,40
248.4569,248.53871,80,127,40
248.72961,248.81143,79,127,40
249.00235,249.08417,77,127,40
249.27507,249.35689,75,127,40
249.5478,249.62962,73,127,40
249.82053,250.59651,72,127,40
250.85513,251.63098,72,127,40
251.8896,252.92409,72,127,40
253.52754,253.89392,68,127,40
253.95857,254.47581,68,127,40
254.82065,255.5103,65,127,40
256.02753,257.062,68,127,40
258.0965,258.87238,75,127,40
259.13098,259.90683,75,127,40
260.16547,261.7172,75,127,40
262.062,262.49304,72,127,40
262.57925,263.01028,75,127,40
263.0965,264.04477,77,127,40
264.13098,265.3379,72,127,40
266.37234,267.40683,72,127,40
268.26892,269.2172,72,127,40
269.30338,271.54477,77,127,40
271.63098,272.062,74,127,40
272.14822,272.57925,70,127,40
273.4413,274.3896,67,127,40
274.64822,275.6827,70,127,40
275.7689,276.19995,70,127,40
276.28613,276.65253,67,127,40
276.71716,277.75165,65,127,40
277.83786,278.1396,64,127,40
278.3551,278.7215,68,127,40
278.78613,279.562,67,127,40
279.82062,280.07925,67,127,40
280.42407,280.79044,63,127,40
280.8551,281.63098,63,127,40
284.99304,285.25165,75,127,40
285.33786,285.7689,84,127,40
286.02753,286.28613,86,127,40
286.54477,286.62234,87,127,40
286.80338,286.88095,87,127,40
287.062,287.44992,87,127,40
289.13095,289.3896,87,127,40
289.4758,289.90683,79,127,40
290.16544,290.42407,74,127,40
290.51028,290.76028,75,127,40
290.9413,291.0189,75,127,40
291.19992,291.58786,75,127,40
293.5275,293.78613,56,127,40
293.87234,294.30338,63,127,40
294.3896,294.82062,63,127,40
294.90683,295.2732,72,127,40
295.33786,295.59647,72,127,40
295.8551,295.93268,67,127,40
296.1137,296.1913,70,127,40
296.37234,296.63095,70,127,40
296.8896,296.96716,68,127,40
297.1482,297.22577,68,127,40
297.40683,298.4413,68,127,40
300.51025,301.54474,78,127,40
302.66544,303.09647,80,127,40
303.18268,303.54904,77,127,40
303.6137,303.87234,77,127,40
303.95853,304.38956,79,127,40
304.47577,304.9068,77,127,40
304.993,305.42404,79,127,40
305.51025,305.94128,80,127,40
306.0275,306.45853,79,127,40
306.54474,306.97577,82,127,40
307.06198,307.493,80,127,40
307.57922,308.5275,84,127,40
308.78613,309.56198,72,127,40
309.8206,310.07922,72,127,40
310.16544,310.59647,69,127,40
310.68268,311.1137,69,127,40
311.19992,311.63095,72,127,40
311.88956,312.1482,72,127,40
312.2344,312.66544,80,127,40
312.92404,313.18268,87,127,40
313.44128,313.51886,87,127,40
313.69992,313.7775,87,127,40
313.95853,314.2388,87,127,40
314.33255,314.59216,75,127,40
314.85077,314.92834,79,127,40
315.1094,315.18698,77,127,40
315.368,315.4456,75,127,40
315.62662,315.70422,73,127,40
315.88525,315.96283,72,127,40
316.14386,316.91974,70,127,40
317.17834,317.95422,70,127,40
318.04044,319.2473,72,127,40
320.0232,320.2818,70,127,40
321.14386,321.5749,73,127,40
321.6611,322.09213,70,127,40
322.35077,323.38525,73,127,40
324.1611,324.41974,72,127,40
324.50595,324.76456,75,127,40
324.85077,325.10938,75,127,40
325.1956,325.45422,75,127,40
325.5404,325.79904,75,127,40
325.88525,326.14386,75,127,40
326.23007,326.48868,75,127,40
326.5749,326.83353,77,127,40
326.91974,327.17834,77,127,40
327.26456,327.52316,75,127,40
327.60938,328.0404,79,127,40
328.12662,328.493,75,127,40
328.55765,328.81628,75,127,40
329.0749,329.1525,73,127,40
329.33353,329.4111,73,127,40
329.59213,329.85077,73,127,40
330.10938,330.18698,72,127,40
330.368,330.4456,72,127,40
330.62662,331.6611,72,127,40
332.00592,332.6956,71,127,40
333.73007,334.50592,72,127,40
334.76456,335.79904,72,127,40
336.40247,336.76886,68,127,40
336.83353,337.35077,68,127,40
337.6956,338.38522,65,127,40
338.90247,339.93695,68,127,40
340.97144,341.7473,75,127,40
342.00592,342.7818,75,127,40
343.0404,343.299,75,127,40
343.38522,343.81625,72,127,40
343.90247,344.3335,72,127,40
344.4197,344.85074,75,127,40
344.93695,345.1956,68,127,40
345.28177,345.5404,68,127,40
345.62662,345.88522,68,127,40
345.97144,346.9197,72,127,40
347.17834,347.9542,68,127,40
351.31625,351.6611,75,127,40
352.00592,352.26453,84,127,40
352.35074,352.60938,87,127,40
352.69556,352.9542,87,127,40
353.0404,353.299,87,127,40
353.38522,354.16107,87,127,40
355.799,356.05765,72,127,40
356.14383,356.40247,72,127,40
356.48868,356.74728,72,127,40
356.8335,357.09213,72,127,40
357.1783,357.43695,72,127,40
357.52316,357.80078,72,127,40
357.89337,358.17114,72,127,40
358.26373,358.5415,72,127,40
358.6341,358.93393,72,127,40
359.0339,359.33392,72,127,40
359.43393,359.7463,72,127,40
359.8505,360.788,72,127,40
366.2574,367.29166,81,127,40
368.32614,369.36063,81,127,40
369.96408,370.33044,77,127,40
370.3951,370.91235,77,127,40
371.25717,371.94684,74,127,40
372.29166,373.49857,77,127,40
376.602,377.63647,75,127,40
378.49857,379.44684,75,127,40
379.70544,380.48132,75,127,40
380.73993,380.99854,75,127,40
381.08475,381.51578,72,127,40
381.602,382.03302,72,127,40
382.11923,382.55026,75,127,40
382.8089,382.8951,72,127,40
382.9813,383.23993,72,127,40
383.32614,383.58475,72,127,40
383.84338,384.74854,75,127,40
386.9468,387.29166,75,127,40
387.46405,387.9813,84,127,40
388.15372,388.67096,82,127,40
389.01578,389.102,80,127,40
389.1882,389.4468,80,127,40
389.53302,389.79166,80,127,40
390.05026,390.82614,75,127,40
391.08475,391.42957,75,127,40
391.602,392.11923,84,127,40
392.29166,392.8089,82,127,40
393.15372,393.92957,80,127,40
395.2227,395.5003,72,127,40
395.5929,395.87067,72,127,40
395.96326,396.24103,72,127,40
396.33362,396.63345,72,127,40
396.73343,397.03345,72,127,40
397.13345,397.44583,72,127,40
397.55002,398.48752,72,127,40
399.50378,399.5702,60,127,40
399.61316,399.83582,67,127,40
399.97253,400.91003,72,127,40
401.84753,401.91394,72,127,40
401.9569,402.17957,79,127,40
402.31628,403.25378,84,127,40
404.5467,406.09842,65,127,40
406.1846,406.551,69,127,40
406.61563,408.16736,70,127,40
408.25357,408.61996,74,127,40
408.6846,409.7191,67,127,40
410.75357,411.78806,60,127,40
412.82254,413.85703,73,127,40
414.8915,415.926,58,127,40
416.96048,417.99493,72,127,40
437.65012,438.16736,80,127,40
438.25354,438.61993,82,127,40
438.6846,439.20184,82,127,40
439.28802,439.65442,84,127,40
439.71906,440.49493,84,127,40
441.78802,442.30527,85,127,40
442.39148,442.75787,85,127,40
442.8225,442.90872,84,127,40
442.99493,443.25354,82,127,40
443.42596,443.857,84,127,40
445.92596,447.99493,75,127,40
450.0639,450.83975,70,127,40
451.09836,451.87424,75,127,40
452.13284,452.90872,68,127,40
454.2018,456.27078,87,127,40
458.33975,459.1156,82,127,40
459.37424,460.1501,87,127,40
460.40872,461.18457,84,127,40
471.92575,475.67496,63,127,40
471.92575,475.67496,75,127,40
420.0639,420.83978,73,127,45
422.13287,422.90875,70,127,45
424.20184,424.9777,75,127,45
426.2708,427.04666,63,127,45
427.3053,427.6932,60,127,45
427.3053,427.6932,63,127,45
427.82254,428.21045,75,127,45
428.33978,428.7277,75,127,45
428.857,429.24493,75,127,45
429.37424,429.76218,75,127,45
429.89148,430.27942,75,127,45
430.40872,430.79666,75,127,45
430.92596,431.3139,75,127,45
431.4432,431.83115,75,127,45
431.96045,432.3484,75,127,45
432.4777,432.86563,75,127,45
432.99493,433.38287,75,127,45
433.51218,433.90012,75,127,45
434.02942,434.41736,75,127,45
434.54666,434.9346,75,127,45
435.0639,435.45184,75,127,45
435.58115,435.9691,75,127,45
462.47766,462.8656,67,127,45
462.47766,462.8656,75,127,45
462.47766,462.8656,82,127,45
463.51215,463.9001,67,127,45
463.51215,463.9001,75,127,45
463.51215,463.9001,87,127,45
464.54663,464.93457,68,127,45
464.54663,464.93457,75,127,45
464.54663,464.93457,84,127,45
466.6156,467.0321,67,127,45
466.6156,467.0321,75,127,45
466.6156,467.0321,82,127,45
467.72656,468.17636,67,127,45
467.72656,468.17636,75,127,45
467.72656,468.17636,87,127,45
468.92636,469.48825,63,127,45
468.92636,469.48825,72,127,45
468.92636,469.48825,80,127,45
37.598766,38.689674,72,127,40
39.598766,40.598766,70,127,40
41.23513,41.962402,67,127,40
42.32604,43.05331,67,127,40
43.962402,44.962402,63,127,40
47.416946,49.05331,75,127,40
49.416946,49.871494,72,127,40
49.962402,50.416946,75,127,40
50.507854,51.507854,77,127,40
51.780582,52.871494,72,127,40
54.87149,56.14422,72,127,40
56.780582,57.166946,70,127,40
59.235126,59.689674,75,127,40
59.780582,60.235126,72,127,40
61.416946,62.212402,67,127,40
63.598763,64.05331,72,127,40
64.14422,64.59876,68,127,40
64.689674,66.071266,65,127,40
66.1624,66.48058,64,127,40
66.98058,67.98058,67,127,40
68.344215,69.07149,65,127,40
75.1624,75.61694,65,127,40
79.52604,79.98058,65,127,40
82.79876,83.38967,68,127,40
83.88967,84.61694,72,127,40
84.98058,85.36694,67,127,40
86.07149,86.457855,68,127,40
87.707855,88.29876,67,127,40
96.61694,97.516716,63,127,40
96.61694,97.516716,70,127,40
102.3624,102.81694,63,127,40
103.45331,103.90785,63,127,40
107.635124,108.45331,70,127,40
108.54421,109.81694,72,127,40
110.726036,111.998764,72,127,40
112.08967,112.54421,72,127,40
112.635124,113.021484,72,127,40
113.998764,114.58967,70,127,40
116.18058,117.45331,74,127,40
118.635124,119.08967,76,127,40
119.18058,119.56694,75,127,40
119.99876,120.385124,73,127,40
121.08967,121.476036,72,127,40
122.726036,123.45331,70,127,40
123.81694,125.08967,72,127,40
125.99876,127.271484,72,127,40
127.90785,128.29422,68,127,40
128.72603,129.45331,67,127,40
129.81694,130.54422,67,127,40
131.45331,132.5349,63,127,40
135.19876,135.6533,73,127,40
137.10785,137.38057,70,127,40
137.47148,137.74422,70,127,40
137.83513,138.10785,70,127,40
138.92603,139.3124,70,127,40
145.30988,147.34113,76,127,40
149.05988,151.09113,67,127,40
152.80988,154.84113,70,127,40
156.55988,157.24347,70,127,40
160.30988,162.34113,76,127,40
164.05988,166.09113,67,127,40
167.80988,169.84113,70,127,40
171.9505,172.18488,66,127,40
172.263,172.65363,63,127,40
172.73175,173.12238,60,127,40
173.2005,173.59113,57,127,40
204.52863,207.80988,73,127,40
204.52863,207.80988,82,127,40
213.04425,213.43488,56,127,40
213.513,213.90363,60,127,40
213.98175,214.37238,60,127,40
214.4505,214.84113,56,127,40
214.91925,215.30988,56,127,40
215.39046,215.79369,60,127,40
215.87695,216.29361,63,127,40
216.37695,216.80215,67,127,40
223.08984,223.49306,68,127,40
223.57372,223.91644,75,127,40
224.05759,224.4608,84,127,40
231.23221,231.63544,84,127,40
231.71608,232.05882,75,127,40
232.19995,232.60318,75,127,40
237.33899,237.74222,74,127,40
237.82286,238.1656,82,127,40
238.30673,238.70996,82,127,40
243.41783,243.84886,80,127,40
243.93507,244.3661,89,127,40
244.4569,244.72054,89,127,40
245.82053,246.82053,82,127,40
248.00235,248.3887,82,127,40
252.75168,253.69995,70,127,40
254.3034,254.99306,67,127,40
255.33788,256.02753,67,127,40
256.88962,257.8379,63,127,40
261.54477,262.23444,73,127,40
262.32065,262.75168,73,127,40
262.8379,263.26892,73,127,40
263.87234,264.3034,73,127,40
265.16547,266.11374,70,127,40
267.23444,268.4413,72,127,40
269.04477,269.4758,70,127,40
271.37234,271.80338,75,127,40
271.8896,272.32062,72,127,40
272.57925,273.61374,68,127,40
275.51028,275.9413,72,127,40
276.02753,276.45856,68,127,40
277.57925,277.88098,67,127,40
277.96716,278.2689,65,127,40
279.90683,280.5965,65,127,40
285.07925,285.51028,80,127,40
285.5965,285.96286,87,127,40
286.1137,286.4801,87,127,40
289.21716,289.6482,82,127,40
289.7344,290.1008,75,127,40
290.25165,290.68268,75,127,40
293.6137,294.04474,60,127,40
294.13095,294.56198,68,127,40
294.6482,295.07922,60,127,40
295.42407,295.67407,70,127,40
296.45856,296.70856,63,127,40
298.2689,299.21716,67,127,40
301.37234,302.83786,77,127,40
302.92404,303.3551,79,127,40
303.69992,304.13095,72,127,40
304.21716,304.6482,72,127,40
304.7344,305.16544,72,127,40
305.25165,305.68268,72,127,40
305.7689,306.19992,77,127,40
306.28613,306.71716,80,127,40
306.80338,307.2344,75,127,40
307.32062,307.75165,82,127,40
309.9068,310.33783,70,127,40
310.42404,310.85507,70,127,40
310.94128,311.3723,70,127,40
311.45853,311.82492,73,127,40
311.97577,312.4068,75,127,40
312.493,312.8594,84,127,40
313.01025,313.37665,75,127,40
314.41974,314.7861,80,127,40
317.7818,318.21283,71,127,40
319.0749,319.63525,68,127,40
320.10938,321.31628,72,127,40
321.4025,321.83353,72,127,40
321.91974,322.2861,72,127,40
323.21283,323.9025,70,127,40
324.2473,324.50595,73,127,40
324.59213,324.85077,73,127,40
324.93698,325.1956,73,127,40
325.2818,325.5404,74,127,40
325.62662,325.88525,74,127,40
325.97147,326.23007,74,127,40
326.31628,326.5749,75,127,40
326.6611,326.91974,75,127,40
327.00592,327.26456,75,127,40
327.35077,327.7818,80,127,40
327.868,328.29904,77,127,40
328.64386,329.01025,73,127,40
329.67834,330.04474,72,127,40
331.48868,332.17834,70,127,40
332.52316,333.47144,72,127,40
335.62662,336.5749,70,127,40
337.17834,337.86798,67,127,40
338.21283,338.90247,67,127,40
339.76456,340.71283,63,127,40
343.12662,343.55765,73,127,40
343.64386,344.0749,73,127,40
344.1611,344.59213,73,127,40
344.67834,345.10938,77,127,40
345.1956,345.4542,70,127,40
345.5404,345.799,70,127,40
345.88522,346.14386,68,127,40
346.74728,347.11368,70,127,40
351.48868,351.9197,80,127,40
367.11926,368.32614,81,127,40
369.1882,370.13647,79,127,40
370.73993,371.4296,76,127,40
371.7744,372.46408,76,127,40
373.32614,374.2744,72,127,40
377.46408,378.67096,70,127,40
380.82614,381.25717,73,127,40
381.34338,381.7744,73,127,40
381.86063,382.29166,73,127,40
382.37787,382.74423,77,127,40
382.8089,383.0675,72,127,40
383.15372,383.41235,72,127,40
383.49854,383.75717,70,127,40
384.57614,384.87787,73,127,40
387.11923,387.63647,80,127,40
387.8089,388.32614,85,127,40
388.49854,388.92957,79,127,40
389.01578,389.2744,80,127,40
389.36063,389.61923,80,127,40
391.25717,391.7744,80,127,40
391.9468,392.46405,85,127,40
392.63647,393.0675,79,127,40
399.41394,399.6366,62,127,40
399.67957,399.90222,69,127,40
401.7577,401.98035,74,127,40
402.02332,402.24597,81,127,40
405.926,406.35703,67,127,40
407.99496,408.426,72,127,40
409.7191,410.49496,67,127,40
411.61563,412.5639,65,127,40
413.6846,414.63287,70,127,40
415.75357,416.70184,63,127,40
417.82254,418.7708,68,127,40
437.99493,438.42596,84,127,40
439.02942,439.46045,85,127,40
442.13287,442.5639,87,127,40
442.7363,442.99493,85,127,40
443.08115,443.33975,84,127,40
443.68457,444.63287,82,127,40
447.8225,449.54666,72,127,40
456.09836,457.8225,84,127,40
475.36246,479.42496,63,127,40
475.36246,479.42496,72,127,40
66.02126,66.344215,65,127,40
66.43513,66.88967,67,127,40
137.19876,137.47148,68,127,40
137.5624,137.83513,68,127,40
137.92603,138.19876,67,127,40
277.70856,278.01028,65,127,40
278.0965,278.52753,67,127,40
324.33353,324.59213,75,127,40
324.67834,324.93698,75,127,40
325.02316,325.2818,75,127,40
325.368,325.62662,75,127,40
325.71283,325.97147,75,127,40
326.05765,326.31628,75,127,40
326.4025,326.6611,77,127,40
326.7473,327.00592,77,127,40
327.09213,327.35077,77,127,40
345.02316,345.28177,70,127,40
345.36798,345.62662,70,127,40
345.71283,345.97144,70,127,40
382.7227,382.9813,73,127,40
383.0675,383.32614,73,127,40
383.41235,383.67096,73,127,40
384.70544,385.91235,72,127,40
388.92957,389.1882,82,127,40
389.2744,389.53302,82,127,40
389.61923,389.98563,84,127,40
399.48035,399.703,64,127,40
399.74597,399.96863,71,127,40
401.8241,402.04675,76,127,40
402.08972,402.31238,83,127,40
442.8225,443.08115,84,127,40
443.16736,443.5984,87,127,40
137.28967,137.5624,70,127,40
137.6533,137.92603,70,127,40
138.01694,138.28967,68,127,40
324.41974,324.67834,73,127,40
324.76456,325.02316,73,127,40
325.10938,325.368,73,127,40
325.45422,325.71283,74,127,40
325.79904,326.05765,74,127,40
326.14386,326.4025,74,127,40
326.48868,326.7473,75,127,40
326.83353,327.09213,75,127,40
327.17834,327.43698,74,127,40
345.10938,345.36798,68,127,40
345.4542,345.71283,68,127,40
345.799,346.05765,67,127,40
382.8951,383.15372,73,127,40
383.23993,383.49854,73,127,40
383.58475,383.84338,72,127,40
389.102,389.36063,82,127,40
389.4468,389.70544,82,127,40
399.54675,399.7694,65,127,40
401.8905,402.11316,77,127,40
442.90872,443.16736,85,127,40
