start_time,end_time,note_value,velocity,instrument_program_number
1.6670132,1.7670131,60,77,0
1.6670132,1.7670131,64,77,0
2.0003462,2.100346,60,77,0
2.0003462,2.100346,65,77,0
2.3336792,2.433679,60,77,0
2.3336792,2.433679,64,77,0
2.6670122,2.7670121,48,77,0
3.6670113,3.7670112,64,77,0
3.6670113,3.7670112,67,77,0
4.0003443,4.100344,59,77,0
4.0003443,4.100344,67,77,0
4.3336773,4.583677,60,89,0
4.3336773,4.708677,67,89,0
4.6670103,4.7920103,64,77,0
5.6670094,5.7670093,59,89,0
5.6670094,5.7670093,62,89,0
6.0003424,6.1003423,60,77,0
6.0003424,6.1003423,64,77,0
6.3336754,6.4336753,57,89,0
6.3336754,6.4336753,60,89,0
6.6670084,6.7670083,59,77,0
6.6670084,6.7670083,62,77,0
7.0003414,7.1003413,60,89,0
7.0003414,7.1003413,64,89,0
7.6670074,7.7670074,50,77,0
7.6670074,7.7670074,55,77,0
7.6670074,7.7670074,59,77,0
8.00034,8.10034,50,77,0
8.00034,8.10034,57,77,0
8.00034,8.10034,60,77,0
8.3336735,8.583673,55,77,0
8.3336735,8.583673,59,77,0
8.6670065,8.767006,43,71,0
9.667006,9.767005,48,77,0
9.667006,9.767005,52,77,0
9.667006,9.767005,55,77,0
10.000339,10.100338,48,77,0
10.000339,10.100338,53,77,0
10.000339,10.100338,57,77,0
10.333672,10.433671,48,77,0
10.333672,10.433671,52,77,0
10.333672,10.433671,55,77,0
11.667004,11.767003,52,77,0
11.667004,11.767003,55,77,0
12.000337,12.100336,47,77,0
12.000337,12.100336,55,77,0
12.33367,12.583669,48,89,0
12.33367,12.583669,55,89,0
12.667003,12.792002,52,77,0
12.667003,12.792002,55,77,0
13.667001,13.767001,59,89,0
13.667001,13.767001,62,89,0
14.000334,14.100334,60,77,0
14.000334,14.100334,64,77,0
14.333667,14.433667,57,89,0
14.333667,14.433667,60,89,0
14.667,14.767,59,77,0
14.667,14.767,62,77,0
15.000333,15.100333,60,89,0
15.000333,15.100333,64,89,0
15.666999,15.766999,50,77,0
15.666999,15.766999,55,77,0
15.666999,15.766999,59,77,0
16.000332,16.100332,50,77,0
16.000332,16.100332,57,77,0
16.000332,16.100332,60,77,0
16.666998,16.766998,52,77,0
16.666998,16.766998,55,77,0
16.666998,16.766998,59,77,0
17.000332,17.125332,48,77,0
17.166998,17.291998,45,77,0
17.333664,17.458664,50,107,0
17.50033,17.62533,38,107,0
17.666998,17.791998,50,107,0
17.833664,17.958664,38,107,0
18.00033,18.12533,50,107,0
18.166996,18.291996,38,107,0
18.333664,18.583662,43,107,0
18.666996,18.766996,55,98,0
19.666996,19.766994,52,77,0
19.666996,19.766994,58,77,0
19.666996,19.766994,60,77,0
20.666994,20.766994,53,77,0
20.666994,20.766994,57,77,0
20.666994,20.766994,60,77,0
21.666994,21.766993,48,86,0
21.666994,21.766993,57,86,0
21.666994,21.766993,60,86,0
22.000326,22.100327,49,92,0
22.000326,22.100327,55,92,0
22.000326,22.100327,58,92,0
22.33366,22.583658,50,77,0
22.33366,22.583658,53,77,0
22.33366,22.583658,57,77,0
22.666992,22.766993,38,71,0
23.66699,23.76699,45,77,0
23.66699,23.76699,49,77,0
23.66699,23.76699,52,77,0
24.66699,24.76699,50,77,0
24.66699,24.76699,53,77,0
25.666988,25.766989,38,77,0
25.666988,25.766989,50,77,0
26.000322,26.100323,38,77,0
26.000322,26.100323,50,77,0
26.333654,26.433655,38,77,0
26.333654,26.433655,50,77,0
26.666988,26.766989,38,77,0
26.666988,26.766989,50,77,0
27.00032,27.10032,41,77,0
27.00032,27.10032,53,77,0
27.333654,27.433655,40,77,0
27.333654,27.433655,52,77,0
28.00032,28.10032,52,107,0
28.00032,28.10032,56,107,0
28.00032,28.10032,59,107,0
29.000319,29.100319,45,107,0
29.000319,29.100319,48,107,0
29.000319,29.100319,52,107,0
29.000319,29.100319,57,107,0
30.000319,30.050318,40,107,0
30.000319,30.050318,44,107,0
30.000319,30.050318,47,107,0
30.000319,30.050318,52,107,0
30.166985,30.216984,40,107,0
30.166985,30.216984,44,107,0
30.166985,30.216984,47,107,0
30.166985,30.216984,52,107,0
31.000317,31.050318,33,107,0
31.000317,31.050318,36,107,0
31.000317,31.050318,40,107,0
31.000317,31.050318,45,107,0
31.166985,31.216984,33,107,0
31.166985,31.216984,36,107,0
31.166985,31.216984,40,107,0
31.166985,31.216984,45,107,0
32.000317,32.050316,40,107,0
32.000317,32.050316,44,107,0
32.000317,32.050316,47,107,0
32.000317,32.050316,52,107,0
32.166985,32.216984,40,107,0
32.166985,32.216984,44,107,0
32.166985,32.216984,47,107,0
32.166985,32.216984,52,107,0
33.000317,33.050316,40,107,0
33.000317,33.050316,44,107,0
33.000317,33.050316,47,107,0
33.000317,33.050316,52,107,0
33.16698,33.21698,40,107,0
33.16698,33.21698,44,107,0
33.16698,33.21698,47,107,0
33.16698,33.21698,52,107,0
35.66698,35.76698,60,69,0
35.66698,35.76698,72,69,0
36.000313,36.10031,60,69,0
36.000313,36.10031,72,69,0
36.333645,36.583645,60,69,0
36.333645,36.583645,72,69,0
36.666977,36.76698,48,65,0
36.666977,36.76698,60,65,0
37.666977,37.766975,60,69,0
37.666977,37.766975,72,69,0
38.00031,38.10031,55,69,0
38.00031,38.10031,67,69,0
38.333645,38.583645,60,69,0
38.333645,38.583645,72,69,0
38.666977,38.766975,48,65,0
38.666977,38.766975,60,65,0
40.83364,40.95864,59,69,0
41.00031,41.12531,64,69,0
41.166973,41.291973,60,69,0
41.33364,41.45864,62,69,0
41.500305,41.625305,50,69,0
41.666973,41.791973,62,69,0
41.83364,41.95864,50,69,0
42.000305,42.125305,62,69,0
42.166973,42.291973,50,69,0
42.33364,42.583637,55,69,0
42.666973,42.76697,43,65,0
43.000305,43.166973,57,69,0
43.000305,43.166973,60,69,0
43.166973,43.291973,56,69,0
43.166973,43.291973,59,69,0
43.333637,43.383636,57,69,0
43.500305,43.550304,60,69,0
43.666973,43.716972,52,69,0
43.833637,43.883636,55,69,0
44.000305,44.050304,53,69,0
44.16697,44.216972,57,69,0
44.333637,44.383636,53,69,0
44.500305,44.550304,50,69,0
44.66697,44.71697,52,69,0
44.833637,44.883636,55,69,0
45.0003,45.050304,53,69,0
45.16697,45.21697,50,69,0
45.333637,45.433636,43,69,0
45.66697,45.766968,43,69,0
46.0003,46.100304,43,69,0
46.333633,46.383636,48,69,0
46.5003,46.5503,55,75,0
46.66697,46.71697,52,81,0
46.833633,46.883636,48,88,0
47.0003,47.0503,53,94,0
47.16697,47.21697,50,100,0
47.333633,47.383633,55,107,0
47.5003,47.5503,52,107,0
47.666965,47.71697,48,107,0
47.833633,47.883633,43,107,0
48.0003,48.0503,55,107,0
48.166965,48.21697,43,107,0
48.333633,48.43363,48,107,0
48.666965,48.766968,36,107,0
49.666965,49.766964,52,77,0
49.666965,49.766964,58,77,0
49.666965,49.766964,60,77,0
50.666965,50.766964,53,77,0
50.666965,50.766964,57,77,0
50.666965,50.766964,60,77,0
51.66696,51.766964,48,86,0
51.66696,51.766964,57,86,0
51.66696,51.766964,60,86,0
52.000298,52.100296,49,92,0
52.000298,52.100296,55,92,0
52.000298,52.100296,58,92,0
52.33363,52.58363,50,77,0
52.33363,52.58363,53,77,0
52.33363,52.58363,57,77,0
52.66696,52.766964,38,71,0
53.66696,53.76696,45,77,0
53.66696,53.76696,49,77,0
53.66696,53.76696,52,77,0
54.66696,54.76696,50,77,0
54.66696,54.76696,53,77,0
55.666958,55.76696,38,77,0
55.666958,55.76696,50,77,0
56.000294,56.100292,38,77,0
56.000294,56.100292,50,77,0
56.333626,56.433624,38,77,0
56.333626,56.433624,50,77,0
56.666958,56.766956,38,77,0
56.666958,56.766956,50,77,0
57.00029,57.100292,41,77,0
57.00029,57.100292,53,77,0
57.333626,57.433624,40,77,0
57.333626,57.433624,52,77,0
58.00029,58.10029,52,107,0
58.00029,58.10029,56,107,0
58.00029,58.10029,59,107,0
59.00029,59.10029,45,107,0
59.00029,59.10029,48,107,0
59.00029,59.10029,52,107,0
59.00029,59.10029,57,107,0
60.00029,60.05029,40,107,0
60.00029,60.05029,44,107,0
60.00029,60.05029,47,107,0
60.00029,60.05029,52,107,0
60.166954,60.216953,40,107,0
60.166954,60.216953,44,107,0
60.166954,60.216953,47,107,0
60.166954,60.216953,52,107,0
61.000286,61.050285,33,107,0
61.000286,61.050285,36,107,0
61.000286,61.050285,40,107,0
61.000286,61.050285,45,107,0
61.166954,61.216953,33,107,0
61.166954,61.216953,36,107,0
61.166954,61.216953,40,107,0
61.166954,61.216953,45,107,0
62.000286,62.050285,40,107,0
62.000286,62.050285,44,107,0
62.000286,62.050285,47,107,0
62.000286,62.050285,52,107,0
62.166954,62.216953,40,107,0
62.166954,62.216953,44,107,0
62.166954,62.216953,47,107,0
62.166954,62.216953,52,107,0
63.000286,63.050285,40,107,0
63.000286,63.050285,44,107,0
63.000286,63.050285,47,107,0
63.000286,63.050285,52,107,0
63.16695,63.216953,40,107,0
63.16695,63.216953,44,107,0
63.16695,63.216953,47,107,0
63.16695,63.216953,52,107,0
65.66695,65.76695,60,69,0
65.66695,65.76695,72,69,0
66.00028,66.10028,60,69,0
66.00028,66.10028,72,69,0
66.33362,66.58362,60,69,0
66.33362,66.58362,72,69,0
66.66695,66.766945,48,65,0
66.66695,66.766945,60,65,0
67.66695,67.766945,60,69,0
67.66695,67.766945,72,69,0
68.00028,68.10028,55,69,0
68.00028,68.10028,67,69,0
68.33361,68.58361,60,69,0
68.33361,68.58361,72,69,0
68.66695,68.766945,48,65,0
68.66695,68.766945,60,65,0
70.83361,70.95861,59,69,0
71.000275,71.125275,64,69,0
71.16695,71.29195,60,69,0
71.33361,71.45861,62,69,0
71.500275,71.625275,50,69,0
71.66695,71.79195,62,69,0
71.83361,71.95861,50,69,0
72.000275,72.125275,62,69,0
72.16695,72.29195,50,69,0
72.33361,72.58361,55,69,0
72.66694,72.766945,43,65,0
73.000275,73.16694,57,69,0
73.000275,73.16694,60,69,0
73.16694,73.29194,56,69,0
73.16694,73.29194,59,69,0
73.33361,73.383606,57,69,0
73.500275,73.55028,60,69,0
73.66694,73.71694,52,69,0
73.83361,73.883606,55,69,0
74.000275,74.05028,53,69,0
74.16694,74.21694,57,69,0
74.33361,74.383606,53,69,0
74.500275,74.55027,50,69,0
74.66694,74.71694,52,69,0
74.83361,74.883606,55,69,0
75.000275,75.05027,53,69,0
75.16694,75.21694,50,69,0
75.3336,75.43361,43,69,0
75.66694,75.76694,43,69,0
76.000275,76.10027,43,69,0
76.3336,76.383606,48,69,0
76.500275,76.55027,55,75,0
76.66694,76.71694,52,81,0
76.8336,76.883606,48,88,0
77.000275,77.05027,53,94,0
77.16694,77.216934,50,100,0
77.3336,77.383606,55,107,0
77.50027,77.55027,52,107,0
77.66694,77.716934,48,107,0
77.8336,77.883606,43,107,0
78.00027,78.05027,55,107,0
78.16694,78.216934,43,107,0
78.3336,78.4336,48,107,0
78.66694,78.76694,36,107,0
80.00027,80.12527,48,86,0
80.16693,80.29193,47,81,0
80.3336,80.4586,48,77,0
80.50027,80.62527,47,77,0
80.66693,80.79193,48,77,0
80.8336,80.8836,43,77,0
81.00027,81.05027,40,77,0
81.16693,81.216934,43,77,0
81.3336,81.4336,48,77,0
81.66693,81.76693,36,77,0
82.00027,82.100266,38,77,0
82.3336,82.4336,40,77,0
82.66693,82.76693,40,77,0
83.00027,83.100266,41,77,0
83.333595,83.833595,43,89,0
84.00027,84.16693,41,77,0
84.16693,84.333595,40,77,0
84.333595,84.43359,38,77,0
84.66693,84.76693,38,77,0
85.00027,85.100266,40,77,0
85.333595,85.43359,41,89,0
85.66693,85.833595,36,77,0
85.833595,86.00026,38,77,0
86.00026,86.100266,40,89,0
86.333595,86.43359,38,77,0
86.66693,86.76693,40,89,0
87.00026,87.16693,38,77,0
87.16693,87.333595,36,77,0
87.333595,87.43359,35,77,0
87.66692,87.76693,36,77,0
88.00026,88.66692,38,89,0
88.66692,88.76693,31,77,0
90.00026,90.12526,48,86,0
90.16692,90.29192,47,81,0
90.33359,90.45859,48,77,0
90.50026,90.62526,47,77,0
90.66692,90.79192,48,77,0
90.83359,90.88359,43,77,0
91.00026,91.050255,40,77,0
91.16692,91.21693,43,77,0
91.33359,91.43359,48,77,0
91.66692,91.76692,36,77,0
92.00026,92.10026,38,77,0
92.33359,92.433586,40,77,0
92.66692,92.76692,40,77,0
93.00025,93.10026,41,77,0
93.33359,93.83359,43,89,0
94.00025,94.16692,41,77,0
94.16692,94.33359,40,77,0
94.33359,94.433586,38,77,0
94.66692,94.76692,38,77,0
95.00025,95.10025,40,77,0
95.33359,95.433586,41,89,0
95.666916,95.83359,36,77,0
95.83359,96.00025,38,77,0
96.00025,96.10025,40,89,0
96.33359,96.433586,38,77,0
96.666916,96.766914,40,89,0
97.00025,97.166916,38,77,0
97.166916,97.33359,36,77,0
97.33359,97.433586,35,77,0
97.666916,97.766914,36,77,0
98.00025,98.666916,38,89,0
98.666916,98.766914,31,77,0
99.00025,99.166916,53,77,0
99.166916,99.33358,52,80,0
99.33358,99.50025,53,83,0
99.50025,99.666916,52,86,0
99.666916,99.71692,53,89,0
99.83358,99.88358,50,92,0
100.00025,100.05025,47,86,0
100.166916,100.21691,50,81,0
100.33358,100.83358,43,77,0
101.000244,101.166916,53,77,0
101.166916,101.33358,52,77,0
101.33358,101.500244,53,77,0
101.500244,101.666916,52,77,0
101.666916,101.71691,53,77,0
101.83358,101.88358,50,77,0
102.000244,102.05025,47,77,0
102.166916,102.21691,50,77,0
102.33358,102.500244,53,77,0
102.500244,102.666916,52,77,0
102.666916,102.71691,53,77,0
102.83358,102.883575,50,77,0
103.000244,103.05025,47,77,0
103.16691,103.21691,50,77,0
103.33358,103.43358,53,77,0
113.333565,113.583565,55,69,0
113.333565,113.583565,62,69,0
113.333565,113.583565,65,69,0
116.00023,116.1669,48,107,0
116.1669,116.333565,47,107,0
116.333565,116.50023,48,107,0
116.50023,116.6669,47,107,0
116.6669,116.716896,48,107,0
116.833565,116.88357,43,107,0
117.00023,117.05023,40,107,0
117.1669,117.216896,43,107,0
117.333565,117.833565,36,107,0
117.333565,117.833565,48,107,0
118.00023,118.10023,38,107,0
118.00023,118.10023,50,107,0
118.333565,118.43356,40,107,0
118.333565,118.43356,52,107,0
118.66689,118.7669,40,107,0
118.66689,118.7669,52,107,0
119.00023,119.10023,41,107,0
119.00023,119.10023,53,107,0
119.333565,119.833565,43,127,0
119.333565,119.833565,55,127,0
120.00023,120.16689,41,107,0
120.00023,120.16689,53,107,0
120.16689,120.29189,40,107,0
120.16689,120.29189,52,107,0
120.333565,120.43356,38,107,0
120.333565,120.43356,50,107,0
120.66689,120.76689,38,107,0
120.66689,120.76689,50,107,0
121.00023,121.10023,40,107,0
121.00023,121.10023,52,107,0
121.33356,121.43356,41,127,0
121.33356,121.43356,53,127,0
121.66689,121.83356,36,107,0
121.66689,121.83356,48,107,0
121.83356,121.95856,38,107,0
121.83356,121.95856,50,107,0
122.00023,122.10023,40,127,0
122.00023,122.10023,52,127,0
122.33356,122.433556,38,107,0
122.33356,122.433556,50,107,0
122.66689,122.76689,40,127,0
122.66689,122.76689,52,127,0
123.00023,123.16689,38,107,0
123.00023,123.16689,50,107,0
123.16689,123.29189,36,107,0
123.16689,123.29189,48,107,0
123.33356,123.433556,35,107,0
123.33356,123.433556,47,107,0
123.66689,123.76689,36,107,0
123.66689,123.76689,48,107,0
124.00022,124.37522,38,127,0
124.00022,124.37522,50,127,0
124.50022,124.550224,31,107,0
124.50022,124.550224,43,107,0
124.66689,124.76689,36,107,0
124.66689,124.76689,48,107,0
125.00022,125.16689,53,77,0
125.16689,125.33356,52,80,0
125.33356,125.50022,53,83,0
125.50022,125.66689,52,86,0
125.66689,125.71689,53,89,0
125.83356,125.88355,50,92,0
126.00022,126.050224,47,86,0
126.166885,126.21689,50,81,0
126.33356,126.83356,43,77,0
127.00022,127.166885,53,77,0
127.166885,127.33356,52,77,0
127.33356,127.50022,53,77,0
127.50022,127.666885,52,77,0
127.666885,127.71689,53,77,0
127.83356,127.88355,50,77,0
128.00021,128.05022,47,77,0
128.16689,128.21689,50,77,0
128.33356,128.50021,53,77,0
128.50021,128.66689,52,77,0
128.66689,128.71689,53,77,0
128.83356,128.88356,50,77,0
129.00021,129.05022,47,77,0
129.16689,129.21689,50,77,0
129.33356,129.43355,53,77,0
139.33354,139.58354,55,69,0
139.33354,139.58354,62,69,0
139.33354,139.58354,65,69,0
142.00021,142.16687,48,107,0
142.16687,142.33354,47,107,0
142.33354,142.5002,48,107,0
142.5002,142.66687,47,107,0
142.66687,142.71687,48,107,0
142.83354,142.88354,43,107,0
143.0002,143.0502,40,107,0
143.16687,143.21687,43,107,0
143.33354,143.83354,36,107,0
143.33354,143.83354,48,107,0
144.0002,144.1002,38,107,0
144.0002,144.1002,50,107,0
144.33354,144.43353,40,107,0
144.33354,144.43353,52,107,0
144.66687,144.76688,40,107,0
144.66687,144.76688,52,107,0
145.0002,145.1002,41,107,0
145.0002,145.1002,53,107,0
145.33354,145.83354,43,127,0
145.33354,145.83354,55,127,0
146.0002,146.16687,41,107,0
146.0002,146.16687,53,107,0
146.16687,146.29187,40,107,0
146.16687,146.29187,52,107,0
146.33354,146.43353,38,107,0
146.33354,146.43353,50,107,0
146.66687,146.76686,38,107,0
146.66687,146.76686,50,107,0
147.0002,147.1002,40,107,0
147.0002,147.1002,52,107,0
147.33353,147.43353,41,127,0
147.33353,147.43353,53,127,0
147.66687,147.83353,36,107,0
147.66687,147.83353,48,107,0
147.83353,147.95853,38,107,0
147.83353,147.95853,50,107,0
148.0002,148.1002,40,127,0
148.0002,148.1002,52,127,0
148.33353,148.43353,38,107,0
148.33353,148.43353,50,107,0
148.66687,148.76686,40,127,0
148.66687,148.76686,52,127,0
149.0002,149.16687,38,107,0
149.0002,149.16687,50,107,0
149.16687,149.29187,36,107,0
149.16687,149.29187,48,107,0
149.33353,149.43353,35,107,0
149.33353,149.43353,47,107,0
149.66687,149.76686,36,107,0
149.66687,149.76686,48,107,0
150.0002,150.3752,38,127,0
150.0002,150.3752,50,127,0
150.5002,150.5502,31,107,0
150.5002,150.5502,43,107,0
150.66687,150.76686,36,107,0
150.66687,150.76686,48,107,0
151.66687,151.76686,60,77,0
151.66687,151.76686,64,77,0
152.0002,152.10019,60,77,0
152.0002,152.10019,65,77,0
152.33353,152.43353,60,77,0
152.33353,152.43353,64,77,0
152.66685,152.76686,48,77,0
153.66685,153.76686,64,77,0
153.66685,153.76686,67,77,0
154.0002,154.10019,59,77,0
154.0002,154.10019,67,77,0
154.33353,154.58353,60,89,0
154.33353,154.70853,67,89,0
154.66685,154.79185,64,77,0
155.66685,155.76686,59,89,0
155.66685,155.76686,62,89,0
156.0002,156.10019,60,77,0
156.0002,156.10019,64,77,0
156.33353,156.43353,57,89,0
156.33353,156.43353,60,89,0
156.66685,156.76686,59,77,0
156.66685,156.76686,62,77,0
157.0002,157.10019,60,89,0
157.0002,157.10019,64,89,0
157.66685,157.76686,50,77,0
157.66685,157.76686,55,77,0
157.66685,157.76686,59,77,0
158.00018,158.10019,50,77,0
158.00018,158.10019,57,77,0
158.00018,158.10019,60,77,0
158.33353,158.58353,55,77,0
158.33353,158.58353,59,77,0
158.66685,158.76686,43,71,0
159.66685,159.76686,48,77,0
159.66685,159.76686,52,77,0
159.66685,159.76686,55,77,0
160.00018,160.10019,48,77,0
160.00018,160.10019,53,77,0
160.00018,160.10019,57,77,0
160.33353,160.43352,48,77,0
160.33353,160.43352,52,77,0
160.33353,160.43352,55,77,0
161.66685,161.76685,52,77,0
161.66685,161.76685,55,77,0
162.00018,162.10019,47,77,0
162.00018,162.10019,55,77,0
162.33353,162.58351,48,89,0
162.33353,162.58351,55,89,0
162.66685,162.79185,52,77,0
162.66685,162.79185,55,77,0
163.66685,163.76685,59,89,0
163.66685,163.76685,62,89,0
164.00018,164.10019,60,77,0
164.00018,164.10019,64,77,0
164.33351,164.43352,57,89,0
164.33351,164.43352,60,89,0
164.66685,164.76685,59,77,0
164.66685,164.76685,62,77,0
165.00018,165.10019,60,89,0
165.00018,165.10019,64,89,0
165.66685,165.76685,50,77,0
165.66685,165.76685,55,77,0
165.66685,165.76685,59,77,0
166.00018,166.10019,50,77,0
166.00018,166.10019,57,77,0
166.00018,166.10019,60,77,0
166.66685,166.76685,52,77,0
166.66685,166.76685,55,77,0
166.66685,166.76685,59,77,0
167.00018,167.12518,48,77,0
167.16685,167.29185,45,77,0
167.33351,167.45851,50,107,0
167.50018,167.62518,38,107,0
167.66684,167.79184,50,107,0
167.83351,167.95851,38,107,0
168.00018,168.12518,50,107,0
168.16684,168.29184,38,107,0
168.33351,168.58351,43,107,0
168.66684,168.76685,55,98,0
169.66684,169.76685,52,77,0
169.66684,169.76685,58,77,0
169.66684,169.76685,60,77,0
170.66684,170.76685,53,77,0
170.66684,170.76685,57,77,0
170.66684,170.76685,60,77,0
171.66684,171.76685,48,86,0
171.66684,171.76685,57,86,0
171.66684,171.76685,60,86,0
172.00018,172.10017,49,92,0
172.00018,172.10017,55,92,0
172.00018,172.10017,58,92,0
172.33351,172.58351,50,77,0
172.33351,172.58351,53,77,0
172.33351,172.58351,57,77,0
172.66684,172.76685,38,71,0
173.66684,173.76685,45,77,0
173.66684,173.76685,49,77,0
173.66684,173.76685,52,77,0
174.66684,174.76685,50,77,0
174.66684,174.76685,53,77,0
175.66684,175.76685,38,77,0
175.66684,175.76685,50,77,0
176.00017,176.10017,38,77,0
176.00017,176.10017,50,77,0
176.33351,176.4335,38,77,0
176.33351,176.4335,50,77,0
176.66684,176.76685,38,77,0
176.66684,176.76685,50,77,0
177.00017,177.10017,41,77,0
177.00017,177.10017,53,77,0
177.33351,177.4335,40,77,0
177.33351,177.4335,52,77,0
178.00017,178.10017,52,107,0
178.00017,178.10017,56,107,0
178.00017,178.10017,59,107,0
179.00017,179.10017,45,107,0
179.00017,179.10017,48,107,0
179.00017,179.10017,52,107,0
179.00017,179.10017,57,107,0
180.00017,180.05017,40,107,0
180.00017,180.05017,44,107,0
180.00017,180.05017,47,107,0
180.00017,180.05017,52,107,0
180.16684,180.21683,40,107,0
180.16684,180.21683,44,107,0
180.16684,180.21683,47,107,0
180.16684,180.21683,52,107,0
181.00017,181.05017,33,107,0
181.00017,181.05017,36,107,0
181.00017,181.05017,40,107,0
181.00017,181.05017,45,107,0
181.16684,181.21683,33,107,0
181.16684,181.21683,36,107,0
181.16684,181.21683,40,107,0
181.16684,181.21683,45,107,0
182.00017,182.05017,40,107,0
182.00017,182.05017,44,107,0
182.00017,182.05017,47,107,0
182.00017,182.05017,52,107,0
182.16684,182.21683,40,107,0
182.16684,182.21683,44,107,0
182.16684,182.21683,47,107,0
182.16684,182.21683,52,107,0
183.00017,183.05017,40,107,0
183.00017,183.05017,44,107,0
183.00017,183.05017,47,107,0
183.00017,183.05017,52,107,0
183.16682,183.21683,40,107,0
183.16682,183.21683,44,107,0
183.16682,183.21683,47,107,0
183.16682,183.21683,52,107,0
185.66682,185.76683,60,69,0
185.66682,185.76683,72,69,0
186.00017,186.10016,60,69,0
186.00017,186.10016,72,69,0
186.3335,186.5835,60,69,0
186.3335,186.5835,72,69,0
186.66682,186.76683,48,65,0
186.66682,186.76683,60,65,0
187.66682,187.76683,60,69,0
187.66682,187.76683,72,69,0
188.00017,188.10016,55,69,0
188.00017,188.10016,67,69,0
188.3335,188.5835,60,69,0
188.3335,188.5835,72,69,0
188.66682,188.76683,48,65,0
188.66682,188.76683,60,65,0
190.8335,190.9585,59,69,0
191.00015,191.12515,64,69,0
191.16682,191.29182,60,69,0
191.3335,191.4585,62,69,0
191.50015,191.62515,50,69,0
191.66682,191.79182,62,69,0
191.8335,191.9585,50,69,0
192.00015,192.12515,62,69,0
192.16682,192.29182,50,69,0
192.3335,192.5835,55,69,0
192.66682,192.76682,43,65,0
193.00015,193.16682,57,69,0
193.00015,193.16682,60,69,0
193.16682,193.29182,56,69,0
193.16682,193.29182,59,69,0
193.33348,193.38348,57,69,0
193.50015,193.55016,60,69,0
193.66682,193.71683,52,69,0
193.83348,193.88348,55,69,0
194.00015,194.05016,53,69,0
194.16682,194.21683,57,69,0
194.33348,194.38348,53,69,0
194.50015,194.55016,50,69,0
194.66682,194.71683,52,69,0
194.83348,194.88348,55,69,0
195.00015,195.05016,53,69,0
195.16682,195.21681,50,69,0
195.33348,195.43349,43,69,0
195.66682,195.76682,43,69,0
196.00015,196.10016,43,69,0
196.33348,196.38348,48,69,0
196.50015,196.55016,55,75,0
196.66682,196.71681,52,81,0
196.83348,196.88348,48,88,0
197.00015,197.05016,53,94,0
197.16682,197.21681,50,100,0
197.33348,197.38965,55,107,0
197.5209,197.57715,52,107,0
197.7084,197.77257,48,107,0
197.92258,197.98686,43,107,0
198.13686,198.20602,55,107,0
198.36755,198.43678,43,107,0
198.59833,198.74825,48,107,0
199.09825,199.24825,36,107,0
1.0,1.0420139,74,77,0
1.0420139,1.1045138,72,77,0
1.250347,1.275347,71,77,0
1.3336803,1.4336802,72,77,0
1.6670132,1.7670131,67,77,0
2.0003462,2.100346,69,77,0
2.3336792,2.8336787,67,77,0
3.0003452,3.0420117,74,77,0
3.0420117,3.1045117,72,77,0
3.250345,3.2753448,71,77,0
3.3336782,3.4336782,72,77,0
3.6670113,3.7670112,72,77,0
4.0003443,4.100344,74,77,0
4.3336773,4.375344,72,77,0
4.375344,4.4170103,74,77,0
4.4170103,4.6670103,76,89,0
4.6670103,4.7920103,72,77,0
5.0003433,5.04201,74,77,0
5.04201,5.10451,72,77,0
5.250343,5.275343,71,77,0
5.3336763,5.4336762,72,77,0
5.6670094,5.7670093,67,89,0
6.0003424,6.1003423,69,77,0
6.3336754,6.4336753,66,89,0
6.6670084,6.7670083,67,77,0
7.0003414,7.1003413,69,89,0
7.3336744,7.833674,62,77,0
8.00034,8.014923,66,77,0
8.05034,8.064923,67,77,0
8.10034,8.1149235,66,77,0
8.15034,8.164924,67,77,0
8.20034,8.214923,66,77,0
8.2503395,8.2920065,64,77,0
8.2920065,8.3336735,66,77,0
8.3336735,8.583673,67,77,0
10.667005,10.708671,86,77,0
10.708671,10.771171,84,77,0
10.917004,10.942004,83,77,0
11.000338,11.042004,86,77,0
11.042004,11.104504,84,77,0
11.250337,11.275337,83,77,0
11.333671,11.58367,84,77,0
12.667003,12.708669,86,77,0
12.708669,12.771169,84,77,0
12.917002,12.942002,83,77,0
13.000336,13.042002,86,77,0
13.042002,13.104502,84,77,0
13.250335,13.275335,83,77,0
13.333668,13.583668,84,77,0
17.000332,17.10033,81,89,0
17.333664,17.833664,74,107,0
18.00033,18.014914,78,107,0
18.050331,18.064913,79,107,0
18.10033,18.114914,78,107,0
18.15033,18.164913,79,107,0
18.20033,18.214912,78,107,0
18.25033,18.291996,76,107,0
18.291996,18.333664,78,107,0
18.333664,18.583662,79,107,0
19.00033,19.041996,74,77,0
19.041996,19.104496,72,77,0
19.250328,19.27533,71,77,0
19.333662,19.433662,72,77,0
19.666996,19.766994,72,77,0
20.000328,20.041994,74,77,0
20.041994,20.198244,72,77,0
20.250328,20.275328,71,77,0
20.333662,20.53366,72,77,0
21.000328,21.187826,70,77,0
21.250326,21.312826,69,80,0
21.33366,21.58366,69,81,0
21.58366,21.64616,67,85,0
21.666994,21.766993,65,86,0
22.000326,22.100327,64,92,0
22.33366,22.833658,62,77,0
23.66699,23.76699,57,77,0
23.66699,23.76699,61,77,0
23.66699,23.76699,64,77,0
24.66699,24.76699,57,77,0
24.66699,24.76699,62,77,0
24.66699,24.76699,65,77,0
25.666988,25.766989,57,77,0
25.666988,25.766989,62,77,0
25.666988,25.766989,65,77,0
26.000322,26.100323,57,77,0
26.000322,26.100323,62,77,0
26.000322,26.100323,65,77,0
26.333654,26.433655,57,77,0
26.333654,26.433655,62,77,0
26.333654,26.433655,65,77,0
26.666988,26.766989,57,77,0
26.666988,26.766989,62,77,0
26.666988,26.766989,65,77,0
27.00032,27.10032,57,77,0
27.00032,27.10032,62,77,0
27.00032,27.10032,69,77,0
27.333654,27.433655,59,77,0
27.333654,27.433655,64,77,0
27.333654,27.433655,68,77,0
28.00032,28.10032,64,127,0
28.00032,28.10032,68,127,0
28.00032,28.10032,71,127,0
28.00032,28.10032,76,127,0
29.000319,29.100319,64,127,0
29.000319,29.100319,69,127,0
29.000319,29.100319,72,127,0
29.000319,29.100319,76,127,0
30.000319,30.050318,76,127,0
30.000319,30.050318,80,127,0
30.000319,30.050318,83,127,0
30.000319,30.050318,88,127,0
30.166985,30.216984,76,107,0
30.166985,30.216984,80,107,0
30.166985,30.216984,83,107,0
30.166985,30.216984,88,107,0
31.000317,31.050318,76,127,0
31.000317,31.050318,81,127,0
31.000317,31.050318,84,127,0
31.000317,31.050318,88,127,0
31.166985,31.216984,76,107,0
31.166985,31.216984,81,107,0
31.166985,31.216984,84,107,0
31.166985,31.216984,88,107,0
32.000317,32.050316,76,127,0
32.000317,32.050316,80,127,0
32.000317,32.050316,83,127,0
32.000317,32.050316,88,127,0
32.166985,32.216984,76,107,0
32.166985,32.216984,80,107,0
32.166985,32.216984,83,107,0
32.166985,32.216984,88,107,0
33.000317,33.050316,76,127,0
33.000317,33.050316,80,127,0
33.000317,33.050316,83,127,0
33.000317,33.050316,88,127,0
33.16698,33.21698,76,107,0
33.16698,33.21698,80,107,0
33.16698,33.21698,83,107,0
33.16698,33.21698,88,107,0
35.000313,35.04198,86,69,0
35.04198,35.10448,84,69,0
35.250313,35.275314,83,69,0
35.333645,35.433647,84,69,0
35.66698,35.76698,79,69,0
36.000313,36.10031,81,69,0
36.333645,36.833645,79,69,0
37.000313,37.041977,86,69,0
37.041977,37.104477,84,69,0
37.250313,37.27531,83,69,0
37.333645,37.433643,84,69,0
37.666977,37.766975,84,69,0
38.00031,38.10031,86,69,0
38.333645,38.37531,84,69,0
38.37531,38.416977,86,69,0
38.416977,38.666977,88,80,0
38.666977,38.791977,84,69,0
39.00031,39.041977,86,69,0
39.041977,39.104477,84,69,0
39.25031,39.27531,83,69,0
39.33364,39.433643,84,69,0
39.666977,39.766975,79,80,0
40.00031,40.100307,81,69,0
40.33364,40.43364,78,80,0
40.666973,40.766975,79,69,0
41.00031,41.100307,81,80,0
41.33364,41.83364,74,69,0
42.000305,42.050304,78,69,0
42.050304,42.100307,79,69,0
42.100307,42.150307,78,69,0
42.150307,42.200306,79,69,0
42.200306,42.250305,78,69,0
42.250305,42.291973,76,69,0
42.291973,42.33364,78,69,0
42.33364,42.583637,79,69,0
43.000305,43.166973,69,69,0
43.000305,43.166973,72,69,0
43.166973,43.291973,68,69,0
43.166973,43.291973,71,69,0
43.333637,43.383636,69,69,0
43.500305,43.550304,72,69,0
43.666973,43.716972,67,80,0
43.833637,43.883636,70,69,0
44.000305,44.050304,69,69,0
44.16697,44.216972,65,69,0
44.333637,44.383636,68,80,0
44.500305,44.550304,65,69,0
44.66697,44.71697,67,69,0
44.833637,44.883636,64,69,0
45.0003,45.050304,69,80,0
45.16697,45.21697,65,69,0
45.333637,45.383636,60,69,0
45.333637,45.383636,64,69,0
45.5003,45.550304,55,69,0
45.66697,45.71697,60,69,0
45.66697,45.71697,64,69,0
45.833637,45.883636,55,69,0
46.0003,46.0503,62,69,0
46.0003,46.0503,65,69,0
46.16697,46.21697,55,69,0
46.333633,46.583633,60,69,0
46.333633,46.583633,64,69,0
47.0003,47.2503,86,113,0
47.333633,47.833633,79,107,0
48.0003,48.0503,83,107,0
48.0503,48.1003,84,107,0
48.1003,48.1503,83,107,0
48.1503,48.2003,84,107,0
48.2003,48.2503,83,107,0
48.2503,48.291965,81,107,0
48.291965,48.333633,83,107,0
48.333633,48.583633,84,107,0
49.000298,49.041965,74,77,0
49.041965,49.104465,72,77,0
49.250298,49.2753,71,77,0
49.333633,49.43363,72,77,0
49.666965,49.766964,72,77,0
50.000298,50.041965,74,77,0
50.041965,50.198215,72,77,0
50.250298,50.2753,71,77,0
50.33363,50.53363,72,77,0
51.000298,51.187798,70,77,0
51.250298,51.312798,69,80,0
51.33363,51.58363,69,81,0
51.58363,51.64613,67,85,0
51.66696,51.766964,65,86,0
52.000298,52.100296,64,92,0
52.33363,52.83363,62,77,0
53.66696,53.76696,57,77,0
53.66696,53.76696,61,77,0
53.66696,53.76696,64,77,0
54.66696,54.76696,57,77,0
54.66696,54.76696,62,77,0
54.66696,54.76696,65,77,0
55.666958,55.76696,57,77,0
55.666958,55.76696,62,77,0
55.666958,55.76696,65,77,0
56.000294,56.100292,57,77,0
56.000294,56.100292,62,77,0
56.000294,56.100292,65,77,0
56.333626,56.433624,57,77,0
56.333626,56.433624,62,77,0
56.333626,56.433624,65,77,0
56.666958,56.766956,57,77,0
56.666958,56.766956,62,77,0
56.666958,56.766956,65,77,0
57.00029,57.100292,57,77,0
57.00029,57.100292,62,77,0
57.00029,57.100292,69,77,0
57.333626,57.433624,59,77,0
57.333626,57.433624,64,77,0
57.333626,57.433624,68,77,0
58.00029,58.10029,64,127,0
58.00029,58.10029,68,127,0
58.00029,58.10029,71,127,0
58.00029,58.10029,76,127,0
59.00029,59.10029,64,127,0
59.00029,59.10029,69,127,0
59.00029,59.10029,72,127,0
59.00029,59.10029,76,127,0
60.00029,60.05029,76,127,0
60.00029,60.05029,80,127,0
60.00029,60.05029,83,127,0
60.00029,60.05029,88,127,0
60.166954,60.216953,76,107,0
60.166954,60.216953,80,107,0
60.166954,60.216953,83,107,0
60.166954,60.216953,88,107,0
61.000286,61.050285,76,127,0
61.000286,61.050285,81,127,0
61.000286,61.050285,84,127,0
61.000286,61.050285,88,127,0
61.166954,61.216953,76,107,0
61.166954,61.216953,81,107,0
61.166954,61.216953,84,107,0
61.166954,61.216953,88,107,0
62.000286,62.050285,76,127,0
62.000286,62.050285,80,127,0
62.000286,62.050285,83,127,0
62.000286,62.050285,88,127,0
62.166954,62.216953,76,107,0
62.166954,62.216953,80,107,0
62.166954,62.216953,83,107,0
62.166954,62.216953,88,107,0
63.000286,63.050285,76,127,0
63.000286,63.050285,80,127,0
63.000286,63.050285,83,127,0
63.000286,63.050285,88,127,0
63.16695,63.216953,76,107,0
63.16695,63.216953,80,107,0
63.16695,63.216953,83,107,0
63.16695,63.216953,88,107,0
65.00028,65.04195,86,69,0
65.04195,65.10445,84,69,0
65.25028,65.27528,83,69,0
65.33362,65.43362,84,69,0
65.66695,65.76695,79,69,0
66.00028,66.10028,81,69,0
66.33362,66.83362,79,69,0
67.00028,67.04195,86,69,0
67.04195,67.10445,84,69,0
67.25028,67.27528,83,69,0
67.33361,67.43362,84,69,0
67.66695,67.766945,84,69,0
68.00028,68.10028,86,69,0
68.33361,68.37528,84,69,0
68.37528,68.41695,86,69,0
68.41695,68.66695,88,80,0
68.66695,68.79195,84,69,0
69.00028,69.04195,86,69,0
69.04195,69.10445,84,69,0
69.25028,69.275276,83,69,0
69.33361,69.43361,84,69,0
69.66695,69.766945,79,80,0
70.000275,70.10028,81,69,0
70.33361,70.43361,78,80,0
70.66695,70.766945,79,69,0
71.000275,71.10028,81,80,0
71.33361,71.83361,74,69,0
72.000275,72.05028,78,69,0
72.05028,72.10027,79,69,0
72.10027,72.150276,78,69,0
72.150276,72.20028,79,69,0
72.20028,72.250275,78,69,0
72.250275,72.29195,76,69,0
72.29195,72.33361,78,69,0
72.33361,72.58361,79,69,0
73.000275,73.16694,69,69,0
73.000275,73.16694,72,69,0
73.16694,73.29194,68,69,0
73.16694,73.29194,71,69,0
73.33361,73.383606,69,69,0
73.500275,73.55028,72,69,0
73.66694,73.71694,67,80,0
73.83361,73.883606,70,69,0
74.000275,74.05028,69,69,0
74.16694,74.21694,65,69,0
74.33361,74.383606,68,80,0
74.500275,74.55027,65,69,0
74.66694,74.71694,67,69,0
74.83361,74.883606,64,69,0
75.000275,75.05027,69,80,0
75.16694,75.21694,65,69,0
75.3336,75.383606,60,69,0
75.3336,75.383606,64,69,0
75.500275,75.55027,55,69,0
75.66694,75.71694,60,69,0
75.66694,75.71694,64,69,0
75.8336,75.883606,55,69,0
76.000275,76.05027,62,69,0
76.000275,76.05027,65,69,0
76.16694,76.21694,55,69,0
76.3336,76.5836,60,69,0
76.3336,76.5836,64,69,0
77.000275,77.250275,86,113,0
77.3336,77.8336,79,107,0
78.00027,78.05027,83,107,0
78.05027,78.10027,84,107,0
78.10027,78.15027,83,107,0
78.15027,78.20027,84,107,0
78.20027,78.25027,83,107,0
78.25027,78.29194,81,107,0
78.29194,78.3336,83,107,0
78.3336,78.5836,84,107,0
79.00027,79.0836,52,77,0
79.11138,79.19471,55,78,0
79.22249,79.305824,60,80,0
79.3336,79.41694,52,83,0
79.44471,79.528046,55,84,0
79.555824,79.63916,60,86,0
79.66694,79.75027,52,89,0
79.778046,79.86138,55,90,0
79.88916,79.97249,60,89,0
80.00027,80.0836,52,86,0
80.11138,80.19471,55,83,0
80.22249,80.305824,60,80,0
80.3336,80.41693,52,77,0
80.44471,80.528046,55,77,0
80.555824,80.63916,60,77,0
80.66693,80.75027,52,77,0
80.778046,80.86138,55,77,0
80.88915,80.97249,60,77,0
81.00027,81.0836,55,77,0
81.11138,81.19471,59,77,0
81.22249,81.305824,62,77,0
81.3336,81.41693,55,77,0
81.44471,81.528046,60,77,0
81.555824,81.63915,64,77,0
81.66693,81.75027,55,77,0
81.778046,81.861374,60,77,0
81.88915,81.97249,64,77,0
82.00027,82.0836,55,77,0
82.111374,82.19471,59,77,0
82.22249,82.305824,65,77,0
82.3336,82.41693,55,77,0
82.44471,82.528046,60,77,0
82.555824,82.63915,67,77,0
82.66693,82.75027,55,77,0
82.778046,82.861374,60,77,0
82.88915,82.97249,67,77,0
83.00027,83.083595,57,77,0
83.111374,83.19471,62,77,0
83.22249,83.305824,65,77,0
83.333595,83.41693,55,77,0
83.44471,83.528046,59,77,0
83.55582,83.63915,62,77,0
83.66693,83.75027,55,77,0
83.778046,83.861374,59,77,0
83.88915,83.97249,62,77,0
84.00027,84.083595,55,77,0
84.111374,84.19471,61,77,0
84.22249,84.30582,64,77,0
84.333595,84.41693,57,77,0
84.44471,84.52804,62,77,0
84.55582,84.63915,65,77,0
84.66693,84.75027,53,77,0
84.77804,84.861374,59,77,0
84.88915,84.97249,65,77,0
85.00027,85.083595,55,77,0
85.111374,85.19471,60,77,0
85.22249,85.30582,64,77,0
85.333595,85.41693,55,77,0
85.44471,85.52804,59,77,0
85.55582,85.63915,62,77,0
85.66693,85.75026,55,77,0
85.77804,85.861374,60,77,0
85.88915,85.97248,64,77,0
86.00026,86.083595,55,77,0
86.111374,86.19471,60,77,0
86.22248,86.30582,55,77,0
86.333595,86.41693,53,77,0
86.44471,86.52804,55,77,0
86.55582,86.63915,59,77,0
86.66693,86.75026,52,77,0
86.77804,86.861374,55,77,0
86.88915,86.97248,60,77,0
87.00026,87.083595,54,77,0
87.111374,87.1947,57,77,0
87.22248,87.30582,62,77,0
87.333595,87.41693,55,77,0
87.4447,87.52804,59,77,0
87.55582,87.63915,62,77,0
87.66692,87.75026,55,77,0
87.77804,87.861374,59,77,0
87.88915,87.97248,62,77,0
88.00026,88.083595,55,77,0
88.111374,88.1947,59,77,0
88.22248,88.30582,62,77,0
88.333595,88.41692,65,77,0
88.4447,88.52804,62,77,0
88.55582,88.639145,59,77,0
88.66692,88.75026,62,77,0
88.77804,88.861374,59,77,0
88.889145,88.97248,53,77,0
89.00026,89.083595,52,77,0
89.111374,89.1947,55,78,0
89.22248,89.30582,60,80,0
89.333595,89.41692,52,83,0
89.4447,89.52804,55,84,0
89.55582,89.639145,60,86,0
89.66692,89.75026,52,89,0
89.77804,89.86137,55,90,0
89.889145,89.97248,60,89,0
90.00026,90.083595,52,86,0
90.11137,90.1947,55,83,0
90.22248,90.30582,60,80,0
90.33359,90.41692,52,77,0
90.4447,90.52804,55,77,0
90.55582,90.639145,60,77,0
90.66692,90.75026,52,77,0
90.77804,90.86137,55,77,0
90.889145,90.97248,60,77,0
91.00026,91.08359,55,77,0
91.11137,91.1947,59,77,0
91.22248,91.30581,62,77,0
91.33359,91.41692,55,77,0
91.4447,91.52804,60,77,0
91.55581,91.639145,64,77,0
91.66692,91.75026,55,77,0
91.77804,91.86137,60,77,0
91.889145,91.97248,64,77,0
92.00026,92.08359,55,77,0
92.11137,92.1947,59,77,0
92.22248,92.30581,65,77,0
92.33359,92.41692,55,77,0
92.4447,92.52803,60,77,0
92.55581,92.639145,67,77,0
92.66692,92.75025,55,77,0
92.77803,92.86137,60,77,0
92.889145,92.97248,67,77,0
93.00025,93.08359,57,77,0
93.11137,93.1947,62,77,0
93.22248,93.30581,65,77,0
93.33359,93.41692,55,77,0
93.4447,93.52803,59,77,0
93.55581,93.639145,62,77,0
93.66692,93.75025,55,77,0
93.77803,93.86137,59,77,0
93.889145,93.97247,62,77,0
94.00025,94.08359,55,77,0
94.11137,94.1947,61,77,0
94.22247,94.30581,64,77,0
94.33359,94.41692,57,77,0
94.444695,94.52803,62,77,0
94.55581,94.639145,65,77,0
94.66692,94.75025,53,77,0
94.77803,94.86137,59,77,0
94.889145,94.97247,65,77,0
95.00025,95.08359,55,77,0
95.11137,95.194695,60,77,0
95.22247,95.30581,64,77,0
95.33359,95.416916,55,77,0
95.444695,95.52803,59,77,0
95.55581,95.639145,62,77,0
95.666916,95.75025,55,77,0
95.77803,95.86137,60,77,0
95.889145,95.97247,64,77,0
96.00025,96.08359,55,77,0
96.11137,96.194695,60,77,0
96.22247,96.30581,55,77,0
96.33359,96.416916,53,77,0
96.444695,96.52803,55,77,0
96.55581,96.63914,59,77,0
96.666916,96.75025,52,77,0
96.77803,96.86137,55,77,0
96.88914,96.97247,60,77,0
97.00025,97.08359,54,77,0
97.11136,97.194695,57,77,0
97.22247,97.30581,62,77,0
97.33359,97.416916,55,77,0
97.444695,97.52803,59,77,0
97.55581,97.63914,62,77,0
97.666916,97.75025,55,77,0
97.77803,97.86136,59,77,0
97.88914,97.97247,62,77,0
98.00025,98.08358,55,77,0
98.11136,98.194695,59,77,0
98.22247,98.30581,62,77,0
98.33358,98.416916,55,77,0
98.444695,98.52803,59,77,0
98.55581,98.63914,62,77,0
98.666916,98.75025,55,77,0
98.77803,98.86136,59,77,0
98.88914,98.97247,62,77,0
99.00025,99.08358,55,77,0
99.11136,99.194695,59,78,0
99.22247,99.3058,62,80,0
99.33358,99.416916,55,83,0
99.444695,99.52802,59,84,0
99.5558,99.63914,62,86,0
99.666916,99.75025,55,89,0
99.77802,99.86136,59,90,0
99.88914,99.97247,62,89,0
100.00025,100.08358,55,86,0
100.11136,100.194695,59,83,0
100.22247,100.3058,62,80,0
100.33358,100.416916,55,77,0
100.444695,100.52802,59,77,0
100.5558,100.63914,62,77,0
100.666916,100.750244,55,77,0
100.77802,100.86136,59,77,0
100.88914,100.97247,62,77,0
101.000244,101.08358,55,77,0
101.11136,101.194695,59,77,0
101.222466,101.3058,62,77,0
101.33358,101.416916,55,77,0
101.444695,101.52802,59,77,0
101.5558,101.63914,62,77,0
101.666916,101.750244,55,77,0
101.77802,101.86136,59,77,0
101.88914,101.972466,62,77,0
102.000244,102.08358,55,77,0
102.11136,102.19469,59,77,0
102.222466,102.3058,62,77,0
102.33358,102.500244,65,77,0
102.500244,102.666916,64,77,0
102.666916,102.71691,65,77,0
102.83358,102.883575,62,77,0
103.000244,103.05025,59,77,0
103.16691,103.21691,62,77,0
103.33358,103.500244,65,77,0
103.500244,103.66691,64,77,0
103.66691,103.71691,65,77,0
103.83358,103.883575,62,77,0
104.000244,104.05025,59,77,0
104.16691,104.21691,62,77,0
104.33358,104.500244,68,77,0
104.500244,104.66691,67,77,0
104.66691,104.71691,68,77,0
104.83358,104.883575,65,77,0
105.000244,105.05024,62,77,0
105.16691,105.21691,65,77,0
105.33358,105.500244,71,77,0
105.500244,105.66691,70,77,0
105.66691,105.71691,71,77,0
105.83357,105.883575,68,77,0
106.000244,106.05024,65,77,0
106.16691,106.21691,68,77,0
106.33357,106.500244,74,77,0
106.500244,106.66691,73,77,0
106.66691,106.71691,74,77,0
106.83357,106.883575,71,77,0
107.000244,107.05024,70,77,0
107.16691,107.21691,71,77,0
107.33357,107.500244,77,77,0
107.500244,107.66691,76,76,0
107.66691,107.7169,77,76,0
107.83357,107.883575,74,75,0
108.00024,108.05024,71,75,0
108.16691,108.2169,74,74,0
108.33357,108.50024,77,74,0
108.50024,108.66691,76,74,0
108.66691,108.7169,77,74,0
108.83357,108.883575,74,74,0
109.00024,109.05024,71,73,0
109.16691,109.2169,74,73,0
109.33357,109.50024,77,73,0
109.50024,109.66691,76,72,0
109.66691,109.7169,77,72,0
109.83357,109.883575,74,71,0
110.00024,110.05024,70,71,0
110.16691,110.2169,74,71,0
110.33357,110.50024,77,71,0
110.50024,110.6669,76,71,0
110.6669,110.7169,77,70,0
110.83357,110.88357,74,70,0
111.00024,111.05024,70,69,0
111.1669,111.2169,74,69,0
111.33357,111.58357,77,69,0
113.333565,113.50024,77,69,0
113.333565,113.50024,89,69,0
113.50024,113.62524,76,73,0
113.50024,113.62524,88,73,0
113.6669,113.7169,74,77,0
113.6669,113.7169,86,77,0
113.833565,113.88357,72,80,0
113.833565,113.88357,84,80,0
114.00024,114.05023,71,84,0
114.00024,114.05023,83,84,0
114.1669,114.2169,69,88,0
114.1669,114.2169,81,88,0
114.333565,114.38357,67,92,0
114.333565,114.38357,79,92,0
114.50024,114.55023,65,95,0
114.50024,114.55023,77,95,0
114.6669,114.7169,64,99,0
114.6669,114.7169,76,99,0
114.833565,114.88357,62,103,0
114.833565,114.88357,74,103,0
115.00024,115.1669,60,107,0
115.00024,115.1669,72,107,0
115.1669,115.333565,59,107,0
115.1669,115.333565,71,107,0
115.333565,115.50024,60,107,0
115.333565,115.50024,72,107,0
115.50024,115.6669,59,107,0
115.50024,115.6669,71,107,0
115.6669,115.833565,60,107,0
115.6669,115.833565,72,107,0
115.833565,115.88357,55,107,0
115.833565,115.88357,67,107,0
116.00023,116.05023,52,107,0
116.00023,116.05023,64,107,0
116.1669,116.216896,55,107,0
116.1669,116.216896,67,107,0
116.333565,116.833565,60,107,0
116.333565,116.833565,72,107,0
117.00023,117.10023,62,107,0
117.00023,117.10023,74,107,0
117.333565,117.4169,64,107,0
117.44467,117.52801,72,107,0
117.555786,117.63912,76,107,0
117.6669,117.75023,64,107,0
117.77801,117.86134,72,107,0
117.88912,117.97245,76,107,0
118.00023,118.083565,65,107,0
118.11134,118.19467,72,107,0
118.22245,118.305786,77,107,0
118.333565,118.41689,67,107,0
118.44467,118.52801,72,107,0
118.555786,118.63912,79,107,0
118.66689,118.75023,67,107,0
118.77801,118.86134,72,107,0
118.88912,118.97245,79,107,0
119.00023,119.083565,69,107,0
119.11134,119.19467,74,107,0
119.22245,119.305786,77,107,0
119.333565,119.41689,67,107,0
119.44467,119.52801,71,107,0
119.555786,119.639114,74,107,0
119.66689,119.75023,67,107,0
119.77801,119.861336,71,107,0
119.889114,119.97245,74,107,0
120.00023,120.083565,67,107,0
120.111336,120.19467,73,107,0
120.22245,120.305786,76,107,0
120.333565,120.41689,69,107,0
120.44467,120.52801,74,107,0
120.555786,120.639114,77,107,0
120.66689,120.75023,65,107,0
120.77801,120.861336,71,107,0
120.889114,120.97245,77,107,0
121.00023,121.08356,67,107,0
121.111336,121.19467,72,107,0
121.22245,121.305786,76,107,0
121.33356,121.41689,67,107,0
121.44467,121.52801,71,107,0
121.55578,121.639114,74,107,0
121.66689,121.75023,67,107,0
121.77801,121.861336,72,107,0
121.889114,121.97245,76,107,0
122.00023,122.08356,67,107,0
122.111336,122.19467,72,107,0
122.22245,122.30578,67,107,0
122.33356,122.41689,65,107,0
122.44467,122.528,67,107,0
122.55578,122.639114,71,107,0
122.66689,122.75023,64,107,0
122.778,122.861336,67,107,0
122.889114,122.97245,72,107,0
123.00023,123.08356,65,107,0
123.111336,123.19467,68,107,0
123.22245,123.30578,74,107,0
123.33356,123.41689,65,107,0
123.44467,123.528,67,107,0
123.55578,123.639114,74,107,0
123.66689,123.75022,64,107,0
123.778,123.861336,67,107,0
123.889114,123.97245,72,107,0
124.00022,124.08356,65,107,0
124.111336,124.19467,67,107,0
124.22244,124.30578,72,107,0
124.33356,124.41689,65,107,0
124.44467,124.528,67,107,0
124.55578,124.639114,71,107,0
124.66689,124.76689,64,107,0
124.66689,124.76689,67,107,0
124.66689,124.76689,72,107,0
125.00022,125.08356,55,77,0
125.111336,125.194664,59,78,0
125.22244,125.30578,62,80,0
125.33356,125.41689,55,83,0
125.444664,125.528,59,84,0
125.55578,125.639114,62,86,0
125.66689,125.75022,55,89,0
125.778,125.861336,59,90,0
125.889114,125.97244,62,89,0
126.00022,126.08356,55,86,0
126.111336,126.194664,59,83,0
126.22244,126.30578,62,80,0
126.33356,126.416885,55,77,0
126.444664,126.528,59,77,0
126.55578,126.63911,62,77,0
126.666885,126.75022,55,77,0
126.778,126.861336,59,77,0
126.88911,126.97244,62,77,0
127.00022,127.08356,55,77,0
127.111336,127.194664,59,77,0
127.22244,127.30578,62,77,0
127.33356,127.416885,55,77,0
127.444664,127.528,59,77,0
127.55578,127.63911,62,77,0
127.666885,127.75022,55,77,0
127.778,127.86133,59,77,0
127.88911,127.97244,62,77,0
128.00021,128.08356,55,77,0
128.11133,128.19467,59,77,0
128.22244,128.30577,62,77,0
128.33356,128.50021,65,77,0
128.50021,128.66689,64,77,0
128.66689,128.71689,65,77,0
128.83356,128.88356,62,77,0
129.00021,129.05022,59,77,0
129.16689,129.21689,62,77,0
129.33356,129.50021,65,77,0
129.50021,129.66689,64,77,0
129.66689,129.71689,65,77,0
129.83356,129.88354,62,77,0
130.00021,130.05022,59,77,0
130.16689,130.21689,62,77,0
130.33356,130.50021,68,77,0
130.50021,130.66689,67,77,0
130.66689,130.71689,68,77,0
130.83356,130.88354,65,77,0
131.00021,131.05022,62,77,0
131.16689,131.21689,65,77,0
131.33356,131.50021,71,77,0
131.50021,131.66689,70,77,0
131.66689,131.71689,71,77,0
131.83356,131.88354,68,77,0
132.00021,132.05022,65,77,0
132.16689,132.21689,68,77,0
132.33354,132.50021,74,77,0
132.50021,132.66689,73,77,0
132.66689,132.71689,74,77,0
132.83354,132.88354,71,77,0
133.00021,133.05022,70,77,0
133.16689,133.21689,71,77,0
133.33354,133.50021,77,77,0
133.50021,133.66689,76,76,0
133.66689,133.71689,77,76,0
133.83354,133.88354,74,75,0
134.00021,134.05022,71,75,0
134.16689,134.21687,74,74,0
134.33354,134.50021,77,74,0
134.50021,134.66689,76,74,0
134.66689,134.71687,77,74,0
134.83354,134.88354,74,74,0
135.00021,135.05022,71,73,0
135.16689,135.21687,74,73,0
135.33354,135.50021,77,73,0
135.50021,135.66689,76,72,0
135.66689,135.71687,77,72,0
135.83354,135.88354,74,71,0
136.00021,136.05022,70,71,0
136.16689,136.21687,74,71,0
136.33354,136.50021,77,71,0
136.50021,136.66689,76,71,0
136.66689,136.71687,77,70,0
136.83354,136.88354,74,70,0
137.00021,137.05022,70,69,0
137.16687,137.21687,74,69,0
137.33354,137.58354,77,69,0
139.33354,139.50021,77,69,0
139.33354,139.50021,89,69,0
139.50021,139.62521,76,73,0
139.50021,139.62521,88,73,0
139.66687,139.71687,74,77,0
139.66687,139.71687,86,77,0
139.83354,139.88354,72,80,0
139.83354,139.88354,84,80,0
140.00021,140.0502,71,84,0
140.00021,140.0502,83,84,0
140.16687,140.21687,69,88,0
140.16687,140.21687,81,88,0
140.33354,140.38354,67,92,0
140.33354,140.38354,79,92,0
140.50021,140.5502,65,95,0
140.50021,140.5502,77,95,0
140.66687,140.71687,64,99,0
140.66687,140.71687,76,99,0
140.83354,140.88354,62,103,0
140.83354,140.88354,74,103,0
141.00021,141.16687,60,107,0
141.00021,141.16687,72,107,0
141.16687,141.33354,59,107,0
141.16687,141.33354,71,107,0
141.33354,141.50021,60,107,0
141.33354,141.50021,72,107,0
141.50021,141.66687,59,107,0
141.50021,141.66687,71,107,0
141.66687,141.83354,60,107,0
141.66687,141.83354,72,107,0
141.83354,141.88354,55,107,0
141.83354,141.88354,67,107,0
142.00021,142.0502,52,107,0
142.00021,142.0502,64,107,0
142.16687,142.21687,55,107,0
142.16687,142.21687,67,107,0
142.33354,142.83354,60,107,0
142.33354,142.83354,72,107,0
143.0002,143.1002,62,107,0
143.0002,143.1002,74,107,0
143.33354,143.41687,64,107,0
143.44466,143.52798,72,107,0
143.55576,143.6391,76,107,0
143.66687,143.7502,64,107,0
143.77798,143.86131,72,107,0
143.8891,143.97243,76,107,0
144.0002,144.08354,65,107,0
144.11131,144.19464,72,107,0
144.22243,144.30576,77,107,0
144.33354,144.41687,67,107,0
144.44464,144.52798,72,107,0
144.55576,144.6391,79,107,0
144.66687,144.7502,67,107,0
144.77798,144.86131,72,107,0
144.8891,144.97243,79,107,0
145.0002,145.08354,69,107,0
145.11131,145.19464,74,107,0
145.22243,145.30576,77,107,0
145.33354,145.41687,67,107,0
145.44464,145.52798,71,107,0
145.55576,145.63908,74,107,0
145.66687,145.7502,67,107,0
145.77798,145.86131,71,107,0
145.88908,145.97243,74,107,0
146.0002,146.08354,67,107,0
146.11131,146.19464,73,107,0
146.22243,146.30576,76,107,0
146.33354,146.41687,69,107,0
146.44464,146.52798,74,107,0
146.55576,146.63908,77,107,0
146.66687,146.7502,65,107,0
146.77798,146.86131,71,107,0
146.88908,146.97243,77,107,0
147.0002,147.08354,67,107,0
147.11131,147.19464,72,107,0
147.22243,147.30576,76,107,0
147.33353,147.41687,67,107,0
147.44464,147.52798,71,107,0
147.55576,147.63908,74,107,0
147.66687,147.7502,67,107,0
147.77798,147.86131,72,107,0
147.88908,147.97243,76,107,0
148.0002,148.08353,67,107,0
148.11131,148.19464,72,107,0
148.22243,148.30576,67,107,0
148.33353,148.41687,65,107,0
148.44464,148.52798,67,107,0
148.55576,148.63908,71,107,0
148.66687,148.7502,64,107,0
148.77798,148.86131,67,107,0
148.88908,148.97243,72,107,0
149.0002,149.08353,65,107,0
149.11131,149.19464,68,107,0
149.22243,149.30576,74,107,0
149.33353,149.41687,65,107,0
149.44464,149.52797,67,107,0
149.55576,149.63908,74,107,0
149.66687,149.7502,64,107,0
149.77797,149.86131,67,107,0
149.88908,149.97243,72,107,0
150.0002,150.08353,65,107,0
150.11131,150.19464,67,107,0
150.22243,150.30576,72,107,0
150.33353,150.41687,65,107,0
150.44464,150.52797,67,107,0
150.55576,150.63908,71,107,0
150.66687,150.76686,64,107,0
150.66687,150.76686,67,107,0
150.66687,150.76686,72,107,0
151.0002,151.04187,74,77,0
151.04187,151.10437,72,77,0
151.2502,151.27519,71,77,0
151.33353,151.43353,72,77,0
151.66687,151.76686,67,77,0
152.0002,152.10019,69,77,0
152.33353,152.83353,67,77,0
153.0002,153.04185,74,77,0
153.04185,153.10435,72,77,0
153.2502,153.27519,71,77,0
153.33353,153.43353,72,77,0
153.66685,153.76686,72,77,0
154.0002,154.10019,74,77,0
154.33353,154.3752,72,77,0
154.3752,154.41685,74,77,0
154.41685,154.66685,76,89,0
154.66685,154.79185,72,77,0
155.0002,155.04185,74,77,0
155.04185,155.10435,72,77,0
155.2502,155.27519,71,77,0
155.33353,155.43353,72,77,0
155.66685,155.76686,67,89,0
156.0002,156.10019,69,77,0
156.33353,156.43353,66,89,0
156.66685,156.76686,67,77,0
157.0002,157.10019,69,89,0
157.33353,157.83353,62,77,0
158.00018,158.01477,66,77,0
158.05019,158.06477,67,77,0
158.10019,158.11478,66,77,0
158.15019,158.16478,67,77,0
158.2002,158.21477,66,77,0
158.25018,158.29185,64,77,0
158.29185,158.33353,66,77,0
158.33353,158.58353,67,77,0
160.66685,160.70853,86,77,0
160.70853,160.77103,84,77,0
160.91685,160.94185,83,77,0
161.00018,161.04185,86,77,0
161.04185,161.10435,84,77,0
161.25018,161.27519,83,77,0
161.33353,161.58353,84,77,0
162.66685,162.70851,86,77,0
162.70851,162.77101,84,77,0
162.91685,162.94185,83,77,0
163.00018,163.04185,86,77,0
163.04185,163.10435,84,77,0
163.25018,163.27519,83,77,0
163.33351,163.58351,84,77,0
167.00018,167.10017,81,89,0
167.33351,167.83351,74,107,0
168.00018,168.01477,78,107,0
168.05019,168.06476,79,107,0
168.10017,168.11476,78,107,0
168.15018,168.16476,79,107,0
168.20018,168.21477,78,107,0
168.25018,168.29184,76,107,0
168.29184,168.33351,78,107,0
168.33351,168.58351,79,107,0
169.00018,169.04184,74,77,0
169.04184,169.10434,72,77,0
169.25018,169.27518,71,77,0
169.33351,169.43352,72,77,0
169.66684,169.76685,72,77,0
170.00018,170.04184,74,77,0
170.04184,170.19809,72,77,0
170.25018,170.27518,71,77,0
170.33351,170.53351,72,77,0
171.00018,171.18768,70,77,0
171.25018,171.31268,69,80,0
171.33351,171.58351,69,81,0
171.58351,171.64601,67,85,0
171.66684,171.76685,65,86,0
172.00018,172.10017,64,92,0
172.33351,172.83351,62,77,0
173.66684,173.76685,57,77,0
173.66684,173.76685,61,77,0
173.66684,173.76685,64,77,0
174.66684,174.76685,57,77,0
174.66684,174.76685,62,77,0
174.66684,174.76685,65,77,0
175.66684,175.76685,57,77,0
175.66684,175.76685,62,77,0
175.66684,175.76685,65,77,0
176.00017,176.10017,57,77,0
176.00017,176.10017,62,77,0
176.00017,176.10017,65,77,0
176.33351,176.4335,57,77,0
176.33351,176.4335,62,77,0
176.33351,176.4335,65,77,0
176.66684,176.76685,57,77,0
176.66684,176.76685,62,77,0
176.66684,176.76685,65,77,0
177.00017,177.10017,57,77,0
177.00017,177.10017,62,77,0
177.00017,177.10017,69,77,0
177.33351,177.4335,59,77,0
177.33351,177.4335,64,77,0
177.33351,177.4335,68,77,0
178.00017,178.10017,64,127,0
178.00017,178.10017,68,127,0
178.00017,178.10017,71,127,0
178.00017,178.10017,76,127,0
179.00017,179.10017,64,127,0
179.00017,179.10017,69,127,0
179.00017,179.10017,72,127,0
179.00017,179.10017,76,127,0
180.00017,180.05017,76,127,0
180.00017,180.05017,80,127,0
180.00017,180.05017,83,127,0
180.00017,180.05017,88,127,0
180.16684,180.21683,76,107,0
180.16684,180.21683,80,107,0
180.16684,180.21683,83,107,0
180.16684,180.21683,88,107,0
181.00017,181.05017,76,127,0
181.00017,181.05017,81,127,0
181.00017,181.05017,84,127,0
181.00017,181.05017,88,127,0
181.16684,181.21683,76,107,0
181.16684,181.21683,81,107,0
181.16684,181.21683,84,107,0
181.16684,181.21683,88,107,0
182.00017,182.05017,76,127,0
182.00017,182.05017,80,127,0
182.00017,182.05017,83,127,0
182.00017,182.05017,88,127,0
182.16684,182.21683,76,107,0
182.16684,182.21683,80,107,0
182.16684,182.21683,83,107,0
182.16684,182.21683,88,107,0
183.00017,183.05017,76,127,0
183.00017,183.05017,80,127,0
183.00017,183.05017,83,127,0
183.00017,183.05017,88,127,0
183.16682,183.21683,76,107,0
183.16682,183.21683,80,107,0
183.16682,183.21683,83,107,0
183.16682,183.21683,88,107,0
185.00017,185.04182,86,69,0
185.04182,185.10432,84,69,0
185.25017,185.27516,83,69,0
185.3335,185.4335,84,69,0
185.66682,185.76683,79,69,0
186.00017,186.10016,81,69,0
186.3335,186.8335,79,69,0
187.00017,187.04182,86,69,0
187.04182,187.10432,84,69,0
187.25017,187.27516,83,69,0
187.3335,187.43349,84,69,0
187.66682,187.76683,84,69,0
188.00017,188.10016,86,69,0
188.3335,188.37515,84,69,0
188.37515,188.41682,86,69,0
188.41682,188.66682,88,80,0
188.66682,188.79182,84,69,0
189.00015,189.04182,86,69,0
189.04182,189.10432,84,69,0
189.25015,189.27516,83,69,0
189.3335,189.43349,84,69,0
189.66682,189.76683,79,80,0
190.00015,190.10016,81,69,0
190.3335,190.43349,78,80,0
190.66682,190.76683,79,69,0
191.00015,191.10016,81,80,0
191.3335,191.8335,74,69,0
192.00015,192.05016,78,69,0
192.05016,192.10016,79,69,0
192.10016,192.15016,78,69,0
192.15016,192.20015,79,69,0
192.20015,192.25015,78,69,0
192.25015,192.29182,76,69,0
192.29182,192.3335,78,69,0
192.3335,192.5835,79,69,0
193.00015,193.16682,69,69,0
193.00015,193.16682,72,69,0
193.16682,193.29182,68,69,0
193.16682,193.29182,71,69,0
193.33348,193.38348,69,69,0
193.50015,193.55016,72,69,0
193.66682,193.71683,67,80,0
193.83348,193.88348,70,69,0
194.00015,194.05016,69,69,0
194.16682,194.21683,65,69,0
194.33348,194.38348,68,80,0
194.50015,194.55016,65,69,0
194.66682,194.71683,67,69,0
194.83348,194.88348,64,69,0
195.00015,195.05016,69,80,0
195.16682,195.21681,65,69,0
195.33348,195.38348,60,69,0
195.33348,195.38348,64,69,0
195.50015,195.55016,55,69,0
195.66682,195.71681,60,69,0
195.66682,195.71681,64,69,0
195.83348,195.88348,55,69,0
196.00015,196.05016,62,69,0
196.00015,196.05016,65,69,0
196.16682,196.21681,55,69,0
196.33348,196.58348,60,69,0
196.33348,196.58348,64,69,0
197.00015,197.25015,86,113,0
197.33348,197.92258,79,107,0
198.13686,198.20602,83,107,0
198.20602,198.27525,84,107,0
198.27525,198.34448,83,107,0
198.34448,198.41371,84,107,0
198.41371,198.48294,83,107,0
198.48294,198.54063,81,107,0
198.54063,198.59833,83,107,0
198.59833,198.97325,84,107,0
9.0003395,9.042006,74,127,40
9.250339,9.275339,71,127,40
9.333673,9.433672,72,127,40
9.667006,9.767005,67,127,40
10.000339,10.100338,69,127,40
10.333672,10.833671,67,127,40
11.000338,11.042004,74,127,40
11.250337,11.275337,71,127,40
11.333671,11.43367,72,127,40
11.667004,11.767003,72,127,40
12.000337,12.100336,74,127,40
12.33367,12.375336,72,127,40
12.611446,12.717002,72,127,40
13.000336,13.042002,74,127,40
13.250335,13.275335,71,127,40
13.333668,13.433668,72,127,40
13.667001,13.767001,67,127,40
14.000334,14.100334,69,127,40
14.333667,14.433667,66,127,40
14.667,14.767,67,127,40
15.000333,15.100333,69,127,40
15.333666,15.833666,62,127,40
16.000332,16.050333,66,127,40
16.094776,16.200333,67,127,40
16.250332,16.291998,64,127,40
16.500332,16.550331,71,127,40
16.666998,16.717,79,127,40
16.833664,16.883665,71,127,40
17.000332,17.050331,76,127,40
17.166998,17.216997,72,127,40
17.333664,17.383665,71,127,40
17.50033,17.550331,67,127,40
17.666998,17.716997,62,127,40
17.833664,17.883663,59,127,40
18.00033,18.050331,57,127,40
18.166996,18.216997,60,127,40
18.333664,18.433662,59,127,40
23.000326,23.041992,83,127,40
23.250324,23.275326,80,127,40
23.333658,23.433659,81,127,40
23.66699,23.76699,81,127,40
24.000324,24.04199,83,127,40
24.250324,24.275324,80,127,40
24.333656,24.833656,81,127,40
25.000322,25.04199,83,127,40
25.250322,25.275324,80,127,40
25.333656,25.375322,83,127,40
25.583656,25.608656,80,127,40
25.666988,25.708656,83,127,40
25.916988,25.94199,80,127,40
26.000322,26.041988,83,127,40
26.250322,26.275322,79,127,40
26.333654,26.383656,77,127,40
26.500322,26.550322,76,127,40
26.666988,26.716988,74,127,40
26.833654,26.883656,72,127,40
27.00032,27.050322,71,127,40
27.166988,27.216988,69,127,40
35.333645,35.433647,76,127,40
35.66698,35.76698,76,127,40
36.000313,36.10031,77,127,40
36.333645,36.833645,76,127,40
37.000313,37.041977,77,127,40
37.250313,37.27531,74,127,40
37.333645,37.433643,76,127,40
37.666977,37.766975,76,127,40
38.00031,38.10031,71,127,40
38.333645,38.666977,72,127,40
39.666977,39.716976,71,127,40
39.83364,39.88364,74,127,40
40.00031,40.05031,72,127,40
40.166973,40.216976,76,127,40
40.33364,40.38364,69,127,40
40.50031,40.55031,72,127,40
40.666973,40.716972,71,127,40
40.83364,40.88364,74,127,40
41.00031,41.05031,72,127,40
41.166973,41.216972,76,127,40
41.33364,41.38364,71,127,40
41.500305,41.55031,67,127,40
41.666973,41.716972,71,127,40
41.83364,41.88364,67,127,40
42.000305,42.050304,72,127,40
42.166973,42.216972,69,127,40
42.33364,42.38364,71,127,40
42.500305,42.550304,72,127,40
42.666973,42.716972,74,127,40
42.833637,42.88364,76,127,40
43.000305,43.041973,79,127,40
43.250305,43.275307,76,127,40
43.333637,43.43364,77,127,40
43.666973,43.76697,73,127,40
44.000305,44.100304,74,127,40
44.333637,44.433636,71,127,40
44.66697,44.76697,72,127,40
45.0003,45.100304,74,127,40
45.333637,45.833637,67,127,40
46.0003,46.0503,71,127,40
46.094746,46.200302,72,127,40
46.2503,46.29197,69,127,40
46.5003,46.5503,76,127,40
46.66697,46.71697,79,127,40
46.833633,46.883636,76,127,40
47.0003,47.0503,69,127,40
47.16697,47.21697,77,127,40
47.333633,47.383633,76,127,40
47.5003,47.5503,72,127,40
47.666965,47.71697,64,127,40
47.833633,47.883633,60,127,40
48.0003,48.0503,65,127,40
48.166965,48.21697,62,127,40
48.333633,48.583633,60,127,40
48.333633,48.583633,64,127,40
53.000294,53.04196,83,127,40
53.250294,53.275295,80,127,40
53.33363,53.433628,81,127,40
53.66696,53.76696,81,127,40
54.000294,54.04196,83,127,40
54.250294,54.275295,80,127,40
54.333626,54.833626,81,127,40
55.000294,55.04196,83,127,40
55.250294,55.27529,80,127,40
55.333626,55.375294,83,127,40
55.583626,55.608627,80,127,40
55.666958,55.708626,83,127,40
55.916958,55.94196,80,127,40
56.000294,56.041958,83,127,40
56.250294,56.27529,79,127,40
56.333626,56.383625,77,127,40
56.50029,56.550293,76,127,40
56.666958,56.716957,74,127,40
56.833626,56.883625,72,127,40
57.00029,57.050293,71,127,40
57.166958,57.216957,69,127,40
65.33362,65.43362,76,127,40
65.66695,65.76695,76,127,40
66.00028,66.10028,77,127,40
66.33362,66.83362,76,127,40
67.00028,67.04195,77,127,40
67.25028,67.27528,74,127,40
67.33361,67.43362,76,127,40
67.66695,67.766945,76,127,40
68.00028,68.10028,71,127,40
68.33361,68.66695,72,127,40
69.66695,69.71694,71,127,40
69.83361,69.88361,74,127,40
70.000275,70.05028,72,127,40
70.16695,70.21694,76,127,40
70.33361,70.38361,69,127,40
70.500275,70.55028,72,127,40
70.66695,70.71694,71,127,40
70.83361,70.88361,74,127,40
71.000275,71.05028,72,127,40
71.16695,71.21694,76,127,40
71.33361,71.38361,71,127,40
71.500275,71.55028,67,127,40
71.66695,71.71694,71,127,40
71.83361,71.883606,67,127,40
72.000275,72.05028,72,127,40
72.16695,72.21694,69,127,40
72.33361,72.383606,71,127,40
72.500275,72.55028,72,127,40
72.66694,72.71694,74,127,40
72.83361,72.883606,76,127,40
73.000275,73.04194,79,127,40
73.250275,73.275276,76,127,40
73.33361,73.43361,77,127,40
73.66694,73.766945,73,127,40
74.000275,74.10027,74,127,40
74.33361,74.43361,71,127,40
74.66694,74.76694,72,127,40
75.000275,75.10027,74,127,40
75.3336,75.8336,67,127,40
76.000275,76.05027,71,127,40
76.09472,76.20027,72,127,40
76.250275,76.29194,69,127,40
76.500275,76.55027,76,127,40
76.66694,76.71694,79,127,40
76.8336,76.883606,76,127,40
77.000275,77.05027,69,127,40
77.16694,77.216934,77,127,40
77.3336,77.383606,76,127,40
77.50027,77.55027,72,127,40
77.66694,77.716934,64,127,40
77.8336,77.883606,60,127,40
78.00027,78.05027,65,127,40
78.16694,78.216934,62,127,40
78.3336,78.5836,60,127,40
78.3336,78.5836,64,127,40
79.00027,79.16694,72,127,40
79.278046,79.50027,72,127,40
79.61138,79.716934,72,127,40
79.8336,79.8836,67,127,40
80.00027,80.05027,64,127,40
80.16693,80.216934,67,127,40
80.3336,80.8336,72,127,40
81.00027,81.100266,74,127,40
81.3336,81.4336,76,127,40
81.66693,81.76693,76,127,40
82.00027,82.100266,77,127,40
82.3336,82.833595,79,127,40
83.00027,83.16693,77,127,40
83.333595,83.4336,74,127,40
83.66693,83.76693,74,127,40
84.00027,84.100266,76,127,40
84.333595,84.43359,77,127,40
84.66693,84.833595,76,127,40
85.00027,85.100266,72,127,40
85.333595,85.43359,74,127,40
85.66693,85.76693,76,127,40
86.00026,86.16693,74,127,40
86.333595,86.43359,71,127,40
86.66693,86.76693,72,127,40
87.00026,87.50026,74,127,40
87.66692,87.76693,67,127,40
89.00026,89.16692,72,127,40
89.27804,89.50026,72,127,40
89.61137,89.71693,72,127,40
89.833595,89.88359,67,127,40
90.00026,90.050255,64,127,40
90.16692,90.21693,67,127,40
90.33359,90.83359,72,127,40
91.00026,91.10026,74,127,40
91.33359,91.43359,76,127,40
91.66692,91.76692,76,127,40
92.00026,92.10026,77,127,40
92.33359,92.83359,79,127,40
93.00025,93.16692,77,127,40
93.33359,93.433586,74,127,40
93.66692,93.76692,74,127,40
94.00025,94.10026,76,127,40
94.33359,94.433586,77,127,40
94.66692,94.83359,76,127,40
95.00025,95.10025,72,127,40
95.33359,95.433586,74,127,40
95.666916,95.76692,76,127,40
96.00025,96.166916,74,127,40
96.33359,96.433586,71,127,40
96.666916,96.766914,72,127,40
97.00025,97.50025,74,127,40
97.666916,97.766914,67,127,40
100.00025,100.166916,77,127,40
100.27802,100.500244,77,127,40
100.61136,100.71691,77,127,40
100.83358,100.88358,74,127,40
101.000244,101.05025,71,127,40
101.166916,101.21691,74,127,40
101.33358,101.83358,67,127,40
102.000244,102.166916,77,127,40
102.27802,102.500244,77,127,40
102.61136,102.71691,77,127,40
102.83358,102.883575,74,127,40
103.000244,103.05025,71,127,40
103.16691,103.21691,74,127,40
103.33358,103.58358,77,127,40
109.33357,109.50024,80,127,40
109.61135,109.7169,80,127,40
109.83357,109.883575,77,127,40
110.00024,110.05024,74,127,40
110.16691,110.2169,77,127,40
110.33357,110.50024,80,127,40
110.61135,110.7169,80,127,40
110.83357,110.88357,77,127,40
111.00024,111.05024,74,127,40
111.1669,111.2169,77,127,40
111.33357,111.50024,80,127,40
111.6669,111.7169,77,127,40
111.83357,111.88357,75,127,40
112.00024,112.05024,74,127,40
112.1669,112.2169,72,127,40
112.33357,112.38357,70,127,40
112.50024,112.55023,68,127,40
112.6669,112.7169,67,127,40
112.83357,112.88357,65,127,40
113.00024,113.05023,63,127,40
113.1669,113.2169,62,127,40
115.00024,115.1669,84,127,40
115.27801,115.50024,84,127,40
115.61134,115.716896,84,127,40
115.833565,115.88357,79,127,40
116.00023,116.05023,76,127,40
116.1669,116.216896,79,127,40
116.333565,116.833565,84,127,40
117.00023,117.10023,86,127,40
117.333565,117.43356,88,127,40
117.6669,117.7669,88,127,40
118.00023,118.10023,89,127,40
118.333565,118.833565,91,127,40
119.00023,119.16689,89,127,40
119.27801,119.43356,86,127,40
119.66689,119.76689,86,127,40
120.00023,120.10023,88,127,40
120.333565,120.43356,89,127,40
120.66689,120.83356,88,127,40
121.00023,121.10023,84,127,40
121.33356,121.43356,86,127,40
121.66689,121.76689,88,127,40
122.00023,122.16689,86,127,40
122.33356,122.433556,83,127,40
122.66689,122.76689,84,127,40
123.00023,123.50022,86,127,40
123.66689,123.91689,84,127,40
126.00022,126.166885,77,127,40
126.278,126.50022,77,127,40
126.611336,126.71689,77,127,40
126.83356,126.88355,74,127,40
127.00022,127.050224,71,127,40
127.166885,127.21689,74,127,40
127.33356,127.83356,67,127,40
128.00021,128.16689,77,127,40
128.278,128.50021,77,127,40
128.61133,128.71689,77,127,40
128.83356,128.88356,74,127,40
129.00021,129.05022,71,127,40
129.16689,129.21689,74,127,40
129.33356,129.58356,77,127,40
135.33354,135.50021,80,127,40
135.61133,135.71687,80,127,40
135.83354,135.88354,77,127,40
136.00021,136.05022,74,127,40
136.16689,136.21687,77,127,40
136.33354,136.50021,80,127,40
136.61133,136.71687,80,127,40
136.83354,136.88354,77,127,40
137.00021,137.05022,74,127,40
137.16687,137.21687,77,127,40
137.33354,137.50021,80,127,40
137.66687,137.71687,77,127,40
137.83354,137.88354,75,127,40
138.00021,138.05022,74,127,40
138.16687,138.21687,72,127,40
138.33354,138.38354,70,127,40
138.50021,138.55022,68,127,40
138.66687,138.71687,67,127,40
138.83354,138.88354,65,127,40
139.00021,139.05022,63,127,40
139.16687,139.21687,62,127,40
141.00021,141.16687,84,127,40
141.27798,141.50021,84,127,40
141.61131,141.71687,84,127,40
141.83354,141.88354,79,127,40
142.00021,142.0502,76,127,40
142.16687,142.21687,79,127,40
142.33354,142.83354,84,127,40
143.0002,143.1002,86,127,40
143.33354,143.43353,88,127,40
143.66687,143.76688,88,127,40
144.0002,144.1002,89,127,40
144.33354,144.83354,91,127,40
145.0002,145.16687,89,127,40
145.27798,145.43353,86,127,40
145.66687,145.76688,86,127,40
146.0002,146.1002,88,127,40
146.33354,146.43353,89,127,40
146.66687,146.83354,88,127,40
147.0002,147.1002,84,127,40
147.33353,147.43353,86,127,40
147.66687,147.76686,88,127,40
148.0002,148.16687,86,127,40
148.33353,148.43353,83,127,40
148.66687,148.76686,84,127,40
149.0002,149.5002,86,127,40
149.66687,149.91687,84,127,40
159.00018,159.04185,74,127,40
159.25018,159.27519,71,127,40
159.33353,159.43352,72,127,40
159.66685,159.76686,67,127,40
160.00018,160.10019,69,127,40
160.33353,160.83353,67,127,40
161.00018,161.04185,74,127,40
161.25018,161.27519,71,127,40
161.33353,161.43352,72,127,40
161.66685,161.76685,72,127,40
162.00018,162.10019,74,127,40
162.33353,162.37518,72,127,40
162.6113,162.71686,72,127,40
163.00018,163.04185,74,127,40
163.25018,163.27519,71,127,40
163.33351,163.43352,72,127,40
163.66685,163.76685,67,127,40
164.00018,164.10019,69,127,40
164.33351,164.43352,66,127,40
164.66685,164.76685,67,127,40
165.00018,165.10019,69,127,40
165.33351,165.83351,62,127,40
166.00018,166.05019,66,127,40
166.09462,166.20018,67,127,40
166.25018,166.29185,64,127,40
166.50018,166.55019,71,127,40
166.66685,166.71684,79,127,40
166.83351,166.88351,71,127,40
167.00018,167.05019,76,127,40
167.16685,167.21684,72,127,40
167.33351,167.38351,71,127,40
167.50018,167.55019,67,127,40
167.66684,167.71684,62,127,40
167.83351,167.88351,59,127,40
168.00018,168.05019,57,127,40
168.16684,168.21684,60,127,40
168.33351,168.43352,59,127,40
173.00017,173.04184,83,127,40
173.25017,173.27518,80,127,40
173.33351,173.4335,81,127,40
173.66684,173.76685,81,127,40
174.00017,174.04184,83,127,40
174.25017,174.27518,80,127,40
174.33351,174.83351,81,127,40
175.00017,175.04184,83,127,40
175.25017,175.27518,80,127,40
175.33351,175.37517,83,127,40
175.58351,175.6085,80,127,40
175.66684,175.70851,83,127,40
175.91684,175.94183,80,127,40
176.00017,176.04184,83,127,40
176.25017,176.27518,79,127,40
176.33351,176.3835,77,127,40
176.50017,176.55017,76,127,40
176.66684,176.71684,74,127,40
176.83351,176.8835,72,127,40
177.00017,177.05017,71,127,40
177.16684,177.21684,69,127,40
185.3335,185.4335,76,127,40
185.66682,185.76683,76,127,40
186.00017,186.10016,77,127,40
186.3335,186.8335,76,127,40
187.00017,187.04182,77,127,40
187.25017,187.27516,74,127,40
187.3335,187.43349,76,127,40
187.66682,187.76683,76,127,40
188.00017,188.10016,71,127,40
188.3335,188.66682,72,127,40
189.66682,189.71683,71,127,40
189.8335,189.8835,74,127,40
190.00015,190.05016,72,127,40
190.16682,190.21683,76,127,40
190.3335,190.38348,69,127,40
190.50015,190.55016,72,127,40
190.66682,190.71683,71,127,40
190.8335,190.88348,74,127,40
191.00015,191.05016,72,127,40
191.16682,191.21683,76,127,40
191.3335,191.38348,71,127,40
191.50015,191.55016,67,127,40
191.66682,191.71683,71,127,40
191.8335,191.88348,67,127,40
192.00015,192.05016,72,127,40
192.16682,192.21683,69,127,40
192.3335,192.38348,71,127,40
192.50015,192.55016,72,127,40
192.66682,192.71683,74,127,40
192.8335,192.88348,76,127,40
193.00015,193.04182,79,127,40
193.25015,193.27516,76,127,40
193.33348,193.43349,77,127,40
193.66682,193.76682,73,127,40
194.00015,194.10016,74,127,40
194.33348,194.43349,71,127,40
194.66682,194.76682,72,127,40
195.00015,195.10016,74,127,40
195.33348,195.83348,67,127,40
196.00015,196.05016,71,127,40
196.09459,196.20015,72,127,40
196.25015,196.29182,69,127,40
196.50015,196.55016,76,127,40
196.66682,196.71681,79,127,40
196.83348,196.88348,76,127,40
197.00015,197.05016,69,127,40
197.16682,197.21681,77,127,40
197.33348,197.38965,76,127,40
197.5209,197.57715,72,127,40
197.7084,197.77257,64,127,40
197.92258,197.98686,60,127,40
198.13686,198.20602,65,127,40
198.36755,198.43678,62,127,40
198.59833,198.97325,60,127,40
198.59833,198.97325,64,127,40
8.98645,9.104506,72,127,40
10.986448,11.104504,72,127,40
12.31978,12.417003,74,127,40
12.986446,13.104502,72,127,40
15.994777,16.100332,67,127,40
16.144777,16.250332,66,127,40
16.27811,16.383665,67,127,40
22.986437,23.104492,81,127,40
23.986435,24.10449,81,127,40
24.986435,25.10449,81,127,40
25.319767,25.437822,81,127,40
25.653101,25.771156,81,127,40
25.986433,26.104488,81,127,40
27.666986,27.916986,76,127,40
28.666986,28.916986,76,127,40
29.666985,29.916985,76,127,40
30.666985,30.916985,76,127,40
31.33365,31.416983,76,127,40
31.444761,31.528095,76,127,40
31.555872,31.639206,76,127,40
31.666983,31.750317,76,127,40
31.778093,31.861427,76,127,40
31.889206,31.972538,76,127,40
32.000317,32.08365,76,127,40
32.111427,32.19476,76,127,40
32.222538,32.30587,76,127,40
32.33365,32.41698,76,127,40
32.44476,32.528095,76,127,40
32.55587,32.639206,76,127,40
32.66698,32.750317,76,127,40
32.77809,32.861427,76,127,40
32.889206,32.972538,76,127,40
33.000317,33.08365,76,127,40
33.111427,33.19476,76,127,40
33.222538,33.30587,76,127,40
33.33365,33.41698,76,127,40
33.44476,33.52809,76,127,40
33.55587,33.639202,76,127,40
33.66698,33.750313,76,127,40
33.77809,33.861427,76,127,40
33.889202,33.972538,76,125,40
34.000313,34.08365,76,121,40
34.111423,34.19476,76,116,40
34.222538,34.30587,76,110,40
34.33365,34.41698,76,106,40
34.44476,34.52809,76,106,40
34.55587,34.639202,76,106,40
34.66698,34.750313,76,106,40
34.77809,34.861423,76,106,40
34.889202,34.972534,76,106,40
35.000313,35.083645,76,106,40
35.111423,35.19476,76,106,40
35.222534,35.30587,76,106,40
36.986423,37.104477,76,127,40
38.61142,38.716976,76,127,40
42.986416,43.104473,77,127,40
45.994747,46.100304,72,127,40
46.144745,46.2503,71,127,40
46.27808,46.383636,72,127,40
52.98641,53.10446,81,127,40
53.986404,54.10446,81,127,40
54.986404,55.10446,81,127,40
55.319736,55.437794,81,127,40
55.65307,55.771126,81,127,40
55.986404,56.104458,81,127,40
57.666958,57.916958,76,127,40
58.666958,58.916958,76,127,40
59.666954,59.916954,76,127,40
60.666954,60.916954,76,127,40
61.333622,61.416954,76,127,40
61.444733,61.528065,76,127,40
61.555843,61.639175,76,127,40
61.666954,61.750286,76,127,40
61.778065,61.861397,76,127,40
61.889175,61.972507,76,127,40
62.000286,62.08362,76,127,40
62.111397,62.19473,76,127,40
62.222507,62.305843,76,127,40
62.33362,62.416954,76,127,40
62.44473,62.528065,76,127,40
62.55584,62.639175,76,127,40
62.666954,62.750286,76,127,40
62.778065,62.861397,76,127,40
62.889175,62.972507,76,127,40
63.000286,63.08362,76,127,40
63.111397,63.19473,76,127,40
63.222507,63.30584,76,127,40
63.33362,63.41695,76,127,40
63.44473,63.52806,76,127,40
63.55584,63.63917,76,127,40
63.66695,63.750286,76,127,40
63.77806,63.861397,76,127,40
63.88917,63.972507,76,125,40
64.00028,64.08362,76,121,40
64.1114,64.194725,76,116,40
64.2225,64.30584,76,110,40
64.33362,64.416954,76,106,40
64.444725,64.52806,76,106,40
64.55584,64.639175,76,106,40
64.66695,64.75028,76,106,40
64.77806,64.8614,76,106,40
64.889175,64.9725,76,106,40
65.00028,65.08362,76,106,40
65.1114,65.194725,76,106,40
65.2225,65.30584,76,106,40
66.98639,67.10445,76,127,40
68.61139,68.71695,76,127,40
72.98639,73.10444,77,127,40
75.99472,76.10027,72,127,40
76.144714,76.250275,71,127,40
76.27805,76.383606,72,127,40
79.11138,79.3336,71,127,40
79.44471,79.66694,71,127,40
83.111374,83.29193,76,127,40
84.77804,84.958595,74,127,40
86.111374,86.29193,72,127,40
89.111374,89.333595,71,127,40
89.4447,89.66692,71,127,40
93.11137,93.29192,76,127,40
94.77803,94.95859,74,127,40
96.11137,96.291916,72,127,40
100.11136,100.33358,76,127,40
100.444695,100.666916,76,127,40
102.11136,102.33358,76,127,40
102.44469,102.666916,76,127,40
109.44469,109.66691,79,127,40
110.44468,110.6669,79,127,40
111.44468,111.62524,79,127,40
115.11134,115.333565,83,127,40
115.44468,115.6669,83,127,40
119.11134,119.333565,88,127,40
120.77801,120.95856,86,127,40
122.111336,122.29189,84,127,40
123.44467,123.62522,79,127,40
126.111336,126.33356,76,127,40
126.444664,126.666885,76,127,40
128.11133,128.33356,76,127,40
128.44467,128.66689,76,127,40
135.44466,135.66689,79,127,40
136.44466,136.66689,79,127,40
137.44466,137.62521,79,127,40
141.11131,141.33354,83,127,40
141.44466,141.66687,83,127,40
145.11131,145.33354,88,127,40
146.77798,146.95854,86,127,40
148.11131,148.29187,84,127,40
149.44464,149.6252,79,127,40
158.9863,159.10435,72,127,40
160.9863,161.10435,72,127,40
162.31963,162.41685,74,127,40
162.9863,163.10435,72,127,40
165.99463,166.10019,67,127,40
166.14462,166.25018,66,127,40
166.27795,166.38351,67,127,40
172.98628,173.10434,81,127,40
173.98628,174.10434,81,127,40
174.98628,175.10434,81,127,40
175.31961,175.43767,81,127,40
175.65295,175.77101,81,127,40
175.98628,176.10434,81,127,40
177.66684,177.91684,76,127,40
178.66684,178.91684,76,127,40
179.66684,179.91684,76,127,40
180.66684,180.91684,76,127,40
181.3335,181.41684,76,127,40
181.44461,181.52794,76,127,40
181.55573,181.63905,76,127,40
181.66684,181.75017,76,127,40
181.77794,181.86128,76,127,40
181.88905,181.97238,76,127,40
182.00017,182.0835,76,127,40
182.11128,182.19461,76,127,40
182.22238,182.30573,76,127,40
182.3335,182.41684,76,127,40
182.44461,182.52794,76,127,40
182.55573,182.63905,76,127,40
182.66684,182.75017,76,127,40
182.77794,182.86128,76,127,40
182.88905,182.97238,76,127,40
183.00017,183.0835,76,127,40
183.11128,183.19461,76,127,40
183.22238,183.30573,76,127,40
183.3335,183.41682,76,127,40
183.44461,183.52794,76,127,40
183.55573,183.63905,76,127,40
183.66682,183.75017,76,127,40
183.77794,183.86128,76,127,40
183.88905,183.97238,76,125,40
184.00017,184.0835,76,121,40
184.11128,184.19461,76,116,40
184.22238,184.30573,76,110,40
184.3335,184.41682,76,106,40
184.44461,184.52794,76,106,40
184.55573,184.63905,76,106,40
184.66682,184.75017,76,106,40
184.77794,184.86127,76,106,40
184.88905,184.97238,76,106,40
185.00017,185.0835,76,106,40
185.11127,185.19461,76,106,40
185.22238,185.30573,76,106,40
186.98627,187.10432,76,127,40
188.61127,188.71683,76,127,40
192.98627,193.10432,77,127,40
195.9946,196.10016,72,127,40
196.14459,196.25015,71,127,40
196.27792,196.38348,72,127,40
12.361447,12.667003,76,127,40
16.044777,16.150331,66,127,40
16.236443,16.333666,66,127,40
27.333654,27.521154,76,121,40
27.583654,27.646154,76,121,40
27.666986,27.916986,76,127,40
28.333652,28.521152,76,121,40
28.583652,28.646152,76,121,40
28.666986,28.916986,76,127,40
29.333652,29.416985,76,127,40
29.444763,29.528097,76,127,40
29.555874,29.639208,76,127,40
29.666985,29.916985,76,127,40
30.33365,30.416985,76,127,40
30.444761,30.528095,76,127,40
30.555874,30.639206,76,127,40
30.666985,30.916985,76,127,40
31.33365,31.416983,76,127,40
31.444761,31.528095,76,127,40
31.555872,31.639206,76,127,40
31.666983,31.750317,76,127,40
31.778093,31.861427,76,127,40
31.889206,31.972538,76,127,40
32.000317,32.08365,76,127,40
32.111427,32.19476,76,127,40
32.222538,32.30587,76,127,40
32.33365,32.41698,76,127,40
32.44476,32.528095,76,127,40
32.55587,32.639206,76,127,40
32.66698,32.750317,76,127,40
32.77809,32.861427,76,127,40
32.889206,32.972538,76,127,40
33.000317,33.08365,76,127,40
33.111427,33.19476,76,127,40
33.222538,33.30587,76,127,40
33.33365,33.41698,76,127,40
33.44476,33.52809,76,127,40
33.55587,33.639202,76,127,40
33.66698,33.750313,76,127,40
33.77809,33.861427,76,127,40
33.889202,33.972538,76,125,40
34.000313,34.08365,76,121,40
34.111423,34.19476,76,116,40
34.222538,34.30587,76,110,40
34.33365,34.41698,76,106,40
34.44476,34.52809,76,106,40
34.55587,34.639202,76,106,40
34.66698,34.750313,76,106,40
34.77809,34.861423,76,106,40
34.889202,34.972534,76,106,40
35.000313,35.083645,76,106,40
35.111423,35.19476,76,106,40
35.222534,35.30587,76,106,40
46.044746,46.150303,71,127,40
46.236412,46.333633,71,127,40
57.333626,57.521126,76,121,40
57.583626,57.646126,76,121,40
57.666958,57.916958,76,127,40
58.333622,58.521122,76,121,40
58.583622,58.646122,76,121,40
58.666958,58.916958,76,127,40
59.333622,59.416954,76,127,40
59.444733,59.528065,76,127,40
59.555843,59.63918,76,127,40
59.666954,59.916954,76,127,40
60.333622,60.416954,76,127,40
60.444733,60.528065,76,127,40
60.555843,60.639175,76,127,40
60.666954,60.916954,76,127,40
61.333622,61.416954,76,127,40
61.444733,61.528065,76,127,40
61.555843,61.639175,76,127,40
61.666954,61.750286,76,127,40
61.778065,61.861397,76,127,40
61.889175,61.972507,76,127,40
62.000286,62.08362,76,127,40
62.111397,62.19473,76,127,40
62.222507,62.305843,76,127,40
62.33362,62.416954,76,127,40
62.44473,62.528065,76,127,40
62.55584,62.639175,76,127,40
62.666954,62.750286,76,127,40
62.778065,62.861397,76,127,40
62.889175,62.972507,76,127,40
63.000286,63.08362,76,127,40
63.111397,63.19473,76,127,40
63.222507,63.30584,76,127,40
63.33362,63.41695,76,127,40
63.44473,63.52806,76,127,40
63.55584,63.63917,76,127,40
63.66695,63.750286,76,127,40
63.77806,63.861397,76,127,40
63.88917,63.972507,76,125,40
64.00028,64.08362,76,121,40
64.1114,64.194725,76,116,40
64.2225,64.30584,76,110,40
64.33362,64.416954,76,106,40
64.444725,64.52806,76,106,40
64.55584,64.639175,76,106,40
64.66695,64.75028,76,106,40
64.77806,64.8614,76,106,40
64.889175,64.9725,76,106,40
65.00028,65.08362,76,106,40
65.1114,65.194725,76,106,40
65.2225,65.30584,76,106,40
76.044716,76.15027,71,127,40
76.23638,76.3336,71,127,40
162.3613,162.66685,76,127,40
166.04463,166.15018,66,127,40
166.2363,166.33351,66,127,40
177.33351,177.52101,76,121,40
177.58351,177.64601,76,121,40
177.66684,177.91684,76,127,40
178.3335,178.521,76,121,40
178.5835,178.646,76,121,40
178.66684,178.91684,76,127,40
179.3335,179.41684,76,127,40
179.44461,179.52795,76,127,40
179.55573,179.63905,76,127,40
179.66684,179.91684,76,127,40
180.3335,180.41684,76,127,40
180.44461,180.52794,76,127,40
180.55573,180.63905,76,127,40
180.66684,180.91684,76,127,40
181.3335,181.41684,76,127,40
181.44461,181.52794,76,127,40
181.55573,181.63905,76,127,40
181.66684,181.75017,76,127,40
181.77794,181.86128,76,127,40
181.88905,181.97238,76,127,40
182.00017,182.0835,76,127,40
182.11128,182.19461,76,127,40
182.22238,182.30573,76,127,40
182.3335,182.41684,76,127,40
182.44461,182.52794,76,127,40
182.55573,182.63905,76,127,40
182.66684,182.75017,76,127,40
182.77794,182.86128,76,127,40
182.88905,182.97238,76,127,40
183.00017,183.0835,76,127,40
183.11128,183.19461,76,127,40
183.22238,183.30573,76,127,40
183.3335,183.41682,76,127,40
183.44461,183.52794,76,127,40
183.55573,183.63905,76,127,40
183.66682,183.75017,76,127,40
183.77794,183.86128,76,127,40
183.88905,183.97238,76,125,40
184.00017,184.0835,76,121,40
184.11128,184.19461,76,116,40
184.22238,184.30573,76,110,40
184.3335,184.41682,76,106,40
184.44461,184.52794,76,106,40
184.55573,184.63905,76,106,40
184.66682,184.75017,76,106,40
184.77794,184.86127,76,106,40
184.88905,184.97238,76,106,40
185.00017,185.0835,76,106,40
185.11127,185.19461,76,106,40
185.22238,185.30573,76,106,40
196.0446,196.15015,71,127,40
196.23627,196.33348,71,127,40
