start_time,end_time,note_value,velocity,instrument_program_number
1.0,1.1255208,35,69,0
1.1255208,1.1630208,36,69,0
1.2505208,1.3755208,35,69,0
1.3755208,1.4130208,36,69,0
1.5005208,1.5755209,32,69,0
1.7505208,1.8255209,32,69,0
2.000521,2.0755208,32,69,0
2.250521,2.3255208,32,69,0
2.500521,2.5755208,32,69,0
2.500521,2.5755208,44,69,0
2.750521,2.8255208,32,82,0
2.750521,2.8255208,44,82,0
3.000521,3.0822916,32,95,0
3.000521,3.0822916,44,95,0
3.2732005,3.3550186,32,108,0
3.2732005,3.3550186,44,108,0
3.5459275,3.955018,31,122,0
3.5459275,3.955018,43,122,0
4.5914288,4.7789288,47,69,0
4.5914288,4.7789288,55,69,0
5.0914288,5.2789288,48,69,0
5.0914288,5.2789288,55,69,0
5.5914288,5.7789288,41,69,0
5.5914288,5.7789288,53,69,0
6.5914288,6.7789288,42,69,0
6.5914288,6.7789288,51,69,0
7.0914288,7.2789288,42,69,0
7.0914288,7.2789288,51,69,0
7.5914288,7.7789288,43,69,0
7.5914288,7.7789288,50,69,0
8.091429,8.216429,35,69,0
8.216429,8.253929,36,69,0
8.341429,8.466429,35,69,0
8.466429,8.503929,36,69,0
8.591429,8.666429,32,69,0
8.841429,8.916429,32,69,0
9.091429,9.166429,32,69,0
9.341429,9.416429,32,69,0
9.591429,9.666429,32,69,0
9.591429,9.666429,44,69,0
9.841429,9.9232,32,82,0
9.841429,9.9232,44,82,0
10.114108,10.195927,32,95,0
10.114108,10.195927,44,95,0
10.386835,10.468654,32,108,0
10.386835,10.468654,44,108,0
10.659562,11.068653,31,122,0
10.659562,11.068653,43,122,0
11.705064,11.892564,47,69,0
11.705064,11.892564,55,69,0
12.205064,12.392564,48,69,0
12.205064,12.392564,55,69,0
12.705064,12.892564,41,69,0
12.705064,12.892564,53,69,0
13.705064,13.892564,43,69,0
13.705064,13.892564,51,69,0
14.205064,14.392564,43,69,0
14.205064,14.392564,50,69,0
14.705064,14.892564,36,69,0
14.705064,14.892564,48,69,0
15.792211,16.629417,48,69,0
15.792211,16.629417,51,69,0
15.792211,16.629417,55,69,0
16.908485,17.745693,47,80,0
16.908485,17.745693,53,80,0
16.908485,17.745693,55,80,0
18.024763,18.861969,48,92,0
18.024763,18.861969,51,92,0
18.024763,18.861969,55,92,0
19.141039,19.664293,43,80,0
19.141039,19.664293,50,80,0
19.141039,19.664293,55,80,0
19.83871,19.943361,59,73,0
19.978245,20.082895,62,71,0
20.11778,20.222431,65,70,0
20.257315,21.09452,60,69,0
20.257315,21.09452,63,69,0
20.257315,21.09452,67,69,0
21.37359,22.210796,59,80,0
21.37359,22.210796,65,80,0
21.37359,22.210796,67,80,0
22.489866,23.048004,60,92,0
22.489866,23.048004,63,92,0
22.489866,23.048004,67,92,0
23.048004,23.327074,58,80,0
23.048004,23.327074,62,80,0
23.327074,23.606142,56,74,0
23.327074,23.606142,60,74,0
23.606142,23.815445,55,69,0
23.606142,23.815445,59,69,0
24.16428,24.289341,35,69,0
24.289341,24.326841,36,69,0
24.414341,24.539341,35,69,0
24.539341,24.576841,36,69,0
24.664341,24.739342,32,69,0
24.914341,24.989342,32,69,0
25.164341,25.239342,32,69,0
25.164341,25.239342,44,69,0
25.414341,25.489342,32,77,0
25.414341,25.489342,44,77,0
25.664341,25.739342,32,86,0
25.664341,25.739342,44,86,0
25.914341,25.99611,32,95,0
25.914341,25.99611,44,95,0
26.187021,26.268839,32,104,0
26.187021,26.268839,44,104,0
26.459747,26.541565,32,113,0
26.459747,26.541565,44,113,0
26.732475,27.141565,29,122,0
26.732475,27.141565,41,122,0
27.823383,28.01093,53,69,0
27.823383,28.01093,58,69,0
28.32343,28.51093,51,69,0
28.32343,28.51093,58,69,0
28.82343,29.01093,44,69,0
28.82343,29.01093,56,69,0
29.82343,30.01093,45,69,0
29.82343,30.01093,54,69,0
30.32343,30.51093,45,69,0
30.32343,30.51093,54,69,0
30.82343,30.89843,34,107,0
31.07343,31.26093,46,69,0
31.07343,31.26093,50,69,0
31.07343,31.26093,53,69,0
31.32343,31.51093,46,69,0
31.32343,31.51093,50,69,0
31.32343,31.51093,53,69,0
31.57343,31.76093,46,69,0
31.57343,31.76093,50,69,0
31.57343,31.76093,53,69,0
31.82343,32.01093,34,69,0
32.07343,32.26093,46,69,0
32.07343,32.26093,50,69,0
32.07343,32.26093,53,69,0
32.32343,32.51093,46,69,0
32.32343,32.51093,50,69,0
32.32343,32.51093,53,69,0
32.57343,32.76093,46,69,0
32.57343,32.76093,50,69,0
32.57343,32.76093,53,69,0
32.82343,33.01093,34,69,0
33.07343,33.26093,46,71,0
33.07343,33.26093,48,71,0
33.07343,33.26093,51,71,0
33.07343,33.26093,54,71,0
33.32343,33.51093,46,74,0
33.32343,33.51093,48,74,0
33.32343,33.51093,51,74,0
33.32343,33.51093,54,74,0
33.57343,33.76093,46,76,0
33.57343,33.76093,48,76,0
33.57343,33.76093,51,76,0
33.57343,33.76093,54,76,0
33.82343,34.01093,34,78,0
34.07343,34.26093,46,80,0
34.07343,34.26093,48,80,0
34.07343,34.26093,51,80,0
34.07343,34.26093,54,80,0
34.32343,34.51093,46,83,0
34.32343,34.51093,48,83,0
34.32343,34.51093,51,83,0
34.32343,34.51093,54,83,0
34.57343,34.76093,46,85,0
34.57343,34.76093,48,85,0
34.57343,34.76093,51,85,0
34.57343,34.76093,54,85,0
34.82343,35.01093,34,88,0
35.07343,35.26093,46,90,0
35.07343,35.26093,53,90,0
35.07343,35.26093,56,90,0
35.32343,35.51093,46,92,0
35.32343,35.51093,53,92,0
35.32343,35.51093,56,92,0
35.57343,35.76093,46,95,0
35.57343,35.76093,53,95,0
35.57343,35.76093,56,95,0
35.82343,36.01093,34,97,0
36.07343,36.26093,46,99,0
36.07343,36.26093,51,99,0
36.07343,36.26093,55,99,0
36.32343,36.51093,46,101,0
36.32343,36.51093,51,101,0
36.32343,36.51093,55,101,0
36.57343,36.76093,46,104,0
36.57343,36.76093,51,104,0
36.57343,36.76093,55,104,0
36.82343,37.01093,34,107,0
37.07343,37.26093,46,107,0
37.07343,37.26093,50,107,0
37.07343,37.26093,53,107,0
37.32343,37.51093,46,107,0
37.32343,37.51093,50,107,0
37.32343,37.51093,53,107,0
37.57343,37.76093,46,107,0
37.57343,37.76093,50,107,0
37.57343,37.76093,53,107,0
37.82343,38.01093,46,107,0
37.82343,38.01093,50,107,0
37.82343,38.01093,53,107,0
40.82343,40.91718,51,69,0
40.94843,41.04218,58,69,0
41.07343,41.16718,55,69,0
41.19843,41.29218,58,69,0
41.32343,41.41718,51,69,0
41.44843,41.54218,58,69,0
41.57343,41.66718,55,69,0
41.69843,41.79218,58,69,0
41.82343,41.91718,51,69,0
41.94843,42.04218,58,69,0
42.07343,42.16718,55,69,0
42.19843,42.29218,58,69,0
42.32343,42.41718,51,69,0
42.44843,42.54218,58,69,0
42.57343,42.66718,55,69,0
42.69843,42.79218,58,69,0
42.82343,42.91718,53,69,0
42.82343,42.91718,56,69,0
42.94843,43.04218,58,69,0
43.07343,43.16718,50,69,0
43.07343,43.16718,53,69,0
43.19843,43.29218,58,71,0
43.32343,43.41718,46,72,0
43.32343,43.41718,50,72,0
43.44843,43.54218,58,74,0
43.57343,43.66718,50,75,0
43.57343,43.66718,53,75,0
43.69843,43.79218,58,77,0
43.82343,43.91718,46,78,0
43.82343,43.91718,50,78,0
43.94843,44.04218,58,80,0
44.07343,44.16718,50,82,0
44.07343,44.16718,53,82,0
44.19843,44.29218,58,83,0
44.32343,44.41718,46,85,0
44.32343,44.41718,50,85,0
44.44843,44.54218,58,86,0
44.57343,44.66718,50,88,0
44.57343,44.66718,53,88,0
44.69843,44.79218,58,89,0
44.82343,44.91718,51,92,0
44.94843,45.04218,58,80,0
45.07343,45.16718,55,69,0
45.19843,45.29218,58,69,0
45.32343,45.41718,51,69,0
45.44843,45.54218,58,69,0
45.57343,45.66718,55,69,0
45.69843,45.79218,58,69,0
45.82343,45.91718,51,69,0
45.94843,46.04218,58,69,0
46.07343,46.16718,55,69,0
46.19843,46.29218,58,69,0
46.32343,46.41718,51,69,0
46.44843,46.54218,58,69,0
46.57343,46.66718,55,69,0
46.69843,46.79218,58,69,0
46.82343,46.91718,53,69,0
46.82343,46.91718,56,69,0
46.94843,47.04218,58,69,0
47.07343,47.16718,50,69,0
47.07343,47.16718,53,69,0
47.19843,47.29218,58,71,0
47.32343,47.41718,46,72,0
47.32343,47.41718,50,72,0
47.44843,47.54218,58,74,0
47.57343,47.66718,50,75,0
47.57343,47.66718,53,75,0
47.69843,47.79218,58,77,0
47.82343,47.91718,46,78,0
47.82343,47.91718,50,78,0
47.94843,48.04218,58,80,0
48.07343,48.16718,50,82,0
48.07343,48.16718,53,82,0
48.19843,48.29218,58,83,0
48.32343,48.41718,46,85,0
48.32343,48.41718,50,85,0
48.44843,48.54218,58,86,0
48.57343,48.66718,50,88,0
48.57343,48.66718,53,88,0
48.69843,48.79218,58,89,0
48.82343,48.91718,51,92,0
48.94843,49.04218,58,80,0
49.07343,49.16718,55,69,0
49.19843,49.29218,58,69,0
49.32343,49.41718,51,69,0
49.44843,49.54218,58,69,0
49.57343,49.66718,49,69,0
49.69843,49.79218,58,69,0
49.82343,49.91718,48,69,0
49.94843,50.04218,58,69,0
50.07343,50.16718,55,69,0
50.19843,50.29218,58,69,0
50.32343,50.41718,48,69,0
50.44843,50.54218,58,69,0
50.57343,50.66718,55,69,0
50.69843,50.79218,58,69,0
50.82343,50.91718,53,69,0
50.94843,51.04218,60,69,0
51.07343,51.16718,56,69,0
51.19843,51.29218,60,69,0
51.32343,51.41718,53,69,0
51.44843,51.54218,60,69,0
51.57343,51.66718,51,69,0
51.69843,51.79218,60,69,0
51.82343,51.91718,50,69,0
51.94843,52.04218,60,69,0
52.07343,52.16718,57,69,0
52.19843,52.29218,60,69,0
52.32343,52.41718,50,69,0
52.44843,52.54218,60,69,0
52.57343,52.66718,57,69,0
52.69843,52.79218,60,69,0
52.82343,52.91718,55,69,0
52.94843,53.04218,58,71,0
53.07343,53.16718,55,74,0
53.19843,53.29218,58,76,0
53.32343,53.41718,51,78,0
53.44843,53.54218,61,80,0
53.57343,53.66718,51,83,0
53.69843,53.79218,61,85,0
53.82343,53.91718,56,88,0
53.94843,54.04218,60,90,0
54.07343,54.16718,56,92,0
54.19843,54.29218,60,95,0
54.32343,54.41718,53,97,0
54.44843,54.54218,63,99,0
54.57343,54.66718,53,101,0
54.69843,54.79218,63,104,0
54.82343,54.91718,58,107,0
54.94843,55.04218,62,107,0
55.07343,55.16718,58,107,0
55.19843,55.29218,62,107,0
55.32343,55.41718,56,107,0
55.44843,55.54218,58,107,0
55.57343,55.66718,56,107,0
55.69843,55.79218,58,107,0
55.82343,55.91718,55,107,0
55.94843,56.04218,58,103,0
56.07343,56.16718,55,99,0
56.19843,56.29218,58,95,0
56.32343,56.41718,44,92,0
56.44843,56.54218,56,88,0
56.57343,56.66718,44,84,0
56.69843,56.79218,56,80,0
56.82343,57.01093,46,77,0
56.82343,57.01093,58,77,0
57.82343,58.01093,34,77,0
57.82343,58.01093,46,77,0
58.82343,58.89843,39,77,0
58.82343,58.89843,51,77,0
59.07343,59.14843,54,77,0
59.32343,59.39843,51,77,0
59.57343,59.64843,54,77,0
59.82343,59.89843,51,77,0
60.07343,60.14843,54,77,0
60.32343,60.39843,51,77,0
60.57343,60.64843,54,77,0
60.82343,60.89843,53,77,0
61.07343,61.14843,38,107,0
61.07343,61.14843,50,107,0
61.32343,61.39843,34,107,0
61.32343,61.39843,46,107,0
61.57343,61.64843,38,107,0
61.57343,61.64843,50,107,0
61.82343,61.89843,34,107,0
61.82343,61.89843,46,107,0
62.07343,62.14843,38,107,0
62.07343,62.14843,50,107,0
62.32343,62.39843,34,107,0
62.32343,62.39843,46,107,0
62.57343,62.64843,38,107,0
62.57343,62.64843,50,107,0
62.82343,62.89843,39,107,0
62.82343,62.89843,51,107,0
63.07343,63.14843,54,69,0
63.32343,63.39843,51,69,0
63.57343,63.64843,54,69,0
63.82343,63.89843,51,69,0
64.07343,64.14843,54,69,0
64.32343,64.39843,51,69,0
64.57343,64.64843,54,109,0
64.82343,64.91718,53,92,0
64.94843,65.04218,56,92,0
65.07343,65.16718,49,92,0
65.19843,65.29218,53,92,0
65.32343,65.41718,51,92,0
65.44843,65.54218,54,92,0
65.57343,65.66718,53,92,0
65.69843,65.79218,56,92,0
65.82343,65.91718,54,92,0
65.94843,66.04218,58,92,0
66.07343,66.16718,54,92,0
66.19843,66.29218,58,92,0
66.32343,66.41718,54,92,0
66.44843,66.54218,58,92,0
66.57343,66.66718,54,92,0
66.69843,66.79218,58,92,0
66.82343,66.91718,56,92,0
66.94843,67.04218,59,92,0
67.07343,67.16718,56,92,0
67.19843,67.29218,59,92,0
67.32343,67.41718,56,92,0
67.44843,67.54218,59,92,0
67.57343,67.66718,56,92,0
67.69843,67.79218,59,92,0
67.82343,68.01093,56,92,0
67.82343,68.01093,59,92,0
67.82343,68.01093,62,92,0
67.82343,68.01093,65,92,0
68.32343,68.51093,56,95,0
68.32343,68.51093,59,95,0
68.32343,68.51093,62,95,0
68.32343,68.51093,65,95,0
68.82343,69.01093,57,99,0
68.82343,69.01093,60,99,0
68.82343,69.01093,63,99,0
68.82343,69.01093,66,99,0
69.32343,69.51093,57,103,0
69.32343,69.51093,60,103,0
69.32343,69.51093,63,103,0
69.32343,69.51093,66,103,0
69.82343,70.01093,56,107,0
69.82343,70.01093,58,107,0
69.82343,70.01093,62,107,0
69.82343,70.01093,65,107,0
70.82343,71.01093,43,107,0
70.82343,71.01093,46,107,0
70.82343,71.01093,51,107,0
70.82343,71.01093,55,107,0
71.82343,72.01093,32,107,0
71.82343,72.01093,44,107,0
72.82343,73.01093,34,107,0
72.82343,73.01093,46,107,0
73.82343,74.01093,39,107,0
73.82343,74.01093,51,107,0
74.07343,74.26093,51,88,0
74.32343,74.51093,51,69,0
74.57343,74.76093,51,69,0
74.82343,75.01093,51,69,0
75.07343,75.26093,51,69,0
75.32343,75.51093,51,69,0
75.57343,75.76093,51,69,0
75.82343,76.01093,51,77,0
76.07343,76.26093,51,77,0
76.32343,76.51093,51,77,0
76.57343,76.76093,51,77,0
76.82343,77.01093,51,77,0
77.07343,77.26093,51,77,0
77.32343,77.51093,51,77,0
77.57343,77.76093,51,77,0
77.82343,77.91718,39,77,0
77.94843,78.04218,58,77,0
78.07343,78.16718,51,77,0
78.07343,78.16718,55,77,0
78.19843,78.29218,58,77,0
78.32343,78.41718,51,77,0
78.32343,78.41718,55,77,0
78.44843,78.54218,58,77,0
78.57343,78.66718,51,77,0
78.57343,78.66718,55,77,0
78.69843,78.79218,58,77,0
78.82343,78.91718,51,69,0
78.82343,78.91718,55,69,0
78.94843,79.04218,58,69,0
79.07343,79.16718,51,69,0
79.07343,79.16718,55,69,0
79.19843,79.29218,58,69,0
79.32343,79.41718,51,69,0
79.32343,79.41718,55,69,0
79.44843,79.54218,58,69,0
79.57343,79.66718,51,69,0
79.57343,79.66718,55,69,0
79.69843,79.79218,58,69,0
79.82343,79.91718,51,89,0
79.82343,79.91718,53,89,0
79.82343,79.91718,56,89,0
79.94843,80.04218,59,77,0
80.07343,80.16718,51,77,0
80.07343,80.16718,53,77,0
80.07343,80.16718,56,77,0
80.19843,80.29218,58,77,0
80.32343,80.41718,51,77,0
80.32343,80.41718,53,77,0
80.32343,80.41718,56,77,0
80.44843,80.54218,58,77,0
80.57343,80.66718,51,77,0
80.57343,80.66718,53,77,0
80.57343,80.66718,56,77,0
80.69843,80.79218,58,77,0
80.82343,80.91718,51,77,0
80.82343,80.91718,53,77,0
80.82343,80.91718,56,77,0
80.94843,81.04218,58,77,0
81.07343,81.16718,51,77,0
81.07343,81.16718,53,77,0
81.07343,81.16718,56,77,0
81.19843,81.29218,58,77,0
81.32343,81.41718,51,77,0
81.32343,81.41718,53,77,0
81.32343,81.41718,56,77,0
81.44843,81.54218,58,77,0
81.57343,81.66718,51,77,0
81.57343,81.66718,53,77,0
81.57343,81.66718,56,77,0
81.69843,81.79218,58,77,0
81.94843,82.07343,55,62,0
82.07343,82.19843,54,62,0
82.19843,82.32343,55,62,0
82.32343,82.44843,54,62,0
82.44843,82.57343,55,62,0
82.57343,82.69843,54,62,0
81.82343,82.82343,51,62,0
82.69843,82.82343,55,62,0
82.82343,82.94843,53,62,0
82.94843,83.07343,55,62,0
83.07343,83.19843,53,62,0
82.82343,83.32343,50,62,0
83.19843,83.32343,55,62,0
83.32343,83.44843,51,62,0
83.44843,83.57343,55,62,0
83.57343,83.69843,51,62,0
83.32343,83.82343,48,62,0
83.69843,83.82343,55,62,0
83.82343,83.94843,50,62,0
83.94843,84.07343,55,62,0
84.07343,84.19843,50,62,0
84.19843,84.32343,55,62,0
84.32343,84.44843,50,62,0
84.44843,84.57343,55,62,0
84.57343,84.69843,50,62,0
83.82343,84.82343,47,62,0
84.69843,84.82343,55,62,0
84.82343,84.94843,51,62,0
84.94843,85.07343,55,62,0
85.07343,85.19843,51,62,0
85.19843,85.32343,55,62,0
85.32343,85.44843,51,62,0
85.44843,85.57343,55,62,0
85.57343,85.69843,51,62,0
84.82343,85.82343,48,62,0
85.69843,85.82343,55,62,0
85.82343,85.94843,50,62,0
85.94843,86.07343,55,62,0
86.07343,86.19843,50,62,0
86.19843,86.32343,55,62,0
86.32343,86.44843,50,62,0
86.44843,86.57343,55,63,0
86.57343,86.69843,50,65,0
85.82343,86.82343,47,62,0
86.69843,86.82343,55,66,0
86.82343,86.94843,51,68,0
86.94843,87.07343,55,69,0
87.07343,87.19843,51,71,0
87.19843,87.32343,55,73,0
87.32343,87.44843,51,74,0
87.44843,87.57343,55,76,0
87.57343,87.69843,51,77,0
86.82343,87.82343,48,68,0
87.69843,87.82343,55,79,0
87.82343,87.94843,50,80,0
87.94843,88.07343,55,82,0
88.07343,88.19843,50,84,0
88.19843,88.32343,55,86,0
88.32343,88.44843,50,87,0
88.44843,88.57343,55,89,0
88.57343,88.69843,50,90,0
87.82343,88.82343,46,80,0
88.69843,88.82343,55,92,0
88.82343,88.94843,48,93,0
88.94843,89.07343,55,95,0
89.07343,89.19843,48,97,0
89.19843,89.32343,55,98,0
89.32343,89.44843,48,100,0
89.44843,89.57343,55,90,0
89.57343,89.69843,48,80,0
88.82343,89.82343,44,93,0
89.69843,89.82343,55,71,0
89.82343,90.82343,43,62,0
89.82343,90.82343,47,62,0
94.32343,94.44843,35,69,0
94.44843,94.54218,36,69,0
94.57343,94.69843,35,69,0
94.69843,94.79218,36,69,0
94.82343,94.89843,32,69,0
95.07343,95.14843,32,69,0
95.32343,95.39843,32,69,0
95.57343,95.64843,32,69,0
95.82343,95.89843,32,69,0
95.82343,95.89843,44,69,0
96.07343,96.1552,32,82,0
96.07343,96.1552,44,82,0
96.34611,96.427925,32,95,0
96.34611,96.427925,44,95,0
96.618835,96.70065,32,108,0
96.618835,96.70065,44,108,0
96.89156,97.30065,31,122,0
96.89156,97.30065,43,122,0
97.982475,98.17002,47,69,0
97.982475,98.17002,55,69,0
98.48252,98.67002,48,69,0
98.48252,98.67002,55,69,0
98.98252,99.17002,41,69,0
98.98252,99.17002,53,69,0
99.98252,100.17002,42,69,0
99.98252,100.17002,51,69,0
100.48252,100.67002,42,69,0
100.48252,100.67002,51,69,0
100.98252,101.17002,43,69,0
100.98252,101.17002,50,69,0
101.48252,101.60752,35,69,0
101.60752,101.70127,36,69,0
101.73252,101.85752,35,69,0
101.85752,101.95127,36,69,0
101.98252,102.05752,32,69,0
102.23252,102.30752,32,69,0
102.48252,102.55752,32,69,0
102.73252,102.80752,32,69,0
102.98252,103.05752,32,69,0
102.98252,103.05752,44,69,0
103.23252,103.31429,32,82,0
103.23252,103.31429,44,82,0
103.505196,103.58701,32,95,0
103.505196,103.58701,44,95,0
103.77792,103.85974,32,108,0
103.77792,103.85974,44,108,0
104.05065,104.45974,31,122,0
104.05065,104.45974,43,122,0
105.14156,105.32911,47,69,0
105.14156,105.32911,55,69,0
105.64161,105.82911,48,69,0
105.64161,105.82911,55,69,0
106.14161,106.32911,41,69,0
106.14161,106.32911,53,69,0
107.14161,107.32911,43,69,0
107.14161,107.32911,51,69,0
107.64161,107.82911,43,69,0
107.64161,107.82911,50,69,0
108.14161,108.32911,36,69,0
108.14161,108.32911,48,69,0
108.39161,108.52792,55,69,0
108.52792,108.66428,53,69,0
108.66428,108.80065,52,69,0
108.80065,108.93701,53,69,0
108.93701,109.07338,50,69,0
109.07338,109.17565,52,69,0
109.20974,110.02792,48,69,0
109.20974,110.02792,52,69,0
109.20974,110.02792,55,69,0
110.30065,111.11883,47,69,0
110.30065,111.11883,53,69,0
110.30065,111.11883,55,69,0
111.391556,111.80065,48,89,0
111.391556,111.80065,52,89,0
111.391556,111.80065,55,89,0
111.93701,112.3461,45,73,0
111.93701,112.3461,50,73,0
112.48247,112.58474,43,69,0
112.48247,112.58474,50,69,0
112.61883,112.7211,43,69,0
112.755196,112.85747,47,69,0
112.891556,112.99383,50,69,0
113.027916,113.130196,55,69,0
113.16428,113.266556,59,69,0
113.300644,113.402916,62,69,0
113.43701,113.53928,65,69,0
113.57337,114.391556,60,69,0
113.57337,114.391556,64,69,0
113.57337,114.391556,67,69,0
114.66428,115.277916,59,80,0
114.66428,115.277916,65,80,0
114.66428,115.277916,67,80,0
115.48246,115.687004,59,89,0
115.48246,115.687004,65,89,0
115.75519,116.300644,60,92,0
115.75519,116.300644,64,92,0
116.300644,116.57337,59,92,0
116.300644,116.57337,62,92,0
116.57337,116.777916,57,80,0
116.57337,116.777916,60,80,0
116.8461,117.527916,55,69,0
116.8461,117.527916,62,69,0
117.527916,117.63019,53,69,0
117.664276,117.76655,52,69,0
117.800644,117.902916,50,69,0
117.937004,118.75519,49,69,0
117.937004,118.75519,52,69,0
117.937004,118.75519,57,69,0
119.027916,119.84609,50,69,0
119.027916,119.84609,53,69,0
119.027916,119.84609,57,69,0
120.11882,120.937004,47,69,0
120.11882,120.937004,50,69,0
120.11882,120.937004,55,69,0
121.20973,122.02791,48,69,0
121.20973,122.02791,52,69,0
121.20973,122.02791,55,69,0
122.30064,122.84609,52,70,0
122.30064,122.84609,55,70,0
122.84609,123.11882,50,76,0
122.84609,123.11882,53,76,0
123.11882,123.323364,48,79,0
123.11882,123.323364,52,79,0
123.39155,124.209724,53,81,0
123.39155,124.209724,57,81,0
124.209724,124.34609,52,90,0
124.209724,124.34609,55,90,0
124.34609,124.448364,50,92,0
124.34609,124.448364,53,92,0
124.48245,124.687,55,69,0
124.75518,124.959724,31,69,0
124.75518,124.959724,43,69,0
125.02791,125.23245,31,69,0
125.02791,125.23245,43,69,0
125.30064,125.50518,31,69,0
125.30064,125.50518,43,69,0
125.573364,125.77791,36,69,0
125.573364,125.77791,48,69,0
125.84609,125.98245,67,69,0
125.98245,126.11881,66,69,0
126.11881,126.25518,67,69,0
126.25518,126.39154,65,69,0
126.39154,126.52791,64,69,0
126.52791,126.63018,62,69,0
126.66427,127.48245,61,69,0
126.66427,127.48245,64,69,0
126.66427,127.48245,69,69,0
127.75518,128.57336,62,69,0
127.75518,128.57336,65,69,0
127.75518,128.57336,69,69,0
128.84608,129.45972,62,69,0
128.84608,129.66426,59,69,0
128.84608,129.66426,67,69,0
129.66426,129.8688,65,69,0
129.937,130.75517,60,69,0
129.937,130.75517,64,69,0
129.937,130.75517,67,69,0
131.02791,131.57335,52,69,0
131.02791,131.57335,55,69,0
131.57335,131.84608,50,77,0
131.57335,131.84608,53,77,0
131.84608,132.05063,48,80,0
131.84608,132.05063,52,80,0
132.1188,132.937,53,84,0
132.1188,132.937,57,84,0
132.937,133.07335,52,80,0
132.937,133.07335,55,80,0
133.07335,133.17563,50,74,0
133.07335,133.17563,53,74,0
133.20972,133.41426,43,69,0
133.20972,133.41426,55,69,0
133.48244,133.687,55,69,0
133.48244,133.687,62,69,0
133.75517,133.95972,55,69,0
133.75517,133.95972,62,69,0
134.0279,134.23244,55,69,0
134.0279,134.23244,62,69,0
134.30063,134.50517,48,69,0
134.30063,134.50517,60,69,0
135.39154,135.4938,60,107,0
135.5279,135.63017,59,107,0
135.66426,135.76654,57,107,0
135.80063,135.9029,55,107,0
135.93698,136.03926,53,107,0
136.07335,136.17563,52,107,0
136.20972,136.31198,50,107,0
136.34608,136.44835,48,107,0
136.48244,137.30063,53,107,0
137.30063,137.43698,52,107,0
137.43698,137.53926,50,107,0
137.57335,137.7779,55,107,0
137.84607,138.05063,43,107,0
137.84607,138.05063,55,107,0
138.1188,138.32335,43,107,0
138.1188,138.32335,55,107,0
138.39153,138.59607,31,107,0
138.39153,138.59607,43,107,0
138.66426,139.0393,36,127,0
138.66426,139.0393,48,127,0
139.1643,139.2393,50,69,0
139.4143,139.4893,51,69,0
139.6643,139.94556,50,69,0
140.0393,140.0768,48,69,0
140.1643,140.2393,50,69,0
140.4143,140.6018,43,69,0
140.6643,141.1643,51,69,0
141.1643,141.2393,50,69,0
141.4143,141.4893,48,69,0
141.6643,141.7393,46,69,0
141.9143,141.9893,45,69,0
142.1643,142.2393,43,69,0
142.4143,142.4893,42,69,0
142.6643,142.75806,43,69,0
142.7893,142.88306,62,69,0
142.9143,143.00806,63,69,0
143.0393,143.13306,62,69,0
143.1643,143.25806,60,69,0
143.2893,143.38306,58,69,0
143.4143,143.50806,57,69,0
143.5393,143.63306,55,69,0
143.6643,143.75806,54,69,0
143.7893,143.88306,55,69,0
143.9143,144.00806,54,69,0
144.0393,144.13306,52,69,0
144.1643,144.25806,54,69,0
144.2893,144.38306,50,69,0
144.4143,144.50806,52,69,0
144.5393,144.63306,54,69,0
144.6643,144.75806,55,69,0
144.7893,144.88306,54,69,0
144.9143,145.00806,55,69,0
145.0393,145.13306,50,69,0
145.1643,145.25806,53,69,0
145.2893,145.38306,52,69,0
145.4143,145.50806,53,69,0
145.5393,145.63306,50,69,0
145.6643,145.75806,53,69,0
145.7893,145.88306,56,74,0
145.9143,146.00806,55,78,0
146.0393,146.13306,53,83,0
146.1643,146.25806,51,88,0
146.2893,146.38306,50,92,0
146.4143,146.50806,48,97,0
146.5393,146.63306,47,101,0
146.6643,146.8518,48,107,0
147.1643,147.2893,59,107,0
147.2893,147.38306,60,107,0
147.4143,147.5393,59,107,0
147.5393,147.63306,60,107,0
148.1643,148.2893,30,107,0
148.2893,148.38306,31,107,0
148.4143,148.5393,30,107,0
148.5393,148.63306,31,107,0
148.6643,149.0393,36,107,0
148.6643,149.0393,48,107,0
149.1643,149.2393,38,107,0
149.1643,149.2393,50,107,0
149.4143,149.4893,39,107,0
149.4143,149.4893,51,107,0
149.6643,149.77681,38,107,0
149.6643,149.77681,50,107,0
150.0393,150.0768,36,107,0
150.0393,150.0768,48,107,0
150.1643,150.2393,38,107,0
150.1643,150.2393,50,107,0
150.4143,150.4893,31,107,0
150.4143,150.4893,43,107,0
150.6643,151.0393,44,127,0
150.6643,151.0393,56,127,0
151.1643,151.2393,43,107,0
151.1643,151.2393,55,107,0
151.4143,151.4893,41,107,0
151.4143,151.4893,53,107,0
151.6643,151.7393,39,107,0
151.6643,151.7393,51,107,0
151.9143,151.9893,38,107,0
151.9143,151.9893,50,107,0
152.1643,152.5393,36,107,0
152.1643,152.5393,48,107,0
154.4143,154.6018,36,127,0
154.6643,155.0393,29,127,0
154.6643,155.0393,41,127,0
155.1643,155.3518,31,122,0
155.1643,155.3518,43,122,0
155.4143,155.6018,32,122,0
155.4143,155.6018,44,122,0
155.6643,156.4143,31,122,0
155.6643,156.4143,43,122,0
156.6643,157.0393,31,122,0
156.6643,157.0393,43,122,0
157.1643,157.3518,33,122,0
157.1643,157.3518,45,122,0
157.4143,157.6018,34,122,0
157.4143,157.6018,46,122,0
157.6643,158.4143,33,127,0
157.6643,158.4143,45,127,0
158.6643,159.0393,33,127,0
158.6643,159.0393,45,127,0
159.1643,159.3518,35,122,0
159.1643,159.3518,47,122,0
159.4143,159.6018,36,122,0
159.4143,159.6018,48,122,0
159.6643,160.0393,35,127,0
159.6643,160.0393,47,127,0
160.1643,160.3518,36,122,0
160.1643,160.3518,48,122,0
160.4143,160.6018,38,122,0
160.4143,160.6018,50,122,0
160.6643,161.0393,36,127,0
160.6643,161.0393,48,127,0
161.1643,161.3518,38,122,0
161.1643,161.3518,50,122,0
161.4143,161.6018,39,122,0
161.4143,161.6018,51,122,0
161.6643,162.0393,38,127,0
161.6643,162.0393,50,127,0
162.1643,162.3518,39,122,0
162.1643,162.3518,51,122,0
162.4143,162.6018,41,122,0
162.4143,162.6018,53,122,0
162.6643,162.85994,47,122,0
162.92516,163.02298,48,122,0
163.05559,163.15341,50,122,0
163.18602,163.38167,41,122,0
163.44688,163.54471,43,122,0
163.57732,163.67516,44,122,0
163.70776,163.91228,38,122,0
163.98045,164.08273,39,122,0
164.11682,164.2191,41,122,0
164.25319,164.45773,35,122,0
164.52591,164.62819,36,122,0
164.66228,164.76456,38,122,0
164.79865,166.88953,31,127,0
167.6038,167.81808,50,122,0
167.88953,167.99666,51,122,0
168.03238,168.13953,53,122,0
168.17523,168.42514,47,122,0
168.50847,168.63347,48,122,0
168.67514,168.80014,50,122,0
168.8418,169.14166,47,122,0
169.24167,169.39166,48,122,0
169.44167,169.59166,50,122,0
169.64166,171.89145,31,127,0
169.64166,171.89145,43,127,0
172.64145,172.73572,35,69,0
172.76697,172.86072,36,69,0
172.89197,172.98572,35,69,0
173.01697,173.11072,36,69,0
173.14197,173.21698,32,69,0
173.39197,173.46698,32,69,0
173.64197,173.71698,32,69,0
173.89197,173.96698,32,69,0
174.14197,174.21698,32,69,0
174.14197,174.21698,44,69,0
174.39197,174.47374,32,82,0
174.39197,174.47374,44,82,0
174.66466,174.74648,32,95,0
174.66466,174.74648,44,95,0
174.93738,175.0192,32,108,0
174.93738,175.0192,44,108,0
175.21011,175.6192,31,122,0
175.21011,175.6192,43,122,0
176.25562,176.44312,47,69,0
176.25562,176.44312,55,69,0
176.75562,176.94312,48,69,0
176.75562,176.94312,55,69,0
177.25562,177.44312,41,69,0
177.25562,177.44312,53,69,0
178.25562,178.44312,42,69,0
178.25562,178.44312,51,69,0
178.75562,178.94312,42,69,0
178.75562,178.94312,51,69,0
179.25562,179.44312,43,69,0
179.25562,179.44312,50,69,0
179.75562,179.88062,35,69,0
179.88062,179.97437,36,69,0
180.00562,180.13062,35,69,0
180.13062,180.22437,36,69,0
180.25562,180.33061,32,69,0
180.50562,180.58061,32,69,0
180.75562,180.83061,32,69,0
181.00562,181.08061,32,77,0
181.25562,181.33061,32,86,0
181.25562,181.33061,44,86,0
181.50562,181.58739,32,95,0
181.50562,181.58739,44,95,0
181.77829,181.8601,32,104,0
181.77829,181.8601,44,104,0
182.05101,182.13283,32,113,0
182.05101,182.13283,44,113,0
182.32375,182.73283,33,122,0
182.32375,182.73283,45,122,0
183.41466,183.6022,57,69,0
183.41466,183.6022,60,69,0
183.9147,184.1022,58,69,0
183.9147,184.1022,61,69,0
184.4147,184.6022,51,69,0
184.4147,184.6022,63,69,0
185.4147,185.6022,53,69,0
185.9147,186.1022,53,69,0
185.9147,186.1022,63,69,0
186.4147,187.23283,46,69,0
186.4147,187.23283,49,69,0
186.4147,187.23283,53,69,0
187.50555,188.32375,45,88,0
187.50555,188.32375,51,88,0
187.50555,188.32375,53,88,0
188.59647,189.41464,46,107,0
188.59647,189.41464,49,107,0
188.59647,189.41464,53,107,0
189.68738,190.19875,41,69,0
189.68738,190.19875,48,69,0
189.68738,190.19875,53,69,0
190.36919,190.47147,57,69,0
190.50555,190.60783,60,69,0
190.64192,190.74419,63,69,0
190.77829,191.32373,61,69,0
190.77829,191.32373,65,69,0
191.32373,191.59647,60,69,0
191.32373,191.59647,63,69,0
191.59647,191.80101,58,69,0
191.59647,191.80101,61,69,0
191.86919,192.45618,56,69,0
191.86919,192.45618,60,69,0
192.65182,192.84747,44,69,0
192.65182,192.84747,56,69,0
192.91269,193.16272,49,69,0
192.91269,193.16272,61,69,0
193.16272,193.41272,46,71,0
193.16272,193.41272,58,71,0
193.41272,193.66272,43,73,0
193.41272,193.66272,55,73,0
193.66272,193.85022,41,74,0
193.66272,193.85022,53,74,0
193.91272,194.47522,40,77,0
193.91272,194.47522,52,77,0
194.66272,194.85022,36,77,0
194.66272,194.85022,48,77,0
194.91272,195.41272,41,77,0
194.91272,195.41272,53,77,0
195.41272,195.66272,37,79,0
195.41272,195.66272,49,79,0
195.66272,195.85022,36,80,0
195.66272,195.85022,48,80,0
195.91272,196.66272,35,81,0
195.91272,196.66272,47,81,0
196.91272,197.41272,36,86,0
196.91272,197.41272,48,86,0
197.41272,197.66272,32,89,0
197.41272,197.66272,44,89,0
197.66272,197.85022,31,90,0
197.66272,197.85022,43,90,0
197.91272,198.66272,30,107,0
197.91272,198.66272,42,107,0
198.91272,199.10022,31,107,0
198.91272,199.10022,43,107,0
199.16272,199.35022,55,69,0
199.16272,199.35022,59,69,0
199.16272,199.35022,62,69,0
199.41272,199.60022,55,69,0
199.41272,199.60022,59,69,0
199.41272,199.60022,62,69,0
199.66272,199.85022,55,69,0
199.66272,199.85022,59,69,0
199.66272,199.85022,62,69,0
199.91272,200.10022,43,69,0
200.16272,200.35022,55,69,0
200.16272,200.35022,59,69,0
200.16272,200.35022,62,69,0
200.41272,200.60022,55,69,0
200.41272,200.60022,59,69,0
200.41272,200.60022,62,69,0
200.66272,200.85022,55,69,0
200.66272,200.85022,59,69,0
200.66272,200.85022,62,69,0
200.91272,201.10022,43,69,0
201.16272,201.35022,55,71,0
201.16272,201.35022,60,71,0
201.16272,201.35022,63,71,0
201.41272,201.60022,55,74,0
201.41272,201.60022,60,74,0
201.41272,201.60022,63,74,0
201.66272,201.85022,55,76,0
201.66272,201.85022,60,76,0
201.66272,201.85022,63,76,0
201.91272,202.10022,43,78,0
202.16272,202.35022,55,80,0
202.16272,202.35022,60,80,0
202.16272,202.35022,63,80,0
202.41272,202.60022,55,83,0
202.41272,202.60022,60,83,0
202.41272,202.60022,63,83,0
202.66272,202.85022,55,85,0
202.66272,202.85022,60,85,0
202.66272,202.85022,63,85,0
202.91272,203.10022,43,88,0
203.16272,203.35022,55,90,0
203.16272,203.35022,62,90,0
203.16272,203.35022,65,90,0
203.41272,203.60022,55,92,0
203.41272,203.60022,62,92,0
203.41272,203.60022,65,92,0
203.66272,203.85022,55,95,0
203.66272,203.85022,62,95,0
203.66272,203.85022,65,95,0
203.91272,204.10022,43,97,0
204.16272,204.35022,55,99,0
204.16272,204.35022,60,99,0
204.16272,204.35022,63,99,0
204.41272,204.60022,55,101,0
204.41272,204.60022,60,101,0
204.41272,204.60022,63,101,0
204.66272,204.85022,55,104,0
204.66272,204.85022,60,104,0
204.66272,204.85022,63,104,0
204.91272,205.10022,43,107,0
205.16272,205.35022,55,107,0
205.16272,205.35022,59,107,0
205.16272,205.35022,62,107,0
205.41272,205.60022,55,107,0
205.41272,205.60022,59,107,0
205.41272,205.60022,62,107,0
205.66272,205.85022,55,107,0
205.66272,205.85022,59,107,0
205.66272,205.85022,62,107,0
205.91272,206.10022,55,107,0
205.91272,206.10022,62,107,0
205.91272,206.10022,65,107,0
208.91272,209.00647,48,69,0
209.03772,209.13147,55,69,0
209.16272,209.25647,51,69,0
209.28772,209.38147,55,69,0
209.41272,209.50647,48,69,0
209.53772,209.63147,55,69,0
209.66272,209.75647,51,69,0
209.78772,209.88147,55,69,0
209.91272,210.00647,48,69,0
210.03772,210.13147,55,69,0
210.16272,210.25647,51,69,0
210.28772,210.38147,55,69,0
210.41272,210.50647,48,69,0
210.53772,210.63147,55,69,0
210.66272,210.75647,51,69,0
210.78772,210.88147,55,69,0
210.91272,211.00647,50,69,0
210.91272,211.00647,53,69,0
211.03772,211.13147,55,69,0
211.16272,211.25647,47,69,0
211.16272,211.25647,50,69,0
211.28772,211.38147,55,71,0
211.41272,211.50647,43,72,0
211.41272,211.50647,47,72,0
211.53772,211.63147,55,74,0
211.66272,211.75647,47,75,0
211.66272,211.75647,50,75,0
211.78772,211.88147,55,77,0
211.91272,212.00647,43,78,0
211.91272,212.00647,47,78,0
212.03772,212.13147,55,80,0
212.16272,212.25647,47,82,0
212.16272,212.25647,50,82,0
212.28772,212.38147,55,83,0
212.41272,212.50647,43,85,0
212.41272,212.50647,47,85,0
212.53772,212.63147,55,86,0
212.66272,212.75647,47,88,0
212.66272,212.75647,50,88,0
212.78772,212.88147,55,89,0
212.91272,213.00647,48,92,0
213.03772,213.13147,55,92,0
213.16272,213.25647,51,69,0
213.28772,213.38147,55,69,0
213.41272,213.50647,48,69,0
213.53772,213.63147,55,69,0
213.66272,213.75647,51,69,0
213.78772,213.88147,55,69,0
213.91272,214.00647,48,69,0
214.03772,214.13147,55,69,0
214.16272,214.25647,51,69,0
214.28772,214.38147,55,69,0
214.41272,214.50647,48,69,0
214.53772,214.63147,55,69,0
214.66272,214.75647,51,69,0
214.78772,214.88147,55,69,0
214.91272,215.00647,50,69,0
214.91272,215.00647,53,69,0
215.03772,215.13147,55,69,0
215.16272,215.25647,47,69,0
215.16272,215.25647,50,69,0
215.28772,215.38147,55,71,0
215.41272,215.50647,43,72,0
215.41272,215.50647,47,72,0
215.53772,215.63147,55,74,0
215.66272,215.75647,47,75,0
215.66272,215.75647,50,75,0
215.78772,215.88147,55,77,0
215.91272,216.00647,43,78,0
215.91272,216.00647,47,78,0
216.03772,216.13147,55,80,0
216.16272,216.25647,47,82,0
216.16272,216.25647,50,82,0
216.28772,216.38147,55,83,0
216.41272,216.50647,43,85,0
216.41272,216.50647,47,85,0
216.53772,216.63147,55,86,0
216.66272,216.75647,47,88,0
216.66272,216.75647,50,88,0
216.78772,216.88147,55,89,0
216.91272,217.00647,48,69,0
217.03772,217.13147,55,69,0
217.16272,217.25647,51,69,0
217.28772,217.38147,55,69,0
217.41272,217.50647,48,69,0
217.53772,217.63147,54,69,0
217.66272,217.75647,44,69,0
217.78772,217.88147,54,69,0
217.91272,218.00647,49,69,0
218.03772,218.13147,56,69,0
218.16272,218.25647,53,69,0
218.28772,218.38147,56,69,0
218.41272,218.50647,49,69,0
218.53772,218.63147,56,69,0
218.66272,218.75647,47,69,0
218.78772,218.88147,56,69,0
218.91272,219.00647,46,69,0
219.03772,219.13147,56,69,0
219.16272,219.25647,47,69,0
219.28772,219.38147,56,69,0
219.41272,219.50647,46,69,0
219.53772,219.63147,56,69,0
219.66272,219.75647,46,69,0
219.78772,219.88147,56,69,0
219.91272,220.00647,51,69,0
220.03772,220.13147,58,69,0
220.16272,220.25647,55,69,0
220.28772,220.38147,58,69,0
220.41272,220.50647,51,69,0
220.53772,220.63147,58,69,0
220.66272,220.75647,49,69,0
220.78772,220.88147,58,69,0
220.91272,221.00647,48,69,0
221.03772,221.13147,58,69,0
221.16272,221.25647,49,69,0
221.28772,221.38147,58,69,0
221.41272,221.50647,48,69,0
221.53772,221.63147,58,69,0
221.66272,221.75647,48,69,0
221.78772,221.88147,58,73,0
221.91272,222.00647,53,77,0
222.03772,222.13147,56,80,0
222.16272,222.25647,53,84,0
222.28772,222.38147,51,88,0
222.41272,222.50647,50,92,0
222.53772,222.63147,60,95,0
222.66272,222.75647,50,99,0
222.78772,222.88147,60,103,0
222.91272,223.00647,55,107,0
223.03772,223.13147,59,107,0
223.16272,223.25647,55,107,0
223.28772,223.38147,59,107,0
223.41272,223.50647,53,107,0
223.53772,223.63147,55,107,0
223.66272,223.75647,53,107,0
223.78772,223.88147,55,107,0
223.91272,224.00647,51,107,0
224.03772,224.13147,55,101,0
224.16272,224.25647,51,97,0
224.28772,224.38147,55,92,0
224.41272,224.50647,41,88,0
224.53772,224.63147,44,83,0
224.66272,224.75647,50,78,0
224.78772,224.88147,53,74,0
224.91272,225.10022,43,69,0
224.91272,225.10022,48,69,0
224.91272,225.10022,51,69,0
224.91272,225.10022,55,69,0
225.91272,226.10022,31,69,0
225.91272,226.10022,43,69,0
226.91272,226.98772,36,69,0
226.91272,226.98772,48,69,0
227.16272,227.23772,39,69,0
227.16272,227.23772,51,69,0
227.41272,227.48772,36,69,0
227.41272,227.48772,48,69,0
227.66272,227.73772,39,69,0
227.66272,227.73772,51,69,0
227.91272,227.98772,36,69,0
227.91272,227.98772,48,69,0
228.16272,228.23772,39,69,0
228.16272,228.23772,51,69,0
228.41272,228.48772,36,69,0
228.41272,228.48772,48,69,0
228.66272,228.73772,39,69,0
228.66272,228.73772,51,69,0
228.91272,228.98772,38,69,0
228.91272,228.98772,50,69,0
229.16272,229.23772,35,107,0
229.16272,229.23772,47,107,0
229.41272,229.48772,31,107,0
229.41272,229.48772,43,107,0
229.66272,229.73772,35,107,0
229.66272,229.73772,47,107,0
229.91272,229.98772,31,107,0
229.91272,229.98772,43,107,0
230.16272,230.23772,35,107,0
230.16272,230.23772,47,107,0
230.41272,230.48772,31,107,0
230.41272,230.48772,43,107,0
230.66272,230.73772,35,107,0
230.66272,230.73772,47,107,0
230.91272,230.98772,36,107,0
230.91272,230.98772,48,107,0
231.16272,231.23772,39,69,0
231.16272,231.23772,51,69,0
231.41272,231.48772,36,69,0
231.41272,231.48772,48,69,0
231.66272,231.73772,39,69,0
231.66272,231.73772,51,69,0
231.91272,231.98772,36,69,0
231.91272,231.98772,48,69,0
232.16272,232.23772,39,69,0
232.16272,232.23772,51,69,0
232.41272,232.48772,36,69,0
232.41272,232.48772,48,69,0
232.66272,232.73772,39,92,0
232.66272,232.73772,51,92,0
232.91272,232.98772,38,92,0
232.91272,232.98772,50,92,0
233.16272,233.25647,46,92,0
233.28772,233.38147,50,92,0
233.41272,233.50647,48,92,0
233.53772,233.63147,51,92,0
233.66272,233.75647,50,92,0
233.78772,233.88147,53,92,0
233.91272,234.00647,51,92,0
234.03772,234.13147,55,92,0
234.16272,234.25647,51,92,0
234.28772,234.38147,55,92,0
234.41272,234.50647,51,92,0
234.53772,234.63147,55,92,0
234.66272,234.75647,51,92,0
234.78772,234.88147,55,92,0
234.91272,235.00647,53,92,0
235.03772,235.13147,56,92,0
235.16272,235.25647,53,92,0
235.28772,235.38147,56,92,0
235.41272,235.50647,53,92,0
235.53772,235.63147,56,92,0
235.66272,235.75647,53,92,0
235.78772,235.88147,56,92,0
235.91272,236.10022,53,92,0
235.91272,236.10022,56,92,0
235.91272,236.10022,59,92,0
235.91272,236.10022,62,92,0
236.41272,236.60022,53,95,0
236.41272,236.60022,56,95,0
236.41272,236.60022,59,95,0
236.41272,236.60022,62,95,0
236.91272,237.10022,54,99,0
236.91272,237.10022,57,99,0
236.91272,237.10022,60,99,0
236.91272,237.10022,63,99,0
237.41272,237.60022,54,103,0
237.41272,237.60022,57,103,0
237.41272,237.60022,60,103,0
237.41272,237.60022,63,103,0
237.91272,238.10022,53,107,0
237.91272,238.10022,55,107,0
237.91272,238.10022,59,107,0
237.91272,238.10022,62,107,0
238.91272,239.10022,51,107,0
238.91272,239.10022,55,107,0
238.91272,239.10022,60,107,0
239.91272,240.10022,41,107,0
239.91272,240.10022,44,107,0
239.91272,240.10022,48,107,0
239.91272,240.10022,53,107,0
240.91272,241.10022,31,107,0
240.91272,241.10022,43,107,0
241.91272,242.10022,36,107,0
241.91272,242.10022,48,107,0
242.16272,242.35022,48,69,0
242.41272,242.60022,48,69,0
242.66272,242.85022,48,69,0
242.91272,243.10022,48,69,0
243.16272,243.35022,48,69,0
243.41272,243.60022,48,69,0
243.66272,243.85022,48,69,0
243.91272,244.10022,48,69,0
244.16272,244.35022,48,69,0
244.41272,244.60022,48,69,0
244.66272,244.85022,48,69,0
244.91272,245.10022,48,69,0
245.16272,245.35022,48,69,0
245.41272,245.60022,48,69,0
245.66272,245.85022,48,69,0
245.91272,246.00647,36,69,0
245.91272,246.00647,48,69,0
246.03772,246.13147,55,69,0
246.16272,246.25647,48,69,0
246.16272,246.25647,51,69,0
246.28772,246.38147,55,69,0
246.41272,246.50647,48,69,0
246.41272,246.50647,51,69,0
246.53772,246.63147,55,69,0
246.66272,246.75647,48,69,0
246.66272,246.75647,51,69,0
246.78772,246.88147,55,69,0
246.91272,247.00647,48,69,0
246.91272,247.00647,51,69,0
247.03772,247.13147,55,69,0
247.16272,247.25647,48,69,0
247.16272,247.25647,51,69,0
247.28772,247.38147,55,69,0
247.41272,247.50647,48,69,0
247.41272,247.50647,51,69,0
247.53772,247.63147,55,69,0
247.66272,247.75647,48,69,0
247.66272,247.75647,51,69,0
247.78772,247.88147,55,69,0
247.91272,248.00647,48,69,0
247.91272,248.00647,50,69,0
247.91272,248.00647,53,69,0
248.03772,248.13147,56,69,0
248.16272,248.25647,48,69,0
248.16272,248.25647,50,69,0
248.16272,248.25647,53,69,0
248.28772,248.38147,55,69,0
248.41272,248.50647,48,69,0
248.41272,248.50647,50,69,0
248.41272,248.50647,53,69,0
248.53772,248.63147,55,69,0
248.66272,248.75647,48,69,0
248.66272,248.75647,50,69,0
248.66272,248.75647,53,69,0
248.78772,248.88147,55,69,0
248.91272,249.00647,48,69,0
248.91272,249.00647,50,69,0
248.91272,249.00647,53,69,0
249.03772,249.13147,55,69,0
249.16272,249.25647,48,69,0
249.16272,249.25647,50,69,0
249.16272,249.25647,53,69,0
249.28772,249.38147,55,69,0
249.41272,249.50647,48,69,0
249.41272,249.50647,50,69,0
249.41272,249.50647,53,69,0
249.53772,249.63147,55,69,0
249.66272,249.75647,48,69,0
249.66272,249.75647,50,69,0
249.66272,249.75647,53,69,0
249.78772,249.88147,55,69,0
250.03772,250.16272,51,65,0
250.16272,250.28772,50,62,0
250.28772,250.41272,51,62,0
250.41272,250.53772,50,62,0
250.53772,250.66272,51,62,0
250.66272,250.78772,50,62,0
249.91272,250.91272,48,69,0
250.78772,250.91272,51,62,0
250.91272,251.03772,49,62,0
251.03772,251.16272,51,62,0
251.16272,251.28772,49,62,0
250.91272,251.41272,46,62,0
251.28772,251.41272,51,62,0
251.41272,251.53772,48,62,0
251.53772,251.66272,51,62,0
251.66272,251.78772,48,62,0
251.41272,251.91272,44,62,0
251.78772,251.91272,51,62,0
251.91272,252.03772,46,62,0
252.03772,252.16272,51,62,0
252.16272,252.28772,46,62,0
252.28772,252.41272,51,62,0
252.41272,252.53772,46,62,0
252.53772,252.66272,51,62,0
252.66272,252.78772,46,62,0
251.91272,252.91272,43,62,0
252.78772,252.91272,51,62,0
252.91272,253.03772,48,62,0
253.03772,253.16272,51,62,0
253.16272,253.28772,48,62,0
253.28772,253.41272,51,62,0
253.41272,253.53772,48,62,0
253.53772,253.66272,51,62,0
253.66272,253.78772,48,62,0
252.91272,253.91272,44,62,0
253.78772,253.91272,51,62,0
253.91272,254.03772,46,62,0
254.03772,254.16272,48,62,0
254.16272,254.28772,46,62,0
254.28772,254.41272,48,62,0
254.41272,254.53772,46,62,0
254.53772,254.66272,48,62,0
254.66272,254.78772,46,62,0
253.91272,254.91272,43,62,0
254.78772,254.91272,48,62,0
254.91272,255.03772,44,62,0
255.03772,255.16272,48,62,0
255.16272,255.28772,44,62,0
255.28772,255.41272,48,62,0
255.41272,255.53772,44,62,0
255.53772,255.66272,48,62,0
255.66272,255.78772,44,62,0
254.91272,255.91272,41,62,0
255.78772,255.91272,48,62,0
255.91272,256.03772,43,62,0
256.03772,256.16272,48,62,0
256.16272,256.28772,43,63,0
256.28772,256.41272,48,64,0
256.41272,256.53772,43,65,0
256.53772,256.66272,48,66,0
256.66272,256.78772,43,67,0
255.91272,256.91272,40,62,0
256.78772,256.91272,48,68,0
256.91272,257.03772,44,69,0
257.03772,257.16272,48,70,0
257.16272,257.28772,44,71,0
257.28772,257.41272,48,71,0
257.41272,257.53772,44,73,0
257.53772,257.66272,48,74,0
257.66272,257.78772,44,74,0
256.91272,257.91272,41,69,0
257.78772,257.91272,48,75,0
257.91272,258.03772,43,77,0
258.03772,258.16272,48,77,0
258.16272,258.28772,43,78,0
258.28772,258.41272,48,79,0
258.41272,258.53772,43,80,0
258.53772,258.66272,48,81,0
258.66272,258.78772,43,82,0
257.91272,258.91272,39,77,0
258.78772,258.91272,48,83,0
258.91272,259.03772,41,84,0
259.03772,259.16272,48,85,0
259.16272,259.28772,41,86,0
259.28772,259.41272,48,86,0
259.41272,259.53772,41,88,0
259.53772,259.66272,48,84,0
259.66272,259.78772,41,81,0
258.91272,259.91272,37,84,0
259.78772,259.91272,48,77,0
259.91272,260.91272,36,74,0
259.91272,260.91272,40,74,0
259.91272,260.91272,48,74,0
264.41272,264.53772,35,69,0
264.53772,264.63147,36,69,0
264.66272,264.78772,35,69,0
264.78772,264.88147,36,69,0
264.91272,264.9877,32,69,0
265.16272,265.2377,32,69,0
265.41272,265.4877,32,69,0
265.66272,265.7377,32,69,0
265.91272,265.9877,32,69,0
265.91272,265.9877,44,69,0
266.16272,266.24448,32,82,0
266.16272,266.24448,44,82,0
266.4354,266.5172,32,95,0
266.4354,266.5172,44,95,0
266.70813,266.78995,32,108,0
266.70813,266.78995,44,108,0
266.98083,267.3559,31,122,0
266.98083,267.3559,43,122,0
267.9809,268.1684,47,69,0
267.9809,268.1684,55,69,0
268.4809,268.6684,48,69,0
268.4809,268.6684,55,69,0
268.9809,269.1684,41,69,0
268.9809,269.1684,53,69,0
269.9809,270.1684,42,69,0
269.9809,270.1684,51,69,0
270.4809,270.6684,42,69,0
270.4809,270.6684,51,69,0
270.9809,271.1684,43,69,0
270.9809,271.1684,50,69,0
271.4809,271.6059,35,69,0
271.6059,271.69965,36,69,0
271.7309,271.8559,35,69,0
271.8559,271.94965,36,69,0
271.9809,272.0559,32,69,0
272.2309,272.3059,32,75,0
272.4809,272.5559,32,82,0
272.4809,272.5559,44,82,0
272.7309,272.8059,32,89,0
272.7309,272.8059,44,89,0
272.9809,273.06265,32,95,0
272.9809,273.06265,44,95,0
273.25357,273.3354,32,101,0
273.25357,273.3354,44,101,0
273.5263,273.60812,32,108,0
273.5263,273.60812,44,108,0
273.79904,273.8847,32,115,0
273.79904,273.8847,44,115,0
274.08472,274.5347,32,122,0
274.08472,274.5347,44,122,0
275.2847,275.50967,48,69,0
275.2847,275.50967,56,69,0
275.88467,276.10968,49,69,0
275.88467,276.10968,56,69,0
276.48468,276.7097,42,69,0
276.48468,276.7097,54,69,0
277.6847,277.9097,32,69,0
277.6847,277.9097,44,69,0
278.2847,278.50967,32,69,0
278.2847,278.50967,44,69,0
278.88467,279.10968,37,69,0
278.88467,279.10968,49,69,0
280.0847,280.3097,50,69,0
280.0847,280.3097,58,69,0
280.6847,280.9097,51,69,0
280.6847,280.9097,58,69,0
281.2847,281.50967,44,69,0
281.2847,281.50967,56,69,0
282.48468,282.7097,34,69,0
282.48468,282.7097,46,69,0
283.0847,283.3097,34,69,0
283.0847,283.3097,46,69,0
283.6847,283.9097,39,69,0
283.6847,283.9097,51,69,0
284.88467,285.10968,49,69,0
284.88467,285.10968,61,69,0
285.48468,285.7097,47,73,0
285.48468,285.7097,59,73,0
286.0847,286.3097,48,77,0
286.0847,286.3097,60,77,0
287.2847,287.50967,44,84,0
287.2847,287.50967,56,84,0
287.88467,288.10968,40,88,0
287.88467,288.10968,52,88,0
288.48468,288.7097,41,92,0
288.48468,288.7097,53,92,0
289.6847,289.9097,44,83,0
289.6847,289.9097,56,83,0
290.88467,291.10968,43,74,0
290.88467,291.10968,55,74,0
292.15952,292.44077,31,66,0
292.15952,292.44077,43,66,0
293.65952,294.10428,36,107,0
293.65952,294.10428,48,107,0
294.10428,294.2154,47,107,0
294.2154,294.3265,48,107,0
294.3265,294.43762,47,107,0
294.43762,294.52097,48,107,0
294.54874,294.9932,44,107,0
294.9932,295.10428,47,107,0
295.10428,295.2154,48,107,0
295.2154,295.3265,47,107,0
295.3265,295.40985,48,107,0
295.43762,295.88208,43,107,0
295.88208,295.9932,47,107,0
295.9932,296.10428,48,107,0
296.10428,296.2154,47,107,0
296.2154,296.29874,48,107,0
296.3265,296.77097,41,107,0
296.77097,296.88208,47,107,0
296.88208,296.99316,48,107,0
296.99316,297.10428,47,107,0
297.10428,297.18762,48,107,0
297.2154,297.38208,39,107,0
297.65985,297.8265,41,107,0
298.10428,298.27097,43,107,0
298.54874,298.7154,31,107,0
298.54874,298.7154,43,107,0
299.43762,299.54874,47,69,0
299.54874,299.65985,48,69,0
299.65985,299.77097,47,69,0
299.77097,299.85428,48,69,0
298.99316,299.88205,36,107,0
300.3265,300.43762,47,69,0
300.43762,300.54874,48,69,0
300.54874,300.65985,47,69,0
300.65985,300.74316,48,69,0
299.88205,300.77097,44,69,0
301.2154,301.3265,47,69,0
301.3265,301.43762,48,69,0
301.43762,301.54874,47,69,0
301.54874,301.63205,48,69,0
300.77097,301.65985,43,69,0
302.10428,302.2154,47,69,0
302.2154,302.3265,48,69,0
302.3265,302.43762,47,69,0
302.43762,302.52097,48,69,0
301.65985,302.54874,41,69,0
302.54874,302.63205,39,69,0
302.65985,302.74316,48,70,0
302.77097,302.85428,47,71,0
302.88205,302.9654,48,71,0
302.99316,303.0765,44,72,0
303.10428,303.18762,48,73,0
303.2154,303.29874,47,74,0
303.3265,303.40985,48,74,0
303.43762,303.52094,43,75,0
303.54874,303.63205,48,76,0
303.65985,303.74316,47,77,0
303.77094,303.85428,48,77,0
303.88205,303.9654,41,78,0
303.99316,304.0765,48,79,0
304.10428,304.18762,47,80,0
304.2154,304.29874,48,80,0
304.3265,304.40985,39,81,0
304.43762,304.52094,48,82,0
304.54874,304.63205,47,83,0
304.65985,304.74316,48,83,0
304.77094,304.85428,44,84,0
304.88205,304.9654,48,85,0
304.99316,305.0765,47,86,0
305.10428,305.18762,48,86,0
305.2154,305.29874,43,88,0
305.3265,305.40985,48,89,0
305.43762,305.52094,47,89,0
305.54874,305.63205,48,90,0
305.65985,305.74316,41,91,0
305.77094,305.85428,48,92,0
305.88205,305.9654,47,92,0
305.99316,306.0765,48,93,0
306.10428,306.18762,39,94,0
306.2154,306.29874,48,95,0
306.3265,306.40985,44,95,0
306.43762,306.52094,48,96,0
306.54874,306.63205,43,97,0
306.65982,306.74316,48,98,0
306.77094,306.85428,41,98,0
306.88205,306.9654,48,99,0
306.99316,307.0765,39,100,0
307.10428,307.18762,48,101,0
307.2154,307.29874,44,101,0
307.3265,307.40982,48,102,0
307.43762,307.52094,43,103,0
307.54874,307.63205,48,104,0
307.65982,307.74316,41,104,0
307.77094,307.85428,48,105,0
307.88205,307.9654,39,107,0
307.99316,308.0765,48,107,0
308.10428,308.18762,44,107,0
308.2154,308.29874,48,107,0
308.3265,308.40982,43,107,0
308.43762,308.52094,48,107,0
308.54874,308.63205,44,107,0
308.65982,308.74316,48,107,0
308.77094,308.85428,43,107,0
308.88205,308.9654,48,107,0
308.99316,309.0765,44,107,0
309.10428,309.18762,48,107,0
309.2154,309.29874,43,107,0
309.3265,309.40982,48,107,0
309.43762,309.52094,44,107,0
309.54874,309.63205,48,107,0
309.65982,309.8265,43,122,0
311.43762,311.60428,31,122,0
311.65982,311.74316,33,122,0
311.77094,311.85428,35,122,0
311.88205,311.9654,36,122,0
311.99316,312.0765,38,122,0
312.10428,312.18762,39,122,0
312.2154,312.2987,41,122,0
312.3265,312.40982,43,122,0
312.43762,312.52094,45,122,0
312.5487,312.63205,47,122,0
312.65982,312.74316,48,122,0
312.77094,312.85428,50,122,0
312.88205,312.9654,51,122,0
312.99316,313.0765,53,122,0
313.10428,313.18762,55,122,0
313.2154,313.38205,48,122,0
315.10428,315.1876,31,69,0
315.2154,315.2987,33,69,0
315.3265,315.40982,35,69,0
315.4376,315.52094,36,69,0
315.5487,315.63205,38,69,0
315.65982,315.74316,39,69,0
315.77094,315.85428,41,69,0
315.88205,315.9654,43,69,0
315.99316,316.0765,42,69,0
316.10428,316.1876,43,69,0
316.2154,316.2987,42,69,0
316.3265,316.40982,43,69,0
316.4376,316.52094,41,69,0
316.5487,316.63205,39,69,0
316.65982,316.74316,38,69,0
316.77094,316.9376,36,107,0
318.99316,319.49316,31,80,0
319.65982,319.74316,33,78,0
319.77094,319.85428,35,83,0
319.88205,319.9654,36,88,0
319.99316,320.07648,38,92,0
320.10428,320.1876,39,97,0
320.21536,320.2987,41,101,0
320.32648,320.82648,43,107,0
320.32648,320.82648,55,107,0
320.99316,321.0598,39,107,0
320.99316,321.0598,51,107,0
321.21536,321.28204,36,107,0
321.21536,321.28204,48,107,0
321.4376,321.50427,38,107,0
321.4376,321.50427,50,107,0
321.65982,321.7265,39,107,0
321.65982,321.7265,51,107,0
321.88205,321.9487,36,107,0
321.88205,321.9487,48,107,0
322.10428,322.17093,38,107,0
322.10428,322.17093,50,107,0
322.32648,322.49316,31,69,0
322.32648,322.49316,43,69,0
322.5487,322.88205,43,80,0
322.5487,322.88205,55,80,0
322.99316,323.32648,43,96,0
322.99316,323.32648,55,96,0
323.4376,323.77094,43,113,0
323.4376,323.77094,55,113,0
323.88205,324.38205,43,127,0
323.88205,324.38205,55,127,0
324.5487,324.71536,39,107,0
324.5487,324.71536,51,107,0
324.77094,324.8376,36,107,0
324.77094,324.8376,48,107,0
324.99316,325.0598,38,107,0
324.99316,325.0598,50,107,0
325.21536,325.28204,39,107,0
325.21536,325.28204,51,107,0
325.4376,325.50427,36,107,0
325.4376,325.50427,48,107,0
325.65982,325.99316,38,69,0
325.65982,325.99316,50,69,0
326.10425,326.4376,31,88,0
326.10425,326.4376,43,88,0
326.5487,327.21536,36,107,0
326.5487,327.21536,48,107,0
327.4376,327.77094,38,69,0
327.4376,327.77094,50,69,0
327.88205,328.21536,31,88,0
327.88205,328.21536,43,88,0
328.32648,328.99313,36,107,0
328.32648,328.99313,48,107,0
329.21536,329.28204,38,69,0
329.21536,329.28204,50,69,0
329.4376,329.50427,31,74,0
329.4376,329.50427,43,74,0
329.65982,329.72647,36,80,0
329.65982,329.72647,48,80,0
329.88205,329.9487,31,86,0
329.88205,329.9487,43,86,0
330.10425,330.17093,38,92,0
330.10425,330.17093,50,92,0
330.32648,330.39316,31,98,0
330.32648,330.39316,43,98,0
330.5487,330.61536,36,104,0
330.5487,330.61536,48,104,0
330.77094,330.8376,31,110,0
330.77094,330.8376,43,110,0
330.99313,331.0598,38,116,0
330.99313,331.0598,50,116,0
331.21536,331.28204,31,122,0
331.21536,331.28204,43,122,0
331.4376,331.50424,31,122,0
331.4376,331.50424,43,122,0
331.65982,331.72647,31,122,0
331.65982,331.72647,43,122,0
331.88202,331.9487,31,122,0
331.88202,331.9487,43,122,0
332.10425,332.17093,31,122,0
332.10425,332.17093,43,122,0
332.32648,332.39316,31,122,0
332.32648,332.39316,43,122,0
332.5487,332.61536,31,122,0
332.5487,332.61536,43,122,0
332.77094,332.95837,36,122,0
332.77094,332.95837,48,122,0
333.77087,334.1799,36,122,0
333.77087,334.1799,39,122,0
333.77087,334.1799,43,122,0
333.77087,334.1799,48,122,0
334.86172,335.2708,36,122,0
334.86172,335.2708,39,122,0
334.86172,335.2708,43,122,0
334.86172,335.2708,48,122,0
2.500521,2.5755208,66,69,0
2.500521,2.5755208,72,69,0
2.750521,2.8255208,66,82,0
2.750521,2.8255208,72,82,0
3.000521,3.0822916,66,95,0
3.000521,3.0822916,72,95,0
3.2732005,3.3641095,75,108,0
3.3641095,3.4550185,74,113,0
3.2732005,3.4777458,66,108,0
3.4550185,3.5232003,72,117,0
3.5459275,3.955018,67,122,0
3.5459275,3.955018,71,122,0
3.5459275,3.955018,74,122,0
3.5459275,3.955018,79,122,0
4.5914288,4.7789288,62,69,0
4.5914288,4.7789288,65,69,0
5.0914288,5.2789288,60,69,0
5.0914288,5.2789288,63,69,0
5.5914288,5.7789288,56,69,0
5.5914288,5.7789288,62,69,0
6.5914288,6.7789288,57,69,0
6.5914288,6.7789288,60,69,0
7.0914288,7.2789288,57,69,0
7.0914288,7.2789288,60,69,0
7.5914288,7.7789288,55,69,0
7.5914288,7.7789288,59,69,0
9.591429,9.666429,60,69,0
9.591429,9.666429,66,69,0
9.841429,9.9232,60,82,0
9.841429,9.9232,66,82,0
10.114108,10.195927,60,95,0
10.114108,10.195927,66,95,0
10.386835,10.468654,60,108,0
10.386835,10.468654,66,108,0
10.659562,11.068653,59,122,0
10.659562,11.068653,62,122,0
10.659562,11.068653,67,122,0
11.705064,11.892564,62,69,0
11.705064,11.892564,65,69,0
12.205064,12.392564,60,69,0
12.205064,12.392564,63,69,0
12.705064,12.892564,56,69,0
12.705064,12.892564,62,69,0
13.705064,13.955064,55,69,0
13.705064,13.955064,60,69,0
13.955064,14.080064,56,69,0
14.080064,14.173814,55,69,0
14.205064,14.455064,55,69,0
14.205064,14.455064,59,69,0
14.455064,14.580064,56,69,0
14.580064,14.673814,55,69,0
14.705064,14.892564,51,69,0
14.705064,14.892564,55,69,0
14.705064,14.892564,60,69,0
15.513142,15.722443,67,69,0
15.792211,16.350348,72,69,0
16.350348,16.629417,74,74,0
16.629417,16.838718,75,77,0
16.908485,17.32709,74,80,0
17.32709,17.466625,72,84,0
17.466625,17.675926,74,86,0
17.745693,17.954994,67,89,0
18.024763,18.09453,67,92,0
18.09453,18.582901,75,91,0
18.582901,18.861969,74,86,0
18.861969,19.071272,72,83,0
19.141039,19.280573,71,80,0
19.280573,19.420107,72,79,0
19.420107,19.55964,74,77,0
19.55964,19.664293,71,76,0
19.699177,19.908478,67,74,0
20.257315,20.327082,79,69,0
20.327082,20.396849,80,69,0
20.396849,20.466616,79,70,0
20.466616,20.536383,80,71,0
20.536383,20.60615,79,67,0
20.60615,20.675919,80,67,0
20.675919,20.745686,79,68,0
20.745686,20.815453,80,68,0
20.815453,20.88522,79,64,0
20.88522,20.954987,80,64,0
20.954987,21.024754,79,65,0
21.024754,21.09452,80,65,0
21.09452,21.16429,79,60,0
21.16429,21.234056,80,60,0
21.234056,21.303823,79,61,0
21.303823,21.37359,80,62,0
21.37359,21.443357,79,62,0
21.443357,21.513124,80,62,0
21.513124,21.582891,79,62,0
21.582891,21.652658,80,63,0
21.652658,21.722427,79,63,0
21.722427,21.792194,80,64,0
21.792194,21.861961,79,65,0
21.861961,21.931728,80,65,0
21.931728,22.001495,79,65,0
22.001495,22.071262,80,65,0
22.071262,22.14103,79,66,0
22.14103,22.210796,80,67,0
22.210796,22.280565,79,67,0
22.280565,22.350332,80,68,0
22.350332,22.4201,79,68,0
22.4201,22.489866,80,68,0
22.489866,22.559633,79,69,0
22.559633,22.6294,80,68,0
22.6294,22.699167,79,67,0
22.699167,22.768936,80,66,0
22.768936,22.838703,79,65,0
22.838703,22.90847,80,65,0
22.90847,22.978237,79,63,0
22.978237,23.048004,80,62,0
23.048004,23.117771,79,62,0
23.117771,23.187538,80,61,0
23.187538,23.23405,79,60,0
23.23405,23.280561,78,59,0
23.280561,23.327074,79,59,0
23.327074,23.466608,84,74,0
23.466608,23.606142,77,71,0
23.606142,23.815445,79,69,0
25.164341,25.239342,60,69,0
25.164341,25.239342,72,69,0
25.414341,25.489342,60,77,0
25.414341,25.489342,72,77,0
25.664341,25.739342,60,86,0
25.664341,25.739342,63,86,0
25.664341,25.739342,68,86,0
25.664341,25.739342,72,86,0
25.914341,25.99611,60,95,0
25.914341,25.99611,63,95,0
25.914341,25.99611,68,95,0
25.914341,25.99611,72,95,0
26.187021,26.268839,60,104,0
26.187021,26.268839,63,104,0
26.187021,26.268839,68,104,0
26.187021,26.268839,72,104,0
26.459747,26.550657,75,113,0
26.550657,26.641565,74,116,0
26.641565,26.709747,72,119,0
26.732475,27.141565,68,122,0
26.732475,27.141565,70,122,0
26.732475,27.141565,74,122,0
26.732475,27.141565,80,122,0
27.823383,28.01093,62,69,0
27.823383,28.01093,68,69,0
28.32343,28.51093,63,69,0
28.32343,28.51093,67,69,0
28.82343,29.01093,60,69,0
28.82343,29.01093,65,69,0
29.82343,30.01093,60,69,0
29.82343,30.01093,63,69,0
30.32343,30.51093,60,69,0
30.32343,30.51093,63,69,0
30.82343,30.91718,58,107,0
30.82343,30.91718,62,107,0
30.94843,31.07343,74,69,0
31.07343,31.19843,75,69,0
31.19843,31.32343,74,69,0
31.32343,31.44843,75,69,0
31.44843,31.57343,74,69,0
31.57343,31.69843,72,69,0
31.69843,31.79218,70,69,0
31.94843,32.07343,58,69,0
32.07343,32.19843,57,69,0
32.19843,32.32343,58,69,0
32.32343,32.44843,57,69,0
32.44843,32.57343,58,69,0
32.57343,32.69843,60,69,0
32.69843,32.79218,62,69,0
32.94843,33.07343,75,70,0
33.07343,33.19843,77,71,0
33.19843,33.32343,75,72,0
33.32343,33.44843,77,74,0
33.44843,33.57343,75,74,0
33.57343,33.69843,74,76,0
33.69843,33.79218,72,77,0
33.94843,34.07343,60,80,0
34.07343,34.19843,59,80,0
34.19843,34.32343,60,82,0
34.32343,34.44843,59,83,0
34.44843,34.57343,60,84,0
34.57343,34.69843,62,85,0
34.69843,34.79218,63,86,0
34.94843,35.07343,77,89,0
35.07343,35.19843,79,90,0
35.19843,35.32343,77,91,0
35.32343,35.44843,79,92,0
35.44843,35.57343,77,93,0
35.57343,35.69843,75,95,0
35.69843,35.79218,74,95,0
35.94843,36.07343,79,98,0
36.07343,36.19843,80,99,0
36.19843,36.32343,79,101,0
36.32343,36.44843,80,101,0
36.44843,36.57343,79,103,0
36.57343,36.69843,77,104,0
36.69843,36.79218,75,105,0
36.94843,37.07343,80,107,0
37.07343,37.19843,82,107,0
37.19843,37.32343,80,107,0
37.32343,37.44843,82,107,0
37.44843,37.57343,80,107,0
37.57343,37.69843,79,107,0
37.69843,37.82343,77,107,0
37.82343,37.94843,76,107,0
37.94843,38.07343,77,107,0
38.07343,38.19843,79,107,0
38.19843,38.32343,80,107,0
38.32343,38.44843,79,107,0
38.44843,38.57343,77,107,0
38.57343,38.69843,75,107,0
38.69843,38.82343,74,107,0
38.82343,38.94843,73,107,0
38.94843,39.07343,74,107,0
39.07343,39.19843,79,107,0
39.19843,39.32343,77,107,0
39.32343,39.44843,75,107,0
39.44843,39.57343,74,103,0
39.57343,39.69843,72,100,0
39.69843,39.82343,70,97,0
39.82343,39.94843,69,94,0
39.94843,40.07343,70,91,0
40.07343,40.19843,72,88,0
40.19843,40.32343,68,84,0
40.32343,40.44843,66,81,0
40.44843,40.57343,67,78,0
40.57343,40.69843,68,75,0
40.69843,40.82343,65,72,0
40.82343,40.91718,63,69,0
43.07343,43.14843,82,69,0
43.32343,43.39843,82,72,0
43.57343,43.64843,82,75,0
43.82343,43.89843,82,78,0
44.07343,44.14843,82,82,0
44.32343,44.39843,82,85,0
44.57343,44.615097,82,88,0
44.615097,44.656765,84,89,0
44.656765,44.69843,82,89,0
44.69843,44.76093,81,89,0
44.76093,44.82343,82,90,0
44.82343,45.01093,79,92,0
47.07343,47.14843,82,69,0
47.32343,47.39843,82,72,0
47.57343,47.64843,82,75,0
47.82343,47.89843,82,78,0
48.07343,48.14843,82,82,0
48.32343,48.39843,82,85,0
48.57343,48.615097,82,88,0
48.615097,48.656765,84,89,0
48.656765,48.69843,82,89,0
48.69843,48.76093,81,89,0
48.76093,48.82343,82,90,0
48.82343,49.01093,79,92,0
50.07343,50.32343,82,69,0
50.32343,50.57343,79,69,0
50.57343,50.82343,88,69,0
50.82343,51.57343,89,80,0
52.07343,52.14843,72,69,0
52.32343,52.39843,69,69,0
52.57343,52.64843,72,69,0
52.57343,52.64843,84,69,0
52.82343,52.89843,70,80,0
52.82343,52.89843,82,80,0
53.57343,53.64843,70,83,0
53.57343,53.64843,82,83,0
53.82343,53.89843,63,104,0
53.82343,53.89843,75,104,0
54.07343,54.14843,72,92,0
54.07343,54.14843,84,92,0
54.57343,54.64843,72,101,0
54.57343,54.64843,84,101,0
54.82343,54.91718,65,107,0
54.82343,54.91718,77,107,0
54.94843,55.07343,86,107,0
55.07343,55.19843,77,107,0
55.19843,55.29218,86,107,0
55.44843,55.57343,86,107,0
55.57343,55.69843,77,107,0
55.69843,55.79218,86,107,0
55.94843,56.07343,87,103,0
56.07343,56.19843,75,99,0
56.19843,56.29218,87,95,0
56.44843,56.57343,84,88,0
56.57343,56.69843,72,84,0
56.69843,56.79218,80,80,0
56.82343,56.91718,79,77,0
56.94843,57.04218,82,77,0
57.07343,57.16718,79,77,0
57.19843,57.29218,75,77,0
57.32343,57.41718,70,77,0
57.44843,57.54218,67,77,0
57.57343,57.66718,63,77,0
57.69843,57.79218,58,77,0
57.94843,58.04218,82,77,0
58.07343,58.16718,77,77,0
58.19843,58.29218,74,77,0
58.32343,58.41718,70,77,0
58.44843,58.54218,65,77,0
58.57343,58.66718,62,77,0
58.69843,58.79218,58,77,0
58.94843,59.04218,58,77,0
59.19843,59.29218,58,77,0
59.44843,59.54218,58,77,0
59.69843,59.79218,58,77,0
59.94843,60.04218,58,77,0
60.19843,60.29218,58,77,0
60.44843,60.54218,58,77,0
60.69843,60.79218,58,77,0
60.94843,61.04218,58,77,0
61.19843,61.29218,70,107,0
61.19843,61.29218,82,107,0
61.44843,61.54218,70,107,0
61.44843,61.54218,82,107,0
61.69843,61.79218,70,107,0
61.69843,61.79218,82,107,0
61.94843,62.04218,70,107,0
61.94843,62.04218,82,107,0
62.19843,62.29218,70,107,0
62.19843,62.29218,82,107,0
62.44843,62.54218,70,107,0
62.44843,62.54218,82,107,0
62.57343,62.615097,82,107,0
62.615097,62.656765,84,107,0
62.656765,62.69843,82,107,0
62.69843,62.76093,81,107,0
62.76093,62.82343,82,107,0
62.82343,63.01093,78,107,0
63.19843,63.29218,58,69,0
63.44843,63.54218,58,69,0
63.69843,63.79218,58,69,0
63.94843,64.04218,58,69,0
64.19843,64.29218,58,69,0
64.44843,64.54218,58,69,0
64.69843,64.79218,58,92,0
64.82343,64.91718,56,92,0
64.94843,65.04218,61,92,0
66.07343,66.14843,73,92,0
66.32343,66.39843,70,92,0
66.57343,66.64843,78,109,0
66.82343,67.38593,76,92,0
67.57343,67.6151,75,92,0
67.6151,67.65676,76,92,0
67.65676,67.69843,75,92,0
67.69843,67.76093,73,92,0
67.76093,67.82343,75,92,0
67.82343,67.94843,74,92,0
67.94843,68.07343,86,92,0
68.07343,68.19843,77,93,0
68.19843,68.32343,86,94,0
68.44843,68.57343,86,96,0
68.57343,68.69843,77,97,0
68.69843,68.82343,86,98,0
68.94843,69.07343,87,100,0
69.07343,69.19843,78,101,0
69.19843,69.32343,87,101,0
69.44843,69.57343,87,104,0
69.57343,69.69843,78,104,0
69.69843,69.82343,87,105,0
69.94843,70.04218,86,107,0
70.07343,70.16718,82,107,0
70.19843,70.29218,77,107,0
70.32343,70.41718,74,107,0
70.44843,70.54218,70,107,0
70.57343,70.66718,65,107,0
70.69843,70.79218,62,107,0
70.94843,71.04218,87,107,0
71.07343,71.16718,82,107,0
71.19843,71.29218,79,107,0
71.32343,71.41718,75,107,0
71.44843,71.54218,70,107,0
71.57343,71.66718,67,107,0
71.69843,71.79218,63,107,0
71.94843,72.04218,84,107,0
72.07343,72.16718,80,107,0
72.19843,72.29218,75,107,0
72.32343,72.41718,72,107,0
72.44843,72.54218,68,107,0
72.57343,72.66718,63,107,0
72.69843,72.79218,60,107,0
72.94843,73.04218,80,107,0
73.07343,73.16718,77,107,0
73.19843,73.29218,74,107,0
73.32343,73.41718,68,107,0
73.44843,73.54218,65,107,0
73.57343,73.66718,62,107,0
73.69843,73.79218,56,107,0
73.82343,73.91718,55,107,0
73.94843,74.04218,63,107,0
74.07343,74.16718,55,88,0
74.07343,74.16718,58,88,0
74.19843,74.29218,63,69,0
74.32343,74.41718,55,69,0
74.32343,74.41718,58,69,0
74.44843,74.54218,63,69,0
74.57343,74.66718,55,69,0
74.57343,74.66718,58,69,0
74.69843,74.79218,63,69,0
74.82343,74.91718,55,69,0
74.82343,74.91718,58,69,0
74.94843,75.04218,63,69,0
75.07343,75.16718,55,69,0
75.07343,75.16718,58,69,0
75.19843,75.29218,63,69,0
75.32343,75.41718,55,69,0
75.32343,75.41718,58,69,0
75.44843,75.54218,63,69,0
75.57343,75.66718,55,69,0
75.57343,75.66718,58,69,0
75.69843,75.79218,63,69,0
75.82343,75.91718,53,89,0
75.82343,75.91718,56,89,0
75.82343,75.91718,59,89,0
75.94843,76.04218,62,77,0
76.07343,76.16718,53,77,0
76.07343,76.16718,56,77,0
76.07343,76.16718,58,77,0
76.19843,76.29218,62,77,0
76.32343,76.41718,53,77,0
76.32343,76.41718,56,77,0
76.32343,76.41718,58,77,0
76.44843,76.54218,62,77,0
76.57343,76.66718,53,77,0
76.57343,76.66718,56,77,0
76.57343,76.66718,58,77,0
76.69843,76.79218,62,77,0
76.82343,76.91718,53,77,0
76.82343,76.91718,56,77,0
76.82343,76.91718,58,77,0
76.94843,77.04218,62,77,0
77.07343,77.16718,53,77,0
77.07343,77.16718,56,77,0
77.07343,77.16718,58,77,0
77.19843,77.29218,62,77,0
77.32343,77.41718,53,77,0
77.32343,77.41718,56,77,0
77.32343,77.41718,58,77,0
77.44843,77.54218,62,77,0
77.57343,77.66718,53,77,0
77.57343,77.66718,56,77,0
77.57343,77.66718,58,77,0
77.69843,77.79218,62,77,0
77.82343,77.86093,51,77,0
77.82343,77.86093,55,77,0
77.82343,77.86093,58,77,0
77.82343,77.86093,63,77,0
77.94843,78.07343,70,77,0
78.07343,78.19843,72,77,0
78.19843,78.32343,74,77,0
78.32343,78.44843,75,77,0
78.44843,78.57343,74,77,0
78.57343,78.69843,75,77,0
78.69843,78.79218,77,77,0
78.82343,79.57343,79,69,0
79.57343,79.69843,77,69,0
79.69843,79.79218,75,69,0
79.82343,79.94843,74,89,0
79.94843,80.07343,75,77,0
80.07343,80.19843,77,77,0
80.19843,80.32343,79,77,0
80.32343,80.44843,80,77,0
80.44843,80.57343,82,77,0
80.57343,80.69843,84,77,0
80.69843,80.82343,82,77,0
80.82343,80.94843,80,77,0
80.94843,81.07343,79,77,0
81.07343,81.19843,77,77,0
81.19843,81.32343,75,77,0
81.32343,81.44843,74,77,0
81.44843,81.57343,72,77,0
81.57343,81.69843,74,77,0
81.69843,81.82343,70,77,0
81.82343,82.01093,75,62,0
84.32343,84.44843,78,62,0
84.44843,84.54218,79,62,0
84.57343,84.69843,78,62,0
84.69843,84.79218,79,62,0
85.32343,85.44843,78,62,0
85.44843,85.54218,79,62,0
85.57343,85.69843,78,62,0
85.69843,85.79218,79,62,0
86.32343,86.44843,78,62,0
86.44843,86.54218,79,63,0
86.57343,86.69843,78,65,0
86.69843,86.79218,79,66,0
87.32343,87.44843,78,74,0
87.44843,87.54218,79,76,0
87.57343,87.69843,78,77,0
87.69843,87.79218,79,79,0
88.32343,88.44843,78,87,0
88.44843,88.54218,79,89,0
88.57343,88.69843,78,90,0
88.69843,88.79218,79,92,0
89.32343,89.44843,78,100,0
89.44843,89.54218,79,90,0
89.57343,89.69843,78,80,0
89.69843,89.79218,79,71,0
90.32343,90.44843,78,62,0
90.44843,90.54218,79,62,0
90.57343,90.69843,78,62,0
90.69843,90.79218,79,62,0
90.82343,91.01093,67,62,0
91.07343,91.26093,67,62,0
92.32343,92.44843,78,62,0
92.44843,92.54218,79,62,0
92.57343,92.69843,78,62,0
92.69843,92.79218,79,62,0
92.82343,93.01093,67,62,0
93.07343,93.26093,67,62,0
93.32343,93.44843,66,62,0
93.44843,93.54218,67,62,0
93.57343,93.69843,66,62,0
93.69843,93.79218,67,62,0
93.82343,94.01093,55,62,0
94.07343,94.26093,55,62,0
95.82343,95.89843,66,69,0
95.82343,95.89843,72,69,0
96.07343,96.1552,66,82,0
96.07343,96.1552,72,82,0
96.34611,96.427925,66,95,0
96.34611,96.427925,72,95,0
96.618835,96.70975,75,108,0
96.70975,96.80065,74,113,0
96.618835,96.82338,66,108,0
96.80065,96.868835,72,117,0
96.89156,97.30065,67,122,0
96.89156,97.30065,71,122,0
96.89156,97.30065,74,122,0
96.89156,97.30065,79,122,0
97.982475,98.17002,62,69,0
97.982475,98.17002,65,69,0
98.48252,98.67002,60,69,0
98.48252,98.67002,63,69,0
98.98252,99.17002,56,69,0
98.98252,99.17002,62,69,0
99.98252,100.17002,57,69,0
99.98252,100.17002,60,69,0
100.48252,100.67002,57,69,0
100.48252,100.67002,60,69,0
100.98252,101.17002,55,69,0
100.98252,101.17002,59,69,0
102.98252,103.05752,60,69,0
102.98252,103.05752,66,69,0
103.23252,103.31429,60,82,0
103.23252,103.31429,66,82,0
103.505196,103.58701,60,95,0
103.505196,103.58701,66,95,0
103.77792,103.85974,60,108,0
103.77792,103.85974,66,108,0
104.05065,104.45974,59,122,0
104.05065,104.45974,62,122,0
104.05065,104.45974,67,122,0
105.14156,105.32911,62,69,0
105.14156,105.32911,65,69,0
105.64161,105.82911,60,69,0
105.64161,105.82911,63,69,0
106.14161,106.32911,56,69,0
106.14161,106.32911,62,69,0
107.14161,107.39161,55,69,0
107.14161,107.39161,60,69,0
107.39161,107.51661,56,69,0
107.51661,107.61036,55,69,0
107.64161,107.89161,55,69,0
107.64161,107.89161,59,69,0
107.89161,108.01661,56,69,0
108.01661,108.11036,55,69,0
108.14161,108.32911,51,69,0
108.14161,108.32911,55,69,0
108.14161,108.32911,60,69,0
109.20974,110.02792,60,69,0
109.20974,110.02792,64,69,0
109.20974,110.02792,67,69,0
110.30065,111.11883,62,69,0
110.30065,111.11883,65,69,0
110.30065,111.11883,67,69,0
111.391556,111.80065,60,77,0
111.391556,111.80065,64,77,0
111.391556,111.80065,67,77,0
111.93701,112.3461,60,73,0
111.93701,112.3461,66,73,0
112.48247,112.68701,59,69,0
112.48247,112.68701,67,69,0
113.300644,113.50519,67,69,0
113.57337,114.11883,72,69,0
114.11883,114.391556,74,74,0
114.391556,114.5961,76,77,0
114.66428,115.07337,74,80,0
115.07337,115.20973,72,84,0
115.20973,115.29156,74,86,0
115.48246,115.687004,67,89,0
115.75519,115.78928,67,92,0
115.78928,116.300644,76,109,0
116.300644,116.57337,74,92,0
116.57337,116.777916,72,80,0
116.8461,116.98246,71,69,0
116.98246,117.11883,72,69,0
117.11883,117.25519,74,69,0
117.25519,117.35746,71,69,0
117.39155,117.5961,67,69,0
118.75519,118.837006,81,69,0
119.027916,119.10973,81,69,0
119.300644,119.38246,81,69,0
119.573364,119.675644,81,69,0
119.70973,119.812004,80,69,0
119.84609,119.948364,81,69,0
119.98246,120.08473,77,69,0
120.11882,120.73246,79,69,0
120.937004,121.01882,79,69,0
121.20973,121.29155,79,69,0
121.48246,121.56428,79,69,0
121.75518,121.89155,79,69,0
121.89155,122.02791,78,69,0
122.02791,122.164276,79,69,0
122.164276,122.26655,76,69,0
122.30064,122.50518,79,70,0
124.48245,124.687,59,69,0
124.75518,124.959724,55,69,0
124.75518,124.959724,62,69,0
124.75518,124.959724,65,69,0
125.02791,125.23245,55,69,0
125.02791,125.23245,62,69,0
125.02791,125.23245,65,69,0
125.30064,125.50518,55,69,0
125.30064,125.50518,62,69,0
125.30064,125.50518,65,69,0
125.573364,125.77791,55,69,0
125.573364,125.77791,60,69,0
125.573364,125.77791,64,69,0
126.39154,126.47336,79,69,0
126.66427,126.746086,79,69,0
126.937,127.018814,79,69,0
127.209724,127.346085,79,69,0
127.346085,127.48245,78,69,0
127.48245,127.61881,79,69,0
127.61881,127.721085,76,69,0
127.75518,128.02791,76,69,0
128.02791,128.23245,77,69,0
128.30063,128.38245,74,69,0
128.57336,128.70972,74,69,0
128.70972,128.812,76,69,0
128.84608,128.9279,77,69,0
129.1188,129.20064,77,69,0
129.39154,129.52791,77,69,0
129.52791,129.66426,76,69,0
129.66426,129.80063,77,69,0
129.80063,129.90291,74,69,0
129.937,130.20972,75,69,0
130.20972,130.41426,76,69,0
130.48245,130.56427,72,69,0
130.75517,130.83699,72,69,0
131.02791,131.09608,72,69,0
131.09608,131.16426,74,70,0
131.16426,131.23245,72,71,0
131.23245,131.30063,74,71,0
131.30063,131.3688,72,73,0
131.3688,131.437,74,74,0
131.437,131.48245,72,74,0
131.48245,131.52791,71,75,0
131.52791,131.57335,72,76,0
131.57335,131.84608,74,77,0
131.84608,132.05063,76,80,0
132.1188,132.39154,76,84,0
132.39154,132.66426,69,88,0
132.66426,133.48244,74,109,0
133.48244,133.6188,72,69,0
133.6188,133.72108,71,69,0
133.75517,133.95972,69,69,0
134.0279,134.10971,71,69,0
134.30063,134.4029,72,69,0
134.437,134.53926,64,74,0
134.57335,134.67563,65,78,0
134.70972,134.81198,67,83,0
134.84608,134.94835,69,88,0
134.98244,135.08472,71,92,0
135.1188,135.22108,72,97,0
135.25517,135.35744,74,101,0
135.39154,135.45972,76,107,0
135.45972,135.5279,77,107,0
135.5279,135.59608,76,107,0
135.59608,135.66426,77,107,0
135.66426,135.73244,76,107,0
135.73244,135.80063,77,107,0
135.80063,135.84608,76,107,0
135.84608,135.89154,74,107,0
135.89154,135.93698,76,107,0
135.93698,136.20972,77,107,0
136.20972,136.41426,79,107,0
136.48244,136.75517,79,107,0
136.75517,137.0279,72,107,0
137.0279,137.84607,77,127,0
137.84607,137.98244,76,107,0
137.98244,138.08472,74,107,0
138.1188,138.20062,72,107,0
138.39153,138.47334,74,107,0
138.66426,138.75806,75,107,0
138.7893,138.88306,67,97,0
138.9143,139.00806,68,88,0
139.0393,139.13306,67,78,0
139.1643,139.25806,65,69,0
139.2893,139.38306,63,69,0
139.4143,139.50806,62,69,0
139.5393,139.63306,60,69,0
139.6643,139.75806,59,69,0
139.7893,139.88306,60,69,0
139.9143,140.00806,59,69,0
140.0393,140.13306,57,69,0
140.1643,140.25806,59,69,0
140.2893,140.38306,55,69,0
140.4143,140.50806,57,69,0
140.5393,140.63306,59,69,0
140.6643,140.75806,60,69,0
140.7893,140.88306,55,69,0
140.9143,141.00806,60,69,0
141.0393,141.13306,55,69,0
141.1643,141.25806,58,69,0
141.2893,141.38306,55,69,0
141.4143,141.50806,60,69,0
141.5393,141.63306,63,69,0
141.6643,141.75806,62,69,0
141.7893,141.88306,55,69,0
141.9143,142.00806,66,69,0
142.0393,142.13306,69,69,0
142.1643,142.25806,70,69,0
142.2893,142.38306,62,69,0
142.4143,142.50806,69,69,0
142.5393,142.63306,72,69,0
142.6643,142.8518,70,69,0
143.1643,143.2893,78,69,0
143.2893,143.38306,79,69,0
143.4143,143.5393,78,69,0
143.5393,143.63306,79,69,0
144.1643,144.2893,73,69,0
144.2893,144.38306,74,69,0
144.4143,144.5393,73,69,0
144.5393,144.63306,74,69,0
145.1643,145.2893,79,69,0
145.2893,145.38306,80,69,0
145.4143,145.5393,79,69,0
145.5393,145.63306,80,69,0
145.9143,146.0393,81,78,0
146.0393,146.13306,83,83,0
146.1643,146.2893,83,88,0
146.2893,146.38306,84,92,0
146.4143,146.4893,67,97,0
146.4143,146.4893,79,97,0
146.6643,147.0393,72,107,0
146.6643,147.0393,84,107,0
147.1643,147.2393,74,107,0
147.1643,147.2393,86,107,0
147.4143,147.4893,76,107,0
147.4143,147.4893,88,107,0
147.6643,147.77681,74,107,0
147.6643,147.77681,86,107,0
148.0393,148.0768,72,107,0
148.0393,148.0768,84,107,0
148.1643,148.2393,74,107,0
148.1643,148.2393,86,107,0
148.4143,148.4893,67,107,0
148.4143,148.4893,79,107,0
148.6643,148.75806,76,107,0
148.6643,148.75806,88,107,0
148.7893,148.88306,79,107,0
148.9143,149.00806,80,107,0
149.0393,149.13306,79,107,0
149.1643,149.25806,77,107,0
149.2893,149.38306,75,107,0
149.4143,149.50806,74,107,0
149.5393,149.63306,72,107,0
149.6643,149.75806,71,107,0
149.7893,149.88306,72,107,0
149.9143,150.00806,71,107,0
150.0393,150.13306,69,107,0
150.1643,150.25806,71,107,0
150.2893,150.38306,72,107,0
150.4143,150.50806,74,107,0
150.5393,150.63306,75,107,0
150.6643,150.75806,77,107,0
150.7893,150.88306,75,107,0
150.9143,151.00806,74,107,0
151.0393,151.13306,72,107,0
151.1643,151.25806,71,107,0
151.2893,151.38306,77,107,0
151.4143,151.50806,74,107,0
151.5393,151.63306,80,107,0
151.6643,151.75806,79,107,0
151.7893,151.88306,84,107,0
151.9143,152.00806,77,107,0
152.0393,152.13306,83,107,0
152.1643,152.25806,84,107,0
152.2893,152.38306,79,107,0
152.4143,152.50806,75,107,0
152.5393,152.63306,72,107,0
152.6643,153.0393,73,127,0
152.6643,153.0393,85,127,0
153.1643,153.2393,72,107,0
153.1643,153.2393,84,107,0
153.4143,153.4893,70,107,0
153.4143,153.4893,82,107,0
153.6643,153.7393,68,107,0
153.6643,153.7393,80,107,0
153.9143,153.9893,67,107,0
153.9143,153.9893,79,107,0
154.1643,154.7893,65,107,0
154.1643,154.7893,77,107,0
154.7893,154.88306,84,122,0
154.9143,155.00806,80,122,0
155.0393,155.13306,77,122,0
155.1643,155.25806,72,122,0
155.2893,155.38306,68,122,0
155.4143,155.50806,67,122,0
155.5393,155.63306,65,122,0
155.6643,155.8518,64,127,0
156.7893,156.88306,85,122,0
156.9143,157.00806,82,122,0
157.0393,157.13306,79,122,0
157.1643,157.25806,73,122,0
157.2893,157.38306,70,122,0
157.4143,157.50806,69,122,0
157.5393,157.63306,67,122,0
157.6643,157.8518,66,127,0
158.7893,158.88306,87,122,0
158.9143,159.00806,84,122,0
159.0393,159.13306,81,122,0
159.1643,159.25806,78,122,0
159.2893,159.38306,75,122,0
159.4143,159.50806,74,122,0
159.5393,159.63306,72,122,0
159.7893,159.88306,80,122,0
159.9143,160.00806,77,122,0
160.0393,160.13306,74,122,0
160.1643,160.25806,71,122,0
160.2893,160.38306,68,122,0
160.4143,160.50806,67,122,0
160.5393,160.63306,65,122,0
160.7893,160.88306,79,122,0
160.9143,161.00806,75,122,0
161.0393,161.13306,72,122,0
161.1643,161.25806,67,122,0
161.2893,161.38306,63,122,0
161.4143,161.50806,62,122,0
161.5393,161.63306,60,122,0
161.7893,161.88306,77,122,0
161.9143,162.00806,74,122,0
162.0393,162.13306,71,122,0
162.1643,162.25806,65,122,0
162.2893,162.38306,63,122,0
162.4143,162.50806,62,122,0
162.5393,162.63306,60,122,0
162.6643,162.85994,59,122,0
164.25319,164.52591,86,122,0
164.52591,164.66228,87,122,0
164.66228,164.76456,89,122,0
164.79865,165.07137,83,127,0
165.07137,165.20773,84,122,0
165.20773,165.31,86,122,0
165.3441,165.61682,77,122,0
165.61682,165.75319,79,122,0
165.75319,165.85545,80,122,0
165.88956,166.17523,74,122,0
166.17523,166.3181,75,122,0
166.3181,166.42523,77,122,0
166.46095,166.74666,71,122,0
166.74666,166.88953,72,122,0
166.88953,166.99666,74,122,0
167.03238,167.3181,65,122,0
167.3181,167.46095,67,122,0
167.46095,167.56808,68,122,0
167.6038,167.88953,62,122,0
167.88953,168.03238,63,122,0
168.03238,168.13953,65,122,0
168.17523,168.50847,59,122,0
168.50847,168.67514,60,122,0
168.67514,168.80014,62,122,0
168.8418,169.24167,59,122,0
169.24167,169.44167,60,122,0
169.44167,169.59166,62,122,0
169.64166,172.64145,55,122,0
174.14197,174.21698,66,69,0
174.14197,174.21698,72,69,0
174.39197,174.47374,66,82,0
174.39197,174.47374,72,82,0
174.66466,174.74648,66,95,0
174.66466,174.74648,72,95,0
174.93738,175.02829,75,108,0
175.02829,175.1192,74,113,0
174.93738,175.14192,66,108,0
175.1192,175.14647,72,117,0
175.21011,175.6192,67,122,0
175.21011,175.6192,71,122,0
175.21011,175.6192,74,122,0
175.21011,175.6192,79,122,0
176.25562,176.44312,62,69,0
176.25562,176.44312,65,69,0
176.75562,176.94312,60,69,0
176.75562,176.94312,63,69,0
177.25562,177.44312,56,69,0
177.25562,177.44312,62,69,0
178.25562,178.44312,57,69,0
178.25562,178.44312,60,69,0
178.75562,178.94312,57,69,0
178.75562,178.94312,60,69,0
179.25562,179.44312,55,69,0
179.25562,179.44312,59,69,0
180.75562,180.83061,48,69,0
180.75562,180.83061,51,69,0
180.75562,180.83061,54,69,0
181.00562,181.08061,48,77,0
181.00562,181.08061,51,77,0
181.00562,181.08061,54,77,0
181.25562,181.33061,51,86,0
181.25562,181.33061,54,86,0
181.25562,181.33061,60,86,0
181.50562,181.58739,51,95,0
181.50562,181.58739,54,95,0
181.50562,181.58739,60,95,0
181.77829,181.8601,54,104,0
181.77829,181.8601,60,104,0
181.77829,181.8601,63,104,0
182.05101,182.13283,54,113,0
182.05101,182.13283,60,113,0
182.05101,182.13283,63,113,0
182.32375,182.73283,60,122,0
182.32375,182.73283,63,122,0
182.32375,182.73283,66,122,0
183.41466,183.6022,66,69,0
183.41466,183.6022,78,69,0
183.9147,184.1022,65,69,0
183.9147,184.1022,77,69,0
184.4147,184.6022,66,69,0
184.4147,184.6022,72,69,0
184.4147,184.6022,75,69,0
185.4147,185.6647,65,69,0
185.4147,185.6647,70,69,0
185.4147,185.6647,73,69,0
185.6647,185.7897,66,69,0
185.7897,185.88345,65,69,0
185.9147,186.1647,65,69,0
185.9147,186.1647,69,69,0
185.9147,186.1647,72,69,0
186.1647,186.2897,66,69,0
186.2897,186.38345,65,69,0
186.4147,186.9601,70,69,0
186.9601,187.23283,72,78,0
187.23283,187.43738,73,83,0
187.50555,187.91466,72,88,0
187.91466,188.05101,70,95,0
188.05101,188.13283,72,97,0
188.32375,188.52829,65,101,0
188.59647,188.63055,65,107,0
188.63055,189.14192,73,105,0
189.14192,189.41464,72,88,0
189.41464,189.61919,70,78,0
189.68738,189.82375,69,69,0
189.82375,189.9601,70,69,0
189.9601,190.09647,72,69,0
190.09647,190.23283,69,69,0
190.23283,190.43738,65,69,0
190.50555,190.77829,77,69,0
190.77829,190.84647,77,69,0
190.84647,190.91464,78,69,0
190.91464,190.98283,77,69,0
190.98283,191.05101,78,69,0
191.05101,191.11919,77,69,0
191.11919,191.18738,78,69,0
191.18738,191.25555,77,69,0
191.25555,191.32373,78,69,0
191.32373,191.39192,77,69,0
191.39192,191.4601,78,69,0
191.4601,191.52829,77,69,0
191.52829,191.59647,78,69,0
191.59647,191.66464,77,69,0
191.66464,191.73283,78,69,0
191.73283,191.77829,77,69,0
191.77829,191.82373,75,69,0
191.82373,191.86919,77,69,0
191.86919,191.96704,78,69,0
191.99965,192.09747,77,69,0
192.13008,192.2279,75,69,0
192.26051,192.35835,73,69,0
192.39096,192.48878,72,69,0
192.5214,192.61922,70,69,0
192.65182,192.74965,68,69,0
192.78226,192.88008,66,69,0
192.91269,193.10022,65,69,0
193.91272,194.00647,67,77,0
194.03772,194.13147,68,77,0
194.16272,194.25647,70,77,0
194.28772,194.38147,72,77,0
194.41272,194.50647,74,77,0
194.53772,194.63147,76,77,0
194.66272,194.75647,77,77,0
194.78772,194.88147,79,77,0
194.91272,195.10022,80,77,0
195.91272,196.00647,79,81,0
196.03772,196.13147,81,82,0
196.16272,196.25647,83,83,0
196.28772,196.38147,84,83,0
196.41272,196.50647,86,84,0
196.53772,196.63147,87,84,0
196.66272,196.75647,89,85,0
196.78772,196.88147,86,86,0
196.91272,197.10022,87,86,0
197.91272,198.03772,86,107,0
198.03772,198.16272,87,107,0
198.16272,198.28772,86,107,0
198.28772,198.41272,87,107,0
198.41272,198.53772,89,107,0
198.53772,198.66272,87,107,0
198.66272,198.78772,86,107,0
198.78772,198.91272,84,107,0
198.91272,198.95021,83,107,0
199.03772,199.16272,83,88,0
199.16272,199.28772,84,69,0
199.28772,199.41272,83,69,0
199.41272,199.53772,84,69,0
199.53772,199.66272,83,69,0
199.66272,199.78772,81,69,0
199.78772,199.91272,79,69,0
200.03772,200.16272,67,69,0
200.16272,200.28772,66,69,0
200.28772,200.41272,67,69,0
200.41272,200.53772,66,69,0
200.53772,200.66272,67,69,0
200.66272,200.78772,69,69,0
200.78772,200.91272,71,69,0
201.03772,201.16272,84,70,0
201.16272,201.28772,86,71,0
201.28772,201.41272,84,72,0
201.41272,201.53772,86,74,0
201.53772,201.66272,84,74,0
201.66272,201.78772,83,76,0
201.78772,201.91272,81,77,0
202.03772,202.16272,69,80,0
202.16272,202.28772,68,80,0
202.28772,202.41272,69,82,0
202.41272,202.53772,68,83,0
202.53772,202.66272,69,84,0
202.66272,202.78772,71,85,0
202.78772,202.91272,72,86,0
203.03772,203.16272,86,89,0
203.16272,203.28772,87,90,0
203.28772,203.41272,86,91,0
203.41272,203.53772,87,92,0
203.53772,203.66272,86,93,0
203.66272,203.78772,84,95,0
203.78772,203.91272,83,95,0
204.03772,204.16272,87,98,0
204.16272,204.28772,89,99,0
204.28772,204.41272,87,101,0
204.41272,204.53772,89,101,0
204.53772,204.66272,87,103,0
204.66272,204.78772,86,104,0
204.78772,204.91272,84,105,0
205.03772,205.16272,89,107,0
205.16272,205.28772,88,107,0
205.28772,205.41272,89,107,0
205.41272,205.53772,88,107,0
205.53772,205.66272,89,107,0
205.66272,205.78772,86,107,0
205.78772,205.91272,84,107,0
205.91272,206.03772,83,107,0
206.03772,206.16272,84,107,0
206.16272,206.28772,85,107,0
206.28772,206.41272,86,107,0
206.41272,206.53772,84,107,0
206.53772,206.66272,83,107,0
206.66272,206.78772,80,107,0
206.78772,206.91272,79,107,0
206.91272,207.03772,77,107,0
207.03772,207.16272,79,107,0
207.16272,207.28772,80,122,0
207.28772,207.41272,79,118,0
207.41272,207.53772,77,114,0
207.53772,207.66272,75,110,0
207.66272,207.78772,74,107,0
207.78772,207.91272,72,103,0
207.91272,208.03772,71,99,0
208.03772,208.16272,68,95,0
208.16272,208.28772,67,92,0
208.28772,208.41272,65,88,0
208.41272,208.53772,63,84,0
208.53772,208.66272,62,80,0
208.66272,208.78772,65,77,0
208.78772,208.91272,59,73,0
208.91272,208.98772,60,69,0
211.16272,211.23772,79,69,0
211.41272,211.48772,79,72,0
211.66272,211.73772,79,75,0
211.91272,211.98772,79,78,0
212.16272,212.23772,79,82,0
212.41272,212.48772,79,85,0
212.66272,212.7127,79,88,0
212.7127,212.76271,80,89,0
212.76271,212.81271,79,89,0
212.81271,212.86272,78,90,0
212.86272,212.91272,79,91,0
212.91272,213.10022,75,92,0
215.16272,215.23772,79,69,0
215.41272,215.48772,79,72,0
215.66272,215.73772,79,75,0
215.91272,215.98772,79,78,0
216.16272,216.23772,79,82,0
216.41272,216.48772,79,85,0
216.66272,216.7127,79,88,0
216.7127,216.76271,80,89,0
216.76271,216.81271,79,89,0
216.81271,216.86272,78,90,0
216.86272,216.91272,79,91,0
216.91272,217.10022,75,69,0
218.16272,218.23772,80,69,0
218.41272,218.48772,77,69,0
218.66272,218.73772,85,69,0
218.91272,219.66272,86,80,0
219.91272,219.98772,87,69,0
220.16272,220.23772,82,69,0
220.41272,220.48772,79,69,0
220.66272,220.73772,87,69,0
220.91272,221.47522,88,80,0
221.66272,221.73772,67,69,0
221.66272,221.73772,79,69,0
221.91272,221.98772,60,89,0
221.91272,221.98772,72,89,0
222.16272,222.23772,68,84,0
222.16272,222.23772,80,84,0
222.66272,222.73772,69,99,0
222.66272,222.73772,81,99,0
222.91272,223.00647,62,107,0
222.91272,223.00647,74,107,0
223.03772,223.16272,83,107,0
223.16272,223.28772,74,107,0
223.28772,223.38147,83,107,0
223.53772,223.66272,83,107,0
223.66272,223.78772,74,107,0
223.78772,223.88147,83,107,0
224.03772,224.16272,84,101,0
224.16272,224.28772,72,97,0
224.28772,224.38147,84,92,0
224.53772,224.66272,80,83,0
224.66272,224.78772,68,78,0
224.78772,224.88147,77,74,0
224.91272,225.00647,75,69,0
225.03772,225.13147,79,69,0
225.16272,225.25647,75,69,0
225.28772,225.38147,72,69,0
225.41272,225.50647,67,69,0
225.53772,225.63147,63,69,0
225.66272,225.75647,60,69,0
225.78772,225.88147,55,69,0
226.03772,226.13147,79,69,0
226.16272,226.25647,74,69,0
226.28772,226.38147,71,69,0
226.41272,226.50647,67,69,0
226.53772,226.63147,62,69,0
226.66272,226.75647,59,69,0
226.78772,226.88147,55,69,0
227.03772,227.13147,55,69,0
227.28772,227.38147,55,69,0
227.53772,227.63147,55,69,0
227.78772,227.88147,55,69,0
228.03772,228.13147,55,69,0
228.28772,228.38147,55,69,0
228.53772,228.63147,55,69,0
228.78772,228.88147,55,69,0
228.91272,229.10022,55,69,0
229.28772,229.38147,67,107,0
229.28772,229.38147,79,107,0
229.53772,229.63147,67,107,0
229.53772,229.63147,79,107,0
229.78772,229.88147,67,107,0
229.78772,229.88147,79,107,0
230.03772,230.13147,67,107,0
230.03772,230.13147,79,107,0
230.28772,230.38147,67,107,0
230.28772,230.38147,79,107,0
230.53772,230.63147,67,107,0
230.53772,230.63147,79,107,0
230.66272,230.7127,79,107,0
230.7127,230.76271,80,107,0
230.76271,230.81271,79,107,0
230.81271,230.86272,78,107,0
230.86272,230.91272,79,107,0
230.91272,231.10022,75,107,0
231.28772,231.38147,55,69,0
231.53772,231.63147,55,69,0
231.78772,231.88147,55,69,0
232.03772,232.13147,55,69,0
232.28772,232.38147,55,69,0
232.53772,232.63147,55,69,0
232.66272,232.75647,55,92,0
232.78772,232.88147,60,92,0
232.91272,233.00647,53,92,0
233.03772,233.13147,58,92,0
234.16272,234.23772,82,92,0
234.41272,234.48772,79,92,0
234.66272,234.73772,87,92,0
234.91272,235.47522,85,92,0
235.66272,235.7096,84,92,0
235.72522,235.7721,85,92,0
235.78772,235.8346,84,92,0
235.85022,235.8971,85,92,0
235.91272,236.00647,83,92,0
236.03772,236.16272,83,92,0
236.16272,236.28772,71,93,0
236.28772,236.38147,83,94,0
236.53772,236.66272,83,96,0
236.66272,236.78772,71,97,0
236.78772,236.88147,83,98,0
237.03772,237.16272,84,100,0
237.16272,237.28772,72,101,0
237.28772,237.38147,84,101,0
237.53772,237.66272,84,104,0
237.66272,237.78772,72,104,0
237.78772,237.88147,84,105,0
238.03772,238.13147,83,107,0
238.16272,238.25647,79,107,0
238.28772,238.38147,74,107,0
238.41272,238.50647,71,107,0
238.53772,238.63147,67,107,0
238.66272,238.75647,62,107,0
238.78772,238.88147,59,107,0
239.03772,239.13147,84,107,0
239.16272,239.25647,79,107,0
239.28772,239.38147,75,107,0
239.41272,239.50647,72,107,0
239.53772,239.63147,67,107,0
239.66272,239.75647,63,107,0
239.78772,239.88147,60,107,0
240.03772,240.13147,80,107,0
240.16272,240.25647,77,107,0
240.28772,240.38147,72,107,0
240.41272,240.50647,68,107,0
240.53772,240.63147,65,107,0
240.66272,240.75647,60,107,0
240.78772,240.88147,56,107,0
241.03772,241.13147,79,107,0
241.16272,241.25647,74,107,0
241.28772,241.38147,71,107,0
241.41272,241.50647,67,107,0
241.53772,241.63147,62,107,0
241.66272,241.75647,59,107,0
241.78772,241.88147,55,107,0
241.91272,242.00647,60,107,0
242.03772,242.13147,55,88,0
242.16272,242.25647,60,69,0
242.16272,242.25647,63,69,0
242.28772,242.38147,55,69,0
242.41272,242.50647,60,69,0
242.41272,242.50647,63,69,0
242.53772,242.63147,55,69,0
242.66272,242.75647,60,69,0
242.66272,242.75647,63,69,0
242.78772,242.88147,55,69,0
242.91272,243.00647,60,69,0
242.91272,243.00647,63,69,0
243.03772,243.13147,55,69,0
243.16272,243.25647,60,69,0
243.16272,243.25647,63,69,0
243.28772,243.38147,55,69,0
243.41272,243.50647,60,69,0
243.41272,243.50647,63,69,0
243.53772,243.63147,55,69,0
243.66272,243.75647,60,69,0
243.66272,243.75647,63,69,0
243.78772,243.88147,55,69,0
243.91272,244.00647,59,80,0
243.91272,244.00647,62,80,0
243.91272,244.00647,65,80,0
244.03772,244.13147,56,69,0
244.16272,244.25647,59,69,0
244.16272,244.25647,62,69,0
244.16272,244.25647,65,69,0
244.28772,244.38147,55,69,0
244.41272,244.50647,59,69,0
244.41272,244.50647,62,69,0
244.41272,244.50647,65,69,0
244.53772,244.63147,55,69,0
244.66272,244.75647,59,69,0
244.66272,244.75647,62,69,0
244.66272,244.75647,65,69,0
244.78772,244.88147,55,69,0
244.91272,245.00647,59,69,0
244.91272,245.00647,62,69,0
244.91272,245.00647,65,69,0
245.03772,245.13147,55,69,0
245.16272,245.25647,59,69,0
245.16272,245.25647,62,69,0
245.16272,245.25647,65,69,0
245.28772,245.38147,55,69,0
245.41272,245.50647,59,69,0
245.41272,245.50647,62,69,0
245.41272,245.50647,65,69,0
245.53772,245.63147,55,69,0
245.66272,245.75647,59,69,0
245.66272,245.75647,62,69,0
245.66272,245.75647,65,69,0
245.78772,245.88147,55,69,0
245.91272,246.00647,55,69,0
245.91272,246.00647,60,69,0
245.91272,246.00647,63,69,0
246.03772,246.16272,67,69,0
246.16272,246.28772,69,69,0
246.28772,246.41272,71,69,0
246.41272,246.53772,72,69,0
246.53772,246.66272,71,69,0
246.66272,246.78772,72,69,0
246.78772,246.88147,74,69,0
246.91272,247.66272,75,69,0
247.66272,247.78772,74,69,0
247.78772,247.88147,72,69,0
247.91272,248.03772,71,80,0
248.03772,248.16272,72,69,0
248.16272,248.28772,74,69,0
248.28772,248.41272,75,69,0
248.41272,248.53772,77,69,0
248.53772,248.66272,79,69,0
248.66272,248.78772,80,69,0
248.78772,248.91272,79,69,0
248.91272,249.03772,77,69,0
249.03772,249.16272,75,69,0
249.16272,249.28772,74,69,0
249.28772,249.41272,72,69,0
249.41272,249.53772,71,69,0
249.53772,249.66272,69,69,0
249.66272,249.78772,71,69,0
249.78772,249.91272,67,69,0
249.91272,250.16272,72,69,0
252.41272,252.53772,86,62,0
252.53772,252.63147,87,62,0
252.66272,252.78772,86,62,0
252.78772,252.88147,87,62,0
253.41272,253.53772,86,62,0
253.53772,253.63147,87,62,0
253.66272,253.78772,86,62,0
253.78772,253.88147,87,62,0
254.41272,254.53772,83,62,0
254.53772,254.63147,84,62,0
254.66272,254.78772,83,62,0
254.78772,254.88147,84,62,0
255.41272,255.53772,83,62,0
255.53772,255.63147,84,62,0
255.66272,255.78772,83,62,0
255.78772,255.88147,84,62,0
256.41272,256.53772,83,65,0
256.53772,256.63147,84,66,0
256.66272,256.78772,83,67,0
256.78772,256.88147,84,68,0
257.41272,257.53772,83,73,0
257.53772,257.63147,84,74,0
257.66272,257.78772,83,74,0
257.78772,257.88147,84,75,0
258.41272,258.53772,83,80,0
258.53772,258.63147,84,81,0
258.66272,258.78772,83,82,0
258.78772,258.88147,84,83,0
259.41272,259.53772,83,88,0
259.53772,259.63147,84,84,0
259.66272,259.78772,83,81,0
259.78772,259.88147,84,77,0
260.41272,260.53772,83,62,0
260.53772,260.63147,84,62,0
260.66272,260.78772,83,62,0
260.78772,260.88147,84,62,0
260.91272,261.10022,72,62,0
261.16272,261.35022,72,62,0
262.41272,262.53772,83,62,0
262.53772,262.63147,84,62,0
262.66272,262.78772,83,62,0
262.78772,262.88147,84,62,0
262.91272,263.10022,72,62,0
263.16272,263.35022,72,62,0
263.41272,263.53772,71,62,0
263.53772,263.63147,72,62,0
263.66272,263.78772,71,62,0
263.78772,263.88147,72,62,0
263.91272,264.10022,60,62,0
264.16272,264.35022,60,62,0
265.91272,265.9877,66,69,0
265.91272,265.9877,72,69,0
266.16272,266.24448,66,82,0
266.16272,266.24448,72,82,0
266.4354,266.5172,66,95,0
266.4354,266.5172,72,95,0
266.70813,266.79904,75,108,0
266.79904,266.88995,74,113,0
266.70813,266.91266,66,108,0
266.88995,266.9172,72,117,0
266.98083,267.3559,67,122,0
266.98083,267.3559,71,122,0
266.98083,267.3559,74,122,0
266.98083,267.3559,79,122,0
267.9809,268.1684,62,69,0
267.9809,268.1684,65,69,0
268.4809,268.6684,60,69,0
268.4809,268.6684,63,69,0
268.9809,269.1684,56,69,0
268.9809,269.1684,62,69,0
269.9809,270.1684,57,69,0
269.9809,270.1684,60,69,0
270.4809,270.6684,57,69,0
270.4809,270.6684,60,69,0
270.9809,271.1684,55,69,0
270.9809,271.1684,59,69,0
271.4809,271.6059,59,69,0
271.6059,271.69965,60,69,0
271.7309,271.8559,59,69,0
271.8559,271.94965,60,69,0
271.9809,272.0559,56,69,0
272.2309,272.3059,56,75,0
272.4809,272.5559,56,82,0
272.7309,272.8059,56,89,0
272.9809,273.06265,56,95,0
272.9809,273.06265,60,95,0
273.25357,273.3354,56,101,0
273.25357,273.3354,60,101,0
273.5263,273.60812,56,108,0
273.5263,273.60812,60,108,0
273.5263,273.60812,63,108,0
273.79904,273.8847,56,115,0
273.79904,273.8847,60,115,0
273.79904,273.8847,63,115,0
274.08472,274.5347,56,122,0
274.08472,274.5347,60,122,0
274.08472,274.5347,63,122,0
274.08472,274.5347,66,122,0
275.2847,275.50967,63,69,0
275.2847,275.50967,66,69,0
275.88467,276.10968,61,69,0
275.88467,276.10968,65,69,0
276.48468,276.7097,58,69,0
276.48468,276.7097,63,69,0
277.6847,277.9097,56,69,0
277.6847,277.9097,61,69,0
278.2847,278.50967,56,69,0
278.2847,278.50967,60,69,0
278.2847,278.50967,63,69,0
278.88467,279.10968,56,69,0
278.88467,279.10968,61,69,0
278.88467,279.10968,65,69,0
280.0847,280.3097,65,69,0
280.0847,280.3097,68,69,0
280.6847,280.9097,63,69,0
280.6847,280.9097,66,69,0
281.2847,281.50967,59,69,0
281.2847,281.50967,63,69,0
281.2847,281.50967,65,69,0
282.48468,282.7097,54,69,0
282.48468,282.7097,58,69,0
282.48468,282.7097,63,69,0
283.0847,283.3097,58,69,0
283.0847,283.3097,62,69,0
283.0847,283.3097,65,69,0
283.6847,283.9097,58,69,0
283.6847,283.9097,63,69,0
283.6847,283.9097,66,69,0
284.88467,285.10968,66,69,0
284.88467,285.10968,70,69,0
285.48468,285.7097,62,73,0
285.48468,285.7097,65,73,0
285.48468,285.7097,68,73,0
286.0847,286.75967,64,77,0
286.0847,286.75967,67,77,0
287.2847,287.50967,60,84,0
287.2847,287.50967,65,84,0
287.88467,288.10968,60,88,0
287.88467,288.10968,67,88,0
288.48468,288.7097,60,92,0
288.48468,288.7097,68,92,0
289.6847,289.9097,60,83,0
289.6847,289.9097,62,83,0
289.6847,289.9097,65,83,0
290.88467,291.10968,60,74,0
290.88467,291.10968,63,74,0
290.88467,291.10968,67,74,0
292.15952,292.44077,59,66,0
292.15952,292.44077,62,66,0
292.15952,292.44077,67,66,0
293.65952,294.10428,60,107,0
294.10428,294.2154,59,107,0
294.2154,294.3265,60,107,0
294.3265,294.43762,59,107,0
294.43762,294.52097,60,107,0
294.54874,294.9932,56,107,0
294.9932,295.10428,59,107,0
295.10428,295.2154,60,107,0
295.2154,295.3265,59,107,0
295.3265,295.40985,60,107,0
295.43762,295.88208,55,107,0
295.88208,295.9932,59,107,0
295.9932,296.10428,60,107,0
296.10428,296.2154,59,107,0
296.2154,296.29874,60,107,0
296.3265,296.77097,53,107,0
296.77097,296.88208,59,107,0
296.88208,296.99316,60,107,0
296.99316,297.10428,59,107,0
297.10428,297.18762,60,107,0
297.2154,297.29874,51,107,0
297.3265,297.40985,72,107,0
297.43762,297.52097,67,107,0
297.54874,297.63208,63,107,0
297.77097,297.85428,68,107,0
297.88208,297.9654,65,107,0
297.99316,298.0765,62,107,0
298.2154,298.29874,67,107,0
298.3265,298.40985,63,107,0
298.43762,298.52097,60,107,0
298.65985,298.74316,65,107,0
298.77097,298.85428,62,107,0
298.88208,298.9654,59,107,0
298.99316,299.43762,60,107,0
299.43762,299.54874,83,69,0
299.54874,299.65985,84,69,0
299.65985,299.77097,83,69,0
299.77097,299.85428,84,69,0
298.99316,299.88205,72,107,0
300.3265,300.43762,83,69,0
300.43762,300.54874,84,69,0
300.54874,300.65985,83,69,0
300.65985,300.74316,84,69,0
299.88205,300.77097,77,69,0
301.2154,301.3265,83,69,0
301.3265,301.43762,84,69,0
301.43762,301.54874,83,69,0
301.54874,301.63205,84,69,0
300.77097,301.65985,75,69,0
302.10428,302.2154,83,69,0
302.2154,302.3265,84,69,0
302.3265,302.43762,83,69,0
302.43762,302.52097,84,69,0
301.65985,302.54874,80,69,0
302.54874,302.63205,79,69,0
302.65985,302.74316,84,70,0
302.77097,302.85428,83,71,0
302.88205,302.9654,84,71,0
302.99316,303.0765,77,72,0
303.10428,303.18762,84,73,0
303.2154,303.29874,83,74,0
303.3265,303.40985,84,74,0
303.43762,303.52094,75,75,0
303.54874,303.63205,84,76,0
303.65985,303.74316,83,77,0
303.77094,303.85428,84,77,0
303.88205,303.9654,80,78,0
303.99316,304.0765,84,79,0
304.10428,304.18762,83,80,0
304.2154,304.29874,84,80,0
304.3265,304.40985,79,81,0
304.43762,304.52094,84,82,0
304.54874,304.63205,83,83,0
304.65985,304.74316,84,83,0
304.77094,304.85428,77,84,0
304.88205,304.9654,84,85,0
304.99316,305.0765,83,86,0
305.10428,305.18762,84,86,0
305.2154,305.29874,75,88,0
305.3265,305.40985,84,89,0
305.43762,305.52094,83,89,0
305.54874,305.63205,84,90,0
305.65985,305.74316,80,91,0
305.77094,305.85428,84,92,0
305.88205,305.9654,83,92,0
305.99316,306.0765,84,93,0
306.10428,306.18762,79,94,0
306.2154,306.29874,84,95,0
306.3265,306.40985,77,95,0
306.43762,306.52094,84,96,0
306.54874,306.63205,75,97,0
306.65982,306.74316,84,98,0
306.77094,306.85428,80,98,0
306.88205,306.9654,84,99,0
306.99316,307.0765,79,100,0
307.10428,307.18762,84,101,0
307.2154,307.29874,77,101,0
307.3265,307.40982,84,102,0
307.43762,307.52094,75,103,0
307.54874,307.63205,84,104,0
307.65982,307.74316,80,104,0
307.77094,307.85428,84,105,0
307.88205,307.9654,79,107,0
307.99316,308.0765,84,107,0
308.10428,308.18762,78,107,0
308.2154,308.29874,84,107,0
308.3265,308.40982,79,107,0
308.43762,308.52094,84,107,0
308.54874,308.63205,78,107,0
308.65982,308.74316,84,107,0
308.77094,308.85428,79,107,0
308.88205,308.9654,84,107,0
308.99316,309.0765,78,107,0
309.10428,309.18762,84,107,0
309.2154,309.29874,79,107,0
309.3265,309.40982,84,107,0
309.43762,309.52094,78,107,0
309.54874,309.63205,84,107,0
309.65982,309.74316,79,122,0
309.77094,309.85428,84,122,0
309.88205,309.9654,87,122,0
309.99316,310.0765,84,122,0
310.10428,310.18762,79,122,0
310.2154,310.2987,84,122,0
310.3265,310.40982,75,122,0
310.43762,310.52094,79,122,0
310.5487,310.63205,72,127,0
310.65982,310.74316,75,122,0
310.77094,310.85428,67,122,0
310.88205,310.9654,72,122,0
310.99316,311.0765,63,122,0
311.10428,311.18762,67,122,0
311.2154,311.2987,60,122,0
311.3265,311.40982,63,122,0
311.43762,311.60428,55,122,0
311.65982,311.74316,57,122,0
311.77094,311.85428,59,122,0
311.88205,311.9654,60,122,0
311.99316,312.0765,62,122,0
312.10428,312.18762,63,122,0
312.2154,312.2987,65,122,0
312.3265,312.40982,67,122,0
312.43762,312.52094,69,122,0
312.5487,312.63205,71,122,0
312.65982,312.74316,72,122,0
312.77094,312.85428,74,122,0
312.88205,312.9654,75,122,0
312.99316,313.0765,77,122,0
313.10428,313.18762,79,122,0
313.2154,313.2987,72,127,0
313.3265,313.40982,63,95,0
313.4376,313.52094,60,69,0
313.5487,313.63205,63,69,0
313.65982,313.74316,67,69,0
313.77094,313.85428,63,69,0
313.88205,313.9654,60,69,0
313.99316,314.0765,63,69,0
314.10428,314.1876,55,69,0
314.2154,314.2987,63,69,0
314.3265,314.40982,60,69,0
314.4376,314.52094,63,69,0
314.5487,314.63205,55,69,0
314.65982,314.74316,63,69,0
314.77094,314.85428,60,69,0
314.88205,314.9654,63,69,0
314.99316,315.0765,55,69,0
315.10428,315.1876,65,69,0
315.2154,315.2987,59,69,0
315.3265,315.40982,65,69,0
315.4376,315.52094,55,69,0
315.5487,315.63205,62,69,0
315.65982,315.74316,59,69,0
315.77094,315.85428,62,69,0
315.88205,315.9654,55,69,0
315.99316,316.0765,62,69,0
316.10428,316.1876,59,69,0
316.2154,316.2987,62,69,0
316.3265,316.40982,55,69,0
316.4376,316.52094,65,69,0
316.5487,316.63205,59,69,0
316.65982,316.74316,65,69,0
316.77094,316.85428,55,127,0
316.88205,316.9654,63,88,0
316.99316,317.07648,60,69,0
317.10428,317.1876,63,69,0
317.2154,317.2987,67,69,0
317.32648,317.40982,63,69,0
317.4376,317.52094,60,69,0
317.5487,317.63205,63,69,0
317.65982,317.74316,55,69,0
317.77094,317.85428,63,69,0
317.88205,317.9654,60,69,0
317.99316,318.07648,63,69,0
318.10428,318.1876,55,69,0
318.2154,318.2987,63,69,0
318.32648,318.40982,60,69,0
318.4376,318.52094,63,69,0
318.5487,318.63205,55,69,0
318.65982,318.74316,65,69,0
318.77094,318.85428,59,69,0
318.88205,318.9654,65,69,0
318.99316,319.07648,55,69,0
319.10428,319.1876,62,69,0
319.2154,319.2987,59,69,0
319.32648,319.40982,62,69,0
319.4376,319.52094,55,69,0
319.5487,319.63205,63,74,0
319.65982,319.74316,60,78,0
319.77094,319.85428,63,83,0
319.88205,319.9654,55,88,0
319.99316,320.07648,63,92,0
320.10428,320.1876,60,97,0
320.21536,320.2987,63,101,0
320.77094,320.88205,71,107,0
320.88205,320.96536,72,107,0
320.99316,321.10428,71,107,0
321.10428,321.1876,72,107,0
321.21536,321.28204,68,107,0
321.4376,321.50427,68,107,0
321.65982,321.7265,68,107,0
321.88205,321.9487,68,107,0
322.10428,322.17093,67,107,0
322.32648,322.4376,77,69,0
322.4376,322.5487,76,69,0
322.5487,322.65982,77,69,0
322.65982,322.77094,75,72,0
322.77094,322.88205,74,75,0
322.88205,322.99316,72,78,0
322.99316,323.10428,71,81,0
323.10428,323.21536,72,84,0
323.21536,323.32648,74,88,0
323.32648,323.4376,75,91,0
323.4376,323.5487,77,94,0
323.5487,323.65982,79,97,0
323.65982,323.77094,81,100,0
323.77094,323.88205,83,103,0
323.88205,324.10425,84,107,0
324.32648,324.4376,83,107,0
324.4376,324.52094,84,107,0
324.5487,324.65982,83,107,0
324.65982,324.74316,84,107,0
324.77094,324.8376,80,107,0
324.99316,325.0598,80,107,0
325.21536,325.28204,80,107,0
325.4376,325.50427,80,107,0
325.65982,325.69315,79,69,0
325.77094,325.88205,89,74,0
325.88205,325.99316,88,78,0
325.99316,326.10425,89,83,0
326.10425,326.21536,87,88,0
326.21536,326.32648,86,92,0
326.32648,326.4376,84,97,0
326.4376,326.52094,83,101,0
326.5487,326.65982,84,107,0
326.65982,326.77094,86,101,0
326.77094,326.88205,84,97,0
326.88205,326.99313,83,92,0
326.99313,327.10425,84,88,0
327.10425,327.21536,86,83,0
327.21536,327.32648,87,78,0
327.32648,327.40982,84,74,0
327.4376,327.5487,83,69,0
327.5487,327.65982,89,74,0
327.65982,327.77094,88,78,0
327.77094,327.88205,89,83,0
327.88205,327.99313,87,88,0
327.99313,328.10425,86,92,0
328.10425,328.21536,84,97,0
328.21536,328.2987,83,101,0
328.32648,328.4376,84,107,0
328.4376,328.5487,86,101,0
328.5487,328.65982,87,97,0
328.65982,328.77094,86,92,0
328.77094,328.88205,89,88,0
328.88205,328.99313,87,83,0
328.99313,329.10425,86,78,0
329.10425,329.1876,84,74,0
329.21536,329.32648,83,69,0
329.32648,329.4376,89,71,0
329.4376,329.5487,86,74,0
329.5487,329.65982,83,77,0
329.65982,329.77094,84,80,0
329.77094,329.88205,86,83,0
329.88205,329.99313,87,86,0
329.99313,330.07648,84,89,0
330.10425,330.21536,83,92,0
330.21536,330.32648,89,95,0
330.32648,330.4376,86,98,0
330.4376,330.5487,83,101,0
330.5487,330.65982,84,104,0
330.65982,330.77094,86,107,0
330.77094,330.88202,87,110,0
330.88202,330.96536,84,113,0
330.99313,331.15982,83,116,0
331.21536,331.5487,89,122,0
331.65982,331.74313,89,122,0
331.77094,331.85425,87,122,0
331.88202,331.96536,86,122,0
331.99313,332.07648,84,122,0
332.10425,332.1876,83,122,0
332.21536,332.2987,80,122,0
332.32648,332.40982,79,122,0
332.4376,332.52094,77,122,0
332.5487,332.63202,75,122,0
332.65982,332.74313,74,122,0
332.77094,332.95837,72,122,0
333.77087,334.1799,55,122,0
333.77087,334.1799,60,122,0
333.77087,334.1799,63,122,0
334.86172,335.2708,51,122,0
334.86172,335.2708,55,122,0
334.86172,335.2708,60,122,0
2.500521,2.5755208,60,127,40
2.750521,2.8255208,60,127,40
3.000521,3.0822916,60,127,40
3.2732005,3.3550186,60,127,40
3.5459275,3.955018,59,127,40
3.5459275,3.955018,62,127,40
9.591429,9.666429,72,127,40
9.841429,9.9232,72,127,40
10.114108,10.195927,72,127,40
10.386835,10.477744,75,127,40
10.523199,10.636835,72,127,40
10.659562,11.068653,55,127,40
10.659562,11.068653,62,127,40
10.659562,11.068653,71,127,40
10.659562,11.068653,79,127,40
11.705064,11.892564,77,127,40
12.205064,12.392564,75,127,40
12.705064,12.955064,74,127,40
13.705064,13.892564,72,127,40
14.205064,14.392564,71,127,40
14.705064,15.094538,72,127,40
19.978245,20.187548,67,127,40
20.257315,20.815453,72,127,40
21.04801,21.303823,75,127,40
21.37359,21.792194,74,127,40
21.885218,22.14103,74,127,40
22.210796,22.4201,67,127,40
22.489866,22.559633,67,127,40
23.001493,23.327074,74,127,40
23.606142,24.024746,71,127,40
24.16428,24.289341,59,127,40
24.414341,24.539341,59,127,40
24.664341,24.851841,56,127,40
24.914341,25.101841,56,127,40
25.164341,25.351841,56,127,40
25.414341,25.601841,56,127,40
25.664341,25.851841,56,127,40
25.914341,26.11884,56,127,40
26.187021,26.391565,56,127,40
26.459747,26.550657,60,127,40
26.596111,26.709747,60,127,40
26.732475,27.141565,62,127,40
26.732475,27.141565,74,127,40
27.823383,28.01093,80,127,40
28.32343,28.51093,79,127,40
28.82343,29.01093,77,127,40
29.82343,30.01093,75,127,40
30.32343,30.51093,75,127,40
30.82343,30.91718,74,127,40
30.94843,31.07343,58,127,40
31.156763,31.32343,58,127,40
31.406763,31.57343,58,127,40
31.656763,31.79218,62,127,40
31.94843,32.07343,74,127,40
32.156765,32.32343,74,127,40
32.406765,32.57343,74,127,40
32.656765,32.79218,70,127,40
32.94843,33.07343,60,127,40
33.156765,33.32343,60,127,40
33.406765,33.57343,60,127,40
33.656765,33.79218,63,127,40
33.94843,34.07343,75,127,40
34.156765,34.32343,75,127,40
34.406765,34.57343,75,127,40
34.656765,34.79218,72,127,40
34.94843,35.07343,62,127,40
35.156765,35.32343,62,127,40
35.406765,35.57343,62,127,40
35.656765,35.79218,65,127,40
35.94843,36.07343,63,127,40
36.156765,36.32343,63,127,40
36.406765,36.57343,63,127,40
36.656765,36.79218,67,127,40
36.94843,37.07343,65,127,40
37.156765,37.32343,65,127,40
37.406765,37.57343,65,127,40
37.656765,37.82343,68,127,40
39.07343,39.19843,82,127,40
39.281765,39.44843,79,127,40
39.531765,39.69843,75,127,40
39.781765,39.94843,73,127,40
40.031765,40.19843,75,127,40
40.281765,40.44843,69,127,40
40.531765,40.69843,72,127,40
40.82343,40.89843,67,127,40
41.07343,41.14843,70,127,40
41.32343,41.39843,67,127,40
41.57343,41.64843,70,127,40
41.82343,41.89843,67,127,40
42.07343,42.14843,70,127,40
42.32343,42.39843,67,127,40
42.57343,42.64843,75,127,40
42.82343,42.89843,74,127,40
43.07343,43.44843,68,127,40
43.57343,43.94843,65,127,40
44.07343,44.44843,62,127,40
44.57343,44.76093,56,127,40
44.82343,44.89843,55,127,40
45.07343,45.14843,70,127,40
45.32343,45.39843,67,127,40
45.57343,45.64843,70,127,40
45.82343,45.89843,67,127,40
46.07343,46.14843,70,127,40
46.32343,46.39843,67,127,40
46.57343,46.64843,75,127,40
46.82343,46.89843,74,127,40
47.07343,47.52343,80,127,40
47.57343,48.02343,77,127,40
48.07343,48.52343,74,127,40
48.57343,48.79843,68,127,40
48.82343,48.89843,67,127,40
49.07343,49.14843,70,127,40
49.32343,49.39843,67,127,40
49.57343,49.64843,75,127,40
49.82343,50.82343,76,127,40
51.07343,51.14843,72,127,40
51.32343,51.39843,68,127,40
51.57343,51.64843,77,127,40
51.82343,52.82343,78,127,40
53.07343,53.14843,73,127,40
53.32343,53.39843,70,127,40
53.57343,53.64843,79,127,40
53.82343,53.89843,80,127,40
54.07343,54.14843,75,127,40
54.32343,54.39843,72,127,40
54.57343,54.64843,81,127,40
54.82343,56.32343,82,127,40
56.656765,56.82343,77,127,40
57.07343,57.32343,58,127,40
57.07343,57.32343,67,127,40
58.07343,58.32343,58,127,40
58.07343,58.32343,68,127,40
58.82343,58.89843,58,127,40
58.82343,58.89843,66,127,40
59.07343,59.14843,70,127,40
59.32343,59.39843,66,127,40
59.57343,59.64843,70,127,40
59.82343,59.89843,66,127,40
60.07343,60.14843,70,127,40
60.32343,60.39843,66,127,40
60.57343,60.64843,75,127,40
60.82343,60.89843,74,127,40
61.07343,61.57343,68,127,40
62.031765,62.14843,65,127,40
62.32343,62.39843,62,127,40
62.57343,62.64843,65,127,40
62.82343,62.89843,66,127,40
63.07343,63.14843,70,127,40
63.32343,63.39843,66,127,40
63.57343,63.64843,70,127,40
63.82343,63.89843,66,127,40
64.07343,64.14843,70,127,40
64.32343,64.39843,66,127,40
64.57343,64.64843,75,127,40
64.82343,65.57343,73,127,40
65.6151,65.69843,71,127,40
65.71926,65.82343,71,127,40
66.57343,66.76093,66,127,40
66.82343,67.57343,64,127,40
67.6151,67.69843,63,127,40
67.71926,67.82343,63,127,40
68.03176,68.32343,74,127,40
68.57343,68.82343,74,127,40
69.07343,69.32343,75,127,40
69.57343,69.82343,75,127,40
70.32343,71.07343,82,127,40
71.15676,71.32343,86,127,40
71.57343,71.76093,87,127,40
71.82343,72.07343,87,127,40
72.32343,72.51093,77,127,40
72.57343,72.76093,77,127,40
72.82343,73.07343,77,127,40
73.15676,73.32343,80,127,40
73.57343,73.76093,82,127,40
73.82343,74.19843,75,127,40
74.82343,75.57343,79,127,40
75.82343,76.07343,74,127,40
76.28176,77.07343,80,127,40
77.28176,77.57343,74,127,40
77.82343,77.91718,75,127,40
77.94843,78.07343,58,127,40
78.15676,78.32343,62,127,40
78.40676,78.57343,62,127,40
78.65676,78.82343,65,127,40
79.53176,79.69843,65,127,40
79.82343,79.94843,62,127,40
80.03176,80.19843,65,127,40
80.28176,80.44843,68,127,40
80.53176,80.69843,72,127,40
80.78176,80.94843,68,127,40
81.03176,81.19843,65,127,40
81.28176,81.44843,62,127,40
81.53176,81.69843,62,127,40
81.82343,81.94843,63,127,40
82.03176,82.19843,66,127,40
82.28176,82.44843,66,127,40
82.53176,82.69843,66,127,40
82.78176,82.94843,65,127,40
83.03176,83.19843,65,127,40
83.28176,83.44843,63,127,40
83.53176,83.69843,63,127,40
83.82343,84.32343,62,127,40
85.28176,86.32343,67,127,40
87.28176,88.32343,67,127,40
89.28176,90.82343,55,127,40
89.28176,90.82343,67,127,40
91.32343,91.44843,66,127,40
91.57343,91.69843,66,127,40
91.82343,91.94843,55,127,40
92.07343,92.19843,55,127,40
93.32343,93.44843,78,127,40
93.57343,93.69843,78,127,40
93.82343,93.94843,67,127,40
94.07343,94.19843,67,127,40
95.82343,95.89843,60,127,40
96.07343,96.1552,60,127,40
96.34611,96.427925,60,127,40
96.618835,96.70065,60,127,40
96.89156,97.30065,59,127,40
96.89156,97.30065,62,127,40
102.98252,103.05752,72,127,40
103.23252,103.31429,72,127,40
103.505196,103.58701,72,127,40
103.77792,103.868835,75,127,40
103.91429,104.02792,72,127,40
104.05065,104.45974,55,127,40
104.05065,104.45974,62,127,40
104.05065,104.45974,74,127,40
104.05065,104.45974,79,127,40
105.14156,105.32911,77,127,40
105.64161,105.82911,75,127,40
106.14161,106.32911,74,127,40
107.14161,107.32911,72,127,40
107.64161,107.82911,71,127,40
108.14161,108.52792,72,127,40
108.93701,109.14156,67,127,40
109.20974,109.755196,72,127,40
109.98247,110.23247,76,127,40
110.30065,110.70974,74,127,40
110.80065,111.05065,74,127,40
111.11883,111.32338,67,127,40
111.391556,111.42565,67,127,40
111.891556,112.20974,74,127,40
112.48247,112.61883,71,127,40
112.70974,112.891556,74,127,40
113.027916,113.23247,67,127,40
113.300644,113.50519,79,127,40
113.57337,113.641556,79,127,40
113.66428,113.777916,79,127,40
113.800644,113.91428,79,127,40
113.93701,114.050644,79,127,40
114.07337,114.18701,79,127,40
114.20974,114.32337,79,127,40
114.3461,114.45974,79,127,40
114.48246,114.5961,79,127,40
114.61883,114.73246,79,127,40
114.75519,114.86883,79,127,40
114.891556,115.00519,79,127,40
115.027916,115.141556,79,127,40
115.16428,115.277916,79,127,40
115.300644,115.41428,79,127,40
115.43701,115.550644,79,127,40
115.57337,115.687004,79,127,40
115.70973,115.82337,79,127,40
115.8461,115.95973,79,127,40
115.98246,116.0961,79,127,40
116.11883,116.23246,79,127,40
116.25519,116.36883,79,127,40
116.391556,116.48246,79,127,40
116.527916,116.70973,84,127,40
116.800644,117.050644,79,127,40
117.664276,117.74609,79,127,40
117.937004,118.01882,79,127,40
118.20973,118.29155,79,127,40
118.48246,118.61882,79,127,40
118.70973,118.89155,79,127,40
119.027916,119.300644,76,127,40
119.573364,119.777916,74,127,40
119.84609,119.98246,74,127,40
120.11882,120.20064,77,127,40
120.39155,120.473366,77,127,40
120.664276,120.80064,77,127,40
120.89155,121.073364,77,127,40
121.20973,121.48246,75,127,40
121.75518,121.837,72,127,40
122.02791,122.109726,72,127,40
122.30064,122.36882,72,127,40
122.39155,122.50518,72,127,40
122.52791,122.64155,72,127,40
122.664276,122.75518,72,127,40
122.80064,123.11882,74,127,40
123.39155,123.664276,76,127,40
123.937,124.75518,74,127,40
124.84609,124.99382,71,127,40
125.02791,125.109726,69,127,40
125.30064,125.382454,71,127,40
125.573364,125.98245,72,127,40
127.48245,127.56427,81,127,40
127.75518,127.837,81,127,40
128.02791,128.10973,81,127,40
128.30063,128.437,81,127,40
128.52791,128.70972,81,127,40
128.84608,129.45972,79,127,40
129.66426,129.74608,79,127,40
129.937,130.01881,79,127,40
130.20972,130.29153,79,127,40
130.48245,130.6188,79,127,40
130.70972,130.89154,79,127,40
131.02791,131.437,79,127,40
133.20972,133.29153,59,127,40
133.48244,133.56427,65,127,40
133.75517,133.83699,65,127,40
134.0279,134.10971,65,127,40
134.30063,134.4029,64,127,40
134.437,134.53926,72,127,40
134.57335,134.67563,74,127,40
134.70972,134.81198,76,127,40
134.84608,134.94835,77,127,40
134.98244,135.08472,79,127,40
135.1188,135.22108,81,127,40
135.25517,135.35744,83,127,40
135.39154,135.45972,84,127,40
135.48244,135.59608,84,127,40
135.6188,135.73244,84,127,40
135.75517,135.84608,84,127,40
135.89154,136.20972,86,127,40
136.48244,136.75517,88,127,40
136.98244,137.84607,86,127,40
137.93698,138.08472,83,127,40
138.1188,138.20062,81,127,40
138.39153,138.47334,83,127,40
138.66426,139.0393,84,127,40
142.4143,142.6018,62,127,40
142.6643,143.0393,67,127,40
143.1643,143.2393,69,127,40
143.4143,143.4893,70,127,40
143.6643,143.94556,69,127,40
144.0393,144.13306,67,127,40
144.1643,144.2393,69,127,40
144.4143,144.4893,62,127,40
144.6643,144.7393,70,127,40
144.9143,144.9893,67,127,40
145.1643,145.7268,71,127,40
145.9143,145.9893,67,127,40
146.1643,146.2393,72,127,40
146.4143,146.4893,74,127,40
146.6643,146.75806,75,127,40
146.7893,146.88306,79,127,40
146.9143,147.00806,80,127,40
147.0393,147.13306,79,127,40
147.1643,147.25806,77,127,40
147.2893,147.38306,75,127,40
147.4143,147.50806,74,127,40
147.5393,147.63306,72,127,40
147.6643,147.75806,71,127,40
147.7893,147.88306,72,127,40
147.9143,148.00806,71,127,40
148.0393,148.13306,68,127,40
148.1643,148.25806,67,127,40
148.2893,148.38306,65,127,40
148.4143,148.50806,63,127,40
148.5393,148.63306,62,127,40
148.6643,148.75806,60,127,40
148.7893,148.88306,67,127,40
148.9143,149.00806,68,127,40
149.0393,149.13306,67,127,40
149.1643,149.25806,65,127,40
149.2893,149.38306,63,127,40
149.4143,149.50806,62,127,40
149.5393,149.63306,60,127,40
149.6643,149.75806,59,127,40
149.7893,149.88306,60,127,40
149.9143,150.00806,59,127,40
150.0393,150.13306,57,127,40
150.1643,150.25806,59,127,40
150.2893,150.38306,60,127,40
150.4143,150.50806,62,127,40
150.5393,150.63306,63,127,40
150.6643,151.0393,65,127,40
151.1643,151.2893,58,127,40
151.4143,151.5393,58,127,40
152.1643,152.2893,59,127,40
152.4143,152.5393,59,127,40
152.6643,152.75806,70,127,40
152.7893,152.88306,68,127,40
152.9143,153.00806,67,127,40
153.0393,153.13306,65,127,40
153.1643,153.25806,64,127,40
153.2893,153.38306,70,127,40
153.4143,153.50806,67,127,40
153.5393,153.63306,76,127,40
153.6643,153.75806,72,127,40
153.7893,153.88306,77,127,40
153.9143,154.00806,76,127,40
154.0393,154.13306,82,127,40
154.1643,154.25806,80,127,40
154.2893,154.38306,77,127,40
154.4143,154.50806,72,127,40
154.5393,154.63306,68,127,40
154.6643,155.0393,65,127,40
155.6643,156.0393,82,127,40
156.1643,156.33931,84,127,40
156.4143,156.58931,85,127,40
156.6643,157.4143,76,127,40
157.6643,158.0393,84,127,40
158.1643,158.33931,86,127,40
158.4143,158.58931,87,127,40
158.6643,159.1643,78,127,40
160.1643,160.33931,87,127,40
160.4143,160.58931,89,127,40
160.6643,161.0393,87,127,40
161.1643,161.33931,89,127,40
161.4143,161.58931,91,127,40
161.6643,162.0393,89,127,40
162.1643,162.33931,91,127,40
162.4143,162.58931,92,127,40
162.6643,162.92516,86,127,40
163.0121,163.15341,89,127,40
163.18602,163.44688,80,127,40
163.53384,163.67516,84,127,40
163.70776,163.98045,77,127,40
164.07137,164.2191,80,127,40
164.25319,164.52591,74,127,40
164.61682,164.76456,77,127,40
164.79865,166.28952,62,127,40
164.79865,166.28952,71,127,40
166.46095,166.74666,83,127,40
166.8419,166.99666,86,127,40
167.03238,167.3181,77,127,40
167.41333,167.56808,80,127,40
167.6038,167.88953,74,127,40
167.98476,168.13953,77,127,40
168.17523,168.50847,71,127,40
168.61958,168.80014,74,127,40
168.8418,169.24167,71,127,40
169.375,169.59166,74,127,40
169.64166,172.64145,67,127,40
174.14197,174.21698,60,127,40
174.39197,174.47374,60,127,40
174.66466,174.74648,60,127,40
174.93738,175.0192,60,127,40
175.21011,175.6192,59,127,40
175.21011,175.6192,62,127,40
181.25562,181.44312,72,127,40
181.50562,181.71011,72,127,40
181.77829,181.98283,72,127,40
182.05101,182.14192,75,127,40
182.18738,182.30101,72,127,40
182.32375,182.73283,63,127,40
182.32375,182.73283,72,127,40
182.32375,182.73283,78,127,40
183.41466,183.6022,87,127,40
183.9147,184.1022,85,127,40
184.4147,184.6022,84,127,40
185.4147,185.6022,82,127,40
185.9147,186.1022,81,127,40
186.4147,186.82375,82,127,40
190.50555,190.7101,65,127,40
190.77829,191.32373,70,127,40
191.55101,191.80101,73,127,40
191.86919,192.65182,75,127,40
192.91269,193.41272,77,127,40
193.62105,193.85022,80,127,40
193.91272,194.66272,82,127,40
194.91272,195.41272,80,127,40
195.62105,195.85022,75,127,40
195.91272,196.66272,74,127,40
196.91272,197.41272,75,127,40
197.62105,197.85022,70,127,40
197.91272,198.66272,69,127,40
198.91272,199.00647,62,127,40
199.03772,199.16272,67,127,40
199.24605,199.41272,67,127,40
199.49605,199.66272,67,127,40
199.74605,199.91272,71,127,40
200.03772,200.16272,83,127,40
200.24605,200.41272,83,127,40
200.49605,200.66272,83,127,40
200.74605,200.91272,79,127,40
201.03772,201.16272,69,127,40
201.24605,201.41272,69,127,40
201.49605,201.66272,69,127,40
201.74605,201.91272,72,127,40
202.03772,202.16272,84,127,40
202.24605,202.41272,84,127,40
202.49605,202.66272,84,127,40
202.74605,202.91272,81,127,40
203.03772,203.16272,71,127,40
203.24605,203.41272,71,127,40
203.49605,203.66272,71,127,40
203.74605,203.91272,74,127,40
204.03772,204.16272,72,127,40
204.24605,204.41272,72,127,40
204.49605,204.66272,72,127,40
204.74605,204.91272,75,127,40
205.03772,205.16272,74,127,40
205.24605,205.41272,74,127,40
205.49605,205.66272,74,127,40
205.74605,205.91272,75,127,40
207.16272,207.28772,89,127,40
207.37105,207.53772,86,127,40
207.62105,207.78772,83,127,40
207.91272,208.03772,79,127,40
208.12105,208.28772,75,127,40
208.37105,208.53772,72,127,40
208.62105,208.78772,74,127,40
208.87105,208.98772,63,127,40
209.16272,209.23772,67,127,40
209.41272,209.48772,63,127,40
209.66272,209.73772,67,127,40
209.91272,209.98772,63,127,40
210.16272,210.23772,67,127,40
210.41272,210.48772,63,127,40
210.66272,210.73772,72,127,40
210.91272,210.98772,71,127,40
211.16272,211.53772,65,127,40
211.66272,212.03772,62,127,40
212.16272,212.53772,59,127,40
212.66272,212.91272,65,127,40
213.16272,213.23772,67,127,40
213.41272,213.48772,63,127,40
213.66272,213.73772,67,127,40
213.91272,213.98772,63,127,40
214.16272,214.23772,67,127,40
214.41272,214.48772,63,127,40
214.66272,214.73772,72,127,40
214.91272,214.98772,71,127,40
215.16272,215.66272,77,127,40
216.12105,216.66272,71,127,40
216.91272,216.98772,63,127,40
217.16272,217.23772,67,127,40
217.41272,217.48772,63,127,40
217.66272,217.73772,72,127,40
217.91272,218.66272,73,127,40
218.91272,218.98772,68,127,40
219.16272,219.23772,68,127,40
219.41272,219.48772,65,127,40
219.66272,219.73772,74,127,40
219.91272,220.66272,75,127,40
220.91272,220.98772,70,127,40
221.16272,221.23772,70,127,40
221.41272,221.48772,67,127,40
221.66272,221.73772,76,127,40
221.91272,221.98772,77,127,40
222.16272,222.23772,72,127,40
222.41272,222.48772,69,127,40
222.66272,222.73772,78,127,40
222.91272,224.41272,79,127,40
224.74605,224.88147,74,127,40
224.91272,225.10022,72,127,40
225.16272,225.35022,55,127,40
225.16272,225.35022,63,127,40
226.16272,226.35022,55,127,40
226.16272,226.35022,65,127,40
226.91272,226.98772,55,127,40
226.91272,226.98772,63,127,40
227.16272,227.23772,67,127,40
227.41272,227.48772,63,127,40
227.66272,227.73772,67,127,40
227.91272,227.98772,63,127,40
228.16272,228.23772,67,127,40
228.41272,228.48772,63,127,40
228.66272,228.73772,72,127,40
228.91272,228.98772,71,127,40
229.16272,229.6575,77,127,40
230.16272,230.6575,71,127,40
230.91272,230.98772,63,127,40
231.16272,231.23772,67,127,40
231.41272,231.48772,63,127,40
231.66272,231.73772,67,127,40
231.91272,231.98772,63,127,40
232.16272,232.23772,67,127,40
232.41272,232.48772,63,127,40
232.66272,232.85022,72,127,40
232.91272,233.47522,70,127,40
233.66272,233.7127,68,127,40
233.72105,233.81271,68,127,40
233.82104,233.91272,68,127,40
234.66272,234.85022,75,127,40
234.91272,235.47522,73,127,40
235.66272,235.72522,72,127,40
235.74605,235.85022,72,127,40
235.87105,236.10022,71,127,40
236.16272,236.35022,74,127,40
236.66272,236.85022,74,127,40
237.16272,237.35022,75,127,40
237.66272,237.85022,75,127,40
237.91272,238.28772,74,127,40
238.41272,239.16272,79,127,40
239.24605,239.38147,83,127,40
239.41272,239.60022,84,127,40
239.66272,239.85022,84,127,40
239.91272,240.16272,84,127,40
240.41272,240.60022,74,127,40
240.66272,240.85022,74,127,40
240.91272,241.16272,74,127,40
241.24605,241.38147,77,127,40
241.41272,241.60022,79,127,40
241.66272,241.85022,79,127,40
241.91272,242.28772,72,127,40
242.91272,243.66272,75,127,40
243.91272,244.16272,71,127,40
244.37105,245.16272,77,127,40
245.37105,245.66272,71,127,40
245.91272,246.00647,72,127,40
246.03772,246.16272,55,127,40
246.24605,246.41272,59,127,40
246.49605,246.66272,59,127,40
246.74605,246.88147,62,127,40
246.91272,247.66272,63,127,40
247.74605,247.88147,60,127,40
247.91272,248.03772,59,127,40
248.12105,248.28772,62,127,40
248.37105,248.53772,65,127,40
248.62105,248.78772,68,127,40
248.87105,249.03772,65,127,40
249.12105,249.28772,62,127,40
249.37105,249.53772,59,127,40
249.62105,249.78772,59,127,40
249.91272,250.03772,60,127,40
250.12105,250.28772,62,127,40
250.37105,250.53772,62,127,40
250.62105,250.78772,62,127,40
250.87105,251.03772,61,127,40
251.12105,251.28772,61,127,40
251.37105,251.53772,60,127,40
251.62105,251.78772,60,127,40
251.91272,252.41272,58,127,40
253.37105,253.91272,63,127,40
254.87105,255.91272,65,127,40
256.37106,257.41272,60,127,40
258.41272,259.16272,60,127,40
259.41272,260.91272,72,127,40
261.41272,261.53772,71,127,40
261.66272,261.78772,71,127,40
261.91272,262.03772,60,127,40
262.16272,262.28772,60,127,40
263.41272,263.53772,83,127,40
263.66272,263.78772,83,127,40
263.91272,264.03772,72,127,40
264.16272,264.28772,72,127,40
265.91272,265.9877,60,127,40
266.16272,266.24448,60,127,40
266.4354,266.5172,60,127,40
266.70813,266.78995,60,127,40
266.98083,267.3559,59,127,40
266.98083,267.3559,62,127,40
272.4809,272.5559,72,127,40
272.7309,272.8059,72,127,40
272.9809,273.06265,72,127,40
273.25357,273.3354,72,127,40
273.5263,273.60812,72,127,40
273.79904,273.89423,75,127,40
273.94186,274.0609,72,127,40
274.08472,274.5347,63,127,40
274.08472,274.5347,72,127,40
274.08472,274.5347,78,127,40
276.7847,277.23468,82,127,40
277.38467,277.60968,82,127,40
279.1847,279.63467,77,127,40
279.7847,280.00967,77,127,40
281.5847,282.0347,83,127,40
282.1847,282.4097,83,127,40
283.98468,284.4347,78,127,40
284.5847,284.8097,78,127,40
286.38467,286.8347,84,127,40
286.98468,287.2097,84,127,40
288.7847,289.23468,84,127,40
289.38467,289.60968,84,127,40
289.98468,290.4347,84,127,40
290.5847,290.8097,84,127,40
291.1847,291.63467,79,127,40
291.7847,292.06577,79,127,40
292.53452,293.09702,79,127,40
293.28452,293.56577,79,127,40
293.65952,294.54874,72,127,40
295.43762,296.3265,75,127,40
297.17838,297.29874,79,127,40
297.3265,297.40985,84,127,40
297.43762,297.52097,79,127,40
297.54874,297.63208,75,127,40
297.65985,297.74316,80,127,40
297.77097,297.85428,80,127,40
297.88208,297.9654,77,127,40
297.99316,298.0765,74,127,40
298.10428,298.18762,79,127,40
298.2154,298.29874,79,127,40
298.3265,298.40985,75,127,40
298.43762,298.52097,72,127,40
298.54874,298.63208,77,127,40
298.65985,298.74316,77,127,40
298.77097,298.85428,74,127,40
298.88208,298.9654,71,127,40
298.99316,299.15985,72,127,40
299.2154,299.54874,72,127,40
299.65985,299.99316,72,127,40
300.10428,300.43762,72,127,40
300.54874,300.88205,72,127,40
300.99316,301.3265,72,127,40
301.43762,301.77097,72,127,40
301.88205,302.2154,72,127,40
302.3265,302.65985,72,127,40
302.77097,303.10428,72,127,40
303.2154,303.54874,72,127,40
303.65985,303.99316,72,127,40
304.10428,304.43762,72,127,40
304.54874,304.88205,72,127,40
304.99316,305.3265,72,127,40
305.43762,305.77094,72,127,40
305.88205,306.2154,72,127,40
306.3265,306.39316,72,127,40
306.54874,306.6154,72,127,40
306.77094,306.83762,72,127,40
306.99316,307.05984,72,127,40
307.2154,307.28204,72,127,40
307.43762,307.50427,72,127,40
307.65982,307.7265,72,127,40
307.88205,308.04874,72,127,40
308.10428,308.27094,63,127,40
308.10428,308.27094,75,127,40
308.3265,308.49316,63,127,40
308.3265,308.49316,75,127,40
308.54874,308.7154,63,127,40
308.54874,308.7154,75,127,40
308.77094,308.93762,63,127,40
308.77094,308.93762,75,127,40
308.99316,309.15982,63,127,40
308.99316,309.15982,75,127,40
309.2154,309.38205,63,127,40
309.2154,309.38205,75,127,40
309.43762,309.60428,63,127,40
309.43762,309.60428,75,127,40
309.65982,309.8265,63,127,40
309.65982,309.8265,75,127,40
309.88205,309.94873,79,127,40
310.10428,310.17093,84,127,40
310.3265,310.39316,87,127,40
310.5487,311.88205,91,127,40
311.95612,312.10428,87,127,40
312.17834,312.2987,84,127,40
312.3265,312.38205,79,127,40
312.40057,312.49316,79,127,40
312.5117,312.60428,79,127,40
312.6228,312.7154,79,127,40
312.73392,312.8265,79,127,40
312.845,312.93762,79,127,40
312.95612,313.0376,79,127,40
313.045,313.1265,79,127,40
313.1339,313.2154,79,127,40
313.88205,313.94873,75,127,40
314.10428,314.17093,72,127,40
314.3265,314.39316,74,127,40
314.5487,314.6154,75,127,40
314.77094,314.83762,72,127,40
314.99316,315.0598,74,127,40
315.2154,315.28204,67,127,40
315.4376,315.77094,79,127,40
315.88205,316.2154,79,127,40
316.3265,316.65982,79,127,40
316.77094,317.27094,79,127,40
317.4376,317.50427,75,127,40
317.65982,317.7265,72,127,40
317.88205,317.9487,74,127,40
318.10428,318.17093,75,127,40
318.32648,318.39316,72,127,40
318.5487,318.88205,74,127,40
318.99316,319.32648,67,127,40
319.4376,319.60428,72,127,40
319.88205,319.99316,59,127,40
320.10428,320.21536,59,127,40
320.32648,320.4376,56,127,40
320.5487,320.65982,56,127,40
320.77094,320.88205,56,127,40
320.99316,321.10428,56,127,40
321.21536,321.32648,56,127,40
321.4376,321.5487,56,127,40
321.65982,321.77094,56,127,40
321.88205,321.99316,56,127,40
322.10428,322.27094,59,127,40
322.32648,322.4376,65,127,40
322.51166,322.65982,65,127,40
322.7339,322.88205,62,127,40
322.95612,323.10428,59,127,40
323.17834,323.32648,62,127,40
323.40057,323.5487,65,127,40
323.62277,323.77094,69,127,40
323.88205,323.99316,71,127,40
324.10425,324.21536,71,127,40
324.32648,324.4598,68,127,40
324.5487,324.68204,68,127,40
324.77094,324.90427,68,127,40
324.99316,325.1265,68,127,40
325.21536,325.3487,68,127,40
325.4376,325.57092,68,127,40
325.65982,325.74316,71,127,40
325.77094,325.88205,77,127,40
325.95612,326.10425,77,127,40
326.17834,326.32648,74,127,40
326.40054,326.52094,71,127,40
326.5487,326.65982,72,127,40
326.7339,326.88205,72,127,40
326.95612,327.10425,72,127,40
327.17834,327.32648,75,127,40
327.4376,327.5487,71,127,40
327.62277,327.77094,76,127,40
327.845,327.99313,75,127,40
328.06723,328.21536,72,127,40
328.32648,328.4376,72,127,40
328.51166,328.65982,75,127,40
328.7339,328.88205,77,127,40
328.95612,329.10425,74,127,40
329.21536,329.32648,71,127,40
329.40054,329.5487,74,127,40
329.62277,329.77094,72,127,40
329.845,329.99313,75,127,40
330.10425,330.21536,71,127,40
330.28943,330.4376,74,127,40
330.51166,330.65982,72,127,40
330.7339,330.88202,75,127,40
330.99313,331.15982,71,127,40
331.21536,331.32648,80,127,40
331.4376,331.52094,77,127,40
331.5487,331.63202,75,127,40
331.65982,331.74313,74,127,40
331.77094,331.85425,72,127,40
331.88202,331.96536,71,127,40
331.99313,332.07648,68,127,40
332.10425,332.1876,67,127,40
332.21536,332.2987,65,127,40
332.32648,332.40982,63,127,40
332.4376,332.52094,62,127,40
332.5487,332.63202,60,127,40
332.65982,332.74313,59,127,40
332.77094,333.14587,60,127,40
333.77087,334.1799,60,127,40
333.77087,334.1799,67,127,40
333.77087,334.1799,75,127,40
334.86172,335.2708,55,127,40
334.86172,335.2708,63,127,40
334.86172,335.2708,72,127,40
10.43229,10.568653,74,127,40
20.76894,21.09452,74,127,40
21.745682,21.931728,72,127,40
22.513123,23.048004,75,127,40
23.280561,23.536375,72,127,40
24.247675,24.383091,60,127,40
24.497675,24.633091,60,127,40
26.505201,26.641565,59,127,40
31.031763,31.19843,57,127,40
31.281763,31.44843,57,127,40
31.531763,31.69843,60,127,40
32.031765,32.19843,75,127,40
32.281765,32.44843,75,127,40
32.531765,32.69843,72,127,40
33.031765,33.19843,59,127,40
33.281765,33.44843,59,127,40
33.531765,33.69843,62,127,40
34.031765,34.19843,77,127,40
34.281765,34.44843,77,127,40
34.531765,34.69843,74,127,40
35.031765,35.19843,61,127,40
35.281765,35.44843,61,127,40
35.531765,35.69843,63,127,40
36.031765,36.19843,62,127,40
36.281765,36.44843,62,127,40
36.531765,36.69843,65,127,40
37.031765,37.19843,64,127,40
37.281765,37.44843,64,127,40
37.531765,37.69843,67,127,40
37.781765,38.19843,56,127,40
39.156765,39.32343,80,127,40
39.406765,39.57343,77,127,40
39.656765,39.82343,74,127,40
39.906765,40.07343,74,127,40
40.156765,40.32343,72,127,40
40.406765,40.57343,70,127,40
40.656765,40.79218,68,127,40
50.781765,50.89843,77,127,40
52.781765,52.89843,79,127,40
56.281765,56.69843,80,127,40
56.781765,57.07343,75,127,40
61.531765,62.07343,65,127,40
65.53176,65.6151,71,127,40
65.65676,65.76093,70,127,40
65.78176,66.01093,70,127,40
67.53176,67.6151,63,127,40
67.65676,67.76093,61,127,40
67.78176,68.07343,62,127,40
69.82343,70.01093,74,127,40
71.03176,71.19843,84,127,40
71.28176,71.51093,87,127,40
72.03176,72.26093,77,127,40
73.03176,73.19843,79,127,40
73.28176,73.51093,82,127,40
75.53176,75.76093,75,127,40
76.03176,76.32343,77,127,40
77.03176,77.32343,77,127,40
77.53176,77.76093,70,127,40
78.03176,78.19843,60,127,40
78.28176,78.44843,63,127,40
78.53176,78.69843,63,127,40
78.78176,79.57343,67,127,40
79.65676,79.79218,63,127,40
79.90676,80.07343,63,127,40
80.15676,80.32343,67,127,40
80.40676,80.57343,70,127,40
80.65676,80.82343,70,127,40
80.90676,81.07343,67,127,40
81.15676,81.32343,63,127,40
81.40676,81.57343,60,127,40
81.65676,81.79218,58,127,40
81.90676,82.07343,67,127,40
82.15676,82.32343,67,127,40
82.40676,82.57343,67,127,40
82.65676,82.82343,67,127,40
82.90676,83.07343,67,127,40
83.15676,83.32343,67,127,40
83.40676,83.57343,67,127,40
83.65676,83.79218,67,127,40
84.28176,85.32343,67,127,40
86.28176,87.32343,67,127,40
88.28176,89.32343,67,127,40
91.40676,91.54218,67,127,40
91.65676,91.79218,67,127,40
93.40676,93.54218,79,127,40
93.65676,93.79218,79,127,40
103.82338,103.95974,74,127,40
109.70974,110.02792,74,127,40
110.66428,110.8461,72,127,40
111.380196,111.93701,76,127,40
112.16428,112.41428,72,127,40
112.57337,112.755196,72,127,40
112.8461,112.99383,71,127,40
113.5961,113.70974,81,127,40
113.73247,113.8461,81,127,40
113.86883,113.98247,81,127,40
114.00519,114.11883,81,127,40
114.141556,114.25519,81,127,40
114.277916,114.391556,81,127,40
114.41428,114.527916,81,127,40
114.550644,114.66428,81,127,40
114.68701,114.800644,81,127,40
114.82337,114.93701,81,127,40
114.95973,115.07337,81,127,40
115.0961,115.20973,81,127,40
115.23246,115.3461,81,127,40
115.36883,115.48246,81,127,40
115.50519,115.61883,81,127,40
115.641556,115.75519,81,127,40
115.777916,115.891556,81,127,40
115.91428,116.027916,81,127,40
116.050644,116.16428,81,127,40
116.187004,116.300644,81,127,40
116.32337,116.437004,81,127,40
116.48246,116.57337,79,127,40
116.664276,116.8461,78,127,40
118.57337,118.75519,78,127,40
118.84609,118.99382,76,127,40
119.25519,119.50519,77,127,40
119.937004,120.08473,76,127,40
120.75519,120.937004,76,127,40
121.02791,121.17564,74,127,40
121.437004,121.687004,76,127,40
122.323364,122.437004,74,127,40
122.459724,122.573364,74,127,40
122.59609,122.709724,74,127,40
122.75518,122.84609,72,127,40
123.073364,123.323364,76,127,40
123.61882,123.937,69,127,40
124.709724,124.89154,72,127,40
128.39154,128.57336,80,127,40
128.66426,128.812,77,127,40
130.57335,130.75517,78,127,40
130.84608,130.9938,76,127,40
135.41426,135.5279,86,127,40
135.55063,135.66426,86,127,40
135.68698,135.80063,86,127,40
135.84608,135.93698,84,127,40
136.16426,136.41426,88,127,40
136.70972,137.0279,81,127,40
137.80063,137.98244,84,127,40
151.24763,151.38306,59,127,40
151.49763,151.63306,59,127,40
152.24763,152.38306,60,127,40
152.49763,152.63306,60,127,40
159.12263,159.9143,86,127,40
162.88167,163.05559,87,127,40
163.40341,163.57732,82,127,40
163.93501,164.11682,79,127,40
164.48045,164.66228,75,127,40
166.69905,166.88953,84,127,40
167.27048,167.46095,79,127,40
167.8419,168.03238,75,127,40
168.45291,168.67514,72,127,40
169.175,169.44167,72,127,40
182.09647,182.23283,73,127,40
191.27829,191.59647,72,127,40
193.37105,193.66272,79,127,40
195.37105,195.66272,77,127,40
197.37105,197.66272,72,127,40
199.12105,199.28772,66,127,40
199.37105,199.53772,66,127,40
199.62105,199.78772,69,127,40
200.12105,200.28772,84,127,40
200.37105,200.53772,84,127,40
200.62105,200.78772,81,127,40
201.12105,201.28772,68,127,40
201.37105,201.53772,68,127,40
201.62105,201.78772,71,127,40
202.12105,202.28772,86,127,40
202.37105,202.53772,86,127,40
202.62105,202.78772,83,127,40
203.12105,203.28772,69,127,40
203.37105,203.53772,69,127,40
203.62105,203.78772,72,127,40
204.12105,204.28772,71,127,40
204.37105,204.53772,71,127,40
204.62105,204.78772,74,127,40
205.12105,205.28772,73,127,40
205.37105,205.53772,73,127,40
205.62105,205.78772,77,127,40
205.87105,206.16272,74,127,40
207.24605,207.41272,87,127,40
207.49605,207.66272,84,127,40
207.74605,207.91272,80,127,40
207.99605,208.16272,77,127,40
208.24605,208.41272,74,127,40
208.49605,208.66272,71,127,40
208.74605,208.91272,65,127,40
212.87105,213.10022,63,127,40
215.62105,216.16272,74,127,40
216.62105,216.73772,65,127,40
224.37105,224.78772,77,127,40
229.66272,230.1575,74,127,40
230.66272,230.73772,65,127,40
233.67105,233.76271,70,127,40
233.77104,233.86272,67,127,40
233.91272,234.10022,67,127,40
235.68355,235.78772,73,127,40
235.80855,235.91272,73,127,40
239.12105,239.28772,81,127,40
240.12105,240.35022,74,127,40
241.12105,241.28772,75,127,40
243.62105,243.85022,72,127,40
244.12105,244.41272,74,127,40
245.12105,245.41272,74,127,40
245.62105,245.85022,67,127,40
246.12105,246.28772,57,127,40
246.37105,246.53772,60,127,40
246.62105,246.78772,60,127,40
247.62105,247.78772,62,127,40
247.99605,248.16272,60,127,40
248.24605,248.41272,63,127,40
248.49605,248.66272,67,127,40
248.74605,248.91272,67,127,40
248.99605,249.16272,63,127,40
249.24605,249.41272,60,127,40
249.49605,249.66272,57,127,40
249.74605,249.88147,55,127,40
249.99605,250.16272,63,127,40
250.24605,250.41272,63,127,40
250.49605,250.66272,63,127,40
250.74605,250.91272,63,127,40
250.99605,251.16272,63,127,40
251.24605,251.41272,63,127,40
251.49605,251.66272,63,127,40
251.74605,251.88147,63,127,40
252.41272,253.41272,63,127,40
253.87105,254.91272,64,127,40
255.87105,256.41272,67,127,40
257.41272,258.41272,60,127,40
261.49606,261.63147,72,127,40
261.74606,261.88147,72,127,40
263.49606,263.63147,84,127,40
263.74606,263.88147,84,127,40
273.84662,273.98947,73,127,40
294.54874,295.43762,77,127,40
296.3265,297.2154,80,127,40
311.88205,311.99316,89,127,40
312.06723,312.2154,86,127,40
312.345,312.43762,80,127,40
312.45612,312.5487,80,127,40
312.56723,312.65982,80,127,40
312.67834,312.77094,80,127,40
312.78946,312.88205,80,127,40
312.90057,312.99316,80,127,40
313.00058,313.08206,80,127,40
313.08945,313.17093,78,127,40
313.2154,313.7154,79,127,40
319.95612,320.07648,60,127,40
320.17834,320.2987,60,127,40
322.40057,322.5487,64,127,40
322.62277,322.77094,63,127,40
322.845,322.99316,60,127,40
323.06723,323.21536,60,127,40
323.28946,323.4376,63,127,40
323.51166,323.65982,67,127,40
323.7339,323.85425,71,127,40
323.95612,324.07648,72,127,40
324.17834,324.2987,72,127,40
325.845,325.99316,76,127,40
326.06723,326.21536,75,127,40
326.28946,326.4376,72,127,40
326.62277,326.77094,74,127,40
326.845,326.99313,71,127,40
327.06723,327.21536,74,127,40
327.28946,327.40982,72,127,40
327.51166,327.65982,77,127,40
327.7339,327.88205,77,127,40
327.95612,328.10425,74,127,40
328.17834,328.2987,71,127,40
328.40054,328.5487,74,127,40
328.62277,328.77094,74,127,40
328.845,328.99313,75,127,40
329.06723,329.1876,72,127,40
329.28943,329.4376,77,127,40
329.51166,329.65982,71,127,40
329.7339,329.88205,74,127,40
329.95612,330.07648,72,127,40
330.17834,330.32648,77,127,40
330.40054,330.5487,71,127,40
330.62277,330.77094,74,127,40
330.845,330.96536,72,127,40
331.28943,331.40982,79,127,40
65.57343,65.65676,73,127,40
67.57343,67.65676,64,127,40
116.437004,116.527916,78,127,40
122.709724,122.80064,71,127,40
135.80063,135.89154,83,127,40
