start_time,end_time,note_value,velocity,instrument_program_number
0.0,0.359375,56,80,0
0.375,0.734375,51,80,0
0.75,1.109375,56,80,0
0.0,1.484375,60,80,0
1.125,1.484375,51,80,0
1.5,1.859375,55,80,0
1.875,2.234375,51,80,0
2.25,2.609375,55,80,0
1.5,2.984375,58,80,0
2.625,2.984375,51,80,0
3.0,3.359375,56,80,0
3.375,3.734375,51,80,0
3.75,4.109375,56,80,0
4.125,4.484375,51,80,0
4.5,4.859375,58,80,0
3.0,5.234375,63,80,0
4.875,5.234375,51,80,0
5.25,5.609375,58,80,0
5.25,5.984375,61,80,0
5.625,5.984375,51,80,0
6.0,6.359375,56,80,0
6.0,6.734375,60,80,0
6.375,6.734375,51,80,0
6.75,7.109375,58,80,0
6.75,7.484375,63,80,0
7.125,7.484375,51,80,0
7.5,7.859375,60,80,0
7.5,8.234375,68,80,0
7.875,8.234375,51,80,0
8.25,8.609375,62,80,0
8.25,8.984375,70,80,0
8.625,8.984375,51,80,0
9.0,9.359375,55,80,0
9.375,9.734375,58,80,0
9.75,10.109375,55,80,0
10.125,10.484375,58,80,0
10.5,10.859375,55,80,0
9.0,11.234375,63,80,0
10.875,11.234375,58,80,0
11.25,11.609375,55,80,0
11.25,11.984375,64,80,0
11.625,11.984375,58,80,0
12.0,12.359375,55,80,0
12.375,12.734375,58,80,0
12.75,13.109375,55,80,0
12.0,13.484375,65,80,0
13.125,13.484375,58,80,0
13.5,13.859375,55,80,0
13.875,14.234375,51,80,0
13.5,14.609375,58,80,0
14.25,14.609375,55,80,0
14.625,14.796875,60,80,0
14.625,14.984375,51,80,0
14.8125,14.984375,61,80,0
15.0,15.359375,56,80,0
15.375,15.734375,51,80,0
15.75,16.109375,56,80,0
15.0,16.484375,63,80,0
16.125,16.484375,51,80,0
16.5,16.859375,51,80,0
16.875,17.234375,48,80,0
17.25,17.609375,51,80,0
16.5,17.984375,57,80,0
17.625,17.984375,48,80,0
18.0,18.359375,53,80,0
18.375,18.734375,49,80,0
18.75,19.109375,53,80,0
18.0,19.484375,61,80,0
19.125,19.484375,49,80,0
19.5,19.859375,60,80,0
19.5,19.859375,49,80,0
19.875,20.234375,58,80,0
19.875,20.234375,49,80,0
20.25,20.609375,56,80,0
20.25,20.609375,49,80,0
20.625,20.984375,55,80,0
20.625,20.984375,49,80,0
21.0,21.359375,49,80,0
21.375,21.734375,51,80,0
21.75,22.109375,49,80,0
21.0,22.484375,58,80,0
21.0,22.484375,55,80,0
22.125,22.484375,51,80,0
22.5,22.734375,56,80,0
22.5,22.734375,48,80,0
22.75,22.984375,51,80,0
23.0,23.234375,56,80,0
23.25,23.484375,60,80,0
23.5,23.734375,63,80,0
23.75,23.984375,68,80,0
24.0,24.359375,60,80,0
24.375,24.734375,63,80,0
24.75,25.109375,60,80,0
24.0,25.484375,72,92,0
25.125,25.484375,63,80,0
25.5,25.859375,58,80,0
25.875,26.234375,63,80,0
26.25,26.609375,58,80,0
25.5,26.984375,70,92,0
26.625,26.984375,63,80,0
27.0,27.359375,63,80,0
27.375,27.734375,68,80,0
27.75,28.109375,63,80,0
28.125,28.484375,68,80,0
28.5,28.859375,63,80,0
27.0,29.234375,75,95,0
28.875,29.234375,70,80,0
29.25,29.609375,63,80,0
29.25,29.984375,73,90,0
29.625,29.984375,70,80,0
30.0,30.359375,63,80,0
30.0,30.734375,72,90,0
30.375,30.734375,68,80,0
30.75,31.109375,63,80,0
30.75,31.484375,75,92,0
31.125,31.484375,70,80,0
31.5,31.859375,68,80,0
31.5,32.234375,80,92,0
31.875,32.234375,72,80,0
32.25,32.609375,68,80,0
32.25,32.984375,82,94,0
32.625,32.984375,74,80,0
33.0,33.359375,67,80,0
33.375,33.734375,70,80,0
33.75,34.109375,67,80,0
34.125,34.484375,70,80,0
34.5,34.859375,67,80,0
33.0,35.234375,75,94,0
34.875,35.234375,70,81,0
35.25,35.609375,67,80,0
35.25,35.984375,76,90,0
35.625,35.984375,70,80,0
36.0,36.359375,67,80,0
36.375,36.734375,70,80,0
36.75,37.109375,67,80,0
36.0,37.484375,77,90,0
37.125,37.484375,70,80,0
37.5,37.859375,67,80,0
37.875,38.234375,63,80,0
37.5,38.609375,70,93,0
38.25,38.609375,67,80,0
38.625,38.796875,72,93,0
38.625,38.984375,63,80,0
38.8125,38.984375,73,91,0
39.0,39.359375,68,80,0
39.375,39.734375,63,80,0
39.75,40.109375,68,80,0
39.0,40.484375,75,93,0
40.125,40.484375,63,80,0
40.5,40.859375,63,80,0
40.875,41.234375,60,80,0
41.25,41.609375,63,80,0
40.5,41.984375,69,91,0
41.625,41.984375,60,80,0
42.0,42.359375,65,80,0
42.375,42.734375,61,80,0
42.75,43.109375,65,80,0
42.0,43.484375,73,92,0
43.125,43.484375,61,80,0
43.5,43.859375,72,90,0
43.5,43.859375,61,80,0
43.875,44.234375,70,90,0
43.875,44.234375,61,80,0
44.25,44.609375,68,90,0
44.25,44.609375,61,80,0
44.625,44.984375,67,90,0
44.625,44.984375,61,80,0
45.0,45.38851,61,80,0
45.405407,45.79392,63,80,0
45.81081,46.221523,61,80,0
45.0,46.650097,70,91,0
46.23938,46.650097,63,80,0
46.667953,47.507236,68,91,0
46.667953,47.507236,60,80,0
47.770996,48.006653,60,90,0
48.0169,49.876274,72,90,0
49.8919,50.251274,80,90,0
50.2669,50.626274,79,90,0
50.6419,51.001274,77,90,0
51.0169,52.876274,84,90,0
52.8919,53.251274,80,90,0
53.2669,53.626274,79,90,0
53.6419,54.001274,77,90,0
54.0169,55.876274,72,90,0
55.8919,56.251274,80,90,0
56.2669,56.626274,79,90,0
56.6419,57.001274,77,90,0
57.0169,57.751274,75,90,0
57.7669,58.876274,74,90,0
58.8919,59.063774,75,90,0
58.98565,59.157524,74,90,0
59.0794,59.251274,72,90,0
59.17315,59.251274,74,90,0
59.2669,59.813774,77,90,0
59.8294,60.001274,75,90,0
60.0169,61.501274,75,90,0
61.5169,62.251274,65,90,0
62.2669,62.438774,67,90,0
62.36065,62.532524,65,90,0
62.4544,62.626274,64,90,0
62.54815,62.626274,65,90,0
62.6419,62.813774,68,90,0
62.8294,63.001274,72,90,0
63.0169,63.13203,71,90,0
63.082687,63.19782,72,90,0
63.148476,63.26361,74,90,0
63.214268,63.395187,72,90,0
63.31295,63.395187,70,90,0
63.411636,64.18466,79,90,0
64.20111,64.38203,77,90,0
64.398476,64.5794,75,90,0
64.59585,64.792274,74,90,0
64.810135,65.00656,72,90,0
65.024414,65.22085,70,90,0
65.2387,65.43513,69,90,0
65.45299,65.68215,72,90,0
65.70299,65.93215,70,90,0
65.95299,66.18215,68,90,0
66.20299,66.43215,65,90,0
66.45299,67.43215,63,80,0
67.95299,68.43215,58,80,0
68.45299,68.81236,55,80,0
68.82799,69.18736,58,80,0
69.20299,69.56236,55,80,0
69.57799,69.93736,51,80,0
69.95299,70.31236,51,90,0
69.95299,70.68736,56,80,0
69.95299,70.68736,53,80,0
70.32799,70.68736,50,91,0
70.70299,71.06236,50,92,0
70.70299,71.43736,56,80,0
70.70299,71.43736,53,80,0
71.07799,71.43736,48,92,0
71.45299,71.81236,48,93,0
71.45299,72.18736,56,80,0
71.45299,72.18736,53,80,0
71.82799,72.18736,47,92,0
72.20299,72.56236,47,94,0
72.20299,72.93736,56,80,0
72.20299,72.93736,53,80,0
72.57799,72.93736,46,95,0
72.95299,73.68736,55,80,0
72.95299,73.68736,51,80,0
72.95299,73.68736,46,80,0
75.20299,75.74986,58,80,0
75.76549,75.93736,63,80,0
75.95299,76.31236,63,80,0
76.32799,76.68736,62,80,0
76.70299,77.06236,62,80,0
75.95299,77.43736,56,80,0
75.95299,77.43736,53,80,0
77.07799,77.43736,60,80,0
77.45299,77.81236,60,80,0
77.82799,78.18736,59,80,0
78.20299,78.56236,59,80,0
77.45299,78.93736,56,80,0
77.45299,78.93736,53,80,0
78.57799,78.93736,58,80,0
78.95299,79.31236,53,80,0
79.32799,79.68736,52,81,0
79.70299,80.06236,52,82,0
80.07799,80.43736,51,84,0
80.45299,80.81236,51,85,0
80.82799,81.18736,50,87,0
81.20299,81.56236,50,88,0
81.57799,81.93736,51,89,0
81.95299,82.31236,51,90,0
82.32799,82.68736,52,88,0
82.70299,83.06236,52,85,0
83.07799,83.43736,51,82,0
83.45299,83.8415,51,79,0
83.85839,84.24691,50,76,0
84.2638,84.67749,50,73,0
78.95299,85.17749,55,80,0
78.95299,85.17749,58,80,0
84.69832,85.17749,49,71,0
85.19832,85.55769,56,80,0
85.19832,85.55769,48,80,0
85.57332,85.93269,51,80,0
85.94832,86.30769,56,80,0
85.19832,86.68269,60,80,0
86.32332,86.68269,51,80,0
86.69832,87.05769,55,80,0
87.07332,87.43269,51,80,0
87.44832,87.80769,55,80,0
86.69832,88.18269,58,80,0
87.82332,88.18269,51,80,0
88.19832,88.55769,56,80,0
88.57332,88.93269,51,80,0
88.94832,89.30769,56,80,0
89.32332,89.68269,51,80,0
89.69832,90.05769,58,80,0
88.19832,90.43269,63,80,0
90.07332,90.43269,51,80,0
90.44832,90.80769,58,80,0
90.44832,91.18269,61,80,0
90.82332,91.18269,51,80,0
91.19832,91.55769,56,80,0
91.19832,91.93269,60,80,0
91.57332,91.93269,51,80,0
91.94832,92.30769,58,80,0
91.94832,92.68269,63,80,0
92.32332,92.68269,51,80,0
92.69832,93.05769,60,80,0
92.69832,93.43269,68,80,0
93.07332,93.43269,51,80,0
93.44832,93.80769,62,80,0
93.44832,94.18269,70,80,0
93.82332,94.18269,51,80,0
94.19832,94.55769,55,80,0
94.57332,94.93269,58,80,0
94.94832,95.30769,55,80,0
95.32332,95.68269,58,80,0
95.69832,96.05769,55,80,0
94.19832,96.43269,63,80,0
96.07332,96.43269,58,80,0
96.44832,96.80769,55,80,0
96.44832,97.18269,64,80,0
96.82332,97.18269,58,80,0
97.19832,97.55769,55,80,0
97.57332,97.93269,58,80,0
97.94832,98.30769,55,80,0
97.19832,98.68269,65,80,0
98.32332,98.68269,58,80,0
98.69832,99.05769,55,80,0
99.07332,99.43269,51,80,0
98.69832,99.80769,58,80,0
99.44832,99.80769,55,80,0
99.82332,99.99519,60,80,0
99.82332,100.18269,51,80,0
100.01082,100.18269,61,80,0
100.19832,100.55769,56,80,0
100.57332,100.93269,51,80,0
100.94832,101.30769,56,80,0
100.19832,101.68269,63,80,0
101.32332,101.68269,51,80,0
101.69832,102.05769,51,80,0
102.07332,102.43269,48,80,0
102.44832,102.80769,51,80,0
101.69832,103.18269,57,80,0
102.82332,103.18269,48,80,0
103.19832,103.55769,53,80,0
103.57332,103.93269,49,80,0
103.94832,104.30769,53,80,0
103.19832,104.68269,61,80,0
104.32332,104.68269,49,80,0
104.69832,105.05769,60,80,0
104.69832,105.05769,49,80,0
105.07332,105.43269,58,80,0
105.07332,105.43269,49,80,0
105.44832,105.80769,56,80,0
105.44832,105.80769,49,80,0
105.82332,106.18269,55,80,0
105.82332,106.18269,49,80,0
106.19832,106.576614,49,80,0
106.593056,106.97135,51,80,0
106.98779,107.398506,49,80,0
106.19832,107.82708,58,80,0
106.19832,107.82708,55,80,0
107.41637,107.82708,51,80,0
107.84494,108.68423,56,80,0
107.84494,108.68423,48,80,0
108.70208,109.54137,63,80,0
109.55922,109.793594,63,80,0
109.55922,109.793594,59,80,0
109.80922,110.043594,63,80,0
109.80922,110.043594,59,80,0
109.55922,110.293594,68,91,0
110.05922,110.293594,63,80,0
110.05922,110.293594,59,80,0
110.30922,110.543594,63,80,0
110.30922,110.543594,59,80,0
110.55922,110.793594,63,80,0
110.55922,110.793594,59,80,0
110.30922,111.043594,71,91,0
110.80922,111.043594,63,80,0
110.80922,111.043594,59,80,0
111.05922,111.293594,63,80,0
111.05922,111.293594,59,80,0
111.30922,111.543594,63,80,0
111.30922,111.543594,59,80,0
111.05922,111.793594,70,94,0
111.55922,111.793594,63,80,0
111.55922,111.793594,59,80,0
111.80922,112.043594,63,80,0
111.80922,112.043594,59,80,0
112.05922,112.293594,63,80,0
112.05922,112.293594,59,80,0
111.80922,112.543594,68,92,0
112.30922,112.543594,63,80,0
112.30922,112.543594,59,80,0
112.55922,112.793594,63,80,0
112.55922,112.793594,61,80,0
112.80922,113.043594,63,80,0
112.80922,113.043594,61,80,0
112.55922,113.293594,67,92,0
113.05922,113.293594,63,80,0
113.05922,113.293594,61,80,0
113.30922,113.543594,63,80,0
113.30922,113.543594,61,80,0
113.55922,113.793594,63,80,0
113.55922,113.793594,61,80,0
113.30922,114.043594,73,93,0
113.80922,114.043594,63,80,0
113.80922,114.043594,61,80,0
114.05922,114.293594,63,80,0
114.05922,114.293594,61,80,0
114.30922,114.543594,63,80,0
114.30922,114.543594,61,80,0
114.55922,114.793594,63,80,0
114.55922,114.793594,61,80,0
114.80922,115.043594,63,80,0
114.80922,115.043594,61,80,0
115.05922,115.293594,63,80,0
115.05922,115.293594,61,80,0
115.30922,115.543594,63,80,0
115.30922,115.543594,61,80,0
115.55922,115.793594,63,80,0
115.55922,115.793594,59,80,0
115.80922,116.043594,63,80,0
115.80922,116.043594,59,80,0
115.55922,116.293594,68,91,0
116.05922,116.293594,63,80,0
116.05922,116.293594,59,80,0
116.30922,116.543594,63,80,0
116.30922,116.543594,59,80,0
116.55922,116.793594,63,80,0
116.55922,116.793594,59,80,0
116.30922,117.043594,71,93,0
116.80922,117.043594,63,80,0
116.80922,117.043594,59,80,0
117.05922,117.293594,63,80,0
117.05922,117.293594,59,80,0
117.30922,117.543594,63,80,0
117.30922,117.543594,59,80,0
117.05922,117.793594,70,90,0
117.55922,117.793594,63,80,0
117.55922,117.793594,59,80,0
117.80922,118.043594,63,80,0
117.80922,118.043594,59,80,0
118.05922,118.293594,63,80,0
118.05922,118.293594,59,80,0
117.80922,118.543594,68,94,0
118.30922,118.543594,63,80,0
118.30922,118.543594,59,80,0
118.55922,118.793594,63,80,0
118.55922,118.793594,58,80,0
118.80922,119.043594,63,80,0
118.80922,119.043594,58,80,0
118.55922,119.293594,68,90,0
119.05922,119.293594,63,80,0
119.05922,119.293594,58,80,0
119.30922,119.543594,63,80,0
119.30922,119.543594,58,80,0
119.55922,119.793594,63,80,0
119.55922,119.793594,58,80,0
119.30922,120.043594,67,90,0
119.80922,120.043594,63,80,0
119.80922,120.043594,58,80,0
120.05922,120.293594,63,80,0
120.05922,120.293594,58,80,0
120.05922,120.293594,55,80,0
120.30922,120.543594,63,80,0
120.30922,120.543594,58,80,0
120.30922,120.543594,55,80,0
120.55922,120.793594,63,80,0
120.55922,120.793594,58,80,0
120.55922,120.793594,55,80,0
120.80922,121.043594,63,80,0
120.80922,121.043594,58,80,0
120.80922,121.043594,55,80,0
121.05922,121.293594,63,80,0
121.05922,121.293594,58,80,0
121.05922,121.293594,55,80,0
121.30922,121.543594,63,80,0
121.30922,121.543594,58,80,0
121.30922,121.543594,55,80,0
121.55922,121.793594,63,70,0
121.55922,121.793594,59,70,0
121.80922,122.043594,63,71,0
121.80922,122.043594,59,71,0
121.55922,122.293594,68,70,0
122.05922,122.293594,63,73,0
122.05922,122.293594,59,73,0
122.30922,122.543594,63,75,0
122.30922,122.543594,59,75,0
122.55922,122.793594,63,77,0
122.55922,122.793594,59,77,0
122.30922,123.043594,71,75,0
122.80922,123.043594,63,79,0
122.80922,123.043594,59,79,0
123.05922,123.293594,63,80,0
123.05922,123.293594,59,80,0
123.30922,123.543594,63,82,0
123.30922,123.543594,59,82,0
123.05922,123.793594,70,80,0
123.55922,123.793594,63,84,0
123.55922,123.793594,59,84,0
123.80922,124.043594,63,86,0
123.80922,124.043594,59,86,0
124.05922,124.293594,63,88,0
124.05922,124.293594,59,88,0
123.80922,124.543594,68,86,0
124.30922,124.543594,63,89,0
124.30922,124.543594,59,89,0
124.55922,125.293594,66,100,0
124.55922,125.543594,78,100,0
125.55922,125.793594,75,100,0
125.80922,126.043594,71,100,0
126.05922,126.793594,71,100,0
126.05922,126.793594,83,100,0
127.05922,127.293594,80,100,0
127.30922,127.543594,76,100,0
127.55922,128.2936,76,100,0
127.55922,128.5436,88,100,0
128.55922,128.7936,85,100,0
128.80922,129.0436,82,100,0
129.05922,129.7936,71,100,0
129.05922,129.7936,83,100,0
129.80922,130.5436,63,100,0
129.80922,130.5436,59,100,0
129.80922,130.5436,57,100,0
129.80922,130.5436,54,100,0
130.55922,130.7936,59,100,0
130.55922,130.7936,56,100,0
130.55922,130.7936,64,100,0
130.80922,131.0436,59,80,0
130.80922,131.0436,56,80,0
131.05922,131.2936,59,80,0
131.05922,131.2936,56,80,0
131.30922,131.5436,59,80,0
131.30922,131.5436,56,80,0
131.55922,131.7936,59,80,0
131.55922,131.7936,56,80,0
131.80922,132.0436,59,80,0
131.80922,132.0436,56,80,0
132.05922,132.2936,59,80,0
132.05922,132.2936,56,80,0
132.30922,132.5436,59,80,0
132.30922,132.5436,56,80,0
132.55922,132.7936,59,80,0
132.55922,132.7936,56,80,0
132.80922,133.0436,59,80,0
132.80922,133.0436,56,80,0
133.05922,133.2936,59,80,0
133.05922,133.2936,56,80,0
133.30922,133.5436,59,80,0
133.30922,133.5436,56,80,0
133.55922,133.7936,59,70,0
133.55922,133.7936,56,70,0
133.80922,134.0436,59,70,0
133.80922,134.0436,56,70,0
133.55922,134.2936,64,85,0
134.05922,134.2936,59,70,0
134.05922,134.2936,56,70,0
134.30922,134.5436,59,70,0
134.30922,134.5436,56,70,0
134.55922,134.7936,59,70,0
134.55922,134.7936,56,70,0
134.30922,135.0436,68,81,0
134.80922,135.0436,59,70,0
134.80922,135.0436,56,70,0
135.05922,135.2936,59,70,0
135.05922,135.2936,56,70,0
135.30922,135.5436,59,70,0
135.30922,135.5436,56,70,0
135.05922,135.7936,66,86,0
135.55922,135.7936,59,70,0
135.55922,135.7936,56,70,0
135.80922,136.0436,59,70,0
135.80922,136.0436,56,70,0
136.05922,136.2936,59,70,0
136.05922,136.2936,56,70,0
135.80922,136.5436,64,85,0
136.30922,136.5436,59,70,0
136.30922,136.5436,56,70,0
136.55922,136.7936,57,70,0
136.55922,136.7936,59,70,0
136.80922,137.0436,57,70,0
136.80922,137.0436,59,70,0
136.55922,137.2936,63,83,0
137.05922,137.2936,57,70,0
137.05922,137.2936,59,70,0
137.30922,137.5436,57,70,0
137.30922,137.5436,59,70,0
137.55922,137.7936,57,70,0
137.55922,137.7936,59,70,0
137.30922,138.0436,69,86,0
137.80922,138.0436,57,70,0
137.80922,138.0436,59,70,0
138.05922,138.2936,57,70,0
138.05922,138.2936,59,70,0
138.30922,138.5436,57,70,0
138.30922,138.5436,59,70,0
138.55922,138.7936,57,70,0
138.55922,138.7936,59,70,0
138.80922,139.0436,57,70,0
138.80922,139.0436,59,70,0
139.05922,139.2936,57,70,0
139.05922,139.2936,59,70,0
139.30922,139.5436,57,70,0
139.30922,139.5436,59,70,0
139.55922,139.7936,59,70,0
139.55922,139.7936,56,70,0
139.80922,140.0436,59,70,0
139.80922,140.0436,56,70,0
139.55922,140.2936,64,83,0
140.05922,140.2936,59,70,0
140.05922,140.2936,56,70,0
140.30922,140.5436,59,70,0
140.30922,140.5436,56,70,0
140.55922,140.7936,59,70,0
140.55922,140.7936,56,70,0
140.30922,141.0436,68,82,0
140.80922,141.0436,59,70,0
140.80922,141.0436,56,70,0
141.05922,141.2936,59,70,0
141.05922,141.2936,56,70,0
141.30922,141.5436,59,70,0
141.30922,141.5436,56,70,0
141.05922,141.7936,64,84,0
141.55922,141.7936,59,70,0
141.55922,141.7936,56,70,0
141.80922,142.0436,59,70,0
141.80922,142.0436,56,70,0
142.05922,142.2936,59,70,0
142.05922,142.2936,56,70,0
141.80922,142.5436,63,81,0
142.30922,142.5436,59,70,0
142.30922,142.5436,56,70,0
142.55922,142.7936,59,70,0
142.55922,142.7936,56,70,0
142.55922,142.7936,50,70,0
142.80922,143.0436,59,70,0
142.80922,143.0436,56,70,0
142.80922,143.0436,50,70,0
143.05922,143.2936,59,70,0
143.05922,143.2936,56,70,0
143.05922,143.2936,50,70,0
143.30922,143.5436,59,70,0
143.30922,143.5436,56,70,0
143.30922,143.5436,50,70,0
143.55922,143.7936,59,70,0
143.55922,143.7936,56,70,0
143.55922,143.7936,50,70,0
143.80922,144.0436,59,70,0
143.80922,144.0436,56,70,0
143.80922,144.0436,50,70,0
144.05922,144.2936,59,70,0
144.05922,144.2936,56,70,0
144.05922,144.2936,50,70,0
144.30922,144.5436,59,70,0
144.30922,144.5436,56,70,0
144.30922,144.5436,50,70,0
142.55922,144.7936,62,81,0
144.55922,144.7936,59,70,0
144.55922,144.7936,56,70,0
144.55922,144.7936,50,70,0
144.80922,145.0436,59,70,0
144.80922,145.0436,56,70,0
144.80922,145.0436,50,70,0
145.05922,145.2936,59,70,0
145.05922,145.2936,56,70,0
145.05922,145.2936,50,70,0
144.80922,145.5436,62,85,0
145.30922,145.5436,59,70,0
145.30922,145.5436,56,70,0
145.30922,145.5436,50,70,0
145.55922,145.7936,59,70,0
145.55922,145.7936,56,70,0
145.55922,145.7936,50,70,0
145.80922,146.0436,59,70,0
145.80922,146.0436,56,70,0
145.80922,146.0436,50,70,0
146.05922,146.2936,59,70,0
146.05922,146.2936,56,70,0
146.05922,146.2936,50,70,0
146.30922,146.5436,59,70,0
146.30922,146.5436,56,70,0
146.30922,146.5436,50,70,0
146.55922,146.7936,59,70,0
146.55922,146.7936,56,70,0
146.55922,146.7936,50,70,0
146.80922,147.0436,59,70,0
146.80922,147.0436,56,70,0
146.80922,147.0436,50,70,0
147.05922,147.2936,59,70,0
147.05922,147.2936,56,70,0
147.05922,147.2936,50,70,0
147.30922,147.5436,59,70,0
147.30922,147.5436,56,70,0
147.30922,147.5436,50,70,0
145.55922,147.7936,62,83,0
147.55922,147.7936,59,70,0
147.55922,147.7936,56,70,0
147.55922,147.7936,50,70,0
147.80922,148.0436,59,70,0
147.80922,148.0436,56,70,0
147.80922,148.0436,50,70,0
148.05922,148.2936,59,70,0
148.05922,148.2936,56,70,0
148.05922,148.2936,50,70,0
147.80922,148.5436,62,83,0
148.30922,148.5436,59,70,0
148.30922,148.5436,56,70,0
148.30922,148.5436,50,70,0
148.55922,148.7936,58,70,0
148.55922,148.7936,56,70,0
148.55922,148.7936,49,70,0
148.80922,149.0436,58,70,0
148.80922,149.0436,56,70,0
148.80922,149.0436,49,70,0
149.05922,149.2936,58,70,0
149.05922,149.2936,56,70,0
149.05922,149.2936,49,70,0
149.30922,149.5436,58,70,0
149.30922,149.5436,56,70,0
149.30922,149.5436,49,70,0
149.55922,149.7936,58,70,0
149.55922,149.7936,56,70,0
149.55922,149.7936,49,70,0
149.80922,150.0436,58,70,0
149.80922,150.0436,56,70,0
149.80922,150.0436,49,70,0
150.05922,150.2936,58,70,0
150.05922,150.2936,55,70,0
150.05922,150.2936,49,70,0
150.30922,150.5436,58,70,0
150.30922,150.5436,55,70,0
150.30922,150.5436,49,70,0
148.55922,150.7936,61,80,0
150.55922,150.7936,58,70,0
150.55922,150.7936,55,70,0
150.55922,150.7936,49,70,0
150.80922,151.0436,58,70,0
150.80922,151.0436,55,70,0
150.80922,151.0436,51,70,0
150.80922,151.0436,49,70,0
151.05922,151.2936,58,70,0
151.05922,151.2936,55,70,0
151.05922,151.2936,51,70,0
151.05922,151.2936,49,70,0
150.80922,151.5436,61,85,0
151.30922,151.5436,58,70,0
151.30922,151.5436,55,70,0
151.30922,151.5436,51,70,0
151.30922,151.5436,49,70,0
151.55922,151.7936,48,80,0
151.80922,152.0436,51,80,0
152.05922,152.2936,51,80,0
152.30922,152.5436,56,80,0
152.55922,152.7936,51,80,0
151.55922,153.0436,60,80,0
152.80922,153.0436,51,80,0
153.05922,153.2936,55,80,0
153.30922,153.5436,51,80,0
153.55922,153.7936,51,80,0
153.80922,154.0436,55,80,0
154.05922,154.2936,51,80,0
153.05922,154.5436,58,80,0
154.30922,154.5436,51,80,0
154.55922,154.7936,56,80,0
154.80922,155.0436,51,80,0
155.05922,155.2936,51,80,0
155.30922,155.5436,56,80,0
155.55922,155.7936,51,80,0
155.80922,156.0436,51,80,0
156.05922,156.2936,58,80,0
156.30922,156.5436,51,80,0
154.55922,156.7936,63,80,0
156.55922,156.7936,51,80,0
156.80922,157.0436,58,80,0
157.05922,157.2936,51,80,0
156.80922,157.5436,61,80,0
157.30922,157.5436,51,80,0
157.55922,157.7936,56,80,0
157.80922,158.0436,51,80,0
157.55922,158.2936,60,80,0
158.05922,158.2936,51,80,0
158.30922,158.5436,58,80,0
158.55922,158.7936,51,80,0
158.30922,159.0436,63,80,0
158.80922,159.0436,51,80,0
159.05922,159.2936,60,80,0
159.30922,159.5436,56,80,0
159.05922,159.7936,68,80,0
159.55922,159.7936,56,80,0
159.80922,160.0436,62,80,0
160.05922,160.2936,56,80,0
159.80922,160.5436,70,80,0
160.30922,160.5436,56,80,0
160.55922,160.7936,55,80,0
160.80922,161.0436,58,80,0
161.05922,161.2936,58,80,0
161.30922,161.5436,55,80,0
161.55922,161.7936,58,80,0
161.80922,162.0436,58,80,0
162.05922,162.2936,55,80,0
162.30922,162.5436,58,80,0
160.55922,162.7936,63,80,0
162.55922,162.7936,58,80,0
162.80922,163.0436,55,80,0
163.05922,163.2936,58,80,0
162.80922,163.5436,64,80,0
163.30922,163.5436,58,80,0
163.55922,163.7936,55,80,0
163.80922,164.0436,58,80,0
164.05922,164.2936,58,80,0
164.30922,164.5436,55,80,0
164.55922,164.7936,58,80,0
163.55922,165.0436,65,80,0
164.80922,165.0436,58,80,0
165.05922,165.2936,55,80,0
165.30922,165.5436,51,80,0
165.55922,165.7936,51,80,0
165.80922,166.0436,55,80,0
165.05922,166.1686,58,80,0
166.05922,166.2936,51,80,0
166.18422,166.3561,60,80,0
166.30922,166.5436,51,80,0
166.37172,166.5436,61,80,0
166.55922,166.7936,56,80,0
166.80922,167.0436,51,80,0
167.05922,167.2936,51,80,0
167.30922,167.5436,56,80,0
167.55922,167.7936,51,80,0
166.55922,168.0436,63,80,0
167.80922,168.0436,51,80,0
168.05922,168.2936,51,80,0
168.30922,168.5436,48,80,0
168.55922,168.7936,48,80,0
168.80922,169.0436,51,80,0
169.05922,169.2936,48,80,0
168.05922,169.5436,57,80,0
169.30922,169.5436,48,80,0
169.55922,169.7936,53,80,0
169.80922,170.0436,49,80,0
170.05922,170.2936,49,80,0
170.30922,170.5436,53,80,0
170.55922,170.7936,49,80,0
169.55922,171.0436,61,80,0
170.80922,171.0436,49,80,0
171.05922,171.3126,55,80,0
171.05922,171.3126,61,80,0
171.3295,171.58287,49,80,0
171.3295,171.58287,60,80,0
171.59976,171.85313,49,80,0
171.59976,171.85313,58,80,0
171.87004,172.1379,49,80,0
171.87004,172.1379,58,80,0
172.15575,172.4236,49,80,0
172.15575,172.4236,56,80,0
172.44147,172.70932,49,80,0
172.44147,172.70932,55,80,0
172.72717,172.99503,49,80,0
173.0129,173.28075,51,80,0
173.2986,173.56647,51,80,0
173.58432,173.83102,49,80,0
173.84747,174.0942,51,80,0
172.72717,174.35735,58,80,0
172.72717,174.35735,55,80,0
174.11064,174.35735,51,80,0
174.3738,174.6205,56,80,0
174.3738,174.6205,48,80,0
174.63695,174.88367,51,80,0
174.9001,175.14682,56,80,0
175.16327,175.40997,60,80,0
175.42642,175.67314,63,80,0
175.68958,175.9363,68,80,0
175.95274,176.19945,60,80,0
176.2159,176.4626,63,80,0
176.47905,176.72577,63,80,0
176.74222,176.98892,60,80,0
177.00537,177.25208,63,80,0
175.95274,177.51524,72,96,0
177.26852,177.51524,63,80,0
177.5317,177.7784,58,80,0
177.79485,178.04155,63,80,0
178.058,178.30472,63,80,0
178.32117,178.56787,58,80,0
178.58432,178.83102,63,80,0
177.5317,179.0942,70,94,0
178.84747,179.0942,63,80,0
179.11063,179.35735,63,80,0
179.3738,179.6205,68,80,0
179.63695,179.88365,68,80,0
179.9001,180.14682,63,80,0
180.16327,180.40997,68,80,0
180.42642,180.67313,68,80,0
180.68958,180.9363,63,80,0
180.95274,181.19945,70,80,0
179.11063,181.4626,75,93,0
181.2159,181.4626,70,80,0
181.47905,181.72577,63,80,0
181.74222,181.98892,70,80,0
181.47905,182.25208,73,96,0
182.00537,182.25208,70,80,0
182.26852,182.51524,63,80,0
182.5317,182.7784,68,80,0
182.26852,183.04155,72,99,0
182.79485,183.04155,68,80,0
183.058,183.30472,63,80,0
183.32115,183.56787,70,80,0
183.058,183.83102,75,102,0
183.58432,183.83102,70,80,0
183.84747,184.09418,68,80,0
184.11063,184.35735,72,80,0
183.84747,184.6205,80,105,0
184.3738,184.6205,72,80,0
184.63695,184.88365,68,80,0
184.9001,185.14682,74,80,0
184.63695,185.40997,82,107,0
185.16327,185.40997,74,80,0
185.42642,185.67313,67,80,0
185.68958,185.9363,70,80,0
185.95274,186.19945,70,80,0
186.2159,186.4626,67,80,0
186.47905,186.72577,70,80,0
186.7422,186.98892,70,80,0
187.00537,187.25208,67,80,0
187.26852,187.51524,70,80,0
185.42642,187.7784,75,104,0
187.53168,187.7784,70,80,0
187.79485,188.04155,67,80,0
188.058,188.3047,70,80,0
187.79485,188.56787,76,96,0
188.32115,188.56787,70,80,0
188.58432,188.83102,67,80,0
188.84747,189.09418,70,80,0
189.11063,189.35735,70,80,0
189.3738,189.6205,67,80,0
189.63695,189.88365,70,80,0
188.58432,190.14682,77,95,0
189.9001,190.14682,70,80,0
190.16327,190.40997,67,80,0
190.42642,190.67313,63,80,0
190.68958,190.9363,63,80,0
190.95273,191.19945,67,80,0
190.16327,191.33102,70,95,0
191.2159,191.4626,63,80,0
191.34747,191.5284,72,97,0
191.47905,191.72577,63,80,0
191.54485,191.72577,73,94,0
191.7422,191.98892,68,80,0
192.00537,192.25208,63,80,0
192.26852,192.51523,63,80,0
192.53168,192.7784,68,80,0
192.79485,193.04155,63,80,0
191.7422,193.3047,75,96,0
193.058,193.3047,63,80,0
193.32115,193.56787,63,80,0
193.58432,193.83102,60,80,0
193.84747,194.09418,60,80,0
194.11063,194.35735,63,80,0
194.3738,194.6205,60,80,0
193.32115,194.88365,69,94,0
194.63695,194.88365,60,80,0
194.9001,195.14682,65,80,0
195.16325,195.40997,61,80,0
195.42642,195.67313,61,80,0
195.68958,195.9363,65,80,0
195.95273,196.19945,61,80,0
194.9001,196.4626,73,101,0
196.2159,196.4626,61,80,0
196.47905,196.73242,67,80,0
196.47905,196.73242,73,96,0
196.74931,197.0027,61,80,0
196.74931,197.0027,72,91,0
197.01959,197.27296,61,80,0
197.01959,197.27296,70,91,0
197.28986,197.55772,61,80,0
197.28986,197.55772,70,93,0
197.57558,197.84343,61,80,0
197.57558,197.84343,68,92,0
197.86128,198.12915,61,80,0
197.86128,198.12915,67,93,0
198.147,198.98628,68,80,0
198.147,198.98628,60,80,0
200.71843,201.34343,75,80,0
201.36128,201.55771,76,80,0
201.57558,202.70058,77,80,0
202.71843,202.98628,75,80,0
203.00415,203.272,73,80,0
203.28986,203.55771,72,80,0
203.57558,203.84343,70,80,0
203.86128,204.12915,68,80,0
204.147,204.34343,67,80,0
204.36128,204.55771,73,80,0
204.57558,204.772,70,80,0
204.78986,204.98628,67,80,0
205.00415,205.20058,68,80,0
205.21843,205.34343,70,80,0
205.28986,205.41486,68,80,0
205.36128,205.48628,67,80,0
205.43271,205.62915,68,80,0
205.647,205.84343,72,80,0
205.86128,206.70058,63,80,0
207.57558,208.20058,75,80,0
207.57558,208.20058,87,80,0
208.21843,208.41486,76,92,0
208.21843,208.41486,88,92,0
208.43271,209.55771,77,105,0
208.43271,209.55771,89,105,0
209.57558,209.84343,87,93,0
209.57558,209.84343,75,91,0
209.86128,210.12914,73,84,0
209.86128,210.12914,85,84,0
210.147,210.41486,72,90,0
210.147,210.41486,84,90,0
210.43271,210.70058,70,89,0
210.43271,210.70058,82,89,0
210.71843,210.98628,68,87,0
210.71843,210.98628,80,87,0
211.00414,211.272,67,85,0
211.00414,211.272,79,85,0
211.28986,211.55771,73,83,0
211.28986,211.55771,85,83,0
211.57556,211.88806,67,81,0
211.57556,211.88806,79,81,0
211.9089,212.88806,80,80,0
211.9089,212.88806,68,80,0
213.9089,213.96248,75,80,0
213.98033,214.17676,73,80,0
214.19461,214.46248,72,80,0
214.48033,214.74818,73,80,0
214.76605,215.0339,77,80,0
215.05176,215.31961,75,80,0
215.33748,215.60533,73,80,0
215.62318,216.46248,72,80,0
217.33748,217.39104,72,80,0
217.4089,217.60533,70,80,0
217.62318,217.89104,69,80,0
217.9089,218.17676,70,80,0
218.19461,218.46248,73,80,0
218.48033,218.74818,72,80,0
217.33748,219.0339,67,80,0
218.76604,219.0339,70,80,0
219.05176,220.03093,68,80,0
221.05176,221.11426,60,80,0
221.13509,221.36426,58,80,0
221.38509,221.69759,57,80,0
221.71843,222.03093,58,80,0
222.05176,222.36426,61,80,0
222.38509,222.69759,60,80,0
221.05176,223.03093,55,80,0
222.71843,223.03093,58,80,0
223.05176,223.58417,56,80,0
224.16287,224.78787,56,70,0
224.16287,224.78787,51,70,0
224.16287,224.78787,48,70,0
225.46721,228.04874,56,70,0
225.46721,228.04874,48,70,0
230.6846,231.96178,56,1,0
0.0,1.484375,44,80,0
1.5,2.984375,49,80,0
3.0,4.484375,48,80,0
4.5,5.984375,43,80,0
6.0,6.734375,44,80,0
6.75,7.484375,43,80,0
7.5,8.234375,41,80,0
8.25,8.984375,53,80,0
9.0,10.484375,51,80,0
10.5,11.984375,39,80,0
12.0,13.484375,37,80,0
13.5,14.984375,49,80,0
15.0,16.484375,48,80,0
16.5,17.984375,41,80,0
18.0,19.484375,34,80,0
19.5,20.984375,39,80,0
21.0,21.734375,32,80,0
21.75,22.484375,46,80,0
22.5,23.234375,32,80,0
24.0,24.359375,56,80,0
24.375,24.734375,51,80,0
24.75,25.109375,56,80,0
24.0,25.484375,44,80,0
25.125,25.484375,51,80,0
25.5,25.859375,55,80,0
25.875,26.234375,51,80,0
26.25,26.609375,55,80,0
25.5,26.984375,49,80,0
26.625,26.984375,51,80,0
27.0,27.359375,56,80,0
27.375,27.734375,51,80,0
27.75,28.109375,56,80,0
27.0,28.484375,48,80,0
28.125,28.484375,51,80,0
28.5,28.859375,55,80,0
28.875,29.234375,51,80,0
29.25,29.609375,55,80,0
28.5,29.984375,43,80,0
29.625,29.984375,51,80,0
30.0,30.359375,56,80,0
30.0,30.734375,44,80,0
30.375,30.734375,51,80,0
30.75,31.109375,55,80,0
30.75,31.484375,43,80,0
31.125,31.484375,51,80,0
31.5,31.859375,53,80,0
31.5,32.234375,41,80,0
31.875,32.234375,44,80,0
32.25,32.609375,53,80,0
32.25,32.984375,41,80,0
32.625,32.984375,44,80,0
33.0,33.359375,39,80,0
33.375,33.734375,43,80,0
33.75,34.109375,46,80,0
34.125,34.484375,51,80,0
34.5,34.859375,55,80,0
34.875,35.234375,58,80,0
35.25,35.609375,55,80,0
35.625,35.984375,58,80,0
36.0,36.359375,37,80,0
36.375,36.734375,43,80,0
36.75,37.109375,46,80,0
37.125,37.484375,49,80,0
37.5,37.859375,55,80,0
37.875,38.234375,58,80,0
38.25,38.609375,55,80,0
38.625,38.984375,49,80,0
39.375,39.734375,51,80,0
39.0,40.109375,48,80,0
39.75,40.109375,48,80,0
40.125,40.484375,51,80,0
40.5,40.859375,48,80,0
40.875,41.234375,53,80,0
41.25,41.609375,48,80,0
40.5,41.984375,41,80,0
41.625,41.984375,53,80,0
42.0,42.359375,49,80,0
42.375,42.734375,53,80,0
42.75,43.109375,49,80,0
42.0,43.484375,46,80,0
43.125,43.484375,53,80,0
43.5,43.859375,46,80,0
43.875,44.234375,51,80,0
44.25,44.609375,46,80,0
43.5,44.984375,39,80,0
44.625,44.984375,51,80,0
45.405407,45.79392,51,80,0
45.81081,46.221523,55,80,0
46.23938,46.650097,51,80,0
45.0,47.507236,44,80,0
46.667953,47.507236,56,80,0
48.3919,48.751274,60,80,0
48.7669,49.126274,60,80,0
49.1419,49.501274,60,80,0
49.5169,49.876274,60,80,0
49.8919,50.251274,60,80,0
50.2669,50.626274,60,80,0
50.6419,51.001274,60,80,0
51.0169,51.376274,60,80,0
51.0169,51.376274,55,80,0
51.0169,51.376274,52,80,0
51.3919,51.751274,60,80,0
51.3919,51.751274,55,80,0
51.3919,51.751274,52,80,0
51.7669,52.126274,60,80,0
51.7669,52.126274,55,80,0
51.7669,52.126274,52,80,0
52.1419,52.501274,60,80,0
52.1419,52.501274,55,80,0
52.1419,52.501274,52,80,0
52.5169,52.876274,60,80,0
52.5169,52.876274,56,80,0
52.5169,52.876274,53,80,0
52.8919,53.251274,60,80,0
52.8919,53.251274,56,80,0
52.8919,53.251274,53,80,0
53.2669,53.626274,60,80,0
53.2669,53.626274,56,80,0
53.2669,53.626274,53,80,0
53.6419,54.001274,60,80,0
53.6419,54.001274,56,80,0
53.6419,54.001274,53,80,0
54.0169,54.376274,64,80,0
54.0169,54.376274,58,80,0
54.0169,54.376274,55,80,0
54.3919,54.751274,64,80,0
54.3919,54.751274,58,80,0
54.3919,54.751274,55,80,0
54.7669,55.126274,64,80,0
54.7669,55.126274,58,80,0
54.7669,55.126274,55,80,0
55.1419,55.501274,64,80,0
55.1419,55.501274,58,80,0
55.1419,55.501274,55,80,0
55.5169,55.876274,65,80,0
55.5169,55.876274,60,80,0
55.5169,55.876274,56,80,0
55.8919,56.251274,65,80,0
55.8919,56.251274,60,80,0
55.8919,56.251274,56,80,0
56.2669,56.626274,65,80,0
56.2669,56.626274,60,80,0
56.2669,56.626274,56,80,0
56.6419,57.001274,65,80,0
56.6419,57.001274,60,80,0
56.6419,57.001274,56,80,0
57.0169,57.376274,65,80,0
57.0169,57.376274,68,80,0
57.0169,57.376274,58,80,0
57.3919,57.751274,65,80,0
57.3919,57.751274,68,80,0
57.3919,57.751274,58,80,0
57.7669,58.126274,65,80,0
57.7669,58.126274,68,80,0
57.7669,58.126274,58,80,0
58.1419,58.501274,65,80,0
58.1419,58.501274,68,80,0
58.1419,58.501274,58,80,0
58.5169,58.876274,68,80,0
58.5169,58.876274,59,80,0
58.5169,58.876274,65,80,0
58.8919,59.251274,68,80,0
58.8919,59.251274,59,80,0
58.8919,59.251274,65,80,0
59.2669,59.626274,68,80,0
59.2669,59.626274,62,80,0
59.2669,59.626274,59,80,0
59.6419,60.001274,68,80,0
59.6419,60.001274,62,80,0
59.6419,60.001274,59,80,0
60.0169,60.376274,67,80,0
60.0169,60.376274,63,80,0
60.0169,60.376274,60,80,0
60.3919,60.751274,67,80,0
60.3919,60.751274,63,80,0
60.3919,60.751274,60,80,0
60.7669,61.126274,67,80,0
60.7669,61.126274,63,80,0
60.7669,61.126274,60,80,0
61.1419,61.501274,67,80,0
61.1419,61.501274,63,80,0
61.1419,61.501274,60,80,0
61.5169,61.876274,56,80,0
61.5169,61.876274,63,80,0
61.8919,62.251274,56,80,0
61.8919,62.251274,63,80,0
62.2669,62.626274,56,80,0
62.2669,62.626274,63,80,0
62.6419,63.001274,56,80,0
62.6419,63.001274,63,80,0
63.411636,63.789925,58,80,0
63.411636,63.789925,63,80,0
63.411636,63.789925,67,80,0
63.806374,64.18466,58,80,0
63.806374,64.18466,63,80,0
63.806374,64.18466,67,80,0
64.20111,64.5794,58,80,0
64.20111,64.5794,63,80,0
64.20111,64.5794,67,80,0
65.024414,65.43513,56,80,0
65.024414,65.43513,50,80,0
65.024414,65.43513,46,80,0
65.45299,65.93215,56,80,0
65.45299,65.93215,50,80,0
65.45299,65.93215,46,80,0
65.95299,66.43215,56,80,0
65.95299,66.43215,50,80,0
65.95299,66.43215,46,80,0
66.45299,67.43215,55,80,0
66.45299,67.43215,51,80,0
69.95299,72.93736,34,80,0
72.95299,73.68736,39,80,0
74.07799,74.43736,46,80,0
74.45299,74.81236,43,80,0
74.82799,75.18736,46,80,0
75.20299,75.56236,43,80,0
75.57799,75.93736,39,80,0
75.95299,77.43736,34,80,0
77.45299,78.93736,46,80,0
78.95299,85.17749,39,80,0
85.19832,86.68269,44,80,0
85.19832,86.68269,32,80,0
86.69832,88.18269,49,80,0
88.19832,89.68269,48,80,0
89.69832,91.18269,43,80,0
91.19832,91.93269,44,80,0
91.94832,92.68269,43,80,0
92.69832,93.43269,41,80,0
93.44832,94.18269,53,80,0
94.19832,95.68269,51,80,0
95.69832,97.18269,39,80,0
97.19832,98.68269,37,80,0
98.69832,100.18269,49,80,0
100.19832,101.68269,48,80,0
101.69832,103.18269,41,80,0
103.19832,104.68269,34,80,0
104.69832,106.18269,39,80,0
106.19832,106.97135,32,80,0
106.98779,107.82708,46,80,0
107.84494,108.68423,32,80,0
109.55922,111.043594,56,80,0
109.55922,111.043594,44,80,0
112.55922,113.543594,58,80,0
113.55922,113.793594,58,80,0
113.80922,114.043594,57,80,0
114.05922,114.293594,58,80,0
114.30922,114.543594,58,80,0
114.55922,114.793594,56,80,0
114.80922,115.043594,55,80,0
115.05922,115.293594,53,80,0
115.30922,115.543594,51,80,0
115.55922,116.293594,56,80,0
118.55922,119.543594,51,80,0
119.55922,119.793594,51,80,0
119.80922,120.043594,50,80,0
120.05922,120.293594,51,80,0
120.30922,120.543594,52,80,0
120.55922,120.793594,51,80,0
120.80922,121.043594,49,80,0
121.05922,121.293594,47,80,0
121.30922,121.543594,46,80,0
121.55922,122.293594,44,70,0
124.55922,124.793594,54,100,0
124.55922,124.793594,51,100,0
124.55922,124.793594,47,100,0
124.55922,124.793594,45,100,0
124.80922,125.043594,54,100,0
124.80922,125.043594,51,100,0
124.80922,125.043594,47,100,0
124.80922,125.043594,45,100,0
125.05922,125.293594,54,100,0
125.05922,125.293594,51,100,0
125.05922,125.293594,47,100,0
125.05922,125.293594,45,100,0
125.30922,125.543594,54,100,0
125.30922,125.543594,51,100,0
125.30922,125.543594,47,100,0
125.30922,125.543594,45,100,0
125.55922,125.793594,54,100,0
125.55922,125.793594,51,100,0
125.55922,125.793594,47,100,0
125.55922,125.793594,45,100,0
125.80922,126.043594,54,100,0
125.80922,126.043594,51,100,0
125.80922,126.043594,47,100,0
125.80922,126.043594,45,100,0
126.05922,126.293594,56,100,0
126.05922,126.293594,52,100,0
126.05922,126.293594,47,100,0
126.05922,126.293594,44,100,0
126.30922,126.543594,56,100,0
126.30922,126.543594,52,100,0
126.30922,126.543594,47,100,0
126.30922,126.543594,44,100,0
126.55922,126.793594,56,100,0
126.55922,126.793594,52,100,0
126.55922,126.793594,47,100,0
126.55922,126.793594,44,100,0
126.80922,127.043594,56,100,0
126.80922,127.043594,52,100,0
126.80922,127.043594,47,100,0
126.80922,127.043594,44,100,0
127.05922,127.293594,56,100,0
127.05922,127.293594,52,100,0
127.05922,127.293594,47,100,0
127.05922,127.293594,44,100,0
127.30922,127.543594,56,100,0
127.30922,127.543594,52,100,0
127.30922,127.543594,47,100,0
127.30922,127.543594,44,100,0
127.55922,127.793594,58,100,0
127.55922,127.793594,54,100,0
127.55922,127.793594,52,100,0
127.55922,127.793594,49,100,0
127.80922,128.0436,58,100,0
127.80922,128.0436,54,100,0
127.80922,128.0436,52,100,0
127.80922,128.0436,49,100,0
128.05922,128.2936,58,100,0
128.05922,128.2936,54,100,0
128.05922,128.2936,52,100,0
128.05922,128.2936,49,100,0
128.30922,128.5436,58,100,0
128.30922,128.5436,54,100,0
128.30922,128.5436,52,100,0
128.30922,128.5436,49,100,0
128.55922,128.7936,58,100,0
128.55922,128.7936,54,100,0
128.55922,128.7936,52,100,0
128.55922,128.7936,49,100,0
128.80922,129.0436,58,100,0
128.80922,129.0436,54,100,0
128.80922,129.0436,52,100,0
128.80922,129.0436,49,100,0
129.05922,129.2936,59,100,0
129.05922,129.2936,56,100,0
129.05922,129.2936,52,100,0
129.05922,129.2936,47,100,0
129.30922,129.5436,59,100,0
129.30922,129.5436,56,100,0
129.30922,129.5436,52,100,0
129.30922,129.5436,47,100,0
129.55922,129.7936,59,100,0
129.55922,129.7936,56,100,0
129.55922,129.7936,52,100,0
129.55922,129.7936,47,100,0
129.80922,130.0436,47,100,0
129.80922,130.0436,35,100,0
130.05922,130.2936,47,100,0
130.05922,130.2936,35,100,0
130.30922,130.5436,47,100,0
130.30922,130.5436,35,100,0
130.55922,131.2936,52,100,0
130.55922,131.2936,40,100,0
133.55922,135.0436,52,70,0
133.55922,135.0436,40,70,0
136.55922,137.5436,54,70,0
137.55922,137.7936,54,70,0
137.80922,138.0436,53,70,0
138.05922,138.2936,54,70,0
138.30922,138.5436,54,70,0
138.55922,138.7936,52,70,0
138.80922,139.0436,51,70,0
139.05922,139.2936,49,70,0
139.30922,139.5436,47,70,0
139.55922,140.2936,52,70,0
142.80922,143.0436,29,85,0
143.05922,143.2936,32,85,0
143.30922,143.5436,35,85,0
143.55922,143.7936,38,85,0
143.80922,144.0436,41,85,0
144.05922,144.7936,44,85,0
145.80922,146.0436,29,85,0
146.05922,146.2936,32,85,0
146.30922,146.5436,35,85,0
146.55922,146.7936,38,85,0
146.80922,147.0436,41,85,0
147.05922,147.7936,44,85,0
148.80922,149.0436,40,85,0
149.05922,149.2936,44,85,0
149.30922,150.0436,46,85,0
150.30922,150.5436,39,85,0
150.55922,150.7936,43,85,0
150.80922,151.5436,46,85,0
151.55922,153.0436,44,80,0
151.55922,153.0436,32,80,0
153.05922,154.5436,49,80,0
154.55922,156.0436,48,80,0
156.05922,157.5436,43,80,0
157.55922,158.2936,44,80,0
158.30922,159.0436,43,80,0
159.05922,159.7936,41,80,0
159.80922,160.5436,53,80,0
160.55922,162.0436,51,80,0
162.05922,163.5436,39,80,0
163.55922,165.0436,37,80,0
165.05922,166.5436,49,80,0
166.55922,168.0436,48,80,0
168.05922,169.5436,41,80,0
169.55922,171.0436,34,80,0
171.05922,172.70932,39,80,0
172.72717,173.56647,32,80,0
173.58432,174.35735,44,80,0
174.3738,175.14682,32,80,0
175.95274,176.19945,56,80,0
176.2159,176.4626,51,80,0
176.47905,176.72577,51,80,0
176.74222,176.98892,56,80,0
177.00537,177.25208,51,80,0
175.95274,177.51524,44,80,0
177.26852,177.51524,51,80,0
177.5317,177.7784,55,80,0
177.79485,178.04155,51,80,0
178.058,178.30472,51,80,0
178.32117,178.56787,55,80,0
178.58432,178.83102,51,80,0
177.5317,179.0942,49,80,0
178.84747,179.0942,51,80,0
179.11063,179.35735,56,80,0
179.3738,179.6205,51,80,0
179.63695,179.88365,51,80,0
179.9001,180.14682,56,80,0
180.16327,180.40997,51,80,0
179.11063,180.67313,48,80,0
180.42642,180.67313,51,80,0
180.68958,180.9363,55,80,0
180.95274,181.19945,51,80,0
181.2159,181.4626,51,80,0
181.47905,181.72577,55,80,0
181.74222,181.98892,51,80,0
180.68958,182.25208,43,80,0
182.00537,182.25208,51,80,0
182.26852,182.51524,56,80,0
182.5317,182.7784,51,80,0
182.26852,183.04155,44,80,0
182.79485,183.04155,51,80,0
183.058,183.30472,56,80,0
183.32115,183.56787,51,80,0
183.058,183.83102,43,80,0
183.58432,183.83102,51,80,0
183.84747,184.09418,53,80,0
184.11063,184.35735,44,80,0
183.84747,184.6205,41,80,0
184.3738,184.6205,44,80,0
184.63695,184.88365,53,80,0
184.9001,185.14682,44,80,0
184.63695,185.40997,41,80,0
185.16327,185.40997,44,80,0
185.42642,185.67313,39,80,0
185.68958,185.9363,43,80,0
185.95274,186.19945,46,80,0
186.2159,186.4626,51,80,0
186.47905,186.72577,55,80,0
186.7422,186.98892,58,80,0
187.00537,188.56787,63,80,0
188.58432,188.83102,37,80,0
188.84747,189.09418,43,80,0
189.11063,189.35735,46,80,0
189.3738,189.6205,49,80,0
189.63695,189.88365,55,80,0
189.9001,190.14682,58,80,0
190.16327,191.72577,61,80,0
191.7422,193.3047,60,80,0
193.32115,194.88365,53,80,0
194.9001,196.4626,46,80,0
196.47905,196.73242,46,80,0
196.74931,197.0027,51,80,0
196.47905,197.27296,39,80,0
197.01959,197.27296,51,80,0
197.57558,197.84343,51,80,0
197.28986,198.12915,39,80,0
197.86128,198.12915,51,80,0
198.147,198.41486,44,80,0
198.43272,198.70058,51,70,0
198.71843,198.98628,51,70,0
199.00415,199.272,51,70,0
199.28986,199.55772,51,70,0
199.57558,199.84343,51,70,0
199.86128,200.12915,51,70,0
200.147,200.41486,51,70,0
200.43272,200.70058,51,70,0
200.71843,200.98628,51,70,0
201.00415,201.272,51,70,0
201.28986,201.55771,51,70,0
201.57558,201.84343,51,70,0
201.57558,201.84343,49,70,0
201.57558,201.84343,39,70,0
201.86128,202.12915,51,70,0
201.86128,202.12915,49,70,0
201.86128,202.12915,39,70,0
202.147,202.41486,51,70,0
202.147,202.41486,49,70,0
202.147,202.41486,39,70,0
202.43271,202.70058,51,70,0
202.43271,202.70058,49,70,0
202.43271,202.70058,39,70,0
202.71843,202.98628,51,70,0
202.71843,202.98628,49,70,0
202.71843,202.98628,39,70,0
203.00415,203.272,51,70,0
203.00415,203.272,49,70,0
203.00415,203.272,39,70,0
203.28986,203.55771,51,70,0
203.28986,203.55771,49,70,0
203.28986,203.55771,39,70,0
203.57558,203.84343,51,70,0
203.57558,203.84343,49,70,0
203.57558,203.84343,39,70,0
203.86128,204.12915,51,70,0
203.86128,204.12915,49,70,0
203.86128,204.12915,39,70,0
204.147,204.41486,51,70,0
204.147,204.41486,49,70,0
204.147,204.41486,39,70,0
204.43271,204.70058,51,70,0
204.43271,204.70058,49,70,0
204.43271,204.70058,39,70,0
204.71843,204.98628,51,70,0
204.71843,204.98628,49,70,0
204.71843,204.98628,39,70,0
205.00415,205.272,44,70,0
205.00415,205.272,48,70,0
205.00415,205.272,51,70,0
205.28986,205.55771,51,70,0
205.57558,205.84343,51,70,0
205.86128,206.12914,51,70,0
206.147,206.41486,51,70,0
206.43271,206.70058,51,70,0
206.71843,206.98628,51,70,0
207.00414,207.272,51,70,0
207.28986,207.55771,51,70,0
207.57558,207.84343,51,70,0
207.86128,208.12914,51,70,0
208.147,208.41486,51,70,0
208.43271,208.70058,51,70,0
208.43271,208.70058,49,70,0
208.43271,208.70058,39,70,0
208.71843,208.98628,51,73,0
208.71843,208.98628,49,73,0
208.71843,208.98628,39,73,0
209.00414,209.272,51,77,0
209.00414,209.272,49,77,0
209.00414,209.272,39,77,0
209.28986,209.55771,51,81,0
209.28986,209.55771,49,81,0
209.28986,209.55771,39,81,0
209.57558,209.84343,51,85,0
209.57558,209.84343,49,85,0
209.57558,209.84343,39,85,0
209.86128,210.12914,51,89,0
209.86128,210.12914,49,89,0
209.86128,210.12914,39,89,0
210.147,210.41486,51,90,0
210.147,210.41486,49,90,0
210.147,210.41486,39,90,0
210.43271,210.70058,51,89,0
210.43271,210.70058,49,89,0
210.43271,210.70058,39,89,0
210.71843,210.98628,51,87,0
210.71843,210.98628,49,87,0
210.71843,210.98628,39,87,0
211.00414,211.272,51,85,0
211.00414,211.272,49,85,0
211.00414,211.272,39,85,0
211.28986,211.55771,51,83,0
211.28986,211.55771,49,83,0
211.28986,211.55771,39,83,0
211.57556,211.88806,51,81,0
211.57556,211.88806,49,81,0
211.57556,211.88806,39,81,0
211.9089,212.88806,51,80,0
211.9089,212.88806,48,80,0
211.9089,212.88806,44,80,0
213.9089,215.60533,63,80,0
213.9089,215.60533,67,80,0
215.62318,216.46248,68,80,0
215.62318,216.46248,56,80,0
217.33748,219.0339,61,80,0
217.33748,219.0339,51,80,0
219.05176,220.03093,56,80,0
219.05176,220.03093,60,80,0
221.05176,223.03093,49,80,0
221.05176,223.03093,39,80,0
223.05176,223.58417,48,80,0
223.05176,223.58417,44,80,0
224.16287,224.78787,32,70,0
225.46721,228.04874,44,70,0
225.46721,228.04874,32,70,0
