start_time,end_time,note_value,velocity,instrument_program_number
0.15,0.296875,67,80,0
0.3,0.446875,72,80,0
0.45,0.596875,74,80,0
0.6,1.046875,75,80,0
1.05,1.196875,77,80,0
1.2,1.646875,74,80,0
1.65,1.796875,75,80,0
1.8,2.396875,72,80,0
2.4,2.434375,74,80,0
2.4375,2.546875,72,80,0
2.55,2.696875,71,80,0
2.7,2.846875,72,80,0
2.85,2.996875,74,80,0
3.0,3.034375,77,80,0
3.0375,3.146875,75,80,0
3.15,3.296875,74,80,0
3.3,3.446875,75,80,0
3.45,3.596875,77,80,0
3.6,3.896875,79,80,0
3.9,4.196875,79,80,0
4.2,5.096875,79,80,0
5.1,5.246875,77,80,0
5.25,5.396875,79,80,0
5.4,5.471875,77,80,0
5.475,5.546875,79,80,0
5.55,5.996875,80,80,0
6.0,6.296875,74,80,0
6.3,6.446875,75,80,0
6.45,6.596875,77,80,0
6.6,6.671875,75,80,0
6.675,6.746875,77,80,0
6.75,7.196875,79,80,0
7.2,7.496875,72,80,0
7.5,7.646875,72,80,0
7.65,7.796875,74,80,0
7.8,8.096875,75,80,0
8.1,8.246875,75,80,0
8.25,8.396875,77,80,0
8.4,8.696875,74,80,0
8.7,8.846875,74,80,0
8.85,8.996875,75,80,0
9.0,9.296875,72,80,0
9.9,10.046875,77,80,0
10.05,10.196875,79,80,0
10.2,10.796875,80,80,0
10.2,10.796875,68,80,0
10.8,11.096875,74,80,0
11.1,11.246875,75,80,0
11.25,11.396875,77,80,0
11.4,11.996875,79,80,0
11.4,11.996875,67,80,0
12.0,12.296875,72,80,0
12.3,12.446875,72,80,0
12.45,12.596875,74,80,0
12.6,12.896875,75,80,0
12.9,13.046875,75,80,0
13.05,13.196875,77,80,0
13.2,13.496875,74,80,0
13.5,13.646875,74,80,0
13.65,13.796875,75,80,0
13.8,14.096875,72,80,0
14.1,14.696875,82,81,0
14.7,15.146875,82,85,0
15.15,15.296875,80,88,0
15.3,15.446875,79,89,0
15.45,15.596875,77,90,0
15.6,15.746875,75,91,0
15.75,15.896875,74,92,0
15.9,16.046875,72,93,0
16.05,16.196875,71,94,0
16.2,16.496876,72,95,0
16.5,17.096874,84,97,0
16.5,17.096874,72,97,0
17.1,17.546875,82,101,0
17.55,17.696875,80,104,0
17.7,17.846874,79,105,0
17.85,17.996876,77,106,0
18.0,18.146875,75,107,0
18.15,18.296875,74,108,0
18.3,18.446875,72,109,0
18.45,18.596874,71,109,0
18.6,18.896875,72,110,0
18.9,18.971874,74,110,0
18.975,19.046875,75,110,0
19.05,19.121876,72,110,0
19.125,19.196875,74,110,0
19.2,19.496876,75,110,0
19.5,19.796875,71,110,0
19.5,19.796875,74,110,0
19.5,19.796875,83,110,0
19.8,20.096874,84,110,0
19.8,20.096874,75,110,0
19.8,20.096874,72,110,0
21.0,22.196875,64,110,0
21.0,22.196875,60,110,0
21.0,22.196875,55,110,0
22.2,22.346874,65,80,0
22.35,22.496876,72,80,0
22.5,22.646875,68,80,0
22.65,22.796875,77,80,0
22.8,22.946875,72,80,0
22.95,23.096874,80,80,0
23.1,23.246876,77,80,0
23.25,23.396875,84,80,0
23.4,23.546875,82,80,0
23.55,23.696875,79,80,0
23.7,23.846874,76,80,0
23.85,23.996876,72,80,0
24.0,24.146875,70,80,0
24.15,24.296875,71,80,0
24.3,24.446875,72,80,0
24.45,24.596874,67,80,0
24.6,25.196875,70,80,0
25.2,25.496876,68,80,0
25.8,26.996876,62,110,0
25.8,26.996876,58,110,0
25.8,26.996876,53,110,0
27.0,27.146875,63,80,0
27.15,27.296875,70,80,0
27.3,27.446875,67,80,0
27.45,27.596874,75,80,0
27.6,27.746876,70,80,0
27.75,27.896875,79,80,0
27.9,28.046875,75,80,0
28.05,28.196875,82,80,0
28.2,28.346874,80,80,0
28.35,28.496876,79,80,0
28.5,28.646875,77,80,0
28.65,28.796875,75,80,0
28.8,28.946875,74,80,0
28.95,29.096874,72,80,0
29.1,29.246876,70,80,0
29.25,29.396875,68,80,0
29.4,29.696875,67,80,0
29.7,30.296875,70,80,0
30.3,30.746876,70,80,0
30.75,30.896875,72,80,0
30.9,31.046875,74,80,0
31.05,31.196875,75,80,0
31.2,31.346874,77,80,0
31.35,31.496876,79,80,0
31.5,31.646875,80,80,0
31.65,31.796875,77,80,0
31.8,31.946875,80,80,0
31.95,32.096874,79,80,0
32.1,32.246876,77,80,0
32.25,32.396873,75,80,0
32.4,32.546875,75,80,0
32.55,32.696877,74,80,0
32.7,32.846874,72,80,0
32.85,32.996876,74,80,0
33.0,33.146873,77,80,0
33.15,33.296875,75,80,0
33.3,33.446877,74,80,0
33.45,33.596874,72,80,0
33.6,33.896873,70,80,0
33.6,33.896873,68,80,0
33.9,34.196877,70,80,0
33.9,34.196877,68,80,0
34.2,34.346874,68,80,0
34.35,34.496876,67,80,0
34.5,34.646873,65,80,0
34.65,34.796875,63,80,0
34.8,34.946877,63,80,0
34.95,35.096874,62,80,0
35.1,35.246876,60,80,0
35.25,35.396873,62,80,0
34.2,35.546875,70,80,0
35.4,35.546875,63,80,0
35.55,35.696877,72,80,0
35.7,35.846874,74,80,0
35.85,35.996876,75,80,0
36.0,36.146873,77,80,0
36.15,36.296875,78,80,0
36.3,36.446877,80,80,0
36.45,36.596874,77,80,0
36.6,36.896873,78,80,0
36.9,37.496876,82,81,0
37.5,38.096874,82,85,0
38.1,38.696877,87,89,0
38.7,38.996876,81,93,0
39.0,39.696877,82,80,0
39.7,39.796875,81,80,0
39.8,39.896873,82,80,0
39.9,39.996876,84,80,0
40.0,40.096874,82,80,0
40.1,40.196877,81,80,0
40.2,40.896873,82,80,0
40.9,40.996876,81,80,0
41.0,41.096874,82,80,0
41.1,41.196877,84,80,0
41.2,41.296875,82,80,0
41.3,41.396873,81,80,0
41.5,41.596874,82,80,0
41.6,41.696877,84,80,0
41.7,41.796875,86,80,0
41.8,41.896873,84,80,0
41.9,41.996876,82,80,0
42.1,42.196877,86,80,0
42.2,42.296875,87,80,0
42.3,42.396873,89,80,0
42.4,42.496876,87,80,0
42.5,42.596874,86,80,0
42.6,42.696877,89,80,0
42.7,42.796875,87,80,0
42.8,42.896873,86,80,0
42.9,42.996876,84,80,0
43.0,43.096874,82,80,0
43.1,43.196877,80,80,0
43.2,43.296875,79,80,0
43.3,43.396873,77,80,0
43.4,43.496876,75,80,0
43.5,43.571877,74,80,0
43.575,43.646873,72,80,0
43.65,43.721874,70,80,0
43.725,43.796875,68,80,0
43.8,43.896873,67,80,0
43.9,43.996876,63,80,0
44.0,44.096874,65,80,0
44.1,44.196877,67,80,0
44.2,44.296875,65,80,0
44.3,44.396873,63,80,0
44.4,44.996876,68,80,0
45.0,45.096874,67,80,0
45.1,45.196877,75,80,0
45.2,45.296875,77,80,0
45.3,45.396873,79,80,0
45.4,45.496876,77,80,0
45.5,45.596874,75,80,0
45.6,46.196877,80,80,0
46.2,46.296875,79,80,0
46.3,46.396873,75,80,0
46.4,46.496876,77,80,0
46.5,46.596874,79,80,0
46.6,46.696877,77,80,0
46.7,46.796875,75,80,0
46.8,46.896873,82,80,0
46.9,46.996876,79,80,0
47.0,47.096874,80,80,0
47.1,47.196877,82,80,0
47.2,47.296875,80,80,0
47.3,47.396873,79,80,0
47.4,47.496876,85,80,0
47.5,47.596874,84,80,0
47.6,47.696877,82,80,0
47.7,47.796875,80,80,0
47.8,47.896873,79,80,0
47.9,47.996876,77,80,0
48.0,48.096874,75,80,0
48.1,48.196877,74,80,0
48.2,48.296875,75,80,0
48.3,48.396873,76,80,0
48.4,48.496876,77,80,0
48.5,48.596874,73,80,0
48.9,48.996876,60,80,0
49.0,49.096874,63,80,0
49.1,49.196877,68,80,0
49.2,49.296875,72,80,0
49.3,49.396873,75,80,0
49.4,49.496876,80,80,0
49.5,49.646873,84,80,0
49.65,49.796875,84,80,0
49.8,49.954605,84,80,0
49.957893,50.1125,82,80,0
50.115788,50.270393,80,80,0
50.27368,50.428288,79,80,0
50.43158,50.594772,79,80,0
50.598244,50.76144,77,80,0
50.76491,50.937706,75,80,0
50.941383,51.114174,74,80,0
51.11785,51.467117,75,80,0
52.123734,52.42061,58,80,0
52.423733,52.720608,65,80,0
52.423733,52.720608,62,80,0
52.723736,53.02061,65,80,0
52.723736,53.02061,62,80,0
53.023735,53.32061,65,80,0
53.023735,53.32061,62,80,0
53.323734,53.62061,65,80,0
53.323734,53.62061,62,80,0
53.623734,54.52061,70,80,0
53.623734,54.52061,63,80,0
54.523735,54.82061,70,80,0
54.523735,54.82061,63,80,0
54.823734,55.42061,68,80,0
54.823734,55.42061,63,80,0
55.423733,56.069004,69,80,0
55.423733,56.069004,65,80,0
55.423733,56.069004,63,80,0
56.072384,57.12753,70,80,0
56.072384,57.12753,65,80,0
56.072384,57.12753,62,80,0
57.131207,57.42808,70,80,0
57.431206,57.72808,77,80,0
57.431206,57.72808,70,80,0
57.731205,58.02808,77,84,0
57.731205,58.02808,70,84,0
58.031204,58.32808,77,88,0
58.031204,58.32808,70,88,0
58.331203,58.62808,77,92,0
58.331203,58.62808,70,92,0
58.631207,59.22808,70,97,0
58.631207,59.52808,82,97,0
59.231205,59.82808,73,105,0
59.531204,59.82808,83,109,0
59.831203,60.12808,84,110,0
59.831203,60.12808,72,110,0
60.431206,60.72808,74,110,0
60.431206,60.72808,68,110,0
60.431206,60.72808,65,110,0
61.031204,61.32808,75,80,0
61.031204,61.32808,67,80,0
61.731205,61.82808,70,80,0
61.831203,61.92808,72,80,0
61.931206,62.02808,74,80,0
62.031204,62.12808,72,80,0
62.131207,62.22808,70,80,0
62.231205,62.52808,75,80,0
62.931206,63.02808,70,80,0
63.031204,63.12808,72,80,0
63.131207,63.22808,74,80,0
63.231205,63.32808,72,80,0
63.331203,63.42808,70,80,0
63.431206,63.52808,75,80,0
63.531204,63.62808,79,80,0
63.631207,63.72808,77,80,0
63.731205,63.82808,75,80,0
63.831203,63.92808,74,80,0
63.931206,64.02808,72,80,0
64.031204,64.12808,71,80,0
64.1312,64.22808,72,80,0
64.23121,64.32808,70,80,0
64.33121,64.42808,68,80,0
64.431206,64.52808,67,80,0
64.531204,64.62808,65,80,0
64.6312,64.92808,63,80,0
65.33121,65.42808,58,80,0
65.431206,65.52808,60,80,0
65.531204,65.62808,62,80,0
65.6312,65.72808,60,80,0
65.73121,65.82808,58,80,0
65.83121,66.12808,63,80,0
66.531204,66.62808,58,80,0
66.6312,66.72808,60,80,0
66.73121,66.82808,62,80,0
66.83121,66.92808,60,80,0
66.931206,67.02808,58,80,0
67.031204,67.32808,63,80,0
67.73121,67.82808,59,89,0
67.83121,67.92808,60,90,0
67.931206,68.02808,62,91,0
68.031204,68.12808,60,93,0
68.1312,68.22808,59,94,0
68.23121,68.33057,65,95,0
68.33377,68.43313,63,96,0
68.43633,68.53569,62,98,0
68.538895,68.64087,68,99,0
68.64416,68.74613,67,100,0
68.74942,68.851395,65,102,0
68.85468,68.96353,74,103,0
68.96705,69.0759,72,104,0
69.07941,69.188255,71,106,0
69.191765,69.30919,77,107,0
69.31297,69.43608,75,108,0
69.44025,69.56941,74,109,0
69.573586,70.57011,89,120,0
70.57358,70.68122,87,120,0
70.68469,70.79233,86,120,0
70.7958,70.90344,84,120,0
70.90691,71.01455,83,120,0
71.01803,71.12566,80,120,0
71.129135,71.23678,79,120,0
71.24025,71.347885,77,120,0
71.35136,71.459,75,120,0
71.46247,71.57011,74,120,0
71.57358,71.68122,72,120,0
71.68469,71.79233,71,120,0
71.7958,71.90344,68,120,0
71.90691,71.98677,67,120,0
71.96941,72.04927,65,120,0
72.035385,72.11525,63,120,0
72.10136,72.18122,62,120,0
72.16386,72.2333,60,120,0
72.24025,75.57011,59,120,0
75.74024,75.903435,67,80,0
75.906906,76.05379,72,80,0
76.05691,76.20378,74,80,0
76.20691,76.653786,75,80,0
76.656906,76.80379,77,80,0
76.80691,77.253784,74,80,0
77.25691,77.403786,75,80,0
77.406906,78.003784,72,80,0
78.00691,78.04128,74,80,0
78.04441,78.153786,72,80,0
78.156906,78.30379,71,80,0
78.30691,78.45378,72,80,0
78.45691,78.60378,74,80,0
78.60691,78.64128,77,80,0
78.64441,78.753784,75,80,0
78.75691,78.903786,74,80,0
78.906906,79.05379,75,80,0
79.05691,79.20378,77,80,0
79.20691,79.503784,79,80,0
79.50691,79.80379,79,80,0
79.80691,80.70378,79,80,0
80.70691,80.85378,77,80,0
80.85691,81.003784,79,80,0
81.00691,81.07878,77,80,0
81.08191,81.153786,79,80,0
81.156906,81.60378,80,80,0
81.60691,81.903786,74,80,0
81.906906,82.05379,75,80,0
82.05691,82.20378,77,80,0
82.20691,82.278786,75,80,0
82.281906,82.35378,77,80,0
82.35691,82.80379,79,80,0
82.80691,83.10378,72,80,0
83.10691,83.253784,72,80,0
83.25691,83.403786,74,80,0
83.406906,83.70378,75,80,0
83.70691,83.85378,75,80,0
83.85691,84.003784,77,80,0
84.00691,84.30379,74,80,0
84.30691,84.45378,74,80,0
84.45691,84.60378,75,80,0
84.60691,84.903786,72,80,0
85.50691,85.653786,77,80,0
85.656906,85.80379,79,80,0
85.80691,86.403786,80,80,0
85.80691,86.403786,68,80,0
86.406906,86.70378,74,80,0
86.70691,86.85378,75,80,0
86.85691,87.003784,77,80,0
87.00691,87.60378,79,80,0
87.00691,87.60378,67,80,0
87.60691,87.903786,72,80,0
87.906906,88.05379,72,80,0
88.05691,88.20378,74,80,0
88.20691,88.503784,75,80,0
88.50691,88.653786,75,80,0
88.656906,88.80379,77,80,0
88.80691,89.10378,74,80,0
89.10691,89.253784,74,80,0
89.25691,89.403786,75,80,0
89.406906,89.70378,72,80,0
89.70691,90.30379,82,81,0
90.30691,90.753784,82,85,0
90.75691,90.903786,80,88,0
90.906906,91.05379,79,89,0
91.05691,91.20378,77,90,0
91.20691,91.35378,75,91,0
91.35691,91.503784,74,92,0
91.50691,91.653786,72,93,0
91.656906,91.80379,71,94,0
91.80691,92.10378,72,95,0
92.10691,92.70378,84,97,0
92.10691,92.70378,72,97,0
92.70691,93.153786,82,101,0
93.156906,93.30379,80,104,0
93.30691,93.45378,79,105,0
93.45691,93.60378,77,106,0
93.60691,93.753784,75,107,0
93.75691,93.903786,74,108,0
93.906906,94.05379,72,109,0
94.05691,94.20378,71,109,0
94.20691,94.503784,72,110,0
94.50691,94.57878,74,110,0
94.58191,94.653786,75,110,0
94.656906,94.72878,72,110,0
94.73191,94.80379,74,110,0
94.80691,95.10378,75,110,0
95.10691,95.403786,71,110,0
95.10691,95.403786,74,110,0
95.10691,95.403786,83,110,0
95.406906,95.70378,84,110,0
95.406906,95.70378,75,110,0
95.406906,95.70378,72,110,0
96.60691,97.20378,60,80,0
97.20691,97.80379,65,80,0
97.80691,98.403786,58,80,0
98.406906,99.003784,63,80,0
99.00691,99.60378,56,80,0
99.60691,99.903786,61,80,0
99.906906,100.20378,60,80,0
100.20691,100.503784,58,80,0
100.50691,100.80379,56,80,0
100.80691,101.10378,55,80,0
101.70691,102.30379,72,80,0
102.30691,102.903786,65,80,0
102.906906,103.503784,70,80,0
103.50691,104.10378,63,80,0
104.10691,104.403786,68,80,0
104.406906,104.70378,67,80,0
104.70691,105.003784,65,80,0
105.00691,105.30379,63,80,0
105.30691,105.60378,62,80,0
105.60691,105.903786,65,80,0
105.906906,106.20378,63,80,0
106.20691,106.80379,72,80,0
106.80691,107.403786,77,80,0
106.80691,107.403786,65,80,0
107.406906,108.003784,70,80,0
108.00691,108.60378,75,80,0
108.00691,108.903786,63,80,0
108.60691,109.20378,68,80,0
108.906906,109.20378,60,80,0
109.20691,109.503784,65,80,0
109.20691,109.503784,73,80,0
109.50691,109.80379,72,80,0
109.50691,109.80379,63,80,0
109.80691,110.10378,70,80,0
109.80691,110.10378,61,80,0
110.10691,110.403786,68,80,0
110.10691,110.403786,60,80,0
110.406906,110.70378,67,80,0
110.406906,110.70378,58,80,0
110.70691,111.003784,63,80,0
111.30691,111.903786,84,80,0
111.30691,111.903786,72,80,0
111.906906,112.503784,77,80,0
112.50691,113.10378,70,80,0
112.50691,113.10378,82,80,0
113.10691,113.70378,75,80,0
113.406906,114.003784,72,80,0
113.70691,114.003784,80,80,0
114.00691,114.30379,79,80,0
114.00691,114.30379,70,80,0
114.30691,114.60378,77,80,0
114.30691,114.60378,68,80,0
114.60691,114.903786,75,80,0
114.60691,114.903786,67,80,0
114.906906,115.20378,74,80,0
114.906906,115.20378,65,80,0
115.20691,115.503784,77,80,0
115.20691,115.503784,68,80,0
115.50691,115.80379,75,80,0
115.50691,115.80379,67,80,0
116.70691,117.003784,75,80,0
117.00691,117.30379,72,80,0
117.30691,117.60378,73,80,0
117.60691,117.903786,77,80,0
117.906906,118.20378,67,80,0
118.20691,118.503784,70,80,0
118.50691,118.80379,68,80,0
118.80691,119.10378,72,80,0
119.10691,119.403786,62,80,0
119.406906,119.70378,63,80,0
119.70691,120.003784,82,80,0
120.00691,120.30379,87,80,0
120.30691,120.60378,85,80,0
120.60691,121.20378,84,80,0
121.20691,121.80379,89,80,0
121.80691,122.403786,82,80,0
122.406906,123.003784,87,80,0
123.00691,123.60378,80,80,0
123.60691,123.903786,85,87,0
123.60691,123.903786,73,87,0
123.906906,124.20378,72,91,0
123.906906,124.20378,84,91,0
124.20691,124.503784,82,95,0
124.20691,124.503784,70,95,0
124.50691,124.80379,80,99,0
124.50691,124.80379,68,99,0
124.80691,125.10378,79,103,0
124.80691,125.10378,67,103,0
125.10691,125.403786,73,107,0
125.406906,125.55379,84,110,0
125.55691,125.70378,82,110,0
125.70691,125.85378,80,110,0
125.85691,126.003784,79,110,0
126.00691,126.153786,77,110,0
126.156906,126.30379,75,110,0
126.30691,126.45378,73,110,0
126.45691,126.60378,72,110,0
126.60691,126.753784,70,110,0
126.75691,126.903786,68,110,0
126.906906,127.05379,67,110,0
127.05691,127.20378,65,110,0
127.20691,127.35378,64,110,0
127.35691,127.503784,61,110,0
127.50691,127.653786,60,110,0
127.656906,127.80379,58,110,0
127.80691,127.95378,56,110,0
127.95691,128.10379,55,110,0
128.1069,128.25378,53,110,0
128.25691,128.40378,52,110,0
128.4069,128.55379,53,123,0
128.55692,128.70378,55,109,0
128.70691,128.85379,56,107,0
128.8569,129.00378,55,105,0
129.00691,129.15378,53,103,0
129.1569,129.30379,51,101,0
129.30692,129.45378,50,100,0
129.45691,129.60379,48,98,0
129.6069,129.75378,47,96,0
129.75691,129.90378,48,94,0
129.9069,130.05379,50,92,0
130.05692,130.20378,48,91,0
130.2819,130.35379,43,75,0
130.3569,130.42879,47,76,0
130.43192,130.50378,50,76,0
130.50691,130.80379,55,77,0
130.88191,130.95378,43,79,0
130.95691,131.02878,48,80,0
131.0319,131.10379,51,81,0
131.1069,131.40378,55,81,0
131.4819,131.55379,43,84,0
131.55692,131.62878,50,84,0
131.63191,131.70378,53,85,0
131.70691,132.00378,55,86,0
132.08191,132.15378,43,88,0
132.1569,132.22879,48,89,0
132.2319,132.30379,51,89,0
132.30692,132.60379,55,90,0
132.68192,132.75378,55,93,0
132.75691,132.82878,59,93,0
132.83191,132.90378,62,94,0
132.9069,133.20378,67,94,0
133.2819,133.35379,55,97,0
133.3569,133.42879,60,98,0
133.43192,133.50378,63,98,0
133.50691,133.80379,67,99,0
133.88191,133.95378,55,102,0
133.95691,134.02878,62,102,0
134.0319,134.10379,65,103,0
134.1069,134.40378,67,103,0
134.4819,134.55379,55,106,0
134.55692,134.62878,60,107,0
134.63191,134.70378,63,107,0
134.70691,135.00378,67,108,0
135.08191,135.15378,67,120,0
135.1569,135.22879,71,120,0
135.2319,135.30379,74,120,0
135.30692,135.60379,79,120,0
135.68192,135.75378,67,120,0
135.75691,135.82878,72,120,0
135.83191,135.90378,75,120,0
135.9069,136.20378,79,120,0
136.2819,136.35379,67,120,0
136.3569,136.42879,74,120,0
136.43192,136.50378,77,120,0
136.50691,136.80379,79,120,0
136.88191,136.95378,67,120,0
136.95691,137.02878,72,120,0
137.0319,137.10379,75,120,0
137.1069,137.40378,79,120,0
137.50691,137.60379,67,120,0
137.6069,137.70378,66,120,0
137.70691,137.80379,67,120,0
137.80692,137.90378,71,120,0
137.9069,138.00378,74,120,0
138.00691,138.10379,79,127,0
138.1069,138.20378,74,120,0
138.20691,138.30379,71,120,0
138.30692,138.60379,67,120,0
138.70691,138.80379,71,120,0
138.80692,138.90378,70,120,0
138.9069,139.00378,71,120,0
139.00691,139.10379,74,120,0
139.1069,139.20378,79,120,0
139.20691,139.30379,83,127,0
139.30692,139.40378,79,120,0
139.4069,139.50378,74,120,0
139.50691,139.80379,71,120,0
139.9069,140.00378,74,120,0
140.00691,140.10379,73,120,0
140.1069,140.20378,74,120,0
140.20691,140.30379,77,120,0
140.30692,140.40378,83,120,0
140.4069,140.50378,86,127,0
140.50691,140.60379,83,120,0
140.6069,140.70378,77,120,0
140.70691,141.00378,74,120,0
141.10947,141.20883,77,120,0
141.21204,141.3114,76,120,0
141.3146,141.41658,77,120,0
141.41986,141.52184,83,120,0
141.52513,141.6271,86,120,0
141.63039,141.73802,89,120,0
141.7415,141.84914,86,120,0
141.85262,141.96025,83,120,0
141.96373,142.0777,89,120,0
142.08138,142.2027,86,120,0
142.20686,142.33603,83,120,0
142.3402,143.33672,89,127,0
143.3402,143.44783,87,120,0
143.45131,143.55894,86,120,0
143.56241,143.67006,84,120,0
143.67352,143.78116,83,120,0
143.78464,143.89227,80,120,0
143.89575,144.00339,79,120,0
144.00685,144.1145,77,120,0
144.11797,144.2256,75,120,0
144.22908,144.33672,74,120,0
144.3402,144.44783,72,120,0
144.45131,144.55894,71,120,0
144.56241,144.67006,68,120,0
144.67352,144.75339,67,120,0
144.73602,144.81589,65,120,0
144.802,144.88185,63,120,0
144.86797,144.94783,62,120,0
144.93047,144.99991,60,120,0
145.00685,148.33672,59,120,0
148.50685,148.67004,67,80,0
148.67352,148.82039,72,80,0
148.82352,148.9704,74,80,0
148.97353,149.4204,75,80,0
149.42352,149.57039,77,80,0
149.57352,150.0204,74,80,0
150.02351,150.1704,75,80,0
150.17352,150.7704,72,80,0
150.77351,150.80789,74,80,0
150.81102,150.9204,72,80,0
150.92352,151.07039,71,80,0
151.07352,151.2204,72,80,0
151.22353,151.37039,74,80,0
151.37352,151.4079,77,80,0
151.41103,151.5204,75,80,0
151.52351,151.6704,74,80,0
151.67352,151.82039,75,80,0
151.82352,151.9704,77,80,0
151.97353,152.2704,79,80,0
152.27351,152.57039,79,80,0
152.57352,153.4704,79,80,0
153.47353,153.62039,77,80,0
153.62352,153.7704,79,80,0
153.77351,153.8454,77,80,0
153.84853,153.9204,79,80,0
153.92352,154.37039,80,80,0
154.37352,154.6704,74,80,0
154.67352,154.82039,75,80,0
154.82352,154.9704,77,80,0
154.97353,155.0454,75,80,0
155.04852,155.12039,77,80,0
155.12352,155.57039,79,80,0
155.57352,155.87039,72,80,0
155.87352,156.0204,72,80,0
156.02351,156.1704,74,80,0
156.17352,156.4704,75,80,0
156.47353,156.62039,75,80,0
156.62352,156.7704,77,80,0
156.77351,157.07039,74,80,0
157.07352,157.2204,74,80,0
157.22353,157.37039,75,80,0
157.37352,157.6704,72,80,0
158.72353,158.87039,59,80,0
158.87352,159.0204,62,80,0
159.02351,159.1704,65,80,0
159.32352,159.4704,77,80,0
159.47353,159.62039,74,80,0
159.62352,159.7704,71,80,0
159.92352,160.07039,60,80,0
160.07352,160.2204,63,80,0
160.22353,160.37039,67,80,0
160.52351,160.6704,79,80,0
160.67352,160.82039,75,80,0
160.82352,160.9704,72,80,0
161.12352,161.2704,63,80,0
161.27351,161.4204,67,80,0
161.42352,161.57039,70,80,0
161.72353,161.87039,82,80,0
161.87352,162.0204,79,80,0
162.02351,162.1704,75,80,0
162.32352,162.4704,65,80,0
162.47353,162.62039,68,80,0
162.62352,162.7704,72,80,0
162.77351,162.9204,77,80,0
162.92352,163.07039,80,80,0
163.07352,163.2204,84,80,0
163.22353,163.6704,89,115,0
163.67352,163.9704,87,100,0
163.97353,164.2704,86,100,0
164.27351,164.57039,84,100,0
164.57352,164.87039,83,80,0
164.87352,165.4704,79,80,0
165.47353,165.9204,79,80,0
165.92352,166.07039,81,80,0
166.07352,166.2204,83,80,0
166.22353,166.37039,84,80,0
166.37352,166.5204,86,80,0
166.52351,166.6704,88,80,0
166.67352,166.82039,89,80,0
166.82352,166.9704,86,80,0
166.97353,167.12039,89,80,0
167.12352,167.2704,88,80,0
167.27351,167.4204,86,80,0
167.42352,167.57039,84,80,0
167.57352,167.7204,84,80,0
167.72353,167.87039,83,80,0
167.87352,168.0204,81,80,0
168.02351,168.1704,83,80,0
168.17352,168.32039,86,80,0
168.32352,168.4704,84,80,0
168.47353,168.62039,83,80,0
168.62352,168.7704,81,80,0
168.77351,169.07039,79,80,0
168.77351,169.07039,77,80,0
169.07352,169.37039,79,80,0
169.07352,169.37039,77,80,0
169.37352,169.5204,77,80,0
169.52351,169.6704,76,80,0
169.67352,169.82039,74,80,0
169.82352,169.9704,72,80,0
169.97353,170.12039,72,80,0
170.12352,170.2704,71,80,0
170.27351,170.4204,69,80,0
170.42352,170.57039,71,80,0
169.37352,170.7204,79,80,0
170.57352,170.7204,72,80,0
170.72353,170.87039,81,80,0
170.87352,171.0204,83,80,0
171.02351,171.1704,84,80,0
171.17352,171.32039,86,80,0
171.32352,171.4704,88,80,0
171.47353,171.62039,89,80,0
171.62352,171.7704,86,80,0
171.77351,171.9204,89,80,0
171.92352,172.07039,88,80,0
172.07352,172.2204,86,80,0
172.22353,172.37039,84,80,0
172.37352,172.5204,83,80,0
172.52351,172.6704,84,80,0
172.67352,172.82039,88,81,0
172.82352,172.9704,84,82,0
172.97353,173.12039,83,83,0
173.12352,173.2704,81,83,0
173.27351,173.4204,84,84,0
173.42352,173.57039,81,85,0
173.57352,173.7204,79,86,0
173.72353,173.87039,77,87,0
173.87352,174.0204,81,87,0
174.02351,174.1704,77,88,0
174.17352,174.32039,76,89,0
174.32352,174.4704,74,90,0
174.47353,174.62039,77,91,0
174.62352,174.7704,74,91,0
174.77351,174.9204,81,92,0
174.92352,175.07039,77,93,0
175.07352,175.2204,74,94,0
175.22353,175.37039,72,94,0
175.37352,175.4704,71,80,0
175.47353,175.57039,67,80,0
175.57352,175.6704,69,80,0
175.67352,175.7704,71,80,0
175.77351,175.87039,69,80,0
175.87352,175.9704,67,80,0
175.97353,176.57039,72,80,0
176.57352,176.6704,71,80,0
176.67352,176.7704,67,80,0
176.77351,176.87039,69,80,0
176.87352,176.9704,71,80,0
176.97353,177.07039,69,80,0
177.07352,177.1704,67,80,0
177.17352,177.7704,72,80,0
177.77351,177.87039,71,80,0
177.87352,177.9704,67,80,0
177.97353,178.07039,69,80,0
178.07352,178.1704,71,80,0
178.17352,178.2704,69,80,0
178.27351,178.37039,67,80,0
178.37352,178.4704,74,80,0
178.47353,178.57039,71,80,0
178.57352,178.6704,72,80,0
178.67352,178.7704,74,80,0
178.77351,178.87039,72,80,0
178.87352,178.9704,71,80,0
178.97353,179.07039,77,80,0
179.07352,179.1704,76,80,0
179.17352,179.2704,74,80,0
179.27351,179.37039,72,80,0
179.37352,179.4704,71,80,0
179.47353,179.57039,69,80,0
179.57352,179.6704,67,80,0
179.67352,179.7704,69,80,0
179.77351,179.87039,67,80,0
179.87352,179.9704,65,80,0
179.97353,180.07039,64,80,0
180.07352,180.1704,62,80,0
180.17352,180.2704,64,80,0
180.27351,180.37039,60,80,0
180.37352,180.4704,62,80,0
180.47353,180.57039,64,80,0
180.57352,180.6704,62,80,0
180.67352,180.7704,60,80,0
180.77351,181.37039,65,80,0
181.37352,181.4704,64,80,0
181.47353,181.57039,72,80,0
181.57352,181.6704,74,80,0
181.67352,181.7704,76,80,0
181.77351,181.87039,74,80,0
181.87352,181.9704,72,80,0
181.97353,182.57039,77,80,0
182.57352,182.6704,76,80,0
182.67352,182.7704,72,80,0
182.77351,182.87039,74,80,0
182.87352,182.9704,76,80,0
182.97353,183.07039,74,80,0
183.07352,183.1704,72,80,0
183.17352,183.2704,79,80,0
183.27351,183.37039,76,80,0
183.37352,183.4704,77,80,0
183.47353,183.57039,79,80,0
183.57352,183.6704,77,80,0
183.67352,183.7704,76,80,0
183.77351,183.87039,82,80,0
183.87352,183.9704,81,80,0
183.97353,184.07039,79,80,0
184.07352,184.1704,77,80,0
184.17352,184.2704,76,80,0
184.27351,184.37039,74,80,0
184.37352,184.4704,72,80,0
184.47353,184.57039,71,80,0
184.57352,184.6704,72,80,0
184.67352,184.7704,73,80,0
184.77351,184.87039,74,80,0
184.87352,184.9704,70,80,0
185.27351,185.37039,57,80,0
185.37352,185.4704,60,80,0
185.47353,185.57039,65,80,0
185.57352,185.6704,69,80,0
185.67352,185.7704,72,80,0
185.77351,185.87039,77,80,0
185.87352,186.0204,81,80,0
186.02351,186.1704,81,80,0
186.17352,186.32039,81,80,0
186.32352,186.4704,79,80,0
186.47353,186.62039,77,80,0
186.62352,186.7704,76,80,0
186.77351,186.9204,76,80,0
186.92352,187.07039,74,80,0
187.07352,187.2204,72,80,0
187.22353,187.37039,71,80,0
187.37352,187.6704,72,80,0
188.27351,188.60338,67,80,0
188.60686,188.91936,74,80,0
188.60686,188.91936,71,80,0
188.92264,189.23514,74,80,0
188.92264,189.23514,71,80,0
189.23843,189.55093,74,80,0
189.23843,189.55093,71,80,0
189.55421,189.86671,74,80,0
189.55421,189.86671,71,80,0
189.87001,190.81409,79,80,0
189.87001,190.81409,72,80,0
190.81738,191.12988,79,80,0
190.81738,191.12988,72,80,0
191.13316,191.78908,78,80,0
191.13316,191.78908,75,80,0
191.13316,191.78908,72,80,0
191.79251,192.48253,78,80,0
191.79251,192.48253,74,80,0
191.79251,192.48253,72,80,0
192.48615,192.82935,79,80,0
192.48615,192.82935,74,80,0
192.48615,192.82935,71,80,0
193.52661,193.86981,55,80,0
193.87343,194.17792,62,80,0
193.87343,194.17792,59,80,0
194.18112,194.48561,62,80,0
194.18112,194.48561,59,80,0
194.48882,194.79329,62,80,0
194.48882,194.79329,59,80,0
194.79651,195.10098,62,80,0
194.79651,195.10098,59,80,0
195.41188,195.71637,59,80,0
195.10419,196.02406,67,80,0
195.71957,196.33176,60,80,0
196.02727,196.33176,67,80,0
196.33496,196.63945,65,80,0
196.33496,196.63945,60,80,0
196.64265,196.94714,65,80,0
196.64265,196.94714,60,80,0
196.95035,197.25484,65,80,0
196.95035,197.25484,62,80,0
197.25804,197.56253,65,80,0
197.25804,197.87022,62,80,0
197.87343,198.1779,62,80,0
197.56573,198.4856,70,80,0
198.1811,198.79329,63,80,0
198.4888,198.79329,70,80,0
198.7965,199.10098,69,80,0
198.7965,199.10098,63,80,0
199.10419,199.40868,69,80,0
199.10419,199.40868,66,80,0
199.41188,199.71637,69,80,0
199.41188,199.71637,66,80,0
199.71957,200.02406,69,80,0
199.71957,200.33176,66,80,0
200.33496,200.63945,66,84,0
200.02727,200.94714,74,80,0
200.64265,200.94714,67,89,0
200.95035,201.25482,69,94,0
200.95035,201.56252,66,94,0
201.56572,201.87021,66,87,0
201.25803,202.1779,74,90,0
201.87341,202.1779,67,84,0
202.1811,202.4856,74,81,0
202.1811,202.79329,71,81,0
202.7965,203.10098,71,84,0
202.4888,203.40868,79,80,0
203.10419,203.40868,72,89,0
203.41188,203.71637,74,94,0
203.41188,204.02406,71,94,0
204.02727,204.33174,71,87,0
203.71957,204.63943,79,90,0
204.33496,204.63943,72,84,0
204.64264,204.94713,74,81,0
204.64264,205.25482,71,81,0
205.25803,205.56252,70,80,0
205.56572,205.87021,71,80,0
204.95033,206.1779,80,80,0
205.87341,206.1779,74,80,0
206.4888,206.79329,70,80,0
206.7965,207.10098,71,80,0
206.1811,207.40866,79,80,0
207.10419,207.40866,74,80,0
207.72766,208.04016,70,80,0
208.04346,208.35596,71,80,0
207.41188,208.67174,78,80,0
208.35924,208.67174,74,80,0
208.99936,209.3203,70,80,0
208.67503,209.99727,77,80,0
209.32368,209.99727,71,80,0
210.00095,210.50076,75,80,0
210.00095,210.50076,72,80,0
210.00095,210.50076,67,80,0
210.50389,210.65076,77,80,0
210.65388,211.10075,74,80,0
211.10388,211.25076,75,80,0
211.25389,211.85075,72,80,0
211.85388,211.88826,74,80,0
211.89139,212.00076,72,80,0
212.00389,212.15076,71,80,0
212.15388,212.30077,72,80,0
212.30388,212.45076,74,80,0
212.45389,212.48827,77,80,0
212.49138,212.60075,75,80,0
212.60388,212.75076,74,80,0
212.75389,212.90076,75,80,0
212.90388,213.05077,77,80,0
213.05388,213.35075,79,80,0
213.35388,213.65076,79,80,0
213.65388,214.55077,79,80,0
214.55388,214.70076,77,80,0
214.70389,214.85075,79,80,0
214.85388,214.92577,77,80,0
214.92888,215.00076,79,80,0
215.00389,215.45076,80,80,0
215.45389,215.75076,74,80,0
215.75389,215.90076,75,80,0
215.90388,216.05077,77,80,0
216.05388,216.12576,75,80,0
216.12889,216.20076,77,80,0
216.20389,216.65076,79,80,0
216.65388,216.95076,72,80,0
216.95389,217.10075,72,80,0
217.10388,217.25076,74,80,0
217.25389,217.55077,75,80,0
217.55388,217.70076,75,80,0
217.70389,217.85075,77,80,0
217.85388,218.15076,74,80,0
218.15388,218.30077,74,80,0
218.30388,218.45076,75,80,0
218.45389,218.60075,72,90,0
218.60388,218.75076,71,90,0
218.75389,218.90076,72,91,0
218.90388,219.05077,74,92,0
219.05388,219.20076,75,93,0
219.20389,219.35075,76,94,0
219.35388,219.50076,77,95,0
219.50389,219.65076,79,96,0
219.65388,219.80077,80,96,0
219.80388,219.95076,79,97,0
219.95389,220.10075,82,98,0
220.10388,220.25076,80,99,0
220.25389,220.40076,79,100,0
220.40388,220.55077,77,101,0
220.55388,220.70076,75,102,0
220.70389,220.85075,74,103,0
220.85388,221.00076,79,103,0
221.00389,221.15076,78,104,0
221.15388,221.30077,80,105,0
221.30388,221.45076,79,106,0
221.45389,221.60075,77,107,0
221.60388,221.75076,75,108,0
221.75389,221.90076,74,109,0
221.90388,222.05077,72,109,0
222.05388,222.20076,75,100,0
222.20389,222.35075,74,100,0
222.35388,222.50076,77,100,0
222.50389,222.65076,75,100,0
222.65388,222.80077,74,100,0
222.80388,222.95076,73,100,0
222.95389,223.10075,75,100,0
223.10388,223.25076,74,100,0
223.25389,223.55077,72,80,0
223.95389,224.05077,84,81,0
224.05388,224.15076,86,82,0
224.15388,224.25076,88,83,0
224.25389,224.35075,86,85,0
224.35388,224.45076,84,86,0
224.45389,224.75076,89,98,0
225.15388,225.25076,84,97,0
225.25389,225.35075,86,98,0
225.35388,225.45076,88,99,0
225.45389,225.55077,86,101,0
225.55388,225.65076,84,102,0
225.65388,225.95076,89,117,0
226.35388,226.45076,84,113,0
226.45389,226.55077,86,114,0
226.55388,226.65076,88,115,0
226.65388,226.75076,86,117,0
226.75389,226.85075,84,118,0
226.85388,227.15076,89,119,0
227.15388,227.45076,84,120,0
227.15388,227.45076,78,120,0
227.15388,227.45076,75,120,0
227.15388,227.45076,72,120,0
227.45389,227.75076,84,120,0
227.45389,227.75076,79,120,0
227.45389,227.75076,75,120,0
227.45389,227.75076,72,120,0
227.75389,228.05077,83,120,0
227.75389,228.05077,79,120,0
227.75389,228.05077,74,120,0
227.75389,228.05077,71,120,0
228.05388,228.35075,84,120,0
228.05388,228.35075,79,120,0
228.05388,228.35075,72,120,0
228.05388,228.35075,75,120,0
228.75389,228.85075,72,100,0
228.85388,228.95076,74,100,0
228.95389,229.05077,76,100,0
229.05388,229.15076,74,100,0
229.15388,229.25076,72,100,0
229.25389,229.55077,77,113,0
229.95389,230.05077,72,100,0
230.05388,230.15076,74,100,0
230.15388,230.25076,76,100,0
230.25389,230.35075,74,100,0
230.35388,230.45076,72,100,0
230.45389,230.75076,77,118,0
231.15388,231.25076,60,100,0
231.25389,231.35075,62,100,0
231.35388,231.45076,64,100,0
231.45389,231.55077,62,100,0
231.55388,231.65076,60,100,0
231.65388,231.75076,65,80,0
231.75389,231.85075,60,80,0
231.85388,231.95076,62,80,0
231.95389,232.05077,63,81,0
232.05388,232.15076,62,81,0
232.15388,232.25076,60,82,0
232.25389,232.35075,66,82,0
232.35388,232.45076,60,82,0
232.45389,232.55077,62,83,0
232.55388,232.65076,63,83,0
232.65388,232.75076,62,84,0
232.75389,232.85075,60,84,0
232.85388,232.95076,67,85,0
232.95389,233.05077,60,85,0
233.05388,233.15076,62,85,0
233.15388,233.25076,63,86,0
233.25389,233.35075,62,86,0
233.35388,233.45076,60,87,0
233.45389,233.55077,69,87,0
233.55388,233.65076,60,88,0
233.65388,233.75076,62,88,0
233.75389,233.85075,63,88,0
233.85388,233.95076,62,89,0
233.95389,234.05077,60,89,0
234.05388,234.15076,71,90,0
234.15388,234.25076,59,90,0
234.25389,234.35075,60,91,0
234.35388,234.45076,62,91,0
234.45389,234.55077,60,91,0
234.55388,234.65076,59,92,0
234.65388,234.75076,72,92,0
234.75389,234.85075,60,93,0
234.85388,234.95076,62,93,0
234.95389,235.05077,63,94,0
235.05388,235.15076,62,94,0
235.15388,235.25076,60,94,0
235.25389,235.35075,74,95,0
235.35388,235.45076,62,95,0
235.45389,235.55077,63,96,0
235.55388,235.65076,65,96,0
235.65388,235.75076,63,97,0
235.75389,235.85075,62,97,0
235.85388,235.95076,71,97,0
235.95389,236.05077,59,98,0
236.05388,236.15076,60,98,0
236.15388,236.25076,62,99,0
236.25389,236.35075,60,99,0
236.35388,236.45076,59,99,0
236.45389,236.75076,72,110,0
236.45389,236.75076,60,110,0
237.05388,237.35075,79,123,0
237.35388,237.42577,77,110,0
237.42888,237.50076,75,110,0
237.50389,237.57576,74,110,0
237.57889,237.65076,72,110,0
237.65388,237.95076,74,110,0
238.25389,238.55077,77,120,0
238.55388,238.62576,75,110,0
238.62889,238.70076,74,110,0
238.70389,238.77576,72,110,0
238.77888,238.85075,71,110,0
238.85388,239.15076,72,110,0
238.85388,239.15076,60,110,0
239.45389,239.75076,79,124,0
239.75389,239.82576,77,110,0
239.82889,239.90076,75,110,0
239.90388,239.97575,74,110,0
239.97888,240.05077,72,110,0
240.05388,240.35075,74,110,0
240.65388,240.95076,77,123,0
240.95389,241.02576,75,110,0
241.02888,241.10075,74,110,0
241.10388,241.17577,72,110,0
241.17888,241.25076,71,110,0
241.25389,241.56638,72,110,0
241.25389,241.56638,60,110,0
241.88547,242.21532,79,120,0
242.2188,242.29866,77,110,0
242.30212,242.38199,75,110,0
242.38547,242.46532,74,110,0
242.4688,242.54866,72,110,0
242.55212,242.88199,73,110,0
243.26047,245.13156,89,120,0
245.13547,245.33078,87,120,0
245.26047,245.45187,85,120,0
245.38547,245.57297,84,120,0
245.51047,245.69797,82,120,0
245.63547,245.83469,80,120,0
245.76047,245.94016,79,120,0
245.88547,246.07687,77,120,0
246.01047,246.18234,75,120,0
246.13547,246.30734,73,120,0
246.26047,246.36203,72,120,0
246.32297,246.41281,70,120,0
246.38547,246.47531,68,120,0
246.44797,246.53781,67,120,0
246.51047,246.60031,65,120,0
246.57297,246.67062,63,120,0
246.63547,246.72531,61,120,0
246.69406,246.79172,60,120,0
246.75266,246.85031,58,120,0
246.80734,246.905,56,120,0
246.86203,246.9636,55,120,0
246.92062,247.00266,53,120,0
246.95578,247.00266,51,120,0
247.01047,251.13156,49,120,0
251.13547,251.31906,56,80,0
251.32297,251.50656,58,80,0
251.51047,252.00699,60,80,0
252.01047,252.17366,61,80,0
252.17712,252.67366,58,80,0
252.67712,252.84032,60,80,0
252.8438,253.17366,56,80,0
253.8438,254.00699,68,80,0
254.01045,254.17365,70,80,0
254.17712,254.67365,72,79,0
254.67712,254.84032,73,76,0
254.8438,255.34032,70,75,0
255.3438,255.50699,72,72,0
255.51045,255.84032,68,71,0
256.51047,256.8403,72,70,0
256.84378,257.17365,78,70,0
256.84378,257.17365,75,70,0
257.84378,258.21487,72,60,0
258.21878,258.58987,75,60,0
258.21878,258.58987,79,60,0
259.28793,259.391,87,120,0
259.39432,259.49738,86,120,0
259.5007,259.60376,84,120,0
259.6071,259.70395,89,120,0
259.7071,259.80396,87,120,0
259.8071,259.90396,86,120,0
259.90707,260.00397,84,120,0
260.00708,260.10397,83,120,0
260.1071,260.20395,80,120,0
260.2071,260.30396,79,120,0
260.3071,260.40396,77,120,0
260.40707,260.50397,75,120,0
260.50708,260.60907,74,120,0
260.61234,260.71432,72,120,0
260.71762,260.81958,71,120,0
260.82288,261.13538,72,120,0
262.40182,262.71432,60,1,0
0.6,0.746875,48,80,0
0.75,0.896875,51,80,0
0.9,1.046875,55,80,0
1.05,1.196875,60,80,0
1.2,1.346875,48,80,0
1.35,1.496875,53,80,0
1.5,1.646875,55,80,0
1.65,1.796875,59,80,0
1.8,1.946875,48,80,0
1.95,2.096875,51,80,0
2.1,2.246875,55,80,0
2.25,2.396875,60,80,0
2.4,2.546875,63,80,0
2.55,2.696875,67,80,0
2.7,2.846875,63,80,0
2.85,2.996875,62,80,0
3.0,3.146875,60,80,0
3.15,3.296875,67,80,0
3.3,3.446875,60,80,0
3.3,3.446875,63,80,0
3.45,3.596875,67,80,0
3.6,3.746875,62,80,0
3.6,3.746875,59,80,0
3.75,3.896875,67,80,0
3.9,4.046875,56,80,0
3.9,4.046875,60,80,0
4.05,4.196875,67,80,0
4.2,4.346875,55,80,0
4.35,4.496875,59,80,0
4.5,4.646875,62,80,0
4.65,4.796875,67,80,0
4.8,4.946875,55,80,0
4.95,5.096875,59,80,0
5.1,5.246875,62,80,0
5.25,5.396875,67,80,0
5.4,5.546875,53,80,0
5.55,5.696875,56,80,0
5.7,5.846875,59,80,0
5.85,5.996875,62,80,0
6.0,6.146875,53,80,0
6.15,6.296875,56,80,0
6.3,6.446875,59,80,0
6.45,6.596875,62,80,0
6.6,6.746875,51,80,0
6.75,6.896875,56,80,0
6.9,7.046875,60,80,0
7.05,7.196875,63,80,0
7.2,7.346875,56,80,0
7.35,7.496875,60,80,0
7.5,7.646875,63,80,0
7.65,7.796875,66,80,0
7.8,7.946875,55,80,0
7.95,8.096875,60,80,0
8.1,8.246875,63,80,0
8.25,8.396875,67,80,0
8.4,8.546875,55,80,0
8.55,8.696875,59,80,0
8.7,8.846875,62,80,0
8.85,8.996875,67,80,0
9.15,9.296875,48,80,0
9.3,9.446875,51,80,0
9.45,9.596875,55,80,0
9.6,9.896875,60,80,0
10.35,10.496875,41,80,0
10.5,10.646875,47,80,0
10.65,10.796875,50,80,0
10.8,10.946875,53,80,0
10.95,11.096875,56,80,0
11.1,11.246875,55,80,0
11.25,11.396875,53,80,0
11.55,11.696875,39,80,0
11.7,11.846875,43,80,0
11.85,11.996875,48,80,0
12.0,12.146875,51,80,0
12.15,12.296875,55,80,0
12.3,12.446875,56,80,0
12.45,12.596875,54,80,0
12.6,12.746875,43,80,0
12.75,12.896875,55,80,0
12.9,13.046875,60,80,0
13.05,13.196875,55,80,0
13.2,13.346875,43,80,0
13.35,13.496875,55,80,0
13.5,13.646875,59,80,0
13.65,13.796875,55,80,0
13.8,13.946875,48,80,0
13.95,14.096875,60,80,0
14.1,14.246875,59,81,0
14.25,14.396875,60,82,0
14.4,14.546875,52,83,0
14.55,14.696875,60,84,0
14.7,14.846875,55,85,0
14.85,14.996875,60,86,0
15.0,15.146875,53,87,0
15.15,15.296875,60,88,0
15.3,15.446875,56,89,0
15.45,15.596875,60,90,0
15.6,15.746875,55,91,0
15.75,15.896875,65,92,0
15.9,16.046875,59,93,0
16.05,16.196875,65,94,0
16.2,16.346874,56,95,0
16.35,16.496876,63,96,0
16.5,16.646875,60,97,0
16.65,16.796875,63,98,0
16.8,16.946875,55,99,0
16.95,17.096874,64,100,0
17.1,17.246876,60,101,0
17.25,17.396875,64,102,0
17.4,17.546875,53,103,0
17.55,17.696875,65,104,0
17.7,17.846874,60,105,0
17.85,17.996876,65,106,0
18.0,18.146875,55,107,0
18.15,18.296875,67,108,0
18.3,18.446875,55,109,0
18.45,18.596874,67,109,0
18.6,18.896875,60,110,0
18.9,19.196875,59,110,0
18.9,19.196875,55,110,0
19.2,19.496876,60,110,0
19.2,19.496876,48,110,0
19.5,19.796875,55,110,0
19.5,19.796875,43,110,0
19.8,20.096874,48,110,0
19.8,20.096874,36,110,0
21.0,22.196875,46,110,0
21.0,22.196875,34,110,0
22.2,22.496876,44,80,0
22.2,22.496876,32,80,0
23.7,23.996876,60,80,0
23.7,23.996876,52,80,0
24.0,24.296875,52,80,0
24.0,24.296875,60,80,0
24.3,24.596874,60,80,0
24.3,24.596874,52,80,0
24.6,25.496876,60,80,0
24.6,25.496876,53,80,0
25.8,26.996876,44,110,0
25.8,26.996876,32,110,0
27.0,27.296875,43,80,0
27.0,27.296875,31,80,0
28.5,28.796875,58,80,0
28.5,28.796875,50,80,0
28.8,29.096874,58,80,0
28.8,29.096874,50,80,0
29.1,29.396875,58,80,0
29.1,29.396875,50,80,0
29.4,29.546875,51,80,0
29.55,29.696875,58,80,0
29.7,29.846874,63,80,0
29.85,29.996876,58,80,0
30.0,30.146875,56,80,0
30.15,30.296875,58,80,0
30.3,30.446875,62,80,0
30.45,30.596874,58,80,0
30.6,30.746876,55,80,0
30.75,30.896875,58,80,0
30.9,31.046875,63,80,0
31.05,31.196875,58,80,0
31.2,31.346874,50,80,0
31.35,31.496876,58,80,0
31.5,31.646875,62,80,0
31.65,31.796875,58,80,0
31.8,31.946875,51,80,0
31.95,32.096874,58,80,0
32.1,32.246876,63,80,0
32.25,32.396873,58,80,0
32.4,32.546875,56,80,0
32.55,32.696877,58,80,0
32.7,32.846874,65,80,0
32.85,32.996876,58,80,0
33.0,33.146873,55,80,0
33.15,33.296875,58,80,0
33.3,33.446877,63,80,0
33.45,33.596874,58,80,0
33.6,33.746876,50,80,0
33.75,33.896873,58,80,0
33.9,34.046875,50,80,0
34.05,34.196877,58,80,0
34.2,34.346874,51,80,0
34.35,34.496876,58,80,0
34.5,34.646873,51,80,0
34.65,34.796875,58,80,0
34.8,34.946877,56,80,0
34.95,35.096874,58,80,0
35.1,35.246876,56,80,0
35.25,35.396873,58,80,0
35.4,35.546875,54,80,0
35.55,35.696877,58,80,0
35.7,35.846874,54,80,0
35.85,35.996876,58,80,0
36.0,36.146873,50,80,0
36.15,36.296875,58,80,0
36.3,36.446877,50,80,0
36.45,36.596874,58,80,0
36.6,36.746876,51,80,0
36.75,36.896873,58,80,0
36.9,37.046875,54,81,0
37.05,37.196877,58,82,0
37.2,37.346874,46,83,0
37.35,37.496876,58,84,0
37.5,37.646873,50,85,0
37.65,37.796875,58,86,0
37.8,37.946877,47,87,0
37.95,38.096874,58,88,0
38.1,38.246876,51,89,0
38.25,38.396873,58,90,0
38.4,38.546875,48,91,0
38.55,38.696877,57,92,0
38.7,38.846874,51,93,0
38.85,38.996876,57,94,0
39.0,39.296875,46,80,0
39.3,39.596874,62,80,0
39.3,39.596874,65,80,0
39.3,39.596874,58,80,0
39.6,40.196877,58,100,0
39.6,40.196877,63,100,0
39.6,40.196877,66,100,0
40.5,40.796875,62,80,0
40.5,40.796875,65,80,0
40.5,40.796875,58,80,0
40.8,41.396873,58,90,0
40.8,41.396873,63,90,0
40.8,41.396873,66,90,0
41.4,41.696877,58,80,0
41.4,41.696877,62,80,0
41.4,41.696877,65,80,0
42.0,42.296875,58,80,0
42.0,42.296875,65,80,0
42.0,42.296875,68,80,0
42.6,42.896873,58,80,0
42.6,42.896873,62,80,0
42.6,42.896873,65,80,0
42.6,42.896873,68,80,0
43.8,44.096874,51,80,0
44.5,44.596874,58,80,0
44.6,44.696877,60,80,0
44.7,44.796875,62,80,0
44.8,44.896873,60,80,0
44.9,44.996876,58,80,0
45.0,45.296875,63,80,0
45.7,45.796875,58,80,0
45.8,45.896873,60,80,0
45.9,45.996876,62,80,0
46.0,46.096874,60,80,0
46.1,46.196877,58,80,0
46.2,46.496876,63,80,0
46.8,47.096874,63,80,0
47.4,47.696877,63,80,0
47.4,47.696877,61,80,0
47.4,47.696877,58,80,0
47.4,47.696877,55,80,0
48.6,48.696877,44,80,0
48.7,48.796875,48,80,0
48.8,48.896873,51,80,0
48.9,49.196877,56,80,0
49.8,50.1125,58,80,0
49.8,50.1125,63,80,0
49.8,50.1125,67,80,0
50.43158,50.76144,58,80,0
50.43158,50.76144,65,80,0
50.43158,50.76144,68,80,0
51.11785,51.467117,63,80,0
51.11785,51.467117,67,80,0
52.423733,52.720608,58,80,0
52.423733,52.720608,56,80,0
52.723736,53.02061,58,80,0
52.723736,53.02061,56,80,0
53.023735,53.32061,58,80,0
53.023735,53.32061,56,80,0
53.323734,53.62061,58,80,0
53.323734,53.62061,56,80,0
53.623734,54.52061,58,80,0
53.623734,54.52061,55,80,0
54.523735,54.82061,55,80,0
54.823734,55.42061,60,80,0
55.423733,56.069004,59,80,0
56.072384,57.12753,58,80,0
57.431206,57.72808,62,80,0
57.431206,57.72808,56,80,0
57.731205,58.02808,62,84,0
57.731205,58.02808,56,84,0
58.031204,58.32808,62,88,0
58.031204,58.32808,56,88,0
58.331203,58.62808,62,92,0
58.331203,58.62808,56,92,0
58.631207,59.82808,63,97,0
58.631207,59.82808,55,97,0
59.831203,60.12808,63,110,0
59.831203,60.12808,56,110,0
60.431206,60.72808,58,110,0
60.431206,60.72808,46,110,0
61.131207,61.22808,63,80,0
61.231205,61.32808,65,80,0
61.331203,61.42808,67,80,0
61.431206,61.52808,65,80,0
61.531204,61.62808,63,80,0
61.631207,62.22808,68,80,0
62.231205,62.32808,67,80,0
62.331203,62.42808,63,80,0
62.431206,62.52808,65,80,0
62.531204,62.62808,67,80,0
62.631207,62.72808,65,80,0
62.731205,62.82808,63,80,0
62.831203,63.42808,68,80,0
63.431206,63.72808,63,80,0
63.431206,63.72808,67,80,0
63.731205,64.02808,60,80,0
64.031204,64.32808,56,80,0
64.33121,64.62808,58,80,0
64.73121,64.82808,39,80,0
64.83121,64.92808,41,80,0
64.931206,65.02808,43,80,0
65.031204,65.12808,41,80,0
65.1312,65.22808,39,80,0
65.23121,65.82808,44,104,0
65.83121,65.92808,43,80,0
65.931206,66.02808,39,80,0
66.031204,66.12808,41,80,0
66.1312,66.22808,43,80,0
66.23121,66.32808,41,80,0
66.33121,66.42808,39,80,0
66.431206,67.02808,44,105,0
67.031204,67.12808,43,80,0
67.1312,67.22808,39,81,0
67.23121,67.32808,41,82,0
67.33121,67.42808,43,83,0
67.431206,67.52808,41,85,0
67.531204,67.62808,39,86,0
67.6312,68.22808,44,87,0
69.573586,72.23677,31,120,0
69.573586,72.23677,43,120,0
72.24025,75.57011,43,120,0
72.24025,75.57011,50,120,0
72.24025,75.57011,53,120,0
76.20691,76.35378,48,80,0
76.35691,76.503784,51,80,0
76.50691,76.653786,55,80,0
76.656906,76.80379,60,80,0
76.80691,76.95378,48,80,0
76.95691,77.10378,53,80,0
77.10691,77.253784,55,80,0
77.25691,77.403786,59,80,0
77.406906,77.55379,48,80,0
77.55691,77.70378,51,80,0
77.70691,77.85378,55,80,0
77.85691,78.003784,60,80,0
78.00691,78.153786,63,80,0
78.156906,78.30379,67,80,0
78.30691,78.45378,63,80,0
78.45691,78.60378,62,80,0
78.60691,78.753784,60,80,0
78.75691,78.903786,67,80,0
78.906906,79.05379,60,80,0
78.906906,79.05379,63,80,0
79.05691,79.20378,67,80,0
79.20691,79.35378,62,80,0
79.20691,79.35378,59,80,0
79.35691,79.503784,67,80,0
79.50691,79.653786,56,80,0
79.50691,79.653786,60,80,0
79.656906,79.80379,67,80,0
79.80691,79.95378,55,80,0
79.95691,80.10378,59,80,0
80.10691,80.253784,62,80,0
80.25691,80.403786,67,80,0
80.406906,80.55379,55,80,0
80.55691,80.70378,59,80,0
80.70691,80.85378,62,80,0
80.85691,81.003784,67,80,0
81.00691,81.153786,53,80,0
81.156906,81.30379,56,80,0
81.30691,81.45378,59,80,0
81.45691,81.60378,62,80,0
81.60691,81.753784,53,80,0
81.75691,81.903786,56,80,0
81.906906,82.05379,59,80,0
82.05691,82.20378,62,80,0
82.20691,82.35378,51,80,0
82.35691,82.503784,56,80,0
82.50691,82.653786,60,80,0
82.656906,82.80379,63,80,0
82.80691,82.95378,56,80,0
82.95691,83.10378,60,80,0
83.10691,83.253784,63,80,0
83.25691,83.403786,66,80,0
83.406906,83.55379,55,80,0
83.55691,83.70378,60,80,0
83.70691,83.85378,63,80,0
83.85691,84.003784,67,80,0
84.00691,84.153786,55,80,0
84.156906,84.30379,59,80,0
84.30691,84.45378,62,80,0
84.45691,84.60378,67,80,0
84.75691,84.903786,48,80,0
84.906906,85.05379,51,80,0
85.05691,85.20378,55,80,0
85.20691,85.503784,60,80,0
85.95691,86.10378,41,80,0
86.10691,86.253784,47,80,0
86.25691,86.403786,50,80,0
86.406906,86.55379,53,80,0
86.55691,86.70378,56,80,0
86.70691,86.85378,55,80,0
86.85691,87.003784,53,80,0
87.156906,87.30379,39,80,0
87.30691,87.45378,43,80,0
87.45691,87.60378,48,80,0
87.60691,87.753784,51,80,0
87.75691,87.903786,55,80,0
87.906906,88.05379,56,80,0
88.05691,88.20378,54,80,0
88.20691,88.35378,43,80,0
88.35691,88.503784,55,80,0
88.50691,88.653786,60,80,0
88.656906,88.80379,55,80,0
88.80691,88.95378,43,80,0
88.95691,89.10378,55,80,0
89.10691,89.253784,59,80,0
89.25691,89.403786,55,80,0
89.406906,89.55379,48,80,0
89.55691,89.70378,60,80,0
89.70691,89.85378,59,81,0
89.85691,90.003784,60,82,0
90.00691,90.153786,52,83,0
90.156906,90.30379,60,84,0
90.30691,90.45378,55,85,0
90.45691,90.60378,60,86,0
90.60691,90.753784,53,87,0
90.75691,90.903786,60,88,0
90.906906,91.05379,56,89,0
91.05691,91.20378,60,90,0
91.20691,91.35378,55,91,0
91.35691,91.503784,65,92,0
91.50691,91.653786,59,93,0
91.656906,91.80379,65,94,0
91.80691,91.95378,56,95,0
91.95691,92.10378,63,96,0
92.10691,92.253784,60,97,0
92.25691,92.403786,63,98,0
92.406906,92.55379,55,99,0
92.55691,92.70378,64,100,0
92.70691,92.85378,60,101,0
92.85691,93.003784,64,102,0
93.00691,93.153786,53,103,0
93.156906,93.30379,65,104,0
93.30691,93.45378,60,105,0
93.45691,93.60378,65,106,0
93.60691,93.753784,55,107,0
93.75691,93.903786,67,108,0
93.906906,94.05379,55,109,0
94.05691,94.20378,67,109,0
94.20691,94.503784,60,110,0
94.50691,94.80379,59,110,0
94.50691,94.80379,55,110,0
94.80691,95.10378,60,110,0
94.80691,95.10378,48,110,0
95.10691,95.403786,55,110,0
95.10691,95.403786,43,110,0
95.406906,95.70378,48,110,0
95.406906,95.70378,36,110,0
96.156906,96.30379,44,80,0
96.30691,96.45378,48,80,0
96.45691,96.60378,51,80,0
96.60691,97.20378,56,80,0
97.20691,97.80379,49,80,0
97.80691,98.403786,55,80,0
98.406906,99.003784,48,80,0
99.00691,99.30379,53,80,0
99.30691,99.903786,46,80,0
99.906906,100.20378,48,80,0
100.20691,100.503784,49,80,0
100.50691,100.80379,50,80,0
100.80691,101.10378,51,80,0
101.10691,101.403786,39,80,0
101.406906,102.003784,44,80,0
102.00691,102.60378,49,80,0
102.60691,103.20378,43,80,0
103.20691,103.80379,48,80,0
103.80691,104.403786,41,80,0
104.406906,104.70378,43,80,0
104.70691,105.003784,44,80,0
105.00691,105.30379,45,80,0
105.30691,105.60378,46,80,0
105.60691,105.903786,39,80,0
106.50691,107.10378,60,80,0
106.50691,107.10378,56,80,0
107.10691,107.70378,49,80,0
107.10691,107.70378,53,80,0
107.70691,108.30379,55,80,0
107.70691,108.30379,58,80,0
108.30691,108.903786,48,80,0
108.30691,108.903786,51,80,0
108.906906,109.20378,53,80,0
108.906906,109.20378,56,80,0
109.20691,109.503784,46,80,0
109.50691,109.80379,48,80,0
109.80691,110.10378,49,80,0
110.10691,110.403786,50,80,0
110.406906,110.70378,51,80,0
111.00691,111.60378,56,80,0
111.00691,111.60378,60,80,0
111.60691,112.20378,61,80,0
111.60691,112.20378,65,80,0
112.20691,112.80379,55,80,0
112.20691,112.80379,58,80,0
112.80691,113.403786,60,80,0
112.80691,113.403786,63,80,0
113.406906,114.003784,53,80,0
114.00691,114.30379,55,80,0
114.30691,114.60378,56,80,0
114.60691,114.903786,57,80,0
114.906906,115.20378,58,80,0
115.20691,115.503784,51,80,0
115.50691,115.80379,63,80,0
115.80691,116.10378,62,80,0
116.10691,116.403786,63,80,0
116.406906,116.70378,66,80,0
116.70691,117.003784,56,80,0
117.00691,117.30379,58,80,0
117.906906,118.20378,61,80,0
117.906906,118.20378,51,80,0
118.20691,118.503784,56,80,0
118.20691,118.503784,60,80,0
119.10691,119.403786,56,80,0
119.10691,119.403786,46,80,0
119.406906,119.70378,55,80,0
119.406906,119.70378,51,80,0
120.156906,120.30379,75,80,0
120.30691,120.45378,77,80,0
120.45691,120.60378,79,80,0
120.60691,120.753784,80,80,0
120.75691,120.903786,79,80,0
120.906906,121.05379,77,80,0
121.05691,121.20378,75,80,0
121.20691,121.35378,73,80,0
121.35691,121.503784,72,80,0
121.50691,121.653786,70,80,0
121.656906,121.80379,68,80,0
121.80691,121.95378,67,80,0
121.95691,122.10378,65,80,0
122.10691,122.253784,63,80,0
122.25691,122.403786,61,80,0
122.406906,122.55379,60,80,0
122.55691,122.70378,58,80,0
122.70691,122.85378,56,80,0
122.85691,123.003784,55,80,0
123.00691,123.153786,53,80,0
123.156906,123.30379,51,81,0
123.30691,123.45378,49,83,0
123.45691,123.60378,48,85,0
123.60691,123.753784,46,87,0
123.75691,123.903786,45,89,0
123.906906,124.05379,46,91,0
124.05691,124.20378,48,93,0
124.20691,124.35378,49,95,0
124.35691,124.503784,48,97,0
124.50691,124.653786,49,99,0
124.656906,124.80379,50,101,0
124.80691,124.95378,51,103,0
124.95691,125.10378,53,105,0
125.10691,125.253784,54,107,0
125.25691,125.403786,55,109,0
125.406906,126.003784,44,110,0
126.00691,126.60378,49,110,0
126.60691,127.20378,43,110,0
127.20691,127.80379,48,110,0
127.80691,128.40378,41,110,0
128.4069,129.60379,29,121,0
128.4069,129.60379,41,119,0
129.6069,130.20378,42,96,0
129.6069,130.20378,30,96,0
130.20691,130.50378,31,75,0
130.6569,130.72879,38,78,0
130.7319,130.80379,35,78,0
130.80692,131.10379,31,79,0
131.25691,131.32878,39,82,0
131.33191,131.40378,36,83,0
131.4069,131.70378,31,83,0
131.8569,131.92879,41,87,0
131.93192,132.00378,38,87,0
132.00691,132.30379,31,88,0
132.45691,132.52878,39,91,0
132.5319,132.60379,36,92,0
132.6069,132.90378,31,92,0
133.05692,133.12878,50,96,0
133.13191,133.20378,47,96,0
133.20691,133.50378,43,97,0
133.6569,133.72879,51,100,0
133.7319,133.80379,48,101,0
133.80692,134.10379,43,101,0
134.25691,134.32878,53,104,0
134.33191,134.40378,50,105,0
134.4069,134.70378,43,106,0
134.8569,134.92879,51,109,0
134.93192,135.00378,48,109,0
135.00691,135.30379,43,120,0
135.45691,135.52878,62,120,0
135.5319,135.60379,59,120,0
135.6069,135.90378,55,120,0
136.05692,136.12878,63,120,0
136.13191,136.20378,60,120,0
136.20691,136.50378,55,120,0
136.6569,136.72879,65,120,0
136.7319,136.80379,62,120,0
136.80692,137.10379,55,120,0
137.25691,137.32878,63,120,0
137.33191,137.40378,60,120,0
137.4069,137.70378,55,120,0
138.30692,138.40378,55,120,0
138.4069,138.50378,50,120,0
138.50691,138.60379,47,120,0
138.6069,138.90378,43,120,0
139.50691,139.60379,55,120,0
139.6069,139.70378,50,120,0
139.70691,139.80379,47,120,0
139.80692,140.10379,43,120,0
140.70691,140.80379,43,120,0
140.80692,140.90378,38,120,0
140.9069,141.00378,35,120,0
141.00691,141.3114,31,120,0
142.3402,145.00339,31,127,0
142.3402,145.00339,43,127,0
145.00685,148.33672,43,120,0
145.00685,148.33672,50,120,0
145.00685,148.33672,53,120,0
148.97353,149.12039,48,80,0
149.12352,149.2704,51,80,0
149.27351,149.4204,55,80,0
149.42352,149.57039,60,80,0
149.57352,149.7204,48,80,0
149.72353,149.87039,53,80,0
149.87352,150.0204,55,80,0
150.02351,150.1704,59,80,0
150.17352,150.32039,48,80,0
150.32352,150.4704,51,80,0
150.47353,150.62039,55,80,0
150.62352,150.7704,60,80,0
150.77351,150.9204,63,80,0
150.92352,151.07039,67,80,0
151.07352,151.2204,63,80,0
151.22353,151.37039,62,80,0
151.37352,151.5204,60,80,0
151.52351,151.6704,67,80,0
151.67352,151.82039,60,80,0
151.67352,151.82039,63,80,0
151.82352,151.9704,67,80,0
151.97353,152.12039,62,80,0
151.97353,152.12039,59,80,0
152.12352,152.2704,67,80,0
152.27351,152.4204,56,80,0
152.27351,152.4204,60,80,0
152.42352,152.57039,67,80,0
152.57352,152.7204,55,80,0
152.72353,152.87039,59,80,0
152.87352,153.0204,62,80,0
153.02351,153.1704,67,80,0
153.17352,153.32039,55,80,0
153.32352,153.4704,59,80,0
153.47353,153.62039,62,80,0
153.62352,153.7704,67,80,0
153.77351,153.9204,53,80,0
153.92352,154.07039,56,80,0
154.07352,154.2204,59,80,0
154.22353,154.37039,62,80,0
154.37352,154.5204,53,80,0
154.52351,154.6704,56,80,0
154.67352,154.82039,59,80,0
154.82352,154.9704,62,80,0
154.97353,155.12039,51,80,0
155.12352,155.2704,56,80,0
155.27351,155.4204,60,80,0
155.42352,155.57039,63,80,0
155.57352,155.7204,56,80,0
155.72353,155.87039,60,80,0
155.87352,156.0204,63,80,0
156.02351,156.1704,66,80,0
156.17352,156.32039,55,80,0
156.32352,156.4704,60,80,0
156.47353,156.62039,63,80,0
156.62352,156.7704,67,80,0
156.77351,156.9204,55,80,0
156.92352,157.07039,59,80,0
157.07352,157.2204,62,80,0
157.22353,157.37039,67,80,0
157.52351,157.6704,36,80,0
157.67352,157.82039,39,80,0
157.82352,157.9704,43,80,0
157.97353,158.12039,48,80,0
158.12352,158.2704,51,80,0
158.27351,158.4204,53,80,0
158.42352,158.57039,55,80,0
158.57352,159.1704,56,80,0
159.17352,159.4704,50,80,0
159.47353,159.62039,51,80,0
159.62352,159.7704,53,80,0
159.77351,160.37039,55,80,0
160.37352,160.6704,48,80,0
160.67352,160.82039,58,80,0
160.82352,160.9704,60,80,0
160.97353,161.57039,61,80,0
161.57352,161.87039,55,80,0
161.87352,162.0204,56,80,0
162.02351,162.1704,58,80,0
162.17352,162.7704,60,80,0
162.77351,163.07039,53,80,0
163.37352,163.6704,60,80,0
163.37352,163.9704,56,80,0
163.67352,163.9704,65,80,0
163.97353,164.2704,60,80,0
163.97353,164.57039,56,80,0
164.27351,164.57039,66,80,0
164.57352,164.87039,55,80,0
164.87352,165.1704,67,80,0
165.17352,165.4704,65,80,0
165.47353,165.7704,67,80,0
165.77351,166.07039,64,80,0
166.07352,166.37039,67,80,0
166.37352,166.6704,59,80,0
166.67352,166.9704,67,80,0
166.97353,167.2704,60,80,0
167.27351,167.57039,67,80,0
167.57352,167.87039,65,80,0
167.57352,168.1704,74,80,0
167.87352,168.1704,67,80,0
168.17352,168.4704,64,80,0
168.17352,168.7704,72,80,0
168.47353,168.7704,67,80,0
168.77351,169.07039,59,80,0
169.07352,169.37039,67,80,0
169.37352,169.6704,60,80,0
169.67352,169.9704,67,80,0
169.97353,170.2704,65,80,0
170.27351,170.57039,67,80,0
170.57352,170.87039,64,80,0
170.87352,171.1704,67,80,0
171.17352,171.4704,59,80,0
171.47353,171.7704,67,80,0
171.77351,172.07039,60,80,0
172.07352,172.37039,67,80,0
172.37352,172.6704,72,80,0
172.37352,172.9704,64,80,0
172.67352,172.9704,67,81,0
172.97353,173.2704,72,83,0
172.97353,173.57039,65,83,0
173.27351,173.57039,69,84,0
173.57352,173.87039,73,86,0
173.57352,174.1704,65,86,0
173.87352,174.1704,69,87,0
174.17352,174.4704,74,89,0
174.17352,174.4704,65,89,0
174.47353,174.7704,69,91,0
174.77351,175.07039,65,92,0
175.07352,175.37039,66,94,0
175.37352,175.5204,67,80,0
176.07352,176.1704,62,80,0
176.17352,176.2704,64,80,0
176.27351,176.37039,66,80,0
176.37352,176.4704,64,80,0
176.47353,176.57039,62,80,0
176.57352,176.7204,67,80,0
177.27351,177.37039,62,80,0
177.37352,177.4704,64,80,0
177.47353,177.57039,66,80,0
177.57352,177.6704,64,80,0
177.67352,177.7704,62,80,0
177.77351,177.9204,67,80,0
178.37352,178.6704,67,80,0
178.97353,179.2704,65,80,0
178.97353,179.2704,62,80,0
178.97353,179.2704,59,80,0
178.97353,179.2704,55,80,0
180.17352,180.4704,48,80,0
180.87352,180.9704,55,80,0
180.97353,181.07039,57,80,0
181.07352,181.1704,59,80,0
181.17352,181.2704,57,80,0
181.27351,181.37039,55,80,0
181.37352,181.6704,60,80,0
182.07352,182.1704,55,80,0
182.17352,182.2704,57,80,0
182.27351,182.37039,59,80,0
182.37352,182.4704,57,80,0
182.47353,182.57039,55,80,0
182.57352,182.87039,60,80,0
183.17352,183.4704,60,80,0
183.77351,184.07039,60,80,0
183.77351,184.07039,58,80,0
183.77351,184.07039,55,80,0
183.77351,184.07039,52,80,0
184.97353,185.07039,41,80,0
185.07352,185.1704,45,80,0
185.17352,185.2704,48,80,0
185.27351,185.57039,53,80,0
186.17352,186.4704,55,80,0
186.17352,186.4704,60,80,0
186.17352,186.4704,64,80,0
186.77351,187.07039,55,80,0
186.77351,187.07039,62,80,0
186.77351,187.07039,65,80,0
187.37352,187.6704,60,80,0
187.37352,187.6704,64,80,0
188.60686,188.91936,67,80,0
188.60686,188.91936,65,80,0
188.92264,189.23514,67,80,0
188.92264,189.23514,65,80,0
189.23843,189.55093,67,80,0
189.23843,189.55093,65,80,0
189.55421,189.86671,67,80,0
189.55421,189.86671,65,80,0
189.87001,190.81409,67,80,0
189.87001,190.81409,64,80,0
190.81738,191.12988,64,80,0
191.13316,191.78908,69,80,0
191.79251,192.48253,69,80,0
192.48615,192.82935,67,80,0
193.87343,194.17792,55,80,0
193.87343,194.17792,53,80,0
194.18112,194.48561,55,80,0
194.18112,194.48561,53,80,0
194.48882,194.79329,55,80,0
194.48882,194.79329,53,80,0
194.79651,195.10098,55,80,0
194.79651,195.10098,53,80,0
195.10419,196.02406,55,80,0
195.10419,196.02406,51,80,0
196.02727,196.33176,51,80,0
196.33496,196.63945,56,80,0
196.64265,196.94714,56,80,0
196.95035,197.25484,56,80,0
196.95035,197.25484,58,80,0
197.25804,197.56253,56,80,0
197.25804,197.56253,58,80,0
197.56573,198.4856,58,80,0
197.56573,198.4856,55,80,0
198.4888,198.79329,55,80,0
198.7965,199.10098,60,80,0
199.10419,199.40868,60,80,0
199.10419,199.40868,63,80,0
199.41188,199.71637,60,80,0
199.41188,199.71637,63,80,0
199.71957,200.02406,60,80,0
199.71957,200.02406,63,80,0
200.02727,200.94714,59,80,0
200.02727,200.94714,62,80,0
200.95035,201.25482,60,94,0
200.95035,201.25482,63,94,0
201.25803,202.1779,59,90,0
201.25803,202.1779,62,90,0
202.1811,202.4856,68,81,0
202.1811,202.4856,65,81,0
202.4888,203.40868,63,80,0
202.4888,203.40868,67,80,0
203.41188,203.71637,65,94,0
203.41188,203.71637,68,94,0
203.71957,204.63943,63,90,0
203.71957,204.63943,67,90,0
204.64264,204.94713,65,81,0
204.64264,204.94713,68,81,0
209.648,209.99727,43,80,0
210.00095,210.17374,48,80,0
210.17741,210.3502,51,80,0
210.35388,210.50076,55,80,0
210.50389,210.65076,60,80,0
210.65388,210.80077,48,80,0
210.80388,210.95076,53,80,0
210.95389,211.10075,55,80,0
211.10388,211.25076,59,80,0
211.25389,211.40076,48,80,0
211.40388,211.55077,51,80,0
211.55388,211.70076,55,80,0
211.70389,211.85075,60,80,0
211.85388,212.00076,63,80,0
212.00389,212.15076,67,80,0
212.15388,212.30077,63,80,0
212.30388,212.45076,62,80,0
212.45389,212.60075,60,80,0
212.60388,212.75076,67,80,0
212.75389,212.90076,60,80,0
212.75389,212.90076,63,80,0
212.90388,213.05077,67,80,0
213.05388,213.20076,62,80,0
213.05388,213.20076,59,80,0
213.20389,213.35075,67,80,0
213.35388,213.50076,56,80,0
213.35388,213.50076,60,80,0
213.50389,213.65076,67,80,0
213.65388,213.80077,55,80,0
213.80388,213.95076,59,80,0
213.95389,214.10075,62,80,0
214.10388,214.25076,67,80,0
214.25389,214.40076,55,80,0
214.40388,214.55077,59,80,0
214.55388,214.70076,62,80,0
214.70389,214.85075,67,80,0
214.85388,215.00076,53,80,0
215.00389,215.15076,56,80,0
215.15388,215.30077,59,80,0
215.30388,215.45076,62,80,0
215.45389,215.60075,53,80,0
215.60388,215.75076,56,80,0
215.75389,215.90076,59,80,0
215.90388,216.05077,62,80,0
216.05388,216.20076,51,80,0
216.20389,216.35075,56,80,0
216.35388,216.50076,60,80,0
216.50389,216.65076,63,80,0
216.65388,216.80077,56,80,0
216.80388,216.95076,60,80,0
216.95389,217.10075,63,80,0
217.10388,217.25076,66,80,0
217.25389,217.40076,55,80,0
217.40388,217.55077,60,80,0
217.55388,217.70076,63,80,0
217.70389,217.85075,67,80,0
217.85388,218.00076,55,80,0
218.00389,218.15076,59,80,0
218.15388,218.30077,62,80,0
218.30388,218.45076,67,80,0
218.45389,218.75076,60,90,0
219.65388,219.80077,41,96,0
219.80388,219.95076,44,97,0
219.95389,220.10075,47,98,0
220.10388,220.25076,50,99,0
220.25389,220.40076,41,100,0
220.40388,220.55077,44,101,0
220.55388,220.70076,47,102,0
220.70389,220.85075,50,103,0
220.85388,221.00076,39,103,0
221.00389,221.15076,43,104,0
221.15388,221.30077,48,105,0
221.30388,221.45076,51,106,0
221.45389,221.60075,44,107,0
221.60388,221.75076,48,108,0
221.75389,221.90076,51,109,0
221.90388,222.05077,54,109,0
222.05388,222.20076,43,100,0
222.20389,222.35075,48,100,0
222.35388,222.50076,51,100,0
222.50389,222.65076,55,100,0
222.65388,222.80077,43,100,0
222.80388,222.95076,55,100,0
222.95389,223.10075,43,100,0
223.10388,223.25076,55,100,0
223.25389,223.40076,48,80,0
223.40388,223.55077,60,80,0
223.55388,223.70076,59,80,0
223.70389,223.85075,60,80,0
223.85388,224.00076,58,80,0
224.00389,224.15076,60,81,0
224.15388,224.30077,55,83,0
224.30388,224.45076,60,85,0
224.45389,224.60075,56,87,0
224.60388,224.75076,60,89,0
224.75389,224.90076,53,91,0
224.90388,225.05077,60,93,0
225.05388,225.20076,58,95,0
225.20389,225.35075,60,97,0
225.35388,225.50076,55,99,0
225.50389,225.65076,60,101,0
225.65388,225.80077,56,103,0
225.80388,225.95076,60,105,0
225.95389,226.10075,53,107,0
226.10388,226.25076,60,109,0
226.25389,226.40076,58,111,0
226.40388,226.55077,60,113,0
226.55388,226.70076,55,115,0
226.70389,226.85075,60,117,0
226.85388,227.15076,56,119,0
227.15388,227.45076,56,120,0
227.15388,227.45076,51,120,0
227.15388,227.45076,48,120,0
227.15388,227.45076,44,120,0
227.45389,227.75076,51,120,0
227.45389,227.75076,48,120,0
227.45389,227.75076,43,120,0
227.45389,227.75076,55,120,0
227.75389,228.05077,55,120,0
227.75389,228.05077,50,120,0
227.75389,228.05077,47,120,0
227.75389,228.05077,43,120,0
228.05388,228.20076,36,120,0
228.20389,228.35075,48,100,0
228.35388,228.50076,47,100,0
228.50389,228.65076,48,100,0
228.65388,228.80077,46,100,0
228.80388,228.95076,48,100,0
228.95389,229.10075,43,100,0
229.10388,229.25076,48,100,0
229.25389,229.40076,44,100,0
229.40388,229.55077,48,100,0
229.55388,229.70076,41,100,0
229.70389,229.85075,48,100,0
229.85388,230.00076,46,100,0
230.00389,230.15076,48,100,0
230.15388,230.30077,43,100,0
230.30388,230.45076,48,100,0
230.45389,230.60075,44,100,0
230.60388,230.75076,48,100,0
230.75389,230.90076,41,100,0
230.90388,231.05077,48,100,0
231.05388,231.20076,46,100,0
231.20389,231.35075,48,100,0
231.35388,231.50076,43,100,0
231.50389,231.65076,48,100,0
231.65388,231.95076,44,80,0
231.95389,232.25076,56,81,0
231.95389,232.25076,44,81,0
232.55388,232.85075,56,83,0
232.55388,232.85075,51,83,0
232.55388,232.85075,48,83,0
232.55388,232.85075,44,83,0
233.15388,233.45076,51,86,0
233.15388,233.45076,48,86,0
233.15388,233.45076,43,86,0
233.15388,233.45076,55,86,0
233.75389,234.05077,54,88,0
233.75389,234.05077,51,88,0
233.75389,234.05077,48,88,0
233.75389,234.05077,42,88,0
234.35388,234.65076,53,91,0
234.35388,234.65076,50,91,0
234.35388,234.65076,47,91,0
234.35388,234.65076,41,91,0
234.95389,235.25076,51,94,0
234.95389,235.25076,48,94,0
234.95389,235.25076,43,94,0
234.95389,235.25076,39,94,0
235.55388,235.85075,53,96,0
235.55388,235.85075,50,96,0
235.55388,235.85075,41,96,0
235.55388,235.85075,44,96,0
236.15388,236.45076,55,99,0
236.15388,236.45076,50,99,0
236.15388,236.45076,47,99,0
236.15388,236.45076,43,99,0
236.45389,236.75076,48,110,0
236.45389,236.75076,36,110,0
236.75389,237.65076,60,110,0
236.75389,237.65076,55,110,0
236.75389,237.65076,51,110,0
237.65388,237.95076,62,110,0
237.65388,237.95076,60,110,0
237.65388,237.95076,56,110,0
237.65388,237.95076,53,110,0
237.95389,238.85075,62,110,0
237.95389,238.85075,59,110,0
237.95389,238.85075,55,110,0
238.85388,239.15076,60,110,0
238.85388,239.15076,51,110,0
238.85388,239.15076,55,110,0
239.15388,240.05077,60,110,0
239.15388,240.05077,55,110,0
239.15388,240.05077,51,110,0
240.05388,240.35075,62,110,0
240.05388,240.35075,60,110,0
240.05388,240.35075,56,110,0
240.05388,240.35075,53,110,0
240.35388,241.25076,62,110,0
240.35388,241.25076,59,110,0
240.35388,241.25076,55,110,0
241.25389,241.56638,60,110,0
241.25389,241.56638,51,110,0
241.25389,241.56638,55,110,0
241.56967,242.54866,60,110,0
241.56967,242.54866,55,110,0
241.56967,242.54866,51,110,0
242.55212,242.88199,61,110,0
242.55212,242.88199,56,110,0
242.55212,242.88199,53,110,0
242.88547,243.63156,61,110,0
242.88547,243.63156,56,110,0
242.88547,243.63156,53,110,0
243.63547,244.00656,61,120,0
243.63547,244.00656,56,120,0
243.63547,244.00656,53,120,0
244.01047,246.25656,55,120,0
244.01047,246.25656,58,120,0
244.01047,246.25656,61,120,0
244.01047,246.25656,63,120,0
247.01047,251.13156,31,120,0
247.01047,251.13156,39,120,0
247.01047,251.13156,43,120,0
251.51047,252.17366,51,80,0
252.17712,252.84032,49,80,0
251.51047,252.8438,44,80,0
252.8438,253.17366,48,80,0
254.17712,254.84032,63,79,0
254.8438,255.50699,61,75,0
254.17712,255.84032,56,79,0
255.51045,255.84032,60,71,0
256.84378,257.17365,68,70,0
258.21878,258.58987,67,60,0
259.6071,259.90396,55,120,0
259.6071,259.90396,50,120,0
259.6071,259.90396,46,120,0
259.6071,259.90396,43,120,0
260.82288,261.13538,43,120,0
260.82288,261.13538,39,120,0
260.82288,261.13538,36,120,0
260.82288,261.13538,48,120,0
