start_time,end_time,note_value,velocity,instrument_program_number
0.0,0.59166664,48,80,0
0.6,0.7916667,52,80,0
0.8,1.5916667,45,80,0
1.6,1.9916667,46,80,0
0.8,2.3916667,53,80,0
2.4,2.9916666,60,80,0
3.0,3.1916666,64,80,0
3.2,3.9916666,60,80,0
4.0,4.391667,62,80,0
3.2,4.7916665,65,80,0
4.8,5.391667,72,80,0
5.4,5.5916667,77,80,0
5.6,6.991667,81,80,0
7.0,7.1916666,77,80,0
7.2,7.7916665,79,80,0
7.8,7.991667,76,80,0
8.0,8.791667,77,80,0
9.6,10.191667,48,80,0
10.2,10.391666,52,80,0
10.4,11.191667,45,80,0
11.2,11.591666,46,80,0
10.4,11.991667,53,80,0
12.0,12.591666,60,80,0
12.6,12.791667,64,80,0
12.8,13.591666,60,80,0
13.6,13.991667,62,80,0
12.8,14.391666,65,80,0
14.4,14.991667,72,80,0
15.0,15.191667,77,80,0
15.2,16.591667,81,80,0
16.6,16.791666,77,80,0
16.8,17.391666,79,80,0
17.4,17.591667,76,80,0
17.6,18.391666,77,80,0
19.2,19.791666,53,80,0
19.8,19.991667,57,80,0
20.0,20.791666,61,80,0
20.8,22.191668,62,80,0
22.2,22.391666,59,80,0
22.4,22.991667,60,80,0
23.0,23.191668,57,80,0
23.2,23.591667,53,80,0
24.0,24.591667,65,80,0
24.6,24.791666,69,80,0
24.8,25.591667,73,80,0
25.6,26.991667,74,80,0
27.0,27.191668,71,80,0
27.2,27.791666,72,80,0
27.8,27.991667,69,80,0
28.0,28.391666,65,80,0
28.8,29.391666,77,80,0
29.4,29.591667,81,80,0
29.6,30.391666,85,80,0
30.4,31.791666,86,83,0
30.4,31.791666,74,83,0
31.8,31.991667,83,89,0
31.8,31.991667,74,89,0
32.0,32.591667,84,90,0
32.0,32.591667,72,90,0
32.6,32.791668,81,93,0
32.6,32.791668,72,93,0
32.8,34.191666,82,93,0
32.8,34.191666,70,93,0
34.2,34.391666,79,99,0
34.2,34.391666,70,99,0
34.4,34.991665,69,100,0
34.4,34.991665,81,100,0
35.0,35.191666,77,100,0
35.0,35.191666,69,100,0
35.2,35.991665,67,100,0
35.2,36.591667,79,100,0
36.0,36.791668,70,100,0
36.6,36.791668,74,100,0
36.8,36.891666,77,90,0
36.9,36.991665,76,89,0
37.0,37.091667,74,88,0
37.1,37.405357,76,87,0
36.8,37.619644,70,90,0
37.414284,37.619644,79,83,0
37.62857,38.080494,77,81,0
37.62857,38.080494,69,81,0
38.551647,39.204853,53,80,0
39.213184,39.40485,57,80,0
39.413185,40.204853,61,80,0
40.213184,41.60485,62,80,0
41.613186,41.80485,59,80,0
41.813187,42.40485,60,80,0
42.413185,42.60485,57,80,0
42.613186,43.004852,53,80,0
43.413185,43.504852,67,80,0
43.513184,43.60485,65,80,0
43.613186,43.704853,64,80,0
43.713184,44.004852,65,80,0
44.013184,44.204853,69,80,0
44.213184,45.004852,73,80,0
45.013184,46.40485,74,80,0
46.413185,46.60485,71,80,0
46.613186,47.204853,72,80,0
47.213184,47.40485,69,80,0
47.413185,47.80485,65,80,0
48.213184,48.30485,79,80,0
48.313187,48.40485,77,80,0
48.413185,48.504852,76,80,0
48.513184,48.80485,77,80,0
48.813187,49.004852,81,80,0
49.013184,49.80485,85,80,0
49.813187,51.204853,86,84,0
49.813187,51.204853,74,84,0
51.213184,51.40485,83,92,0
51.213184,51.40485,74,92,0
51.413185,52.004852,84,93,0
51.413185,52.004852,72,93,0
52.013184,52.204853,81,96,0
52.013184,52.204853,72,96,0
52.213184,53.60485,82,97,0
52.213184,53.60485,70,97,0
53.613186,53.80485,79,105,0
53.613186,53.80485,70,105,0
53.813187,54.40485,69,106,0
53.813187,54.40485,81,106,0
54.413185,54.60485,77,109,0
54.413185,54.60485,69,109,0
54.613186,55.40485,67,110,0
54.613186,56.004852,79,110,0
55.413185,56.204853,70,99,0
56.013184,56.204853,74,91,0
56.213184,56.30485,77,80,0
56.313187,56.40485,76,80,0
56.413185,56.504852,74,80,0
56.513184,56.818542,76,80,0
56.213184,57.03283,70,80,0
56.82747,57.03283,79,80,0
57.041756,57.531338,77,80,0
57.041756,57.531338,69,80,0
60.041756,60.25703,60,110,0
60.041756,60.25703,72,110,0
60.263977,60.47925,72,110,0
60.263977,60.47925,84,110,0
60.4862,60.701477,71,110,0
60.4862,60.701477,83,110,0
60.70842,60.9237,72,110,0
60.70842,60.9237,84,110,0
60.93064,61.14592,70,110,0
60.93064,61.14592,82,110,0
61.152863,61.36814,69,110,0
61.152863,61.36814,81,110,0
61.375088,61.590363,67,110,0
61.375088,61.590363,79,110,0
61.59731,61.812584,69,110,0
61.59731,61.812584,81,110,0
61.81953,62.03481,70,110,0
61.81953,62.03481,82,110,0
62.04175,62.25703,69,110,0
62.04175,62.25703,81,110,0
62.263973,62.47925,67,110,0
62.263973,62.47925,79,110,0
62.486195,62.701473,65,110,0
62.486195,62.701473,77,110,0
62.70842,62.923695,64,110,0
62.70842,62.923695,76,110,0
62.93064,63.145916,65,110,0
62.93064,63.145916,77,110,0
63.152863,63.36814,67,110,0
63.152863,63.36814,79,110,0
63.375084,63.590363,65,110,0
63.375084,63.590363,77,110,0
63.597305,63.812584,64,110,0
63.597305,63.812584,76,110,0
63.819527,64.034805,62,110,0
63.819527,64.034805,74,110,0
64.04175,64.25703,61,110,0
64.04175,64.25703,73,110,0
64.26397,64.47925,62,110,0
64.26397,64.47925,74,110,0
64.48619,64.70147,64,110,0
64.48619,64.70147,76,110,0
64.70842,64.92369,62,110,0
64.70842,64.92369,74,110,0
64.93064,65.14591,60,110,0
64.93064,65.14591,72,110,0
65.15286,65.36814,58,110,0
65.15286,65.36814,70,110,0
65.375084,65.59036,57,110,0
65.375084,65.59036,69,110,0
65.597305,65.812584,55,110,0
65.597305,65.812584,67,110,0
65.81953,66.034805,53,110,0
65.81953,66.034805,65,110,0
66.04175,66.25703,52,110,0
66.04175,66.25703,64,110,0
66.26397,66.47925,60,110,0
66.26397,66.47925,72,110,0
66.48619,66.70147,59,110,0
66.48619,66.70147,71,110,0
66.70841,66.92369,60,110,0
66.70841,66.92369,72,110,0
66.93063,67.14591,58,110,0
66.93063,67.14591,70,110,0
67.152855,67.36813,57,110,0
67.152855,67.36813,69,110,0
67.37508,67.590355,55,110,0
67.37508,67.590355,67,110,0
67.597305,67.81258,57,110,0
67.597305,67.81258,69,110,0
67.81953,68.034805,58,110,0
67.81953,68.034805,70,110,0
68.04175,68.25703,57,110,0
68.04175,68.25703,69,110,0
68.26397,68.47925,69,110,0
68.26397,68.47925,81,110,0
68.48619,68.70147,68,110,0
68.48619,68.70147,80,110,0
68.70841,68.92369,69,110,0
68.70841,68.92369,81,110,0
68.93063,69.14591,67,110,0
68.93063,69.14591,79,110,0
69.152855,69.36813,65,110,0
69.152855,69.36813,77,110,0
69.37508,69.590355,76,110,0
69.37508,69.590355,67,110,0
69.5973,69.81258,77,110,0
69.5973,69.81258,69,110,0
69.81952,70.0348,79,110,0
69.81952,70.0348,70,110,0
70.04174,70.25702,77,110,0
70.04174,70.25702,69,110,0
70.26397,70.47924,79,110,0
70.26397,70.47924,70,110,0
70.48619,70.70146,81,110,0
70.48619,70.70146,72,110,0
70.70841,70.92369,73,110,0
70.70841,70.92369,64,110,0
70.93063,71.14591,74,110,0
70.93063,71.14591,65,110,0
71.152855,71.36813,76,110,0
71.152855,71.36813,67,110,0
71.37508,71.590355,74,110,0
71.37508,71.590355,65,110,0
71.5973,71.81258,76,110,0
71.5973,71.81258,67,110,0
71.81952,72.0348,77,110,0
71.81952,72.0348,69,110,0
72.04174,72.25702,71,110,0
72.04174,72.25702,62,110,0
72.26396,72.47924,72,110,0
72.26396,72.47924,64,110,0
72.48618,72.70146,74,110,0
72.48618,72.70146,65,110,0
72.708405,72.92368,72,110,0
72.708405,72.92368,64,110,0
72.93063,73.145905,74,110,0
72.93063,73.145905,65,110,0
73.152855,73.368126,76,110,0
73.152855,73.368126,67,110,0
73.37508,73.590355,73,110,0
73.37508,73.590355,64,110,0
73.5973,73.81258,74,110,0
73.5973,73.81258,65,110,0
73.81952,74.0348,76,110,0
73.81952,74.0348,67,110,0
74.04174,74.25702,74,110,0
74.04174,74.25702,65,110,0
74.26396,74.47924,76,110,0
74.26396,74.47924,67,110,0
74.48618,74.70146,77,110,0
74.48618,74.70146,69,110,0
74.708405,74.92368,71,110,0
74.708405,74.92368,62,110,0
74.930626,75.145905,72,110,0
74.930626,75.145905,64,110,0
75.15285,75.368126,74,110,0
75.15285,75.368126,65,110,0
75.37507,75.59035,72,110,0
75.37507,75.59035,64,110,0
75.5973,75.82559,74,110,0
75.5973,75.82559,65,110,0
75.833405,76.07559,76,110,0
75.833405,76.07559,67,110,0
76.083405,76.32559,72,110,0
76.083405,76.32559,60,110,0
76.333405,76.56257,74,110,0
76.333405,76.56257,62,110,0
76.56952,76.78479,76,110,0
76.56952,76.78479,64,110,0
76.79174,77.00702,65,110,0
76.79174,77.00702,77,110,0
77.01396,77.22924,67,110,0
77.01396,77.22924,79,110,0
77.23618,77.45146,69,110,0
77.23618,77.45146,81,110,0
77.458405,77.67368,71,110,0
77.458405,77.67368,83,110,0
77.680626,77.895905,72,110,0
77.680626,77.895905,84,110,0
77.90285,78.118126,74,110,0
77.90285,78.118126,86,110,0
78.12507,78.34035,76,110,0
78.12507,78.34035,88,110,0
78.34729,78.56257,74,110,0
78.34729,78.56257,86,110,0
78.56951,78.78479,72,110,0
78.56951,78.78479,84,110,0
78.79173,79.00701,71,110,0
78.79173,79.00701,83,110,0
79.01396,79.22923,72,110,0
79.01396,79.22923,84,110,0
79.23618,79.451454,74,110,0
79.23618,79.451454,86,110,0
79.458405,79.67368,76,110,0
79.458405,79.67368,88,110,0
79.680626,79.895905,74,110,0
79.680626,79.895905,86,110,0
79.90285,80.118126,72,110,0
79.90285,80.118126,84,110,0
80.12507,80.34035,71,110,0
80.12507,80.34035,83,110,0
80.34729,80.56257,72,110,0
80.34729,80.56257,84,110,0
80.56951,80.78479,74,110,0
80.56951,80.78479,86,110,0
80.79173,81.00701,76,110,0
80.79173,81.00701,88,110,0
81.013954,81.22923,74,110,0
81.013954,81.22923,86,110,0
81.236176,81.451454,72,110,0
81.236176,81.451454,84,110,0
81.4584,81.673676,76,110,0
81.4584,81.673676,88,110,0
81.68062,81.90892,74,110,0
81.68062,81.90892,86,110,0
81.91673,82.15892,72,110,0
81.91673,82.15892,84,110,0
82.16673,82.40892,76,110,0
82.16673,82.40892,88,110,0
82.41673,82.6459,74,110,0
82.41673,82.6459,86,110,0
82.65285,82.86812,72,110,0
82.65285,82.86812,84,110,0
82.87507,83.09035,71,110,0
82.87507,83.09035,83,110,0
83.09729,83.31257,69,110,0
83.09729,83.31257,81,110,0
83.31951,83.53479,67,110,0
83.31951,83.53479,79,110,0
83.54173,83.75701,65,110,0
83.54173,83.75701,77,110,0
83.763954,83.97923,64,110,0
83.763954,83.97923,76,110,0
83.986176,84.201454,62,110,0
83.986176,84.201454,74,110,0
84.2084,84.423676,60,110,0
84.2084,84.423676,72,110,0
84.43062,84.6459,62,110,0
84.43062,84.6459,74,110,0
84.65284,84.86812,59,110,0
84.65284,84.86812,71,110,0
84.87506,85.09034,72,110,0
88.2084,88.42367,63,110,0
88.2084,88.42367,75,110,0
88.43062,88.6459,75,110,0
88.43062,88.6459,87,110,0
88.65284,88.86812,74,110,0
88.65284,88.86812,86,110,0
88.87506,89.09034,75,110,0
88.87506,89.09034,87,110,0
89.09728,89.31256,73,110,0
89.09728,89.31256,85,110,0
89.3195,89.53478,72,110,0
89.3195,89.53478,84,110,0
89.541725,89.757,70,110,0
89.541725,89.757,82,110,0
89.76395,89.979225,72,110,0
89.76395,89.979225,84,110,0
89.98617,90.20145,73,110,0
89.98617,90.20145,85,110,0
90.20839,90.42367,72,110,0
90.20839,90.42367,84,110,0
90.43061,90.64589,70,110,0
90.43061,90.64589,82,110,0
90.65284,90.86811,68,110,0
90.65284,90.86811,80,110,0
90.87506,91.09033,67,110,0
90.87506,91.09033,79,110,0
91.09728,91.31256,68,110,0
91.09728,91.31256,80,110,0
91.3195,91.53478,70,110,0
91.3195,91.53478,82,110,0
91.541725,91.757,68,110,0
91.541725,91.757,80,110,0
91.76395,91.979225,67,110,0
91.76395,91.979225,79,110,0
91.98617,92.20145,65,110,0
91.98617,92.20145,77,110,0
92.20839,92.42367,63,110,0
92.20839,92.42367,75,110,0
92.43061,92.64589,65,110,0
92.43061,92.64589,77,110,0
92.65283,92.86811,67,110,0
92.65283,92.86811,79,110,0
92.87505,93.09033,65,110,0
92.87505,93.09033,77,110,0
93.097275,93.31255,63,110,0
93.097275,93.31255,75,110,0
93.3195,93.534775,61,110,0
93.3195,93.534775,73,110,0
93.541725,93.756996,60,110,0
93.541725,93.756996,72,110,0
93.76395,93.979225,58,110,0
93.76395,93.979225,70,110,0
93.98617,94.20145,56,110,0
93.98617,94.20145,68,110,0
94.20839,94.42367,55,110,0
94.20839,94.42367,67,110,0
94.43061,94.64589,63,110,0
94.43061,94.64589,75,110,0
94.65283,94.86811,62,110,0
94.65283,94.86811,74,110,0
94.87505,95.09033,63,110,0
94.87505,95.09033,75,110,0
95.097275,95.31255,61,110,0
95.097275,95.31255,73,110,0
95.319496,95.534775,60,110,0
95.319496,95.534775,72,110,0
95.54172,95.756996,58,110,0
95.54172,95.756996,70,110,0
95.76394,95.97922,60,110,0
95.76394,95.97922,72,110,0
95.98616,96.20144,61,110,0
95.98616,96.20144,73,110,0
96.20839,96.42366,60,110,0
96.20839,96.42366,72,110,0
96.43061,96.64589,72,110,0
96.43061,96.64589,84,110,0
96.65283,96.86811,71,110,0
96.65283,96.86811,83,110,0
96.87505,97.09033,84,110,0
96.87505,97.09033,72,110,0
97.097275,97.31255,82,110,0
97.097275,97.31255,70,110,0
97.319496,97.534775,80,110,0
97.319496,97.534775,68,110,0
97.54172,97.756996,79,110,0
97.54172,97.756996,70,110,0
97.76394,97.97922,80,110,0
97.76394,97.97922,72,110,0
97.98616,98.20144,82,110,0
97.98616,98.20144,73,110,0
98.20838,98.42366,80,110,0
98.20838,98.42366,72,110,0
98.4306,98.64588,82,110,0
98.4306,98.64588,73,110,0
98.652824,98.8681,84,110,0
98.652824,98.8681,75,110,0
98.87505,99.090324,76,110,0
98.87505,99.090324,67,110,0
99.097275,99.312546,77,110,0
99.097275,99.312546,68,110,0
99.319496,99.534775,79,110,0
99.319496,99.534775,70,110,0
99.54172,99.756996,77,110,0
99.54172,99.756996,68,110,0
99.76394,99.97922,79,110,0
99.76394,99.97922,70,110,0
99.98616,100.20144,80,110,0
99.98616,100.20144,72,110,0
100.20838,100.42366,72,110,0
100.20838,100.42366,63,110,0
100.4306,100.64588,73,110,0
100.4306,100.64588,65,110,0
100.652824,100.8681,75,110,0
100.652824,100.8681,66,110,0
100.875046,101.090324,73,110,0
100.875046,101.090324,65,110,0
101.09727,101.312546,75,110,0
101.09727,101.312546,66,110,0
101.31949,101.53477,77,110,0
101.31949,101.53477,68,110,0
101.54172,101.75699,69,110,0
101.54172,101.75699,60,110,0
101.76394,101.97921,70,110,0
101.76394,101.97921,61,110,0
101.98616,102.20144,72,110,0
101.98616,102.20144,63,110,0
102.20838,102.42366,70,110,0
102.20838,102.42366,61,110,0
102.4306,102.64588,72,110,0
102.4306,102.64588,63,110,0
102.652824,102.8681,73,110,0
102.652824,102.8681,65,110,0
102.875046,103.090324,67,110,0
102.875046,103.090324,58,110,0
103.09727,103.312546,68,110,0
103.09727,103.312546,60,110,0
103.31949,103.53477,70,110,0
103.31949,103.53477,61,110,0
103.54171,103.75699,68,110,0
103.54171,103.75699,60,110,0
103.76393,103.97921,70,110,0
103.76393,103.97921,61,110,0
103.98615,104.20143,72,110,0
103.98615,104.20143,63,110,0
104.20838,104.42365,69,110,0
104.20838,104.42365,60,110,0
104.4306,104.645874,70,110,0
104.4306,104.645874,61,110,0
104.652824,104.8681,72,110,0
104.652824,104.8681,63,110,0
104.875046,105.090324,70,110,0
104.875046,105.090324,61,110,0
105.09727,105.312546,72,110,0
105.09727,105.312546,63,110,0
105.31949,105.53477,73,110,0
105.31949,105.53477,65,110,0
105.54171,105.75699,67,110,0
105.54171,105.75699,58,110,0
105.76393,105.97921,68,110,0
105.76393,105.97921,60,110,0
105.98615,106.20143,70,110,0
105.98615,106.20143,61,110,0
106.208374,106.42365,68,110,0
106.208374,106.42365,60,110,0
106.430595,106.645874,70,110,0
106.430595,106.645874,61,110,0
106.65282,106.868095,72,110,0
106.65282,106.868095,63,110,0
106.875046,107.09032,67,110,0
106.875046,107.09032,58,110,0
107.09727,107.31254,68,110,0
107.09727,107.31254,60,110,0
107.31949,107.53477,70,110,0
107.31949,107.53477,61,110,0
107.54171,107.75699,68,110,0
107.54171,107.75699,60,110,0
107.76393,107.992226,70,110,0
107.76393,107.992226,61,110,0
108.00004,108.242226,72,110,0
108.00004,108.242226,63,110,0
108.25004,108.492226,68,110,0
108.25004,108.492226,56,110,0
108.50004,108.72921,58,110,0
108.50004,108.72921,70,110,0
108.73615,108.95143,72,110,0
108.73615,108.95143,60,110,0
108.958374,109.17365,61,110,0
108.958374,109.17365,73,110,0
109.180595,109.395874,63,110,0
109.180595,109.395874,75,110,0
109.40282,109.618095,65,110,0
109.40282,109.618095,77,110,0
109.62504,109.84032,67,110,0
109.62504,109.84032,79,110,0
109.84726,110.06254,68,110,0
109.84726,110.06254,80,110,0
110.06948,110.28476,70,110,0
110.06948,110.28476,82,110,0
110.2917,110.50698,72,110,0
110.2917,110.50698,84,110,0
110.51393,110.7292,70,110,0
110.51393,110.7292,82,110,0
110.73615,110.95143,68,110,0
110.73615,110.95143,80,110,0
110.958374,111.17365,67,110,0
110.958374,111.17365,79,110,0
111.180595,111.395874,68,110,0
111.180595,111.395874,80,110,0
111.40282,111.618095,70,110,0
111.40282,111.618095,82,110,0
111.62504,111.84032,72,110,0
111.62504,111.84032,84,110,0
111.84726,112.06254,70,110,0
111.84726,112.06254,82,110,0
112.06948,112.28476,68,110,0
112.06948,112.28476,80,110,0
112.2917,112.50698,67,110,0
112.2917,112.50698,79,110,0
112.51392,112.7292,68,110,0
112.51392,112.7292,80,110,0
112.736145,112.95142,70,110,0
112.736145,112.95142,82,110,0
112.95837,113.173645,72,110,0
112.95837,113.173645,84,110,0
113.180595,113.39587,70,110,0
113.180595,113.39587,82,110,0
113.40282,113.61809,68,110,0
113.40282,113.61809,80,110,0
113.62504,113.84032,72,110,0
113.62504,113.84032,84,110,0
113.84726,114.06254,70,110,0
113.84726,114.06254,82,110,0
114.06948,114.28476,68,110,0
114.06948,114.28476,80,110,0
114.2917,114.50698,72,110,0
114.2917,114.50698,84,110,0
114.51392,114.7292,70,110,0
114.51392,114.7292,82,110,0
114.736145,114.95142,68,110,0
114.736145,114.95142,80,110,0
114.95837,115.173645,67,110,0
114.95837,115.173645,79,110,0
115.18059,115.39587,65,110,0
115.18059,115.39587,77,110,0
115.40281,115.61809,63,110,0
115.40281,115.61809,75,110,0
115.62503,115.84031,61,110,0
115.62503,115.84031,73,110,0
115.84726,116.06253,60,110,0
115.84726,116.06253,72,110,0
116.06948,116.28475,58,110,0
116.06948,116.28475,70,110,0
116.2917,116.50698,56,110,0
116.2917,116.50698,68,110,0
116.51392,116.7292,58,110,0
116.51392,116.7292,70,110,0
116.736145,116.95142,55,110,0
116.736145,116.95142,67,110,0
116.95837,117.173645,56,110,0
116.95837,117.173645,68,110,0
117.84725,118.06253,77,110,0
118.06947,118.28475,79,110,0
118.291695,118.50697,80,80,0
118.51392,118.729195,79,80,0
118.736145,118.951416,77,80,0
118.95837,119.173645,75,80,0
119.18059,119.39587,73,80,0
119.40281,119.61809,72,80,0
119.62503,119.84031,70,80,0
119.84725,120.06253,68,80,0
120.06947,120.28475,67,80,0
120.291695,120.50697,65,80,0
120.513916,120.729195,67,80,0
120.73614,120.951416,64,80,0
120.95836,121.17364,65,80,0
121.933365,122.17445,73,80,0
122.18164,122.404335,75,80,0
122.41152,122.634224,77,80,0
122.64141,122.864105,75,80,0
122.87129,123.093994,73,80,0
123.10118,123.323875,72,80,0
123.33106,123.553764,70,80,0
123.56095,123.783646,68,80,0
123.79083,124.013535,66,80,0
124.02071,124.243416,65,80,0
124.2506,124.473305,63,80,0
124.480484,124.703186,61,80,0
124.71037,124.933075,63,80,0
124.940254,125.16296,60,80,0
125.17014,125.50779,61,80,0
127.239105,127.92158,65,80,0
127.239105,127.92158,53,80,0
129.30807,129.99054,70,80,0
129.30807,129.99054,65,80,0
129.30807,129.99054,58,80,0
131.37704,132.1687,71,80,0
131.37704,132.1687,65,80,0
131.37704,132.1687,59,80,0
133.77704,134.00497,72,80,0
133.77704,134.00497,64,80,0
133.77704,134.00497,60,80,0
134.01233,134.24028,61,80,0
134.24762,134.47557,59,80,0
134.48293,134.71086,60,80,0
134.71822,134.94615,73,80,0
134.9535,135.18144,71,80,0
135.1888,135.41675,72,80,0
135.4241,135.65204,85,80,0
135.6594,135.88733,83,80,0
135.89468,136.12262,84,80,0
136.12997,136.35793,85,80,0
136.36526,136.59322,83,80,0
136.60057,136.8285,84,80,0
136.83586,137.0638,85,80,0
137.07115,137.29909,83,80,0
137.30644,137.5344,84,80,0
137.54175,137.76968,85,80,0
137.77704,138.00497,83,80,0
138.01233,138.71086,84,80,0
139.42409,139.65204,84,80,0
139.6594,139.88733,85,80,0
139.89468,140.12262,83,80,0
140.12997,140.8285,84,80,0
141.54173,141.76968,84,80,0
141.77704,142.00497,85,80,0
142.01233,142.24026,83,80,0
142.24762,142.94615,84,80,0
150.12556,150.71722,48,80,0
150.72556,150.91722,52,80,0
150.92555,151.71722,45,80,0
151.72556,152.11723,46,80,0
150.92555,152.51723,53,80,0
152.52556,152.91722,60,80,0
153.12556,153.31723,64,80,0
153.32556,154.11723,60,80,0
154.12556,154.51723,62,80,0
153.32556,154.91722,65,80,0
154.92555,155.51723,72,80,0
155.52556,155.71722,77,80,0
155.72556,157.11723,81,80,0
157.12556,157.31723,77,80,0
157.32556,157.91722,79,80,0
157.92555,158.11723,76,80,0
158.12556,158.91722,77,80,0
159.72556,159.80055,50,80,0
159.8089,159.91722,48,80,0
159.92555,160.11723,47,80,0
160.12556,160.31723,48,80,0
160.32556,160.51723,52,80,0
160.52556,160.91722,55,80,0
161.32556,161.71722,45,80,0
160.92555,162.11723,53,80,0
161.72556,162.11723,46,80,0
162.12556,162.20056,62,80,0
162.2089,162.31723,60,80,0
162.32556,162.51723,59,80,0
162.52556,162.71722,60,80,0
162.72556,162.91722,64,80,0
162.92555,163.31723,67,80,0
163.72556,164.11723,61,80,0
163.32556,164.51723,65,80,0
164.12556,164.51723,62,80,0
164.52556,164.60056,74,80,0
164.60889,164.71722,72,80,0
164.72556,164.91722,71,80,0
164.92555,165.11723,72,80,0
165.12556,165.31723,76,80,0
165.32556,166.31723,81,80,0
166.32556,166.51723,79,80,0
166.52556,166.71722,81,80,0
166.72556,166.91722,77,80,0
166.92555,167.04222,81,80,0
167.05055,167.11723,79,80,0
167.12556,167.31723,78,80,0
167.32556,167.51723,79,80,0
167.52556,167.71722,76,80,0
167.72556,168.51723,77,80,0
169.32556,169.91722,53,80,0
169.92555,170.11723,57,80,0
170.12556,170.91722,61,80,0
170.92555,172.31723,62,80,0
172.32556,172.51723,59,80,0
172.52556,173.11723,60,80,0
173.12556,173.31723,57,80,0
173.32556,173.71722,53,80,0
174.12556,174.71722,65,80,0
174.72556,174.91722,69,80,0
174.92555,175.71722,73,80,0
175.72556,177.11723,74,80,0
177.12556,177.31723,71,80,0
177.32556,177.91722,72,80,0
177.92555,178.11723,69,80,0
178.12556,178.51723,65,80,0
178.92555,179.51723,77,80,0
179.52556,179.71722,81,80,0
179.72556,180.51723,85,80,0
180.52556,181.91722,86,80,0
180.52556,181.91722,74,80,0
181.92555,182.11723,83,80,0
181.92555,182.11723,74,80,0
182.12556,182.71722,84,80,0
182.12556,182.71722,72,80,0
182.72556,182.91722,81,80,0
182.72556,182.91722,72,80,0
182.92555,184.31723,82,80,0
182.92555,184.31723,70,80,0
184.32556,184.51723,79,80,0
184.32556,184.51723,70,80,0
184.52556,185.11723,69,80,0
184.52556,185.11723,81,80,0
185.12556,185.31723,77,80,0
185.12556,185.31723,69,80,0
185.32556,186.11723,67,80,0
185.32556,186.71722,79,80,0
186.12556,186.91722,70,80,0
186.72556,186.91722,74,80,0
186.92555,187.01723,77,80,0
187.02556,187.11723,76,80,0
187.12556,187.21722,74,80,0
187.22556,187.51723,76,80,0
186.92555,187.71722,70,80,0
187.52556,187.71722,79,80,0
187.72556,188.11723,77,80,0
187.72556,188.11723,69,80,0
188.52556,188.64223,55,80,0
188.65056,188.71722,53,80,0
188.72556,188.91722,52,80,0
188.92555,189.11723,53,80,0
189.12556,189.31723,57,80,0
189.32556,189.71722,61,80,0
189.72556,190.51723,62,80,0
190.52556,191.11723,62,80,0
191.12556,191.31723,61,80,0
191.32556,191.51723,62,80,0
191.52556,191.71722,59,80,0
191.72556,191.80055,62,80,0
191.80055,191.92555,60,80,0
191.92555,192.11723,59,80,0
192.12556,192.31723,60,80,0
192.32556,192.51723,57,80,0
192.52556,192.71722,53,80,0
192.72556,192.91722,64,80,0
192.92555,193.11723,65,80,0
193.12556,193.31723,64,80,0
193.32556,193.40056,67,80,0
193.40056,193.52556,65,80,0
193.52556,193.71722,64,80,0
193.72556,193.91722,65,80,0
193.92555,194.11723,69,80,0
194.12556,194.31723,73,80,0
194.32556,194.71722,74,80,0
194.72556,195.11723,74,80,0
195.12556,195.51723,74,80,0
195.52556,195.91722,74,80,0
195.92555,196.11723,73,80,0
196.12556,196.31723,74,80,0
196.32556,196.51723,71,80,0
196.52556,196.60056,74,80,0
196.60056,196.72556,72,80,0
196.72556,196.91722,71,80,0
196.92555,197.11723,72,80,0
197.12556,197.31723,69,80,0
197.32556,197.51723,65,80,0
197.52556,197.71722,76,80,0
197.72556,197.91722,77,80,0
197.92555,198.11723,76,80,0
198.12556,198.20056,79,80,0
198.20056,198.32556,77,80,0
198.32556,198.51723,76,80,0
198.52556,198.71722,77,80,0
198.72556,198.91722,81,80,0
198.92555,199.11723,85,80,0
199.12556,199.51723,86,81,0
199.52556,199.91722,86,83,0
199.92555,200.31723,86,86,0
200.32556,200.51723,86,89,0
200.52556,200.60056,88,90,0
200.60056,200.72556,86,90,0
200.72556,200.91722,85,91,0
200.92555,201.11723,86,93,0
201.12556,201.31723,83,94,0
201.32556,201.40056,86,95,0
201.40056,201.52556,84,96,0
201.52556,201.71722,83,96,0
201.72556,201.91722,84,98,0
201.92555,202.11723,81,99,0
202.12556,202.31723,82,100,0
202.32556,202.71722,82,102,0
202.72556,202.91722,82,104,0
202.92555,203.00056,84,106,0
203.00056,203.12556,82,106,0
203.12556,203.31723,81,107,0
203.32556,203.51723,82,108,0
203.52556,203.71722,80,109,0
203.72556,203.80055,82,110,0
203.80055,203.92555,81,110,0
203.92555,204.11723,80,110,0
204.12556,204.31723,81,110,0
204.32556,204.51723,77,110,0
204.52556,204.71722,79,110,0
204.72556,205.11723,79,110,0
205.12556,205.31723,79,110,0
205.32556,205.40056,81,100,0
205.40056,205.52556,79,99,0
205.52556,205.71722,78,97,0
205.72556,205.91722,79,94,0
205.92555,206.11723,74,91,0
206.12556,206.20369,77,80,0
206.20369,206.3339,76,80,0
206.3339,206.53354,74,80,0
206.54222,206.76338,76,80,0
206.12556,206.99416,70,80,0
206.773,206.99416,79,80,0
207.00377,207.45569,77,80,0
207.00377,207.45569,69,80,0
209.9935,210.20879,60,110,0
209.9935,210.20879,72,110,0
210.21573,210.431,72,110,0
210.21573,210.431,84,110,0
210.43794,210.65323,71,110,0
210.43794,210.65323,83,110,0
210.66017,210.87544,72,110,0
210.66017,210.87544,84,110,0
210.8824,211.09767,70,110,0
210.8824,211.09767,82,110,0
211.10461,211.31989,69,110,0
211.10461,211.31989,81,110,0
211.32684,211.54211,67,110,0
211.32684,211.54211,79,110,0
211.54906,211.76434,69,110,0
211.54906,211.76434,81,110,0
211.77129,211.98656,70,110,0
211.77129,211.98656,82,110,0
211.9935,212.20879,69,110,0
211.9935,212.20879,81,110,0
212.21573,212.431,67,110,0
212.21573,212.431,79,110,0
212.43794,212.65323,65,110,0
212.43794,212.65323,77,110,0
212.66017,212.87544,64,110,0
212.66017,212.87544,76,110,0
212.88239,213.09767,65,110,0
212.88239,213.09767,77,110,0
213.10461,213.31989,67,110,0
213.10461,213.31989,79,110,0
213.32683,213.54211,65,110,0
213.32683,213.54211,77,110,0
213.54906,213.76433,64,110,0
213.54906,213.76433,76,110,0
213.77129,213.98656,62,110,0
213.77129,213.98656,74,110,0
213.9935,214.20879,61,110,0
213.9935,214.20879,73,110,0
214.21573,214.431,62,110,0
214.21573,214.431,74,110,0
214.43794,214.65323,64,110,0
214.43794,214.65323,76,110,0
214.66017,214.87544,62,110,0
214.66017,214.87544,74,110,0
214.88239,215.09767,60,110,0
214.88239,215.09767,72,110,0
215.10461,215.31989,58,110,0
215.10461,215.31989,70,110,0
215.32683,215.54211,57,110,0
215.32683,215.54211,69,110,0
215.54906,215.76433,55,110,0
215.54906,215.76433,67,110,0
215.77127,215.98656,53,110,0
215.77127,215.98656,65,110,0
215.9935,216.20877,52,110,0
215.9935,216.20877,64,110,0
216.21571,216.431,65,110,0
216.21571,216.431,53,110,0
216.43794,216.65321,62,110,0
216.43794,216.65321,50,110,0
216.66017,216.87544,48,110,0
216.66017,216.87544,60,110,0
216.88239,217.09767,50,110,0
216.88239,217.09767,62,110,0
217.10461,217.31989,52,110,0
217.10461,217.31989,64,110,0
217.32683,217.54211,53,110,0
217.32683,217.54211,65,110,0
217.54906,217.76433,55,110,0
217.54906,217.76433,67,110,0
217.77127,217.98656,52,110,0
217.77127,217.98656,64,110,0
217.9935,218.20877,50,110,0
217.9935,218.20877,62,110,0
218.21571,218.431,52,110,0
218.21571,218.431,64,110,0
218.43794,218.65321,53,110,0
218.43794,218.65321,65,110,0
218.66016,218.87544,55,110,0
218.66016,218.87544,67,110,0
218.88239,219.09766,57,110,0
218.88239,219.09766,69,110,0
219.10461,219.31989,53,110,0
219.10461,219.31989,65,110,0
219.32683,219.5421,52,110,0
219.32683,219.5421,64,110,0
219.54906,219.76433,53,110,0
219.54906,219.76433,65,110,0
219.77127,219.98656,55,110,0
219.77127,219.98656,67,110,0
219.9935,220.20877,57,110,0
219.9935,220.20877,69,110,0
220.21571,220.431,58,110,0
220.21571,220.431,70,110,0
220.43794,220.65321,55,110,0
220.43794,220.65321,67,110,0
220.66016,220.87544,53,110,0
220.66016,220.87544,65,110,0
220.88239,221.09766,55,110,0
220.88239,221.09766,67,110,0
221.1046,221.31989,57,110,0
221.1046,221.31989,69,110,0
221.32683,221.5421,58,110,0
221.32683,221.5421,70,110,0
221.54904,221.76433,60,110,0
221.54904,221.76433,72,110,0
221.77127,221.98654,62,110,0
221.77127,221.98654,74,110,0
221.9935,222.20877,64,110,0
221.9935,222.20877,76,110,0
222.21571,222.431,65,110,0
222.21571,222.431,77,110,0
222.43794,222.65321,67,110,0
222.43794,222.65321,79,110,0
222.66016,222.87544,69,110,0
222.66016,222.87544,81,110,0
222.88239,223.10379,70,110,0
222.88239,223.10379,82,110,0
223.11115,223.33908,70,80,0
223.11115,223.33908,82,80,0
223.34644,223.58862,70,80,0
223.34644,223.58862,82,80,0
223.59644,223.83862,70,80,0
223.59644,223.83862,82,80,0
223.84644,224.08862,70,80,0
223.84644,224.08862,82,80,0
224.09644,224.33862,70,80,0
224.09644,224.33862,82,80,0
224.34644,224.62769,70,80,0
224.34644,224.62769,82,80,0
224.63809,224.96101,70,80,0
224.63809,224.96101,82,80,0
224.97144,225.22977,82,120,0
224.97144,225.22977,79,120,0
224.97144,225.22977,76,120,0
224.97144,225.22977,70,120,0
225.2381,225.48862,82,120,0
225.2381,225.48862,79,120,0
225.2381,225.48862,76,120,0
225.2381,225.48862,70,120,0
225.49643,225.73862,82,120,0
225.49643,225.73862,79,120,0
225.49643,225.73862,76,120,0
225.49643,225.73862,70,120,0
225.74643,225.98862,82,120,0
225.74643,225.98862,79,120,0
225.74643,225.98862,76,120,0
225.74643,225.98862,70,120,0
225.99643,226.23862,82,120,0
225.99643,226.23862,79,120,0
225.99643,226.23862,76,120,0
225.99643,226.23862,70,120,0
226.24643,226.48862,82,120,0
226.24643,226.48862,79,120,0
226.24643,226.48862,76,120,0
226.24643,226.48862,70,120,0
226.49643,226.73862,82,120,0
226.49643,226.73862,79,120,0
226.49643,226.73862,76,120,0
226.49643,226.73862,70,120,0
226.74643,227.02768,82,120,0
226.74643,227.02768,79,120,0
226.74643,227.02768,76,120,0
226.74643,227.02768,70,120,0
227.0381,227.36102,82,120,0
227.0381,227.36102,79,120,0
227.0381,227.36102,76,120,0
227.0381,227.36102,70,120,0
227.37143,230.36102,82,120,0
227.37143,230.36102,79,120,0
227.37143,230.36102,76,120,0
227.37143,230.36102,70,120,0
231.17143,231.42976,60,80,0
231.17143,231.42976,55,80,0
231.17143,231.42976,52,80,0
231.17143,231.42976,48,80,0
231.4381,231.69643,60,80,0
231.4381,231.69643,55,80,0
231.4381,231.69643,52,80,0
231.4381,231.69643,48,80,0
231.70477,231.9631,60,80,0
231.70477,231.9631,55,80,0
231.70477,231.9631,52,80,0
231.70477,231.9631,48,80,0
231.97144,232.22977,60,80,0
231.97144,232.22977,55,80,0
231.97144,232.22977,52,80,0
231.97144,232.22977,48,80,0
232.2381,232.52768,60,80,0
232.2381,232.52768,55,80,0
232.2381,232.52768,52,80,0
232.2381,232.52768,48,80,0
232.5381,232.86102,60,80,0
232.5381,232.86102,55,80,0
232.5381,232.86102,52,80,0
232.5381,232.86102,48,80,0
232.87143,234.86102,60,80,0
232.87143,234.86102,55,80,0
232.87143,234.86102,52,80,0
232.87143,234.86102,48,80,0
234.87143,235.44034,48,80,0
235.44835,235.63264,52,80,0
235.64066,236.40189,48,80,0
236.4099,236.7865,50,80,0
235.64066,237.17111,53,80,0
237.17912,237.74803,60,80,0
237.75604,237.94034,64,80,0
237.94835,238.70956,57,80,0
238.71759,239.0942,58,80,0
237.94835,239.4788,65,80,0
239.48682,240.05573,72,80,0
240.06374,240.24803,77,80,0
240.25604,241.59418,81,80,0
241.60219,241.78648,77,80,0
241.79451,242.36342,79,80,0
242.37143,242.55573,76,80,0
242.56374,243.32495,77,80,0
244.10219,244.1743,50,80,0
244.1743,244.2945,48,80,0
244.2945,244.47879,47,80,0
244.4868,244.6711,48,80,0
244.67912,244.8634,52,80,0
244.87143,245.05573,55,80,0
245.06374,245.24803,53,80,0
245.25604,245.44034,52,80,0
245.64066,245.82495,49,80,0
245.83296,246.01726,50,80,0
246.02527,246.20956,49,80,0
245.44835,246.40187,53,80,0
246.21758,246.40187,50,80,0
246.40988,246.482,62,80,0
246.482,246.60219,60,80,0
246.60219,246.78648,59,80,0
246.7945,246.97879,60,80,0
246.9868,247.1711,64,80,0
247.17911,247.3634,67,80,0
247.37141,247.55571,65,80,0
247.56372,247.74802,64,80,0
247.94835,248.13264,57,80,0
248.14066,248.32495,58,80,0
248.33296,248.51726,57,80,0
247.75604,248.70956,65,80,0
248.52527,248.70956,58,80,0
248.71758,248.78969,74,80,0
248.78969,248.90988,72,80,0
248.90988,249.09418,71,80,0
249.10219,249.28648,72,80,0
249.2945,249.47879,77,80,0
249.4868,250.44032,81,80,0
250.44833,250.63263,80,80,0
250.64066,250.82494,81,80,0
250.83296,251.01726,77,80,0
251.02527,251.09738,81,80,0
251.09738,251.21758,79,80,0
251.21758,251.40187,78,80,0
251.40988,251.59418,79,80,0
251.60219,251.78648,76,80,0
251.7945,252.55571,77,80,0
251.7945,252.55571,69,80,0
253.33295,253.4211,53,80,0
253.42911,253.51724,55,80,0
253.52525,253.6134,53,80,0
253.62141,253.70955,52,80,0
253.71758,253.80571,50,80,0
253.81372,253.90186,52,80,0
253.90988,253.99802,53,80,0
254.00603,254.09418,57,80,0
254.10219,254.8634,61,80,0
254.87141,256.20956,62,80,0
256.21756,256.40186,59,80,0
256.40988,256.9788,60,80,0
256.9868,257.17108,57,80,0
257.1791,257.5557,53,80,0
257.94833,258.02045,67,80,0
258.02045,258.14066,65,80,0
258.14066,258.32492,64,80,0
258.33295,258.51724,65,80,0
258.52527,258.70956,69,80,0
258.71756,259.09418,73,80,0
259.10217,259.8634,74,80,0
259.8714,260.4403,74,80,0
260.44833,260.63263,73,80,0
260.64062,260.82492,74,80,0
260.83295,261.01724,71,80,0
261.02524,261.09738,74,80,0
261.09738,261.21756,72,80,0
261.21756,261.40186,71,80,0
261.40988,261.59418,72,80,0
261.60217,261.78647,69,80,0
261.7945,261.9788,65,80,0
261.9868,262.17108,76,80,0
262.1791,262.3634,77,80,0
262.3714,262.5557,76,80,0
262.56372,262.63583,79,80,0
262.63583,262.756,77,80,0
262.756,262.9403,76,80,0
262.94833,263.13263,77,80,0
263.14062,263.32492,81,80,0
263.33295,263.51724,85,80,0
263.52524,263.70953,86,81,0
263.71756,263.90186,86,82,0
263.90985,264.09415,86,83,0
264.10217,264.28647,86,85,0
264.2945,264.4788,86,86,0
264.4868,264.67108,86,87,0
264.6791,264.8634,86,89,0
264.8714,264.9435,88,90,0
264.9435,265.06372,86,90,0
265.06372,265.24802,85,91,0
265.256,265.4403,86,93,0
265.44833,265.63263,83,94,0
265.64062,265.71274,86,95,0
265.71274,265.83295,84,96,0
265.83295,266.01724,83,96,0
266.02524,266.20953,84,98,0
266.21756,266.40186,81,99,0
266.40985,266.59415,82,100,0
266.60217,266.78647,82,102,0
266.79446,266.97876,82,103,0
266.9868,267.17108,82,104,0
267.1791,267.25122,84,106,0
267.25122,267.3714,82,106,0
267.3714,267.5557,81,107,0
267.56372,267.74802,82,108,0
267.756,267.9403,80,109,0
267.94833,268.02045,82,110,0
268.02045,268.14062,81,110,0
268.14062,268.32492,80,110,0
268.33295,268.51724,81,110,0
268.52524,268.70953,77,110,0
268.71756,268.90186,79,110,0
268.90985,269.09415,79,110,0
269.10217,269.28647,79,110,0
269.29446,269.47876,79,110,0
269.4868,269.5589,81,100,0
269.5589,269.67908,79,99,0
269.67908,269.86337,78,97,0
269.8714,270.0557,79,94,0
270.06372,270.248,74,91,0
270.256,270.32812,77,80,0
270.32812,270.44833,76,80,0
270.44833,270.63263,74,80,0
270.64062,270.88022,76,80,0
270.256,271.13022,70,80,0
270.89062,271.13022,79,80,0
271.14062,271.63022,77,80,0
271.14062,271.63022,69,80,0
272.14062,272.25522,53,80,0
272.26562,272.3776,55,80,0
272.3854,272.47134,53,80,0
272.47916,272.5651,52,80,0
272.5729,272.6354,53,80,0
272.64322,272.70572,55,80,0
272.71353,272.78384,57,80,0
272.79166,272.86197,58,80,0
272.8776,272.9479,60,80,0
272.9479,273.1276,61,80,0
273.1354,273.3151,62,80,0
273.3229,273.5026,62,80,0
273.5104,273.6901,62,80,0
273.6979,273.8776,62,80,0
273.8854,274.0651,62,80,0
274.0729,274.2526,62,80,0
274.2604,274.4401,62,80,0
274.4479,274.51822,64,80,0
274.51822,274.6354,62,80,0
274.6354,274.8151,60,80,0
274.8229,275.0026,62,80,0
275.0104,275.1901,59,80,0
275.1979,275.26822,62,80,0
275.26822,275.3854,60,80,0
275.3854,275.5651,59,80,0
275.5729,275.7526,60,80,0
275.7604,275.9401,57,80,0
275.9479,276.0651,53,80,0
276.0729,276.1901,55,80,0
276.1979,276.3151,57,80,0
276.3229,276.4401,58,80,0
276.4479,276.5651,60,80,0
276.5729,276.6901,62,80,0
276.6979,276.8151,64,80,0
276.8229,276.9401,65,80,0
276.9479,277.0651,67,80,0
277.0729,277.1901,69,80,0
277.1979,277.3151,70,80,0
277.3229,277.4401,72,80,0
277.4479,277.5651,73,80,0
277.5729,277.6901,74,80,0
277.6979,277.8151,73,80,0
277.8229,277.9401,74,80,0
277.9479,278.0651,73,80,0
278.0729,278.1901,74,80,0
278.1979,278.3151,73,80,0
278.3229,278.4401,74,80,0
278.4479,278.5651,73,80,0
278.5729,278.65884,74,80,0
278.66666,278.7526,73,80,0
278.7604,278.84634,74,80,0
278.85416,278.9401,73,80,0
278.9479,279.0651,74,80,0
279.0729,279.1901,76,80,0
279.1979,279.3151,74,80,0
279.3229,279.4401,73,80,0
279.4479,279.5651,74,80,0
279.5729,279.6901,71,80,0
279.6979,279.8151,72,80,0
279.8229,279.9401,74,80,0
279.9479,280.0651,72,80,0
280.0729,280.1901,71,80,0
280.1979,280.3151,72,80,0
280.3229,280.4401,69,80,0
280.4479,280.5651,65,80,0
280.5729,280.6901,67,80,0
280.6979,280.8151,69,80,0
280.8229,280.9401,70,80,0
280.9479,281.0651,72,80,0
281.0729,281.1901,74,80,0
281.1979,281.3151,76,80,0
281.3229,281.4401,77,80,0
281.4479,281.5651,79,80,0
281.5729,281.6901,81,80,0
281.6979,281.8151,82,80,0
281.8229,281.9401,84,80,0
281.9479,282.0651,85,80,0
282.0729,282.1901,86,80,0
282.1979,282.3151,85,81,0
282.3229,282.4401,86,81,0
282.4479,282.5651,85,82,0
282.5729,282.6901,86,82,0
282.6979,282.8151,85,83,0
282.8229,282.9401,86,83,0
282.9479,283.0651,85,84,0
283.0729,283.15884,86,85,0
283.16666,283.2526,85,85,0
283.2604,283.34634,86,85,0
283.35416,283.4401,85,86,0
283.4479,283.5651,86,86,0
283.5729,283.6901,88,87,0
283.6979,283.8151,86,87,0
283.8229,283.9401,85,88,0
283.9479,284.0651,86,89,0
284.0729,284.1901,83,89,0
284.1979,284.3151,84,90,0
284.3229,284.4401,86,90,0
284.4479,284.5651,84,91,0
284.5729,284.6901,83,91,0
284.6979,284.8151,84,92,0
284.8229,284.9401,81,93,0
284.9479,285.0651,82,93,0
285.0729,285.1901,81,94,0
285.1979,285.3151,82,94,0
285.3229,285.4401,81,95,0
285.4479,285.5651,82,95,0
285.5729,285.6901,81,96,0
285.6979,285.8151,82,96,0
285.8229,285.9401,84,97,0
285.9479,286.0651,82,98,0
286.0729,286.1901,81,98,0
286.1979,286.3151,82,99,0
286.3229,286.4401,80,99,0
286.4479,286.5651,81,100,0
286.5729,286.6901,82,100,0
286.6979,286.8151,81,101,0
286.8229,286.9401,80,102,0
286.9479,287.0651,81,102,0
287.0729,287.1901,77,103,0
287.1979,287.3151,79,103,0
287.3229,287.4401,81,104,0
287.4479,287.5651,79,104,0
287.5729,287.6901,78,105,0
287.6979,287.8151,79,106,0
287.8229,287.9401,74,106,0
287.9479,288.0651,76,107,0
288.0729,288.1901,77,107,0
288.1979,288.3151,76,108,0
288.3229,288.4401,74,108,0
288.4479,288.5651,76,109,0
288.5729,288.6901,79,109,0
288.6979,288.8151,77,110,0
288.8229,288.9401,79,110,0
288.9479,289.0651,77,110,0
289.0729,289.1901,76,110,0
289.1979,289.3151,77,110,0
289.3229,289.4401,76,110,0
289.4479,289.5651,74,110,0
289.5729,289.6901,76,110,0
289.6979,289.8151,74,110,0
289.8229,289.9401,73,110,0
289.9479,290.0651,74,110,0
290.0729,290.1901,77,110,0
290.1979,290.3151,76,110,0
290.3229,290.4401,77,110,0
290.4479,290.5651,76,110,0
290.5729,290.6901,74,110,0
290.6979,290.8151,76,110,0
290.8229,290.9401,74,110,0
290.9479,291.0651,72,110,0
291.0729,291.1901,74,110,0
291.1979,291.3151,72,110,0
291.3229,291.4401,71,110,0
291.4479,291.5651,72,110,0
291.5729,291.6901,76,110,0
291.6979,291.8151,74,110,0
291.8229,291.9401,76,110,0
291.9479,292.0651,74,110,0
292.0729,292.1901,72,110,0
292.1979,292.3151,74,110,0
292.3229,292.4401,72,110,0
292.4479,292.5651,70,110,0
292.5729,292.6901,72,110,0
292.6979,292.8151,70,110,0
292.8229,292.9401,69,110,0
292.9479,293.0651,70,110,0
293.0729,293.1901,74,110,0
293.1979,293.3151,72,110,0
293.3229,293.4401,74,110,0
293.4479,293.5651,72,110,0
293.5729,293.6901,70,110,0
293.6979,293.8151,72,110,0
293.8229,293.9401,70,110,0
293.9479,294.0651,69,110,0
294.0729,294.1901,70,110,0
294.1979,294.3151,72,110,0
294.3229,294.4401,70,110,0
294.4479,294.5651,69,110,0
294.5729,294.6901,67,110,0
294.6979,294.8151,65,110,0
294.8229,294.9401,67,110,0
294.9479,295.0651,69,110,0
295.0729,295.1901,67,110,0
295.1979,295.3151,65,110,0
295.3229,295.4401,64,110,0
295.4479,295.54166,62,110,0
295.5104,295.61197,64,80,0
295.5729,295.67447,62,80,0
295.6354,295.80728,61,80,0
295.72916,295.8776,62,80,0
295.8229,295.9479,67,80,0
295.8854,295.99478,69,80,0
295.9479,296.05728,67,80,0
296.0104,296.1354,66,80,0
296.10416,296.2526,67,80,0
296.1979,296.28384,70,80,0
296.2604,296.36197,72,80,0
296.3229,296.41666,70,80,0
296.3854,296.5026,69,80,0
296.47916,296.59634,70,80,0
296.5729,296.66666,74,80,0
296.6354,296.72916,76,80,0
296.6979,296.79947,74,80,0
296.7604,296.8854,73,80,0
296.85416,297.0104,74,80,0
296.9479,297.04947,79,80,0
297.0104,297.11197,81,80,0
297.0729,297.17447,79,80,0
297.1354,297.26822,78,80,0
297.22916,297.3776,79,80,0
297.3229,297.43228,82,80,0
297.3854,297.48697,84,80,0
297.4479,297.55728,82,80,0
297.5104,297.68228,81,80,0
297.60416,297.6901,82,80,0
297.6979,297.83853,85,80,0
297.79166,297.9479,86,80,0
297.8854,298.04947,88,80,0
297.97916,298.1354,86,80,0
298.0729,298.22916,88,80,0
298.16666,298.33072,86,80,0
298.2604,298.42447,88,80,0
298.35416,298.5104,86,80,0
298.4479,298.60416,88,80,0
298.54166,298.70572,86,80,0
298.6354,298.79947,88,80,0
298.72916,298.8854,86,80,0
298.8229,298.97916,88,80,0
298.91666,299.08072,86,80,0
299.0104,299.17447,88,80,0
299.10416,299.2604,86,80,0
299.1979,299.35416,88,80,0
299.29166,299.45572,86,80,0
299.3854,299.54947,88,80,0
299.47916,299.6354,86,80,0
299.5729,299.72916,88,80,0
299.66666,299.83072,86,80,0
299.7604,299.92447,85,80,0
299.85416,299.9401,86,80,0
299.9479,300.10416,62,80,0
300.04166,300.22134,64,80,0
300.1354,300.29947,65,80,0
300.22916,300.3776,64,80,0
300.3229,300.49478,65,80,0
300.41666,300.58072,64,80,0
300.5104,300.6901,65,80,0
300.60416,300.77603,64,80,0
300.6979,300.86978,65,80,0
300.79166,300.95572,64,80,0
300.8854,301.0651,65,80,0
300.97916,301.15103,64,80,0
301.0729,301.24478,65,80,0
301.16666,301.33072,64,80,0
301.2604,301.4401,65,80,0
301.35416,301.52603,64,80,0
301.4479,301.61978,65,80,0
301.54166,301.70572,64,80,0
301.6354,301.8151,65,80,0
301.72916,301.90103,64,80,0
301.8229,301.99478,65,80,0
301.91666,302.08072,64,80,0
302.0104,302.1901,62,80,0
302.10416,302.1901,64,80,0
302.1979,302.33072,71,80,0
302.29166,302.4401,72,80,0
302.3854,302.53384,74,80,0
302.47916,302.6276,72,80,0
302.5729,302.72916,74,80,0
302.66666,302.8151,72,80,0
302.7604,302.92447,74,80,0
302.85416,303.01822,72,80,0
302.9479,303.10416,74,80,0
303.04166,303.1901,72,80,0
303.1354,303.29947,74,80,0
303.22916,303.39322,72,80,0
303.3229,303.47916,74,80,0
303.41666,303.5651,72,80,0
303.5104,303.67447,74,80,0
303.60416,303.76822,72,80,0
303.6979,303.85416,74,80,0
303.79166,303.9401,72,80,0
303.8854,304.04947,74,80,0
303.97916,304.14322,72,80,0
304.0729,304.22916,74,80,0
304.16666,304.3151,72,80,0
304.2604,304.42447,74,80,0
304.35416,304.4401,72,80,0
304.4479,305.4375,72,80,0
305.4479,305.60416,70,80,0
305.6146,305.77084,69,80,0
305.78125,305.9375,67,80,0
305.9479,306.10416,65,80,0
306.1146,306.27084,64,80,0
306.28125,306.4375,62,80,0
306.4479,306.77084,60,80,0
306.78125,307.10416,59,80,0
307.1146,307.4375,60,80,0
307.4479,307.6875,61,80,0
307.6979,308.0625,62,80,0
308.0729,308.9375,63,80,0
308.9479,310.4375,64,80,0
310.4479,311.08185,60,80,0
311.0908,311.29614,65,80,0
311.30505,312.69672,69,80,0
311.30505,312.89673,60,80,0
312.70505,312.89673,65,80,0
312.90506,313.49673,67,80,0
312.90506,313.69672,58,80,0
313.50507,313.69672,64,80,0
313.70505,314.49673,65,80,0
313.70505,314.89673,57,80,0
314.50507,314.89673,60,80,0
315.30505,315.89673,65,80,0
315.90506,316.09674,69,80,0
316.10507,317.49673,72,80,0
316.10507,317.49673,69,80,0
316.10507,317.49673,65,80,0
317.50507,317.69672,74,80,0
317.50507,317.69672,65,80,0
317.50507,317.69672,62,80,0
317.70505,318.29672,70,80,0
317.70505,318.29672,64,80,0
317.70505,318.29672,67,80,0
318.30505,318.49673,72,80,0
318.30505,318.49673,64,80,0
318.30505,318.49673,60,80,0
318.50507,319.29672,69,80,0
318.50507,319.29672,60,80,0
318.50507,319.29672,65,80,0
320.10507,320.18005,62,80,0
320.18005,320.30505,60,80,0
320.30505,320.49673,59,80,0
320.50507,320.69672,60,80,0
320.70505,320.89673,65,80,0
320.90506,321.09674,69,80,0
321.10507,321.29672,68,80,0
321.30505,321.49673,69,80,0
321.50507,321.69672,68,80,0
321.70505,321.89673,69,80,0
321.90506,322.09674,68,80,0
322.10507,322.29672,69,80,0
320.90506,322.49673,60,80,0
322.30505,322.49673,65,80,0
322.50507,322.58005,69,80,0
322.58005,322.70505,67,80,0
322.70505,322.89673,66,80,0
322.90506,323.09674,67,80,0
322.50507,323.29672,58,80,0
323.10507,323.29672,64,80,0
323.30505,323.38007,67,80,0
323.38007,323.50507,65,80,0
323.50507,323.69672,64,80,0
323.70505,323.89673,65,80,0
323.90506,324.09674,69,80,0
323.30505,324.49673,57,80,0
324.10507,324.49673,60,80,0
324.90506,324.98007,67,80,0
324.98007,325.10507,65,80,0
325.10507,325.29672,64,80,0
325.30505,325.49673,65,80,0
325.50507,325.69672,69,80,0
325.70505,325.89673,72,80,0
325.70505,326.09674,69,80,0
325.70505,326.09674,65,80,0
325.90506,326.09674,74,80,0
326.10507,326.29672,72,80,0
326.10507,326.49673,68,80,0
326.10507,326.49673,64,80,0
326.30505,326.49673,74,80,0
326.50507,326.69672,72,80,0
326.50507,326.89673,69,80,0
326.50507,326.89673,65,80,0
326.70505,326.89673,74,80,0
326.90506,327.09674,72,80,0
326.90506,327.29672,65,80,0
326.90506,327.29672,62,80,0
327.10507,327.29672,74,80,0
327.30505,327.5047,70,80,0
327.30505,327.71304,67,80,0
327.30505,327.71304,64,80,0
327.5134,327.71304,72,80,0
327.72174,327.94287,70,80,0
327.72174,328.17365,64,80,0
327.72174,328.17365,60,80,0
327.95248,328.17365,72,80,0
328.18326,329.06445,69,80,0
328.18326,329.06445,65,80,0
328.18326,329.06445,60,80,0
329.90195,330.49362,60,80,0
330.50195,330.6936,65,80,0
330.70193,332.2936,69,80,0
332.30194,332.89362,65,80,0
332.30194,332.89362,60,80,0
332.90195,333.09363,69,80,0
332.90195,333.09363,65,80,0
333.10196,334.6936,72,80,0
333.10196,334.6936,69,80,0
334.70193,335.2936,69,80,0
334.70193,335.2936,65,80,0
334.70193,335.2936,60,80,0
335.30194,335.49362,72,86,0
335.30194,335.49362,69,86,0
335.30194,335.49362,65,86,0
335.50195,336.6936,77,88,0
335.50195,336.6936,72,88,0
335.50195,336.6936,69,88,0
336.70193,337.09363,81,100,0
336.70193,337.09363,77,100,0
336.70193,337.09363,72,100,0
337.10196,337.49362,84,104,0
337.10196,337.49362,81,104,0
337.10196,337.49362,77,104,0
337.50195,337.89362,89,108,0
337.50195,337.89362,84,108,0
337.50195,337.89362,81,108,0
337.90195,338.16028,88,120,0
337.90195,338.16028,85,120,0
337.90195,338.16028,82,120,0
337.90195,338.16028,79,120,0
338.1686,338.42694,88,120,0
338.1686,338.42694,85,120,0
338.1686,338.42694,82,120,0
338.1686,338.42694,79,120,0
338.43527,338.6936,88,120,0
338.43527,338.6936,85,120,0
338.43527,338.6936,82,120,0
338.43527,338.6936,79,120,0
338.70193,338.96027,88,120,0
338.70193,338.96027,85,120,0
338.70193,338.96027,82,120,0
338.70193,338.96027,79,120,0
338.96863,339.22696,88,120,0
338.96863,339.22696,85,120,0
338.96863,339.22696,82,120,0
338.96863,339.22696,79,120,0
339.2353,339.49362,88,120,0
339.2353,339.49362,85,120,0
339.2353,339.49362,82,120,0
339.2353,339.49362,79,120,0
339.50195,339.76028,88,120,0
339.50195,339.76028,85,120,0
339.50195,339.76028,82,120,0
339.50195,339.76028,79,120,0
339.76862,340.02695,88,120,0
339.76862,340.02695,85,120,0
339.76862,340.02695,82,120,0
339.76862,340.02695,79,120,0
340.03528,340.2936,88,120,0
340.03528,340.2936,85,120,0
340.03528,340.2936,82,120,0
340.03528,340.2936,79,120,0
340.30194,340.62833,88,115,0
340.30194,340.62833,85,115,0
340.30194,340.62833,82,115,0
340.30194,340.62833,79,115,0
340.63528,340.96167,88,111,0
340.63528,340.96167,85,111,0
340.63528,340.96167,82,111,0
340.63528,340.96167,79,111,0
340.9686,341.295,88,107,0
340.9686,341.295,85,107,0
340.9686,341.295,82,107,0
340.9686,341.295,79,107,0
341.30194,341.62833,88,103,0
341.30194,341.62833,85,103,0
341.30194,341.62833,82,103,0
341.30194,341.62833,79,103,0
341.63528,341.96167,88,99,0
341.63528,341.96167,85,99,0
341.63528,341.96167,82,99,0
341.63528,341.96167,79,99,0
341.9686,342.295,88,95,0
341.9686,342.295,85,95,0
341.9686,342.295,82,95,0
341.9686,342.295,79,95,0
342.30194,342.64752,88,91,0
342.30194,342.64752,84,91,0
342.30194,342.64752,82,91,0
342.30194,342.64752,79,91,0
342.65488,343.0005,88,87,0
342.65488,343.0005,84,87,0
342.65488,343.0005,82,87,0
342.65488,343.0005,79,87,0
343.0078,343.375,88,83,0
343.0078,343.375,84,83,0
343.0078,343.375,82,83,0
343.0078,343.375,79,83,0
343.3828,343.75,88,79,0
343.3828,343.75,84,79,0
343.3828,343.75,82,79,0
343.3828,343.75,79,79,0
343.7578,344.17746,88,75,0
343.7578,344.17746,84,75,0
343.7578,344.17746,82,75,0
343.7578,344.17746,79,75,0
344.1864,344.676,88,71,0
344.1864,344.676,84,71,0
344.1864,344.676,82,71,0
344.1864,344.676,79,71,0
344.6864,345.676,89,70,0
344.6864,345.676,84,70,0
344.6864,345.676,81,70,0
344.6864,345.676,77,70,0
346.6864,347.676,72,70,0
346.6864,347.676,67,70,0
346.6864,347.676,64,70,0
346.6864,347.676,60,70,0
347.6864,348.676,69,70,0
347.6864,348.676,65,70,0
347.6864,348.676,60,70,0
349.6864,350.676,60,70,0
349.6864,350.676,55,70,0
349.6864,350.676,52,70,0
349.6864,350.676,48,70,0
350.6864,353.676,60,70,0
350.6864,353.676,52,70,0
350.6864,353.676,48,70,0
350.6864,353.676,55,70,0
353.6864,355.176,57,70,0
353.6864,355.176,53,70,0
353.6864,355.176,48,70,0
358.6864,359.176,53,1,0
0.8,1.5916667,29,80,0
0.8,1.9916667,41,80,0
1.6,1.9916667,31,80,0
3.2,3.9916666,45,80,0
3.2,4.391667,53,80,0
4.0,4.391667,46,80,0
5.6,6.1916666,65,80,0
6.2,6.391667,69,80,0
6.4,6.991667,72,80,0
5.6,7.1916666,60,80,0
7.0,7.1916666,69,80,0
7.2,7.7916665,70,80,0
7.2,7.991667,60,80,0
7.8,7.991667,67,80,0
8.0,8.791667,65,80,0
8.0,8.791667,69,80,0
10.4,11.191667,29,80,0
10.4,11.591666,41,80,0
11.2,11.591666,31,80,0
12.8,13.591666,45,80,0
12.8,13.991667,53,80,0
13.6,13.991667,46,80,0
15.2,15.791667,65,80,0
15.8,15.991667,69,80,0
16.0,16.591667,72,80,0
15.2,16.791666,60,80,0
16.6,16.791666,69,80,0
16.8,17.391666,70,80,0
16.8,17.591667,60,80,0
17.4,17.591667,67,80,0
17.6,18.391666,65,80,0
17.6,18.391666,69,80,0
20.8,21.591667,46,80,0
20.0,22.391666,41,80,0
21.6,22.391666,52,80,0
21.6,22.391666,43,80,0
22.4,23.591667,45,80,0
22.4,23.591667,41,80,0
23.2,23.591667,48,80,0
25.6,26.391666,58,80,0
24.8,27.191668,53,80,0
26.4,27.191668,64,80,0
26.4,27.191668,55,80,0
27.2,28.391666,57,80,0
27.2,28.391666,53,80,0
28.0,28.391666,60,80,0
30.4,31.191668,65,83,0
30.4,31.791666,70,83,0
31.2,31.791666,67,86,0
31.8,31.991667,67,89,0
31.8,31.991667,65,89,0
32.0,32.591667,67,90,0
32.0,32.591667,64,90,0
32.6,32.791668,69,93,0
32.6,32.791668,65,93,0
32.8,33.591667,65,93,0
32.8,33.591667,62,93,0
33.6,34.191666,67,97,0
33.6,34.191666,64,97,0
34.2,34.391666,65,99,0
34.2,34.391666,62,99,0
34.4,34.991665,64,100,0
34.4,34.991665,61,100,0
35.0,35.191666,65,100,0
35.0,35.191666,62,100,0
35.2,36.591667,62,100,0
35.2,36.791668,58,100,0
36.6,36.791668,67,100,0
36.8,37.405357,67,90,0
36.8,37.619644,60,90,0
37.414284,37.619644,64,83,0
37.62857,38.080494,65,81,0
37.62857,38.080494,53,81,0
40.213184,41.004852,46,80,0
39.413185,41.80485,41,80,0
41.013184,41.80485,52,80,0
41.013184,41.80485,43,80,0
41.813187,43.004852,45,80,0
41.813187,43.004852,41,80,0
42.613186,43.004852,48,80,0
45.013184,45.80485,58,80,0
44.213184,46.60485,53,80,0
45.813187,46.60485,64,80,0
45.813187,46.60485,55,80,0
46.613186,47.80485,57,80,0
46.613186,47.80485,53,80,0
47.413185,47.80485,60,80,0
49.813187,50.60485,65,84,0
49.813187,51.204853,70,84,0
50.613186,51.204853,67,88,0
51.213184,51.40485,67,92,0
51.213184,51.40485,65,92,0
51.413185,52.004852,67,93,0
51.413185,52.004852,64,93,0
52.013184,52.204853,69,96,0
52.013184,52.204853,65,96,0
52.213184,53.004852,65,97,0
52.213184,53.004852,62,97,0
53.013184,53.60485,67,102,0
53.013184,53.60485,64,102,0
53.613186,53.80485,65,105,0
53.613186,53.80485,62,105,0
53.813187,54.40485,64,106,0
53.813187,54.40485,61,106,0
54.413185,54.60485,65,109,0
54.413185,54.60485,62,109,0
54.613186,56.004852,62,110,0
54.613186,56.204853,58,110,0
56.013184,56.204853,67,91,0
56.213184,56.818542,67,80,0
56.213184,57.03283,60,80,0
56.82747,57.03283,64,80,0
57.041756,57.531338,65,80,0
57.041756,57.531338,53,80,0
58.041756,58.257034,36,110,0
58.041756,58.257034,48,110,0
58.263977,58.479256,48,110,0
58.263977,58.479256,60,110,0
58.4862,58.701477,47,110,0
58.4862,58.701477,59,110,0
58.708424,58.9237,48,110,0
58.708424,58.9237,60,110,0
58.930645,59.14592,46,110,0
58.930645,59.14592,58,110,0
59.152866,59.368145,45,110,0
59.152866,59.368145,57,110,0
59.375088,59.590366,43,110,0
59.375088,59.590366,55,110,0
59.59731,59.812588,45,110,0
59.59731,59.812588,57,110,0
59.81953,60.03481,46,110,0
59.81953,60.03481,58,110,0
60.041756,60.25703,45,110,0
60.041756,60.25703,57,110,0
60.263977,60.47925,45,110,0
60.263977,60.47925,57,110,0
60.4862,60.701477,44,110,0
60.4862,60.701477,56,110,0
60.70842,60.9237,45,110,0
60.70842,60.9237,57,110,0
60.93064,61.14592,46,110,0
60.93064,61.14592,58,110,0
61.152863,61.36814,48,110,0
61.152863,61.36814,60,110,0
61.375088,61.590363,46,110,0
61.375088,61.590363,58,110,0
61.59731,61.812584,45,110,0
61.59731,61.812584,57,110,0
61.81953,62.03481,43,110,0
61.81953,62.03481,55,110,0
62.04175,62.25703,41,110,0
62.04175,62.25703,53,110,0
62.263973,62.47925,43,110,0
62.263973,62.47925,55,110,0
62.486195,62.701473,45,110,0
62.486195,62.701473,57,110,0
62.70842,62.923695,43,110,0
62.70842,62.923695,55,110,0
62.93064,63.145916,41,110,0
62.93064,63.145916,53,110,0
63.152863,63.36814,40,110,0
63.152863,63.36814,52,110,0
63.375084,63.590363,38,110,0
63.375084,63.590363,50,110,0
63.597305,63.812584,40,110,0
63.597305,63.812584,52,110,0
63.819527,64.034805,41,110,0
63.819527,64.034805,53,110,0
64.04175,64.25703,40,110,0
64.04175,64.25703,52,110,0
64.26397,64.47925,38,110,0
64.26397,64.47925,50,110,0
64.48619,64.70147,36,110,0
64.48619,64.70147,48,110,0
64.70842,64.92369,34,110,0
64.70842,64.92369,46,110,0
64.93064,65.14591,33,110,0
64.93064,65.14591,45,110,0
65.15286,65.36814,34,110,0
65.15286,65.36814,46,110,0
65.375084,65.59036,35,110,0
65.375084,65.59036,47,110,0
65.597305,65.812584,33,110,0
65.597305,65.812584,45,110,0
65.81953,66.034805,35,110,0
65.81953,66.034805,47,110,0
66.04175,66.36813,36,110,0
66.04175,66.36813,48,110,0
68.04175,68.25703,48,110,0
68.26397,68.47925,60,110,0
68.48619,68.70147,60,110,0
68.48619,68.70147,59,110,0
68.70841,68.92369,60,110,0
68.93063,69.14591,60,110,0
68.93063,69.14591,58,110,0
69.152855,69.36813,60,110,0
69.152855,69.36813,57,110,0
69.37508,69.590355,60,110,0
69.37508,69.590355,58,110,0
69.5973,69.81258,60,110,0
69.5973,69.81258,57,110,0
69.81952,70.0348,60,110,0
69.81952,70.0348,55,110,0
70.04174,70.25702,60,110,0
70.04174,70.25702,57,110,0
70.26397,70.47924,60,110,0
70.26397,70.47924,55,110,0
70.48619,70.70146,60,110,0
70.48619,70.70146,53,110,0
70.70841,70.92369,57,110,0
70.70841,70.92369,55,110,0
70.93063,71.14591,57,110,0
70.93063,71.14591,53,110,0
71.152855,71.36813,57,110,0
71.152855,71.36813,52,110,0
71.37508,71.590355,57,110,0
71.37508,71.590355,53,110,0
71.5973,71.81258,57,110,0
71.5973,71.81258,52,110,0
71.81952,72.0348,57,110,0
71.81952,72.0348,50,110,0
72.04174,72.25702,55,110,0
72.04174,72.25702,53,110,0
72.26396,72.47924,55,110,0
72.26396,72.47924,52,110,0
72.48618,72.70146,55,110,0
72.48618,72.70146,50,110,0
72.708405,72.92368,55,110,0
72.708405,72.92368,52,110,0
72.93063,73.145905,55,110,0
72.93063,73.145905,50,110,0
73.152855,73.368126,48,110,0
73.152855,73.368126,55,110,0
73.37508,73.590355,57,110,0
73.37508,73.590355,55,110,0
73.5973,73.81258,57,110,0
73.5973,73.81258,53,110,0
73.81952,74.0348,57,110,0
73.81952,74.0348,52,110,0
74.04174,74.25702,57,110,0
74.04174,74.25702,53,110,0
74.26396,74.47924,57,110,0
74.26396,74.47924,52,110,0
74.48618,74.70146,57,110,0
74.48618,74.70146,50,110,0
74.708405,74.92368,55,110,0
74.708405,74.92368,53,110,0
74.930626,75.145905,55,110,0
74.930626,75.145905,52,110,0
75.15285,75.368126,55,110,0
75.15285,75.368126,50,110,0
75.37507,75.59035,55,110,0
75.37507,75.59035,52,110,0
75.5973,75.82559,55,110,0
75.5973,75.82559,50,110,0
75.833405,76.07559,48,110,0
75.833405,76.07559,55,110,0
76.083405,76.32559,52,110,0
76.333405,76.56257,50,110,0
76.56952,76.78479,48,110,0
76.79174,77.00702,47,110,0
77.01396,77.22924,45,110,0
77.23618,77.45146,43,110,0
77.458405,77.67368,41,110,0
77.680626,77.895905,40,110,0
77.90285,78.118126,38,110,0
78.12507,78.34035,43,110,0
78.12507,78.34035,36,110,0
78.34729,78.56257,43,110,0
78.34729,78.56257,38,110,0
78.56951,78.78479,43,110,0
78.56951,78.78479,40,110,0
78.79173,79.00701,43,110,0
78.79173,79.00701,41,110,0
79.01396,79.22923,43,110,0
79.01396,79.22923,40,110,0
79.23618,79.451454,43,110,0
79.23618,79.451454,38,110,0
79.458405,79.67368,43,110,0
79.458405,79.67368,36,110,0
79.680626,79.895905,43,110,0
79.680626,79.895905,38,110,0
79.90285,80.118126,43,110,0
79.90285,80.118126,40,110,0
80.12507,80.34035,43,110,0
80.12507,80.34035,41,110,0
80.34729,80.56257,43,110,0
80.34729,80.56257,40,110,0
80.56951,80.78479,43,110,0
80.56951,80.78479,38,110,0
80.79173,81.00701,36,110,0
81.013954,81.22923,38,110,0
81.236176,81.451454,40,110,0
81.4584,81.673676,41,110,0
81.68062,81.90892,42,110,0
81.91673,82.15892,43,110,0
82.16673,82.40892,44,110,0
82.41673,82.6459,45,110,0
82.65285,82.86812,44,110,0
82.87507,83.09035,43,110,0
83.09729,83.31257,43,110,0
83.31951,83.53479,45,110,0
83.54173,83.75701,47,110,0
83.763954,83.97923,48,110,0
83.986176,84.201454,50,110,0
84.2084,84.423676,52,110,0
84.43062,84.6459,53,110,0
84.65284,84.86812,55,110,0
84.87506,85.09034,60,110,0
84.87506,85.09034,48,110,0
85.09728,85.31256,50,110,0
85.31951,85.53478,47,110,0
85.54173,85.86812,48,110,0
86.2084,86.423676,39,110,0
86.2084,86.423676,51,110,0
86.43062,86.6459,51,110,0
86.43062,86.6459,63,110,0
86.65284,86.86812,50,110,0
86.65284,86.86812,62,110,0
86.87506,87.09034,51,110,0
86.87506,87.09034,63,110,0
87.09728,87.31256,49,110,0
87.09728,87.31256,61,110,0
87.3195,87.53478,48,110,0
87.3195,87.53478,60,110,0
87.541725,87.757,46,110,0
87.541725,87.757,58,110,0
87.76395,87.979225,48,110,0
87.76395,87.979225,60,110,0
87.986176,88.20145,49,110,0
87.986176,88.20145,61,110,0
88.2084,88.42367,48,110,0
88.2084,88.42367,60,110,0
88.43062,88.6459,48,110,0
88.43062,88.6459,60,110,0
88.65284,88.86812,47,110,0
88.65284,88.86812,59,110,0
88.87506,89.09034,48,110,0
88.87506,89.09034,60,110,0
89.09728,89.31256,49,110,0
89.09728,89.31256,61,110,0
89.3195,89.53478,51,110,0
89.3195,89.53478,63,110,0
89.541725,89.757,49,110,0
89.541725,89.757,61,110,0
89.76395,89.979225,48,110,0
89.76395,89.979225,60,110,0
89.98617,90.20145,46,110,0
89.98617,90.20145,58,110,0
90.20839,90.42367,44,110,0
90.20839,90.42367,56,110,0
90.43061,90.64589,46,110,0
90.43061,90.64589,58,110,0
90.65284,90.86811,48,110,0
90.65284,90.86811,60,110,0
90.87506,91.09033,46,110,0
90.87506,91.09033,58,110,0
91.09728,91.31256,44,110,0
91.09728,91.31256,56,110,0
91.3195,91.53478,43,110,0
91.3195,91.53478,55,110,0
91.541725,91.757,41,110,0
91.541725,91.757,53,110,0
91.76395,91.979225,43,110,0
91.76395,91.979225,55,110,0
91.98617,92.20145,44,110,0
91.98617,92.20145,56,110,0
92.20839,92.42367,43,110,0
92.20839,92.42367,55,110,0
92.43061,92.64589,41,110,0
92.43061,92.64589,53,110,0
92.65283,92.86811,39,110,0
92.65283,92.86811,51,110,0
92.87505,93.09033,37,110,0
92.87505,93.09033,49,110,0
93.097275,93.31255,36,110,0
93.097275,93.31255,48,110,0
93.3195,93.534775,37,110,0
93.3195,93.534775,49,110,0
93.541725,93.756996,38,110,0
93.541725,93.756996,50,110,0
93.76395,93.979225,36,110,0
93.76395,93.979225,48,110,0
93.98617,94.20145,38,110,0
93.98617,94.20145,50,110,0
94.20839,94.534775,39,110,0
94.20839,94.534775,51,110,0
96.20839,96.42366,39,110,0
96.20839,96.42366,51,110,0
96.43061,96.64589,51,110,0
96.43061,96.64589,63,110,0
96.65283,96.86811,51,110,0
96.65283,96.86811,50,110,0
96.65283,96.86811,63,110,0
96.65283,96.86811,62,110,0
96.87505,97.09033,63,110,0
97.097275,97.31255,63,110,0
97.097275,97.31255,61,110,0
97.319496,97.534775,63,110,0
97.319496,97.534775,60,110,0
97.54172,97.756996,63,110,0
97.54172,97.756996,61,110,0
97.76394,97.97922,63,110,0
97.76394,97.97922,60,110,0
97.98616,98.20144,63,110,0
97.98616,98.20144,58,110,0
98.20838,98.42366,63,110,0
98.20838,98.42366,60,110,0
98.4306,98.64588,63,110,0
98.4306,98.64588,58,110,0
98.652824,98.8681,63,110,0
98.652824,98.8681,56,110,0
98.87505,99.090324,60,110,0
98.87505,99.090324,58,110,0
99.097275,99.312546,60,110,0
99.097275,99.312546,56,110,0
99.319496,99.534775,60,110,0
99.319496,99.534775,55,110,0
99.54172,99.756996,60,110,0
99.54172,99.756996,56,110,0
99.76394,99.97922,60,110,0
99.76394,99.97922,55,110,0
99.98616,100.20144,60,110,0
99.98616,100.20144,53,110,0
100.20838,100.42366,56,110,0
100.20838,100.42366,54,110,0
100.4306,100.64588,56,110,0
100.4306,100.64588,53,110,0
100.652824,100.8681,56,110,0
100.652824,100.8681,51,110,0
100.875046,101.090324,56,110,0
100.875046,101.090324,53,110,0
101.09727,101.312546,56,110,0
101.09727,101.312546,51,110,0
101.31949,101.53477,56,110,0
101.31949,101.53477,49,110,0
101.54172,101.75699,53,110,0
101.54172,101.75699,51,110,0
101.76394,101.97921,53,110,0
101.76394,101.97921,49,110,0
101.98616,102.20144,53,110,0
101.98616,102.20144,48,110,0
102.20838,102.42366,53,110,0
102.20838,102.42366,49,110,0
102.4306,102.64588,53,110,0
102.4306,102.64588,48,110,0
102.652824,102.8681,53,110,0
102.652824,102.8681,46,110,0
102.875046,103.090324,51,110,0
102.875046,103.090324,49,110,0
103.09727,103.312546,51,110,0
103.09727,103.312546,48,110,0
103.31949,103.53477,51,110,0
103.31949,103.53477,46,110,0
103.54171,103.75699,51,110,0
103.54171,103.75699,48,110,0
103.76393,103.97921,51,110,0
103.76393,103.97921,46,110,0
103.98615,104.20143,51,110,0
103.98615,104.20143,44,110,0
104.20838,104.42365,53,110,0
104.20838,104.42365,51,110,0
104.4306,104.645874,53,110,0
104.4306,104.645874,49,110,0
104.652824,104.8681,53,110,0
104.652824,104.8681,48,110,0
104.875046,105.090324,53,110,0
104.875046,105.090324,49,110,0
105.09727,105.312546,53,110,0
105.09727,105.312546,48,110,0
105.31949,105.53477,53,110,0
105.31949,105.53477,46,110,0
105.54171,105.75699,51,110,0
105.54171,105.75699,49,110,0
105.76393,105.97921,51,110,0
105.76393,105.97921,48,110,0
105.98615,106.20143,51,110,0
105.98615,106.20143,46,110,0
106.208374,106.42365,51,110,0
106.208374,106.42365,48,110,0
106.430595,106.645874,51,110,0
106.430595,106.645874,46,110,0
106.65282,106.868095,51,110,0
106.65282,106.868095,44,110,0
106.875046,107.09032,51,110,0
106.875046,107.09032,49,110,0
107.09727,107.31254,51,110,0
107.09727,107.31254,48,110,0
107.31949,107.53477,51,110,0
107.31949,107.53477,46,110,0
107.54171,107.75699,51,110,0
107.54171,107.75699,48,110,0
107.76393,107.992226,51,110,0
107.76393,107.992226,46,110,0
108.00004,108.242226,51,110,0
108.00004,108.242226,44,110,0
108.25004,108.492226,51,110,0
108.25004,108.492226,48,110,0
108.50004,108.72921,51,110,0
108.50004,108.72921,46,110,0
108.73615,108.95143,51,110,0
108.73615,108.95143,44,110,0
108.958374,109.17365,43,110,0
109.180595,109.395874,41,110,0
109.40282,109.618095,39,110,0
109.62504,109.84032,37,110,0
109.84726,110.06254,36,110,0
110.06948,110.28476,34,110,0
110.2917,110.50698,39,110,0
110.2917,110.50698,32,110,0
110.51393,110.7292,39,110,0
110.51393,110.7292,34,110,0
110.73615,110.95143,39,110,0
110.73615,110.95143,36,110,0
110.958374,111.17365,39,110,0
110.958374,111.17365,37,110,0
111.180595,111.395874,39,110,0
111.180595,111.395874,36,110,0
111.40282,111.618095,39,110,0
111.40282,111.618095,34,110,0
111.62504,111.84032,39,110,0
111.62504,111.84032,32,110,0
111.84726,112.06254,39,110,0
111.84726,112.06254,34,110,0
112.06948,112.28476,39,110,0
112.06948,112.28476,36,110,0
112.2917,112.50698,39,110,0
112.2917,112.50698,37,110,0
112.51392,112.7292,39,110,0
112.51392,112.7292,36,110,0
112.736145,112.95142,39,110,0
112.736145,112.95142,34,110,0
112.95837,113.173645,32,110,0
113.180595,113.39587,34,110,0
113.40282,113.61809,36,110,0
113.62504,113.84032,37,110,0
113.84726,114.06254,38,110,0
114.06948,114.28476,39,110,0
114.2917,114.50698,40,110,0
114.51392,114.7292,41,110,0
114.736145,114.95142,38,110,0
114.95837,115.173645,39,110,0
115.18059,115.39587,39,110,0
115.40281,115.61809,41,110,0
115.62503,115.84031,43,110,0
115.84726,116.06253,44,110,0
116.06948,116.28475,46,110,0
116.2917,116.50698,48,110,0
116.51392,116.7292,49,110,0
116.736145,116.95142,51,110,0
116.95837,117.173645,44,110,0
117.18059,117.39587,46,110,0
117.40281,117.61809,43,110,0
117.62503,117.84031,44,110,0
118.291695,118.50697,41,80,0
118.51392,118.729195,43,80,0
118.736145,118.951416,44,80,0
118.95837,119.173645,46,80,0
119.18059,119.39587,48,80,0
119.40281,119.61809,49,80,0
119.62503,119.84031,51,80,0
119.84725,120.06253,53,80,0
120.06947,120.28475,55,80,0
120.291695,120.50697,56,80,0
120.513916,120.729195,58,80,0
120.73614,120.951416,60,80,0
120.95836,121.17364,53,80,0
121.18059,121.40888,43,80,0
121.416695,121.65888,40,80,0
121.666695,121.925026,41,80,0
122.41152,122.634224,37,80,0
122.64141,122.864105,39,80,0
122.87129,123.093994,41,80,0
123.10118,123.323875,42,80,0
123.33106,123.553764,44,80,0
123.56095,123.783646,46,80,0
123.79083,124.013535,48,80,0
124.02071,124.243416,49,80,0
124.2506,124.473305,51,80,0
124.480484,124.703186,53,80,0
124.71037,124.933075,54,80,0
124.940254,125.16296,56,80,0
125.17014,125.392845,49,80,0
125.400024,125.62273,39,80,0
125.62991,125.852615,36,80,0
125.859795,126.19744,37,80,0
127.468994,127.691696,39,80,0
127.698875,127.92158,36,80,0
127.928764,128.2664,37,80,0
129.53796,129.76067,51,80,0
129.76784,129.99054,48,80,0
129.99773,130.33537,49,80,0
131.6437,131.90204,39,80,0
131.91037,132.1687,36,80,0
132.17703,132.56871,37,80,0
142.24762,142.47556,36,80,0
142.48291,142.71086,37,80,0
142.71822,142.94615,35,80,0
142.9535,143.18144,36,80,0
143.1888,143.41673,37,80,0
143.42409,143.65204,35,80,0
143.65938,143.88733,36,80,0
143.89468,144.12262,37,80,0
144.12997,144.35791,35,80,0
144.36526,144.59322,36,80,0
144.60056,144.8285,37,80,0
144.83586,145.0638,35,80,0
145.07115,145.29909,36,80,0
145.30644,145.53438,37,80,0
145.54173,145.76968,35,80,0
145.77704,146.00497,36,80,0
146.01233,146.24026,38,80,0
146.24762,146.47556,35,80,0
146.48291,146.71086,36,80,0
146.7182,146.94615,38,80,0
146.9535,147.18144,35,80,0
147.1888,147.41673,36,80,0
147.42409,147.65202,38,80,0
147.65938,147.88733,35,80,0
147.89468,148.12262,36,80,0
148.12997,148.35791,38,80,0
148.36526,148.5932,33,80,0
148.60056,148.84274,34,80,0
148.85056,149.09274,36,80,0
149.10056,149.34274,33,80,0
149.35056,149.59274,34,80,0
149.60056,149.85056,38,80,0
149.85889,150.11723,36,80,0
150.12556,150.3839,34,80,0
150.39223,150.65056,33,80,0
150.65889,150.91722,31,80,0
150.92555,151.71722,29,80,0
150.92555,152.11723,41,80,0
151.72556,152.11723,31,80,0
153.32556,154.11723,45,80,0
153.32556,154.51723,53,80,0
154.12556,154.51723,46,80,0
155.72556,156.31723,65,80,0
156.32556,156.51723,69,80,0
156.52556,157.11723,72,80,0
155.72556,157.31723,60,80,0
157.12556,157.31723,69,80,0
157.32556,157.91722,70,80,0
157.32556,158.11723,60,80,0
157.92555,158.11723,67,80,0
158.12556,158.91722,69,80,0
158.12556,158.91722,65,80,0
160.52556,161.31723,29,80,0
160.52556,161.71722,41,80,0
161.32556,161.71722,31,80,0
162.92555,163.71722,41,80,0
162.92555,164.11723,53,80,0
163.72556,164.11723,43,80,0
165.32556,165.4339,67,80,0
165.44223,165.51723,65,80,0
165.52556,165.71722,64,80,0
165.72556,165.91722,65,80,0
165.92555,166.11723,69,80,0
166.12556,166.71722,72,80,0
165.32556,166.91722,60,80,0
166.72556,166.91722,69,80,0
166.92555,167.51723,70,80,0
166.92555,167.71722,60,80,0
167.52556,167.71722,67,80,0
167.72556,168.51723,69,80,0
167.72556,168.51723,65,80,0
170.92555,171.71722,46,80,0
170.12556,172.51723,41,80,0
171.72556,172.51723,52,80,0
171.72556,172.51723,43,80,0
172.52556,173.71722,45,80,0
172.52556,173.71722,41,80,0
173.32556,173.71722,48,80,0
175.72556,176.51723,58,80,0
174.92555,177.31723,53,80,0
176.52556,177.31723,64,80,0
176.52556,177.31723,55,80,0
177.32556,178.51723,57,80,0
177.32556,178.51723,53,80,0
178.12556,178.51723,60,80,0
180.52556,181.31723,65,80,0
180.52556,181.91722,70,80,0
181.32556,181.91722,67,80,0
181.92555,182.11723,67,80,0
181.92555,182.11723,65,80,0
182.12556,182.71722,67,80,0
182.12556,182.71722,64,80,0
182.72556,182.91722,69,80,0
182.72556,182.91722,65,80,0
182.92555,183.71722,65,80,0
182.92555,183.71722,62,80,0
183.72556,184.31723,67,80,0
183.72556,184.31723,64,80,0
184.32556,184.51723,65,80,0
184.32556,184.51723,62,80,0
184.52556,185.11723,64,80,0
184.52556,185.11723,61,80,0
185.12556,185.31723,65,80,0
185.12556,185.31723,62,80,0
185.32556,186.71722,62,80,0
185.32556,186.91722,58,80,0
186.72556,186.91722,67,80,0
186.92555,187.51723,67,80,0
186.92555,187.71722,60,80,0
187.52556,187.71722,64,80,0
187.72556,188.11723,65,80,0
187.72556,188.11723,53,80,0
190.12556,190.91722,46,80,0
189.32556,191.71722,41,80,0
190.92555,191.71722,52,80,0
190.92555,191.71722,43,80,0
191.72556,192.91722,45,80,0
191.72556,192.91722,41,80,0
192.52556,192.91722,48,80,0
194.92555,195.71722,58,80,0
194.12556,196.51723,53,80,0
195.72556,196.51723,64,80,0
195.72556,196.51723,55,80,0
196.52556,197.71722,57,80,0
196.52556,197.71722,53,80,0
197.32556,197.71722,60,80,0
199.72556,200.51723,65,85,0
199.72556,201.11723,70,85,0
200.52556,201.11723,67,90,0
199.72556,201.31723,74,85,0
201.12556,201.31723,65,94,0
201.12556,201.31723,67,94,0
201.32556,201.91722,67,95,0
201.32556,201.91722,64,95,0
201.32556,202.11723,72,95,0
201.92555,202.11723,69,99,0
201.92555,202.11723,65,99,0
202.12556,202.91722,65,100,0
202.12556,202.91722,62,100,0
202.92555,203.51723,67,106,0
202.92555,203.51723,64,106,0
202.12556,203.71722,70,100,0
203.52556,203.71722,65,109,0
203.52556,203.71722,62,109,0
203.72556,204.31723,64,110,0
203.72556,204.31723,61,110,0
203.72556,204.51723,69,110,0
204.32556,204.51723,65,110,0
204.32556,204.51723,62,110,0
204.52556,205.31723,67,110,0
204.52556,205.31723,62,110,0
205.32556,205.91722,62,100,0
204.52556,206.11723,58,110,0
205.92555,206.11723,67,91,0
206.12556,206.76338,67,80,0
206.12556,206.99416,60,80,0
206.773,206.99416,64,80,0
207.00377,207.45569,65,80,0
207.00377,207.45569,53,80,0
207.92683,208.18518,36,110,0
207.92683,208.18518,48,110,0
208.19351,208.431,48,110,0
208.19351,208.431,60,110,0
208.43796,208.65323,47,110,0
208.43796,208.65323,59,110,0
208.66017,208.87546,48,110,0
208.66017,208.87546,60,110,0
208.8824,209.09767,46,110,0
208.8824,209.09767,58,110,0
209.10461,209.3199,45,110,0
209.10461,209.3199,57,110,0
209.32684,209.54211,43,110,0
209.32684,209.54211,55,110,0
209.54906,209.76434,45,110,0
209.54906,209.76434,57,110,0
209.77129,209.98656,46,110,0
209.77129,209.98656,58,110,0
209.9935,210.20879,45,110,0
209.9935,210.20879,57,110,0
210.21573,210.431,45,110,0
210.21573,210.431,57,110,0
210.43794,210.65323,44,110,0
210.43794,210.65323,56,110,0
210.66017,210.87544,45,110,0
210.66017,210.87544,57,110,0
210.8824,211.09767,46,110,0
210.8824,211.09767,58,110,0
211.10461,211.31989,48,110,0
211.10461,211.31989,60,110,0
211.32684,211.54211,46,110,0
211.32684,211.54211,58,110,0
211.54906,211.76434,45,110,0
211.54906,211.76434,57,110,0
211.77129,211.98656,43,110,0
211.77129,211.98656,55,110,0
211.9935,212.20879,41,110,0
211.9935,212.20879,53,110,0
212.21573,212.431,43,110,0
212.21573,212.431,55,110,0
212.43794,212.65323,45,110,0
212.43794,212.65323,57,110,0
212.66017,212.87544,43,110,0
212.66017,212.87544,55,110,0
212.88239,213.09767,41,110,0
212.88239,213.09767,53,110,0
213.10461,213.31989,40,110,0
213.10461,213.31989,52,110,0
213.32683,213.54211,38,110,0
213.32683,213.54211,50,110,0
213.54906,213.76433,40,110,0
213.54906,213.76433,52,110,0
213.77129,213.98656,41,110,0
213.77129,213.98656,53,110,0
213.9935,214.20879,40,110,0
213.9935,214.20879,52,110,0
214.21573,214.431,38,110,0
214.21573,214.431,50,110,0
214.43794,214.65323,36,110,0
214.43794,214.65323,48,110,0
214.66017,214.87544,34,110,0
214.66017,214.87544,46,110,0
214.88239,215.09767,33,110,0
214.88239,215.09767,45,110,0
215.10461,215.31989,34,110,0
215.10461,215.31989,46,110,0
215.32683,215.54211,35,110,0
215.32683,215.54211,47,110,0
215.54906,215.76433,33,110,0
215.54906,215.76433,45,110,0
215.77127,215.98656,35,110,0
215.77127,215.98656,47,110,0
215.9935,216.31989,36,110,0
215.9935,216.31989,48,110,0
218.66016,218.87544,40,110,0
218.66016,218.87544,52,110,0
218.88239,219.09766,41,110,0
218.88239,219.09766,53,110,0
219.10461,219.31989,38,110,0
219.10461,219.31989,50,110,0
219.32683,219.5421,36,110,0
219.32683,219.5421,48,110,0
219.54906,219.76433,38,110,0
219.54906,219.76433,50,110,0
219.77127,219.98656,40,110,0
219.77127,219.98656,52,110,0
219.9935,220.20877,41,110,0
219.9935,220.20877,53,110,0
220.21571,220.431,43,110,0
220.21571,220.431,55,110,0
220.43794,220.65321,40,110,0
220.43794,220.65321,52,110,0
220.66016,220.87544,38,110,0
220.66016,220.87544,50,110,0
220.88239,221.09766,40,110,0
220.88239,221.09766,52,110,0
221.1046,221.31989,41,110,0
221.1046,221.31989,53,110,0
221.32683,221.5421,43,110,0
221.32683,221.5421,55,110,0
221.54904,221.76433,45,110,0
221.54904,221.76433,57,110,0
221.77127,221.98654,46,110,0
221.77127,221.98654,58,110,0
221.9935,222.20877,48,110,0
221.9935,222.20877,60,110,0
222.21571,222.431,50,110,0
222.21571,222.431,62,110,0
222.43794,222.65321,52,110,0
222.43794,222.65321,64,110,0
222.66016,222.87544,53,110,0
222.66016,222.87544,65,110,0
222.88239,223.10379,55,110,0
222.88239,223.10379,67,110,0
223.11115,223.33908,64,80,0
223.34644,223.58862,60,80,0
223.59644,223.83862,55,80,0
223.84644,224.08862,52,80,0
224.09644,224.33862,48,80,0
224.34644,224.62769,43,80,0
224.63809,224.96101,40,80,0
224.97144,225.22977,36,120,0
225.2381,225.48862,40,120,0
225.49643,225.73862,43,120,0
225.74643,225.98862,48,120,0
225.99643,226.23862,43,120,0
226.24643,226.48862,40,120,0
226.49643,226.73862,36,120,0
226.74643,227.02768,40,120,0
227.0381,227.36102,43,120,0
227.37143,230.36102,48,120,0
227.37143,230.36102,36,120,0
230.37143,230.62976,34,80,0
230.63809,230.89644,40,80,0
230.90477,231.1631,43,80,0
231.17143,231.42976,46,80,0
231.4381,231.69643,43,80,0
231.70477,231.9631,40,80,0
231.97144,232.22977,34,80,0
232.2381,232.52768,40,80,0
232.5381,232.86102,43,80,0
232.87143,234.86102,46,80,0
232.87143,234.86102,34,80,0
235.64066,236.40189,33,80,0
235.64066,236.7865,41,80,0
236.4099,236.7865,34,80,0
237.94835,238.70956,48,80,0
237.94835,239.0942,53,80,0
238.71759,239.0942,49,80,0
240.25604,240.82495,65,80,0
240.83296,241.01726,69,80,0
241.02527,241.59418,72,80,0
240.25604,241.78648,60,80,0
241.60219,241.78648,69,80,0
241.79451,242.36342,70,80,0
241.79451,242.55573,60,80,0
242.37143,242.55573,67,80,0
242.56374,243.32495,65,80,0
242.56374,243.32495,69,80,0
244.87143,245.63264,33,80,0
244.87143,246.01726,41,80,0
245.64066,246.01726,34,80,0
247.17911,247.94032,48,80,0
247.17911,248.32495,53,80,0
247.94835,248.32495,49,80,0
249.4868,249.55891,67,80,0
249.55891,249.67911,65,80,0
249.67911,249.8634,64,80,0
249.87141,250.05571,65,80,0
250.06372,250.24802,69,80,0
250.25603,250.44032,72,80,0
250.44833,250.63263,71,80,0
250.64066,250.82494,72,80,0
249.4868,251.01726,60,80,0
250.83296,251.01726,69,80,0
251.02527,251.20956,70,80,0
251.21758,251.40187,69,80,0
251.40988,251.59418,70,80,0
251.02527,251.78648,60,80,0
251.60219,251.78648,67,80,0
251.7945,251.97879,65,80,0
251.9868,252.1711,60,80,0
252.17911,252.3634,57,80,0
252.37141,252.55571,60,80,0
252.56372,252.74802,53,80,0
252.75603,252.94032,48,80,0
252.94833,253.13263,45,80,0
253.14064,253.32494,48,80,0
253.33295,253.70955,41,80,0
254.87141,255.63263,46,80,0
254.10219,256.40186,41,80,0
255.64064,256.40186,52,80,0
255.64064,256.40186,43,80,0
256.40988,257.5557,45,80,0
256.40988,257.5557,41,80,0
257.1791,257.5557,48,80,0
259.4868,260.24802,58,80,0
258.71756,261.01724,53,80,0
260.256,261.01724,64,80,0
260.256,261.01724,55,80,0
261.02524,262.17108,57,80,0
261.02524,262.17108,53,80,0
261.7945,262.17108,60,80,0
264.10217,264.8634,65,85,0
264.10217,265.4403,70,85,0
264.8714,265.4403,67,90,0
264.10217,265.63263,74,85,0
265.44833,265.63263,65,94,0
265.44833,265.63263,67,94,0
265.64062,266.20953,67,95,0
265.64062,266.20953,64,95,0
265.64062,266.40186,72,95,0
266.21756,266.40186,69,99,0
266.21756,266.40186,65,99,0
266.40985,267.17108,65,100,0
266.40985,267.17108,62,100,0
267.1791,267.74802,67,106,0
267.1791,267.74802,64,106,0
266.40985,267.9403,70,100,0
267.756,267.9403,65,109,0
267.756,267.9403,62,109,0
267.94833,268.51724,64,110,0
267.94833,268.51724,61,110,0
267.94833,268.70953,69,110,0
268.52524,268.70953,65,110,0
268.52524,268.70953,62,110,0
268.71756,269.47876,67,110,0
268.71756,269.47876,62,110,0
269.4868,270.0557,62,100,0
268.71756,270.248,58,110,0
270.06372,270.248,67,91,0
270.256,270.88022,67,80,0
270.256,271.13022,60,80,0
270.89062,271.13022,64,80,0
271.14062,271.63022,65,80,0
271.14062,271.63022,53,80,0
273.6979,274.4401,46,80,0
272.9479,275.1901,41,80,0
274.4479,275.1901,52,80,0
274.4479,275.1901,43,80,0
275.1979,276.3151,45,80,0
275.1979,276.3151,41,80,0
275.9479,276.3151,48,80,0
278.1979,278.9401,58,80,0
277.4479,279.6901,53,80,0
278.9479,279.6901,55,80,0
278.9479,279.6901,64,80,0
279.6979,280.8151,53,80,0
279.6979,280.8151,57,80,0
280.4479,280.8151,60,80,0
282.6979,283.4401,65,83,0
282.6979,284.0026,70,83,0
283.4479,284.0026,67,86,0
282.6979,284.1901,74,83,0
284.0104,284.1901,67,89,0
284.0104,284.1901,65,89,0
284.1979,284.7526,67,90,0
284.1979,284.7526,64,90,0
284.1979,284.9401,72,90,0
284.7604,284.9401,69,92,0
284.7604,284.9401,65,92,0
284.9479,285.6901,65,93,0
284.9479,285.6901,62,93,0
285.6979,286.2526,67,96,0
285.6979,286.2526,64,96,0
284.9479,286.4401,70,93,0
286.2604,286.4401,65,99,0
286.2604,286.4401,62,99,0
286.4479,287.0026,64,100,0
286.4479,287.0026,61,100,0
286.4479,287.1901,69,100,0
287.0104,287.1901,65,102,0
287.0104,287.1901,62,102,0
287.1979,287.7526,67,103,0
287.1979,287.7526,62,103,0
287.1979,287.7526,59,103,0
287.7604,287.9401,62,106,0
287.7604,287.9401,59,106,0
287.9479,288.5026,64,107,0
287.9479,288.5026,60,107,0
288.5104,288.6901,67,109,0
288.5104,288.6901,58,109,0
288.6979,289.2526,65,110,0
288.6979,289.2526,57,110,0
289.2604,289.4401,64,110,0
289.2604,289.4401,60,110,0
289.4479,290.0026,58,110,0
289.4479,290.0026,62,110,0
290.0104,290.1901,57,110,0
290.0104,290.1901,65,110,0
290.1979,290.7526,55,110,0
290.1979,290.7526,64,110,0
290.7604,290.9401,62,110,0
290.7604,290.9401,58,110,0
290.9479,291.5026,60,110,0
290.9479,291.5026,57,110,0
291.5104,291.6901,64,110,0
291.5104,291.6901,55,110,0
291.6979,292.2526,54,110,0
291.6979,292.2526,62,110,0
292.2604,292.4401,60,110,0
292.2604,292.4401,57,110,0
292.4479,293.0026,55,110,0
292.4479,293.0026,58,110,0
293.0104,293.1901,62,110,0
293.0104,293.1901,53,110,0
293.1979,293.7526,60,110,0
293.1979,293.7526,52,110,0
293.7604,293.9401,58,110,0
293.7604,293.9401,55,110,0
293.9479,294.5026,57,110,0
293.9479,294.5026,53,110,0
294.5104,294.6901,58,110,0
294.5104,294.6901,55,110,0
294.6979,295.2526,60,110,0
294.6979,295.2526,57,110,0
295.2604,295.4401,45,110,0
295.2604,295.4401,48,110,0
295.4479,296.1901,50,110,0
295.4479,296.1901,46,110,0
298.4479,299.1901,67,80,0
298.4479,299.1901,62,80,0
298.4479,299.1901,58,80,0
300.6979,301.4401,58,80,0
300.6979,301.4401,55,80,0
300.6979,301.4401,48,80,0
311.57172,311.83005,41,80,0
311.8384,312.09674,41,80,0
312.10507,312.3634,41,80,0
312.37173,312.63007,41,80,0
312.6384,312.89673,41,80,0
312.90506,313.1634,41,80,0
313.17172,313.43005,41,80,0
311.30505,313.69672,29,80,0
313.4384,313.69672,41,80,0
313.97174,314.23007,41,80,0
314.2384,314.49673,41,80,0
314.50507,314.7634,41,80,0
314.77173,315.03006,41,80,0
315.0384,315.29672,41,80,0
315.30505,315.5634,41,80,0
315.57172,315.83005,41,80,0
313.70505,316.09674,29,80,0
315.8384,316.09674,41,80,0
316.37173,316.63007,41,80,0
316.6384,316.89673,41,80,0
316.90506,317.1634,41,80,0
317.17172,317.43005,41,80,0
317.4384,317.69672,41,80,0
317.70505,317.9634,41,80,0
317.97174,318.23007,41,80,0
316.10507,318.49673,29,80,0
318.2384,318.49673,41,80,0
318.77173,319.03006,41,80,0
319.0384,319.29672,41,80,0
319.30505,319.5634,41,80,0
319.57172,319.83005,41,80,0
319.8384,320.09674,41,80,0
320.10507,320.3634,41,80,0
320.37173,320.63007,41,80,0
318.50507,320.89673,29,80,0
320.6384,320.89673,41,80,0
321.17172,321.43005,41,80,0
321.4384,321.69672,41,80,0
321.70505,321.9634,41,80,0
321.97174,322.23007,41,80,0
322.2384,322.49673,41,80,0
322.50507,322.7634,41,80,0
322.77173,323.03006,41,80,0
320.90506,323.29672,29,80,0
323.0384,323.29672,41,80,0
323.57172,323.83005,41,80,0
323.8384,324.09674,41,80,0
324.10507,324.3634,41,80,0
324.37173,324.63007,41,80,0
324.6384,324.89673,41,80,0
324.90506,325.1634,41,80,0
325.17172,325.43005,41,80,0
323.30505,325.69672,29,80,0
325.4384,325.69672,41,80,0
325.97174,326.23007,41,80,0
326.2384,326.49673,41,80,0
326.50507,326.7634,41,80,0
326.77173,327.03006,41,80,0
327.0384,327.29672,41,80,0
327.30505,327.57416,41,80,0
327.58282,327.86597,41,80,0
325.70505,328.17365,29,80,0
327.87558,328.17365,41,80,0
328.49097,328.77875,41,80,0
328.18326,329.06445,29,80,0
328.78766,329.06445,41,80,0
329.3591,329.62695,41,80,0
329.07336,329.89362,33,80,0
329.63528,329.89362,41,80,0
330.1686,330.42694,41,80,0
329.90195,330.6936,36,80,0
330.43527,330.6936,41,80,0
330.96863,331.22696,41,80,0
330.70193,331.49362,29,80,0
331.2353,331.49362,41,80,0
331.76862,332.02695,41,80,0
331.50195,332.2936,33,80,0
332.03528,332.2936,41,80,0
332.5686,332.82693,41,80,0
332.30194,333.09363,36,80,0
332.83527,333.09363,41,80,0
333.36862,333.62695,41,80,0
333.10196,333.89362,29,80,0
333.63528,333.89362,41,80,0
334.1686,334.42694,41,80,0
333.90195,334.6936,33,80,0
334.43527,334.6936,41,80,0
334.96863,335.22696,41,82,0
334.70193,335.49362,36,80,0
335.2353,335.49362,41,85,0
335.50195,335.76028,41,88,0
335.76862,336.02695,60,90,0
336.03528,336.2936,57,93,0
336.30194,336.56027,53,96,0
336.5686,336.82693,48,99,0
336.83527,337.09363,45,101,0
337.36862,337.62695,53,107,0
337.10196,337.89362,41,104,0
337.63528,337.89362,53,109,0
337.90195,338.16028,41,120,0
338.1686,338.42694,64,120,0
338.1686,338.42694,61,120,0
338.1686,338.42694,58,120,0
338.1686,338.42694,55,120,0
338.1686,338.42694,53,120,0
338.43527,338.6936,64,120,0
338.43527,338.6936,61,120,0
338.43527,338.6936,58,120,0
338.43527,338.6936,55,120,0
338.43527,338.6936,53,120,0
338.70193,338.96027,64,120,0
338.70193,338.96027,61,120,0
338.70193,338.96027,58,120,0
338.70193,338.96027,55,120,0
338.70193,338.96027,53,120,0
338.96863,339.22696,64,120,0
338.96863,339.22696,61,120,0
338.96863,339.22696,58,120,0
338.96863,339.22696,55,120,0
338.96863,339.22696,53,120,0
339.2353,339.49362,64,120,0
339.2353,339.49362,61,120,0
339.2353,339.49362,58,120,0
339.2353,339.49362,55,120,0
339.2353,339.49362,53,120,0
339.50195,339.76028,64,120,0
339.50195,339.76028,61,120,0
339.50195,339.76028,58,120,0
339.50195,339.76028,55,120,0
339.50195,339.76028,53,120,0
339.76862,340.02695,64,120,0
339.76862,340.02695,61,120,0
339.76862,340.02695,58,120,0
339.76862,340.02695,55,120,0
339.76862,340.02695,53,120,0
340.03528,340.2936,64,120,0
340.03528,340.2936,61,120,0
340.03528,340.2936,58,120,0
340.03528,340.2936,55,120,0
340.03528,340.2936,53,120,0
340.30194,340.62833,64,115,0
340.30194,340.62833,61,115,0
340.30194,340.62833,58,115,0
340.30194,340.62833,55,115,0
340.30194,340.62833,53,115,0
340.63528,340.96167,64,111,0
340.63528,340.96167,61,111,0
340.63528,340.96167,58,111,0
340.63528,340.96167,55,111,0
340.63528,340.96167,53,111,0
340.9686,341.295,64,107,0
340.9686,341.295,61,107,0
340.9686,341.295,58,107,0
340.9686,341.295,55,107,0
340.9686,341.295,53,107,0
341.30194,341.62833,64,103,0
341.30194,341.62833,61,103,0
341.30194,341.62833,58,103,0
341.30194,341.62833,55,103,0
341.30194,341.62833,53,103,0
341.63528,341.96167,64,99,0
341.63528,341.96167,61,99,0
341.63528,341.96167,58,99,0
341.63528,341.96167,55,99,0
341.63528,341.96167,53,99,0
341.9686,342.295,64,95,0
341.9686,342.295,61,95,0
341.9686,342.295,58,95,0
341.9686,342.295,55,95,0
341.9686,342.295,53,95,0
342.30194,342.64752,64,91,0
342.30194,342.64752,60,91,0
342.30194,342.64752,58,91,0
342.30194,342.64752,55,91,0
342.30194,342.64752,53,91,0
342.65488,343.0005,64,87,0
342.65488,343.0005,60,87,0
342.65488,343.0005,58,87,0
342.65488,343.0005,55,87,0
342.65488,343.0005,53,87,0
343.0078,343.375,64,83,0
343.0078,343.375,60,83,0
343.0078,343.375,58,83,0
343.0078,343.375,55,83,0
343.0078,343.375,53,83,0
343.3828,343.75,64,79,0
343.3828,343.75,60,79,0
343.3828,343.75,58,79,0
343.3828,343.75,55,79,0
343.3828,343.75,53,79,0
343.7578,344.17746,64,75,0
343.7578,344.17746,60,75,0
343.7578,344.17746,58,75,0
343.7578,344.17746,55,75,0
343.7578,344.17746,53,75,0
344.1864,344.676,64,71,0
344.1864,344.676,60,71,0
344.1864,344.676,58,71,0
344.1864,344.676,55,71,0
344.1864,344.676,53,71,0
344.6864,345.676,65,70,0
344.6864,345.676,60,70,0
344.6864,345.676,57,70,0
344.6864,345.676,53,70,0
346.6864,347.676,55,70,0
346.6864,347.676,48,70,0
347.6864,348.676,57,70,0
347.6864,348.676,53,70,0
349.6864,350.676,36,70,0
350.6864,353.676,36,70,0
353.6864,355.176,41,70,0
353.6864,355.176,29,70,0
