start_time,end_time,note_value,velocity,instrument_program_number
1.7,1.7958333,57,80,0
1.8,1.8958334,60,80,0
1.9,1.9958333,65,80,0
2.0,2.0958333,55,80,0
2.1,2.1958334,64,80,0
2.2,2.2958333,57,80,0
2.3,2.3958333,65,80,0
2.4,2.4958334,58,80,0
2.5,2.5958333,67,80,0
2.6,2.6958334,60,80,0
2.7,2.7958333,69,80,0
2.8,2.8958333,62,80,0
2.9,2.9958334,70,80,0
3.0,3.0958333,64,80,0
3.1,3.1958334,72,80,0
3.2,3.2958333,69,80,0
3.3,3.3958333,65,80,0
3.4,4.795833,72,101,0
4.9,4.9958334,69,80,0
5.0,5.0958333,72,80,0
5.1,5.195833,77,80,0
5.2,5.295833,67,80,0
5.3,5.3958335,76,80,0
5.4,5.4958334,69,80,0
5.5,5.5958333,77,80,0
5.6,5.695833,70,80,0
5.7,5.795833,79,80,0
5.8,5.8958335,72,80,0
5.9,5.9958334,81,80,0
6.0,6.0958333,74,80,0
6.1,6.195833,82,80,0
6.2,6.295833,76,80,0
6.3,6.3958335,84,80,0
6.4,6.4958334,81,80,0
6.5,6.5958333,77,80,0
6.6,6.695833,84,80,0
6.7,6.795833,76,80,0
6.8,6.8958335,77,80,0
6.9,6.9958334,74,80,0
7.0,7.0958333,81,80,0
7.1,7.195833,72,80,0
7.2,7.295833,74,80,0
7.3,7.3958335,70,80,0
7.4,7.4958334,77,80,0
7.5,7.5958333,69,80,0
7.6,7.695833,70,80,0
7.7,7.795833,67,80,0
7.8,7.8958335,74,80,0
7.9,7.9958334,65,80,0
8.0,8.095834,67,80,0
8.1,8.195833,62,80,0
8.2,8.295834,70,81,0
8.3,8.395833,62,81,0
8.4,8.495833,67,82,0
8.5,8.595834,62,83,0
8.6,8.695833,65,83,0
8.7,8.795834,62,84,0
8.8,8.895833,64,85,0
8.9,8.995833,60,85,0
9.0,9.095834,57,86,0
9.1,9.195833,62,87,0
9.2,9.295834,55,87,0
9.3,9.395833,60,88,0
9.4,9.495833,53,89,0
9.5,9.595834,59,89,0
9.6,9.695833,48,80,0
9.7,9.795834,52,80,0
9.8,9.895833,55,80,0
9.9,9.995833,60,80,0
10.0,10.095834,51,80,0
10.1,10.195833,59,80,0
10.2,10.295834,52,80,0
10.3,10.395833,60,80,0
10.4,10.495833,52,80,0
10.5,10.595834,55,80,0
10.6,10.695833,60,80,0
10.7,10.795834,64,80,0
10.8,10.895833,59,80,0
10.9,10.995833,63,80,0
11.0,11.095834,60,80,0
11.1,11.195833,64,80,0
11.2,11.295834,60,80,0
11.3,11.395833,64,80,0
11.4,11.495833,67,81,0
11.5,11.595834,72,81,0
11.6,11.695833,63,82,0
11.7,11.795834,71,83,0
11.8,11.895833,64,83,0
11.9,11.995833,72,84,0
12.0,12.095834,71,85,0
12.1,12.195833,75,85,0
12.2,12.295834,72,86,0
12.3,12.395833,76,87,0
12.4,12.495833,75,87,0
12.5,12.595834,78,88,0
12.6,12.695833,76,89,0
12.7,12.795834,79,89,0
12.8,12.895833,84,80,0
12.9,12.995833,72,80,0
13.0,13.095834,74,80,0
13.1,13.195833,76,80,0
13.2,13.295834,77,80,0
13.3,13.395833,79,80,0
13.4,13.495833,81,80,0
13.5,13.595834,83,80,0
13.6,13.695833,84,80,0
13.7,13.795834,72,80,0
13.8,13.895833,74,80,0
13.9,13.995833,76,80,0
14.0,14.095834,77,80,0
14.1,14.195833,79,80,0
14.2,14.295834,81,80,0
14.3,14.395833,83,80,0
14.4,14.595834,84,80,0
14.8,14.995833,60,80,0
14.8,14.995833,55,80,0
14.8,14.995833,52,80,0
17.7,17.795834,57,80,0
17.8,17.895834,60,80,0
17.9,17.995832,65,80,0
18.0,18.095833,55,80,0
18.1,18.195833,64,80,0
18.2,18.295834,57,80,0
18.3,18.395834,65,80,0
18.4,18.495832,58,80,0
18.5,18.595833,67,80,0
18.6,18.695833,60,80,0
18.7,18.795834,69,80,0
18.8,18.895834,62,80,0
18.9,18.995832,70,80,0
19.0,19.095833,64,80,0
19.1,19.195833,72,80,0
19.2,19.295834,69,80,0
19.3,19.395834,65,80,0
19.4,20.795834,72,103,0
20.9,20.995832,69,80,0
21.0,21.095833,72,80,0
21.1,21.195833,77,80,0
21.2,21.295834,67,80,0
21.3,21.395834,76,80,0
21.4,21.495832,69,80,0
21.5,21.595833,77,80,0
21.6,21.695833,70,80,0
21.7,21.795834,79,80,0
21.8,21.895834,72,80,0
21.9,21.995832,81,80,0
22.0,22.095833,74,80,0
22.1,22.195833,82,80,0
22.2,22.295834,76,80,0
22.3,22.395834,84,80,0
22.4,22.495832,81,80,0
22.5,22.595833,77,80,0
22.6,22.695833,84,80,0
22.7,22.795834,76,80,0
22.8,22.895834,77,80,0
22.9,22.995832,74,80,0
23.0,23.095833,81,80,0
23.1,23.195833,72,80,0
23.2,23.295834,74,80,0
23.3,23.395834,70,80,0
23.4,23.495832,77,80,0
23.5,23.595833,69,80,0
23.6,23.695833,70,80,0
23.7,23.795834,67,80,0
23.8,23.895834,74,80,0
23.9,23.995832,65,80,0
24.0,24.095833,67,80,0
24.1,24.195833,62,80,0
24.2,24.295834,70,80,0
24.3,24.395834,62,80,0
24.4,24.495832,67,80,0
24.5,24.595833,62,80,0
24.6,24.695833,65,80,0
24.7,24.795834,62,80,0
24.8,24.895834,64,80,0
24.9,24.995832,60,80,0
25.0,25.095833,57,80,0
25.1,25.195833,62,80,0
25.2,25.295834,55,80,0
25.3,25.395834,60,80,0
25.4,25.495832,53,80,0
25.5,25.595833,59,80,0
25.6,25.695833,48,80,0
25.7,25.795834,52,80,0
25.8,25.895834,55,80,0
25.9,25.995832,60,80,0
26.0,26.095833,51,80,0
26.1,26.195833,59,80,0
26.2,26.295834,52,80,0
26.3,26.395834,60,80,0
26.4,26.495832,52,80,0
26.5,26.595833,55,80,0
26.6,26.695833,60,80,0
26.7,26.795834,64,80,0
26.8,26.895834,59,80,0
26.9,26.995832,63,80,0
27.0,27.095833,60,80,0
27.1,27.195833,64,80,0
27.2,27.295834,60,80,0
27.3,27.395834,64,81,0
27.4,27.495832,67,82,0
27.5,27.595833,72,83,0
27.6,27.695833,63,85,0
27.7,27.795834,71,86,0
27.8,27.895834,64,87,0
27.9,27.995832,72,89,0
28.0,28.095833,71,90,0
28.1,28.195833,75,91,0
28.2,28.295834,72,93,0
28.3,28.395834,76,94,0
28.4,28.495832,75,95,0
28.5,28.595833,78,97,0
28.6,28.695833,76,98,0
28.7,28.795834,79,99,0
28.8,28.895834,84,80,0
28.9,28.995832,72,80,0
29.0,29.095833,74,80,0
29.1,29.195833,76,80,0
29.2,29.295834,77,80,0
29.3,29.395834,79,80,0
29.4,29.495832,81,80,0
29.5,29.595833,83,80,0
29.6,29.695833,84,80,0
29.7,29.795834,72,80,0
29.8,29.895834,74,80,0
29.9,29.995832,76,80,0
30.0,30.095833,77,80,0
30.1,30.195833,79,80,0
30.2,30.295834,81,80,0
30.3,30.395834,83,80,0
30.4,30.595833,84,80,0
30.8,30.995832,60,80,0
30.8,30.995832,55,80,0
30.8,30.995832,52,80,0
33.6,33.695835,57,80,0
33.7,33.795834,61,80,0
33.8,33.895832,64,80,0
33.9,33.995834,69,80,0
34.0,34.095833,59,80,0
34.1,34.195835,68,80,0
34.2,34.295834,61,80,0
34.3,34.395832,69,80,0
34.4,34.495834,62,80,0
34.5,34.595833,71,80,0
34.6,34.695835,64,80,0
34.7,34.795834,73,80,0
34.8,34.895832,66,80,0
34.9,34.995834,74,80,0
35.0,35.095833,68,80,0
35.1,35.195835,76,80,0
35.2,35.295834,73,80,0
35.3,35.395832,69,80,0
35.4,36.795834,76,101,0
36.9,36.995834,73,80,0
37.0,37.095833,76,80,0
37.1,37.195835,81,80,0
37.2,37.295834,71,80,0
37.3,37.395832,80,80,0
37.4,37.495834,73,80,0
37.5,37.595833,81,80,0
37.6,37.695835,74,80,0
37.7,37.795834,83,80,0
37.8,37.895832,76,80,0
37.9,37.995834,85,80,0
38.0,38.095833,81,80,0
38.1,38.195835,86,80,0
38.2,38.295834,81,80,0
38.3,38.395832,88,80,0
38.4,38.495834,89,80,0
38.5,38.595833,81,80,0
38.6,38.695835,88,80,0
38.7,38.795834,84,80,0
38.8,38.895832,86,80,0
38.9,38.995834,77,80,0
39.0,39.095833,84,80,0
39.1,39.195835,81,80,0
39.2,39.295834,82,80,0
39.3,39.395832,74,80,0
39.4,39.495834,81,80,0
39.5,39.595833,77,80,0
39.6,39.695835,79,80,0
39.7,39.795834,70,80,0
39.8,39.895832,82,80,0
39.9,39.995834,77,80,0
40.0,40.095833,81,80,0
40.1,40.195835,76,80,0
40.2,40.295834,73,80,0
40.3,40.395832,79,80,0
40.4,40.495834,77,80,0
40.5,40.595833,74,80,0
40.6,40.695835,70,80,0
40.7,40.795834,76,80,0
40.8,40.895832,69,80,0
40.9,40.995834,74,80,0
41.0,41.095833,68,80,0
41.1,41.195835,74,80,0
41.2,41.295834,67,80,0
41.3,41.395832,74,80,0
41.4,41.495834,73,80,0
41.5,41.595833,79,80,0
41.6,41.695835,77,80,0
41.7,41.795834,74,80,0
41.8,41.895832,81,80,0
41.9,41.995834,72,80,0
42.0,42.095833,74,80,0
42.1,42.195835,70,80,0
42.2,42.295834,77,80,0
42.3,42.395832,69,80,0
42.4,42.495834,70,80,0
42.5,42.595833,67,80,0
42.6,42.695835,74,80,0
42.7,42.795834,65,80,0
42.8,42.895832,67,80,0
42.9,42.995834,63,80,0
43.0,43.095833,70,80,0
43.1,43.195835,58,80,0
43.2,43.295834,69,80,0
43.3,43.395832,64,81,0
43.4,43.495834,61,82,0
43.5,43.595833,67,83,0
43.6,43.695835,65,85,0
43.7,43.795834,62,86,0
43.8,43.895832,58,87,0
43.9,43.995834,64,89,0
44.0,44.095833,62,90,0
44.1,44.195835,57,91,0
44.2,44.295834,56,93,0
44.3,44.395832,62,94,0
44.4,44.495834,55,95,0
44.5,44.595833,62,97,0
44.6,44.695835,55,98,0
44.7,44.795834,61,99,0
44.8,44.895832,48,110,0
44.9,44.995834,51,110,0
45.0,45.095833,54,110,0
45.1,45.195835,60,110,0
45.2,45.295834,59,110,0
45.3,45.395832,60,110,0
45.4,45.495834,51,110,0
45.5,45.595833,54,110,0
45.6,45.695835,51,110,0
45.7,45.795834,55,110,0
45.8,45.895832,60,110,0
45.9,45.995834,63,110,0
46.0,46.095833,62,110,0
46.1,46.195835,63,110,0
46.2,46.295834,55,110,0
46.3,46.395832,60,110,0
46.4,46.495834,57,110,0
46.5,46.595833,60,110,0
46.6,46.695835,63,110,0
46.7,46.795834,69,110,0
46.8,46.895832,68,110,0
46.9,46.995834,69,110,0
47.0,47.095833,60,110,0
47.1,47.195835,63,110,0
47.2,47.295834,60,110,0
47.3,47.395832,63,110,0
47.4,47.495834,69,110,0
47.5,47.595833,72,110,0
47.6,47.695835,71,110,0
47.7,47.795834,72,110,0
47.8,47.895832,64,110,0
47.9,47.995834,69,110,0
48.0,48.095833,64,110,0
48.1,48.195835,69,110,0
48.2,48.295834,72,110,0
48.3,48.395832,76,110,0
48.4,48.495834,75,110,0
48.5,48.595833,76,110,0
48.6,48.695835,69,110,0
48.7,48.795834,72,110,0
48.8,48.895832,66,110,0
48.9,48.995834,69,110,0
49.0,49.095833,72,110,0
49.1,49.195835,78,110,0
49.2,49.295834,77,110,0
49.3,49.395832,78,110,0
49.4,49.495834,69,110,0
49.5,49.595833,72,110,0
49.6,49.695835,69,110,0
49.7,49.795834,72,110,0
49.8,49.895832,78,110,0
49.9,49.995834,81,110,0
50.0,50.095833,80,110,0
50.1,50.195835,81,110,0
50.2,50.295834,72,110,0
50.3,50.395832,78,110,0
50.4,50.495834,72,110,0
50.5,50.595833,78,110,0
50.6,50.695835,81,110,0
50.7,50.795834,84,110,0
50.8,50.90268,83,110,0
50.907143,51.009823,84,110,0
51.014286,51.13408,78,110,0
51.139286,51.25908,81,110,0
51.264286,51.50908,83,110,0
51.264286,51.50908,79,110,0
51.264286,51.50908,74,110,0
51.264286,51.50908,71,110,0
51.714287,51.91012,74,110,0
51.714287,51.91012,62,110,0
51.914284,52.31012,62,110,0
51.914284,52.31012,74,110,0
52.314285,52.710117,74,110,0
52.314285,52.710117,62,110,0
52.714287,52.91012,74,110,0
52.714287,52.91012,62,110,0
52.914284,53.01012,55,80,0
53.014286,53.11012,59,80,0
53.114285,53.210117,62,80,0
53.214287,53.31012,67,80,0
53.314285,53.41012,57,80,0
53.414284,53.51012,66,80,0
53.514286,53.61012,59,80,0
53.614285,53.710117,67,80,0
53.714287,53.81012,60,80,0
53.814285,53.91012,69,80,0
53.914284,54.01012,62,80,0
54.014286,54.11012,71,80,0
54.114285,54.210117,64,80,0
54.214287,54.31012,72,80,0
54.314285,54.41012,66,80,0
54.414284,54.51012,74,80,0
54.514286,54.61012,71,110,0
54.614285,54.710117,67,110,0
54.714287,55.11012,74,121,0
55.114285,55.51012,74,110,0
55.114285,55.51012,86,110,0
55.514286,55.91012,86,110,0
55.514286,55.91012,74,110,0
55.914284,56.11012,86,110,0
55.914284,56.11012,74,110,0
56.114285,56.210117,67,80,0
56.214287,56.31012,71,80,0
56.314285,56.41012,74,80,0
56.414284,56.51012,79,80,0
56.514286,56.61012,68,80,0
56.614285,56.710117,77,80,0
56.714287,56.81012,67,80,0
56.814285,56.91012,75,80,0
56.914284,57.01012,65,80,0
57.014286,57.11012,74,80,0
57.114285,57.210117,63,80,0
57.214287,57.31012,72,80,0
57.314285,57.41012,62,80,0
57.414284,57.51012,72,80,0
57.514286,57.61012,62,80,0
57.614285,57.710117,71,80,0
57.714287,57.91012,72,110,0
57.714287,57.91012,67,110,0
57.714287,57.91012,63,110,0
57.714287,57.91012,60,110,0
58.114285,58.31012,67,110,0
58.314285,58.710117,67,110,0
58.714287,59.11012,67,110,0
59.114285,59.31012,67,110,0
59.314285,59.41012,60,100,0
59.414284,59.51012,63,94,0
59.514286,59.61012,67,87,0
59.614285,59.710117,72,81,0
59.714287,59.81012,62,80,0
59.814285,59.91012,71,80,0
59.914284,60.01012,63,80,0
60.014286,60.11012,72,80,0
60.114285,60.210117,65,80,0
60.214287,60.31012,74,80,0
60.314285,60.41012,67,80,0
60.414284,60.51012,75,80,0
60.514286,60.61012,69,80,0
60.614285,60.710117,77,80,0
60.714287,60.81012,71,80,0
60.814285,60.91012,79,80,0
60.914284,61.01012,75,110,0
61.014286,61.11012,72,110,0
61.114285,61.51012,79,110,0
61.514286,61.91012,67,110,0
61.514286,61.91012,79,110,0
61.914284,62.31012,79,110,0
61.914284,62.31012,67,110,0
62.314285,62.51012,79,110,0
62.514286,62.61012,72,110,0
62.614285,62.710117,76,110,0
62.714287,62.81012,79,110,0
62.814285,62.91012,84,110,0
62.914284,63.01012,73,110,0
63.014286,63.11012,82,110,0
63.114285,63.210117,72,110,0
63.214287,63.31012,80,110,0
63.314285,63.41012,70,110,0
63.414284,63.51012,79,110,0
63.514286,63.61012,68,110,0
63.614285,63.710117,77,110,0
63.714287,63.81012,67,110,0
63.814285,63.91012,76,110,0
63.914284,64.01012,76,110,0
64.01428,64.110115,79,110,0
64.11429,64.21012,80,110,0
64.21429,64.31012,77,110,0
64.314285,64.41012,84,110,0
64.41428,64.51012,75,110,0
64.51428,64.610115,77,110,0
64.61429,64.71012,73,110,0
64.71429,64.81012,80,110,0
64.814285,64.91012,72,110,0
64.91428,65.01012,73,110,0
65.01428,65.110115,70,110,0
65.11429,65.21012,77,110,0
65.21429,65.31012,68,110,0
65.314285,65.41012,70,110,0
65.41428,65.51012,66,110,0
65.51428,65.610115,73,110,0
65.61429,65.71012,65,110,0
65.71429,65.81012,66,110,0
65.814285,65.91012,63,110,0
65.91428,66.01012,70,111,0
66.01428,66.110115,58,111,0
66.11429,66.21012,68,112,0
66.21429,66.31012,63,113,0
66.314285,66.41012,60,113,0
66.41428,66.51012,66,114,0
66.51428,66.610115,65,115,0
66.61429,66.71012,61,115,0
66.71429,66.81012,58,116,0
66.814285,66.91012,63,117,0
66.91428,67.01012,61,117,0
67.01428,67.110115,56,118,0
67.11429,67.21012,54,119,0
67.21429,67.31012,60,119,0
67.314285,67.41012,53,120,0
67.41428,67.51012,60,119,0
67.51428,67.610115,53,118,0
67.61429,67.71012,59,116,0
67.71429,67.81012,53,115,0
67.814285,67.91012,59,113,0
67.91428,68.01012,53,112,0
68.01428,68.110115,59,111,0
68.11429,68.21012,53,80,0
68.21429,68.31012,59,80,0
68.314285,68.41012,53,80,0
68.41428,68.51012,59,80,0
68.51428,68.610115,53,80,0
68.61429,68.71012,59,80,0
68.71429,68.81012,53,80,0
68.814285,68.91012,59,80,0
68.91428,69.01012,53,110,0
69.01428,69.110115,58,110,0
69.11429,69.21012,52,110,0
69.21429,69.31012,58,110,0
69.314285,69.41012,52,110,0
69.41428,69.51012,58,110,0
69.51428,69.610115,52,110,0
69.61429,69.71012,58,110,0
69.71429,69.81012,51,80,0
69.814285,69.91012,58,80,0
69.91428,70.01012,51,80,0
70.01428,70.110115,58,80,0
70.11429,70.21012,51,80,0
70.21429,70.31012,58,80,0
70.314285,70.41012,51,80,0
70.41428,70.51012,58,80,0
70.51428,70.610115,51,80,0
70.61429,70.71012,58,80,0
70.71429,70.81012,51,80,0
70.814285,70.91012,57,80,0
70.91428,71.01012,56,80,0
71.01428,71.110115,63,80,0
71.11429,71.21012,56,80,0
71.21429,71.31012,63,80,0
71.314285,71.41012,56,80,0
71.41428,71.51012,63,80,0
71.51428,71.610115,56,80,0
71.61429,71.71012,62,80,0
71.71429,71.81012,49,80,0
71.814285,71.91012,56,80,0
71.91428,72.01012,49,80,0
72.01428,72.110115,56,80,0
72.11429,72.21012,50,80,0
72.21429,72.31012,56,80,0
72.314285,72.41012,50,80,0
72.41428,72.51012,55,80,0
72.51428,72.610115,54,80,0
72.61429,72.71012,62,80,0
72.71429,72.81012,54,80,0
72.814285,72.91012,62,80,0
72.91428,73.01012,54,80,0
73.01428,73.110115,62,80,0
73.11429,73.21012,54,80,0
73.21429,73.31012,60,80,0
73.314285,73.41012,48,80,0
73.41428,73.51012,54,80,0
73.51428,73.610115,48,80,0
73.61429,73.71012,54,80,0
73.71429,73.81012,48,80,0
73.814285,73.91012,54,80,0
73.91428,74.01012,50,80,0
74.01428,74.110115,52,80,0
74.11429,74.21012,52,110,0
74.21429,74.31012,61,110,0
74.314285,74.41012,52,110,0
74.41428,74.51012,61,110,0
74.51428,74.610115,52,110,0
74.61429,74.71012,61,110,0
74.71429,74.81012,52,110,0
74.814285,74.91012,61,110,0
74.91428,75.01012,50,110,0
75.01428,75.110115,55,110,0
75.11429,75.21012,50,110,0
75.21429,75.31012,55,110,0
75.314285,75.41012,48,110,0
75.314285,75.41012,56,110,0
75.41428,75.51012,60,104,0
75.51428,75.610115,63,97,0
75.61429,75.71012,68,91,0
75.71429,75.81012,61,80,0
75.814285,75.91012,67,80,0
75.91428,76.01012,60,80,0
76.01428,76.110115,68,80,0
76.11429,76.21012,56,80,0
76.21429,76.31012,60,80,0
76.314285,76.41012,63,80,0
76.41428,76.51012,68,80,0
76.51428,76.610115,61,80,0
76.61429,76.71012,67,80,0
76.71429,76.81012,60,80,0
76.814285,76.91012,68,80,0
76.91428,77.01012,56,80,0
77.01428,77.110115,60,80,0
77.11429,77.21012,63,80,0
77.21429,77.31012,68,80,0
77.314285,77.41012,61,80,0
77.41428,77.51012,67,80,0
77.51428,77.610115,60,80,0
77.61429,77.71012,68,80,0
77.71429,77.81012,61,80,0
77.814285,77.91012,67,80,0
77.91428,78.01012,60,80,0
78.01428,78.110115,68,80,0
78.11429,78.21012,63,80,0
78.21429,78.31012,68,80,0
78.314285,78.41012,66,80,0
78.41428,78.51012,68,80,0
78.51428,78.610115,61,80,0
78.61429,78.71012,65,80,0
78.71429,78.81012,68,80,0
78.814285,78.91012,73,80,0
78.91428,79.01012,66,80,0
79.01428,79.110115,72,80,0
79.11429,79.21012,65,80,0
79.21429,79.31012,73,80,0
79.314285,79.41012,61,80,0
79.41428,79.51012,65,80,0
79.51428,79.610115,68,80,0
79.61429,79.71012,73,80,0
79.71429,79.81012,66,80,0
79.814285,79.91012,72,80,0
79.91428,80.01012,65,80,0
80.01428,80.110115,73,80,0
80.11429,80.21012,61,80,0
80.21429,80.31012,65,80,0
80.314285,80.41012,68,80,0
80.41428,80.51012,73,80,0
80.51428,80.610115,66,80,0
80.61429,80.71012,72,80,0
80.71429,80.81012,65,80,0
80.814285,80.91012,73,80,0
80.91428,81.01012,66,80,0
81.01428,81.110115,72,80,0
81.11429,81.21012,65,80,0
81.21429,81.31012,73,80,0
81.314285,81.41012,63,80,0
81.41428,81.51012,68,80,0
81.51428,81.610115,63,80,0
81.61429,81.71012,66,80,0
81.71429,81.81012,56,80,0
81.814285,81.91012,60,80,0
81.91428,82.01012,63,80,0
82.01428,82.110115,68,80,0
82.11429,82.21012,61,80,0
82.21429,82.31012,67,80,0
82.314285,82.41012,60,80,0
82.41428,82.51012,68,80,0
82.51428,82.610115,56,80,0
82.61429,82.71012,60,80,0
82.71429,82.81012,63,80,0
82.814285,82.91012,68,80,0
82.91428,83.01012,61,80,0
83.01428,83.110115,67,80,0
83.11429,83.21012,60,80,0
83.21429,83.31012,68,80,0
83.314285,83.41012,56,80,0
83.41428,83.51012,60,80,0
83.51428,83.610115,63,80,0
83.61429,83.71012,68,80,0
83.71429,83.81012,61,80,0
83.814285,83.91012,67,80,0
83.91428,84.01012,60,80,0
84.01428,84.110115,68,80,0
84.11429,84.21012,61,80,0
84.21429,84.31012,67,80,0
84.314285,84.41012,60,80,0
84.41428,84.51012,68,80,0
84.51428,84.610115,63,80,0
84.61429,84.71012,68,80,0
84.71429,84.81012,66,80,0
84.814285,84.91012,68,80,0
84.91428,85.01012,66,80,0
85.01428,85.110115,72,80,0
85.11429,85.21012,65,80,0
85.21429,85.31012,73,80,0
85.314285,85.41012,68,80,0
85.41428,85.51012,73,80,0
85.51428,85.610115,71,80,0
85.61429,85.71012,73,80,0
85.71429,85.81012,71,80,0
85.814285,85.91012,76,80,0
85.91428,86.01012,70,80,0
86.01428,86.110115,76,80,0
86.11429,86.21012,73,80,0
86.21429,86.31012,76,80,0
86.314285,86.41012,66,80,0
86.41428,86.51012,76,80,0
86.51428,86.610115,76,80,0
86.61429,86.71012,81,80,0
86.71429,86.81012,75,80,0
86.814285,86.91012,81,80,0
86.91428,87.01012,78,80,0
87.01428,87.110115,81,80,0
87.11429,87.21012,71,80,0
87.21429,87.31012,81,80,0
87.314285,87.41012,81,80,0
87.41428,87.51012,86,80,0
87.51428,87.610115,80,80,0
87.61429,87.71012,86,80,0
87.71429,87.81012,83,80,0
87.814285,87.91012,86,80,0
87.91428,88.01012,76,80,0
88.01428,88.110115,84,80,0
88.11429,88.21012,74,80,0
88.21429,88.31012,79,80,0
88.314285,88.41012,73,80,0
88.41428,88.51012,79,80,0
88.51428,88.610115,76,80,0
88.61429,88.71012,79,80,0
88.71429,88.81012,69,80,0
88.814285,88.91012,79,80,0
88.91428,89.01012,79,80,0
89.01428,89.110115,84,80,0
89.11429,89.21012,78,80,0
89.21429,89.31012,84,80,0
89.314285,89.41012,81,80,0
89.41428,89.51012,84,80,0
89.51428,89.610115,74,80,0
89.61429,89.71012,84,80,0
89.71429,89.81012,72,80,0
89.814285,89.91012,77,80,0
89.91428,90.01012,71,80,0
90.01428,90.110115,77,80,0
90.11429,90.21012,74,80,0
90.21429,90.31012,77,80,0
90.314285,90.41012,67,80,0
90.41428,90.51012,77,80,0
90.51428,90.610115,77,80,0
90.61429,90.71012,82,80,0
90.71429,90.81012,76,80,0
90.814285,90.91012,82,80,0
90.91428,91.01012,79,80,0
91.01428,91.110115,82,80,0
91.11429,91.21012,73,80,0
91.21429,91.31012,82,80,0
91.314285,91.41012,72,80,0
91.41428,91.51012,81,81,0
91.51428,91.610115,79,82,0
91.61429,91.71012,70,83,0
91.71429,91.81012,69,85,0
91.814285,91.91012,77,86,0
91.91428,92.01012,76,87,0
92.01428,92.110115,67,89,0
92.11429,92.21012,65,90,0
92.21429,92.31012,74,91,0
92.314285,92.41012,72,93,0
92.41428,92.51012,63,94,0
92.51428,92.610115,62,95,0
92.61429,92.71012,70,96,0
92.71429,92.81012,60,98,0
92.814285,92.91012,69,99,0
92.91428,93.01012,62,100,0
93.01428,93.110115,67,102,0
93.11429,93.21012,55,103,0
93.21429,93.31012,65,104,0
93.314285,93.41012,55,106,0
93.41428,93.51012,64,107,0
93.51428,93.610115,53,108,0
93.61429,93.71012,59,109,0
93.71429,93.91012,60,110,0
93.71429,93.91012,52,110,0
94.11429,94.31012,67,110,0
94.314285,94.71012,67,110,0
94.71429,95.110115,67,110,0
95.11429,95.31012,67,110,0
95.314285,95.41012,60,100,0
95.41428,95.51012,64,94,0
95.51428,95.610115,67,87,0
95.61429,95.71012,72,81,0
95.71429,95.81012,62,80,0
95.814285,95.91012,71,80,0
95.91428,96.01012,64,80,0
96.01428,96.110115,72,80,0
96.11429,96.21012,65,80,0
96.21429,96.31012,74,80,0
96.314285,96.41012,67,80,0
96.41428,96.51012,76,80,0
96.51428,96.610115,69,80,0
96.61429,96.71012,77,80,0
96.71429,96.81012,71,80,0
96.814285,96.91012,79,80,0
96.91428,97.01012,76,110,0
97.01428,97.110115,72,110,0
97.11429,97.51012,79,110,0
97.51428,97.91012,79,110,0
97.91428,98.31012,79,110,0
98.314285,98.51012,79,110,0
98.51428,98.610115,67,100,0
98.61429,98.71012,76,94,0
98.71429,98.81012,69,87,0
98.814285,98.91012,77,81,0
98.91428,99.01012,65,80,0
99.01428,99.110115,74,80,0
99.11429,99.21012,67,80,0
99.21429,99.31012,76,80,0
99.314285,99.41012,64,80,0
99.41428,99.51012,72,80,0
100.11429,100.21012,76,80,0
100.21429,100.31012,79,80,0
100.314285,100.41012,77,80,0
100.41428,100.51012,81,80,0
100.51428,100.610115,74,80,0
100.61429,100.71012,77,80,0
100.71429,100.81012,76,80,0
100.814285,100.91012,79,80,0
100.91428,101.01012,72,80,0
101.01428,101.110115,76,80,0
101.71429,101.81012,82,80,0
101.814285,101.91012,79,80,0
101.91428,102.01012,84,80,0
102.01428,102.110115,81,80,0
102.11429,102.21012,81,80,0
102.21429,102.31012,77,80,0
102.314285,102.41012,82,80,0
102.41428,102.51012,79,80,0
102.51428,102.610115,79,80,0
102.61429,102.71012,76,80,0
102.71429,102.81012,81,80,0
102.814285,102.91012,77,80,0
102.91428,103.01012,77,80,0
103.01428,103.110115,74,80,0
103.11429,103.21012,79,80,0
103.21429,103.31012,76,80,0
103.314285,103.41012,76,80,0
103.41428,103.51012,72,80,0
103.51428,103.610115,77,81,0
103.61429,103.71012,74,82,0
103.71429,103.81012,74,83,0
103.814285,103.91012,70,84,0
103.91428,104.01012,76,85,0
104.01428,104.110115,72,86,0
104.11429,104.21012,72,86,0
104.21429,104.31012,69,87,0
104.314285,104.41012,74,88,0
104.41428,104.51012,70,89,0
104.51428,104.610115,70,90,0
104.61429,104.71012,67,91,0
104.71429,104.81012,72,92,0
104.814285,104.91012,69,93,0
104.91428,105.01012,69,93,0
105.01428,105.110115,65,94,0
105.11429,105.21012,70,95,0
105.21429,105.31012,67,96,0
105.314285,105.41012,72,97,0
105.41428,105.51012,69,98,0
105.51428,105.610115,74,99,0
105.61429,105.71012,70,99,0
105.71429,105.81012,72,100,0
105.814285,105.91012,69,98,0
105.91428,106.01012,70,95,0
106.01428,106.110115,67,92,0
106.11429,106.216965,69,89,0
106.22143,106.324104,65,86,0
106.32857,106.448364,67,83,0
106.45357,106.573364,60,81,0
106.57857,106.698364,53,80,0
106.70357,106.823364,57,80,0
106.82857,106.92441,60,81,0
106.92857,107.02441,65,82,0
107.02857,107.124405,55,83,0
107.12857,107.2244,64,84,0
107.22857,107.3244,57,85,0
107.32857,107.42441,65,86,0
107.42857,107.52441,58,87,0
107.52857,107.624405,67,88,0
107.62857,107.7244,60,89,0
107.72857,107.8244,69,90,0
107.82857,107.92441,62,91,0
107.92857,108.02441,70,92,0
108.02857,108.124405,64,93,0
108.12857,108.2244,72,94,0
108.22857,108.3244,65,95,0
108.32857,108.42441,69,96,0
108.42857,108.52441,72,97,0
108.52857,108.624405,77,98,0
108.62857,108.7244,67,99,0
108.72857,108.8244,76,100,0
108.82857,108.92441,69,101,0
108.92857,109.02441,77,102,0
109.02857,109.124405,70,103,0
109.12857,109.2244,79,104,0
109.22857,109.3244,72,105,0
109.32857,109.42441,81,106,0
109.42857,109.52441,74,107,0
109.52857,109.624405,82,108,0
109.62857,109.7244,76,108,0
109.72857,109.8244,84,109,0
109.82857,109.92441,81,110,0
109.92857,110.02441,77,110,0
110.02857,110.124405,84,110,0
110.12857,110.2244,72,110,0
110.22857,110.3244,84,110,0
110.32857,110.42441,72,110,0
110.42857,110.52441,84,110,0
110.52857,110.624405,72,110,0
110.62857,110.7244,84,110,0
110.72857,110.8244,72,110,0
110.82857,110.92441,84,110,0
110.92857,111.02441,72,110,0
111.02857,111.124405,84,110,0
111.12857,111.2244,72,110,0
111.22857,111.3244,84,110,0
111.32857,111.42441,72,110,0
111.42857,111.52441,69,110,0
111.52857,111.624405,72,110,0
111.62857,111.7244,77,110,0
111.72857,111.8244,81,110,0
111.82857,111.92441,72,110,0
111.92857,112.02441,81,110,0
112.02857,112.124405,74,110,0
112.12857,112.2244,82,110,0
112.22857,112.3244,75,110,0
112.32857,112.42441,84,110,0
112.42857,112.52441,77,110,0
112.52857,112.624405,86,110,0
112.62857,112.7244,84,110,0
112.72857,112.8244,87,110,0
112.82857,112.92441,81,110,0
112.92857,113.02441,89,110,0
113.02857,113.124405,86,100,0
113.12857,113.2244,82,94,0
113.22857,113.3244,89,87,0
113.32857,113.42441,81,81,0
113.42857,113.52441,82,80,0
113.52857,113.624405,79,80,0
113.62857,113.7244,86,80,0
113.72857,113.8244,77,80,0
113.82857,113.92441,79,80,0
113.92857,114.02441,75,80,0
114.02857,114.124405,82,80,0
114.12857,114.2244,74,80,0
114.22857,114.3244,75,80,0
114.32857,114.42441,72,80,0
114.42857,114.52441,79,80,0
114.52857,114.624405,70,80,0
114.62857,114.7244,77,80,0
114.72857,114.8244,72,81,0
114.82857,114.92441,69,83,0
114.92857,115.02441,75,85,0
115.02857,115.124405,74,87,0
115.12857,115.2244,70,89,0
115.22857,115.3244,67,91,0
115.32857,115.42441,72,93,0
115.42857,115.52441,65,95,0
115.42857,115.52441,62,95,0
115.52857,115.624405,72,97,0
115.62857,115.7244,65,99,0
115.62857,115.7244,61,99,0
115.72857,115.8244,70,101,0
115.82857,115.92441,63,103,0
115.82857,115.92441,60,103,0
115.92857,116.02441,70,105,0
116.02857,116.124405,63,107,0
116.02857,116.124405,60,107,0
116.12857,116.2244,69,109,0
116.22857,116.3244,73,80,0
116.32857,116.42441,70,80,0
116.42857,116.52441,77,80,0
116.52857,116.624405,68,80,0
116.62857,116.7244,70,80,0
116.72857,116.8244,66,80,0
116.82857,116.92441,73,80,0
116.92857,117.02441,65,80,0
117.02857,117.124405,66,80,0
117.12857,117.2244,63,80,0
117.22857,117.3244,70,80,0
117.32857,117.42441,61,80,0
117.42857,117.52441,68,80,0
117.52857,117.624405,63,80,0
117.62857,117.7244,60,80,0
117.72857,117.8244,66,80,0
117.82857,117.92441,65,80,0
117.92857,118.02441,56,84,0
118.02857,118.124405,54,88,0
118.02857,118.124405,58,88,0
118.12857,118.2244,63,92,0
118.22857,118.3244,56,97,0
118.22857,118.3244,53,97,0
118.32857,118.42441,61,101,0
118.42857,118.52441,54,105,0
118.42857,118.52441,51,105,0
118.52857,118.624405,60,109,0
118.62857,118.7244,53,110,0
118.72857,118.8244,59,110,0
118.82857,118.92441,53,110,0
118.92857,119.02441,55,110,0
119.02857,119.124405,56,110,0
119.12857,119.2244,55,110,0
119.22857,119.3244,56,110,0
119.32857,119.42441,53,110,0
119.52857,119.624405,59,110,0
119.62857,119.7244,53,110,0
119.72857,119.8244,55,110,0
119.82857,119.92441,56,110,0
119.92857,120.02441,55,110,0
120.02857,120.124405,56,110,0
120.12857,120.2244,53,110,0
120.32857,120.42441,60,110,0
120.42857,120.52441,53,110,0
120.52857,120.624405,55,110,0
120.62857,120.7244,56,110,0
120.72857,120.8244,55,110,0
120.82857,120.92441,56,110,0
120.92857,121.02441,53,110,0
121.12857,121.2244,53,110,0
121.22857,121.3244,56,110,0
121.32857,121.42441,62,110,0
121.52857,121.624405,53,110,0
121.62857,121.7244,56,110,0
121.72857,121.8244,62,110,0
121.82857,121.92441,48,100,0
121.92857,122.02441,52,94,0
122.02857,122.124405,55,87,0
122.12857,122.2244,60,81,0
122.22857,122.3244,49,80,0
122.32857,122.42441,59,80,0
122.42857,122.52441,48,80,0
122.52857,122.624405,60,80,0
122.62857,122.7244,60,80,0
122.72857,122.8244,64,80,0
122.82857,122.92441,67,80,0
122.92857,123.02441,72,80,0
123.02857,123.124405,61,80,0
123.12857,123.2244,71,80,0
123.22857,123.3244,60,80,0
123.32857,123.42441,72,80,0
123.42857,123.52441,72,80,0
123.52857,123.624405,76,80,0
123.62857,123.7244,79,80,0
123.72857,123.8244,84,80,0
123.82857,123.92441,73,80,0
123.92857,124.02441,83,80,0
124.02857,124.124405,72,80,0
124.12857,124.2244,84,80,0
124.22857,124.3244,73,80,0
124.32857,124.42441,83,80,0
124.42857,124.52441,72,80,0
124.52857,124.624405,84,80,0
124.62857,124.7244,71,80,0
124.72857,124.8244,81,80,0
124.82857,124.92441,70,80,0
124.92857,125.02441,82,80,0
125.02857,125.124405,46,80,0
125.12857,125.2244,50,80,0
125.22857,125.3244,53,80,0
125.32857,125.42441,58,80,0
125.42857,125.52441,47,80,0
125.52857,125.624405,57,80,0
125.62857,125.7244,46,80,0
125.72857,125.8244,58,80,0
125.82857,125.92441,58,80,0
125.92857,126.02441,62,80,0
126.02857,126.124405,65,80,0
126.12857,126.2244,70,80,0
126.22857,126.3244,59,80,0
126.32857,126.42441,69,80,0
126.42857,126.52441,58,80,0
126.52857,126.624405,70,80,0
126.62857,126.7244,70,80,0
126.72857,126.8244,74,80,0
126.82857,126.92441,77,80,0
126.92857,127.02441,82,80,0
127.02857,127.124405,71,80,0
127.12857,127.2244,81,80,0
127.22857,127.3244,70,80,0
127.32857,127.42441,82,80,0
127.42857,127.52441,71,80,0
127.52857,127.624405,81,80,0
127.62857,127.7244,70,80,0
127.72857,127.8244,82,80,0
127.82857,127.92441,69,80,0
127.92857,128.0244,79,80,0
128.02856,128.1244,68,80,0
128.12857,128.22441,80,80,0
128.22858,128.3244,44,80,0
128.32857,128.42441,48,80,0
128.42857,128.5244,51,80,0
128.52856,128.6244,56,80,0
128.62857,128.72441,45,80,0
128.72858,128.8244,55,80,0
128.82857,128.92441,44,80,0
128.92857,129.0244,56,80,0
129.02856,129.1244,56,80,0
129.12857,129.22441,60,80,0
129.22858,129.3244,63,80,0
129.32857,129.42441,68,80,0
129.42857,129.5244,57,80,0
129.52856,129.6244,67,80,0
129.62857,129.72441,56,80,0
129.72858,129.8244,68,80,0
129.82857,129.92441,68,80,0
129.92857,130.0244,72,81,0
130.02856,130.1244,75,82,0
130.12857,130.22441,80,83,0
130.22858,130.3244,69,85,0
130.32857,130.42441,79,86,0
130.42857,130.5244,68,87,0
130.52856,130.6244,80,89,0
130.62857,130.72441,69,90,0
130.72858,130.8244,79,91,0
130.82857,130.92441,68,93,0
130.92857,131.0244,80,94,0
131.02856,131.1244,68,95,0
131.12857,131.22441,77,96,0
131.22858,131.3244,68,98,0
131.32857,131.42441,77,99,0
131.42857,131.5244,68,100,0
131.52856,131.6244,77,102,0
131.62857,131.72441,66,103,0
131.72858,131.8244,78,104,0
131.82857,131.92441,68,106,0
131.92857,132.0244,77,107,0
132.02856,132.1244,66,108,0
132.12857,132.22441,78,109,0
132.22858,132.3244,68,110,0
132.32857,132.42441,77,110,0
132.42857,132.5244,66,110,0
132.52856,132.6244,78,110,0
132.62857,132.72441,66,110,0
132.72858,132.8244,75,110,0
132.82857,132.92441,66,110,0
132.92857,133.0244,75,110,0
133.02856,133.1244,66,110,0
133.12857,133.22441,75,110,0
133.22858,133.3244,65,110,0
133.32857,133.42441,77,110,0
133.42857,133.5244,65,110,0
133.52856,133.6244,74,110,0
133.62857,133.72441,63,110,0
133.72858,133.8244,75,110,0
133.82857,133.92441,63,110,0
133.92857,134.0244,72,110,0
134.02856,134.1244,61,110,0
134.12857,134.22441,73,110,0
134.22858,134.3244,61,110,0
134.32857,134.42441,70,110,0
134.42857,134.5244,59,110,0
134.52856,134.6244,71,110,0
134.62857,134.72441,60,110,0
134.72858,134.8244,69,110,0
134.82857,134.92441,58,110,0
134.92857,135.0244,70,110,0
135.02856,135.1244,65,120,0
135.12857,135.22441,70,120,0
135.22858,135.3244,65,120,0
135.32857,135.42441,70,120,0
135.42857,135.5244,65,120,0
135.52856,135.6244,71,120,0
135.62857,135.72441,65,120,0
135.72858,135.8244,71,120,0
135.82857,135.92441,59,120,0
135.92857,136.0244,65,120,0
136.02856,136.1244,59,120,0
136.12857,136.22441,65,120,0
136.32857,136.42441,64,80,0
136.32857,136.42441,58,80,0
136.32857,136.42441,55,80,0
136.52856,136.6244,64,80,0
136.52856,136.6244,58,80,0
136.52856,136.6244,55,80,0
136.72858,136.8244,64,80,0
136.72858,136.8244,58,80,0
136.72858,136.8244,55,80,0
136.92857,137.0244,64,80,0
136.92857,137.0244,58,80,0
136.92857,137.0244,55,80,0
137.12857,137.22441,65,80,0
137.12857,137.22441,57,80,0
137.32857,137.42441,65,80,0
137.32857,137.42441,57,80,0
137.52856,137.6244,65,80,0
137.52856,137.6244,57,80,0
137.72858,137.8244,65,80,0
137.72858,137.8244,57,80,0
137.92857,138.0244,67,80,0
137.92857,138.0244,64,80,0
137.92857,138.0244,58,80,0
138.12857,138.22441,67,80,0
138.12857,138.22441,64,80,0
138.12857,138.22441,58,80,0
138.32857,138.42441,67,80,0
138.32857,138.42441,64,80,0
138.32857,138.42441,58,80,0
138.52856,138.6244,67,80,0
138.52856,138.6244,64,80,0
138.52856,138.6244,58,80,0
138.72858,138.8244,65,80,0
138.72858,138.8244,56,80,0
138.92857,139.0244,65,80,0
138.92857,139.0244,56,80,0
139.12857,139.22441,65,80,0
139.12857,139.22441,56,80,0
139.32857,139.42441,65,80,0
139.32857,139.42441,56,80,0
139.52856,139.6244,64,80,0
139.52856,139.6244,55,80,0
139.52856,139.6244,58,80,0
139.72858,139.8244,64,80,0
139.72858,139.8244,55,80,0
139.92857,140.0244,64,80,0
139.92857,140.0244,55,80,0
140.12857,140.22441,64,80,0
140.12857,140.22441,55,80,0
140.32857,140.42441,64,80,0
140.32857,140.42441,55,80,0
140.52856,140.6244,64,80,0
140.52856,140.6244,55,80,0
140.72858,140.8244,64,80,0
140.72858,140.8244,55,80,0
140.92857,141.0244,64,80,0
140.92857,141.0244,55,80,0
141.12857,141.22441,64,80,0
141.12857,141.22441,55,80,0
141.32857,141.42441,64,80,0
141.32857,141.42441,55,80,0
141.52856,141.6244,64,80,0
141.52856,141.6244,55,80,0
141.72858,141.8244,64,80,0
141.72858,141.8244,55,80,0
141.92857,142.0244,64,80,0
141.92857,142.0244,55,80,0
142.12857,142.22441,64,80,0
142.12857,142.22441,55,80,0
142.32857,142.42441,64,80,0
142.32857,142.42441,55,80,0
142.52856,142.6244,64,80,0
142.52856,142.6244,55,80,0
142.62857,142.8244,64,80,0
142.62857,142.8244,55,80,0
142.82857,143.0244,64,80,0
142.82857,143.0244,55,80,0
143.02856,143.22441,64,80,0
143.02856,143.22441,55,80,0
143.22858,143.42441,64,80,0
143.22858,143.42441,55,80,0
143.42857,143.6244,64,80,0
143.42857,143.6244,55,80,0
143.62857,143.8244,64,80,0
143.62857,143.8244,55,80,0
143.82857,144.0244,64,80,0
143.82857,144.0244,55,80,0
144.02856,144.22441,64,80,0
144.02856,144.22441,55,80,0
144.22858,144.42441,64,80,0
144.22858,144.42441,61,80,0
145.82857,145.92441,57,80,0
145.92857,146.0244,61,80,0
146.02856,146.1244,64,80,0
146.12857,146.22441,69,80,0
146.22858,146.3244,59,80,0
146.32857,146.42441,68,80,0
146.42857,146.5244,61,80,0
146.52856,146.6244,69,80,0
146.62857,146.72441,62,80,0
146.72858,146.8244,71,80,0
146.82857,146.92441,64,80,0
146.92857,147.0244,73,80,0
147.02856,147.1244,66,80,0
147.12857,147.22441,74,80,0
147.22858,147.3244,68,80,0
147.32857,147.42441,76,80,0
147.42857,147.5244,73,80,0
147.52856,147.6244,69,80,0
147.62857,149.0244,76,101,0
149.12857,149.22441,73,80,0
149.22858,149.3244,76,80,0
149.32857,149.42441,81,80,0
149.42857,149.5244,71,80,0
149.52856,149.6244,80,80,0
149.62857,149.72441,73,80,0
149.72858,149.8244,81,80,0
149.82857,149.92441,74,80,0
149.92857,150.0244,83,80,0
150.02856,150.1244,76,80,0
150.12857,150.22441,85,80,0
150.22858,150.3244,81,80,0
150.32857,150.42441,86,80,0
150.42857,150.5244,81,80,0
150.52856,150.6244,88,80,0
150.62857,150.72441,89,80,0
150.72858,150.8244,81,80,0
150.82857,150.92441,88,80,0
150.92857,151.0244,84,80,0
151.02856,151.1244,86,80,0
151.12857,151.22441,77,80,0
151.22858,151.3244,84,80,0
151.32857,151.42441,81,80,0
151.42857,151.5244,82,80,0
151.52856,151.6244,74,80,0
151.62857,151.72441,81,80,0
151.72858,151.8244,77,80,0
151.82857,151.92441,79,80,0
151.92857,152.0244,70,80,0
152.02856,152.1244,82,80,0
152.12857,152.22441,77,80,0
152.22858,152.3244,81,80,0
152.32857,152.42441,76,80,0
152.42857,152.5244,73,80,0
152.52856,152.6244,79,80,0
152.62857,152.72441,77,80,0
152.72858,152.8244,74,80,0
152.82857,152.92441,70,80,0
152.92857,153.0244,76,80,0
153.02856,153.1244,69,80,0
153.12857,153.22441,74,80,0
153.22858,153.3244,68,80,0
153.32857,153.42441,74,80,0
153.42857,153.5244,67,80,0
153.52856,153.6244,74,80,0
153.62857,153.72441,73,80,0
153.72858,153.8244,79,80,0
153.82857,153.92441,77,80,0
153.92857,154.0244,74,80,0
154.02856,154.1244,81,80,0
154.12857,154.22441,72,80,0
154.22858,154.3244,74,80,0
154.32857,154.42441,70,80,0
154.42857,154.5244,77,80,0
154.52856,154.6244,69,80,0
154.62857,154.72441,70,80,0
154.72858,154.8244,67,80,0
154.82857,154.92441,74,80,0
154.92857,155.0244,65,80,0
155.02856,155.1244,67,80,0
155.12857,155.22441,63,80,0
155.22858,155.3244,70,80,0
155.32857,155.42441,58,80,0
155.42857,155.5244,69,80,0
155.52856,155.6244,64,81,0
155.62857,155.72441,61,82,0
155.72858,155.8244,67,83,0
155.82857,155.92441,65,85,0
155.92857,156.0244,62,86,0
156.02856,156.1244,58,87,0
156.12857,156.22441,64,89,0
156.22858,156.3244,62,90,0
156.32857,156.42441,57,91,0
156.42857,156.5244,56,93,0
156.52856,156.6244,62,94,0
156.62857,156.72441,55,95,0
156.72858,156.8244,62,97,0
156.82857,156.92441,55,98,0
156.92857,157.0244,61,99,0
157.02856,157.1244,48,110,0
157.12857,157.22441,51,110,0
157.22858,157.3244,54,110,0
157.32857,157.42441,60,110,0
157.42857,157.5244,59,110,0
157.52856,157.6244,60,110,0
157.62857,157.72441,51,110,0
157.72858,157.8244,54,110,0
157.82857,157.92441,51,110,0
157.92857,158.0244,55,110,0
158.02856,158.1244,60,110,0
158.12857,158.22441,63,110,0
158.22858,158.3244,62,110,0
158.32857,158.42441,63,110,0
158.42857,158.5244,55,110,0
158.52856,158.6244,60,110,0
158.62857,158.72441,57,110,0
158.72858,158.8244,60,110,0
158.82857,158.92441,63,110,0
158.92857,159.0244,69,110,0
159.02856,159.1244,68,110,0
159.12857,159.22441,69,110,0
159.22858,159.3244,60,110,0
159.32857,159.42441,63,110,0
159.42857,159.5244,60,110,0
159.52856,159.6244,63,110,0
159.62857,159.72441,69,110,0
159.72858,159.8244,72,110,0
159.82857,159.92441,71,110,0
159.92857,160.0244,72,110,0
160.02856,160.1244,64,110,0
160.12857,160.22441,69,110,0
160.22858,160.3244,64,110,0
160.32857,160.42441,69,110,0
160.42857,160.5244,72,110,0
160.52856,160.6244,76,110,0
160.62857,160.72441,75,110,0
160.72858,160.8244,76,110,0
160.82857,160.92441,69,110,0
160.92857,161.0244,72,110,0
161.02856,161.1244,66,110,0
161.12857,161.22441,69,110,0
161.22858,161.3244,72,110,0
161.32857,161.42441,78,110,0
161.42857,161.5244,77,110,0
161.52856,161.6244,78,110,0
161.62857,161.72441,69,110,0
161.72858,161.8244,72,110,0
161.82857,161.92441,69,110,0
161.92857,162.0244,72,110,0
162.02856,162.1244,78,110,0
162.12857,162.22441,81,110,0
162.22858,162.3244,80,110,0
162.32857,162.42441,81,110,0
162.42857,162.5244,72,110,0
162.52856,162.6244,78,110,0
162.62857,162.72441,72,110,0
162.72858,162.8244,78,110,0
162.82857,162.92441,81,110,0
162.92857,163.0244,84,110,0
163.02856,163.13126,83,110,0
163.13571,163.23839,84,110,0
163.24286,163.36266,78,110,0
163.36786,163.48766,81,110,0
163.49286,163.73766,83,110,0
163.49286,163.73766,79,110,0
163.49286,163.73766,74,110,0
163.49286,163.73766,71,110,0
163.94286,164.13869,74,110,0
163.94286,164.13869,62,110,0
164.14285,164.5387,62,110,0
164.14285,164.5387,74,110,0
164.54286,164.93869,74,110,0
164.54286,164.93869,62,110,0
164.94286,165.13869,74,110,0
164.94286,165.13869,62,110,0
165.14285,165.2387,55,80,0
165.24286,165.33868,59,80,0
165.34285,165.43869,62,80,0
165.44286,165.5387,67,80,0
165.54286,165.63869,57,80,0
165.64285,165.7387,66,80,0
165.74286,165.83868,59,80,0
165.84285,165.93869,67,80,0
165.94286,166.0387,60,80,0
166.04286,166.13869,69,80,0
166.14285,166.2387,62,80,0
166.24286,166.33868,71,80,0
166.34285,166.43869,64,80,0
166.44286,166.5387,72,80,0
166.54286,166.63869,66,80,0
166.64285,166.7387,74,80,0
166.74286,166.83868,71,110,0
166.84285,166.93869,67,110,0
166.94286,167.33868,74,121,0
167.34285,167.7387,74,110,0
167.34285,167.7387,86,110,0
167.74286,168.13869,86,110,0
167.74286,168.13869,74,110,0
168.14285,168.33868,86,110,0
168.14285,168.33868,74,110,0
168.34285,168.43869,67,80,0
168.44286,168.5387,71,80,0
168.54286,168.63869,74,80,0
168.64285,168.7387,79,80,0
168.74286,168.83868,68,80,0
168.84285,168.93869,77,80,0
168.94286,169.0387,67,80,0
169.04286,169.13869,75,80,0
169.14285,169.2387,65,80,0
169.24286,169.33868,74,80,0
169.34285,169.43869,63,80,0
169.44286,169.5387,72,80,0
169.54286,169.63869,62,80,0
169.64285,169.7387,72,80,0
169.74286,169.83868,62,80,0
169.84285,169.93869,71,80,0
169.94286,170.13869,72,110,0
169.94286,170.13869,67,110,0
169.94286,170.13869,63,110,0
169.94286,170.13869,60,110,0
170.34285,170.5387,67,110,0
170.54286,170.93869,67,110,0
170.94286,171.33868,67,110,0
171.34285,171.5387,67,110,0
171.54286,171.63869,60,100,0
171.64285,171.7387,63,94,0
171.74286,171.83868,67,87,0
171.84285,171.93869,72,81,0
171.94286,172.0387,62,80,0
172.04286,172.13869,71,80,0
172.14285,172.2387,63,80,0
172.24286,172.33868,72,80,0
172.34285,172.43869,65,80,0
172.44286,172.5387,74,80,0
172.54286,172.63869,67,80,0
172.64285,172.7387,75,80,0
172.74286,172.83868,69,80,0
172.84285,172.93869,77,80,0
172.94286,173.0387,71,80,0
173.04286,173.13869,79,80,0
173.14285,173.2387,75,110,0
173.24286,173.33868,72,110,0
173.34285,173.7387,79,110,0
173.74286,174.13869,67,110,0
173.74286,174.13869,79,110,0
174.14285,174.5387,79,110,0
174.14285,174.5387,67,110,0
174.54286,174.7387,79,110,0
174.74286,174.83868,72,110,0
174.84285,174.93869,76,110,0
174.94286,175.0387,79,110,0
175.04286,175.13869,84,110,0
175.14285,175.2387,73,110,0
175.24286,175.33868,82,110,0
175.34285,175.43869,72,110,0
175.44286,175.5387,80,110,0
175.54286,175.63869,70,110,0
175.64285,175.7387,79,110,0
175.74286,175.83868,68,110,0
175.84285,175.93869,77,110,0
175.94286,176.0387,67,110,0
176.04286,176.13869,76,110,0
176.14285,176.2387,76,110,0
176.24286,176.33868,79,110,0
176.34285,176.43869,80,110,0
176.44286,176.5387,77,110,0
176.54286,176.63869,84,110,0
176.64285,176.7387,75,110,0
176.74286,176.83868,77,110,0
176.84285,176.93869,73,110,0
176.94286,177.0387,80,110,0
177.04286,177.13869,72,110,0
177.14285,177.2387,73,110,0
177.24286,177.33868,70,110,0
177.34285,177.43869,77,110,0
177.44286,177.5387,68,110,0
177.54286,177.63869,70,110,0
177.64285,177.7387,66,110,0
177.74286,177.83868,73,110,0
177.84285,177.93869,65,110,0
177.94286,178.0387,66,110,0
178.04286,178.13869,63,110,0
178.14285,178.2387,70,111,0
178.24286,178.33868,58,111,0
178.34285,178.43869,68,112,0
178.44286,178.5387,63,113,0
178.54286,178.63869,60,113,0
178.64285,178.7387,66,114,0
178.74286,178.83868,65,115,0
178.84285,178.93869,61,115,0
178.94286,179.0387,58,116,0
179.04286,179.13869,63,117,0
179.14285,179.2387,61,117,0
179.24286,179.33868,56,118,0
179.34285,179.43869,54,119,0
179.44286,179.5387,60,119,0
179.54286,179.63869,53,120,0
179.64285,179.7387,60,119,0
179.74286,179.83868,53,118,0
179.84285,179.93869,59,116,0
179.94286,180.0387,53,115,0
180.04286,180.13869,59,113,0
180.14285,180.2387,53,112,0
180.24286,180.33868,59,111,0
180.34285,180.43869,53,80,0
180.44286,180.5387,59,80,0
180.54286,180.63869,53,80,0
180.64285,180.7387,59,80,0
180.74286,180.83868,53,80,0
180.84285,180.93869,59,80,0
180.94286,181.0387,53,80,0
181.04286,181.13869,59,80,0
181.14285,181.2387,53,110,0
181.24286,181.33868,58,110,0
181.34285,181.43869,52,110,0
181.44286,181.5387,58,110,0
181.54286,181.63869,52,110,0
181.64285,181.7387,58,110,0
181.74286,181.83868,52,110,0
181.84285,181.93869,58,110,0
181.94286,182.0387,51,80,0
182.04286,182.13869,58,80,0
182.14285,182.2387,51,80,0
182.24286,182.33868,58,80,0
182.34285,182.43869,51,80,0
182.44286,182.5387,58,80,0
182.54286,182.63869,51,80,0
182.64285,182.7387,58,80,0
182.74286,182.83868,51,80,0
182.84285,182.93869,58,80,0
182.94286,183.0387,51,80,0
183.04286,183.13869,57,80,0
183.14285,183.2387,56,80,0
183.24286,183.33868,63,80,0
183.34285,183.43869,56,80,0
183.44286,183.5387,63,80,0
183.54286,183.63869,56,80,0
183.64285,183.7387,63,80,0
183.74286,183.83868,56,80,0
183.84285,183.93869,62,80,0
183.94286,184.0387,49,80,0
184.04286,184.13869,56,80,0
184.14285,184.2387,49,80,0
184.24286,184.33868,56,80,0
184.34285,184.43869,50,80,0
184.44286,184.5387,56,80,0
184.54286,184.63869,50,80,0
184.64285,184.7387,55,80,0
184.74286,184.83868,54,80,0
184.84285,184.93869,62,80,0
184.94286,185.0387,54,80,0
185.04286,185.13869,62,80,0
185.14285,185.2387,54,80,0
185.24286,185.33868,62,80,0
185.34285,185.43869,54,80,0
185.44286,185.5387,60,80,0
185.54286,185.63869,48,80,0
185.64285,185.7387,54,80,0
185.74286,185.83868,48,80,0
185.84285,185.93869,54,80,0
185.94286,186.0387,48,80,0
186.04286,186.13869,54,80,0
186.14285,186.2387,50,80,0
186.24286,186.33868,52,80,0
186.34285,186.43869,52,110,0
186.44286,186.5387,61,110,0
186.54286,186.63869,52,110,0
186.64285,186.7387,61,110,0
186.74286,186.83868,52,110,0
186.84285,186.93869,61,110,0
186.94286,187.0387,52,110,0
187.04286,187.13869,61,110,0
187.14285,187.2387,50,110,0
187.24286,187.33868,55,110,0
187.34285,187.43869,50,110,0
187.44286,187.5387,55,110,0
187.54286,187.63869,48,110,0
187.54286,187.63869,56,110,0
187.64285,187.7387,60,104,0
187.74286,187.83868,63,97,0
187.84285,187.93869,68,91,0
187.94286,188.0387,61,80,0
188.04286,188.13869,67,80,0
188.14285,188.2387,60,80,0
188.24286,188.33868,68,80,0
188.34285,188.43869,56,80,0
188.44286,188.5387,60,80,0
188.54286,188.63869,63,80,0
188.64285,188.7387,68,80,0
188.74286,188.83868,61,80,0
188.84285,188.93869,67,80,0
188.94286,189.0387,60,80,0
189.04286,189.13869,68,80,0
189.14285,189.2387,56,80,0
189.24286,189.33868,60,80,0
189.34285,189.43869,63,80,0
189.44286,189.5387,68,80,0
189.54286,189.63869,61,80,0
189.64285,189.7387,67,80,0
189.74286,189.83868,60,80,0
189.84285,189.93869,68,80,0
189.94286,190.0387,61,80,0
190.04286,190.13869,67,80,0
190.14285,190.2387,60,80,0
190.24286,190.33868,68,80,0
190.34285,190.43869,63,80,0
190.44286,190.5387,68,80,0
190.54286,190.63869,66,80,0
190.64285,190.7387,68,80,0
190.74286,190.83868,61,80,0
190.84285,190.93869,65,80,0
190.94286,191.0387,68,80,0
191.04286,191.13869,73,80,0
191.14285,191.2387,66,80,0
191.24286,191.33868,72,80,0
191.34285,191.43869,65,80,0
191.44286,191.5387,73,80,0
191.54286,191.63869,61,80,0
191.64285,191.7387,65,80,0
191.74286,191.83868,68,80,0
191.84285,191.93869,73,80,0
191.94286,192.0387,66,80,0
192.04286,192.13869,72,80,0
192.14285,192.2387,65,80,0
192.24286,192.33868,73,80,0
192.34285,192.43869,61,80,0
192.44286,192.5387,65,80,0
192.54286,192.63869,68,80,0
192.64285,192.7387,73,80,0
192.74286,192.83868,66,80,0
192.84285,192.93869,72,80,0
192.94286,193.0387,65,80,0
193.04286,193.13869,73,80,0
193.14285,193.2387,66,80,0
193.24286,193.33868,72,80,0
193.34285,193.43869,65,80,0
193.44286,193.5387,73,80,0
193.54286,193.63869,63,80,0
193.64285,193.7387,68,80,0
193.74286,193.83868,63,80,0
193.84285,193.93869,66,80,0
193.94286,194.0387,56,80,0
194.04286,194.13869,60,80,0
194.14285,194.2387,63,80,0
194.24286,194.33868,68,80,0
194.34285,194.43869,61,80,0
194.44286,194.5387,67,80,0
194.54286,194.63869,60,80,0
194.64285,194.7387,68,80,0
194.74286,194.83868,56,80,0
194.84285,194.93869,60,80,0
194.94286,195.0387,63,80,0
195.04286,195.13869,68,80,0
195.14285,195.2387,61,80,0
195.24286,195.33868,67,80,0
195.34285,195.43869,60,80,0
195.44286,195.5387,68,80,0
195.54286,195.63869,56,80,0
195.64285,195.7387,60,80,0
195.74286,195.83868,63,80,0
195.84285,195.93869,68,80,0
195.94286,196.0387,61,80,0
196.04286,196.13869,67,80,0
196.14285,196.2387,60,80,0
196.24286,196.33868,68,80,0
196.34285,196.43869,61,80,0
196.44286,196.5387,67,80,0
196.54286,196.63869,60,80,0
196.64285,196.7387,68,80,0
196.74286,196.83868,63,80,0
196.84285,196.93869,68,80,0
196.94286,197.0387,66,80,0
197.04286,197.13869,68,80,0
197.14285,197.2387,66,80,0
197.24286,197.33868,72,80,0
197.34285,197.43869,65,80,0
197.44286,197.5387,73,80,0
197.54286,197.63869,68,80,0
197.64285,197.7387,73,80,0
197.74286,197.83868,71,80,0
197.84285,197.93869,73,80,0
197.94286,198.0387,71,80,0
198.04286,198.13869,76,80,0
198.14285,198.2387,70,80,0
198.24286,198.33868,76,80,0
198.34285,198.43869,73,80,0
198.44286,198.5387,76,80,0
198.54286,198.63869,66,80,0
198.64285,198.7387,76,80,0
198.74286,198.83868,76,80,0
198.84285,198.93869,81,80,0
198.94286,199.0387,75,80,0
199.04286,199.13869,81,80,0
199.14285,199.2387,78,80,0
199.24286,199.33868,81,80,0
199.34285,199.43869,71,80,0
199.44286,199.5387,81,80,0
199.54286,199.63869,81,80,0
199.64285,199.7387,86,80,0
199.74286,199.83868,80,80,0
199.84285,199.93869,86,80,0
199.94286,200.0387,83,80,0
200.04286,200.13869,86,80,0
200.14285,200.2387,76,80,0
200.24286,200.33868,84,80,0
200.34285,200.43869,74,80,0
200.44286,200.5387,79,80,0
200.54286,200.63869,73,80,0
200.64285,200.7387,79,80,0
200.74286,200.83868,76,80,0
200.84285,200.93869,79,80,0
200.94286,201.0387,69,80,0
201.04286,201.13869,79,80,0
201.14285,201.2387,79,80,0
201.24286,201.33868,84,80,0
201.34285,201.43869,78,80,0
201.44286,201.5387,84,80,0
201.54286,201.63869,81,80,0
201.64285,201.7387,84,80,0
201.74286,201.83868,74,80,0
201.84285,201.93869,84,80,0
201.94286,202.0387,72,80,0
202.04286,202.13869,77,80,0
202.14285,202.2387,71,80,0
202.24286,202.33868,77,80,0
202.34285,202.43869,74,80,0
202.44286,202.5387,77,80,0
202.54286,202.63869,67,80,0
202.64285,202.7387,77,80,0
202.74286,202.83868,77,80,0
202.84285,202.93869,82,80,0
202.94286,203.0387,76,80,0
203.04286,203.13869,82,80,0
203.14285,203.2387,79,80,0
203.24286,203.33868,82,80,0
203.34285,203.43869,73,80,0
203.44286,203.5387,82,80,0
203.54286,203.63869,72,80,0
203.64285,203.7387,81,81,0
203.74286,203.83868,79,82,0
203.84285,203.93869,70,83,0
203.94286,204.0387,69,85,0
204.04286,204.13869,77,86,0
204.14285,204.2387,76,87,0
204.24286,204.33868,67,89,0
204.34285,204.43869,65,90,0
204.44286,204.5387,74,91,0
204.54286,204.63869,72,93,0
204.64285,204.7387,63,94,0
204.74286,204.83868,62,95,0
204.84285,204.93869,70,96,0
204.94286,205.0387,60,98,0
205.04286,205.13869,69,99,0
205.14285,205.2387,62,100,0
205.24286,205.33868,67,102,0
205.34285,205.43869,55,103,0
205.44286,205.5387,65,104,0
205.54286,205.63869,55,106,0
205.64285,205.7387,64,107,0
205.74286,205.83868,53,108,0
205.84285,205.93869,59,109,0
205.94286,206.13869,60,110,0
205.94286,206.13869,52,110,0
206.34285,206.5387,67,110,0
206.54286,206.93869,67,110,0
206.94286,207.33868,67,110,0
207.34285,207.5387,67,110,0
207.54286,207.63869,60,100,0
207.64285,207.7387,64,94,0
207.74286,207.83868,67,87,0
207.84285,207.93869,72,81,0
207.94286,208.0387,62,80,0
208.04286,208.13869,71,80,0
208.14285,208.2387,64,80,0
208.24286,208.33868,72,80,0
208.34285,208.43869,65,80,0
208.44286,208.5387,74,80,0
208.54286,208.63869,67,80,0
208.64285,208.7387,76,80,0
208.74286,208.83868,69,80,0
208.84285,208.93869,77,80,0
208.94286,209.0387,71,80,0
209.04286,209.13869,79,80,0
209.14285,209.2387,76,110,0
209.24286,209.33868,72,110,0
209.34285,209.7387,79,110,0
209.74286,210.13869,79,110,0
210.14285,210.5387,79,110,0
210.54286,210.7387,79,110,0
210.74286,210.83868,67,100,0
210.84285,210.93869,76,94,0
210.94286,211.0387,69,87,0
211.04286,211.13869,77,81,0
211.14285,211.2387,65,80,0
211.24286,211.33868,74,80,0
211.34285,211.43869,67,80,0
211.44286,211.5387,76,80,0
211.54286,211.63869,64,80,0
211.64285,211.7387,72,80,0
212.34285,212.43869,76,80,0
212.44286,212.5387,79,80,0
212.54286,212.63869,77,80,0
212.64285,212.7387,81,80,0
212.74286,212.83868,74,80,0
212.84285,212.93869,77,80,0
212.94286,213.0387,76,80,0
213.04286,213.13869,79,80,0
213.14285,213.2387,72,80,0
213.24286,213.33868,76,80,0
213.94286,214.0387,82,80,0
214.04286,214.13869,79,80,0
214.14285,214.2387,84,80,0
214.24286,214.33868,81,80,0
214.34285,214.43869,81,80,0
214.44286,214.5387,77,80,0
214.54286,214.63869,82,80,0
214.64285,214.7387,79,80,0
214.74286,214.83868,79,80,0
214.84285,214.93869,76,80,0
214.94286,215.0387,81,80,0
215.04286,215.13869,77,80,0
215.14285,215.2387,77,80,0
215.24286,215.33868,74,80,0
215.34285,215.43869,79,80,0
215.44286,215.5387,76,80,0
215.54286,215.63869,76,80,0
215.64285,215.7387,72,80,0
215.74286,215.83868,77,81,0
215.84285,215.93869,74,82,0
215.94286,216.0387,74,83,0
216.04286,216.13869,70,84,0
216.14285,216.2387,76,85,0
216.24286,216.33868,72,86,0
216.34285,216.43869,72,86,0
216.44286,216.5387,69,87,0
216.54286,216.63869,74,88,0
216.64285,216.7387,70,89,0
216.74286,216.83868,70,90,0
216.84285,216.93869,67,91,0
216.94286,217.0387,72,92,0
217.04286,217.13869,69,93,0
217.14285,217.2387,69,93,0
217.24286,217.33868,65,94,0
217.34285,217.43869,70,95,0
217.44286,217.5387,67,96,0
217.54286,217.63869,72,97,0
217.64285,217.7387,69,98,0
217.74286,217.83868,74,99,0
217.84285,217.93869,70,99,0
217.94286,218.0387,72,100,0
218.04286,218.13869,69,98,0
218.14285,218.2387,70,95,0
218.24286,218.33868,67,92,0
218.34285,218.43869,69,89,0
218.44286,218.5387,65,86,0
218.54286,218.63869,67,83,0
218.64285,218.7387,60,81,0
218.74286,218.83868,53,80,0
218.84285,218.93869,57,80,0
218.94286,219.0387,60,81,0
219.04286,219.13869,65,82,0
219.14285,219.2387,55,83,0
219.24286,219.33868,64,84,0
219.34285,219.43869,57,85,0
219.44286,219.5387,65,86,0
219.54286,219.63869,58,87,0
219.64285,219.7387,67,88,0
219.74286,219.83868,60,89,0
219.84285,219.93869,69,90,0
219.94286,220.0387,62,91,0
220.04286,220.13869,70,92,0
220.14285,220.2387,64,93,0
220.24286,220.33868,72,94,0
220.34285,220.43869,65,95,0
220.44286,220.5387,69,96,0
220.54286,220.63869,72,97,0
220.64285,220.7387,77,98,0
220.74286,220.83868,67,99,0
220.84285,220.93869,76,100,0
220.94286,221.0387,69,101,0
221.04286,221.13869,77,102,0
221.14285,221.2387,70,103,0
221.24286,221.33868,79,104,0
221.34285,221.43869,72,105,0
221.44286,221.5387,81,106,0
221.54286,221.63869,74,107,0
221.64285,221.7387,82,108,0
221.74286,221.83868,76,108,0
221.84285,221.93869,84,109,0
221.94286,222.0387,81,110,0
222.04286,222.13869,77,110,0
222.14285,222.2387,84,110,0
222.24286,222.33868,72,110,0
222.34285,222.43869,84,110,0
222.44286,222.5387,72,110,0
222.54286,222.63869,84,110,0
222.64285,222.7387,72,110,0
222.74286,222.83868,84,110,0
222.84285,222.93869,72,110,0
222.94286,223.0387,84,110,0
223.04286,223.13869,72,110,0
223.14285,223.2387,84,110,0
223.24286,223.33868,72,110,0
223.34285,223.43869,84,110,0
223.44286,223.5387,72,110,0
223.54286,223.63869,69,110,0
223.64285,223.7387,72,110,0
223.74286,223.83868,77,110,0
223.84285,223.93869,81,110,0
223.94286,224.0387,72,110,0
224.04286,224.13869,81,110,0
224.14285,224.2387,74,110,0
224.24286,224.33868,82,110,0
224.34285,224.43869,75,110,0
224.44286,224.5387,84,110,0
224.54286,224.63869,77,110,0
224.64285,224.7387,86,110,0
224.74286,224.83868,84,110,0
224.84285,224.93869,87,110,0
224.94286,225.0387,81,110,0
225.04286,225.13869,89,110,0
225.14285,225.2387,86,100,0
225.24286,225.33868,82,94,0
225.34285,225.43869,89,87,0
225.44286,225.5387,81,81,0
225.54286,225.63869,82,80,0
225.64285,225.7387,79,80,0
225.74286,225.83868,86,80,0
225.84285,225.93869,77,80,0
225.94286,226.0387,79,80,0
226.04286,226.13869,75,80,0
226.14285,226.2387,82,80,0
226.24286,226.33868,74,80,0
226.34285,226.43869,75,80,0
226.44286,226.5387,72,80,0
226.54286,226.63869,79,80,0
226.64285,226.7387,70,80,0
226.74286,226.83868,77,80,0
226.84285,226.93869,72,81,0
226.94286,227.0387,69,83,0
227.04286,227.13869,75,85,0
227.14285,227.2387,74,87,0
227.24286,227.33868,70,89,0
227.34285,227.43869,67,91,0
227.44286,227.5387,72,93,0
227.54286,227.63869,65,95,0
227.54286,227.63869,62,95,0
227.64285,227.7387,72,97,0
227.74286,227.83868,65,99,0
227.74286,227.83868,61,99,0
227.84285,227.93869,70,101,0
227.94286,228.0387,63,103,0
227.94286,228.0387,60,103,0
228.04286,228.13869,70,105,0
228.14285,228.2387,63,107,0
228.14285,228.2387,60,107,0
228.24286,228.33868,69,109,0
228.34285,228.43869,73,80,0
228.44286,228.5387,70,80,0
228.54286,228.63869,77,80,0
228.64285,228.7387,68,80,0
228.74286,228.83868,70,80,0
228.84285,228.93869,66,80,0
228.94286,229.0387,73,80,0
229.04286,229.13869,65,80,0
229.14285,229.2387,66,80,0
229.24286,229.33868,63,80,0
229.34285,229.43869,70,80,0
229.44286,229.5387,61,80,0
229.54286,229.63869,68,80,0
229.64285,229.7387,63,80,0
229.74286,229.83868,60,80,0
229.84285,229.93869,66,80,0
229.94286,230.0387,65,80,0
230.04286,230.13869,56,84,0
230.14285,230.2387,54,88,0
230.14285,230.2387,58,88,0
230.24286,230.33868,63,92,0
230.34285,230.43869,56,97,0
230.34285,230.43869,53,97,0
230.44286,230.5387,61,101,0
230.54286,230.63869,54,105,0
230.54286,230.63869,51,105,0
230.64285,230.7387,60,109,0
230.74286,230.83868,53,110,0
230.84285,230.93869,59,110,0
230.94286,231.0387,53,110,0
231.04286,231.13869,55,110,0
231.14285,231.2387,56,110,0
231.24286,231.33868,55,110,0
231.34285,231.43869,56,110,0
231.44286,231.5387,53,110,0
231.64285,231.7387,59,110,0
231.74286,231.83868,53,110,0
231.84285,231.93869,55,110,0
231.94286,232.0387,56,110,0
232.04286,232.13869,55,110,0
232.14285,232.2387,56,110,0
232.24286,232.33868,53,110,0
232.44286,232.5387,60,110,0
232.54286,232.63869,53,110,0
232.64285,232.7387,55,110,0
232.74286,232.83868,56,110,0
232.84285,232.93869,55,110,0
232.94286,233.0387,56,110,0
233.04286,233.13869,53,110,0
233.24286,233.33868,53,110,0
233.34285,233.43869,56,110,0
233.44286,233.5387,62,110,0
233.64285,233.7387,53,110,0
233.74286,233.83868,56,110,0
233.84285,233.93869,62,110,0
233.94286,234.0387,48,100,0
234.04286,234.13869,52,94,0
234.14285,234.2387,55,87,0
234.24286,234.33868,60,81,0
234.34285,234.43869,49,80,0
234.44286,234.5387,59,80,0
234.54286,234.63869,48,80,0
234.64285,234.7387,60,80,0
234.74286,234.83868,60,80,0
234.84285,234.93869,64,80,0
234.94286,235.0387,67,80,0
235.04286,235.13869,72,80,0
235.14285,235.2387,61,80,0
235.24286,235.33868,71,80,0
235.34285,235.43869,60,80,0
235.44286,235.5387,72,80,0
235.54286,235.63869,72,80,0
235.64285,235.7387,76,80,0
235.74286,235.83868,79,80,0
235.84285,235.93869,84,80,0
235.94286,236.0387,73,80,0
236.04286,236.13869,83,80,0
236.14285,236.2387,72,80,0
236.24286,236.33868,84,80,0
236.34285,236.43869,73,80,0
236.44286,236.5387,83,80,0
236.54286,236.63869,72,80,0
236.64285,236.7387,84,80,0
236.74286,236.83868,71,80,0
236.84285,236.93869,81,80,0
236.94286,237.0387,70,80,0
237.04286,237.13869,82,80,0
237.14285,237.2387,46,80,0
237.24286,237.33868,50,80,0
237.34285,237.43869,53,80,0
237.44286,237.5387,58,80,0
237.54286,237.63869,47,80,0
237.64285,237.7387,57,80,0
237.74286,237.83868,46,80,0
237.84285,237.93869,58,80,0
237.94286,238.0387,58,80,0
238.04286,238.13869,62,80,0
238.14285,238.2387,65,80,0
238.24286,238.33868,70,80,0
238.34285,238.43869,59,80,0
238.44286,238.5387,69,80,0
238.54286,238.63869,58,80,0
238.64285,238.7387,70,80,0
238.74286,238.83868,70,80,0
238.84285,238.93869,74,80,0
238.94286,239.0387,77,80,0
239.04286,239.13869,82,80,0
239.14285,239.2387,71,80,0
239.24286,239.33868,81,80,0
239.34285,239.43869,70,80,0
239.44286,239.5387,82,80,0
239.54286,239.63869,71,80,0
239.64285,239.7387,81,80,0
239.74286,239.83868,70,80,0
239.84285,239.93869,82,80,0
239.94286,240.0387,69,80,0
240.04286,240.13869,79,80,0
240.14285,240.2387,68,80,0
240.24286,240.33868,80,80,0
240.34285,240.43869,44,80,0
240.44286,240.5387,48,80,0
240.54286,240.63869,51,80,0
240.64285,240.7387,56,80,0
240.74286,240.83868,45,80,0
240.84285,240.93869,55,80,0
240.94286,241.0387,44,80,0
241.04286,241.13869,56,80,0
241.14285,241.2387,56,80,0
241.24286,241.33868,60,80,0
241.34285,241.43869,63,80,0
241.44286,241.5387,68,80,0
241.54286,241.63869,57,80,0
241.64285,241.7387,67,80,0
241.74286,241.83868,56,80,0
241.84285,241.93869,68,80,0
241.94286,242.0387,68,80,0
242.04286,242.13869,72,81,0
242.14285,242.2387,75,82,0
242.24286,242.33868,80,83,0
242.34285,242.43869,69,85,0
242.44286,242.5387,79,86,0
242.54286,242.63869,68,87,0
242.64285,242.7387,80,89,0
242.74286,242.83868,69,90,0
242.84285,242.93869,79,91,0
242.94286,243.0387,68,93,0
243.04286,243.13869,80,94,0
243.14285,243.2387,68,95,0
243.24286,243.33868,77,96,0
243.34285,243.43869,68,98,0
243.44286,243.5387,77,99,0
243.54286,243.63869,68,100,0
243.64285,243.7387,77,102,0
243.74286,243.83868,66,103,0
243.84285,243.93869,78,104,0
243.94286,244.0387,68,106,0
244.04286,244.13869,77,107,0
244.14285,244.2387,66,108,0
244.24286,244.33868,78,109,0
244.34285,244.43869,68,110,0
244.44286,244.5387,77,110,0
244.54286,244.63869,66,110,0
244.64285,244.7387,78,110,0
244.74286,244.83868,66,110,0
244.84285,244.93869,75,110,0
244.94286,245.0387,66,110,0
245.04286,245.13869,75,110,0
245.14285,245.2387,66,110,0
245.24286,245.33868,75,110,0
245.34285,245.43869,65,110,0
245.44286,245.5387,77,110,0
245.54286,245.63869,65,110,0
245.64285,245.7387,74,110,0
245.74286,245.83868,63,110,0
245.84285,245.93869,75,110,0
245.94286,246.0387,63,110,0
246.04286,246.13869,72,110,0
246.14285,246.2387,61,110,0
246.24286,246.33868,73,110,0
246.34285,246.43869,61,110,0
246.44286,246.5387,70,110,0
246.54286,246.63869,59,110,0
246.64285,246.7387,71,110,0
246.74286,246.83868,60,110,0
246.84285,246.93869,69,110,0
246.94286,247.0387,58,110,0
247.04286,247.13869,70,110,0
247.14285,247.2387,65,120,0
247.24286,247.33868,70,120,0
247.34285,247.43869,65,120,0
247.44286,247.5387,70,120,0
247.54286,247.63869,65,120,0
247.64285,247.7387,71,120,0
247.74286,247.83868,65,120,0
247.84285,247.93869,71,120,0
247.94286,248.0387,59,120,0
248.04286,248.13869,65,120,0
248.14285,248.2387,59,120,0
248.24286,248.33868,65,120,0
248.44286,248.5387,64,80,0
248.44286,248.5387,58,80,0
248.44286,248.5387,55,80,0
248.64285,248.7387,64,80,0
248.64285,248.7387,58,80,0
248.64285,248.7387,55,80,0
248.84285,248.93869,64,80,0
248.84285,248.93869,58,80,0
248.84285,248.93869,55,80,0
249.04286,249.13869,64,80,0
249.04286,249.13869,58,80,0
249.04286,249.13869,55,80,0
249.24286,249.33868,65,80,0
249.24286,249.33868,57,80,0
249.44286,249.5387,65,80,0
249.44286,249.5387,57,80,0
249.64285,249.7387,65,80,0
249.64285,249.7387,57,80,0
249.84285,249.93869,65,80,0
249.84285,249.93869,57,80,0
250.04286,250.13869,67,80,0
250.04286,250.13869,64,80,0
250.04286,250.13869,58,80,0
250.24286,250.33868,67,80,0
250.24286,250.33868,64,80,0
250.24286,250.33868,58,80,0
250.44286,250.5387,67,80,0
250.44286,250.5387,64,80,0
250.44286,250.5387,58,80,0
250.64285,250.7387,67,80,0
250.64285,250.7387,64,80,0
250.64285,250.7387,58,80,0
250.84285,250.93869,65,80,0
250.84285,250.93869,56,80,0
251.04286,251.13869,65,80,0
251.04286,251.13869,56,80,0
251.24286,251.33868,65,80,0
251.24286,251.33868,56,80,0
251.44286,251.5387,65,80,0
251.44286,251.5387,56,80,0
251.64285,251.7387,64,80,0
251.64285,251.7387,55,80,0
251.64285,251.7387,58,80,0
251.84285,251.93869,64,80,0
251.84285,251.93869,55,80,0
252.04286,252.13869,64,80,0
252.04286,252.13869,55,80,0
252.24286,252.33868,64,80,0
252.24286,252.33868,55,80,0
252.44286,252.5387,64,80,0
252.44286,252.5387,55,80,0
252.64285,252.7387,64,80,0
252.64285,252.7387,55,80,0
252.84285,252.93869,64,80,0
252.84285,252.93869,55,80,0
253.04286,253.13869,64,80,0
253.04286,253.13869,55,80,0
253.24286,253.33868,64,80,0
253.24286,253.33868,55,80,0
253.44286,253.5387,64,80,0
253.44286,253.5387,55,80,0
253.64285,253.7387,64,80,0
253.64285,253.7387,55,80,0
253.84285,253.93869,64,80,0
253.84285,253.93869,55,80,0
254.04286,254.13869,64,80,0
254.04286,254.13869,55,80,0
254.24286,254.33868,64,80,0
254.24286,254.33868,55,80,0
254.44286,254.5387,64,80,0
254.44286,254.5387,55,80,0
254.64285,254.7387,64,80,0
254.64285,254.7387,55,80,0
254.74286,254.93869,64,80,0
254.74286,254.93869,55,80,0
254.94286,255.13869,64,80,0
254.94286,255.13869,55,80,0
255.14285,255.33868,64,80,0
255.14285,255.33868,55,80,0
255.34285,255.5387,64,80,0
255.34285,255.5387,55,80,0
255.54286,255.7387,64,80,0
255.54286,255.7387,55,80,0
255.74286,255.93869,64,80,0
255.74286,255.93869,55,80,0
255.94286,256.1387,64,80,0
255.94286,256.1387,55,80,0
256.14285,256.33868,64,80,0
256.14285,256.33868,55,80,0
256.34286,256.4387,53,110,0
256.44287,256.5387,57,110,0
256.54285,256.6387,60,110,0
256.64285,256.73868,65,110,0
256.74286,256.83868,52,110,0
256.74286,256.83868,55,110,0
256.84286,256.9387,64,110,0
256.94287,257.0387,53,110,0
256.94287,257.0387,57,110,0
257.04285,257.1387,65,110,0
257.14285,257.23868,55,110,0
257.14285,257.23868,58,110,0
257.24286,257.33868,67,110,0
257.34286,257.4387,57,110,0
257.34286,257.4387,60,110,0
257.44287,257.5387,69,110,0
257.54285,257.6387,58,110,0
257.54285,257.6387,62,110,0
257.64285,257.73868,70,110,0
257.74286,257.83868,60,110,0
257.74286,257.83868,64,110,0
257.84286,257.9387,72,110,0
257.94287,258.0387,65,110,0
258.04285,258.1387,69,110,0
258.14285,258.23868,72,110,0
258.24286,258.33868,77,110,0
258.34286,258.4387,64,110,0
258.34286,258.4387,67,110,0
258.44287,258.5387,76,110,0
258.54285,258.6387,65,110,0
258.54285,258.6387,69,110,0
258.64285,258.73868,77,110,0
258.74286,258.83868,67,110,0
258.74286,258.83868,70,110,0
258.84286,258.9387,79,110,0
258.94287,259.0387,69,110,0
258.94287,259.0387,72,110,0
259.04285,259.1387,81,110,0
259.14285,259.23868,70,110,0
259.14285,259.23868,74,110,0
259.24286,259.33868,82,110,0
259.34286,259.4387,72,110,0
259.34286,259.4387,76,110,0
259.44287,259.5387,84,110,0
259.54285,259.6387,77,110,0
259.64285,259.73868,81,110,0
259.74286,259.83868,84,110,0
259.84286,259.9387,89,110,0
259.94287,260.0387,76,110,0
260.04285,260.1387,88,110,0
260.14285,260.23868,77,110,0
260.24286,260.33868,89,110,0
260.34286,260.4387,73,110,0
260.44287,260.5387,85,110,0
260.54285,260.6387,74,110,0
260.64285,260.73868,86,110,0
260.74286,260.83868,69,110,0
260.84286,260.9387,81,110,0
260.94287,261.0387,70,110,0
261.04285,261.1387,82,110,0
261.14285,261.23868,66,110,0
261.24286,261.33868,78,110,0
261.34286,261.4387,67,110,0
261.44287,261.5387,79,110,0
261.54285,261.6387,63,110,0
261.64285,261.73868,75,110,0
261.74286,261.83868,64,110,0
261.84286,261.9387,76,110,0
261.94287,262.0387,67,110,0
261.94287,262.0387,64,110,0
262.04285,262.1387,73,110,0
262.14285,262.23868,65,110,0
262.14285,262.23868,62,110,0
262.24286,262.33868,74,110,0
262.34286,262.4387,69,110,0
262.34286,262.4387,65,110,0
262.44287,262.5387,72,110,0
262.54285,262.6387,58,110,0
262.54285,262.6387,55,110,0
262.64285,262.73868,64,110,0
262.74286,262.83868,53,110,0
262.84286,262.9387,57,110,0
262.94287,263.0387,60,110,0
263.04285,263.1387,65,110,0
263.14285,263.23868,52,110,0
263.14285,263.23868,55,110,0
263.24286,263.33868,64,110,0
263.34286,263.4387,53,110,0
263.34286,263.4387,57,110,0
263.44287,263.5387,65,110,0
263.54285,263.6387,55,110,0
263.54285,263.6387,58,110,0
263.64285,263.73868,67,110,0
263.74286,263.83868,57,110,0
263.74286,263.83868,60,110,0
263.84286,263.9387,69,110,0
263.94287,264.0387,58,110,0
263.94287,264.0387,62,110,0
264.04285,264.1387,70,110,0
264.14285,264.23868,60,110,0
264.14285,264.23868,64,110,0
264.24286,264.33868,72,110,0
264.34286,264.4387,65,110,0
264.44287,264.5387,69,110,0
264.54285,264.6387,72,110,0
264.64285,264.73868,77,110,0
264.74286,264.83868,64,110,0
264.74286,264.83868,67,110,0
264.84286,264.9387,76,110,0
264.94287,265.0387,65,110,0
264.94287,265.0387,69,110,0
265.04285,265.1387,77,110,0
265.14285,265.23868,67,110,0
265.14285,265.23868,70,110,0
265.24286,265.33868,79,110,0
265.34286,265.4387,69,110,0
265.34286,265.4387,72,110,0
265.44287,265.5387,81,110,0
265.54285,265.6387,70,110,0
265.54285,265.6387,74,110,0
265.64285,265.73868,82,110,0
265.74286,265.83868,72,110,0
265.74286,265.83868,76,110,0
265.84286,265.9387,84,110,0
265.94287,266.0387,77,110,0
266.04285,266.1387,81,110,0
266.14285,266.23868,84,110,0
266.24286,266.33868,89,110,0
266.34286,266.4387,76,110,0
266.44287,266.5387,88,110,0
266.54285,266.6387,77,110,0
266.64285,266.73868,89,110,0
266.74286,266.83868,73,110,0
266.84286,266.9387,85,110,0
266.94287,267.0387,74,110,0
267.04285,267.1387,86,110,0
267.14285,267.23868,69,110,0
267.24286,267.33868,81,110,0
267.34286,267.4387,70,110,0
267.44287,267.5387,82,110,0
267.54285,267.6387,66,110,0
267.64285,267.73868,78,110,0
267.74286,267.83868,67,110,0
267.84286,267.9387,79,110,0
267.94287,268.0387,63,110,0
268.04285,268.1387,75,110,0
268.14285,268.23868,64,110,0
268.24286,268.33868,76,110,0
268.34286,268.4387,67,110,0
268.34286,268.4387,64,110,0
268.44287,268.5387,73,110,0
268.54285,268.6387,65,110,0
268.54285,268.6387,62,110,0
268.64285,268.73868,74,110,0
268.74286,268.83868,69,110,0
268.74286,268.83868,65,110,0
268.84286,268.9387,72,110,0
268.94287,269.0387,67,110,0
268.94287,269.0387,64,110,0
269.04285,269.1387,72,110,0
269.14285,269.23868,67,110,0
269.14285,269.23868,64,110,0
269.24286,269.33868,73,110,0
269.34286,269.4387,65,110,0
269.34286,269.4387,62,110,0
269.44287,269.5387,74,110,0
269.54285,269.6387,69,110,0
269.54285,269.6387,65,110,0
269.64285,269.73868,72,110,0
269.74286,269.83868,67,110,0
269.74286,269.83868,64,110,0
269.84286,269.9387,72,110,0
269.94287,270.0387,67,110,0
269.94287,270.0387,64,110,0
270.04285,270.1387,73,110,0
270.14285,270.23868,65,110,0
270.14285,270.23868,62,110,0
270.24286,270.33868,74,110,0
270.34286,270.4387,69,110,0
270.34286,270.4387,65,110,0
270.44287,270.5387,72,110,0
270.54285,270.6387,67,110,0
270.54285,270.6387,64,110,0
270.64285,270.73868,72,110,0
270.74286,270.9387,69,110,0
270.74286,270.9387,65,110,0
271.14285,271.33868,72,110,0
271.14285,271.33868,60,110,0
271.34286,271.9387,60,110,0
271.34286,271.9387,72,110,0
271.94287,272.1387,72,110,0
271.94287,272.1387,60,110,0
272.14285,272.73868,60,110,0
272.54285,272.73868,60,110,0
272.14285,272.73868,72,110,0
272.54285,272.73868,72,110,0
272.94287,273.33868,60,110,0
272.94287,273.33868,72,110,0
273.34286,273.73868,72,110,0
273.34286,273.73868,60,110,0
273.74286,273.9387,72,110,0
273.74286,273.9387,60,110,0
273.94287,274.0387,65,110,0
274.04285,274.1387,69,110,0
274.14285,274.23868,72,110,0
274.24286,274.33868,77,110,0
274.34286,274.4387,68,110,0
274.44287,274.5387,76,110,0
274.54285,274.6387,69,110,0
274.64285,274.73868,77,110,0
274.74286,274.83868,69,110,0
274.84286,274.9387,72,110,0
274.94287,275.0387,77,110,0
275.04285,275.1387,81,110,0
275.14285,275.23868,71,110,0
275.24286,275.33868,80,110,0
275.34286,275.4387,72,110,0
275.44287,275.5387,81,110,0
275.54285,275.6387,72,110,0
275.64285,275.73868,77,110,0
275.74286,275.83868,81,110,0
275.84286,275.9387,84,110,0
275.94287,276.0387,80,120,0
276.04285,276.1387,83,120,0
276.14285,276.23868,81,120,0
276.24286,276.33868,84,120,0
276.34286,276.44553,80,120,0
276.45,276.55267,83,120,0
276.55713,276.65982,81,120,0
276.66428,276.76697,84,120,0
276.77142,276.88202,80,120,0
276.8868,276.99738,83,120,0
277.0022,277.11276,81,120,0
277.11758,277.22815,84,120,0
277.23297,277.5267,81,120,0
277.23297,277.5267,77,120,0
277.83298,278.42673,57,120,0
277.83298,278.42673,53,120,0
279.33298,279.6267,53,1,0
0.0,0.09583333,41,80,0
0.1,0.19583334,45,80,0
0.2,0.29583332,48,80,0
0.3,0.39583334,53,80,0
0.4,0.49583334,43,80,0
0.5,0.59583336,52,80,0
0.6,0.6958333,45,80,0
0.7,0.79583335,53,80,0
0.8,0.8958333,46,80,0
0.9,0.99583334,55,80,0
1.0,1.0958333,48,80,0
1.1,1.1958333,57,80,0
1.2,1.2958333,50,80,0
1.3,1.3958334,58,80,0
1.4,1.4958333,52,80,0
1.5,1.5958333,60,80,0
1.6,1.6958333,57,80,0
1.7,3.1958334,53,101,0
3.2,3.2958333,53,80,0
3.3,3.3958333,57,80,0
3.4,3.4958334,60,80,0
3.5,3.5958333,65,80,0
3.6,3.6958334,55,80,0
3.7,3.7958333,64,80,0
3.8,3.8958333,57,80,0
3.9,3.9958334,65,80,0
4.0,4.0958333,58,80,0
4.1,4.195833,67,80,0
4.2,4.295833,60,80,0
4.3,4.3958335,69,80,0
4.4,4.4958334,62,80,0
4.5,4.5958333,70,80,0
4.6,4.695833,64,80,0
4.7,4.795833,72,80,0
4.8,4.8958335,69,80,0
4.9,6.3958335,65,100,0
6.4,6.4958334,65,80,0
6.5,6.5958333,69,80,0
6.6,6.695833,60,80,0
6.7,6.795833,67,80,0
6.8,6.8958335,62,80,0
6.9,6.9958334,65,80,0
7.0,7.0958333,57,80,0
7.1,7.195833,64,80,0
7.2,7.295833,58,80,0
7.3,7.3958335,62,80,0
7.4,7.4958334,53,80,0
7.5,7.5958333,60,80,0
7.6,7.695833,55,80,0
7.7,7.795833,58,80,0
7.8,7.8958335,50,80,0
7.9,7.9958334,57,80,0
8.0,8.095834,46,80,0
8.1,8.195833,55,80,0
8.2,8.295834,46,81,0
8.3,8.395833,55,81,0
8.4,8.495833,46,82,0
8.5,8.595834,55,83,0
8.6,8.695833,47,83,0
8.7,8.795834,55,84,0
8.8,8.895833,48,85,0
8.9,8.995833,55,85,0
9.0,9.095834,41,86,0
9.1,9.195833,53,87,0
9.2,9.295834,43,87,0
9.3,9.395833,52,88,0
9.4,9.495833,43,89,0
9.5,9.595834,50,89,0
9.6,9.695833,36,80,0
9.7,10.395833,48,100,0
10.4,10.495833,36,80,0
10.5,11.195833,48,101,0
11.2,11.295834,36,80,0
11.3,11.595834,48,100,0
11.6,11.695833,36,83,0
11.7,11.995833,48,102,0
12.0,12.095834,36,80,0
12.1,12.395833,48,101,0
12.4,12.495833,36,80,0
12.5,12.795834,48,100,0
12.8,13.295834,36,80,0
13.3,13.395833,48,80,0
13.4,13.495833,47,80,0
13.5,13.595834,45,80,0
13.6,13.695833,43,80,0
13.7,13.795834,41,80,0
13.8,13.895833,40,80,0
13.9,13.995833,38,80,0
14.0,14.095834,36,80,0
14.1,14.195833,48,80,0
14.2,14.295834,47,80,0
14.3,14.395833,45,80,0
14.4,14.495833,43,80,0
14.5,14.595834,41,80,0
14.6,14.695833,40,80,0
14.7,14.795834,38,80,0
14.8,14.895833,36,80,0
14.9,14.995833,38,80,0
15.0,15.095834,40,80,0
15.1,15.195833,41,80,0
15.2,15.295834,43,80,0
15.3,15.395833,45,80,0
15.4,15.495833,46,80,0
15.5,15.595834,45,80,0
15.6,15.695833,48,80,0
15.7,15.795834,46,80,0
15.8,15.895833,45,80,0
15.9,15.995833,43,80,0
16.0,16.095833,41,80,0
16.1,16.195833,45,80,0
16.2,16.295834,48,80,0
16.3,16.395834,53,80,0
16.4,16.495832,43,80,0
16.5,16.595833,52,80,0
16.6,16.695833,45,80,0
16.7,16.795834,53,80,0
16.8,16.895834,46,80,0
16.9,16.995832,55,80,0
17.0,17.095833,48,80,0
17.1,17.195833,57,80,0
17.2,17.295834,50,80,0
17.3,17.395834,58,80,0
17.4,17.495832,52,80,0
17.5,17.595833,60,80,0
17.6,17.695833,57,80,0
17.7,19.195833,53,101,0
19.2,19.295834,53,80,0
19.3,19.395834,57,80,0
19.4,19.495832,60,80,0
19.5,19.595833,65,80,0
19.6,19.695833,55,80,0
19.7,19.795834,64,80,0
19.8,19.895834,57,80,0
19.9,19.995832,65,80,0
20.0,20.095833,58,80,0
20.1,20.195833,67,80,0
20.2,20.295834,60,80,0
20.3,20.395834,69,80,0
20.4,20.495832,62,80,0
20.5,20.595833,70,80,0
20.6,20.695833,64,80,0
20.7,20.795834,72,80,0
20.8,20.895834,69,80,0
20.9,22.395834,65,102,0
22.4,22.495832,65,80,0
22.5,22.595833,69,80,0
22.6,22.695833,60,80,0
22.7,22.795834,67,80,0
22.8,22.895834,62,80,0
22.9,22.995832,65,80,0
23.0,23.095833,57,80,0
23.1,23.195833,64,80,0
23.2,23.295834,58,80,0
23.3,23.395834,62,80,0
23.4,23.495832,53,80,0
23.5,23.595833,60,80,0
23.6,23.695833,55,80,0
23.7,23.795834,58,80,0
23.8,23.895834,50,80,0
23.9,23.995832,57,80,0
24.0,24.095833,46,80,0
24.1,24.195833,55,80,0
24.2,24.295834,46,80,0
24.3,24.395834,55,80,0
24.4,24.495832,46,80,0
24.5,24.595833,55,80,0
24.6,24.695833,47,80,0
24.7,24.795834,55,80,0
24.8,24.895834,48,80,0
24.9,24.995832,55,80,0
25.0,25.095833,41,80,0
25.1,25.195833,53,80,0
25.2,25.295834,43,80,0
25.3,25.395834,52,80,0
25.4,25.495832,43,80,0
25.5,25.595833,50,80,0
25.6,25.695833,36,80,0
25.7,26.395834,48,95,0
26.4,26.495832,36,80,0
26.5,27.195833,48,95,0
27.2,27.295834,36,80,0
27.3,27.595833,48,90,0
27.6,27.695833,36,85,0
27.7,27.995832,48,98,0
28.0,28.095833,36,90,0
28.1,28.395834,48,103,0
28.4,28.495832,36,95,0
28.5,28.795834,48,110,0
28.8,29.295834,36,80,0
29.3,29.395834,48,80,0
29.4,29.495832,47,80,0
29.5,29.595833,45,80,0
29.6,29.695833,43,80,0
29.7,29.795834,41,80,0
29.8,29.895834,40,80,0
29.9,29.995832,38,80,0
30.0,30.095833,36,80,0
30.1,30.195833,48,80,0
30.2,30.295834,47,80,0
30.3,30.395834,45,80,0
30.4,30.495832,43,80,0
30.5,30.595833,41,80,0
30.6,30.695833,40,80,0
30.7,30.795834,38,80,0
30.8,30.895834,36,80,0
30.9,30.995832,38,80,0
31.0,31.095833,40,80,0
31.1,31.195833,41,80,0
31.2,31.295834,43,80,0
31.3,31.395834,45,80,0
31.4,31.495832,46,80,0
31.5,31.595833,45,80,0
31.6,31.666666,46,80,0
31.65,31.729166,48,80,0
31.7,31.775,46,80,0
31.75,31.825,48,80,0
31.8,31.875,46,80,0
31.85,31.933332,48,80,0
31.9,31.983334,45,80,0
31.95,31.995832,46,80,0
32.0,32.095833,45,80,0
32.1,32.195835,49,80,0
32.2,32.295834,52,80,0
32.3,32.395832,57,80,0
32.4,32.495834,47,80,0
32.5,32.595833,56,80,0
32.6,32.695835,49,80,0
32.7,32.795834,57,80,0
32.8,32.895832,50,80,0
32.9,32.995834,59,80,0
33.0,33.095833,52,80,0
33.1,33.195835,61,80,0
33.2,33.295834,54,80,0
33.3,33.395832,62,80,0
33.4,33.495834,56,80,0
33.5,33.595833,64,80,0
33.6,33.695835,61,80,0
33.7,35.195835,57,103,0
35.2,35.295834,57,80,0
35.3,35.395832,61,80,0
35.4,35.495834,64,80,0
35.5,35.595833,69,80,0
35.6,35.695835,59,80,0
35.7,35.795834,68,80,0
35.8,35.895832,61,80,0
35.9,35.995834,69,80,0
36.0,36.095833,62,80,0
36.1,36.195835,71,80,0
36.2,36.295834,64,80,0
36.3,36.395832,73,80,0
36.4,36.495834,66,80,0
36.5,36.595833,74,80,0
36.6,36.695835,68,80,0
36.7,36.795834,76,80,0
36.8,36.895832,73,80,0
36.9,37.795834,69,80,0
37.8,37.995834,79,80,0
38.0,38.195835,77,80,0
38.2,38.395832,73,80,0
38.4,38.495834,74,80,0
38.5,38.595833,77,80,0
38.6,38.695835,69,80,0
38.7,38.795834,76,80,0
38.8,38.895832,70,80,0
38.9,38.995834,74,80,0
39.0,39.095833,65,80,0
39.1,39.195835,72,80,0
39.2,39.295834,67,80,0
39.3,39.395832,70,80,0
39.4,39.495834,62,80,0
39.5,39.595833,69,80,0
39.6,39.695835,63,80,0
39.7,39.795834,67,80,0
39.8,39.895832,62,80,0
39.9,39.995834,65,80,0
40.0,40.095833,61,80,0
40.1,40.195835,64,80,0
40.2,40.295834,57,80,0
40.3,40.395832,64,80,0
40.4,40.495834,58,80,0
40.5,40.595833,62,80,0
40.6,40.695835,55,80,0
40.7,40.795834,67,80,0
40.8,40.895832,57,80,0
40.9,40.995834,65,80,0
41.0,41.095833,57,80,0
41.1,41.195835,65,80,0
41.2,41.295834,57,80,0
41.3,41.395832,64,80,0
41.4,41.495834,57,80,0
41.5,41.595833,64,80,0
41.6,41.695835,62,80,0
41.7,41.795834,65,80,0
41.8,41.895832,57,80,0
41.9,41.995834,64,80,0
42.0,42.095833,58,80,0
42.1,42.195835,62,80,0
42.2,42.295834,53,80,0
42.3,42.395832,60,80,0
42.4,42.495834,55,80,0
42.5,42.595833,58,80,0
42.6,42.695835,50,80,0
42.7,42.795834,57,80,0
42.8,42.895832,51,80,0
42.9,42.995834,55,80,0
43.0,43.095833,50,80,0
43.1,43.195835,53,80,0
43.2,43.295834,49,80,0
43.3,43.395832,52,81,0
43.4,43.495834,45,82,0
43.5,43.595833,52,83,0
43.6,43.695835,46,85,0
43.7,43.795834,50,86,0
43.8,43.895832,43,87,0
43.9,43.995834,55,89,0
44.0,44.095833,45,90,0
44.1,44.195835,53,91,0
44.2,44.295834,45,93,0
44.3,44.395832,53,94,0
44.4,44.495834,45,95,0
44.5,44.595833,52,97,0
44.6,44.695835,45,98,0
44.7,44.795834,52,99,0
44.8,45.595833,44,110,0
44.8,45.595833,32,110,0
45.6,46.395832,43,110,0
45.6,46.395832,31,110,0
46.4,47.195835,42,110,0
46.4,47.195835,30,110,0
47.2,47.995834,41,110,0
47.2,47.995834,29,110,0
48.0,48.795834,40,110,0
48.0,48.795834,28,110,0
48.8,49.595833,39,110,0
48.8,49.595833,27,110,0
49.6,50.395832,38,110,0
49.6,50.395832,26,110,0
50.4,51.25908,50,110,0
50.4,51.25908,38,110,0
51.264286,51.38408,31,110,0
51.389286,51.50908,35,110,0
51.514286,51.61012,38,110,0
51.614285,51.710117,43,110,0
51.714287,51.81012,33,110,0
51.814285,51.91012,42,110,0
51.914284,52.01012,35,110,0
52.014286,52.11012,43,110,0
52.114285,52.210117,36,110,0
52.214287,52.31012,45,110,0
52.314285,52.41012,38,110,0
52.414284,52.51012,47,110,0
52.514286,52.61012,40,110,0
52.614285,52.710117,48,110,0
52.714287,52.81012,42,110,0
52.814285,52.91012,50,110,0
52.914284,53.01012,46,80,0
53.014286,53.31012,43,80,0
53.314285,53.51012,50,80,0
53.514286,53.91012,50,80,0
53.914284,54.31012,50,80,0
54.314285,54.51012,50,80,0
54.514286,54.61012,43,110,0
54.614285,54.710117,47,110,0
54.714287,54.81012,50,110,0
54.814285,54.91012,55,110,0
54.914284,55.01012,45,110,0
55.014286,55.11012,54,110,0
55.114285,55.210117,47,110,0
55.214287,55.31012,55,110,0
55.314285,55.41012,48,110,0
55.414284,55.51012,57,110,0
55.514286,55.61012,50,110,0
55.614285,55.710117,59,110,0
55.714287,55.81012,52,110,0
55.814285,55.91012,60,110,0
55.914284,56.01012,54,110,0
56.014286,56.11012,62,110,0
56.114285,56.210117,59,80,0
56.214287,56.710117,55,80,0
56.714287,57.11012,55,80,0
57.114285,57.51012,55,80,0
57.514286,57.710117,55,80,0
57.714287,57.81012,36,110,0
57.814285,57.91012,39,110,0
57.914284,58.01012,43,110,0
58.014286,58.11012,48,110,0
58.114285,58.210117,38,110,0
58.214287,58.31012,47,110,0
58.314285,58.41012,39,110,0
58.414284,58.51012,48,110,0
58.514286,58.61012,41,110,0
58.614285,58.710117,50,110,0
58.714287,58.81012,43,110,0
58.814285,58.91012,51,110,0
58.914284,59.01012,45,110,0
59.014286,59.11012,53,110,0
59.114285,59.210117,47,110,0
59.214287,59.31012,55,110,0
59.314285,59.41012,51,100,0
59.414284,59.710117,48,94,0
59.714287,59.91012,55,80,0
59.914284,60.31012,55,80,0
60.314285,60.710117,55,80,0
60.714287,60.91012,55,80,0
60.914284,61.01012,48,110,0
61.014286,61.11012,51,110,0
61.114285,61.210117,55,110,0
61.214287,61.31012,60,110,0
61.314285,61.41012,50,110,0
61.414284,61.51012,59,110,0
61.514286,61.61012,51,110,0
61.614285,61.710117,60,110,0
61.714287,61.81012,53,110,0
61.814285,61.91012,62,110,0
61.914284,62.01012,55,110,0
62.014286,62.11012,63,110,0
62.114285,62.210117,57,110,0
62.214287,62.31012,65,110,0
62.314285,62.41012,59,110,0
62.414284,62.51012,67,110,0
62.514286,62.61012,65,110,0
62.614285,63.11012,60,110,0
63.114285,63.51012,60,110,0
63.514286,63.91012,60,110,0
63.914284,64.01012,60,110,0
64.01428,64.110115,70,110,0
64.11429,64.21012,65,110,0
64.21429,64.31012,68,110,0
64.314285,64.41012,60,110,0
64.41428,64.51012,67,110,0
64.51428,64.610115,61,110,0
64.61429,64.71012,65,110,0
64.71429,64.81012,56,110,0
64.814285,64.91012,63,110,0
64.91428,65.01012,58,110,0
65.01428,65.110115,61,110,0
65.11429,65.21012,53,110,0
65.21429,65.31012,60,110,0
65.314285,65.41012,54,110,0
65.41428,65.51012,58,110,0
65.51428,65.610115,49,110,0
65.61429,65.71012,56,110,0
65.71429,65.81012,51,110,0
65.814285,65.91012,54,110,0
65.91428,66.01012,49,111,0
66.01428,66.110115,53,111,0
66.11429,66.21012,48,112,0
66.21429,66.31012,51,113,0
66.314285,66.41012,44,113,0
66.41428,66.51012,51,114,0
66.51428,66.610115,49,115,0
66.61429,66.71012,53,115,0
66.71429,66.81012,42,116,0
66.814285,66.91012,54,117,0
66.91428,67.01012,44,117,0
67.01428,67.110115,53,118,0
67.11429,67.21012,44,119,0
67.21429,67.31012,51,119,0
67.314285,67.41012,44,120,0
67.41428,67.51012,50,119,0
67.51428,67.610115,44,118,0
67.61429,67.71012,50,116,0
67.71429,67.81012,44,115,0
67.814285,67.91012,50,113,0
67.91428,68.01012,44,112,0
68.01428,68.110115,50,111,0
68.11429,68.21012,43,80,0
68.21429,68.31012,50,80,0
68.314285,68.41012,43,80,0
68.41428,68.51012,50,80,0
68.51428,68.610115,43,80,0
68.61429,68.71012,50,80,0
68.71429,68.81012,43,80,0
68.814285,68.91012,50,80,0
68.91428,69.01012,43,110,0
69.01428,69.110115,49,110,0
69.11429,69.21012,43,110,0
69.21429,69.31012,48,110,0
69.314285,69.41012,43,110,0
69.41428,69.51012,48,110,0
69.51428,69.610115,43,110,0
69.61429,69.71012,48,110,0
69.71429,69.81012,42,80,0
69.814285,69.91012,48,80,0
69.91428,70.01012,42,80,0
70.01428,70.110115,48,80,0
70.11429,70.21012,42,80,0
70.21429,70.31012,48,80,0
70.314285,70.41012,42,80,0
70.41428,70.51012,48,80,0
70.51428,70.610115,42,80,0
70.61429,70.71012,48,80,0
70.71429,70.81012,41,80,0
70.814285,70.91012,48,80,0
70.91428,71.01012,47,80,0
71.01428,71.110115,53,80,0
71.11429,71.21012,47,80,0
71.21429,71.31012,53,80,0
71.314285,71.41012,47,80,0
71.41428,71.51012,53,80,0
71.51428,71.610115,46,80,0
71.61429,71.71012,53,80,0
71.71429,71.81012,40,80,0
71.814285,71.91012,46,80,0
71.91428,72.01012,40,80,0
72.01428,72.110115,46,80,0
72.11429,72.21012,40,80,0
72.21429,72.31012,46,80,0
72.314285,72.41012,39,80,0
72.41428,72.51012,46,80,0
72.51428,72.610115,45,80,0
72.61429,72.71012,51,80,0
72.71429,72.81012,45,80,0
72.814285,72.91012,51,80,0
72.91428,73.01012,45,80,0
73.01428,73.110115,51,80,0
73.11429,73.21012,44,80,0
73.21429,73.31012,51,80,0
73.314285,73.41012,32,80,0
73.41428,73.51012,44,80,0
73.51428,73.610115,32,80,0
73.61429,73.71012,44,80,0
73.71429,73.81012,32,80,0
73.814285,73.91012,44,80,0
73.91428,74.01012,33,80,0
74.01428,74.110115,45,80,0
74.11429,74.21012,31,110,0
74.21429,74.31012,43,110,0
74.314285,74.41012,31,110,0
74.41428,74.51012,43,110,0
74.51428,74.610115,31,110,0
74.61429,74.71012,43,110,0
74.71429,74.81012,31,110,0
74.814285,74.91012,43,110,0
74.91428,75.01012,33,110,0
75.01428,75.110115,45,110,0
75.11429,75.21012,33,110,0
75.21429,75.31012,45,110,0
75.314285,75.51012,44,110,0
75.71429,75.91012,57,80,0
75.91428,76.110115,56,80,0
76.11429,76.31012,44,80,0
76.51428,76.71012,57,80,0
76.71429,76.91012,56,80,0
76.91428,77.110115,44,80,0
77.314285,77.51012,57,80,0
77.51428,77.71012,56,80,0
77.71429,77.91012,57,80,0
77.91428,78.110115,56,80,0
78.11429,78.31012,60,80,0
78.314285,78.51012,63,80,0
78.51428,78.71012,49,80,0
78.91428,79.110115,63,80,0
79.11429,79.31012,61,80,0
79.314285,79.51012,49,80,0
79.71429,79.91012,63,80,0
79.91428,80.110115,61,80,0
80.11429,80.31012,49,80,0
80.51428,80.71012,63,80,0
80.71429,80.91012,61,80,0
80.91428,81.110115,63,80,0
81.11429,81.31012,61,80,0
81.314285,81.51012,60,80,0
81.51428,81.71012,58,80,0
81.71429,81.91012,44,80,0
82.11429,82.31012,57,80,0
82.314285,82.51012,56,80,0
82.51428,82.71012,44,80,0
82.91428,83.110115,57,80,0
83.11429,83.31012,56,80,0
83.314285,83.51012,44,80,0
83.71429,83.91012,57,80,0
83.91428,84.110115,56,80,0
84.11429,84.31012,57,80,0
84.314285,84.51012,56,80,0
84.51428,84.71012,60,80,0
84.71429,84.91012,63,80,0
84.91428,85.110115,62,80,0
85.11429,85.31012,61,80,0
85.314285,85.51012,65,80,0
85.51428,85.71012,68,80,0
85.71429,85.91012,67,80,0
85.91428,86.110115,66,80,0
86.11429,86.31012,70,80,0
86.314285,86.51012,58,80,0
86.51428,86.71012,72,80,0
86.71429,86.91012,71,80,0
86.91428,87.110115,75,80,0
87.11429,87.31012,63,80,0
87.314285,87.51012,77,80,0
87.51428,87.71012,76,80,0
87.71429,87.91012,80,80,0
87.91428,88.110115,68,80,0
88.11429,88.31012,70,80,0
88.314285,88.51012,69,80,0
88.51428,88.71012,73,80,0
88.71429,88.91012,61,80,0
88.91428,89.110115,75,80,0
89.11429,89.31012,74,80,0
89.314285,89.51012,78,80,0
89.51428,89.71012,66,80,0
89.71429,89.91012,68,80,0
89.91428,90.110115,67,80,0
90.11429,90.31012,70,80,0
90.314285,90.51012,58,80,0
90.51428,90.71012,73,80,0
90.71429,90.91012,72,80,0
90.91428,91.110115,76,80,0
91.11429,91.31012,64,80,0
91.314285,91.51012,65,80,0
91.51428,91.71012,61,82,0
91.71429,91.91012,62,85,0
91.91428,92.110115,57,87,0
92.11429,92.31012,58,90,0
92.314285,92.51012,54,93,0
92.51428,92.71012,55,95,0
92.71429,92.91012,45,98,0
92.91428,93.110115,46,100,0
93.11429,93.31012,47,103,0
93.314285,93.51012,48,106,0
93.51428,93.71012,50,108,0
93.71429,93.81012,36,110,0
93.814285,93.91012,40,110,0
93.91428,94.01012,43,110,0
94.01428,94.110115,48,110,0
94.11429,94.21012,38,110,0
94.21429,94.31012,47,110,0
94.314285,94.41012,40,110,0
94.41428,94.51012,48,110,0
94.51428,94.610115,41,110,0
94.61429,94.71012,50,110,0
94.71429,94.81012,43,110,0
94.814285,94.91012,52,110,0
94.91428,95.01012,45,110,0
95.01428,95.110115,53,110,0
95.11429,95.21012,47,110,0
95.21429,95.31012,55,110,0
95.314285,95.41012,52,100,0
95.41428,95.71012,48,94,0
95.71429,95.91012,55,80,0
95.91428,96.31012,55,80,0
96.314285,96.71012,55,80,0
96.71429,96.91012,55,80,0
96.91428,97.01012,48,110,0
97.01428,97.110115,52,110,0
97.11429,97.21012,55,110,0
97.21429,97.31012,60,110,0
97.314285,97.41012,50,110,0
97.41428,97.51012,59,110,0
97.51428,97.610115,52,110,0
97.61429,97.71012,60,110,0
97.71429,97.81012,53,110,0
97.814285,97.91012,62,110,0
97.91428,98.01012,55,110,0
98.01428,98.110115,64,110,0
98.11429,98.21012,57,110,0
98.21429,98.31012,65,110,0
98.314285,98.41012,59,110,0
98.41428,98.51012,67,110,0
98.51428,98.71012,60,100,0
98.51428,98.71012,64,100,0
99.314285,99.41012,55,80,0
99.41428,99.51012,64,80,0
99.51428,99.610115,57,80,0
99.61429,99.71012,65,80,0
99.71429,99.81012,53,80,0
99.814285,99.91012,62,80,0
99.91428,100.01012,55,80,0
100.01428,100.110115,64,80,0
100.11429,100.21012,52,80,0
100.21429,100.31012,60,80,0
100.91428,101.01012,64,80,0
101.01428,101.110115,67,80,0
101.11429,101.21012,65,80,0
101.21429,101.31012,69,80,0
101.314285,101.41012,62,80,0
101.41428,101.51012,65,80,0
101.51428,101.610115,64,80,0
101.61429,101.71012,67,80,0
101.71429,101.81012,60,80,0
101.814285,101.91012,64,80,0
102.51428,102.610115,64,80,0
102.61429,102.71012,67,80,0
102.71429,102.81012,65,80,0
102.814285,102.91012,69,80,0
102.91428,103.01012,62,80,0
103.01428,103.110115,65,80,0
103.11429,103.21012,64,80,0
103.21429,103.31012,67,80,0
103.314285,103.41012,60,80,0
103.41428,103.51012,64,80,0
103.51428,103.610115,62,81,0
103.61429,103.71012,65,82,0
103.71429,103.81012,58,83,0
103.814285,103.91012,62,84,0
103.91428,104.01012,60,85,0
104.01428,104.110115,64,86,0
104.11429,104.21012,57,86,0
104.21429,104.31012,60,87,0
104.314285,104.41012,58,88,0
104.41428,104.51012,62,89,0
104.51428,104.610115,55,90,0
104.61429,104.71012,58,91,0
104.71429,104.81012,57,92,0
104.814285,104.91012,60,93,0
104.91428,105.01012,53,93,0
105.01428,105.110115,57,94,0
105.11429,105.21012,55,95,0
105.21429,105.31012,58,96,0
105.314285,105.41012,57,97,0
105.41428,105.51012,60,98,0
105.51428,105.610115,58,99,0
105.61429,105.71012,62,99,0
105.71429,105.81012,57,100,0
105.814285,105.91012,60,98,0
105.91428,106.01012,55,95,0
106.01428,106.110115,58,92,0
106.11429,106.216965,53,89,0
106.22143,106.324104,57,86,0
106.32857,106.448364,48,83,0
106.45357,106.573364,55,81,0
106.57857,106.698364,29,80,0
106.70357,106.823364,41,80,0
106.82857,106.92441,29,81,0
106.92857,107.02441,41,82,0
107.02857,107.124405,29,83,0
107.12857,107.2244,41,84,0
107.22857,107.3244,29,85,0
107.32857,107.42441,41,86,0
107.42857,107.52441,29,87,0
107.52857,107.624405,41,88,0
107.62857,107.7244,29,89,0
107.72857,107.8244,41,90,0
107.82857,107.92441,29,91,0
107.92857,108.02441,41,92,0
108.02857,108.124405,29,93,0
108.12857,108.2244,41,94,0
108.22857,108.3244,29,95,0
108.32857,108.42441,41,96,0
108.42857,108.52441,29,97,0
108.52857,108.624405,41,98,0
108.62857,108.7244,29,99,0
108.72857,108.8244,41,100,0
108.82857,108.92441,29,101,0
108.92857,109.02441,41,102,0
109.02857,109.124405,29,103,0
109.12857,109.2244,41,104,0
109.22857,109.3244,29,105,0
109.32857,109.42441,41,106,0
109.42857,109.52441,29,107,0
109.52857,109.624405,41,108,0
109.62857,109.7244,29,108,0
109.72857,109.8244,41,109,0
109.82857,109.92441,41,110,0
109.92857,110.02441,45,110,0
110.02857,110.124405,48,110,0
110.12857,110.2244,53,110,0
110.22857,110.3244,43,110,0
110.32857,110.42441,52,110,0
110.42857,110.52441,45,110,0
110.52857,110.624405,53,110,0
110.62857,110.7244,46,110,0
110.72857,110.8244,55,110,0
110.82857,110.92441,48,110,0
110.92857,111.02441,57,110,0
111.02857,111.124405,50,110,0
111.12857,111.2244,58,110,0
111.22857,111.3244,52,110,0
111.32857,111.42441,60,110,0
111.42857,111.52441,53,110,0
111.52857,111.624405,57,110,0
111.62857,111.7244,60,110,0
111.72857,111.8244,65,110,0
111.82857,111.92441,63,110,0
111.92857,112.02441,65,110,0
112.02857,112.124405,62,110,0
112.12857,112.2244,65,110,0
112.22857,112.3244,60,110,0
112.32857,112.42441,65,110,0
112.42857,112.52441,58,110,0
112.52857,112.624405,65,110,0
112.62857,112.7244,57,110,0
112.72857,112.8244,65,110,0
112.82857,112.92441,53,110,0
112.92857,113.02441,60,110,0
113.02857,113.124405,58,100,0
113.12857,113.2244,62,94,0
113.22857,113.3244,53,87,0
113.32857,113.42441,60,81,0
113.42857,113.52441,55,80,0
113.52857,113.624405,58,80,0
113.62857,113.7244,50,80,0
113.72857,113.8244,57,80,0
113.82857,113.92441,51,80,0
113.92857,114.02441,55,80,0
114.02857,114.124405,46,80,0
114.12857,114.2244,53,80,0
114.22857,114.3244,48,80,0
114.32857,114.42441,51,80,0
114.42857,114.52441,43,80,0
114.52857,114.624405,50,80,0
114.62857,114.7244,45,80,0
114.72857,114.8244,48,81,0
114.82857,114.92441,41,83,0
114.92857,115.02441,53,85,0
115.02857,115.124405,43,87,0
115.12857,115.2244,55,89,0
115.22857,115.3244,39,91,0
115.32857,115.42441,51,93,0
115.42857,115.52441,41,95,0
115.52857,115.624405,53,97,0
115.62857,115.7244,41,99,0
115.72857,115.8244,53,101,0
115.82857,115.92441,41,103,0
115.92857,116.02441,53,105,0
116.02857,116.124405,41,107,0
116.12857,116.2244,53,109,0
116.22857,116.3244,58,80,0
116.32857,116.42441,61,80,0
116.42857,116.52441,53,80,0
116.52857,116.624405,60,80,0
116.62857,116.7244,54,80,0
116.72857,116.8244,58,80,0
116.82857,116.92441,49,80,0
116.92857,117.02441,56,80,0
117.02857,117.124405,51,80,0
117.12857,117.2244,54,80,0
117.22857,117.3244,46,80,0
117.32857,117.42441,53,80,0
117.42857,117.52441,48,80,0
117.52857,117.624405,51,80,0
117.62857,117.7244,44,80,0
117.72857,117.8244,51,80,0
117.82857,117.92441,37,80,0
117.92857,118.02441,49,84,0
118.02857,118.124405,37,88,0
118.12857,118.2244,49,92,0
118.22857,118.3244,37,97,0
118.32857,118.42441,49,101,0
118.42857,118.52441,37,105,0
118.52857,118.624405,49,109,0
118.62857,119.42441,37,110,0
119.42857,120.2244,38,110,0
120.22857,121.02441,36,110,0
121.02857,121.42441,35,110,0
121.42857,121.8244,35,110,0
121.92857,122.02441,36,94,0
122.02857,122.124405,40,87,0
122.12857,122.2244,36,81,0
122.22857,122.3244,41,80,0
122.32857,122.42441,36,80,0
122.42857,122.52441,40,80,0
122.52857,122.624405,36,80,0
122.72857,122.8244,48,80,0
122.82857,122.92441,52,80,0
122.92857,123.02441,48,80,0
123.02857,123.124405,53,80,0
123.12857,123.2244,48,80,0
123.22857,123.3244,52,80,0
123.32857,123.42441,48,80,0
123.52857,123.624405,67,80,0
123.62857,123.7244,64,80,0
123.72857,123.8244,67,80,0
123.82857,123.92441,65,80,0
123.92857,124.02441,67,80,0
124.02857,124.124405,64,80,0
124.12857,124.2244,67,80,0
124.22857,124.3244,65,80,0
124.32857,124.42441,67,80,0
124.42857,124.52441,64,80,0
124.52857,124.624405,67,80,0
124.62857,124.7244,63,80,0
124.72857,124.8244,65,80,0
124.82857,124.92441,62,80,0
124.92857,125.02441,65,80,0
125.12857,125.2244,34,80,0
125.22857,125.3244,38,80,0
125.32857,125.42441,34,80,0
125.42857,125.52441,39,80,0
125.52857,125.624405,34,80,0
125.62857,125.7244,38,80,0
125.72857,125.8244,34,80,0
125.92857,126.02441,46,80,0
126.02857,126.124405,50,80,0
126.12857,126.2244,46,80,0
126.22857,126.3244,51,80,0
126.32857,126.42441,46,80,0
126.42857,126.52441,50,80,0
126.52857,126.624405,46,80,0
126.72857,126.8244,65,80,0
126.82857,126.92441,62,80,0
126.92857,127.02441,65,80,0
127.02857,127.124405,63,80,0
127.12857,127.2244,65,80,0
127.22857,127.3244,62,80,0
127.32857,127.42441,65,80,0
127.42857,127.52441,63,80,0
127.52857,127.624405,65,80,0
127.62857,127.7244,62,80,0
127.72857,127.8244,65,80,0
127.82857,127.92441,61,80,0
127.92857,128.0244,63,80,0
128.02856,128.1244,60,80,0
128.12857,128.22441,61,80,0
128.32857,128.42441,32,80,0
128.42857,128.5244,36,80,0
128.52856,128.6244,32,80,0
128.62857,128.72441,37,80,0
128.72858,128.8244,32,80,0
128.82857,128.92441,36,80,0
128.92857,129.0244,32,80,0
129.12857,129.22441,44,80,0
129.22858,129.3244,48,80,0
129.32857,129.42441,44,80,0
129.42857,129.5244,49,80,0
129.52856,129.6244,44,80,0
129.62857,129.72441,48,80,0
129.72858,129.8244,44,80,0
129.92857,130.0244,63,81,0
130.02856,130.1244,60,82,0
130.12857,130.22441,63,83,0
130.22858,130.3244,61,85,0
130.32857,130.42441,63,86,0
130.42857,130.5244,60,87,0
130.52856,130.6244,63,89,0
130.62857,130.72441,61,90,0
130.72858,130.8244,63,91,0
130.82857,130.92441,60,93,0
130.92857,131.0244,63,94,0
131.02856,131.1244,59,95,0
131.12857,131.22441,61,96,0
131.22858,131.3244,59,98,0
131.32857,131.42441,61,99,0
131.42857,131.5244,59,100,0
131.52856,131.6244,61,102,0
131.62857,131.72441,58,103,0
131.72858,131.8244,61,104,0
131.82857,131.92441,59,106,0
131.92857,132.0244,61,107,0
132.02856,132.1244,58,108,0
132.12857,132.22441,61,109,0
132.22858,132.3244,59,110,0
132.32857,132.42441,61,110,0
132.42857,132.5244,58,110,0
132.52856,132.6244,61,110,0
132.62857,132.72441,58,110,0
132.72858,132.8244,59,110,0
132.82857,132.92441,58,110,0
132.92857,133.0244,59,110,0
133.02856,133.1244,58,110,0
133.12857,133.22441,59,110,0
133.22858,133.3244,56,110,0
133.32857,133.42441,59,110,0
133.42857,133.5244,56,110,0
133.52856,133.6244,58,110,0
133.62857,133.72441,54,110,0
133.72858,133.8244,58,110,0
133.82857,133.92441,54,110,0
133.92857,134.0244,56,110,0
134.02856,134.1244,53,110,0
134.12857,134.22441,56,110,0
134.22858,134.3244,53,110,0
134.32857,134.42441,54,110,0
134.42857,134.5244,51,110,0
134.52856,134.6244,54,110,0
134.62857,134.72441,51,110,0
134.72858,134.8244,53,110,0
134.82857,134.92441,49,110,0
134.92857,135.0244,53,110,0
135.02856,135.1244,49,120,0
135.12857,135.22441,53,120,0
135.22858,135.3244,49,120,0
135.32857,135.42441,53,120,0
135.42857,135.5244,49,120,0
135.52856,135.6244,53,120,0
135.62857,135.72441,49,120,0
135.72858,135.8244,53,120,0
135.82857,135.92441,37,120,0
135.92857,136.0244,49,120,0
136.02856,136.1244,37,120,0
136.12857,136.22441,49,120,0
136.22858,136.42441,48,120,0
136.22858,136.42441,36,120,0
136.42857,136.6244,61,80,0
136.62857,136.8244,59,80,0
136.82857,137.0244,60,80,0
137.02856,137.22441,48,80,0
137.22858,137.42441,61,80,0
137.42857,137.6244,59,80,0
137.62857,137.8244,60,80,0
137.82857,138.0244,48,80,0
138.02856,138.22441,61,80,0
138.22858,138.42441,59,80,0
138.42857,138.6244,60,80,0
138.62857,138.8244,48,80,0
138.82857,139.0244,61,80,0
139.02856,139.22441,59,80,0
139.22858,139.42441,60,80,0
139.42857,139.6244,52,80,0
139.62857,139.8244,62,80,0
139.82857,139.92441,59,80,0
140.02856,140.22441,62,80,0
140.22858,140.3244,59,80,0
140.42857,140.6244,62,80,0
140.62857,140.72441,59,80,0
140.82857,141.0244,62,80,0
141.02856,141.1244,59,80,0
141.22858,141.42441,60,80,0
141.42857,141.5244,59,80,0
141.62857,141.8244,60,80,0
141.82857,141.92441,59,80,0
142.02856,142.22441,60,80,0
142.22858,142.3244,59,80,0
142.42857,142.6244,60,80,0
142.62857,142.72441,58,80,0
142.67857,142.75774,60,80,0
142.72858,142.8119,58,80,0
142.77856,142.86607,60,80,0
142.82857,142.92441,58,80,0
142.87857,142.95773,60,80,0
142.92857,143.0119,58,80,0
142.97858,143.06607,60,80,0
143.02856,143.1244,58,80,0
143.07857,143.15773,60,80,0
143.12857,143.2119,58,80,0
143.17857,143.26607,60,80,0
143.22858,143.3244,58,80,0
143.27856,143.35774,60,80,0
143.32857,143.41191,58,80,0
143.37857,143.46606,60,80,0
143.42857,143.5244,58,80,0
143.47858,143.55774,60,80,0
143.52856,143.61191,58,80,0
143.57857,143.66608,60,80,0
143.62857,143.72441,58,80,0
143.67857,143.75774,60,80,0
143.72858,143.8119,58,80,0
143.77856,143.86607,60,80,0
143.82857,143.92441,58,80,0
143.87857,143.95773,60,80,0
143.92857,144.0119,58,80,0
143.97858,144.06607,60,80,0
144.02856,144.1244,58,80,0
144.07857,144.15773,60,80,0
144.12857,144.2119,57,80,0
144.17857,144.22441,58,80,0
144.22858,144.3244,45,80,0
144.32857,144.42441,49,80,0
144.42857,144.5244,52,80,0
144.52856,144.6244,57,80,0
144.62857,144.72441,47,80,0
144.72858,144.8244,56,80,0
144.82857,144.92441,49,80,0
144.92857,145.0244,57,80,0
145.02856,145.1244,50,80,0
145.12857,145.22441,59,80,0
145.22858,145.3244,52,80,0
145.32857,145.42441,61,80,0
145.42857,145.5244,54,80,0
145.52856,145.6244,62,80,0
145.62857,145.72441,56,80,0
145.72858,145.8244,64,80,0
145.82857,145.92441,61,80,0
145.92857,147.42441,57,103,0
147.42857,147.5244,57,80,0
147.52856,147.6244,61,80,0
147.62857,147.72441,64,80,0
147.72858,147.8244,69,80,0
147.82857,147.92441,59,80,0
147.92857,148.0244,68,80,0
148.02856,148.1244,61,80,0
148.12857,148.22441,69,80,0
148.22858,148.3244,62,80,0
148.32857,148.42441,71,80,0
148.42857,148.5244,64,80,0
148.52856,148.6244,73,80,0
148.62857,148.72441,66,80,0
148.72858,148.8244,74,80,0
148.82857,148.92441,68,80,0
148.92857,149.0244,76,80,0
149.02856,149.1244,73,80,0
149.12857,150.0244,69,80,0
150.02856,150.22441,79,80,0
150.22858,150.42441,77,80,0
150.42857,150.6244,73,80,0
150.62857,150.72441,74,80,0
150.72858,150.8244,77,80,0
150.82857,150.92441,69,80,0
150.92857,151.0244,76,80,0
151.02856,151.1244,70,80,0
151.12857,151.22441,74,80,0
151.22858,151.3244,65,80,0
151.32857,151.42441,72,80,0
151.42857,151.5244,67,80,0
151.52856,151.6244,70,80,0
151.62857,151.72441,62,80,0
151.72858,151.8244,69,80,0
151.82857,151.92441,63,80,0
151.92857,152.0244,67,80,0
152.02856,152.1244,62,80,0
152.12857,152.22441,65,80,0
152.22858,152.3244,61,80,0
152.32857,152.42441,64,80,0
152.42857,152.5244,57,80,0
152.52856,152.6244,64,80,0
152.62857,152.72441,58,80,0
152.72858,152.8244,62,80,0
152.82857,152.92441,55,80,0
152.92857,153.0244,67,80,0
153.02856,153.1244,57,80,0
153.12857,153.22441,65,80,0
153.22858,153.3244,57,80,0
153.32857,153.42441,65,80,0
153.42857,153.5244,57,80,0
153.52856,153.6244,64,80,0
153.62857,153.72441,57,80,0
153.72858,153.8244,64,80,0
153.82857,153.92441,62,80,0
153.92857,154.0244,65,80,0
154.02856,154.1244,57,80,0
154.12857,154.22441,64,80,0
154.22858,154.3244,58,80,0
154.32857,154.42441,62,80,0
154.42857,154.5244,53,80,0
154.52856,154.6244,60,80,0
154.62857,154.72441,55,80,0
154.72858,154.8244,58,80,0
154.82857,154.92441,50,80,0
154.92857,155.0244,57,80,0
155.02856,155.1244,51,80,0
155.12857,155.22441,55,80,0
155.22858,155.3244,50,80,0
155.32857,155.42441,53,80,0
155.42857,155.5244,49,80,0
155.52856,155.6244,52,81,0
155.62857,155.72441,45,82,0
155.72858,155.8244,52,83,0
155.82857,155.92441,46,85,0
155.92857,156.0244,50,86,0
156.02856,156.1244,43,87,0
156.12857,156.22441,55,89,0
156.22858,156.3244,45,90,0
156.32857,156.42441,53,91,0
156.42857,156.5244,45,93,0
156.52856,156.6244,53,94,0
156.62857,156.72441,45,95,0
156.72858,156.8244,52,97,0
156.82857,156.92441,45,98,0
156.92857,157.0244,52,99,0
157.02856,157.8244,44,110,0
157.02856,157.8244,32,110,0
157.82857,158.6244,43,110,0
157.82857,158.6244,31,110,0
158.62857,159.42441,42,110,0
158.62857,159.42441,30,110,0
159.42857,160.22441,41,110,0
159.42857,160.22441,29,110,0
160.22858,161.0244,40,110,0
160.22858,161.0244,28,110,0
161.02856,161.8244,39,110,0
161.02856,161.8244,27,110,0
161.82857,162.6244,38,110,0
161.82857,162.6244,26,110,0
162.62857,163.48766,50,110,0
162.62857,163.48766,38,110,0
163.49286,163.61266,31,110,0
163.61786,163.73766,35,110,0
163.74286,163.83868,38,110,0
163.84285,163.93869,43,110,0
163.94286,164.0387,33,110,0
164.04286,164.13869,42,110,0
164.14285,164.2387,35,110,0
164.24286,164.33868,43,110,0
164.34285,164.43869,36,110,0
164.44286,164.5387,45,110,0
164.54286,164.63869,38,110,0
164.64285,164.7387,47,110,0
164.74286,164.83868,40,110,0
164.84285,164.93869,48,110,0
164.94286,165.0387,42,110,0
165.04286,165.13869,50,110,0
165.14285,165.2387,46,80,0
165.24286,165.5387,43,80,0
165.54286,165.7387,50,80,0
165.74286,166.13869,50,80,0
166.14285,166.5387,50,80,0
166.54286,166.7387,50,80,0
166.74286,166.83868,43,110,0
166.84285,166.93869,47,110,0
166.94286,167.0387,50,110,0
167.04286,167.13869,55,110,0
167.14285,167.2387,45,110,0
167.24286,167.33868,54,110,0
167.34285,167.43869,47,110,0
167.44286,167.5387,55,110,0
167.54286,167.63869,48,110,0
167.64285,167.7387,57,110,0
167.74286,167.83868,50,110,0
167.84285,167.93869,59,110,0
167.94286,168.0387,52,110,0
168.04286,168.13869,60,110,0
168.14285,168.2387,54,110,0
168.24286,168.33868,62,110,0
168.34285,168.43869,59,80,0
168.44286,168.93869,55,80,0
168.94286,169.33868,55,80,0
169.34285,169.7387,55,80,0
169.74286,169.93869,55,80,0
169.94286,170.0387,36,110,0
170.04286,170.13869,39,110,0
170.14285,170.2387,43,110,0
170.24286,170.33868,48,110,0
170.34285,170.43869,38,110,0
170.44286,170.5387,47,110,0
170.54286,170.63869,39,110,0
170.64285,170.7387,48,110,0
170.74286,170.83868,41,110,0
170.84285,170.93869,50,110,0
170.94286,171.0387,43,110,0
171.04286,171.13869,51,110,0
171.14285,171.2387,45,110,0
171.24286,171.33868,53,110,0
171.34285,171.43869,47,110,0
171.44286,171.5387,55,110,0
171.54286,171.63869,51,100,0
171.64285,171.93869,48,94,0
171.94286,172.13869,55,80,0
172.14285,172.5387,55,80,0
172.54286,172.93869,55,80,0
172.94286,173.13869,55,80,0
173.14285,173.2387,48,110,0
173.24286,173.33868,51,110,0
173.34285,173.43869,55,110,0
173.44286,173.5387,60,110,0
173.54286,173.63869,50,110,0
173.64285,173.7387,59,110,0
173.74286,173.83868,51,110,0
173.84285,173.93869,60,110,0
173.94286,174.0387,53,110,0
174.04286,174.13869,62,110,0
174.14285,174.2387,55,110,0
174.24286,174.33868,63,110,0
174.34285,174.43869,57,110,0
174.44286,174.5387,65,110,0
174.54286,174.63869,59,110,0
174.64285,174.7387,67,110,0
174.74286,174.83868,65,110,0
174.84285,175.33868,60,110,0
175.34285,175.7387,60,110,0
175.74286,176.13869,60,110,0
176.14285,176.2387,60,110,0
176.24286,176.33868,70,110,0
176.34285,176.43869,65,110,0
176.44286,176.5387,68,110,0
176.54286,176.63869,60,110,0
176.64285,176.7387,67,110,0
176.74286,176.83868,61,110,0
176.84285,176.93869,65,110,0
176.94286,177.0387,56,110,0
177.04286,177.13869,63,110,0
177.14285,177.2387,58,110,0
177.24286,177.33868,61,110,0
177.34285,177.43869,53,110,0
177.44286,177.5387,60,110,0
177.54286,177.63869,54,110,0
177.64285,177.7387,58,110,0
177.74286,177.83868,49,110,0
177.84285,177.93869,56,110,0
177.94286,178.0387,51,110,0
178.04286,178.13869,54,110,0
178.14285,178.2387,49,111,0
178.24286,178.33868,53,111,0
178.34285,178.43869,48,112,0
178.44286,178.5387,51,113,0
178.54286,178.63869,44,113,0
178.64285,178.7387,51,114,0
178.74286,178.83868,49,115,0
178.84285,178.93869,53,115,0
178.94286,179.0387,42,116,0
179.04286,179.13869,54,117,0
179.14285,179.2387,44,117,0
179.24286,179.33868,53,118,0
179.34285,179.43869,44,119,0
179.44286,179.5387,51,119,0
179.54286,179.63869,44,120,0
179.64285,179.7387,50,119,0
179.74286,179.83868,44,118,0
179.84285,179.93869,50,116,0
179.94286,180.0387,44,115,0
180.04286,180.13869,50,113,0
180.14285,180.2387,44,112,0
180.24286,180.33868,50,111,0
180.34285,180.43869,43,80,0
180.44286,180.5387,50,80,0
180.54286,180.63869,43,80,0
180.64285,180.7387,50,80,0
180.74286,180.83868,43,80,0
180.84285,180.93869,50,80,0
180.94286,181.0387,43,80,0
181.04286,181.13869,50,80,0
181.14285,181.2387,43,110,0
181.24286,181.33868,49,110,0
181.34285,181.43869,43,110,0
181.44286,181.5387,48,110,0
181.54286,181.63869,43,110,0
181.64285,181.7387,48,110,0
181.74286,181.83868,43,110,0
181.84285,181.93869,48,110,0
181.94286,182.0387,42,80,0
182.04286,182.13869,48,80,0
182.14285,182.2387,42,80,0
182.24286,182.33868,48,80,0
182.34285,182.43869,42,80,0
182.44286,182.5387,48,80,0
182.54286,182.63869,42,80,0
182.64285,182.7387,48,80,0
182.74286,182.83868,42,80,0
182.84285,182.93869,48,80,0
182.94286,183.0387,41,80,0
183.04286,183.13869,48,80,0
183.14285,183.2387,47,80,0
183.24286,183.33868,53,80,0
183.34285,183.43869,47,80,0
183.44286,183.5387,53,80,0
183.54286,183.63869,47,80,0
183.64285,183.7387,53,80,0
183.74286,183.83868,46,80,0
183.84285,183.93869,53,80,0
183.94286,184.0387,40,80,0
184.04286,184.13869,46,80,0
184.14285,184.2387,40,80,0
184.24286,184.33868,46,80,0
184.34285,184.43869,40,80,0
184.44286,184.5387,46,80,0
184.54286,184.63869,39,80,0
184.64285,184.7387,46,80,0
184.74286,184.83868,45,80,0
184.84285,184.93869,51,80,0
184.94286,185.0387,45,80,0
185.04286,185.13869,51,80,0
185.14285,185.2387,45,80,0
185.24286,185.33868,51,80,0
185.34285,185.43869,44,80,0
185.44286,185.5387,51,80,0
185.54286,185.63869,32,80,0
185.64285,185.7387,44,80,0
185.74286,185.83868,32,80,0
185.84285,185.93869,44,80,0
185.94286,186.0387,32,80,0
186.04286,186.13869,44,80,0
186.14285,186.2387,33,80,0
186.24286,186.33868,45,80,0
186.34285,186.43869,31,110,0
186.44286,186.5387,43,110,0
186.54286,186.63869,31,110,0
186.64285,186.7387,43,110,0
186.74286,186.83868,31,110,0
186.84285,186.93869,43,110,0
186.94286,187.0387,31,110,0
187.04286,187.13869,43,110,0
187.14285,187.2387,33,110,0
187.24286,187.33868,45,110,0
187.34285,187.43869,33,110,0
187.44286,187.5387,45,110,0
187.54286,187.7387,44,110,0
187.94286,188.13869,57,80,0
188.14285,188.33868,56,80,0
188.34285,188.5387,44,80,0
188.74286,188.93869,57,80,0
188.94286,189.13869,56,80,0
189.14285,189.33868,44,80,0
189.54286,189.7387,57,80,0
189.74286,189.93869,56,80,0
189.94286,190.13869,57,80,0
190.14285,190.33868,56,80,0
190.34285,190.5387,60,80,0
190.54286,190.7387,63,80,0
190.74286,190.93869,49,80,0
191.14285,191.33868,63,80,0
191.34285,191.5387,61,80,0
191.54286,191.7387,49,80,0
191.94286,192.13869,63,80,0
192.14285,192.33868,61,80,0
192.34285,192.5387,49,80,0
192.74286,192.93869,63,80,0
192.94286,193.13869,61,80,0
193.14285,193.33868,63,80,0
193.34285,193.5387,61,80,0
193.54286,193.7387,60,80,0
193.74286,193.93869,58,80,0
193.94286,194.13869,44,80,0
194.34285,194.5387,57,80,0
194.54286,194.7387,56,80,0
194.74286,194.93869,44,80,0
195.14285,195.33868,57,80,0
195.34285,195.5387,56,80,0
195.54286,195.7387,44,80,0
195.94286,196.13869,57,80,0
196.14285,196.33868,56,80,0
196.34285,196.5387,57,80,0
196.54286,196.7387,56,80,0
196.74286,196.93869,60,80,0
196.94286,197.13869,63,80,0
197.14285,197.33868,62,80,0
197.34285,197.5387,61,80,0
197.54286,197.7387,65,80,0
197.74286,197.93869,68,80,0
197.94286,198.13869,67,80,0
198.14285,198.33868,66,80,0
198.34285,198.5387,70,80,0
198.54286,198.7387,58,80,0
198.74286,198.93869,72,80,0
198.94286,199.13869,71,80,0
199.14285,199.33868,75,80,0
199.34285,199.5387,63,80,0
199.54286,199.7387,77,80,0
199.74286,199.93869,76,80,0
199.94286,200.13869,80,80,0
200.14285,200.33868,68,80,0
200.34285,200.5387,70,80,0
200.54286,200.7387,69,80,0
200.74286,200.93869,73,80,0
200.94286,201.13869,61,80,0
201.14285,201.33868,75,80,0
201.34285,201.5387,74,80,0
201.54286,201.7387,78,80,0
201.74286,201.93869,66,80,0
201.94286,202.13869,68,80,0
202.14285,202.33868,67,80,0
202.34285,202.5387,70,80,0
202.54286,202.7387,58,80,0
202.74286,202.93869,73,80,0
202.94286,203.13869,72,80,0
203.14285,203.33868,76,80,0
203.34285,203.5387,64,80,0
203.54286,203.7387,65,80,0
203.74286,203.93869,61,82,0
203.94286,204.13869,62,85,0
204.14285,204.33868,57,87,0
204.34285,204.5387,58,90,0
204.54286,204.7387,54,93,0
204.74286,204.93869,55,95,0
204.94286,205.13869,45,98,0
205.14285,205.33868,46,100,0
205.34285,205.5387,47,103,0
205.54286,205.7387,48,106,0
205.74286,205.93869,50,108,0
205.94286,206.0387,36,110,0
206.04286,206.13869,40,110,0
206.14285,206.2387,43,110,0
206.24286,206.33868,48,110,0
206.34285,206.43869,38,110,0
206.44286,206.5387,47,110,0
206.54286,206.63869,40,110,0
206.64285,206.7387,48,110,0
206.74286,206.83868,41,110,0
206.84285,206.93869,50,110,0
206.94286,207.0387,43,110,0
207.04286,207.13869,52,110,0
207.14285,207.2387,45,110,0
207.24286,207.33868,53,110,0
207.34285,207.43869,47,110,0
207.44286,207.5387,55,110,0
207.54286,207.63869,52,100,0
207.64285,207.93869,48,94,0
207.94286,208.13869,55,80,0
208.14285,208.5387,55,80,0
208.54286,208.93869,55,80,0
208.94286,209.13869,55,80,0
209.14285,209.2387,48,110,0
209.24286,209.33868,52,110,0
209.34285,209.43869,55,110,0
209.44286,209.5387,60,110,0
209.54286,209.63869,50,110,0
209.64285,209.7387,59,110,0
209.74286,209.83868,52,110,0
209.84285,209.93869,60,110,0
209.94286,210.0387,53,110,0
210.04286,210.13869,62,110,0
210.14285,210.2387,55,110,0
210.24286,210.33868,64,110,0
210.34285,210.43869,57,110,0
210.44286,210.5387,65,110,0
210.54286,210.63869,59,110,0
210.64285,210.7387,67,110,0
210.74286,210.93869,60,100,0
210.74286,210.93869,64,100,0
211.54286,211.63869,55,80,0
211.64285,211.7387,64,80,0
211.74286,211.83868,57,80,0
211.84285,211.93869,65,80,0
211.94286,212.0387,53,80,0
212.04286,212.13869,62,80,0
212.14285,212.2387,55,80,0
212.24286,212.33868,64,80,0
212.34285,212.43869,52,80,0
212.44286,212.5387,60,80,0
213.14285,213.2387,64,80,0
213.24286,213.33868,67,80,0
213.34285,213.43869,65,80,0
213.44286,213.5387,69,80,0
213.54286,213.63869,62,80,0
213.64285,213.7387,65,80,0
213.74286,213.83868,64,80,0
213.84285,213.93869,67,80,0
213.94286,214.0387,60,80,0
214.04286,214.13869,64,80,0
214.74286,214.83868,64,80,0
214.84285,214.93869,67,80,0
214.94286,215.0387,65,80,0
215.04286,215.13869,69,80,0
215.14285,215.2387,62,80,0
215.24286,215.33868,65,80,0
215.34285,215.43869,64,80,0
215.44286,215.5387,67,80,0
215.54286,215.63869,60,80,0
215.64285,215.7387,64,80,0
215.74286,215.83868,62,81,0
215.84285,215.93869,65,82,0
215.94286,216.0387,58,83,0
216.04286,216.13869,62,84,0
216.14285,216.2387,60,85,0
216.24286,216.33868,64,86,0
216.34285,216.43869,57,86,0
216.44286,216.5387,60,87,0
216.54286,216.63869,58,88,0
216.64285,216.7387,62,89,0
216.74286,216.83868,55,90,0
216.84285,216.93869,58,91,0
216.94286,217.0387,57,92,0
217.04286,217.13869,60,93,0
217.14285,217.2387,53,93,0
217.24286,217.33868,57,94,0
217.34285,217.43869,55,95,0
217.44286,217.5387,58,96,0
217.54286,217.63869,57,97,0
217.64285,217.7387,60,98,0
217.74286,217.83868,58,99,0
217.84285,217.93869,62,99,0
217.94286,218.0387,57,100,0
218.04286,218.13869,60,98,0
218.14285,218.2387,55,95,0
218.24286,218.33868,58,92,0
218.34285,218.43869,53,89,0
218.44286,218.5387,57,86,0
218.54286,218.63869,48,83,0
218.64285,218.7387,55,81,0
218.74286,218.83868,29,80,0
218.84285,218.93869,41,80,0
218.94286,219.0387,29,81,0
219.04286,219.13869,41,82,0
219.14285,219.2387,29,83,0
219.24286,219.33868,41,84,0
219.34285,219.43869,29,85,0
219.44286,219.5387,41,86,0
219.54286,219.63869,29,87,0
219.64285,219.7387,41,88,0
219.74286,219.83868,29,89,0
219.84285,219.93869,41,90,0
219.94286,220.0387,29,91,0
220.04286,220.13869,41,92,0
220.14285,220.2387,29,93,0
220.24286,220.33868,41,94,0
220.34285,220.43869,29,95,0
220.44286,220.5387,41,96,0
220.54286,220.63869,29,97,0
220.64285,220.7387,41,98,0
220.74286,220.83868,29,99,0
220.84285,220.93869,41,100,0
220.94286,221.0387,29,101,0
221.04286,221.13869,41,102,0
221.14285,221.2387,29,103,0
221.24286,221.33868,41,104,0
221.34285,221.43869,29,105,0
221.44286,221.5387,41,106,0
221.54286,221.63869,29,107,0
221.64285,221.7387,41,108,0
221.74286,221.83868,29,108,0
221.84285,221.93869,41,109,0
221.94286,222.0387,41,110,0
222.04286,222.13869,45,110,0
222.14285,222.2387,48,110,0
222.24286,222.33868,53,110,0
222.34285,222.43869,43,110,0
222.44286,222.5387,52,110,0
222.54286,222.63869,45,110,0
222.64285,222.7387,53,110,0
222.74286,222.83868,46,110,0
222.84285,222.93869,55,110,0
222.94286,223.0387,48,110,0
223.04286,223.13869,57,110,0
223.14285,223.2387,50,110,0
223.24286,223.33868,58,110,0
223.34285,223.43869,52,110,0
223.44286,223.5387,60,110,0
223.54286,223.63869,53,110,0
223.64285,223.7387,57,110,0
223.74286,223.83868,60,110,0
223.84285,223.93869,65,110,0
223.94286,224.0387,63,110,0
224.04286,224.13869,65,110,0
224.14285,224.2387,62,110,0
224.24286,224.33868,65,110,0
224.34285,224.43869,60,110,0
224.44286,224.5387,65,110,0
224.54286,224.63869,58,110,0
224.64285,224.7387,65,110,0
224.74286,224.83868,57,110,0
224.84285,224.93869,65,110,0
224.94286,225.0387,53,110,0
225.04286,225.13869,60,110,0
225.14285,225.2387,58,100,0
225.24286,225.33868,62,94,0
225.34285,225.43869,53,87,0
225.44286,225.5387,60,81,0
225.54286,225.63869,55,80,0
225.64285,225.7387,58,80,0
225.74286,225.83868,50,80,0
225.84285,225.93869,57,80,0
225.94286,226.0387,51,80,0
226.04286,226.13869,55,80,0
226.14285,226.2387,46,80,0
226.24286,226.33868,53,80,0
226.34285,226.43869,48,80,0
226.44286,226.5387,51,80,0
226.54286,226.63869,43,80,0
226.64285,226.7387,50,80,0
226.74286,226.83868,45,80,0
226.84285,226.93869,48,81,0
226.94286,227.0387,41,83,0
227.04286,227.13869,53,85,0
227.14285,227.2387,43,87,0
227.24286,227.33868,55,89,0
227.34285,227.43869,39,91,0
227.44286,227.5387,51,93,0
227.54286,227.63869,41,95,0
227.64285,227.7387,53,97,0
227.74286,227.83868,41,99,0
227.84285,227.93869,53,101,0
227.94286,228.0387,41,103,0
228.04286,228.13869,53,105,0
228.14285,228.2387,41,107,0
228.24286,228.33868,53,109,0
228.34285,228.43869,58,80,0
228.44286,228.5387,61,80,0
228.54286,228.63869,53,80,0
228.64285,228.7387,60,80,0
228.74286,228.83868,54,80,0
228.84285,228.93869,58,80,0
228.94286,229.0387,49,80,0
229.04286,229.13869,56,80,0
229.14285,229.2387,51,80,0
229.24286,229.33868,54,80,0
229.34285,229.43869,46,80,0
229.44286,229.5387,53,80,0
229.54286,229.63869,48,80,0
229.64285,229.7387,51,80,0
229.74286,229.83868,44,80,0
229.84285,229.93869,51,80,0
229.94286,230.0387,37,80,0
230.04286,230.13869,49,84,0
230.14285,230.2387,37,88,0
230.24286,230.33868,49,92,0
230.34285,230.43869,37,97,0
230.44286,230.5387,49,101,0
230.54286,230.63869,37,105,0
230.64285,230.7387,49,109,0
230.74286,231.5387,37,110,0
231.54286,232.33868,38,110,0
232.34285,233.13869,36,110,0
233.14285,233.5387,35,110,0
233.54286,233.93869,35,110,0
234.04286,234.13869,36,94,0
234.14285,234.2387,40,87,0
234.24286,234.33868,36,81,0
234.34285,234.43869,41,80,0
234.44286,234.5387,36,80,0
234.54286,234.63869,40,80,0
234.64285,234.7387,36,80,0
234.84285,234.93869,48,80,0
234.94286,235.0387,52,80,0
235.04286,235.13869,48,80,0
235.14285,235.2387,53,80,0
235.24286,235.33868,48,80,0
235.34285,235.43869,52,80,0
235.44286,235.5387,48,80,0
235.64285,235.7387,67,80,0
235.74286,235.83868,64,80,0
235.84285,235.93869,67,80,0
235.94286,236.0387,65,80,0
236.04286,236.13869,67,80,0
236.14285,236.2387,64,80,0
236.24286,236.33868,67,80,0
236.34285,236.43869,65,80,0
236.44286,236.5387,67,80,0
236.54286,236.63869,64,80,0
236.64285,236.7387,67,80,0
236.74286,236.83868,63,80,0
236.84285,236.93869,65,80,0
236.94286,237.0387,62,80,0
237.04286,237.13869,65,80,0
237.24286,237.33868,34,80,0
237.34285,237.43869,38,80,0
237.44286,237.5387,34,80,0
237.54286,237.63869,39,80,0
237.64285,237.7387,34,80,0
237.74286,237.83868,38,80,0
237.84285,237.93869,34,80,0
238.04286,238.13869,46,80,0
238.14285,238.2387,50,80,0
238.24286,238.33868,46,80,0
238.34285,238.43869,51,80,0
238.44286,238.5387,46,80,0
238.54286,238.63869,50,80,0
238.64285,238.7387,46,80,0
238.84285,238.93869,65,80,0
238.94286,239.0387,62,80,0
239.04286,239.13869,65,80,0
239.14285,239.2387,63,80,0
239.24286,239.33868,65,80,0
239.34285,239.43869,62,80,0
239.44286,239.5387,65,80,0
239.54286,239.63869,63,80,0
239.64285,239.7387,65,80,0
239.74286,239.83868,62,80,0
239.84285,239.93869,65,80,0
239.94286,240.0387,61,80,0
240.04286,240.13869,63,80,0
240.14285,240.2387,60,80,0
240.24286,240.33868,61,80,0
240.44286,240.5387,32,80,0
240.54286,240.63869,36,80,0
240.64285,240.7387,32,80,0
240.74286,240.83868,37,80,0
240.84285,240.93869,32,80,0
240.94286,241.0387,36,80,0
241.04286,241.13869,32,80,0
241.24286,241.33868,44,80,0
241.34285,241.43869,48,80,0
241.44286,241.5387,44,80,0
241.54286,241.63869,49,80,0
241.64285,241.7387,44,80,0
241.74286,241.83868,48,80,0
241.84285,241.93869,44,80,0
242.04286,242.13869,63,81,0
242.14285,242.2387,60,82,0
242.24286,242.33868,63,83,0
242.34285,242.43869,61,85,0
242.44286,242.5387,63,86,0
242.54286,242.63869,60,87,0
242.64285,242.7387,63,89,0
242.74286,242.83868,61,90,0
242.84285,242.93869,63,91,0
242.94286,243.0387,60,93,0
243.04286,243.13869,63,94,0
243.14285,243.2387,59,95,0
243.24286,243.33868,61,96,0
243.34285,243.43869,59,98,0
243.44286,243.5387,61,99,0
243.54286,243.63869,59,100,0
243.64285,243.7387,61,102,0
243.74286,243.83868,58,103,0
243.84285,243.93869,61,104,0
243.94286,244.0387,59,106,0
244.04286,244.13869,61,107,0
244.14285,244.2387,58,108,0
244.24286,244.33868,61,109,0
244.34285,244.43869,59,110,0
244.44286,244.5387,61,110,0
244.54286,244.63869,58,110,0
244.64285,244.7387,61,110,0
244.74286,244.83868,58,110,0
244.84285,244.93869,59,110,0
244.94286,245.0387,58,110,0
245.04286,245.13869,59,110,0
245.14285,245.2387,58,110,0
245.24286,245.33868,59,110,0
245.34285,245.43869,56,110,0
245.44286,245.5387,59,110,0
245.54286,245.63869,56,110,0
245.64285,245.7387,58,110,0
245.74286,245.83868,54,110,0
245.84285,245.93869,58,110,0
245.94286,246.0387,54,110,0
246.04286,246.13869,56,110,0
246.14285,246.2387,53,110,0
246.24286,246.33868,56,110,0
246.34285,246.43869,53,110,0
246.44286,246.5387,54,110,0
246.54286,246.63869,51,110,0
246.64285,246.7387,54,110,0
246.74286,246.83868,51,110,0
246.84285,246.93869,53,110,0
246.94286,247.0387,49,110,0
247.04286,247.13869,53,110,0
247.14285,247.2387,49,120,0
247.24286,247.33868,53,120,0
247.34285,247.43869,49,120,0
247.44286,247.5387,53,120,0
247.54286,247.63869,49,120,0
247.64285,247.7387,53,120,0
247.74286,247.83868,49,120,0
247.84285,247.93869,53,120,0
247.94286,248.0387,37,120,0
248.04286,248.13869,49,120,0
248.14285,248.2387,37,120,0
248.24286,248.33868,49,120,0
248.34285,248.5387,48,120,0
248.34285,248.5387,36,120,0
248.54286,248.7387,61,80,0
248.74286,248.93869,59,80,0
248.94286,249.13869,60,80,0
249.14285,249.33868,48,80,0
249.34285,249.5387,61,80,0
249.54286,249.7387,59,80,0
249.74286,249.93869,60,80,0
249.94286,250.13869,48,80,0
250.14285,250.33868,61,80,0
250.34285,250.5387,59,80,0
250.54286,250.7387,60,80,0
250.74286,250.93869,48,80,0
250.94286,251.13869,61,80,0
251.14285,251.33868,59,80,0
251.34285,251.5387,60,80,0
251.54286,251.7387,52,80,0
251.74286,251.93869,62,80,0
251.94286,252.0387,59,80,0
252.14285,252.33868,62,80,0
252.34285,252.43869,59,80,0
252.54286,252.7387,62,80,0
252.74286,252.83868,59,80,0
252.94286,253.13869,62,80,0
253.14285,253.2387,59,80,0
253.34285,253.5387,60,80,0
253.54286,253.63869,59,80,0
253.74286,253.93869,60,80,0
253.94286,254.0387,59,80,0
254.14285,254.33868,60,80,0
254.34285,254.43869,59,80,0
254.54286,254.7387,60,80,0
254.74286,254.83868,58,80,0
254.79286,254.87202,60,80,0
254.84285,254.9262,58,80,0
254.89285,254.98036,60,80,0
254.94286,255.0387,58,80,0
254.99286,255.07202,60,80,0
255.04286,255.12619,58,80,0
255.09285,255.18036,60,80,0
255.14285,255.2387,58,80,0
255.19286,255.27202,60,80,0
255.24286,255.32619,58,80,0
255.29286,255.38036,60,80,0
255.34285,255.43869,58,80,0
255.39285,255.47203,60,80,0
255.44286,255.52618,58,80,0
255.49286,255.58035,60,80,0
255.54286,255.63869,58,80,0
255.59285,255.67203,60,80,0
255.64285,255.7262,58,80,0
255.69286,255.78035,60,80,0
255.74286,255.83868,58,80,0
255.79286,255.87202,60,80,0
255.84285,255.9262,58,80,0
255.89285,255.98036,60,80,0
255.94286,256.0387,58,80,0
255.99286,256.07202,60,80,0
256.04285,256.1262,58,80,0
256.09286,256.18036,60,80,0
256.14285,256.23868,58,80,0
256.19287,256.27203,60,80,0
256.24286,256.3262,57,80,0
256.29285,256.33868,58,80,0
256.34286,256.4387,29,110,0
256.44287,256.5387,41,110,0
256.54285,256.6387,29,110,0
256.64285,256.73868,41,110,0
256.74286,256.83868,29,110,0
256.84286,256.9387,41,110,0
256.94287,257.0387,29,110,0
257.04285,257.1387,41,110,0
257.14285,257.23868,29,110,0
257.24286,257.33868,41,110,0
257.34286,257.4387,29,110,0
257.44287,257.5387,41,110,0
257.54285,257.6387,29,110,0
257.64285,257.73868,41,110,0
257.74286,257.83868,29,110,0
257.84286,257.9387,41,110,0
257.94287,258.0387,29,110,0
258.04285,258.1387,41,110,0
258.14285,258.23868,29,110,0
258.24286,258.33868,41,110,0
258.34286,258.4387,29,110,0
258.44287,258.5387,41,110,0
258.54285,258.6387,29,110,0
258.64285,258.73868,41,110,0
258.74286,258.83868,29,110,0
258.84286,258.9387,41,110,0
258.94287,259.0387,29,110,0
259.04285,259.1387,41,110,0
259.14285,259.23868,29,110,0
259.24286,259.33868,41,110,0
259.34286,259.4387,29,110,0
259.44287,259.5387,41,110,0
259.54285,259.6387,29,110,0
259.64285,259.73868,41,110,0
259.74286,259.83868,29,110,0
259.84286,259.9387,41,110,0
259.94287,260.0387,31,110,0
260.04285,260.1387,43,110,0
260.14285,260.23868,33,110,0
260.24286,260.33868,45,110,0
260.34286,260.4387,33,110,0
260.44287,260.5387,45,110,0
260.54285,260.6387,34,110,0
260.64285,260.73868,46,110,0
260.74286,260.83868,37,110,0
260.84286,260.9387,49,110,0
260.94287,261.0387,38,110,0
261.04285,261.1387,50,110,0
261.14285,261.23868,39,110,0
261.24286,261.33868,51,110,0
261.34286,261.4387,40,110,0
261.44287,261.5387,52,110,0
261.54285,261.6387,42,110,0
261.64285,261.73868,54,110,0
261.74286,261.83868,43,110,0
261.84286,261.9387,55,110,0
261.94287,262.1387,57,110,0
261.94287,262.1387,45,110,0
262.14285,262.33868,58,110,0
262.14285,262.33868,46,110,0
262.34286,262.5387,60,110,0
262.34286,262.5387,48,110,0
262.54285,262.73868,36,110,0
262.74286,262.83868,29,110,0
262.84286,262.9387,41,110,0
262.94287,263.0387,29,110,0
263.04285,263.1387,41,110,0
263.14285,263.23868,29,110,0
263.24286,263.33868,41,110,0
263.34286,263.4387,29,110,0
263.44287,263.5387,41,110,0
263.54285,263.6387,29,110,0
263.64285,263.73868,41,110,0
263.74286,263.83868,29,110,0
263.84286,263.9387,41,110,0
263.94287,264.0387,29,110,0
264.04285,264.1387,41,110,0
264.14285,264.23868,29,110,0
264.24286,264.33868,41,110,0
264.34286,264.4387,29,110,0
264.44287,264.5387,41,110,0
264.54285,264.6387,29,110,0
264.64285,264.73868,41,110,0
264.74286,264.83868,29,110,0
264.84286,264.9387,41,110,0
264.94287,265.0387,29,110,0
265.04285,265.1387,41,110,0
265.14285,265.23868,29,110,0
265.24286,265.33868,41,110,0
265.34286,265.4387,29,110,0
265.44287,265.5387,41,110,0
265.54285,265.6387,29,110,0
265.64285,265.73868,41,110,0
265.74286,265.83868,29,110,0
265.84286,265.9387,41,110,0
265.94287,266.0387,29,110,0
266.04285,266.1387,41,110,0
266.14285,266.23868,29,110,0
266.24286,266.33868,41,110,0
266.34286,266.4387,31,110,0
266.44287,266.5387,43,110,0
266.54285,266.6387,33,110,0
266.64285,266.73868,45,110,0
266.74286,266.83868,33,110,0
266.84286,266.9387,45,110,0
266.94287,267.0387,34,110,0
267.04285,267.1387,46,110,0
267.14285,267.23868,37,110,0
267.24286,267.33868,49,110,0
267.34286,267.4387,38,110,0
267.44287,267.5387,50,110,0
267.54285,267.6387,39,110,0
267.64285,267.73868,51,110,0
267.74286,267.83868,40,110,0
267.84286,267.9387,52,110,0
267.94287,268.0387,42,110,0
268.04285,268.1387,54,110,0
268.14285,268.23868,43,110,0
268.24286,268.33868,55,110,0
268.34286,268.5387,57,110,0
268.34286,268.5387,45,110,0
268.54285,268.73868,58,110,0
268.54285,268.73868,46,110,0
268.74286,268.9387,60,110,0
268.74286,268.9387,48,110,0
268.94287,269.1387,48,110,0
268.94287,269.1387,36,110,0
269.14285,269.33868,57,110,0
269.14285,269.33868,45,110,0
269.34286,269.5387,58,110,0
269.34286,269.5387,46,110,0
269.54285,269.73868,60,110,0
269.54285,269.73868,48,110,0
269.74286,269.9387,48,110,0
269.74286,269.9387,36,110,0
269.94287,270.1387,57,110,0
269.94287,270.1387,45,110,0
270.14285,270.33868,58,110,0
270.14285,270.33868,46,110,0
270.34286,270.5387,60,110,0
270.34286,270.5387,48,110,0
270.54285,270.73868,48,110,0
270.54285,270.73868,36,110,0
270.74286,270.92203,41,110,0
270.84286,271.0387,45,110,0
270.94287,271.11786,50,110,0
271.04285,271.2262,53,110,0
271.14285,271.33035,44,110,0
271.24286,271.43036,52,110,0
271.34286,271.53036,45,110,0
271.44287,271.5387,53,110,0
271.54285,271.72202,41,110,0
271.64285,271.83868,45,110,0
271.74286,271.91785,50,110,0
271.84286,272.02618,53,110,0
271.94287,272.13037,44,110,0
272.04285,272.23035,52,110,0
272.14285,272.33035,45,110,0
272.24286,272.33868,53,110,0
272.34286,272.52203,41,110,0
272.44287,272.6387,45,110,0
272.54285,272.71786,50,110,0
272.64285,272.8262,53,110,0
272.74286,272.93036,44,110,0
272.84286,273.03036,52,110,0
272.94287,273.13037,45,110,0
273.04285,273.1387,53,110,0
273.14285,273.33035,44,110,0
273.24286,273.43036,52,110,0
273.34286,273.53036,45,110,0
273.44287,273.5387,53,110,0
273.54285,273.73035,44,110,0
273.64285,273.83035,52,110,0
273.74286,273.93036,45,110,0
273.84286,273.9387,53,110,0
273.94287,274.1387,48,110,0
273.94287,274.1387,41,110,0
274.34286,274.5387,48,110,0
274.34286,274.5387,41,110,0
274.54285,275.1387,41,110,0
274.54285,275.1387,48,110,0
275.14285,275.33868,48,110,0
275.14285,275.33868,41,110,0
275.34286,275.9387,41,110,0
275.34286,275.9387,48,110,0
275.94287,276.1387,48,120,0
275.94287,276.1387,41,120,0
276.14285,276.55267,41,120,0
276.14285,276.55267,48,120,0
276.55713,276.99738,48,120,0
276.55713,276.99738,41,120,0
277.0022,277.5267,41,120,0
277.0022,277.5267,48,120,0
277.83298,278.42673,41,120,0
277.83298,278.42673,29,120,0
