start_time,end_time,note_value,velocity,instrument_program_number
0.0,1.0491071,55,60,42
1.0714285,3.1919641,55,60,42
3.2142856,4.4610453,55,60,42
4.4922953,7.1485453,55,60,42
7.1708665,7.8851523,43,60,42
7.8405094,7.974438,45,60,42
7.974438,8.108367,43,60,42
8.108367,8.242295,42,60,42
8.242295,8.376224,43,60,42
8.376224,8.510152,45,60,42
8.510152,8.644081,43,60,42
8.644081,8.778009,41,60,42
8.778009,9.827116,40,60,42
9.849438,11.969974,41,60,42
11.992295,13.041402,40,60,42
13.063724,15.719974,40,60,42
15.742294,16.456581,48,60,42
16.411938,16.545866,50,60,42
16.545866,16.679794,48,60,42
16.679794,16.813723,47,60,42
16.813723,16.94765,48,60,42
16.94765,17.081581,50,60,42
17.081581,17.21551,48,60,42
17.21551,17.349438,46,60,42
17.349438,17.862831,45,100,42
17.88515,18.688723,57,60,42
18.688723,18.95658,64,60,42
18.95658,19.224438,61,60,42
19.224438,19.492294,56,60,42
19.492294,19.76015,57,60,42
19.76015,20.02801,51,60,42
20.02801,20.295866,52,60,42
20.295866,20.563723,48,60,42
20.563723,20.852184,49,60,42
20.852184,21.140646,44,60,42
21.140646,21.466732,45,60,42
21.466732,21.841732,40,60,42
21.841732,23.962269,37,85,42
23.98459,26.105125,38,110,42
26.127447,28.247982,40,110,42
28.270304,30.588491,41,110,42
31.723314,32.77242,38,72,42
32.794743,33.84385,37,85,42
33.86617,34.91528,46,98,42
34.9376,35.986706,42,110,42
36.00903,37.058136,51,110,42
37.080456,38.129562,50,110,42
38.151886,39.200993,43,70,42
39.223312,41.34385,47,92,42
41.36617,43.486706,36,112,42
41.36617,43.486706,48,111,42
43.509026,45.629562,38,110,42
43.509026,45.629562,50,110,42
45.651882,49.034893,39,110,42
45.651882,49.034893,51,110,42
49.057217,50.106323,36,70,42
49.057217,50.106323,48,70,42
50.128643,52.24918,36,70,42
50.128643,52.24918,44,70,42
52.2715,53.32061,43,60,42
53.34293,54.93891,62,60,42
54.950073,55.474625,59,60,42
55.485786,56.28936,67,60,42
56.28936,56.534893,66,60,42
56.557217,57.606323,66,60,42
57.628643,58.1532,64,60,42
58.164356,58.68891,60,60,42
58.700073,59.224625,57,60,42
59.235786,59.76034,62,60,42
59.7715,60.296055,60,60,42
60.307217,60.831768,57,60,42
60.84293,64.0349,55,60,42
64.05721,66.17775,67,60,42
66.20007,66.73579,65,60,42
66.73579,67.2715,62,60,42
67.2715,67.33846,59,60,42
67.33846,67.405426,60,60,42
67.405426,67.4724,59,60,42
67.4724,67.53936,60,60,42
67.53936,67.60632,59,60,42
67.60632,67.67329,60,60,42
67.67329,67.74025,59,60,42
67.74025,67.80721,60,60,42
67.80721,67.874176,59,60,42
67.874176,67.94115,60,60,42
67.94115,68.00811,59,60,42
68.00811,68.07507,60,60,42
68.07507,68.14204,59,60,42
68.14204,68.209,60,60,42
68.209,68.27596,59,60,42
68.27596,68.342926,60,60,42
68.342926,68.4099,59,60,42
68.4099,68.47686,60,60,42
68.47686,68.54382,59,60,42
68.54382,68.61079,60,60,42
68.61079,68.67775,59,60,42
68.67775,68.74471,60,60,42
68.74471,68.811676,59,60,42
68.811676,68.87865,60,60,42
68.87865,68.94561,59,60,42
68.94561,69.01257,60,60,42
69.01257,69.07954,59,60,42
69.07954,69.1465,60,60,42
69.1465,69.39204,62,60,42
69.41436,70.46346,65,60,42
72.29181,72.86873,67,60,42
72.86873,73.44565,65,60,42
73.44565,74.022575,62,60,42
74.022575,74.599495,50,60,42
74.022575,74.599495,59,60,42
74.599495,75.17642,43,60,42
75.17642,75.75334,41,60,42
75.75334,76.33027,38,60,42
76.33027,76.61873,37,60,42
76.61873,76.90719,38,60,42
76.90719,77.19565,43,60,42
77.19565,77.484116,55,60,42
77.484116,78.036995,67,60,42
78.061035,78.73087,67,60,42
78.76212,84.36759,67,60,42
84.38712,86.24259,67,60,42
86.26212,87.18009,64,60,42
87.19962,87.66837,64,60,42
87.66837,88.13712,65,65,42
88.13712,88.60587,67,70,42
88.60587,89.07462,64,75,42
89.07462,89.42879,72,80,42
89.57462,89.95409,72,85,42
90.11034,91.03807,72,90,42
91.04784,91.97557,67,100,42
91.98534,92.903305,64,100,42
92.92284,93.840805,64,100,42
93.86034,94.309555,65,88,42
94.79784,95.29784,62,76,42
95.29784,95.83355,67,70,42
95.83355,97.68902,67,60,42
97.70855,98.15777,65,60,42
98.1773,98.62652,64,60,42
98.64605,98.724174,65,60,42
98.724174,98.880424,64,60,42
98.880424,99.1148,62,62,42
99.1148,99.349174,64,65,42
99.349174,99.58355,65,67,42
99.58355,99.817924,67,70,42
99.817924,100.0523,65,72,42
100.0523,100.286674,67,75,42
100.286674,100.52105,64,77,42
100.52105,100.73589,72,80,42
100.755424,100.97027,72,83,42
100.9898,101.20464,72,85,42
101.224174,101.43902,72,88,42
101.45855,102.37652,72,90,42
102.39605,103.31402,67,100,42
103.33355,103.78277,65,100,42
103.8023,104.25152,64,100,42
104.27105,105.18902,64,100,42
105.20855,105.65777,65,88,42
106.14605,107.15945,62,76,42
107.18176,108.09973,60,60,42
108.11926,109.03723,59,60,42
109.05676,109.97473,57,60,42
109.99426,111.84973,55,60,42
111.86926,112.31848,57,60,42
112.33801,112.78723,59,60,42
112.80676,112.88489,62,60,42
112.88489,113.04114,60,60,42
113.04114,113.27551,59,60,42
113.27551,113.50989,60,60,42
113.50989,113.74426,62,60,42
113.74426,113.82239,65,60,42
113.82239,113.97864,64,60,42
113.97864,114.21301,62,60,42
114.21301,114.44739,64,60,42
114.44739,114.68176,60,60,42
114.68176,115.013794,67,60,42
115.15051,115.504684,67,60,42
115.65051,116.629684,67,60,42
116.65051,117.69962,65,60,42
117.72195,117.821945,62,60,42
117.821945,117.92194,64,60,42
117.92194,118.02194,62,60,42
118.02194,118.09695,64,60,42
118.09695,118.17194,62,60,42
118.17194,118.24694,64,60,42
118.24694,118.321945,62,60,42
118.321945,118.38891,64,60,42
118.38891,118.45587,62,60,42
118.45587,118.522835,64,60,42
118.522835,118.5898,62,60,42
118.5898,118.65677,64,60,42
118.65677,118.72373,62,60,42
118.72373,118.790695,64,60,42
118.790695,118.85766,62,60,42
118.85766,118.92016,64,60,42
118.92016,118.98266,62,60,42
118.98266,119.04516,64,60,42
119.04516,119.10766,62,60,42
119.10766,119.17016,64,60,42
119.17016,119.23266,62,60,42
119.23266,119.29516,64,60,42
119.29516,119.35766,62,60,42
119.35766,119.42016,64,60,42
119.42016,119.48266,62,60,42
119.48266,119.54516,64,60,42
119.54516,119.60766,62,60,42
119.60766,119.67016,64,60,42
119.67016,119.73266,62,60,42
119.73266,119.79516,64,60,42
119.79516,119.85766,62,60,42
119.85766,119.92016,64,60,42
119.92016,119.98266,62,60,42
119.98266,120.04516,64,60,42
120.04516,120.10766,62,60,42
120.10766,120.17016,64,60,42
120.17016,120.23266,62,60,42
120.23266,120.29516,64,60,42
120.29516,120.35766,62,60,42
120.35766,120.42016,64,60,42
120.42016,120.48266,62,60,42
120.48266,120.54516,64,60,42
120.54516,120.60766,62,60,42
120.60766,120.67016,64,60,42
120.67016,120.73266,62,60,42
120.73266,120.79516,64,60,42
120.79516,120.85766,62,60,42
120.85766,120.92016,64,60,42
120.92016,120.98266,62,60,42
120.98266,121.04516,64,60,42
121.04516,121.10766,62,60,42
121.10766,121.17016,64,60,42
121.17016,121.23266,62,60,42
121.23266,121.29516,64,60,42
121.29516,121.35766,62,60,42
121.35766,121.42016,64,60,42
121.42016,121.48266,62,60,42
121.48266,121.54516,64,60,42
121.54516,121.60766,62,60,42
121.60766,121.67016,64,60,42
121.67016,121.73266,62,60,42
121.73266,121.79516,64,60,42
121.79516,121.85766,62,60,42
121.85766,121.92016,64,60,42
121.92016,121.98266,62,60,42
121.98266,122.04516,64,60,42
122.04516,122.10766,62,60,42
122.10766,122.17016,64,60,42
122.17016,122.23266,62,60,42
122.23266,122.29516,64,60,42
122.29516,122.35766,62,60,42
122.35766,122.42016,64,60,42
122.42016,122.48266,62,60,42
122.48266,122.54516,64,60,42
122.54516,122.60766,62,60,42
122.60766,122.67016,64,60,42
122.67016,122.73266,62,60,42
122.73266,122.79516,64,60,42
122.79516,122.85766,62,60,42
122.85766,122.92016,64,60,42
122.92016,122.98266,62,60,42
122.98266,123.04516,64,60,42
123.04516,123.10766,62,60,42
123.10766,123.17016,64,60,42
123.17016,123.23266,62,60,42
123.23266,123.29516,64,60,42
123.29516,123.35766,62,60,42
123.35766,123.42016,64,60,42
123.42016,123.48266,62,60,42
123.48266,123.54516,64,60,42
123.54516,123.60766,62,60,42
123.60766,123.67016,64,60,42
123.67016,123.73266,62,60,42
123.73266,123.79516,64,60,42
123.79516,123.85766,62,60,42
123.85766,123.92462,64,60,42
123.92462,123.991585,62,60,42
123.991585,124.05855,64,60,42
124.05855,124.12552,62,60,42
124.12552,124.19248,64,60,42
124.19248,124.259445,62,60,42
124.259445,124.32641,64,60,42
124.32641,124.39337,62,60,42
124.39337,124.46837,64,60,42
124.46837,124.54337,62,60,42
124.54337,124.61837,64,60,42
124.61837,124.693375,62,60,42
124.693375,124.84337,60,60,42
124.84337,124.99337,62,60,42
124.99337,125.23817,64,70,42
125.74337,127.98817,72,70,42
128.49338,128.74338,67,70,42
128.74338,128.86838,69,70,42
128.86838,128.99338,71,70,42
128.99338,129.23816,72,70,42
132.74338,133.73816,72,70,42
133.74338,134.61316,65,70,42
134.61838,134.74338,55,70,42
134.74338,134.86838,57,70,42
134.86838,134.99338,59,70,42
134.99338,135.11838,60,70,42
135.11838,135.24338,59,70,42
135.24338,135.36838,60,70,42
135.36838,135.49338,62,70,42
135.49338,135.61838,64,70,42
135.61838,135.74338,65,70,42
135.74338,135.86316,67,70,42
135.86838,135.98816,67,70,42
135.99338,136.16003,64,70,42
136.16003,136.3267,72,70,42
136.3267,136.49338,71,70,42
136.49338,136.66003,72,70,42
136.66003,136.8267,76,70,42
136.8267,136.99338,74,70,42
136.99338,137.16003,76,70,42
137.16003,137.3267,74,70,42
137.3267,137.49338,72,70,42
137.49338,137.66003,71,70,42
137.66003,137.8267,72,70,42
137.8267,137.99338,67,70,42
137.99338,138.11838,70,70,42
138.11838,138.24338,69,75,42
138.24338,138.36838,67,80,42
138.49338,138.61838,67,90,42
138.61838,138.74338,65,95,42
138.74338,138.86838,64,100,42
138.99338,139.53314,64,70,42
139.53883,139.80588,62,70,42
139.81155,139.93655,64,70,42
139.93655,140.06155,65,70,42
140.06155,140.31155,67,70,42
140.31155,140.43655,69,70,42
140.43655,140.56155,71,70,42
140.56155,140.80635,72,70,42
141.06155,141.31155,64,70,42
141.31155,141.43655,65,70,42
141.43655,141.56155,67,70,42
141.56155,141.80635,69,70,42
142.06155,142.30635,62,70,42
142.31155,142.43655,64,70,42
142.43655,142.56155,65,70,42
142.56155,142.74385,67,70,42
142.81155,142.99385,65,70,42
143.06155,143.24385,64,70,42
143.31155,143.49385,60,70,42
143.56155,143.74385,55,70,42
144.06155,145.80635,36,70,42
145.81155,146.05635,36,70,42
146.06155,146.30635,37,70,42
146.31155,146.55635,37,80,42
146.56155,146.80635,38,90,42
146.81155,146.93655,40,100,42
146.93655,147.06155,41,85,42
147.06155,147.32384,43,70,42
147.3294,147.59169,42,70,42
147.59727,147.85954,43,70,42
147.86513,148.1274,64,70,42
148.13298,148.25798,67,76,42
148.25798,148.38298,65,80,42
148.38298,148.50798,64,83,42
148.63298,148.75798,64,90,42
148.75798,148.88298,62,94,42
148.88298,149.00798,60,97,42
149.13298,149.25798,60,110,42
149.25798,149.37778,59,110,42
149.38298,149.50798,59,110,42
149.63298,149.87778,60,110,42
149.88298,149.96631,43,110,42
149.96631,150.04965,45,110,42
150.04965,150.13298,47,110,42
150.13298,150.25798,48,110,42
150.25798,150.38298,47,70,42
150.38298,150.50798,48,70,42
150.50798,150.63298,43,70,42
150.63298,150.75798,50,70,42
150.75798,150.88298,43,70,42
150.88298,151.00798,52,70,42
151.00798,151.13298,43,70,42
151.13298,151.25798,53,100,42
151.25798,151.38298,52,70,42
151.38298,151.50798,53,70,42
151.50798,151.63298,43,70,42
151.63298,151.75798,55,70,42
151.75798,151.88298,53,70,42
151.88298,152.00798,52,70,42
152.00798,152.13298,50,70,42
152.13298,152.25798,48,70,42
152.25798,152.38298,47,72,42
152.38298,152.50798,48,75,42
152.50798,152.63298,43,77,42
152.63298,152.75798,50,80,42
152.75798,152.88298,43,82,42
152.88298,153.00798,52,85,42
153.00798,153.13298,43,87,42
153.13298,153.25798,53,90,42
153.25798,153.38298,43,93,42
153.38298,153.50798,54,95,42
153.50798,153.63298,43,98,42
153.63298,153.88622,55,100,42
153.8916,154.14484,56,105,42
154.15022,154.39502,57,100,42
154.65022,154.89502,59,70,42
154.90022,155.14502,60,70,42
155.15022,155.39502,62,100,42
155.65022,155.89502,60,70,42
155.90022,156.14502,59,70,42
156.15022,156.39502,57,70,42
156.40022,156.64502,48,74,42
156.65022,156.89502,49,78,42
156.90022,157.14502,61,82,42
157.15022,157.27522,62,86,42
157.27522,157.40022,50,88,42
157.40022,157.52522,52,90,42
157.52522,157.65022,54,92,42
157.65022,157.77522,55,94,42
157.77522,157.90022,57,96,42
157.90022,158.02522,59,98,42
158.02522,158.15022,60,100,42
158.15022,158.38712,59,100,42
158.6341,158.8105,60,70,42
158.87602,159.05244,62,70,42
159.11797,159.35486,62,100,42
159.60184,159.77824,62,70,42
159.84377,160.02017,60,70,42
160.08571,160.26212,59,70,42
160.32764,160.50404,59,74,42
160.56956,160.74599,60,78,42
160.81151,160.98792,62,83,42
161.05344,161.22986,62,87,42
161.29538,161.47179,54,92,42
161.53731,161.71373,55,96,42
161.77925,161.95566,57,100,42
162.02118,162.19759,59,70,42
162.26312,162.43953,59,70,42
162.50505,162.68146,59,70,42
162.747,162.98892,57,70,42
162.98892,163.16533,59,70,42
163.23085,163.40727,59,70,42
163.4728,163.6492,59,70,42
163.71472,163.95667,60,70,42
163.95667,164.13307,62,70,42
164.1986,164.37502,62,65,42
164.44054,164.61694,64,60,42
165.6502,165.8871,60,70,42
165.89214,166.0131,59,70,42
166.0131,166.13408,57,70,42
166.13408,166.25505,59,70,42
166.25505,166.376,55,70,42
166.376,166.49698,60,70,42
166.49698,166.61795,62,70,42
166.61795,166.73892,64,70,42
166.73892,166.85988,62,70,42
166.85988,166.98085,59,70,42
166.98085,167.10182,57,70,42
167.10182,167.22278,59,70,42
167.22278,167.34375,55,70,42
167.34375,167.46472,64,70,42
167.46472,167.5857,65,70,42
167.5857,167.70665,67,70,42
167.70665,167.82259,65,70,42
167.82762,167.9486,65,70,42
167.9486,168.06956,64,70,42
168.06956,168.19052,65,70,42
168.19052,168.3115,62,70,42
168.3115,168.43246,64,70,42
168.43246,168.55342,62,70,42
168.55342,168.6744,64,70,42
168.6744,168.79536,60,70,42
168.79536,168.91634,59,70,42
168.91634,169.0373,62,70,42
169.0373,169.15826,64,70,42
169.15826,169.27924,62,70,42
169.27924,169.40019,57,70,42
169.40019,169.52116,62,70,42
169.52116,169.64214,64,70,42
169.64214,169.7631,62,70,42
169.7631,170.7258,61,70,42
170.73083,171.20967,62,87,42
171.2147,172.17741,38,96,42
172.18245,172.41934,36,70,42
172.4244,172.66129,48,70,42
172.66632,173.14516,47,70,42
173.15019,174.35483,67,75,42
174.35986,174.59676,61,87,42
174.6018,174.8387,62,90,42
174.84373,174.9647,64,93,42
174.9647,175.08568,66,94,42
175.08568,175.20663,67,95,42
175.20663,175.3276,69,96,42
175.3276,175.44858,71,98,42
175.44858,175.56955,72,99,42
175.56955,175.74596,74,100,42
175.81148,175.98788,71,103,42
176.0534,176.22983,69,105,42
176.29535,176.47176,74,108,42
176.53728,176.71957,74,125,42
176.78728,176.96957,71,100,42
177.03728,177.21957,69,100,42
177.28728,177.46957,74,100,42
177.53728,177.71957,74,125,42
177.78728,177.96957,71,100,42
178.03728,178.21957,69,100,42
178.28728,178.46957,74,100,42
178.53728,178.71957,74,125,42
178.78728,178.96957,71,100,42
179.03728,179.21957,69,100,42
179.28728,179.46957,78,100,42
179.53728,179.78207,79,100,42
179.78728,180.03207,43,100,42
180.28728,180.78207,43,100,42
180.78728,180.96957,47,100,42
181.03728,181.21957,50,100,42
181.28728,181.46957,38,100,42
181.53728,181.71957,43,125,42
181.78728,181.96957,47,100,42
182.03728,182.21957,50,100,42
182.28728,182.46957,38,100,42
182.53728,182.71957,43,125,42
182.78728,182.96957,47,100,42
183.03728,183.22586,50,100,42
183.2959,183.49477,38,100,42
183.56863,183.78738,43,100,42
183.86864,184.16238,55,100,42
183.86864,184.16238,43,100,42
185.76863,187.76343,39,60,42
187.76863,190.26343,39,60,42
187.76863,190.26343,46,60,42
190.26863,190.41862,48,110,42
190.41862,190.56863,50,110,42
190.56863,190.86238,51,110,42
191.86864,193.86342,36,70,42
193.86864,196.36342,36,70,42
193.86864,196.36342,43,70,42
196.36864,196.51863,45,110,42
196.51863,196.66862,47,110,42
196.66862,196.96239,48,110,42
197.96863,199.96342,44,70,42
199.96863,205.21342,44,60,42
199.96863,205.21342,51,60,42
205.21863,205.34363,53,60,42
205.34363,205.46863,55,60,42
205.46863,205.96342,56,60,42
205.96863,206.21863,53,60,42
206.21863,206.34363,55,60,42
206.34363,206.46863,56,60,42
206.46863,206.96342,58,60,42
206.96863,207.08842,55,60,42
207.09363,207.21342,58,60,42
207.21863,207.33842,60,60,42
207.34363,207.46342,61,60,42
207.46863,207.71342,60,60,42
207.71863,207.96342,58,60,42
207.96863,208.21342,56,60,42
208.21863,208.46342,53,61,42
208.46863,208.71863,48,62,42
208.71863,208.84363,50,64,42
208.84363,208.96863,51,65,42
208.96863,209.46342,53,65,42
209.46863,209.71863,50,68,42
209.71863,209.84363,51,70,42
209.84363,209.96863,53,70,42
209.96863,210.46342,55,71,42
210.46863,210.59363,52,74,42
210.59363,210.71863,55,75,42
210.71863,210.84363,56,76,42
210.84363,210.96863,58,76,42
210.96863,211.21863,60,77,42
211.21863,211.46863,58,79,42
211.46863,211.96342,56,80,42
212.46863,212.59363,55,86,42
212.59363,212.71863,59,87,42
212.71863,212.84363,60,87,42
212.84363,212.96863,62,88,42
212.96863,213.21863,63,89,42
213.21863,213.46863,62,90,42
213.46863,213.96342,60,92,42
214.46863,214.59363,50,98,42
214.59363,214.71863,53,98,42
214.71863,214.84795,55,99,42
214.84795,214.97725,57,100,42
214.97725,215.46442,58,100,42
215.46947,215.7114,63,100,42
215.7114,215.83237,62,100,42
215.83237,215.95334,60,100,42
215.95334,216.19527,65,100,42
216.19527,216.31624,63,100,42
216.31624,216.43216,62,100,42
216.43721,216.67914,62,100,42
216.67914,216.80011,60,100,42
216.80011,216.92107,59,100,42
216.92107,217.16301,63,100,42
217.16301,217.28398,62,100,42
217.28398,217.3999,60,100,42
217.40494,217.64688,60,100,42
217.64688,217.76785,59,100,42
217.76785,217.88881,57,100,42
217.88881,218.13075,62,100,42
218.13075,218.25171,60,100,42
218.25171,218.36765,59,100,42
218.37268,218.61462,59,100,42
218.61462,218.73558,57,100,42
218.73558,218.85152,55,100,42
218.85655,219.0985,55,100,42
219.0985,219.21945,53,100,42
219.21945,219.33539,51,100,42
219.34042,219.81926,51,100,42
219.34042,220.30312,60,100,42
219.8243,220.78699,49,100,42
220.30817,221.27086,58,100,42
220.79204,221.75473,48,100,42
221.27591,222.2386,57,100,42
221.75977,222.72247,46,100,42
222.24364,223.20634,55,100,42
222.72751,223.69022,44,100,42
223.21138,224.17409,53,100,42
223.69525,224.65796,43,100,42
224.17912,224.65796,51,100,42
224.663,225.62569,41,125,42
224.663,225.62569,49,125,42
225.63074,226.59343,39,125,42
225.63074,226.59343,48,125,42
226.59848,227.56117,38,125,42
226.59848,227.56117,47,125,42
227.56621,228.52892,36,125,42
227.56621,228.52892,45,125,42
228.53395,229.01279,38,125,42
228.53395,229.01279,47,125,42
229.01782,229.98053,38,125,42
229.01782,229.98053,47,125,42
229.98557,230.94826,38,125,42
229.98557,230.94826,47,125,42
230.95331,232.52034,38,100,42
230.95331,232.52034,47,100,42
232.52658,233.27138,40,70,42
232.52658,233.27138,48,70,42
233.27658,234.27138,72,70,42
234.27658,235.14638,65,70,42
235.15158,235.27658,55,70,42
235.27658,235.40158,57,70,42
235.40158,235.52658,59,70,42
235.52658,235.65158,60,70,42
235.65158,235.77658,59,70,42
235.77658,235.90158,60,70,42
235.90158,236.02658,62,70,42
236.02658,236.15158,64,70,42
236.15158,236.27658,65,70,42
236.27658,236.39638,67,70,42
236.40158,236.52138,67,70,42
236.52658,236.69325,64,70,42
236.69325,236.85992,72,70,42
236.85992,237.02658,71,70,42
237.02658,237.19325,72,70,42
237.19325,237.35992,76,70,42
237.35992,237.52658,74,70,42
237.52658,237.69325,76,70,42
237.69325,237.85992,74,70,42
237.85992,238.02658,72,70,42
238.02658,238.19325,71,70,42
238.19325,238.35992,72,70,42
238.35992,238.52658,67,70,42
238.52658,238.65158,70,70,42
238.65158,238.77658,69,75,42
238.77658,238.90158,67,80,42
239.02658,239.15158,67,90,42
239.15158,239.27658,65,95,42
239.27658,239.40158,64,100,42
239.52658,240.03844,64,70,42
240.04382,240.29706,62,70,42
240.30244,240.43176,64,70,42
240.43176,240.56107,65,70,42
240.56107,240.81107,67,70,42
240.81107,240.93607,69,70,42
240.93607,241.06107,71,70,42
241.06107,241.30586,72,70,42
241.56107,241.81107,64,70,42
241.81107,241.93607,65,70,42
241.93607,242.06107,67,70,42
242.06107,242.30586,69,70,42
242.56107,242.80586,62,70,42
242.81107,242.93607,64,70,42
242.93607,243.06107,65,70,42
243.06107,243.24336,67,70,42
243.31107,243.49336,65,70,42
243.56107,243.74336,64,70,42
243.81107,243.99336,60,70,42
244.06107,244.24336,55,70,42
244.56107,246.30586,36,70,42
246.31107,246.55586,36,70,42
246.56107,246.80586,37,70,42
246.81107,247.05586,37,80,42
247.06107,247.30586,38,90,42
247.31107,247.43607,40,100,42
247.43607,247.56107,41,85,42
247.56107,247.8143,43,70,42
247.81969,248.07292,42,70,42
248.07831,248.33154,43,70,42
248.33693,248.59016,64,70,42
248.59555,248.72055,67,76,42
248.72055,248.84555,65,80,42
248.84555,248.97055,64,83,42
249.09555,249.22055,64,90,42
249.22055,249.34555,62,94,42
249.34555,249.47055,60,97,42
249.59555,249.72055,60,110,42
249.72055,249.84035,59,110,42
249.84555,249.97055,59,110,42
250.09555,250.34035,60,110,42
250.34555,250.42888,43,110,42
250.42888,250.51222,45,110,42
250.51222,250.59555,47,110,42
250.59555,250.72055,48,110,42
250.72055,250.84555,47,70,42
250.84555,250.97055,48,70,42
250.97055,251.09555,43,70,42
251.09555,251.22055,50,70,42
251.22055,251.34555,43,70,42
251.34555,251.47055,52,70,42
251.47055,251.59555,43,70,42
251.59555,251.72055,53,100,42
251.72055,251.84555,52,70,42
251.84555,251.97055,53,70,42
251.97055,252.09555,43,70,42
252.09555,252.22055,55,70,42
252.22055,252.34555,53,70,42
252.34555,252.47055,52,70,42
252.47055,252.59555,50,70,42
252.59555,252.72055,48,70,42
252.72055,252.84555,47,72,42
252.84555,252.97055,48,75,42
252.97055,253.09555,43,77,42
253.09555,253.22055,50,80,42
253.22055,253.34555,43,82,42
253.34555,253.47055,52,85,42
253.47055,253.59555,43,87,42
253.59555,253.72055,53,90,42
253.72055,253.84555,43,93,42
253.84555,253.97055,54,95,42
253.97055,254.09555,43,98,42
254.09555,254.34035,55,100,42
254.34555,254.59035,56,105,42
254.59555,254.84035,57,100,42
255.09555,255.34035,59,70,42
255.34555,255.59035,60,70,42
255.59555,255.84035,62,100,42
256.09555,256.34033,60,70,42
256.34555,256.59033,59,70,42
256.59555,256.84033,57,70,42
256.84555,257.02783,57,75,42
257.09555,257.27783,55,80,42
257.34555,257.52783,53,85,42
257.59555,257.77783,52,90,42
257.84555,258.02783,50,95,42
258.09555,258.28412,48,100,42
258.35416,258.55304,52,105,42
258.6269,258.87167,53,110,42
259.1269,259.30917,60,70,42
259.3769,259.55917,60,70,42
259.6269,259.87167,60,100,42
260.1269,260.30917,48,70,42
260.3769,260.55917,48,70,42
260.6269,260.87167,48,70,42
261.1269,261.30917,36,78,42
261.3769,261.55917,36,83,42
261.6269,261.87167,36,87,42
261.8769,262.37167,52,92,42
262.3769,262.5019,53,100,42
262.5019,262.6269,55,85,42
262.6269,262.80917,57,70,42
262.8769,263.05917,57,70,42
263.1269,263.30917,57,70,42
263.3769,263.6269,55,70,42
263.6269,263.80917,57,70,42
263.8769,264.05917,57,70,42
264.1269,264.30917,57,70,42
264.3769,264.6269,60,70,42
264.6269,264.80917,62,70,42
264.8769,265.05917,67,70,42
265.1269,265.30917,67,70,42
265.3769,265.87167,67,70,42
265.8769,266.05917,67,65,42
266.1269,266.30917,67,60,42
267.3769,267.49667,55,100,42
267.5019,267.62167,57,100,42
267.6269,267.74667,59,125,42
267.7519,267.87167,57,100,42
267.8769,267.99667,59,100,42
268.0019,268.12167,55,100,42
268.1269,268.24667,60,100,42
268.2519,268.37167,55,100,42
268.3769,268.49667,62,100,42
268.5019,268.62167,55,100,42
268.6269,268.74667,64,125,42
268.7519,268.87167,62,100,42
268.8769,268.99667,64,100,42
269.0019,269.12167,55,100,42
269.1269,269.24667,65,100,42
269.2519,269.37167,64,100,42
269.3769,269.49667,62,100,42
269.5019,269.62167,60,100,42
269.6269,269.74667,59,100,42
269.7519,269.87167,57,100,42
269.8769,269.99667,59,100,42
270.0019,270.12167,55,100,42
270.1269,270.24667,60,100,42
270.2519,270.37167,55,100,42
270.3769,270.49667,62,90,42
270.5019,270.62167,55,80,42
270.6269,270.74667,64,70,42
270.7519,270.87167,62,70,42
270.8769,270.99667,64,70,42
271.0019,271.12167,55,70,42
271.1269,271.24667,65,70,42
271.2519,271.37167,67,70,42
271.3769,271.49667,69,70,42
271.5019,271.62167,67,70,42
271.6269,271.74667,64,70,42
271.7519,271.87167,62,70,42
271.8769,271.99667,64,70,42
272.0019,272.12167,60,70,42
272.1269,272.24667,69,70,42
272.2519,272.37167,70,70,42
272.3769,272.49667,72,70,42
272.5019,272.62167,70,70,42
272.6269,272.74667,70,70,42
272.7519,272.87167,69,70,42
272.8769,272.99667,70,70,42
273.0019,273.12167,67,70,42
273.1269,273.24667,69,70,42
273.2519,273.37167,67,70,42
273.3769,273.49667,69,70,42
273.5019,273.62167,65,70,42
273.6269,273.74667,64,70,42
273.7519,273.87167,67,70,42
273.8769,273.99667,69,70,42
274.0019,274.12167,67,70,42
274.1269,274.25082,62,70,42
274.2562,274.38013,67,70,42
274.38553,274.5162,69,70,42
274.52188,274.65256,67,70,42
274.65823,274.8519,67,70,42
274.91962,275.1019,67,70,42
275.16962,275.3519,67,70,42
275.41962,275.9144,67,70,42
275.91962,276.1019,67,70,42
276.16962,276.3519,67,70,42
276.41962,276.9144,60,70,42
276.91962,277.1019,60,70,42
277.16962,277.3519,60,70,42
277.41962,277.6644,62,70,42
277.66962,277.8519,64,70,42
277.91962,278.1019,64,70,42
278.16962,278.3582,62,70,42
278.42822,278.6271,62,70,42
278.70096,279.69574,66,87,42
279.70096,280.19574,67,87,42
280.20096,281.19574,52,96,42
281.20096,281.69574,50,70,42
281.70096,282.44574,48,70,42
282.45096,282.94574,60,77,42
282.95096,283.13324,62,82,42
283.20096,283.38324,64,85,42
283.45096,283.63324,66,87,42
283.70096,283.94574,67,90,42
283.95096,284.07596,69,93,42
284.07596,284.20096,71,94,42
284.20096,284.32596,72,95,42
284.32596,284.45096,74,96,42
284.45096,284.57596,76,98,42
284.57596,284.70096,77,99,42
284.70096,284.88324,79,101,42
284.95096,285.13324,76,104,42
285.20096,285.38324,74,107,42
285.45096,285.63324,79,109,42
285.70096,285.88324,79,124,42
285.95096,286.13324,76,100,42
286.20096,286.38324,74,100,42
286.45096,286.63324,79,100,42
286.70096,286.88324,79,127,42
286.95096,287.13324,76,100,42
287.20096,287.38324,74,100,42
287.45096,287.63324,79,100,42
287.70096,287.88324,79,125,42
287.95096,288.13324,76,100,42
288.20096,288.38324,74,100,42
288.45096,288.63324,79,100,42
288.70096,288.94574,79,100,42
288.95096,289.19574,43,100,42
289.45096,289.94574,36,100,42
289.95096,290.13324,40,100,42
290.20096,290.38324,43,100,42
290.45096,290.63324,43,100,42
290.70096,290.88324,36,125,42
290.95096,291.13324,40,100,42
291.20096,291.38324,43,100,42
291.45096,291.63324,43,100,42
291.70096,291.88324,36,125,42
291.95096,292.13324,40,100,42
292.20096,292.38953,43,100,42
292.45956,292.65845,43,100,42
292.7323,292.93115,36,100,42
292.7323,292.93115,48,100,42
293.00504,293.27206,36,100,42
294.8232,296.818,44,60,42
296.8232,299.318,44,60,42
296.8232,299.318,51,60,42
299.3232,299.46695,53,110,42
299.4732,299.61697,55,110,42
299.6232,299.91696,56,110,42
300.92322,302.918,41,60,42
302.92322,305.418,41,60,42
302.92322,305.418,48,60,42
305.42322,305.56696,50,110,42
305.5732,305.71695,52,110,42
305.7232,306.01697,53,110,42
307.02322,309.018,37,60,42
309.02322,324.0983,37,100,42
309.02322,324.0983,44,100,42
324.10455,328.09937,36,100,42
324.10455,328.09937,43,100,42
328.10455,328.23477,36,110,42
328.27124,328.4379,40,100,42
328.4379,328.60455,38,100,42
328.60455,328.73477,40,100,42
328.77124,328.9379,43,100,42
328.9379,329.10455,41,100,42
329.10455,329.23477,43,100,42
329.27124,329.4379,48,100,42
329.4379,329.60455,47,100,42
329.60455,329.73477,48,100,42
329.77124,329.9379,52,100,42
329.9379,330.10455,50,100,42
330.10455,330.23477,52,100,42
330.27124,330.4379,55,100,42
330.4379,330.60455,53,100,42
330.60455,330.73477,55,100,42
330.77124,330.9379,60,100,42
330.9379,331.10455,59,100,42
331.10455,331.23477,60,100,42
331.27124,331.4379,64,100,42
331.4379,331.60455,62,100,42
331.60455,331.74408,64,100,42
331.78314,331.92868,67,100,42
331.9724,332.12866,71,85,42
332.17242,333.4172,72,70,42
333.42242,333.6672,69,83,42
333.67242,333.8547,67,86,42
333.92242,334.1047,65,88,42
334.17242,334.4172,64,91,42
334.42242,334.6672,67,94,42
334.67242,334.9172,69,96,42
335.04742,335.1672,67,100,42
335.17242,335.4172,66,102,42
335.42242,335.6047,67,104,42
335.67242,335.8547,65,107,42
335.92242,336.1047,62,110,42
336.17242,336.3026,36,110,42
336.33908,336.50574,43,110,42
336.50574,336.67242,41,110,42
336.67242,336.8026,43,110,42
336.83908,337.00574,48,110,42
337.00574,337.17242,47,110,42
337.17242,337.3026,48,110,42
337.33908,337.50574,52,110,42
337.50574,337.67242,50,110,42
337.67242,337.8026,52,110,42
337.83908,338.00574,55,110,42
338.00574,338.17242,53,110,42
338.17242,338.3026,55,110,42
338.33908,338.50574,60,110,42
338.50574,338.67242,59,110,42
338.67242,338.8026,60,110,42
338.83908,339.00574,64,110,42
339.00574,339.17242,62,110,42
339.17242,339.361,64,110,42
339.43103,339.6196,67,110,42
339.68967,339.88852,72,110,42
339.96237,340.18112,76,90,42
340.2624,341.25717,79,70,42
341.2624,341.75717,77,86,42
341.7624,342.00717,76,95,42
342.0124,342.25717,74,99,42
342.2624,342.39258,72,100,42
342.42905,342.5905,67,100,42
342.5957,342.75717,66,100,42
342.7624,342.89258,67,100,42
342.92905,343.0905,72,100,42
343.0957,343.25717,71,100,42
343.2624,343.39258,72,100,42
343.42905,343.5905,76,100,42
343.5957,343.75717,74,100,42
343.7624,343.89258,76,100,42
343.92905,344.0905,79,100,42
344.0957,344.25717,78,100,42
344.2624,344.3874,79,100,42
344.3874,344.5124,77,100,42
344.5124,344.6374,76,100,42
344.6374,344.7624,74,100,42
344.7624,344.8874,72,100,42
344.8874,345.0124,71,100,42
345.0124,345.1374,69,100,42
345.1374,345.2624,67,100,42
345.2624,345.3874,76,100,42
345.3874,345.5124,74,100,42
345.5124,345.6374,72,100,42
345.6374,345.7624,71,100,42
345.7624,345.8874,69,100,42
345.8874,346.0124,67,100,42
346.0124,346.1374,65,100,42
346.1374,346.2624,64,100,42
346.2624,346.3249,62,100,42
346.3249,346.3874,64,100,42
346.3874,346.4499,62,100,42
346.4499,346.5124,64,100,42
346.5124,346.5749,62,100,42
346.5749,346.6374,64,100,42
346.6374,346.6999,62,100,42
346.6999,346.7624,64,100,42
346.7624,346.8249,62,100,42
346.8249,346.8874,64,100,42
346.8874,346.9499,62,100,42
346.9499,347.0124,64,100,42
347.0124,347.0749,62,100,42
347.0749,347.1374,64,100,42
347.1374,347.1999,62,100,42
347.1999,347.2624,64,100,42
347.2624,347.3249,67,100,42
347.3249,347.3874,69,100,42
347.3874,347.4499,67,100,42
347.4499,347.5124,69,100,42
347.5124,347.5749,67,100,42
347.5749,347.6374,69,100,42
347.6374,347.6999,67,100,42
347.6999,347.7624,69,100,42
347.7624,347.82703,67,100,42
347.82703,347.8917,69,100,42
347.8917,347.95636,67,100,42
347.95636,348.021,69,100,42
348.021,348.1119,67,95,42
348.1119,348.20282,66,87,42
348.20282,348.29373,67,80,42
348.29373,348.54697,55,70,42
348.55234,348.68167,57,70,42
348.68167,348.81097,59,70,42
348.81097,349.0642,60,70,42
349.32822,349.58145,55,70,42
349.58682,349.71616,57,70,42
349.71616,349.84546,59,70,42
349.84546,350.0987,60,70,42
350.3627,350.55127,67,70,42
350.6213,350.8099,65,70,42
350.87994,351.0685,64,70,42
351.13855,351.33743,62,70,42
351.4113,351.6783,62,70,42
351.68402,351.95105,64,70,42
351.95673,352.2238,60,70,42
352.22946,352.36014,52,70,42
352.3658,352.49652,53,70,42
352.5022,352.76923,55,70,42
352.77493,352.9113,57,70,42
352.9113,353.04764,59,70,42
353.04764,353.3147,60,70,42
353.5931,353.8702,55,70,42
353.87613,354.01764,57,70,42
354.01764,354.15915,59,70,42
354.15915,354.43625,60,70,42
354.72516,355.89133,43,70,42
355.89783,356.51633,48,70,42
357.14783,357.4742,67,60,42
357.48117,357.7242,65,60,42
357.81448,358.07492,64,60,42
358.17163,358.47546,62,60,42
358.58832,359.57788,60,60,42
360.58832,360.70926,43,110,42
360.70926,360.83023,45,110,42
360.83023,360.9512,43,110,42
360.9512,361.07217,41,110,42
361.07217,361.19315,40,110,42
361.19315,361.31412,43,110,42
361.31412,361.4351,41,110,42
361.4351,361.55603,38,110,42
361.55603,361.80084,36,110,42
362.05603,362.3498,52,110,42
362.05603,362.3498,36,110,42
362.05603,362.3498,43,110,42
362.05603,362.3498,60,110,42
362.65604,362.9498,36,125,42
362.65604,362.9498,43,125,42
362.65604,363.2498,52,125,42
362.65604,363.2498,60,125,42
366.40604,366.5498,48,1,42
0.0,2.1205356,67,60,0
0.0,2.1205356,79,60,0
2.142857,2.3883927,67,60,0
2.2767856,2.5223212,69,60,0
2.4107141,2.6562498,67,60,0
2.5446427,2.7901783,66,60,0
2.6785712,2.9241068,67,60,0
2.8124998,3.0580356,62,60,0
2.9464283,3.1919641,64,60,0
3.0803568,3.334478,66,60,0
3.2142856,3.4787085,67,60,0
3.3585162,3.6229393,69,60,0
3.502747,3.76717,71,60,0
3.6469777,3.927078,72,60,0
3.7912085,4.0901213,74,60,0
3.954252,4.2735453,76,60,0
4.1172953,4.4610453,77,60,0
4.3047953,4.6039023,78,60,0
4.4922953,6.0771165,79,60,0
6.099438,6.612831,77,60,0
6.6351523,7.6842594,62,60,0
6.6351523,7.6842594,67,60,0
6.6351523,7.6842594,74,60,0
8.778009,9.827116,67,60,0
8.778009,9.827116,79,60,0
9.849438,11.969974,69,60,0
9.849438,11.969974,81,60,0
11.992295,13.041402,67,60,0
11.992295,13.041402,79,60,0
13.063724,13.309259,79,60,0
13.197652,13.443188,81,60,0
13.33158,13.577116,79,60,0
13.465509,13.711044,78,60,0
13.599438,13.844974,79,60,0
13.733366,13.978902,74,60,0
13.867294,14.11283,76,60,0
14.001224,14.246759,78,60,0
14.135152,14.380688,79,60,0
14.26908,14.514616,81,60,0
14.403009,14.648544,83,60,0
14.536938,14.782474,84,60,0
14.670866,14.916402,86,60,0
14.804794,15.05033,88,60,0
14.938724,15.184259,89,60,0
15.072652,15.318188,90,60,0
15.20658,16.255688,91,60,0
22.91316,23.962269,69,72,0
22.91316,23.962269,81,72,0
23.98459,25.033697,68,85,0
23.98459,25.033697,80,85,0
25.056019,26.105125,77,98,0
25.056019,26.105125,89,98,0
26.127447,27.176554,73,110,0
26.127447,27.176554,85,110,0
27.198875,28.247982,70,110,0
27.198875,28.247982,82,110,0
28.270304,29.31941,69,110,0
28.270304,29.31941,81,110,0
29.341732,30.588491,62,85,0
29.341732,30.588491,74,85,0
30.619741,30.894743,74,60,0
30.919743,31.165277,68,63,0
31.1876,31.433134,69,66,0
31.455456,31.700993,66,69,0
31.723314,31.96885,74,72,0
31.99117,32.236706,68,75,0
32.25903,32.504562,69,79,0
30.619741,32.77242,78,60,0
32.526886,32.77242,66,82,0
32.794743,33.04028,76,85,0
33.0626,33.308136,69,88,0
33.330456,33.575993,70,91,0
33.598312,33.84385,67,94,0
33.86617,34.111706,76,98,0
34.13403,34.379562,69,101,0
34.401886,34.64742,70,104,0
32.794743,34.91528,79,85,0
34.669743,34.91528,67,107,0
34.9376,35.183136,75,110,0
35.205456,35.450993,71,110,0
35.473312,35.71885,72,110,0
35.74117,35.986706,69,110,0
36.00903,36.254562,78,110,0
36.276886,36.52242,71,110,0
36.544743,36.790276,72,110,0
34.9376,37.058136,81,110,0
36.8126,37.058136,69,110,0
37.080456,37.325993,79,110,0
37.348312,37.59385,73,100,0
37.61617,37.861706,74,90,0
37.884026,38.129562,70,80,0
38.151886,38.39742,79,70,0
38.419743,38.665276,73,70,0
38.6876,38.933136,74,70,0
37.080456,39.200993,83,110,0
38.955456,39.200993,70,70,0
39.223312,39.46885,80,70,0
39.49117,39.736706,76,72,0
39.759026,40.004562,77,75,0
39.223312,40.27242,68,70,0
40.026886,40.27242,74,77,0
40.294743,40.540276,89,80,0
40.5626,40.808136,84,82,0
40.830456,41.075993,86,85,0
41.098312,41.34385,80,87,0
41.36617,41.611706,89,90,0
41.634026,41.879562,83,93,0
41.901886,42.14742,84,95,0
42.169743,42.415276,79,98,0
42.4376,42.683136,87,100,0
42.705456,42.950993,83,103,0
42.973312,43.21885,84,105,0
43.24117,43.486706,79,108,0
43.509026,43.754562,87,110,0
43.776886,44.02242,83,110,0
44.044743,44.290276,86,110,0
44.3126,44.558132,77,110,0
44.580456,44.825993,86,110,0
44.848312,45.09385,83,110,0
45.11617,45.361706,86,110,0
45.384026,45.629562,77,110,0
45.651882,45.89742,86,110,0
45.919743,46.165276,83,110,0
46.1876,46.433132,86,110,0
46.455456,46.700993,84,110,0
46.723312,46.987736,84,110,0
47.011772,47.276196,79,110,0
47.300236,47.586693,84,110,0
47.612736,47.925236,75,110,0
47.953644,48.228645,84,110,0
48.253643,48.49918,74,100,0
48.521503,48.767036,75,90,0
48.78936,49.034893,74,80,0
49.057217,49.302753,80,70,0
49.325073,49.57061,74,70,0
49.59293,49.838467,75,70,0
49.860786,50.106323,74,70,0
50.128643,50.37418,79,70,0
50.3965,50.642036,74,70,0
50.66436,50.909893,75,70,0
50.932217,51.17775,74,70,0
51.200073,51.44561,78,70,0
51.46793,51.713467,74,70,0
51.735786,51.981323,75,70,0
52.003643,52.24918,74,70,0
52.2715,53.32061,79,60,0
54.41436,55.463467,55,60,0
54.41436,55.463467,59,60,0
54.41436,55.463467,62,60,0
55.485786,56.534893,55,60,0
55.485786,56.534893,59,60,0
55.485786,56.534893,62,60,0
56.557217,57.606323,55,60,0
56.557217,57.606323,60,60,0
56.557217,57.606323,64,60,0
57.628643,58.67775,55,60,0
57.628643,58.67775,60,60,0
57.628643,58.67775,64,60,0
59.7715,60.820606,54,60,0
59.7715,60.820606,60,60,0
59.7715,60.820606,62,60,0
60.84293,61.892036,55,60,0
60.84293,61.892036,60,60,0
61.914356,63.49918,79,60,0
63.5215,64.0349,76,60,0
64.05721,64.83846,84,60,0
64.86079,65.10632,83,60,0
65.12865,66.17775,83,60,0
66.20007,66.71346,81,60,0
66.73579,67.249176,77,60,0
67.2715,67.7849,74,60,0
67.80721,68.32061,79,60,0
68.342926,68.85632,77,60,0
68.87865,69.39204,74,60,0
69.41436,69.52596,71,60,0
69.48132,69.592926,72,60,0
69.54829,69.6599,71,60,0
69.61525,69.72686,72,60,0
69.68221,69.79382,71,60,0
69.749176,69.86079,72,60,0
69.81615,69.92775,71,60,0
69.88311,69.99471,72,60,0
69.95007,70.061676,71,60,0
70.01704,70.12865,72,60,0
70.084,70.19561,71,60,0
70.15096,70.26257,72,60,0
70.217926,70.32954,71,60,0
70.28489,70.3965,72,60,0
70.35186,70.46346,71,60,0
70.41882,70.53386,72,60,0
70.48579,70.60598,71,60,0
70.5579,70.67809,72,60,0
70.63002,70.750206,71,60,0
70.70213,70.82233,72,60,0
70.77425,70.89444,71,60,0
70.84636,70.96655,72,60,0
70.91848,71.03867,71,60,0
70.99059,71.11079,72,60,0
71.062706,71.1829,71,60,0
71.13483,71.25502,72,60,0
71.20694,71.32713,71,60,0
71.27905,71.40552,72,60,0
71.35117,71.650085,74,60,0
71.67725,72.84469,67,60,0
71.67725,72.84469,74,60,0
71.67725,72.84469,77,60,0
74.022575,75.15238,62,60,0
74.022575,75.15238,67,60,0
74.022575,75.15238,74,60,0
78.76212,79.68009,72,60,0
78.76212,79.68009,84,60,0
79.69962,80.61759,71,60,0
79.69962,80.61759,83,60,0
80.63712,81.55509,69,60,0
80.63712,81.55509,81,60,0
81.57462,82.25822,67,60,0
81.57462,82.25822,79,60,0
82.27775,82.49259,69,60,0
82.27775,82.49259,81,60,0
82.51212,82.96134,67,60,0
82.51212,82.96134,79,60,0
82.98087,83.89884,67,60,0
82.98087,83.89884,79,60,0
83.91837,84.13322,69,60,0
83.91837,84.13322,81,60,0
84.15275,84.36759,71,60,0
84.15275,84.36759,83,60,0
84.38712,84.83634,72,60,0
84.38712,84.83634,84,60,0
84.85587,85.30509,74,60,0
85.32462,85.77384,76,60,0
85.79337,86.24259,72,60,0
86.26212,86.71134,79,60,0
86.73087,87.18009,79,60,0
87.19962,89.05509,79,60,0
89.07462,90.08801,76,80,0
90.11034,91.028305,67,90,0
90.11034,91.965805,76,90,0
91.04784,91.965805,72,100,0
91.98534,92.903305,70,100,0
91.98534,92.903305,73,100,0
92.92284,93.840805,70,100,0
92.92284,93.840805,73,100,0
93.86034,94.309555,69,88,0
93.86034,94.309555,74,88,0
94.79784,95.811226,71,76,0
95.83355,96.04839,74,60,0
95.911674,96.12652,72,60,0
96.067924,96.28277,71,60,0
96.3023,96.51714,72,60,0
96.536674,96.75152,74,60,0
96.77105,96.98589,76,60,0
97.005424,97.22027,74,60,0
97.2398,97.45464,76,60,0
97.474174,97.68902,72,60,0
97.70855,97.92339,79,60,0
97.942924,98.15777,79,60,0
98.1773,98.39214,79,60,0
98.411674,98.62652,79,60,0
98.64605,100.50152,79,60,0
100.52105,100.97027,69,80,0
100.52105,100.97027,77,80,0
100.9898,101.43902,67,85,0
100.9898,101.43902,76,85,0
101.45855,102.37652,67,90,0
101.45855,103.31402,76,90,0
102.39605,103.31402,64,100,0
103.33355,103.78277,62,100,0
103.33355,103.78277,74,100,0
103.8023,104.25152,61,100,0
103.8023,104.25152,73,100,0
104.27105,105.18902,61,100,0
104.27105,105.18902,73,100,0
105.20855,105.65777,62,88,0
105.20855,105.65777,74,88,0
106.14605,106.62522,59,76,0
106.14605,106.62522,71,76,0
106.64605,107.15945,67,70,0
106.64605,107.15945,79,70,0
107.18176,107.27942,78,60,0
107.24036,107.33801,79,60,0
107.29895,107.39661,81,60,0
107.357544,107.4552,79,60,0
107.41614,107.513794,81,60,0
107.47473,107.57239,79,60,0
107.533325,107.63098,81,60,0
107.59192,107.689575,79,60,0
107.65051,107.74817,81,60,0
107.70911,107.80676,79,60,0
107.7677,107.86536,81,60,0
107.826294,107.92395,79,60,0
107.88489,107.982544,81,60,0
107.94348,108.04114,79,60,0
108.002075,108.09973,81,60,0
108.06067,108.158325,79,60,0
108.11926,108.21692,81,60,0
108.17786,108.27551,79,60,0
108.23645,108.33411,81,60,0
108.295044,108.3927,79,60,0
108.35364,108.451294,81,60,0
108.41223,108.50989,79,60,0
108.470825,108.56848,81,60,0
108.52942,108.627075,79,60,0
108.58801,108.68567,81,60,0
108.64661,108.74426,79,60,0
108.7052,108.80286,81,60,0
108.763794,108.86145,79,60,0
108.82239,108.920044,81,60,0
108.88098,108.97864,79,60,0
108.939575,109.03723,81,60,0
108.99817,109.095825,79,60,0
109.05676,109.15442,81,60,0
109.11536,109.21301,79,60,0
109.17395,109.27161,81,60,0
109.232544,109.3302,79,60,0
109.29114,109.388794,81,60,0
109.34973,109.44739,79,60,0
109.408325,109.50598,81,60,0
109.46692,109.564575,79,60,0
109.52551,109.62317,81,60,0
109.58411,109.68176,79,60,0
109.6427,109.74036,81,60,0
109.701294,109.79895,79,60,0
109.75989,109.857544,81,60,0
109.81848,109.91614,79,60,0
109.877075,109.97473,81,60,0
109.93567,110.033325,79,60,0
109.99426,110.09192,81,60,0
110.05286,110.15051,79,60,0
110.11145,110.20911,81,60,0
110.170044,110.2677,79,60,0
110.22864,110.326294,81,60,0
110.28723,110.38489,79,60,0
110.345825,110.44348,81,60,0
110.40442,110.502075,79,60,0
110.46301,110.56067,81,60,0
110.52161,110.61926,79,60,0
110.5802,110.67786,81,60,0
110.638794,110.73645,79,60,0
110.69739,110.795044,81,60,0
110.75598,110.85364,79,60,0
110.814575,110.91223,81,60,0
110.87317,110.970825,79,60,0
110.93176,111.02942,81,60,0
110.99036,111.08801,79,60,0
111.04895,111.14661,81,60,0
111.107544,111.2052,79,60,0
111.16614,111.263794,81,60,0
111.22473,111.32239,79,60,0
111.283325,111.38098,81,60,0
111.34192,111.439575,79,60,0
111.40051,111.49817,81,60,0
111.45911,111.55676,79,60,0
111.5177,111.61536,81,60,0
111.576294,111.67395,79,60,0
111.63489,111.732544,81,60,0
111.69348,111.79114,79,60,0
111.752075,111.84973,81,60,0
111.81067,111.908325,79,60,0
111.86926,111.96692,81,60,0
111.92786,112.02551,79,60,0
111.98645,112.08411,81,60,0
112.045044,112.1427,79,60,0
112.10364,112.201294,81,60,0
112.16223,112.25989,79,60,0
112.220825,112.31848,81,60,0
112.27942,112.377075,79,60,0
112.33801,112.43567,81,60,0
112.39661,112.49426,79,60,0
112.4552,112.55286,81,60,0
112.513794,112.61145,79,60,0
112.57239,112.670044,81,60,0
112.63098,112.72864,79,60,0
112.689575,112.78723,81,60,0
112.74817,112.845825,79,60,0
112.80676,112.90442,81,60,0
112.86536,112.96301,79,60,0
112.92395,113.02161,81,60,0
112.982544,113.0802,79,60,0
113.04114,113.138794,81,60,0
113.09973,113.19739,79,60,0
113.158325,113.25598,81,60,0
113.21692,113.314575,79,60,0
113.27551,113.37317,81,60,0
113.33411,113.43176,79,60,0
113.3927,113.49036,81,60,0
113.451294,113.54895,79,60,0
113.50989,113.607544,81,60,0
113.56848,113.66614,79,60,0
113.627075,113.72473,81,60,0
113.68567,113.783325,79,60,0
113.74426,113.84192,81,60,0
113.80286,113.90051,79,60,0
113.86145,113.95911,81,60,0
113.920044,114.0177,79,60,0
113.97864,114.076294,81,60,0
114.03723,114.13489,79,60,0
114.095825,114.19348,81,60,0
114.15442,114.252075,79,60,0
114.21301,114.31067,81,60,0
114.27161,114.36926,79,60,0
114.3302,114.42786,81,60,0
114.388794,114.48645,79,60,0
114.44739,114.545044,81,60,0
114.50598,114.60364,79,60,0
114.564575,114.66223,81,60,0
114.62317,114.720825,79,60,0
114.68176,114.77942,81,60,0
114.74036,114.83801,79,60,0
114.79895,114.89661,81,60,0
114.857544,114.9552,79,60,0
114.91614,115.013794,81,60,0
114.97473,115.07239,79,60,0
115.033325,115.13098,81,60,0
115.09192,115.192184,79,60,0
115.15051,115.254684,81,60,0
115.21301,115.317184,79,60,0
115.27551,115.379684,81,60,0
115.33801,115.442184,79,60,0
115.40051,115.504684,81,60,0
115.46301,115.567184,79,60,0
115.52551,115.629684,81,60,0
115.58801,115.692184,79,60,0
115.65051,115.754684,81,60,0
115.71301,115.817184,79,60,0
115.77551,115.879684,81,60,0
115.83801,115.942184,79,60,0
115.90051,116.004684,81,60,0
115.96301,116.067184,79,60,0
116.02551,116.129684,81,60,0
116.08801,116.192184,79,60,0
116.15051,116.254684,81,60,0
116.21301,116.317184,79,60,0
116.27551,116.379684,81,60,0
116.33801,116.442184,79,60,0
116.40051,116.504684,81,60,0
116.46301,116.567184,79,60,0
116.52551,116.629684,81,60,0
116.58801,116.69516,79,60,0
116.65051,116.76212,81,60,0
116.717476,116.82909,79,60,0
116.78445,116.89605,81,60,0
116.85141,116.96301,79,60,0
116.91837,117.029976,81,60,0
116.98534,117.09695,79,60,0
117.0523,117.16391,81,60,0
117.11926,117.23087,79,60,0
117.186226,117.29784,81,60,0
117.2532,117.3648,79,60,0
117.32016,117.43176,81,60,0
117.38712,117.498726,79,60,0
117.45409,117.5657,81,60,0
117.52105,117.63266,79,60,0
117.58801,117.69962,81,60,0
117.654976,117.77194,79,60,0
117.72195,117.84695,81,60,0
117.79694,117.92194,79,60,0
117.87194,117.99694,81,60,0
117.946945,118.071945,79,60,0
118.02194,118.14694,81,60,0
118.09695,118.22195,79,60,0
118.17194,118.29694,81,60,0
118.24694,118.366585,79,60,0
118.321945,118.43355,81,60,0
118.38891,118.50052,79,60,0
118.45587,118.56748,81,60,0
118.522835,118.634445,79,60,0
118.5898,118.70141,81,60,0
118.65677,118.76837,79,60,0
118.72373,118.835335,81,60,0
118.790695,118.89932,79,60,0
118.85766,118.96182,81,60,0
118.92016,119.02432,79,60,0
118.98266,119.08682,81,60,0
119.04516,119.14932,79,60,0
119.10766,119.21182,81,60,0
119.17016,119.27432,79,60,0
119.23266,119.33682,81,60,0
119.29516,119.39932,79,60,0
119.35766,119.46182,81,60,0
119.42016,119.52432,79,60,0
119.48266,119.58682,81,60,0
119.54516,119.64932,79,60,0
119.60766,119.71182,81,60,0
119.67016,119.77432,79,60,0
119.73266,119.83682,81,60,0
119.79516,119.89932,79,60,0
119.85766,119.96182,81,60,0
119.92016,120.02432,79,60,0
119.98266,120.08682,81,60,0
120.04516,120.14932,79,60,0
120.10766,120.21182,81,60,0
120.17016,120.27432,79,60,0
120.23266,120.33682,81,60,0
120.29516,120.39932,79,60,0
120.35766,120.46182,81,60,0
120.42016,120.52432,79,60,0
120.48266,120.58682,81,60,0
120.54516,120.64932,79,60,0
120.60766,120.71182,81,60,0
120.67016,120.77432,79,60,0
120.73266,120.83682,81,60,0
120.79516,120.89932,79,60,0
120.85766,120.96182,81,60,0
120.92016,121.02432,79,60,0
120.98266,121.08682,81,60,0
121.04516,121.14932,79,60,0
121.10766,121.21182,81,60,0
121.17016,121.27432,79,60,0
121.23266,121.33682,81,60,0
121.29516,121.39932,79,60,0
121.35766,121.46182,81,60,0
121.42016,121.52432,79,60,0
121.48266,121.58682,81,60,0
121.54516,121.64932,79,60,0
121.60766,121.71182,81,60,0
121.67016,121.77432,79,60,0
121.73266,121.83682,81,60,0
121.79516,121.89932,79,60,0
121.85766,121.96182,81,60,0
121.92016,122.02432,79,60,0
121.98266,122.08682,81,60,0
122.04516,122.14932,79,60,0
122.10766,122.21182,81,60,0
122.17016,122.27432,79,60,0
122.23266,122.33682,81,60,0
122.29516,122.39932,79,60,0
122.35766,122.46182,81,60,0
122.42016,122.52432,79,60,0
122.48266,122.58682,81,60,0
122.54516,122.64932,79,60,0
122.60766,122.71182,81,60,0
122.67016,122.77432,79,60,0
122.73266,122.83682,81,60,0
122.79516,122.89932,79,60,0
122.85766,122.96182,81,60,0
122.92016,123.02432,79,60,0
122.98266,123.08682,81,60,0
123.04516,123.14932,79,60,0
123.10766,123.21182,81,60,0
123.17016,123.27432,79,60,0
123.23266,123.33682,81,60,0
123.29516,123.39932,79,60,0
123.35766,123.46182,81,60,0
123.42016,123.52432,79,60,0
123.48266,123.58682,81,60,0
123.54516,123.64932,79,60,0
123.60766,123.71182,81,60,0
123.67016,123.77432,79,60,0
123.73266,123.83682,81,60,0
123.79516,123.9023,79,60,0
123.85766,123.96927,81,60,0
123.92462,124.03623,79,60,0
123.991585,124.103195,81,60,0
124.05855,124.17016,79,60,0
124.12552,124.23712,81,60,0
124.19248,124.304085,79,60,0
124.259445,124.37105,81,60,0
124.32641,124.443375,79,60,0
124.39337,124.51837,81,60,0
124.46837,124.59337,79,60,0
124.54337,124.66837,81,60,0
124.61837,124.74337,79,60,0
124.693375,124.818375,78,60,0
124.84337,124.96837,79,60,0
124.99337,125.23817,79,70,0
125.24337,125.36317,81,70,0
125.36837,125.48817,83,70,0
125.49337,125.73817,84,70,0
129.24338,131.48816,84,70,0
131.74338,131.86316,76,70,0
131.86838,131.98816,77,70,0
131.99338,132.23816,79,70,0
132.24338,132.36316,81,70,0
132.36838,132.48816,83,70,0
132.49338,132.73816,84,70,0
132.99338,133.23816,76,70,0
133.24338,133.36316,77,70,0
133.36838,133.48816,79,70,0
133.49338,133.73816,81,70,0
133.99338,134.23816,74,70,0
134.24338,134.36316,76,70,0
134.36838,134.48816,77,70,0
134.49338,134.73816,79,70,0
134.74338,134.98816,77,70,0
134.99338,135.23816,76,70,0
135.24338,135.48816,72,70,0
135.49338,135.73816,67,70,0
135.99338,136.98816,52,70,0
135.99338,136.98816,55,70,0
136.99338,137.73816,52,70,0
136.99338,137.73816,55,70,0
137.74338,137.98816,52,70,0
137.74338,137.98816,55,70,0
137.99338,138.23816,52,70,0
137.99338,138.23816,57,70,0
138.24338,138.48816,52,80,0
138.24338,138.48816,55,80,0
138.49338,138.73816,50,90,0
138.49338,138.73816,53,90,0
138.74338,138.98816,48,100,0
138.74338,138.98816,52,100,0
138.99338,139.53314,48,70,0
138.99338,139.53314,52,70,0
139.53883,139.80588,50,70,0
139.53883,139.80588,47,70,0
140.81155,141.80635,72,70,0
140.81155,141.80635,84,70,0
141.81155,142.30635,65,70,0
141.81155,142.30635,77,70,0
142.31155,142.80635,67,70,0
142.81155,142.93135,69,70,0
142.93655,143.05635,71,70,0
143.06155,143.18135,72,70,0
143.18655,143.30635,74,70,0
143.31155,143.43135,76,70,0
143.43655,143.55635,77,70,0
143.56155,143.80635,79,70,0
143.81155,144.05635,79,70,0
144.06155,144.223,79,70,0
144.22823,144.38968,84,70,0
144.39488,144.55635,83,70,0
144.56155,144.723,84,70,0
144.72823,144.88968,88,70,0
144.89488,145.05635,86,70,0
145.06155,145.223,88,70,0
145.22823,145.38968,86,70,0
145.39488,145.55635,84,70,0
145.56155,145.723,83,70,0
145.72823,145.88968,84,70,0
145.89488,146.05635,79,70,0
146.06155,146.18135,82,70,0
146.18655,146.30635,81,75,0
146.31155,146.55635,79,80,0
146.56155,146.68135,79,90,0
146.68655,146.80635,77,95,0
146.81155,147.05635,76,100,0
147.06155,147.59169,76,70,0
147.06155,147.59169,72,70,0
147.06155,147.85954,67,70,0
147.59727,147.85954,71,70,0
147.59727,147.85954,74,70,0
147.86513,147.99347,84,70,0
147.99905,148.1274,82,73,0
148.13298,148.25278,82,76,0
148.25798,148.37778,81,80,0
148.38298,148.62778,79,83,0
148.63298,148.75278,79,90,0
148.75798,148.87778,77,94,0
148.88298,149.12778,76,97,0
149.13298,149.25798,76,110,0
149.25798,149.38298,74,110,0
149.38298,149.62778,79,110,0
149.63298,149.87778,72,110,0
150.13298,150.37778,52,110,0
150.13298,150.37778,55,110,0
150.13298,150.37778,60,110,0
150.63298,150.87778,50,70,0
150.88298,151.12778,48,70,0
151.13298,151.37778,47,100,0
151.63298,151.87778,48,70,0
151.88298,152.12778,50,70,0
152.13298,152.37778,52,70,0
152.63298,152.87778,50,80,0
152.88298,153.12778,48,85,0
153.13298,153.37778,48,90,0
153.38298,153.62778,48,95,0
153.63298,153.88622,47,100,0
153.8916,154.14484,88,105,0
153.8916,154.14484,83,105,0
153.8916,154.14484,76,105,0
154.15022,154.27002,88,100,0
154.27522,154.39502,87,70,0
154.40022,154.52002,88,70,0
154.52522,154.64502,76,70,0
154.65022,154.77002,86,70,0
154.77522,154.89502,76,70,0
154.90022,155.02002,84,70,0
155.02522,155.14502,76,70,0
155.15022,155.27002,83,100,0
155.27522,155.39502,84,70,0
155.40022,155.52002,83,70,0
155.52522,155.64502,76,70,0
155.65022,155.77002,84,70,0
155.77522,155.89502,76,70,0
155.90022,156.02002,86,70,0
156.02522,156.14502,76,70,0
156.15022,156.27002,88,70,0
156.27522,156.39502,76,72,0
156.40022,156.52002,88,74,0
156.52522,156.64502,84,76,0
156.65022,156.77002,83,78,0
156.77522,156.89502,81,80,0
156.90022,157.02002,83,82,0
157.02522,157.14502,79,84,0
157.15022,157.27002,79,86,0
157.27522,157.39502,78,88,0
157.40022,157.64502,74,90,0
157.40022,157.64502,86,90,0
157.65022,157.89502,74,94,0
157.65022,157.89502,86,94,0
157.90022,158.14502,74,98,0
157.90022,158.14502,86,98,0
158.15022,158.38712,74,100,0
158.15022,158.38712,83,100,0
158.15022,158.38712,86,100,0
158.6341,158.87099,72,70,0
158.6341,158.87099,81,70,0
158.6341,158.87099,84,70,0
158.87602,159.11292,71,70,0
158.87602,159.11292,79,70,0
158.87602,159.11292,83,70,0
159.11797,159.35486,69,100,0
159.11797,159.35486,78,100,0
159.11797,159.35486,81,100,0
159.60184,159.83873,83,70,0
159.60184,159.83873,79,70,0
159.60184,159.83873,71,70,0
159.84377,160.08066,81,70,0
159.84377,160.08066,84,70,0
159.84377,160.08066,72,70,0
160.08571,160.3226,74,70,0
160.08571,160.3226,83,70,0
160.08571,160.3226,86,70,0
160.32764,160.56453,74,74,0
160.32764,160.56453,83,74,0
160.32764,160.56453,86,74,0
160.56956,160.80647,72,78,0
160.56956,160.80647,81,78,0
160.56956,160.80647,84,78,0
160.81151,161.0484,71,83,0
160.81151,161.0484,79,83,0
160.81151,161.0484,83,83,0
161.05344,161.29034,69,87,0
161.05344,161.29034,78,87,0
161.05344,161.29034,81,87,0
161.29538,161.4113,81,92,0
161.41635,161.53227,79,94,0
161.53731,161.65324,78,96,0
161.65828,161.7742,76,98,0
161.77925,161.89517,74,100,0
161.9002,162.01614,72,85,0
162.02118,162.13712,71,70,0
162.14215,162.25807,69,70,0
162.26312,162.37904,71,70,0
162.38408,162.50002,67,70,0
162.50505,162.62099,72,70,0
162.62602,162.74194,74,70,0
162.747,162.86292,76,70,0
162.86795,162.98389,74,70,0
162.98892,163.10484,71,70,0
163.1099,163.22581,69,70,0
163.23085,163.34679,71,70,0
163.35182,163.46776,67,70,0
163.4728,163.58871,76,70,0
163.59377,163.70969,77,70,0
163.71472,163.83066,79,70,0
163.8357,163.95161,77,70,0
163.95667,164.07259,77,70,0
164.07764,164.19356,76,70,0
164.1986,164.31453,77,70,0
164.31956,164.43549,74,70,0
164.44054,164.55646,76,70,0
164.5615,164.67743,74,70,0
164.68246,164.7984,76,70,0
164.80344,164.91936,72,70,0
164.92441,165.04033,71,70,0
165.04536,165.1613,74,70,0
165.16634,165.28226,76,70,0
165.28731,165.40323,74,70,0
165.40828,165.5242,69,70,0
165.52924,165.64517,74,70,0
165.6502,165.76613,76,70,0
165.77118,165.8871,74,70,0
165.89214,166.12904,71,70,0
165.89214,166.12904,74,70,0
166.13408,166.37097,55,70,0
166.13408,166.37097,59,70,0
166.376,166.6129,55,70,0
166.376,166.6129,59,70,0
166.61795,166.85484,54,70,0
166.61795,166.85484,57,70,0
166.85988,167.09677,55,70,0
166.85988,167.09677,59,70,0
167.10182,167.33871,55,70,0
167.10182,167.33871,59,70,0
167.34375,167.58064,55,70,0
167.34375,167.58064,59,70,0
167.5857,167.82259,57,70,0
167.5857,167.82259,60,70,0
167.82762,168.06451,59,70,0
167.82762,168.06451,62,70,0
168.06956,168.30646,56,70,0
168.06956,168.30646,68,70,0
168.3115,168.54839,55,70,0
168.3115,168.54839,67,70,0
168.55342,168.79033,64,70,0
168.55342,168.79033,67,70,0
168.79536,169.03226,62,70,0
168.79536,169.03226,67,70,0
169.0373,169.27419,62,70,0
169.0373,169.27419,67,70,0
169.27924,169.51613,62,70,0
169.27924,169.51613,66,70,0
169.52116,169.75806,62,70,0
169.52116,169.75806,66,70,0
169.7631,170.0,67,70,0
170.00504,170.48387,79,74,0
170.4889,170.7258,73,83,0
170.73083,170.96774,73,87,0
170.97278,171.20967,74,92,0
171.2147,171.69354,74,96,0
171.94052,172.17741,62,70,0
171.94052,172.17741,67,70,0
171.94052,172.17741,71,70,0
172.4244,172.66129,62,70,0
172.4244,172.66129,66,70,0
172.4244,172.66129,69,70,0
172.66632,172.90321,67,70,0
172.90826,173.02419,69,72,0
173.02922,173.14516,71,73,0
173.15019,173.26611,72,75,0
173.27116,173.38708,74,76,0
173.39212,173.50806,76,77,0
173.51309,173.62903,78,78,0
173.63406,173.74998,73,80,0
173.63406,173.74998,79,80,0
173.75504,173.87096,81,81,0
173.87599,173.99193,83,82,0
173.99696,174.11288,81,84,0
174.11794,174.35483,79,85,0
174.35986,174.59676,73,87,0
174.6018,174.8387,73,90,0
174.84373,175.08063,74,93,0
175.08568,175.5645,74,95,0
175.56955,175.68547,50,100,0
175.6905,175.80644,52,101,0
175.81148,175.9274,54,103,0
175.93245,176.04837,55,104,0
176.0534,176.16934,57,105,0
176.17438,176.29031,59,107,0
176.29535,176.41127,60,108,0
176.41632,176.53224,62,109,0
176.53728,176.65707,59,125,0
176.66228,176.78207,62,100,0
176.78728,176.90707,67,100,0
176.91228,177.03207,62,100,0
177.03728,177.15707,66,100,0
177.16228,177.28207,62,100,0
177.28728,177.40707,60,100,0
177.41228,177.53207,62,100,0
177.53728,177.65707,59,125,0
177.66228,177.78207,62,100,0
177.78728,177.90707,67,100,0
177.91228,178.03207,62,100,0
178.03728,178.15707,66,100,0
178.16228,178.28207,62,100,0
178.28728,178.40707,60,100,0
178.41228,178.53207,62,100,0
178.53728,178.65707,59,125,0
178.66228,178.78207,62,100,0
178.78728,178.90707,67,100,0
178.91228,179.03207,62,100,0
179.03728,179.15707,66,100,0
179.16228,179.28207,62,100,0
179.28728,179.40707,60,100,0
179.41228,179.53207,62,100,0
179.53728,179.78207,59,100,0
179.53728,179.78207,62,100,0
179.78728,179.90707,79,100,0
179.91228,180.03207,81,100,0
180.03728,180.28207,83,100,0
180.28728,180.40707,83,100,0
180.41228,180.53207,84,100,0
180.53728,180.78207,86,125,0
180.78728,180.90707,84,100,0
180.91228,181.03207,83,100,0
181.03728,181.28207,81,100,0
181.28728,181.40707,88,100,0
181.41228,181.53207,86,100,0
181.53728,181.78207,86,125,0
181.78728,181.90707,84,100,0
181.91228,182.03207,83,100,0
182.03728,182.28207,81,100,0
182.28728,182.40707,88,100,0
182.41228,182.53207,86,100,0
182.53728,182.78207,86,125,0
182.78728,182.90707,84,100,0
182.91228,183.03207,83,100,0
183.03728,183.29051,81,100,0
183.2959,183.42659,91,100,0
183.43227,183.56294,90,100,0
183.56863,183.86238,91,100,0
183.56863,183.86238,83,100,0
183.86864,184.16238,79,100,0
183.86864,184.16238,67,100,0
189.76863,190.01343,82,70,0
190.01863,190.13843,84,70,0
190.14363,190.26343,86,70,0
190.26863,190.56238,87,110,0
195.86864,196.11342,79,70,0
196.11864,196.23842,81,70,0
196.24364,196.36342,83,70,0
196.36864,196.66238,84,110,0
201.96863,202.21342,75,60,0
202.21863,202.33842,77,60,0
202.34363,202.46342,79,60,0
202.46863,202.96342,80,60,0
202.96863,203.21342,77,60,0
203.21863,203.33842,79,60,0
203.34363,203.46342,80,60,0
203.46863,203.96342,82,60,0
203.96863,204.08842,79,60,0
204.09363,204.21342,82,60,0
204.21863,204.33842,84,60,0
204.34363,204.46342,85,60,0
204.46863,204.71342,87,60,0
204.71863,204.96342,85,60,0
204.96863,205.21342,84,60,0
205.21863,205.46342,72,60,0
205.46863,205.71342,60,60,0
205.71863,205.83842,62,60,0
205.84363,205.96342,64,60,0
205.96863,206.46342,65,60,0
206.46863,206.71342,62,60,0
206.71863,206.83842,64,60,0
206.84363,206.96342,65,60,0
206.96863,207.21342,64,60,0
207.21863,207.46342,76,60,0
207.46863,207.71342,76,60,0
207.71863,207.83842,77,60,0
207.84363,207.96342,79,60,0
207.96863,208.08842,79,60,0
208.09363,208.21342,72,60,0
208.21863,208.46342,77,61,0
208.46863,208.71342,77,62,0
208.71863,208.96342,77,64,0
208.96863,209.21342,77,65,0
209.21863,209.33842,74,67,0
209.34363,209.46342,72,68,0
209.46863,209.71342,71,68,0
209.71863,209.96342,79,70,0
209.96863,210.21342,79,71,0
210.21863,210.33842,73,73,0
210.34363,210.46342,72,73,0
210.46863,210.71342,72,74,0
210.71863,210.96342,72,76,0
210.96863,211.08842,72,77,0
211.09363,211.21342,76,78,0
211.21863,211.33842,77,79,0
211.34363,211.46342,79,79,0
211.46863,211.71342,80,80,0
211.71863,211.96342,77,81,0
211.96863,212.21342,74,83,0
212.21863,212.33842,68,84,0
212.34363,212.46342,67,85,0
212.46863,212.71342,67,86,0
212.71863,212.96342,67,87,0
212.96863,213.08842,67,89,0
213.09363,213.21342,71,89,0
213.21863,213.33842,72,90,0
213.34363,213.46342,74,91,0
213.46863,213.71342,75,92,0
213.71863,213.96342,84,93,0
213.96863,214.21342,81,95,0
214.21863,214.33842,75,96,0
214.34363,214.46342,74,97,0
214.46863,214.71342,74,98,0
214.71863,214.97186,74,99,0
214.97725,215.22249,74,100,0
215.22752,215.34346,76,100,0
215.3485,215.46442,78,100,0
215.46947,216.43216,79,100,0
215.95334,216.91603,68,100,0
216.43721,217.3999,77,100,0
216.92107,217.88377,67,100,0
217.40494,218.36765,75,100,0
217.88881,218.85152,65,100,0
218.37268,219.09344,74,100,0
218.85655,219.33539,63,100,0
219.0985,219.33539,72,100,0
220.30817,220.54506,75,100,0
220.5501,220.66603,77,100,0
220.67107,220.78699,79,100,0
220.79204,221.02893,80,100,0
221.03397,221.1499,82,100,0
221.15494,221.27086,84,100,0
222.24364,222.48055,72,100,0
222.48558,222.6015,74,100,0
222.60655,222.72247,76,100,0
222.72751,222.9644,77,100,0
222.96945,223.08537,79,100,0
223.09041,223.20634,80,100,0
223.21138,223.44827,77,100,0
223.45332,223.56924,79,100,0
223.57428,223.69022,80,100,0
223.69525,223.93214,74,100,0
223.9372,224.05312,75,100,0
224.05815,224.17409,77,100,0
224.17912,224.41602,72,100,0
224.42105,224.53699,74,100,0
224.54202,224.65796,75,100,0
224.663,224.89989,68,100,0
224.90492,225.02086,73,100,0
225.0259,225.14182,77,100,0
225.14687,225.38376,80,100,0
225.3888,225.50473,85,100,0
225.50977,225.62569,89,100,0
225.63074,225.86763,63,100,0
225.87267,225.9886,69,100,0
225.99364,226.10956,72,100,0
226.11461,226.3515,75,100,0
226.35654,226.47246,81,100,0
226.47751,226.59343,84,100,0
226.59848,226.83537,62,100,0
226.84041,226.95633,67,100,0
226.96138,227.0773,71,100,0
227.08234,227.31924,74,100,0
227.32428,227.4402,79,100,0
227.44525,227.56117,83,100,0
227.56621,227.8031,60,100,0
227.80815,227.92407,66,100,0
227.92912,228.04504,69,100,0
228.05008,228.28697,72,100,0
228.29202,228.40794,78,100,0
228.41298,228.52892,81,100,0
228.53395,228.77084,59,100,0
228.7759,229.01279,62,100,0
228.89685,229.13374,67,100,0
229.01782,229.25471,62,100,0
229.25977,229.49666,67,100,0
229.38072,229.61761,71,100,0
229.5017,229.73859,62,100,0
229.74362,229.98053,67,100,0
229.8646,230.10149,71,100,0
229.98557,230.22246,67,100,0
230.2275,230.46439,71,100,0
230.34846,230.58536,74,100,0
230.46944,230.70633,67,100,0
230.71136,230.94826,71,100,0
230.83234,231.06923,74,100,0
230.95331,231.1902,79,100,0
231.19524,231.44003,83,92,0
231.32024,231.56503,86,88,0
231.44524,231.69003,79,84,0
231.69524,231.94847,83,76,0
231.82455,232.08453,86,72,0
231.95386,232.2209,91,68,0
232.2266,232.52034,91,60,0
232.52658,232.77138,79,70,0
232.77658,232.89638,81,70,0
232.90158,233.02138,83,70,0
233.02658,233.27138,84,70,0
233.52658,233.77138,76,70,0
233.77658,233.89638,77,70,0
233.90158,234.02138,79,70,0
234.02658,234.27138,81,70,0
234.52658,234.77138,74,70,0
234.77658,234.89638,76,70,0
234.90158,235.02138,77,70,0
235.02658,235.27138,79,70,0
235.27658,235.52138,77,70,0
235.52658,235.77138,76,70,0
235.77658,236.02138,72,70,0
236.02658,236.27138,67,70,0
236.52658,237.52138,52,70,0
236.52658,237.52138,55,70,0
237.52658,238.27138,52,70,0
237.52658,238.27138,55,70,0
238.27658,238.52138,52,70,0
238.27658,238.52138,55,70,0
238.52658,238.77138,52,70,0
238.52658,238.77138,57,70,0
238.77658,239.02138,52,80,0
238.77658,239.02138,55,80,0
239.02658,239.27138,50,90,0
239.02658,239.27138,53,90,0
239.27658,239.52138,48,100,0
239.27658,239.52138,52,100,0
239.52658,240.03844,48,70,0
239.52658,240.03844,52,70,0
240.04382,240.29706,50,70,0
240.04382,240.29706,47,70,0
241.31107,242.30586,72,70,0
241.31107,242.30586,84,70,0
242.31107,242.80586,65,70,0
242.31107,242.80586,77,70,0
242.81107,243.30586,67,70,0
243.31107,243.43086,69,70,0
243.43607,243.55586,71,70,0
243.56107,243.68086,72,70,0
243.68607,243.80586,74,70,0
243.81107,243.93086,76,70,0
243.93607,244.05586,77,70,0
244.06107,244.30586,79,70,0
244.31107,244.55586,79,70,0
244.56107,244.72252,79,70,0
244.72774,244.88919,84,70,0
244.8944,245.05586,83,70,0
245.06107,245.22252,84,70,0
245.22774,245.38919,88,70,0
245.3944,245.55586,86,70,0
245.56107,245.72252,88,70,0
245.72774,245.88919,86,70,0
245.8944,246.05586,84,70,0
246.06107,246.22252,83,70,0
246.22774,246.38919,84,70,0
246.3944,246.55586,79,70,0
246.56107,246.68086,82,70,0
246.68607,246.80586,81,75,0
246.81107,247.05586,79,80,0
247.06107,247.18086,79,90,0
247.18607,247.30586,77,95,0
247.31107,247.55586,76,100,0
247.56107,248.07292,76,70,0
247.56107,248.07292,72,70,0
247.56107,248.33154,67,70,0
248.07831,248.33154,71,70,0
248.07831,248.33154,74,70,0
248.33693,248.46085,84,70,0
248.46623,248.59016,82,73,0
248.59555,248.71535,82,76,0
248.72055,248.84035,81,80,0
248.84555,249.09035,79,83,0
249.09555,249.21535,79,90,0
249.22055,249.34035,77,94,0
249.34555,249.59035,76,97,0
249.59555,249.72055,76,110,0
249.72055,249.84555,74,110,0
249.84555,250.09035,79,110,0
250.09555,250.34035,72,110,0
250.59555,250.84035,52,110,0
250.59555,250.84035,55,110,0
250.59555,250.84035,60,110,0
251.09555,251.34035,50,70,0
251.34555,251.59035,48,70,0
251.59555,251.84035,47,100,0
252.09555,252.34035,48,70,0
252.34555,252.59035,50,70,0
252.59555,252.84035,52,70,0
253.09555,253.34035,50,80,0
253.34555,253.59035,48,85,0
253.59555,253.84035,48,90,0
253.84555,254.09035,48,95,0
254.09555,254.34035,47,100,0
254.34555,254.59035,88,105,0
254.34555,254.59035,83,105,0
254.34555,254.59035,76,105,0
254.59555,254.71535,88,100,0
254.72055,254.84035,87,70,0
254.84555,254.96535,88,70,0
254.97055,255.09035,76,70,0
255.09555,255.21535,86,70,0
255.22055,255.34035,76,70,0
255.34555,255.46535,84,70,0
255.47055,255.59035,76,70,0
255.59555,255.71535,83,100,0
255.72055,255.84035,84,70,0
255.84555,255.96535,83,70,0
255.97055,256.09033,76,70,0
256.09555,256.21533,84,70,0
256.22055,256.34033,76,70,0
256.34555,256.46533,86,70,0
256.47055,256.59033,76,70,0
256.59555,256.71533,88,70,0
256.72055,256.84033,76,72,0
256.84555,256.96533,88,75,0
256.97055,257.09033,76,77,0
257.09555,257.21533,88,80,0
257.22055,257.34033,76,82,0
257.34555,257.46533,89,85,0
257.47055,257.59033,77,87,0
257.59555,257.71533,91,90,0
257.72055,257.84033,79,93,0
257.84555,257.96533,83,95,0
257.84555,257.96533,84,95,0
257.97055,258.09033,77,98,0
258.09555,258.21948,82,100,0
258.09555,258.21948,84,100,0
258.22485,258.3488,76,103,0
258.35416,258.48486,82,105,0
258.35416,258.48486,84,105,0
258.49054,258.62122,79,108,0
258.6269,258.87167,72,110,0
258.6269,258.87167,81,110,0
258.6269,258.87167,84,110,0
259.1269,259.37167,82,70,0
259.1269,259.37167,79,70,0
259.1269,259.37167,70,70,0
259.3769,259.62167,69,70,0
259.3769,259.62167,77,70,0
259.3769,259.62167,81,70,0
259.6269,259.87167,79,100,0
259.6269,259.87167,76,100,0
259.6269,259.87167,67,100,0
260.1269,260.37167,69,70,0
260.1269,260.37167,77,70,0
260.1269,260.37167,81,70,0
260.3769,260.62167,82,70,0
260.3769,260.62167,79,70,0
260.3769,260.62167,70,70,0
260.6269,260.87167,72,70,0
260.6269,260.87167,81,70,0
260.6269,260.87167,84,70,0
261.1269,261.37167,82,78,0
261.1269,261.37167,79,78,0
261.1269,261.37167,70,78,0
261.3769,261.62167,69,83,0
261.3769,261.62167,77,83,0
261.3769,261.62167,81,83,0
261.8769,261.99667,79,92,0
262.0019,262.12167,77,94,0
262.1269,262.24667,76,96,0
262.2519,262.37167,74,98,0
262.3769,262.49667,72,100,0
262.5019,262.62167,70,85,0
262.6269,262.74667,69,70,0
262.7519,262.87167,67,70,0
262.8769,262.99667,69,70,0
263.0019,263.12167,65,70,0
263.1269,263.24667,70,70,0
263.2519,263.37167,72,70,0
263.3769,263.49667,74,70,0
263.5019,263.62167,72,70,0
263.6269,263.74667,69,70,0
263.7519,263.87167,67,70,0
263.8769,263.99667,69,70,0
264.0019,264.12167,65,70,0
264.1269,264.24667,76,70,0
264.2519,264.37167,77,70,0
264.3769,264.49667,79,70,0
264.5019,264.62167,77,70,0
264.6269,264.74667,77,70,0
264.7519,264.87167,76,70,0
264.8769,264.99667,77,70,0
265.0019,265.12167,74,70,0
265.1269,265.24667,77,70,0
265.2519,265.37167,79,70,0
265.3769,265.49667,81,70,0
265.5019,265.62167,79,70,0
265.6269,265.74667,77,70,0
265.7519,265.87167,76,70,0
265.8769,265.99667,77,70,0
266.0019,266.12167,74,70,0
266.1269,266.24667,71,70,0
266.2519,266.37167,67,70,0
266.3769,266.62167,79,70,0
266.5019,266.74667,67,70,0
266.6269,266.87167,79,70,0
266.7519,266.99667,67,70,0
266.8769,267.12167,79,70,0
267.0019,267.24667,67,70,0
267.1269,267.37167,79,70,0
267.2519,267.49667,67,70,0
267.3769,267.62167,79,70,0
267.5019,267.74667,67,70,0
267.6269,267.87167,79,125,0
267.7519,267.99667,67,70,0
267.8769,268.12167,79,70,0
268.0019,268.24667,67,70,0
268.1269,268.37167,79,70,0
268.2519,268.49667,67,70,0
268.3769,268.62167,79,70,0
268.5019,268.74667,67,70,0
268.6269,268.87167,79,125,0
268.7519,268.99667,67,70,0
268.8769,269.12167,79,70,0
269.0019,269.24667,67,70,0
269.1269,269.37167,79,70,0
269.2519,269.49667,67,70,0
269.3769,269.62167,79,70,0
269.5019,269.62167,67,100,0
269.6269,269.87167,67,100,0
269.6269,269.87167,79,100,0
269.8769,270.12167,91,100,0
269.8769,270.12167,79,100,0
270.1269,270.37167,91,100,0
270.1269,270.37167,79,100,0
270.3769,270.62167,91,90,0
270.3769,270.62167,79,90,0
270.6269,270.87167,91,70,0
270.6269,270.87167,79,70,0
270.8769,271.12167,60,70,0
270.8769,271.12167,64,70,0
271.1269,271.37167,60,70,0
271.1269,271.37167,64,70,0
271.3769,271.62167,59,70,0
271.3769,271.62167,62,70,0
271.6269,271.87167,60,70,0
271.6269,271.87167,64,70,0
271.8769,272.12167,60,70,0
271.8769,272.12167,64,70,0
272.1269,272.37167,60,70,0
272.1269,272.37167,64,70,0
272.3769,272.62167,62,70,0
272.3769,272.62167,65,70,0
272.6269,272.87167,64,70,0
272.6269,272.87167,67,70,0
272.8769,273.12167,64,70,0
272.8769,273.12167,67,70,0
272.8769,273.12167,73,70,0
273.1269,273.37167,69,70,0
273.1269,273.37167,65,70,0
273.1269,273.37167,74,70,0
273.3769,273.62167,65,70,0
273.3769,273.62167,69,70,0
273.3769,273.62167,74,70,0
273.6269,273.87167,67,70,0
273.6269,273.87167,72,70,0
273.6269,273.87167,76,70,0
273.8769,274.12167,64,70,0
273.8769,274.12167,67,70,0
274.1269,274.38013,62,70,0
274.1269,274.38013,67,70,0
274.38553,274.65256,77,70,0
274.65823,274.78894,76,70,0
274.79462,274.9144,74,70,0
274.91962,275.0394,76,70,0
275.04462,275.1644,72,70,0
275.16962,275.2894,77,70,0
275.29462,275.4144,79,70,0
275.41962,275.5394,81,70,0
275.54462,275.6644,79,70,0
275.66962,275.7894,76,70,0
275.79462,275.9144,74,70,0
275.91962,276.0394,76,70,0
276.04462,276.1644,72,70,0
276.16962,276.2894,83,70,0
276.29462,276.4144,84,70,0
276.41962,276.5394,86,70,0
276.54462,276.6644,84,70,0
276.66962,276.7894,84,70,0
276.79462,276.9144,83,70,0
276.91962,277.0394,84,70,0
277.04462,277.1644,80,70,0
277.16962,277.2894,81,70,0
277.29462,277.4144,80,70,0
277.41962,277.5394,81,70,0
277.54462,277.6644,77,70,0
277.66962,277.7894,76,70,0
277.79462,277.9144,79,70,0
277.91962,278.0394,81,70,0
278.04462,278.1644,79,70,0
278.16962,278.29352,74,70,0
278.29892,278.42285,79,70,0
278.42822,278.5589,81,70,0
278.5646,278.69528,79,70,0
278.70096,278.94574,72,70,0
278.95096,279.44574,84,74,0
279.45096,279.69574,78,83,0
279.70096,279.94574,78,87,0
279.95096,280.19574,79,92,0
280.20096,280.69574,79,96,0
280.95096,281.19574,67,70,0
280.95096,281.19574,72,70,0
280.95096,281.19574,76,70,0
281.45096,281.69574,67,70,0
281.45096,281.69574,71,70,0
281.45096,281.69574,74,70,0
281.70096,281.94574,72,70,0
281.95096,282.07074,74,72,0
282.07596,282.19574,76,73,0
282.20096,282.32074,77,75,0
282.32596,282.44574,79,76,0
282.45096,282.57074,81,77,0
282.57596,282.69574,83,78,0
282.70096,282.82074,84,80,0
282.82596,282.94574,86,81,0
282.95096,283.07074,88,82,0
283.07596,283.19574,86,84,0
283.20096,283.44574,84,85,0
283.45096,283.69574,78,87,0
283.70096,283.94574,78,90,0
283.95096,284.19574,79,93,0
284.20096,284.57074,79,95,0
284.57596,284.69574,55,99,0
284.70096,284.82074,55,100,0
284.82596,284.94574,57,101,0
284.95096,285.07074,59,103,0
285.07596,285.19574,60,104,0
285.20096,285.32074,62,105,0
285.32596,285.44574,64,107,0
285.45096,285.57074,65,108,0
285.57596,285.69574,67,109,0
285.70096,285.82074,64,110,0
285.82596,285.94574,67,100,0
285.95096,286.07074,72,100,0
286.07596,286.19574,67,100,0
286.20096,286.32074,71,100,0
286.32596,286.44574,67,100,0
286.45096,286.57074,62,100,0
286.45096,286.57074,65,100,0
286.57596,286.69574,67,100,0
286.70096,286.75824,60,125,0
286.70096,286.82074,64,125,0
286.82596,286.94574,67,100,0
286.95096,287.07074,72,100,0
287.07596,287.19574,67,100,0
287.20096,287.32074,71,100,0
287.32596,287.44574,67,100,0
287.45096,287.57074,62,100,0
287.45096,287.57074,65,100,0
287.57596,287.69574,67,100,0
287.70096,287.75824,60,125,0
287.70096,287.82074,64,125,0
287.82596,287.94574,67,100,0
287.95096,288.07074,72,100,0
288.07596,288.19574,67,100,0
288.20096,288.32074,71,100,0
288.32596,288.44574,67,100,0
288.45096,288.57074,74,100,0
288.45096,288.57074,65,100,0
288.57596,288.69574,67,100,0
288.70096,288.94574,64,100,0
288.70096,288.94574,72,100,0
288.95096,289.07074,84,100,0
289.07596,289.19574,86,100,0
289.20096,289.44574,88,100,0
289.45096,289.57074,88,100,0
289.57596,289.69574,89,100,0
289.70096,289.94574,91,125,0
289.95096,290.07074,89,100,0
290.07596,290.19574,88,100,0
290.20096,290.44574,86,100,0
290.45096,290.57074,93,100,0
290.57596,290.69574,91,100,0
290.70096,290.94574,91,125,0
290.95096,291.07074,89,100,0
291.07596,291.19574,88,100,0
291.20096,291.44574,86,100,0
291.45096,291.57074,93,100,0
291.57596,291.69574,91,100,0
291.70096,291.94574,91,125,0
291.95096,292.07074,89,100,0
292.07596,292.19574,88,100,0
292.20096,292.4542,86,100,0
292.45956,292.59027,93,100,0
292.59595,292.72662,91,100,0
292.7323,292.99936,91,100,0
292.7323,292.99936,88,100,0
292.7323,292.99936,84,100,0
292.7323,292.99936,79,100,0
293.00504,293.27206,60,100,0
298.8232,299.068,75,60,0
299.0732,299.193,77,60,0
299.1982,299.318,79,60,0
299.3232,299.61697,80,110,0
304.92322,305.168,72,60,0
305.17322,305.293,74,60,0
305.29822,305.418,76,60,0
305.42322,305.71695,77,110,0
311.02322,311.268,68,60,0
311.27322,311.393,70,60,0
311.02322,311.518,61,60,0
311.39822,311.518,72,60,0
311.52322,311.768,68,60,0
311.77322,311.893,66,60,0
311.52322,312.018,73,60,0
311.89822,312.018,65,60,0
312.02322,312.268,70,60,0
312.27322,312.393,72,60,0
312.02322,312.518,63,60,0
312.39822,312.518,73,60,0
312.52322,312.768,70,60,0
312.77322,312.893,68,60,0
312.52322,313.018,75,60,0
312.89822,313.018,66,60,0
313.02322,313.143,72,60,0
313.14822,313.268,75,60,0
313.27322,313.393,77,60,0
313.39822,313.518,78,60,0
313.52322,313.643,68,60,0
313.52322,313.768,80,60,0
313.64822,313.768,72,60,0
313.77322,313.893,73,60,0
313.77322,314.018,80,60,0
313.89822,314.018,75,60,0
314.02322,314.18466,80,60,0
314.18988,314.35135,85,60,0
314.02322,314.518,73,60,0
314.35654,314.518,84,60,0
314.52322,314.68466,85,60,0
314.68988,314.85135,89,60,0
314.85654,315.018,87,60,0
315.02322,315.18466,89,60,0
315.18988,315.35135,87,60,0
315.35654,315.518,85,60,0
315.52322,315.68466,84,60,0
315.68988,315.85135,85,60,0
315.85654,316.018,80,60,0
316.02322,316.143,82,60,0
316.14822,316.268,80,60,0
316.27322,316.518,78,60,0
316.52322,316.643,78,60,0
316.64822,316.768,77,60,0
316.77322,317.018,75,60,0
317.02322,318.018,75,60,0
318.02322,318.143,80,60,0
318.14822,318.268,78,60,0
318.27322,318.518,77,60,0
318.52322,318.643,77,60,0
318.64822,318.768,75,60,0
318.77322,319.018,73,60,0
319.52322,319.643,68,60,0
319.64822,319.768,67,60,0
319.02322,320.018,73,60,0
319.77322,320.018,68,60,0
320.02322,320.143,82,60,0
320.14822,320.268,80,60,0
320.27322,320.518,78,60,0
320.52322,320.643,79,60,0
320.64822,320.768,77,60,0
320.77322,321.018,75,60,0
321.02322,321.143,80,60,0
321.14822,321.268,78,62,0
321.27322,321.518,77,64,0
321.52322,321.643,77,69,0
321.64822,321.768,75,71,0
321.77322,322.018,73,73,0
322.02322,322.143,80,78,0
322.14822,322.268,78,80,0
322.27322,322.518,77,83,0
322.52322,322.643,77,87,0
322.64822,322.768,75,90,0
322.77322,323.018,73,92,0
323.02322,323.143,80,97,0
323.14822,323.268,79,99,0
323.27322,323.52646,77,101,0
323.53183,323.6625,89,106,0
323.66818,323.7989,82,108,0
323.80457,324.0983,83,110,0
323.80457,324.0983,77,110,0
324.10455,324.26602,76,60,0
324.10455,324.26602,84,60,0
324.27124,324.43268,84,60,0
324.4379,324.59937,83,60,0
324.60455,324.76602,84,60,0
324.77124,324.93268,88,60,0
324.9379,325.09937,86,60,0
325.10455,325.26602,88,60,0
325.27124,325.43268,86,60,0
325.4379,325.59937,84,60,0
325.60455,325.76602,83,60,0
325.77124,325.93268,84,60,0
325.9379,326.09937,79,60,0
326.10455,326.22437,83,60,0
326.22955,326.34937,81,63,0
326.35455,326.59937,79,66,0
326.60455,326.72437,79,72,0
326.72955,326.84937,77,75,0
326.85455,327.09937,76,79,0
327.35455,327.47437,69,91,0
327.47955,327.59937,67,94,0
327.60455,327.72437,67,98,0
327.72955,327.84937,65,101,0
327.10455,328.09937,74,85,0
327.85455,328.09937,65,104,0
328.10455,328.59937,64,110,0
328.10455,328.59937,67,110,0
328.10455,328.59937,72,110,0
328.10455,328.59937,76,110,0
332.17242,332.33386,55,70,0
332.33908,332.50055,64,71,0
332.33908,332.50055,67,71,0
332.50574,332.6672,63,73,0
332.50574,332.6672,66,73,0
332.67242,333.1672,64,75,0
332.67242,333.1672,67,75,0
333.17242,333.33386,57,80,0
333.33908,333.50055,62,82,0
333.33908,333.50055,65,82,0
333.50574,333.6672,61,84,0
333.50574,333.6672,64,84,0
333.67242,334.1672,62,86,0
333.67242,334.1672,65,86,0
334.17242,334.33386,55,91,0
334.33908,334.50055,60,93,0
334.33908,334.50055,64,93,0
334.50574,334.6672,59,94,0
334.50574,334.6672,62,94,0
334.67242,335.1672,60,96,0
334.67242,335.1672,64,96,0
335.17242,335.33386,55,102,0
335.33908,335.50055,60,103,0
335.33908,335.50055,64,103,0
335.50574,335.6672,59,105,0
335.50574,335.6672,62,105,0
335.67242,335.83386,55,107,0
335.83908,336.00055,64,109,0
335.83908,336.00055,60,109,0
336.00574,336.1672,59,110,0
336.00574,336.1672,62,110,0
336.17242,336.6672,79,110,0
336.17242,336.6672,72,110,0
336.17242,336.6672,67,110,0
336.83908,337.00055,64,110,0
337.00574,337.1672,62,110,0
337.17242,337.33386,64,110,0
337.33908,337.50055,67,110,0
337.50574,337.6672,65,110,0
337.67242,337.83386,67,110,0
337.83908,338.00055,76,110,0
338.00574,338.1672,74,110,0
338.17242,338.33386,76,110,0
338.33908,338.50055,76,110,0
338.50574,338.6672,74,110,0
338.67242,338.83386,76,110,0
338.83908,339.00055,79,110,0
339.00574,339.1672,77,110,0
339.17242,339.33945,79,110,0
339.34482,339.51184,84,110,0
339.51724,339.68427,83,110,0
339.68967,339.86578,84,110,0
339.87146,340.05612,84,97,0
340.06238,340.25613,83,83,0
340.2624,340.92383,84,70,0
340.92905,341.0905,83,81,0
341.0957,341.25717,84,84,0
341.2624,341.50717,84,86,0
341.5124,341.75717,81,91,0
341.7624,342.00717,79,95,0
342.0124,342.25717,77,99,0
342.2624,342.42383,76,100,0
342.42905,342.5905,64,100,0
342.5957,342.75717,63,100,0
342.7624,342.92383,64,100,0
342.92905,343.0905,76,100,0
343.0957,343.25717,75,100,0
343.2624,343.42383,76,100,0
343.42905,343.5905,84,100,0
343.5957,343.75717,83,100,0
343.7624,343.92383,84,100,0
343.92905,344.0905,88,100,0
344.0957,344.25717,87,100,0
344.2624,344.50717,84,100,0
344.2624,344.50717,88,100,0
344.5124,344.75717,84,100,0
344.5124,344.75717,88,100,0
344.7624,344.88217,88,100,0
344.8874,345.00717,86,100,0
345.0124,345.13217,84,100,0
345.1374,345.25717,83,100,0
345.2624,345.38217,84,100,0
345.3874,345.50717,83,100,0
345.5124,345.63217,81,100,0
345.6374,345.75717,79,100,0
345.7624,345.88217,77,100,0
345.8874,346.00717,76,100,0
346.0124,346.13217,74,100,0
346.1374,346.25717,72,100,0
346.2624,346.38217,67,100,0
346.3874,346.50717,69,100,0
346.5124,346.63217,71,100,0
346.6374,346.75717,72,100,0
346.7624,346.88217,74,100,0
346.8874,347.00717,76,100,0
347.0124,347.13217,77,100,0
347.1374,347.25717,78,100,0
347.2624,347.38217,79,100,0
347.3874,347.50717,81,100,0
347.5124,347.63217,83,100,0
347.6374,347.75717,84,100,0
347.7624,347.8863,86,100,0
347.8917,348.01562,88,100,0
348.021,348.15167,89,95,0
348.15738,348.28806,91,84,0
348.29373,348.54697,67,70,0
348.29373,348.54697,79,70,0
348.55234,348.67627,69,70,0
348.55234,348.67627,81,70,0
348.68167,348.80557,71,70,0
348.68167,348.80557,83,70,0
348.81097,349.0642,72,70,0
348.81097,349.0642,84,70,0
349.32822,349.58145,67,70,0
349.32822,349.58145,79,70,0
349.58682,349.71075,69,70,0
349.58682,349.71075,81,70,0
349.71616,349.84006,71,70,0
349.71616,349.84006,83,70,0
349.84546,350.0987,72,70,0
349.84546,350.0987,84,70,0
350.3627,351.4056,50,70,0
350.3627,351.4056,55,70,0
350.3627,351.4056,59,70,0
351.4113,351.95105,52,70,0
351.4113,351.95105,55,70,0
351.4113,352.2238,60,70,0
351.95673,352.2238,55,70,0
352.22946,352.36014,76,70,0
352.3658,352.49652,77,70,0
352.5022,352.76923,67,70,0
352.5022,352.76923,79,70,0
352.77493,352.9056,69,70,0
352.77493,352.9056,81,70,0
352.9113,353.04196,71,70,0
352.9113,353.04196,83,70,0
353.04764,353.3147,72,70,0
353.04764,353.3147,84,70,0
353.5931,353.8702,67,70,0
353.5931,353.8702,79,70,0
353.87613,354.01172,69,70,0
353.87613,354.01172,81,70,0
354.01764,354.15323,71,70,0
354.01764,354.15323,83,70,0
354.15915,354.43625,72,70,0
354.15915,354.43625,84,70,0
354.72516,355.0023,79,70,0
355.00818,355.2853,77,70,0
355.2912,355.5792,76,70,0
355.58533,355.89133,74,70,0
355.89783,356.51633,72,70,0
357.14783,357.80756,55,60,0
357.14783,357.80756,59,60,0
357.81448,358.16418,57,60,0
357.81448,358.16418,60,60,0
358.17163,358.57962,59,60,0
358.17163,358.57962,62,60,0
358.58832,359.57788,60,60,0
358.58832,359.57788,64,60,0
360.58832,360.70422,79,110,0
360.70926,360.8252,81,110,0
360.83023,360.94617,79,110,0
360.9512,361.06714,77,110,0
361.07217,361.1881,76,110,0
361.19315,361.30908,79,110,0
361.31412,361.43002,77,110,0
361.4351,361.551,74,110,0
361.55603,361.80084,72,110,0
362.05603,362.3498,76,110,0
362.05603,362.3498,79,110,0
362.05603,362.3498,84,110,0
362.05603,362.3498,72,110,0
362.65604,363.2498,72,125,0
362.65604,363.2498,76,125,0
362.65604,363.2498,79,125,0
362.65604,363.2498,84,125,0
0.0,1.0491071,47,60,0
0.0,1.0491071,50,60,0
1.0714285,3.1919641,48,60,0
1.0714285,3.1919641,52,60,0
3.2142856,4.4610453,47,60,0
3.2142856,4.4610453,50,60,0
4.4922953,7.6842594,47,60,0
4.4922953,7.6842594,50,60,0
8.778009,10.898545,60,60,0
10.920866,11.166402,60,60,0
11.054795,11.30033,62,60,0
11.188724,11.434259,60,60,0
11.322652,11.568188,59,60,0
11.45658,11.702116,60,60,0
11.590509,11.836045,55,60,0
11.724438,11.969974,57,60,0
11.858366,12.103902,59,60,0
11.992295,12.23783,60,60,0
12.126224,12.371759,62,60,0
12.260152,12.505688,64,60,0
12.39408,12.639616,65,60,0
12.528009,12.773545,67,60,0
12.661938,12.907474,69,60,0
12.795866,13.041402,70,60,0
12.929795,13.17533,71,60,0
13.063724,14.648544,72,60,0
14.670866,15.184259,71,60,0
15.20658,16.255688,67,60,0
16.27801,16.7914,40,60,0
16.27801,16.7914,43,60,0
16.813723,17.327116,38,60,0
16.813723,17.327116,41,60,0
17.349438,18.398544,37,100,0
17.349438,18.398544,40,100,0
21.841732,22.087269,57,60,0
22.10959,22.355125,51,63,0
22.377447,22.622982,52,66,0
22.645304,22.89084,49,69,0
22.91316,23.158697,57,72,0
23.181019,23.426554,51,75,0
23.448875,23.69441,52,79,0
23.716732,23.962269,49,82,0
23.98459,24.230125,59,85,0
24.252447,24.497982,52,88,0
24.520304,24.76584,53,91,0
24.78816,25.033697,50,94,0
25.056019,25.301554,59,98,0
25.323875,25.56941,52,101,0
25.591732,25.837269,53,104,0
25.85959,26.105125,50,107,0
26.127447,26.372982,61,110,0
26.395304,26.640839,54,110,0
26.66316,26.908697,55,110,0
26.931019,27.176554,52,110,0
27.198875,27.44441,61,110,0
27.466732,27.712269,54,110,0
27.734589,27.980125,55,110,0
28.002447,28.247982,52,110,0
28.270304,28.515839,62,110,0
28.53816,28.783697,56,104,0
28.806019,29.051554,57,98,0
29.073875,29.31941,53,91,0
29.341732,29.606155,57,85,0
29.630194,29.894617,52,79,0
29.918655,30.217567,53,72,0
30.244741,30.588491,50,66,0
30.619741,32.77242,50,60,0
30.619741,32.77242,54,60,0
30.619741,32.77242,57,60,0
32.794743,34.91528,49,85,0
32.794743,34.91528,52,85,0
32.794743,34.91528,55,85,0
32.794743,34.91528,58,85,0
34.9376,37.058136,51,110,0
34.9376,37.058136,54,110,0
34.9376,37.058136,57,110,0
34.9376,37.058136,60,110,0
37.080456,39.200993,50,110,0
37.080456,39.200993,55,110,0
37.080456,39.200993,58,110,0
37.080456,39.200993,62,110,0
40.294743,41.34385,56,80,0
40.294743,41.34385,44,80,0
41.36617,42.415276,55,90,0
41.36617,42.415276,43,90,0
42.4376,43.486706,63,100,0
42.4376,43.486706,51,100,0
43.509026,44.558132,59,110,0
43.509026,44.558132,47,110,0
44.580456,45.629562,56,110,0
44.580456,45.629562,44,110,0
45.651882,46.700993,55,110,0
45.651882,46.700993,43,110,0
46.723312,47.925236,48,110,0
46.723312,47.925236,36,110,0
47.953644,49.034893,44,110,0
47.953644,49.034893,32,110,0
49.057217,50.106323,32,70,0
50.128643,51.17775,32,70,0
51.200073,52.24918,32,70,0
52.2715,53.32061,31,60,0
54.41436,55.463467,43,60,0
55.485786,56.534893,43,60,0
56.557217,57.606323,36,60,0
56.557217,57.606323,48,60,0
57.628643,58.67775,36,60,0
57.628643,58.67775,48,60,0
59.7715,60.820606,38,60,0
59.7715,60.820606,50,60,0
60.84293,61.892036,40,60,0
60.84293,61.892036,52,60,0
62.985786,64.0349,52,60,0
62.985786,64.0349,55,60,0
62.985786,64.0349,60,60,0
64.05721,65.10632,52,60,0
64.05721,65.10632,55,60,0
64.05721,65.10632,60,60,0
65.12865,65.64204,60,60,0
65.12865,66.17775,53,60,0
65.12865,66.17775,57,60,0
65.66436,66.17775,61,60,0
66.20007,67.249176,62,60,0
66.20007,67.249176,53,60,0
66.20007,67.249176,57,60,0
68.342926,69.39204,55,60,0
68.342926,69.39204,59,60,0
68.342926,69.39204,62,60,0
69.95007,70.46346,55,60,0
70.48579,71.03867,53,60,0
71.062706,71.650085,50,60,0
71.67725,71.813126,47,60,0
71.75878,71.894646,48,60,0
71.8403,71.97617,47,60,0
71.92182,72.05142,48,60,0
72.00334,72.123535,47,60,0
72.07546,72.19565,48,60,0
72.147575,72.26777,47,60,0
72.21969,72.33988,48,60,0
72.29181,72.411995,47,60,0
72.36392,72.484116,48,60,0
72.436035,72.55623,47,60,0
72.50815,72.62834,48,60,0
72.58027,72.70046,47,60,0
72.65238,72.772575,48,60,0
72.724495,72.84469,47,60,0
72.796616,72.91681,48,60,0
72.86873,72.98892,47,60,0
72.94084,73.061035,48,60,0
73.01296,73.13315,47,60,0
73.085075,73.20527,48,60,0
73.15719,73.27738,47,60,0
73.22931,73.349495,48,60,0
73.30142,73.421616,47,60,0
73.373535,73.49373,48,60,0
73.44565,73.56584,47,60,0
73.51777,73.63796,48,60,0
73.58988,73.710075,47,60,0
73.661995,73.78219,48,60,0
73.734116,73.998535,50,60,0
74.022575,75.15238,53,60,0
78.76212,79.68009,67,60,0
78.76212,79.68009,64,60,0
79.69962,80.61759,62,60,0
79.69962,80.61759,65,60,0
80.63712,81.08634,64,60,0
80.63712,81.55509,60,60,0
81.10587,81.55509,65,60,0
81.57462,82.25822,59,60,0
81.57462,82.25822,62,60,0
82.27775,82.49259,60,60,0
82.27775,82.49259,64,60,0
82.51212,82.96134,62,60,0
82.51212,82.96134,59,60,0
82.98087,83.43009,57,60,0
82.98087,83.43009,60,60,0
82.98087,83.43009,65,60,0
83.44962,83.89884,55,60,0
83.44962,83.89884,59,60,0
83.44962,83.89884,64,60,0
83.91837,84.36759,53,60,0
83.91837,84.36759,57,60,0
83.91837,84.36759,62,60,0
84.38712,86.24259,52,60,0
84.38712,86.24259,55,60,0
84.38712,86.24259,60,60,0
87.19962,89.05509,48,60,0
87.19962,89.05509,52,60,0
90.11034,90.559555,36,90,0
90.57909,91.028305,38,95,0
91.04784,91.497055,40,100,0
91.51659,91.965805,36,100,0
91.98534,92.434555,43,100,0
92.45409,92.903305,43,100,0
92.92284,93.840805,43,100,0
93.86034,94.309555,41,88,0
94.79784,95.811226,43,76,0
94.79784,95.811226,55,76,0
95.83355,97.68902,52,60,0
95.83355,97.68902,55,60,0
98.64605,100.50152,48,60,0
98.64605,100.50152,52,60,0
101.45855,101.67339,36,90,0
101.45855,101.67339,38,90,0
101.692924,101.90777,35,93,0
101.9273,102.14214,36,95,0
102.161674,102.37652,38,98,0
102.39605,102.61089,40,100,0
102.630424,102.84527,38,100,0
102.8648,103.07964,40,100,0
103.099174,103.31402,36,100,0
103.33355,103.54839,46,100,0
103.33355,103.54839,43,100,0
103.33355,103.54839,55,100,0
103.567924,103.78277,46,100,0
103.567924,103.78277,43,100,0
103.567924,103.78277,55,100,0
103.8023,104.01714,46,100,0
103.8023,104.01714,43,100,0
103.8023,104.01714,55,100,0
104.036674,104.25152,46,100,0
104.036674,104.25152,43,100,0
104.036674,104.25152,55,100,0
104.27105,105.18902,43,100,0
104.27105,105.18902,46,100,0
104.27105,105.18902,55,100,0
105.20855,105.65777,41,88,0
105.20855,105.65777,45,88,0
105.20855,105.65777,53,88,0
106.14605,107.15945,31,76,0
106.14605,107.15945,43,76,0
107.18176,107.39661,52,60,0
107.41614,107.63098,55,60,0
107.65051,107.86536,57,60,0
107.88489,108.09973,55,60,0
108.11926,108.33411,50,60,0
108.11926,108.33411,53,60,0
108.35364,108.56848,55,60,0
108.58801,108.80286,57,60,0
108.82239,109.03723,55,60,0
109.05676,109.27161,48,60,0
109.05676,109.27161,52,60,0
109.29114,109.50598,55,60,0
109.52551,109.74036,57,60,0
109.75989,109.97473,55,60,0
109.99426,110.20911,47,60,0
110.22864,110.44348,50,60,0
110.46301,110.67786,45,60,0
110.69739,110.91223,48,60,0
110.93176,111.14661,43,60,0
111.16614,111.38098,47,60,0
111.40051,111.61536,41,60,0
111.63489,111.84973,45,60,0
111.86926,112.08411,40,60,0
112.10364,112.31848,43,60,0
112.33801,112.55286,38,60,0
112.57239,112.78723,41,60,0
112.80676,113.02161,36,60,0
113.04114,113.25598,40,60,0
113.27551,113.49036,52,60,0
113.27551,113.49036,48,60,0
113.50989,113.72473,55,60,0
113.74426,113.95911,52,60,0
113.74426,113.95911,48,60,0
113.97864,114.19348,55,60,0
114.21301,114.42786,52,60,0
114.21301,114.42786,48,60,0
114.44739,114.66223,55,60,0
114.68176,114.89661,47,60,0
114.68176,114.89661,50,60,0
114.91614,115.13098,55,60,0
115.15051,115.379684,45,60,0
115.15051,115.379684,48,60,0
115.40051,115.629684,55,60,0
115.65051,115.879684,43,60,0
115.65051,115.879684,47,60,0
115.90051,116.129684,55,60,0
116.15051,116.379684,57,60,0
116.40051,116.629684,55,60,0
116.65051,116.89605,45,60,0
116.65051,116.89605,48,60,0
116.91837,117.16391,55,60,0
117.186226,117.43176,47,60,0
117.186226,117.43176,50,60,0
117.45409,117.69962,55,60,0
117.72195,117.84695,59,60,0
117.821945,117.946945,60,60,0
117.92194,118.04694,59,60,0
118.02194,118.14694,60,60,0
118.09695,118.22195,59,60,0
118.17194,118.29694,60,60,0
118.24694,118.366585,59,60,0
118.321945,118.43355,60,60,0
118.38891,118.50052,59,60,0
118.45587,118.56748,60,60,0
118.522835,118.634445,59,60,0
118.5898,118.70141,60,60,0
118.65677,118.76837,59,60,0
118.72373,118.835335,60,60,0
118.790695,118.89932,59,60,0
118.85766,118.96182,60,60,0
118.92016,119.02432,59,60,0
118.98266,119.08682,60,60,0
119.04516,119.14932,59,60,0
119.10766,119.21182,60,60,0
119.17016,119.27432,59,60,0
119.23266,119.33682,60,60,0
119.29516,119.39932,59,60,0
119.35766,119.46182,60,60,0
119.42016,119.52432,59,60,0
119.48266,119.58682,60,60,0
119.54516,119.64932,59,60,0
119.60766,119.71182,60,60,0
119.67016,119.77432,59,60,0
119.73266,119.83682,60,60,0
119.79516,119.89932,59,60,0
119.85766,119.96182,60,60,0
119.92016,120.02432,59,60,0
119.98266,120.08682,60,60,0
120.04516,120.14932,59,60,0
120.10766,120.21182,60,60,0
120.17016,120.27432,59,60,0
120.23266,120.33682,60,60,0
120.29516,120.39932,59,60,0
120.35766,120.46182,60,60,0
120.42016,120.52432,59,60,0
120.48266,120.58682,60,60,0
120.54516,120.64932,59,60,0
120.60766,120.71182,60,60,0
120.67016,120.77432,59,60,0
120.73266,120.83682,60,60,0
120.79516,120.89932,59,60,0
120.85766,120.96182,60,60,0
120.92016,121.02432,59,60,0
120.98266,121.08682,60,60,0
121.04516,121.14932,59,60,0
121.10766,121.21182,60,60,0
121.17016,121.27432,59,60,0
121.23266,121.33682,60,60,0
121.29516,121.39932,59,60,0
121.35766,121.46182,60,60,0
121.42016,121.52432,59,60,0
121.48266,121.58682,60,60,0
121.54516,121.64932,59,60,0
121.60766,121.71182,60,60,0
121.67016,121.77432,59,60,0
121.73266,121.83682,60,60,0
121.79516,121.89932,59,60,0
121.85766,121.96182,60,60,0
121.92016,122.02432,59,60,0
121.98266,122.08682,60,60,0
122.04516,122.14932,59,60,0
122.10766,122.21182,60,60,0
122.17016,122.27432,59,60,0
122.23266,122.33682,60,60,0
122.29516,122.39932,59,60,0
122.35766,122.46182,60,60,0
122.42016,122.52432,59,60,0
122.48266,122.58682,60,60,0
122.54516,122.64932,59,60,0
122.60766,122.71182,60,60,0
122.67016,122.77432,59,60,0
122.73266,122.83682,60,60,0
122.79516,122.89932,59,60,0
122.85766,122.96182,60,60,0
122.92016,123.02432,59,60,0
122.98266,123.08682,60,60,0
123.04516,123.14932,59,60,0
123.10766,123.21182,60,60,0
123.17016,123.27432,59,60,0
123.23266,123.33682,60,60,0
123.29516,123.39932,59,60,0
123.35766,123.46182,60,60,0
123.42016,123.52432,59,60,0
123.48266,123.58682,60,60,0
123.54516,123.64932,59,60,0
123.60766,123.71182,60,60,0
123.67016,123.77432,59,60,0
123.73266,123.83682,60,60,0
123.79516,123.9023,59,60,0
123.85766,123.96927,60,60,0
123.92462,124.03623,59,60,0
123.991585,124.103195,60,60,0
124.05855,124.17016,59,60,0
124.12552,124.23712,60,60,0
124.19248,124.304085,59,60,0
124.259445,124.37105,60,60,0
124.32641,124.443375,59,60,0
124.39337,124.51837,60,60,0
124.46837,124.59337,59,60,0
124.54337,124.66837,60,60,0
124.61837,124.74337,59,60,0
124.693375,124.818375,57,60,0
124.84337,124.96837,59,60,0
124.99337,125.48817,60,70,0
129.24338,131.48816,72,70,0
131.74338,131.86316,64,70,0
131.86838,131.98816,65,70,0
131.99338,132.23816,67,70,0
132.24338,132.36316,69,70,0
132.36838,132.48816,71,70,0
132.49338,132.73816,72,70,0
132.99338,133.23816,64,70,0
133.24338,133.36316,65,70,0
133.36838,133.48816,67,70,0
133.49338,133.73816,69,70,0
133.99338,134.23816,62,70,0
134.24338,134.36316,64,70,0
134.36838,134.48816,65,70,0
134.49338,134.73816,67,70,0
134.74338,134.98816,65,70,0
134.99338,135.23816,64,70,0
135.24338,135.48816,60,70,0
135.49338,135.73816,55,70,0
135.99338,136.98816,36,70,0
136.99338,137.73816,36,70,0
137.74338,137.98816,36,70,0
137.99338,138.23816,37,70,0
138.24338,138.48816,37,80,0
138.49338,138.73816,38,90,0
138.74338,138.86838,40,100,0
138.86838,138.99338,41,86,0
138.99338,139.26042,42,70,0
139.2661,139.53314,43,70,0
139.53883,139.80588,31,70,0
139.81155,139.93655,52,70,0
139.93655,140.06155,53,70,0
140.06155,140.30635,55,70,0
140.31155,140.43135,57,70,0
140.43655,140.55635,59,70,0
140.56155,140.80635,60,70,0
140.81155,141.80635,48,70,0
140.81155,141.80635,60,70,0
141.81155,142.30635,41,70,0
141.81155,142.30635,53,70,0
142.31155,142.80635,55,70,0
142.81155,142.93135,57,70,0
142.93655,143.05635,59,70,0
143.06155,143.18135,60,70,0
143.18655,143.30635,62,70,0
143.31155,143.43135,64,70,0
143.43655,143.55635,65,70,0
143.56155,143.80635,67,70,0
143.81155,144.05635,67,70,0
144.06155,145.05635,55,70,0
144.06155,145.05635,64,70,0
144.06155,145.05635,67,70,0
145.06155,145.80635,67,70,0
145.06155,145.80635,64,70,0
145.06155,145.80635,55,70,0
145.81155,146.05635,55,70,0
145.81155,146.05635,64,70,0
145.81155,146.05635,67,70,0
146.06155,146.30635,57,70,0
146.06155,146.30635,64,70,0
146.06155,146.30635,67,70,0
146.31155,146.55635,57,80,0
146.31155,146.55635,64,80,0
146.31155,146.55635,67,80,0
146.56155,146.80635,57,90,0
146.56155,146.80635,62,90,0
146.56155,146.80635,65,90,0
146.81155,147.05635,57,100,0
146.81155,147.05635,60,100,0
146.81155,147.05635,64,100,0
147.06155,147.59169,64,70,0
147.06155,147.59169,60,70,0
147.06155,147.85954,55,70,0
147.59727,147.85954,59,70,0
147.59727,147.85954,62,70,0
147.86513,147.99347,36,70,0
147.99905,148.1274,48,73,0
148.13298,148.25278,37,76,0
148.25798,148.37778,49,80,0
148.38298,148.50278,37,83,0
148.50798,148.62778,49,87,0
148.63298,148.75278,38,90,0
148.75798,148.87778,50,94,0
148.88298,149.00278,40,97,0
149.00798,149.12778,42,100,0
149.13298,149.25278,31,110,0
149.25798,149.37778,43,110,0
149.38298,149.50278,31,110,0
149.50798,149.62778,43,110,0
149.63298,149.87778,36,110,0
149.63298,149.87778,48,110,0
150.13298,150.37778,48,110,0
150.13298,150.37778,36,110,0
150.63298,150.87778,47,70,0
150.63298,150.87778,35,70,0
150.88298,151.12778,45,70,0
150.88298,151.12778,33,70,0
151.13298,151.37778,43,100,0
151.13298,151.37778,31,100,0
151.63298,151.87778,45,70,0
151.63298,151.87778,33,70,0
151.88298,152.12778,47,70,0
151.88298,152.12778,35,70,0
152.13298,152.37778,48,70,0
152.13298,152.37778,36,70,0
152.63298,152.87778,47,80,0
152.63298,152.87778,35,80,0
152.88298,153.12778,46,85,0
152.88298,153.12778,34,85,0
153.13298,153.37778,45,90,0
153.13298,153.37778,33,90,0
153.38298,153.62778,44,95,0
153.38298,153.62778,32,95,0
153.63298,153.88622,43,100,0
153.63298,153.88622,31,100,0
153.8916,154.14484,44,105,0
153.8916,154.14484,32,105,0
154.15022,154.39502,45,100,0
154.15022,154.39502,33,100,0
154.40022,154.52002,72,70,0
154.52522,154.64502,64,70,0
154.65022,154.77002,71,70,0
154.77522,154.89502,64,70,0
154.90022,155.02002,69,70,0
155.02522,155.14502,64,70,0
155.15022,155.27002,68,100,0
155.27522,155.39502,69,70,0
155.40022,155.52002,68,70,0
155.52522,155.64502,64,70,0
155.65022,155.77002,69,70,0
155.77522,155.89502,64,70,0
155.90022,156.02002,71,70,0
156.02522,156.14502,64,70,0
156.15022,156.27002,72,70,0
156.27522,156.39502,64,72,0
156.40022,156.52002,69,74,0
156.52522,156.64502,64,76,0
156.65022,156.77002,64,78,0
156.65022,156.77002,67,78,0
156.77522,156.89502,69,80,0
156.90022,157.02002,64,82,0
156.90022,157.02002,67,82,0
157.02522,157.14502,69,84,0
157.15022,157.39502,62,86,0
157.15022,157.39502,66,86,0
157.15022,157.39502,69,86,0
157.40022,157.52002,54,90,0
157.52522,157.64502,52,92,0
157.65022,157.77002,50,94,0
157.77522,157.89502,48,96,0
157.90022,158.02002,47,98,0
158.02522,158.14502,45,100,0
158.15022,158.26614,43,100,0
158.2712,158.38712,42,70,0
158.39215,158.50809,43,70,0
158.51312,158.62906,38,70,0
158.6341,158.75002,45,70,0
158.75507,158.87099,38,70,0
158.87602,158.99196,47,70,0
158.997,159.11292,38,70,0
159.11797,159.23389,48,100,0
159.23894,159.35486,47,70,0
159.3599,159.47583,48,70,0
159.48087,159.59679,38,70,0
159.60184,159.71776,50,70,0
159.7228,159.83873,48,70,0
159.84377,159.9597,47,70,0
159.96474,160.08066,45,70,0
160.08571,160.20163,43,70,0
160.20667,160.3226,42,72,0
160.32764,160.44356,43,74,0
160.44861,160.56453,38,76,0
160.56956,160.6855,45,78,0
160.69054,160.80647,38,81,0
160.81151,160.92743,47,83,0
160.93248,161.0484,38,85,0
161.05344,161.16937,48,87,0
161.17441,161.29034,38,89,0
161.29538,161.4113,50,92,0
161.41635,161.53227,38,94,0
161.53731,161.65324,40,96,0
161.65828,161.7742,50,98,0
161.77925,161.89517,42,100,0
161.9002,162.01614,50,85,0
162.02118,162.25807,43,70,0
162.26312,162.50002,55,70,0
162.50505,162.74194,55,70,0
162.747,162.98389,53,70,0
162.98892,163.22581,55,70,0
163.23085,163.46776,55,70,0
163.4728,163.70969,55,70,0
163.71472,163.95161,57,70,0
163.95667,164.19356,59,70,0
164.1986,164.43549,68,70,0
164.1986,164.43549,59,70,0
164.44054,164.67743,67,70,0
164.44054,164.67743,60,70,0
164.68246,164.91936,67,70,0
164.68246,164.91936,60,70,0
164.92441,165.1613,62,70,0
164.92441,165.1613,67,70,0
165.16634,165.40323,67,70,0
165.16634,165.40323,62,70,0
165.40828,165.64517,62,70,0
165.40828,165.64517,66,70,0
165.6502,165.8871,50,70,0
165.6502,165.8871,62,70,0
165.89214,166.12904,55,70,0
165.89214,166.12904,59,70,0
165.89214,166.12904,62,70,0
166.13408,166.37097,43,70,0
166.13408,166.37097,47,70,0
166.376,166.6129,43,70,0
166.376,166.6129,47,70,0
166.61795,166.85484,42,70,0
166.61795,166.85484,45,70,0
166.85988,167.09677,43,70,0
166.85988,167.09677,47,70,0
167.10182,167.33871,43,70,0
167.10182,167.33871,47,70,0
167.34375,167.58064,43,70,0
167.34375,167.58064,47,70,0
167.5857,167.82259,45,70,0
167.5857,167.82259,48,70,0
167.82762,168.06451,47,70,0
167.82762,168.06451,50,70,0
168.06956,168.30646,47,70,0
168.06956,168.30646,50,70,0
168.3115,168.54839,48,70,0
168.3115,168.54839,52,70,0
168.55342,168.79033,48,70,0
168.55342,168.79033,55,70,0
168.79536,169.03226,50,70,0
168.79536,169.03226,55,70,0
169.0373,169.27419,50,70,0
169.0373,169.27419,55,70,0
169.27924,169.51613,50,70,0
169.27924,169.51613,54,70,0
169.52116,169.75806,50,70,0
169.52116,169.75806,54,70,0
169.7631,169.87903,52,70,0
169.88406,170.0,57,72,0
170.00504,170.12097,55,74,0
170.126,170.24193,57,76,0
170.24698,170.3629,61,78,0
170.36794,170.48387,57,81,0
170.4889,170.60483,55,83,0
170.60988,170.7258,57,85,0
170.73083,170.84677,50,87,0
170.8518,170.96774,59,89,0
170.97278,171.0887,55,92,0
171.09375,171.20967,59,94,0
171.2147,171.33064,62,96,0
171.33568,171.45161,59,98,0
171.45665,171.57257,55,100,0
171.57762,171.69354,59,85,0
171.69858,171.81451,50,70,0
171.81955,171.93547,59,70,0
171.94052,172.05644,55,70,0
172.06148,172.17741,59,70,0
172.18245,172.29839,48,70,0
172.30342,172.41934,57,70,0
172.4244,172.54031,54,70,0
172.54535,172.66129,57,70,0
172.66632,172.78224,47,70,0
172.7873,172.90321,55,71,0
172.90826,173.02419,50,72,0
173.02922,173.14516,55,73,0
173.15019,173.26611,52,75,0
173.27116,173.38708,60,76,0
173.39212,173.50806,55,77,0
173.51309,173.62903,60,78,0
173.63406,173.74998,52,80,0
173.75504,173.87096,57,81,0
173.87599,173.99193,55,82,0
173.99696,174.11288,57,84,0
174.11794,174.23386,61,85,0
174.2389,174.35483,57,86,0
174.35986,174.4758,52,87,0
174.35986,174.4758,55,87,0
174.48083,174.59676,57,89,0
174.6018,174.71773,50,90,0
174.72276,174.8387,59,91,0
174.84373,174.95967,55,93,0
174.9647,175.08063,59,94,0
175.08568,175.2016,62,95,0
175.20663,175.32257,59,96,0
175.3276,175.44353,55,98,0
175.44858,175.5645,52,99,0
175.56955,175.68547,38,100,0
175.6905,175.80644,40,101,0
175.81148,175.9274,42,103,0
175.93245,176.04837,43,104,0
176.0534,176.16934,45,105,0
176.17438,176.29031,47,107,0
176.29535,176.41127,48,108,0
176.41632,176.53224,50,109,0
176.53728,176.78207,43,125,0
176.78728,177.03207,47,100,0
177.03728,177.28207,50,100,0
177.28728,177.53207,38,100,0
177.53728,177.78207,43,125,0
177.78728,178.03207,47,100,0
178.03728,178.28207,50,100,0
178.28728,178.53207,38,100,0
178.53728,178.78207,43,125,0
178.78728,179.03207,47,100,0
179.03728,179.28207,50,100,0
179.28728,179.53207,38,100,0
179.53728,179.78207,43,100,0
179.66228,179.90707,50,100,0
179.78728,180.03207,55,100,0
179.78728,180.03207,59,100,0
179.91228,180.15707,50,100,0
180.03728,180.28207,55,100,0
180.03728,180.28207,59,100,0
180.16228,180.40707,50,100,0
180.28728,180.53207,55,100,0
180.28728,180.53207,59,100,0
180.41228,180.53207,50,100,0
180.53728,180.78207,55,125,0
180.53728,180.78207,59,125,0
180.66228,180.90707,50,100,0
180.78728,181.03207,55,100,0
180.78728,181.03207,59,100,0
180.91228,181.15707,50,100,0
181.03728,181.28207,54,100,0
181.03728,181.28207,57,100,0
181.16228,181.40707,50,100,0
181.28728,181.53207,54,100,0
181.28728,181.53207,60,100,0
181.41228,181.53207,50,100,0
181.53728,181.78207,55,125,0
181.53728,181.78207,59,125,0
181.66228,181.90707,50,100,0
181.78728,182.03207,55,100,0
181.78728,182.03207,59,100,0
181.91228,182.15707,50,100,0
182.03728,182.28207,54,100,0
182.03728,182.28207,57,100,0
182.16228,182.40707,50,100,0
182.28728,182.53207,54,100,0
182.28728,182.53207,60,100,0
182.41228,182.53207,50,100,0
182.53728,182.78207,55,125,0
182.53728,182.78207,59,125,0
182.66228,182.90707,50,100,0
182.78728,183.03207,55,100,0
182.78728,183.03207,59,100,0
182.91228,183.16121,50,100,0
183.03728,183.29051,54,100,0
183.03728,183.29051,57,100,0
183.1666,183.29051,50,100,0
183.2959,183.56294,50,100,0
183.43227,183.56294,38,100,0
183.56863,183.86238,31,100,0
183.56863,183.86238,43,100,0
183.86864,184.16238,31,100,0
183.86864,184.16238,43,100,0
189.76863,190.01343,70,70,0
190.01863,190.13843,72,70,0
190.14363,190.26343,74,70,0
190.26863,190.56238,75,110,0
195.86864,196.11342,67,70,0
196.11864,196.23842,69,70,0
196.24364,196.36342,71,70,0
196.36864,196.66238,72,110,0
202.46863,202.71342,68,60,0
202.71863,202.83842,70,60,0
202.84363,202.96342,72,60,0
202.96863,203.46342,73,60,0
203.46863,203.71342,70,60,0
203.71863,203.83842,72,60,0
203.84363,203.96342,73,60,0
203.96863,204.46342,75,60,0
204.46863,204.58842,63,60,0
204.59363,204.71342,67,60,0
204.71863,204.83842,68,60,0
204.84363,204.96342,70,60,0
204.96863,205.21342,72,60,0
207.96863,208.21342,36,60,0
208.21863,208.33842,38,61,0
208.34363,208.46342,40,62,0
208.46863,208.96342,41,62,0
208.96863,209.21342,38,65,0
209.21863,209.33842,39,67,0
209.34363,209.46342,41,68,0
209.46863,209.96342,43,68,0
209.96863,210.08842,40,71,0
210.09363,210.21342,43,72,0
210.21863,210.33842,44,73,0
210.34363,210.46342,46,73,0
210.46863,210.71342,48,74,0
210.71863,210.96342,47,76,0
210.96863,211.96342,44,77,0
211.96863,212.08842,47,83,0
212.09363,212.21342,50,84,0
212.21863,212.33842,51,84,0
212.34363,212.46342,53,85,0
212.46863,212.71342,55,86,0
212.71863,212.96342,53,87,0
212.96863,213.96342,51,89,0
213.96863,214.08842,54,95,0
214.09363,214.21342,57,95,0
214.21863,214.33842,58,96,0
214.34363,214.46342,60,97,0
214.46863,214.71342,62,98,0
214.71863,214.97186,38,99,0
214.71863,214.97186,50,99,0
214.97725,215.46442,31,100,0
214.97725,215.46442,43,100,0
216.43721,216.6741,47,100,0
216.67914,216.79506,48,100,0
216.80011,216.91603,50,100,0
216.92107,217.15797,51,100,0
217.16301,217.27893,53,100,0
217.28398,217.3999,55,100,0
218.37268,218.60957,43,100,0
218.61462,218.73055,45,100,0
218.73558,218.85152,47,100,0
218.85655,219.09344,48,100,0
219.0985,219.21442,50,100,0
219.21945,219.33539,51,100,0
219.34042,219.57732,45,100,0
219.58235,219.69829,43,100,0
219.70332,219.81926,41,100,0
219.8243,220.06119,46,100,0
220.06622,220.18216,44,100,0
220.1872,220.30312,43,100,0
220.30817,220.54506,43,100,0
220.5501,220.66603,41,100,0
220.67107,220.78699,39,100,0
220.79204,221.02893,44,100,0
221.03397,221.1499,43,100,0
221.15494,221.27086,41,100,0
221.27591,221.5128,41,100,0
221.51784,221.63376,39,100,0
221.63881,221.75473,37,100,0
221.75977,221.99667,43,100,0
222.00171,222.11763,41,100,0
222.12268,222.2386,40,100,0
222.24364,222.48055,40,100,0
222.48558,222.6015,38,100,0
222.60655,222.72247,36,100,0
222.72751,222.9644,41,100,0
222.96945,223.08537,39,100,0
223.09041,223.20634,38,100,0
223.21138,223.44827,38,100,0
223.45332,223.56924,36,100,0
223.57428,223.69022,34,100,0
223.69525,223.93214,35,100,0
223.9372,224.05312,33,100,0
224.05815,224.17409,31,100,0
224.17912,224.41602,39,100,0
224.42105,224.53699,38,100,0
224.54202,224.65796,36,100,0
224.663,224.77892,41,100,0
224.78397,224.89989,44,100,0
224.90492,225.02086,41,100,0
225.0259,225.14182,44,100,0
225.14687,225.26279,41,100,0
225.26784,225.38376,44,100,0
225.3888,225.50473,41,100,0
225.50977,225.62569,44,100,0
225.63074,225.74666,30,100,0
225.7517,225.86763,33,100,0
225.87267,225.9886,30,100,0
225.99364,226.10956,33,100,0
226.11461,226.23053,30,100,0
226.23557,226.3515,33,100,0
226.35654,226.47246,30,100,0
226.47751,226.59343,42,100,0
226.59848,226.7144,31,100,0
226.71944,226.83537,38,100,0
226.84041,226.95633,31,100,0
226.96138,227.0773,38,100,0
227.08234,227.19827,31,100,0
227.20331,227.31924,38,100,0
227.32428,227.4402,31,100,0
227.44525,227.56117,38,100,0
227.56621,227.68214,31,100,0
227.68718,227.8031,42,100,0
227.80815,227.92407,31,100,0
227.92912,228.04504,42,100,0
228.05008,228.16602,31,100,0
228.17105,228.28697,42,100,0
228.29202,228.40794,31,100,0
228.41298,228.52892,42,100,0
228.53395,228.77084,31,100,0
228.65492,228.89182,41,100,0
228.7759,229.01279,31,100,0
228.89685,229.13374,41,100,0
229.01782,229.25471,31,100,0
229.1388,229.37569,41,100,0
229.25977,229.49666,31,100,0
229.38072,229.61761,41,100,0
229.5017,229.73859,31,100,0
229.62267,229.85956,41,100,0
229.74362,229.98053,31,100,0
229.8646,230.10149,41,100,0
229.98557,230.22246,31,100,0
230.10654,230.34343,41,100,0
230.2275,230.46439,31,100,0
230.34846,230.58536,41,100,0
230.46944,230.70633,31,100,0
230.5904,230.8273,41,100,0
230.71136,230.94826,31,100,0
230.83234,231.06923,41,100,0
230.95331,231.1902,31,100,0
231.07426,231.31503,41,96,0
231.19524,231.44003,31,92,0
231.32024,231.56503,41,88,0
231.44524,231.69003,31,84,0
231.57024,231.81915,41,80,0
231.69524,231.94847,31,76,0
231.82455,232.08453,41,72,0
231.95386,232.2209,31,68,0
232.09023,232.37033,41,64,0
232.2266,232.52034,31,60,0
232.37659,232.64638,41,60,0
232.77658,233.02138,67,70,0
233.02658,233.14638,69,70,0
233.15158,233.27138,71,70,0
233.27658,233.52138,72,70,0
233.77658,234.02138,64,70,0
234.02658,234.14638,65,70,0
234.15158,234.27138,67,70,0
234.27658,234.52138,69,70,0
234.77658,235.02138,62,70,0
235.02658,235.14638,64,70,0
235.15158,235.27138,65,70,0
235.27658,235.39638,67,70,0
235.40158,235.52138,65,70,0
235.52658,235.77138,64,70,0
235.77658,236.02138,60,70,0
236.02658,236.27138,55,70,0
236.52658,237.52138,36,70,0
237.52658,238.27138,36,70,0
238.27658,238.52138,36,70,0
238.52658,238.77138,37,70,0
238.77658,239.02138,37,80,0
239.02658,239.27138,38,90,0
239.27658,239.40158,40,100,0
239.40158,239.52658,41,86,0
239.52658,239.77982,42,70,0
239.7852,240.03844,43,70,0
240.04382,240.29706,31,70,0
240.30244,240.43176,52,70,0
240.43176,240.56107,53,70,0
240.56107,240.80586,55,70,0
240.81107,240.93086,57,70,0
240.93607,241.05586,59,70,0
241.06107,241.30586,60,70,0
241.31107,242.30586,48,70,0
241.31107,242.30586,60,70,0
242.31107,242.80586,41,70,0
242.31107,242.80586,53,70,0
242.81107,243.30586,55,70,0
243.31107,243.43086,57,70,0
243.43607,243.55586,59,70,0
243.56107,243.68086,60,70,0
243.68607,243.80586,62,70,0
243.81107,243.93086,64,70,0
243.93607,244.05586,65,70,0
244.06107,244.30586,67,70,0
244.31107,244.55586,67,70,0
244.56107,245.55586,55,70,0
244.56107,245.55586,64,70,0
244.56107,245.55586,67,70,0
245.56107,246.30586,67,70,0
245.56107,246.30586,64,70,0
245.56107,246.30586,55,70,0
246.31107,246.55586,55,70,0
246.31107,246.55586,64,70,0
246.31107,246.55586,67,70,0
246.56107,246.80586,57,70,0
246.56107,246.80586,64,70,0
246.56107,246.80586,67,70,0
246.81107,247.05586,57,80,0
246.81107,247.05586,64,80,0
246.81107,247.05586,67,80,0
247.06107,247.30586,57,90,0
247.06107,247.30586,62,90,0
247.06107,247.30586,65,90,0
247.31107,247.55586,57,100,0
247.31107,247.55586,60,100,0
247.31107,247.55586,64,100,0
247.56107,248.07292,64,70,0
247.56107,248.07292,60,70,0
247.56107,248.33154,55,70,0
248.07831,248.33154,59,70,0
248.07831,248.33154,62,70,0
248.33693,248.46085,36,70,0
248.46623,248.59016,48,73,0
248.59555,248.71535,37,76,0
248.72055,248.84035,49,80,0
248.84555,248.96535,37,83,0
248.97055,249.09035,49,87,0
249.09555,249.21535,38,90,0
249.22055,249.34035,50,94,0
249.34555,249.46535,40,97,0
249.47055,249.59035,42,100,0
249.59555,249.71535,31,110,0
249.72055,249.84035,43,110,0
249.84555,249.96535,31,110,0
249.97055,250.09035,43,110,0
250.09555,250.34035,36,110,0
250.09555,250.34035,48,110,0
250.59555,250.84035,48,110,0
250.59555,250.84035,36,110,0
251.09555,251.34035,47,70,0
251.09555,251.34035,35,70,0
251.34555,251.59035,45,70,0
251.34555,251.59035,33,70,0
251.59555,251.84035,43,100,0
251.59555,251.84035,31,100,0
252.09555,252.34035,45,70,0
252.09555,252.34035,33,70,0
252.34555,252.59035,47,70,0
252.34555,252.59035,35,70,0
252.59555,252.84035,48,70,0
252.59555,252.84035,36,70,0
253.09555,253.34035,47,80,0
253.09555,253.34035,35,80,0
253.34555,253.59035,46,85,0
253.34555,253.59035,34,85,0
253.59555,253.84035,45,90,0
253.59555,253.84035,33,90,0
253.84555,254.09035,44,95,0
253.84555,254.09035,32,95,0
254.09555,254.34035,43,100,0
254.09555,254.34035,31,100,0
254.34555,254.59035,44,105,0
254.34555,254.59035,32,105,0
254.59555,254.84035,45,100,0
254.59555,254.84035,33,100,0
254.84555,254.96535,72,70,0
254.97055,255.09035,64,70,0
255.09555,255.21535,71,70,0
255.22055,255.34035,64,70,0
255.34555,255.46535,69,70,0
255.47055,255.59035,64,70,0
255.59555,255.71535,68,100,0
255.72055,255.84035,69,70,0
255.84555,255.96535,68,70,0
255.97055,256.09033,64,70,0
256.09555,256.21533,69,70,0
256.22055,256.34033,64,70,0
256.34555,256.46533,71,70,0
256.47055,256.59033,64,70,0
256.59555,256.71533,72,70,0
256.72055,256.84033,64,72,0
256.84555,256.96533,72,75,0
256.97055,257.09033,60,77,0
257.09555,257.21533,70,80,0
257.22055,257.34033,60,82,0
257.34555,257.46533,69,85,0
257.47055,257.59033,60,87,0
257.59555,257.71533,67,90,0
257.72055,257.84033,60,93,0
257.84555,257.96533,65,95,0
257.97055,258.09033,60,98,0
258.09555,258.21948,64,100,0
258.22485,258.3488,60,103,0
258.35416,258.5303,36,105,0
258.44507,258.62122,38,107,0
258.53598,258.70502,40,109,0
258.6269,258.74667,41,110,0
258.7519,258.87167,40,70,0
258.8769,258.99667,41,70,0
259.0019,259.12167,36,70,0
259.1269,259.24667,43,70,0
259.2519,259.37167,36,70,0
259.3769,259.49667,45,70,0
259.5019,259.62167,36,70,0
259.6269,259.74667,46,100,0
259.7519,259.87167,45,70,0
259.8769,259.99667,46,70,0
260.0019,260.12167,36,70,0
260.1269,260.24667,48,70,0
260.2519,260.37167,46,70,0
260.3769,260.49667,45,70,0
260.5019,260.62167,43,70,0
260.6269,260.74667,41,70,0
260.7519,260.87167,40,72,0
260.8769,260.99667,41,74,0
261.0019,261.12167,36,76,0
261.1269,261.24667,43,78,0
261.2519,261.37167,36,81,0
261.3769,261.49667,45,83,0
261.5019,261.62167,36,85,0
261.6269,261.74667,46,87,0
261.7519,261.87167,36,89,0
261.8769,261.99667,48,92,0
262.0019,262.12167,36,94,0
262.1269,262.24667,38,96,0
262.2519,262.37167,48,98,0
262.3769,262.49667,40,100,0
262.5019,262.62167,48,85,0
262.6269,262.87167,41,70,0
262.6269,262.87167,48,70,0
262.8769,263.12167,53,70,0
263.1269,263.37167,53,70,0
263.3769,263.62167,52,70,0
263.6269,263.87167,53,70,0
263.8769,264.12167,53,70,0
264.1269,264.37167,53,70,0
264.3769,264.62167,57,70,0
264.6269,264.87167,59,70,0
264.8769,265.12167,62,70,0
264.8769,265.12167,59,70,0
265.1269,265.37167,62,70,0
265.1269,265.37167,59,70,0
265.3769,265.62167,64,70,0
265.3769,265.62167,60,70,0
265.6269,265.87167,65,70,0
265.6269,265.87167,62,70,0
265.8769,266.12167,65,70,0
265.8769,266.12167,62,70,0
266.1269,266.37167,65,70,0
266.1269,266.37167,62,70,0
266.3769,266.53836,31,100,0
266.46024,266.62167,33,100,0
266.54355,266.70502,35,100,0
266.6269,266.74667,36,100,0
266.7519,266.87167,35,100,0
266.8769,266.99667,36,100,0
267.0019,267.12167,31,100,0
267.1269,267.24667,38,100,0
267.2519,267.37167,31,100,0
267.3769,267.49667,40,100,0
267.5019,267.62167,31,100,0
267.6269,267.74667,41,125,0
267.7519,267.87167,31,100,0
267.8769,267.99667,41,100,0
268.0019,268.12167,31,100,0
268.1269,268.24667,40,100,0
268.2519,268.37167,31,100,0
268.3769,268.49667,38,100,0
268.5019,268.62167,31,100,0
268.6269,268.74667,36,125,0
268.7519,268.87167,35,100,0
268.8769,268.99667,36,100,0
269.0019,269.12167,31,100,0
269.1269,269.24667,38,100,0
269.2519,269.37167,31,100,0
269.3769,269.49667,40,100,0
269.5019,269.62167,31,100,0
269.6269,269.74667,41,100,0
269.7519,269.87167,31,100,0
269.8769,269.99667,43,100,0
270.0019,270.12167,31,100,0
270.1269,270.24667,45,100,0
270.2519,270.37167,33,100,0
270.3769,270.49667,47,90,0
270.5019,270.62167,35,80,0
270.6269,270.87167,36,70,0
270.6269,270.87167,48,70,0
270.8769,271.12167,52,70,0
270.8769,271.12167,48,70,0
271.1269,271.37167,52,70,0
271.1269,271.37167,48,70,0
271.3769,271.62167,50,70,0
271.3769,271.62167,47,70,0
271.6269,271.87167,48,70,0
271.6269,271.87167,52,70,0
271.8769,272.12167,48,70,0
271.8769,272.12167,52,70,0
272.1269,272.37167,48,70,0
272.1269,272.37167,52,70,0
272.3769,272.62167,50,70,0
272.3769,272.62167,53,70,0
272.6269,272.87167,52,70,0
272.6269,272.87167,55,70,0
272.8769,273.12167,61,70,0
272.8769,273.12167,52,70,0
272.8769,273.12167,55,70,0
273.1269,273.37167,62,70,0
273.1269,273.37167,53,70,0
273.1269,273.37167,57,70,0
273.3769,273.62167,62,70,0
273.3769,273.62167,57,70,0
273.3769,273.62167,53,70,0
273.6269,273.87167,55,70,0
273.6269,273.87167,60,70,0
273.6269,273.87167,64,70,0
273.8769,274.12167,60,70,0
273.8769,274.12167,55,70,0
274.1269,274.38013,55,70,0
274.1269,274.38013,59,70,0
274.38553,274.65256,62,70,0
274.38553,274.65256,59,70,0
274.65823,274.9144,64,70,0
274.65823,274.9144,60,70,0
274.91962,275.1644,64,70,0
274.91962,275.1644,60,70,0
275.16962,275.4144,64,70,0
275.16962,275.4144,60,70,0
275.41962,275.6644,62,70,0
275.41962,275.6644,59,70,0
275.66962,275.9144,64,70,0
275.66962,275.9144,60,70,0
275.91962,276.1644,64,70,0
275.91962,276.1644,60,70,0
276.16962,276.4144,64,70,0
276.16962,276.4144,60,70,0
276.41962,276.6644,52,70,0
276.41962,276.6644,56,70,0
276.66962,276.9144,53,70,0
276.66962,276.9144,57,70,0
276.91962,277.1644,53,70,0
276.91962,277.1644,57,70,0
277.16962,277.4144,53,70,0
277.16962,277.4144,57,70,0
277.41962,277.6644,53,70,0
277.41962,277.6644,57,70,0
277.66962,277.9144,60,70,0
277.66962,277.9144,55,70,0
277.91962,278.1644,60,70,0
277.91962,278.1644,55,70,0
278.16962,278.42285,59,70,0
278.16962,278.42285,55,70,0
278.42822,278.69528,59,70,0
278.42822,278.69528,55,70,0
278.70096,278.82074,45,70,0
278.82596,278.94574,50,72,0
278.95096,279.07074,48,74,0
279.07596,279.19574,50,76,0
279.20096,279.32074,54,78,0
279.32596,279.44574,50,81,0
279.45096,279.57074,48,83,0
279.57596,279.69574,50,85,0
279.70096,279.82074,43,87,0
279.82596,279.94574,52,89,0
279.95096,280.07074,48,92,0
280.07596,280.19574,52,94,0
280.20096,280.32074,55,96,0
280.32596,280.44574,52,98,0
280.45096,280.57074,48,100,0
280.57596,280.69574,52,85,0
280.70096,280.82074,43,70,0
280.82596,280.94574,52,70,0
280.95096,281.07074,48,70,0
281.07596,281.19574,52,70,0
281.20096,281.32074,43,70,0
281.32596,281.44574,50,70,0
281.45096,281.57074,47,70,0
281.57596,281.69574,50,70,0
281.70096,281.82074,43,70,0
281.82596,281.94574,52,71,0
281.95096,282.07074,48,72,0
282.07596,282.19574,52,73,0
282.20096,282.32074,55,75,0
282.32596,282.44574,52,76,0
282.45096,282.57074,48,77,0
282.57596,282.69574,52,78,0
282.70096,282.82074,45,80,0
282.82596,282.94574,50,81,0
282.95096,283.07074,48,82,0
283.07596,283.19574,50,84,0
283.20096,283.32074,54,85,0
283.32596,283.44574,50,86,0
283.45096,283.57074,48,87,0
283.57596,283.69574,50,89,0
283.70096,283.82074,43,90,0
283.82596,283.94574,52,91,0
283.95096,284.07074,48,93,0
284.07596,284.19574,52,94,0
284.20096,284.32074,55,95,0
284.32596,284.44574,52,96,0
284.45096,284.57074,48,98,0
284.57596,284.69574,52,99,0
284.70096,284.82074,43,100,0
284.82596,284.94574,45,101,0
284.95096,285.07074,47,103,0
285.07596,285.19574,48,104,0
285.20096,285.32074,50,105,0
285.32596,285.44574,52,107,0
285.45096,285.57074,53,108,0
285.57596,285.69574,55,109,0
285.70096,285.94574,36,110,0
285.70096,285.94574,48,110,0
285.95096,286.19574,52,100,0
286.20096,286.44574,55,100,0
286.45096,286.69574,31,100,0
286.45096,286.69574,43,100,0
286.70096,286.94574,36,125,0
286.70096,286.94574,48,125,0
286.95096,287.19574,52,100,0
287.20096,287.44574,55,100,0
287.45096,287.69574,31,100,0
287.45096,287.69574,43,100,0
287.70096,287.94574,36,125,0
287.70096,287.94574,48,125,0
287.95096,288.19574,52,100,0
288.20096,288.44574,55,100,0
288.45096,288.69574,31,100,0
288.45096,288.69574,43,100,0
288.70096,288.94574,36,100,0
288.70096,288.94574,48,100,0
288.95096,289.19574,64,100,0
288.95096,289.19574,60,100,0
289.07596,289.32074,55,100,0
289.20096,289.44574,64,100,0
289.20096,289.44574,60,100,0
289.32596,289.57074,55,100,0
289.45096,289.69574,64,100,0
289.45096,289.69574,60,100,0
289.57596,289.69574,55,100,0
289.70096,289.94574,64,125,0
289.70096,289.94574,60,125,0
289.82596,290.07074,55,100,0
289.95096,290.19574,64,100,0
289.95096,290.19574,60,100,0
290.07596,290.32074,55,100,0
290.20096,290.44574,65,100,0
290.20096,290.44574,59,100,0
290.32596,290.57074,55,100,0
290.45096,290.69574,65,100,0
290.45096,290.69574,59,100,0
290.57596,290.69574,55,100,0
290.70096,290.94574,64,125,0
290.70096,290.94574,60,125,0
290.82596,291.07074,55,100,0
290.95096,291.19574,64,100,0
290.95096,291.19574,60,100,0
291.07596,291.32074,55,100,0
291.20096,291.44574,65,100,0
291.20096,291.44574,59,100,0
291.32596,291.57074,55,100,0
291.45096,291.69574,65,100,0
291.45096,291.69574,59,100,0
291.57596,291.69574,55,100,0
291.70096,291.94574,64,125,0
291.70096,291.94574,60,125,0
291.82596,292.07074,55,100,0
291.95096,292.19574,64,100,0
291.95096,292.19574,60,100,0
292.07596,292.3249,55,100,0
292.20096,292.4542,65,100,0
292.20096,292.4542,59,100,0
292.33026,292.59027,55,100,0
292.45956,292.72662,65,100,0
292.45956,292.72662,59,100,0
292.59595,292.72662,55,100,0
292.7323,292.99936,64,100,0
292.7323,292.99936,60,100,0
292.7323,292.99936,55,100,0
293.00504,293.27206,36,100,0
293.00504,293.27206,48,100,0
298.8232,299.068,63,60,0
299.0732,299.193,65,60,0
299.1982,299.318,67,60,0
299.3232,299.61697,68,110,0
304.92322,305.168,60,60,0
305.17322,305.293,62,60,0
305.29822,305.418,64,60,0
305.42322,305.71695,65,110,0
311.02322,311.518,53,60,0
311.52322,311.768,53,60,0
311.77322,311.893,51,60,0
311.89822,312.018,49,60,0
312.02322,312.518,54,60,0
312.52322,312.768,54,60,0
312.77322,312.893,53,60,0
312.89822,313.018,51,60,0
313.02322,313.268,66,60,0
313.02322,313.268,63,60,0
313.27322,313.518,60,60,0
313.27322,313.518,63,60,0
313.52322,313.643,60,60,0
313.64822,313.768,63,60,0
313.77322,313.893,65,60,0
313.89822,314.018,66,60,0
314.02322,314.518,65,60,0
314.52322,315.018,68,60,0
314.52322,315.018,65,60,0
315.02322,315.518,73,60,0
315.02322,315.518,68,60,0
315.52322,316.018,77,60,0
315.52322,316.018,73,60,0
316.02322,316.518,70,60,0
316.02322,316.518,66,60,0
316.52322,316.643,60,60,0
316.64822,316.768,61,60,0
316.77322,317.018,63,60,0
317.02322,317.143,63,60,0
317.14822,317.268,65,60,0
317.27322,317.518,66,60,0
317.52322,317.643,66,60,0
317.64822,317.768,65,60,0
317.77322,318.018,66,60,0
318.02322,318.518,65,60,0
318.52322,318.643,61,60,0
318.64822,318.768,63,60,0
318.77322,319.018,65,60,0
319.02322,319.143,65,60,0
319.14822,319.268,66,60,0
319.27322,319.518,68,60,0
319.52322,319.643,65,60,0
319.64822,319.768,64,60,0
319.77322,320.018,65,60,0
320.02322,320.518,70,60,0
320.02322,320.518,66,60,0
320.52322,320.643,60,60,0
320.64822,320.768,61,60,0
320.77322,321.018,63,60,0
321.02322,321.518,68,60,0
321.02322,321.518,65,60,0
321.52322,321.643,61,69,0
321.64822,321.768,63,71,0
321.77322,322.018,65,73,0
322.02322,322.518,68,78,0
322.02322,322.518,65,78,0
322.52322,322.643,61,87,0
322.64822,322.768,63,90,0
322.77322,323.018,65,92,0
323.02322,323.143,65,97,0
323.14822,323.268,67,99,0
323.27322,323.52646,68,101,0
323.53183,323.6625,68,106,0
323.66818,323.7989,70,108,0
323.80457,324.0983,65,110,0
323.80457,324.0983,71,110,0
324.10455,324.26602,52,60,0
324.10455,324.26602,60,60,0
324.27124,324.43268,64,60,0
324.4379,324.59937,62,60,0
324.60455,324.76602,64,60,0
324.77124,324.93268,67,60,0
324.9379,325.09937,65,60,0
325.10455,325.26602,67,60,0
325.27124,325.43268,65,60,0
325.4379,325.59937,64,60,0
325.60455,325.76602,62,60,0
325.77124,325.93268,64,60,0
325.9379,326.09937,64,60,0
326.10455,326.34937,65,60,0
326.35455,326.47437,47,66,0
326.47955,326.59937,48,69,0
326.60455,326.72437,48,72,0
326.72955,326.84937,50,75,0
326.85455,327.09937,52,79,0
327.10455,327.34937,53,85,0
327.35455,327.47437,53,91,0
327.35455,327.47437,57,91,0
327.47955,327.59937,55,94,0
327.47955,327.59937,59,94,0
327.60455,327.72437,55,98,0
327.60455,327.72437,59,98,0
327.72955,327.84937,57,101,0
327.72955,327.84937,60,101,0
327.85455,328.09937,62,104,0
327.85455,328.09937,59,104,0
328.10455,328.59937,48,110,0
328.10455,328.59937,52,110,0
328.10455,328.59937,55,110,0
328.10455,328.59937,60,110,0
332.17242,332.83386,40,70,0
332.83908,333.00055,47,77,0
333.00574,333.1672,48,78,0
333.17242,333.83386,41,80,0
333.83908,334.00055,49,87,0
334.00574,334.1672,50,89,0
334.17242,334.83386,43,91,0
334.83908,335.00055,50,98,0
335.00574,335.1672,52,100,0
335.17242,335.33386,43,102,0
335.33908,335.50055,52,103,0
335.50574,335.6672,53,105,0
335.67242,335.83386,43,107,0
335.83908,336.00055,52,109,0
336.00574,336.1672,53,110,0
336.17242,336.6672,40,110,0
336.17242,336.6672,52,110,0
336.67242,336.83386,52,110,0
340.2624,340.42383,40,70,0
340.42905,340.5905,48,72,0
340.5957,340.75717,47,75,0
340.7624,340.92383,48,78,0
340.92905,341.0905,50,81,0
341.0957,341.25717,52,84,0
341.2624,341.42383,41,86,0
341.42905,341.5905,50,89,0
341.5957,341.75717,49,92,0
341.7624,341.92383,50,95,0
341.92905,342.0905,52,98,0
342.0957,342.25717,53,100,0
342.2624,342.50717,43,100,0
342.3874,342.63217,55,100,0
342.5124,342.75717,43,100,0
342.6374,342.88217,55,100,0
342.7624,343.00717,43,100,0
342.8874,343.13217,55,100,0
343.0124,343.25717,43,100,0
343.1374,343.38217,55,100,0
343.2624,343.50717,43,100,0
343.3874,343.63217,55,100,0
343.5124,343.75717,43,100,0
343.6374,343.88217,55,100,0
343.7624,344.00717,43,100,0
343.8874,344.13217,55,100,0
344.0124,344.25717,43,100,0
344.1374,344.25717,55,100,0
344.2624,344.38217,43,100,0
344.3874,344.50717,45,100,0
344.5124,344.63217,47,100,0
344.6374,344.75717,48,100,0
344.7624,344.88217,50,100,0
344.8874,345.00717,52,100,0
345.0124,345.13217,53,100,0
345.1374,345.25717,55,100,0
345.2624,345.38217,48,100,0
345.3874,345.50717,50,100,0
345.5124,345.63217,52,100,0
345.6374,345.75717,53,100,0
345.7624,345.88217,55,100,0
345.8874,346.00717,57,100,0
346.0124,346.13217,59,100,0
346.1374,346.25717,60,100,0
346.2624,346.38217,59,100,0
346.3249,346.44467,60,100,0
346.3874,346.50717,59,100,0
346.4499,346.56967,60,100,0
346.5124,346.63217,59,100,0
346.5749,346.69467,60,100,0
346.6374,346.75717,59,100,0
346.6999,346.81967,60,100,0
346.7624,346.88217,59,100,0
346.8249,346.94467,60,100,0
346.8874,347.00717,59,100,0
346.9499,347.06967,60,100,0
347.0124,347.13217,59,100,0
347.0749,347.19467,60,100,0
347.1374,347.25717,59,100,0
347.1999,347.31967,60,100,0
347.2624,347.38217,43,100,0
347.3249,347.44467,45,100,0
347.3874,347.50717,43,100,0
347.4499,347.56967,45,100,0
347.5124,347.63217,43,100,0
347.5749,347.69467,45,100,0
347.6374,347.75717,43,100,0
347.6999,347.82166,45,100,0
347.7624,347.8863,43,100,0
347.82703,347.95096,45,100,0
347.8917,348.01562,43,100,0
347.95636,348.0835,45,100,0
348.021,348.15167,43,95,0
348.1119,348.24258,42,87,0
348.20282,348.33145,43,80,0
348.29373,348.33145,43,70,0
348.29373,348.54697,31,70,0
348.55234,348.67627,33,70,0
348.55234,348.67627,45,70,0
348.68167,348.80557,35,70,0
348.68167,348.80557,47,70,0
348.81097,349.0642,36,70,0
348.81097,349.0642,48,70,0
349.32822,349.58145,31,70,0
349.32822,349.58145,43,70,0
349.58682,349.71075,33,70,0
349.58682,349.71075,45,70,0
349.71616,349.84006,35,70,0
349.71616,349.84006,47,70,0
349.84546,350.0987,36,70,0
349.84546,350.0987,48,70,0
350.3627,351.4056,31,70,0
350.3627,351.4056,43,70,0
351.4113,351.95105,36,70,0
351.4113,351.95105,48,70,0
351.95673,352.2238,40,70,0
351.95673,352.2238,52,70,0
352.22946,352.36014,40,70,0
352.3658,352.49652,41,70,0
352.5022,352.76923,31,70,0
352.5022,352.76923,43,70,0
352.77493,352.9056,33,70,0
352.77493,352.9056,45,70,0
352.9113,353.04196,35,70,0
352.9113,353.04196,47,70,0
353.04764,353.3147,36,70,0
353.04764,353.3147,48,70,0
353.5931,353.8702,31,70,0
353.5931,353.8702,43,70,0
353.87613,354.01172,33,70,0
353.87613,354.01172,45,70,0
354.01764,354.15323,35,70,0
354.01764,354.15323,47,70,0
354.15915,354.43625,36,70,0
354.15915,354.43625,48,70,0
354.72516,355.2853,55,70,0
354.72516,355.2853,59,70,0
354.72516,355.2853,65,70,0
355.2912,355.5792,57,70,0
355.2912,355.5792,60,70,0
355.2912,355.5792,65,70,0
355.58533,355.89133,59,70,0
355.58533,355.89133,62,70,0
355.58533,355.89133,65,70,0
355.89783,356.51633,60,70,0
355.89783,356.51633,64,70,0
357.14783,357.80756,31,60,0
357.14783,357.80756,43,60,0
357.81448,358.16418,31,60,0
357.81448,358.16418,43,60,0
358.17163,358.57962,31,60,0
358.17163,358.57962,43,60,0
358.58832,359.57788,36,60,0
358.58832,359.57788,43,60,0
360.58832,360.70422,55,110,0
360.70926,360.8252,57,110,0
360.83023,360.94617,55,110,0
360.9512,361.06714,53,110,0
361.07217,361.1881,52,110,0
361.19315,361.30908,55,110,0
361.31412,361.43002,53,110,0
361.4351,361.551,50,110,0
361.55603,361.80084,48,110,0
362.05603,362.3498,36,110,0
362.05603,362.3498,40,110,0
362.05603,362.3498,43,110,0
362.05603,362.3498,48,110,0
362.65604,363.2498,36,125,0
362.65604,363.2498,40,125,0
362.65604,363.2498,43,125,0
362.65604,363.2498,48,125,0
