start_time,end_time,note_value,velocity,instrument_program_number
0.0,0.6527776,63,80,0
1.333333,1.9861106,68,80,0
0.6666665,2.6527772,60,80,0
0.6666665,2.6527772,63,80,0
1.9999995,2.6527772,68,80,0
2.666666,2.9861104,68,80,0
2.9999993,3.3194437,67,80,0
3.3333325,3.8194435,67,80,0
3.8333323,3.9861102,65,80,0
3.999999,4.48611,67,80,0
2.666666,4.6527767,63,80,0
4.499999,4.6527767,63,80,0
2.666666,4.6527767,61,80,0
4.6666656,5.9861097,68,80,0
5.333332,5.9861097,63,80,0
5.9999986,6.6527762,58,90,0
5.9999986,6.6527762,63,90,0
5.9999986,6.6527762,70,90,0
6.666665,7.152776,73,99,0
6.666665,7.3194427,68,99,0
6.666665,7.3194427,63,99,0
6.666665,7.3194427,60,99,0
7.166665,7.3194427,72,80,0
7.3333316,7.9861093,70,80,0
7.3333316,7.9861093,67,80,0
7.3333316,7.9861093,58,80,0
7.3333316,7.9861093,63,80,0
7.999998,8.055553,72,80,0
8.062498,8.152776,70,80,0
8.166665,8.319443,69,80,0
8.333331,8.486109,70,80,0
8.499998,8.652776,72,80,0
8.666664,9.986109,73,80,0
8.666664,9.986109,68,80,0
9.999997,10.652775,72,80,0
9.999997,10.652775,68,80,0
10.666664,11.319442,70,80,0
10.666664,11.319442,68,80,0
10.666664,11.319442,77,80,0
11.33333,11.986108,70,80,0
11.33333,11.986108,67,80,0
11.999997,12.691174,75,80,0
11.999997,12.691174,68,80,0
12.705879,13.358657,68,80,0
12.705879,13.358657,65,80,0
13.372545,14.025323,73,80,0
13.372545,14.025323,70,80,0
13.372545,14.025323,64,80,0
14.039212,14.738617,72,80,0
14.039212,14.738617,68,80,0
14.039212,14.738617,63,80,0
14.753497,15.452902,69,80,0
14.753497,15.452902,66,80,0
15.467783,15.810045,70,80,0
15.467783,15.810045,67,80,0
14.753497,16.167187,63,80,0
16.182068,16.702902,63,80,0
16.717783,16.881474,63,80,0
17.229687,17.549131,68,80,0
17.56302,17.882465,68,80,0
17.896355,18.215797,68,80,0
18.229687,18.549131,68,80,0
16.896355,18.882465,63,80,0
16.896355,18.882465,60,80,0
18.56302,18.882465,68,80,0
18.896353,19.215797,68,80,0
19.229687,19.549131,67,80,0
19.56302,20.049131,67,80,0
20.06302,20.215797,65,80,0
20.229687,20.715797,67,80,0
18.896353,20.882463,63,80,0
20.729687,20.882463,63,80,0
18.896353,20.882463,61,80,0
20.896353,22.215797,68,80,0
21.563019,22.215797,63,80,0
22.229687,22.882463,58,80,0
22.229687,22.882463,63,80,0
22.229687,22.882463,70,80,0
22.896353,23.382463,73,80,0
22.896353,23.54913,68,80,0
22.896353,23.54913,63,80,0
22.896353,23.54913,60,80,0
23.396353,23.54913,72,80,0
23.563019,24.215797,70,80,0
23.563019,24.215797,67,80,0
23.563019,24.215797,58,80,0
23.563019,24.215797,63,80,0
24.229685,24.28524,72,80,0
24.292185,24.382463,70,80,0
24.396353,24.54913,69,80,0
24.563019,24.715797,70,80,0
24.729685,24.882463,72,80,0
24.896353,26.215796,73,80,0
24.896353,26.215796,68,80,0
26.229685,26.882463,72,80,0
26.229685,26.882463,68,80,0
26.89635,27.54913,70,80,0
26.89635,27.54913,68,80,0
26.89635,27.54913,77,80,0
27.563019,28.242737,70,80,0
27.563019,28.242737,67,80,0
28.257797,28.965628,75,80,0
28.257797,28.965628,68,80,0
28.980688,29.036243,70,80,0
29.043188,29.140411,68,80,0
29.147356,29.300133,67,80,0
29.314022,29.466799,68,80,0
29.480688,29.633467,70,80,0
29.647354,30.300133,72,80,0
29.647354,30.300133,68,80,0
29.647354,30.300133,63,80,0
30.314022,30.966799,70,80,0
30.314022,30.966799,67,80,0
30.314022,30.966799,61,80,0
30.980688,31.633465,68,80,0
30.980688,31.633465,60,80,0
32.980686,33.633465,72,80,0
32.980686,33.633465,69,80,0
33.647354,34.300133,70,80,0
33.647354,34.300133,67,80,0
34.314022,34.966797,72,80,0
34.314022,34.966797,69,80,0
34.980686,35.633465,73,80,0
34.980686,35.633465,70,80,0
35.647354,36.300133,77,80,0
35.647354,36.300133,73,80,0
36.980686,37.633465,70,80,0
36.980686,37.633465,67,80,0
37.647354,38.30013,68,80,0
37.647354,38.30013,65,80,0
38.31402,38.966797,70,80,0
38.31402,38.966797,67,80,0
38.980686,39.633465,72,80,0
38.980686,39.633465,68,80,0
39.647354,40.30013,75,80,0
39.647354,40.30013,72,80,0
40.31402,41.633465,63,80,0
40.31402,41.633465,75,80,0
41.64735,42.30013,74,85,0
41.64735,42.30013,62,85,0
42.31402,42.966797,64,88,0
42.31402,42.966797,76,88,0
42.980686,43.63346,77,91,0
42.980686,43.63346,65,91,0
43.64735,44.30013,79,94,0
43.64735,44.30013,67,94,0
44.31402,44.80013,80,97,0
44.31402,44.966797,68,97,0
44.81402,44.966797,77,99,0
44.980686,46.30013,75,100,0
44.980686,46.30013,67,100,0
45.64735,46.30013,70,100,0
46.31402,46.466797,74,100,0
46.39735,46.55013,75,100,0
46.480682,46.63346,74,100,0
46.56402,46.716797,75,100,0
46.64735,46.80013,74,100,0
46.730682,46.88346,75,100,0
46.31402,46.966797,68,100,0
46.31402,46.966797,65,100,0
46.81402,46.966797,72,100,0
46.89735,47.05013,74,100,0
46.980682,47.63346,67,100,0
46.980682,47.63346,63,100,0
46.980682,48.30013,75,100,0
47.64735,48.30013,72,100,0
48.31402,48.80013,79,100,0
48.31402,48.966793,72,100,0
48.31402,48.966793,65,100,0
48.81402,48.966793,77,100,0
48.980682,50.30013,75,100,0
48.980682,50.30013,67,100,0
49.64735,50.30013,70,100,0
50.31402,50.466793,74,100,0
50.39735,50.55013,75,100,0
50.480682,50.63346,74,100,0
50.56402,50.716793,75,100,0
50.64735,50.80013,74,100,0
50.730682,50.88346,75,100,0
50.31402,50.966793,68,100,0
50.31402,50.966793,65,100,0
50.81402,50.966793,72,100,0
50.89735,51.05013,74,100,0
50.980682,51.63346,75,100,0
50.980682,51.63346,67,100,0
50.980682,51.63346,63,100,0
51.64735,52.32707,75,100,0
51.64735,52.32707,68,100,0
51.64735,52.32707,62,100,0
52.34213,53.04996,75,100,0
52.34213,53.04996,70,100,0
52.34213,53.04996,61,100,0
53.426464,53.74591,68,80,0
53.7598,54.079243,68,80,0
54.093132,54.412575,68,80,0
54.426464,54.74591,68,80,0
53.06502,55.079243,63,80,0
53.06502,55.079243,60,80,0
54.7598,55.079243,68,80,0
55.093132,55.412575,68,80,0
55.426464,55.74591,67,80,0
55.7598,56.24591,67,80,0
56.2598,56.412575,65,80,0
56.426464,56.912575,67,80,0
55.093132,57.079243,63,80,0
56.926464,57.079243,63,80,0
55.093132,57.079243,61,80,0
57.093132,58.412575,68,80,0
57.759796,58.412575,63,84,0
58.426464,59.079243,58,89,0
58.426464,59.079243,63,89,0
58.426464,59.079243,70,89,0
59.093132,59.579243,73,94,0
59.093132,59.745907,68,94,0
59.093132,59.745907,63,94,0
59.093132,59.745907,60,94,0
59.593132,59.745907,72,98,0
59.759796,60.412575,70,99,0
59.759796,60.412575,67,99,0
59.759796,60.412575,58,99,0
59.759796,60.412575,63,99,0
60.426464,60.48202,72,80,0
60.488964,60.579243,70,80,0
60.593132,60.745907,69,80,0
60.759796,60.912575,70,80,0
60.926464,61.079243,72,80,0
61.093132,62.412575,73,80,0
61.093132,62.412575,68,80,0
62.426464,63.079243,72,80,0
62.426464,63.079243,68,80,0
63.09313,63.745907,70,80,0
63.09313,63.745907,68,80,0
63.09313,63.745907,77,80,0
63.759796,64.412575,70,84,0
63.759796,64.412575,67,84,0
64.42646,65.07924,75,89,0
64.42646,65.07924,68,89,0
65.09313,65.14868,70,80,0
65.15563,65.25285,68,80,0
65.259796,65.412575,67,80,0
65.42646,65.57924,68,80,0
65.59313,65.74591,70,80,0
65.759796,66.412575,72,80,0
65.759796,66.412575,68,80,0
65.759796,66.412575,63,80,0
66.42646,67.07924,70,80,0
66.42646,67.07924,67,80,0
66.42646,67.07924,61,80,0
67.09313,67.7459,68,80,0
67.09313,67.7459,60,80,0
68.42646,69.2459,51,80,0
69.259796,69.412575,48,80,0
69.42646,69.57924,51,80,0
69.59313,69.7459,56,80,0
69.759796,70.412575,60,80,0
70.42646,71.07924,56,80,0
71.093124,71.2459,55,80,0
71.259796,71.412575,61,80,0
71.42646,71.57924,63,80,0
71.593124,71.7459,67,80,0
71.759796,72.412575,73,80,0
72.42646,73.07924,67,80,0
73.093124,73.2459,68,80,0
73.259796,73.412575,51,80,0
73.42646,73.57924,56,80,0
73.593124,73.7459,60,80,0
73.759796,74.412575,63,80,0
74.42646,75.07924,63,80,0
74.42646,75.07924,58,80,0
75.093124,75.412575,61,90,0
75.093124,75.7459,63,90,0
75.093124,75.7459,56,90,0
75.42646,75.7459,60,80,0
75.759796,76.412575,63,80,0
75.759796,76.412575,58,80,0
75.759796,76.412575,55,80,0
76.42646,76.48202,60,80,0
76.48896,76.58618,58,80,0
76.593124,76.7459,57,80,0
76.759796,76.912575,58,80,0
76.92646,77.07924,60,80,0
77.093124,77.2459,61,80,0
77.259796,77.41257,61,80,0
77.42646,77.57924,65,80,0
77.593124,77.7459,68,80,0
77.759796,78.41257,73,80,0
78.42646,78.7459,72,80,0
79.259796,79.41257,65,80,0
79.42646,79.57924,68,80,0
79.593124,79.7459,70,80,0
79.759796,80.41257,77,100,0
80.42646,80.7459,75,80,0
81.25979,81.41257,49,80,0
81.42646,81.57924,53,80,0
81.593124,81.7459,56,80,0
81.75979,82.41257,61,80,0
81.75979,82.41257,58,80,0
81.75979,82.41257,52,80,0
82.42646,83.07924,51,80,0
82.42646,83.07924,56,80,0
82.42646,83.07924,60,80,0
83.093124,83.7459,57,80,0
83.093124,83.7459,54,80,0
83.75979,84.07924,58,80,0
83.75979,84.07924,55,80,0
84.42646,85.2459,51,80,0
85.25979,85.41257,48,80,0
85.42646,85.57924,51,80,0
85.593124,85.7459,56,80,0
85.75979,86.41257,60,80,0
86.42646,87.07924,56,80,0
87.093124,87.2459,55,80,0
87.25979,87.41257,61,80,0
87.42646,87.57923,63,80,0
87.593124,87.7459,67,80,0
87.75979,88.41257,73,80,0
88.42646,89.07923,67,80,0
89.093124,89.2459,68,80,0
89.25979,89.41257,51,80,0
89.42646,89.57923,56,80,0
89.593124,89.7459,60,80,0
89.75979,90.07923,63,81,0
90.093124,90.41257,63,83,0
90.42646,90.7459,63,85,0
90.42646,91.07923,58,85,0
90.75979,91.07923,63,87,0
91.093124,91.41257,61,89,0
91.093124,91.7459,63,89,0
91.093124,91.7459,56,89,0
91.42645,91.7459,60,80,0
91.75979,92.41257,63,80,0
91.75979,92.41257,58,80,0
91.75979,92.41257,55,80,0
92.42645,92.48201,60,80,0
92.48895,92.58618,58,80,0
92.593124,92.7459,57,80,0
92.75979,92.91257,58,80,0
92.92645,93.07923,60,80,0
93.093124,93.2459,61,80,0
93.25979,93.41257,61,80,0
93.42645,93.57923,65,80,0
93.593124,93.7459,68,80,0
93.75979,94.41257,73,80,0
94.42645,94.7459,72,80,0
95.25979,95.41257,77,80,0
95.42645,95.57923,80,80,0
95.593124,95.7459,82,80,0
95.75979,96.41257,89,100,0
96.42645,96.7459,87,80,0
97.25979,97.41257,60,80,0
97.42645,98.41257,63,80,0
97.593124,98.41257,68,80,0
97.75979,98.745895,72,80,0
98.42645,99.07923,67,80,0
98.42645,99.07923,61,80,0
98.75979,99.07923,70,80,0
99.093124,99.745895,68,80,0
99.093124,99.745895,60,80,0
101.09312,101.745895,72,80,0
101.09312,101.745895,69,80,0
101.75979,102.41257,70,80,0
101.75979,102.41257,67,80,0
102.42645,103.07923,72,80,0
102.42645,103.07923,69,80,0
103.09312,103.745895,73,80,0
103.09312,103.745895,70,80,0
103.75979,104.41257,77,80,0
103.75979,104.41257,73,80,0
104.75979,104.91257,73,80,0
104.75979,104.91257,70,80,0
104.92645,105.07923,72,80,0
104.92645,105.07923,68,80,0
105.09312,105.745895,70,80,0
105.09312,105.745895,67,80,0
105.75979,106.41257,68,80,0
105.75979,106.41257,65,80,0
106.42645,107.07923,70,80,0
106.42645,107.07923,67,80,0
107.09312,107.745895,72,80,0
107.09312,107.745895,68,80,0
107.75979,108.41256,75,80,0
107.75979,108.41256,72,80,0
108.75979,109.245895,63,80,0
108.75979,109.245895,75,80,0
109.25979,109.41256,63,80,0
109.42645,109.57923,75,80,0
109.59312,109.745895,63,81,0
109.92645,110.07923,62,82,0
110.09312,110.245895,74,82,0
110.25979,110.41256,62,83,0
110.59312,110.745895,64,83,0
110.75979,110.91256,76,84,0
110.92645,111.07923,64,84,0
111.25978,111.41256,65,85,0
111.42645,111.57923,77,86,0
111.59312,111.745895,65,86,0
111.92645,112.07923,67,87,0
112.09312,112.245895,79,87,0
112.25978,112.41256,67,88,0
112.59312,112.745895,68,89,0
112.75978,112.91256,80,89,0
112.92645,113.07923,68,89,0
113.09312,114.41256,75,80,0
113.09312,114.41256,70,80,0
113.09312,114.41256,67,80,0
114.42645,115.07923,74,90,0
114.42645,115.07923,68,90,0
114.42645,115.07923,65,90,0
115.09312,116.41256,75,80,0
115.09312,116.41256,67,80,0
115.09312,116.41256,63,80,0
116.42645,117.07923,77,90,0
116.42645,117.07923,72,90,0
116.42645,117.07923,65,90,0
117.09312,118.41256,75,80,0
117.09312,118.41256,70,80,0
117.09312,118.41256,67,80,0
118.42645,118.57922,74,80,0
118.50978,118.66256,75,80,0
118.59312,118.745895,74,80,0
118.67645,118.82922,75,80,0
118.75978,118.91256,74,80,0
118.84312,118.995895,75,80,0
118.42645,119.07922,68,80,0
118.42645,119.07922,65,80,0
118.92645,119.07922,72,80,0
119.00978,119.07922,74,80,0
119.09312,119.245895,75,80,0
119.09312,119.245895,67,80,0
119.09312,119.245895,63,80,0
119.25978,119.41256,63,80,0
119.42645,119.57922,67,80,0
119.59312,119.745895,75,80,0
119.934204,120.094086,62,80,0
120.10862,120.2685,68,80,0
120.283035,120.442924,75,80,0
120.638176,120.80384,61,80,0
120.8189,120.990776,70,80,0
121.0064,121.178276,75,80,0
121.1939,121.365776,60,80,0
121.3814,121.553276,48,80,0
121.5689,121.72168,51,80,0
121.735565,121.88834,56,80,0
121.90224,122.555016,60,80,0
122.5689,123.22168,56,80,0
123.235565,123.38834,55,80,0
123.40224,123.555016,61,80,0
123.5689,123.72168,63,80,0
123.735565,123.88834,67,80,0
123.90224,124.555016,73,80,0
124.5689,125.22168,67,80,0
125.235565,125.38834,68,80,0
125.40224,125.555016,51,80,0
125.5689,125.72168,56,80,0
125.735565,125.88834,60,80,0
125.90224,126.22168,63,80,0
126.235565,126.555016,63,80,0
126.5689,126.88834,63,80,0
126.5689,127.22168,58,80,0
126.90224,127.22168,63,80,0
127.235565,127.555016,61,80,0
127.235565,127.88834,63,80,0
127.235565,127.88834,56,80,0
127.5689,127.88834,60,80,0
127.90224,128.55501,63,80,0
127.90224,128.55501,58,80,0
127.90224,128.55501,55,80,0
128.5689,128.62445,60,80,0
128.6314,128.72862,58,80,0
128.73557,128.88835,57,80,0
128.90224,129.05501,58,80,0
129.0689,129.22168,60,80,0
129.23557,129.38835,61,80,0
129.40224,129.55501,61,80,0
129.5689,129.72168,65,80,0
129.73557,129.88835,68,80,0
129.90224,130.55501,73,80,0
130.5689,130.88835,72,80,0
131.40224,131.55501,77,80,0
131.5689,131.72168,80,80,0
131.73557,131.88835,82,80,0
131.90224,132.55501,89,101,0
132.5689,132.88835,87,80,0
133.40224,133.55501,60,80,0
133.5689,134.55501,63,80,0
133.73557,134.55501,68,80,0
133.90224,134.88834,72,93,0
134.5689,135.22168,67,80,0
134.5689,135.22168,61,80,0
134.90224,135.22168,70,80,0
135.23557,135.88834,68,80,0
135.23557,135.88834,60,80,0
136.7189,137.0064,63,80,0
136.7189,137.0064,60,80,0
137.0189,137.3064,60,80,0
137.0189,137.3064,63,80,0
137.3189,137.6064,63,80,0
137.3189,137.6064,60,80,0
137.6189,137.9064,63,80,0
137.6189,137.9064,60,80,0
137.9189,138.2064,63,80,0
137.9189,138.2064,60,80,0
138.2189,138.5064,63,80,0
138.2189,138.5064,60,80,0
138.5189,138.8064,63,80,0
138.5189,138.8064,60,80,0
138.8189,139.1064,60,80,0
138.8189,139.1064,63,80,0
139.1189,139.4064,61,80,0
139.1189,139.4064,58,80,0
139.1189,139.4064,63,80,0
139.4189,139.7064,63,80,0
139.4189,139.7064,61,80,0
139.4189,139.7064,58,80,0
139.7189,140.0064,61,80,0
139.7189,140.0064,58,80,0
139.7189,140.0064,63,80,0
140.0189,140.3064,63,80,0
140.0189,140.3064,61,80,0
140.0189,140.3064,58,80,0
140.3189,140.6064,61,80,0
140.3189,140.6064,58,80,0
140.3189,140.6064,63,80,0
140.6189,140.9064,58,80,0
140.6189,140.9064,61,80,0
140.6189,140.9064,63,80,0
140.9189,141.2064,63,80,0
140.9189,141.2064,60,80,0
141.2189,141.5064,63,80,0
141.2189,141.5064,60,80,0
141.5189,141.8064,68,80,0
141.5189,141.8064,63,80,0
141.5189,141.8064,60,80,0
141.8189,142.1064,68,80,0
141.8189,142.1064,63,80,0
141.8189,142.1064,60,80,0
142.1189,142.4064,67,80,0
142.1189,142.4064,63,80,0
142.1189,142.4064,61,80,0
142.4189,142.7064,61,80,0
142.4189,142.7064,63,80,0
142.4189,142.7064,67,80,0
142.7189,143.0064,68,80,0
142.7189,143.0064,63,80,0
143.0189,143.3064,68,80,0
143.0189,143.3064,63,80,0
143.3189,143.6064,67,80,0
143.3189,143.6064,63,80,0
143.6189,143.9064,67,80,0
143.6189,143.9064,63,80,0
143.9189,144.2064,68,80,0
143.9189,144.2064,66,80,0
143.9189,144.2064,63,80,0
144.2189,144.5064,63,80,0
144.2189,144.5064,66,80,0
144.2189,144.5064,68,80,0
144.5189,144.8064,68,80,0
144.5189,144.8064,65,80,0
144.8189,145.1064,68,80,0
144.8189,145.1064,65,80,0
145.1189,145.4064,68,80,0
145.1189,145.4064,80,80,0
145.4189,145.7064,68,80,0
145.4189,145.7064,80,80,0
145.7189,146.0064,80,80,0
145.7189,146.0064,68,80,0
146.0189,146.3064,68,80,0
146.0189,146.3064,80,80,0
146.3189,146.6064,80,80,0
146.3189,146.6064,68,80,0
146.6189,146.9064,80,80,0
146.6189,146.9064,68,80,0
146.9189,147.2064,79,80,0
146.9189,147.2064,67,80,0
147.2189,147.5064,79,80,0
147.2189,147.5064,67,80,0
147.5189,147.8064,80,80,0
147.5189,147.8064,68,80,0
147.8189,148.1064,68,80,0
147.8189,148.1064,80,80,0
148.1189,148.4064,85,80,0
148.1189,148.4064,73,80,0
148.4189,148.7064,77,80,0
148.4189,148.7064,65,80,0
148.7189,149.0064,76,80,0
148.7189,149.0064,64,80,0
149.0189,149.3064,75,80,0
149.0189,149.3064,63,80,0
149.3189,149.6064,75,80,0
149.3189,149.6064,63,80,0
149.6189,149.9064,63,80,0
149.6189,149.9064,75,80,0
149.9189,150.21364,75,80,0
149.9189,150.21364,66,80,0
149.9189,150.21364,63,80,0
150.22679,150.52942,75,80,0
150.22679,150.52942,66,80,0
150.22679,150.52942,63,80,0
150.54259,150.85326,75,80,0
150.54259,150.85326,67,80,0
150.54259,150.85326,63,80,0
150.86714,151.18658,75,80,0
150.86714,151.18658,67,80,0
150.86714,151.18658,63,80,0
151.20047,151.51993,75,80,0
151.20047,151.51993,63,80,0
151.53381,151.83798,63,80,0
151.53381,151.83798,75,80,0
151.85048,152.13797,75,80,0
151.85048,152.13797,72,80,0
151.85048,152.13797,63,80,0
152.15048,152.43797,75,80,0
152.15048,152.43797,72,80,0
152.15048,152.43797,63,80,0
152.45047,152.73798,75,80,0
152.45047,152.73798,72,80,0
152.45047,152.73798,63,80,0
152.75047,153.03798,75,80,0
152.75047,153.03798,72,80,0
152.75047,153.03798,63,80,0
153.05048,153.33798,75,80,0
153.05048,153.33798,72,80,0
153.05048,153.33798,63,80,0
153.35048,153.63797,63,80,0
153.35048,153.63797,72,80,0
153.35048,153.63797,75,80,0
153.65048,153.93797,75,80,0
153.65048,153.93797,73,80,0
153.65048,153.93797,63,80,0
153.95047,154.23798,75,80,0
153.95047,154.23798,73,80,0
153.95047,154.23798,63,80,0
154.25047,154.53798,75,80,0
154.25047,154.53798,73,80,0
154.25047,154.53798,63,80,0
154.55048,154.83798,75,80,0
154.55048,154.83798,73,80,0
154.55048,154.83798,63,80,0
154.85048,155.13797,75,80,0
154.85048,155.13797,73,80,0
154.85048,155.13797,63,80,0
155.15048,155.43797,63,80,0
155.15048,155.43797,67,80,0
155.15048,155.43797,75,80,0
155.45047,155.73798,75,80,0
155.45047,155.73798,68,80,0
155.45047,155.73798,63,80,0
155.75047,156.03798,75,80,0
155.75047,156.03798,72,80,0
155.75047,156.03798,63,80,0
156.05048,156.33798,75,80,0
156.05048,156.33798,68,80,0
156.05048,156.33798,63,80,0
156.35048,156.63797,75,80,0
156.35048,156.63797,72,80,0
156.35048,156.63797,63,80,0
156.65048,156.93797,75,80,0
156.65048,156.93797,70,80,0
156.65048,156.93797,63,80,0
156.95047,157.23798,63,80,0
156.95047,157.23798,73,80,0
156.95047,157.23798,75,80,0
157.25047,157.53798,75,80,0
157.25047,157.53798,72,80,0
157.25047,157.53798,68,80,0
157.25047,157.53798,63,80,0
157.55048,157.83798,75,80,0
157.55048,157.83798,72,80,0
157.55048,157.83798,68,80,0
157.55048,157.83798,63,80,0
157.85048,158.13797,75,80,0
157.85048,158.13797,70,80,0
157.85048,158.13797,67,80,0
157.85048,158.13797,63,80,0
158.15048,158.43797,75,80,0
158.15048,158.43797,70,80,0
158.15048,158.43797,67,80,0
158.15048,158.43797,63,80,0
158.45047,158.73798,75,80,0
158.45047,158.73798,68,80,0
158.45047,158.73798,66,80,0
158.45047,158.73798,63,80,0
158.75047,159.03798,63,80,0
158.75047,159.03798,66,80,0
158.75047,159.03798,68,80,0
158.75047,159.03798,75,80,0
159.05048,159.33798,77,80,0
159.05048,159.33798,68,80,0
159.05048,159.33798,65,80,0
159.35048,159.63797,77,80,0
159.35048,159.63797,68,80,0
159.35048,159.63797,65,80,0
159.65048,159.93797,80,80,0
159.65048,159.93797,68,80,0
159.95047,160.23798,80,80,0
159.95047,160.23798,68,80,0
160.25047,160.53798,80,80,0
160.25047,160.53798,68,80,0
160.55048,160.83798,68,80,0
160.55048,160.83798,80,80,0
160.85048,161.13797,80,80,0
160.85048,161.13797,68,80,0
161.15048,161.43797,80,80,0
161.15048,161.43797,68,80,0
161.45047,161.73798,79,80,0
161.45047,161.73798,67,80,0
161.75047,162.03798,79,80,0
161.75047,162.03798,67,80,0
162.05048,162.33798,80,80,0
162.05048,162.33798,68,80,0
162.35048,162.63797,68,80,0
162.35048,162.63797,80,80,0
162.65048,162.93797,75,80,0
162.65048,162.93797,72,80,0
162.65048,162.93797,63,80,0
162.95047,163.23798,75,80,0
162.95047,163.23798,72,80,0
162.95047,163.23798,63,80,0
163.25047,163.53798,75,80,0
163.25047,163.53798,72,80,0
163.25047,163.53798,68,80,0
163.25047,163.53798,63,80,0
163.55048,163.83798,75,80,0
163.55048,163.83798,72,80,0
163.55048,163.83798,68,80,0
163.55048,163.83798,63,80,0
163.85048,164.13797,67,80,0
163.85048,164.13797,63,80,0
163.85048,164.13797,61,80,0
164.15048,164.43797,61,80,0
164.15048,164.43797,63,80,0
164.15048,164.43797,67,80,0
164.45047,164.73798,68,80,0
164.45047,164.73798,63,80,0
164.45047,164.73798,60,80,0
164.75047,165.03798,68,80,0
164.75047,165.03798,63,80,0
164.75047,165.03798,60,80,0
165.65048,165.93797,77,80,0
165.65048,165.93797,65,80,0
165.95047,166.23798,65,80,0
165.95047,166.23798,77,80,0
166.25047,166.53798,77,80,0
166.25047,166.53798,65,80,0
166.55048,166.83798,77,80,0
166.55048,166.83798,89,80,0
166.85048,167.13797,76,80,0
166.85048,167.13797,88,80,0
167.15048,167.43797,88,80,0
167.15048,167.43797,76,80,0
167.45047,167.73798,75,80,0
167.45047,167.73798,87,80,0
167.75047,168.03798,75,80,0
167.75047,168.03798,87,80,0
168.05048,168.33798,85,80,0
168.05048,168.33798,73,80,0
168.35048,168.63797,85,80,0
168.35048,168.63797,73,80,0
168.65048,168.93797,82,80,0
168.65048,168.93797,70,80,0
168.95047,169.23798,82,80,0
168.95047,169.23798,70,80,0
169.25047,169.53798,77,80,0
169.25047,169.53798,73,80,0
169.25047,169.53798,65,80,0
169.55048,169.83798,64,80,0
169.55048,169.83798,73,80,0
169.55048,169.83798,76,80,0
169.85048,170.13797,73,80,0
169.85048,170.13797,63,80,0
169.85048,170.13797,75,80,0
170.15048,170.43797,75,80,0
170.15048,170.43797,87,80,0
170.45047,170.73798,86,80,0
170.45047,170.73798,74,80,0
170.75047,171.03798,86,80,0
170.75047,171.03798,74,80,0
171.05048,171.33798,73,80,0
171.05048,171.33798,85,80,0
171.35048,171.63797,73,80,0
171.35048,171.63797,85,80,0
171.65048,171.93797,72,80,0
171.65048,171.93797,84,80,0
171.95047,172.23798,72,80,0
171.95047,172.23798,84,80,0
172.25047,172.53798,68,80,0
172.25047,172.53798,80,80,0
172.55048,172.83798,68,80,0
172.55048,172.83798,80,80,0
172.85048,173.13797,68,80,0
172.85048,173.13797,80,80,0
173.15048,173.43797,68,80,0
173.15048,173.43797,80,80,0
173.45047,173.73798,68,80,0
173.45047,173.73798,80,80,0
173.75047,174.03798,68,80,0
173.75047,174.03798,80,80,0
174.05048,174.33798,80,80,0
174.05048,174.33798,68,80,0
174.35048,174.63797,80,80,0
174.35048,174.63797,68,80,0
174.65048,174.93797,79,80,0
174.65048,174.93797,67,80,0
174.95047,175.23798,67,80,0
174.95047,175.23798,79,80,0
175.25047,175.53798,72,80,0
175.25047,175.53798,84,80,0
175.55048,175.83798,72,80,0
175.55048,175.83798,84,80,0
175.85048,176.13797,76,80,0
175.85048,176.13797,72,80,0
175.85048,176.13797,70,80,0
176.15048,176.43797,76,80,0
176.15048,176.43797,72,80,0
176.15048,176.43797,70,80,0
176.45047,176.73798,77,80,0
176.45047,176.73798,72,80,0
176.45047,176.73798,68,80,0
176.75047,177.03798,68,80,0
176.75047,177.03798,72,80,0
176.75047,177.03798,77,80,0
177.05048,177.33798,79,80,0
177.05048,177.33798,67,80,0
177.35048,177.63797,79,80,0
177.35048,177.63797,67,80,0
177.65048,177.93797,79,80,0
177.65048,177.93797,67,80,0
177.95047,178.23798,79,80,0
177.95047,178.23798,67,80,0
178.25047,178.53798,80,80,0
178.25047,178.53798,77,80,0
178.25047,178.53798,68,80,0
178.55048,178.83798,68,80,0
178.55048,178.83798,77,80,0
178.55048,178.83798,80,80,0
178.85048,179.13797,79,80,0
178.85048,179.13797,67,80,0
178.85048,179.13797,77,80,0
179.15048,179.43797,79,80,0
179.15048,179.43797,75,80,0
179.15048,179.43797,67,80,0
179.45047,179.73798,79,80,0
179.45047,179.73798,75,80,0
179.45047,179.73798,67,80,0
179.75047,180.03798,79,80,0
179.75047,180.03798,75,80,0
179.75047,180.03798,67,80,0
180.05048,180.33798,84,80,0
180.05048,180.33798,75,80,0
180.05048,180.33798,72,80,0
180.35048,180.63797,72,80,0
180.35048,180.63797,75,80,0
180.35048,180.63797,84,80,0
180.65048,180.93797,82,80,0
180.65048,180.93797,79,80,0
180.65048,180.93797,75,80,0
180.65048,180.93797,70,80,0
180.95047,181.23798,82,80,0
180.95047,181.23798,79,80,0
180.95047,181.23798,75,80,0
180.95047,181.23798,70,80,0
181.25047,181.53798,75,80,0
181.25047,181.53798,70,80,0
181.25047,181.53798,67,80,0
181.55048,181.83798,75,80,0
181.55048,181.83798,70,80,0
181.55048,181.83798,67,80,0
181.85048,182.13797,77,80,0
181.85048,182.13797,70,80,0
181.85048,182.13797,68,80,0
182.15048,182.43797,68,80,0
182.15048,182.43797,70,80,0
182.15048,182.43797,77,80,0
182.45047,182.74521,75,80,0
182.45047,182.74521,70,80,0
182.45047,182.74521,67,80,0
182.75838,183.061,75,80,0
182.75838,183.061,70,80,0
182.75838,183.061,67,80,0
183.07416,183.38483,74,80,0
183.07416,183.38483,68,80,0
183.07416,183.38483,63,80,0
183.39873,183.71817,74,80,0
183.39873,183.71817,68,80,0
183.39873,183.71817,63,80,0
183.73206,184.0515,73,80,0
183.73206,184.0515,70,80,0
183.73206,184.0515,63,80,0
184.06538,184.36955,63,80,0
184.06538,184.36955,70,80,0
184.06538,184.36955,73,80,0
184.38205,184.66956,72,80,0
184.38205,184.66956,68,80,0
184.38205,184.66956,63,80,0
184.68205,184.96956,75,80,0
184.68205,184.96956,72,80,0
184.68205,184.96956,68,80,0
184.68205,184.96956,63,80,0
184.98206,185.26956,75,80,0
184.98206,185.26956,72,80,0
184.98206,185.26956,68,80,0
184.98206,185.26956,63,80,0
185.28206,185.56955,75,80,0
185.28206,185.56955,72,80,0
185.28206,185.56955,68,80,0
185.28206,185.56955,63,80,0
185.58206,185.86955,75,80,0
185.58206,185.86955,72,80,0
185.58206,185.86955,68,80,0
185.58206,185.86955,63,80,0
185.88205,186.16956,63,80,0
185.88205,186.16956,68,80,0
185.88205,186.16956,72,80,0
185.88205,186.16956,75,80,0
186.18205,186.46956,75,80,0
186.18205,186.46956,73,80,0
186.18205,186.46956,70,80,0
186.18205,186.46956,63,80,0
186.48206,186.76956,75,80,0
186.48206,186.76956,73,80,0
186.48206,186.76956,70,80,0
186.48206,186.76956,63,80,0
186.78206,187.06955,75,80,0
186.78206,187.06955,73,80,0
186.78206,187.06955,70,80,0
186.78206,187.06955,63,80,0
187.08206,187.36955,75,80,0
187.08206,187.36955,73,80,0
187.08206,187.36955,70,80,0
187.08206,187.36955,63,80,0
187.38205,187.66956,75,80,0
187.38205,187.66956,73,80,0
187.38205,187.66956,70,80,0
187.38205,187.66956,63,80,0
187.68205,187.96956,63,80,0
187.68205,187.96956,70,80,0
187.68205,187.96956,73,80,0
187.68205,187.96956,75,80,0
187.98206,188.26956,75,80,0
187.98206,188.26956,68,80,0
187.98206,188.26956,63,80,0
187.98206,188.26956,72,80,0
188.28206,188.56955,75,80,0
188.28206,188.56955,72,80,0
188.28206,188.56955,63,80,0
188.28206,188.56955,68,80,0
188.58206,188.86955,75,80,0
188.58206,188.86955,68,80,0
188.58206,188.86955,63,80,0
188.58206,188.86955,72,80,0
188.88205,189.16956,75,80,0
188.88205,189.16956,72,80,0
188.88205,189.16956,63,80,0
188.88205,189.16956,68,80,0
189.18205,189.46956,75,80,0
189.18205,189.46956,63,80,0
189.18205,189.46956,67,80,0
189.18205,189.46956,73,80,0
189.48206,189.76956,63,80,0
189.48206,189.76956,67,80,0
189.48206,189.76956,75,80,0
189.78206,190.06955,75,80,0
189.78206,190.06955,68,80,0
189.78206,190.06955,63,80,0
190.08206,190.36955,75,80,0
190.08206,190.36955,68,80,0
190.08206,190.36955,63,80,0
190.38205,190.66956,75,80,0
190.38205,190.66956,67,80,0
190.38205,190.66956,63,80,0
190.68205,190.96956,75,80,0
190.68205,190.96956,67,80,0
190.68205,190.96956,63,80,0
190.98206,191.26956,75,80,0
190.98206,191.26956,68,80,0
190.98206,191.26956,66,80,0
190.98206,191.26956,63,80,0
191.28206,191.56955,63,80,0
191.28206,191.56955,66,80,0
191.28206,191.56955,68,80,0
191.28206,191.56955,75,80,0
191.58206,191.86955,77,80,0
191.58206,191.86955,68,80,0
191.58206,191.86955,65,80,0
191.88205,192.16956,77,80,0
191.88205,192.16956,68,80,0
191.88205,192.16956,65,80,0
192.18205,192.46956,80,80,0
192.18205,192.46956,68,80,0
192.48206,192.76956,80,80,0
192.48206,192.76956,68,80,0
192.78206,193.06955,80,80,0
192.78206,193.06955,68,80,0
193.08206,193.36955,68,80,0
193.08206,193.36955,80,80,0
193.38205,193.66956,80,80,0
193.38205,193.66956,68,80,0
193.68205,193.96956,80,80,0
193.68205,193.96956,68,80,0
193.98206,194.26956,79,80,0
193.98206,194.26956,67,80,0
194.28206,194.56955,79,80,0
194.28206,194.56955,67,80,0
194.58206,194.86955,80,80,0
194.58206,194.86955,68,80,0
194.88205,195.16956,68,80,0
194.88205,195.16956,80,80,0
195.18205,195.46956,75,80,0
195.18205,195.46956,72,80,0
195.18205,195.46956,63,80,0
195.48206,195.7768,75,80,0
195.48206,195.7768,72,80,0
195.48206,195.7768,63,80,0
195.78995,196.09258,75,80,0
195.78995,196.09258,72,80,0
195.78995,196.09258,68,80,0
195.78995,196.09258,63,80,0
196.10574,196.41641,75,80,0
196.10574,196.41641,72,80,0
196.10574,196.41641,68,80,0
196.10574,196.41641,63,80,0
196.4303,196.74974,67,80,0
196.4303,196.74974,63,80,0
196.4303,196.74974,61,80,0
196.76363,197.08308,61,80,0
196.76363,197.08308,63,80,0
196.76363,197.08308,67,80,0
197.09697,197.41641,68,80,0
197.09697,197.41641,63,80,0
197.09697,197.41641,60,80,0
197.4303,197.74974,68,80,0
197.4303,197.74974,63,80,0
197.4303,197.74974,60,80,0
198.26363,198.58308,51,80,0
198.59697,199.2178,51,80,0
199.2303,199.8178,56,80,0
199.8303,200.4178,56,80,0
200.4303,201.0178,56,80,0
201.0303,201.6178,55,80,0
201.6303,202.2178,55,80,0
202.2303,202.8178,55,80,0
202.8303,203.4178,56,80,0
203.4303,204.0178,56,80,0
204.0303,204.6178,56,80,0
204.6303,205.2178,57,80,0
205.2303,205.8178,57,80,0
205.8303,206.4178,57,80,0
206.4303,207.0178,60,81,0
207.0303,207.6178,60,83,0
207.6303,208.2178,60,85,0
208.2303,208.8178,61,87,0
208.8303,209.4178,61,89,0
209.4303,210.0178,61,92,0
210.0303,210.63293,62,94,0
210.64609,211.26451,62,96,0
211.27766,212.24623,62,98,0
212.26012,212.9129,63,80,0
212.92679,213.24623,63,80,0
212.92679,213.24623,51,80,0
213.26012,213.88095,51,80,0
213.26012,213.88095,63,80,0
213.89346,214.48096,68,80,0
213.89346,214.48096,56,80,0
214.49345,215.08096,68,80,0
214.49345,215.08096,56,80,0
215.09346,215.68095,56,80,0
215.09346,215.68095,68,80,0
215.69345,216.28096,67,80,0
215.69345,216.28096,55,80,0
216.29346,216.88095,67,80,0
216.29346,216.88095,55,80,0
216.89346,217.48096,55,80,0
216.89346,217.48096,67,80,0
217.49345,218.08096,68,80,0
217.49345,218.08096,56,80,0
218.09346,218.68095,68,80,0
218.09346,218.68095,56,80,0
218.69345,219.28096,56,80,0
218.69345,219.28096,68,80,0
219.29346,219.88095,69,80,0
219.29346,219.88095,57,80,0
219.89346,220.48096,69,80,0
219.89346,220.48096,57,80,0
220.49345,221.08096,57,80,0
220.49345,221.08096,69,80,0
221.09346,221.68095,72,81,0
221.09346,221.68095,60,81,0
221.69345,222.28096,72,84,0
221.69345,222.28096,60,84,0
222.29346,222.88095,60,88,0
222.29346,222.88095,72,88,0
222.89346,223.48096,73,91,0
222.89346,223.48096,61,91,0
223.49345,224.09608,73,94,0
223.49345,224.09608,61,94,0
224.10924,224.74448,62,98,0
224.10924,224.74448,74,98,0
224.75836,225.41115,75,97,0
224.75836,225.41115,63,97,0
225.42503,226.0778,75,89,0
225.42503,226.0778,63,89,0
226.0917,226.41115,75,81,0
226.0917,226.41115,63,81,0
226.42503,227.0778,68,80,0
227.75836,229.01253,69,101,0
228.42503,230.21254,75,80,0
229.02504,230.21254,68,80,0
229.62503,230.21254,72,80,0
228.42503,230.81253,78,100,0
230.22504,231.41254,73,80,0
230.22504,231.41254,68,80,0
230.82503,231.41254,76,80,0
231.42503,232.61253,64,102,0
232.02504,233.84346,70,80,0
233.22504,233.84346,67,80,0
232.02504,234.50938,73,104,0
232.62503,235.17606,63,80,0
233.85661,235.17606,68,80,0
234.52328,235.17606,71,80,0
235.18994,235.50938,71,80,0
235.18994,235.50938,59,80,0
235.52328,236.1441,59,90,0
235.52328,236.1441,71,90,0
236.15662,236.74411,70,80,0
236.15662,236.74411,58,80,0
236.7566,237.04411,70,80,0
236.7566,237.04411,58,80,0
237.05661,237.34412,80,80,0
237.05661,237.34412,68,80,0
237.35661,237.9441,68,90,0
237.35661,237.9441,80,90,0
237.9566,238.54411,78,80,0
237.9566,238.54411,66,80,0
238.55661,238.84412,78,80,0
238.55661,238.84412,66,80,0
238.85661,239.1441,77,80,0
238.85661,239.1441,65,80,0
239.15662,239.74411,65,90,0
239.15662,239.74411,77,90,0
239.7566,240.34412,75,80,0
239.7566,240.34412,63,80,0
240.35661,240.6441,75,80,0
240.35661,240.6441,63,80,0
240.65662,240.9441,74,80,0
240.65662,240.9441,62,80,0
240.9566,241.54411,62,90,0
240.9566,241.54411,74,90,0
241.55661,242.1441,75,80,0
241.55661,242.1441,63,80,0
242.15662,242.4441,75,80,0
242.15662,242.4441,63,80,0
242.4566,242.74411,77,80,0
242.4566,242.74411,65,80,0
242.7566,243.34412,65,90,0
242.7566,243.34412,77,90,0
243.35661,243.9441,75,80,0
243.35661,243.9441,63,80,0
243.9566,244.24411,75,80,0
243.9566,244.24411,63,80,0
244.2566,244.55925,74,80,0
244.2566,244.55925,62,80,0
244.5724,245.20764,62,90,0
244.5724,245.20764,74,90,0
245.22153,245.8743,75,80,0
245.22153,245.8743,63,80,0
245.88818,246.54097,63,80,0
245.88818,246.54097,51,80,0
246.55486,247.17569,51,80,0
246.55486,247.17569,63,80,0
247.18819,247.7757,68,80,0
247.18819,247.7757,56,80,0
247.7882,248.37569,68,80,0
247.7882,248.37569,56,80,0
248.38818,248.9757,56,80,0
248.38818,248.9757,68,80,0
248.98819,249.57568,67,80,0
248.98819,249.57568,55,80,0
249.5882,250.17569,67,80,0
249.5882,250.17569,55,80,0
250.18819,250.7757,55,80,0
250.18819,250.7757,67,80,0
250.7882,251.37569,68,80,0
250.7882,251.37569,56,80,0
251.38818,251.9757,68,80,0
251.38818,251.9757,56,80,0
251.98819,252.57568,56,80,0
251.98819,252.57568,68,80,0
252.5882,253.17569,69,80,0
252.5882,253.17569,57,80,0
253.18819,253.7757,69,80,0
253.18819,253.7757,57,80,0
253.7882,254.37569,57,80,0
253.7882,254.37569,69,80,0
254.38818,254.9757,72,81,0
254.38818,254.9757,60,81,0
254.98819,255.57568,72,84,0
254.98819,255.57568,60,84,0
255.5882,256.1757,60,88,0
255.5882,256.1757,72,88,0
256.1882,256.7757,73,91,0
256.1882,256.7757,61,91,0
256.78818,257.3757,73,94,0
256.78818,257.3757,61,94,0
257.38818,257.97568,62,98,0
257.38818,257.97568,74,98,0
257.9882,258.59082,75,97,0
257.9882,258.59082,63,97,0
258.60397,259.23923,75,91,0
258.60397,259.23923,63,91,0
259.2531,259.57254,75,84,0
259.2531,259.57254,63,84,0
259.58643,260.3208,68,81,0
261.08643,262.0531,63,80,0
262.06143,262.4531,68,80,0
262.46143,263.2531,80,80,0
263.26144,263.6531,79,80,0
263.66144,264.4531,67,80,0
264.46143,264.8531,68,80,0
264.86142,265.6531,80,80,0
264.86142,265.6531,84,80,0
265.66144,266.0531,82,80,0
265.66144,266.0531,79,80,0
266.06143,266.4531,65,80,0
266.06143,266.8531,73,80,0
266.46143,266.8531,64,80,0
266.86142,267.2531,72,80,0
266.86142,267.2531,63,80,0
267.26144,268.0531,77,80,0
267.26144,268.0531,89,80,0
268.06143,268.4531,87,80,0
268.06143,268.4531,75,80,0
268.46143,268.8531,62,80,0
268.46143,268.8531,59,80,0
268.46143,268.8531,56,80,0
268.86142,269.2531,61,80,0
268.86142,269.2531,58,80,0
268.86142,269.2531,52,80,0
269.26144,269.6666,60,83,0
269.26144,269.6666,56,83,0
269.26144,269.6666,51,83,0
269.67523,270.55573,53,87,0
269.67523,270.55573,56,87,0
269.67523,270.55573,59,87,0
270.56534,271.01727,58,94,0
270.56534,271.01727,55,94,0
271.0269,271.88007,51,80,0
271.0269,271.88007,63,80,0
271.88843,272.2801,68,80,0
271.88843,272.2801,56,80,0
272.28842,273.08008,68,80,0
272.28842,273.08008,80,80,0
273.0884,273.48007,79,80,0
273.0884,273.48007,67,80,0
273.4884,274.2801,55,80,0
273.4884,274.2801,67,80,0
274.28842,274.68008,68,80,0
274.28842,274.68008,56,80,0
274.68842,275.48007,80,80,0
274.68842,275.48007,84,80,0
275.4884,275.88007,82,80,0
275.4884,275.88007,79,80,0
275.88843,276.2801,65,80,0
275.88843,276.68008,73,80,0
276.28842,276.68008,64,80,0
276.68842,277.08008,72,80,0
276.68842,277.08008,63,80,0
277.0884,277.88007,77,80,0
277.0884,277.88007,89,80,0
277.88843,278.29358,75,80,0
277.88843,278.29358,87,80,0
278.30222,279.16595,59,80,0
278.30222,279.16595,62,80,0
278.30222,279.6104,68,80,0
279.17523,279.6104,63,80,0
279.17523,279.6104,60,80,0
279.61966,280.05484,67,80,0
279.61966,280.05484,61,80,0
279.61966,280.05484,58,80,0
280.06412,280.4993,68,80,0
280.06412,280.4993,60,80,0
280.06412,280.4993,56,80,0
280.953,281.7891,54,80,0
280.953,281.7891,66,80,0
281.79745,282.18912,65,80,0
281.79745,282.18912,53,80,0
282.19745,282.9891,75,80,0
282.19745,282.9891,87,80,0
282.99744,283.3891,85,80,0
282.99744,283.3891,73,80,0
283.39743,284.18912,52,80,0
283.39743,284.18912,64,80,0
284.19745,284.5891,63,80,0
284.19745,284.5891,51,80,0
284.59744,285.3891,73,80,0
284.59744,285.3891,85,80,0
285.39743,285.7891,72,80,0
285.39743,285.7891,84,80,0
285.79745,286.18912,53,80,0
285.79745,286.18912,48,80,0
285.79745,286.5891,60,80,0
286.19745,286.9891,53,80,0
286.19745,286.9891,50,80,0
286.59744,286.9891,59,80,0
286.99744,287.7891,61,80,0
286.99744,287.7891,64,80,0
286.99744,287.7891,67,80,0
286.99744,287.7891,70,80,0
287.79745,288.18912,69,80,0
287.79745,288.18912,65,80,0
287.79745,288.18912,60,80,0
288.19745,288.5891,72,80,0
288.19745,288.5891,65,80,0
288.19745,288.9891,77,80,0
288.59744,289.3891,70,80,0
288.59744,289.3891,67,80,0
288.99744,289.3891,75,80,0
289.39743,290.18912,53,80,0
289.39743,290.18912,56,80,0
289.39743,290.18912,62,80,0
290.19745,290.5891,63,80,0
290.19745,290.5891,55,80,0
290.19745,290.5891,51,80,0
290.59744,290.9891,72,80,0
290.59744,290.9891,65,80,0
290.59744,291.3891,77,80,0
290.99744,291.7891,70,80,0
290.99744,291.7891,67,80,0
291.39743,291.7891,75,80,0
291.79745,292.18912,62,80,0
291.79745,292.18912,56,80,0
291.79745,292.18912,53,80,0
292.19745,292.5891,63,80,0
292.19745,292.5891,55,80,0
292.19745,292.5891,51,80,0
292.59744,292.9891,63,80,0
292.59744,292.9891,56,80,0
292.59744,292.9891,53,80,0
292.99744,293.3891,58,80,0
292.99744,293.3891,55,80,0
292.99744,293.7891,63,80,0
293.39743,293.7891,60,80,0
293.39743,293.7891,56,80,0
293.79745,294.18912,68,80,0
294.19745,294.9891,68,80,0
294.19745,294.9891,80,80,0
294.99744,295.3891,79,80,0
294.99744,295.3891,67,80,0
295.39743,296.18912,55,80,0
295.39743,296.18912,67,80,0
296.19745,296.5891,68,80,0
296.19745,296.5891,56,80,0
296.59744,297.3891,80,80,0
296.59744,297.3891,84,80,0
297.39743,297.7891,82,80,0
297.39743,297.7891,79,80,0
297.79745,298.18912,65,80,0
297.79745,298.5891,73,80,0
298.19745,298.5891,64,80,0
298.59744,299.0171,72,80,0
298.59744,299.0171,63,80,0
299.026,299.84625,77,80,0
299.026,299.84625,89,80,0
299.85458,300.25977,75,80,0
299.85458,300.25977,87,80,0
300.26837,301.14886,59,80,0
300.26837,301.14886,62,80,0
300.26837,301.6104,68,80,0
301.15848,301.6104,63,80,0
301.15848,301.6104,60,80,0
301.62003,302.07193,67,80,0
301.62003,302.07193,61,80,0
301.62003,302.07193,58,80,0
302.08157,302.53348,68,80,0
302.08157,302.53348,60,80,0
302.08157,302.53348,56,80,0
303.00464,303.1609,60,80,0
303.1713,303.32755,65,80,0
303.33798,303.49423,63,80,0
303.50464,303.6609,60,80,0
303.6713,303.82755,65,80,0
303.83798,303.99423,63,80,0
304.00464,304.1609,60,80,0
304.1713,304.32755,70,80,0
304.33798,304.49423,68,80,0
304.50464,304.6609,60,80,0
304.6713,304.82755,70,80,0
304.83798,304.99423,68,80,0
305.00464,305.1609,61,80,0
305.1713,305.32755,68,80,0
305.33798,305.49423,67,80,0
305.50464,305.6609,61,80,0
305.6713,305.82755,67,80,0
305.83798,305.99423,65,80,0
306.00464,306.1609,61,80,0
306.1713,306.32755,67,80,0
306.33798,306.49423,63,80,0
306.50464,306.6609,63,80,0
306.6713,306.82755,70,80,0
306.83798,306.99423,68,80,0
307.00464,307.1609,63,80,0
307.1713,307.32755,70,80,0
307.33798,307.49423,68,80,0
307.50464,307.6609,63,80,0
307.6713,307.82755,72,80,0
307.83798,307.99423,70,80,0
308.00464,308.1609,63,80,0
308.1713,308.32755,73,80,0
308.1713,308.32755,70,80,0
308.33798,308.49423,72,80,0
308.33798,308.49423,68,80,0
308.50464,308.6609,63,80,0
308.6713,308.82755,72,80,0
308.6713,308.82755,68,80,0
308.83798,308.99423,70,80,0
308.83798,308.99423,67,80,0
309.00464,309.0359,72,80,0
309.0411,309.12442,70,80,0
309.12964,309.24423,69,80,0
309.25464,309.36923,70,80,0
309.37964,309.49423,72,80,0
309.50464,309.6609,68,80,0
309.6713,309.82755,75,80,0
309.83798,309.99423,73,80,0
310.00464,310.1609,68,80,0
310.1713,310.32755,75,80,0
310.33798,310.49423,73,80,0
310.50464,310.6609,68,80,0
310.6713,310.82755,73,80,0
310.83798,310.99423,72,80,0
311.00464,311.1609,68,80,0
311.1713,311.32755,79,80,0
311.33798,311.49423,77,80,0
311.50464,311.6609,67,80,0
311.6713,311.82755,72,80,0
311.83798,311.99423,70,80,0
312.00464,312.1609,68,80,0
312.1713,312.32755,77,80,0
312.33798,312.49423,75,80,0
312.50464,312.6609,68,80,0
312.6713,312.82755,75,80,0
312.83798,312.99423,73,80,0
313.00464,313.1609,65,80,0
313.1713,313.32755,75,80,0
313.1713,313.32755,72,80,0
313.33798,313.49423,73,80,0
313.33798,313.49423,70,80,0
313.50464,313.6609,63,80,0
313.6713,313.82755,73,80,0
313.6713,313.82755,70,80,0
313.83798,313.99423,72,80,0
313.83798,313.99423,68,80,0
314.00464,314.49423,69,80,0
314.00464,314.49423,66,80,0
314.50464,314.99423,70,80,0
314.50464,314.99423,67,80,0
315.00464,315.11923,63,80,0
315.12964,315.24423,75,80,0
315.25464,315.36923,63,80,0
315.37964,315.49423,75,80,0
315.62964,315.74423,75,80,0
315.75464,315.86923,77,80,0
315.50464,315.99423,63,80,0
315.87964,315.99423,75,80,0
316.12964,316.24423,75,80,0
316.25464,316.36923,77,80,0
316.00464,316.49423,68,80,0
316.37964,316.49423,75,80,0
316.62964,316.74423,75,80,0
316.75464,316.86923,77,80,0
316.50464,316.99423,68,80,0
316.87964,316.99423,75,80,0
317.00464,317.11923,77,80,0
317.00464,317.24423,68,80,0
317.12964,317.24423,75,80,0
317.25464,317.36923,77,80,0
317.25464,317.49423,67,80,0
317.37964,317.49423,75,80,0
317.50464,317.61923,77,80,0
317.50464,317.74423,67,80,0
317.62964,317.74423,75,80,0
317.75464,317.86923,77,80,0
317.75464,317.99423,65,80,0
317.87964,317.99423,75,80,0
318.00464,318.11923,77,80,0
318.00464,318.24423,67,80,0
318.12964,318.24423,75,80,0
318.25464,318.36923,77,80,0
318.25464,318.49423,63,80,0
318.37964,318.49423,75,80,0
318.62964,318.74423,75,80,0
318.75464,318.86923,77,80,0
318.50464,318.99423,68,80,0
318.87964,318.99423,75,80,0
319.12964,319.24423,75,80,0
319.25464,319.36923,77,80,0
319.00464,319.49423,68,80,0
319.37964,319.49423,75,80,0
319.62964,319.74423,75,80,0
319.75464,319.86923,77,80,0
319.50464,319.99423,70,80,0
319.87964,319.99423,75,80,0
320.00464,320.11923,72,80,0
320.12964,320.24423,75,80,0
320.25464,320.36923,77,80,0
320.00464,320.49423,68,80,0
320.37964,320.49423,75,80,0
320.50464,320.61923,70,80,0
320.62964,320.74423,75,80,0
320.75464,320.86923,77,80,0
320.50464,320.99423,67,80,0
320.87964,320.99423,75,80,0
321.00464,321.0359,72,80,0
321.0411,321.12442,70,80,0
321.12964,321.24423,69,80,0
321.25464,321.36923,70,80,0
321.37964,321.49423,72,80,0
321.62964,321.74423,80,80,0
321.75464,321.86923,82,80,0
321.50464,321.99423,73,80,0
321.87964,321.99423,80,80,0
322.12964,322.24423,80,80,0
322.25464,322.36923,82,80,0
322.00464,322.49423,73,80,0
322.37964,322.49423,80,80,0
322.62964,322.74423,80,80,0
322.75464,322.86923,82,80,0
322.50464,322.99423,72,80,0
322.87964,322.99423,80,80,0
323.12964,323.24423,80,80,0
323.25464,323.36923,82,80,0
323.00464,323.49423,77,80,0
323.37964,323.49423,80,80,0
323.62964,323.74423,79,80,0
323.75464,323.86923,80,80,0
323.50464,323.99423,70,80,0
323.87964,323.99423,79,80,0
324.12964,324.24423,80,80,0
324.25464,324.36923,82,80,0
324.00464,324.49423,75,80,0
324.37964,324.49423,80,80,0
324.62964,324.74423,75,80,0
324.75464,324.86923,77,80,0
324.50464,324.99423,68,80,0
324.87964,324.99423,75,80,0
325.00464,325.11923,72,80,0
325.12964,325.24423,75,80,0
325.25464,325.36923,77,80,0
325.00464,325.49423,68,80,0
325.37964,325.49423,75,80,0
325.50464,325.61923,70,80,0
325.62964,325.74423,75,80,0
325.75464,325.86923,77,80,0
325.50464,325.99423,67,80,0
325.87964,325.99423,75,80,0
326.00464,326.49423,68,80,0
327.00464,327.11923,76,80,0
327.12964,327.24423,77,80,0
327.25464,327.36923,76,80,0
327.37964,327.49423,77,80,0
327.50464,327.74423,77,80,0
327.75464,328.24423,89,80,0
328.25464,328.74423,88,80,0
328.75464,329.11923,87,80,0
329.12964,329.24423,85,80,0
329.25464,329.36923,84,80,0
329.37964,329.49423,82,80,0
329.50464,329.61923,81,80,0
329.62964,329.74423,82,80,0
329.75464,329.86923,78,80,0
329.87964,329.99423,77,80,0
330.00464,330.11923,75,80,0
330.12964,330.24423,73,80,0
330.25464,330.36923,72,80,0
330.37964,330.49423,70,80,0
330.50464,330.74423,75,80,0
330.75464,331.24423,87,80,0
331.25464,331.74423,86,80,0
331.75464,332.11923,85,80,0
332.12964,332.24423,84,80,0
332.25464,332.36923,82,80,0
332.37964,332.49423,80,80,0
332.50464,332.61923,79,80,0
332.62964,332.74423,80,80,0
332.75464,332.86923,74,80,0
332.87964,332.99423,75,80,0
333.00464,333.11923,71,80,0
333.12964,333.24423,72,80,0
333.25464,333.36923,73,80,0
333.37964,333.49423,74,80,0
333.62964,333.74423,63,80,0
333.75464,333.86923,68,81,0
333.50464,333.99423,75,80,0
333.87964,333.99423,63,82,0
334.12964,334.24423,65,84,0
334.25464,334.36923,68,85,0
334.00464,334.49423,74,83,0
334.37964,334.49423,65,86,0
334.62964,334.74423,67,87,0
334.75464,334.86923,73,88,0
334.50464,334.99423,76,86,0
334.87964,334.99423,67,89,0
335.12964,335.24423,68,91,0
335.25464,335.36923,72,92,0
335.00464,335.49423,77,90,0
335.37964,335.49423,68,93,0
335.62964,335.74423,70,94,0
335.75464,335.86923,76,95,0
335.50464,335.99423,79,93,0
335.87964,335.99423,70,96,0
336.12964,336.24423,72,98,0
336.25464,336.36923,77,99,0
336.00464,336.49423,80,97,0
336.37964,336.49423,72,99,0
336.50464,336.61923,67,80,0
336.62964,336.74423,66,80,0
336.75464,336.86923,67,80,0
336.87964,336.99423,66,80,0
337.00464,337.11923,67,80,0
337.12964,337.24423,70,80,0
337.25464,337.36923,68,80,0
336.50464,337.49423,75,80,0
337.37964,337.49423,67,80,0
337.50464,337.61923,65,80,0
337.62964,337.74423,68,80,0
337.75464,337.86923,67,80,0
337.50464,337.99423,74,100,0
337.87964,337.99423,65,80,0
338.00464,338.11923,63,80,0
338.12964,338.24423,65,80,0
338.25464,338.36923,67,80,0
338.37964,338.49423,68,80,0
338.50464,338.61923,70,80,0
338.62964,338.74423,71,80,0
338.75464,338.86923,72,80,0
338.00464,338.99423,75,80,0
338.87964,338.99423,70,80,0
339.00464,339.11923,72,80,0
339.12964,339.24423,70,80,0
339.25464,339.36923,74,80,0
339.00464,339.49423,77,100,0
339.37964,339.49423,72,80,0
339.50464,339.61923,67,80,0
339.62964,339.74423,66,80,0
339.75464,339.86923,67,80,0
339.87964,339.99423,66,80,0
340.00464,340.11923,67,80,0
340.12964,340.24423,70,80,0
340.25464,340.36923,68,80,0
339.50464,340.49423,75,80,0
340.37964,340.49423,67,80,0
340.50464,340.61923,65,80,0
340.62964,340.74423,68,80,0
340.75464,340.86923,67,80,0
340.50464,340.99423,74,102,0
340.87964,340.99423,65,80,0
341.13507,341.25464,63,80,0
341.2655,341.38507,67,80,0
341.00464,341.5155,75,80,0
341.39594,341.5155,63,80,0
341.66275,341.78775,63,80,0
341.7991,341.9241,68,80,0
341.52637,342.06046,74,80,0
341.93546,342.06046,63,80,0
342.2147,342.34564,63,80,0
342.35754,342.4885,70,80,0
342.07184,342.63135,73,80,0
342.5004,342.63135,63,80,0
342.64325,342.7742,72,80,0
342.64325,342.91705,63,80,0
342.7861,342.91705,75,80,0
342.929,343.04355,77,80,0
342.929,343.16855,68,80,0
343.054,343.16855,75,80,0
343.179,343.29355,77,80,0
343.179,343.41855,68,80,0
343.304,343.41855,75,80,0
343.429,343.54355,77,80,0
343.429,343.66855,68,80,0
343.554,343.66855,75,80,0
343.679,343.79355,77,80,0
343.679,343.91855,68,80,0
343.804,343.91855,75,80,0
343.929,344.04355,77,80,0
343.929,344.16855,68,80,0
344.054,344.16855,75,80,0
344.179,344.29355,77,80,0
344.179,344.41855,68,80,0
344.304,344.41855,75,80,0
344.429,344.54355,77,80,0
344.429,344.66855,67,80,0
344.554,344.66855,75,80,0
344.679,344.79355,77,80,0
344.679,344.91855,67,80,0
344.804,344.91855,75,80,0
344.929,345.04355,77,80,0
344.929,345.16855,65,80,0
345.054,345.16855,75,80,0
345.179,345.29355,77,80,0
345.179,345.41855,67,80,0
345.304,345.41855,75,80,0
345.429,345.54355,77,80,0
345.429,345.66855,63,80,0
345.554,345.66855,75,80,0
345.679,345.79355,77,80,0
345.804,345.91855,75,80,0
345.929,346.04355,77,80,0
345.679,346.16855,68,80,0
346.054,346.16855,75,80,0
346.179,346.29355,77,80,0
346.304,346.41855,75,80,0
346.429,346.54355,77,80,0
346.179,346.66855,68,80,0
346.554,346.66855,75,80,0
346.679,346.79355,77,80,0
346.804,346.91855,75,80,0
346.929,347.04355,77,80,0
346.679,347.16855,70,80,0
347.054,347.16855,75,80,0
347.179,347.29355,77,80,0
347.304,347.41855,75,80,0
347.429,347.54355,77,80,0
347.179,347.66855,72,80,0
347.179,347.66855,68,80,0
347.554,347.66855,75,80,0
347.679,347.79355,77,80,0
347.804,347.91855,75,80,0
347.929,348.04355,77,80,0
347.679,348.16855,70,80,0
347.679,348.16855,67,80,0
348.054,348.16855,75,80,0
348.179,348.21024,72,80,0
348.21542,348.29877,70,80,0
348.304,348.41855,69,80,0
348.429,348.54355,70,80,0
348.554,348.66855,72,80,0
348.804,348.91855,80,80,0
348.929,349.04355,82,80,0
348.679,349.16855,73,80,0
349.054,349.16855,80,80,0
349.179,349.29355,82,80,0
349.304,349.41855,80,80,0
349.429,349.54355,82,80,0
349.179,349.66855,73,80,0
349.554,349.66855,80,80,0
349.679,349.79355,82,80,0
349.804,349.91855,80,80,0
349.929,350.04355,82,80,0
349.679,350.16855,72,80,0
350.054,350.16855,80,80,0
350.179,350.29355,82,80,0
350.304,350.41855,80,80,0
350.429,350.54355,82,80,0
350.179,350.66855,77,80,0
350.554,350.66855,80,80,0
350.679,350.79355,80,80,0
350.804,350.91855,79,80,0
350.929,351.04355,80,80,0
350.679,351.16855,70,80,0
351.054,351.16855,79,80,0
351.179,351.29852,82,80,0
351.30942,351.429,80,80,0
351.43985,351.55942,82,80,0
351.179,351.68985,75,80,0
351.57028,351.68985,80,80,0
351.7007,351.82028,77,80,0
351.83115,351.9507,75,80,0
351.96158,352.08115,77,80,0
351.7007,352.21158,68,80,0
352.092,352.21158,75,80,0
352.22244,352.34744,77,80,0
352.35883,352.48383,75,80,0
352.49518,352.62018,77,80,0
352.22244,352.75653,68,80,0
352.22244,352.75653,72,80,0
352.63153,352.75653,75,80,0
352.7679,352.89642,77,80,0
352.90808,353.0366,75,80,0
353.04828,353.1768,77,80,0
352.7679,353.31696,70,80,0
352.7679,353.31696,67,80,0
353.18848,353.31696,75,80,0
353.32864,353.6051,68,80,0
353.61713,353.89355,63,80,0
353.90558,354.182,63,80,0
354.19403,354.4705,63,80,0
354.4825,354.75894,63,80,0
354.77097,355.0474,63,80,0
355.05942,355.34128,63,70,0
355.05942,355.34128,60,71,0
355.35355,355.6354,63,71,0
355.35355,355.6354,60,67,0
355.64764,355.9295,63,68,0
355.64764,355.9295,60,72,0
355.05942,356.22363,72,80,0
355.94177,356.22363,63,67,0
355.94177,356.22363,60,68,0
356.2359,356.51776,63,68,0
356.2359,356.51776,60,68,0
356.2359,356.51776,70,80,0
356.53,356.81186,63,68,0
356.53,356.81186,60,76,0
356.53,356.81186,68,80,0
356.82413,357.106,63,71,0
356.82413,357.106,61,69,0
356.82413,357.40012,68,80,0
357.11826,357.40012,63,67,0
357.11826,357.40012,61,68,0
357.41235,357.6942,63,69,0
357.41235,357.6942,61,70,0
357.41235,357.98834,67,80,0
357.70648,357.98834,63,69,0
357.70648,357.98834,61,67,0
358.0006,358.28247,63,68,0
358.0006,358.28247,61,69,0
358.0006,358.4295,67,80,0
358.2947,358.57657,63,65,0
358.2947,358.57657,61,68,0
358.44177,358.57657,68,80,0
358.58884,358.8707,63,70,0
358.58884,358.8707,61,68,0
358.58884,359.16483,70,80,0
358.88293,359.16483,63,69,0
358.88293,359.16483,61,70,0
359.17706,359.45892,63,70,0
359.17706,359.45892,61,70,0
359.17706,359.75305,70,80,0
359.4712,359.75305,63,70,0
359.4712,359.75305,61,68,0
359.7653,360.04715,63,69,0
359.7653,360.04715,61,69,0
359.7653,360.1942,70,80,0
360.05942,360.34128,63,69,0
360.05942,360.34128,61,70,0
360.20648,360.34128,72,80,0
360.35355,360.6354,63,70,0
360.35355,360.6354,60,68,0
360.35355,360.9295,68,80,0
360.64764,360.9295,63,70,0
360.64764,360.9295,60,69,0
360.94177,361.22363,63,69,0
360.94177,361.22363,60,70,0
361.2359,361.51776,63,70,0
361.2359,361.51776,60,69,0
361.53,361.81186,63,69,0
361.53,361.81186,60,68,0
361.82413,362.106,63,68,0
361.82413,362.106,60,69,0
362.11826,362.40012,63,71,0
362.11826,362.40012,60,68,0
362.11826,362.40012,72,80,0
362.41235,362.6942,63,68,0
362.41235,362.6942,60,69,0
362.41235,362.6942,71,80,0
362.70648,362.98834,63,68,0
362.70648,362.98834,60,69,0
362.70648,362.98834,73,80,0
363.00058,363.28247,63,70,0
363.00058,363.28247,60,70,0
363.00058,363.28247,72,80,0
363.2947,363.57657,63,70,0
363.2947,363.57657,60,70,0
363.2947,363.57657,70,80,0
363.58884,363.8707,63,70,0
363.58884,363.8707,60,70,0
363.58884,363.8707,68,80,0
363.88293,364.1648,63,69,0
363.88293,364.1648,61,69,0
363.88293,364.1648,68,80,0
364.17706,364.45892,63,70,0
364.17706,364.45892,61,69,0
364.17706,364.45892,67,80,0
364.4712,364.75305,63,70,0
364.4712,364.75305,61,68,0
364.4712,364.75305,67,80,0
364.7653,365.04715,63,70,0
364.7653,365.04715,61,63,0
364.7653,365.04715,66,80,0
365.05942,365.34128,63,67,0
365.05942,365.34128,61,69,0
365.05942,365.34128,67,80,0
365.35355,365.6354,63,68,0
365.35355,365.6354,61,69,0
365.35355,365.6354,68,80,0
365.64764,365.9295,63,64,0
365.64764,365.9295,61,66,0
365.64764,365.9295,70,80,0
365.94177,366.22363,63,70,0
365.94177,366.22363,61,69,0
365.94177,366.22363,69,80,0
366.2359,366.51776,63,69,0
366.2359,366.51776,61,70,0
366.2359,366.51776,70,80,0
366.53,366.81186,63,70,0
366.53,366.81186,61,70,0
366.53,366.81186,69,80,0
366.82413,367.106,63,70,0
366.82413,367.106,61,68,0
366.82413,367.106,70,80,0
367.11823,367.40012,63,70,0
367.11823,367.40012,61,68,0
367.11823,367.40012,72,80,0
367.41235,367.6942,63,80,0
367.41235,367.6942,60,80,0
367.41235,367.98834,68,80,0
367.70648,367.98834,63,80,0
367.70648,367.98834,60,80,0
368.00058,368.28244,63,80,0
368.00058,368.28244,60,80,0
368.2947,368.57657,63,80,0
368.2947,368.57657,60,80,0
368.58884,368.8707,63,80,0
368.58884,368.8707,60,80,0
368.88293,369.1648,63,80,0
368.88293,369.1648,60,80,0
368.88293,369.1648,69,80,0
369.17706,369.46457,63,70,0
369.17706,369.46457,61,70,0
369.17706,369.76456,70,70,0
369.47705,369.76456,63,70,0
369.47705,369.76456,61,70,0
369.77707,370.06458,63,70,0
369.77707,370.06458,61,70,0
370.07706,370.36456,63,69,0
370.07706,370.36456,61,69,0
370.37708,370.66455,63,69,0
370.37708,370.66455,61,69,0
370.67706,370.96457,63,68,0
370.67706,370.96457,61,68,0
370.67706,370.96457,72,68,0
370.97705,371.27655,63,68,0
370.97705,371.27655,60,68,0
370.97705,371.58905,68,68,0
371.28955,371.58905,63,67,0
371.28955,371.58905,60,67,0
371.60205,371.90155,63,67,0
371.60205,371.90155,60,67,0
371.91455,372.21405,63,66,0
371.91455,372.21405,60,66,0
372.22705,372.52655,63,66,0
372.22705,372.52655,60,66,0
372.53955,372.83905,63,66,0
372.53955,372.83905,60,66,0
372.53955,372.83905,69,66,0
372.85205,373.15155,63,65,0
372.85205,373.15155,61,65,0
372.85205,373.46405,70,65,0
373.16455,373.46405,63,65,0
373.16455,373.46405,61,65,0
373.47705,373.77655,63,65,0
373.47705,373.77655,61,65,0
373.78955,374.08905,63,65,0
373.78955,374.08905,61,65,0
374.10205,374.40155,63,65,0
374.10205,374.40155,61,65,0
374.41455,374.71405,63,65,0
374.41455,374.71405,61,65,0
374.41455,374.71405,72,65,0
374.72705,375.0329,63,65,0
374.72705,375.0329,60,65,0
375.0462,375.35205,63,65,0
375.0462,375.35205,60,65,0
375.36536,375.6712,63,65,0
375.36536,375.6712,60,65,0
375.6845,375.99036,63,65,0
375.6845,375.99036,60,65,0
376.00366,376.3095,63,65,0
376.00366,376.3095,60,65,0
376.3228,376.62866,63,65,0
376.3228,376.62866,60,65,0
376.64197,376.9614,63,65,0
376.64197,376.9614,60,65,0
374.72705,377.29474,68,65,0
376.97528,377.29474,63,65,0
376.97528,377.29474,60,65,0
377.30862,377.62805,63,65,0
377.30862,377.62805,60,65,0
377.30862,377.9614,68,65,0
377.64197,377.9614,63,65,0
377.64197,377.9614,60,65,0
377.97528,378.45447,63,65,0
377.97528,378.45447,60,65,0
377.97528,378.95447,68,65,0
378.47528,378.95447,63,65,0
378.47528,378.95447,60,65,0
378.97528,383.95447,60,65,0
378.97528,383.95447,63,65,0
378.97528,383.95447,68,65,0
385.97528,386.95447,68,1,0
0.0,0.6527776,51,80,0
1.333333,1.9861106,56,80,0
0.6666665,2.6527772,44,80,0
0.6666665,2.6527772,51,80,0
1.9999995,2.6527772,56,80,0
2.666666,2.9861104,56,80,0
2.9999993,3.3194437,55,80,0
3.3333325,3.8194435,55,80,0
3.8333323,3.9861102,53,80,0
3.999999,4.48611,55,80,0
2.666666,4.6527767,51,80,0
4.499999,4.6527767,51,80,0
2.666666,4.6527767,46,80,0
4.6666656,5.9861097,56,80,0
5.333332,5.9861097,48,80,0
5.9999986,6.6527762,43,90,0
5.9999986,6.6527762,51,90,0
6.666665,7.3194427,51,99,0
6.666665,7.3194427,44,99,0
7.3333316,7.9861093,51,80,0
7.3333316,7.9861093,39,80,0
8.666664,9.319442,53,80,0
9.333331,9.986109,65,80,0
9.999997,10.652775,63,80,0
10.666664,11.319442,62,80,0
11.33333,11.986108,61,80,0
11.999997,12.691174,60,80,0
12.705879,13.358657,53,80,0
13.372545,14.025323,55,80,0
14.039212,14.738617,56,80,0
14.753497,16.167187,51,80,0
16.182068,16.702902,51,80,0
16.717783,16.881474,51,80,0
17.229687,17.549131,56,80,0
17.56302,17.882465,56,80,0
17.896355,18.215797,56,80,0
18.229687,18.549131,56,80,0
16.896355,18.882465,51,80,0
16.896355,18.882465,44,80,0
18.56302,18.882465,56,80,0
18.896353,19.215797,56,80,0
19.229687,19.549131,55,80,0
19.56302,20.049131,55,80,0
20.06302,20.215797,53,80,0
20.229687,20.715797,55,80,0
18.896353,20.882463,51,80,0
20.729687,20.882463,51,80,0
18.896353,20.882463,46,80,0
20.896353,22.215797,56,80,0
21.563019,22.215797,48,80,0
22.229687,22.882463,43,80,0
22.229687,22.882463,51,80,0
22.896353,23.54913,51,80,0
22.896353,23.54913,44,80,0
23.563019,24.215797,51,80,0
23.563019,24.215797,39,80,0
24.896353,25.54913,53,80,0
25.563019,26.215796,65,80,0
26.229685,26.882463,63,80,0
26.89635,27.54913,62,80,0
27.563019,28.242737,61,80,0
28.257797,28.965628,60,80,0
29.647354,30.300133,51,80,0
30.314022,30.966799,39,80,0
30.980688,31.633465,44,80,0
31.647354,32.300133,32,80,0
32.314022,34.300133,65,80,0
34.314022,34.966797,63,80,0
34.980686,35.300133,63,80,0
35.314022,35.633465,61,80,0
35.647354,35.966797,60,80,0
35.980686,36.300133,58,80,0
36.31402,38.30013,63,80,0
38.31402,38.966797,61,80,0
38.980686,39.30013,61,80,0
39.31402,39.633465,60,80,0
39.647354,39.966797,58,80,0
39.980686,40.30013,56,80,0
40.980686,41.633465,60,82,0
40.980686,42.30013,56,82,0
41.64735,42.30013,59,85,0
42.31402,42.966797,61,88,0
42.31402,42.966797,58,88,0
42.31402,42.966797,55,88,0
42.980686,43.63346,60,91,0
42.980686,43.63346,56,91,0
43.64735,44.30013,60,94,0
43.64735,44.30013,52,94,0
44.31402,44.63346,53,97,0
44.31402,44.966797,60,97,0
44.64735,44.966797,56,99,0
44.980686,46.30013,58,100,0
44.980686,46.30013,46,100,0
46.31402,46.966797,59,100,0
46.31402,46.966797,47,100,0
46.980682,47.63346,60,100,0
46.980682,47.63346,48,100,0
47.64735,48.30013,56,100,0
47.64735,48.30013,44,100,0
48.31402,48.966793,57,100,0
48.31402,48.966793,45,100,0
48.980682,50.30013,58,100,0
48.980682,50.30013,46,100,0
50.31402,50.966793,34,100,0
50.31402,50.966793,46,100,0
50.980682,51.63346,51,100,0
50.980682,51.63346,39,100,0
51.64735,52.32707,51,100,0
51.64735,52.32707,41,100,0
52.34213,53.04996,51,100,0
52.34213,53.04996,43,100,0
53.426464,53.74591,56,80,0
53.7598,54.079243,56,80,0
54.093132,54.412575,56,80,0
54.426464,54.74591,56,80,0
53.06502,55.079243,51,80,0
53.06502,55.079243,44,80,0
54.7598,55.079243,56,80,0
55.093132,55.412575,56,80,0
55.426464,55.74591,55,80,0
55.7598,56.24591,55,80,0
56.2598,56.412575,53,80,0
56.426464,56.912575,55,80,0
55.093132,57.079243,51,80,0
56.926464,57.079243,51,80,0
55.093132,57.079243,46,80,0
57.093132,58.412575,56,80,0
57.759796,58.412575,48,84,0
58.426464,59.079243,43,89,0
58.426464,59.079243,51,89,0
59.093132,59.745907,51,94,0
59.093132,59.745907,44,94,0
59.759796,60.412575,51,99,0
59.759796,60.412575,39,99,0
61.093132,61.745907,53,80,0
61.759796,62.412575,65,80,0
62.426464,63.079243,63,80,0
63.09313,63.745907,62,80,0
63.759796,64.412575,61,84,0
64.42646,65.07924,60,89,0
65.759796,66.412575,51,80,0
66.42646,67.07924,39,80,0
67.09313,67.7459,44,80,0
67.759796,68.412575,32,80,0
69.09313,71.07924,44,80,0
69.09313,71.07924,39,80,0
69.09313,71.07924,32,80,0
71.093124,73.07924,46,80,0
71.093124,73.07924,39,80,0
71.093124,73.07924,34,80,0
73.093124,74.412575,48,80,0
73.093124,74.412575,39,80,0
73.093124,74.412575,36,80,0
74.42646,75.07924,51,80,0
74.42646,75.07924,43,80,0
75.093124,75.7459,51,80,0
75.093124,75.7459,44,80,0
75.759796,76.412575,51,80,0
75.759796,76.412575,39,80,0
77.093124,77.7459,41,80,0
77.759796,78.41257,56,80,0
77.759796,78.41257,53,80,0
78.42646,79.07924,56,80,0
78.42646,79.07924,51,80,0
79.093124,79.7459,56,80,0
79.093124,79.7459,50,80,0
79.759796,80.41257,55,80,0
79.759796,80.41257,49,80,0
80.42646,81.07924,56,80,0
80.42646,81.07924,48,80,0
81.093124,81.7459,41,80,0
81.75979,82.41257,43,80,0
82.42646,83.07924,44,80,0
83.093124,84.41257,51,80,0
83.093124,84.41257,39,80,0
85.093124,87.07924,44,80,0
85.093124,87.07924,39,80,0
85.093124,87.07924,32,80,0
87.093124,89.07923,46,80,0
87.093124,89.07923,39,80,0
87.093124,89.07923,34,80,0
89.75979,90.07923,51,81,0
89.093124,90.41257,48,80,0
89.093124,90.41257,39,80,0
89.093124,90.41257,36,80,0
90.093124,90.41257,51,83,0
90.42646,90.7459,51,85,0
90.42646,91.07923,43,85,0
90.75979,91.07923,51,87,0
91.093124,91.7459,51,89,0
91.093124,91.7459,44,89,0
91.75979,92.41257,51,80,0
91.75979,92.41257,39,80,0
93.093124,93.7459,41,80,0
93.75979,94.41257,56,80,0
93.75979,94.41257,53,80,0
94.42645,95.07923,56,80,0
94.42645,95.07923,51,80,0
95.093124,95.7459,56,80,0
95.093124,95.7459,50,80,0
95.75979,96.41257,55,80,0
95.75979,96.41257,49,80,0
96.42645,97.07923,56,80,0
96.42645,97.07923,48,80,0
97.093124,98.41257,51,80,0
98.42645,99.07923,39,80,0
99.093124,99.745895,44,80,0
99.75979,100.41257,32,80,0
100.42645,101.245895,65,80,0
101.25979,101.41257,53,80,0
101.42645,101.57923,57,80,0
101.59312,101.745895,60,80,0
101.75979,102.745895,65,93,0
102.75979,103.07923,63,80,0
103.09312,103.245895,63,80,0
103.25979,103.41257,61,80,0
103.42645,103.57923,60,80,0
103.59312,103.745895,58,80,0
103.75979,103.91257,57,80,0
103.92645,104.07923,58,80,0
104.09312,104.245895,61,80,0
104.25979,104.41257,58,80,0
104.42645,105.07923,46,80,0
105.09312,105.245895,63,80,0
105.25979,105.41257,51,80,0
105.42645,105.57923,55,80,0
105.59312,105.745895,58,80,0
105.75979,106.745895,63,102,0
106.75979,107.07923,61,80,0
107.09312,107.245895,61,80,0
107.25979,107.41257,60,80,0
107.42645,107.57923,58,80,0
107.59312,107.745895,56,80,0
107.75979,107.91256,55,80,0
107.92645,108.07923,56,80,0
108.09312,108.245895,60,80,0
108.25979,108.41256,56,80,0
108.42645,109.07923,44,80,0
109.09312,109.745895,60,80,0
109.09312,109.745895,56,80,0
109.75979,110.41256,59,81,0
109.75979,110.41256,56,81,0
110.42645,111.07923,61,83,0
110.42645,111.07923,58,83,0
110.42645,111.07923,55,83,0
111.09312,111.745895,60,85,0
111.09312,111.745895,56,85,0
111.75978,112.41256,60,86,0
111.75978,112.41256,52,86,0
112.42645,113.07923,60,88,0
112.42645,113.07923,53,88,0
113.25978,113.41256,34,80,0
113.42645,113.57923,39,80,0
113.59312,113.745895,43,80,0
113.75978,113.91256,46,80,0
113.92645,114.07923,51,80,0
114.09312,114.245895,55,80,0
114.25978,114.41256,57,80,0
114.42645,115.07923,59,90,0
115.25978,115.41256,36,80,0
115.42645,115.57923,39,80,0
115.59312,115.745895,43,80,0
115.75978,115.91256,48,80,0
115.92645,116.07923,51,80,0
116.09312,116.245895,55,80,0
116.25978,116.41256,60,80,0
116.42645,117.07923,57,90,0
117.25978,117.41256,34,80,0
117.42645,117.57923,39,80,0
117.59312,117.745895,43,80,0
117.75978,117.91256,46,80,0
117.92645,118.07922,51,80,0
118.09312,118.245895,55,80,0
118.25978,118.41256,57,80,0
118.42645,118.745895,58,80,0
118.75978,119.07922,46,80,0
119.09312,119.41256,51,80,0
119.42645,119.745895,39,80,0
119.75978,120.094086,41,80,0
120.10862,120.442924,39,80,0
120.45746,120.80384,43,80,0
120.8189,121.178276,39,80,0
121.1939,123.22168,44,80,0
121.1939,123.22168,39,80,0
121.1939,123.22168,32,80,0
123.235565,125.22168,46,80,0
123.235565,125.22168,39,80,0
123.235565,125.22168,34,80,0
125.90224,126.22168,51,80,0
125.235565,126.555016,48,80,0
125.235565,126.555016,39,80,0
125.235565,126.555016,36,80,0
126.235565,126.555016,51,80,0
126.5689,126.88834,51,80,0
126.5689,127.22168,43,80,0
126.90224,127.22168,51,80,0
127.235565,127.88834,51,80,0
127.235565,127.88834,44,80,0
127.90224,128.55501,51,80,0
127.90224,128.55501,39,80,0
129.23557,129.88835,41,80,0
129.90224,130.55501,56,80,0
129.90224,130.55501,53,80,0
130.5689,131.22168,56,80,0
130.5689,131.22168,51,80,0
131.23557,131.88835,56,80,0
131.23557,131.88835,50,80,0
131.90224,132.55501,55,80,0
131.90224,132.55501,49,80,0
131.90224,132.55501,58,80,0
132.5689,133.22168,56,80,0
132.5689,133.22168,48,80,0
132.5689,133.22168,60,80,0
133.23557,134.55501,51,80,0
134.5689,135.22168,39,80,0
135.23557,135.88834,44,80,0
135.90224,136.55501,32,80,0
136.5689,136.8564,39,80,0
136.5689,136.8564,51,80,0
136.8689,137.1564,39,80,0
136.8689,137.1564,51,80,0
137.1689,137.4564,51,80,0
137.1689,137.4564,39,80,0
137.4689,137.7564,56,80,0
137.4689,137.7564,44,80,0
137.7689,138.0564,56,80,0
137.7689,138.0564,44,80,0
138.0689,138.3564,56,80,0
138.0689,138.3564,44,80,0
138.3689,138.6564,56,80,0
138.3689,138.6564,44,80,0
138.6689,138.9564,56,80,0
138.6689,138.9564,44,80,0
138.9689,139.2564,56,80,0
138.9689,139.2564,44,80,0
139.2689,139.5564,55,80,0
139.2689,139.5564,43,80,0
139.5689,139.8564,55,80,0
139.5689,139.8564,43,80,0
139.8689,140.1564,53,80,0
139.8689,140.1564,41,80,0
140.1689,140.4564,55,80,0
140.1689,140.4564,43,80,0
140.4689,140.7564,51,80,0
140.4689,140.7564,39,80,0
140.7689,141.0564,51,80,0
140.7689,141.0564,39,80,0
141.0689,141.3564,56,80,0
141.0689,141.3564,44,80,0
141.3689,141.6564,51,80,0
141.3689,141.6564,39,80,0
141.6689,141.9564,56,80,0
141.6689,141.9564,44,80,0
141.9689,142.2564,51,80,0
141.9689,142.2564,39,80,0
142.2689,142.5564,58,80,0
142.2689,142.5564,46,80,0
142.5689,142.8564,51,80,0
142.5689,142.8564,39,80,0
142.8689,143.1564,60,80,0
142.8689,143.1564,48,80,0
143.1689,143.4564,51,80,0
143.1689,143.4564,39,80,0
143.4689,143.7564,58,80,0
143.4689,143.7564,46,80,0
143.7689,143.81265,60,80,0
143.8189,143.91264,58,80,0
143.9189,144.0564,57,80,0
144.0689,144.2064,58,80,0
144.2189,144.3564,60,80,0
144.3689,144.6564,49,80,0
144.6689,144.9564,61,80,0
144.9689,145.2564,53,80,0
145.2689,145.5564,61,80,0
145.5689,145.8564,51,80,0
145.8689,146.1564,60,80,0
146.1689,146.4564,50,80,0
146.4689,146.7564,65,80,0
146.7689,147.0564,49,80,0
147.0689,147.3564,58,80,0
147.3689,147.6564,48,80,0
147.6689,147.9564,63,80,0
147.9689,148.2564,41,80,0
148.2689,148.5564,56,80,0
148.5689,148.8564,43,80,0
148.8689,149.1564,61,80,0
149.1689,149.4564,44,80,0
149.4689,149.7564,60,80,0
149.7689,150.0564,39,80,0
150.0689,150.37154,57,80,0
150.38469,150.68732,39,80,0
150.70047,151.01993,58,80,0
151.03381,151.35326,51,80,0
151.03381,151.35326,39,80,0
151.36714,151.68658,51,80,0
151.36714,151.68658,39,80,0
151.70047,151.98798,51,80,0
151.70047,151.98798,39,80,0
152.00047,152.28798,56,80,0
152.00047,152.28798,44,80,0
152.30048,152.58798,56,80,0
152.30048,152.58798,44,80,0
152.60048,152.88797,56,80,0
152.60048,152.88797,44,80,0
152.90048,153.18797,56,80,0
152.90048,153.18797,44,80,0
153.20047,153.48798,56,80,0
153.20047,153.48798,44,80,0
153.50047,153.78798,56,80,0
153.50047,153.78798,46,80,0
153.80048,154.08798,55,80,0
153.80048,154.08798,46,80,0
154.10048,154.38797,55,80,0
154.10048,154.38797,46,80,0
154.40048,154.68797,53,80,0
154.40048,154.68797,46,80,0
154.70047,154.98798,55,80,0
154.70047,154.98798,46,80,0
155.00047,155.28798,51,80,0
155.00047,155.28798,46,80,0
155.30048,155.58798,51,80,0
155.30048,155.58798,48,80,0
155.60048,155.88797,56,80,0
155.90048,156.18797,51,80,0
155.90048,156.18797,48,80,0
156.20047,156.48798,56,80,0
156.50047,156.78798,51,80,0
156.50047,156.78798,43,80,0
156.80048,157.08798,58,80,0
157.10048,157.38797,51,80,0
157.10048,157.38797,44,80,0
157.40048,157.68797,60,80,0
157.70047,157.98798,51,80,0
157.70047,157.98798,39,80,0
158.00047,158.28798,58,80,0
158.30048,158.33798,60,80,0
158.34422,158.44423,58,80,0
158.45047,158.58798,57,80,0
158.60048,158.73798,58,80,0
158.75047,158.88797,60,80,0
158.90048,159.18797,49,80,0
159.20047,159.48798,61,80,0
159.50047,159.78798,53,80,0
159.80048,160.08798,61,80,0
160.10048,160.38797,51,80,0
160.40048,160.68797,60,80,0
160.70047,160.98798,50,80,0
161.00047,161.28798,65,80,0
161.30048,161.58798,49,80,0
161.60048,161.88797,58,80,0
161.90048,162.18797,48,80,0
162.20047,162.48798,63,80,0
162.50047,162.78798,51,80,0
162.80048,163.08798,56,80,0
163.10048,163.38797,39,80,0
163.40048,163.68797,60,80,0
163.70047,163.98798,39,80,0
164.00047,164.28798,58,80,0
164.30048,164.58798,44,80,0
164.60048,164.88797,56,80,0
164.90048,165.48798,32,80,0
165.50047,165.78798,45,80,0
165.80048,166.08798,60,80,0
166.10048,166.38797,45,80,0
166.40048,166.68797,60,80,0
166.70047,166.98798,43,80,0
167.00047,167.28798,58,80,0
167.30048,167.58798,45,80,0
167.60048,167.88797,60,80,0
167.90048,168.18797,46,80,0
168.20047,168.48798,61,80,0
168.50047,168.78798,49,80,0
168.80048,169.08798,65,80,0
169.10048,169.38797,46,90,0
169.10048,169.38797,34,90,0
169.40048,169.68797,44,80,0
169.40048,169.68797,32,80,0
169.70047,169.98798,43,80,0
169.70047,169.98798,31,80,0
170.00047,170.28798,58,80,0
170.30048,170.58798,41,80,0
170.60048,170.88797,56,80,0
170.90048,171.18797,44,80,0
171.20047,171.48798,58,80,0
171.50047,171.78798,44,80,0
171.80048,172.08798,60,80,0
172.10048,172.38797,48,80,0
172.40048,172.68797,63,80,0
172.70047,172.98798,48,80,0
173.00047,173.28798,51,80,0
173.30048,173.58798,48,80,0
173.60048,173.88797,51,80,0
173.90048,174.18797,47,80,0
174.20047,174.48798,50,80,0
174.50047,174.78798,46,80,0
174.80048,175.08798,52,80,0
175.10048,175.38797,44,80,0
175.40048,175.68797,53,80,0
175.70047,175.98798,43,80,0
176.00047,176.28798,55,80,0
176.30048,176.58798,41,80,0
176.60048,176.73798,56,80,0
176.75047,176.88797,53,80,0
176.90048,177.18797,46,80,0
177.20047,177.48798,51,80,0
177.50047,177.78798,46,80,0
177.80048,178.08798,51,80,0
178.10048,178.38797,47,80,0
178.40048,178.68797,50,80,0
178.70047,178.98798,48,80,0
179.00047,179.28798,51,80,0
179.30048,179.58798,48,80,0
179.60048,179.88797,51,80,0
179.90048,180.18797,45,80,0
180.20047,180.33798,55,80,0
180.35048,180.48798,53,80,0
180.50047,180.78798,46,80,0
180.80048,181.08798,51,80,0
181.10048,181.38797,46,80,0
181.40048,181.68797,51,80,0
181.70047,181.98798,34,80,0
182.00047,182.28798,50,80,0
182.30048,182.58798,39,80,0
182.60048,182.9031,51,80,0
182.91626,183.2189,41,80,0
183.23206,183.5515,51,80,0
183.56538,183.88483,43,80,0
183.89873,184.21817,51,80,0
184.23206,184.51956,53,80,0
184.23206,184.51956,44,80,0
184.53206,184.81955,56,80,0
184.53206,184.81955,44,80,0
184.83206,185.11955,56,80,0
184.83206,185.11955,44,80,0
185.13205,185.41956,56,80,0
185.13205,185.41956,44,80,0
185.43205,185.71956,56,80,0
185.43205,185.71956,44,80,0
185.73206,186.01956,56,80,0
185.73206,186.01956,44,80,0
186.03206,186.31955,56,80,0
186.03206,186.31955,44,80,0
186.33206,186.61955,55,80,0
186.33206,186.61955,43,80,0
186.63205,186.91956,55,80,0
186.63205,186.91956,43,80,0
186.93205,187.21956,53,80,0
186.93205,187.21956,41,80,0
187.23206,187.51956,55,80,0
187.23206,187.51956,43,80,0
187.53206,187.81955,51,80,0
187.53206,187.81955,39,80,0
187.83206,188.11955,51,80,0
187.83206,188.11955,39,80,0
188.13205,188.41956,56,80,0
188.13205,188.41956,44,80,0
188.43205,188.71956,51,80,0
188.43205,188.71956,39,80,0
188.73206,189.01956,56,80,0
188.73206,189.01956,44,80,0
189.03206,189.31955,51,80,0
189.03206,189.31955,39,80,0
189.33206,189.61955,58,80,0
189.33206,189.61955,46,80,0
189.63205,189.91956,51,80,0
189.63205,189.91956,44,80,0
189.93205,190.21956,60,80,0
190.23206,190.51956,51,80,0
190.23206,190.51956,39,80,0
190.53206,190.81955,58,80,0
190.83206,190.86955,60,80,0
190.87581,190.9758,58,80,0
190.98206,191.11955,57,80,0
191.13205,191.26956,58,80,0
191.28206,191.41956,60,80,0
191.43205,191.71956,49,80,0
191.73206,192.01956,61,80,0
192.03206,192.31955,53,80,0
192.33206,192.61955,61,80,0
192.63205,192.91956,51,80,0
192.93205,193.21956,60,80,0
193.23206,193.51956,50,80,0
193.53206,193.81955,65,80,0
193.83206,194.11955,49,80,0
194.13205,194.41956,58,80,0
194.43205,194.71956,48,80,0
194.73206,195.01956,63,80,0
195.03206,195.31955,51,80,0
195.33206,195.61955,56,80,0
195.63205,195.9347,39,80,0
195.94785,196.25047,60,80,0
196.26363,196.58308,39,80,0
196.59697,196.91641,58,80,0
196.9303,197.24974,44,80,0
197.26363,197.58308,56,80,0
197.59697,198.24974,32,80,0
198.9303,199.5178,47,80,0
198.9303,199.5178,44,80,0
199.5303,200.1178,47,80,0
199.5303,200.1178,44,80,0
200.1303,200.7178,47,80,0
200.1303,200.7178,44,80,0
200.7303,201.3178,49,80,0
200.7303,201.3178,46,80,0
201.3303,201.9178,49,80,0
201.3303,201.9178,46,80,0
201.9303,202.5178,49,80,0
201.9303,202.5178,46,80,0
202.5303,203.1178,51,80,0
202.5303,203.1178,47,80,0
203.1303,203.7178,51,80,0
203.1303,203.7178,47,80,0
203.7303,204.3178,51,80,0
203.7303,204.3178,47,80,0
204.3303,204.9178,52,80,0
204.3303,204.9178,49,80,0
204.9303,205.5178,52,80,0
204.9303,205.5178,49,80,0
205.5303,206.1178,52,80,0
205.5303,206.1178,49,80,0
206.1303,206.7178,54,80,0
206.1303,206.7178,51,80,0
206.7303,207.3178,57,82,0
206.7303,207.3178,54,82,0
206.7303,207.3178,51,82,0
207.3303,207.9178,57,84,0
207.3303,207.9178,54,84,0
207.3303,207.9178,51,84,0
207.9303,208.5178,56,86,0
207.9303,208.5178,52,86,0
208.5303,209.1178,56,88,0
208.5303,209.1178,52,88,0
209.1303,209.7178,56,91,0
209.1303,209.7178,52,91,0
209.7303,210.3178,59,93,0
209.7303,210.3178,53,93,0
210.3303,210.94872,58,95,0
210.3303,210.94872,53,95,0
210.96188,211.58029,56,97,0
210.96188,211.58029,53,97,0
211.59346,212.24623,56,99,0
211.59346,212.9129,51,99,0
212.26012,212.9129,55,80,0
213.59346,214.18095,32,80,0
214.19345,214.78096,44,80,0
214.19345,214.78096,47,80,0
214.79346,215.38095,47,80,0
214.79346,215.38095,44,80,0
215.39346,215.98096,34,80,0
215.99345,216.58096,46,80,0
215.99345,216.58096,49,80,0
216.59346,217.18095,46,80,0
216.59346,217.18095,49,80,0
217.19345,217.78096,35,80,0
217.79346,218.38095,47,80,0
217.79346,218.38095,51,80,0
218.39346,218.98096,47,80,0
218.39346,218.98096,51,80,0
218.99345,219.58096,37,80,0
219.59346,220.18095,49,80,0
219.59346,220.18095,52,80,0
220.19345,220.78096,49,80,0
220.19345,220.78096,52,80,0
220.79346,221.38095,39,80,0
221.39346,221.98096,57,83,0
221.39346,221.98096,54,83,0
221.39346,221.98096,51,83,0
221.99345,222.58096,57,86,0
221.99345,222.58096,54,86,0
221.99345,222.58096,51,86,0
222.59346,223.18095,40,89,0
223.19345,223.78096,56,93,0
223.19345,223.78096,52,93,0
223.79346,224.41188,59,96,0
223.79346,224.41188,56,96,0
223.79346,224.41188,53,96,0
224.42503,225.0778,59,100,0
224.42503,225.0778,56,100,0
224.42503,225.0778,51,100,0
225.0917,225.74448,51,93,0
225.0917,225.74448,47,93,0
225.0917,225.74448,44,93,0
225.0917,225.74448,39,93,0
225.75836,226.41115,51,85,0
225.75836,226.41115,46,85,0
225.75836,226.41115,43,85,0
225.75836,226.41115,39,85,0
226.42503,227.0778,56,80,0
226.42503,227.0778,44,80,0
227.0917,227.74448,32,80,0
229.02504,229.61253,60,80,0
229.62503,230.21254,56,80,0
230.22504,230.81253,61,80,0
230.82503,231.41254,49,80,0
232.62503,233.21254,55,80,0
233.22504,233.84346,51,80,0
233.85661,234.50938,56,80,0
234.52328,235.17606,44,80,0
235.85661,236.4441,38,80,0
236.4566,237.04411,50,80,0
236.4566,237.04411,53,80,0
237.05661,237.6441,58,80,0
237.05661,237.6441,50,80,0
237.65662,238.24411,39,80,0
238.2566,238.84412,51,80,0
238.2566,238.84412,58,80,0
238.85661,239.4441,56,80,0
238.85661,239.4441,44,80,0
239.4566,240.04411,34,80,0
240.05661,240.6441,54,80,0
240.05661,240.6441,46,80,0
240.65662,241.24411,46,80,0
240.65662,241.24411,34,80,0
241.2566,241.84412,47,80,0
241.2566,241.84412,35,80,0
241.85661,242.4441,54,80,0
241.85661,242.4441,47,80,0
242.4566,243.04411,45,80,0
242.4566,243.04411,33,80,0
243.05661,243.6441,46,80,0
243.05661,243.6441,34,80,0
243.65662,244.24411,54,80,0
243.65662,244.24411,51,80,0
243.65662,244.24411,46,80,0
244.2566,244.87503,46,80,0
244.2566,244.87503,34,80,0
244.88818,245.54097,51,80,0
244.88818,245.54097,39,80,0
245.55486,246.20764,49,80,0
245.55486,246.20764,37,80,0
246.22153,246.8743,47,80,0
246.22153,246.8743,35,80,0
246.88818,247.4757,32,80,0
247.48819,248.07568,44,80,0
247.48819,248.07568,47,80,0
248.0882,248.67569,47,80,0
248.0882,248.67569,44,80,0
248.68819,249.2757,34,80,0
249.2882,249.87569,46,80,0
249.2882,249.87569,49,80,0
249.88818,250.4757,46,80,0
249.88818,250.4757,49,80,0
250.48819,251.07568,35,80,0
251.0882,251.67569,47,80,0
251.0882,251.67569,51,80,0
251.68819,252.2757,47,80,0
251.68819,252.2757,51,80,0
252.2882,252.87569,37,80,0
252.88818,253.4757,49,80,0
252.88818,253.4757,52,80,0
253.48819,254.07568,49,80,0
253.48819,254.07568,52,80,0
254.0882,254.67569,39,80,0
254.68819,255.2757,57,83,0
254.68819,255.2757,54,83,0
254.68819,255.2757,51,83,0
255.2882,255.87569,57,86,0
255.2882,255.87569,54,86,0
255.2882,255.87569,51,86,0
255.88818,256.47568,40,89,0
256.4882,257.07568,56,93,0
256.4882,257.07568,52,93,0
257.0882,257.6757,59,96,0
257.0882,257.6757,56,96,0
257.0882,257.6757,53,96,0
257.6882,258.2757,59,100,0
257.6882,258.2757,56,100,0
257.6882,258.2757,51,100,0
258.28818,258.90662,51,94,0
258.28818,258.90662,47,94,0
258.28818,258.90662,44,94,0
258.28818,258.90662,39,94,0
258.91977,259.57254,51,87,0
258.91977,259.57254,46,87,0
258.91977,259.57254,43,87,0
258.91977,259.57254,39,87,0
259.58643,260.3208,56,81,0
259.58643,260.3208,44,81,0
260.33643,261.0708,32,80,0
261.66144,262.0531,48,80,0
261.66144,262.0531,44,80,0
262.46143,262.8531,56,80,0
262.46143,262.8531,60,80,0
262.86142,263.2531,58,80,0
262.86142,263.2531,61,80,0
263.66144,264.0531,49,80,0
263.66144,264.0531,46,80,0
264.06143,264.4531,51,80,0
264.06143,264.4531,48,80,0
264.86142,265.2531,63,80,0
264.86142,265.2531,60,80,0
265.26144,265.6531,65,80,0
265.26144,265.6531,62,80,0
265.66144,266.0531,67,80,0
265.66144,266.0531,63,80,0
266.06143,266.4531,56,80,0
266.06143,266.4531,53,80,0
266.46143,266.8531,58,80,0
266.46143,266.8531,55,80,0
266.86142,267.2531,60,80,0
266.86142,267.2531,56,80,0
267.26144,267.6531,62,80,0
267.26144,267.6531,68,80,0
267.66144,268.0531,70,80,0
267.66144,268.0531,67,80,0
267.66144,268.0531,61,80,0
268.06143,268.4531,72,80,0
268.06143,268.4531,60,80,0
268.06143,268.4531,68,80,0
268.46143,268.8531,41,80,0
268.86142,269.2531,43,80,0
269.26144,269.6666,44,83,0
269.67523,270.09488,38,87,0
270.1038,270.55573,39,91,0
270.56534,271.01727,51,94,0
271.4884,271.88007,44,80,0
271.4884,271.88007,32,80,0
272.28842,272.48007,60,80,0
272.28842,272.48007,56,80,0
272.4884,272.68008,56,80,0
272.4884,272.68008,60,80,0
272.68842,273.08008,58,80,0
272.68842,273.08008,61,80,0
273.4884,273.68008,49,80,0
273.4884,273.68008,46,80,0
273.68842,273.88007,49,80,0
273.68842,273.88007,46,80,0
273.88843,274.2801,48,80,0
273.88843,274.2801,51,80,0
274.68842,274.88007,60,80,0
274.68842,274.88007,63,80,0
274.88843,275.08008,60,80,0
274.88843,275.08008,63,80,0
275.0884,275.2801,65,80,0
275.0884,275.2801,62,80,0
275.28842,275.48007,65,80,0
275.28842,275.48007,62,80,0
275.4884,275.88007,67,80,0
275.4884,275.88007,63,80,0
275.88843,276.08008,56,80,0
275.88843,276.08008,53,80,0
276.0884,276.2801,56,80,0
276.0884,276.2801,53,80,0
276.28842,276.48007,58,80,0
276.28842,276.48007,55,80,0
276.4884,276.68008,58,80,0
276.4884,276.68008,55,80,0
276.68842,277.08008,56,80,0
276.68842,277.08008,60,80,0
277.0884,277.2801,68,80,0
277.0884,277.2801,62,80,0
277.28842,277.48007,68,80,0
277.28842,277.48007,62,80,0
277.4884,277.68008,70,80,0
277.4884,277.68008,67,80,0
277.4884,277.68008,61,80,0
277.68842,277.88007,70,80,0
277.68842,277.88007,67,80,0
277.68842,277.88007,61,80,0
277.88843,278.29358,72,80,0
277.88843,278.29358,68,80,0
277.88843,278.29358,60,80,0
278.30222,278.50757,53,80,0
278.51648,278.72186,53,80,0
278.73077,279.16595,51,80,0
279.61966,279.83264,39,80,0
279.8419,280.05484,39,80,0
280.06412,280.4993,44,80,0
280.50854,280.94373,32,80,0
280.953,281.38818,49,80,0
280.953,281.38818,46,80,0
281.39743,281.7891,48,80,0
281.39743,281.7891,45,80,0
282.19745,282.5891,57,80,0
282.19745,282.5891,65,80,0
282.59744,282.9891,58,80,0
282.59744,282.9891,65,80,0
283.39743,283.7891,47,80,0
283.39743,283.7891,44,80,0
283.79745,284.18912,46,80,0
283.79745,284.18912,43,80,0
284.59744,284.9891,55,80,0
284.59744,284.9891,63,80,0
284.99744,285.3891,56,80,0
284.99744,285.3891,63,80,0
285.79745,286.18912,44,80,0
286.19745,286.5891,43,80,0
286.59744,286.9891,31,80,0
286.99744,287.3891,48,80,0
287.39743,287.7891,53,80,0
287.79745,288.18912,41,80,0
288.19745,288.5891,57,80,0
288.59744,288.9891,58,80,0
288.99744,289.3891,46,80,0
289.39743,289.7891,47,80,0
289.79745,290.18912,48,80,0
290.19745,290.5891,36,80,0
290.59744,290.9891,57,80,0
290.99744,291.3891,58,80,0
291.39743,291.7891,46,80,0
291.79745,292.18912,34,80,0
292.19745,292.3891,39,80,0
292.39743,292.4891,49,80,0
292.49744,292.5891,48,80,0
292.59744,292.68912,46,80,0
292.69745,292.7891,44,80,0
292.79745,292.8891,43,80,0
292.89743,292.9891,41,80,0
292.99744,293.0891,39,80,0
293.09744,293.18912,37,80,0
293.19745,293.2891,36,80,0
293.29745,293.3891,34,80,0
293.39743,293.7891,32,80,0
294.19745,294.3891,60,80,0
294.19745,294.3891,56,80,0
294.39743,294.5891,56,80,0
294.39743,294.5891,60,80,0
294.59744,294.9891,58,80,0
294.59744,294.9891,61,80,0
295.39743,295.5891,49,80,0
295.39743,295.5891,46,80,0
295.59744,295.7891,49,80,0
295.59744,295.7891,46,80,0
295.79745,296.18912,48,80,0
295.79745,296.18912,51,80,0
296.59744,296.7891,60,80,0
296.59744,296.7891,63,80,0
296.79745,296.9891,60,80,0
296.79745,296.9891,63,80,0
296.99744,297.18912,65,80,0
296.99744,297.18912,62,80,0
297.19745,297.3891,65,80,0
297.19745,297.3891,62,80,0
297.39743,297.7891,67,80,0
297.39743,297.7891,63,80,0
297.79745,297.9891,56,80,0
297.79745,297.9891,53,80,0
297.99744,298.18912,56,80,0
297.99744,298.18912,53,80,0
298.19745,298.3891,58,80,0
298.19745,298.3891,55,80,0
298.39743,298.5891,58,80,0
298.39743,298.5891,55,80,0
298.59744,299.0171,56,80,0
298.59744,299.0171,60,80,0
299.026,299.23135,68,80,0
299.026,299.23135,62,80,0
299.2403,299.44565,68,80,0
299.2403,299.44565,62,80,0
299.4546,299.64624,70,80,0
299.4546,299.64624,67,80,0
299.4546,299.64624,61,80,0
299.65457,299.84625,70,80,0
299.65457,299.84625,67,80,0
299.65457,299.84625,61,80,0
299.85458,300.25977,72,80,0
299.85458,300.25977,68,80,0
299.85458,300.25977,60,80,0
300.26837,300.47372,53,80,0
300.48267,300.68802,53,80,0
300.69696,301.14886,51,80,0
301.62003,301.8412,39,80,0
301.8508,302.07193,39,80,0
302.08157,302.53348,44,80,0
302.5431,302.99503,32,80,0
303.50464,303.6609,44,80,0
303.6713,303.82755,51,80,0
303.83798,303.99423,56,80,0
304.00464,304.1609,44,80,0
304.1713,304.32755,51,80,0
304.33798,304.49423,56,80,0
304.50464,304.6609,44,80,0
304.6713,304.82755,51,80,0
304.83798,304.99423,56,80,0
305.00464,305.1609,46,80,0
305.1713,305.32755,51,80,0
305.33798,305.49423,58,80,0
305.50464,305.6609,46,80,0
305.6713,305.82755,51,80,0
305.83798,305.99423,58,80,0
306.00464,306.1609,46,80,0
306.1713,306.32755,51,80,0
306.33798,306.49423,58,80,0
306.50464,306.6609,48,80,0
306.6713,306.82755,51,80,0
306.83798,306.99423,60,80,0
307.00464,307.1609,48,80,0
307.1713,307.32755,51,80,0
307.33798,307.49423,60,80,0
307.50464,307.6609,43,80,0
307.6713,307.82755,51,80,0
307.83798,307.99423,55,80,0
308.00464,308.1609,44,80,0
308.1713,308.32755,51,80,0
308.33798,308.49423,56,80,0
308.50464,308.6609,39,80,0
308.6713,308.82755,51,80,0
308.83798,308.99423,51,80,0
309.00464,309.1609,42,80,0
309.1713,309.32755,51,80,0
309.33798,309.49423,54,80,0
309.50464,309.6609,41,80,0
309.6713,309.82755,53,80,0
309.83798,309.99423,56,80,0
310.00464,310.1609,53,80,0
310.1713,310.32755,56,80,0
310.49942,310.65567,61,80,0
310.50464,310.6609,51,80,0
310.6713,310.82755,56,80,0
310.83798,310.99423,60,80,0
311.00464,311.1609,50,80,0
311.1713,311.32755,53,80,0
311.33798,311.49423,58,80,0
311.50464,311.6609,49,80,0
311.6713,311.82755,51,80,0
311.83798,311.99423,58,80,0
312.00464,312.1609,48,80,0
312.1713,312.32755,51,80,0
312.33798,312.49423,56,80,0
312.50464,312.6609,41,80,0
312.6713,312.82755,53,80,0
312.83798,312.99423,56,80,0
313.00464,313.1609,43,80,0
313.1713,313.32755,55,80,0
313.33798,313.49423,58,80,0
313.50464,313.6609,44,80,0
313.6713,313.82755,56,80,0
313.83798,313.99423,60,80,0
314.00464,314.1609,39,80,0
314.1713,314.32755,51,80,0
314.33798,314.49423,51,80,0
314.50464,314.6609,51,80,0
314.6713,314.82755,53,80,0
314.83798,314.99423,51,80,0
315.00464,315.1609,49,80,0
315.1713,315.32755,48,80,0
315.33798,315.49423,46,80,0
315.50464,315.61923,44,80,0
315.62964,315.74423,51,80,0
315.75464,315.86923,56,80,0
315.87964,315.99423,51,80,0
316.00464,316.11923,48,80,0
316.12964,316.24423,51,80,0
316.25464,316.36923,56,80,0
316.37964,316.49423,51,80,0
316.50464,316.61923,48,80,0
316.62964,316.74423,51,80,0
316.75464,316.86923,56,80,0
316.87964,316.99423,51,80,0
317.00464,317.11923,46,80,0
317.12964,317.24423,51,80,0
317.25464,317.36923,55,80,0
317.37964,317.49423,51,80,0
317.50464,317.61923,49,80,0
317.62964,317.74423,51,80,0
317.75464,317.86923,58,80,0
317.87964,317.99423,51,80,0
318.00464,318.11923,49,80,0
318.12964,318.24423,51,80,0
318.25464,318.36923,58,80,0
318.37964,318.49423,51,80,0
318.50464,318.61923,48,80,0
318.62964,318.74423,51,80,0
318.75464,318.86923,56,80,0
318.87964,318.99423,51,80,0
319.00464,319.11923,48,80,0
319.12964,319.24423,51,80,0
319.25464,319.36923,56,80,0
319.37964,319.49423,51,80,0
319.50464,319.61923,43,80,0
319.62964,319.74423,51,80,0
319.75464,319.86923,55,80,0
319.87964,319.99423,51,80,0
320.00464,320.11923,44,80,0
320.12964,320.24423,51,80,0
320.25464,320.36923,56,80,0
320.37964,320.49423,51,80,0
320.50464,320.61923,39,80,0
320.62964,320.74423,51,80,0
320.75464,320.86923,55,80,0
320.87964,320.99423,51,80,0
321.00464,321.11923,42,80,0
321.12964,321.24423,51,80,0
321.25464,321.36923,54,80,0
321.37964,321.49423,51,80,0
321.50464,321.61923,41,80,0
321.62964,321.74423,53,80,0
321.75464,321.86923,56,80,0
321.87964,321.99423,60,80,0
322.00464,322.11923,53,80,0
322.12964,322.24423,56,80,0
322.25464,322.36923,61,80,0
322.37964,322.49423,56,80,0
322.50464,322.61923,51,80,0
322.62964,322.74423,56,80,0
322.75464,322.86923,60,80,0
322.87964,322.99423,56,80,0
323.00464,323.11923,50,80,0
323.12964,323.24423,53,80,0
323.25464,323.36923,58,80,0
323.37964,323.49423,53,80,0
323.50464,323.61923,49,80,0
323.62964,323.74423,51,80,0
323.75464,323.86923,58,80,0
323.87964,323.99423,51,80,0
324.00464,324.11923,48,80,0
324.12964,324.24423,51,80,0
324.25464,324.36923,56,80,0
324.37964,324.49423,51,80,0
324.50464,324.61923,39,80,0
324.62964,324.74423,48,80,0
324.75464,324.86923,51,80,0
324.87964,324.99423,56,80,0
325.00464,325.11923,39,80,0
325.12964,325.24423,48,80,0
325.25464,325.36923,51,80,0
325.37964,325.49423,56,80,0
325.50464,325.61923,39,80,0
325.62964,325.74423,49,80,0
325.75464,325.86923,51,80,0
325.87964,325.99423,55,80,0
326.00464,326.11923,44,80,0
326.12964,326.24423,48,80,0
326.25464,326.36923,51,80,0
326.37964,326.49423,56,80,0
326.50464,326.99423,44,80,0
327.50464,327.61923,57,80,0
327.62964,327.74423,65,80,0
327.75464,327.86923,60,80,0
327.87964,327.99423,65,80,0
328.00464,328.11923,55,80,0
328.12964,328.24423,65,80,0
328.25464,328.36923,58,80,0
328.37964,328.49423,65,80,0
328.50464,328.61923,57,80,0
328.62964,328.74423,65,80,0
328.75464,328.86923,60,80,0
328.87964,328.99423,65,80,0
329.00464,329.11923,58,80,0
329.12964,329.24423,65,80,0
329.25464,329.36923,61,80,0
329.37964,329.49423,65,80,0
329.50464,329.99423,46,80,0
330.50464,330.61923,55,80,0
330.62964,330.74423,63,80,0
330.75464,330.86923,58,80,0
330.87964,330.99423,63,80,0
331.00464,331.11923,53,80,0
331.12964,331.24423,63,80,0
331.25464,331.36923,56,80,0
331.37964,331.49423,63,80,0
331.50464,331.61923,55,80,0
331.62964,331.74423,63,80,0
331.75464,331.86923,58,80,0
331.87964,331.99423,63,80,0
332.00464,332.11923,56,80,0
332.12964,332.24423,63,80,0
332.25464,332.36923,60,80,0
332.37964,332.49423,63,80,0
332.50464,332.99423,44,80,0
333.50464,333.74423,48,80,0
333.75464,333.99423,60,81,0
334.00464,334.24423,47,83,0
334.25464,334.49423,59,85,0
334.50464,334.74423,46,86,0
334.75464,334.99423,58,88,0
335.00464,335.24423,44,90,0
335.25464,335.49423,56,92,0
335.50464,335.74423,43,93,0
335.75464,335.99423,55,95,0
336.00464,336.24423,41,97,0
336.25464,336.49423,53,99,0
336.50464,336.74423,46,80,0
336.75464,336.99423,58,80,0
337.00464,337.24423,46,80,0
337.25464,337.49423,58,80,0
337.50464,337.74423,47,80,0
337.75464,337.99423,59,80,0
338.00464,338.24423,48,80,0
338.25464,338.49423,60,80,0
338.50464,338.74423,44,80,0
338.75464,338.99423,56,80,0
339.00464,339.24423,45,80,0
339.25464,339.49423,57,80,0
339.50464,339.74423,46,80,0
339.75464,339.99423,58,80,0
340.00464,340.24423,46,80,0
340.25464,340.49423,58,80,0
340.50464,340.74423,34,80,0
340.75464,340.99423,46,80,0
341.00464,341.25464,39,80,0
341.2655,341.5155,51,80,0
341.52637,341.78775,41,80,0
341.7991,342.06046,53,80,0
342.07184,342.34564,43,80,0
342.35754,342.63135,55,80,0
342.64325,342.7742,44,80,0
342.7861,342.91705,51,80,0
342.929,343.04355,56,80,0
343.054,343.16855,51,80,0
343.179,343.29355,48,80,0
343.304,343.41855,51,80,0
343.429,343.54355,56,80,0
343.554,343.66855,51,80,0
343.679,343.79355,48,80,0
343.804,343.91855,51,80,0
343.929,344.04355,56,80,0
344.054,344.16855,51,80,0
344.179,344.29355,46,80,0
344.304,344.41855,51,80,0
344.429,344.54355,55,80,0
344.554,344.66855,51,80,0
344.679,344.79355,49,80,0
344.804,344.91855,51,80,0
344.929,345.04355,58,80,0
345.054,345.16855,51,80,0
345.179,345.29355,49,80,0
345.304,345.41855,51,80,0
345.429,345.54355,58,80,0
345.554,345.66855,51,80,0
345.679,345.79355,48,80,0
345.804,345.91855,51,80,0
345.929,346.04355,56,80,0
346.054,346.16855,51,80,0
346.179,346.29355,48,80,0
346.304,346.41855,51,80,0
346.429,346.54355,56,80,0
346.554,346.66855,51,80,0
346.679,346.79355,43,80,0
346.804,346.91855,51,80,0
346.929,347.04355,55,80,0
347.054,347.16855,51,80,0
347.179,347.29355,44,80,0
347.304,347.41855,51,80,0
347.429,347.54355,56,80,0
347.554,347.66855,51,80,0
347.679,347.79355,39,80,0
347.804,347.91855,51,80,0
347.929,348.04355,55,80,0
348.054,348.16855,51,80,0
348.179,348.29355,42,80,0
348.304,348.41855,51,80,0
348.429,348.54355,54,80,0
348.554,348.66855,51,80,0
348.679,348.79355,41,80,0
348.804,348.91855,53,80,0
348.929,349.04355,56,80,0
349.054,349.16855,60,80,0
349.179,349.29355,53,80,0
349.304,349.41855,56,80,0
349.429,349.54355,61,80,0
349.554,349.66855,56,80,0
349.679,349.79355,51,80,0
349.804,349.91855,56,80,0
349.929,350.04355,60,80,0
350.054,350.16855,56,80,0
350.179,350.29355,50,80,0
350.304,350.41855,53,80,0
350.429,350.54355,58,80,0
350.554,350.66855,53,80,0
350.679,350.79355,49,80,0
350.804,350.91855,51,80,0
350.929,351.04355,58,80,0
351.054,351.16855,51,80,0
351.179,351.29852,48,80,0
351.30942,351.429,51,80,0
351.43985,351.55942,56,80,0
351.57028,351.68985,51,80,0
351.7007,351.82028,39,80,0
351.83115,351.9507,48,80,0
351.96158,352.08115,51,80,0
352.092,352.21158,56,80,0
352.22244,352.34744,39,80,0
352.35883,352.48383,48,80,0
352.49518,352.62018,51,80,0
352.63153,352.75653,56,80,0
352.7679,352.89642,39,80,0
352.90808,353.0366,49,80,0
353.04828,353.1768,51,80,0
353.18848,353.31696,55,80,0
353.32864,353.89355,56,80,0
353.32864,353.89355,51,80,0
353.32864,353.89355,48,80,0
353.32864,353.89355,44,80,0
355.64764,356.22363,51,80,0
355.64764,356.22363,39,80,0
356.2359,356.81186,56,80,0
356.2359,356.81186,44,80,0
357.41235,357.98834,51,80,0
357.41235,357.98834,39,80,0
358.0006,358.57657,46,80,0
358.0006,358.57657,58,80,0
359.17706,359.75305,51,80,0
359.17706,359.75305,39,80,0
359.7653,360.34128,43,80,0
359.7653,360.34128,55,80,0
360.94177,361.51776,51,80,0
360.94177,361.51776,39,80,0
361.53,362.106,56,80,0
361.53,362.106,44,80,0
362.70648,363.28247,51,80,0
362.70648,363.28247,39,80,0
363.2947,363.8707,56,80,0
363.2947,363.8707,44,80,0
364.4712,365.04715,51,80,0
364.4712,365.04715,39,80,0
365.05942,365.6354,46,80,0
365.05942,365.6354,58,80,0
366.2359,366.81186,51,80,0
366.2359,366.81186,39,80,0
366.82413,367.40012,43,80,0
366.82413,367.40012,55,80,0
368.00058,368.57657,51,80,0
368.58884,369.1648,56,80,0
369.77707,370.36456,39,70,0
370.37708,370.96457,43,69,0
371.60205,372.21405,51,67,0
372.22705,372.83905,56,66,0
373.47705,374.08905,39,65,0
374.10205,374.71405,43,65,0
376.00366,377.29474,39,65,0
375.36536,377.29474,44,65,0
376.64197,377.9614,36,65,0
377.30862,377.9614,44,65,0
377.30862,378.95447,39,65,0
377.97528,378.95447,44,65,0
378.97528,383.95447,32,65,0
377.97528,383.95447,36,65,0
378.97528,383.95447,44,65,0
