start_time,end_time,note_value,velocity,instrument_program_number
0.0,0.09583333,75,80,0
0.1,0.19583334,72,80,0
0.2,0.29583332,77,80,0
0.3,0.39583334,69,80,0
0.4,0.49583334,73,80,0
0.5,0.59583336,70,80,0
0.6,0.6958333,75,80,0
0.7,0.79583335,67,80,0
0.8,0.8958333,72,80,0
0.9,0.99583334,68,80,0
1.0,1.0958333,73,80,0
1.1,1.1958333,65,80,0
1.2,1.2958333,70,80,0
1.3,1.3958334,67,80,0
1.4,1.4958333,72,80,0
1.5,1.5958333,64,80,0
1.6,1.6958333,68,80,0
1.7,1.7958333,65,80,0
1.8,1.8958334,70,80,0
1.9,1.9958333,62,80,0
2.0,2.0958333,67,80,0
2.1,2.1958334,63,80,0
2.2,2.2958333,62,80,0
2.3,2.3958333,63,80,0
2.4,2.4958334,67,80,0
2.5,2.5958333,63,80,0
2.6,2.6958334,68,80,0
2.7,2.7958333,63,80,0
2.8,2.8958333,70,80,0
2.9,2.9958334,63,80,0
3.0,3.0958333,72,80,0
3.1,3.1958334,63,80,0
3.2,3.2958333,73,80,0
3.3,3.3958333,63,80,0
3.4,3.4958334,74,80,0
3.5,3.5958333,63,80,0
3.6,3.6958334,75,80,0
3.7,3.7958333,63,80,0
3.8,3.8958333,67,80,0
3.8,3.8958333,75,80,0
3.9,3.9958334,63,80,0
4.0,4.0958333,68,80,0
4.0,4.0958333,75,80,0
4.1,4.195833,63,80,0
4.2,4.295833,75,80,0
4.2,4.295833,72,80,0
4.2,4.295833,68,80,0
4.3,4.3958335,63,80,0
4.4,4.4958334,75,80,0
4.4,4.4958334,70,80,0
4.4,4.4958334,67,80,0
4.5,4.5958333,63,80,0
4.6,4.695833,75,80,0
4.6,4.695833,70,80,0
4.6,4.695833,67,80,0
4.7,4.795833,63,80,0
4.8,4.8958335,72,80,0
4.9,4.9958334,75,80,0
5.0,5.0958333,69,80,0
5.1,5.195833,77,80,0
5.2,5.295833,70,80,0
5.3,5.3958335,73,80,0
5.4,5.4958334,67,80,0
5.5,5.5958333,75,80,0
5.6,5.695833,68,80,0
5.7,5.795833,72,80,0
5.8,5.8958335,65,80,0
5.9,5.9958334,73,80,0
6.0,6.0958333,67,80,0
6.1,6.195833,70,80,0
6.2,6.295833,64,80,0
6.3,6.3958335,72,80,0
6.4,6.4958334,65,80,0
6.5,6.5958333,68,80,0
6.6,6.695833,62,80,0
6.7,6.795833,70,80,0
6.8,6.9958334,63,80,0
7.2,7.3958335,73,80,0
7.2,7.3958335,85,80,0
7.4,7.5958333,84,80,0
7.4,7.5958333,72,80,0
7.6,7.795833,82,80,0
7.6,7.795833,70,80,0
7.8,7.9958334,80,80,0
7.8,7.9958334,68,80,0
8.0,8.195833,79,80,0
8.0,8.195833,67,80,0
8.2,8.395833,77,80,0
8.2,8.395833,65,80,0
8.4,8.595834,75,80,0
8.6,8.795834,75,80,0
8.6,8.795834,72,80,0
8.6,8.795834,68,80,0
8.8,8.995833,75,80,0
8.8,8.995833,73,80,0
8.8,8.995833,70,80,0
9.0,9.195833,75,80,0
9.0,9.195833,70,80,0
9.0,9.195833,67,80,0
9.2,9.395833,75,80,0
9.2,9.395833,72,80,0
9.2,9.395833,68,80,0
9.6,9.695833,60,80,0
9.7,9.795834,72,80,0
9.8,9.895833,64,80,0
9.9,9.995833,72,80,0
10.0,10.095834,67,80,0
10.1,10.195833,72,80,0
10.2,10.295834,71,80,0
10.3,10.395833,72,80,0
10.4,10.495833,70,80,0
10.5,10.595834,72,80,0
10.6,10.695833,67,80,0
10.7,10.795834,72,80,0
10.8,10.895833,68,80,0
10.9,10.995833,72,80,0
11.0,11.095834,65,80,0
11.1,11.195833,72,80,0
11.2,11.395833,80,80,0
11.4,11.595834,77,80,0
11.6,11.795834,74,80,0
11.8,11.995833,70,80,0
12.0,12.195833,72,80,0
12.2,12.395833,74,80,0
12.4,12.595834,75,80,0
12.6,12.795834,79,80,0
12.8,12.895833,63,80,0
12.9,12.995833,75,80,0
13.0,13.095834,67,80,0
13.1,13.195833,75,80,0
13.2,13.295834,70,80,0
13.3,13.395833,75,80,0
13.4,13.495833,74,80,0
13.5,13.595834,75,80,0
13.6,13.695833,73,80,0
13.7,13.795834,75,80,0
13.8,13.895833,70,80,0
13.9,13.995833,75,80,0
14.0,14.095834,72,80,0
14.1,14.195833,75,80,0
14.2,14.295834,72,80,0
14.2,14.295834,63,80,0
14.3,14.395833,75,80,0
14.4,14.495833,73,80,0
14.4,14.495833,65,80,0
14.5,14.595834,75,80,0
14.6,14.695833,72,80,0
14.6,14.695833,68,80,0
14.7,14.795834,75,80,0
14.8,14.895833,72,80,0
14.8,14.895833,65,80,0
14.9,14.995833,75,80,0
15.0,15.095834,70,80,0
15.0,15.095834,65,80,0
15.1,15.195833,73,80,0
15.2,15.295834,68,80,0
15.2,15.295834,63,80,0
15.3,15.395833,72,80,0
15.4,15.495833,67,80,0
15.4,15.495833,61,80,0
15.5,15.595834,70,80,0
15.6,15.795834,68,80,0
15.6,15.795834,60,80,0
16.0,16.195833,82,80,0
16.0,16.195833,70,80,0
16.2,16.395834,79,80,0
16.2,16.395834,67,80,0
16.4,16.595833,76,80,0
16.4,16.595833,64,80,0
16.6,16.795834,72,80,0
16.8,16.995832,74,80,0
16.8,16.995832,62,80,0
17.0,17.195833,76,80,0
17.0,17.195833,64,80,0
17.2,17.395834,77,80,0
17.2,17.395834,65,80,0
17.4,17.595833,80,80,0
17.4,17.595833,68,80,0
17.6,17.695833,72,80,0
17.7,17.795834,82,80,0
17.8,17.895834,74,80,0
17.9,17.995832,82,80,0
18.0,18.095833,77,80,0
18.1,18.195833,82,80,0
18.2,18.295834,81,80,0
18.3,18.395834,82,80,0
18.4,18.495832,80,80,0
18.5,18.595833,82,80,0
18.6,18.695833,77,80,0
18.7,18.795834,82,80,0
18.8,18.895834,79,80,0
18.9,18.995832,82,80,0
19.0,19.095833,75,80,0
19.1,19.195833,82,80,0
19.2,19.395834,73,80,0
19.2,19.395834,85,80,0
19.4,19.595833,70,83,0
19.4,19.595833,82,83,0
19.6,19.795834,79,86,0
19.6,19.795834,67,86,0
19.8,19.995832,75,89,0
19.8,19.995832,63,89,0
20.0,20.195833,77,92,0
20.0,20.195833,65,92,0
20.2,20.395834,79,95,0
20.2,20.395834,67,95,0
20.4,20.595833,80,98,0
20.4,20.595833,68,98,0
20.6,20.695833,75,110,0
20.6,20.695833,80,110,0
20.6,20.695833,84,110,0
20.7,20.795834,87,110,0
20.8,20.895834,75,110,0
20.8,20.895834,80,110,0
20.8,20.895834,84,110,0
20.9,20.995832,87,110,0
21.0,21.095833,75,110,0
21.0,21.095833,80,110,0
21.0,21.095833,84,110,0
21.1,21.195833,87,110,0
21.2,21.295834,75,110,0
21.2,21.295834,84,110,0
21.3,21.395834,87,110,0
21.4,21.495832,73,110,0
21.4,21.495832,82,110,0
21.5,21.595833,85,110,0
21.6,21.699139,72,110,0
21.6,21.699139,80,110,0
21.703447,21.802586,84,110,0
21.806896,21.909575,79,110,0
21.806896,21.909575,70,110,0
21.91404,22.016718,82,110,0
22.021181,22.231003,80,110,0
22.021181,22.231003,68,110,0
23.864038,24.059872,67,110,0
23.864038,24.059872,70,110,0
23.864038,24.059872,75,110,0
23.864038,24.059872,79,110,0
24.06404,24.159872,79,80,0
24.164038,24.259872,75,80,0
24.264038,24.35987,80,80,0
24.364038,24.459871,72,80,0
24.464039,24.559872,77,80,0
24.56404,24.659872,74,80,0
24.664038,24.759872,79,80,0
24.764038,24.85987,71,80,0
24.864038,24.959871,75,80,0
24.964039,25.059872,72,80,0
25.06404,25.159872,77,80,0
25.164038,25.259872,69,80,0
25.264038,25.459871,74,80,0
25.464039,25.659872,82,110,0
25.464039,25.659872,77,110,0
25.464039,25.659872,74,110,0
25.464039,25.659872,70,110,0
25.864038,26.059872,82,80,0
25.864038,26.059872,70,80,0
26.264038,26.459871,74,80,0
26.264038,26.459871,86,80,0
26.664038,26.85987,77,80,0
26.664038,26.85987,89,80,0
26.864038,27.059872,74,80,0
26.864038,27.059872,86,80,0
27.06404,27.259872,82,80,0
27.06404,27.259872,70,80,0
27.464039,27.659872,70,80,0
27.464039,27.659872,82,80,0
27.864038,28.059872,74,80,0
27.864038,28.059872,86,80,0
28.264038,28.459871,77,80,0
28.264038,28.459871,89,80,0
28.464039,28.659872,74,80,0
28.464039,28.659872,86,80,0
28.664038,28.85987,82,80,0
28.664038,28.85987,70,80,0
28.864038,28.959871,80,80,0
28.964039,29.059872,77,80,0
29.06404,29.159872,82,80,0
29.164038,29.259872,74,80,0
29.264038,29.35987,80,80,0
29.364038,29.459871,77,80,0
29.464039,29.559872,82,80,0
29.56404,29.659872,74,80,0
29.664038,29.759872,80,80,0
29.764038,29.85987,77,80,0
29.864038,29.959871,82,80,0
29.964039,30.059872,74,80,0
30.06404,30.159872,80,80,0
30.164038,30.259872,77,80,0
30.264038,30.35987,82,80,0
30.364038,30.459871,74,80,0
30.464039,30.559872,80,80,0
30.56404,30.659872,77,80,0
30.664038,30.759872,82,81,0
30.764038,30.85987,74,82,0
30.864038,30.959871,80,82,0
30.964039,31.059872,77,83,0
31.06404,31.159872,82,84,0
31.164038,31.259872,74,84,0
31.264038,31.35987,80,85,0
31.364038,31.459871,77,86,0
31.464039,31.559872,82,87,0
31.56404,31.659872,74,87,0
31.664038,31.759872,80,88,0
31.764038,31.85987,77,89,0
31.864038,31.959871,82,89,0
31.964039,32.05987,74,90,0
32.064037,32.15987,80,91,0
32.16404,32.259872,77,92,0
32.264038,32.35987,82,92,0
32.36404,32.459873,74,93,0
32.46404,32.563175,80,94,0
32.567486,32.666626,77,94,0
32.670937,32.773613,82,95,0
32.778076,32.880756,74,96,0
32.88522,32.991703,80,97,0
32.99633,33.102814,77,97,0
33.10744,33.218018,82,98,0
33.222828,33.333405,74,99,0
33.33821,33.54803,79,99,0
33.552498,33.655174,75,80,0
33.65964,33.762318,74,80,0
33.76678,33.86946,72,80,0
33.873924,33.976604,70,80,0
33.981068,34.083748,68,80,0
34.08821,34.190887,67,80,0
34.195354,34.29803,65,80,0
34.302498,34.405174,63,80,0
34.409637,34.512318,62,80,0
34.51678,34.61946,60,80,0
34.623924,34.726604,58,80,0
34.731068,34.833744,56,80,0
34.83821,34.940887,55,80,0
34.945354,35.04803,53,80,0
35.052494,35.262318,51,80,0
35.26678,35.36946,79,80,0
35.373924,35.4766,77,80,0
35.481068,35.54803,75,80,0
35.552494,35.61946,74,80,0
35.623924,35.690887,72,80,0
35.69535,35.762318,70,80,0
35.76678,35.833744,68,80,0
35.838207,35.905174,67,80,0
35.909637,36.012318,65,80,0
36.01678,36.119457,63,80,0
36.123924,36.2266,62,80,0
36.231064,36.333744,60,80,0
36.338207,36.440887,58,80,0
36.44535,36.54803,56,80,0
36.552494,36.655174,55,80,0
36.659637,36.762314,53,80,0
36.76678,36.9766,51,80,0
36.981064,37.083744,82,80,0
37.088207,37.190887,80,80,0
37.19535,37.244457,79,80,0
37.24892,37.29803,77,80,0
37.302494,37.3516,75,80,0
37.356064,37.40517,74,80,0
37.409637,37.458744,72,80,0
37.463207,37.512314,70,80,0
37.516777,37.565887,68,80,0
37.57035,37.619457,67,80,0
37.62392,37.7266,65,80,0
37.731064,37.833744,63,80,0
37.838207,37.940884,62,80,0
37.94535,38.048027,60,80,0
38.052494,38.15517,58,80,0
38.159634,38.262314,56,80,0
38.266777,38.369457,55,80,0
38.37392,38.4766,53,80,0
38.481064,38.690884,51,80,0
38.909634,39.012314,67,80,0
39.016777,39.119457,63,80,0
39.12392,39.226597,68,80,0
39.231064,39.33374,65,80,0
39.766777,39.869453,70,80,0
39.87392,39.976597,67,80,0
39.981064,40.08374,72,80,0
40.088203,40.190884,68,80,0
40.623917,40.726597,73,80,0
40.73106,40.83374,70,80,0
40.838203,40.940884,74,80,0
40.945347,41.048027,71,80,0
41.05249,41.155167,75,80,0
41.159634,41.26231,72,80,0
41.266773,41.369453,74,80,0
41.373917,41.476597,71,80,0
41.48106,41.58374,75,80,0
41.588203,41.69088,72,80,0
41.695347,41.798023,74,80,0
41.80249,41.905167,71,80,0
41.90963,42.01231,75,80,0
42.016773,42.119453,72,80,0
42.123917,42.226597,74,80,0
42.23106,42.333736,71,80,0
42.338203,42.44088,75,80,0
42.445347,42.548023,72,80,0
42.552486,42.655167,77,80,0
42.65963,42.76231,68,80,0
42.766773,42.869453,73,80,0
42.873917,42.976593,70,80,0
42.98106,43.083736,75,80,0
43.088203,43.19088,67,80,0
43.195343,43.298023,72,80,0
43.302486,43.405167,68,80,0
43.40963,43.51231,73,80,0
43.516773,43.61945,65,80,0
43.623917,43.726593,70,80,0
43.73106,43.833736,67,80,0
43.8382,43.94088,72,80,0
43.945343,44.048023,64,80,0
44.052486,44.155167,68,80,0
44.15963,44.262306,65,80,0
44.266773,44.36945,70,80,0
44.373917,44.476593,62,80,0
44.481056,44.57689,67,80,0
44.58106,44.67689,63,80,0
44.681057,44.77689,62,80,0
44.78106,44.876892,63,80,0
44.881058,44.97689,67,80,0
44.981056,45.07689,63,80,0
45.08106,45.17689,68,80,0
45.181057,45.27689,63,80,0
45.28106,45.376892,70,80,0
45.381058,45.47689,63,80,0
45.481056,45.57689,72,80,0
45.58106,45.67689,63,80,0
45.681057,45.77689,73,80,0
45.78106,45.876892,63,80,0
45.881058,45.97689,74,80,0
45.981056,46.07689,63,80,0
46.08106,46.17689,75,80,0
46.181057,46.27689,63,80,0
46.28106,46.376892,67,80,0
46.28106,46.376892,75,80,0
46.381058,46.47689,63,80,0
46.481056,46.57689,68,80,0
46.481056,46.57689,75,80,0
46.58106,46.67689,63,80,0
46.681057,46.77689,75,80,0
46.681057,46.77689,72,80,0
46.681057,46.77689,68,80,0
46.78106,46.876892,63,80,0
46.881058,46.97689,75,80,0
46.881058,46.97689,70,80,0
46.881058,46.97689,67,80,0
46.981056,47.07689,63,80,0
47.08106,47.17689,75,80,0
47.08106,47.17689,70,80,0
47.08106,47.17689,67,80,0
47.181057,47.27689,63,80,0
47.28106,47.376892,72,80,0
47.381058,47.47689,75,80,0
47.481056,47.57689,69,80,0
47.58106,47.67689,77,80,0
47.681057,47.77689,70,80,0
47.78106,47.876892,73,80,0
47.881058,47.97689,67,80,0
47.981056,48.07689,75,80,0
48.08106,48.17689,68,80,0
48.181057,48.27689,72,80,0
48.28106,48.376892,65,80,0
48.381058,48.47689,73,80,0
48.481056,48.57689,67,80,0
48.58106,48.67689,70,80,0
48.681057,48.77689,64,80,0
48.78106,48.876892,72,80,0
48.881058,48.97689,65,80,0
48.981056,49.07689,68,80,0
49.08106,49.17689,62,80,0
49.181057,49.27689,70,80,0
49.28106,49.47689,63,80,0
49.681057,49.876892,73,80,0
49.681057,49.876892,85,80,0
49.881058,50.07689,84,80,0
49.881058,50.07689,72,80,0
50.08106,50.27689,82,80,0
50.08106,50.27689,70,80,0
50.28106,50.47689,80,80,0
50.28106,50.47689,68,80,0
50.481056,50.67689,79,80,0
50.481056,50.67689,67,80,0
50.681057,50.876892,77,80,0
50.681057,50.876892,65,80,0
50.881058,51.07689,75,80,0
51.08106,51.27689,75,80,0
51.08106,51.27689,72,80,0
51.08106,51.27689,68,80,0
51.28106,51.47689,75,80,0
51.28106,51.47689,73,80,0
51.28106,51.47689,70,80,0
51.481056,51.67689,75,80,0
51.481056,51.67689,70,80,0
51.481056,51.67689,67,80,0
51.681057,51.876892,75,80,0
51.681057,51.876892,72,80,0
51.681057,51.876892,68,80,0
52.08106,52.17689,60,80,0
52.181057,52.27689,72,80,0
52.28106,52.376892,64,80,0
52.381058,52.47689,72,80,0
52.481056,52.57689,67,80,0
52.58106,52.67689,72,80,0
52.681057,52.77689,71,80,0
52.78106,52.876892,72,80,0
52.881058,52.97689,70,80,0
52.981056,53.07689,72,80,0
53.08106,53.17689,67,80,0
53.181057,53.27689,72,80,0
53.28106,53.376892,68,80,0
53.381058,53.47689,72,80,0
53.481056,53.57689,65,80,0
53.58106,53.67689,72,80,0
53.681057,53.876892,80,80,0
53.881058,54.07689,77,80,0
54.08106,54.27689,74,80,0
54.28106,54.47689,70,80,0
54.481056,54.67689,72,80,0
54.681057,54.876892,74,80,0
54.881058,55.07689,75,80,0
55.08106,55.27689,79,80,0
55.28106,55.376892,63,80,0
55.381058,55.47689,75,80,0
55.481056,55.57689,67,80,0
55.58106,55.67689,75,80,0
55.681057,55.77689,70,80,0
55.78106,55.876892,75,80,0
55.881058,55.97689,74,80,0
55.981056,56.07689,75,80,0
56.08106,56.17689,73,80,0
56.181057,56.27689,75,80,0
56.28106,56.376892,70,80,0
56.381058,56.47689,75,80,0
56.481056,56.57689,72,80,0
56.58106,56.67689,75,80,0
56.681057,56.77689,72,80,0
56.681057,56.77689,63,80,0
56.78106,56.876892,75,80,0
56.881058,56.97689,73,80,0
56.881058,56.97689,65,80,0
56.981056,57.07689,75,80,0
57.08106,57.17689,72,80,0
57.08106,57.17689,68,80,0
57.181057,57.27689,75,80,0
57.28106,57.380196,72,80,0
57.28106,57.380196,65,80,0
57.384506,57.483643,75,80,0
57.487953,57.587093,70,80,0
57.487953,57.587093,65,80,0
57.591404,57.69054,73,80,0
57.69485,57.797527,68,80,0
57.69485,57.797527,63,80,0
57.801994,57.90467,72,80,0
57.909138,58.011814,67,80,0
57.909138,58.011814,61,80,0
58.016277,58.118958,70,80,0
58.12342,58.333244,68,80,0
58.12342,58.333244,60,80,0
58.551994,58.747826,82,80,0
58.551994,58.747826,70,80,0
58.75199,58.947826,79,80,0
58.75199,58.947826,67,80,0
58.951992,59.147827,76,80,0
58.951992,59.147827,64,80,0
59.151993,59.347824,72,80,0
59.351994,59.547825,74,80,0
59.351994,59.547825,62,80,0
59.551994,59.747826,76,80,0
59.551994,59.747826,64,80,0
59.75199,59.947826,77,80,0
59.75199,59.947826,65,80,0
59.951992,60.147827,80,80,0
59.951992,60.147827,68,80,0
60.151993,60.247826,72,80,0
60.25199,60.347824,82,80,0
60.351994,60.447826,74,80,0
60.451992,60.547825,82,80,0
60.551994,60.647827,77,80,0
60.651993,60.747826,82,80,0
60.75199,60.847824,81,80,0
60.851994,60.947826,82,80,0
60.951992,61.047825,80,80,0
61.051994,61.147827,82,80,0
61.151993,61.247826,77,80,0
61.25199,61.347824,82,80,0
61.351994,61.447826,79,80,0
61.451992,61.547825,82,80,0
61.551994,61.647827,75,80,0
61.651993,61.747826,82,80,0
61.75199,61.947826,73,80,0
61.75199,61.947826,85,80,0
61.951992,62.147827,70,83,0
61.951992,62.147827,82,83,0
62.151993,62.347824,79,86,0
62.151993,62.347824,67,86,0
62.351994,62.547825,75,89,0
62.351994,62.547825,63,89,0
62.551994,62.747826,77,92,0
62.551994,62.747826,65,92,0
62.75199,62.947826,79,95,0
62.75199,62.947826,67,95,0
62.951992,63.147827,80,98,0
62.951992,63.147827,68,98,0
63.151993,63.247826,75,110,0
63.151993,63.247826,80,110,0
63.151993,63.247826,84,110,0
63.25199,63.347824,87,110,0
63.351994,63.447826,75,110,0
63.351994,63.447826,80,110,0
63.351994,63.447826,84,110,0
63.451992,63.547825,87,110,0
63.551994,63.647827,75,110,0
63.551994,63.647827,80,110,0
63.551994,63.647827,84,110,0
63.651993,63.747826,87,110,0
63.75199,63.847824,75,110,0
63.75199,63.847824,84,110,0
63.851994,63.947826,87,110,0
63.951992,64.04783,73,110,0
63.951992,64.04783,82,110,0
64.051994,64.14783,85,110,0
64.15199,64.247826,72,110,0
64.15199,64.247826,80,110,0
64.25199,64.347824,84,110,0
64.35199,64.44782,79,110,0
64.35199,64.44782,70,110,0
64.451996,64.54783,82,110,0
64.551994,64.747826,80,110,0
64.551994,64.747826,68,110,0
64.951996,65.04783,60,80,0
65.051994,65.14783,55,81,0
65.15199,65.247826,60,82,0
65.25199,65.347824,55,83,0
65.35199,65.44782,60,84,0
65.451996,65.54783,55,85,0
65.551994,65.64783,62,86,0
65.65199,65.747826,59,87,0
65.75199,65.847824,63,88,0
65.85199,65.94782,60,89,0
65.951996,66.04783,65,90,0
66.051994,66.14783,62,91,0
66.15199,66.247826,67,92,0
66.25199,66.347824,63,93,0
66.35199,66.44782,71,94,0
66.451996,66.54783,67,96,0
66.551994,66.64783,72,97,0
66.65199,66.747826,69,98,0
66.75199,66.847824,74,99,0
66.85199,66.94782,71,100,0
66.951996,67.04783,75,101,0
67.051994,67.14783,72,102,0
67.15199,67.247826,77,103,0
67.25199,67.347824,74,104,0
67.35199,67.54783,79,105,0
67.35199,67.54783,75,105,0
67.551994,67.747826,83,107,0
67.551994,67.747826,74,107,0
67.551994,67.747826,71,107,0
67.75199,67.94782,84,109,0
67.75199,67.94782,75,109,0
67.75199,67.94782,72,109,0
68.15199,68.247826,60,82,0
68.25199,68.347824,55,83,0
68.35199,68.44782,60,84,0
68.451996,68.54783,55,85,0
68.551994,68.64783,60,86,0
68.65199,68.747826,55,87,0
68.75199,68.847824,62,88,0
68.85199,68.94782,59,89,0
68.951996,69.04783,63,90,0
69.051994,69.14783,60,91,0
69.15199,69.247826,65,92,0
69.25199,69.347824,62,93,0
69.35199,69.44782,67,94,0
69.451996,69.54783,63,95,0
69.551994,69.64783,71,96,0
69.65199,69.747826,67,97,0
69.75199,69.847824,72,98,0
69.85199,69.94782,69,99,0
69.951996,70.04783,74,100,0
70.051994,70.14783,71,101,0
70.15199,70.247826,75,102,0
70.25199,70.347824,72,103,0
70.35199,70.44782,75,104,0
70.451996,70.54783,72,105,0
70.551994,70.747826,74,106,0
70.551994,70.747826,70,106,0
70.75199,70.94782,78,108,0
70.75199,70.94782,69,108,0
70.75199,70.94782,66,108,0
70.951996,71.14783,79,109,0
70.951996,71.14783,70,109,0
70.951996,71.14783,67,109,0
71.35199,71.44782,60,82,0
71.451996,71.54783,55,83,0
71.551994,71.64783,60,84,0
71.65199,71.747826,55,85,0
71.75199,71.847824,60,86,0
71.85199,71.94782,55,87,0
71.951996,72.04783,62,88,0
72.051994,72.14783,59,89,0
72.15199,72.247826,63,90,0
72.25199,72.347824,60,91,0
72.35199,72.44782,65,92,0
72.451996,72.54783,62,93,0
72.551994,72.64783,67,94,0
72.65199,72.747826,63,95,0
72.75199,72.847824,71,96,0
72.85199,72.94782,67,97,0
72.951996,73.04783,72,98,0
73.051994,73.14783,69,99,0
73.15199,73.247826,74,100,0
73.25199,73.347824,71,101,0
73.35199,73.44782,75,102,0
73.451996,73.54783,72,103,0
73.551994,73.64783,77,104,0
73.65199,73.747826,74,105,0
73.75199,73.94782,79,106,0
73.75199,73.94782,75,106,0
73.951996,74.14783,83,108,0
73.951996,74.14783,74,108,0
73.951996,74.14783,71,108,0
74.15199,74.347824,84,109,0
74.15199,74.347824,75,109,0
74.15199,74.347824,72,109,0
74.551994,74.64783,60,82,0
74.65199,74.747826,55,83,0
74.75199,74.847824,60,84,0
74.85199,74.94782,55,85,0
74.951996,75.04783,60,86,0
75.051994,75.14783,55,87,0
75.15199,75.247826,62,88,0
75.25199,75.347824,59,89,0
75.35199,75.44782,63,90,0
75.451996,75.54783,60,91,0
75.551994,75.64783,65,92,0
75.65199,75.747826,62,93,0
75.75199,75.847824,67,94,0
75.85199,75.94782,63,95,0
75.951996,76.04783,71,96,0
76.051994,76.14783,67,97,0
76.15199,76.247826,72,98,0
76.25199,76.347824,69,99,0
76.35199,76.44782,74,100,0
76.451996,76.54783,71,101,0
76.551994,76.64783,75,102,0
76.65199,76.747826,72,103,0
76.75199,76.847824,75,104,0
76.85199,76.94782,72,105,0
76.951996,77.14783,74,106,0
76.951996,77.14783,70,106,0
77.15199,77.347824,78,108,0
77.15199,77.347824,69,108,0
77.15199,77.347824,66,108,0
77.35199,77.54783,79,109,0
77.35199,77.54783,70,109,0
77.35199,77.54783,67,109,0
77.75199,77.847824,70,80,0
77.85199,77.94782,67,80,0
77.951996,78.04783,70,80,0
78.051994,78.14783,67,80,0
78.15199,78.247826,70,80,0
78.25199,78.347824,67,80,0
78.35199,78.44782,72,80,0
78.451996,78.54783,69,80,0
78.551994,78.64783,74,95,0
78.65199,78.747826,70,93,0
78.75199,78.94782,78,110,0
78.75199,78.94782,69,110,0
78.75199,78.94782,66,110,0
78.951996,79.14783,79,110,0
78.951996,79.14783,74,110,0
78.951996,79.14783,70,110,0
78.951996,79.14783,67,110,0
79.35199,79.44782,70,80,0
79.451996,79.54783,67,80,0
79.551994,79.64783,70,80,0
79.65199,79.747826,67,80,0
79.75199,79.847824,70,80,0
79.85199,79.94782,67,80,0
79.951996,80.04783,70,80,0
80.051994,80.14783,67,80,0
80.15199,80.247826,70,94,0
80.25199,80.347824,67,93,0
80.35199,80.54783,76,110,0
80.35199,80.54783,70,110,0
80.35199,80.54783,67,110,0
80.551994,80.747826,77,110,0
80.551994,80.747826,68,110,0
80.551994,80.747826,65,110,0
80.951996,81.04783,68,80,0
81.051994,81.14783,65,80,0
81.15199,81.247826,68,80,0
81.25199,81.347824,65,80,0
81.35199,81.44782,68,80,0
81.451996,81.54783,65,80,0
81.551994,81.64783,70,80,0
81.65199,81.747826,67,80,0
81.75199,81.847824,72,96,0
81.85199,81.94782,68,97,0
81.951996,82.14783,76,110,0
81.951996,82.14783,70,110,0
81.951996,82.14783,67,110,0
82.15199,82.347824,77,110,0
82.15199,82.347824,68,110,0
82.15199,82.347824,65,110,0
82.551994,82.64783,68,80,0
82.65199,82.747826,65,80,0
82.75199,82.847824,68,80,0
82.85199,82.94782,65,80,0
82.951996,83.04783,68,80,0
83.051994,83.14783,65,80,0
83.15199,83.247826,68,80,0
83.25199,83.347824,65,80,0
83.35199,83.44782,68,98,0
83.451996,83.54783,65,94,0
83.551994,83.747826,74,110,0
83.551994,83.747826,68,110,0
83.551994,83.747826,65,110,0
83.75199,83.94782,75,110,0
83.75199,83.94782,67,110,0
83.75199,83.94782,63,110,0
84.15199,84.247826,67,80,0
84.25199,84.347824,63,80,0
84.35199,84.44782,67,80,0
84.451996,84.54783,63,80,0
84.551994,84.64783,67,80,0
84.65199,84.747826,63,80,0
84.75199,84.847824,68,80,0
84.85199,84.94782,65,80,0
84.951996,85.04783,69,80,0
85.051994,85.14783,66,80,0
85.15199,85.247826,70,80,0
85.25199,85.347824,67,80,0
85.35199,85.44782,71,80,0
85.451996,85.54783,68,80,0
85.551994,85.64783,72,80,0
85.65199,85.747826,69,80,0
85.75199,85.847824,73,80,0
85.85199,85.94782,70,80,0
85.951996,86.04783,74,80,0
86.051994,86.14783,71,80,0
86.15199,86.247826,75,80,0
86.25199,86.347824,72,80,0
86.35199,86.44782,74,80,0
86.451996,86.54783,71,80,0
86.551994,86.64783,75,80,0
86.65199,86.747826,72,80,0
86.75199,86.847824,74,80,0
86.85199,86.94782,71,80,0
86.951996,87.04783,75,80,0
87.051994,87.14783,72,80,0
87.15199,87.247826,74,80,0
87.25199,87.347824,71,80,0
87.35199,87.44782,75,80,0
87.451996,87.54783,72,80,0
87.551994,87.64783,77,80,0
87.65199,87.747826,69,80,0
87.75199,87.847824,73,80,0
87.85199,87.94782,70,80,0
87.951996,88.04783,75,80,0
88.051994,88.14783,67,80,0
88.15199,88.247826,72,80,0
88.25199,88.347824,68,80,0
88.35199,88.44782,73,80,0
88.451996,88.54783,65,80,0
88.551994,88.64783,70,80,0
88.65199,88.747826,67,80,0
88.75199,88.847824,72,80,0
88.85199,88.94782,64,80,0
88.951996,89.04783,68,80,0
89.051994,89.14783,65,80,0
89.15199,89.247826,70,80,0
89.25199,89.347824,62,80,0
89.35199,89.44782,67,80,0
89.451996,89.54783,63,80,0
89.551994,89.64783,62,80,0
89.65199,89.747826,63,80,0
89.75199,89.847824,67,80,0
89.85199,89.94782,63,80,0
89.951996,90.04783,68,80,0
90.051994,90.14783,63,80,0
90.15199,90.247826,70,80,0
90.25199,90.347824,63,80,0
90.35199,90.44782,72,80,0
90.451996,90.54783,63,80,0
90.551994,90.64783,73,80,0
90.65199,90.747826,63,80,0
90.75199,90.847824,74,80,0
90.85199,90.94782,63,80,0
90.951996,91.04783,75,80,0
91.051994,91.14783,63,80,0
91.15199,91.247826,67,80,0
91.15199,91.247826,75,80,0
91.25199,91.347824,63,80,0
91.35199,91.44782,68,80,0
91.35199,91.44782,75,80,0
91.451996,91.54783,63,80,0
91.551994,91.64783,75,80,0
91.551994,91.64783,72,80,0
91.551994,91.64783,68,80,0
91.65199,91.747826,63,80,0
91.75199,91.847824,75,80,0
91.75199,91.847824,70,80,0
91.75199,91.847824,67,80,0
91.85199,91.94782,63,80,0
91.951996,92.04783,75,80,0
91.951996,92.04783,70,80,0
91.951996,92.04783,67,80,0
92.051994,92.14783,63,80,0
92.15199,92.247826,72,80,0
92.25199,92.347824,75,80,0
92.35199,92.44782,69,80,0
92.451996,92.54783,77,80,0
92.551994,92.64783,70,80,0
92.65199,92.747826,73,80,0
92.75199,92.847824,67,80,0
92.85199,92.94782,75,80,0
92.951996,93.04783,68,80,0
93.051994,93.14783,72,80,0
93.15199,93.247826,65,80,0
93.25199,93.347824,73,80,0
93.35199,93.44782,67,80,0
93.451996,93.54783,70,80,0
93.551994,93.64783,64,80,0
93.65199,93.747826,72,80,0
93.75199,93.847824,65,80,0
93.85199,93.94782,68,80,0
93.951996,94.04783,62,80,0
94.051994,94.14783,70,80,0
94.15199,94.347824,63,80,0
94.551994,94.747826,73,80,0
94.551994,94.747826,85,80,0
94.75199,94.94782,84,80,0
94.75199,94.94782,72,80,0
94.951996,95.14783,82,80,0
94.951996,95.14783,70,80,0
95.15199,95.347824,80,80,0
95.15199,95.347824,68,80,0
95.35199,95.54783,79,80,0
95.35199,95.54783,67,80,0
95.551994,95.747826,77,80,0
95.551994,95.747826,65,80,0
95.75199,95.94782,75,80,0
95.951996,96.14783,75,80,0
95.951996,96.14783,72,80,0
95.951996,96.14783,68,80,0
96.15199,96.347824,75,80,0
96.15199,96.347824,73,80,0
96.15199,96.347824,70,80,0
96.35199,96.54783,75,80,0
96.35199,96.54783,70,80,0
96.35199,96.54783,67,80,0
96.551994,96.747826,75,80,0
96.551994,96.747826,72,80,0
96.551994,96.747826,68,80,0
96.951996,97.04783,60,80,0
97.051994,97.14783,72,80,0
97.15199,97.247826,64,80,0
97.25199,97.347824,72,80,0
97.35199,97.44782,67,80,0
97.451996,97.54783,72,80,0
97.551994,97.64783,71,80,0
97.65199,97.747826,72,80,0
97.75199,97.847824,70,80,0
97.85199,97.94782,72,80,0
97.951996,98.04783,67,80,0
98.051994,98.14783,72,80,0
98.15199,98.247826,68,80,0
98.25199,98.347824,72,80,0
98.35199,98.44782,65,80,0
98.451996,98.54783,72,80,0
98.551994,98.747826,80,80,0
98.75199,98.94782,77,80,0
98.951996,99.14783,74,80,0
99.15199,99.347824,70,80,0
99.35199,99.54783,72,80,0
99.551994,99.747826,74,80,0
99.75199,99.94782,75,80,0
99.951996,100.14783,79,80,0
100.15199,100.247826,63,80,0
100.25199,100.347824,75,80,0
100.35199,100.44782,67,80,0
100.451996,100.54783,75,80,0
100.551994,100.64783,70,80,0
100.65199,100.747826,75,80,0
100.75199,100.847824,74,80,0
100.85199,100.94782,75,80,0
100.951996,101.04783,73,80,0
101.051994,101.14783,75,80,0
101.15199,101.247826,70,80,0
101.25199,101.347824,75,80,0
101.35199,101.44782,72,80,0
101.451996,101.54783,75,80,0
101.551994,101.64783,72,80,0
101.551994,101.64783,63,80,0
101.65199,101.747826,75,80,0
101.75199,101.847824,73,80,0
101.75199,101.847824,65,80,0
101.85199,101.94782,75,80,0
101.951996,102.04783,72,80,0
101.951996,102.04783,68,80,0
102.051994,102.14783,75,80,0
102.15199,102.247826,72,80,0
102.15199,102.247826,65,80,0
102.25199,102.347824,75,80,0
102.35199,102.44782,70,80,0
102.35199,102.44782,65,80,0
102.451996,102.54783,73,80,0
102.551994,102.64783,68,80,0
102.551994,102.64783,63,80,0
102.65199,102.747826,72,80,0
102.75199,102.847824,67,80,0
102.75199,102.847824,61,80,0
102.85199,102.94782,70,80,0
102.951996,103.14783,68,80,0
102.951996,103.14783,60,80,0
103.35199,103.54783,82,80,0
103.35199,103.54783,70,80,0
103.551994,103.747826,79,80,0
103.551994,103.747826,67,80,0
103.75199,103.94782,76,80,0
103.75199,103.94782,64,80,0
103.951996,104.14783,72,80,0
104.15199,104.347824,74,80,0
104.15199,104.347824,62,80,0
104.35199,104.54783,76,80,0
104.35199,104.54783,64,80,0
104.551994,104.747826,77,80,0
104.551994,104.747826,65,80,0
104.75199,104.94782,80,80,0
104.75199,104.94782,68,80,0
104.951996,105.04783,72,80,0
105.051994,105.14783,82,80,0
105.15199,105.247826,74,80,0
105.25199,105.347824,82,80,0
105.35199,105.44782,77,80,0
105.451996,105.54783,82,80,0
105.551994,105.64783,81,80,0
105.65199,105.747826,82,80,0
105.75199,105.847824,80,80,0
105.85199,105.94782,82,80,0
105.951996,106.04783,77,80,0
106.051994,106.14783,82,80,0
106.15199,106.247826,79,80,0
106.25199,106.347824,82,80,0
106.35199,106.44782,75,80,0
106.451996,106.54783,82,80,0
106.551994,106.747826,73,80,0
106.551994,106.747826,85,80,0
106.75199,106.94782,70,84,0
106.75199,106.94782,82,84,0
106.951996,107.14783,79,89,0
106.951996,107.14783,67,89,0
107.15199,107.347824,75,93,0
107.15199,107.347824,63,93,0
107.35199,107.54783,77,98,0
107.35199,107.54783,65,98,0
107.551994,107.747826,79,103,0
107.551994,107.747826,67,103,0
107.75199,107.94782,80,107,0
107.75199,107.94782,68,107,0
107.951996,108.04783,75,110,0
107.951996,108.04783,80,110,0
107.951996,108.04783,84,110,0
108.051994,108.14783,87,110,0
108.15199,108.247826,75,110,0
108.15199,108.247826,80,110,0
108.15199,108.247826,84,110,0
108.25199,108.347824,87,110,0
108.35199,108.44782,75,110,0
108.35199,108.44782,80,110,0
108.35199,108.44782,84,110,0
108.451996,108.54783,87,110,0
108.551994,108.64783,75,110,0
108.551994,108.64783,84,110,0
108.65199,108.747826,87,110,0
108.75199,108.847824,73,110,0
108.75199,108.847824,82,110,0
108.85199,108.94782,85,110,0
108.951996,109.04783,72,110,0
108.951996,109.04783,80,110,0
109.051994,109.14783,84,110,0
109.15199,109.247826,79,110,0
109.15199,109.247826,70,110,0
109.25199,109.347824,82,110,0
109.35199,109.54783,80,110,0
109.35199,109.54783,68,110,0
109.75199,109.847824,68,80,0
109.85199,109.94782,72,80,0
109.951996,110.04783,65,80,0
110.051994,110.14783,73,80,0
110.15199,110.247826,67,80,0
110.25199,110.347824,70,80,0
110.35199,110.44782,64,80,0
110.451996,110.54783,72,80,0
110.551994,110.64783,65,80,0
110.65199,110.747826,68,80,0
110.75199,110.847824,62,80,0
110.85199,110.94782,70,80,0
110.951996,111.14783,67,80,0
111.15199,111.347824,67,110,0
111.15199,111.347824,70,110,0
111.15199,111.347824,75,110,0
111.15199,111.347824,79,110,0
111.35199,111.44782,79,80,0
111.451996,111.54783,75,80,0
111.551994,111.64783,80,80,0
111.65199,111.747826,72,80,0
111.75199,111.847824,77,80,0
111.85199,111.94782,74,80,0
111.951996,112.04783,79,80,0
112.051994,112.14783,71,80,0
112.15199,112.247826,75,80,0
112.25199,112.347824,72,80,0
112.35199,112.44782,77,80,0
112.451996,112.54783,69,80,0
112.551994,112.747826,73,80,0
112.75199,112.94782,82,110,0
112.75199,112.94782,77,110,0
112.75199,112.94782,73,110,0
112.75199,112.94782,70,110,0
112.951996,113.04783,70,80,0
113.051994,113.14783,73,80,0
113.15199,113.247826,67,80,0
113.25199,113.347824,75,80,0
113.35199,113.44782,68,80,0
113.451996,113.54783,72,80,0
113.551994,113.64783,65,80,0
113.65199,113.747826,73,80,0
113.75199,113.847824,67,80,0
113.85199,113.94782,70,80,0
113.951996,114.04783,64,80,0
114.051994,114.14783,72,80,0
114.15199,114.347824,68,80,0
114.35199,114.54783,80,110,0
114.35199,114.54783,77,110,0
114.35199,114.54783,72,110,0
114.35199,114.54783,68,110,0
114.551994,114.64783,80,80,0
114.65199,114.747826,77,80,0
114.75199,114.847824,82,80,0
114.85199,114.94782,74,80,0
114.951996,115.05113,79,80,0
115.05544,115.15458,75,80,0
115.15889,115.258026,80,80,0
115.26234,115.36147,72,80,0
115.36578,115.46847,77,80,0
115.47293,115.57561,74,80,0
115.58007,115.68275,79,80,0
115.68721,115.789894,71,80,0
115.79436,116.00418,75,80,0
116.008644,116.21846,84,110,0
116.008644,116.21846,77,110,0
116.008644,116.21846,75,110,0
116.008644,116.21846,72,110,0
116.22293,116.43275,73,80,0
116.43721,116.64703,82,110,0
116.43721,116.64703,77,110,0
116.43721,116.64703,73,110,0
116.43721,116.64703,70,110,0
116.6515,116.86909,73,80,0
116.87372,117.09132,82,110,0
116.87372,117.09132,75,110,0
116.87372,117.09132,73,110,0
116.87372,117.09132,70,110,0
117.09594,117.31354,72,80,0
117.31816,117.53576,80,110,0
117.31816,117.53576,75,110,0
117.31816,117.53576,72,110,0
117.31816,117.53576,68,110,0
117.54039,117.76635,70,80,0
117.77116,117.997116,79,110,0
117.77116,117.997116,75,110,0
117.77116,117.997116,70,110,0
117.77116,117.997116,67,110,0
118.2327,118.45866,75,80,0
118.2327,118.45866,63,80,0
118.66346,118.8593,79,80,0
118.66346,118.8593,67,80,0
119.06346,119.25929,82,80,0
119.06346,119.25929,70,80,0
119.263466,119.4593,79,80,0
119.263466,119.4593,67,80,0
119.46346,119.659294,75,80,0
119.46346,119.659294,63,80,0
119.863464,120.059296,75,80,0
119.863464,120.059296,63,80,0
120.263466,120.4593,79,80,0
120.263466,120.4593,67,80,0
120.66346,120.8593,82,80,0
120.66346,120.8593,70,80,0
120.863464,121.059296,79,80,0
120.863464,121.059296,67,80,0
121.06346,121.25929,75,80,0
121.06346,121.25929,63,80,0
121.263466,121.3593,82,80,0
121.363464,121.4593,85,80,0
121.46346,121.559296,79,80,0
121.56346,121.659294,87,80,0
121.66346,121.75929,82,80,0
121.763466,121.8593,85,80,0
121.863464,121.9593,79,80,0
121.96346,122.059296,87,80,0
122.06346,122.159294,82,80,0
122.16346,122.25929,85,80,0
122.263466,122.3593,79,80,0
122.363464,122.4593,87,80,0
122.46346,122.559296,82,80,0
122.56346,122.659294,85,80,0
122.66346,122.75929,79,80,0
122.763466,122.8593,87,80,0
122.863464,122.9593,82,80,0
122.96346,123.059296,85,81,0
123.06346,123.159294,79,82,0
123.16346,123.25929,87,83,0
123.263466,123.3593,82,84,0
123.363464,123.4593,85,85,0
123.46346,123.559296,79,86,0
123.56346,123.659294,87,87,0
123.66346,123.75929,82,88,0
123.763466,123.8593,85,89,0
123.863464,123.9593,79,90,0
123.96346,124.059296,87,91,0
124.06346,124.159294,82,92,0
124.16346,124.25929,85,93,0
124.263466,124.3593,79,94,0
124.363464,124.4593,87,96,0
124.46346,124.559296,82,97,0
124.56346,124.659294,85,98,0
124.66346,124.75929,79,99,0
124.763466,124.8593,87,100,0
124.863464,124.9626,82,101,0
124.96691,125.06605,85,102,0
125.07036,125.169495,79,103,0
125.173805,125.27294,87,104,0
125.27725,125.37994,82,105,0
125.3844,125.487076,85,106,0
125.49154,125.59422,79,107,0
125.59869,125.70136,87,108,0
125.705826,125.923416,84,110,0
125.92805,126.03453,80,110,0
126.03916,126.14564,79,110,0
126.15027,126.25675,77,110,0
126.26138,126.36787,75,110,0
126.37249,126.47897,73,110,0
126.483604,126.59009,72,110,0
126.59471,126.697395,70,110,0
126.70186,126.804535,68,110,0
126.809,126.91168,67,110,0
126.916145,127.01882,65,110,0
127.023285,127.12596,63,110,0
127.130424,127.23311,61,110,0
127.23757,127.34025,60,110,0
127.34471,127.447395,58,110,0
127.45186,127.661674,56,110,0
127.666145,127.76882,84,110,0
127.773285,127.87596,82,110,0
127.880424,127.947395,80,110,0
127.95186,128.01881,79,110,0
128.02328,128.09026,77,110,0
128.09471,128.16168,75,110,0
128.16614,128.23311,73,110,0
128.23756,128.30453,72,110,0
128.309,128.41168,70,110,0
128.41614,128.51881,68,110,0
128.52328,128.62596,67,110,0
128.63043,128.73311,65,110,0
128.73756,128.84024,63,110,0
128.84471,128.94739,61,110,0
128.95186,129.05453,60,110,0
129.05899,129.16168,58,110,0
129.16614,129.37596,56,110,0
129.38043,129.40274,87,110,0
129.43399,129.45631,85,110,0
129.48756,129.50989,84,110,0
129.54114,129.56346,82,110,0
129.59471,129.66168,80,110,0
129.66614,129.73311,79,110,0
129.73756,129.80453,77,110,0
129.80899,129.87596,75,110,0
129.88043,129.94739,73,110,0
129.95186,130.01881,72,110,0
130.02328,130.12596,70,110,0
130.13043,130.23311,68,110,0
130.23756,130.34024,67,110,0
130.34471,130.44739,65,110,0
130.45186,130.55453,63,110,0
130.55899,130.66168,61,110,0
130.66614,130.76881,60,110,0
130.77328,130.87596,58,110,0
130.88043,131.09024,56,110,0
131.30899,131.41167,80,80,0
131.41614,131.51881,77,80,0
131.52328,131.62242,82,80,0
131.62672,131.72586,74,80,0
131.73018,131.82932,78,80,0
131.83362,131.93277,75,80,0
131.93707,132.03621,80,80,0
132.04053,132.13966,72,80,0
132.14397,132.2431,77,80,0
132.24742,132.34656,73,80,0
132.45432,132.55345,70,80,0
132.55777,132.6569,75,80,0
132.35086,132.76035,78,80,0
132.66121,132.76035,69,80,0
132.76466,132.8638,73,80,0
132.76466,132.96724,77,80,0
132.8681,132.96724,70,80,0
132.97156,133.0707,73,80,0
133.07501,133.17415,70,80,0
133.17845,133.27759,76,80,0
133.2819,133.38104,67,80,0
133.38535,133.48448,70,80,0
133.4888,133.58794,67,80,0
133.59224,133.69139,73,80,0
133.6957,133.79483,64,80,0
133.79915,133.89828,67,80,0
133.90259,134.00172,64,80,0
134.00604,134.10518,70,80,0
134.10948,134.20862,61,80,0
134.21294,134.31207,68,80,0
134.31639,134.41553,63,80,0
134.41983,134.51897,72,80,0
134.52328,134.62242,60,80,0
134.62672,134.72586,68,80,0
134.73018,134.82932,65,80,0
134.83362,134.93277,70,80,0
134.93707,135.03621,62,80,0
135.04053,135.13966,66,80,0
135.14397,135.2431,63,80,0
135.24742,135.34656,68,80,0
135.35086,135.45,60,80,0
135.45432,135.55345,65,80,0
135.55777,135.6569,61,80,0
135.76466,135.8638,58,80,0
135.8681,135.96724,63,80,0
135.66121,136.0707,66,80,0
135.97156,136.0707,57,80,0
136.075,136.17415,61,80,0
136.075,136.27759,65,80,0
136.17845,136.27759,58,80,0
136.2819,136.38104,61,80,0
136.38535,136.48448,58,80,0
136.4888,136.58794,64,80,0
136.59224,136.69138,55,80,0
136.6957,136.79483,58,80,0
136.79915,136.89828,55,80,0
136.90259,137.00172,61,80,0
137.00604,137.10518,52,80,0
137.10948,137.20862,55,80,0
137.21294,137.31207,52,80,0
137.31638,137.41553,58,80,0
137.41983,137.51897,49,80,0
137.52328,137.62242,56,80,0
137.62672,137.72586,51,80,0
137.73018,137.82932,60,80,0
137.83362,137.93277,48,80,0
137.93707,138.03621,61,80,0
138.04053,138.13966,58,80,0
138.14397,138.2431,64,80,0
138.24742,138.34656,55,80,0
138.35086,138.45,58,80,0
138.45432,138.55345,55,80,0
138.55775,138.6569,61,80,0
138.66121,138.76035,52,80,0
138.76466,138.8638,55,80,0
138.8681,138.96724,52,80,0
138.97156,139.0707,58,80,0
139.075,139.17415,49,80,0
139.17845,139.27759,56,80,0
139.2819,139.38104,51,80,0
139.38535,139.48448,60,80,0
139.4888,139.58794,48,80,0
139.59224,139.69138,61,80,0
139.6957,139.79483,58,80,0
139.79915,139.89828,64,80,0
139.90259,140.00172,55,80,0
140.00604,140.10518,58,80,0
140.10948,140.20862,55,80,0
140.21294,140.31207,61,80,0
140.31638,140.41553,52,79,0
140.41983,140.51897,55,79,0
140.52328,140.62242,52,78,0
140.62672,140.72586,58,78,0
140.73018,140.82932,49,77,0
140.83362,141.2431,56,77,0
140.93707,141.34656,51,76,0
141.24742,141.34656,51,75,0
141.04053,141.45,60,76,0
141.14397,141.55345,48,75,0
141.35086,141.55345,48,74,0
141.66121,141.76035,48,73,0
141.45432,141.8638,56,74,0
141.55775,141.96724,44,73,0
141.76466,141.96724,44,73,0
142.075,142.1948,44,71,0
141.8681,142.3198,51,72,0
141.97156,142.6948,39,72,0
142.2,142.6948,39,71,0
142.45,144.5698,36,70,0
142.325,144.5698,48,70,0
145.575,145.8198,44,1,0
2.4,2.5958333,61,80,0
2.6,2.7958333,60,80,0
2.8,2.9958334,58,80,0
3.0,3.1958334,56,80,0
3.2,3.3958333,55,80,0
2.0,3.5958333,51,80,0
3.4,3.5958333,53,80,0
3.6,3.7958333,51,80,0
3.8,3.9958334,49,80,0
4.0,4.195833,48,80,0
4.2,4.3958335,44,80,0
4.4,4.5958333,51,80,0
4.6,4.795833,39,80,0
4.8,4.8958335,63,80,0
4.9,4.9958334,60,80,0
5.0,5.0958333,65,80,0
5.1,5.195833,57,80,0
5.2,5.295833,61,80,0
5.3,5.3958335,58,80,0
5.4,5.4958334,63,80,0
5.5,5.5958333,55,80,0
5.6,5.695833,60,80,0
5.7,5.795833,56,80,0
5.8,5.8958335,61,80,0
5.9,5.9958334,53,80,0
6.0,6.0958333,58,80,0
6.1,6.195833,55,80,0
6.2,6.295833,60,80,0
6.3,6.3958335,52,80,0
6.4,6.4958334,56,80,0
6.5,6.5958333,53,80,0
6.6,6.695833,58,80,0
6.7,6.795833,50,80,0
6.8,6.8958335,55,80,0
6.9,6.9958334,51,80,0
7.0,7.0958333,50,80,0
7.1,7.195833,51,80,0
7.2,7.295833,55,80,0
7.3,7.3958335,51,80,0
7.4,7.4958334,56,80,0
7.5,7.5958333,51,80,0
7.6,7.695833,58,80,0
7.7,7.795833,51,80,0
7.8,7.8958335,60,80,0
7.9,7.9958334,51,80,0
8.0,8.095834,61,80,0
8.1,8.195833,51,80,0
8.2,8.295834,62,80,0
8.3,8.395833,51,80,0
8.4,8.495833,63,80,0
8.5,8.595834,51,80,0
8.6,8.695833,63,80,0
8.7,8.795834,51,80,0
8.8,8.895833,63,80,0
8.9,8.995833,51,80,0
9.0,9.095834,63,80,0
9.1,9.195833,51,80,0
9.2,9.395833,56,80,0
9.4,9.595834,44,80,0
9.6,9.795834,58,80,0
9.8,9.995833,56,80,0
10.0,10.195833,52,80,0
10.2,10.395833,48,80,0
10.4,10.595834,50,80,0
10.6,10.795834,52,80,0
10.8,10.995833,53,80,0
11.0,11.195833,56,80,0
11.2,11.295834,46,80,0
11.3,11.395833,58,80,0
11.4,11.495833,50,80,0
11.5,11.595834,58,80,0
11.6,11.695833,53,80,0
11.7,11.795834,58,80,0
11.8,11.895833,57,80,0
11.9,11.995833,58,80,0
12.0,12.095834,56,80,0
12.1,12.195833,58,80,0
12.2,12.295834,53,80,0
12.3,12.395833,58,80,0
12.4,12.495833,55,80,0
12.5,12.595834,58,80,0
12.6,12.695833,51,80,0
12.7,12.795834,58,80,0
12.8,12.995833,61,80,0
13.0,13.195833,58,80,0
13.2,13.395833,55,80,0
13.4,13.595834,51,80,0
13.6,13.795834,53,80,0
13.8,13.995833,55,80,0
14.0,14.195833,56,80,0
14.2,14.395833,44,80,0
14.4,14.595834,46,80,0
14.6,14.795834,48,80,0
14.8,14.995833,49,80,0
15.0,15.195833,46,80,0
15.2,15.395833,51,80,0
15.4,15.595834,39,80,0
15.6,15.795834,44,80,0
15.8,15.995833,32,80,0
16.0,16.095833,48,80,0
16.1,16.195833,60,80,0
16.2,16.295834,52,80,0
16.3,16.395834,60,80,0
16.4,16.495832,55,80,0
16.5,16.595833,60,80,0
16.6,16.695833,59,80,0
16.7,16.795834,60,80,0
16.8,16.895834,58,80,0
16.9,16.995832,60,80,0
17.0,17.095833,55,80,0
17.1,17.195833,60,80,0
17.2,17.295834,56,80,0
17.3,17.395834,60,80,0
17.4,17.495832,53,80,0
17.5,17.595833,60,80,0
17.6,17.795834,68,80,0
17.8,17.995832,65,80,0
18.0,18.195833,62,80,0
18.2,18.395834,58,80,0
18.4,18.595833,60,80,0
18.6,18.795834,62,80,0
18.8,18.995832,63,80,0
19.0,19.195833,67,80,0
19.2,19.295834,39,80,0
19.3,19.395834,51,81,0
19.4,19.495832,43,83,0
19.5,19.595833,51,84,0
19.6,19.695833,46,86,0
19.7,19.795834,51,87,0
19.8,19.895834,50,89,0
19.9,19.995832,51,90,0
20.0,20.095833,49,92,0
20.1,20.195833,51,93,0
20.2,20.295834,46,95,0
20.3,20.395834,51,96,0
20.4,20.495832,48,98,0
20.5,20.595833,51,99,0
20.6,20.695833,44,110,0
20.7,20.795834,56,110,0
20.8,20.895834,43,110,0
20.9,20.995832,55,110,0
21.0,21.095833,44,110,0
21.1,21.195833,56,110,0
21.2,21.295834,41,110,0
21.3,21.395834,53,110,0
21.4,21.495832,37,110,0
21.5,21.595833,49,110,0
21.6,21.699139,39,110,0
21.703447,21.802586,51,110,0
21.806896,21.909575,39,110,0
21.91404,22.016718,51,110,0
22.021181,22.231003,34,110,0
22.235468,22.44529,44,80,0
22.449753,22.552431,60,80,0
22.556896,22.659575,56,80,0
22.664038,22.759872,61,80,0
22.764038,22.85987,53,80,0
22.864038,22.959871,58,80,0
22.964039,23.059872,55,80,0
23.06404,23.159872,60,80,0
23.164038,23.259872,52,80,0
23.264038,23.35987,56,80,0
23.364038,23.459871,53,80,0
23.464039,23.559872,58,80,0
23.56404,23.659872,50,80,0
23.664038,23.85987,55,80,0
23.664038,23.85987,51,80,0
24.06404,24.159872,63,80,0
24.164038,24.259872,67,80,0
24.264038,24.35987,60,80,0
24.364038,24.459871,68,80,0
24.464039,24.559872,62,80,0
24.56404,24.659872,65,80,0
24.664038,24.759872,59,80,0
24.764038,24.85987,67,80,0
24.864038,24.959871,60,80,0
24.964039,25.059872,63,80,0
25.06404,25.159872,57,80,0
25.164038,25.259872,65,80,0
25.264038,25.459871,58,80,0
25.464039,25.659872,58,80,0
25.464039,25.659872,46,80,0
25.664038,25.759872,56,80,0
25.764038,25.85987,58,80,0
25.864038,25.959871,53,80,0
25.964039,26.059872,62,80,0
26.06404,26.159872,56,80,0
26.164038,26.259872,58,80,0
26.264038,26.35987,53,80,0
26.364038,26.459871,62,80,0
26.464039,26.559872,56,80,0
26.56404,26.659872,58,80,0
26.664038,26.759872,53,80,0
26.764038,26.85987,62,80,0
26.864038,26.959871,56,80,0
26.964039,27.059872,58,80,0
27.06404,27.159872,53,80,0
27.164038,27.259872,62,80,0
27.264038,27.35987,56,80,0
27.364038,27.459871,58,80,0
27.464039,27.559872,53,80,0
27.56404,27.659872,62,80,0
27.664038,27.759872,56,80,0
27.764038,27.85987,58,80,0
27.864038,27.959871,53,80,0
27.964039,28.059872,62,80,0
28.06404,28.159872,56,80,0
28.164038,28.259872,58,80,0
28.264038,28.35987,53,80,0
28.364038,28.459871,62,80,0
28.464039,28.559872,56,80,0
28.56404,28.659872,58,80,0
28.664038,28.759872,53,80,0
28.764038,28.85987,62,80,0
29.06404,29.259872,58,80,0
29.06404,29.259872,46,80,0
29.464039,29.659872,62,80,0
29.464039,29.659872,50,80,0
29.864038,30.059872,53,80,0
29.864038,30.059872,65,80,0
30.06404,30.259872,62,80,0
30.06404,30.259872,50,80,0
30.264038,30.459871,58,80,0
30.264038,30.459871,46,80,0
30.664038,30.85987,46,81,0
30.664038,30.85987,34,81,0
31.06404,31.259872,50,84,0
31.06404,31.259872,38,84,0
31.464039,31.659872,41,87,0
31.464039,31.659872,53,87,0
31.664038,31.85987,50,88,0
31.664038,31.85987,38,88,0
31.864038,32.05987,46,89,0
31.864038,32.05987,34,89,0
32.264038,32.459873,53,92,0
32.264038,32.459873,65,92,0
32.46404,32.666626,62,94,0
32.46404,32.666626,50,94,0
32.670937,32.880756,58,95,0
32.670937,32.880756,46,95,0
33.10744,33.333405,46,98,0
33.10744,33.333405,34,98,0
33.33821,33.54803,51,99,0
33.33821,33.54803,39,99,0
33.552498,34.190887,43,80,0
33.552498,34.190887,31,80,0
34.195354,34.61946,44,80,0
34.195354,34.61946,32,80,0
34.623924,35.04803,46,80,0
34.623924,35.04803,34,80,0
35.052494,35.262318,48,80,0
35.052494,35.262318,36,80,0
35.26678,35.905174,43,80,0
35.26678,35.905174,31,80,0
35.909637,36.333744,44,80,0
35.909637,36.333744,32,80,0
36.338207,36.762314,46,80,0
36.338207,36.762314,34,80,0
36.76678,36.9766,48,80,0
36.76678,36.9766,36,80,0
36.981064,37.619457,43,80,0
36.981064,37.619457,31,80,0
37.62392,38.048027,44,80,0
37.62392,38.048027,32,80,0
38.052494,38.4766,46,80,0
38.052494,38.4766,34,80,0
38.481064,39.33374,39,80,0
38.69535,39.33374,51,80,0
39.338207,40.190884,39,80,0
39.55249,40.190884,51,80,0
40.195347,44.476593,39,80,0
40.409634,44.476593,51,80,0
44.881058,45.07689,61,80,0
45.08106,45.27689,60,80,0
45.28106,45.47689,58,80,0
45.481056,45.67689,56,80,0
45.681057,45.876892,55,80,0
44.481056,46.07689,51,80,0
45.881058,46.07689,53,80,0
46.08106,46.27689,51,80,0
46.28106,46.47689,49,80,0
46.481056,46.67689,48,80,0
46.681057,46.876892,44,80,0
46.881058,47.07689,51,80,0
47.08106,47.27689,39,80,0
47.28106,47.376892,63,80,0
47.381058,47.47689,60,80,0
47.481056,47.57689,65,80,0
47.58106,47.67689,57,80,0
47.681057,47.77689,61,80,0
47.78106,47.876892,58,80,0
47.881058,47.97689,63,80,0
47.981056,48.07689,55,80,0
48.08106,48.17689,60,80,0
48.181057,48.27689,56,80,0
48.28106,48.376892,61,80,0
48.381058,48.47689,53,80,0
48.481056,48.57689,58,80,0
48.58106,48.67689,55,80,0
48.681057,48.77689,60,80,0
48.78106,48.876892,52,80,0
48.881058,48.97689,56,80,0
48.981056,49.07689,53,80,0
49.08106,49.17689,58,80,0
49.181057,49.27689,50,80,0
49.28106,49.376892,55,80,0
49.381058,49.47689,51,80,0
49.481056,49.57689,50,80,0
49.58106,49.67689,51,80,0
49.681057,49.77689,55,80,0
49.78106,49.876892,51,80,0
49.881058,49.97689,56,80,0
49.981056,50.07689,51,80,0
50.08106,50.17689,58,80,0
50.181057,50.27689,51,80,0
50.28106,50.376892,60,80,0
50.381058,50.47689,51,80,0
50.481056,50.57689,61,80,0
50.58106,50.67689,51,80,0
50.681057,50.77689,62,80,0
50.78106,50.876892,51,80,0
50.881058,50.97689,63,80,0
50.981056,51.07689,51,80,0
51.08106,51.17689,63,80,0
51.181057,51.27689,51,80,0
51.28106,51.376892,63,80,0
51.381058,51.47689,51,80,0
51.481056,51.57689,63,80,0
51.58106,51.67689,51,80,0
51.681057,51.876892,56,80,0
51.881058,52.07689,44,80,0
52.08106,52.27689,58,80,0
52.28106,52.47689,56,80,0
52.481056,52.67689,52,80,0
52.681057,52.876892,48,80,0
52.881058,53.07689,50,80,0
53.08106,53.27689,52,80,0
53.28106,53.47689,53,80,0
53.481056,53.67689,56,80,0
53.681057,53.77689,46,80,0
53.78106,53.876892,58,80,0
53.881058,53.97689,50,80,0
53.981056,54.07689,58,80,0
54.08106,54.17689,53,80,0
54.181057,54.27689,58,80,0
54.28106,54.376892,57,80,0
54.381058,54.47689,58,80,0
54.481056,54.57689,56,80,0
54.58106,54.67689,58,80,0
54.681057,54.77689,53,80,0
54.78106,54.876892,58,80,0
54.881058,54.97689,55,80,0
54.981056,55.07689,58,80,0
55.08106,55.17689,51,80,0
55.181057,55.27689,58,80,0
55.28106,55.47689,61,80,0
55.481056,55.67689,58,80,0
55.681057,55.876892,55,80,0
55.881058,56.07689,51,80,0
56.08106,56.27689,53,80,0
56.28106,56.47689,55,80,0
56.481056,56.67689,56,80,0
56.681057,56.876892,44,80,0
56.881058,57.07689,46,80,0
57.08106,57.27689,48,80,0
57.28106,57.483643,49,80,0
57.487953,57.69054,46,80,0
57.69485,57.90467,51,80,0
57.909138,58.118958,39,80,0
58.12342,58.333244,44,80,0
58.337708,58.547527,32,80,0
58.551994,58.647827,48,80,0
58.651993,58.747826,60,80,0
58.75199,58.847824,52,80,0
58.851994,58.947826,60,80,0
58.951992,59.047825,55,80,0
59.051994,59.147827,60,80,0
59.151993,59.247826,59,80,0
59.25199,59.347824,60,80,0
59.351994,59.447826,58,80,0
59.451992,59.547825,60,80,0
59.551994,59.647827,55,80,0
59.651993,59.747826,60,80,0
59.75199,59.847824,56,80,0
59.851994,59.947826,60,80,0
59.951992,60.047825,53,80,0
60.051994,60.147827,60,80,0
60.151993,60.347824,68,80,0
60.351994,60.547825,65,80,0
60.551994,60.747826,62,80,0
60.75199,60.947826,58,80,0
60.951992,61.147827,60,80,0
61.151993,61.347824,62,80,0
61.351994,61.547825,63,80,0
61.551994,61.747826,67,80,0
61.75199,61.847824,39,80,0
61.851994,61.947826,51,81,0
61.951992,62.047825,43,83,0
62.051994,62.147827,51,84,0
62.151993,62.247826,46,86,0
62.25199,62.347824,51,87,0
62.351994,62.447826,50,89,0
62.451992,62.547825,51,90,0
62.551994,62.647827,49,92,0
62.651993,62.747826,51,93,0
62.75199,62.847824,46,95,0
62.851994,62.947826,51,96,0
62.951992,63.047825,48,98,0
63.051994,63.147827,51,99,0
63.151993,63.247826,44,110,0
63.25199,63.347824,56,110,0
63.351994,63.447826,43,110,0
63.451992,63.547825,55,110,0
63.551994,63.647827,44,110,0
63.651993,63.747826,56,110,0
63.75199,63.847824,41,110,0
63.851994,63.947826,53,110,0
63.951992,64.04783,37,110,0
64.051994,64.14783,49,110,0
64.15199,64.247826,39,110,0
64.25199,64.347824,51,110,0
64.35199,64.44782,39,110,0
64.451996,64.54783,51,110,0
64.551994,64.747826,34,110,0
64.75199,64.94782,44,80,0
64.951996,65.04783,36,80,0
65.051994,65.14783,43,81,0
65.15199,65.247826,36,82,0
65.25199,65.347824,43,83,0
65.35199,65.44782,36,84,0
65.451996,65.54783,43,85,0
65.551994,65.64783,36,86,0
65.65199,65.747826,43,87,0
65.75199,65.847824,36,88,0
65.85199,65.94782,43,89,0
65.951996,66.04783,36,90,0
66.051994,66.14783,43,91,0
66.15199,66.247826,36,92,0
66.25199,66.347824,43,93,0
66.35199,66.44782,36,94,0
66.451996,66.54783,43,96,0
66.551994,66.64783,36,97,0
66.65199,66.747826,43,98,0
66.75199,66.847824,36,99,0
66.85199,66.94782,43,100,0
66.951996,67.04783,36,101,0
67.051994,67.14783,43,102,0
67.15199,67.247826,36,103,0
67.25199,67.347824,43,104,0
67.35199,67.44782,36,105,0
67.451996,67.54783,43,106,0
67.551994,67.64783,31,107,0
67.65199,67.747826,43,108,0
67.75199,67.847824,36,109,0
67.85199,67.94782,43,80,0
67.951996,68.04783,36,80,0
68.051994,68.14783,43,81,0
68.15199,68.247826,36,82,0
68.25199,68.347824,43,83,0
68.35199,68.44782,36,84,0
68.451996,68.54783,43,85,0
68.551994,68.64783,36,86,0
68.65199,68.747826,43,87,0
68.75199,68.847824,36,88,0
68.85199,68.94782,43,89,0
68.951996,69.04783,36,90,0
69.051994,69.14783,43,91,0
69.15199,69.247826,36,92,0
69.25199,69.347824,43,93,0
69.35199,69.44782,36,94,0
69.451996,69.54783,43,95,0
69.551994,69.64783,36,96,0
69.65199,69.747826,43,97,0
69.75199,69.847824,36,98,0
69.85199,69.94782,43,99,0
69.951996,70.04783,36,100,0
70.051994,70.14783,43,101,0
70.15199,70.247826,36,102,0
70.25199,70.347824,43,103,0
70.35199,70.44782,36,104,0
70.451996,70.54783,43,105,0
70.551994,70.64783,38,106,0
70.65199,70.747826,43,107,0
70.75199,70.847824,38,108,0
70.85199,70.94782,50,108,0
70.951996,71.04783,31,109,0
71.051994,71.14783,43,80,0
71.15199,71.247826,31,80,0
71.25199,71.347824,43,81,0
71.35199,71.44782,36,82,0
71.451996,71.54783,43,83,0
71.551994,71.64783,36,84,0
71.65199,71.747826,43,85,0
71.75199,71.847824,36,86,0
71.85199,71.94782,43,87,0
71.951996,72.04783,36,88,0
72.051994,72.14783,43,89,0
72.15199,72.247826,36,90,0
72.25199,72.347824,43,91,0
72.35199,72.44782,36,92,0
72.451996,72.54783,43,93,0
72.551994,72.64783,36,94,0
72.65199,72.747826,43,95,0
72.75199,72.847824,36,96,0
72.85199,72.94782,43,97,0
72.951996,73.04783,36,98,0
73.051994,73.14783,43,99,0
73.15199,73.247826,36,100,0
73.25199,73.347824,43,101,0
73.35199,73.44782,36,102,0
73.451996,73.54783,43,103,0
73.551994,73.64783,36,104,0
73.65199,73.747826,43,105,0
73.75199,73.847824,36,106,0
73.85199,73.94782,43,107,0
73.951996,74.04783,31,108,0
74.051994,74.14783,43,108,0
74.15199,74.247826,36,109,0
74.25199,74.347824,43,80,0
74.35199,74.44782,36,80,0
74.451996,74.54783,43,81,0
74.551994,74.64783,36,82,0
74.65199,74.747826,43,83,0
74.75199,74.847824,36,84,0
74.85199,74.94782,43,85,0
74.951996,75.04783,36,86,0
75.051994,75.14783,43,87,0
75.15199,75.247826,36,88,0
75.25199,75.347824,43,89,0
75.35199,75.44782,36,90,0
75.451996,75.54783,43,91,0
75.551994,75.64783,36,92,0
75.65199,75.747826,43,93,0
75.75199,75.847824,36,94,0
75.85199,75.94782,43,95,0
75.951996,76.04783,36,96,0
76.051994,76.14783,43,97,0
76.15199,76.247826,36,98,0
76.25199,76.347824,43,99,0
76.35199,76.44782,36,100,0
76.451996,76.54783,43,101,0
76.551994,76.64783,36,102,0
76.65199,76.747826,43,103,0
76.75199,76.847824,36,104,0
76.85199,76.94782,43,105,0
76.951996,77.04783,38,106,0
77.051994,77.14783,43,107,0
77.15199,77.247826,38,108,0
77.25199,77.347824,50,108,0
77.35199,77.44782,31,109,0
77.451996,77.54783,43,80,0
77.551994,77.64783,31,80,0
77.65199,77.747826,43,80,0
77.75199,77.847824,43,80,0
77.85199,77.94782,50,80,0
77.951996,78.04783,43,80,0
78.051994,78.14783,50,80,0
78.15199,78.247826,43,80,0
78.25199,78.347824,50,80,0
78.35199,78.44782,43,80,0
78.451996,78.54783,50,80,0
78.551994,78.64783,43,80,0
78.65199,78.747826,50,80,0
78.75199,78.847824,38,110,0
78.85199,78.94782,50,110,0
78.951996,79.04783,43,110,0
79.051994,79.14783,50,80,0
79.15199,79.247826,43,80,0
79.25199,79.347824,50,80,0
79.35199,79.44782,43,80,0
79.451996,79.54783,50,80,0
79.551994,79.64783,41,80,0
79.65199,79.747826,50,80,0
79.75199,79.847824,40,80,0
79.85199,79.94782,48,80,0
79.951996,80.04783,41,80,0
80.051994,80.14783,49,80,0
80.15199,80.247826,39,80,0
80.25199,80.347824,48,80,0
80.35199,80.44782,36,110,0
80.451996,80.54783,48,110,0
80.551994,80.64783,41,110,0
80.65199,80.747826,48,80,0
80.75199,80.847824,41,80,0
80.85199,80.94782,48,80,0
80.951996,81.04783,41,80,0
81.051994,81.14783,48,80,0
81.15199,81.247826,41,80,0
81.25199,81.347824,48,80,0
81.35199,81.44782,41,80,0
81.451996,81.54783,48,80,0
81.551994,81.64783,41,80,0
81.65199,81.747826,48,80,0
81.75199,81.847824,41,80,0
81.85199,81.94782,48,80,0
81.951996,82.04783,36,110,0
82.051994,82.14783,48,110,0
82.15199,82.247826,41,110,0
82.25199,82.347824,48,80,0
82.35199,82.44782,41,80,0
82.451996,82.54783,48,80,0
82.551994,82.64783,41,80,0
82.65199,82.747826,48,80,0
82.75199,82.847824,39,80,0
82.85199,82.94782,47,80,0
82.951996,83.04783,38,80,0
83.051994,83.14783,46,80,0
83.15199,83.247826,39,80,0
83.25199,83.347824,47,80,0
83.35199,83.44782,38,80,0
83.451996,83.54783,46,80,0
83.551994,83.64783,34,110,0
83.65199,83.747826,46,110,0
83.75199,83.847824,39,110,0
83.85199,83.94782,46,80,0
83.951996,84.04783,39,80,0
84.051994,84.14783,46,80,0
89.75199,89.94782,61,80,0
89.951996,90.14783,60,80,0
90.15199,90.347824,58,80,0
90.35199,90.54783,56,80,0
90.551994,90.747826,55,80,0
89.35199,90.94782,51,80,0
90.75199,90.94782,53,80,0
90.951996,91.14783,51,80,0
91.15199,91.347824,49,80,0
91.35199,91.54783,48,80,0
91.551994,91.747826,44,80,0
91.75199,91.94782,51,80,0
91.951996,92.14783,39,80,0
92.15199,92.247826,63,80,0
92.25199,92.347824,60,80,0
92.35199,92.44782,65,80,0
92.451996,92.54783,57,80,0
92.551994,92.64783,61,80,0
92.65199,92.747826,58,80,0
92.75199,92.847824,63,80,0
92.85199,92.94782,55,80,0
92.951996,93.04783,60,80,0
93.051994,93.14783,56,80,0
93.15199,93.247826,61,80,0
93.25199,93.347824,53,80,0
93.35199,93.44782,58,80,0
93.451996,93.54783,55,80,0
93.551994,93.64783,60,80,0
93.65199,93.747826,52,80,0
93.75199,93.847824,56,80,0
93.85199,93.94782,53,80,0
93.951996,94.04783,58,80,0
94.051994,94.14783,50,80,0
94.15199,94.247826,55,80,0
94.25199,94.347824,51,80,0
94.35199,94.44782,50,80,0
94.451996,94.54783,51,80,0
94.551994,94.64783,55,80,0
94.65199,94.747826,51,80,0
94.75199,94.847824,56,80,0
94.85199,94.94782,51,80,0
94.951996,95.04783,58,80,0
95.051994,95.14783,51,80,0
95.15199,95.247826,60,80,0
95.25199,95.347824,51,80,0
95.35199,95.44782,61,80,0
95.451996,95.54783,51,80,0
95.551994,95.64783,62,80,0
95.65199,95.747826,51,80,0
95.75199,95.847824,63,80,0
95.85199,95.94782,51,80,0
95.951996,96.04783,63,80,0
96.051994,96.14783,51,80,0
96.15199,96.247826,63,80,0
96.25199,96.347824,51,80,0
96.35199,96.44782,63,80,0
96.451996,96.54783,51,80,0
96.551994,96.747826,56,80,0
96.75199,96.94782,44,80,0
96.951996,97.14783,58,80,0
97.15199,97.347824,56,80,0
97.35199,97.54783,52,80,0
97.551994,97.747826,48,80,0
97.75199,97.94782,50,80,0
97.951996,98.14783,52,80,0
98.15199,98.347824,53,80,0
98.35199,98.54783,56,80,0
98.551994,98.64783,46,80,0
98.65199,98.747826,58,80,0
98.75199,98.847824,50,80,0
98.85199,98.94782,58,80,0
98.951996,99.04783,53,80,0
99.051994,99.14783,58,80,0
99.15199,99.247826,57,80,0
99.25199,99.347824,58,80,0
99.35199,99.44782,56,80,0
99.451996,99.54783,58,80,0
99.551994,99.64783,53,80,0
99.65199,99.747826,58,80,0
99.75199,99.847824,55,80,0
99.85199,99.94782,58,80,0
99.951996,100.04783,51,80,0
100.051994,100.14783,58,80,0
100.15199,100.347824,61,80,0
100.35199,100.54783,58,80,0
100.551994,100.747826,55,80,0
100.75199,100.94782,51,80,0
100.951996,101.14783,53,80,0
101.15199,101.347824,55,80,0
101.35199,101.54783,56,80,0
101.551994,101.747826,44,80,0
101.75199,101.94782,46,80,0
101.951996,102.14783,48,80,0
102.15199,102.347824,49,80,0
102.35199,102.54783,46,80,0
102.551994,102.747826,51,80,0
102.75199,102.94782,39,80,0
102.951996,103.14783,44,80,0
103.15199,103.347824,32,80,0
103.35199,103.44782,48,80,0
103.451996,103.54783,60,80,0
103.551994,103.64783,52,80,0
103.65199,103.747826,60,80,0
103.75199,103.847824,55,80,0
103.85199,103.94782,60,80,0
103.951996,104.04783,59,80,0
104.051994,104.14783,60,80,0
104.15199,104.247826,58,80,0
104.25199,104.347824,60,80,0
104.35199,104.44782,55,80,0
104.451996,104.54783,60,80,0
104.551994,104.64783,56,80,0
104.65199,104.747826,60,80,0
104.75199,104.847824,53,80,0
104.85199,104.94782,60,80,0
104.951996,105.14783,68,80,0
105.15199,105.347824,65,80,0
105.35199,105.54783,62,80,0
105.551994,105.747826,58,80,0
105.75199,105.94782,60,80,0
105.951996,106.14783,62,80,0
106.15199,106.347824,63,80,0
106.35199,106.54783,67,80,0
106.551994,106.64783,39,80,0
106.65199,106.747826,51,82,0
106.75199,106.847824,43,84,0
106.85199,106.94782,51,86,0
106.951996,107.04783,46,89,0
107.051994,107.14783,51,91,0
107.15199,107.247826,50,93,0
107.25199,107.347824,51,96,0
107.35199,107.44782,49,98,0
107.451996,107.54783,51,100,0
107.551994,107.64783,46,103,0
107.65199,107.747826,51,105,0
107.75199,107.847824,48,107,0
107.85199,107.94782,51,109,0
107.951996,108.04783,44,110,0
108.051994,108.14783,56,110,0
108.15199,108.247826,43,110,0
108.25199,108.347824,55,110,0
108.35199,108.44782,44,110,0
108.451996,108.54783,56,110,0
108.551994,108.64783,41,110,0
108.65199,108.747826,53,110,0
108.75199,108.847824,37,110,0
108.85199,108.94782,49,110,0
108.951996,109.04783,39,110,0
109.051994,109.14783,51,110,0
109.15199,109.247826,39,110,0
109.25199,109.347824,51,110,0
109.35199,109.54783,34,110,0
109.551994,109.747826,44,80,0
109.75199,109.847824,60,80,0
109.85199,109.94782,56,80,0
109.951996,110.04783,61,80,0
110.051994,110.14783,53,80,0
110.15199,110.247826,58,80,0
110.25199,110.347824,55,80,0
110.35199,110.44782,60,80,0
110.451996,110.54783,52,80,0
110.551994,110.64783,56,80,0
110.65199,110.747826,53,80,0
110.75199,110.847824,58,80,0
110.85199,110.94782,50,80,0
110.951996,111.14783,51,80,0
111.15199,111.347824,51,110,0
111.15199,111.347824,39,110,0
111.35199,111.44782,63,80,0
111.451996,111.54783,67,80,0
111.551994,111.64783,60,80,0
111.65199,111.747826,68,80,0
111.75199,111.847824,62,80,0
111.85199,111.94782,65,80,0
111.951996,112.04783,59,80,0
112.051994,112.14783,67,80,0
112.15199,112.247826,60,80,0
112.25199,112.347824,63,80,0
112.35199,112.44782,57,80,0
112.451996,112.54783,65,80,0
112.551994,112.747826,58,80,0
112.75199,112.94782,58,110,0
112.75199,112.94782,46,110,0
112.951996,113.04783,61,80,0
113.051994,113.14783,58,80,0
113.15199,113.247826,63,80,0
113.25199,113.347824,55,80,0
113.35199,113.44782,60,80,0
113.451996,113.54783,56,80,0
113.551994,113.64783,61,80,0
113.65199,113.747826,53,80,0
113.75199,113.847824,58,80,0
113.85199,113.94782,55,80,0
113.951996,114.04783,60,80,0
114.051994,114.14783,52,80,0
114.15199,114.347824,53,80,0
114.35199,114.54783,53,110,0
114.35199,114.54783,41,110,0
114.551994,114.64783,65,80,0
114.65199,114.747826,68,80,0
114.75199,114.847824,62,80,0
114.85199,114.94782,70,80,0
114.951996,115.05113,63,80,0
115.05544,115.15458,67,80,0
115.15889,115.258026,60,80,0
115.26234,115.36147,68,80,0
115.36578,115.46847,62,80,0
115.47293,115.57561,65,80,0
115.58007,115.68275,59,80,0
115.68721,115.789894,67,80,0
115.79436,116.00418,60,80,0
116.008644,116.21846,44,110,0
116.22293,116.43275,46,80,0
116.43721,116.64703,58,110,0
116.6515,116.86909,43,80,0
116.87372,117.09132,55,110,0
117.09594,117.31354,44,80,0
117.31816,117.53576,56,110,0
117.54039,117.76635,39,80,0
117.77116,117.997116,51,110,0
118.00192,118.1125,49,80,0
118.11731,118.22788,51,80,0
118.2327,118.34327,46,80,0
118.348076,118.45866,55,80,0
118.46346,118.559296,49,80,0
118.56346,118.659294,51,80,0
118.66346,118.75929,46,80,0
118.763466,118.8593,55,80,0
118.863464,118.9593,49,80,0
118.96346,119.059296,51,80,0
119.06346,119.159294,46,80,0
119.16346,119.25929,55,80,0
119.263466,119.3593,49,80,0
119.363464,119.4593,51,80,0
119.46346,119.559296,46,80,0
119.56346,119.659294,55,80,0
119.66346,119.75929,49,80,0
119.763466,119.8593,51,80,0
119.863464,119.9593,46,80,0
119.96346,120.059296,55,80,0
120.06346,120.159294,49,80,0
120.16346,120.25929,51,80,0
120.263466,120.3593,46,80,0
120.363464,120.4593,55,80,0
120.46346,120.559296,49,80,0
120.56346,120.659294,51,80,0
120.66346,120.75929,46,80,0
120.763466,120.8593,55,80,0
120.863464,120.9593,49,80,0
120.96346,121.059296,51,80,0
121.06346,121.159294,46,80,0
121.16346,121.25929,55,80,0
121.46346,121.659294,51,80,0
121.46346,121.659294,39,80,0
121.863464,122.059296,55,80,0
121.863464,122.059296,43,80,0
122.263466,122.4593,58,80,0
122.263466,122.4593,46,80,0
122.46346,122.659294,55,80,0
122.46346,122.659294,43,80,0
122.66346,122.8593,51,80,0
122.66346,122.8593,39,80,0
123.06346,123.25929,63,82,0
123.06346,123.25929,51,82,0
123.46346,123.659294,67,86,0
123.46346,123.659294,55,86,0
123.863464,124.059296,70,90,0
123.863464,124.059296,58,90,0
124.06346,124.25929,67,92,0
124.06346,124.25929,55,92,0
124.263466,124.4593,63,94,0
124.263466,124.4593,51,94,0
124.66346,124.8593,58,99,0
124.66346,124.8593,46,99,0
124.863464,125.06605,55,101,0
124.863464,125.06605,43,101,0
125.07036,125.27294,51,103,0
125.07036,125.27294,39,103,0
125.49154,125.70136,51,107,0
125.49154,125.70136,39,107,0
125.705826,125.923416,56,110,0
125.705826,125.923416,44,110,0
125.92805,126.59009,48,110,0
125.92805,126.59009,36,110,0
126.59471,127.01882,49,110,0
126.59471,127.01882,37,110,0
127.023285,127.447395,51,110,0
127.023285,127.447395,39,110,0
127.45186,127.661674,53,110,0
127.45186,127.661674,41,110,0
127.666145,128.30453,48,110,0
127.666145,128.30453,36,110,0
128.309,128.73311,49,110,0
128.309,128.73311,37,110,0
128.73756,129.16168,51,110,0
128.73756,129.16168,39,110,0
129.16614,129.37596,53,110,0
129.16614,129.37596,41,110,0
129.38043,130.01881,48,110,0
129.38043,130.01881,36,110,0
130.02328,130.44739,49,110,0
130.02328,130.44739,37,110,0
130.45186,130.87596,51,110,0
130.45186,130.87596,39,110,0
130.88043,132.55345,32,110,0
131.09471,132.55345,44,80,0
132.55777,134.20862,32,80,0
132.76466,134.20862,44,80,0
134.21294,135.8638,32,80,0
134.41983,135.8638,44,80,0
135.8681,137.51897,32,80,0
136.075,137.51897,44,80,0
137.52328,139.17415,32,80,0
137.73018,139.17415,44,80,0
139.17845,140.82932,32,80,0
139.38535,140.82932,44,80,0
140.83362,142.5698,32,77,0
142.575,144.5698,32,69,0
