start_time,end_time,note_value,velocity,instrument_program_number
0.0,0.49305508,72,80,0
0.4999995,0.65972155,65,80,0
0.0,1.3263875,63,80,0
0.0,1.3263875,60,80,0
0.666666,1.3263875,65,80,0
1.999998,2.493053,72,80,0
2.4999976,2.6597195,65,80,0
1.999998,3.3263855,63,80,0
1.999998,3.3263855,60,80,0
2.666664,3.3263855,65,80,0
3.999996,4.593746,65,80,0
3.999996,4.593746,63,80,0
3.999996,4.593746,60,80,0
4.599996,5.193746,65,83,0
4.599996,5.193746,63,83,0
4.599996,5.193746,60,83,0
5.199996,5.793746,65,86,0
5.199996,5.793746,63,86,0
5.199996,5.793746,60,86,0
5.799996,7.593746,66,89,0
5.799996,7.593746,63,89,0
5.799996,7.593746,60,89,0
7.599996,8.259718,66,99,0
7.599996,8.259718,63,99,0
7.599996,8.259718,60,99,0
8.266662,8.926384,66,103,0
8.266662,8.926384,63,103,0
8.266662,8.926384,60,103,0
8.933328,9.724995,66,106,0
8.933328,9.724995,63,106,0
8.933328,9.724995,60,106,0
9.733328,12.722911,67,109,0
9.733328,12.722911,63,109,0
9.733328,12.722911,58,109,0
12.733328,12.97812,67,80,0
12.733328,13.22812,62,80,0
12.733328,13.22812,56,80,0
12.983328,13.22812,65,80,0
13.233328,13.35312,65,80,0
13.358328,13.47812,67,80,0
13.483328,13.60312,65,80,0
13.233328,13.72812,62,80,0
13.233328,13.72812,56,80,0
13.608328,13.72812,64,80,0
13.733328,13.97812,65,80,0
13.733328,14.22812,62,80,0
13.733328,14.22812,56,80,0
13.983328,14.22812,67,80,0
14.233328,14.35312,63,80,0
14.233328,14.35312,55,80,0
14.358328,14.47812,65,80,0
14.483328,14.60312,63,80,0
14.608328,14.72812,62,80,0
14.733328,14.894786,63,80,0
14.899995,15.061453,65,80,0
15.066661,15.22812,67,80,0
15.233328,15.394786,68,80,0
15.399995,15.561453,70,80,0
15.566661,15.72812,72,80,0
15.733328,15.894786,74,80,0
15.899995,16.061453,75,80,0
16.066662,16.228119,77,80,0
16.233328,16.394787,78,80,0
16.399994,16.561453,79,80,0
16.566662,16.728119,80,80,0
16.733328,16.894787,81,80,0
16.899994,17.061453,82,80,0
17.066662,17.228119,83,80,0
17.233328,17.603119,84,80,0
17.608328,17.728119,77,80,0
17.733328,18.728119,77,80,0
18.733328,18.790619,71,80,0
18.790619,19.097912,72,80,0
19.108328,19.228119,65,80,0
19.233328,20.228119,65,80,0
20.233328,20.728119,53,80,0
20.233328,20.728119,51,80,0
20.233328,20.728119,48,80,0
20.733328,21.228119,53,83,0
20.733328,21.228119,51,83,0
20.733328,21.228119,48,83,0
21.233328,21.728119,53,86,0
21.233328,21.728119,51,86,0
21.233328,21.728119,48,86,0
21.733328,23.228119,54,90,0
21.733328,23.228119,51,90,0
21.733328,23.228119,48,90,0
23.233328,23.7731,78,100,0
23.233328,23.7731,75,100,0
23.233328,23.7731,72,100,0
23.778782,24.318554,78,104,0
23.778782,24.318554,75,104,0
23.778782,24.318554,72,104,0
24.324236,24.917986,78,107,0
24.324236,24.917986,75,107,0
24.324236,24.917986,72,107,0
24.924236,26.717985,79,110,0
24.924236,26.717985,75,110,0
26.724236,26.950197,67,80,0
26.724236,27.180965,62,80,0
26.724236,27.180965,56,80,0
26.955006,27.180965,65,80,0
27.185774,27.29635,65,80,0
27.301159,27.411736,67,80,0
27.416542,27.52712,65,80,0
27.185774,27.642504,62,80,0
27.185774,27.642504,56,80,0
27.531927,27.642504,64,80,0
27.647312,27.873274,65,80,0
27.647312,28.104042,62,80,0
27.647312,28.104042,56,80,0
27.87808,28.104042,67,80,0
28.10885,28.532957,63,80,0
28.10885,28.532957,55,80,0
29.394564,29.44367,86,80,0
29.448133,29.711527,87,80,0
29.715992,29.81867,80,80,0
29.823133,30.24724,80,80,0
30.680277,30.729383,74,80,0
30.733847,30.99724,75,80,0
31.001705,31.104383,67,80,0
31.108847,31.532953,67,80,0
31.965988,32.06867,75,80,0
32.07313,32.17581,65,80,0
32.39456,32.49724,75,80,0
32.5017,32.60438,65,80,0
32.82313,32.925808,74,80,0
32.930275,33.03295,65,80,0
33.2517,33.35438,75,80,0
33.358845,33.461525,63,80,0
34.537415,34.61777,87,80,0
34.59099,34.68027,89,80,0
34.644558,34.74277,87,80,0
34.698128,34.778484,89,80,0
34.7517,34.840984,87,80,0
34.80527,34.890095,89,80,0
34.858845,34.9392,86,80,0
34.912415,34.96152,87,80,0
34.965984,35.39009,80,80,0
35.823128,35.903484,75,80,0
35.876698,35.965984,77,80,0
35.93027,36.028484,75,80,0
35.98384,36.064198,77,80,0
36.037415,36.126698,75,80,0
36.090984,36.175808,77,80,0
36.144558,36.224915,74,80,0
36.198128,36.247234,75,80,0
36.251698,36.675804,67,80,0
37.10884,37.21152,75,80,0
37.215984,37.31866,65,80,0
37.53741,37.64009,75,80,0
37.644554,37.747234,65,80,0
37.965984,38.06866,74,80,0
38.073124,38.175804,65,80,0
38.394554,38.497234,63,80,0
38.501698,38.604374,65,80,0
38.60884,38.711517,63,80,0
38.71598,38.81866,62,80,0
38.823124,38.925804,63,80,0
38.930267,39.032948,65,80,0
39.03741,39.140087,67,80,0
39.144554,39.24723,68,80,0
39.251698,39.461517,70,80,0
39.46598,39.675804,67,80,0
39.680267,39.890087,65,80,0
39.894554,40.104374,68,80,0
40.108837,40.31866,62,80,0
40.323124,40.532944,65,80,0
40.53741,40.74723,58,80,0
40.751694,40.961517,62,80,0
40.96598,41.068657,63,80,0
41.073124,41.1758,65,80,0
41.180267,41.282944,63,80,0
41.287407,41.390087,62,80,0
41.39455,41.49723,63,80,0
41.501694,41.604374,65,80,0
41.608837,41.711514,67,80,0
41.71598,41.818657,68,80,0
41.82312,41.9258,72,80,0
41.930264,42.032944,70,80,0
42.037407,42.140087,68,80,0
42.14455,42.24723,67,80,0
42.251694,42.461514,65,80,0
42.465977,42.6758,68,80,0
42.680264,42.890083,62,80,0
42.89455,43.10437,65,80,0
43.108833,43.318657,58,80,0
43.32312,43.53294,62,80,0
43.537407,43.747227,63,80,0
43.75169,43.961514,67,80,0
43.965977,44.175797,60,80,0
44.180264,44.390083,63,80,0
44.394547,44.60437,57,80,0
44.608833,44.818653,60,80,0
44.82312,45.03294,53,80,0
45.037403,45.247227,57,80,0
45.25169,45.46151,60,80,0
45.465977,45.675797,64,80,0
45.68026,45.890083,65,80,0
45.894547,46.104366,57,80,0
46.108833,46.318653,58,80,0
46.323116,46.53294,62,80,0
46.537403,46.747223,65,80,0
46.75169,46.96151,69,80,0
46.965973,47.175797,70,80,0
47.18026,47.39008,69,80,0
47.394547,47.604366,70,80,0
47.60883,47.818653,69,80,0
47.823116,48.078552,70,80,0
48.083984,48.33942,69,80,0
48.344856,48.60029,70,80,0
48.605724,48.932114,70,80,0
48.939056,49.37507,71,80,0
49.37953,49.482212,65,80,0
49.486675,50.12507,65,80,0
48.939056,50.339355,63,80,0
48.939056,50.339355,59,80,0
50.34382,50.66078,71,80,0
50.665245,50.767925,65,80,0
50.77239,51.41078,65,80,0
50.34382,51.625065,63,80,0
50.34382,51.625065,59,80,0
51.62953,52.05364,65,80,0
51.62953,52.05364,63,80,0
52.0581,52.48221,65,80,0
52.0581,52.48221,63,80,0
52.48667,52.910778,66,80,0
52.48667,52.910778,63,80,0
52.915245,53.76792,63,80,0
52.915245,54.19649,68,80,0
53.772385,54.19649,62,80,0
54.20096,54.625065,77,80,0
54.20096,54.625065,75,80,0
54.629528,55.053635,77,80,0
54.629528,55.053635,75,80,0
55.058098,55.482204,78,80,0
55.058098,55.482204,75,80,0
55.48667,56.339348,75,80,0
55.48667,56.767918,80,80,0
56.34381,56.767918,74,80,0
56.772385,57.19649,67,80,0
56.772385,57.19649,65,80,0
57.200954,57.62506,67,80,0
57.200954,57.62506,65,80,0
57.629524,58.05363,68,80,0
57.629524,58.05363,65,80,0
58.058098,58.910774,65,80,0
58.058098,59.339344,70,80,0
58.915237,59.339344,64,80,0
59.343807,59.767914,79,80,0
59.343807,59.767914,77,80,0
59.77238,60.196487,79,80,0
59.77238,60.196487,77,80,0
60.20095,60.625057,80,80,0
60.20095,60.625057,77,80,0
60.62952,61.4822,77,80,0
60.62952,61.91077,82,80,0
61.486664,61.91077,76,80,0
61.915234,62.33934,85,80,0
62.343807,62.767914,76,80,0
63.200947,63.625053,89,80,0
63.62952,64.05363,77,80,0
65.55809,65.76791,77,80,0
65.77238,66.41077,82,80,0
66.41523,66.51791,81,80,0
66.52238,66.62505,82,80,0
66.62952,66.83934,84,80,0
66.8438,67.05362,82,80,0
67.05809,67.69648,77,80,0
67.70094,67.80362,79,80,0
67.80808,67.91077,77,80,0
67.91523,68.12505,75,80,0
68.12952,68.33933,74,80,0
68.3438,68.44648,78,80,0
68.45094,68.55362,79,80,0
68.77237,68.875046,78,80,0
68.87952,68.98219,79,80,0
69.20094,69.30362,74,80,0
69.30808,69.41077,75,80,0
69.62952,69.73219,71,80,0
69.73666,69.83933,72,80,0
70.70094,70.91076,84,80,0
70.91523,71.55362,87,80,0
71.55808,71.66076,89,80,0
71.66522,71.76791,87,80,0
71.77237,71.98219,86,80,0
71.98666,72.19647,84,80,0
72.200935,72.41076,82,80,0
72.41522,72.625046,81,80,0
72.62951,72.83933,79,80,0
72.843796,73.05362,77,80,0
73.05808,73.2679,75,80,0
73.27237,73.482185,72,80,0
73.48665,73.69647,70,80,0
73.700935,73.91076,74,80,0
73.91522,74.125046,67,80,0
74.12951,74.33933,75,80,0
74.343796,74.55361,69,80,0
74.55808,74.7679,72,80,0
74.77236,74.875046,70,80,0
74.87951,74.982185,62,80,0
74.98665,75.08933,65,80,0
75.093796,75.19647,63,80,0
75.200935,75.27236,62,80,0
75.27683,75.34826,63,80,0
75.39736,75.468796,65,80,0
75.47772,75.54915,67,80,0
75.544685,75.61611,69,80,0
75.62951,75.69647,70,80,0
75.69647,75.763435,69,80,0
75.77236,75.839325,72,80,0
75.843796,75.91076,70,80,0
75.91522,75.982185,74,80,0
75.98665,76.05361,72,80,0
76.058075,76.125046,70,80,0
76.12951,76.19647,69,80,0
76.200935,76.2679,67,80,0
76.27236,76.339325,65,80,0
76.343796,76.41076,67,80,0
76.41522,76.482185,63,80,0
76.48665,76.55361,62,80,0
76.558075,76.62504,65,80,0
76.62951,76.69647,63,80,0
76.700935,76.7679,65,80,0
76.77236,76.839325,67,80,0
76.84379,76.91076,69,80,0
76.91522,77.0179,70,80,0
77.02236,77.12504,69,80,0
77.12951,77.232185,67,80,0
77.23665,77.339325,65,80,0
77.34379,77.44647,67,80,0
77.450935,77.55361,69,80,0
77.558075,77.66075,70,80,0
77.66522,77.7679,72,80,0
77.77236,77.87504,74,80,0
77.8795,77.982185,72,80,0
77.98665,78.089325,70,80,0
78.09379,78.19647,69,80,0
78.200935,78.30361,70,80,0
78.308075,78.41075,72,80,0
78.41522,78.5179,74,80,0
78.52236,78.62504,75,80,0
78.6295,78.732185,79,80,0
78.73665,78.839325,77,80,0
78.84379,78.946465,75,80,0
78.950935,79.05361,74,80,0
79.058075,79.196465,77,80,0
79.200935,79.339325,75,80,0
79.34379,79.482185,74,80,0
79.48665,79.589325,75,80,0
79.59379,79.696465,77,80,0
79.70093,79.80361,79,80,0
79.808075,79.91075,81,80,0
79.915215,80.55361,82,80,0
80.558075,80.66075,81,80,0
80.665215,80.76789,82,80,0
80.77236,80.87504,81,80,0
80.8795,80.98218,82,80,0
80.98664,81.089325,84,80,0
81.09379,81.196465,82,80,0
81.20093,81.839325,77,80,0
81.84379,81.946465,76,80,0
81.95093,82.053604,77,80,0
82.058075,82.16075,79,80,0
82.165215,82.26789,77,80,0
82.272354,82.37504,75,80,0
82.3795,82.48218,74,80,0
82.48664,82.589325,78,80,0
82.59379,82.696465,79,80,0
82.70093,82.803604,78,80,0
82.808075,82.91075,79,80,0
82.915215,83.01789,78,80,0
83.022354,83.12504,79,80,0
83.1295,83.23218,78,80,0
83.23664,83.33932,79,80,0
83.34379,83.446465,74,80,0
83.45093,83.553604,75,80,0
83.55807,83.66075,74,80,0
83.665215,83.76789,75,80,0
83.772354,83.87504,71,80,0
83.8795,83.98218,72,80,0
83.98664,84.08932,71,80,0
84.09378,84.196465,72,80,0
84.84378,85.053604,84,80,0
85.05807,85.696465,87,80,0
85.70093,85.803604,86,80,0
85.80807,85.91074,87,80,0
85.915215,86.01789,89,80,0
86.022354,86.12503,87,80,0
86.12949,86.23218,86,80,0
86.23664,86.33932,84,80,0
86.34378,86.44646,82,80,0
86.45093,86.553604,81,80,0
86.55807,86.66074,86,80,0
86.66521,86.76789,84,80,0
86.772354,86.87503,82,80,0
86.87949,86.98218,81,80,0
86.98664,87.08932,79,80,0
87.09378,87.19646,77,80,0
87.20093,87.303604,75,80,0
87.30807,87.41074,74,80,0
87.41521,87.51789,75,80,0
87.522354,87.73217,72,80,0
87.73664,87.83932,70,80,0
87.84378,88.16074,74,80,0
88.16521,88.26789,67,80,0
88.272354,88.58932,75,80,0
88.59378,88.69646,69,80,0
88.70092,88.91074,72,80,0
88.91521,89.12503,70,80,0
89.34378,89.44646,55,80,0
89.45092,89.5536,57,80,0
89.55807,89.66074,58,80,0
89.66521,89.76788,60,80,0
89.77235,89.87503,62,80,0
89.87949,89.98217,63,80,0
89.98663,90.08932,65,80,0
90.09378,90.19646,67,80,0
90.20092,91.0536,65,80,0
91.05806,91.13842,63,80,0
91.11163,91.19646,65,80,0
91.16521,91.25449,63,80,0
91.21878,91.3036,65,80,0
91.27235,91.3661,63,80,0
91.32592,91.41967,65,80,0
91.37949,91.46431,62,80,0
91.43306,91.48217,63,80,0
91.48663,91.58931,62,80,0
91.91521,92.01788,67,80,0
92.02235,92.12502,69,80,0
92.12949,92.23217,70,80,0
92.23663,92.33931,72,80,0
92.34377,92.44646,74,80,0
92.45092,92.5536,75,80,0
92.55806,92.66074,77,80,0
92.66521,92.76788,79,80,0
92.77235,93.62502,77,80,0
93.629486,93.70985,75,80,0
93.68306,93.76788,77,80,0
93.73663,93.82592,75,80,0
93.79021,93.87502,77,80,0
93.84377,93.93752,75,80,0
93.89735,93.9911,77,80,0
93.95092,94.035736,74,80,0
94.004486,94.0536,75,80,0
94.05806,94.48217,74,80,0
94.48663,94.58931,72,80,0
94.5402,94.64288,74,80,0
94.59377,94.69645,72,80,0
94.64735,94.75002,74,80,0
94.70092,94.8036,72,80,0
94.754486,94.85717,74,81,0
94.80806,94.910736,71,81,0
94.86163,94.96431,72,81,0
94.9152,95.33931,70,81,0
95.34377,95.44645,68,83,0
95.39735,95.50002,70,84,0
95.45091,95.5536,68,84,0
95.504486,95.60716,70,84,0
95.55806,95.660736,68,84,0
95.61163,95.71431,70,85,0
95.6652,95.76788,67,85,0
95.71877,95.82145,68,85,0
95.77235,96.19645,67,85,0
96.20091,96.25002,65,87,0
96.254486,96.3036,67,88,0
96.30806,96.35716,65,88,0
96.361626,96.410736,67,88,0
96.4152,96.46431,65,88,0
96.46877,96.517876,67,89,0
96.52235,96.57145,64,89,0
96.57591,96.62502,65,89,0
96.629486,97.0536,64,89,0
97.05806,97.160736,63,91,0
97.111626,97.21431,65,91,0
97.1652,97.267876,63,92,0
97.21877,97.32145,65,92,0
97.27234,97.37502,63,92,0
97.32591,97.42859,65,92,0
97.379486,97.48216,62,93,0
97.43306,97.535736,63,93,0
97.486626,97.910736,62,93,0
97.9152,98.017876,63,95,0
97.96877,98.07145,65,95,0
98.02234,98.12502,63,96,0
98.07591,98.17859,65,96,0
98.129486,98.23216,63,96,0
98.18305,98.285736,65,96,0
98.236626,98.3393,62,97,0
98.2902,98.392876,63,97,0
98.34377,98.767876,62,97,0
98.77234,98.87502,63,99,0
98.82591,98.92859,65,99,0
98.879486,98.98216,63,100,0
98.93305,99.035736,65,100,0
98.986626,99.0893,63,100,0
99.0402,99.142876,65,100,0
99.09377,99.19645,62,100,0
99.14734,99.25002,63,80,0
99.20091,99.30359,62,80,0
99.30805,99.410736,58,80,0
99.4152,99.517876,53,80,0
99.52234,99.625015,58,80,0
99.629486,99.73216,62,80,0
99.736626,99.8393,58,80,0
99.843765,99.94645,65,80,0
99.95091,100.05359,62,80,0
100.05805,100.160736,70,80,0
100.1652,100.267876,65,80,0
100.27234,100.375015,74,80,0
100.37948,100.48216,70,80,0
100.486626,100.5893,65,80,0
100.593765,100.69645,62,80,0
100.70091,100.80359,70,80,0
100.80805,100.91073,65,80,0
100.9152,101.017876,74,80,0
101.02234,101.125015,70,80,0
101.12948,101.23216,77,80,0
101.236626,101.3393,74,80,0
101.343765,101.44645,70,80,0
101.45091,101.55359,65,80,0
101.55805,101.66073,74,80,0
101.66519,101.767876,70,80,0
101.77234,101.875015,77,80,0
101.87948,101.98216,74,80,0
101.986626,102.0893,82,80,0
102.093765,102.19644,77,80,0
102.20091,102.30359,74,80,0
102.30805,102.41073,70,80,0
102.41519,102.517876,77,80,0
102.52234,102.625015,74,80,0
102.62948,102.732155,82,80,0
102.736626,102.8393,77,80,0
102.843765,102.94644,86,80,0
102.950905,103.05359,82,80,0
103.05805,103.267876,89,80,0
103.27234,103.482155,77,80,0
103.486626,103.69644,82,80,0
103.700905,103.91073,86,80,0
103.91519,104.125015,89,80,0
104.12948,104.3393,65,87,0
104.343765,104.55359,70,95,0
104.55805,104.76787,74,103,0
104.77233,104.982155,77,110,0
104.98662,105.19644,53,110,0
105.200905,105.41073,58,110,0
105.41519,105.625015,62,110,0
105.62948,105.839294,65,110,0
105.843765,106.05358,70,80,0
106.058044,106.26787,74,80,0
106.27233,106.482155,77,80,0
106.48662,106.69644,75,80,0
106.700905,106.91073,74,80,0
106.91519,107.01787,72,80,0
106.96876,107.07144,74,80,0
107.02233,107.12501,72,80,0
107.075905,107.17858,74,81,0
107.12948,107.232155,72,81,0
107.183044,107.28573,74,81,0
107.23662,107.339294,72,82,0
107.29019,107.39287,74,82,0
107.34376,107.44644,72,82,0
107.39733,107.50001,74,83,0
107.450905,107.55358,72,83,0
107.50448,107.607155,74,83,0
107.558044,107.66073,72,84,0
107.61162,107.714294,74,84,0
107.66519,107.76787,72,84,0
107.71876,107.82144,74,85,0
107.77233,107.87501,72,85,0
107.825905,107.92858,74,85,0
107.87948,107.982155,72,86,0
107.933044,108.03572,74,86,0
107.98662,108.089294,72,86,0
108.04019,108.14287,74,87,0
108.09376,108.19644,72,87,0
108.14733,108.25001,74,87,0
108.200905,108.30358,72,88,0
108.25447,108.357155,74,88,0
108.308044,108.41072,72,88,0
108.36162,108.464294,74,89,0
108.41519,108.51787,72,89,0
108.46876,108.57144,74,89,0
108.52233,108.62501,72,90,0
108.575905,108.67858,74,90,0
108.62947,108.732155,72,90,0
108.683044,108.78572,74,91,0
108.73662,108.839294,72,91,0
108.79019,108.89287,74,91,0
108.84376,108.94644,72,92,0
108.89733,109.00001,74,92,0
108.950905,109.05358,72,92,0
109.00447,109.107155,74,93,0
109.058044,109.16072,72,93,0
109.11162,109.214294,74,93,0
109.165184,109.26787,72,94,0
109.21876,109.321434,74,94,0
109.27233,109.37501,72,94,0
109.325905,109.42858,74,95,0
109.37947,109.482155,72,95,0
109.433044,109.53572,74,95,0
109.48662,109.589294,72,96,0
109.540184,109.64287,74,96,0
109.59376,109.696434,72,96,0
109.64733,109.75001,74,97,0
109.700905,109.80358,72,97,0
109.75447,109.857155,74,97,0
109.808044,109.91072,72,98,0
109.86162,109.964294,74,98,0
109.915184,110.01787,72,98,0
109.96876,110.071434,74,99,0
110.02233,110.12501,72,99,0
110.075905,110.17858,74,99,0
110.12947,110.23215,72,100,0
110.183044,110.28572,74,100,0
110.23662,110.339294,72,100,0
110.290184,110.39287,74,101,0
110.34376,110.446434,72,101,0
110.39733,110.50001,74,101,0
110.4509,110.55358,72,102,0
110.50447,110.60715,74,102,0
110.558044,110.66072,72,102,0
110.61162,110.714294,74,103,0
110.665184,110.76787,72,103,0
110.71876,110.821434,74,103,0
110.77233,110.87501,72,104,0
110.8259,110.92858,74,104,0
110.87947,110.98215,72,104,0
110.933044,111.03572,74,105,0
110.98662,111.089294,72,105,0
111.040184,111.14287,74,105,0
111.09376,111.196434,72,106,0
111.14733,111.25001,74,106,0
111.2009,111.30358,72,106,0
111.25447,111.35715,74,107,0
111.308044,111.41072,72,107,0
111.36161,111.464294,74,107,0
111.415184,111.51786,72,108,0
111.46876,111.571434,74,108,0
111.52233,111.62501,71,108,0
111.5759,111.67858,72,109,0
111.62947,111.839294,77,109,0
111.84376,112.05358,77,110,0
112.058044,112.26786,70,80,0
112.27233,112.48215,70,80,0
112.48661,112.71258,71,80,0
112.717384,112.943344,72,80,0
112.94815,113.19294,73,80,0
113.19815,113.4919,74,80,0
113.49815,114.99294,75,80,0
114.99815,116.49294,67,80,0
116.49815,116.74294,70,80,0
116.49815,116.99294,63,80,0
116.74815,116.99294,69,80,0
116.99815,117.05544,70,80,0
117.05544,117.24294,69,80,0
116.99815,117.49294,63,80,0
117.24815,117.49294,67,80,0
117.49815,117.74294,69,80,0
117.49815,117.99294,63,80,0
117.74815,117.99294,72,80,0
117.99815,118.24294,70,80,0
117.99815,118.49294,62,80,0
118.24815,118.49294,70,80,0
118.49815,118.74294,71,80,0
118.74815,118.99294,72,80,0
118.99815,119.24294,73,80,0
119.24815,119.49294,74,80,0
119.49815,120.99294,75,80,0
120.99815,122.06363,67,80,0
122.06958,122.34934,68,80,0
120.99815,122.635056,63,80,0
122.35529,122.635056,70,80,0
122.64101,123.06363,72,80,0
123.06958,123.20648,65,80,0
122.64101,123.77791,63,80,0
122.64101,123.77791,60,80,0
123.21243,123.77791,65,80,0
124.35529,124.77791,72,80,0
124.78386,124.92077,65,80,0
124.35529,125.492195,63,80,0
124.35529,125.492195,60,80,0
124.92672,125.492195,65,80,0
126.06957,126.66332,65,80,0
126.06957,126.66332,63,80,0
126.06957,126.66332,60,80,0
126.66958,127.26333,65,83,0
126.66958,127.26333,63,83,0
126.66958,127.26333,60,83,0
127.26958,127.86333,65,86,0
127.26958,127.86333,63,86,0
127.26958,127.86333,60,86,0
127.869576,129.66333,66,90,0
127.869576,129.66333,63,90,0
127.869576,129.66333,60,90,0
129.66957,130.3293,66,100,0
129.66957,130.3293,63,100,0
129.66957,130.3293,60,100,0
130.33624,130.99596,66,104,0
130.33624,130.99596,63,104,0
130.33624,130.99596,60,104,0
131.00291,131.79457,66,107,0
131.00291,131.79457,63,107,0
131.00291,131.79457,60,107,0
131.8029,134.7925,67,110,0
131.8029,134.7925,63,110,0
131.8029,134.7925,58,110,0
134.8029,135.0477,67,80,0
134.8029,135.2977,62,80,0
134.8029,135.2977,56,80,0
135.0529,135.2977,65,80,0
135.3029,135.4227,65,80,0
135.4279,135.5477,67,80,0
135.5529,135.6727,65,80,0
135.3029,135.7977,62,80,0
135.3029,135.7977,56,80,0
135.6779,135.7977,64,80,0
135.8029,136.0477,65,80,0
135.8029,136.2977,62,80,0
135.8029,136.2977,56,80,0
136.0529,136.2977,67,80,0
136.3029,136.4227,63,80,0
136.3029,136.4227,55,80,0
136.4279,136.5477,65,80,0
136.5529,136.6727,63,80,0
136.6779,136.7977,62,80,0
136.8029,136.96437,63,80,0
136.96957,137.13103,65,80,0
137.13625,137.2977,67,80,0
137.3029,137.46437,68,80,0
137.46957,137.63103,70,80,0
137.63625,137.7977,72,80,0
137.8029,137.96437,74,80,0
137.96957,138.13103,75,80,0
138.13625,138.2977,77,80,0
138.3029,138.46437,78,80,0
138.46957,138.63103,79,80,0
138.63625,138.7977,80,80,0
138.8029,138.96437,81,80,0
138.96957,139.13103,82,80,0
139.13625,139.2977,83,80,0
139.3029,139.6727,84,80,0
139.6779,139.7977,77,80,0
139.8029,140.7977,77,80,0
140.8029,140.8602,71,80,0
140.8602,141.1675,72,80,0
141.1779,141.2977,65,80,0
141.3029,142.2977,65,80,0
142.3029,142.7977,53,80,0
142.3029,142.7977,51,80,0
142.3029,142.7977,48,80,0
142.8029,143.2977,53,83,0
142.8029,143.2977,51,83,0
142.8029,143.2977,48,83,0
143.3029,143.7977,53,86,0
143.3029,143.7977,51,86,0
143.3029,143.7977,48,86,0
143.8029,145.2977,54,90,0
143.8029,145.2977,51,90,0
143.8029,145.2977,48,90,0
145.3029,145.84268,78,100,0
145.3029,145.84268,75,100,0
145.3029,145.84268,72,100,0
145.84836,146.38814,78,104,0
145.84836,146.38814,75,104,0
145.84836,146.38814,72,104,0
146.39381,146.98756,78,107,0
146.39381,146.98756,75,107,0
146.39381,146.98756,72,107,0
146.99382,148.78757,79,110,0
146.99382,148.78757,75,110,0
148.79381,149.01978,67,80,0
148.79381,149.25055,62,80,0
148.79381,149.25055,56,80,0
149.02458,149.25055,65,80,0
149.25536,149.36594,65,80,0
149.37074,149.48131,67,80,0
149.48611,149.5967,65,80,0
149.25536,149.71208,62,80,0
149.25536,149.71208,56,80,0
149.6015,149.71208,64,80,0
149.71689,149.94286,65,80,0
149.71689,150.17361,62,80,0
149.71689,150.17361,56,80,0
149.94766,150.17361,67,80,0
150.17844,150.60254,63,80,0
150.17844,150.60254,55,80,0
151.46414,151.51324,86,80,0
151.51772,151.78111,87,80,0
151.78557,151.88824,80,80,0
151.89272,152.31682,80,80,0
152.74985,152.79897,74,80,0
152.80342,153.06682,75,80,0
153.07129,153.17397,67,80,0
153.17842,153.60254,67,80,0
154.03557,154.13824,75,80,0
154.14272,154.24539,65,80,0
154.46414,154.56682,75,80,0
154.57129,154.67397,65,80,0
154.89272,154.99539,74,80,0
154.99985,155.10252,65,80,0
155.32127,155.42397,75,80,0
155.42842,155.5311,63,80,0
156.607,156.68735,87,80,0
156.66057,156.74985,89,80,0
156.71414,156.81235,87,80,0
156.76772,156.84807,89,80,0
156.82127,156.91057,87,80,0
156.87485,156.95967,89,80,0
156.92842,157.00877,86,80,0
156.982,157.0311,87,80,0
157.03557,157.45967,80,80,0
157.8927,157.97307,75,80,0
157.94627,158.03557,77,80,0
157.99985,158.09807,75,80,0
158.05342,158.13377,77,80,0
158.107,158.19627,75,80,0
158.16057,158.24539,77,80,0
158.21414,158.2945,74,80,0
158.2677,158.31682,75,80,0
158.32127,158.74539,67,80,0
159.17842,159.2811,75,80,0
159.28557,159.38824,65,80,0
159.607,159.70967,75,80,0
159.71413,159.81682,65,80,0
160.03557,160.13824,74,80,0
160.1427,160.24538,65,80,0
160.46413,160.56682,63,80,0
160.57127,160.67395,65,80,0
160.67842,160.7811,63,80,0
160.78557,160.88824,62,80,0
160.8927,160.99538,63,80,0
160.99985,161.10252,65,80,0
161.107,161.20967,67,80,0
161.21413,161.31682,68,80,0
161.32127,161.5311,70,80,0
161.53555,161.74538,67,80,0
161.74985,161.95967,65,80,0
161.96413,162.17395,68,80,0
162.17842,162.38824,62,80,0
162.3927,162.60252,65,80,0
162.607,162.8168,58,80,0
162.82127,163.0311,62,80,0
163.03555,163.13824,63,80,0
163.1427,163.24538,65,80,0
163.24985,163.35252,63,80,0
163.357,163.45967,62,80,0
163.46413,163.5668,63,80,0
163.57127,163.67395,65,80,0
163.67842,163.7811,67,80,0
163.78555,163.88823,68,80,0
163.8927,163.99538,72,80,0
163.99985,164.10252,70,80,0
164.10698,164.20967,68,80,0
164.21413,164.3168,67,80,0
164.32127,164.5311,65,80,0
164.53555,164.74538,68,80,0
164.74985,164.95967,62,80,0
164.96413,165.17395,65,80,0
165.17842,165.38823,58,80,0
165.3927,165.60252,62,80,0
165.60698,165.8168,63,80,0
165.82127,166.0311,67,80,0
166.03555,166.24538,60,80,0
166.24985,166.45966,63,80,0
166.46413,166.67395,57,80,0
166.6784,166.88823,60,80,0
166.8927,167.10252,53,80,0
167.10698,167.3168,57,80,0
167.32127,167.5311,60,80,0
167.53555,167.74538,64,80,0
167.74985,167.95966,65,80,0
167.96413,168.17395,57,80,0
168.1784,168.38823,58,80,0
168.3927,168.60252,62,80,0
168.60698,168.8168,65,80,0
168.82127,169.03108,69,80,0
169.03555,169.24538,70,80,0
169.24983,169.45966,69,80,0
169.46413,169.67395,70,80,0
169.6784,169.88823,69,80,0
169.8927,170.14813,70,80,0
170.15356,170.409,69,80,0
170.41443,170.66988,70,80,0
170.67531,171.0017,70,80,0
171.00864,171.44464,71,80,0
171.44911,171.55179,65,80,0
171.55626,172.19464,65,80,0
171.00864,172.40894,63,80,0
171.00864,172.40894,59,80,0
172.41339,172.73036,71,80,0
172.73483,172.83751,65,80,0
172.84196,173.48036,65,80,0
172.41339,173.69464,63,80,0
172.41339,173.69464,59,80,0
173.69911,174.12321,65,80,0
173.69911,174.12321,63,80,0
174.12769,174.55179,65,80,0
174.12769,174.55179,63,80,0
174.55626,174.98036,66,80,0
174.55626,174.98036,63,80,0
174.98482,175.8375,63,80,0
174.98482,176.26607,68,80,0
175.84196,176.26607,62,80,0
176.27054,176.69464,77,80,0
176.27054,176.69464,75,80,0
176.69911,177.12321,77,80,0
176.69911,177.12321,75,80,0
177.12769,177.55179,78,80,0
177.12769,177.55179,75,80,0
177.55624,178.40892,75,80,0
177.55624,178.8375,80,80,0
178.41339,178.8375,74,80,0
178.84196,179.26607,67,80,0
178.84196,179.26607,65,80,0
179.27054,179.69464,67,80,0
179.27054,179.69464,65,80,0
179.6991,180.12321,68,80,0
179.6991,180.12321,65,80,0
180.12767,180.98035,65,80,0
180.12767,181.40892,70,80,0
180.98482,181.40892,64,80,0
181.41339,181.8375,79,80,0
181.41339,181.8375,77,80,0
181.84196,182.26607,79,80,0
181.84196,182.26607,77,80,0
182.27052,182.69464,80,80,0
182.27052,182.69464,77,80,0
182.6991,183.55177,77,80,0
182.6991,183.98035,82,80,0
183.55624,183.98035,76,80,0
183.98482,184.40892,85,80,0
184.41339,184.8375,76,80,0
185.27052,185.69464,89,80,0
185.6991,186.1232,77,80,0
187.62767,187.8375,77,80,0
187.84195,188.48035,82,80,0
188.4848,188.5875,81,80,0
188.59195,188.69463,82,80,0
188.6991,188.90892,84,80,0
188.91338,189.1232,82,80,0
189.12767,189.76605,77,80,0
189.77052,189.8732,79,80,0
189.87767,189.98035,77,80,0
189.9848,190.19463,75,80,0
190.1991,190.40892,74,80,0
190.41338,190.51605,78,80,0
190.52052,190.6232,79,80,0
190.84195,190.94463,78,80,0
190.9491,191.05177,79,80,0
191.27052,191.3732,74,80,0
191.37767,191.48035,75,80,0
191.6991,191.80177,71,80,0
191.80623,191.90892,72,80,0
192.77052,192.98035,84,80,0
192.9848,193.6232,87,80,0
193.62766,193.73035,89,80,0
193.7348,193.83748,87,80,0
193.84195,194.05177,86,80,0
194.05623,194.26605,84,80,0
194.27052,194.48035,82,80,0
194.4848,194.69463,81,80,0
194.69908,194.9089,79,80,0
194.91338,195.1232,77,80,0
195.12766,195.33748,75,80,0
195.34195,195.55177,72,80,0
195.55623,195.76605,70,80,0
195.77052,195.98033,74,80,0
195.9848,196.19463,67,80,0
196.19908,196.4089,75,80,0
196.41338,196.6232,69,80,0
196.62766,196.83748,72,80,0
196.84195,196.94463,70,80,0
196.94908,197.05176,62,80,0
197.05623,197.1589,65,80,0
197.16338,197.26605,63,80,0
197.27051,197.34195,62,80,0
197.3464,197.41783,63,80,0
197.46695,197.53838,65,80,0
197.5473,197.61873,67,80,0
197.61426,197.6857,69,80,0
197.69908,197.76605,70,80,0
197.76605,197.83301,69,80,0
197.84195,197.9089,72,80,0
197.91338,197.98033,70,80,0
197.9848,198.05176,74,80,0
198.05623,198.1232,72,80,0
198.12766,198.19463,70,80,0
198.19908,198.26605,69,80,0
198.27051,198.33748,67,80,0
198.34195,198.4089,65,80,0
198.41338,198.48033,67,80,0
198.4848,198.55176,63,80,0
198.55623,198.6232,62,80,0
198.62766,198.69463,65,80,0
198.69908,198.76605,63,80,0
198.77051,198.83748,65,80,0
198.84195,198.9089,67,80,0
198.91338,198.98033,69,80,0
198.9848,199.08748,70,80,0
199.09193,199.19463,69,80,0
199.19908,199.30176,67,80,0
199.30623,199.4089,65,80,0
199.41338,199.51605,67,80,0
199.52051,199.62318,69,80,0
199.62766,199.73033,70,80,0
199.7348,199.83748,72,80,0
199.84193,199.94463,74,80,0
199.94908,200.05176,72,80,0
200.05623,200.1589,70,80,0
200.16338,200.26605,69,80,0
200.27051,200.37318,70,80,0
200.37766,200.48033,72,80,0
200.4848,200.58748,74,80,0
200.59193,200.69463,75,80,0
200.69908,200.80176,79,80,0
200.80623,200.9089,77,80,0
200.91338,201.01605,75,80,0
201.02051,201.12318,74,80,0
201.12766,201.26605,77,80,0
201.27051,201.4089,75,80,0
201.41336,201.55176,74,80,0
201.55623,201.6589,75,80,0
201.66336,201.76605,77,80,0
201.77051,201.87318,79,80,0
201.87766,201.98033,81,80,0
201.9848,202.62318,82,80,0
202.62766,202.73033,81,80,0
202.7348,202.83748,82,80,0
202.84193,202.94461,81,80,0
202.94908,203.05176,82,80,0
203.05623,203.1589,84,80,0
203.16336,203.26605,82,80,0
203.27051,203.9089,77,80,0
203.91336,204.01604,76,80,0
204.02051,204.12318,77,80,0
204.12766,204.23033,79,80,0
204.23479,204.33748,77,80,0
204.34193,204.44461,75,80,0
204.44908,204.55176,74,80,0
204.55623,204.6589,78,80,0
204.66336,204.76604,79,80,0
204.77051,204.87318,78,80,0
204.87766,204.98033,79,80,0
204.98479,205.08748,78,80,0
205.09193,205.19461,79,80,0
205.19908,205.30176,78,80,0
205.30623,205.4089,79,80,0
205.41336,205.51604,74,80,0
205.52051,205.62318,75,80,0
205.62766,205.73033,74,80,0
205.73479,205.83746,75,80,0
205.84193,205.94461,71,80,0
205.94908,206.05176,72,80,0
206.05621,206.1589,71,80,0
206.16336,206.26604,72,80,0
206.91336,207.12318,84,80,0
207.12766,207.76604,87,80,0
207.77051,207.87318,86,80,0
207.87764,207.98033,87,80,0
207.98479,208.08746,89,80,0
208.09193,208.19461,87,80,0
208.19908,208.30176,86,80,0
208.30621,208.40889,84,80,0
208.41336,208.51604,82,80,0
208.52051,208.62318,81,80,0
208.62764,208.73033,86,80,0
208.73479,208.83746,84,80,0
208.84193,208.94461,82,80,0
208.94908,209.05176,81,80,0
209.05621,209.15889,79,80,0
209.16336,209.26604,77,80,0
209.27051,209.37318,75,80,0
209.37764,209.48033,74,80,0
209.48479,209.58746,75,80,0
209.59193,209.80176,72,80,0
209.80621,209.90889,70,80,0
209.91336,210.23032,74,80,0
210.23479,210.33746,67,80,0
210.34193,210.65889,75,80,0
210.66336,210.76604,69,80,0
210.77051,210.98032,72,80,0
210.98479,211.19461,70,80,0
211.41336,211.51604,55,80,0
211.52051,211.62318,57,80,0
211.62764,211.73032,58,80,0
211.73479,211.83746,60,80,0
211.84193,211.94461,62,80,0
211.94907,212.05176,63,80,0
212.05621,212.15889,65,80,0
212.16336,212.26604,67,80,0
212.2705,213.12318,65,80,0
213.12764,213.208,63,80,0
213.18121,213.26604,65,80,0
213.23479,213.32407,63,80,0
213.28836,213.37318,65,80,0
213.34193,213.43568,63,80,0
213.3955,213.48924,65,80,0
213.44907,213.53389,62,80,0
213.50264,213.55174,63,80,0
213.55621,213.65889,62,80,0
213.98479,214.08746,67,80,0
214.09193,214.19461,69,80,0
214.19907,214.30174,70,80,0
214.30621,214.40889,72,80,0
214.41336,214.51604,74,80,0
214.5205,214.62317,75,80,0
214.62764,214.73032,77,80,0
214.73479,214.83746,79,80,0
214.84192,215.69461,77,80,0
215.69907,215.77942,75,80,0
215.75264,215.83746,77,80,0
215.80621,215.8955,75,80,0
215.85979,215.94461,77,80,0
215.91336,216.00711,75,80,0
215.96692,216.06067,77,80,0
216.0205,216.10532,74,80,0
216.07407,216.12317,75,80,0
216.12764,216.55174,74,80,0
216.55621,216.65889,72,80,0
216.60979,216.71246,74,80,0
216.66335,216.76604,72,80,0
216.71692,216.8196,74,81,0
216.7705,216.87317,72,81,0
216.82407,216.92674,74,81,0
216.87764,216.98032,71,82,0
216.93121,217.03389,72,82,0
216.98479,217.40889,70,82,0
217.41335,217.51604,68,85,0
217.46692,217.5696,70,86,0
217.5205,217.62317,68,86,0
217.57407,217.67674,70,86,0
217.62764,217.73032,68,87,0
217.68121,217.78389,70,87,0
217.73479,217.83746,67,87,0
217.78835,217.89104,68,88,0
217.84192,218.26604,67,88,0
218.2705,218.3196,65,91,0
218.32407,218.37317,67,91,0
218.37764,218.42674,65,92,0
218.43121,218.48032,67,92,0
218.48479,218.53389,65,92,0
218.53835,218.58746,67,93,0
218.59192,218.64102,64,93,0
218.6455,218.6946,65,94,0
218.69907,219.12317,64,94,0
219.12764,219.23032,63,97,0
219.18121,219.28389,65,97,0
219.23477,219.33746,63,98,0
219.28835,219.39102,65,98,0
219.34192,219.4446,63,98,0
219.3955,219.49817,65,99,0
219.44907,219.55174,62,99,0
219.50264,219.60532,63,99,0
219.55621,219.98032,62,100,0
219.98477,220.08746,63,103,0
220.03835,220.14102,65,103,0
220.09192,220.1946,63,103,0
220.1455,220.24817,65,104,0
220.19907,220.30174,63,104,0
220.25264,220.35532,65,104,0
220.30621,220.40889,62,105,0
220.35977,220.46246,63,105,0
220.41335,220.83745,62,105,0
220.84192,220.9446,63,108,0
220.8955,220.99817,65,109,0
220.94907,221.05174,63,109,0
221.00264,221.10532,65,109,0
221.0562,221.15889,63,110,0
221.10977,221.21245,65,110,0
221.16335,221.26602,62,110,0
221.21692,221.3196,63,80,0
221.2705,221.37317,62,80,0
221.37764,221.48032,58,80,0
221.48477,221.58745,53,80,0
221.59192,221.6946,58,80,0
221.69907,221.80174,62,80,0
221.8062,221.90889,58,80,0
221.91335,222.01602,65,80,0
222.0205,222.12317,62,80,0
222.12764,222.23032,70,80,0
222.23477,222.33745,65,80,0
222.34192,222.4446,74,80,0
222.44907,222.55174,70,80,0
222.5562,222.65889,65,80,0
222.66335,222.76602,62,80,0
222.7705,222.87317,70,80,0
222.87764,222.98032,65,80,0
222.98477,223.08745,74,80,0
223.09192,223.1946,70,80,0
223.19907,223.30174,77,80,0
223.3062,223.40887,74,80,0
223.41335,223.51602,70,80,0
223.5205,223.62317,65,80,0
223.62762,223.73032,74,80,0
223.73477,223.83745,70,80,0
223.84192,223.9446,77,80,0
223.94907,224.05174,74,80,0
224.0562,224.15887,82,80,0
224.16335,224.26602,77,80,0
224.2705,224.37317,74,80,0
224.37762,224.48032,70,80,0
224.48477,224.58745,77,80,0
224.59192,224.6946,74,80,0
224.69907,224.80174,82,80,0
224.8062,224.90887,77,80,0
224.91335,225.01602,86,80,0
225.0205,225.12317,82,80,0
225.12762,225.33745,89,80,0
225.34192,225.55174,77,80,0
225.5562,225.76602,82,80,0
225.7705,225.9803,86,80,0
225.98477,226.1946,89,80,0
226.19905,226.40887,65,87,0
226.41335,226.62317,70,95,0
226.62762,226.83745,74,103,0
226.84192,227.05174,77,110,0
227.0562,227.26602,53,110,0
227.2705,227.4803,58,110,0
227.48477,227.6946,62,110,0
227.69905,227.90887,65,110,0
227.91335,228.12317,70,80,0
228.12762,228.33745,74,80,0
228.34192,228.55173,77,80,0
228.5562,228.76602,75,80,0
228.77048,228.9803,74,80,0
228.98477,229.08745,72,80,0
229.03835,229.14102,74,80,0
229.09192,229.1946,72,80,0
229.14548,229.24817,74,81,0
229.19905,229.30173,72,81,0
229.25262,229.3553,74,81,0
229.3062,229.40887,72,82,0
229.35977,229.46245,74,82,0
229.41335,229.51602,72,82,0
229.46692,229.5696,74,83,0
229.52048,229.62315,72,83,0
229.57405,229.67673,74,83,0
229.62762,229.7303,72,84,0
229.6812,229.78387,74,84,0
229.73477,229.83745,72,84,0
229.78835,229.89102,74,85,0
229.8419,229.9446,72,85,0
229.89548,229.99815,74,85,0
229.94905,230.05173,72,86,0
230.00262,230.1053,74,86,0
230.0562,230.15887,72,86,0
230.10977,230.21245,74,87,0
230.16335,230.26602,72,87,0
230.2169,230.3196,74,87,0
230.27048,230.37315,72,88,0
230.32405,230.42673,74,88,0
230.37762,230.4803,72,88,0
230.4312,230.53387,74,89,0
230.48477,230.58745,72,89,0
230.53835,230.64102,74,89,0
230.5919,230.6946,72,90,0
230.64548,230.74815,74,90,0
230.69905,230.80173,72,90,0
230.75262,230.8553,74,91,0
230.8062,230.90887,72,91,0
230.85977,230.96245,74,91,0
230.91335,231.01602,72,92,0
230.9669,231.0696,74,92,0
231.02048,231.12315,72,92,0
231.07405,231.17673,74,93,0
231.12762,231.2303,72,93,0
231.1812,231.28387,74,93,0
231.23477,231.33745,72,94,0
231.28835,231.39102,74,94,0
231.3419,231.4446,72,94,0
231.39548,231.49815,74,95,0
231.44905,231.55173,72,95,0
231.50262,231.6053,74,95,0
231.5562,231.65887,72,96,0
231.60977,231.71245,74,96,0
231.66335,231.76602,72,96,0
231.7169,231.81958,74,97,0
231.77048,231.87315,72,97,0
231.82405,231.92673,74,97,0
231.87762,231.9803,72,98,0
231.9312,232.03387,74,98,0
231.98477,232.08745,72,98,0
232.03833,232.14102,74,99,0
232.0919,232.19458,72,99,0
232.14548,232.24815,74,99,0
232.19905,232.30173,72,100,0
232.25262,232.3553,74,100,0
232.3062,232.40887,72,100,0
232.35977,232.46245,74,101,0
232.41333,232.51602,72,101,0
232.4669,232.56958,74,101,0
232.52048,232.62315,72,102,0
232.57405,232.67673,74,102,0
232.62762,232.7303,72,102,0
232.6812,232.78387,74,103,0
232.73477,232.83745,72,103,0
232.78833,232.89102,74,103,0
232.8419,232.94458,72,104,0
232.89548,232.99815,74,104,0
232.94905,233.05173,72,104,0
233.00262,233.1053,74,105,0
233.0562,233.15887,72,105,0
233.10977,233.21245,74,105,0
233.16333,233.26602,72,106,0
233.2169,233.31958,74,106,0
233.27048,233.37315,72,106,0
233.32405,233.42673,74,107,0
233.37762,233.4803,72,107,0
233.4312,233.53387,74,107,0
233.48477,233.58745,72,108,0
233.53833,233.64102,74,108,0
233.5919,233.69458,71,108,0
233.64548,233.74815,72,109,0
233.69905,233.90887,77,109,0
233.91333,234.12315,77,110,0
234.12762,234.33745,70,80,0
234.3419,234.55173,70,80,0
234.5562,234.78215,71,80,0
234.78696,235.01292,72,80,0
235.01773,235.26253,73,80,0
235.26773,235.56148,74,80,0
235.56773,237.36148,75,80,0
237.36774,239.16148,67,80,0
239.16772,239.39369,70,80,0
239.16772,239.62447,63,80,0
239.3985,239.62447,69,80,0
239.62927,239.68216,70,80,0
239.68216,239.85522,69,80,0
239.62927,240.086,63,80,0
239.86003,240.086,67,80,0
240.0908,240.31677,69,80,0
240.0908,240.54753,63,80,0
240.32158,240.54753,72,80,0
240.55234,240.7783,70,80,0
240.55234,241.00908,62,80,0
240.78311,241.00908,70,80,0
241.01389,241.23984,71,80,0
241.24464,241.47061,72,80,0
241.47542,241.70139,73,80,0
241.70619,241.93214,74,80,0
241.93695,243.31676,75,80,0
243.32158,244.34859,67,80,0
244.35454,244.6343,68,80,0
243.32158,244.92001,63,80,0
244.64026,244.92001,70,80,0
244.92596,245.34859,72,80,0
245.35454,245.49144,65,80,0
244.92596,246.6343,63,80,0
244.92596,246.6343,60,80,0
245.49739,246.6343,65,80,0
246.64024,247.06287,72,80,0
247.06882,247.20572,65,80,0
246.64024,248.34859,63,80,0
246.64024,248.34859,60,80,0
247.21169,248.34859,65,80,0
248.35454,248.92001,65,80,0
248.35454,248.92001,60,80,0
248.35454,248.92001,53,80,0
248.35454,248.92001,63,80,0
248.92596,249.49144,65,83,0
248.92596,249.49144,60,83,0
248.92596,249.49144,53,83,0
248.92596,249.49144,63,83,0
249.49739,250.06287,65,86,0
249.49739,250.06287,60,86,0
249.49739,250.06287,53,86,0
249.49739,250.06287,63,86,0
250.06882,251.86256,66,90,0
250.06882,251.86256,63,90,0
250.06882,251.86256,60,90,0
250.06882,251.86256,54,90,0
251.86882,252.46257,66,100,0
251.86882,252.46257,60,100,0
251.86882,252.46257,54,100,0
251.86882,252.46257,63,100,0
252.46881,253.06256,66,104,0
252.46881,253.06256,60,104,0
252.46881,253.06256,54,104,0
252.46881,253.06256,63,104,0
253.06882,253.66257,66,107,0
253.06882,253.66257,60,107,0
253.06882,253.66257,54,107,0
253.06882,253.66257,63,107,0
253.66882,255.55698,67,110,0
253.66882,255.55698,63,110,0
253.66882,255.55698,60,110,0
253.66882,255.55698,55,110,0
255.56355,256.18854,67,110,0
255.56355,256.18854,63,110,0
255.56355,256.18854,60,110,0
255.56355,256.18854,55,110,0
256.19513,256.82013,67,110,0
256.19513,256.82013,63,110,0
256.19513,256.82013,60,110,0
256.19513,256.82013,55,110,0
256.82672,257.45172,67,110,0
256.82672,257.45172,63,110,0
256.82672,257.45172,60,110,0
256.82672,257.45172,55,110,0
257.45828,258.08328,69,110,0
257.45828,258.08328,63,110,0
257.45828,258.08328,60,110,0
257.45828,258.08328,57,110,0
258.08987,258.40683,87,110,0
258.4113,258.51398,81,110,0
258.51843,258.94254,81,110,0
259.37558,259.69254,68,110,0
259.697,259.79968,62,110,0
259.80414,260.22824,62,110,0
260.6613,260.97824,55,110,0
260.98273,261.0854,48,110,0
261.08987,261.51398,48,110,0
262.37558,262.79968,50,110,0
262.37558,262.79968,53,110,0
262.37558,262.79968,55,110,0
264.08984,264.13898,83,80,0
264.13898,264.3979,84,80,0
264.4113,264.51398,77,80,0
264.51843,264.94254,77,80,0
265.37558,265.42468,71,80,0
265.42468,265.6836,72,80,0
265.697,265.79968,64,80,0
265.80414,266.22824,64,80,0
266.6613,266.76398,72,80,0
266.76843,266.8711,62,80,0
267.08984,267.19254,72,80,0
267.197,267.29968,62,80,0
267.51843,267.6211,71,80,0
267.62558,267.72824,62,80,0
267.947,268.04968,72,80,0
268.05414,268.15683,60,80,0
269.2327,269.3354,84,80,0
269.2863,269.38895,86,80,0
269.33984,269.44254,84,80,0
269.39343,269.4961,86,80,0
269.447,269.54968,84,80,0
269.50058,269.60324,86,80,0
269.55414,269.65683,83,80,0
269.6077,269.65683,84,80,0
269.6613,270.0854,77,80,0
270.51843,270.6211,72,80,0
270.572,270.67468,74,80,0
270.62558,270.72824,72,80,0
270.67914,270.78183,74,80,0
270.7327,270.8354,72,80,0
270.7863,270.88895,74,80,0
270.83984,270.94254,71,80,0
270.89343,270.94254,72,80,0
270.947,271.3711,64,80,0
271.80414,271.9068,72,80,0
271.9113,272.01395,62,80,0
272.2327,272.3354,72,80,0
272.33984,272.44254,62,80,0
272.6613,272.76395,71,80,0
272.76843,272.8711,62,80,0
273.08984,273.29968,72,80,0
273.08984,273.29968,60,80,0
273.30414,273.51395,55,80,0
273.30414,273.51395,52,80,0
273.51843,273.72824,55,80,0
273.51843,273.72824,52,80,0
273.7327,273.94254,55,80,0
273.7327,273.94254,52,80,0
273.947,274.1568,55,80,0
273.947,274.1568,52,80,0
274.1613,274.3711,55,80,0
274.1613,274.3711,52,80,0
274.37555,274.5854,55,80,0
274.37555,274.5854,53,80,0
274.58984,274.79968,55,80,0
274.58984,274.79968,53,80,0
274.80414,275.01395,55,80,0
274.80414,275.01395,53,80,0
275.01843,275.22824,55,80,0
275.01843,275.22824,53,80,0
275.2327,275.44254,55,80,0
275.2327,275.44254,53,80,0
275.447,275.6568,55,80,0
275.447,275.6568,53,80,0
275.6613,275.8711,55,80,0
275.6613,275.8711,52,80,0
275.87555,276.0854,55,80,0
275.87555,276.0854,52,80,0
276.08984,276.29965,55,80,0
276.08984,276.29965,52,80,0
276.30414,276.51395,55,80,0
276.30414,276.51395,52,80,0
276.5184,276.72824,55,80,0
276.5184,276.72824,52,80,0
276.7327,276.94254,55,80,0
276.7327,276.94254,52,80,0
276.947,277.1568,55,80,0
276.947,277.1568,53,80,0
277.1613,277.3711,55,80,0
277.1613,277.3711,53,80,0
277.37555,277.5854,55,80,0
277.37555,277.5854,53,80,0
277.58984,277.79965,55,80,0
277.58984,277.79965,53,80,0
277.80414,278.01395,55,80,0
277.80414,278.01395,53,80,0
278.0184,278.22824,55,80,0
278.0184,278.22824,53,80,0
278.2327,278.44254,55,80,0
278.2327,278.44254,52,80,0
278.447,278.6568,55,80,0
278.447,278.6568,52,80,0
278.6613,278.8711,55,80,0
278.6613,278.8711,52,80,0
278.87555,279.0854,55,80,0
278.87555,279.0854,52,80,0
279.08984,279.29965,55,80,0
279.08984,279.29965,52,80,0
279.30414,279.51395,55,80,0
279.30414,279.51395,52,80,0
279.5184,279.72824,55,80,0
279.5184,279.72824,53,80,0
279.7327,279.94254,55,80,0
279.7327,279.94254,53,80,0
279.947,280.1568,55,80,0
279.947,280.1568,53,80,0
280.1613,280.3711,55,80,0
280.1613,280.3711,53,80,0
280.37555,280.5854,55,80,0
280.37555,280.5854,53,80,0
280.58984,280.79965,55,80,0
280.58984,280.79965,53,80,0
280.91125,281.01395,52,110,0
281.0184,281.1211,60,110,0
281.12555,281.22824,55,110,0
281.2327,281.3354,64,110,0
281.33984,281.4425,60,110,0
281.447,281.54965,67,110,0
281.55414,281.6568,64,110,0
281.66125,281.76395,72,110,0
281.7684,281.8711,67,110,0
281.87555,281.97824,76,110,0
281.9827,282.0854,72,110,0
282.08984,282.9425,79,110,0
282.947,283.04965,70,110,0
283.00055,283.10324,72,110,0
283.05414,283.1568,70,110,0
283.1077,283.2104,72,110,0
283.16125,283.26395,70,110,0
283.21484,283.3175,72,110,0
283.2684,283.3711,69,110,0
283.322,283.3711,70,110,0
283.37555,283.5854,69,110,0
283.58984,283.79965,60,80,0
283.58984,283.79965,57,80,0
283.80414,284.01395,60,80,0
283.80414,284.01395,57,80,0
284.0184,284.22824,60,80,0
284.0184,284.22824,57,80,0
284.2327,284.4425,60,80,0
284.2327,284.4425,57,80,0
284.447,284.6568,60,80,0
284.447,284.6568,57,80,0
284.66125,284.8711,60,80,0
284.66125,284.8711,58,80,0
284.87555,285.08536,60,80,0
284.87555,285.08536,58,80,0
285.08984,285.29965,60,80,0
285.08984,285.29965,58,80,0
285.3041,285.51395,60,80,0
285.3041,285.51395,58,80,0
285.5184,285.72824,60,80,0
285.5184,285.72824,58,80,0
285.7327,285.9425,60,80,0
285.7327,285.9425,58,80,0
285.947,286.1568,60,80,0
285.947,286.1568,57,80,0
286.16125,286.3711,60,80,0
286.16125,286.3711,57,80,0
286.37555,286.58536,60,80,0
286.37555,286.58536,57,80,0
286.58984,286.79965,60,80,0
286.58984,286.79965,57,80,0
286.8041,287.01395,60,80,0
286.8041,287.01395,57,80,0
287.0184,287.22824,60,80,0
287.0184,287.22824,57,80,0
287.2327,287.4425,60,80,0
287.2327,287.4425,58,80,0
287.447,287.6568,60,80,0
287.447,287.6568,58,80,0
287.66125,287.8711,60,80,0
287.66125,287.8711,58,80,0
287.87555,288.08536,60,80,0
287.87555,288.08536,58,80,0
288.08984,288.29965,60,80,0
288.08984,288.29965,58,80,0
288.3041,288.51395,60,80,0
288.3041,288.51395,58,80,0
288.5184,288.72824,60,80,0
288.5184,288.72824,57,80,0
288.7327,288.9425,60,80,0
288.7327,288.9425,57,80,0
288.947,289.1568,60,80,0
288.947,289.1568,57,80,0
289.16125,289.3711,60,80,0
289.16125,289.3711,57,80,0
289.37555,289.58536,60,80,0
289.37555,289.58536,57,80,0
289.58984,289.79965,60,80,0
289.58984,289.79965,57,80,0
289.8041,290.01395,60,80,0
289.8041,290.01395,58,80,0
290.0184,290.2282,60,80,0
290.0184,290.2282,58,80,0
290.2327,290.4425,60,80,0
290.2327,290.4425,58,80,0
290.44696,290.6568,60,80,0
290.44696,290.6568,58,80,0
290.66125,290.8711,60,80,0
290.66125,290.8711,58,80,0
290.87555,291.08536,60,80,0
290.87555,291.08536,58,80,0
291.19696,291.29965,57,110,0
291.3041,291.4068,65,110,0
291.41125,291.51395,60,110,0
291.5184,291.6211,69,110,0
291.62555,291.7282,65,110,0
291.7327,291.83536,72,110,0
291.83984,291.9425,69,110,0
291.94696,292.04965,77,110,0
292.0541,292.1568,72,110,0
292.16125,292.26395,81,110,0
292.2684,292.3711,77,110,0
292.37555,293.2282,84,110,0
293.2327,293.33536,75,110,0
293.28625,293.38895,77,110,0
293.33984,293.4425,75,110,0
293.3934,293.4961,77,110,0
293.44696,293.54965,75,110,0
293.50055,293.6032,77,110,0
293.5541,293.6568,74,110,0
293.6077,293.6568,75,110,0
293.66125,293.76395,73,110,0
293.7684,293.87106,65,110,0
293.87555,293.9782,70,110,0
293.9827,294.08536,65,110,0
294.0898,294.1925,73,110,0
294.19696,294.29965,70,110,0
294.3041,294.4068,77,110,0
294.41125,294.51395,73,110,0
294.5184,294.62106,82,110,0
294.62555,294.7282,77,110,0
294.7327,294.83536,85,110,0
294.8398,294.9425,82,110,0
294.94696,295.79965,89,110,0
295.8041,295.9068,80,110,0
295.8577,295.96036,82,110,0
295.91125,296.01395,80,110,0
295.9648,296.0675,82,110,0
296.0184,296.12106,80,110,0
296.07196,296.17465,82,110,0
296.12555,296.2282,79,110,0
296.1791,296.2282,80,110,0
296.2327,296.33536,79,110,0
296.3398,296.4425,55,110,0
296.44696,296.54965,63,110,0
296.5541,296.6568,58,110,0
296.66125,296.76395,67,110,0
296.7684,296.87106,63,110,0
296.87555,296.9782,70,110,0
296.9827,297.08536,67,110,0
297.0898,297.1925,75,110,0
297.19696,297.29965,70,110,0
297.3041,297.4068,79,110,0
297.41125,297.51395,75,110,0
297.5184,298.37106,82,110,0
298.37555,298.4782,73,105,0
298.4291,298.5318,75,105,0
298.48267,298.58536,73,105,0
298.53625,298.63892,75,105,0
298.5898,298.6925,73,104,0
298.6434,298.74606,75,104,0
298.69696,298.79965,72,104,0
298.75055,298.79965,73,103,0
298.8041,299.2282,72,103,0
299.66125,299.76392,72,98,0
299.7148,299.8175,73,98,0
299.7684,299.87106,72,97,0
299.82196,299.92465,73,97,0
299.87555,299.9782,72,97,0
299.9291,300.0318,73,96,0
299.98267,300.08536,71,96,0
300.03625,300.08536,72,96,0
300.0898,300.51392,84,95,0
300.94696,301.04965,72,90,0
301.00055,301.1032,73,90,0
301.0541,301.1568,72,90,0
301.10767,301.21036,73,89,0
301.16125,301.26392,72,89,0
301.2148,301.3175,73,89,0
301.2684,301.37106,71,88,0
301.32196,301.37106,72,88,0
301.37555,301.79965,84,88,0
302.23267,302.33536,72,83,0
302.28625,302.38892,73,82,0
302.3398,302.4425,72,82,0
302.3934,302.49606,73,82,0
302.44696,302.54965,72,81,0
302.50052,302.6032,73,81,0
302.5541,302.65677,71,81,0
302.60767,302.65677,72,81,0
302.66125,303.08536,84,80,0
303.73267,303.9425,60,80,0
303.94696,304.15677,65,80,0
304.16125,304.37106,68,80,0
304.37552,304.58536,72,80,0
305.44696,305.65677,60,80,0
305.66125,305.87106,65,80,0
305.87552,306.08536,68,80,0
306.0898,306.29965,72,80,0
307.16125,307.37106,60,80,0
307.37552,307.58536,65,80,0
307.5898,307.79962,68,80,0
307.8041,308.01392,72,80,0
308.01837,308.2282,60,80,0
308.23267,308.4425,65,81,0
308.44696,308.65677,68,83,0
308.66125,308.87106,72,84,0
308.87552,309.08536,60,86,0
309.0898,309.31577,65,88,0
309.3206,309.54654,68,89,0
309.55136,309.79614,72,91,0
310.05136,311.0275,65,94,0
310.32407,311.0275,68,96,0
310.62408,311.0275,72,97,0
311.03317,311.16385,65,100,0
311.16953,311.98203,65,100,0
309.80136,312.25476,60,92,0
312.26044,312.66385,72,80,0
312.66953,312.8002,65,80,0
312.8059,313.6184,65,80,0
313.8968,314.43658,65,80,0
313.8968,314.43658,63,80,0
313.8968,314.43658,60,80,0
314.44226,314.98203,65,83,0
314.44226,314.98203,63,83,0
314.44226,314.98203,60,83,0
314.9877,315.5275,65,86,0
314.9877,315.5275,63,86,0
314.9877,315.5275,60,86,0
315.53317,317.16385,66,90,0
315.53317,317.16385,63,90,0
315.53317,317.16385,60,90,0
317.16953,317.7093,66,100,0
317.16953,317.7093,63,100,0
317.16953,317.7093,60,100,0
317.71497,318.3747,66,104,0
317.71497,318.3747,63,104,0
317.71497,318.3747,60,104,0
318.38165,319.1733,66,107,0
318.38165,319.1733,63,107,0
318.38165,319.1733,60,107,0
319.18164,321.3428,67,110,0
319.18164,321.3428,63,110,0
319.18164,321.3428,58,110,0
321.3503,321.6126,67,80,0
321.3503,321.88046,62,80,0
321.3503,321.88046,56,80,0
321.61816,321.88046,65,80,0
321.88605,322.01437,65,80,0
322.01996,322.14832,67,80,0
322.1539,322.28223,65,80,0
321.88605,322.41617,62,80,0
321.88605,322.41617,56,80,0
322.2878,322.41617,64,80,0
322.42175,322.68402,65,80,0
322.42175,322.95187,62,80,0
322.42175,322.95187,56,80,0
322.6896,322.95187,67,80,0
322.95746,323.08582,63,80,0
322.95746,323.08582,55,80,0
323.0914,323.21973,65,80,0
323.2253,323.35367,63,80,0
323.35925,323.4876,62,80,0
323.49316,323.66617,63,80,0
323.67175,323.84473,65,80,0
323.8503,324.02332,67,80,0
324.0289,324.20187,68,80,0
324.20746,324.38046,70,80,0
324.38602,324.55902,72,80,0
324.5646,324.73758,74,80,0
324.74316,324.91617,75,80,0
324.92175,325.09473,77,80,0
325.1003,325.27332,78,80,0
325.2789,325.45187,79,80,0
325.45746,325.63046,80,80,0
325.63602,325.80902,81,80,0
325.8146,325.98758,82,80,0
325.99316,326.16617,83,80,0
326.17175,326.56796,84,80,0
326.57352,326.70187,77,80,0
326.70746,327.77332,77,80,0
327.7789,327.84027,71,80,0
327.84027,328.16953,72,80,0
328.18066,328.30902,65,80,0
328.3146,329.38046,65,80,0
329.38602,329.91617,53,80,0
329.38602,329.91617,51,80,0
329.38602,329.91617,48,80,0
329.92175,330.45187,53,83,0
329.92175,330.45187,51,83,0
329.92175,330.45187,48,83,0
330.45746,330.98758,53,86,0
330.45746,330.98758,51,86,0
330.45746,330.98758,48,86,0
330.99316,332.59473,54,90,0
330.99316,332.59473,51,90,0
330.99316,332.59473,48,90,0
332.6003,333.13043,78,100,0
332.6003,333.13043,75,100,0
332.6003,333.13043,72,100,0
333.13602,333.72977,78,104,0
333.13602,333.72977,75,104,0
333.13602,333.72977,72,104,0
333.73602,334.4782,78,107,0
333.73602,334.4782,75,107,0
333.73602,334.4782,72,107,0
334.48602,336.7282,79,110,0
334.48602,336.7282,75,110,0
336.73602,336.9808,67,80,0
336.73602,337.2308,62,80,0
336.73602,337.2308,56,80,0
336.98602,337.2308,65,80,0
337.23602,337.3558,65,80,0
337.36102,337.4808,67,80,0
337.48602,337.6058,65,80,0
337.23602,337.7308,62,80,0
337.23602,337.7308,56,80,0
337.61102,337.7308,64,80,0
337.73602,337.9808,65,80,0
337.73602,338.2308,62,80,0
337.73602,338.2308,56,80,0
337.98602,338.2308,67,80,0
338.23602,338.66013,63,80,0
338.23602,338.66013,55,80,0
339.52173,339.57086,86,80,0
339.57532,339.8387,87,80,0
339.84317,339.94586,80,80,0
339.95032,340.37442,80,80,0
340.80746,340.85657,74,80,0
340.86102,341.12442,75,80,0
341.12888,341.23157,67,80,0
341.23602,341.66013,67,80,0
342.09317,342.19583,75,80,0
342.20032,342.30298,65,80,0
342.52173,342.62442,75,80,0
342.62888,342.73157,65,80,0
342.95032,343.05298,74,80,0
343.05746,343.16013,65,80,0
343.37888,343.48157,75,80,0
343.48602,343.5887,63,80,0
344.77173,344.87442,87,80,0
344.87888,344.98157,86,80,0
344.98602,345.08868,87,80,0
345.09317,345.19583,86,80,0
345.20032,345.30298,87,80,0
345.30743,345.41013,89,80,0
345.41458,345.51727,87,80,0
345.52173,345.94583,80,80,0
346.05743,346.16013,75,80,0
346.16458,346.26727,74,80,0
346.27173,346.37442,75,80,0
346.37888,346.48157,74,80,0
346.48602,346.58868,75,80,0
346.59317,346.69583,77,80,0
346.70032,346.80298,75,80,0
346.80743,347.23157,67,80,0
347.34317,347.44583,65,80,0
347.45032,347.55298,74,80,0
347.55743,347.66013,75,80,0
347.77173,347.87442,65,80,0
347.87888,347.98157,74,80,0
347.98602,348.08868,75,80,0
348.20032,348.30298,65,80,0
348.30743,348.41013,73,80,0
348.41458,348.51727,74,80,0
348.52173,348.62442,63,80,0
348.52173,348.62442,75,80,0
348.62888,348.73157,65,80,0
348.73602,348.83868,63,80,0
348.84317,348.94583,62,80,0
348.9503,349.05298,63,80,0
349.05743,349.16013,65,80,0
349.16458,349.26727,67,80,0
349.27173,349.37442,68,80,0
349.37888,349.58868,70,80,0
349.59317,349.80298,67,80,0
349.80743,350.01727,65,80,0
350.02173,350.23154,68,80,0
350.23602,350.44583,62,80,0
350.4503,350.66013,65,80,0
350.66458,350.87442,58,80,0
350.87888,351.08868,62,80,0
351.09317,351.19583,63,80,0
351.2003,351.30298,65,80,0
351.30743,351.41013,63,80,0
351.41458,351.51727,62,80,0
351.52173,351.62442,63,80,0
351.62888,351.73154,65,80,0
351.73602,351.83868,67,80,0
351.84317,351.94583,68,80,0
351.9503,352.05298,72,80,0
352.05743,352.16013,70,80,0
352.16458,352.26727,68,80,0
352.27173,352.37442,67,80,0
352.37888,352.58868,65,80,0
352.59317,352.80298,68,80,0
352.80743,353.01727,62,80,0
353.02173,353.23154,65,80,0
353.23602,353.44583,58,80,0
353.4503,353.66013,62,80,0
353.66458,353.8744,63,80,0
353.87888,354.08868,67,80,0
354.09314,354.30298,60,80,0
354.30743,354.51727,63,80,0
354.52173,354.73154,57,80,0
354.73602,354.94583,60,80,0
354.9503,355.16013,53,80,0
355.16458,355.3744,57,80,0
355.37888,355.58868,60,80,0
355.59314,355.80298,64,80,0
355.80743,356.01727,65,80,0
356.02173,356.23154,57,80,0
356.23602,356.44583,58,80,0
356.4503,356.66013,62,86,0
356.66458,356.8744,65,92,0
356.87888,357.08868,69,98,0
357.09314,357.30298,70,104,0
357.30743,357.51727,74,110,0
357.52173,357.74768,77,110,0
357.7525,357.97845,81,110,0
357.98325,358.44,82,110,0
360.3448,360.63855,82,80,0
360.6448,361.2832,87,80,0
361.28766,361.39032,86,80,0
361.3948,361.49747,87,80,0
361.50195,361.71176,89,80,0
361.71622,361.92606,87,80,0
361.9305,362.5689,82,80,0
362.57336,362.67606,84,80,0
362.6805,362.7832,82,80,0
362.78766,362.99747,80,80,0
363.00195,363.21176,79,80,0
363.21622,363.3189,83,80,0
363.32336,363.42606,84,80,0
363.6448,363.74747,83,80,0
363.75192,363.8546,84,80,0
364.07336,364.17606,79,80,0
364.1805,364.28317,80,80,0
364.50192,364.6046,76,80,0
364.60907,364.71176,77,80,0
365.57336,365.78317,77,80,0
365.78766,366.42606,80,80,0
366.4305,366.53317,82,80,0
366.53766,366.64032,80,80,0
366.6448,366.8546,79,80,0
366.85907,367.0689,77,80,0
367.07336,367.28317,75,80,0
367.28766,367.49747,74,80,0
367.50192,367.71176,72,80,0
367.71622,367.92606,70,80,0
367.9305,368.14032,68,80,0
368.14478,368.3546,65,80,0
368.35907,368.5689,63,80,0
368.57336,368.78317,67,80,0
368.78766,368.99747,60,80,0
369.00192,369.21176,68,80,0
369.21622,369.42603,62,80,0
369.4305,369.64032,65,80,0
369.64478,369.74747,63,80,0
369.75192,369.8546,55,80,0
369.85907,369.96176,58,80,0
369.96622,370.0689,56,80,0
370.07336,370.15372,55,80,0
370.15817,370.23853,56,80,0
370.243,370.32336,58,80,0
370.32782,370.40817,60,80,0
370.41266,370.493,62,80,0
370.50192,370.5689,63,80,0
370.57336,370.64032,62,80,0
370.64478,370.71176,65,80,0
370.71622,370.78317,63,80,0
370.78766,370.8546,67,80,0
370.85907,370.92603,65,80,0
370.9305,370.99747,63,80,0
371.00192,371.0689,62,80,0
371.07336,371.14032,60,80,0
371.14478,371.21176,58,80,0
371.21622,371.28317,60,80,0
371.28766,371.3546,56,80,0
371.35907,371.42603,55,80,0
371.4305,371.49747,58,80,0
371.50192,371.5689,56,80,0
371.57336,371.64032,55,80,0
371.64478,371.71176,56,80,0
371.71622,371.78317,58,80,0
371.78766,371.8546,60,80,0
371.85907,371.92603,62,80,0
371.9305,371.99747,63,80,0
372.00192,372.0689,62,80,0
372.07336,372.14032,60,80,0
372.14478,372.21176,58,80,0
372.21622,372.3189,60,80,0
372.32336,372.42603,62,80,0
372.4305,372.53317,63,80,0
372.53763,372.64032,65,80,0
372.64478,372.74747,67,80,0
372.75192,372.8546,65,80,0
372.85907,372.96176,63,80,0
372.96622,373.06888,62,80,0
373.07336,373.17603,63,80,0
373.1805,373.28317,65,80,0
373.28763,373.39032,67,80,0
373.39478,373.49747,68,80,0
373.50192,373.6046,72,80,0
373.60907,373.71176,70,80,0
373.71622,373.81888,68,80,0
373.82336,373.92603,67,80,0
373.9305,374.03317,68,80,0
374.03763,374.14032,70,80,0
374.14478,374.24747,72,80,0
374.25192,374.3546,74,80,0
374.35907,374.46176,75,80,0
374.46622,374.56888,74,80,0
374.57336,374.67603,72,80,0
374.6805,374.78317,70,80,0
374.78763,374.89032,72,80,0
374.89478,374.99747,74,80,0
375.00192,375.1046,75,80,0
375.10907,375.21176,77,80,0
375.21622,375.31888,79,80,0
375.32336,375.42603,77,80,0
375.4305,375.53317,75,80,0
375.53763,375.64032,74,80,0
375.64478,375.74747,75,80,0
375.75192,375.8546,77,80,0
375.85907,375.96176,79,80,0
375.96622,376.06888,80,80,0
376.07336,376.17603,84,80,0
376.1805,376.28317,82,80,0
376.28763,376.39032,80,80,0
376.39478,376.49747,79,80,0
376.50192,376.64032,82,80,0
376.64478,376.78317,80,80,0
376.78763,376.92603,79,80,0
376.93048,377.03317,80,80,0
377.03763,377.14032,82,80,0
377.14478,377.24747,84,80,0
377.25192,377.3546,86,80,0
377.35907,377.99747,87,80,0
378.00192,378.1046,86,80,0
378.10907,378.21173,87,80,0
378.21622,378.31888,86,80,0
378.32336,378.42603,87,80,0
378.43048,378.53317,89,80,0
378.53763,378.64032,87,80,0
378.64478,379.28317,82,80,0
379.28763,379.39032,81,80,0
379.39478,379.49747,82,80,0
379.50192,379.6046,84,80,0
379.60907,379.71173,82,80,0
379.71622,379.81888,80,80,0
379.82336,379.92603,79,80,0
379.93048,380.03317,83,80,0
380.03763,380.14032,84,80,0
380.14478,380.24747,83,80,0
380.25192,380.3546,84,80,0
380.35907,380.46173,83,80,0
380.46622,380.56888,84,80,0
380.57336,380.67603,83,80,0
380.68048,380.78317,84,80,0
380.78763,380.89032,79,80,0
380.89478,380.99747,80,80,0
381.00192,381.10458,79,80,0
381.10907,381.21173,80,80,0
381.21622,381.31888,76,80,0
381.32333,381.42603,77,80,0
381.43048,381.53317,76,80,0
381.53763,381.64032,77,80,0
382.28763,382.49747,77,80,0
382.50192,383.14032,80,80,0
383.14478,383.24747,79,80,0
383.25192,383.35458,80,80,0
383.35907,383.46173,82,80,0
383.46622,383.56888,80,80,0
383.57333,383.67603,79,80,0
383.68048,383.78317,77,80,0
383.78763,383.89032,75,80,0
383.89478,383.99747,74,80,0
384.00192,384.10458,79,80,0
384.10907,384.21173,77,80,0
384.21622,384.31888,75,80,0
384.32333,384.42603,74,80,0
384.43048,384.53317,72,80,0
384.53763,384.64032,70,80,0
384.64478,384.74747,68,80,0
384.75192,384.85458,67,80,0
384.85907,384.96173,68,80,0
384.96622,385.17603,65,80,0
385.18048,385.28317,63,80,0
385.28763,385.60458,67,80,0
385.60907,385.71173,60,80,0
385.7162,386.03317,68,80,0
386.03763,386.14032,62,80,0
386.14478,386.35458,65,80,0
386.35907,386.56888,63,80,0
386.78763,386.89032,60,80,0
386.89478,386.99744,62,80,0
387.00192,387.10458,63,80,0
387.10907,387.21173,65,80,0
387.2162,387.31888,67,80,0
387.32333,387.42603,68,80,0
387.43048,387.53317,70,80,0
387.53763,387.64032,72,80,0
387.64478,388.49744,70,80,0
388.50192,388.60458,68,80,0
388.55548,388.65817,70,80,0
388.60907,388.71173,68,80,0
388.66263,388.76532,70,80,0
388.7162,388.81888,68,80,0
388.76978,388.87244,70,80,0
388.82333,388.92603,67,80,0
388.87692,388.92603,68,80,0
388.93048,389.03317,67,80,0
389.35907,389.46173,72,80,0
389.4662,389.56888,74,80,0
389.57333,389.67603,75,80,0
389.68048,389.78317,77,80,0
389.78763,389.8903,79,80,0
389.89478,389.99744,80,80,0
390.00192,390.10458,82,80,0
390.10904,390.21173,84,80,0
390.2162,391.06888,82,80,0
391.07333,391.17603,80,80,0
391.12692,391.22958,82,80,0
391.18048,391.28317,80,80,0
391.23404,391.33673,82,80,0
391.28763,391.3903,80,80,0
391.3412,391.44388,82,81,0
391.39478,391.49744,79,81,0
391.44833,391.49744,80,81,0
391.50192,391.92603,79,81,0
391.93048,392.03317,77,83,0
391.98404,392.08673,79,84,0
392.03763,392.1403,77,84,0
392.0912,392.19388,79,84,0
392.14478,392.24744,77,84,0
392.19833,392.30103,79,85,0
392.25192,392.35458,76,85,0
392.30548,392.35458,77,85,0
392.35904,392.78317,75,85,0
392.78763,392.8903,73,87,0
392.8412,392.94388,75,88,0
392.89478,392.99744,73,88,0
392.94833,393.05103,75,88,0
393.00192,393.10458,73,88,0
393.05548,393.15817,75,89,0
393.10904,393.21173,72,89,0
393.16263,393.21173,73,89,0
393.2162,393.6403,72,89,0
393.64478,393.74744,70,91,0
393.69833,393.80103,72,92,0
393.75192,393.85458,70,92,0
393.80548,393.90817,72,92,0
393.85904,393.96173,70,92,0
393.91263,394.0153,72,93,0
393.9662,394.06888,69,93,0
394.01978,394.06888,70,93,0
394.07333,394.49744,69,93,0
394.5019,394.60458,68,95,0
394.55548,394.65814,70,96,0
394.60904,394.71173,68,96,0
394.66263,394.7653,70,96,0
394.7162,394.81888,68,96,0
394.76978,394.87244,70,97,0
394.82333,394.92603,67,97,0
394.8769,394.92603,68,97,0
394.93048,395.35458,67,97,0
395.35904,395.46173,65,99,0
395.41263,395.5153,67,100,0
395.4662,395.56888,65,100,0
395.51978,395.62244,67,100,0
395.57333,395.67603,65,100,0
395.6269,395.72958,67,101,0
395.68048,395.78314,63,101,0
395.73404,395.78314,65,101,0
395.78763,396.21173,63,101,0
396.2162,396.31888,61,103,0
396.26978,396.37244,63,104,0
396.32333,396.42603,61,104,0
396.3769,396.47958,63,104,0
396.43048,396.53314,61,104,0
396.48404,396.58673,63,105,0
396.53763,396.6403,60,105,0
396.5912,396.6403,61,105,0
396.64478,397.06888,60,105,0
397.07333,397.17603,58,107,0
397.1269,397.22958,60,108,0
397.18048,397.28314,58,108,0
397.23404,397.33673,60,108,0
397.28763,397.3903,58,108,0
397.3412,397.44388,60,109,0
397.39478,397.49744,57,109,0
397.44833,397.49744,58,109,0
397.5019,397.92603,56,109,0
397.93048,398.03314,56,110,0
397.98404,398.08673,58,110,0
398.03763,398.1403,56,110,0
398.0912,398.19388,58,110,0
398.14478,398.24744,56,110,0
398.19833,398.30103,58,110,0
398.2519,398.35458,55,110,0
398.30548,398.35458,56,110,0
398.35904,398.78314,55,110,0
398.78763,398.8903,68,85,0
398.8412,398.94388,70,85,0
398.89474,398.99744,68,85,0
398.94833,399.051,70,85,0
399.0019,399.10458,68,85,0
399.05548,399.15814,70,85,0
399.10904,399.21173,67,85,0
399.16263,399.21173,68,85,0
399.2162,399.6403,67,85,0
399.64474,399.74744,56,110,0
399.69833,399.801,58,110,0
399.7519,399.85458,56,110,0
399.80548,399.90814,58,110,0
399.85904,399.96173,56,110,0
399.91263,400.0153,58,110,0
399.9662,400.06888,55,110,0
400.01974,400.06888,56,110,0
400.07333,400.49744,55,110,0
400.5019,400.60458,68,85,0
400.55548,400.65814,70,85,0
400.60904,400.71173,68,85,0
400.66263,400.7653,70,85,0
400.7162,400.81888,68,85,0
400.76974,400.87244,70,85,0
400.82333,400.926,67,85,0
400.8769,400.926,68,85,0
400.93048,401.35458,67,85,0
401.35904,401.46173,56,110,0
401.41263,401.5153,58,110,0
401.4662,401.56888,56,110,0
401.51974,401.62244,58,110,0
401.57333,401.676,56,110,0
401.6269,401.72958,58,110,0
401.68048,401.78314,55,110,0
401.73404,401.78314,56,110,0
401.78763,401.8903,55,80,0
401.89474,401.99744,51,80,0
402.0019,402.10458,46,80,0
402.10904,402.21173,51,80,0
402.2162,402.31888,55,80,0
402.32333,402.426,51,80,0
402.43048,402.53314,58,80,0
402.53763,402.6403,55,80,0
402.64474,402.74744,63,80,0
402.7519,402.85458,58,80,0
402.85904,402.96173,67,80,0
402.9662,403.06885,63,80,0
403.07333,403.176,58,80,0
403.18048,403.28314,55,80,0
403.2876,403.3903,63,80,0
403.39474,403.49744,58,80,0
403.5019,403.60458,67,80,0
403.60904,403.71173,63,80,0
403.7162,403.81885,70,80,0
403.82333,403.926,67,80,0
403.93048,404.03314,63,80,0
404.0376,404.1403,58,80,0
404.14474,404.24744,67,80,0
404.2519,404.35458,63,80,0
404.35904,404.46173,70,80,0
404.4662,404.56885,67,80,0
404.57333,404.676,75,80,0
404.68048,404.78314,70,80,0
404.7876,404.8903,67,80,0
404.89474,404.99744,63,80,0
405.0019,405.10458,70,80,0
405.10904,405.21173,67,80,0
405.2162,405.31885,75,80,0
405.32333,405.426,70,80,0
405.43048,405.53314,79,80,0
405.5376,405.6403,75,80,0
405.64474,405.85458,82,80,0
405.85904,406.06885,70,80,0
406.07333,406.28314,75,80,0
406.2876,406.49744,79,80,0
406.5019,406.71173,82,80,0
406.7162,406.926,58,80,0
406.93048,407.1403,63,80,0
407.14474,407.35458,67,80,0
407.35904,407.56885,70,80,0
407.57333,407.78314,46,80,0
407.7876,407.99744,51,90,0
408.0019,408.2117,55,100,0
408.2162,408.426,58,110,0
408.43045,408.6403,63,110,0
408.64474,408.85458,67,110,0
408.85904,409.06885,70,110,0
409.07333,409.28314,75,110,0
409.2876,409.49744,79,110,0
409.5019,409.7117,82,110,0
409.7162,409.926,81,80,0
409.93045,410.1403,84,80,0
410.14474,410.35458,82,80,0
410.35904,410.56885,80,80,0
410.57333,410.78314,79,80,0
410.7876,410.8903,77,80,0
410.8412,410.94385,79,80,0
410.89474,410.99744,77,80,0
410.94833,411.051,79,81,0
411.0019,411.10458,77,81,0
411.05545,411.15814,79,82,0
411.10904,411.2117,77,82,0
411.1626,411.2653,79,83,0
411.2162,411.31885,77,83,0
411.26974,411.37244,79,83,0
411.32333,411.426,77,84,0
411.3769,411.47958,79,84,0
411.43045,411.53314,77,85,0
411.48404,411.5867,79,85,0
411.5376,411.6403,77,86,0
411.5912,411.69385,79,86,0
411.64474,411.74744,77,87,0
411.6983,411.801,79,87,0
411.7519,411.85455,77,87,0
411.80545,411.90814,79,88,0
411.85904,411.9617,77,88,0
411.9126,412.0153,79,89,0
411.9662,412.06885,77,89,0
412.01974,412.12244,79,90,0
412.0733,412.176,77,90,0
412.1269,412.22955,79,91,0
412.18045,412.28314,77,91,0
412.23404,412.3367,79,91,0
412.2876,412.3903,77,92,0
412.3412,412.44385,79,92,0
412.39474,412.49744,77,93,0
412.4483,412.551,79,93,0
412.5019,412.60455,77,94,0
412.55545,412.65814,79,94,0
412.60904,412.7117,77,95,0
412.6626,412.7653,79,95,0
412.7162,412.81885,77,95,0
412.76974,412.87244,79,96,0
412.8233,412.926,77,96,0
412.8769,412.97955,79,97,0
412.93045,413.03314,77,97,0
412.98404,413.0867,79,98,0
413.0376,413.1403,77,98,0
413.0912,413.19385,79,99,0
413.14474,413.24744,77,99,0
413.1983,413.301,79,99,0
413.2519,413.35455,77,100,0
413.30545,413.40814,79,100,0
413.35904,413.4617,77,101,0
413.4126,413.5153,79,101,0
413.4662,413.56885,77,102,0
413.51974,413.62244,79,102,0
413.5733,413.676,77,103,0
413.6269,413.72955,79,103,0
413.68045,413.78314,77,103,0
413.73404,413.8367,79,104,0
413.7876,413.8903,77,104,0
413.8412,413.94385,79,105,0
413.89474,413.99744,77,105,0
413.9483,414.051,79,106,0
414.0019,414.10455,77,106,0
414.05545,414.15814,79,106,0
414.10904,414.2117,77,107,0
414.1626,414.2653,79,107,0
414.2162,414.31885,77,108,0
414.26974,414.37244,79,108,0
414.3233,414.426,77,109,0
414.3769,414.47955,79,109,0
414.43045,414.53314,77,110,0
414.48404,414.5867,79,110,0
414.5376,414.6403,77,110,0
414.5912,414.69385,79,110,0
414.64474,414.74744,77,110,0
414.6983,414.801,79,110,0
414.7519,414.85455,77,110,0
414.80545,414.90814,79,110,0
414.85904,414.9617,77,110,0
414.9126,415.0153,79,110,0
414.9662,415.06885,77,110,0
415.01974,415.12244,79,110,0
415.0733,415.176,77,110,0
415.1269,415.22955,79,110,0
415.18045,415.28314,77,110,0
415.23404,415.3367,79,110,0
415.2876,415.3903,77,110,0
415.3412,415.44385,79,110,0
415.39474,415.49744,75,110,0
415.4483,415.49744,77,110,0
415.5019,415.7117,82,110,0
415.7162,415.926,82,110,0
415.93045,416.1403,75,110,0
416.14474,416.35455,75,80,0
416.35904,416.56885,76,80,0
416.5733,416.78314,77,80,0
416.7876,417.03238,78,80,0
417.0376,417.28238,79,80,0
417.2876,418.78238,80,80,0
418.7876,420.28238,72,80,0
418.7876,420.28238,68,80,0
420.2876,420.5052,75,80,0
420.2876,420.72742,68,80,0
420.50983,420.72742,74,80,0
420.73206,420.78296,75,80,0
420.7876,420.94965,74,80,0
420.73206,421.17184,68,80,0
420.95425,421.17184,72,80,0
421.17648,421.39407,74,80,0
421.17648,421.6163,68,80,0
421.3987,421.6163,77,80,0
421.62094,421.83853,75,80,0
421.62094,421.83853,67,80,0
421.84314,422.06076,63,80,0
422.06537,422.28296,64,80,0
422.2876,422.5052,65,80,0
422.50983,422.76526,66,80,0
422.7707,423.02612,67,80,0
423.03156,424.59134,68,80,0
424.59677,425.63483,60,80,0
425.64026,425.8957,61,80,0
424.59677,426.15656,56,80,0
425.90112,426.15656,63,80,0
426.162,426.54785,65,80,0
426.55328,426.67828,58,80,0
426.162,427.20004,56,80,0
426.162,427.20004,53,80,0
426.68372,427.4609,58,80,0
427.7272,428.11307,65,80,0
428.1185,428.2435,58,80,0
427.7272,428.76526,56,80,0
427.7272,428.76526,53,80,0
428.24896,429.02612,58,80,0
429.29242,429.80872,58,80,0
429.29242,429.80872,56,80,0
429.29242,429.80872,53,80,0
429.81418,430.33047,58,80,0
429.81418,430.33047,56,80,0
429.81418,430.33047,53,80,0
430.3359,430.8522,58,80,0
430.3359,430.8522,56,80,0
430.3359,430.8522,53,80,0
430.85764,432.41742,59,80,0
430.85764,432.41742,56,80,0
430.85764,432.41742,53,80,0
432.42285,432.93918,71,80,0
432.42285,432.93918,68,80,0
432.42285,432.93918,65,80,0
432.9446,433.4609,71,80,0
432.9446,433.4609,68,80,0
432.9446,433.4609,65,80,0
433.46634,433.98264,71,80,0
433.46634,433.98264,68,80,0
433.46634,433.98264,65,80,0
433.98807,435.02612,72,80,0
433.98807,435.02612,68,80,0
433.98807,435.02612,66,80,0
435.03156,435.54785,60,80,0
435.03156,435.54785,56,80,0
435.03156,435.54785,54,80,0
435.55328,436.0696,61,81,0
435.55328,436.0696,56,81,0
436.59677,437.11307,73,84,0
436.59677,437.11307,68,84,0
437.1185,437.63483,74,85,0
437.1185,437.63483,71,85,0
437.1185,437.63483,68,85,0
438.162,438.65677,62,88,0
438.162,438.65677,59,88,0
438.162,438.65677,56,88,0
438.662,439.15677,63,89,0
438.662,439.15677,58,89,0
439.662,440.15677,70,92,0
439.662,440.15677,75,92,0
440.162,440.65677,73,94,0
440.162,440.65677,70,94,0
440.162,440.65677,76,94,0
441.162,441.65677,64,96,0
441.162,441.65677,61,96,0
441.162,441.65677,58,96,0
441.662,442.15677,65,98,0
441.662,442.15677,60,98,0
442.162,442.65677,65,99,0
442.162,442.65677,60,99,0
442.662,443.25574,65,101,0
442.662,443.25574,60,101,0
443.262,444.89267,66,102,0
443.262,444.89267,63,102,0
443.262,444.89267,60,102,0
444.89835,445.4381,78,106,0
444.89835,445.4381,75,106,0
444.89835,445.4381,72,106,0
445.44382,446.06882,78,108,0
445.44382,446.06882,75,108,0
445.44382,446.06882,72,108,0
446.07538,446.77393,78,109,0
446.07538,446.77393,75,109,0
446.07538,446.77393,72,109,0
446.78125,448.89157,79,110,0
446.78125,448.89157,75,110,0
448.89893,449.12488,67,80,0
448.89893,449.35565,62,80,0
448.89893,449.35565,56,80,0
449.12967,449.35565,65,80,0
449.36044,449.47104,65,80,0
449.47583,449.5864,67,80,0
449.59122,449.70178,65,80,0
449.36044,449.81717,62,80,0
449.36044,449.81717,56,80,0
449.7066,449.81717,64,80,0
449.822,450.04794,65,80,0
449.822,450.27872,62,80,0
449.822,450.27872,56,80,0
450.05276,450.27872,67,80,0
450.28354,450.3941,55,80,0
450.28354,450.3941,63,80,0
450.3989,450.5095,65,80,0
450.51428,450.62488,63,80,0
450.62967,450.74026,62,80,0
450.74506,450.85565,63,80,0
450.86044,450.97104,64,80,0
450.97583,451.0864,65,80,0
451.09122,451.20178,66,80,0
451.2066,451.31717,67,80,0
451.322,451.43256,68,80,0
451.43738,451.54794,69,80,0
451.55276,451.66333,70,80,0
451.66815,451.77872,71,80,0
451.7835,451.8941,72,80,0
451.8989,452.0095,73,80,0
452.01428,452.12488,74,80,0
452.12967,452.24026,75,80,0
452.24506,452.35565,76,80,0
452.36044,452.471,77,80,0
452.47583,452.5864,78,80,0
452.59122,452.67776,79,80,0
452.68256,452.7691,80,80,0
452.7739,452.86044,81,80,0
452.86526,452.95178,82,80,0
452.9566,453.03833,83,80,0
453.05276,453.3941,84,80,0
453.3989,453.5095,77,80,0
453.51428,454.43256,77,80,0
454.43738,454.49026,71,80,0
454.49026,454.7739,72,80,0
454.7835,454.8941,65,80,0
454.8989,455.81717,65,80,0
455.822,456.27872,53,80,0
455.822,456.27872,51,80,0
455.822,456.27872,48,80,0
456.2835,456.74023,53,83,0
456.2835,456.74023,51,83,0
456.2835,456.74023,48,83,0
456.74506,457.20178,53,86,0
456.74506,457.20178,51,86,0
456.74506,457.20178,48,86,0
457.2066,458.5864,54,90,0
457.2066,458.5864,51,90,0
457.2066,458.5864,48,90,0
458.59122,459.04794,78,100,0
458.59122,459.04794,75,100,0
459.05273,459.56906,78,104,0
459.05273,459.56906,75,104,0
459.5745,460.16824,78,107,0
459.5745,460.16824,75,107,0
460.1745,460.76825,79,110,0
460.1745,460.76825,75,110,0
461.37448,461.96823,78,80,0
461.37448,462.4312,75,80,0
461.9745,462.4312,79,80,0
462.89755,463.35428,78,80,0
462.89755,463.81583,75,80,0
463.3591,463.9312,79,80,0
463.93604,464.0466,80,81,0
464.05142,464.162,82,83,0
464.16678,464.27737,79,84,0
464.28217,464.39276,76,86,0
464.39755,464.50815,77,87,0
464.51294,464.62354,79,89,0
464.62833,464.7389,75,90,0
464.7437,464.85428,73,92,0
464.8591,464.96967,74,93,0
464.9745,465.08505,75,95,0
465.08987,465.20044,72,97,0
465.20526,465.31583,69,98,0
465.32065,465.4312,70,100,0
465.43604,465.5466,72,101,0
465.5514,465.662,68,103,0
465.66678,465.77737,66,104,0
465.78217,465.89276,67,106,0
465.89755,466.00815,68,107,0
466.01294,466.12354,65,109,0
466.12833,466.58505,63,110,0
466.12833,466.58505,55,110,0
467.51294,467.6235,70,80,0
467.62833,467.7389,72,80,0
467.7437,467.85428,70,80,0
467.8591,467.96967,69,80,0
467.9745,468.08505,70,80,0
468.08987,468.20044,72,80,0
468.20526,468.31583,74,80,0
468.32065,468.4312,75,80,0
468.436,468.662,77,80,0
468.66678,468.89276,68,80,0
468.89755,469.35428,67,80,0
470.28217,470.39276,82,80,0
470.39755,470.50812,84,80,0
470.51294,470.6235,82,80,0
470.62833,470.7389,81,80,0
470.7437,470.85428,82,80,0
470.8591,470.96967,84,80,0
470.9745,471.08505,86,80,0
471.08987,471.20044,87,80,0
471.20526,471.31583,89,80,0
471.32062,471.4312,86,80,0
471.436,471.5466,82,80,0
471.5514,471.662,80,80,0
471.66678,472.1235,79,80,0
472.3591,472.58505,63,80,0
472.58987,472.81583,58,80,0
472.82062,473.0466,67,80,0
473.0514,473.27737,63,80,0
473.28217,473.50812,70,80,0
473.51294,473.7389,67,80,0
473.7437,473.96967,75,80,0
473.9745,474.20044,70,80,0
474.20523,474.4312,79,80,0
474.436,474.67102,75,80,0
474.67603,474.911,82,80,0
474.91602,475.20975,79,80,0
475.216,475.50977,87,80,0
475.51602,476.17572,74,110,0
475.51602,476.17572,68,110,0
475.51602,476.17572,65,110,0
476.18268,477.17572,75,110,0
476.18268,477.17572,67,110,0
476.18268,477.17572,63,110,0
478.18268,478.8424,63,1,0
0.0,1.9930536,56,80,0
0.0,1.9930536,53,80,0
0.0,1.9930536,51,80,0
0.0,1.9930536,44,80,0
1.999998,3.9930515,56,80,0
1.999998,3.9930515,53,80,0
1.999998,3.9930515,51,80,0
1.999998,3.9930515,44,80,0
3.999996,4.593746,39,80,0
3.999996,4.593746,32,80,0
4.599996,5.193746,39,83,0
4.599996,5.193746,32,83,0
5.199996,5.793746,39,86,0
5.199996,5.793746,32,86,0
5.799996,7.593746,39,89,0
5.799996,7.593746,33,89,0
7.599996,8.259718,54,99,0
7.599996,8.259718,51,99,0
7.599996,8.259718,45,99,0
8.266662,8.926384,54,103,0
8.266662,8.926384,51,103,0
8.266662,8.926384,45,103,0
8.933328,9.724995,54,106,0
8.933328,9.724995,51,106,0
8.933328,9.724995,45,106,0
9.733328,12.722911,55,109,0
9.733328,12.722911,51,109,0
9.733328,12.722911,46,109,0
12.733328,13.22812,46,80,0
12.733328,13.22812,34,80,0
13.233328,13.72812,46,80,0
13.233328,13.72812,34,80,0
13.733328,14.22812,46,80,0
13.733328,14.22812,34,80,0
14.233328,14.72812,51,80,0
14.233328,14.72812,39,80,0
17.233328,18.728119,75,80,0
17.233328,18.728119,72,80,0
17.233328,18.728119,68,80,0
18.733328,20.228119,63,80,0
18.733328,20.228119,60,80,0
18.733328,20.228119,56,80,0
20.233328,20.728119,44,80,0
20.233328,20.728119,32,80,0
20.733328,21.228119,44,83,0
20.733328,21.228119,32,83,0
21.233328,21.728119,44,86,0
21.233328,21.728119,32,86,0
21.733328,23.228119,45,90,0
21.733328,23.228119,33,90,0
23.233328,23.7731,69,100,0
23.778782,24.318554,69,104,0
24.324236,24.917986,69,107,0
24.924236,26.717985,70,110,0
26.724236,27.180965,46,80,0
26.724236,27.180965,34,80,0
27.185774,27.642504,46,80,0
27.185774,27.642504,34,80,0
27.647312,28.104042,46,80,0
27.647312,28.104042,34,80,0
28.10885,28.31867,51,80,0
28.10885,28.31867,39,80,0
28.323135,28.532957,51,80,0
28.53742,28.747242,51,80,0
28.751707,28.961527,51,80,0
28.965992,29.175814,51,80,0
29.180277,29.390099,51,80,0
29.394564,29.604383,51,80,0
29.608849,29.81867,51,80,0
29.823133,30.032955,51,80,0
30.03742,30.24724,51,80,0
30.251705,30.461527,51,80,0
29.394564,30.675812,60,80,0
29.394564,30.675812,63,80,0
30.46599,30.675812,51,80,0
30.680277,30.890097,51,80,0
30.894562,31.104383,51,80,0
31.108847,31.318668,51,80,0
31.323132,31.532953,51,80,0
31.537418,31.74724,51,80,0
30.680277,31.961525,58,80,0
30.680277,31.961525,62,80,0
31.751703,31.961525,51,80,0
31.965988,32.17581,51,80,0
31.965988,32.390095,60,80,0
31.965988,32.390095,56,80,0
32.180275,32.390095,51,80,0
32.39456,32.60438,51,80,0
32.39456,32.81867,60,80,0
32.39456,32.81867,56,80,0
32.608845,32.81867,51,80,0
32.82313,33.03295,51,80,0
32.82313,33.24724,59,80,0
32.82313,33.24724,56,80,0
33.03742,33.24724,51,80,0
33.2517,33.461525,51,80,0
33.2517,33.675808,58,80,0
33.2517,33.675808,55,80,0
33.46599,33.675808,51,80,0
33.68027,33.890095,51,80,0
33.894558,34.10438,51,80,0
34.108845,34.318665,51,80,0
34.323128,34.53295,51,80,0
34.537415,34.747234,51,80,0
34.7517,34.96152,51,80,0
34.965984,35.175808,51,80,0
35.18027,35.39009,51,80,0
35.394558,35.604378,51,80,0
34.537415,35.818665,60,80,0
34.537415,35.818665,63,80,0
35.60884,35.818665,51,80,0
35.823128,36.032948,51,80,0
36.037415,36.247234,51,80,0
36.251698,36.46152,51,80,0
36.465984,36.675804,51,80,0
36.68027,36.89009,51,80,0
35.823128,37.104378,58,80,0
35.823128,37.104378,62,80,0
36.894554,37.104378,51,80,0
37.10884,37.31866,51,80,0
37.10884,37.532948,60,80,0
37.10884,37.532948,56,80,0
37.323128,37.532948,51,80,0
37.53741,37.747234,51,80,0
37.53741,37.961517,60,80,0
37.53741,37.961517,56,80,0
37.751698,37.961517,51,80,0
37.965984,38.175804,51,80,0
37.965984,38.39009,59,80,0
37.965984,38.39009,56,80,0
38.180267,38.39009,51,80,0
38.394554,38.81866,58,80,0
38.394554,38.81866,55,80,0
38.394554,38.81866,51,80,0
39.46598,39.675804,55,80,0
39.680267,39.890087,53,80,0
39.894554,40.104374,56,80,0
40.108837,40.31866,50,80,0
40.323124,40.532944,53,80,0
40.53741,40.74723,46,80,0
40.751694,40.961517,50,80,0
40.96598,41.390087,51,80,0
41.82312,41.9258,60,80,0
41.930264,42.032944,58,80,0
42.037407,42.140087,56,80,0
42.14455,42.24723,55,80,0
42.251694,42.461514,53,80,0
42.465977,42.6758,56,80,0
42.680264,42.890083,50,80,0
42.89455,43.10437,53,80,0
43.108833,43.318657,46,80,0
43.32312,43.53294,50,80,0
43.537407,43.747227,51,80,0
43.75169,43.961514,55,80,0
43.965977,44.175797,48,80,0
44.180264,44.390083,51,80,0
44.394547,44.60437,45,80,0
44.608833,44.818653,48,80,0
44.82312,45.03294,41,80,0
45.037403,45.247227,45,80,0
45.25169,45.46151,48,80,0
45.465977,45.675797,52,80,0
45.68026,45.890083,53,80,0
45.894547,46.104366,45,80,0
46.108833,46.318653,46,80,0
46.323116,46.53294,50,80,0
46.537403,46.747223,53,80,0
46.75169,46.96151,57,80,0
46.965973,47.175797,58,80,0
47.18026,47.39008,57,80,0
47.394547,47.604366,58,80,0
47.60883,47.818653,57,80,0
47.823116,48.078552,58,80,0
48.083984,48.33942,57,80,0
48.344856,48.60029,58,80,0
48.605724,48.932114,58,80,0
48.939056,50.339355,56,80,0
48.939056,50.339355,53,80,0
48.939056,50.339355,51,80,0
48.939056,50.339355,44,80,0
50.34382,51.625065,56,80,0
50.34382,51.625065,53,80,0
50.34382,51.625065,51,80,0
50.34382,51.625065,44,80,0
51.62953,52.05364,59,80,0
51.62953,52.05364,56,80,0
52.0581,52.48221,59,80,0
52.0581,52.48221,56,80,0
52.48667,52.910778,59,80,0
52.48667,52.910778,54,80,0
52.915245,54.19649,59,80,0
52.915245,54.19649,53,80,0
54.20096,54.625065,71,80,0
54.20096,54.625065,68,80,0
54.629528,55.053635,71,80,0
54.629528,55.053635,68,80,0
55.058098,55.482204,71,80,0
55.058098,55.482204,66,80,0
55.48667,56.767918,71,80,0
55.48667,56.767918,65,80,0
56.772385,57.19649,61,80,0
56.772385,57.19649,58,80,0
57.200954,57.62506,61,80,0
57.200954,57.62506,58,80,0
57.629524,58.05363,61,80,0
57.629524,58.05363,56,80,0
58.058098,59.339344,61,80,0
58.058098,59.339344,55,80,0
59.343807,59.767914,73,80,0
59.343807,59.767914,70,80,0
59.77238,60.196487,73,80,0
59.77238,60.196487,70,80,0
60.20095,60.625057,73,80,0
60.20095,60.625057,68,80,0
60.62952,61.91077,73,80,0
60.62952,61.91077,67,80,0
62.343807,62.767914,70,80,0
62.343807,62.767914,66,80,0
63.62952,64.05363,65,80,0
63.62952,64.05363,69,80,0
64.05809,64.48219,53,80,0
64.486664,64.91077,41,80,0
64.91523,65.33934,29,80,0
65.77238,65.87505,50,80,0
65.87952,65.98219,58,80,0
65.98666,66.08934,53,80,0
66.0938,66.19648,58,80,0
66.20094,66.30363,50,80,0
66.30809,66.41077,58,80,0
66.41523,66.51791,53,80,0
66.52238,66.62505,58,80,0
66.62952,66.73219,50,80,0
66.73666,66.83934,58,80,0
66.8438,66.94648,53,80,0
66.95094,67.05362,58,80,0
67.05809,67.16077,50,80,0
67.16523,67.26791,58,80,0
67.27237,67.37505,53,80,0
67.37952,67.48219,58,80,0
67.48666,67.58934,50,80,0
67.5938,67.69648,58,80,0
67.70094,67.80362,53,80,0
67.80808,67.91077,58,80,0
67.91523,68.01791,50,80,0
68.02237,68.12505,58,80,0
68.12952,68.23219,53,80,0
68.23666,68.33933,58,80,0
68.3438,68.44648,51,80,0
68.45094,68.55362,58,80,0
68.55808,68.66077,55,80,0
68.66523,68.76791,58,80,0
68.77237,68.875046,51,80,0
68.87952,68.98219,58,80,0
68.98666,69.08933,55,80,0
69.093796,69.19648,58,80,0
69.20094,69.30362,51,80,0
69.30808,69.41077,59,80,0
69.41523,69.51791,55,80,0
69.52237,69.625046,59,80,0
69.62952,69.73219,51,80,0
69.73666,69.83933,60,80,0
69.843796,69.94648,55,80,0
69.95094,70.05362,60,80,0
70.05808,70.16076,51,80,0
70.16523,70.26791,60,80,0
70.27237,70.375046,55,80,0
70.37951,70.48219,60,80,0
70.48666,70.58933,52,80,0
70.593796,70.69648,60,80,0
70.70094,70.80362,58,80,0
70.80808,70.91076,60,80,0
70.91523,71.01791,50,80,0
71.02237,71.125046,60,80,0
71.12951,71.23219,57,80,0
71.23666,71.33933,60,80,0
71.343796,71.44647,50,80,0
71.45094,71.55362,60,80,0
71.55808,71.66076,57,80,0
71.66522,71.76791,60,80,0
71.77237,71.875046,50,80,0
71.87951,71.98219,60,80,0
71.98666,72.08933,57,80,0
72.093796,72.19647,60,80,0
72.200935,72.30362,53,80,0
72.30808,72.41076,63,80,0
72.41522,72.51791,60,80,0
72.52237,72.625046,63,80,0
72.62951,72.732185,53,80,0
72.73666,72.83933,63,80,0
72.843796,72.94647,57,80,0
72.950935,73.05362,63,80,0
73.05808,73.16076,54,80,0
73.16522,73.2679,63,80,0
73.27237,73.375046,57,80,0
73.37951,73.482185,63,80,0
73.48665,73.58933,55,80,0
73.593796,73.69647,62,80,0
73.700935,73.80362,58,80,0
73.80808,73.91076,62,80,0
73.91522,74.0179,51,80,0
74.02237,74.125046,60,80,0
74.12951,74.232185,55,80,0
74.23665,74.33933,60,80,0
74.343796,74.44647,53,80,0
74.450935,74.55361,60,80,0
74.55808,74.66076,57,80,0
74.66522,74.7679,63,80,0
74.77236,75.19647,58,80,0
74.77236,75.19647,46,80,0
79.915215,80.0179,50,80,0
80.02236,80.12504,58,80,0
80.1295,80.23218,53,80,0
80.23665,80.339325,58,80,0
80.34379,80.446465,50,80,0
80.45093,80.55361,58,80,0
80.558075,80.66075,53,80,0
80.665215,80.76789,58,80,0
80.77236,80.87504,50,80,0
80.8795,80.98218,58,80,0
80.98664,81.089325,53,80,0
81.09379,81.196465,58,80,0
81.20093,81.30361,50,80,0
81.308075,81.41075,58,80,0
81.415215,81.51789,53,80,0
81.52236,81.62504,58,80,0
81.6295,81.73218,50,80,0
81.73664,81.839325,58,80,0
81.84379,81.946465,53,80,0
81.95093,82.053604,58,80,0
82.058075,82.16075,50,80,0
82.165215,82.26789,58,80,0
82.272354,82.37504,53,80,0
82.3795,82.48218,58,80,0
82.48664,82.589325,51,80,0
82.59379,82.696465,58,80,0
82.70093,82.803604,55,80,0
82.808075,82.91075,58,80,0
82.915215,83.01789,51,80,0
83.022354,83.12504,58,80,0
83.1295,83.23218,55,80,0
83.23664,83.33932,58,80,0
83.34379,83.446465,51,80,0
83.45093,83.553604,59,80,0
83.55807,83.66075,55,80,0
83.665215,83.76789,59,80,0
83.772354,83.87504,51,80,0
83.8795,83.98218,60,80,0
83.98664,84.08932,55,80,0
84.09378,84.196465,60,80,0
84.20093,84.303604,51,80,0
84.30807,84.41075,60,80,0
84.415215,84.51789,55,80,0
84.522354,84.62503,60,80,0
84.6295,84.73218,52,80,0
84.73664,84.83932,60,80,0
84.84378,84.946465,58,80,0
84.95093,85.053604,60,80,0
85.05807,85.16074,50,80,0
85.165215,85.26789,60,80,0
85.272354,85.37503,57,80,0
85.37949,85.48218,60,80,0
85.48664,85.58932,50,80,0
85.59378,85.696465,60,80,0
85.70093,85.803604,57,80,0
85.80807,85.91074,60,80,0
85.915215,86.01789,50,80,0
86.022354,86.12503,60,80,0
86.12949,86.23218,57,80,0
86.23664,86.33932,60,80,0
86.34378,86.44646,53,80,0
86.45093,86.553604,63,80,0
86.55807,86.66074,60,80,0
86.66521,86.76789,63,80,0
86.772354,86.87503,53,80,0
86.87949,86.98218,63,80,0
86.98664,87.08932,57,80,0
87.09378,87.19646,63,80,0
87.20093,87.303604,54,80,0
87.30807,87.41074,63,80,0
87.41521,87.51789,57,80,0
87.522354,87.62503,63,80,0
87.62949,87.73217,55,80,0
87.73664,87.83932,62,80,0
87.84378,87.94646,58,80,0
87.95092,88.053604,62,80,0
88.05807,88.16074,51,80,0
88.16521,88.26789,60,80,0
88.272354,88.37503,55,80,0
88.37949,88.48217,60,80,0
88.48663,88.58932,53,80,0
88.59378,88.69646,60,80,0
88.70092,88.803604,57,80,0
88.80807,88.91074,63,80,0
88.91521,89.01788,46,80,0
89.022354,89.12503,50,80,0
89.12949,89.23217,51,80,0
89.23663,89.33932,53,80,0
90.41521,90.62503,53,80,0
90.41521,90.62503,48,80,0
90.41521,90.62503,45,80,0
90.62949,90.83931,53,80,0
90.62949,90.83931,48,80,0
90.62949,90.83931,45,80,0
90.84378,91.0536,53,80,0
90.84378,91.0536,48,80,0
90.84378,91.0536,45,80,0
91.05806,91.26788,53,80,0
91.05806,91.26788,48,80,0
91.05806,91.26788,45,80,0
91.27235,91.48217,53,80,0
91.27235,91.48217,48,80,0
91.27235,91.48217,45,80,0
91.48663,91.58931,58,80,0
91.59378,91.69646,62,80,0
91.70092,91.8036,63,80,0
91.80806,91.91074,65,80,0
92.98663,93.19646,65,80,0
92.98663,93.19646,60,80,0
92.98663,93.19646,57,80,0
93.20092,93.410736,65,80,0
93.20092,93.410736,60,80,0
93.20092,93.410736,57,80,0
93.41521,93.62502,65,80,0
93.41521,93.62502,60,80,0
93.41521,93.62502,57,80,0
93.629486,93.83931,65,80,0
93.629486,93.83931,60,80,0
93.629486,93.83931,57,80,0
93.84377,94.0536,65,80,0
93.84377,94.0536,60,80,0
93.84377,94.0536,57,80,0
94.27235,94.48217,62,80,0
94.27235,94.48217,58,80,0
94.70092,94.910736,62,80,0
94.70092,94.910736,57,80,0
94.70092,94.910736,54,80,0
95.129486,95.33931,62,82,0
95.129486,95.33931,58,82,0
95.129486,95.33931,55,82,0
95.55806,95.76788,58,84,0
95.55806,95.76788,53,84,0
95.55806,95.76788,50,84,0
95.98663,96.19645,58,86,0
95.98663,96.19645,55,86,0
95.98663,96.19645,51,86,0
96.4152,96.62502,55,88,0
96.4152,96.62502,50,88,0
96.4152,96.62502,47,88,0
96.84377,97.0536,55,90,0
96.84377,97.0536,52,90,0
96.84377,97.0536,48,90,0
97.27234,97.48216,53,92,0
97.27234,97.48216,48,92,0
97.27234,97.48216,45,92,0
97.70091,97.910736,53,94,0
97.70091,97.910736,50,94,0
97.70091,97.910736,46,94,0
98.129486,98.3393,53,96,0
98.129486,98.3393,48,96,0
98.129486,98.3393,45,96,0
98.55805,98.767876,53,98,0
98.55805,98.767876,50,98,0
98.55805,98.767876,46,98,0
98.986626,99.19645,53,100,0
98.986626,99.19645,48,100,0
98.986626,99.19645,45,100,0
99.20091,99.410736,53,80,0
99.20091,99.410736,50,80,0
99.20091,99.410736,46,80,0
103.27234,103.482155,65,80,0
103.486626,103.69644,70,80,0
103.700905,103.91073,74,80,0
103.91519,104.125015,77,80,0
104.98662,105.19644,41,110,0
105.200905,105.41073,46,110,0
105.41519,105.625015,50,110,0
105.62948,106.05358,53,110,0
107.12948,107.339294,53,81,0
107.34376,107.55358,57,82,0
107.558044,107.76787,60,84,0
107.77233,107.982155,63,85,0
107.98662,108.19644,41,86,0
108.200905,108.41072,45,88,0
108.41519,108.62501,48,89,0
108.62947,108.839294,51,90,0
108.84376,109.05358,42,92,0
109.058044,109.26787,45,93,0
109.27233,109.482155,48,94,0
109.48662,109.696434,51,96,0
109.700905,109.91072,41,97,0
109.915184,110.12501,45,98,0
110.12947,110.339294,48,100,0
110.34376,110.55358,51,101,0
110.558044,110.76787,53,102,0
110.77233,110.98215,57,104,0
110.98662,111.196434,60,105,0
111.2009,111.41072,63,106,0
111.415184,111.62501,53,108,0
111.62947,111.839294,63,109,0
111.84376,112.05358,53,110,0
112.058044,112.48215,62,80,0
112.058044,112.48215,58,80,0
113.49815,114.99294,58,80,0
113.49815,114.99294,55,80,0
114.99815,116.49294,60,80,0
114.99815,116.49294,51,80,0
116.49815,116.99294,60,80,0
116.49815,116.99294,53,80,0
116.99815,117.49294,60,80,0
116.99815,117.49294,53,80,0
117.49815,117.74294,60,80,0
117.49815,117.99294,53,80,0
117.74815,117.99294,57,80,0
117.99815,118.24294,58,80,0
117.99815,118.24294,46,80,0
118.24815,118.49294,58,80,0
118.49815,118.74294,59,80,0
118.74815,118.99294,60,80,0
118.99815,119.24294,61,80,0
119.24815,119.49294,62,80,0
119.49815,120.99294,63,80,0
120.99815,122.06363,55,80,0
122.06958,122.34934,56,80,0
120.99815,122.635056,51,80,0
122.35529,122.635056,58,80,0
122.64101,124.34934,56,80,0
122.64101,124.34934,53,80,0
122.64101,124.34934,51,80,0
122.64101,124.34934,44,80,0
124.35529,126.06362,56,80,0
124.35529,126.06362,53,80,0
124.35529,126.06362,51,80,0
124.35529,126.06362,44,80,0
126.06957,126.66332,39,80,0
126.06957,126.66332,32,80,0
126.66958,127.26333,39,83,0
126.66958,127.26333,32,83,0
127.26958,127.86333,39,86,0
127.26958,127.86333,32,86,0
127.869576,129.66333,39,90,0
127.869576,129.66333,33,90,0
129.66957,130.3293,54,100,0
129.66957,130.3293,51,100,0
129.66957,130.3293,45,100,0
130.33624,130.99596,54,104,0
130.33624,130.99596,51,104,0
130.33624,130.99596,45,104,0
131.00291,131.79457,54,107,0
131.00291,131.79457,51,107,0
131.00291,131.79457,45,107,0
131.8029,134.7925,55,110,0
131.8029,134.7925,51,110,0
131.8029,134.7925,46,110,0
134.8029,135.2977,46,80,0
134.8029,135.2977,34,80,0
135.3029,135.7977,46,80,0
135.3029,135.7977,34,80,0
135.8029,136.2977,46,80,0
135.8029,136.2977,34,80,0
136.3029,136.7977,51,80,0
136.3029,136.7977,39,80,0
139.3029,140.7977,75,80,0
139.3029,140.7977,72,80,0
139.3029,140.7977,68,80,0
140.8029,142.2977,63,80,0
140.8029,142.2977,60,80,0
140.8029,142.2977,56,80,0
142.3029,142.7977,44,80,0
142.3029,142.7977,32,80,0
142.8029,143.2977,44,83,0
142.8029,143.2977,32,83,0
143.3029,143.7977,44,86,0
143.3029,143.7977,32,86,0
143.8029,145.2977,45,90,0
143.8029,145.2977,33,90,0
145.3029,145.84268,69,100,0
145.84836,146.38814,69,104,0
146.39381,146.98756,69,107,0
146.99382,148.78757,70,110,0
148.79381,149.25055,46,80,0
148.79381,149.25055,34,80,0
149.25536,149.71208,46,80,0
149.25536,149.71208,34,80,0
149.71689,150.17361,46,80,0
149.71689,150.17361,34,80,0
150.17844,150.38824,51,80,0
150.17844,150.38824,39,80,0
150.39272,150.60254,51,80,0
150.607,150.81682,51,80,0
150.82129,151.03111,51,80,0
151.03557,151.24539,51,80,0
151.24986,151.45967,51,80,0
151.46414,151.67397,51,80,0
151.67842,151.88824,51,80,0
151.89272,152.10254,51,80,0
152.107,152.31682,51,80,0
152.32129,152.53111,51,80,0
151.46414,152.74539,60,80,0
151.46414,152.74539,63,80,0
152.53557,152.74539,51,80,0
152.74985,152.95967,51,80,0
152.96414,153.17397,51,80,0
153.17842,153.38824,51,80,0
153.39272,153.60254,51,80,0
153.607,153.81682,51,80,0
152.74985,154.0311,58,80,0
152.74985,154.0311,62,80,0
153.82129,154.0311,51,80,0
154.03557,154.24539,51,80,0
154.03557,154.45967,60,80,0
154.03557,154.45967,56,80,0
154.24985,154.45967,51,80,0
154.46414,154.67397,51,80,0
154.46414,154.88824,60,80,0
154.46414,154.88824,56,80,0
154.67842,154.88824,51,80,0
154.89272,155.10252,51,80,0
154.89272,155.31682,59,80,0
154.89272,155.31682,56,80,0
155.107,155.31682,51,80,0
155.32127,155.5311,51,80,0
155.32127,155.74539,58,80,0
155.32127,155.74539,55,80,0
155.53557,155.74539,51,80,0
155.74985,155.95967,51,80,0
155.96414,156.17397,51,80,0
156.17842,156.38824,51,80,0
156.39272,156.60252,51,80,0
156.607,156.81682,51,80,0
156.82127,157.0311,51,80,0
157.03557,157.24539,51,80,0
157.24985,157.45967,51,80,0
157.46414,157.67395,51,80,0
156.607,157.88824,60,80,0
156.607,157.88824,63,80,0
157.67842,157.88824,51,80,0
157.8927,158.10252,51,80,0
158.107,158.31682,51,80,0
158.32127,158.5311,51,80,0
158.53557,158.74539,51,80,0
158.74985,158.95967,51,80,0
157.8927,159.17395,58,80,0
157.8927,159.17395,62,80,0
158.96414,159.17395,51,80,0
159.17842,159.38824,51,80,0
159.17842,159.60252,60,80,0
159.17842,159.60252,56,80,0
159.3927,159.60252,51,80,0
159.607,159.81682,51,80,0
159.607,160.0311,60,80,0
159.607,160.0311,56,80,0
159.82127,160.0311,51,80,0
160.03557,160.24538,51,80,0
160.03557,160.45967,59,80,0
160.03557,160.45967,56,80,0
160.24985,160.45967,51,80,0
160.46413,160.88824,58,80,0
160.46413,160.88824,55,80,0
160.46413,160.88824,51,80,0
161.53555,161.74538,55,80,0
161.74985,161.95967,53,80,0
161.96413,162.17395,56,80,0
162.17842,162.38824,50,80,0
162.3927,162.60252,53,80,0
162.607,162.8168,46,80,0
162.82127,163.0311,50,80,0
163.03555,163.45967,51,80,0
163.8927,163.99538,60,80,0
163.99985,164.10252,58,80,0
164.10698,164.20967,56,80,0
164.21413,164.3168,55,80,0
164.32127,164.5311,53,80,0
164.53555,164.74538,56,80,0
164.74985,164.95967,50,80,0
164.96413,165.17395,53,80,0
165.17842,165.38823,46,80,0
165.3927,165.60252,50,80,0
165.60698,165.8168,51,80,0
165.82127,166.0311,55,80,0
166.03555,166.24538,48,80,0
166.24985,166.45966,51,80,0
166.46413,166.67395,45,80,0
166.6784,166.88823,48,80,0
166.8927,167.10252,41,80,0
167.10698,167.3168,45,80,0
167.32127,167.5311,48,80,0
167.53555,167.74538,52,80,0
167.74985,167.95966,53,80,0
167.96413,168.17395,45,80,0
168.1784,168.38823,46,80,0
168.3927,168.60252,50,80,0
168.60698,168.8168,53,80,0
168.82127,169.03108,57,80,0
169.03555,169.24538,58,80,0
169.24983,169.45966,57,80,0
169.46413,169.67395,58,80,0
169.6784,169.88823,57,80,0
169.8927,170.14813,58,80,0
170.15356,170.409,57,80,0
170.41443,170.66988,58,80,0
170.67531,171.0017,58,80,0
171.00864,172.40894,56,80,0
171.00864,172.40894,53,80,0
171.00864,172.40894,51,80,0
171.00864,172.40894,44,80,0
172.41339,173.69464,56,80,0
172.41339,173.69464,53,80,0
172.41339,173.69464,51,80,0
172.41339,173.69464,44,80,0
173.69911,174.12321,59,80,0
173.69911,174.12321,56,80,0
174.12769,174.55179,59,80,0
174.12769,174.55179,56,80,0
174.55626,174.98036,59,80,0
174.55626,174.98036,54,80,0
174.98482,176.26607,59,80,0
174.98482,176.26607,53,80,0
176.27054,176.69464,71,80,0
176.27054,176.69464,68,80,0
176.69911,177.12321,71,80,0
176.69911,177.12321,68,80,0
177.12769,177.55179,71,80,0
177.12769,177.55179,66,80,0
177.55624,178.8375,71,80,0
177.55624,178.8375,65,80,0
178.84196,179.26607,61,80,0
178.84196,179.26607,58,80,0
179.27054,179.69464,61,80,0
179.27054,179.69464,58,80,0
179.6991,180.12321,61,80,0
179.6991,180.12321,56,80,0
180.12767,181.40892,61,80,0
180.12767,181.40892,55,80,0
181.41339,181.8375,73,80,0
181.41339,181.8375,70,80,0
181.84196,182.26607,73,80,0
181.84196,182.26607,70,80,0
182.27052,182.69464,73,80,0
182.27052,182.69464,68,80,0
182.6991,183.98035,73,80,0
182.6991,183.98035,67,80,0
184.41339,184.8375,70,80,0
184.41339,184.8375,66,80,0
185.6991,186.1232,65,80,0
185.6991,186.1232,69,80,0
186.12767,186.55177,53,80,0
186.55624,186.98035,41,80,0
186.98482,187.40892,29,80,0
187.84195,187.94463,50,80,0
187.9491,188.05177,58,80,0
188.05624,188.15892,53,80,0
188.16338,188.26605,58,80,0
188.27052,188.3732,50,80,0
188.37767,188.48035,58,80,0
188.4848,188.5875,53,80,0
188.59195,188.69463,58,80,0
188.6991,188.80177,50,80,0
188.80624,188.90892,58,80,0
188.91338,189.01605,53,80,0
189.02052,189.1232,58,80,0
189.12767,189.23035,50,80,0
189.2348,189.3375,58,80,0
189.34195,189.44463,53,80,0
189.4491,189.55177,58,80,0
189.55624,189.65892,50,80,0
189.66338,189.76605,58,80,0
189.77052,189.8732,53,80,0
189.87767,189.98035,58,80,0
189.9848,190.0875,50,80,0
190.09195,190.19463,58,80,0
190.1991,190.30177,53,80,0
190.30623,190.40892,58,80,0
190.41338,190.51605,51,80,0
190.52052,190.6232,58,80,0
190.62767,190.73035,55,80,0
190.7348,190.83748,58,80,0
190.84195,190.94463,51,80,0
190.9491,191.05177,58,80,0
191.05623,191.15892,55,80,0
191.16338,191.26605,58,80,0
191.27052,191.3732,51,80,0
191.37767,191.48035,59,80,0
191.4848,191.58748,55,80,0
191.59195,191.69463,59,80,0
191.6991,191.80177,51,80,0
191.80623,191.90892,60,80,0
191.91338,192.01605,55,80,0
192.02052,192.1232,60,80,0
192.12767,192.23035,51,80,0
192.2348,192.33748,60,80,0
192.34195,192.44463,55,80,0
192.4491,192.55177,60,80,0
192.55623,192.6589,52,80,0
192.66338,192.76605,60,80,0
192.77052,192.8732,58,80,0
192.87766,192.98035,60,80,0
192.9848,193.08748,50,80,0
193.09195,193.19463,60,80,0
193.1991,193.30177,57,80,0
193.30623,193.4089,60,80,0
193.41338,193.51605,50,80,0
193.52052,193.6232,60,80,0
193.62766,193.73035,57,80,0
193.7348,193.83748,60,80,0
193.84195,193.94463,50,80,0
193.9491,194.05177,60,80,0
194.05623,194.1589,57,80,0
194.16338,194.26605,60,80,0
194.27052,194.3732,53,80,0
194.37766,194.48035,63,80,0
194.4848,194.58748,60,80,0
194.59195,194.69463,63,80,0
194.69908,194.80177,53,80,0
194.80623,194.9089,63,80,0
194.91338,195.01605,57,80,0
195.02052,195.1232,63,80,0
195.12766,195.23033,54,80,0
195.2348,195.33748,63,80,0
195.34195,195.44463,57,80,0
195.44908,195.55177,63,80,0
195.55623,195.6589,55,80,0
195.66338,195.76605,62,80,0
195.77052,195.8732,58,80,0
195.87766,195.98033,62,80,0
195.9848,196.08748,51,80,0
196.09195,196.19463,60,80,0
196.19908,196.30177,55,80,0
196.30623,196.4089,60,80,0
196.41338,196.51605,53,80,0
196.52052,196.6232,60,80,0
196.62766,196.73033,57,80,0
196.7348,196.83748,63,80,0
196.84195,197.26605,58,80,0
196.84195,197.26605,46,80,0
201.9848,202.08748,50,80,0
202.09193,202.19461,58,80,0
202.19908,202.30176,53,80,0
202.30623,202.4089,58,80,0
202.41336,202.51605,50,80,0
202.52051,202.62318,58,80,0
202.62766,202.73033,53,80,0
202.7348,202.83748,58,80,0
202.84193,202.94461,50,80,0
202.94908,203.05176,58,80,0
203.05623,203.1589,53,80,0
203.16336,203.26605,58,80,0
203.27051,203.37318,50,80,0
203.37766,203.48033,58,80,0
203.48479,203.58748,53,80,0
203.59193,203.69461,58,80,0
203.69908,203.80176,50,80,0
203.80623,203.9089,58,80,0
203.91336,204.01604,53,80,0
204.02051,204.12318,58,80,0
204.12766,204.23033,50,80,0
204.23479,204.33748,58,80,0
204.34193,204.44461,53,80,0
204.44908,204.55176,58,80,0
204.55623,204.6589,51,80,0
204.66336,204.76604,58,80,0
204.77051,204.87318,55,80,0
204.87766,204.98033,58,80,0
204.98479,205.08748,51,80,0
205.09193,205.19461,58,80,0
205.19908,205.30176,55,80,0
205.30623,205.4089,58,80,0
205.41336,205.51604,51,80,0
205.52051,205.62318,59,80,0
205.62766,205.73033,55,80,0
205.73479,205.83746,59,80,0
205.84193,205.94461,51,80,0
205.94908,206.05176,60,80,0
206.05621,206.1589,55,80,0
206.16336,206.26604,60,80,0
206.27051,206.37318,51,80,0
206.37766,206.48033,60,80,0
206.48479,206.58746,55,80,0
206.59193,206.69461,60,80,0
206.69908,206.80176,52,80,0
206.80621,206.9089,60,80,0
206.91336,207.01604,58,80,0
207.02051,207.12318,60,80,0
207.12766,207.23033,50,80,0
207.23479,207.33746,60,80,0
207.34193,207.44461,57,80,0
207.44908,207.55176,60,80,0
207.55621,207.6589,50,80,0
207.66336,207.76604,60,80,0
207.77051,207.87318,57,80,0
207.87764,207.98033,60,80,0
207.98479,208.08746,50,80,0
208.09193,208.19461,60,80,0
208.19908,208.30176,57,80,0
208.30621,208.40889,60,80,0
208.41336,208.51604,53,80,0
208.52051,208.62318,63,80,0
208.62764,208.73033,60,80,0
208.73479,208.83746,63,80,0
208.84193,208.94461,53,80,0
208.94908,209.05176,63,80,0
209.05621,209.15889,57,80,0
209.16336,209.26604,63,80,0
209.27051,209.37318,54,80,0
209.37764,209.48033,63,80,0
209.48479,209.58746,57,80,0
209.59193,209.69461,63,80,0
209.69908,209.80176,55,80,0
209.80621,209.90889,62,80,0
209.91336,210.01604,58,80,0
210.02051,210.12318,62,80,0
210.12764,210.23032,51,80,0
210.23479,210.33746,60,80,0
210.34193,210.44461,55,80,0
210.44907,210.55176,60,80,0
210.55621,210.65889,53,80,0
210.66336,210.76604,60,80,0
210.77051,210.87318,57,80,0
210.87764,210.98032,63,80,0
210.98479,211.08746,46,80,0
211.09193,211.19461,50,80,0
211.19907,211.30176,51,80,0
211.30621,211.40889,53,80,0
212.48479,212.69461,53,80,0
212.48479,212.69461,48,80,0
212.48479,212.69461,45,80,0
212.69907,212.90889,53,80,0
212.69907,212.90889,48,80,0
212.69907,212.90889,45,80,0
212.91336,213.12318,53,80,0
212.91336,213.12318,48,80,0
212.91336,213.12318,45,80,0
213.12764,213.33746,53,80,0
213.12764,213.33746,48,80,0
213.12764,213.33746,45,80,0
213.34193,213.55174,53,80,0
213.34193,213.55174,48,80,0
213.34193,213.55174,45,80,0
213.55621,213.65889,58,80,0
213.66336,213.76604,62,80,0
213.7705,213.87318,63,80,0
213.87764,213.98032,65,80,0
215.05621,215.26604,65,80,0
215.05621,215.26604,60,80,0
215.05621,215.26604,57,80,0
215.2705,215.48032,65,80,0
215.2705,215.48032,60,80,0
215.2705,215.48032,57,80,0
215.48479,215.69461,65,80,0
215.48479,215.69461,60,80,0
215.48479,215.69461,57,80,0
215.69907,215.90889,65,80,0
215.69907,215.90889,60,80,0
215.69907,215.90889,57,80,0
215.91336,216.12317,65,80,0
215.91336,216.12317,60,80,0
215.91336,216.12317,57,80,0
216.34192,216.55174,62,80,0
216.34192,216.55174,58,80,0
216.7705,216.98032,62,81,0
216.7705,216.98032,57,81,0
216.7705,216.98032,54,81,0
217.19907,217.40889,62,84,0
217.19907,217.40889,58,84,0
217.19907,217.40889,55,84,0
217.62764,217.83746,58,87,0
217.62764,217.83746,53,87,0
217.62764,217.83746,50,87,0
218.05621,218.26604,58,90,0
218.05621,218.26604,55,90,0
218.05621,218.26604,51,90,0
218.48479,218.6946,55,92,0
218.48479,218.6946,50,92,0
218.48479,218.6946,47,92,0
218.91335,219.12317,55,95,0
218.91335,219.12317,52,95,0
218.91335,219.12317,48,95,0
219.34192,219.55174,53,98,0
219.34192,219.55174,48,98,0
219.34192,219.55174,45,98,0
219.7705,219.98032,53,101,0
219.7705,219.98032,50,101,0
219.7705,219.98032,46,101,0
220.19907,220.40889,53,104,0
220.19907,220.40889,48,104,0
220.19907,220.40889,45,104,0
220.62764,220.83745,53,107,0
220.62764,220.83745,50,107,0
220.62764,220.83745,46,107,0
221.0562,221.26602,53,110,0
221.0562,221.26602,48,110,0
221.0562,221.26602,45,110,0
221.2705,221.48032,53,80,0
221.2705,221.48032,50,80,0
221.2705,221.48032,46,80,0
225.34192,225.55174,65,80,0
225.5562,225.76602,70,80,0
225.7705,225.9803,74,80,0
225.98477,226.1946,77,80,0
227.0562,227.26602,41,110,0
227.2705,227.4803,46,110,0
227.48477,227.6946,50,110,0
227.69905,228.12317,53,110,0
229.19905,229.40887,53,81,0
229.41335,229.62315,57,82,0
229.62762,229.83745,60,84,0
229.8419,230.05173,63,85,0
230.0562,230.26602,41,86,0
230.27048,230.4803,45,88,0
230.48477,230.6946,48,89,0
230.69905,230.90887,51,90,0
230.91335,231.12315,42,92,0
231.12762,231.33745,45,93,0
231.3419,231.55173,48,94,0
231.5562,231.76602,51,96,0
231.77048,231.9803,41,97,0
231.98477,232.19458,45,98,0
232.19905,232.40887,48,100,0
232.41333,232.62315,51,101,0
232.62762,232.83745,53,102,0
232.8419,233.05173,57,104,0
233.0562,233.26602,60,105,0
233.27048,233.4803,63,106,0
233.48477,233.69458,53,108,0
233.69905,233.90887,63,109,0
233.91333,234.12315,53,110,0
234.12762,234.55173,62,80,0
234.12762,234.55173,58,80,0
235.56773,237.36148,58,80,0
235.56773,237.36148,55,80,0
237.36774,239.16148,60,80,0
237.36774,239.16148,51,80,0
239.16772,239.62447,60,80,0
239.16772,239.62447,53,80,0
239.62927,240.086,60,80,0
239.62927,240.086,53,80,0
240.0908,240.31677,60,80,0
240.0908,240.54753,53,80,0
240.32158,240.54753,57,80,0
240.55234,240.7783,58,80,0
240.55234,240.7783,46,80,0
240.78311,241.00908,58,80,0
241.01389,241.23984,59,80,0
241.24464,241.47061,60,80,0
241.47542,241.70139,61,80,0
241.70619,241.93214,62,80,0
241.93695,243.31676,63,80,0
243.32158,244.34859,55,80,0
244.35454,244.6343,56,80,0
243.32158,244.92001,51,80,0
244.64026,244.92001,58,80,0
244.92596,246.6343,56,80,0
244.92596,246.6343,53,80,0
244.92596,246.6343,51,80,0
244.92596,246.6343,44,80,0
246.64024,248.34859,56,80,0
246.64024,248.34859,53,80,0
246.64024,248.34859,51,80,0
246.64024,248.34859,44,80,0
248.35454,248.92001,36,80,0
248.35454,248.92001,32,80,0
248.35454,248.92001,44,80,0
248.92596,249.49144,36,83,0
248.92596,249.49144,32,83,0
248.92596,249.49144,44,83,0
249.49739,250.06287,36,86,0
249.49739,250.06287,32,86,0
249.49739,250.06287,44,86,0
250.06882,251.86256,44,90,0
250.06882,251.86256,36,90,0
250.06882,251.86256,32,90,0
251.86882,252.46257,36,100,0
251.86882,252.46257,32,100,0
251.86882,252.46257,44,100,0
252.46881,253.06256,36,104,0
252.46881,253.06256,32,104,0
252.46881,253.06256,44,104,0
253.06882,253.66257,36,107,0
253.06882,253.66257,32,107,0
253.06882,253.66257,44,107,0
253.66882,255.55698,43,110,0
253.66882,255.55698,36,110,0
253.66882,255.55698,31,110,0
255.56355,256.18854,43,110,0
255.56355,256.18854,36,110,0
255.56355,256.18854,31,110,0
256.19513,256.82013,43,110,0
256.19513,256.82013,36,110,0
256.19513,256.82013,31,110,0
256.82672,257.45172,43,110,0
256.82672,257.45172,36,110,0
256.82672,257.45172,31,110,0
257.45828,258.08328,42,110,0
257.45828,258.08328,36,110,0
257.45828,258.08328,32,110,0
258.947,259.37112,59,110,0
258.947,259.37112,53,110,0
260.23273,260.65683,46,110,0
260.23273,260.65683,43,110,0
261.51843,261.8354,41,110,0
261.83987,261.94254,35,110,0
261.947,262.37112,35,110,0
262.80414,263.01398,36,110,0
263.01843,263.22824,48,80,0
263.23273,263.44254,48,80,0
263.447,263.65683,48,80,0
263.6613,263.8711,48,80,0
263.87558,264.0854,48,80,0
264.08984,264.29968,48,80,0
264.30414,264.51398,48,80,0
264.51843,264.72824,48,80,0
264.73273,264.94254,48,80,0
264.947,265.15683,48,80,0
264.08984,265.3711,60,80,0
264.08984,265.3711,57,80,0
265.1613,265.3711,48,80,0
265.37558,265.5854,48,80,0
265.58984,265.79968,48,80,0
265.80414,266.01398,48,80,0
266.01843,266.22824,48,80,0
266.23273,266.44254,48,80,0
265.37558,266.65683,59,80,0
265.37558,266.65683,55,80,0
266.447,266.65683,48,80,0
266.6613,266.8711,48,80,0
266.6613,267.0854,57,80,0
266.6613,267.0854,53,80,0
266.87558,267.0854,48,80,0
267.08984,267.29968,48,80,0
267.08984,267.51395,56,80,0
267.08984,267.51395,53,80,0
267.30414,267.51395,48,80,0
267.51843,267.72824,48,80,0
267.51843,267.94254,55,80,0
267.51843,267.94254,53,80,0
267.7327,267.94254,48,80,0
267.947,268.15683,48,80,0
267.947,268.3711,55,80,0
267.947,268.3711,52,80,0
268.1613,268.3711,48,80,0
268.37558,268.5854,48,80,0
268.58984,268.79968,48,80,0
268.80414,269.01395,48,80,0
269.01843,269.22824,48,80,0
269.2327,269.44254,48,80,0
269.447,269.65683,48,80,0
269.6613,269.8711,48,80,0
269.87558,270.0854,48,80,0
270.08984,270.29968,48,80,0
269.2327,270.51395,60,80,0
269.2327,270.51395,57,80,0
270.30414,270.51395,48,80,0
270.51843,270.72824,48,80,0
270.7327,270.94254,48,80,0
270.947,271.15683,48,80,0
271.1613,271.3711,48,80,0
271.37558,271.5854,48,80,0
270.51843,271.79968,59,80,0
270.51843,271.79968,55,80,0
271.58984,271.79968,48,80,0
271.80414,272.01395,48,80,0
271.80414,272.22824,57,80,0
271.80414,272.22824,53,80,0
272.01843,272.22824,48,80,0
272.2327,272.44254,48,80,0
272.2327,272.6568,56,80,0
272.2327,272.6568,53,80,0
272.447,272.6568,48,80,0
272.6613,272.8711,48,80,0
272.6613,273.0854,55,80,0
272.6613,273.0854,53,80,0
272.87555,273.0854,48,80,0
273.08984,273.29968,55,80,0
273.08984,273.29968,52,80,0
273.08984,273.29968,48,80,0
274.37555,274.47824,47,80,0
274.4827,274.5854,37,80,0
274.80414,274.9068,47,80,0
274.9113,275.01395,37,80,0
275.2327,275.3354,47,80,0
275.33984,275.44254,37,80,0
275.6613,275.76395,48,80,0
275.76843,275.8711,36,80,0
276.08984,276.51395,67,80,0
276.5184,276.72824,72,80,0
276.947,277.04965,47,80,0
277.05414,277.1568,37,80,0
277.37555,277.47824,47,80,0
277.4827,277.5854,37,80,0
277.80414,277.9068,47,80,0
277.9113,278.01395,37,80,0
278.2327,278.3354,48,80,0
278.33984,278.44254,36,80,0
278.6613,279.0854,67,80,0
279.08984,279.29965,76,80,0
279.5184,279.6211,47,80,0
279.62555,279.72824,37,80,0
279.947,280.04965,47,80,0
280.05414,280.1568,37,80,0
280.37555,280.47824,47,80,0
280.4827,280.5854,37,80,0
280.80414,281.22824,48,110,0
280.80414,281.22824,36,110,0
282.30414,282.51395,36,110,0
282.5184,282.72824,40,110,0
282.7327,282.9425,43,110,0
282.947,283.1568,48,110,0
283.16125,283.3711,52,110,0
283.37555,283.79965,53,110,0
284.66125,284.76395,40,80,0
284.7684,284.8711,30,80,0
285.08984,285.1925,40,80,0
285.197,285.29965,30,80,0
285.5184,285.6211,40,80,0
285.62555,285.72824,30,80,0
285.947,286.04965,41,80,0
286.0541,286.1568,29,80,0
286.37555,286.79965,72,80,0
286.8041,287.01395,77,80,0
287.2327,287.33536,40,80,0
287.33984,287.4425,30,80,0
287.66125,287.76395,40,80,0
287.7684,287.8711,30,80,0
288.08984,288.1925,40,80,0
288.197,288.29965,30,80,0
288.5184,288.6211,41,80,0
288.62555,288.72824,29,80,0
288.947,289.3711,72,80,0
289.37555,289.58536,81,80,0
289.8041,289.9068,40,80,0
289.91125,290.01395,30,80,0
290.2327,290.33536,40,80,0
290.33984,290.4425,30,80,0
290.66125,290.76395,40,80,0
290.7684,290.8711,30,80,0
291.08984,291.1925,41,110,0
291.19696,291.29965,29,110,0
292.58984,292.79965,41,110,0
292.8041,293.01395,45,110,0
293.0184,293.2282,48,110,0
293.2327,293.4425,53,110,0
293.44696,293.6568,57,110,0
293.66125,294.08536,58,110,0
295.16125,295.37106,34,110,0
295.37555,295.58536,38,110,0
295.5898,295.79965,41,110,0
295.8041,296.01395,46,110,0
296.0184,296.2282,50,110,0
296.2327,296.6568,51,110,0
297.7327,297.9425,39,109,0
297.94696,298.1568,43,108,0
298.16125,298.37106,46,107,0
298.37555,298.58536,51,105,0
298.5898,298.79965,55,104,0
298.8041,299.01392,56,103,0
299.0184,299.2282,44,102,0
299.23267,299.4425,48,100,0
299.44696,299.6568,51,99,0
299.66125,299.87106,56,98,0
299.87555,300.08536,60,97,0
300.3041,300.51392,44,94,0
300.5184,300.7282,48,93,0
300.73267,300.9425,51,92,0
300.94696,301.1568,56,90,0
301.16125,301.37106,60,89,0
301.5898,301.79965,44,87,0
301.8041,302.01392,48,85,0
302.0184,302.2282,53,84,0
302.23267,302.4425,56,83,0
302.44696,302.65677,60,81,0
302.87552,303.08536,44,80,0
303.0898,303.29965,48,80,0
303.3041,303.51392,53,80,0
303.5184,303.7282,56,80,0
304.5898,304.79965,44,80,0
304.8041,305.01392,48,80,0
305.0184,305.2282,53,80,0
305.23267,305.4425,56,80,0
306.3041,306.51392,44,80,0
306.5184,306.7282,48,80,0
306.73267,306.9425,53,80,0
306.94696,307.15677,56,80,0
307.16125,307.37106,44,80,0
307.37552,307.58536,48,80,0
307.5898,307.79962,53,80,0
307.8041,308.01392,56,80,0
308.01837,308.2282,44,80,0
308.23267,308.4425,48,81,0
308.44696,308.65677,53,83,0
308.66125,308.87106,56,84,0
308.87552,309.08536,44,86,0
309.0898,309.31577,48,88,0
309.3206,309.54654,53,89,0
309.55136,309.79614,56,91,0
309.80136,310.61783,44,92,0
310.05136,312.25476,48,94,0
310.32407,312.25476,53,96,0
310.62408,312.25476,56,97,0
312.26044,312.66385,60,80,0
312.66953,312.8002,53,80,0
312.8059,313.6184,53,80,0
313.8968,314.43658,39,80,0
313.8968,314.43658,32,80,0
314.44226,314.98203,39,83,0
314.44226,314.98203,32,83,0
314.9877,315.5275,39,86,0
314.9877,315.5275,32,86,0
315.53317,317.16385,39,90,0
315.53317,317.16385,33,90,0
317.16953,317.7093,54,100,0
317.16953,317.7093,51,100,0
317.16953,317.7093,45,100,0
317.71497,318.3747,54,104,0
317.71497,318.3747,51,104,0
317.71497,318.3747,45,104,0
318.38165,319.1733,54,107,0
318.38165,319.1733,51,107,0
318.38165,319.1733,45,107,0
319.18164,321.3428,55,110,0
319.18164,321.3428,51,110,0
319.18164,321.3428,46,110,0
321.3503,321.88046,46,80,0
321.3503,321.88046,34,80,0
321.88605,322.41617,46,80,0
321.88605,322.41617,34,80,0
322.42175,322.95187,46,80,0
322.42175,322.95187,34,80,0
322.95746,323.4876,51,80,0
322.95746,323.4876,39,80,0
326.17175,327.77332,75,80,0
326.17175,327.77332,72,80,0
326.17175,327.77332,68,80,0
327.7789,329.38046,63,80,0
327.7789,329.38046,60,80,0
327.7789,329.38046,56,80,0
329.38602,329.91617,44,80,0
329.38602,329.91617,32,80,0
329.92175,330.45187,44,83,0
329.92175,330.45187,32,83,0
330.45746,330.98758,44,86,0
330.45746,330.98758,32,86,0
330.99316,332.59473,45,90,0
330.99316,332.59473,33,90,0
332.6003,333.13043,69,100,0
333.13602,333.72977,69,104,0
333.73602,334.4782,69,107,0
334.48602,336.7282,70,110,0
336.73602,337.2308,46,80,0
336.73602,337.2308,34,80,0
337.23602,337.7308,46,80,0
337.23602,337.7308,34,80,0
337.73602,338.2308,46,80,0
337.73602,338.2308,34,80,0
338.23602,338.44586,51,80,0
338.23602,338.44586,39,80,0
338.45032,338.66013,51,80,0
338.6646,338.87442,51,80,0
338.87888,339.0887,51,80,0
339.09317,339.30298,51,80,0
339.30746,339.51727,51,80,0
339.52173,339.73157,51,80,0
339.73602,339.94586,51,80,0
339.95032,340.16013,51,80,0
340.16458,340.37442,51,80,0
340.37888,340.5887,51,80,0
339.52173,340.80298,60,80,0
339.52173,340.80298,63,80,0
340.59317,340.80298,51,80,0
340.80746,341.01727,51,80,0
341.02173,341.23157,51,80,0
341.23602,341.44583,51,80,0
341.45032,341.66013,51,80,0
341.66458,341.87442,51,80,0
340.80746,342.0887,58,80,0
340.80746,342.0887,62,80,0
341.87888,342.0887,51,80,0
342.09317,342.30298,51,80,0
342.09317,342.51727,60,80,0
342.09317,342.51727,56,80,0
342.30746,342.51727,51,80,0
342.52173,342.73157,51,80,0
342.52173,342.94583,60,80,0
342.52173,342.94583,56,80,0
342.73602,342.94583,51,80,0
342.95032,343.16013,51,80,0
342.95032,343.37442,59,80,0
342.95032,343.37442,56,80,0
343.16458,343.37442,51,80,0
343.37888,343.5887,51,80,0
343.37888,343.80298,58,80,0
343.37888,343.80298,55,80,0
343.59317,343.80298,51,80,0
343.80746,344.01727,51,80,0
344.02173,344.23157,51,80,0
344.23602,344.44583,51,80,0
344.45032,344.66013,51,80,0
344.66458,344.87442,51,80,0
344.87888,345.08868,51,80,0
345.09317,345.30298,51,80,0
345.30743,345.51727,51,80,0
345.52173,345.73157,51,80,0
344.66458,345.94583,60,80,0
344.66458,345.94583,63,80,0
345.73602,345.94583,51,80,0
345.95032,346.16013,51,80,0
346.16458,346.37442,51,80,0
346.37888,346.58868,51,80,0
346.59317,346.80298,51,80,0
346.80743,347.01727,51,80,0
345.95032,347.23157,58,80,0
345.95032,347.23157,62,80,0
347.02173,347.23157,51,80,0
347.23602,347.44583,51,80,0
347.23602,347.66013,60,80,0
347.23602,347.66013,56,80,0
347.45032,347.66013,51,80,0
347.66458,347.87442,51,80,0
347.66458,348.08868,60,80,0
347.66458,348.08868,56,80,0
347.87888,348.08868,51,80,0
348.09317,348.30298,51,80,0
348.09317,348.51727,59,80,0
348.09317,348.51727,56,80,0
348.30743,348.51727,51,80,0
348.52173,348.94583,58,80,0
348.52173,348.94583,55,80,0
348.52173,348.94583,51,80,0
349.59317,349.80298,55,80,0
349.80743,350.01727,53,80,0
350.02173,350.23154,56,80,0
350.23602,350.44583,50,80,0
350.4503,350.66013,53,80,0
350.66458,350.87442,46,80,0
350.87888,351.08868,50,80,0
351.09317,351.51727,51,80,0
351.9503,352.05298,60,80,0
352.05743,352.16013,58,80,0
352.16458,352.26727,56,80,0
352.27173,352.37442,55,80,0
352.37888,352.58868,53,80,0
352.59317,352.80298,56,80,0
352.80743,353.01727,50,80,0
353.02173,353.23154,53,80,0
353.23602,353.44583,46,80,0
353.4503,353.66013,50,80,0
353.66458,353.8744,51,80,0
353.87888,354.08868,55,80,0
354.09314,354.30298,48,80,0
354.30743,354.51727,51,80,0
354.52173,354.73154,45,80,0
354.73602,354.94583,48,80,0
354.9503,355.16013,41,80,0
355.16458,355.3744,45,80,0
355.37888,355.58868,48,80,0
355.59314,355.80298,52,80,0
355.80743,356.01727,53,80,0
356.02173,356.23154,45,80,0
356.23602,356.44583,46,80,0
356.4503,356.66013,50,86,0
356.66458,356.8744,53,92,0
356.87888,357.08868,57,98,0
357.09314,357.30298,58,104,0
357.30743,357.51727,62,110,0
357.52173,357.74768,65,110,0
357.7525,357.97845,69,110,0
357.98325,358.44,70,110,0
358.4448,358.93958,58,110,0
358.9448,359.43958,46,110,0
359.4448,360.03854,34,110,0
360.0448,360.63855,32,110,0
360.6448,360.74747,55,80,0
360.75195,360.8546,63,80,0
360.85907,360.96176,58,80,0
360.96622,361.0689,63,80,0
361.07336,361.17606,55,80,0
361.1805,361.2832,63,80,0
361.28766,361.39032,58,80,0
361.3948,361.49747,63,80,0
361.50195,361.6046,55,80,0
361.60907,361.71176,63,80,0
361.71622,361.8189,58,80,0
361.82336,361.92606,63,80,0
361.9305,362.0332,55,80,0
362.03766,362.14032,63,80,0
362.1448,362.24747,58,80,0
362.25195,362.3546,63,80,0
362.35907,362.46176,55,80,0
362.46622,362.5689,63,80,0
362.57336,362.67606,58,80,0
362.6805,362.7832,63,80,0
362.78766,362.89032,55,80,0
362.8948,362.99747,63,80,0
363.00195,363.1046,58,80,0
363.10907,363.21176,63,80,0
363.21622,363.3189,56,80,0
363.32336,363.42606,63,80,0
363.4305,363.5332,60,80,0
363.53766,363.64032,63,80,0
363.6448,363.74747,56,80,0
363.75192,363.8546,63,80,0
363.85907,363.96176,60,80,0
363.96622,364.0689,63,80,0
364.07336,364.17606,56,80,0
364.1805,364.28317,64,80,0
364.28766,364.39032,60,80,0
364.3948,364.49747,64,80,0
364.50192,364.6046,56,80,0
364.60907,364.71176,65,80,0
364.71622,364.8189,60,80,0
364.82336,364.92606,65,80,0
364.9305,365.03317,56,80,0
365.03766,365.14032,65,80,0
365.1448,365.24747,60,80,0
365.25192,365.3546,65,80,0
365.35907,365.46176,57,80,0
365.46622,365.5689,65,80,0
365.57336,365.67606,63,80,0
365.6805,365.78317,65,80,0
365.78766,365.89032,58,80,0
365.8948,365.99747,65,80,0
366.00192,366.1046,62,80,0
366.10907,366.21176,65,80,0
366.21622,366.3189,53,80,0
366.32336,366.42606,62,80,0
366.4305,366.53317,58,80,0
366.53766,366.64032,62,80,0
366.6448,366.74747,50,80,0
366.75192,366.8546,58,80,0
366.85907,366.96176,53,80,0
366.96622,367.0689,58,80,0
367.07336,367.17606,46,80,0
367.1805,367.28317,56,80,0
367.28766,367.39032,53,80,0
367.3948,367.49747,56,80,0
367.50192,367.6046,46,80,0
367.60907,367.71176,56,80,0
367.71622,367.8189,53,80,0
367.82336,367.92606,56,80,0
367.9305,368.03317,47,80,0
368.03766,368.14032,56,80,0
368.14478,368.24747,50,80,0
368.25192,368.3546,56,80,0
368.35907,368.46176,48,80,0
368.46622,368.5689,55,80,0
368.57336,368.67603,51,80,0
368.6805,368.78317,55,80,0
368.78766,368.89032,44,80,0
368.89478,368.99747,53,80,0
369.00192,369.1046,48,80,0
369.10907,369.21176,53,80,0
369.21622,369.3189,46,80,0
369.32336,369.42603,53,80,0
369.4305,369.53317,50,80,0
369.53766,369.64032,56,80,0
369.64478,370.0689,51,80,0
369.64478,370.0689,39,80,0
377.35907,377.46173,55,80,0
377.46622,377.56888,63,80,0
377.57336,377.67603,58,80,0
377.68048,377.78317,63,80,0
377.78763,377.89032,55,80,0
377.89478,377.99747,63,80,0
378.00192,378.1046,58,80,0
378.10907,378.21173,63,80,0
378.21622,378.31888,55,80,0
378.32336,378.42603,63,80,0
378.43048,378.53317,58,80,0
378.53763,378.64032,63,80,0
378.64478,378.74747,55,80,0
378.75192,378.8546,63,80,0
378.85907,378.96173,58,80,0
378.96622,379.06888,63,80,0
379.07336,379.17603,55,80,0
379.18048,379.28317,63,80,0
379.28763,379.39032,58,80,0
379.39478,379.49747,63,80,0
379.50192,379.6046,55,80,0
379.60907,379.71173,63,80,0
379.71622,379.81888,58,80,0
379.82336,379.92603,63,80,0
379.93048,380.03317,56,80,0
380.03763,380.14032,63,80,0
380.14478,380.24747,60,80,0
380.25192,380.3546,63,80,0
380.35907,380.46173,56,80,0
380.46622,380.56888,63,80,0
380.57336,380.67603,60,80,0
380.68048,380.78317,63,80,0
380.78763,380.89032,56,80,0
380.89478,380.99747,64,80,0
381.00192,381.10458,60,80,0
381.10907,381.21173,64,80,0
381.21622,381.31888,56,80,0
381.32333,381.42603,65,80,0
381.43048,381.53317,60,80,0
381.53763,381.64032,65,80,0
381.64478,381.74747,56,80,0
381.75192,381.85458,65,80,0
381.85907,381.96173,60,80,0
381.96622,382.06888,65,80,0
382.07333,382.17603,57,80,0
382.18048,382.28317,65,80,0
382.28763,382.39032,63,80,0
382.39478,382.49747,65,80,0
382.50192,382.60458,58,80,0
382.60907,382.71173,65,80,0
382.71622,382.81888,62,80,0
382.82333,382.92603,65,80,0
382.93048,383.03317,53,80,0
383.03763,383.14032,62,80,0
383.14478,383.24747,58,80,0
383.25192,383.35458,62,80,0
383.35907,383.46173,50,80,0
383.46622,383.56888,58,80,0
383.57333,383.67603,53,80,0
383.68048,383.78317,58,80,0
383.78763,383.89032,46,80,0
383.89478,383.99747,56,80,0
384.00192,384.10458,53,80,0
384.10907,384.21173,56,80,0
384.21622,384.31888,46,80,0
384.32333,384.42603,56,80,0
384.43048,384.53317,53,80,0
384.53763,384.64032,56,80,0
384.64478,384.74747,47,80,0
384.75192,384.85458,56,80,0
384.85907,384.96173,50,80,0
384.96622,385.06888,56,80,0
385.07333,385.17603,48,80,0
385.18048,385.28317,55,80,0
385.28763,385.39032,51,80,0
385.39478,385.49744,55,80,0
385.50192,385.60458,44,80,0
385.60907,385.71173,53,80,0
385.7162,385.81888,48,80,0
385.82333,385.92603,53,80,0
385.93048,386.03317,46,80,0
386.03763,386.14032,53,80,0
386.14478,386.24744,50,80,0
386.25192,386.35458,56,80,0
386.35907,386.46173,51,80,0
386.4662,386.56888,55,80,0
386.57333,386.67603,56,80,0
386.68048,386.78317,58,80,0
387.85907,388.06888,58,80,0
387.85907,388.06888,53,80,0
387.85907,388.06888,50,80,0
388.07333,388.28317,58,80,0
388.07333,388.28317,53,80,0
388.07333,388.28317,50,80,0
388.28763,388.49744,58,80,0
388.28763,388.49744,53,80,0
388.28763,388.49744,50,80,0
388.50192,388.71173,58,80,0
388.50192,388.71173,53,80,0
388.50192,388.71173,50,80,0
388.7162,388.92603,58,80,0
388.7162,388.92603,53,80,0
388.7162,388.92603,50,80,0
388.93048,389.03317,63,80,0
389.03763,389.14032,67,80,0
389.14478,389.24744,68,80,0
389.25192,389.35458,70,80,0
390.43048,390.6403,70,80,0
390.43048,390.6403,65,80,0
390.43048,390.6403,62,80,0
390.64478,390.85458,70,80,0
390.64478,390.85458,65,80,0
390.64478,390.85458,62,80,0
390.85904,391.06888,70,80,0
390.85904,391.06888,65,80,0
390.85904,391.06888,62,80,0
391.07333,391.28317,70,80,0
391.07333,391.28317,65,80,0
391.07333,391.28317,62,80,0
391.28763,391.49744,70,80,0
391.28763,391.49744,65,80,0
391.28763,391.49744,62,80,0
391.7162,391.92603,67,82,0
391.7162,391.92603,63,82,0
392.14478,392.35458,67,84,0
392.14478,392.35458,62,84,0
392.14478,392.35458,59,84,0
392.57333,392.78317,67,86,0
392.57333,392.78317,63,86,0
392.57333,392.78317,60,86,0
393.00192,393.21173,63,88,0
393.00192,393.21173,58,88,0
393.00192,393.21173,55,88,0
393.43048,393.6403,63,90,0
393.43048,393.6403,60,90,0
393.43048,393.6403,56,90,0
393.85904,394.06888,60,92,0
393.85904,394.06888,55,92,0
393.85904,394.06888,52,92,0
394.28763,394.49744,60,94,0
394.28763,394.49744,57,94,0
394.28763,394.49744,53,94,0
394.7162,394.92603,58,96,0
394.7162,394.92603,53,96,0
394.7162,394.92603,50,96,0
395.14478,395.35458,55,98,0
395.14478,395.35458,51,98,0
395.14478,395.35458,58,98,0
395.57333,395.78314,55,100,0
395.57333,395.78314,50,100,0
395.57333,395.78314,47,100,0
396.0019,396.21173,55,102,0
396.0019,396.21173,51,102,0
396.0019,396.21173,48,102,0
396.43048,396.6403,51,104,0
396.43048,396.6403,46,104,0
396.43048,396.6403,43,104,0
396.85904,397.06888,51,106,0
396.85904,397.06888,48,106,0
396.85904,397.06888,44,106,0
397.28763,397.49744,48,108,0
397.28763,397.49744,43,108,0
397.28763,397.49744,40,108,0
397.7162,397.92603,48,110,0
397.7162,397.92603,45,110,0
397.7162,397.92603,41,110,0
398.14478,398.35458,46,110,0
398.14478,398.35458,41,110,0
398.14478,398.35458,38,110,0
398.57333,398.78314,46,110,0
398.57333,398.78314,43,110,0
398.57333,398.78314,39,110,0
399.0019,399.21173,46,85,0
399.0019,399.21173,41,85,0
399.0019,399.21173,38,85,0
399.43048,399.6403,46,110,0
399.43048,399.6403,43,110,0
399.43048,399.6403,39,110,0
399.85904,400.06888,46,110,0
399.85904,400.06888,41,110,0
399.85904,400.06888,38,110,0
400.28763,400.49744,46,110,0
400.28763,400.49744,43,110,0
400.28763,400.49744,39,110,0
400.7162,400.926,46,85,0
400.7162,400.926,41,85,0
400.7162,400.926,38,85,0
401.14474,401.35458,46,110,0
401.14474,401.35458,43,110,0
401.14474,401.35458,39,110,0
401.57333,401.78314,46,110,0
401.57333,401.78314,41,110,0
401.57333,401.78314,38,110,0
401.78763,401.99744,46,80,0
401.78763,401.99744,43,80,0
401.78763,401.99744,39,80,0
405.85904,406.06885,58,80,0
406.07333,406.28314,63,80,0
406.2876,406.49744,67,80,0
406.5019,406.71173,70,80,0
407.57333,407.78314,34,80,0
407.7876,407.99744,39,90,0
408.0019,408.2117,43,100,0
408.2162,408.426,46,110,0
408.43045,408.6403,51,110,0
408.64474,408.85458,55,110,0
408.85904,409.06885,58,110,0
409.07333,409.28314,63,110,0
409.2876,409.49744,67,110,0
409.5019,409.926,70,110,0
411.0019,411.2117,58,81,0
411.2162,411.426,62,83,0
411.43045,411.6403,65,85,0
411.64474,411.85455,68,87,0
411.85904,412.06885,46,88,0
412.0733,412.28314,50,90,0
412.2876,412.49744,53,92,0
412.5019,412.7117,56,94,0
412.7162,412.926,47,95,0
412.93045,413.1403,50,97,0
413.14474,413.35455,53,99,0
413.35904,413.56885,56,101,0
413.5733,413.78314,46,103,0
413.7876,413.99744,50,104,0
414.0019,414.2117,53,106,0
414.2162,414.426,56,108,0
414.43045,414.6403,58,110,0
414.64474,414.85455,62,110,0
414.85904,415.06885,65,110,0
415.0733,415.28314,68,110,0
415.2876,415.49744,58,110,0
415.5019,415.7117,68,110,0
415.7162,415.926,58,110,0
415.93045,416.35455,67,110,0
415.93045,416.35455,63,110,0
417.2876,418.78238,63,80,0
417.2876,418.78238,60,80,0
418.7876,420.28238,65,80,0
418.7876,420.28238,56,80,0
420.2876,420.72742,65,80,0
420.2876,420.72742,58,80,0
420.73206,421.17184,65,80,0
420.73206,421.17184,58,80,0
421.17648,421.39407,65,80,0
421.17648,421.6163,58,80,0
421.3987,421.6163,62,80,0
421.62094,421.83853,63,80,0
421.62094,421.83853,51,80,0
421.84314,422.06076,51,80,0
422.06537,422.28296,52,80,0
422.2876,422.5052,53,80,0
422.50983,422.76526,54,80,0
422.7707,423.02612,55,80,0
423.03156,424.59134,56,80,0
424.59677,425.63483,48,80,0
425.64026,425.8957,49,80,0
424.59677,426.15656,44,80,0
425.90112,426.15656,51,80,0
426.162,427.20004,49,80,0
426.162,427.20004,46,80,0
426.162,427.20004,44,80,0
426.162,427.20004,37,80,0
427.7272,428.76526,49,80,0
427.7272,428.76526,46,80,0
427.7272,428.76526,44,80,0
427.7272,428.76526,37,80,0
429.29242,429.80872,49,80,0
429.29242,429.80872,37,80,0
429.81418,430.33047,49,80,0
429.81418,430.33047,37,80,0
430.3359,430.8522,49,80,0
430.3359,430.8522,37,80,0
430.85764,432.41742,50,80,0
430.85764,432.41742,38,80,0
432.42285,432.93918,62,80,0
432.9446,433.4609,62,80,0
433.46634,433.98264,62,80,0
433.98807,435.02612,63,80,0
435.03156,435.54785,51,80,0
435.03156,435.54785,39,80,0
435.55328,436.0696,52,81,0
435.55328,436.0696,40,81,0
436.59677,437.11307,64,84,0
437.1185,437.63483,65,85,0
438.162,438.65677,53,88,0
438.162,438.65677,41,88,0
438.662,439.15677,54,89,0
438.662,439.15677,42,89,0
439.662,440.15677,66,92,0
440.162,440.65677,67,94,0
441.162,441.65677,55,96,0
441.162,441.65677,43,96,0
441.662,442.15677,56,98,0
441.662,442.15677,44,98,0
442.162,442.65677,56,99,0
442.162,442.65677,44,99,0
442.662,443.25574,56,101,0
442.662,443.25574,44,101,0
443.262,444.89267,45,102,0
443.262,444.89267,57,102,0
444.89835,445.4381,69,106,0
445.44382,446.06882,69,108,0
446.07538,446.77393,69,109,0
446.78125,448.89157,70,110,0
448.89893,449.35565,46,80,0
448.89893,449.35565,34,80,0
449.36044,449.81717,46,80,0
449.36044,449.81717,34,80,0
449.822,450.27872,46,80,0
449.822,450.27872,34,80,0
450.28354,450.74026,51,80,0
450.28354,450.74026,39,80,0
453.05276,454.43256,75,80,0
453.05276,454.43256,72,80,0
453.05276,454.43256,68,80,0
454.43738,455.81717,63,80,0
454.43738,455.81717,60,80,0
454.43738,455.81717,56,80,0
455.822,456.27872,44,80,0
455.822,456.27872,32,80,0
456.2835,456.74023,44,83,0
456.2835,456.74023,32,83,0
456.74506,457.20178,44,86,0
456.74506,457.20178,32,86,0
457.2066,458.5864,45,90,0
457.2066,458.5864,33,90,0
458.59122,459.04794,69,100,0
458.59122,459.04794,72,100,0
459.05273,459.56906,69,104,0
459.05273,459.56906,72,104,0
459.5745,460.16824,69,107,0
459.5745,460.16824,72,107,0
460.1745,460.76825,70,110,0
461.37448,461.96823,72,80,0
461.37448,461.96823,69,80,0
461.9745,462.4312,70,80,0
462.89755,463.35428,72,80,0
462.89755,463.35428,69,80,0
463.3591,463.81583,70,80,0
464.7437,465.20044,68,92,0
464.7437,465.20044,65,92,0
464.7437,465.20044,58,92,0
465.66678,466.12354,56,104,0
465.66678,466.12354,50,104,0
465.66678,466.12354,46,104,0
466.12833,466.2389,51,110,0
466.2437,466.35428,53,80,0
466.3591,466.46967,51,80,0
466.4745,466.58505,50,80,0
466.58987,466.70044,51,80,0
466.70526,466.81583,53,80,0
466.82065,466.9312,55,80,0
466.936,467.0466,56,80,0
467.0514,467.27737,58,80,0
467.28217,467.50815,55,80,0
467.51294,467.7389,53,80,0
467.7437,467.96967,56,80,0
467.9745,468.20044,50,80,0
468.20526,468.4312,53,80,0
468.436,468.662,46,80,0
468.66678,468.89276,50,80,0
468.89755,469.00812,51,80,0
469.01294,469.1235,53,80,0
469.12833,469.2389,51,80,0
469.2437,469.35428,50,80,0
469.3591,469.46967,51,80,0
469.4745,469.58505,53,80,0
469.58987,469.70044,55,80,0
469.70526,469.81583,56,80,0
469.82062,469.9312,60,80,0
469.936,470.0466,58,80,0
470.0514,470.162,56,80,0
470.16678,470.27737,55,80,0
470.28217,470.50812,53,80,0
470.51294,470.7389,56,80,0
470.7437,470.96967,50,80,0
470.9745,471.20044,53,80,0
471.20526,471.4312,46,80,0
471.436,471.662,50,80,0
471.66678,471.89273,51,80,0
471.89755,472.1235,46,80,0
472.12833,472.35428,43,80,0
472.3591,472.58505,51,80,0
472.58987,472.81583,46,80,0
472.82062,473.0466,55,80,0
473.0514,473.27737,51,80,0
473.28217,473.50812,58,80,0
473.51294,473.7389,55,80,0
473.7437,473.96967,63,80,0
473.9745,474.20044,58,80,0
474.20523,474.4312,67,80,0
474.436,474.67102,63,80,0
474.67603,474.911,70,80,0
474.91602,475.20975,67,80,0
475.216,475.50977,75,80,0
475.51602,476.17572,58,110,0
475.51602,476.17572,46,110,0
476.18268,477.17572,51,110,0
476.18268,477.17572,39,110,0
