start_time,end_time,note_value,velocity,instrument_program_number
0.0,0.99305457,60,80,0
0.0,0.99305457,56,80,0
0.0,0.99305457,51,80,0
0.999999,1.3263875,61,103,0
0.999999,1.3263875,55,104,0
0.999999,1.3263875,51,102,0
1.333332,2.3263865,56,80,0
1.333332,2.3263865,51,80,0
1.333332,2.3263865,63,80,0
2.333331,2.6597195,65,100,0
2.333331,2.9930525,53,100,0
2.666664,2.9930525,61,80,0
2.999997,3.3263855,63,80,0
2.999997,3.3263855,58,80,0
3.33333,3.6597185,60,80,0
3.33333,3.6597185,51,80,0
3.666663,3.9930515,56,80,0
3.666663,3.9930515,51,80,0
3.999996,4.826384,58,80,0
3.999996,4.826384,55,80,0
4.8333287,4.9930506,55,80,0
4.8333287,4.9930506,51,80,0
4.999995,5.159717,56,80,0
4.999995,5.159717,53,80,0
5.1666613,5.3263836,58,80,0
5.1666613,5.3263836,55,80,0
5.333328,6.3263826,60,80,0
5.333328,6.3263826,56,80,0
5.333328,6.3263826,51,80,0
6.333327,6.6597157,61,100,0
6.333327,6.6597157,55,100,0
6.333327,6.6597157,51,100,0
6.66666,7.6597147,56,80,0
6.66666,7.6597147,51,80,0
6.66666,7.6597147,63,80,0
7.666659,7.9930477,65,100,0
7.666659,8.326381,53,100,0
7.999992,8.326381,61,80,0
8.333325,8.659714,63,80,0
8.333325,8.659714,58,80,0
8.666658,8.993047,60,80,0
8.666658,8.993047,51,80,0
8.999991,9.32638,56,80,0
8.999991,9.32638,51,80,0
9.333324,9.993046,58,80,0
9.333324,9.993046,49,80,0
9.333324,10.326379,51,80,0
9.99999,10.326379,56,80,0
9.99999,10.326379,48,80,0
10.333323,10.659712,80,80,0
10.333323,10.659712,72,80,0
10.666656,11.326378,82,80,0
10.666656,11.326378,73,80,0
11.333322,11.659711,80,80,0
11.333322,11.659711,72,80,0
11.666655,11.993044,72,70,0
11.999988,12.576376,70,70,0
12.583321,12.65971,68,70,0
12.666654,12.909709,67,70,0
12.999987,13.243042,65,70,0
13.33332,13.993042,64,70,0
14.333319,14.493041,65,70,0
14.416653,14.576374,67,70,0
14.499986,14.659708,64,70,0
14.583319,14.659708,65,70,0
14.666652,15.24304,67,70,0
15.249985,15.326373,65,70,0
15.333318,15.659706,64,70,0
15.666651,15.909706,62,70,0
15.999984,16.659706,60,70,0
17.249983,17.326372,60,70,0
17.333317,17.659704,60,70,0
17.916649,17.993038,60,70,0
17.999983,18.32637,60,70,0
18.583315,18.659704,60,70,0
18.666649,19.32637,60,70,0
19.916647,19.993036,61,70,0
19.99998,20.326368,61,71,0
20.583313,20.659702,61,79,0
20.666645,20.993034,61,81,0
21.249979,21.326368,61,89,0
21.333311,21.993034,61,91,0
22.583311,22.6597,61,109,0
22.666643,23.40883,61,110,0
23.416643,23.836287,58,110,0
23.845215,24.264858,55,110,0
24.273787,27.1716,51,110,0
27.178545,27.2341,51,80,0
27.241045,27.2966,53,80,0
27.303545,27.3591,55,80,0
27.3591,27.414656,56,80,0
27.428545,27.4841,58,80,0
27.511877,28.504932,60,80,0
28.511877,28.838266,61,100,0
28.511877,28.838266,55,100,0
28.511877,28.838266,51,100,0
28.84521,29.838264,56,80,0
28.84521,29.838264,51,80,0
28.84521,29.838264,63,80,0
29.84521,30.171598,65,90,0
29.84521,30.50493,53,90,0
30.178541,30.50493,61,80,0
30.511875,30.838264,63,80,0
30.511875,30.838264,58,80,0
30.845207,31.171597,60,80,0
30.845207,31.171597,51,80,0
31.178541,31.50493,56,80,0
31.178541,31.50493,51,80,0
31.511873,32.33826,58,80,0
31.511873,32.33826,55,80,0
32.345207,32.50493,55,80,0
32.345207,32.50493,51,80,0
32.51187,32.671597,56,80,0
32.51187,32.671597,53,80,0
32.67854,32.83826,58,80,0
32.67854,32.83826,55,80,0
32.845207,33.83826,60,80,0
32.845207,33.83826,56,80,0
32.845207,33.83826,51,80,0
33.845203,34.171593,61,95,0
33.845203,34.171593,55,95,0
33.845203,34.171593,51,95,0
34.17854,35.171593,56,80,0
34.17854,35.171593,51,80,0
34.17854,35.171593,63,80,0
35.178535,35.504925,65,95,0
35.178535,35.838257,53,95,0
35.51187,35.838257,61,80,0
35.845203,36.171593,63,80,0
35.845203,36.171593,58,80,0
36.178535,36.504925,60,80,0
36.178535,36.504925,51,80,0
36.511868,36.838257,56,80,0
36.511868,36.838257,51,80,0
36.845203,37.504925,58,80,0
36.845203,37.504925,49,80,0
36.845203,37.838257,51,80,0
37.511868,37.838257,56,80,0
37.511868,37.838257,48,80,0
37.8452,38.17159,80,80,0
37.8452,38.17159,72,80,0
38.178535,38.8701,82,80,0
38.178535,38.8701,73,80,0
38.87772,39.23595,80,80,0
38.87772,39.23595,72,80,0
39.243572,39.601807,84,70,0
39.60943,40.24205,82,70,0
40.249672,40.33351,80,70,0
40.341133,40.607903,79,70,0
40.70699,40.973755,77,70,0
41.07284,41.79693,76,70,0
42.170403,42.345707,77,70,0
42.261864,42.437172,79,70,0
42.35333,42.528633,76,70,0
42.444794,42.528633,77,70,0
42.536255,43.168877,79,70,0
43.1765,43.26034,77,70,0
43.267963,43.626194,76,70,0
43.633816,43.900585,74,70,0
43.99967,44.723755,72,70,0
45.37162,45.455463,72,70,0
45.463085,45.821316,72,70,0
46.10333,46.18717,72,70,0
46.19479,46.55302,72,70,0
46.835033,46.918877,72,70,0
46.9265,47.65058,72,70,0
48.298447,48.38229,89,120,0
48.298447,48.38229,84,120,0
48.298447,48.38229,81,120,0
48.298447,48.38229,77,120,0
48.38991,48.7163,89,120,0
48.38991,48.7163,84,120,0
48.38991,48.7163,81,120,0
48.38991,48.7163,77,120,0
48.723244,48.882965,65,80,0
48.88991,49.049633,69,80,0
49.056576,49.2163,67,80,0
49.223244,49.382965,70,80,0
49.38991,49.549633,64,80,0
49.556576,49.7163,67,80,0
49.723244,49.882965,65,80,0
49.88991,50.049633,69,80,0
50.056576,50.216297,65,80,0
50.223244,50.382965,69,80,0
50.389908,50.549633,67,80,0
50.556576,50.716297,70,80,0
50.723244,50.882965,64,80,0
50.889908,51.04963,67,80,0
51.056576,51.216297,65,80,0
51.223244,51.382965,69,80,0
51.389908,51.54963,72,80,0
51.556576,51.716297,69,80,0
51.72324,51.882965,69,80,0
51.889908,52.04963,72,80,0
52.056576,52.216297,75,80,0
52.22324,52.38296,72,80,0
52.389908,52.54963,72,80,0
52.556576,52.716297,75,80,0
52.72324,52.88296,78,80,0
52.889908,53.04963,75,80,0
53.056572,53.216297,73,80,0
53.22324,53.38296,77,80,0
53.389908,53.54963,72,80,0
53.556572,53.716293,77,80,0
53.72324,54.04963,82,120,0
53.72324,54.04963,77,120,0
53.72324,54.04963,74,120,0
53.72324,54.04963,70,120,0
54.056572,54.216293,70,80,0
54.22324,54.38296,74,80,0
54.389904,54.54963,72,80,0
54.556572,54.716293,75,80,0
54.72324,54.88296,69,80,0
54.889904,55.049625,72,80,0
55.056572,55.216293,70,80,0
55.22324,55.38296,74,80,0
55.389904,55.549625,70,80,0
55.556572,55.716293,74,80,0
55.723236,55.88296,72,80,0
55.889904,56.049625,75,80,0
56.056572,56.216293,69,80,0
56.223236,56.382957,72,80,0
56.389904,56.549625,70,80,0
56.55657,56.716293,74,80,0
56.723236,56.882957,77,80,0
56.889904,57.049625,74,80,0
57.05657,57.216293,74,80,0
57.223236,57.382957,77,80,0
57.389904,57.549625,80,80,0
57.55657,57.71629,77,80,0
57.723236,57.882957,77,80,0
57.8899,58.049625,80,80,0
58.05657,58.21629,83,80,0
58.223236,58.382957,80,80,0
58.3899,58.549625,83,80,0
58.55657,58.71629,86,80,0
58.723236,58.882957,89,80,0
58.8899,59.04962,86,80,0
59.05657,59.21629,89,80,0
59.223232,59.382957,86,81,0
59.3899,59.54962,89,83,0
59.55657,59.71629,86,85,0
59.723232,59.882957,89,87,0
59.8899,60.04962,86,89,0
60.05657,60.21629,89,90,0
60.223232,60.382954,86,92,0
60.3899,60.54962,89,94,0
60.556564,60.71629,86,96,0
60.723232,60.882954,89,98,0
60.8899,61.04962,86,99,0
61.056564,61.216286,87,95,0
61.223232,61.382954,82,91,0
61.3899,61.54962,79,86,0
61.556564,61.716286,75,81,0
61.723232,61.882954,74,80,0
61.889896,62.04962,86,81,0
62.056564,62.216286,89,83,0
62.223232,62.382954,86,85,0
62.389896,62.549618,89,87,0
62.556564,62.716286,86,89,0
62.723232,62.882954,89,90,0
62.889896,63.049618,86,92,0
63.056564,63.216286,89,94,0
63.22323,63.382954,86,96,0
63.389896,63.549618,89,98,0
63.556564,63.716286,86,99,0
63.72323,63.88295,87,95,0
63.889896,64.04962,82,91,0
64.056564,64.216286,79,86,0
64.22323,64.38295,75,81,0
64.38989,64.549614,74,80,0
64.556564,64.716286,86,80,0
64.72323,64.88295,89,80,0
64.88989,65.049614,86,80,0
65.056564,65.216286,87,80,0
65.22323,65.38295,82,80,0
65.38989,65.549614,79,80,0
65.556564,65.716286,75,80,0
65.72323,65.88295,74,80,0
65.88989,66.049614,86,80,0
66.05656,66.216286,89,80,0
66.22323,66.38295,86,80,0
66.38989,66.549614,87,80,0
66.55656,66.716286,82,80,0
66.72323,66.88295,79,80,0
66.88989,67.049614,75,80,0
67.05656,67.21628,72,80,0
67.22323,67.38295,68,80,0
67.38989,67.549614,63,80,0
67.55656,67.71628,60,80,0
67.72323,67.88295,58,80,0
67.88989,68.049614,53,80,0
68.05656,68.21628,50,80,0
68.22323,68.38295,46,80,0
68.38989,68.71628,51,80,0
68.88989,69.049614,70,80,0
69.05656,69.38295,67,80,0
69.55656,69.71628,75,80,0
69.72322,70.049614,70,80,0
70.22322,70.38294,79,80,0
70.38989,70.549614,74,80,0
70.55656,70.71628,80,80,0
70.72322,70.88294,77,80,0
70.88989,71.049614,74,80,0
71.05656,71.38294,75,80,0
71.55656,71.71628,70,80,0
71.72322,72.04961,67,80,0
72.22322,72.38294,75,80,0
72.389885,72.71628,70,80,0
72.889885,73.04961,79,80,0
73.05656,73.21628,74,80,0
73.22322,73.38294,80,80,0
73.389885,73.54961,77,80,0
73.55656,73.71628,74,80,0
73.72322,74.04961,75,80,0
74.22322,74.38294,91,80,0
74.389885,74.54961,86,80,0
74.55655,74.71627,92,80,0
74.72322,74.88294,89,80,0
74.889885,75.04961,86,80,0
75.05655,75.38294,87,80,0
75.55655,75.71627,79,80,0
75.72322,75.88294,74,80,0
75.889885,76.04961,80,80,0
76.05655,76.21627,77,80,0
76.22321,76.38294,74,80,0
76.389885,76.54961,75,80,0
76.55655,76.71627,79,80,0
76.72321,76.88294,70,80,0
76.889885,77.04961,75,80,0
77.05655,77.21627,67,80,0
77.22321,77.382935,70,80,0
77.389885,77.54961,68,80,0
77.55655,77.71627,65,80,0
77.72321,77.882935,63,80,0
77.889885,78.04961,67,80,0
78.05655,78.21627,58,80,0
78.22321,78.382935,63,80,0
78.389885,78.54961,55,80,0
78.55655,78.71627,58,80,0
78.72321,78.882935,56,80,0
78.88988,79.04961,53,80,0
79.05655,79.21627,51,80,0
79.22321,79.382935,55,80,0
79.38988,79.54961,46,80,0
79.55655,79.71627,51,80,0
79.88988,80.0496,46,80,0
80.05655,80.21627,43,80,0
80.22321,80.382935,46,80,0
80.55655,80.71627,46,80,0
80.72321,80.882935,43,80,0
80.88988,81.0496,46,80,0
81.22321,81.382935,46,80,0
81.38988,81.5496,43,80,0
81.55654,81.71627,46,80,0
81.88988,82.0496,47,81,0
82.05654,82.21626,43,82,0
82.22321,82.382935,47,83,0
82.55654,82.71626,47,86,0
82.72321,82.882935,43,87,0
82.88988,83.0496,47,89,0
83.22321,83.382935,47,91,0
83.38988,83.5496,43,93,0
83.55654,83.71626,47,94,0
83.88988,84.0496,47,97,0
84.05654,84.21626,43,98,0
84.223206,84.382935,47,99,0
84.38988,85.38293,60,80,0
84.38988,85.38293,48,80,0
85.38988,85.71626,61,95,0
85.38988,85.71626,49,95,0
85.723206,86.71626,51,80,0
85.723206,86.71626,63,80,0
86.723206,87.0496,65,95,0
86.723206,87.38293,53,95,0
87.05654,87.38293,61,80,0
87.38987,87.71626,63,80,0
87.38987,87.71626,58,80,0
87.723206,88.04959,60,80,0
87.723206,88.04959,51,80,0
88.05654,88.38293,56,80,0
88.05654,88.38293,51,80,0
88.38987,89.21626,58,80,0
88.38987,89.21626,55,80,0
89.223206,89.38293,55,80,0
89.223206,89.38293,51,80,0
89.38987,89.54959,56,80,0
89.38987,89.54959,53,80,0
89.55653,89.71626,58,80,0
89.55653,89.71626,55,80,0
89.723206,90.716255,60,80,0
89.723206,90.716255,56,80,0
89.723206,90.716255,51,80,0
90.723206,91.04959,61,80,0
90.723206,91.04959,55,80,0
90.723206,91.04959,51,80,0
91.05653,92.04959,56,80,0
91.05653,92.04959,51,80,0
91.05653,92.04959,63,80,0
92.05653,92.38292,65,80,0
92.05653,92.716255,53,80,0
92.38987,92.716255,61,80,0
92.7232,93.04959,63,80,0
92.7232,93.04959,58,80,0
93.05653,93.38292,60,80,0
93.05653,93.38292,51,80,0
93.38987,93.716255,56,80,0
93.38987,93.716255,51,80,0
93.7232,94.38292,58,80,0
93.7232,94.38292,49,80,0
93.7232,94.716255,51,80,0
94.38986,94.716255,56,80,0
94.38986,94.716255,48,80,0
94.7232,95.04958,80,80,0
94.7232,95.04958,72,80,0
95.05653,95.716255,82,80,0
95.05653,95.716255,73,80,0
95.7232,96.04958,80,80,0
95.7232,96.04958,72,80,0
96.05653,96.38292,72,70,0
96.38986,96.966255,70,70,0
96.9732,97.04958,68,70,0
97.056526,97.29958,67,70,0
97.38986,97.63292,65,70,0
97.7232,98.38292,64,70,0
98.7232,98.88292,65,70,0
98.806526,98.96625,67,70,0
98.88986,99.04958,64,70,0
98.9732,99.04958,65,70,0
99.056526,99.63292,67,70,0
99.63986,99.71625,65,70,0
99.72319,100.04958,64,70,0
100.056526,100.29958,62,70,0
100.38986,101.04958,60,70,0
101.63986,101.71625,60,70,0
101.72319,102.04958,60,70,0
102.306526,102.38291,60,70,0
102.389854,102.71625,60,70,0
102.97319,103.049576,60,70,0
103.056526,103.71625,60,70,0
104.30652,104.38291,61,80,0
104.389854,104.71625,61,81,0
104.97319,105.049576,61,89,0
105.05652,105.38291,61,90,0
105.639854,105.71624,61,98,0
105.72319,106.38291,61,99,0
106.97318,107.049576,61,110,0
107.05652,107.798706,61,110,0
107.80652,108.22616,58,110,0
108.23509,108.65473,55,110,0
108.66366,111.56148,51,110,0
111.56842,111.62398,51,80,0
111.63092,111.68648,53,80,0
111.69342,111.74898,55,80,0
111.74898,111.804535,56,80,0
111.81842,111.87398,58,80,0
111.90176,112.894806,60,80,0
112.90176,113.22814,61,95,0
112.90176,113.22814,55,95,0
112.90176,113.22814,51,95,0
113.235085,114.22814,56,80,0
113.235085,114.22814,51,80,0
113.235085,114.22814,63,80,0
114.235085,114.56147,65,95,0
114.235085,114.894806,53,95,0
114.56842,114.894806,61,80,0
114.90175,115.22814,63,80,0
114.90175,115.22814,58,80,0
115.235085,115.56147,60,80,0
115.235085,115.56147,51,80,0
115.56841,115.894806,56,80,0
115.56841,115.894806,51,80,0
115.90175,116.728134,58,80,0
115.90175,116.728134,55,80,0
116.735085,116.894806,55,80,0
116.735085,116.894806,51,80,0
116.90175,117.06147,56,80,0
116.90175,117.06147,53,80,0
117.06841,117.228134,58,80,0
117.06841,117.228134,55,80,0
117.235085,118.228134,60,80,0
117.235085,118.228134,56,80,0
117.235085,118.228134,51,80,0
118.23508,118.56147,61,95,0
118.23508,118.56147,55,95,0
118.23508,118.56147,51,95,0
118.56841,119.56147,56,80,0
118.56841,119.56147,51,80,0
118.56841,119.56147,63,80,0
119.56841,119.8948,65,95,0
119.56841,120.228134,53,95,0
119.90175,120.228134,61,80,0
120.23508,120.56147,63,80,0
120.23508,120.56147,58,80,0
120.56841,120.8948,60,80,0
120.56841,120.8948,51,80,0
120.90174,121.228134,56,80,0
120.90174,121.228134,51,80,0
121.23508,121.8948,58,80,0
121.23508,121.8948,49,80,0
121.23508,122.228134,51,80,0
121.90174,122.228134,56,80,0
121.90174,122.228134,48,80,0
122.23508,122.56146,80,80,0
122.23508,122.56146,72,80,0
122.56841,123.228134,82,80,0
122.56841,123.228134,73,80,0
123.23508,123.56146,80,80,0
123.23508,123.56146,72,80,0
123.568405,123.8948,84,70,0
123.90174,124.51203,82,70,0
124.51939,124.60027,80,70,0
124.60762,124.864975,79,70,0
124.96056,125.21792,77,70,0
125.31351,126.01203,76,70,0
126.37233,126.54144,77,70,0
126.46056,126.629684,79,70,0
126.5488,126.71792,76,70,0
126.63703,126.71792,77,70,0
126.72527,127.37371,79,70,0
127.38152,127.46746,77,70,0
127.47527,127.84246,76,70,0
127.85027,128.1237,74,70,0
128.22527,128.96745,72,70,0
129.63152,129.71745,72,70,0
129.72527,130.09245,72,70,0
130.38152,130.46745,72,70,0
130.47527,130.84245,72,70,0
131.13152,131.21745,72,70,0
131.22527,131.885,72,70,0
132.47527,132.55165,89,120,0
132.47527,132.55165,84,120,0
132.47527,132.55165,81,120,0
132.47527,132.55165,77,120,0
132.55861,132.885,89,120,0
132.55861,132.885,84,120,0
132.55861,132.885,81,120,0
132.55861,132.885,77,120,0
132.89194,133.05165,65,80,0
133.0586,133.21832,69,80,0
133.22527,133.385,67,80,0
133.39194,133.55165,70,80,0
133.5586,133.71832,64,80,0
133.72527,133.885,67,80,0
133.89194,134.05165,65,80,0
134.0586,134.21832,69,80,0
134.22527,134.385,65,80,0
134.39194,134.55165,69,80,0
134.5586,134.71832,67,80,0
134.72527,134.885,70,80,0
134.89194,135.05165,64,80,0
135.0586,135.21832,67,80,0
135.22527,135.385,65,80,0
135.39194,135.55165,69,80,0
135.5586,135.71832,72,80,0
135.72527,135.885,69,80,0
135.89194,136.05165,69,80,0
136.0586,136.21832,72,80,0
136.22527,136.38498,75,80,0
136.39194,136.55165,72,80,0
136.5586,136.71832,72,80,0
136.72527,136.88498,75,80,0
136.89194,137.05165,78,80,0
137.0586,137.21832,75,80,0
137.22527,137.38498,73,80,0
137.39194,137.55165,77,80,0
137.5586,137.71832,72,80,0
137.72527,137.88498,77,80,0
137.89192,138.21832,82,120,0
137.89192,138.21832,77,120,0
137.89192,138.21832,74,120,0
137.89192,138.21832,70,120,0
138.22527,138.38498,70,80,0
138.39192,138.55165,74,80,0
138.5586,138.71832,72,80,0
138.72527,138.88498,75,80,0
138.89192,139.05165,69,80,0
139.0586,139.21832,72,80,0
139.22527,139.38498,70,80,0
139.39192,139.55165,74,80,0
139.5586,139.71832,70,80,0
139.72527,139.88498,74,80,0
139.89192,140.05165,72,80,0
140.0586,140.21832,75,80,0
140.22527,140.38498,69,80,0
140.39192,140.55165,72,80,0
140.5586,140.71832,70,80,0
140.72527,140.88498,74,80,0
140.89192,141.05165,77,80,0
141.0586,141.2183,74,80,0
141.22527,141.38498,74,80,0
141.39192,141.55165,77,80,0
141.5586,141.7183,80,80,0
141.72527,141.88498,77,80,0
141.89192,142.05165,77,80,0
142.0586,142.2183,80,80,0
142.22527,142.38498,83,80,0
142.39192,142.55165,80,80,0
142.5586,142.7183,83,80,0
142.72527,142.88498,86,81,0
142.89192,143.05165,89,82,0
143.0586,143.2183,86,83,0
143.22525,143.38498,89,85,0
143.39192,143.55165,86,86,0
143.5586,143.7183,89,87,0
143.72525,143.88498,86,89,0
143.89192,144.05165,89,90,0
144.0586,144.2183,86,91,0
144.22525,144.38498,89,93,0
144.39192,144.55165,86,94,0
144.5586,144.7183,89,95,0
144.72525,144.88498,86,97,0
144.89192,145.05165,89,98,0
145.0586,145.2183,86,99,0
145.22525,145.38498,87,95,0
145.39192,145.55165,82,91,0
145.5586,145.7183,79,86,0
145.72525,145.88498,75,81,0
145.89192,146.05165,74,80,0
146.0586,146.2183,86,81,0
146.22525,146.38498,89,83,0
146.39192,146.55164,86,85,0
146.5586,146.7183,89,87,0
146.72525,146.88498,86,89,0
146.89192,147.05164,89,90,0
147.0586,147.2183,86,92,0
147.22525,147.38498,89,94,0
147.39192,147.55164,86,96,0
147.5586,147.7183,89,98,0
147.72525,147.88498,86,99,0
147.89192,148.05164,87,95,0
148.05858,148.2183,82,91,0
148.22525,148.38498,79,86,0
148.39192,148.55164,75,81,0
148.55858,148.7183,74,80,0
148.72525,148.88498,86,80,0
148.89192,149.05164,89,80,0
149.05858,149.2183,86,80,0
149.22525,149.38498,87,80,0
149.39192,149.55164,82,80,0
149.55858,149.7183,79,80,0
149.72525,149.88498,75,80,0
149.89192,150.05164,74,80,0
150.05858,150.2183,86,80,0
150.22525,150.38498,89,80,0
150.39192,150.55164,86,80,0
150.55858,150.7183,87,80,0
150.72525,150.88498,82,80,0
150.89192,151.05164,79,80,0
151.05858,151.2183,75,80,0
151.22525,151.38496,72,80,0
151.39192,151.55164,68,80,0
151.55858,151.7183,63,80,0
151.72525,151.88496,60,80,0
151.89192,152.05164,58,80,0
152.05858,152.2183,53,80,0
152.22525,152.38496,50,80,0
152.39192,152.55164,46,80,0
152.55858,152.88496,51,70,0
153.05858,153.2183,70,70,0
153.22525,153.55164,67,70,0
153.72525,153.88496,75,70,0
153.8919,154.2183,70,70,0
154.3919,154.55164,79,70,0
154.55858,154.7183,74,70,0
154.72525,154.88496,80,70,0
154.8919,155.05164,77,70,0
155.05858,155.2183,74,70,0
155.22525,155.55164,75,70,0
155.72525,155.88496,70,70,0
155.8919,156.2183,67,70,0
156.3919,156.55164,75,70,0
156.55858,156.88496,70,70,0
157.05858,157.21829,79,70,0
157.22525,157.38496,74,70,0
157.3919,157.55164,80,70,0
157.55858,157.71829,77,70,0
157.72525,157.88496,74,70,0
157.8919,158.21829,75,70,0
158.3919,158.55164,91,70,0
158.55858,158.71829,86,70,0
158.72523,158.88496,92,70,0
158.8919,159.05164,89,70,0
159.05858,159.21829,86,70,0
159.22523,159.55164,87,70,0
159.72523,159.88496,79,70,0
159.8919,160.05164,74,70,0
160.05858,160.21829,80,70,0
160.22523,160.38496,77,70,0
160.3919,160.55164,74,70,0
160.55858,160.71829,75,80,0
160.72523,160.88496,79,80,0
160.8919,161.05164,70,80,0
161.05858,161.21829,75,80,0
161.22523,161.38496,67,80,0
161.3919,161.55162,70,80,0
161.55858,161.71829,68,80,0
161.72523,161.88496,65,80,0
161.8919,162.05162,63,80,0
162.05858,162.21829,67,80,0
162.22523,162.38496,58,80,0
162.3919,162.55162,63,80,0
162.55858,162.71829,55,80,0
162.72523,162.88496,58,80,0
162.8919,163.05162,56,80,0
163.05858,163.21829,53,80,0
163.22523,163.38496,51,80,0
163.3919,163.55162,55,80,0
163.55856,163.71829,46,80,0
163.72523,163.88496,51,80,0
164.05856,164.21829,46,80,0
164.22523,164.38496,43,80,0
164.3919,164.55162,46,80,0
164.72523,164.88496,46,80,0
164.8919,165.05162,43,80,0
165.05856,165.21829,46,80,0
165.3919,165.55162,46,80,0
165.55856,165.71829,43,80,0
165.72523,165.88496,46,80,0
166.05856,166.21829,47,81,0
166.22523,166.38496,43,82,0
166.3919,166.55162,47,83,0
166.72523,166.88495,47,86,0
166.8919,167.05162,43,87,0
167.05856,167.21829,47,89,0
167.3919,167.55162,47,91,0
167.55856,167.71829,43,93,0
167.72523,167.88495,47,94,0
168.05856,168.21829,47,97,0
168.22523,168.38495,43,98,0
168.39189,168.55162,47,99,0
168.72523,168.88495,48,99,0
168.89189,169.05162,43,98,0
169.05856,169.21829,48,97,0
169.39189,169.55162,48,94,0
169.55856,169.71829,43,93,0
169.72523,169.88495,48,91,0
170.05856,170.21829,48,89,0
170.22523,170.38495,43,87,0
170.39189,170.55162,48,86,0
170.72523,170.88495,48,83,0
170.89189,171.05162,43,82,0
171.05856,171.21829,48,81,0
171.22523,172.21828,69,80,0
171.22523,172.21828,65,80,0
171.22523,172.21828,60,80,0
172.22523,172.55162,70,80,0
172.22523,172.55162,64,80,0
172.22523,172.55162,60,80,0
172.55856,173.55162,72,80,0
172.55856,173.55162,65,80,0
172.55856,173.55162,60,80,0
173.55856,173.88495,74,80,0
173.55856,174.21828,62,80,0
173.89189,174.21828,70,80,0
174.22522,174.55162,72,80,0
174.22522,174.55162,67,80,0
174.55856,174.88495,69,80,0
174.55856,174.88495,60,80,0
174.89189,175.21828,65,80,0
174.89189,175.21828,60,80,0
175.22522,176.05162,67,80,0
175.22522,176.05162,64,80,0
176.05856,176.21828,64,80,0
176.05856,176.21828,60,80,0
176.22522,176.38495,62,80,0
176.22522,176.38495,65,80,0
176.39189,176.55162,67,80,0
176.39189,176.55162,64,80,0
176.55856,177.5516,69,80,0
176.55856,177.5516,65,80,0
176.55856,177.5516,60,80,0
177.55856,177.88495,70,80,0
177.55856,177.88495,64,80,0
177.55856,177.88495,60,80,0
177.89189,178.88495,72,80,0
177.89189,178.88495,65,80,0
177.89189,178.88495,60,80,0
178.89189,179.21828,73,80,0
178.89189,179.21828,61,80,0
178.89189,179.21828,65,80,0
179.22522,179.38495,75,80,0
179.22522,179.38495,63,80,0
179.39189,179.5516,81,82,0
179.55855,179.71828,84,85,0
179.72522,179.88495,81,88,0
179.89189,180.0516,84,91,0
180.05855,180.21828,81,94,0
180.22522,180.38495,84,97,0
180.39189,180.5516,81,99,0
180.55855,180.71828,84,95,0
180.72522,180.88495,81,93,0
180.89189,181.0516,84,91,0
181.05855,181.21828,81,89,0
181.22522,181.38495,82,87,0
181.39189,181.5516,77,85,0
181.55855,181.71828,73,83,0
181.72522,181.88493,70,81,0
181.89189,182.0516,69,80,0
182.05855,182.21828,81,82,0
182.22522,182.38493,84,85,0
182.39189,182.5516,81,88,0
182.55855,182.71828,84,91,0
182.72522,182.88493,81,94,0
182.89189,183.0516,84,97,0
183.05855,183.21828,81,99,0
183.22522,183.38493,84,95,0
183.39189,183.5516,81,93,0
183.55855,183.71828,84,91,0
183.72522,183.88493,81,89,0
183.89188,184.0516,82,87,0
184.05855,184.21828,77,85,0
184.22522,184.38493,73,83,0
184.39188,184.5516,70,81,0
184.55855,184.71828,71,80,0
184.72522,184.88493,83,80,0
184.89188,185.0516,86,80,0
185.05855,185.21828,83,80,0
185.22522,185.38493,84,80,0
185.39188,185.5516,79,80,0
185.55855,185.71828,75,80,0
185.72522,185.88493,72,80,0
185.89188,186.0516,71,80,0
186.05855,186.21828,83,80,0
186.22522,186.38493,86,80,0
186.39188,186.5516,83,80,0
186.55855,186.71828,84,80,0
186.72522,186.88493,79,80,0
186.89188,187.0516,75,80,0
187.05855,187.21826,72,80,0
187.22522,187.38493,79,80,0
187.39188,187.5516,75,80,0
187.55855,187.71826,72,80,0
187.72522,187.88493,67,80,0
187.89188,188.0516,75,80,0
188.05855,188.21826,72,80,0
188.22522,188.38493,67,80,0
188.39188,188.5516,63,80,0
188.55855,188.71826,72,80,0
188.7252,188.88493,67,80,0
188.89188,189.0516,63,80,0
189.05855,189.21826,60,80,0
189.2252,189.38493,67,80,0
189.39188,189.5516,63,80,0
189.55855,189.71826,60,80,0
189.7252,189.88493,55,80,0
189.89188,190.0516,63,80,0
190.05855,190.21826,60,80,0
190.2252,190.38493,55,80,0
190.39188,190.5516,51,80,0
190.55855,190.71826,60,80,0
190.7252,190.88493,55,80,0
190.89188,191.0516,51,80,0
191.05855,191.21826,48,80,0
191.2252,191.38493,43,80,0
191.39188,191.5516,55,80,0
191.55855,191.71826,59,80,0
191.7252,191.88493,55,80,0
191.89188,192.05159,60,90,0
192.05855,192.21826,55,80,0
192.2252,192.38493,51,80,0
192.39188,192.55159,48,80,0
192.55855,192.71826,43,80,0
192.7252,192.88493,55,80,0
192.89188,193.05159,59,80,0
193.05855,193.21826,55,80,0
193.2252,193.38493,60,90,0
193.39188,193.55159,55,80,0
193.55855,193.71826,51,80,0
193.7252,193.88493,48,80,0
193.89188,194.05159,43,80,0
194.05853,194.21826,45,81,0
194.2252,194.38493,47,82,0
194.39188,194.55159,48,83,0
194.55853,194.71826,50,85,0
194.7252,194.88493,52,86,0
194.89188,195.05159,53,87,0
195.05853,195.21826,54,89,0
195.2252,195.38493,55,90,0
195.39188,195.55159,57,91,0
195.55853,195.71826,58,93,0
195.7252,195.88493,59,94,0
195.89188,196.05159,60,95,0
196.05853,196.21826,61,97,0
196.2252,196.38493,62,98,0
196.39188,196.55159,63,99,0
196.55853,197.55159,64,80,0
196.55853,197.55159,60,80,0
196.55853,197.55159,55,80,0
197.55853,197.88492,65,80,0
197.55853,197.88492,59,80,0
197.55853,197.88492,55,80,0
197.89188,198.88492,67,80,0
197.89188,198.88492,60,80,0
197.89188,198.88492,55,80,0
198.89186,199.21826,69,80,0
198.89186,199.55159,57,80,0
199.2252,199.55159,65,80,0
199.55853,199.88492,67,80,0
199.55853,199.88492,62,80,0
199.89186,200.21826,64,80,0
199.89186,200.21826,55,80,0
200.2252,200.55159,60,80,0
200.2252,200.55159,55,80,0
200.55853,201.55159,62,80,0
200.55853,201.55159,59,80,0
201.55853,201.65576,67,80,0
201.62103,201.71826,69,80,0
201.68353,201.78076,71,80,0
201.74603,201.8363,72,80,0
201.80853,201.8988,74,80,0
201.89186,202.88492,76,80,0
202.89186,203.21825,77,88,0
203.2252,204.21825,79,90,0
204.22519,204.2738,72,97,0
204.28075,204.32936,74,98,0
204.3363,204.38492,76,98,0
204.39186,204.44048,77,99,0
204.44742,204.49603,79,99,0
204.50298,204.55159,80,99,0
204.55853,205.55159,82,102,0
205.55853,205.88492,84,80,0
205.89186,206.21825,85,80,0
206.39186,206.46825,79,80,0
206.43353,206.50992,80,80,0
206.47519,206.55159,82,80,0
206.51686,206.59325,84,80,0
206.55853,206.88492,85,80,0
207.05853,207.13492,67,80,0
207.10019,207.17659,68,80,0
207.14186,207.21825,70,80,0
207.18353,207.25992,72,80,0
207.22519,207.55157,73,80,0
207.72519,207.80157,43,100,0
207.76686,207.84325,44,100,0
207.80853,207.88492,46,100,0
207.85019,207.92657,48,100,0
207.89186,208.21825,49,100,0
208.39186,208.46825,49,100,0
208.43353,208.50992,48,100,0
208.47519,208.55157,46,100,0
208.51686,208.59325,44,100,0
208.55853,208.88492,43,100,0
209.05852,209.13492,79,80,0
209.10019,209.17657,80,80,0
209.14186,209.21825,82,80,0
209.18352,209.25992,84,80,0
209.22519,209.55157,85,80,0
209.72519,209.80157,67,80,0
209.76686,209.84325,68,80,0
209.80852,209.88492,70,80,0
209.85019,209.92657,72,80,0
209.89186,210.21825,73,80,0
210.39186,210.46825,43,100,0
210.43352,210.50992,44,100,0
210.47519,210.55157,46,100,0
210.51686,210.59325,48,100,0
210.55852,210.88492,49,100,0
211.05852,211.13492,49,100,0
211.10019,211.17657,48,100,0
211.14186,211.21825,46,100,0
211.18352,211.25992,44,100,0
211.22519,211.55157,43,100,0
211.72519,211.80157,43,80,0
211.76686,211.84325,44,80,0
211.80852,211.88492,46,80,0
211.85019,211.92657,48,80,0
211.89186,212.21825,49,80,0
212.39186,212.46825,49,80,0
212.43352,212.5099,48,80,0
212.47519,212.55157,46,80,0
212.51686,212.59325,44,80,0
212.55852,212.8849,43,80,0
213.05852,213.1349,43,80,0
213.10019,213.17657,44,80,0
213.14186,213.21825,46,80,0
213.18352,213.2599,48,80,0
213.22519,213.55157,49,80,0
213.72519,213.80157,49,80,0
213.76686,213.84325,48,80,0
213.80852,213.8849,46,80,0
213.85019,213.92657,44,80,0
213.89186,214.03769,43,80,0
214.22519,214.3849,58,80,0
214.39185,214.55157,56,80,0
214.55852,214.71825,55,80,0
214.72519,214.8849,53,80,0
214.89185,215.05157,51,80,0
215.05852,215.21825,50,80,0
215.22519,215.3849,51,80,0
215.55852,215.71825,61,100,0
215.72519,215.8849,60,80,0
215.89185,216.05157,58,80,0
216.05852,216.21825,56,80,0
216.22519,216.3849,55,80,0
216.39185,216.55157,53,80,0
216.55852,216.71825,51,80,0
216.89185,217.05157,82,100,0
217.05852,217.21825,80,80,0
217.22519,217.3849,79,80,0
217.39185,217.55157,77,80,0
217.55852,217.71823,75,80,0
217.72519,217.8849,74,80,0
217.89185,218.05157,75,80,0
218.22519,218.3849,85,100,0
218.39185,218.55157,84,80,0
218.55852,218.71823,82,80,0
218.72519,218.8849,80,80,0
218.89185,219.05157,79,80,0
219.05852,219.21823,77,80,0
219.22517,219.3849,75,80,0
219.55852,219.71823,85,80,0
219.72517,219.8849,84,80,0
219.89185,220.05157,82,80,0
220.05852,220.21823,80,80,0
220.22517,220.3849,79,80,0
220.39185,220.55157,77,80,0
220.55852,220.71823,75,80,0
220.72517,220.8849,74,80,0
220.89185,221.05157,73,80,0
221.05852,221.21823,72,80,0
221.22517,221.3849,70,80,0
221.39185,221.55157,68,80,0
221.55852,221.71823,67,80,0
221.72517,221.8849,65,80,0
221.89185,222.05157,63,80,0
222.05852,222.21823,62,80,0
222.22517,222.3849,61,80,0
222.39185,222.55156,60,80,0
222.55852,222.71823,58,80,0
222.72517,222.8849,56,80,0
222.89185,223.05156,55,80,0
223.05852,223.21823,53,80,0
223.22517,223.3849,51,80,0
227.39185,228.3849,60,80,0
227.39185,228.3849,56,80,0
227.39185,228.3849,51,80,0
228.39185,228.71823,61,95,0
228.39185,228.71823,55,95,0
228.39185,228.71823,51,95,0
228.72517,229.71823,56,80,0
228.72517,229.71823,51,80,0
228.72517,229.71823,63,80,0
229.72517,230.05156,65,95,0
229.72517,230.38489,53,95,0
230.0585,230.38489,61,80,0
230.39185,230.71823,63,80,0
230.39185,230.71823,58,80,0
230.72517,231.05156,60,80,0
230.72517,231.05156,51,80,0
231.0585,231.38489,56,80,0
231.0585,231.38489,51,80,0
231.39183,232.21823,58,80,0
231.39183,232.21823,55,80,0
232.22517,232.38489,55,80,0
232.22517,232.38489,51,80,0
232.39183,232.55156,56,80,0
232.39183,232.55156,53,80,0
232.5585,232.71823,58,80,0
232.5585,232.71823,55,80,0
232.72517,233.71823,60,80,0
232.72517,233.71823,56,80,0
232.72517,233.71823,51,80,0
233.72517,234.05156,61,95,0
233.72517,234.05156,55,95,0
233.72517,234.05156,51,95,0
234.0585,235.05156,56,80,0
234.0585,235.05156,51,80,0
234.0585,235.05156,63,80,0
235.0585,235.38489,65,95,0
235.0585,235.71822,53,95,0
235.39183,235.71822,61,80,0
235.72517,236.05156,63,80,0
235.72517,236.05156,58,80,0
236.0585,236.38489,60,80,0
236.0585,236.38489,51,80,0
236.39183,236.71822,56,80,0
236.39183,236.71822,51,80,0
236.72516,237.38489,58,80,0
236.72516,237.38489,49,80,0
236.72516,237.71822,51,80,0
237.39183,237.71822,56,80,0
237.39183,237.71822,48,80,0
237.72516,238.05156,80,80,0
237.72516,238.05156,72,80,0
238.0585,238.71822,82,80,0
238.0585,238.71822,73,80,0
238.72516,239.05156,80,80,0
238.72516,239.05156,72,80,0
239.0585,239.38489,72,70,0
239.39183,239.96822,70,70,0
239.97516,240.05154,68,70,0
240.0585,240.30154,67,70,0
240.39183,240.63489,65,70,0
240.72516,241.38489,64,70,0
241.72516,241.88489,65,70,0
241.80849,241.96822,67,70,0
241.89183,242.05154,64,70,0
241.97516,242.05154,65,70,0
242.05849,242.63489,67,70,0
242.64183,242.71822,65,70,0
242.72516,243.05154,64,70,0
243.05849,243.30154,62,70,0
243.39183,244.05154,60,70,0
244.64183,244.71822,60,70,0
244.72516,245.07074,60,70,0
245.3428,245.42369,60,70,0
245.43105,245.77663,60,70,0
246.04869,246.12956,60,70,0
246.13692,246.83545,60,70,0
247.46045,247.54134,61,70,0
247.54869,247.89427,61,71,0
248.16634,248.24721,61,84,0
248.25456,248.60016,61,85,0
248.87221,248.9531,61,98,0
248.96045,249.65898,61,99,0
250.28398,250.36487,61,110,0
250.37221,251.1144,61,110,0
251.12221,251.54185,58,110,0
251.55078,251.97043,55,110,0
251.97935,254.87717,51,110,0
254.88411,254.93967,51,80,0
254.94661,255.00217,53,80,0
255.00911,255.06467,55,80,0
255.06467,255.12022,56,80,0
255.13411,255.18967,58,80,0
255.21745,256.04382,60,80,0
256.05078,256.2105,59,80,0
256.21744,256.37717,60,80,0
256.38412,256.54382,61,80,0
256.55078,257.37717,63,80,0
257.38412,257.54382,62,80,0
257.55078,257.7105,63,80,0
257.71744,257.87717,65,80,0
257.88412,258.2105,61,80,0
257.88412,258.2105,53,80,0
258.21744,258.54382,63,80,0
258.21744,258.54382,58,80,0
258.55078,258.87717,60,80,0
258.55078,258.87717,51,80,0
258.88412,259.2105,51,80,0
258.88412,259.2105,56,80,0
259.21744,260.04382,58,80,0
259.21744,260.04382,55,80,0
260.05078,260.2105,55,80,0
260.05078,260.2105,51,80,0
260.21744,260.37717,56,80,0
260.21744,260.37717,53,80,0
260.3841,260.54382,58,80,0
260.3841,260.54382,55,80,0
260.55078,260.7105,56,80,0
260.71744,260.87717,51,80,0
260.55078,261.04382,60,80,0
260.8841,261.04382,51,80,0
261.05078,261.2105,51,80,0
261.05078,261.2105,59,80,0
261.21744,261.37717,60,80,0
261.21744,261.37717,51,80,0
261.3841,261.54382,59,80,0
261.55078,261.7105,60,80,0
261.71744,261.87717,61,80,0
262.05078,262.2105,56,80,0
261.8841,262.37717,63,80,0
262.21744,262.37717,56,80,0
262.3841,262.54382,62,80,0
262.3841,262.54382,56,80,0
262.55078,262.7105,63,80,0
262.55078,262.7105,56,80,0
262.71744,262.87717,62,80,0
262.8841,263.04382,63,80,0
263.05078,263.2105,65,80,0
263.05078,263.2105,53,80,0
263.21744,263.54382,61,80,0
263.21744,263.54382,53,80,0
263.55078,263.87717,63,80,0
263.55078,263.87717,58,80,0
263.8841,264.21048,60,80,0
263.8841,264.21048,51,80,0
264.21744,264.54382,51,80,0
264.21744,264.54382,56,80,0
264.55078,265.21048,58,80,0
264.55078,265.21048,49,80,0
264.55078,265.54382,51,80,0
265.21744,265.54382,56,80,0
265.21744,265.54382,48,80,0
265.55078,265.87717,80,80,0
265.55078,265.87717,72,80,0
265.8841,266.54382,82,80,0
265.8841,266.54382,73,80,0
266.55078,266.87717,80,80,0
266.55078,266.87717,72,80,0
266.8841,267.21048,84,70,0
267.21744,267.79382,82,70,0
267.80078,267.87717,80,70,0
267.8841,268.12717,79,70,0
268.21744,268.46048,77,70,0
268.55078,269.21048,76,70,0
269.55078,269.71048,77,70,0
269.6341,269.79382,79,70,0
269.71744,269.87717,76,70,0
269.80078,269.87717,77,70,0
269.8841,270.46048,79,70,0
270.46744,270.54382,77,70,0
270.55075,270.8884,76,70,0
270.8956,271.14703,74,70,0
271.24042,271.92288,72,70,0
272.53354,272.61255,72,70,0
272.61972,272.96942,72,70,0
273.24472,273.32657,72,70,0
273.334,273.68372,72,70,0
273.959,274.04086,72,70,0
274.0483,274.75516,72,70,0
275.36972,275.4461,85,120,0
275.36972,275.4461,73,120,0
275.45306,275.77945,85,120,0
275.45306,275.77945,73,120,0
275.7864,275.9461,66,80,0
275.95306,276.1128,70,80,0
276.11972,276.27945,68,80,0
276.2864,276.4461,71,80,0
276.45306,276.6128,65,80,0
276.61972,276.77945,68,80,0
276.7864,276.9461,66,80,0
276.95306,277.1128,70,80,0
277.11972,277.27945,66,80,0
277.2864,277.4461,70,80,0
277.45306,277.6128,68,80,0
277.61972,277.77945,71,80,0
277.78638,277.9461,65,80,0
277.95306,278.1128,68,80,0
278.11972,278.27945,66,80,0
278.28638,278.4461,70,80,0
278.45306,278.6128,73,80,0
278.61972,278.77945,70,80,0
278.78638,278.9461,73,80,0
278.95306,279.1128,78,80,0
279.11972,279.27945,82,80,0
279.28638,279.4461,78,80,0
279.45306,279.6128,82,80,0
279.61972,279.77945,83,80,0
279.78638,279.9461,85,80,0
279.95306,280.1128,83,80,0
280.11972,280.27945,82,80,0
280.28638,280.4461,83,80,0
280.45306,280.6128,82,80,0
280.61972,280.77945,80,80,0
280.78638,281.11276,87,120,0
280.78638,281.11276,79,120,0
280.78638,281.11276,75,120,0
281.11972,281.27945,63,80,0
281.28638,281.4461,67,80,0
281.45306,281.61276,65,80,0
281.61972,281.77945,68,80,0
281.78638,281.9461,62,80,0
281.95306,282.11276,65,80,0
282.11972,282.27945,63,80,0
282.28638,282.4461,67,80,0
282.45306,282.61276,63,80,0
282.61972,282.77945,67,80,0
282.78638,282.9461,65,80,0
282.95306,283.11276,68,80,0
283.11972,283.27945,62,80,0
283.28638,283.4461,65,80,0
283.45306,283.61276,63,80,0
283.61972,283.77945,67,80,0
283.78638,283.9461,70,80,0
283.95306,284.11276,67,80,0
284.11972,284.27945,70,80,0
284.28638,284.4461,73,80,0
284.45306,284.61276,76,80,0
284.61972,284.77945,73,80,0
284.78638,284.9461,76,80,0
284.95306,285.11276,79,80,0
285.11972,285.27945,82,80,0
285.28638,285.4461,79,80,0
285.45306,285.61276,82,80,0
285.61972,285.77945,79,80,0
285.78638,285.9461,82,80,0
285.95306,286.11276,79,80,0
286.11972,286.27945,82,80,0
286.28638,286.4461,79,81,0
286.45306,286.61276,82,83,0
286.61972,286.77945,79,85,0
286.78638,286.9461,82,87,0
286.95306,287.11276,79,89,0
287.11972,287.27945,82,90,0
287.28638,287.4461,79,92,0
287.45306,287.61276,82,94,0
287.61972,287.77945,79,96,0
287.78638,287.9461,82,98,0
287.95303,288.11276,79,99,0
288.11972,288.27945,80,95,0
288.28638,288.4461,75,91,0
288.45303,288.61276,72,86,0
288.61972,288.77945,68,81,0
288.78638,288.9461,67,80,0
288.95303,289.11276,79,81,0
289.11972,289.27945,82,83,0
289.28638,289.4461,79,85,0
289.45303,289.61276,82,87,0
289.61972,289.77945,79,89,0
289.78638,289.9461,82,90,0
289.95303,290.11276,79,92,0
290.11972,290.27945,82,94,0
290.28638,290.4461,79,96,0
290.45303,290.61276,82,98,0
290.61972,290.77945,79,99,0
290.78638,290.9461,80,95,0
290.95303,291.11276,75,91,0
291.11972,291.27942,72,86,0
291.28638,291.4461,68,81,0
291.45303,291.61276,67,80,0
291.61972,291.77942,79,80,0
291.78638,291.9461,82,80,0
291.95303,292.11276,79,80,0
292.11972,292.27942,80,80,0
292.28638,292.4461,75,80,0
292.45303,292.61276,72,80,0
292.61972,292.77942,68,80,0
292.78638,292.9461,67,80,0
292.95303,293.11276,79,80,0
293.11972,293.27942,82,80,0
293.28638,293.4461,79,80,0
293.45303,293.61276,80,80,0
293.61972,293.77942,75,80,0
293.78638,293.9461,72,80,0
293.95303,294.11276,68,80,0
294.11972,294.27942,65,80,0
294.28638,294.4461,61,80,0
294.45303,294.61276,58,80,0
294.61972,294.77942,53,80,0
294.78638,294.9461,51,80,0
294.95303,295.11276,46,80,0
295.11972,295.27942,43,80,0
295.28638,295.4461,55,80,0
295.45303,295.77942,56,80,0
295.95303,296.11276,63,80,0
296.11972,296.4461,60,80,0
296.61972,296.77942,68,80,0
296.78638,297.11276,63,80,0
297.28638,297.4461,72,80,0
297.45303,297.61276,67,80,0
297.61972,297.77942,73,80,0
297.78638,297.9461,70,80,0
297.95303,298.11276,67,80,0
298.1197,298.4461,68,80,0
298.6197,298.77942,75,80,0
298.78638,299.11276,72,80,0
299.28638,299.4461,80,80,0
299.45303,299.77942,75,80,0
299.95303,300.11276,84,80,0
300.1197,300.27942,79,80,0
300.28638,300.4461,85,80,0
300.45303,300.61276,82,80,0
300.6197,300.77942,79,80,0
300.78638,301.11276,80,80,0
301.28638,301.44608,72,80,0
301.45303,301.61276,67,80,0
301.6197,301.77942,73,80,0
301.78638,301.94608,70,80,0
301.95303,302.11276,67,80,0
302.1197,302.44608,68,80,0
302.6197,302.77942,84,80,0
302.78638,302.94608,79,80,0
302.95303,303.11276,85,80,0
303.1197,303.27942,82,80,0
303.28638,303.44608,79,80,0
303.45303,303.61276,80,80,0
303.6197,303.77942,84,80,0
303.78638,303.94608,75,80,0
303.95303,304.11276,80,80,0
304.1197,304.27942,72,80,0
304.28638,304.44608,75,80,0
304.45303,304.61276,73,80,0
304.6197,304.77942,70,80,0
304.78638,304.94608,68,80,0
304.95303,305.11276,72,80,0
305.1197,305.27942,63,80,0
305.28638,305.44608,68,80,0
305.45303,305.61276,60,80,0
305.6197,305.77942,63,80,0
305.78638,305.94608,61,80,0
305.95303,306.11276,58,80,0
306.1197,306.27942,56,80,0
306.28638,306.44608,59,80,0
306.45303,306.61276,60,80,0
306.6197,306.77942,55,80,0
306.78638,306.94608,56,80,0
306.95303,307.11276,52,80,0
307.1197,307.27942,53,80,0
307.28638,307.44608,48,80,0
307.45303,307.61276,49,80,0
307.6197,307.77942,60,80,0
307.78638,307.94608,61,80,0
307.95303,308.11276,57,80,0
308.1197,308.27942,58,80,0
308.28635,308.44608,54,80,0
308.45303,308.61276,55,80,0
308.6197,308.77942,50,80,0
308.78635,308.94608,51,80,0
308.95303,309.11276,53,81,0
309.1197,309.27942,55,82,0
309.28635,309.44608,56,83,0
309.45303,309.61276,58,85,0
309.6197,309.77942,60,86,0
309.78635,309.94608,61,87,0
309.95303,310.11276,63,89,0
310.1197,310.27942,65,90,0
310.28635,310.44608,67,91,0
310.45303,310.61276,68,93,0
310.6197,310.77942,70,94,0
310.78635,310.94608,72,95,0
310.95303,311.11276,67,97,0
311.1197,311.27942,68,98,0
311.28635,311.44608,64,99,0
311.45303,311.61273,65,95,0
311.6197,311.77942,60,93,0
311.78635,311.94608,61,91,0
311.95303,312.11273,57,89,0
312.1197,312.27942,58,87,0
312.28635,312.44608,60,85,0
312.45303,312.61273,61,83,0
312.6197,312.77942,62,81,0
312.78635,313.124,63,80,0
313.476,313.81366,51,80,0
314.16568,314.5239,44,80,0
314.89737,315.2556,87,70,0
314.89737,315.2556,75,70,0
315.6291,316.0156,80,70,0
315.6291,316.0156,68,70,0
316.41855,316.80505,75,70,0
316.41855,316.80505,63,70,0
316.8133,317.4383,75,70,0
316.8133,317.4383,63,70,0
317.4516,318.71487,68,70,0
317.4516,318.71487,56,70,0
321.28137,322.54468,68,1,0
0.1666665,0.32638857,32,80,0
0.333333,0.49305508,36,80,0
0.4999995,0.65972155,39,80,0
0.666666,0.82638806,44,80,0
0.8333325,0.99305457,32,80,0
0.999999,1.159721,34,80,0
1.1666656,1.3263875,46,80,0
1.4999985,1.6597205,36,80,0
1.666665,1.826387,39,80,0
1.8333315,1.9930536,44,80,0
1.999998,2.15972,48,80,0
2.1666646,2.3263865,36,80,0
2.333331,2.493053,37,80,0
2.4999976,2.6597195,49,80,0
2.666664,2.826386,34,80,0
2.8333304,2.9930525,46,80,0
2.999997,3.159719,31,80,0
3.1666634,3.3263855,43,80,0
3.33333,3.493052,32,80,0
3.4999964,3.6597185,44,80,0
3.666663,3.826385,36,80,0
3.8333294,3.9930515,48,80,0
3.999996,4.159718,39,80,0
4.1666627,4.3263845,51,80,0
4.333329,4.493051,51,80,0
4.4999957,4.6597176,51,80,0
4.666662,4.826384,51,80,0
4.8333287,4.9930506,49,80,0
4.999995,5.159717,48,80,0
5.1666613,5.3263836,46,80,0
5.333328,5.49305,44,80,0
5.4999943,5.6597166,32,80,0
5.666661,5.826383,36,80,0
5.8333273,5.9930496,39,80,0
5.999994,6.159716,44,80,0
6.1666603,6.3263826,32,80,0
6.333327,6.493049,34,80,0
6.4999933,6.6597157,46,80,0
6.8333263,6.9930487,36,80,0
6.999993,7.159715,39,80,0
7.1666594,7.3263817,44,80,0
7.333326,7.493048,48,80,0
7.4999924,7.6597147,36,80,0
7.666659,7.826381,37,80,0
7.8333254,7.9930477,49,80,0
7.999992,8.159714,34,80,0
8.166658,8.326381,46,80,0
8.333325,8.493047,31,80,0
8.499991,8.659714,43,80,0
8.666658,8.82638,32,80,0
8.833324,8.993047,44,80,0
8.999991,9.159713,36,80,0
9.166657,9.32638,48,80,0
9.333324,9.493046,39,80,0
9.49999,9.659713,39,80,0
9.666657,9.826379,43,80,0
9.8333235,9.993046,39,80,0
9.99999,10.326379,44,80,0
9.99999,10.326379,32,80,0
10.333323,10.659712,68,80,0
10.333323,10.659712,56,80,0
10.666656,11.326378,67,80,0
10.666656,11.326378,63,80,0
11.333322,11.659711,68,80,0
11.333322,11.659711,56,80,0
11.666655,11.993044,60,70,0
11.999988,12.576376,58,70,0
12.583321,12.65971,56,70,0
12.666654,12.909709,55,70,0
12.999987,13.243042,53,70,0
13.33332,13.993042,52,70,0
14.333319,14.493041,53,70,0
14.416653,14.576374,55,70,0
14.499986,14.659708,52,70,0
14.583319,14.659708,53,70,0
14.666652,15.24304,55,70,0
15.249985,15.326373,53,70,0
15.333318,15.659706,52,70,0
15.666651,15.909706,50,70,0
15.999984,16.659706,48,70,0
17.249983,17.326372,48,70,0
17.333317,17.659704,48,70,0
17.916649,17.993038,48,70,0
17.999983,18.32637,48,70,0
18.583315,18.659704,48,70,0
18.666649,19.32637,48,70,0
19.916647,19.993036,49,70,0
19.99998,20.326368,49,71,0
20.583313,20.659702,49,79,0
20.666645,20.993034,49,81,0
21.249979,21.326368,49,89,0
21.333311,21.993034,49,91,0
22.583311,22.6597,49,109,0
22.666643,23.40883,49,110,0
23.416643,23.836287,46,110,0
23.845215,24.264858,43,110,0
24.273787,27.1716,39,110,0
27.678545,27.838266,32,80,0
27.845211,28.004932,36,80,0
28.011877,28.1716,39,80,0
28.178543,28.338266,44,80,0
28.345211,28.504932,32,80,0
28.511877,28.671598,34,80,0
28.678543,28.838266,46,80,0
29.011877,29.171598,36,80,0
29.178543,29.338264,39,80,0
29.34521,29.504932,44,80,0
29.511875,29.671598,48,80,0
29.678543,29.838264,36,80,0
29.84521,30.00493,37,80,0
30.011875,30.171598,49,80,0
30.178541,30.338264,34,80,0
30.34521,30.50493,46,80,0
30.511875,30.671597,31,80,0
30.678541,30.838264,43,80,0
30.845207,31.00493,32,80,0
31.011875,31.171597,44,80,0
31.178541,31.338263,36,80,0
31.345207,31.50493,48,80,0
31.511873,31.671597,39,80,0
31.678541,31.838263,51,80,0
31.845207,32.00493,51,80,0
32.011875,32.171597,51,80,0
32.17854,32.33826,51,80,0
32.345207,32.50493,49,80,0
32.51187,32.671597,48,80,0
32.67854,32.83826,46,80,0
32.845207,33.00493,44,80,0
33.01187,33.171593,32,80,0
33.17854,33.33826,36,80,0
33.345207,33.50493,39,80,0
33.51187,33.671593,44,80,0
33.67854,33.83826,32,80,0
33.845203,34.00493,34,80,0
34.01187,34.171593,46,80,0
34.345203,34.504925,36,80,0
34.51187,34.671593,39,80,0
34.67854,34.83826,44,80,0
34.845203,35.004925,48,80,0
35.01187,35.171593,36,80,0
35.178535,35.33826,37,80,0
35.345203,35.504925,49,80,0
35.51187,35.671593,34,80,0
35.678535,35.838257,46,80,0
35.845203,36.004925,31,80,0
36.01187,36.171593,43,80,0
36.178535,36.338257,32,80,0
36.345203,36.504925,44,80,0
36.511868,36.671593,36,80,0
36.678535,36.838257,48,80,0
36.845203,37.004925,39,80,0
37.011868,37.17159,39,80,0
37.178535,37.338257,43,80,0
37.345203,37.504925,39,80,0
37.511868,37.838257,44,80,0
37.511868,37.838257,32,80,0
37.8452,38.17159,68,80,0
37.8452,38.17159,56,80,0
38.178535,38.8701,67,80,0
38.178535,38.8701,63,80,0
38.87772,39.23595,68,80,0
38.87772,39.23595,56,80,0
39.243572,39.601807,72,70,0
39.60943,40.24205,70,70,0
40.249672,40.33351,68,70,0
40.341133,40.607903,67,70,0
40.70699,40.973755,65,70,0
41.07284,41.79693,64,70,0
42.170403,42.345707,65,70,0
42.261864,42.437172,67,70,0
42.35333,42.528633,64,70,0
42.444794,42.528633,65,70,0
42.536255,43.168877,67,70,0
43.1765,43.26034,65,70,0
43.267963,43.626194,64,70,0
43.633816,43.900585,62,70,0
43.99967,44.723755,60,70,0
45.37162,45.455463,60,70,0
45.463085,45.821316,60,70,0
46.10333,46.18717,60,70,0
46.19479,46.55302,60,70,0
46.835033,46.918877,60,70,0
46.9265,47.65058,60,70,0
48.298447,48.38229,53,120,0
48.298447,48.38229,48,120,0
48.298447,48.38229,45,120,0
48.298447,48.38229,41,120,0
48.38991,48.7163,53,120,0
48.38991,48.7163,48,120,0
48.38991,48.7163,45,120,0
48.38991,48.7163,41,120,0
48.723244,48.882965,57,80,0
48.88991,49.049633,60,80,0
49.056576,49.2163,58,80,0
49.223244,49.382965,61,80,0
49.38991,49.549633,55,80,0
49.556576,49.7163,58,80,0
49.723244,49.882965,57,80,0
49.88991,50.049633,60,80,0
50.056576,50.216297,57,80,0
50.223244,50.382965,60,80,0
50.389908,50.549633,58,80,0
50.556576,50.716297,61,80,0
50.723244,50.882965,55,80,0
50.889908,51.04963,58,80,0
51.056576,51.216297,57,80,0
51.223244,51.382965,60,80,0
51.389908,51.54963,63,80,0
51.556576,51.716297,60,80,0
51.72324,51.882965,60,80,0
51.889908,52.04963,63,80,0
52.056576,52.216297,66,80,0
52.22324,52.38296,63,80,0
52.389908,52.54963,63,80,0
52.556576,52.716297,66,80,0
52.72324,52.88296,69,80,0
52.889908,53.04963,66,80,0
53.056572,53.216297,65,80,0
53.22324,53.38296,69,80,0
53.389908,53.54963,63,80,0
53.556572,53.716293,69,80,0
53.72324,54.04963,58,120,0
53.72324,54.04963,53,120,0
53.72324,54.04963,50,120,0
53.72324,54.04963,46,120,0
54.056572,54.216293,62,80,0
54.22324,54.38296,65,80,0
54.389904,54.54963,63,80,0
54.556572,54.716293,66,80,0
54.72324,54.88296,60,80,0
54.889904,55.049625,63,80,0
55.056572,55.216293,62,80,0
55.22324,55.38296,65,80,0
55.389904,55.549625,62,80,0
55.556572,55.716293,65,80,0
55.723236,55.88296,63,80,0
55.889904,56.049625,66,80,0
56.056572,56.216293,60,80,0
56.223236,56.382957,63,80,0
56.389904,56.549625,62,80,0
56.55657,56.716293,65,80,0
56.723236,56.882957,68,80,0
56.889904,57.049625,65,80,0
57.05657,57.216293,65,80,0
57.223236,57.382957,68,80,0
57.389904,57.549625,71,80,0
57.55657,57.71629,68,80,0
57.723236,57.882957,68,80,0
57.8899,58.049625,71,80,0
58.05657,58.21629,74,80,0
58.223236,58.382957,71,80,0
58.3899,58.549625,74,80,0
58.55657,58.71629,77,80,0
58.723236,58.882957,80,80,0
58.973236,59.04962,71,80,0
58.973236,59.04962,68,80,0
59.05657,59.382957,71,80,0
59.05657,59.382957,68,80,0
59.6399,59.71629,71,86,0
59.6399,59.71629,68,86,0
59.723232,60.04962,71,87,0
59.723232,60.04962,68,87,0
60.30657,60.382954,71,93,0
60.30657,60.382954,68,93,0
60.3899,60.71629,71,94,0
60.3899,60.71629,68,94,0
60.973232,61.04962,71,80,0
60.973232,61.04962,68,80,0
61.056564,61.382954,70,95,0
61.056564,61.382954,67,95,0
61.639896,61.716286,70,80,0
61.639896,61.716286,67,80,0
61.723232,62.04962,71,80,0
61.723232,62.04962,68,80,0
62.306564,62.382954,71,86,0
62.306564,62.382954,68,86,0
62.389896,62.716286,71,87,0
62.389896,62.716286,68,87,0
62.97323,63.049618,71,93,0
62.97323,63.049618,68,93,0
63.056564,63.382954,71,94,0
63.056564,63.382954,68,94,0
63.639896,63.716286,71,80,0
63.639896,63.716286,68,80,0
63.72323,64.04962,70,95,0
63.72323,64.04962,67,95,0
64.306564,64.38295,70,80,0
64.306564,64.38295,67,80,0
64.38989,64.716286,71,80,0
64.38989,64.716286,68,80,0
64.97323,65.049614,71,80,0
64.97323,65.049614,68,80,0
65.056564,65.38295,70,80,0
65.056564,65.38295,67,80,0
65.63989,65.716286,70,80,0
65.63989,65.716286,67,80,0
65.72323,66.049614,71,80,0
65.72323,66.049614,68,80,0
66.30656,66.38295,71,80,0
66.30656,66.38295,68,80,0
66.38989,66.716286,70,80,0
66.38989,66.716286,67,80,0
66.97323,67.049614,55,80,0
67.05656,67.38295,56,80,0
67.63989,67.71628,44,80,0
67.72323,68.049614,46,80,0
68.30656,68.38295,34,80,0
68.38989,68.549614,39,70,0
68.55656,68.71628,46,70,0
68.55656,68.71628,51,70,0
68.72322,68.88295,55,70,0
68.72322,68.88295,51,70,0
68.88989,69.049614,46,70,0
68.88989,69.049614,51,70,0
69.05656,69.21628,55,70,0
69.05656,69.21628,51,70,0
69.22322,69.38295,51,70,0
69.22322,69.38295,46,70,0
69.38989,69.549614,55,70,0
69.38989,69.549614,51,70,0
69.55656,69.71628,51,70,0
69.55656,69.71628,46,70,0
69.72322,69.88294,55,70,0
69.72322,69.88294,51,70,0
69.88989,70.049614,51,70,0
69.88989,70.049614,46,70,0
70.05656,70.21628,55,70,0
70.05656,70.21628,51,70,0
70.22322,70.38294,51,70,0
70.22322,70.38294,46,70,0
70.38989,70.549614,56,70,0
70.38989,70.549614,53,70,0
70.55656,70.71628,53,70,0
70.55656,70.71628,46,70,0
70.72322,70.88294,56,70,0
70.72322,70.88294,53,70,0
70.88989,71.049614,53,70,0
70.88989,71.049614,46,70,0
71.05656,71.21628,39,70,0
71.22322,71.38294,46,70,0
71.22322,71.38294,51,70,0
71.389885,71.549614,55,70,0
71.389885,71.549614,51,70,0
71.55656,71.71628,46,70,0
71.55656,71.71628,51,70,0
71.72322,71.88294,55,70,0
71.72322,71.88294,51,70,0
71.889885,72.04961,51,70,0
71.889885,72.04961,46,70,0
72.05656,72.21628,55,70,0
72.05656,72.21628,51,70,0
72.22322,72.38294,51,70,0
72.22322,72.38294,46,70,0
72.389885,72.54961,55,70,0
72.389885,72.54961,51,70,0
72.55656,72.71628,51,70,0
72.55656,72.71628,46,70,0
72.72322,72.88294,55,70,0
72.72322,72.88294,51,70,0
72.889885,73.04961,51,70,0
72.889885,73.04961,46,70,0
73.05656,73.21628,56,70,0
73.05656,73.21628,53,70,0
73.22322,73.38294,53,70,0
73.22322,73.38294,46,70,0
73.389885,73.54961,56,70,0
73.389885,73.54961,53,70,0
73.55656,73.71628,53,70,0
73.55656,73.71628,46,70,0
73.72322,73.88294,55,70,0
73.72322,73.88294,51,70,0
73.889885,74.04961,51,70,0
73.889885,74.04961,46,70,0
74.05655,74.21628,55,70,0
74.05655,74.21628,51,70,0
74.22322,74.38294,51,70,0
74.22322,74.38294,46,70,0
74.389885,74.54961,56,70,0
74.389885,74.54961,53,70,0
74.55655,74.71627,53,70,0
74.55655,74.71627,46,70,0
74.72322,74.88294,56,70,0
74.72322,74.88294,53,70,0
74.889885,75.04961,53,70,0
74.889885,75.04961,46,70,0
75.05655,75.21627,55,70,0
75.05655,75.21627,51,70,0
75.22322,75.38294,51,70,0
75.22322,75.38294,46,70,0
75.389885,75.54961,55,70,0
75.389885,75.54961,51,70,0
75.55655,75.71627,51,70,0
75.55655,75.71627,46,70,0
75.72322,75.88294,56,70,0
75.72322,75.88294,53,70,0
75.889885,76.04961,53,70,0
75.889885,76.04961,46,70,0
76.05655,76.21627,56,70,0
76.05655,76.21627,53,70,0
76.22321,76.38294,53,70,0
76.22321,76.38294,46,70,0
76.389885,76.71627,55,80,0
76.389885,76.71627,51,80,0
77.72321,77.882935,51,80,0
77.889885,78.04961,55,80,0
78.05655,78.21627,46,80,0
78.22321,78.382935,51,80,0
78.389885,78.54961,43,80,0
78.55655,78.71627,46,80,0
78.72321,78.882935,44,80,0
78.88988,79.04961,41,80,0
79.05655,79.382935,39,80,0
79.72321,80.0496,39,80,0
80.38988,80.71627,39,80,0
81.05655,81.382935,39,80,0
81.72321,82.0496,39,80,0
82.38988,82.71626,39,85,0
83.05654,83.382935,39,90,0
83.72321,84.0496,39,95,0
84.55654,84.71626,32,80,0
84.723206,84.88293,36,80,0
84.88988,85.0496,39,80,0
85.05654,85.21626,44,80,0
85.223206,85.38293,32,80,0
85.38988,85.5496,34,80,0
85.55654,85.71626,46,80,0
85.88988,86.0496,36,80,0
86.05654,86.21626,39,80,0
86.223206,86.38293,44,80,0
86.38987,86.5496,48,80,0
86.55654,86.71626,36,80,0
86.723206,86.88293,37,80,0
86.88987,87.0496,49,80,0
87.05654,87.21626,34,80,0
87.223206,87.38293,46,80,0
87.38987,87.54959,31,80,0
87.55654,87.71626,43,80,0
87.723206,87.88293,32,80,0
87.88987,88.04959,44,80,0
88.05654,88.21626,36,80,0
88.223206,88.38293,48,80,0
88.38987,88.54959,39,80,0
88.55654,88.71626,51,80,0
88.723206,88.88293,51,80,0
88.88987,89.04959,51,80,0
89.05653,89.21626,51,80,0
89.223206,89.38293,49,80,0
89.38987,89.54959,48,80,0
89.55653,89.71626,46,80,0
89.723206,89.88293,44,80,0
89.88987,90.04959,32,80,0
90.05653,90.216255,36,80,0
90.223206,90.38293,39,80,0
90.38987,90.54959,44,80,0
90.55653,90.716255,32,80,0
90.723206,90.88293,34,80,0
90.88987,91.04959,46,80,0
91.223206,91.38293,36,80,0
91.38987,91.54959,39,80,0
91.55653,91.716255,44,80,0
91.7232,91.88293,48,80,0
91.88987,92.04959,36,80,0
92.05653,92.216255,37,80,0
92.2232,92.38292,49,80,0
92.38987,92.54959,34,80,0
92.55653,92.716255,46,80,0
92.7232,92.88292,31,80,0
92.88987,93.04959,43,80,0
93.05653,93.216255,32,80,0
93.2232,93.38292,44,80,0
93.38987,93.54959,36,80,0
93.55653,93.716255,48,80,0
93.7232,93.88292,39,80,0
93.88987,94.04959,39,80,0
94.05653,94.216255,43,80,0
94.2232,94.38292,39,80,0
94.38986,94.716255,44,80,0
94.38986,94.716255,32,80,0
94.7232,95.04958,68,80,0
94.7232,95.04958,56,80,0
95.05653,95.716255,67,80,0
95.05653,95.716255,63,80,0
95.7232,96.04958,68,80,0
95.7232,96.04958,56,80,0
96.05653,96.38292,60,70,0
96.38986,96.966255,58,70,0
96.9732,97.04958,56,70,0
97.056526,97.29958,55,70,0
97.38986,97.63292,53,70,0
97.7232,98.38292,52,70,0
98.7232,98.88292,53,70,0
98.806526,98.96625,55,70,0
98.88986,99.04958,52,70,0
98.9732,99.04958,53,70,0
99.056526,99.63292,55,70,0
99.63986,99.71625,53,70,0
99.72319,100.04958,52,70,0
100.056526,100.29958,50,70,0
100.38986,101.04958,48,70,0
101.63986,101.71625,48,70,0
101.72319,102.04958,48,70,0
102.306526,102.38291,48,70,0
102.389854,102.71625,48,70,0
102.97319,103.049576,48,70,0
103.056526,103.71625,48,70,0
104.30652,104.38291,49,80,0
104.389854,104.71625,49,81,0
104.97319,105.049576,49,89,0
105.05652,105.38291,49,90,0
105.639854,105.71624,49,98,0
105.72319,106.38291,49,99,0
106.97318,107.049576,49,110,0
107.05652,107.798706,49,110,0
107.80652,108.22616,46,110,0
108.23509,108.65473,43,110,0
108.66366,111.56148,39,110,0
112.06842,112.22814,32,80,0
112.235085,112.394806,36,80,0
112.40176,112.56148,39,80,0
112.56842,112.72814,44,80,0
112.735085,112.894806,32,80,0
112.90176,113.06148,34,80,0
113.06842,113.22814,46,80,0
113.40175,113.56148,36,80,0
113.56842,113.72814,39,80,0
113.735085,113.894806,44,80,0
113.90175,114.06147,48,80,0
114.06842,114.22814,36,80,0
114.235085,114.394806,37,80,0
114.40175,114.56147,49,80,0
114.56842,114.72814,34,80,0
114.735085,114.894806,46,80,0
114.90175,115.06147,31,80,0
115.06842,115.22814,43,80,0
115.235085,115.394806,32,80,0
115.40175,115.56147,44,80,0
115.56841,115.72814,36,80,0
115.735085,115.894806,48,80,0
115.90175,116.06147,39,80,0
116.06841,116.22814,51,80,0
116.235085,116.394806,51,80,0
116.40175,116.56147,51,80,0
116.56841,116.728134,51,80,0
116.735085,116.894806,49,80,0
116.90175,117.06147,48,80,0
117.06841,117.228134,46,80,0
117.235085,117.394806,44,80,0
117.40175,117.56147,32,80,0
117.56841,117.728134,36,80,0
117.735085,117.894806,39,80,0
117.90175,118.06147,44,80,0
118.06841,118.228134,32,80,0
118.23508,118.394806,34,80,0
118.40175,118.56147,46,80,0
118.73508,118.8948,36,80,0
118.90175,119.06147,39,80,0
119.06841,119.228134,44,80,0
119.23508,119.3948,48,80,0
119.40175,119.56147,36,80,0
119.56841,119.728134,37,80,0
119.73508,119.8948,49,80,0
119.90175,120.06147,34,80,0
120.06841,120.228134,46,80,0
120.23508,120.3948,31,80,0
120.40175,120.56147,43,80,0
120.56841,120.728134,32,80,0
120.73508,120.8948,44,80,0
120.90174,121.06147,36,80,0
121.06841,121.228134,48,80,0
121.23508,121.3948,39,80,0
121.40174,121.56146,39,80,0
121.56841,121.728134,43,80,0
121.73508,121.8948,39,80,0
121.90174,122.228134,44,80,0
121.90174,122.228134,32,80,0
122.23508,122.56146,68,80,0
122.23508,122.56146,56,80,0
122.56841,123.228134,67,80,0
122.56841,123.228134,63,80,0
123.23508,123.56146,68,80,0
123.23508,123.56146,56,80,0
123.568405,123.8948,72,70,0
123.90174,124.51203,70,70,0
124.51939,124.60027,68,70,0
124.60762,124.864975,67,70,0
124.96056,125.21792,65,70,0
125.31351,126.01203,64,70,0
126.37233,126.54144,65,70,0
126.46056,126.629684,67,70,0
126.5488,126.71792,64,70,0
126.63703,126.71792,65,70,0
126.72527,127.37371,67,70,0
127.38152,127.46746,65,70,0
127.47527,127.84246,64,70,0
127.85027,128.1237,62,70,0
128.22527,128.96745,60,70,0
129.63152,129.71745,60,70,0
129.72527,130.09245,60,70,0
130.38152,130.46745,60,70,0
130.47527,130.84245,60,70,0
131.13152,131.21745,60,70,0
131.22527,131.885,60,70,0
132.47527,132.55165,53,120,0
132.47527,132.55165,48,120,0
132.47527,132.55165,45,120,0
132.47527,132.55165,41,120,0
132.55861,132.885,53,120,0
132.55861,132.885,48,120,0
132.55861,132.885,45,120,0
132.55861,132.885,41,120,0
132.89194,133.05165,57,80,0
133.0586,133.21832,60,80,0
133.22527,133.385,58,80,0
133.39194,133.55165,61,80,0
133.5586,133.71832,55,80,0
133.72527,133.885,58,80,0
133.89194,134.05165,57,80,0
134.0586,134.21832,60,80,0
134.22527,134.385,57,80,0
134.39194,134.55165,60,80,0
134.5586,134.71832,58,80,0
134.72527,134.885,61,80,0
134.89194,135.05165,55,80,0
135.0586,135.21832,58,80,0
135.22527,135.385,57,80,0
135.39194,135.55165,60,80,0
135.5586,135.71832,63,80,0
135.72527,135.885,60,80,0
135.89194,136.05165,60,80,0
136.0586,136.21832,63,80,0
136.22527,136.38498,66,80,0
136.39194,136.55165,63,80,0
136.5586,136.71832,63,80,0
136.72527,136.88498,66,80,0
136.89194,137.05165,69,80,0
137.0586,137.21832,66,80,0
137.22527,137.38498,65,80,0
137.39194,137.55165,69,80,0
137.5586,137.71832,63,80,0
137.72527,137.88498,69,80,0
137.89192,138.21832,58,120,0
137.89192,138.21832,53,120,0
137.89192,138.21832,50,120,0
137.89192,138.21832,46,120,0
138.22527,138.38498,62,80,0
138.39192,138.55165,65,80,0
138.5586,138.71832,63,80,0
138.72527,138.88498,66,80,0
138.89192,139.05165,60,80,0
139.0586,139.21832,63,80,0
139.22527,139.38498,62,80,0
139.39192,139.55165,65,80,0
139.5586,139.71832,62,80,0
139.72527,139.88498,65,80,0
139.89192,140.05165,63,80,0
140.0586,140.21832,66,80,0
140.22527,140.38498,60,80,0
140.39192,140.55165,63,80,0
140.5586,140.71832,62,80,0
140.72527,140.88498,65,80,0
140.89192,141.05165,68,80,0
141.0586,141.2183,65,80,0
141.22527,141.38498,65,80,0
141.39192,141.55165,68,80,0
141.5586,141.7183,71,80,0
141.72527,141.88498,68,80,0
141.89192,142.05165,68,80,0
142.0586,142.2183,71,80,0
142.22527,142.38498,74,80,0
142.39192,142.55165,71,80,0
142.5586,142.7183,74,80,0
142.72527,142.88498,77,81,0
142.89192,143.05165,80,82,0
143.14192,143.2183,71,84,0
143.14192,143.2183,68,84,0
143.22525,143.55165,71,85,0
143.22525,143.55165,68,85,0
143.8086,143.88498,71,89,0
143.8086,143.88498,68,89,0
143.89192,144.2183,71,90,0
143.89192,144.2183,68,90,0
144.47525,144.55165,71,95,0
144.47525,144.55165,68,95,0
144.5586,144.88498,71,95,0
144.5586,144.88498,68,95,0
145.14192,145.2183,71,80,0
145.14192,145.2183,68,80,0
145.22525,145.55165,70,95,0
145.22525,145.55165,67,95,0
145.8086,145.88498,70,80,0
145.8086,145.88498,67,80,0
145.89192,146.2183,71,80,0
145.89192,146.2183,68,80,0
146.47525,146.55164,71,86,0
146.47525,146.55164,68,86,0
146.5586,146.88498,71,87,0
146.5586,146.88498,68,87,0
147.14192,147.2183,71,93,0
147.14192,147.2183,68,93,0
147.22525,147.55164,71,94,0
147.22525,147.55164,68,94,0
147.8086,147.88498,71,80,0
147.8086,147.88498,68,80,0
147.89192,148.2183,70,95,0
147.89192,148.2183,67,95,0
148.47525,148.55164,70,80,0
148.47525,148.55164,67,80,0
148.55858,148.88498,71,80,0
148.55858,148.88498,68,80,0
149.14192,149.2183,71,80,0
149.14192,149.2183,68,80,0
149.22525,149.55164,70,80,0
149.22525,149.55164,67,80,0
149.80858,149.88498,70,80,0
149.80858,149.88498,67,80,0
149.89192,150.2183,71,80,0
149.89192,150.2183,68,80,0
150.47525,150.55164,71,80,0
150.47525,150.55164,68,80,0
150.55858,150.88498,70,80,0
150.55858,150.88498,67,80,0
151.14192,151.2183,55,80,0
151.22525,151.55164,56,80,0
151.80858,151.88496,44,80,0
151.89192,152.2183,46,80,0
152.47525,152.55164,34,80,0
152.55858,152.7183,39,70,0
152.72525,152.88496,46,70,0
152.72525,152.88496,51,70,0
152.89192,153.05164,55,70,0
152.89192,153.05164,51,70,0
153.05858,153.2183,46,70,0
153.05858,153.2183,51,70,0
153.22525,153.38496,55,70,0
153.22525,153.38496,51,70,0
153.3919,153.55164,51,70,0
153.3919,153.55164,46,70,0
153.55858,153.7183,55,70,0
153.55858,153.7183,51,70,0
153.72525,153.88496,51,70,0
153.72525,153.88496,46,70,0
153.8919,154.05164,55,70,0
153.8919,154.05164,51,70,0
154.05858,154.2183,51,70,0
154.05858,154.2183,46,70,0
154.22525,154.38496,55,70,0
154.22525,154.38496,51,70,0
154.3919,154.55164,51,70,0
154.3919,154.55164,46,70,0
154.55858,154.7183,56,70,0
154.55858,154.7183,53,70,0
154.72525,154.88496,53,70,0
154.72525,154.88496,46,70,0
154.8919,155.05164,56,70,0
154.8919,155.05164,53,70,0
155.05858,155.2183,53,70,0
155.05858,155.2183,46,70,0
155.22525,155.38496,39,70,0
155.3919,155.55164,46,70,0
155.3919,155.55164,51,70,0
155.55858,155.7183,55,70,0
155.55858,155.7183,51,70,0
155.72525,155.88496,46,70,0
155.72525,155.88496,51,70,0
155.8919,156.05164,55,70,0
155.8919,156.05164,51,70,0
156.05858,156.2183,51,70,0
156.05858,156.2183,46,70,0
156.22525,156.38496,55,70,0
156.22525,156.38496,51,70,0
156.3919,156.55164,51,70,0
156.3919,156.55164,46,70,0
156.55858,156.71829,55,70,0
156.55858,156.71829,51,70,0
156.72525,156.88496,51,70,0
156.72525,156.88496,46,70,0
156.8919,157.05164,55,70,0
156.8919,157.05164,51,70,0
157.05858,157.21829,51,70,0
157.05858,157.21829,46,70,0
157.22525,157.38496,56,70,0
157.22525,157.38496,53,70,0
157.3919,157.55164,53,70,0
157.3919,157.55164,46,70,0
157.55858,157.71829,56,70,0
157.55858,157.71829,53,70,0
157.72525,157.88496,53,70,0
157.72525,157.88496,46,70,0
157.8919,158.05164,55,70,0
157.8919,158.05164,51,70,0
158.05858,158.21829,51,70,0
158.05858,158.21829,46,70,0
158.22523,158.38496,55,70,0
158.22523,158.38496,51,70,0
158.3919,158.55164,51,70,0
158.3919,158.55164,46,70,0
158.55858,158.71829,56,70,0
158.55858,158.71829,53,70,0
158.72523,158.88496,53,70,0
158.72523,158.88496,46,70,0
158.8919,159.05164,56,70,0
158.8919,159.05164,53,70,0
159.05858,159.21829,53,70,0
159.05858,159.21829,46,70,0
159.22523,159.38496,55,70,0
159.22523,159.38496,51,70,0
159.3919,159.55164,51,70,0
159.3919,159.55164,46,70,0
159.55858,159.71829,55,70,0
159.55858,159.71829,51,70,0
159.72523,159.88496,51,70,0
159.72523,159.88496,46,70,0
159.8919,160.05164,56,70,0
159.8919,160.05164,53,70,0
160.05858,160.21829,53,70,0
160.05858,160.21829,46,70,0
160.22523,160.38496,56,70,0
160.22523,160.38496,53,70,0
160.3919,160.55164,53,70,0
160.3919,160.55164,46,70,0
160.55858,160.88496,55,80,0
160.55858,160.88496,51,80,0
161.8919,162.05162,51,80,0
162.05858,162.21829,55,80,0
162.22523,162.38496,46,80,0
162.3919,162.55162,51,80,0
162.55858,162.71829,43,80,0
162.72523,162.88496,46,80,0
162.8919,163.05162,44,80,0
163.05858,163.21829,41,80,0
163.22523,163.55162,39,80,0
163.8919,164.21829,39,80,0
164.55856,164.88496,39,80,0
165.22523,165.55162,39,80,0
165.8919,166.21829,39,80,0
166.55856,166.88495,39,85,0
167.22523,167.55162,39,90,0
167.8919,168.21829,39,95,0
168.55856,168.88495,40,100,0
169.22523,169.55162,40,95,0
169.89189,170.21829,40,90,0
170.55856,170.88495,40,85,0
171.39189,171.55162,41,80,0
171.55856,171.71828,45,80,0
171.72523,171.88495,48,80,0
171.89189,172.05162,53,80,0
172.05856,172.21828,41,80,0
172.22523,172.38495,43,80,0
172.39189,172.55162,55,80,0
172.72523,172.88495,45,80,0
172.89189,173.05162,48,80,0
173.05856,173.21828,53,80,0
173.22523,173.38495,57,80,0
173.39189,173.55162,45,80,0
173.55856,173.71828,46,80,0
173.72522,173.88495,58,80,0
173.89189,174.05162,43,80,0
174.05856,174.21828,55,80,0
174.22522,174.38495,40,80,0
174.39189,174.55162,52,80,0
174.55856,174.71828,41,80,0
174.72522,174.88495,53,80,0
174.89189,175.05162,45,80,0
175.05856,175.21828,57,80,0
175.22522,175.38495,48,80,0
175.39189,175.55162,60,80,0
175.55856,175.71828,60,80,0
175.72522,175.88495,60,80,0
175.89189,176.05162,60,80,0
176.05856,176.21828,58,80,0
176.22522,176.38495,57,80,0
176.39189,176.55162,55,80,0
176.72522,176.88495,41,80,0
176.89189,177.0516,45,80,0
177.05856,177.21828,48,80,0
177.22522,177.38495,53,80,0
177.39189,177.5516,41,80,0
177.55856,177.71828,43,80,0
177.72522,177.88495,55,80,0
178.05856,178.21828,45,80,0
178.22522,178.38495,48,80,0
178.39189,178.5516,53,80,0
178.55855,178.71828,57,80,0
178.72522,178.88495,45,80,0
178.89189,179.0516,46,80,0
179.05855,179.21828,58,80,0
179.22522,179.5516,60,80,0
179.22522,179.5516,48,80,0
179.80855,179.88495,66,89,0
179.80855,179.88495,63,89,0
179.89189,180.21828,66,91,0
179.89189,180.21828,63,91,0
180.47522,180.5516,66,80,0
180.47522,180.5516,63,80,0
180.55855,180.88495,66,95,0
180.55855,180.88495,63,95,0
181.14189,181.21828,66,88,0
181.14189,181.21828,63,88,0
181.22522,181.5516,65,87,0
181.22522,181.5516,61,87,0
181.80855,181.88493,53,80,0
181.80855,181.88493,49,80,0
181.89189,182.21828,48,80,0
181.89189,182.21828,54,80,0
181.89189,182.21828,51,80,0
182.47522,182.5516,66,89,0
182.47522,182.5516,63,89,0
182.55855,182.88493,66,91,0
182.55855,182.88493,63,91,0
183.14189,183.21828,66,80,0
183.14189,183.21828,63,80,0
183.22522,183.5516,66,95,0
183.22522,183.5516,63,95,0
183.80855,183.88493,66,88,0
183.80855,183.88493,63,88,0
183.89188,184.21828,65,87,0
183.89188,184.21828,61,87,0
184.47522,184.5516,53,80,0
184.47522,184.5516,49,80,0
184.55855,184.88493,68,80,0
184.55855,184.88493,65,80,0
184.55855,184.88493,62,80,0
185.14188,185.21828,68,80,0
185.14188,185.21828,65,80,0
185.22522,185.5516,67,80,0
185.22522,185.5516,63,80,0
185.80855,185.88493,63,80,0
185.80855,185.88493,67,80,0
185.89188,186.21828,68,80,0
185.89188,186.21828,65,80,0
186.47522,186.5516,68,80,0
186.47522,186.5516,65,80,0
186.55855,186.88493,67,80,0
186.55855,186.88493,63,80,0
187.89188,188.0516,63,80,0
188.05855,188.21826,60,80,0
188.22522,188.38493,55,80,0
188.39188,188.5516,51,80,0
188.55855,188.71826,60,80,0
188.7252,188.88493,55,80,0
188.89188,189.0516,51,80,0
189.05855,189.21826,48,80,0
189.2252,189.38493,55,80,0
189.39188,189.5516,51,80,0
189.55855,189.71826,48,80,0
189.7252,189.88493,43,80,0
189.89188,190.0516,51,80,0
190.05855,190.21826,48,80,0
190.2252,190.38493,43,80,0
190.39188,190.5516,39,80,0
190.55855,190.71826,48,80,0
190.7252,190.88493,43,80,0
190.89188,191.0516,39,80,0
191.05855,191.21826,36,80,0
191.2252,191.38493,31,80,0
191.39188,191.5516,43,80,0
191.55855,191.71826,47,80,0
191.7252,191.88493,43,80,0
191.89188,192.05159,48,90,0
192.05855,192.21826,43,80,0
192.2252,192.38493,39,80,0
192.39188,192.55159,36,80,0
192.55855,192.71826,31,80,0
192.7252,192.88493,43,80,0
192.89188,193.05159,47,80,0
193.05855,193.21826,43,80,0
193.2252,193.38493,48,90,0
193.39188,193.55159,43,80,0
193.55855,193.71826,39,80,0
193.7252,193.88493,36,80,0
193.89188,194.05159,31,80,0
194.05853,194.21826,33,81,0
194.2252,194.38493,35,82,0
194.39188,194.55159,36,83,0
194.55853,194.71826,38,85,0
194.7252,194.88493,40,86,0
194.89188,195.05159,41,87,0
195.05853,195.21826,42,89,0
195.2252,195.38493,43,90,0
195.39188,195.55159,45,91,0
195.55853,195.71826,46,93,0
195.7252,195.88493,47,94,0
195.89188,196.05159,48,95,0
196.05853,196.21826,49,97,0
196.2252,196.38493,50,98,0
196.39188,196.55159,51,99,0
196.7252,196.88493,36,80,0
196.89188,197.05159,40,80,0
197.05853,197.21826,43,80,0
197.2252,197.38492,48,80,0
197.39188,197.55159,36,80,0
197.55853,197.71826,38,80,0
197.7252,197.88492,50,80,0
198.05853,198.21826,40,80,0
198.2252,198.38492,43,80,0
198.39188,198.55159,48,80,0
198.55853,198.71826,52,80,0
198.7252,198.88492,40,80,0
198.89186,199.05159,41,80,0
199.05853,199.21826,53,80,0
199.2252,199.38492,38,80,0
199.39186,199.55159,50,80,0
199.55853,199.71826,35,80,0
199.7252,199.88492,47,80,0
199.89186,200.05159,36,80,0
200.05853,200.21826,48,80,0
200.2252,200.38492,40,80,0
200.39186,200.55159,52,80,0
200.55853,200.71826,43,80,0
200.7252,200.88492,55,80,0
200.89186,201.05159,55,80,0
201.05853,201.21826,55,80,0
201.2252,201.38492,55,80,0
201.39186,201.55159,53,80,0
201.55853,201.71826,52,80,0
201.7252,201.88492,50,80,0
202.05853,202.21825,48,81,0
202.2252,202.38492,52,83,0
202.39186,202.55159,55,84,0
202.55853,202.71825,60,85,0
202.7252,202.88492,48,86,0
202.89186,203.05159,50,88,0
203.05853,203.21825,62,89,0
203.39186,203.55159,52,91,0
203.55853,203.71825,55,92,0
203.7252,203.88492,60,94,0
203.89186,204.05159,64,95,0
204.05853,204.21825,52,96,0
204.22519,204.38492,53,97,0
204.39186,204.55159,65,99,0
204.72519,204.88492,55,80,0
204.89186,205.05159,60,80,0
205.05853,205.21825,64,80,0
205.22519,205.38492,67,80,0
205.39186,205.55159,55,80,0
205.55853,205.71825,56,80,0
205.72519,205.88492,68,80,0
206.05853,206.21825,58,80,0
206.22519,206.38492,61,80,0
206.39186,206.55159,64,80,0
206.72519,206.88492,58,80,0
206.89186,207.05159,61,80,0
207.05853,207.21825,64,80,0
207.39186,207.55157,58,80,0
207.55853,207.71825,61,80,0
207.72519,207.88492,64,100,0
208.05853,208.21825,58,100,0
208.22519,208.38492,61,100,0
208.39186,208.55157,64,100,0
208.72519,208.88492,58,100,0
208.89186,209.05157,61,80,0
209.05852,209.21825,64,80,0
209.39186,209.55157,58,80,0
209.55852,209.71825,61,80,0
209.72519,209.88492,64,80,0
210.05852,210.21825,58,80,0
210.22519,210.38492,61,80,0
210.39186,210.55157,64,100,0
210.72519,210.88492,58,100,0
210.89186,211.05157,61,100,0
211.05852,211.21825,64,100,0
211.39186,211.55157,58,100,0
211.55852,211.71825,61,80,0
211.72519,211.88492,63,80,0
212.05852,212.21825,58,80,0
212.22519,212.3849,61,80,0
212.39186,212.55157,64,80,0
212.72519,212.8849,58,80,0
212.89186,213.05157,61,80,0
213.05852,213.21825,63,80,0
213.39186,213.55157,58,80,0
213.55852,213.71825,61,80,0
213.72519,213.8849,64,80,0
214.05852,214.21825,61,80,0
214.05852,214.21825,58,80,0
214.05852,214.21825,63,80,0
215.39185,215.55157,39,80,0
216.72519,216.8849,39,80,0
216.89185,217.05157,58,80,0
217.05852,217.21825,56,80,0
217.22519,217.3849,55,80,0
217.39185,217.55157,53,80,0
217.55852,217.71823,51,80,0
217.72519,217.8849,50,80,0
217.89185,218.05157,51,80,0
218.05852,218.21823,39,80,0
218.22519,218.3849,61,80,0
218.39185,218.55157,60,80,0
218.55852,218.71823,58,80,0
218.72519,218.8849,56,80,0
218.89185,219.05157,55,80,0
219.05852,219.21823,53,80,0
219.22517,219.3849,51,80,0
219.39185,219.55157,39,80,0
219.55852,219.71823,61,80,0
219.72517,219.8849,60,80,0
219.89185,220.05157,58,80,0
220.05852,220.21823,56,80,0
220.22517,220.3849,55,80,0
220.39185,220.55157,53,80,0
220.55852,220.71823,51,80,0
220.72517,220.8849,50,80,0
220.89185,221.05157,49,80,0
221.05852,221.21823,48,80,0
221.22517,221.3849,46,80,0
221.39185,221.55157,44,80,0
221.55852,221.71823,43,80,0
221.72517,221.8849,41,80,0
223.39185,223.55156,50,80,0
223.55852,223.71823,49,80,0
223.72517,223.8849,48,80,0
223.89185,224.05156,46,80,0
224.05852,224.21823,44,80,0
224.22517,224.3849,43,80,0
224.39185,224.55156,41,80,0
224.5585,224.8849,40,80,0
224.89185,225.21823,39,80,0
225.22517,225.55156,38,80,0
225.5585,225.8849,37,80,0
225.89185,226.25903,36,80,0
226.26685,226.63403,35,80,0
226.64185,227.00903,34,80,0
227.01685,227.38403,33,80,0
227.5585,227.71823,32,80,0
227.72517,227.8849,36,80,0
227.89185,228.05156,39,80,0
228.0585,228.21823,44,80,0
228.22517,228.3849,32,80,0
228.39185,228.55156,34,80,0
228.5585,228.71823,46,80,0
228.89185,229.05156,36,80,0
229.0585,229.21823,39,80,0
229.22517,229.38489,44,80,0
229.39185,229.55156,48,80,0
229.5585,229.71823,36,80,0
229.72517,229.88489,37,80,0
229.89185,230.05156,49,80,0
230.0585,230.21823,34,80,0
230.22517,230.38489,46,80,0
230.39185,230.55156,31,80,0
230.5585,230.71823,43,80,0
230.72517,230.88489,32,80,0
230.89183,231.05156,44,80,0
231.0585,231.21823,36,80,0
231.22517,231.38489,48,80,0
231.39183,231.55156,39,80,0
231.5585,231.71823,51,80,0
231.72517,231.88489,51,80,0
231.89183,232.05156,51,80,0
232.0585,232.21823,51,80,0
232.22517,232.38489,49,80,0
232.39183,232.55156,48,80,0
232.5585,232.71823,46,80,0
232.72517,232.88489,44,80,0
232.89183,233.05156,32,80,0
233.0585,233.21823,36,80,0
233.22517,233.38489,39,80,0
233.39183,233.55156,44,80,0
233.5585,233.71823,32,80,0
233.72517,233.88489,34,80,0
233.89183,234.05156,46,80,0
234.22517,234.38489,36,80,0
234.39183,234.55156,39,80,0
234.5585,234.71822,44,80,0
234.72517,234.88489,48,80,0
234.89183,235.05156,36,80,0
235.0585,235.21822,37,80,0
235.22517,235.38489,49,80,0
235.39183,235.55156,34,80,0
235.5585,235.71822,46,80,0
235.72517,235.88489,31,80,0
235.89183,236.05156,43,80,0
236.0585,236.21822,32,80,0
236.22516,236.38489,44,80,0
236.39183,236.55156,36,80,0
236.5585,236.71822,48,80,0
236.72516,236.88489,39,80,0
236.89183,237.05156,39,80,0
237.0585,237.21822,43,80,0
237.22516,237.38489,39,80,0
237.39183,237.71822,44,80,0
237.39183,237.71822,32,80,0
237.72516,238.05156,68,80,0
237.72516,238.05156,56,80,0
238.0585,238.71822,67,80,0
238.0585,238.71822,63,80,0
238.72516,239.05156,68,80,0
238.72516,239.05156,56,80,0
239.0585,239.38489,60,70,0
239.39183,239.96822,58,70,0
239.97516,240.05154,56,70,0
240.0585,240.30154,55,70,0
240.39183,240.63489,53,70,0
240.72516,241.38489,52,70,0
241.72516,241.88489,53,70,0
241.80849,241.96822,55,70,0
241.89183,242.05154,52,70,0
241.97516,242.05154,53,70,0
242.05849,242.63489,55,70,0
242.64183,242.71822,53,70,0
242.72516,243.05154,52,70,0
243.05849,243.30154,50,70,0
243.39183,244.05154,48,70,0
244.64183,244.71822,48,70,0
244.72516,245.07074,48,70,0
245.3428,245.42369,48,70,0
245.43105,245.77663,48,70,0
246.04869,246.12956,48,70,0
246.13692,246.83545,48,70,0
247.46045,247.54134,49,70,0
247.54869,247.89427,49,71,0
248.16634,248.24721,49,84,0
248.25456,248.60016,49,85,0
248.87221,248.9531,49,98,0
248.96045,249.65898,49,99,0
250.28398,250.36487,49,110,0
250.37221,251.1144,49,110,0
251.12221,251.54185,46,110,0
251.55078,251.97043,43,110,0
251.97935,254.87717,39,110,0
255.38411,255.54384,32,80,0
255.55078,255.7105,36,80,0
255.71745,255.87717,39,80,0
255.88411,256.04382,44,80,0
256.05078,256.2105,43,80,0
256.21744,256.37717,44,80,0
256.38412,256.54382,46,80,0
256.55078,256.7105,48,80,0
256.71744,256.87717,36,80,0
256.88412,257.04382,39,80,0
257.05078,257.2105,44,80,0
257.21744,257.37717,48,80,0
257.38412,257.54382,47,80,0
257.55078,257.7105,48,80,0
257.71744,257.87717,49,80,0
257.88412,258.04382,34,80,0
258.05078,258.2105,46,80,0
258.21744,258.37717,31,80,0
258.38412,258.54382,43,80,0
258.55078,258.7105,32,80,0
258.71744,258.87717,44,80,0
258.88412,259.04382,36,80,0
259.05078,259.2105,48,80,0
259.21744,259.37717,39,80,0
259.38412,259.54382,51,80,0
259.55078,259.7105,51,80,0
259.71744,259.87717,51,80,0
259.88412,260.04382,51,80,0
260.05078,260.2105,49,80,0
260.21744,260.37717,48,80,0
260.3841,260.54382,46,80,0
260.55078,260.7105,44,80,0
260.71744,260.87717,32,80,0
260.8841,261.04382,44,80,0
261.05078,261.2105,43,80,0
261.21744,261.37717,44,80,0
261.3841,261.54382,43,80,0
261.55078,261.7105,44,80,0
261.71744,261.87717,46,80,0
261.8841,262.04382,48,80,0
262.05078,262.2105,36,80,0
262.21744,262.37717,48,80,0
262.3841,262.54382,47,80,0
262.55078,262.7105,48,80,0
262.71744,262.87717,47,80,0
262.8841,263.04382,48,80,0
263.05078,263.2105,49,80,0
263.21744,263.37717,34,80,0
263.3841,263.54382,46,80,0
263.55078,263.71048,31,80,0
263.71744,263.87717,43,80,0
263.8841,264.04382,32,80,0
264.05078,264.21048,44,80,0
264.21744,264.37717,36,80,0
264.3841,264.54382,48,80,0
264.55078,264.71048,39,80,0
264.71744,264.87717,39,80,0
264.8841,265.04382,43,80,0
265.05078,265.21048,39,80,0
265.21744,265.54382,44,80,0
265.21744,265.54382,32,80,0
265.55078,265.87717,68,80,0
265.55078,265.87717,56,80,0
265.8841,266.54382,67,80,0
265.8841,266.54382,63,80,0
266.55078,266.87717,68,80,0
266.55078,266.87717,56,80,0
266.8841,267.21048,72,70,0
267.21744,267.79382,70,70,0
267.80078,267.87717,68,70,0
267.8841,268.12717,67,70,0
268.21744,268.46048,65,70,0
268.55078,269.21048,64,70,0
269.55078,269.71048,65,70,0
269.6341,269.79382,67,70,0
269.71744,269.87717,64,70,0
269.80078,269.87717,65,70,0
269.8841,270.46048,67,70,0
270.46744,270.54382,65,70,0
270.55075,270.8884,64,70,0
270.8956,271.14703,62,70,0
271.24042,271.92288,60,70,0
272.53354,272.61255,60,70,0
272.61972,272.96942,60,70,0
273.24472,273.32657,60,70,0
273.334,273.68372,60,70,0
273.959,274.04086,60,70,0
274.0483,274.75516,60,70,0
275.36972,275.4461,49,120,0
275.36972,275.4461,37,120,0
275.45306,275.77945,49,120,0
275.45306,275.77945,37,120,0
275.7864,275.9461,58,80,0
275.95306,276.1128,61,80,0
276.11972,276.27945,59,80,0
276.2864,276.4461,61,80,0
276.45306,276.6128,56,80,0
276.61972,276.77945,61,80,0
276.7864,276.9461,58,80,0
276.95306,277.1128,61,80,0
277.11972,277.27945,58,80,0
277.2864,277.4461,61,80,0
277.45306,277.6128,59,80,0
277.61972,277.77945,61,80,0
277.78638,277.9461,56,80,0
277.95306,278.1128,61,80,0
278.11972,278.4461,58,80,0
278.61972,278.77945,54,80,0
278.78638,278.9461,58,80,0
278.95306,279.1128,61,80,0
279.11972,279.27945,66,80,0
279.28638,279.4461,61,80,0
279.45306,279.6128,66,80,0
279.61972,279.77945,68,80,0
279.78638,279.9461,70,80,0
279.95306,280.1128,68,80,0
280.11972,280.27945,66,80,0
280.28638,280.4461,68,80,0
280.45306,280.6128,66,80,0
280.61972,280.77945,65,80,0
280.78638,281.11276,51,120,0
280.78638,281.11276,39,120,0
281.11972,281.27945,55,80,0
281.28638,281.4461,58,80,0
281.45306,281.61276,56,80,0
281.61972,281.77945,59,80,0
281.78638,281.9461,53,80,0
281.95306,282.11276,56,80,0
282.11972,282.27945,55,80,0
282.28638,282.4461,58,80,0
282.45306,282.61276,55,80,0
282.61972,282.77945,58,80,0
282.78638,282.9461,56,80,0
282.95306,283.11276,59,80,0
283.11972,283.27945,53,80,0
283.28638,283.4461,56,80,0
283.45306,283.61276,58,80,0
283.45306,283.61276,55,80,0
283.95306,284.11276,51,80,0
284.11972,284.27945,55,80,0
284.28638,284.4461,58,80,0
284.45306,284.61276,61,80,0
284.61972,284.77945,58,80,0
284.78638,284.9461,61,80,0
284.95306,285.11276,64,80,0
285.11972,285.27945,67,80,0
285.28638,285.4461,64,80,0
285.45306,285.61276,67,80,0
285.61972,285.77945,70,80,0
285.78638,285.9461,73,80,0
286.03638,286.11276,76,80,0
286.03638,286.11276,73,80,0
286.11972,286.4461,76,80,0
286.11972,286.4461,73,80,0
286.70306,286.77945,76,86,0
286.70306,286.77945,73,86,0
286.78638,287.11276,76,87,0
286.78638,287.11276,73,87,0
287.36972,287.4461,76,93,0
287.36972,287.4461,73,93,0
287.45306,287.77945,76,94,0
287.45306,287.77945,73,94,0
288.03638,288.11276,76,80,0
288.03638,288.11276,73,80,0
288.11972,288.4461,75,95,0
288.11972,288.4461,72,95,0
288.70303,288.77945,63,80,0
288.70303,288.77945,60,80,0
288.78638,289.11276,64,80,0
288.78638,289.11276,61,80,0
289.36972,289.4461,64,86,0
289.36972,289.4461,61,86,0
289.45303,289.77945,64,87,0
289.45303,289.77945,61,87,0
290.03638,290.11276,64,93,0
290.03638,290.11276,61,93,0
290.11972,290.4461,64,94,0
290.11972,290.4461,61,94,0
290.70303,290.77945,64,80,0
290.70303,290.77945,61,80,0
290.78638,291.11276,63,95,0
290.78638,291.11276,60,95,0
291.36972,291.4461,63,80,0
291.36972,291.4461,60,80,0
291.45303,291.77942,64,80,0
291.45303,291.77942,61,80,0
292.03638,292.11276,64,80,0
292.03638,292.11276,61,80,0
292.11972,292.4461,63,80,0
292.11972,292.4461,60,80,0
292.70303,292.77942,63,80,0
292.70303,292.77942,60,80,0
292.78638,293.11276,64,80,0
292.78638,293.11276,61,80,0
293.36972,293.4461,64,80,0
293.36972,293.4461,61,80,0
293.45303,293.77942,63,80,0
293.45303,293.77942,60,80,0
294.03638,294.11276,48,80,0
294.11972,294.4461,49,80,0
294.70303,294.77942,37,80,0
294.78638,295.11276,39,80,0
295.36972,295.4461,39,80,0
295.45303,295.61276,32,70,0
295.61972,295.77942,51,70,0
295.78638,295.9461,56,70,0
295.95303,296.11276,51,70,0
296.11972,296.27942,56,70,0
296.28638,296.4461,51,70,0
296.45303,296.61276,56,70,0
296.61972,296.77942,51,70,0
296.78638,296.9461,60,70,0
296.78638,296.9461,56,70,0
296.95303,297.11276,56,70,0
296.95303,297.11276,51,70,0
297.11972,297.27942,60,70,0
297.11972,297.27942,56,70,0
297.28638,297.4461,56,70,0
297.28638,297.4461,51,70,0
297.45303,297.61276,61,70,0
297.45303,297.61276,58,70,0
297.61972,297.77942,58,70,0
297.61972,297.77942,51,70,0
297.78638,297.9461,61,70,0
297.78638,297.9461,58,70,0
297.95303,298.11276,58,70,0
297.95303,298.11276,51,70,0
298.1197,298.27942,32,70,0
298.28638,298.4461,51,70,0
298.28638,298.4461,56,70,0
298.45303,298.61276,56,70,0
298.45303,298.61276,60,70,0
298.6197,298.77942,51,70,0
298.6197,298.77942,56,70,0
298.78638,298.9461,56,70,0
298.78638,298.9461,60,70,0
298.95303,299.11276,51,70,0
298.95303,299.11276,56,70,0
299.1197,299.27942,56,70,0
299.1197,299.27942,60,70,0
299.28638,299.4461,51,70,0
299.28638,299.4461,56,70,0
299.45303,299.61276,60,70,0
299.45303,299.61276,56,70,0
299.6197,299.77942,56,70,0
299.6197,299.77942,51,70,0
299.78638,299.9461,60,70,0
299.78638,299.9461,56,70,0
299.95303,300.11276,56,70,0
299.95303,300.11276,51,70,0
300.1197,300.27942,61,70,0
300.1197,300.27942,58,70,0
300.28638,300.4461,58,70,0
300.28638,300.4461,51,70,0
300.45303,300.61276,61,70,0
300.45303,300.61276,58,70,0
300.6197,300.77942,58,70,0
300.6197,300.77942,51,70,0
300.78638,300.9461,44,70,0
300.95303,301.11276,56,70,0
300.95303,301.11276,51,70,0
301.1197,301.27942,60,70,0
301.1197,301.27942,56,70,0
301.28638,301.44608,56,70,0
301.28638,301.44608,51,70,0
301.45303,301.61276,61,70,0
301.45303,301.61276,58,70,0
301.6197,301.77942,58,70,0
301.6197,301.77942,51,70,0
301.78638,301.94608,61,70,0
301.78638,301.94608,58,70,0
301.95303,302.11276,58,70,0
301.95303,302.11276,51,70,0
302.1197,302.27942,44,70,0
302.28638,302.44608,56,70,0
302.28638,302.44608,51,70,0
302.45303,302.61276,60,70,0
302.45303,302.61276,56,70,0
302.6197,302.77942,56,70,0
302.6197,302.77942,51,70,0
302.78638,302.94608,61,70,0
302.78638,302.94608,58,70,0
302.95303,303.11276,58,70,0
302.95303,303.11276,51,70,0
303.1197,303.27942,61,70,0
303.1197,303.27942,58,70,0
303.28638,303.44608,58,70,0
303.28638,303.44608,51,70,0
303.45303,303.77942,60,80,0
303.45303,303.77942,56,80,0
304.78638,304.94608,56,80,0
304.95303,305.11276,60,80,0
305.1197,305.27942,51,80,0
305.28638,305.44608,56,80,0
305.45303,305.61276,48,80,0
305.6197,305.77942,51,80,0
305.78638,305.94608,49,80,0
305.95303,306.11276,46,80,0
306.1197,306.27942,44,80,0
306.28638,306.44608,47,80,0
306.45303,306.61276,48,80,0
306.6197,306.77942,43,80,0
306.78638,306.94608,44,80,0
306.95303,307.11276,40,80,0
307.1197,307.27942,41,80,0
307.28638,307.44608,36,80,0
307.45303,307.61276,37,80,0
307.6197,307.77942,48,80,0
307.78638,307.94608,49,80,0
307.95303,308.11276,45,80,0
308.1197,308.27942,46,80,0
308.28635,308.44608,42,80,0
308.45303,308.61276,43,80,0
308.6197,308.77942,38,80,0
308.78635,308.94608,39,80,0
308.95303,309.11276,41,81,0
309.1197,309.27942,43,82,0
309.28635,309.44608,44,83,0
309.45303,309.61276,46,85,0
309.6197,309.77942,48,86,0
309.78635,309.94608,49,87,0
309.95303,310.11276,51,89,0
310.1197,310.27942,53,90,0
310.28635,310.44608,55,91,0
310.45303,310.61276,56,93,0
310.6197,310.77942,58,94,0
310.78635,310.94608,60,95,0
310.95303,311.11276,55,97,0
311.1197,311.27942,56,98,0
311.28635,311.44608,52,99,0
311.45303,311.61273,53,95,0
311.6197,311.77942,48,93,0
311.78635,311.94608,49,91,0
311.95303,312.11273,45,89,0
312.1197,312.27942,46,87,0
312.28635,312.44608,48,85,0
312.45303,312.61273,49,83,0
312.6197,312.77942,50,81,0
312.78635,313.124,51,80,0
313.476,313.81366,39,80,0
314.16568,314.5239,32,80,0
314.89737,315.2556,63,70,0
314.89737,315.2556,51,70,0
315.6291,316.0156,56,70,0
315.6291,316.0156,44,70,0
316.41855,316.80505,51,70,0
316.41855,316.80505,39,70,0
316.8133,317.4383,51,70,0
316.8133,317.4383,39,70,0
317.4516,318.71487,44,70,0
317.4516,318.71487,32,70,0
