start_time,end_time,note_value,velocity,instrument_program_number
1.444443,1.5532392,82,80,0
1.555554,1.7754612,82,80,0
1.777776,1.8865722,80,80,0
1.888887,2.1087942,77,80,0
2.111109,2.2199051,74,80,0
2.22222,2.4421272,75,80,0
2.777775,2.8865712,70,80,0
2.888886,3.1087933,70,80,0
3.111108,3.2199042,68,80,0
3.222219,3.4421263,65,80,0
3.444441,3.5532372,62,80,0
3.555552,3.7754593,63,80,0
3.555552,3.7754593,55,80,0
5.444439,5.553235,82,80,0
5.55555,5.7754574,82,80,0
5.777772,5.886568,80,80,0
5.888883,6.1087904,77,80,0
6.111105,6.219901,74,80,0
6.222216,6.4421234,75,80,0
6.777771,6.886567,70,80,0
6.888882,7.108789,70,80,0
7.111104,7.2199,68,80,0
7.222215,7.442122,65,80,0
7.444437,7.553233,62,80,0
7.555548,7.775455,63,80,0
7.555548,7.775455,55,80,0
7.888881,8.1087885,58,110,0
8.111103,8.219899,58,110,0
8.222214,8.4421215,63,110,0
8.222214,8.4421215,55,110,0
8.444436,8.553232,63,110,0
8.555547,8.7754545,58,110,0
8.777769,8.886565,58,110,0
8.88888,9.108788,63,110,0
8.88888,9.108788,55,110,0
9.111102,9.219898,63,110,0
9.222213,9.442121,58,110,0
9.444435,9.553231,58,110,0
9.555546,9.775454,63,110,0
9.555546,9.775454,55,110,0
9.777768,9.886564,63,110,0
9.888879,10.108787,58,110,0
10.111101,10.219897,58,110,0
10.222212,10.44212,65,110,0
10.222212,10.44212,62,110,0
10.444434,10.55323,65,110,0
10.444434,10.55323,62,110,0
10.555545,10.775453,58,110,0
10.777767,10.886563,58,110,0
10.888878,11.108786,65,110,0
10.888878,11.108786,62,110,0
11.1111,11.219896,65,110,0
11.1111,11.219896,62,110,0
11.222211,11.442119,58,110,0
11.444433,11.553229,58,110,0
11.555544,11.775452,65,110,0
11.555544,11.775452,62,110,0
11.777766,11.886562,65,110,0
11.777766,11.886562,62,110,0
11.888877,12.108784,58,110,0
12.111099,12.219895,58,110,0
12.22221,12.442117,65,110,0
12.22221,12.442117,62,110,0
12.444432,12.553228,65,110,0
12.444432,12.553228,62,110,0
12.555543,12.77545,58,110,0
12.777765,12.886561,58,110,0
12.888876,13.108783,67,110,0
12.888876,13.108783,63,110,0
13.111098,13.219894,67,110,0
13.222209,13.442116,63,80,0
13.444431,13.553227,63,80,0
13.555542,13.775449,68,80,0
13.777764,13.88656,68,80,0
13.888875,14.108782,72,80,0
14.111097,14.219893,72,80,0
14.222208,14.442115,70,80,0
14.44443,14.553226,70,80,0
14.555541,14.775448,75,80,0
14.777763,14.8865595,75,80,0
14.888874,15.108781,80,80,0
15.111096,15.2198925,80,80,0
15.222207,15.442114,84,80,0
15.444429,15.5532255,84,80,0
15.55554,15.775447,82,80,0
15.777762,15.886559,70,80,0
15.888873,16.10878,63,80,0
16.111095,16.21989,63,80,0
16.222206,16.442114,68,80,0
16.444427,16.553225,68,80,0
16.555538,16.775446,72,80,0
16.777761,16.886557,72,80,0
16.888872,17.10878,70,80,0
17.111094,17.21989,67,80,0
17.222204,17.442112,65,80,0
17.444427,17.553223,68,80,0
17.555538,17.775446,63,80,0
17.77776,17.886557,67,80,0
17.88887,18.108778,62,80,0
18.111094,18.219889,65,80,0
18.222204,18.442112,63,80,0
18.555536,18.775444,63,80,0
18.77776,18.886555,63,80,0
18.88887,19.108778,68,80,0
19.111092,19.219889,68,80,0
19.222202,19.44211,71,80,0
19.444426,19.55322,71,80,0
19.555536,19.775444,70,80,0
19.777758,19.886555,70,80,0
19.888868,20.108776,75,80,0
20.111092,20.219887,75,80,0
20.222202,20.44211,80,80,0
20.444424,20.55322,80,80,0
20.555534,20.775442,83,80,0
20.777758,20.886553,83,80,0
20.888868,21.108776,82,80,0
21.11109,21.219887,70,80,0
21.2222,21.442108,63,80,0
21.444424,21.553219,63,87,0
21.555534,21.775442,68,91,0
21.777756,21.886553,68,98,0
21.888866,22.108774,72,102,0
22.11109,22.219885,72,109,0
22.2222,23.219885,65,110,0
22.555532,23.219885,77,110,0
23.222198,23.442106,77,110,0
23.555532,23.775438,77,110,0
23.888865,24.108772,77,110,0
24.222198,24.442104,77,110,0
24.55553,24.775438,77,110,0
24.888865,25.886549,77,110,0
25.222197,25.886549,89,110,0
25.888863,26.10877,89,110,0
25.888863,26.10877,77,110,0
26.222197,26.442102,89,110,0
26.222197,26.442102,77,110,0
26.555529,26.775436,89,110,0
26.555529,26.775436,77,110,0
26.888863,27.108768,89,110,0
26.888863,27.108768,77,110,0
27.222195,27.442102,89,110,0
27.222195,27.442102,77,110,0
27.555529,27.775434,89,110,0
27.555529,27.775434,77,110,0
27.77775,27.886547,81,110,0
27.88886,27.997658,82,110,0
27.999971,28.108768,84,110,0
28.111082,28.21988,86,110,0
28.444416,28.553213,78,110,0
28.555527,28.664324,79,110,0
28.666637,28.775434,81,110,0
28.777748,28.886545,82,110,0
29.111082,29.219877,74,110,0
29.222193,29.33099,75,110,0
29.333303,29.4421,77,110,0
29.444414,29.553211,79,110,0
29.777748,29.886543,71,110,0
29.888859,29.997656,72,110,0
29.99997,30.108767,74,110,0
30.11108,30.219877,75,110,0
30.333303,30.442099,60,110,0
30.444414,30.55321,63,110,0
30.555525,30.664322,67,110,0
30.666636,30.775433,63,110,0
30.777746,30.886543,67,110,0
30.888859,30.997654,72,110,0
30.99997,31.108765,67,110,0
31.11108,31.219875,72,110,0
31.22219,31.330988,75,110,0
31.333302,31.442099,72,110,0
31.444412,31.55321,75,110,0
31.555525,31.66432,79,110,0
31.666636,31.77543,77,110,0
31.777746,31.886541,75,110,0
31.888857,31.997654,74,110,0
31.999968,32.108765,75,110,0
32.11108,32.219875,72,110,0
32.22219,32.330986,77,110,0
32.3333,32.442097,74,110,0
32.444412,32.553207,70,110,0
32.555523,32.664318,75,110,0
32.666634,32.77543,72,110,0
32.777744,32.88654,69,110,0
32.999966,33.108765,89,110,0
33.111076,33.219875,81,110,0
33.22219,33.330986,82,110,0
33.3333,33.442097,84,110,0
33.444412,33.553207,86,110,0
33.666634,33.77543,86,110,0
33.777744,33.88654,78,110,0
33.888855,33.99765,79,110,0
33.999966,34.10876,81,110,0
34.111076,34.21987,82,110,0
34.333298,34.442097,82,110,0
34.44441,34.553207,74,110,0
34.55552,34.664318,75,110,0
34.666634,34.77543,77,110,0
34.777744,34.88654,79,110,0
34.999966,35.10876,79,110,0
35.111076,35.21987,71,110,0
35.222187,35.330982,72,110,0
35.333298,35.442093,74,110,0
35.44441,35.553204,75,110,0
35.66663,35.77543,55,110,0
35.77774,35.88654,60,110,0
35.88885,35.99765,63,110,0
35.999966,36.10876,60,110,0
36.111076,36.21987,63,110,0
36.222187,36.330982,67,110,0
36.333298,36.442093,60,110,0
36.44441,36.553204,63,110,0
36.55552,36.664314,67,110,0
36.66663,36.775425,63,110,0
36.77774,36.886536,67,110,0
36.88885,36.997646,72,110,0
36.99996,37.10876,63,110,0
37.111073,37.21987,67,110,0
37.222183,37.330982,72,110,0
37.333298,37.442093,67,110,0
37.44441,37.553204,72,110,0
37.55552,37.664314,75,110,0
37.66663,37.775425,67,110,0
37.77774,37.886536,72,110,0
37.88885,37.997646,75,110,0
37.99996,38.108757,72,110,0
38.111073,38.219868,75,110,0
38.222183,38.33098,79,110,0
38.333294,38.442093,67,110,0
38.444405,38.553204,72,110,0
38.555515,38.664314,75,110,0
38.66663,38.775425,72,110,0
38.77774,38.886536,75,110,0
38.88885,38.997646,79,110,0
38.99996,39.108757,67,110,0
39.111073,39.219868,72,110,0
39.222183,39.33098,75,110,0
39.333294,39.44209,72,110,0
39.444405,39.5532,75,110,0
39.555515,39.66431,79,110,0
39.666626,39.775425,67,110,0
39.777737,39.886536,66,110,0
39.888847,39.997646,67,110,0
39.99996,40.108757,68,110,0
40.111073,40.219868,69,110,0
40.222183,40.33098,70,110,0
40.333294,40.44209,71,110,0
40.444405,40.5532,72,110,0
40.555515,40.66431,73,110,0
40.666626,40.77542,74,110,0
40.777737,40.88653,75,110,0
40.888847,40.997643,76,110,0
40.999958,41.108757,77,110,0
41.11107,41.219868,78,110,0
41.22218,41.33098,79,110,0
41.33329,41.44209,75,110,0
41.444405,41.5532,72,110,0
41.555515,41.77542,70,110,0
41.888847,41.997643,72,110,0
41.9444,42.0532,74,110,0
41.999958,42.108753,72,110,0
42.055515,42.16431,74,110,0
42.11107,42.219864,70,110,0
42.166626,42.219864,72,110,0
42.22218,42.44209,70,100,0
42.4444,42.5532,70,80,0
42.55551,42.77542,74,80,0
42.777737,42.88653,74,80,0
42.888847,43.108753,77,80,0
43.11107,43.219864,77,80,0
43.22218,43.442085,82,80,0
43.4444,43.553196,82,80,0
43.55551,43.775417,86,80,0
43.777733,43.88653,86,80,0
43.888844,44.108753,89,80,0
44.11107,44.219864,82,80,0
44.22218,44.442085,86,80,0
44.4444,44.553196,77,80,0
44.55551,44.775417,82,80,0
44.777733,44.886528,74,80,0
44.888844,45.10875,77,80,0
45.111065,45.219864,70,80,0
45.222176,45.442085,74,80,0
45.4444,45.553196,72,80,0
45.55551,45.775417,75,80,0
45.777733,45.886528,69,80,0
45.888844,46.10875,72,80,0
46.111065,46.21986,69,80,0
46.222176,46.44208,70,80,0
46.444397,46.553196,70,80,0
46.555508,46.775417,74,80,0
46.777733,46.886528,74,80,0
46.888844,47.10875,77,80,0
47.111065,47.21986,77,80,0
47.222176,47.44208,82,80,0
47.444397,47.553192,82,80,0
47.555508,47.775414,86,80,0
47.77773,47.886528,86,80,0
47.88884,48.10875,89,80,0
48.11106,48.21986,82,80,0
48.222176,48.44208,86,80,0
48.444397,48.553192,77,80,0
48.555508,48.775414,82,80,0
48.77773,48.886524,74,80,0
48.88884,49.108746,77,80,0
49.11106,49.21986,70,80,0
49.22217,49.44208,74,80,0
49.444393,49.553192,65,80,0
49.555508,49.775414,70,80,0
49.77773,49.886524,62,80,0
49.88884,50.108746,65,80,0
50.11106,50.219856,58,80,0
50.22217,50.442078,62,80,0
50.444393,50.55319,53,120,0
50.555504,50.775414,58,120,0
50.777725,50.886524,50,120,0
50.88884,51.108746,53,120,0
51.11106,51.219856,52,120,0
51.22217,51.442078,55,120,0
51.555504,52.6643,50,120,0
51.444393,52.6643,53,120,0
51.555504,52.6643,56,120,0
54.111057,54.219852,82,80,0
54.222168,54.442074,82,80,0
54.44439,54.553185,80,80,0
54.5555,54.77541,77,80,0
54.77772,54.88652,74,80,0
54.888836,55.10874,75,80,0
55.44439,55.553185,70,80,0
55.5555,55.775406,70,80,0
55.77772,55.886517,68,80,0
55.888832,56.10874,65,80,0
56.111053,56.219852,62,80,0
56.222164,56.442074,63,80,0
56.222164,56.442074,55,80,0
58.111053,58.21985,82,80,0
58.222164,58.44207,82,80,0
58.444386,58.55318,80,80,0
58.555496,58.775406,77,80,0
58.777718,58.886517,74,80,0
58.88883,59.108738,75,80,0
59.444386,59.55318,70,80,0
59.555496,59.775402,70,80,0
59.777718,59.886513,68,80,0
59.88883,60.108738,65,80,0
60.11105,60.21985,62,80,0
60.22216,60.44207,63,80,0
60.22216,60.44207,55,80,0
60.555496,60.775402,58,110,0
60.777718,60.886513,58,110,0
60.88883,61.108734,63,110,0
60.88883,61.108734,55,110,0
61.11105,61.219845,63,110,0
61.22216,61.44207,58,110,0
61.44438,61.55318,58,110,0
61.555492,61.775402,63,110,0
61.555492,61.775402,55,110,0
61.777718,61.886513,63,110,0
61.88883,62.108734,58,110,0
62.11105,62.219845,58,110,0
62.22216,62.442066,63,110,0
62.22216,62.442066,55,110,0
62.44438,62.553177,63,110,0
62.555492,62.775402,58,110,0
62.777714,62.886513,58,110,0
62.888824,63.108734,65,110,0
62.888824,63.108734,62,110,0
63.11105,63.219845,65,110,0
63.11105,63.219845,62,110,0
63.22216,63.442066,58,110,0
63.44438,63.553177,58,110,0
63.555492,63.7754,65,110,0
63.555492,63.7754,62,110,0
63.777714,63.88651,65,110,0
63.777714,63.88651,62,110,0
63.888824,64.108734,58,110,0
64.111046,64.21984,58,110,0
64.22216,64.44206,65,110,0
64.22216,64.44206,62,110,0
64.44438,64.55318,65,110,0
64.44438,64.55318,62,110,0
64.55549,64.7754,58,110,0
64.77771,64.88651,58,110,0
64.888824,65.108734,65,110,0
64.888824,65.108734,62,110,0
65.111046,65.21984,65,110,0
65.111046,65.21984,62,110,0
65.22216,65.44206,58,110,0
65.44438,65.55318,58,110,0
65.55549,65.7754,67,110,0
65.55549,65.7754,63,110,0
65.77771,65.886505,67,110,0
65.888824,66.10873,63,80,0
66.111046,66.21984,63,80,0
66.22215,66.44206,68,80,0
66.44438,66.55318,68,80,0
66.55549,66.7754,72,80,0
66.77771,66.886505,72,80,0
66.888824,67.10873,70,80,0
67.111046,67.21984,70,80,0
67.22215,67.44206,75,80,0
67.444374,67.55318,75,80,0
67.55549,67.7754,80,80,0
67.77771,67.886505,80,80,0
67.888824,68.10873,84,80,0
68.111046,68.21984,84,80,0
68.22215,68.44206,82,80,0
68.444374,68.55317,70,80,0
68.55549,68.77539,63,80,0
68.77771,68.886505,63,80,0
68.88882,69.10873,68,80,0
69.11104,69.21984,68,80,0
69.22215,69.44206,72,80,0
69.444374,69.55317,72,80,0
69.55549,69.77539,70,80,0
69.77771,69.886505,67,80,0
69.88882,70.10873,65,80,0
70.11104,70.21983,68,80,0
70.22215,70.44206,63,80,0
70.444374,70.55317,67,80,0
70.55549,70.77539,62,80,0
70.77771,70.886505,65,80,0
70.88882,71.10873,63,80,0
71.22215,71.442055,63,80,0
71.444374,71.55317,63,80,0
71.55548,71.77539,68,80,0
71.7777,71.886505,68,80,0
71.88882,72.10873,71,80,0
72.11104,72.21983,71,80,0
72.22215,72.442055,70,80,0
72.444374,72.55317,70,80,0
72.55548,72.77539,75,80,0
72.7777,72.8865,75,80,0
72.88882,73.10873,80,80,0
73.11104,73.21983,80,80,0
73.22215,73.442055,83,80,0
73.444374,73.55317,83,80,0
73.55548,73.77539,82,80,0
73.7777,73.8865,70,80,0
73.88882,74.10872,63,80,0
74.11104,74.21983,63,87,0
74.222145,74.442055,68,91,0
74.44437,74.55317,68,98,0
74.55548,74.77539,72,102,0
74.7777,74.8865,72,109,0
74.88882,75.8865,65,110,0
75.222145,75.8865,77,110,0
75.88881,76.10872,77,110,0
76.222145,76.442055,77,110,0
76.55548,76.77538,77,110,0
76.88881,77.10872,77,110,0
77.222145,77.442055,77,110,0
77.55548,78.55316,77,110,0
77.88881,78.55316,89,110,0
78.55547,78.77538,89,110,0
78.55547,78.77538,77,110,0
78.88881,79.10872,89,110,0
78.88881,79.10872,77,110,0
79.222145,79.44205,89,110,0
79.222145,79.44205,77,110,0
79.55547,79.77538,89,110,0
79.55547,79.77538,77,110,0
79.88881,80.10872,89,110,0
79.88881,80.10872,77,110,0
80.222145,80.44205,89,110,0
80.222145,80.44205,77,110,0
80.44437,80.55316,81,110,0
80.55547,80.66427,82,110,0
80.66659,80.77538,84,110,0
80.777695,80.88649,86,110,0
81.11103,81.219826,78,110,0
81.22214,81.33094,79,110,0
81.33325,81.44205,81,110,0
81.44437,81.55316,82,110,0
81.777695,81.88649,74,110,0
81.88881,81.997604,75,110,0
81.999916,82.10871,77,110,0
82.11103,82.219826,79,110,0
82.44436,82.55316,71,110,0
82.55547,82.66427,72,110,0
82.66658,82.77538,74,110,0
82.777695,82.88649,75,110,0
82.999916,83.10871,60,110,0
83.11103,83.219826,63,110,0
83.22214,83.33093,67,110,0
83.33325,83.44205,63,110,0
83.44436,83.553154,67,110,0
83.55547,83.66427,72,110,0
83.66658,83.77538,67,110,0
83.777695,83.88649,72,110,0
83.8888,83.997604,75,110,0
83.999916,84.10871,72,110,0
84.11103,84.219826,75,110,0
84.22214,84.33093,79,110,0
84.33325,84.44205,77,110,0
84.44436,84.553154,75,110,0
84.55547,84.66427,74,110,0
84.66658,84.775375,75,110,0
84.777695,84.88649,72,110,0
84.8888,84.9976,77,110,0
84.999916,85.10871,74,110,0
85.11102,85.219826,70,110,0
85.22214,85.33093,75,110,0
85.333244,85.44205,72,110,0
85.44436,85.553154,69,110,0
85.66658,85.775375,89,110,0
85.777695,85.88649,81,110,0
85.8888,85.9976,82,110,0
85.999916,86.10871,84,110,0
86.11102,86.21982,86,110,0
86.333244,86.44204,86,110,0
86.44436,86.553154,78,110,0
86.555466,86.66427,79,110,0
86.66658,86.775375,81,110,0
86.777695,86.88649,82,110,0
86.999916,87.10871,82,110,0
87.11102,87.21982,74,110,0
87.22214,87.33093,75,110,0
87.333244,87.44204,77,110,0
87.44436,87.553154,79,110,0
87.66658,87.775375,79,110,0
87.77769,87.88649,71,110,0
87.8888,87.9976,72,110,0
87.99991,88.10871,74,110,0
88.11102,88.21982,75,110,0
88.333244,88.44204,55,110,0
88.44436,88.553154,60,110,0
88.555466,88.66426,63,110,0
88.66658,88.775375,60,110,0
88.77769,88.88648,63,110,0
88.8888,88.9976,67,110,0
88.99991,89.1087,60,110,0
89.11102,89.21982,63,110,0
89.22213,89.33093,67,110,0
89.333244,89.44204,63,110,0
89.44435,89.553154,67,110,0
89.555466,89.66426,72,110,0
89.66658,89.775375,63,110,0
89.77769,89.88648,67,110,0
89.8888,89.9976,72,110,0
89.99991,90.1087,67,110,0
90.11102,90.21982,72,110,0
90.22213,90.330925,75,110,0
90.333244,90.44204,67,110,0
90.44435,90.553154,72,110,0
90.555466,90.66426,75,110,0
90.66657,90.775375,72,110,0
90.77769,90.88648,75,110,0
90.8888,90.9976,79,110,0
90.99991,91.1087,67,110,0
91.11102,91.21982,72,110,0
91.22213,91.330925,75,110,0
91.333244,91.44204,72,110,0
91.44435,91.55315,75,110,0
91.555466,91.66426,79,110,0
91.66657,91.77537,67,110,0
91.77769,91.88648,72,110,0
91.888794,91.9976,75,110,0
91.99991,92.1087,72,110,0
92.111015,92.21982,75,110,0
92.22213,92.330925,79,110,0
92.333244,92.44204,67,110,0
92.44435,92.55315,66,110,0
92.555466,92.66426,67,110,0
92.66657,92.77537,68,110,0
92.77769,92.88648,69,110,0
92.888794,92.99759,70,110,0
92.99991,93.1087,71,110,0
93.111015,93.21981,72,110,0
93.22213,93.330925,73,110,0
93.33324,93.44204,74,110,0
93.44435,93.55315,75,110,0
93.555466,93.66426,76,110,0
93.66657,93.77537,77,110,0
93.77769,93.88648,78,110,0
93.888794,93.99759,79,110,0
93.99991,94.1087,75,110,0
94.111015,94.21981,72,110,0
94.22213,94.44203,70,110,0
94.55546,94.66426,72,110,0
94.611015,94.71981,74,110,0
94.66657,94.77537,72,110,0
94.72213,94.830925,74,110,0
94.77768,94.88648,70,110,0
94.83324,94.88648,72,110,0
94.888794,95.1087,70,110,0
95.111015,95.21981,70,80,0
95.22213,95.44203,74,80,0
95.44435,95.55315,74,80,0
95.55546,95.77537,77,80,0
95.77768,95.886475,77,80,0
95.888794,96.1087,82,80,0
96.111015,96.21981,82,80,0
96.22212,96.44203,86,80,0
96.44435,96.55315,86,80,0
96.55546,96.77537,89,80,0
96.77768,96.886475,82,80,0
96.888794,97.108696,86,80,0
97.111015,97.21981,77,80,0
97.22212,97.44203,82,80,0
97.44434,97.55315,74,80,0
97.55546,97.77537,77,80,0
97.77768,97.886475,70,80,0
97.888794,98.108696,74,80,0
98.111015,98.21981,72,80,0
98.22212,98.44203,75,80,0
98.44434,98.55314,69,80,0
98.55546,98.77537,72,80,0
98.77768,98.886475,69,80,0
98.88879,99.108696,70,80,0
99.111015,99.21981,70,80,0
99.22212,99.44203,74,80,0
99.44434,99.55314,74,80,0
99.55546,99.77536,77,80,0
99.77768,99.886475,77,80,0
99.88879,100.108696,82,80,0
100.11101,100.21981,82,80,0
100.22212,100.44203,86,80,0
100.44434,100.55314,86,80,0
100.55546,100.77536,89,80,0
100.77768,100.886475,82,80,0
100.88879,101.108696,86,80,0
101.11101,101.2198,77,80,0
101.22212,101.44203,82,80,0
101.44434,101.55314,74,80,0
101.55545,101.77536,77,80,0
101.77768,101.886475,70,80,0
101.88879,102.108696,74,80,0
102.11101,102.2198,65,80,0
102.22212,102.442024,70,80,0
102.44434,102.55314,62,80,0
102.55545,102.77536,65,80,0
102.77767,102.886475,58,80,0
102.88879,103.108696,62,80,0
103.11101,103.2198,53,110,0
103.22212,103.442024,58,110,0
103.44434,103.55314,50,110,0
103.55545,103.77536,53,110,0
103.77767,103.88647,52,110,0
103.88879,104.108696,55,110,0
104.222115,105.55314,50,110,0
104.11101,105.55314,53,110,0
104.222115,105.55314,56,110,0
105.80545,105.92785,53,110,0
105.93045,106.17785,56,110,0
106.18045,106.30285,53,110,0
106.30545,106.55285,56,110,0
106.55545,106.67785,54,110,0
106.68045,106.92785,58,110,0
107.05545,108.92785,53,110,0
106.93045,108.92785,56,110,0
107.05545,108.92785,59,110,0
108.93045,109.164246,61,80,0
109.16656,109.27536,61,80,0
109.27767,109.49758,66,80,0
109.27767,109.49758,58,80,0
109.49989,109.60869,66,80,0
109.61101,109.83091,61,80,0
109.83323,109.942024,61,80,0
109.944336,110.164246,66,80,0
109.944336,110.164246,58,80,0
110.16656,110.27535,66,80,0
110.27767,110.49758,61,80,0
110.49989,110.60869,61,80,0
110.61101,110.83091,66,80,0
110.61101,110.83091,58,80,0
110.83323,110.942024,66,80,0
110.944336,111.164246,61,80,0
111.16656,111.27535,61,80,0
111.27767,111.497574,68,80,0
111.27767,111.497574,65,80,0
111.49989,111.60869,68,80,0
111.49989,111.60869,65,80,0
111.611,111.83091,61,80,0
111.83322,111.942024,61,80,0
111.944336,112.164246,68,80,0
111.944336,112.164246,65,80,0
112.16656,112.27535,68,80,0
112.16656,112.27535,65,80,0
112.27767,112.497574,61,80,0
112.49989,112.60869,61,80,0
112.611,112.83091,68,80,0
112.611,112.83091,65,80,0
112.83322,112.94202,68,80,0
112.83322,112.94202,65,80,0
112.944336,113.164246,61,80,0
113.16656,113.27535,61,80,0
113.27767,113.497574,68,80,0
113.27767,113.497574,65,80,0
113.49989,113.60869,68,80,0
113.49989,113.60869,65,80,0
113.611,113.83091,61,80,0
113.83322,113.94202,61,80,0
113.944336,114.16424,66,80,0
113.944336,114.16424,70,80,0
114.277664,114.497574,73,100,0
114.499886,114.60869,73,101,0
114.611,114.83091,78,102,0
114.611,114.83091,66,102,0
114.83322,114.94202,78,103,0
114.944336,115.16424,73,104,0
115.16656,115.27535,73,106,0
115.277664,115.497574,78,106,0
115.277664,115.497574,66,106,0
115.499886,115.60868,78,108,0
115.611,115.83091,73,109,0
115.83322,115.94202,73,110,0
115.94433,116.16424,78,111,0
115.94433,116.16424,66,111,0
116.16656,116.27535,78,113,0
116.277664,116.497574,73,113,0
116.499886,116.60868,73,115,0
116.611,116.8309,78,116,0
116.611,116.8309,66,116,0
116.83322,116.94202,82,117,0
116.94433,117.16424,85,118,0
117.16655,117.27535,78,119,0
117.277664,117.94202,86,120,0
117.277664,117.94202,74,120,0
117.94433,118.16424,83,120,0
117.94433,118.16424,71,120,0
118.277664,118.497574,78,120,0
118.277664,118.497574,66,120,0
118.61099,118.8309,74,120,0
118.61099,118.8309,62,120,0
118.94433,119.16424,71,120,0
118.94433,119.16424,59,120,0
119.277664,119.49757,66,120,0
119.277664,119.49757,54,120,0
119.61099,119.8309,62,120,0
119.61099,119.8309,50,120,0
119.83321,119.94202,74,120,0
119.94433,120.16424,79,120,0
119.94433,120.16424,67,120,0
120.16655,120.275345,79,120,0
120.277664,120.49757,74,120,0
120.499886,120.60868,74,120,0
120.61099,120.8309,79,120,0
120.61099,120.8309,67,120,0
120.83321,120.94201,79,120,0
120.94433,121.16424,74,120,0
121.16655,121.275345,74,120,0
121.27766,121.49757,79,120,0
121.27766,121.49757,67,120,0
121.499886,121.60868,79,120,0
121.61099,121.8309,74,120,0
121.83321,121.94201,74,120,0
121.94433,122.16423,79,120,0
121.94433,122.16423,67,120,0
122.16655,122.275345,83,120,0
122.27766,122.49757,86,120,0
122.49988,122.60868,79,120,0
122.61099,123.275345,87,120,0
122.61099,123.275345,75,120,0
123.27766,123.49757,84,120,0
123.27766,123.49757,72,120,0
123.61099,123.830894,79,120,0
123.61099,123.830894,67,120,0
123.94432,124.16423,75,120,0
123.94432,124.16423,63,120,0
124.27766,124.49757,72,120,0
124.27766,124.49757,60,120,0
124.61099,124.830894,67,120,0
124.61099,124.830894,55,120,0
124.94432,125.16423,63,120,0
124.94432,125.16423,51,120,0
125.27766,125.94201,87,120,0
125.27766,125.94201,75,120,0
125.94432,126.16423,84,120,0
125.94432,126.16423,72,120,0
126.27766,126.49756,80,120,0
126.27766,126.49756,68,120,0
126.610985,126.830894,75,120,0
126.610985,126.830894,63,120,0
126.94432,127.16423,72,120,0
126.94432,127.16423,60,120,0
127.27766,127.49756,68,120,0
127.27766,127.49756,56,120,0
127.610985,127.830894,63,120,0
127.610985,127.830894,51,120,0
127.94432,128.60867,89,120,0
127.94432,128.60867,77,120,0
128.611,128.942,85,120,0
128.611,128.942,73,120,0
128.94432,129.27533,80,120,0
128.94432,129.27533,68,120,0
129.27765,129.60867,77,120,0
129.27765,129.60867,65,120,0
129.611,129.942,73,120,0
129.611,129.942,61,120,0
129.94432,130.27533,68,120,0
129.94432,130.27533,56,120,0
130.27765,130.60867,65,120,0
130.27765,130.60867,53,120,0
130.61098,131.27533,83,120,0
130.61098,131.27533,71,120,0
131.27765,131.60867,77,120,0
131.27765,131.60867,65,120,0
131.61098,131.942,74,120,0
131.61098,131.942,62,120,0
131.94432,132.27533,71,120,0
131.94432,132.27533,59,120,0
132.27765,132.60867,65,120,0
132.27765,132.60867,53,120,0
132.61098,132.942,62,120,0
132.61098,132.942,50,120,0
132.94432,133.27533,59,120,0
132.94432,133.27533,47,120,0
133.16653,133.27533,55,120,0
133.27765,133.49756,60,120,0
133.27765,133.49756,52,120,0
133.49986,133.60867,60,80,0
133.61098,133.83089,55,80,0
133.8332,133.942,55,80,0
133.94432,134.16422,60,80,0
133.94432,134.16422,52,80,0
134.16653,134.27533,60,80,0
134.27765,134.49756,55,80,0
134.49986,134.60866,55,80,0
134.61098,134.83089,60,80,0
134.61098,134.83089,52,80,0
134.8332,134.942,60,80,0
134.9443,135.16422,55,80,0
135.16653,135.27533,55,80,0
135.27765,135.49756,62,80,0
135.27765,135.49756,59,80,0
135.49986,135.60866,62,80,0
135.49986,135.60866,59,80,0
135.61098,135.83089,55,80,0
135.8332,135.942,55,80,0
135.9443,136.16422,62,80,0
135.9443,136.16422,59,80,0
136.16653,136.27533,62,80,0
136.16653,136.27533,59,80,0
136.27765,136.49756,55,80,0
136.49986,136.60866,55,80,0
136.61098,136.83089,62,80,0
136.61098,136.83089,59,80,0
136.8332,136.942,62,80,0
136.8332,136.942,59,80,0
136.9443,137.16422,55,80,0
137.16653,137.27533,55,80,0
137.27765,137.49756,62,80,0
137.27765,137.49756,59,80,0
137.49986,137.60866,62,80,0
137.49986,137.60866,59,80,0
137.61098,137.83089,55,80,0
137.8332,137.942,55,80,0
137.9443,138.16422,64,80,0
137.9443,138.16422,60,80,0
138.72209,138.83089,64,105,0
138.83319,138.942,67,105,0
138.9443,139.0531,70,105,0
139.05542,139.16422,73,105,0
139.16653,139.27533,76,105,0
139.38875,139.49754,67,105,0
139.49986,139.60866,70,105,0
139.61098,139.71977,73,105,0
139.72209,139.83089,76,105,0
139.83319,139.94199,79,105,0
140.05542,140.16422,76,105,0
140.16653,140.27533,79,105,0
140.27763,140.38644,82,105,0
140.38875,140.49754,85,105,0
140.49986,140.60866,88,105,0
140.9443,141.16422,75,105,0
141.16653,141.27533,75,105,0
141.27763,141.49754,78,105,0
141.61098,141.83089,75,105,0
141.83319,141.94199,75,105,0
141.9443,142.16422,78,105,0
142.27763,142.49754,75,105,0
142.49986,142.60866,75,105,0
142.61098,142.83087,78,105,0
142.9443,143.16422,75,105,0
143.16653,143.27533,75,105,0
143.27763,143.38643,78,105,0
143.38875,143.49754,75,105,0
143.49986,143.60866,77,105,0
143.61098,143.71977,78,105,0
143.72208,143.83087,77,105,0
143.83319,143.94199,75,105,0
143.9443,144.0531,74,105,0
144.05542,144.16422,62,105,0
144.16652,144.27533,65,105,0
144.27763,144.38643,68,105,0
144.38875,144.49754,71,105,0
144.49986,144.60866,74,105,0
144.72208,144.83087,65,105,0
144.83319,144.94199,68,105,0
144.9443,145.0531,71,105,0
145.05542,145.16422,74,105,0
145.16652,145.27531,77,105,0
145.38875,145.49754,74,105,0
145.49986,145.60866,77,105,0
145.61096,145.71977,80,105,0
145.72208,145.83087,83,105,0
145.83319,145.94199,86,105,0
146.27763,146.49754,85,105,0
146.49986,146.60866,85,105,0
146.61096,146.83087,88,105,0
146.9443,147.16422,85,105,0
147.16652,147.27531,85,105,0
147.27763,147.49754,88,105,0
147.61096,147.83087,85,105,0
147.83319,147.94199,85,105,0
147.9443,148.1642,88,105,0
148.27763,148.49754,85,105,0
148.49985,148.60866,85,105,0
148.61096,148.71976,88,105,0
148.72208,148.83087,85,105,0
148.83319,148.94199,87,105,0
148.9443,149.0531,88,105,0
149.0554,149.1642,87,105,0
149.16652,149.27531,85,105,0
149.27763,149.38643,84,100,0
149.38875,149.49754,80,100,0
149.49985,149.60864,75,101,0
149.61096,149.71976,72,102,0
149.72208,149.83087,80,103,0
149.83319,149.94199,75,104,0
149.9443,150.0531,84,105,0
150.0554,150.1642,80,105,0
150.16652,150.27531,75,106,0
150.27763,150.38643,72,107,0
150.38875,150.49754,80,108,0
150.49985,150.60864,75,109,0
150.61096,150.71976,84,110,0
150.72208,150.83087,80,110,0
150.83319,150.94199,75,111,0
150.94429,151.0531,72,112,0
151.0554,151.1642,80,113,0
151.16652,151.27531,75,114,0
151.27763,151.38643,84,115,0
151.38875,151.49754,80,115,0
151.49985,151.60864,75,116,0
151.61096,151.71976,72,117,0
151.72208,151.83087,80,118,0
151.83319,151.94199,75,119,0
151.94429,152.71976,72,120,0
151.94429,152.71976,75,120,0
151.94429,152.71976,80,120,0
151.94429,152.71976,84,120,0
152.72208,152.83087,80,114,0
152.83319,152.94199,75,114,0
152.94429,153.05309,72,113,0
153.0554,153.1642,68,112,0
153.16652,153.27531,63,111,0
153.27763,153.38643,72,110,0
153.38873,153.49753,68,109,0
153.49985,153.60864,63,108,0
153.61096,153.71976,60,107,0
153.72208,153.83087,56,107,0
153.83318,153.94199,51,106,0
153.94429,154.05309,60,105,0
154.0554,154.1642,56,104,0
154.16652,154.27531,51,103,0
154.61096,154.71976,80,100,0
154.72208,154.83087,77,100,0
154.83318,154.94197,72,101,0
154.94429,155.05309,68,102,0
155.0554,155.1642,77,103,0
155.16652,155.27531,72,104,0
155.27762,155.38643,80,105,0
155.38873,155.49753,77,106,0
155.49985,155.60864,72,106,0
155.61096,155.71976,68,107,0
155.72208,155.83087,77,108,0
155.83318,155.94197,72,109,0
155.94429,156.05309,80,110,0
156.0554,156.1642,77,111,0
156.16652,156.27531,72,112,0
156.27762,156.38641,68,113,0
156.38873,156.49753,77,113,0
156.49985,156.60864,72,114,0
156.61096,156.71976,80,115,0
156.72208,156.83087,77,116,0
156.83318,156.94197,72,117,0
156.94429,157.05309,68,118,0
157.0554,157.1642,77,119,0
157.16652,157.27531,72,119,0
157.27762,158.05309,68,120,0
157.27762,158.05309,72,120,0
157.27762,158.05309,77,120,0
157.27762,158.05309,80,120,0
158.0554,158.1642,77,114,0
158.16652,158.27531,72,114,0
158.27762,158.38641,68,113,0
158.38873,158.49753,65,112,0
158.49985,158.60864,60,111,0
158.61096,158.71976,68,110,0
158.72206,158.83086,65,109,0
158.83318,158.94197,60,108,0
158.94429,159.05309,56,107,0
159.0554,159.1642,53,107,0
159.1665,159.27531,48,106,0
159.27762,159.38641,56,105,0
159.38873,159.49753,53,104,0
159.49985,159.60864,48,103,0
159.94429,160.05309,80,90,0
160.0554,160.1642,77,90,0
160.1665,160.2753,70,90,0
160.27762,160.38641,68,91,0
160.38873,160.49753,77,91,0
160.49985,160.60864,70,92,0
160.61095,160.71976,80,92,0
160.72206,160.83086,77,92,0
160.83318,160.94197,70,93,0
160.94429,161.05309,68,93,0
161.0554,161.1642,77,94,0
161.1665,161.2753,70,94,0
161.27762,161.38641,80,94,0
161.38873,161.49753,77,95,0
161.49985,161.60864,70,95,0
161.61095,161.71974,68,96,0
161.72206,161.83086,77,96,0
161.83318,161.94197,70,97,0
161.94429,162.05309,80,97,0
162.05539,162.1642,77,97,0
162.1665,162.2753,70,98,0
162.27762,162.38641,68,98,0
162.38873,162.49753,77,99,0
162.49985,162.60864,70,99,0
162.72206,162.83086,50,80,0
162.61095,162.94197,80,99,0
162.61095,162.94197,77,99,0
162.61095,162.94197,74,99,0
162.61095,162.94197,68,99,0
162.83318,162.94197,53,80,0
162.94429,163.05309,56,80,0
163.05539,163.16418,53,80,0
163.1665,163.2753,50,80,0
163.27762,163.38641,56,80,0
163.38873,163.49753,53,80,0
163.49985,163.60864,50,80,0
163.61095,163.71974,56,80,0
163.72206,163.83086,53,80,0
163.83318,163.94197,50,80,0
163.94429,164.05309,56,80,0
164.05539,164.16418,53,80,0
164.1665,164.2753,50,80,0
164.27762,164.38641,56,80,0
164.38873,164.49753,53,80,0
164.49983,164.60864,50,80,0
164.61095,164.71974,56,80,0
164.72206,164.83086,53,80,0
164.83318,164.94197,50,80,0
164.94429,165.05309,56,80,0
165.05539,165.16418,53,80,0
165.1665,165.2753,50,80,0
165.27762,165.38641,56,80,0
165.38873,165.49753,53,80,0
165.49983,165.60863,50,80,0
165.61095,165.71974,56,80,0
165.72206,165.83086,53,80,0
165.83318,165.94197,50,80,0
165.94427,166.05309,56,80,0
166.05539,166.16418,53,80,0
166.1665,166.2753,50,80,0
166.27762,166.38641,56,80,0
166.38873,166.49753,53,80,0
166.49983,166.60863,50,80,0
166.61095,166.71974,56,70,0
166.72206,166.83086,53,70,0
166.83318,166.94197,50,70,0
166.94427,167.05307,56,70,0
167.05539,167.16418,53,70,0
167.1665,167.2753,50,70,0
167.27762,167.38641,56,70,0
167.38872,167.49753,53,70,0
167.49983,167.60863,50,70,0
169.1665,169.2753,82,80,0
169.27762,169.49751,82,80,0
169.49983,169.60863,80,80,0
169.61095,169.83086,77,80,0
169.83316,169.94196,74,80,0
169.94427,170.16418,75,80,0
170.49983,170.60863,70,80,0
170.61095,170.83086,70,80,0
170.83316,170.94196,68,80,0
170.94427,171.16418,65,80,0
171.1665,171.2753,62,80,0
171.2776,171.49751,63,80,0
171.2776,171.49751,55,80,0
173.1665,173.2753,82,80,0
173.2776,173.3864,82,80,0
173.38872,173.49751,80,80,0
173.49983,173.60863,79,80,0
173.61095,173.71974,80,80,0
173.72205,173.83084,77,80,0
173.83316,173.94196,74,80,0
173.94427,174.16418,75,80,0
174.49983,174.60863,70,80,0
174.61095,174.71974,70,80,0
174.72205,174.83084,68,80,0
174.83316,174.94196,67,80,0
174.94427,175.05307,68,80,0
175.05539,175.16418,65,80,0
175.16649,175.27528,62,80,0
175.2776,175.49751,63,80,0
175.2776,175.49751,55,80,0
175.61093,175.83084,58,110,0
175.83316,175.94196,58,110,0
175.94427,176.16418,63,110,0
175.94427,176.16418,55,110,0
176.16649,176.27528,63,110,0
176.2776,176.49751,58,110,0
176.49983,176.60863,58,110,0
176.61093,176.83084,63,110,0
176.61093,176.83084,55,110,0
176.83316,176.94196,63,110,0
176.94427,177.16418,58,110,0
177.16649,177.27528,58,110,0
177.2776,177.49751,63,110,0
177.2776,177.49751,55,110,0
177.49983,177.60863,63,110,0
177.61093,177.83084,58,110,0
177.83316,177.94196,58,110,0
177.94427,178.16418,65,110,0
177.94427,178.16418,62,110,0
178.16649,178.27528,65,110,0
178.16649,178.27528,62,110,0
178.2776,178.49751,58,110,0
178.49983,178.60863,58,110,0
178.61093,178.83084,65,110,0
178.61093,178.83084,62,110,0
178.83316,178.94196,65,110,0
178.83316,178.94196,62,110,0
178.94427,179.16417,58,110,0
179.16649,179.27528,58,110,0
179.2776,179.49751,65,110,0
179.2776,179.49751,62,110,0
179.49982,179.60863,65,110,0
179.49982,179.60863,62,110,0
179.61093,179.83084,58,110,0
179.83316,179.94196,58,110,0
179.94427,180.16417,65,110,0
179.94427,180.16417,62,110,0
180.16649,180.27528,65,110,0
180.16649,180.27528,62,110,0
180.2776,180.49751,58,110,0
180.49982,180.60861,58,110,0
180.61093,180.83084,67,110,0
180.61093,180.83084,63,110,0
180.83316,180.94196,67,110,0
180.94426,181.16417,63,80,0
181.16649,181.27528,63,80,0
181.2776,181.49751,68,80,0
181.49982,181.60861,68,80,0
181.61093,181.83084,72,80,0
181.83316,181.94196,72,80,0
181.94426,182.16417,70,80,0
182.16649,182.27528,70,80,0
182.2776,182.49751,75,80,0
182.49982,182.60861,75,80,0
182.61093,182.83084,80,80,0
182.83316,182.94196,80,80,0
182.94426,183.16417,84,80,0
183.16649,183.27528,84,80,0
183.2776,183.4975,82,80,0
183.49982,183.60861,70,80,0
183.61093,183.83084,63,80,0
183.83316,183.94196,63,80,0
183.94426,184.16417,68,80,0
184.16649,184.27528,68,80,0
184.2776,184.4975,72,80,0
184.49982,184.60861,72,80,0
184.61093,184.83084,70,80,0
184.83315,184.94196,67,80,0
184.94426,185.16417,65,80,0
185.16649,185.27528,68,80,0
185.2776,185.4975,63,80,0
185.49982,185.60861,67,80,0
185.61093,185.83084,62,80,0
185.83315,185.94194,65,80,0
185.94426,186.16417,63,80,0
186.27759,186.4975,63,80,0
186.49982,186.60861,63,80,0
186.61093,186.83084,68,80,0
186.83315,186.94194,68,80,0
186.94426,187.16417,71,80,0
187.16649,187.27528,71,80,0
187.27759,187.4975,70,80,0
187.49982,187.60861,70,80,0
187.61093,187.83084,75,80,0
187.83315,187.94194,75,80,0
187.94426,188.16417,80,80,0
188.16649,188.27528,80,80,0
188.27759,188.4975,83,80,0
188.49982,188.60861,83,80,0
188.61093,188.83083,82,80,0
188.83315,188.94194,70,80,0
188.94426,189.16417,66,80,0
189.16647,189.27528,66,80,0
189.27759,189.4975,71,80,0
189.49982,189.60861,71,80,0
189.61093,189.83083,75,80,0
189.83315,189.94194,75,80,0
189.94426,190.16417,73,80,0
190.16647,190.27528,73,80,0
190.27759,190.4975,78,80,0
190.49982,190.60861,78,80,0
190.61093,190.83083,83,80,0
190.83315,190.94194,83,80,0
190.94426,191.16417,87,80,0
191.16647,191.27527,87,80,0
191.27759,191.4975,85,80,0
191.49982,191.60861,73,80,0
191.61092,191.83083,66,90,0
191.83315,191.94194,66,94,0
191.94426,192.16417,72,97,0
192.16647,192.27527,72,102,0
192.27759,192.4975,75,104,0
192.49982,192.60861,75,109,0
192.61092,193.60861,73,110,0
193.61092,193.94194,73,110,0
193.94426,194.27527,73,110,0
194.27759,194.60861,73,110,0
194.61092,194.94194,73,110,0
194.94426,195.27527,73,110,0
195.27759,196.27527,73,110,0
195.61092,196.27527,85,110,0
196.27759,196.6086,73,110,0
196.27759,196.6086,85,110,0
196.61092,196.94194,73,110,0
196.61092,196.94194,85,110,0
196.94424,197.27527,73,110,0
196.94424,197.27527,85,110,0
197.27759,197.6086,73,110,0
197.27759,197.6086,85,110,0
197.61092,197.94194,85,110,0
197.61092,197.94194,73,110,0
197.94424,198.16415,85,110,0
197.94424,198.16415,73,110,0
198.16647,198.27527,77,110,0
198.27759,198.38638,78,110,0
198.38869,198.4975,80,110,0
198.4998,198.6086,82,110,0
198.83315,198.94194,74,110,0
198.94424,199.05304,75,110,0
199.05536,199.16415,77,110,0
199.16647,199.27527,78,110,0
199.4998,199.6086,70,110,0
199.61092,199.71971,71,110,0
199.72203,199.83083,73,110,0
199.83313,199.94194,75,110,0
200.16647,200.27527,67,110,0
200.27759,200.38638,68,110,0
200.38869,200.49748,70,110,0
200.4998,200.6086,71,110,0
200.72203,200.83083,56,110,0
200.83313,200.94193,59,110,0
200.94424,201.05304,63,110,0
201.05536,201.16415,59,110,0
201.16647,201.27527,63,110,0
201.27757,201.38638,68,110,0
201.38869,201.49748,63,110,0
201.4998,201.6086,68,110,0
201.61092,201.71971,71,110,0
201.72203,201.83083,68,110,0
201.83313,201.94193,71,110,0
201.94424,202.05304,75,110,0
202.05536,202.16415,73,110,0
202.16647,202.27527,71,110,0
202.27757,202.38637,70,110,0
202.38869,202.49748,71,110,0
202.4998,202.6086,68,110,0
202.61092,202.71971,73,110,0
202.72202,202.83083,70,110,0
202.83313,202.94193,66,110,0
202.94424,203.05304,71,110,0
203.05536,203.16415,68,110,0
203.16647,203.27527,65,110,0
203.38869,203.49748,85,110,0
203.4998,203.6086,77,110,0
203.61092,203.71971,78,110,0
203.72202,203.83083,80,110,0
203.83313,203.94193,82,110,0
204.05536,204.16415,82,110,0
204.16647,204.27527,74,110,0
204.27757,204.38637,75,110,0
204.38869,204.49748,77,110,0
204.4998,204.6086,78,110,0
204.72202,204.83081,78,110,0
204.83313,204.94193,70,110,0
204.94424,205.05304,71,110,0
205.05536,205.16415,73,110,0
205.16646,205.27527,75,110,0
205.38869,205.49748,75,110,0
205.4998,205.6086,67,110,0
205.61092,205.71971,68,110,0
205.72202,205.83081,70,110,0
205.83313,205.94193,71,110,0
206.05536,206.16415,56,110,0
206.16646,206.27525,59,110,0
206.27757,206.38637,63,110,0
206.38869,206.49748,59,110,0
206.4998,206.6086,63,110,0
206.6109,206.71971,68,110,0
206.72202,206.83081,63,110,0
206.83313,206.94193,68,110,0
206.94424,207.05304,71,110,0
207.05536,207.16415,68,110,0
207.16646,207.27525,71,110,0
207.27757,207.38637,75,110,0
207.38869,207.49748,63,110,0
207.4998,207.6086,68,110,0
207.6109,207.7197,71,110,0
207.72202,207.83081,68,110,0
207.83313,207.94193,71,110,0
207.94424,208.05304,75,110,0
208.05534,208.16415,71,110,0
208.16646,208.27525,75,110,0
208.27757,208.38637,80,110,0
208.38869,208.49748,75,110,0
208.4998,208.6086,80,110,0
208.6109,208.7197,83,110,0
208.72202,208.83081,75,110,0
208.83313,208.94193,80,110,0
208.94424,209.05304,83,110,0
209.05534,209.16414,80,110,0
209.16646,209.27525,83,110,0
209.27757,209.38637,87,110,0
209.38869,209.49748,75,110,0
209.49979,209.6086,80,110,0
209.6109,209.7197,83,110,0
209.72202,209.83081,80,110,0
209.83313,209.94193,83,110,0
209.94424,210.05304,87,110,0
210.05534,210.16414,75,110,0
210.16646,210.27525,74,110,0
210.27757,210.38637,75,110,0
210.38869,210.49748,76,110,0
210.49979,210.6086,77,110,0
210.6109,210.7197,78,110,0
210.72202,210.83081,79,110,0
210.83313,210.94193,80,110,0
210.94424,211.05304,81,110,0
211.05534,211.16414,82,110,0
211.16646,211.27525,83,110,0
211.27757,211.38637,84,110,0
211.38869,211.49748,85,110,0
211.49979,211.60858,86,110,0
211.6109,211.7197,87,110,0
211.72202,211.83081,83,110,0
211.83313,211.94193,80,110,0
211.94423,212.16414,78,110,0
212.27757,212.38637,80,110,0
212.33313,212.44193,82,110,0
212.38869,212.49748,80,110,0
212.44423,212.55302,82,110,0
212.49979,212.60858,78,110,0
212.55534,212.60858,80,110,0
212.6109,212.83081,78,110,0
212.83313,212.94193,66,80,0
212.94423,213.16414,70,80,0
213.16646,213.27525,70,80,0
213.27757,213.49748,73,80,0
213.49979,213.60858,73,80,0
213.6109,213.83081,78,80,0
213.83313,213.94193,78,80,0
213.94423,214.16414,82,80,0
214.16646,214.27525,82,80,0
214.27757,214.49747,85,80,0
214.49979,214.60858,78,80,0
214.6109,214.83081,82,80,0
214.83311,214.94193,73,80,0
214.94423,215.16414,78,80,0
215.16646,215.27525,70,80,0
215.27757,215.49747,73,80,0
215.49979,215.60858,66,80,0
215.6109,215.83081,70,80,0
215.83311,215.94191,68,80,0
215.94423,216.16414,71,80,0
216.16646,216.27525,65,80,0
216.27756,216.49747,68,80,0
216.49979,216.60858,65,80,0
216.6109,216.83081,66,80,0
216.83311,216.94191,66,80,0
216.94423,217.16414,70,80,0
217.16646,217.27525,70,80,0
217.27756,217.49747,73,80,0
217.49979,217.60858,73,80,0
217.6109,217.83081,78,80,0
217.83311,217.94191,78,80,0
217.94423,218.16414,82,80,0
218.16646,218.27525,82,80,0
218.27756,218.49747,85,80,0
218.49979,218.60858,78,80,0
218.6109,218.83081,82,80,0
218.83311,218.94191,73,80,0
218.94423,219.16414,78,80,0
219.16646,219.27525,70,80,0
219.27756,219.49747,73,80,0
219.49979,219.60858,70,80,0
219.6109,219.8308,73,80,0
219.83311,219.94191,70,80,0
219.94423,220.16414,74,80,0
220.16644,220.27525,70,80,0
220.27756,220.49747,74,80,0
220.49979,220.60858,74,80,0
220.6109,220.8308,75,80,0
220.83311,220.94191,63,80,0
220.94423,221.16414,66,80,0
221.16644,221.27524,66,80,0
221.27756,221.49747,70,80,0
221.49979,221.60858,70,80,0
221.61089,221.8308,75,80,0
221.83311,221.94191,75,80,0
221.94423,222.16414,78,80,0
222.16644,222.27524,78,80,0
222.27756,222.49747,82,80,0
222.49979,222.60858,75,80,0
222.61089,222.8308,78,80,0
222.83311,222.94191,70,80,0
222.94423,223.16414,75,80,0
223.16644,223.27524,66,80,0
223.27756,223.49747,70,80,0
223.49979,223.60858,63,80,0
223.61089,223.8308,66,80,0
223.83311,223.94191,65,80,0
223.94423,224.16414,68,80,0
224.16644,224.27524,62,80,0
224.27756,224.49747,65,80,0
224.49979,224.60858,62,80,0
224.61089,224.8308,63,80,0
224.83311,224.94191,63,80,0
224.94423,225.16412,66,80,0
225.16644,225.27524,66,80,0
225.27756,225.49747,70,80,0
225.49977,225.60858,70,80,0
225.61089,225.8308,75,80,0
225.83311,225.94191,75,80,0
225.94423,226.16412,78,80,0
226.16644,226.27524,78,80,0
226.27756,226.49747,82,80,0
226.49977,226.60857,75,80,0
226.61089,226.8308,78,80,0
226.83311,226.94191,70,80,0
226.94421,227.16412,75,80,0
227.16644,227.27524,66,80,0
227.27756,227.49747,70,80,0
227.49977,227.60857,63,80,0
227.61089,227.8308,66,80,0
227.83311,227.94191,58,80,0
227.94421,228.16412,63,80,0
228.16644,228.27524,57,80,0
228.27756,228.49747,60,80,0
228.49977,228.60857,57,80,0
228.61089,228.71968,58,80,0
228.722,228.8308,62,80,0
228.83311,228.94191,65,80,0
228.94421,229.05301,61,80,0
229.05533,229.16412,62,80,0
229.16644,229.27524,65,80,0
229.94421,230.05301,58,80,0
230.05533,230.16412,62,80,0
230.16644,230.27524,65,80,0
230.27756,230.38635,61,80,0
230.38866,230.49745,62,80,0
230.49977,230.60857,65,80,0
231.27756,231.38635,58,80,0
231.38866,231.49745,65,80,0
231.49977,231.60857,68,80,0
231.61089,231.71968,64,80,0
231.722,231.8308,65,80,0
231.8331,231.9419,68,80,0
232.61089,232.71968,58,80,0
232.722,232.8308,65,80,0
232.8331,232.9419,68,80,0
232.94421,233.05301,64,80,0
233.05533,233.16412,65,80,0
233.16644,233.27524,68,80,0
233.94421,234.05301,58,80,0
234.05533,234.16412,65,80,0
234.16644,234.27524,68,81,0
234.61089,234.71968,58,85,0
234.72198,234.83078,65,86,0
234.8331,234.9419,68,86,0
235.27754,235.38634,58,90,0
235.38866,235.49745,65,91,0
235.49977,235.60857,68,92,0
235.94421,236.05301,58,95,0
236.05533,236.16412,65,96,0
236.16643,236.27522,68,97,0
236.61089,236.71968,58,90,0
236.72198,236.83078,65,89,0
236.8331,236.9419,68,87,0
236.94421,237.05301,58,85,0
237.05533,237.16412,65,83,0
237.16643,237.27522,68,81,0
237.27754,237.38634,58,80,0
237.38866,237.49745,65,78,0
237.49977,237.60857,68,76,0
237.61087,237.71968,58,74,0
237.72198,237.83078,65,72,0
237.8331,237.9419,68,71,0
237.94421,238.05301,58,70,0
238.05533,238.16412,65,70,0
238.16643,238.27522,68,70,0
238.27754,238.38634,58,70,0
238.38866,238.49745,65,70,0
238.49977,238.60857,68,70,0
238.61087,238.71967,58,70,0
238.72198,238.83078,65,70,0
238.8331,238.9419,68,70,0
238.94421,239.05301,58,70,0
239.05531,239.16412,63,70,0
239.16643,239.27522,67,70,0
239.27754,239.38634,58,70,0
239.38866,239.49745,63,70,0
239.49977,239.60857,68,70,0
239.61087,239.71967,62,70,0
239.72198,239.83078,63,70,0
239.8331,239.9419,67,70,0
239.94421,240.05301,58,70,0
240.05531,240.16411,63,70,0
240.16643,240.27522,67,70,0
240.27754,240.38634,62,70,0
240.38866,240.49745,63,70,0
240.49976,240.60857,67,70,0
240.61087,240.71967,58,70,0
240.72198,240.83078,65,70,0
240.8331,240.9419,68,70,0
240.94421,241.05301,64,70,0
241.05531,241.16411,65,70,0
241.16643,241.27522,68,70,0
241.27754,241.38634,58,70,0
241.38866,241.49745,63,70,0
241.49976,241.60855,67,70,0
241.61087,241.71967,62,70,0
241.72198,241.83078,63,70,0
241.8331,241.9419,67,70,0
241.9442,242.05301,62,70,0
242.05531,242.16411,65,70,0
242.16643,242.27522,68,70,0
242.27754,242.38634,58,70,0
242.38866,242.49745,65,70,0
242.49976,242.60855,68,70,0
242.61087,242.71967,58,70,0
242.72198,242.83078,63,70,0
242.8331,242.9419,67,70,0
242.9442,243.053,62,70,0
243.05531,243.16411,63,70,0
243.16643,243.27522,67,70,0
243.27754,243.38634,58,70,0
243.38866,243.49745,63,70,0
243.49976,243.60855,67,70,0
243.61087,243.71967,62,70,0
243.72198,243.83078,63,70,0
243.8331,243.9419,67,70,0
243.9442,244.053,58,70,0
244.05531,244.16411,63,70,0
244.16643,244.27522,67,70,0
244.27754,244.38634,62,70,0
244.38864,244.49745,63,70,0
244.49976,244.60855,67,70,0
244.61087,244.71967,58,70,0
244.72198,244.83078,65,70,0
244.8331,244.9419,68,70,0
244.9442,245.053,64,70,0
245.05531,245.16411,65,70,0
245.16643,245.27522,68,70,0
245.27754,245.38634,58,70,0
245.38864,245.49744,63,70,0
245.49976,245.60855,67,70,0
245.61087,245.71967,62,70,0
245.72198,245.83078,63,70,0
245.83308,245.9419,67,70,0
245.9442,246.053,62,70,0
246.05531,246.16411,65,70,0
246.16643,246.27522,68,70,0
246.27754,246.38634,58,70,0
246.38864,246.49744,65,70,0
246.49976,246.60855,68,70,0
246.61087,246.71967,58,70,0
246.72198,246.83078,63,70,0
246.83308,246.94188,67,70,0
246.9442,247.053,62,70,0
247.05531,247.16411,63,70,0
247.16643,247.27522,67,70,0
247.27753,247.38634,64,70,0
247.38864,247.49744,67,70,0
247.49976,247.60855,70,70,0
247.61087,247.71967,60,70,0
247.72198,247.83078,67,70,0
247.83308,247.94188,70,70,0
247.9442,248.053,60,70,0
248.05531,248.16411,65,70,0
248.16643,248.27522,68,70,0
248.27753,248.38632,64,70,0
248.38864,248.49744,65,70,0
248.49976,248.60855,68,70,0
248.61087,248.71967,64,70,0
248.72197,248.83078,67,70,0
248.83308,248.94188,70,70,0
248.9442,249.053,60,70,0
249.05531,249.16411,67,70,0
249.16643,249.27522,70,70,0
249.27753,249.38632,60,70,0
249.38864,249.49744,65,70,0
249.49976,249.60855,68,70,0
249.61087,249.71967,67,70,0
249.72197,249.83076,68,70,0
249.83308,249.94188,72,70,0
249.9442,250.053,67,70,0
250.05531,250.16411,70,70,0
250.16643,250.27522,73,70,0
250.27753,250.38632,63,70,0
250.38864,250.49744,70,70,0
250.49976,250.60855,73,70,0
250.61087,250.71967,63,70,0
250.72197,250.83076,68,70,0
250.83308,250.94188,72,70,0
250.9442,251.053,67,70,0
251.05531,251.16411,68,70,0
251.16641,251.27522,72,70,0
251.27753,251.38632,67,70,0
251.38864,251.49744,70,70,0
251.49976,251.60855,73,70,0
251.61087,251.71967,63,70,0
251.72197,251.83076,70,70,0
251.83308,251.94188,73,70,0
251.9442,252.053,63,70,0
252.05531,252.16411,68,70,0
252.16641,252.2752,72,70,0
252.27753,252.38632,67,70,0
252.38864,252.49744,68,70,0
252.49976,252.60855,72,70,0
252.61086,252.71967,67,70,0
252.72197,252.83076,70,70,0
252.83308,252.94188,73,71,0
252.9442,253.053,63,72,0
253.05531,253.16411,70,73,0
253.16641,253.2752,73,74,0
253.27753,253.38632,67,75,0
253.38864,253.49744,70,76,0
253.49976,253.60855,73,77,0
253.61086,253.71965,63,78,0
253.72197,253.83076,70,79,0
253.83308,253.94188,73,79,0
253.9442,254.053,67,80,0
254.0553,254.16411,70,82,0
254.16641,254.2752,73,85,0
254.27753,254.38632,63,88,0
254.38864,254.49744,70,90,0
254.49976,254.60855,73,93,0
254.61086,254.71965,67,96,0
254.72197,254.83076,70,99,0
254.83308,254.94188,73,101,0
254.9442,255.053,63,104,0
255.0553,255.1641,70,107,0
255.16641,255.2752,73,109,0
255.27753,255.38632,63,110,0
255.38864,255.49744,68,110,0
255.49974,255.60855,72,110,0
255.61086,255.71965,67,110,0
255.72197,255.83076,68,110,0
255.83308,255.94188,72,110,0
255.9442,256.05298,63,110,0
256.0553,256.1641,68,110,0
256.1664,256.2752,72,110,0
256.27753,256.38632,67,110,0
256.38864,256.49744,68,110,0
256.49976,256.60855,72,110,0
256.61087,256.71967,63,110,0
256.72195,256.83078,68,110,0
256.83307,256.94186,72,110,0
256.94418,257.05298,67,110,0
257.0553,257.1641,68,110,0
257.1664,257.2752,72,110,0
257.27753,257.38632,63,110,0
257.38864,257.49744,68,110,0
257.49976,257.60855,72,110,0
257.61087,257.71967,67,110,0
257.72195,257.83075,68,110,0
257.83307,257.94186,72,110,0
258.22195,260.0047,63,120,0
258.27753,260.0047,66,120,0
258.33307,260.0047,69,120,0
258.38864,260.0047,72,120,0
258.44418,260.0047,75,120,0
260.72195,260.86185,82,80,0
260.8648,261.14755,82,80,0
261.15054,261.2904,79,80,0
261.2934,261.57614,75,80,0
261.5791,261.719,70,80,0
261.72195,262.0047,70,80,0
262.0077,262.14755,68,80,0
262.15054,262.43326,65,80,0
262.43625,262.57614,62,80,0
262.5791,262.86185,63,80,0
263.15054,263.25934,56,110,0
263.26166,263.37045,60,110,0
263.37274,263.48157,51,110,0
263.48386,263.59265,56,110,0
263.59497,263.70377,60,110,0
263.7061,263.81488,55,110,0
263.8172,263.926,56,110,0
263.9283,264.0371,60,110,0
264.03943,264.14822,51,110,0
264.15054,264.25934,56,110,0
264.26166,264.37045,60,110,0
264.37274,264.48154,55,110,0
264.48386,264.59265,56,110,0
264.59497,264.70377,60,110,0
264.7061,264.81488,51,110,0
264.8172,264.926,56,110,0
264.9283,265.0371,60,110,0
265.03943,265.14822,55,110,0
265.15054,265.25934,56,110,0
265.26166,265.37045,60,110,0
265.37274,265.48154,51,110,0
265.48386,265.59265,56,110,0
265.59497,265.70377,60,110,0
265.7061,265.81488,55,110,0
265.8172,265.926,56,110,0
265.9283,266.0371,60,110,0
266.3172,267.81488,51,120,0
266.37274,267.81488,54,120,0
266.4283,267.81488,57,120,0
266.48386,267.81488,60,120,0
266.53943,267.81488,63,120,0
267.96005,268.09995,82,80,0
268.1029,268.2428,82,80,0
268.24576,268.38565,80,80,0
268.3886,268.5285,79,80,0
268.5315,268.67136,80,80,0
268.67435,268.8142,77,80,0
268.8172,268.95706,74,80,0
268.96005,269.2428,75,80,0
269.67435,269.8142,70,80,0
269.8172,269.98038,70,80,0
269.98386,270.14706,68,80,0
270.1505,270.31372,67,80,0
270.3172,270.48038,68,80,0
270.48386,270.6797,65,80,0
270.68387,270.8797,62,80,0
270.88385,271.2797,63,80,0
271.79102,271.8959,70,80,0
271.89813,272.1102,70,80,0
272.11243,272.21735,68,82,0
272.21957,272.4316,65,83,0
272.43387,272.53876,62,84,0
272.541,272.75305,71,85,0
272.75528,272.8602,68,87,0
272.86243,273.0745,65,88,0
273.07672,273.1816,62,89,0
273.18387,273.3959,72,90,0
273.39813,273.50305,68,92,0
273.50528,273.71735,65,93,0
273.71957,273.82446,62,94,0
273.82672,274.03876,71,95,0
274.041,274.1459,68,97,0
274.14813,274.3602,65,98,0
274.36243,274.46735,62,99,0
274.46957,274.6816,70,100,0
274.68384,274.78876,68,102,0
274.791,275.00305,65,103,0
275.00528,275.1102,62,104,0
275.11243,275.32446,63,105,0
275.3267,275.4316,58,107,0
275.43384,275.6459,55,108,0
275.64813,275.75305,51,109,0
275.75528,275.96732,58,110,0
276.0767,276.28876,62,110,0
276.0767,276.28876,58,110,0
276.0767,276.28876,56,110,0
276.0767,276.28876,53,110,0
276.39813,276.61017,63,110,0
276.39813,276.61017,58,110,0
276.39813,276.61017,55,110,0
276.71954,277.03876,74,110,0
276.71954,277.03876,70,110,0
276.71954,277.03876,68,110,0
276.71954,277.03876,65,110,0
277.041,277.46658,75,110,0
277.041,277.46658,70,110,0
277.041,277.46658,67,110,0
277.89813,278.46658,86,120,0
277.89813,278.46658,80,120,0
277.89813,278.46658,77,120,0
277.89813,278.46658,74,120,0
278.75528,279.60944,87,120,0
278.75528,279.60944,79,120,0
278.75528,279.60944,75,120,0
280.18384,280.46658,75,1,0
0.0,0.10879619,51,80,0
0.111111,0.2199072,55,80,0
0.222222,0.33101818,46,80,0
0.333333,0.4421292,51,80,0
0.444444,0.5532402,55,80,0
0.555555,0.66435117,50,80,0
0.666666,0.7754622,51,80,0
0.777777,0.8865732,55,80,0
0.888888,0.9976842,46,80,0
0.999999,1.1087952,51,80,0
1.11111,1.2199062,55,80,0
1.222221,1.3310171,50,80,0
1.333332,1.4421282,51,80,0
1.444443,1.5532392,55,80,0
1.555554,1.6643502,46,80,0
1.666665,1.7754612,53,80,0
1.777776,1.8865722,56,80,0
1.888887,1.9976832,52,80,0
1.999998,2.1087942,53,80,0
2.111109,2.2199051,56,80,0
2.22222,2.3310163,46,80,0
2.333331,2.4421272,51,80,0
2.444442,2.5532382,55,80,0
2.555553,2.664349,50,80,0
2.666664,2.7754602,51,80,0
2.777775,2.8865712,55,80,0
2.888886,2.997682,46,80,0
2.999997,3.1087933,53,80,0
3.111108,3.2199042,56,80,0
3.222219,3.331015,52,80,0
3.33333,3.4421263,53,80,0
3.444441,3.5532372,56,80,0
3.555552,3.7754593,39,80,0
3.555552,3.7754593,51,80,0
3.999996,4.1087923,51,80,0
4.111107,4.219903,55,80,0
4.222218,4.331014,46,80,0
4.333329,4.4421253,51,80,0
4.44444,4.553236,55,80,0
4.555551,4.664347,50,80,0
4.666662,4.7754583,51,80,0
4.777773,4.886569,55,80,0
4.888884,4.99768,46,80,0
4.999995,5.1087914,51,80,0
5.111106,5.219902,55,80,0
5.222217,5.331013,50,80,0
5.333328,5.4421244,51,80,0
5.444439,5.553235,55,80,0
5.55555,5.664346,46,80,0
5.666661,5.7754574,53,80,0
5.777772,5.886568,56,80,0
5.888883,5.997679,52,80,0
5.999994,6.1087904,53,80,0
6.111105,6.219901,56,80,0
6.222216,6.3310122,46,80,0
6.333327,6.4421234,51,80,0
6.444438,6.553234,55,80,0
6.555549,6.6643453,50,80,0
6.66666,6.775456,51,80,0
6.777771,6.886567,55,80,0
6.888882,6.9976783,46,80,0
6.999993,7.108789,53,80,0
7.111104,7.2199,56,80,0
7.222215,7.3310113,52,80,0
7.333326,7.442122,53,80,0
7.444437,7.553233,56,80,0
7.555548,7.775455,39,80,0
7.555548,7.775455,51,80,0
8.222214,8.4421215,51,110,0
8.222214,8.4421215,39,110,0
8.555547,8.7754545,70,110,0
9.222213,9.442121,70,110,0
9.888879,10.108787,70,110,0
10.222212,10.44212,70,110,0
10.888878,11.108786,46,110,0
10.888878,11.108786,34,110,0
11.222211,11.442119,70,110,0
11.888877,12.108784,70,110,0
12.555543,12.77545,70,110,0
12.888876,13.108783,70,110,0
13.555542,13.88656,48,80,0
13.888875,14.219893,44,80,0
13.222209,14.442115,51,80,0
14.222208,14.442115,43,80,0
14.888874,15.2198925,48,80,0
15.222207,15.5532255,44,80,0
14.555541,15.775447,51,80,0
15.55554,15.775447,43,80,0
16.222206,16.553225,48,80,0
16.555538,16.886557,44,80,0
15.888873,17.10878,51,80,0
16.888872,17.10878,43,80,0
17.222204,17.442112,53,80,0
17.222204,17.442112,44,80,0
17.555538,17.775446,55,80,0
17.555538,17.775446,46,80,0
17.88887,18.108778,56,80,0
17.88887,18.108778,46,80,0
18.222204,18.442112,39,80,0
18.88887,19.219889,47,80,0
19.222202,19.55322,44,80,0
18.555536,19.775444,51,80,0
19.555536,19.775444,42,80,0
20.222202,20.55322,47,80,0
20.555534,20.886553,44,80,0
19.888868,21.108776,51,80,0
20.888868,21.108776,42,80,0
21.555534,21.886553,48,91,0
21.2222,22.219885,51,80,0
21.888866,22.219885,46,102,0
22.2222,22.330996,44,110,0
22.333311,22.442106,60,110,0
22.444422,22.553219,63,110,0
22.555532,22.66433,57,110,0
22.666643,22.77544,60,110,0
22.777756,22.88655,63,110,0
22.888866,22.997662,57,110,0
22.999977,23.108772,60,110,0
23.111088,23.219885,63,110,0
23.222198,23.330996,57,110,0
23.33331,23.442106,60,110,0
23.444422,23.553217,63,110,0
23.555532,23.664328,57,110,0
23.666643,23.775438,60,110,0
23.777754,23.88655,63,110,0
23.888865,23.997662,57,110,0
23.999975,24.108772,60,110,0
24.111088,24.219883,63,110,0
24.222198,24.330994,57,110,0
24.33331,24.442104,60,110,0
24.44442,24.553217,63,110,0
24.55553,24.664328,57,110,0
24.666641,24.775438,60,110,0
24.777754,24.886549,63,110,0
24.888865,24.99766,57,110,0
24.999975,25.10877,60,110,0
25.111086,25.219883,63,110,0
25.222197,25.330994,57,110,0
25.333307,25.442104,60,110,0
25.44442,25.553215,63,110,0
25.55553,25.664326,57,110,0
25.666641,25.775436,60,110,0
25.777752,25.886549,63,110,0
25.888863,25.99766,57,110,0
25.999973,26.10877,60,110,0
26.111086,26.219881,63,110,0
26.222197,26.330992,57,110,0
26.333307,26.442102,60,110,0
26.444418,26.553215,63,110,0
26.555529,26.664326,57,110,0
26.66664,26.775436,60,110,0
26.777752,26.886547,63,110,0
26.888863,26.997658,57,110,0
26.999973,27.108768,60,110,0
27.111084,27.219881,63,110,0
27.222195,27.330992,57,110,0
27.333305,27.442102,60,110,0
27.444418,27.553213,63,110,0
27.555529,27.664324,57,110,0
27.66664,27.775434,60,110,0
27.77775,27.886547,63,110,0
27.88886,27.997658,62,110,0
27.999971,28.108768,60,110,0
28.111082,28.21988,58,110,0
28.222195,28.33099,57,110,0
28.333305,28.4421,58,110,0
28.444416,28.553213,60,110,0
28.555527,28.664324,58,110,0
28.666637,28.775434,57,110,0
28.777748,28.886545,55,110,0
28.88886,28.997656,53,110,0
28.999971,29.108767,55,110,0
29.111082,29.219877,57,110,0
29.222193,29.33099,55,110,0
29.333303,29.4421,53,110,0
29.444414,29.553211,51,110,0
29.555527,29.664322,50,110,0
29.666637,29.775433,51,110,0
29.777748,29.886543,53,110,0
29.888859,29.997656,51,110,0
29.99997,30.108767,50,110,0
30.11108,30.219877,48,110,0
30.222193,30.442099,39,110,0
30.888859,31.108765,60,110,0
30.888859,31.108765,55,110,0
30.888859,31.108765,51,110,0
31.888857,31.997654,51,110,0
31.999968,32.108765,55,110,0
32.11108,32.219875,60,110,0
32.22219,32.330986,53,110,0
32.3333,32.442097,58,110,0
32.444412,32.553207,62,110,0
32.555523,32.664318,53,110,0
32.666634,32.77543,60,110,0
32.777744,32.88654,63,110,0
32.888855,32.997654,57,110,0
32.999966,33.108765,60,110,0
33.111076,33.219875,63,110,0
33.22219,33.330986,62,110,0
33.3333,33.442097,60,110,0
33.444412,33.553207,58,110,0
33.555523,33.664318,57,110,0
33.666634,33.77543,58,110,0
33.777744,33.88654,60,110,0
33.888855,33.99765,58,110,0
33.999966,34.10876,57,110,0
34.111076,34.21987,55,110,0
34.222187,34.330986,53,110,0
34.333298,34.442097,55,110,0
34.44441,34.553207,56,110,0
34.55552,34.664318,55,110,0
34.666634,34.77543,53,110,0
34.777744,34.88654,51,110,0
34.888855,34.99765,50,110,0
34.999966,35.10876,51,110,0
35.111076,35.21987,53,110,0
35.222187,35.330982,51,110,0
35.333298,35.442093,50,110,0
35.44441,35.553204,48,110,0
35.55552,35.77543,39,110,0
36.222187,36.442093,55,110,0
36.222187,36.442093,51,110,0
36.88885,37.10876,60,110,0
36.88885,37.10876,55,110,0
36.88885,37.10876,51,110,0
37.55552,37.775425,63,110,0
37.55552,37.775425,60,110,0
37.55552,37.775425,55,110,0
37.55552,37.775425,51,110,0
38.333294,38.442093,63,110,0
38.444405,38.553204,60,110,0
38.555515,38.664314,55,110,0
38.66663,38.775425,60,110,0
38.77774,38.886536,55,110,0
38.88885,38.997646,51,110,0
38.99996,39.108757,63,110,0
39.111073,39.219868,60,110,0
39.222183,39.33098,55,110,0
39.333294,39.44209,60,110,0
39.444405,39.5532,55,110,0
39.555515,39.775425,51,110,0
41.22218,41.44209,60,110,0
41.22218,41.44209,55,110,0
41.22218,41.44209,51,110,0
41.555515,41.77542,62,110,0
41.555515,41.77542,58,110,0
41.555515,41.77542,53,110,0
41.888847,42.108753,63,110,0
41.888847,42.108753,57,110,0
41.888847,42.108753,53,110,0
42.22218,42.330975,46,100,0
42.33329,42.44209,53,80,0
42.4444,42.5532,58,80,0
42.55551,42.66431,62,80,0
42.666622,42.77542,58,80,0
42.777737,42.88653,53,80,0
42.888847,42.997643,46,80,0
42.999958,43.108753,53,80,0
43.11107,43.219864,58,80,0
43.22218,43.330975,62,80,0
43.33329,43.442085,58,80,0
43.4444,43.553196,53,80,0
43.55551,43.664307,46,80,0
43.666622,43.775417,53,80,0
43.777733,43.88653,58,80,0
43.888844,43.997643,62,80,0
43.999954,44.108753,58,80,0
44.11107,44.219864,53,80,0
44.22218,44.330975,46,80,0
44.33329,44.442085,53,80,0
44.4444,44.553196,58,80,0
44.55551,44.664307,62,80,0
44.666622,44.775417,58,80,0
44.777733,44.886528,53,80,0
44.888844,44.99764,46,80,0
44.999954,45.10875,53,80,0
45.111065,45.219864,58,80,0
45.222176,45.330975,62,80,0
45.333286,45.442085,58,80,0
45.4444,45.553196,53,80,0
45.55551,45.664307,41,80,0
45.666622,45.775417,53,80,0
45.777733,45.886528,57,80,0
45.888844,45.99764,60,80,0
45.999954,46.10875,57,80,0
46.111065,46.21986,53,80,0
46.222176,46.33097,46,80,0
46.333286,46.44208,53,80,0
46.444397,46.553196,58,80,0
46.555508,46.664307,62,80,0
46.66662,46.775417,58,80,0
46.777733,46.886528,53,80,0
46.888844,46.99764,46,80,0
46.999954,47.10875,53,80,0
47.111065,47.21986,58,80,0
47.222176,47.33097,62,80,0
47.333286,47.44208,58,80,0
47.444397,47.553192,53,80,0
47.555508,47.664303,46,80,0
47.66662,47.775414,53,80,0
47.77773,47.886528,58,80,0
47.88884,47.99764,62,80,0
47.99995,48.10875,58,80,0
48.11106,48.21986,53,80,0
48.222176,48.33097,46,80,0
48.333286,48.44208,53,80,0
48.444397,48.553192,58,80,0
48.555508,48.664303,62,80,0
48.66662,48.775414,58,80,0
48.77773,48.886524,53,80,0
48.88884,48.997635,46,80,0
48.99995,49.108746,53,80,0
49.11106,49.21986,58,80,0
49.22217,49.33097,62,80,0
49.333282,49.44208,58,80,0
49.444393,49.553192,53,80,0
49.555508,49.664303,46,80,0
49.66662,49.775414,50,80,0
49.77773,49.886524,53,80,0
49.88884,49.997635,58,80,0
49.99995,50.108746,53,80,0
50.11106,50.219856,50,80,0
50.22217,50.442078,46,80,0
50.555504,50.775414,34,120,0
50.88884,51.108746,34,120,0
51.22217,51.442078,34,120,0
51.555504,52.6643,34,120,0
52.666615,52.77541,51,80,0
52.777725,52.88652,55,80,0
52.888836,52.99763,46,80,0
52.999947,53.10874,51,80,0
53.111057,53.219852,55,80,0
53.222168,53.330967,50,80,0
53.33328,53.442078,51,80,0
53.44439,53.55319,55,80,0
53.555504,53.6643,46,80,0
53.666615,53.77541,51,80,0
53.777725,53.88652,55,80,0
53.888836,53.99763,50,80,0
53.999947,54.10874,51,80,0
54.111057,54.219852,55,80,0
54.222168,54.330963,46,80,0
54.33328,54.442074,53,80,0
54.44439,54.553185,56,80,0
54.5555,54.6643,52,80,0
54.66661,54.77541,53,80,0
54.77772,54.88652,56,80,0
54.888836,54.99763,46,80,0
54.999947,55.10874,51,80,0
55.111057,55.219852,55,80,0
55.222168,55.330963,50,80,0
55.33328,55.442074,51,80,0
55.44439,55.553185,55,80,0
55.5555,55.664295,46,80,0
55.66661,55.775406,53,80,0
55.77772,55.886517,56,80,0
55.888832,55.99763,52,80,0
55.999943,56.10874,53,80,0
56.111053,56.219852,56,80,0
56.222164,56.442074,39,80,0
56.222164,56.442074,51,80,0
56.66661,56.775406,51,80,0
56.77772,56.886517,55,80,0
56.888832,56.997627,46,80,0
56.999943,57.108738,51,80,0
57.111053,57.21985,55,80,0
57.222164,57.33096,50,80,0
57.333275,57.442074,51,80,0
57.444386,57.553185,55,80,0
57.555496,57.664295,46,80,0
57.66661,57.775406,51,80,0
57.77772,57.886517,55,80,0
57.888832,57.997627,50,80,0
57.999943,58.108738,51,80,0
58.111053,58.21985,55,80,0
58.222164,58.33096,46,80,0
58.333275,58.44207,53,80,0
58.444386,58.55318,56,80,0
58.555496,58.66429,52,80,0
58.666607,58.775406,53,80,0
58.777718,58.886517,56,80,0
58.88883,58.997627,46,80,0
58.999943,59.108738,51,80,0
59.111053,59.21985,55,80,0
59.222164,59.33096,50,80,0
59.333275,59.44207,51,80,0
59.444386,59.55318,55,80,0
59.555496,59.66429,46,80,0
59.666607,59.775402,53,80,0
59.777718,59.886513,56,80,0
59.88883,59.997623,52,80,0
59.99994,60.108738,53,80,0
60.11105,60.21985,56,80,0
60.22216,60.44207,39,80,0
60.22216,60.44207,51,80,0
60.88883,61.108734,51,110,0
60.88883,61.108734,39,110,0
61.22216,61.44207,70,110,0
61.88883,62.108734,70,110,0
62.555492,62.775402,70,110,0
62.888824,63.108734,70,110,0
63.555492,63.7754,46,110,0
63.555492,63.7754,34,110,0
63.888824,64.108734,70,110,0
64.55549,64.7754,70,110,0
65.22216,65.44206,70,110,0
65.55549,65.7754,70,110,0
66.22215,66.55318,48,80,0
66.55549,66.886505,44,80,0
65.888824,67.10873,51,80,0
66.888824,67.10873,43,80,0
67.55549,67.886505,48,80,0
67.888824,68.21984,44,80,0
67.22215,68.44206,51,80,0
68.22215,68.44206,43,80,0
68.88882,69.21984,48,80,0
69.22215,69.55317,44,80,0
68.55549,69.77539,51,80,0
69.55549,69.77539,43,80,0
69.88882,70.10873,53,80,0
69.88882,70.10873,44,80,0
70.22215,70.44206,55,80,0
70.22215,70.44206,46,80,0
70.55549,70.77539,56,80,0
70.55549,70.77539,46,80,0
70.88882,71.10873,39,80,0
71.55548,71.886505,47,80,0
71.88882,72.21983,44,80,0
71.22215,72.442055,51,80,0
72.22215,72.442055,42,80,0
72.88882,73.21983,47,80,0
73.22215,73.55317,44,80,0
72.55548,73.77539,51,80,0
73.55548,73.77539,42,80,0
74.222145,74.55317,48,91,0
73.88882,74.8865,51,80,0
74.55548,74.8865,46,102,0
74.88882,74.99761,44,110,0
74.99992,75.10872,60,110,0
75.11104,75.21983,63,110,0
75.222145,75.33094,57,110,0
75.33326,75.442055,60,110,0
75.44437,75.55316,63,110,0
75.55548,75.664276,57,110,0
75.66659,75.77539,60,110,0
75.7777,75.8865,63,110,0
75.88881,75.99761,57,110,0
75.99992,76.10872,60,110,0
76.11104,76.21983,63,110,0
76.222145,76.33094,57,110,0
76.33326,76.442055,60,110,0
76.44437,76.55316,63,110,0
76.55548,76.664276,57,110,0
76.66659,76.77538,60,110,0
76.7777,76.8865,63,110,0
76.88881,76.99761,57,110,0
76.99992,77.10872,60,110,0
77.11103,77.21983,63,110,0
77.222145,77.33094,57,110,0
77.33326,77.442055,60,110,0
77.44437,77.55316,63,110,0
77.55548,77.664276,57,110,0
77.66659,77.77538,60,110,0
77.7777,77.8865,63,110,0
77.88881,77.997604,57,110,0
77.99992,78.10872,60,110,0
78.11103,78.219826,63,110,0
78.222145,78.33094,57,110,0
78.33325,78.442055,60,110,0
78.44437,78.55316,63,110,0
78.55547,78.664276,57,110,0
78.66659,78.77538,60,110,0
78.7777,78.8865,63,110,0
78.88881,78.997604,57,110,0
78.99992,79.10872,60,110,0
79.11103,79.219826,63,110,0
79.222145,79.33094,57,110,0
79.33325,79.44205,60,110,0
79.44437,79.55316,63,110,0
79.55547,79.66427,57,110,0
79.66659,79.77538,60,110,0
79.777695,79.8865,63,110,0
79.88881,79.997604,57,110,0
79.99992,80.10872,60,110,0
80.11103,80.219826,63,110,0
80.222145,80.33094,57,110,0
80.33325,80.44205,60,110,0
80.44437,80.55316,63,110,0
80.55547,80.66427,62,110,0
80.66659,80.77538,60,110,0
80.777695,80.88649,58,110,0
80.88881,80.997604,57,110,0
80.999916,81.10872,58,110,0
81.11103,81.219826,60,110,0
81.22214,81.33094,58,110,0
81.33325,81.44205,57,110,0
81.44437,81.55316,55,110,0
81.55547,81.66427,53,110,0
81.66659,81.77538,55,110,0
81.777695,81.88649,57,110,0
81.88881,81.997604,55,110,0
81.999916,82.10871,53,110,0
82.11103,82.219826,51,110,0
82.22214,82.33093,50,110,0
82.33325,82.44205,51,110,0
82.44436,82.55316,53,110,0
82.55547,82.66427,51,110,0
82.66658,82.77538,50,110,0
82.777695,82.88649,48,110,0
82.88881,83.10871,39,110,0
83.55547,83.77538,60,110,0
83.55547,83.77538,55,110,0
83.55547,83.77538,51,110,0
84.55547,84.66427,51,110,0
84.66658,84.775375,55,110,0
84.777695,84.88649,60,110,0
84.8888,84.9976,53,110,0
84.999916,85.10871,58,110,0
85.11102,85.219826,62,110,0
85.22214,85.33093,53,110,0
85.333244,85.44205,60,110,0
85.44436,85.553154,63,110,0
85.55547,85.66427,57,110,0
85.66658,85.775375,60,110,0
85.777695,85.88649,63,110,0
85.8888,85.9976,62,110,0
85.999916,86.10871,60,110,0
86.11102,86.21982,58,110,0
86.22214,86.33093,57,110,0
86.333244,86.44204,58,110,0
86.44436,86.553154,60,110,0
86.555466,86.66427,58,110,0
86.66658,86.775375,57,110,0
86.777695,86.88649,55,110,0
86.8888,86.9976,53,110,0
86.999916,87.10871,55,110,0
87.11102,87.21982,56,110,0
87.22214,87.33093,55,110,0
87.333244,87.44204,53,110,0
87.44436,87.553154,51,110,0
87.555466,87.66426,50,110,0
87.66658,87.775375,51,110,0
87.77769,87.88649,53,110,0
87.8888,87.9976,51,110,0
87.99991,88.10871,50,110,0
88.11102,88.21982,48,110,0
88.22214,88.44204,39,110,0
88.8888,89.1087,55,110,0
88.8888,89.1087,51,110,0
89.555466,89.775375,60,110,0
89.555466,89.775375,55,110,0
89.555466,89.775375,51,110,0
90.22213,90.44204,63,110,0
90.22213,90.44204,60,110,0
90.22213,90.44204,55,110,0
90.22213,90.44204,51,110,0
90.99991,91.1087,63,110,0
91.11102,91.21982,60,110,0
91.22213,91.330925,55,110,0
91.333244,91.44204,60,110,0
91.44435,91.55315,55,110,0
91.555466,91.66426,51,110,0
91.66657,91.77537,63,110,0
91.77769,91.88648,60,110,0
91.888794,91.9976,55,110,0
91.99991,92.1087,60,110,0
92.111015,92.21982,55,110,0
92.22213,92.44204,51,110,0
93.888794,94.1087,60,110,0
93.888794,94.1087,55,110,0
93.888794,94.1087,51,110,0
94.22213,94.44203,62,110,0
94.22213,94.44203,58,110,0
94.22213,94.44203,53,110,0
94.55546,94.77537,63,110,0
94.55546,94.77537,57,110,0
94.55546,94.77537,53,110,0
94.888794,94.99759,46,110,0
94.99991,95.1087,53,80,0
95.111015,95.21981,58,80,0
95.22213,95.330925,62,80,0
95.33324,95.44203,58,80,0
95.44435,95.55315,53,80,0
95.55546,95.66425,46,80,0
95.66657,95.77537,53,80,0
95.77768,95.886475,58,80,0
95.888794,95.99759,62,80,0
95.9999,96.1087,58,80,0
96.111015,96.21981,53,80,0
96.22212,96.330925,46,80,0
96.33324,96.44203,53,80,0
96.44435,96.55315,58,80,0
96.55546,96.66425,62,80,0
96.66657,96.77537,58,80,0
96.77768,96.886475,53,80,0
96.888794,96.99759,46,80,0
96.9999,97.108696,53,80,0
97.111015,97.21981,58,80,0
97.22212,97.330925,62,80,0
97.33324,97.44203,58,80,0
97.44434,97.55315,53,80,0
97.55546,97.66425,46,80,0
97.66657,97.77537,53,80,0
97.77768,97.886475,58,80,0
97.888794,97.99759,62,80,0
97.9999,98.108696,58,80,0
98.111015,98.21981,53,80,0
98.22212,98.33092,41,80,0
98.33324,98.44203,53,80,0
98.44434,98.55314,57,80,0
98.55546,98.66425,60,80,0
98.666565,98.77537,57,80,0
98.77768,98.886475,53,80,0
98.88879,98.99759,46,80,0
98.9999,99.108696,53,80,0
99.111015,99.21981,58,80,0
99.22212,99.33092,62,80,0
99.33324,99.44203,58,80,0
99.44434,99.55314,53,80,0
99.55546,99.66425,46,80,0
99.666565,99.77536,53,80,0
99.77768,99.886475,58,80,0
99.88879,99.99758,62,80,0
99.9999,100.108696,58,80,0
100.11101,100.21981,53,80,0
100.22212,100.33092,46,80,0
100.33324,100.44203,53,80,0
100.44434,100.55314,58,80,0
100.55546,100.66425,62,80,0
100.666565,100.77536,58,80,0
100.77768,100.886475,53,80,0
100.88879,100.99758,46,80,0
100.9999,101.108696,53,80,0
101.11101,101.2198,58,80,0
101.22212,101.33092,62,80,0
101.33323,101.44203,58,80,0
101.44434,101.55314,53,80,0
101.55545,101.66425,46,80,0
101.666565,101.77536,53,80,0
101.77768,101.886475,58,80,0
101.88879,101.99758,62,80,0
101.9999,102.108696,58,80,0
102.11101,102.2198,53,80,0
102.22212,102.33092,46,80,0
102.33323,102.442024,50,80,0
102.44434,102.55314,53,80,0
102.55545,102.664246,58,80,0
102.666565,102.77536,53,80,0
102.77767,102.886475,50,80,0
102.88879,103.108696,46,80,0
103.22212,103.442024,34,110,0
103.55545,103.77536,34,110,0
103.88879,104.108696,34,110,0
104.222115,105.55314,34,110,0
105.93045,106.17785,37,110,0
106.30545,106.55285,37,110,0
106.68045,106.92785,37,110,0
107.05545,108.92785,37,110,0
109.27767,109.49758,42,80,0
109.27767,109.49758,30,80,0
109.61101,109.83091,73,80,0
110.27767,110.49758,73,80,0
110.944336,111.164246,73,80,0
111.27767,111.497574,73,80,0
111.944336,112.164246,49,80,0
111.944336,112.164246,37,80,0
112.27767,112.497574,73,80,0
112.944336,113.164246,73,80,0
113.611,113.83091,73,80,0
113.944336,114.16424,73,80,0
114.277664,114.497574,37,100,0
114.499886,114.60869,37,101,0
114.611,114.83091,42,102,0
114.611,114.83091,30,102,0
114.83322,114.94202,42,103,0
114.944336,115.16424,37,104,0
115.16656,115.27535,37,106,0
115.277664,115.497574,42,106,0
115.277664,115.497574,30,106,0
115.499886,115.60868,42,108,0
115.611,115.83091,37,109,0
115.83322,115.94202,37,110,0
115.94433,116.16424,42,111,0
115.94433,116.16424,30,111,0
116.16656,116.27535,42,113,0
116.277664,116.497574,37,113,0
116.499886,116.60868,37,115,0
116.611,116.8309,42,116,0
116.611,116.8309,30,116,0
116.83322,116.94202,46,117,0
116.94433,117.16424,49,118,0
117.16655,117.27535,42,119,0
117.277664,117.38646,35,120,0
117.38878,117.497574,38,120,0
117.499886,117.60868,42,120,0
117.611,117.719795,47,120,0
117.72211,117.8309,38,120,0
117.83322,117.94202,42,120,0
117.94433,118.05312,35,120,0
118.05544,118.16424,38,120,0
118.16655,118.275345,42,120,0
118.277664,118.38646,47,120,0
118.38877,118.497574,38,120,0
118.499886,118.60868,42,120,0
118.61099,118.719795,35,120,0
118.72211,118.8309,38,120,0
118.83322,118.94202,42,120,0
118.94433,119.05312,47,120,0
119.05544,119.16424,38,120,0
119.16655,119.275345,42,120,0
119.277664,119.38646,35,120,0
119.38877,119.49757,38,120,0
119.499886,119.60868,42,120,0
119.61099,119.71979,47,120,0
119.72211,119.8309,38,120,0
119.83321,119.94202,42,120,0
119.94433,120.16424,43,120,0
119.94433,120.16424,31,120,0
120.16655,120.275345,43,120,0
120.277664,120.49757,38,120,0
120.499886,120.60868,38,120,0
120.61099,120.8309,43,120,0
120.61099,120.8309,31,120,0
120.83321,120.94201,43,120,0
120.94433,121.16424,38,120,0
121.16655,121.275345,38,120,0
121.27766,121.49757,43,120,0
121.27766,121.49757,31,120,0
121.499886,121.60868,43,120,0
121.61099,121.8309,38,120,0
121.83321,121.94201,38,120,0
121.94433,122.16423,43,120,0
121.94433,122.16423,31,120,0
122.16655,122.275345,47,120,0
122.27766,122.49757,50,120,0
122.49988,122.60868,43,120,0
122.61099,122.71979,36,120,0
122.7221,122.8309,39,120,0
122.83321,122.94201,43,120,0
122.94433,123.05312,48,120,0
123.055435,123.16423,39,120,0
123.16655,123.275345,43,120,0
123.27766,123.38645,36,120,0
123.38877,123.49757,39,120,0
123.49988,123.60867,43,120,0
123.61099,123.71979,48,120,0
123.7221,123.830894,39,120,0
123.83321,123.94201,43,120,0
123.94432,124.05312,36,120,0
124.055435,124.16423,39,120,0
124.16655,124.275345,43,120,0
124.27766,124.38645,48,120,0
124.38877,124.49757,39,120,0
124.49988,124.60867,43,120,0
124.61099,124.71979,36,120,0
124.7221,124.830894,39,120,0
124.83321,124.94201,43,120,0
124.94432,125.053116,48,120,0
125.055435,125.16423,36,120,0
125.16654,125.275345,48,120,0
125.27766,125.38645,32,120,0
125.38876,125.49757,36,120,0
125.49988,125.60867,39,120,0
125.61099,125.71979,44,120,0
125.7221,125.830894,36,120,0
125.83321,125.94201,39,120,0
125.94432,126.053116,32,120,0
126.055435,126.16423,36,120,0
126.16654,126.27534,39,120,0
126.27766,126.38645,44,120,0
126.38876,126.49756,36,120,0
126.49988,126.60867,39,120,0
126.610985,126.71979,32,120,0
126.7221,126.830894,36,120,0
126.83321,126.94201,39,120,0
126.94432,127.053116,44,120,0
127.055435,127.16423,36,120,0
127.16654,127.27534,39,120,0
127.27766,127.38645,32,120,0
127.38876,127.49756,36,120,0
127.49988,127.60867,39,120,0
127.610985,127.71978,44,120,0
127.7221,127.830894,32,120,0
127.833206,127.94201,44,120,0
127.94432,128.05312,29,120,0
128.05544,128.16423,32,120,0
128.16653,128.27534,37,120,0
128.27765,128.38644,41,120,0
128.38876,128.49756,32,120,0
128.49988,128.60867,37,120,0
128.611,128.71979,29,120,0
128.72209,128.83089,32,120,0
128.8332,128.942,37,120,0
128.94432,129.05312,41,120,0
129.05544,129.16423,32,120,0
129.16653,129.27533,37,120,0
129.27765,129.38644,29,120,0
129.38876,129.49756,32,120,0
129.49988,129.60867,37,120,0
129.611,129.71979,41,120,0
129.72209,129.83089,32,120,0
129.8332,129.942,37,120,0
129.94432,130.05312,29,120,0
130.05544,130.16423,32,120,0
130.16653,130.27533,37,120,0
130.27765,130.38644,41,120,0
130.38876,130.49756,32,120,0
130.49988,130.60867,37,120,0
130.61098,130.71979,31,120,0
130.72209,130.83089,35,120,0
130.8332,130.942,38,120,0
130.94432,131.05312,43,120,0
131.05544,131.16423,35,120,0
131.16653,131.27533,38,120,0
131.27765,131.38644,31,120,0
131.38876,131.49756,35,120,0
131.49988,131.60867,38,120,0
131.61098,131.71977,43,120,0
131.72209,131.83089,35,120,0
131.8332,131.942,38,120,0
131.94432,132.05312,31,120,0
132.05542,132.16423,35,120,0
132.16653,132.27533,38,120,0
132.27765,132.38644,43,120,0
132.38876,132.49756,35,120,0
132.49988,132.60867,38,120,0
132.61098,132.71977,31,120,0
132.72209,132.83089,35,120,0
132.8332,132.942,38,120,0
132.94432,133.05312,43,120,0
133.05542,133.16422,41,120,0
133.16653,133.27533,38,120,0
133.27765,133.49756,36,120,0
133.61098,133.83089,67,80,0
134.27765,134.49756,67,80,0
134.9443,135.16422,67,80,0
135.27765,135.49756,67,80,0
135.9443,136.16422,43,80,0
135.9443,136.16422,31,80,0
136.27765,136.49756,67,80,0
136.9443,137.16422,67,80,0
137.61098,137.83089,67,80,0
137.9443,138.16422,67,80,0
138.27765,138.49754,58,105,0
138.49986,138.60866,58,105,0
138.61098,138.83089,61,105,0
138.9443,139.16422,58,105,0
139.16653,139.27533,58,105,0
139.27765,139.49754,61,105,0
139.61098,139.83089,58,105,0
139.83319,139.94199,58,105,0
139.9443,140.16422,61,105,0
140.27763,140.49754,58,105,0
140.49986,140.60866,58,105,0
140.61098,140.71977,61,105,0
140.72209,140.83089,58,105,0
140.83319,140.94199,60,105,0
140.9443,141.0531,61,105,0
141.05542,141.16422,60,105,0
141.16653,141.27533,58,105,0
141.27763,141.38643,57,105,0
141.38875,141.49754,45,105,0
141.49986,141.60866,48,105,0
141.61098,141.71977,53,105,0
141.72208,141.83089,57,105,0
141.83319,141.94199,60,105,0
142.05542,142.16422,48,105,0
142.16653,142.27533,53,105,0
142.27763,142.38643,57,105,0
142.38875,142.49754,60,105,0
142.49986,142.60866,65,105,0
142.72208,142.83087,53,105,0
142.83319,142.94199,57,105,0
142.9443,143.0531,60,105,0
143.05542,143.16422,65,105,0
143.16653,143.27533,69,105,0
143.61098,143.83087,56,105,0
143.83319,143.94199,56,105,0
143.9443,144.16422,59,105,0
144.27763,144.49754,56,105,0
144.49986,144.60866,56,105,0
144.61098,144.83087,59,105,0
144.9443,145.16422,56,105,0
145.16652,145.27531,56,105,0
145.27763,145.49754,59,105,0
145.61096,145.83087,56,105,0
145.83319,145.94199,56,105,0
145.9443,146.0531,59,105,0
146.05542,146.16422,56,105,0
146.16652,146.27531,58,105,0
146.27763,146.38643,59,105,0
146.38875,146.49754,58,105,0
146.49986,146.60866,56,105,0
146.61096,146.71976,55,105,0
146.72208,146.83087,43,105,0
146.83319,146.94199,46,105,0
146.9443,147.0531,51,105,0
147.0554,147.16422,55,105,0
147.16652,147.27531,58,105,0
147.38875,147.49754,46,105,0
147.49986,147.60866,51,105,0
147.61096,147.71976,55,105,0
147.72208,147.83087,58,105,0
147.83319,147.94199,63,105,0
148.0554,148.1642,51,105,0
148.16652,148.27531,55,105,0
148.27763,148.38643,58,105,0
148.38875,148.49754,63,105,0
148.49985,148.60866,67,105,0
148.9443,149.1642,43,105,0
149.16652,149.27531,43,105,0
149.27763,149.38643,44,100,0
149.38875,149.49754,48,100,0
149.49985,149.60864,51,101,0
149.61096,149.71976,56,102,0
149.72208,149.83087,60,103,0
149.83319,149.94199,63,104,0
149.9443,150.0531,56,105,0
150.0554,150.1642,60,105,0
150.16652,150.27531,63,106,0
150.27763,150.38643,68,107,0
150.38875,150.49754,60,108,0
150.49985,150.60864,63,109,0
150.61096,150.71976,51,110,0
150.72208,150.83087,56,110,0
150.83319,150.94199,60,111,0
150.94429,151.0531,63,112,0
151.0554,151.1642,56,113,0
151.16652,151.27531,60,114,0
151.27763,151.38643,48,115,0
151.38875,151.49754,51,115,0
151.49985,151.60864,56,116,0
151.61096,151.71976,60,117,0
151.72208,151.83087,51,118,0
151.83319,151.94199,56,119,0
151.94429,152.71976,44,120,0
151.94429,152.71976,48,120,0
151.94429,152.71976,51,120,0
151.94429,152.71976,56,120,0
154.27763,154.38643,48,102,0
154.38873,154.49753,44,101,0
154.49985,154.60864,43,101,0
154.61096,154.71976,41,100,0
154.72208,154.83087,44,100,0
154.83318,154.94197,48,101,0
154.94429,155.05309,53,102,0
155.0554,155.1642,56,103,0
155.16652,155.27531,60,104,0
155.27762,155.38643,53,105,0
155.38873,155.49753,56,106,0
155.49985,155.60864,60,106,0
155.61096,155.71976,65,107,0
155.72208,155.83087,56,108,0
155.83318,155.94197,60,109,0
155.94429,156.05309,48,110,0
156.0554,156.1642,53,111,0
156.16652,156.27531,56,112,0
156.27762,156.38641,60,113,0
156.38873,156.49753,53,113,0
156.49985,156.60864,56,114,0
156.61096,156.71976,44,115,0
156.72208,156.83087,48,116,0
156.83318,156.94197,53,117,0
156.94429,157.05309,56,118,0
157.0554,157.1642,48,119,0
157.16652,157.27531,53,119,0
157.27762,158.05309,41,120,0
157.27762,158.05309,44,120,0
157.27762,158.05309,48,120,0
157.27762,158.05309,53,120,0
159.61096,159.71976,44,102,0
159.72206,159.83086,41,101,0
159.83318,159.94197,39,101,0
159.94429,160.05309,38,90,0
160.0554,160.1642,41,90,0
160.1665,160.2753,46,90,0
160.27762,160.38641,50,91,0
160.38873,160.49753,53,91,0
160.49985,160.60864,58,92,0
160.61095,160.71976,50,92,0
160.72206,160.83086,53,92,0
160.83318,160.94197,58,93,0
160.94429,161.05309,62,93,0
161.0554,161.1642,53,94,0
161.1665,161.2753,58,94,0
161.27762,161.38641,46,94,0
161.38873,161.49753,50,95,0
161.49985,161.60864,53,95,0
161.61095,161.71974,58,96,0
161.72206,161.83086,50,96,0
161.83318,161.94197,53,97,0
161.94429,162.05309,41,97,0
162.05539,162.1642,46,97,0
162.1665,162.2753,53,98,0
162.27762,162.38641,38,98,0
162.38873,162.49753,46,99,0
162.49985,162.60864,50,99,0
162.61095,162.94197,46,99,0
162.61095,162.94197,34,99,0
167.61095,167.71974,50,80,0
167.72206,167.83086,51,80,0
167.83318,167.94197,55,80,0
167.94427,168.05307,46,80,0
168.05539,168.16418,51,80,0
168.1665,168.2753,55,80,0
168.27762,168.38641,50,80,0
168.38872,168.49751,51,80,0
168.49983,168.60863,55,80,0
168.61095,168.71974,46,80,0
168.72206,168.83086,51,80,0
168.83316,168.94197,55,80,0
168.94427,169.05307,50,80,0
169.05539,169.16418,51,80,0
169.1665,169.2753,55,80,0
169.27762,169.38641,46,80,0
169.38872,169.49751,53,80,0
169.49983,169.60863,56,80,0
169.61095,169.71974,52,80,0
169.72206,169.83086,53,80,0
169.83316,169.94196,56,80,0
169.94427,170.05307,46,80,0
170.05539,170.16418,51,80,0
170.1665,170.2753,55,80,0
170.27762,170.38641,50,80,0
170.38872,170.49751,51,80,0
170.49983,170.60863,55,80,0
170.61095,170.71974,46,80,0
170.72206,170.83086,53,80,0
170.83316,170.94196,56,80,0
170.94427,171.05307,52,80,0
171.05539,171.16418,53,80,0
171.1665,171.2753,56,80,0
171.2776,171.49751,39,80,0
171.2776,171.49751,51,80,0
171.72206,171.83086,51,80,0
171.83316,171.94196,55,80,0
171.94427,172.05307,46,80,0
172.05539,172.16418,51,80,0
172.1665,172.2753,55,80,0
172.2776,172.3864,50,80,0
172.38872,172.49751,51,80,0
172.49983,172.60863,55,80,0
172.61095,172.71974,46,80,0
172.72205,172.83086,51,80,0
172.83316,172.94196,55,80,0
172.94427,173.05307,50,80,0
173.05539,173.16418,51,80,0
173.1665,173.2753,55,80,0
173.2776,173.3864,46,80,0
173.38872,173.49751,53,80,0
173.49983,173.60863,56,80,0
173.61095,173.71974,52,80,0
173.72205,173.83084,53,80,0
173.83316,173.94196,56,80,0
173.94427,174.05307,46,80,0
174.05539,174.16418,51,80,0
174.16649,174.2753,55,80,0
174.2776,174.3864,50,80,0
174.38872,174.49751,51,80,0
174.49983,174.60863,55,80,0
174.61095,174.71974,46,80,0
174.72205,174.83084,53,80,0
174.83316,174.94196,56,80,0
174.94427,175.05307,52,80,0
175.05539,175.16418,53,80,0
175.16649,175.27528,56,80,0
175.2776,175.49751,39,80,0
175.2776,175.49751,51,80,0
175.94427,176.16418,51,110,0
175.94427,176.16418,39,110,0
176.2776,176.49751,70,110,0
176.94427,177.16418,70,110,0
177.61093,177.83084,70,110,0
177.94427,178.16418,70,110,0
178.61093,178.83084,46,110,0
178.61093,178.83084,34,110,0
178.94427,179.16417,70,110,0
179.61093,179.83084,70,110,0
180.2776,180.49751,70,110,0
180.61093,180.83084,70,110,0
181.2776,181.60861,48,80,0
181.61093,181.94196,44,80,0
180.94426,182.16417,51,80,0
181.94426,182.16417,43,80,0
182.61093,182.94196,48,80,0
182.94426,183.27528,44,80,0
182.2776,183.4975,51,80,0
183.2776,183.4975,43,80,0
183.94426,184.27528,48,80,0
184.2776,184.60861,44,80,0
183.61093,184.83084,51,80,0
184.61093,184.83084,43,80,0
184.94426,185.16417,53,80,0
184.94426,185.16417,44,80,0
185.2776,185.4975,55,80,0
185.2776,185.4975,46,80,0
185.61093,185.83084,56,80,0
185.61093,185.83084,46,80,0
185.94426,186.16417,39,80,0
186.61093,186.94194,47,80,0
186.94426,187.27528,44,80,0
186.27759,187.4975,51,80,0
187.27759,187.4975,42,80,0
187.94426,188.27528,47,80,0
188.27759,188.60861,44,80,0
187.61093,188.83083,51,80,0
188.61093,188.83083,42,80,0
189.27759,189.60861,51,80,0
189.61093,189.94194,47,80,0
188.94426,190.16417,54,80,0
189.94426,190.16417,46,80,0
190.61093,190.94194,51,80,0
190.94426,191.27527,47,80,0
190.27759,191.4975,54,80,0
191.27759,191.4975,46,80,0
191.61092,191.94194,57,90,0
191.94426,192.27527,56,97,0
192.27759,192.60861,54,104,0
192.61092,192.71971,53,110,0
192.72203,192.83083,56,110,0
192.83315,192.94194,59,110,0
192.94426,193.05305,53,110,0
193.05536,193.16417,56,110,0
193.16647,193.27527,59,110,0
193.27759,193.38638,53,110,0
193.3887,193.4975,56,110,0
193.49982,193.60861,59,110,0
193.61092,193.71971,53,110,0
193.72203,193.83083,56,110,0
193.83315,193.94194,59,110,0
193.94426,194.05305,53,110,0
194.05536,194.16415,56,110,0
194.16647,194.27527,59,110,0
194.27759,194.38638,53,110,0
194.3887,194.4975,56,110,0
194.4998,194.60861,59,110,0
194.61092,194.71971,53,110,0
194.72203,194.83083,56,110,0
194.83315,194.94194,59,110,0
194.94426,195.05305,58,110,0
195.05536,195.16415,56,110,0
195.16647,195.27527,54,110,0
195.27759,195.38638,53,110,0
195.3887,195.4975,56,110,0
195.4998,195.6086,59,110,0
195.61092,195.71971,53,110,0
195.72203,195.83083,56,110,0
195.83315,195.94194,59,110,0
195.94424,196.05305,53,110,0
196.05536,196.16415,56,110,0
196.16647,196.27527,59,110,0
196.27759,196.38638,53,110,0
196.3887,196.4975,56,110,0
196.4998,196.6086,59,110,0
196.61092,196.71971,53,110,0
196.72203,196.83083,56,110,0
196.83315,196.94194,59,110,0
196.94424,197.05305,53,110,0
197.05536,197.16415,56,110,0
197.16647,197.27527,59,110,0
197.27759,197.38638,53,110,0
197.3887,197.4975,56,110,0
197.4998,197.6086,59,110,0
197.61092,197.71971,53,110,0
197.72203,197.83083,56,110,0
197.83315,197.94194,59,110,0
197.94424,198.05304,53,110,0
198.05536,198.16415,56,110,0
198.16647,198.27527,59,110,0
198.27759,198.38638,58,110,0
198.38869,198.4975,56,110,0
198.4998,198.6086,54,110,0
198.61092,198.71971,53,110,0
198.72203,198.83083,54,110,0
198.83315,198.94194,56,110,0
198.94424,199.05304,54,110,0
199.05536,199.16415,53,110,0
199.16647,199.27527,51,110,0
199.27759,199.38638,49,110,0
199.38869,199.49748,51,110,0
199.4998,199.6086,52,110,0
199.61092,199.71971,51,110,0
199.72203,199.83083,49,110,0
199.83313,199.94194,47,110,0
199.94424,200.05304,46,110,0
200.05536,200.16415,47,110,0
200.16647,200.27527,49,110,0
200.27759,200.38638,47,110,0
200.38869,200.49748,46,110,0
200.4998,200.6086,44,110,0
200.61092,200.83083,35,110,0
201.27757,201.49748,56,110,0
201.27757,201.49748,51,110,0
201.27757,201.49748,47,110,0
202.27757,202.38637,47,110,0
202.38869,202.49748,51,110,0
202.4998,202.6086,56,110,0
202.61092,202.71971,49,110,0
202.72202,202.83083,54,110,0
202.83313,202.94193,58,110,0
202.94424,203.05304,49,110,0
203.05536,203.16415,56,110,0
203.16647,203.27527,59,110,0
203.27757,203.38637,53,110,0
203.38869,203.49748,56,110,0
203.4998,203.6086,59,110,0
203.61092,203.71971,58,110,0
203.72202,203.83083,56,110,0
203.83313,203.94193,54,110,0
203.94424,204.05304,53,110,0
204.05536,204.16415,54,110,0
204.16647,204.27527,56,110,0
204.27757,204.38637,54,110,0
204.38869,204.49748,53,110,0
204.4998,204.6086,51,110,0
204.61092,204.71971,49,110,0
204.72202,204.83081,51,110,0
204.83313,204.94193,52,110,0
204.94424,205.05304,51,110,0
205.05536,205.16415,49,110,0
205.16646,205.27527,48,110,0
205.27757,205.38637,46,110,0
205.38869,205.49748,47,110,0
205.4998,205.6086,49,110,0
205.61092,205.71971,47,110,0
205.72202,205.83081,46,110,0
205.83313,205.94193,44,110,0
205.94424,206.16415,35,110,0
206.6109,206.83081,56,110,0
206.6109,206.83081,51,110,0
206.6109,206.83081,47,110,0
207.27757,207.49748,59,110,0
207.27757,207.49748,56,110,0
207.27757,207.49748,51,110,0
207.27757,207.49748,47,110,0
207.94424,208.16415,68,110,0
207.94424,208.16415,59,110,0
207.94424,208.16415,63,110,0
208.72202,208.83081,71,110,0
208.83313,208.94193,68,110,0
208.94424,209.05304,63,110,0
209.05534,209.16414,68,110,0
209.16646,209.27525,63,110,0
209.27757,209.38637,59,110,0
209.38869,209.49748,71,110,0
209.49979,209.6086,68,110,0
209.6109,209.7197,63,110,0
209.72202,209.83081,68,110,0
209.83313,209.94193,63,110,0
209.94424,210.16414,59,110,0
211.6109,211.83081,68,110,0
211.6109,211.83081,63,110,0
211.6109,211.83081,59,110,0
211.94423,212.16414,70,110,0
211.94423,212.16414,66,110,0
211.94423,212.16414,61,110,0
212.27757,212.49748,71,110,0
212.27757,212.49748,61,110,0
212.27757,212.49748,65,110,0
212.6109,212.7197,42,110,0
212.72202,212.83081,49,80,0
212.83313,212.94193,54,80,0
212.94423,213.05302,58,80,0
213.05534,213.16414,54,80,0
213.16646,213.27525,49,80,0
213.27757,213.38637,42,80,0
213.38867,213.49748,49,80,0
213.49979,213.60858,54,80,0
213.6109,213.7197,58,80,0
213.72202,213.83081,54,80,0
213.83313,213.94193,49,80,0
213.94423,214.05302,42,80,0
214.05534,214.16414,49,80,0
214.16646,214.27525,54,80,0
214.27757,214.38637,58,80,0
214.38867,214.49747,54,80,0
214.49979,214.60858,49,80,0
214.6109,214.7197,42,80,0
214.72202,214.83081,49,80,0
214.83311,214.94193,54,80,0
214.94423,215.05302,58,80,0
215.05534,215.16414,54,80,0
215.16646,215.27525,49,80,0
215.27757,215.38637,42,80,0
215.38867,215.49747,49,80,0
215.49979,215.60858,54,80,0
215.6109,215.7197,58,80,0
215.72202,215.83081,54,80,0
215.83311,215.94191,49,80,0
215.94423,216.05302,42,80,0
216.05534,216.16414,49,80,0
216.16646,216.27525,53,80,0
216.27756,216.38637,56,80,0
216.38867,216.49747,53,80,0
216.49979,216.60858,49,80,0
216.6109,216.7197,42,80,0
216.72202,216.83081,49,80,0
216.83311,216.94191,54,80,0
216.94423,217.05302,58,80,0
217.05534,217.16414,54,80,0
217.16646,217.27525,49,80,0
217.27756,217.38637,42,80,0
217.38867,217.49747,49,80,0
217.49979,217.60858,54,80,0
217.6109,217.7197,58,80,0
217.72202,217.83081,54,80,0
217.83311,217.94191,49,80,0
217.94423,218.05302,42,80,0
218.05534,218.16414,49,80,0
218.16646,218.27525,54,80,0
218.27756,218.38635,58,80,0
218.38867,218.49747,54,80,0
218.49979,218.60858,49,80,0
218.6109,218.7197,42,80,0
218.722,218.83081,49,80,0
218.83311,218.94191,54,80,0
218.94423,219.05302,58,80,0
219.05534,219.16414,54,80,0
219.16646,219.27525,49,80,0
219.27756,219.38635,42,80,0
219.38867,219.49747,49,80,0
219.49979,219.60858,54,80,0
219.6109,219.7197,42,80,0
219.722,219.8308,49,80,0
219.83311,219.94191,54,80,0
219.94423,220.05302,41,80,0
220.05534,220.16414,46,80,0
220.16644,220.27525,53,80,0
220.27756,220.38635,34,80,0
220.38867,220.49747,41,80,0
220.49979,220.60858,46,80,0
220.6109,220.7197,39,80,0
220.722,220.8308,46,80,0
220.83311,220.94191,51,80,0
220.94423,221.05302,54,80,0
221.05534,221.16414,51,80,0
221.16644,221.27524,46,80,0
221.27756,221.38635,39,80,0
221.38867,221.49747,46,80,0
221.49979,221.60858,51,80,0
221.61089,221.7197,54,80,0
221.722,221.8308,51,80,0
221.83311,221.94191,46,80,0
221.94423,222.05302,39,80,0
222.05534,222.16414,46,80,0
222.16644,222.27524,51,80,0
222.27756,222.38635,54,80,0
222.38867,222.49747,51,80,0
222.49979,222.60858,46,80,0
222.61089,222.71968,39,80,0
222.722,222.8308,46,80,0
222.83311,222.94191,51,80,0
222.94423,223.05302,54,80,0
223.05534,223.16414,51,80,0
223.16644,223.27524,46,80,0
223.27756,223.38635,39,80,0
223.38867,223.49747,46,80,0
223.49979,223.60858,51,80,0
223.61089,223.71968,54,80,0
223.722,223.8308,51,80,0
223.83311,223.94191,46,80,0
223.94423,224.05302,34,80,0
224.05533,224.16414,46,80,0
224.16644,224.27524,50,80,0
224.27756,224.38635,53,80,0
224.38867,224.49747,50,80,0
224.49979,224.60858,46,80,0
224.61089,224.71968,39,80,0
224.722,224.8308,46,80,0
224.83311,224.94191,51,80,0
224.94423,225.05302,54,80,0
225.05533,225.16412,51,80,0
225.16644,225.27524,46,80,0
225.27756,225.38635,39,80,0
225.38867,225.49747,46,80,0
225.49977,225.60858,51,80,0
225.61089,225.71968,54,80,0
225.722,225.8308,51,80,0
225.83311,225.94191,46,80,0
225.94423,226.05302,39,80,0
226.05533,226.16412,46,80,0
226.16644,226.27524,51,80,0
226.27756,226.38635,54,80,0
226.38867,226.49747,51,80,0
226.49977,226.60857,46,80,0
226.61089,226.71968,39,80,0
226.722,226.8308,46,80,0
226.83311,226.94191,51,80,0
226.94421,227.05302,54,80,0
227.05533,227.16412,51,80,0
227.16644,227.27524,46,80,0
227.27756,227.38635,39,80,0
227.38867,227.49747,46,80,0
227.49977,227.60857,51,80,0
227.61089,227.71968,54,80,0
227.722,227.8308,51,80,0
227.83311,227.94191,46,80,0
227.94421,228.05301,51,80,0
228.05533,228.16412,46,80,0
228.16644,228.27524,42,80,0
228.27756,228.38635,46,80,0
228.38866,228.49747,42,80,0
228.49977,228.60857,39,80,0
228.61089,228.8308,34,80,0
229.27756,229.38635,46,80,0
229.38866,229.49745,50,80,0
229.49977,229.60857,53,80,0
229.61089,229.71968,49,80,0
229.722,229.8308,50,80,0
229.83311,229.94191,53,80,0
230.61089,230.71968,46,80,0
230.722,230.8308,50,80,0
230.8331,230.94191,53,80,0
230.94421,231.05301,49,80,0
231.05533,231.16412,50,80,0
231.16644,231.27524,53,80,0
231.94421,232.05301,46,80,0
232.05533,232.16412,53,80,0
232.16644,232.27524,56,80,0
232.27754,232.38635,52,80,0
232.38866,232.49745,53,80,0
232.49977,232.60857,56,80,0
233.27754,233.38634,46,80,0
233.38866,233.49745,53,80,0
233.49977,233.60857,56,80,0
233.61089,233.71968,52,80,0
233.72198,233.8308,53,80,0
233.8331,233.9419,56,80,0
234.27754,234.38634,46,82,0
234.38866,234.49745,53,83,0
234.49977,234.60857,56,84,0
234.94421,235.05301,46,87,0
235.05533,235.16412,53,88,0
235.16643,235.27524,56,89,0
235.61089,235.71968,46,93,0
235.72198,235.83078,53,93,0
235.8331,235.9419,56,94,0
236.27754,236.38634,46,98,0
236.38866,236.49745,53,99,0
236.49977,236.60857,56,99,0
240.49976,240.60857,82,80,0
240.61087,240.83078,82,80,0
240.8331,240.9419,80,80,0
240.94421,241.16411,77,80,0
241.16643,241.27522,74,80,0
241.27754,241.49745,75,80,0
241.8331,241.9419,46,80,0
241.9442,242.16411,46,80,0
242.16643,242.27522,44,80,0
242.27754,242.49745,41,80,0
242.49976,242.60855,38,80,0
242.61087,242.83078,39,80,0
244.49976,244.60855,82,80,0
244.61087,244.83078,82,80,0
244.8331,244.9419,80,80,0
244.9442,245.16411,77,80,0
245.16643,245.27522,74,80,0
245.27754,245.49744,75,80,0
245.83308,245.9419,46,80,0
245.9442,246.16411,46,80,0
246.16643,246.27522,44,80,0
246.27754,246.49744,41,80,0
246.49976,246.60855,38,80,0
246.61087,246.83078,39,80,0
247.16643,247.27522,84,80,0
247.27753,247.49744,84,80,0
247.49976,247.60855,82,80,0
247.61087,247.83078,79,80,0
247.83308,247.94188,76,80,0
247.9442,248.16411,77,80,0
248.49976,248.60855,48,80,0
248.61087,248.83078,48,80,0
248.83308,248.94188,46,80,0
248.9442,249.16411,43,80,0
249.16643,249.27522,40,80,0
249.27753,249.49744,41,80,0
249.83308,249.94188,87,80,0
249.9442,250.16411,87,80,0
250.16643,250.27522,85,80,0
250.27753,250.49744,82,80,0
250.49976,250.60855,79,80,0
250.61087,250.83076,80,80,0
251.16641,251.27522,51,80,0
251.27753,251.49744,51,80,0
251.49976,251.60855,49,80,0
251.61087,251.83076,46,80,0
251.83308,251.94188,43,80,0
251.9442,252.16411,44,80,0
252.49976,252.60855,87,80,0
252.61086,252.83076,87,80,0
252.83308,252.94188,85,80,0
252.9442,253.16411,82,80,0
253.16641,253.2752,79,80,0
253.27753,253.49744,51,80,0
253.49976,253.60855,49,80,0
253.61086,253.83076,46,80,0
253.83308,253.94188,43,80,0
253.9442,254.16411,51,80,0
254.16641,254.2752,49,85,0
254.27753,254.49744,46,88,0
254.49976,254.60855,43,93,0
254.61086,254.83076,51,96,0
254.83308,254.94188,49,101,0
254.9442,255.1641,46,104,0
255.16641,255.2752,43,109,0
255.27753,255.38632,56,110,0
255.38864,255.49744,51,110,0
255.49974,255.60855,48,110,0
255.61086,255.71965,51,110,0
255.72197,255.83076,48,110,0
255.83308,255.94188,44,110,0
255.9442,256.05298,56,110,0
256.0553,256.1641,51,110,0
256.1664,256.2752,48,110,0
256.27753,256.38632,51,110,0
256.38864,256.49744,48,110,0
256.49976,256.60855,44,110,0
256.61087,256.71967,56,110,0
256.72195,256.83078,51,110,0
256.83307,256.94186,48,110,0
256.94418,257.05298,51,110,0
257.0553,257.1641,48,110,0
257.1664,257.2752,44,110,0
257.27753,257.38632,56,110,0
257.38864,257.49744,51,110,0
257.49976,257.60855,48,110,0
257.61087,257.71967,51,110,0
257.72195,257.83075,48,110,0
257.83307,257.94186,44,110,0
257.99976,258.33075,48,120,0
258.0553,258.38632,51,120,0
258.11087,258.44186,54,120,0
258.1664,258.49744,57,120,0
257.94418,259.71967,45,120,0
259.86484,260.0047,46,80,0
260.0077,260.2904,46,80,0
260.2934,260.4333,44,80,0
260.43625,260.719,41,80,0
260.72195,260.86185,38,80,0
260.8648,261.14755,39,80,0
261.72195,262.57614,56,80,0
261.72195,262.57614,53,80,0
261.72195,262.57614,46,80,0
262.5791,262.86185,55,80,0
262.5791,262.86185,51,80,0
263.37274,263.48157,44,110,0
263.48386,263.59265,39,110,0
263.59497,263.70377,36,110,0
263.7061,263.81488,39,110,0
263.8172,263.926,36,110,0
263.9283,264.0371,32,110,0
264.03943,264.14822,44,110,0
264.15054,264.25934,39,110,0
264.26166,264.37045,36,110,0
264.37274,264.48154,39,110,0
264.48386,264.59265,36,110,0
264.59497,264.70377,32,110,0
264.7061,264.81488,44,110,0
264.8172,264.926,39,110,0
264.9283,265.0371,36,110,0
265.03943,265.14822,39,110,0
265.15054,265.25934,36,110,0
265.26166,265.37045,32,110,0
265.37274,265.48154,44,110,0
265.48386,265.59265,39,110,0
265.59497,265.70377,36,110,0
265.7061,265.81488,39,110,0
265.8172,265.926,36,110,0
265.9283,266.0371,32,110,0
266.09497,266.37045,36,120,0
266.15054,266.426,39,120,0
266.2061,266.48154,42,120,0
266.26163,266.5371,45,120,0
266.03943,267.81488,33,120,0
268.8172,268.95706,46,80,0
268.96005,269.2428,46,80,0
269.24576,269.38565,43,80,0
269.3886,269.67136,39,80,0
269.8172,270.8797,56,80,0
269.8172,270.8797,53,80,0
269.8172,270.8797,46,80,0
270.88385,271.2797,55,80,0
270.88385,271.2797,51,80,0
271.89813,272.1102,58,80,0
272.11243,272.21735,56,82,0
272.21957,272.4316,53,83,0
272.43387,272.53876,50,84,0
272.541,272.75305,59,85,0
272.75528,272.8602,56,87,0
272.86243,273.0745,53,88,0
273.07672,273.1816,50,89,0
273.18387,273.3959,60,90,0
273.39813,273.50305,56,92,0
273.50528,273.71735,53,93,0
273.71957,273.82446,50,94,0
273.82672,274.03876,59,95,0
274.041,274.1459,56,97,0
274.14813,274.3602,53,98,0
274.36243,274.46735,50,99,0
274.46957,274.6816,58,100,0
274.68384,274.78876,56,102,0
274.791,275.00305,53,103,0
275.00528,275.1102,50,104,0
275.11243,275.32446,51,105,0
275.3267,275.4316,46,107,0
275.43384,275.6459,43,108,0
275.64813,275.75305,39,109,0
275.75528,275.96732,46,110,0
276.0767,276.28876,46,110,0
276.0767,276.28876,34,110,0
276.39813,276.61017,51,110,0
276.39813,276.61017,39,110,0
276.71954,277.03876,58,110,0
276.71954,277.03876,46,110,0
277.041,277.46658,63,110,0
277.041,277.46658,51,110,0
277.89813,278.46658,58,120,0
277.89813,278.46658,46,120,0
278.75528,279.60944,51,120,0
278.75528,279.60944,39,120,0
