start_time,end_time,note_value,velocity,instrument_program_number
0.0,1.484375,67,80,0
0.0,1.484375,63,80,0
1.5,2.984375,65,80,0
1.5,2.984375,58,80,0
3.0,5.234375,63,80,0
3.0,5.234375,55,80,0
5.25,5.796875,63,80,0
5.8125,5.984375,68,80,0
6.0,6.734375,67,80,0
6.75,7.296875,67,80,0
7.3125,7.484375,73,80,0
7.5,8.234375,72,80,0
8.25,8.421875,72,80,0
8.4375,8.484375,74,80,0
8.5,8.546875,72,80,0
8.5625,8.609375,71,80,0
8.625,8.796875,72,80,0
8.8125,8.984375,74,80,0
9.0,9.734375,63,80,0
9.0,10.149305,75,80,0
9.75,10.565972,66,80,0
9.75,10.565972,63,80,0
10.166666,10.565972,72,80,0
10.583333,11.399305,71,80,0
10.583333,11.399305,67,80,0
10.583333,11.399305,62,80,0
11.416666,11.776041,79,80,0
11.791666,12.151041,87,80,0
12.166666,12.901041,75,80,0
12.166666,13.276041,87,80,0
12.916666,13.651041,75,80,0
12.916666,13.651041,78,80,0
13.291666,13.651041,84,80,0
13.666666,14.401041,83,80,0
13.666666,14.401041,79,80,0
13.666666,14.401041,74,80,0
14.416666,15.232638,82,80,0
14.416666,15.232638,79,80,0
14.416666,15.232638,74,80,0
15.249999,16.065971,74,90,0
16.083332,17.0013,75,80,0
15.249999,17.333332,82,100,0
17.020832,17.499998,77,80,0
17.354166,17.666666,70,80,0
17.687498,17.999998,72,80,0
18.020832,18.381409,69,80,0
18.405447,18.766024,70,80,0
18.790062,19.15064,68,80,0
19.174679,20.659054,67,80,0
19.174679,20.659054,64,80,0
19.174679,20.659054,61,80,0
19.174679,20.659054,58,80,0
20.674679,22.159054,65,80,0
20.674679,22.159054,62,80,0
20.674679,22.159054,56,80,0
22.174679,24.409054,63,80,0
22.174679,24.409054,54,80,0
24.424679,24.971554,66,80,0
24.424679,25.159054,63,80,0
24.987179,25.159054,71,80,0
25.174679,25.909054,71,80,0
25.174679,25.909054,64,80,0
25.924679,26.471554,70,80,0
25.924679,26.659054,64,80,0
26.487179,26.659054,76,80,0
26.674679,27.409054,63,80,0
26.674679,27.409054,75,80,0
27.424679,27.596554,75,80,0
27.612179,27.659054,77,80,0
27.674679,27.721554,75,80,0
27.737179,27.784054,74,80,0
27.799679,27.971554,75,80,0
27.987179,28.159054,77,80,0
28.174679,28.909054,72,80,0
28.174679,29.284054,78,80,0
28.924679,29.659054,72,80,0
29.299679,29.659054,75,80,0
29.674679,30.409054,70,80,0
29.674679,30.409054,74,80,0
30.424679,30.596554,73,80,0
30.612179,30.659054,75,80,0
30.674679,30.721554,73,80,0
30.737179,30.784054,72,80,0
30.799679,30.971554,73,80,0
30.987179,31.159054,75,80,0
30.424679,31.909054,70,80,0
31.174679,32.284054,76,80,0
32.29968,32.471554,75,80,0
31.924679,32.659054,70,80,0
32.48718,32.659054,73,80,0
32.67468,33.409054,68,80,0
32.67468,33.409054,71,80,0
33.42468,34.218597,75,80,0
33.42468,34.218597,70,80,0
33.42468,34.218597,63,80,0
34.23549,35.074776,74,80,0
34.23549,35.074776,70,80,0
34.23549,35.074776,68,80,0
34.23549,35.074776,62,80,0
36.378345,36.78906,74,80,0
36.378345,36.78906,70,80,0
36.378345,36.78906,68,80,0
36.378345,36.78906,62,80,0
36.806915,37.21763,75,80,0
36.806915,37.21763,70,80,0
36.806915,37.21763,66,80,0
36.806915,37.21763,63,80,0
37.23549,37.646202,75,80,0
37.23549,37.646202,70,80,0
37.23549,37.646202,66,80,0
37.23549,37.646202,63,80,0
37.66406,38.503345,77,80,0
37.66406,38.503345,70,80,0
37.66406,38.503345,65,80,0
39.806915,40.21763,74,80,0
39.806915,40.21763,70,80,0
40.235485,40.684704,75,80,0
40.235485,40.684704,70,80,0
40.704235,41.153454,75,80,0
40.704235,41.153454,70,80,0
41.172985,42.090954,77,80,0
41.172985,42.090954,70,80,0
43.464653,43.863956,77,80,0
43.464653,43.863956,70,80,0
43.881317,44.280624,79,80,0
43.881317,44.280624,70,80,0
44.297985,44.697292,80,80,0
44.297985,44.697292,68,80,0
44.714653,45.530624,80,80,0
44.714653,45.530624,68,80,0
46.797985,47.19729,77,80,0
46.797985,47.19729,70,80,0
47.21465,47.663868,79,80,0
47.21465,47.663868,70,80,0
47.6834,48.236286,80,80,0
47.6834,48.236286,68,80,0
49.41417,50.27814,80,80,0
49.41417,50.27814,68,80,0
51.178875,52.042847,80,80,0
51.178875,52.042847,68,80,0
52.061226,52.838398,80,110,0
52.061226,52.838398,68,110,0
52.843834,52.968834,74,110,0
52.843834,53.09927,67,110,0
52.97427,53.09927,79,110,0
53.104702,53.360138,67,110,0
53.104702,53.360138,79,110,0
53.365574,53.490574,72,110,0
53.365574,53.621006,65,110,0
53.496006,53.621006,77,110,0
53.626442,53.881874,65,110,0
53.626442,53.881874,77,110,0
53.88731,54.01231,70,110,0
53.88731,54.142746,63,110,0
54.017746,54.142746,75,110,0
54.14818,54.664482,75,110,0
54.14818,54.664482,63,110,0
54.14818,54.92535,70,110,0
54.14818,54.92535,68,110,0
54.669918,54.92535,74,80,0
54.669918,54.92535,62,80,0
54.930786,55.186222,75,80,0
54.930786,55.186222,70,80,0
54.930786,55.186222,63,80,0
55.191654,55.44709,77,80,0
55.191654,55.44709,70,80,0
55.191654,55.44709,65,80,0
55.452526,55.70796,79,80,0
55.452526,55.70796,70,80,0
55.452526,55.70796,67,80,0
55.713394,55.968826,80,80,0
55.713394,55.968826,70,80,0
55.713394,55.968826,68,80,0
55.974262,56.2297,82,80,0
55.974262,56.2297,70,80,0
56.23513,56.490566,79,80,0
56.23513,56.490566,70,80,0
56.23513,56.490566,67,80,0
56.75687,57.012302,82,88,0
56.75687,57.012302,70,88,0
57.278606,58.05578,94,110,0
57.278606,58.05578,82,110,0
58.061214,59.099255,70,110,0
58.061214,59.099255,82,110,0
59.10469,59.360126,79,80,0
59.10469,59.360126,67,80,0
59.36556,59.620995,77,80,0
59.36556,59.620995,65,80,0
59.626427,59.881863,74,80,0
59.626427,59.881863,62,80,0
59.8873,60.14273,71,80,0
59.8873,60.14273,59,80,0
60.148167,60.403603,70,80,0
60.148167,60.403603,58,80,0
60.409035,60.66447,70,80,0
60.409035,60.66447,58,80,0
60.930775,61.186207,82,88,0
60.930775,61.186207,70,88,0
61.45251,62.229683,94,110,0
61.45251,62.229683,82,111,0
62.23512,63.27316,70,110,0
62.23512,63.27316,82,110,0
63.278595,63.534027,79,80,0
63.278595,63.534027,67,80,0
63.539463,63.7949,76,80,0
63.539463,63.7949,64,80,0
63.80033,64.05576,65,80,0
63.80033,64.05576,77,80,0
64.0612,64.316635,72,80,0
64.0612,64.316635,60,80,0
64.32207,64.57751,75,80,0
64.32207,64.57751,63,80,0
64.58294,64.70794,74,80,0
64.58294,64.70794,62,80,0
64.71337,64.83837,70,80,0
64.84381,64.96881,69,80,0
64.97424,65.09924,70,80,0
65.104675,65.229675,72,80,0
65.104675,65.229675,69,80,0
65.235115,65.360115,74,80,0
65.235115,65.360115,70,80,0
65.36555,65.49055,75,80,0
65.36555,65.49055,72,80,0
65.49598,65.62098,77,80,0
65.49598,65.62098,74,80,0
65.62642,66.142715,79,80,0
65.62642,66.142715,75,80,0
66.148155,66.273155,84,80,0
66.148155,66.273155,80,80,0
66.27859,66.40359,82,80,0
66.27859,66.40359,79,80,0
66.40902,66.53402,80,80,0
66.40902,66.53402,77,80,0
66.53946,66.66446,79,80,0
66.53946,66.66446,75,80,0
66.66989,66.92532,77,80,0
66.66989,66.92532,74,80,0
67.19163,67.31663,96,80,0
67.19163,67.31663,92,80,0
67.32207,67.44707,94,80,0
67.32207,67.44707,91,80,0
67.4525,67.5775,92,80,0
67.4525,67.5775,89,80,0
67.58293,67.70793,91,80,0
67.58293,67.70793,87,80,0
67.71337,67.9688,89,80,0
67.71337,67.9688,86,80,0
67.974236,68.099236,84,80,0
67.974236,68.099236,74,80,0
68.10467,68.22967,82,80,0
68.10467,68.22967,75,80,0
68.23511,68.36011,80,80,0
68.23511,68.36011,71,80,0
68.36554,68.49054,79,82,0
68.36554,68.49054,72,82,0
68.49597,68.62097,77,85,0
68.49597,68.62097,67,85,0
68.62641,68.75141,78,88,0
68.62641,68.75141,75,88,0
68.75684,68.88184,79,91,0
68.75684,68.88184,74,91,0
68.887276,69.012276,81,94,0
68.887276,69.012276,74,94,0
68.887276,69.012276,78,94,0
69.017715,69.142715,83,96,0
69.017715,69.142715,74,96,0
69.017715,69.142715,79,96,0
69.14815,69.27315,83,99,0
69.14815,69.27315,74,99,0
69.14815,69.27315,79,99,0
69.27858,69.40358,84,102,0
69.27858,69.40358,75,102,0
69.27858,69.40358,79,102,0
69.40902,69.53402,86,105,0
69.40902,69.53402,77,105,0
69.40902,69.53402,82,105,0
69.53945,69.66445,87,108,0
69.53945,69.66445,79,108,0
69.53945,69.66445,84,108,0
69.66988,69.79488,88,110,0
69.66988,69.79488,79,110,0
69.66988,69.79488,84,110,0
69.800316,70.055756,88,110,0
69.800316,70.055756,84,110,0
69.800316,70.055756,79,110,0
70.32206,70.57749,89,110,0
70.32206,70.57749,84,110,0
70.32206,70.57749,77,110,0
70.843796,71.620964,75,110,0
71.6264,71.881836,77,110,0
70.843796,72.14271,70,110,0
72.14814,72.27314,70,110,0
72.27857,72.40357,69,110,0
72.40901,72.53401,70,110,0
72.539444,72.664444,69,110,0
72.669876,72.794876,70,110,0
71.88727,72.925316,78,110,0
72.800316,72.925316,69,110,0
72.93075,73.70792,75,110,0
73.713356,73.96879,77,110,0
72.93075,74.22966,70,110,0
74.23509,74.36009,70,110,0
74.365524,74.490524,69,110,0
74.495964,74.620964,70,110,0
74.626396,74.751396,69,110,0
74.75683,74.88183,70,110,0
73.97422,75.01227,79,110,0
74.88727,75.01227,69,110,0
75.0177,75.27313,78,80,0
75.27857,75.403564,70,80,0
75.409004,75.534004,69,80,0
75.53944,75.66444,70,80,0
75.66987,75.79487,69,80,0
75.80031,75.92531,70,80,0
75.93074,76.05574,69,80,0
76.06117,76.31661,77,80,0
76.322044,76.447044,72,80,0
76.45248,76.57748,71,80,0
76.58292,76.70792,72,80,0
76.71335,76.83835,71,80,0
76.84378,76.96878,72,80,0
76.97422,77.09922,71,80,0
77.10465,77.360085,77,80,0
77.365524,77.49052,74,80,0
77.49596,77.62096,72,80,0
77.62639,77.88182,77,80,0
77.88726,78.01226,72,80,0
78.01769,78.14269,70,80,0
78.148125,78.403564,77,80,0
78.409,78.534,70,80,0
78.53943,78.66443,69,80,0
78.66987,78.9253,77,80,0
78.93073,79.05573,72,80,0
79.06117,79.18617,70,80,0
79.45247,79.57747,70,80,0
79.58291,79.70791,69,80,0
79.71334,79.83834,70,80,0
79.84377,79.96877,69,80,0
79.97421,80.09921,70,80,0
79.191605,80.229645,78,80,0
80.104645,80.229645,69,80,0
80.23508,80.49052,77,80,0
80.49595,80.62095,72,80,0
80.62638,80.75138,71,80,0
80.75682,80.88182,72,80,0
80.88725,81.01225,71,80,0
81.017685,81.142685,72,80,0
81.148125,81.27312,71,80,0
81.27856,81.53399,77,80,0
81.53942,81.66442,74,80,0
81.66986,81.79486,72,80,0
81.80029,82.055725,77,80,0
82.061165,82.186165,72,80,0
82.1916,82.3166,71,80,0
82.32203,82.57747,77,80,0
82.5829,82.7079,74,80,0
82.71333,82.83833,72,80,0
82.84377,83.099205,77,80,0
83.10464,83.62094,72,80,0
83.10464,83.62094,75,80,0
83.36551,83.88181,65,80,0
83.62637,83.88181,74,80,0
83.62637,83.88181,70,80,0
83.887245,84.14268,72,80,0
83.887245,84.14268,69,80,0
84.14812,84.66442,84,80,0
84.14812,84.66442,87,80,0
84.40898,84.925285,77,80,0
84.66985,84.925285,86,80,0
84.66985,84.925285,82,80,0
84.930725,85.18616,84,80,0
84.930725,85.18616,81,80,0
85.19159,85.44702,84,80,0
85.19159,85.44702,81,80,0
85.19159,85.70789,91,80,0
85.45246,85.70789,82,80,0
85.45246,85.70789,77,80,0
85.713326,85.968765,82,80,0
85.713326,85.968765,77,80,0
85.713326,86.22963,89,80,0
85.9742,86.22963,79,80,0
85.9742,86.22963,82,80,0
86.23507,86.51483,81,80,0
86.23507,86.51483,84,80,0
86.23507,86.51483,87,80,0
86.663635,86.788635,77,80,0
86.794075,86.919075,79,80,0
86.92451,87.04951,77,80,0
87.05494,87.17994,79,80,0
87.18538,87.31038,77,80,0
87.31581,87.44081,79,80,0
86.52078,87.57124,86,80,0
87.44624,87.57124,77,80,0
87.707115,87.832115,75,80,0
87.83755,87.96255,77,80,0
87.96798,88.09298,75,80,0
88.09842,88.22342,77,80,0
88.22885,88.35385,75,80,0
88.35928,88.48428,77,80,0
87.576675,88.61472,84,80,0
88.48972,88.61472,75,80,0
88.620155,88.745155,74,80,0
88.75059,88.87559,70,80,0
88.88103,89.00603,72,80,0
88.620155,89.13646,82,80,0
89.01146,89.13646,70,80,0
89.14189,89.39732,79,80,0
89.27233,89.39732,70,80,0
89.40276,89.658195,77,80,0
89.533195,89.658195,70,80,0
89.66363,89.78863,70,80,0
89.66363,89.91907,77,80,0
89.79407,89.91907,65,80,0
89.9245,90.0495,69,80,0
89.9245,90.17993,75,80,0
90.05493,90.17993,65,80,0
90.18537,90.31037,70,80,0
90.18537,90.4408,74,80,0
90.3158,90.4408,65,80,0
90.446236,90.701675,72,80,0
90.576675,90.701675,65,80,0
90.83754,90.96254,65,80,0
90.96798,91.09298,67,80,0
91.09841,91.22341,65,80,0
91.22884,91.35384,67,80,0
91.359276,91.484276,65,80,0
91.489716,91.614716,67,80,0
90.70711,91.74515,74,80,0
91.62015,91.74515,65,80,0
91.88102,92.00602,63,80,0
92.01145,92.13645,65,80,0
92.141884,92.266884,63,80,0
92.27232,92.39732,65,80,0
92.402756,92.527756,63,80,0
92.53319,92.65819,65,80,0
91.75058,92.78863,72,80,0
92.66363,92.78863,63,80,0
92.79406,92.91906,62,80,0
92.92449,93.04949,58,80,0
93.05493,93.179924,60,80,0
92.79406,93.31036,70,80,0
93.18536,93.31036,58,80,0
93.315796,93.57123,67,80,0
93.44623,93.57123,58,80,0
93.57667,93.8321,65,80,0
93.7071,93.8321,58,80,0
93.83753,93.96253,58,80,0
93.83753,94.09297,65,80,0
93.96797,94.09297,53,80,0
94.098404,94.223404,57,80,0
94.098404,94.353836,63,80,0
94.228836,94.353836,53,80,0
94.359276,94.484276,58,80,0
94.359276,94.61471,62,80,0
94.48971,94.61471,53,80,0
94.62014,94.87558,60,80,0
94.75058,94.87558,53,80,0
95.011444,95.26688,54,80,0
94.88101,95.52775,58,80,0
95.14188,95.52775,50,80,0
95.53318,95.65818,53,80,0
95.66362,95.78862,50,80,0
95.79405,96.049484,58,80,0
96.054924,96.179924,58,80,0
96.185356,96.310356,57,80,0
95.924484,96.44079,53,80,0
96.31579,96.44079,58,80,0
96.44623,96.57123,60,80,0
96.57666,96.70166,62,80,0
96.70709,96.83209,63,80,0
96.83753,96.96253,60,80,0
97.0984,97.35383,66,80,0
96.967964,97.6147,70,80,0
97.22883,97.6147,62,80,0
97.62013,97.74513,65,80,0
97.75057,97.87557,62,80,0
97.881004,98.13644,70,80,0
98.14188,98.26688,70,80,0
98.27231,98.39731,69,80,0
98.01144,98.52774,65,80,0
98.40274,98.52774,70,80,0
98.53318,98.65818,72,80,0
98.66361,98.78861,74,80,0
98.794044,98.919044,75,80,0
98.924484,99.04948,72,80,0
99.05492,99.17992,74,80,0
99.18535,99.31035,72,80,0
99.31578,99.70165,70,80,0
99.707085,99.832085,67,80,0
99.837524,100.22339,65,80,0
100.22883,100.35383,63,80,0
100.35926,100.74513,62,80,0
100.750565,100.875565,60,80,0
100.881,101.26687,58,80,0
101.2723,101.3973,55,80,0
101.40273,101.788605,53,80,0
101.79404,101.91904,51,80,0
101.92448,102.31034,50,80,0
102.31578,102.44078,48,80,0
102.44621,102.83208,46,80,0
102.83752,102.96252,48,80,0
102.96795,103.48425,46,80,0
105.31577,106.35381,77,80,0
105.31577,106.35381,70,80,0
106.359245,107.397285,79,80,0
106.359245,107.397285,70,80,0
107.402725,108.17989,80,80,0
107.402725,108.17989,68,80,0
108.18533,108.31033,74,80,0
108.18533,108.440765,67,80,0
108.315765,108.440765,79,80,0
108.4462,108.70163,67,80,0
108.4462,108.70163,79,80,0
108.70707,108.83207,72,80,0
108.70707,108.9625,65,80,0
108.8375,108.9625,77,80,0
108.96793,109.22337,65,80,0
108.96793,109.22337,77,80,0
109.228806,109.353806,70,80,0
109.228806,109.48424,63,80,0
109.35924,109.48424,75,80,0
109.48968,110.00598,75,80,0
109.48968,110.00598,63,80,0
109.48968,110.266846,70,80,0
109.48968,110.266846,68,80,0
110.01141,110.266846,74,80,0
110.01141,110.266846,62,80,0
110.272285,110.52772,75,80,0
110.272285,110.52772,70,80,0
110.272285,110.52772,63,80,0
110.53315,110.78858,77,80,0
110.53315,110.78858,70,80,0
110.53315,110.78858,65,80,0
110.79402,111.04945,79,80,0
110.79402,111.04945,70,80,0
110.79402,111.04945,67,80,0
111.054886,111.310326,80,80,0
111.054886,111.310326,70,80,0
111.054886,111.310326,68,80,0
111.31576,111.57119,82,80,0
111.31576,111.57119,70,80,0
111.57663,111.83206,79,80,0
111.57663,111.83206,70,80,0
111.57663,111.83206,67,80,0
112.098366,112.3538,82,88,0
112.098366,112.3538,70,88,0
112.6201,113.39728,94,110,0
112.6201,113.39728,82,111,0
113.40271,114.44075,70,110,0
113.40271,114.44075,82,110,0
114.44618,114.70162,79,80,0
114.44618,114.70162,67,80,0
114.707054,114.96249,77,80,0
114.707054,114.96249,65,80,0
114.967926,115.22336,74,80,0
114.967926,115.22336,62,80,0
115.22879,115.48423,71,80,0
115.22879,115.48423,59,80,0
115.48966,115.745094,70,80,0
115.48966,115.745094,58,80,0
115.750534,116.00597,70,80,0
115.750534,116.00597,58,80,0
116.27227,116.5277,82,88,0
116.27227,116.5277,70,88,0
116.79401,117.57118,94,111,0
116.79401,117.57118,82,111,0
117.576614,118.614655,70,110,0
117.576614,118.614655,82,110,0
118.62009,118.87553,79,80,0
118.62009,118.87553,67,80,0
118.88096,119.13639,76,80,0
118.88096,119.13639,64,80,0
119.14183,119.39726,65,80,0
119.14183,119.39726,77,80,0
119.402695,119.658134,72,80,0
119.402695,119.658134,60,80,0
119.66357,119.919,75,80,0
119.66357,119.919,63,80,0
119.92444,120.04944,74,80,0
119.92444,120.04944,62,80,0
120.05487,120.17987,70,80,0
120.1853,120.3103,69,80,0
120.315735,120.440735,70,80,0
120.446175,120.571175,72,80,0
120.446175,120.571175,69,80,0
120.57661,120.70161,74,80,0
120.57661,120.70161,70,80,0
120.70704,120.83204,75,80,0
120.70704,120.83204,72,80,0
120.83748,120.96248,77,80,0
120.83748,120.96248,74,80,0
120.96791,121.484215,79,80,0
120.96791,121.484215,75,80,0
121.48965,121.61465,84,80,0
121.48965,121.61465,80,80,0
121.62009,121.74509,82,80,0
121.62009,121.74509,79,80,0
121.75052,121.87552,80,80,0
121.75052,121.87552,77,80,0
121.88095,122.00595,79,80,0
121.88095,122.00595,75,80,0
122.01139,122.26682,77,80,0
122.01139,122.26682,74,80,0
122.53313,122.65813,96,80,0
122.53313,122.65813,92,80,0
122.66356,122.78856,94,80,0
122.66356,122.78856,91,80,0
122.79399,122.91899,92,80,0
122.79399,122.91899,89,80,0
122.92443,123.04943,91,80,0
122.92443,123.04943,87,80,0
123.05486,123.310295,89,80,0
123.05486,123.310295,86,80,0
123.315735,123.440735,84,80,0
123.315735,123.440735,74,80,0
123.44617,123.57117,82,80,0
123.44617,123.57117,75,80,0
123.5766,123.7016,80,80,0
123.5766,123.7016,71,80,0
123.70704,123.83204,79,80,0
123.70704,123.83204,72,80,0
123.83747,123.96247,77,83,0
123.83747,123.96247,67,83,0
123.9679,124.0929,78,86,0
123.9679,124.0929,75,86,0
124.098335,124.223335,79,89,0
124.098335,124.223335,74,89,0
124.228775,124.353775,81,92,0
124.228775,124.353775,74,92,0
124.228775,124.353775,78,92,0
124.35921,124.48421,83,95,0
124.35921,124.48421,74,95,0
124.35921,124.48421,79,95,0
124.48964,124.61464,83,98,0
124.48964,124.61464,74,98,0
124.48964,124.61464,79,98,0
124.62008,124.74508,84,101,0
124.62008,124.74508,75,101,0
124.62008,124.74508,79,101,0
124.75051,124.87551,86,104,0
124.75051,124.87551,77,104,0
124.75051,124.87551,82,104,0
124.88094,125.00594,87,107,0
124.88094,125.00594,79,107,0
124.88094,125.00594,84,107,0
125.01138,125.13638,88,110,0
125.01138,125.13638,79,110,0
125.01138,125.13638,84,110,0
125.141815,125.39725,88,110,0
125.141815,125.39725,84,110,0
125.141815,125.39725,79,110,0
125.66355,125.91898,89,110,0
125.66355,125.91898,84,110,0
125.66355,125.91898,77,110,0
126.18529,126.96246,75,110,0
126.967896,127.223335,77,110,0
126.18529,127.4842,70,110,0
127.48964,127.61464,70,110,0
127.62007,127.74507,69,110,0
127.7505,127.8755,70,110,0
127.88094,128.00594,69,110,0
128.01137,128.13637,70,110,0
127.22877,128.26682,78,110,0
128.14182,128.26682,69,110,0
128.27225,129.04941,75,110,0
129.05486,129.31029,77,110,0
128.27225,129.57115,70,110,0
129.57658,129.70158,70,110,0
129.70702,129.83202,69,110,0
129.83746,129.96246,70,110,0
129.9679,130.0929,69,110,0
130.09833,130.22333,70,110,0
129.31572,130.35376,79,110,0
130.22876,130.35376,69,110,0
130.35919,130.61462,78,80,0
130.62007,130.74506,70,80,0
130.7505,130.8755,69,80,0
130.88094,131.00594,70,80,0
131.01137,131.13637,69,80,0
131.1418,131.2668,70,80,0
131.27223,131.39723,69,80,0
131.40266,131.65811,77,80,0
131.66354,131.78854,72,80,0
131.79398,131.91898,71,80,0
131.92441,132.04941,72,80,0
132.05484,132.17984,71,80,0
132.18527,132.31027,72,80,0
132.31572,132.44072,71,80,0
132.44615,132.70158,77,80,0
132.70702,132.83202,74,80,0
132.83745,132.96245,72,80,0
132.96788,133.22331,77,80,0
133.22876,133.35376,72,80,0
133.35919,133.48419,70,80,0
133.48962,133.74506,77,80,0
133.75049,133.87549,70,80,0
133.88092,134.00592,69,80,0
134.01137,134.2668,77,80,0
134.27223,134.39723,72,80,0
134.40266,134.52766,70,80,0
134.79396,134.91896,70,80,0
134.92441,135.04941,69,80,0
135.05484,135.17984,70,80,0
135.18527,135.31027,69,80,0
135.3157,135.4407,70,80,0
134.5331,135.57114,78,80,0
135.44614,135.57114,69,80,0
135.57657,135.83202,77,80,0
135.83745,135.96245,72,80,0
135.96788,136.09288,71,80,0
136.09831,136.22331,72,80,0
136.22874,136.35374,71,80,0
136.35918,136.48418,72,80,0
136.48962,136.61461,71,80,0
136.62006,136.87549,77,80,0
136.88092,137.00592,74,80,0
137.01135,137.13635,72,80,0
137.14178,137.39722,77,80,0
137.40266,137.52766,72,80,0
137.5331,137.6581,71,80,0
137.66353,137.91896,77,80,0
137.9244,138.0494,74,80,0
138.05482,138.17982,72,80,0
138.18527,138.4407,77,80,0
138.44614,138.96243,72,80,0
138.44614,138.96243,75,80,0
138.707,139.22331,65,80,0
138.96786,139.22331,74,80,0
138.96786,139.22331,70,80,0
139.22874,139.48418,72,80,0
139.22874,139.48418,69,80,0
139.48961,140.00592,84,80,0
139.48961,140.00592,87,80,0
139.75047,140.26678,77,80,0
140.01135,140.26678,86,80,0
140.01135,140.26678,82,80,0
140.27222,140.52765,84,80,0
140.27222,140.52765,81,80,0
140.53308,140.78851,84,80,0
140.53308,140.78851,81,80,0
140.53308,141.0494,91,80,0
140.79396,141.0494,82,80,0
140.79396,141.0494,77,80,0
141.05482,141.31026,82,80,0
141.05482,141.31026,77,80,0
141.05482,141.58273,89,80,0
141.31569,141.58273,79,80,0
141.31569,141.58273,82,80,0
141.58842,141.8764,81,80,0
141.58842,141.8764,84,80,0
141.58842,141.8764,87,80,0
142.0296,142.1546,77,80,0
142.16003,142.28503,79,80,0
142.29047,142.41547,77,80,0
142.4209,142.5459,79,80,0
142.55133,142.67633,77,80,0
142.68176,142.80676,79,80,0
141.88254,142.9372,86,80,0
142.81221,142.9372,77,80,0
143.07307,143.19807,75,80,0
143.2035,143.3285,77,80,0
143.33394,143.45894,75,80,0
143.46437,143.58937,77,80,0
143.5948,143.7198,75,80,0
143.72525,143.85025,77,80,0
142.94264,143.98068,84,80,0
143.85568,143.98068,75,80,0
143.98611,144.11111,74,80,0
144.11655,144.24155,70,80,0
144.24698,144.37198,72,80,0
143.98611,144.50241,82,80,0
144.37741,144.50241,70,80,0
144.50786,144.76329,79,80,0
144.63829,144.76329,70,80,0
144.76872,145.02415,77,80,0
144.89915,145.02415,70,80,0
145.02959,145.15459,70,80,0
145.02959,145.28502,77,80,0
145.16002,145.28502,65,80,0
145.29045,145.41545,69,80,0
145.29045,145.5459,75,80,0
145.4209,145.5459,65,80,0
145.55133,145.67633,70,80,0
145.55133,145.80676,74,80,0
145.68176,145.80676,65,80,0
145.8122,146.06763,72,80,0
145.94263,146.06763,65,80,0
146.2035,146.3285,65,80,0
146.33394,146.45894,67,80,0
146.46437,146.58937,65,80,0
146.5948,146.7198,67,80,0
146.72523,146.85023,65,80,0
146.85567,146.98067,67,80,0
146.07306,147.1111,74,80,0
146.9861,147.1111,65,80,0
147.24698,147.37198,63,80,0
147.37741,147.50241,65,80,0
147.50784,147.63284,63,80,0
147.63828,147.76328,65,80,0
147.7687,147.8937,63,80,0
147.89915,148.02415,65,80,0
147.11655,148.15459,72,80,0
148.02959,148.15459,63,80,0
148.16002,148.28502,62,80,0
148.29045,148.41545,58,80,0
148.42088,148.54588,60,80,0
148.16002,148.67632,70,80,0
148.55132,148.67632,58,80,0
148.68175,148.9372,67,80,0
148.8122,148.9372,58,80,0
148.94263,149.19806,65,80,0
149.07306,149.19806,58,80,0
149.20349,149.32849,58,80,0
149.20349,149.45892,65,80,0
149.33392,149.45892,53,80,0
149.46436,149.58936,57,80,0
149.46436,149.7198,63,80,0
149.5948,149.7198,53,80,0
149.72523,149.85023,58,80,0
149.72523,149.98067,62,80,0
149.85567,149.98067,53,80,0
149.9861,150.24153,60,80,0
150.11653,150.24153,53,80,0
150.37741,150.63284,54,80,0
150.24696,150.8937,58,80,0
150.50784,150.8937,50,80,0
150.89914,151.02414,53,80,0
151.02957,151.15457,50,80,0
151.16,151.41545,58,80,0
151.42088,151.54588,58,80,0
151.55132,151.67632,57,80,0
151.29045,151.80675,53,80,0
151.68175,151.80675,58,80,0
151.81218,151.93718,60,80,0
151.94261,152.06761,62,80,0
152.07306,152.19806,63,80,0
152.20349,152.32849,60,80,0
152.46436,152.71979,66,80,0
152.33392,152.98065,70,80,0
152.59479,152.98065,62,80,0
152.9861,153.1111,65,80,0
153.11653,153.24153,62,80,0
153.24696,153.5024,70,80,0
153.50783,153.63283,70,80,0
153.63826,153.76326,69,80,0
153.3774,153.8937,65,80,0
153.7687,153.8937,70,80,0
153.89914,154.02414,72,80,0
154.02957,154.15457,74,80,0
154.16,154.285,75,80,0
154.29044,154.41544,72,80,0
154.42087,154.54587,74,80,0
154.5513,154.6763,72,80,0
154.68175,155.06761,70,80,0
155.07304,155.19804,67,80,0
155.20348,155.58936,65,80,0
155.59479,155.71979,63,80,0
155.72522,156.11108,62,80,0
156.11652,156.24152,60,80,0
156.24696,156.63283,58,80,0
156.63826,156.76326,55,80,0
156.76869,157.15456,53,80,0
157.16,157.285,51,80,0
157.29044,157.6763,50,80,0
157.68173,157.80673,48,80,0
157.81216,158.19804,46,80,0
158.20348,158.32848,48,80,0
158.33391,158.8502,46,80,0
160.68173,161.71977,77,80,0
160.68173,161.71977,70,80,0
161.7252,162.76324,80,80,0
161.7252,162.76324,68,80,0
162.76868,163.54585,79,110,0
162.76868,163.54585,67,110,0
163.55128,163.67628,74,110,0
163.68172,163.80672,79,110,0
163.81216,164.0676,79,110,0
163.81216,164.0676,67,110,0
164.07303,164.19803,72,110,0
164.20346,164.32846,77,110,0
164.3339,164.58932,77,110,0
164.3339,164.58932,65,110,0
164.59476,164.71976,72,110,0
164.7252,164.8502,75,110,0
164.85564,165.12268,75,110,0
164.85564,165.12268,63,110,0
165.12836,165.25905,69,110,0
165.26472,165.3954,74,110,0
165.4011,165.68085,74,110,0
165.4011,165.68085,67,110,0
165.4011,165.68085,62,110,0
165.6868,165.83055,79,110,0
165.6868,165.99652,72,110,0
165.8368,165.99652,84,110,0
166.00346,167.0415,65,80,0
167.04694,168.08499,63,80,0
168.09042,169.92268,66,80,0
168.09042,169.92268,69,80,0
168.09042,169.92268,75,80,0
169.92836,170.20811,73,80,0
169.92836,170.20811,70,80,0
169.92836,170.20811,65,80,0
170.21408,171.25212,73,80,0
171.25755,172.2956,72,80,0
172.30103,174.46228,72,80,0
172.30103,174.46228,74,80,0
172.30103,174.46228,78,80,0
172.30103,174.46228,81,80,0
174.46852,175.55376,72,80,0
175.55943,176.59747,71,80,0
176.6029,178.72746,71,80,0
176.6029,178.72746,75,80,0
176.6029,178.72746,78,80,0
176.6029,178.72746,81,80,0
178.7337,179.81894,71,80,0
179.82462,180.86266,70,80,0
180.86809,182.167,70,80,0
180.86809,182.167,74,80,0
180.86809,182.167,77,80,0
180.86809,182.167,80,80,0
182.17244,182.42787,82,80,0
182.4333,182.68874,83,80,0
182.69418,182.94962,82,80,0
182.95505,184.25395,70,80,0
182.95505,184.25395,74,80,0
182.95505,184.25395,77,80,0
182.95505,184.25395,80,80,0
184.25938,184.52643,82,80,0
184.25938,184.52643,77,80,0
184.53212,184.81187,83,95,0
184.53212,184.81187,78,95,0
184.81783,185.11159,82,110,0
184.81783,185.11159,77,110,0
185.11783,185.93033,87,110,0
185.11783,185.93033,82,110,0
185.11783,185.93033,79,110,0
185.11783,185.93033,75,110,0
185.93602,186.0667,80,110,0
185.93602,186.20306,77,110,0
186.07237,186.20306,85,110,0
186.20874,186.47578,85,110,0
186.20874,186.47578,78,110,0
186.48146,186.61215,77,110,0
186.48146,186.7485,71,110,0
186.61783,186.7485,83,110,0
186.7542,187.02124,83,110,0
186.7542,187.02124,80,110,0
186.7542,187.02124,71,110,0
187.02692,187.29396,82,110,0
187.02692,187.29396,78,110,0
187.02692,187.29396,70,110,0
187.29965,187.5667,80,80,0
187.29965,187.5667,68,80,0
187.57237,187.83942,78,80,0
187.57237,187.83942,66,80,0
187.84511,188.11215,77,80,0
187.84511,188.11215,65,80,0
188.11783,188.38487,78,80,0
188.11783,188.38487,66,80,0
188.39055,189.4286,80,80,0
188.39055,189.4286,71,80,0
188.39055,189.4286,68,80,0
189.43404,190.47208,80,80,0
189.43404,190.47208,71,80,0
189.43404,190.47208,68,80,0
190.47751,191.51555,79,79,0
190.47751,191.51555,72,79,0
190.47751,191.51555,67,79,0
191.52098,192.55902,77,78,0
191.52098,192.55902,71,78,0
191.52098,192.55902,67,78,0
191.52098,192.55902,65,78,0
192.56445,193.6025,75,77,0
192.56445,193.6025,72,77,0
192.56445,193.6025,63,77,0
192.56445,193.6025,67,77,0
193.60794,194.64598,74,76,0
193.60794,194.64598,71,76,0
193.60794,194.64598,68,76,0
193.60794,194.64598,65,76,0
194.65141,195.68945,72,75,0
194.65141,195.68945,67,75,0
194.65141,195.68945,63,75,0
195.69489,196.73293,68,74,0
195.69489,196.73293,65,74,0
195.69489,196.73293,62,74,0
195.69489,196.73293,59,74,0
196.73836,197.7764,67,73,0
196.73836,197.7764,63,73,0
196.73836,197.7764,60,73,0
197.78185,198.84335,68,71,0
197.78185,198.84335,63,71,0
197.78185,198.84335,60,71,0
198.84903,199.93427,68,70,0
198.84903,199.93427,63,70,0
199.93994,201.05087,68,70,0
199.93994,201.05087,62,70,0
201.05682,202.19373,68,70,0
201.05682,202.19373,63,70,0
202.19968,203.36485,68,70,0
202.19968,203.36485,63,70,0
203.37111,204.21088,68,70,0
203.37111,204.21088,63,70,0
204.21655,204.34155,56,85,0
204.347,204.472,68,88,0
204.47743,204.60243,56,91,0
204.60786,204.73286,68,93,0
204.7383,204.8633,68,96,0
204.86873,204.99373,80,99,0
204.99916,205.12985,68,101,0
205.13553,205.2662,80,104,0
205.2719,205.41565,68,107,0
205.42189,205.58162,80,109,0
205.58856,206.36574,80,110,0
205.58856,206.36574,68,110,0
206.37117,206.49617,74,110,0
206.37117,206.6266,67,110,0
206.5016,206.6266,79,110,0
206.63203,206.88747,67,110,0
206.63203,206.88747,79,110,0
206.8929,207.0179,72,110,0
206.8929,207.14835,65,110,0
207.02335,207.14835,77,110,0
207.15378,207.40921,65,110,0
207.15378,207.40921,77,110,0
207.41464,207.53964,70,110,0
207.41464,207.67007,63,110,0
207.54507,207.67007,75,110,0
207.6755,208.19182,75,110,0
207.6755,208.19182,63,110,0
207.6755,208.45268,70,110,0
207.6755,208.45268,68,110,0
208.19725,208.45268,74,80,0
208.19725,208.45268,62,80,0
208.45811,208.71355,75,80,0
208.45811,208.71355,70,80,0
208.45811,208.71355,63,80,0
208.719,208.97443,77,80,0
208.719,208.97443,70,80,0
208.719,208.97443,65,80,0
208.97986,209.23529,79,80,0
208.97986,209.23529,70,80,0
208.97986,209.23529,67,80,0
209.24072,209.49615,80,80,0
209.24072,209.49615,70,80,0
209.24072,209.49615,68,80,0
209.5016,209.75703,82,80,0
209.5016,209.75703,70,80,0
209.76247,210.0179,79,80,0
209.76247,210.0179,70,80,0
209.76247,210.0179,67,80,0
210.2842,210.53964,82,88,0
210.2842,210.53964,70,88,0
210.80594,211.58311,94,111,0
210.80594,211.58311,82,111,0
211.58855,212.62659,70,110,0
211.58855,212.62659,82,110,0
212.63202,212.88745,79,80,0
212.63202,212.88745,67,80,0
212.8929,213.14833,77,80,0
212.8929,213.14833,65,80,0
213.15376,213.4092,74,80,0
213.15376,213.4092,62,80,0
213.41463,213.67006,71,80,0
213.41463,213.67006,59,80,0
213.6755,213.93094,70,80,0
213.6755,213.93094,58,80,0
213.93637,214.1918,70,80,0
213.93637,214.1918,58,80,0
214.4581,214.71355,82,88,0
214.4581,214.71355,70,88,0
214.97984,215.75702,94,110,0
214.97984,215.75702,82,111,0
215.76245,216.80049,70,110,0
215.76245,216.80049,82,110,0
216.80592,217.06136,79,80,0
216.80592,217.06136,67,80,0
217.0668,217.32224,76,80,0
217.0668,217.32224,64,80,0
217.32767,217.5831,65,80,0
217.32767,217.5831,77,80,0
217.58853,217.84396,72,80,0
217.58853,217.84396,60,80,0
217.8494,218.10484,75,80,0
217.8494,218.10484,63,80,0
218.11028,218.23528,74,80,0
218.11028,218.23528,62,80,0
218.2407,218.3657,70,80,0
218.37114,218.49614,69,80,0
218.50157,218.62657,70,80,0
218.632,218.757,72,80,0
218.632,218.757,69,80,0
218.76245,218.88745,74,80,0
218.76245,218.88745,70,80,0
218.89288,219.01788,75,80,0
218.89288,219.01788,72,80,0
219.02332,219.14832,77,80,0
219.02332,219.14832,74,80,0
219.15375,219.67004,79,80,0
219.15375,219.67004,75,80,0
219.67549,219.80049,84,80,0
219.67549,219.80049,80,80,0
219.80592,219.93092,82,80,0
219.80592,219.93092,79,80,0
219.93636,220.06136,80,80,0
219.93636,220.06136,77,80,0
220.06679,220.19179,79,80,0
220.06679,220.19179,75,80,0
220.19722,220.45265,77,80,0
220.19722,220.45265,74,80,0
220.4581,220.5831,80,80,0
220.4581,220.5831,71,80,0
220.58853,220.71353,79,80,0
220.58853,220.71353,72,80,0
220.71896,220.84396,77,80,0
220.71896,220.84396,67,80,0
220.8494,220.9744,78,82,0
220.8494,220.9744,75,82,0
220.97983,221.10483,79,85,0
220.97983,221.10483,74,85,0
221.11026,221.23526,81,88,0
221.11026,221.23526,74,88,0
221.11026,221.23526,78,88,0
221.2407,221.36569,83,91,0
221.2407,221.36569,79,91,0
221.2407,221.36569,74,91,0
221.37114,221.49614,83,94,0
221.37114,221.49614,79,94,0
221.37114,221.49614,74,94,0
221.50157,221.62657,84,96,0
221.50157,221.62657,79,96,0
221.50157,221.62657,75,96,0
221.632,221.757,86,99,0
221.632,221.757,83,99,0
221.632,221.757,77,99,0
221.76244,221.88744,87,102,0
221.76244,221.88744,84,102,0
221.76244,221.88744,79,102,0
221.89287,222.01787,88,105,0
221.89287,222.01787,84,105,0
221.89287,222.01787,79,105,0
222.0233,222.1483,89,108,0
222.0233,222.1483,84,108,0
222.0233,222.1483,77,108,0
222.15375,222.27875,89,110,0
222.15375,222.27875,84,110,0
222.15375,222.27875,77,110,0
222.28418,222.53961,77,110,0
222.28418,222.53961,82,110,0
222.28418,222.53961,86,110,0
222.80591,223.06136,87,110,0
222.80591,223.06136,82,110,0
222.80591,223.06136,75,110,0
223.32765,224.10483,68,110,0
224.11026,224.36569,70,110,0
223.32765,224.62656,63,110,0
224.632,224.757,63,110,0
224.76244,224.88744,62,110,0
224.89287,225.01787,63,110,0
225.0233,225.1483,62,110,0
225.15373,225.27873,63,110,0
224.37112,225.40916,71,110,0
225.28416,225.40916,62,110,0
225.4146,226.19177,68,110,0
226.1972,226.45265,70,110,0
225.4146,226.71352,63,110,0
226.71895,226.84395,63,110,0
226.84938,226.97438,62,110,0
226.97981,227.10481,63,110,0
227.11026,227.23524,62,110,0
227.24069,227.36569,63,110,0
226.45808,227.49612,72,110,0
227.37112,227.49612,62,110,0
227.50156,227.75699,71,80,0
227.76242,227.88742,63,80,0
227.89285,228.01785,62,80,0
228.0233,228.1483,63,80,0
228.15373,228.27873,62,80,0
228.28416,228.40916,63,80,0
228.4146,228.5396,62,80,0
228.54503,228.80046,70,80,0
228.80591,228.93091,65,80,0
228.93634,229.06134,64,80,0
229.06677,229.19177,65,80,0
229.1972,229.3222,64,80,0
229.32764,229.45264,65,80,0
229.45807,229.58307,64,80,0
229.5885,229.84395,70,80,0
229.84938,229.97438,67,80,0
229.97981,230.10481,65,80,0
230.11024,230.36568,70,80,0
230.37111,230.49611,65,80,0
230.50156,230.62656,63,80,0
230.63199,230.88742,70,80,0
230.89285,231.01785,63,80,0
231.02328,231.14828,62,80,0
231.15372,231.40915,70,80,0
231.4146,231.5396,65,80,0
231.54503,231.67003,63,80,0
231.67546,231.9309,83,80,0
231.93633,232.06133,75,80,0
232.06676,232.19176,74,80,0
232.1972,232.3222,75,80,0
232.32764,232.45264,74,80,0
232.45807,232.58307,75,80,0
232.5885,232.7135,74,80,0
232.71893,232.97437,82,80,0
232.97981,233.1048,77,80,0
233.11024,233.23524,76,80,0
233.24068,233.36568,77,80,0
233.37111,233.49611,76,80,0
233.50154,233.62654,77,80,0
233.63197,233.75697,76,80,0
233.7624,234.01785,82,80,0
234.02328,234.14828,79,80,0
234.15372,234.27872,77,80,0
234.28415,234.53958,82,80,0
234.54501,234.67001,77,80,0
234.67546,234.80046,75,80,0
234.8059,235.06133,82,80,0
235.06676,235.19176,79,80,0
235.19719,235.32219,77,80,0
235.32762,235.58305,82,80,0
235.5885,236.1048,77,80,0
235.5885,236.1048,80,80,0
235.84937,236.36566,70,80,0
236.11023,236.36566,79,80,0
236.11023,236.36566,75,80,0
236.37111,236.62654,77,80,0
236.37111,236.62654,74,80,0
236.63197,237.14827,89,80,0
236.63197,237.14827,92,80,0
236.89284,237.40915,70,80,0
237.1537,237.40915,87,80,0
237.1537,237.40915,91,80,0
237.41458,237.67001,86,80,0
237.41458,237.67001,89,80,0
237.67545,237.93088,86,80,0
237.67545,237.93088,89,80,0
237.67545,238.1986,96,80,0
237.93631,238.1986,87,80,0
237.93631,238.1986,82,80,0
238.20418,238.46645,87,80,0
238.20418,238.46645,82,80,0
238.20418,238.74915,94,80,0
238.47203,238.74915,87,80,0
238.47203,238.74915,84,80,0
238.75505,239.05788,89,80,0
238.75505,239.05788,92,80,0
238.75505,239.05788,86,80,0
239.20718,239.33786,82,80,0
239.34355,239.46855,84,80,0
239.47398,239.59898,82,80,0
239.60442,239.72942,84,80,0
239.73485,239.85985,82,80,0
239.86528,239.99028,84,80,0
239.06433,240.12071,79,80,0
239.06433,240.12071,91,80,0
239.99571,240.12071,82,80,0
240.25659,240.38159,80,80,0
240.38702,240.51202,82,80,0
240.51746,240.64246,80,80,0
240.64789,240.77289,82,80,0
240.77832,240.90332,80,80,0
240.90877,241.03377,82,80,0
240.12616,241.1642,77,80,0
240.12616,241.1642,89,80,0
241.0392,241.1642,80,80,0
241.30006,241.42506,75,80,0
241.4305,241.5555,77,80,0
241.16963,241.68593,87,80,0
241.56093,241.68593,75,80,0
241.69136,241.94681,84,80,0
241.82181,241.94681,75,80,0
241.95224,242.20767,82,80,0
242.08267,242.20767,75,80,0
242.2131,242.46854,82,80,0
242.34354,242.46854,70,80,0
242.47397,242.59897,74,80,0
242.47397,242.72942,80,80,0
242.60442,242.72942,70,80,0
242.73485,242.85985,75,80,0
242.73485,242.99028,79,80,0
242.86528,242.99028,70,80,0
242.99571,243.12071,68,80,0
242.99571,243.25114,77,80,0
243.12614,243.25114,70,80,0
243.38701,243.51201,70,80,0
243.51746,243.64246,72,80,0
243.64789,243.77289,70,80,0
243.77832,243.90332,72,80,0
243.90875,244.03375,70,80,0
244.03918,244.16418,72,80,0
243.25658,244.29462,67,80,0
243.25658,244.29462,79,80,0
244.16962,244.29462,70,80,0
244.4305,244.5555,68,80,0
244.56093,244.68593,70,80,0
244.69136,244.81636,68,80,0
244.8218,244.9468,70,80,0
244.95222,245.07722,68,80,0
245.08267,245.20766,70,80,0
244.30006,245.3381,65,80,0
244.30006,245.3381,77,80,0
245.2131,245.3381,68,80,0
245.34354,245.46854,67,80,0
245.47397,245.59897,63,80,0
245.6044,245.7294,65,80,0
245.34354,245.85983,75,80,0
245.73483,245.85983,63,80,0
245.86526,245.99026,60,80,0
245.86526,246.12071,72,80,0
245.86526,246.12071,68,80,0
245.99571,246.12071,63,80,0
246.12614,246.25114,58,80,0
246.12614,246.38158,70,80,0
246.12614,246.38158,67,80,0
246.25658,246.38158,63,80,0
246.38701,246.51201,67,80,0
246.38701,246.64244,70,80,0
246.51744,246.64244,58,80,0
246.64787,246.77287,65,80,0
246.64787,246.90332,68,80,0
246.77832,246.90332,56,80,0
246.90875,247.03375,63,80,0
246.90875,247.16418,67,80,0
247.03918,247.16418,55,80,0
247.16962,247.29462,62,80,0
247.16962,247.42505,65,80,0
247.30005,247.42505,53,80,0
247.43048,248.07722,63,80,0
247.56091,248.07722,59,80,0
247.69136,248.07722,55,80,0
248.08266,248.20766,58,80,0
248.21309,248.33809,55,80,0
248.34352,248.59897,63,80,0
248.6044,248.7294,63,80,0
248.73483,248.85983,62,80,0
248.47397,248.99026,58,80,0
248.86526,248.99026,63,80,0
248.9957,249.1207,65,80,0
249.12613,249.25113,67,80,0
249.25656,249.38156,68,80,0
249.38701,249.51201,65,80,0
249.51744,250.16417,75,80,0
249.64787,250.16417,71,80,0
249.7783,250.16417,67,80,0
250.16962,250.29462,70,80,0
250.30005,250.42505,67,80,0
250.43048,250.68591,75,80,0
250.69135,250.81635,75,80,0
250.82178,250.94678,74,80,0
250.56091,251.07721,70,80,0
250.95221,251.07721,75,80,0
251.08266,251.20766,77,80,0
251.21309,251.33809,79,80,0
251.34352,251.46852,80,80,0
251.47395,251.59895,77,80,0
251.60439,251.72939,79,80,0
251.73482,251.85982,77,80,0
251.86526,252.25113,75,80,0
252.25656,252.38156,72,80,0
252.387,252.77286,70,80,0
252.7783,252.9033,68,80,0
252.90874,253.2946,67,80,0
253.30003,253.42503,65,80,0
253.43047,253.81635,63,80,0
253.82178,253.94678,60,80,0
253.95221,254.33807,58,80,0
254.34352,254.46852,56,80,0
254.47395,254.85982,55,80,0
254.86525,254.99025,53,80,0
254.99568,255.38156,51,80,0
255.387,255.512,53,80,0
255.51743,256.03372,51,80,0
257.86523,258.9033,82,80,0
257.86523,258.9033,75,80,0
258.90872,259.94678,73,80,0
258.90872,259.94678,85,80,0
259.9522,260.72937,84,110,0
259.9522,260.72937,72,110,0
260.7348,260.8598,77,110,0
260.7348,260.8598,72,110,0
260.86523,260.99023,82,110,0
260.86523,260.99023,73,110,0
260.99567,261.2511,82,110,0
260.99567,261.2511,73,110,0
261.25653,261.38153,75,110,0
261.25653,261.38153,70,110,0
261.38696,261.51196,80,110,0
261.38696,261.51196,72,110,0
261.51743,261.77286,80,110,0
261.51743,261.77286,72,110,0
261.7783,261.9033,73,110,0
261.7783,261.9033,68,110,0
261.90872,262.03372,79,110,0
261.90872,262.03372,70,110,0
262.03915,262.2946,79,110,0
262.03915,262.2946,70,110,0
262.30002,262.42502,72,110,0
262.30002,262.42502,67,110,0
262.43045,262.55545,77,110,0
262.43045,262.55545,68,110,0
262.56088,262.8163,77,110,0
262.56088,262.8163,68,110,0
262.82175,263.07718,77,110,0
262.82175,263.07718,65,110,0
263.0826,263.59894,77,110,0
263.0826,263.59894,65,110,0
263.60437,263.8598,64,80,0
263.60437,263.8598,76,80,0
263.86523,264.12067,77,80,0
263.86523,264.12067,72,80,0
263.86523,264.12067,65,80,0
264.1261,264.38153,79,80,0
264.1261,264.38153,72,80,0
264.1261,264.38153,67,80,0
264.38696,264.6424,80,80,0
264.38696,264.6424,72,80,0
264.38696,264.6424,68,80,0
264.64783,264.90326,82,80,0
264.64783,264.90326,72,80,0
264.64783,264.90326,70,80,0
264.90872,265.16415,79,80,0
264.90872,265.16415,76,80,0
264.90872,265.16415,72,80,0
264.90872,265.16415,67,80,0
265.1696,265.42502,80,80,0
265.1696,265.42502,77,80,0
265.1696,265.42502,72,80,0
265.1696,265.42502,68,80,0
265.6913,265.94675,84,88,0
265.6913,265.94675,72,88,0
266.21304,266.99023,96,112,0
266.21304,266.99023,84,111,0
266.99567,268.0337,72,110,0
266.99567,268.0337,84,110,0
268.03912,268.29456,80,80,0
268.03912,268.29456,68,80,0
268.30002,268.55545,79,80,0
268.30002,268.55545,67,80,0
268.56088,268.8163,76,80,0
268.56088,268.8163,64,80,0
268.82175,269.07718,73,80,0
268.82175,269.07718,61,80,0
269.0826,269.33804,72,80,0
269.0826,269.33804,60,80,0
269.34348,269.5989,72,80,0
269.34348,269.5989,60,80,0
269.86523,270.12067,84,88,0
269.86523,270.12067,72,88,0
270.38696,271.16412,96,112,0
270.38696,271.16412,84,111,0
271.16956,272.2076,72,110,0
271.16956,272.2076,84,110,0
272.21304,272.46848,80,80,0
272.21304,272.46848,68,80,0
272.4739,272.72934,77,80,0
272.4739,272.72934,65,80,0
272.73477,272.9902,74,80,0
272.73477,272.9902,62,80,0
272.99564,273.25107,71,80,0
272.99564,273.25107,59,80,0
273.25653,273.51196,70,80,0
273.25653,273.51196,58,80,0
273.5174,273.77283,70,80,0
273.5174,273.77283,58,80,0
274.03912,274.29456,82,88,0
274.03912,274.29456,70,88,0
274.56085,275.33804,94,111,0
274.56085,275.33804,82,112,0
275.34348,276.3815,70,110,0
275.34348,276.3815,82,110,0
276.38693,276.64236,78,80,0
276.38693,276.64236,66,80,0
276.64783,276.90326,77,80,0
276.64783,276.90326,65,80,0
276.9087,277.16412,74,80,0
276.9087,277.16412,62,80,0
277.16956,277.425,71,80,0
277.16956,277.425,59,80,0
277.43042,277.68585,70,80,0
277.43042,277.68585,58,80,0
277.69128,277.94672,70,110,0
277.69128,277.94672,58,110,0
278.213,278.46848,82,110,0
278.213,278.46848,70,110,0
278.73477,279.0018,94,110,0
278.73477,279.0018,82,110,0
279.2802,279.55997,95,110,0
279.2802,279.55997,83,110,0
279.8826,280.96783,71,80,0
280.9735,282.01154,70,80,0
282.017,282.27243,68,80,0
284.10394,285.14197,72,80,0
285.1474,286.18546,70,80,0
286.1909,286.44632,69,80,0
288.27783,289.3159,77,80,0
289.32132,290.35934,75,80,0
290.3648,290.62024,74,80,0
292.45175,293.48978,82,80,0
292.45175,293.48978,70,80,0
293.4952,294.53326,80,90,0
293.4952,294.53326,68,90,0
294.5387,296.09848,67,100,0
294.5387,296.09848,79,100,0
296.1039,296.37094,80,80,0
296.1039,296.37094,68,80,0
296.37665,296.67038,77,80,0
296.37665,296.67038,65,80,0
296.67664,297.74017,79,80,0
296.67664,297.74017,75,80,0
297.7456,298.78366,77,80,0
297.7456,298.78366,70,80,0
298.7891,299.3054,75,80,0
298.7891,299.3054,67,80,0
299.31082,299.56625,72,80,0
299.31082,299.56625,68,80,0
299.5717,299.82712,70,80,0
299.5717,299.82712,67,80,0
299.83255,300.08798,70,80,0
299.83255,300.08798,67,80,0
300.0934,300.34888,68,80,0
300.0934,300.34888,65,80,0
300.3543,300.60974,67,80,0
300.3543,300.60974,63,80,0
300.61517,300.8706,65,80,0
300.61517,300.8706,58,80,0
300.87604,301.00104,63,80,0
301.00647,301.13147,58,80,0
301.1369,301.2619,60,80,0
301.26733,301.39233,58,80,0
301.39777,301.52277,57,80,0
301.5282,301.6532,58,80,0
301.65863,301.78363,67,80,0
301.78906,301.91406,63,80,0
301.91953,302.04453,62,80,0
302.04996,302.17496,63,80,0
302.1804,302.3054,65,80,0
302.31082,302.43582,67,80,0
302.44125,302.56625,68,80,0
302.5717,302.6967,69,80,0
302.70212,302.82712,72,80,0
302.83255,302.95755,70,80,0
302.96298,303.08798,69,80,0
303.0934,303.2184,70,80,0
303.22385,303.34885,72,80,0
303.35428,303.47928,70,80,0
303.4847,303.6097,69,80,0
303.61517,303.74017,70,80,0
303.7456,303.8706,79,80,0
303.87604,304.00104,75,80,0
304.00647,304.13147,74,80,0
304.1369,304.2619,75,80,0
304.26733,304.39233,77,80,0
304.39777,304.52277,79,80,0
304.5282,304.6532,80,80,0
304.65863,304.78363,81,80,0
304.78906,304.91406,84,80,0
304.9195,305.0445,82,80,0
305.04993,305.17493,81,80,0
305.18036,305.30536,82,81,0
305.31082,305.43582,84,83,0
305.44125,305.56625,82,84,0
305.5717,305.6967,81,86,0
305.70212,305.82712,82,88,0
305.83255,305.95755,91,89,0
305.96298,306.08798,87,91,0
306.0934,306.2184,86,93,0
306.22385,306.34885,87,94,0
306.35428,306.47928,89,96,0
306.4847,306.6097,91,97,0
306.61514,306.74014,92,99,0
306.74557,306.87057,93,101,0
306.87604,307.001,96,102,0
307.00647,307.13147,94,104,0
307.1369,307.2619,93,106,0
307.26733,307.39233,94,107,0
307.39777,307.52277,92,109,0
307.5282,307.6532,91,110,0
307.65863,307.78363,89,110,0
307.78906,307.91406,87,110,0
307.9195,308.0445,86,110,0
308.04993,308.17493,84,110,0
308.18036,308.30536,82,110,0
308.3108,308.4358,80,110,0
308.44122,308.56622,79,110,0
308.5717,308.6967,77,110,0
308.70212,308.82712,75,110,0
308.83255,308.95755,74,104,0
308.96298,309.08798,77,97,0
309.0934,309.2184,80,91,0
309.22385,310.26187,79,80,0
309.22385,310.26187,75,80,0
310.26733,311.30536,77,80,0
310.26733,311.30536,70,80,0
311.3108,311.8271,75,80,0
311.3108,311.8271,67,80,0
311.83252,312.08798,72,80,0
311.83252,312.08798,68,80,0
312.0934,312.34885,70,80,0
312.0934,312.34885,67,80,0
312.35428,312.6097,70,80,0
312.35428,312.6097,67,80,0
312.61514,312.87057,68,80,0
312.61514,312.87057,65,80,0
312.876,313.13144,67,80,0
312.876,313.13144,63,80,0
313.13687,313.3923,65,80,0
313.13687,313.3923,58,80,0
313.39774,313.52274,63,80,0
313.52817,313.65317,58,80,0
313.65863,313.78363,60,80,0
313.78906,313.91406,58,80,0
313.9195,314.0445,57,80,0
314.04993,314.17493,58,80,0
314.18036,314.30536,67,80,0
314.3108,314.4358,63,80,0
314.44122,314.56622,62,80,0
314.57166,314.69666,63,80,0
314.7021,314.8271,65,80,0
314.83252,314.95752,67,80,0
314.96295,315.08795,68,80,0
315.09338,315.21838,69,80,0
315.22382,315.34882,72,80,0
315.35428,315.47928,70,80,0
315.4847,315.6097,69,80,0
315.61514,315.74014,70,80,0
315.74557,315.87057,72,80,0
315.876,316.001,70,80,0
316.00644,316.13144,69,80,0
316.13687,316.26187,70,80,0
316.2673,316.3923,79,80,0
316.39774,316.52274,75,80,0
316.52817,316.65317,74,80,0
316.6586,316.7836,75,80,0
316.78903,316.91403,77,80,0
316.91946,317.04446,79,80,0
317.04993,317.17493,80,80,0
317.18036,317.30536,81,80,0
317.3108,317.4358,84,80,0
317.44122,317.56622,82,80,0
317.57166,317.69666,81,80,0
317.7021,317.8271,82,81,0
317.83252,317.95752,84,83,0
317.96295,318.08795,82,85,0
318.09338,318.21838,81,87,0
318.22382,318.34882,82,89,0
318.35425,318.47925,91,91,0
318.48468,318.60968,87,93,0
318.6151,318.7401,86,95,0
318.74557,318.87057,87,97,0
318.876,319.001,89,99,0
319.00644,319.13144,91,101,0
319.13687,319.26187,92,103,0
319.2673,319.3923,93,105,0
319.39774,319.52274,96,107,0
319.52817,319.65317,94,108,0
319.6586,319.7836,94,110,0
319.78903,319.91403,70,110,0
319.91946,320.04446,72,110,0
320.0499,320.1749,70,110,0
320.18033,320.30533,69,110,0
320.3108,320.43576,70,110,0
320.44122,320.56622,79,110,0
320.57166,320.69666,75,110,0
320.7021,320.8271,74,110,0
320.83252,320.95752,75,110,0
320.96295,321.08795,77,110,0
321.09338,321.21838,79,110,0
321.22382,321.34882,80,110,0
321.35425,321.47925,81,110,0
321.48468,321.60968,84,110,0
321.6151,321.7401,82,110,0
321.74554,321.87625,82,110,0
321.88193,322.0126,58,110,0
322.01828,322.14896,60,108,0
322.15463,322.28534,58,106,0
322.29102,322.4217,57,104,0
322.42737,322.55804,58,102,0
322.56375,322.69443,67,100,0
322.7001,322.83078,63,98,0
322.83646,322.97336,57,96,0
322.9793,323.1162,58,93,0
323.1222,323.2591,68,91,0
323.26505,323.40195,65,89,0
323.4079,323.55164,62,87,0
323.5579,323.70163,72,85,0
323.7079,323.8676,70,83,0
323.87457,324.05426,62,81,0
324.06207,325.1001,63,80,0
325.10553,326.1436,58,80,0
326.14902,326.40445,55,80,0
328.23596,329.27402,67,80,0
328.23596,329.27402,63,80,0
329.27945,330.31747,65,80,0
329.27945,330.31747,58,80,0
330.3229,330.57834,63,80,0
330.3229,330.57834,55,80,0
332.149,332.40442,67,80,0
332.149,332.40442,63,80,0
332.40985,333.4479,65,80,0
332.40985,333.4479,58,80,0
333.45334,333.70877,63,80,0
333.45334,333.70877,55,80,0
334.23596,334.4914,79,80,0
334.23596,334.4914,75,80,0
334.49683,335.53485,77,80,0
334.49683,335.53485,70,80,0
335.54028,335.79572,75,80,0
335.54028,335.79572,67,80,0
336.3229,336.57834,87,80,0
336.3229,336.57834,91,80,0
336.84464,337.10007,91,80,0
336.84464,337.10007,87,80,0
337.1055,337.36093,89,80,0
337.1055,337.36093,82,80,0
337.36636,337.62183,87,80,0
337.36636,337.62183,79,80,0
337.62726,337.8827,87,80,0
337.62726,337.8827,79,80,0
338.93158,339.187,67,80,0
338.93158,339.187,63,80,0
339.19247,339.4479,65,80,0
339.19247,339.4479,58,80,0
339.45334,339.70877,63,80,0
339.45334,339.70877,55,80,0
339.7142,339.96964,63,80,0
339.7142,339.96964,55,80,0
340.75766,341.53485,58,80,0
340.75766,341.53485,53,80,0
341.54028,341.79572,55,80,0
341.54028,341.79572,51,80,0
341.80115,342.5783,58,80,0
341.80115,342.5783,53,80,0
342.58377,342.8392,55,80,0
342.58377,342.8392,51,80,0
342.84464,343.65714,58,80,0
342.84464,343.65714,53,80,0
343.6628,343.92984,55,80,0
343.6628,343.92984,51,80,0
343.93555,344.80072,58,80,0
343.93555,344.80072,53,80,0
343.93555,344.80072,50,80,0
344.80698,345.13336,62,80,0
344.80698,345.13336,56,80,0
344.80698,345.13336,53,80,0
345.1403,345.40735,63,80,0
345.1403,345.40735,55,80,0
347.2747,347.3997,63,80,0
347.40512,347.53012,65,80,0
347.53555,347.66055,63,80,0
347.666,347.791,62,79,0
347.79642,347.92142,63,79,0
347.92685,348.05185,65,78,0
348.05728,348.18228,67,78,0
348.1877,348.3127,68,77,0
348.31815,348.44315,70,77,0
348.44858,348.57358,72,77,0
348.579,348.704,74,76,0
348.70947,348.83447,75,76,0
348.8399,348.9649,77,75,0
348.97034,349.09534,79,75,0
349.10077,349.22577,80,74,0
349.2312,349.3562,82,74,0
349.36163,349.53012,84,74,0
349.53555,349.704,86,73,0
349.70944,349.87793,87,72,0
349.88336,350.00836,89,72,0
350.0138,350.1388,91,71,0
350.14423,350.26923,92,71,0
350.27466,350.39966,94,71,0
350.40512,350.92142,96,70,0
350.92685,351.18228,94,70,0
351.44858,351.57925,87,70,0
351.58496,351.71564,89,70,0
351.7213,351.852,87,70,0
351.85767,351.98834,86,70,0
351.99405,352.0963,87,70,0
352.102,352.20425,89,70,0
352.20996,352.31223,91,70,0
352.3179,352.42017,92,70,0
352.42584,352.52814,94,70,0
352.5395,353.07925,96,70,0
353.08493,353.352,94,70,0
353.6304,353.7673,87,70,0
353.77325,353.91016,89,70,0
353.9161,354.053,87,70,0
354.05896,354.19586,86,70,0
354.2018,354.319,87,70,0
354.32553,354.44272,89,70,0
354.44922,354.5664,91,70,0
354.5729,354.6901,92,70,0
354.69662,354.8138,94,70,0
354.8268,356.15323,84,70,0
354.8268,356.15323,96,70,0
356.16016,356.48654,94,70,0
356.16016,356.48654,82,70,0
357.4935,357.8199,62,110,0
357.4935,357.8199,58,110,0
357.4935,357.8199,53,110,0
357.4935,357.8199,56,110,0
358.8268,359.48654,63,110,0
358.8268,359.48654,58,110,0
358.8268,359.48654,55,110,0
363.4935,363.8199,63,1,0
3.0,5.234375,48,80,0
3.0,5.234375,36,80,0
5.25,5.984375,51,80,0
5.25,5.984375,48,80,0
6.0,6.734375,52,80,0
6.0,6.734375,46,80,0
6.75,7.484375,46,80,0
6.75,7.484375,52,80,0
7.5,8.234375,53,80,0
7.5,8.234375,45,80,0
8.25,8.984375,54,80,0
8.25,8.984375,44,80,0
9.0,9.734375,55,80,0
9.75,10.149305,57,80,0
10.583333,10.982638,59,80,0
9.0,11.399305,43,80,0
12.166666,12.901041,67,80,0
12.916666,13.651041,69,80,0
12.166666,14.401041,55,80,0
13.666666,14.401041,71,80,0
14.416666,15.232638,70,80,0
14.416666,15.232638,67,80,0
15.249999,16.065971,68,80,0
15.249999,16.065971,65,80,0
15.249999,17.0013,70,80,0
16.083332,17.0013,67,80,0
16.083332,17.0013,63,80,0
17.020832,17.999998,65,80,0
17.020832,17.999998,62,80,0
17.020832,17.999998,70,80,0
18.020832,19.15064,62,80,0
18.020832,19.15064,58,80,0
20.674679,22.159054,46,80,0
20.674679,22.159054,34,80,0
22.174679,24.409054,47,80,0
22.174679,24.409054,35,80,0
24.424679,25.159054,54,80,0
24.424679,25.159054,47,80,0
25.174679,25.909054,54,80,0
25.174679,25.909054,49,80,0
25.924679,26.659054,54,80,0
25.924679,26.659054,49,80,0
26.674679,27.409054,54,80,0
26.674679,27.409054,47,80,0
27.424679,28.159054,46,80,0
27.424679,28.971554,54,80,0
28.174679,29.659054,45,80,0
28.924679,29.659054,53,80,0
29.674679,30.409054,53,80,0
29.674679,30.409054,46,80,0
30.424679,31.159054,44,80,0
30.424679,31.909054,52,80,0
31.174679,32.659054,43,80,0
31.924679,32.659054,51,80,0
32.67468,33.409054,51,80,0
32.67468,33.409054,44,80,0
33.42468,34.218597,54,80,0
33.42468,34.218597,46,80,0
33.42468,34.218597,42,80,0
34.23549,35.074776,53,80,0
34.23549,35.074776,46,80,0
34.23549,35.074776,41,80,0
36.378345,36.78906,53,80,0
36.378345,36.78906,46,80,0
36.378345,36.78906,41,80,0
36.806915,37.21763,51,80,0
36.806915,37.21763,46,80,0
36.806915,37.21763,39,80,0
37.23549,37.646202,51,80,0
37.23549,37.646202,46,80,0
37.23549,37.646202,39,80,0
37.66406,38.503345,50,80,0
37.66406,38.503345,46,80,0
37.66406,38.503345,38,80,0
39.806915,40.21763,68,80,0
39.806915,40.21763,65,80,0
40.235485,40.684704,66,80,0
40.235485,40.684704,63,80,0
40.704235,41.153454,66,80,0
40.704235,41.153454,63,80,0
41.172985,42.090954,65,80,0
41.172985,42.090954,62,80,0
43.464653,43.863956,65,80,0
43.464653,43.863956,62,80,0
43.881317,44.280624,63,80,0
43.881317,44.280624,61,80,0
44.297985,44.697292,63,80,0
44.297985,44.697292,59,80,0
44.714653,45.530624,63,80,0
44.714653,45.530624,59,80,0
46.797985,47.19729,65,80,0
46.797985,47.19729,62,80,0
47.21465,47.663868,63,80,0
47.21465,47.663868,61,80,0
47.6834,48.236286,63,80,0
47.6834,48.236286,60,80,0
49.41417,50.27814,63,80,0
49.41417,50.27814,60,80,0
51.178875,52.042847,60,80,0
51.178875,52.042847,63,80,0
52.061226,52.838398,63,110,0
52.061226,52.838398,60,110,0
52.843834,52.968834,62,110,0
52.843834,52.968834,59,110,0
52.97427,53.09927,61,110,0
52.97427,53.09927,58,110,0
53.104702,53.360138,61,110,0
53.104702,53.360138,58,110,0
53.365574,53.490574,60,110,0
53.365574,53.490574,57,110,0
53.496006,53.621006,59,110,0
53.496006,53.621006,56,110,0
53.626442,53.881874,59,110,0
53.626442,53.881874,56,110,0
53.88731,54.01231,58,110,0
53.88731,54.01231,55,110,0
54.017746,54.142746,57,110,0
54.017746,54.142746,54,110,0
54.14818,54.92535,56,110,0
54.14818,54.92535,53,110,0
54.930786,55.186222,55,80,0
54.930786,55.186222,51,80,0
55.191654,55.44709,53,80,0
55.191654,55.44709,50,80,0
55.452526,55.70796,51,80,0
55.452526,55.70796,48,80,0
55.713394,55.968826,50,80,0
55.713394,55.968826,46,80,0
55.974262,56.2297,46,80,0
55.974262,56.2297,50,80,0
55.974262,56.2297,53,80,0
56.23513,56.36013,39,80,0
56.365566,56.490566,46,82,0
56.496002,56.621,55,84,0
56.626434,56.751434,46,86,0
56.75687,56.88187,39,88,0
56.887302,57.012302,46,90,0
57.01774,57.14274,55,92,0
57.148174,57.273174,46,94,0
57.278606,57.403606,41,97,0
57.409042,57.534042,46,99,0
57.53948,57.664474,56,101,0
57.66991,57.79491,46,103,0
57.800346,57.925346,41,105,0
57.93078,58.05578,46,107,0
58.061214,58.186214,56,110,0
58.19165,58.31665,46,101,0
58.322083,58.447083,43,90,0
58.45252,58.57752,46,80,0
58.582954,58.70795,58,80,0
58.713387,58.838387,46,80,0
58.843822,58.968822,43,80,0
58.974255,59.099255,46,80,0
59.10469,59.22969,58,80,0
59.235126,59.360126,46,80,0
59.36556,59.49056,44,80,0
59.495995,59.620995,46,80,0
59.626427,59.751427,56,80,0
59.756863,59.881863,46,80,0
59.8873,60.0123,34,80,0
60.01773,60.14273,46,80,0
60.148167,60.273167,53,80,0
60.278603,60.403603,46,80,0
60.409035,60.534035,39,80,0
60.53947,60.66447,46,82,0
60.669903,60.794903,55,84,0
60.80034,60.92534,46,86,0
60.930775,61.055775,39,88,0
61.061207,61.186207,46,91,0
61.191643,61.316643,55,93,0
61.32208,61.447075,46,95,0
61.45251,61.57751,41,97,0
61.582947,61.707947,46,99,0
61.71338,61.83838,56,102,0
61.843815,61.968815,46,104,0
61.97425,62.09925,41,106,0
62.104683,62.229683,46,108,0
62.23512,62.36012,56,110,0
62.365555,62.49055,46,100,0
62.495987,62.620987,43,91,0
62.626423,62.751423,51,80,0
62.756855,62.881855,58,80,0
62.88729,63.01229,51,80,0
63.017727,63.142727,43,80,0
63.14816,63.27316,51,80,0
63.278595,63.403595,58,80,0
63.409027,63.534027,51,80,0
63.539463,63.664463,44,80,0
63.6699,63.7949,51,80,0
63.80033,63.92533,60,80,0
63.930767,64.05576,51,80,0
64.0612,64.1862,45,80,0
64.191635,64.316635,53,80,0
64.32207,64.44707,60,80,0
64.45251,64.57751,55,80,0
64.58294,64.83837,58,80,0
64.58294,64.83837,46,80,0
64.84381,64.96881,63,80,0
64.97424,65.09924,62,80,0
65.104675,65.229675,60,80,0
65.235115,65.360115,58,80,0
65.36555,65.49055,56,80,0
65.49598,65.62098,56,80,0
65.62642,65.75141,55,80,0
65.75685,65.88185,53,80,0
65.88728,66.01228,51,80,0
66.017715,66.142715,50,80,0
66.148155,66.273155,51,80,0
66.27859,66.40359,53,80,0
66.40902,66.53402,55,80,0
66.53946,66.66446,56,80,0
66.66989,66.92532,58,80,0
66.93076,67.05576,60,80,0
67.061195,67.186195,62,80,0
67.19163,67.31663,63,80,0
67.32207,67.44707,65,80,0
67.4525,67.5775,67,80,0
67.58293,67.70793,68,80,0
67.71337,67.9688,70,80,0
67.974236,68.099236,68,80,0
68.10467,68.22967,67,80,0
68.23511,68.36011,65,80,0
68.36554,68.49054,63,82,0
68.49597,68.62097,62,85,0
68.62641,68.75141,60,88,0
68.75684,68.88184,59,91,0
68.887276,69.012276,57,94,0
69.017715,69.142715,55,96,0
69.14815,69.27315,53,99,0
69.27858,69.40358,51,102,0
69.40902,69.53402,50,105,0
69.53945,69.66445,48,108,0
69.66988,69.79488,48,110,0
69.66988,69.79488,47,110,0
69.800316,70.055756,48,110,0
69.800316,70.055756,46,110,0
70.32206,70.57749,48,110,0
70.32206,70.57749,45,110,0
70.843796,71.620964,42,110,0
71.6264,71.881836,41,110,0
70.843796,72.925316,48,110,0
71.88727,72.925316,39,110,0
72.93075,73.70792,42,110,0
73.713356,73.96879,41,110,0
72.93075,75.01227,48,110,0
73.97422,75.01227,40,110,0
75.0177,75.27313,48,80,0
75.0177,75.27313,41,80,0
76.06117,76.31661,50,80,0
76.06117,76.31661,41,80,0
77.10465,77.360085,51,80,0
77.10465,77.360085,41,80,0
77.62639,77.88182,50,80,0
77.62639,77.88182,41,80,0
78.148125,78.403564,48,80,0
78.148125,78.403564,41,80,0
78.66987,78.9253,50,80,0
78.66987,78.9253,41,80,0
79.191605,79.44704,48,80,0
79.191605,79.44704,41,80,0
80.23508,80.49052,50,80,0
80.23508,80.49052,41,80,0
81.27856,81.53399,51,80,0
81.27856,81.53399,41,80,0
81.80029,82.055725,50,80,0
81.80029,82.055725,41,80,0
82.32203,82.57747,51,80,0
82.32203,82.57747,41,80,0
82.84377,83.099205,53,80,0
83.10464,83.22964,55,80,0
83.23507,83.36007,57,80,0
83.36551,83.49051,58,80,0
83.49594,83.62094,60,80,0
83.62637,83.75137,62,80,0
83.75681,83.88181,63,80,0
83.887245,84.14268,65,80,0
84.14812,84.27312,67,80,0
84.27855,84.40355,68,80,0
84.40898,84.53398,70,80,0
84.53942,84.66442,72,80,0
84.66985,84.79485,74,80,0
84.800285,84.925285,75,80,0
84.930725,85.18616,77,80,0
85.19159,85.44702,75,80,0
85.45246,85.70789,74,80,0
85.713326,85.968765,73,80,0
85.9742,86.22963,72,80,0
86.23507,86.51483,65,80,0
86.794075,87.31038,64,80,0
86.794075,87.31038,61,80,0
86.52078,87.57124,58,80,0
87.31581,87.57124,65,80,0
87.31581,87.57124,62,80,0
87.83755,88.35385,66,80,0
87.576675,88.61472,58,80,0
87.83755,88.61472,69,80,0
88.35928,88.61472,65,80,0
88.88103,89.13646,65,80,0
88.88103,89.13646,62,80,0
89.14189,89.39732,63,80,0
89.14189,89.39732,67,80,0
88.620155,89.658195,58,80,0
89.40276,89.658195,65,80,0
89.40276,89.658195,62,80,0
89.66363,89.91907,62,80,0
89.9245,90.17993,60,80,0
89.9245,90.17993,63,80,0
90.18537,90.4408,58,80,0
90.18537,90.4408,62,80,0
89.66363,90.701675,53,80,0
90.446236,90.701675,57,80,0
90.446236,90.701675,60,80,0
90.96798,91.484276,52,80,0
90.96798,91.484276,49,80,0
90.70711,91.74515,46,80,0
91.489716,91.74515,53,80,0
91.489716,91.74515,50,80,0
92.01145,92.527756,54,80,0
91.75058,92.78863,46,80,0
92.01145,92.78863,57,80,0
92.53319,92.78863,53,80,0
93.05493,93.31036,53,80,0
93.05493,93.31036,50,80,0
93.315796,93.57123,51,80,0
93.315796,93.57123,55,80,0
92.79406,93.8321,46,80,0
93.57667,93.8321,53,80,0
93.57667,93.8321,50,80,0
93.83753,94.09297,50,80,0
94.098404,94.353836,48,80,0
94.098404,94.353836,51,80,0
94.359276,94.61471,46,80,0
94.359276,94.61471,50,80,0
93.83753,94.87558,41,80,0
94.62014,94.87558,45,80,0
94.62014,94.87558,48,80,0
94.88101,95.26688,46,80,0
94.88101,95.26688,34,80,0
95.272316,95.397316,42,80,0
95.40275,95.65818,41,80,0
95.66362,95.91905,34,80,0
95.924484,96.179924,29,80,0
96.185356,96.310356,51,80,0
96.31579,96.44079,50,80,0
96.44623,96.57123,48,80,0
96.57666,96.70166,46,80,0
96.70709,96.83209,45,80,0
96.70709,96.83209,41,80,0
96.83753,96.96253,53,80,0
96.967964,97.35383,46,80,0
97.35927,97.48427,54,80,0
97.4897,97.74513,53,80,0
97.75057,98.006004,46,80,0
98.01144,98.26688,41,80,0
98.27231,98.39731,63,80,0
98.40274,98.52774,62,80,0
98.53318,98.65818,60,80,0
98.66361,98.78861,58,80,0
98.794044,98.919044,57,80,0
98.794044,98.919044,53,80,0
98.924484,99.04948,65,80,0
99.05492,99.44078,62,80,0
99.05492,99.44078,58,80,0
99.44622,99.57122,60,80,0
99.57665,99.962524,58,80,0
99.96796,100.09296,55,80,0
100.09839,100.48426,53,80,0
100.48969,100.61469,51,80,0
100.62013,101.006,50,80,0
101.01143,101.13643,48,80,0
101.14187,101.52773,46,80,0
101.53317,101.65817,43,80,0
101.663605,102.04948,41,80,0
102.05491,102.17991,39,80,0
102.18534,102.57121,38,80,0
102.576645,102.701645,36,80,0
102.707085,103.09295,34,80,0
103.09838,103.22338,65,80,0
103.09838,103.22338,68,80,0
103.22882,104.26686,68,80,0
103.22882,104.26686,65,80,0
104.27229,105.31033,67,80,0
104.27229,105.31033,63,80,0
105.31577,106.35381,65,80,0
105.31577,106.35381,62,80,0
106.359245,107.397285,63,80,0
106.359245,107.397285,61,80,0
107.402725,108.17989,63,80,0
107.402725,108.17989,60,80,0
108.18533,108.31033,62,80,0
108.18533,108.31033,59,80,0
108.315765,108.440765,61,80,0
108.315765,108.440765,58,80,0
108.4462,108.70163,61,80,0
108.4462,108.70163,58,80,0
108.70707,108.83207,60,80,0
108.70707,108.83207,57,80,0
108.8375,108.9625,59,80,0
108.8375,108.9625,56,80,0
108.96793,109.22337,59,80,0
108.96793,109.22337,56,80,0
109.228806,109.353806,58,80,0
109.228806,109.353806,55,80,0
109.35924,109.48424,57,80,0
109.35924,109.48424,54,80,0
109.48968,110.266846,56,80,0
109.48968,110.266846,53,80,0
110.272285,110.52772,55,80,0
110.272285,110.52772,51,80,0
110.53315,110.78858,53,80,0
110.53315,110.78858,50,80,0
110.79402,111.04945,51,80,0
110.79402,111.04945,48,80,0
111.054886,111.310326,50,80,0
111.054886,111.310326,46,80,0
111.31576,111.57119,46,80,0
111.31576,111.57119,50,80,0
111.31576,111.57119,53,80,0
111.57663,111.70163,39,80,0
111.70706,111.83206,46,82,0
111.837494,111.962494,55,84,0
111.96793,112.09293,46,86,0
112.098366,112.223366,39,88,0
112.2288,112.3538,46,91,0
112.35924,112.48423,55,93,0
112.48967,112.61467,46,95,0
112.6201,112.7451,41,97,0
112.750534,112.875534,46,99,0
112.880974,113.005974,56,102,0
113.011406,113.136406,46,104,0
113.14184,113.26684,41,106,0
113.27228,113.39728,46,108,0
113.40271,113.52771,56,110,0
113.53314,113.65814,46,101,0
113.66358,113.78858,43,91,0
113.794014,113.919014,46,80,0
113.924446,114.049446,58,80,0
114.054886,114.179886,46,80,0
114.18532,114.31032,43,80,0
114.31575,114.44075,46,80,0
114.44618,114.57118,58,80,0
114.57662,114.70162,46,80,0
114.707054,114.832054,44,80,0
114.83749,114.96249,46,80,0
114.967926,115.092926,56,80,0
115.09836,115.22336,46,80,0
115.22879,115.35379,34,80,0
115.35923,115.48423,46,80,0
115.48966,115.61466,53,80,0
115.620094,115.745094,46,80,0
115.750534,115.875534,39,80,0
115.88097,116.00597,46,82,0
116.0114,116.1364,55,84,0
116.14184,116.26683,46,86,0
116.27227,116.39727,39,88,0
116.4027,116.5277,46,91,0
116.533134,116.658134,55,93,0
116.663574,116.788574,46,95,0
116.79401,116.91901,41,97,0
116.92444,117.04944,46,99,0
117.05488,117.17988,56,102,0
117.18531,117.31031,46,104,0
117.31574,117.44074,41,106,0
117.44618,117.57118,46,108,0
117.576614,117.701614,56,110,0
117.70705,117.83205,46,102,0
117.83749,117.96249,43,91,0
117.96792,118.09292,51,80,0
118.09835,118.22335,58,80,0
118.22879,118.35378,51,80,0
118.35922,118.48422,43,80,0
118.489655,118.614655,51,80,0
118.62009,118.74509,58,80,0
118.75053,118.87553,51,80,0
118.88096,119.00596,44,80,0
119.01139,119.13639,51,80,0
119.14183,119.26683,60,80,0
119.27226,119.39726,51,80,0
119.402695,119.527695,45,80,0
119.533134,119.658134,53,80,0
119.66357,119.78857,60,80,0
119.794,119.919,55,80,0
119.92444,120.17987,58,80,0
119.92444,120.17987,46,80,0
120.1853,120.3103,63,80,0
120.315735,120.440735,62,80,0
120.446175,120.571175,60,80,0
120.57661,120.70161,58,80,0
120.70704,120.83204,56,80,0
120.83748,120.96248,56,80,0
120.96791,121.09291,55,80,0
121.09834,121.22334,53,80,0
121.22878,121.35378,51,80,0
121.359215,121.484215,50,80,0
121.48965,121.61465,51,80,0
121.62009,121.74509,53,80,0
121.75052,121.87552,55,80,0
121.88095,122.00595,56,80,0
122.01139,122.26682,58,80,0
122.272255,122.397255,60,80,0
122.40269,122.52769,62,80,0
122.53313,122.65813,63,80,0
122.66356,122.78856,65,80,0
122.79399,122.91899,67,80,0
122.92443,123.04943,68,80,0
123.05486,123.310295,70,80,0
123.315735,123.440735,68,80,0
123.44617,123.57117,67,80,0
123.5766,123.7016,65,80,0
123.70704,123.83204,63,80,0
123.83747,123.96247,62,83,0
123.9679,124.0929,60,86,0
124.098335,124.223335,59,89,0
124.228775,124.353775,57,92,0
124.35921,124.48421,55,95,0
124.48964,124.61464,53,98,0
124.62008,124.74508,51,101,0
124.75051,124.87551,50,104,0
124.88094,125.00594,48,107,0
125.01138,125.13638,48,110,0
125.01138,125.13638,47,110,0
125.141815,125.39725,48,110,0
125.141815,125.39725,46,110,0
125.66355,125.91898,48,110,0
125.66355,125.91898,45,110,0
126.18529,126.96246,42,110,0
126.967896,127.223335,41,110,0
126.18529,128.26682,48,110,0
127.22877,128.26682,39,110,0
128.27225,129.04941,42,110,0
129.05486,129.31029,41,110,0
128.27225,130.35376,48,110,0
129.31572,130.35376,40,110,0
130.35919,130.61462,48,80,0
130.35919,130.61462,41,80,0
131.40266,131.65811,50,80,0
131.40266,131.65811,41,80,0
132.44615,132.70158,51,80,0
132.44615,132.70158,41,80,0
132.96788,133.22331,50,80,0
132.96788,133.22331,41,80,0
133.48962,133.74506,48,80,0
133.48962,133.74506,41,80,0
134.01137,134.2668,50,80,0
134.01137,134.2668,41,80,0
134.5331,134.78853,48,80,0
134.5331,134.78853,41,80,0
135.57657,135.83202,50,80,0
135.57657,135.83202,41,80,0
136.62006,136.87549,51,80,0
136.62006,136.87549,41,80,0
137.14178,137.39722,50,80,0
137.14178,137.39722,41,80,0
137.66353,137.91896,51,80,0
137.66353,137.91896,41,80,0
138.18527,138.4407,53,80,0
138.44614,138.57114,55,80,0
138.57657,138.70157,57,80,0
138.707,138.832,58,80,0
138.83743,138.96243,60,80,0
138.96786,139.09286,62,80,0
139.09831,139.22331,63,80,0
139.22874,139.48418,65,80,0
139.48961,139.61461,67,80,0
139.62004,139.74504,68,80,0
139.75047,139.87547,70,80,0
139.88092,140.00592,72,80,0
140.01135,140.13635,74,80,0
140.14178,140.26678,75,80,0
140.27222,140.52765,77,80,0
140.53308,140.78851,75,80,0
140.79396,141.0494,74,80,0
141.05482,141.31026,73,80,0
141.31569,141.58273,72,80,0
141.58842,141.8764,65,80,0
142.16003,142.67633,64,80,0
142.16003,142.67633,61,80,0
141.88254,142.9372,58,80,0
142.68176,142.9372,65,80,0
142.68176,142.9372,62,80,0
143.2035,143.7198,66,80,0
142.94264,143.98068,58,80,0
143.2035,143.98068,69,80,0
143.72525,143.98068,65,80,0
144.24698,144.50241,65,80,0
144.24698,144.50241,62,80,0
144.50786,144.76329,63,80,0
144.50786,144.76329,67,80,0
143.98611,145.02415,58,80,0
144.76872,145.02415,65,80,0
144.76872,145.02415,62,80,0
145.02959,145.28502,62,80,0
145.29045,145.5459,60,80,0
145.29045,145.5459,63,80,0
145.55133,145.80676,58,80,0
145.55133,145.80676,62,80,0
145.02959,146.06763,53,80,0
145.8122,146.06763,57,80,0
145.8122,146.06763,60,80,0
146.33394,146.85023,52,80,0
146.33394,146.85023,49,80,0
146.07306,147.1111,46,80,0
146.85567,147.1111,53,80,0
146.85567,147.1111,50,80,0
147.37741,147.8937,54,80,0
147.11655,148.15459,46,80,0
147.37741,148.15459,57,80,0
147.89915,148.15459,53,80,0
148.42088,148.67632,53,80,0
148.42088,148.67632,50,80,0
148.68175,148.9372,51,80,0
148.68175,148.9372,55,80,0
148.16002,149.19806,46,80,0
148.94263,149.19806,53,80,0
148.94263,149.19806,50,80,0
149.20349,149.45892,50,80,0
149.46436,149.7198,48,80,0
149.46436,149.7198,51,80,0
149.72523,149.98067,46,80,0
149.72523,149.98067,50,80,0
149.20349,150.24153,41,80,0
149.9861,150.24153,45,80,0
149.9861,150.24153,48,80,0
150.24696,150.63284,46,80,0
150.24696,150.63284,34,80,0
150.63828,150.76328,42,80,0
150.7687,151.02414,41,80,0
151.02957,151.285,34,80,0
151.29045,151.54588,29,80,0
151.55132,151.67632,51,80,0
151.68175,151.80675,50,80,0
151.81218,151.93718,48,80,0
151.94261,152.06761,46,80,0
152.07306,152.19806,45,80,0
152.07306,152.19806,41,80,0
152.20349,152.32849,53,80,0
152.33392,152.71979,46,80,0
152.72522,152.85022,54,80,0
152.85565,153.1111,53,80,0
153.11653,153.37196,46,80,0
153.3774,153.63283,41,80,0
153.63826,153.76326,63,80,0
153.7687,153.8937,62,80,0
153.89914,154.02414,60,80,0
154.02957,154.15457,58,80,0
154.16,154.285,57,80,0
154.16,154.285,53,80,0
154.29044,154.41544,65,80,0
154.42087,154.80675,62,80,0
154.42087,154.80675,58,80,0
154.81218,154.93718,60,80,0
154.94261,155.32848,58,80,0
155.33391,155.45891,55,80,0
155.46436,155.85022,53,80,0
155.85565,155.98065,51,80,0
155.98608,156.37195,50,80,0
156.3774,156.5024,48,80,0
156.50783,156.89369,46,80,0
156.89912,157.02412,43,80,0
157.02956,157.41544,41,80,0
157.42087,157.54587,39,80,0
157.5513,157.93716,38,80,0
157.94261,158.06761,36,80,0
158.07304,158.45891,34,80,0
158.46434,158.58934,65,80,0
158.46434,158.58934,68,80,0
158.59477,159.63281,68,80,0
158.59477,159.63281,65,80,0
159.63826,160.6763,67,80,0
159.63826,160.6763,63,80,0
160.68173,161.71977,65,80,0
160.68173,161.71977,62,80,0
161.7252,162.76324,63,80,0
161.7252,162.76324,60,80,0
162.76868,163.54585,59,110,0
162.76868,163.54585,62,110,0
163.55128,163.80672,62,110,0
163.55128,163.80672,58,110,0
163.81216,164.0676,60,110,0
163.81216,164.0676,57,110,0
164.3339,164.58932,60,110,0
164.3339,164.58932,56,110,0
164.85564,165.12268,60,110,0
164.85564,165.12268,55,110,0
165.12836,165.3954,60,110,0
165.12836,165.3954,54,110,0
165.4011,165.68085,59,110,0
165.4011,165.68085,53,110,0
165.4011,165.68085,55,110,0
165.6868,165.99652,60,110,0
165.6868,165.99652,55,110,0
165.6868,165.99652,51,110,0
168.35129,168.47629,48,80,0
168.48172,168.60672,54,80,0
168.61215,168.86758,54,80,0
168.87303,168.99803,45,80,0
169.00346,169.12846,51,80,0
169.1339,169.38933,51,80,0
169.39476,169.51976,41,80,0
169.52519,169.65019,48,80,0
169.65564,169.92268,48,80,0
169.92836,170.20811,49,80,0
172.56189,172.68689,62,80,0
172.69234,172.81734,69,80,0
172.82277,173.0782,69,80,0
173.08363,173.20863,54,80,0
173.21407,173.33907,60,80,0
173.3445,173.61154,60,80,0
173.61723,173.74791,50,80,0
173.75359,173.88428,57,80,0
173.88995,174.16972,57,80,0
174.17567,174.31258,38,80,0
174.31853,174.46228,50,80,0
176.86378,176.98878,54,80,0
176.99422,177.11922,63,80,0
177.12465,177.38008,63,80,0
177.38551,177.51051,51,80,0
177.51595,177.64095,59,80,0
177.6464,177.90182,59,80,0
177.90726,178.03226,47,80,0
178.03769,178.16269,54,80,0
178.16812,178.43517,54,80,0
178.44086,178.57776,42,80,0
178.58371,178.72746,51,80,0
181.12897,181.25397,56,80,0
181.2594,181.3844,65,80,0
181.38983,181.64526,65,80,0
181.6507,181.7757,53,80,0
181.78113,181.90613,62,80,0
181.91158,182.167,62,80,0
182.17244,182.29744,53,80,0
182.17244,182.29744,50,80,0
182.30287,182.42787,56,80,0
182.30287,182.42787,53,80,0
182.4333,182.68874,56,80,0
182.4333,182.68874,53,80,0
182.69418,182.81918,53,80,0
182.69418,182.81918,50,80,0
182.82462,182.94962,56,80,0
182.82462,182.94962,53,80,0
183.21591,183.34091,56,80,0
183.34634,183.47134,65,80,0
183.47678,183.73222,65,80,0
183.73766,183.86266,53,80,0
183.86809,183.99309,62,80,0
183.99852,184.25395,62,80,0
184.25938,184.52643,74,80,0
184.53212,184.81187,75,95,0
184.81783,185.11159,74,110,0
185.11783,185.93033,70,110,0
185.11783,185.93033,67,110,0
185.11783,185.93033,61,110,0
185.93602,186.20306,68,110,0
185.93602,186.20306,65,110,0
185.93602,186.20306,59,110,0
186.20874,186.47578,66,110,0
186.20874,186.47578,61,110,0
186.20874,186.47578,58,110,0
186.48146,186.7485,61,110,0
186.48146,186.7485,56,110,0
186.7542,187.02124,61,110,0
186.7542,187.02124,53,110,0
187.02692,187.29396,61,110,0
187.02692,187.29396,54,110,0
187.29965,187.5667,63,80,0
187.29965,187.5667,59,80,0
187.57237,187.83942,61,80,0
187.57237,187.83942,58,80,0
187.84511,188.11215,59,80,0
187.84511,188.11215,56,80,0
188.11783,188.38487,58,80,0
188.11783,188.38487,54,80,0
188.65143,188.77643,41,80,0
188.78186,188.90686,49,80,0
188.9123,189.16772,49,80,0
189.17316,189.29816,53,80,0
189.3036,189.4286,61,80,0
189.6949,189.8199,41,80,0
189.82533,189.95033,50,80,0
189.95576,190.2112,50,80,0
190.21664,190.34164,53,80,0
190.34708,190.47208,62,80,0
190.73837,190.86337,39,79,0
190.8688,190.9938,48,79,0
190.99925,191.25468,48,79,0
191.26012,191.38512,51,79,0
191.39055,191.51555,60,78,0
191.78185,191.90685,38,78,0
191.9123,192.0373,47,78,0
192.04272,192.29816,47,78,0
192.30359,192.42859,50,77,0
192.43402,192.55902,59,77,0
192.82533,192.95033,36,77,0
192.95576,193.08076,48,77,0
193.0862,193.34163,48,77,0
193.34706,193.47206,48,76,0
193.47751,193.6025,60,76,0
193.8688,193.9938,36,76,0
193.99924,194.12424,48,76,0
194.12967,194.3851,48,75,0
194.39055,194.51555,48,75,0
194.52098,194.64598,60,75,0
194.91228,195.03728,36,75,0
195.04271,195.16771,48,74,0
195.17316,195.42859,48,74,0
195.43402,195.55902,48,74,0
195.56445,195.68945,60,74,0
195.95575,196.08075,36,73,0
196.0862,196.2112,48,73,0
196.21663,196.47206,48,73,0
196.4775,196.6025,48,73,0
196.60793,196.73293,60,73,0
196.99924,197.12424,36,72,0
197.12967,197.25467,48,72,0
197.2601,197.51553,48,72,0
197.52097,197.64597,48,72,0
197.6514,197.7764,60,72,0
198.04271,198.16771,36,71,0
198.17314,198.29814,48,71,0
198.30357,198.57062,48,71,0
198.57631,198.70699,48,71,0
198.71266,198.84335,60,71,0
199.12177,199.25244,48,70,0
199.25812,199.38881,60,70,0
199.39449,199.52516,48,70,0
199.53085,199.66153,60,70,0
200.21266,200.34335,47,70,0
200.34903,200.4797,59,70,0
200.4854,200.6223,47,70,0
200.62825,200.76515,59,70,0
201.34253,201.47945,48,70,0
201.4854,201.6223,60,70,0
201.62825,201.76515,48,70,0
201.7711,201.908,60,70,0
202.4854,202.6223,48,70,0
202.62825,202.76515,60,70,0
202.7711,202.91486,48,70,0
202.92111,203.06485,60,70,0
203.67111,203.80179,48,75,0
203.80746,203.93816,60,77,0
203.94383,204.07451,48,80,0
204.0802,204.21088,60,83,0
204.21655,204.34155,48,85,0
204.347,204.472,60,88,0
204.47743,204.60243,48,91,0
204.60786,204.73286,60,93,0
204.7383,204.8633,60,96,0
204.86873,204.99373,63,99,0
204.99916,205.12985,60,101,0
205.13553,205.2662,63,104,0
205.2719,205.41565,60,107,0
205.42189,205.58162,63,109,0
205.58856,206.36574,63,110,0
205.58856,206.36574,60,110,0
206.37117,206.49617,62,110,0
206.37117,206.49617,59,110,0
206.5016,206.6266,61,110,0
206.5016,206.6266,58,110,0
206.63203,206.88747,61,110,0
206.63203,206.88747,58,110,0
206.8929,207.0179,60,110,0
206.8929,207.0179,57,110,0
207.02335,207.14835,59,110,0
207.02335,207.14835,56,110,0
207.15378,207.40921,59,110,0
207.15378,207.40921,56,110,0
207.41464,207.53964,58,110,0
207.41464,207.53964,55,110,0
207.54507,207.67007,57,110,0
207.54507,207.67007,54,110,0
207.6755,208.45268,56,110,0
207.6755,208.45268,53,110,0
208.45811,208.71355,55,80,0
208.45811,208.71355,51,80,0
208.719,208.97443,53,80,0
208.719,208.97443,50,80,0
208.97986,209.23529,51,80,0
208.97986,209.23529,48,80,0
209.24072,209.49615,50,80,0
209.24072,209.49615,46,80,0
209.5016,209.75703,46,80,0
209.5016,209.75703,50,80,0
209.5016,209.75703,53,80,0
209.76247,209.88747,39,80,0
209.8929,210.0179,46,82,0
210.02333,210.14833,55,84,0
210.15376,210.27876,46,86,0
210.2842,210.4092,39,88,0
210.41464,210.53964,46,91,0
210.54507,210.67007,55,93,0
210.6755,210.8005,46,95,0
210.80594,210.93094,41,97,0
210.93637,211.06137,46,99,0
211.0668,211.1918,56,102,0
211.19725,211.32225,46,104,0
211.32768,211.45268,41,106,0
211.45811,211.58311,46,108,0
211.58855,211.71355,56,110,0
211.71898,211.84398,46,101,0
211.84941,211.97441,43,92,0
211.97984,212.10484,46,80,0
212.11029,212.23529,58,80,0
212.24072,212.36572,46,80,0
212.37115,212.49615,43,80,0
212.50159,212.62659,46,80,0
212.63202,212.75702,58,80,0
212.76245,212.88745,46,80,0
212.8929,213.0179,44,80,0
213.02333,213.14833,46,80,0
213.15376,213.27876,56,80,0
213.2842,213.4092,46,80,0
213.41463,213.53963,34,80,0
213.54506,213.67006,46,80,0
213.6755,213.80049,53,80,0
213.80594,213.93094,46,80,0
213.93637,214.06137,39,80,0
214.0668,214.1918,46,82,0
214.19724,214.32224,55,84,0
214.32767,214.45267,46,86,0
214.4581,214.5831,39,88,0
214.58855,214.71355,46,91,0
214.71898,214.84398,55,93,0
214.84941,214.97441,46,95,0
214.97984,215.10484,41,97,0
215.11028,215.23528,46,99,0
215.2407,215.3657,56,102,0
215.37115,215.49615,46,104,0
215.50159,215.62659,41,106,0
215.63202,215.75702,46,108,0
215.76245,215.88745,56,110,0
215.89288,216.01788,46,100,0
216.02332,216.14832,43,90,0
216.15375,216.27875,51,80,0
216.2842,216.4092,58,80,0
216.41463,216.53963,51,80,0
216.54506,216.67006,43,80,0
216.67549,216.80049,51,80,0
216.80592,216.93092,58,80,0
216.93636,217.06136,51,80,0
217.0668,217.1918,44,80,0
217.19724,217.32224,51,80,0
217.32767,217.45267,60,80,0
217.4581,217.5831,51,80,0
217.58853,217.71353,45,80,0
217.71896,217.84396,53,80,0
217.8494,217.9744,60,80,0
217.97984,218.10484,55,80,0
218.11028,218.3657,58,80,0
218.11028,218.3657,46,80,0
218.37114,218.49614,63,80,0
218.50157,218.62657,62,80,0
218.632,218.757,60,80,0
218.76245,218.88745,58,80,0
218.89288,219.01788,56,80,0
219.02332,219.14832,56,80,0
219.15375,219.27875,55,80,0
219.28418,219.40918,53,80,0
219.41461,219.53961,51,80,0
219.54504,219.67004,50,80,0
219.67549,219.80049,51,80,0
219.80592,219.93092,53,80,0
219.93636,220.06136,55,80,0
220.06679,220.19179,56,80,0
220.19722,220.45265,58,80,0
220.4581,220.5831,65,80,0
220.58853,220.71353,63,80,0
220.71896,220.84396,62,80,0
220.8494,220.9744,60,82,0
220.97983,221.10483,59,85,0
221.11026,221.23526,57,88,0
221.2407,221.36569,55,91,0
221.37114,221.49614,53,94,0
221.50157,221.62657,51,96,0
221.632,221.757,50,99,0
221.76244,221.88744,48,102,0
221.89287,222.01787,46,105,0
222.0233,222.1483,48,108,0
222.0233,222.1483,45,108,0
222.15375,222.27875,48,110,0
222.15375,222.27875,45,110,0
222.28418,222.53961,46,110,0
222.28418,222.53961,44,110,0
222.80591,223.06136,46,110,0
222.80591,223.06136,43,110,0
223.32765,224.10483,47,110,0
224.11026,224.36569,46,110,0
223.32765,225.40916,53,110,0
224.37112,225.40916,44,110,0
225.4146,226.19177,47,110,0
226.1972,226.45265,46,110,0
225.4146,227.49612,53,110,0
226.45808,227.49612,45,110,0
227.50156,227.75699,53,80,0
227.50156,227.75699,46,80,0
228.54503,228.80046,55,80,0
228.54503,228.80046,46,80,0
229.5885,229.84395,56,80,0
229.5885,229.84395,46,80,0
230.11024,230.36568,55,80,0
230.11024,230.36568,46,80,0
230.63199,230.88742,53,80,0
230.63199,230.88742,46,80,0
231.15372,231.40915,55,80,0
231.15372,231.40915,46,80,0
231.67546,231.9309,65,80,0
231.67546,231.9309,58,80,0
232.71893,232.97437,67,80,0
232.71893,232.97437,58,80,0
233.7624,234.01785,68,80,0
233.7624,234.01785,58,80,0
234.28415,234.53958,67,80,0
234.28415,234.53958,58,80,0
234.8059,235.06133,68,80,0
234.8059,235.06133,58,80,0
235.32762,235.58305,58,80,0
235.5885,235.7135,60,80,0
235.71893,235.84393,62,80,0
235.84937,235.97437,63,80,0
235.9798,236.1048,65,80,0
236.11023,236.23523,67,80,0
236.24066,236.36566,68,80,0
236.37111,236.62654,70,80,0
236.63197,236.75697,72,80,0
236.7624,236.8874,74,80,0
236.89284,237.01784,75,80,0
237.02327,237.14827,77,80,0
237.1537,237.2787,79,80,0
237.28415,237.40915,80,80,0
237.41458,237.67001,82,80,0
237.67545,237.93088,80,80,0
237.93631,238.1986,79,80,0
238.20418,238.46645,78,80,0
238.47203,238.74915,77,80,0
238.75505,239.05788,70,80,0
239.34355,239.85985,69,80,0
239.34355,239.85985,66,80,0
239.06433,240.12071,63,80,0
239.86528,240.12071,70,80,0
239.86528,240.12071,67,80,0
240.38702,240.90332,71,80,0
240.12616,241.1642,63,80,0
240.38702,241.1642,74,80,0
240.90877,241.1642,70,80,0
241.4305,241.68593,70,80,0
241.4305,241.68593,67,80,0
241.69136,241.94681,72,80,0
241.69136,241.94681,68,80,0
241.16963,242.20767,63,80,0
241.95224,242.20767,70,80,0
241.95224,242.20767,67,80,0
242.2131,242.46854,67,80,0
242.47397,242.72942,68,80,0
242.47397,242.72942,65,80,0
242.73485,242.99028,67,80,0
242.73485,242.99028,63,80,0
242.2131,243.25114,58,80,0
242.99571,243.25114,65,80,0
242.99571,243.25114,62,80,0
243.51746,244.03375,57,80,0
243.51746,244.03375,54,80,0
243.25658,244.29462,51,80,0
244.03918,244.29462,58,80,0
244.03918,244.29462,55,80,0
244.56093,245.07722,59,80,0
244.30006,245.3381,51,80,0
244.56093,245.3381,62,80,0
245.08267,245.3381,58,80,0
245.34354,245.85983,58,80,0
245.34354,245.85983,55,80,0
245.34354,245.85983,51,80,0
245.86526,246.12071,56,80,0
245.86526,246.12071,51,80,0
245.86526,246.12071,44,80,0
246.12614,246.38158,51,80,0
246.12614,246.38158,39,80,0
246.38701,246.64244,34,80,0
246.64787,246.90332,46,80,0
246.90875,247.16418,34,80,0
247.16962,247.42505,46,80,0
247.43048,247.81636,39,80,0
247.8218,247.9468,47,80,0
247.95222,248.20766,46,80,0
248.21309,248.46852,39,80,0
248.47397,248.7294,34,80,0
248.73483,248.85983,56,80,0
248.86526,248.99026,55,80,0
248.9957,249.1207,53,80,0
249.12613,249.25113,51,80,0
249.25656,249.38156,50,80,0
249.25656,249.51201,46,80,0
249.38701,249.51201,58,80,0
249.51744,249.9033,51,80,0
249.90874,250.03374,59,80,0
250.03917,250.29462,58,80,0
250.30005,250.55548,51,80,0
250.56091,250.81635,46,80,0
250.82178,250.94678,68,80,0
250.95221,251.07721,67,80,0
251.08266,251.20766,65,80,0
251.21309,251.33809,63,80,0
251.34352,251.46852,62,80,0
251.34352,251.59895,58,80,0
251.47395,251.59895,70,80,0
251.60439,251.99026,67,80,0
251.60439,251.99026,63,80,0
251.9957,252.1207,65,80,0
252.12613,252.512,63,80,0
252.51743,252.64243,60,80,0
252.64787,253.03374,58,80,0
253.03917,253.16417,56,80,0
253.1696,253.55547,55,80,0
253.56091,253.68591,53,80,0
253.69135,254.07721,51,80,0
254.08264,254.20764,48,80,0
254.21307,254.59895,46,80,0
254.60439,254.72939,44,80,0
254.73482,255.12068,43,80,0
255.12611,255.25111,41,80,0
255.25656,255.64243,39,80,0
255.64786,255.77286,73,80,0
255.64786,255.77286,70,80,0
255.77829,256.81635,73,80,0
255.77829,256.81635,70,80,0
256.82178,257.8598,72,80,0
256.82178,257.8598,68,80,0
257.86523,258.9033,70,80,0
257.86523,258.9033,67,80,0
258.90872,259.94678,68,80,0
258.90872,259.94678,65,80,0
259.9522,260.72937,67,110,0
259.9522,260.72937,64,110,0
260.7348,260.8598,69,110,0
260.7348,260.8598,63,110,0
260.86523,260.99023,65,110,0
260.86523,260.99023,61,110,0
260.99567,261.2511,65,110,0
260.99567,261.2511,61,110,0
261.25653,261.38153,67,110,0
261.25653,261.38153,61,110,0
261.38696,261.51196,63,110,0
261.38696,261.51196,60,110,0
261.51743,261.77286,63,110,0
261.51743,261.77286,60,110,0
261.7783,261.9033,65,110,0
261.7783,261.9033,60,110,0
261.90872,262.03372,61,110,0
261.90872,262.03372,58,110,0
262.03915,262.2946,61,110,0
262.03915,262.2946,58,110,0
262.30002,262.42502,64,110,0
262.30002,262.42502,58,110,0
262.43045,262.55545,60,110,0
262.43045,262.55545,56,110,0
262.56088,262.8163,60,110,0
262.56088,262.8163,56,110,0
262.82175,263.07718,58,110,0
262.82175,263.07718,57,110,0
263.0826,263.8598,58,110,0
263.0826,263.8598,55,110,0
263.86523,264.12067,56,80,0
263.86523,264.12067,53,80,0
264.1261,264.38153,55,80,0
264.1261,264.38153,52,80,0
264.38696,264.6424,53,80,0
264.38696,264.6424,50,80,0
264.64783,264.90326,52,80,0
264.64783,264.90326,48,80,0
264.90872,265.16415,58,80,0
264.90872,265.16415,55,80,0
264.90872,265.16415,52,80,0
264.90872,265.16415,48,80,0
265.1696,265.2946,41,80,0
265.30002,265.42502,48,82,0
265.43045,265.55545,56,84,0
265.56088,265.68588,48,86,0
265.6913,265.8163,41,88,0
265.82175,265.94675,48,91,0
265.95218,266.07718,56,93,0
266.0826,266.2076,48,95,0
266.21304,266.33804,43,97,0
266.34348,266.46848,48,99,0
266.4739,266.5989,58,102,0
266.60437,266.72937,48,104,0
266.7348,266.8598,43,106,0
266.86523,266.99023,48,108,0
266.99567,267.12067,58,110,0
267.1261,267.2511,48,101,0
267.25653,267.38153,44,91,0
267.38696,267.51196,48,80,0
267.5174,267.6424,60,80,0
267.64783,267.77283,48,80,0
267.77826,267.90326,44,80,0
267.9087,268.0337,48,80,0
268.03912,268.16412,60,80,0
268.1696,268.29456,48,80,0
268.30002,268.42502,46,80,0
268.43045,268.55545,48,80,0
268.56088,268.68588,58,80,0
268.6913,268.8163,48,80,0
268.82175,268.94675,36,80,0
268.95218,269.07718,48,80,0
269.0826,269.2076,55,80,0
269.21304,269.33804,48,80,0
269.34348,269.46848,41,80,0
269.4739,269.5989,48,82,0
269.60434,269.72934,56,84,0
269.73477,269.85977,48,86,0
269.86523,269.99023,41,88,0
269.99567,270.12067,48,91,0
270.1261,270.2511,56,93,0
270.25653,270.38153,48,95,0
270.38696,270.51196,43,97,0
270.5174,270.6424,48,99,0
270.64783,270.77283,58,102,0
270.77826,270.90326,48,104,0
270.9087,271.0337,43,106,0
271.03912,271.16412,48,108,0
271.16956,271.29456,58,110,0
271.3,271.425,48,101,0
271.43042,271.55542,44,95,0
271.56088,271.68588,48,80,0
271.6913,271.8163,60,80,0
271.82175,271.94675,48,80,0
271.95218,272.07718,41,80,0
272.0826,272.2076,48,80,0
272.21304,272.33804,56,80,0
272.34348,272.46848,41,80,0
272.4739,272.5989,38,80,0
272.60434,272.72934,46,80,0
272.73477,272.85977,53,80,0
272.8652,272.9902,46,80,0
272.99564,273.12064,38,80,0
273.12607,273.25107,46,80,0
273.25653,273.38153,53,80,0
273.38696,273.51196,46,80,0
273.5174,273.6424,39,80,0
273.64783,273.77283,46,82,0
273.77826,273.90326,54,84,0
273.9087,274.0337,46,86,0
274.03912,274.16412,39,88,0
274.16956,274.29456,46,91,0
274.3,274.425,54,93,0
274.43042,274.55542,46,95,0
274.56085,274.68585,41,97,0
274.69128,274.81628,46,99,0
274.82172,274.94672,56,102,0
274.95218,275.07718,46,104,0
275.0826,275.2076,41,106,0
275.21304,275.33804,46,108,0
275.34348,275.46848,56,110,0
275.4739,275.5989,46,100,0
275.60434,275.72934,42,91,0
275.73477,275.85977,46,80,0
275.8652,275.9902,58,80,0
275.99564,276.12064,46,80,0
276.12607,276.25107,42,80,0
276.2565,276.3815,46,80,0
276.38693,276.51193,58,80,0
276.51736,276.64236,46,80,0
276.64783,276.77283,44,80,0
276.77826,276.90326,46,80,0
276.9087,277.0337,56,80,0
277.03912,277.16412,46,80,0
277.16956,277.29456,38,80,0
277.3,277.425,46,80,0
277.43042,277.55542,53,80,0
277.56085,277.68585,38,80,0
277.69128,277.81628,39,110,0
277.82172,277.94672,46,110,0
277.95215,278.07715,55,110,0
278.08258,278.20758,46,110,0
278.213,278.338,41,110,0
278.34348,278.46848,46,110,0
278.4739,278.5989,56,110,0
278.60434,278.72934,46,110,0
278.73477,278.86545,43,110,0
278.87112,279.0018,51,110,0
279.0075,279.13818,58,110,0
279.14386,279.27454,51,110,0
279.2802,279.4171,44,110,0
279.42307,279.55997,51,110,0
279.56595,279.7097,59,110,0
279.71594,279.87564,51,110,0
282.017,283.05502,59,80,0
283.06046,284.0985,58,80,0
284.10394,284.35938,57,80,0
286.1909,287.22894,60,80,0
287.23438,288.2724,58,80,0
288.27783,288.53326,56,80,0
290.3648,291.40283,68,80,0
290.3648,291.40283,65,80,0
291.40826,292.44632,67,80,0
291.40826,292.44632,63,80,0
292.45175,293.48978,62,80,0
292.45175,293.48978,65,80,0
293.4952,294.53326,63,90,0
293.4952,294.53326,60,90,0
294.5387,295.57675,62,100,0
294.5387,295.57675,59,100,0
295.58218,296.09848,63,110,0
296.1039,296.37094,65,80,0
295.58218,296.67038,58,110,0
296.37665,296.67038,62,80,0
296.82663,296.9573,58,80,0
296.963,297.088,60,80,0
297.09344,297.21844,58,80,0
297.22388,297.34888,57,80,0
297.3543,297.4793,58,80,0
297.48474,297.60974,55,80,0
297.61517,297.74017,51,80,0
297.7456,297.8706,56,80,0
297.87604,298.00104,53,80,0
298.00647,298.13147,50,80,0
298.1369,298.2619,46,80,0
298.26733,298.39233,44,80,0
298.39777,298.52277,41,80,0
298.52823,298.65323,38,80,0
298.65866,298.78366,34,80,0
298.7891,298.9141,39,80,0
298.91953,299.04453,41,80,0
299.04996,299.17496,43,80,0
299.1804,299.3054,44,80,0
299.31082,299.43582,46,80,0
299.44125,299.56625,48,80,0
299.5717,299.6967,50,80,0
299.70212,299.82712,51,80,0
299.83255,299.95755,53,80,0
299.96298,300.08798,55,80,0
300.0934,300.2184,56,80,0
300.22388,300.34888,57,80,0
300.3543,300.60974,58,80,0
299.83255,300.8706,46,80,0
300.61517,300.8706,56,80,0
300.87604,301.91406,55,80,0
300.87604,301.91406,51,80,0
301.91953,302.95755,53,80,0
301.91953,302.95755,46,80,0
302.96298,304.00104,67,80,0
302.96298,304.00104,63,80,0
304.00647,305.0445,65,80,0
304.00647,305.0445,58,80,0
305.04993,306.08798,79,80,0
305.04993,306.08798,75,80,0
306.0934,306.6097,77,93,0
306.0934,306.6097,70,93,0
306.61514,307.13147,77,99,0
306.61514,307.13147,74,99,0
306.61514,307.13147,70,99,0
306.61514,307.13147,68,99,0
307.1369,307.6532,70,106,0
307.1369,307.6532,67,106,0
307.65863,308.17493,67,110,0
307.65863,308.17493,63,110,0
308.18036,308.6967,68,110,0
308.18036,308.6967,65,110,0
308.18036,308.6967,58,110,0
308.70212,309.2184,68,110,0
308.70212,309.2184,65,110,0
308.70212,309.2184,58,110,0
309.35428,309.47928,58,80,0
309.4847,309.6097,60,80,0
309.61514,309.74014,58,80,0
309.74557,309.87057,57,80,0
309.876,310.001,58,80,0
310.00644,310.13144,55,80,0
310.13687,310.26187,51,80,0
310.26733,310.39233,56,80,0
310.39777,310.52277,53,80,0
310.5282,310.6532,50,80,0
310.65863,310.78363,46,80,0
310.78906,310.91406,44,80,0
310.9195,311.0445,41,80,0
311.04993,311.17493,38,80,0
311.18036,311.30536,34,80,0
311.3108,311.4358,39,80,0
311.44122,311.56622,41,80,0
311.57166,311.69666,43,80,0
311.7021,311.8271,44,80,0
311.83252,311.95752,46,80,0
311.96298,312.08798,48,80,0
312.0934,312.2184,50,80,0
312.22385,312.34885,51,80,0
312.35428,312.47928,53,80,0
312.4847,312.6097,55,80,0
312.61514,312.74014,56,80,0
312.74557,312.87057,57,80,0
312.876,313.13144,58,80,0
312.35428,313.3923,46,80,0
313.13687,313.3923,56,80,0
313.39774,314.4358,55,80,0
313.39774,314.4358,51,80,0
314.44122,315.47928,53,80,0
314.44122,315.47928,46,80,0
315.4847,316.52274,67,80,0
315.4847,316.52274,63,80,0
316.52817,317.56622,65,80,0
316.52817,317.56622,58,80,0
317.57166,318.60968,79,80,0
317.57166,318.60968,75,80,0
318.6151,319.13144,77,95,0
318.6151,319.13144,70,95,0
319.13687,319.65317,77,103,0
319.13687,319.65317,74,103,0
319.13687,319.65317,70,103,0
319.13687,319.65317,68,103,0
319.6586,319.91403,70,110,0
319.6586,319.91403,67,110,0
319.91946,320.43576,67,110,0
319.91946,320.43576,63,110,0
320.44122,320.69666,67,110,0
320.44122,320.69666,63,110,0
320.7021,321.21838,65,110,0
320.7021,321.21838,58,110,0
321.22382,321.7401,65,110,0
321.22382,321.7401,58,110,0
321.22382,321.7401,56,110,0
321.74554,322.0126,58,110,0
321.74554,322.0126,55,110,0
322.01828,322.55804,55,108,0
322.01828,322.55804,51,108,0
322.56375,322.83078,55,100,0
322.56375,322.83078,51,100,0
322.83646,323.40195,56,96,0
322.83646,323.40195,53,96,0
322.83646,323.40195,46,96,0
323.4079,324.05426,56,87,0
323.4079,324.05426,53,87,0
323.4079,324.05426,46,87,0
326.14902,327.18704,51,80,0
327.19247,328.23053,46,80,0
328.23596,328.4914,43,80,0
330.3229,331.36096,55,80,0
330.3229,331.36096,51,80,0
331.3664,332.40442,53,80,0
331.3664,332.40442,46,80,0
332.40985,332.6653,51,80,0
332.40985,332.6653,43,80,0
333.19247,333.4479,55,80,0
333.19247,333.4479,51,80,0
333.45334,334.4914,53,80,0
333.45334,334.4914,46,80,0
334.49683,334.75226,51,80,0
334.49683,334.75226,43,80,0
335.27942,335.53485,67,80,0
335.27942,335.53485,63,80,0
335.54028,336.57834,65,80,0
335.54028,336.57834,58,80,0
336.58377,336.8392,63,80,0
336.58377,336.8392,55,80,0
337.88812,338.14355,79,80,0
337.88812,338.14355,75,80,0
338.149,338.40442,77,80,0
338.149,338.40442,70,80,0
338.40985,338.66528,75,80,0
338.40985,338.66528,67,80,0
338.67072,338.92615,75,80,0
338.67072,338.92615,67,80,0
339.97507,340.2305,55,80,0
339.97507,340.2305,51,80,0
340.23593,340.49136,53,80,0
340.23593,340.49136,46,80,0
340.4968,340.75223,51,80,0
340.4968,340.75223,43,80,0
341.01855,341.274,50,80,0
341.01855,341.274,46,80,0
341.27942,341.53485,39,80,0
342.062,342.31744,50,80,0
342.062,342.31744,46,80,0
342.32288,342.5783,39,80,0
343.11734,343.3844,50,80,0
343.11734,343.3844,46,80,0
343.39008,343.65714,39,80,0
344.22125,344.501,46,80,0
344.50696,344.80072,34,80,0
344.80698,345.13336,46,80,0
345.1403,346.22552,39,80,0
346.2312,347.26926,39,80,0
346.2312,347.26926,38,80,0
347.2747,348.3127,39,80,0
347.2747,348.3127,36,80,0
348.31815,349.3562,39,77,0
348.31815,349.3562,34,77,0
349.36163,350.39966,39,74,0
349.36163,350.39966,32,74,0
350.40512,351.44315,39,70,0
350.40512,351.44315,31,70,0
351.44858,352.5338,39,70,0
351.44858,352.5338,32,70,0
352.5395,353.62473,39,70,0
352.5395,353.62473,31,70,0
353.6304,354.8203,39,70,0
353.6304,354.8203,32,70,0
354.8268,355.15323,39,70,0
354.8268,355.15323,31,70,0
357.4935,357.8199,46,110,0
357.4935,357.8199,41,110,0
357.4935,357.8199,38,110,0
357.4935,357.8199,34,110,0
358.8268,359.48654,51,110,0
358.8268,359.48654,46,110,0
358.8268,359.48654,43,110,0
358.8268,359.48654,39,110,0
