start_time,end_time,note_value,velocity,instrument_program_number
0.0,0.21455215,72,80,0
0.11194025,0.3264924,74,80,0
0.2238805,0.43843263,72,80,0
0.33582076,0.5503729,74,80,0
0.447761,0.66231316,72,80,0
0.55970126,0.77425337,74,80,0
0.6716415,0.88619363,72,80,0
0.78358173,0.9981339,74,80,0
0.895522,1.1100742,72,80,0
1.0074623,1.2220144,74,80,0
1.1194025,1.3339547,72,80,0
1.2313428,1.4458948,74,80,0
1.343283,1.5578351,72,80,0
1.4552232,1.6697754,74,80,0
1.5671635,1.7817156,72,80,0
1.6791037,1.8936559,74,80,0
1.791044,2.0055962,72,80,0
1.9029843,2.1175363,74,80,0
2.0149245,2.2294767,72,80,0
2.1268647,2.3414168,74,80,0
2.238805,2.4533572,72,80,0
2.3507452,2.5652974,74,80,0
2.4626856,2.6772377,71,80,0
2.5746257,2.6772377,72,80,0
2.686566,3.9085803,76,80,0
3.9179087,4.0205207,72,80,0
4.029849,6.2593255,67,80,0
6.268654,6.4832063,66,80,0
6.4925346,6.7070866,67,80,0
6.716415,6.9309673,68,80,0
6.9402957,7.1548476,69,80,0
7.164176,7.378728,70,80,0
7.3880563,7.6026087,71,80,0
7.611937,7.826489,72,80,0
7.8358173,8.050369,73,80,0
8.059698,8.27425,74,80,0
8.1716385,8.38619,76,80,0
8.283579,8.498131,74,80,0
8.395518,8.610071,76,80,0
8.507459,8.722012,74,80,0
8.619399,8.833951,76,80,0
8.731339,8.945891,74,80,0
8.84328,9.057832,76,80,0
8.95522,9.169772,74,80,0
9.067161,9.281713,76,80,0
9.1791,9.393653,74,80,0
9.29104,9.505593,76,80,0
9.402981,9.617533,74,80,0
9.514921,9.729473,76,80,0
9.626862,9.8414135,74,80,0
9.738802,9.953354,76,80,0
9.850742,10.065294,74,80,0
9.962683,10.177235,76,80,0
10.074622,10.289175,74,80,0
10.186563,10.401114,76,80,0
10.298503,10.513055,74,80,0
10.410443,10.624995,76,80,0
10.522384,10.736936,73,80,0
10.634324,10.736936,74,80,0
10.746264,11.968278,77,80,0
11.977607,12.080218,74,80,0
12.089547,14.319024,67,80,0
14.328352,14.542904,67,80,0
14.552233,14.766785,69,80,0
14.776113,14.990665,70,80,0
14.999993,15.214545,71,80,0
15.223874,15.438426,72,80,0
15.447755,15.662307,73,80,0
15.671635,15.886188,74,80,0
15.895515,16.110067,75,80,0
16.119396,16.222008,64,80,0
16.226671,17.448687,76,80,0
17.462679,17.56529,65,80,0
17.569956,18.79197,77,80,0
18.805962,18.908573,67,80,0
18.913239,20.135252,79,80,0
20.149244,20.587677,80,80,0
20.597006,21.93096,81,101,0
21.940289,23.274244,81,80,0
23.283571,23.376856,79,80,0
23.334877,23.498125,77,80,0
23.507452,23.722004,76,80,0
23.731333,23.945885,77,80,0
23.955214,24.169765,74,80,0
24.179094,24.617527,72,80,0
24.626856,24.673496,74,80,0
24.678162,24.948683,72,80,0
24.962675,25.065289,71,80,0
25.074615,25.401108,72,80,0
25.410437,25.513048,76,80,0
25.522377,26.968271,67,80,0
26.9776,27.080212,69,80,0
27.08954,27.192152,67,80,0
27.20148,27.304092,66,80,0
27.313421,27.37872,67,80,0
27.388048,27.453346,69,80,0
27.462675,27.527973,71,80,0
27.537302,27.6026,72,80,0
27.611929,27.677227,74,80,0
27.686556,27.751854,76,80,0
27.761183,27.975735,77,80,0
28.097002,28.199615,71,80,0
28.208942,29.542898,74,80,0
28.208942,29.542898,65,80,0
29.552225,29.997301,72,80,0
29.552225,29.997301,64,80,0
30.006771,30.451847,67,80,0
30.461315,30.906391,66,80,0
30.915861,31.374846,65,80,0
31.384611,31.843596,64,80,0
31.853361,32.342945,62,80,0
32.35336,32.791794,60,80,0
32.80112,33.239555,64,80,0
32.80112,33.239555,60,80,0
32.80112,33.239555,55,80,0
33.248882,33.687317,64,80,0
33.248882,33.687317,60,80,0
33.248882,33.687317,55,80,0
33.696644,34.13508,64,80,0
33.696644,34.13508,60,80,0
33.696644,34.13508,55,80,0
34.144405,34.582836,64,80,0
34.144405,34.582836,60,80,0
34.144405,34.582836,55,80,0
34.592167,35.030598,64,80,0
34.592167,35.030598,60,80,0
34.592167,35.030598,55,80,0
35.03993,35.47836,64,80,0
35.03993,35.47836,60,80,0
35.03993,35.47836,55,80,0
35.487686,35.92612,64,80,0
35.487686,35.92612,60,80,0
35.487686,35.92612,55,80,0
35.935448,36.373882,64,80,0
35.935448,36.373882,60,80,0
35.935448,36.373882,55,80,0
36.49515,36.63974,60,80,0
36.60709,36.770336,64,80,0
36.719032,36.88228,62,80,0
36.83097,36.980225,65,80,0
36.942913,37.09683,64,80,0
37.05485,37.227425,67,80,0
37.16679,37.339367,65,80,0
37.278732,37.460636,69,80,0
37.39067,37.572575,67,80,0
37.502613,37.68918,71,80,0
37.61455,37.76847,69,80,0
37.726494,37.908398,72,80,0
37.838432,38.01101,71,80,0
37.950375,38.108955,74,80,0
38.062313,38.211567,72,80,0
38.174255,38.267536,76,80,0
38.248882,38.351494,74,80,0
38.32351,38.421455,77,80,0
38.398136,38.496082,76,80,0
38.472763,38.566044,79,80,0
38.54739,38.65,77,80,0
38.622017,38.72463,81,80,0
38.69664,38.79459,79,80,0
38.771267,38.869217,83,80,0
38.845894,38.94851,81,80,0
38.92052,39.023132,84,80,0
38.995148,39.093098,83,80,0
39.069775,39.167725,86,80,0
39.1444,39.247013,84,80,0
39.21903,39.31698,88,80,0
39.293655,39.396267,86,80,0
39.368282,39.47556,84,80,0
39.44291,39.54086,83,80,0
39.517536,39.624813,81,80,0
39.592163,39.694775,79,80,0
39.66679,39.774067,77,80,0
39.741417,39.84403,76,80,0
39.816044,39.918655,74,80,0
39.89067,39.993282,72,80,0
39.965298,40.063244,71,80,0
40.030598,40.128544,69,80,0
40.10056,40.207836,67,80,0
40.16586,40.273132,65,80,0
40.23582,40.338432,64,80,0
40.343098,40.408394,60,80,0
40.310448,40.41306,62,80,0
40.41306,40.85149,59,80,0
40.86082,41.29925,65,80,0
40.86082,41.29925,59,80,0
40.86082,41.29925,55,80,0
41.308582,41.747013,65,80,0
41.308582,41.747013,59,80,0
41.308582,41.747013,55,80,0
41.756344,42.194775,65,80,0
41.756344,42.194775,59,80,0
41.756344,42.194775,55,80,0
42.2041,42.642536,65,80,0
42.2041,42.642536,59,80,0
42.2041,42.642536,55,80,0
42.651863,43.090298,65,80,0
42.651863,43.090298,59,80,0
42.651863,43.090298,55,80,0
43.099625,43.53806,65,80,0
43.099625,43.53806,59,80,0
43.099625,43.53806,55,80,0
43.547386,43.985817,65,80,0
43.547386,43.985817,59,80,0
43.547386,43.985817,55,80,0
43.995148,44.43358,65,80,0
43.995148,44.43358,59,80,0
43.995148,44.43358,55,80,0
44.554848,44.718094,59,80,0
44.66679,44.830036,62,80,0
44.77873,44.941975,60,80,0
44.89067,45.044586,64,80,0
45.00261,45.16119,62,80,0
45.114548,45.273132,65,80,0
45.22649,45.375744,64,80,0
45.33843,45.492348,67,80,0
45.45037,45.618282,65,80,0
45.56231,45.720894,69,80,0
45.67425,45.837498,67,80,0
45.78619,45.949436,71,80,0
45.898132,46.06604,69,80,0
46.01007,46.182648,72,80,0
46.122013,46.294586,71,80,0
46.23395,46.336563,74,80,0
46.30858,46.415855,72,80,0
46.383205,46.50914,76,80,0
46.457832,46.569775,74,80,0
46.53246,46.639736,77,80,0
46.607086,46.719025,76,80,0
46.681713,46.798317,79,80,0
46.75634,46.86828,77,80,0
46.830967,46.93358,81,80,0
46.905594,47.017532,79,80,0
46.98022,47.082832,83,80,0
47.054848,47.167934,81,80,0
47.129475,47.24005,84,80,0
47.206398,47.312164,83,80,0
47.28332,47.389088,86,80,0
47.360245,47.47082,84,80,0
47.437164,47.542934,88,80,0
47.514088,47.619858,86,80,0
47.59101,47.667934,89,80,0
47.648705,47.725628,88,80,0
47.706398,47.78332,86,80,0
47.764088,47.84101,84,80,0
47.82178,47.893898,83,80,0
47.879475,47.96601,81,80,0
47.937164,48.014088,79,80,0
47.994858,48.06755,83,80,0
48.05255,48.12755,86,80,0
48.11255,48.18255,84,80,0
48.17255,48.25755,83,80,0
48.23255,48.31755,81,80,0
48.29255,48.37755,79,80,0
48.35255,48.43255,77,80,0
48.41255,48.49255,76,80,0
48.47255,48.52255,74,80,0
48.53255,48.97098,75,80,0
48.980312,49.866505,76,80,0
49.87583,49.978443,72,80,0
49.98311,51.317062,84,80,0
51.442997,51.657547,83,80,0
51.666878,51.881428,81,80,0
51.89076,52.10531,79,80,0
52.11464,52.32919,78,80,0
52.33852,52.55307,76,80,0
52.5624,53.00083,76,80,0
53.01016,54.120235,74,80,0
54.129562,54.344116,73,80,0
54.353443,54.567997,74,80,0
54.577324,54.791874,73,80,0
54.801205,55.015755,74,80,0
55.025085,55.239635,73,80,0
55.248966,55.463516,74,80,0
55.472847,55.687397,73,80,0
55.696728,55.911278,74,80,0
55.920605,56.13516,76,80,0
56.144485,56.35904,78,80,0
56.368366,56.58292,79,80,0
56.592247,56.8068,69,80,0
56.816128,57.03068,68,80,0
57.04001,57.254562,69,80,0
57.26389,57.478443,71,80,0
57.48777,57.627697,72,80,0
57.637024,57.77695,74,80,0
57.786278,57.9262,76,80,0
57.93553,58.373962,76,80,0
58.383293,59.493366,62,80,0
59.502693,59.605305,64,80,0
59.614635,59.717247,62,80,0
59.726574,59.941128,61,80,0
59.950455,60.16501,62,80,0
60.174335,60.38889,64,80,0
60.398216,60.61277,66,80,0
60.622097,60.727867,66,80,0
60.732674,62.013924,69,80,0
62.029045,62.474117,67,80,0
62.48359,62.928665,67,80,0
62.938133,63.38321,67,80,0
63.392677,63.8446,67,80,0
63.854218,64.30614,66,80,0
64.31576,64.76768,67,80,0
64.77729,65.236275,67,80,0
65.24604,65.71231,66,80,0
65.72223,66.211815,67,80,0
66.22223,66.68121,67,80,0
66.69098,67.14996,66,80,0
67.15973,67.61871,67,80,0
67.62848,68.08746,67,80,0
68.09723,68.55621,66,80,0
68.56598,69.02496,67,80,0
68.56598,69.02496,70,80,0
68.56598,69.02496,73,80,0
69.03473,69.49371,67,80,0
69.50348,69.96246,66,80,0
69.97223,70.43121,67,80,0
69.03473,70.89996,70,80,0
69.03473,70.89996,73,80,0
70.44098,70.89996,67,80,0
70.90973,71.36871,66,80,0
71.37848,71.83746,67,80,0
71.37848,71.83746,70,80,0
71.37848,71.83746,73,80,0
71.84723,72.32102,73,80,0
71.84723,72.32102,70,80,0
71.84723,72.32102,67,80,0
72.3311,72.80489,74,80,0
72.3311,72.80489,69,80,0
72.81497,73.31286,76,80,0
72.81497,73.31286,69,80,0
73.32345,74.83828,76,80,0
73.32345,75.30785,69,80,0
74.84887,75.30785,77,80,0
75.31762,75.7766,65,70,0
75.78637,76.24535,65,70,0
76.25512,76.7141,65,71,0
76.72387,77.18285,64,72,0
77.19262,77.6516,65,73,0
77.66137,78.12035,65,73,0
78.13012,78.5891,64,74,0
78.59887,79.05785,65,75,0
79.06762,79.5266,65,76,0
79.53637,79.99535,64,76,0
80.00512,80.4641,65,77,0
80.47387,80.93285,65,78,0
80.94262,81.4016,64,79,0
81.41137,81.87035,65,79,0
81.41137,81.87035,71,79,0
81.41137,81.87035,68,79,0
81.88012,82.3391,65,80,0
82.34887,82.80785,64,80,0
82.81762,83.2766,65,80,0
83.28637,83.74535,65,80,0
81.88012,84.2141,68,80,0
81.88012,84.2141,71,80,0
83.75512,84.2141,64,80,0
84.22387,84.68285,65,80,0
84.22387,84.68285,68,80,0
84.22387,84.68285,71,80,0
84.69262,85.1516,65,80,0
84.69262,85.1516,68,80,0
84.69262,85.1516,71,80,0
85.16137,85.62035,72,80,0
85.16137,85.62035,67,80,0
85.63012,86.0891,67,80,0
85.63012,86.0891,74,80,0
86.09887,86.55785,67,80,0
86.56762,87.0266,67,80,0
86.09887,87.49535,76,80,0
87.03637,87.49535,68,80,0
87.97387,88.43285,68,80,0
87.50512,88.9016,74,80,0
88.44262,88.9016,69,80,0
89.38012,89.8391,69,80,0
88.91137,90.30785,72,80,0
89.84887,90.30785,62,80,0
90.31762,91.24535,71,80,0
90.31762,91.24535,62,80,0
91.72387,92.6516,67,80,0
92.19262,92.6516,69,80,0
92.66137,93.12035,71,80,0
92.66137,93.12035,65,80,0
93.13012,93.5891,64,80,0
93.13012,94.05785,72,80,0
93.59887,94.05785,62,80,0
94.06762,94.5266,60,80,0
94.06762,94.5266,66,80,0
94.53637,94.99535,69,80,0
94.53637,95.4641,59,80,0
95.00512,95.4641,67,80,0
95.94262,96.4016,71,80,0
95.94262,96.87035,67,80,0
96.41137,96.87035,69,80,0
96.88012,96.98754,71,80,0
96.93871,97.046135,72,80,0
96.99731,97.10473,71,80,0
97.0559,97.16332,72,80,0
97.114494,97.22192,71,80,0
97.17309,97.28051,72,80,0
96.88012,97.3391,65,80,0
97.23168,97.3391,69,80,0
97.290276,97.3391,71,80,0
97.34887,97.80785,74,80,0
97.34887,97.80785,64,80,0
97.81762,98.2766,72,80,0
97.81762,98.2766,62,80,0
98.28637,98.74535,66,80,0
98.28637,98.74535,60,80,0
98.75512,99.2141,67,80,0
98.75512,99.2141,59,80,0
99.458244,99.68285,74,80,0
99.458244,99.68285,65,80,0
99.69262,99.91723,72,80,0
99.69262,99.91723,64,80,0
99.926994,100.1516,66,80,0
99.926994,100.1516,60,80,0
100.16137,100.650955,67,80,0
100.16137,100.650955,59,80,0
100.91137,101.150955,74,80,0
100.91137,101.150955,65,80,0
101.16137,101.400955,72,80,0
101.16137,101.400955,64,80,0
101.41137,101.650955,66,80,0
101.41137,101.650955,60,80,0
101.66137,102.17672,67,80,0
101.66137,102.17672,59,80,0
102.45084,102.70304,74,80,0
102.45084,102.70304,65,80,0
102.714005,103.0015,72,80,0
102.714005,103.0015,64,80,0
103.014,103.301506,66,80,0
103.014,103.301506,60,80,0
103.314,103.72472,67,80,0
103.52829,103.939,69,80,0
103.74258,104.15329,67,80,0
103.956856,104.30865,69,80,0
104.17114,104.45865,67,80,0
104.321144,104.60864,69,80,0
104.471146,104.758644,67,80,0
104.62115,104.87857,69,80,0
104.77115,104.99576,67,80,0
104.888336,105.112946,69,80,0
103.314,105.23013,59,80,0
105.00552,105.23013,67,80,0
105.12271,105.34732,69,80,0
105.2399,105.46451,67,80,0
105.357086,105.581696,69,80,0
105.47427,105.69888,67,80,0
105.59146,105.81607,69,80,0
105.70865,105.93326,67,80,0
105.825836,106.050446,69,80,0
105.94302,106.16763,67,80,0
106.06021,106.28482,69,80,0
106.1774,106.40201,67,80,0
106.294586,106.519196,69,80,0
106.41177,106.63638,67,80,0
106.52896,106.75357,69,80,0
106.70474,106.812164,67,80,0
106.763336,106.87076,66,80,0
106.82193,106.92935,67,80,0
106.88052,106.987946,62,80,0
106.93912,107.04654,64,80,0
106.99771,107.10513,66,80,0
107.056305,107.16373,67,80,0
107.1149,107.22232,69,80,0
107.17349,107.280914,71,80,0
107.232086,107.33951,69,80,0
107.29068,107.3981,67,80,0
107.34927,107.456696,69,80,0
107.40787,107.51529,71,80,0
107.46646,107.57388,72,80,0
107.525055,107.63248,74,80,0
107.58365,107.69107,72,80,0
107.64224,107.749664,71,80,0
107.700836,107.80826,72,80,0
107.75943,107.86685,74,80,0
107.81802,107.925446,76,80,0
107.87662,107.98404,78,80,0
107.93521,108.04263,79,80,0
107.993805,108.10123,78,80,0
108.0524,108.27701,76,80,0
108.169586,108.27701,76,80,0
108.11099,108.3356,74,80,0
108.22818,108.45279,77,80,0
108.28677,108.51138,79,80,0
108.34537,108.56998,81,80,0
108.462555,108.56998,81,80,0
108.40396,108.62857,83,80,0
108.57974,108.687164,81,80,0
108.52115,108.74576,79,80,0
108.638336,108.862946,83,80,0
108.69693,108.92154,84,80,0
108.75552,108.98013,86,80,0
108.81412,109.03873,88,80,0
108.931305,109.03873,88,80,0
108.87271,109.09732,89,80,0
109.107086,109.155914,88,80,0
108.9899,109.21451,86,80,0
109.16568,109.21451,86,80,0
109.04849,109.2731,85,80,0
109.22427,109.44888,84,80,0
109.400055,109.44888,84,80,0
109.28287,109.50748,83,80,0
109.45865,109.50748,83,80,0
109.34146,109.56607,81,80,0
109.575836,109.624664,84,80,0
109.63443,109.68326,83,80,0
109.51724,109.74185,86,80,0
109.69302,109.91763,81,80,0
109.75162,109.97623,79,80,0
109.81021,110.03482,80,80,0
109.9274,110.30826,83,80,0
110.16177,110.53775,81,80,0
110.39615,110.74771,79,80,0
110.63052,110.9899,77,80,0
110.8649,111.23469,76,80,0
111.1149,111.35448,74,80,0
111.3649,111.579445,72,80,0
111.47684,111.69139,74,80,0
111.588776,111.80333,72,80,0
111.700714,111.91527,74,80,0
111.81265,112.02721,72,80,0
111.9246,112.139145,74,80,0
112.03654,112.25109,72,80,0
112.148476,112.36303,74,80,0
112.260414,112.47497,72,80,0
112.37236,112.58691,74,80,0
112.4843,112.69885,72,80,0
112.59624,112.81079,74,80,0
112.708176,112.92273,72,80,0
112.82012,113.03467,74,80,0
112.93206,113.146614,72,80,0
113.044,113.25855,74,80,0
113.15594,113.37049,72,80,0
113.267876,113.48243,74,80,0
113.37982,113.59437,72,80,0
113.49176,113.706314,74,80,0
113.6037,113.81825,72,80,0
113.71564,113.93019,74,80,0
113.82758,114.04213,71,80,0
113.93952,114.04213,72,80,0
114.05146,115.273476,76,80,0
115.28281,115.385414,72,80,0
115.394745,117.62422,67,80,0
117.63355,117.8481,66,80,0
117.85743,118.07198,67,80,0
118.08131,118.29586,68,80,0
118.30519,118.519745,69,80,0
118.52907,118.74362,70,80,0
118.75295,118.96751,71,80,0
118.97683,119.19138,72,80,0
119.200714,119.41527,73,80,0
119.42459,119.639145,74,80,0
119.53653,119.75108,76,80,0
119.648476,119.86302,74,80,0
119.760414,119.97497,76,80,0
119.87235,120.08691,74,80,0
119.98429,120.198845,76,80,0
120.09624,120.31078,74,80,0
120.208176,120.42273,76,80,0
120.320114,120.53467,74,80,0
120.43205,120.64661,76,80,0
120.544,120.758545,74,80,0
120.65594,120.87049,76,80,0
120.767876,120.98243,74,80,0
120.879814,121.09437,76,80,0
120.99176,121.20631,74,80,0
121.1037,121.31825,76,80,0
121.21564,121.43019,74,80,0
121.327576,121.54213,76,80,0
121.439514,121.65407,74,80,0
121.55146,121.76601,76,80,0
121.6634,121.87795,74,80,0
121.77534,121.98989,76,80,0
121.887276,122.10183,73,80,0
121.99922,122.10183,74,80,0
122.11116,123.16526,79,80,0
123.17459,123.263214,77,80,0
123.23056,123.323845,76,80,0
123.28653,123.37515,74,80,0
123.3425,123.43578,72,80,0
123.398476,123.445114,71,80,0
123.454445,123.892876,69,80,0
123.90221,125.68392,67,80,0
125.693245,125.9078,67,80,0
125.91713,126.13168,69,80,0
126.14101,126.35556,70,80,0
126.36489,126.57944,71,80,0
126.58877,126.80332,72,80,0
126.81265,127.0272,73,80,0
127.03653,127.25108,74,80,0
127.260414,127.47496,75,80,0
127.48429,127.67086,76,80,0
127.66153,127.67086,76,80,0
127.572914,127.759476,77,80,0
127.83877,127.8481,76,80,0
127.75015,127.936714,75,80,0
127.93205,128.37048,84,80,0
128.82758,129.01414,77,80,0
129.0048,129.01414,77,80,0
128.9162,129.10277,79,80,0
129.09343,129.28,76,80,0
129.18205,129.3966,79,80,0
129.27533,129.71376,84,80,0
130.17085,130.35742,79,80,0
130.3481,130.35742,79,80,0
130.25948,130.44604,81,80,0
130.52533,130.53467,79,80,0
130.43672,130.62328,78,80,0
130.61862,131.05705,84,80,0
131.51414,131.95258,80,80,0
131.9619,133.29585,81,84,0
133.30519,134.63914,81,99,0
134.64847,134.69511,79,80,0
134.69977,134.86302,77,80,0
134.87234,135.0869,76,80,0
135.09622,135.31078,77,80,0
135.32011,135.53467,74,80,0
135.54399,135.6466,72,80,0
135.65593,135.75854,74,80,0
135.76787,135.87048,72,80,0
135.8798,135.98242,71,80,0
135.99174,136.09436,72,81,0
136.21564,136.31824,74,84,0
136.43951,136.54213,76,87,0
136.66339,136.766,77,91,0
136.88727,136.98988,79,94,0
137.11115,137.21376,81,97,0
137.33504,137.43764,83,100,0
137.55891,137.66153,84,103,0
137.78279,137.8854,86,106,0
138.00667,138.10928,88,110,0
138.23056,138.32632,86,113,0
138.29105,138.38176,88,114,0
138.35152,138.82532,89,114,0
139.1983,139.67209,71,80,0
139.68216,141.1237,74,80,0
139.68216,141.1237,65,80,0
141.13377,141.62337,72,80,0
141.13377,141.62337,64,80,0
141.63377,142.12337,67,80,0
142.13377,142.62337,63,80,0
142.63377,143.14912,60,80,0
143.1601,143.67545,55,80,0
143.68642,144.33919,51,80,0
144.35307,145.39696,48,70,0
148.4948,149.80914,75,70,0
148.4948,149.80914,63,70,0
149.81833,151.13268,72,70,0
149.81833,151.13268,60,70,0
151.14186,152.45619,68,70,0
151.14186,152.45619,56,70,0
152.4654,155.98561,53,70,0
152.4654,155.98561,65,70,0
155.9948,156.20619,65,70,0
156.21538,156.42677,77,70,0
156.43597,157.52972,77,70,0
156.43597,157.52972,65,70,0
157.53891,157.7503,75,81,0
157.53891,157.7503,63,81,0
157.7595,158.19148,75,84,0
157.7595,158.19148,63,84,0
158.20067,158.85324,73,88,0
158.20067,158.85324,61,88,0
158.86244,159.07384,72,95,0
158.86244,159.07384,60,95,0
159.08302,159.51501,72,98,0
159.08302,159.51501,60,98,0
159.5242,160.17677,70,102,0
159.5242,160.17677,58,102,0
160.18597,160.39737,68,109,0
160.18597,160.39737,56,109,0
160.40656,161.72089,67,110,0
160.40656,161.72089,55,110,0
161.73009,163.04442,73,110,0
161.73009,163.04442,67,110,0
161.73009,163.04442,61,110,0
163.0536,164.36795,72,110,0
163.0536,164.36795,68,110,0
163.0536,164.36795,60,110,0
164.37714,165.69148,70,110,0
164.37714,165.69148,61,110,0
164.37714,165.69148,58,110,0
165.70067,167.015,68,103,0
165.70067,167.015,60,103,0
165.70067,167.015,56,103,0
167.0242,168.33853,63,96,0
167.0242,168.33853,61,96,0
167.0242,168.33853,58,96,0
167.0242,168.33853,55,96,0
168.34772,168.54738,63,110,0
168.34772,168.54738,60,110,0
168.34772,168.54738,56,110,0
168.55606,168.7557,63,80,0
168.55606,168.7557,60,80,0
168.76439,168.96405,63,80,0
168.76439,168.96405,60,80,0
168.97272,169.17238,63,80,0
168.97272,169.17238,60,80,0
169.18106,169.3807,63,80,0
169.18106,169.3807,60,80,0
169.38939,169.58905,63,80,0
169.38939,169.58905,60,80,0
169.59772,169.79738,63,80,0
169.59772,169.79738,60,80,0
169.80606,170.0057,63,80,0
169.80606,170.0057,60,80,0
170.01439,170.21404,63,80,0
170.01439,170.21404,60,80,0
170.22272,170.42238,63,80,0
170.22272,170.42238,60,80,0
170.43106,170.6307,63,80,0
170.43106,170.6307,60,80,0
170.63939,170.83904,63,80,0
170.63939,170.83904,60,80,0
170.84772,171.04738,63,80,0
170.84772,171.04738,60,80,0
171.05606,171.2557,63,80,0
171.05606,171.2557,60,80,0
171.26439,171.46404,63,80,0
171.26439,171.46404,60,80,0
171.47272,171.67238,63,80,0
171.47272,171.67238,60,80,0
171.68106,171.8807,63,80,0
171.68106,171.8807,60,80,0
171.88939,172.08904,63,80,0
171.88939,172.08904,60,80,0
172.09772,172.14113,84,80,0
172.14981,172.1932,85,80,0
172.20189,172.29738,87,80,0
172.30606,172.40154,85,80,0
172.51439,172.60988,84,80,0
172.72272,172.8182,82,80,0
172.93106,173.02654,80,80,0
173.13939,173.23488,79,80,0
173.34772,173.4432,77,80,0
173.55606,173.65154,75,80,0
173.76439,173.85988,73,80,0
173.97272,174.0682,72,80,0
174.18106,174.27654,70,80,0
174.38939,174.48488,68,80,0
174.59772,174.6932,67,80,0
174.80606,174.90154,68,80,0
175.01439,175.10988,70,80,0
175.22272,175.3182,68,80,0
175.43106,175.52654,72,80,0
175.63939,175.73488,68,80,0
175.84772,176.04738,67,110,0
176.05606,176.2557,63,80,0
176.05606,176.2557,61,80,0
176.05606,176.2557,58,80,0
176.26439,176.46404,63,80,0
176.26439,176.46404,61,80,0
176.26439,176.46404,58,80,0
176.47272,176.67238,63,80,0
176.47272,176.67238,61,80,0
176.47272,176.67238,58,80,0
176.68106,176.8807,63,80,0
176.68106,176.8807,61,80,0
176.68106,176.8807,58,80,0
176.88939,177.08904,61,80,0
176.88939,177.08904,63,80,0
176.88939,177.08904,58,80,0
177.09772,177.29738,63,80,0
177.09772,177.29738,61,80,0
177.09772,177.29738,58,80,0
177.30606,177.5057,63,80,0
177.30606,177.5057,61,80,0
177.30606,177.5057,58,80,0
177.51439,177.71404,63,80,0
177.51439,177.71404,61,80,0
177.51439,177.71404,58,80,0
177.72272,177.92238,63,80,0
177.72272,177.92238,61,80,0
177.72272,177.92238,58,80,0
177.93106,178.1307,63,80,0
177.93106,178.1307,61,80,0
177.93106,178.1307,58,80,0
178.13939,178.33904,63,80,0
178.13939,178.33904,61,80,0
178.13939,178.33904,58,80,0
178.34772,178.54738,63,80,0
178.34772,178.54738,61,80,0
178.34772,178.54738,58,80,0
178.55605,178.7557,63,80,0
178.55605,178.7557,61,80,0
178.55605,178.7557,58,80,0
178.76439,178.96404,63,80,0
178.76439,178.96404,61,80,0
178.76439,178.96404,58,80,0
178.97272,179.17238,63,80,0
178.97272,179.17238,61,80,0
178.97272,179.17238,58,80,0
179.18105,179.3807,63,80,0
179.18105,179.3807,61,80,0
179.18105,179.3807,58,80,0
179.38939,179.58904,63,80,0
179.38939,179.58904,61,80,0
179.38939,179.58904,58,80,0
179.59772,179.79738,63,80,0
179.59772,179.79738,61,80,0
179.80605,180.0057,63,80,0
179.80605,180.0057,61,80,0
180.01439,180.21404,63,80,0
180.01439,180.21404,61,80,0
180.22272,180.42238,63,80,0
180.22272,180.42238,61,80,0
180.43105,180.6307,63,80,0
180.43105,180.6307,61,80,0
180.63939,180.83904,63,80,0
180.63939,180.83904,61,80,0
180.84772,181.04738,63,80,0
180.84772,181.04738,61,80,0
181.05605,181.2557,63,80,0
181.05605,181.2557,61,80,0
181.26439,181.46404,63,80,0
181.26439,181.46404,61,80,0
181.47272,181.67238,63,80,0
181.47272,181.67238,61,80,0
181.68105,181.8807,63,80,0
181.68105,181.8807,61,80,0
181.88939,182.08904,63,80,0
181.88939,182.08904,61,80,0
182.09772,182.29738,63,80,0
182.09772,182.29738,61,80,0
182.09772,182.29738,58,80,0
182.30605,182.5057,63,80,0
182.30605,182.5057,61,80,0
182.30605,182.5057,58,80,0
182.51439,182.71404,63,80,0
182.51439,182.71404,61,80,0
182.51439,182.71404,58,80,0
182.72272,182.92236,63,80,0
182.72272,182.92236,61,80,0
182.72272,182.92236,58,80,0
182.93105,183.1307,63,80,0
182.93105,183.1307,61,80,0
182.93105,183.1307,58,80,0
183.13939,183.33904,63,80,0
183.13939,183.33904,61,80,0
183.13939,183.33904,58,80,0
183.34772,183.54736,63,110,0
183.34772,183.54736,60,110,0
183.55605,183.7557,63,80,0
183.55605,183.7557,60,80,0
183.76439,183.96404,63,80,0
183.76439,183.96404,60,80,0
183.97272,184.17236,63,80,0
183.97272,184.17236,60,80,0
184.18105,184.3807,63,80,0
184.18105,184.3807,60,80,0
184.38939,184.58904,63,80,0
184.38939,184.58904,60,80,0
184.59772,184.79736,63,80,0
184.59772,184.79736,60,80,0
184.80605,185.0057,63,80,0
184.80605,185.0057,60,80,0
185.01439,185.21404,63,80,0
185.01439,185.21404,60,80,0
185.22272,185.42236,63,80,0
185.22272,185.42236,60,80,0
185.43105,185.6307,63,80,0
185.43105,185.6307,60,80,0
185.63939,185.83904,63,80,0
185.63939,185.83904,60,80,0
185.84772,186.04736,64,80,0
185.84772,186.04736,60,80,0
186.05605,186.2557,64,80,0
186.05605,186.2557,60,80,0
186.26439,186.46404,64,80,0
186.26439,186.46404,60,80,0
186.47272,186.67236,64,80,0
186.47272,186.67236,60,80,0
186.68105,186.8807,64,80,0
186.68105,186.8807,60,80,0
186.88939,187.08904,64,80,0
186.88939,187.08904,60,80,0
187.09772,187.14111,80,80,0
187.09772,187.14111,82,80,0
187.20189,187.29736,84,80,0
187.30605,187.40154,82,80,0
187.51439,187.60986,80,80,0
187.72272,187.8182,79,80,0
187.93105,188.02654,77,80,0
188.13939,188.23486,75,80,0
188.34772,188.4432,73,80,0
188.55605,188.65154,72,80,0
188.76439,188.85986,70,80,0
188.97272,189.0682,68,80,0
189.18105,189.27654,67,80,0
189.38939,189.48486,65,80,0
189.59772,189.6932,64,80,0
189.80605,189.90154,65,80,0
190.01439,190.10986,67,80,0
190.22272,190.3182,65,80,0
190.43105,190.52654,68,80,0
190.63939,190.73486,65,80,0
190.84772,191.04736,64,110,0
191.05605,191.2557,60,80,0
191.05605,191.2557,58,80,0
191.05605,191.2557,55,80,0
191.26437,191.46404,60,80,0
191.26437,191.46404,58,80,0
191.26437,191.46404,55,80,0
191.47272,191.67236,60,80,0
191.47272,191.67236,58,80,0
191.47272,191.67236,55,80,0
191.68105,191.8807,60,80,0
191.68105,191.8807,58,80,0
191.68105,191.8807,55,80,0
191.88937,192.08904,60,80,0
191.88937,192.08904,58,80,0
191.88937,192.08904,55,80,0
192.09772,192.29736,60,80,0
192.09772,192.29736,58,80,0
192.09772,192.29736,55,80,0
192.30605,192.5057,60,80,0
192.30605,192.5057,58,80,0
192.30605,192.5057,55,80,0
192.51437,192.71404,60,80,0
192.51437,192.71404,58,80,0
192.51437,192.71404,55,80,0
192.72272,192.92236,60,80,0
192.72272,192.92236,58,80,0
192.72272,192.92236,55,80,0
192.93105,193.1307,60,80,0
192.93105,193.1307,58,80,0
192.93105,193.1307,55,80,0
193.13937,193.33904,60,80,0
193.13937,193.33904,58,80,0
193.13937,193.33904,55,80,0
193.34772,193.54736,60,80,0
193.34772,193.54736,58,80,0
193.34772,193.54736,55,80,0
193.55605,193.7557,60,80,0
193.55605,193.7557,58,80,0
193.55605,193.7557,55,80,0
193.76437,193.96404,60,80,0
193.76437,193.96404,58,80,0
193.76437,193.96404,55,80,0
193.97272,194.17236,60,80,0
193.97272,194.17236,58,80,0
193.97272,194.17236,55,80,0
194.18105,194.3807,60,80,0
194.18105,194.3807,58,80,0
194.18105,194.3807,55,80,0
194.38937,194.58904,60,80,0
194.38937,194.58904,58,80,0
194.38937,194.58904,55,80,0
194.59772,194.79736,60,80,0
194.59772,194.79736,58,80,0
194.80605,195.0057,60,80,0
194.80605,195.0057,58,80,0
195.01437,195.21404,60,80,0
195.01437,195.21404,58,80,0
195.22272,195.42236,60,80,0
195.22272,195.42236,58,80,0
195.43105,195.63069,60,80,0
195.43105,195.63069,58,80,0
195.63937,195.83904,60,80,0
195.63937,195.83904,58,80,0
195.84772,196.04736,60,80,0
195.84772,196.04736,58,80,0
196.05605,196.25569,60,80,0
196.05605,196.25569,58,80,0
196.26437,196.46404,60,80,0
196.26437,196.46404,58,80,0
196.47272,196.67236,60,80,0
196.47272,196.67236,58,80,0
196.68105,196.88069,60,80,0
196.68105,196.88069,58,80,0
196.88937,197.08904,60,80,0
196.88937,197.08904,58,80,0
197.09772,197.29736,60,80,0
197.09772,197.29736,58,80,0
197.09772,197.29736,55,80,0
197.30605,197.50569,60,80,0
197.30605,197.50569,58,80,0
197.30605,197.50569,55,80,0
197.51437,197.71404,60,80,0
197.51437,197.71404,58,80,0
197.51437,197.71404,55,80,0
197.72272,197.92236,60,80,0
197.72272,197.92236,58,80,0
197.72272,197.92236,55,80,0
197.93105,198.13069,60,80,0
197.93105,198.13069,58,80,0
197.93105,198.13069,55,80,0
198.13937,198.33904,60,80,0
198.13937,198.33904,58,80,0
198.13937,198.33904,55,80,0
198.34772,198.54736,60,80,0
198.34772,198.54736,56,80,0
198.55605,198.75569,61,80,0
198.55605,198.75569,56,80,0
198.76437,198.96404,61,80,0
198.76437,198.96404,56,80,0
198.97272,199.17236,61,80,0
198.97272,199.17236,56,80,0
199.18105,199.38069,61,80,0
199.18105,199.38069,56,80,0
199.38937,199.58904,61,80,0
199.38937,199.58904,56,80,0
199.59772,199.79736,80,80,0
199.80605,200.00569,77,80,0
200.01437,200.21404,73,80,0
200.22272,200.42236,73,80,0
200.43105,200.63069,73,80,0
200.63937,200.83904,73,80,0
200.84772,201.04736,60,80,0
200.84772,201.04736,55,80,0
201.05605,201.25569,60,80,0
201.05605,201.25569,55,80,0
201.26437,201.46404,60,80,0
201.26437,201.46404,55,80,0
201.47272,201.67236,60,80,0
201.47272,201.67236,55,80,0
201.68105,201.88069,60,80,0
201.68105,201.88069,55,80,0
201.88937,202.08904,60,80,0
201.88937,202.08904,55,80,0
202.09772,202.29736,59,80,0
202.09772,202.29736,53,80,0
202.30605,202.50569,59,80,0
202.30605,202.50569,53,80,0
202.51437,202.71404,59,80,0
202.51437,202.71404,53,80,0
202.72272,202.92236,59,80,0
202.72272,202.92236,53,80,0
202.93105,203.13069,59,80,0
202.93105,203.13069,53,80,0
203.13937,203.33904,59,80,0
203.13937,203.33904,53,80,0
203.34772,203.54736,77,80,0
203.55605,203.75569,74,80,0
203.76437,203.96404,71,80,0
203.9727,204.17236,71,80,0
204.18105,204.38069,71,80,0
204.38937,204.58904,71,80,0
204.5977,204.79736,56,80,0
204.5977,204.79736,51,80,0
204.80605,205.00569,56,80,0
204.80605,205.00569,51,80,0
205.01437,205.21404,56,80,0
205.01437,205.21404,51,80,0
205.2227,205.42236,56,80,0
205.2227,205.42236,51,80,0
205.43105,205.63069,56,80,0
205.43105,205.63069,51,80,0
205.63937,205.83904,56,80,0
205.63937,205.83904,51,80,0
205.8477,206.04736,55,80,0
205.8477,206.04736,50,80,0
206.05605,206.25569,55,80,0
206.05605,206.25569,50,80,0
206.26437,206.46404,55,80,0
206.26437,206.46404,50,80,0
206.4727,206.67236,55,80,0
206.4727,206.67236,50,80,0
206.68105,206.88069,55,80,0
206.68105,206.88069,50,80,0
206.88937,207.08904,55,80,0
206.88937,207.08904,50,80,0
207.0977,207.29736,86,80,0
207.30605,207.50569,83,80,0
207.51437,207.71404,77,80,0
207.7227,207.92236,77,80,0
207.93105,208.13069,77,80,0
208.13937,208.33902,77,80,0
208.3477,208.54736,84,80,0
208.55605,208.75569,79,80,0
208.76437,208.96402,75,80,0
208.9727,209.17236,75,80,0
209.18105,209.38069,75,80,0
209.38937,209.58902,75,80,0
209.5977,209.79736,80,80,0
209.80605,210.00569,77,81,0
210.01437,210.21402,73,83,0
210.01437,210.21402,68,83,0
210.01437,210.21402,65,83,0
210.2227,210.42236,73,85,0
210.2227,210.42236,68,85,0
210.2227,210.42236,65,85,0
210.43105,210.63069,73,86,0
210.43105,210.63069,68,86,0
210.43105,210.63069,65,86,0
210.63937,210.83902,73,88,0
210.63937,210.83902,68,88,0
210.63937,210.83902,65,88,0
210.8477,211.04736,80,90,0
211.05605,211.25569,77,92,0
211.26437,211.46402,73,93,0
211.26437,211.46402,68,93,0
211.26437,211.46402,65,93,0
211.4727,211.67236,73,95,0
211.4727,211.67236,68,95,0
211.4727,211.67236,65,95,0
211.68105,211.88069,73,97,0
211.68105,211.88069,68,97,0
211.68105,211.88069,65,97,0
211.88937,212.08902,73,98,0
211.88937,212.08902,68,98,0
211.88937,212.08902,65,98,0
212.0977,212.29736,81,100,0
212.30605,212.50569,75,102,0
212.51437,212.71402,72,104,0
212.51437,212.71402,69,104,0
212.51437,212.71402,63,104,0
212.7227,212.92236,72,105,0
212.7227,212.92236,69,105,0
212.7227,212.92236,63,105,0
212.93105,213.13069,72,107,0
212.93105,213.13069,69,107,0
212.93105,213.13069,63,107,0
213.13937,213.33902,72,109,0
213.13937,213.33902,69,109,0
213.13937,213.33902,63,109,0
213.3477,214.17236,71,110,0
213.3477,214.17236,67,110,0
213.3477,214.17236,62,110,0
215.01437,215.42236,74,80,0
215.43105,215.83902,71,80,0
214.5977,216.25569,77,80,0
215.8477,216.67236,72,80,0
216.26437,217.08902,75,80,0
216.68103,217.08902,69,80,0
217.0977,217.92236,71,80,0
217.0977,217.92236,74,80,0
218.76437,219.17236,74,80,0
219.18103,219.58902,71,80,0
218.3477,220.00569,77,80,0
219.5977,220.42236,72,80,0
220.01437,220.83902,75,80,0
220.43103,221.25569,69,80,0
221.26437,221.67235,71,80,0
220.8477,222.08902,74,80,0
221.68103,222.50569,68,80,0
222.51437,222.92235,70,80,0
222.0977,223.33902,73,80,0
222.93103,223.75569,67,80,0
223.76437,224.17235,69,80,0
223.3477,224.58902,72,80,0
224.18103,225.00569,66,80,0
225.01437,225.42235,68,80,0
224.5977,225.83902,71,80,0
225.43103,225.83902,65,80,0
226.26437,226.67235,67,78,0
226.26437,227.08902,71,78,0
226.68103,227.08902,65,77,0
227.52628,227.9459,67,75,0
227.52628,228.37448,72,75,0
227.95485,228.37448,63,74,0
228.81198,229.23163,60,72,0
228.81198,229.6602,66,72,0
228.81198,229.6602,63,72,0
229.24055,229.6602,57,71,0
230.1103,230.54228,54,69,0
230.1103,230.98346,60,69,0
230.1103,230.98346,57,69,0
230.55148,230.98346,51,68,0
231.4472,231.89227,48,66,0
231.4472,232.37553,53,66,0
231.4472,232.37553,51,66,0
231.90175,232.37553,45,66,0
232.38562,233.32141,55,65,0
232.38562,233.32141,50,65,0
232.38562,233.32141,47,65,0
234.48486,234.70602,55,65,0
234.48486,234.70602,47,65,0
234.71564,234.9368,57,65,0
234.71564,234.9368,48,65,0
234.94641,235.16756,59,65,0
234.94641,235.16756,50,65,0
235.17717,236.55217,60,80,0
235.17717,236.55217,51,80,0
236.56178,237.47525,59,65,0
236.56178,237.47525,50,65,0
238.63872,238.85986,59,65,0
238.63872,238.85986,55,65,0
238.86948,239.09064,60,65,0
238.86948,239.09064,57,65,0
239.10025,239.3214,62,65,0
239.10025,239.3214,59,65,0
239.33102,240.70601,63,80,0
239.33102,240.70601,60,80,0
240.71564,241.62909,62,65,0
240.71564,241.62909,59,65,0
242.79256,243.0137,67,65,0
242.79256,243.0137,59,65,0
243.02332,243.24448,69,65,0
243.02332,243.24448,60,65,0
243.25409,243.47525,71,65,0
243.25409,243.47525,62,65,0
243.48486,244.85986,72,80,0
243.48486,244.85986,63,80,0
244.86948,246.24448,71,65,0
244.86948,246.24448,62,65,0
246.25409,247.62909,75,65,0
246.25409,247.62909,72,65,0
247.17717,247.62909,66,65,0
247.6387,249.0137,74,65,0
247.6387,249.0137,71,65,0
247.6387,249.0137,67,65,0
249.02332,250.39832,75,65,0
249.02332,250.39832,72,65,0
249.9464,250.39832,66,65,0
250.40793,251.78293,74,65,0
250.40793,251.78293,71,65,0
250.40793,251.78293,67,65,0
251.79254,253.16754,81,65,0
251.79254,253.16754,75,65,0
251.79254,253.16754,72,65,0
252.71562,253.16754,66,65,0
253.17715,254.09062,67,65,0
253.17715,254.55215,79,65,0
253.17715,254.55215,74,65,0
253.17715,254.55215,71,65,0
254.56177,255.93677,77,65,0
254.56177,255.93677,72,65,0
254.56177,255.93677,69,65,0
255.94638,257.32138,76,65,0
255.94638,257.32138,71,65,0
255.94638,257.32138,67,65,0
257.331,258.706,74,65,0
257.331,258.706,69,65,0
257.331,258.706,65,65,0
258.7156,260.0906,72,73,0
258.7156,260.0906,67,73,0
258.7156,260.0906,64,73,0
260.10022,260.3284,71,82,0
260.10022,260.3284,65,82,0
260.33832,260.5665,73,84,0
260.33832,260.5665,67,84,0
260.57642,260.816,74,85,0
260.57642,260.816,69,85,0
260.82642,261.066,76,87,0
260.82642,261.066,67,87,0
261.07642,261.33777,77,88,0
261.07642,261.33777,65,88,0
261.34915,261.6105,71,89,0
261.34915,261.6105,65,89,0
261.62186,261.82724,72,80,0
261.729,261.93436,74,80,0
261.83615,262.0415,72,80,0
261.9433,262.14865,74,80,0
262.05045,262.2558,72,80,0
262.1576,262.36295,74,80,0
262.26474,262.4701,72,80,0
262.37186,262.57724,74,80,0
262.479,262.68436,72,80,0
262.58615,262.7915,74,80,0
262.6933,262.89865,72,80,0
262.80045,263.0058,74,80,0
262.9076,263.11295,72,80,0
263.01474,263.2201,74,80,0
263.12186,263.32724,72,80,0
263.229,263.43436,74,80,0
263.33615,263.5415,72,80,0
263.4433,263.64865,74,80,0
263.55045,263.7558,72,80,0
263.6576,263.86295,74,80,0
263.76474,263.9701,72,80,0
263.87186,264.07724,74,80,0
263.979,264.18436,71,80,0
264.08615,264.18436,72,80,0
264.1933,265.36295,76,80,0
265.37186,265.4701,72,80,0
265.479,267.61295,67,80,0
267.62186,267.8272,66,80,0
267.83615,268.0415,67,80,0
268.05045,268.2558,68,80,0
268.2647,268.4701,69,80,0
268.479,268.68436,70,80,0
268.6933,268.89865,71,80,0
268.9076,269.11295,72,80,0
269.12186,269.3272,73,80,0
269.33615,269.5415,74,80,0
269.4433,269.64865,76,80,0
269.55045,269.7558,74,80,0
269.6576,269.86295,76,80,0
269.7647,269.9701,74,80,0
269.87186,270.0772,76,80,0
269.979,270.18436,74,80,0
270.08615,270.2915,76,80,0
270.1933,270.39865,74,80,0
270.30045,270.5058,76,80,0
270.40756,270.61295,74,80,0
270.5147,270.72006,76,80,0
270.62186,270.8272,74,80,0
270.729,270.93436,76,80,0
270.83615,271.0415,74,80,0
270.9433,271.14865,76,80,0
271.05045,271.2558,74,80,0
271.15756,271.36295,76,80,0
271.2647,271.47006,74,80,0
271.37186,271.5772,76,80,0
271.479,271.68436,74,80,0
271.58615,271.7915,76,80,0
271.6933,271.89865,73,80,0
271.80045,271.89865,74,80,0
271.90756,273.0772,77,80,0
273.08615,273.18436,74,80,0
273.1933,275.3272,67,80,0
275.33615,275.5415,67,80,0
275.5504,275.7558,69,80,0
275.7647,275.97006,70,80,0
275.979,276.18436,71,80,0
276.1933,276.39865,72,80,0
276.40756,276.6129,73,80,0
276.62186,276.8272,74,80,0
276.83615,277.0415,75,80,0
277.0504,277.14865,64,80,0
277.1531,278.32275,76,80,0
278.33615,278.43436,65,80,0
278.4388,279.60846,77,80,0
279.62186,279.72006,67,80,0
279.72452,280.89417,79,80,0
280.90756,281.3272,80,80,0
281.33615,282.6129,81,84,0
282.62186,283.89862,81,99,0
283.90756,283.99686,79,80,0
283.95667,284.1129,77,80,0
284.12186,284.3272,76,80,0
284.33612,284.5415,77,80,0
284.5504,284.75577,74,80,0
284.7647,285.18436,72,80,0
285.19327,285.2379,74,80,0
285.24237,285.5013,72,80,0
285.5147,285.6129,71,80,0
285.62186,285.93436,72,80,0
285.94327,286.0415,76,80,0
286.0504,287.43436,67,80,0
287.44327,287.5415,69,80,0
287.5504,287.64862,67,80,0
287.65756,287.75577,66,80,0
287.7647,287.8272,67,80,0
287.83612,287.89862,69,80,0
287.90756,287.97006,71,80,0
287.97897,288.04147,72,80,0
288.0504,288.1129,74,80,0
288.12186,288.18436,76,80,0
288.19327,288.39862,77,80,0
288.5147,288.6129,71,80,0
288.62186,289.89862,74,80,0
288.62186,289.89862,65,80,0
289.90756,290.1129,72,80,0
289.90756,290.1129,64,80,0
290.12186,290.3272,67,80,0
290.33612,290.5643,66,80,0
290.57422,290.8024,67,80,0
290.81232,291.0405,69,80,0
291.0504,291.2786,67,80,0
291.2885,291.4999,65,80,0
291.5091,291.7205,64,80,0
291.72968,291.94748,67,80,0
291.95697,292.17477,65,80,0
292.18423,292.40884,64,80,0
292.4186,292.64322,62,80,0
292.65298,292.85834,60,80,0
292.86728,293.07263,60,80,0
292.86728,293.07263,55,80,0
293.08154,293.2869,64,80,0
293.08154,293.2869,60,80,0
293.29584,293.5012,60,80,0
293.29584,293.5012,55,80,0
293.51013,293.71548,64,80,0
293.51013,293.71548,60,80,0
293.7244,293.92978,60,80,0
293.7244,293.92978,55,80,0
293.9387,294.14404,64,80,0
293.9387,294.14404,60,80,0
294.15298,294.35834,60,80,0
294.15298,294.35834,55,80,0
294.36725,294.57263,64,80,0
294.36725,294.57263,60,80,0
294.58154,294.7869,60,80,0
294.58154,294.7869,55,80,0
294.79584,295.0012,64,80,0
294.79584,295.0012,60,80,0
295.01013,295.21548,60,80,0
295.01013,295.21548,55,80,0
295.2244,295.42975,64,80,0
295.2244,295.42975,60,80,0
295.4387,295.64404,60,80,0
295.4387,295.64404,55,80,0
295.65298,295.85834,64,80,0
295.65298,295.85834,60,80,0
295.86725,296.07263,60,80,0
295.86725,296.07263,55,80,0
296.08154,296.2869,64,80,0
296.08154,296.2869,60,80,0
296.29584,296.5012,60,80,0
296.29584,296.5012,55,80,0
296.61725,296.82263,71,80,0
296.7244,296.92975,74,80,0
296.83154,297.0369,72,80,0
296.9387,297.14404,76,80,0
297.04584,297.2512,74,80,0
297.15298,297.35834,77,80,0
297.26013,297.46548,76,80,0
297.36725,297.57263,79,80,0
297.4744,297.67975,77,80,0
297.58154,297.7869,81,80,0
297.6887,297.89404,79,80,0
297.79584,298.0012,83,80,0
297.90298,298.10834,81,80,0
298.01013,298.21548,84,80,0
298.11725,298.32263,83,80,0
298.2244,298.42975,86,80,0
298.33154,298.5369,84,80,0
298.4387,298.64404,88,80,0
298.54584,298.7512,86,80,0
298.65298,298.85834,84,80,0
298.7601,298.96548,83,80,0
298.86725,299.0726,81,80,0
298.9744,299.17975,79,80,0
299.08154,299.2869,78,80,0
299.1887,299.39404,79,80,0
299.29584,299.5012,81,80,0
299.40298,299.60834,79,80,0
299.5101,299.71548,77,80,0
299.61725,299.8226,76,80,0
299.7244,299.92975,74,80,0
299.83154,300.0369,72,80,0
299.9387,300.14404,71,80,0
300.04584,300.2512,72,80,0
300.15298,300.35834,76,80,0
300.2601,300.46548,72,80,0
300.36725,300.5726,71,80,0
300.58154,300.7869,59,80,0
300.58154,300.7869,55,80,0
300.79584,301.0012,59,80,0
300.79584,301.0012,65,80,0
301.0101,301.21548,59,80,0
301.0101,301.21548,55,80,0
301.2244,301.42975,59,80,0
301.2244,301.42975,65,80,0
301.4387,301.64404,59,80,0
301.4387,301.64404,55,80,0
301.65298,301.85834,59,80,0
301.65298,301.85834,65,80,0
301.86725,302.0726,59,80,0
301.86725,302.0726,55,80,0
302.08154,302.2869,59,80,0
302.08154,302.2869,65,80,0
302.29584,302.5012,59,80,0
302.29584,302.5012,55,80,0
302.5101,302.71548,59,80,0
302.5101,302.71548,65,80,0
302.7244,302.92975,59,80,0
302.7244,302.92975,55,80,0
302.9387,303.14404,59,80,0
302.9387,303.14404,65,80,0
303.15295,303.35834,59,80,0
303.15295,303.35834,55,80,0
303.36725,303.5726,59,80,0
303.36725,303.5726,65,80,0
303.58154,303.7869,59,80,0
303.58154,303.7869,55,80,0
303.79584,304.0012,59,80,0
303.79584,304.0012,65,80,0
304.0101,304.21545,59,80,0
304.0101,304.21545,55,80,0
304.33154,304.5369,71,80,0
304.4387,304.64404,74,80,0
304.54584,304.7512,72,80,0
304.65295,304.85834,76,80,0
304.7601,304.96545,74,80,0
304.86725,305.0726,77,80,0
304.9744,305.17975,76,80,0
305.08154,305.2869,79,80,0
305.1887,305.39404,77,80,0
305.29584,305.5012,81,80,0
305.40295,305.60834,79,80,0
305.5101,305.71545,83,80,0
305.61725,305.8226,81,80,0
305.7244,305.92975,84,80,0
305.83154,306.0369,83,80,0
305.9387,306.14404,86,80,0
306.04584,306.2512,85,80,0
306.15295,306.35834,88,80,0
306.2601,306.46545,86,80,0
306.36725,306.5726,89,80,0
306.4744,306.67975,88,80,0
306.58154,306.7869,86,80,0
306.6887,306.89404,84,80,0
306.79584,307.0012,83,80,0
306.90295,307.10834,84,80,0
307.0101,307.21545,85,80,0
307.11725,307.3226,86,80,0
307.2244,307.42975,84,80,0
307.33154,307.5369,83,80,0
307.4387,307.64404,81,80,0
307.5458,307.7512,79,80,0
307.65295,307.8583,78,80,0
307.7601,307.96545,79,80,0
307.86725,308.0726,81,80,0
307.9744,308.17975,77,80,0
308.08154,308.5012,75,80,0
308.5101,309.3583,76,80,0
309.36725,309.46994,76,80,0
309.4744,310.8628,84,80,0
310.86725,311.0726,83,80,0
311.08154,311.2869,81,80,0
311.2958,311.5012,79,80,0
311.5101,311.71545,78,80,0
311.7244,311.92975,76,80,0
311.93866,312.3583,76,80,0
312.36725,313.42975,74,80,0
313.43866,313.8583,74,80,0
313.86725,314.2869,74,80,0
314.2958,314.50116,74,80,0
314.5101,314.64404,74,80,0
314.65295,314.7869,73,80,0
314.7958,314.92975,74,80,0
314.93866,315.0726,75,80,0
315.08154,315.21545,76,80,0
315.2244,315.3583,77,80,0
315.36725,315.5726,78,80,0
315.58154,315.7869,79,80,0
315.7958,315.9744,69,80,0
315.93866,316.1217,68,80,0
316.08154,316.2735,69,80,0
316.2244,316.36725,70,80,0
316.3315,316.46545,71,80,0
316.43866,316.56815,72,80,0
316.5458,316.67526,73,80,0
316.65295,316.84045,74,80,0
316.7958,316.9833,75,80,0
316.93866,317.11725,76,80,0
317.0815,317.11725,76,80,0
317.5101,318.5771,62,80,0
318.5862,318.682,64,80,0
318.6592,318.76413,62,80,0
318.7322,318.83713,61,80,0
318.8052,318.901,62,80,0
318.87817,318.96942,64,80,0
318.95117,319.047,66,80,0
319.02417,319.1291,67,80,0
319.09717,319.2021,69,80,0
319.17017,319.27966,71,80,0
319.24316,319.453,72,80,0
319.57162,319.672,66,80,0
319.68112,321.08,69,80,0
319.68112,321.08,60,80,0
321.0904,321.55496,67,80,0
321.0904,321.55496,59,80,0
321.5643,322.00272,67,80,0
322.01205,322.45047,67,80,0
322.4598,322.89825,67,80,0
322.90756,323.346,66,80,0
323.35532,323.79376,67,80,0
323.8031,324.24152,67,80,0
324.25085,324.6893,66,80,0
324.6986,324.91318,67,80,0
324.9225,325.13705,67,80,0
325.37027,325.5848,67,80,0
325.81802,326.03256,66,80,0
326.26578,326.48032,67,80,0
326.71353,326.9281,67,80,0
327.1613,327.37585,66,80,0
327.60907,327.8236,73,80,0
327.60907,327.8236,70,80,0
327.60907,327.8236,67,80,0
328.05682,328.27136,67,80,0
328.50458,328.71915,66,80,0
328.95233,329.1669,67,80,0
329.40012,329.61465,67,80,0
329.84787,330.0624,66,80,0
327.83295,330.2863,70,80,0
327.83295,330.2863,73,80,0
330.29562,330.5102,73,80,0
330.29562,330.5102,70,80,0
330.29562,330.5102,67,80,0
330.74338,330.95795,73,80,0
330.74338,330.95795,70,80,0
330.74338,330.95795,67,80,0
331.19116,331.4057,74,80,0
331.19116,331.4057,69,80,0
331.63892,331.85345,76,80,0
331.63892,331.85345,69,80,0
331.8628,333.19675,76,80,0
331.8628,333.6445,69,80,0
333.2061,333.6445,77,80,0
333.65384,334.09225,65,80,0
334.1016,334.54004,65,80,0
334.54935,334.9878,65,80,0
334.99713,335.43555,64,80,0
335.4449,335.8833,65,80,0
335.89264,336.3311,65,80,0
336.3404,336.77884,64,80,0
336.78815,337.00272,65,80,0
337.01205,337.2266,65,80,0
337.4598,337.67435,65,80,0
337.90756,338.1221,64,80,0
338.35532,338.5699,65,80,0
338.8031,339.01764,65,80,0
339.25085,339.4654,64,80,0
339.6986,339.91315,65,80,0
339.6986,339.91315,68,80,0
339.6986,339.91315,71,80,0
340.14636,340.36093,65,80,0
340.59412,340.8087,64,80,0
341.0419,341.25644,65,80,0
341.48965,341.7042,65,80,0
341.9374,342.15198,64,80,0
339.9225,342.37585,68,80,0
339.9225,342.37585,71,80,0
342.38516,342.59973,71,80,0
342.38516,342.59973,68,80,0
342.38516,342.59973,65,80,0
342.83295,343.0475,71,80,0
342.83295,343.0475,68,80,0
342.83295,343.0475,65,80,0
343.2807,343.49524,72,80,0
343.2807,343.49524,67,80,0
343.72845,343.94302,74,80,0
343.72845,343.94302,67,80,0
343.95233,344.1669,67,80,0
344.1762,344.39078,66,80,0
344.4001,344.61465,66,80,0
344.624,344.83853,67,80,0
344.84787,345.0624,67,80,0
343.95233,345.2863,76,80,0
345.07175,345.2863,68,80,0
345.5195,345.73404,68,80,0
345.74338,345.95795,68,80,0
345.96725,346.18182,69,80,0
346.19113,346.4057,71,80,0
345.29562,346.62958,74,80,0
346.415,346.62958,69,80,0
346.8628,347.07733,69,80,0
347.08667,347.3012,69,80,0
347.31055,347.5251,62,80,0
347.53442,347.74896,69,80,0
346.63892,347.97287,72,80,0
347.7583,347.97287,62,80,0
347.98218,348.19675,62,80,0
348.20605,348.6445,67,80,0
347.98218,348.86838,71,80,0
348.65384,349.09225,67,80,0
349.1016,349.54,67,80,0
349.54935,349.9878,67,80,0
349.77322,350.21167,69,80,0
349.9971,350.43555,67,80,0
350.22098,350.65942,71,80,0
350.4449,350.8833,65,80,0
350.89264,351.33105,64,80,0
350.66876,351.55493,72,80,0
351.3404,351.77884,62,80,0
351.56427,352.00272,66,80,0
351.78815,352.00272,60,80,0
352.01202,352.2266,59,80,0
352.01202,352.45047,69,80,0
352.2359,352.45047,62,80,0
352.4598,352.67435,59,80,0
352.4598,352.67435,67,80,0
352.6837,353.1221,67,80,0
353.13144,353.5699,67,80,0
353.35532,353.79376,71,80,0
353.5792,354.01764,67,80,0
353.80307,354.24152,69,80,0
354.02695,354.4654,67,80,0
354.25085,354.68927,71,80,0
354.47473,354.91315,65,80,0
354.6986,355.13702,74,80,0
354.9225,355.3609,64,80,0
355.14636,355.5848,72,80,0
355.37024,355.8087,62,80,0
355.59412,356.03256,66,80,0
355.818,356.03256,60,80,0
356.04187,356.48032,59,80,0
356.04187,356.48032,67,80,0
356.48965,356.92807,65,80,0
356.71353,356.92807,74,80,0
356.9374,357.15195,64,80,0
356.9374,357.15195,72,80,0
357.1613,357.37582,60,80,0
357.1613,357.37582,66,80,0
357.38516,357.83365,59,80,0
357.38516,357.83365,67,80,0
357.8434,358.3024,65,80,0
358.0778,358.3024,74,80,0
358.31216,358.53333,64,80,0
358.31216,358.53333,72,80,0
358.54294,358.7641,60,80,0
358.54294,358.7641,66,80,0
358.7737,359.23633,59,80,0
358.7737,359.23633,67,80,0
359.24643,359.736,65,80,0
359.49643,359.736,74,80,0
359.74643,360.00778,64,80,0
359.74643,360.00778,72,80,0
360.01913,360.28052,60,80,0
360.01913,360.28052,66,80,0
360.29187,360.5064,67,80,0
360.4038,360.61835,69,80,0
360.51575,360.73032,67,80,0
360.6277,360.84225,69,80,0
360.73962,360.9542,67,80,0
360.85156,361.06613,69,80,0
360.9635,361.17807,67,80,0
361.07544,361.29,69,80,0
361.18738,361.40195,67,80,0
361.29935,361.5139,69,80,0
361.4113,361.62582,67,80,0
361.52322,361.73776,69,80,0
361.63516,361.8497,67,80,0
361.7471,361.96164,69,80,0
361.85904,362.07358,67,80,0
361.97098,362.18552,69,80,0
362.08292,362.29745,67,80,0
362.19485,362.4094,69,80,0
362.3068,362.52133,67,80,0
362.41873,362.6333,69,80,0
362.53067,362.74524,67,80,0
362.6426,362.85718,69,80,0
360.29187,362.96912,59,80,0
362.75455,362.96912,67,80,0
362.8665,363.08105,69,80,0
362.97842,363.08105,67,80,0
363.04373,363.14633,66,80,0
363.10437,363.20697,67,80,0
363.2023,363.30493,62,80,0
363.2583,363.3609,64,80,0
363.31427,363.41687,66,80,0
363.37024,363.47284,67,80,0
363.4262,363.5288,69,80,0
363.48218,363.58478,67,80,0
363.53815,363.64075,66,80,0
363.59412,363.69672,67,80,0
363.6501,363.7527,69,80,0
363.70605,363.80865,71,80,0
363.76202,363.86462,72,80,0
363.818,363.9206,71,80,0
363.87396,363.97656,69,80,0
363.92993,364.03253,71,80,0
363.9859,364.0885,72,80,0
364.04187,364.14447,74,80,0
364.09784,364.20044,76,80,0
364.1538,364.2564,74,80,0
364.20978,364.31238,73,80,0
364.26575,364.36835,74,80,0
364.32172,364.5363,76,80,0
364.3777,364.59225,78,80,0
364.43365,364.64822,79,80,0
364.5456,364.64822,79,80,0
364.48962,364.7042,81,80,0
364.65753,364.76016,79,80,0
364.60156,364.81613,78,80,0
364.7135,364.92807,81,80,0
364.76947,364.98404,83,80,0
364.8814,364.98404,83,80,0
364.82544,365.04,84,80,0
364.99335,365.09598,83,80,0
364.93738,365.15195,81,80,0
365.04932,365.2639,84,80,0
365.1613,365.2639,84,80,0
365.1053,365.31985,86,80,0
365.21725,365.4318,83,80,0
365.27322,365.48776,81,80,0
365.38516,365.48776,81,80,0
365.3292,365.54373,79,80,0
365.44113,365.54373,79,80,0
365.55307,365.65567,79,80,0
365.4971,365.71164,78,80,0
365.60904,365.82358,81,80,0
365.77695,365.82358,81,80,0
365.665,365.87955,83,80,0
365.77695,365.87955,83,80,0
365.72098,365.93552,84,80,0
365.8889,365.9915,83,80,0
365.94485,366.1594,84,80,0
366.0568,366.1594,84,80,0
366.00082,366.21536,86,80,0
366.11276,366.3273,83,80,0
366.16873,366.38327,81,80,0
366.28067,366.38327,81,80,0
366.2247,366.43927,79,80,0
366.33664,366.43927,79,80,0
366.44858,366.5512,79,80,0
366.3926,366.60718,78,80,0
366.50455,366.71912,81,80,0
366.56052,366.7751,83,80,0
366.67245,366.7751,83,80,0
366.6165,366.83105,85,80,0
366.7844,366.88702,83,80,0
366.72842,366.943,81,80,0
366.84036,367.05493,85,80,0
366.89633,367.1109,86,80,0
367.00827,367.1109,86,80,0
366.9523,367.16687,88,80,0
367.12024,367.22284,86,80,0
367.06424,367.2788,85,80,0
367.1762,367.39075,88,80,0
367.28815,367.39075,88,80,0
367.23218,367.44672,89,80,0
367.34412,367.55865,86,80,0
367.4001,367.61462,84,80,0
367.51202,367.61462,84,80,0
367.45605,367.6706,83,80,0
367.568,367.6706,83,80,0
367.67993,367.78253,83,80,0
367.62396,367.8385,81,80,0
367.7359,367.95044,84,80,0
367.79187,368.0064,86,80,0
367.9038,368.0064,86,80,0
367.84784,368.06238,88,80,0
368.01575,368.11835,86,80,0
367.95978,368.17432,85,80,0
368.07172,368.28625,88,80,0
368.18365,368.28625,88,80,0
368.1277,368.34222,89,80,0
368.23962,368.4542,86,80,0
368.2956,368.51016,84,80,0
368.40753,368.51016,84,80,0
368.35156,368.56613,83,80,0
368.4635,368.67807,85,80,0
368.51947,368.73404,86,80,0
368.57544,368.79,77,80,0
368.6314,368.84598,79,80,0
368.68738,368.90195,80,80,0
368.74335,368.95792,81,80,0
368.79932,369.0139,74,80,0
368.8553,369.06985,75,80,0
368.91125,369.12582,76,80,0
368.96722,369.1818,77,80,0
369.02322,369.23776,71,80,0
369.0792,369.29373,72,80,0
369.13516,369.3497,73,80,0
369.19113,369.40567,74,80,0
369.2471,369.46164,67,80,0
369.30307,369.5176,68,80,0
369.35904,369.57358,69,80,0
369.415,369.62955,70,80,0
369.47098,369.68552,71,80,0
369.58292,369.7415,73,80,0
369.52695,369.79745,72,80,0
369.6389,369.85342,74,80,0
369.69485,369.9094,75,80,0
369.75082,369.96536,76,80,0
369.8068,370.02133,77,80,0
369.86276,370.0773,78,80,0
369.91873,370.13327,79,80,0
370.03067,370.2452,80,80,0
370.1426,370.49243,83,80,0
370.3665,370.7094,81,80,0
370.59036,370.96735,79,80,0
370.82846,371.21997,77,80,0
371.06656,371.4643,76,80,0
371.3393,371.60065,74,80,0
371.61203,371.87338,72,80,0
371.74838,371.98737,74,80,0
371.88474,372.0993,72,80,0
371.99667,372.21124,74,80,0
372.1086,372.32318,72,80,0
372.22055,372.43512,74,80,0
372.33252,372.54706,72,80,0
372.44446,372.659,74,80,0
372.5564,372.77094,72,80,0
372.66833,372.88287,74,80,0
372.78027,372.9948,72,80,0
372.8922,373.10675,74,80,0
373.00415,373.2187,72,80,0
373.1161,373.33063,74,80,0
373.22803,373.44257,72,80,0
373.33997,373.5545,74,80,0
373.4519,373.66647,72,80,0
373.56384,373.7784,74,80,0
373.67578,373.89035,72,80,0
373.78772,374.0023,74,80,0
373.89966,374.11423,72,80,0
374.0116,374.22617,74,80,0
374.12354,374.3381,71,80,0
374.2355,374.3381,72,80,0
374.34744,375.56946,76,80,0
375.57877,375.6814,72,80,0
375.6907,377.9202,67,80,0
377.9295,378.14407,66,80,0
378.1534,378.36795,67,80,0
378.3773,378.59183,68,80,0
378.60117,378.8157,69,80,0
378.82504,379.03958,70,80,0
379.04892,379.26346,71,80,0
379.2728,379.48737,72,80,0
379.49667,379.71124,73,80,0
379.72055,379.93512,74,80,0
379.8325,380.04706,76,80,0
379.94443,380.159,74,80,0
380.0564,380.27094,76,80,0
380.16833,380.38287,74,80,0
380.28027,380.4948,76,80,0
380.3922,380.60675,74,80,0
380.50415,380.7187,76,80,0
380.6161,380.83063,74,80,0
380.72803,380.94257,76,80,0
380.83997,381.0545,74,80,0
380.9519,381.16644,76,80,0
381.06384,381.2784,74,80,0
381.17578,381.39035,76,80,0
381.28772,381.5023,74,80,0
381.39966,381.61423,76,80,0
381.5116,381.72617,74,80,0
381.62354,381.8381,76,80,0
381.73547,381.95004,74,80,0
381.8474,382.06198,76,80,0
381.95938,382.17392,74,80,0
382.07132,382.28586,76,80,0
382.18326,382.28586,76,80,0
382.18326,382.3978,73,80,0
382.2952,382.3978,74,80,0
382.40714,383.46124,79,80,0
383.47055,383.57318,77,80,0
383.52652,383.62915,76,80,0
383.5825,383.68512,74,80,0
383.63846,383.7411,72,80,0
383.69443,383.7411,71,80,0
383.7504,384.18884,69,80,0
384.19818,385.9799,67,80,0
385.98923,386.20377,67,80,0
386.2131,386.42764,69,80,0
386.43698,386.65152,70,80,0
386.66086,386.8754,71,80,0
386.88474,387.0993,72,80,0
387.1086,387.32318,73,80,0
387.3325,387.54706,74,80,0
387.55637,387.77094,75,80,0
387.78027,387.9948,76,80,0
387.9062,388.12076,77,80,0
388.0228,388.23734,76,80,0
388.1394,388.35394,75,80,0
388.256,388.47055,76,80,0
388.37262,388.58716,72,80,0
388.49387,388.70844,71,80,0
388.61047,388.82504,72,80,0
388.73175,388.9463,84,80,0
388.85303,389.06757,83,80,0
388.9836,389.19818,84,80,0
389.12354,389.3381,77,80,0
389.24948,389.46402,79,80,0
389.3661,389.58063,77,80,0
389.4827,389.69724,76,80,0
389.59927,389.81384,77,80,0
389.71588,389.93045,72,80,0
389.83716,390.05173,71,80,0
389.95377,390.1683,72,80,0
390.07504,390.28958,84,80,0
390.19165,390.4062,83,80,0
390.33157,390.5461,84,80,0
390.46683,390.68137,79,80,0
390.59277,390.8073,81,80,0
390.70935,390.92392,79,80,0
390.82596,391.04053,78,80,0
390.94257,391.15714,79,80,0
391.05917,391.27374,72,80,0
391.18045,391.395,71,80,0
391.29706,391.5116,72,80,0
391.4183,391.63287,84,80,0
391.53958,391.75415,83,80,0
391.6702,391.88474,84,80,0
391.81012,392.02466,80,80,0
392.034,392.4724,81,82,0
392.48175,392.9202,81,87,0
392.9295,393.36795,81,92,0
393.37726,393.8157,81,97,0
393.82504,394.26346,81,102,0
394.2728,394.7112,81,107,0
394.72055,394.93512,76,80,0
394.94443,394.9911,79,80,0
395.0004,395.14966,77,80,0
395.1683,395.38287,76,80,0
395.3922,395.60675,77,80,0
395.6161,395.83063,74,80,0
395.83997,395.94257,72,80,0
395.9519,396.0545,74,80,0
396.06384,396.16644,72,80,0
396.17578,396.27838,71,80,0
396.39966,396.50226,72,82,0
396.62354,396.72617,74,85,0
396.8474,396.95004,76,88,0
397.0713,397.17392,77,90,0
397.29517,397.3978,79,93,0
397.51907,397.62167,81,96,0
397.74295,397.84555,83,99,0
397.96683,398.06943,84,101,0
398.1907,398.2933,86,104,0
398.41458,398.51718,88,107,0
398.52652,398.62915,86,108,0
398.5825,398.68512,88,109,0
398.63846,398.96497,89,109,0
399.42206,399.86047,71,110,0
399.8698,400.30823,72,110,0
399.8698,400.30823,64,110,0
400.31757,400.756,67,80,0
400.76532,401.20377,65,80,0
401.2131,401.65152,64,80,0
401.66086,402.09927,62,80,0
402.1086,402.54706,60,80,0
402.55637,402.77094,59,80,0
402.78024,402.9948,60,80,0
403.00412,403.2187,59,80,0
403.22803,403.44257,60,80,0
403.4519,403.66644,62,80,0
403.67578,403.89032,60,80,0
403.89966,404.1142,60,80,0
404.0116,404.22614,62,80,0
404.12354,404.33807,60,80,0
404.23547,404.45004,62,80,0
404.3474,404.56198,60,80,0
404.45935,404.67392,62,80,0
404.5713,404.78586,60,80,0
404.68323,404.8978,62,80,0
404.79517,405.00974,60,80,0
404.9071,405.12167,62,80,0
405.01907,405.2336,60,80,0
405.131,405.34555,62,80,0
405.24295,405.4575,60,80,0
405.3549,405.56943,62,80,0
405.46683,405.68137,60,80,0
405.57877,405.7933,62,80,0
405.6907,405.90524,60,80,0
405.80264,406.01718,62,80,0
405.91458,406.12912,60,80,0
406.02652,406.24106,62,80,0
406.13846,406.35303,60,80,0
406.2504,406.46497,62,80,0
405.24295,406.5769,66,80,0
406.36234,406.5769,60,80,0
406.47427,406.68884,62,80,0
406.5862,406.80078,65,80,0
406.69815,406.91272,67,80,0
406.8101,407.02466,65,80,0
406.92203,407.1366,67,80,0
407.034,407.24854,65,80,0
407.14594,407.36047,67,80,0
407.25787,407.4724,65,80,0
407.3698,407.58435,67,80,0
407.48175,407.6963,65,80,0
407.5937,407.80823,67,80,0
406.5862,407.92017,59,80,0
407.70563,407.92017,65,80,0
407.81757,408.0321,67,80,0
407.9295,408.14404,58,80,0
408.04144,408.256,60,80,0
408.15338,408.36795,58,80,0
408.26532,408.4799,60,80,0
408.37726,408.59183,58,80,0
408.4892,408.70377,60,80,0
408.60114,408.8157,58,80,0
408.71307,408.92764,60,80,0
408.825,409.03958,58,80,0
408.93698,409.15152,60,80,0
409.04892,409.26346,58,80,0
409.16086,409.3754,60,80,0
409.2728,409.48734,58,80,0
409.38474,409.59927,60,80,0
409.49667,409.7112,58,80,0
409.6086,409.82315,60,80,0
409.72055,409.9351,58,80,0
409.8325,410.04703,60,80,0
409.94443,410.159,58,80,0
410.05637,410.27094,60,80,0
410.1683,410.38287,58,80,0
410.28024,410.4948,60,80,0
409.2728,410.60675,64,80,0
410.39218,410.60675,58,80,0
410.50412,410.7187,60,80,0
410.61606,410.83063,65,80,0
410.728,410.94257,67,80,0
410.83997,411.0545,65,80,0
410.9519,411.16644,67,80,0
411.06384,411.27838,65,80,0
411.17578,411.39032,67,80,0
411.28772,411.50226,65,80,0
411.39966,411.6142,67,80,0
411.5116,411.72614,65,80,0
411.62354,411.83807,67,80,0
410.61606,411.95,57,80,0
411.73547,411.95,65,80,0
411.8474,412.06195,67,80,0
411.95935,412.06195,69,82,0
412.01532,412.11795,71,83,0
412.0713,412.17392,69,84,0
412.12726,412.2299,71,85,0
412.18323,412.28586,69,86,0
412.2392,412.34183,71,88,0
411.95935,412.3978,65,82,0
412.29517,412.3978,68,89,0
412.35114,412.45377,69,90,0
412.4071,412.45377,69,91,0
412.4071,412.50974,72,91,0
412.46307,412.5657,74,92,0
412.51904,412.62167,72,93,0
412.575,412.67764,74,94,0
412.63098,412.7336,72,96,0
412.68695,412.78958,74,97,0
412.74295,412.84555,71,98,0
412.79892,412.90152,72,99,0
412.8549,412.90152,72,100,0
412.8549,412.9575,77,100,0
412.91086,413.01346,79,101,0
412.96683,413.06943,77,103,0
413.0228,413.1254,79,104,0
413.07877,413.18137,77,105,0
413.13474,413.23734,79,106,0
413.1907,413.2933,76,107,0
413.24667,413.34927,77,108,0
413.30264,413.34927,77,109,0
413.30264,413.74106,81,109,0
413.7504,415.08435,81,110,0
413.7504,415.08435,84,110,0
415.0937,415.30823,83,80,0
415.0937,415.30823,79,80,0
415.31757,415.5321,81,80,0
415.31757,415.5321,77,80,0
415.54144,415.75598,79,80,0
415.54144,415.75598,76,80,0
415.76532,415.9799,74,80,0
415.76532,415.9799,77,80,0
415.9892,416.20377,76,80,0
415.9892,416.20377,72,80,0
416.21307,416.42764,75,80,0
416.21307,416.42764,71,80,0
416.43695,416.65152,76,80,0
416.43695,416.65152,72,80,0
416.66086,416.8754,78,80,0
416.66086,416.8754,75,80,0
416.88474,417.09927,79,80,0
416.88474,417.09927,76,80,0
417.1086,417.32315,76,80,0
417.1086,417.32315,72,80,0
417.55637,417.7709,75,80,0
417.55637,417.7709,71,80,0
417.78024,417.9948,76,80,0
417.78024,417.9948,72,80,0
418.00412,418.2187,78,80,0
418.00412,418.2187,75,80,0
418.228,418.44257,79,80,0
418.228,418.44257,76,80,0
418.45187,418.66644,76,80,0
418.45187,418.66644,72,80,0
418.89966,419.1142,73,80,0
418.89966,419.1142,70,80,0
419.12354,419.33807,74,80,0
419.12354,419.33807,71,80,0
419.3474,419.56195,76,80,0
419.3474,419.56195,72,80,0
419.5713,419.80313,77,80,0
419.5713,419.80313,74,80,0
419.81323,420.04507,74,80,0
419.81323,420.04507,71,80,0
420.05518,420.51825,72,80,0
424.69635,425.1483,66,80,0
425.1579,425.60983,69,80,0
425.61945,426.07135,74,80,0
426.08096,426.5329,78,80,0
426.5425,426.99445,81,80,0
427.00406,427.2252,86,80,0
427.11945,427.34058,88,80,0
427.23483,427.45596,86,80,0
427.3502,427.57135,88,80,0
427.46558,427.68674,86,80,0
427.58096,427.80212,88,80,0
427.69635,427.9175,86,80,0
427.81174,428.0329,88,80,0
427.92712,428.1483,86,80,0
428.0425,428.26367,88,80,0
427.00406,428.37906,79,80,0
428.1579,428.37906,85,80,0
428.2733,428.49445,86,80,0
428.8502,429.30212,64,80,0
429.31174,429.76367,67,80,0
429.7733,430.2252,72,80,0
430.2348,430.68674,76,80,0
430.69635,431.1483,79,80,0
431.1579,431.37906,84,80,0
431.2733,431.49442,86,80,0
431.38867,431.6098,84,80,0
431.50406,431.7252,86,80,0
431.61942,431.84058,84,80,0
431.7348,431.95596,86,80,0
431.8502,432.07135,84,80,0
431.96558,432.18674,86,80,0
432.08096,432.30212,84,80,0
432.19635,432.4175,86,80,0
431.1579,432.5329,77,80,0
432.31174,432.5329,83,80,0
432.42712,432.6483,84,80,0
432.5425,432.6483,84,81,0
432.5425,432.76367,81,81,0
432.7733,433.2252,81,83,0
432.7733,433.2252,89,83,0
433.2348,433.68674,81,88,0
433.2348,433.68674,89,88,0
433.69635,434.1483,81,93,0
433.69635,434.1483,89,93,0
434.1579,434.6098,81,97,0
434.1579,434.6098,89,97,0
434.61942,435.07135,81,102,0
434.61942,435.07135,89,102,0
435.08096,435.5329,81,107,0
435.08096,435.5329,89,107,0
435.5425,435.99442,81,110,0
435.5425,435.99442,89,110,0
436.00403,436.45596,88,110,0
436.00403,436.45596,79,110,0
436.46558,436.68674,86,110,0
436.46558,436.68674,77,110,0
436.69635,436.9175,84,110,0
436.69635,436.9175,76,110,0
436.92712,437.1483,78,110,0
436.92712,437.1483,75,110,0
437.1579,437.37903,79,110,0
437.1579,437.37903,76,110,0
437.38864,437.6098,75,110,0
437.38864,437.6098,66,110,0
437.61942,437.84058,76,110,0
437.61942,437.84058,67,110,0
437.8502,438.07135,72,110,0
437.8502,438.07135,64,110,0
438.31174,438.5329,63,108,0
438.31174,438.5329,66,108,0
438.5425,438.76364,64,105,0
438.5425,438.76364,67,105,0
438.77325,438.99442,54,102,0
438.77325,438.99442,63,102,0
439.00403,439.2252,64,100,0
439.00403,439.2252,55,100,0
439.2348,439.45596,60,97,0
439.2348,439.45596,52,97,0
439.70367,439.93185,64,91,0
439.70367,439.93185,61,91,0
439.94177,440.18134,65,89,0
439.94177,440.18134,62,89,0
440.19177,440.43134,61,86,0
440.19177,440.43134,52,86,0
440.44177,440.70312,62,83,0
440.44177,440.70312,53,83,0
440.71448,440.97586,59,81,0
440.71448,440.97586,50,81,0
440.9872,441.2486,60,80,0
440.9872,441.2486,52,80,0
441.25995,441.4811,55,80,0
441.49072,441.71188,52,80,0
441.7215,441.94263,55,80,0
441.95224,442.1734,52,80,0
442.183,442.40417,55,80,0
442.4138,442.63495,52,80,0
442.64456,442.86572,55,80,0
442.87534,443.0965,52,80,0
443.1061,443.32724,55,80,0
443.33685,443.558,52,80,0
443.56763,443.7888,55,80,0
443.7984,444.01956,52,80,0
444.02917,444.25034,55,80,0
444.25995,444.4811,52,80,0
444.49072,444.71185,55,80,0
444.7215,444.94263,52,80,0
444.95224,445.1734,55,80,0
445.183,445.40417,53,80,0
445.183,445.63495,59,80,0
445.4138,445.63495,55,80,0
445.64456,445.86572,53,80,0
445.64456,446.09647,62,80,0
445.87534,446.09647,55,80,0
446.1061,446.32724,53,80,0
446.33685,446.558,55,80,0
446.56763,446.7888,53,80,0
446.1061,447.01956,65,80,0
446.7984,447.01956,55,80,0
447.02917,447.25034,53,80,0
447.02917,447.4811,64,80,0
447.25995,447.4811,55,80,0
447.49072,447.71185,53,80,0
447.49072,447.94263,62,80,0
447.72147,447.94263,55,80,0
447.95224,448.1734,53,80,0
447.95224,448.40417,60,80,0
448.183,448.40417,55,80,0
448.4138,448.63495,53,80,0
448.4138,448.86572,59,80,0
448.64456,448.86572,55,80,0
448.87534,449.09647,53,80,0
448.87534,449.32724,62,80,0
449.10608,449.32724,55,80,0
449.33685,449.558,60,80,0
449.33685,449.558,52,80,0
449.56763,449.7888,55,80,0
449.7984,450.01956,52,80,0
450.02917,450.25034,55,80,0
450.25995,450.48108,52,80,0
450.4907,450.71185,55,80,0
450.72147,450.94263,52,80,0
450.95224,451.1734,55,80,0
451.183,451.40417,52,80,0
451.4138,451.63495,55,80,0
451.64456,451.8657,52,80,0
451.87534,452.09647,55,80,0
452.10608,452.32724,52,80,0
452.33685,452.558,55,80,0
452.56763,452.7888,52,80,0
452.7984,453.01956,55,80,0
453.02917,453.2503,52,80,0
453.25995,453.48108,55,80,0
453.4907,453.71185,53,80,0
453.4907,453.94263,59,80,0
453.72147,453.94263,55,80,0
453.95224,454.1734,53,80,0
453.95224,454.40417,62,80,0
454.183,454.40417,55,80,0
454.4138,454.63495,53,80,0
454.64456,454.8657,55,80,0
454.8753,455.09647,53,80,0
454.4138,455.32724,65,80,0
455.10608,455.32724,55,80,0
455.33685,455.558,53,80,0
455.33685,455.7888,64,80,0
455.56763,455.7888,55,80,0
455.7984,456.01956,53,80,0
455.7984,456.2503,62,80,0
456.02917,456.2503,55,80,0
456.25992,456.48108,53,80,0
456.25992,456.71185,60,80,0
456.4907,456.71185,55,80,0
456.72147,456.94263,53,80,0
456.72147,457.1734,59,80,0
456.95224,457.1734,55,80,0
457.183,457.40417,53,80,0
457.183,457.63492,62,80,0
457.4138,457.63492,55,80,0
457.64453,457.8657,60,80,0
457.64453,457.8657,52,80,0
457.8753,458.09647,55,80,0
458.10608,458.32724,52,80,0
458.33685,458.558,55,80,0
458.56763,458.7888,52,80,0
458.7984,459.01953,55,80,0
459.02917,459.2503,53,80,0
459.02917,459.48108,59,80,0
459.25992,459.48108,55,80,0
459.4907,459.71185,53,80,0
459.72147,459.94263,55,80,0
459.95224,460.1734,53,80,0
460.183,460.40414,55,80,0
460.4138,460.63492,53,80,0
459.4907,460.8657,65,80,0
460.64453,460.8657,55,80,0
460.8753,461.09647,53,80,0
460.8753,461.32724,62,80,0
461.10608,461.32724,55,80,0
461.33685,461.558,53,80,0
461.33685,461.7888,59,80,0
461.56763,461.7888,55,80,0
461.7984,462.01953,60,80,0
461.7984,462.01953,52,80,0
462.02914,462.2503,55,80,0
462.25992,462.48108,52,80,0
462.4907,462.71185,55,80,0
462.72147,462.94263,52,80,0
462.95224,463.1734,55,80,0
463.183,463.40414,53,80,0
463.183,463.63492,59,80,0
463.41376,463.63492,55,80,0
463.64453,463.8657,53,80,0
463.8753,464.09647,55,80,0
464.10608,464.32724,53,80,0
464.33685,464.558,55,80,0
464.56763,464.78876,53,80,0
463.64453,465.01953,65,80,0
464.79837,465.01953,55,80,0
465.02914,465.2503,53,80,0
465.02914,465.2503,64,80,0
465.25992,465.48108,55,80,0
465.25992,465.48108,62,80,0
465.4907,465.71185,53,80,0
465.4907,465.71185,60,80,0
465.72147,465.94263,55,80,0
465.72147,465.94263,59,80,0
466.183,466.63492,53,80,0
466.64453,467.09647,53,80,0
467.10608,467.55798,53,80,0
467.56763,468.01953,53,80,0
468.02914,468.48108,53,80,0
465.95224,468.71185,62,80,0
468.4907,468.94263,53,80,0
468.95224,469.40414,53,80,0
469.18298,469.63492,62,80,0
469.41376,469.8657,53,80,0
469.64453,470.09647,62,80,0
469.8753,470.33792,53,80,0
470.34802,470.8218,53,80,0
470.83188,471.30566,53,80,0
470.10608,471.5476,62,80,0
471.31573,471.5476,53,80,0
471.55768,472.51535,60,80,0
471.55768,472.51535,52,80,0
474.70285,475.17664,55,80,0
475.1867,475.6605,55,80,0
474.4609,475.90244,65,80,0
474.4609,475.90244,62,80,0
475.6706,476.87018,55,80,0
475.9125,476.87018,64,80,0
475.9125,476.87018,60,80,0
479.05768,479.53146,55,80,0
479.54153,480.01535,55,82,0
478.81573,480.25726,69,80,0
478.81573,480.25726,65,80,0
480.02542,480.4992,55,84,0
480.50928,480.9948,55,86,0
481.00516,481.4907,55,87,0
480.26736,481.73862,67,85,0
480.26736,481.73862,64,85,0
481.50104,481.98657,55,89,0
481.9969,482.49902,55,91,0
482.5097,483.0275,55,93,0
481.74896,483.3002,65,90,0
481.74896,483.3002,59,90,0
483.03885,483.3002,55,94,0
483.31158,484.80115,65,95,0
483.31158,484.80115,59,95,0
483.31158,485.05115,55,95,0
484.81158,485.05115,64,80,0
484.81158,485.05115,60,80,0
485.06158,485.30115,59,80,0
485.31158,485.55115,60,80,0
485.56158,485.80115,63,80,0
485.81158,486.05115,64,80,0
486.06158,486.30115,66,80,0
486.31158,486.566,67,80,0
486.57706,486.83148,71,80,0
486.84256,487.097,72,80,0
487.10803,487.36246,75,80,0
487.37354,487.62796,76,80,0
487.639,487.89343,79,80,0
487.90448,489.8906,83,70,0
487.90448,489.8906,77,70,0
489.90448,491.8906,84,70,0
489.90448,491.8906,76,70,0
493.90448,495.22394,72,1,0
0.0,0.43843263,52,80,0
0.447761,0.88619363,55,80,0
0.0,1.3339547,48,80,0
0.895522,1.3339547,60,80,0
1.343283,1.7817156,52,80,0
1.791044,2.2294767,55,80,0
2.238805,2.6772377,60,80,0
2.686566,3.1249986,52,80,0
3.134327,3.5727596,55,80,0
3.582088,4.0205207,60,80,0
4.029849,4.4682817,52,80,0
4.47761,4.916043,55,80,0
4.029849,5.363804,48,80,0
4.925371,5.363804,60,80,0
5.373132,5.8115644,52,80,0
5.820893,6.2593255,55,80,0
6.268654,6.7070866,60,80,0
6.716415,7.1548476,52,80,0
7.164176,7.6026087,55,80,0
7.611937,8.050369,60,80,0
8.059698,8.498131,53,80,0
8.507459,8.945891,55,80,0
8.059698,9.393653,47,80,0
8.95522,9.393653,62,80,0
9.402981,9.8414135,53,80,0
9.850742,10.289175,55,80,0
10.298503,10.736936,62,80,0
10.746264,11.184696,53,80,0
11.194025,11.632458,55,80,0
11.641786,12.080218,62,80,0
12.089547,12.52798,53,80,0
12.537308,12.97574,55,80,0
12.089547,13.423502,47,80,0
12.985069,13.423502,62,80,0
13.43283,13.871263,53,80,0
13.880591,14.319024,55,80,0
14.328352,14.766785,62,80,0
14.776113,15.214545,53,80,0
14.776113,15.662307,43,80,0
15.223874,15.662307,55,80,0
15.671635,16.110067,59,80,0
16.119396,16.557829,52,80,0
16.119396,16.557829,48,80,0
16.567158,17.00559,55,80,0
17.014917,17.45335,60,80,0
17.462679,17.901112,45,80,0
17.91044,18.348873,57,80,0
18.3582,18.796633,60,80,0
18.805962,19.244394,40,80,0
19.253723,19.692156,52,80,0
19.253723,19.692156,55,80,0
19.701485,20.139917,55,80,0
19.701485,20.139917,60,80,0
20.149244,20.587677,41,80,0
20.597006,21.035439,57,80,0
20.597006,21.035439,53,80,0
21.044767,21.4832,57,80,0
21.044767,21.4832,60,80,0
21.492529,21.93096,41,80,0
21.940289,22.378721,53,80,0
21.940289,22.378721,57,80,0
22.38805,22.826483,57,80,0
22.38805,22.826483,61,80,0
22.835812,23.274244,41,80,0
23.283571,23.722004,53,80,0
23.283571,23.722004,57,80,0
23.731333,24.169765,57,80,0
23.731333,24.169765,62,80,0
24.179094,24.617527,43,80,0
24.626856,25.065289,55,80,0
24.626856,25.065289,60,80,0
25.074615,25.513048,60,80,0
25.074615,25.513048,64,80,0
25.522377,25.96081,43,80,0
25.970139,26.408571,55,80,0
25.970139,26.408571,60,80,0
26.417898,26.85633,60,80,0
26.417898,26.85633,64,80,0
26.86566,27.304092,43,80,0
27.313421,27.751854,55,80,0
27.313421,27.751854,62,80,0
27.761183,28.199615,62,80,0
27.761183,28.199615,65,80,0
28.208942,28.647375,48,80,0
28.656704,29.095137,55,80,0
29.104465,29.542898,59,80,0
29.552225,29.997301,60,80,0
29.552225,29.997301,48,80,0
30.006771,30.451847,55,80,0
30.461315,30.906391,54,80,0
30.915861,31.374846,53,80,0
31.384611,31.843596,52,80,0
31.853361,32.342945,50,80,0
32.35336,32.567913,36,80,0
32.4653,32.67985,48,80,0
32.57724,32.791794,50,80,0
32.689182,32.903732,48,80,0
32.80112,33.015675,50,80,0
32.913063,33.127613,48,80,0
33.025,33.239555,50,80,0
33.136944,33.351494,48,80,0
33.248882,33.463436,50,80,0
33.360825,33.575375,48,80,0
33.472763,33.687317,50,80,0
33.584705,33.799255,48,80,0
33.696644,33.911198,50,80,0
33.808586,34.023136,48,80,0
33.920525,34.13508,50,80,0
34.032463,34.247017,48,80,0
34.144405,34.358955,50,80,0
34.256344,34.470898,48,80,0
34.368286,34.582836,50,80,0
34.480225,34.69478,48,80,0
34.592167,34.806717,50,80,0
34.704105,34.91866,48,80,0
34.816048,35.030598,47,80,0
34.927986,35.030598,48,80,0
35.03993,36.26194,52,80,0
36.27127,36.373882,48,80,0
36.38321,36.821644,43,80,0
37.278732,37.717163,60,80,0
37.278732,37.717163,64,80,0
37.726494,38.164925,60,80,0
37.726494,38.164925,64,80,0
38.174255,38.612686,60,80,0
38.174255,38.612686,64,80,0
38.622017,39.060448,60,80,0
38.622017,39.060448,64,80,0
39.069775,39.50821,60,80,0
39.069775,39.50821,64,80,0
39.517536,39.95597,60,80,0
39.517536,39.95597,64,80,0
36.83097,40.403732,55,80,0
39.965298,40.403732,60,80,0
39.965298,40.403732,64,80,0
40.41306,40.62761,43,80,0
40.524998,40.73955,50,80,0
40.63694,40.85149,52,80,0
40.74888,40.963432,50,80,0
40.86082,41.07537,52,80,0
40.97276,41.187313,50,80,0
41.0847,41.29925,52,80,0
41.19664,41.411194,50,80,0
41.308582,41.523132,52,80,0
41.42052,41.635075,50,80,0
41.532463,41.747013,52,80,0
41.6444,41.858955,50,80,0
41.756344,41.970894,52,80,0
41.868282,42.082836,50,80,0
41.98022,42.194775,52,80,0
42.092163,42.306713,50,80,0
42.2041,42.418655,52,80,0
42.316044,42.530594,50,80,0
42.427982,42.642536,52,80,0
42.539925,42.754475,50,80,0
42.651863,42.866417,52,80,0
42.763805,42.978355,50,80,0
42.875744,43.090298,49,80,0
42.987686,43.090298,50,80,0
43.099625,44.32164,53,80,0
44.330967,44.43358,50,80,0
44.44291,44.88134,43,80,0
45.33843,45.776863,62,80,0
45.78619,46.224625,62,80,0
45.78619,46.224625,65,80,0
46.23395,46.672386,62,80,0
46.23395,46.672386,65,80,0
46.681713,47.120144,62,80,0
46.681713,47.120144,65,80,0
47.129475,47.581398,62,80,0
47.129475,47.581398,65,80,0
47.59101,48.042934,62,80,0
47.59101,48.042934,65,80,0
44.89067,48.52255,55,80,0
48.05255,48.52255,62,80,0
48.05255,48.52255,65,80,0
48.53255,48.97098,48,80,0
48.980312,49.418743,55,80,0
48.980312,49.418743,60,80,0
49.428074,49.866505,60,80,0
49.428074,49.866505,64,80,0
49.87583,50.314266,45,80,0
50.323593,50.762028,57,80,0
50.323593,50.762028,60,80,0
50.771355,51.20979,60,80,0
50.771355,51.20979,64,80,0
51.219116,51.657547,43,80,0
51.666878,52.10531,55,80,0
51.666878,52.10531,60,80,0
52.11464,52.55307,60,80,0
52.11464,52.55307,64,80,0
52.5624,53.00083,42,80,0
53.01016,53.448593,57,80,0
53.01016,53.448593,60,80,0
53.45792,53.896355,60,80,0
53.45792,53.896355,62,80,0
53.90568,54.344116,42,80,0
54.353443,54.791874,57,80,0
54.353443,54.791874,60,80,0
54.801205,55.239635,60,80,0
54.801205,55.239635,62,80,0
55.248966,55.687397,43,80,0
55.696728,56.13516,55,80,0
55.696728,56.13516,59,80,0
56.144485,56.58292,59,80,0
56.144485,56.58292,62,80,0
56.592247,57.03068,36,80,0
57.04001,57.478443,48,80,0
57.04001,57.478443,52,80,0
57.48777,57.9262,52,80,0
57.48777,57.9262,57,80,0
57.93553,58.373962,38,80,0
58.383293,58.821724,50,80,0
58.383293,58.821724,55,80,0
58.831055,59.269485,55,80,0
58.831055,59.269485,59,80,0
59.278812,59.717247,38,80,0
59.726574,60.16501,50,80,0
59.726574,60.16501,57,80,0
60.174335,60.61277,57,80,0
60.174335,60.61277,60,80,0
60.622097,61.07402,43,80,0
61.083633,61.535557,55,80,0
61.083633,61.535557,60,80,0
61.545174,62.018963,60,80,0
61.545174,62.018963,62,80,0
62.029045,62.474117,55,80,0
62.029045,62.474117,59,80,0
65.72223,66.211815,63,80,0
66.22223,66.68121,63,80,0
66.69098,67.14996,62,80,0
67.15973,67.61871,63,80,0
67.62848,68.08746,63,80,0
68.09723,68.55621,62,80,0
68.56598,69.02496,63,80,0
69.03473,69.49371,64,80,0
69.50348,69.96246,63,80,0
69.97223,70.43121,64,80,0
70.44098,70.89996,64,80,0
70.90973,71.36871,63,80,0
69.03473,71.83746,57,80,0
71.37848,71.83746,64,80,0
71.84723,72.32102,64,80,0
72.3311,72.80489,65,80,0
71.84723,73.31286,57,80,0
72.81497,73.31286,61,80,0
73.32345,74.83828,61,80,0
73.32345,75.30785,50,80,0
74.84887,75.30785,62,80,0
78.59887,79.05785,61,75,0
79.06762,79.5266,61,76,0
79.53637,79.99535,60,76,0
80.00512,80.4641,61,77,0
80.47387,80.93285,61,78,0
80.94262,81.4016,60,79,0
81.41137,81.87035,61,79,0
81.88012,82.3391,62,80,0
82.34887,82.80785,61,80,0
82.81762,83.2766,62,80,0
83.28637,83.74535,62,80,0
83.75512,84.2141,61,80,0
81.88012,84.68285,55,80,0
84.22387,84.68285,62,80,0
84.69262,85.1516,62,80,0
85.16137,85.62035,64,80,0
84.69262,86.0891,55,80,0
85.63012,86.0891,59,80,0
86.09887,87.49535,60,80,0
87.50512,88.9016,53,80,0
88.91137,90.30785,54,80,0
90.78637,91.24535,55,80,0
91.25512,91.7141,55,80,0
91.72387,92.18285,55,80,0
92.19262,92.6516,55,80,0
92.66137,93.12035,55,80,0
93.13012,93.5891,55,80,0
93.59887,94.05785,55,80,0
90.31762,94.5266,43,80,0
94.06762,94.5266,55,80,0
95.00512,95.4641,55,80,0
95.47387,95.93285,55,80,0
95.94262,96.4016,55,80,0
96.41137,96.87035,55,80,0
96.88012,97.3391,55,80,0
97.34887,97.80785,55,80,0
97.81762,98.2766,55,80,0
94.53637,98.74535,43,80,0
98.28637,98.74535,55,80,0
99.458244,99.68285,47,80,0
99.69262,99.91723,48,80,0
98.75512,100.1516,43,80,0
99.926994,100.1516,51,80,0
99.22387,100.650955,55,80,0
100.16137,100.650955,50,80,0
100.91137,101.150955,47,80,0
101.16137,101.400955,48,80,0
100.16137,101.650955,43,80,0
101.41137,101.650955,45,80,0
100.66137,102.17672,55,80,0
102.45084,102.70304,47,80,0
102.714005,103.0015,48,80,0
101.66137,103.301506,43,80,0
102.18769,103.301506,55,80,0
103.014,103.301506,51,80,0
103.314,105.23013,55,80,0
103.314,105.23013,50,80,0
103.314,105.23013,43,80,0
111.3649,111.80333,52,80,0
111.81265,112.25109,55,80,0
111.3649,112.69885,48,80,0
112.260414,112.69885,60,80,0
112.708176,113.146614,52,80,0
113.15594,113.59437,55,80,0
113.6037,114.04213,60,80,0
114.05146,114.48989,52,80,0
114.49922,114.93765,55,80,0
114.94698,115.385414,60,80,0
115.394745,115.833176,52,80,0
115.84251,116.28094,55,80,0
115.394745,116.7287,48,80,0
116.29027,116.7287,60,80,0
116.73803,117.17646,52,80,0
117.18579,117.62422,55,80,0
117.63355,118.07198,60,80,0
118.08131,118.519745,52,80,0
118.52907,118.96751,55,80,0
118.97683,119.41527,60,80,0
119.42459,119.86302,53,80,0
119.87235,120.31078,55,80,0
119.42459,120.758545,47,80,0
120.320114,120.758545,62,80,0
120.767876,121.20631,53,80,0
121.21564,121.65407,55,80,0
121.6634,122.10183,62,80,0
122.11116,122.54959,53,80,0
122.55892,122.99735,55,80,0
123.00668,123.445114,62,80,0
123.454445,123.892876,53,80,0
123.90221,124.34064,55,80,0
123.454445,124.7884,47,80,0
124.34996,124.7884,62,80,0
124.79772,125.23616,53,80,0
125.24548,125.68392,55,80,0
125.693245,126.13168,62,80,0
126.14101,126.57944,53,80,0
126.58877,127.0272,55,80,0
126.14101,127.47496,43,80,0
127.03653,127.47496,59,80,0
127.48429,127.92272,52,80,0
127.48429,127.92272,48,80,0
127.93205,128.37048,55,80,0
128.3798,128.81825,60,80,0
128.82758,129.266,45,80,0
129.27533,129.71376,57,80,0
129.7231,130.16153,60,80,0
130.17085,130.60928,40,80,0
130.61862,131.05705,52,80,0
130.61862,131.05705,55,80,0
131.06638,131.5048,55,80,0
131.06638,131.5048,60,80,0
131.51414,131.95258,41,80,0
131.9619,132.40033,53,80,0
131.9619,132.40033,57,80,0
132.40967,132.8481,57,80,0
132.40967,132.8481,60,80,0
132.85742,133.29585,41,80,0
133.30519,133.74362,53,80,0
133.30519,133.74362,57,80,0
133.75294,134.19138,57,80,0
133.75294,134.19138,61,80,0
134.2007,134.63914,41,80,0
134.64847,135.0869,53,80,0
134.64847,135.0869,57,80,0
135.09622,135.53467,57,80,0
135.09622,135.53467,62,80,0
135.54399,135.98242,43,80,0
135.99174,136.43018,55,80,0
135.99174,136.43018,60,80,0
136.43951,136.87794,60,80,0
136.43951,136.87794,64,80,0
136.88727,137.3257,43,80,0
137.33504,137.77347,55,80,0
137.33504,137.77347,60,80,0
137.78279,138.22122,60,80,0
137.78279,138.22122,64,80,0
138.23056,138.70435,43,80,0
138.71443,139.18822,55,80,0
138.71443,139.18822,62,80,0
139.1983,139.67209,62,80,0
139.1983,139.67209,65,80,0
139.68216,140.15596,48,80,0
140.16603,140.63983,55,80,0
140.6499,141.1237,59,80,0
141.13377,141.62337,60,80,0
141.13377,141.62337,48,80,0
141.63377,142.12337,55,80,0
142.13377,142.62337,51,80,0
142.63377,143.14912,48,80,0
143.1601,143.67545,43,80,0
143.68642,144.33919,39,80,0
144.35307,144.64058,36,70,0
144.65308,144.91444,39,70,0
144.9258,145.16539,43,70,0
145.1758,145.39696,43,70,0
145.40657,145.61797,43,70,0
145.62717,145.83856,43,70,0
145.84775,146.05914,36,70,0
146.06833,146.27974,39,70,0
146.28893,146.50032,43,70,0
146.5095,146.7209,43,70,0
146.7301,146.9415,43,70,0
146.95068,147.16208,43,70,0
147.17128,147.38268,36,70,0
147.39186,147.60326,39,70,0
147.61246,147.82385,43,70,0
147.83304,148.04443,43,70,0
148.05363,148.26503,43,70,0
148.27422,148.48561,43,70,0
148.4948,148.7062,36,70,0
148.7154,148.92679,39,70,0
148.93597,149.14737,44,70,0
149.15657,149.36797,44,70,0
149.37715,149.58855,44,70,0
149.59775,149.80914,44,70,0
149.81833,150.02972,36,70,0
150.03893,150.25032,39,70,0
150.2595,150.4709,44,70,0
150.4801,150.6915,44,70,0
150.70068,150.91208,44,70,0
150.92126,151.13268,44,70,0
151.14186,151.35326,36,70,0
151.36244,151.57384,39,70,0
151.58304,151.79443,44,70,0
151.80362,152.01501,44,70,0
152.02422,152.23561,44,70,0
152.2448,152.45619,44,70,0
152.4654,152.67679,37,70,0
152.68597,152.89737,41,70,0
152.90657,153.11797,44,70,0
153.12715,153.33855,44,70,0
153.34773,153.55914,44,70,0
153.56833,153.77972,44,70,0
153.78891,154.0003,37,70,0
154.0095,154.2209,41,70,0
154.23009,154.44148,44,70,0
154.45068,154.66208,44,70,0
154.67126,154.88266,44,70,0
154.89186,155.10326,44,70,0
155.11244,155.32384,37,70,0
155.33304,155.54443,41,70,0
155.55362,155.76501,45,70,0
155.7742,155.98561,45,70,0
155.9948,156.20619,45,70,0
156.21538,156.42677,45,70,0
156.43597,156.64737,37,70,0
156.65656,156.86795,41,72,0
156.87715,157.08855,46,74,0
157.09773,157.30913,46,77,0
157.31833,157.52972,46,79,0
157.53891,157.7503,46,81,0
157.7595,157.9709,37,84,0
157.98009,158.19148,41,86,0
158.20067,158.41208,46,88,0
158.42126,158.63266,46,91,0
158.64185,158.85324,46,93,0
158.86244,159.07384,46,95,0
159.08302,159.29442,38,98,0
159.30362,159.51501,41,100,0
159.5242,159.7356,46,102,0
159.7448,159.95619,46,105,0
159.96538,160.17677,46,107,0
160.18597,160.39737,46,109,0
160.40656,160.61795,39,110,0
160.62714,160.83855,46,110,0
160.84773,161.05913,49,110,0
161.06831,161.27972,49,110,0
161.28891,161.5003,49,110,0
161.50949,161.72089,49,110,0
161.73009,161.94148,40,110,0
161.95067,162.16206,46,110,0
162.17126,162.38266,52,110,0
162.39185,162.60324,52,110,0
162.61244,162.82384,52,110,0
162.83302,163.04442,52,110,0
163.0536,163.26501,41,110,0
163.2742,163.4856,44,110,0
163.49478,163.70619,53,110,0
163.71538,163.92677,53,110,0
163.93596,164.14735,53,110,0
164.15656,164.36795,53,110,0
164.37714,164.58853,37,110,0
164.59773,164.80913,49,109,0
164.81831,165.02971,53,108,0
165.03891,165.2503,53,107,0
165.25949,165.47089,53,106,0
165.48009,165.69148,53,105,0
165.70067,165.91206,39,103,0
165.92125,166.13266,48,102,0
166.14185,166.35324,51,101,0
166.36243,166.57382,51,100,0
166.58302,166.79442,51,99,0
166.8036,167.015,51,98,0
167.0242,167.2356,39,96,0
167.24478,167.45618,46,95,0
167.46538,167.67677,49,94,0
167.68596,167.89735,49,93,0
167.90656,168.11795,49,92,0
168.12714,168.33853,49,91,0
168.34772,168.54738,44,110,0
168.34772,168.54738,32,110,0
168.55606,168.7557,56,80,0
168.76439,168.96405,56,80,0
168.97272,169.17238,56,80,0
169.18106,169.3807,56,80,0
169.38939,169.58905,56,80,0
169.59772,169.79738,56,80,0
169.80606,170.0057,56,80,0
170.01439,170.21404,56,80,0
170.22272,170.42238,56,80,0
170.43106,170.6307,56,80,0
170.63939,170.83904,56,80,0
170.84772,171.04738,56,80,0
171.05606,171.2557,56,80,0
171.26439,171.46404,56,80,0
171.47272,171.67238,56,80,0
171.68106,171.8807,56,80,0
171.88939,172.08904,56,80,0
172.09772,172.29738,63,80,0
172.09772,172.29738,60,80,0
172.09772,172.29738,56,80,0
172.30606,172.5057,63,80,0
172.30606,172.5057,60,80,0
172.30606,172.5057,56,80,0
172.51439,172.71404,63,80,0
172.51439,172.71404,60,80,0
172.51439,172.71404,56,80,0
172.72272,172.92238,63,80,0
172.72272,172.92238,60,80,0
172.72272,172.92238,56,80,0
172.93106,173.1307,63,80,0
172.93106,173.1307,60,80,0
172.93106,173.1307,56,80,0
173.13939,173.33904,63,80,0
173.13939,173.33904,60,80,0
173.13939,173.33904,56,80,0
173.34772,173.54738,63,80,0
173.34772,173.54738,60,80,0
173.34772,173.54738,56,80,0
173.55606,173.7557,63,80,0
173.55606,173.7557,60,80,0
173.55606,173.7557,56,80,0
173.76439,173.96404,63,80,0
173.76439,173.96404,60,80,0
173.76439,173.96404,56,80,0
173.97272,174.17238,63,80,0
173.97272,174.17238,60,80,0
173.97272,174.17238,56,80,0
174.18106,174.3807,63,80,0
174.18106,174.3807,60,80,0
174.18106,174.3807,56,80,0
174.38939,174.58904,63,80,0
174.38939,174.58904,60,80,0
174.38939,174.58904,56,80,0
174.59772,174.79738,63,80,0
174.59772,174.79738,60,80,0
174.59772,174.79738,56,80,0
174.80606,175.0057,63,80,0
174.80606,175.0057,60,80,0
174.80606,175.0057,56,80,0
175.01439,175.21404,63,80,0
175.01439,175.21404,60,80,0
175.01439,175.21404,56,80,0
175.22272,175.42238,63,80,0
175.22272,175.42238,60,80,0
175.22272,175.42238,56,80,0
175.43106,175.6307,63,80,0
175.43106,175.6307,60,80,0
175.43106,175.6307,56,80,0
175.63939,175.83904,63,80,0
175.63939,175.83904,60,80,0
175.63939,175.83904,56,80,0
175.84772,176.04738,63,80,0
175.84772,176.04738,61,80,0
175.84772,176.04738,58,80,0
179.59772,179.64113,55,80,0
179.6498,179.6932,56,80,0
179.70189,179.79738,58,80,0
179.80605,179.90154,56,80,0
180.01439,180.10988,55,80,0
180.22272,180.3182,53,80,0
180.43105,180.52654,51,80,0
180.63939,180.73488,49,80,0
180.84772,180.9432,48,80,0
181.05605,181.15154,46,80,0
181.26439,181.35988,44,80,0
181.47272,181.5682,43,80,0
181.68105,181.77654,41,80,0
181.88939,181.98488,39,80,0
182.09772,182.1932,38,80,0
182.30605,182.40154,39,80,0
182.51439,182.60986,41,80,0
182.72272,182.8182,39,80,0
182.93105,183.02654,43,80,0
183.13939,183.23486,39,80,0
183.34772,183.54736,44,110,0
183.34772,183.54736,32,110,0
183.55605,183.7557,56,80,0
183.76439,183.96404,56,80,0
183.97272,184.17236,56,80,0
184.18105,184.3807,56,80,0
184.38939,184.58904,56,80,0
184.59772,184.79736,56,80,0
184.80605,185.0057,56,80,0
185.01439,185.21404,56,80,0
185.22272,185.42236,56,80,0
185.43105,185.6307,56,80,0
185.63939,185.83904,56,80,0
185.84772,186.04736,56,80,0
186.05605,186.2557,56,80,0
186.26439,186.46404,56,80,0
186.47272,186.67236,56,80,0
186.68105,186.8807,56,80,0
186.88939,187.08904,56,80,0
187.09772,187.29736,60,80,0
187.09772,187.29736,56,80,0
187.09772,187.29736,53,80,0
187.30605,187.5057,60,80,0
187.30605,187.5057,56,80,0
187.30605,187.5057,53,80,0
187.51439,187.71404,60,80,0
187.51439,187.71404,56,80,0
187.51439,187.71404,53,80,0
187.72272,187.92236,60,80,0
187.72272,187.92236,56,80,0
187.72272,187.92236,53,80,0
187.93105,188.1307,60,80,0
187.93105,188.1307,56,80,0
187.93105,188.1307,53,80,0
188.13939,188.33904,60,80,0
188.13939,188.33904,56,80,0
188.13939,188.33904,53,80,0
188.34772,188.54736,60,80,0
188.34772,188.54736,56,80,0
188.34772,188.54736,53,80,0
188.55605,188.7557,60,80,0
188.55605,188.7557,56,80,0
188.55605,188.7557,53,80,0
188.76439,188.96404,60,80,0
188.76439,188.96404,56,80,0
188.76439,188.96404,53,80,0
188.97272,189.17236,60,80,0
188.97272,189.17236,56,80,0
188.97272,189.17236,53,80,0
189.18105,189.3807,60,80,0
189.18105,189.3807,56,80,0
189.18105,189.3807,53,80,0
189.38939,189.58904,60,80,0
189.38939,189.58904,56,80,0
189.38939,189.58904,53,80,0
189.59772,189.79736,60,80,0
189.59772,189.79736,56,80,0
189.59772,189.79736,53,80,0
189.80605,190.0057,60,80,0
189.80605,190.0057,56,80,0
189.80605,190.0057,53,80,0
190.01439,190.21404,60,80,0
190.01439,190.21404,56,80,0
190.01439,190.21404,53,80,0
190.22272,190.42236,60,80,0
190.22272,190.42236,56,80,0
190.22272,190.42236,53,80,0
190.43105,190.6307,60,80,0
190.43105,190.6307,56,80,0
190.43105,190.6307,53,80,0
190.63939,190.83904,60,80,0
190.63939,190.83904,56,80,0
190.63939,190.83904,53,80,0
190.84772,191.04736,60,80,0
190.84772,191.04736,58,80,0
190.84772,191.04736,55,80,0
194.59772,194.64111,52,80,0
194.59772,194.64111,53,80,0
194.70187,194.79736,55,80,0
194.80605,194.90154,53,80,0
195.01437,195.10986,52,80,0
195.22272,195.31819,49,80,0
195.43105,195.52654,48,80,0
195.63937,195.73486,46,80,0
195.84772,195.94319,44,80,0
196.05605,196.15154,43,80,0
196.26437,196.35986,41,80,0
196.47272,196.56819,40,80,0
196.68105,196.77654,37,80,0
196.88937,196.98486,36,80,0
197.09772,197.19319,35,80,0
197.30605,197.40154,36,80,0
197.51437,197.60986,37,80,0
197.72272,197.81819,36,80,0
197.93105,198.02654,40,80,0
198.13937,198.23486,36,80,0
198.34772,198.54736,53,80,0
198.34772,198.54736,41,80,0
198.55605,198.75569,53,80,0
198.76437,198.96404,53,80,0
198.97272,199.17236,53,80,0
199.18105,199.38069,53,80,0
199.38937,199.58904,53,80,0
199.59772,199.79736,61,80,0
199.59772,199.79736,53,80,0
199.59772,199.79736,56,80,0
199.80605,200.00569,61,80,0
199.80605,200.00569,56,80,0
199.80605,200.00569,53,80,0
200.01437,200.21404,61,80,0
200.01437,200.21404,53,80,0
200.01437,200.21404,56,80,0
200.22272,200.42236,61,80,0
200.22272,200.42236,56,80,0
200.22272,200.42236,53,80,0
200.43105,200.63069,61,80,0
200.43105,200.63069,53,80,0
200.43105,200.63069,56,80,0
200.63937,200.83904,61,80,0
200.63937,200.83904,56,80,0
200.63937,200.83904,53,80,0
200.84772,201.04736,51,80,0
201.05605,201.25569,51,80,0
201.26437,201.46404,51,80,0
201.47272,201.67236,51,80,0
201.68105,201.88069,51,80,0
201.88937,202.08904,51,80,0
202.09772,202.29736,50,80,0
202.09772,202.29736,38,80,0
202.30605,202.50569,50,80,0
202.51437,202.71404,50,80,0
202.72272,202.92236,50,80,0
202.93105,203.13069,50,80,0
203.13937,203.33904,50,80,0
203.34772,203.54736,53,80,0
203.34772,203.54736,50,80,0
203.34772,203.54736,59,80,0
203.55605,203.75569,59,80,0
203.55605,203.75569,53,80,0
203.55605,203.75569,50,80,0
203.76437,203.96404,53,80,0
203.76437,203.96404,50,80,0
203.76437,203.96404,59,80,0
203.9727,204.17236,59,80,0
203.9727,204.17236,53,80,0
203.9727,204.17236,50,80,0
204.18105,204.38069,53,80,0
204.18105,204.38069,50,80,0
204.18105,204.38069,59,80,0
204.38937,204.58904,59,80,0
204.38937,204.58904,53,80,0
204.38937,204.58904,50,80,0
204.5977,204.79736,48,80,0
204.80605,205.00569,48,80,0
205.01437,205.21404,48,80,0
205.2227,205.42236,48,80,0
205.43105,205.63069,48,80,0
205.63937,205.83904,48,80,0
205.8477,206.04736,47,80,0
205.8477,206.04736,35,80,0
206.05605,206.25569,47,80,0
206.26437,206.46404,47,80,0
206.4727,206.67236,47,80,0
206.68105,206.88069,47,80,0
206.88937,207.08904,47,80,0
207.0977,207.29736,55,80,0
207.0977,207.29736,50,80,0
207.0977,207.29736,47,80,0
207.30605,207.50569,55,80,0
207.30605,207.50569,50,80,0
207.30605,207.50569,47,80,0
207.51437,207.71404,55,80,0
207.51437,207.71404,50,80,0
207.51437,207.71404,47,80,0
207.7227,207.92236,55,80,0
207.7227,207.92236,50,80,0
207.7227,207.92236,47,80,0
207.93105,208.13069,55,80,0
207.93105,208.13069,50,80,0
207.93105,208.13069,47,80,0
208.13937,208.33902,55,80,0
208.13937,208.33902,50,80,0
208.13937,208.33902,47,80,0
208.3477,208.54736,55,80,0
208.3477,208.54736,51,80,0
208.3477,208.54736,48,80,0
208.55605,208.75569,55,80,0
208.55605,208.75569,51,80,0
208.55605,208.75569,48,80,0
208.76437,208.96402,55,80,0
208.76437,208.96402,51,80,0
208.76437,208.96402,48,80,0
208.9727,209.17236,55,80,0
208.9727,209.17236,51,80,0
208.9727,209.17236,48,80,0
209.18105,209.38069,55,80,0
209.18105,209.38069,51,80,0
209.18105,209.38069,48,80,0
209.38937,209.58902,55,80,0
209.38937,209.58902,51,80,0
209.38937,209.58902,48,80,0
209.5977,209.79736,41,80,0
209.80605,210.00569,53,81,0
209.80605,210.00569,56,81,0
209.80605,210.00569,61,81,0
210.01437,210.21402,61,83,0
210.01437,210.21402,56,83,0
210.01437,210.21402,53,83,0
210.2227,210.42236,61,85,0
210.2227,210.42236,56,85,0
210.2227,210.42236,53,85,0
210.43105,210.63069,61,86,0
210.43105,210.63069,56,86,0
210.43105,210.63069,53,86,0
210.63937,210.83902,61,88,0
210.63937,210.83902,56,88,0
210.63937,210.83902,53,88,0
210.8477,211.04736,41,90,0
211.05605,211.25569,53,92,0
211.05605,211.25569,56,92,0
211.05605,211.25569,61,92,0
211.26437,211.46402,61,93,0
211.26437,211.46402,56,93,0
211.26437,211.46402,53,93,0
211.4727,211.67236,61,95,0
211.4727,211.67236,56,95,0
211.4727,211.67236,53,95,0
211.68105,211.88069,61,97,0
211.68105,211.88069,56,97,0
211.68105,211.88069,53,97,0
211.88937,212.08902,61,98,0
211.88937,212.08902,56,98,0
211.88937,212.08902,53,98,0
212.0977,212.29736,42,100,0
212.30605,212.50569,60,102,0
212.30605,212.50569,57,102,0
212.30605,212.50569,54,102,0
212.51437,212.71402,60,104,0
212.51437,212.71402,57,104,0
212.51437,212.71402,54,104,0
212.7227,212.92236,60,105,0
212.7227,212.92236,57,105,0
212.7227,212.92236,54,105,0
212.93105,213.13069,60,107,0
212.93105,213.13069,57,107,0
212.93105,213.13069,54,107,0
213.13937,213.33902,60,109,0
213.13937,213.33902,57,109,0
213.13937,213.33902,54,109,0
213.3477,213.54736,43,110,0
213.55605,213.75569,47,80,0
213.76437,213.96402,50,80,0
213.9727,214.17236,55,80,0
214.18105,214.38069,59,80,0
214.38937,214.58902,62,80,0
214.5977,215.00569,67,80,0
215.01437,215.42236,66,80,0
215.43105,215.83902,67,80,0
215.8477,216.67236,68,80,0
216.68103,217.08902,66,80,0
217.0977,217.29736,43,80,0
217.30603,217.50569,47,80,0
217.51437,217.71402,50,80,0
217.7227,217.92236,55,80,0
217.93103,218.13069,59,80,0
218.13937,218.33902,62,80,0
218.3477,218.75569,67,80,0
218.76437,219.17236,66,80,0
219.18103,219.58902,67,80,0
219.5977,220.42236,68,80,0
220.43103,221.67235,66,80,0
220.8477,222.08902,55,80,0
221.26437,222.50569,65,80,0
222.0977,223.33902,55,80,0
222.51437,223.75569,64,80,0
223.3477,224.58902,55,80,0
224.18103,224.58902,63,80,0
224.5977,225.42235,62,80,0
224.5977,225.42235,55,80,0
225.8477,226.67235,62,79,0
225.8477,226.67235,55,79,0
227.0977,227.9459,60,76,0
227.0977,227.9459,55,76,0
228.3834,229.23163,55,73,0
228.3834,229.23163,43,73,0
229.66913,230.54228,43,70,0
229.66913,230.54228,31,70,0
230.99266,231.89227,43,67,0
230.99266,231.89227,31,67,0
232.38562,232.8594,43,65,0
232.38562,233.32141,31,65,0
232.86949,233.32141,43,65,0
233.33102,233.78294,43,65,0
233.79256,234.24448,43,65,0
234.2541,234.70602,43,65,0
234.71564,235.16756,43,65,0
235.17717,235.6291,43,65,0
235.63872,236.09064,43,65,0
236.10025,236.55217,43,65,0
236.10025,236.55217,30,65,0
236.56178,237.01372,43,65,0
236.56178,237.47525,31,65,0
237.02333,237.47525,43,65,0
237.48486,237.93678,43,65,0
237.9464,238.39833,43,65,0
238.40794,238.85986,43,65,0
238.86948,239.3214,43,65,0
239.33102,239.78294,43,65,0
239.79256,240.24448,43,65,0
240.25409,240.70601,43,65,0
240.25409,240.70601,30,65,0
240.71564,241.16756,43,65,0
240.71564,241.62909,31,65,0
241.17717,241.62909,43,65,0
241.6387,242.09064,43,65,0
242.10025,242.55217,43,65,0
242.56178,243.0137,43,65,0
243.02332,243.47525,43,65,0
243.48486,243.93678,43,65,0
243.9464,244.39832,43,65,0
244.40793,244.85986,43,65,0
244.40793,244.85986,54,65,0
244.86948,245.3214,43,65,0
244.86948,245.78293,55,65,0
245.33101,245.78293,55,65,0
245.79256,246.24448,55,65,0
246.25409,246.70601,55,65,0
246.71562,247.16754,55,65,0
247.17717,247.62909,55,65,0
247.6387,248.09062,55,65,0
248.10023,248.55215,55,65,0
248.56178,249.0137,55,65,0
249.02332,249.47523,55,65,0
249.48485,249.93678,55,65,0
249.9464,250.39832,55,65,0
250.40793,250.85985,55,65,0
250.86946,251.3214,55,65,0
251.33101,251.78293,55,65,0
251.79254,252.24446,55,65,0
252.25407,252.70601,55,65,0
252.71562,253.16754,55,65,0
253.17715,253.62907,55,65,0
253.6387,254.09062,55,65,0
254.10023,254.55215,55,65,0
254.56177,255.01369,55,65,0
255.02332,255.47523,43,65,0
255.48485,255.93677,43,65,0
255.94638,256.39832,43,65,0
256.40793,256.85983,43,65,0
256.86948,257.32138,43,65,0
257.79254,258.0137,45,67,0
258.02332,258.24445,47,69,0
258.2541,258.47522,48,70,0
258.48483,258.706,50,72,0
258.7156,258.93677,52,73,0
258.94638,259.16754,53,75,0
259.17715,259.39832,55,76,0
257.331,259.62906,43,65,0
259.40793,259.62906,57,78,0
259.6387,259.85983,59,79,0
259.86945,260.0906,60,81,0
260.10022,260.3284,62,82,0
260.33832,260.5665,64,84,0
260.57642,260.816,65,85,0
260.82642,261.066,61,87,0
261.07642,261.33777,62,88,0
260.10022,261.6105,55,82,0
261.34915,261.6105,62,89,0
261.62186,261.82724,48,70,0
261.62186,261.82724,52,70,0
261.83615,262.0415,55,70,0
261.83615,262.0415,52,70,0
262.05045,262.2558,60,70,0
262.05045,262.2558,55,70,0
262.26474,262.4701,55,70,0
262.26474,262.4701,52,70,0
262.479,262.68436,52,70,0
262.479,262.68436,48,70,0
262.6933,262.89865,55,70,0
262.6933,262.89865,52,70,0
262.9076,263.11295,48,70,0
262.9076,263.11295,52,70,0
263.12186,263.32724,55,70,0
263.12186,263.32724,52,70,0
263.33615,263.5415,60,70,0
263.33615,263.5415,55,70,0
263.55045,263.7558,55,70,0
263.55045,263.7558,52,70,0
263.76474,263.9701,52,70,0
263.76474,263.9701,48,70,0
263.979,264.18436,55,70,0
263.979,264.18436,52,70,0
264.1933,264.39865,48,70,0
264.1933,264.39865,52,70,0
264.4076,264.61295,55,70,0
264.4076,264.61295,52,70,0
264.62186,264.82724,60,70,0
264.62186,264.82724,55,70,0
264.83615,265.0415,55,70,0
264.83615,265.0415,52,70,0
265.05045,265.2558,52,70,0
265.05045,265.2558,48,70,0
265.26474,265.4701,55,70,0
265.26474,265.4701,52,70,0
265.479,265.68436,48,70,0
265.479,265.68436,52,70,0
265.6933,265.89865,55,70,0
265.6933,265.89865,52,70,0
265.9076,266.11295,60,70,0
265.9076,266.11295,55,70,0
266.12186,266.3272,55,70,0
266.12186,266.3272,52,70,0
266.33615,266.5415,52,70,0
266.33615,266.5415,48,70,0
266.55045,266.7558,55,70,0
266.55045,266.7558,52,70,0
266.7647,266.9701,48,70,0
266.7647,266.9701,52,70,0
266.979,267.18436,55,70,0
266.979,267.18436,52,70,0
267.1933,267.39865,60,70,0
267.1933,267.39865,55,70,0
267.4076,267.61295,55,70,0
267.4076,267.61295,52,70,0
267.62186,267.8272,52,70,0
267.62186,267.8272,48,70,0
267.83615,268.0415,55,70,0
267.83615,268.0415,52,70,0
268.05045,268.2558,48,70,0
268.05045,268.2558,52,70,0
268.2647,268.4701,55,70,0
268.2647,268.4701,52,70,0
268.479,268.68436,60,70,0
268.479,268.68436,55,70,0
268.6933,268.89865,55,70,0
268.6933,268.89865,52,70,0
268.9076,269.11295,52,70,0
268.9076,269.11295,48,70,0
269.12186,269.3272,55,70,0
269.12186,269.3272,52,70,0
269.33615,269.5415,53,70,0
269.33615,269.5415,47,70,0
269.55045,269.7558,55,70,0
269.55045,269.7558,53,70,0
269.7647,269.9701,55,70,0
269.7647,269.9701,62,70,0
269.979,270.18436,55,70,0
269.979,270.18436,53,70,0
270.1933,270.39865,53,70,0
270.1933,270.39865,47,70,0
270.40756,270.61295,55,70,0
270.40756,270.61295,53,70,0
270.62186,270.8272,53,70,0
270.62186,270.8272,47,70,0
270.83615,271.0415,55,70,0
270.83615,271.0415,53,70,0
271.05045,271.2558,55,70,0
271.05045,271.2558,62,70,0
271.2647,271.47006,55,70,0
271.2647,271.47006,53,70,0
271.479,271.68436,53,70,0
271.479,271.68436,47,70,0
271.6933,271.89865,55,70,0
271.6933,271.89865,53,70,0
271.90756,272.11295,53,70,0
271.90756,272.11295,47,70,0
272.12186,272.3272,55,70,0
272.12186,272.3272,53,70,0
272.33615,272.5415,55,70,0
272.33615,272.5415,62,70,0
272.55045,272.7558,55,70,0
272.55045,272.7558,53,70,0
272.7647,272.97006,53,70,0
272.7647,272.97006,47,70,0
272.979,273.18436,55,70,0
272.979,273.18436,53,70,0
273.1933,273.39865,53,70,0
273.1933,273.39865,47,70,0
273.40756,273.61295,55,70,0
273.40756,273.61295,53,70,0
273.62186,273.8272,55,70,0
273.62186,273.8272,62,70,0
273.83615,274.0415,55,70,0
273.83615,274.0415,53,70,0
274.05045,274.2558,53,70,0
274.05045,274.2558,47,70,0
274.2647,274.47006,55,70,0
274.2647,274.47006,53,70,0
274.479,274.68436,53,70,0
274.479,274.68436,47,70,0
274.6933,274.89865,55,70,0
274.6933,274.89865,53,70,0
274.90756,275.1129,55,70,0
274.90756,275.1129,62,70,0
275.12186,275.3272,55,70,0
275.12186,275.3272,53,70,0
275.33615,275.5415,53,70,0
275.33615,275.5415,47,70,0
275.5504,275.7558,55,70,0
275.5504,275.7558,53,70,0
275.7647,275.97006,53,70,0
275.7647,275.97006,43,70,0
275.979,276.18436,55,70,0
275.979,276.18436,53,70,0
276.1933,276.39865,55,70,0
276.1933,276.39865,59,70,0
276.40756,276.6129,55,70,0
276.40756,276.6129,53,70,0
276.62186,276.8272,53,70,0
276.62186,276.8272,43,70,0
276.83615,277.0415,55,70,0
276.83615,277.0415,53,70,0
277.0504,277.2558,48,80,0
277.2647,277.47006,55,80,0
277.479,277.68436,60,80,0
277.6933,277.89865,55,80,0
277.90756,278.1129,52,80,0
278.12186,278.3272,48,80,0
278.33615,278.5415,45,80,0
278.5504,278.7558,57,80,0
278.7647,278.97006,60,80,0
278.979,279.18436,57,80,0
279.19327,279.39865,53,80,0
279.40756,279.6129,48,80,0
279.62186,279.8272,40,80,0
279.83615,280.0415,55,80,0
280.0504,280.25577,60,80,0
280.2647,280.47006,55,80,0
280.479,280.68436,52,80,0
280.69327,280.89865,48,80,0
280.90756,281.1129,41,80,0
281.12186,281.3272,53,80,0
281.12186,281.3272,57,80,0
281.33615,281.5415,57,80,0
281.33615,281.5415,60,80,0
281.5504,281.75577,53,80,0
281.5504,281.75577,57,80,0
281.7647,281.97006,60,80,0
281.7647,281.97006,57,80,0
281.979,282.18436,57,80,0
281.979,282.18436,53,80,0
282.19327,282.39865,41,80,0
282.40756,282.6129,53,80,0
282.40756,282.6129,57,80,0
282.62186,282.8272,57,80,0
282.62186,282.8272,61,80,0
282.83615,283.0415,53,80,0
282.83615,283.0415,57,80,0
283.0504,283.25577,61,80,0
283.0504,283.25577,57,80,0
283.2647,283.47006,57,80,0
283.2647,283.47006,53,80,0
283.479,283.68436,41,80,0
283.69327,283.89862,53,80,0
283.69327,283.89862,57,80,0
283.90756,284.1129,57,80,0
283.90756,284.1129,62,80,0
284.12186,284.3272,53,80,0
284.12186,284.3272,57,80,0
284.33612,284.5415,57,80,0
284.33612,284.5415,62,80,0
284.5504,284.75577,57,80,0
284.5504,284.75577,53,80,0
284.7647,284.97006,43,80,0
284.979,285.18436,55,80,0
284.979,285.18436,60,80,0
285.19327,285.39862,60,80,0
285.19327,285.39862,64,80,0
285.40756,285.6129,55,80,0
285.40756,285.6129,60,80,0
285.62186,285.8272,60,80,0
285.62186,285.8272,64,80,0
285.83612,286.0415,55,80,0
285.83612,286.0415,60,80,0
286.0504,286.25577,43,80,0
286.2647,286.47006,55,80,0
286.2647,286.47006,60,80,0
286.479,286.68436,60,80,0
286.479,286.68436,64,80,0
286.69327,286.89862,55,80,0
286.69327,286.89862,60,80,0
286.90756,287.1129,60,80,0
286.90756,287.1129,64,80,0
287.12186,287.3272,55,80,0
287.12186,287.3272,60,80,0
287.33612,287.5415,43,80,0
287.5504,287.75577,55,80,0
287.5504,287.75577,62,80,0
287.7647,287.97006,62,80,0
287.7647,287.97006,65,80,0
287.97897,288.18436,55,80,0
287.97897,288.18436,62,80,0
288.19327,288.39862,62,80,0
288.19327,288.39862,65,80,0
288.40756,288.6129,55,80,0
288.40756,288.6129,62,80,0
288.62186,288.8272,48,80,0
288.83612,289.04147,55,80,0
289.0504,289.25577,59,80,0
289.2647,289.47006,55,80,0
289.47897,289.68436,59,80,0
289.69327,289.89862,55,80,0
289.90756,290.1129,60,80,0
289.90756,290.1129,48,80,0
290.12186,290.3272,55,80,0
290.33612,290.5643,54,80,0
290.57422,290.8024,55,80,0
290.81232,291.0405,57,80,0
291.0504,291.2786,55,80,0
291.2885,291.4999,53,80,0
291.5091,291.7205,52,80,0
291.72968,291.94748,55,80,0
291.95697,292.17477,53,80,0
292.18423,292.40884,52,80,0
292.4186,292.64322,50,80,0
292.65298,292.85834,36,80,0
292.76013,292.96548,48,80,0
292.86728,293.07263,50,80,0
292.9744,293.17978,48,80,0
293.08154,293.2869,50,80,0
293.1887,293.39404,48,80,0
293.29584,293.5012,50,80,0
293.40298,293.60834,48,80,0
293.51013,293.71548,50,80,0
293.61728,293.82263,48,80,0
293.7244,293.92978,50,80,0
293.83154,294.0369,48,80,0
293.9387,294.14404,50,80,0
294.04584,294.2512,48,80,0
294.15298,294.35834,50,80,0
294.26013,294.46548,48,80,0
294.36725,294.57263,50,80,0
294.4744,294.67975,48,80,0
294.58154,294.7869,50,80,0
294.6887,294.89404,48,80,0
294.79584,295.0012,50,80,0
294.90298,295.10834,48,80,0
295.01013,295.21548,47,80,0
295.11725,295.21548,48,80,0
295.2244,296.39404,52,80,0
296.40298,296.5012,48,80,0
296.51013,296.71548,43,80,0
296.7244,296.92975,60,80,0
296.7244,296.92975,55,80,0
296.9387,297.14404,60,80,0
296.9387,297.14404,64,80,0
297.15298,297.35834,60,80,0
297.15298,297.35834,55,80,0
297.36725,297.57263,60,80,0
297.36725,297.57263,64,80,0
297.58154,297.7869,60,80,0
297.58154,297.7869,55,80,0
297.79584,298.0012,60,80,0
297.79584,298.0012,64,80,0
298.01013,298.21548,60,80,0
298.01013,298.21548,55,80,0
298.2244,298.42975,60,80,0
298.2244,298.42975,64,80,0
298.4387,298.64404,60,80,0
298.4387,298.64404,55,80,0
298.65298,298.85834,60,80,0
298.65298,298.85834,64,80,0
298.86725,299.0726,60,80,0
298.86725,299.0726,55,80,0
299.08154,299.2869,60,80,0
299.08154,299.2869,64,80,0
299.29584,299.5012,60,80,0
299.29584,299.5012,55,80,0
299.5101,299.71548,60,80,0
299.5101,299.71548,64,80,0
299.7244,299.92975,60,80,0
299.7244,299.92975,55,80,0
299.9387,300.14404,60,80,0
299.9387,300.14404,64,80,0
300.15298,300.35834,60,80,0
300.15298,300.35834,55,80,0
300.36725,300.5726,43,80,0
300.4744,300.67975,50,80,0
300.58154,300.7869,52,80,0
300.6887,300.89404,50,80,0
300.79584,301.0012,52,80,0
300.90298,301.10834,50,80,0
301.0101,301.21548,52,80,0
301.11725,301.3226,50,80,0
301.2244,301.42975,52,80,0
301.33154,301.5369,50,80,0
301.4387,301.64404,52,80,0
301.54584,301.7512,50,80,0
301.65298,301.85834,52,80,0
301.7601,301.96548,50,80,0
301.86725,302.0726,52,80,0
301.9744,302.17975,50,80,0
302.08154,302.2869,52,80,0
302.1887,302.39404,50,80,0
302.29584,302.5012,52,80,0
302.40298,302.60834,50,80,0
302.5101,302.71548,52,80,0
302.61725,302.8226,50,80,0
302.7244,302.92975,49,80,0
302.83154,302.92975,50,80,0
302.9387,304.10834,53,80,0
304.11725,304.21545,50,80,0
304.2244,304.42975,43,70,0
304.4387,304.64404,55,70,0
304.4387,304.64404,62,70,0
304.65295,304.85834,62,70,0
304.65295,304.85834,65,70,0
304.86725,305.0726,62,70,0
304.86725,305.0726,55,70,0
305.08154,305.2869,62,70,0
305.08154,305.2869,65,70,0
305.29584,305.5012,62,70,0
305.29584,305.5012,55,70,0
305.5101,305.71545,62,70,0
305.5101,305.71545,65,70,0
305.7244,305.92975,62,70,0
305.7244,305.92975,55,70,0
305.9387,306.14404,62,70,0
305.9387,306.14404,65,70,0
306.15295,306.35834,62,70,0
306.15295,306.35834,55,70,0
306.36725,306.5726,62,70,0
306.36725,306.5726,65,70,0
306.58154,306.7869,62,70,0
306.58154,306.7869,55,70,0
306.79584,307.0012,62,70,0
306.79584,307.0012,65,70,0
307.0101,307.21545,62,70,0
307.0101,307.21545,55,70,0
307.2244,307.42975,62,70,0
307.2244,307.42975,65,70,0
307.4387,307.64404,62,70,0
307.4387,307.64404,55,70,0
307.65295,307.8583,62,70,0
307.65295,307.8583,59,70,0
307.86725,308.0726,55,70,0
307.86725,308.0726,59,70,0
308.08154,308.2869,48,70,0
308.2958,308.5012,55,70,0
308.2958,308.5012,60,70,0
308.5101,308.71545,60,70,0
308.5101,308.71545,64,70,0
308.7244,308.92975,55,70,0
308.7244,308.92975,60,70,0
308.9387,309.14404,64,70,0
308.9387,309.14404,60,70,0
309.15295,309.3583,60,70,0
309.15295,309.3583,55,70,0
309.36725,309.5726,45,70,0
309.58154,309.7869,60,70,0
309.58154,309.7869,57,70,0
309.7958,310.0012,60,70,0
309.7958,310.0012,64,70,0
310.0101,310.21545,60,70,0
310.0101,310.21545,57,70,0
310.2244,310.42975,64,70,0
310.2244,310.42975,60,70,0
310.4387,310.64404,60,70,0
310.4387,310.64404,57,70,0
310.65295,310.8583,43,70,0
310.86725,311.0726,55,70,0
310.86725,311.0726,60,70,0
311.08154,311.2869,60,70,0
311.08154,311.2869,64,70,0
311.2958,311.5012,55,70,0
311.2958,311.5012,60,70,0
311.5101,311.71545,64,70,0
311.5101,311.71545,60,70,0
311.7244,311.92975,60,70,0
311.7244,311.92975,55,70,0
311.93866,312.14404,42,70,0
312.15295,312.3583,57,70,0
312.15295,312.3583,60,70,0
312.36725,312.5726,60,70,0
312.36725,312.5726,62,70,0
312.58154,312.7869,60,70,0
312.58154,312.7869,57,70,0
312.7958,313.00116,60,70,0
312.7958,313.00116,62,70,0
313.0101,313.21545,60,70,0
313.0101,313.21545,57,70,0
313.2244,313.42975,42,70,0
313.43866,313.64404,57,70,0
313.43866,313.64404,60,70,0
313.65295,313.8583,60,70,0
313.65295,313.8583,62,70,0
313.86725,314.0726,60,70,0
313.86725,314.0726,57,70,0
314.08154,314.2869,60,70,0
314.08154,314.2869,62,70,0
314.2958,314.50116,60,70,0
314.2958,314.50116,57,70,0
314.5101,314.71545,43,70,0
314.7244,314.92975,55,70,0
314.7244,314.92975,59,70,0
314.93866,315.14404,59,70,0
314.93866,315.14404,62,70,0
315.15295,315.3583,55,70,0
315.15295,315.3583,59,70,0
315.36725,315.5726,59,70,0
315.36725,315.5726,62,70,0
315.58154,315.7869,55,70,0
315.58154,315.7869,59,70,0
315.7958,316.00116,36,70,0
316.0101,316.21545,48,70,0
316.0101,316.21545,52,70,0
316.2244,316.42975,57,70,0
316.2244,316.42975,52,70,0
316.43866,316.644,52,70,0
316.43866,316.644,48,70,0
316.65295,316.8583,57,70,0
316.65295,316.8583,52,70,0
316.86725,317.0726,52,70,0
316.86725,317.0726,48,70,0
317.0815,317.2869,38,70,0
317.2958,317.50116,55,70,0
317.2958,317.50116,50,70,0
317.5101,317.71545,59,70,0
317.5101,317.71545,55,70,0
317.7244,317.92975,55,70,0
317.7244,317.92975,50,70,0
317.93866,318.144,59,70,0
317.93866,318.144,55,70,0
318.15295,318.3583,55,70,0
318.15295,318.3583,50,70,0
318.36725,318.5771,38,70,0
318.5862,318.79608,57,70,0
318.5862,318.79608,50,70,0
318.8052,319.01505,57,70,0
318.8052,319.01505,60,70,0
319.02417,319.23404,57,70,0
319.02417,319.23404,50,70,0
319.24316,319.453,60,70,0
319.24316,319.453,57,70,0
319.46213,319.672,57,70,0
319.46213,319.672,50,70,0
319.68112,319.89566,43,80,0
319.905,320.11954,50,80,0
320.12888,320.35004,54,80,0
320.35965,320.58078,50,80,0
320.5904,320.83,54,80,0
320.8404,321.08,50,80,0
321.0904,321.55496,55,80,0
321.0904,321.55496,43,80,0
324.6986,325.13705,63,80,0
325.14636,325.5848,63,80,0
325.59415,326.03256,62,80,0
326.0419,326.48032,63,80,0
326.48965,326.9281,63,80,0
326.9374,327.37585,62,80,0
327.3852,327.8236,63,80,0
327.83295,328.27136,64,80,0
328.2807,328.71915,63,80,0
328.72845,329.1669,64,80,0
329.17624,329.61465,64,80,0
329.624,330.0624,63,80,0
327.83295,330.5102,57,80,0
330.07175,330.5102,64,80,0
330.5195,330.95795,64,80,0
330.96725,331.4057,65,80,0
330.5195,331.85345,57,80,0
331.41504,331.85345,61,80,0
331.8628,333.19675,61,80,0
331.8628,333.6445,50,80,0
333.2061,333.6445,62,80,0
336.78815,337.2266,61,80,0
337.23593,337.67435,61,80,0
337.6837,338.1221,60,80,0
338.13144,338.5699,61,80,0
338.5792,339.01764,61,80,0
339.02698,339.4654,60,80,0
339.47473,339.91315,61,80,0
339.9225,340.36093,62,80,0
340.37024,340.8087,61,80,0
340.81802,341.25644,62,80,0
341.26578,341.7042,62,80,0
341.71353,342.15198,61,80,0
339.9225,342.59973,55,80,0
342.1613,342.59973,62,80,0
342.60904,343.0475,62,80,0
343.05682,343.49524,64,80,0
342.60904,343.94302,55,80,0
343.50458,343.94302,59,80,0
343.95233,345.2863,60,80,0
345.29562,346.62958,53,80,0
346.63892,347.97287,54,80,0
348.42996,348.86838,55,80,0
348.87772,349.31613,55,80,0
349.32547,349.76392,55,80,0
349.77322,350.21167,55,80,0
350.22098,350.65942,55,80,0
350.66876,351.10718,55,80,0
351.11652,351.55493,55,80,0
347.98218,352.00272,43,80,0
351.56427,352.00272,55,80,0
352.4598,352.89822,55,80,0
352.90756,353.34598,55,80,0
353.35532,353.79376,55,80,0
353.80307,354.24152,55,80,0
354.25085,354.68927,55,80,0
354.6986,355.13702,55,80,0
355.14636,355.5848,55,80,0
352.01202,356.03256,43,80,0
355.59412,356.03256,55,80,0
356.71353,356.92807,47,80,0
356.9374,357.15195,48,80,0
356.04187,357.37582,43,80,0
356.26578,357.37582,55,80,0
357.1613,357.37582,51,80,0
357.38516,357.59973,43,80,0
357.38516,357.83365,50,80,0
358.0778,358.3024,47,80,0
358.31216,358.53333,48,80,0
357.60904,358.7641,55,80,0
358.54294,358.7641,45,80,0
359.49643,359.736,47,80,0
359.74643,360.00778,48,80,0
358.7737,360.28052,43,80,0
359.0045,360.28052,55,80,0
360.01913,360.28052,51,80,0
360.29187,362.96912,43,80,0
360.29187,362.96912,50,80,0
360.29187,362.96912,55,80,0
371.61203,371.87338,48,70,0
371.61203,371.87338,52,70,0
371.88474,372.0993,55,70,0
371.88474,372.0993,52,70,0
372.1086,372.32318,60,70,0
372.1086,372.32318,55,70,0
372.33252,372.54706,55,70,0
372.33252,372.54706,52,70,0
372.5564,372.77094,52,70,0
372.5564,372.77094,48,70,0
372.78027,372.9948,55,70,0
372.78027,372.9948,52,70,0
373.00415,373.2187,48,70,0
373.00415,373.2187,52,70,0
373.22803,373.44257,55,70,0
373.22803,373.44257,52,70,0
373.4519,373.66647,60,70,0
373.4519,373.66647,55,70,0
373.67578,373.89035,55,70,0
373.67578,373.89035,52,70,0
373.89966,374.11423,52,70,0
373.89966,374.11423,48,70,0
374.12354,374.3381,55,70,0
374.12354,374.3381,52,70,0
374.34744,374.56198,48,70,0
374.34744,374.56198,52,70,0
374.57132,374.78586,55,70,0
374.57132,374.78586,52,70,0
374.7952,375.00974,60,70,0
374.7952,375.00974,55,70,0
375.01907,375.2336,55,70,0
375.01907,375.2336,52,70,0
375.24295,375.4575,52,70,0
375.24295,375.4575,48,70,0
375.46683,375.6814,55,70,0
375.46683,375.6814,52,70,0
375.6907,375.90527,48,70,0
375.6907,375.90527,52,70,0
375.91458,376.12915,55,70,0
375.91458,376.12915,52,70,0
376.1385,376.35303,60,70,0
376.1385,376.35303,55,70,0
376.36237,376.5769,55,70,0
376.36237,376.5769,52,70,0
376.58624,376.80078,52,70,0
376.58624,376.80078,48,70,0
376.81012,377.02466,55,70,0
376.81012,377.02466,52,70,0
377.034,377.24854,48,70,0
377.034,377.24854,52,70,0
377.25787,377.47244,55,70,0
377.25787,377.47244,52,70,0
377.48175,377.69632,60,70,0
377.48175,377.69632,55,70,0
377.70563,377.9202,55,70,0
377.70563,377.9202,52,70,0
377.9295,378.14407,52,70,0
377.9295,378.14407,48,70,0
378.1534,378.36795,55,70,0
378.1534,378.36795,52,70,0
378.3773,378.59183,48,70,0
378.3773,378.59183,52,70,0
378.60117,378.8157,55,70,0
378.60117,378.8157,52,70,0
378.82504,379.03958,60,70,0
378.82504,379.03958,55,70,0
379.04892,379.26346,55,70,0
379.04892,379.26346,52,70,0
379.2728,379.48737,52,70,0
379.2728,379.48737,48,70,0
379.49667,379.71124,55,70,0
379.49667,379.71124,52,70,0
379.72055,379.93512,53,70,0
379.72055,379.93512,47,70,0
379.94443,380.159,55,70,0
379.94443,380.159,53,70,0
380.16833,380.38287,55,70,0
380.16833,380.38287,62,70,0
380.3922,380.60675,55,70,0
380.3922,380.60675,53,70,0
380.6161,380.83063,53,70,0
380.6161,380.83063,47,70,0
380.83997,381.0545,55,70,0
380.83997,381.0545,53,70,0
381.06384,381.2784,53,70,0
381.06384,381.2784,47,70,0
381.28772,381.5023,55,70,0
381.28772,381.5023,53,70,0
381.5116,381.72617,55,70,0
381.5116,381.72617,62,70,0
381.73547,381.95004,55,70,0
381.73547,381.95004,53,70,0
381.95938,382.17392,53,70,0
381.95938,382.17392,47,70,0
382.18326,382.3978,55,70,0
382.18326,382.3978,53,70,0
382.40714,382.62167,53,70,0
382.40714,382.62167,47,70,0
382.631,382.84555,55,70,0
382.631,382.84555,53,70,0
382.8549,383.06943,55,70,0
382.8549,383.06943,62,70,0
383.07877,383.29333,55,70,0
383.07877,383.29333,53,70,0
383.30264,383.5172,53,70,0
383.30264,383.5172,47,70,0
383.52652,383.7411,55,70,0
383.52652,383.7411,53,70,0
383.7504,383.96497,53,70,0
383.7504,383.96497,47,70,0
383.9743,384.18884,55,70,0
383.9743,384.18884,53,70,0
384.19818,384.41272,55,70,0
384.19818,384.41272,62,70,0
384.42206,384.6366,55,70,0
384.42206,384.6366,53,70,0
384.64594,384.86047,53,70,0
384.64594,384.86047,47,70,0
384.8698,385.08435,55,70,0
384.8698,385.08435,53,70,0
385.0937,385.30826,53,70,0
385.0937,385.30826,47,70,0
385.31757,385.53214,55,70,0
385.31757,385.53214,53,70,0
385.54144,385.756,55,70,0
385.54144,385.756,62,70,0
385.76535,385.9799,55,70,0
385.76535,385.9799,53,70,0
385.98923,386.20377,53,70,0
385.98923,386.20377,47,70,0
386.2131,386.42764,55,70,0
386.2131,386.42764,53,70,0
386.43698,386.65152,53,70,0
386.43698,386.65152,43,70,0
386.66086,386.8754,55,70,0
386.66086,386.8754,53,70,0
386.88474,387.0993,55,70,0
386.88474,387.0993,59,70,0
387.1086,387.32318,55,70,0
387.1086,387.32318,53,70,0
387.3325,387.54706,53,70,0
387.3325,387.54706,43,70,0
387.55637,387.77094,55,70,0
387.55637,387.77094,53,70,0
387.78027,387.9948,52,70,0
387.78027,387.9948,48,70,0
388.00415,388.2187,55,70,0
388.22803,388.44257,60,70,0
388.4519,388.66644,55,70,0
388.67578,388.89032,52,70,0
388.89966,389.11423,48,70,0
389.12354,389.3381,45,70,0
389.3474,389.56198,57,70,0
389.5713,389.78586,60,70,0
389.7952,390.00974,57,70,0
390.01907,390.2336,53,70,0
390.24295,390.4575,48,70,0
390.46683,390.68137,40,70,0
390.6907,390.90527,55,70,0
390.91458,391.12915,60,70,0
391.13846,391.35303,55,70,0
391.36234,391.5769,52,70,0
391.58624,391.80078,48,70,0
391.81012,392.02466,41,70,0
392.034,392.24854,53,70,0
392.034,392.24854,57,70,0
392.25787,392.4724,57,70,0
392.25787,392.4724,60,70,0
392.48175,392.6963,57,70,0
392.48175,392.6963,53,70,0
392.70563,392.9202,57,70,0
392.70563,392.9202,60,70,0
392.9295,393.14407,53,70,0
392.9295,393.14407,57,70,0
393.15338,393.36795,41,70,0
393.37726,393.59183,53,70,0
393.37726,393.59183,57,70,0
393.60117,393.8157,57,70,0
393.60117,393.8157,61,70,0
393.82504,394.03958,57,70,0
393.82504,394.03958,53,70,0
394.04892,394.26346,57,70,0
394.04892,394.26346,61,70,0
394.2728,394.48734,53,70,0
394.2728,394.48734,57,70,0
394.49667,394.7112,41,70,0
394.72055,394.93512,53,70,0
394.72055,394.93512,57,70,0
394.94443,395.159,57,70,0
394.94443,395.159,62,70,0
395.1683,395.38287,57,70,0
395.1683,395.38287,53,70,0
395.3922,395.60675,57,70,0
395.3922,395.60675,62,70,0
395.6161,395.83063,53,70,0
395.6161,395.83063,57,70,0
395.83997,396.0545,43,70,0
396.06384,396.27838,55,70,0
396.06384,396.27838,60,70,0
396.28772,396.50226,60,70,0
396.28772,396.50226,64,70,0
396.5116,396.72617,55,70,0
396.5116,396.72617,60,70,0
396.73547,396.95004,60,70,0
396.73547,396.95004,64,70,0
396.95935,397.17392,55,70,0
396.95935,397.17392,60,70,0
397.18323,397.3978,60,70,0
397.18323,397.3978,64,70,0
397.40714,397.62167,55,70,0
397.40714,397.62167,60,70,0
397.631,397.84555,60,70,0
397.631,397.84555,64,70,0
397.8549,398.06943,55,70,0
397.8549,398.06943,60,70,0
398.07877,398.2933,60,70,0
398.07877,398.2933,64,70,0
398.30264,398.51718,55,70,0
398.30264,398.51718,60,70,0
398.52652,398.7411,43,70,0
398.7504,398.96497,55,70,0
398.7504,398.96497,62,70,0
398.97427,399.18884,62,70,0
398.97427,399.18884,65,70,0
399.19815,399.41272,55,70,0
399.19815,399.41272,62,70,0
399.42206,399.6366,65,70,0
399.42206,399.6366,62,70,0
399.64594,399.86047,62,70,0
399.64594,399.86047,55,70,0
399.8698,400.30823,60,70,0
399.8698,400.30823,48,70,0
403.89966,404.33807,38,80,0
404.3474,404.78586,50,80,0
404.79517,405.2336,57,80,0
405.24295,405.68137,38,80,0
405.6907,406.12912,50,80,0
406.13846,406.5769,57,80,0
406.5862,407.02466,43,80,0
407.034,407.4724,50,80,0
407.48175,407.92017,55,80,0
407.9295,408.36795,36,80,0
408.37726,408.8157,48,80,0
408.825,409.26346,55,80,0
409.2728,409.7112,36,80,0
409.72055,410.159,48,80,0
410.1683,410.60675,55,80,0
410.61606,411.0545,41,80,0
411.06384,411.50226,48,80,0
411.5116,411.95,53,80,0
411.95935,412.3978,41,80,0
412.4071,412.84555,53,80,0
412.4071,412.84555,57,80,0
412.8549,413.2933,57,80,0
412.8549,413.2933,60,80,0
413.30264,413.74106,41,80,0
413.7504,414.18884,53,80,0
413.7504,414.18884,57,80,0
414.19815,414.6366,57,80,0
414.19815,414.6366,60,80,0
414.6459,415.08435,41,80,0
415.0937,415.5321,53,80,0
415.0937,415.5321,57,80,0
415.54144,415.9799,57,80,0
415.54144,415.9799,62,80,0
415.9892,416.42764,43,80,0
416.43695,416.8754,55,80,0
416.43695,416.8754,60,80,0
416.88474,417.32315,60,80,0
416.88474,417.32315,64,80,0
417.3325,417.7709,43,80,0
417.78024,418.2187,55,80,0
417.78024,418.2187,60,80,0
418.228,418.66644,60,80,0
418.228,418.66644,64,80,0
418.67578,419.1142,43,80,0
419.12354,419.56195,55,80,0
419.12354,419.56195,62,80,0
419.5713,420.04507,62,80,0
419.5713,420.04507,65,80,0
420.05518,420.51825,48,80,0
420.05518,420.51825,36,80,0
420.52786,420.9798,55,80,0
420.9894,421.4413,53,80,0
421.45093,421.90286,52,80,0
421.91248,422.3644,50,80,0
422.37402,422.82593,48,80,0
422.83554,423.0567,47,80,0
423.0663,423.28748,48,80,0
423.2971,423.51825,47,80,0
423.52786,423.74902,48,80,0
423.75864,423.98682,50,80,0
423.99673,424.2249,48,80,0
424.23483,424.45596,48,80,0
424.35022,424.57135,50,80,0
424.46558,424.68674,48,80,0
424.58096,424.80212,50,80,0
424.69635,424.9175,48,80,0
424.81174,425.0329,50,80,0
424.92712,425.1483,48,80,0
425.0425,425.26367,50,80,0
425.1579,425.37906,48,80,0
425.2733,425.49445,50,80,0
425.38867,425.60983,48,80,0
425.50406,425.72522,50,80,0
425.61945,425.84058,48,80,0
425.73483,425.95596,50,80,0
425.85022,426.07135,48,80,0
425.96558,426.18674,50,80,0
426.08096,426.30212,48,80,0
426.19635,426.4175,50,80,0
426.31174,426.5329,48,80,0
426.42712,426.6483,50,80,0
426.5425,426.76367,48,80,0
426.6579,426.87906,50,80,0
426.7733,426.99445,48,80,0
426.88867,427.10983,50,80,0
427.00406,428.37906,47,80,0
428.38867,428.6098,46,80,0
428.50406,428.7252,48,80,0
428.61945,428.84058,46,80,0
428.7348,428.95596,48,80,0
428.8502,429.07135,46,80,0
428.96558,429.18674,48,80,0
429.08096,429.30212,46,80,0
429.19635,429.4175,48,80,0
429.31174,429.5329,46,80,0
429.42712,429.6483,48,80,0
429.5425,429.76367,46,80,0
429.6579,429.87906,48,80,0
429.7733,429.99445,46,80,0
429.88867,430.1098,48,80,0
430.00406,430.2252,46,80,0
430.11945,430.34058,48,80,0
430.2348,430.45596,46,80,0
430.3502,430.57135,48,80,0
430.46558,430.68674,46,80,0
430.58096,430.80212,48,80,0
430.69635,430.9175,46,80,0
430.81174,431.0329,48,80,0
430.92712,431.1483,46,80,0
431.0425,431.26367,48,80,0
431.1579,432.5329,45,80,0
433.00403,433.45596,45,85,0
432.5425,433.9175,41,81,0
433.46558,433.9175,48,90,0
434.38867,434.84058,57,100,0
434.8502,435.30212,61,105,0
435.31174,435.76364,62,110,0
435.7733,436.2252,64,110,0
433.92712,436.68674,53,95,0
436.2348,436.68674,65,110,0
436.69635,437.6098,67,110,0
436.69635,437.6098,55,110,0
438.08096,438.99442,55,110,0
438.08096,438.99442,43,110,0
439.46558,440.43134,43,94,0
439.46558,440.43134,31,94,0
440.9872,441.2486,36,80,0
441.1236,441.36572,38,80,0
441.25995,441.4811,36,80,0
441.37534,441.5965,38,80,0
441.49072,441.71188,36,80,0
441.6061,441.82724,38,80,0
441.7215,441.94263,36,80,0
441.83688,442.058,38,80,0
441.95224,442.1734,36,80,0
442.06763,442.2888,38,80,0
442.183,442.40417,36,80,0
442.2984,442.51956,38,80,0
442.4138,442.63495,36,80,0
442.52917,442.75034,38,80,0
442.64456,442.86572,36,80,0
442.75995,442.9811,38,80,0
442.87534,443.0965,36,80,0
442.99072,443.21188,38,80,0
443.1061,443.32724,36,80,0
443.2215,443.44263,38,80,0
443.33685,443.558,36,80,0
443.45224,443.6734,38,80,0
443.56763,443.7888,35,80,0
443.683,443.90417,36,80,0
443.7984,445.058,40,80,0
445.06763,445.1734,36,80,0
445.183,449.32724,31,80,0
449.33685,449.558,36,80,0
449.45224,449.6734,38,80,0
449.56763,449.7888,36,80,0
449.683,449.90417,38,80,0
449.7984,450.01956,36,80,0
449.9138,450.13495,38,80,0
450.02917,450.25034,36,80,0
450.14456,450.3657,38,80,0
450.25995,450.48108,36,80,0
450.37534,450.59647,38,80,0
450.4907,450.71185,35,80,0
450.60608,450.82724,36,80,0
450.72147,450.94263,40,80,0
450.83685,451.058,41,80,0
450.95224,451.1734,40,80,0
451.06763,451.2888,41,80,0
451.183,451.40417,40,80,0
451.2984,451.51956,41,80,0
451.4138,451.63495,40,80,0
451.52917,451.75034,41,80,0
451.64456,451.8657,40,80,0
451.75995,451.98108,41,80,0
451.87534,452.09647,38,80,0
451.9907,452.21185,40,80,0
452.10608,453.13495,43,80,0
453.14456,453.2503,41,80,0
453.20224,453.308,40,80,0
453.25995,453.3657,38,80,0
453.31763,453.4234,36,80,0
453.3753,453.48108,35,80,0
453.433,453.5388,33,80,0
453.4907,453.94263,32,80,0
453.95224,454.8657,31,80,0
454.8753,457.63492,31,80,0
457.64453,458.09647,36,80,0
458.10608,458.6734,43,80,0
458.683,458.7888,41,80,0
458.7407,458.84647,40,80,0
458.7984,458.90417,38,80,0
458.85608,458.96185,36,80,0
458.9138,459.01953,35,80,0
458.97147,459.07724,33,80,0
459.02917,459.48108,32,80,0
459.4907,461.7888,31,80,0
461.7984,462.2503,36,80,0
462.25992,462.82724,43,80,0
462.83685,462.94263,41,80,0
462.89453,463.0003,40,80,0
462.95224,463.058,38,80,0
463.00992,463.1157,36,80,0
463.06763,463.1734,35,80,0
463.1253,463.23108,33,80,0
463.183,463.63492,32,80,0
463.64453,465.94263,31,80,0
466.41376,466.8657,43,80,0
466.8753,467.32724,44,80,0
467.33685,467.78876,45,80,0
467.79837,468.2503,44,80,0
468.25992,468.71185,45,80,0
468.72147,469.17337,46,80,0
469.18298,469.63492,45,80,0
465.95224,470.09647,36,80,0
469.64453,470.09647,46,80,0
470.10608,470.57986,47,80,0
470.58994,471.06372,43,80,0
471.07382,471.30566,45,80,0
471.31573,471.5476,47,80,0
470.10608,472.51535,36,80,0
471.55768,472.51535,48,80,0
474.4609,474.9347,47,80,0
474.94476,475.41858,43,80,0
475.42865,475.6605,45,80,0
475.6706,475.90244,47,80,0
474.4609,476.87018,36,80,0
475.9125,476.87018,48,80,0
478.81573,479.28952,47,80,0
479.29962,479.7734,43,81,0
479.78348,480.01535,45,83,0
480.02542,480.25726,47,84,0
480.26736,480.7469,48,85,0
480.75723,481.24277,43,86,0
481.25308,481.4907,47,88,0
481.50104,481.73862,48,89,0
481.74896,482.2426,50,90,0
482.2533,482.75543,43,92,0
482.7661,483.0275,49,93,0
478.81573,483.3002,36,80,0
483.03885,483.3002,50,94,0
483.31158,484.80115,50,95,0
483.31158,485.80115,36,95,0
484.81158,485.80115,53,80,0
487.90448,489.8906,74,70,0
487.90448,489.8906,67,70,0
489.90448,491.8906,72,70,0
489.90448,491.8906,60,70,0
