start_time,end_time,note_value,velocity,instrument_program_number
0.0,0.032738063,76,80,0
0.03571425,0.13690463,74,80,0
0.142857,0.28273782,73,80,0
0.285714,0.4255948,74,80,0
0.428571,0.5684518,76,80,0
0.571428,0.8541658,74,80,0
1.142856,1.4255939,64,80,0
1.42857,1.7113078,66,80,0
1.714284,2.2827358,67,80,0
2.285712,2.425593,71,80,0
2.428569,2.5684497,69,80,0
2.571426,2.7113068,67,80,0
2.714283,2.854164,69,80,0
0.857142,3.1398778,62,80,0
2.85714,3.1398778,71,80,0
3.142854,3.7113059,67,80,0
3.428568,3.7113059,73,80,0
3.714282,3.9970198,69,80,0
3.714282,3.9970198,67,80,0
3.999996,4.5684476,66,80,0
3.999996,4.5684476,74,80,0
4.571424,4.604162,76,80,0
4.607138,4.7083287,74,80,0
4.714281,4.8541617,73,80,0
4.857138,4.997019,74,80,0
4.999995,5.139876,76,80,0
5.142852,5.42559,74,80,0
5.71428,5.997018,64,80,0
5.999994,6.282732,66,80,0
6.285708,6.85416,67,80,0
6.857136,6.997017,71,80,0
6.999993,7.139874,69,80,0
7.14285,7.2827306,67,80,0
7.285707,7.4255877,69,80,0
5.428566,7.711302,62,80,0
7.428564,7.711302,71,80,0
7.714278,7.997016,67,80,0
7.714278,8.28273,64,80,0
7.999992,8.28273,72,80,0
7.999992,8.28273,69,80,0
8.285706,8.582581,69,80,0
8.285706,8.582581,66,80,0
8.285706,8.582581,60,80,0
8.585706,8.915566,67,80,0
8.585706,8.915566,59,80,0
9.252372,9.558919,79,80,0
9.252372,9.558919,71,80,0
9.561895,9.844633,78,86,0
9.561895,9.844633,72,86,0
9.8476095,10.130347,77,93,0
9.8476095,10.130347,74,93,0
10.133324,10.416061,76,99,0
10.133324,10.416061,67,99,0
10.419038,10.701776,75,110,0
10.419038,10.701776,67,110,0
10.419038,10.701776,72,110,0
10.704752,10.98749,75,101,0
10.704752,10.98749,69,101,0
10.704752,10.98749,72,101,0
10.990465,11.273203,75,91,0
10.990465,11.273203,72,91,0
11.276179,11.558917,74,81,0
11.276179,11.558917,71,81,0
11.561893,11.701775,76,80,0
11.70475,11.844631,74,80,0
11.847608,11.987489,73,80,0
11.561893,12.130345,69,80,0
11.561893,12.130345,66,80,0
11.990464,12.130345,74,80,0
12.133322,12.4160595,71,80,0
12.133322,12.701774,67,80,0
12.133322,12.701774,62,80,0
12.419036,12.701774,74,80,0
12.704749,12.84463,76,80,0
12.847607,12.987487,74,80,0
12.990463,13.130344,73,80,0
12.704749,13.273201,69,80,0
12.704749,13.273201,66,80,0
13.133321,13.273201,74,80,0
13.276177,13.558915,71,80,0
13.276177,13.558915,67,80,0
13.276177,13.558915,62,80,0
13.847606,14.130343,79,80,0
13.847606,14.130343,71,80,0
14.13332,14.416058,78,86,0
14.13332,14.416058,72,86,0
14.419033,14.701772,77,93,0
14.419033,14.701772,74,93,0
14.704747,14.987485,76,99,0
14.704747,14.987485,67,99,0
14.990461,15.273199,75,110,0
14.990461,15.273199,67,110,0
14.990461,15.273199,72,110,0
15.2761755,15.558913,75,101,0
15.2761755,15.558913,69,101,0
15.2761755,15.558913,72,101,0
15.56189,15.844627,75,91,0
15.56189,15.844627,72,91,0
15.847604,16.13034,74,81,0
15.847604,16.13034,71,81,0
16.133318,16.2732,76,80,0
16.276175,16.416056,74,80,0
16.419031,16.558912,73,80,0
16.133318,16.701769,69,80,0
16.133318,16.701769,66,80,0
16.561888,16.701769,74,80,0
16.704746,16.987484,71,80,0
16.704746,17.273197,67,80,0
16.704746,17.273197,62,80,0
16.99046,17.273197,74,80,0
17.276173,17.416054,76,80,0
17.419031,17.55891,74,80,0
17.561888,17.701769,73,80,0
17.276173,17.844625,69,80,0
17.276173,17.844625,66,80,0
17.704744,17.844625,74,80,0
17.8476,18.130339,71,80,0
17.8476,18.130339,67,80,0
17.8476,18.130339,62,80,0
19.085695,19.273195,83,80,0
19.180933,19.273195,84,80,0
19.27617,19.368433,86,80,0
19.37141,19.46367,84,80,0
19.466648,19.558908,83,80,0
19.561886,19.654148,84,80,0
19.657124,19.749386,81,80,0
19.752361,19.844624,83,80,0
19.847599,19.939861,84,80,0
19.942837,20.035099,83,80,0
20.038076,20.130337,81,80,0
20.133314,20.225574,83,80,0
20.228552,20.320814,79,80,0
20.32379,20.416052,81,80,0
20.419027,20.51129,83,80,0
20.514265,20.606527,81,80,0
20.609503,20.701765,79,80,0
20.704742,20.797003,78,80,0
20.79998,20.89224,76,80,0
20.895218,20.98748,74,80,0
20.990456,21.082718,72,80,0
21.085693,21.177956,71,80,0
21.180931,21.273193,69,80,0
21.276169,21.368431,67,80,0
21.371407,21.463669,74,80,0
21.466646,21.558907,73,80,0
21.561884,21.654146,74,80,0
21.657122,21.749384,71,80,0
21.75236,21.844622,69,80,0
21.847597,21.93986,67,80,0
21.942835,22.035097,76,80,0
22.038073,22.130335,75,80,0
22.133312,22.225573,76,80,0
22.22855,22.320812,73,80,0
22.323788,22.41605,67,80,0
22.419025,22.511288,66,80,0
22.514263,22.606525,74,80,0
22.6095,22.701763,73,80,0
22.704739,22.797,74,80,0
22.799978,22.892239,69,80,0
22.895216,22.987478,66,80,0
22.990454,23.273191,62,80,0
23.65712,23.749382,83,80,0
23.752357,23.84462,84,80,0
23.847595,23.939857,86,80,0
23.942833,24.035095,84,80,0
24.03807,24.130333,83,80,0
24.13331,24.22557,84,80,0
24.228548,24.320808,81,80,0
24.323786,24.416048,83,80,0
24.419024,24.511286,84,80,0
24.514261,24.606524,83,80,0
24.609499,24.701761,81,80,0
24.704737,24.796999,83,80,0
24.799976,24.892237,79,80,0
24.895214,24.987474,81,80,0
24.990452,25.082714,83,80,0
25.08569,25.177952,81,80,0
25.180927,25.27319,79,80,0
25.276165,25.368427,78,80,0
25.371403,25.463665,76,80,0
25.466642,25.558903,74,80,0
25.56188,25.65414,72,80,0
25.657118,25.74938,71,80,0
25.752356,25.844618,69,80,0
25.847593,25.939856,67,80,0
25.942831,26.035093,66,80,0
26.038069,26.130331,67,80,0
26.133308,26.225569,69,80,0
26.228546,26.320807,71,80,0
26.323784,26.416046,72,80,0
26.419022,26.511284,74,80,0
26.51426,26.606522,62,80,0
26.609497,26.70176,61,80,0
26.704735,26.796997,62,80,0
26.799974,26.892235,64,80,0
26.895212,26.987473,66,80,0
26.99045,27.273188,67,80,0
27.561878,27.701757,55,80,0
27.704735,27.844616,67,82,0
27.847591,27.987473,57,84,0
27.990448,28.13033,69,86,0
28.133305,28.273186,59,88,0
28.133305,28.273186,67,88,0
28.276163,28.416044,71,90,0
28.41902,28.5589,67,92,0
28.41902,28.5589,60,92,0
28.561876,28.701757,72,94,0
28.704733,28.844614,70,96,0
28.704733,28.844614,67,96,0
28.704733,28.844614,61,96,0
28.847591,28.98747,73,98,0
28.990448,29.13033,70,100,0
28.990448,29.13033,67,100,0
28.990448,29.13033,61,100,0
29.133305,29.273186,73,101,0
29.276161,29.416042,70,103,0
29.276161,29.416042,67,103,0
29.276161,29.416042,61,103,0
29.419018,29.558899,73,105,0
29.561876,29.701756,71,107,0
29.561876,29.701756,67,107,0
29.561876,29.701756,62,107,0
29.704733,29.844614,74,109,0
29.84759,29.98747,76,80,0
29.990446,30.130327,74,80,0
30.133303,30.273184,73,80,0
29.84759,30.41604,69,80,0
29.84759,30.41604,66,80,0
30.276161,30.41604,74,80,0
30.419018,30.701756,71,80,0
30.419018,30.987469,67,80,0
30.419018,30.987469,62,80,0
30.704731,30.987469,74,80,0
30.990446,31.130327,76,80,0
31.133303,31.273184,74,80,0
31.27616,31.41604,73,80,0
30.990446,31.558897,69,80,0
30.990446,31.558897,66,80,0
31.419016,31.558897,74,80,0
31.561874,31.844612,67,80,0
31.561874,31.844612,62,80,0
31.561874,31.844612,71,80,0
32.1333,32.273182,67,80,0
32.276157,32.41604,79,81,0
32.419014,32.558895,69,83,0
32.561874,32.70175,79,85,0
32.70473,32.844612,71,87,0
32.70473,32.844612,67,87,0
32.847588,32.98747,79,89,0
32.990444,33.130325,72,91,0
32.990444,33.130325,67,91,0
33.1333,33.273182,79,93,0
33.276157,33.41604,73,95,0
33.276157,33.41604,70,95,0
33.276157,33.41604,67,95,0
33.419014,33.558895,79,97,0
33.56187,33.70175,73,99,0
33.56187,33.70175,70,99,0
33.56187,33.70175,67,99,0
33.704727,33.84461,79,101,0
33.847584,33.987465,73,103,0
33.847584,33.987465,70,103,0
33.847584,33.987465,67,103,0
33.990444,34.13032,79,105,0
34.1333,34.273182,74,107,0
34.1333,34.273182,71,107,0
34.1333,34.273182,67,107,0
34.276157,34.41604,79,109,0
34.419014,34.511276,66,80,0
34.51425,34.606514,70,80,0
34.60949,34.70175,74,80,0
34.704727,34.79699,78,80,0
34.799965,34.892227,74,80,0
34.895203,34.987465,70,80,0
34.99044,35.082703,67,80,0
35.08568,35.17794,71,80,0
35.180916,35.27318,74,80,0
35.276157,35.368416,79,80,0
35.371395,35.463654,74,80,0
35.466633,35.558895,71,80,0
35.56187,35.654133,66,80,0
35.65711,35.74937,69,80,0
35.752346,35.84461,74,80,0
35.847584,35.939846,78,80,0
35.94282,36.035084,74,80,0
36.03806,36.13032,69,80,0
36.133297,36.22556,67,80,0
36.228535,36.320797,71,80,0
36.323772,36.416035,74,80,0
36.41901,36.511272,79,80,0
36.514248,36.60651,74,80,0
36.609486,36.701748,71,80,0
36.704727,36.844604,84,80,0
36.847584,36.987465,83,80,0
36.99044,37.13032,82,80,0
37.133297,37.27318,83,80,0
37.276154,37.55889,79,80,0
37.561867,37.844604,83,80,0
37.84758,37.98746,84,80,0
37.99044,38.130318,83,80,0
38.133297,38.27318,82,80,0
38.276154,38.416035,83,80,0
38.41901,38.701748,79,80,0
38.704723,38.98746,83,80,0
38.990437,39.0827,73,80,0
39.085674,39.177937,76,80,0
39.180912,39.273174,81,80,0
39.27615,39.368412,85,80,0
39.37139,39.46365,81,80,0
39.46663,39.558887,76,80,0
39.561867,39.65413,74,80,0
39.657104,39.749367,78,80,0
39.752342,39.844604,81,80,0
39.84758,39.939842,86,80,0
39.942818,40.03508,81,80,0
40.038055,40.130318,78,80,0
40.133293,40.225555,73,80,0
40.22853,40.320793,76,80,0
40.32377,40.41603,81,80,0
40.419006,40.51127,85,80,0
40.514244,40.606506,81,80,0
40.60948,40.701744,76,80,0
40.704723,40.79698,74,80,0
40.79996,40.89222,78,80,0
40.8952,40.98746,81,80,0
40.990437,41.0827,86,80,0
41.085674,41.177937,81,80,0
41.180912,41.273174,78,80,0
41.27615,41.41603,83,80,0
41.419006,41.558887,81,84,0
41.561863,41.701744,80,88,0
41.70472,41.8446,81,92,0
41.847576,41.987457,79,97,0
41.990433,42.130314,78,101,0
42.133293,42.27317,77,105,0
42.27615,42.41603,78,109,0
42.419006,42.558887,78,110,0
42.419006,42.701744,71,110,0
42.419006,42.701744,68,110,0
42.561863,42.701744,76,110,0
42.70472,42.8446,75,110,0
42.70472,42.987457,71,110,0
42.70472,42.987457,68,110,0
42.847576,42.987457,76,110,0
42.990433,43.130314,78,110,0
42.990433,43.27317,73,110,0
42.990433,43.27317,69,110,0
43.13329,43.27317,76,110,0
43.276146,43.416027,75,110,0
43.419006,43.558884,76,110,0
43.561863,43.701744,83,80,0
43.70472,43.8446,81,84,0
43.847576,43.987457,80,88,0
43.990433,44.130314,81,92,0
44.13329,44.27317,79,97,0
44.276146,44.416027,78,101,0
44.419003,44.558884,77,105,0
44.56186,44.70174,78,109,0
44.704716,44.844597,78,110,0
44.704716,44.987453,71,110,0
44.704716,44.987453,68,110,0
44.847576,44.987453,76,110,0
44.990433,45.130314,75,110,0
44.990433,45.27317,71,110,0
44.990433,45.27317,68,110,0
45.13329,45.27317,76,110,0
45.276146,45.416027,78,110,0
45.276146,45.558884,73,110,0
45.276146,45.558884,69,110,0
45.419003,45.558884,76,110,0
45.56186,45.70174,75,110,0
45.704716,45.844597,76,110,0
45.847572,45.987453,78,110,0
45.847572,46.13031,71,110,0
45.847572,46.13031,68,110,0
45.99043,46.13031,76,110,0
46.13329,46.273167,75,110,0
46.13329,46.416027,71,110,0
46.13329,46.416027,68,110,0
46.276146,46.416027,76,110,0
46.419003,46.558884,78,110,0
46.419003,46.70174,73,110,0
46.419003,46.70174,69,110,0
46.56186,46.70174,76,110,0
46.704716,46.844597,75,110,0
46.847572,46.987453,76,110,0
46.99043,47.13031,78,110,0
46.99043,47.273167,71,110,0
46.99043,47.273167,68,110,0
47.133286,47.273167,76,110,0
47.276142,47.416023,75,110,0
47.276142,47.55888,71,110,0
47.276142,47.55888,68,110,0
47.419,47.55888,76,110,0
47.56186,47.844597,69,110,0
48.228523,48.320786,69,80,0
48.32376,48.416023,71,80,0
48.419,48.51126,73,80,0
48.514236,48.6065,71,80,0
48.609474,48.701736,69,80,0
48.79995,48.892212,74,80,0
48.89519,48.98745,76,80,0
48.99043,49.08269,78,80,0
49.085667,49.17793,76,80,0
49.180904,49.273167,74,80,0
49.37138,49.463642,69,80,0
49.466618,49.55888,71,80,0
49.561855,49.654118,73,80,0
49.657093,49.749355,71,80,0
49.75233,49.844593,69,80,0
49.942806,50.03507,74,80,0
50.038044,50.130306,76,80,0
50.13328,50.225544,78,80,0
50.228523,50.32078,76,80,0
50.32376,50.41602,74,80,0
50.514236,50.6065,69,80,0
50.609474,50.701736,71,80,0
50.704712,50.796974,73,80,0
50.79995,50.892212,71,80,0
50.895187,50.98745,69,80,0
51.085663,51.177925,74,80,0
51.1809,51.273163,76,80,0
51.27614,51.3684,78,80,0
51.371376,51.46364,76,80,0
51.466614,51.558876,74,80,0
51.561855,51.654114,79,80,0
51.657093,51.74935,76,80,0
51.75233,51.844593,73,80,0
51.84757,51.93983,67,80,0
51.942806,52.03507,64,80,0
52.038044,52.130306,61,80,0
52.13328,52.225544,62,80,0
52.22852,52.32078,66,80,0
52.323757,52.41602,62,80,0
52.418995,52.511257,57,80,0
52.514233,52.606495,54,80,0
52.60947,52.701733,62,80,0
52.799946,52.89221,69,80,0
52.895187,52.987446,71,80,0
52.990425,53.082684,73,80,0
53.085663,53.177925,71,80,0
53.1809,53.273163,69,80,0
53.371376,53.46364,74,80,0
53.466614,53.558876,76,80,0
53.56185,53.654114,78,80,0
53.65709,53.74935,76,80,0
53.752327,53.84459,74,80,0
53.847565,53.939827,79,80,0
53.942802,54.035065,76,80,0
54.03804,54.130302,73,80,0
54.133278,54.22554,67,80,0
54.228516,54.320778,64,80,0
54.323757,54.416016,61,80,0
54.418995,54.511257,62,80,0
54.514233,54.606495,66,80,0
54.60947,54.701733,62,80,0
54.70471,54.79697,57,80,0
54.799946,54.89221,54,80,0
54.895184,54.987446,62,80,0
55.08566,55.17792,69,80,0
55.180897,55.27316,71,80,0
55.276134,55.368397,73,80,0
55.371372,55.463634,71,80,0
55.46661,55.558872,69,80,0
55.65709,55.749348,74,80,0
55.752327,55.844585,76,80,0
55.847565,55.939827,78,80,0
55.942802,56.035065,76,80,0
56.03804,56.130302,74,80,0
56.133278,56.22554,79,80,0
56.228516,56.320778,76,80,0
56.323753,56.416016,73,80,0
56.41899,56.511253,67,80,0
56.51423,56.60649,64,80,0
56.609467,56.70173,61,80,0
56.704704,56.796967,62,80,0
56.799942,56.892204,66,80,0
56.89518,56.987442,69,80,0
56.99042,57.08268,74,80,0
57.08566,57.177917,78,80,0
57.180897,57.27316,81,80,0
57.276134,57.368397,79,80,0
57.371372,57.463634,76,80,0
57.46661,57.558872,73,80,0
57.561848,57.65411,67,80,0
57.657085,57.749348,64,80,0
57.752323,57.844585,61,80,0
57.84756,57.939823,62,80,0
57.9428,58.03506,66,80,0
58.038036,58.1303,69,80,0
58.133274,58.225536,74,80,0
58.22851,58.320774,78,80,0
58.323753,58.41601,81,80,0
58.41899,58.51125,79,80,0
58.51423,58.60649,76,80,0
58.609467,58.70173,73,80,0
58.704704,58.796967,67,80,0
58.799942,58.892204,64,80,0
58.89518,58.987442,61,80,0
58.990417,59.08268,62,80,0
59.085655,59.177917,66,80,0
59.180893,59.273155,62,80,0
59.27613,59.368393,57,80,0
59.37137,59.46363,69,80,0
59.466606,59.55887,66,80,0
59.561844,59.654106,62,80,0
59.65708,59.749344,74,80,0
59.752323,59.84458,69,80,0
59.84756,59.939823,66,80,0
59.9428,60.03506,62,80,0
60.038036,60.1303,74,80,0
60.133274,60.225536,66,80,0
60.22851,60.320774,78,80,0
60.32375,60.41601,74,80,0
60.418987,60.51125,69,80,0
60.514225,60.606487,66,80,0
60.609463,60.701725,78,80,0
60.7047,60.796963,69,80,0
60.79994,60.8922,81,80,0
60.895176,60.98744,78,80,0
60.990414,61.082676,74,80,0
61.085655,61.177914,69,80,0
61.180893,61.273155,81,80,0
61.27613,61.368393,74,80,0
61.37137,61.46363,86,81,0
61.466606,61.55887,74,82,0
61.561844,61.654106,86,83,0
61.65708,61.749344,74,85,0
61.75232,61.84458,86,86,0
61.847557,61.93982,74,87,0
61.942795,62.035057,86,88,0
62.038033,62.130295,74,90,0
62.13327,62.225533,86,91,0
62.228508,62.32077,74,92,0
62.323746,62.416008,86,93,0
62.418987,62.511246,74,95,0
62.514225,62.606483,86,96,0
62.609463,62.701725,74,97,0
62.7047,62.796963,86,98,0
62.79994,62.8922,74,100,0
62.895176,62.98744,86,101,0
62.990414,63.082676,74,102,0
63.08565,63.177914,86,103,0
63.18089,63.27315,74,105,0
63.276127,63.36839,86,106,0
63.371365,63.463627,74,107,0
63.466602,63.558865,86,108,0
63.56184,63.654102,74,110,0
63.657078,63.74934,86,110,0
63.75232,63.844578,74,109,0
63.847557,63.939816,86,108,0
63.942795,64.03506,74,107,0
64.03803,64.130295,86,106,0
64.13327,64.22553,83,105,0
64.22851,64.32077,85,105,0
64.323746,64.41601,86,104,0
64.41898,64.511246,79,103,0
64.51422,64.60648,81,102,0
64.60946,64.70172,83,101,0
64.7047,64.79696,76,100,0
64.799934,64.8922,78,100,0
64.89517,64.987434,79,99,0
64.99041,65.08267,71,98,0
65.08565,65.17791,78,97,0
65.180885,65.27315,76,96,0
65.27612,65.368385,69,95,0
65.37136,65.46362,76,95,0
65.4666,65.55886,74,94,0
65.56184,65.6541,67,93,0
65.657074,65.74934,74,92,0
65.75231,65.844574,73,91,0
65.84756,65.93981,74,80,0
65.942795,66.03506,86,81,0
66.03803,66.130295,74,82,0
66.13327,66.22553,86,83,0
66.22851,66.32077,74,85,0
66.323746,66.41601,86,86,0
66.41898,66.511246,74,87,0
66.51422,66.60648,86,88,0
66.60946,66.70172,74,90,0
66.7047,66.79696,86,91,0
66.799934,66.8922,74,92,0
66.89517,66.987434,86,93,0
66.99041,67.08267,74,95,0
67.08565,67.17791,86,96,0
67.180885,67.27315,74,97,0
67.27612,67.368385,86,98,0
67.37136,67.46362,74,100,0
67.4666,67.55886,86,101,0
67.56184,67.6541,74,102,0
67.657074,67.74934,86,103,0
67.75231,67.844574,74,105,0
67.84755,67.93981,86,106,0
67.94279,68.03505,74,107,0
68.038025,68.13029,86,108,0
68.13326,68.225525,74,110,0
68.2285,68.32076,86,110,0
68.32374,68.416,74,110,0
68.418976,68.51124,86,110,0
68.51422,68.606476,74,110,0
68.60946,68.70171,86,110,0
68.7047,68.79696,74,110,0
68.799934,68.8922,86,110,0
68.89517,68.987434,74,110,0
68.99041,69.08267,86,110,0
69.08565,69.17791,74,110,0
69.180885,69.27315,86,110,0
69.27612,69.368385,85,80,0
69.37136,69.46362,88,80,0
69.4666,69.55886,86,80,0
69.56184,69.6541,80,80,0
69.657074,69.74934,83,80,0
69.75231,69.844574,81,80,0
69.84755,69.93981,77,80,0
69.94279,70.03505,79,80,0
70.038025,70.13029,78,80,0
70.13326,70.225525,73,80,0
70.2285,70.32076,76,80,0
70.32374,70.416,74,80,0
70.418976,70.51124,74,110,0
70.51421,70.606476,86,110,0
70.60945,70.70171,74,110,0
70.70469,70.79695,86,110,0
70.79993,70.89219,74,110,0
70.895164,70.98743,86,110,0
70.9904,71.082664,74,110,0
71.08564,71.1779,86,110,0
71.18088,71.27314,74,110,0
71.27612,71.36838,86,110,0
71.37136,71.46362,74,110,0
71.4666,71.55886,86,110,0
71.56184,71.6541,85,80,0
71.657074,71.74934,88,80,0
71.75231,71.844574,86,80,0
71.84755,71.93981,80,80,0
71.94279,72.03505,83,80,0
72.038025,72.13029,81,80,0
72.13326,72.225525,77,80,0
72.2285,72.32076,79,80,0
72.32374,72.416,78,80,0
72.418976,72.51124,73,80,0
72.51421,72.606476,76,80,0
72.60945,72.70171,74,80,0
72.70469,72.79695,74,80,0
72.79993,72.89219,86,80,0
72.895164,72.98743,74,80,0
72.9904,73.082664,86,80,0
73.08564,73.1779,74,80,0
73.18088,73.27314,86,80,0
73.276115,73.36838,74,80,0
73.37135,73.463615,86,80,0
73.46659,73.55885,74,80,0
73.56183,73.65409,86,80,0
73.65707,73.74933,74,80,0
73.752304,73.84457,86,80,0
73.84754,73.939804,74,80,0
73.94279,74.03504,86,80,0
74.038025,74.13028,74,80,0
74.13326,74.225525,86,80,0
74.2285,74.32076,74,80,0
74.32374,74.416,86,80,0
74.418976,74.51124,74,80,0
74.51421,74.606476,86,80,0
74.60945,74.70171,74,80,0
74.70469,74.79695,86,80,0
74.79993,74.89219,74,80,0
74.895164,74.98743,86,80,0
74.9904,75.27314,86,80,0
74.9904,75.27314,74,80,0
75.56183,75.59457,76,80,0
75.59754,75.69278,74,80,0
75.70469,75.84457,73,80,0
75.84754,75.98743,74,80,0
75.9904,76.13028,76,80,0
76.133255,76.41599,74,80,0
76.41897,76.701706,62,80,0
76.70469,76.98743,64,80,0
76.9904,77.27314,66,80,0
77.276115,77.84457,67,80,0
77.84754,77.98742,71,80,0
77.9904,78.13028,69,80,0
78.133255,78.27314,67,80,0
78.276115,78.41599,69,80,0
78.41897,78.701706,71,80,0
78.70468,78.98742,67,80,0
78.990395,79.27313,73,80,0
79.27611,79.558846,69,80,0
79.56183,79.84457,74,80,0
80.133255,80.16599,76,80,0
80.16897,80.264206,74,80,0
80.27611,80.41599,73,80,0
80.41897,80.558846,74,80,0
80.56182,80.701706,76,80,0
80.70468,80.98742,74,80,0
80.990395,81.27313,62,80,0
81.27611,81.558846,64,80,0
81.56182,81.84456,66,80,0
81.847534,82.41599,67,80,0
82.41897,82.558846,71,80,0
82.56182,82.701706,69,80,0
82.70468,82.84456,67,80,0
82.847534,82.98742,69,80,0
82.990395,83.27313,71,80,0
83.27611,83.558846,67,80,0
83.56182,83.84456,72,80,0
83.847534,84.13027,69,80,0
84.13325,84.415985,67,80,0
84.70467,84.98741,71,80,0
84.70467,84.98741,79,80,0
84.990395,85.27313,78,83,0
84.990395,85.27313,72,83,0
84.70467,85.558846,67,80,0
85.27611,85.558846,77,87,0
85.27611,85.558846,74,87,0
85.56182,85.84456,76,91,0
85.56182,85.84456,72,91,0
85.56182,86.13027,67,91,0
85.847534,86.13027,75,95,0
85.847534,86.13027,72,95,0
86.13325,86.415985,75,99,0
86.13325,86.415985,72,99,0
86.13325,86.415985,69,99,0
86.41896,86.7017,75,80,0
86.41896,86.7017,72,80,0
86.70467,86.98741,74,80,0
86.70467,86.98741,71,80,0
86.99039,87.13027,76,80,0
87.13325,87.273125,74,80,0
87.2761,87.415985,73,80,0
86.99039,87.55884,69,80,0
86.99039,87.55884,66,80,0
87.41896,87.55884,74,80,0
87.56182,87.84456,71,80,0
87.56182,87.84456,67,80,0
87.56182,87.84456,62,80,0
87.847534,88.13027,74,80,0
88.13325,88.273125,76,80,0
88.2761,88.415985,74,80,0
88.41896,88.55884,73,80,0
88.13325,88.7017,69,80,0
88.13325,88.7017,66,80,0
88.56181,88.7017,74,80,0
88.70467,88.98741,71,80,0
88.70467,88.98741,67,80,0
88.70467,88.98741,62,80,0
89.2761,89.55884,71,80,0
89.2761,89.55884,79,80,0
89.56181,89.84455,78,83,0
89.56181,89.84455,72,83,0
89.2761,90.130264,67,80,0
89.84753,90.130264,77,87,0
89.84753,90.130264,74,87,0
90.13324,90.415985,76,91,0
90.13324,90.415985,72,91,0
90.13324,90.7017,67,91,0
90.41896,90.7017,75,95,0
90.41896,90.7017,72,95,0
90.70467,90.98741,75,99,0
90.70467,90.98741,72,99,0
90.70467,90.98741,69,99,0
90.99039,91.273125,75,80,0
90.99039,91.273125,72,80,0
91.2761,91.55884,74,80,0
91.2761,91.55884,71,80,0
91.56181,91.70169,76,80,0
91.70467,91.84455,74,80,0
91.84753,91.98741,73,80,0
91.56181,92.130264,69,80,0
91.56181,92.130264,66,80,0
91.99039,92.130264,74,80,0
92.13324,92.41598,71,80,0
92.13324,92.41598,67,80,0
92.13324,92.41598,62,80,0
92.41895,92.70169,74,80,0
92.704666,92.84455,76,80,0
92.84753,92.987404,74,80,0
92.99039,93.130264,73,80,0
92.704666,93.273125,69,80,0
92.704666,93.273125,66,80,0
93.13324,93.273125,74,80,0
93.2761,93.55884,71,80,0
93.2761,93.55884,67,80,0
93.2761,93.55884,62,80,0
94.51419,94.60645,82,80,0
94.60943,94.70169,84,80,0
94.704666,94.79693,86,80,0
94.799904,94.892166,84,80,0
94.89514,94.987404,82,80,0
94.99038,95.08264,84,80,0
95.08562,95.17788,81,80,0
95.180855,95.27312,82,80,0
95.27609,95.368355,84,80,0
95.37133,95.46359,82,80,0
95.46657,95.55883,81,80,0
95.561806,95.65407,82,80,0
95.65705,95.749306,79,80,0
95.75229,95.84455,81,80,0
95.84753,95.93979,82,80,0
95.942764,96.03503,81,80,0
96.038,96.130264,79,80,0
96.13324,96.2255,78,80,0
96.22848,96.32074,75,80,0
96.323715,96.41598,74,80,0
96.41895,96.511215,72,80,0
96.51419,96.60645,70,80,0
96.60943,96.70169,69,80,0
96.704666,96.79693,67,80,0
96.799904,96.892166,74,80,0
96.89514,96.987404,73,80,0
96.99038,97.08264,74,80,0
97.08562,97.17788,70,80,0
97.180855,97.27312,69,80,0
97.27609,97.368355,67,80,0
97.37133,97.46359,76,80,0
97.46657,97.55883,75,80,0
97.561806,97.65407,76,80,0
97.65704,97.749306,73,80,0
97.75228,97.84454,67,80,0
97.84752,97.93978,66,80,0
97.94276,98.03502,74,80,0
98.037994,98.13026,73,80,0
98.13323,98.225494,74,80,0
98.22847,98.32073,69,80,0
98.323715,98.41597,66,80,0
98.41895,98.70169,62,80,0
99.561806,99.70168,62,80,0
99.704666,99.84454,61,80,0
99.84752,99.987404,62,81,0
99.99038,100.13026,63,82,0
100.13323,100.41597,62,83,0
100.418945,100.70168,50,85,0
100.70466,100.9874,52,87,0
100.99037,101.27312,54,89,0
101.27609,101.84454,55,90,0
101.84752,101.9874,58,94,0
101.99037,102.13026,57,95,0
102.13323,102.27311,55,96,0
102.276085,102.41597,57,97,0
102.418945,102.70168,59,98,0
102.70466,102.9874,55,99,0
102.99037,103.13026,79,110,0
103.13323,103.27311,78,110,0
103.276085,103.41597,79,110,0
103.418945,103.55882,80,110,0
103.5618,103.844536,79,110,0
103.84752,104.13026,67,110,0
104.13323,104.41597,69,110,0
104.13323,104.70168,65,110,0
104.13323,104.70168,62,110,0
104.418945,104.70168,71,110,0
104.70466,105.27311,72,110,0
104.70466,105.27311,63,110,0
104.70466,105.27311,60,110,0
105.276085,105.41597,75,110,0
105.418945,105.55882,74,110,0
105.5618,105.70168,72,110,0
105.276085,105.844536,65,110,0
105.70466,105.844536,74,110,0
105.84751,106.13025,75,110,0
105.84751,106.41596,63,110,0
106.133224,106.41596,72,110,0
106.418945,106.70168,77,110,0
106.418945,106.9874,65,110,0
106.70466,106.9874,74,110,0
106.99037,107.55882,79,110,0
106.99037,107.55882,67,110,0
107.5618,107.701675,82,110,0
107.70465,107.844536,80,110,0
107.84751,107.98739,79,110,0
107.5618,108.13025,68,110,0
107.99037,108.13025,80,110,0
108.133224,108.41596,82,110,0
108.133224,108.701675,70,110,0
108.41894,108.701675,79,110,0
108.70465,108.98739,84,110,0
108.70465,109.2731,72,110,0
108.990364,109.2731,80,110,0
109.276085,109.56713,86,110,0
109.276085,109.56713,74,110,0
109.5702,109.86125,82,110,0
109.5702,109.86125,70,110,0
109.86432,110.155365,87,110,0
109.86432,110.155365,75,110,0
110.15843,110.449486,78,110,0
110.15843,110.449486,75,110,0
110.45255,110.755486,75,80,0
110.45255,111.06161,79,80,0
110.758675,111.3773,70,80,0
111.0648,111.693085,74,80,0
111.380585,111.693085,68,80,0
111.69637,112.00887,75,80,0
111.69637,112.00887,67,80,0
112.297874,113.15204,75,110,0
112.297874,113.15204,87,110,0
113.44073,114.2949,63,110,0
113.44073,114.2949,75,110,0
114.58359,114.866325,73,110,0
114.8693,115.15204,71,80,0
115.155014,115.44607,72,80,0
115.449135,115.74018,70,80,0
114.58359,116.05575,63,110,0
114.58359,116.05575,75,110,0
115.74325,116.05575,68,80,0
116.05904,116.37154,74,80,0
116.05904,116.37154,68,80,0
116.05904,116.37154,62,80,0
116.374825,116.687325,75,80,0
116.374825,116.687325,67,80,0
116.374825,116.687325,63,80,0
116.976326,117.00907,84,80,0
117.01205,117.113235,82,80,0
117.11919,117.25906,81,80,0
117.26205,117.401924,82,80,0
117.4049,117.544785,84,80,0
117.54776,117.8305,82,80,0
117.83347,118.11621,70,80,0
117.83347,118.11621,62,80,0
118.11919,118.401924,72,80,0
118.11919,118.401924,63,80,0
118.4049,118.68764,74,80,0
118.4049,118.68764,65,80,0
118.69061,118.97335,75,80,0
118.69061,118.97335,67,80,0
119.26204,119.29478,80,80,0
119.29775,119.39895,79,80,0
119.4049,119.54478,78,80,0
119.54775,119.68764,79,80,0
119.69061,119.83049,80,80,0
119.83347,120.11621,79,80,0
120.11919,120.401924,67,80,0
120.11919,120.401924,59,80,0
120.4049,120.68764,69,80,0
120.4049,120.68764,60,80,0
120.69061,120.97335,71,80,0
120.69061,120.97335,62,80,0
120.976326,121.25906,72,80,0
120.976326,121.25906,63,80,0
121.54775,122.40192,72,110,0
121.54775,122.40192,84,110,0
122.69061,123.54478,60,110,0
122.69061,123.54478,72,110,0
123.833466,124.1162,70,110,0
124.11918,124.40192,67,110,0
124.40489,124.695946,68,110,0
124.69901,124.99007,67,110,0
123.833466,125.305626,60,110,0
123.833466,125.305626,72,110,0
124.993126,125.305626,65,110,0
125.308914,125.621414,65,110,0
125.308914,125.621414,71,110,0
125.308914,125.621414,59,110,0
125.6247,125.9372,72,110,0
125.6247,125.9372,63,110,0
125.6247,125.9372,60,110,0
126.22621,126.25895,80,80,0
126.261925,126.36311,79,80,0
126.369064,126.50895,78,80,0
126.511925,126.6518,79,80,0
126.65478,126.79466,80,80,0
126.79764,127.080376,79,80,0
127.08335,127.36609,67,80,0
127.08335,127.36609,59,80,0
127.369064,127.6518,69,80,0
127.369064,127.6518,60,80,0
127.65478,127.937515,71,80,0
127.65478,127.937515,62,80,0
127.94049,128.22324,63,80,0
127.94049,128.22324,72,80,0
128.51192,128.54466,73,80,0
128.54764,128.64882,72,80,0
128.65477,128.79466,71,80,0
128.79764,128.93752,72,80,0
128.94049,129.08037,73,80,0
129.08334,129.36609,72,80,0
129.36906,129.6518,76,80,0
129.36906,129.6518,84,80,0
129.65477,129.93752,77,86,0
129.65477,129.93752,86,86,0
129.94049,130.22322,79,93,0
129.94049,130.22322,88,93,0
130.22621,130.50894,80,110,0
130.22621,130.50894,89,110,0
130.79764,131.6518,77,110,0
130.79764,131.6518,89,110,0
131.94049,132.79465,65,110,0
131.94049,132.79465,77,110,0
133.08334,133.6518,75,110,0
133.08334,133.93752,78,110,0
133.65477,133.93752,73,110,0
134.2262,134.25894,87,110,0
134.26192,134.3631,85,110,0
134.36906,134.50894,84,110,0
134.51192,134.6518,85,110,0
134.65477,134.79465,87,110,0
134.79762,135.08037,85,110,0
135.36905,135.93752,73,110,0
135.36905,136.22322,75,110,0
135.94049,136.22322,72,110,0
136.51192,136.54465,86,110,0
136.54762,136.64882,84,110,0
136.65477,136.79465,83,110,0
136.79762,136.9375,84,110,0
136.94049,137.08037,86,110,0
137.08334,137.36607,84,110,0
137.65477,138.22322,72,110,0
137.65477,138.50894,74,110,0
138.2262,138.50894,70,110,0
138.79762,139.6518,67,110,0
138.79762,139.6518,79,110,0
139.94048,140.79465,67,110,0
139.94048,140.79465,79,110,0
141.08334,141.36607,77,110,0
141.36905,141.6518,74,110,0
141.65477,141.94582,75,110,0
141.94888,142.23993,74,107,0
141.08334,142.55225,67,110,0
141.08334,142.55225,79,110,0
142.243,142.55225,75,103,0
142.5555,142.86475,79,99,0
142.5555,142.86475,76,99,0
142.5555,142.86475,67,99,0
142.5555,142.86475,70,99,0
142.868,143.17725,78,95,0
142.868,143.17725,74,95,0
142.868,143.17725,69,95,0
142.868,143.17725,66,95,0
143.793,144.08987,84,110,0
144.093,144.38988,82,110,0
144.393,144.68988,81,110,0
144.693,144.98987,82,110,0
143.518,145.01488,86,110,0
144.993,145.28987,85,110,0
144.993,145.28987,79,110,0
145.293,145.58987,86,110,0
145.293,145.58987,78,110,0
146.193,146.48987,72,108,0
146.493,146.78987,70,106,0
146.793,147.08987,69,103,0
145.893,147.4055,74,110,0
147.093,147.4055,70,101,0
147.40878,147.72128,73,98,0
147.40878,147.72128,67,98,0
147.40878,147.72128,79,98,0
147.72458,148.02235,74,96,0
147.72458,148.02235,66,96,0
147.72458,148.02235,78,96,0
151.73961,151.87949,86,80,0
151.73961,151.87949,74,80,0
151.88246,152.02235,85,80,0
151.88246,152.02235,73,80,0
152.02533,152.1652,86,80,0
152.02533,152.1652,74,80,0
152.16818,152.30806,88,80,0
152.16818,152.30806,76,80,0
152.31104,152.59378,86,80,0
152.31104,152.59378,74,80,0
152.59676,152.87949,74,80,0
152.59676,152.87949,62,80,0
152.88246,153.1652,76,80,0
152.88246,153.1652,64,80,0
153.16818,153.45091,78,80,0
153.16818,153.45091,66,80,0
153.45389,154.02234,79,80,0
153.45389,154.02234,67,80,0
154.02533,154.1652,83,80,0
154.02533,154.1652,71,80,0
154.16818,154.30806,81,80,0
154.16818,154.30806,69,80,0
154.31104,154.45091,79,80,0
154.31104,154.45091,67,80,0
154.45389,154.59378,81,80,0
154.45389,154.59378,69,80,0
154.59676,154.87949,83,80,0
154.59676,154.87949,71,80,0
154.88246,155.1652,79,80,0
154.88246,155.1652,67,80,0
155.16818,155.45091,85,80,0
155.16818,155.45091,73,80,0
155.45389,155.73663,81,80,0
155.45389,155.73663,69,80,0
155.73961,156.30806,86,80,0
155.73961,156.30806,74,80,0
156.31104,156.45091,86,80,0
156.31104,156.45091,74,80,0
156.45389,156.59377,85,80,0
156.45389,156.59377,73,80,0
156.59674,156.73663,86,80,0
156.59674,156.73663,74,80,0
156.73961,156.87949,88,80,0
156.73961,156.87949,76,80,0
156.88246,157.1652,86,80,0
156.88246,157.1652,74,80,0
157.16818,157.45091,74,80,0
157.16818,157.45091,62,80,0
157.45389,157.73663,76,80,0
157.45389,157.73663,64,80,0
157.73961,158.02234,78,80,0
157.73961,158.02234,66,80,0
158.02531,158.59377,79,80,0
158.02531,158.59377,67,80,0
158.59674,158.73663,83,80,0
158.59674,158.73663,71,80,0
158.73961,158.87949,81,80,0
158.73961,158.87949,69,80,0
158.88246,159.02234,79,80,0
158.88246,159.02234,67,80,0
159.02531,159.16519,81,80,0
159.02531,159.16519,69,80,0
159.16817,159.45091,83,80,0
159.16817,159.45091,71,80,0
159.45389,159.73663,79,80,0
159.45389,159.73663,67,80,0
159.73961,160.02234,84,80,0
159.73961,160.02234,72,80,0
160.02531,160.30806,81,80,0
160.02531,160.30806,69,80,0
160.31104,160.59377,79,80,0
160.31104,160.59377,67,80,0
160.88246,160.97472,67,80,0
160.97769,161.06996,71,80,0
161.07294,161.16519,79,81,0
161.16817,161.26044,67,82,0
161.26341,161.35567,72,83,0
161.35864,161.45091,78,84,0
161.45389,161.54614,67,85,0
161.54912,161.64139,74,86,0
161.64436,161.73662,77,86,0
161.7396,161.83186,67,87,0
161.83484,161.9271,72,88,0
161.93007,162.02234,76,89,0
162.02531,162.11757,67,90,0
162.12054,162.21281,72,91,0
162.21579,162.30804,75,92,0
162.31104,162.40329,69,93,0
162.40627,162.49854,72,93,0
162.50151,162.59377,75,94,0
162.59674,162.68901,72,95,0
162.69199,162.78424,75,96,0
162.78722,162.87949,72,97,0
162.88246,162.97472,71,98,0
162.97769,163.06996,74,99,0
163.07294,163.16519,71,99,0
163.16817,163.30804,76,80,0
163.31102,163.45091,74,80,0
163.45389,163.59377,73,80,0
163.16817,163.73662,69,80,0
163.16817,163.73662,66,80,0
163.59674,163.73662,74,80,0
163.7396,164.02234,67,80,0
163.7396,164.02234,62,80,0
163.7396,164.02234,71,80,0
164.02531,164.30804,74,80,0
164.31102,164.45091,76,80,0
164.45389,164.59377,74,80,0
164.59674,164.73662,73,80,0
164.31102,164.87947,69,80,0
164.31102,164.87947,66,80,0
164.7396,164.87947,74,80,0
164.88246,165.16519,67,80,0
164.88246,165.16519,62,80,0
164.88246,165.16519,71,80,0
165.45389,165.54614,71,80,0
165.54912,165.64139,81,80,0
165.64436,165.73662,79,81,0
165.7396,165.83186,72,82,0
165.83484,165.9271,79,83,0
165.93007,166.02234,78,84,0
166.02531,166.11757,74,85,0
166.12054,166.21281,79,86,0
166.21579,166.30804,77,86,0
166.31102,166.40329,67,87,0
166.40627,166.49852,77,88,0
166.5015,166.59377,76,89,0
166.59674,166.689,72,90,0
166.69197,166.78424,77,91,0
166.78722,166.87947,75,92,0
166.88245,166.97472,72,93,0
166.97769,167.06995,77,93,0
167.07292,167.16519,75,94,0
167.16817,167.26042,72,95,0
167.2634,167.35567,77,96,0
167.35864,167.4509,75,97,0
167.45387,167.54614,71,98,0
167.54912,167.64137,75,99,0
167.64436,167.73662,74,99,0
167.7396,167.87947,76,80,0
167.88245,168.02234,74,80,0
168.02531,168.16519,73,80,0
167.7396,168.30804,69,80,0
167.7396,168.30804,66,80,0
168.16817,168.30804,74,80,0
168.31102,168.59377,67,80,0
168.31102,168.59377,62,80,0
168.31102,168.59377,71,80,0
168.59674,168.87947,74,80,0
168.88245,169.02232,76,80,0
169.02531,169.16519,74,80,0
169.16817,169.30804,73,80,0
168.88245,169.4509,69,80,0
168.88245,169.4509,66,80,0
169.31102,169.4509,74,80,0
169.45387,169.73662,67,80,0
169.45387,169.73662,62,80,0
169.45387,169.73662,71,80,0
170.69197,170.78424,83,80,0
170.78722,170.87947,84,80,0
170.88245,170.97472,86,80,0
170.97769,171.06995,84,80,0
171.07292,171.16519,83,80,0
171.16817,171.26042,84,80,0
171.2634,171.35567,81,80,0
171.35864,171.4509,83,80,0
171.45387,171.54614,84,80,0
171.54912,171.64137,83,80,0
171.64435,171.73662,81,80,0
171.7396,171.83185,83,80,0
171.83482,171.9271,79,80,0
171.93007,172.02232,81,80,0
172.0253,172.11757,83,80,0
172.12054,172.2128,81,80,0
172.21577,172.30804,79,80,0
172.31102,172.40327,78,80,0
172.40625,172.49852,76,80,0
172.5015,172.59375,74,80,0
172.59673,172.689,72,80,0
172.69197,172.78423,71,80,0
172.7872,172.87947,69,80,0
172.88245,172.9747,67,80,0
172.97768,173.06995,74,80,0
173.07292,173.16518,73,80,0
173.16817,173.26042,74,80,0
173.2634,173.35567,71,80,0
173.35864,173.4509,69,80,0
173.45387,173.54614,67,80,0
173.54912,173.64137,76,80,0
173.64435,173.73662,75,80,0
173.7396,173.83185,76,80,0
173.83482,173.9271,73,80,0
173.93007,174.02232,67,80,0
174.0253,174.11757,66,80,0
174.12054,174.2128,74,80,0
174.21577,174.30804,73,80,0
174.31102,174.40327,74,80,0
174.40625,174.49852,69,80,0
174.5015,174.59375,66,80,0
174.59673,174.87947,62,80,0
175.2634,175.35565,83,80,0
175.35863,175.4509,84,80,0
175.45387,175.54613,86,80,0
175.5491,175.64137,84,80,0
175.64435,175.7366,83,80,0
175.7396,175.83185,84,80,0
175.83482,175.92708,81,80,0
175.93007,176.02232,83,80,0
176.0253,176.11757,84,80,0
176.12054,176.2128,83,80,0
176.21577,176.30804,81,80,0
176.31102,176.40327,83,80,0
176.40625,176.49852,79,80,0
176.5015,176.59375,81,80,0
176.59673,176.689,83,80,0
176.69197,176.78423,81,80,0
176.7872,176.87947,79,80,0
176.88245,176.9747,78,80,0
176.97768,177.06995,76,80,0
177.07292,177.16518,74,80,0
177.16815,177.26042,72,80,0
177.2634,177.35565,71,80,0
177.35863,177.4509,69,80,0
177.45387,177.54613,67,80,0
177.5491,177.64137,66,80,0
177.64435,177.7366,67,80,0
177.73958,177.83185,69,80,0
177.83482,177.92708,71,80,0
177.93005,178.02232,72,80,0
178.0253,178.11755,74,80,0
178.12053,178.2128,62,80,0
178.21577,178.30803,61,80,0
178.311,178.40327,62,80,0
178.40625,178.4985,64,80,0
178.5015,178.59375,66,80,0
178.59673,178.689,67,80,0
178.69197,178.78423,79,80,0
178.7872,178.87947,67,80,0
178.88245,178.9747,79,80,0
178.97768,179.06995,67,80,0
179.07292,179.16518,79,80,0
179.16815,179.26042,67,80,0
179.2634,179.35565,79,80,0
179.35863,179.4509,67,80,0
179.45387,179.54613,79,80,0
179.5491,179.64137,67,80,0
179.64435,179.7366,79,80,0
179.73958,179.83185,67,80,0
179.83482,179.92708,79,80,0
179.93005,180.02232,67,80,0
180.0253,180.11755,79,80,0
180.12053,180.2128,67,80,0
180.21577,180.30803,79,80,0
180.311,180.40327,67,80,0
180.40625,180.4985,79,80,0
180.50148,180.59375,67,80,0
180.59673,180.68898,79,80,0
180.69196,180.78423,67,80,0
180.7872,180.87946,79,80,0
180.88243,180.9747,67,80,0
180.97768,181.06993,79,80,0
181.0729,181.16518,67,80,0
181.16815,181.2604,79,80,0
181.2634,181.35565,67,80,0
181.35863,181.4509,79,80,0
181.45387,181.59375,76,80,0
181.59673,181.7366,74,80,0
181.73958,181.87946,73,80,0
181.45387,182.02232,69,80,0
181.45387,182.02232,66,80,0
181.88243,182.02232,74,80,0
182.0253,182.30803,67,80,0
182.0253,182.30803,62,80,0
182.0253,182.30803,71,80,0
182.311,182.59375,74,80,0
182.59673,182.7366,76,80,0
182.73958,182.87946,74,80,0
182.88243,183.02232,73,80,0
182.59673,183.16518,69,80,0
182.59673,183.16518,66,80,0
183.0253,183.16518,74,80,0
183.16815,183.2604,71,80,0
183.16815,183.2604,67,80,0
183.16815,183.2604,62,80,0
183.26338,183.35565,79,80,0
183.40327,183.49553,67,80,0
183.45386,183.54613,79,80,0
183.5491,183.64136,67,80,0
183.64433,183.7366,79,80,0
183.73958,183.83183,67,80,0
183.83482,183.92708,79,80,0
183.93005,184.02231,67,80,0
184.0253,184.11755,79,80,0
184.12053,184.2128,67,80,0
184.21577,184.30803,79,80,0
184.311,184.40327,67,80,0
184.40625,184.4985,79,80,0
184.50148,184.59375,67,80,0
184.59673,184.68898,79,80,0
184.69196,184.78423,67,80,0
184.7872,184.87946,79,80,0
184.88243,184.9747,67,80,0
184.97768,185.06993,79,80,0
185.0729,185.16518,67,80,0
185.16815,185.2604,79,80,0
185.26338,185.35565,67,80,0
185.35863,185.45088,79,80,0
185.45386,185.54613,67,80,0
185.5491,185.64136,79,80,0
185.64433,185.7366,67,80,0
185.73958,185.83183,79,80,0
185.83481,185.92708,67,80,0
185.93005,186.02231,79,80,0
186.02528,186.11755,66,80,0
186.12053,186.21278,69,80,0
186.21576,186.30803,74,80,0
186.311,186.40326,78,80,0
186.40623,186.4985,74,80,0
186.50148,186.59373,69,80,0
186.59673,186.68898,67,80,0
186.69196,186.78421,71,80,0
186.7872,186.87946,74,80,0
186.88243,186.9747,79,80,0
186.97768,187.06993,74,80,0
187.0729,187.16518,71,80,0
187.16815,187.2604,66,80,0
187.26338,187.35565,69,80,0
187.35863,187.45088,74,80,0
187.45386,187.54613,78,80,0
187.5491,187.64136,74,80,0
187.64433,187.7366,69,80,0
187.73958,187.83183,67,80,0
187.83481,187.92708,71,80,0
187.93005,188.02231,74,80,0
188.02528,188.11755,79,80,0
188.12053,188.21278,74,80,0
188.21576,188.30803,71,80,0
188.311,188.45088,84,80,0
188.45386,188.59373,83,80,0
188.59671,188.7366,82,80,0
188.73958,188.87946,83,80,0
188.88243,189.16516,79,80,0
189.16814,189.45088,83,80,0
189.45386,189.59373,84,80,0
189.59671,189.7366,83,80,0
189.73958,189.87946,82,80,0
189.88243,190.02231,83,80,0
190.02528,190.30803,79,80,0
190.311,190.59373,83,80,0
190.59671,190.68898,71,80,0
190.69196,190.78421,74,80,0
190.78719,190.87946,79,80,0
190.88243,190.97469,83,80,0
190.97766,191.06993,79,80,0
191.0729,191.16516,74,80,0
191.16814,191.2604,72,80,0
191.26338,191.35564,76,80,0
191.35861,191.45088,79,80,0
191.45386,191.54611,84,80,0
191.54909,191.64136,79,80,0
191.64433,191.73659,76,80,0
191.73956,191.83183,71,80,0
191.83481,191.92706,74,80,0
191.93004,192.02231,79,80,0
192.02528,192.11754,83,80,0
192.12053,192.21278,79,80,0
192.21576,192.30803,74,80,0
192.311,192.40326,72,80,0
192.40623,192.4985,76,80,0
192.50148,192.59373,79,80,0
192.59671,192.68898,84,80,0
192.69196,192.78421,79,80,0
192.78719,192.87946,76,80,0
192.88243,193.02231,89,80,0
193.02528,193.16516,88,80,0
193.16814,193.30801,87,80,0
193.31099,193.45088,88,80,0
193.45386,193.73659,84,80,0
193.73956,194.02231,88,80,0
194.02528,194.16516,89,80,0
194.16814,194.30801,88,80,0
194.31099,194.45088,87,80,0
194.45386,194.59373,88,80,0
194.59671,194.87944,84,80,0
194.88243,195.16516,88,80,0
195.16814,195.30801,89,80,0
195.31099,195.45088,88,81,0
195.45386,195.59373,87,81,0
195.59671,195.73659,88,82,0
195.73956,195.87944,86,83,0
195.88242,196.02231,84,84,0
196.02528,196.16516,83,84,0
196.16814,196.30801,84,85,0
196.31099,196.45088,83,86,0
196.45386,196.59373,81,87,0
196.59671,196.73659,80,87,0
196.73956,196.87944,81,88,0
196.88242,197.02231,79,89,0
197.02528,197.16516,78,90,0
197.16814,197.30801,77,90,0
197.31099,197.45087,78,91,0
197.45386,197.59373,88,92,0
197.59671,197.73659,86,93,0
197.73956,197.87944,85,93,0
197.88242,198.02231,86,94,0
198.02528,198.16516,84,95,0
198.16814,198.30801,83,96,0
198.31099,198.45087,82,96,0
198.45384,198.59373,83,97,0
198.59671,198.73659,83,98,0
198.59671,198.87944,76,98,0
198.59671,198.87944,73,98,0
198.73956,198.87944,81,99,0
198.88242,199.02231,80,99,0
198.88242,199.16516,76,99,0
198.88242,199.16516,73,99,0
199.02528,199.16516,81,100,0
199.16814,199.30801,83,101,0
199.16814,199.45087,78,101,0
199.16814,199.45087,74,101,0
199.31099,199.45087,81,102,0
199.45384,199.59373,80,102,0
199.59671,199.73659,81,103,0
199.73956,199.87944,88,104,0
199.88242,200.0223,86,105,0
200.02527,200.16516,85,105,0
200.16814,200.30801,86,106,0
200.31099,200.45087,84,107,0
200.45384,200.59373,83,108,0
200.59671,200.73659,82,108,0
200.73956,200.87944,83,109,0
200.88242,201.0223,83,110,0
200.88242,201.16516,76,110,0
200.88242,201.16516,73,110,0
201.02527,201.16516,81,110,0
201.16814,201.30801,80,110,0
201.16814,201.45087,76,110,0
201.16814,201.45087,73,110,0
201.31099,201.45087,81,110,0
201.45384,201.59784,83,110,0
201.45384,201.7449,78,110,0
201.45384,201.7449,74,110,0
201.6009,201.7449,81,110,0
201.74797,201.89195,80,110,0
201.89502,202.03902,81,110,0
202.04208,202.18608,83,110,0
202.04208,202.33313,76,110,0
202.04208,202.33313,73,110,0
202.18913,202.33313,81,110,0
202.3362,202.4802,80,110,0
202.3362,202.62724,76,110,0
202.3362,202.62724,73,110,0
202.48326,202.62724,81,110,0
202.63031,202.78018,83,110,0
202.63031,202.93324,78,110,0
202.63031,202.93324,74,110,0
202.78337,202.93324,81,110,0
202.93643,203.0863,80,110,0
203.0895,203.23936,81,110,0
203.24255,203.3988,83,110,0
203.24255,203.55838,76,110,0
203.24255,203.55838,73,110,0
203.40213,203.55838,81,110,0
203.5617,203.71796,80,110,0
203.5617,203.87753,76,110,0
203.5617,203.87753,73,110,0
203.72128,203.87753,81,110,0
203.88086,204.19667,74,110,0
204.61671,204.71123,74,80,0
204.71426,204.80878,76,80,0
204.81183,204.90634,78,80,0
204.9094,205.0039,76,80,0
205.00696,205.10147,74,80,0
205.20207,205.29659,79,80,0
205.29964,205.39415,81,80,0
205.3972,205.49171,83,80,0
205.49475,205.58926,81,80,0
205.59232,205.68683,79,80,0
205.78745,205.88196,74,80,0
205.885,205.9795,76,80,0
205.98256,206.07707,78,80,0
206.08012,206.17464,76,80,0
206.17769,206.27219,74,80,0
206.3728,206.46732,79,80,0
206.47037,206.56488,81,80,0
206.56792,206.66243,83,80,0
206.66548,206.76,81,80,0
206.76305,206.85756,79,80,0
206.95816,207.05267,74,80,0
207.05573,207.15024,76,80,0
207.15329,207.2478,78,80,0
207.25085,207.34537,76,80,0
207.3484,207.44292,74,80,0
207.54353,207.63805,79,80,0
207.6411,207.7356,81,80,0
207.73865,207.83316,83,80,0
207.83621,207.93073,81,80,0
207.93378,208.02829,79,80,0
208.03134,208.12584,84,80,0
208.12889,208.2234,81,80,0
208.22646,208.32097,78,80,0
208.32402,208.41853,72,80,0
208.42157,208.51608,69,80,0
208.51913,208.61365,66,80,0
208.6167,208.71121,67,80,0
208.71426,208.80878,71,80,0
208.81181,208.90633,67,80,0
208.90938,209.00389,62,80,0
209.00694,209.10146,59,80,0
209.1045,209.19902,67,80,0
209.29962,209.39413,62,80,0
209.39719,209.4917,64,80,0
209.49475,209.58925,66,80,0
209.5923,209.68681,64,80,0
209.68987,209.78438,62,80,0
209.88498,209.97949,67,80,0
209.98254,210.07706,69,80,0
210.08011,210.17462,71,80,0
210.17767,210.27219,69,80,0
210.27522,210.36974,67,80,0
210.37279,210.4673,72,80,0
210.47035,210.56487,69,80,0
210.56792,210.66243,66,80,0
210.66547,210.75998,60,80,0
210.76303,210.85754,57,80,0
210.8606,210.95511,54,80,0
210.95816,211.05267,55,80,0
211.05571,211.15022,59,80,0
211.15327,211.24779,55,80,0
211.25084,211.34535,50,80,0
211.3484,211.4429,47,80,0
211.44595,211.54047,55,80,0
211.64108,211.7356,50,80,0
211.73863,211.83315,52,80,0
211.8362,211.93071,54,80,0
211.93376,212.02827,52,80,0
212.03133,212.12584,50,80,0
212.22644,212.32095,55,80,0
212.324,212.41852,57,80,0
212.42157,212.51608,59,80,0
212.51912,212.61363,57,80,0
212.61668,212.7112,55,80,0
212.71425,212.80876,60,80,0
212.81181,212.90631,57,80,0
212.90936,213.00388,54,80,0
213.00693,213.10144,48,80,0
213.10449,213.199,45,80,0
213.20206,213.29655,42,80,0
213.2996,213.39412,43,80,0
213.39717,213.49168,47,80,0
213.49474,213.58925,50,80,0
213.59229,213.6868,55,80,0
213.68985,213.78436,59,80,0
213.78741,213.88193,62,80,0
213.88498,213.97949,60,80,0
213.98253,214.07704,57,80,0
214.0801,214.1746,54,80,0
214.17766,214.27217,48,80,0
214.27522,214.36974,45,80,0
214.37277,214.46729,42,80,0
214.47034,214.56485,43,80,0
214.5679,214.66241,47,80,0
214.66547,214.75996,50,80,0
214.76302,214.85753,55,80,0
214.86058,214.9551,59,80,0
214.95815,215.05266,62,80,0
215.0557,215.1502,60,80,0
215.15326,215.24777,57,80,0
215.25082,215.34534,54,80,0
215.34839,215.4429,48,80,0
215.44594,215.54045,45,80,0
215.5435,215.63802,42,80,0
215.64107,215.73558,43,80,0
215.73863,215.83315,59,80,0
215.83618,215.9307,55,80,0
215.93375,216.02826,50,80,0
216.03131,216.12582,47,80,0
216.12888,216.22339,59,80,0
216.22643,216.32094,50,80,0
216.32399,216.4185,62,80,0
216.42155,216.51607,59,80,0
216.51912,216.61362,55,80,0
216.61667,216.71118,50,80,0
216.71423,216.80875,62,80,0
216.8118,216.90631,55,80,0
216.90935,217.00386,67,80,0
217.00691,217.10143,62,80,0
217.10448,217.19899,59,80,0
217.20204,217.29655,55,80,0
217.29959,217.3941,67,80,0
217.39716,217.49167,59,80,0
217.49472,217.58923,71,80,0
217.59229,217.6868,67,80,0
217.68983,217.78435,62,80,0
217.7874,217.88191,74,80,0
217.88496,217.97948,71,80,0
217.98253,218.07703,67,80,0
218.08008,218.17459,79,81,0
218.17764,218.27216,67,82,0
218.2752,218.36972,79,83,0
218.37277,218.46727,67,85,0
218.47032,218.56483,79,86,0
218.56789,218.6624,67,87,0
218.66545,218.75996,79,88,0
218.763,218.85751,67,90,0
218.86057,218.95508,79,91,0
218.95813,219.05264,67,92,0
219.0557,219.1502,79,93,0
219.15324,219.24776,67,95,0
219.25081,219.34532,79,96,0
219.34837,219.44289,67,97,0
219.44594,219.54045,79,98,0
219.54349,219.638,67,100,0
219.64105,219.73557,79,101,0
219.73862,219.83313,67,102,0
219.83618,219.93068,79,103,0
219.93373,220.02824,67,105,0
220.0313,220.12581,79,106,0
220.12886,220.22337,67,107,0
220.22641,220.32092,79,108,0
220.32397,220.41849,67,110,0
220.42154,220.51605,79,110,0
220.5191,220.61362,67,110,0
220.61665,220.71117,79,110,0
220.71422,220.80873,67,110,0
220.81178,220.9063,79,110,0
220.90935,221.00386,76,110,0
221.0069,221.10141,78,110,0
221.10446,221.19897,79,110,0
221.20203,221.29654,72,110,0
221.29959,221.3941,74,110,0
221.39714,221.49165,76,110,0
221.4947,221.58922,69,110,0
221.59227,221.68678,71,108,0
221.68983,221.78433,72,105,0
221.78738,221.8819,64,103,0
221.88495,221.97946,71,100,0
221.98251,222.07703,69,98,0
222.08006,222.17458,62,95,0
222.17763,222.27214,69,93,0
222.27519,222.3697,67,90,0
222.37276,222.46727,60,88,0
222.4703,222.56482,67,85,0
222.56787,222.66238,66,83,0
222.66544,222.75995,67,80,0
222.763,222.85751,79,80,0
222.86055,222.95506,67,80,0
222.95811,223.05263,79,81,0
223.05568,223.15019,67,81,0
223.15324,223.24774,79,82,0
223.2508,223.3453,67,82,0
223.34836,223.44287,79,82,0
223.44592,223.54044,67,83,0
223.54349,223.63799,79,83,0
223.64104,223.73555,67,84,0
223.7386,223.83311,79,84,0
223.83617,223.93068,67,85,0
223.93372,224.02823,79,85,0
224.03128,224.1258,67,85,0
224.12885,224.22336,79,86,0
224.22641,224.32092,67,86,0
224.32396,224.41847,79,87,0
224.42152,224.51604,67,87,0
224.51909,224.6136,79,87,0
224.61665,224.71117,67,88,0
224.7142,224.80872,79,88,0
224.81177,224.90628,67,89,0
224.90933,225.00385,79,89,0
225.0069,225.1014,67,90,0
225.10445,225.19896,79,90,0
225.20201,225.29652,67,90,0
225.29958,225.39409,79,91,0
225.39713,225.49164,67,91,0
225.49469,225.5892,79,92,0
225.59225,225.68677,67,92,0
225.68982,225.78433,79,92,0
225.78737,225.88188,67,93,0
225.88493,225.97945,79,93,0
225.9825,226.07701,67,94,0
226.08006,226.17458,79,94,0
226.17761,226.27213,67,95,0
226.27518,226.36969,79,95,0
226.37274,226.46725,67,95,0
226.4703,226.56482,79,96,0
226.56786,226.66237,67,96,0
226.66542,226.75993,79,97,0
226.76299,226.8575,67,97,0
226.86055,226.95505,79,97,0
226.9581,227.05261,67,98,0
227.05566,227.15018,79,98,0
227.15323,227.24774,67,99,0
227.25078,227.34529,79,99,0
227.34834,227.44286,67,100,0
227.4459,227.54042,79,100,0
227.54347,227.63799,67,100,0
227.64102,227.73553,79,101,0
227.73859,227.8331,67,101,0
227.83615,227.93066,79,102,0
227.93372,228.02823,67,102,0
228.03127,228.12578,79,102,0
228.12883,228.22334,67,103,0
228.2264,228.3209,79,103,0
228.32396,228.41846,67,104,0
228.42151,228.51602,79,104,0
228.51907,228.61359,67,105,0
228.61664,228.71115,79,105,0
228.7142,228.8087,67,105,0
228.81175,228.90627,79,106,0
228.90932,229.00383,67,106,0
229.00688,229.1014,79,107,0
229.10443,229.19894,67,107,0
229.202,229.29651,79,107,0
229.29956,229.39407,67,108,0
229.39713,229.49164,79,108,0
229.49467,229.58919,67,109,0
229.59224,229.68675,79,109,0
229.6898,229.78432,67,100,0
229.78737,229.88188,79,100,0
229.88492,229.97943,67,100,0
229.98248,230.077,79,99,0
230.08005,230.17456,67,99,0
230.17761,230.27211,79,99,0
230.27516,230.36967,67,98,0
230.37273,230.46724,79,98,0
230.47029,230.5648,67,97,0
230.56784,230.66235,79,97,0
230.6654,230.75992,67,97,0
230.76297,230.85748,79,96,0
230.86053,230.95505,67,96,0
230.95808,231.0526,79,96,0
231.05565,231.15016,67,95,0
231.15321,231.24773,79,95,0
231.25078,231.34529,73,94,0
231.34833,231.44284,70,94,0
231.44589,231.5404,79,94,0
231.54346,231.63797,74,93,0
231.64102,231.73553,71,93,0
231.73857,231.83308,79,92,0
231.83614,231.93065,76,92,0
231.9337,232.02821,70,92,0
232.03127,232.12576,79,91,0
232.12881,232.22333,74,91,0
232.22638,232.32089,71,91,0
232.32394,232.41846,79,80,0
232.4215,232.516,67,80,0
232.51906,232.61357,79,80,0
232.61662,232.71114,67,80,0
232.71419,232.8087,79,80,0
232.81174,232.90625,67,80,0
232.9093,233.00381,79,80,0
233.00687,233.10138,67,80,0
233.10443,233.19894,79,80,0
233.20198,233.2979,67,80,0
233.301,233.39691,79,80,0
233.40001,233.49593,67,80,0
233.49901,233.59492,79,80,0
233.59802,233.69394,73,80,0
233.69704,233.79295,70,80,0
233.79605,233.89195,79,80,0
233.89505,233.99097,74,80,0
233.99406,234.08998,71,80,0
234.09308,234.189,79,80,0
234.19208,234.288,76,80,0
234.29109,234.38701,70,80,0
234.3901,234.48895,79,80,0
234.49214,234.59099,74,81,0
234.59418,234.69304,71,82,0
234.69623,234.79507,79,83,0
234.79826,234.89711,73,85,0
234.9003,234.99916,70,86,0
235.00235,235.1012,79,87,0
235.10439,235.20323,74,89,0
235.20642,235.30528,71,90,0
235.30847,235.40732,79,91,0
235.4105,235.50935,76,93,0
235.51254,235.6114,70,94,0
235.6146,235.71657,79,95,0
235.71985,235.82182,74,97,0
235.82512,235.9271,71,98,0
235.93037,236.03235,79,99,0
236.03564,236.13762,76,101,0
236.1409,236.24287,70,102,0
236.24617,236.36726,79,103,0
236.37117,236.49226,74,105,0
236.49617,236.61726,71,106,0
236.62117,236.74226,79,107,0
236.74617,236.8868,76,109,0
236.892,237.05347,70,110,0
237.05867,237.55347,79,111,0
237.05867,237.55347,74,111,0
237.05867,237.55347,71,111,0
238.05867,238.45554,67,80,0
238.45866,238.75554,66,80,0
238.75867,239.05554,65,80,0
239.05867,239.35555,64,80,0
239.20866,239.35555,55,80,0
239.35867,239.65555,63,80,0
239.35867,239.65555,60,80,0
239.65866,239.95554,63,80,0
239.65866,239.95554,60,80,0
239.95866,240.25554,63,80,0
239.95866,240.25554,60,80,0
240.25867,240.40555,59,80,0
240.25867,240.55554,62,80,0
240.40866,240.55554,52,80,0
240.55867,240.85555,61,80,0
240.85867,241.15555,60,80,0
241.15866,241.45554,59,80,0
242.80867,242.95554,67,80,0
242.95866,243.25554,72,80,0
243.25867,243.55554,72,80,0
243.55867,243.85555,72,80,0
243.85867,244.00554,71,80,0
244.00867,244.15555,64,80,0
244.15866,244.45554,69,80,0
244.45866,244.75554,69,80,0
244.75867,245.05554,69,80,0
245.05867,245.20554,67,80,0
245.35867,245.65555,74,80,0
245.35867,245.65555,86,80,0
245.65866,245.95554,73,83,0
245.65866,245.95554,85,83,0
245.95866,246.25554,72,87,0
245.95866,246.25554,84,87,0
246.25867,246.55554,71,90,0
246.25867,246.55554,83,90,0
246.55867,246.85555,70,94,0
246.55867,246.85555,82,94,0
246.85867,247.15555,70,97,0
246.85867,247.15555,82,97,0
247.15866,247.45554,82,101,0
247.15866,247.45554,70,101,0
247.45866,247.60555,81,104,0
247.45866,247.60555,69,104,0
247.60867,247.75554,74,106,0
247.60867,247.75554,62,106,0
247.75867,248.05554,79,108,0
247.75867,248.05554,67,108,0
248.05867,248.35555,79,111,0
248.05867,248.35555,67,111,0
248.35867,248.66472,79,110,0
248.35867,248.66472,67,110,0
248.66795,248.81937,78,110,0
248.66795,248.81937,66,110,0
248.82259,248.974,83,110,0
248.82259,248.974,71,110,0
248.97722,249.28328,76,110,0
248.97722,249.28328,88,110,0
249.2865,249.59256,76,110,0
249.2865,249.59256,88,110,0
249.59578,249.9116,88,110,0
249.59578,249.9116,76,110,0
249.91493,250.07118,86,110,0
249.91493,250.07118,74,110,0
250.07451,250.23076,79,110,0
250.07451,250.23076,67,110,0
250.23407,250.56393,84,110,0
250.23407,250.56393,72,110,0
250.56741,250.89726,84,110,0
250.56741,250.89726,72,110,0
250.90074,251.43929,84,110,0
250.90074,251.43929,72,110,0
251.44241,251.51428,62,80,0
251.51741,251.81429,72,80,0
251.81741,252.11429,72,80,0
252.64241,252.71428,74,80,0
252.7174,253.01428,84,80,0
253.01741,253.31429,84,80,0
252.1174,253.83928,72,80,0
253.31741,253.83928,84,80,0
253.8424,253.91428,62,80,0
253.9174,254.21428,72,80,0
254.2174,254.51428,72,80,0
255.0424,255.11429,74,80,0
255.1174,255.41428,84,80,0
255.4174,255.71428,84,80,0
254.51741,256.2469,72,80,0
255.7174,256.2469,84,80,0
256.25006,256.39993,62,80,0
256.3266,256.62952,72,80,0
256.63272,256.93564,72,80,0
256.93884,257.48752,72,80,0
257.49084,257.65518,62,80,0
257.57062,257.9199,73,80,0
257.92355,258.27283,73,80,0
258.2765,261.80225,73,80,0
261.8059,261.84634,76,80,0
261.85004,261.97504,74,80,0
261.9824,262.15518,73,80,0
262.15884,262.33163,74,80,0
262.33533,262.50812,76,80,0
262.51178,262.86105,74,80,0
262.86475,263.214,62,80,0
262.86475,263.214,54,80,0
263.21768,263.56693,64,80,0
263.21768,263.56693,55,80,0
263.57062,263.9199,66,80,0
263.57062,263.9199,57,80,0
263.92355,264.62576,67,80,0
263.92355,264.62576,59,80,0
266.1353,266.33115,71,80,0
266.33533,266.53116,69,80,0
266.5353,266.73114,68,80,0
266.5353,266.93115,60,80,0
266.73532,266.93115,69,80,0
266.93533,267.33115,59,80,0
266.93533,267.33115,71,80,0
267.33533,267.73114,67,80,0
267.33533,267.73114,59,80,0
267.73532,268.13116,73,80,0
267.73532,268.13116,67,80,0
267.73532,268.13116,61,80,0
268.1353,268.53116,69,80,0
268.1353,268.53116,67,80,0
268.1353,268.53116,61,80,0
268.73532,270.13116,62,80,0
268.83533,270.13116,66,80,0
268.93533,270.13116,69,80,0
269.0353,270.13116,74,80,0
270.93533,270.9697,76,80,0
270.9728,271.07907,74,80,0
271.08533,271.2322,73,80,0
271.23532,271.3822,74,80,0
271.3853,271.5322,76,80,0
271.5353,271.83218,74,80,0
271.83533,272.1322,60,80,0
271.83533,272.1322,54,80,0
271.83533,272.1322,62,80,0
272.1353,272.4322,64,80,0
272.1353,272.4322,60,80,0
272.1353,272.4322,55,80,0
272.43533,272.7322,66,80,0
272.43533,272.7322,60,80,0
272.43533,272.7322,57,80,0
272.73532,273.33218,67,80,0
272.73532,273.33218,59,80,0
272.73532,273.33218,55,80,0
274.73532,274.93115,71,80,0
274.93533,275.13116,69,80,0
275.1353,275.33115,68,80,0
275.1353,275.53116,62,80,0
275.33533,275.53116,69,80,0
275.5353,275.93115,71,80,0
275.5353,275.93115,62,80,0
275.93533,276.33115,67,80,0
275.93533,276.33115,64,80,0
276.33533,277.13116,72,80,0
276.33533,277.13116,69,80,0
276.33533,277.13116,64,80,0
277.93533,278.73114,66,80,0
277.93533,278.73114,62,80,0
277.93533,278.73114,69,80,0
279.1353,280.73114,62,80,0
279.23532,280.73114,67,80,0
279.33533,280.73114,74,80,0
281.1353,281.33115,71,80,0
281.33533,281.53116,69,80,0
281.5353,281.73114,68,80,0
281.5353,281.93115,62,80,0
281.73532,281.93115,69,80,0
281.93533,282.33115,71,80,0
281.93533,282.33115,62,80,0
282.33533,282.73114,67,80,0
282.33533,282.73114,64,80,0
282.73532,283.53116,72,80,0
282.73532,283.53116,69,80,0
282.73532,283.53116,64,80,0
284.33533,285.13116,62,80,0
284.33533,285.13116,66,80,0
284.33533,285.13116,69,80,0
289.46548,289.57428,88,110,0
289.5766,289.6854,86,110,0
289.6877,289.7965,85,110,0
289.7988,289.9076,86,110,0
289.9099,290.0187,76,110,0
289.9099,290.12982,66,110,0
290.02103,290.12982,74,110,0
290.13214,290.24094,73,110,0
290.24326,290.35205,74,110,0
290.35437,290.46317,88,110,0
290.46548,290.57428,86,110,0
290.5766,290.6854,85,110,0
290.68768,290.7965,86,110,0
290.7988,290.9076,76,110,0
290.7988,291.0187,66,110,0
290.9099,291.0187,74,110,0
291.02103,291.12982,73,110,0
291.13214,291.24094,74,110,0
291.24326,291.35205,88,110,0
291.35437,291.46317,86,110,0
291.46548,291.57428,85,110,0
291.5766,291.6854,86,110,0
291.68768,291.79648,76,110,0
291.68768,291.9076,66,110,0
291.7988,291.9076,74,110,0
291.9099,292.0187,73,110,0
292.02103,292.12982,74,110,0
292.13214,292.24094,76,110,0
292.13214,292.35205,66,110,0
292.24326,292.35205,74,110,0
292.35437,292.46317,73,110,0
292.46548,292.57428,74,110,0
292.5766,292.6854,76,110,0
292.5766,292.79648,66,110,0
292.68768,292.79648,74,110,0
292.7988,292.9076,73,110,0
292.9099,293.0187,74,110,0
293.02103,293.12982,76,110,0
293.02103,293.24094,66,110,0
293.13214,293.24094,74,110,0
293.24326,293.35205,73,110,0
293.35437,293.46317,74,110,0
293.46548,293.6854,67,110,0
293.46548,293.6854,71,110,0
294.13214,294.35205,61,80,0
294.13214,294.35205,55,80,0
294.35437,294.57428,62,80,0
294.35437,294.57428,54,80,0
294.7988,294.9076,76,80,0
294.9099,295.0187,74,80,0
295.02103,295.12982,73,80,0
295.13214,295.24094,74,80,0
295.24326,295.46317,71,80,0
295.9099,296.12982,61,80,0
295.9099,296.12982,55,80,0
296.13214,296.35205,62,80,0
296.13214,296.35205,54,80,0
296.57657,296.68536,88,80,0
296.68768,296.79648,86,80,0
296.7988,296.9076,85,80,0
296.9099,297.0187,86,80,0
297.02103,297.24094,83,80,0
297.68768,297.9076,61,82,0
297.68768,297.9076,55,82,0
298.13214,298.35205,67,87,0
298.13214,298.35205,61,87,0
298.57657,298.79648,73,91,0
298.57657,298.79648,67,91,0
299.02103,299.24094,79,96,0
299.02103,299.24094,73,96,0
299.46545,299.68536,85,101,0
299.46545,299.68536,79,101,0
299.9099,300.12982,85,106,0
299.9099,300.12982,79,106,0
300.35434,300.57425,85,110,0
300.35434,300.57425,79,110,0
300.57657,300.68536,88,110,0
300.57657,300.68536,78,110,0
300.68768,300.79648,86,110,0
300.7988,300.9076,85,110,0
300.9099,301.0187,86,110,0
301.02103,301.12982,88,110,0
301.13214,301.24094,86,110,0
301.24326,301.35205,85,110,0
301.35434,301.46313,86,110,0
301.46545,301.57425,88,110,0
301.57657,301.68536,86,110,0
301.68768,301.79648,85,110,0
301.7988,301.9076,86,110,0
301.9099,302.0187,88,110,0
302.02103,302.12982,86,110,0
302.13214,302.24094,85,110,0
302.24326,302.35205,86,110,0
302.35434,302.46313,88,110,0
302.46545,302.57425,86,110,0
302.57657,302.68536,85,110,0
302.68768,302.79648,86,110,0
302.7988,302.9076,88,110,0
302.9099,303.0187,86,110,0
303.02103,303.12982,85,110,0
303.13214,303.24094,86,110,0
303.24326,303.35205,88,110,0
303.35434,303.46313,86,110,0
303.46545,303.57425,85,110,0
303.57657,303.68536,86,110,0
303.68768,303.79648,88,110,0
303.7988,303.9076,86,110,0
303.9099,304.0187,85,110,0
304.02103,304.12982,86,110,0
304.13214,304.35205,83,80,0
304.57657,304.68536,76,80,0
304.68768,304.79648,74,80,0
304.7988,304.9076,73,80,0
304.9099,305.0187,74,80,0
305.02103,305.24094,71,80,0
305.46545,305.57425,64,80,0
305.57657,305.68536,62,80,0
305.68768,305.79648,61,80,0
305.7988,305.9076,62,80,0
305.9099,306.12982,59,80,0
309.9099,310.12982,72,120,0
309.9099,310.12982,78,120,0
309.9099,310.12982,81,120,0
309.9099,310.12982,84,120,0
310.1321,310.35202,84,120,0
310.1321,310.35202,81,120,0
310.1321,310.35202,78,120,0
310.1321,310.35202,72,120,0
310.7988,311.0187,78,120,0
310.7988,311.0187,72,120,0
310.7988,311.0187,66,120,0
311.021,311.2409,78,120,0
311.021,311.2409,72,120,0
311.021,311.2409,66,120,0
311.68768,311.9076,79,120,0
311.68768,311.9076,74,120,0
311.68768,311.9076,71,120,0
311.68768,311.9076,67,120,0
311.9099,312.1298,79,120,0
311.9099,312.1298,74,120,0
311.9099,312.1298,71,120,0
311.9099,312.1298,67,120,0
313.46545,313.68536,74,120,0
313.46545,313.68536,71,120,0
313.46545,313.68536,67,120,0
313.46545,313.68536,62,120,0
313.68768,313.9076,74,120,0
313.68768,313.9076,67,120,0
313.68768,313.9076,62,120,0
313.68768,313.9076,71,120,0
315.27878,315.5163,71,80,0
315.27878,315.5163,67,80,0
315.27878,315.5163,62,80,0
315.27878,315.5163,59,80,0
316.28052,316.53867,62,77,0
316.28052,316.53867,59,77,0
316.28052,316.53867,55,77,0
316.28052,316.53867,50,77,0
317.46893,317.7988,59,71,0
317.46893,317.7988,55,71,0
317.46893,317.7988,47,71,0
317.46893,317.7988,50,71,0
319.1356,319.46545,55,1,0
0.857142,1.1398798,59,80,0
1.142856,1.4255939,60,80,0
1.42857,1.7113078,57,80,0
1.714284,1.9970218,59,80,0
1.999998,2.2827358,55,80,0
2.285712,2.5684497,54,80,0
0.571428,2.854164,50,80,0
2.571426,2.854164,50,80,0
2.85714,3.1398778,55,80,0
3.142854,3.4255917,54,80,0
3.428568,3.7113059,52,80,0
3.714282,3.9970198,61,80,0
4.28571,4.8541617,62,100,0
4.857138,5.139876,61,80,0
5.142852,5.42559,60,80,0
5.428566,5.7113037,59,80,0
5.71428,5.997018,60,80,0
5.999994,6.282732,57,80,0
6.285708,6.5684457,59,80,0
6.571422,6.85416,55,80,0
6.857136,7.139874,54,80,0
7.14285,7.4255877,50,80,0
7.428564,7.711302,55,80,0
7.714278,7.997016,52,80,0
7.999992,8.28273,48,80,0
8.285706,8.582581,50,80,0
8.585706,8.915566,43,80,0
9.561895,9.844633,57,80,0
9.8476095,10.130347,59,80,0
10.133324,10.416061,60,80,0
10.419038,10.701776,63,110,0
10.704752,10.98749,66,101,0
8.919039,11.273203,55,80,0
10.990465,11.273203,67,91,0
11.276179,11.558917,55,81,0
11.561893,11.844631,62,80,0
11.847608,12.130345,50,80,0
12.133322,12.4160595,55,80,0
12.419036,12.701774,43,80,0
12.704749,12.987487,50,80,0
12.990463,13.273201,38,80,0
13.276177,13.558915,43,80,0
14.13332,14.416058,57,80,0
14.419033,14.701772,59,80,0
14.704747,14.987485,60,80,0
14.990461,15.273199,63,80,0
15.2761755,15.558913,66,80,0
13.561892,15.844627,55,80,0
15.56189,15.844627,67,80,0
15.847604,16.13034,55,80,0
16.133318,16.416056,62,80,0
16.419031,16.701769,50,80,0
16.704746,16.987484,55,80,0
16.99046,17.273197,43,80,0
17.276173,17.55891,50,80,0
17.561888,17.844625,38,80,0
17.8476,18.130339,43,80,0
18.133316,18.416054,31,80,0
18.41903,18.451767,52,80,0
18.454744,18.555935,50,80,0
18.561886,18.701767,49,80,0
18.704744,18.844624,50,80,0
18.8476,18.987482,52,80,0
18.990458,19.273195,50,80,0
19.561886,19.844624,40,80,0
19.847599,20.130337,42,80,0
20.133314,20.701765,43,80,0
20.704742,20.844622,47,80,0
20.847599,20.98748,45,80,0
20.990456,21.130337,43,80,0
21.133312,21.273193,45,80,0
21.276169,21.558907,47,80,0
19.27617,21.844622,38,80,0
21.561884,21.844622,43,80,0
21.847597,22.130335,49,80,0
21.847597,22.41605,38,80,0
22.133312,22.41605,45,80,0
22.419025,22.987478,38,80,0
22.419025,22.987478,50,80,0
22.990454,23.023191,52,80,0
23.026167,23.127357,50,80,0
23.13331,23.273191,49,80,0
23.276167,23.416048,50,80,0
23.419025,23.558905,52,80,0
23.561882,23.84462,50,80,0
24.13331,24.416048,40,80,0
24.419024,24.701761,42,80,0
24.704737,25.27319,43,80,0
25.276165,25.416046,47,80,0
25.419022,25.558903,45,80,0
25.56188,25.701761,43,80,0
25.704737,25.844618,45,80,0
25.847593,26.130331,47,80,0
23.847595,26.416046,38,80,0
26.133308,26.416046,43,80,0
26.419022,26.70176,48,80,0
26.419022,26.987473,38,80,0
26.704735,26.987473,45,80,0
26.99045,27.273188,43,80,0
26.99045,27.273188,31,80,0
27.561878,27.844616,55,80,0
27.847591,28.13033,54,80,0
28.133305,28.416044,53,80,0
28.41902,28.701757,52,80,0
28.704733,28.98747,51,80,0
28.990448,29.273186,51,80,0
29.276161,29.558899,51,80,0
27.276163,29.844614,43,80,0
29.561876,29.844614,50,80,0
29.84759,29.939852,38,80,0
29.942827,30.03509,50,80,0
30.038065,30.130327,54,80,0
30.133303,30.225565,57,80,0
30.228542,30.320803,54,80,0
30.32378,30.41604,50,80,0
30.419018,30.51128,43,80,0
30.514256,30.606518,50,80,0
30.609493,30.701756,55,80,0
30.704731,30.796993,59,80,0
30.799969,30.892231,55,80,0
30.895208,30.987469,50,80,0
30.990446,31.082706,38,80,0
31.085684,31.177946,50,80,0
31.180922,31.273184,54,80,0
31.27616,31.368422,57,80,0
31.371397,31.46366,54,80,0
31.466635,31.558897,50,80,0
32.70473,32.98747,53,87,0
32.990444,33.273182,52,91,0
33.276157,33.558895,51,95,0
33.56187,33.84461,51,99,0
33.847584,34.13032,51,103,0
31.561874,34.41604,43,80,0
34.1333,34.41604,50,107,0
34.419014,34.558895,52,80,0
34.419014,34.70175,38,80,0
34.56187,34.70175,50,80,0
34.704727,34.84461,49,80,0
34.847584,34.987465,50,80,0
34.99044,35.27318,47,80,0
34.99044,35.558895,43,80,0
35.276157,35.558895,50,80,0
35.56187,35.70175,52,80,0
35.56187,35.84461,38,80,0
35.704727,35.84461,50,80,0
35.847584,35.987465,49,80,0
35.99044,36.13032,50,80,0
36.133297,36.416035,47,80,0
36.133297,36.416035,43,80,0
36.704727,36.796986,47,80,0
36.799965,36.892227,54,80,0
36.895203,36.987465,59,80,0
36.99044,37.082703,63,80,0
37.08568,37.17794,59,80,0
37.180916,37.27318,54,80,0
37.276154,37.368416,52,80,0
37.37139,37.463654,55,80,0
37.46663,37.55889,59,80,0
37.561867,37.65413,64,80,0
37.657104,37.749367,59,80,0
37.752342,37.844604,55,80,0
37.84758,37.939842,47,80,0
37.942818,38.03508,54,80,0
38.03806,38.130318,59,80,0
38.133297,38.225555,63,80,0
38.228535,38.320797,59,80,0
38.323772,38.416035,54,80,0
38.41901,38.511272,52,80,0
38.514248,38.60651,55,80,0
38.609486,38.701748,59,80,0
38.704723,38.796986,64,80,0
38.79996,38.892223,59,80,0
38.8952,38.98746,55,80,0
38.990437,39.130318,47,80,0
39.133293,39.273174,45,80,0
39.27615,39.41603,44,80,0
39.41901,39.558887,45,80,0
39.561867,39.844604,42,80,0
39.84758,40.130318,45,80,0
40.133293,40.273174,47,80,0
40.27615,40.41603,45,80,0
40.419006,40.558887,44,80,0
40.561863,40.701744,45,80,0
40.704723,40.98746,42,80,0
40.990437,41.273174,45,80,0
41.27615,41.368412,37,80,0
41.371387,41.46365,49,83,0
41.466625,41.558887,52,85,0
41.561863,41.654125,57,88,0
41.6571,41.749363,52,91,0
41.75234,41.8446,49,94,0
41.847576,41.93984,38,97,0
41.942814,42.035076,50,100,0
42.03805,42.130314,54,102,0
42.133293,42.22555,57,105,0
42.22853,42.320793,54,108,0
42.32377,42.41603,50,80,0
42.419006,42.51127,40,110,0
42.514244,42.606506,50,110,0
42.60948,42.701744,52,110,0
42.70472,42.79698,56,110,0
42.799957,42.89222,52,110,0
42.895195,42.987457,50,110,0
42.990433,43.082695,45,110,0
43.08567,43.177933,49,110,0
43.18091,43.27317,52,110,0
43.276146,43.36841,57,110,0
43.371384,43.463646,52,110,0
43.466625,43.558884,49,110,0
43.561863,43.654125,37,80,0
43.6571,43.749363,49,82,0
43.75234,43.8446,52,85,0
43.847576,43.93984,57,88,0
43.942814,44.035076,52,91,0
44.03805,44.130314,49,94,0
44.13329,44.22555,38,97,0
44.228527,44.32079,50,99,0
44.323765,44.416027,54,102,0
44.419003,44.511265,57,105,0
44.51424,44.606503,54,108,0
44.609478,44.70174,50,80,0
44.704716,44.796978,40,110,0
44.799957,44.892216,50,110,0
44.895195,44.987453,52,110,0
44.990433,45.082695,56,110,0
45.08567,45.177933,52,110,0
45.18091,45.27317,50,110,0
45.276146,45.36841,45,110,0
45.371384,45.463646,49,110,0
45.46662,45.558884,52,110,0
45.56186,45.65412,57,110,0
45.657097,45.74936,52,110,0
45.752335,45.844597,49,110,0
45.847572,45.939835,40,110,0
45.94281,46.035072,50,110,0
46.038048,46.13031,52,110,0
46.13329,46.225548,56,110,0
46.228527,46.320786,52,110,0
46.323765,46.416027,50,110,0
46.419003,46.511265,45,110,0
46.51424,46.606503,49,110,0
46.609478,46.70174,52,110,0
46.704716,46.796978,57,110,0
46.799953,46.892216,52,110,0
46.89519,46.987453,49,110,0
46.99043,47.08269,40,110,0
47.085667,47.17793,50,110,0
47.180904,47.273167,52,110,0
47.276142,47.368404,56,110,0
47.37138,47.463642,52,110,0
47.46662,47.55888,50,110,0
47.56186,47.63031,49,110,0
47.56186,47.844597,45,110,0
48.133286,48.416023,55,80,0
48.419,48.701736,52,80,0
48.704712,48.98745,54,80,0
48.99043,49.273167,50,80,0
49.276142,49.55888,55,80,0
49.561855,49.844593,52,80,0
49.84757,50.130306,54,80,0
50.13328,50.41602,50,80,0
50.419,50.701736,55,80,0
50.704712,50.98745,52,80,0
50.990425,51.273163,54,80,0
51.27614,51.558876,50,80,0
51.561855,51.844593,52,80,0
51.84757,52.130306,45,80,0
47.633286,52.41602,57,80,0
52.13328,52.41602,50,80,0
52.418995,52.701733,42,80,0
52.70471,52.987446,43,80,0
52.990425,53.273163,40,80,0
53.27614,53.558876,42,80,0
53.56185,53.84459,38,80,0
53.847565,54.130302,40,80,0
54.133278,54.416016,33,80,0
54.418995,54.701733,38,80,0
52.70471,54.987446,45,80,0
54.70471,54.987446,42,80,0
54.99042,55.27316,43,80,0
55.276134,55.558872,40,80,0
55.561848,55.844585,42,80,0
55.847565,56.130302,38,80,0
56.133278,56.416016,40,80,0
56.41899,56.70173,33,80,0
56.704704,56.987442,38,80,0
54.99042,57.27316,45,80,0
56.99042,57.27316,42,80,0
57.276134,57.558872,40,80,0
57.561848,57.844585,33,80,0
57.84756,58.1303,42,80,0
57.276134,58.41601,45,80,0
58.133274,58.41601,38,80,0
58.41899,58.70173,40,80,0
58.704704,58.987442,33,80,0
58.41899,59.273155,45,80,0
58.990417,59.273155,38,80,0
59.27613,59.55887,50,80,0
59.84756,60.1303,54,80,0
59.84756,60.1303,50,80,0
60.418987,60.701725,57,80,0
60.418987,60.701725,54,80,0
60.418987,60.701725,50,80,0
60.990414,61.273155,62,80,0
60.990414,61.273155,57,80,0
60.990414,61.273155,54,80,0
60.990414,61.273155,50,80,0
61.561844,61.84458,62,83,0
61.561844,61.84458,57,83,0
61.561844,61.84458,54,83,0
61.847557,62.130295,62,87,0
61.847557,62.130295,56,87,0
61.847557,62.130295,53,87,0
62.13327,62.416008,62,91,0
62.13327,62.416008,57,91,0
62.13327,62.416008,54,91,0
62.418987,62.701725,62,95,0
62.418987,62.701725,56,95,0
62.418987,62.701725,53,95,0
62.7047,62.98744,62,98,0
62.7047,62.98744,57,98,0
62.7047,62.98744,54,98,0
62.990414,63.27315,62,102,0
62.990414,63.27315,56,102,0
62.990414,63.27315,53,102,0
63.276127,63.558865,62,106,0
63.276127,63.558865,57,106,0
63.276127,63.558865,54,106,0
63.56184,63.844578,62,110,0
63.56184,63.844578,56,110,0
63.56184,63.844578,53,110,0
63.847557,64.130295,62,108,0
63.847557,64.130295,57,108,0
63.847557,64.130295,54,108,0
64.13327,64.987434,55,105,0
64.13327,64.987434,59,105,0
64.13327,64.987434,62,105,0
64.99041,65.27315,67,98,0
64.99041,65.27315,55,98,0
65.27612,65.55886,66,95,0
65.27612,65.55886,57,95,0
65.56184,65.844574,57,93,0
65.56184,65.844574,64,93,0
66.13327,66.41601,62,83,0
66.13327,66.41601,57,83,0
66.13327,66.41601,54,83,0
66.41898,66.70172,62,87,0
66.41898,66.70172,56,87,0
66.41898,66.70172,53,87,0
66.7047,66.987434,62,91,0
66.7047,66.987434,57,91,0
66.7047,66.987434,54,91,0
66.99041,67.27315,62,95,0
66.99041,67.27315,56,95,0
66.99041,67.27315,53,95,0
67.27612,67.55886,62,98,0
67.27612,67.55886,57,98,0
67.27612,67.55886,54,98,0
67.56184,67.844574,62,102,0
67.56184,67.844574,56,102,0
67.56184,67.844574,53,102,0
67.84755,68.13029,62,106,0
67.84755,68.13029,57,106,0
67.84755,68.13029,54,106,0
68.13326,68.416,62,110,0
68.13326,68.416,56,110,0
68.13326,68.416,53,110,0
68.418976,68.70171,62,110,0
68.418976,68.70171,57,110,0
68.418976,68.70171,54,110,0
68.7047,70.70171,57,110,0
68.7047,70.70171,60,110,0
68.7047,70.70171,62,110,0
70.70469,70.98743,62,110,0
70.70469,70.98743,57,110,0
70.70469,70.98743,54,110,0
70.9904,72.79695,57,110,0
70.9904,72.79695,60,110,0
70.9904,72.79695,62,110,0
72.79993,72.89219,60,80,0
72.895164,72.98743,62,80,0
72.9904,73.082664,54,80,0
73.08564,73.1779,57,80,0
73.18088,73.27314,62,80,0
73.276115,73.36838,57,80,0
73.37135,73.463615,60,80,0
73.46659,73.55885,62,80,0
73.56183,73.65409,54,80,0
73.65707,73.74933,57,80,0
73.752304,73.84457,62,80,0
73.84754,73.939804,57,80,0
73.94279,74.03504,60,80,0
74.038025,74.13028,62,80,0
74.13326,74.225525,54,80,0
74.2285,74.32076,57,80,0
74.32374,74.416,62,80,0
74.418976,74.51124,57,80,0
74.51421,74.606476,60,80,0
74.60945,74.70171,62,80,0
74.70469,74.79695,54,80,0
74.79993,74.89219,57,80,0
74.895164,74.98743,62,80,0
74.9904,75.082664,57,80,0
75.08564,75.1779,60,80,0
75.18088,75.27314,62,80,0
75.276115,75.36838,55,80,0
75.37135,75.463615,59,80,0
75.46659,75.55885,62,80,0
75.56183,75.65409,54,80,0
75.65707,75.74933,57,80,0
75.752304,75.84457,62,80,0
75.84754,75.939804,52,80,0
75.94278,76.03504,55,80,0
76.03802,76.13028,62,80,0
76.133255,76.22552,50,80,0
76.22849,76.320755,54,80,0
76.32373,76.41599,62,80,0
76.41897,76.51123,48,80,0
76.514206,76.60647,52,80,0
76.60945,76.701706,60,80,0
76.70469,76.79694,47,80,0
76.79993,76.89219,50,80,0
76.895164,76.98743,59,80,0
76.9904,77.082664,45,80,0
77.08564,77.1779,48,80,0
77.18088,77.27314,57,80,0
77.276115,77.36838,47,80,0
77.37135,77.463615,50,80,0
77.46659,77.55885,48,80,0
77.56183,77.65409,47,80,0
77.65707,77.74933,45,80,0
77.752304,77.84457,43,80,0
77.84754,77.939804,42,80,0
77.94278,78.03504,45,80,0
78.03802,78.13028,43,80,0
78.133255,78.22552,42,80,0
78.22849,78.320755,40,80,0
78.32373,78.41599,38,80,0
78.41897,78.51123,43,80,0
78.514206,78.60647,42,80,0
78.60944,78.701706,43,80,0
78.70468,78.79694,40,80,0
78.79992,78.89218,42,80,0
78.89516,78.98742,43,80,0
78.990395,79.08266,45,80,0
79.08563,79.177895,47,80,0
79.18087,79.27313,45,80,0
79.27611,79.36837,43,80,0
79.37135,79.46361,42,80,0
79.46659,79.558846,40,80,0
79.56183,79.65409,38,80,0
79.65707,79.74933,42,80,0
79.752304,79.84457,43,80,0
79.84754,79.939804,45,80,0
79.94278,80.03504,47,80,0
80.03802,80.13028,49,80,0
80.133255,80.22552,50,80,0
80.22849,80.320755,38,80,0
80.32373,80.41599,50,80,0
80.41897,80.51123,47,80,0
80.514206,80.60647,50,80,0
80.60944,80.701706,47,80,0
80.70468,80.79694,48,80,0
80.79992,80.89218,50,80,0
80.89516,80.98742,48,80,0
80.990395,81.08266,47,80,0
81.08563,81.177895,50,80,0
81.18087,81.27313,47,80,0
81.27611,81.36837,48,80,0
81.371346,81.46361,50,80,0
81.46658,81.558846,48,80,0
81.56182,81.65408,47,80,0
81.65706,81.74932,50,80,0
81.7523,81.84456,47,80,0
81.847534,81.9398,47,80,0
81.94277,82.035034,50,80,0
82.03802,82.13027,48,80,0
82.133255,82.22551,47,80,0
82.22849,82.320755,45,80,0
82.32373,82.41599,43,80,0
82.41897,82.51123,42,80,0
82.514206,82.60647,45,80,0
82.60944,82.701706,43,80,0
82.70468,82.79694,42,80,0
82.79992,82.89218,40,80,0
82.89516,82.98742,38,80,0
82.990395,83.08266,43,80,0
83.08563,83.177895,42,80,0
83.18087,83.27313,43,80,0
83.27611,83.36837,40,80,0
83.371346,83.46361,39,80,0
83.46658,83.558846,40,80,0
83.56182,83.65408,36,80,0
83.65706,83.74932,35,80,0
83.7523,83.84456,36,80,0
83.847534,83.9398,38,80,0
83.94277,84.035034,37,80,0
84.03801,84.13027,38,80,0
84.13325,84.22551,31,80,0
84.228485,84.32075,35,80,0
84.32372,84.415985,38,80,0
84.41896,84.51122,43,80,0
84.5142,84.60646,47,80,0
84.609436,84.7017,50,80,0
84.70467,84.84456,43,80,0
84.847534,84.98741,55,81,0
84.990395,85.13027,45,83,0
85.13325,85.27313,57,85,0
85.27611,85.415985,47,87,0
85.41896,85.558846,59,89,0
85.56182,85.7017,48,91,0
85.70467,85.84456,60,93,0
85.847534,85.98741,51,95,0
85.99039,86.13027,63,97,0
86.13325,86.273125,54,99,0
86.27611,86.415985,66,80,0
86.41896,86.558846,55,80,0
86.56182,86.7017,67,80,0
86.70467,86.84456,43,80,0
86.847534,86.98741,55,80,0
86.99039,87.13027,50,80,0
87.13325,87.273125,62,80,0
87.2761,87.415985,38,80,0
87.41896,87.55884,50,80,0
87.56182,87.7017,43,80,0
87.70467,87.84456,55,80,0
87.847534,87.98741,31,80,0
87.99039,88.13027,43,80,0
88.13325,88.273125,38,80,0
88.2761,88.415985,50,80,0
88.41896,88.55884,38,80,0
88.56181,88.7017,50,80,0
88.70467,88.796936,31,80,0
88.79991,88.89217,35,80,0
88.89515,88.98741,38,80,0
88.99039,89.08265,43,80,0
89.085625,89.17789,42,80,0
89.18086,89.273125,43,80,0
89.2761,89.415985,31,80,0
89.41896,89.55884,43,81,0
89.56181,89.7017,33,83,0
89.70467,89.84455,45,85,0
89.84753,89.98741,35,87,0
89.99039,90.130264,47,89,0
90.13324,90.273125,36,91,0
90.2761,90.415985,48,93,0
90.41896,90.55884,39,95,0
90.56181,90.7017,51,97,0
90.70467,90.84455,42,99,0
90.84753,90.98741,54,80,0
90.99039,91.130264,43,80,0
91.13324,91.273125,55,80,0
91.2761,91.41598,47,80,0
91.41895,91.55884,59,80,0
91.56181,91.70169,50,80,0
91.70467,91.84455,62,80,0
91.84753,91.98741,38,80,0
91.99039,92.130264,50,80,0
92.13324,92.273125,43,80,0
92.2761,92.41598,55,80,0
92.41895,92.55884,31,80,0
92.56181,92.70169,43,80,0
92.704666,92.84455,38,80,0
92.84753,92.987404,50,80,0
92.99039,93.130264,38,80,0
93.13324,93.273125,50,80,0
93.2761,93.55884,31,80,0
93.56181,93.84455,43,80,0
93.84753,93.880264,51,80,0
93.88324,93.98145,50,80,0
93.99038,94.130264,49,80,0
94.13324,94.27312,50,80,0
94.2761,94.41598,51,80,0
94.41895,94.70169,50,80,0
94.99038,95.27312,40,80,0
95.27609,95.55883,42,80,0
95.561806,96.130264,43,80,0
96.13324,96.27312,46,80,0
96.27609,96.41598,45,80,0
96.41895,96.55883,43,80,0
96.561806,96.70169,45,80,0
96.704666,96.987404,46,80,0
94.704666,97.27312,38,80,0
96.99038,97.27312,43,80,0
97.27609,97.55883,49,80,0
97.27609,97.84454,38,80,0
97.561806,97.84454,45,80,0
97.84752,98.41597,50,80,0
97.84752,98.41597,38,80,0
98.41895,98.45169,51,80,0
98.454666,98.55288,50,80,0
98.561806,98.70169,49,80,0
98.704666,98.84454,50,80,0
98.84752,98.987404,51,80,0
98.99038,99.27312,50,80,0
99.27609,99.55883,38,80,0
99.561806,99.84454,40,80,0
99.84752,100.13026,42,81,0
100.13323,100.70168,43,83,0
100.70466,100.84454,46,87,0
100.84752,100.9874,45,88,0
100.99037,101.13026,43,89,0
101.13323,101.27312,45,89,0
101.27609,101.55883,46,90,0
101.561806,101.84454,43,92,0
101.84752,102.13026,48,94,0
102.13323,102.41597,45,96,0
102.418945,102.70168,50,98,0
102.70466,102.9874,47,99,0
102.99037,103.27311,51,110,0
102.99037,103.27311,60,110,0
103.276085,103.55882,50,110,0
103.276085,103.55882,57,110,0
103.5618,104.13026,62,110,0
103.5618,104.13026,53,110,0
104.13323,104.27311,43,110,0
104.276085,104.41597,42,110,0
104.418945,104.55882,43,110,0
104.5618,104.70168,44,110,0
104.70466,104.9874,43,110,0
104.99037,105.27311,31,110,0
105.276085,105.55882,33,110,0
105.5618,105.844536,35,110,0
105.84751,106.41596,36,110,0
106.418945,106.55882,39,110,0
106.5618,106.70168,38,110,0
106.70466,106.844536,36,110,0
106.84751,106.9874,38,110,0
106.99037,107.27311,39,110,0
107.276085,107.55882,36,110,0
107.5618,107.844536,41,110,0
107.84751,108.13025,38,110,0
108.133224,108.701675,43,110,0
108.70465,108.844536,46,110,0
108.84751,108.98739,44,110,0
108.990364,109.13025,43,110,0
109.133224,109.2731,44,110,0
109.276085,109.56713,46,110,0
109.5702,109.86125,43,110,0
109.86432,110.155365,48,110,0
110.15843,110.449486,45,110,0
110.45255,111.06161,46,80,0
111.0648,111.693085,34,80,0
111.69637,111.79835,39,80,0
111.801636,111.90361,50,80,0
111.9069,112.00887,51,80,0
112.01216,112.10442,41,80,0
112.1074,112.19966,51,80,0
112.20264,112.2949,53,80,0
112.297874,112.39014,43,110,0
112.39311,112.485374,51,110,0
112.48835,112.58061,55,110,0
112.58359,112.67585,39,110,0
112.678825,112.77109,50,110,0
112.77406,112.866325,51,110,0
112.8693,112.96156,41,110,0
112.96454,113.0568,51,110,0
113.05978,113.15204,53,110,0
113.155014,113.24728,43,110,0
113.25025,113.342514,51,110,0
113.34549,113.43775,55,110,0
113.44073,113.53299,44,110,0
113.535965,113.62823,51,110,0
113.6312,113.723465,56,110,0
113.72645,113.8187,41,110,0
113.821686,113.91395,51,110,0
113.91692,114.009186,53,110,0
114.01216,114.10442,43,110,0
114.1074,114.19966,51,110,0
114.20264,114.2949,55,110,0
114.297874,114.39014,44,110,0
114.39311,114.485374,51,110,0
114.48835,114.58061,56,110,0
114.58359,114.67585,46,110,0
114.678825,114.77109,51,80,0
114.77406,114.866325,58,80,0
114.8693,114.96156,43,80,0
114.96454,115.0568,51,80,0
115.05978,115.15204,55,80,0
115.155014,115.24999,44,80,0
115.25305,115.34803,51,80,0
115.35109,115.44607,56,80,0
115.449135,115.544106,43,80,0
115.54717,115.64214,51,80,0
115.64521,115.74018,55,80,0
115.74325,115.84522,41,80,0
115.84851,115.950485,51,80,0
115.95377,116.05575,53,80,0
116.05904,116.16101,46,80,0
116.1643,116.26627,53,80,0
116.26956,116.37154,58,80,0
116.374825,116.687325,51,80,0
116.374825,116.687325,39,80,0
116.69061,116.97335,70,80,0
116.69061,116.97335,67,80,0
116.976326,117.25906,68,80,0
116.976326,117.25906,65,80,0
117.26205,117.544785,67,80,0
117.26205,117.544785,63,80,0
117.54776,117.8305,65,80,0
117.54776,117.8305,62,80,0
117.83347,118.11621,56,80,0
117.83347,118.401924,58,80,0
118.11919,118.401924,55,80,0
118.4049,118.68764,53,80,0
118.4049,118.68764,58,80,0
118.69061,118.97335,58,80,0
118.69061,118.97335,51,80,0
118.976326,119.25906,63,80,0
118.976326,119.25906,67,80,0
119.26204,119.54478,62,80,0
119.26204,119.54478,65,80,0
119.54775,119.83049,60,80,0
119.54775,119.83049,63,80,0
119.83347,120.11621,59,80,0
119.83347,120.11621,62,80,0
120.11919,120.401924,53,80,0
120.11919,120.68764,55,80,0
120.4049,120.68764,51,80,0
120.69061,120.97335,50,80,0
120.69061,120.97335,55,80,0
120.976326,121.06859,36,80,0
121.07156,121.163826,47,80,0
121.21144,121.3037,48,81,0
121.26204,121.3543,38,81,0
121.35728,121.44954,48,81,0
121.452515,121.54478,50,82,0
121.54775,121.640015,39,82,0
121.64299,121.73525,48,82,0
121.73823,121.83049,51,83,0
121.833466,121.92573,36,83,0
121.9287,122.020966,47,84,0
122.02394,122.1162,48,84,0
122.11918,122.21144,38,85,0
122.21442,122.30668,48,85,0
122.309654,122.40192,50,85,0
122.40489,122.497154,40,86,0
122.50013,122.59239,48,86,0
122.595375,122.68763,52,87,0
122.69061,122.782875,41,87,0
122.78585,122.87811,48,87,0
122.88109,122.97335,53,88,0
122.976326,123.06859,38,88,0
123.07156,123.163826,48,89,0
123.1668,123.25906,50,89,0
123.26204,123.3543,40,90,0
123.35728,123.44954,48,90,0
123.452515,123.54478,52,90,0
123.54775,123.640015,42,91,0
123.64299,123.73525,48,91,0
123.73823,123.83049,54,92,0
123.833466,123.92573,43,92,0
123.9287,124.020966,48,92,0
124.02394,124.1162,55,93,0
124.11918,124.21144,40,93,0
124.21442,124.30668,48,94,0
124.309654,124.40192,52,94,0
124.40489,124.49987,41,95,0
124.50293,124.59791,48,95,0
124.600975,124.695946,53,95,0
124.69901,124.79398,39,96,0
124.79705,124.89202,48,96,0
124.89509,124.99007,51,97,0
124.993126,125.0951,38,97,0
125.09839,125.20036,48,97,0
125.20365,125.305626,50,98,0
125.308914,125.41089,43,98,0
125.41418,125.51615,50,99,0
125.51944,125.621414,55,99,0
125.6247,125.9372,48,110,0
125.6247,125.9372,36,110,0
125.94049,126.223236,63,80,0
125.94049,126.223236,67,80,0
126.17859,126.46133,65,80,0
126.22621,126.50895,62,80,0
126.511925,126.79466,63,80,0
126.511925,126.79466,60,80,0
126.79764,127.080376,59,80,0
126.79764,127.080376,62,80,0
127.08335,127.36609,53,80,0
127.08335,127.6518,55,80,0
127.369064,127.6518,51,80,0
127.65478,127.937515,50,80,0
127.65478,127.937515,55,80,0
127.94049,128.22324,55,80,0
127.94049,128.22324,48,80,0
128.22621,128.50894,60,80,0
128.22621,128.50894,56,80,0
128.51192,128.79466,58,80,0
128.51192,128.79466,55,80,0
128.79764,129.08037,56,80,0
128.79764,129.08037,53,80,0
129.08334,129.36609,55,80,0
129.08334,129.36609,52,80,0
129.36906,129.6518,46,80,0
129.36906,129.93752,48,80,0
129.65477,129.93752,44,86,0
129.94049,130.22322,43,93,0
129.94049,130.22322,48,93,0
130.22621,130.31847,41,110,0
130.32144,130.41371,52,110,0
130.41669,130.50894,53,110,0
130.51192,130.60419,43,110,0
130.60716,130.69942,53,110,0
130.7024,130.79466,55,110,0
130.79764,130.8899,44,110,0
130.89287,130.98514,53,110,0
130.98811,131.08037,56,110,0
131.08334,131.17561,41,110,0
131.17859,131.27084,52,110,0
131.27382,131.36609,53,110,0
131.36906,131.46132,43,110,0
131.4643,131.55656,53,110,0
131.55954,131.6518,55,110,0
131.65477,131.74704,45,110,0
131.75002,131.84227,53,110,0
131.84525,131.93752,57,110,0
131.94049,132.03275,46,110,0
132.03572,132.12799,53,110,0
132.13097,132.22322,58,110,0
132.2262,132.31847,43,110,0
132.32144,132.4137,53,110,0
132.41667,132.50894,55,110,0
132.51192,132.60417,45,110,0
132.60715,132.69942,53,110,0
132.7024,132.79465,57,110,0
132.79764,132.8899,46,110,0
132.89287,132.98514,53,110,0
132.98811,133.08037,58,110,0
133.08334,133.17561,48,110,0
133.17859,133.27084,53,110,0
133.27382,133.36609,60,110,0
133.36906,133.46132,45,110,0
133.4643,133.55656,53,110,0
133.55954,133.6518,57,110,0
133.65477,133.79465,46,110,0
133.79762,133.93752,58,110,0
133.94049,134.08037,49,110,0
134.08334,134.22322,61,110,0
134.2262,134.36609,53,110,0
134.36906,134.50894,65,110,0
134.51192,134.6518,58,110,0
134.65477,134.79465,70,110,0
134.79762,134.93752,55,110,0
134.94049,135.08037,67,110,0
135.08334,135.22322,51,110,0
135.2262,135.36607,63,110,0
135.36905,135.50894,46,110,0
135.51192,135.6518,58,110,0
135.65477,135.79465,43,110,0
135.79762,135.93752,55,110,0
135.94049,136.08037,44,110,0
136.08334,136.22322,56,110,0
136.2262,136.36607,48,110,0
136.36905,136.50894,60,110,0
136.51192,136.6518,51,110,0
136.65477,136.79465,63,110,0
136.79762,136.9375,56,110,0
136.94049,137.08037,68,110,0
137.08334,137.22322,54,110,0
137.2262,137.36607,66,110,0
137.36905,137.50894,50,110,0
137.51192,137.6518,62,110,0
137.65477,137.79465,45,110,0
137.79762,137.9375,57,110,0
137.94048,138.08037,42,110,0
138.08334,138.22322,54,110,0
138.2262,138.31845,43,110,0
138.32144,138.4137,54,110,0
138.41667,138.50894,55,110,0
138.51192,138.60417,45,110,0
138.60715,138.69942,55,110,0
138.7024,138.79465,57,110,0
138.79762,138.8899,46,110,0
138.89287,138.98512,55,110,0
138.9881,139.08037,58,110,0
139.08334,139.1756,43,110,0
139.17857,139.27084,54,110,0
139.27382,139.36607,55,110,0
139.36905,139.46132,45,110,0
139.4643,139.55655,55,110,0
139.55952,139.6518,57,110,0
139.65477,139.74702,47,110,0
139.75,139.84227,55,110,0
139.84525,139.9375,59,110,0
139.94048,140.03275,48,110,0
140.03572,140.12798,55,110,0
140.13095,140.22322,60,110,0
140.2262,140.31845,45,110,0
140.32143,140.4137,55,110,0
140.41667,140.50893,57,110,0
140.5119,140.60417,48,110,0
140.60715,140.6994,55,110,0
140.70238,140.79465,59,110,0
140.79762,140.88988,48,110,0
140.89287,140.98512,55,110,0
140.9881,141.08035,60,110,0
141.08334,141.1756,50,110,0
141.17857,141.27084,55,110,0
141.27382,141.36607,62,110,0
141.36905,141.46132,47,110,0
141.4643,141.55655,55,110,0
141.55952,141.6518,59,110,0
141.65477,141.74974,48,110,0
141.7528,141.84778,55,109,0
141.85085,141.94582,60,108,0
141.94888,142.04385,47,107,0
142.04692,142.14189,55,105,0
142.19092,142.28857,59,104,0
142.243,142.3439,47,103,0
142.34717,142.44807,55,102,0
142.45132,142.55225,60,100,0
142.5555,142.6564,49,99,0
142.65967,142.76057,55,98,0
142.76382,142.86475,61,97,0
142.868,142.9689,50,95,0
142.97217,143.07307,61,94,0
143.07632,143.17725,62,93,0
143.1805,143.2814,48,92,0
143.28467,143.38557,50,90,0
143.38882,143.48975,60,89,0
143.493,143.58987,46,88,0
143.593,143.68988,50,87,0
143.693,143.78987,58,85,0
143.793,143.88988,45,84,0
143.893,143.98987,50,83,0
143.993,144.08987,57,82,0
144.093,144.18988,43,80,0
144.193,144.28987,50,80,0
144.293,144.38988,55,80,0
144.393,144.48987,42,80,0
144.493,144.58987,50,80,0
144.593,144.68988,54,80,0
144.693,144.78987,43,80,0
144.793,144.88988,50,80,0
144.893,144.98987,55,80,0
144.993,145.08987,39,80,0
145.093,145.18988,50,80,0
145.193,145.28987,51,80,0
145.293,145.38988,38,80,0
145.393,145.48987,49,80,0
145.493,145.58987,50,80,0
145.593,145.68988,48,80,0
145.693,145.78987,50,80,0
145.793,145.88988,60,80,0
145.893,145.98987,46,80,0
145.993,146.08987,50,80,0
146.093,146.18988,58,80,0
146.193,146.28987,45,80,0
146.293,146.38988,50,80,0
146.393,146.48987,57,80,0
146.493,146.58987,43,80,0
146.593,146.68988,50,80,0
146.693,146.78987,55,80,0
146.793,146.88988,42,80,0
146.893,146.98987,50,80,0
146.993,147.08987,54,80,0
147.093,147.19498,43,80,0
147.19826,147.30023,50,80,0
147.30353,147.4055,55,80,0
147.40878,147.51076,39,80,0
147.51405,147.61603,50,80,0
147.61931,147.72128,51,80,0
147.72458,147.82655,50,80,0
147.72458,147.82655,38,80,0
147.82983,147.92711,62,80,0
147.93008,148.02235,50,80,0
148.02533,148.11758,62,79,0
148.12056,148.21283,50,79,0
148.2158,148.30806,62,78,0
148.31104,148.4033,50,78,0
148.40628,148.49854,62,78,0
148.50151,148.59378,50,77,0
148.59676,148.68901,62,77,0
148.692,148.78426,50,76,0
148.78723,148.8795,62,76,0
148.88248,148.97473,50,75,0
148.9777,149.06998,62,75,0
149.07295,149.1652,50,75,0
149.16818,149.26045,62,74,0
149.26343,149.35568,50,74,0
149.35866,149.45093,62,73,0
149.4539,149.54616,50,73,0
149.54913,149.6414,62,73,0
149.64438,149.73663,50,72,0
149.73961,149.83188,62,72,0
149.83485,149.92711,50,71,0
149.93008,150.02235,62,71,0
150.02533,150.11758,50,70,0
150.12056,150.21283,62,70,0
150.2158,150.30806,50,70,0
150.31104,150.4033,62,70,0
150.40628,150.49854,50,70,0
150.50151,150.59378,62,70,0
150.59676,150.68901,50,70,0
150.69199,150.78426,62,70,0
150.78723,150.87949,50,70,0
150.88246,150.97473,62,70,0
150.9777,151.06996,50,70,0
151.07294,151.1652,62,70,0
151.16818,151.26044,50,70,0
151.26341,151.35568,62,70,0
151.35866,151.45091,50,70,0
151.4539,151.54616,62,70,0
151.54913,151.6414,50,70,0
151.64438,151.73663,62,70,0
151.73961,151.83188,47,70,0
151.83485,151.92711,62,70,0
151.93008,152.02235,50,70,0
152.02533,152.11758,62,70,0
152.12056,152.21283,50,70,0
152.2158,152.30806,62,70,0
152.31104,152.4033,48,70,0
152.40628,152.49854,62,70,0
152.50151,152.59378,50,70,0
152.59676,152.68901,62,70,0
152.69199,152.78426,50,70,0
152.78723,152.87949,62,70,0
152.88246,152.97473,45,70,0
152.9777,153.06996,62,70,0
153.07294,153.1652,50,70,0
153.16818,153.26044,62,70,0
153.26341,153.35568,50,70,0
153.35866,153.45091,62,70,0
153.45389,153.54616,47,70,0
153.54913,153.64139,62,70,0
153.64436,153.73663,50,70,0
153.73961,153.83186,62,70,0
153.83484,153.92711,50,70,0
153.93008,154.02234,62,70,0
154.02533,154.11758,42,70,0
154.12056,154.21281,62,70,0
154.2158,154.30806,50,70,0
154.31104,154.4033,62,70,0
154.40628,154.49854,50,70,0
154.50151,154.59378,62,70,0
154.59676,154.68901,43,70,0
154.69199,154.78426,62,70,0
154.78723,154.87949,50,70,0
154.88246,154.97473,62,70,0
154.9777,155.06996,50,70,0
155.07294,155.1652,62,70,0
155.16818,155.26044,40,70,0
155.26341,155.35568,62,70,0
155.35866,155.45091,50,70,0
155.45389,155.54616,62,70,0
155.54913,155.64139,50,70,0
155.64436,155.73663,62,70,0
155.73961,155.83186,38,70,0
155.83484,155.92711,62,70,0
155.93008,156.02234,50,70,0
156.02531,156.11758,62,70,0
156.12056,156.21281,50,70,0
156.21579,156.30806,62,70,0
156.31104,156.40329,47,70,0
156.40627,156.49854,62,70,0
156.50151,156.59377,50,70,0
156.59674,156.68901,62,70,0
156.69199,156.78424,50,70,0
156.78723,156.87949,62,70,0
156.88246,156.97472,48,70,0
156.9777,157.06996,62,70,0
157.07294,157.1652,50,70,0
157.16818,157.26044,62,70,0
157.26341,157.35568,50,70,0
157.35866,157.45091,62,70,0
157.45389,157.54616,45,70,0
157.54913,157.64139,62,70,0
157.64436,157.73663,50,70,0
157.73961,157.83186,62,70,0
157.83484,157.92711,50,70,0
157.93008,158.02234,62,70,0
158.02531,158.11758,47,70,0
158.12056,158.21281,62,70,0
158.21579,158.30806,50,70,0
158.31104,158.40329,62,70,0
158.40627,158.49854,50,70,0
158.50151,158.59377,62,70,0
158.59674,158.68901,42,70,0
158.69199,158.78424,62,70,0
158.78722,158.87949,50,70,0
158.88246,158.97472,62,70,0
158.97769,159.06996,50,70,0
159.07294,159.16519,62,70,0
159.16817,159.26044,43,70,0
159.26341,159.35567,62,70,0
159.35864,159.45091,50,70,0
159.45389,159.54614,62,70,0
159.54913,159.64139,50,70,0
159.64436,159.73663,62,70,0
159.73961,159.83186,38,70,0
159.83484,159.92711,62,70,0
159.93008,160.02234,50,70,0
160.02531,160.11758,62,70,0
160.12056,160.21281,50,70,0
160.21579,160.30806,62,70,0
160.31104,160.59377,43,80,0
161.16817,161.45091,57,80,0
161.45389,161.73662,59,80,0
161.7396,162.02234,60,80,0
162.02531,162.30804,63,80,0
162.31104,162.59377,66,80,0
160.59674,162.87949,55,80,0
162.59674,162.87949,67,80,0
162.88246,163.16519,55,80,0
163.16817,163.45091,62,80,0
163.45389,163.73662,50,80,0
163.7396,164.02234,55,80,0
164.02531,164.30804,43,80,0
164.31102,164.59377,50,80,0
164.59674,164.87947,38,80,0
164.88246,165.16519,43,80,0
165.7396,166.02234,57,80,0
166.02531,166.30804,59,80,0
166.31102,166.59377,60,80,0
166.59674,166.87947,63,80,0
166.88245,167.16519,66,80,0
165.16817,167.4509,55,80,0
167.16817,167.4509,67,80,0
167.45387,167.73662,55,80,0
167.7396,168.02234,62,80,0
168.02531,168.30804,50,80,0
168.31102,168.59377,55,80,0
168.59674,168.87947,43,80,0
168.88245,169.16519,50,80,0
169.16817,169.4509,38,80,0
169.45387,169.73662,43,80,0
169.7396,170.02232,31,80,0
170.0253,170.05804,52,80,0
170.06102,170.16222,50,80,0
170.16817,170.30804,49,80,0
170.31102,170.4509,50,80,0
170.45387,170.59377,52,80,0
170.59674,170.87947,50,80,0
171.16817,171.4509,40,80,0
171.45387,171.73662,42,80,0
171.7396,172.30804,43,80,0
172.31102,172.4509,47,80,0
172.45387,172.59375,45,80,0
172.59673,172.73662,43,80,0
172.7396,172.87947,45,80,0
172.88245,173.16518,47,80,0
170.88245,173.4509,38,80,0
173.16817,173.4509,43,80,0
173.45387,173.73662,49,80,0
173.7396,174.02232,45,80,0
174.0253,174.59375,50,80,0
174.0253,174.59375,38,80,0
174.59673,174.62947,52,80,0
174.63245,174.73363,50,80,0
174.7396,174.87947,49,80,0
174.88245,175.02232,50,80,0
175.0253,175.16518,52,80,0
175.16815,175.4509,50,80,0
175.7396,176.02232,40,80,0
176.0253,176.30804,42,80,0
176.31102,176.87947,43,80,0
176.88245,177.02232,47,80,0
177.0253,177.16518,45,80,0
177.16815,177.30804,43,80,0
177.31102,177.4509,45,80,0
177.45387,177.7366,47,80,0
175.45387,178.02232,38,80,0
177.73958,178.02232,43,80,0
178.0253,178.30803,48,80,0
178.311,178.59375,45,80,0
178.59673,178.87947,43,80,0
178.59673,178.87947,31,80,0
179.16815,179.4509,55,80,0
179.45387,179.7366,57,80,0
179.45387,179.7366,54,80,0
179.73958,180.02232,59,80,0
179.73958,180.02232,53,80,0
180.0253,180.30803,60,80,0
180.0253,180.30803,52,80,0
180.311,180.59375,51,80,0
180.311,180.59375,58,80,0
180.311,180.59375,61,80,0
180.59673,180.87946,61,80,0
180.59673,180.87946,58,80,0
180.59673,180.87946,51,80,0
180.88243,181.16518,61,80,0
180.88243,181.16518,58,80,0
180.88243,181.16518,51,80,0
181.16815,181.4509,62,80,0
181.16815,181.4509,59,80,0
181.16815,181.4509,50,80,0
181.45387,181.54613,38,80,0
181.5491,181.64137,50,80,0
181.64435,181.7366,54,80,0
181.73958,181.83185,57,80,0
181.83482,181.92708,54,80,0
181.93005,182.02232,50,80,0
182.0253,182.11755,43,80,0
182.12053,182.2128,50,80,0
182.21577,182.30803,55,80,0
182.311,182.40327,59,80,0
182.40625,182.4985,55,80,0
182.50148,182.59375,50,80,0
182.59673,182.68898,38,80,0
182.69196,182.78423,50,80,0
182.7872,182.87946,54,80,0
182.88243,182.9747,57,80,0
182.97768,183.06993,54,80,0
183.0729,183.16518,50,80,0
183.16815,183.45088,54,80,0
183.16815,183.45088,43,80,0
183.73958,184.02231,55,80,0
183.73958,184.02231,43,80,0
184.0253,184.30803,54,80,0
184.0253,184.30803,45,80,0
184.311,184.59375,53,80,0
184.311,184.59375,47,80,0
184.59673,184.87946,52,80,0
184.59673,184.87946,48,80,0
184.88243,185.16518,51,80,0
184.88243,185.16518,48,80,0
185.16815,185.45088,51,80,0
185.16815,185.45088,48,80,0
185.45386,185.7366,51,80,0
185.45386,185.7366,48,80,0
185.73958,186.02231,50,80,0
185.73958,186.02231,47,80,0
186.02528,186.16518,52,80,0
186.02528,186.30803,38,80,0
186.16815,186.30803,50,80,0
186.311,186.45088,49,80,0
186.45386,186.59373,50,80,0
186.59673,186.87946,47,80,0
186.59673,186.87946,43,80,0
186.88243,187.16518,50,80,0
187.16815,187.30803,52,80,0
187.16815,187.45088,38,80,0
187.311,187.45088,50,80,0
187.45386,187.59373,49,80,0
187.59671,187.7366,50,80,0
187.73958,188.02231,47,80,0
187.73958,188.02231,43,80,0
188.311,188.40326,47,80,0
188.40623,188.4985,54,80,0
188.50148,188.59373,59,80,0
188.59671,188.68898,63,80,0
188.69196,188.78421,59,80,0
188.78719,188.87946,54,80,0
188.88243,188.97469,52,80,0
188.97766,189.06993,55,80,0
189.0729,189.16516,59,80,0
189.16814,189.2604,64,80,0
189.26338,189.35564,59,80,0
189.35863,189.45088,55,80,0
189.45386,189.54613,47,80,0
189.5491,189.64136,54,80,0
189.64433,189.7366,59,80,0
189.73958,189.83183,63,80,0
189.83481,189.92708,59,80,0
189.93005,190.02231,54,80,0
190.02528,190.11755,52,80,0
190.12053,190.21278,55,80,0
190.21576,190.30803,59,80,0
190.311,190.40326,64,80,0
190.40623,190.4985,59,80,0
190.50148,190.59373,55,80,0
190.59671,190.73659,45,80,0
190.73958,190.87946,43,80,0
190.88243,191.02231,42,80,0
191.02528,191.16516,43,80,0
191.16814,191.45088,40,80,0
191.45386,191.73659,43,80,0
191.73956,191.87946,45,80,0
191.88243,192.02231,43,80,0
192.02528,192.16516,42,80,0
192.16814,192.30803,43,80,0
192.311,192.59373,40,80,0
192.59671,192.87946,43,80,0
192.88243,192.97469,40,80,0
192.97766,193.06993,52,80,0
193.0729,193.16516,56,80,0
193.16814,193.2604,59,80,0
193.26338,193.35564,56,80,0
193.35861,193.45088,52,80,0
193.45386,193.54611,45,80,0
193.54909,193.64136,52,80,0
193.64433,193.73659,57,80,0
193.73956,193.83183,60,80,0
193.83481,193.92706,57,80,0
193.93004,194.02231,52,80,0
194.02528,194.11754,40,80,0
194.12051,194.21278,52,80,0
194.21576,194.30801,56,80,0
194.31099,194.40326,59,80,0
194.40623,194.49849,56,80,0
194.50146,194.59373,52,80,0
194.59671,194.68896,45,80,0
194.69196,194.78421,52,80,0
194.78719,194.87944,57,80,0
194.88243,194.97469,60,80,0
194.97766,195.06993,57,80,0
195.0729,195.16516,52,80,0
195.16814,195.2604,40,80,0
195.26338,195.35564,52,80,0
195.35861,195.45088,56,81,0
195.45386,195.54611,59,81,0
195.54909,195.64136,56,82,0
195.64433,195.73659,52,82,0
195.73956,195.83183,45,83,0
195.83481,195.92706,52,83,0
195.93004,196.02231,57,84,0
196.02528,196.11754,60,84,0
196.12051,196.21278,57,85,0
196.21576,196.30801,52,85,0
196.31099,196.40326,48,86,0
196.40623,196.49849,52,86,0
196.50146,196.59373,57,87,0
196.59671,196.68896,60,87,0
196.69194,196.78421,57,88,0
196.78719,196.87944,52,88,0
196.88242,196.97469,50,89,0
196.97766,197.06992,57,89,0
197.07289,197.16516,60,90,0
197.16814,197.26039,62,90,0
197.26337,197.35564,60,91,0
197.35861,197.45087,57,91,0
197.45386,197.54611,42,92,0
197.54909,197.64136,50,92,0
197.64433,197.73659,54,93,0
197.73956,197.83183,57,93,0
197.83481,197.92706,54,94,0
197.93004,198.02231,50,94,0
198.02528,198.11754,43,95,0
198.12051,198.21278,50,95,0
198.21576,198.30801,55,96,0
198.31099,198.40326,59,96,0
198.40623,198.49849,55,97,0
198.50146,198.59373,50,97,0
198.59671,198.68896,45,98,0
198.69194,198.78421,55,98,0
198.78719,198.87944,57,99,0
198.88242,198.97469,61,99,0
198.97766,199.06992,57,100,0
199.07289,199.16516,55,100,0
199.16814,199.26039,50,101,0
199.26337,199.35564,54,101,0
199.35861,199.45087,57,102,0
199.45384,199.54611,62,102,0
199.54909,199.64134,57,103,0
199.64432,199.73659,54,103,0
199.73956,199.83182,42,104,0
199.8348,199.92706,50,104,0
199.93004,200.0223,54,105,0
200.02527,200.11754,57,105,0
200.12051,200.21277,54,106,0
200.21576,200.30801,50,106,0
200.31099,200.40326,43,107,0
200.40623,200.49849,50,107,0
200.50146,200.59373,55,108,0
200.59671,200.68896,59,108,0
200.69194,200.78421,55,109,0
200.78719,200.87944,50,109,0
200.88242,200.97469,45,110,0
200.97766,201.06992,55,110,0
201.07289,201.16516,57,110,0
201.16814,201.26039,61,110,0
201.26337,201.35564,57,110,0
201.35861,201.45087,55,110,0
201.45384,201.54883,50,110,0
201.55188,201.64687,54,110,0
201.64992,201.7449,57,110,0
201.74797,201.84294,62,110,0
201.84601,201.94098,57,110,0
201.94405,202.03902,54,110,0
202.04208,202.13705,45,110,0
202.14012,202.23509,55,110,0
202.23816,202.33313,57,110,0
202.3362,202.43117,61,110,0
202.43423,202.5292,57,110,0
202.53227,202.62724,55,110,0
202.63031,202.72917,50,110,0
202.73236,202.8312,54,110,0
202.8344,202.93324,57,110,0
202.93643,203.0353,62,110,0
203.03848,203.13733,57,110,0
203.14052,203.23936,54,110,0
203.24255,203.34561,45,110,0
203.34894,203.452,55,110,0
203.45532,203.55838,57,110,0
203.5617,203.66476,61,110,0
203.66809,203.77115,57,110,0
203.77448,203.87753,55,110,0
203.88086,203.95732,54,80,0
203.88086,204.19667,50,80,0
204.51915,204.80878,60,80,0
204.81183,205.10147,57,80,0
205.1045,205.39415,59,80,0
205.3972,205.68683,55,80,0
205.68988,205.9795,60,80,0
205.98256,206.27219,57,80,0
206.27524,206.56488,59,80,0
206.56792,206.85756,55,80,0
206.86061,207.15024,60,80,0
207.15329,207.44292,57,80,0
207.44597,207.7356,59,80,0
207.73865,208.02829,55,80,0
208.03134,208.32097,57,80,0
208.32402,208.61365,50,80,0
203.96065,208.90633,62,80,0
208.6167,208.90633,55,80,0
208.90938,209.19902,47,80,0
209.20206,209.4917,48,80,0
209.49475,209.78438,45,80,0
209.78743,210.07706,47,80,0
210.08011,210.36974,43,80,0
210.37279,210.66243,45,80,0
210.66547,210.95511,38,80,0
209.20206,211.24779,50,80,0
210.95816,211.24779,43,80,0
211.25084,211.54047,35,80,0
211.54352,211.83315,36,80,0
211.8362,212.12584,33,80,0
212.12888,212.41852,35,80,0
212.42157,212.7112,31,80,0
212.71425,213.00388,33,80,0
213.00693,213.29655,35,80,0
213.2996,213.58925,35,80,0
211.54352,213.88193,38,80,0
213.59229,213.88193,31,80,0
213.88498,214.1746,33,80,0
214.17766,214.46729,36,80,0
214.47034,214.75996,35,80,0
214.76302,215.05266,31,80,0
215.0557,215.34534,33,80,0
215.34839,215.63802,36,80,0
213.88498,215.9307,38,80,0
215.64107,215.9307,35,80,0
215.93375,216.22339,43,80,0
215.93375,216.22339,31,80,0
216.51912,216.80875,47,80,0
216.51912,216.80875,43,80,0
217.10448,217.3941,47,80,0
217.10448,217.3941,43,80,0
217.10448,217.3941,50,80,0
217.68983,217.97948,55,80,0
217.68983,217.97948,50,80,0
217.68983,217.97948,47,80,0
217.68983,217.97948,43,80,0
218.2752,218.56483,55,83,0
218.2752,218.56483,50,83,0
218.2752,218.56483,47,83,0
218.56789,218.85751,55,87,0
218.56789,218.85751,49,87,0
218.56789,218.85751,46,87,0
218.86057,219.1502,55,91,0
218.86057,219.1502,50,91,0
218.86057,219.1502,47,91,0
219.15324,219.44289,55,95,0
219.15324,219.44289,49,95,0
219.15324,219.44289,46,95,0
219.44594,219.73557,55,98,0
219.44594,219.73557,50,98,0
219.44594,219.73557,47,98,0
219.73862,220.02824,55,102,0
219.73862,220.02824,49,102,0
219.73862,220.02824,46,102,0
220.0313,220.32092,55,106,0
220.0313,220.32092,50,106,0
220.0313,220.32092,47,106,0
220.32397,220.61362,55,80,0
220.32397,220.61362,49,80,0
220.32397,220.61362,46,80,0
220.61665,220.9063,55,80,0
220.61665,220.9063,50,80,0
220.61665,220.9063,47,80,0
220.90935,221.78433,48,80,0
220.90935,221.78433,52,80,0
220.90935,221.78433,55,80,0
221.78738,222.07703,60,80,0
221.78738,222.07703,48,80,0
222.08006,222.3697,59,80,0
222.08006,222.3697,50,80,0
222.37276,222.66238,57,80,0
222.37276,222.66238,50,80,0
222.95811,223.24774,55,81,0
222.95811,223.24774,50,81,0
222.95811,223.24774,47,81,0
223.2508,223.54044,55,82,0
223.2508,223.54044,49,82,0
223.2508,223.54044,46,82,0
223.54349,223.83311,55,83,0
223.54349,223.83311,50,83,0
223.54349,223.83311,47,83,0
223.83617,224.1258,55,85,0
223.83617,224.1258,49,85,0
223.83617,224.1258,46,85,0
224.12885,224.41847,55,86,0
224.12885,224.41847,50,86,0
224.12885,224.41847,47,86,0
224.42152,224.71117,55,87,0
224.42152,224.71117,49,87,0
224.42152,224.71117,46,87,0
224.7142,225.00385,55,88,0
224.7142,225.00385,50,88,0
224.7142,225.00385,47,88,0
225.0069,225.29652,55,90,0
225.0069,225.29652,49,90,0
225.0069,225.29652,46,90,0
225.29958,225.5892,55,91,0
225.29958,225.5892,50,91,0
225.29958,225.5892,47,91,0
225.59225,226.46725,50,92,0
225.59225,226.46725,53,92,0
225.59225,226.46725,59,92,0
226.4703,226.75993,55,96,0
226.4703,226.75993,50,96,0
226.4703,226.75993,47,96,0
226.76299,227.63799,52,97,0
226.76299,227.63799,55,97,0
226.76299,227.63799,60,97,0
227.64102,227.93066,58,101,0
227.64102,227.93066,52,101,0
227.64102,227.93066,49,101,0
227.93372,228.8087,52,102,0
227.93372,228.8087,58,102,0
227.93372,228.8087,61,102,0
228.81175,229.39407,61,106,0
228.81175,229.39407,58,106,0
228.81175,229.39407,52,106,0
229.39713,229.68675,61,108,0
229.39713,229.68675,58,108,0
229.39713,229.68675,52,108,0
229.6898,229.78432,50,100,0
229.78737,229.88188,59,100,0
229.88492,229.97943,62,100,0
229.98248,230.077,52,99,0
230.08005,230.17456,58,99,0
230.17761,230.27211,61,99,0
230.27516,230.36967,50,98,0
230.37273,230.46724,59,98,0
230.47029,230.5648,62,97,0
230.56784,230.66235,49,97,0
230.6654,230.75992,58,97,0
230.76297,230.85748,64,96,0
230.86053,230.95505,50,96,0
230.95808,231.0526,59,96,0
231.05565,231.15016,62,95,0
231.15321,231.44284,40,95,0
231.44589,231.73553,38,94,0
231.73857,232.02821,37,92,0
232.03127,232.32089,38,91,0
232.32394,232.41846,52,80,0
232.4215,232.516,58,80,0
232.51906,232.61357,61,80,0
232.61662,232.71114,50,80,0
232.71419,232.8087,59,80,0
232.81174,232.90625,62,80,0
232.9093,233.00381,49,80,0
233.00687,233.10138,58,80,0
233.10443,233.19894,64,80,0
233.20198,233.2979,50,80,0
233.301,233.39691,59,80,0
233.40001,233.49593,62,80,0
233.49901,233.79295,40,80,0
233.79605,234.08998,38,80,0
234.09308,234.38701,37,80,0
234.3901,234.69304,38,80,0
234.69623,234.99916,40,83,0
235.00235,235.30528,38,87,0
235.30847,235.6114,37,91,0
235.6146,235.9271,38,95,0
235.93037,236.24287,37,99,0
236.24617,236.61726,38,103,0
236.62117,237.05347,37,107,0
240.55867,240.85555,57,80,0
240.85867,241.15555,57,80,0
241.15866,241.45554,57,80,0
241.45866,241.60555,55,80,0
241.75867,242.05554,55,80,0
237.05867,242.35555,50,111,0
242.05867,242.35555,54,80,0
242.35867,242.65555,53,80,0
242.65866,242.95554,52,80,0
242.95866,243.25554,51,80,0
243.25867,243.55554,51,80,0
243.55867,243.85555,51,80,0
243.85867,244.15555,50,80,0
244.15866,244.45554,49,80,0
244.45866,244.75554,48,80,0
244.75867,245.05554,48,80,0
245.05867,245.35555,47,80,0
245.35867,245.65555,46,80,0
245.65866,245.95554,45,83,0
245.95866,246.25554,44,87,0
237.05867,246.40555,38,111,0
246.25867,246.40555,43,90,0
246.40866,246.55554,50,92,0
246.40866,246.55554,38,92,0
246.55867,246.85555,55,94,0
246.55867,246.85555,43,94,0
246.85867,247.15555,55,97,0
247.15866,247.45554,61,101,0
247.15866,247.45554,55,101,0
247.45866,247.60555,62,104,0
247.45866,247.60555,54,104,0
247.60867,247.75554,47,106,0
247.75867,248.05554,52,108,0
248.05867,248.35555,52,111,0
248.35867,248.66472,58,110,0
248.35867,248.66472,52,110,0
248.66795,248.81937,59,110,0
248.66795,248.81937,50,110,0
248.82259,248.974,43,110,0
248.97722,249.28328,48,110,0
249.2865,249.59256,48,110,0
249.2865,249.59256,36,110,0
249.59578,249.9116,48,110,0
249.59578,249.9116,42,110,0
249.91493,250.07118,47,110,0
249.91493,250.07118,43,110,0
250.07451,250.23076,40,110,0
250.23407,250.56393,45,110,0
250.56741,250.89726,45,110,0
250.56741,250.89726,42,110,0
250.90074,251.00838,38,70,0
251.01186,251.11429,45,70,0
251.1174,251.21428,50,70,0
251.2174,251.31429,54,70,0
251.31741,251.41428,50,70,0
251.4174,251.51428,45,70,0
251.51741,251.61429,38,70,0
251.6174,251.71428,45,70,0
251.7174,251.81429,50,70,0
251.81741,251.91428,54,70,0
251.9174,252.01428,50,70,0
252.01741,252.11429,45,70,0
252.1174,252.21428,38,70,0
252.2174,252.31429,45,70,0
252.31741,252.41428,50,70,0
252.4174,252.51428,54,70,0
252.51741,252.61429,50,70,0
252.6174,252.71428,45,70,0
252.7174,252.81429,38,70,0
252.81741,252.91428,45,70,0
252.9174,253.01428,50,70,0
253.01741,253.11429,54,70,0
253.1174,253.21428,50,70,0
253.2174,253.31429,45,70,0
253.31741,253.41428,38,70,0
253.4174,253.51428,45,70,0
253.51741,253.61429,50,70,0
253.6174,253.71428,54,70,0
253.7174,253.81429,50,70,0
253.81741,253.91428,45,70,0
253.9174,254.01428,38,70,0
254.01741,254.11429,45,70,0
254.1174,254.21428,50,70,0
254.2174,254.31429,54,70,0
254.31741,254.41428,50,70,0
254.4174,254.51428,45,70,0
254.51741,254.61429,38,70,0
254.6174,254.71428,45,70,0
254.7174,254.81429,50,70,0
254.81741,254.91428,54,70,0
254.9174,255.01428,50,70,0
255.01741,255.11429,45,70,0
255.1174,255.21428,38,70,0
255.2174,255.31429,45,70,0
255.31741,255.41428,50,70,0
255.4174,255.51428,54,70,0
255.51741,255.61429,50,70,0
255.6174,255.71428,45,70,0
255.7174,256.01727,38,80,0
262.86475,263.214,50,80,0
262.86475,263.214,48,80,0
263.21768,263.56693,50,80,0
263.21768,263.56693,47,80,0
263.57062,263.9199,50,80,0
263.57062,263.9199,45,80,0
263.92355,264.62576,50,80,0
263.92355,264.62576,43,80,0
266.5353,266.93115,50,80,0
266.5353,266.93115,42,80,0
266.93533,267.33115,50,80,0
266.93533,267.33115,43,80,0
267.33533,267.73114,50,80,0
267.33533,267.73114,43,80,0
267.73532,268.13116,50,80,0
267.73532,268.13116,42,80,0
268.1353,268.53116,50,80,0
268.1353,268.53116,40,80,0
268.5353,270.13116,38,80,0
268.6353,270.13116,50,80,0
271.83533,272.1322,50,80,0
271.83533,272.1322,38,80,0
272.1353,272.4322,50,80,0
272.1353,272.4322,38,80,0
272.43533,272.7322,50,80,0
272.43533,272.7322,38,80,0
272.73532,273.33218,52,80,0
272.73532,273.33218,40,80,0
275.1353,275.53116,60,80,0
275.1353,275.53116,54,80,0
275.5353,275.93115,59,80,0
275.5353,275.93115,55,80,0
275.93533,276.33115,59,80,0
275.93533,276.33115,52,80,0
276.33533,277.13116,57,80,0
276.33533,277.13116,48,80,0
277.1353,278.73114,50,80,0
277.1353,278.73114,38,80,0
278.73532,280.73114,47,80,0
278.83533,280.73114,50,80,0
278.93533,280.73114,55,80,0
279.0353,280.73114,59,80,0
281.5353,281.93115,60,80,0
281.5353,281.93115,54,80,0
281.93533,282.33115,59,80,0
281.93533,282.33115,55,80,0
282.33533,282.73114,59,80,0
282.33533,282.73114,52,80,0
282.73532,283.53116,57,80,0
282.73532,283.53116,48,80,0
283.5353,284.73114,38,80,0
284.73532,284.93115,40,80,0
284.93533,285.13116,42,80,0
285.1353,285.53116,43,80,0
285.5353,285.93115,45,80,0
285.93533,286.33115,47,80,0
286.33533,286.53116,48,80,0
286.5353,286.73114,47,80,0
286.73532,286.8752,45,80,0
286.80676,286.94662,47,80,0
286.87817,287.01807,45,80,0
286.94962,287.08948,47,80,0
287.02103,287.16092,45,80,0
287.09247,287.23233,47,80,0
287.16388,287.30377,45,80,0
287.23532,287.3752,47,80,0
287.30676,287.44662,45,80,0
287.37817,287.51807,47,80,0
287.44962,287.58948,45,80,0
287.52103,287.66092,47,80,0
287.59247,287.73233,45,80,0
287.66388,287.80377,47,80,0
287.73532,287.8752,45,80,0
287.80676,287.94662,47,80,0
287.87817,288.01807,45,80,0
287.94962,288.08948,47,80,0
288.02103,288.16092,45,80,0
288.09247,288.23233,47,80,0
288.16388,288.30377,45,80,0
288.23532,288.3752,47,80,0
288.30676,288.44662,45,80,0
288.37817,288.51807,47,80,0
288.44962,288.58948,45,80,0
288.52103,288.66092,47,80,0
288.59247,288.73233,45,80,0
288.66388,288.80377,47,80,0
288.73532,288.8752,45,80,0
288.80673,288.94662,47,80,0
288.87817,289.01807,45,80,0
288.94962,289.07428,47,80,0
289.02103,289.12982,45,80,0
289.0766,289.1854,47,80,0
289.13214,289.24094,45,80,0
289.1877,289.2965,47,80,0
289.24326,289.35205,45,80,0
289.2988,289.4076,47,80,0
289.35437,289.46317,45,80,0
289.4099,289.5187,47,80,0
289.46548,289.57428,45,80,0
289.52103,289.62982,47,80,0
289.5766,289.6854,45,80,0
289.63214,289.74094,47,80,0
289.6877,289.7965,45,80,0
289.74326,289.85205,47,80,0
289.7988,289.9076,45,80,0
289.85437,289.96317,47,80,0
289.9099,290.0187,45,80,0
289.96548,290.07428,47,80,0
290.02103,290.12982,45,80,0
290.0766,290.1854,47,80,0
290.13214,290.24094,45,80,0
290.18768,290.2965,47,80,0
290.24326,290.35205,45,80,0
290.2988,290.4076,47,80,0
290.35437,290.46317,45,80,0
290.4099,290.5187,47,80,0
290.46548,290.57428,45,80,0
290.52103,290.62982,47,80,0
290.5766,290.6854,45,80,0
290.63214,290.74094,47,80,0
290.68768,290.7965,45,80,0
290.74326,290.85205,47,80,0
290.7988,290.9076,45,80,0
290.85437,290.96317,47,80,0
290.9099,291.0187,45,80,0
290.96548,291.07428,47,80,0
291.02103,291.12982,45,80,0
291.0766,291.1854,47,80,0
291.13214,291.24094,45,80,0
291.18768,291.29648,47,80,0
291.24326,291.35205,45,80,0
291.2988,291.4076,47,80,0
291.35437,291.46317,45,80,0
291.4099,291.5187,47,80,0
291.46548,291.57428,45,80,0
291.52103,291.62982,47,80,0
291.5766,291.6854,45,80,0
291.63214,291.74094,47,80,0
291.68768,291.79648,45,80,0
291.74326,291.85205,47,80,0
291.7988,291.9076,45,80,0
291.85437,291.96317,47,80,0
291.9099,292.0187,45,80,0
291.96548,292.07428,47,80,0
292.02103,292.12982,45,80,0
292.0766,292.1854,47,80,0
292.13214,292.24094,45,80,0
292.18768,292.29648,47,80,0
292.24326,292.35205,45,80,0
292.2988,292.4076,47,80,0
292.35437,292.46317,45,80,0
292.4099,292.5187,47,80,0
292.46548,292.57428,45,80,0
292.52103,292.62982,47,80,0
292.5766,292.6854,45,80,0
292.63214,292.74094,47,80,0
292.68768,292.79648,45,80,0
292.74326,292.85205,47,80,0
292.7988,292.9076,45,80,0
292.85437,292.96317,47,80,0
292.9099,293.0187,45,80,0
292.96548,293.07428,47,80,0
293.02103,293.12982,45,80,0
293.0766,293.1854,47,80,0
293.13214,293.24094,45,80,0
293.18768,293.29648,47,80,0
293.24326,293.35205,45,80,0
293.2988,293.4076,47,80,0
286.73532,293.46317,38,80,0
293.35437,293.46317,43,80,0
293.4099,293.5187,45,80,0
293.46548,293.6854,43,80,0
293.46548,293.6854,31,80,0
293.9099,294.0187,53,80,0
294.02103,294.12982,51,80,0
294.13214,294.24094,50,80,0
294.24326,294.35205,51,80,0
294.35437,294.57428,50,80,0
295.02103,295.24094,62,80,0
295.02103,295.24094,66,80,0
295.24326,295.46317,55,80,0
295.24326,295.46317,67,80,0
295.68768,295.79648,53,80,0
295.7988,295.9076,51,80,0
295.9099,296.0187,50,80,0
296.02103,296.12982,51,80,0
296.13214,296.35205,50,80,0
296.7988,297.0187,78,80,0
296.7988,297.0187,74,80,0
297.02103,297.24094,79,80,0
297.02103,297.24094,67,80,0
297.46545,297.57428,53,80,0
297.57657,297.68536,51,81,0
297.68768,297.79648,50,82,0
297.7988,297.9076,51,83,0
297.9099,298.0187,53,84,0
298.02103,298.12982,51,85,0
298.13214,298.24094,50,87,0
298.24326,298.35205,51,88,0
298.35437,298.46317,53,89,0
298.46545,298.57425,51,90,0
298.57657,298.68536,50,91,0
298.68768,298.79648,51,93,0
298.7988,298.9076,53,94,0
298.9099,299.0187,51,95,0
299.02103,299.12982,50,96,0
299.13214,299.24094,51,97,0
299.24326,299.35205,53,98,0
299.35437,299.46317,51,100,0
299.46545,299.57425,50,101,0
299.57657,299.68536,51,102,0
299.68768,299.79648,53,103,0
299.7988,299.9076,51,104,0
299.9099,300.0187,50,106,0
300.02103,300.12982,51,107,0
300.13214,300.24094,53,108,0
300.24326,300.35205,51,109,0
300.35434,300.46317,50,110,0
300.46545,300.57425,51,111,0
300.57657,300.79648,50,110,0
300.57657,300.79648,38,110,0
300.7988,301.24094,54,110,0
301.24326,301.68536,57,110,0
301.68768,302.12982,60,110,0
302.13214,302.57425,66,110,0
302.57657,302.79648,69,110,0
302.7988,303.0187,72,110,0
303.02103,303.24094,78,110,0
303.24326,303.46313,81,110,0
303.46545,303.68536,83,110,0
303.68768,303.9076,86,110,0
303.9099,304.12982,78,110,0
304.13214,304.35205,79,80,0
304.35434,304.57425,67,80,0
304.7988,305.0187,62,80,0
305.24323,305.46313,55,80,0
305.68768,305.9076,50,80,0
306.13214,306.35202,43,80,0
306.35434,306.46313,40,80,0
306.46545,306.57425,38,81,0
306.57657,306.68536,37,82,0
306.68768,306.79648,38,83,0
306.7988,306.9076,40,85,0
306.9099,307.0187,38,86,0
307.02103,307.12982,37,87,0
307.1321,307.24094,38,89,0
307.24323,307.35202,40,90,0
307.35434,307.46313,38,91,0
307.46545,307.57425,37,92,0
307.57657,307.68536,38,94,0
307.68768,307.79648,40,95,0
307.7988,307.9076,38,96,0
307.9099,308.0187,37,98,0
308.02103,308.12982,38,99,0
308.1321,308.2409,40,100,0
308.24323,308.35202,38,101,0
308.35434,308.46313,37,103,0
308.46545,308.57425,38,104,0
308.57657,308.68536,40,105,0
308.68768,308.79648,38,107,0
308.7988,308.9076,37,108,0
308.9099,309.0187,38,109,0
309.02103,309.12982,40,110,0
309.1321,309.2409,38,112,0
309.24323,309.35202,37,113,0
309.35434,309.46313,38,114,0
309.46545,309.57425,40,116,0
309.57657,309.68536,38,117,0
309.68768,309.79648,37,118,0
309.7988,309.9076,38,120,0
310.35434,310.46313,40,120,0
310.46545,310.57425,38,120,0
310.57657,310.68536,37,120,0
310.68768,310.79648,38,120,0
311.24323,311.46313,43,120,0
311.24323,311.46313,31,120,0
311.46545,311.68536,43,120,0
311.46545,311.68536,31,120,0
313.021,313.2409,43,120,0
313.021,313.2409,31,120,0
313.24323,313.46313,43,120,0
313.24323,313.46313,31,120,0
314.7988,315.0363,43,80,0
314.7988,315.0363,31,80,0
315.7588,316.01694,43,80,0
315.7588,316.01694,31,80,0
316.80225,317.1321,43,74,0
316.80225,317.1321,31,74,0
317.46893,317.7988,43,71,0
317.46893,317.7988,31,71,0
