start_time,end_time,note_value,velocity,instrument_program_number
0.0,0.734375,62,80,0
0.75,1.484375,61,80,0
1.5,2.234375,62,80,0
2.25,2.984375,65,80,0
3.0,3.734375,61,80,0
0.0,4.484375,53,80,0
0.0,4.484375,57,80,0
3.75,4.484375,62,80,0
4.5,5.234375,62,80,0
5.25,5.984375,61,80,0
6.0,6.734375,62,80,0
6.75,7.484375,67,80,0
7.5,8.234375,61,80,0
4.5,8.984375,55,80,0
4.5,8.984375,58,80,0
8.25,8.984375,62,80,0
9.0,9.734375,65,80,0
9.0,10.484375,58,80,0
9.0,10.484375,55,80,0
9.75,10.484375,64,80,0
10.5,11.234375,62,80,0
10.5,11.234375,58,80,0
10.5,11.234375,55,80,0
11.25,12.734375,61,80,0
11.25,12.734375,58,80,0
11.25,12.734375,55,80,0
12.75,13.484375,62,80,0
12.75,13.484375,58,80,0
12.75,13.484375,55,80,0
13.5,14.234375,65,80,0
13.5,14.984375,58,80,0
13.5,14.984375,55,80,0
14.25,14.984375,64,83,0
15.0,15.734375,66,86,0
15.0,15.734375,62,86,0
15.0,15.734375,57,86,0
15.75,17.333334,67,89,0
15.75,17.333334,62,89,0
17.35,18.133333,69,96,0
17.35,18.133333,62,96,0
17.35,18.133333,60,96,0
18.15,18.933332,70,99,0
18.15,18.933332,62,99,0
18.15,18.933332,58,99,0
18.95,19.684376,70,80,0
19.7,20.434376,70,80,0
20.45,21.184376,70,80,0
21.2,21.934376,70,80,0
21.95,22.684376,70,80,0
22.7,23.434376,76,80,0
22.7,24.184376,73,80,0
22.7,24.184376,70,80,0
22.7,24.184376,67,80,0
23.45,24.184376,75,80,0
24.2,24.934376,76,80,0
24.2,24.934376,73,80,0
24.2,24.934376,70,80,0
24.2,24.934376,67,80,0
24.95,25.684376,79,80,0
24.95,26.434376,73,80,0
24.95,26.434376,70,80,0
24.95,26.434376,67,80,0
25.7,26.434376,75,80,0
26.45,27.184376,76,80,0
26.45,27.184376,73,80,0
26.45,27.184376,70,80,0
26.45,27.184376,67,80,0
27.2,27.983334,74,80,0
27.2,28.839285,71,80,0
27.2,28.839285,68,80,0
27.2,28.839285,76,80,0
28.0,28.839285,77,80,0
28.857143,29.696428,77,80,0
28.857143,29.696428,74,80,0
28.857143,29.696428,71,80,0
28.857143,29.696428,68,80,0
30.142857,31.410713,68,80,0
30.25,31.410713,71,80,0
30.357141,31.410713,74,80,0
30.464285,31.410713,77,80,0
31.42857,32.05357,76,80,0
32.071426,32.267857,74,80,0
32.285713,33.069046,74,80,0
33.085712,33.869045,69,80,0
33.88571,34.669044,69,80,0
34.68571,35.469048,69,80,0
35.485714,36.269047,61,80,0
36.285713,37.124996,61,80,0
37.142857,38.826187,62,80,0
39.642857,39.826187,69,80,0
39.834522,40.826187,81,98,0
40.842854,41.22619,79,80,0
41.242855,41.62619,77,80,0
41.642857,42.026188,76,80,0
42.042854,42.62619,79,80,0
42.642857,42.826187,77,80,0
42.842854,43.826187,77,80,0
43.842854,43.92619,79,80,0
43.942856,44.026188,77,80,0
44.042854,44.326187,76,80,0
44.342854,44.42619,74,80,0
44.442856,44.826187,74,80,0
44.842854,45.22619,73,80,0
45.242855,46.026188,73,80,0
46.042854,46.826187,73,80,0
46.842854,47.026188,74,80,0
47.042854,47.092854,76,80,0
47.10952,47.159523,74,80,0
47.17619,47.22619,73,80,0
47.242855,47.42619,74,80,0
47.442856,47.62619,76,80,0
47.642857,48.42619,77,80,0
48.842854,49.22619,69,80,0
49.242855,49.42619,69,80,0
49.43452,50.42619,81,99,0
50.442856,50.826187,79,80,0
50.842854,51.22619,77,80,0
51.242855,51.62619,76,80,0
51.642857,52.22619,79,80,0
52.242855,52.42619,77,80,0
52.442856,53.62619,77,80,0
53.642857,54.026188,78,80,0
54.042854,54.22619,67,80,0
54.23452,55.22619,79,80,0
55.242855,55.62619,77,80,0
55.642857,56.026188,76,80,0
56.042854,56.42619,74,80,0
56.442856,57.22619,77,80,0
57.242855,58.026188,76,80,0
59.642857,60.42619,74,80,0
59.642857,60.42619,72,80,0
60.442856,61.22619,74,80,0
60.442856,61.22619,72,80,0
61.242855,62.42619,76,80,0
62.442856,62.62619,77,87,0
62.642857,62.826187,76,88,0
62.842854,63.42619,74,89,0
61.242855,63.62619,72,80,0
63.442856,63.62619,76,93,0
63.642857,64.82619,79,94,0
64.84286,65.22619,77,100,0
65.24285,65.62619,76,91,0
63.642857,66.02619,71,94,0
65.64285,66.02619,74,81,0
66.042854,66.426186,75,80,0
66.042854,66.82619,72,80,0
66.442856,66.82619,76,82,0
69.24285,70.02619,74,101,0
69.24285,70.02619,84,101,0
69.24285,70.02619,86,101,0
70.042854,70.82619,74,107,0
70.042854,70.82619,84,107,0
70.042854,70.82619,86,107,0
70.84286,71.02619,76,110,0
71.042854,71.82619,88,109,0
71.84286,72.02619,84,101,0
72.042854,72.22619,79,100,0
72.24285,72.426186,76,98,0
72.442856,72.62619,72,96,0
72.64285,72.82619,67,94,0
72.84286,73.02619,64,92,0
73.042854,73.22619,60,91,0
73.24285,74.426186,67,80,0
73.24285,74.82619,59,80,0
74.442856,74.82619,65,80,0
74.84286,75.22619,62,80,0
74.84286,75.62619,59,80,0
75.24285,75.62619,67,80,0
75.64285,77.22619,60,80,0
77.24285,77.82619,60,80,0
77.84286,78.02619,72,80,0
78.042854,79.62619,72,80,0
78.042854,79.62619,63,80,0
79.64285,80.02619,71,80,0
79.64285,80.426186,63,80,0
80.042854,80.426186,69,80,0
80.442856,81.22619,69,80,0
80.442856,82.02619,64,80,0
81.24285,82.02619,68,80,0
82.042854,82.22619,69,80,0
82.24285,82.292854,71,80,0
82.309525,82.35952,69,80,0
82.37619,82.426186,68,80,0
82.442856,82.62619,69,80,0
82.64285,82.82619,71,80,0
82.84286,83.62619,72,80,0
83.64285,83.82619,71,80,0
83.84286,84.02619,72,80,0
84.042854,84.22619,71,80,0
82.84286,84.426186,63,80,0
84.24285,84.426186,72,80,0
84.442856,84.62619,74,80,0
84.64285,84.82619,72,80,0
84.84286,85.02619,71,80,0
84.442856,85.22619,63,80,0
85.042854,85.22619,69,80,0
85.24285,86.02619,69,80,0
85.24285,86.82619,64,80,0
86.042854,86.82619,68,80,0
87.24285,87.62619,68,80,0
87.64285,88.75223,77,110,0
87.64285,88.75223,71,110,0
87.64285,88.75223,68,110,0
87.64285,88.75223,65,110,0
88.76785,89.12723,76,110,0
88.76785,89.12723,71,110,0
88.76785,89.12723,68,110,0
88.76785,89.12723,64,110,0
89.14285,89.50223,74,110,0
89.14285,89.50223,71,110,0
89.14285,89.50223,68,110,0
89.14285,89.50223,62,110,0
89.51785,89.90119,77,110,0
89.51785,89.90119,68,110,0
89.51785,89.90119,65,110,0
89.917854,90.70119,76,110,0
89.917854,90.70119,69,110,0
89.917854,90.70119,64,110,0
91.51785,92.301186,71,80,0
91.51785,92.301186,69,80,0
91.51785,92.301186,65,80,0
92.317856,93.10119,72,80,0
92.317856,93.10119,69,80,0
92.317856,93.10119,64,80,0
93.917854,94.70119,68,80,0
93.917854,94.70119,64,80,0
93.917854,94.70119,62,80,0
93.917854,94.70119,59,80,0
94.71786,96.301186,69,80,0
94.71786,96.301186,64,80,0
94.71786,96.301186,60,80,0
98.71786,99.50119,63,110,0
98.71786,99.50119,51,110,0
99.51785,99.90119,64,110,0
99.51785,99.90119,52,110,0
99.917854,100.70119,76,110,0
99.917854,100.70119,64,110,0
100.71786,101.10119,74,110,0
100.71786,101.10119,62,110,0
101.11785,101.50119,72,110,0
101.11785,101.50119,60,110,0
101.51785,101.90119,71,110,0
101.51785,101.90119,59,110,0
101.917854,103.50119,69,120,0
101.917854,103.50119,57,120,0
103.917854,104.301186,63,120,0
103.917854,104.301186,51,120,0
104.317856,104.70119,64,120,0
104.317856,104.70119,52,120,0
104.71786,105.50119,76,120,0
104.71786,105.50119,64,120,0
105.51785,105.70119,75,120,0
105.71786,105.90119,76,120,0
105.917854,106.10119,75,120,0
106.11785,106.301186,76,120,0
106.317856,106.50119,75,120,0
106.51785,106.70119,76,120,0
106.71786,107.90119,77,120,0
106.71786,107.90119,65,120,0
107.917854,108.301186,76,80,0
107.917854,108.301186,64,80,0
108.317856,108.70119,74,80,0
108.317856,108.70119,62,80,0
106.71786,109.10119,71,120,0
106.71786,109.10119,68,120,0
108.71786,109.10119,77,80,0
108.71786,109.10119,65,80,0
109.11785,110.301186,82,120,0
109.11785,110.301186,70,120,0
110.317856,110.70119,81,80,0
110.317856,110.70119,69,80,0
110.71786,111.10119,79,80,0
110.71786,111.10119,67,80,0
109.11785,111.50119,76,120,0
109.11785,111.50119,73,120,0
111.11785,111.50119,82,80,0
111.11785,111.50119,70,80,0
111.51785,112.70119,84,120,0
112.71786,113.10119,83,80,0
113.11785,113.50119,81,80,0
111.51785,113.90119,78,120,0
111.51785,113.90119,75,120,0
111.51785,113.90119,72,120,0
113.51785,113.90119,84,80,0
113.917854,114.70119,80,80,0
113.917854,114.70119,77,80,0
113.917854,114.70119,74,80,0
113.917854,114.70119,71,80,0
115.51785,116.301186,81,80,0
115.51785,116.301186,76,80,0
115.51785,116.301186,72,80,0
115.51785,116.301186,69,80,0
116.317856,117.15714,77,80,0
116.317856,117.15714,71,80,0
116.317856,117.15714,69,80,0
116.317856,117.15714,65,80,0
118.03214,118.87142,76,80,0
118.03214,118.87142,68,80,0
118.03214,118.87142,64,80,0
118.88928,120.50119,69,80,0
122.11785,122.901184,76,80,0
122.917854,123.70119,76,80,0
123.71786,125.10119,76,80,0
125.11785,125.20119,77,80,0
125.21786,125.301186,76,80,0
125.317856,125.901184,74,80,0
125.917854,126.10119,76,80,0
126.11785,126.20119,74,80,0
126.21786,126.301186,76,80,0
126.317856,127.70119,77,80,0
127.71786,128.10118,76,80,0
128.11786,128.50119,74,80,0
128.51785,129.90118,72,80,0
129.91785,130.00119,74,80,0
130.00952,130.09285,72,80,0
130.11786,130.70119,71,80,0
130.71785,130.90118,72,80,0
130.91785,131.00119,71,80,0
131.00952,131.09285,72,80,0
131.11786,132.50119,74,80,0
132.11786,132.50119,62,80,0
132.51785,132.90118,72,80,0
132.51785,132.90118,60,80,0
132.91785,133.3012,71,80,0
132.91785,133.3012,59,80,0
133.31786,133.70119,69,80,0
133.31786,134.10118,57,80,0
133.71785,134.10118,64,80,0
134.11786,134.50119,60,80,0
134.51785,134.90118,57,80,0
134.91785,135.3012,52,80,0
135.31786,135.70119,48,80,0
135.71785,136.50119,45,80,0
140.51785,141.3012,57,80,0
140.51785,142.10118,60,80,0
141.31786,142.10118,57,80,0
142.11786,142.50119,62,80,0
142.11786,142.90118,57,80,0
142.51785,142.90118,64,80,0
142.91785,143.70119,60,80,0
142.91785,143.70119,57,80,0
142.91785,144.50119,65,80,0
143.71785,144.50119,60,80,0
143.71785,144.50119,57,80,0
144.51785,145.3012,60,80,0
144.51785,145.3012,57,80,0
144.51785,145.3012,65,80,0
145.31786,146.10118,60,80,0
145.31786,146.10118,57,80,0
145.31786,146.50119,65,80,0
146.51785,146.70119,67,80,0
146.11786,146.90118,60,80,0
146.11786,146.90118,57,80,0
146.71785,146.90118,65,80,0
146.91785,147.3012,64,80,0
146.91785,147.70119,60,80,0
146.91785,147.70119,57,80,0
147.31786,147.70119,65,80,0
147.71785,148.50119,60,80,0
147.71785,148.50119,58,80,0
147.71785,148.50119,54,80,0
147.71785,148.50119,66,80,0
148.51785,149.3012,60,80,0
148.51785,149.3012,58,80,0
148.51785,150.10118,55,80,0
148.51785,150.10118,67,80,0
149.31786,150.10118,60,80,0
149.31786,150.10118,58,80,0
150.11786,150.90118,60,80,0
150.11786,150.90118,58,80,0
150.91785,151.70119,60,80,0
150.91785,151.70119,58,80,0
151.71785,152.3012,55,80,0
151.71785,152.3012,67,80,0
151.71785,152.50119,60,80,0
151.71785,152.50119,58,80,0
152.31786,152.50119,65,80,0
152.31786,152.50119,53,80,0
152.51785,153.3012,58,80,0
152.51785,153.3012,65,80,0
152.51785,153.3012,60,80,0
153.31786,154.10118,58,80,0
153.31786,154.10118,64,80,0
153.31786,154.10118,60,80,0
154.11786,154.70119,62,80,0
154.11786,154.90118,58,80,0
154.71785,154.90118,60,80,0
154.91785,155.70119,58,80,0
154.91785,155.70119,52,80,0
154.91785,156.50119,60,80,0
155.71785,156.50119,58,80,0
155.71785,156.50119,52,80,0
156.51785,156.70119,64,80,0
156.71785,156.90118,62,80,0
156.51785,157.3012,58,80,0
156.91785,157.3012,60,80,0
157.31786,158.10118,60,80,0
157.31786,158.10118,57,80,0
158.11786,158.90118,60,85,0
158.11786,158.90118,57,85,0
158.91785,159.70119,60,91,0
158.91785,159.70119,57,91,0
158.11786,160.50119,65,85,0
159.71785,160.50119,60,97,0
159.71785,160.50119,57,97,0
160.51785,161.3012,64,103,0
160.51785,161.3012,60,103,0
160.51785,161.3012,57,103,0
161.31786,162.10118,63,109,0
161.31786,162.10118,60,109,0
161.31786,162.10118,57,109,0
162.11786,162.90118,60,120,0
162.11786,162.90118,57,120,0
162.11786,162.90118,63,120,0
162.91785,163.70119,60,120,0
162.91785,163.70119,57,120,0
162.91785,163.70119,62,120,0
163.71785,164.3012,61,120,0
163.71785,164.50119,60,120,0
163.71785,164.50119,57,120,0
164.31786,164.50119,62,120,0
164.51785,165.3012,60,120,0
164.51785,165.3012,57,120,0
164.51785,165.3012,63,120,0
165.31786,166.10118,60,120,0
165.31786,166.10118,57,120,0
165.31786,166.10118,62,120,0
166.11786,166.70119,61,120,0
166.11786,166.90118,60,120,0
166.11786,166.90118,57,120,0
166.71785,166.90118,62,120,0
166.91785,167.10118,62,120,0
166.91785,167.10118,58,120,0
167.11786,167.3012,82,80,0
167.31786,167.50119,84,80,0
167.51785,167.70119,86,80,0
167.91785,168.10118,86,80,0
168.11786,168.3012,84,80,0
168.31786,168.50119,82,80,0
168.71785,168.90118,82,80,0
168.91785,169.10118,81,80,0
169.11786,169.3012,79,80,0
169.51785,169.70119,78,80,0
169.71785,169.90118,79,80,0
169.91785,170.10118,74,80,0
170.31786,170.50119,74,80,0
170.51785,170.70119,72,80,0
170.71785,170.90118,70,80,0
171.16785,171.39702,70,80,0
171.41785,171.64702,69,80,0
171.66785,171.89702,67,80,0
171.91785,172.8012,65,120,0
171.91785,172.8012,62,120,0
171.91785,172.8012,59,120,0
172.81786,173.60118,64,120,0
172.81786,173.60118,62,120,0
172.81786,173.60118,59,120,0
173.61786,174.20119,63,120,0
173.61786,174.40118,62,120,0
173.61786,174.40118,59,120,0
174.21785,174.40118,64,120,0
174.41785,175.20119,65,120,0
174.41785,175.20119,62,120,0
174.41785,175.20119,59,120,0
175.21785,176.00119,64,120,0
175.21785,176.00119,62,120,0
175.21785,176.00119,59,120,0
176.01785,176.60118,63,120,0
176.01785,176.8012,62,120,0
176.01785,176.8012,59,120,0
176.61786,176.8012,64,120,0
176.81786,177.00119,64,120,0
176.81786,177.00119,61,120,0
177.01785,177.20119,85,80,0
177.21785,177.40118,86,80,0
177.41785,177.60118,88,80,0
177.81786,178.00119,88,80,0
178.01785,178.20119,86,80,0
178.21785,178.40118,85,80,0
178.61786,178.8012,85,80,0
178.81786,179.00119,83,80,0
179.01785,179.20119,81,80,0
179.41785,179.60118,80,80,0
179.61786,179.8012,81,80,0
179.81786,180.00119,76,80,0
180.21785,180.40118,76,80,0
180.41785,180.60118,74,80,0
180.61786,180.8012,73,80,0
181.01785,181.20119,73,80,0
181.21785,181.40118,71,80,0
181.41785,181.60118,69,80,0
181.81786,182.00119,86,80,0
182.01785,182.20119,88,80,0
182.21785,182.40118,89,80,0
182.61786,182.8012,89,80,0
182.81786,183.00119,88,80,0
183.01785,183.20119,86,80,0
183.41785,183.60118,85,80,0
183.61786,183.8012,86,80,0
183.81786,184.00119,81,80,0
184.21785,184.40118,80,80,0
184.41785,184.60118,82,80,0
184.61786,184.8012,81,80,0
185.01785,185.20119,81,80,0
185.21785,185.40118,79,80,0
185.41785,185.60118,77,80,0
185.81786,186.00119,77,80,0
186.01785,186.20119,76,80,0
186.21785,186.40118,74,80,0
186.61786,186.8012,79,80,0
186.81786,187.00119,81,80,0
187.01785,187.20119,82,80,0
187.41785,187.60118,82,80,0
187.61786,187.8012,81,80,0
187.81786,188.00119,79,80,0
188.21785,188.40118,79,80,0
188.41785,188.60118,77,80,0
188.61786,188.8012,76,80,0
189.01785,189.20119,76,80,0
189.21785,189.40118,74,80,0
189.41785,189.60118,73,80,0
189.81786,190.00119,70,80,0
190.01785,190.20119,69,80,0
190.21785,190.40118,67,80,0
190.61786,190.8012,67,80,0
190.81786,191.00119,65,80,0
191.01785,191.20119,64,80,0
191.41785,191.60118,64,80,0
191.61786,191.8012,62,80,0
191.81786,192.00119,61,80,0
192.21785,192.40118,58,80,0
192.41785,192.60118,57,80,0
192.61786,192.8012,55,80,0
193.01785,193.20119,55,80,0
193.21785,193.40118,53,80,0
193.41785,193.60118,52,80,0
193.81786,194.00119,52,80,0
194.01785,194.20119,50,80,0
194.21785,194.40118,49,80,0
196.21785,196.40118,58,80,0
196.41785,196.60118,57,80,0
196.61786,196.8012,55,80,0
198.64862,198.86017,64,80,0
198.8794,199.09093,62,80,0
199.11017,199.3217,61,80,0
201.40137,201.5978,64,80,0
201.61566,201.81209,62,80,0
201.82994,202.02155,61,80,0
202.03844,203.04375,70,80,0
203.0616,203.25803,69,80,0
203.27588,203.47232,67,80,0
203.49017,203.69162,66,80,0
203.71115,203.89449,65,80,0
203.91115,204.09448,64,80,0
204.11116,204.29448,63,80,0
204.31116,204.53198,62,80,0
204.55283,204.78198,61,80,0
204.80283,205.03198,60,80,0
205.05283,205.28198,59,80,0
205.30283,205.5343,58,80,0
205.55745,205.81207,57,80,0
205.83522,206.08986,55,80,0
206.113,206.36763,53,80,0
206.39078,206.65837,52,80,0
206.68338,207.43658,62,80,0
207.4526,208.20581,61,80,0
206.68338,208.97504,57,80,0
206.68338,208.97504,53,80,0
208.22183,208.97504,62,80,0
208.99107,209.74428,65,80,0
208.99107,209.74428,57,80,0
208.99107,209.74428,53,80,0
209.7603,210.5135,61,80,0
209.7603,210.5135,58,80,0
209.7603,210.5135,55,80,0
210.52953,211.28273,62,80,0
210.52953,211.28273,57,80,0
210.52953,211.28273,53,80,0
211.29875,212.05196,62,80,0
212.068,212.8212,61,80,0
211.29875,213.59042,58,80,0
211.29875,213.59042,55,80,0
211.29875,213.59042,52,80,0
212.83722,213.59042,62,80,0
213.60645,214.35965,67,80,0
213.60645,215.12889,58,80,0
213.60645,215.12889,55,80,0
214.37569,215.12889,61,80,0
215.14491,215.89812,62,80,0
215.14491,215.89812,58,80,0
215.14491,215.89812,55,80,0
215.91414,216.66734,65,80,0
215.91414,217.43657,58,80,0
215.91414,217.43657,55,80,0
216.68336,217.43657,64,80,0
217.4526,218.20581,62,80,0
217.4526,218.20581,58,80,0
217.4526,218.20581,55,80,0
218.22183,219.74426,61,80,0
218.22183,219.74426,58,80,0
218.22183,219.74426,55,80,0
219.7603,220.5135,62,80,0
219.7603,220.5135,58,80,0
219.7603,220.5135,55,80,0
220.52953,221.28273,65,80,0
220.52953,222.05196,58,80,0
220.52953,222.05196,55,80,0
221.29875,222.05196,64,80,0
222.06798,222.8212,66,80,0
222.06798,222.8212,57,80,0
222.06798,222.8212,62,80,0
222.83722,223.59042,69,80,0
222.83722,224.44572,62,80,0
223.60645,224.44572,67,80,0
224.4636,225.36743,69,80,0
224.4636,225.36743,62,80,0
224.4636,225.36743,60,80,0
225.38666,226.22595,70,80,0
225.38666,226.22595,62,80,0
225.38666,226.22595,58,80,0
226.2438,227.02715,70,80,0
227.04381,227.82715,70,80,0
227.84381,228.62714,70,80,0
228.64381,229.42714,70,80,0
229.4438,230.22714,70,80,0
230.2438,231.02715,70,80,0
230.2438,231.02715,63,80,0
231.04381,231.82715,70,80,0
231.04381,231.82715,62,80,0
231.84381,232.62714,70,80,0
231.84381,232.62714,63,80,0
232.64381,233.42714,70,80,0
232.64381,233.42714,67,80,0
233.4438,234.22714,70,80,0
233.4438,234.22714,62,80,0
234.2438,235.02715,70,80,0
234.2438,235.02715,63,80,0
235.04381,235.82715,70,80,0
235.04381,235.82715,75,80,0
235.84381,236.62714,70,80,0
235.84381,236.62714,74,80,0
236.64381,237.02715,75,80,0
237.04381,237.22714,77,80,0
237.14381,237.32715,75,80,0
236.64381,237.42714,70,80,0
237.2438,237.42714,74,80,0
237.34381,237.42714,75,80,0
237.4438,238.22714,70,80,0
237.4438,238.22714,78,80,0
238.2438,239.02715,70,80,0
238.2438,239.02715,74,80,0
239.04381,239.82715,70,80,0
239.04381,239.82715,75,80,0
239.84381,240.62714,75,80,0
239.84381,240.62714,69,80,0
239.84381,240.62714,81,80,0
240.64381,241.42714,75,84,0
240.64381,241.42714,80,84,0
241.4438,242.22714,75,89,0
241.4438,242.22714,81,89,0
242.2438,243.02715,75,94,0
242.2438,243.02715,84,94,0
242.2438,243.02715,87,94,0
243.04381,243.82715,75,99,0
243.04381,243.82715,87,99,0
243.04381,243.82715,80,99,0
243.84381,244.62714,75,104,0
243.84381,244.62714,87,104,0
243.84381,244.62714,81,104,0
244.64381,246.22714,82,109,0
244.64381,246.22714,86,109,0
244.64381,246.22714,74,109,0
247.84381,248.62714,84,80,0
247.84381,248.62714,82,80,0
248.64381,249.42714,84,80,0
248.64381,249.42714,82,80,0
249.4438,250.62714,86,80,0
250.64381,250.82715,87,94,0
250.84381,251.02715,86,97,0
251.04381,251.62714,85,99,0
249.4438,251.82715,82,80,0
251.64381,251.82715,86,107,0
251.84381,253.02715,89,109,0
253.04381,253.42714,87,96,0
253.4438,253.82715,86,88,0
253.84381,254.22714,84,81,0
254.2438,254.62714,85,80,0
254.64381,255.02715,86,80,0
257.44382,258.22714,84,97,0
257.44382,258.22714,82,97,0
257.44382,258.22714,72,97,0
258.2438,259.02713,84,105,0
258.2438,259.02713,82,105,0
258.2438,259.02713,72,105,0
259.0438,259.22714,74,120,0
259.2438,260.02713,86,118,0
260.0438,260.22714,82,107,0
260.2438,260.42715,77,104,0
260.44382,260.62714,74,101,0
260.6438,260.82715,70,99,0
260.8438,261.02713,65,96,0
261.0438,261.22714,62,93,0
261.2438,261.42715,58,91,0
261.44382,262.62714,65,80,0
261.44382,263.02713,57,80,0
262.6438,263.02713,63,80,0
263.0438,263.45453,60,80,0
263.0438,263.95154,57,80,0
263.47238,263.95154,65,80,0
263.97238,265.95154,58,80,0
265.97238,266.95154,62,80,0
266.97238,268.62167,65,80,0
266.97238,268.62167,56,80,0
268.63904,269.03836,64,80,0
268.63904,269.45502,56,80,0
269.05573,269.45502,62,80,0
269.47238,270.28836,62,80,0
269.47238,271.12167,57,80,0
270.30573,271.12167,61,80,0
271.13904,271.33002,62,80,0
271.34738,271.44287,64,80,0
271.4168,271.50363,62,80,0
271.48627,271.57306,61,80,0
271.55573,271.74667,62,80,0
271.76404,271.95502,64,80,0
271.97238,272.78836,65,80,0
272.80573,272.99667,64,80,0
273.01404,273.20502,65,80,0
273.22238,273.41336,64,80,0
271.97238,273.62167,56,80,0
273.4307,273.62167,65,80,0
273.63904,273.83002,67,80,0
273.84738,274.03836,65,80,0
274.0557,274.24667,64,80,0
273.63904,274.45502,55,80,0
274.26404,274.45502,62,80,0
274.47238,275.45154,62,80,0
274.47238,276.45154,57,80,0
275.47238,276.45154,61,80,0
276.90094,277.31168,61,80,0
277.32953,278.4389,70,110,0
277.32953,278.4389,64,110,0
277.32953,278.4389,61,110,0
277.32953,278.4389,58,110,0
278.45453,278.70453,69,110,0
278.45453,278.70453,64,110,0
278.45453,278.70453,61,110,0
278.45453,278.70453,57,110,0
278.82953,279.11523,67,110,0
278.82953,279.11523,64,110,0
278.82953,279.11523,61,110,0
278.82953,279.11523,55,110,0
279.2581,279.5438,70,110,0
279.2581,279.5438,61,110,0
279.2581,279.5438,58,110,0
279.68668,280.52594,69,110,0
279.68668,280.52594,62,110,0
279.68668,280.52594,57,110,0
281.3438,282.12714,64,80,0
281.3438,282.12714,62,80,0
281.3438,282.12714,58,80,0
282.1438,282.92712,65,80,0
282.1438,282.92712,62,80,0
282.1438,282.92712,57,80,0
283.7438,284.52713,61,80,0
283.7438,284.52713,57,80,0
283.7438,284.52713,55,80,0
283.7438,284.52713,52,80,0
284.5438,286.12714,62,80,0
284.5438,286.12714,53,80,0
284.5438,286.12714,57,80,0
288.5438,289.32715,68,110,0
288.5438,289.32715,56,110,0
289.3438,289.72714,69,110,0
289.3438,289.72714,57,110,0
289.7438,290.52713,69,110,0
289.7438,290.52713,81,110,0
290.5438,290.92712,79,110,0
290.5438,290.92712,67,110,0
290.94382,291.32715,77,110,0
290.94382,291.32715,65,110,0
291.3438,291.72714,76,110,0
291.3438,291.72714,64,110,0
291.7438,293.32715,74,110,0
291.7438,293.32715,62,110,0
293.7438,294.12714,68,120,0
293.7438,294.12714,56,120,0
294.1438,294.52713,69,120,0
294.1438,294.52713,57,120,0
294.5438,295.32715,81,120,0
294.5438,295.32715,69,120,0
295.3438,295.52713,80,120,0
295.5438,295.72714,81,120,0
295.7438,295.92712,80,120,0
295.94382,296.12714,81,120,0
296.1438,296.32715,80,120,0
296.3438,296.52713,81,120,0
296.5438,297.72714,82,120,0
296.5438,297.72714,70,120,0
297.7438,298.12714,81,80,0
298.1438,298.52713,79,80,0
296.5438,298.92712,76,120,0
296.5438,298.92712,73,120,0
298.5438,298.92712,82,80,0
298.94382,300.12714,87,110,0
298.94382,300.12714,75,110,0
300.1438,300.52713,86,80,0
300.1438,300.52713,74,80,0
300.5438,300.92712,84,80,0
300.5438,300.92712,72,80,0
298.94382,301.32715,78,110,0
298.94382,301.32715,81,110,0
300.94382,301.32715,87,80,0
300.94382,301.32715,75,80,0
301.3438,302.52713,77,100,0
301.3438,302.52713,89,100,0
302.5438,302.92712,88,80,0
302.5438,302.92712,76,80,0
302.94382,303.32715,86,80,0
302.94382,303.32715,74,80,0
301.3438,303.72714,80,100,0
301.3438,303.72714,83,100,0
303.3438,303.72714,89,80,0
303.3438,303.72714,77,80,0
303.7438,304.52713,85,80,0
303.7438,304.52713,82,80,0
303.7438,304.52713,79,80,0
303.7438,304.52713,76,80,0
305.3438,306.12714,86,80,0
305.3438,306.12714,81,80,0
305.3438,306.12714,77,80,0
305.3438,306.12714,74,80,0
306.1438,306.9831,82,80,0
306.1438,306.9831,76,80,0
306.1438,306.9831,74,80,0
306.1438,306.9831,70,80,0
307.8581,308.83725,81,80,0
307.8581,308.83725,76,80,0
307.8581,308.83725,73,80,0
307.8581,308.83725,69,80,0
309.00516,309.28088,53,70,0
309.1522,309.42795,57,70,0
309.29926,309.575,62,70,0
309.44632,309.72205,57,70,0
309.59338,309.85712,53,70,0
309.87378,310.12378,53,70,0
310.0071,310.2571,57,70,0
310.14044,310.39044,62,70,0
310.27377,310.52377,57,70,0
310.4071,310.6571,53,70,0
310.67377,310.92377,53,70,0
310.8071,311.0571,57,70,0
310.94043,311.19043,62,70,0
311.07376,311.32376,57,70,0
311.20712,311.45712,53,70,0
311.4738,311.7238,53,70,0
311.60712,311.85712,57,70,0
311.74045,311.99045,62,70,0
311.87378,312.12378,57,70,0
312.0071,312.2571,53,70,0
312.27377,312.52377,53,70,0
312.4071,312.6571,57,70,0
312.54044,312.79044,62,70,0
312.67377,312.92377,57,70,0
312.8071,313.0571,53,70,0
313.07376,313.32376,53,70,0
313.20712,313.45712,57,70,0
313.34045,313.59045,62,70,0
313.4738,313.7238,57,70,0
313.60712,313.73212,53,70,0
313.87378,314.12378,53,70,0
314.0071,314.2571,58,71,0
314.14044,314.39044,62,72,0
314.27377,314.52377,58,73,0
314.4071,314.6571,53,74,0
314.67377,314.92377,53,75,0
314.8071,315.0571,58,76,0
314.94043,315.19043,62,77,0
315.07376,315.32376,58,78,0
315.20712,315.45712,53,79,0
315.4738,315.7238,53,81,0
315.60712,315.85712,58,81,0
315.74045,315.99045,62,82,0
315.87378,316.12378,58,83,0
316.0071,316.2571,53,84,0
316.27377,316.52377,53,86,0
316.4071,316.6571,58,87,0
316.54044,316.79044,62,87,0
316.67377,316.92377,58,88,0
316.8071,317.0571,53,89,0
317.07376,317.32376,53,91,0
317.20712,317.45712,58,92,0
317.34045,317.59045,62,93,0
317.4738,317.7238,58,93,0
317.60712,317.85712,53,94,0
317.87378,318.12378,53,96,0
318.0071,318.2571,58,97,0
318.14044,318.39044,62,98,0
318.27377,318.52377,58,99,0
318.4071,318.5321,53,99,0
318.67377,318.92377,54,100,0
318.8071,319.0571,58,100,0
318.94043,319.19043,63,100,0
319.07376,319.32376,58,100,0
319.20712,319.45712,54,100,0
319.4738,319.7238,54,100,0
319.60712,319.85712,58,100,0
319.74045,319.99045,63,100,0
319.87378,320.12378,58,100,0
320.0071,320.2571,54,100,0
320.27377,320.52377,54,100,0
320.4071,320.6571,58,100,0
320.54044,320.79044,63,100,0
320.67377,320.92377,58,100,0
320.8071,321.0571,54,100,0
321.07376,321.32376,54,100,0
321.20712,321.45712,58,100,0
321.34045,321.59045,63,100,0
321.4738,321.7238,58,100,0
321.60712,321.85712,54,100,0
321.87378,322.12378,54,100,0
322.0071,322.2571,58,100,0
322.14044,322.39044,63,100,0
322.27377,322.52377,58,100,0
322.4071,322.6571,54,100,0
322.67377,322.92377,54,100,0
322.8071,323.0571,58,100,0
322.94043,323.19043,63,100,0
323.07376,323.32376,58,100,0
323.20712,323.33212,54,100,0
323.4738,323.7238,57,100,0
323.60712,323.85712,60,100,0
323.74045,323.99045,66,100,0
323.87378,324.12378,63,100,0
324.0071,324.2571,60,100,0
324.27377,324.52377,57,100,0
324.4071,324.6571,60,100,0
324.54044,324.79044,66,100,0
324.67377,324.92377,63,100,0
324.8071,325.0571,60,100,0
325.07376,325.32376,57,100,0
325.20712,325.45712,60,100,0
325.34045,325.59045,66,100,0
325.4738,325.7238,63,100,0
325.60712,325.85712,60,100,0
325.87378,326.12378,58,100,0
326.0071,326.2571,63,100,0
326.14044,326.39044,67,100,0
326.27377,326.52377,63,100,0
326.4071,326.6571,58,100,0
326.67377,326.92377,58,100,0
326.8071,327.0571,63,100,0
326.94043,327.19043,67,100,0
327.07376,327.32376,63,100,0
327.20712,327.45712,58,100,0
327.4738,327.7238,58,100,0
327.60712,327.85712,63,100,0
327.74045,327.99045,67,100,0
327.87378,328.12378,63,100,0
328.0071,328.2571,58,100,0
328.27377,328.52377,59,100,0
328.4071,328.6571,62,100,0
328.54044,328.79044,68,100,0
328.67377,328.92377,65,100,0
328.8071,329.0571,62,100,0
329.07376,329.32376,59,100,0
329.20712,329.45712,62,100,0
329.34045,329.59045,68,100,0
329.4738,329.7238,65,100,0
329.60712,329.85712,62,100,0
329.87378,330.12378,59,100,0
330.0071,330.2571,62,100,0
330.14044,330.39044,68,100,0
330.27377,330.52377,65,100,0
330.4071,330.6571,62,100,0
330.67377,330.92377,60,100,0
330.8071,331.0571,65,100,0
330.94043,331.19043,69,100,0
331.07376,331.32376,65,100,0
331.20712,331.45712,60,100,0
331.4738,331.7238,60,100,0
331.60712,331.85712,65,100,0
331.74045,331.99045,69,100,0
331.87378,332.12378,65,100,0
332.0071,332.2571,60,100,0
332.24045,332.42377,61,100,0
332.34045,332.52377,64,100,0
332.44043,332.62378,67,100,0
332.54044,332.7238,70,100,0
332.64044,332.82376,67,100,0
332.74045,332.92377,64,100,0
332.84045,332.92377,61,100,0
333.07376,333.32376,62,100,0
333.20712,333.45712,65,100,0
333.34045,333.59045,71,100,0
333.4738,333.7238,68,100,0
333.60712,333.85712,65,100,0
333.87378,334.12378,62,100,0
334.0071,334.2571,65,100,0
334.14044,334.39044,71,100,0
334.27377,334.52377,68,100,0
334.4071,334.6571,65,100,0
334.64044,334.82376,63,100,0
334.74045,334.92377,66,100,0
334.84045,335.02377,69,100,0
334.94043,335.12378,72,100,0
335.04044,335.2238,69,100,0
335.14044,335.32376,66,100,0
335.24045,335.32376,63,100,0
335.4738,335.7238,64,100,0
335.60712,335.85712,67,100,0
335.74045,335.99045,73,100,0
335.87378,336.12378,70,100,0
336.0071,336.2571,67,100,0
336.27377,336.52377,64,100,0
336.4071,336.6571,67,100,0
336.54044,336.79044,73,100,0
336.67377,336.92377,70,100,0
336.8071,337.0571,67,100,0
337.07376,337.32376,65,100,0
337.20712,337.45712,69,100,0
337.34045,337.59045,74,100,0
337.4738,337.7238,69,100,0
337.60712,337.7238,65,100,0
337.8342,338.00607,67,125,0
337.92795,338.09982,70,125,0
338.0217,338.19357,74,125,0
338.11545,338.28732,76,125,0
338.2092,338.38107,74,125,0
338.30295,338.47482,70,125,0
338.3967,338.56857,67,125,0
338.5842,338.75607,67,125,0
338.67795,338.84982,70,125,0
338.7717,338.94357,74,125,0
338.86545,339.03732,76,125,0
338.9592,339.13107,74,125,0
339.05295,339.22482,70,125,0
339.1467,339.31857,67,125,0
339.3342,339.50607,67,125,0
339.42795,339.59982,70,125,0
339.5217,339.69357,74,125,0
339.61545,339.78732,76,125,0
339.7092,339.88107,74,125,0
339.80295,339.97482,70,125,0
339.8967,340.06857,67,125,0
340.0842,340.25607,68,125,0
340.17795,340.34982,71,125,0
340.2717,340.44357,74,125,0
340.36545,340.53732,76,125,0
340.4592,340.63107,74,125,0
340.55295,340.72482,71,125,0
340.6467,340.81857,68,125,0
340.8342,341.00607,68,125,0
340.92795,341.09982,71,125,0
341.0217,341.19357,74,125,0
341.11545,341.28732,76,125,0
341.2092,341.38107,74,125,0
341.30295,341.47482,71,125,0
341.3967,341.56857,68,125,0
341.5842,341.75607,68,120,0
341.67795,341.84982,71,120,0
341.7717,341.94357,74,120,0
341.86545,342.03732,76,120,0
341.9592,342.13107,74,120,0
342.05295,342.22482,71,120,0
342.1467,342.23264,68,120,0
342.24045,342.41232,77,120,0
342.24045,342.41232,74,120,0
342.24045,342.41232,69,120,0
342.42795,342.59982,86,80,0
342.61545,342.78732,88,80,0
342.80295,342.97482,89,80,0
343.17795,343.34982,89,80,0
343.36545,343.53732,88,80,0
343.55295,343.72482,86,80,0
343.92795,344.09982,85,80,0
344.11545,344.28732,86,80,0
344.30295,344.47482,81,80,0
344.67795,344.84982,80,80,0
344.86545,345.03732,82,80,0
345.05295,345.22482,81,80,0
345.42795,345.59982,81,80,0
345.61545,345.78732,79,80,0
345.80295,345.97482,77,80,0
346.17795,346.34982,77,80,0
346.36545,346.53732,76,80,0
346.55295,346.72482,74,80,0
346.92795,347.09982,79,80,0
347.11545,347.28732,81,80,0
347.30295,347.47482,82,80,0
347.67795,347.84982,82,80,0
347.86545,348.03732,81,80,0
348.05295,348.22482,79,80,0
348.42795,348.59982,79,80,0
348.61545,348.78732,77,80,0
348.80295,348.97482,76,80,0
349.17795,349.34982,76,80,0
349.36545,349.53732,74,80,0
349.55295,349.72482,73,80,0
349.92795,350.09982,70,80,0
350.11545,350.28732,69,80,0
350.30295,350.47482,67,80,0
350.67795,350.84982,67,80,0
350.86545,351.03732,65,80,0
351.05295,351.22482,64,80,0
351.42795,351.59982,74,80,0
351.61545,351.78732,76,80,0
351.80295,351.97482,77,80,0
352.17795,352.34982,77,80,0
352.36545,352.53732,76,80,0
352.55295,352.72482,74,80,0
352.92795,353.09982,73,80,0
353.11545,353.28732,74,80,0
353.30295,353.47482,69,80,0
353.67795,353.84982,68,80,0
353.86545,354.03732,70,80,0
354.05295,354.22482,69,80,0
354.42795,354.59982,69,80,0
354.61545,354.78732,67,80,0
354.80295,354.97482,65,80,0
355.17795,355.34982,65,80,0
355.36545,355.53732,64,80,0
355.55295,355.72482,62,80,0
355.92795,356.09982,67,80,0
356.11545,356.28732,69,80,0
356.30295,356.47482,70,80,0
356.67795,356.84982,70,80,0
356.86545,357.03732,69,80,0
357.05295,357.22482,67,80,0
357.42795,357.59982,67,80,0
357.61545,357.78732,65,80,0
357.80295,357.97482,64,80,0
358.1878,358.36874,64,80,0
358.3852,358.5661,62,80,0
358.58255,358.76346,61,80,0
358.98825,359.17923,58,80,0
359.1966,359.38754,57,80,0
359.4049,359.5959,55,80,0
359.83383,360.03604,55,80,0
360.0544,360.2836,53,80,0
360.3044,360.64816,52,80,0
365.1794,366.06958,77,70,0
366.0885,366.97867,73,70,0
366.99762,367.88776,74,70,0
367.9067,370.61502,82,70,0
367.9067,370.61502,74,70,0
367.9067,370.61502,70,70,0
370.63397,371.5241,82,70,0
371.54306,372.4332,73,70,0
372.45215,373.3423,74,70,0
373.36124,376.06958,81,70,0
373.36124,376.06958,74,70,0
373.36124,376.06958,69,70,0
376.0885,376.97867,89,70,0
376.9976,377.88776,85,70,0
377.90668,378.79684,86,70,0
378.8158,379.70593,86,70,0
379.72488,380.61502,81,70,0
380.63397,381.5241,82,70,0
381.54306,382.4332,82,70,0
382.45215,383.3423,78,75,0
383.36124,384.25137,79,81,0
384.27032,385.16046,79,87,0
385.1794,386.06958,74,93,0
386.0885,386.97867,75,99,0
386.9976,388.79684,75,110,0
386.9976,388.79684,63,110,0
388.81577,389.70593,74,110,0
388.81577,389.70593,62,110,0
389.72485,391.5241,73,110,0
389.72485,391.5241,61,110,0
392.45215,394.25137,80,70,0
394.27032,395.16046,81,70,0
395.1794,397.88776,65,70,0
395.1794,397.88776,62,70,0
395.1794,397.88776,57,70,0
397.90668,399.70593,80,91,0
399.72485,400.61502,81,70,0
400.63394,403.3423,64,70,0
400.63394,403.3423,61,70,0
400.63394,403.3423,55,70,0
403.36124,405.16046,80,89,0
405.1794,406.06955,81,70,0
407.90668,408.7968,62,70,0
407.90668,408.7968,55,70,0
408.81577,410.61502,62,80,0
408.81577,410.61502,53,80,0
410.63394,411.5241,62,70,0
410.63394,411.5241,61,70,0
410.63394,411.5241,58,70,0
410.63394,411.5241,52,70,0
411.54303,413.3423,62,70,0
411.54303,413.3423,57,70,0
411.54303,413.3423,53,70,0
413.3612,414.25137,62,70,0
413.3612,414.25137,55,70,0
414.27032,416.06955,62,80,0
414.27032,416.06955,53,80,0
416.0885,416.97864,62,70,0
416.0885,416.97864,61,70,0
416.0885,416.97864,58,70,0
416.0885,416.97864,52,70,0
416.9976,418.60233,62,70,0
416.9976,418.60233,57,70,0
416.9976,418.60233,53,70,0
418.6192,419.41312,73,70,0
419.43002,420.2693,74,70,0
421.1443,421.98358,85,70,0
422.00143,422.9194,86,70,0
431.37643,432.84518,62,1,0
0.0,4.484375,38,80,0
0.0,4.484375,41,80,0
0.0,4.484375,45,80,0
0.0,4.484375,50,80,0
4.5,8.984375,38,80,0
4.5,8.984375,43,80,0
4.5,8.984375,46,80,0
4.5,8.984375,50,80,0
9.0,10.484375,49,80,0
9.0,10.484375,37,80,0
10.5,11.234375,50,80,0
10.5,11.234375,38,80,0
11.25,12.734375,52,80,0
11.25,12.734375,40,80,0
12.75,13.484375,50,80,0
12.75,13.484375,38,80,0
13.5,14.984375,49,80,0
13.5,14.984375,37,80,0
15.0,15.734375,50,86,0
15.0,15.734375,48,86,0
15.75,17.333334,50,89,0
15.75,17.333334,46,89,0
17.35,18.133333,54,96,0
17.35,18.133333,50,96,0
17.35,18.133333,41,96,0
18.15,19.684376,55,99,0
18.15,19.684376,50,99,0
18.15,19.684376,43,99,0
22.7,23.434376,64,80,0
22.7,24.184376,61,80,0
22.7,24.184376,58,80,0
22.7,24.184376,55,80,0
23.45,24.184376,63,80,0
24.2,24.934376,64,80,0
24.2,24.934376,61,80,0
24.2,24.934376,58,80,0
24.2,24.934376,55,80,0
24.95,25.684376,64,80,0
24.95,26.434376,61,80,0
24.95,26.434376,58,80,0
24.95,26.434376,55,80,0
25.7,26.434376,63,80,0
26.45,27.184376,64,80,0
26.45,27.184376,61,80,0
26.45,27.184376,58,80,0
26.45,27.184376,55,80,0
27.2,27.983334,64,80,0
27.2,28.839285,59,80,0
27.2,28.839285,62,80,0
27.2,28.839285,56,80,0
28.0,28.839285,65,80,0
28.857143,29.696428,65,80,0
28.857143,29.696428,62,80,0
28.857143,29.696428,59,80,0
28.857143,29.696428,56,80,0
29.714285,31.410713,56,80,0
29.821428,31.410713,59,80,0
29.92857,31.410713,62,80,0
30.035713,31.410713,65,80,0
31.42857,32.05357,64,80,0
32.071426,32.267857,62,80,0
32.285713,33.869045,62,80,0
32.285713,33.869045,65,80,0
32.285713,33.869045,57,80,0
34.68571,36.269047,55,80,0
34.68571,36.269047,45,80,0
34.68571,36.269047,52,80,0
37.142857,37.62202,50,80,0
37.642857,38.026188,57,80,0
38.042854,38.42619,53,80,0
38.442856,38.826187,57,80,0
38.842854,39.22619,50,80,0
39.242855,39.62619,57,80,0
39.642857,40.026188,49,80,0
40.042854,40.42619,57,80,0
40.442856,40.826187,52,80,0
40.842854,41.22619,57,80,0
41.242855,41.62619,49,80,0
41.642857,42.026188,57,80,0
42.042854,42.42619,50,80,0
42.442856,42.826187,57,80,0
42.842854,43.22619,53,80,0
43.242855,43.62619,57,80,0
43.642857,44.026188,50,80,0
44.042854,44.42619,57,80,0
44.442856,44.826187,45,80,0
44.842854,45.22619,57,80,0
45.242855,45.62619,56,80,0
45.642857,46.026188,57,80,0
46.042854,46.42619,55,80,0
46.442856,46.826187,57,80,0
46.842854,47.22619,53,80,0
47.242855,47.62619,57,80,0
47.576187,47.959522,62,80,0
48.042854,48.42619,57,80,0
48.442856,48.826187,53,80,0
48.842854,49.22619,50,80,0
49.242855,49.62619,49,80,0
49.642857,50.026188,57,80,0
50.042854,50.42619,52,80,0
50.442856,50.826187,57,80,0
50.842854,51.22619,55,80,0
51.242855,51.62619,57,80,0
51.642857,52.026188,50,80,0
52.042854,52.42619,57,80,0
52.442856,52.826187,56,80,0
52.842854,53.22619,57,80,0
53.242855,53.62619,48,80,0
53.642857,54.026188,57,80,0
54.042854,54.42619,47,80,0
54.442856,54.826187,55,80,0
54.842854,55.22619,50,80,0
55.242855,55.62619,55,80,0
55.642857,56.026188,53,80,0
56.042854,56.42619,55,80,0
56.442856,56.826187,48,80,0
56.842854,57.22619,55,80,0
57.242855,57.62619,60,80,0
57.642857,58.026188,59,80,0
58.042854,58.42619,57,80,0
58.442856,58.826187,55,80,0
59.242855,59.62619,62,80,0
59.642857,60.026188,57,80,0
60.042854,60.42619,62,80,0
60.442856,60.826187,60,80,0
58.842854,61.22619,54,80,0
60.842854,61.22619,62,80,0
61.642857,62.026188,64,82,0
62.042854,62.42619,60,84,0
61.242855,62.826187,55,80,0
62.442856,62.826187,64,87,0
62.842854,63.62619,55,89,0
63.242855,63.62619,64,92,0
64.042854,64.426186,65,97,0
64.442856,64.82619,62,99,0
63.642857,65.22619,55,94,0
64.84286,65.22619,65,100,0
65.24285,66.02619,55,91,0
65.64285,66.02619,65,81,0
66.042854,66.426186,48,80,0
66.442856,66.82619,60,82,0
66.84286,67.22619,45,85,0
67.24285,67.62619,57,88,0
67.64285,68.02619,43,90,0
68.042854,68.426186,55,93,0
68.84286,69.22619,54,99,0
69.24285,69.62619,45,101,0
68.442856,70.02619,42,96,0
69.64285,70.02619,54,104,0
70.042854,70.82619,42,107,0
70.442856,70.82619,54,109,0
71.24285,71.62619,55,107,0
71.64285,72.02619,48,103,0
72.042854,72.426186,55,100,0
72.442856,72.82619,52,96,0
70.84286,73.22619,43,110,0
72.84286,73.22619,55,92,0
73.64285,74.02619,55,80,0
74.042854,74.426186,50,80,0
73.24285,74.82619,43,80,0
74.442856,74.82619,55,80,0
74.84286,75.22619,53,80,0
74.84286,75.62619,43,80,0
75.24285,75.62619,55,80,0
75.64285,77.22619,52,80,0
75.64285,77.22619,48,80,0
78.042854,79.62619,57,80,0
79.64285,80.02619,59,80,0
78.042854,80.426186,53,80,0
80.042854,80.426186,60,80,0
80.442856,81.22619,60,80,0
80.442856,82.02619,52,80,0
81.24285,82.02619,59,80,0
82.84286,84.02619,57,80,0
84.042854,84.22619,56,80,0
84.24285,84.426186,57,80,0
84.442856,84.62619,56,80,0
84.64285,84.82619,57,80,0
84.84286,85.02619,59,80,0
82.84286,85.22619,53,80,0
85.042854,85.22619,60,80,0
85.24285,86.02619,60,80,0
85.24285,86.82619,52,80,0
86.042854,86.82619,59,80,0
87.64285,88.75223,58,110,0
87.64285,88.75223,56,110,0
87.64285,88.75223,50,110,0
88.76785,89.12723,58,110,0
88.76785,89.12723,56,110,0
88.76785,89.12723,52,110,0
89.14285,89.50223,58,110,0
89.14285,89.50223,56,110,0
89.14285,89.50223,53,110,0
89.51785,89.90119,58,110,0
89.51785,89.90119,50,110,0
89.51785,89.90119,47,110,0
89.917854,90.70119,60,110,0
89.917854,90.70119,52,110,0
89.917854,90.70119,48,110,0
91.51785,92.301186,59,80,0
91.51785,92.301186,57,80,0
91.51785,92.301186,50,80,0
92.317856,93.10119,52,80,0
92.317856,93.10119,57,80,0
92.317856,93.10119,60,80,0
93.917854,94.70119,52,80,0
93.917854,94.70119,40,80,0
94.71786,96.301186,45,80,0
96.317856,97.10119,45,110,0
97.11785,98.70119,48,110,0
98.71786,99.10119,47,110,0
97.11785,99.50119,41,110,0
99.11785,99.50119,45,110,0
99.51785,100.301186,45,110,0
99.51785,101.10119,40,110,0
100.317856,101.10119,44,110,0
101.71786,101.90119,45,120,0
101.917854,102.70119,48,120,0
102.71786,102.90119,47,120,0
102.917854,103.10119,48,120,0
103.11785,103.301186,47,120,0
103.317856,103.50119,48,120,0
103.51785,103.70119,50,120,0
103.71786,103.90119,48,120,0
103.917854,104.10119,47,120,0
101.917854,104.301186,41,120,0
104.11785,104.301186,45,120,0
104.317856,105.10119,45,120,0
104.317856,105.90119,40,120,0
105.11785,105.90119,44,120,0
106.71786,107.90119,50,120,0
107.917854,108.301186,52,80,0
108.317856,108.70119,53,80,0
106.71786,109.10119,59,120,0
106.71786,109.10119,56,120,0
108.71786,109.10119,47,80,0
109.11785,110.301186,55,120,0
110.317856,110.70119,57,80,0
110.71786,111.10119,58,80,0
109.11785,111.50119,61,120,0
109.11785,111.50119,64,120,0
111.11785,111.50119,52,80,0
111.51785,112.70119,63,120,0
112.71786,113.10119,64,80,0
111.51785,113.50119,66,120,0
113.11785,113.50119,66,80,0
111.51785,113.90119,69,120,0
113.51785,113.90119,63,80,0
113.917854,114.70119,68,80,0
113.917854,114.70119,65,80,0
113.917854,114.70119,62,80,0
115.51785,116.301186,64,80,0
115.51785,116.301186,60,80,0
116.317856,117.15714,62,80,0
116.317856,117.15714,50,80,0
118.03214,118.87142,59,80,0
118.03214,118.87142,52,80,0
118.88928,119.299995,45,80,0
119.317856,119.70119,48,80,0
119.71786,120.10119,52,80,0
120.11785,120.50119,48,80,0
120.51785,120.901184,47,80,0
120.917854,121.301186,45,80,0
121.317856,121.70119,44,80,0
121.71786,122.10119,47,80,0
122.11785,122.50119,52,80,0
122.51785,122.901184,50,80,0
122.917854,123.301186,48,80,0
123.317856,123.70119,47,80,0
123.71786,124.10119,45,80,0
124.11785,124.50119,56,80,0
124.917854,125.301186,55,80,0
125.317856,125.70119,53,80,0
125.71786,126.10119,52,80,0
124.51785,126.50119,57,80,0
126.51785,126.901184,57,80,0
126.917854,127.301186,62,80,0
127.317856,127.70119,61,80,0
127.71786,128.10118,60,80,0
126.11785,128.50119,50,80,0
128.11786,128.50119,59,80,0
128.91785,129.3012,57,80,0
129.31786,129.70119,64,80,0
129.71785,130.10118,63,80,0
130.11786,130.50119,62,80,0
130.51785,130.90118,60,80,0
130.91785,131.3012,59,80,0
131.31786,131.70119,57,80,0
131.71785,132.10118,56,80,0
128.51785,132.50119,52,80,0
132.11786,132.50119,53,80,0
132.51785,132.90118,52,80,0
132.51785,133.3012,40,80,0
132.91785,133.3012,50,80,0
133.31786,134.10118,48,80,0
133.31786,134.10118,45,80,0
134.91785,135.70119,33,80,0
135.71785,136.50119,33,80,0
138.11786,138.90118,41,80,0
138.91785,139.70119,41,80,0
139.71785,140.50119,41,80,0
140.51785,141.3012,41,80,0
140.51785,142.10118,48,80,0
141.31786,142.10118,41,80,0
142.11786,142.50119,50,80,0
142.11786,142.90118,41,80,0
142.51785,142.90118,52,80,0
142.91785,143.70119,41,80,0
142.91785,144.50119,53,80,0
143.71785,144.50119,41,80,0
144.51785,145.3012,41,80,0
144.51785,145.3012,53,80,0
145.31786,146.10118,41,80,0
145.31786,146.50119,53,80,0
146.51785,146.70119,55,80,0
146.11786,146.90118,41,80,0
146.71785,146.90118,53,80,0
146.91785,147.3012,52,80,0
146.91785,147.70119,41,80,0
147.31786,147.70119,53,80,0
147.71785,148.50119,48,80,0
147.71785,148.50119,40,80,0
148.51785,149.3012,48,80,0
148.51785,149.3012,40,80,0
149.31786,150.10118,48,80,0
149.31786,150.10118,40,80,0
150.11786,150.90118,48,80,0
150.11786,150.90118,40,80,0
150.91785,151.70119,48,80,0
150.91785,151.70119,40,80,0
151.71785,152.50119,48,80,0
151.71785,152.50119,40,80,0
152.51785,153.3012,53,80,0
152.51785,153.3012,48,80,0
152.51785,153.3012,43,80,0
153.31786,154.10118,43,80,0
153.31786,154.10118,52,80,0
153.31786,154.10118,48,80,0
154.11786,154.70119,50,80,0
154.11786,154.90118,43,80,0
154.71785,154.90118,48,80,0
154.91785,155.70119,43,80,0
154.91785,156.50119,48,80,0
155.71785,156.50119,43,80,0
156.51785,156.70119,52,80,0
156.71785,156.90118,50,80,0
156.51785,157.3012,43,80,0
156.91785,157.3012,48,80,0
157.31786,158.10118,41,80,0
157.31786,158.10118,48,80,0
158.11786,158.90118,41,85,0
158.91785,159.70119,41,91,0
158.11786,160.50119,53,85,0
159.71785,160.50119,41,97,0
160.51785,161.3012,41,103,0
160.51785,161.3012,52,103,0
161.31786,162.10118,41,109,0
161.31786,162.10118,51,109,0
162.11786,162.90118,42,120,0
162.11786,162.90118,51,120,0
162.91785,163.70119,42,120,0
162.91785,163.70119,50,120,0
163.71785,164.3012,49,120,0
163.71785,164.50119,42,120,0
164.31786,164.50119,50,120,0
164.51785,165.3012,42,120,0
164.51785,165.3012,51,120,0
165.31786,166.10118,42,120,0
165.31786,166.10118,50,120,0
166.11786,166.70119,49,120,0
166.11786,166.90118,42,120,0
166.71785,166.90118,50,120,0
166.91785,167.3012,43,120,0
166.98453,167.36786,46,120,0
167.15118,167.53452,50,80,0
167.71785,168.50119,58,80,0
167.71785,168.50119,62,80,0
168.51785,169.3012,58,80,0
168.51785,169.3012,62,80,0
169.31786,170.10118,58,80,0
169.31786,170.10118,62,80,0
170.11786,170.90118,58,80,0
170.11786,170.90118,62,80,0
167.31786,171.89702,55,80,0
170.91785,171.89702,58,80,0
170.91785,171.89702,62,80,0
171.91785,172.8012,44,120,0
171.91785,172.8012,53,120,0
172.81786,173.60118,44,120,0
172.81786,173.60118,52,120,0
173.61786,174.20119,51,120,0
173.61786,174.40118,44,120,0
174.21785,174.40118,52,120,0
174.41785,175.20119,44,120,0
174.41785,175.20119,53,120,0
175.21785,176.00119,44,120,0
175.21785,176.00119,52,120,0
176.01785,176.60118,51,120,0
176.01785,176.8012,44,120,0
176.61786,176.8012,52,120,0
176.81786,177.20119,45,120,0
176.88452,177.26785,49,120,0
176.95119,177.33452,52,120,0
177.61786,178.40118,61,80,0
177.61786,178.40118,64,80,0
178.41785,179.20119,61,80,0
178.41785,179.20119,64,80,0
179.21785,180.00119,61,80,0
179.21785,180.00119,64,80,0
180.01785,180.8012,61,80,0
180.01785,180.8012,64,80,0
177.01785,181.60118,57,80,0
180.81786,181.60118,61,80,0
180.81786,181.60118,64,80,0
181.61786,182.00119,45,80,0
181.68452,182.06786,50,80,0
181.75119,182.13452,53,80,0
182.41785,183.20119,62,80,0
182.41785,183.20119,65,80,0
183.21785,184.00119,62,80,0
183.21785,184.00119,65,80,0
184.01785,184.8012,62,80,0
184.01785,184.8012,65,80,0
184.81786,185.60118,62,80,0
184.81786,185.60118,65,80,0
181.81786,186.40118,57,80,0
185.61786,186.40118,62,80,0
185.61786,186.40118,65,80,0
186.41785,186.8012,45,80,0
186.48453,186.86786,52,80,0
186.5512,186.93452,55,80,0
187.21785,188.00119,64,80,0
187.21785,188.00119,67,80,0
188.01785,188.8012,64,80,0
188.01785,188.8012,67,80,0
188.81786,189.60118,64,80,0
188.81786,189.60118,67,80,0
189.61786,190.40118,64,80,0
189.61786,190.40118,67,80,0
186.61786,191.20119,57,80,0
190.41785,191.20119,64,80,0
190.41785,191.20119,67,80,0
206.68338,208.97504,50,80,0
206.68338,208.97504,45,80,0
206.68338,208.97504,41,80,0
206.68338,208.97504,38,80,0
208.99107,209.74428,45,80,0
208.99107,209.74428,41,80,0
209.7603,210.5135,46,80,0
209.7603,210.5135,43,80,0
208.99107,211.28273,50,80,0
208.99107,211.28273,38,80,0
210.52953,211.28273,45,80,0
210.52953,211.28273,41,80,0
211.29875,213.59042,50,80,0
211.29875,213.59042,46,80,0
211.29875,213.59042,43,80,0
211.29875,213.59042,40,80,0
211.29875,213.59042,38,80,0
213.60645,214.35965,50,80,0
214.37569,215.12889,52,80,0
213.60645,215.89812,46,80,0
213.60645,215.89812,43,80,0
213.60645,215.89812,38,80,0
215.14491,215.89812,50,80,0
215.91414,217.43657,49,80,0
215.91414,217.43657,37,80,0
217.4526,218.20581,50,80,0
217.4526,218.20581,38,80,0
218.22183,218.97504,53,80,0
218.22183,218.97504,41,80,0
218.99106,219.74426,52,80,0
218.99106,219.74426,40,80,0
219.7603,220.5135,38,80,0
219.7603,220.5135,50,80,0
220.52953,222.05196,49,80,0
220.52953,222.05196,37,80,0
222.06798,222.8212,48,80,0
222.06798,222.8212,50,80,0
222.83722,224.44572,50,80,0
222.83722,224.44572,46,80,0
224.4636,225.36743,54,80,0
224.4636,225.36743,50,80,0
224.4636,225.36743,42,80,0
225.38666,227.02715,55,80,0
225.38666,227.02715,50,80,0
225.38666,227.02715,43,80,0
230.2438,231.02715,58,80,0
230.2438,231.02715,55,80,0
231.04381,231.82715,58,80,0
231.04381,231.82715,55,80,0
231.84381,232.62714,58,80,0
231.84381,232.62714,55,80,0
232.64381,233.42714,58,80,0
232.64381,233.42714,55,80,0
233.4438,234.22714,58,80,0
233.4438,234.22714,55,80,0
234.2438,235.02715,58,80,0
234.2438,235.02715,55,80,0
235.04381,235.82715,63,80,0
235.04381,235.82715,58,80,0
235.04381,235.82715,54,80,0
235.84381,236.62714,63,80,0
235.84381,236.62714,58,80,0
235.84381,236.62714,54,80,0
236.64381,237.42714,63,80,0
236.64381,237.42714,58,80,0
236.64381,237.42714,54,80,0
237.4438,238.22714,63,80,0
237.4438,238.22714,58,80,0
237.4438,238.22714,54,80,0
238.2438,239.02715,63,80,0
238.2438,239.02715,58,80,0
238.2438,239.02715,54,80,0
239.04381,239.82715,63,80,0
239.04381,239.82715,58,80,0
239.04381,239.82715,54,80,0
239.84381,240.62714,63,80,0
239.84381,240.62714,60,80,0
239.84381,240.62714,57,80,0
239.84381,240.62714,53,80,0
240.64381,241.42714,63,84,0
240.64381,241.42714,60,84,0
240.64381,241.42714,57,84,0
240.64381,241.42714,53,84,0
241.4438,242.22714,63,89,0
241.4438,242.22714,60,89,0
241.4438,242.22714,57,89,0
241.4438,242.22714,53,89,0
242.2438,243.02715,63,94,0
242.2438,243.02715,60,94,0
242.2438,243.02715,57,94,0
242.2438,243.02715,54,94,0
243.04381,243.82715,63,99,0
243.04381,243.82715,60,99,0
243.04381,243.82715,57,99,0
243.04381,243.82715,54,99,0
243.84381,244.62714,63,104,0
243.84381,244.62714,60,104,0
243.84381,244.62714,57,104,0
243.84381,244.62714,54,104,0
244.64381,245.02715,55,109,0
245.04381,245.42714,58,80,0
245.4438,245.82715,62,80,0
245.84381,246.22714,58,80,0
246.2438,246.62714,55,80,0
246.64381,247.02715,58,80,0
247.04381,247.42714,52,80,0
247.4438,247.82715,55,80,0
247.4438,247.82715,58,80,0
247.84381,248.22714,60,80,0
248.2438,248.62714,58,80,0
248.2438,248.62714,55,80,0
248.64381,249.02715,52,80,0
249.04381,249.42714,55,80,0
249.04381,249.42714,58,80,0
249.4438,249.82715,53,80,0
249.84381,250.22714,58,84,0
250.2438,250.62714,62,89,0
250.64381,251.02715,58,94,0
251.04381,251.42714,53,99,0
251.4438,251.82715,58,104,0
251.84381,252.22714,53,109,0
252.2438,252.62714,57,110,0
252.64381,253.02715,63,103,0
253.04381,253.42714,57,96,0
253.4438,253.82715,53,88,0
253.84381,254.22714,57,81,0
254.2438,254.62714,58,80,0
254.64381,255.02715,53,80,0
255.04381,255.42714,50,80,0
255.4438,255.82715,46,80,0
255.84381,256.22714,43,80,0
256.2438,256.62714,41,80,0
257.0438,257.42715,48,93,0
257.44382,257.82715,43,97,0
256.6438,258.22714,40,90,0
257.8438,258.22714,48,101,0
258.2438,258.62714,46,105,0
258.2438,259.02713,40,105,0
258.6438,259.02713,48,109,0
259.44382,259.82715,53,115,0
259.8438,260.22714,46,110,0
260.2438,260.62714,53,104,0
260.6438,261.02713,50,99,0
259.0438,261.42715,41,120,0
261.0438,261.42715,53,93,0
261.8438,262.22714,48,80,0
262.2438,262.62714,53,80,0
261.44382,263.02713,41,80,0
262.6438,263.02713,51,80,0
263.0438,263.45453,48,80,0
263.0438,263.95154,41,80,0
263.47238,263.95154,53,80,0
263.97238,265.95154,50,80,0
263.97238,265.95154,46,80,0
266.97238,268.62167,50,80,0
268.63904,269.03836,52,80,0
266.97238,269.45502,46,80,0
269.05573,269.45502,53,80,0
269.47238,270.28836,53,80,0
269.47238,271.12167,45,80,0
270.30573,271.12167,52,80,0
271.97238,273.20502,50,80,0
273.22238,273.41336,49,80,0
273.4307,273.62167,50,80,0
273.63904,273.83002,49,80,0
273.84738,274.03836,50,80,0
274.0557,274.24667,52,80,0
271.97238,274.45502,46,80,0
274.26404,274.45502,53,80,0
274.47238,275.45154,53,80,0
274.47238,276.45154,45,80,0
275.47238,276.45154,52,80,0
277.32953,278.4389,52,110,0
277.32953,278.4389,49,110,0
277.32953,278.4389,43,110,0
278.45453,278.70453,52,110,0
278.45453,278.70453,49,110,0
278.45453,278.70453,45,110,0
278.82953,279.11523,52,110,0
278.82953,279.11523,49,110,0
278.82953,279.11523,46,110,0
279.2581,279.5438,52,110,0
279.2581,279.5438,43,110,0
279.2581,279.5438,40,110,0
279.68668,280.52594,53,110,0
279.68668,280.52594,45,110,0
279.68668,280.52594,41,110,0
281.3438,282.12714,52,80,0
281.3438,282.12714,50,80,0
281.3438,282.12714,43,80,0
282.1438,282.92712,53,80,0
282.1438,282.92712,50,80,0
282.1438,282.92712,45,80,0
283.7438,284.52713,45,80,0
283.7438,284.52713,33,80,0
284.5438,286.12714,50,80,0
284.5438,286.12714,38,80,0
286.1438,286.92712,50,110,0
286.94382,288.52713,53,110,0
288.5438,288.92712,52,110,0
286.94382,289.32715,46,110,0
288.94382,289.32715,50,110,0
289.3438,290.12714,50,110,0
289.3438,290.92712,45,110,0
290.1438,290.92712,49,110,0
291.5438,291.72714,50,120,0
291.7438,292.52713,53,120,0
292.5438,292.72714,52,120,0
292.7438,292.92712,53,120,0
292.94382,293.12714,52,120,0
293.1438,293.32715,53,120,0
293.3438,293.52713,55,120,0
293.5438,293.72714,53,120,0
293.7438,293.92712,52,120,0
291.7438,294.12714,46,120,0
293.94382,294.12714,50,120,0
294.1438,294.92712,50,120,0
294.1438,295.72714,45,120,0
294.94382,295.72714,49,120,0
296.5438,297.72714,55,120,0
297.7438,298.12714,57,80,0
298.1438,298.52713,58,80,0
296.5438,298.92712,61,120,0
296.5438,298.92712,64,120,0
298.5438,298.92712,52,80,0
298.94382,300.12714,60,110,0
300.1438,300.52713,62,80,0
300.5438,300.92712,63,80,0
298.94382,301.32715,66,110,0
298.94382,301.32715,69,110,0
300.94382,301.32715,57,80,0
301.3438,302.52713,62,100,0
302.5438,302.92712,64,80,0
302.94382,303.32715,65,80,0
301.3438,303.72714,71,100,0
301.3438,303.72714,68,100,0
303.3438,303.72714,62,80,0
303.7438,304.52713,73,80,0
303.7438,304.52713,70,80,0
303.7438,304.52713,67,80,0
303.7438,304.52713,64,80,0
305.3438,306.12714,65,80,0
305.3438,306.12714,69,80,0
306.1438,306.9831,67,80,0
306.1438,306.9831,64,80,0
306.1438,306.9831,62,80,0
306.1438,306.9831,55,80,0
307.8581,308.83725,64,80,0
307.8581,308.83725,61,80,0
307.8581,308.83725,57,80,0
308.8581,309.72205,38,70,0
309.74045,310.52377,37,70,0
310.54044,311.32376,38,70,0
311.34045,312.12378,41,70,0
312.14044,312.92377,37,70,0
308.8581,313.7238,50,70,0
312.94043,313.7238,38,70,0
313.74045,314.52377,34,70,0
314.54044,315.32376,33,75,0
315.34045,316.12378,34,80,0
316.14044,316.92377,38,85,0
316.94043,317.7238,33,90,0
313.74045,318.52377,46,70,0
317.74045,318.52377,34,95,0
319.34045,320.12378,34,110,0
318.54044,320.92377,30,110,0
320.14044,320.92377,39,110,0
321.74045,322.52377,46,110,0
320.94043,323.32376,42,110,0
322.54044,323.32376,51,110,0
323.34045,325.7238,45,110,0
324.14044,325.7238,54,110,0
324.94043,325.7238,51,110,0
325.74045,328.12378,46,110,0
326.54044,328.12378,55,110,0
327.34045,328.12378,51,110,0
328.14044,330.52377,47,110,0
328.94043,330.52377,56,110,0
329.74045,330.52377,53,110,0
330.54044,332.12378,48,110,0
331.34045,332.12378,57,110,0
332.14044,332.92377,52,110,0
332.14044,332.92377,55,110,0
332.14044,332.92377,58,110,0
332.14044,332.92377,49,110,0
332.94043,334.52377,50,110,0
333.74045,334.52377,59,110,0
333.74045,334.52377,56,110,0
333.74045,334.52377,53,110,0
334.54044,335.32376,60,110,0
334.54044,335.32376,57,110,0
334.54044,335.32376,54,110,0
334.54044,335.32376,51,110,0
335.34045,336.92377,52,110,0
336.14044,336.92377,61,110,0
336.14044,336.92377,58,110,0
336.14044,336.92377,55,110,0
336.94043,337.7238,62,110,0
336.94043,337.7238,57,110,0
336.94043,337.7238,53,110,0
338.49045,339.22482,58,125,0
338.49045,339.22482,62,125,0
338.49045,339.22482,64,125,0
337.74045,339.97482,55,125,0
339.24045,339.97482,58,125,0
339.24045,339.97482,62,125,0
339.24045,339.97482,64,125,0
340.74045,341.47482,59,125,0
340.74045,341.47482,62,125,0
340.74045,341.47482,64,125,0
339.99045,342.22482,56,125,0
341.49045,342.22482,59,125,0
341.49045,342.22482,62,125,0
341.49045,342.22482,64,125,0
342.99045,343.72482,62,80,0
342.99045,343.72482,65,80,0
342.99045,343.72482,69,80,0
343.74045,344.47482,62,80,0
343.74045,344.47482,65,80,0
343.74045,344.47482,69,80,0
344.49045,345.22482,62,80,0
344.49045,345.22482,65,80,0
344.49045,345.22482,69,80,0
345.24045,345.97482,62,80,0
345.24045,345.97482,65,80,0
345.24045,345.97482,69,80,0
342.24045,346.72482,57,120,0
345.99045,346.72482,62,80,0
345.99045,346.72482,65,80,0
345.99045,346.72482,69,80,0
347.49045,348.22482,62,80,0
347.49045,348.22482,64,80,0
347.49045,348.22482,67,80,0
346.74045,348.97482,57,80,0
348.24045,348.97482,62,80,0
348.24045,348.97482,64,80,0
348.24045,348.97482,67,80,0
349.74045,350.47482,61,80,0
349.74045,350.47482,64,80,0
349.74045,350.47482,67,80,0
348.99045,351.22482,57,80,0
350.49045,351.22482,61,80,0
350.49045,351.22482,64,80,0
351.99045,352.72482,50,80,0
351.99045,352.72482,53,80,0
351.99045,352.72482,57,80,0
352.74045,353.47482,50,80,0
352.74045,353.47482,53,80,0
352.74045,353.47482,57,80,0
353.49045,354.22482,50,80,0
353.49045,354.22482,53,80,0
353.49045,354.22482,57,80,0
354.24045,354.97482,50,80,0
354.24045,354.97482,53,80,0
354.24045,354.97482,57,80,0
351.24045,355.72482,45,102,0
354.99045,355.72482,50,80,0
354.99045,355.72482,53,80,0
354.99045,355.72482,57,80,0
356.49045,357.22482,50,80,0
356.49045,357.22482,52,80,0
356.49045,357.22482,55,80,0
355.74045,357.97482,45,80,0
357.24045,357.97482,50,80,0
357.24045,357.97482,52,80,0
357.24045,357.97482,55,80,0
358.7799,359.5959,49,80,0
358.7799,359.5959,52,80,0
358.7799,359.5959,55,80,0
357.99045,360.64816,45,80,0
359.61325,360.64816,49,80,0
359.61325,360.64816,52,80,0
360.6794,363.64816,50,80,0
360.6794,363.64816,38,80,0
367.9067,370.61502,67,70,0
367.9067,370.61502,62,70,0
367.9067,370.61502,55,70,0
373.36124,376.06958,65,70,0
373.36124,376.06958,62,70,0
373.36124,376.06958,53,70,0
378.8158,379.70593,74,70,0
379.72488,380.61502,69,70,0
380.63397,381.5241,70,70,0
381.54306,382.4332,70,70,0
382.45215,383.3423,66,75,0
383.36124,384.25137,67,81,0
384.27032,385.16046,67,87,0
385.1794,386.06958,62,93,0
386.0885,386.97867,63,99,0
386.9976,388.79684,51,110,0
388.81577,389.70593,50,110,0
389.72485,391.5241,49,110,0
395.1794,397.88776,50,70,0
395.1794,397.88776,38,70,0
400.63394,403.3423,45,70,0
400.63394,403.3423,33,70,0
406.0885,407.88773,50,70,0
406.0885,408.7968,38,70,0
407.90668,408.7968,50,70,0
407.90668,408.7968,46,70,0
408.81577,410.61502,50,80,0
408.81577,411.5241,38,80,0
410.63394,411.5241,50,70,0
410.63394,411.5241,43,70,0
411.54303,413.3423,41,70,0
411.54303,413.3423,50,70,0
411.54303,414.25137,38,70,0
413.3612,414.25137,50,70,0
413.3612,414.25137,46,70,0
414.27032,416.06955,50,80,0
414.27032,416.97864,38,80,0
416.0885,416.97864,50,70,0
416.0885,416.97864,43,70,0
416.9976,418.60233,50,70,0
416.9976,418.60233,45,70,0
416.9976,418.60233,41,70,0
416.9976,418.60233,38,70,0
423.87643,425.34518,38,70,0
425.37643,428.34518,38,70,0
