start_time,end_time,note_value,velocity,instrument_program_number
0.3,0.59375,69,80,0
0.3,0.59375,65,80,0
0.3,0.59375,60,80,0
0.3,0.59375,57,80,0
0.6,1.19375,72,80,0
0.6,1.19375,69,80,0
0.6,1.19375,65,80,0
0.6,1.19375,60,80,0
1.5,1.59375,72,80,0
1.6,1.69375,71,80,0
1.7,1.79375,74,80,0
1.8,2.39375,72,80,0
2.7,2.99375,69,80,0
2.7,2.99375,65,80,0
2.7,2.99375,60,80,0
3.0,3.59375,67,80,0
3.0,3.59375,60,80,0
3.0,3.59375,70,80,0
3.9,3.99375,70,80,0
4.0,4.09375,69,80,0
4.1,4.19375,72,80,0
4.2,4.79375,70,80,0
5.1,5.39375,70,80,0
5.4,5.61875,69,80,0
5.625,5.69375,72,82,0
5.7,6.29375,77,83,0
6.3,6.59375,76,91,0
6.6,6.89375,77,95,0
6.9,7.49375,81,99,0
7.5,8.09375,79,90,0
8.1,8.729688,81,80,0
8.7375,8.917188,82,80,0
8.925,9.104688,84,80,0
9.1125,9.479688,84,80,0
9.4875,9.854688,82,80,0
10.6125,10.75625,82,80,0
10.6875,10.83125,84,80,0
10.7625,10.90625,81,80,0
10.8375,10.98125,82,80,0
10.9125,11.50625,86,80,0
11.5125,11.65625,84,80,0
11.6625,11.80625,82,80,0
11.8125,11.95625,81,80,0
11.8875,12.03125,82,80,0
11.9625,12.10625,84,80,0
12.0375,12.18125,82,80,0
12.1125,12.63125,81,80,0
12.6375,12.70625,79,80,0
12.7125,12.93125,82,80,0
12.9375,13.00625,79,80,0
13.0125,13.30625,79,80,0
13.3125,13.83125,77,80,0
13.8375,13.90625,76,80,0
13.9125,14.13125,79,80,0
14.1375,14.20625,76,80,0
14.2125,14.80625,77,80,0
15.1125,15.40625,69,80,0
15.1125,15.40625,65,80,0
15.1125,15.40625,60,80,0
15.1125,15.40625,57,80,0
15.4125,16.00625,72,80,0
15.4125,16.00625,69,80,0
15.4125,16.00625,65,80,0
15.4125,16.00625,60,80,0
16.3125,16.40625,72,80,0
16.4125,16.50625,71,80,0
16.5125,16.60625,74,80,0
16.6125,17.20625,72,80,0
17.5125,17.80625,69,80,0
17.5125,17.80625,63,80,0
17.5125,17.80625,60,80,0
17.5125,17.80625,57,80,0
17.8125,18.40625,72,80,0
17.8125,18.40625,69,80,0
17.8125,18.40625,63,80,0
17.8125,18.40625,60,80,0
18.7125,18.80625,72,80,0
18.8125,18.90625,71,80,0
18.9125,19.00625,74,80,0
19.0125,19.60625,72,80,0
19.9125,20.00625,72,110,0
20.0125,20.10625,71,110,0
19.9125,20.20625,63,110,0
20.1125,20.20625,69,110,0
20.2125,20.50625,76,110,0
20.2125,20.50625,64,110,0
20.5125,20.60625,72,110,0
20.6125,20.70625,71,110,0
20.5125,20.80625,63,110,0
20.7125,20.80625,69,110,0
20.8125,21.10625,76,110,0
20.8125,21.10625,64,110,0
21.1125,21.20625,72,110,0
21.2125,21.30625,71,110,0
21.1125,21.40625,63,110,0
21.3125,21.40625,69,110,0
21.4125,22.00625,76,110,0
21.4125,22.00625,64,110,0
22.3125,22.60625,67,80,0
22.3125,22.60625,55,80,0
22.6125,23.20625,64,80,0
22.6125,23.20625,52,80,0
23.2125,23.80625,55,84,0
23.2125,23.80625,60,84,0
23.2125,23.80625,64,84,0
23.2125,23.80625,67,84,0
23.8125,24.70625,72,89,0
23.8125,24.70625,67,89,0
23.8125,24.70625,64,89,0
23.8125,24.70625,60,89,0
24.7125,25.00625,76,96,0
24.7125,25.00625,64,96,0
25.0125,25.30625,79,98,0
25.0125,25.30625,67,98,0
25.3125,25.90625,72,110,0
25.3125,25.90625,84,110,0
25.9125,26.05625,88,110,0
25.9125,26.05625,76,110,0
26.0625,26.20625,74,100,0
26.0625,26.20625,86,100,0
26.2125,26.80625,72,98,0
26.2125,26.80625,84,98,0
26.8125,27.10625,71,88,0
26.8125,27.10625,83,88,0
27.4125,28.00625,71,80,0
27.4125,28.00625,65,80,0
27.4125,28.00625,62,80,0
27.4125,28.00625,59,80,0
28.0125,28.60625,74,84,0
28.0125,28.60625,71,84,0
28.0125,28.60625,65,84,0
28.0125,28.60625,62,84,0
28.6125,29.50625,77,89,0
28.6125,29.50625,74,89,0
28.6125,29.50625,71,89,0
28.6125,29.50625,65,89,0
29.5125,29.80625,71,96,0
29.5125,29.80625,83,96,0
29.8125,30.10625,74,98,0
29.8125,30.10625,86,98,0
30.1125,30.70625,77,110,0
30.1125,30.70625,89,110,0
30.7125,31.00625,76,110,0
30.7125,31.00625,88,110,0
31.0125,31.60625,74,100,0
31.0125,31.60625,86,100,0
31.6125,31.90625,72,89,0
31.6125,31.90625,84,89,0
32.2125,32.80625,76,120,0
32.2125,32.80625,72,120,0
32.2125,32.80625,67,120,0
32.2125,32.80625,64,120,0
32.8125,33.40625,67,120,0
32.8125,33.40625,72,120,0
32.8125,33.40625,76,120,0
32.8125,33.40625,79,120,0
33.4125,34.30625,72,120,0
33.4125,34.30625,84,120,0
34.3125,34.90625,73,120,0
34.3125,34.90625,85,120,0
34.9125,35.50625,74,120,0
34.9125,35.50625,86,120,0
35.5125,35.80625,72,120,0
35.5125,35.80625,84,120,0
35.8125,36.10625,72,120,0
35.8125,36.10625,84,120,0
36.1125,36.40625,71,120,0
36.1125,36.40625,83,120,0
36.7125,37.00625,78,100,0
36.7125,37.00625,72,100,0
37.0125,37.30625,72,100,0
37.0125,37.60625,79,100,0
37.3125,37.60625,71,100,0
37.9125,38.20625,84,100,0
38.2125,38.35625,84,100,0
38.3625,38.50625,83,100,0
38.5125,38.65625,81,100,0
38.6625,38.80625,79,100,0
39.1125,39.40625,78,100,0
39.1125,39.40625,72,100,0
39.4125,39.55625,72,100,0
39.5625,39.70625,71,100,0
39.7125,39.85625,69,100,0
39.4125,40.00625,79,100,0
39.8625,40.00625,67,100,0
40.3125,40.60625,84,117,0
40.6125,40.75625,84,100,0
40.7625,40.90625,83,100,0
40.9125,41.05625,81,100,0
41.0625,41.20625,79,100,0
41.5125,41.80625,84,117,0
41.8125,41.95625,84,100,0
41.9625,42.10625,83,100,0
42.1125,42.25625,81,100,0
42.2625,42.40625,79,100,0
42.7125,43.00625,84,121,0
43.0125,43.15625,84,80,0
43.1625,43.30625,83,80,0
43.3125,43.45625,81,80,0
43.4625,43.60625,79,80,0
43.6125,43.75625,78,80,0
43.7625,43.90625,79,80,0
43.9125,44.05625,81,80,0
44.0625,44.20625,79,80,0
44.2125,44.363815,78,80,0
44.370396,44.52171,79,80,0
44.52829,44.679604,81,80,0
44.686184,44.837498,79,80,0
44.844078,45.0038,78,80,0
45.010746,45.170467,79,80,0
45.17741,45.346527,80,80,0
45.35388,45.523,81,80,0
45.530354,45.87594,81,80,0
45.883293,46.192505,77,80,0
46.19908,46.508293,74,80,0
46.51487,46.666187,77,80,0
46.59382,46.745132,76,80,0
46.672764,46.82408,74,80,0
46.751713,46.82408,76,80,0
46.83066,47.13987,81,80,0
47.14645,47.455658,77,80,0
47.46224,47.771446,74,80,0
47.778027,47.929344,77,80,0
47.856976,48.00829,76,80,0
47.93592,48.08724,74,80,0
48.01487,48.08724,76,80,0
48.093815,48.403027,77,80,0
48.093815,48.403027,74,80,0
48.093815,48.403027,69,80,0
48.725395,49.034603,67,80,0
48.725395,49.034603,71,80,0
48.725395,49.034603,74,80,0
49.35697,50.09916,76,80,0
49.35697,50.09916,72,80,0
49.35697,50.09916,64,80,0
49.35697,50.09916,67,80,0
50.57572,50.75541,79,120,0
50.66947,50.84916,76,120,0
50.76322,50.92572,67,120,0
50.931973,51.07572,80,120,0
51.006973,51.150723,77,120,0
51.08197,51.225723,67,120,0
51.23197,51.37572,77,120,0
51.306973,51.45072,74,120,0
51.381973,51.525723,67,120,0
51.53197,51.67572,74,120,0
51.60697,51.75072,71,120,0
51.681973,51.82572,67,120,0
51.83197,51.975723,75,120,0
51.90697,52.05072,72,120,0
51.98197,52.12572,67,120,0
52.131973,52.275723,80,120,0
52.20697,52.350723,77,120,0
52.28197,52.42572,67,120,0
52.431973,52.57572,77,120,0
52.506973,52.650723,74,120,0
52.58197,52.725723,67,120,0
52.73197,52.87572,74,120,0
52.806973,52.95072,71,120,0
52.881973,53.025723,67,120,0
53.03197,53.17572,75,120,0
53.10697,53.25072,72,120,0
53.181973,53.333363,67,100,0
53.256973,53.58336,74,100,0
53.256973,53.58336,68,100,0
53.256973,53.58336,77,100,0
53.923637,54.250027,74,100,0
53.923637,54.250027,71,100,0
53.923637,54.250027,65,100,0
54.590305,54.91669,72,100,0
54.590305,54.91669,68,100,0
54.590305,54.91669,63,100,0
55.923637,56.250023,72,70,0
55.923637,56.250023,69,70,0
55.923637,56.250023,63,70,0
57.423634,57.73405,71,80,0
57.423634,57.73405,62,80,0
57.7403,58.03405,65,81,0
57.7403,58.03405,74,81,0
58.040302,58.33405,72,83,0
58.040302,58.33405,64,83,0
58.3403,58.634052,72,84,0
58.3403,58.634052,76,84,0
58.6403,58.93405,71,85,0
58.6403,58.93405,77,85,0
58.9403,59.23405,77,87,0
58.9403,59.23405,83,87,0
59.2403,59.53405,76,88,0
59.2403,59.53405,84,88,0
59.540302,59.83405,84,89,0
59.540302,59.83405,88,89,0
59.8403,60.134052,83,90,0
59.8403,60.134052,89,90,0
60.1403,60.43405,74,92,0
60.1403,60.43405,83,92,0
60.4403,60.73405,76,93,0
60.4403,60.73405,84,93,0
60.7403,61.03405,79,94,0
60.7403,61.03405,88,94,0
61.040302,61.33405,89,96,0
61.040302,61.33405,77,96,0
61.3403,61.634052,74,97,0
61.3403,61.634052,83,97,0
61.6403,61.93405,76,98,0
61.6403,61.93405,84,98,0
61.9403,62.0903,79,99,0
61.9403,62.0903,88,99,0
62.3903,62.48405,86,110,0
62.4903,62.58405,85,110,0
62.5903,62.68405,88,110,0
62.6903,62.98405,86,110,0
62.9903,63.08405,81,110,0
63.0903,63.18405,80,110,0
63.1903,63.28405,83,110,0
63.290302,63.58405,81,110,0
63.5903,63.68405,77,110,0
63.6903,63.78405,76,110,0
63.790302,63.884052,79,110,0
63.8903,64.18405,77,110,0
64.1903,64.28405,74,110,0
64.2903,64.38405,73,110,0
64.390305,64.484055,76,110,0
64.4903,64.78405,74,110,0
64.7903,65.38405,74,110,0
65.390305,65.53405,76,110,0
65.5403,65.68405,77,110,0
65.6903,66.38405,79,110,0
66.390305,66.484055,81,110,0
66.4903,66.58405,79,110,0
66.5903,66.68405,77,110,0
66.6903,66.78405,76,110,0
66.7903,66.88405,74,110,0
66.890305,67.18405,72,110,0
67.4903,67.78405,79,80,0
67.7903,68.08405,79,80,0
68.0903,68.38405,76,80,0
68.6903,68.984055,72,80,0
68.6903,68.984055,84,80,0
68.9903,69.28405,72,80,0
68.9903,69.28405,84,80,0
69.2903,69.58405,69,80,0
69.2903,69.58405,81,80,0
69.890305,70.18405,42,110,0
70.1903,70.484055,42,110,0
70.4903,70.63405,42,110,0
70.5653,70.70905,43,110,0
70.640305,70.78405,45,110,0
70.7153,70.859055,43,110,0
70.7903,70.93405,45,110,0
70.8653,71.00905,43,110,0
70.9403,71.08405,45,110,0
71.015305,71.15905,43,110,0
71.0903,71.234055,45,110,0
71.1653,71.30905,43,110,0
71.2403,71.38405,45,110,0
71.3153,71.45905,43,110,0
71.390305,71.53405,45,110,0
71.4653,71.609055,43,110,0
71.5403,71.68405,42,110,0
71.6903,72.28405,36,110,0
72.2903,72.359055,67,80,0
72.3653,72.58405,79,80,0
72.5903,72.65905,67,80,0
72.6653,72.88405,79,80,0
72.890305,72.95905,64,80,0
72.9653,73.18405,76,80,0
73.4903,73.55905,72,80,0
73.5653,73.78405,84,80,0
73.7903,73.859055,72,80,0
73.8653,74.08405,84,80,0
74.0903,74.15905,69,80,0
74.1653,74.38405,81,80,0
74.6903,74.984055,42,110,0
74.9903,75.28405,42,110,0
75.2903,75.43405,42,111,0
75.3653,75.50905,43,111,0
75.4403,75.58405,45,111,0
75.515305,75.65905,43,112,0
75.5903,75.734055,45,112,0
75.6653,75.80905,43,112,0
75.7403,75.88405,45,112,0
75.8153,75.95905,43,112,0
75.890305,76.03405,45,113,0
75.9653,76.109055,43,113,0
76.0403,76.18405,45,113,0
76.1153,76.25905,43,113,0
76.1903,76.33405,45,113,0
76.265305,76.40905,43,113,0
76.3403,76.484055,42,114,0
76.4903,77.08405,36,114,0
77.0903,77.38405,78,115,0
77.390305,77.68405,78,116,0
77.6903,77.83405,78,117,0
77.765305,77.90905,79,117,0
77.8403,77.984055,81,117,0
77.9153,78.05905,79,117,0
77.9903,78.13405,81,118,0
78.0653,78.20905,79,118,0
78.140305,78.28405,81,118,0
78.2153,78.359055,79,118,0
78.2903,78.43405,81,118,0
78.3653,78.50905,79,118,0
78.4403,78.58405,81,119,0
78.515305,78.65905,79,119,0
78.5903,78.734055,81,119,0
78.6653,78.80905,79,119,0
78.7403,78.88405,78,119,0
78.8153,78.95905,79,120,0
78.890305,79.18405,84,120,0
78.890305,79.18405,72,120,0
79.4903,79.78405,79,120,0
79.4903,79.78405,67,120,0
80.0903,80.68405,72,120,0
80.0903,80.68405,60,120,0
80.9903,81.28405,69,80,0
80.9903,81.28405,65,80,0
80.9903,81.28405,60,80,0
80.9903,81.28405,57,80,0
81.2903,81.88405,72,80,0
81.2903,81.88405,69,80,0
81.2903,81.88405,65,80,0
81.2903,81.88405,60,80,0
82.1903,82.28405,72,80,0
82.2903,82.38405,71,80,0
82.390305,82.484055,74,80,0
82.4903,83.08405,72,80,0
83.390305,83.68405,69,80,0
83.390305,83.68405,65,80,0
83.390305,83.68405,60,80,0
83.6903,84.28405,67,80,0
83.6903,84.28405,60,80,0
83.6903,84.28405,70,80,0
84.5903,84.68405,70,80,0
84.6903,84.78405,69,80,0
84.7903,84.88405,72,80,0
84.890305,85.484055,70,80,0
85.7903,86.08405,70,80,0
86.0903,86.30905,69,80,0
86.3153,86.38405,72,82,0
86.390305,86.984055,77,83,0
86.9903,87.28405,76,91,0
87.2903,87.58405,77,95,0
87.5903,88.18405,81,99,0
88.1903,88.78405,79,120,0
88.7903,89.43187,81,110,0
89.43914,89.60629,82,96,0
89.613556,89.78071,84,92,0
89.78797,90.12955,84,88,0
90.13681,90.47838,82,81,0
91.18333,91.32707,82,80,0
91.25832,91.40208,84,80,0
91.33332,91.47707,81,80,0
91.408325,91.55207,82,80,0
91.48332,92.07707,86,80,0
92.08332,92.22707,84,80,0
92.23332,92.377075,82,80,0
92.38332,92.52708,81,80,0
92.45832,92.60207,82,80,0
92.533325,92.67707,84,80,0
92.60832,92.752075,82,80,0
92.68333,93.20207,81,80,0
93.20832,93.27708,79,80,0
93.283325,93.502075,82,80,0
93.50832,93.57707,79,80,0
93.58332,93.89253,79,80,0
93.89911,94.44517,77,80,0
94.451744,94.52411,76,80,0
94.53069,94.760956,79,80,0
94.76753,94.8399,76,80,0
94.84648,95.47148,77,80,0
95.793846,96.10306,69,80,0
95.793846,96.10306,65,80,0
95.793846,96.10306,60,80,0
95.793846,96.10306,57,80,0
96.109634,96.734634,72,80,0
96.109634,96.734634,69,80,0
96.109634,96.734634,65,80,0
96.109634,96.734634,60,80,0
97.057,97.155685,72,80,0
97.16226,97.26095,71,80,0
97.267525,97.36621,74,80,0
97.37279,97.99779,72,80,0
98.32016,98.62937,69,80,0
98.32016,98.62937,63,80,0
98.32016,98.62937,60,80,0
98.32016,98.62937,57,80,0
98.63595,99.26095,72,80,0
98.63595,99.26095,69,80,0
98.63595,99.26095,63,80,0
98.63595,99.26095,60,80,0
99.58331,99.682,72,80,0
99.688576,99.78726,71,80,0
99.79384,99.892525,74,80,0
99.8991,100.5241,72,80,0
100.84647,100.94515,72,110,0
100.95174,101.050415,71,110,0
100.84647,101.15568,63,110,0
101.057,101.15568,69,110,0
101.16226,101.45601,76,110,0
101.16226,101.45601,64,110,0
101.46226,101.55601,72,110,0
101.562256,101.656006,71,110,0
101.46226,101.75601,63,110,0
101.66226,101.75601,69,110,0
101.76226,102.05601,76,110,0
101.76226,102.05601,64,110,0
102.062256,102.156006,72,110,0
102.16226,102.25601,71,110,0
102.062256,102.35601,63,110,0
102.26226,102.35601,69,110,0
102.36226,102.95601,76,110,0
102.36226,102.95601,64,110,0
103.26226,103.55601,67,80,0
103.26226,103.55601,55,80,0
103.562256,104.156006,64,80,0
103.562256,104.156006,52,80,0
104.16226,104.75601,55,87,0
104.16226,104.75601,60,87,0
104.16226,104.75601,64,87,0
104.16226,104.75601,67,87,0
104.76226,105.656006,72,94,0
104.76226,105.656006,67,94,0
104.76226,105.656006,64,94,0
104.76226,105.656006,60,94,0
105.66226,105.95601,76,104,0
105.66226,105.95601,64,104,0
105.96226,106.25601,79,108,0
105.96226,106.25601,67,108,0
106.26226,106.85601,72,110,0
106.26226,106.85601,84,110,0
106.86226,107.00601,88,110,0
106.86226,107.00601,76,110,0
107.01226,107.156006,74,110,0
107.01226,107.156006,86,110,0
107.16226,107.75601,72,110,0
107.16226,107.75601,84,110,0
107.76226,108.05601,71,93,0
107.76226,108.05601,83,93,0
108.36226,108.95601,71,80,0
108.36226,108.95601,65,80,0
108.36226,108.95601,62,80,0
108.36226,108.95601,59,80,0
108.96226,109.55601,74,87,0
108.96226,109.55601,71,87,0
108.96226,109.55601,65,87,0
108.96226,109.55601,62,87,0
109.562256,110.45601,77,94,0
109.562256,110.45601,74,94,0
109.562256,110.45601,71,94,0
109.562256,110.45601,65,94,0
110.46226,110.75601,71,104,0
110.46226,110.75601,83,104,0
110.76226,111.05601,74,108,0
110.76226,111.05601,86,108,0
111.062256,111.656006,77,110,0
111.062256,111.656006,89,110,0
111.66226,111.95601,76,110,0
111.66226,111.95601,88,110,0
111.96226,112.55601,74,110,0
111.96226,112.55601,86,110,0
112.562256,112.85601,72,93,0
112.562256,112.85601,84,93,0
113.16226,113.75601,76,120,0
113.16226,113.75601,72,120,0
113.16226,113.75601,67,120,0
113.16226,113.75601,64,120,0
113.76226,114.35601,67,118,0
113.76226,114.35601,72,118,0
113.76226,114.35601,76,118,0
113.76226,114.35601,79,118,0
114.36226,115.25601,72,115,0
114.36226,115.25601,84,115,0
115.26226,115.85601,73,111,0
115.26226,115.85601,85,111,0
115.86226,116.45601,74,108,0
115.86226,116.45601,86,108,0
116.46226,116.75601,72,106,0
116.46226,116.75601,84,106,0
116.76226,117.05601,72,104,0
116.76226,117.05601,84,104,0
117.062256,117.35601,71,103,0
117.062256,117.35601,83,103,0
117.66226,117.95601,78,80,0
117.66226,117.95601,72,80,0
117.96226,118.25601,72,80,0
117.96226,118.55601,79,80,0
118.26226,118.55601,71,80,0
118.86226,119.156006,84,112,0
119.16226,119.30601,84,90,0
119.312256,119.45601,83,90,0
119.46226,119.60601,81,90,0
119.61226,119.75601,79,90,0
120.062256,120.35601,78,108,0
120.062256,120.35601,72,90,0
120.36226,120.50601,72,90,0
120.51226,120.656006,71,90,0
120.66226,120.80601,69,90,0
120.36226,120.95601,79,90,0
120.812256,120.95601,67,90,0
121.26226,121.55601,84,104,0
121.562256,121.70601,84,90,0
121.71226,121.85601,83,90,0
121.86226,122.00601,81,90,0
122.01226,122.156006,79,90,0
122.46226,122.75601,84,106,0
122.76226,122.906006,84,90,0
122.91226,123.05601,83,90,0
123.062256,123.20601,81,90,0
123.21226,123.35601,79,90,0
123.66226,123.95601,84,107,0
123.96226,124.10601,84,80,0
124.11226,124.25601,83,80,0
124.26226,124.406006,81,80,0
124.41226,124.55601,79,80,0
124.562256,124.70601,78,80,0
124.71226,124.85601,79,80,0
124.86226,125.00601,81,80,0
125.01226,125.156006,79,80,0
125.16226,125.313576,78,80,0
125.32015,125.471466,79,80,0
125.47805,125.629364,81,80,0
125.63594,125.787254,79,80,0
125.79384,125.95356,78,80,0
125.9605,126.120224,79,80,0
126.12717,126.286896,80,80,0
126.29384,126.45356,81,80,0
126.4605,126.78689,81,80,0
126.79384,127.120224,77,80,0
127.12717,127.45356,74,80,0
127.4605,127.620224,77,80,0
127.54384,127.70356,76,80,0
127.62717,127.78689,74,80,0
127.7105,127.78689,76,80,0
127.79384,128.10304,81,80,0
128.10962,128.41884,77,80,0
128.42542,128.73462,74,80,0
128.7412,128.89252,77,80,0
128.82014,128.97147,76,80,0
128.8991,129.05042,74,80,0
128.97804,129.05042,76,80,0
129.05699,129.38338,77,80,0
129.05699,129.38338,74,80,0
129.05699,129.38338,69,80,0
129.72366,130.09085,67,80,0
129.72366,130.09085,71,80,0
129.72366,130.09085,74,80,0
130.47366,131.21585,76,80,0
130.47366,131.21585,72,80,0
130.47366,131.21585,64,80,0
130.47366,131.21585,67,80,0
131.69241,131.85335,79,120,0
131.78459,131.92834,76,120,0
131.85959,132.00334,67,120,0
132.0096,132.15335,80,120,0
132.0846,132.22835,77,120,0
132.15959,132.30334,67,120,0
132.3096,132.45334,77,120,0
132.3846,132.52835,74,120,0
132.4596,132.60335,67,120,0
132.60959,132.75334,74,120,0
132.6846,132.82834,71,120,0
132.7596,132.90335,67,120,0
132.90959,133.05334,75,120,0
132.98459,133.12834,72,120,0
133.0596,133.20334,67,120,0
133.2096,133.35335,80,120,0
133.28459,133.42834,77,120,0
133.35959,133.50334,67,120,0
133.5096,133.65335,77,120,0
133.5846,133.72835,74,120,0
133.65959,133.80334,67,120,0
133.8096,133.95334,74,120,0
133.8846,134.02835,71,120,0
133.9596,134.10335,67,120,0
134.10959,134.25334,75,120,0
134.1846,134.32834,72,120,0
134.2596,134.40697,67,100,0
134.3346,134.6438,74,100,0
134.3346,134.6438,68,100,0
134.3346,134.6438,77,100,0
134.96617,135.27538,74,100,0
134.96617,135.27538,71,100,0
134.96617,135.27538,65,100,0
135.59775,135.92413,72,100,0
135.59775,135.92413,68,100,0
135.59775,135.92413,63,100,0
136.93108,137.25748,72,70,0
136.93108,137.25748,69,70,0
136.93108,137.25748,63,70,0
138.43108,138.7415,71,80,0
138.43108,138.7415,62,80,0
138.74774,139.0415,65,82,0
138.74774,139.0415,74,82,0
139.04774,139.34149,72,84,0
139.04774,139.34149,64,84,0
139.34775,139.6415,72,86,0
139.34775,139.6415,76,86,0
139.64775,139.9415,71,88,0
139.64775,139.9415,77,88,0
139.94775,140.2415,77,90,0
139.94775,140.2415,83,90,0
140.24774,140.5415,76,92,0
140.24774,140.5415,84,92,0
140.54774,140.84149,84,94,0
140.54774,140.84149,88,94,0
140.84775,141.1415,83,96,0
140.84775,141.1415,89,96,0
141.14775,141.4415,74,98,0
141.14775,141.4415,83,98,0
141.44775,141.7415,76,100,0
141.44775,141.7415,84,100,0
141.74774,142.0415,79,102,0
141.74774,142.0415,88,102,0
142.04774,142.34149,89,104,0
142.04774,142.34149,77,104,0
142.34775,142.6415,74,106,0
142.34775,142.6415,83,106,0
142.64775,142.9415,76,108,0
142.64775,142.9415,84,108,0
142.94775,143.09775,79,109,0
142.94775,143.09775,88,109,0
143.39775,143.4915,86,100,0
143.49774,143.59149,85,100,0
143.59775,143.6915,88,100,0
143.69775,143.9915,86,100,0
143.99774,144.09149,81,100,0
144.09775,144.1915,80,100,0
144.19775,144.2915,83,100,0
144.29774,144.59149,81,100,0
144.59775,144.6915,77,100,0
144.69775,144.7915,76,100,0
144.79774,144.8915,79,100,0
144.89775,145.1915,77,100,0
145.19775,145.2915,74,100,0
145.29774,145.3915,73,100,0
145.39775,145.4915,76,100,0
145.49774,145.7915,74,100,0
145.79774,146.3915,74,100,0
146.39775,146.5415,76,100,0
146.54774,146.6915,77,100,0
146.69775,147.3915,79,100,0
147.39775,147.4915,81,100,0
147.49774,147.59149,79,100,0
147.59775,147.6915,77,100,0
147.69775,147.7915,76,100,0
147.79774,147.8915,74,100,0
147.89775,148.1915,72,100,0
148.49774,148.7915,79,80,0
148.79774,149.09149,79,80,0
149.09775,149.3915,76,80,0
149.69775,149.9915,72,80,0
149.69775,149.9915,84,80,0
149.99774,150.2915,72,80,0
149.99774,150.2915,84,80,0
150.29774,150.59149,69,80,0
150.29774,150.59149,81,80,0
150.89775,151.1915,42,100,0
151.19775,151.4915,42,100,0
151.49774,151.6415,42,100,0
151.57275,151.71649,43,100,0
151.64775,151.7915,45,100,0
151.72275,151.8665,43,100,0
151.79774,151.9415,45,100,0
151.87274,152.0165,43,100,0
151.94775,152.09149,45,100,0
152.02275,152.1665,43,100,0
152.09775,152.2415,45,100,0
152.17274,152.3165,43,100,0
152.24774,152.3915,45,100,0
152.32275,152.46649,43,100,0
152.39775,152.5415,45,100,0
152.47275,152.6165,43,100,0
152.54774,152.6915,42,100,0
152.69775,153.2915,36,100,0
153.29774,153.3665,67,80,0
153.37274,153.59149,79,80,0
153.59775,153.6665,67,80,0
153.67274,153.8915,79,80,0
153.89775,153.96649,64,80,0
153.97275,154.1915,76,80,0
154.49774,154.5665,72,80,0
154.57275,154.7915,84,80,0
154.79774,154.8665,72,80,0
154.87274,155.09149,84,80,0
155.09775,155.1665,69,80,0
155.17274,155.3915,81,80,0
155.69775,155.9915,42,100,0
155.99774,156.2915,42,101,0
156.29774,156.4415,42,103,0
156.37274,156.5165,43,103,0
156.44775,156.59149,45,103,0
156.52275,156.6665,43,104,0
156.59775,156.7415,45,104,0
156.67274,156.8165,43,104,0
156.74774,156.8915,45,105,0
156.82275,156.96649,43,105,0
156.89775,157.0415,45,106,0
156.97275,157.1165,43,106,0
157.04774,157.1915,45,106,0
157.12274,157.2665,43,107,0
157.19775,157.34149,45,107,0
157.27275,157.4165,43,107,0
157.34775,157.4915,42,108,0
157.49774,158.09149,36,108,0
158.09775,158.3915,78,111,0
158.39775,158.6915,78,113,0
158.69775,158.84149,78,114,0
158.77275,158.9165,79,114,0
158.84775,158.9915,81,115,0
158.92274,159.0665,79,115,0
158.99774,159.1415,81,116,0
159.07275,159.21649,79,116,0
159.14775,159.2915,81,116,0
159.22275,159.3665,79,117,0
159.29774,159.4415,81,117,0
159.37274,159.5165,79,117,0
159.44775,159.59149,81,118,0
159.52275,159.6665,79,118,0
159.59775,159.7415,81,118,0
159.67274,159.8165,79,119,0
159.74774,159.8915,78,119,0
159.82275,159.96649,79,120,0
159.89775,160.1915,84,120,0
159.89775,160.1915,72,120,0
160.49774,160.7915,79,120,0
160.49774,160.7915,67,120,0
161.09775,161.6915,72,120,0
161.09775,161.6915,60,120,0
162.29774,162.62413,81,80,0
162.29774,162.62413,69,80,0
162.96442,163.2908,64,80,0
162.96442,163.2908,76,80,0
163.63107,163.95747,69,80,0
163.63107,163.95747,57,80,0
165.07552,165.17969,74,80,0
165.18663,165.2908,76,80,0
165.29774,165.40192,77,80,0
165.40886,165.51302,76,80,0
165.51997,165.62413,74,80,0
165.74219,165.84636,81,80,0
165.8533,165.95746,83,80,0
165.96442,166.06857,85,80,0
166.07552,166.17969,83,80,0
166.18663,166.2908,81,80,0
166.46442,166.62413,86,80,0
166.63107,166.7908,85,80,0
166.79774,166.95746,86,80,0
166.96442,167.12413,88,80,0
167.13107,167.2908,86,80,0
167.29774,167.45746,89,80,0
167.46442,167.62413,86,80,0
167.74219,167.84636,85,80,0
167.8533,167.95746,86,80,0
167.9644,168.06857,88,80,0
168.07552,168.17969,86,80,0
168.18663,168.2908,85,80,0
168.40886,168.51302,85,80,0
168.51996,168.62413,86,80,0
168.63107,168.73524,88,80,0
168.74219,168.84636,86,80,0
168.8533,168.95746,85,80,0
169.13107,169.20746,86,80,0
169.17274,169.24913,85,80,0
169.2144,169.2908,83,80,0
169.25607,169.2908,85,80,0
169.29774,169.45746,88,80,0
169.4644,169.62413,86,80,0
169.63107,169.7908,85,80,0
169.79774,169.95746,82,80,0
169.9644,170.12413,81,80,0
170.13107,170.2908,79,80,0
170.29774,170.59149,81,110,0
170.29774,170.59149,77,110,0
170.29774,170.59149,74,110,0
170.29774,170.59149,86,110,0
170.89774,171.19148,81,110,0
170.89774,171.19148,76,110,0
170.89774,171.19148,73,110,0
170.89774,171.19148,69,110,0
171.49774,171.79149,74,110,0
171.49774,171.79149,69,110,0
171.49774,171.79149,65,110,0
171.49774,171.79149,62,110,0
172.69774,172.99149,81,110,0
172.69774,172.99149,76,110,0
172.69774,172.99149,73,110,0
172.69774,172.99149,69,110,0
173.29774,173.59149,76,110,0
173.29774,173.59149,71,110,0
173.29774,173.59149,68,110,0
173.29774,173.59149,64,110,0
173.89774,174.19148,64,110,0
173.89774,174.19148,61,110,0
173.89774,174.19148,69,110,0
175.19774,175.29149,65,80,0
175.29774,175.3915,77,80,0
175.49774,175.59149,68,80,0
175.59773,175.69148,80,80,0
175.79774,175.8915,69,80,0
175.89774,175.99149,81,80,0
176.09773,176.19148,62,80,0
176.19774,176.29149,74,80,0
176.39774,176.49149,62,80,0
176.49774,176.59149,74,80,0
176.69774,176.79149,61,80,0
176.79774,176.8915,73,80,0
176.99774,177.09149,61,80,0
177.09773,177.19148,73,80,0
177.29774,177.3915,64,80,0
177.39774,177.49149,76,80,0
177.59773,177.69148,64,80,0
177.69774,177.79149,76,80,0
177.89774,177.99149,62,80,0
177.99774,178.09149,74,80,0
178.19774,178.29149,62,80,0
178.29774,178.3915,74,80,0
178.49774,178.59149,65,80,0
178.59773,178.69148,77,80,0
178.79774,178.8915,65,80,0
178.89774,178.99149,77,80,0
179.09773,179.19148,64,80,0
179.19774,179.29149,76,80,0
179.39774,179.49149,64,80,0
179.49774,179.59149,76,80,0
179.69774,179.79149,67,80,0
179.79774,179.8915,79,80,0
179.99774,180.09149,67,80,0
180.09773,180.19148,79,81,0
180.29774,180.3915,65,83,0
180.39774,180.49149,77,84,0
180.59773,180.69148,67,85,0
180.69774,180.79149,79,86,0
180.89774,180.99149,66,88,0
180.99774,181.09149,78,89,0
181.19774,181.29149,69,90,0
181.29774,181.3915,81,91,0
181.49774,181.59149,67,93,0
181.59773,181.69148,79,94,0
181.79774,181.8915,70,95,0
181.89774,181.99149,82,96,0
182.09773,182.19148,69,98,0
182.19774,182.29149,81,99,0
182.39774,182.49149,72,80,0
182.49774,182.59149,84,80,0
182.69774,182.79149,70,80,0
182.79774,182.8915,82,80,0
182.99774,183.09149,74,80,0
183.09773,183.19148,86,80,0
183.29774,183.3915,67,80,0
183.39774,183.49149,79,80,0
183.59773,183.69148,67,80,0
183.69774,183.79149,79,80,0
183.89774,183.99149,64,80,0
183.99774,184.09149,76,80,0
184.19774,184.29149,66,80,0
184.29774,184.3915,78,80,0
184.49774,184.59149,69,80,0
184.59773,184.69148,81,80,0
184.79774,184.8915,69,80,0
184.89774,184.99149,81,80,0
185.09773,185.19148,66,80,0
185.19774,185.29149,78,80,0
185.39774,185.49149,67,80,0
185.49774,185.59149,79,80,0
185.69774,185.79149,70,80,0
185.79774,185.8915,82,80,0
185.99774,186.09149,70,80,0
186.09773,186.19148,82,80,0
186.29774,186.3915,68,80,0
186.39774,186.49149,80,80,0
186.59773,186.69148,69,80,0
186.69774,186.79149,81,80,0
186.89774,186.99149,72,80,0
186.99774,187.09149,84,80,0
187.19774,187.29149,72,81,0
187.29774,187.3915,84,82,0
187.49774,187.59149,70,85,0
187.59773,187.69148,82,86,0
187.79774,187.8915,72,89,0
187.89774,187.99149,84,90,0
188.09773,188.19148,71,93,0
188.19774,188.29149,83,94,0
188.39774,188.49149,74,96,0
188.49774,188.59149,86,98,0
188.69774,188.79149,72,100,0
188.79774,188.8915,84,102,0
188.99774,189.09149,75,104,0
189.09773,189.19148,87,106,0
189.29774,189.3915,74,108,0
189.39774,189.49149,86,109,0
189.59773,189.69148,77,120,0
189.69774,189.79149,89,120,0
189.89774,189.99149,75,120,0
189.99774,190.09149,87,120,0
190.19774,190.29149,77,120,0
190.29774,190.3915,89,120,0
190.49774,190.59149,76,120,0
190.59773,190.69148,88,120,0
190.79774,190.8915,77,120,0
190.89774,190.99149,89,120,0
191.09773,191.19148,72,120,0
191.19774,191.29149,84,120,0
191.39774,191.49149,77,120,0
191.49774,191.59149,89,120,0
191.69774,191.79149,75,120,0
191.79774,191.8915,87,120,0
191.99774,192.09149,75,80,0
192.09773,192.19148,87,80,0
192.29774,192.3915,74,80,0
192.39774,192.49149,86,80,0
192.59773,192.69148,77,80,0
192.69774,192.79149,89,80,0
192.89774,192.99149,70,80,0
192.99774,193.09149,82,80,0
193.19774,193.29149,70,80,0
193.29774,193.3915,82,80,0
193.49774,193.59149,68,80,0
193.59773,193.69148,80,80,0
193.79774,193.8915,69,80,0
193.89774,193.99149,81,80,0
194.09773,194.19148,72,80,0
194.19774,194.29149,84,80,0
194.39774,194.49149,72,80,0
194.49774,194.59149,84,81,0
194.69774,194.79149,69,83,0
194.79774,194.8915,81,84,0
194.99774,195.09149,70,86,0
195.09773,195.19148,82,86,0
195.29774,195.3915,74,88,0
195.39774,195.49149,86,89,0
195.59773,195.69148,74,91,0
195.69774,195.79149,86,92,0
195.89774,195.99149,71,93,0
195.99774,196.09149,83,94,0
196.19774,196.29149,72,96,0
196.29774,196.3915,84,97,0
196.49774,196.59149,75,99,0
196.59773,196.69148,87,99,0
196.80885,196.91301,86,80,0
196.91997,197.02412,87,80,0
197.03107,197.13524,89,80,0
197.14218,197.24635,87,80,0
197.2533,197.35747,86,80,0
197.47551,197.57968,86,80,0
197.58662,197.6908,87,80,0
197.69774,197.80191,89,80,0
197.80885,197.91301,87,80,0
197.91997,198.02412,86,80,0
198.14218,198.24635,86,80,0
198.2533,198.35747,87,80,0
198.36441,198.46857,89,80,0
198.47551,198.57968,87,80,0
198.58662,198.6908,86,80,0
198.69774,198.85745,88,80,0
198.86441,199.02412,89,80,0
199.03107,199.1908,86,80,0
199.19774,199.35745,82,80,0
199.47551,199.57968,81,80,0
199.58662,199.6908,82,80,0
199.69774,199.80191,84,80,0
199.80885,199.91301,82,80,0
199.91995,200.02412,81,80,0
200.14218,200.24635,81,80,0
200.2533,200.35745,82,80,0
200.3644,200.46857,84,80,0
200.47551,200.57968,82,80,0
200.58662,200.6908,81,80,0
200.80885,200.91301,81,80,0
200.91995,201.02412,82,80,0
201.03107,201.13524,84,80,0
201.14218,201.24635,82,80,0
201.2533,201.35745,81,80,0
201.3644,201.52412,87,80,0
201.53107,201.6908,84,80,0
201.69774,201.85745,81,80,0
201.8644,202.02412,75,80,0
202.03107,202.32481,82,80,0
202.03107,202.32481,77,80,0
202.03107,202.32481,73,80,0
202.03107,202.32481,70,80,0
202.63107,202.92482,77,85,0
202.63107,202.92482,73,85,0
202.63107,202.92482,65,85,0
202.63107,202.92482,70,85,0
203.23106,203.52481,73,90,0
203.23106,203.52481,70,90,0
203.23106,203.52481,65,90,0
203.23106,203.52481,61,90,0
204.43106,204.72482,75,110,0
204.43106,204.72482,69,110,0
204.43106,204.72482,65,110,0
204.43106,204.72482,63,110,0
205.03107,205.32481,69,110,0
205.03107,205.32481,72,110,0
205.03107,205.32481,63,110,0
205.03107,205.32481,65,110,0
205.63107,205.92482,69,110,0
205.63107,205.92482,65,110,0
205.63107,205.92482,63,110,0
205.63107,205.92482,60,110,0
206.93106,207.02481,70,80,0
207.03107,207.12482,72,80,0
207.13107,207.22482,73,80,0
207.23106,207.32481,72,80,0
207.33107,207.42482,70,80,0
207.53107,207.62482,70,80,0
207.63107,207.72482,72,80,0
207.73106,207.82481,73,80,0
207.83107,207.92482,72,80,0
207.93106,208.02481,70,80,0
208.13107,208.22482,70,80,0
208.23106,208.32481,72,80,0
208.33107,208.42482,73,80,0
208.43106,208.52481,72,80,0
208.53107,208.62482,70,80,0
208.63107,208.77481,82,80,0
208.78107,208.92482,77,80,0
208.93106,209.07481,85,80,0
209.08107,209.22482,77,80,0
209.33107,209.42482,76,80,0
209.43106,209.52481,77,80,0
209.53107,209.62482,79,80,0
209.63107,209.72482,77,80,0
209.73106,209.82481,76,80,0
209.93106,210.02481,76,80,0
210.03107,210.12482,77,80,0
210.13107,210.22482,79,80,0
210.23106,210.32481,77,80,0
210.33107,210.42482,76,80,0
210.53107,210.62482,76,80,0
210.63107,210.72482,77,80,0
210.73106,210.82481,79,80,0
210.83107,210.92482,77,80,0
210.93106,211.02481,76,80,0
211.03107,211.17482,82,80,0
211.18106,211.32481,79,80,0
211.33107,211.47482,76,80,0
211.48106,211.62482,70,80,0
211.73106,211.82481,68,80,0
211.83107,211.92482,70,81,0
211.93106,212.02481,72,82,0
212.03107,212.12482,70,83,0
212.13107,212.22482,68,84,0
212.33107,212.42482,68,86,0
212.43106,212.52481,70,87,0
212.53107,212.62482,72,87,0
212.63107,212.72482,70,88,0
212.73106,212.82481,68,89,0
212.93106,213.02481,68,91,0
213.03107,213.12482,70,92,0
213.13107,213.22482,72,93,0
213.23106,213.32481,70,94,0
213.33107,213.42482,68,95,0
213.43106,213.57481,77,95,0
213.58107,213.72482,68,97,0
213.73106,213.87482,80,98,0
213.88107,214.02481,68,99,0
214.13107,214.22482,77,110,0
214.23106,214.32481,79,110,0
214.33107,214.42482,80,110,0
214.43106,214.52481,79,110,0
214.53107,214.62482,77,110,0
214.73106,214.82481,77,110,0
214.83107,214.92482,79,110,0
214.93106,215.02481,80,110,0
215.03107,215.12482,79,110,0
215.13107,215.22482,77,110,0
215.33107,215.42482,77,110,0
215.43106,215.52481,79,110,0
215.53107,215.62482,80,110,0
215.63107,215.72482,79,110,0
215.73106,215.82481,77,110,0
215.83107,215.97482,80,110,0
215.98106,216.12482,77,110,0
216.13107,216.27481,89,110,0
216.28107,216.42482,77,110,0
216.53107,216.62482,77,120,0
216.63107,216.72482,79,120,0
216.73106,216.82481,80,120,0
216.83107,216.92482,79,120,0
216.93106,217.02481,77,120,0
217.03107,217.17482,86,120,0
217.18106,217.32481,77,120,0
217.33107,217.47482,86,120,0
217.48106,217.62482,77,120,0
217.73106,217.82481,77,120,0
217.83107,217.92482,79,120,0
217.93106,218.02481,80,120,0
218.03107,218.12482,79,120,0
218.13107,218.22482,77,120,0
218.23106,218.37482,86,120,0
218.38107,218.52481,77,120,0
218.53107,218.67482,86,120,0
218.68106,218.82481,77,120,0
218.93106,219.02481,77,120,0
219.03107,219.12482,79,120,0
219.13107,219.22482,81,120,0
219.23106,219.32481,79,120,0
219.33107,219.42482,77,120,0
219.43106,219.57481,86,110,0
219.58107,219.72482,77,108,0
219.73106,219.87482,86,105,0
219.88107,220.02481,77,102,0
220.03107,220.17482,86,100,0
220.18106,220.32481,77,97,0
220.33107,220.47482,86,94,0
220.48106,220.62482,77,91,0
220.63107,220.77481,86,89,0
220.78107,220.92482,77,86,0
220.93106,221.07481,86,83,0
221.08107,221.22482,77,81,0
221.38896,221.54028,76,80,0
221.54686,221.69817,86,80,0
221.70476,221.85606,76,80,0
221.86264,222.01396,86,80,0
222.02054,222.17186,76,80,0
222.17844,222.32976,86,80,0
222.33633,222.48764,76,80,0
222.66089,222.82062,76,70,0
222.82756,222.98727,85,70,0
222.99422,223.15395,76,70,0
223.16089,223.34058,85,70,0
223.34839,223.52808,76,70,0
223.53589,223.77547,85,70,0
223.78589,224.02547,76,70,0
226.1359,226.42964,62,80,0
226.1359,226.42964,66,80,0
226.43588,227.02963,69,80,0
226.43588,227.02963,66,80,0
226.43588,227.02963,62,80,0
227.33589,227.42964,81,80,0
227.43588,227.52963,80,80,0
227.53589,227.62964,83,80,0
227.6359,228.22964,81,80,0
228.53589,228.82964,66,80,0
228.53589,228.82964,62,80,0
228.83589,229.42964,67,80,0
228.83589,229.42964,64,80,0
229.73589,229.82964,81,80,0
229.83589,229.92964,80,80,0
229.93588,230.02963,83,80,0
230.03589,230.62964,81,80,0
230.93588,231.22964,67,80,0
231.23589,231.45464,66,80,0
231.46089,231.52963,69,80,0
231.53589,232.12964,74,80,0
232.1359,232.42964,73,80,0
232.43588,232.72964,74,80,0
232.73589,233.32964,78,80,0
233.33589,233.92964,76,80,0
233.93588,234.5451,78,80,0
234.55168,234.7114,79,80,0
234.71834,234.87807,81,80,0
234.88501,235.2522,81,80,0
235.26001,235.6272,79,80,0
236.38501,236.52876,79,80,0
236.46,236.60376,81,80,0
236.53502,236.67876,78,80,0
236.61002,236.67876,79,80,0
236.68501,237.27876,83,80,0
237.28502,237.42876,81,80,0
237.43501,237.57877,79,80,0
237.585,237.72876,78,80,0
237.66002,237.80376,79,80,0
237.73502,237.87877,81,80,0
237.81001,237.87877,79,80,0
237.88501,238.40376,78,80,0
238.41002,238.47876,76,80,0
238.48502,238.70377,79,80,0
238.71,238.77876,76,80,0
238.78502,239.07877,76,80,0
239.085,239.60376,74,80,0
239.61002,239.67876,73,80,0
239.68501,239.90376,76,80,0
239.91002,239.97876,73,80,0
239.98502,240.57877,74,80,0
242.085,242.37877,69,70,0
242.085,242.37877,66,70,0
242.38501,242.97876,70,70,0
242.38501,242.97876,67,70,0
243.28502,243.37877,82,70,0
243.38501,243.47876,81,70,0
243.48502,243.57877,84,70,0
243.585,244.17876,82,70,0
244.48502,244.77876,67,70,0
244.48502,244.77876,70,70,0
244.78502,245.37877,70,70,0
244.78502,245.37877,64,70,0
245.68501,245.77876,82,70,0
245.78502,245.87877,81,70,0
245.88501,245.97876,84,70,0
245.98502,246.57877,82,70,0
246.88501,246.97876,82,70,0
246.98502,247.07877,81,70,0
247.085,247.17876,84,70,0
247.18501,247.5114,82,70,0
247.51834,247.62251,82,70,0
247.62946,247.73363,81,70,0
247.74057,247.84473,84,70,0
247.85168,248.21887,82,70,0
248.22668,248.36061,82,70,0
248.36954,248.50346,81,70,0
248.51239,248.64632,84,70,0
248.65524,249.50346,82,70,0
249.94096,250.36061,70,80,0
250.36954,250.58829,69,80,0
250.59453,250.66328,72,81,0
250.66953,251.26328,77,82,0
251.26953,251.56328,76,87,0
251.56953,251.86328,77,89,0
251.86954,252.46329,81,92,0
252.46953,253.06328,79,97,0
253.06953,253.69592,81,100,0
253.70287,253.88255,82,96,0
253.89037,254.07005,84,94,0
254.07787,254.44505,84,93,0
254.45287,254.82005,82,91,0
255.57787,255.72919,82,80,0
255.65681,255.80812,84,80,0
255.73576,255.88707,81,80,0
255.81471,255.96602,82,80,0
255.89366,256.51865,86,80,0
256.52524,256.67654,84,80,0
256.68314,256.83444,82,80,0
256.84103,256.99234,81,80,0
256.91998,257.0713,82,80,0
256.9989,257.15024,84,80,0
257.07785,257.2292,82,80,0
257.1568,257.70285,81,80,0
257.70944,257.7818,79,80,0
257.7884,258.01865,82,80,0
258.02524,258.0976,79,80,0
258.1042,258.4134,79,80,0
258.41995,258.966,77,80,0
258.9726,259.04495,76,80,0
259.05154,259.2818,79,80,0
259.2884,259.36075,76,80,0
259.36734,259.97687,77,80,0
260.2831,260.57687,65,87,0
260.2831,260.57687,53,87,0
260.58313,261.17688,69,89,0
260.58313,261.17688,65,89,0
260.58313,261.17688,60,89,0
260.58313,261.17688,57,89,0
261.18314,261.7769,72,94,0
261.18314,261.7769,69,94,0
261.18314,261.7769,65,94,0
261.18314,261.7769,60,94,0
261.7831,262.67688,77,99,0
261.7831,262.67688,72,99,0
261.7831,262.67688,69,99,0
261.7831,262.67688,65,99,0
262.68314,262.97687,81,106,0
262.68314,262.97687,77,106,0
262.68314,262.97687,72,106,0
262.68314,262.97687,69,106,0
262.98312,263.2769,84,108,0
262.98312,263.2769,81,108,0
262.98312,263.2769,77,108,0
262.98312,263.2769,72,108,0
263.2831,263.87686,89,110,0
263.2831,263.87686,84,110,0
263.2831,263.87686,81,110,0
263.2831,263.87686,77,110,0
263.88312,264.17688,89,110,0
263.88312,264.17688,84,110,0
263.88312,264.17688,81,110,0
263.88312,264.17688,77,110,0
264.18314,264.7769,89,100,0
264.18314,264.7769,77,100,0
264.18314,265.07687,84,100,0
264.18314,265.07687,82,100,0
264.7831,265.07687,88,89,0
264.7831,265.07687,76,89,0
265.38312,265.97687,64,80,0
265.38312,265.97687,58,80,0
265.38312,265.97687,55,80,0
265.38312,265.97687,52,80,0
265.98312,266.57687,67,84,0
265.98312,266.57687,64,84,0
265.98312,266.57687,58,84,0
265.98312,266.57687,55,84,0
266.58313,267.47687,70,89,0
266.58313,267.47687,64,89,0
266.58313,267.47687,58,89,0
266.58313,267.47687,67,89,0
267.48312,267.7769,76,96,0
267.48312,267.7769,64,96,0
267.7831,268.07687,67,98,0
267.7831,268.07687,79,98,0
268.08313,268.67688,70,110,0
268.08313,268.67688,82,110,0
268.68314,268.97687,69,110,0
268.68314,268.97687,81,110,0
268.98312,269.57687,79,100,0
268.98312,269.57687,67,100,0
269.58313,269.87686,65,89,0
269.58313,269.87686,77,89,0
270.18314,270.32687,65,80,0
270.33313,270.47687,68,80,0
270.48312,270.62686,60,80,0
270.63312,270.7769,64,80,0
270.7831,270.92688,65,80,0
270.93314,271.07687,68,80,0
271.08313,271.22687,60,80,0
271.23312,271.37686,64,80,0
271.38312,271.5269,65,80,0
271.5331,271.67688,68,80,0
271.68314,271.82687,60,80,0
271.83313,271.97687,64,80,0
271.98312,272.12686,65,80,0
272.13312,272.2769,68,80,0
272.2831,272.42688,60,80,0
272.43314,272.57687,64,80,0
272.58313,272.72687,65,80,0
272.73312,272.87686,68,80,0
272.88312,273.0269,60,80,0
273.0331,273.17688,64,80,0
273.18314,273.32687,65,80,0
273.33313,273.47687,67,80,0
273.48312,273.62686,68,80,0
273.63312,273.7769,65,80,0
273.7831,273.92688,67,80,0
273.93314,274.07687,70,80,0
274.08313,274.22687,63,80,0
274.23312,274.37686,66,80,0
274.38312,274.5269,67,80,0
274.5331,274.67688,70,80,0
274.68314,274.82687,63,80,0
274.83313,274.97687,66,80,0
274.98312,275.12686,67,80,0
275.13312,275.2769,70,80,0
275.2831,275.42688,63,80,0
275.43314,275.57687,66,80,0
275.58313,275.72687,67,80,0
275.73312,275.87686,70,80,0
275.88312,276.0269,63,80,0
276.0331,276.17688,66,80,0
276.18314,276.32687,67,80,0
276.33313,276.47687,70,80,0
276.48312,276.62686,63,80,0
276.63312,276.7769,66,80,0
276.7831,276.92688,67,80,0
276.93314,277.07687,70,80,0
277.08313,277.22687,63,80,0
277.23312,277.37686,66,80,0
277.38312,277.5269,67,80,0
277.5331,277.67688,70,80,0
277.68314,277.82687,63,80,0
277.83313,277.97687,66,80,0
277.98312,278.12686,67,80,0
278.13312,278.2769,70,80,0
278.2831,278.42688,63,80,0
278.43314,278.57687,67,80,0
278.58313,278.72687,68,80,0
278.73312,278.87686,72,80,0
278.88312,279.0269,63,80,0
279.0331,279.17688,67,80,0
279.18314,279.32687,69,80,0
279.33313,279.47687,72,80,0
279.48312,279.62686,65,80,0
279.63312,279.7769,69,80,0
279.7831,279.92688,70,80,0
279.93314,280.07687,77,80,0
280.08313,280.22687,65,80,0
280.23312,280.37686,69,80,0
280.38312,280.5269,71,80,0
280.5331,280.67688,67,80,0
280.68314,280.82687,77,80,0
280.83313,280.97687,71,80,0
280.98312,281.57687,72,80,0
281.88312,282.17688,89,80,0
282.18314,282.47687,89,80,0
282.48312,282.7769,88,80,0
283.08313,283.37686,77,80,0
283.08313,283.37686,83,80,0
283.38312,283.67688,77,80,0
283.38312,283.97687,84,80,0
283.68314,283.97687,76,80,0
284.2831,284.57687,89,101,0
284.58313,284.72687,89,80,0
284.73312,284.87686,88,80,0
284.88312,285.0269,86,80,0
285.0331,285.17688,84,80,0
285.48312,285.7769,77,100,0
285.48312,285.7769,83,100,0
285.7831,285.92688,77,80,0
285.93314,286.07687,76,80,0
286.08313,286.22687,74,80,0
285.7831,286.37686,84,80,0
286.23312,286.37686,72,80,0
286.68314,286.97687,77,100,0
286.68314,286.97687,83,100,0
286.98312,287.12686,77,80,0
287.13312,287.2769,76,80,0
287.2831,287.42688,74,80,0
286.98312,287.57687,84,80,0
287.43314,287.57687,72,80,0
287.88312,288.17688,77,100,0
287.88312,288.17688,83,100,0
288.18314,288.32687,77,80,0
288.33313,288.47687,76,80,0
288.48312,288.62686,74,80,0
288.18314,288.7769,84,80,0
288.63312,288.7769,72,80,0
288.7831,288.92688,71,80,0
288.93314,289.07687,72,80,0
289.08313,289.22687,74,80,0
289.23312,289.37686,72,80,0
289.38312,289.53442,71,80,0
289.54102,289.69232,72,80,0
289.6989,289.85022,74,80,0
289.8568,290.00812,72,80,0
290.0147,290.1744,71,80,0
290.18137,290.3411,72,80,0
290.34802,290.5277,73,80,0
290.53552,290.7152,74,80,0
290.72302,291.0494,74,80,0
291.05637,291.38275,70,80,0
291.3897,291.7161,67,80,0
291.72302,291.88275,70,80,0
291.80637,291.9661,69,80,0
291.8897,292.0494,67,80,0
291.97302,292.0494,69,80,0
292.05637,292.38275,74,80,0
292.3897,292.7161,70,80,0
292.72302,293.0494,67,80,0
293.05637,293.2161,70,80,0
293.1397,293.2994,69,80,0
293.22302,293.38275,67,80,0
293.30637,293.38275,69,80,0
293.3897,293.7161,70,80,0
293.3897,293.7161,67,80,0
293.3897,293.7161,62,80,0
294.05637,294.38275,67,80,0
294.05637,294.38275,64,80,0
294.05637,294.38275,60,80,0
294.72302,295.38275,69,80,0
294.72302,295.38275,65,80,0
294.72302,295.38275,60,80,0
295.79803,295.94177,84,120,0
295.87302,296.01678,80,120,0
295.94803,296.09177,72,120,0
296.09802,296.2418,85,120,0
296.17303,296.31677,82,120,0
296.24802,296.39178,72,120,0
296.39804,296.54178,82,120,0
296.47302,296.6168,79,120,0
296.54803,296.69177,72,120,0
296.69803,296.84177,79,120,0
296.77304,296.91678,76,120,0
296.84802,296.9918,72,120,0
296.99802,297.14178,80,120,0
297.07303,297.21677,77,120,0
297.14804,297.29178,72,120,0
297.29803,297.44177,85,120,0
297.37302,297.51678,82,120,0
297.44803,297.59177,72,120,0
297.59802,297.7418,82,120,0
297.67303,297.81677,79,120,0
297.74802,297.89178,72,120,0
297.89804,298.04178,79,120,0
297.97302,298.1168,76,120,0
298.04803,298.19177,72,120,0
298.19803,298.34177,80,120,0
298.27304,298.41678,77,120,0
298.34802,298.41678,72,120,0
298.42303,298.71677,82,110,0
298.42303,298.71677,79,110,0
298.42303,298.71677,73,110,0
299.02304,299.31677,79,110,0
299.02304,299.31677,76,110,0
299.02304,299.31677,70,110,0
299.62302,299.96863,77,110,0
299.62302,299.96863,73,110,0
299.62302,299.96863,68,110,0
301.0348,301.38037,65,70,0
301.0348,301.38037,62,70,0
301.0348,301.38037,56,70,0
302.62302,302.94324,64,80,0
302.62302,302.94324,55,80,0
302.9495,303.24326,67,82,0
302.9495,303.24326,58,82,0
303.2495,303.54324,65,84,0
303.2495,303.54324,57,84,0
303.5495,303.84326,65,86,0
303.5495,303.84326,69,86,0
303.8495,304.14325,70,88,0
303.8495,304.14325,64,88,0
304.1495,304.44324,76,90,0
304.1495,304.44324,70,90,0
304.4495,304.74326,77,92,0
304.4495,304.74326,69,92,0
304.7495,305.04324,77,94,0
304.7495,305.04324,81,94,0
305.0495,305.34326,76,96,0
305.0495,305.34326,82,96,0
305.3495,305.64325,76,98,0
305.3495,305.64325,79,98,0
305.3495,305.64325,84,98,0
305.6495,305.94324,77,100,0
305.6495,305.94324,81,100,0
305.6495,305.94324,84,100,0
305.9495,306.24326,81,102,0
305.9495,306.24326,84,102,0
305.9495,306.24326,89,102,0
306.2495,306.54324,79,104,0
306.2495,306.54324,84,104,0
306.2495,306.54324,88,104,0
306.5495,306.84326,76,106,0
306.5495,306.84326,79,106,0
306.5495,306.84326,84,106,0
306.8495,307.14325,77,108,0
306.8495,307.14325,81,108,0
306.8495,307.14325,84,108,0
307.1495,307.29324,81,109,0
307.1495,307.29324,84,109,0
307.1495,307.29324,89,109,0
307.5995,307.69324,86,110,0
307.6995,307.79324,85,110,0
307.7995,307.89325,88,110,0
307.8995,308.19324,86,110,0
308.1995,308.29324,82,110,0
308.2995,308.39325,81,110,0
308.3995,308.49326,84,110,0
308.4995,308.79324,82,110,0
308.7995,308.89325,79,110,0
308.8995,308.99326,78,110,0
308.9995,309.09326,81,110,0
309.0995,309.39325,79,110,0
309.3995,309.49326,74,110,0
309.4995,309.59326,73,110,0
309.5995,309.69324,76,110,0
309.6995,309.99326,74,110,0
309.9995,310.59326,67,110,0
310.5995,310.74326,69,110,0
310.7495,310.89325,70,110,0
310.8995,311.59326,72,110,0
311.5995,311.69324,74,110,0
311.6995,311.79324,72,110,0
311.7995,311.89325,70,110,0
311.8995,311.99326,69,110,0
311.9995,312.09326,67,110,0
312.0995,312.39325,65,110,0
312.3995,312.99326,79,120,0
312.9995,313.14325,81,120,0
312.3995,313.29324,77,120,0
313.1495,313.29324,83,120,0
313.2995,313.96826,84,120,0
313.9745,314.04324,86,110,0
314.0495,314.11826,84,109,0
314.1245,314.19324,83,108,0
314.1995,314.29324,84,108,0
314.2995,314.39325,86,107,0
314.3995,314.49326,88,106,0
314.4995,314.79324,89,105,0
315.0995,315.39325,72,80,0
315.0995,315.39325,84,80,0
315.3995,315.69324,84,80,0
315.3995,315.69324,72,80,0
315.6995,315.99326,81,80,0
315.6995,315.99326,69,80,0
316.2995,316.59326,77,80,0
316.2995,316.59326,89,80,0
316.5995,316.89325,77,80,0
316.5995,316.89325,89,80,0
316.8995,317.19324,86,80,0
316.8995,317.19324,74,80,0
317.4995,317.79324,47,100,0
317.7995,318.09326,47,100,0
318.0995,318.24326,47,100,0
318.1745,318.31824,48,100,0
318.2495,318.39325,50,100,0
318.3245,318.46826,48,100,0
318.3995,318.54324,50,100,0
318.4745,318.61826,48,100,0
318.5495,318.69324,50,100,0
318.6245,318.76825,48,100,0
318.6995,318.84326,50,100,0
318.7745,318.91824,48,100,0
318.8495,318.99326,50,100,0
318.9245,319.06824,48,100,0
318.9995,319.14325,50,100,0
319.0745,319.21826,48,100,0
319.1495,319.29324,47,100,0
319.2245,319.29324,48,100,0
319.2995,319.89325,41,100,0
319.8995,319.96826,72,80,0
319.9745,320.19324,84,80,0
320.1995,320.26825,72,80,0
320.2745,320.49326,84,80,0
320.4995,320.56824,69,80,0
320.5745,320.79324,81,80,0
321.0995,321.16824,77,80,0
321.1745,321.39325,89,80,0
321.3995,321.46826,77,80,0
321.4745,321.69324,89,80,0
321.6995,321.76825,74,80,0
321.7745,321.99326,86,80,0
322.2995,322.59326,47,100,0
322.5995,322.89325,47,100,0
322.8995,323.04324,47,100,0
322.9745,323.11826,48,100,0
323.0495,323.19324,50,100,0
323.1245,323.26825,48,100,0
323.1995,323.34326,50,100,0
323.2745,323.41824,48,100,0
323.3495,323.49326,50,100,0
323.4245,323.56824,48,100,0
323.4995,323.64325,50,100,0
323.5745,323.71826,48,100,0
323.6495,323.79324,50,100,0
323.7245,323.86826,48,100,0
323.7995,323.94324,50,100,0
323.8745,324.01825,48,100,0
323.9495,324.09326,47,100,0
324.0245,324.09326,48,100,0
324.0995,324.69324,41,100,0
324.6995,324.99326,83,120,0
324.9995,325.29324,83,120,0
325.2995,325.44324,83,120,0
325.3745,325.51825,84,120,0
325.4495,325.59326,86,120,0
325.5245,325.66824,84,121,0
325.5995,325.74326,86,121,0
325.6745,325.81824,84,121,0
325.7495,325.89325,86,121,0
325.8245,325.96826,84,121,0
325.8995,326.04324,86,121,0
325.9745,326.11826,84,121,0
326.0495,326.19324,86,121,0
326.1245,326.26825,84,121,0
326.1995,326.34326,86,121,0
326.2745,326.41824,84,121,0
326.3495,326.49326,83,122,0
326.4245,326.49326,84,122,0
326.4995,327.09326,77,122,0
326.4995,327.09326,89,122,0
327.0995,327.39325,71,122,0
327.3995,327.69324,71,123,0
327.6995,327.84326,71,123,0
327.7745,327.91824,72,123,0
327.8495,327.99326,74,123,0
327.9245,328.06824,72,123,0
327.9995,328.14325,74,123,0
328.0745,328.21826,72,124,0
328.1495,328.29324,74,124,0
328.2245,328.36826,72,124,0
328.2995,328.44324,74,124,0
328.3745,328.51825,72,124,0
328.4495,328.59326,74,124,0
328.5245,328.66824,72,124,0
328.5995,328.74326,74,124,0
328.6745,328.81824,72,124,0
328.7495,328.89325,71,124,0
328.8245,328.89325,72,124,0
328.8995,329.2259,65,120,0
328.8995,329.2259,77,120,0
329.56616,329.93335,72,120,0
329.56616,329.93335,60,120,0
330.31616,331.05835,65,120,0
330.31616,331.05835,53,120,0
332.19116,332.55835,65,1,0
0.3,0.59375,53,80,0
0.3,0.59375,48,80,0
0.3,0.59375,41,80,0
0.6,1.19375,53,80,0
0.6,1.19375,48,80,0
0.6,1.19375,41,80,0
2.7,2.99375,53,80,0
2.7,2.99375,48,80,0
2.7,2.99375,41,80,0
3.0,3.59375,52,80,0
3.0,3.59375,48,80,0
3.0,3.59375,40,80,0
5.4,5.99375,60,80,0
5.4,5.99375,57,80,0
5.4,5.99375,53,80,0
6.0,6.59375,60,87,0
6.0,6.59375,58,87,0
6.0,6.59375,55,87,0
6.6,7.19375,60,95,0
6.6,7.19375,57,95,0
6.6,7.19375,65,95,0
7.2,7.79375,67,90,0
7.2,7.79375,65,90,0
7.2,7.79375,62,90,0
7.2,7.79375,58,90,0
7.8,8.39375,69,90,0
7.8,8.39375,65,90,0
7.8,8.39375,60,90,0
8.4,9.104688,63,80,0
8.4,9.104688,65,80,0
8.4,9.104688,69,80,0
8.4,9.104688,72,80,0
9.1125,9.854688,70,80,0
9.1125,9.854688,65,80,0
9.1125,9.854688,62,80,0
10.6125,11.20625,62,80,0
10.6125,11.20625,65,80,0
10.6125,11.20625,70,80,0
11.2125,11.80625,64,80,0
11.2125,11.80625,67,80,0
11.2125,11.80625,72,80,0
11.8125,12.40625,65,80,0
11.8125,12.40625,69,80,0
11.8125,12.40625,72,80,0
12.4125,13.00625,58,80,0
12.4125,13.00625,62,80,0
12.4125,13.00625,67,80,0
13.0125,13.60625,60,80,0
13.0125,13.60625,65,80,0
13.0125,13.60625,69,80,0
13.6125,14.20625,60,80,0
13.6125,14.20625,67,80,0
13.6125,14.20625,70,80,0
14.2125,14.80625,65,80,0
14.2125,14.80625,69,80,0
15.1125,15.40625,48,80,0
15.1125,15.40625,41,80,0
15.1125,15.40625,53,80,0
15.4125,16.00625,53,80,0
15.4125,16.00625,48,80,0
15.4125,16.00625,41,80,0
17.5125,17.80625,51,80,0
17.5125,17.80625,48,80,0
17.5125,17.80625,41,80,0
17.8125,18.40625,51,80,0
17.8125,18.40625,48,80,0
17.8125,18.40625,41,80,0
19.9125,20.00625,57,110,0
20.0125,20.10625,59,110,0
19.9125,20.20625,53,110,0
20.1125,20.20625,60,110,0
20.2125,20.50625,56,110,0
20.2125,20.50625,52,110,0
20.5125,20.60625,57,110,0
20.6125,20.70625,59,110,0
20.5125,20.80625,53,110,0
20.7125,20.80625,60,110,0
20.8125,21.10625,56,110,0
20.8125,21.10625,52,110,0
21.1125,21.20625,57,110,0
21.2125,21.30625,59,110,0
21.1125,21.40625,53,110,0
21.3125,21.40625,60,110,0
21.4125,22.00625,56,110,0
21.4125,22.00625,52,110,0
22.3125,22.45625,43,80,0
22.4625,22.60625,47,80,0
22.6125,22.75625,48,80,0
22.7625,22.90625,52,81,0
22.9125,23.05625,43,82,0
23.0625,23.20625,47,83,0
23.2125,23.35625,48,84,0
23.3625,23.50625,52,85,0
23.5125,23.65625,43,87,0
23.6625,23.80625,47,88,0
23.8125,23.95625,48,89,0
23.9625,24.10625,52,90,0
24.1125,24.25625,43,91,0
24.2625,24.40625,47,92,0
24.4125,24.55625,48,94,0
24.5625,24.70625,52,95,0
24.7125,24.85625,43,96,0
24.8625,25.00625,47,97,0
25.0125,25.15625,48,98,0
25.1625,25.30625,52,99,0
25.3125,25.45625,43,110,0
25.4625,25.60625,47,110,0
25.6125,25.75625,48,110,0
25.7625,25.90625,52,110,0
25.9125,26.05625,43,110,0
26.0625,26.20625,48,100,0
26.2125,26.35625,50,98,0
26.3625,26.50625,53,96,0
26.5125,26.65625,43,93,0
26.6625,26.80625,49,91,0
26.8125,26.95625,50,88,0
26.9625,27.10625,53,86,0
27.1125,27.25625,43,83,0
27.2625,27.40625,49,81,0
27.4125,27.55625,50,80,0
27.5625,27.70625,53,81,0
27.7125,27.85625,43,82,0
27.8625,28.00625,49,83,0
28.0125,28.15625,50,84,0
28.1625,28.30625,53,85,0
28.3125,28.45625,43,87,0
28.4625,28.60625,49,88,0
28.6125,28.75625,50,89,0
28.7625,28.90625,53,90,0
28.9125,29.05625,43,91,0
29.0625,29.20625,49,92,0
29.2125,29.35625,50,94,0
29.3625,29.50625,53,95,0
29.5125,29.65625,43,96,0
29.6625,29.80625,49,97,0
29.8125,29.95625,50,98,0
29.9625,30.10625,53,99,0
30.1125,30.25625,43,110,0
30.2625,30.40625,49,110,0
30.4125,30.55625,50,110,0
30.5625,30.70625,53,110,0
30.7125,30.85625,43,110,0
30.8625,31.00625,50,110,0
31.0125,31.15625,52,100,0
31.1625,31.30625,55,98,0
31.3125,31.45625,48,95,0
31.4625,31.60625,51,92,0
31.6125,31.75625,52,89,0
31.7625,31.90625,55,86,0
31.9125,32.05625,52,83,0
32.0625,32.20625,50,81,0
32.2125,32.35625,48,120,0
32.3625,32.50625,60,120,0
32.5125,32.65625,64,120,0
32.6625,32.80625,62,120,0
32.8125,32.95625,60,120,0
32.9625,33.10625,64,120,0
33.1125,33.25625,60,120,0
33.2625,33.40625,59,120,0
33.4125,33.55625,57,120,0
33.5625,33.70625,60,120,0
33.7125,33.85625,57,120,0
33.8625,34.00625,55,120,0
34.0125,34.15625,54,120,0
34.1625,34.30625,57,120,0
34.3125,34.45625,54,120,0
34.4625,34.60625,52,120,0
34.6125,34.75625,50,120,0
34.7625,34.90625,52,120,0
34.9125,35.05625,54,120,0
35.0625,35.20625,55,120,0
35.2125,35.35625,57,120,0
35.3625,35.50625,50,120,0
35.5125,35.65625,52,120,0
35.6625,35.80625,54,120,0
35.9125,36.00625,59,120,0
36.0125,36.10625,62,120,0
36.1125,36.20625,59,120,0
36.2125,36.30625,62,120,0
35.8125,36.40625,55,120,0
36.3125,36.40625,59,120,0
36.5125,36.60625,60,120,0
36.6125,36.70625,62,120,0
36.7125,36.80625,60,100,0
36.8125,36.90625,62,100,0
36.4125,37.00625,55,120,0
36.9125,37.00625,60,100,0
37.1125,37.20625,59,100,0
37.2125,37.30625,62,100,0
37.3125,37.40625,59,100,0
37.4125,37.50625,62,100,0
37.0125,37.60625,55,100,0
37.5125,37.60625,59,100,0
37.7125,37.80625,57,100,0
37.8125,37.90625,62,100,0
37.9125,38.00625,57,100,0
38.0125,38.10625,62,100,0
37.6125,38.20625,54,100,0
38.1125,38.20625,57,100,0
38.3125,38.40625,59,100,0
38.4125,38.50625,62,100,0
38.5125,38.60625,59,100,0
38.6125,38.70625,62,100,0
38.2125,38.80625,55,100,0
38.7125,38.80625,59,100,0
38.9125,39.00625,60,100,0
39.0125,39.10625,62,100,0
39.1125,39.20625,60,100,0
39.2125,39.30625,62,100,0
38.8125,39.40625,55,100,0
39.3125,39.40625,60,100,0
39.5125,39.60625,59,100,0
39.6125,39.70625,62,100,0
39.7125,39.80625,59,100,0
39.8125,39.90625,62,100,0
39.4125,40.00625,55,100,0
39.9125,40.00625,59,100,0
40.1125,40.20625,57,100,0
40.2125,40.30625,62,100,0
40.3125,40.40625,57,100,0
40.4125,40.50625,62,100,0
40.0125,40.60625,54,100,0
40.5125,40.60625,57,100,0
40.7125,40.80625,59,100,0
40.8125,40.90625,62,100,0
40.9125,41.00625,59,100,0
41.0125,41.10625,62,100,0
40.6125,41.20625,55,100,0
41.1125,41.20625,59,100,0
41.3125,41.40625,57,100,0
41.4125,41.50625,62,100,0
41.5125,41.60625,57,100,0
41.6125,41.70625,62,100,0
41.2125,41.80625,54,100,0
41.7125,41.80625,57,100,0
41.9125,42.00625,59,100,0
42.0125,42.10625,62,100,0
42.1125,42.20625,59,100,0
42.2125,42.30625,62,100,0
41.8125,42.40625,55,100,0
42.3125,42.40625,59,100,0
42.5125,42.60625,57,100,0
42.6125,42.70625,62,100,0
42.7125,42.80625,57,100,0
42.8125,42.90625,62,100,0
42.4125,43.00625,54,100,0
42.9125,43.00625,57,100,0
43.0125,43.30625,62,80,0
43.0125,43.30625,59,80,0
43.0125,43.30625,55,80,0
45.530354,45.87594,65,80,0
45.530354,46.192505,67,80,0
45.883293,46.192505,62,80,0
46.19908,46.508293,67,80,0
46.19908,46.508293,59,80,0
46.51487,46.82408,67,80,0
46.51487,46.82408,60,80,0
46.83066,47.13987,65,80,0
46.83066,47.455658,67,80,0
47.14645,47.455658,62,80,0
47.46224,47.771446,67,80,0
47.46224,47.771446,59,80,0
47.778027,48.08724,67,80,0
47.778027,48.08724,60,80,0
48.093815,48.403027,65,80,0
48.093815,48.403027,53,80,0
48.725395,49.034603,55,80,0
48.725395,49.034603,59,80,0
48.725395,49.034603,62,80,0
49.35697,50.09916,60,80,0
49.35697,50.09916,55,80,0
49.35697,50.09916,52,80,0
49.35697,50.09916,48,80,0
50.48197,50.84916,64,120,0
50.48197,50.84916,67,120,0
50.85697,51.150723,65,120,0
50.85697,51.150723,68,120,0
51.15697,51.45072,62,120,0
51.15697,51.45072,65,120,0
51.45697,51.75072,59,120,0
51.45697,51.75072,62,120,0
51.756973,52.05072,60,120,0
51.756973,52.05072,63,120,0
52.056973,52.350723,65,120,0
52.056973,52.350723,68,120,0
52.35697,52.650723,62,120,0
52.35697,52.650723,65,120,0
52.65697,52.95072,59,120,0
52.65697,52.95072,62,120,0
52.95697,53.25072,60,120,0
52.95697,53.25072,63,120,0
53.256973,53.58336,62,100,0
53.256973,53.58336,56,100,0
53.256973,53.58336,53,100,0
53.923637,54.250027,62,100,0
53.923637,54.250027,59,100,0
53.923637,54.250027,55,100,0
54.590305,54.91669,60,100,0
54.590305,54.91669,56,100,0
55.923637,56.250023,60,70,0
55.923637,56.250023,57,70,0
55.923637,56.250023,54,70,0
57.25697,57.583355,55,80,0
57.25697,57.583355,53,80,0
57.5903,57.884052,55,81,0
57.5903,57.884052,47,81,0
57.8903,58.18405,48,82,0
57.8903,58.18405,55,82,0
58.1903,58.48405,55,83,0
58.1903,58.48405,43,83,0
58.4903,58.78405,55,85,0
58.4903,58.78405,50,85,0
58.790302,59.08405,55,86,0
58.790302,59.08405,43,86,0
59.0903,59.384052,55,87,0
59.0903,59.384052,48,87,0
59.3903,59.68405,55,89,0
59.3903,59.68405,43,89,0
59.6903,59.98405,55,90,0
59.6903,59.98405,50,90,0
59.9903,60.28405,55,91,0
59.9903,60.28405,53,91,0
60.290302,60.58405,55,92,0
60.290302,60.58405,52,92,0
60.5903,60.884052,55,94,0
60.5903,60.884052,48,94,0
60.8903,61.18405,55,95,0
60.8903,61.18405,50,95,0
61.1903,61.48405,55,96,0
61.1903,61.48405,53,96,0
61.4903,61.78405,55,98,0
61.4903,61.78405,52,98,0
61.790302,62.08405,55,99,0
61.790302,62.08405,48,99,0
62.0903,62.384052,50,110,0
62.0903,62.384052,45,110,0
62.0903,62.384052,41,110,0
62.6903,62.98405,62,110,0
62.6903,62.98405,57,110,0
62.6903,62.98405,53,110,0
64.7903,65.38405,62,110,0
65.390305,65.53405,64,110,0
65.5403,65.68405,65,110,0
65.6903,66.28405,67,110,0
66.2903,66.88405,55,110,0
66.2903,66.88405,59,110,0
66.2903,66.88405,62,110,0
66.2903,66.88405,65,110,0
66.890305,66.984055,60,110,0
66.9903,67.08405,64,110,0
67.0903,67.18405,67,110,0
67.1903,67.28405,60,110,0
67.2903,67.38405,64,110,0
67.390305,67.484055,67,110,0
67.4903,67.58405,60,80,0
67.5903,67.68405,64,80,0
67.6903,67.78405,67,80,0
67.7903,67.88405,60,80,0
67.890305,67.984055,64,80,0
67.9903,68.08405,67,80,0
68.0903,68.18405,60,80,0
68.1903,68.28405,64,80,0
68.2903,68.38405,67,80,0
68.390305,68.484055,60,80,0
68.4903,68.58405,64,80,0
68.5903,68.68405,67,80,0
68.6903,68.78405,60,80,0
68.7903,68.88405,64,80,0
68.890305,68.984055,67,80,0
68.9903,69.08405,60,80,0
69.0903,69.18405,64,80,0
69.1903,69.28405,67,80,0
69.2903,69.38405,57,80,0
69.2903,69.38405,53,80,0
69.390305,69.484055,60,80,0
69.4903,69.58405,62,80,0
69.5903,69.68405,57,80,0
69.5903,69.68405,53,80,0
69.6903,69.78405,60,80,0
69.7903,69.88405,62,80,0
69.890305,69.984055,54,110,0
69.890305,69.984055,57,110,0
69.9903,70.08405,60,110,0
70.0903,70.18405,62,110,0
70.1903,70.28405,54,110,0
70.1903,70.28405,57,110,0
70.2903,70.38405,60,110,0
70.390305,70.484055,62,110,0
70.4903,70.58405,55,110,0
70.5903,70.68405,60,110,0
70.6903,70.78405,64,110,0
70.7903,70.88405,55,110,0
70.890305,70.984055,60,110,0
70.9903,71.08405,64,110,0
71.0903,71.18405,55,110,0
71.1903,71.28405,59,110,0
71.2903,71.38405,62,110,0
71.390305,71.484055,55,110,0
71.4903,71.58405,59,110,0
71.5903,71.68405,62,110,0
71.6903,71.75905,48,110,0
71.765305,71.83405,52,110,0
71.8403,71.90905,55,110,0
71.9153,71.984055,60,110,0
71.9903,72.05905,48,110,0
72.0653,72.13405,52,110,0
72.140305,72.20905,55,110,0
72.2153,72.28405,60,80,0
72.2903,72.359055,48,80,0
72.3653,72.43405,52,80,0
72.4403,72.50905,55,80,0
72.515305,72.58405,60,80,0
72.5903,72.65905,48,80,0
72.6653,72.734055,52,80,0
72.7403,72.80905,55,80,0
72.8153,72.88405,60,80,0
72.890305,72.95905,48,80,0
72.9653,73.03405,52,80,0
73.0403,73.109055,55,80,0
73.1153,73.18405,60,80,0
73.1903,73.25905,48,80,0
73.265305,73.33405,52,80,0
73.3403,73.40905,55,80,0
73.4153,73.484055,60,80,0
73.4903,73.58405,52,80,0
73.5903,73.68405,55,80,0
73.6903,73.78405,60,80,0
73.7903,73.88405,52,80,0
73.890305,73.984055,55,80,0
73.9903,74.08405,60,80,0
74.0903,74.234055,53,80,0
74.1653,74.2903,57,80,0
74.2403,74.38405,60,80,0
74.3153,74.45905,62,80,0
74.390305,74.5278,53,80,0
74.4653,74.609055,57,80,0
74.5403,74.6778,60,80,0
74.6153,74.7528,62,110,0
74.6903,74.82155,54,110,0
74.765305,74.89655,57,110,0
74.8403,74.9653,60,110,0
74.9153,75.0403,62,110,0
74.9903,75.1278,54,110,0
75.0653,75.202805,57,111,0
75.140305,75.265305,60,111,0
75.2153,75.34655,62,111,0
75.2903,75.4403,55,111,0
75.390305,75.546555,60,111,0
75.4903,75.63405,64,112,0
75.5903,75.734055,55,112,0
75.6903,75.84655,60,112,0
75.7903,75.94655,64,112,0
75.890305,76.046555,55,113,0
75.9903,76.1528,59,113,0
76.0903,76.25905,62,113,0
76.1903,76.3403,55,113,0
76.2903,76.452805,59,113,0
76.390305,76.55905,62,114,0
76.4903,76.6278,48,114,0
76.5653,76.702805,52,114,0
76.640305,76.77155,55,114,0
76.7153,76.859055,60,114,0
76.7903,76.93405,48,115,0
76.8653,77.00905,52,115,0
76.9403,77.08405,55,115,0
77.015305,77.14655,60,115,0
77.0903,77.27155,48,115,0
77.1903,77.3528,51,116,0
77.2903,77.452805,55,116,0
77.390305,77.5528,48,116,0
77.4903,77.64655,51,116,0
77.5903,77.734055,55,117,0
77.6903,77.82155,43,117,0
77.765305,77.90905,48,117,0
77.8403,77.97155,50,117,0
77.9153,78.0528,55,117,0
77.9903,78.1278,43,118,0
78.0653,78.19655,48,118,0
78.140305,78.2778,50,118,0
78.2153,78.3403,55,118,0
78.2903,78.4278,43,118,0
78.3653,78.5028,47,118,0
78.4403,78.57155,50,119,0
78.515305,78.64655,55,119,0
78.5903,78.72155,43,119,0
78.6653,78.8028,47,119,0
78.7403,78.8653,50,119,0
78.8153,78.88405,55,120,0
78.890305,79.18405,48,120,0
79.4903,79.78405,55,120,0
79.4903,79.78405,43,120,0
80.0903,80.68405,48,120,0
80.0903,80.68405,36,120,0
80.9903,81.28405,53,80,0
80.9903,81.28405,48,80,0
80.9903,81.28405,41,80,0
81.2903,81.88405,53,80,0
81.2903,81.88405,48,80,0
81.2903,81.88405,41,80,0
83.390305,83.68405,53,80,0
83.390305,83.68405,48,80,0
83.390305,83.68405,41,80,0
83.6903,84.28405,52,80,0
83.6903,84.28405,48,80,0
83.6903,84.28405,40,80,0
86.0903,86.68405,60,80,0
86.0903,86.68405,57,80,0
86.0903,86.68405,53,80,0
86.6903,87.28405,60,87,0
86.6903,87.28405,58,87,0
86.6903,87.28405,55,87,0
87.2903,87.88405,60,95,0
87.2903,87.88405,57,95,0
87.2903,87.88405,65,95,0
87.890305,88.484055,67,120,0
87.890305,88.484055,65,120,0
87.890305,88.484055,62,120,0
87.890305,88.484055,58,120,0
88.4903,89.08405,69,120,0
88.4903,89.08405,65,120,0
88.4903,89.08405,60,120,0
89.0903,89.78071,63,103,0
89.0903,89.78071,65,103,0
89.0903,89.78071,69,103,0
89.0903,89.78071,72,103,0
89.78797,90.47838,70,88,0
89.78797,90.47838,65,88,0
89.78797,90.47838,62,88,0
91.18333,91.77708,62,80,0
91.18333,91.77708,65,80,0
91.18333,91.77708,70,80,0
91.783325,92.377075,64,80,0
91.783325,92.377075,67,80,0
91.783325,92.377075,72,80,0
92.38332,92.97707,65,80,0
92.38332,92.97707,69,80,0
92.38332,92.97707,72,80,0
92.98332,93.57707,58,80,0
92.98332,93.57707,62,80,0
92.98332,93.57707,67,80,0
93.58332,94.20832,60,80,0
93.58332,94.20832,65,80,0
93.58332,94.20832,69,80,0
94.214905,94.8399,60,80,0
94.214905,94.8399,67,80,0
94.214905,94.8399,70,80,0
94.84648,95.47148,65,80,0
94.84648,95.47148,69,80,0
95.793846,96.10306,48,80,0
95.793846,96.10306,41,80,0
95.793846,96.10306,53,80,0
96.109634,96.734634,53,80,0
96.109634,96.734634,48,80,0
96.109634,96.734634,41,80,0
98.32016,98.62937,51,80,0
98.32016,98.62937,48,80,0
98.32016,98.62937,41,80,0
98.63595,99.26095,51,80,0
98.63595,99.26095,48,80,0
98.63595,99.26095,41,80,0
100.84647,100.94515,57,110,0
100.95174,101.050415,59,110,0
100.84647,101.15568,53,110,0
101.057,101.15568,60,110,0
101.16226,101.45601,56,110,0
101.16226,101.45601,52,110,0
101.46226,101.55601,57,110,0
101.562256,101.656006,59,110,0
101.46226,101.75601,53,110,0
101.66226,101.75601,60,110,0
101.76226,102.05601,56,110,0
101.76226,102.05601,52,110,0
102.062256,102.156006,57,110,0
102.16226,102.25601,59,110,0
102.062256,102.35601,53,110,0
102.26226,102.35601,60,110,0
102.36226,102.95601,56,110,0
102.36226,102.95601,52,110,0
103.26226,103.406006,43,80,0
103.41226,103.55601,47,80,0
103.562256,103.70601,48,80,0
103.71226,103.85601,52,81,0
103.86226,104.00601,43,83,0
104.01226,104.156006,47,85,0
104.16226,104.30601,48,87,0
104.312256,104.45601,52,88,0
104.46226,104.60601,43,90,0
104.61226,104.75601,47,92,0
104.76226,104.906006,48,94,0
104.91226,105.05601,52,95,0
105.062256,105.20601,43,97,0
105.21226,105.35601,47,99,0
105.36226,105.50601,48,101,0
105.51226,105.656006,52,102,0
105.66226,105.80601,43,104,0
105.812256,105.95601,47,106,0
105.96226,106.10601,48,108,0
106.11226,106.25601,52,109,0
106.26226,106.406006,43,110,0
106.41226,106.55601,47,110,0
106.562256,106.70601,48,110,0
106.71226,106.85601,52,110,0
106.86226,107.00601,43,110,0
107.01226,107.156006,48,110,0
107.16226,107.30601,50,110,0
107.312256,107.45601,53,106,0
107.46226,107.60601,43,102,0
107.61226,107.75601,49,98,0
107.76226,107.906006,50,93,0
107.91226,108.05601,53,89,0
108.062256,108.20601,43,85,0
108.21226,108.35601,49,81,0
108.36226,108.50601,50,80,0
108.51226,108.656006,53,81,0
108.66226,108.80601,43,83,0
108.812256,108.95601,49,85,0
108.96226,109.10601,50,87,0
109.11226,109.25601,53,88,0
109.26226,109.406006,43,90,0
109.41226,109.55601,49,92,0
109.562256,109.70601,50,94,0
109.71226,109.85601,53,95,0
109.86226,110.00601,43,97,0
110.01226,110.156006,49,99,0
110.16226,110.30601,50,101,0
110.312256,110.45601,53,102,0
110.46226,110.60601,43,104,0
110.61226,110.75601,49,106,0
110.76226,110.906006,50,108,0
110.91226,111.05601,53,109,0
111.062256,111.20601,43,110,0
111.21226,111.35601,49,110,0
111.36226,111.50601,50,110,0
111.51226,111.656006,53,110,0
111.66226,111.80601,43,110,0
111.812256,111.95601,50,110,0
111.96226,112.10601,52,110,0
112.11226,112.25601,55,106,0
112.26226,112.406006,48,102,0
112.41226,112.55601,51,98,0
112.562256,112.70601,52,93,0
112.71226,112.85601,55,89,0
112.86226,113.00601,52,85,0
113.01226,113.156006,50,81,0
113.16226,113.30601,48,80,0
113.312256,113.45601,60,80,0
113.46226,113.60601,64,80,0
113.61226,113.75601,62,80,0
113.76226,113.906006,60,80,0
113.91226,114.05601,64,80,0
114.062256,114.20601,60,80,0
114.21226,114.35601,59,80,0
114.36226,114.50601,57,80,0
114.51226,114.656006,60,80,0
114.66226,114.80601,57,80,0
114.812256,114.95601,55,80,0
114.96226,115.10601,54,80,0
115.11226,115.25601,57,80,0
115.26226,115.406006,54,80,0
115.41226,115.55601,52,80,0
115.562256,115.70601,50,80,0
115.71226,115.85601,52,80,0
115.86226,116.00601,54,80,0
116.01226,116.156006,55,80,0
116.16226,116.30601,57,80,0
116.312256,116.45601,50,80,0
116.46226,116.60601,52,80,0
116.61226,116.75601,54,80,0
116.86226,116.95601,59,80,0
116.96226,117.05601,62,80,0
117.062256,117.156006,59,80,0
117.16226,117.25601,62,80,0
116.76226,117.35601,55,80,0
117.26226,117.35601,59,80,0
117.46226,117.55601,60,80,0
117.562256,117.656006,62,80,0
117.66226,117.75601,60,80,0
117.76226,117.85601,62,80,0
117.36226,117.95601,55,80,0
117.86226,117.95601,60,80,0
118.062256,118.156006,59,80,0
118.16226,118.25601,62,80,0
118.26226,118.35601,59,80,0
118.36226,118.45601,62,80,0
117.96226,118.55601,55,80,0
118.46226,118.55601,59,80,0
118.66226,118.75601,57,80,0
118.76226,118.85601,62,80,0
118.86226,118.95601,57,80,0
118.96226,119.05601,62,80,0
118.562256,119.156006,54,80,0
119.062256,119.156006,57,80,0
119.26226,119.35601,59,80,0
119.36226,119.45601,62,80,0
119.46226,119.55601,59,80,0
119.562256,119.656006,62,80,0
119.16226,119.75601,55,80,0
119.66226,119.75601,59,80,0
119.86226,119.95601,60,80,0
119.96226,120.05601,62,80,0
120.062256,120.156006,60,80,0
120.16226,120.25601,62,80,0
119.76226,120.35601,55,80,0
120.26226,120.35601,60,80,0
120.46226,120.55601,59,80,0
120.562256,120.656006,62,80,0
120.66226,120.75601,59,80,0
120.76226,120.85601,62,80,0
120.36226,120.95601,55,80,0
120.86226,120.95601,59,80,0
121.062256,121.156006,57,80,0
121.16226,121.25601,62,80,0
121.26226,121.35601,57,80,0
121.36226,121.45601,62,80,0
120.96226,121.55601,54,80,0
121.46226,121.55601,57,80,0
121.66226,121.75601,59,80,0
121.76226,121.85601,62,80,0
121.86226,121.95601,59,80,0
121.96226,122.05601,62,80,0
121.562256,122.156006,55,80,0
122.062256,122.156006,59,80,0
122.26226,122.35601,57,80,0
122.36226,122.45601,62,80,0
122.46226,122.55601,57,80,0
122.562256,122.656006,62,80,0
122.16226,122.75601,54,80,0
122.66226,122.75601,57,80,0
122.86226,122.95601,59,80,0
122.96226,123.05601,62,80,0
123.062256,123.156006,59,80,0
123.16226,123.25601,62,80,0
122.76226,123.35601,55,80,0
123.26226,123.35601,59,80,0
123.46226,123.55601,57,80,0
123.562256,123.656006,62,80,0
123.66226,123.75601,57,80,0
123.76226,123.85601,62,80,0
123.36226,123.95601,54,80,0
123.86226,123.95601,57,80,0
123.96226,124.25601,62,80,0
123.96226,124.25601,59,80,0
123.96226,124.25601,55,80,0
126.4605,126.78689,65,80,0
126.4605,127.120224,67,80,0
126.79384,127.120224,62,80,0
127.12717,127.45356,67,80,0
127.12717,127.45356,59,80,0
127.4605,127.78689,67,80,0
127.4605,127.78689,60,80,0
127.79384,128.10304,65,80,0
127.79384,128.41884,67,80,0
128.10962,128.41884,62,80,0
128.42542,128.73462,67,80,0
128.42542,128.73462,59,80,0
128.7412,129.05042,67,80,0
128.7412,129.05042,60,80,0
129.05699,129.38338,65,80,0
129.05699,129.38338,53,80,0
129.72366,130.09085,55,80,0
129.72366,130.09085,59,80,0
129.72366,130.09085,62,80,0
130.47366,131.21585,60,80,0
130.47366,131.21585,55,80,0
130.47366,131.21585,52,80,0
130.47366,131.21585,48,80,0
131.59866,131.92834,64,120,0
131.59866,131.92834,67,120,0
131.9346,132.22835,65,120,0
131.9346,132.22835,68,120,0
132.23459,132.52835,62,120,0
132.23459,132.52835,65,120,0
132.53459,132.82834,59,120,0
132.53459,132.82834,62,120,0
132.8346,133.12834,60,120,0
132.8346,133.12834,63,120,0
133.1346,133.42834,65,120,0
133.1346,133.42834,68,120,0
133.4346,133.72835,62,120,0
133.4346,133.72835,65,120,0
133.73459,134.02835,59,120,0
133.73459,134.02835,62,120,0
134.03459,134.32834,60,120,0
134.03459,134.32834,63,120,0
134.3346,134.6438,62,100,0
134.3346,134.6438,56,100,0
134.3346,134.6438,53,100,0
134.96617,135.27538,62,100,0
134.96617,135.27538,59,100,0
134.96617,135.27538,55,100,0
135.59775,135.92413,60,100,0
135.59775,135.92413,56,100,0
136.93108,137.25748,60,70,0
136.93108,137.25748,57,70,0
136.93108,137.25748,54,70,0
138.26442,138.5908,55,80,0
138.26442,138.5908,53,80,0
138.59775,138.8915,55,81,0
138.59775,138.8915,47,81,0
138.89775,139.1915,48,83,0
138.89775,139.1915,55,83,0
139.19775,139.4915,55,85,0
139.19775,139.4915,43,85,0
139.49774,139.7915,55,87,0
139.49774,139.7915,50,87,0
139.79774,140.09149,55,89,0
139.79774,140.09149,43,89,0
140.09775,140.3915,55,91,0
140.09775,140.3915,48,91,0
140.39775,140.6915,55,93,0
140.39775,140.6915,43,93,0
140.69775,140.9915,55,95,0
140.69775,140.9915,50,95,0
140.99774,141.2915,55,97,0
140.99774,141.2915,53,97,0
141.29774,141.59149,55,99,0
141.29774,141.59149,52,99,0
141.59775,141.8915,55,101,0
141.59775,141.8915,48,101,0
141.89775,142.1915,55,103,0
141.89775,142.1915,50,103,0
142.19775,142.4915,55,105,0
142.19775,142.4915,53,105,0
142.49774,142.7915,55,107,0
142.49774,142.7915,52,107,0
142.79774,143.09149,55,108,0
142.79774,143.09149,48,108,0
143.09775,143.3915,50,100,0
143.09775,143.3915,45,100,0
143.09775,143.3915,41,100,0
143.69775,143.9915,62,100,0
143.69775,143.9915,57,100,0
143.69775,143.9915,53,100,0
145.79774,146.3915,62,100,0
146.39775,146.5415,64,100,0
146.54774,146.6915,65,100,0
146.69775,147.2915,67,100,0
147.29774,147.8915,55,100,0
147.29774,147.8915,59,100,0
147.29774,147.8915,62,100,0
147.29774,147.8915,65,100,0
147.89775,147.9915,60,100,0
147.99774,148.09149,64,100,0
148.09775,148.1915,67,100,0
148.19775,148.2915,60,100,0
148.29774,148.3915,64,100,0
148.39775,148.4915,67,100,0
148.49774,148.59149,60,80,0
148.59775,148.6915,64,80,0
148.69775,148.7915,67,80,0
148.79774,148.8915,60,80,0
148.89775,148.9915,64,80,0
148.99774,149.09149,67,80,0
149.09775,149.1915,60,80,0
149.19775,149.2915,64,80,0
149.29774,149.3915,67,80,0
149.39775,149.4915,60,80,0
149.49774,149.59149,64,80,0
149.59775,149.6915,67,80,0
149.69775,149.7915,60,80,0
149.79774,149.8915,64,80,0
149.89775,149.9915,67,80,0
149.99774,150.09149,60,80,0
150.09775,150.1915,64,80,0
150.19775,150.2915,67,80,0
150.29774,150.3915,57,80,0
150.29774,150.3915,53,80,0
150.39775,150.4915,60,80,0
150.49774,150.59149,62,80,0
150.59775,150.6915,57,80,0
150.59775,150.6915,53,80,0
150.69775,150.7915,60,80,0
150.79774,150.8915,62,80,0
150.89775,150.9915,54,100,0
150.89775,150.9915,57,100,0
150.99774,151.09149,60,100,0
151.09775,151.1915,62,100,0
151.19775,151.2915,54,100,0
151.19775,151.2915,57,100,0
151.29774,151.3915,60,100,0
151.39775,151.4915,62,100,0
151.49774,151.59149,55,100,0
151.59775,151.6915,60,100,0
151.69775,151.7915,64,100,0
151.79774,151.8915,55,100,0
151.89775,151.9915,60,100,0
151.99774,152.09149,64,100,0
152.09775,152.1915,55,100,0
152.19775,152.2915,59,100,0
152.29774,152.3915,62,100,0
152.39775,152.4915,55,100,0
152.49774,152.59149,59,100,0
152.59775,152.6915,62,100,0
152.69775,152.7665,48,100,0
152.77275,152.84149,52,100,0
152.84775,152.9165,55,100,0
152.92274,152.9915,60,100,0
152.99774,153.0665,48,100,0
153.07275,153.1415,52,100,0
153.14775,153.21649,55,100,0
153.22275,153.2915,60,80,0
153.29774,153.3665,48,80,0
153.37274,153.4415,52,80,0
153.44775,153.5165,55,80,0
153.52275,153.59149,60,80,0
153.59775,153.6665,48,80,0
153.67274,153.7415,52,80,0
153.74774,153.8165,55,80,0
153.82275,153.8915,60,80,0
153.89775,153.96649,48,80,0
153.97275,154.0415,52,80,0
154.04774,154.1165,55,80,0
154.12274,154.1915,60,80,0
154.19775,154.2665,48,80,0
154.27275,154.34149,52,80,0
154.34775,154.4165,55,80,0
154.42274,154.4915,60,80,0
154.49774,154.59149,52,80,0
154.59775,154.6915,55,80,0
154.69775,154.7915,60,80,0
154.79774,154.8915,52,80,0
154.89775,154.9915,55,80,0
154.99774,155.09149,60,80,0
155.09775,155.2415,53,80,0
155.17274,155.3165,57,80,0
155.24774,155.38525,60,80,0
155.32275,155.454,62,80,0
155.39775,155.5415,53,80,0
155.47275,155.604,57,80,0
155.54774,155.68524,60,80,0
155.62274,155.7665,62,100,0
155.69775,155.829,54,100,0
155.77275,155.89775,57,100,0
155.84775,155.98524,60,101,0
155.92274,156.06024,62,101,0
155.99774,156.1415,54,101,0
156.07275,156.19775,57,102,0
156.14775,156.27275,60,102,0
156.22275,156.36024,62,102,0
156.29774,156.4415,55,103,0
156.39775,156.5415,60,103,0
156.49774,156.6415,64,104,0
156.59775,156.73524,55,104,0
156.69775,156.84149,60,105,0
156.79774,156.9415,64,105,0
156.89775,157.0415,55,106,0
156.99774,157.13525,59,106,0
157.09775,157.2415,62,107,0
157.19775,157.33525,55,107,0
157.29774,157.43524,59,107,0
157.39775,157.53525,62,108,0
157.49774,157.629,48,108,0
157.57275,157.69775,52,109,0
157.64775,157.76025,55,109,0
157.72275,157.8665,60,109,0
157.79774,157.929,48,110,0
157.87274,157.99774,52,110,0
157.94775,158.07275,55,111,0
158.02275,158.15399,60,111,0
158.09775,158.2415,48,111,0
158.19775,158.33525,51,112,0
158.29774,158.4415,55,112,0
158.39775,158.5415,48,113,0
158.49774,158.6415,51,113,0
158.59775,158.7415,55,114,0
158.69775,158.83525,43,114,0
158.77275,158.9165,48,114,0
158.84775,158.979,50,115,0
158.92274,159.04774,55,115,0
158.99774,159.13525,43,116,0
159.07275,159.204,48,116,0
159.14775,159.27899,50,116,0
159.22275,159.354,55,117,0
159.29774,159.429,43,117,0
159.37274,159.4915,47,117,0
159.44775,159.579,50,118,0
159.52275,159.66025,55,118,0
159.59775,159.73524,43,118,0
159.67274,159.804,47,119,0
159.74774,159.8665,50,119,0
159.82275,159.8915,55,120,0
159.89775,160.1915,48,120,0
160.49774,160.7915,55,120,0
160.49774,160.7915,43,120,0
161.09775,161.6915,48,120,0
161.09775,161.6915,36,120,0
162.29774,162.62413,57,80,0
162.29774,162.62413,45,80,0
162.96442,163.2908,52,80,0
162.96442,163.2908,40,80,0
163.63107,163.95747,45,80,0
163.63107,163.95747,33,80,0
164.96442,165.2908,62,80,0
165.63107,165.95746,57,80,0
166.29774,166.62413,50,80,0
167.63107,167.95746,57,80,0
168.29774,168.62413,52,80,0
168.9644,169.2908,45,80,0
170.39774,170.49149,38,110,0
170.49774,170.59149,40,110,0
170.59773,170.69148,41,110,0
170.69774,170.79149,40,110,0
170.79774,170.8915,38,110,0
170.99774,171.09149,45,110,0
171.09773,171.19148,47,110,0
171.19774,171.29149,49,110,0
171.29774,171.3915,47,110,0
171.39774,171.49149,45,110,0
171.59773,171.69148,50,110,0
171.69774,171.79149,52,110,0
171.79774,171.8915,53,110,0
171.89774,171.99149,52,110,0
171.99774,172.09149,50,110,0
172.09773,172.24149,57,110,0
172.24774,172.3915,53,110,0
172.39774,172.54149,52,110,0
172.54774,172.69148,50,110,0
172.79774,172.8915,45,110,0
172.89774,172.99149,47,110,0
172.99774,173.09149,49,110,0
173.09773,173.19148,47,110,0
173.19774,173.29149,45,110,0
173.39774,173.49149,52,110,0
173.49774,173.59149,54,110,0
173.59773,173.69148,56,110,0
173.69774,173.79149,54,110,0
173.79774,173.8915,52,110,0
174.04774,174.19148,56,110,0
174.19774,174.34149,57,110,0
174.34773,174.49149,58,110,0
174.49774,174.6415,57,110,0
174.64774,174.79149,55,110,0
174.79774,174.94148,53,110,0
174.94774,175.09149,52,110,0
175.09773,175.3915,38,80,0
175.39774,175.69148,57,80,0
175.39774,175.69148,53,80,0
175.39774,175.69148,50,80,0
175.69774,175.99149,57,80,0
175.69774,175.99149,53,80,0
175.69774,175.99149,50,80,0
175.99774,176.29149,57,80,0
175.99774,176.29149,53,80,0
175.99774,176.29149,50,80,0
176.29774,176.59149,40,80,0
176.59773,176.8915,57,80,0
176.59773,176.8915,55,80,0
176.59773,176.8915,52,80,0
176.89774,177.19148,57,80,0
176.89774,177.19148,55,80,0
176.89774,177.19148,52,80,0
177.19774,177.49149,57,80,0
177.19774,177.49149,55,80,0
177.19774,177.49149,52,80,0
177.49774,177.79149,41,80,0
177.79774,178.09149,57,80,0
177.79774,178.09149,53,80,0
178.09773,178.3915,57,80,0
178.09773,178.3915,53,80,0
178.39774,178.69148,57,80,0
178.39774,178.69148,53,80,0
178.69774,178.99149,37,80,0
178.99774,179.29149,57,80,0
178.99774,179.29149,49,80,0
179.29774,179.59149,57,80,0
179.29774,179.59149,49,80,0
179.59773,179.8915,57,80,0
179.59773,179.8915,49,80,0
179.89774,180.19148,50,80,0
180.19774,180.49149,62,82,0
180.49774,180.79149,48,84,0
180.79774,181.09149,60,87,0
181.09773,181.3915,46,89,0
181.39774,181.69148,58,92,0
181.69774,181.99149,42,94,0
181.99774,182.29149,54,97,0
182.29774,182.59149,43,99,0
182.59773,182.8915,55,80,0
182.59773,182.8915,58,80,0
182.59773,182.8915,62,80,0
182.89774,183.19148,55,80,0
182.89774,183.19148,58,80,0
182.89774,183.19148,62,80,0
183.19774,183.49149,55,80,0
183.19774,183.49149,58,80,0
183.19774,183.49149,62,80,0
183.49774,183.79149,45,80,0
183.79774,184.09149,57,80,0
183.79774,184.09149,60,80,0
183.79774,184.09149,62,80,0
184.09773,184.3915,57,80,0
184.09773,184.3915,60,80,0
184.09773,184.3915,62,80,0
184.39774,184.69148,57,80,0
184.39774,184.69148,60,80,0
184.39774,184.69148,62,80,0
184.69774,184.99149,46,80,0
184.99774,185.29149,58,80,0
184.99774,185.29149,62,80,0
185.29774,185.59149,58,80,0
185.29774,185.59149,62,80,0
185.59773,185.8915,58,80,0
185.59773,185.8915,62,80,0
185.89774,186.19148,54,80,0
186.19774,186.49149,60,80,0
186.19774,186.49149,62,80,0
186.49774,186.79149,60,80,0
186.49774,186.79149,62,80,0
186.79774,187.09149,60,80,0
186.79774,187.09149,62,80,0
187.09773,187.3915,55,80,0
187.39774,187.69148,67,83,0
187.69774,187.99149,53,87,0
187.99774,188.29149,65,91,0
188.29774,188.59149,52,95,0
188.59773,188.8915,64,99,0
188.89774,189.19148,47,103,0
189.19774,189.49149,59,107,0
189.49774,189.79149,48,120,0
189.79774,190.09149,60,120,0
190.09773,190.3915,46,120,0
190.39774,190.69148,58,120,0
190.69774,190.99149,45,120,0
190.99774,191.29149,57,120,0
191.29774,191.59149,41,120,0
191.59773,191.8915,53,120,0
191.89774,192.19148,46,120,0
192.19774,192.49149,58,80,0
192.19774,192.49149,62,80,0
192.19774,192.49149,65,80,0
192.49774,192.79149,58,80,0
192.49774,192.79149,62,80,0
192.49774,192.79149,65,80,0
192.79774,193.09149,58,80,0
192.79774,193.09149,62,80,0
192.79774,193.09149,65,80,0
193.09773,193.3915,48,80,0
193.39774,193.69148,60,80,0
193.39774,193.69148,63,80,0
193.39774,193.69148,65,80,0
193.69774,193.99149,60,80,0
193.69774,193.99149,63,80,0
193.69774,193.99149,65,80,0
193.99774,194.29149,60,80,0
193.99774,194.29149,63,80,0
193.99774,194.29149,65,80,0
194.29774,194.59149,50,80,0
194.59773,194.8915,62,82,0
194.59773,194.8915,65,82,0
194.89774,195.19148,62,85,0
194.89774,195.19148,65,85,0
195.19774,195.49149,62,87,0
195.19774,195.49149,65,87,0
195.49774,195.79149,57,90,0
195.79774,196.09149,60,93,0
195.79774,196.09149,63,93,0
195.79774,196.09149,65,93,0
196.09773,196.3915,60,95,0
196.09773,196.3915,63,95,0
196.09773,196.3915,65,95,0
196.39774,196.69148,60,98,0
196.39774,196.69148,63,98,0
196.39774,196.69148,65,98,0
196.69774,197.02412,70,80,0
197.36441,197.6908,65,80,0
198.03107,198.35747,58,80,0
199.36441,199.6908,65,80,0
200.03107,200.35745,60,80,0
200.69774,201.02412,53,80,0
202.13107,202.22482,46,80,0
202.23106,202.32481,48,81,0
202.33107,202.42482,49,82,0
202.43106,202.52481,48,83,0
202.53107,202.62482,46,84,0
202.73106,202.82481,46,86,0
202.83107,202.92482,48,87,0
202.93106,203.02481,49,87,0
203.03107,203.12482,48,88,0
203.13107,203.22482,46,89,0
203.33107,203.42482,46,91,0
203.43106,203.52481,48,92,0
203.53107,203.62482,49,93,0
203.63107,203.72482,48,94,0
203.73106,203.82481,46,95,0
203.83107,203.97482,53,95,0
203.98106,204.12482,49,97,0
204.13107,204.27481,48,98,0
204.28107,204.42482,46,99,0
204.53107,204.62482,41,110,0
204.63107,204.72482,43,110,0
204.73106,204.82481,45,110,0
204.83107,204.92482,43,110,0
204.93106,205.02481,41,110,0
205.13107,205.22482,45,110,0
205.23106,205.32481,46,110,0
205.33107,205.42482,48,110,0
205.43106,205.52481,46,110,0
205.53107,205.62482,45,110,0
205.73106,205.82481,48,110,0
205.83107,205.92482,49,110,0
205.93106,206.02481,51,110,0
206.03107,206.12482,49,110,0
206.13107,206.22482,48,110,0
206.23106,206.37482,53,110,0
206.38107,206.52481,51,110,0
206.53107,206.67482,49,110,0
206.68106,206.82481,48,110,0
206.83107,207.12482,58,80,0
207.43106,207.72482,53,80,0
208.03107,208.32481,46,80,0
209.23106,209.52481,48,80,0
209.83107,210.12482,43,80,0
210.43106,210.72482,36,80,0
211.63107,211.92482,53,80,0
212.23106,212.52481,48,85,0
212.83107,213.12482,41,90,0
214.03107,214.32481,49,110,0
214.63107,214.92482,44,110,0
215.23106,215.52481,37,110,0
215.83107,216.12482,36,110,0
216.43106,216.72482,35,120,0
217.63107,218.22482,34,120,0
218.83107,219.42482,33,120,0
221.23106,221.85606,45,80,0
221.23106,221.85606,33,80,0
222.49422,223.15395,45,70,0
222.49422,223.15395,33,70,0
226.1359,226.42964,57,80,0
226.1359,226.42964,50,80,0
226.43588,227.02963,57,80,0
226.43588,227.02963,50,80,0
228.53589,228.82964,57,80,0
228.53589,228.82964,50,80,0
228.83589,229.42964,57,80,0
228.83589,229.42964,49,80,0
231.23589,231.82964,57,80,0
231.23589,231.82964,54,80,0
231.23589,231.82964,50,80,0
231.83589,232.42964,52,80,0
231.83589,232.42964,57,80,0
231.83589,232.42964,55,80,0
231.83589,232.42964,61,80,0
232.43588,233.02963,54,80,0
232.43588,233.02963,57,80,0
232.43588,233.02963,62,80,0
233.03589,233.62964,55,80,0
233.03589,233.62964,59,80,0
233.03589,233.62964,62,80,0
233.6359,234.22964,57,80,0
233.6359,234.22964,60,80,0
233.6359,234.22964,62,80,0
233.6359,234.22964,66,80,0
234.23589,234.87807,60,80,0
234.23589,234.87807,62,80,0
234.23589,234.87807,69,80,0
234.23589,234.87807,66,80,0
234.88501,235.6272,59,80,0
234.88501,235.6272,62,80,0
234.88501,235.6272,67,80,0
236.38501,236.97876,59,80,0
236.38501,236.97876,62,80,0
236.38501,236.97876,67,80,0
236.98502,237.57877,61,80,0
236.98502,237.57877,64,80,0
236.98502,237.57877,69,80,0
237.585,238.17876,62,80,0
237.585,238.17876,66,80,0
237.585,238.17876,69,80,0
238.18501,238.77876,55,80,0
238.18501,238.77876,59,80,0
238.18501,238.77876,64,80,0
238.78502,239.37877,57,80,0
238.78502,239.37877,62,80,0
238.78502,239.37877,66,80,0
239.38501,239.97876,57,80,0
239.38501,239.97876,64,80,0
239.38501,239.97876,67,80,0
239.98502,240.57877,62,80,0
239.98502,240.57877,66,80,0
242.085,242.37877,62,70,0
242.085,242.37877,50,70,0
242.38501,242.97876,62,70,0
242.38501,242.97876,55,70,0
244.48502,244.77876,55,70,0
244.48502,244.77876,62,70,0
244.78502,245.37877,60,70,0
244.78502,245.37877,48,70,0
250.36954,250.96329,60,80,0
250.36954,250.96329,57,80,0
250.36954,250.96329,53,80,0
250.96953,251.56328,60,84,0
250.96953,251.56328,58,84,0
250.96953,251.56328,55,84,0
251.56953,252.16328,60,89,0
251.56953,252.16328,57,89,0
251.56953,252.16328,65,89,0
252.16953,252.76328,67,94,0
252.16953,252.76328,65,94,0
252.16953,252.76328,62,94,0
252.16953,252.76328,58,94,0
252.76953,253.36328,69,99,0
252.76953,253.36328,65,99,0
252.76953,253.36328,60,99,0
253.36954,254.07005,63,98,0
253.36954,254.07005,65,98,0
253.36954,254.07005,69,98,0
253.36954,254.07005,72,98,0
254.07787,254.82005,70,93,0
254.07787,254.82005,65,93,0
254.07787,254.82005,62,93,0
255.57787,256.20285,62,80,0
255.57787,256.20285,65,80,0
255.57787,256.20285,70,80,0
256.20944,256.83444,64,80,0
256.20944,256.83444,67,80,0
256.20944,256.83444,72,80,0
256.84103,257.46603,65,80,0
256.84103,257.46603,69,80,0
256.84103,257.46603,72,80,0
257.4726,258.0976,58,80,0
257.4726,258.0976,62,80,0
257.4726,258.0976,67,80,0
258.1042,258.7292,60,80,0
258.1042,258.7292,65,80,0
258.1042,258.7292,69,80,0
258.73575,259.04495,60,80,0
258.73575,259.04495,67,80,0
258.73575,259.04495,70,80,0
259.36734,259.51865,41,80,0
259.52524,259.67654,45,81,0
259.68314,259.82687,36,82,0
259.83313,259.97687,40,83,0
259.98312,260.12686,41,84,0
260.13312,260.2769,45,85,0
260.2831,260.42688,36,87,0
260.43314,260.57687,40,88,0
260.58313,260.72687,41,89,0
260.73312,260.87686,45,90,0
260.88312,261.0269,36,91,0
261.0331,261.17688,40,93,0
261.18314,261.32687,41,94,0
261.33313,261.47687,45,95,0
261.48312,261.62686,36,96,0
261.63312,261.7769,40,97,0
261.7831,261.92688,41,99,0
261.93314,262.07687,45,100,0
262.08313,262.22687,36,101,0
262.23312,262.37686,40,102,0
262.38312,262.5269,41,103,0
262.5331,262.67688,45,105,0
262.68314,262.82687,36,106,0
262.83313,262.97687,40,107,0
262.98312,263.12686,41,108,0
263.13312,263.2769,45,109,0
263.2831,263.42688,36,110,0
263.43314,263.57687,40,110,0
263.58313,263.72687,41,110,0
263.73312,263.87686,45,110,0
263.88312,264.0269,36,110,0
264.0331,264.17688,40,110,0
264.18314,264.32687,43,100,0
264.33313,264.47687,46,98,0
264.48312,264.62686,36,95,0
264.63312,264.7769,42,92,0
264.7831,264.92688,43,89,0
264.93314,265.07687,46,86,0
265.08313,265.22687,36,83,0
265.23312,265.37686,42,81,0
265.38312,265.5269,43,80,0
265.5331,265.67688,46,81,0
265.68314,265.82687,36,82,0
265.83313,265.97687,42,83,0
265.98312,266.12686,43,84,0
266.13312,266.2769,46,85,0
266.2831,266.42688,36,87,0
266.43314,266.57687,42,88,0
266.58313,266.72687,43,89,0
266.73312,266.87686,46,90,0
266.88312,267.0269,36,91,0
267.0331,267.17688,42,92,0
267.18314,267.32687,43,94,0
267.33313,267.47687,46,95,0
267.48312,267.62686,36,96,0
267.63312,267.7769,42,97,0
267.7831,267.92688,43,98,0
267.93314,268.07687,46,99,0
268.08313,268.22687,36,110,0
268.23312,268.37686,42,110,0
268.38312,268.5269,43,110,0
268.5331,268.67688,46,110,0
268.68314,268.82687,36,110,0
268.83313,268.97687,43,110,0
268.98312,269.12686,45,100,0
269.13312,269.2769,48,98,0
269.2831,269.42688,41,95,0
269.43314,269.57687,44,92,0
269.58313,269.72687,45,89,0
269.73312,269.87686,48,86,0
269.88312,270.0269,41,83,0
270.0331,270.17688,44,81,0
270.18314,272.2769,48,80,0
270.7831,272.2769,53,80,0
271.38312,272.2769,56,80,0
272.2831,272.57687,53,80,0
272.2831,272.57687,56,80,0
272.58313,272.87686,53,80,0
272.58313,272.87686,56,80,0
272.88312,273.17688,56,80,0
272.88312,273.17688,53,80,0
273.18314,273.47687,56,80,0
273.18314,273.47687,53,80,0
273.48312,273.7769,53,80,0
273.48312,273.7769,56,80,0
273.7831,274.37686,58,80,0
273.7831,274.37686,55,80,0
273.7831,274.37686,51,80,0
274.98312,277.07687,51,80,0
275.58313,277.07687,55,80,0
276.18314,277.07687,58,80,0
277.08313,277.37686,58,80,0
277.08313,277.37686,61,80,0
277.38312,277.67688,58,80,0
277.38312,277.67688,61,80,0
277.68314,277.97687,58,80,0
277.68314,277.97687,61,80,0
277.98312,278.2769,58,80,0
277.98312,278.2769,61,80,0
278.2831,278.57687,58,80,0
278.2831,278.57687,61,80,0
278.58313,279.17688,60,80,0
278.58313,279.17688,56,80,0
279.18314,279.7769,63,80,0
279.7831,280.37686,62,80,0
280.38312,280.97687,61,80,0
281.08313,281.17688,52,80,0
281.18314,281.2769,55,80,0
281.2831,281.37686,52,80,0
281.38312,281.47687,55,80,0
280.98312,281.57687,48,80,0
281.48312,281.57687,52,80,0
281.68314,281.7769,50,80,0
281.7831,281.87686,55,80,0
281.88312,281.97687,50,80,0
281.98312,282.07687,55,80,0
281.58313,282.17688,47,80,0
282.08313,282.17688,50,80,0
282.2831,282.37686,52,80,0
282.38312,282.47687,55,80,0
282.48312,282.57687,52,80,0
282.58313,282.67688,55,80,0
282.18314,282.7769,48,80,0
282.68314,282.7769,52,80,0
282.88312,282.97687,53,80,0
282.98312,283.07687,55,80,0
283.08313,283.17688,53,80,0
283.18314,283.2769,55,80,0
282.7831,283.37686,50,80,0
283.2831,283.37686,53,80,0
283.48312,283.57687,52,80,0
283.58313,283.67688,55,80,0
283.68314,283.7769,52,80,0
283.7831,283.87686,55,80,0
283.38312,283.97687,48,80,0
283.88312,283.97687,52,80,0
284.08313,284.17688,50,80,0
284.18314,284.2769,55,80,0
284.2831,284.37686,50,80,0
284.38312,284.47687,55,80,0
283.98312,284.57687,47,80,0
284.48312,284.57687,50,80,0
284.68314,284.7769,52,80,0
284.7831,284.87686,55,80,0
284.88312,284.97687,52,80,0
284.98312,285.07687,55,80,0
284.58313,285.17688,48,80,0
285.08313,285.17688,52,80,0
285.2831,285.37686,53,80,0
285.38312,285.47687,55,80,0
285.48312,285.57687,53,80,0
285.58313,285.67688,55,80,0
285.18314,285.7769,50,80,0
285.68314,285.7769,53,80,0
285.88312,285.97687,52,80,0
285.98312,286.07687,55,80,0
286.08313,286.17688,52,80,0
286.18314,286.2769,55,80,0
285.7831,286.37686,48,80,0
286.2831,286.37686,52,80,0
286.48312,286.57687,53,80,0
286.58313,286.67688,55,80,0
286.68314,286.7769,53,80,0
286.7831,286.87686,55,80,0
286.38312,286.97687,50,80,0
286.88312,286.97687,53,80,0
287.08313,287.17688,52,80,0
287.18314,287.2769,55,80,0
287.2831,287.37686,52,80,0
287.38312,287.47687,55,80,0
286.98312,287.57687,48,80,0
287.48312,287.57687,52,80,0
287.68314,287.7769,53,80,0
287.7831,287.87686,55,80,0
287.88312,287.97687,53,80,0
287.98312,288.07687,55,80,0
287.58313,288.17688,50,80,0
288.08313,288.17688,53,80,0
288.18314,288.7769,55,80,0
288.18314,288.7769,52,80,0
288.18314,288.7769,48,80,0
290.72302,291.0494,58,80,0
290.72302,291.38275,60,80,0
291.05637,291.38275,55,80,0
291.3897,291.7161,52,80,0
291.3897,291.7161,60,80,0
291.72302,292.0494,60,80,0
291.72302,292.0494,53,80,0
292.05637,292.38275,58,80,0
292.05637,292.7161,60,80,0
292.3897,292.7161,55,80,0
292.72302,293.0494,52,80,0
292.72302,293.0494,60,80,0
293.05637,293.38275,60,80,0
293.05637,293.38275,53,80,0
293.3897,293.7161,58,80,0
293.3897,293.7161,46,80,0
294.05637,294.38275,55,80,0
294.05637,294.38275,52,80,0
294.05637,294.38275,48,80,0
294.72302,295.38275,53,80,0
294.72302,295.38275,48,80,0
294.72302,295.38275,41,80,0
295.72302,296.01678,68,120,0
295.72302,296.01678,72,120,0
296.02304,296.31677,70,120,0
296.02304,296.31677,73,120,0
296.32303,296.6168,67,120,0
296.32303,296.6168,70,120,0
296.62302,296.91678,64,120,0
296.62302,296.91678,67,120,0
296.92303,297.21677,65,120,0
296.92303,297.21677,68,120,0
297.22302,297.51678,70,120,0
297.22302,297.51678,73,120,0
297.52304,297.81677,67,120,0
297.52304,297.81677,70,120,0
297.82303,298.1168,64,120,0
297.82303,298.1168,67,120,0
298.12302,298.41678,65,120,0
298.12302,298.41678,68,120,0
298.42303,298.71677,67,110,0
298.42303,298.71677,61,110,0
298.42303,298.71677,58,110,0
299.02304,299.31677,67,110,0
299.02304,299.31677,64,110,0
299.02304,299.31677,60,110,0
299.62302,299.96863,61,110,0
299.62302,299.96863,65,110,0
301.0348,301.38037,47,70,0
301.0348,301.38037,35,70,0
302.44656,302.79214,48,80,0
302.44656,302.79214,46,80,0
302.7995,303.09326,48,81,0
302.7995,303.09326,40,81,0
303.0995,303.39325,48,83,0
303.0995,303.39325,41,83,0
303.3995,303.69324,48,85,0
303.3995,303.69324,36,85,0
303.6995,303.99326,48,87,0
303.6995,303.99326,43,87,0
303.9995,304.29324,48,89,0
303.9995,304.29324,36,89,0
304.2995,304.59326,48,91,0
304.2995,304.59326,41,91,0
304.5995,304.89325,48,93,0
304.5995,304.89325,36,93,0
304.8995,305.19324,48,95,0
304.8995,305.19324,43,95,0
305.1995,305.49326,48,97,0
305.1995,305.49326,46,97,0
305.4995,305.79324,48,99,0
305.4995,305.79324,45,99,0
305.7995,306.09326,48,101,0
305.7995,306.09326,41,101,0
306.0995,306.39325,48,103,0
306.0995,306.39325,43,103,0
306.3995,306.69324,48,105,0
306.3995,306.69324,46,105,0
306.6995,306.99326,48,107,0
306.6995,306.99326,45,107,0
306.9995,307.29324,48,108,0
306.9995,307.29324,41,108,0
307.2995,307.59326,55,110,0
307.2995,307.59326,50,110,0
307.2995,307.59326,46,110,0
307.8995,308.19324,58,110,0
307.8995,308.19324,62,110,0
307.8995,308.19324,67,110,0
309.9995,310.59326,55,110,0
310.5995,310.74326,57,110,0
310.7495,310.89325,58,110,0
310.8995,311.49326,60,110,0
311.4995,312.09326,58,110,0
311.4995,312.09326,55,110,0
311.4995,312.09326,52,110,0
311.4995,312.09326,48,110,0
312.0995,312.39325,57,110,0
312.0995,312.39325,53,110,0
312.3995,312.99326,67,120,0
312.9995,313.14325,69,120,0
312.3995,313.29324,65,120,0
312.3995,313.29324,62,120,0
313.1495,313.29324,71,120,0
313.2995,313.89325,72,120,0
313.2995,313.89325,69,120,0
313.2995,313.89325,65,120,0
313.2995,313.89325,60,120,0
313.8995,314.49326,70,110,0
313.8995,314.49326,67,110,0
313.8995,314.49326,60,110,0
314.4995,314.59326,53,105,0
314.5995,314.69324,57,104,0
314.6995,314.79324,60,103,0
314.7995,314.89325,53,102,0
314.8995,314.99326,57,101,0
314.9995,315.09326,60,101,0
315.0995,315.19324,53,80,0
315.1995,315.29324,57,80,0
315.2995,315.39325,60,80,0
315.3995,315.49326,53,80,0
315.4995,315.59326,57,80,0
315.5995,315.69324,60,80,0
315.6995,315.79324,53,80,0
315.7995,315.89325,57,80,0
315.8995,315.99326,60,80,0
315.9995,316.09326,53,80,0
316.0995,316.19324,57,80,0
316.1995,316.29324,60,80,0
316.2995,316.39325,57,80,0
316.3995,316.49326,60,80,0
316.4995,316.59326,65,80,0
316.5995,316.69324,57,80,0
316.6995,316.79324,60,80,0
316.7995,316.89325,65,80,0
316.8995,316.99326,58,80,0
316.8995,316.99326,62,80,0
316.9995,317.09326,65,80,0
317.0995,317.19324,67,80,0
317.1995,317.29324,58,80,0
317.1995,317.29324,62,80,0
317.2995,317.39325,65,80,0
317.3995,317.49326,67,80,0
317.4995,317.59326,59,100,0
317.4995,317.59326,62,100,0
317.5995,317.69324,65,100,0
317.6995,317.79324,67,100,0
317.7995,317.89325,59,100,0
317.7995,317.89325,62,100,0
317.8995,317.99326,65,100,0
317.9995,318.09326,67,100,0
318.0995,318.19324,60,100,0
318.1995,318.29324,65,100,0
318.2995,318.39325,69,100,0
318.3995,318.49326,60,100,0
318.4995,318.59326,65,100,0
318.5995,318.69324,69,100,0
318.6995,318.79324,60,100,0
318.7995,318.89325,64,100,0
318.8995,318.99326,67,100,0
318.9995,319.09326,60,100,0
319.0995,319.19324,64,100,0
319.1995,319.29324,67,100,0
319.2995,319.36826,53,100,0
319.3745,319.44324,57,100,0
319.4495,319.51825,60,100,0
319.5245,319.59326,65,100,0
319.5995,319.66824,53,100,0
319.6745,319.74326,57,100,0
319.7495,319.81824,60,100,0
319.8245,319.89325,65,80,0
319.8995,319.96826,53,80,0
319.9745,320.04324,57,80,0
320.0495,320.11826,60,80,0
320.1245,320.19324,65,80,0
320.1995,320.26825,53,80,0
320.2745,320.34326,57,80,0
320.3495,320.41824,60,80,0
320.4245,320.49326,65,80,0
320.4995,320.56824,53,80,0
320.5745,320.64325,57,80,0
320.6495,320.71826,60,80,0
320.7245,320.79324,65,80,0
320.7995,320.86826,53,80,0
320.8745,320.94324,57,80,0
320.9495,321.01825,60,80,0
321.0245,321.09326,65,80,0
321.0995,321.19324,57,80,0
321.1995,321.29324,60,80,0
321.2995,321.39325,65,80,0
321.3995,321.49326,57,80,0
321.4995,321.59326,60,80,0
321.5995,321.69324,65,80,0
321.6995,321.837,58,80,0
321.7745,321.91824,62,80,0
321.8495,321.98074,65,80,0
321.9245,322.05576,67,80,0
321.9995,322.137,58,80,0
322.0745,322.1995,62,80,0
322.1495,322.29324,65,80,0
322.2245,322.362,67,100,0
322.2995,322.44324,59,100,0
322.3745,322.51825,62,100,0
322.4495,322.58075,65,100,0
322.5245,322.6495,67,100,0
322.5995,322.7245,59,100,0
322.6745,322.7995,62,100,0
322.7495,322.89325,65,100,0
322.8245,322.96826,67,100,0
322.8995,323.037,60,100,0
322.9995,323.14325,65,100,0
323.0995,323.25574,69,100,0
323.1995,323.3495,60,100,0
323.2995,323.437,65,100,0
323.3995,323.54324,69,100,0
323.4995,323.64325,60,100,0
323.5995,323.71826,64,100,0
323.6995,323.84326,67,100,0
323.7995,323.93076,60,100,0
323.8995,324.037,64,100,0
323.9995,324.137,67,100,0
324.0995,324.24326,53,100,0
324.1745,324.29324,57,100,0
324.2495,324.39325,60,100,0
324.3245,324.46826,65,100,0
324.3995,324.5245,53,100,0
324.4745,324.5995,57,100,0
324.5495,324.68076,60,100,0
324.6245,324.762,65,120,0
324.6995,324.84326,53,120,0
324.7995,324.937,56,120,0
324.8995,325.03076,60,120,0
324.9995,325.13074,53,120,0
325.0995,325.23074,56,120,0
325.1995,325.34326,60,120,0
325.2995,325.4245,48,120,0
325.3745,325.50574,53,120,0
325.4495,325.587,55,120,0
325.5245,325.65576,60,121,0
325.5745,325.70575,48,121,0
325.6495,325.7745,53,121,0
325.7245,325.85574,55,121,0
325.7995,325.93076,60,121,0
325.8995,326.037,48,121,0
325.9745,326.112,52,121,0
326.0495,326.18076,55,121,0
326.1245,326.24326,60,121,0
326.1745,326.31824,48,121,0
326.2495,326.38074,52,121,0
326.3245,326.45575,55,121,0
326.3995,326.53076,60,122,0
326.4995,326.64325,41,122,0
326.5745,326.69324,45,122,0
326.6495,326.787,48,122,0
326.7245,326.85574,53,122,0
326.7995,326.94324,41,122,0
326.8745,326.987,45,122,0
326.9495,327.0745,48,122,0
327.0245,327.15576,53,122,0
327.0995,327.24326,41,122,0
327.1995,327.337,44,123,0
327.2995,327.44324,48,123,0
327.3995,327.54324,41,123,0
327.4995,327.6245,44,123,0
327.5995,327.73074,48,123,0
327.6995,327.812,36,123,0
327.7745,327.90576,41,123,0
327.8495,327.96826,43,123,0
327.9245,328.05576,48,123,0
327.9745,328.0995,36,123,0
328.0495,328.1745,41,124,0
328.1245,328.25574,43,124,0
328.1995,328.3245,48,124,0
328.2995,328.4245,36,124,0
328.3745,328.4995,40,124,0
328.4495,328.58075,43,124,0
328.5245,328.662,48,124,0
328.5745,328.712,36,124,0
328.6495,328.78076,40,124,0
328.7245,328.85574,43,124,0
328.7995,328.93423,48,124,0
328.8995,329.2259,41,120,0
329.56616,329.93335,48,120,0
329.56616,329.93335,36,120,0
330.31616,331.05835,41,120,0
330.31616,331.05835,29,120,0
