start_time,end_time,note_value,velocity,instrument_program_number
0.0,0.28273782,48,80,0
0.285714,0.5684518,53,80,0
0.571428,0.8541658,56,80,0
0.857142,1.1398798,52,80,0
1.142856,1.4255939,53,80,0
1.42857,1.7113078,56,80,0
1.714284,1.9970218,60,80,0
1.999998,2.2827358,61,80,0
2.285712,2.5684497,58,80,0
2.571426,2.854164,64,80,0
2.85714,3.1398778,65,80,0
3.142854,3.4255917,60,80,0
3.428568,3.7113059,67,80,0
3.714282,4.282734,68,80,0
3.999996,4.282734,65,80,0
4.28571,4.5684476,70,80,0
4.28571,4.8541617,63,80,0
4.571424,5.139876,72,80,0
4.571424,5.139876,68,80,0
5.142852,5.282733,75,80,0
4.857138,5.42559,65,80,0
5.142852,5.42559,70,80,0
5.285709,5.42559,73,80,0
5.428566,5.997018,72,80,0
5.428566,5.997018,68,80,0
5.428566,5.997018,63,80,0
5.999994,6.282732,70,80,0
5.999994,6.282732,67,80,0
5.999994,6.282732,61,80,0
6.285708,6.5684457,60,80,0
6.285708,6.5684457,68,80,0
6.857136,7.139874,48,80,0
7.14285,7.4255877,53,80,0
7.428564,7.711302,56,80,0
7.714278,7.997016,52,80,0
7.999992,8.28273,53,80,0
8.285706,8.568444,56,80,0
8.57142,8.854157,60,80,0
8.857134,9.139872,61,80,0
9.142848,9.425586,58,80,0
9.428562,9.7113,64,80,0
9.714276,9.997014,65,80,0
9.99999,10.282728,60,80,0
10.285704,10.568441,67,80,0
10.571418,11.13987,68,80,0
10.857132,11.13987,65,80,0
11.142846,11.425584,70,80,0
11.142846,11.711298,63,80,0
11.42856,11.997012,72,80,0
11.42856,11.997012,68,80,0
11.999988,12.139869,75,80,0
11.714274,12.282726,65,80,0
11.999988,12.282726,70,80,0
12.142845,12.282726,73,80,0
12.285702,12.854154,72,80,0
12.285702,12.854154,68,80,0
12.285702,12.854154,63,80,0
12.85713,13.139868,70,80,0
12.85713,13.139868,67,80,0
12.85713,13.139868,61,80,0
13.142844,13.425582,60,80,0
13.142844,13.425582,68,80,0
13.714272,13.99701,72,80,0
13.999986,14.282723,72,80,0
14.2857,14.425581,73,80,0
14.428557,14.568438,72,80,0
14.571414,14.854152,73,90,0
14.571414,14.854152,65,90,0
14.857128,15.139866,73,90,0
14.857128,15.139866,65,90,0
15.142842,15.282722,67,80,0
15.285699,15.42558,65,80,0
15.428556,15.711294,73,90,0
15.428556,15.711294,67,90,0
15.71427,15.997007,73,90,0
15.71427,15.997007,67,90,0
15.999984,16.139864,75,80,0
16.142841,16.282722,73,80,0
16.285698,16.568436,75,90,0
16.285698,16.568436,67,90,0
16.571411,16.854149,75,90,0
16.571411,16.854149,67,90,0
16.857126,16.997007,69,80,0
16.999983,17.139864,67,80,0
17.14284,17.425577,75,90,0
17.14284,17.425577,69,90,0
17.428555,17.711292,75,90,0
17.428555,17.711292,69,90,0
17.714268,17.854149,77,80,0
17.857124,17.997005,75,80,0
17.999983,18.28272,77,90,0
17.999983,18.28272,69,90,0
18.285696,18.598196,69,90,0
18.601484,18.75609,70,80,0
18.285696,18.913984,77,90,0
18.75938,18.913984,69,80,0
18.917274,19.229774,77,90,0
18.917274,19.229774,70,90,0
19.233063,19.396257,77,90,0
19.316397,19.479591,79,90,0
19.399729,19.562923,77,90,0
19.483063,19.646257,79,90,0
19.566397,19.72959,77,90,0
19.649729,19.812923,79,90,0
19.233063,19.896257,71,90,0
19.733063,19.896257,76,90,0
19.816395,19.896257,77,90,0
19.899729,20.323835,79,90,0
19.899729,20.323835,71,90,0
20.3283,22.46669,67,90,0
20.3283,22.46669,72,90,0
22.471155,22.895262,72,80,0
22.899727,23.182465,77,80,0
23.18544,23.468178,80,80,0
23.471153,23.753891,76,80,0
23.756868,24.039606,77,80,0
24.042582,24.32532,80,80,0
24.328297,24.611034,84,80,0
24.61401,24.896748,85,80,0
24.899723,25.182463,82,80,0
25.185438,25.468176,88,80,0
25.471151,25.75389,89,80,0
25.756866,26.039604,84,80,0
26.04258,26.325317,80,70,0
26.328295,26.611032,82,70,0
26.614008,26.896746,85,70,0
26.899721,27.182459,79,70,0
27.185436,27.753887,80,70,0
27.756865,28.039602,80,80,0
27.756865,28.039602,68,80,0
28.042578,28.61103,80,80,0
28.042578,28.896744,76,80,0
28.042578,28.896744,73,80,0
28.042578,28.896744,70,80,0
28.614006,28.896744,79,80,0
28.89972,29.468172,80,80,0
28.89972,29.753885,76,80,0
28.89972,29.753885,73,80,0
28.89972,29.753885,70,80,0
29.471148,29.753885,79,80,0
29.756863,30.0396,77,80,0
29.756863,30.0396,68,80,0
30.042576,30.325314,79,80,0
30.042576,30.325314,70,80,0
30.32829,30.611029,76,80,0
30.32829,30.611029,67,80,0
30.614004,30.896742,77,80,0
30.614004,30.896742,68,80,0
30.899717,31.182455,72,80,0
31.185432,31.46817,68,80,0
31.471146,32.039597,68,80,0
31.471146,32.325314,64,80,0
31.471146,32.325314,61,80,0
31.471146,32.325314,58,80,0
32.042576,32.325314,67,80,0
32.32829,32.89674,68,80,0
32.32829,33.182453,64,80,0
32.32829,33.182453,61,80,0
32.32829,33.182453,58,80,0
32.899715,33.182453,67,80,0
33.18543,33.468166,65,80,0
33.18543,33.468166,56,80,0
33.471146,33.753883,67,80,0
33.471146,33.753883,58,80,0
33.75686,34.039597,64,80,0
33.75686,34.039597,55,80,0
34.042572,34.32531,65,80,0
34.042572,34.32531,56,80,0
34.614,34.896736,60,80,0
34.899715,35.468166,64,80,0
34.899715,35.75388,60,80,0
35.47114,35.75388,65,80,0
35.756855,36.325306,64,80,0
35.756855,36.325306,67,80,0
35.756855,36.611023,60,80,0
36.328285,36.611023,65,80,0
36.328285,36.611023,68,80,0
36.614,37.06087,72,80,0
36.614,37.06087,64,80,0
36.614,37.06087,67,80,0
37.064,37.210873,70,80,0
37.213997,37.368603,68,80,0
37.37189,37.526497,67,80,0
37.529785,37.68439,70,80,0
37.687683,37.842285,68,80,0
37.845577,38.00018,67,80,0
38.00347,38.158077,65,80,0
38.161366,38.31597,72,80,0
38.24031,38.394917,73,80,0
38.31926,38.473866,71,80,0
38.39821,38.473866,72,80,0
38.477154,39.105442,79,80,0
38.477154,39.105442,76,80,0
39.10873,39.42123,77,80,0
39.10873,39.42123,80,80,0
38.477154,39.737022,72,80,0
39.424522,39.737022,79,80,0
39.424522,39.737022,82,80,0
40.0561,40.3686,76,80,0
40.0561,40.3686,79,80,0
40.0561,40.3686,88,80,0
40.371887,40.684387,77,80,0
40.371887,40.684387,80,80,0
40.371887,40.684387,89,80,0
41.950832,42.263332,72,80,0
42.26662,42.54936,72,80,0
42.552338,42.692215,73,80,0
42.695194,42.835075,72,80,0
42.83805,43.12079,73,80,0
42.83805,43.12079,65,80,0
43.123764,43.4065,73,80,0
43.123764,43.4065,65,80,0
43.409477,43.54936,67,80,0
43.552334,43.692215,65,80,0
43.69519,43.97793,73,80,0
43.69519,43.97793,67,80,0
43.980907,44.263645,73,80,0
43.980907,44.263645,67,80,0
44.26662,44.4065,75,80,0
44.409477,44.54936,73,80,0
44.552334,44.83507,75,80,0
44.552334,44.83507,67,80,0
44.838047,45.120785,75,80,0
44.838047,45.120785,67,80,0
45.12376,45.26364,69,80,0
45.26662,45.406498,67,80,0
45.409477,45.692215,75,80,0
45.409477,45.692215,69,80,0
45.69519,45.97793,75,80,0
45.69519,45.97793,69,80,0
45.980904,46.120785,77,80,0
46.12376,46.26364,75,80,0
46.266617,46.549355,77,80,0
46.266617,46.549355,69,80,0
46.552334,46.84921,69,80,0
46.852333,46.999207,70,80,0
46.552334,47.149208,77,80,0
47.00233,47.149208,69,80,0
47.152332,47.464832,77,100,0
47.152332,47.464832,70,100,0
47.46812,47.622726,77,100,0
47.54707,47.70167,79,100,0
47.626015,47.78062,77,100,0
47.704964,47.85957,79,100,0
47.78391,47.938515,77,100,0
47.862858,48.017464,79,100,0
47.46812,48.09641,71,100,0
47.941803,48.09641,76,100,0
48.020752,48.09641,77,100,0
48.099697,48.523808,79,100,0
48.099697,48.523808,71,100,0
48.52827,50.66666,67,100,0
48.52827,50.66666,72,100,0
50.671124,51.09523,72,80,0
51.099697,51.382435,77,80,0
51.38541,51.668148,80,80,0
51.671124,51.95386,76,80,0
51.956837,52.239574,77,80,0
52.242554,52.52529,80,80,0
52.528267,52.811005,84,80,0
52.81398,53.096718,85,80,0
53.099693,53.38243,82,80,0
53.385406,53.668144,88,80,0
53.671124,53.95386,89,80,0
53.956837,54.239574,84,80,0
54.24255,54.525288,80,80,0
54.528263,54.811,82,80,0
54.813976,55.096714,85,80,0
55.099693,55.38243,79,80,0
55.385406,55.953857,80,80,0
55.956833,56.23957,80,80,0
55.956833,56.23957,68,80,0
56.24255,56.811,80,80,0
56.24255,57.096714,76,80,0
56.24255,57.096714,73,80,0
56.24255,57.096714,70,80,0
56.813976,57.096714,79,80,0
57.09969,57.66814,80,80,0
57.09969,57.953857,76,80,0
57.09969,57.953857,73,80,0
57.09969,57.953857,70,80,0
57.67112,57.953857,79,80,0
57.956833,58.23957,77,80,0
57.956833,58.23957,68,80,0
58.242546,58.525284,79,80,0
58.242546,58.525284,70,80,0
58.52826,58.810997,76,80,0
58.52826,58.810997,67,80,0
58.813972,59.09671,77,80,0
58.813972,59.09671,68,80,0
59.09969,59.382427,72,80,0
59.385403,59.66814,68,80,0
59.671116,60.239567,68,80,0
59.671116,60.52528,64,80,0
59.671116,60.52528,61,80,0
59.671116,60.52528,58,80,0
60.242542,60.52528,67,80,0
60.52826,61.09671,68,80,0
60.52826,61.382423,64,80,0
60.52826,61.382423,61,80,0
60.52826,61.382423,58,80,0
61.099686,61.382423,67,80,0
61.3854,61.668137,65,80,0
61.3854,61.668137,56,80,0
61.671116,61.953854,67,80,0
61.671116,61.953854,58,80,0
61.95683,62.239567,64,80,0
61.95683,62.239567,55,80,0
62.242542,62.52528,65,80,0
62.242542,62.52528,56,80,0
62.81397,63.096706,60,80,0
63.099686,63.668137,64,80,0
63.099686,63.95385,60,80,0
63.671112,63.95385,65,80,0
63.956825,64.525276,64,80,0
63.956825,64.525276,67,80,0
63.956825,64.81099,60,80,0
64.52825,64.81099,65,80,0
64.52825,64.81099,68,80,0
64.813965,65.23956,72,80,0
64.813965,65.23956,64,80,0
64.813965,65.23956,67,80,0
65.24254,65.38242,70,80,0
65.3854,65.525276,68,80,0
65.52825,65.66814,67,80,0
65.67111,65.81099,70,80,0
65.813965,65.95385,68,80,0
65.956825,66.0967,67,80,0
66.09968,66.23956,65,80,0
66.24254,66.40573,72,80,0
66.325874,66.48907,73,81,0
66.4092,66.572395,71,82,0
66.49254,66.572395,72,83,0
66.575874,67.23907,79,84,0
66.575874,67.23907,76,84,0
67.24254,67.572395,77,94,0
67.24254,67.572395,80,94,0
66.575874,67.90573,72,84,0
67.57587,67.90573,79,99,0
67.57587,67.90573,82,99,0
68.24254,68.572395,76,110,0
68.24254,68.572395,79,110,0
68.24254,68.572395,88,110,0
68.57587,68.90573,77,110,0
68.57587,68.90573,80,110,0
68.57587,68.90573,89,110,0
70.24253,70.572395,65,80,0
70.24253,70.572395,56,80,0
70.24253,70.572395,53,80,0
70.57587,71.23906,65,80,0
70.57587,71.23906,56,80,0
70.57587,71.23906,53,80,0
71.24253,71.572395,65,80,0
71.24253,71.572395,56,80,0
71.24253,71.572395,53,80,0
71.57587,72.23906,65,80,0
71.57587,72.23906,56,80,0
71.57587,72.23906,53,80,0
72.24253,72.572395,65,80,0
72.24253,72.572395,56,80,0
72.24253,72.572395,53,80,0
72.57587,73.572395,65,80,0
72.57587,74.23906,54,80,0
72.57587,74.23906,58,80,0
73.57587,74.23906,63,80,0
74.24253,74.36232,63,80,0
74.36753,74.445656,65,80,0
74.409195,74.48732,63,80,0
74.45087,74.52899,62,80,0
74.49253,74.61232,63,80,0
74.61753,74.73732,65,80,0
74.74253,75.31098,66,80,0
74.74253,75.31098,63,80,0
74.74253,75.31098,56,80,0
75.31396,75.596695,66,80,0
75.31396,75.596695,63,80,0
75.31396,75.596695,56,80,0
75.59967,76.16812,66,80,0
75.59967,76.16812,63,80,0
75.59967,76.16812,56,80,0
76.1711,76.453835,66,80,0
76.1711,76.453835,63,80,0
76.1711,76.453835,56,80,0
76.45682,77.31098,66,80,0
76.45682,77.31098,63,80,0
76.45682,77.596695,56,80,0
77.31396,77.596695,61,80,0
77.31396,77.596695,65,80,0
77.88538,78.02527,65,80,0
78.028244,78.16812,67,80,0
78.1711,78.73955,68,80,0
78.1711,78.73955,65,80,0
78.74252,79.02526,68,87,0
78.74252,79.02526,65,87,0
79.02824,79.596695,68,91,0
79.02824,79.596695,63,91,0
79.59967,79.88241,68,99,0
79.59967,79.88241,63,99,0
79.88538,80.73955,68,110,0
79.88538,81.310974,61,110,0
79.88538,81.310974,63,110,0
79.88538,81.310974,73,110,0
80.74252,81.310974,67,110,0
81.31395,81.59669,72,80,0
81.31395,81.59669,68,80,0
81.31395,81.59669,63,80,0
81.31395,81.59669,60,80,0
81.59966,81.8824,72,80,0
81.59966,82.16812,65,80,0
81.88538,82.16812,70,80,0
82.1711,82.453835,68,80,0
82.1711,82.453835,65,80,0
82.45681,83.02526,68,80,0
82.45681,83.02526,63,80,0
83.02824,83.310974,67,80,0
83.02824,83.310974,61,80,0
83.31395,84.16811,70,80,0
83.31395,84.16811,61,80,0
84.17109,84.45383,68,80,0
84.17109,84.45383,60,80,0
84.74252,85.02526,65,80,0
84.74252,85.02526,56,80,0
84.74252,85.02526,53,80,0
85.02824,85.59669,65,80,0
85.02824,85.59669,56,80,0
85.02824,85.59669,53,80,0
85.59966,85.8824,65,80,0
85.59966,85.8824,56,80,0
85.59966,85.8824,53,80,0
85.885376,86.45383,65,80,0
85.885376,86.45383,56,80,0
85.885376,86.45383,53,80,0
86.4568,86.73954,65,80,0
86.4568,86.73954,56,80,0
86.4568,86.73954,53,80,0
86.742516,87.59669,65,80,0
86.742516,87.59669,54,80,0
86.742516,87.8824,58,80,0
87.59966,87.8824,63,80,0
88.17109,88.31097,63,80,0
88.31394,88.45383,65,80,0
88.4568,89.02525,66,80,0
88.4568,89.02525,63,80,0
88.4568,89.02525,60,80,0
88.4568,89.02525,57,80,0
89.02823,89.31097,66,80,0
89.02823,89.31097,63,80,0
89.02823,89.31097,60,80,0
89.02823,89.31097,57,80,0
89.31394,89.88239,66,80,0
89.31394,89.88239,63,80,0
89.31394,89.88239,60,80,0
89.31394,89.88239,57,80,0
89.88537,90.168106,66,80,0
89.88537,90.168106,63,80,0
89.88537,90.168106,60,80,0
89.88537,90.168106,57,80,0
90.17109,91.02525,66,80,0
90.17109,91.02525,63,80,0
90.17109,91.02525,60,80,0
90.17109,91.02525,57,80,0
91.02823,91.31097,65,80,0
91.02823,91.31097,61,80,0
91.02823,91.31097,58,80,0
91.599655,91.73954,67,80,0
91.742516,91.88239,68,80,0
91.88537,92.45382,70,80,0
91.88537,92.45382,67,80,0
91.88537,92.45382,61,80,0
92.456795,92.73953,70,80,0
92.456795,92.73953,67,80,0
92.456795,92.73953,61,80,0
92.742516,93.31097,70,80,0
92.742516,93.31097,67,80,0
92.742516,93.31097,61,80,0
93.31394,93.59668,70,80,0
93.31394,93.59668,67,80,0
93.31394,93.59668,61,80,0
93.599655,94.45382,70,80,0
93.599655,94.45382,67,80,0
93.599655,94.73953,60,80,0
94.456795,94.73953,68,80,0
94.456795,94.73953,65,80,0
95.02822,95.31096,68,80,0
95.02822,95.31096,56,80,0
95.313934,95.59667,65,80,0
95.313934,95.59667,58,80,0
95.313934,95.59667,56,80,0
95.88537,96.168106,65,80,0
95.88537,96.168106,58,80,0
95.88537,96.168106,56,80,0
96.17108,96.45382,63,80,0
96.17108,96.45382,58,80,0
96.17108,96.45382,55,80,0
96.74251,97.025246,63,80,0
96.74251,97.025246,58,80,0
96.74251,97.025246,55,80,0
97.02822,97.31096,56,80,0
101.02822,101.45381,89,114,0
101.45679,101.59667,87,80,0
101.59965,101.739525,86,80,0
101.7425,101.882385,83,80,0
101.88536,102.02524,82,80,0
102.02821,102.1681,80,80,0
102.171074,102.45381,78,70,0
104.45679,104.88238,87,117,0
104.88536,105.02524,85,80,0
105.02821,105.1681,84,80,0
105.171074,105.31095,82,80,0
105.31393,105.45381,80,80,0
105.45679,105.596664,78,80,0
105.59964,106.16809,77,80,0
105.59964,106.16809,65,80,0
106.17107,106.453804,77,80,0
106.17107,106.453804,68,80,0
106.17107,106.453804,65,80,0
106.45679,107.02524,77,80,0
106.45679,107.02524,68,80,0
106.45679,107.02524,65,80,0
107.02821,107.31095,77,80,0
107.02821,107.31095,68,80,0
107.02821,107.31095,65,80,0
107.31393,108.16809,77,80,0
107.31393,108.16809,66,80,0
107.31393,108.453804,70,80,0
108.17107,108.453804,75,80,0
108.74249,108.88238,75,80,0
108.74249,108.88238,72,80,0
108.88535,109.02523,77,80,0
108.88535,109.02523,73,80,0
109.02821,109.596664,78,80,0
109.02821,109.596664,75,80,0
109.02821,109.596664,72,80,0
109.59964,109.88238,78,89,0
109.59964,109.88238,75,89,0
109.59964,109.88238,72,89,0
109.88535,110.453804,78,94,0
109.88535,110.453804,75,94,0
109.88535,110.453804,72,94,0
110.45678,110.73952,78,104,0
110.45678,110.73952,75,104,0
110.45678,110.73952,72,104,0
110.74249,111.59666,78,109,0
110.74249,111.59666,75,109,0
110.74249,111.59666,72,109,0
111.59963,111.88238,77,80,0
111.59963,111.88238,73,80,0
112.45678,113.02523,70,70,0
112.45678,113.02523,61,70,0
113.028206,113.31094,70,70,0
113.028206,113.31094,61,70,0
113.31392,113.88237,70,70,0
113.31392,113.88237,61,70,0
113.885345,114.16808,70,70,0
113.885345,114.16808,61,70,0
114.17106,115.06794,70,70,0
114.17106,115.367935,61,70,0
115.07106,115.367935,68,70,0
115.97106,116.56794,68,70,0
115.97106,116.56794,60,70,0
116.57106,116.867935,68,70,0
116.57106,116.867935,60,70,0
116.87106,117.46793,68,70,0
116.87106,117.46793,60,70,0
117.47106,117.76794,68,70,0
117.47106,117.76794,60,70,0
117.771065,118.06794,61,70,0
121.81392,121.88237,77,80,0
121.885345,122.23951,89,103,0
122.242485,122.38237,87,80,0
122.385345,122.52522,86,80,0
122.5282,122.66808,83,80,0
122.67106,122.810936,82,80,0
122.81391,122.9538,80,80,0
122.95677,123.23951,78,80,0
125.242485,125.310936,75,80,0
125.31391,125.668076,87,104,0
125.67106,125.810936,85,80,0
125.81391,125.9538,84,80,0
125.95677,126.09665,82,80,0
126.099625,126.23951,80,80,0
126.242485,126.38236,78,80,0
126.38534,126.95379,77,80,0
126.38534,126.95379,65,80,0
126.956764,127.23951,77,80,0
126.956764,127.23951,68,80,0
126.956764,127.23951,65,80,0
127.242485,127.810936,77,80,0
127.242485,127.810936,68,80,0
127.242485,127.810936,65,80,0
127.81391,128.09665,77,80,0
127.81391,128.09665,68,80,0
127.81391,128.09665,65,80,0
128.09962,128.9538,77,80,0
128.09962,128.9538,66,80,0
128.09962,129.2395,70,80,0
128.95677,129.2395,75,80,0
129.5282,129.66808,75,80,0
129.5282,129.66808,72,80,0
129.67105,129.81093,77,80,0
129.67105,129.81093,73,80,0
129.8139,130.38235,78,80,0
129.8139,130.38235,75,80,0
129.8139,130.38235,72,80,0
130.38533,130.66808,78,80,0
130.38533,130.66808,75,80,0
130.38533,130.66808,72,80,0
130.67105,131.26793,78,80,0
130.67105,131.26793,75,80,0
130.67105,131.26793,72,80,0
131.27106,131.56793,78,80,0
131.27106,131.56793,75,80,0
131.27106,131.56793,72,80,0
131.57104,132.56758,78,80,0
131.57104,132.56758,75,80,0
131.57104,132.56758,72,80,0
132.57104,132.90091,77,80,0
132.57104,132.90091,73,80,0
133.57104,134.16792,70,80,0
133.57104,134.16792,61,80,0
134.17105,134.46793,70,80,0
134.17105,134.46793,61,80,0
134.47105,135.06792,70,80,0
134.47105,135.06792,61,80,0
135.07104,135.36792,70,80,0
135.07104,135.36792,61,80,0
135.37105,136.26793,70,80,0
135.37105,137.16792,61,80,0
136.27104,137.16792,69,80,0
137.17105,137.76793,68,70,0
137.17105,137.76793,60,70,0
137.77104,138.06792,68,70,0
137.77104,138.06792,60,70,0
138.07104,138.66792,68,70,0
138.07104,138.66792,60,70,0
138.67105,138.96793,68,70,0
138.67105,138.96793,60,70,0
138.97105,139.26793,61,70,0
140.77104,141.36792,61,70,0
141.37105,141.66792,61,70,0
141.67105,142.26793,61,70,0
142.27104,142.56792,61,70,0
142.57104,144.36792,60,70,0
144.37105,144.96793,64,70,0
144.37105,144.96793,58,70,0
144.37105,144.96793,55,70,0
144.97105,145.26793,64,70,0
144.97105,145.26793,58,70,0
144.97105,145.26793,55,70,0
145.27104,145.86792,64,70,0
145.27104,145.86792,58,70,0
145.27104,145.86792,55,70,0
145.87105,146.16792,64,70,0
145.87105,146.16792,58,70,0
145.87105,146.16792,55,70,0
146.17105,146.45378,53,80,0
146.17105,146.45378,65,80,0
146.45676,146.7395,56,80,0
146.74248,147.0252,52,80,0
147.02818,147.31093,53,80,0
147.3139,147.59665,56,80,0
147.59962,147.88235,60,80,0
147.88533,148.16808,61,80,0
148.17105,148.45378,58,80,0
148.45676,148.7395,64,80,0
148.74248,149.0252,65,80,0
149.02818,149.31093,60,80,0
149.3139,149.59663,67,80,0
149.59961,150.16806,68,80,0
149.88533,150.16806,65,80,0
150.17105,150.45378,70,80,0
150.17105,150.7395,63,80,0
150.45676,151.0252,72,80,0
150.45676,151.0252,68,80,0
151.02818,151.16806,75,80,0
150.74248,151.31093,65,80,0
151.02818,151.31093,70,80,0
151.17104,151.31093,73,80,0
151.3139,151.88235,72,80,0
151.3139,151.88235,68,80,0
151.3139,151.88235,63,80,0
151.88533,152.16806,70,80,0
151.88533,152.16806,67,80,0
151.88533,152.16806,61,80,0
152.17104,152.45378,60,80,0
152.17104,152.45378,68,80,0
152.88533,153.16806,48,80,0
153.17104,153.45378,53,80,0
153.45676,153.73949,56,80,0
153.74246,154.0252,52,80,0
154.02818,154.31093,53,80,0
154.3139,154.59663,56,80,0
154.59961,154.88235,60,80,0
154.88533,155.16806,61,80,0
155.17104,155.45378,58,80,0
155.45676,155.73949,64,80,0
155.74246,156.0252,65,80,0
156.02818,156.31091,60,80,0
156.31389,156.59663,67,80,0
156.59961,157.16806,68,80,0
156.88533,157.16806,65,80,0
157.17104,157.45378,70,80,0
157.31389,157.73949,72,80,0
157.45676,157.88234,68,80,0
157.74246,157.88234,72,80,0
157.88531,158.0252,75,80,0
158.02818,158.16806,73,80,0
158.02818,158.16806,65,80,0
157.88531,158.45378,70,80,0
158.17104,158.59663,72,80,0
158.31389,158.73949,63,80,0
158.45676,158.73949,68,80,0
158.59961,158.73949,73,80,0
158.74246,158.88234,70,80,0
158.74246,159.0252,67,80,0
158.74246,159.0252,61,80,0
158.88531,159.0252,72,80,0
159.02818,159.31091,60,80,0
159.02818,159.31091,68,80,0
159.59961,159.88234,72,80,0
159.88531,160.16806,72,80,0
160.17104,160.31091,71,80,0
160.31389,160.45377,72,80,0
160.45674,160.73949,73,80,0
160.45674,160.73949,65,80,0
160.74246,161.02519,73,80,0
160.74246,161.02519,65,80,0
161.02818,161.16806,64,80,0
161.17104,161.31091,65,80,0
161.31389,161.59663,73,80,0
161.31389,161.59663,67,80,0
161.59961,161.88234,73,80,0
161.59961,161.88234,67,80,0
161.88531,162.02519,72,80,0
162.02817,162.16806,73,80,0
162.17104,162.45377,75,80,0
162.17104,162.45377,67,80,0
162.45674,162.73949,75,80,0
162.45674,162.73949,67,80,0
162.74246,162.88234,65,80,0
162.88531,163.02519,67,80,0
163.02817,163.31091,75,80,0
163.02817,163.31091,69,80,0
163.31389,163.59662,75,80,0
163.31389,163.59662,69,80,0
163.59961,163.73949,74,80,0
163.74246,163.88234,75,80,0
163.88531,164.16806,77,80,0
163.88531,164.16806,69,80,0
164.17104,164.45377,77,80,0
164.17104,164.45377,69,80,0
164.45674,164.59662,67,80,0
164.5996,164.73949,69,80,0
164.74246,165.02519,77,80,0
164.74246,165.02519,70,80,0
165.02817,165.10005,77,80,0
165.10316,165.17505,79,80,0
165.17818,165.25005,77,80,0
165.25317,165.32504,79,80,0
165.32817,165.40004,77,80,0
165.40317,165.47505,79,80,0
165.47816,165.55005,76,80,0
165.02817,165.62505,71,80,0
165.55318,165.62505,77,80,0
165.62817,165.95804,79,80,0
165.62817,165.95804,71,80,0
165.9615,167.6247,67,80,0
165.9615,167.6247,72,80,0
167.62817,167.95804,72,80,0
167.9615,168.24425,77,80,0
168.24722,168.52995,80,80,0
168.53293,168.95853,76,80,0
168.9615,169.24425,77,80,0
169.24722,169.52995,80,80,0
169.53293,169.81567,84,80,0
169.81865,170.10138,85,80,0
170.10435,170.3871,82,80,0
170.39008,170.6728,88,80,0
170.67578,170.95853,89,80,0
170.9615,171.24423,84,80,0
171.24721,171.52995,80,80,0
171.53293,171.81566,82,80,0
171.81865,172.10138,85,80,0
172.10435,172.3871,79,80,0
172.39008,172.6728,80,80,0
172.67578,172.95853,80,80,0
172.9615,173.10138,80,80,0
173.24721,173.52995,73,80,0
173.24721,173.52995,70,80,0
173.10435,173.6728,80,80,0
173.53293,173.81566,73,80,0
173.53293,173.81566,70,80,0
173.67578,173.95853,79,80,0
173.81863,173.95853,73,80,0
173.81863,173.95853,70,80,0
174.10435,174.38708,73,80,0
174.10435,174.38708,70,80,0
173.9615,174.52995,80,80,0
174.39006,174.6728,73,80,0
174.39006,174.6728,70,80,0
174.53293,174.81566,79,80,0
174.67578,174.81566,73,80,0
174.67578,174.81566,70,80,0
174.81863,175.10138,77,80,0
174.9615,175.24423,68,80,0
175.10435,175.38708,79,80,0
175.24721,175.52995,70,80,0
175.39006,175.6728,76,80,0
175.53293,175.6728,67,80,0
175.67578,175.81566,77,80,0
175.67578,175.95851,68,80,0
175.81863,175.95851,75,80,0
175.9615,176.10138,73,80,0
176.10435,176.24423,72,80,0
176.24721,176.38708,70,80,0
176.39006,176.52995,68,80,0
176.67578,176.95851,61,80,0
176.67578,176.95851,58,80,0
176.53293,177.10138,68,80,0
176.96149,177.24423,61,80,0
176.96149,177.24423,58,80,0
177.10435,177.38708,67,80,0
177.24721,177.38708,61,80,0
177.24721,177.38708,58,80,0
177.53293,177.81566,61,80,0
177.53293,177.81566,58,80,0
177.39006,177.95851,68,80,0
177.81863,178.10138,61,80,0
177.81863,178.10138,58,80,0
177.96149,178.24423,67,80,0
178.10435,178.24423,61,80,0
178.10435,178.24423,58,80,0
178.24721,178.52994,65,80,0
178.39006,178.6728,56,80,0
178.53293,178.81566,67,80,0
178.67578,178.95851,58,80,0
178.81863,179.10138,64,80,0
178.96149,179.10138,55,80,0
179.10435,179.38708,65,80,0
179.10435,179.38708,56,80,0
179.67578,179.95851,60,80,0
179.96149,180.52994,64,84,0
180.53291,180.81566,65,92,0
180.81863,181.38708,67,97,0
180.81863,181.38708,64,97,0
181.39006,181.6728,65,105,0
181.39006,181.6728,68,105,0
181.67578,182.10136,72,109,0
181.67578,182.10136,67,109,0
181.67578,182.10136,64,109,0
182.10434,182.24423,70,80,0
182.24721,182.38708,68,80,0
182.39006,182.52994,67,80,0
182.53291,182.67279,70,80,0
182.67578,182.81566,68,80,0
182.81863,182.95851,67,80,0
182.96149,183.10136,65,80,0
183.10434,183.24423,72,80,0
183.17577,183.31566,73,80,0
183.24721,183.38708,71,80,0
183.31863,183.38708,72,80,0
183.55222,183.87317,72,80,0
183.39006,184.03532,76,80,0
183.39006,184.03532,79,80,0
183.87654,184.1975,72,80,0
184.03871,184.35965,77,80,0
184.03871,184.35965,80,80,0
184.20087,184.54663,72,80,0
184.36304,184.73413,79,80,0
184.36304,184.73413,82,80,0
184.55054,184.73413,72,80,0
184.73804,184.92163,71,80,0
184.92554,185.10913,72,80,0
185.11304,185.60782,88,80,0
185.11304,185.60782,79,80,0
185.11304,185.60782,76,80,0
185.61304,186.60782,89,80,0
185.61304,186.60782,80,80,0
185.61304,186.60782,77,80,0
187.61304,187.85782,65,1,0
0.0,0.28273782,36,80,0
0.285714,0.5684518,41,80,0
0.571428,0.8541658,44,80,0
0.857142,1.1398798,40,80,0
1.142856,1.4255939,41,80,0
1.42857,1.7113078,44,80,0
1.714284,1.9970218,48,80,0
1.999998,2.2827358,49,80,0
2.285712,2.5684497,46,80,0
2.571426,2.854164,52,80,0
2.85714,3.1398778,53,80,0
3.142854,3.4255917,48,80,0
3.428568,3.7113059,55,80,0
3.714282,3.9970198,56,80,0
3.999996,4.282734,53,80,0
4.28571,4.5684476,55,80,0
4.28571,4.5684476,58,80,0
4.571424,5.139876,60,80,0
4.571424,5.139876,56,80,0
4.857138,5.139876,53,80,0
5.142852,5.42559,49,80,0
5.428566,5.7113037,51,80,0
5.71428,5.997018,39,80,0
5.999994,6.282732,39,80,0
6.285708,6.5684457,44,80,0
6.571422,6.85416,32,80,0
6.857136,7.139874,36,80,0
7.14285,7.4255877,41,80,0
7.428564,7.711302,44,80,0
7.714278,7.997016,40,80,0
7.999992,8.28273,41,80,0
8.285706,8.568444,44,80,0
8.57142,8.854157,48,80,0
8.857134,9.139872,49,80,0
9.142848,9.425586,46,80,0
9.428562,9.7113,52,80,0
9.714276,9.997014,53,80,0
9.99999,10.282728,48,80,0
10.285704,10.568441,55,80,0
10.571418,10.854156,56,80,0
10.857132,11.13987,53,80,0
11.142846,11.425584,55,80,0
11.142846,11.425584,58,80,0
11.42856,11.997012,60,80,0
11.42856,11.997012,56,80,0
11.714274,11.997012,53,80,0
11.999988,12.282726,49,80,0
12.285702,12.5684395,51,80,0
12.571416,12.854154,39,80,0
12.85713,13.139868,39,80,0
13.142844,13.425582,44,80,0
13.428558,13.711296,32,80,0
14.571414,14.854152,60,90,0
14.571414,14.854152,56,90,0
14.857128,15.42558,58,90,0
14.857128,15.42558,61,90,0
15.428556,15.711294,58,90,0
15.428556,15.711294,61,90,0
15.71427,16.282722,58,90,0
15.71427,16.282722,61,90,0
16.285698,16.568436,58,90,0
16.285698,16.568436,61,90,0
16.571411,17.139864,60,90,0
16.571411,17.139864,63,90,0
17.14284,17.425577,60,90,0
17.14284,17.425577,63,90,0
17.428555,17.997005,60,90,0
17.428555,17.997005,63,90,0
17.999983,18.28272,60,90,0
17.999983,18.28272,63,90,0
18.285696,18.913984,61,90,0
18.285696,18.913984,65,90,0
18.917274,19.229774,65,90,0
18.917274,19.229774,61,90,0
19.233063,19.896257,61,90,0
19.233063,19.896257,65,90,0
19.899729,20.323835,61,90,0
19.899729,20.323835,65,90,0
20.3283,22.46669,60,90,0
20.3283,22.46669,64,90,0
26.04258,26.325317,72,70,0
26.328295,26.611032,73,70,0
26.614008,26.896746,70,70,0
26.899721,27.182459,76,70,0
27.185436,27.468174,77,70,0
27.47115,27.753887,72,70,0
27.756865,28.039602,60,80,0
28.042578,28.325315,61,80,0
28.328293,28.61103,58,80,0
28.614006,28.896744,64,80,0
28.89972,29.182457,61,80,0
29.185434,29.468172,58,80,0
29.471148,29.753885,64,80,0
29.756863,30.325314,60,80,0
30.32829,30.611029,60,80,0
30.614004,30.896742,53,80,0
31.185432,31.46817,48,80,0
31.471146,31.753883,49,80,0
31.75686,32.039597,46,80,0
32.042576,32.325314,52,80,0
32.32829,32.611027,49,80,0
32.614002,32.89674,46,80,0
32.899715,33.182453,52,80,0
33.18543,33.753883,48,80,0
33.75686,34.039597,48,80,0
34.042572,34.32531,41,80,0
34.042572,34.32531,53,80,0
34.899715,35.468166,58,80,0
35.47114,35.75388,56,80,0
35.756855,36.325306,55,80,0
35.756855,36.325306,58,80,0
34.899715,36.611023,48,80,0
36.328285,36.611023,56,80,0
36.328285,36.611023,53,80,0
36.614,37.526497,60,80,0
36.614,37.526497,55,80,0
36.614,37.526497,52,80,0
36.614,37.526497,48,80,0
37.529785,37.842285,60,80,0
37.529785,37.842285,56,80,0
37.529785,37.842285,53,80,0
38.477154,39.105442,67,80,0
38.477154,39.105442,70,80,0
39.10873,39.42123,65,80,0
39.10873,39.42123,68,80,0
38.477154,39.737022,60,80,0
39.424522,39.737022,64,80,0
39.424522,39.737022,67,80,0
40.0561,40.3686,60,80,0
40.0561,40.3686,48,80,0
40.371887,40.684387,53,80,0
40.371887,40.684387,41,80,0
42.83805,43.12079,60,80,0
42.83805,43.12079,56,80,0
43.123764,43.692215,58,80,0
43.123764,43.692215,61,80,0
43.69519,43.97793,58,80,0
43.69519,43.97793,61,80,0
43.980907,44.54936,58,80,0
43.980907,44.54936,61,80,0
44.552334,44.83507,58,80,0
44.552334,44.83507,61,80,0
44.838047,45.406498,60,80,0
44.838047,45.406498,63,80,0
45.409477,45.692215,60,80,0
45.409477,45.692215,63,80,0
45.69519,46.26364,60,80,0
45.69519,46.26364,63,80,0
46.266617,46.549355,60,80,0
46.266617,46.549355,63,80,0
46.552334,47.149208,61,80,0
46.552334,47.149208,65,80,0
47.152332,47.464832,65,100,0
47.152332,47.464832,61,100,0
47.46812,48.09641,61,100,0
47.46812,48.09641,65,100,0
48.099697,48.523808,61,100,0
48.099697,48.523808,65,100,0
48.52827,50.66666,60,100,0
48.52827,50.66666,64,100,0
54.24255,54.525288,72,80,0
54.528263,54.811,73,80,0
54.813976,55.096714,70,80,0
55.099693,55.38243,76,80,0
55.385406,55.668144,77,80,0
55.67112,55.953857,72,80,0
55.956833,56.23957,60,80,0
56.24255,56.525288,61,80,0
56.528263,56.811,58,80,0
56.813976,57.096714,64,80,0
57.09969,57.382427,61,80,0
57.385403,57.66814,58,80,0
57.67112,57.953857,64,80,0
57.956833,58.525284,60,80,0
58.52826,58.810997,60,80,0
58.813972,59.09671,53,80,0
59.385403,59.66814,48,80,0
59.671116,59.953854,49,80,0
59.95683,60.239567,46,80,0
60.242542,60.52528,52,80,0
60.52826,60.810997,49,80,0
60.813972,61.09671,46,80,0
61.099686,61.382423,52,80,0
61.3854,61.953854,48,80,0
61.95683,62.239567,48,80,0
62.242542,62.52528,41,80,0
62.242542,62.52528,53,80,0
63.099686,63.668137,58,80,0
63.671112,63.95385,56,80,0
63.956825,64.525276,55,80,0
63.956825,64.525276,58,80,0
63.099686,64.81099,48,80,0
64.52825,64.81099,56,80,0
64.52825,64.81099,53,80,0
64.813965,65.66814,60,80,0
64.813965,65.66814,55,80,0
64.813965,65.66814,52,80,0
64.813965,65.66814,48,80,0
65.67111,65.95385,60,80,0
65.67111,65.95385,56,80,0
65.67111,65.95385,53,80,0
66.575874,67.23907,67,84,0
66.575874,67.23907,70,84,0
67.24254,67.572395,65,94,0
67.24254,67.572395,68,94,0
66.575874,67.90573,60,84,0
67.57587,67.90573,64,99,0
67.57587,67.90573,67,99,0
68.24254,68.572395,60,110,0
68.24254,68.572395,48,110,0
68.57587,68.90573,53,110,0
68.57587,68.90573,41,110,0
70.24253,70.572395,49,80,0
70.24253,70.572395,37,80,0
70.57587,71.23906,49,80,0
70.57587,71.23906,37,80,0
71.24253,71.572395,49,80,0
71.24253,71.572395,37,80,0
71.57587,72.23906,49,80,0
71.57587,72.23906,37,80,0
72.24253,72.572395,49,80,0
72.24253,72.572395,37,80,0
72.57587,74.73732,37,80,0
72.57587,74.73732,49,80,0
74.74253,75.31098,48,80,0
74.74253,75.31098,36,80,0
75.31396,75.596695,48,80,0
75.31396,75.596695,36,80,0
75.59967,76.16812,48,80,0
75.59967,76.16812,36,80,0
76.1711,76.453835,48,80,0
76.1711,76.453835,36,80,0
76.45682,77.596695,37,80,0
76.45682,77.596695,49,80,0
78.1711,78.73955,56,80,0
78.1711,78.73955,49,80,0
78.74252,79.02526,56,87,0
78.74252,79.02526,49,87,0
79.02824,79.596695,56,91,0
79.02824,79.596695,48,91,0
79.59967,79.88241,56,99,0
79.59967,79.88241,48,99,0
79.88538,80.73955,56,110,0
79.88538,81.310974,46,110,0
79.88538,81.310974,51,110,0
80.74252,81.310974,55,110,0
81.31395,81.59669,56,80,0
81.31395,81.59669,51,80,0
81.31395,81.59669,48,80,0
81.59966,82.16812,58,80,0
81.59966,82.16812,53,80,0
81.59966,82.16812,49,80,0
82.1711,82.453835,59,80,0
82.1711,82.453835,53,80,0
82.1711,82.453835,50,80,0
82.45681,83.02526,60,80,0
82.45681,83.02526,51,80,0
83.02824,83.310974,58,80,0
83.02824,83.310974,51,80,0
83.31395,84.16811,55,80,0
83.31395,84.45383,44,80,0
83.885376,84.45383,51,80,0
84.17109,84.45383,56,80,0
85.31395,85.59669,49,80,0
85.31395,85.59669,37,80,0
86.17109,86.45383,49,80,0
86.17109,86.45383,37,80,0
87.02823,87.31097,49,80,0
87.31395,87.45383,51,80,0
87.4568,87.59669,53,80,0
87.59966,87.73954,54,80,0
87.742516,87.8824,53,80,0
87.885376,88.02525,51,80,0
88.02823,88.16811,49,80,0
88.17109,88.31097,48,80,0
88.31394,88.45383,46,80,0
88.4568,88.73954,45,80,0
88.742516,89.02525,45,80,0
89.599655,89.88239,45,80,0
90.4568,90.73954,45,80,0
90.742516,90.88239,46,80,0
90.88537,91.02525,48,80,0
91.02823,91.168106,49,80,0
91.17108,91.31097,48,80,0
91.31394,91.45382,46,80,0
91.4568,91.59668,44,80,0
91.599655,91.73954,43,80,0
91.742516,91.88239,41,80,0
91.88537,92.168106,40,80,0
92.17108,92.45382,40,80,0
93.02823,93.31097,40,80,0
93.88537,94.168106,40,80,0
94.17108,94.31097,41,80,0
94.31394,94.45382,43,80,0
94.456795,94.59668,44,80,0
94.599655,94.73953,43,80,0
94.74251,94.88239,41,80,0
94.88537,95.025246,39,80,0
95.02822,95.168106,37,80,0
95.17108,95.31096,36,80,0
95.313934,95.59667,37,80,0
95.599655,95.88239,37,80,0
96.456795,96.73953,39,80,0
97.313934,97.45382,32,80,0
97.456795,97.59667,36,80,0
97.59965,97.73953,39,80,0
97.74251,97.882385,44,80,0
97.88536,98.1681,32,80,0
98.456795,98.73953,59,70,0
98.456795,98.73953,56,70,0
98.456795,98.73953,53,70,0
98.74251,99.31096,59,73,0
98.74251,99.31096,56,73,0
98.74251,99.31096,53,73,0
99.313934,99.59667,59,79,0
99.313934,99.59667,56,79,0
99.313934,99.59667,53,79,0
99.59965,100.1681,59,83,0
99.59965,100.1681,56,83,0
99.59965,100.1681,53,83,0
99.59965,100.1681,51,83,0
100.171074,100.45381,59,89,0
100.171074,100.45381,56,89,0
100.171074,100.45381,53,89,0
100.171074,100.45381,51,89,0
100.45679,101.31096,59,80,0
100.45679,101.59667,50,80,0
100.45679,101.59667,53,80,0
100.45679,101.59667,56,80,0
101.313934,101.59667,58,80,0
102.171074,102.739525,58,70,0
102.171074,102.739525,54,70,0
102.171074,102.739525,51,70,0
102.7425,103.02524,58,76,0
102.7425,103.02524,54,76,0
102.7425,103.02524,51,76,0
103.02821,103.596664,57,79,0
103.02821,103.596664,54,79,0
103.02821,103.596664,51,79,0
103.02821,103.596664,49,79,0
103.59965,103.882385,57,86,0
103.59965,103.882385,54,86,0
103.59965,103.882385,51,86,0
103.59965,103.882385,49,86,0
103.88536,104.739525,57,89,0
103.88536,105.02524,48,89,0
103.88536,105.02524,51,89,0
103.88536,105.02524,54,89,0
104.7425,105.02524,56,99,0
105.59964,105.88238,49,80,0
105.88535,106.16809,61,80,0
106.7425,107.02524,61,80,0
107.59964,107.88238,61,80,0
107.88535,108.02524,63,80,0
108.02821,108.16809,65,80,0
108.17107,108.31095,66,80,0
108.31393,108.453804,65,80,0
108.45678,108.596664,63,80,0
108.59964,108.73952,61,80,0
108.74249,108.88238,60,80,0
108.88535,109.02523,58,80,0
109.02821,109.31095,57,80,0
109.31393,109.596664,69,84,0
110.17107,110.453804,69,99,0
111.028206,111.88238,70,80,0
112.45678,113.02523,52,70,0
112.45678,113.02523,43,70,0
113.028206,113.31094,52,70,0
113.028206,113.31094,43,70,0
113.31392,113.88237,52,70,0
113.31392,113.88237,43,70,0
113.885345,114.16808,52,70,0
113.885345,114.16808,43,70,0
114.17106,115.06794,52,70,0
114.17106,115.367935,44,70,0
115.07106,115.367935,53,70,0
115.97106,116.56794,54,70,0
115.97106,116.56794,44,70,0
116.57106,116.867935,54,70,0
116.57106,116.867935,44,70,0
116.87106,117.46793,54,70,0
116.87106,117.46793,44,70,0
117.47106,117.76794,54,70,0
117.47106,117.76794,44,70,0
117.771065,118.06794,53,70,0
117.771065,118.06794,49,70,0
119.24249,119.52523,59,80,0
119.24249,119.52523,56,80,0
119.24249,119.52523,53,80,0
119.528206,120.09666,59,80,0
119.528206,120.09666,56,80,0
119.528206,120.09666,53,80,0
120.09963,120.38237,59,80,0
120.09963,120.38237,56,80,0
120.09963,120.38237,53,80,0
120.385345,120.9538,59,80,0
120.385345,120.9538,56,80,0
120.385345,120.9538,53,80,0
120.385345,120.9538,51,80,0
120.95677,121.23951,59,80,0
120.95677,121.23951,56,80,0
120.95677,121.23951,53,80,0
120.95677,121.23951,51,80,0
121.242485,122.09666,59,80,0
121.242485,122.38237,50,80,0
121.242485,122.38237,53,80,0
121.242485,122.38237,56,80,0
122.09963,122.38237,58,80,0
122.95677,123.52522,58,80,0
122.95677,123.52522,54,80,0
122.95677,123.52522,51,80,0
123.5282,123.810936,58,80,0
123.5282,123.810936,54,80,0
123.5282,123.810936,51,80,0
123.81391,124.38236,57,80,0
123.81391,124.38236,54,80,0
123.81391,124.38236,51,80,0
123.81391,124.38236,49,80,0
124.385345,124.66808,57,80,0
124.385345,124.66808,54,80,0
124.385345,124.66808,51,80,0
124.385345,124.66808,49,80,0
124.67106,125.52522,57,80,0
124.67106,125.810936,48,80,0
124.67106,125.810936,51,80,0
124.67106,125.810936,54,80,0
125.5282,125.810936,56,80,0
126.38534,126.668076,49,80,0
126.67105,126.95379,61,80,0
127.5282,127.810936,61,80,0
128.38535,128.66808,61,80,0
128.67105,128.81093,63,80,0
128.8139,128.9538,65,80,0
128.95677,129.09665,66,80,0
129.09962,129.2395,65,80,0
129.24248,129.38235,63,80,0
129.38533,129.52522,61,80,0
129.5282,129.66808,60,80,0
129.67105,129.81093,58,80,0
129.8139,130.09665,57,80,0
130.09962,130.38235,69,80,0
130.97105,131.26793,69,80,0
131.90439,132.90091,70,80,0
133.57104,134.16792,52,80,0
133.57104,134.16792,43,80,0
134.17105,134.46793,52,80,0
134.17105,134.46793,43,80,0
134.47105,135.06792,52,80,0
134.47105,135.06792,43,80,0
135.07104,135.36792,52,80,0
135.07104,135.36792,43,80,0
135.37105,136.26793,52,80,0
135.37105,137.16792,44,80,0
136.27104,137.16792,53,80,0
137.17105,137.76793,54,70,0
137.17105,137.76793,44,70,0
137.77104,138.06792,54,70,0
137.77104,138.06792,44,70,0
138.07104,138.66792,54,70,0
138.07104,138.66792,44,70,0
138.67105,138.96793,54,70,0
138.67105,138.96793,44,70,0
138.97105,139.26793,53,70,0
138.97105,139.26793,49,70,0
140.77104,141.36792,49,70,0
141.37105,141.66792,49,70,0
141.67105,142.26793,49,70,0
142.27104,142.56792,49,70,0
142.57104,144.36792,48,70,0
144.37105,144.96793,48,70,0
144.37105,144.96793,36,70,0
144.97105,145.26793,48,70,0
144.97105,145.26793,36,70,0
145.27104,145.86792,48,70,0
145.27104,145.86792,36,70,0
145.87105,146.16792,48,70,0
145.87105,146.16792,36,70,0
146.17105,146.45378,41,80,0
146.45676,146.7395,44,80,0
146.74248,147.0252,40,80,0
147.02818,147.31093,41,80,0
147.3139,147.59665,44,80,0
147.59962,147.88235,48,80,0
147.88533,148.16808,49,80,0
148.17105,148.45378,46,80,0
148.45676,148.7395,52,80,0
148.74248,149.0252,53,80,0
149.02818,149.31093,48,80,0
149.3139,149.59663,55,80,0
149.59961,149.88235,56,80,0
149.88533,150.16806,53,80,0
150.17105,150.45378,55,80,0
150.17105,150.45378,58,80,0
150.45676,151.0252,60,80,0
150.45676,151.0252,56,80,0
150.74248,151.0252,53,80,0
151.02818,151.31093,49,80,0
151.3139,151.59663,51,80,0
151.59961,151.88235,39,80,0
151.88533,152.16806,39,80,0
152.17104,152.45378,44,80,0
152.45676,152.73949,32,80,0
152.74248,153.0252,36,80,0
153.02818,153.31093,41,80,0
153.3139,153.59663,44,80,0
153.59961,153.88235,40,80,0
153.88533,154.16806,41,80,0
154.17104,154.45378,44,80,0
154.45676,154.73949,48,80,0
154.74246,155.0252,49,80,0
155.02818,155.31091,46,80,0
155.31389,155.59663,52,80,0
155.59961,155.88235,53,80,0
155.88533,156.16806,48,80,0
156.17104,156.45378,55,80,0
156.45676,156.73949,56,80,0
156.74246,157.0252,53,80,0
157.02818,157.31091,55,80,0
157.02818,157.31091,58,80,0
157.31389,157.59663,56,80,0
157.31389,157.59663,60,80,0
157.59961,157.88234,53,80,0
157.88531,158.16806,49,80,0
158.17104,158.45378,51,80,0
158.45676,158.73949,39,80,0
158.74246,159.0252,39,80,0
159.02818,159.31091,44,80,0
159.31389,159.59663,32,80,0
159.88531,160.0252,56,80,0
160.02818,160.16806,60,80,0
160.17104,160.31091,56,80,0
160.31389,160.45377,60,80,0
160.45674,160.59663,56,80,0
160.59961,160.73949,60,80,0
160.74246,160.88234,58,80,0
160.88531,161.02519,61,80,0
161.02818,161.16806,58,80,0
161.17104,161.31091,61,80,0
161.31389,161.45377,58,80,0
161.45674,161.59663,61,80,0
161.59961,161.73949,58,80,0
161.74246,161.88234,61,80,0
161.88531,162.02519,58,80,0
162.02817,162.16806,61,80,0
162.17104,162.31091,58,80,0
162.31389,162.45377,61,80,0
162.45674,162.59663,60,80,0
162.59961,162.73949,63,80,0
162.74246,162.88234,60,80,0
162.88531,163.02519,63,80,0
163.02817,163.16806,60,80,0
163.17104,163.31091,63,80,0
163.31389,163.45377,60,80,0
163.45674,163.59662,63,80,0
163.59961,163.73949,60,80,0
163.74246,163.88234,63,80,0
163.88531,164.02519,60,80,0
164.02817,164.16806,63,80,0
164.17104,164.31091,61,80,0
164.31389,164.45377,65,80,0
164.45674,164.59662,61,80,0
164.5996,164.73949,65,80,0
164.74246,164.88234,61,80,0
164.88531,165.02519,65,80,0
165.02817,165.17505,62,80,0
165.17818,165.32504,65,80,0
165.32817,165.47505,62,80,0
165.47816,165.62505,65,80,0
165.62817,165.79137,62,80,0
165.79485,165.95804,65,80,0
165.9615,167.6247,60,80,0
165.9615,167.6247,64,80,0
168.53293,168.81567,72,80,0
168.81865,169.10138,68,80,0
169.10435,169.3871,65,80,0
169.39008,169.6728,68,80,0
169.67578,169.95853,70,80,0
169.9615,170.24423,65,80,0
170.24721,170.52995,70,80,0
170.53293,170.81567,68,80,0
170.81865,171.10138,65,80,0
171.10435,171.3871,72,80,0
171.39008,171.6728,73,80,0
171.67578,171.95853,70,80,0
171.9615,172.24423,76,80,0
172.24721,172.52995,77,80,0
172.53293,172.81566,72,80,0
172.81863,173.10138,60,80,0
173.10435,173.3871,61,80,0
173.39008,173.6728,58,80,0
173.67578,173.95853,64,80,0
173.9615,174.24423,61,80,0
174.24721,174.52995,58,80,0
174.53293,174.81566,64,80,0
174.81863,175.10138,60,80,0
175.10435,175.38708,60,80,0
175.39006,175.6728,60,80,0
175.67578,175.95851,53,80,0
176.24721,176.52995,48,80,0
176.53293,176.81566,49,80,0
176.81863,177.10138,46,80,0
177.10435,177.38708,52,80,0
177.39006,177.6728,49,80,0
177.67578,177.95851,46,80,0
177.96149,178.24423,52,80,0
178.24721,178.52994,48,80,0
178.53293,178.81566,48,80,0
178.81863,179.10138,48,80,0
179.10435,179.38708,53,80,0
179.10435,179.38708,41,80,0
180.24721,180.52994,58,88,0
179.96149,180.81566,48,84,0
180.53291,180.81566,56,92,0
181.10434,181.38708,58,101,0
181.10434,181.38708,55,101,0
180.81863,181.6728,48,97,0
181.39006,181.6728,56,105,0
181.39006,181.6728,53,105,0
181.67578,182.52994,60,109,0
181.67578,182.52994,55,109,0
181.67578,182.52994,52,109,0
181.67578,182.52994,48,109,0
182.53291,182.81566,60,80,0
182.53291,182.81566,56,80,0
182.53291,182.81566,53,80,0
183.71439,184.03532,67,80,0
183.71439,184.03532,70,80,0
184.03871,184.35965,65,80,0
184.03871,184.35965,68,80,0
183.39006,184.73413,60,80,0
184.36304,184.73413,64,80,0
184.36304,184.73413,67,80,0
185.11304,185.60782,60,80,0
185.11304,185.60782,48,80,0
185.61304,186.60782,53,80,0
185.61304,186.60782,41,80,0
