start_time,end_time,note_value,velocity,instrument_program_number
3.0722826,3.24924,60,100,0
3.253005,3.4299624,65,100,0
3.4337275,3.6106849,65,100,0
3.61445,3.7914073,65,100,0
3.7951725,3.97213,60,100,0
3.975895,4.1528525,69,100,0
4.1566176,4.333575,69,100,0
4.33734,4.5142975,69,100,0
4.5180626,4.6950197,65,100,0
4.698785,4.8757424,72,100,0
4.8795075,5.056465,72,100,0
5.06023,5.1468263,72,100,0
5.1505914,5.2371874,74,100,0
5.2409525,5.3275485,72,100,0
5.3313136,5.41791,70,100,0
5.421675,5.5986323,69,100,0
5.6023974,5.779355,69,100,0
5.78312,5.869716,67,100,0
5.8734813,5.9600773,69,100,0
5.9638424,6.1408,67,100,0
6.054204,6.1408,65,100,0
6.144565,6.321522,72,100,0
6.3252873,6.502245,72,100,0
6.50601,6.6829677,72,100,0
6.6867323,6.86369,67,100,0
6.867455,7.0444126,76,100,0
7.0481777,7.225135,76,100,0
7.2289,7.4058576,76,100,0
7.4096227,7.58658,72,100,0
7.590345,7.7673025,79,100,0
7.7710676,7.9480247,79,100,0
7.95179,8.038386,79,100,0
8.042151,8.128747,81,100,0
8.132512,8.219109,79,100,0
8.222874,8.30947,77,100,0
8.313235,8.490192,76,100,0
8.4939575,8.670915,76,100,0
8.67468,8.761276,76,100,0
8.765041,8.851638,74,100,0
8.855403,8.9419985,76,100,0
8.945764,9.03236,72,100,0
9.036125,9.213082,81,100,0
9.216847,9.393805,81,100,0
9.39757,9.484166,81,100,0
9.487931,9.574528,82,100,0
9.578293,9.664888,81,100,0
9.6686535,9.75525,79,100,0
9.759015,9.935972,77,100,0
9.939737,10.116695,77,100,0
10.12046,10.207056,77,100,0
10.210821,10.297418,76,100,0
10.301183,10.387778,77,100,0
10.391543,10.47814,74,100,0
10.481905,10.658862,89,110,0
10.662627,10.839585,89,100,0
10.84335,10.929946,88,100,0
10.933711,11.020308,87,100,0
11.024073,11.110669,88,100,0
11.114433,11.20103,84,100,0
11.204795,11.381752,89,110,0
11.385517,11.562475,89,100,0
11.56624,11.652836,88,100,0
11.656601,11.743197,87,100,0
11.746963,11.833559,88,100,0
11.837324,11.92392,84,100,0
11.927685,12.014281,86,100,0
12.018046,12.104643,84,100,0
12.108408,12.1950035,83,100,0
12.198769,12.285365,81,100,0
12.28913,12.375726,79,100,0
12.379491,12.466087,77,100,0
12.469852,12.556449,76,100,0
12.560214,12.64681,74,100,0
12.650575,12.737171,72,100,0
12.740936,12.827533,71,100,0
12.831298,12.917893,72,100,0
12.9216585,13.008255,74,100,0
13.01202,13.098617,76,100,0
13.102382,13.188977,77,100,0
13.192742,13.279339,79,100,0
13.283104,13.3696995,76,100,0
13.373465,13.460061,77,110,0
13.463826,13.550423,74,110,0
13.554188,13.640783,77,110,0
13.644548,13.731145,74,110,0
13.73491,13.8215065,76,100,0
13.825272,13.911867,75,100,0
13.915632,14.002229,76,100,0
14.005994,14.09259,72,100,0
14.096355,14.182951,77,110,0
14.186716,14.273313,74,110,0
14.277078,14.363674,77,110,0
14.367438,14.454035,74,110,0
14.4578,14.544396,76,100,0
14.5481615,14.634757,75,100,0
14.638522,14.725119,76,100,0
14.728884,14.81548,72,100,0
14.819245,14.905841,81,110,0
14.909606,14.996202,80,110,0
14.999968,15.086564,81,110,0
15.090329,15.176925,80,110,0
15.18069,15.267286,81,110,0
15.271051,15.357648,79,110,0
15.361412,15.448009,77,110,0
15.451774,15.53837,76,110,0
15.542135,15.628731,74,110,0
15.632496,15.719092,72,110,0
15.722857,15.809454,71,110,0
15.813219,15.899815,69,110,0
15.90358,15.990176,67,110,0
15.993941,16.080538,65,110,0
16.084303,16.170898,64,110,0
16.174664,16.26126,62,110,0
16.265024,16.441982,60,110,0
16.445747,16.622705,55,80,0
16.445747,16.622705,52,80,0
16.62647,16.803427,55,80,0
16.62647,16.803427,52,80,0
16.807192,16.98415,60,80,0
16.807192,16.98415,52,80,0
16.987915,17.164873,55,80,0
16.987915,17.164873,52,80,0
17.168638,17.345594,55,80,0
17.168638,17.345594,52,80,0
17.34936,17.526318,55,80,0
17.34936,17.526318,52,80,0
17.530083,17.70704,60,80,0
17.530083,17.70704,52,80,0
17.710806,17.887762,53,80,0
17.710806,17.887762,55,80,0
17.891527,18.068485,62,80,0
17.891527,18.068485,53,80,0
18.07225,18.249207,62,80,0
18.07225,18.249207,53,80,0
18.252972,18.42993,62,80,0
18.252972,18.42993,53,80,0
18.433695,18.610653,62,80,0
18.433695,18.610653,53,80,0
18.614418,18.791374,62,80,0
18.614418,18.791374,53,80,0
18.79514,18.881737,62,80,0
18.79514,18.881737,53,80,0
18.885502,18.972097,64,80,0
18.975863,19.062458,62,80,0
18.975863,19.062458,53,80,0
19.066223,19.15282,64,80,0
19.156586,19.333542,60,80,0
19.337307,19.514265,55,80,0
19.337307,19.514265,52,80,0
19.51803,19.694988,55,80,0
19.51803,19.694988,52,80,0
19.698753,19.87571,60,80,0
19.698753,19.87571,52,80,0
19.879475,20.056433,52,80,0
19.879475,20.056433,55,80,0
20.060198,20.237154,55,80,0
20.060198,20.237154,52,80,0
20.24092,20.417877,55,80,0
20.24092,20.417877,52,80,0
20.421642,20.5986,60,80,0
20.421642,20.5986,52,80,0
20.602365,20.779322,53,80,0
20.602365,20.779322,55,80,0
20.783087,20.960045,62,80,0
20.783087,20.960045,53,80,0
20.96381,21.140768,62,80,0
20.96381,21.140768,53,80,0
21.144533,21.32149,62,80,0
21.144533,21.32149,53,80,0
21.325254,21.502213,62,80,0
21.325254,21.502213,53,80,0
21.505978,21.682936,62,80,0
21.505978,21.682936,53,80,0
21.6867,21.773296,62,80,0
21.6867,21.773296,53,80,0
21.777061,21.863657,64,80,0
21.867422,21.95402,62,80,0
21.867422,21.95402,53,80,0
21.957785,22.04438,64,80,0
22.048145,22.225103,60,80,0
22.048145,22.225103,52,80,0
22.228867,22.405825,55,80,0
22.40959,22.586548,60,80,0
22.40959,22.586548,52,80,0
22.590313,22.76727,55,80,0
22.771034,23.128716,60,80,0
22.771034,23.128716,52,80,0
26.204763,26.38172,60,100,0
26.385485,26.562443,65,100,0
26.566208,26.743164,65,100,0
26.74693,26.923887,65,100,0
26.927652,27.10461,60,100,0
27.108376,27.285332,69,100,0
27.289097,27.466055,69,100,0
27.46982,27.646778,69,100,0
27.650543,27.8275,65,100,0
27.831264,28.008223,72,100,0
28.011988,28.188946,72,100,0
28.19271,28.279306,72,100,0
28.283072,28.369667,74,100,0
28.373432,28.46003,72,100,0
28.463793,28.55039,70,100,0
28.554155,28.731112,69,100,0
28.734877,28.911835,69,100,0
28.9156,29.002195,67,100,0
29.00596,29.092558,69,100,0
29.096323,29.27328,67,100,0
29.186684,29.27328,65,100,0
29.277044,29.454002,72,100,0
29.457767,29.634726,72,100,0
29.63849,29.815447,72,100,0
29.819212,29.99617,67,100,0
29.999935,30.176893,76,100,0
30.180658,30.357615,76,100,0
30.36138,30.538338,76,100,0
30.542103,30.71906,72,100,0
30.722824,30.899782,79,100,0
30.903547,31.080505,79,100,0
31.08427,31.170866,79,100,0
31.174631,31.261227,81,100,0
31.264992,31.35159,79,100,0
31.355354,31.44195,77,100,0
31.445715,31.622673,76,100,0
31.626438,31.803394,76,100,0
31.80716,31.893757,76,100,0
31.897522,31.984118,74,100,0
31.987883,32.07448,76,100,0
32.078243,32.16484,72,100,0
32.168606,32.345562,81,100,0
32.349327,32.526283,81,100,0
32.53005,32.616646,81,100,0
32.62041,32.70701,82,100,0
32.710773,32.797367,81,100,0
32.801132,32.88773,79,100,0
32.891495,33.06845,77,100,0
33.072216,33.249176,77,100,0
33.25294,33.339535,77,100,0
33.3433,33.429897,76,100,0
33.433662,33.52026,77,100,0
33.524025,33.61062,74,100,0
33.614384,33.791344,89,110,0
33.79511,33.972065,89,100,0
33.97583,34.062428,88,100,0
34.066193,34.152786,87,100,0
34.15655,34.24315,88,100,0
34.246914,34.33351,84,100,0
34.337276,34.514233,89,110,0
34.517998,34.694954,89,100,0
34.69872,34.785316,88,100,0
34.78908,34.87568,87,100,0
34.879444,34.966038,88,100,0
34.969803,35.0564,84,100,0
35.060165,35.146763,86,100,0
35.150528,35.23712,84,100,0
35.240887,35.327484,83,100,0
35.33125,35.417847,81,100,0
35.42161,35.508205,79,100,0
35.51197,35.598568,77,100,0
35.602333,35.68893,76,100,0
35.692696,35.77929,74,100,0
35.783054,35.86965,72,100,0
35.873417,35.960014,71,100,0
35.963776,36.050373,72,100,0
36.05414,36.140736,74,100,0
36.1445,36.231094,76,100,0
36.23486,36.321457,77,100,0
36.325222,36.41182,79,100,0
36.415585,36.50218,76,100,0
36.505943,36.59254,77,110,0
36.596306,36.682903,74,110,0
36.68667,36.773262,77,110,0
36.777027,36.863625,74,110,0
36.86739,36.953987,76,100,0
36.957752,37.044346,75,100,0
37.04811,37.13471,76,100,0
37.138474,37.22507,72,100,0
37.228836,37.31543,77,110,0
37.319195,37.405792,74,110,0
37.409557,37.496155,77,110,0
37.49992,37.586514,74,110,0
37.59028,37.676876,76,100,0
37.68064,37.76724,75,100,0
37.771004,37.857597,76,100,0
37.861362,37.94796,72,100,0
37.951725,38.038322,81,110,0
38.042088,38.12868,80,110,0
38.132446,38.219044,81,110,0
38.22281,38.309406,80,110,0
38.31317,38.399765,81,110,0
38.40353,38.490128,79,110,0
38.493893,38.58049,77,110,0
38.584255,38.67085,76,110,0
38.674614,38.76121,74,110,0
38.764977,38.851574,72,110,0
38.85534,38.941933,71,110,0
38.945698,39.032295,69,110,0
39.03606,39.122658,67,110,0
39.126423,39.213017,65,110,0
39.21678,39.30338,64,110,0
39.307144,39.39374,62,110,0
39.397507,39.574463,60,110,0
39.578228,39.755184,55,80,0
39.578228,39.755184,52,80,0
39.75895,39.93591,55,80,0
39.75895,39.93591,52,80,0
39.939674,40.11663,60,80,0
39.939674,40.11663,52,80,0
40.120396,40.29735,55,80,0
40.120396,40.29735,52,80,0
40.301117,40.478073,55,80,0
40.301117,40.478073,52,80,0
40.48184,40.6588,55,80,0
40.48184,40.6588,52,80,0
40.662563,40.83952,60,80,0
40.662563,40.83952,52,80,0
40.843285,41.02024,53,80,0
40.843285,41.02024,55,80,0
41.024006,41.200966,62,80,0
41.024006,41.200966,53,80,0
41.20473,41.381687,62,80,0
41.20473,41.381687,53,80,0
41.385452,41.56241,62,80,0
41.385452,41.56241,53,80,0
41.566174,41.743134,62,80,0
41.566174,41.743134,53,80,0
41.7469,41.923855,62,80,0
41.7469,41.923855,53,80,0
41.92762,42.014217,62,80,0
41.92762,42.014217,53,80,0
42.017982,42.104576,64,80,0
42.10834,42.19494,62,80,0
42.10834,42.19494,53,80,0
42.198704,42.2853,64,80,0
42.289066,42.466022,60,80,0
42.469788,42.646744,55,80,0
42.469788,42.646744,52,80,0
42.65051,42.82747,55,80,0
42.65051,42.82747,52,80,0
42.831234,43.00819,60,80,0
42.831234,43.00819,52,80,0
43.011955,43.18891,52,80,0
43.011955,43.18891,55,80,0
43.192677,43.369637,55,80,0
43.192677,43.369637,52,80,0
43.3734,43.550358,55,80,0
43.3734,43.550358,52,80,0
43.554123,43.73108,60,80,0
43.554123,43.73108,52,80,0
43.734844,43.911804,53,80,0
43.734844,43.911804,55,80,0
43.91557,44.092525,62,80,0
43.91557,44.092525,53,80,0
44.09629,44.273247,62,80,0
44.09629,44.273247,53,80,0
44.27701,44.453968,62,80,0
44.27701,44.453968,53,80,0
44.457733,44.634693,62,80,0
44.457733,44.634693,53,80,0
44.63846,44.815414,62,80,0
44.63846,44.815414,53,80,0
44.81918,44.905777,62,80,0
44.81918,44.905777,53,80,0
44.909542,44.996136,64,80,0
44.9999,45.0865,62,80,0
44.9999,45.0865,53,80,0
45.090263,45.17686,64,80,0
45.180626,45.357582,60,80,0
45.180626,45.357582,52,80,0
45.361347,45.538303,55,80,0
45.54207,45.71903,60,80,0
45.54207,45.71903,52,80,0
45.722794,45.89975,55,80,0
45.903515,46.261196,60,80,0
45.903515,46.261196,52,80,0
46.445683,46.62264,51,110,0
46.626404,46.803364,56,110,0
46.80713,46.984085,56,110,0
46.98785,47.029266,58,110,0
47.03303,47.074448,56,110,0
47.078213,47.164806,55,110,0
47.16857,47.25517,56,110,0
47.258934,47.34553,58,110,0
47.349297,47.526253,60,110,0
47.530018,47.706974,60,110,0
47.71074,47.752155,61,110,0
47.75592,47.797337,60,110,0
47.8011,47.8877,59,110,0
47.891464,47.978058,60,110,0
47.981823,48.06842,61,110,0
48.072186,48.24914,63,110,0
48.252907,48.429867,63,110,0
48.43363,48.475044,65,110,0
48.47881,48.520226,63,110,0
48.52399,48.610588,62,110,0
48.614353,48.700947,63,110,0
48.704712,48.79131,65,110,0
48.795074,48.97203,67,110,0
48.975796,49.152756,67,110,0
49.15652,49.243114,67,110,0
49.24688,49.333477,63,110,0
49.337242,49.42384,65,110,0
49.427605,49.5142,67,110,0
49.517963,49.694923,68,110,0
49.69869,49.875645,68,100,0
49.87941,50.056366,68,100,0
50.06013,50.23709,63,100,0
50.240856,50.417812,72,100,0
50.421577,50.598534,72,100,0
50.6023,50.77926,72,100,0
50.783024,50.95998,68,100,0
50.963745,51.1407,75,100,0
51.144466,51.321426,75,100,0
51.32519,51.411785,75,100,0
51.41555,51.502148,77,100,0
51.505913,51.59251,75,100,0
51.596275,51.68287,74,100,0
51.686634,51.863594,75,100,0
51.86736,52.044315,75,100,0
52.04808,52.134678,75,100,0
52.138443,52.225037,77,100,0
52.2288,52.3154,75,100,0
52.319164,52.40576,73,100,0
52.409527,52.586483,80,100,0
52.409527,52.586483,72,100,0
52.59025,52.767204,80,100,0
52.77097,52.947926,80,100,0
52.95169,53.12865,75,100,0
53.132416,53.309372,84,100,0
53.313137,53.490093,84,100,0
53.49386,53.67082,84,100,0
53.674583,53.85154,80,100,0
53.855305,54.03226,87,100,0
54.036026,54.212986,87,100,0
54.21675,54.303345,87,100,0
54.30711,54.393707,89,100,0
54.397472,54.48407,87,100,0
54.487835,54.57443,85,100,0
54.578194,54.755154,84,100,0
54.75892,54.935875,84,100,0
54.93964,55.026237,84,100,0
55.030003,55.116596,85,100,0
55.12036,55.20696,84,100,0
55.210724,55.29732,82,100,0
55.301086,55.478043,81,110,0
55.301086,55.478043,75,110,0
55.481808,55.658764,81,110,0
55.481808,55.658764,75,110,0
55.66253,55.749126,75,110,0
55.66253,55.83949,81,110,0
55.75289,55.83949,77,110,0
55.843254,55.929848,75,110,0
55.843254,56.02021,82,110,0
55.933613,56.02021,73,110,0
56.023975,56.381657,84,110,0
56.023975,56.381657,72,110,0
56.746864,56.923824,85,110,0
56.927586,57.104546,85,110,0
57.10831,57.194904,85,110,0
57.19867,57.285267,87,110,0
57.289032,57.37563,85,110,0
57.379395,57.46599,84,110,0
57.469753,57.646713,82,110,0
57.65048,57.827435,82,110,0
57.8312,57.917797,82,110,0
57.921562,58.008156,84,110,0
58.01192,58.09852,82,110,0
58.102283,58.18888,80,110,0
58.192646,58.369602,79,110,0
58.192646,58.369602,76,110,0
58.373367,58.550323,79,110,0
58.373367,58.550323,76,110,0
58.55409,58.73105,76,110,0
58.55409,58.73105,79,110,0
58.734814,58.91177,77,110,0
58.734814,58.91177,80,110,0
58.915535,59.63466,79,110,0
58.915535,59.63466,82,110,0
59.638424,59.815384,80,110,0
59.81915,59.996105,80,110,0
59.99987,60.086468,80,110,0
60.090233,60.176826,79,110,0
60.18059,60.26719,80,110,0
60.270954,60.35755,77,110,0
60.361317,60.538273,77,110,0
60.542038,60.718994,77,110,0
60.72276,60.809357,77,110,0
60.81312,60.89972,75,110,0
60.903484,60.990078,77,110,0
60.361317,61.08044,83,110,0
60.993843,61.08044,74,110,0
61.084206,61.26116,84,110,0
61.084206,61.441883,75,110,0
61.264927,61.441883,84,110,0
61.44565,61.532246,84,110,0
61.53601,61.62261,83,110,0
61.626373,61.712967,84,110,0
61.716732,61.80333,87,110,0
61.807095,61.98405,72,110,0
61.987816,62.164776,72,110,0
62.16854,62.255135,72,110,0
62.2589,62.345497,71,110,0
62.349262,62.43586,72,110,0
61.807095,62.52622,78,110,0
62.439625,62.52622,69,110,0
62.529984,62.706944,70,110,0
62.529984,62.887665,79,110,0
62.71071,62.887665,70,110,0
62.89143,62.978027,70,110,0
62.981792,63.068386,69,110,0
63.07215,63.15875,70,110,0
63.162514,63.24911,67,110,0
63.252876,63.429832,78,110,0
63.433598,63.610554,78,110,0
63.61432,63.700916,78,110,0
63.70468,63.79128,76,110,0
63.795044,63.881638,78,110,0
63.252876,63.972,72,110,0
63.885403,63.972,74,110,0
63.975765,64.152725,79,110,0
63.975765,64.33344,70,110,0
64.15649,64.33344,79,110,0
64.33721,64.423805,79,110,0
64.427574,64.51417,78,110,0
64.51793,64.60453,79,110,0
64.60829,64.69489,82,110,0
64.698654,64.87561,67,110,0
64.87938,65.056335,67,110,0
65.0601,65.1467,67,110,0
65.15046,65.23706,65,110,0
65.24082,65.327415,67,110,0
64.698654,65.41778,73,110,0
65.331184,65.41778,64,110,0
65.42155,65.5985,65,110,0
65.42155,65.77923,74,110,0
65.602264,65.77923,65,110,0
65.78299,65.86958,65,110,0
65.87335,65.959946,64,110,0
65.963715,66.05031,65,110,0
66.05408,66.14067,62,110,0
66.14443,66.321396,73,110,0
66.32516,66.50211,73,110,0
66.50588,66.592476,73,110,0
66.596245,66.68284,71,110,0
66.6866,66.7732,73,110,0
66.14443,66.86356,67,110,0
66.77696,66.86356,69,110,0
66.867325,67.04428,74,110,0
66.867325,67.225006,65,110,0
67.04805,67.225006,74,110,0
67.22877,67.31537,74,110,0
67.31913,67.40573,73,110,0
67.40949,67.496086,74,110,0
67.499855,67.58645,76,110,0
67.59022,67.76717,65,110,0
67.770935,67.94789,65,110,0
67.95166,68.03825,65,110,0
68.04202,68.12862,64,110,0
68.132385,68.21898,65,110,0
67.59022,68.30934,68,110,0
68.22274,68.30934,62,110,0
68.3131,68.49006,61,110,0
68.49383,68.670784,61,110,0
68.67455,68.76115,61,110,0
68.76491,68.85151,59,110,0
68.85527,68.94187,61,110,0
68.3131,69.03223,69,110,0
68.94563,69.03223,57,110,0
69.035995,69.21295,62,110,0
69.21672,69.39368,62,110,0
69.39744,69.48404,62,110,0
69.4878,69.574394,61,110,0
69.57816,69.66476,62,110,0
69.035995,69.75512,68,110,0
69.668526,69.75512,59,110,0
69.75889,69.94248,61,110,0
69.94639,70.12998,61,110,0
70.13389,70.22373,61,110,0
70.22764,70.31748,59,110,0
70.32139,70.41123,61,110,0
69.75889,70.50498,69,110,0
70.41514,70.50498,57,110,0
70.50889,70.6984,62,110,0
70.70243,70.89195,62,110,0
70.89598,70.98872,62,110,0
70.99275,71.085495,61,110,0
71.08953,71.182274,62,110,0
70.50889,71.279045,68,110,0
71.1863,71.279045,59,110,0
71.28307,71.472595,69,110,0
71.28307,71.472595,61,110,0
71.47662,71.563225,81,80,0
71.566986,71.65358,80,80,0
71.65735,71.74394,81,80,0
71.74771,71.834305,80,80,0
71.83807,71.92467,81,80,0
71.92843,72.01503,80,80,0
72.01879,72.10539,81,80,0
72.10915,72.19575,80,80,0
72.19952,72.28611,81,80,0
72.28988,72.37647,80,80,0
72.38023,72.466835,81,80,0
72.4706,72.5572,80,80,0
72.56096,72.64755,81,80,0
72.65132,72.737915,80,80,0
72.741684,72.91864,81,80,0
72.741684,72.91864,78,80,0
72.741684,72.91864,69,80,0
72.9224,73.099365,81,80,0
72.9224,73.099365,78,80,0
72.9224,73.099365,69,80,0
73.10313,73.28008,81,80,0
73.10313,73.28008,78,80,0
73.10313,73.28008,69,80,0
73.28385,73.46081,81,80,0
73.28385,73.46081,78,80,0
73.28385,73.46081,74,80,0
73.46457,73.64153,81,80,0
73.46457,73.64153,78,80,0
73.46457,73.64153,69,80,0
73.645294,73.82225,81,80,0
73.645294,73.82225,78,80,0
73.645294,73.82225,69,80,0
73.82602,74.002975,81,80,0
73.82602,74.002975,78,80,0
73.82602,74.002975,69,80,0
74.00674,74.1837,81,80,0
74.00674,74.1837,78,80,0
74.00674,74.1837,74,80,0
74.18746,74.36442,81,80,0
74.18746,74.36442,79,80,0
74.36819,74.54514,83,82,0
74.36819,74.54514,79,82,0
74.36819,74.54514,81,82,0
74.548904,74.72587,85,84,0
74.548904,74.72587,79,84,0
74.548904,74.72587,81,84,0
74.72963,74.906586,86,87,0
74.72963,74.906586,79,87,0
74.72963,74.906586,81,87,0
74.910355,75.08731,88,90,0
74.910355,75.08731,79,90,0
74.910355,75.08731,81,90,0
75.09107,75.268036,85,87,0
75.09107,75.268036,81,87,0
75.09107,75.268036,79,87,0
75.2718,75.44875,86,84,0
75.2718,75.44875,79,84,0
75.2718,75.44875,81,84,0
75.45252,75.62948,88,81,0
75.45252,75.62948,79,81,0
75.45252,75.62948,81,81,0
75.63324,75.8102,81,80,0
75.63324,75.8102,78,80,0
75.63324,75.8102,69,80,0
75.813965,75.99092,81,80,0
75.813965,75.99092,78,80,0
75.813965,75.99092,69,80,0
75.99469,76.171646,81,80,0
75.99469,76.171646,78,80,0
75.99469,76.171646,69,80,0
76.17541,76.35237,81,80,0
76.17541,76.35237,78,80,0
76.17541,76.35237,74,80,0
76.35613,76.53309,81,80,0
76.35613,76.53309,78,80,0
76.35613,76.53309,69,80,0
76.53686,76.71381,81,80,0
76.53686,76.71381,78,80,0
76.53686,76.71381,69,80,0
76.717575,76.89453,81,80,0
76.717575,76.89453,78,80,0
76.717575,76.89453,69,80,0
76.8983,77.07526,81,80,0
76.8983,77.07526,78,80,0
76.8983,77.07526,74,80,0
77.079025,77.25598,81,80,0
77.079025,77.25598,79,80,0
77.25974,77.4367,83,82,0
77.25974,77.4367,79,82,0
77.25974,77.4367,81,82,0
77.44047,77.617424,85,84,0
77.44047,77.617424,79,84,0
77.44047,77.617424,81,84,0
77.62119,77.79815,86,87,0
77.62119,77.79815,79,87,0
77.62119,77.79815,81,87,0
77.80191,77.97887,88,90,0
77.80191,77.97887,79,90,0
77.80191,77.97887,81,90,0
77.982635,78.15959,85,87,0
77.982635,78.15959,81,87,0
77.982635,78.15959,79,87,0
78.16336,78.34032,86,84,0
78.16336,78.34032,79,84,0
78.16336,78.34032,81,84,0
78.34408,78.521034,88,81,0
78.34408,78.521034,79,81,0
78.34408,78.521034,81,81,0
78.5248,78.70176,78,80,0
78.5248,78.70176,81,80,0
78.70553,78.882484,78,80,0
78.70553,78.882484,81,80,0
78.886246,79.0632,78,80,0
78.886246,79.0632,83,80,0
79.06697,79.24393,78,80,0
79.06697,79.24393,84,80,0
79.247696,79.42465,77,80,0
79.247696,79.42465,86,80,0
79.42841,79.60537,77,80,0
79.42841,79.60537,83,80,0
79.60914,79.786095,77,80,0
79.60914,79.786095,84,80,0
79.78986,79.96682,77,80,0
79.78986,79.96682,86,80,0
79.97058,80.14754,79,80,0
79.97058,80.14754,76,80,0
80.151306,80.32826,79,80,0
80.151306,80.32826,76,80,0
80.33203,80.50899,81,80,0
80.33203,80.50899,76,80,0
80.51275,80.689705,82,80,0
80.51275,80.689705,76,80,0
80.693474,80.87043,84,80,0
80.693474,80.87043,75,80,0
80.87419,81.051155,81,80,0
80.87419,81.051155,75,80,0
81.05492,81.23187,82,80,0
81.05492,81.23187,75,80,0
81.23564,81.4126,84,80,0
81.23564,81.4126,75,80,0
81.41636,81.59332,77,100,0
81.41636,81.59332,74,100,0
81.597084,81.77404,77,100,0
81.597084,81.77404,74,100,0
81.77781,81.954765,79,100,0
81.77781,81.954765,76,100,0
81.95853,82.13549,81,100,0
81.95853,82.13549,77,100,0
82.13925,82.31621,82,100,0
82.13925,82.31621,79,100,0
82.31998,82.49693,82,100,0
82.31998,82.49693,79,100,0
82.500694,82.67766,82,101,0
82.500694,82.67766,79,101,0
82.68142,82.858376,82,102,0
82.68142,82.858376,79,102,0
82.862144,83.0391,82,103,0
82.862144,83.0391,79,103,0
83.04286,83.219826,79,104,0
83.04286,83.219826,82,104,0
83.22359,83.40054,79,105,0
83.22359,83.40054,82,105,0
83.40431,83.58127,79,105,0
83.40431,83.58127,82,105,0
83.58503,83.76199,79,106,0
83.58503,83.76199,82,106,0
83.765755,83.94271,81,107,0
83.765755,83.94271,82,107,0
83.94648,84.123436,79,108,0
83.94648,84.123436,82,108,0
84.1272,84.30416,77,109,0
84.1272,84.30416,82,109,0
84.30792,84.394516,76,110,0
84.30792,84.394516,82,110,0
84.398285,84.48488,84,110,0
84.48865,84.57524,86,110,0
84.57901,84.6656,84,110,0
84.669365,84.75597,82,110,0
84.75973,84.84633,81,110,0
84.85009,84.93668,79,110,0
84.94045,85.02705,77,110,0
85.030815,85.11741,76,110,0
85.12117,85.20777,77,110,0
85.21153,85.298134,79,110,0
85.301895,85.38849,77,110,0
85.39226,85.47885,76,110,0
85.48262,85.569214,74,110,0
85.57298,85.65958,72,120,0
85.66334,85.74994,70,120,0
85.7537,85.93066,69,120,0
85.934425,86.02102,84,120,0
86.02479,86.11138,82,120,0
86.11515,86.201744,81,120,0
86.205505,86.29211,79,120,0
86.29587,86.38247,77,120,0
86.38623,86.472824,76,120,0
86.47659,86.56319,77,120,0
86.566956,86.65355,76,120,0
86.65732,86.74391,74,120,0
86.74767,86.834274,72,120,0
86.838036,86.92464,70,120,0
86.9284,87.01499,69,120,0
87.01876,87.105354,67,120,0
87.10912,87.19572,65,120,0
87.199486,87.28608,64,120,0
87.28984,87.37644,65,120,0
87.3802,87.466805,67,120,0
87.470566,87.55716,65,120,0
87.56093,87.64752,64,120,0
87.65129,87.737885,60,120,0
87.74165,87.82825,62,120,0
87.83201,87.91861,64,120,0
87.92237,88.00897,65,110,0
88.01273,88.09933,60,110,0
88.103096,88.18969,65,110,0
88.19346,88.28005,60,110,0
88.28382,88.370415,65,110,0
88.374176,88.46078,60,110,0
88.46454,88.55114,67,110,0
88.5549,88.641495,60,110,0
88.64526,88.82222,69,110,0
88.82599,89.002945,65,110,0
89.00671,89.18366,65,110,0
89.18743,89.36439,60,110,0
89.36815,89.54511,69,110,0
89.548874,89.72583,69,110,0
89.7296,89.906555,69,110,0
89.91032,90.08728,65,110,0
90.09104,90.268,72,110,0
90.27177,90.44872,72,110,0
90.452484,90.539085,72,110,0
90.54285,90.62945,74,110,0
90.63321,90.7198,72,110,0
90.72357,90.810165,70,110,0
90.813934,90.90053,69,110,0
90.9043,90.99089,72,110,0
90.99465,91.08125,67,110,0
91.085014,91.171616,73,110,0
91.17538,91.26197,66,110,0
91.26574,91.35233,74,110,0
91.3561,91.442696,69,110,0
91.446465,91.53306,72,110,0
91.53682,91.71378,70,110,0
91.717545,91.80414,86,110,0
91.80791,91.8945,84,110,0
91.89827,91.98486,82,110,0
91.98863,92.075226,81,110,0
92.07899,92.16559,79,110,0
92.16935,92.25595,78,110,0
92.25971,92.346306,79,110,0
92.350075,92.43667,77,110,0
92.44044,92.52703,75,110,0
92.5308,92.61739,74,110,0
92.621155,92.707756,72,110,0
92.71152,92.79812,70,110,0
92.80188,92.88847,69,110,0
92.89224,92.978836,67,110,0
92.982605,93.0692,66,110,0
93.07297,93.15956,67,110,0
93.16332,93.24992,69,110,0
93.253685,93.34029,67,110,0
93.34405,93.43064,66,110,0
93.43441,93.521,62,110,0
93.52477,93.61137,64,110,0
93.61513,93.70173,66,110,0
93.70549,93.79209,67,110,0
93.79585,93.88245,62,110,0
93.886215,93.97281,67,110,0
93.97658,94.06317,62,110,0
94.06694,94.153534,67,110,0
94.157295,94.2439,62,110,0
94.24766,94.33426,69,110,0
94.33802,94.424614,62,110,0
94.42838,94.60534,70,110,0
94.60911,94.786064,67,110,0
94.789825,94.96678,67,110,0
94.97055,95.14751,62,110,0
95.151276,95.32823,70,110,0
95.33199,95.50895,70,110,0
95.51272,95.689674,70,110,0
95.69344,95.8704,67,110,0
95.87416,96.05112,74,110,0
96.054886,96.23184,74,110,0
96.23561,96.322205,74,110,0
96.325966,96.41257,75,110,0
96.41633,96.50293,74,110,0
96.50669,96.593285,72,110,0
96.59705,96.68365,70,110,0
96.687416,96.77401,74,110,0
96.77778,96.86437,76,110,0
96.86813,96.954735,70,110,0
96.958496,97.0451,77,110,0
97.04886,97.13545,69,110,0
97.13922,97.225815,75,110,0
97.22958,97.31618,72,110,0
97.31995,97.4969,74,110,0
97.50066,97.58726,89,110,0
97.59103,97.67762,87,110,0
97.68139,97.76798,86,110,0
97.77175,97.858345,84,110,0
97.86211,97.94871,82,110,0
97.95247,98.03907,81,110,0
98.04283,98.129425,82,110,0
98.133194,98.21979,81,110,0
98.22356,98.31015,79,110,0
98.31392,98.40051,77,110,0
98.404274,98.490875,75,110,0
98.49464,98.58124,74,110,0
98.585,98.67159,72,110,0
98.67536,98.761955,70,110,0
98.765724,98.85232,69,110,0
98.85609,98.94268,70,110,0
98.94644,99.03304,72,110,0
99.036804,99.123405,70,110,0
99.12717,99.21376,69,110,0
99.21753,99.30412,65,110,0
99.30789,99.394485,67,110,0
99.398254,99.48485,69,110,0
99.48861,99.57521,70,110,0
99.57897,99.66557,65,110,0
99.669334,99.75593,70,110,0
99.7597,99.84629,65,110,0
99.85006,99.93665,70,110,0
99.94042,100.027016,65,110,0
100.03078,100.11738,72,110,0
100.12114,100.20774,65,110,0
100.2115,100.38846,73,110,0
100.39223,100.47882,70,80,0
100.48259,100.56918,82,80,0
100.572945,100.659546,70,80,0
100.66331,100.74991,82,80,0
100.75367,100.84026,65,80,0
100.84403,100.930626,77,80,0
100.934395,101.02099,73,80,0
101.02476,101.11135,85,80,0
101.11511,101.20171,73,80,0
101.205475,101.292076,85,80,0
101.29584,101.38243,73,80,0
101.3862,101.47279,85,80,0
101.47656,101.563156,70,80,0
101.566925,101.65352,82,80,0
101.65728,101.74388,77,80,0
101.74764,101.834236,89,80,0
101.838005,101.9246,77,81,0
101.92837,102.01496,89,81,0
102.01873,102.10532,77,82,0
102.109085,102.19569,89,83,0
102.19945,102.28605,75,83,0
102.28981,102.3764,87,84,0
102.38017,102.46677,73,85,0
102.470535,102.55713,85,85,0
102.5609,102.64749,73,86,0
102.65125,102.737854,85,87,0
102.741615,102.82822,73,87,0
102.83198,102.91857,85,88,0
102.92234,103.008934,70,88,0
103.0127,103.0993,82,89,0
103.103065,103.18966,77,90,0
103.19342,103.28002,89,90,0
103.28378,103.370384,77,91,0
103.374146,103.46074,89,92,0
103.46451,103.5511,77,92,0
103.55487,103.641464,89,93,0
103.64523,103.73183,75,94,0
103.73559,103.82219,87,94,0
103.82595,103.91255,73,95,0
103.91631,104.00291,85,95,0
104.006676,104.09327,73,96,0
104.09704,104.18363,85,97,0
104.1874,104.273994,73,97,0
104.277756,104.36436,85,98,0
104.36812,104.45472,72,99,0
104.45848,104.545074,84,99,0
104.54884,104.63544,70,100,0
104.639206,104.7258,82,101,0
104.72957,104.81616,70,101,0
104.81992,104.906525,82,102,0
104.910286,104.99689,70,102,0
105.00065,105.08724,82,103,0
105.09101,105.177605,68,104,0
105.18137,105.26797,80,104,0
105.271736,105.35833,66,105,0
105.36209,105.44869,78,106,0
105.45245,105.539055,66,106,0
105.542816,105.62941,78,107,0
105.63318,105.71977,66,108,0
105.72354,105.810135,78,108,0
105.8139,105.9005,65,109,0
105.90426,105.99086,77,109,0
105.99462,106.081215,64,110,0
106.084984,106.17158,76,110,0
106.17535,106.26194,64,110,0
106.26571,106.3523,76,110,0
106.356064,106.442665,64,110,0
106.44643,106.53303,76,110,0
106.53679,106.62338,67,110,0
106.62715,106.713745,79,110,0
106.717514,106.80411,65,110,0
106.80788,106.89447,77,110,0
106.89823,106.98483,68,110,0
106.988594,107.075195,80,110,0
107.07896,107.16555,67,110,0
107.16932,107.25591,79,110,0
107.25968,107.346275,70,110,0
107.350044,107.43664,82,110,0
107.4404,107.527,68,110,0
107.53076,107.61736,80,110,0
107.621124,107.70772,72,110,0
107.71149,107.79808,84,110,0
107.80185,107.88844,69,110,0
107.89221,107.978806,81,110,0
107.98257,108.06917,72,110,0
108.07293,108.15953,84,110,0
108.16329,108.249886,70,110,0
108.253654,108.34025,82,110,0
108.34402,108.43061,73,110,0
108.43438,108.52097,85,110,0
108.524734,108.611336,72,110,0
108.6151,108.7017,84,110,0
108.70546,108.79205,75,110,0
108.79582,108.882416,87,110,0
108.886185,108.97278,73,120,0
108.97655,109.06314,85,120,0
109.0669,109.1535,73,120,0
109.157265,109.243866,85,120,0
109.24763,109.33422,73,120,0
109.33799,109.42458,85,120,0
109.42835,109.514946,72,120,0
109.518715,109.60531,84,120,0
109.60907,109.69567,71,120,0
109.69943,109.78603,83,120,0
109.789795,109.87639,71,120,0
109.88016,109.96675,83,120,0
109.97052,110.05711,71,120,0
110.060875,110.14748,83,120,0
110.15124,110.23784,77,120,0
110.2416,110.32819,89,120,0
110.33196,110.41856,76,120,0
110.422325,110.50892,88,120,0
110.51269,110.59928,76,120,0
110.60304,110.689644,88,120,0
110.693405,110.78001,76,120,0
110.78377,110.87036,88,120,0
110.87413,110.960724,70,120,0
110.96449,111.05109,82,120,0
111.054855,111.14145,69,120,0
111.14521,111.23181,81,120,0
111.23557,111.322174,69,120,0
111.325935,111.41253,81,120,0
111.4163,111.50289,69,120,0
111.50666,111.593254,81,120,0
111.59702,111.68362,75,120,0
111.68738,111.77398,87,120,0
111.77774,111.9547,74,110,0
111.958466,112.04506,86,110,0
112.04883,112.13542,85,110,0
112.13919,112.225784,86,110,0
112.229546,112.31615,84,110,0
112.31991,112.40651,82,110,0
112.41027,112.496864,81,110,0
112.50063,112.59048,79,110,0
112.59438,112.68423,77,110,0
112.68813,112.77798,76,110,0
112.78188,112.87173,74,110,0
112.87563,112.968376,72,110,0
112.972404,113.06515,70,110,0
113.06918,113.16192,69,110,0
113.165955,113.2587,67,110,0
113.262726,113.45225,65,110,0
113.456276,113.63323,60,80,0
113.456276,113.63323,57,80,0
113.637,113.81396,60,80,0
113.637,113.81396,57,80,0
113.81772,113.99468,57,80,0
113.81772,113.99468,65,80,0
113.99844,114.1754,60,80,0
113.99844,114.1754,57,80,0
114.17917,114.356125,60,80,0
114.17917,114.356125,57,80,0
114.359886,114.53685,60,80,0
114.359886,114.53685,57,80,0
114.54061,114.71757,57,80,0
114.54061,114.71757,65,80,0
114.72134,114.89829,60,80,0
114.72134,114.89829,58,80,0
114.902054,115.07902,67,80,0
114.902054,115.07902,58,80,0
115.08278,115.259735,67,80,0
115.08278,115.259735,58,80,0
115.263504,115.44046,67,80,0
115.263504,115.44046,58,80,0
115.44422,115.62118,67,80,0
115.44422,115.62118,58,80,0
115.62495,115.8019,67,80,0
115.62495,115.8019,58,80,0
115.80567,115.892265,67,80,0
115.80567,115.892265,58,80,0
115.89603,115.98263,69,80,0
115.98639,116.07299,67,80,0
115.98639,116.07299,58,80,0
116.07675,116.163345,69,80,0
116.167114,116.34407,65,80,0
116.34784,116.524796,60,80,0
116.34784,116.524796,57,80,0
116.52856,116.70551,60,80,0
116.52856,116.70551,57,80,0
116.70928,116.88624,57,80,0
116.70928,116.88624,65,80,0
116.89001,117.06696,60,80,0
116.89001,117.06696,57,80,0
117.070724,117.24768,60,80,0
117.070724,117.24768,57,80,0
117.25145,117.428406,60,80,0
117.25145,117.428406,57,80,0
117.432175,117.60913,57,80,0
117.432175,117.60913,65,80,0
117.61289,117.78985,60,80,0
117.61289,117.78985,58,80,0
117.79362,117.97057,67,80,0
117.79362,117.97057,58,80,0
117.97434,118.1513,67,80,0
117.97434,118.1513,58,80,0
118.15506,118.332016,67,80,0
118.15506,118.332016,58,80,0
118.335785,118.51274,67,80,0
118.335785,118.51274,58,80,0
118.51651,118.69347,67,80,0
118.51651,118.69347,58,80,0
118.69723,118.78383,67,80,0
118.69723,118.78383,58,80,0
118.78759,118.87418,69,80,0
118.87795,118.96455,67,80,0
118.87795,118.96455,58,80,0
118.968315,119.05491,69,80,0
119.05868,119.235634,65,80,0
119.05868,119.235634,57,80,0
119.239395,119.41635,72,80,0
119.239395,119.41635,84,80,0
119.239395,119.41635,81,80,0
119.42012,119.59708,72,80,0
119.42012,119.59708,81,80,0
119.42012,119.59708,84,80,0
119.60084,119.7778,77,80,0
119.60084,119.7778,81,80,0
119.60084,119.7778,84,80,0
119.78156,119.95852,72,80,0
119.78156,119.95852,81,80,0
119.78156,119.95852,84,80,0
119.96229,120.139244,72,80,0
119.96229,120.139244,84,80,0
119.96229,120.139244,81,80,0
120.143005,120.31997,72,80,0
120.143005,120.31997,81,80,0
120.143005,120.31997,84,80,0
120.32373,120.50069,77,80,0
120.32373,120.50069,81,80,0
120.32373,120.50069,84,80,0
120.504456,120.68141,82,80,0
120.504456,120.68141,84,80,0
120.504456,120.68141,72,80,0
120.68517,120.86214,82,84,0
120.68517,120.86214,84,84,0
120.68517,120.86214,74,84,0
120.8659,121.042854,82,89,0
120.8659,121.042854,84,89,0
120.8659,121.042854,76,89,0
121.04662,121.22358,82,94,0
121.04662,121.22358,84,94,0
121.04662,121.22358,77,94,0
121.22734,121.404305,82,90,0
121.22734,121.404305,84,90,0
121.22734,121.404305,79,90,0
121.408066,121.58502,82,87,0
121.408066,121.58502,84,87,0
121.408066,121.58502,76,87,0
121.58879,121.76575,82,84,0
121.58879,121.76575,84,84,0
121.58879,121.76575,77,84,0
121.76951,121.94647,82,81,0
121.76951,121.94647,84,81,0
121.76951,121.94647,79,81,0
121.95023,122.12719,72,80,0
121.95023,122.12719,81,80,0
121.95023,122.12719,84,80,0
122.13096,122.307915,72,80,0
122.13096,122.307915,84,80,0
122.13096,122.307915,81,80,0
122.311676,122.48864,72,80,0
122.311676,122.48864,81,80,0
122.311676,122.48864,84,80,0
122.4924,122.66936,77,80,0
122.4924,122.66936,81,80,0
122.4924,122.66936,84,80,0
122.67313,122.85008,72,80,0
122.67313,122.85008,81,80,0
122.67313,122.85008,84,80,0
122.85384,123.03081,72,80,0
122.85384,123.03081,84,80,0
122.85384,123.03081,81,80,0
123.03457,123.211525,72,80,0
123.03457,123.211525,81,80,0
123.03457,123.211525,84,80,0
123.215294,123.39225,77,80,0
123.215294,123.39225,81,80,0
123.215294,123.39225,84,80,0
123.39601,123.572975,82,80,0
123.39601,123.572975,84,80,0
123.39601,123.572975,72,80,0
123.57674,123.75369,82,84,0
123.57674,123.75369,84,84,0
123.57674,123.75369,74,84,0
123.75746,123.93442,82,89,0
123.75746,123.93442,84,89,0
123.75746,123.93442,76,89,0
123.93818,124.115135,82,94,0
123.93818,124.115135,84,94,0
123.93818,124.115135,77,94,0
124.118904,124.29586,82,90,0
124.118904,124.29586,84,90,0
124.118904,124.29586,79,90,0
124.29963,124.476585,82,87,0
124.29963,124.476585,84,87,0
124.29963,124.476585,76,87,0
124.48035,124.6573,82,84,0
124.48035,124.6573,84,84,0
124.48035,124.6573,77,84,0
124.66107,124.83803,82,81,0
124.66107,124.83803,84,81,0
124.66107,124.83803,79,81,0
124.8418,125.01875,81,80,0
124.8418,125.01875,84,80,0
124.8418,125.01875,77,80,0
125.022514,125.19947,81,80,0
125.022514,125.19947,84,80,0
125.20324,125.380196,81,80,0
125.20324,125.380196,84,80,0
125.383965,125.56092,81,80,0
125.383965,125.56092,84,80,0
125.56468,125.74164,76,80,0
125.56468,125.74164,79,80,0
125.56468,125.74164,84,80,0
125.74541,125.92236,76,80,0
125.74541,125.92236,79,80,0
125.74541,125.92236,84,80,0
125.92613,126.10309,76,80,0
125.92613,126.10309,79,80,0
125.92613,126.10309,86,80,0
126.10685,126.283806,76,80,0
126.10685,126.283806,79,80,0
126.10685,126.283806,88,80,0
126.287575,126.46453,89,80,0
126.287575,126.46453,81,80,0
126.287575,126.46453,77,80,0
126.4683,126.645256,84,81,0
126.4683,126.645256,81,81,0
126.4683,126.645256,72,81,0
126.64902,126.82597,84,83,0
126.64902,126.82597,81,83,0
126.64902,126.82597,72,83,0
126.82974,127.0067,84,85,0
126.82974,127.0067,81,85,0
126.82974,127.0067,72,85,0
127.01047,127.18742,82,87,0
127.01047,127.18742,84,87,0
127.01047,127.18742,72,87,0
127.191185,127.36814,82,89,0
127.191185,127.36814,84,89,0
127.191185,127.36814,72,89,0
127.37191,127.54887,82,91,0
127.37191,127.54887,84,91,0
127.37191,127.54887,74,91,0
127.552635,127.72959,82,93,0
127.552635,127.72959,84,93,0
127.552635,127.72959,76,93,0
127.73335,127.91031,89,95,0
127.73335,127.91031,77,95,0
127.91408,128.09103,88,97,0
127.91408,128.09103,76,97,0
128.0948,128.27176,86,99,0
128.0948,128.27176,74,99,0
128.27553,128.45248,84,101,0
128.27553,128.45248,72,101,0
128.45624,128.6332,82,103,0
128.45624,128.6332,70,103,0
128.63696,128.81392,81,105,0
128.63696,128.81392,69,105,0
128.81769,128.99464,79,107,0
128.81769,128.99464,67,107,0
128.99841,129.17537,84,109,0
128.99841,129.17537,72,109,0
129.17914,129.37497,77,120,0
129.17914,129.37497,65,120,0
129.37914,129.57497,76,120,0
129.37914,129.57497,64,120,0
129.57913,129.77496,74,120,0
129.57913,129.77496,62,120,0
129.77913,129.97496,72,120,0
129.77913,129.97496,60,120,0
129.97914,130.18895,70,120,0
129.97914,130.18895,58,120,0
130.19342,130.40324,69,120,0
130.19342,130.40324,57,120,0
130.4077,130.63367,67,120,0
130.4077,130.63367,55,120,0
130.63847,130.96486,72,120,0
130.63847,130.96486,60,120,0
130.9718,131.96486,65,120,0
130.9718,131.96486,53,120,0
132.9718,133.29819,65,1,0
0.1807225,0.35767993,48,100,0
0.361445,0.53840244,53,100,0
0.5421675,0.719125,53,100,0
0.72289,0.89984745,53,100,0
0.9036125,1.08057,48,100,0
1.084335,1.2612925,57,100,0
1.2650574,1.4420149,57,100,0
1.44578,1.6227374,57,100,0
1.6265025,1.80346,53,100,0
1.807225,1.9841825,60,100,0
1.9879475,2.1649048,60,100,0
2.16867,2.2552662,60,100,0
2.2590313,2.3456275,62,100,0
2.3493924,2.4359887,60,100,0
2.4397538,2.52635,58,100,0
2.530115,2.7070725,57,100,0
2.7108376,2.887795,57,100,0
2.89156,2.978156,57,100,0
2.9819212,3.0685174,58,100,0
3.0722826,3.1588788,57,100,0
3.1626437,3.24924,55,100,0
3.253005,3.4299624,57,100,0
3.4337275,3.5203238,60,100,0
3.5240889,3.6106849,58,100,0
3.61445,3.7914073,57,100,0
3.7951725,3.97213,55,100,0
3.975895,4.1528525,53,100,0
4.1566176,4.333575,52,100,0
4.33734,4.5142975,53,100,0
4.5180626,4.6950197,50,100,0
4.698785,4.8757424,52,100,0
4.8795075,5.056465,48,100,0
5.06023,5.2371874,50,100,0
5.2409525,5.41791,52,100,0
5.421675,5.5986323,53,100,0
5.6023974,5.779355,55,100,0
5.78312,5.9600773,57,100,0
5.9638424,6.1408,58,100,0
6.144565,6.321522,64,100,0
6.144565,6.321522,60,100,0
6.3252873,6.502245,65,100,0
6.3252873,6.502245,62,100,0
6.50601,6.6829677,67,100,0
6.50601,6.6829677,64,100,0
6.6867323,6.86369,65,100,0
6.6867323,6.86369,62,100,0
6.867455,7.0444126,64,100,0
6.867455,7.0444126,60,100,0
7.0481777,7.225135,62,100,0
7.0481777,7.225135,59,100,0
7.2289,7.4058576,64,100,0
7.2289,7.4058576,60,100,0
7.4096227,7.58658,60,100,0
7.4096227,7.58658,57,100,0
7.590345,7.7673025,62,100,0
7.590345,7.7673025,59,100,0
7.7710676,7.9480247,59,100,0
7.7710676,7.9480247,55,100,0
7.95179,8.128747,60,100,0
7.95179,8.128747,57,100,0
8.132512,8.30947,62,100,0
8.132512,8.30947,59,100,0
8.313235,8.490192,64,100,0
8.313235,8.490192,60,100,0
8.4939575,8.670915,65,100,0
8.4939575,8.670915,62,100,0
8.67468,8.851638,67,100,0
8.67468,8.851638,64,100,0
8.855403,9.03236,64,100,0
8.855403,9.03236,60,100,0
9.036125,9.213082,64,100,0
9.036125,9.213082,61,100,0
9.216847,9.393805,61,100,0
9.216847,9.393805,57,100,0
9.39757,9.574528,62,100,0
9.39757,9.574528,59,100,0
9.578293,9.75525,64,100,0
9.578293,9.75525,61,100,0
9.759015,9.935972,65,100,0
9.759015,9.935972,62,100,0
9.939737,10.116695,67,100,0
9.939737,10.116695,64,100,0
10.12046,10.297418,69,100,0
10.12046,10.297418,65,100,0
10.301183,10.47814,65,100,0
10.301183,10.47814,62,100,0
10.481905,10.658862,67,100,0
10.481905,10.658862,62,100,0
10.481905,10.658862,59,100,0
10.662627,10.839585,67,100,0
10.662627,10.839585,62,100,0
10.662627,10.839585,59,100,0
10.84335,11.020308,67,100,0
10.84335,11.020308,64,100,0
10.84335,11.020308,60,100,0
11.204795,11.381752,67,100,0
11.204795,11.381752,62,100,0
11.204795,11.381752,59,100,0
11.385517,11.562475,67,100,0
11.385517,11.562475,62,100,0
11.385517,11.562475,59,100,0
11.56624,11.743197,67,100,0
11.56624,11.743197,64,100,0
11.56624,11.743197,60,100,0
11.927685,12.104643,53,100,0
11.927685,12.104643,57,100,0
11.927685,12.104643,62,100,0
12.28913,12.466087,62,100,0
12.28913,12.466087,59,100,0
12.28913,12.466087,55,100,0
12.650575,13.008255,60,100,0
12.650575,13.008255,55,100,0
12.650575,13.008255,52,100,0
12.650575,13.008255,48,100,0
13.373465,13.550423,55,100,0
13.373465,13.550423,53,100,0
13.373465,13.550423,50,100,0
13.373465,13.550423,47,100,0
13.554188,13.731145,55,100,0
13.554188,13.731145,53,100,0
13.554188,13.731145,50,100,0
13.554188,13.731145,47,100,0
13.73491,13.911867,55,100,0
13.73491,13.911867,52,100,0
13.73491,13.911867,48,100,0
14.096355,14.273313,55,100,0
14.096355,14.273313,53,100,0
14.096355,14.273313,50,100,0
14.096355,14.273313,47,100,0
14.277078,14.454035,55,100,0
14.277078,14.454035,53,100,0
14.277078,14.454035,50,100,0
14.277078,14.454035,47,100,0
14.4578,14.634757,55,100,0
14.4578,14.634757,52,100,0
14.4578,14.634757,48,100,0
14.819245,14.996202,41,110,0
14.999968,15.176925,53,110,0
15.18069,15.357648,53,110,0
15.361412,15.53837,53,110,0
15.542135,15.719092,43,110,0
15.722857,15.899815,55,110,0
15.90358,16.080538,55,110,0
16.084303,16.26126,55,110,0
16.265024,16.441982,48,110,0
16.445747,16.622705,48,80,0
16.62647,16.803427,48,80,0
16.265024,16.98415,36,110,0
16.807192,16.98415,43,80,0
16.987915,17.164873,48,80,0
17.168638,17.345594,48,80,0
17.34936,17.526318,48,80,0
16.987915,17.70704,36,80,0
17.530083,17.70704,43,80,0
17.710806,17.887762,50,80,0
17.891527,18.068485,48,80,0
18.07225,18.249207,47,80,0
18.252972,18.42993,45,80,0
18.433695,18.610653,43,80,0
18.614418,18.791374,45,80,0
18.79514,18.972097,47,80,0
17.710806,19.15282,36,80,0
18.975863,19.15282,43,80,0
19.156586,19.333542,48,80,0
19.337307,19.514265,48,80,0
19.51803,19.694988,48,80,0
19.156586,19.87571,36,80,0
19.698753,19.87571,43,80,0
19.879475,20.056433,48,80,0
20.060198,20.237154,48,80,0
20.24092,20.417877,48,80,0
19.879475,20.5986,36,80,0
20.421642,20.5986,43,80,0
20.602365,20.779322,50,80,0
20.783087,20.960045,48,80,0
20.96381,21.140768,47,80,0
21.144533,21.32149,45,80,0
21.325254,21.502213,43,80,0
21.505978,21.682936,45,80,0
21.6867,21.863657,47,80,0
20.602365,22.04438,36,80,0
21.867422,22.04438,43,80,0
22.048145,22.225103,48,80,0
22.048145,22.225103,36,80,0
22.228867,22.405825,43,80,0
22.40959,22.586548,48,80,0
22.40959,22.586548,36,80,0
22.590313,22.76727,43,80,0
22.771034,23.128716,48,80,0
22.771034,23.128716,36,80,0
23.313202,23.49016,48,100,0
23.493925,23.670883,53,100,0
23.674648,23.851604,53,100,0
23.85537,24.032328,53,100,0
24.036093,24.21305,48,100,0
24.216816,24.393772,57,100,0
24.397537,24.574495,57,100,0
24.57826,24.755217,57,100,0
24.758982,24.93594,53,100,0
24.939705,25.116663,60,100,0
25.120428,25.297384,60,100,0
25.30115,25.387747,60,100,0
25.391512,25.478107,62,100,0
25.481873,25.568468,60,100,0
25.572233,25.65883,58,100,0
25.662596,25.839552,57,100,0
25.843317,26.020275,57,100,0
26.02404,26.110636,57,100,0
26.1144,26.200998,58,100,0
26.204763,26.291359,57,100,0
26.295124,26.38172,55,100,0
26.385485,26.562443,57,100,0
26.566208,26.652803,60,100,0
26.656569,26.743164,58,100,0
26.74693,26.923887,57,100,0
26.927652,27.10461,55,100,0
27.108376,27.285332,53,100,0
27.289097,27.466055,52,100,0
27.46982,27.646778,53,100,0
27.650543,27.8275,50,100,0
27.831264,28.008223,52,100,0
28.011988,28.188946,48,100,0
28.19271,28.369667,50,100,0
28.373432,28.55039,52,100,0
28.554155,28.731112,53,100,0
28.734877,28.911835,55,100,0
28.9156,29.092558,57,100,0
29.096323,29.27328,58,100,0
29.277044,29.454002,64,100,0
29.277044,29.454002,60,100,0
29.457767,29.634726,65,100,0
29.457767,29.634726,62,100,0
29.63849,29.815447,67,100,0
29.63849,29.815447,64,100,0
29.819212,29.99617,65,100,0
29.819212,29.99617,62,100,0
29.999935,30.176893,64,100,0
29.999935,30.176893,60,100,0
30.180658,30.357615,62,100,0
30.180658,30.357615,59,100,0
30.36138,30.538338,64,100,0
30.36138,30.538338,60,100,0
30.542103,30.71906,60,100,0
30.542103,30.71906,57,100,0
30.722824,30.899782,62,100,0
30.722824,30.899782,59,100,0
30.903547,31.080505,59,100,0
30.903547,31.080505,55,100,0
31.08427,31.261227,60,100,0
31.08427,31.261227,57,100,0
31.264992,31.44195,62,100,0
31.264992,31.44195,59,100,0
31.445715,31.622673,64,100,0
31.445715,31.622673,60,100,0
31.626438,31.803394,65,100,0
31.626438,31.803394,62,100,0
31.80716,31.984118,67,100,0
31.80716,31.984118,64,100,0
31.987883,32.16484,64,100,0
31.987883,32.16484,60,100,0
32.168606,32.345562,64,100,0
32.168606,32.345562,61,100,0
32.349327,32.526283,61,100,0
32.349327,32.526283,57,100,0
32.53005,32.70701,62,100,0
32.53005,32.70701,59,100,0
32.710773,32.88773,64,100,0
32.710773,32.88773,61,100,0
32.891495,33.06845,65,100,0
32.891495,33.06845,62,100,0
33.072216,33.249176,67,100,0
33.072216,33.249176,64,100,0
33.25294,33.429897,69,100,0
33.25294,33.429897,65,100,0
33.433662,33.61062,65,100,0
33.433662,33.61062,62,100,0
33.614384,33.791344,67,100,0
33.614384,33.791344,62,100,0
33.614384,33.791344,59,100,0
33.79511,33.972065,67,100,0
33.79511,33.972065,62,100,0
33.79511,33.972065,59,100,0
33.97583,34.152786,67,100,0
33.97583,34.152786,64,100,0
33.97583,34.152786,60,100,0
34.337276,34.514233,67,100,0
34.337276,34.514233,62,100,0
34.337276,34.514233,59,100,0
34.517998,34.694954,67,100,0
34.517998,34.694954,62,100,0
34.517998,34.694954,59,100,0
34.69872,34.87568,67,100,0
34.69872,34.87568,64,100,0
34.69872,34.87568,60,100,0
35.060165,35.23712,53,100,0
35.060165,35.23712,57,100,0
35.060165,35.23712,62,100,0
35.42161,35.598568,62,100,0
35.42161,35.598568,59,100,0
35.42161,35.598568,55,100,0
35.783054,36.140736,60,100,0
35.783054,36.140736,55,100,0
35.783054,36.140736,52,100,0
35.783054,36.140736,48,100,0
36.505943,36.682903,55,100,0
36.505943,36.682903,53,100,0
36.505943,36.682903,50,100,0
36.505943,36.682903,47,100,0
36.68667,36.863625,55,100,0
36.68667,36.863625,53,100,0
36.68667,36.863625,50,100,0
36.68667,36.863625,47,100,0
36.86739,37.044346,55,100,0
36.86739,37.044346,52,100,0
36.86739,37.044346,48,100,0
37.228836,37.405792,55,100,0
37.228836,37.405792,53,100,0
37.228836,37.405792,50,100,0
37.228836,37.405792,47,100,0
37.409557,37.586514,55,100,0
37.409557,37.586514,53,100,0
37.409557,37.586514,50,100,0
37.409557,37.586514,47,100,0
37.59028,37.76724,55,100,0
37.59028,37.76724,52,100,0
37.59028,37.76724,48,100,0
37.951725,38.12868,41,110,0
38.132446,38.309406,53,110,0
38.31317,38.490128,53,110,0
38.493893,38.67085,53,110,0
38.674614,38.851574,43,110,0
38.85534,39.032295,55,110,0
39.03606,39.213017,55,110,0
39.21678,39.39374,55,110,0
39.397507,39.574463,48,110,0
39.578228,39.755184,48,80,0
39.75895,39.93591,48,80,0
39.397507,40.11663,36,110,0
39.939674,40.11663,43,80,0
40.120396,40.29735,48,80,0
40.301117,40.478073,48,80,0
40.48184,40.6588,48,80,0
40.120396,40.83952,36,80,0
40.662563,40.83952,43,80,0
40.843285,41.02024,50,80,0
41.024006,41.200966,48,80,0
41.20473,41.381687,47,80,0
41.385452,41.56241,45,80,0
41.566174,41.743134,43,80,0
41.7469,41.923855,45,80,0
41.92762,42.104576,47,80,0
40.843285,42.2853,36,80,0
42.10834,42.2853,43,80,0
42.289066,42.466022,48,80,0
42.469788,42.646744,48,80,0
42.65051,42.82747,48,80,0
42.289066,43.00819,36,80,0
42.831234,43.00819,43,80,0
43.011955,43.18891,48,80,0
43.192677,43.369637,48,80,0
43.3734,43.550358,48,80,0
43.011955,43.73108,36,80,0
43.554123,43.73108,43,80,0
43.734844,43.911804,50,80,0
43.91557,44.092525,48,80,0
44.09629,44.273247,47,80,0
44.27701,44.453968,45,80,0
44.457733,44.634693,43,80,0
44.63846,44.815414,45,80,0
44.81918,44.996136,47,80,0
43.734844,45.17686,36,80,0
44.9999,45.17686,43,80,0
45.180626,45.357582,48,80,0
45.180626,45.357582,36,80,0
45.361347,45.538303,43,80,0
45.54207,45.71903,48,80,0
45.54207,45.71903,36,80,0
45.722794,45.89975,43,80,0
45.903515,46.261196,48,80,0
45.903515,46.261196,36,80,0
46.445683,46.62264,39,110,0
46.626404,46.803364,44,110,0
46.80713,46.984085,44,110,0
46.98785,47.029266,46,110,0
47.03303,47.074448,44,110,0
47.078213,47.164806,43,110,0
47.16857,47.25517,44,110,0
47.258934,47.34553,46,110,0
47.349297,47.526253,48,110,0
47.530018,47.706974,48,110,0
47.71074,47.752155,49,110,0
47.75592,47.797337,48,110,0
47.8011,47.8877,47,110,0
47.891464,47.978058,48,110,0
47.981823,48.06842,49,110,0
48.072186,48.24914,51,110,0
48.252907,48.429867,51,110,0
48.43363,48.475044,53,110,0
48.47881,48.520226,51,110,0
48.52399,48.610588,50,110,0
48.614353,48.700947,51,110,0
48.704712,48.79131,53,110,0
48.795074,48.97203,55,110,0
48.975796,49.152756,55,110,0
49.15652,49.243114,55,110,0
49.24688,49.333477,51,110,0
49.337242,49.42384,53,110,0
49.427605,49.5142,55,110,0
49.517963,49.60456,56,110,0
49.608326,49.694923,60,100,0
49.69869,49.785282,56,110,0
49.789047,49.875645,60,100,0
49.87941,49.966007,56,110,0
49.969772,50.056366,60,100,0
50.06013,50.14673,56,110,0
50.150494,50.23709,60,100,0
50.240856,50.32745,56,100,0
50.331215,50.417812,60,100,0
50.421577,50.508175,56,100,0
50.51194,50.598534,60,100,0
50.6023,50.688896,56,100,0
50.69266,50.77926,60,100,0
50.783024,50.869617,56,100,0
50.873383,50.95998,60,100,0
50.963745,51.050343,56,100,0
51.054108,51.1407,58,100,0
51.144466,51.231064,56,100,0
51.23483,51.321426,58,100,0
51.32519,51.411785,56,100,0
51.41555,51.502148,58,100,0
51.505913,51.59251,56,100,0
51.596275,51.68287,58,100,0
51.686634,51.77323,55,100,0
51.686634,51.77323,51,100,0
51.776997,51.863594,58,100,0
51.86736,51.953953,55,100,0
51.86736,51.953953,51,100,0
51.957718,52.044315,58,100,0
52.04808,52.134678,55,100,0
52.04808,52.134678,51,100,0
52.138443,52.225037,58,100,0
52.2288,52.3154,55,100,0
52.2288,52.3154,51,100,0
52.319164,52.40576,58,100,0
52.409527,52.767204,56,100,0
52.95169,53.12865,60,100,0
53.132416,53.309372,68,100,0
53.313137,53.490093,68,100,0
53.49386,53.67082,68,100,0
53.674583,53.85154,63,100,0
53.855305,54.03226,72,100,0
54.036026,54.212986,72,100,0
54.21675,54.303345,72,100,0
54.30711,54.393707,73,100,0
54.397472,54.48407,72,100,0
54.487835,54.57443,70,100,0
54.578194,54.755154,69,100,0
54.75892,54.935875,75,100,0
54.93964,55.026237,75,100,0
55.030003,55.116596,77,100,0
55.12036,55.20696,75,100,0
55.210724,55.29732,73,100,0
55.301086,55.478043,72,110,0
55.481808,55.658764,72,110,0
55.66253,55.749126,72,110,0
55.75289,55.83949,73,110,0
55.843254,55.929848,72,110,0
55.933613,56.02021,70,110,0
56.023975,56.20093,69,110,0
56.204697,56.381657,69,110,0
56.38542,56.472015,69,110,0
56.47578,56.562378,70,110,0
56.566143,56.65274,69,110,0
56.656506,56.7431,65,110,0
56.746864,57.104546,70,110,0
57.469753,57.646713,73,110,0
57.65048,57.827435,73,110,0
57.8312,57.917797,73,110,0
57.921562,58.008156,75,110,0
58.01192,58.09852,73,110,0
58.102283,58.18888,72,110,0
58.192646,58.369602,70,110,0
58.373367,58.550323,70,110,0
58.55409,58.640686,70,110,0
58.64445,58.73105,72,110,0
58.734814,58.821407,70,110,0
58.825172,58.91177,68,110,0
58.915535,59.002132,67,110,0
59.005898,59.09249,68,110,0
59.096256,59.182854,67,110,0
59.18662,59.273216,65,110,0
59.27698,59.363575,64,110,0
59.36734,59.453938,62,110,0
59.457703,59.5443,64,110,0
59.548065,59.63466,60,110,0
59.638424,60.35755,65,110,0
60.361317,61.08044,67,110,0
61.084206,61.80333,60,110,0
61.807095,62.52622,62,110,0
62.529984,63.24911,55,110,0
63.252876,63.972,62,110,0
63.252876,63.972,50,110,0
63.975765,64.69489,55,110,0
63.975765,64.69489,43,110,0
64.698654,65.41778,57,110,0
64.698654,65.41778,45,110,0
65.42155,66.14067,50,110,0
65.42155,66.14067,38,110,0
66.14443,66.86356,57,110,0
66.14443,66.86356,45,110,0
66.867325,67.58645,50,110,0
66.867325,67.58645,38,110,0
67.59022,68.30934,46,110,0
67.59022,68.30934,34,110,0
68.3131,68.49006,45,110,0
68.3131,68.49006,33,110,0
68.49383,68.670784,52,110,0
68.67455,68.76115,52,110,0
68.76491,68.85151,51,110,0
68.85527,68.94187,52,110,0
68.94563,69.03223,49,110,0
69.035995,69.21295,53,110,0
69.21672,69.39368,53,110,0
69.39744,69.48404,53,110,0
69.4878,69.574394,52,110,0
69.57816,69.66476,53,110,0
69.035995,69.75512,45,110,0
69.668526,69.75512,50,110,0
69.75889,69.94248,52,110,0
69.94639,70.12998,52,110,0
70.13389,70.22373,52,110,0
70.22764,70.31748,51,110,0
70.32139,70.41123,52,110,0
69.75889,70.50498,45,110,0
70.41514,70.50498,49,110,0
70.50889,70.6984,53,110,0
70.70243,70.89195,53,110,0
70.89598,70.98872,53,110,0
70.99275,71.085495,52,110,0
71.08953,71.182274,53,110,0
70.50889,71.279045,45,110,0
71.1863,71.279045,50,110,0
71.28307,71.65358,52,110,0
71.28307,71.65358,45,110,0
72.741684,72.91864,62,80,0
72.9224,73.099365,62,80,0
73.10313,73.28008,62,80,0
72.741684,73.46081,50,80,0
73.28385,73.46081,57,80,0
73.46457,73.64153,62,80,0
73.645294,73.82225,62,80,0
73.82602,74.002975,62,80,0
73.46457,74.1837,50,80,0
74.00674,74.1837,57,80,0
74.18746,74.36442,64,80,0
74.36819,74.54514,62,82,0
74.548904,74.72587,61,84,0
74.72963,74.906586,59,87,0
74.910355,75.08731,57,90,0
75.09107,75.268036,61,87,0
75.2718,75.44875,59,84,0
74.18746,75.62948,50,80,0
75.45252,75.62948,57,81,0
75.63324,75.8102,62,80,0
75.813965,75.99092,62,80,0
75.99469,76.171646,62,80,0
75.63324,76.35237,50,80,0
76.17541,76.35237,57,80,0
76.35613,76.53309,62,80,0
76.53686,76.71381,62,80,0
76.717575,76.89453,62,80,0
76.35613,77.07526,50,80,0
76.8983,77.07526,57,80,0
77.079025,77.25598,64,80,0
77.25974,77.4367,62,82,0
77.44047,77.617424,61,84,0
77.62119,77.79815,59,87,0
77.80191,77.97887,57,90,0
77.982635,78.15959,61,87,0
78.16336,78.34032,59,84,0
77.079025,78.521034,50,80,0
78.34408,78.521034,57,81,0
78.5248,78.70176,74,80,0
78.70553,78.882484,72,80,0
78.886246,79.0632,71,80,0
79.06697,79.24393,69,80,0
79.247696,79.42465,67,80,0
79.42841,79.60537,71,80,0
79.60914,79.786095,69,80,0
79.78986,79.96682,67,80,0
79.97058,80.14754,72,80,0
80.151306,80.32826,70,80,0
80.33203,80.50899,69,80,0
80.51275,80.689705,67,80,0
80.693474,80.87043,65,80,0
80.87419,81.051155,69,80,0
81.05492,81.23187,67,80,0
81.23564,81.4126,65,80,0
81.41636,81.59332,70,100,0
81.597084,81.77404,72,100,0
81.77781,81.954765,70,100,0
81.95853,82.13549,69,100,0
82.13925,82.31621,67,100,0
82.31998,82.49693,65,100,0
82.500694,82.67766,64,101,0
82.68142,82.858376,62,102,0
82.862144,83.0391,60,103,0
83.04286,83.219826,59,104,0
83.22359,83.40054,58,105,0
83.40431,83.58127,57,105,0
83.58503,83.76199,55,106,0
83.765755,83.94271,53,107,0
83.94648,84.123436,52,108,0
84.1272,84.30416,50,109,0
84.30792,84.6656,48,110,0
85.57298,85.629456,36,120,0
85.633224,85.6897,38,120,0
85.69346,85.74994,40,120,0
85.7537,85.93066,41,120,0
85.934425,86.11138,41,120,0
86.11515,86.29211,41,120,0
86.29587,86.472824,36,120,0
86.47659,86.65355,45,120,0
86.65732,86.834274,45,120,0
86.838036,87.01499,45,120,0
87.01876,87.19572,41,120,0
87.199486,87.37644,48,120,0
87.3802,87.55716,48,120,0
87.56093,87.64752,48,120,0
87.65129,87.737885,50,120,0
87.74165,87.82825,48,120,0
87.83201,87.91861,46,120,0
87.92237,88.09933,45,110,0
88.103096,88.28005,45,110,0
88.28382,88.370415,45,110,0
88.374176,88.46078,46,110,0
88.46454,88.55114,45,110,0
88.5549,88.641495,43,110,0
88.64526,88.82222,41,110,0
88.82599,88.91258,60,110,0
88.91634,89.002945,58,110,0
89.00671,89.09331,57,110,0
89.09707,89.18366,55,110,0
89.18743,89.274025,53,110,0
89.277794,89.36439,52,110,0
89.36815,89.45475,53,110,0
89.45851,89.54511,52,110,0
89.548874,89.63547,50,110,0
89.63924,89.72583,48,110,0
89.7296,89.81619,46,110,0
89.81996,89.906555,45,110,0
89.91032,89.99692,43,110,0
90.00068,90.08728,41,110,0
90.09104,90.177635,40,110,0
90.181404,90.268,41,110,0
90.27177,90.35836,43,110,0
90.36213,90.44872,41,110,0
90.452484,90.539085,40,110,0
90.54285,90.62945,36,110,0
90.63321,90.7198,38,110,0
90.72357,90.810165,40,110,0
90.813934,90.99089,41,110,0
90.99465,91.171616,39,110,0
91.17538,91.35233,38,110,0
91.3561,91.53306,42,110,0
91.53682,91.71378,43,110,0
91.717545,91.8945,43,110,0
91.89827,92.075226,43,110,0
92.07899,92.25595,38,110,0
92.25971,92.43667,46,110,0
92.44044,92.61739,46,110,0
92.621155,92.79812,46,110,0
92.80188,92.978836,43,110,0
92.982605,93.15956,50,110,0
93.16332,93.34029,50,110,0
93.34405,93.43064,50,110,0
93.43441,93.521,51,110,0
93.52477,93.61137,50,110,0
93.61513,93.70173,48,110,0
93.70549,93.88245,46,110,0
93.886215,94.06317,46,110,0
94.06694,94.153534,46,110,0
94.157295,94.2439,48,110,0
94.24766,94.33426,46,110,0
94.33802,94.424614,45,110,0
94.42838,94.60534,43,110,0
94.60911,94.6957,62,110,0
94.69946,94.786064,60,110,0
94.789825,94.87643,58,110,0
94.88019,94.96678,57,110,0
94.97055,95.057144,55,110,0
95.06091,95.14751,54,110,0
95.151276,95.23787,55,110,0
95.24163,95.32823,53,110,0
95.33199,95.418594,51,110,0
95.422356,95.50895,50,110,0
95.51272,95.59931,48,110,0
95.60308,95.689674,46,110,0
95.69344,95.78004,45,110,0
95.7838,95.8704,43,110,0
95.87416,95.96076,42,110,0
95.96452,96.05112,43,110,0
96.054886,96.14148,45,110,0
96.14525,96.23184,43,110,0
96.23561,96.322205,42,110,0
96.325966,96.41257,38,110,0
96.41633,96.50293,40,110,0
96.50669,96.593285,42,110,0
96.59705,96.77401,43,110,0
96.77778,96.954735,42,110,0
96.958496,97.13545,41,110,0
97.13922,97.31618,45,110,0
97.31995,97.4969,46,110,0
97.50066,97.67762,46,110,0
97.68139,97.858345,46,110,0
97.86211,98.03907,41,110,0
98.04283,98.21979,50,110,0
98.22356,98.40051,50,110,0
98.404274,98.58124,50,110,0
98.585,98.761955,46,110,0
98.765724,98.94268,53,110,0
98.94644,99.123405,53,110,0
99.12717,99.21376,53,110,0
99.21753,99.30412,55,110,0
99.30789,99.394485,53,110,0
99.398254,99.48485,51,110,0
99.48861,99.66557,50,110,0
99.669334,99.84629,50,110,0
99.85006,99.93665,50,110,0
99.94042,100.027016,51,110,0
100.03078,100.11738,50,110,0
100.12114,100.20774,48,110,0
100.2115,100.38846,46,110,0
100.39223,100.47882,58,80,0
100.48259,100.56918,61,80,0
100.572945,100.659546,58,80,0
100.66331,100.74991,61,80,0
100.75367,100.84026,58,80,0
100.84403,100.930626,61,80,0
100.934395,101.02099,58,80,0
101.02476,101.11135,61,80,0
101.11511,101.20171,58,80,0
101.205475,101.292076,61,80,0
101.29584,101.38243,58,80,0
101.3862,101.47279,61,80,0
101.47656,101.563156,58,80,0
101.566925,101.65352,61,80,0
101.65728,101.74388,53,80,0
101.74764,101.834236,60,80,0
101.838005,101.9246,57,81,0
101.92837,102.01496,60,81,0
102.01873,102.10532,57,82,0
102.109085,102.19569,60,83,0
102.19945,102.28605,57,83,0
102.28981,102.3764,60,84,0
102.38017,102.46677,58,85,0
102.470535,102.55713,61,85,0
102.5609,102.64749,58,86,0
102.65125,102.737854,61,87,0
102.741615,102.82822,58,87,0
102.83198,102.91857,61,88,0
102.92234,103.008934,58,88,0
103.0127,103.0993,61,89,0
103.103065,103.18966,53,90,0
103.19342,103.28002,60,90,0
103.28378,103.370384,57,91,0
103.374146,103.46074,60,92,0
103.46451,103.5511,57,92,0
103.55487,103.641464,60,93,0
103.64523,103.73183,57,94,0
103.73559,103.82219,60,94,0
103.82595,103.91255,58,95,0
103.91631,104.00291,61,95,0
104.006676,104.09327,58,96,0
104.09704,104.18363,61,97,0
104.1874,104.273994,58,97,0
104.277756,104.36436,61,98,0
104.36812,104.45472,60,99,0
104.45848,104.545074,63,99,0
104.54884,104.63544,61,100,0
104.639206,104.7258,65,101,0
104.72957,104.81616,61,101,0
104.81992,104.906525,65,102,0
104.910286,104.99689,61,102,0
105.00065,105.08724,65,103,0
105.09101,105.177605,60,104,0
105.18137,105.26797,63,104,0
105.271736,105.35833,58,105,0
105.36209,105.44869,61,106,0
105.45245,105.539055,58,106,0
105.542816,105.62941,61,107,0
105.63318,105.71977,58,108,0
105.72354,105.810135,61,108,0
105.8139,105.9005,56,109,0
105.90426,105.99086,60,109,0
105.99462,106.081215,55,110,0
106.084984,106.17158,58,110,0
106.17535,106.26194,55,110,0
106.26571,106.3523,58,110,0
106.356064,106.442665,55,110,0
106.44643,106.53303,58,110,0
106.53679,106.62338,55,110,0
106.62715,106.713745,58,110,0
106.717514,106.80411,56,110,0
106.80788,106.89447,60,110,0
106.89823,106.98483,56,110,0
106.988594,107.075195,60,110,0
107.07896,107.16555,52,110,0
107.16932,107.25591,60,110,0
107.25968,107.346275,52,110,0
107.350044,107.43664,60,110,0
107.4404,107.527,53,110,0
107.53076,107.61736,60,110,0
107.621124,107.70772,53,110,0
107.71149,107.79808,60,110,0
107.80185,107.88844,51,110,0
107.89221,107.978806,53,110,0
107.98257,108.06917,51,110,0
108.07293,108.15953,53,110,0
108.16329,108.249886,49,110,0
108.253654,108.34025,53,110,0
108.34402,108.43061,49,110,0
108.43438,108.52097,53,110,0
108.524734,108.611336,45,110,0
108.6151,108.7017,53,110,0
108.70546,108.79205,45,110,0
108.79582,108.882416,53,110,0
108.886185,108.97278,46,120,0
108.97655,109.06314,53,120,0
109.0669,109.1535,46,120,0
109.157265,109.243866,53,120,0
109.24763,109.33422,46,120,0
109.33799,109.42458,53,120,0
109.42835,109.514946,48,120,0
109.518715,109.60531,53,120,0
109.60907,109.69567,49,120,0
109.69943,109.78603,53,120,0
109.789795,109.87639,49,120,0
109.88016,109.96675,53,120,0
109.97052,110.05711,49,120,0
110.060875,110.14748,53,120,0
110.15124,110.23784,37,120,0
110.2416,110.32819,49,120,0
110.33196,110.41856,36,120,0
110.422325,110.50892,48,120,0
110.51269,110.59928,36,120,0
110.60304,110.689644,48,120,0
110.693405,110.78001,36,120,0
110.78377,110.87036,48,120,0
110.87413,110.960724,40,120,0
110.96449,111.05109,52,120,0
111.054855,111.14145,41,120,0
111.14521,111.23181,53,120,0
111.23557,111.322174,41,120,0
111.325935,111.41253,53,120,0
111.4163,111.50289,41,120,0
111.50666,111.593254,53,120,0
111.59702,111.68362,33,120,0
111.68738,111.77398,45,120,0
111.77774,111.86434,34,110,0
111.8681,111.9547,46,110,0
111.958466,112.04506,34,110,0
112.04883,112.13542,46,110,0
112.13919,112.225784,34,110,0
112.229546,112.31615,46,110,0
112.31991,112.40651,35,110,0
112.41027,112.496864,47,110,0
112.50063,112.59048,36,110,0
112.59438,112.68423,48,110,0
112.68813,112.77798,36,110,0
112.78188,112.87173,48,110,0
112.87563,112.968376,36,110,0
112.972404,113.06515,48,110,0
113.06918,113.16192,36,110,0
113.165955,113.2587,48,110,0
113.262726,113.45225,53,110,0
113.456276,113.63323,53,80,0
113.637,113.81396,53,80,0
113.262726,113.99468,41,110,0
113.81772,113.99468,48,80,0
113.99844,114.1754,53,80,0
114.17917,114.356125,53,80,0
114.359886,114.53685,53,80,0
113.99844,114.71757,41,80,0
114.54061,114.71757,48,80,0
114.72134,114.89829,55,80,0
114.902054,115.07902,53,80,0
115.08278,115.259735,52,80,0
115.263504,115.44046,50,80,0
115.44422,115.62118,48,80,0
115.62495,115.8019,50,80,0
115.80567,115.98263,52,80,0
114.72134,116.163345,41,80,0
115.98639,116.163345,48,80,0
116.167114,116.34407,53,80,0
116.34784,116.524796,53,80,0
116.52856,116.70551,53,80,0
116.167114,116.88624,41,80,0
116.70928,116.88624,48,80,0
116.89001,117.06696,53,80,0
117.070724,117.24768,53,80,0
117.25145,117.428406,53,80,0
116.89001,117.60913,41,80,0
117.432175,117.60913,48,80,0
117.61289,117.78985,55,80,0
117.79362,117.97057,53,80,0
117.97434,118.1513,52,80,0
118.15506,118.332016,50,80,0
118.335785,118.51274,48,80,0
118.51651,118.69347,50,80,0
118.69723,118.87418,52,80,0
117.61289,119.05491,41,80,0
118.87795,119.05491,48,80,0
119.239395,119.41635,65,80,0
119.42012,119.59708,65,80,0
119.05868,119.7778,53,80,0
119.60084,119.7778,60,80,0
119.78156,119.95852,65,80,0
119.96229,120.139244,65,80,0
120.143005,120.31997,65,80,0
119.78156,120.50069,53,80,0
120.32373,120.50069,60,80,0
120.504456,120.68141,67,80,0
120.68517,120.86214,65,84,0
120.8659,121.042854,64,89,0
121.04662,121.22358,62,94,0
121.22734,121.404305,60,90,0
121.408066,121.58502,64,87,0
121.58879,121.76575,62,84,0
120.504456,121.94647,53,80,0
121.76951,121.94647,60,81,0
121.95023,122.12719,65,80,0
122.13096,122.307915,65,80,0
122.311676,122.48864,65,80,0
121.95023,122.66936,53,80,0
122.4924,122.66936,60,80,0
122.67313,122.85008,65,80,0
122.85384,123.03081,65,80,0
123.03457,123.211525,65,80,0
122.67313,123.39225,53,80,0
123.215294,123.39225,60,80,0
123.39601,123.572975,67,80,0
123.57674,123.75369,65,84,0
123.75746,123.93442,64,89,0
123.93818,124.115135,62,94,0
124.118904,124.29586,60,90,0
124.29963,124.476585,64,87,0
124.48035,124.6573,62,84,0
123.39601,124.83803,53,80,0
124.66107,124.83803,60,81,0
124.8418,125.01875,65,80,0
125.022514,125.19947,76,80,0
125.20324,125.380196,74,80,0
125.383965,125.56092,72,80,0
125.56468,125.74164,70,80,0
125.74541,125.92236,69,80,0
125.92613,126.10309,67,80,0
126.10685,126.283806,72,80,0
126.287575,126.46453,65,80,0
126.4683,126.645256,64,81,0
126.64902,126.82597,62,83,0
126.82974,127.0067,60,85,0
127.01047,127.18742,58,87,0
127.191185,127.36814,57,89,0
127.37191,127.54887,55,91,0
127.552635,127.72959,60,93,0
127.73335,127.91031,57,95,0
127.73335,127.91031,53,95,0
127.91408,128.09103,57,97,0
127.91408,128.09103,53,97,0
128.0948,128.27176,57,99,0
128.0948,128.27176,53,99,0
128.27553,128.45248,57,101,0
128.27553,128.45248,53,101,0
128.45624,128.6332,55,103,0
128.45624,128.6332,53,103,0
128.63696,128.81392,55,105,0
128.63696,128.81392,53,105,0
128.81769,128.99464,55,107,0
128.81769,128.99464,52,107,0
128.99841,129.17537,55,109,0
128.99841,129.17537,52,109,0
129.17914,129.37497,53,120,0
129.37914,129.57497,36,120,0
129.57913,129.77496,36,120,0
129.77913,129.97496,36,120,0
129.97914,130.18895,36,120,0
130.19342,130.40324,36,120,0
130.4077,130.63367,38,120,0
130.63847,130.96486,40,120,0
130.9718,131.96486,41,120,0
130.9718,131.96486,29,120,0
