start_time,end_time,note_value,velocity,instrument_program_number
12.0,12.371094,74,70,40
12.375,12.746094,76,70,40
12.75,13.121094,77,70,40
13.125,13.496094,79,70,40
13.5,14.621094,77,70,40
14.625,14.808594,76,70,40
14.8125,14.996094,74,70,40
15.0,15.183594,72,70,40
15.1875,15.324219,74,70,40
15.375,15.511719,76,70,40
15.5625,15.699219,77,70,40
15.75,16.121094,79,70,40
16.125,16.496094,81,70,40
16.5,17.996094,79,70,40
18.0,18.371094,79,70,40
18.375,18.746094,81,72,40
18.75,19.121094,82,75,40
19.125,19.496094,84,77,40
19.5,20.621094,82,80,40
20.625,20.808594,81,88,40
20.8125,20.996094,79,89,40
21.0,21.183594,77,90,40
21.1875,21.324219,79,92,40
21.375,21.511719,81,93,40
21.5625,21.699219,82,94,40
21.75,22.121094,84,96,40
22.125,22.496094,86,98,40
22.5,23.996094,84,100,40
24.0,25.496094,86,100,40
25.5,27.08453,88,125,40
25.5,27.08453,76,125,40
27.088995,28.284828,89,120,40
27.088995,28.284828,77,120,40
28.288994,28.684828,65,120,40
28.688995,28.838823,74,120,40
29.099953,29.24978,70,120,40
29.51091,30.328547,69,120,40
30.332827,30.482655,74,70,40
30.743784,30.893614,70,70,40
31.154743,31.972378,69,70,40
31.976658,32.130707,74,70,40
32.399193,32.55324,70,70,40
32.821728,33.662395,68,70,40
33.666798,34.507465,67,70,40
34.511868,35.430138,76,70,40
35.434944,35.57517,79,70,40
35.81956,35.959785,70,70,40
36.204174,36.9694,69,70,40
36.973404,37.769238,71,70,40
37.773403,38.626083,77,70,40
38.630547,38.786797,82,70,40
39.059116,39.215366,73,70,40
39.48769,40.340366,72,110,40
40.34483,41.19751,78,110,40
41.201973,43.768932,79,110,40
43.7734,45.438576,72,110,40
45.487682,46.608776,72,95,40
46.612682,46.796276,74,70,40
46.800182,46.983776,72,70,40
46.987682,47.171276,70,70,40
47.175182,47.358776,72,70,40
47.362682,47.546276,69,70,40
47.550182,47.733776,67,70,40
47.737682,47.921276,69,70,40
47.925182,48.108776,67,70,40
48.112682,48.296276,65,70,40
48.300182,48.483776,67,70,40
48.487682,48.671276,69,70,40
48.675182,48.858776,70,70,40
48.862682,49.046276,72,70,40
49.050182,49.233776,74,70,40
49.237682,49.421276,72,70,40
49.425182,49.608776,74,70,40
49.612682,49.796276,76,70,40
49.800182,49.983776,77,70,40
49.987682,50.171276,76,70,40
50.175182,50.3119,79,70,40
50.362682,50.4994,70,70,40
50.550182,50.6869,70,70,40
50.737682,50.921276,70,70,40
50.925182,51.0619,72,70,40
51.112682,51.2494,67,70,40
51.300182,51.4369,67,70,40
51.487682,51.858776,69,70,40
61.612682,62.358776,89,100,40
62.362682,62.733776,88,70,40
62.737682,63.108776,86,70,40
63.112682,64.60878,91,70,40
64.612686,64.73378,89,70,40
64.737686,64.85878,88,70,40
64.862686,64.98378,86,70,40
64.987686,65.10878,84,70,40
65.112686,65.23378,83,70,40
65.237686,65.35878,81,70,40
65.362686,65.48378,79,70,40
65.487686,65.60878,77,70,40
65.612686,65.73378,76,70,40
65.737686,65.85878,74,70,40
65.862686,65.98378,72,70,40
65.987686,66.10878,71,70,40
66.112686,66.23378,77,70,40
66.237686,66.35878,74,70,40
66.362686,66.48378,71,70,40
66.487686,66.85878,72,70,40
66.862686,67.23378,74,73,40
67.237686,67.60878,76,76,40
67.612686,67.98378,77,80,40
67.987686,68.35878,74,83,40
68.362686,68.73378,76,87,40
68.737686,69.10878,77,90,40
69.112686,69.48378,79,93,40
69.487686,69.85878,81,97,40
69.862686,70.23378,83,100,40
70.237686,70.60878,84,104,40
70.612686,70.98378,86,107,40
70.987686,71.75291,88,110,40
71.75691,72.58102,90,110,40
72.58548,72.981316,91,120,40
80.28013,80.46372,68,70,40
80.65513,80.83872,72,70,40
81.03013,81.21372,75,70,40
81.40513,81.58872,78,70,40
81.78013,83.27622,79,100,40
83.28013,83.46372,67,96,40
83.65513,83.83872,70,70,40
84.03013,84.21372,73,70,40
84.40513,84.58872,76,70,40
84.78013,86.27622,77,110,40
86.28013,86.46372,65,70,40
86.65513,86.83872,68,70,40
87.03013,87.21372,71,70,40
87.40513,87.58872,74,70,40
87.78013,87.96372,76,70,40
88.15513,88.52622,67,70,40
88.53013,88.90122,66,70,40
88.90513,89.27622,67,70,40
89.28013,89.65122,67,70,40
89.65513,90.02622,69,70,40
90.03013,90.40122,67,70,40
90.40513,90.77622,65,70,40
90.78013,91.90122,64,70,40
91.90513,92.27622,62,70,40
92.28013,92.83872,60,70,40
92.84263,93.02622,62,70,40
93.03013,93.40122,64,70,40
93.40513,93.58872,65,70,40
93.59263,93.77622,67,70,40
93.78013,94.43638,69,70,40
94.43638,94.52622,71,70,40
94.53013,94.59423,71,70,40
94.59423,94.65833,72,70,40
94.65833,94.722435,71,70,40
94.722435,94.78654,72,70,40
94.78654,94.85064,71,70,40
94.85064,94.91474,72,70,40
94.91474,94.98141,71,70,40
94.98141,95.04807,72,70,40
95.04807,95.11474,71,70,40
95.11474,95.21474,69,70,40
95.21474,95.31058,71,70,40
95.31474,95.68584,72,70,40
95.68974,96.06084,81,70,40
96.06474,96.43584,79,70,40
96.43974,96.81084,77,70,40
96.81474,97.93584,76,70,40
97.93974,98.31084,74,70,40
98.31474,98.43584,72,70,40
98.43974,98.56084,74,71,40
98.56474,98.68584,72,73,40
98.68974,98.81084,71,75,40
98.81474,98.93584,72,76,40
98.93974,99.06084,74,78,40
99.06474,99.15459,76,80,40
99.15849,99.24834,77,81,40
99.25224,99.34209,76,82,40
99.34599,99.43584,74,84,40
99.43974,99.56084,76,85,40
99.56474,99.68584,77,87,40
99.68974,99.81084,79,88,40
99.81474,100.47099,81,90,40
100.47099,100.56084,83,99,40
100.56474,100.628845,83,100,40
100.628845,100.69295,84,101,40
100.69295,100.75705,83,102,40
100.75705,100.82115,84,103,40
100.82115,100.885254,83,104,40
100.885254,100.949356,84,104,40
100.949356,101.01602,83,105,40
101.01602,101.08269,84,106,40
101.08269,101.14935,83,107,40
101.14935,101.2565,81,108,40
101.2565,101.35918,83,109,40
101.36364,101.936554,84,110,40
101.94057,102.03672,83,70,40
102.03672,102.13287,81,70,40
102.13287,102.321175,79,70,40
102.51749,102.58159,79,70,40
102.58159,102.64569,81,70,40
102.64569,102.70979,79,70,40
102.70979,102.80595,78,70,40
102.80595,102.898094,79,70,40
102.9021,103.47501,84,110,40
103.47903,103.57518,83,70,40
103.57518,103.67133,81,70,40
103.67133,103.859634,79,70,40
104.05595,104.12005,83,70,40
104.12005,104.18415,84,70,40
104.18415,104.24825,83,70,40
104.24825,104.344406,81,70,40
104.344406,104.436554,83,70,40
104.44056,105.01347,88,100,40
105.01749,105.11364,86,70,40
105.11364,105.20979,84,70,40
105.20979,105.398094,83,70,40
105.594406,105.65851,83,70,40
105.65851,105.72261,84,70,40
105.72261,105.78671,83,70,40
105.78671,105.882866,81,70,40
105.882866,105.97501,83,70,40
105.97902,106.55938,88,100,40
106.56344,106.660835,86,70,40
106.660835,106.75824,84,70,40
106.75824,106.95407,83,70,40
107.15824,107.22673,83,70,40
107.22673,107.29523,84,70,40
107.29523,107.36372,83,70,40
107.36372,107.47086,81,70,40
107.47086,107.57354,83,70,40
107.578,111.131065,91,110,40
111.13507,111.263275,86,70,40
111.263275,111.39148,84,70,40
111.39148,111.519684,83,70,40
111.519684,111.64789,81,70,40
111.64789,111.77609,83,70,40
111.77609,111.9043,79,70,40
111.9043,112.284904,91,70,40
112.67353,112.801735,79,70,40
112.801735,112.92994,77,70,40
112.92994,113.05814,76,70,40
113.05814,113.18635,74,70,40
113.18635,113.31455,76,70,40
113.31455,113.44276,72,70,40
113.44276,113.82337,84,70,40
114.21199,114.340195,74,70,40
114.340195,114.4684,72,70,40
114.4684,114.5966,71,70,40
114.5966,114.72481,69,70,40
114.72481,114.85301,71,70,40
114.85301,114.98122,67,70,40
114.98122,115.36183,79,70,40
115.75045,115.878654,67,70,40
115.878654,116.00686,65,70,40
116.00686,116.13506,64,70,40
116.13506,116.26327,62,70,40
116.26327,116.39147,64,70,40
116.39147,116.51968,60,70,40
116.51968,117.284904,72,70,40
117.67352,117.79772,72,60,40
117.80173,117.92593,78,60,40
117.92993,118.05413,81,60,40
118.058136,118.43875,84,60,40
119.21198,119.33618,72,60,40
119.34019,119.464386,78,60,40
119.46839,119.59259,81,60,40
119.596596,119.97721,84,60,40
123.058136,123.182335,62,81,40
123.18634,123.31054,60,83,40
123.314545,123.43874,59,84,40
123.44275,123.56695,57,85,40
123.57095,123.69515,59,86,40
123.69916,123.82336,55,87,40
123.82736,123.92753,59,89,40
123.95557,124.05573,62,90,40
124.08377,124.18394,67,91,40
124.21198,124.33618,71,92,40
124.34019,124.464386,74,93,40
124.46839,124.59259,79,95,40
124.596596,124.720795,83,96,40
124.7248,124.849,86,97,40
124.853004,124.9772,89,98,40
124.98121,125.10541,86,100,40
125.10941,125.23361,83,101,40
125.23762,125.36182,79,102,40
125.36582,125.49002,77,103,40
125.494026,125.618225,74,104,40
125.62224,125.74643,71,106,40
125.75044,125.87464,67,107,40
125.87865,126.002846,69,108,40
126.00685,126.13105,65,110,40
126.135056,126.51566,64,120,40
127.2889,127.4131,79,120,40
127.41711,127.541306,77,120,40
127.54531,127.66951,76,120,40
127.673515,127.797714,74,120,40
127.80172,127.92592,76,120,40
127.929924,128.05412,72,120,40
128.05814,128.1583,76,120,40
128.18634,128.2865,79,120,40
128.31454,128.4147,84,120,40
128.44275,128.57191,88,120,40
128.57608,128.70525,91,120,40
128.70941,128.83858,91,120,40
128.84274,128.97919,91,110,40
128.9836,129.12613,91,95,40
129.13094,129.27997,91,80,40
129.28477,130.07014,91,70,40
130.86372,131.64908,55,70,40
130.86372,131.64908,65,70,40
132.44267,133.22803,91,70,40
134.0216,134.80698,55,70,40
134.0216,134.80698,65,70,40
135.60056,136.18855,91,110,40
136.39003,136.97803,64,110,40
136.39003,136.97803,73,110,40
137.1795,137.78339,77,110,40
137.99031,138.62871,77,110,40
137.99031,138.62871,89,110,40
138.84746,139.9973,67,70,40
140.0013,140.38191,69,70,40
140.38591,140.76653,71,70,40
140.77052,141.15114,72,70,40
141.15514,141.53575,74,70,40
141.53976,141.92036,76,70,40
141.92438,143.07422,72,70,40
143.07822,143.26653,74,70,40
143.27052,143.45883,72,70,40
143.46283,143.65114,71,70,40
143.65514,143.79536,72,70,40
143.84744,143.98767,71,70,40
144.03975,144.17998,72,70,40
144.23206,144.42036,74,70,40
144.42438,144.56459,76,70,40
144.61668,144.7569,74,70,40
144.80899,144.9492,76,70,40
145.0013,146.15114,72,70,40
146.15514,146.34344,74,70,40
146.34744,146.53575,72,70,40
146.53975,146.72806,71,70,40
146.73206,146.87228,72,70,40
146.92436,147.06459,74,70,40
147.11667,147.2569,76,70,40
147.30899,147.49728,77,70,40
147.5013,147.64151,81,70,40
147.6936,147.83382,79,70,40
147.88591,148.02612,71,70,40
148.07822,149.80498,72,70,40
149.80898,149.9492,76,70,40
150.00128,150.14151,74,70,40
150.19359,150.33382,76,70,40
150.38591,150.5742,77,70,40
150.57822,150.71843,79,70,40
150.77052,150.91074,77,70,40
150.96283,151.10304,79,70,40
151.15514,151.53093,77,70,40
152.10449,152.29042,79,70,40
152.29437,152.48029,77,70,40
152.48424,152.67017,79,70,40
152.67412,152.86003,77,70,40
153.62349,153.8094,76,70,40
153.81335,153.99927,77,70,40
154.00323,154.18915,76,70,40
154.1931,154.37901,77,70,40
155.14247,155.32838,79,81,40
155.33234,155.51825,77,84,40
155.52222,155.70813,79,86,40
155.71208,155.898,77,89,40
167.74612,167.92972,83,110,40
167.93362,168.07034,84,108,40
168.12112,168.25784,83,106,40
168.30862,168.44534,84,104,40
168.49612,168.68443,86,102,40
168.68843,168.82866,87,99,40
168.88074,169.02658,86,97,40
169.08075,169.237,87,95,40
169.29503,169.66612,89,93,40
169.67003,170.04112,91,88,40
170.04503,170.41612,93,84,40
170.42003,170.79112,94,80,40
170.79503,171.91612,89,70,40
171.92003,172.10362,91,70,40
172.10753,172.29112,89,70,40
172.29503,172.47862,87,70,40
172.48253,172.61925,89,70,40
172.67003,172.80675,86,70,40
172.85753,172.99425,84,70,40
173.04503,173.41612,82,70,40
173.42003,173.79112,91,70,40
173.79503,175.42003,89,110,40
175.42003,175.54503,86,70,40
175.54503,175.67003,82,70,40
175.67003,175.79503,77,70,40
175.79503,175.92003,74,70,40
175.92003,176.04503,70,70,40
176.04503,176.17003,65,70,40
176.17003,176.29503,62,70,40
176.29503,176.42003,58,70,40
176.42003,176.54503,57,70,40
176.54503,176.67003,60,70,40
176.67003,176.79112,66,70,40
176.79503,176.97862,55,70,40
176.79503,176.97862,66,70,40
176.98253,177.16612,55,70,40
176.98253,177.16612,66,70,40
177.17003,177.35362,55,70,40
177.17003,177.35362,66,70,40
177.35753,177.54112,55,70,40
177.35753,177.54112,66,70,40
177.54503,177.72862,55,70,40
177.54503,177.72862,66,70,40
177.73253,177.91612,55,70,40
177.73253,177.91612,66,70,40
177.92003,178.10362,55,70,40
177.92003,178.10362,66,70,40
178.10753,178.29112,55,70,40
178.10753,178.29112,66,70,40
178.29503,178.47862,57,70,40
178.29503,178.47862,66,70,40
178.48253,178.66612,57,70,40
178.48253,178.66612,66,70,40
178.67003,178.85362,57,70,40
178.67003,178.85362,66,70,40
178.85753,179.04112,57,70,40
178.85753,179.04112,66,70,40
179.04503,179.22862,57,70,40
179.04503,179.22862,66,70,40
179.23253,179.41612,57,70,40
179.23253,179.41612,66,70,40
179.42003,179.60362,57,70,40
179.42003,179.60362,66,70,40
179.60753,179.79112,57,70,40
179.60753,179.79112,66,70,40
179.79503,179.97862,57,110,40
179.79503,179.97862,66,110,40
179.98253,180.16612,57,110,40
179.98253,180.16612,66,110,40
180.17003,180.35362,57,110,40
180.17003,180.35362,66,110,40
180.35753,180.54112,57,110,40
180.35753,180.54112,66,110,40
180.54503,180.72862,57,110,40
180.54503,180.72862,66,110,40
180.73253,180.91612,57,110,40
180.73253,180.91612,66,110,40
180.92003,181.10362,57,110,40
180.92003,181.10362,66,110,40
181.10753,181.29112,57,90,40
181.10753,181.29112,66,90,40
181.29503,181.47862,57,70,40
181.29503,181.47862,66,70,40
181.48253,181.66612,57,70,40
181.48253,181.66612,66,70,40
181.67003,181.85362,57,70,40
181.67003,181.85362,66,70,40
181.85753,182.04112,57,70,40
181.85753,182.04112,66,70,40
182.04503,182.22862,57,70,40
182.04503,182.22862,66,70,40
182.23253,182.41612,57,70,40
182.23253,182.41612,66,70,40
182.42003,182.60362,55,70,40
182.42003,182.60362,67,70,40
182.60753,182.79112,55,70,40
182.60753,182.79112,67,70,40
182.79503,182.97862,55,70,40
182.79503,182.97862,67,70,40
182.98253,183.16612,55,70,40
182.98253,183.16612,67,70,40
183.17003,183.35362,55,70,40
183.17003,183.35362,67,70,40
183.35753,183.54112,55,70,40
183.35753,183.54112,67,70,40
183.54503,183.72862,55,70,40
183.54503,183.72862,67,70,40
183.73253,183.91612,55,70,40
183.73253,183.91612,67,70,40
183.92003,184.10362,55,70,40
183.92003,184.10362,67,70,40
184.10753,184.29112,55,70,40
184.10753,184.29112,67,70,40
184.29503,184.47862,55,70,40
184.29503,184.47862,67,70,40
184.48253,184.66612,55,70,40
184.48253,184.66612,67,70,40
184.67003,184.85362,55,70,40
184.67003,184.85362,67,70,40
184.85753,185.04112,55,70,40
184.85753,185.04112,67,70,40
185.04503,185.41612,55,70,40
185.42003,185.79112,57,74,40
185.79503,186.16612,58,78,40
186.17003,186.54112,60,82,40
186.54503,186.91612,58,86,40
187.29503,187.66612,79,94,40
187.67003,188.04112,81,98,40
188.04503,188.41612,82,102,40
188.42003,189.16612,82,106,40
189.17003,189.91612,82,110,40
189.92003,190.05675,84,110,40
190.10753,190.24425,82,110,40
190.29503,190.47862,81,110,40
190.48253,190.61925,82,110,40
190.67003,190.80675,79,110,40
190.85753,190.99425,77,110,40
191.04503,191.32237,76,110,40
191.42003,191.55675,88,110,40
191.60753,191.74425,86,110,40
191.79503,191.97862,85,110,40
191.98253,192.1159,88,70,40
192.16545,192.29884,82,70,40
192.34839,192.48177,81,70,40
192.53131,192.71042,79,70,40
192.71423,192.84763,82,70,40
192.89716,193.03055,76,70,40
193.0801,193.21347,74,70,40
193.26302,193.44212,73,70,40
193.44594,193.57933,76,70,40
193.62886,193.76225,70,70,40
193.8118,193.94518,69,70,40
193.99472,194.17383,67,70,40
194.17764,194.31104,70,70,40
194.36058,194.49396,64,70,40
194.5435,194.67688,62,70,40
194.72643,194.90555,61,100,40
195.09229,195.22566,64,70,40
195.2752,195.40858,65,70,40
195.45813,195.63725,67,70,40
195.82399,195.95737,73,70,40
196.00691,196.14029,74,70,40
196.18983,196.36896,76,70,40
196.5557,196.68907,79,70,40
196.73862,196.872,81,70,40
196.92154,197.10066,82,70,40
197.2874,197.42078,85,70,40
197.47032,197.60371,85,70,40
197.65324,197.83237,86,100,40
197.83618,197.96956,89,70,40
198.0191,198.15248,81,70,40
198.20203,198.33542,79,70,40
198.38495,198.56407,77,70,40
198.56789,198.70126,81,70,40
198.75081,198.88419,74,70,40
198.93373,199.06712,73,70,40
199.11667,199.29578,74,70,40
199.29959,199.43297,77,70,40
199.48251,199.6159,69,70,40
199.66544,199.79883,67,70,40
199.84837,200.02748,65,70,40
200.0313,200.16467,69,70,40
200.21422,200.34761,62,70,40
200.39714,200.53053,61,70,40
200.58008,200.75919,62,100,40
200.94592,201.07932,65,70,40
201.12886,201.26224,67,70,40
201.31178,201.49089,69,70,40
201.67763,201.81102,74,70,40
201.86057,201.99394,76,70,40
202.04349,202.2226,78,70,40
202.40933,202.54272,78,70,40
202.59227,202.72565,79,70,40
202.77519,202.9543,81,70,40
203.14105,203.27443,81,70,40
203.32397,203.45735,82,70,40
203.5069,203.68602,84,100,40
203.68982,203.82321,87,70,40
203.87276,204.00613,81,70,40
204.05568,204.18906,79,70,40
204.2386,204.41772,78,70,40
204.42152,204.55492,81,70,40
204.60446,204.73784,75,70,40
204.78738,204.92076,74,70,40
204.9703,205.14943,72,70,40
205.15324,205.28662,75,70,40
205.33617,205.46954,69,70,40
205.51909,205.65247,67,70,40
205.70201,205.88113,66,70,40
205.88495,206.01833,69,70,40
206.06787,206.20125,63,70,40
206.2508,206.38419,62,70,40
206.43372,206.61284,60,100,40
206.79958,206.93295,69,70,40
206.9825,207.11589,70,70,40
207.16542,207.34454,72,70,40
207.53128,207.66466,78,70,40
207.7142,207.8476,79,70,40
207.89714,208.07625,81,70,40
208.26299,208.39638,81,70,40
208.4459,208.5793,82,70,40
208.62885,208.80795,84,70,40
208.99469,209.12808,86,70,40
209.17761,209.311,86,70,40
209.36055,209.53966,86,100,40
209.54347,209.67685,91,70,40
209.7264,209.85979,86,70,40
209.90933,210.04271,84,70,40
210.09225,210.27136,82,70,40
210.27518,210.40857,86,70,40
210.4581,210.59149,82,70,40
210.64104,210.77441,81,70,40
210.82396,211.00307,79,70,40
211.00688,211.14027,82,70,40
211.1898,211.3232,74,70,40
211.37274,211.50612,72,70,40
211.55566,211.73479,70,70,40
211.73859,211.87198,74,70,40
211.92152,212.0549,87,70,40
212.10445,212.23782,86,72,40
212.28737,212.46649,87,74,40
212.47029,212.60368,91,77,40
212.65323,212.7866,82,79,40
212.83615,212.96953,80,82,40
213.01907,213.1982,79,84,40
213.202,213.33539,82,86,40
213.38493,213.51831,75,89,40
213.56786,213.70123,74,91,40
213.75078,213.9299,75,94,40
213.93372,214.0671,79,96,40
214.11664,214.25002,70,98,40
214.29956,214.43295,68,101,40
214.48248,214.6616,67,103,40
214.66542,214.7988,70,106,40
214.84834,214.98172,63,108,40
215.03127,215.16466,62,110,40
215.21419,215.39331,63,120,40
215.39713,215.5305,67,120,40
215.58005,215.71342,58,120,40
215.76297,215.89636,56,120,40
215.9459,216.07928,55,120,40
216.12883,216.2622,58,120,40
216.31175,216.44513,63,120,40
216.49467,216.62807,67,120,40
216.67761,216.81099,70,120,40
216.86053,216.99391,75,120,40
217.04346,217.18018,79,120,40
217.23096,217.36768,82,120,40
217.41846,217.55869,87,120,40
217.61076,217.75099,91,120,40
217.80307,217.94891,91,110,40
218.00307,218.15932,91,90,40
218.21736,218.77596,88,70,40
219.71736,220.27596,56,70,40
219.71736,220.27596,65,70,40
221.21736,221.77596,88,70,40
222.71736,223.27596,56,70,40
222.71736,223.27596,65,70,40
224.21736,224.77596,86,70,40
225.71736,226.27596,63,70,40
227.21736,227.77596,84,110,40
227.96736,228.52596,60,110,40
228.71736,229.29028,61,110,40
229.48659,230.12498,73,110,40
230.34373,230.71483,72,70,40
230.71873,231.08983,74,70,40
231.09373,231.46483,76,70,40
231.46873,231.83983,77,70,40
231.84373,232.96483,76,70,40
232.96873,233.15233,77,70,40
233.15623,233.33983,76,70,40
233.34373,233.52733,74,70,40
233.53123,233.66795,76,70,40
233.71873,233.85376,72,70,40
233.90392,234.03894,71,70,40
234.0891,234.27043,74,70,40
234.27429,234.40932,72,70,40
234.45947,234.59285,67,70,40
234.6424,234.77579,65,70,40
234.82532,235.00444,69,70,40
235.00826,235.14163,67,70,40
235.19118,235.32455,64,70,40
235.3741,235.50749,62,70,40
235.55704,235.73615,65,70,40
235.73996,235.87334,64,70,40
235.92288,236.05627,60,70,40
236.1058,236.2392,59,70,40
236.28874,236.42212,62,70,40
236.47166,236.60504,60,70,40
236.65459,236.78798,65,70,40
236.83751,236.9709,64,70,40
237.02045,237.15382,69,70,40
237.20337,237.33675,67,70,40
237.38629,237.51968,74,70,40
237.56923,237.7026,72,70,40
237.75215,237.88553,77,70,40
237.93507,238.06847,76,70,40
238.118,238.25139,81,70,40
238.30093,238.43431,79,70,40
238.48386,238.61723,84,70,40
238.66678,238.80017,83,70,40
238.8497,238.9831,85,70,40
239.03264,239.16602,84,70,40
239.21556,239.39467,82,70,40
239.39848,239.53188,80,70,40
239.58142,239.7148,77,70,40
239.76434,239.89772,76,70,40
239.94727,240.12639,79,70,40
240.13019,240.26358,77,70,40
240.31313,240.4465,72,70,40
240.49605,240.62943,71,70,40
240.67897,240.8581,73,70,40
240.8619,240.99529,72,70,40
241.04483,241.1782,68,70,40
241.22775,241.36113,67,70,40
241.41068,241.5898,70,70,40
241.5936,241.72699,68,70,40
241.77654,241.90991,65,70,40
241.95946,242.09283,64,70,40
242.14238,242.27577,67,70,40
242.32532,242.4587,65,70,40
242.50824,242.64162,70,70,40
242.69116,242.82455,68,70,40
242.87408,243.00748,73,70,40
243.05702,243.1904,72,70,40
243.23994,243.37332,75,70,40
243.42287,243.55626,73,70,40
243.60579,243.73918,78,70,40
243.78873,243.9221,77,70,40
243.97165,244.10503,82,70,40
244.15457,244.28796,80,70,40
244.33751,244.47089,85,70,40
244.52043,244.65381,84,70,40
244.70335,244.83675,87,70,40
244.88628,245.01967,85,70,40
245.06921,245.20259,84,70,40
245.25214,245.38551,82,70,40
245.43506,245.56845,80,70,40
245.61798,245.75137,78,70,40
245.80092,245.9343,77,70,40
245.98384,246.11722,75,70,40
246.16676,246.30016,73,70,40
246.3497,246.48308,72,70,40
246.53262,246.666,70,70,40
246.71555,246.84894,68,70,40
246.89847,247.03186,66,70,40
247.0814,247.21478,65,70,40
247.26433,247.3977,75,70,40
247.44725,247.58064,73,70,40
247.63017,247.76357,87,70,40
247.81311,247.94649,85,70,40
247.99603,248.12941,84,70,40
248.17896,248.31235,82,70,40
248.3619,248.49527,80,70,40
248.54482,248.67819,78,70,40
248.72774,248.86113,77,70,40
248.91066,249.04405,75,70,40
249.0936,249.22697,73,70,40
249.27652,249.4099,72,70,40
249.45944,249.59283,70,70,40
249.64236,249.77576,68,70,40
249.8253,249.95868,66,70,40
250.00822,250.1416,65,70,40
250.19115,250.32454,78,70,40
250.37408,250.50746,77,70,40
250.557,250.69038,89,70,40
250.73993,250.87332,87,70,40
250.92285,251.05624,85,70,40
251.10579,251.23917,84,70,40
251.28871,251.42209,82,70,40
251.47163,251.60503,80,70,40
251.65456,251.78795,78,70,40
251.8375,251.97087,77,70,40
252.02042,252.1538,90,70,40
252.20334,252.33673,89,70,40
252.38626,252.51965,87,70,40
252.5692,252.70258,85,70,40
252.75212,252.8855,84,70,40
252.93504,253.06844,82,70,40
253.11798,253.25136,80,70,40
253.3009,253.43428,78,70,40
253.48383,253.61722,77,70,40
253.66675,253.80014,75,70,40
253.84969,253.98306,73,70,40
254.03261,254.16599,72,70,40
254.21553,254.34892,70,70,40
254.39845,254.53185,68,70,40
254.58139,254.71477,66,70,40
254.76431,254.89769,65,70,40
254.94724,255.08063,63,70,40
255.13017,255.26355,61,70,40
255.3131,255.44647,60,70,40
255.49602,255.62941,56,70,40
255.67894,255.81233,58,70,40
255.86188,255.99525,56,70,40
256.0448,256.1782,58,70,40
256.22772,256.3611,56,70,40
256.41064,256.54404,63,70,40
256.59357,256.72696,61,70,40
256.7765,256.90988,66,70,40
256.95944,257.0928,65,70,40
257.14236,257.27573,70,70,40
257.3253,257.45868,68,70,40
257.5082,257.6416,70,70,40
257.69113,257.82452,68,70,40
257.87405,258.00745,75,70,40
258.05698,258.19037,73,70,40
258.23993,258.3733,70,70,40
258.42285,258.5562,68,71,40
258.60577,258.73917,70,72,40
258.7887,258.9221,68,74,40
258.97162,259.105,73,75,40
259.15454,259.28793,72,76,40
259.33746,259.47086,75,78,40
259.52042,259.65378,73,79,40
259.70334,259.8367,78,80,40
259.88626,260.01965,77,82,40
260.06918,260.20258,80,83,40
260.2521,260.3855,78,84,40
260.43503,260.56842,82,86,40
260.61795,260.75134,80,87,40
260.80087,260.93427,87,88,40
260.98383,261.1172,85,90,40
261.16675,261.3001,84,91,40
261.34967,261.48306,82,92,40
261.5326,261.666,89,94,40
261.7155,261.8489,87,95,40
261.89844,262.03183,90,96,40
262.08136,262.21475,89,98,40
262.2643,262.39767,92,99,40
262.44724,262.5806,90,100,40
262.63016,262.76355,94,110,40
262.81308,262.94647,92,110,40
262.996,263.1294,94,110,40
263.17892,263.31232,92,110,40
263.36185,263.49524,94,110,40
263.5448,263.67816,92,110,40
263.72772,263.86108,94,110,40
263.91064,264.04404,92,110,40
264.09357,264.22696,94,110,40
264.2765,264.40988,92,110,40
264.4594,264.5928,90,110,40
264.64233,264.77573,89,110,40
264.82526,264.95865,87,110,40
265.0082,265.14157,85,110,40
265.19113,265.3245,84,100,40
265.37405,265.50745,87,80,40
265.55698,265.919,80,70,40
265.92282,266.28488,82,70,40
266.2887,266.65073,84,70,40
266.65454,267.01657,85,70,40
267.0204,268.47998,82,110,40
268.4838,269.57755,80,110,40
269.58136,269.76047,78,95,40
269.76428,269.9434,77,70,40
269.9472,270.00818,75,70,40
270.00818,270.06915,77,70,40
270.06915,270.13013,75,70,40
270.13013,270.1911,77,70,40
270.1911,270.25208,75,70,40
270.25208,270.31308,77,70,40
270.31308,270.37405,75,70,40
270.37405,270.43503,77,70,40
270.43503,270.496,75,70,40
270.496,270.55698,77,70,40
270.55698,270.61795,75,70,40
270.61795,270.67892,77,70,40
270.67892,270.7399,75,70,40
270.7399,270.80087,77,70,40
270.80087,270.86185,75,70,40
270.86185,270.92282,77,70,40
270.92282,270.9838,75,70,40
270.9838,271.04477,77,70,40
271.04477,271.10574,75,70,40
271.10574,271.16672,77,70,40
271.16672,271.2277,75,70,40
271.2277,271.31915,73,70,40
271.31915,271.4106,75,70,40
271.4106,272.87024,73,70,40
272.87402,273.23608,72,70,40
273.2399,273.60193,73,70,40
273.60574,273.96777,75,70,40
273.9716,274.1507,77,70,40
274.1545,274.33365,75,70,40
274.33746,275.79706,73,70,40
275.80087,275.97998,72,85,40
275.9838,276.11716,73,88,40
276.16672,276.3001,72,91,40
276.34964,276.48303,73,94,40
276.53256,276.71167,75,97,40
276.71548,276.84888,77,101,40
276.8984,277.0318,75,104,40
277.08136,277.21472,77,107,40
277.26428,277.4434,74,110,40
277.4472,277.5806,75,105,40
277.63013,277.76352,74,99,40
277.81305,277.94644,75,94,40
277.99597,278.17508,77,88,40
278.1789,278.3123,78,83,40
278.36182,278.4952,77,77,40
278.54477,278.67813,78,72,40
278.7277,278.9068,75,66,40
278.9106,279.044,77,61,40
279.09354,279.22693,75,55,40
279.27646,279.40985,77,50,40
279.45938,279.63852,78,50,40
279.6423,279.7757,80,50,40
279.82526,279.95862,78,50,40
280.00818,280.14154,80,50,40
280.1911,280.3702,77,50,40
280.37402,280.50742,78,50,40
280.55695,280.69034,77,50,40
280.73987,280.87326,78,50,40
280.9228,281.10193,80,50,40
281.10574,281.2391,82,50,40
281.28867,281.42203,80,50,40
281.4716,281.60498,82,50,40
281.6545,281.83362,78,50,40
281.83743,281.97083,80,50,40
282.02036,282.15375,78,50,40
282.20328,282.33667,80,50,40
282.3862,282.56534,82,50,40
282.56915,282.7025,83,50,40
282.75208,282.88544,82,50,40
282.935,283.0684,83,50,40
283.11792,283.29703,81,50,40
283.30084,283.43423,82,50,40
283.48376,283.61716,81,50,40
283.6667,283.80008,82,50,40
283.84964,284.02875,84,50,40
284.03256,284.16592,85,50,40
284.21548,284.34888,84,50,40
284.3984,284.5318,85,50,40
284.58133,284.76044,87,50,40
284.76425,284.89764,85,50,40
284.94717,285.08057,84,50,40
285.13013,285.2635,82,50,40
285.31305,285.4464,81,50,40
285.49597,285.62936,82,50,40
285.6789,285.8123,84,50,40
285.86182,285.9952,81,50,40
286.04474,286.4068,82,50,40
294.0935,295.5531,75,50,40
295.55692,296.28482,74,50,40
296.28864,296.5592,75,50,40
296.65448,296.92505,70,50,40
297.02032,298.47995,78,50,40
298.48373,299.57748,77,50,40
299.5813,299.7604,75,50,40
299.76422,299.94336,73,50,40
299.94714,300.3092,72,50,40
300.31302,300.67505,77,50,40
300.67886,300.85797,73,50,40
300.8618,300.99518,75,50,40
301.0447,301.1781,73,50,40
301.22763,301.36102,75,50,40
301.41058,301.5897,77,50,40
301.5935,301.72687,78,50,40
301.77643,301.90982,77,50,40
301.95935,302.09274,78,50,40
302.14227,302.32138,76,50,40
302.3252,302.4586,77,53,40
302.50812,302.6415,76,56,40
302.69107,302.82443,77,60,40
302.874,303.0531,79,63,40
303.05692,303.1903,80,66,40
303.23984,303.37323,79,70,40
303.42276,303.55615,80,73,40
303.60568,303.7848,82,77,40
303.7886,303.922,84,80,40
303.97153,304.10492,82,83,40
304.15448,304.28784,84,87,40
304.3374,304.5165,86,90,40
304.52032,304.65372,88,94,40
304.70325,304.83664,86,97,40
304.88617,305.01956,88,100,40
305.0691,305.43115,89,110,40
305.8008,307.2604,77,110,40
307.26422,307.99213,76,110,40
307.9959,308.2665,77,110,40
308.3618,308.63235,72,110,40
308.72763,310.18723,80,125,40
310.19104,310.91895,78,110,40
310.92276,311.19333,81,110,40
311.2886,311.55917,75,110,40
311.65445,313.11404,84,125,40
313.11786,313.84576,83,110,40
313.84958,314.12015,84,110,40
314.21542,314.486,79,110,40
314.58127,316.0409,88,125,40
316.04468,317.5043,86,110,40
317.50812,318.9677,83,105,40
318.97153,320.06528,80,99,40
320.06906,320.79697,77,95,40
320.80078,321.5287,74,92,40
321.53247,322.26038,71,89,40
322.2642,322.9921,68,86,40
322.9959,323.7238,65,84,40
323.7276,324.4555,62,81,40
324.45932,325.1872,59,78,40
325.191,325.9189,56,75,40
325.92273,326.6506,55,72,40
326.65442,327.01648,55,70,40
327.0203,330.06525,55,70,40
330.06906,330.191,60,70,40
330.191,330.31296,64,70,40
330.31296,330.4349,67,70,40
330.4349,330.55685,72,70,40
330.55685,330.6788,76,70,40
330.6788,330.80075,79,70,40
330.80075,330.9227,76,70,40
330.9227,331.04468,72,70,40
331.04468,331.16663,67,70,40
331.16663,331.28857,64,70,40
331.28857,331.4067,60,70,40
331.41052,332.87012,55,70,40
332.87393,333.23596,60,70,40
333.23978,333.36172,79,70,40
333.36172,333.48367,77,70,40
333.48367,333.60562,76,70,40
333.60562,333.7276,74,70,40
333.7276,333.84955,76,70,40
333.84955,333.9715,72,70,40
333.9715,334.33353,84,70,40
334.7032,334.82513,81,70,40
334.82513,334.94708,79,70,40
334.94708,335.06906,78,70,40
335.06906,335.191,76,70,40
335.191,335.31296,78,70,40
335.31296,335.4349,74,70,40
335.4349,335.79694,86,70,40
336.1666,336.28854,74,70,40
336.28854,336.41052,72,70,40
336.41052,336.53247,70,70,40
336.53247,336.65442,69,70,40
336.65442,336.77637,70,70,40
336.77637,336.89832,67,70,40
336.89832,337.62622,79,70,40
339.0934,339.2154,81,70,40
339.2154,339.33734,79,70,40
339.33734,339.4593,78,70,40
339.4593,339.58124,76,70,40
339.58124,339.7032,78,70,40
339.7032,339.82513,74,70,40
339.82513,340.56207,86,70,40
341.7102,342.07227,85,70,40
342.07608,342.4381,86,70,40
342.44193,342.80396,88,70,40
342.80777,343.16983,89,70,40
343.17365,344.26736,88,70,40
344.27118,344.63324,84,70,40
345.0029,345.12485,83,70,40
345.12485,345.2468,81,70,40
345.2468,345.36874,80,70,40
345.36874,345.4907,78,70,40
345.4907,345.61264,80,70,40
345.61264,345.7346,76,70,40
345.7346,346.4625,88,70,40
347.56387,347.9259,79,70,40
347.92972,348.29175,81,70,40
348.29556,348.65762,82,70,40
348.66144,349.02347,84,70,40
349.02728,350.12103,82,70,40
350.12485,350.85272,79,70,40
350.85654,351.2186,81,70,40
351.22238,351.58444,82,70,40
351.58826,351.9503,84,70,40
351.9541,353.04785,82,70,40
353.05167,353.4137,79,70,40
353.4175,353.53564,82,60,40
353.53946,353.6576,81,60,40
353.6614,353.77957,79,60,40
353.78336,353.90152,77,60,40
353.9053,354.02347,79,60,40
354.02728,354.14542,76,60,40
354.14923,354.26736,77,60,40
354.27118,354.3893,79,60,40
354.39313,354.51126,76,60,40
354.51508,354.6332,79,60,40
354.63702,354.75516,81,60,40
354.75897,354.8771,77,60,40
354.88092,354.99905,79,60,40
355.00287,355.12103,81,60,40
355.12482,355.24298,77,60,40
355.24677,355.36493,81,60,40
355.36874,355.48688,82,60,40
355.4907,355.60883,79,60,40
355.61264,355.73077,81,60,40
355.7346,355.85272,82,60,40
355.85654,355.97467,79,60,40
355.9785,356.09662,82,60,40
356.10043,356.21857,84,60,40
356.22238,356.3405,81,60,40
356.34433,356.46246,82,60,40
356.46628,356.58444,84,60,40
356.58823,356.7064,81,60,40
356.7102,356.82834,84,60,40
356.83215,356.9503,86,60,40
356.9541,357.07224,82,60,40
357.07605,357.19418,86,60,40
357.198,357.31613,88,60,40
357.31995,357.43808,84,60,40
357.4419,357.56003,88,60,40
357.56384,357.68198,89,60,40
357.6858,357.80392,86,60,40
357.80774,357.92734,89,60,40
357.9312,358.0508,91,60,40
358.05466,358.17426,88,60,40
358.17813,358.29922,91,60,40
358.30313,358.42422,93,60,40
358.42813,358.54922,89,60,40
358.55313,358.6773,93,60,40
358.68134,358.80792,94,60,40
358.8121,358.94125,91,60,40
358.94543,359.07812,93,60,40
359.08243,359.22192,94,60,40
359.22665,359.37344,91,60,40
359.37817,360.87427,94,60,40
360.87817,362.37427,95,60,40
362.37817,363.49927,96,110,40
363.50317,363.87427,65,110,40
363.87817,364.0149,74,110,40
364.25317,364.3899,70,110,40
364.62817,365.37427,69,110,40
365.37817,365.5149,77,70,40
365.75317,365.8899,77,70,40
366.12817,366.87427,77,70,40
366.87817,367.0149,74,70,40
367.25317,367.3899,70,70,40
367.62817,368.37427,71,70,40
368.37817,369.1434,76,70,40
369.1474,369.96506,73,70,40
369.96933,370.10605,78,70,40
370.34433,370.48105,75,70,40
370.71933,371.46542,74,70,40
371.46933,371.60605,79,70,40
371.84433,371.98105,76,70,40
372.21933,372.96542,75,70,40
372.96933,373.10605,81,70,40
373.34433,373.48364,78,70,40
373.7265,373.86853,83,70,40
374.1161,374.26593,80,70,40
374.52707,377.39948,89,110,40
377.40378,377.60495,88,110,40
377.60925,377.81046,86,110,40
377.81473,379.86523,84,120,40
379.8695,380.01343,82,120,40
380.0669,380.2108,81,120,40
380.26425,380.45255,79,120,40
380.45654,380.59677,77,120,40
380.64886,380.7891,76,100,40
380.84116,380.98138,74,80,40
381.03348,381.40457,72,70,40
381.40848,381.5452,70,70,40
381.59598,381.7327,69,70,40
381.78348,381.96707,67,70,40
381.97098,382.1077,65,70,40
382.15848,382.2952,64,70,40
382.34598,382.4827,62,70,40
382.53348,382.71707,60,60,40
382.72098,382.90457,60,60,40
382.90848,383.09207,60,60,40
383.09598,383.27957,60,60,40
383.28348,383.46707,60,60,40
383.47098,383.65457,60,60,40
383.65848,383.84207,60,60,40
383.84598,384.02957,60,60,40
384.03348,384.21707,60,60,40
384.22098,384.40457,60,60,40
384.40848,384.59207,60,60,40
384.59598,384.77957,60,60,40
384.78348,384.96707,60,60,40
384.97098,385.15457,60,60,40
385.15848,385.34207,60,60,40
385.34598,385.52957,60,60,40
385.53348,385.71707,60,60,40
385.72098,385.90457,60,60,40
385.90848,386.09207,60,60,40
386.09598,386.27957,60,60,40
386.28348,386.46707,60,60,40
386.47098,386.65457,60,60,40
386.65848,386.84207,60,60,40
386.84598,387.02957,60,60,40
387.03348,387.21707,60,60,40
387.22098,387.40457,60,60,40
387.40848,387.59207,60,60,40
387.59598,387.77957,60,60,40
387.78348,387.96707,60,60,40
387.97098,388.15457,60,60,40
388.15848,388.34207,60,60,40
388.34598,388.52957,60,60,40
388.53348,388.71707,60,60,40
388.72098,388.90457,60,61,40
388.90848,389.09207,60,62,40
389.09598,389.27957,60,64,40
389.28348,389.46707,60,65,40
389.47098,389.65457,60,66,40
389.65848,389.84207,60,68,40
389.84598,390.02957,60,69,40
390.03348,390.21707,60,71,40
390.22098,390.40457,60,72,40
390.40848,390.59207,60,73,40
390.59598,390.77957,60,75,40
390.78348,390.96707,60,76,40
390.97098,391.15457,60,78,40
391.15848,391.34207,60,79,40
391.34598,391.52957,60,80,40
391.53348,391.71707,60,70,40
391.72098,391.8577,62,70,40
391.90848,392.0452,64,70,40
392.09598,392.2327,65,70,40
392.28348,392.46707,67,70,40
392.47098,392.6077,69,70,40
392.65848,392.7952,70,70,40
392.84598,392.9827,72,70,40
393.03348,393.40457,74,70,40
393.40848,393.77957,76,70,40
393.78348,394.15457,77,70,40
394.15848,394.52957,79,70,40
394.53348,395.65457,77,70,40
395.65848,395.84207,76,70,40
395.84598,396.02957,74,70,40
396.03348,396.21707,72,70,40
396.22098,396.3577,74,70,40
396.40848,396.5452,76,70,40
396.59598,396.7327,77,70,40
396.78348,397.15457,79,70,40
397.15848,397.52957,81,70,40
397.53348,399.02957,79,70,40
399.03348,399.40457,79,70,40
399.40848,399.77957,80,72,40
399.78348,400.15457,82,75,40
400.15848,400.52957,84,77,40
400.53348,401.65457,82,80,40
401.65848,401.84207,80,88,40
401.84598,402.02957,79,89,40
402.03348,402.21707,77,90,40
402.22098,402.3577,79,92,40
402.40848,402.5452,80,93,40
402.59598,402.7327,82,94,40
402.78348,403.15457,84,96,40
403.15848,403.52957,85,98,40
403.53348,405.02957,84,100,40
405.03348,405.40457,84,100,40
405.40848,405.77957,85,101,40
405.78348,406.15457,87,102,40
406.15848,406.52957,89,104,40
406.53348,407.65457,87,105,40
407.65848,407.7952,87,109,40
407.84598,407.9827,85,110,40
408.03348,408.21707,84,110,40
408.22098,408.3577,85,110,40
408.40848,408.5452,87,110,40
408.59598,408.7327,89,110,40
408.78348,409.06082,87,110,40
409.15848,409.2952,87,110,40
409.34598,409.4827,85,110,40
409.53348,409.71707,84,115,40
409.72098,409.8577,85,115,40
409.90848,410.0452,87,115,40
410.09598,410.2327,89,115,40
410.28348,410.56082,90,115,40
410.65848,410.7952,90,115,40
410.84598,410.9827,89,115,40
411.03348,411.21707,87,120,40
411.22098,411.3577,89,120,40
411.40848,411.5452,90,120,40
411.59598,411.7327,92,120,40
411.78348,412.06082,90,120,40
412.15848,412.2952,89,120,40
412.34598,412.4827,87,120,40
412.53348,412.72058,85,120,40
412.72455,412.8639,84,120,40
412.91565,413.05496,82,120,40
413.10672,413.24606,80,120,40
413.29782,413.58597,78,120,40
413.6874,413.82947,77,120,40
413.88223,414.02426,75,120,40
414.07703,414.27286,73,120,40
414.27704,414.42285,72,114,40
414.47702,414.62286,70,107,40
414.67703,414.82288,68,100,40
414.877,418.41013,66,100,40
418.49136,420.14517,68,55,40
420.19724,421.37787,68,70,40
421.38187,421.57016,70,70,40
421.57416,421.76248,68,70,40
421.76648,421.95007,66,70,40
421.95398,422.13757,68,70,40
422.14148,422.32507,65,70,40
422.32898,422.51257,63,70,40
422.51648,422.70007,65,70,40
422.70398,422.88757,63,70,40
422.89148,423.07507,61,70,40
423.07898,423.26257,63,70,40
423.26648,423.45007,65,70,40
423.45398,423.63757,66,70,40
423.64148,423.82507,68,70,40
423.82898,424.01257,70,70,40
424.01648,424.20007,68,70,40
424.20398,424.38757,70,70,40
424.39148,424.57507,72,70,40
424.57898,424.76257,73,70,40
424.76648,424.95007,72,70,40
424.95398,425.0907,75,70,40
425.14148,425.2782,66,70,40
425.32898,425.4657,66,70,40
425.51648,425.70477,66,70,40
425.70877,425.849,68,70,40
425.9011,426.04694,63,70,40
426.1011,426.25735,63,70,40
426.31537,426.68646,65,70,40
432.50287,432.6396,73,70,40
432.69037,432.8271,65,70,40
432.87787,433.0146,65,70,40
433.06537,433.24896,65,70,40
433.25287,433.3896,66,70,40
433.44037,433.5771,61,70,40
433.62787,433.7646,61,70,40
433.81537,434.18646,63,70,40
435.50287,435.6396,73,70,40
435.69037,435.8271,65,70,40
435.87787,436.0146,65,70,40
436.06537,436.24896,65,70,40
436.25287,436.3896,70,70,40
436.44037,436.5771,70,70,40
436.62787,436.7646,70,70,40
436.81537,437.18646,70,70,40
438.50287,438.6396,73,70,40
438.69037,438.8271,65,70,40
438.87787,439.0146,65,70,40
439.06537,439.24896,65,70,40
439.25287,439.3896,70,70,40
439.44037,439.5771,70,70,40
439.62787,439.7646,70,70,40
439.81537,440.18646,70,70,40
440.94037,441.0771,70,70,40
441.12787,441.2646,70,72,40
441.31537,441.7112,70,74,40
441.7154,441.8612,70,79,40
441.91537,442.05743,70,81,40
442.1102,442.49078,70,83,40
442.4948,442.63153,70,88,40
442.6823,442.81903,70,90,40
442.8698,443.2409,70,92,40
443.2448,443.38153,70,97,40
443.4323,443.56903,70,99,40
443.6198,443.76,68,101,40
443.8121,443.95233,68,104,40
444.00443,444.15024,71,106,40
444.2044,444.36066,71,108,40
444.4187,444.7898,72,110,40
452.04636,452.23465,74,70,40
452.43097,452.61926,77,70,40
452.81558,453.0039,80,70,40
453.2002,453.38852,83,70,40
453.5848,455.11926,84,110,40
455.1233,455.31158,72,70,40
455.5079,455.6962,75,70,40
455.89252,456.0808,78,70,40
456.27713,456.46542,81,70,40
456.66174,458.1962,82,110,40
458.2002,458.3885,70,70,40
458.5848,458.77313,73,70,40
458.96942,459.15775,76,70,40
459.35403,459.54236,79,70,40
459.73865,460.6361,81,70,40
460.6361,460.7643,77,89,40
460.7643,460.89252,72,92,40
460.89252,461.02072,69,95,40
461.02072,461.14893,65,98,40
461.14893,461.2731,60,100,40
461.27713,461.4013,58,100,40
461.40533,461.5295,60,98,40
461.53354,461.6577,64,95,40
461.66174,461.78595,55,92,40
461.78995,461.91415,58,89,40
461.91815,462.04236,64,86,40
462.04636,462.17056,55,84,40
462.17456,462.29877,58,81,40
462.30276,462.42697,64,78,40
462.43097,462.55518,55,75,40
462.55917,462.68338,58,72,40
462.68738,462.81158,64,70,40
462.81558,462.9398,57,70,40
462.9438,463.068,60,70,40
463.072,463.1962,65,70,40
463.2002,463.3244,64,70,40
463.3284,463.4526,65,70,40
463.4566,463.5808,60,70,40
463.5848,463.709,57,70,40
463.713,463.83722,60,70,40
463.84122,463.96542,65,70,40
463.96942,464.09363,58,70,40
464.09763,464.22183,60,70,40
464.22583,464.35004,64,70,40
464.35403,464.47824,57,70,40
464.48224,464.60645,60,71,40
464.61044,464.73465,65,73,40
464.73865,464.86285,58,75,40
464.86685,464.99106,60,77,40
464.99506,465.11926,64,78,40
465.12326,465.24747,57,80,40
465.25146,465.37567,60,82,40
465.37967,465.50388,65,84,40
465.50787,465.63208,65,86,40
465.63608,465.76028,65,87,40
465.76428,465.8885,65,89,40
465.8925,466.0167,65,91,40
466.02072,466.1449,70,93,40
466.14893,466.2731,74,95,40
466.27713,466.4013,65,96,40
466.40533,466.5295,70,98,40
466.53354,466.6577,74,100,40
466.66174,466.78592,67,100,40
466.78995,466.91412,70,95,40
466.91815,467.04233,72,89,40
467.04636,467.17053,67,83,40
467.17456,467.29874,70,77,40
467.30276,467.42694,72,71,40
467.43097,467.55515,69,70,40
467.55917,467.68338,72,70,40
467.68738,467.81158,77,70,40
467.81558,467.9398,70,70,40
467.9438,468.068,77,70,40
468.072,468.1962,70,70,40
468.2002,468.3244,77,70,40
468.3284,468.4526,69,70,40
468.4566,468.5808,77,70,40
468.5848,468.709,72,70,40
468.713,468.83722,67,70,40
468.84122,468.96542,72,70,40
468.96942,469.09363,72,70,40
469.09763,469.22183,57,70,40
469.22583,469.35004,60,70,40
469.35403,469.47824,65,70,40
469.48224,469.60645,69,70,40
469.61044,469.73465,72,70,40
469.73865,469.86285,77,70,40
469.86685,469.99106,72,70,40
469.99506,470.11926,69,70,40
470.12326,470.24747,70,70,40
470.25146,470.37567,72,70,40
470.37967,470.50388,76,70,40
470.50787,470.63608,77,70,40
470.63608,470.76428,79,71,40
470.76428,470.8925,77,73,40
470.8925,471.0207,76,75,40
471.0207,471.1489,77,76,40
471.1489,471.2771,79,78,40
471.2771,471.37326,81,80,40
471.37326,471.46942,82,81,40
471.46942,471.56558,81,82,40
471.56558,471.6617,79,84,40
471.6617,471.78992,81,85,40
471.78992,471.91812,82,87,40
471.91812,472.04636,84,88,40
472.04636,472.71942,86,90,40
472.81558,472.87967,88,100,40
472.87967,472.9438,89,101,40
472.9438,473.00787,88,102,40
473.00787,473.072,89,103,40
473.072,473.13608,88,104,40
473.13608,473.2002,89,104,40
473.2002,473.26428,88,105,40
473.26428,473.3284,89,106,40
473.3284,473.3925,88,107,40
473.3925,473.48865,86,108,40
473.48865,473.5848,88,109,40
473.5848,474.1577,89,110,40
474.1617,474.25787,88,70,40
474.25787,474.35403,86,70,40
474.35403,474.54233,84,70,40
474.73865,474.80273,84,70,40
474.80273,474.86685,86,70,40
474.86685,474.93097,84,70,40
474.93097,475.0271,83,70,40
475.0271,475.12326,84,70,40
475.12326,475.69617,89,110,40
475.7002,475.79633,88,70,40
475.79633,475.8925,86,70,40
475.8925,476.08078,84,70,40
476.2771,476.34122,88,70,40
476.34122,476.4053,89,70,40
476.4053,476.46942,88,70,40
476.46942,476.56558,86,70,40
476.56558,476.6617,88,70,40
476.6617,477.23465,93,110,40
477.23865,477.3348,91,70,40
477.3348,477.43094,89,70,40
477.43094,477.61926,88,70,40
477.81555,477.87967,88,70,40
477.87967,477.9438,89,70,40
477.9438,478.00787,88,70,40
478.00787,478.10403,86,70,40
478.10403,478.2002,88,70,40
478.2002,478.7731,93,110,40
478.7771,478.87326,91,70,40
478.87326,478.96942,89,70,40
478.96942,479.1577,88,70,40
479.35403,479.41812,88,70,40
479.41812,479.48224,89,70,40
479.48224,479.54633,88,70,40
479.54633,479.6425,86,70,40
479.6425,479.73865,88,70,40
479.73865,480.11926,96,70,40
480.12326,480.2635,94,74,40
480.31555,480.45578,93,76,40
480.50787,480.69617,93,78,40
480.70016,480.8404,91,81,40
480.8925,481.0327,89,83,40
481.0848,481.225,88,85,40
481.2771,481.4654,91,87,40
481.46942,481.60962,89,89,40
481.6617,481.80194,88,92,40
481.85403,481.99426,86,94,40
482.04633,482.23462,86,96,40
482.23865,482.37888,84,98,40
482.43094,482.57117,82,100,40
482.62326,482.7635,81,85,40
482.81555,483.19617,79,70,40
483.20016,483.32837,79,70,40
483.32837,483.45657,77,70,40
483.45657,483.58478,76,70,40
483.58478,483.71298,74,70,40
483.71298,483.8412,76,70,40
483.8412,483.96942,72,70,40
483.96942,484.35,84,70,40
484.73865,484.86685,84,70,40
484.86685,484.99506,82,70,40
484.99506,485.12326,81,70,40
485.12326,485.25146,79,70,40
485.25146,485.37967,81,70,40
485.37967,485.50787,77,70,40
485.50787,485.8885,89,70,40
486.2771,486.4053,79,70,40
486.4053,486.5335,77,70,40
486.5335,486.6617,76,70,40
486.6617,486.78992,74,70,40
486.78992,486.91812,76,70,40
486.91812,487.04633,72,70,40
487.04633,487.42694,84,70,40
487.81555,487.94376,72,70,40
487.94376,488.07196,70,70,40
488.07196,488.20016,69,70,40
488.20016,488.32837,67,70,40
488.32837,488.45657,69,70,40
488.45657,488.58478,65,70,40
488.58478,489.35,77,70,40
489.73862,489.86682,77,70,40
489.86682,489.99506,83,70,40
489.99506,490.12326,86,70,40
490.12326,490.50385,89,70,40
491.2771,491.4053,77,70,40
491.4053,491.5335,83,70,40
491.5335,491.6617,86,70,40
491.6617,492.04233,89,70,40
495.12323,495.24744,67,85,40
495.25143,495.37564,65,86,40
495.37964,495.50385,64,87,40
495.50784,495.63205,62,87,40
495.63605,495.76025,64,88,40
495.76425,495.88846,60,89,40
495.8925,495.99265,64,89,40
496.0207,496.12085,67,90,40
496.1489,496.24905,70,91,40
496.2771,496.37726,72,91,40
496.4053,496.50546,76,92,40
496.5335,496.63367,79,93,40
496.6617,496.76187,82,93,40
496.78992,496.89008,79,94,40
496.91812,497.01828,76,95,40
497.04633,497.14648,72,95,40
497.17453,497.2747,70,96,40
497.30273,497.4029,67,97,40
497.43094,497.5311,64,97,40
497.55914,497.6593,60,98,40
497.68735,497.7875,58,99,40
497.81555,497.9157,55,99,40
497.94376,498.0439,60,100,40
498.07196,498.17212,58,100,40
498.20016,498.58078,57,110,40
499.354,499.4782,84,110,40
499.4822,499.6064,82,110,40
499.6104,499.73462,81,110,40
499.73862,499.86282,79,110,40
499.86682,499.99103,81,110,40
499.99503,500.11923,77,110,40
500.12323,500.2247,81,110,40
500.2531,500.35455,84,110,40
500.38297,500.48444,89,110,40
500.51285,500.617,93,110,40
500.64618,500.75034,96,110,40
500.7795,500.88367,96,110,40
500.91284,501.01987,96,110,40
501.04984,501.1585,96,100,40
501.18976,501.30136,96,90,40
501.3326,502.09784,96,70,40
502.87106,503.6363,67,70,40
502.87106,503.6363,70,70,40
504.40955,505.17474,84,70,40
505.948,506.71323,67,70,40
505.948,506.71323,70,70,40
507.48645,508.05936,84,110,40
508.25568,508.82858,66,110,40
509.0249,509.62076,70,110,40
509.82492,510.46332,82,110,40
509.82492,510.46332,70,110,40
510.68207,511.80316,72,70,40
511.80707,512.17816,74,70,40
512.18207,512.55316,76,70,40
512.55707,512.92816,77,70,40
512.93207,513.30316,79,70,40
513.30707,513.67816,81,70,40
513.68207,514.80316,77,70,40
514.80707,514.99066,79,70,40
514.99457,515.17816,77,70,40
515.18207,515.36566,76,70,40
515.36957,515.5063,77,70,40
515.55707,515.6938,76,71,40
515.74457,515.8813,77,72,40
515.93207,516.11566,79,73,40
516.11957,516.2563,81,74,40
516.30707,516.4438,79,75,40
516.49457,516.6313,81,76,40
516.68207,517.80316,77,76,40
517.80707,517.99066,79,82,40
517.99457,518.17816,77,83,40
518.18207,518.36566,76,83,40
518.36957,518.5063,77,84,40
518.55707,518.6938,76,85,40
518.74457,518.8813,77,86,40
518.93207,519.11566,79,87,40
519.11957,519.2563,81,88,40
519.30707,519.4438,79,89,40
519.49457,519.6313,81,90,40
519.68207,519.86566,77,90,40
519.86957,520.0063,79,91,40
520.05707,520.1938,77,92,40
520.24457,520.3813,79,93,40
520.43207,520.61566,81,94,40
520.61957,520.7563,82,95,40
520.80707,520.9438,81,96,40
520.99457,521.1313,82,97,40
521.18207,521.36566,79,97,40
521.36957,521.5063,81,98,40
521.55707,521.6938,79,99,40
521.74457,521.8813,81,100,40
521.93207,522.11566,82,101,40
522.11957,522.2563,84,102,40
522.30707,522.4438,82,103,40
522.49457,522.6313,84,104,40
522.68207,522.86566,81,104,40
522.86957,523.0063,82,105,40
523.05707,523.1938,81,106,40
523.24457,523.3813,82,107,40
523.43207,523.5688,84,108,40
523.61957,523.7563,86,109,40
523.80707,523.9438,84,110,40
523.99457,524.1313,86,110,40
524.18207,524.3188,84,110,40
524.36957,524.5063,86,110,40
524.55707,524.6964,84,110,40
524.7481,524.88745,86,110,40
524.9392,525.0831,84,110,40
525.1366,525.2805,86,110,40
525.334,525.48376,84,110,40
525.5394,525.6957,86,110,40
525.7537,526.1248,84,120,40
526.1287,526.4998,86,120,40
526.5037,526.8748,88,120,40
526.8787,527.2498,89,120,40
527.2537,528.3748,84,120,40
528.3787,528.51544,86,120,40
528.5662,528.70294,84,120,40
528.7537,528.9373,82,120,40
528.9412,529.07794,84,120,40
529.1287,529.26544,81,120,40
529.3162,529.45294,79,120,40
529.5037,529.8748,77,120,40
529.8787,530.2498,86,120,40
530.2537,531.7498,84,120,40
531.7537,532.1248,86,120,40
532.1287,532.4998,88,120,40
532.5037,532.8748,89,120,40
532.8787,533.2498,91,120,40
533.2537,534.3748,89,120,40
534.3787,534.51544,88,120,40
534.5662,534.70294,86,120,40
534.7537,534.9373,84,120,40
534.9412,535.07794,86,120,40
535.1287,535.26544,88,120,40
535.3162,535.45294,89,120,40
535.5037,535.8748,91,120,40
535.8787,536.2498,93,120,40
536.2537,537.3748,91,120,40
537.3787,537.51544,91,120,40
537.5662,537.70294,89,120,40
537.7537,537.9373,88,120,40
537.9412,538.07794,89,120,40
538.1287,538.26544,91,120,40
538.3162,538.45294,93,120,40
538.5037,538.8748,94,120,40
538.8787,539.2498,96,120,40
539.2537,540.3748,94,120,40
540.3787,540.51544,93,100,40
540.5662,540.70294,91,99,40
540.7537,540.9408,89,98,40
540.9448,541.0841,88,96,40
541.13586,541.2752,86,95,40
541.32697,541.4663,84,94,40
541.51807,541.8062,82,92,40
541.90765,542.0497,81,90,40
542.1025,542.2445,79,88,40
542.29724,542.4931,77,87,40
542.49725,542.6431,76,86,40
542.69727,542.84607,74,84,40
542.90137,543.0502,72,83,40
543.1054,543.51776,70,81,40
545.3534,545.4992,72,70,40
545.5534,545.6992,74,70,40
545.75336,545.9417,76,70,40
545.9457,546.08594,77,70,40
546.138,546.2747,79,70,40
546.3255,546.4622,81,70,40
546.513,546.8841,82,70,40
546.888,547.2591,83,70,40
547.263,548.7591,84,110,40
548.763,550.2122,86,110,40
550.263,551.3841,69,70,40
551.388,551.48175,70,70,40
551.48175,551.5755,69,70,40
551.5755,551.66925,67,70,40
551.66925,551.763,69,70,40
551.763,552.3251,70,70,40
552.3291,552.5162,67,70,40
552.52014,552.91077,72,70,40
552.9149,553.3302,72,70,40
553.33466,554.83075,72,110,40
554.83466,555.95575,74,110,40
555.95966,556.14325,76,100,40
556.14716,556.33075,77,80,40
556.33466,557.20575,77,70,40
557.20966,557.33075,77,70,40
557.33466,557.45575,74,70,40
557.45966,557.58075,81,70,40
557.58466,557.70575,77,70,40
557.70966,557.83075,74,70,40
557.83466,558.20575,72,70,40
560.20966,560.33075,79,70,40
560.33466,560.45575,76,70,40
560.45966,560.58075,82,70,40
560.58466,560.70575,79,70,40
560.70966,560.83075,76,70,40
560.83466,561.20575,70,70,40
563.20966,563.33075,81,70,40
563.33466,563.45575,77,70,40
563.45966,563.58075,84,70,40
563.58466,563.70575,81,70,40
563.70966,563.83075,77,70,40
563.83466,563.95575,72,70,40
563.95966,564.08075,77,70,40
564.08466,564.20575,72,70,40
564.20966,564.33075,81,70,40
564.33466,564.45575,77,70,40
564.45966,564.58075,72,70,40
564.58466,564.70575,69,70,40
564.70966,564.83075,72,70,40
564.83466,564.95575,69,70,40
564.95966,565.08075,77,70,40
565.08466,565.20575,72,70,40
565.20966,565.33075,69,70,40
565.33466,565.45575,65,70,40
565.45966,565.58075,69,70,40
565.58466,565.70575,65,70,40
565.70966,565.83075,72,70,40
565.83466,565.95575,69,70,40
565.95966,566.08075,65,70,40
566.08466,566.20575,60,70,40
566.20966,566.33075,65,70,40
566.33466,566.45575,60,70,40
566.45966,566.58075,69,70,40
566.58466,566.70575,65,70,40
566.70966,566.83075,60,70,40
566.83466,567.20575,57,70,40
568.33466,568.45575,70,70,40
568.45966,568.58075,76,70,40
568.58466,568.70575,70,70,40
568.70966,568.83075,79,70,40
568.83466,568.95575,76,70,40
568.95966,569.08075,70,70,40
569.08466,569.20575,67,70,40
569.20966,569.33075,70,70,40
569.33466,569.45575,67,70,40
569.45966,569.58075,76,70,40
569.58466,569.70575,70,70,40
569.70966,569.83075,67,70,40
569.83466,570.20575,64,70,40
571.33466,571.70575,72,70,40
571.70966,572.08075,74,72,40
572.08466,572.45575,76,75,40
572.45966,572.83075,77,77,40
572.83466,574.70575,72,80,40
574.70966,575.08075,76,93,40
575.08466,575.45575,77,95,40
575.45966,575.83075,79,98,40
575.83466,577.70575,72,100,40
577.70966,578.08075,77,110,40
578.08466,578.45575,79,110,40
578.45966,578.83075,81,110,40
578.83466,579.20575,72,110,40
579.20966,579.58075,79,110,40
579.58466,579.95575,81,110,40
579.95966,580.33075,82,110,40
580.33466,580.70575,84,120,40
580.70966,581.08075,86,120,40
581.08466,581.45575,88,120,40
581.45966,581.83075,89,120,40
581.83466,582.20575,91,115,40
582.20966,582.58075,93,109,40
582.58466,582.9702,94,102,40
582.97424,583.3924,95,96,40
583.3968,591.3517,96,110,40
591.37146,591.50995,94,80,40
591.56134,591.69977,93,80,40
591.7512,591.93713,91,79,40
591.9411,592.0795,89,78,40
592.131,592.2694,88,77,40
592.32086,592.4593,86,76,40
592.51074,592.8865,84,75,40
592.89044,593.02893,82,73,40
593.0803,593.21875,81,72,40
593.2702,593.4585,79,71,40
593.4625,593.6027,77,70,40
593.65485,593.79504,76,69,40
593.8471,593.98737,74,68,40
594.0394,594.425,72,67,40
594.429,594.5711,70,65,40
594.62384,594.76587,69,64,40
594.81866,595.0119,67,63,40
595.01605,595.1599,65,62,40
595.2134,595.35925,64,61,40
595.4134,595.5592,62,61,40
595.6134,596.2092,60,60,40
596.4134,597.05176,60,55,40
597.2705,598.8664,60,50,40
599.67053,600.3089,81,50,40
600.52765,602.2375,81,50,40
602.24194,603.9518,84,110,40
603.95624,604.2732,89,110,40
604.81335,605.18317,67,120,40
604.81335,605.18317,70,120,40
604.81335,605.18317,76,120,40
605.81335,606.30817,65,120,40
605.81335,606.30817,69,120,40
605.81335,606.30817,77,120,40
611.31335,611.55817,65,1,40
0.0,0.18359375,60,60,40
0.1875,0.37109375,60,60,40
0.375,0.55859375,60,60,40
0.5625,0.74609375,60,60,40
0.75,0.93359375,60,60,40
0.9375,1.1210938,60,60,40
1.125,1.3085938,60,60,40
1.3125,1.4960938,60,60,40
1.5,1.6835938,60,60,40
1.6875,1.8710938,60,60,40
1.875,2.0585938,60,60,40
2.0625,2.2460938,60,60,40
2.25,2.4335938,60,60,40
2.4375,2.6210938,60,60,40
2.625,2.8085938,60,60,40
2.8125,2.9960938,60,60,40
3.0,3.1835938,60,60,40
3.1875,3.3710938,60,60,40
3.375,3.5585938,60,60,40
3.5625,3.7460938,60,60,40
3.75,3.9335938,60,60,40
3.9375,4.1210938,60,60,40
4.125,4.3085938,60,60,40
4.3125,4.4960938,60,60,40
4.5,4.6835938,60,60,40
4.6875,4.8710938,60,60,40
4.875,5.0585938,60,60,40
5.0625,5.2460938,60,60,40
5.25,5.4335938,60,60,40
5.4375,5.6210938,60,60,40
5.625,5.8085938,60,60,40
5.8125,5.9960938,60,60,40
6.0,6.1835938,60,60,40
6.1875,6.3710938,60,60,40
6.375,6.5585938,60,60,40
6.5625,6.7460938,60,60,40
6.75,6.9335938,60,60,40
6.9375,7.1210938,60,60,40
7.125,7.3085938,60,60,40
7.3125,7.4960938,60,60,40
7.5,7.6835938,60,60,40
7.6875,7.8710938,60,61,40
7.875,8.058594,60,62,40
8.0625,8.246094,60,64,40
8.25,8.433594,60,65,40
8.4375,8.621094,60,66,40
8.625,8.808594,60,68,40
8.8125,8.996094,60,69,40
9.0,9.183594,60,71,40
9.1875,9.371094,60,72,40
9.375,9.558594,60,73,40
9.5625,9.746094,60,75,40
9.75,9.933594,60,76,40
9.9375,10.121094,60,78,40
10.125,10.308594,60,79,40
10.3125,10.496094,60,80,40
10.5,10.683594,60,70,40
10.6875,10.871094,60,70,40
10.875,11.058594,60,70,40
11.0625,11.246094,60,70,40
11.25,11.433594,60,70,40
11.4375,11.621094,60,70,40
11.625,11.808594,60,70,40
11.8125,11.996094,60,70,40
12.0,12.183594,60,70,40
12.1875,12.371094,60,70,40
12.375,12.558594,60,70,40
12.5625,12.746094,60,70,40
12.75,12.933594,60,70,40
12.9375,13.121094,60,70,40
13.125,13.308594,60,70,40
13.3125,13.496094,60,70,40
13.5,13.683594,60,70,40
13.6875,13.871094,60,70,40
13.875,14.058594,60,70,40
14.0625,14.246094,60,70,40
14.25,14.433594,60,70,40
14.4375,14.621094,60,70,40
14.625,14.808594,60,70,40
14.8125,14.996094,60,70,40
15.0,15.183594,60,70,40
15.1875,15.371094,60,70,40
15.375,15.558594,60,70,40
15.5625,15.746094,60,70,40
15.75,15.933594,60,70,40
15.9375,16.121094,60,70,40
16.125,16.308594,60,70,40
16.3125,16.496094,60,70,40
16.5,16.683594,64,70,40
16.5,16.683594,60,70,40
16.6875,16.871094,64,70,40
16.6875,16.871094,60,70,40
16.875,17.058594,64,70,40
16.875,17.058594,60,70,40
17.0625,17.246094,64,70,40
17.0625,17.246094,60,70,40
17.25,17.433594,64,70,40
17.25,17.433594,60,70,40
17.4375,17.621094,64,70,40
17.4375,17.621094,60,70,40
17.625,17.808594,64,70,40
17.625,17.808594,60,70,40
17.8125,17.996094,64,70,40
17.8125,17.996094,60,70,40
18.0,18.183594,64,70,40
18.0,18.183594,60,70,40
18.1875,18.371094,64,71,40
18.1875,18.371094,60,71,40
18.375,18.558594,64,72,40
18.375,18.558594,60,72,40
18.5625,18.746094,64,73,40
18.5625,18.746094,60,73,40
18.75,18.933594,64,75,40
18.75,18.933594,60,75,40
18.9375,19.121094,64,76,40
18.9375,19.121094,60,76,40
19.125,19.308594,64,77,40
19.125,19.308594,60,77,40
19.3125,19.496094,64,79,40
19.3125,19.496094,60,79,40
19.5,19.683594,64,80,40
19.5,19.683594,60,80,40
19.6875,19.871094,64,81,40
19.6875,19.871094,60,81,40
19.875,20.058594,64,83,40
19.875,20.058594,60,83,40
20.0625,20.246094,64,84,40
20.0625,20.246094,60,84,40
20.25,20.433594,64,85,40
20.25,20.433594,60,85,40
20.4375,20.621094,64,86,40
20.4375,20.621094,60,86,40
20.625,20.808594,64,88,40
20.625,20.808594,60,88,40
20.8125,20.996094,64,89,40
20.8125,20.996094,60,89,40
21.0,21.183594,64,90,40
21.0,21.183594,60,90,40
21.1875,21.371094,64,92,40
21.1875,21.371094,60,92,40
21.375,21.558594,64,93,40
21.375,21.558594,60,93,40
21.5625,21.746094,64,94,40
21.5625,21.746094,60,94,40
21.75,21.933594,64,96,40
21.75,21.933594,60,96,40
21.9375,22.121094,64,97,40
21.9375,22.121094,60,97,40
22.125,22.308594,64,98,40
22.125,22.308594,60,98,40
22.3125,22.496094,64,99,40
22.3125,22.496094,60,99,40
22.5,22.683594,64,100,40
22.5,22.683594,60,100,40
22.6875,22.871094,64,100,40
22.6875,22.871094,60,100,40
22.875,23.058594,64,100,40
22.875,23.058594,60,100,40
23.0625,23.246094,64,100,40
23.0625,23.246094,60,100,40
23.25,23.433594,64,100,40
23.25,23.433594,60,100,40
23.4375,23.621094,64,100,40
23.4375,23.621094,60,100,40
23.625,23.808594,64,100,40
23.625,23.808594,60,100,40
23.8125,23.996094,64,100,40
23.8125,23.996094,60,100,40
24.0,24.183594,70,100,40
24.0,24.183594,64,100,40
24.1875,24.371094,70,100,40
24.1875,24.371094,64,100,40
24.375,24.558594,70,100,40
24.375,24.558594,64,100,40
24.5625,24.746094,70,100,40
24.5625,24.746094,64,100,40
24.75,24.933594,70,100,40
24.75,24.933594,64,100,40
24.9375,25.121094,70,100,40
24.9375,25.121094,64,100,40
25.125,25.308594,70,100,40
25.125,25.308594,64,100,40
25.3125,25.496094,70,100,40
25.3125,25.496094,64,100,40
25.5,25.688301,67,110,40
25.5,25.688301,70,110,40
25.692308,25.88061,70,110,40
25.692308,25.88061,67,110,40
25.884615,26.072916,67,110,40
25.884615,26.072916,70,110,40
26.076923,26.265224,70,110,40
26.076923,26.265224,67,110,40
26.26923,26.465063,67,110,40
26.26923,26.465063,70,110,40
26.46923,26.665064,70,110,40
26.46923,26.665064,67,110,40
26.66923,26.870428,67,110,40
26.66923,26.870428,70,110,40
26.874708,27.08453,70,110,40
26.874708,27.08453,67,110,40
27.088995,28.284828,65,120,40
27.088995,28.284828,69,120,40
28.288994,28.684828,60,120,40
28.288994,28.684828,65,120,40
28.688995,28.838823,62,120,40
28.688995,28.838823,65,120,40
29.099953,29.24978,58,120,40
29.51091,30.328547,60,120,40
30.332827,30.482655,62,70,40
30.743784,30.893614,65,70,40
31.154743,31.972378,65,70,40
31.976658,32.130707,62,70,40
32.399193,32.55324,65,70,40
32.821728,33.662395,65,70,40
33.666798,34.507465,64,70,40
34.511868,35.430138,67,70,40
35.434944,35.57517,70,70,40
35.81956,35.959785,67,70,40
36.204174,37.769238,65,70,40
37.773403,38.626083,68,70,40
38.630547,38.786797,64,70,40
39.059116,39.215366,67,70,40
39.48769,40.340366,66,110,40
40.34483,41.19751,69,110,40
41.201973,42.05465,67,110,40
42.059116,43.768932,67,110,40
43.7734,45.438576,64,110,40
45.487682,46.608776,69,94,40
46.612682,46.796276,70,70,40
46.800182,46.983776,69,70,40
46.987682,47.171276,67,70,40
47.175182,47.358776,69,70,40
47.362682,47.546276,65,70,40
47.550182,47.733776,60,70,40
47.737682,47.921276,65,70,40
47.925182,48.108776,60,70,40
48.112682,48.296276,57,70,40
48.300182,48.483776,60,70,40
48.487682,48.671276,65,70,40
48.675182,48.858776,67,70,40
48.862682,49.046276,69,70,40
49.050182,49.233776,70,70,40
49.237682,49.421276,69,70,40
49.425182,49.608776,70,70,40
49.612682,49.796276,67,70,40
49.800182,49.983776,69,70,40
49.987682,50.171276,67,70,40
50.175182,50.3119,70,70,40
50.362682,50.4994,67,70,40
50.550182,50.6869,67,70,40
50.737682,50.921276,67,70,40
50.925182,51.0619,69,70,40
51.112682,51.2494,64,70,40
51.300182,51.4369,64,70,40
51.487682,51.858776,65,70,40
58.612682,59.358776,77,100,40
59.362682,59.733776,76,70,40
59.737682,60.108776,74,70,40
60.112682,60.483776,79,70,40
60.487682,61.608776,77,70,40
61.612682,62.358776,77,100,40
62.362682,62.733776,76,70,40
62.737682,63.108776,74,70,40
63.112682,66.10878,79,70,40
66.112686,66.48378,65,70,40
66.487686,66.85878,64,70,40
66.862686,67.23378,69,73,40
67.237686,67.60878,71,76,40
67.612686,67.98378,72,80,40
67.987686,68.35878,69,83,40
68.362686,68.73378,71,87,40
68.737686,69.10878,72,90,40
69.112686,69.48378,74,93,40
69.487686,69.85878,76,97,40
69.862686,70.23378,77,100,40
70.237686,70.60878,79,104,40
70.612686,71.36829,79,107,40
71.3723,72.15275,81,110,40
72.15691,72.58102,81,110,40
72.58548,72.981316,79,120,40
79.15513,79.33872,55,70,40
79.53013,79.71372,59,70,40
79.90513,80.08872,62,70,40
80.28013,82.15122,67,100,40
82.15513,82.52622,67,91,40
82.53013,82.90122,66,70,40
82.90513,83.27622,67,70,40
83.28013,85.15122,67,100,40
85.15513,85.52622,67,70,40
85.53013,85.90122,66,70,40
85.90513,86.27622,67,70,40
86.28013,87.96372,67,110,40
88.90513,89.27622,64,70,40
89.28013,90.40122,62,70,40
90.40513,91.15122,55,70,40
91.15513,91.90122,60,70,40
91.90513,92.27622,59,70,40
92.28013,94.52622,60,70,40
94.53013,95.31058,65,70,40
95.31474,95.68584,67,70,40
95.68974,96.06084,69,70,40
96.06474,96.43584,67,70,40
96.43974,97.18584,67,70,40
97.18974,97.56084,69,70,40
97.56474,97.93584,67,70,40
97.93974,98.31084,65,70,40
98.31474,98.87334,64,70,40
98.87724,99.06084,62,77,40
99.06474,99.43584,60,80,40
99.43974,100.56084,72,85,40
100.56474,101.35918,77,100,40
101.36364,101.74425,76,110,40
101.74825,102.12887,77,70,40
102.13287,102.51348,79,70,40
102.51749,102.898094,77,70,40
102.9021,103.28271,76,110,40
103.28671,103.66733,77,70,40
103.67133,104.05194,79,70,40
104.05595,104.12005,79,70,40
104.12005,104.18415,81,70,40
104.18415,104.24825,79,70,40
104.24825,104.344406,78,70,40
104.344406,104.436554,79,70,40
104.44056,105.01347,84,100,40
105.01749,105.11364,83,70,40
105.11364,105.20979,81,70,40
105.20979,105.398094,79,70,40
105.594406,105.65851,79,70,40
105.65851,105.72261,81,70,40
105.72261,105.78671,79,70,40
105.78671,105.882866,78,70,40
105.882866,105.97501,79,70,40
105.97902,106.55938,84,100,40
106.56344,106.660835,83,70,40
106.660835,106.75824,81,70,40
106.75824,106.95407,79,70,40
107.15824,107.22673,79,70,40
107.22673,107.29523,81,70,40
107.29523,107.36372,79,70,40
107.36372,107.47086,78,70,40
107.47086,107.57354,79,70,40
107.578,108.00211,88,70,40
108.00658,108.1468,86,74,40
108.19888,108.33911,84,76,40
108.39119,108.57949,84,78,40
108.583496,108.723724,83,81,40
108.77581,108.91603,83,83,40
108.96812,109.10834,86,85,40
109.16042,109.348724,86,87,40
109.35273,109.49295,84,89,40
109.54504,109.68526,83,92,40
109.73734,109.87757,81,94,40
109.92965,110.12291,81,96,40
110.12702,110.270935,79,98,40
110.32439,110.47421,77,100,40
110.52987,110.69071,76,80,40
110.75046,111.131065,74,70,40
112.28892,112.669525,76,70,40
113.82738,114.207985,67,70,40
115.36584,115.746445,67,70,40
117.28891,117.41311,72,70,40
117.417114,117.54131,71,70,40
117.54532,117.66952,69,70,40
117.67352,117.79772,67,60,40
117.80173,117.92593,69,60,40
117.92993,118.05413,66,60,40
118.058136,118.43875,62,60,40
118.82737,118.95157,72,60,40
118.955574,119.07977,71,60,40
119.08378,119.20798,69,60,40
119.21198,119.33618,67,60,40
119.34019,119.464386,69,60,40
119.46839,119.59259,66,60,40
119.596596,119.97721,62,60,40
121.13506,121.23522,69,63,40
121.26327,121.36343,72,64,40
121.39147,121.49163,74,66,40
121.51968,121.643875,78,67,40
121.64788,121.77208,81,68,40
121.776085,121.90028,84,69,40
121.90429,122.02849,81,70,40
122.03249,122.15669,78,72,40
122.1607,122.2849,74,73,40
122.2889,122.4131,72,74,40
122.41711,122.541306,69,75,40
122.54531,122.66951,66,76,40
122.67352,122.79772,62,78,40
122.80173,122.92593,64,79,40
122.92993,123.05413,60,80,40
123.058136,123.43874,59,81,40
127.2889,127.4131,67,120,40
127.41711,127.541306,65,120,40
127.54531,127.66951,64,120,40
127.673515,127.797714,62,120,40
127.80172,127.92592,64,120,40
127.929924,128.05412,60,120,40
128.05814,128.1583,64,120,40
128.18634,128.2865,67,120,40
128.31454,128.4147,72,120,40
128.44275,128.57191,76,120,40
128.57608,128.70525,79,120,40
128.70941,128.83858,84,120,40
128.84274,128.97919,88,110,40
128.9836,129.12613,88,95,40
129.13094,129.27997,88,80,40
129.28477,130.07014,88,70,40
130.86372,131.64908,59,70,40
130.86372,131.64908,62,70,40
132.44267,133.22803,88,70,40
134.0216,134.80698,59,70,40
134.0216,134.80698,62,70,40
135.60056,136.18855,88,110,40
136.39003,136.97803,64,110,40
136.39003,136.97803,69,110,40
137.1795,137.78339,62,110,40
137.1795,137.78339,74,110,40
137.99031,138.62871,74,110,40
137.99031,138.62871,65,110,40
138.84746,139.9973,62,70,40
140.0013,140.38191,64,70,40
140.38591,141.92036,65,70,40
141.92438,142.30498,64,70,40
142.30899,142.68959,65,70,40
142.6936,143.07422,67,70,40
143.07822,143.45883,69,70,40
143.46283,144.61267,65,70,40
144.61668,144.99728,65,70,40
145.0013,145.18959,64,70,40
145.1936,145.33383,65,70,40
145.38591,145.52614,64,70,40
145.57822,145.71844,65,70,40
145.77052,145.95882,67,70,40
145.96283,146.10306,69,70,40
146.15514,146.29536,67,70,40
146.34744,146.48767,69,70,40
146.53975,148.0742,65,70,40
148.07822,148.45882,64,70,40
150.38591,150.5742,62,70,40
150.57822,150.71843,64,70,40
150.77052,150.91074,62,70,40
150.96283,151.10304,64,70,40
151.15514,151.29358,65,70,40
151.345,151.53093,64,70,40
151.53488,151.7208,65,70,40
151.72475,151.91068,64,70,40
151.91463,152.10054,65,70,40
152.86398,153.04991,62,70,40
153.05386,153.23978,60,70,40
153.24373,153.42966,62,70,40
153.43361,153.61952,60,70,40
154.38298,154.5689,64,72,40
154.57285,154.75876,65,74,40
154.76273,154.94864,64,77,40
154.95259,155.1385,65,79,40
155.90196,156.08788,62,91,40
156.09183,156.27776,60,93,40
156.28171,156.46762,62,96,40
156.47157,156.6575,60,98,40
156.66145,156.84737,60,100,40
156.85132,157.04207,60,90,40
157.04613,157.24196,60,80,40
157.24612,157.42972,60,70,40
157.43362,157.61722,60,70,40
157.62112,157.80472,60,70,40
157.80862,157.99222,60,70,40
157.99612,158.17972,60,70,40
158.18362,158.36722,60,70,40
158.37112,158.55472,60,70,40
158.55862,158.74222,60,70,40
158.74612,158.92972,60,70,40
158.93362,159.11722,60,70,40
159.12112,159.30472,60,70,40
159.30862,159.49222,60,70,40
159.49612,159.67972,60,70,40
159.68362,159.86722,60,70,40
159.87112,160.05472,60,70,40
160.05862,160.24222,60,70,40
160.24612,160.42972,60,70,40
160.43362,160.61722,60,70,40
160.62112,160.80472,60,70,40
160.80862,160.99222,60,70,40
160.99612,161.17972,60,70,40
161.18362,161.36722,60,70,40
161.37112,161.55472,60,70,40
161.55862,161.74222,60,70,40
161.74612,161.92972,60,70,40
161.93362,162.11722,60,70,40
162.12112,162.30472,60,70,40
162.30862,162.49222,60,70,40
162.49612,162.67972,60,70,40
162.68362,162.86722,60,70,40
162.87112,163.05472,60,70,40
163.05862,163.24222,60,70,40
163.24612,163.42972,60,70,40
163.43362,163.61722,60,74,40
163.62112,163.80472,60,78,40
163.80862,163.99222,60,83,40
163.99612,164.17972,60,87,40
164.18362,164.36722,60,92,40
164.37112,164.55472,60,96,40
164.55862,164.74222,60,100,40
164.74612,164.92972,59,110,40
164.93362,165.07034,60,110,40
165.12112,165.25784,59,110,40
165.30862,165.44534,60,110,40
165.49612,165.67972,62,110,40
165.68362,165.82034,63,110,40
165.87112,166.00784,62,110,40
166.05862,166.19534,63,110,40
166.24612,166.42972,71,110,40
166.43362,166.57034,72,110,40
166.62112,166.75784,71,110,40
166.80862,166.94534,72,110,40
166.99612,167.17972,74,110,40
167.18362,167.32034,75,110,40
167.37112,167.50784,74,110,40
167.55862,167.69534,75,110,40
167.74612,170.79112,75,110,40
170.79503,170.97862,74,95,40
170.98253,171.16612,58,70,40
170.98253,171.16612,62,70,40
171.17003,171.35362,58,70,40
171.17003,171.35362,62,70,40
171.35753,171.54112,58,70,40
171.35753,171.54112,62,70,40
171.54503,171.72862,58,70,40
171.54503,171.72862,62,70,40
171.73253,171.91612,58,70,40
171.73253,171.91612,62,70,40
171.92003,172.10362,58,70,40
171.92003,172.10362,62,70,40
172.10753,172.29112,58,70,40
172.10753,172.29112,62,70,40
172.29503,172.47862,58,70,40
172.29503,172.47862,62,70,40
172.48253,172.66612,58,70,40
172.48253,172.66612,62,70,40
172.67003,172.85362,58,70,40
172.67003,172.85362,62,70,40
172.85753,173.04112,58,70,40
172.85753,173.04112,62,70,40
173.04503,173.22862,58,70,40
173.04503,173.22862,62,70,40
173.23253,173.41612,58,70,40
173.23253,173.41612,62,70,40
173.42003,173.60362,58,70,40
173.42003,173.60362,62,70,40
173.60753,173.79112,58,70,40
173.60753,173.79112,62,70,40
173.79503,173.97862,58,110,40
173.79503,173.97862,62,110,40
173.98253,174.16612,58,110,40
173.98253,174.16612,62,110,40
174.17003,174.35362,58,110,40
174.17003,174.35362,62,110,40
174.35753,174.54112,58,110,40
174.35753,174.54112,62,110,40
174.54503,174.72862,58,110,40
174.54503,174.72862,62,110,40
174.73253,174.91612,58,110,40
174.73253,174.91612,62,110,40
174.92003,175.10362,58,110,40
174.92003,175.10362,62,110,40
175.10753,175.29112,58,90,40
175.10753,175.29112,62,90,40
175.29503,175.47862,58,70,40
175.29503,175.47862,62,70,40
175.48253,175.66612,58,70,40
175.48253,175.66612,62,70,40
175.67003,175.85362,58,70,40
175.67003,175.85362,62,70,40
175.85753,176.04112,58,70,40
175.85753,176.04112,62,70,40
176.04503,176.22862,58,70,40
176.04503,176.22862,62,70,40
176.23253,176.41612,58,70,40
176.23253,176.41612,62,70,40
176.42003,176.60362,60,70,40
176.42003,176.60362,63,70,40
176.60753,176.79112,60,70,40
176.60753,176.79112,63,70,40
176.79503,176.97862,60,70,40
176.79503,176.97862,63,70,40
176.98253,177.16612,60,70,40
176.98253,177.16612,63,70,40
177.17003,177.35362,60,70,40
177.17003,177.35362,63,70,40
177.35753,177.54112,60,70,40
177.35753,177.54112,63,70,40
177.54503,177.72862,60,70,40
177.54503,177.72862,63,70,40
177.73253,177.91612,60,70,40
177.73253,177.91612,63,70,40
177.92003,178.10362,60,70,40
177.92003,178.10362,63,70,40
178.10753,178.29112,60,70,40
178.10753,178.29112,63,70,40
178.29503,178.47862,60,70,40
178.29503,178.47862,63,70,40
178.48253,178.66612,60,70,40
178.48253,178.66612,63,70,40
178.67003,178.85362,60,70,40
178.67003,178.85362,63,70,40
178.85753,179.04112,60,70,40
178.85753,179.04112,63,70,40
179.04503,179.22862,60,70,40
179.04503,179.22862,63,70,40
179.23253,179.41612,60,70,40
179.23253,179.41612,63,70,40
179.42003,179.60362,60,70,40
179.42003,179.60362,63,70,40
179.60753,179.79112,60,70,40
179.60753,179.79112,63,70,40
179.79503,179.97862,62,110,40
179.79503,179.97862,60,110,40
179.98253,180.16612,62,110,40
179.98253,180.16612,60,110,40
180.17003,180.35362,62,110,40
180.17003,180.35362,60,110,40
180.35753,180.54112,62,110,40
180.35753,180.54112,60,110,40
180.54503,180.72862,62,110,40
180.54503,180.72862,60,110,40
180.73253,180.91612,62,110,40
180.73253,180.91612,60,110,40
180.92003,181.10362,62,110,40
180.92003,181.10362,60,110,40
181.10753,181.29112,62,90,40
181.10753,181.29112,60,90,40
181.29503,181.66612,74,70,40
181.67003,182.04112,76,70,40
182.04503,182.41612,78,70,40
182.42003,182.79112,79,70,40
182.79503,183.91612,74,70,40
183.92003,184.10362,75,70,40
184.10753,184.29112,74,70,40
184.29503,184.47862,72,70,40
184.48253,184.61925,74,70,40
184.67003,184.80675,70,70,40
184.85753,184.99425,69,70,40
185.04503,185.41612,67,70,40
185.42003,185.79112,77,74,40
185.79503,187.41612,76,78,40
187.42003,187.54112,70,95,40
187.54503,187.66612,67,97,40
187.67003,187.79112,64,98,40
187.79503,187.91612,58,100,40
187.92003,188.04112,55,101,40
188.04503,188.16612,64,102,40
188.17003,188.29112,58,104,40
188.29503,188.41612,55,105,40
188.42003,188.54112,64,106,40
188.54503,188.66612,58,108,40
188.67003,188.79112,55,109,40
188.79503,189.16612,67,110,40
189.17003,189.54112,69,110,40
189.54503,189.91612,70,110,40
189.92003,190.05675,79,110,40
190.10753,190.24425,77,110,40
190.29503,190.47862,76,110,40
190.48253,190.61925,77,110,40
190.67003,190.80675,74,110,40
190.85753,190.99425,72,110,40
191.04503,191.41612,70,110,40
191.42003,191.55675,79,110,40
191.60753,191.74425,77,110,40
191.79503,192.16165,76,110,40
195.09229,195.22566,61,70,40
195.2752,195.40858,62,70,40
195.45813,195.63725,64,70,40
196.5557,196.68907,76,70,40
196.73862,196.872,77,70,40
196.92154,197.10066,79,70,40
197.2874,197.42078,79,70,40
197.47032,197.60371,76,70,40
197.65324,198.01529,69,100,40
197.65324,198.01529,81,100,40
200.94592,201.07932,62,70,40
201.12886,201.26224,64,70,40
201.31178,201.49089,65,70,40
202.40933,202.54272,69,70,40
202.59227,202.72565,70,70,40
202.77519,202.9543,72,70,40
203.5069,203.86894,66,100,40
203.5069,203.86894,75,100,40
206.79958,206.93295,66,70,40
206.9825,207.11589,67,70,40
207.16542,207.34454,69,70,40
208.26299,208.39638,66,70,40
208.4459,208.5793,67,70,40
208.62885,208.80795,69,70,40
209.36055,209.7226,62,100,40
209.36055,209.7226,74,100,40
209.7264,209.85979,74,70,40
209.90933,210.04271,72,70,40
210.09225,210.27136,70,70,40
211.92152,212.0549,75,70,40
212.10445,212.23782,74,72,40
212.28737,212.46649,75,74,40
212.47029,212.60368,79,77,40
212.65323,212.7866,70,79,40
212.83615,212.96953,68,82,40
213.01907,213.1982,67,84,40
213.202,213.33539,70,86,40
213.38493,213.51831,63,89,40
213.56786,213.70123,62,91,40
213.75078,213.9299,63,94,40
213.93372,214.0671,67,96,40
214.11664,214.25002,58,98,40
214.29956,214.43295,56,101,40
214.48248,214.6616,55,103,40
214.66542,214.7988,58,106,40
214.84834,214.98172,63,108,40
215.03127,215.16466,62,110,40
215.21419,215.39331,63,120,40
215.39713,215.5305,67,120,40
215.58005,215.71342,58,120,40
215.76297,215.89636,56,120,40
215.9459,216.07928,55,120,40
216.12883,216.2622,58,120,40
216.31175,216.44513,63,120,40
216.49467,216.62807,55,120,40
216.67761,216.81099,58,120,40
216.86053,216.99391,58,120,40
217.04346,217.18018,63,120,40
217.23096,217.36768,67,120,40
217.41846,217.55869,70,120,40
217.61076,217.75099,75,120,40
217.80307,217.94891,79,110,40
218.00307,218.15932,82,90,40
218.21736,218.77596,73,70,40
219.71736,220.27596,59,70,40
219.71736,220.27596,62,70,40
221.21736,221.77596,73,70,40
222.71736,223.27596,59,70,40
222.71736,223.27596,62,70,40
224.21736,224.77596,71,70,40
225.71736,226.27596,60,70,40
227.21736,227.77596,81,110,40
227.96736,228.52596,57,110,40
227.96736,228.52596,65,110,40
228.71736,229.29028,58,110,40
228.71736,229.29028,65,110,40
229.48659,230.12498,65,110,40
229.48659,230.12498,70,110,40
230.34373,239.21175,67,70,40
239.21556,245.0654,56,70,40
239.21556,245.0654,68,70,40
245.06921,246.52881,58,70,40
246.53262,247.99222,70,70,40
247.99603,249.45563,60,70,40
249.45944,250.91905,72,70,40
250.92285,251.65076,61,70,40
251.65456,252.38246,73,70,40
252.38626,253.11417,63,70,40
253.11798,253.84587,75,70,40
253.84969,254.94344,75,70,40
254.94724,255.67514,63,70,40
255.67894,256.041,65,70,40
256.0448,256.40683,66,70,40
256.41064,256.7727,68,70,40
256.7765,258.2361,65,70,40
258.23993,258.60196,63,70,40
258.60577,258.9678,65,72,40
258.97162,259.33368,66,75,40
259.33746,259.69952,68,78,40
259.70334,261.16293,65,80,40
261.16675,261.52878,62,91,40
261.5326,261.89462,63,94,40
261.89844,262.2605,65,96,40
262.2643,262.62634,66,99,40
262.63016,263.7239,65,110,40
263.72772,263.90683,63,110,40
263.91064,264.08975,65,110,40
264.09357,264.4556,66,110,40
264.4594,264.63852,63,110,40
264.64233,264.82147,65,110,40
264.82526,265.0044,66,110,40
265.0082,265.18732,68,110,40
265.19113,265.37024,70,100,40
265.37405,265.55316,72,80,40
265.55698,266.65073,73,70,40
266.65454,267.38242,68,70,40
267.38623,267.7483,66,70,40
267.7521,268.11414,65,70,40
268.11795,268.47998,63,70,40
268.4838,269.9434,61,110,40
269.9472,270.00818,60,70,40
270.00818,270.06915,61,70,40
270.06915,270.13013,60,70,40
270.13013,270.1911,61,70,40
270.1911,270.25208,60,70,40
270.25208,270.31308,61,70,40
270.31308,270.37405,60,70,40
270.37405,270.43503,61,70,40
270.43503,270.496,60,70,40
270.496,270.55698,61,70,40
270.55698,270.61795,60,70,40
270.61795,270.67892,61,70,40
270.67892,270.7399,60,70,40
270.7399,270.80087,61,70,40
270.80087,270.86185,60,70,40
270.86185,270.92282,61,70,40
270.92282,270.9838,60,70,40
270.9838,271.04477,61,70,40
271.04477,271.10574,60,70,40
271.10574,271.16672,61,70,40
271.16672,271.2277,60,70,40
271.2277,271.31915,58,70,40
271.31915,271.4106,60,70,40
271.4106,271.77267,61,70,40
271.7765,272.13852,63,70,40
272.14233,272.50436,65,70,40
272.50818,272.6873,66,70,40
272.6911,272.87024,65,70,40
272.87402,273.96777,66,70,40
273.9716,274.33365,68,70,40
274.33746,274.51657,65,70,40
274.5204,274.65375,66,72,40
274.7033,274.8367,65,74,40
274.88623,275.01962,66,76,40
275.06915,275.24826,68,79,40
275.25208,275.38547,70,81,40
275.435,275.5684,68,83,40
275.61792,275.7513,70,85,40
275.80087,276.89462,66,85,40
276.8984,277.26047,68,104,40
277.26428,277.6263,70,110,40
279.45938,280.919,75,50,40
280.9228,281.6507,74,50,40
281.6545,281.92508,75,50,40
282.02036,282.29095,70,50,40
282.3862,283.84583,78,50,40
283.84964,284.94336,77,50,40
284.94717,285.1263,75,50,40
285.13013,285.30923,73,50,40
285.31305,285.67508,72,50,40
285.6789,286.04092,77,50,40
286.04474,286.22385,70,50,40
286.22766,286.36105,72,50,40
286.41058,286.54398,70,50,40
286.59354,286.7269,72,50,40
286.77646,286.95557,73,50,40
286.95938,287.09277,75,50,40
287.1423,287.2757,73,50,40
287.32523,287.45862,75,50,40
287.50815,287.6873,72,50,40
287.69107,287.82446,73,50,40
287.87402,288.0074,72,50,40
288.05695,288.1903,73,50,40
288.23987,288.41898,75,50,40
288.4228,288.55618,77,50,40
288.6057,288.7391,75,50,40
288.78864,288.92203,77,50,40
288.97156,289.1507,73,50,40
289.15448,289.28787,75,50,40
289.33743,289.4708,73,50,40
289.52036,289.65372,75,50,40
289.70328,289.8824,77,50,40
289.8862,290.0196,78,50,40
290.06912,290.2025,77,50,40
290.25204,290.38544,78,50,40
290.43497,290.6141,75,50,40
290.61792,290.75128,77,50,40
290.80084,290.9342,75,50,40
290.98376,291.11716,77,50,40
291.1667,291.3458,78,50,40
291.3496,291.483,80,50,40
291.53253,291.66592,78,50,40
291.71545,291.84885,80,50,40
291.8984,292.0775,74,50,40
292.08133,292.2147,75,50,40
292.26425,292.39764,77,50,40
292.44717,292.58057,78,50,40
292.6301,292.7635,80,50,40
292.81302,292.9464,82,50,40
292.99594,293.12933,83,50,40
293.17886,293.31226,74,50,40
293.36182,293.72385,75,50,40
294.0935,294.2726,70,50,40
294.27643,294.40982,71,50,40
294.45935,294.59274,70,50,40
294.6423,294.77567,71,50,40
294.82523,295.18726,68,50,40
295.55692,295.73602,65,50,40
295.73984,295.87323,66,50,40
295.9228,296.05615,65,50,40
296.1057,296.23907,66,50,40
296.28864,296.65067,63,50,40
297.02032,298.47995,63,50,40
298.48373,299.57748,61,50,40
299.5813,300.3092,60,50,40
300.31302,301.40677,72,50,40
301.41058,302.50433,70,50,40
302.50812,302.6415,67,56,40
302.69107,302.82443,68,60,40
302.874,303.0531,64,63,40
303.05692,303.1903,65,66,40
303.23984,303.37323,64,70,40
303.42276,303.55615,65,73,40
303.60568,303.7848,67,77,40
303.7886,303.922,68,80,40
303.97153,304.10492,67,83,40
304.15448,304.28784,68,87,40
304.3374,304.5165,70,90,40
304.52032,304.65372,72,94,40
304.70325,304.83664,72,97,40
304.88617,305.01956,72,100,40
305.0691,305.43115,72,110,40
305.8008,307.2604,65,110,40
307.26422,307.99213,64,110,40
307.9959,308.2665,65,110,40
308.3618,308.63235,60,110,40
308.72763,310.18723,68,125,40
310.19104,310.91895,66,110,40
310.92276,311.19333,69,110,40
311.2886,311.55917,63,110,40
311.65445,313.11404,72,125,40
313.11786,313.84576,71,110,40
313.84958,314.12015,72,110,40
314.21542,314.486,67,110,40
314.58127,316.0409,76,125,40
316.04468,317.5043,74,110,40
317.50812,318.9677,71,105,40
318.97153,320.06528,68,99,40
320.06906,320.79697,65,95,40
320.80078,321.5287,62,92,40
324.45932,325.1872,59,78,40
325.191,325.9189,56,75,40
325.92273,326.6506,55,72,40
326.65442,327.01648,55,70,40
327.0203,328.4799,55,70,40
328.4837,328.84573,59,70,40
328.84955,329.21158,60,70,40
329.2154,329.57745,62,70,40
329.58124,329.9433,64,70,40
329.9471,331.04086,60,70,40
331.04468,331.2238,62,70,40
331.2276,331.4067,60,70,40
331.41052,331.58963,59,70,40
331.59344,331.72684,60,70,40
331.77637,331.90976,59,70,40
331.9593,332.09268,60,70,40
332.1422,332.32135,62,70,40
332.32513,332.45853,64,70,40
332.5081,332.64145,62,70,40
332.691,332.82437,64,70,40
332.87393,333.23596,60,70,40
334.33734,334.69937,69,70,40
337.63,337.75198,74,70,40
337.75198,337.87393,72,70,40
337.87393,337.99588,70,70,40
337.99588,338.11783,69,70,40
338.11783,338.23978,70,70,40
338.23978,338.36172,67,70,40
338.36172,339.08963,74,70,40
340.56598,340.69098,81,70,40
340.69098,340.81598,79,70,40
340.81598,340.94098,77,70,40
340.94098,341.06918,76,70,40
341.06918,341.1974,77,70,40
341.1974,341.3256,74,70,40
341.3256,342.07227,81,70,40
342.07608,342.4381,83,70,40
342.44193,342.80396,85,70,40
342.80777,343.16983,86,70,40
343.17365,344.26736,84,70,40
344.27118,344.63324,81,70,40
346.4663,346.58826,71,70,40
346.58826,346.7102,69,70,40
346.7102,346.83215,67,70,40
346.83215,346.9541,66,70,40
346.9541,347.07605,67,70,40
347.07605,347.19803,64,70,40
347.19803,347.9259,76,70,40
347.92972,348.29175,77,70,40
348.29556,348.65762,79,70,40
348.66144,349.02347,81,70,40
349.02728,350.12103,79,70,40
350.12485,350.85272,76,70,40
350.85654,351.2186,77,70,40
351.22238,351.58444,79,70,40
351.58826,351.9503,81,70,40
351.9541,353.04785,79,70,40
353.05167,353.4137,76,70,40
353.78336,354.51126,67,60,40
354.51508,355.24298,69,60,40
355.24677,355.97467,70,60,40
355.9785,356.7064,72,60,40
356.7102,357.07224,74,60,40
357.07605,357.43808,76,60,40
357.4419,357.80392,77,60,40
357.80774,358.17426,79,60,40
358.17813,358.54922,81,60,40
358.55313,358.94125,82,60,40
358.94543,359.37344,67,60,40
358.94543,359.37344,70,60,40
359.37817,359.74927,67,60,40
359.37817,359.74927,70,60,40
362.37817,363.49927,72,110,40
362.37817,363.49927,77,110,40
363.50317,363.87427,60,110,40
363.87817,364.0149,62,110,40
365.00317,365.37427,65,100,40
365.37817,365.5149,70,70,40
365.75317,365.8899,74,70,40
366.12817,366.49927,72,70,40
366.50317,367.06177,65,70,40
367.25317,367.3899,65,70,40
367.62817,368.37427,68,70,40
368.37817,369.96506,67,70,40
368.37817,369.96506,70,70,40
370.34433,370.48105,72,70,40
370.71933,371.46542,71,70,40
371.46933,371.60605,67,70,40
371.84433,371.98105,73,70,40
372.21933,373.15292,69,70,40
373.7265,373.86853,77,70,40
374.1161,374.26593,77,70,40
374.52707,377.81046,74,110,40
374.52707,377.81046,77,110,40
377.81473,379.86523,72,120,40
379.8695,380.01343,70,120,40
380.0669,380.2108,69,120,40
380.26425,380.45255,67,120,40
380.45654,380.59677,65,120,40
380.64886,380.7891,64,100,40
380.84116,380.98138,62,80,40
381.03348,381.21707,60,60,40
381.22098,381.40457,60,60,40
381.40848,381.59207,60,60,40
381.59598,381.77957,60,60,40
381.78348,381.96707,60,60,40
381.97098,382.15457,60,60,40
382.15848,382.34207,60,60,40
382.34598,382.52957,60,60,40
382.53348,382.71707,57,60,40
382.72098,382.90457,57,60,40
382.90848,383.09207,57,60,40
383.09598,383.27957,57,60,40
383.28348,383.46707,57,60,40
383.47098,383.65457,57,60,40
383.65848,383.84207,57,60,40
383.84598,384.02957,57,60,40
384.03348,384.21707,57,60,40
384.22098,384.40457,57,60,40
384.40848,384.59207,57,60,40
384.59598,384.77957,57,60,40
384.78348,384.96707,57,60,40
384.97098,385.15457,57,60,40
385.15848,385.34207,57,60,40
385.34598,385.52957,57,60,40
385.53348,385.71707,57,60,40
385.72098,385.90457,57,60,40
385.90848,386.09207,57,60,40
386.09598,386.27957,57,60,40
386.28348,386.46707,57,60,40
386.47098,386.65457,57,60,40
386.65848,386.84207,57,60,40
386.84598,387.02957,57,60,40
387.03348,387.21707,57,60,40
387.22098,387.40457,57,60,40
387.40848,387.59207,57,60,40
387.59598,387.77957,57,60,40
387.78348,387.96707,57,60,40
387.97098,388.15457,57,60,40
388.15848,388.34207,57,60,40
388.34598,388.52957,57,60,40
388.53348,388.71707,57,60,40
388.72098,388.90457,57,61,40
388.90848,389.09207,57,62,40
389.09598,389.27957,57,64,40
389.28348,389.46707,57,65,40
389.47098,389.65457,57,66,40
389.65848,389.84207,57,68,40
389.84598,390.02957,57,69,40
390.03348,390.21707,57,71,40
390.22098,390.40457,57,72,40
390.40848,390.59207,57,73,40
390.59598,390.77957,57,75,40
390.78348,390.96707,58,76,40
390.97098,391.15457,58,78,40
391.15848,391.34207,58,79,40
391.34598,391.52957,58,80,40
391.53348,391.71707,58,70,40
391.72098,391.90457,60,70,40
391.90848,392.09207,60,70,40
392.09598,392.27957,60,70,40
392.28348,392.46707,60,70,40
392.47098,392.65457,60,70,40
392.65848,392.84207,60,70,40
392.84598,393.02957,60,70,40
393.03348,393.21707,60,70,40
393.22098,393.40457,60,70,40
393.40848,393.59207,60,70,40
393.59598,393.77957,60,70,40
393.78348,393.96707,60,70,40
393.97098,394.15457,60,70,40
394.15848,394.34207,60,70,40
394.34598,394.52957,60,70,40
394.53348,394.71707,60,70,40
394.72098,394.90457,60,70,40
394.90848,395.09207,60,70,40
395.09598,395.27957,60,70,40
395.28348,395.46707,60,70,40
395.47098,395.65457,60,70,40
395.65848,395.84207,60,70,40
395.84598,396.02957,60,70,40
396.03348,396.21707,60,70,40
396.22098,396.40457,60,70,40
396.40848,396.59207,60,70,40
396.59598,396.77957,60,70,40
396.78348,396.96707,60,70,40
396.97098,397.15457,60,70,40
397.15848,397.34207,60,70,40
397.34598,397.52957,60,70,40
397.53348,397.71707,64,70,40
397.53348,397.71707,60,70,40
397.72098,397.90457,64,70,40
397.72098,397.90457,60,70,40
397.90848,398.09207,64,70,40
397.90848,398.09207,60,70,40
398.09598,398.27957,64,70,40
398.09598,398.27957,60,70,40
398.28348,398.46707,64,70,40
398.28348,398.46707,60,70,40
398.47098,398.65457,64,70,40
398.47098,398.65457,60,70,40
398.65848,398.84207,64,70,40
398.65848,398.84207,60,70,40
398.84598,399.02957,64,70,40
398.84598,399.02957,60,70,40
399.03348,399.21707,64,70,40
399.03348,399.21707,60,70,40
399.22098,399.40457,64,71,40
399.22098,399.40457,60,71,40
399.40848,399.59207,64,72,40
399.40848,399.59207,60,72,40
399.59598,399.77957,64,73,40
399.59598,399.77957,60,73,40
399.78348,399.96707,64,75,40
399.78348,399.96707,60,75,40
399.97098,400.15457,64,76,40
399.97098,400.15457,60,76,40
400.15848,400.34207,64,77,40
400.15848,400.34207,60,77,40
400.34598,400.52957,64,79,40
400.34598,400.52957,60,79,40
400.53348,400.71707,64,80,40
400.53348,400.71707,60,80,40
400.72098,400.90457,64,81,40
400.72098,400.90457,60,81,40
400.90848,401.09207,64,83,40
400.90848,401.09207,60,83,40
401.09598,401.27957,64,84,40
401.09598,401.27957,60,84,40
401.28348,401.46707,64,85,40
401.28348,401.46707,60,85,40
401.47098,401.65457,64,86,40
401.47098,401.65457,60,86,40
401.65848,401.84207,64,88,40
401.65848,401.84207,60,88,40
401.84598,402.02957,64,89,40
401.84598,402.02957,60,89,40
402.03348,402.21707,64,90,40
402.03348,402.21707,60,90,40
402.22098,402.40457,64,92,40
402.22098,402.40457,60,92,40
402.40848,402.59207,64,93,40
402.40848,402.59207,60,93,40
402.59598,402.77957,64,94,40
402.59598,402.77957,60,94,40
402.78348,402.96707,64,96,40
402.78348,402.96707,60,96,40
402.97098,403.15457,64,97,40
402.97098,403.15457,60,97,40
403.15848,403.34207,64,98,40
403.15848,403.34207,60,98,40
403.34598,403.52957,64,99,40
403.34598,403.52957,60,99,40
403.53348,403.71707,63,100,40
403.53348,403.71707,60,100,40
403.72098,403.90457,63,100,40
403.72098,403.90457,60,100,40
403.90848,404.09207,63,100,40
403.90848,404.09207,60,100,40
404.09598,404.27957,63,100,40
404.09598,404.27957,60,100,40
404.28348,404.46707,63,100,40
404.28348,404.46707,60,100,40
404.47098,404.65457,63,100,40
404.47098,404.65457,60,100,40
404.65848,404.84207,63,100,40
404.65848,404.84207,60,100,40
404.84598,405.02957,63,100,40
404.84598,405.02957,60,100,40
405.03348,405.21707,63,100,40
405.03348,405.21707,60,100,40
405.22098,405.40457,63,100,40
405.22098,405.40457,60,100,40
405.40848,405.59207,63,101,40
405.40848,405.59207,60,101,40
405.59598,405.77957,63,102,40
405.59598,405.77957,60,102,40
405.78348,405.96707,63,102,40
405.78348,405.96707,60,102,40
405.97098,406.15457,63,103,40
405.97098,406.15457,60,103,40
406.15848,406.34207,63,104,40
406.15848,406.34207,60,104,40
406.34598,406.52957,63,104,40
406.34598,406.52957,60,104,40
406.53348,406.71707,63,105,40
406.53348,406.71707,60,105,40
406.72098,406.90457,63,106,40
406.72098,406.90457,60,106,40
406.90848,407.09207,63,106,40
406.90848,407.09207,60,106,40
407.09598,407.27957,63,107,40
407.09598,407.27957,60,107,40
407.28348,407.46707,63,108,40
407.28348,407.46707,60,108,40
407.47098,407.65457,63,108,40
407.47098,407.65457,60,108,40
407.65848,407.84207,63,109,40
407.65848,407.84207,60,109,40
407.84598,408.02957,63,110,40
407.84598,408.02957,60,110,40
408.03348,408.21707,63,110,40
408.03348,408.21707,60,110,40
408.22098,408.40457,63,110,40
408.22098,408.40457,60,110,40
408.40848,408.59207,63,110,40
408.40848,408.59207,60,110,40
408.59598,408.77957,63,110,40
408.59598,408.77957,60,110,40
408.78348,408.96707,63,110,40
408.78348,408.96707,60,110,40
408.97098,409.15457,63,110,40
408.97098,409.15457,60,110,40
409.15848,409.34207,63,110,40
409.15848,409.34207,60,110,40
409.34598,409.52957,63,110,40
409.34598,409.52957,60,110,40
409.53348,409.71707,63,115,40
409.53348,409.71707,60,115,40
409.72098,409.90457,63,115,40
409.72098,409.90457,60,115,40
409.90848,410.09207,63,115,40
409.90848,410.09207,60,115,40
410.09598,410.27957,63,115,40
410.09598,410.27957,60,115,40
410.28348,410.46707,63,115,40
410.28348,410.46707,60,115,40
410.47098,410.65457,63,115,40
410.47098,410.65457,60,115,40
410.65848,410.84207,63,115,40
410.65848,410.84207,60,115,40
410.84598,411.02957,63,115,40
410.84598,411.02957,60,115,40
411.03348,411.21707,63,120,40
411.03348,411.21707,60,120,40
411.22098,411.40457,63,120,40
411.22098,411.40457,60,120,40
411.40848,411.59207,63,120,40
411.40848,411.59207,60,120,40
411.59598,411.77957,63,120,40
411.59598,411.77957,60,120,40
411.78348,411.96707,63,120,40
411.78348,411.96707,60,120,40
411.97098,412.15457,63,120,40
411.97098,412.15457,60,120,40
412.15848,412.34207,63,120,40
412.15848,412.34207,60,120,40
412.34598,412.52957,63,120,40
412.34598,412.52957,60,120,40
412.53348,412.72058,63,120,40
412.53348,412.72058,60,120,40
412.72455,412.91165,63,120,40
412.72455,412.91165,60,120,40
412.91565,413.10275,63,120,40
412.91565,413.10275,60,120,40
413.10672,413.29382,63,120,40
413.10672,413.29382,60,120,40
413.29782,413.48856,63,120,40
413.29782,413.48856,60,120,40
413.4926,413.68335,63,120,40
413.4926,413.68335,60,120,40
413.6874,413.87817,63,120,40
413.6874,413.87817,60,120,40
413.88223,414.07297,63,120,40
413.88223,414.07297,60,120,40
414.07703,414.27286,63,120,40
414.07703,414.27286,60,120,40
414.27704,414.47287,63,114,40
414.27704,414.47287,60,114,40
414.47702,414.67285,63,107,40
414.47702,414.67285,60,107,40
414.67703,414.87286,63,100,40
414.67703,414.87286,60,100,40
414.877,419.10165,60,100,40
414.877,419.10165,63,100,40
419.19724,420.18683,63,50,40
420.19724,421.37787,65,70,40
421.38187,421.57016,66,70,40
421.57416,421.76248,65,70,40
421.76648,421.95007,63,70,40
421.95398,422.13757,65,70,40
422.14148,422.32507,62,70,40
422.32898,422.51257,56,70,40
422.51648,422.70007,62,70,40
422.70398,422.88757,56,70,40
422.89148,423.07507,65,70,40
423.07898,423.26257,60,70,40
423.26648,423.45007,61,70,40
423.45398,423.63757,63,70,40
423.64148,423.82507,65,70,40
423.82898,424.01257,66,70,40
424.01648,424.20007,65,70,40
424.20398,424.38757,66,70,40
424.39148,424.57507,63,70,40
424.57898,424.76257,65,70,40
424.76648,424.95007,63,70,40
424.95398,425.0907,66,70,40
425.14148,425.2782,63,70,40
425.32898,425.4657,63,70,40
425.51648,425.70477,63,70,40
425.70877,425.849,65,70,40
425.9011,426.04694,60,70,40
426.1011,426.25735,60,70,40
426.31537,426.68646,61,70,40
432.50287,432.6396,70,70,40
432.69037,432.8271,61,70,40
432.87787,433.0146,61,70,40
433.06537,433.24896,61,70,40
433.25287,433.3896,63,70,40
433.44037,433.5771,58,70,40
433.62787,433.7646,58,70,40
433.81537,434.18646,60,70,40
435.50287,435.6396,70,70,40
435.69037,435.8271,61,70,40
435.87787,436.0146,61,70,40
436.06537,436.24896,61,70,40
436.25287,436.3896,65,70,40
436.44037,436.5771,65,70,40
436.62787,436.7646,65,70,40
436.81537,437.18646,64,70,40
438.50287,438.6396,70,70,40
438.69037,438.8271,61,70,40
438.87787,439.0146,61,70,40
439.06537,439.24896,61,70,40
439.25287,439.3896,65,70,40
439.44037,439.5771,65,70,40
439.62787,439.7646,65,70,40
439.81537,440.18646,64,70,40
440.94037,441.0771,65,70,40
441.12787,441.2646,65,72,40
441.31537,441.7112,64,74,40
441.7154,441.8612,65,79,40
441.91537,442.05743,65,81,40
442.1102,442.49078,64,83,40
442.4948,442.63153,65,88,40
442.6823,442.81903,65,90,40
442.8698,443.2409,64,92,40
443.2448,443.38153,67,97,40
443.4323,443.56903,67,99,40
443.6198,443.76,65,101,40
443.8121,443.95233,65,104,40
444.00443,444.15024,65,106,40
444.2044,444.36066,65,108,40
444.4187,444.7898,64,110,40
450.89252,451.0808,60,70,40
451.27713,451.46542,64,70,40
451.66174,451.85004,67,70,40
452.04636,453.96542,72,110,40
453.96942,454.35004,72,70,40
454.35406,454.73465,71,70,40
454.73868,455.11926,72,70,40
455.1233,457.04236,72,110,40
457.04636,457.42697,72,70,40
457.43097,457.81158,71,70,40
457.81558,458.1962,72,70,40
458.2002,460.8885,72,110,40
459.73865,460.8885,65,70,40
460.89252,461.2731,57,95,40
461.27713,462.23465,55,100,40
462.23865,462.42697,64,79,40
462.43097,462.61926,65,75,40
462.62326,462.81158,67,71,40
462.81558,463.1962,60,70,40
467.81558,468.1962,86,70,40
468.2002,468.5808,84,70,40
468.5848,468.96542,82,70,40
468.96942,470.11926,81,70,40
470.12326,470.50388,79,70,40
470.50787,470.8885,77,70,40
470.8925,471.0808,76,75,40
471.0848,471.2731,74,77,40
471.2771,471.6577,72,80,40
471.6617,471.85004,70,85,40
471.85403,472.04233,69,87,40
472.04636,472.71542,77,90,40
472.81558,472.87567,79,100,40
472.87967,472.93976,81,101,40
472.9438,473.00388,79,102,40
473.00787,473.06796,81,103,40
473.072,473.13208,79,104,40
473.13608,473.19617,81,104,40
473.2002,473.26028,79,105,40
473.26428,473.32437,81,106,40
473.3284,473.3885,79,107,40
473.3925,473.48865,77,108,40
473.48865,473.5848,79,109,40
473.5848,473.96542,81,110,40
476.2771,476.34122,72,70,40
476.34122,476.4053,74,70,40
476.4053,476.46942,72,70,40
476.46942,476.56558,71,70,40
476.56558,476.6617,72,70,40
476.6617,477.23465,77,110,40
477.23865,477.3348,76,70,40
477.3348,477.43094,74,70,40
477.43094,477.61926,72,70,40
477.81555,477.87967,72,70,40
477.87967,477.9438,74,70,40
477.9438,478.00787,72,70,40
478.00787,478.10403,71,70,40
478.10403,478.2002,72,70,40
478.2002,478.7731,77,110,40
478.7771,478.87326,76,70,40
478.87326,478.96942,74,70,40
478.96942,479.1577,72,70,40
479.35403,479.41812,72,70,40
479.41812,479.48224,74,70,40
479.48224,479.54633,72,70,40
479.54633,479.6425,71,70,40
479.6425,479.73865,72,70,40
479.73865,481.6577,84,70,40
481.6617,481.80194,84,92,40
481.85403,481.99426,82,94,40
482.04633,482.23462,82,96,40
482.23865,482.37888,81,98,40
482.43094,482.57117,79,100,40
482.62326,482.7635,77,85,40
482.81555,483.19617,76,70,40
484.35403,484.73462,65,70,40
485.8925,486.2731,60,70,40
487.43094,487.81155,60,70,40
489.354,489.4822,65,70,40
489.4822,489.6104,64,70,40
489.6104,489.73862,62,70,40
489.73862,489.86682,60,70,40
489.86682,489.99506,62,70,40
489.99506,490.12326,59,70,40
490.12326,490.50385,55,70,40
490.8925,491.0207,65,70,40
491.0207,491.1489,64,70,40
491.1489,491.2771,62,70,40
491.2771,491.4053,60,70,40
491.4053,491.5335,62,70,40
491.5335,491.6617,59,70,40
491.6617,492.04233,55,70,40
493.20016,493.30032,74,75,40
493.32837,493.42853,77,76,40
493.45657,493.55673,79,77,40
493.58478,493.70898,83,77,40
493.71298,493.8372,86,78,40
493.8412,493.9654,83,79,40
493.9694,494.0936,79,79,40
494.0976,494.2218,77,80,40
494.2258,494.35,74,81,40
494.354,494.4782,71,81,40
494.4822,494.6064,67,82,40
494.6104,494.73462,65,83,40
494.73862,494.86282,62,83,40
494.86682,494.99103,67,84,40
494.99503,495.11923,65,85,40
495.12323,495.50385,64,85,40
499.354,499.4782,72,110,40
499.4822,499.6064,70,110,40
499.6104,499.73462,69,110,40
499.73862,499.86282,67,110,40
499.86682,499.99103,69,110,40
499.99503,500.11923,65,110,40
500.12323,500.2247,69,110,40
500.2531,500.35455,72,110,40
500.38297,500.48444,77,110,40
500.51285,500.617,81,110,40
500.64618,500.75034,81,110,40
500.7795,500.88367,81,110,40
500.91284,501.01987,81,110,40
501.04984,501.1585,81,100,40
501.18976,501.30136,81,90,40
501.3326,502.09784,81,70,40
502.87106,503.6363,61,70,40
502.87106,503.6363,64,70,40
504.40955,505.17474,81,70,40
505.948,506.71323,61,70,40
505.948,506.71323,64,70,40
507.48645,508.05936,81,110,40
508.25568,508.82858,62,110,40
508.25568,508.82858,72,110,40
509.0249,509.62076,62,110,40
509.0249,509.62076,70,110,40
509.82492,510.46332,70,110,40
509.82492,510.46332,79,110,40
510.68207,513.67816,70,70,40
513.68207,514.05316,69,70,40
514.05707,514.42816,70,70,40
514.43207,514.80316,72,70,40
514.80707,515.17816,74,70,40
515.18207,516.30316,70,70,40
516.30707,516.4438,70,75,40
516.49457,516.6313,72,76,40
516.68207,516.86566,69,76,40
516.86957,517.0063,70,77,40
517.05707,517.1938,69,78,40
517.24457,517.3813,70,79,40
517.43207,517.61566,72,80,40
517.61957,517.7563,74,81,40
517.80707,517.9438,72,82,40
517.99457,518.1313,74,83,40
518.18207,518.36566,70,83,40
518.36957,518.5063,72,84,40
518.55707,518.6938,70,85,40
518.74457,518.8813,72,86,40
518.93207,519.11566,74,87,40
519.11957,519.2563,76,88,40
519.30707,519.4438,74,89,40
519.49457,519.6313,76,90,40
519.68207,519.86566,72,90,40
519.86957,520.0063,76,91,40
520.05707,520.1938,72,92,40
520.24457,520.3813,76,93,40
520.43207,520.61566,77,94,40
520.61957,520.7563,79,95,40
520.80707,520.9438,77,96,40
520.99457,521.1313,79,97,40
521.18207,521.36566,76,97,40
521.36957,521.5063,77,98,40
521.55707,521.6938,76,99,40
521.74457,521.8813,77,100,40
521.93207,522.11566,77,101,40
522.11957,522.2563,79,102,40
522.30707,522.4438,77,103,40
522.49457,522.6313,79,104,40
522.68207,522.86566,77,104,40
522.86957,523.0063,79,105,40
523.05707,523.1938,77,106,40
523.24457,523.3813,79,107,40
523.43207,523.5688,81,108,40
523.61957,523.7563,82,109,40
523.80707,523.9438,81,110,40
523.99457,524.1313,82,110,40
524.18207,524.3188,81,110,40
524.36957,524.5063,82,110,40
524.55707,524.6964,81,110,40
524.7481,524.88745,82,110,40
524.9392,525.0831,81,110,40
525.1366,525.2805,82,110,40
525.334,525.48376,81,110,40
525.5394,525.6957,82,110,40
525.7537,526.1248,81,120,40
526.1287,526.4998,82,120,40
526.5037,526.8748,79,120,40
526.8787,527.2498,81,120,40
527.2537,528.3748,81,120,40
528.3787,528.51544,82,120,40
528.5662,528.70294,81,120,40
528.7537,528.9373,77,120,40
528.9412,529.07794,79,120,40
529.1287,529.26544,72,120,40
529.3162,529.45294,70,120,40
529.5037,529.8748,69,120,40
529.8787,530.2498,76,120,40
530.2537,531.7498,77,120,40
531.7537,532.1248,65,120,40
531.7537,532.1248,74,120,40
532.1287,532.4998,65,120,40
532.1287,532.4998,74,120,40
532.5037,532.8748,65,120,40
532.5037,532.8748,74,120,40
532.8787,533.2498,65,120,40
532.8787,533.2498,74,120,40
533.2537,534.3748,65,120,40
533.2537,534.3748,74,120,40
534.3787,534.51544,76,120,40
534.5662,534.70294,74,120,40
534.7537,534.9373,72,120,40
534.9412,535.07794,70,120,40
535.1287,535.26544,72,120,40
535.3162,535.45294,74,120,40
535.5037,535.8748,76,120,40
535.8787,536.2498,77,120,40
536.2537,537.3748,76,120,40
537.3787,537.51544,76,120,40
537.5662,537.70294,74,120,40
537.7537,537.9373,72,120,40
537.9412,538.07794,74,120,40
538.1287,538.26544,76,120,40
538.3162,538.45294,77,120,40
538.5037,538.8748,79,120,40
538.8787,539.2498,81,120,40
539.2537,540.3748,79,120,40
540.3787,540.51544,77,100,40
540.5662,540.70294,76,99,40
540.7537,540.9408,74,98,40
540.9448,541.0841,72,96,40
541.13586,541.2752,70,95,40
541.32697,541.4663,69,94,40
541.51807,541.8062,67,92,40
541.90765,542.0497,65,90,40
542.1025,542.2445,64,88,40
542.29724,542.4931,62,87,40
542.49725,542.6431,60,86,40
542.69727,542.84607,58,84,40
542.90137,543.0502,57,83,40
543.1054,543.51776,55,81,40
545.3534,545.4992,60,70,40
545.5534,545.6992,62,70,40
545.75336,545.9417,64,70,40
545.9457,546.08594,65,70,40
546.138,546.2747,67,70,40
546.3255,546.4622,69,70,40
546.513,546.8841,70,70,40
546.888,547.2591,71,70,40
547.263,548.7591,72,110,40
548.763,550.2122,74,110,40
550.263,551.3841,65,70,40
551.388,551.48175,67,70,40
551.48175,551.5755,65,70,40
551.5755,551.66925,64,70,40
551.66925,551.763,65,70,40
551.763,552.3251,67,70,40
552.3291,552.5162,64,70,40
552.52014,552.71344,64,70,40
552.7175,552.91077,60,70,40
552.9149,553.1161,67,70,40
553.12036,553.3302,64,70,40
553.33466,554.83075,69,110,40
554.83466,556.33075,65,110,40
554.83466,556.33075,74,110,40
556.33466,556.70575,65,70,40
556.33466,556.70575,72,70,40
557.95966,558.08075,65,70,40
558.08466,558.20575,62,70,40
558.20966,558.33075,69,70,40
558.33466,558.45575,65,70,40
558.45966,558.58075,62,70,40
558.58466,558.95575,60,70,40
559.70966,560.45575,64,110,40
560.95966,561.08075,67,70,40
561.08466,561.20575,64,70,40
561.20966,561.33075,70,70,40
561.33466,561.45575,67,70,40
561.45966,561.58075,64,70,40
561.58466,561.95575,58,70,40
562.70966,563.45575,65,110,40
566.83466,566.95575,69,70,40
566.95966,567.08075,72,70,40
567.08466,567.20575,69,70,40
567.20966,567.33075,77,70,40
567.33466,567.45575,72,70,40
567.45966,567.58075,69,70,40
567.58466,567.70575,65,70,40
567.70966,567.83075,69,70,40
567.83466,567.95575,65,70,40
567.95966,568.08075,72,70,40
568.08466,568.20575,69,70,40
568.20966,568.33075,65,70,40
568.33466,568.70575,64,70,40
569.83466,569.95575,64,70,40
569.95966,570.08075,67,70,40
570.08466,570.20575,64,70,40
570.20966,570.33075,70,70,40
570.33466,570.45575,67,70,40
570.45966,570.58075,64,70,40
570.58466,570.70575,58,70,40
570.70966,570.83075,64,70,40
570.83466,570.95575,58,70,40
570.95966,571.08075,67,70,40
571.08466,571.20575,64,70,40
571.20966,571.33075,58,70,40
571.33466,571.70575,57,70,40
572.83466,573.20575,60,80,40
573.20966,573.58075,62,82,40
573.58466,573.95575,64,85,40
573.95966,574.33075,65,87,40
574.33466,576.20575,60,90,40
576.20966,576.58075,64,103,40
576.58466,576.95575,65,105,40
576.95966,577.33075,67,108,40
577.33466,577.70575,60,110,40
577.70966,578.08075,65,110,40
578.08466,578.45575,67,110,40
578.45966,578.83075,69,110,40
578.83466,579.20575,60,110,40
579.20966,579.58075,67,110,40
579.58466,579.95575,69,110,40
579.95966,580.33075,70,110,40
580.33466,580.70575,72,120,40
580.70966,581.08075,74,120,40
581.08466,581.45575,76,120,40
581.45966,581.83075,77,120,40
581.83466,582.20575,79,115,40
582.20966,582.58075,81,109,40
582.58466,582.9702,82,102,40
582.97424,583.3924,83,96,40
583.3968,584.5321,84,89,40
584.5361,585.29156,72,70,40
585.29553,585.6713,74,70,40
585.6753,586.0511,76,70,40
586.05505,586.43085,77,70,40
586.43475,587.93396,72,110,40
587.95374,588.13965,60,70,40
588.1436,588.2821,62,70,40
588.3335,588.472,60,70,40
588.5234,588.6618,62,70,40
588.71326,588.8992,64,70,40
588.90314,589.04156,65,70,40
589.093,589.23145,64,70,40
589.2829,589.4213,65,70,40
589.4727,591.3517,60,110,40
591.37146,591.74725,62,80,40
591.7512,592.127,64,79,40
592.131,592.5068,65,77,40
592.51074,592.8865,57,75,40
592.89044,593.26624,58,73,40
593.2702,593.6508,60,71,40
593.65485,593.84314,62,69,40
593.8471,594.0354,64,68,40
594.0394,595.60925,57,67,40
594.0394,595.60925,65,67,40
595.6134,596.2092,57,60,40
595.6134,596.2092,65,60,40
596.4134,597.05176,57,55,40
596.4134,597.05176,65,55,40
597.2705,598.8664,57,50,40
597.2705,598.8664,65,50,40
598.87054,599.4664,69,50,40
599.67053,600.3089,69,50,40
600.52765,602.2375,69,50,40
602.24194,603.9518,72,110,40
602.24194,603.9518,76,110,40
603.95624,604.2732,72,110,40
603.95624,604.2732,77,110,40
604.81335,605.18317,60,120,40
604.81335,605.18317,64,120,40
605.81335,606.30817,57,120,40
605.81335,606.30817,65,120,40
0.0,0.18359375,57,60,41
0.1875,0.37109375,57,60,41
0.375,0.55859375,57,60,41
0.5625,0.74609375,57,60,41
0.75,0.93359375,57,60,41
0.9375,1.1210938,57,60,41
1.125,1.3085938,57,60,41
1.3125,1.4960938,57,60,41
1.5,1.6835938,57,60,41
1.6875,1.8710938,57,60,41
1.875,2.0585938,57,60,41
2.0625,2.2460938,57,60,41
2.25,2.4335938,57,60,41
2.4375,2.6210938,57,60,41
2.625,2.8085938,57,60,41
2.8125,2.9960938,57,60,41
3.0,3.1835938,57,60,41
3.1875,3.3710938,57,60,41
3.375,3.5585938,57,60,41
3.5625,3.7460938,57,60,41
3.75,3.9335938,57,60,41
3.9375,4.1210938,57,60,41
4.125,4.3085938,57,60,41
4.3125,4.4960938,57,60,41
4.5,4.6835938,57,60,41
4.6875,4.8710938,57,60,41
4.875,5.0585938,57,60,41
5.0625,5.2460938,57,60,41
5.25,5.4335938,57,60,41
5.4375,5.6210938,57,60,41
5.625,5.8085938,57,60,41
5.8125,5.9960938,57,60,41
6.0,6.1835938,57,60,41
6.1875,6.3710938,57,60,41
6.375,6.5585938,57,60,41
6.5625,6.7460938,57,60,41
6.75,6.9335938,57,60,41
6.9375,7.1210938,57,60,41
7.125,7.3085938,57,60,41
7.3125,7.4960938,57,60,41
7.5,7.6835938,57,60,41
7.6875,7.8710938,57,61,41
7.875,8.058594,57,62,41
8.0625,8.246094,57,64,41
8.25,8.433594,57,65,41
8.4375,8.621094,57,66,41
8.625,8.808594,57,68,41
8.8125,8.996094,57,69,41
9.0,9.183594,57,71,41
9.1875,9.371094,57,72,41
9.375,9.558594,57,73,41
9.5625,9.746094,57,75,41
9.75,9.933594,58,76,41
9.9375,10.121094,58,78,41
10.125,10.308594,58,79,41
10.3125,10.496094,58,80,41
10.5,10.683594,58,70,41
10.6875,10.871094,58,70,41
10.875,11.058594,58,70,41
11.0625,11.246094,58,70,41
11.25,11.433594,58,70,41
11.4375,11.621094,58,70,41
11.625,11.808594,58,70,41
11.8125,11.996094,58,70,41
12.0,12.183594,58,70,41
12.1875,12.371094,58,70,41
12.375,12.558594,58,70,41
12.5625,12.746094,58,70,41
12.75,12.933594,58,70,41
12.9375,13.121094,58,70,41
13.125,13.308594,58,70,41
13.3125,13.496094,58,70,41
13.5,13.683594,58,70,41
13.6875,13.871094,58,70,41
13.875,14.058594,58,70,41
14.0625,14.246094,58,70,41
14.25,14.433594,58,70,41
14.4375,14.621094,58,70,41
14.625,14.808594,58,70,41
14.8125,14.996094,58,70,41
15.0,15.183594,58,70,41
15.1875,15.371094,58,70,41
15.375,15.558594,58,70,41
15.5625,15.746094,58,70,41
15.75,15.933594,58,70,41
15.9375,16.121094,58,70,41
16.125,16.308594,58,70,41
16.3125,16.496094,58,70,41
16.5,16.683594,58,70,41
16.6875,16.871094,58,70,41
16.875,17.058594,58,70,41
17.0625,17.246094,58,70,41
17.25,17.433594,58,70,41
17.4375,17.621094,58,70,41
17.625,17.808594,58,70,41
17.8125,17.996094,58,70,41
18.0,18.183594,58,70,41
18.1875,18.371094,58,71,41
18.375,18.558594,58,72,41
18.5625,18.746094,58,73,41
18.75,18.933594,58,75,41
18.9375,19.121094,58,76,41
19.125,19.308594,58,77,41
19.3125,19.496094,58,79,41
19.5,19.683594,58,80,41
19.6875,19.871094,58,81,41
19.875,20.058594,58,83,41
20.0625,20.246094,58,84,41
20.25,20.433594,58,85,41
20.4375,20.621094,58,86,41
20.625,20.808594,58,88,41
20.8125,20.996094,58,89,41
21.0,21.183594,58,90,41
21.1875,21.371094,58,92,41
21.375,21.558594,58,93,41
21.5625,21.746094,58,94,41
21.75,21.933594,58,96,41
21.9375,22.121094,58,97,41
22.125,22.308594,58,98,41
22.3125,22.496094,58,99,41
22.5,22.683594,58,100,41
22.6875,22.871094,58,100,41
22.875,23.058594,58,100,41
23.0625,23.246094,58,100,41
23.25,23.433594,58,100,41
23.4375,23.621094,58,100,41
23.625,23.808594,58,100,41
23.8125,23.996094,58,100,41
24.0,24.183594,58,100,41
24.1875,24.371094,58,100,41
24.375,24.558594,58,100,41
24.5625,24.746094,58,100,41
24.75,24.933594,58,100,41
24.9375,25.121094,58,100,41
25.125,25.308594,58,100,41
25.3125,25.496094,58,100,41
25.5,25.688301,60,110,41
25.5,25.688301,64,110,41
25.692308,25.88061,60,110,41
25.692308,25.88061,64,110,41
25.884615,26.072916,60,110,41
25.884615,26.072916,64,110,41
26.076923,26.265224,60,110,41
26.076923,26.265224,64,110,41
26.26923,26.465063,60,110,41
26.26923,26.465063,64,110,41
26.46923,26.665064,60,110,41
26.46923,26.665064,64,110,41
26.66923,26.870428,60,110,41
26.66923,26.870428,64,110,41
26.874708,27.08453,60,110,41
26.874708,27.08453,64,110,41
27.088995,28.284828,60,120,41
28.288994,28.684828,53,120,41
28.688995,28.838823,53,120,41
29.099953,29.24978,53,120,41
29.51091,30.328547,53,120,41
30.332827,30.482655,58,70,41
30.743784,30.893614,62,70,41
31.154743,31.972378,60,70,41
31.976658,32.130707,53,70,41
32.399193,32.55324,58,70,41
32.821728,33.662395,59,70,41
33.666798,34.507465,60,70,41
34.511868,35.430138,52,70,41
35.434944,35.57517,52,70,41
35.81956,35.959785,61,70,41
36.204174,37.769238,62,70,41
37.773403,38.626083,59,70,41
38.630547,38.786797,58,70,41
39.059116,39.215366,64,70,41
39.48769,41.19751,63,110,41
41.201973,42.05465,62,110,41
42.059116,42.911793,61,110,41
42.916256,43.768932,58,110,41
43.7734,45.438576,48,110,41
43.7734,45.438576,58,110,41
45.487682,49.983776,57,70,41
45.487682,51.483776,48,70,41
49.987682,51.483776,58,70,41
51.487682,52.608776,60,70,41
52.612682,52.796276,62,70,41
52.800182,52.983776,60,70,41
52.987682,53.171276,58,70,41
53.175182,53.358776,60,70,41
53.362682,53.546276,57,70,41
53.550182,53.733776,55,70,41
53.737682,53.921276,57,70,41
53.925182,54.108776,55,70,41
54.112682,54.296276,53,70,41
54.300182,54.483776,55,70,41
54.487682,54.671276,57,70,41
54.675182,54.858776,58,70,41
54.862682,55.046276,60,70,41
55.050182,55.233776,62,70,41
55.237682,55.421276,60,70,41
55.425182,55.608776,62,70,41
55.612682,55.796276,64,70,41
55.800182,55.983776,65,70,41
55.987682,56.171276,64,70,41
56.175182,56.3119,67,70,41
56.362682,56.4994,58,70,41
56.550182,56.6869,58,70,41
56.737682,56.921276,58,70,41
56.925182,57.0619,60,70,41
57.112682,57.2494,55,70,41
57.300182,57.4369,55,70,41
57.487682,57.858776,57,70,41
57.862682,58.233776,58,70,41
58.237682,58.608776,60,70,41
58.612682,58.983776,62,100,41
58.987682,60.483776,58,70,41
60.487682,60.858776,60,70,41
60.862682,61.233776,62,70,41
61.237682,61.608776,64,70,41
61.612682,61.983776,65,100,41
61.987682,63.483776,62,70,41
63.487682,63.858776,64,70,41
63.862682,64.23378,65,70,41
64.237686,64.60878,67,70,41
64.612686,64.98378,69,70,41
64.987686,65.35878,65,70,41
65.362686,65.73378,67,70,41
65.737686,66.10878,69,70,41
66.112686,66.48378,71,70,41
66.487686,66.85878,72,70,41
66.862686,67.23378,65,73,41
67.237686,67.60878,67,76,41
67.612686,67.98378,69,80,41
67.987686,68.35878,65,83,41
68.362686,68.73378,67,87,41
68.737686,69.10878,69,90,41
69.112686,69.48378,71,93,41
69.487686,69.85878,72,97,41
69.862686,70.23378,74,100,41
70.237686,70.60878,76,104,41
70.612686,70.98378,71,107,41
70.987686,71.75291,72,110,41
71.75691,72.15275,60,110,41
72.15691,72.58102,72,110,41
72.58548,72.981316,55,120,41
72.58548,72.981316,62,120,41
72.58548,72.981316,71,120,41
80.28013,81.73716,63,100,41
81.78013,83.27622,62,70,41
83.28013,84.73716,61,100,41
84.78013,86.27622,60,70,41
86.28013,87.77622,65,110,41
86.28013,88.90122,60,110,41
87.78013,88.90122,64,110,41
88.90513,89.27622,60,91,41
89.28013,90.40122,59,70,41
90.40513,90.77622,62,70,41
90.78013,91.15122,60,70,41
91.15513,91.52622,57,70,41
91.53013,91.90122,55,70,41
91.90513,92.27622,53,70,41
92.28013,92.83872,52,70,41
92.84263,93.02622,50,70,41
93.03013,94.52622,48,70,41
94.53013,95.31058,50,70,41
95.31474,95.68584,52,70,41
95.68974,96.06084,60,70,41
96.06474,96.43584,59,70,41
96.43974,96.81084,74,70,41
96.81474,97.93584,72,70,41
97.93974,98.31084,71,70,41
98.31474,99.24834,72,70,41
99.25224,99.43584,71,82,41
99.43974,99.62334,69,85,41
99.62724,99.81084,67,87,41
99.81474,100.18584,65,90,41
100.18974,100.56084,67,95,41
100.56474,100.94535,65,100,41
100.949356,101.35918,74,105,41
101.36364,101.74425,72,110,41
101.74825,102.12887,74,70,41
102.13287,102.51348,76,70,41
102.51749,102.898094,74,70,41
102.9021,103.28271,72,110,41
103.28671,103.66733,74,70,41
103.67133,104.05194,76,70,41
104.05595,104.436554,65,100,41
104.44056,104.82117,64,100,41
104.82517,105.20579,65,70,41
105.20979,105.5904,67,70,41
105.594406,105.97501,65,70,41
105.97902,106.36457,64,100,41
106.36863,106.75418,65,70,41
106.75824,107.154076,67,70,41
107.15824,107.57354,65,70,41
107.578,108.387184,64,70,41
108.39119,109.15642,65,78,41
109.16042,109.925644,67,87,41
109.92965,110.74586,69,96,41
110.75046,111.131065,71,70,41
112.28892,112.669525,72,70,41
113.82738,114.207985,59,70,41
113.82738,114.207985,62,70,41
115.36584,115.746445,60,70,41
115.36584,115.746445,64,70,41
116.51968,116.643875,60,70,41
116.64789,116.77208,59,70,41
116.77609,116.90029,57,70,41
116.9043,117.028496,55,70,41
117.0325,117.1567,57,70,41
117.160706,117.284904,54,70,41
117.28891,118.05413,50,70,41
118.058136,118.182335,60,60,41
118.18635,118.31055,59,60,41
118.31455,118.43875,57,60,41
118.44276,118.566956,55,60,41
118.57096,118.69516,57,60,41
118.699165,118.823364,54,60,41
118.82737,119.59259,50,60,41
119.596596,119.720795,60,60,41
119.72481,119.84901,59,60,41
119.85301,119.97721,57,60,41
119.98122,120.105415,55,60,41
120.10942,120.23362,57,60,41
120.237625,120.361824,54,60,41
120.36583,120.46599,50,60,41
120.49403,120.59419,54,60,41
120.62224,120.7224,57,60,41
120.75044,120.8506,60,60,41
120.87865,120.97881,62,61,41
121.00685,121.10702,66,62,41
126.135056,126.259254,55,120,41
126.26326,126.38746,53,120,41
126.391464,126.51566,52,120,41
126.51967,126.64387,50,120,41
126.64787,126.77207,52,120,41
126.77608,126.900276,48,120,41
126.90428,127.00445,52,120,41
127.032486,127.13265,55,120,41
127.1607,127.26086,60,120,41
127.2889,127.4131,64,120,41
127.41711,127.541306,67,120,41
127.54531,127.66951,72,120,41
127.673515,127.773674,60,120,41
127.80172,127.90188,64,120,41
127.929924,128.03009,67,120,41
128.05814,128.18233,64,120,41
128.18634,128.31053,60,120,41
128.31454,128.43874,55,120,41
128.44275,128.57191,52,120,41
128.57608,128.70525,64,120,41
128.70941,128.83858,67,120,41
128.84274,128.97919,72,110,41
128.9836,129.12613,72,95,41
129.13094,129.27997,72,80,41
130.07425,130.85962,61,70,41
133.23215,134.0175,61,70,41
135.60056,136.18855,61,110,41
136.39003,136.97803,67,110,41
137.1795,137.78339,65,110,41
137.99031,138.62871,62,110,41
137.99031,138.62871,71,110,41
138.84746,139.9973,59,70,41
140.0013,140.38191,60,70,41
140.38591,141.53575,62,70,41
141.53976,141.92036,59,70,41
141.92438,142.30498,60,70,41
142.30899,142.68959,62,70,41
142.6936,143.07422,64,70,41
143.07822,143.45883,65,70,41
143.46283,144.61267,62,70,41
144.61668,144.99728,59,70,41
145.0013,145.18959,60,70,41
145.1936,145.33383,62,70,41
145.38591,145.52614,60,70,41
145.57822,145.71844,62,70,41
145.77052,145.95882,64,70,41
145.96283,146.10306,65,70,41
146.15514,146.29536,64,70,41
146.34744,146.48767,65,70,41
146.53975,148.0742,62,70,41
148.07822,156.6575,48,70,41
148.07822,156.6575,60,70,41
156.66145,156.84737,55,100,41
156.85132,157.04207,57,90,41
157.04613,157.24196,57,80,41
157.24612,157.42972,57,70,41
157.43362,157.61722,57,70,41
157.62112,157.80472,57,70,41
157.80862,157.99222,57,70,41
157.99612,158.17972,57,70,41
158.18362,158.36722,57,70,41
158.37112,158.55472,57,70,41
158.55862,158.74222,57,70,41
158.74612,158.92972,57,70,41
158.93362,159.11722,57,70,41
159.12112,159.30472,57,70,41
159.30862,159.49222,57,70,41
159.49612,159.67972,57,70,41
159.68362,159.86722,57,70,41
159.87112,160.05472,57,70,41
160.05862,160.24222,57,70,41
160.24612,160.42972,57,70,41
160.43362,160.61722,57,70,41
160.62112,160.80472,57,70,41
160.80862,160.99222,57,70,41
160.99612,161.17972,57,70,41
161.18362,161.36722,57,70,41
161.37112,161.55472,57,70,41
161.55862,161.74222,57,70,41
161.74612,161.92972,57,70,41
161.93362,162.11722,57,70,41
162.12112,162.30472,57,70,41
162.30862,162.49222,57,70,41
162.49612,162.67972,57,70,41
162.68362,162.86722,57,70,41
162.87112,163.05472,57,70,41
163.05862,163.24222,57,70,41
163.24612,163.42972,57,70,41
163.43362,163.61722,57,74,41
163.62112,163.80472,57,78,41
163.80862,163.99222,57,83,41
163.99612,164.17972,57,87,41
164.18362,164.36722,57,92,41
164.37112,164.55472,57,96,41
164.55862,164.74222,57,100,41
166.24612,166.42972,59,110,41
166.43362,166.57034,60,110,41
166.62112,166.75784,59,110,41
166.80862,166.94534,60,110,41
166.99612,167.17972,62,110,41
167.18362,167.32034,63,110,41
167.37112,167.50784,62,110,41
167.55862,167.69534,63,110,41
167.74612,170.79112,63,110,41
170.79503,171.16612,62,100,41
175.29503,175.66612,70,70,41
175.67003,176.04112,72,70,41
176.04503,176.41612,74,70,41
176.42003,176.79112,75,70,41
176.79503,177.91612,72,70,41
177.92003,178.10362,74,70,41
178.10753,178.29112,72,70,41
178.29503,178.47862,70,70,41
178.48253,178.61925,72,70,41
178.67003,178.80675,69,70,41
178.85753,178.99425,67,70,41
179.04503,179.41612,66,70,41
179.42003,179.79112,75,70,41
179.79503,181.41612,74,110,41
181.42003,181.54112,72,70,41
181.54503,181.66612,69,70,41
181.67003,181.79112,60,70,41
181.79503,181.91612,57,70,41
181.92003,182.04112,62,70,41
182.04503,182.16612,60,70,41
182.17003,182.29112,57,70,41
182.29503,182.41612,62,70,41
182.42003,182.54112,60,70,41
182.54503,182.66612,57,70,41
182.67003,182.79112,62,70,41
182.79503,182.97862,55,70,41
182.79503,182.97862,58,70,41
182.98253,183.16612,58,70,41
182.98253,183.16612,62,70,41
183.17003,183.35362,58,70,41
183.17003,183.35362,62,70,41
183.35753,183.54112,58,70,41
183.35753,183.54112,62,70,41
183.54503,183.72862,58,70,41
183.54503,183.72862,62,70,41
183.73253,183.91612,58,70,41
183.73253,183.91612,62,70,41
183.92003,184.10362,58,70,41
183.92003,184.10362,62,70,41
184.10753,184.29112,58,70,41
184.10753,184.29112,62,70,41
184.29503,184.47862,58,70,41
184.29503,184.47862,62,70,41
184.48253,184.66612,58,70,41
184.48253,184.66612,62,70,41
184.67003,184.85362,58,70,41
184.67003,184.85362,62,70,41
184.85753,185.04112,58,70,41
184.85753,185.04112,62,70,41
185.04503,185.22862,58,70,41
185.04503,185.22862,62,70,41
185.23253,185.41612,58,72,41
185.23253,185.41612,62,72,41
185.42003,185.60362,58,74,41
185.42003,185.60362,62,74,41
185.60753,185.79112,58,76,41
185.60753,185.79112,62,76,41
186.54503,186.91612,67,86,41
186.92003,187.29112,69,90,41
187.29503,187.66612,70,94,41
187.67003,188.04112,72,98,41
188.04503,188.41612,70,102,41
188.42003,188.55675,69,106,41
188.60753,188.74425,67,108,41
188.79503,188.97862,65,110,41
188.98253,189.11925,67,110,41
189.17003,189.30675,64,110,41
189.35753,189.49425,62,110,41
189.54503,189.91612,61,110,41
190.67003,190.80675,64,110,41
190.85753,190.99425,65,110,41
191.04503,191.41612,67,110,41
191.42003,191.55675,55,110,41
191.60753,191.74425,57,110,41
191.79503,192.16165,58,110,41
195.82399,195.95737,64,70,41
196.00691,196.14029,65,70,41
196.18983,196.36896,67,70,41
197.2874,197.42078,67,70,41
197.2874,197.42078,69,70,41
197.47032,197.60371,67,70,41
197.47032,197.60371,69,70,41
197.65324,198.01529,65,100,41
197.65324,198.01529,69,100,41
201.67763,201.81102,53,70,41
201.86057,201.99394,57,70,41
202.04349,202.2226,57,70,41
203.14105,203.27443,66,70,41
203.32397,203.45735,67,70,41
203.5069,203.86894,69,100,41
207.53128,207.66466,57,70,41
207.7142,207.8476,58,70,41
207.89714,208.07625,60,70,41
208.99469,209.12808,66,70,41
208.99469,209.12808,69,70,41
209.17761,209.311,66,70,41
209.17761,209.311,69,70,41
209.36055,209.7226,67,100,41
209.36055,209.7226,70,100,41
210.4581,210.59149,58,70,41
210.64104,210.77441,57,70,41
210.82396,211.00307,55,70,41
211.92152,212.0549,75,70,41
212.10445,212.23782,74,72,41
212.28737,212.46649,75,74,41
212.47029,212.60368,79,77,41
212.65323,212.7866,70,79,41
212.83615,212.96953,68,82,41
213.01907,213.1982,67,84,41
213.202,213.33539,70,86,41
213.38493,213.51831,63,89,41
213.56786,213.70123,62,91,41
213.75078,213.9299,63,94,41
213.93372,214.0671,67,96,41
214.11664,214.25002,58,98,41
214.29956,214.43295,56,101,41
214.48248,214.6616,55,103,41
214.66542,214.7988,58,106,41
214.84834,214.98172,51,108,41
215.03127,215.16466,50,110,41
215.21419,215.39331,51,120,41
215.39713,215.5305,55,120,41
215.58005,215.71342,58,120,41
215.76297,215.89636,56,120,41
215.9459,216.07928,55,120,41
216.12883,216.2622,58,120,41
216.31175,216.44513,63,120,41
216.49467,216.62807,67,120,41
216.67761,216.81099,70,120,41
216.86053,216.99391,55,120,41
217.04346,217.18018,58,120,41
217.23096,217.36768,63,120,41
217.41846,217.55869,67,120,41
217.61076,217.75099,70,120,41
217.80307,217.94891,75,110,41
218.00307,218.15932,75,90,41
218.96736,219.52596,61,70,41
218.96736,219.52596,64,70,41
221.96736,222.52596,61,70,41
221.96736,222.52596,64,70,41
224.96736,225.52596,59,70,41
224.96736,225.52596,62,70,41
227.21736,227.77596,53,110,41
227.96736,228.52596,72,110,41
228.71736,229.29028,73,110,41
229.48659,230.12498,58,110,41
230.34373,239.21175,48,70,41
230.34373,239.21175,55,70,41
239.21556,242.13858,48,70,41
242.14238,247.26051,49,70,41
247.26433,247.99222,51,70,41
247.99603,250.18733,51,70,41
250.19115,251.65076,53,70,41
251.65456,253.11417,54,70,41
253.11798,257.13855,56,70,41
257.14236,257.5044,58,70,41
257.5082,257.87024,60,70,41
257.87405,258.2361,61,70,41
258.23993,260.06537,56,70,41
260.06918,260.4312,58,83,41
260.43503,260.7971,60,86,41
260.80087,261.16293,61,88,41
261.16675,261.52878,56,91,41
261.5326,261.89462,58,94,41
261.89844,262.2605,62,96,41
262.2643,262.62634,63,99,41
262.63016,263.7239,61,110,41
263.72772,263.90683,60,110,41
263.91064,264.08975,61,110,41
264.09357,264.4556,63,110,41
264.4594,264.63852,60,110,41
264.64233,264.82147,61,110,41
264.82526,265.0044,63,110,41
265.0082,265.18732,65,110,41
265.19113,265.37024,66,100,41
265.37405,265.55316,68,80,41
265.55698,266.65073,68,70,41
266.65454,267.01657,61,70,41
267.0204,267.38242,62,70,41
267.38623,267.7483,63,70,41
267.7521,268.11414,65,70,41
268.11795,268.47998,66,70,41
268.4838,268.84586,64,110,41
268.84964,269.2117,65,99,41
269.2155,269.57755,66,87,41
269.58136,269.9434,68,75,41
269.9472,270.00818,66,70,41
270.00818,270.06915,68,70,41
270.06915,270.13013,66,70,41
270.13013,270.1911,68,70,41
270.1911,270.25208,66,70,41
270.25208,270.31308,68,70,41
270.31308,270.37405,66,70,41
270.37405,270.43503,68,70,41
270.43503,270.496,66,70,41
270.496,270.55698,68,70,41
270.55698,270.61795,66,70,41
270.61795,270.67892,68,70,41
270.67892,270.7399,66,70,41
270.7399,270.80087,68,70,41
270.80087,270.86185,66,70,41
270.86185,270.92282,68,70,41
270.92282,270.9838,66,70,41
270.9838,271.04477,68,70,41
271.04477,271.10574,66,70,41
271.10574,271.16672,68,70,41
271.16672,271.2277,66,70,41
271.2277,271.31915,65,70,41
271.31915,271.4106,66,70,41
271.4106,271.77267,65,70,41
271.7765,272.13852,66,70,41
272.14233,272.50436,68,70,41
272.50818,272.6873,70,70,41
272.6911,272.87024,68,70,41
272.87402,273.96777,63,70,41
273.9716,274.33365,60,70,41
274.33746,274.51657,61,70,41
274.5204,274.65375,63,72,41
274.7033,274.8367,61,74,41
274.88623,275.01962,63,76,41
275.06915,275.24826,65,79,41
275.25208,275.38547,66,81,41
275.435,275.5684,65,83,41
275.61792,275.7513,66,85,41
275.80087,276.89462,63,85,41
276.8984,277.26047,66,104,41
277.26428,277.6263,65,110,41
286.77646,288.23605,70,50,41
288.23987,288.96774,69,50,41
288.97156,289.24216,70,50,41
289.33743,289.608,65,50,41
289.70328,291.16287,73,50,41
291.1667,292.0775,71,50,41
292.08133,292.2147,70,50,41
292.26425,292.39764,68,50,41
292.44717,292.58057,66,50,41
292.6301,292.99213,65,50,41
292.99594,293.358,70,50,41
293.36182,293.54092,63,50,41
293.54474,293.6781,65,50,41
293.72766,293.86105,63,50,41
293.91058,294.04398,65,50,41
294.0935,294.2726,66,50,41
294.27643,294.40982,68,50,41
294.45935,294.59274,66,50,41
294.6423,294.77567,68,50,41
294.82523,295.00433,65,50,41
295.00815,295.14154,66,50,41
295.19107,295.32446,65,50,41
295.374,295.5074,66,50,41
295.55692,295.73602,68,50,41
295.73984,295.87323,70,50,41
295.9228,296.05615,68,50,41
296.1057,296.23907,70,50,41
296.28864,296.46774,66,50,41
296.47156,296.60495,68,50,41
296.65448,296.78787,66,50,41
296.8374,296.9708,68,50,41
297.02032,297.19946,70,50,41
297.20325,297.33664,71,50,41
297.3862,297.51956,70,50,41
297.56912,297.70248,71,50,41
297.75204,297.93115,69,50,41
297.93497,298.06836,70,50,41
298.1179,298.25128,72,50,41
298.3008,298.4342,69,50,41
298.48373,298.61713,70,50,41
298.6667,298.80005,65,50,41
298.8496,298.98297,61,50,41
299.03253,299.16592,58,50,41
299.21545,299.39456,54,50,41
299.39838,299.53177,56,50,41
299.5813,299.7147,54,50,41
299.76422,299.8976,53,50,41
299.94714,300.08054,51,50,41
300.1301,300.26346,49,50,41
300.31302,300.44638,48,50,41
300.49594,300.62933,60,50,41
300.67886,301.0409,53,50,41
304.3374,305.797,70,90,41
305.8008,306.5287,68,110,41
307.26422,308.72382,55,125,41
308.72763,309.45554,53,110,41
309.45935,309.72992,54,110,41
309.8252,310.09576,49,110,41
310.19104,311.65063,58,125,41
311.65445,312.38235,57,110,41
312.38617,312.65674,59,110,41
312.752,313.02258,53,110,41
313.11786,314.57745,62,126,41
314.58127,315.30917,60,110,41
315.313,318.9677,59,110,41
315.313,318.9677,68,110,41
318.97153,321.5287,59,99,41
318.97153,321.5287,62,99,41
321.53247,322.26038,59,89,41
322.2642,322.9921,56,86,41
324.45932,325.1872,59,78,41
325.191,325.9189,56,75,41
325.92273,326.6506,55,72,41
326.65442,327.01648,55,70,41
328.4837,328.84573,50,70,41
328.84955,329.21158,52,70,41
329.2154,329.57745,53,70,41
329.58124,329.9433,55,70,41
329.9471,331.04086,52,70,41
331.04468,331.2238,53,70,41
331.2276,331.4067,52,70,41
331.41052,331.58963,50,70,41
331.59344,331.72684,52,70,41
331.77637,331.90976,50,70,41
331.9593,332.09268,52,70,41
332.1422,332.32135,53,70,41
332.32513,332.45853,55,70,41
332.5081,332.64145,53,70,41
332.691,332.82437,55,70,41
332.87393,333.23596,52,70,41
334.33734,334.69937,66,70,41
335.80075,336.16278,58,70,41
336.1666,336.52866,60,70,41
336.53247,336.8945,62,70,41
336.89832,337.26035,63,70,41
337.26416,338.3579,62,70,41
338.36172,338.72375,58,70,41
338.72757,339.08963,54,70,41
339.0934,339.45547,55,70,41
339.4593,339.82132,57,70,41
339.82513,340.18716,58,70,41
340.19098,341.3216,57,70,41
341.3256,341.7062,53,70,41
342.07608,342.1942,64,70,41
342.19803,342.31616,62,70,41
342.31998,342.4381,61,70,41
342.44193,342.56006,59,70,41
342.56387,342.682,61,70,41
342.68582,342.80396,57,70,41
342.80777,343.53568,69,70,41
344.63705,344.99908,56,70,41
345.0029,345.36493,57,70,41
345.36874,345.7308,59,70,41
345.7346,346.09665,60,70,41
346.10046,347.1942,59,70,41
347.19803,347.56006,55,70,41
347.92972,348.05167,55,70,41
348.05167,348.1736,53,70,41
348.1736,348.29556,52,70,41
348.29556,348.4175,50,70,41
348.4175,348.5395,52,70,41
348.5395,348.66144,48,70,41
348.66144,349.3893,60,70,41
350.4907,350.61264,55,70,41
350.61264,350.7346,53,70,41
350.7346,350.85654,52,70,41
350.85654,350.9785,50,70,41
350.9785,351.10043,52,70,41
351.10043,351.22238,48,70,41
351.22238,351.34055,60,70,41
351.34436,351.4625,60,70,41
351.4663,351.58444,60,70,41
351.58826,351.7064,60,70,41
351.7102,351.82834,60,70,41
351.83215,351.9503,60,70,41
351.9541,352.31613,60,70,41
353.78336,354.51126,64,60,41
354.51508,355.24298,65,60,41
355.24677,355.97467,67,60,41
355.9785,356.7064,69,60,41
356.7102,357.07224,58,60,41
357.07605,357.43808,60,60,41
357.4419,357.80392,62,60,41
357.80774,358.17426,64,60,41
358.17813,358.54922,65,60,41
358.55313,358.94125,67,60,41
358.94543,359.37344,64,60,41
359.37817,359.74927,64,60,41
362.37817,363.49927,69,110,41
363.50317,363.87427,65,110,41
364.25317,364.3899,65,110,41
364.62817,365.37427,65,110,41
365.37817,365.5149,74,70,41
365.75317,365.8899,70,70,41
366.12817,366.87427,69,70,41
367.62817,368.37427,65,70,41
368.37817,369.1434,64,70,41
369.1474,369.96506,67,70,41
369.96933,370.10605,66,70,41
370.34433,370.48105,69,70,41
370.71933,371.46542,69,70,41
371.46933,371.60605,70,70,41
371.84433,371.98105,70,70,41
372.21933,373.15292,72,70,41
373.34433,373.48364,72,70,41
373.7265,373.86853,74,70,41
374.1161,374.26593,74,70,41
374.52707,377.81046,71,110,41
377.81473,379.86523,69,120,41
379.8695,380.01343,67,120,41
380.0669,380.2108,65,120,41
380.26425,380.45255,64,120,41
380.45654,380.59677,62,120,41
380.64886,380.7891,60,100,41
380.84116,380.98138,58,80,41
381.03348,381.21707,57,60,41
381.22098,381.40457,57,60,41
381.40848,381.59207,57,60,41
381.59598,381.77957,57,60,41
381.78348,381.96707,57,60,41
381.97098,382.15457,57,60,41
382.15848,382.34207,57,60,41
382.34598,382.52957,57,60,41
382.53348,382.90457,57,60,41
391.72098,391.90457,58,70,41
391.90848,392.09207,58,70,41
392.09598,392.27957,58,70,41
392.28348,392.46707,58,70,41
392.47098,392.65457,58,70,41
392.65848,392.84207,58,70,41
392.84598,393.02957,58,70,41
393.03348,393.21707,58,70,41
393.22098,393.40457,58,70,41
393.40848,393.59207,58,70,41
393.59598,393.77957,58,70,41
393.78348,393.96707,58,70,41
393.97098,394.15457,58,70,41
394.15848,394.34207,58,70,41
394.34598,394.52957,58,70,41
394.53348,394.71707,58,70,41
394.72098,394.90457,58,70,41
394.90848,395.09207,58,70,41
395.09598,395.27957,58,70,41
395.28348,395.46707,58,70,41
395.47098,395.65457,58,70,41
395.65848,395.84207,58,70,41
395.84598,396.02957,58,70,41
396.03348,396.21707,58,70,41
396.22098,396.40457,58,70,41
396.40848,396.59207,58,70,41
396.59598,396.77957,58,70,41
396.78348,396.96707,58,70,41
396.97098,397.15457,58,70,41
397.15848,397.34207,58,70,41
397.34598,397.52957,58,70,41
397.53348,397.71707,58,70,41
397.72098,397.90457,58,70,41
397.90848,398.09207,58,70,41
398.09598,398.27957,58,70,41
398.28348,398.46707,58,70,41
398.47098,398.65457,58,70,41
398.65848,398.84207,58,70,41
398.84598,399.02957,58,70,41
399.03348,399.21707,58,70,41
399.22098,399.40457,58,71,41
399.40848,399.59207,58,72,41
399.59598,399.77957,58,73,41
399.78348,399.96707,58,75,41
399.97098,400.15457,58,76,41
400.15848,400.34207,58,77,41
400.34598,400.52957,58,79,41
400.53348,400.71707,58,80,41
400.72098,400.90457,58,81,41
400.90848,401.09207,58,83,41
401.09598,401.27957,58,84,41
401.28348,401.46707,58,85,41
401.47098,401.65457,58,86,41
401.65848,401.84207,58,88,41
401.84598,402.02957,58,89,41
402.03348,402.21707,58,90,41
402.22098,402.40457,58,92,41
402.40848,402.59207,58,93,41
402.59598,402.77957,58,94,41
402.78348,402.96707,58,96,41
402.97098,403.15457,58,97,41
403.15848,403.34207,58,98,41
403.34598,403.52957,58,99,41
403.53348,403.71707,57,100,41
403.72098,403.90457,57,100,41
403.90848,404.09207,57,100,41
404.09598,404.27957,57,100,41
404.28348,404.46707,57,100,41
404.47098,404.65457,57,100,41
404.65848,404.84207,57,100,41
404.84598,405.02957,57,100,41
405.03348,405.21707,57,100,41
405.22098,405.40457,57,100,41
405.40848,405.59207,57,101,41
405.59598,405.77957,57,102,41
405.78348,405.96707,57,102,41
405.97098,406.15457,57,103,41
406.15848,406.34207,57,104,41
406.34598,406.52957,57,104,41
406.53348,406.71707,57,105,41
406.72098,406.90457,57,106,41
406.90848,407.09207,57,106,41
407.09598,407.27957,57,107,41
407.28348,407.46707,57,108,41
407.47098,407.65457,57,108,41
407.65848,407.84207,57,109,41
407.84598,408.02957,57,110,41
408.03348,408.21707,57,110,41
408.22098,408.40457,57,110,41
408.40848,408.59207,57,110,41
408.59598,408.77957,57,110,41
408.78348,408.96707,57,110,41
408.97098,409.15457,57,110,41
409.15848,409.34207,57,110,41
409.34598,409.52957,57,110,41
409.53348,409.71707,56,115,41
409.72098,409.90457,56,115,41
409.90848,410.09207,56,115,41
410.09598,410.27957,56,115,41
410.28348,410.46707,56,115,41
410.47098,410.65457,56,115,41
410.65848,410.84207,56,115,41
410.84598,411.02957,56,115,41
411.03348,411.21707,56,120,41
411.22098,411.40457,56,120,41
411.40848,411.59207,56,120,41
411.59598,411.77957,56,120,41
411.78348,411.96707,56,120,41
411.97098,412.15457,56,120,41
412.15848,412.34207,56,120,41
412.34598,412.52957,56,120,41
412.53348,412.72058,56,120,41
412.72455,412.91165,56,120,41
412.91565,413.10275,56,120,41
413.10672,413.29382,56,120,41
413.29782,413.48856,56,120,41
413.4926,413.68335,56,120,41
413.6874,413.87817,56,120,41
413.88223,414.07297,56,120,41
414.07703,414.27286,56,120,41
414.27704,414.47287,56,114,41
414.47702,414.67285,56,107,41
414.67703,414.87286,56,100,41
414.877,415.2837,56,100,41
415.288,415.4378,65,95,41
415.49347,415.64328,63,92,41
415.69894,415.90875,61,89,41
415.91324,416.0695,60,86,41
416.1275,416.28375,58,84,41
416.3418,416.49805,56,81,41
416.5561,417.0059,54,78,41
419.19724,420.18683,60,50,41
420.19724,420.59308,61,70,41
426.31537,427.43646,56,70,41
427.44037,427.62787,58,70,41
427.62787,427.81537,56,70,41
427.81537,428.00287,54,70,41
428.00287,428.19037,56,70,41
428.19037,428.37787,53,70,41
428.37787,428.56537,51,70,41
428.56537,428.75287,53,70,41
428.75287,428.94037,51,70,41
428.94037,429.12787,49,70,41
429.12787,429.31537,51,70,41
429.31537,429.50287,53,70,41
429.50287,429.69037,54,70,41
429.69037,429.87787,56,70,41
429.87787,430.06537,58,70,41
430.06537,430.25287,56,70,41
430.25287,430.44037,58,70,41
430.44037,430.62787,60,70,41
430.62787,430.81537,61,70,41
430.81537,430.99896,60,70,41
431.00287,431.1396,63,70,41
431.19037,431.3271,54,70,41
431.37787,431.5146,54,70,41
431.56537,431.74896,54,70,41
431.75287,431.8896,56,70,41
431.94037,432.0771,51,70,41
432.12787,432.2646,51,70,41
432.31537,433.99896,53,70,41
434.00287,434.1396,60,70,41
434.19037,434.3271,51,70,41
434.37787,434.5146,51,70,41
434.56537,434.74896,51,70,41
434.75287,434.8896,53,70,41
434.94037,435.0771,48,70,41
435.12787,435.2646,48,70,41
435.31537,436.99896,49,70,41
437.00287,437.1396,48,70,41
437.19037,437.3271,48,70,41
437.37787,437.5146,48,70,41
437.56537,437.74896,48,70,41
437.75287,437.8896,49,70,41
437.94037,438.0771,49,70,41
438.12787,438.2646,49,70,41
438.31537,439.99896,49,70,41
440.00287,440.1396,48,70,41
440.19037,440.3271,48,70,41
440.37787,440.5146,48,70,41
440.56537,440.74896,48,70,41
440.75287,440.8896,49,70,41
440.94037,441.0771,49,70,41
441.12787,441.2646,49,72,41
441.31537,441.5112,49,74,41
441.51538,441.66122,48,76,41
441.7154,441.8612,49,79,41
441.91537,442.05743,49,81,41
442.1102,442.2985,49,83,41
442.3025,442.44272,48,85,41
442.4948,442.63153,49,88,41
442.6823,442.81903,49,90,41
442.8698,443.0534,49,92,41
443.0573,443.19403,48,95,41
443.2448,443.38153,49,97,41
443.4323,443.56903,49,99,41
443.6198,443.76,48,101,41
443.8121,443.95233,48,104,41
444.00443,444.15024,48,106,41
444.2044,444.36066,48,108,41
444.4187,445.1648,48,110,41
445.1687,445.2898,50,100,41
445.2937,445.4148,52,100,41
445.4187,445.5398,53,100,41
445.5437,445.6648,55,100,41
445.6687,445.7898,57,100,41
445.7937,445.9148,59,100,41
445.9187,446.6648,60,125,41
446.6687,446.7937,62,115,41
446.7937,446.9187,60,100,41
446.9187,447.0437,59,100,41
447.0437,447.1687,64,100,41
447.1687,447.2937,62,100,41
447.2937,447.4187,60,100,41
447.4187,448.1648,65,125,41
448.1687,448.2937,64,115,41
448.2937,448.4187,62,100,41
448.4187,448.5437,60,100,41
448.5437,448.6687,59,100,41
448.6687,448.7937,57,100,41
448.7937,448.9187,55,100,41
448.9187,449.1023,53,100,41
449.2937,449.4808,52,100,41
449.67587,449.8691,50,100,41
450.0706,450.2718,55,100,41
450.48157,450.68277,48,100,41
452.04636,453.5808,68,110,41
453.5848,455.11926,67,100,41
455.1233,456.65775,66,110,41
456.66174,458.14813,65,103,41
458.2002,460.11926,65,110,41
460.1233,460.50388,72,97,41
460.5079,460.8885,71,86,41
460.89252,461.2731,72,95,41
461.27713,461.6577,72,100,41
461.66174,462.04236,74,92,41
462.04636,462.42697,72,84,41
462.43097,462.81158,70,75,41
462.81558,463.96542,69,70,41
463.96942,464.35004,67,70,41
464.35403,464.92697,65,70,41
464.93097,465.11926,67,78,41
465.12326,465.50388,69,80,41
465.50787,465.6962,70,86,41
465.7002,465.8885,72,88,41
465.8925,466.56158,74,91,41
466.56558,466.6577,76,100,41
466.66174,466.72583,76,100,41
466.72583,466.78995,77,98,41
466.78995,466.85403,76,95,41
466.85403,466.91815,77,92,41
466.91815,466.98224,76,89,41
466.98224,467.04636,77,86,41
467.04636,467.11044,76,83,41
467.11044,467.17456,77,80,41
467.17456,467.23865,76,77,41
467.23865,467.3348,74,74,41
467.3348,467.43097,76,70,41
467.43097,467.81158,77,70,41
467.81558,468.1962,74,70,41
468.2002,468.5808,72,70,41
468.5848,468.96542,70,70,41
468.96942,470.11926,69,70,41
470.12326,470.50388,67,70,41
470.50787,470.8885,69,70,41
470.8925,471.0808,72,75,41
471.0848,471.2731,70,77,41
471.2771,471.6577,69,80,41
471.6617,471.85004,67,85,41
471.85403,472.04233,65,87,41
472.04636,472.42694,58,90,41
472.43097,472.81155,55,95,41
472.81558,473.19617,48,100,41
473.2002,473.58078,60,105,41
473.5848,473.96542,53,110,41
473.96942,474.35004,67,70,41
474.35403,474.73465,69,70,41
474.73865,475.11926,67,70,41
475.12326,475.50388,65,110,41
475.50787,475.8885,67,70,41
475.8925,476.2731,69,70,41
476.2771,476.6577,70,70,41
476.6617,477.04233,69,110,41
477.04633,477.42694,70,70,41
477.43094,477.81155,72,70,41
477.81555,478.19617,70,70,41
478.2002,478.58078,69,110,41
478.5848,478.9654,70,70,41
478.96942,479.35,72,70,41
479.35403,479.73465,70,70,41
479.73865,480.50388,69,70,41
480.50787,481.2731,70,78,41
481.2771,482.04233,72,87,41
482.04633,482.81155,74,96,41
482.81555,483.19617,67,70,41
484.35403,484.73462,69,70,41
485.8925,486.2731,52,70,41
487.43094,487.81155,57,70,41
487.43094,487.81155,53,70,41
488.58478,488.71298,65,70,41
488.71298,488.8412,64,70,41
488.8412,488.9694,62,70,41
488.9694,489.0976,60,70,41
489.0976,489.2258,62,70,41
489.2258,489.354,59,70,41
489.354,490.11923,55,70,41
490.12326,490.25146,65,70,41
490.25146,490.37967,64,70,41
490.37967,490.50787,62,70,41
490.50787,490.63608,60,70,41
490.63608,490.76428,62,70,41
490.76428,490.8925,59,70,41
490.8925,491.6577,55,70,41
491.6617,491.78992,65,70,41
491.78992,491.91812,64,70,41
491.91812,492.04633,62,70,41
492.04633,492.17453,60,70,41
492.17453,492.30273,62,70,41
492.30273,492.43094,59,71,41
492.43094,492.5311,55,71,41
492.55914,492.6593,59,72,41
492.68735,492.7875,62,73,41
492.81555,492.9157,65,73,41
492.94376,493.0439,67,74,41
493.07196,493.17212,71,75,41
498.20016,498.32437,60,110,41
498.32837,498.45258,58,110,41
498.45657,498.58078,57,110,41
498.58478,498.70898,55,110,41
498.71298,498.8372,57,110,41
498.8412,498.9654,53,110,41
498.9694,499.06955,57,110,41
499.0976,499.19775,60,110,41
499.2258,499.32596,67,110,41
499.354,499.45416,60,110,41
499.4822,499.58237,65,110,41
499.6104,499.71057,69,110,41
499.73862,499.83878,65,110,41
499.86682,499.96698,69,110,41
499.99503,500.09518,72,110,41
500.12323,500.2247,69,110,41
500.2531,500.35455,65,110,41
500.38297,500.48444,60,110,41
500.51285,500.617,57,110,41
500.64618,500.75034,65,110,41
500.7795,500.88367,60,110,41
500.91284,501.01987,57,110,41
501.04984,501.1585,60,100,41
501.18976,501.30136,53,90,41
502.10184,502.86707,66,70,41
505.17877,505.94397,66,70,41
508.25568,508.82858,69,110,41
509.0249,509.62076,55,110,41
509.0249,509.62076,67,110,41
509.82492,510.46332,64,110,41
509.82492,510.46332,76,110,41
510.68207,512.17816,64,70,41
512.18207,513.30316,67,70,41
513.30707,513.67816,64,70,41
513.68207,514.05316,65,70,41
514.05707,514.42816,67,70,41
514.43207,514.80316,69,70,41
514.80707,515.17816,70,70,41
515.18207,516.30316,67,70,41
516.30707,516.67816,64,75,41
516.68207,516.86566,65,76,41
516.86957,517.0063,67,77,41
517.05707,517.1938,65,78,41
517.24457,517.3813,67,79,41
517.43207,517.61566,69,80,41
517.61957,517.7563,70,81,41
517.80707,517.9438,69,82,41
517.99457,518.1313,70,83,41
518.18207,518.36566,67,83,41
518.36957,518.5063,69,84,41
518.55707,518.6938,67,85,41
518.74457,518.8813,69,86,41
518.93207,519.11566,70,87,41
519.11957,519.2563,72,88,41
519.30707,519.4438,70,89,41
519.49457,519.6313,72,90,41
519.68207,519.86566,69,90,41
519.86957,520.0063,72,91,41
520.05707,520.1938,69,92,41
520.24457,520.3813,72,93,41
520.43207,520.5688,72,94,41
520.61957,520.7563,72,95,41
520.80707,520.9438,72,96,41
520.99457,521.1313,72,97,41
521.18207,521.3188,72,97,41
521.36957,521.5063,72,98,41
521.55707,521.6938,72,99,41
521.74457,521.8813,72,100,41
521.93207,522.11566,74,101,41
522.11957,522.2563,76,102,41
522.30707,522.4438,74,103,41
522.49457,522.6313,76,104,41
522.68207,522.86566,77,104,41
522.86957,523.0063,69,105,41
523.05707,523.1938,69,106,41
523.24457,523.3813,67,107,41
523.43207,523.5688,69,108,41
523.61957,523.7563,67,109,41
523.80707,523.9438,69,110,41
523.99457,524.1313,67,110,41
524.18207,524.3188,69,110,41
524.36957,524.5063,69,110,41
524.55707,524.6964,65,110,41
524.7481,524.88745,60,110,41
524.9392,525.0831,57,110,41
525.1366,525.2805,69,110,41
525.334,525.48376,65,110,41
525.5394,525.6957,60,110,41
525.7537,526.1248,57,120,41
526.1287,526.4998,55,120,41
526.5037,526.8748,58,120,41
526.8787,527.2498,57,120,41
527.2537,528.3748,57,120,41
528.3787,528.51544,52,120,41
528.5662,528.70294,53,120,41
528.7537,528.9373,50,120,41
528.9412,529.07794,52,120,41
529.1287,529.26544,53,120,41
529.3162,529.45294,52,120,41
529.5037,529.8748,53,120,41
529.8787,530.2498,58,120,41
530.2537,531.7498,53,120,41
531.7537,532.1248,50,120,41
532.1287,532.4998,55,120,41
532.5037,532.8748,55,120,41
532.8787,533.2498,55,120,41
533.2537,534.3748,55,120,41
534.3787,534.51544,55,120,41
534.3787,534.51544,53,120,41
534.5662,534.70294,53,120,41
534.5662,534.70294,55,120,41
534.7537,534.9373,52,120,41
534.7537,534.9373,55,120,41
534.9412,535.07794,55,120,41
535.1287,535.26544,60,120,41
535.3162,535.45294,58,120,41
535.5037,535.8748,58,120,41
535.8787,536.2498,57,120,41
536.2537,537.3748,58,120,41
537.3787,537.51544,67,120,41
537.5662,537.70294,69,120,41
537.7537,537.9373,70,120,41
537.9412,538.07794,69,120,41
538.1287,538.26544,67,120,41
538.3162,538.45294,65,120,41
538.5037,538.8748,64,120,41
538.8787,539.2498,62,120,41
539.2537,543.47437,64,120,41
543.5221,543.67834,69,79,41
543.7364,543.89264,67,77,41
543.9507,544.1667,65,76,41
544.17126,544.3321,64,75,41
544.39185,544.5601,62,73,41
544.6226,544.7909,60,72,41
544.8534,545.22314,58,71,41
545.3534,545.4992,57,70,41
545.5534,545.6992,55,70,41
545.75336,545.9417,53,70,41
545.9457,546.08594,52,70,41
546.138,546.2747,50,70,41
546.3255,546.4622,48,70,41
546.513,546.8841,48,70,41
546.888,547.2591,48,70,41
547.263,548.7591,53,110,41
548.763,550.2122,53,110,41
550.263,551.0091,60,70,41
551.013,551.3841,57,70,41
551.388,551.7591,53,70,41
551.763,552.3251,52,70,41
552.3291,552.5162,55,70,41
552.52014,552.71344,58,70,41
552.7175,552.91077,55,70,41
552.9149,553.1161,52,70,41
553.12036,553.3302,48,70,41
553.33466,554.83075,53,110,41
554.83466,556.33075,56,110,41
556.33466,556.70575,57,70,41
558.70966,558.83075,53,70,41
558.83466,558.95575,52,70,41
558.95966,559.08075,57,70,41
559.08466,559.20575,53,70,41
559.20966,559.33075,50,70,41
559.33466,559.70575,48,70,41
559.70966,560.45575,58,110,41
561.70966,561.83075,55,70,41
561.83466,561.95575,52,70,41
561.95966,562.08075,58,70,41
562.08466,562.20575,55,70,41
562.20966,562.33075,52,70,41
562.33466,562.70575,48,70,41
562.70966,563.45575,60,110,41
563.83466,565.70575,48,70,41
565.70966,566.08075,50,70,41
566.08466,566.45575,52,70,41
566.45966,566.83075,53,70,41
566.83466,568.70575,48,70,41
568.70966,569.08075,52,70,41
569.08466,569.45575,53,70,41
569.45966,569.83075,55,70,41
569.83466,571.70575,48,70,41
572.83466,572.95575,65,80,41
572.95966,573.08075,69,81,41
573.08466,573.20575,65,81,41
573.20966,573.33075,72,82,41
573.33466,573.45575,69,83,41
573.45966,573.58075,65,84,41
573.58466,573.70575,60,85,41
573.70966,573.83075,65,86,41
573.83466,573.95575,60,87,41
573.95966,574.08075,69,87,41
574.08466,574.20575,65,88,41
574.20966,574.33075,60,89,41
574.33466,574.70575,58,90,41
575.83466,575.95575,58,100,41
575.95966,576.08075,64,101,41
576.08466,576.20575,58,102,41
576.20966,576.33075,67,103,41
576.33466,576.45575,64,104,41
576.45966,576.58075,58,104,41
576.58466,576.70575,55,105,41
576.70966,576.83075,58,106,41
576.83466,576.95575,55,107,41
576.95966,577.08075,64,108,41
577.08466,577.20575,58,109,41
577.20966,577.33075,55,110,41
577.33466,577.45575,57,110,41
577.45966,577.58075,72,110,41
577.58466,577.70575,69,110,41
577.70966,577.83075,65,110,41
577.83466,577.95575,69,110,41
577.95966,578.08075,65,110,41
578.08466,578.20575,60,110,41
578.20966,578.33075,65,110,41
578.33466,578.45575,60,110,41
578.45966,578.58075,57,110,41
578.58466,578.70575,60,110,41
578.70966,578.83075,57,110,41
578.83466,578.95575,55,110,41
578.95966,579.08075,70,110,41
579.08466,579.20575,67,110,41
579.20966,579.33075,64,110,41
579.33466,579.45575,67,110,41
579.45966,579.58075,64,110,41
579.58466,579.70575,58,110,41
579.70966,579.83075,64,110,41
579.83466,579.95575,58,110,41
579.95966,580.08075,55,110,41
580.08466,580.20575,58,110,41
580.20966,580.33075,58,110,41
580.33466,580.45575,48,120,41
580.33466,580.45575,58,120,41
580.45966,580.58075,48,120,41
580.45966,580.58075,58,120,41
580.58466,580.70575,48,120,41
580.58466,580.70575,58,120,41
580.70966,580.83075,48,120,41
580.70966,580.83075,58,120,41
580.83466,580.95575,48,120,41
580.83466,580.95575,58,120,41
580.95966,581.08075,48,120,41
580.95966,581.08075,58,120,41
581.08466,581.20575,48,120,41
581.08466,581.20575,58,120,41
581.20966,581.33075,48,120,41
581.20966,581.33075,58,120,41
581.33466,581.45575,48,120,41
581.33466,581.45575,58,120,41
581.45966,581.58075,48,120,41
581.45966,581.58075,58,120,41
581.58466,581.70575,48,120,41
581.58466,581.70575,58,120,41
581.70966,581.83075,48,120,41
581.70966,581.83075,58,120,41
581.83466,584.896,48,115,41
581.83466,584.896,58,115,41
584.9158,586.43085,48,70,41
584.9158,586.43085,57,70,41
586.43475,587.93396,48,110,41
586.43475,587.93396,58,110,41
587.95374,589.4688,48,70,41
587.95374,589.4688,57,70,41
589.4727,590.9719,48,110,41
589.4727,590.9719,58,110,41
590.9917,595.5925,48,100,41
590.9917,595.5925,57,100,41
595.6134,596.2092,48,60,41
595.6134,596.2092,57,60,41
596.4134,597.05176,48,55,41
596.4134,597.05176,57,55,41
597.2705,598.8664,48,50,41
597.2705,598.8664,57,50,41
598.87054,599.4664,65,50,41
599.67053,600.3089,65,50,41
600.52765,602.2375,65,50,41
602.24194,603.9518,67,110,41
603.95624,604.2732,69,110,41
604.81335,605.18317,48,120,41
604.81335,605.18317,60,120,41
605.81335,606.30817,53,120,41
0.0,0.37109375,48,100,42
0.375,0.74609375,50,100,42
0.75,1.1210938,52,100,42
1.125,1.4960938,53,100,42
1.5,2.6210938,48,100,42
2.625,2.8085938,50,100,42
2.8125,2.9960938,48,100,42
3.0,3.1835938,46,100,42
3.1875,3.3242188,48,100,42
3.375,3.5117188,45,100,42
3.5625,3.6992188,43,100,42
3.75,4.1210938,41,100,42
4.125,4.4960938,50,100,42
4.5,5.9960938,48,100,42
6.0,6.3710938,50,100,42
6.375,6.7460938,52,100,42
6.75,7.1210938,53,100,42
7.125,7.4960938,55,100,42
7.5,8.621094,53,100,42
8.625,8.808594,52,100,42
8.8125,8.996094,50,100,42
9.0,9.183594,48,100,42
9.1875,9.324219,50,100,42
9.375,9.511719,52,100,42
9.5625,9.699219,53,100,42
9.75,10.121094,55,100,42
10.125,10.496094,57,100,42
10.5,11.996094,55,100,42
12.0,12.183594,55,70,42
12.1875,12.371094,55,70,42
12.375,12.558594,55,70,42
12.5625,12.746094,55,70,42
12.75,12.933594,55,70,42
12.9375,13.121094,55,70,42
13.125,13.308594,55,70,42
13.3125,13.496094,55,70,42
13.5,13.683594,55,70,42
13.6875,13.871094,55,70,42
13.875,14.058594,55,70,42
14.0625,14.246094,55,70,42
14.25,14.433594,55,70,42
14.4375,14.621094,55,70,42
14.625,14.808594,55,70,42
14.8125,14.996094,55,70,42
15.0,15.183594,55,70,42
15.1875,15.371094,55,70,42
15.375,15.558594,55,70,42
15.5625,15.746094,55,70,42
15.75,15.933594,55,70,42
15.9375,16.121094,55,70,42
16.125,16.308594,55,70,42
16.3125,16.496094,55,70,42
16.5,16.683594,55,70,42
16.6875,16.871094,55,70,42
16.875,17.058594,55,70,42
17.0625,17.246094,55,70,42
17.25,17.433594,55,70,42
17.4375,17.621094,55,70,42
17.625,17.808594,55,70,42
17.8125,17.996094,55,70,42
18.0,18.183594,55,70,42
18.1875,18.371094,55,71,42
18.375,18.558594,55,72,42
18.5625,18.746094,55,73,42
18.75,18.933594,55,75,42
18.9375,19.121094,55,76,42
19.125,19.308594,55,77,42
19.3125,19.496094,55,79,42
19.5,19.683594,55,80,42
19.6875,19.871094,55,81,42
19.875,20.058594,55,83,42
20.0625,20.246094,55,84,42
20.25,20.433594,55,85,42
20.4375,20.621094,55,86,42
20.625,20.808594,55,88,42
20.8125,20.996094,55,89,42
21.0,21.183594,55,90,42
21.1875,21.371094,55,92,42
21.375,21.558594,55,93,42
21.5625,21.746094,55,94,42
21.75,21.933594,55,96,42
21.9375,22.121094,55,97,42
22.125,22.308594,55,98,42
22.3125,22.496094,55,99,42
22.5,22.683594,55,100,42
22.6875,22.871094,55,100,42
22.875,23.058594,55,100,42
23.0625,23.246094,55,100,42
23.25,23.433594,55,100,42
23.4375,23.621094,55,100,42
23.625,23.808594,55,100,42
23.8125,23.996094,55,100,42
24.0,24.183594,48,100,42
24.0,24.183594,55,100,42
24.1875,24.371094,48,100,42
24.1875,24.371094,55,100,42
24.375,24.558594,48,100,42
24.375,24.558594,55,100,42
24.5625,24.746094,48,100,42
24.5625,24.746094,55,100,42
24.75,24.933594,48,100,42
24.75,24.933594,55,100,42
24.9375,25.121094,48,100,42
24.9375,25.121094,55,100,42
25.125,25.308594,48,100,42
25.125,25.308594,55,100,42
25.3125,25.496094,48,100,42
25.3125,25.496094,55,100,42
25.5,25.688301,36,110,42
25.5,25.688301,48,110,42
25.692308,25.88061,36,110,42
25.692308,25.88061,48,110,42
25.884615,26.072916,36,110,42
25.884615,26.072916,48,110,42
26.076923,26.265224,36,110,42
26.076923,26.265224,48,110,42
26.26923,26.465063,36,110,42
26.26923,26.465063,48,110,42
26.46923,26.665064,36,110,42
26.46923,26.665064,48,110,42
26.66923,26.870428,36,110,42
26.66923,26.870428,48,110,42
26.874708,27.08453,36,110,42
26.874708,27.08453,48,110,42
27.088995,28.284828,41,120,42
28.288994,28.684828,45,120,42
28.688995,28.838823,46,120,42
29.099953,29.24978,50,120,42
29.51091,30.328547,48,120,42
31.976658,32.130707,46,70,42
32.399193,32.55324,50,70,42
32.821728,33.662395,50,70,42
33.666798,34.507465,52,70,42
34.511868,35.430138,48,70,42
35.434944,35.57517,49,70,42
35.81956,35.959785,52,70,42
36.204174,36.9694,53,70,42
36.973404,37.769238,56,70,42
37.773403,38.626083,53,70,42
38.630547,38.786797,55,70,42
39.059116,39.215366,58,70,42
39.48769,40.340366,57,110,42
40.34483,41.19751,60,110,42
41.201973,42.05465,59,110,42
42.059116,42.911793,58,110,42
42.916256,45.438576,55,110,42
45.487682,51.483776,41,70,42
51.487682,52.608776,57,70,42
52.612682,52.796276,58,70,42
52.800182,52.983776,57,70,42
52.987682,53.171276,55,70,42
53.175182,53.358776,57,70,42
53.362682,53.546276,53,70,42
53.550182,53.733776,48,70,42
53.737682,53.921276,53,70,42
53.925182,54.108776,48,70,42
54.112682,54.296276,45,70,42
54.300182,54.483776,48,70,42
54.487682,54.671276,53,70,42
54.675182,54.858776,55,70,42
54.862682,55.046276,57,70,42
55.050182,55.233776,58,70,42
55.237682,55.421276,57,70,42
55.425182,55.608776,58,70,42
55.612682,55.796276,55,70,42
55.800182,55.983776,57,70,42
55.987682,56.171276,55,70,42
56.175182,56.3119,58,70,42
56.362682,56.4994,55,70,42
56.550182,56.6869,55,70,42
56.737682,56.921276,55,70,42
56.925182,57.0619,57,70,42
57.112682,57.2494,52,70,42
57.300182,57.4369,52,70,42
57.487682,57.858776,53,70,42
57.862682,58.233776,55,70,42
58.237682,58.608776,57,70,42
58.612682,58.983776,58,100,42
58.987682,60.483776,55,70,42
60.487682,60.858776,57,70,42
60.862682,61.233776,58,70,42
61.237682,61.608776,60,70,42
61.612682,61.983776,62,100,42
61.987682,63.483776,58,70,42
63.487682,63.858776,60,70,42
63.862682,64.23378,62,70,42
64.237686,64.60878,64,70,42
64.612686,64.98378,65,70,42
64.987686,65.35878,62,70,42
65.362686,65.73378,64,70,42
65.737686,66.10878,65,70,42
66.112686,66.85878,67,70,42
67.612686,68.35878,53,80,42
68.362686,68.73378,52,87,42
68.737686,69.10878,50,90,42
69.112686,70.23378,62,93,42
70.237686,70.35878,60,104,42
70.362686,70.48378,59,105,42
70.487686,70.60878,57,106,42
70.612686,70.73378,55,107,42
70.737686,70.85878,54,108,42
70.862686,70.98378,52,109,42
70.987686,71.11188,50,110,42
71.11589,71.24009,48,110,42
71.244095,71.36829,47,110,42
71.3723,71.4965,45,110,42
71.5005,71.6247,43,110,42
71.62871,71.75291,42,110,42
71.75691,71.88608,40,110,42
71.89024,72.01941,38,110,42
72.02358,72.15275,37,110,42
72.15691,72.2953,38,110,42
72.29977,72.43816,50,110,42
72.44263,72.58102,50,110,42
72.58548,73.38132,43,120,42
73.38548,73.51465,45,120,42
73.518814,73.64407,47,120,42
73.64798,73.76907,48,120,42
73.77298,73.89407,50,120,42
73.89798,74.01907,52,120,42
74.02298,74.14407,54,120,42
74.14798,74.89407,55,120,42
74.89798,75.01907,57,120,42
75.02298,75.14407,55,120,42
75.14798,75.26907,54,120,42
75.27298,75.39407,59,120,42
75.39798,75.51907,57,120,42
75.52298,75.64407,55,120,42
75.64798,76.39407,60,115,42
76.39798,76.51907,59,107,42
76.52298,76.64407,57,106,42
76.64798,76.76907,55,105,42
76.77298,76.89407,54,103,42
76.89798,77.01907,52,102,42
77.02298,77.14407,50,101,42
77.14798,77.33157,48,100,42
77.52298,77.70657,47,100,42
77.89798,78.09382,45,100,42
78.29798,78.507805,50,100,42
78.726555,78.93638,43,100,42
80.28013,81.73716,60,100,42
81.78013,83.27622,59,70,42
83.28013,84.73716,58,100,42
84.78013,86.27622,57,70,42
86.28013,87.73716,56,110,42
87.78013,89.27622,55,70,42
89.28013,90.40122,43,70,42
90.40513,90.58872,45,70,42
90.59263,90.77622,47,70,42
90.78013,93.21372,48,70,42
93.21763,93.40122,47,70,42
93.40513,93.58872,45,70,42
93.59263,93.77622,43,70,42
93.78013,94.15122,41,70,42
94.15513,94.52622,40,70,42
94.53013,94.910736,38,70,42
94.91474,95.31058,43,70,42
95.31474,95.68584,36,70,42
95.68974,96.06084,53,70,42
96.06474,96.43584,55,70,42
96.43974,96.81084,59,70,42
96.81474,99.43584,60,70,42
99.43974,99.62334,62,85,42
99.62724,99.81084,64,87,42
99.81474,100.18584,65,90,42
100.18974,100.56084,64,95,42
100.56474,100.94535,62,100,42
100.949356,101.35918,67,105,42
101.36364,101.55194,60,110,42
104.05595,104.436554,62,100,42
104.44056,104.82117,60,100,42
104.82517,105.20579,62,70,42
105.20979,105.5904,64,70,42
105.594406,105.97501,62,70,42
105.97902,106.36457,60,100,42
106.36863,106.75418,62,70,42
106.75824,107.154076,64,70,42
107.15824,107.57354,62,70,42
107.578,108.387184,60,70,42
108.39119,109.15642,62,78,42
109.16042,109.925644,64,87,42
109.92965,111.131065,65,96,42
112.28892,112.669525,64,70,42
113.82738,114.207985,53,70,42
115.36584,115.746445,52,70,42
116.9043,123.05413,45,70,42
116.9043,123.05413,54,70,42
123.058136,126.13105,43,81,42
123.058136,126.13105,53,81,42
126.135056,126.259254,43,120,42
126.26326,126.38746,41,120,42
126.391464,126.51566,40,120,42
126.51967,126.64387,38,120,42
126.64787,126.77207,40,120,42
126.77608,126.900276,36,120,42
126.90428,127.00445,40,120,42
127.032486,127.13265,43,120,42
127.1607,127.26086,48,120,42
127.2889,127.38906,52,120,42
127.41711,127.517265,55,120,42
127.54531,127.64547,60,120,42
127.673515,127.773674,48,120,42
127.80172,127.90188,52,120,42
127.929924,128.03009,55,120,42
128.05814,128.18233,52,120,42
128.18634,128.31053,48,120,42
128.31454,128.43874,43,120,42
128.44275,128.57191,40,120,42
128.57608,128.70525,36,120,42
128.70941,128.83858,48,120,42
128.84274,128.97919,48,110,42
128.9836,129.12613,48,95,42
129.13094,129.27997,48,80,42
130.07425,130.85962,57,70,42
131.6532,132.43855,43,70,42
133.23215,134.0175,57,70,42
134.81108,135.59645,43,70,42
136.39003,136.97803,57,110,42
137.1795,137.78339,50,110,42
137.99031,138.62871,44,110,42
138.84746,141.92036,43,70,42
141.92438,148.26651,36,70,42
141.92438,148.26651,43,70,42
148.27052,148.41075,45,70,42
148.46283,148.60306,43,70,42
148.65514,148.79536,45,70,42
148.84744,149.03575,47,70,42
149.03975,149.17998,48,70,42
149.23206,149.37228,47,70,42
149.42436,149.56459,48,70,42
149.61667,151.15112,46,70,42
151.15514,152.67017,45,70,42
152.67412,154.18915,46,70,42
154.1931,155.32838,45,70,42
155.33234,155.70813,46,84,42
155.71208,156.6575,45,89,42
156.66145,156.7999,46,100,42
156.85132,156.99336,45,100,42
157.04613,157.19196,46,100,42
157.24612,157.61722,48,100,42
157.62112,157.99222,50,100,42
157.99612,158.36722,52,100,42
158.37112,158.74222,53,100,42
158.74612,159.86722,48,100,42
159.87112,160.05472,50,100,42
160.05862,160.24222,48,100,42
160.24612,160.42972,46,100,42
160.43362,160.57034,48,100,42
160.62112,160.75784,45,100,42
160.80862,160.94534,43,100,42
160.99612,161.36722,41,100,42
161.37112,161.74222,50,100,42
161.74612,163.24222,48,100,42
163.24612,163.42972,48,70,42
163.43362,163.57034,50,74,42
163.62112,163.75784,48,78,42
163.80862,163.94534,50,83,42
163.99612,164.17972,52,87,42
164.18362,164.32034,53,92,42
164.37112,164.50784,52,96,42
164.55862,164.69534,53,100,42
164.74612,169.29056,54,110,42
169.29503,170.79112,53,110,42
170.79503,171.16612,46,101,42
173.79503,173.92003,46,110,42
173.92003,174.04503,50,110,42
174.04503,174.17003,53,110,42
174.17003,174.29503,58,110,42
174.29503,174.42003,62,110,42
174.42003,174.54503,58,110,42
174.54503,174.67003,53,110,42
174.67003,174.79503,58,110,42
174.79503,174.92003,53,110,42
174.92003,175.04503,50,110,42
175.04503,175.17003,53,97,42
175.17003,175.29503,50,83,42
175.29503,175.66612,46,70,42
179.79503,179.91612,45,110,42
179.92003,180.04112,48,110,42
180.04503,180.16612,54,110,42
180.17003,180.29112,57,110,42
180.29503,180.41612,60,110,42
180.42003,180.54112,57,110,42
180.54503,180.66612,54,110,42
180.67003,180.79112,57,110,42
180.79503,180.91612,54,110,42
180.92003,181.04112,48,110,42
181.04503,181.16612,54,97,42
181.17003,181.29112,48,83,42
181.29503,181.66612,45,70,42
182.79503,182.91612,43,70,42
182.92003,183.04112,46,70,42
183.04503,183.16612,50,70,42
183.17003,183.29112,55,70,42
183.29503,183.41612,58,70,42
183.42003,183.54112,55,70,42
183.54503,183.66612,50,70,42
183.67003,183.79112,55,70,42
183.79503,183.91612,50,70,42
183.92003,184.04112,46,70,42
184.04503,184.16612,50,70,42
184.17003,184.29112,46,70,42
184.29503,184.66612,43,70,42
185.79503,186.16612,55,78,42
186.17003,186.54112,57,82,42
186.54503,186.91612,58,86,42
186.92003,187.29112,60,90,42
187.29503,188.41612,58,94,42
188.42003,188.55675,60,106,42
188.60753,188.74425,58,108,42
188.79503,188.97862,57,110,42
188.98253,189.11925,58,110,42
189.17003,189.30675,55,110,42
189.35753,189.49425,53,110,42
189.54503,189.91612,52,110,42
189.92003,190.05675,64,110,42
190.10753,190.24425,62,110,42
190.29503,190.48253,61,110,42
190.48253,190.61925,62,110,42
190.67003,190.80675,58,110,42
190.85753,190.99425,57,110,42
191.04503,191.41612,55,110,42
191.42003,191.55675,40,110,42
191.60753,191.74425,41,110,42
191.79503,192.16165,43,110,42
194.72643,194.90555,61,100,42
194.90935,195.04274,64,70,42
195.09229,195.22566,58,70,42
195.2752,195.40858,57,70,42
195.45813,195.63725,55,70,42
195.64105,195.77444,58,70,42
195.82399,195.95737,52,70,42
196.00691,196.14029,50,70,42
196.18983,196.36896,49,70,42
196.37276,196.50615,52,70,42
196.5557,196.68907,46,70,42
196.73862,196.872,45,70,42
196.92154,197.10066,43,70,42
197.10448,197.23785,46,70,42
197.2874,197.42078,40,70,42
197.47032,197.60371,45,70,42
197.65324,198.01529,41,100,42
200.58008,200.75919,62,100,42
200.763,200.89638,65,70,42
200.94592,201.07932,57,70,42
201.12886,201.26224,55,70,42
201.31178,201.49089,53,70,42
201.4947,201.6281,57,70,42
201.67763,201.81102,50,70,42
201.86057,201.99394,49,70,42
202.04349,202.2226,48,70,42
202.22641,202.3598,51,70,42
202.40933,202.54272,45,70,42
202.59227,202.72565,43,70,42
202.77519,202.9543,42,70,42
202.95811,203.0915,45,70,42
203.14105,203.27443,39,70,42
203.32397,203.45735,38,70,42
203.5069,203.86894,36,100,42
206.43372,206.61284,60,100,42
206.61665,206.75003,63,70,42
206.79958,206.93295,57,70,42
206.9825,207.11589,55,70,42
207.16542,207.34454,54,70,42
207.34836,207.48174,57,70,42
207.53128,207.66466,51,70,42
207.7142,207.8476,50,70,42
207.89714,208.07625,48,70,42
208.08006,208.21344,51,70,42
208.26299,208.39638,45,70,42
208.4459,208.5793,43,70,42
208.62885,208.80795,42,70,42
208.81177,208.94514,45,70,42
208.99469,209.12808,36,70,42
209.17761,209.311,48,70,42
209.36055,209.7226,46,100,42
211.55566,211.73479,46,70,42
211.92152,212.0549,63,70,42
212.10445,212.23782,62,72,42
212.28737,212.46649,63,74,42
212.47029,212.60368,67,77,42
212.65323,212.7866,58,79,42
212.83615,212.96953,56,82,42
213.01907,213.1982,55,84,42
213.202,213.33539,58,86,42
213.38493,213.51831,51,89,42
213.56786,213.70123,50,91,42
213.75078,213.9299,51,94,42
213.93372,214.0671,55,96,42
214.11664,214.25002,46,98,42
214.29956,214.43295,44,101,42
214.48248,214.6616,43,103,42
214.66542,214.7988,46,106,42
214.84834,214.98172,39,108,42
215.03127,215.16466,38,110,42
215.21419,215.39331,39,120,42
215.39713,215.5305,43,120,42
215.58005,215.71342,46,120,42
215.76297,215.89636,44,120,42
215.9459,216.07928,43,120,42
216.12883,216.2622,46,120,42
216.31175,216.44513,51,120,42
216.49467,216.62807,55,120,42
216.67761,216.81099,58,120,42
216.86053,217.03964,63,120,42
217.04346,217.22705,58,120,42
217.23096,217.41455,55,120,42
217.41846,217.60677,51,120,42
217.61076,217.79907,46,120,42
217.80307,217.9989,43,110,42
218.00307,218.21289,43,90,42
220.46736,221.02596,44,70,42
223.46736,224.02596,44,70,42
226.46736,227.02596,42,70,42
227.96736,228.52596,53,110,42
228.71736,229.29028,46,110,42
229.48659,230.12498,41,110,42
230.34373,239.21175,40,70,42
239.21556,245.0654,41,70,42
245.06921,247.99222,42,70,42
247.99603,250.91905,44,70,42
250.92285,252.38246,46,70,42
252.38626,255.30928,48,70,42
255.3131,255.67514,48,70,42
255.67894,256.041,49,70,42
256.0448,256.40683,51,70,42
256.41064,256.7727,53,70,42
256.7765,258.2361,49,70,42
258.23993,258.60196,48,70,42
258.60577,258.9678,49,72,42
258.97162,259.33368,51,75,42
259.33746,259.69952,53,78,42
259.70334,260.7971,49,80,42
260.80087,261.16293,56,88,42
261.16675,261.52878,53,91,42
261.5326,261.89462,54,94,42
261.89844,262.2605,56,96,42
262.2643,262.62634,58,99,42
262.63016,263.7239,56,110,42
263.72772,263.90683,54,110,42
263.91064,264.08975,53,110,42
264.09357,264.4556,51,110,42
264.4594,265.18732,56,110,42
265.19113,265.55316,54,100,42
265.55698,267.01657,53,70,42
267.0204,268.47998,54,110,42
268.4838,271.3687,56,110,42
271.4106,272.87024,61,70,42
272.87402,273.23608,56,70,42
273.2399,273.60193,54,70,42
273.60574,273.96777,53,70,42
273.9716,274.1507,51,70,42
274.1545,274.33365,56,70,42
274.33746,275.43118,56,70,42
275.435,276.1629,44,83,42
276.16672,276.52875,42,91,42
276.53256,276.89462,41,97,42
276.8984,277.07755,39,104,42
277.08136,277.26047,44,107,42
277.26428,277.6263,46,110,42
298.48373,299.94336,46,50,42
299.94714,300.67505,45,50,42
300.67886,300.94943,46,50,42
301.0447,301.3153,41,50,42
301.41058,302.87018,49,50,42
302.874,303.96774,48,63,42
303.97153,304.15067,46,83,42
304.15448,304.3336,44,87,42
304.3374,304.69943,43,90,42
304.70325,305.06528,48,97,42
305.0691,305.24823,41,110,42
305.252,305.3854,43,110,42
305.43497,305.56833,41,110,42
305.6179,305.75125,43,110,42
305.8008,305.97992,44,110,42
305.98373,306.11713,46,110,42
306.16666,306.30005,44,110,42
306.34958,306.48297,46,110,42
306.5325,306.71164,43,110,42
306.71545,306.84882,44,110,42
306.89838,307.03174,43,110,42
307.0813,307.2147,44,110,42
307.26422,307.44333,46,110,42
307.44714,307.58054,48,110,42
307.63007,307.76346,46,110,42
307.813,307.94638,48,110,42
307.9959,308.17505,44,110,42
308.17886,308.31223,46,110,42
308.3618,308.49515,44,110,42
308.5447,308.6781,46,110,42
308.72763,308.90674,48,110,42
308.91055,309.04395,49,110,42
309.09348,309.22687,48,110,42
309.2764,309.4098,49,110,42
309.45935,309.63846,46,110,42
309.64227,309.77563,48,110,42
309.8252,309.9586,46,110,42
310.00812,310.1415,48,110,42
310.19104,310.37015,49,110,42
310.37396,310.50735,51,110,42
310.5569,310.69028,49,110,42
310.7398,310.8732,51,110,42
310.92276,311.10187,48,110,42
311.10568,311.23904,49,110,42
311.2886,311.422,48,110,42
311.47153,311.60492,49,110,42
311.65445,311.83356,51,110,42
311.83737,311.97076,53,110,42
312.0203,312.1537,51,110,42
312.20325,312.3366,53,110,42
312.38617,312.56528,50,110,42
312.5691,312.70248,51,110,42
312.752,312.8854,50,110,42
312.93494,313.06833,51,110,42
313.11786,313.297,53,110,42
313.30078,313.43417,55,110,42
313.48373,313.6171,53,110,42
313.66666,313.80002,55,110,42
313.84958,314.0287,52,110,42
314.0325,314.1659,53,110,42
314.21542,314.34882,52,110,42
314.39835,314.53174,53,110,42
314.58127,314.7604,55,110,42
314.7642,314.89758,56,110,42
314.94714,315.0805,55,110,42
315.13007,315.26343,56,110,42
315.313,321.5287,53,110,42
322.9959,323.7238,53,84,42
323.7276,324.4555,50,81,42
324.45932,325.1872,47,78,42
325.191,325.9189,44,75,42
325.92273,326.6506,43,72,42
326.65442,327.01648,43,70,42
327.0203,332.87012,43,70,42
332.87393,333.23596,48,70,42
334.33734,334.69937,60,70,42
335.80075,336.16278,55,70,42
336.1666,336.52866,57,70,42
336.53247,336.8945,58,70,42
336.89832,337.26035,60,70,42
337.26416,338.3579,58,70,42
338.36172,338.72375,55,70,42
338.72757,339.08963,50,70,42
339.0934,339.45547,52,70,42
339.4593,339.82132,54,70,42
339.82513,340.18716,55,70,42
340.19098,341.3216,53,70,42
341.3256,341.7062,50,70,42
343.5395,343.66144,52,70,42
343.66144,343.7834,50,70,42
343.7834,343.90533,48,70,42
343.90533,344.02728,47,70,42
344.02728,344.14923,48,70,42
344.14923,344.27118,45,70,42
344.27118,344.99908,52,70,42
345.0029,345.36493,54,70,42
345.36874,345.7308,56,70,42
345.7346,346.09665,57,70,42
346.10046,347.1942,55,70,42
347.19803,347.56006,52,70,42
349.39313,349.51508,43,70,42
349.51508,349.63702,41,70,42
349.63702,349.75897,40,70,42
349.75897,349.88092,38,70,42
349.88092,350.0029,40,70,42
350.0029,350.12485,36,70,42
350.12485,350.85272,48,70,42
351.9541,352.07224,43,70,42
352.07605,352.19418,41,70,42
352.198,352.31613,40,70,42
352.31995,352.4381,38,70,42
352.4419,352.56006,40,70,42
352.56384,352.682,36,70,42
352.68582,352.80396,48,70,42
352.80777,352.9259,48,70,42
352.92972,353.04785,48,70,42
353.05167,353.1698,48,70,42
353.1736,353.29175,48,70,42
353.29556,353.4137,48,70,42
353.4175,358.54922,48,60,42
358.55313,358.94125,60,60,42
358.94543,359.37344,60,60,42
359.37817,359.74927,60,60,42
362.37817,363.49927,57,110,42
363.50317,363.87427,57,110,42
363.87817,364.0149,58,110,42
364.25317,364.3899,62,110,42
364.62817,365.37427,60,110,42
366.87817,367.0149,58,70,42
367.25317,367.3899,62,70,42
367.62817,368.37427,62,70,42
368.37817,369.1434,61,70,42
369.1474,369.96506,64,70,42
369.96933,370.10605,63,70,42
370.34433,370.48105,66,70,42
370.71933,371.46542,65,70,42
371.46933,371.60605,64,70,42
371.84433,371.98105,67,70,42
372.21933,373.15292,66,70,42
373.34433,373.48364,69,70,42
373.7265,373.86853,68,70,42
374.1161,374.26593,71,70,42
374.52707,377.81046,68,110,42
377.81473,379.45428,69,120,42
379.45856,379.86523,36,120,42
379.8695,380.01343,38,120,42
380.0669,380.2108,40,120,42
380.26425,380.45255,41,120,42
380.45654,380.59677,43,120,42
380.64886,380.7891,45,100,42
380.84116,380.98138,46,80,42
381.03348,381.40457,48,100,42
381.40848,381.77957,50,100,42
381.78348,382.15457,52,100,42
382.15848,382.52957,53,100,42
382.53348,383.65457,48,100,42
383.65848,383.84207,50,100,42
383.84598,384.02957,48,100,42
384.03348,384.21707,46,100,42
384.22098,384.3577,48,100,42
384.40848,384.5452,45,100,42
384.59598,384.7327,43,100,42
384.78348,385.15457,41,100,42
385.15848,385.52957,50,100,42
385.53348,387.02957,48,100,42
387.03348,387.40457,50,100,42
387.40848,387.77957,52,100,42
387.78348,388.15457,53,100,42
388.15848,388.52957,55,100,42
388.53348,389.65457,53,100,42
389.65848,389.84207,52,100,42
389.84598,390.02957,50,100,42
390.03348,390.21707,48,100,42
390.22098,390.3577,50,100,42
390.40848,390.5452,52,100,42
390.59598,390.7327,53,100,42
390.78348,391.15457,55,100,42
391.15848,391.52957,57,100,42
391.53348,393.02957,55,80,42
393.03348,393.21707,55,70,42
393.22098,393.40457,55,70,42
393.40848,393.59207,55,70,42
393.59598,393.77957,55,70,42
393.78348,393.96707,55,70,42
393.97098,394.15457,55,70,42
394.15848,394.34207,55,70,42
394.34598,394.52957,55,70,42
394.53348,394.71707,55,70,42
394.72098,394.90457,55,70,42
394.90848,395.09207,55,70,42
395.09598,395.27957,55,70,42
395.28348,395.46707,55,70,42
395.47098,395.65457,55,70,42
395.65848,395.84207,55,70,42
395.84598,396.02957,55,70,42
396.03348,396.21707,55,70,42
396.22098,396.40457,55,70,42
396.40848,396.59207,55,70,42
396.59598,396.77957,55,70,42
396.78348,396.96707,55,70,42
396.97098,397.15457,55,70,42
397.15848,397.34207,55,70,42
397.34598,397.52957,55,70,42
397.53348,397.71707,55,70,42
397.72098,397.90457,55,70,42
397.90848,398.09207,55,70,42
398.09598,398.27957,55,70,42
398.28348,398.46707,55,70,42
398.47098,398.65457,55,70,42
398.65848,398.84207,55,70,42
398.84598,399.02957,55,70,42
399.03348,399.21707,55,70,42
399.22098,399.40457,55,71,42
399.40848,399.59207,55,72,42
399.59598,399.77957,55,73,42
399.78348,399.96707,55,75,42
399.97098,400.15457,55,76,42
400.15848,400.34207,55,77,42
400.34598,400.52957,55,79,42
400.53348,400.71707,55,80,42
400.72098,400.90457,55,81,42
400.90848,401.09207,55,83,42
401.09598,401.27957,55,84,42
401.28348,401.46707,55,85,42
401.47098,401.65457,55,86,42
401.65848,401.84207,55,88,42
401.84598,402.02957,55,89,42
402.03348,402.21707,55,90,42
402.22098,402.40457,55,92,42
402.40848,402.59207,55,93,42
402.59598,402.77957,55,94,42
402.78348,402.96707,55,96,42
402.97098,403.15457,55,97,42
403.15848,403.34207,55,98,42
403.34598,403.52957,55,99,42
403.53348,403.71707,54,100,42
403.72098,403.90457,54,100,42
403.90848,404.09207,54,100,42
404.09598,404.27957,54,100,42
404.28348,404.46707,54,100,42
404.47098,404.65457,54,100,42
404.65848,404.84207,54,100,42
404.84598,405.02957,54,100,42
405.03348,405.21707,54,100,42
405.22098,405.40457,54,100,42
405.40848,405.59207,54,101,42
405.59598,405.77957,54,102,42
405.78348,405.96707,54,102,42
405.97098,406.15457,54,103,42
406.15848,406.34207,54,104,42
406.34598,406.52957,54,104,42
406.53348,406.71707,54,105,42
406.72098,406.90457,54,106,42
406.90848,407.09207,54,106,42
407.09598,407.27957,54,107,42
407.28348,407.46707,54,108,42
407.47098,407.65457,54,108,42
407.65848,407.84207,54,109,42
407.84598,408.02957,54,110,42
408.03348,408.21707,54,110,42
408.22098,408.40457,54,110,42
408.40848,408.59207,54,110,42
408.59598,408.77957,54,110,42
408.78348,408.96707,54,110,42
408.97098,409.15457,54,110,42
409.15848,409.34207,54,110,42
409.34598,409.52957,54,110,42
409.53348,409.71707,54,115,42
409.72098,409.90457,54,115,42
409.90848,410.09207,54,115,42
410.09598,410.27957,54,115,42
410.28348,410.46707,54,115,42
410.47098,410.65457,54,115,42
410.65848,410.84207,54,115,42
410.84598,411.02957,54,115,42
411.03348,411.21707,54,120,42
411.22098,411.40457,54,120,42
411.40848,411.59207,54,120,42
411.59598,411.77957,54,120,42
411.78348,411.96707,54,120,42
411.97098,412.15457,54,120,42
412.15848,412.34207,54,120,42
412.34598,412.52957,54,120,42
412.53348,412.72058,54,120,42
412.72455,412.91165,54,120,42
412.91565,413.10275,54,120,42
413.10672,413.29382,54,120,42
413.29782,413.48856,54,120,42
413.4926,413.68335,54,120,42
413.6874,413.87817,54,120,42
413.88223,414.07297,54,120,42
414.07703,414.27286,54,120,42
414.27704,414.47287,54,114,42
414.47702,414.67285,54,107,42
414.67703,414.87286,54,100,42
414.877,415.2837,54,100,42
417.01062,417.17636,53,72,42
417.2379,417.40363,51,69,42
417.46518,417.6983,49,67,42
417.70328,417.8769,48,64,42
417.94138,418.12366,46,61,42
418.19138,418.41013,44,58,42
418.49136,419.18988,44,55,42
419.19724,420.18683,42,50,42
420.19724,420.59308,41,70,42
426.31537,427.43646,53,70,42
427.44037,427.62787,54,70,42
427.62787,427.81537,53,70,42
427.81537,428.00287,51,70,42
428.00287,428.19037,53,70,42
428.19037,428.37787,50,70,42
428.37787,428.56537,44,70,42
428.56537,428.75287,50,70,42
428.75287,428.94037,44,70,42
428.94037,429.12787,41,70,42
429.12787,429.31537,44,70,42
429.31537,429.50287,49,70,42
429.50287,429.69037,51,70,42
429.69037,429.87787,53,70,42
429.87787,430.06537,54,70,42
430.06537,430.25287,53,70,42
430.25287,430.44037,54,70,42
430.44037,430.62787,51,70,42
430.62787,430.81537,53,70,42
430.81537,430.99896,51,70,42
431.00287,431.1396,54,70,42
431.19037,431.3271,51,70,42
431.37787,431.5146,51,70,42
431.56537,431.74896,51,70,42
431.75287,431.8896,53,70,42
431.94037,432.0771,48,70,42
432.12787,432.2646,48,70,42
432.31537,433.99896,49,70,42
434.00287,434.1396,51,70,42
434.19037,434.3271,48,70,42
434.37787,434.5146,48,70,42
434.56537,434.74896,48,70,42
434.75287,434.8896,49,70,42
434.94037,435.0771,45,70,42
435.12787,435.2646,45,70,42
435.31537,436.99896,46,70,42
437.00287,437.1396,43,70,42
437.19037,437.3271,43,70,42
437.37787,437.5146,43,70,42
437.56537,437.74896,43,70,42
437.75287,437.8896,46,70,42
437.94037,438.0771,46,70,42
438.12787,438.2646,46,70,42
438.31537,439.99896,46,70,42
440.00287,440.1396,43,70,42
440.19037,440.3271,43,70,42
440.37787,440.5146,43,70,42
440.56537,440.74896,43,70,42
440.75287,440.8896,46,70,42
440.94037,441.0771,46,70,42
441.12787,441.2646,46,72,42
441.31537,441.5112,46,74,42
441.51538,441.66122,43,76,42
441.7154,441.8612,46,79,42
441.91537,442.05743,46,81,42
442.1102,442.2985,46,83,42
442.3025,442.44272,43,85,42
442.4948,442.63153,46,88,42
442.6823,442.81903,46,90,42
442.8698,443.0534,46,92,42
443.0573,443.19403,43,95,42
443.2448,443.38153,43,97,42
443.4323,443.56903,40,99,42
443.6198,443.76,44,101,42
443.8121,443.95233,41,104,42
444.00443,444.15024,38,106,42
444.2044,444.36066,43,108,42
444.4187,445.1648,36,110,42
445.1687,445.2937,38,100,42
445.2937,445.4187,40,100,42
445.4187,445.5437,41,100,42
445.5437,445.6687,43,100,42
445.6687,445.7937,45,100,42
445.7937,445.9187,47,100,42
445.9187,446.6648,48,125,42
446.6687,446.7937,50,115,42
446.7937,446.9187,48,100,42
446.9187,447.0437,47,100,42
447.0437,447.1687,52,100,42
447.1687,447.2937,50,100,42
447.2937,447.4187,48,100,42
447.4187,448.1648,53,125,42
448.1687,448.2937,52,120,42
448.2937,448.4187,50,100,42
448.4187,448.5437,48,100,42
448.5437,448.6687,47,100,42
448.6687,448.7937,45,100,42
448.7937,448.9187,43,100,42
448.9187,449.1023,41,100,42
449.2937,449.4808,40,100,42
449.67587,449.8691,38,100,42
450.0706,450.2718,43,100,42
450.48157,450.68277,36,100,42
452.04636,453.5808,65,110,42
453.5848,455.11926,64,101,42
455.1233,456.65775,63,110,42
456.66174,458.14813,62,119,42
458.2002,459.73465,61,110,42
459.73865,461.2731,60,94,42
461.27713,462.42697,48,100,42
462.43097,462.61926,50,75,42
462.62326,462.81158,52,71,42
462.81558,465.50388,53,70,42
465.50787,465.6962,55,86,42
465.7002,465.8885,57,88,42
465.8925,466.2731,58,91,42
466.27713,466.6577,57,96,42
466.66174,467.04233,55,100,42
467.04636,467.42694,60,83,42
467.43097,467.81158,53,70,42
467.81558,468.1962,58,70,42
468.2002,468.5808,60,70,42
468.5848,468.96542,64,70,42
468.96942,471.6577,65,70,42
471.6617,471.85004,67,85,42
471.85403,472.04233,69,87,42
472.04636,472.17456,70,100,42
472.17456,472.30276,72,102,42
472.30276,472.43097,74,103,42
472.43097,472.55917,72,105,42
472.55917,472.68738,70,107,42
472.68738,472.81558,69,109,42
472.81558,472.9438,67,110,42
472.9438,473.072,69,112,42
473.072,473.2002,70,114,42
473.2002,473.3284,72,115,42
473.3284,473.4566,70,117,42
473.4566,473.5848,72,119,42
473.5848,473.96542,69,120,42
473.96942,474.35004,70,80,42
474.35403,474.73465,72,80,42
474.73865,475.11926,70,80,42
475.12326,475.50388,69,120,42
475.50787,475.8885,70,80,42
475.8925,476.2731,72,80,42
476.2771,476.6577,67,80,42
476.6617,477.04233,65,120,42
477.04633,477.42694,67,80,42
477.43094,477.81155,69,80,42
477.81555,478.19617,67,80,42
478.2002,478.58078,65,120,42
478.5848,478.9654,67,80,42
478.96942,479.35,69,80,42
479.35403,479.73465,67,80,42
479.73865,480.50388,65,80,42
480.50787,481.2731,67,88,42
481.2771,482.04233,69,97,42
482.04633,482.81155,70,106,42
482.81555,483.19617,70,80,42
484.35403,484.73462,57,70,42
485.8925,486.2731,46,70,42
487.43094,487.81155,45,70,42
488.9694,495.11923,38,70,42
488.9694,495.11923,47,70,42
495.12323,498.19617,36,85,42
495.12323,498.19617,46,85,42
498.20016,498.32437,48,110,42
498.32837,498.45258,46,110,42
498.45657,498.58078,45,110,42
498.58478,498.70898,43,110,42
498.71298,498.8372,45,110,42
498.8412,498.9654,41,110,42
498.9694,499.06955,45,110,42
499.0976,499.19775,48,110,42
499.2258,499.32596,55,110,42
499.354,499.45416,48,110,42
499.4822,499.58237,53,110,42
499.6104,499.71057,57,110,42
499.73862,499.83878,53,110,42
499.86682,499.96698,57,110,42
499.99503,500.09518,60,110,42
500.12323,500.2247,57,110,42
500.2531,500.35455,53,110,42
500.38297,500.48444,48,110,42
500.51285,500.617,45,110,42
500.64618,500.75034,53,110,42
500.7795,500.88367,48,110,42
500.91284,501.01987,45,110,42
501.04984,501.1585,48,100,42
501.18976,501.30136,41,90,42
502.10184,502.86707,62,70,42
503.6403,504.40552,36,70,42
506.71722,507.48245,36,70,42
508.25568,508.82858,62,110,42
509.0249,509.62076,55,110,42
509.82492,510.46332,49,110,42
510.68207,513.67816,36,70,42
510.68207,513.67816,48,70,42
513.68207,516.67816,41,70,42
513.68207,516.67816,48,70,42
516.68207,518.55316,41,76,42
516.68207,518.55316,48,76,42
518.55707,519.30316,41,85,42
518.55707,519.30316,48,85,42
519.30707,520.05316,41,89,42
519.30707,520.05316,48,89,42
520.05707,520.80316,41,92,42
520.05707,520.80316,48,92,42
520.80707,521.55316,41,96,42
520.80707,521.55316,48,96,42
521.55707,522.30316,41,99,42
521.55707,522.30316,48,99,42
522.30707,522.86566,41,103,42
522.30707,522.86566,48,103,42
522.86957,523.0063,65,105,42
523.05707,523.1938,65,106,42
523.24457,523.3813,64,107,42
523.43207,523.5688,65,108,42
523.61957,523.7563,64,109,42
523.80707,523.9438,65,110,42
523.99457,524.1313,64,110,42
524.18207,524.3188,65,110,42
524.36957,524.5063,65,110,42
524.55707,524.6964,60,110,42
524.7481,524.88745,57,110,42
524.9392,525.0831,53,110,42
525.1366,525.2805,53,110,42
525.334,525.48376,48,110,42
525.5394,525.6957,45,110,42
525.7537,526.1248,41,120,42
526.1287,526.4998,48,120,42
526.1287,526.4998,41,120,42
526.5037,526.8748,48,120,42
526.5037,526.8748,41,120,42
526.8787,527.2498,48,120,42
526.8787,527.2498,41,120,42
527.2537,528.3748,41,120,42
527.2537,528.3748,48,120,42
528.3787,528.51544,41,120,42
528.3787,528.51544,48,120,42
528.5662,528.70294,41,120,42
528.5662,528.70294,48,120,42
528.7537,529.4998,41,120,42
528.7537,529.4998,48,120,42
529.5037,529.8748,41,120,42
529.5037,529.8748,48,120,42
529.8787,530.2498,43,120,42
529.8787,530.2498,48,120,42
530.2537,531.7498,45,120,42
530.2537,531.7498,48,120,42
531.7537,532.1248,47,120,42
532.1287,532.4998,47,120,42
532.5037,532.8748,47,120,42
532.8787,533.2498,47,120,42
533.2537,534.3748,47,120,42
534.3787,534.51544,47,120,42
534.5662,534.70294,47,120,42
534.7537,534.89044,48,120,42
534.9412,535.07794,48,120,42
535.1287,535.26544,48,120,42
535.3162,535.45294,48,120,42
535.5037,535.8748,48,120,42
535.8787,536.2498,48,120,42
536.2537,537.3748,48,120,42
537.3787,537.51544,64,120,42
537.5662,537.70294,65,120,42
537.7537,537.9373,67,120,42
537.9412,538.07794,65,120,42
538.1287,538.26544,64,120,42
538.3162,538.45294,62,120,42
538.5037,538.8748,60,120,42
538.8787,539.2498,60,120,42
539.2537,543.47437,60,120,42
543.5221,543.67834,65,79,42
543.7364,543.89264,64,77,42
543.9507,544.1667,62,76,42
544.17126,544.3321,60,75,42
544.39185,544.5601,58,73,42
544.6226,544.7909,57,72,42
544.8534,545.22314,55,71,42
545.3534,545.4992,53,70,42
545.5534,545.6992,52,70,42
545.75336,545.9417,50,70,42
545.9457,546.08594,48,70,42
546.138,546.2747,46,70,42
546.3255,546.4622,45,70,42
546.513,546.8841,43,70,42
546.888,547.2591,44,70,42
547.263,548.7591,45,110,42
548.763,550.2122,46,110,42
550.263,552.91077,48,70,42
552.9149,553.3302,46,70,42
553.33466,554.83075,45,110,42
554.83466,556.33075,46,110,42
556.33466,556.70575,48,70,42
558.70966,558.83075,41,70,42
558.83466,558.95575,38,70,42
558.95966,559.08075,45,70,42
559.08466,559.20575,41,70,42
559.20966,559.33075,38,70,42
559.33466,559.70575,36,70,42
559.70966,560.45575,55,110,42
561.70966,561.83075,43,70,42
561.83466,561.95575,40,70,42
561.95966,562.08075,46,70,42
562.08466,562.20575,43,70,42
562.20966,562.33075,40,70,42
562.33466,562.70575,36,70,42
562.70966,563.45575,57,110,42
565.33466,567.20575,41,70,42
567.20966,567.58075,43,70,42
567.58466,567.95575,45,70,42
567.95966,568.33075,46,70,42
568.33466,570.20575,43,70,42
570.20966,570.58075,45,70,42
570.58466,570.95575,46,70,42
570.95966,571.33075,48,70,42
571.33466,571.45575,53,70,42
571.45966,571.58075,57,70,42
571.58466,571.70575,53,71,42
571.70966,571.83075,60,72,42
571.83466,571.95575,57,73,42
571.95966,572.08075,53,74,42
572.08466,572.20575,48,75,42
572.20966,572.33075,53,75,42
572.33466,572.45575,48,76,42
572.45966,572.58075,57,77,42
572.58466,572.70575,53,78,42
572.70966,572.83075,48,79,42
572.83466,573.20575,41,80,42
574.33466,574.45575,43,90,42
574.45966,574.58075,55,91,42
574.58466,574.70575,52,92,42
574.70966,574.83075,58,93,42
574.83466,574.95575,55,93,42
574.95966,575.08075,52,94,42
575.08466,575.20575,46,95,42
575.20966,575.33075,52,96,42
575.33466,575.45575,46,97,42
575.45966,575.58075,55,98,42
575.58466,575.70575,52,99,42
575.70966,575.83075,46,99,42
575.83466,576.20575,43,100,42
577.33466,577.45575,45,110,42
577.45966,577.58075,60,110,42
577.58466,577.70575,57,110,42
577.70966,577.83075,53,110,42
577.83466,577.95575,57,110,42
577.95966,578.08075,53,110,42
578.08466,578.20575,48,110,42
578.20966,578.33075,53,110,42
578.33466,578.45575,48,110,42
578.45966,578.58075,45,110,42
578.58466,578.70575,48,110,42
578.70966,578.83075,45,110,42
578.83466,578.95575,43,110,42
578.95966,579.08075,58,110,42
579.08466,579.20575,55,110,42
579.20966,579.33075,52,110,42
579.33466,579.45575,55,110,42
579.45966,579.58075,52,110,42
579.58466,579.70575,46,110,42
579.70966,579.83075,52,110,42
579.83466,579.95575,46,110,42
579.95966,580.08075,43,110,42
580.08466,580.20575,43,110,42
580.20966,580.33075,43,110,42
580.33466,580.45575,43,120,42
580.45966,580.58075,43,120,42
580.58466,580.70575,43,120,42
580.70966,580.83075,43,120,42
580.83466,580.95575,43,120,42
580.95966,581.08075,43,120,42
581.08466,581.20575,43,120,42
581.20966,581.33075,43,120,42
581.33466,581.45575,43,120,42
581.45966,581.58075,43,120,42
581.58466,581.70575,43,120,42
581.70966,581.83075,43,120,42
581.83466,584.896,43,115,42
584.9158,586.43085,41,70,42
586.43475,586.5574,43,110,42
586.56134,586.68396,45,90,42
586.6879,586.81055,43,70,42
586.8145,586.93713,41,70,42
586.9411,587.0637,40,70,42
587.0677,587.1903,38,70,42
587.1943,587.3169,36,70,42
587.32086,587.4435,38,70,42
587.44745,587.57007,40,70,42
587.57404,587.69666,41,70,42
587.7006,587.82324,43,70,42
587.82715,587.9498,40,70,42
587.95374,589.4688,41,70,42
589.4727,589.5954,43,110,42
589.5993,589.7219,45,90,42
589.7259,589.8485,43,70,42
589.8525,589.9751,41,70,42
589.97906,590.1017,40,70,42
590.10565,590.2283,38,70,42
590.23224,590.35486,36,70,42
590.3588,590.48145,38,70,42
590.4854,590.60803,40,70,42
590.612,590.7346,41,70,42
590.7386,590.8612,43,70,42
590.8652,590.9878,40,70,42
590.9917,595.60925,41,100,42
595.6134,596.2092,41,60,42
596.4134,597.05176,41,55,42
597.2705,598.8664,41,50,42
598.87054,599.4664,62,50,42
599.67053,600.3089,62,50,42
600.52765,602.2375,62,50,42
602.24194,603.9518,60,110,42
603.95624,604.2732,53,110,42
604.81335,605.18317,48,120,42
605.81335,606.30817,41,120,42
