start_time,end_time,note_value,velocity,instrument_program_number
11.732054,11.850109,75,50,40
11.898721,12.016776,80,50,40
12.065387,12.183442,84,50,40
12.232054,12.350109,82,50,40
12.39872,12.516775,80,50,40
12.565387,12.683442,79,50,40
12.732053,12.850108,77,50,40
12.89872,13.016775,79,50,40
13.065386,13.183441,75,50,40
13.232053,13.350108,80,50,40
13.398719,13.516774,84,50,40
13.565386,14.065385,87,50,40
14.065385,14.18344,84,50,40
14.232052,14.350107,82,50,40
14.398718,14.516773,79,50,40
14.565385,14.686123,80,50,40
14.735839,14.856578,77,50,40
14.906294,15.031294,82,50,40
15.082764,15.215576,74,50,40
15.270264,16.387451,75,50,40
18.395262,18.513317,78,76,40
18.561928,18.679983,78,78,40
18.728596,18.971651,78,81,40
19.061928,19.304983,78,85,40
19.395262,19.513317,78,89,40
19.561928,19.679983,78,92,40
19.728594,19.84665,78,94,40
19.89526,20.013315,78,96,40
20.061928,20.185472,78,98,40
20.236345,20.369158,78,100,40
20.423845,22.623064,77,110,40
22.673845,23.000235,74,70,40
23.00718,23.333567,72,70,40
23.340511,23.6669,70,70,40
23.673845,23.923843,75,70,40
23.923843,24.007177,72,70,40
24.007177,24.333567,70,70,40
24.340511,24.666899,69,70,40
24.673843,25.000233,77,70,40
25.007177,25.333565,75,70,40
25.34051,25.666899,74,70,40
25.673843,25.923841,79,70,40
25.923841,26.007175,75,70,40
26.007175,26.333565,74,70,40
26.34051,26.666897,72,70,40
26.673841,26.935469,77,110,40
26.935469,27.022678,74,110,40
27.022678,27.277039,72,110,40
28.095352,28.46254,69,70,40
28.845352,28.963408,62,120,40
28.845352,28.963408,70,120,40
29.012018,29.130074,62,120,40
29.012018,29.130074,70,120,40
29.178686,29.421741,62,120,40
29.178686,29.421741,70,120,40
29.512018,29.755074,62,120,40
29.512018,29.755074,70,120,40
29.845352,29.963408,62,120,40
29.845352,29.963408,70,120,40
30.012018,30.130074,62,120,40
30.012018,30.130074,70,120,40
30.178684,30.42174,62,120,40
30.178684,30.42174,70,120,40
30.512018,30.755074,62,120,40
30.512018,30.755074,70,120,40
30.84535,30.963406,62,120,40
30.84535,30.963406,70,120,40
31.012016,31.130072,62,120,40
31.012016,31.130072,70,120,40
31.178684,31.29674,62,120,40
31.178684,31.29674,70,120,40
31.34535,31.463406,62,120,40
31.34535,31.463406,70,120,40
31.512016,31.630072,62,120,40
31.512016,31.630072,70,120,40
31.678682,31.796738,62,120,40
31.678682,31.796738,70,120,40
31.84535,32.838406,86,120,40
32.84535,32.963406,62,120,40
32.84535,32.963406,72,120,40
33.012016,33.13007,62,120,40
33.012016,33.13007,72,120,40
33.17868,33.296738,62,120,40
33.17868,33.296738,72,120,40
33.34535,33.4634,62,120,40
33.34535,33.4634,72,120,40
33.512016,33.63007,62,120,40
33.512016,33.63007,72,120,40
33.67868,33.796738,62,120,40
33.67868,33.796738,72,120,40
33.84535,34.8384,86,120,40
35.845345,35.9634,73,70,40
35.845345,35.9634,76,70,40
36.012012,36.130066,73,70,40
36.012012,36.130066,76,70,40
36.178677,36.296734,73,70,40
36.178677,36.296734,76,70,40
36.345345,36.4634,73,70,40
36.345345,36.4634,76,70,40
36.512012,36.630066,73,70,40
36.512012,36.630066,76,70,40
36.678677,36.796734,73,70,40
36.678677,36.796734,76,70,40
38.883556,39.209946,62,100,40
39.383556,39.50161,69,70,40
39.55022,39.668278,74,70,40
39.71689,39.834946,77,70,40
39.883556,40.043278,77,70,40
40.05022,40.20994,76,70,40
40.21689,40.37661,76,70,40
40.46689,40.52244,74,70,40
40.55022,40.70994,73,70,40
40.80022,40.855778,70,70,40
40.883553,41.20994,74,70,40
41.21689,41.543274,77,70,40
41.55022,42.043274,81,70,40
42.05022,42.20994,79,70,40
42.216885,42.37661,79,70,40
42.466885,42.52244,77,70,40
42.55022,42.70994,76,70,40
42.80022,42.855774,74,70,40
42.883553,43.050217,74,70,40
43.050217,43.216885,73,70,40
43.216885,43.33494,73,70,40
43.383553,43.501606,74,70,40
43.550217,43.668274,76,70,40
43.716885,43.834938,70,70,40
43.883553,44.050217,70,70,40
44.050217,44.216885,69,70,40
44.216885,44.334938,69,70,40
44.38355,44.501606,68,70,40
44.550217,44.668274,69,70,40
44.716885,44.834938,68,70,40
44.88355,45.001606,69,70,40
45.050217,45.16827,70,70,40
45.216885,45.33762,69,70,40
45.387337,45.508076,70,70,40
45.557793,45.682793,69,70,40
45.734264,45.867077,70,70,40
45.921764,46.176125,69,70,40
46.2706,46.612167,69,76,40
46.61944,46.706646,71,83,40
46.706646,46.793854,72,85,40
46.793854,46.881065,69,87,40
46.881065,46.96464,71,88,40
46.968273,47.302082,72,90,40
47.30918,47.64299,72,97,40
47.650093,47.9839,72,104,40
47.991,48.495262,72,110,40
48.502365,48.672817,73,70,40
48.672817,48.843273,74,70,40
48.843273,49.01373,70,70,40
49.01373,49.347534,69,70,40
49.354637,49.688442,69,70,40
49.695545,50.029354,69,70,40
50.036453,50.71117,69,70,40
50.718273,51.222534,77,83,40
51.229637,51.40009,74,93,40
51.40009,51.570545,76,97,40
51.570545,51.741,79,100,40
51.741,51.911453,77,104,40
51.911453,52.08191,82,107,40
52.08191,52.25236,81,110,40
52.25236,52.422817,76,103,40
52.422817,52.593273,77,95,40
52.593273,52.763725,73,87,40
52.763725,52.938145,74,79,40
52.938145,53.118866,70,71,40
53.118866,53.460438,69,70,40
53.467705,53.809273,69,70,40
53.816544,54.15811,69,70,40
54.16538,54.288925,69,50,40
54.339798,54.463345,69,50,40
54.514217,55.55346,69,50,40
55.560726,55.684273,69,50,40
55.735146,55.858692,69,50,40
55.909565,56.59997,69,50,40
56.60724,56.730785,57,50,40
56.60724,56.730785,69,50,40
56.781654,56.9052,57,50,40
56.781654,56.9052,69,50,40
56.956074,57.64648,57,50,40
56.956074,57.64648,69,50,40
57.653748,57.777294,57,70,40
57.653748,57.777294,69,70,40
57.828167,57.951714,57,70,40
57.828167,57.951714,69,70,40
58.002586,58.692993,57,70,40
58.002586,58.692993,69,70,40
58.70026,59.69953,55,110,40
58.70026,59.69953,67,110,40
59.74677,60.08834,64,70,40
60.095608,60.437176,65,70,40
60.444447,60.706074,62,70,40
60.706074,60.786015,67,90,40
60.79328,61.792553,55,110,40
60.79328,61.792553,67,110,40
61.839794,62.193707,64,70,40
62.201237,62.568424,65,70,40
62.576237,62.735962,62,70,40
62.742905,62.902626,62,70,40
62.909573,63.23596,62,70,40
63.242905,63.569294,62,70,40
63.576237,63.73596,62,70,40
63.742905,63.902626,62,70,40
63.90957,64.23596,62,70,40
64.242905,64.56929,62,70,40
64.57623,64.73596,62,70,40
64.742905,64.902626,62,70,40
64.90957,65.07292,62,70,40
65.080025,65.24338,62,70,40
65.25048,65.41959,62,70,40
65.42695,65.606636,62,70,40
65.61445,66.607506,62,70,40
66.61445,67.63007,60,70,40
67.63718,68.32758,66,70,40
68.33485,68.702034,65,60,40
68.70985,69.36957,58,50,40
79.03972,79.19944,62,50,40
79.03972,79.19944,65,50,40
79.20638,79.36611,62,63,40
79.20638,79.36611,65,63,40
79.373055,79.532776,62,77,40
79.373055,79.532776,65,77,40
79.53972,79.866104,62,90,40
79.53972,79.866104,65,90,40
79.873055,83.866104,61,50,40
79.873055,83.866104,64,50,40
83.87305,83.991104,76,50,40
84.03971,84.15777,81,50,40
84.20638,84.32444,85,50,40
84.37305,84.491104,81,50,40
84.53971,84.65777,83,50,40
84.70638,84.82443,80,50,40
84.87305,85.116104,81,50,40
85.20638,85.866104,76,50,40
87.87305,87.9911,89,50,40
88.03971,88.15777,88,55,40
88.206375,88.32443,86,61,40
88.37305,88.4911,84,66,40
88.53971,88.65777,83,72,40
88.706375,88.82443,86,78,40
88.87305,88.9911,80,83,40
89.03971,89.15777,83,89,40
89.206375,89.32443,77,95,40
89.37304,89.4911,76,100,40
89.53971,89.65777,82,110,40
89.706375,89.82443,81,110,40
89.87304,89.9911,79,110,40
90.03971,90.15776,77,110,40
90.206375,90.32443,76,110,40
90.37304,90.4911,74,110,40
90.53971,90.65776,73,110,40
90.706375,90.82443,76,110,40
90.87304,90.93051,72,110,40
90.93051,91.045456,70,110,40
91.045456,91.210686,69,110,40
91.217865,91.276695,60,110,40
91.276695,91.39434,58,110,40
91.39434,91.57403,57,110,40
91.58184,91.64434,60,110,40
91.64434,91.76934,58,110,40
91.76934,91.961006,57,110,40
91.96934,92.087395,62,120,40
92.13601,92.25406,62,120,40
92.30267,92.54573,62,120,40
92.636,92.87906,62,120,40
92.96934,93.087395,62,120,40
93.136,93.25406,62,120,40
93.30267,93.54572,62,120,40
93.636,93.87906,62,120,40
93.96934,94.087395,62,120,40
94.136,94.25406,62,120,40
94.30267,94.54572,62,120,40
94.636,94.87906,62,120,40
94.96934,95.087395,62,120,40
95.136,95.25406,62,120,40
95.302666,95.42072,62,120,40
95.46934,95.587395,62,120,40
95.636,95.75406,62,120,40
95.802666,95.92072,62,120,40
95.96934,96.08739,62,120,40
95.96934,96.08739,74,120,40
96.136,96.25406,62,120,40
96.136,96.25406,74,120,40
96.302666,96.54572,62,120,40
96.302666,96.54572,74,120,40
96.636,96.87906,62,120,40
96.636,96.87906,74,120,40
96.96934,97.08739,62,120,40
96.96934,97.08739,74,120,40
97.136,97.25406,62,120,40
97.136,97.25406,74,120,40
97.302666,97.54572,62,120,40
97.302666,97.54572,74,120,40
97.636,97.87906,62,120,40
97.636,97.87906,74,120,40
97.96933,98.08739,62,120,40
97.96933,98.08739,74,120,40
98.136,98.25406,62,120,40
98.136,98.25406,74,120,40
98.302666,98.54572,62,120,40
98.302666,98.54572,74,120,40
98.636,98.87905,62,120,40
98.636,98.87905,74,120,40
98.96933,99.08739,62,120,40
98.96933,99.08739,74,120,40
99.136,99.25405,62,120,40
99.136,99.25405,74,120,40
99.302666,99.4234,62,120,40
99.302666,99.4234,74,120,40
99.47312,99.59386,62,120,40
99.47312,99.59386,74,120,40
99.64358,99.76858,62,120,40
99.64358,99.76858,74,120,40
99.820045,99.95286,62,100,40
99.820045,99.95286,74,100,40
100.007545,100.33393,62,80,40
100.007545,100.33393,74,80,40
101.67421,101.83393,75,50,40
101.67421,101.83393,77,50,40
101.84087,102.000595,75,50,40
101.84087,102.000595,77,50,40
102.007545,102.125595,77,120,40
102.17421,102.29227,82,120,40
102.34087,102.45893,86,120,40
102.507545,102.625595,82,120,40
102.67421,102.79227,84,120,40
102.84087,102.95893,81,120,40
103.007545,103.250595,82,120,40
103.34087,104.000595,77,120,40
104.00754,104.125595,79,120,40
104.17421,104.29226,77,120,40
104.34087,104.45893,75,120,40
104.50754,104.625595,74,120,40
104.67421,104.79226,72,120,40
104.84087,104.95893,77,120,40
105.00754,105.250595,74,120,40
105.34087,106.000595,70,120,40
106.00754,106.125595,74,120,40
106.1742,106.29226,77,120,40
106.34087,106.45893,82,120,40
106.50754,106.625595,86,120,40
106.6742,106.79226,84,120,40
106.84087,106.95892,81,120,40
107.00754,107.125595,82,120,40
107.1742,107.29226,86,120,40
107.34087,107.83392,89,120,40
107.84087,108.000595,91,120,40
108.00754,108.125595,89,120,40
108.1742,108.29226,86,120,40
108.340866,108.45892,82,120,40
108.50754,108.625595,84,120,40
108.6742,108.72976,82,120,40
108.72976,108.78532,84,120,40
108.78532,108.840866,82,120,40
108.840866,108.9242,81,120,40
108.9242,109.00407,82,120,40
109.00754,109.66726,81,120,40
111.6742,111.79225,84,110,40
111.840866,111.95892,86,110,40
112.00753,112.12559,84,110,40
112.1742,112.29225,81,110,40
112.340866,112.45892,77,110,40
112.50753,112.62559,79,110,40
112.6742,112.72975,77,110,40
112.72975,112.78531,79,110,40
112.78531,112.840866,77,110,40
112.840866,112.9242,76,110,40
112.9242,113.00406,77,110,40
113.00753,113.12559,76,110,40
113.1742,113.29225,72,110,40
113.674194,113.79225,64,121,40
113.840866,113.95892,60,100,40
116.28888,116.53888,65,70,40
116.53888,116.622215,67,76,40
116.622215,116.9486,68,78,40
116.95554,117.28194,70,86,40
117.28888,117.9486,72,94,40
117.95554,118.28194,73,110,40
118.28888,118.40694,75,110,40
118.45554,118.5736,73,104,40
118.622215,118.740265,72,97,40
118.78888,118.90694,70,91,40
118.95554,119.0736,68,84,40
119.12221,119.240265,67,78,40
119.28888,119.40694,68,70,40
119.45554,119.5736,67,70,40
119.62221,119.740265,65,70,40
120.28888,120.53888,77,70,40
120.53888,120.62221,79,81,40
120.62221,120.9486,80,85,40
120.95554,121.28193,82,100,40
121.28888,121.9486,84,100,40
121.95554,122.28193,85,110,40
122.28887,122.40693,87,99,40
122.45554,122.57359,85,93,40
122.62221,122.740265,84,88,40
122.78887,122.90693,82,82,40
122.95554,123.07628,80,76,40
123.12599,123.254005,79,71,40
123.30672,123.640526,77,70,40
123.98853,124.32234,68,70,40
124.329445,124.58513,67,70,40
124.58513,124.67036,65,70,40
124.67036,125.00416,64,70,40
125.01126,125.34507,67,70,40
125.35217,126.026886,65,70,40
126.03399,126.3678,72,70,40
126.3749,126.63058,70,70,40
126.63058,126.715805,68,70,40
126.715805,127.049614,67,70,40
127.05672,127.390526,70,70,40
127.39763,128.07234,68,70,40
128.07944,128.41325,75,70,40
128.42035,128.67604,74,70,40
128.67604,128.76126,72,70,40
128.76126,129.09506,71,70,40
129.10217,129.43597,74,70,40
129.44308,129.77689,72,75,40
129.784,130.1178,84,83,40
130.1249,130.45871,84,92,40
130.4658,131.14052,84,100,40
131.14763,131.64825,84,110,40
131.6552,131.77325,84,110,40
131.82187,131.93993,84,110,40
131.98854,132.10658,84,110,40
132.1552,132.27325,84,110,40
132.32187,132.43993,83,110,40
132.48853,132.60658,84,110,40
132.6552,132.77325,82,110,40
132.82187,132.94261,80,110,40
132.99232,133.11305,79,110,40
133.16278,133.28778,77,110,40
133.33925,133.47206,76,110,40
133.52675,133.77675,77,110,40
133.77675,133.86008,79,110,40
133.86008,134.18646,80,110,40
134.1934,134.5198,82,110,40
134.52675,135.18646,84,110,40
135.1934,135.5198,85,110,40
135.52675,135.6448,87,110,40
135.6934,135.81146,85,110,40
135.86008,135.98082,84,110,40
136.03053,136.15128,82,110,40
136.20099,136.32599,80,110,40
136.37746,136.51027,79,110,40
136.56496,136.68301,77,110,40
136.73163,136.84967,60,70,40
136.89828,137.01634,60,70,40
137.06496,137.18301,60,70,40
137.23163,137.34967,60,70,40
137.39828,137.51634,60,70,40
137.56496,137.68301,58,70,40
137.73163,137.84967,60,70,40
137.89828,138.01634,55,70,40
138.06496,138.18301,60,70,40
138.23163,138.34967,72,70,40
138.39828,138.51634,72,70,40
138.56496,138.68301,72,70,40
138.73161,138.84967,72,70,40
138.89828,139.01634,72,70,40
139.06496,139.18301,72,70,40
139.23161,139.34967,63,70,40
139.39828,139.51634,63,70,40
139.56496,139.68301,61,70,40
139.73161,139.84967,63,70,40
139.89828,140.01634,58,70,40
140.06496,140.18301,63,70,40
140.23161,140.34967,75,70,40
140.39828,140.51634,75,70,40
140.56496,140.68301,75,70,40
140.73161,140.84967,75,70,40
140.89828,141.01634,75,70,40
141.06496,141.18301,75,70,40
141.23161,141.34967,67,70,40
141.39828,141.51634,67,70,40
141.56496,141.68301,65,70,40
141.73161,141.84967,67,70,40
141.89828,142.01634,62,70,40
142.06496,142.183,67,70,40
142.23161,142.34967,79,70,40
142.39828,142.51634,79,70,40
142.56496,142.683,79,70,40
142.73161,142.84967,84,73,40
142.89828,143.01634,84,76,40
143.06496,143.183,84,80,40
143.23161,143.34967,84,83,40
143.39828,143.51634,84,87,40
143.56494,143.683,84,90,40
143.73161,143.84967,84,94,40
143.89828,144.01634,84,97,40
144.06494,144.183,84,100,40
144.23161,144.34967,84,110,40
144.39828,144.51634,84,110,40
144.56494,144.683,84,110,40
144.73161,144.84967,84,110,40
144.89828,145.01634,84,110,40
145.06494,145.183,84,110,40
145.23161,145.34967,84,110,40
145.39828,145.51634,84,110,40
145.56494,145.683,84,110,40
145.73161,145.84967,72,110,40
145.89828,146.01634,72,110,40
146.06494,146.183,72,110,40
146.23161,146.34967,74,110,40
146.39828,146.51634,76,110,40
146.56494,146.81494,77,110,40
146.81494,146.89828,79,110,40
146.89828,147.22467,80,110,40
147.23161,147.558,82,110,40
147.56494,148.22467,84,110,40
148.23161,148.558,85,125,40
148.56494,148.683,87,110,40
148.73161,148.84967,85,103,40
148.89827,149.01633,84,96,40
149.06494,149.183,82,89,40
149.23161,149.34967,80,82,40
149.39827,149.51633,79,75,40
149.56494,149.683,80,70,40
149.73161,149.84967,79,70,40
149.89827,150.01633,77,70,40
152.41565,152.59534,72,50,40
152.60315,152.7267,77,50,40
152.77757,152.90112,68,50,40
152.952,153.20634,68,50,40
153.30083,153.55519,68,50,40
153.64966,153.77321,67,50,40
153.82408,153.94763,67,50,40
153.9985,154.26205,67,50,40
154.35994,154.65161,67,50,40
154.75995,154.88069,68,70,40
154.9304,155.05115,80,73,40
155.10086,155.22159,80,76,40
155.27132,155.39204,80,80,40
155.44177,155.5625,82,83,40
155.61221,155.73296,82,87,40
155.78267,155.90073,82,90,40
155.94934,156.0674,82,93,40
156.11601,156.23407,82,97,40
156.28267,156.40073,82,100,40
156.44934,156.5674,80,104,40
156.61601,156.73405,80,107,40
156.78267,158.27573,80,110,40
158.28267,158.40073,80,70,40
158.44934,158.5674,87,70,40
158.616,158.73405,90,70,40
158.78267,158.90073,80,70,40
158.94934,159.0674,85,70,40
159.116,159.23405,89,70,40
159.28267,159.60905,92,70,40
159.616,159.9424,92,70,40
159.94934,160.27573,90,70,40
160.28267,160.60905,90,70,40
160.616,160.9424,90,70,40
160.94934,161.27573,89,70,40
161.28267,161.60905,89,70,40
161.616,161.94238,89,70,40
161.94934,162.27573,89,70,40
162.28267,162.40073,77,70,40
162.44934,162.56738,80,70,40
162.616,162.73405,85,70,40
162.78267,162.94238,89,70,40
162.94934,163.27573,89,70,40
163.28267,163.60905,89,70,40
163.616,163.94238,89,70,40
163.94933,164.27573,89,70,40
164.28267,164.40073,77,70,40
164.44933,164.56738,80,70,40
164.616,164.73405,84,70,40
164.78267,164.94238,89,70,40
164.94933,165.27573,89,70,40
165.28267,165.60905,89,70,40
165.616,165.94238,89,70,40
165.94933,166.27573,89,70,40
166.28267,166.40073,77,70,40
166.44933,166.56738,83,70,40
166.616,166.73405,86,70,40
166.78267,166.90071,89,70,40
166.94933,167.27571,89,72,40
167.28267,167.60905,89,78,40
167.616,167.94238,89,84,40
167.94933,168.27571,89,89,40
168.28267,168.40071,77,95,40
168.44933,168.56738,83,98,40
168.616,168.73405,86,100,40
168.78265,168.90071,89,110,40
168.94933,169.06738,55,110,40
169.116,169.23405,59,110,40
169.28265,169.40071,62,110,40
169.44933,169.56738,65,110,40
169.616,169.73405,71,110,40
169.78265,169.90071,74,110,40
169.94933,170.06738,77,110,40
170.116,170.23405,83,110,40
170.28265,170.40071,86,110,40
170.44933,170.57007,89,110,40
170.61978,170.74052,89,110,40
170.79024,170.91524,78,120,40
170.79024,170.91524,90,120,40
170.9667,171.09952,78,120,40
170.9667,171.09952,90,120,40
171.1542,171.5214,78,120,40
171.1542,171.5214,90,120,40
173.0292,173.363,75,70,40
173.37012,173.70392,73,70,40
173.71103,174.04483,71,70,40
174.05193,174.30762,76,70,40
174.30762,174.39284,73,70,40
174.39284,174.72665,71,70,40
174.73375,175.06755,70,70,40
175.07466,175.40846,78,70,40
175.41557,175.74937,76,70,40
175.75648,176.09029,75,70,40
176.09738,176.35901,80,70,40
176.35901,176.44623,76,70,40
176.44623,176.7878,75,70,40
176.79506,177.13663,73,70,40
177.14389,177.4086,78,70,40
177.4086,177.49684,75,70,40
177.49684,177.84242,73,70,40
178.65048,179.08891,70,70,40
179.546,179.66406,75,50,40
179.71268,179.83072,75,50,40
179.87933,180.12239,75,50,40
180.21268,180.45572,75,50,40
180.546,181.53906,76,50,40
181.546,181.66406,75,50,40
181.71266,181.83072,75,50,40
181.87933,182.12239,75,50,40
182.21266,182.45572,75,50,40
182.546,183.53906,73,50,40
183.546,183.66406,71,50,40
183.71266,183.83072,71,50,40
183.87933,184.12239,71,50,40
184.21266,184.45572,71,50,40
184.546,184.66405,70,50,40
184.71266,184.83072,70,50,40
184.87933,184.99739,70,50,40
185.046,185.16405,70,50,40
185.21266,185.33072,70,50,40
185.37933,185.49739,70,50,40
185.54599,187.66318,70,90,40
187.67099,187.78905,82,70,40
187.83766,187.95572,82,70,40
188.00433,188.24739,82,70,40
188.33766,188.58072,82,70,40
188.67099,189.66405,83,70,40
189.67099,189.78905,82,70,40
189.83766,189.95572,82,70,40
190.00433,190.24738,82,70,40
190.33766,190.58072,82,70,40
190.67099,191.66405,80,70,40
191.67099,191.78905,78,70,40
191.83766,191.95572,78,70,40
192.00432,192.24738,78,70,40
192.33766,192.58072,78,70,40
192.67099,192.78905,77,70,40
192.83766,192.95572,77,70,40
193.00432,193.12238,77,70,40
193.17099,193.28905,77,70,40
193.33766,193.45572,77,70,40
193.50432,193.62238,77,70,40
193.67099,195.8307,76,120,40
195.83766,195.99738,76,120,40
196.00432,196.16405,79,120,40
196.17099,196.3307,84,120,40
196.33766,196.49738,88,120,40
196.50432,196.66405,72,120,40
196.67099,196.8307,76,120,40
196.83765,196.99738,79,120,40
197.00432,197.16405,84,120,40
197.17099,197.3307,67,120,40
197.33765,197.49738,72,120,40
197.50432,197.66405,76,120,40
197.67099,197.8307,64,120,40
197.83765,197.99738,67,120,40
198.00432,198.16405,72,120,40
198.17099,198.3307,60,120,40
198.33765,198.49738,63,120,40
198.50432,198.66405,67,120,40
198.67099,198.78905,72,120,40
198.83765,198.9557,75,120,40
199.00432,199.12238,79,120,40
199.17099,199.28905,84,120,40
199.33765,199.4557,87,120,40
199.50432,199.62238,84,120,40
199.67099,202.3307,83,120,40
202.33765,202.66403,82,120,40
202.67097,203.3307,62,120,40
203.33765,203.66403,64,120,40
203.67097,206.3307,65,120,40
206.33765,206.66403,65,120,40
206.67097,207.3307,77,120,40
207.33765,207.66403,80,120,40
207.67097,207.78903,69,120,40
207.67097,207.78903,81,120,40
207.83765,207.9557,69,120,40
207.83765,207.9557,81,120,40
208.0043,208.24736,69,120,40
208.0043,208.24736,81,120,40
208.33765,208.5807,69,120,40
208.33765,208.5807,81,120,40
208.67097,208.78903,69,120,40
208.67097,208.78903,81,120,40
208.83765,208.9557,69,120,40
208.83765,208.9557,81,120,40
209.0043,209.24736,69,120,40
209.0043,209.24736,81,120,40
209.33765,209.5807,69,120,40
209.33765,209.5807,81,120,40
209.67097,209.78903,69,120,40
209.67097,209.78903,81,120,40
209.83765,209.9557,69,120,40
209.83765,209.9557,81,120,40
210.0043,210.12236,69,120,40
210.0043,210.12236,81,120,40
210.17097,210.28903,69,120,40
210.17097,210.28903,81,120,40
210.33765,210.45569,69,120,40
210.33765,210.45569,81,120,40
210.5043,210.62236,69,120,40
210.5043,210.62236,81,120,40
210.67097,210.78903,69,120,40
210.67097,210.78903,81,120,40
210.83765,210.95569,69,120,40
210.83765,210.95569,84,120,40
211.0043,211.12236,69,120,40
211.0043,211.12236,84,120,40
211.17097,211.28903,69,120,40
211.17097,211.28903,84,120,40
211.33765,211.45569,69,120,40
211.33765,211.45569,84,120,40
211.5043,211.62236,69,120,40
211.5043,211.62236,84,120,40
211.67097,211.78903,69,120,40
211.67097,211.78903,84,120,40
211.83765,211.95569,69,120,40
211.83765,211.95569,84,120,40
212.0043,212.12236,69,120,40
212.0043,212.12236,84,120,40
212.17097,212.28903,69,120,40
212.17097,212.28903,84,120,40
212.33763,212.45569,69,120,40
212.33763,212.45569,84,120,40
212.5043,212.62236,69,120,40
212.5043,212.62236,84,120,40
212.67097,212.78903,69,120,40
212.67097,212.78903,84,120,40
212.83763,212.95569,69,120,40
212.83763,212.95569,84,120,40
213.0043,213.12505,69,120,40
213.0043,213.12505,84,120,40
213.17476,213.2955,69,120,40
213.17476,213.2955,84,120,40
213.34521,213.47021,69,120,40
213.34521,213.47021,84,120,40
213.52168,213.64668,69,120,40
213.52168,213.64668,84,120,40
213.69815,213.81621,84,120,40
213.86482,213.98288,84,108,40
214.0315,214.14954,84,96,40
214.19815,214.31621,84,84,40
214.36482,214.48288,84,72,40
214.5315,214.64954,84,60,40
214.69815,214.81621,84,50,40
214.86482,214.98288,84,50,40
215.03148,215.14954,84,50,40
215.19815,215.31621,84,50,40
215.36482,215.48288,84,50,40
215.53148,215.64954,84,50,40
215.69815,215.81621,84,50,40
215.86482,215.98288,88,50,40
216.03148,216.14954,93,50,40
216.19815,216.31621,88,50,40
216.36482,216.48288,89,50,40
216.53148,216.64954,86,50,40
216.69815,216.94121,88,50,40
217.03148,217.69121,84,50,40
217.69815,217.81621,89,50,40
217.86482,217.98288,88,50,40
218.03148,218.14954,86,50,40
218.19815,218.31621,84,50,40
218.36482,218.48286,83,50,40
218.53148,218.64954,88,50,40
218.69815,218.94121,84,50,40
219.03148,219.69121,81,50,40
220.69815,220.81621,70,60,40
220.8648,220.98286,69,60,40
221.03148,221.14954,67,60,40
221.19815,221.31621,65,60,40
221.3648,221.48286,64,60,40
221.53148,221.64954,67,60,40
222.69815,222.81621,81,60,40
222.8648,222.98286,79,60,40
223.03148,223.14954,78,60,40
223.19815,223.31621,84,60,40
223.3648,223.6912,83,60,40
224.69815,224.8162,91,60,40
224.8648,224.98286,89,60,40
225.03148,225.14954,87,60,40
225.19814,225.3162,91,60,40
226.03148,226.14954,87,60,40
226.19814,226.3162,86,60,40
226.3648,226.48286,84,60,40
226.53148,226.64954,87,60,40
227.03148,227.14954,84,60,40
227.19814,227.3162,82,60,40
227.3648,227.48286,81,60,40
227.53148,227.64954,84,60,40
227.69814,227.8162,78,60,40
227.8648,227.98286,81,60,40
228.03148,228.1912,86,60,40
228.3648,228.48286,87,60,40
228.53148,228.64952,86,60,40
228.69814,228.8162,84,60,40
228.8648,228.98286,87,60,40
229.3648,229.48286,89,60,40
229.53148,229.64952,87,60,40
229.69814,229.8162,86,60,40
229.8648,229.98286,89,60,40
230.03148,230.14952,91,60,40
230.19814,230.3162,89,60,40
230.3648,230.48286,87,60,40
230.53146,230.64952,91,60,40
230.69814,230.8162,92,60,40
230.8648,230.98286,91,60,40
231.03146,231.14952,89,60,40
231.19814,231.3162,92,60,40
231.3648,231.48286,94,60,40
231.53146,231.64952,92,60,40
231.69814,231.8162,91,60,40
231.8648,231.98286,94,60,40
232.03146,232.14952,96,60,40
232.19814,232.3162,94,60,40
232.3648,232.48286,92,60,40
232.53146,232.64952,91,60,40
232.69814,232.8162,89,60,40
232.8648,232.98286,91,60,40
233.03146,233.14952,86,60,40
233.19814,233.3162,87,60,40
233.3648,233.48286,83,60,40
233.53146,233.64952,84,60,40
233.69814,233.8162,86,60,40
233.8648,233.98285,87,60,40
234.03146,234.14952,89,60,40
234.19814,234.3162,71,65,40
234.3648,234.48285,72,66,40
234.53146,234.64952,74,67,40
234.69814,234.8162,75,69,40
234.8648,234.98285,77,70,40
235.03146,235.14952,79,72,40
235.19814,235.3162,79,73,40
235.3648,235.48285,81,75,40
235.53146,235.64952,82,76,40
235.69814,235.8162,84,77,40
235.86479,235.98285,84,79,40
236.03146,236.14952,86,80,40
236.19814,236.3162,87,82,40
236.36479,236.48285,81,83,40
236.53146,236.64952,82,85,40
236.69814,236.8162,84,86,40
236.86479,236.98285,86,87,40
237.03146,237.14952,79,89,40
237.19814,237.3162,81,90,40
237.36479,237.48285,82,92,40
237.53146,237.64952,84,93,40
237.69814,237.8162,84,95,40
237.86479,237.98285,86,96,40
238.03146,238.14952,87,98,40
238.19814,238.3162,89,99,40
238.36479,238.48285,91,100,40
238.53146,238.64952,89,102,40
238.69814,238.81618,87,103,40
238.86479,238.98285,86,105,40
239.03146,239.14952,84,106,40
239.19814,239.31618,84,108,40
239.36479,239.48553,84,109,40
239.53525,239.65599,87,110,40
239.7057,239.8307,75,120,40
239.7057,239.8307,87,120,40
239.88217,240.01498,75,120,40
239.88217,240.01498,87,120,40
240.06967,240.43686,75,120,40
240.06967,240.43686,87,120,40
241.94467,242.06273,85,70,40
242.11134,242.2294,85,70,40
242.27802,242.52106,85,70,40
242.61134,242.8544,85,70,40
242.94467,243.06273,85,70,40
243.11134,243.2294,85,70,40
243.278,243.52106,85,70,40
243.61134,243.8544,85,70,40
243.94467,244.06273,85,70,40
244.11134,244.2294,85,70,40
244.278,244.39606,85,70,40
244.44467,244.56273,85,70,40
244.61134,244.7294,85,70,40
244.778,244.89606,85,70,40
244.94467,245.43773,85,70,40
251.94467,252.06271,80,70,40
252.11133,252.22939,77,70,40
252.278,252.39606,73,70,40
252.44467,252.56271,68,70,40
252.61133,252.72939,65,70,40
252.778,252.89606,61,70,40
252.94466,253.27106,60,70,40
253.278,254.27106,66,70,40
254.278,254.39606,65,70,40
254.44466,254.56271,80,70,40
254.61133,254.72939,85,70,40
254.778,254.89606,89,70,40
254.94466,255.06271,87,70,40
255.11133,255.22939,84,70,40
255.278,255.39606,85,70,40
255.44466,255.56271,82,70,40
255.61133,255.72939,87,70,40
255.778,255.89606,79,70,40
255.94466,256.9377,80,70,40
256.94467,257.9377,84,80,40
257.94467,258.0002,82,90,40
258.0002,258.05576,84,91,40
258.05576,258.11133,82,91,40
258.11133,258.19467,81,92,40
258.19467,258.2745,82,93,40
258.27798,258.60437,85,93,40
258.61133,258.9377,79,97,40
258.94467,259.60437,80,100,40
259.61133,259.9377,78,107,40
259.94467,261.8995,77,110,40
261.94464,262.0002,77,70,40
262.0002,262.05576,79,70,40
262.05576,262.11133,77,70,40
262.11133,262.16687,79,70,40
262.16687,262.22244,77,70,40
262.22244,262.27798,79,70,40
262.27798,262.33356,77,70,40
262.33356,262.3891,79,70,40
262.3891,262.44464,77,70,40
262.44464,262.5002,79,70,40
262.5002,262.55576,77,70,40
262.55576,262.61133,79,70,40
262.61133,262.66687,77,70,40
262.66687,262.72244,79,70,40
262.72244,262.77798,77,70,40
262.77798,262.83356,79,70,40
262.83356,262.8891,77,70,40
262.8891,262.94464,79,70,40
262.94464,263.0002,77,70,40
263.0002,263.05576,79,70,40
263.05576,263.11133,77,70,40
263.11133,263.16687,79,70,40
263.16687,263.22244,77,70,40
263.22244,263.27798,79,70,40
263.27798,263.33356,77,70,40
263.33356,263.3891,79,70,40
263.3891,263.44464,77,70,40
263.44464,263.5002,79,70,40
263.5002,263.55576,77,70,40
263.55576,263.61133,79,70,40
263.61133,263.66687,77,70,40
263.66687,263.72244,79,70,40
263.72244,263.77798,77,70,40
263.77798,263.83356,79,70,40
263.83356,263.8891,77,70,40
263.8891,263.94464,79,70,40
263.94464,264.0002,77,70,40
264.0002,264.05576,79,71,40
264.05576,264.11133,77,72,40
264.11133,264.16687,79,73,40
264.16687,264.22244,77,74,40
264.22244,264.27798,79,75,40
264.27798,264.33353,77,77,40
264.33353,264.3891,79,78,40
264.3891,264.44464,77,79,40
264.44464,264.5002,79,80,40
264.5002,264.55576,77,81,40
264.55576,264.61133,79,82,40
264.61133,264.66687,77,84,40
264.66687,264.72244,79,85,40
264.72244,264.77798,77,86,40
264.77798,264.83353,79,87,40
264.83353,264.8891,77,88,40
264.8891,264.94464,79,89,40
264.94464,265.0002,77,91,40
265.0002,265.05576,79,92,40
265.05576,265.11133,77,93,40
265.11133,265.16687,79,94,40
265.16687,265.22244,77,95,40
265.22244,265.27798,79,96,40
265.27798,265.33353,77,98,40
265.33353,265.3891,79,99,40
265.3891,265.44464,77,100,40
265.44464,265.5002,79,101,40
265.5002,265.55576,77,102,40
265.55576,265.61133,79,103,40
265.61133,265.66687,77,105,40
265.66687,265.72244,79,106,40
265.72244,265.77798,77,107,40
265.77798,265.83353,79,108,40
265.83353,265.8891,77,109,40
265.8891,265.94464,79,110,40
265.94464,266.0002,77,110,40
266.0002,266.05576,79,110,40
266.05576,266.11133,77,110,40
266.11133,266.16687,79,110,40
266.16687,266.22244,77,110,40
266.22244,266.27798,79,110,40
266.27798,266.33353,77,110,40
266.33353,266.3891,79,110,40
266.3891,266.44464,77,110,40
266.44464,266.5002,79,110,40
266.5002,266.60785,77,110,40
266.61133,266.66687,79,110,40
266.66687,266.72244,81,110,40
266.72244,266.77798,79,110,40
266.77798,266.83353,81,110,40
266.83353,266.8891,79,110,40
266.8891,266.94464,81,110,40
266.94464,267.0002,79,110,40
267.0002,267.05576,81,110,40
267.05576,267.11133,79,110,40
267.11133,267.16687,81,110,40
267.16687,267.2745,79,110,40
267.27798,267.3348,81,110,40
267.3348,267.39163,82,110,40
267.39163,267.44843,81,110,40
267.44843,267.50525,82,110,40
267.50525,267.56207,81,110,40
267.56207,267.6189,82,110,40
267.6189,267.6777,81,110,40
267.6777,267.73654,82,110,40
267.73654,267.79535,81,110,40
267.79535,267.8891,79,110,40
267.8891,267.97894,81,110,40
267.98285,268.11566,82,120,40
268.17035,268.28842,62,120,40
268.17035,268.28842,70,120,40
268.33704,268.58008,62,120,40
268.33704,268.58008,70,120,40
268.67035,268.91342,62,120,40
268.67035,268.91342,70,120,40
269.0037,269.12177,62,120,40
269.0037,269.12177,70,120,40
269.17035,269.28842,62,120,40
269.17035,269.28842,70,120,40
269.33704,269.58008,62,120,40
269.33704,269.58008,70,120,40
269.67035,269.91342,62,120,40
269.67035,269.91342,70,120,40
270.0037,270.12173,62,120,40
270.0037,270.12173,70,120,40
270.17035,270.28842,62,120,40
270.17035,270.28842,70,120,40
270.33704,270.45508,62,120,40
270.33704,270.45508,70,120,40
270.5037,270.62173,62,120,40
270.5037,270.62173,70,120,40
270.67035,270.78842,62,120,40
270.67035,270.78842,70,120,40
270.83704,270.95508,62,120,40
270.83704,270.95508,70,120,40
271.0037,271.99673,86,120,40
272.0037,272.12173,62,120,40
272.0037,272.12173,72,120,40
272.17035,272.28842,62,120,40
272.17035,272.28842,72,120,40
272.33704,272.45776,62,120,40
272.33704,272.45776,72,120,40
272.50748,272.6282,62,120,40
272.50748,272.6282,72,120,40
272.67795,272.80295,62,120,40
272.67795,272.80295,72,120,40
272.8544,272.9872,62,120,40
272.8544,272.9872,72,120,40
273.0419,274.3187,86,120,40
275.3276,275.44568,87,70,40
275.4943,275.61234,87,70,40
275.66095,275.779,87,70,40
275.8276,275.94568,87,70,40
275.9943,276.11234,87,70,40
276.16095,276.279,87,70,40
276.3276,276.44568,66,70,40
276.3276,276.44568,69,70,40
276.4943,276.61234,66,70,40
276.4943,276.61234,69,70,40
276.66095,276.779,66,70,40
276.66095,276.779,69,70,40
276.8276,276.94568,66,70,40
276.8276,276.94568,69,70,40
276.9943,277.11234,66,70,40
276.9943,277.11234,69,70,40
277.16095,277.279,66,70,40
277.16095,277.279,69,70,40
278.3276,278.654,55,100,40
278.8276,278.94568,74,70,40
278.9943,279.11234,79,70,40
279.16095,279.279,82,70,40
279.3276,279.4943,82,70,40
279.4943,279.66095,81,70,40
279.66095,279.82068,81,70,40
279.91095,279.9943,79,70,40
279.9943,280.154,78,70,40
280.2443,280.3276,74,70,40
280.3276,280.654,79,70,40
280.66095,280.98734,82,70,40
280.99426,281.48734,86,70,40
281.49426,281.65747,84,70,40
281.66095,281.82068,84,70,40
281.91095,281.99426,82,70,40
281.99426,282.154,81,70,40
282.24426,282.3276,79,70,40
282.3276,282.49426,79,70,40
282.49426,282.66095,78,70,40
282.66095,282.779,78,70,40
282.8276,282.94568,79,70,40
282.99426,283.11234,81,70,40
283.16095,283.279,75,70,40
283.3276,283.49426,75,70,40
283.49426,283.66095,74,70,40
283.66095,283.779,74,70,40
283.8276,283.94565,73,70,40
283.99426,284.11234,74,70,40
284.16095,284.279,73,70,40
284.3276,284.44833,74,70,40
284.49805,284.6188,75,70,40
284.66852,284.79352,74,70,40
284.845,284.97,75,70,40
285.02145,285.15427,74,70,40
285.20895,285.35062,75,70,40
285.40897,285.74277,74,70,40
285.74988,286.08368,74,77,40
286.0908,286.176,77,84,40
286.176,286.26123,76,86,40
286.26123,286.34647,74,88,40
286.34647,286.43167,76,90,40
286.43167,286.7655,77,92,40
286.77258,287.1064,77,99,40
287.1135,287.4473,77,107,40
287.4544,287.95868,77,110,40
287.9658,288.12912,78,92,40
288.13623,288.2996,79,86,40
288.30667,288.47003,75,80,40
288.47714,288.81094,74,70,40
288.81805,289.15186,74,70,40
289.15897,289.49277,74,70,40
289.49988,290.1746,74,70,40
290.18167,290.68594,82,84,40
290.69305,290.8635,79,96,40
290.8635,291.03397,81,99,40
291.03397,291.2044,84,103,40
291.2044,291.37488,82,107,40
291.37488,291.54532,87,110,40
291.54532,291.71576,86,110,40
291.71576,291.88623,81,104,40
291.88623,292.05667,82,98,40
292.05667,292.22714,78,92,40
292.22714,292.39758,79,86,40
292.39758,292.56805,75,80,40
292.56805,292.90186,74,70,40
292.90897,293.24277,74,70,40
293.24988,293.58368,74,70,40
293.59076,293.71152,74,50,40
293.76123,293.88196,74,50,40
293.93167,294.9473,74,50,40
294.9544,295.0738,74,50,40
295.12296,295.24234,74,50,40
295.29147,295.95862,74,50,40
295.96564,296.08502,74,50,40
296.1342,296.25357,74,50,40
296.30273,296.96985,74,50,40
296.97687,297.09494,74,50,40
297.14355,297.2616,74,50,40
297.3102,297.96994,74,50,40
297.97687,298.93173,72,110,40
298.97687,299.30325,69,50,40
299.3102,299.6366,70,50,40
299.64355,299.89355,67,50,40
299.89355,299.96994,72,100,40
299.97687,300.93173,72,110,40
300.97687,301.30325,69,50,40
301.3102,301.6366,70,50,40
301.64355,301.7616,67,50,40
301.8102,301.92825,67,50,40
301.97687,302.21994,67,50,40
302.3102,302.55325,67,50,40
302.64355,302.7616,67,50,40
302.8102,302.92825,67,50,40
302.97687,303.09494,67,50,40
303.14355,303.2616,67,50,40
303.3102,303.42825,67,50,40
303.47687,303.59494,67,50,40
303.64355,304.6366,67,50,40
304.64355,305.6366,69,50,40
305.64352,306.6366,70,50,40
306.64352,307.30325,61,50,40
307.3102,307.6366,60,50,40
307.64352,308.6366,65,50,40
308.64352,309.6366,62,50,40
309.64352,309.97736,60,50,40
309.98444,310.31824,62,50,40
310.32535,310.67093,64,50,40
310.67828,311.39365,65,50,40
311.80118,311.92474,72,50,40
311.97562,312.09366,77,50,40
312.14227,312.2603,81,50,40
312.30893,312.427,77,50,40
312.47562,312.59366,79,50,40
312.64227,312.7603,76,50,40
312.80893,313.052,77,50,40
313.14227,313.802,72,50,40
315.80893,315.927,69,50,40
315.9756,316.09366,72,50,40
316.14227,316.2603,77,50,40
316.30893,316.427,81,50,40
316.4756,316.59366,79,50,40
316.64227,316.7603,76,50,40
316.80893,316.927,77,50,40
316.9756,317.09366,81,50,40
317.14227,317.6353,84,50,40
317.64227,317.80197,86,50,40
317.80893,317.96866,84,50,40
317.9756,318.1353,81,59,40
318.14227,318.30197,77,68,40
318.30893,318.46866,79,77,40
318.4756,318.53116,77,86,40
318.53116,318.5867,79,90,40
318.5867,318.64227,77,93,40
318.64227,318.7256,76,96,40
318.7256,318.80545,77,70,40
318.80893,319.1353,76,50,40
320.80893,322.1353,71,50,40
322.14227,322.46866,68,50,40
322.4756,322.80197,69,50,40
322.80893,323.46866,64,50,40
328.4756,328.59363,89,110,40
328.64224,328.7603,88,110,40
328.80893,328.92697,86,110,40
328.9756,329.09363,84,110,40
329.14224,329.2603,83,110,40
329.30893,329.42697,81,110,40
329.4756,329.5963,80,110,40
329.64603,329.76678,83,110,40
329.8165,329.8753,79,110,40
329.8753,329.9893,77,110,40
329.99295,330.16208,76,110,40
330.16943,330.23193,67,110,40
330.23193,330.35303,65,110,40
330.35693,330.53662,64,110,40
330.54443,330.6111,67,110,40
330.6111,330.74026,65,110,40
330.74445,330.9498,64,110,40
330.9587,331.0837,57,110,40
330.9587,331.0837,69,110,40
331.1352,331.25323,57,110,40
331.1352,331.25323,69,110,40
331.30185,331.54492,57,110,40
331.30185,331.54492,69,110,40
331.6352,331.87823,57,110,40
331.6352,331.87823,69,110,40
331.96854,332.08658,57,110,40
331.96854,332.08658,69,110,40
332.1352,332.25323,57,110,40
332.1352,332.25323,69,110,40
332.30185,332.54492,57,110,40
332.30185,332.54492,69,110,40
332.6352,332.87823,57,110,40
332.6352,332.87823,69,110,40
332.96854,333.08658,57,110,40
332.96854,333.08658,69,110,40
333.1352,333.25323,57,110,40
333.1352,333.25323,69,110,40
333.30185,333.54492,57,110,40
333.30185,333.54492,69,110,40
333.6352,333.87823,57,110,40
333.6352,333.87823,69,110,40
333.96854,334.08658,57,125,40
333.96854,334.08658,68,125,40
334.1352,334.25323,57,116,40
334.1352,334.25323,68,116,40
334.30185,334.41992,57,110,40
334.30185,334.41992,68,110,40
334.46854,334.58658,57,110,40
334.46854,334.58658,68,110,40
334.6352,334.75323,57,110,40
334.6352,334.75323,68,110,40
334.80185,334.91992,57,110,40
334.80185,334.91992,68,110,40
334.9685,335.08658,69,120,40
334.9685,335.08658,57,120,40
335.1352,335.25323,81,120,40
335.1352,335.25323,69,120,40
335.30185,335.54492,69,120,40
335.30185,335.54492,81,120,40
335.6352,335.87823,69,120,40
335.6352,335.87823,81,120,40
335.9685,336.08658,81,120,40
335.9685,336.08658,69,120,40
336.1352,336.25323,81,120,40
336.1352,336.25323,69,120,40
336.30185,336.54492,69,120,40
336.30185,336.54492,81,120,40
336.6352,336.87823,69,120,40
336.6352,336.87823,81,120,40
336.9685,337.08658,81,120,40
336.9685,337.08658,69,120,40
337.1352,337.25323,81,120,40
337.1352,337.25323,69,120,40
337.30185,337.54492,69,120,40
337.30185,337.54492,81,120,40
337.6352,337.87823,69,120,40
337.6352,337.87823,81,120,40
337.9685,338.08658,69,120,40
337.9685,338.08658,83,120,40
338.1352,338.25323,69,120,40
338.1352,338.25323,83,120,40
338.30185,338.42258,69,120,40
338.30185,338.42258,83,120,40
338.47232,338.59305,69,120,40
338.47232,338.59305,83,120,40
338.64276,338.76776,69,120,40
338.64276,338.76776,83,120,40
338.81924,338.95206,69,120,40
338.81924,338.95206,83,120,40
339.00674,339.33313,69,100,40
339.00674,339.33313,81,100,40
340.6734,340.79144,74,50,40
340.6734,340.79144,77,50,40
340.84006,340.95813,74,50,40
340.84006,340.95813,77,50,40
341.0067,341.1248,77,100,40
341.1734,341.29144,82,100,40
341.34006,341.45813,86,100,40
341.5067,341.6248,82,100,40
341.6734,341.79144,84,100,40
341.84006,341.95813,81,100,40
342.0067,342.2498,82,100,40
342.34006,342.9998,77,100,40
343.0067,343.1248,79,100,40
343.1734,343.29144,77,100,40
343.34006,343.45813,75,100,40
343.5067,343.6248,74,100,40
343.6734,343.79144,72,100,40
343.84006,343.9581,77,100,40
344.0067,344.2498,74,100,40
344.34006,344.9998,70,100,40
345.0067,345.1248,74,100,40
345.1734,345.29144,77,100,40
345.34006,345.4581,82,100,40
345.5067,345.6248,86,100,40
345.6734,345.79144,84,100,40
345.84006,345.9581,81,100,40
346.0067,346.1248,82,100,40
346.1734,346.29144,86,100,40
346.34006,346.8331,89,100,40
346.84006,346.9998,91,100,40
347.0067,347.1248,89,70,40
347.1734,347.29144,86,70,40
347.34006,347.4581,82,70,40
347.5067,347.6248,84,70,40
347.6734,347.72894,82,110,40
347.72894,347.7845,84,104,40
347.7845,347.84006,82,97,40
347.84006,347.9234,81,90,40
347.9234,348.00323,82,80,40
348.0067,348.3331,81,70,40
349.0067,349.1248,87,70,40
349.1734,349.29144,84,70,40
349.34006,349.4581,81,70,40
349.5067,349.6248,82,70,40
349.6734,349.72894,81,110,40
349.72894,349.7845,82,104,40
349.7845,349.84006,81,97,40
349.84006,349.9234,79,90,40
349.9234,350.00323,81,80,40
351.0067,351.1248,82,70,40
351.17337,351.29144,79,70,40
351.34006,351.4581,72,70,40
351.5067,351.6248,74,70,40
351.67337,351.72894,72,110,40
351.72894,351.7845,74,104,40
351.7845,351.84006,72,97,40
351.84006,351.92337,71,90,40
351.92337,352.00323,72,80,40
352.67337,352.79144,82,110,40
352.84006,352.9581,84,90,40
353.0067,353.1248,81,70,40
353.17337,353.29144,77,70,40
353.34006,353.4581,72,70,40
353.5067,353.6248,74,70,40
353.67337,353.72894,72,110,40
353.72894,353.7845,74,104,40
353.7845,353.84006,72,97,40
353.84006,353.92337,71,90,40
353.92337,354.00323,72,80,40
354.67337,354.79144,82,110,40
354.84006,354.9581,84,90,40
355.0067,355.12476,81,70,40
355.17337,355.29144,77,110,40
355.34006,355.4581,74,110,40
355.5067,355.62476,72,110,40
356.0067,356.12476,62,110,40
356.17337,356.29144,60,110,40
358.16992,358.43463,70,70,40
358.43463,358.52286,72,76,40
358.52286,358.84924,73,78,40
358.8562,359.1826,75,86,40
359.18954,359.84924,77,94,40
359.8562,360.1826,78,110,40
360.18954,360.3076,80,110,40
360.3562,360.47424,78,104,40
360.52286,360.64093,77,97,40
360.68954,360.8076,75,90,40
360.8562,360.97424,73,83,40
361.02286,361.14093,72,76,40
361.18954,361.3076,73,70,40
361.3562,361.47424,72,70,40
361.52286,361.64093,70,70,40
362.18954,363.84924,82,110,40
363.8562,364.51593,82,110,40
364.52286,364.64093,85,97,40
364.6895,364.8076,84,90,40
364.8562,364.97424,82,83,40
365.02286,365.14093,81,76,40
365.1895,365.51593,82,70,40
365.8562,366.1826,73,70,40
366.1895,366.4395,72,70,40
366.4395,366.52286,70,70,40
366.52286,366.84924,69,70,40
366.8562,367.1826,72,70,40
367.1895,367.84924,70,70,40
367.8562,368.1826,77,70,40
368.1895,368.4395,75,70,40
368.4395,368.52286,73,70,40
368.52286,368.84924,72,70,40
368.8562,369.1826,75,70,40
369.1895,369.84924,73,70,40
369.8562,370.1826,80,70,40
370.1895,370.4395,79,70,40
370.4395,370.52286,77,70,40
370.52286,370.84924,76,70,40
370.8562,371.1826,79,70,40
371.1895,371.84924,77,70,40
371.8562,372.1826,79,86,40
372.1895,372.84924,81,94,40
372.8562,373.1826,82,110,40
373.1895,373.3076,84,110,40
373.35617,373.47424,88,110,40
373.52286,373.6409,88,110,40
373.6895,373.8076,88,110,40
373.85617,373.97424,88,110,40
374.02286,374.1409,88,110,40
374.1895,374.3076,89,110,40
374.35617,374.47424,89,110,40
374.52286,374.6436,89,110,40
374.6933,374.81406,87,110,40
374.86377,374.98877,85,110,40
375.04022,375.17303,84,110,40
375.22772,375.47772,82,110,40
375.47772,375.56107,84,110,40
375.56107,375.88745,85,110,40
375.8944,376.2208,87,110,40
376.22772,376.88745,89,110,40
376.8944,377.2208,90,110,40
377.22772,377.3458,92,110,40
377.3944,377.51245,90,110,40
377.56107,377.6791,89,110,40
377.72772,377.8458,87,110,40
377.8944,378.01245,85,110,40
378.06107,378.1791,84,110,40
378.22772,378.3458,82,100,40
378.3944,378.51245,65,70,40
378.56107,378.6791,65,70,40
378.72772,378.8458,65,70,40
378.89438,379.01245,65,70,40
379.06107,379.1791,65,70,40
379.22772,379.3458,63,70,40
379.39438,379.51245,65,70,40
379.56107,379.6791,60,70,40
379.72772,379.8458,65,70,40
379.89438,380.01245,77,70,40
380.06107,380.1791,77,70,40
380.22772,380.3458,77,70,40
380.39438,380.51245,77,70,40
380.56107,380.6791,77,70,40
380.72772,380.8458,77,70,40
380.89438,381.01245,68,70,40
381.06107,381.1791,68,70,40
381.22772,381.3458,68,70,40
381.39438,381.51245,68,70,40
381.56107,381.6791,68,70,40
381.72772,381.8458,68,70,40
381.89438,382.01245,80,70,40
382.06107,382.1791,80,70,40
382.22772,382.34576,80,70,40
382.39438,382.51245,80,70,40
382.56107,382.6791,80,70,40
382.72772,382.84576,80,70,40
382.89438,383.01245,72,70,40
383.06107,383.1791,72,70,40
383.22772,383.34576,70,70,40
383.39438,383.51245,72,70,40
383.56107,383.6791,67,70,40
383.72772,383.84576,72,70,40
383.89438,384.01245,72,70,40
384.06107,384.1791,72,70,40
384.22772,384.34576,72,70,40
384.39438,384.51245,77,70,40
384.56107,384.6791,77,70,40
384.72772,384.84576,89,70,40
384.89438,385.01245,89,70,40
385.06107,385.1791,89,70,40
385.22772,385.34576,89,70,40
385.39438,385.51245,89,70,40
385.56107,385.6791,89,70,40
385.72772,385.84576,89,70,40
385.89438,386.01245,89,70,40
386.06107,386.1791,89,70,40
386.22772,386.34576,89,70,40
386.39438,386.51245,89,70,40
386.56107,386.6791,89,70,40
386.72772,386.84576,89,70,40
386.89438,387.01245,89,70,40
387.06107,387.1791,89,70,40
387.22772,387.34576,89,70,40
387.39438,387.51245,89,70,40
387.56107,387.6818,89,70,40
387.7315,387.85223,77,70,40
387.90195,388.02695,79,70,40
388.07843,388.21124,81,70,40
388.26593,388.51593,82,70,40
388.51593,388.59927,84,70,40
388.59927,388.92566,85,70,40
388.9326,389.25897,87,70,40
389.26593,389.92566,89,70,40
389.9326,390.25897,90,70,40
390.26593,390.38397,92,70,40
390.4326,390.55066,90,70,40
390.59927,390.71732,89,70,40
390.76593,390.88397,87,70,40
390.9326,391.05066,85,70,40
391.09927,391.21732,84,70,40
391.26593,391.38397,85,70,40
391.4326,391.55066,84,70,40
391.59927,391.71732,82,70,40
394.09927,394.25897,65,50,40
394.26593,394.38397,70,50,40
394.4326,394.55066,73,50,40
394.59924,394.84232,73,50,40
394.9326,395.17566,73,50,40
395.26593,395.38397,72,50,40
395.4326,395.55066,72,50,40
395.59924,395.84232,72,50,40
395.9326,396.17566,72,50,40
396.26593,396.38666,73,70,40
396.43637,396.55713,85,73,40
396.60684,396.72757,85,76,40
396.77728,396.898,85,80,40
396.94775,397.06848,87,83,40
397.1182,397.23892,87,87,40
397.28864,397.4094,87,90,40
397.4591,397.57983,87,93,40
397.62955,397.75455,87,97,40
397.80603,397.93103,87,100,40
397.9825,398.1105,85,104,40
398.1632,398.29602,85,107,40
398.3507,400.84378,85,110,40
400.8507,401.17712,85,70,40
401.18405,401.51044,85,70,40
401.5174,401.84378,83,70,40
401.8507,402.1771,83,70,40
402.18405,402.51044,83,70,40
402.5174,402.84378,82,70,40
402.8507,403.1771,82,70,40
403.18405,403.51044,82,70,40
403.5174,403.84378,82,70,40
403.8507,403.96878,78,70,40
404.0174,404.13812,82,70,40
404.18784,404.30856,85,70,40
404.52875,404.86255,82,70,40
404.86966,405.20346,82,70,40
405.21057,405.54437,82,70,40
405.55148,405.88528,82,70,40
405.8924,406.01312,77,70,40
406.06284,406.18784,82,70,40
406.23932,406.36432,85,70,40
406.59225,406.94193,70,69,40
406.59225,406.94193,82,69,40
406.94943,407.07745,76,77,40
407.13016,407.26297,79,81,40
407.31766,407.45047,82,85,40
407.69266,408.05984,70,94,40
407.69266,408.05984,82,94,40
408.06766,408.20047,73,102,40
408.25516,408.3914,77,106,40
408.44748,408.58914,82,110,40
408.64746,408.97385,70,70,40
408.64746,408.97385,82,70,40
415.9808,416.09885,75,70,40
416.14746,416.26553,74,70,40
416.31412,416.4322,77,70,40
416.4808,416.59885,69,70,40
416.64746,416.76553,70,70,40
416.81412,416.9322,74,71,40
416.9808,417.09885,77,73,40
417.14746,417.26553,74,75,40
417.31412,417.4322,75,77,40
417.4808,417.59885,72,78,40
417.64746,417.76553,79,80,40
417.81412,417.9322,76,82,40
417.9808,418.09885,77,84,40
418.14746,418.26553,74,86,40
418.31412,418.4322,80,87,40
418.4808,418.59885,77,89,40
418.64746,418.7655,79,91,40
418.81412,418.9322,75,93,40
418.9808,419.09885,82,94,40
419.14746,419.2655,79,96,40
419.31412,419.4322,81,98,40
419.4808,419.59885,77,100,40
419.64746,419.7655,84,102,40
419.81412,419.9322,81,103,40
419.9808,420.09885,82,105,40
420.14746,420.2655,79,107,40
420.31412,420.4322,87,109,40
420.4808,420.59885,87,110,40
420.64746,420.7655,87,110,40
420.81412,420.9322,87,110,40
420.9808,421.09885,87,110,40
421.14746,421.2655,87,110,40
421.31412,421.4322,87,110,40
421.4808,421.59885,87,110,40
421.64746,421.7655,87,110,40
421.81412,421.9322,87,110,40
421.9808,422.09885,87,110,40
422.14746,422.2655,87,110,40
422.31412,422.4322,87,110,40
422.4808,422.59885,87,110,40
422.64746,422.7655,88,110,40
422.81412,422.9322,88,110,40
422.9808,423.09885,88,110,40
423.14746,423.2655,88,110,40
423.31412,423.4322,88,110,40
423.4808,423.59885,88,110,40
423.64746,423.7655,89,120,40
423.81412,423.9322,89,120,40
423.9808,424.10153,89,120,40
424.15125,424.27197,89,120,40
424.3217,424.4467,89,120,40
424.49817,424.63098,89,120,40
424.68567,425.6787,70,70,40
425.68567,426.6787,74,70,40
426.68567,427.01205,72,70,40
427.019,427.3454,75,70,40
427.35233,427.6787,69,70,40
427.68567,428.1787,70,70,40
428.18567,428.3037,77,50,40
428.35233,428.4704,82,50,40
428.519,428.63705,86,50,40
428.68567,428.8037,84,50,40
428.85233,428.9704,82,50,40
429.019,429.13705,81,50,40
432.12952,432.4967,77,70,40
432.50452,432.8717,75,70,40
432.87952,432.96674,75,70,40
432.96674,433.05392,77,70,40
433.05392,433.13727,75,70,40
433.13727,433.2206,77,70,40
433.2206,433.30392,75,70,40
433.30392,433.38727,77,70,40
433.38727,433.4706,75,70,40
433.4706,433.55392,77,70,40
433.55392,433.63727,75,70,40
433.63727,433.7206,77,70,40
433.7206,433.80392,75,70,40
433.80392,433.88727,77,70,40
433.88727,433.9706,75,70,40
433.9706,434.05392,77,70,40
434.05392,434.13727,75,70,40
434.13727,434.2206,77,70,40
434.2206,434.30392,75,70,40
434.30392,434.38727,77,70,40
434.38727,434.4706,75,70,40
434.4706,434.55392,77,70,40
434.55392,434.63727,75,70,40
434.63727,434.7206,77,70,40
434.7206,434.80392,75,70,40
434.80392,434.88727,77,70,40
434.88727,434.9706,75,70,40
434.9706,435.05392,77,70,40
435.05392,435.13727,75,70,40
435.13727,435.2206,77,70,40
435.2206,435.30392,75,70,40
435.30392,435.38727,77,70,40
435.38727,435.4706,75,70,40
435.4706,435.55392,77,70,40
435.55392,435.63727,75,70,40
435.63727,435.7206,77,70,40
435.7206,435.80392,75,70,40
435.80392,435.88727,77,70,40
435.88727,435.9706,75,70,40
435.9706,436.05392,77,70,40
436.05392,436.13727,75,70,40
436.13727,436.22058,74,70,40
436.22058,436.547,75,70,40
439.38727,439.5053,89,50,40
439.55392,439.67465,91,50,40
439.7244,439.84512,86,50,40
439.89484,440.60168,87,50,40
440.60922,440.9764,85,50,40
440.98422,441.97726,83,50,40
441.98422,442.97726,87,66,40
442.98422,443.03976,85,83,40
443.03976,443.09534,87,84,40
443.09534,443.15088,85,85,40
443.15088,443.23422,84,86,40
443.23422,443.3141,85,87,40
443.31757,443.64395,88,88,40
443.65088,443.97726,82,94,40
443.98422,444.64395,83,99,40
444.65088,444.97726,82,110,40
444.98422,446.8974,81,110,40
446.98422,447.3106,82,70,40
447.31754,447.64395,81,70,40
447.65088,447.97726,82,70,40
447.98422,448.23422,87,70,40
448.23422,448.31754,84,70,40
448.31754,448.64395,82,70,40
448.65088,448.97726,81,70,40
448.98422,449.3106,89,70,40
449.31754,449.64392,87,76,40
449.65088,449.97726,86,82,40
449.98422,450.23422,91,88,40
450.23422,450.31754,87,100,40
450.31754,450.64392,86,94,40
450.65088,450.98468,84,100,40
450.9918,451.1168,69,120,40
450.9918,451.1168,84,120,40
451.16824,451.29324,69,120,40
451.16824,451.29324,84,120,40
451.34473,451.6903,69,120,40
451.34473,451.6903,84,120,40
453.10944,453.26123,69,70,40
453.32373,453.4755,69,70,40
453.538,453.95764,69,70,40
455.68085,456.0185,67,70,40
456.0257,456.36334,66,70,40
456.3705,456.70816,64,70,40
456.71533,456.97397,69,70,40
456.97397,457.06018,66,70,40
457.06018,457.39783,64,70,40
457.405,457.74265,63,70,40
457.74982,458.08746,71,70,40
458.09467,458.43228,69,70,40
458.43948,458.77713,67,70,40
458.7843,459.04294,72,70,40
459.04294,459.12912,69,70,40
459.12912,459.47473,67,70,40
459.4821,459.84927,66,70,40
459.8571,459.97513,66,50,40
460.02374,460.14178,66,50,40
460.1904,460.30847,66,50,40
460.3571,460.47513,66,50,40
460.52374,460.64178,66,50,40
460.6904,460.80847,66,50,40
460.8571,460.97513,66,50,40
461.02374,461.14178,66,50,40
461.1904,461.30847,66,50,40
461.3571,461.47513,66,50,40
461.52374,461.64178,66,50,40
461.6904,461.80847,66,50,40
461.8571,461.97513,66,50,40
462.02374,462.14178,66,50,40
462.1904,462.30847,66,50,40
462.3571,462.47513,66,50,40
462.52374,462.64178,66,50,40
462.6904,462.80847,66,50,40
462.8571,462.97513,67,50,40
463.02374,463.14178,67,50,40
463.1904,463.30847,68,50,40
463.3571,463.47513,68,50,40
463.52374,463.64178,69,50,40
463.6904,463.80847,69,50,40
463.8571,463.97513,75,50,40
464.02374,464.14178,75,50,40
464.1904,464.30847,75,50,40
464.3571,464.47513,75,50,40
464.52374,464.64178,75,50,40
464.6904,464.80847,75,50,40
464.85706,464.97513,81,50,40
464.85706,464.97513,72,50,40
465.02374,465.14178,81,50,40
465.02374,465.14178,72,50,40
465.1904,465.31116,81,50,40
465.1904,465.31116,72,50,40
465.36087,465.4816,81,50,40
465.36087,465.4816,72,50,40
465.5313,465.6563,81,50,40
465.5313,465.6563,72,50,40
465.7078,465.8406,81,50,40
465.7078,465.8406,72,50,40
465.8953,466.01334,74,50,40
465.8953,466.01334,82,50,40
466.06195,466.18,82,50,40
466.2286,466.34668,82,50,40
466.3953,466.51334,77,50,40
466.56195,466.68,82,50,40
466.7286,466.84668,86,50,40
466.8953,467.01334,84,50,40
467.06195,467.18,82,50,40
467.2286,467.34668,81,50,40
467.3953,467.51334,79,50,40
467.56195,467.68,81,50,40
467.7286,467.84668,77,50,40
467.8953,468.01334,82,50,40
468.06195,468.18,86,50,40
468.2286,468.34668,89,50,40
468.3953,468.51334,89,50,40
468.56195,468.68,89,50,40
468.7286,468.84668,89,50,40
468.8953,469.01334,89,50,40
469.06195,469.18,89,50,40
469.2286,469.34668,89,50,40
469.3953,469.51334,89,50,40
469.56195,469.68,89,50,40
469.7286,469.84668,89,50,40
469.8953,470.01334,89,50,40
470.06195,470.18,89,50,40
470.2286,470.34668,89,50,40
470.39526,470.51334,89,50,40
470.56195,470.68,89,50,40
470.7286,470.84668,89,50,40
470.89526,470.9786,89,50,40
470.9786,471.06195,91,50,40
471.06195,471.14526,89,50,40
471.14526,471.2286,91,50,40
471.2286,471.31195,89,50,40
471.31195,471.39526,91,50,40
471.39526,471.4786,89,50,40
471.4786,471.56195,91,50,40
471.56195,471.64526,89,50,40
471.64526,471.7286,91,50,40
471.7286,471.81195,89,50,40
471.81195,471.89526,91,50,40
471.89526,471.9786,89,50,40
471.9786,472.06195,91,50,40
472.06195,472.14526,89,50,40
472.14526,472.2286,91,50,40
472.2286,472.31195,89,50,40
472.31195,472.39526,91,50,40
472.39526,472.4786,89,50,40
472.4786,472.56195,91,50,40
472.56195,472.64716,89,50,40
472.64716,472.7324,91,50,40
472.7324,472.81763,89,50,40
472.81763,472.90286,91,50,40
472.90286,472.9911,89,50,40
472.9911,473.0793,91,50,40
473.0793,473.16757,89,50,40
473.16757,473.2558,91,50,40
473.2558,473.4249,89,50,40
473.43225,473.55725,82,50,40
473.60873,473.74155,86,50,40
473.79623,473.92905,89,50,40
473.98373,474.35092,94,50,40
476.23373,476.41342,78,50,40
476.42123,476.60092,78,50,40
476.60873,476.97592,78,50,40
479.70874,479.88193,58,120,40
479.70874,479.88193,62,120,40
479.88947,480.06265,58,120,40
479.88947,480.06265,62,120,40
480.0702,480.24338,58,120,40
480.0702,480.24338,62,120,40
480.25092,480.4306,58,120,40
480.25092,480.4306,62,120,40
480.43842,480.6251,58,120,40
480.43842,480.6251,62,120,40
480.6332,480.83856,58,120,40
480.6332,480.83856,62,120,40
480.8475,481.99332,62,120,40
480.8475,481.99332,74,120,40
482.00134,483.27814,86,120,40
483.28705,484.56384,62,120,40
487.3585,487.56384,70,1,40
3.530634,3.6486895,65,50,40
3.6973004,3.815356,70,50,40
3.863967,3.9820225,74,50,40
4.0306334,4.148689,72,50,40
4.1973,4.3153553,70,50,40
4.3639665,4.482022,69,50,40
4.530633,4.6486883,67,50,40
4.6972995,4.815355,69,50,40
4.863966,4.9820213,65,50,40
5.0306325,5.148688,70,50,40
5.197299,5.3153543,74,50,40
5.3639655,5.863965,77,50,40
5.863965,5.9820204,74,50,40
6.0306315,6.148687,72,50,40
6.197298,6.3153534,69,50,40
6.3639646,6.484703,70,50,40
6.534419,6.6551576,67,50,40
6.7048736,6.8298736,72,50,40
6.881344,7.0141563,64,50,40
7.068844,8.186031,65,50,40
17.395264,17.513319,71,63,40
17.56193,17.679985,71,65,40
17.728596,17.971651,71,67,40
18.06193,18.304985,71,72,40
18.395262,18.513317,71,76,40
18.561928,18.679983,71,78,40
18.728596,18.971651,71,81,40
19.061928,19.304983,71,85,40
19.395262,19.513317,71,89,40
19.561928,19.679983,71,92,40
19.728594,19.84665,71,94,40
19.89526,20.013315,71,96,40
20.061928,20.185472,71,98,40
20.236345,20.369158,71,100,40
20.423845,22.623064,69,110,40
22.673845,23.000235,70,70,40
23.00718,23.333567,69,70,40
23.340511,23.6669,67,70,40
23.673845,24.000233,67,70,40
24.007177,24.333567,65,70,40
24.340511,24.666899,63,70,40
24.673843,25.000233,65,70,40
25.007177,25.333565,63,70,40
25.34051,25.666899,62,70,40
25.673843,25.923841,67,70,40
25.923841,26.007175,63,70,40
26.007175,26.333565,62,70,40
26.34051,26.666897,60,70,40
26.673841,26.931835,65,110,40
26.935469,27.022678,65,110,40
27.022678,27.277039,67,110,40
28.095352,28.46254,63,70,40
28.845352,28.963408,58,120,40
28.845352,28.963408,62,120,40
29.012018,29.130074,58,120,40
29.012018,29.130074,62,120,40
29.178686,29.421741,58,120,40
29.178686,29.421741,62,120,40
29.512018,29.755074,58,120,40
29.512018,29.755074,62,120,40
29.845352,29.963408,58,120,40
29.845352,29.963408,62,120,40
30.012018,30.130074,58,120,40
30.012018,30.130074,62,120,40
30.178684,30.42174,58,120,40
30.178684,30.42174,62,120,40
30.512018,30.755074,58,120,40
30.512018,30.755074,62,120,40
30.84535,30.963406,58,120,40
30.84535,30.963406,62,120,40
31.012016,31.130072,58,120,40
31.012016,31.130072,62,120,40
31.178684,31.29674,58,120,40
31.178684,31.29674,62,120,40
31.34535,31.463406,58,120,40
31.34535,31.463406,62,120,40
31.512016,31.630072,58,120,40
31.512016,31.630072,62,120,40
31.678682,31.796738,58,120,40
31.678682,31.796738,62,120,40
31.84535,32.838406,70,120,40
32.84535,32.963406,60,120,40
32.84535,32.963406,62,120,40
33.012016,33.13007,60,120,40
33.012016,33.13007,62,120,40
33.17868,33.296738,60,120,40
33.17868,33.296738,62,120,40
33.34535,33.4634,60,120,40
33.34535,33.4634,62,120,40
33.512016,33.63007,60,120,40
33.512016,33.63007,62,120,40
33.67868,33.796738,60,120,40
33.67868,33.796738,62,120,40
33.84535,34.8384,72,120,40
34.84535,34.9634,67,70,40
34.84535,34.9634,70,70,40
35.012012,35.13007,67,70,40
35.012012,35.13007,70,70,40
35.17868,35.296734,67,70,40
35.17868,35.296734,70,70,40
35.345345,35.4634,67,70,40
35.345345,35.4634,70,70,40
35.512012,35.63007,67,70,40
35.512012,35.63007,70,70,40
35.67868,35.796734,67,70,40
35.67868,35.796734,70,70,40
38.883556,39.00161,65,100,40
39.050224,39.168278,65,70,40
39.21689,39.334946,65,70,40
39.383556,39.50161,65,70,40
39.55022,39.668278,65,70,40
39.71689,39.834946,65,70,40
39.883556,40.00161,67,70,40
40.05022,40.168278,67,70,40
40.21689,40.33494,67,70,40
40.383556,40.50161,67,70,40
40.55022,40.668278,67,70,40
40.71689,40.83494,67,70,40
40.883553,41.00161,69,70,40
41.05022,41.168278,69,70,40
41.21689,41.33494,69,70,40
41.383553,41.50161,69,70,40
41.55022,41.668274,69,70,40
41.716885,41.83494,69,70,40
41.883553,42.00161,70,70,40
42.05022,42.168274,70,70,40
42.216885,42.33494,70,70,40
42.383553,42.50161,70,70,40
42.55022,42.668274,71,70,40
42.716885,42.83494,71,70,40
42.883553,43.20994,64,70,40
43.716885,43.876606,65,70,40
43.883553,44.209938,64,70,40
45.921764,46.961006,65,70,40
46.968273,47.472534,64,90,40
47.479637,47.650093,67,100,40
47.650093,47.820545,65,104,40
47.820545,47.991,70,107,40
47.991,48.665718,69,110,40
48.672817,48.843273,69,70,40
48.843273,49.01373,67,70,40
49.01373,49.347534,64,70,40
49.354637,49.688442,64,70,40
49.695545,50.029354,64,70,40
50.036453,50.71117,65,70,40
51.40009,51.7339,72,97,40
51.741,52.074806,72,104,40
52.08191,52.58617,72,110,40
52.593273,52.930878,69,87,40
52.938145,53.111336,62,71,40
53.118866,53.634857,61,70,40
53.642124,53.816544,61,70,40
53.816544,53.99096,62,70,40
53.99096,54.16538,64,70,40
54.16538,54.288925,65,50,40
54.339798,54.463345,64,50,40
54.514217,55.55346,65,50,40
55.560726,55.684273,64,50,40
55.735146,55.858692,65,50,40
55.909565,56.59997,64,50,40
56.60724,56.730785,62,50,40
56.781654,56.9052,67,50,40
56.956074,57.64648,65,50,40
57.653748,57.777294,67,70,40
57.828167,57.951714,65,70,40
58.002586,58.344154,64,70,40
58.35142,58.692993,65,70,40
58.70026,59.69953,63,110,40
59.74677,60.08834,61,70,40
60.095608,60.437176,62,70,40
60.444447,60.706074,62,70,40
60.706074,60.786015,65,90,40
60.79328,61.13485,65,110,40
61.14212,61.792553,63,110,40
61.839794,62.193707,61,70,40
62.201237,62.568424,62,70,40
62.576237,62.735962,62,70,40
62.742905,62.902626,62,70,40
62.909573,63.23596,62,70,40
63.242905,63.569294,62,70,40
63.576237,63.73596,62,70,40
63.742905,63.902626,62,70,40
63.90957,64.23596,62,70,40
64.242905,64.56929,62,70,40
64.57623,64.73596,62,70,40
64.742905,64.902626,62,70,40
64.90957,65.07292,62,70,40
65.080025,65.24338,62,70,40
65.25048,65.41959,62,70,40
65.42695,65.606636,62,70,40
65.61445,66.607506,62,70,40
66.61445,67.63007,60,70,40
67.63718,68.32758,66,70,40
68.33485,68.702034,65,60,40
68.70985,69.36957,58,50,40
72.87306,72.99111,65,50,40
73.03973,73.15778,70,50,40
73.20639,73.32445,74,50,40
73.37306,73.49111,70,50,40
73.53973,73.65778,72,50,40
73.70639,73.82445,69,50,40
73.873055,74.11611,70,50,40
74.20639,74.86611,65,50,40
76.873055,76.99111,62,50,40
77.03972,77.157776,65,50,40
77.20639,77.32444,70,50,40
77.373055,77.49111,74,50,40
77.53972,77.657776,72,50,40
77.70639,77.82444,69,50,40
77.873055,77.99111,70,50,40
78.03972,78.157776,74,50,40
78.20639,78.69944,77,50,40
78.70639,78.86611,79,50,40
78.873055,78.99111,77,50,40
79.03972,79.157776,74,50,40
79.20638,79.32444,70,63,40
79.373055,79.49111,72,77,40
79.53972,79.595276,70,90,40
79.595276,79.65083,72,90,40
79.65083,79.70638,70,90,40
79.70638,79.78972,69,90,40
79.78972,79.86958,70,90,40
79.873055,83.866104,69,50,40
85.87305,85.991104,78,50,40
86.03971,86.15777,76,50,40
86.20638,86.32443,74,50,40
86.37305,86.491104,73,50,40
86.53971,86.65777,71,50,40
86.706375,86.82443,76,50,40
86.87305,87.116104,73,50,40
87.206375,87.8661,69,50,40
89.53971,89.65777,70,110,40
89.706375,89.82443,69,110,40
89.87304,89.9911,67,110,40
90.03971,90.15776,65,110,40
90.206375,90.32443,64,110,40
90.37304,90.4911,62,110,40
90.53971,90.65776,61,110,40
90.706375,90.82443,64,110,40
92.96934,93.12906,75,120,40
93.136,93.29573,75,120,40
93.30267,93.462395,75,120,40
93.96934,94.12906,74,120,40
94.136,94.29572,74,120,40
94.30267,94.462395,74,120,40
94.96934,95.96239,79,120,40
95.96934,96.29572,78,120,40
96.302666,96.42072,81,120,40
96.46934,96.58739,81,120,40
96.96934,97.08739,81,120,40
97.136,97.25406,81,120,40
97.636,97.75406,81,120,40
97.802666,97.92072,81,120,40
98.302666,98.42072,82,120,40
98.46933,98.58739,82,120,40
98.96933,99.08739,76,120,40
98.96933,99.08739,85,120,40
99.136,99.25405,76,120,40
99.136,99.25405,85,120,40
99.302666,99.4234,76,120,40
99.302666,99.4234,85,120,40
99.47312,99.59386,76,120,40
99.47312,99.59386,85,120,40
99.64358,99.76858,76,120,40
99.64358,99.76858,85,120,40
99.820045,99.95286,76,100,40
99.820045,99.95286,85,100,40
100.007545,100.1256,86,80,40
100.17421,100.29227,62,50,40
100.34088,100.45893,62,50,40
100.507545,100.6256,62,50,40
100.67421,100.79227,62,50,40
100.84087,100.95893,62,50,40
101.007545,101.1256,60,50,40
101.17421,101.29227,60,50,40
101.34087,101.45893,66,50,40
101.507545,101.625595,66,50,40
101.67421,101.79227,65,50,40
101.84087,101.95893,65,50,40
102.007545,102.125595,65,120,40
102.17421,102.29227,70,120,40
102.34087,102.45893,74,120,40
102.507545,102.625595,70,120,40
102.67421,102.79227,72,120,40
102.84087,102.95893,69,120,40
103.007545,103.250595,70,120,40
103.34087,104.000595,65,120,40
104.00754,104.125595,67,120,40
104.17421,104.29226,65,120,40
104.34087,104.45893,63,120,40
104.50754,104.625595,62,120,40
104.67421,104.79226,60,120,40
104.84087,104.95893,65,120,40
105.00754,105.250595,62,120,40
105.34087,106.000595,58,120,40
106.00754,106.125595,62,120,40
106.1742,106.29226,65,120,40
106.34087,106.45893,70,120,40
106.50754,106.625595,74,120,40
106.6742,106.79226,72,120,40
106.84087,106.95892,69,120,40
107.00754,107.125595,70,120,40
107.1742,107.29226,74,120,40
107.34087,107.83392,77,120,40
107.84087,108.000595,79,120,40
108.00754,108.125595,77,120,40
108.1742,108.29226,74,120,40
108.340866,108.45892,70,120,40
108.50754,108.625595,72,120,40
108.6742,108.72976,70,120,40
108.72976,108.78532,72,120,40
108.78532,108.840866,70,120,40
108.840866,108.9242,69,120,40
108.9242,109.00407,70,120,40
109.00754,109.66726,69,120,40
109.6742,109.79226,81,70,40
109.840866,109.95892,82,70,40
110.00754,110.12559,81,70,40
110.1742,110.29226,77,70,40
110.340866,110.45892,74,70,40
110.50754,110.62559,76,70,40
110.6742,110.72976,74,70,40
110.72976,110.78531,76,70,40
110.78531,110.840866,74,70,40
110.840866,110.9242,72,70,40
110.9242,111.00406,74,70,40
111.00753,111.66725,72,70,40
111.6742,111.79225,72,110,40
111.840866,111.95892,74,110,40
112.00753,112.12559,72,110,40
112.1742,112.29225,69,110,40
112.340866,112.45892,65,110,40
112.50753,112.62559,67,110,40
112.6742,112.72975,65,110,40
112.72975,112.78531,67,110,40
112.78531,112.840866,65,110,40
112.840866,112.9242,64,110,40
112.9242,113.00406,65,110,40
113.00753,113.12559,64,110,40
113.1742,113.29225,60,110,40
113.340866,113.45892,69,110,40
113.50753,113.62559,67,110,40
114.00753,114.12827,57,126,40
114.177986,114.29872,55,101,40
117.622215,118.28194,60,102,40
118.28888,118.9486,61,110,40
118.95554,119.28194,64,84,40
119.28888,119.615265,65,70,40
119.78888,119.90693,73,70,40
119.95554,120.0736,72,70,40
120.12221,120.240265,70,70,40
120.28888,120.40693,68,70,40
120.45554,120.5736,67,77,40
120.62221,120.9486,65,85,40
120.95554,121.28193,77,100,40
121.28888,121.615265,77,100,40
121.62221,121.9486,68,100,40
121.95554,122.28193,68,110,40
122.28887,122.78193,67,99,40
122.78887,122.90693,70,82,40
122.95554,123.07628,68,76,40
123.12599,123.254005,64,71,40
123.12599,123.254005,72,71,40
123.30672,123.640526,65,70,40
123.98853,124.32234,56,70,40
124.329445,124.66325,55,70,40
124.67036,125.00416,58,70,40
125.01126,125.34507,58,70,40
125.35217,126.026886,56,70,40
126.03399,126.3678,60,70,40
126.3749,126.7087,58,70,40
126.715805,127.049614,61,70,40
127.05672,127.390526,61,70,40
127.39763,128.07234,60,70,40
128.07944,128.41325,63,70,40
128.42035,128.75417,62,70,40
128.76126,129.09506,65,70,40
129.10217,129.43597,71,70,40
129.44308,129.69876,72,75,40
129.69876,129.784,74,81,40
129.784,130.1178,75,83,40
130.1249,130.45871,77,92,40
130.4658,131.14052,79,100,40
131.14763,131.48143,80,110,40
131.48854,131.60658,82,110,40
131.6552,131.77325,80,110,40
131.82187,131.93993,79,110,40
131.98854,132.10658,77,110,40
132.1552,132.27325,75,110,40
132.32187,132.43993,74,110,40
132.48853,132.60658,72,110,40
132.6552,132.77325,77,110,40
132.82187,132.94261,75,110,40
132.99232,133.11305,73,110,40
133.16278,133.28778,72,110,40
133.33925,133.47206,70,110,40
133.52675,133.77675,72,110,40
133.77675,133.86008,70,110,40
133.86008,134.0198,68,110,40
134.02675,134.18646,77,110,40
134.1934,134.35313,77,110,40
134.36008,134.5198,77,110,40
134.52675,134.68646,77,110,40
134.6934,134.85313,68,110,40
134.86008,135.0198,68,110,40
135.02675,135.18646,68,110,40
135.1934,135.35313,68,110,40
135.36008,135.5198,68,110,40
135.52675,135.68646,67,110,40
135.6934,135.85313,67,110,40
135.86008,136.02342,67,110,40
136.03053,136.19388,64,110,40
136.03053,136.19388,72,110,40
136.20099,136.3701,64,110,40
136.20099,136.3701,72,110,40
136.37746,136.55714,64,110,40
136.37746,136.55714,72,110,40
136.56496,136.89134,65,110,40
136.56496,136.89134,72,110,40
138.23163,138.55801,64,70,40
138.56496,138.81496,65,70,40
138.81496,138.89828,67,70,40
138.89828,139.22467,68,70,40
140.23161,140.55801,67,70,40
140.56496,140.81496,68,70,40
140.81496,140.89828,70,70,40
140.89828,141.22467,72,70,40
142.23161,142.558,71,70,40
142.56496,142.81496,72,70,40
142.81496,142.89828,71,75,40
142.89828,143.22467,72,76,40
143.23161,143.558,74,83,40
143.56494,144.22467,76,90,40
144.23161,144.558,77,110,40
144.56494,144.683,79,110,40
144.73161,144.84967,77,110,40
144.89828,145.01634,75,110,40
145.06494,145.183,74,110,40
145.23161,145.34967,72,110,40
145.39828,145.51634,71,110,40
145.56494,145.683,72,110,40
145.73161,145.84967,70,110,40
145.89828,146.01634,68,110,40
146.06494,146.183,67,110,40
146.23161,146.34967,65,110,40
146.39828,146.51634,64,110,40
146.56494,146.81494,65,110,40
146.81494,146.89828,67,110,40
146.89828,147.22467,68,110,40
147.23161,147.558,70,110,40
147.56494,148.22467,72,110,40
148.23161,148.558,73,125,40
148.56494,148.683,75,110,40
148.73161,148.84967,73,103,40
148.89827,149.01633,72,96,40
149.06494,149.183,70,89,40
149.23161,149.34967,68,82,40
149.39827,149.51633,67,75,40
149.56494,149.89133,68,70,40
150.06494,150.183,73,70,40
150.23161,150.34967,72,70,40
150.39827,150.51633,70,70,40
150.56494,150.683,68,70,40
150.73161,150.84967,67,70,40
150.89827,151.01633,65,70,40
152.60315,152.7267,56,50,40
152.77757,152.90112,65,50,40
152.952,153.20634,65,50,40
153.30083,153.55519,65,50,40
153.64966,153.77321,65,50,40
153.82408,153.94763,65,50,40
153.9985,154.26205,65,50,40
154.35994,154.65161,64,50,40
154.75995,154.88069,65,70,40
154.9304,155.05115,77,73,40
155.10086,155.22159,77,76,40
155.27132,155.39204,73,80,40
155.44177,155.5625,73,83,40
155.61221,155.73296,73,87,40
155.78267,155.90073,73,90,40
155.94934,156.0674,73,93,40
156.11601,156.23407,73,97,40
156.28267,156.40073,72,100,40
156.44934,156.5674,72,104,40
156.61601,156.73405,72,107,40
156.78267,157.27573,73,110,40
157.28267,157.40073,68,70,40
157.44934,157.5674,73,70,40
157.61601,157.73405,77,70,40
157.78267,157.90073,75,70,40
157.94934,158.0674,73,70,40
158.11601,158.23405,72,70,40
158.28267,158.40073,70,70,40
158.44934,158.5674,72,70,40
158.616,158.73405,68,70,40
158.78267,158.90073,73,70,40
158.94934,159.0674,77,70,40
159.116,159.23405,80,70,40
159.28267,159.40073,68,70,40
159.44934,159.5674,65,70,40
159.616,159.73405,61,70,40
159.78267,159.90073,60,70,40
159.94934,160.0674,63,70,40
160.116,160.23405,56,70,40
160.28267,160.40073,75,70,40
160.44934,160.5674,63,70,40
160.616,160.9424,68,70,40
160.94934,161.27573,68,70,40
161.28267,161.60905,68,70,40
161.616,161.77573,68,70,40
161.78267,161.90073,61,70,40
161.94934,162.06738,65,70,40
162.116,162.23405,68,70,40
162.28267,162.40073,73,70,40
162.78267,162.94238,72,70,40
162.78267,162.94238,68,70,40
162.94934,163.27573,68,70,40
162.94934,163.27573,72,70,40
163.28267,163.60905,68,70,40
163.28267,163.60905,72,70,40
163.616,163.77573,68,70,40
163.616,163.77573,72,70,40
163.78267,163.90073,60,70,40
163.94933,164.06738,65,70,40
164.116,164.23405,68,70,40
164.28267,164.40073,72,70,40
164.78267,164.94238,68,70,40
164.78267,164.94238,74,70,40
164.94933,165.27573,68,70,40
164.94933,165.27573,74,70,40
165.28267,165.60905,68,70,40
165.28267,165.60905,74,70,40
165.616,165.77573,68,70,40
165.616,165.77573,74,70,40
165.78267,165.90073,71,70,40
165.94933,166.06738,74,70,40
166.116,166.23405,77,70,40
166.78267,166.90071,74,70,40
166.78267,166.90071,77,70,40
166.94933,167.27571,74,72,40
166.94933,167.27571,77,72,40
167.28267,167.60905,74,78,40
167.28267,167.60905,77,78,40
167.616,167.73405,74,84,40
167.616,167.73405,77,84,40
167.78267,167.90071,71,86,40
167.94933,168.06738,74,89,40
168.116,168.23405,77,92,40
168.78265,168.90071,62,110,40
168.78265,168.90071,71,110,40
168.94933,169.27571,62,110,40
168.94933,169.27571,71,110,40
169.28265,169.60905,62,110,40
169.28265,169.60905,71,110,40
169.616,169.73405,62,110,40
169.616,169.73405,71,110,40
169.78265,169.90071,62,110,40
169.78265,169.90071,71,110,40
169.94933,170.06738,62,110,40
169.94933,170.06738,71,110,40
170.116,170.23405,62,110,40
170.116,170.23405,71,110,40
170.28265,170.40071,62,110,40
170.28265,170.40071,71,110,40
170.44933,170.57007,62,110,40
170.44933,170.57007,71,110,40
170.61978,170.74052,62,110,40
170.61978,170.74052,71,110,40
170.79024,170.91524,66,120,40
170.9667,171.09952,66,120,40
171.1542,171.5214,66,120,40
173.0292,173.363,66,70,40
173.37012,173.70392,64,70,40
173.71103,174.04483,63,70,40
174.05193,174.38574,68,70,40
174.39284,174.72665,66,70,40
174.73375,175.06755,66,70,40
175.07466,175.40846,66,70,40
175.41557,175.74937,73,70,40
175.75648,176.09029,71,70,40
176.09738,176.35901,76,70,40
176.35901,176.44623,73,70,40
176.44623,176.7878,71,70,40
176.79506,177.13663,70,70,40
177.14389,177.48949,71,70,40
177.49684,177.84242,68,70,40
178.65048,179.08891,64,70,40
180.546,180.66406,66,50,40
180.71266,180.83072,66,50,40
180.87933,181.12239,66,50,40
181.21266,181.45572,66,50,40
182.546,182.66406,66,50,40
182.71266,182.83072,66,50,40
182.87933,183.12239,66,50,40
183.21266,183.45572,66,50,40
183.87933,183.99739,63,50,40
184.046,184.16405,63,50,40
184.21266,184.45572,63,50,40
184.546,184.66405,63,50,40
184.71266,184.83072,63,50,40
184.87933,184.99739,63,50,40
185.046,185.16405,63,50,40
185.21266,185.33072,63,50,40
185.37933,185.49739,63,50,40
185.54599,186.53905,62,90,40
186.54599,187.66318,61,90,40
187.67099,187.78905,70,70,40
187.83766,187.95572,70,70,40
188.00433,188.24739,70,70,40
188.33766,188.58072,70,70,40
188.67099,189.66405,71,70,40
189.67099,189.78905,70,70,40
189.83766,189.95572,70,70,40
190.00433,190.24738,70,70,40
190.33766,190.58072,70,70,40
190.67099,191.66405,68,70,40
191.67099,191.78905,66,70,40
191.83766,191.95572,66,70,40
192.00432,192.24738,66,70,40
192.33766,192.58072,66,70,40
192.67099,192.78905,65,70,40
192.83766,192.95572,65,70,40
193.00432,193.12238,65,70,40
193.17099,193.28905,65,70,40
193.33766,193.45572,65,70,40
193.50432,193.62238,65,70,40
193.67099,195.66405,64,120,40
195.67099,198.3307,55,120,40
195.67099,198.3307,64,120,40
198.33765,198.66405,55,120,40
198.33765,198.66405,63,120,40
198.67099,199.3307,67,120,40
199.33765,199.66405,69,120,40
199.67099,199.99738,62,120,40
200.67099,202.3307,67,120,40
200.67099,202.3307,71,120,40
202.33765,202.66403,67,120,40
202.33765,202.66403,70,120,40
202.67097,203.3307,70,120,40
203.33765,203.66403,73,120,40
203.67097,203.78903,62,120,40
203.67097,203.78903,74,120,40
203.83765,203.9557,62,120,40
203.83765,203.9557,74,120,40
204.00432,204.24738,62,120,40
204.00432,204.24738,74,120,40
204.33765,204.5807,62,120,40
204.33765,204.5807,74,120,40
204.67097,204.78903,62,120,40
204.67097,204.78903,74,120,40
204.83765,204.9557,62,120,40
204.83765,204.9557,74,120,40
205.00432,205.24736,62,120,40
205.00432,205.24736,74,120,40
205.33765,205.5807,62,120,40
205.33765,205.5807,74,120,40
205.67097,205.78903,62,120,40
205.67097,205.78903,74,120,40
205.83765,205.9557,62,120,40
205.83765,205.9557,74,120,40
206.00432,206.12236,62,120,40
206.00432,206.12236,74,120,40
206.17097,206.28903,62,120,40
206.17097,206.28903,74,120,40
206.33765,206.4557,62,120,40
206.33765,206.4557,74,120,40
206.50432,206.62236,62,120,40
206.50432,206.62236,74,120,40
206.67097,207.66403,62,120,40
206.67097,207.66403,74,120,40
207.67097,207.78903,72,120,40
207.83765,207.9557,69,120,40
208.0043,208.12236,72,120,40
208.17097,208.28903,75,120,40
208.33765,208.4557,78,120,40
208.5043,208.62236,66,120,40
208.67097,208.78903,69,120,40
208.83765,208.9557,72,120,40
209.0043,209.12236,75,120,40
209.17097,209.28903,63,120,40
209.33765,209.4557,66,120,40
209.5043,209.62236,69,120,40
209.67097,209.78903,72,120,40
209.83765,209.9557,69,120,40
209.83765,209.9557,78,120,40
210.0043,210.12236,69,120,40
210.0043,210.12236,78,120,40
210.17097,210.28903,69,120,40
210.17097,210.28903,78,120,40
210.33765,210.45569,69,120,40
210.33765,210.45569,78,120,40
210.5043,210.62236,69,120,40
210.5043,210.62236,78,120,40
210.67097,210.78903,69,120,40
210.67097,210.78903,78,120,40
210.83765,210.95569,69,120,40
210.83765,210.95569,81,120,40
211.0043,211.12236,69,120,40
211.0043,211.12236,81,120,40
211.17097,211.28903,69,120,40
211.17097,211.28903,81,120,40
211.33765,211.45569,69,120,40
211.33765,211.45569,81,120,40
211.5043,211.62236,69,120,40
211.5043,211.62236,81,120,40
211.67097,211.78903,69,120,40
211.67097,211.78903,81,120,40
211.83765,211.95569,69,120,40
211.83765,211.95569,81,120,40
212.0043,212.12236,69,120,40
212.0043,212.12236,81,120,40
212.17097,212.28903,69,120,40
212.17097,212.28903,81,120,40
212.33763,212.45569,69,120,40
212.33763,212.45569,81,120,40
212.5043,212.62236,69,120,40
212.5043,212.62236,81,120,40
212.67097,212.78903,69,120,40
212.67097,212.78903,81,120,40
212.83763,212.95569,69,120,40
212.83763,212.95569,81,120,40
213.0043,213.12505,69,120,40
213.0043,213.12505,81,120,40
213.17476,213.2955,69,120,40
213.17476,213.2955,81,120,40
213.34521,213.47021,69,120,40
213.34521,213.47021,81,120,40
213.52168,213.64668,69,120,40
213.52168,213.64668,81,120,40
213.69815,213.81621,69,120,40
213.69815,213.81621,81,120,40
213.86482,213.98288,81,108,40
214.0315,214.14954,81,96,40
214.19815,214.31621,81,84,40
214.36482,214.48288,81,72,40
214.5315,214.64954,81,60,40
214.69815,214.81621,81,50,40
214.86482,214.98288,81,50,40
215.03148,215.14954,81,50,40
215.19815,215.31621,81,50,40
215.36482,215.48288,81,50,40
215.53148,215.64954,81,50,40
215.69815,215.81621,76,50,40
215.86482,215.98288,76,50,40
216.03148,216.27454,76,50,40
216.36482,216.60788,77,50,40
216.69815,216.81621,76,50,40
216.86482,216.98288,76,50,40
217.03148,217.27454,76,50,40
217.36482,217.60788,76,50,40
217.69815,217.81621,77,50,40
217.86482,217.98288,77,50,40
218.03148,218.27454,77,50,40
218.36482,218.60786,76,50,40
218.69815,218.81621,76,50,40
218.86482,218.98286,76,50,40
219.03148,219.14954,76,50,40
219.19815,219.31621,72,50,40
219.36482,219.48286,74,50,40
219.53148,219.64954,76,50,40
219.69815,219.81621,77,60,40
219.86482,219.98286,76,60,40
220.03148,220.14954,74,60,40
220.19815,220.31621,72,60,40
220.3648,220.48286,71,60,40
220.53148,220.64954,76,60,40
220.69815,220.81621,67,60,40
220.8648,220.98286,65,60,40
221.03148,221.14954,64,60,40
221.19815,221.31621,62,60,40
221.3648,221.48286,61,60,40
221.53148,221.64954,64,60,40
223.3648,223.48286,71,60,40
223.53148,223.64954,72,60,40
223.69815,223.8162,74,60,40
223.8648,223.98286,71,60,40
224.3648,224.48286,72,60,40
224.53148,224.64954,74,60,40
224.69815,224.8162,75,60,40
224.8648,224.98286,74,60,40
225.03148,225.14954,72,60,40
225.19814,225.3162,75,60,40
226.03148,226.14954,72,60,40
226.19814,226.3162,70,60,40
226.3648,226.48286,69,60,40
226.53148,226.64954,72,60,40
227.03148,227.14954,69,60,40
227.19814,227.3162,67,60,40
227.3648,227.48286,66,60,40
227.53148,227.64954,63,60,40
227.69814,227.8162,62,60,40
227.8648,227.98286,66,60,40
228.03148,228.1912,70,60,40
228.3648,228.48286,72,60,40
228.53148,228.64952,70,60,40
228.69814,228.8162,69,60,40
228.8648,228.98286,72,60,40
229.3648,229.48286,74,60,40
229.53148,229.64952,72,60,40
229.69814,229.8162,70,60,40
229.8648,229.98286,74,60,40
230.03148,230.14952,75,60,40
230.19814,230.3162,74,60,40
230.3648,230.48286,72,60,40
230.53146,230.64952,75,60,40
230.69814,230.8162,77,60,40
230.8648,230.98286,75,60,40
231.03146,231.14952,74,60,40
231.19814,231.3162,77,60,40
231.3648,231.48286,79,60,40
231.53146,231.64952,77,60,40
231.69814,231.8162,75,60,40
231.8648,231.98286,79,60,40
232.03146,232.14952,80,60,40
232.19814,232.3162,79,60,40
232.3648,232.48286,77,60,40
232.53146,232.64952,75,60,40
232.69814,232.8162,74,60,40
232.8648,232.98286,75,60,40
233.03146,233.14952,83,60,40
233.19814,233.3162,84,60,40
233.3648,233.48286,79,60,40
233.53146,233.64952,81,60,40
233.69814,233.8162,83,60,40
233.8648,233.98285,84,60,40
234.03146,234.14952,86,60,40
234.19814,234.3162,67,65,40
234.3648,234.48285,69,66,40
234.53146,234.64952,71,67,40
234.69814,234.8162,72,69,40
234.8648,234.98285,74,70,40
235.03146,235.14952,75,72,40
235.19814,235.3162,76,73,40
235.3648,235.48285,77,75,40
235.53146,235.64952,79,76,40
235.69814,235.8162,81,77,40
235.86479,235.98285,81,79,40
236.03146,236.14952,82,80,40
236.19814,236.3162,84,82,40
236.36479,236.48285,77,83,40
236.53146,236.64952,79,85,40
236.69814,236.8162,81,86,40
236.86479,236.98285,82,87,40
237.03146,237.14952,76,89,40
237.19814,237.3162,77,90,40
237.36479,237.48285,79,92,40
237.53146,237.64952,81,93,40
237.69814,237.8162,81,95,40
237.86479,237.98285,82,96,40
238.03146,238.14952,84,98,40
238.19814,238.3162,86,99,40
238.36479,238.48285,87,100,40
238.53146,238.64952,86,102,40
238.69814,238.81618,84,103,40
238.86479,238.98285,82,105,40
239.03146,239.14952,82,106,40
239.19814,239.31618,82,108,40
239.36479,239.48553,81,109,40
239.53525,239.65599,84,110,40
239.7057,239.8307,75,120,40
239.7057,239.8307,84,120,40
239.88217,240.01498,75,120,40
239.88217,240.01498,84,120,40
240.06967,240.43686,75,120,40
240.06967,240.43686,84,120,40
241.94467,242.93773,66,70,40
242.94467,243.93773,70,70,40
243.94467,244.27106,68,70,40
244.278,244.6044,71,70,40
244.61134,244.93773,65,70,40
244.94467,245.43773,66,70,40
245.44467,245.56273,61,70,40
245.61134,245.7294,66,70,40
245.778,245.89606,70,70,40
245.94467,246.06273,68,70,40
246.11134,246.22939,66,70,40
246.278,246.39606,65,70,40
246.44467,246.56273,63,70,40
246.61134,246.72939,65,70,40
246.778,246.89606,61,70,40
246.94467,247.10439,66,70,40
247.11134,247.27106,70,70,40
247.278,247.77106,73,70,40
248.94467,249.06273,68,70,40
249.11133,249.22939,68,70,40
249.278,249.52106,68,70,40
249.61133,249.85439,68,70,40
249.94467,250.06273,68,70,40
250.11133,250.22939,68,70,40
250.278,250.52106,68,70,40
250.61133,250.85439,68,70,40
250.94467,251.06273,68,70,40
251.11133,251.22939,68,70,40
251.278,251.39606,68,70,40
251.44467,251.56271,68,70,40
251.61133,251.72939,68,70,40
251.778,251.89606,68,70,40
251.94467,252.43771,68,70,40
254.44466,254.56271,77,70,40
254.61133,254.72939,80,70,40
254.778,254.89606,80,70,40
254.94466,255.06271,80,70,40
255.11133,255.22939,68,70,40
255.278,255.39606,77,70,40
255.44466,255.56271,73,70,40
255.61133,255.72939,70,70,40
255.778,255.89606,67,70,40
255.94466,256.9377,68,70,40
256.94467,257.9377,72,80,40
257.94467,258.0002,70,90,40
258.0002,258.05576,72,91,40
258.05576,258.11133,70,91,40
258.11133,258.19467,69,92,40
258.19467,258.2745,70,93,40
258.27798,258.60437,73,93,40
258.61133,258.9377,67,97,40
258.94467,259.60437,68,100,40
259.61133,259.9377,66,107,40
259.94467,261.8995,65,110,40
261.94464,262.27106,74,70,40
262.27798,262.60437,72,70,40
262.61133,262.9377,70,70,40
262.94464,263.19464,75,70,40
263.19464,263.27798,72,70,40
263.27798,263.60437,70,70,40
263.61133,263.9377,69,70,40
263.94464,264.27103,77,70,40
264.27798,264.60437,75,77,40
264.61133,264.9377,74,84,40
264.94464,265.19464,79,91,40
265.19464,265.27798,75,96,40
265.27798,265.60437,74,98,40
265.61133,265.9377,72,105,40
265.94464,266.19464,77,110,40
266.19464,266.27798,74,110,40
266.27798,266.60437,72,110,40
267.27798,267.6118,63,110,40
267.27798,267.6118,69,110,40
267.98285,268.11566,70,120,40
267.98285,268.11566,62,120,40
268.17035,268.28842,58,120,40
268.17035,268.28842,62,120,40
268.33704,268.58008,58,120,40
268.33704,268.58008,62,120,40
268.67035,268.91342,58,120,40
268.67035,268.91342,62,120,40
269.0037,269.12177,58,120,40
269.0037,269.12177,62,120,40
269.17035,269.28842,58,120,40
269.17035,269.28842,62,120,40
269.33704,269.58008,58,120,40
269.33704,269.58008,62,120,40
269.67035,269.91342,58,120,40
269.67035,269.91342,62,120,40
270.0037,270.12173,58,120,40
270.0037,270.12173,62,120,40
270.17035,270.28842,58,120,40
270.17035,270.28842,62,120,40
270.33704,270.45508,58,120,40
270.33704,270.45508,62,120,40
270.5037,270.62173,58,120,40
270.5037,270.62173,62,120,40
270.67035,270.78842,58,120,40
270.67035,270.78842,62,120,40
270.83704,270.95508,58,120,40
270.83704,270.95508,62,120,40
271.0037,271.99673,74,120,40
272.0037,272.12173,60,120,40
272.0037,272.12173,62,120,40
272.17035,272.28842,60,120,40
272.17035,272.28842,62,120,40
272.33704,272.45776,60,120,40
272.33704,272.45776,62,120,40
272.50748,272.6282,60,120,40
272.50748,272.6282,62,120,40
272.67795,272.80295,60,120,40
272.67795,272.80295,62,120,40
272.8544,272.9872,60,120,40
272.8544,272.9872,62,120,40
273.0419,274.3187,72,120,40
275.3276,275.44568,84,70,40
275.4943,275.61234,84,70,40
275.66095,275.779,84,70,40
275.8276,275.94568,84,70,40
275.9943,276.11234,84,70,40
276.16095,276.279,84,70,40
278.3276,278.44568,70,100,40
278.4943,278.61234,70,70,40
278.66095,278.779,70,70,40
278.8276,278.94568,70,70,40
278.9943,279.11234,70,70,40
279.16095,279.279,70,70,40
279.3276,279.44568,72,70,40
279.4943,279.61234,72,70,40
279.66095,279.779,72,70,40
279.8276,279.94568,72,70,40
279.9943,280.11234,72,70,40
280.16095,280.279,72,70,40
280.3276,280.44568,74,70,40
280.4943,280.61234,74,70,40
280.66095,280.779,74,70,40
280.8276,280.94568,74,70,40
280.99426,281.11234,74,70,40
281.16095,281.279,74,70,40
281.3276,281.44568,72,70,40
281.49426,281.61234,72,70,40
281.66095,281.779,72,70,40
281.8276,281.94568,72,70,40
281.99426,282.11234,73,70,40
282.16095,282.279,73,70,40
282.3276,282.654,74,70,40
283.16095,283.3276,70,70,40
283.3276,283.654,69,70,40
285.40897,286.4246,70,70,40
286.43167,286.93594,69,92,40
286.94305,287.1135,72,103,40
287.1135,287.28397,70,107,40
287.28397,287.4544,75,110,40
287.4544,288.12912,74,110,40
288.13623,288.30667,74,86,40
288.30667,288.47714,72,80,40
288.47714,288.81094,69,70,40
288.81805,289.15186,69,70,40
289.15897,289.49277,69,70,40
289.49988,290.1746,70,70,40
290.18167,290.68594,70,84,40
290.69305,290.8635,67,96,40
290.8635,291.03397,69,99,40
291.03397,291.2044,72,103,40
291.2044,291.37488,70,107,40
291.37488,291.54532,75,110,40
291.54532,291.71576,74,110,40
291.71576,291.88623,69,104,40
291.88623,292.05667,70,98,40
292.05667,292.22714,66,92,40
292.22714,292.39758,67,86,40
292.39758,292.56805,63,80,40
292.56805,293.0723,62,70,40
293.0794,293.24988,66,70,40
293.24988,293.42032,67,70,40
293.42032,293.59076,72,70,40
293.59076,293.71152,62,50,40
293.59076,293.71152,70,50,40
293.76123,293.88196,62,50,40
293.76123,293.88196,69,50,40
293.93167,294.9473,62,50,40
293.93167,294.9473,70,50,40
294.9544,295.0738,62,50,40
294.9544,295.0738,69,50,40
295.12296,295.24234,62,50,40
295.12296,295.24234,70,50,40
295.29147,295.95862,62,50,40
295.29147,295.95862,69,50,40
295.96564,296.08502,70,50,40
295.96564,296.08502,62,50,40
296.1342,296.25357,69,50,40
296.1342,296.25357,62,50,40
296.30273,296.96985,62,50,40
296.30273,296.96985,70,50,40
296.97687,297.09494,62,50,40
296.97687,297.09494,69,50,40
297.14355,297.2616,62,50,40
297.14355,297.2616,70,50,40
297.3102,297.6366,62,50,40
297.3102,297.6366,69,50,40
297.64355,297.96994,70,90,40
297.97687,298.93173,63,110,40
298.97687,299.30325,66,50,40
299.3102,299.6366,67,50,40
299.64355,299.89355,67,50,40
299.89355,299.96994,60,100,40
299.97687,300.93173,60,110,40
300.97687,301.30325,62,50,40
300.97687,301.30325,60,50,40
301.3102,301.6366,58,50,40
301.3102,301.6366,62,50,40
301.64355,301.7616,55,50,40
301.8102,301.92825,55,50,40
301.97687,302.21994,55,50,40
302.3102,302.55325,55,50,40
302.64355,302.7616,55,50,40
302.8102,302.92825,55,50,40
302.97687,303.09494,55,50,40
303.14355,303.2616,55,50,40
303.3102,303.42825,55,50,40
303.47687,303.59494,55,50,40
303.64355,304.6366,55,50,40
304.64355,305.6366,57,50,40
305.64352,306.6366,58,50,40
306.64352,307.30325,61,50,40
307.3102,307.6366,60,50,40
309.64352,310.67093,72,50,40
310.67828,311.39365,60,50,40
310.67828,311.39365,69,50,40
311.40118,311.79285,58,50,40
311.40118,311.79285,67,50,40
311.80118,312.46866,57,50,40
311.80118,312.46866,65,50,40
313.80893,313.927,74,50,40
313.9756,314.09366,72,50,40
314.14227,314.2603,70,50,40
314.30893,314.427,69,50,40
314.4756,314.59366,67,50,40
314.64227,314.7603,72,50,40
314.80893,315.052,69,50,40
315.14227,315.802,65,50,40
317.9756,318.09366,69,59,40
317.9756,318.09366,72,59,40
318.14227,318.2603,69,68,40
318.14227,318.2603,72,68,40
318.30893,318.42697,69,77,40
318.30893,318.42697,72,77,40
318.4756,318.80197,72,86,40
318.4756,318.80197,69,86,40
318.80893,318.92697,68,50,40
318.80893,318.92697,71,50,40
318.9756,319.09366,64,50,40
319.14227,319.3853,64,50,40
319.4756,319.71866,64,50,40
319.80893,319.92697,64,50,40
319.9756,320.09366,64,50,40
320.14227,320.3853,64,50,40
320.4756,320.71866,64,50,40
320.80893,320.92697,64,50,40
320.9756,321.09366,64,50,40
321.14227,321.2603,64,50,40
321.30893,321.42697,64,50,40
321.4756,321.59366,64,50,40
321.64227,321.7603,64,50,40
321.80893,322.80197,64,50,40
328.4756,328.59363,77,110,40
328.64224,328.7603,76,110,40
328.80893,328.92697,74,110,40
328.9756,329.09363,72,110,40
329.14224,329.2603,71,110,40
329.30893,329.42697,69,110,40
329.4756,329.5963,68,110,40
329.64603,329.76678,71,110,40
329.8165,329.8753,67,110,40
329.8753,329.9893,65,110,40
329.99295,330.16208,64,110,40
330.16943,330.23193,67,110,40
330.23193,330.35303,65,110,40
330.35693,330.53662,64,110,40
330.54443,330.6111,67,110,40
330.6111,330.74026,65,110,40
330.74445,330.9498,64,110,40
330.9587,331.29492,57,110,40
330.9587,331.29492,69,110,40
331.30185,331.46158,73,110,40
331.30185,331.46158,76,110,40
331.46854,331.62823,73,110,40
331.46854,331.62823,76,110,40
331.96854,332.12823,73,110,40
331.96854,332.12823,76,110,40
332.1352,332.29492,73,110,40
332.1352,332.29492,76,110,40
332.6352,332.79492,73,110,40
332.6352,332.79492,76,110,40
332.80185,332.96158,73,110,40
332.80185,332.96158,76,110,40
333.30185,333.46158,74,110,40
333.30185,333.46158,77,110,40
333.46854,333.62823,74,110,40
333.46854,333.62823,77,110,40
333.96854,334.08658,74,125,40
333.96854,334.08658,77,125,40
334.1352,334.25323,74,116,40
334.1352,334.25323,77,116,40
334.30185,334.41992,74,110,40
334.30185,334.41992,77,110,40
334.46854,334.58658,74,110,40
334.46854,334.58658,77,110,40
334.6352,334.75323,74,110,40
334.6352,334.75323,77,110,40
334.80185,334.91992,74,110,40
334.80185,334.91992,77,110,40
334.9685,335.12823,73,120,40
334.9685,335.12823,76,120,40
335.1352,335.29492,73,120,40
335.1352,335.29492,76,120,40
335.6352,335.79492,73,120,40
335.6352,335.79492,76,120,40
335.80185,335.96158,73,120,40
335.80185,335.96158,76,120,40
336.30185,336.46158,73,120,40
336.30185,336.46158,76,120,40
336.4685,336.62823,73,120,40
336.4685,336.62823,76,120,40
336.9685,337.12823,74,120,40
336.9685,337.12823,77,120,40
337.1352,337.29492,74,120,40
337.1352,337.29492,77,120,40
337.6352,337.79492,74,120,40
337.6352,337.79492,77,120,40
337.80185,337.96158,74,120,40
337.80185,337.96158,77,120,40
337.9685,338.08658,77,120,40
337.9685,338.08658,86,120,40
338.1352,338.25323,77,120,40
338.1352,338.25323,86,120,40
338.30185,338.42258,77,120,40
338.30185,338.42258,86,120,40
338.47232,338.59305,77,120,40
338.47232,338.59305,86,120,40
338.64276,338.76776,77,120,40
338.64276,338.76776,86,120,40
338.81924,338.95206,77,120,40
338.81924,338.95206,86,120,40
339.00674,339.1248,76,100,40
339.00674,339.1248,85,100,40
339.1734,339.29144,69,50,40
339.34006,339.45813,69,50,40
339.50674,339.6248,69,50,40
339.6734,339.79144,69,50,40
339.84006,339.95813,69,50,40
340.00674,340.1248,72,50,40
340.1734,340.29144,72,50,40
340.34006,340.45813,72,50,40
340.5067,340.6248,72,50,40
340.6734,340.79144,65,50,40
340.84006,340.95813,65,50,40
341.0067,341.1248,65,100,40
341.1734,341.29144,70,100,40
341.34006,341.45813,74,100,40
341.5067,341.6248,70,100,40
341.6734,341.79144,72,100,40
341.84006,341.95813,69,100,40
342.0067,342.2498,70,100,40
342.34006,342.9998,65,100,40
343.0067,343.1248,67,100,40
343.1734,343.29144,65,100,40
343.34006,343.45813,63,100,40
343.5067,343.6248,62,100,40
343.6734,343.79144,60,100,40
343.84006,343.9581,65,100,40
344.0067,344.2498,58,100,40
344.0067,344.2498,62,100,40
344.34006,344.9998,58,100,40
345.0067,345.1248,62,100,40
345.1734,345.29144,65,100,40
345.34006,345.4581,70,100,40
345.5067,345.6248,74,100,40
345.6734,345.79144,72,100,40
345.84006,345.9581,69,100,40
346.0067,346.1248,70,100,40
346.1734,346.29144,74,100,40
346.34006,346.8331,77,100,40
346.84006,346.9998,79,100,40
347.0067,347.3331,77,70,40
347.84006,347.9998,77,90,40
348.0067,348.1248,75,70,40
348.1734,348.29144,72,70,40
348.34006,348.4581,69,70,40
348.5067,348.6248,70,70,40
348.6734,348.72894,69,110,40
348.72894,348.7845,70,104,40
348.7845,348.84006,69,97,40
348.84006,348.9234,67,90,40
348.9234,349.00323,69,80,40
350.0067,350.1248,77,70,40
350.1734,350.29144,74,70,40
350.34006,350.4581,70,70,40
350.5067,350.6248,72,70,40
350.67337,350.72894,70,110,40
350.72894,350.7845,72,104,40
350.7845,350.84006,70,97,40
350.84006,350.92337,69,90,40
350.92337,351.00323,70,80,40
351.67337,351.79144,70,110,40
351.84006,351.9581,72,90,40
352.0067,352.1248,69,70,40
352.17337,352.29144,65,70,40
352.34006,352.4581,60,70,40
352.5067,352.6248,62,70,40
352.67337,352.72894,60,110,40
352.72894,352.7845,62,104,40
352.7845,352.84006,60,97,40
352.84006,352.92337,59,90,40
352.92337,353.00323,60,80,40
353.67337,353.79144,70,110,40
353.84006,353.9581,72,90,40
354.0067,354.12476,69,70,40
354.17337,354.29144,65,70,40
354.34006,354.4581,60,70,40
354.5067,354.62476,62,70,40
354.67337,354.72894,60,110,40
354.72894,354.7845,62,104,40
354.7845,354.84006,60,97,40
354.84006,354.92337,59,90,40
354.92337,355.00323,60,80,40
355.67337,355.79144,69,110,40
355.84006,355.9581,65,110,40
359.52286,360.1826,65,102,40
360.18954,360.84924,66,110,40
360.8562,361.1826,69,83,40
361.18954,361.51593,70,70,40
362.18954,362.43954,70,70,40
362.43954,362.52286,72,75,40
362.52286,362.84924,73,76,40
362.8562,363.1826,75,83,40
363.1895,363.84924,77,90,40
363.8562,364.1826,78,104,40
364.1895,364.3076,80,110,40
364.3562,364.47424,78,104,40
364.52286,364.64093,77,97,40
364.6895,364.8076,75,90,40
364.8562,364.97424,73,83,40
365.02286,365.14093,72,76,40
365.1895,365.51593,70,70,40
365.52286,365.84924,58,70,40
365.52286,365.84924,65,70,40
365.8562,366.1826,58,70,40
365.8562,366.1826,65,70,40
366.1895,366.5159,57,70,40
366.1895,366.5159,65,70,40
366.52286,366.84924,63,70,40
366.8562,367.1826,63,70,40
367.1895,367.5159,61,70,40
367.52286,367.84924,65,70,40
367.8562,368.1826,65,70,40
368.1895,368.5159,63,70,40
368.52286,368.84924,66,70,40
368.8562,369.1826,66,70,40
369.1895,369.5159,65,70,40
369.52286,369.84924,68,70,40
369.8562,370.1826,68,70,40
370.1895,370.5159,67,70,40
370.52286,370.84924,70,70,40
370.8562,371.1826,70,70,40
371.1895,371.5159,68,70,40
371.52286,371.84924,65,78,40
371.8562,372.1826,67,86,40
372.1895,372.84924,69,94,40
372.8562,373.1826,70,110,40
373.1895,373.3076,72,110,40
373.35617,373.47424,76,110,40
373.52286,373.6409,76,110,40
373.6895,373.8076,76,110,40
373.85617,373.97424,76,110,40
374.02286,374.1409,76,110,40
374.1895,374.3076,77,110,40
374.35617,374.47424,70,110,40
374.52286,374.6436,68,110,40
374.6933,374.81406,69,110,40
374.86377,374.98877,70,110,40
375.04022,375.17303,65,110,40
375.22772,375.47772,70,110,40
375.47772,375.56107,72,110,40
375.56107,375.88745,73,110,40
375.8944,376.2208,75,110,40
376.22772,376.88745,77,110,40
376.8944,377.2208,78,110,40
377.22772,377.3458,80,110,40
377.3944,377.51245,78,110,40
377.56107,377.6791,77,110,40
377.72772,377.8458,75,110,40
377.8944,378.01245,73,110,40
378.06107,378.1791,72,110,40
378.22772,378.5541,70,100,40
379.89438,380.2208,69,70,40
380.22772,380.47772,70,70,40
380.47772,380.56107,72,70,40
380.56107,380.88745,73,70,40
381.89438,382.22076,72,70,40
382.22772,382.47772,73,70,40
382.47772,382.56107,75,70,40
382.56107,382.88745,77,70,40
383.89438,384.22076,76,70,40
384.22772,384.47772,77,70,40
384.47772,384.56107,76,70,40
384.56107,384.88745,77,70,40
384.89438,385.22076,79,70,40
385.22772,385.88745,81,70,40
385.89438,386.22076,82,70,40
386.22772,386.34576,84,70,40
386.39438,386.51245,82,70,40
386.56107,386.6791,80,70,40
386.72772,386.84576,79,70,40
386.89438,387.01245,77,70,40
387.06107,387.1791,76,70,40
387.22772,387.34576,77,70,40
387.39438,387.51245,75,70,40
387.56107,387.6818,73,70,40
387.7315,387.85223,72,70,40
387.90195,388.02695,70,70,40
388.07843,388.21124,69,70,40
388.26593,388.51593,70,70,40
388.51593,388.59927,72,70,40
388.59927,388.92566,73,70,40
388.9326,389.25897,75,70,40
389.26593,389.92566,77,70,40
389.9326,390.25897,78,70,40
390.26593,390.38397,80,70,40
390.4326,390.55066,78,70,40
390.59927,390.71732,77,70,40
390.76593,390.88397,75,70,40
390.9326,391.05066,73,70,40
391.09927,391.21732,72,70,40
391.26593,391.59232,73,70,40
391.76593,391.88397,78,70,40
391.9326,392.05066,77,70,40
392.09927,392.21732,75,70,40
392.26593,392.38397,73,70,40
392.4326,392.55066,72,70,40
392.59927,392.71732,70,70,40
394.4326,394.59232,65,50,40
394.59924,394.84232,65,50,40
394.9326,395.17566,66,50,40
395.26593,395.38397,66,50,40
395.4326,395.55066,66,50,40
395.59924,395.84232,66,50,40
395.9326,396.17566,65,50,40
396.26593,396.38666,65,70,40
396.43637,396.55713,77,73,40
396.60684,396.72757,78,76,40
396.77728,396.898,78,80,40
396.94775,397.06848,78,83,40
397.1182,397.23892,78,87,40
397.28864,397.4094,78,90,40
397.4591,397.57983,78,93,40
397.62955,397.75455,78,97,40
397.80603,397.93103,78,100,40
397.9825,398.1105,77,104,40
398.1632,398.29602,77,107,40
398.3507,398.84378,78,110,40
398.8507,398.96878,73,70,40
399.0174,399.13544,78,70,40
399.18405,399.30212,82,70,40
399.3507,399.46878,80,70,40
399.5174,399.63544,78,70,40
399.68405,399.80212,77,70,40
399.8507,399.96878,75,70,40
400.0174,400.13544,77,70,40
400.18405,400.30212,73,70,40
400.3507,400.46878,78,70,40
400.5174,400.63544,82,70,40
400.68405,400.80212,85,70,40
400.8507,400.96878,73,70,40
401.0174,401.13544,70,70,40
401.18405,401.3021,66,70,40
401.3507,401.6771,65,70,40
401.8507,401.96878,68,70,40
402.0174,402.13544,61,70,40
402.18405,402.3021,73,70,40
402.3507,402.51044,73,70,40
402.5174,402.84378,73,70,40
402.8507,403.1771,73,70,40
403.18405,403.34378,73,70,40
403.3507,403.46878,66,70,40
403.5174,403.63544,70,70,40
403.68405,403.8021,73,70,40
404.52875,404.86255,73,70,40
404.86966,405.20346,73,70,40
405.21057,405.37393,73,70,40
405.381,405.50177,65,70,40
405.55148,405.6722,70,70,40
405.72192,405.84268,73,70,40
406.7687,406.89673,64,73,40
406.94943,407.07745,67,77,40
407.13016,407.26297,70,81,40
407.88016,408.01297,61,98,40
408.06766,408.20047,65,102,40
408.25516,408.3914,70,106,40
408.64746,408.97385,67,70,40
408.64746,408.97385,70,70,40
416.31412,416.4322,60,70,40
416.4808,416.59885,72,70,40
416.64746,416.76553,70,70,40
416.81412,416.9322,65,71,40
416.9808,417.09885,67,73,40
417.14746,417.26553,65,75,40
417.31412,417.4322,67,77,40
417.4808,417.59885,63,78,40
417.64746,417.76553,69,80,40
417.81412,417.9322,67,82,40
417.9808,418.09885,69,84,40
418.14746,418.26553,65,86,40
418.31412,418.4322,70,87,40
418.4808,418.59885,69,89,40
418.64746,418.7655,70,91,40
418.81412,418.9322,67,93,40
418.9808,419.09885,72,94,40
419.14746,419.2655,70,96,40
419.31412,419.4322,72,98,40
419.4808,419.59885,69,100,40
419.64746,419.7655,74,102,40
419.81412,419.9322,72,103,40
419.9808,420.09885,74,105,40
420.14746,420.2655,70,107,40
420.31412,420.4322,75,109,40
420.4808,420.59885,70,110,40
420.64746,420.7655,72,110,40
420.81412,420.9322,75,110,40
420.9808,421.09885,75,110,40
421.14746,421.2655,75,110,40
421.31412,421.4322,75,110,40
421.4808,421.59885,75,110,40
421.64746,421.7655,75,110,40
421.81412,421.9322,75,110,40
421.9808,422.09885,75,110,40
422.14746,422.2655,75,110,40
422.31412,422.4322,75,110,40
422.4808,422.59885,75,110,40
422.64746,422.7655,72,110,40
422.64746,422.7655,76,110,40
422.81412,422.9322,72,110,40
422.81412,422.9322,76,110,40
422.9808,423.09885,72,110,40
422.9808,423.09885,76,110,40
423.14746,423.2655,72,110,40
423.14746,423.2655,76,110,40
423.31412,423.4322,72,110,40
423.31412,423.4322,76,110,40
423.4808,423.59885,72,110,40
423.4808,423.59885,76,110,40
423.64746,423.7655,74,120,40
423.64746,423.7655,77,120,40
423.81412,423.9322,65,120,40
423.9808,424.10153,65,120,40
424.15125,424.27197,65,120,40
424.3217,424.4467,67,120,40
424.49817,424.63098,69,120,40
424.68567,425.6787,62,70,40
424.68567,425.6787,70,70,40
425.68567,426.6787,65,70,40
426.68567,427.01205,63,70,40
427.019,427.3454,66,70,40
427.35233,427.6787,65,70,40
427.68567,428.1787,65,70,40
429.18567,429.3037,67,50,40
429.35233,429.4704,69,50,40
429.519,429.63705,65,50,40
429.68567,429.8037,70,50,40
429.85233,429.9704,74,50,40
430.019,430.13705,77,50,40
432.50452,432.8717,70,70,40
432.87952,433.8803,68,70,40
433.88727,434.8803,72,70,40
434.88727,435.21365,70,70,40
435.2206,435.547,73,70,40
435.55392,435.8803,67,70,40
435.88727,436.3803,68,70,40
438.38727,438.5053,75,50,40
438.55392,438.672,80,50,40
438.72058,438.83865,84,50,40
438.88727,439.0053,82,50,40
439.05392,439.172,79,50,40
439.22058,439.33865,80,50,40
439.38727,439.5053,72,50,40
439.55392,439.67465,67,50,40
439.7244,439.84512,68,50,40
439.89484,440.24042,67,50,40
440.24777,440.60168,75,50,40
440.60922,440.9764,73,50,40
440.98422,441.97726,71,50,40
441.98422,442.97726,75,66,40
442.98422,443.03976,73,83,40
443.03976,443.09534,75,84,40
443.09534,443.15088,73,85,40
443.15088,443.23422,72,86,40
443.23422,443.3141,73,87,40
443.31757,443.64395,76,88,40
443.65088,443.97726,70,94,40
443.98422,444.64395,71,99,40
444.65088,444.97726,70,110,40
444.98422,446.8974,69,110,40
444.98422,446.8974,65,110,40
446.98422,447.3106,70,70,40
447.31754,447.64395,69,70,40
446.98422,447.97726,65,70,40
447.65088,447.97726,70,70,40
447.98422,448.23422,75,70,40
448.23422,448.31754,72,70,40
448.31754,448.64395,70,70,40
448.65088,448.97726,69,70,40
448.98422,449.3106,77,70,40
449.31754,449.64392,75,76,40
449.65088,449.97726,74,82,40
449.98422,450.23422,79,88,40
450.23422,450.31754,75,100,40
450.31754,450.64392,74,94,40
450.65088,450.98468,72,100,40
450.9918,451.1168,69,120,40
450.9918,451.1168,72,120,40
451.16824,451.29324,69,120,40
451.16824,451.29324,72,120,40
451.34473,451.6903,69,120,40
451.34473,451.6903,72,120,40
453.10944,453.26123,60,70,40
453.32373,453.4755,60,70,40
453.538,453.95764,59,70,40
455.68085,456.0185,59,70,40
456.0257,456.36334,63,70,40
456.3705,456.70816,64,70,40
456.71533,457.05298,60,70,40
457.06018,457.39783,59,70,40
457.405,457.74265,59,70,40
457.74982,458.08746,59,70,40
458.09467,458.43228,59,70,40
458.43948,458.77713,59,70,40
458.7843,459.04294,60,70,40
459.04294,459.12912,66,70,40
459.12912,459.47473,64,70,40
459.4821,459.84927,63,70,40
459.8571,459.97513,63,50,40
460.02374,460.14178,63,50,40
460.1904,460.30847,63,50,40
460.3571,460.47513,63,50,40
460.52374,460.64178,63,50,40
460.6904,460.80847,63,50,40
460.8571,460.97513,63,50,40
461.02374,461.14178,63,50,40
461.1904,461.30847,63,50,40
461.3571,461.47513,63,50,40
461.52374,461.64178,63,50,40
461.6904,461.80847,63,50,40
461.8571,461.97513,63,50,40
462.02374,462.14178,63,50,40
462.1904,462.30847,63,50,40
462.3571,462.47513,63,50,40
462.52374,462.64178,63,50,40
462.6904,462.80847,63,50,40
462.8571,462.97513,63,50,40
463.02374,463.14178,63,50,40
463.1904,463.30847,63,50,40
463.3571,463.47513,63,50,40
463.52374,463.64178,63,50,40
463.6904,463.80847,63,50,40
463.8571,463.97513,69,50,40
464.02374,464.14178,69,50,40
464.1904,464.30847,69,50,40
464.3571,464.47513,69,50,40
464.52374,464.64178,69,50,40
464.6904,464.80847,69,50,40
464.85706,464.97513,75,50,40
464.85706,464.97513,65,50,40
465.02374,465.14178,75,50,40
465.02374,465.14178,65,50,40
465.1904,465.31116,75,50,40
465.1904,465.31116,65,50,40
465.36087,465.4816,75,50,40
465.36087,465.4816,65,50,40
465.5313,465.6563,75,50,40
465.5313,465.6563,65,50,40
465.7078,465.8406,75,50,40
465.7078,465.8406,65,50,40
465.8953,466.22168,65,50,40
465.8953,466.22168,74,50,40
466.8953,467.01334,72,50,40
467.06195,467.18,72,50,40
467.2286,467.34668,72,50,40
467.8953,468.01334,70,50,40
468.06195,468.18,70,50,40
468.2286,468.34668,70,50,40
468.3953,468.51334,65,50,40
468.56195,468.68,70,50,40
468.7286,468.84668,74,50,40
468.8953,469.01334,75,50,40
469.06195,469.18,74,50,40
469.2286,469.34668,72,50,40
469.3953,469.51334,70,50,40
469.56195,469.68,72,50,40
469.7286,469.84668,69,50,40
469.8953,470.01334,74,50,40
469.8953,470.01334,77,50,40
470.06195,470.18,74,50,40
470.06195,470.18,77,50,40
470.2286,470.34668,74,50,40
470.2286,470.34668,77,50,40
470.39526,470.51334,74,50,40
470.39526,470.51334,77,50,40
470.56195,470.68,74,50,40
470.56195,470.68,77,50,40
470.7286,470.84668,74,50,40
470.7286,470.84668,77,50,40
470.89526,471.01334,75,50,40
470.89526,471.01334,77,50,40
471.06195,471.18,75,50,40
471.06195,471.18,77,50,40
471.2286,471.34668,75,50,40
471.2286,471.34668,77,50,40
471.39526,471.51334,75,50,40
471.39526,471.51334,77,50,40
471.56195,471.68,75,50,40
471.56195,471.68,77,50,40
471.7286,471.84668,75,50,40
471.7286,471.84668,77,50,40
471.89526,472.01334,74,50,40
471.89526,472.01334,77,50,40
472.06195,472.18,74,50,40
472.06195,472.18,77,50,40
472.2286,472.34668,74,50,40
472.2286,472.34668,77,50,40
472.39526,472.51334,74,50,40
472.39526,472.51334,77,50,40
472.56195,472.68268,74,50,40
472.56195,472.68268,77,50,40
472.7324,472.85315,74,50,40
472.7324,472.85315,77,50,40
472.90286,473.02786,70,50,40
473.0793,473.2043,74,50,40
473.2558,473.3808,77,50,40
477.35873,477.53842,64,50,40
477.54623,477.72592,64,50,40
477.73373,478.10092,64,50,40
479.70874,479.88193,58,120,40
479.88947,480.06265,58,120,40
480.0702,480.24338,58,120,40
480.25092,480.4306,58,120,40
480.43842,480.6251,58,120,40
480.6332,480.83856,58,120,40
480.8475,481.99332,62,120,40
480.8475,481.99332,70,120,40
482.00134,483.27814,82,120,40
482.00134,483.27814,74,120,40
483.28705,484.56384,58,120,40
8.193844,8.311899,56,50,41
8.360511,8.478566,56,50,41
8.527177,8.770232,56,50,41
8.86051,9.103565,56,50,41
9.193843,9.311898,56,50,41
9.36051,9.478565,56,50,41
9.527176,9.770231,56,50,41
9.860509,10.103564,56,50,41
10.193842,10.311897,56,50,41
10.360509,10.478564,56,50,41
10.527175,10.647914,56,50,41
10.69763,10.818368,56,50,41
10.868084,10.993084,56,50,41
11.044555,11.177367,56,50,41
11.232055,12.225109,56,50,41
16.395264,16.513319,63,50,41
16.56193,16.679985,63,52,41
16.728598,16.971653,63,54,41
17.06193,17.304985,63,58,41
17.395264,17.513319,63,63,41
17.56193,17.679985,63,65,41
17.728596,17.971651,63,67,41
18.06193,18.304985,63,72,41
18.395262,18.513317,63,76,41
18.561928,18.679983,63,78,41
18.728596,18.971651,63,81,41
19.061928,19.304983,63,85,41
19.395262,19.513317,63,89,41
19.561928,19.679983,63,92,41
19.728594,19.84665,63,94,41
19.89526,20.013315,63,96,41
20.061928,20.185472,63,98,41
20.236345,20.369158,63,100,41
20.423845,22.623064,63,110,41
22.673845,23.000235,65,70,41
23.00718,23.333567,63,70,41
23.340511,23.6669,62,70,41
23.673845,23.923843,55,70,41
23.923843,24.007177,60,70,41
24.007177,24.333567,62,70,41
24.340511,24.666899,60,70,41
24.673843,25.000233,58,70,41
25.007177,25.333565,57,70,41
25.34051,25.666899,58,70,41
25.673843,25.923841,63,70,41
25.923841,26.007175,60,70,41
26.007175,26.333565,58,70,41
26.34051,26.666897,57,70,41
26.673841,26.935469,58,110,41
26.935469,27.022678,62,110,41
27.022678,27.277039,55,110,41
28.095352,28.46254,60,70,41
28.845352,28.963408,53,120,41
29.012018,29.130074,53,120,41
29.178686,29.421741,53,120,41
29.512018,29.755074,53,120,41
29.845352,29.963408,53,120,41
30.012018,30.130074,53,120,41
30.178684,30.42174,53,120,41
30.512018,30.755074,53,120,41
30.84535,30.963406,53,120,41
31.012016,31.130072,53,120,41
31.178684,31.29674,53,120,41
31.34535,31.463406,53,120,41
31.512016,31.630072,53,120,41
31.678682,31.796738,53,120,41
31.84535,32.838406,65,120,41
32.84535,32.963406,54,120,41
33.012016,33.13007,54,120,41
33.17868,33.296738,54,120,41
33.34535,33.4634,54,120,41
33.512016,33.63007,54,120,41
33.67868,33.796738,54,120,41
33.84535,34.8384,66,120,41
36.845345,36.9634,61,70,41
36.845345,36.9634,64,70,41
37.012012,37.130066,61,70,41
37.012012,37.130066,64,70,41
37.178677,37.296734,61,70,41
37.178677,37.296734,64,70,41
37.345345,37.463398,61,70,41
37.345345,37.463398,64,70,41
37.51201,37.630066,61,70,41
37.51201,37.630066,64,70,41
37.678677,37.796734,61,70,41
37.678677,37.796734,64,70,41
38.883556,39.00161,62,100,41
39.050224,39.168278,62,70,41
39.21689,39.334946,62,70,41
39.383556,39.50161,62,70,41
39.55022,39.668278,62,70,41
39.71689,39.834946,62,70,41
39.883556,40.00161,64,70,41
40.05022,40.168278,64,70,41
40.21689,40.33494,64,70,41
40.383556,40.50161,64,70,41
40.55022,40.668278,64,70,41
40.71689,40.83494,64,70,41
40.883553,41.00161,65,70,41
41.05022,41.168278,65,70,41
41.21689,41.33494,65,70,41
41.383553,41.50161,65,70,41
41.55022,41.668274,65,70,41
41.716885,41.83494,65,70,41
41.883553,42.00161,64,70,41
42.05022,42.168274,64,70,41
42.216885,42.33494,64,70,41
42.383553,42.50161,64,70,41
42.55022,42.668274,64,70,41
42.716885,42.83494,64,70,41
42.883553,43.20994,69,70,41
43.716885,43.876606,62,70,41
43.883553,44.209938,61,70,41
44.716885,44.876606,50,70,41
44.88355,45.209938,49,70,41
46.968273,47.472534,60,90,41
47.479637,47.650093,64,100,41
47.650093,47.820545,62,104,41
47.820545,47.991,64,107,41
47.991,48.665718,65,110,41
48.672817,48.843273,65,70,41
48.843273,49.01373,62,70,41
49.01373,49.347534,61,70,41
49.354637,49.688442,61,70,41
49.695545,50.029354,61,70,41
50.036453,50.370262,62,70,41
50.377365,50.71117,57,76,41
50.718273,50.77509,59,83,41
50.77509,50.83191,60,84,41
50.83191,50.888725,59,85,41
50.888725,50.973953,57,87,41
50.973953,51.05563,59,88,41
51.05918,51.39299,60,90,41
51.40009,51.7339,60,97,41
51.741,52.074806,60,104,41
52.08191,52.58617,60,110,41
52.593273,52.930878,57,87,41
52.938145,53.111336,55,71,41
53.118866,53.634857,52,70,41
53.642124,53.809273,57,70,41
53.816544,53.99096,57,70,41
53.99096,54.16538,61,70,41
54.16538,54.288925,62,50,41
54.339798,54.463345,61,50,41
54.514217,55.55346,62,50,41
55.560726,55.684273,61,50,41
55.735146,55.858692,62,50,41
55.909565,56.59997,61,50,41
56.60724,56.730785,62,50,41
56.781654,56.9052,61,50,41
56.781654,56.9052,64,50,41
56.956074,57.64648,62,50,41
57.653748,57.777294,61,70,41
57.653748,57.777294,64,70,41
57.828167,57.951714,62,70,41
58.002586,58.344154,61,70,41
58.35142,58.692993,62,70,41
58.70026,59.692265,58,110,41
59.74677,60.08834,55,70,41
60.095608,60.437176,53,70,41
60.444447,60.706074,50,70,41
60.706074,60.786015,58,90,41
60.79328,61.792553,58,110,41
61.839794,62.193707,55,70,41
62.201237,62.568424,53,70,41
62.576237,62.735962,50,70,41
62.742905,62.902626,50,70,41
62.909573,63.23596,50,70,41
63.242905,63.569294,50,70,41
63.576237,63.73596,50,70,41
63.742905,63.902626,50,70,41
63.90957,64.23596,50,70,41
64.242905,64.56929,50,70,41
64.57623,64.73596,50,70,41
64.742905,64.902626,50,70,41
64.90957,65.07292,50,70,41
65.080025,65.24338,50,70,41
65.25048,65.41959,50,70,41
65.42695,65.606636,50,70,41
65.61445,66.607506,50,70,41
66.61445,67.63007,48,70,41
67.63718,68.32758,54,70,41
68.33485,68.702034,53,60,41
68.70985,69.36957,58,50,41
74.873055,74.99111,67,50,41
75.03973,75.157776,65,50,41
75.20639,75.32445,63,50,41
75.373055,75.49111,62,50,41
75.53973,75.657776,60,50,41
75.70639,75.82445,65,50,41
75.873055,76.11611,62,50,41
76.20639,76.86611,58,50,41
79.03972,79.19944,55,50,41
79.20638,79.36611,55,63,41
79.373055,79.532776,55,77,41
79.53972,79.866104,55,90,41
79.873055,80.032776,57,50,41
80.03972,80.19944,57,50,41
80.20638,80.532776,57,50,41
80.53972,80.866104,57,50,41
80.873055,81.032776,57,50,41
81.03972,81.19944,57,50,41
81.20638,81.532776,57,50,41
81.53972,81.866104,57,50,41
81.87305,82.032776,57,50,41
82.03972,82.19944,57,50,41
82.20638,82.366104,57,50,41
82.37305,82.53277,57,50,41
82.53972,82.69944,57,50,41
82.70638,82.866104,57,50,41
82.87305,83.866104,57,50,41
90.53971,90.65776,61,110,41
90.706375,90.82443,64,110,41
90.87304,90.93051,60,110,41
90.93051,91.045456,58,110,41
91.045456,91.210686,57,110,41
92.96934,93.12906,66,120,41
93.136,93.29573,66,120,41
93.30267,93.462395,66,120,41
93.96934,94.12906,67,120,41
94.136,94.29572,67,120,41
94.30267,94.462395,67,120,41
94.96934,95.96239,73,120,41
95.96934,96.29572,74,120,41
96.302666,96.42072,66,120,41
96.46934,96.58739,66,120,41
96.96934,97.08739,66,120,41
97.136,97.25406,66,120,41
97.636,97.75406,66,120,41
97.802666,97.92072,66,120,41
98.302666,98.42072,67,120,41
98.46933,98.58739,67,120,41
98.96933,99.08739,67,120,41
98.96933,99.08739,70,120,41
99.136,99.25405,67,120,41
99.136,99.25405,70,120,41
99.302666,99.4234,67,120,41
99.302666,99.4234,70,120,41
99.47312,99.59386,67,120,41
99.47312,99.59386,70,120,41
99.64358,99.76858,67,120,41
99.64358,99.76858,70,120,41
99.820045,99.95286,67,100,41
99.820045,99.95286,70,100,41
100.007545,100.1256,50,80,41
100.17421,100.29227,50,50,41
100.34088,100.45893,50,50,41
100.507545,100.6256,50,50,41
100.67421,100.79227,50,50,41
100.84087,100.95893,50,50,41
101.007545,101.1256,48,50,41
101.17421,101.29227,48,50,41
101.34087,101.45893,54,50,41
101.507545,101.625595,54,50,41
101.67421,101.79227,53,50,41
101.84087,101.95893,53,50,41
102.007545,102.125595,53,120,41
102.007545,102.125595,65,120,41
102.17421,102.29227,53,120,41
102.17421,102.29227,65,120,41
102.34087,102.58393,53,120,41
102.34087,102.58393,65,120,41
102.67421,102.91727,53,120,41
102.67421,102.91727,65,120,41
103.007545,103.125595,53,120,41
103.007545,103.125595,65,120,41
103.17421,103.29227,53,120,41
103.17421,103.29227,65,120,41
103.34087,103.58393,53,120,41
103.34087,103.58393,65,120,41
103.67421,103.91727,53,120,41
103.67421,103.91727,65,120,41
104.00754,104.125595,53,120,41
104.00754,104.125595,65,120,41
104.17421,104.29226,53,120,41
104.17421,104.29226,65,120,41
104.34087,104.45893,53,120,41
104.34087,104.45893,65,120,41
104.50754,104.625595,53,120,41
104.50754,104.625595,65,120,41
104.67421,104.79226,53,120,41
104.67421,104.79226,65,120,41
104.84087,104.95893,53,120,41
104.84087,104.95893,65,120,41
105.00754,105.125595,53,120,41
105.00754,105.125595,65,120,41
105.17421,105.29226,58,120,41
105.34087,105.45893,62,120,41
105.50754,105.625595,65,120,41
105.6742,105.79226,63,120,41
105.84087,105.95893,60,120,41
106.00754,106.125595,62,120,41
106.1742,106.29226,58,120,41
106.34087,106.45893,53,120,41
106.50754,106.625595,50,120,41
106.6742,106.79226,53,120,41
106.84087,106.95892,53,120,41
107.00754,107.125595,53,120,41
107.1742,107.29226,58,120,41
107.34087,107.45892,62,120,41
107.50754,107.625595,65,120,41
107.6742,107.79226,63,120,41
107.84087,107.95892,60,120,41
108.00754,108.125595,62,120,41
108.1742,108.29226,50,120,41
108.340866,108.45892,62,120,41
108.50754,108.625595,62,120,41
108.6742,108.79226,62,120,41
108.840866,108.95892,62,120,41
109.00754,109.12559,64,120,41
109.1742,109.29226,64,104,41
109.340866,109.45892,64,87,41
109.50754,109.62559,64,71,41
109.6742,109.79226,64,70,41
109.840866,109.95892,64,70,41
110.00754,110.12559,65,70,41
110.1742,110.29226,65,70,41
110.340866,110.45892,65,70,41
110.50754,110.62559,65,70,41
110.6742,110.79226,65,70,41
110.840866,110.95892,65,70,41
111.00753,111.12559,67,70,41
111.1742,111.29226,67,70,41
111.340866,111.45892,67,70,41
111.50753,111.62559,67,70,41
111.6742,111.79225,67,110,41
111.840866,111.95892,67,110,41
112.00753,112.16725,69,110,41
112.1742,112.25753,57,110,41
112.25753,112.340866,58,110,41
112.340866,112.45892,60,110,41
112.50753,112.62559,57,110,41
112.6742,112.79225,62,110,41
112.840866,112.95892,59,110,41
113.00753,113.33392,64,110,41
114.34844,114.47344,52,124,41
114.52491,114.64991,48,98,41
117.622215,118.28194,57,102,41
118.28888,118.9486,58,110,41
118.95554,119.615265,60,84,41
120.95554,121.28193,65,100,41
121.28888,121.9486,65,100,41
121.95554,122.28193,65,110,41
122.28887,122.615265,65,99,41
122.62221,122.740265,64,88,41
122.78887,122.90693,55,82,41
122.95554,123.07628,60,76,41
123.12599,123.254005,58,71,41
123.30672,123.640526,56,70,41
123.98853,124.32234,53,70,41
124.329445,124.66325,52,70,41
124.67036,125.00416,55,70,41
125.01126,125.34507,52,70,41
125.35217,126.026886,53,70,41
126.03399,126.3678,56,70,41
126.3749,126.7087,55,70,41
126.715805,127.049614,58,70,41
127.05672,127.390526,55,70,41
127.39763,128.07234,56,70,41
128.07944,128.41325,60,70,41
128.42035,128.75417,59,70,41
128.76126,129.09506,62,70,41
129.10217,129.43597,65,70,41
129.44308,129.77689,62,75,41
131.6552,131.77325,60,110,41
131.82187,131.93993,72,110,41
131.98854,132.10658,60,110,41
132.1552,132.27325,67,110,41
132.32187,132.43993,65,110,41
132.48853,132.60658,64,110,41
132.6552,132.77325,73,110,41
132.82187,132.94261,72,110,41
132.99232,133.11305,70,110,41
133.16278,133.28778,68,110,41
133.33925,133.47206,67,110,41
133.52675,133.77675,68,110,41
133.77675,133.86008,67,110,41
133.86008,134.0198,65,110,41
134.02675,134.18646,65,110,41
134.1934,134.35313,65,110,41
134.36008,134.5198,65,110,41
134.52675,134.68646,65,110,41
134.6934,134.85313,65,110,41
134.86008,135.0198,65,110,41
135.02675,135.18646,65,110,41
135.1934,135.35313,65,110,41
135.36008,135.5198,65,110,41
135.52675,135.68646,65,110,41
135.6934,135.85313,65,110,41
135.86008,136.02342,64,110,41
136.03053,136.19388,67,110,41
136.20099,136.3701,67,110,41
136.37746,136.55714,67,110,41
136.56496,136.89134,68,110,41
138.23163,138.55801,58,70,41
138.56496,138.81496,56,70,41
138.81496,138.89828,55,70,41
138.89828,139.22467,53,70,41
140.23161,140.55801,61,70,41
140.56496,140.81496,60,70,41
140.89828,141.22467,56,70,41
142.23161,142.558,65,70,41
142.56496,142.81496,63,70,41
142.81496,142.89828,65,75,41
142.89828,143.22467,67,76,41
143.23161,143.558,68,83,41
143.56494,144.22467,70,90,41
144.23161,144.558,72,110,41
144.56494,144.683,73,110,41
144.73161,144.84967,72,110,41
144.89828,145.01634,70,110,41
145.06494,145.183,68,110,41
145.23161,145.34967,67,110,41
145.39828,145.51634,65,110,41
145.56494,145.683,67,110,41
145.73161,145.84967,65,110,41
145.89828,146.01634,63,110,41
146.06494,146.183,61,110,41
146.23161,146.34967,60,110,41
146.39828,146.51634,58,110,41
146.56494,146.683,60,110,41
146.73161,146.84967,58,110,41
146.89828,147.01633,56,110,41
147.06494,147.183,65,110,41
147.23161,147.34967,63,110,41
147.39828,147.51633,62,110,41
147.56494,147.683,60,110,41
147.73161,147.84967,58,110,41
147.89828,148.01633,56,110,41
148.06494,148.183,55,110,41
148.23161,148.34967,53,125,41
148.39828,148.51633,51,110,41
148.56494,148.683,49,110,41
148.73161,148.84967,53,103,41
148.89827,149.01633,52,96,41
149.06494,149.183,55,89,41
149.23161,149.34967,60,82,41
149.39827,149.51633,60,75,41
149.56494,149.89133,53,70,41
150.56494,150.89133,65,70,41
151.06494,151.183,61,70,41
151.23161,151.34967,60,70,41
151.39827,151.51633,58,70,41
151.56494,151.683,56,70,41
151.73161,151.84967,55,70,41
151.89827,152.01901,53,70,41
152.60315,152.7267,60,50,41
152.77757,152.90112,60,50,41
152.952,153.20634,60,50,41
153.30083,153.55519,61,50,41
153.64966,153.77321,61,50,41
153.82408,153.94763,61,50,41
153.9985,154.26205,58,50,41
154.35994,154.65161,58,50,41
154.75995,154.88069,60,70,41
154.9304,155.05115,60,73,41
155.10086,155.22159,61,76,41
155.27132,155.39204,65,80,41
155.44177,155.5625,65,83,41
155.61221,155.73296,65,87,41
155.78267,155.90073,63,90,41
155.94934,156.0674,63,93,41
156.11601,156.23407,66,97,41
156.28267,156.40073,66,100,41
156.44934,156.5674,66,104,41
156.61601,156.73405,66,107,41
156.78267,156.90073,65,110,41
156.94934,157.0674,65,70,41
157.11601,157.23405,65,70,41
157.28267,157.40073,65,70,41
157.44934,157.5674,65,70,41
157.61601,157.73405,65,70,41
157.78267,157.90073,66,70,41
157.94934,158.0674,66,70,41
158.11601,158.23405,66,70,41
158.28267,158.40073,66,70,41
158.44934,158.5674,66,70,41
158.616,158.73405,66,70,41
158.78267,158.90073,68,70,41
158.94934,159.0674,56,70,41
159.116,159.23405,61,70,41
159.28267,159.40073,65,70,41
159.94934,160.0674,56,70,41
160.116,160.23405,63,70,41
160.28267,160.40073,66,70,41
160.616,160.73405,60,70,41
160.78267,160.9424,61,70,41
160.94934,161.27573,61,70,41
161.28267,161.40073,49,70,41
161.44934,161.56738,53,70,41
161.616,161.73405,56,70,41
163.28267,163.40073,48,70,41
163.44933,163.56738,53,70,41
163.616,163.73405,56,70,41
165.28267,165.40073,59,70,41
165.44933,165.56738,62,70,41
165.616,165.73405,65,70,41
167.28267,167.40071,56,78,41
167.44933,167.56738,62,81,41
167.616,167.73405,65,84,41
168.78265,168.90071,55,110,41
168.94933,169.27571,55,110,41
169.28265,169.60905,55,110,41
169.616,169.94238,55,110,41
169.94933,170.06738,55,110,41
170.116,170.23405,55,110,41
170.28265,170.40071,55,110,41
170.44933,170.57007,55,110,41
170.61978,170.74052,55,110,41
170.79024,170.91524,54,120,41
170.9667,171.09952,54,120,41
171.1542,171.5214,54,120,41
173.0292,173.363,59,70,41
173.37012,173.70392,58,70,41
173.71103,174.04483,59,70,41
174.05193,174.38574,56,70,41
174.39284,174.72665,63,70,41
174.73375,175.06755,61,70,41
175.07466,175.40846,59,70,41
175.41557,175.74937,58,70,41
175.75648,176.09029,59,70,41
176.09738,176.43895,56,70,41
176.44623,176.7878,54,70,41
176.79506,177.13663,66,70,41
177.14389,177.48949,66,70,41
177.49684,177.84242,64,70,41
178.65048,179.08891,61,70,41
179.546,179.66406,59,50,41
179.71268,179.83072,54,50,41
179.87933,179.99739,59,50,41
180.046,180.16406,54,50,41
180.21268,180.33072,59,50,41
180.37933,180.49739,54,50,41
180.546,180.66406,61,50,41
180.71266,180.83072,54,50,41
180.87933,180.99739,61,50,41
181.046,181.16406,54,50,41
181.21266,181.33072,61,50,41
181.37933,181.49739,54,50,41
181.546,181.66406,59,50,41
181.71266,181.83072,54,50,41
181.87933,181.99739,59,50,41
182.046,182.16406,54,50,41
182.21266,182.33072,59,50,41
182.37933,182.49739,54,50,41
182.546,182.66406,58,50,41
182.71266,182.83072,54,50,41
182.87933,182.99739,58,50,41
183.046,183.16406,54,50,41
183.21266,183.33072,58,50,41
183.37933,183.49739,54,50,41
183.546,183.66406,56,50,41
183.71266,183.83072,51,50,41
183.87933,183.99739,56,50,41
184.046,184.16405,51,50,41
184.21266,184.33072,56,50,41
184.37933,184.49739,51,50,41
184.546,184.66405,54,50,41
184.71266,184.83072,51,50,41
184.87933,184.99739,54,50,41
185.046,185.16405,51,50,41
185.21266,185.33072,54,50,41
185.37933,185.49739,51,50,41
185.54599,187.66318,53,90,41
187.67099,187.78905,54,70,41
187.83766,187.95572,61,70,41
188.00433,188.12239,58,70,41
188.17099,188.28905,61,70,41
188.33766,188.45572,58,70,41
188.50433,188.62239,61,70,41
188.67099,188.78905,56,70,41
188.83766,188.95572,61,70,41
189.00433,189.12239,56,70,41
189.17099,189.28905,61,70,41
189.33766,189.45572,56,70,41
189.50433,189.62239,61,70,41
189.67099,189.78905,58,70,41
189.83766,189.95572,58,70,41
190.00433,190.12238,54,70,41
190.17099,190.28905,58,70,41
190.33766,190.45572,54,70,41
190.50433,190.62238,58,50,41
190.67099,190.78905,53,70,41
190.83766,190.95572,58,70,41
191.00433,191.12238,53,70,41
191.17099,191.28905,58,70,41
191.33766,191.45572,53,70,41
191.50433,191.62238,58,70,41
191.67099,191.78905,54,70,41
191.83766,191.95572,54,70,41
192.00432,192.12238,51,70,41
192.17099,192.28905,54,70,41
192.33766,192.45572,51,70,41
192.50432,192.62238,54,70,41
192.67099,192.78905,49,70,41
192.83766,192.95572,53,70,41
193.00432,193.12238,49,70,41
193.17099,193.28905,53,70,41
193.33766,193.45572,49,70,41
193.50432,193.62238,53,70,41
193.67099,195.66405,55,120,41
195.67099,198.3307,48,120,41
195.67099,198.3307,55,120,41
198.33765,198.66405,48,120,41
198.33765,198.66405,55,120,41
198.67099,199.3307,63,120,41
199.33765,199.66405,66,120,41
199.67099,199.78905,55,120,41
199.67099,199.78905,67,120,41
199.83765,199.9557,55,120,41
199.83765,199.9557,67,120,41
200.00432,200.24738,55,120,41
200.00432,200.24738,67,120,41
200.33765,200.5807,55,120,41
200.33765,200.5807,67,120,41
200.67099,200.78903,55,120,41
200.67099,200.78903,67,120,41
200.83765,200.9557,55,120,41
200.83765,200.9557,67,120,41
201.00432,201.24738,55,120,41
201.00432,201.24738,67,120,41
201.33765,201.5807,55,120,41
201.33765,201.5807,67,120,41
201.67099,201.78903,55,120,41
201.67099,201.78903,67,120,41
201.83765,201.9557,55,120,41
201.83765,201.9557,67,120,41
202.00432,202.12238,55,120,41
202.00432,202.12238,67,120,41
202.17097,202.28903,55,120,41
202.17097,202.28903,67,120,41
202.33765,202.4557,55,120,41
202.33765,202.4557,67,120,41
202.50432,202.62238,55,120,41
202.50432,202.62238,67,120,41
202.67097,203.66403,55,120,41
202.67097,203.66403,67,120,41
203.83765,203.9557,65,120,41
204.00432,204.12238,69,120,41
204.17097,204.28903,74,120,41
204.33765,204.4557,77,120,41
204.50432,204.62238,62,120,41
204.67097,204.78903,65,120,41
204.83765,204.9557,69,120,41
205.00432,205.12238,57,120,41
205.17097,205.28903,62,120,41
205.33765,205.4557,65,120,41
205.50432,205.62236,53,120,41
205.67097,205.78903,56,120,41
205.83765,205.9557,59,120,41
206.00432,206.12236,62,120,41
206.17097,206.28903,65,120,41
206.33765,206.4557,68,120,41
206.50432,206.62236,71,120,41
206.67097,206.78903,68,120,41
206.83765,206.9557,65,120,41
207.0043,207.12236,62,120,41
207.17097,207.28903,59,120,41
207.33765,207.4557,56,120,41
207.5043,207.62236,53,120,41
207.67097,207.99736,54,120,41
208.5043,208.62236,54,120,41
208.67097,208.78903,57,120,41
208.83765,208.9557,60,120,41
209.0043,209.12236,63,120,41
209.17097,209.28903,51,120,41
209.33765,209.4557,54,120,41
209.5043,209.62236,57,120,41
209.67097,209.78903,60,120,41
209.83765,209.9557,60,120,41
210.0043,210.12236,60,120,41
210.17097,210.28903,60,120,41
210.33765,210.45569,60,120,41
210.5043,210.62236,60,120,41
210.67097,210.78903,60,120,41
210.83765,210.95569,60,120,41
210.83765,210.95569,66,120,41
211.0043,211.12236,60,120,41
211.0043,211.12236,66,120,41
211.17097,211.28903,60,120,41
211.17097,211.28903,66,120,41
211.33765,211.45569,60,120,41
211.33765,211.45569,66,120,41
211.5043,211.62236,60,120,41
211.5043,211.62236,66,120,41
211.67097,211.78903,60,120,41
211.67097,211.78903,66,120,41
211.83765,211.95569,60,120,41
211.83765,211.95569,66,120,41
212.0043,212.12236,60,120,41
212.0043,212.12236,66,120,41
212.17097,212.28903,60,120,41
212.17097,212.28903,66,120,41
212.33763,212.45569,60,120,41
212.33763,212.45569,66,120,41
212.5043,212.62236,60,120,41
212.5043,212.62236,66,120,41
212.67097,212.78903,60,120,41
212.67097,212.78903,66,120,41
212.83763,212.95569,60,120,41
212.83763,212.95569,66,120,41
213.0043,213.12505,60,120,41
213.0043,213.12505,66,120,41
213.17476,213.2955,60,120,41
213.17476,213.2955,66,120,41
213.34521,213.47021,60,120,41
213.34521,213.47021,66,120,41
213.52168,213.64668,60,120,41
213.52168,213.64668,66,120,41
213.69815,214.02454,60,120,41
213.69815,214.02454,64,120,41
214.69815,214.81621,76,50,41
214.86482,214.98288,76,50,41
215.03148,215.14954,76,50,41
215.19815,215.31621,76,50,41
215.36482,215.48288,76,50,41
215.53148,215.64954,76,50,41
215.69815,215.81621,72,50,41
215.86482,215.98288,72,50,41
216.03148,216.27454,72,50,41
216.36482,216.60788,74,50,41
216.69815,216.81621,72,50,41
216.86482,216.98288,72,50,41
217.03148,217.27454,72,50,41
217.36482,217.60788,72,50,41
217.69815,217.81621,74,50,41
217.86482,217.98288,74,50,41
218.03148,218.27454,74,50,41
218.36482,218.60786,74,50,41
218.69815,218.81621,72,50,41
218.86482,218.98286,72,50,41
219.03148,219.14954,72,50,41
219.19815,219.31621,69,50,41
219.36482,219.48286,71,50,41
219.53148,219.64954,72,50,41
219.69815,219.81621,74,60,41
219.86482,219.98286,72,60,41
220.03148,220.14954,71,60,41
220.19815,220.31621,69,60,41
220.3648,220.48286,68,60,41
220.53148,220.64954,64,60,41
222.03148,222.14954,58,60,41
222.19815,222.31621,57,60,41
222.3648,222.48286,55,60,41
222.53148,222.64954,61,60,41
222.69815,222.81621,60,60,41
222.8648,222.98286,58,60,41
223.03148,223.14954,57,60,41
223.19815,223.31621,63,60,41
223.3648,223.48286,62,60,41
223.53148,223.64954,60,60,41
223.69815,223.8162,59,60,41
223.8648,223.98286,65,60,41
224.03148,224.14954,63,60,41
224.19815,224.3162,62,60,41
225.3648,225.48286,67,60,41
225.53148,225.64954,65,60,41
225.69814,225.8162,63,60,41
225.8648,225.98286,67,60,41
226.3648,226.48286,63,60,41
226.53148,226.64954,62,60,41
226.69814,226.8162,60,60,41
226.8648,226.98286,63,60,41
227.69814,227.8162,74,60,41
227.8648,227.98286,72,60,41
228.03148,228.14954,70,60,41
228.19814,228.3162,74,60,41
228.3648,228.48286,67,60,41
228.53148,228.64952,70,60,41
228.69814,228.8162,75,60,41
228.8648,228.98286,74,60,41
229.03148,229.14952,72,60,41
229.19814,229.3162,75,60,41
229.3648,229.48286,69,60,41
229.53148,229.64952,72,60,41
229.69814,229.8162,74,60,41
229.8648,229.98286,72,60,41
230.03148,230.14952,70,60,41
230.19814,230.3162,74,60,41
230.3648,230.48286,75,60,41
230.53146,230.64952,74,60,41
230.69814,230.8162,72,60,41
230.8648,230.98286,75,60,41
231.03146,231.14952,77,60,41
231.19814,231.3162,75,60,41
231.3648,231.48286,74,60,41
231.53146,231.64952,77,60,41
231.69814,231.8162,79,60,41
231.8648,231.98286,67,60,41
232.03146,232.14952,65,60,41
232.19814,232.3162,67,60,41
232.3648,232.48286,68,60,41
232.53146,232.64952,70,60,41
232.69814,232.8162,72,60,41
232.8648,232.98286,70,60,41
233.03146,233.14952,68,60,41
233.19814,233.3162,67,60,41
233.3648,233.48286,65,60,41
233.53146,233.64952,63,60,41
233.69814,233.8162,62,60,41
233.8648,233.98285,60,60,41
234.03146,234.14952,59,60,41
234.19814,234.3162,68,65,41
234.3648,234.48285,67,66,41
234.53146,234.64952,65,67,41
234.69814,234.8162,63,69,41
234.8648,234.98285,62,70,41
235.03146,235.14952,60,72,41
235.19814,235.3162,62,73,41
235.3648,235.48285,60,75,41
235.53146,235.64952,58,76,41
235.69814,235.8162,57,77,41
235.86479,235.98285,55,79,41
236.03146,236.14952,53,80,41
236.19814,236.3162,51,82,41
236.36479,236.48285,60,83,41
236.53146,236.64952,58,85,41
236.69814,236.8162,57,86,41
236.86479,236.98285,55,87,41
237.03146,237.14952,61,89,41
237.19814,237.3162,60,90,41
237.36479,237.48285,58,92,41
237.53146,237.64952,57,93,41
237.69814,237.8162,55,95,41
237.86479,237.98285,53,96,41
238.03146,238.14952,51,98,41
238.19814,238.3162,50,99,41
238.36479,238.48285,48,100,41
238.53146,238.64952,50,102,41
238.69814,238.81618,51,103,41
238.86479,238.98285,53,105,41
239.03146,239.14952,55,106,41
239.19814,239.31618,55,108,41
239.36479,239.48553,53,109,41
239.53525,239.65599,69,110,41
239.53525,239.65599,57,110,41
239.7057,239.8307,57,120,41
239.7057,239.8307,69,120,41
239.88217,240.01498,57,120,41
239.88217,240.01498,69,120,41
240.06967,240.43686,57,120,41
240.06967,240.43686,69,120,41
241.94467,242.93773,58,70,41
242.94467,243.93773,61,70,41
243.94467,244.27106,59,70,41
244.278,244.6044,63,70,41
244.61134,244.93773,56,70,41
244.94467,245.43773,58,70,41
247.44467,247.56273,49,70,41
247.61134,247.72939,54,70,41
247.778,247.89606,58,70,41
247.94467,248.06273,56,70,41
248.11133,248.22939,53,70,41
248.278,248.39606,54,70,41
248.44467,248.56273,51,70,41
248.61133,248.72939,56,70,41
248.778,248.89606,48,70,41
248.94467,249.93773,49,70,41
249.94467,250.93773,53,70,41
250.94467,251.27106,51,70,41
251.278,251.60439,54,70,41
251.61133,251.93771,48,70,41
251.94467,252.43771,49,70,41
252.44467,252.56271,56,70,41
252.61133,252.72939,61,70,41
252.778,252.89606,65,70,41
252.94466,253.06271,63,70,41
253.11133,253.22939,61,70,41
253.278,253.39606,60,70,41
253.44466,253.56271,58,70,41
253.61133,253.72939,60,70,41
253.778,253.89606,56,70,41
253.94466,254.06271,61,70,41
254.11133,254.22939,65,70,41
254.278,254.39606,68,70,41
255.44466,255.56271,65,70,41
255.61133,255.72939,67,70,41
255.778,255.89606,51,70,41
255.94466,256.0627,56,70,41
256.11133,256.22937,56,71,41
256.27798,256.52106,56,73,41
256.61133,256.85437,56,76,41
256.94467,257.0627,56,80,41
257.11133,257.22937,56,81,41
257.27798,257.52106,56,83,41
257.61133,257.85437,56,87,41
257.94467,258.0627,56,90,41
258.11133,258.22937,56,92,41
258.27798,258.39606,56,93,41
258.44467,258.5627,56,95,41
258.61133,258.72937,56,97,41
258.77798,258.89606,56,99,41
258.94467,259.27106,56,100,41
259.27798,259.60437,60,104,41
259.27798,259.60437,63,104,41
259.61133,259.9377,60,107,41
259.61133,259.9377,63,107,41
259.94467,261.8995,60,110,41
259.94467,261.8995,63,110,41
261.94464,262.27106,65,70,41
262.27798,262.60437,63,70,41
262.61133,262.9377,62,70,41
262.94464,263.19464,67,70,41
263.19464,263.27798,63,70,41
263.27798,263.60437,62,70,41
263.61133,263.9377,60,70,41
263.94464,264.27103,58,70,41
264.27798,264.60437,57,77,41
264.61133,264.9377,58,84,41
264.94464,265.19464,63,91,41
265.19464,265.27798,60,96,41
265.27798,265.60437,58,98,41
265.61133,265.9377,57,105,41
265.94464,266.19464,62,110,41
266.19464,266.27798,58,110,41
266.27798,266.60437,55,110,41
266.27798,266.60437,63,110,41
267.27798,267.6118,53,110,41
267.27798,267.6118,60,110,41
267.98285,268.11566,53,120,41
268.17035,268.28842,53,120,41
268.33704,268.58008,53,120,41
268.67035,268.91342,53,120,41
269.0037,269.12177,53,120,41
269.17035,269.28842,53,120,41
269.33704,269.58008,53,120,41
269.67035,269.91342,53,120,41
270.0037,270.12173,53,120,41
270.17035,270.28842,53,120,41
270.33704,270.45508,53,120,41
270.5037,270.62173,53,120,41
270.67035,270.78842,53,120,41
270.83704,270.95508,53,120,41
271.0037,271.99673,65,120,41
272.0037,272.12173,54,120,41
272.17035,272.28842,54,120,41
272.33704,272.45776,54,120,41
272.50748,272.6282,54,120,41
272.67795,272.80295,54,120,41
272.8544,272.9872,54,120,41
273.0419,274.3187,66,120,41
274.3276,274.44568,70,70,41
274.3276,274.44568,67,70,41
274.4943,274.61234,70,70,41
274.4943,274.61234,67,70,41
274.66095,274.779,70,70,41
274.66095,274.779,67,70,41
274.8276,274.94568,70,70,41
274.8276,274.94568,67,70,41
274.9943,275.11234,70,70,41
274.9943,275.11234,67,70,41
275.16095,275.279,70,70,41
275.16095,275.279,67,70,41
278.3276,278.44568,67,100,41
278.4943,278.61234,67,70,41
278.66095,278.779,67,70,41
278.8276,278.94568,67,70,41
278.9943,279.11234,67,70,41
279.16095,279.279,67,70,41
279.3276,279.44568,69,70,41
279.4943,279.61234,69,70,41
279.66095,279.779,69,70,41
279.8276,279.94568,69,70,41
279.9943,280.11234,69,70,41
280.16095,280.279,69,70,41
280.3276,280.44568,70,70,41
280.4943,280.61234,70,70,41
280.66095,280.779,70,70,41
280.8276,280.94568,70,70,41
280.99426,281.11234,70,70,41
281.16095,281.279,70,70,41
281.3276,281.44568,67,70,41
281.49426,281.61234,67,70,41
281.66095,281.779,67,70,41
281.8276,281.94568,67,70,41
281.99426,282.11234,67,70,41
282.16095,282.279,67,70,41
282.3276,282.654,69,70,41
283.16095,283.3276,67,70,41
283.3276,283.654,66,70,41
284.16095,284.3276,55,70,41
284.3276,284.6614,54,70,41
286.43167,286.93594,65,92,41
286.94305,287.1135,69,103,41
287.1135,287.28397,67,107,41
287.28397,287.4544,69,110,41
287.4544,288.12912,70,110,41
288.13623,288.30667,70,86,41
288.30667,288.47714,67,80,41
288.47714,288.81094,66,70,41
288.81805,289.15186,66,70,41
289.15897,289.49277,66,70,41
289.49988,289.83368,67,70,41
289.84076,290.1746,62,77,41
290.18167,290.2385,64,84,41
290.2385,290.29532,65,86,41
290.29532,290.35214,64,87,41
290.35214,290.43738,62,88,41
290.43738,290.51904,64,90,41
290.52258,290.85638,65,92,41
290.8635,291.1973,65,99,41
291.2044,291.5382,65,107,41
291.54532,292.0496,65,110,41
292.05667,292.3905,62,92,41
292.39758,292.56805,55,80,41
292.56805,293.0723,54,70,41
293.0794,293.24988,57,70,41
293.24988,293.42032,58,70,41
293.42032,293.59076,66,70,41
293.59076,293.71152,67,50,41
293.76123,293.88196,66,50,41
293.93167,294.9473,67,50,41
294.9544,295.0738,66,50,41
295.12296,295.24234,67,50,41
295.29147,295.95862,66,50,41
295.96564,296.08502,67,50,41
296.1342,296.25357,66,50,41
296.30273,296.96985,67,50,41
296.97687,297.09494,66,50,41
297.14355,297.2616,67,50,41
297.3102,297.6366,66,50,41
297.64355,297.96994,67,90,41
297.97687,298.93173,60,110,41
298.97687,299.30325,60,50,41
299.3102,299.6366,58,50,41
299.64355,299.89355,58,50,41
299.89355,299.96994,51,100,41
299.97687,300.93173,51,110,41
300.97687,301.30325,54,50,41
301.3102,301.6366,55,50,41
301.64355,301.7616,55,50,41
301.8102,301.92825,55,50,41
301.97687,302.21994,55,50,41
302.3102,302.55325,55,50,41
302.64355,302.7616,55,50,41
302.8102,302.92825,55,50,41
302.97687,303.09494,55,50,41
303.14355,303.2616,55,50,41
303.3102,303.42825,55,50,41
303.47687,303.59494,55,50,41
303.64355,304.6366,55,50,41
304.64355,305.6366,57,50,41
305.64352,306.6366,58,50,41
306.64352,307.30325,49,50,41
307.3102,307.6366,48,50,41
307.64352,308.6366,53,50,41
308.64352,309.6366,50,50,41
309.64352,311.0322,48,50,41
311.03973,311.39365,50,50,41
311.40118,311.79285,52,50,41
311.80118,312.46866,53,50,41
318.80893,319.80197,76,50,41
319.80893,320.80197,72,50,41
320.80893,321.1353,71,50,41
321.14227,321.46866,73,50,41
321.4756,321.80197,75,50,41
321.80893,322.46866,76,50,41
322.80893,322.92697,59,50,41
322.9756,323.09366,64,50,41
323.14227,323.2603,68,50,41
323.30893,323.42697,64,50,41
323.4756,323.59366,66,50,41
323.64227,323.7603,63,50,41
323.80893,324.05197,64,50,41
324.14224,324.80197,59,50,41
326.80893,326.92697,72,50,41
326.9756,327.09366,71,55,41
327.14224,327.2603,69,61,41
327.30893,327.42697,67,66,41
327.4756,327.59363,66,72,41
327.64224,327.7603,69,78,41
327.80893,327.92697,63,83,41
327.9756,328.09363,66,89,41
328.14224,328.2603,60,95,41
328.30893,328.42697,59,100,41
329.4756,329.5963,56,110,41
329.64603,329.76678,59,110,41
329.8165,329.8753,55,110,41
329.8753,329.9893,53,110,41
329.99295,330.16208,52,110,41
330.16943,330.23193,55,110,41
330.23193,330.35303,53,110,41
330.35693,330.53662,52,110,41
330.54443,330.6111,55,110,41
330.6111,330.74026,53,110,41
330.74445,330.9498,52,110,41
330.9587,331.12784,61,110,41
330.9587,331.12784,64,110,41
331.1352,331.29492,61,110,41
331.1352,331.29492,64,110,41
331.6352,331.79492,61,110,41
331.6352,331.79492,64,110,41
331.80185,331.96158,61,110,41
331.80185,331.96158,64,110,41
332.30185,332.46158,61,110,41
332.30185,332.46158,64,110,41
332.46854,332.62823,61,110,41
332.46854,332.62823,64,110,41
332.96854,333.12823,62,110,41
332.96854,333.12823,65,110,41
333.1352,333.29492,62,110,41
333.1352,333.29492,65,110,41
333.6352,333.79492,62,110,41
333.6352,333.79492,65,110,41
333.80185,333.96158,62,110,41
333.80185,333.96158,65,110,41
333.96854,334.08658,59,125,41
334.1352,334.25323,59,116,41
334.30185,334.41992,59,110,41
334.46854,334.58658,59,110,41
334.6352,334.75323,59,110,41
334.80185,334.91992,59,110,41
334.9685,335.29492,61,120,41
335.30185,335.46158,64,120,41
335.30185,335.46158,61,120,41
335.4685,335.62823,64,120,41
335.4685,335.62823,61,120,41
335.9685,336.12823,61,120,41
335.9685,336.12823,64,120,41
336.1352,336.29492,61,120,41
336.1352,336.29492,64,120,41
336.6352,336.79492,61,120,41
336.6352,336.79492,64,120,41
336.80185,336.96158,61,120,41
336.80185,336.96158,64,120,41
337.30185,337.46158,62,120,41
337.30185,337.46158,65,120,41
337.4685,337.62823,62,120,41
337.4685,337.62823,65,120,41
337.9685,338.08658,68,120,41
338.1352,338.25323,68,120,41
338.30185,338.42258,68,120,41
338.47232,338.59305,68,120,41
338.64276,338.76776,68,120,41
338.81924,338.95206,68,120,41
339.00674,339.1248,69,100,41
339.1734,339.29144,57,50,41
339.34006,339.45813,57,50,41
339.50674,339.6248,57,50,41
339.6734,339.79144,57,50,41
339.84006,339.95813,57,50,41
340.00674,340.1248,60,50,41
340.1734,340.29144,60,50,41
340.34006,340.45813,60,50,41
340.5067,340.6248,60,50,41
340.6734,340.79144,53,50,41
340.84006,340.95813,53,50,41
341.0067,341.1248,53,100,41
341.1734,341.29144,58,100,41
341.34006,341.45813,62,100,41
341.5067,341.6248,58,100,41
341.6734,341.79144,60,100,41
341.84006,341.95813,57,100,41
342.0067,342.2498,58,100,41
342.34006,342.9998,53,100,41
343.0067,343.1248,55,100,41
343.1734,343.29144,53,100,41
343.34006,343.45813,51,100,41
343.5067,343.6248,50,100,41
343.6734,343.79144,48,100,41
343.84006,343.9581,57,100,41
344.0067,344.1248,50,100,41
344.1734,344.29144,53,100,41
344.34006,344.4581,58,100,41
344.5067,344.6248,62,100,41
344.6734,344.79144,65,100,41
344.84006,344.9581,63,100,41
345.0067,345.1248,62,100,41
345.1734,345.29144,58,100,41
345.34006,345.4581,53,100,41
345.5067,345.6248,53,100,41
345.6734,345.79144,53,100,41
345.84006,345.9581,51,100,41
346.0067,346.1248,50,100,41
346.1734,346.29144,50,100,41
346.34006,346.4581,62,100,41
346.5067,346.6248,62,100,41
346.6734,346.79144,62,100,41
346.84006,346.9581,62,100,41
347.0067,347.1248,62,70,41
347.1734,347.29144,50,70,41
347.34006,347.4581,62,70,41
347.5067,347.6248,62,70,41
347.6734,347.79144,62,110,41
347.84006,347.9581,62,90,41
348.0067,348.1248,63,70,41
348.1734,348.29144,51,70,41
348.34006,348.4581,63,70,41
348.5067,348.6248,63,70,41
348.6734,348.79144,63,110,41
348.84006,348.9581,63,90,41
349.0067,349.1248,63,70,41
349.1734,349.29144,51,70,41
349.34006,349.4581,63,70,41
349.5067,349.6248,63,70,41
349.6734,349.79144,63,110,41
349.84006,349.9581,63,90,41
350.0067,350.1248,65,70,41
350.1734,350.29144,57,70,41
350.34006,350.4581,65,70,41
350.5067,350.6248,65,70,41
350.67337,350.79144,65,110,41
350.84006,350.9581,65,90,41
351.0067,351.1248,67,70,41
351.17337,351.29144,55,70,41
351.34006,351.4581,67,70,41
351.5067,351.6248,67,70,41
351.67337,351.79144,67,110,41
351.84006,351.9581,67,90,41
352.0067,352.1248,69,70,41
352.17337,352.29144,57,70,41
352.34006,352.4581,69,70,41
352.5067,352.6248,69,70,41
352.67337,352.79144,67,110,41
352.84006,352.9581,67,90,41
353.0067,353.1248,69,70,41
353.17337,353.29144,57,70,41
353.34006,353.4581,57,70,41
353.5067,353.6248,57,70,41
353.67337,353.79144,55,110,41
353.84006,353.9581,55,90,41
354.0067,354.12476,57,70,41
354.17337,354.29144,69,70,41
354.34006,354.4581,69,70,41
354.5067,354.62476,69,70,41
354.67337,354.79144,67,110,41
354.84006,354.9581,67,90,41
356.34006,356.4608,57,110,41
356.5105,356.63123,53,110,41
359.52286,360.1826,61,102,41
360.18954,360.84924,63,110,41
360.8562,361.51593,65,83,41
361.68954,361.8076,66,70,41
361.8562,361.97424,65,70,41
362.02286,362.14093,63,70,41
362.18954,362.3076,61,70,41
362.3562,362.47424,60,73,41
362.52286,362.64093,58,76,41
365.52286,365.84924,61,70,41
365.8562,366.1826,61,70,41
366.1895,366.5159,63,70,41
366.52286,366.84924,60,70,41
366.8562,367.1826,57,70,41
367.1895,367.5159,58,70,41
367.52286,367.84924,61,70,41
367.8562,368.1826,61,70,41
368.1895,368.5159,60,70,41
368.52286,368.84924,63,70,41
368.8562,369.1826,60,70,41
369.1895,369.5159,61,70,41
369.52286,369.84924,65,70,41
369.8562,370.1826,65,70,41
370.1895,370.5159,64,70,41
370.52286,370.84924,67,70,41
370.8562,371.1826,52,70,41
371.1895,371.4395,53,70,41
371.4395,371.52286,55,76,41
371.52286,371.84924,57,78,41
371.8562,372.1826,58,86,41
372.1895,372.84924,60,94,41
372.8562,373.1826,61,110,41
373.1895,373.3076,63,110,41
373.35617,373.47424,61,110,41
373.52286,373.6409,60,110,41
373.6895,373.8076,58,110,41
373.85617,373.97424,56,110,41
374.02286,374.1409,55,110,41
374.1895,374.3076,56,110,41
374.35617,374.47424,55,110,41
374.52286,374.6436,53,110,41
374.6933,374.81406,66,110,41
374.86377,374.98877,65,110,41
375.04022,375.17303,63,110,41
375.22772,375.3458,61,110,41
375.3944,375.51245,60,110,41
375.56107,375.6791,58,110,41
375.72772,375.8458,58,110,41
375.8944,376.01245,58,110,41
376.06107,376.1791,58,110,41
376.22772,376.3458,58,110,41
376.3944,376.51245,58,110,41
376.56107,376.6791,58,110,41
376.72772,376.8458,70,110,41
376.8944,377.01245,58,110,41
377.06107,377.1791,58,110,41
377.22772,377.3458,58,110,41
377.3944,377.51245,58,110,41
377.56107,377.6791,57,110,41
377.72772,377.8458,60,110,41
377.8944,378.01245,53,110,41
378.06107,378.1791,65,110,41
378.22772,378.5541,58,100,41
379.89438,380.2208,63,70,41
380.22772,380.47772,61,70,41
380.47772,380.56107,60,70,41
380.56107,380.88745,58,70,41
381.89438,382.22076,66,70,41
382.22772,382.47772,65,70,41
382.47772,382.56107,63,70,41
382.56107,382.88745,61,70,41
383.89438,384.22076,70,70,41
384.22772,384.47772,68,70,41
384.47772,384.56107,70,70,41
384.56107,384.88745,72,70,41
384.89438,385.22076,73,70,41
385.22772,385.8909,75,70,41
385.89438,386.22424,77,70,41
386.22772,386.34576,78,70,41
386.39438,386.51245,77,70,41
386.56107,386.6791,75,70,41
386.72772,386.84576,73,70,41
386.89438,387.01245,72,70,41
387.06107,387.1791,70,70,41
387.22772,387.34576,72,70,41
387.39438,387.51245,70,70,41
387.56107,387.6818,68,70,41
387.7315,387.85223,66,70,41
387.90195,388.02695,65,70,41
388.07843,388.21124,63,70,41
388.26593,388.38397,61,70,41
388.4326,388.55066,60,70,41
388.59927,388.71732,58,70,41
388.76593,388.88397,58,70,41
388.9326,389.05066,58,70,41
389.09927,389.21732,58,70,41
389.26593,389.38397,58,70,41
389.4326,389.55066,58,70,41
389.59927,389.71732,58,70,41
389.76593,389.88397,70,70,41
389.9326,390.05066,58,70,41
390.09927,390.21732,58,70,41
390.26593,390.38397,58,70,41
390.4326,390.55066,58,70,41
390.59927,390.71732,57,70,41
390.76593,390.88397,60,70,41
390.9326,391.05066,53,70,41
391.09927,391.21732,65,70,41
391.26593,391.59232,65,70,41
392.26593,392.59232,70,70,41
392.76593,392.88397,66,70,41
392.9326,393.05066,65,70,41
393.09927,393.21732,63,70,41
393.26593,393.38397,61,70,41
393.4326,393.55066,60,70,41
393.59927,393.71732,58,70,41
394.4326,394.59232,58,50,41
394.59924,394.84232,58,50,41
394.9326,395.17566,58,50,41
395.26593,395.38397,58,50,41
395.4326,395.55066,58,50,41
395.59924,395.84232,58,50,41
395.9326,396.17566,57,50,41
396.26593,396.38666,58,70,41
396.43637,396.55713,70,73,41
396.60684,396.72757,70,76,41
396.77728,396.898,70,80,41
396.94775,397.06848,70,83,41
397.1182,397.23892,70,87,41
397.28864,397.4094,68,90,41
397.4591,397.57983,68,93,41
397.62955,397.75455,72,97,41
397.80603,397.93103,72,100,41
397.9825,398.1105,72,104,41
398.1632,398.29602,72,107,41
398.3507,398.46878,70,110,41
398.5174,398.63544,58,70,41
398.68405,398.80212,58,70,41
398.8507,398.96878,58,70,41
399.0174,399.13544,58,70,41
399.18405,399.30212,58,70,41
399.3507,399.46878,59,70,41
399.5174,399.63544,59,70,41
399.68405,399.80212,59,70,41
399.8507,399.96878,61,70,41
400.0174,400.13544,68,70,41
400.18405,400.30212,71,70,41
400.3507,400.46878,70,70,41
400.5174,400.63544,61,70,41
400.68405,400.80212,66,70,41
400.8507,400.96878,70,70,41
401.5174,401.63544,49,70,41
401.68405,401.8021,56,70,41
401.8507,401.96878,59,70,41
402.18405,402.3021,65,70,41
402.3507,402.6771,66,70,41
402.8507,402.96878,54,70,41
403.0174,403.13544,58,70,41
403.18405,403.3021,61,70,41
404.86966,404.9904,53,70,41
405.0401,405.16086,58,70,41
405.21057,405.3313,61,70,41
406.59225,406.71725,52,69,41
406.7687,406.89673,55,73,41
406.94943,407.07745,58,77,41
407.69266,407.82547,49,94,41
407.88016,408.01297,53,98,41
408.06766,408.20047,58,102,41
408.64746,408.97385,52,70,41
411.9808,412.09885,58,70,41
412.14746,412.26553,55,70,41
412.31415,412.4322,60,70,41
412.4808,412.59885,52,70,41
412.64746,412.76553,53,70,41
412.81415,412.9322,57,70,41
412.9808,413.09885,60,70,41
413.14746,413.26553,57,70,41
413.31415,413.4322,58,70,41
413.4808,413.59885,55,70,41
413.64746,413.76553,62,70,41
413.81415,413.9322,58,70,41
413.9808,414.09885,60,70,41
414.14746,414.26553,57,70,41
414.31415,414.4322,63,70,41
414.4808,414.59885,60,70,41
414.64746,414.76553,62,70,41
414.81415,414.9322,58,70,41
414.9808,415.09885,65,70,41
415.14746,415.26553,62,70,41
415.31415,415.4322,63,70,41
415.4808,415.59885,60,70,41
415.64746,415.76553,67,70,41
415.81412,415.9322,63,70,41
415.9808,416.09885,60,70,41
416.14746,416.26553,63,70,41
416.31412,416.4322,57,70,41
416.4808,416.59885,65,70,41
416.64746,416.76553,65,70,41
416.81412,416.9322,50,71,41
416.9808,417.09885,50,73,41
417.14746,417.26553,55,75,41
417.31412,417.4322,51,77,41
417.4808,417.59885,55,78,41
417.64746,417.76553,52,80,41
417.81412,417.9322,57,82,41
417.9808,418.09885,53,84,41
418.14746,418.26553,57,86,41
418.31412,418.4322,53,87,41
418.4808,418.59885,58,89,41
418.64746,418.7655,55,91,41
418.81412,418.9322,58,93,41
418.9808,419.09885,55,94,41
419.14746,419.2655,60,96,41
419.31412,419.4322,57,98,41
419.4808,419.59885,60,100,41
419.64746,419.7655,57,102,41
419.81412,419.9322,62,103,41
419.9808,420.09885,58,105,41
420.14746,420.2655,62,107,41
420.31412,420.4322,58,109,41
420.4808,420.59885,63,110,41
420.64746,420.7655,63,110,41
420.81412,420.9322,72,110,41
420.9808,421.09885,72,110,41
421.14746,421.2655,72,110,41
421.31412,421.4322,72,110,41
421.4808,421.59885,72,110,41
421.64746,421.7655,72,110,41
421.81412,421.9322,72,110,41
421.9808,422.09885,72,110,41
422.14746,422.2655,72,110,41
422.31412,422.4322,72,110,41
422.4808,422.59885,72,110,41
422.64746,422.7655,70,110,41
422.64746,422.7655,67,110,41
422.81412,422.9322,70,110,41
422.81412,422.9322,67,110,41
422.9808,423.09885,70,110,41
422.9808,423.09885,67,110,41
423.14746,423.2655,70,110,41
423.14746,423.2655,67,110,41
423.31412,423.4322,70,110,41
423.31412,423.4322,67,110,41
423.4808,423.59885,70,110,41
423.4808,423.59885,67,110,41
423.64746,423.7655,65,120,41
423.64746,423.7655,69,120,41
423.81412,423.9322,58,120,41
423.9808,424.10153,57,120,41
424.15125,424.27197,55,120,41
424.3217,424.4467,53,120,41
424.49817,424.63098,51,120,41
424.68567,425.6787,50,70,41
425.68567,426.6787,53,70,41
426.68567,427.01205,54,70,41
427.019,427.3454,57,70,41
427.35233,427.6787,63,70,41
427.35233,427.6787,60,70,41
427.68567,428.1787,58,70,41
427.68567,428.1787,62,70,41
430.18567,430.3037,53,50,41
430.35233,430.4704,58,50,41
430.519,430.63705,62,50,41
430.68567,430.8064,60,50,41
430.8561,430.97687,57,50,41
431.02658,431.15158,58,50,41
432.12952,432.4967,53,70,41
432.50452,432.8717,55,70,41
432.87952,433.00305,56,70,41
433.05392,433.172,56,70,41
433.2206,433.46365,56,70,41
433.55392,433.797,56,70,41
433.88727,434.0053,56,70,41
434.05392,434.172,56,70,41
434.2206,434.46365,56,70,41
434.55392,434.797,56,70,41
434.88727,435.0053,56,70,41
435.05392,435.172,56,70,41
435.2206,435.33865,56,70,41
435.38727,435.5053,56,70,41
435.55392,435.672,56,70,41
435.7206,435.83865,56,70,41
435.88727,436.21365,56,70,41
437.38727,437.5053,53,50,41
437.55392,437.672,55,50,41
437.72058,437.83865,51,50,41
437.88727,438.0053,56,50,41
438.05392,438.172,60,50,41
438.22058,438.33865,63,50,41
439.38727,439.5053,68,50,41
439.55392,439.67465,70,50,41
439.7244,439.84512,58,50,41
439.89484,440.24042,63,50,41
440.98422,441.10226,63,50,41
440.98422,441.10226,66,50,41
441.15088,441.26895,66,52,41
441.15088,441.26895,63,52,41
441.31757,441.5606,63,55,41
441.31757,441.5606,66,55,41
441.65088,441.89395,63,61,41
441.65088,441.89395,66,61,41
441.98422,442.10226,63,66,41
441.98422,442.10226,66,66,41
442.15088,442.26895,66,69,41
442.15088,442.26895,63,69,41
442.31757,442.5606,63,72,41
442.31757,442.5606,66,72,41
442.65088,442.89395,63,77,41
442.65088,442.89395,66,77,41
442.98422,443.10226,64,83,41
442.98422,443.10226,66,83,41
443.15088,443.26895,64,86,41
443.15088,443.26895,66,86,41
443.31757,443.4356,64,88,41
443.31757,443.4356,66,88,41
443.48422,443.60226,64,91,41
443.48422,443.60226,66,91,41
443.65088,443.76895,64,94,41
443.65088,443.76895,66,94,41
443.81757,443.9356,64,97,41
443.81757,443.9356,66,97,41
443.98422,444.3106,63,99,41
443.98422,444.3106,66,99,41
444.31757,444.64395,51,105,41
444.65088,444.97726,51,110,41
444.98422,446.8974,51,110,41
446.98422,447.3106,50,70,41
447.31754,447.64395,51,70,41
447.65088,447.97726,50,70,41
447.98422,448.3106,55,70,41
448.31754,448.64395,50,70,41
448.65088,448.97726,48,70,41
448.98422,449.3106,53,70,41
449.31754,449.64392,60,76,41
449.31754,449.97726,53,76,41
449.65088,449.97726,58,82,41
449.98422,450.23422,63,88,41
450.23422,450.31754,60,100,41
450.31754,450.64392,58,94,41
450.65088,450.98468,57,100,41
450.9918,451.1168,63,120,41
451.16824,451.29324,63,120,41
451.34473,451.6903,63,120,41
453.10944,453.26123,66,70,41
453.32373,453.4755,66,70,41
453.538,453.95764,66,70,41
455.68085,456.0185,59,70,41
456.0257,456.36334,57,70,41
456.3705,456.70816,55,70,41
456.71533,457.05298,60,70,41
457.06018,457.39783,55,70,41
457.405,457.74265,54,70,41
457.74982,458.08746,52,70,41
458.09467,458.43228,51,70,41
458.43948,459.04294,52,70,41
459.04294,459.12912,60,70,41
459.12912,459.47473,59,70,41
459.4821,459.84927,57,70,41
459.8571,459.97513,57,50,41
460.02374,460.14178,57,50,41
460.1904,460.30847,57,50,41
460.3571,460.47513,57,50,41
460.52374,460.64178,57,50,41
460.6904,460.80847,57,50,41
460.8571,460.97513,57,50,41
461.02374,461.14178,57,50,41
461.1904,461.30847,57,50,41
461.3571,461.47513,57,50,41
461.52374,461.64178,57,50,41
461.6904,461.80847,57,50,41
461.8571,461.97513,58,50,41
462.02374,462.14178,58,50,41
462.1904,462.30847,60,50,41
462.3571,462.47513,60,50,41
462.52374,462.64178,60,50,41
462.6904,462.80847,60,50,41
462.8571,462.97513,60,50,41
463.02374,463.14178,60,50,41
463.1904,463.30847,60,50,41
463.3571,463.47513,60,50,41
463.52374,463.64178,60,50,41
463.6904,463.80847,60,50,41
463.8571,463.97513,60,50,41
464.02374,464.14178,60,50,41
464.1904,464.30847,60,50,41
464.3571,464.47513,60,50,41
464.52374,464.64178,60,50,41
464.6904,464.80847,60,50,41
464.85706,464.97513,63,50,41
464.85706,464.97513,60,50,41
465.02374,465.14178,63,50,41
465.02374,465.14178,60,50,41
465.1904,465.31116,63,50,41
465.1904,465.31116,60,50,41
465.36087,465.4816,63,50,41
465.36087,465.4816,60,50,41
465.5313,465.6563,63,50,41
465.5313,465.6563,60,50,41
465.7078,465.8406,63,50,41
465.7078,465.8406,60,50,41
465.8953,466.01334,58,50,41
465.8953,466.01334,62,50,41
466.06195,466.18,50,50,41
466.2286,466.34668,50,50,41
466.3953,466.51334,50,50,41
466.56195,466.68,50,50,41
466.7286,466.84668,50,50,41
466.8953,467.01334,53,50,41
467.06195,467.18,53,50,41
467.2286,467.34668,53,50,41
467.3953,467.51334,53,50,41
467.56195,467.68,53,50,41
467.7286,467.84668,53,50,41
467.8953,468.01334,53,50,41
468.06195,468.18,53,50,41
468.2286,468.34668,53,50,41
468.3953,468.51334,53,50,41
468.56195,468.68,53,50,41
468.7286,468.84668,53,50,41
468.8953,469.01334,51,50,41
469.06195,469.18,51,50,41
469.2286,469.34668,51,50,41
469.3953,469.51334,51,50,41
469.56195,469.68,51,50,41
469.7286,469.84668,51,50,41
469.8953,470.01334,50,50,41
470.06195,470.18,58,50,41
470.2286,470.34668,58,50,41
470.39526,470.51334,53,50,41
470.56195,470.68,58,50,41
470.7286,470.84668,62,50,41
470.89526,471.01334,60,50,41
471.06195,471.18,58,50,41
471.2286,471.34668,57,50,41
471.39526,471.51334,55,50,41
471.56195,471.68,57,50,41
471.7286,471.84668,53,50,41
471.89526,472.01334,58,50,41
472.06195,472.18,58,50,41
472.2286,472.34668,58,50,41
472.39526,472.51334,58,50,41
472.56195,472.68268,62,50,41
472.7324,472.85315,65,50,41
478.50873,478.7004,53,50,41
478.70874,478.9004,53,50,41
478.90872,479.3004,53,50,41
479.70874,479.88193,53,120,41
479.88947,480.06265,53,120,41
480.0702,480.24338,53,120,41
480.25092,480.4306,53,120,41
480.43842,480.6251,53,120,41
480.6332,480.83856,53,120,41
480.8475,481.99332,58,120,41
480.8475,481.99332,62,120,41
482.00134,483.27814,53,120,41
482.00134,483.27814,58,120,41
483.28705,484.56384,53,120,41
0.0,0.11805544,46,50,42
0.1666665,0.28472194,46,50,42
0.333333,0.5763883,46,50,42
0.666666,0.9097213,46,50,42
0.999999,1.1180544,46,50,42
1.1666656,1.2847209,46,50,42
1.333332,1.5763873,46,50,42
1.666665,1.9097203,46,50,42
1.999998,2.1180534,46,50,42
2.1666646,2.28472,46,50,42
2.333331,2.4513865,46,50,42
2.4999976,2.618053,46,50,42
2.666664,2.791664,46,50,42
2.8431344,2.975947,46,50,42
3.0306344,4.0236893,46,50,42
16.395264,16.513319,59,50,42
16.56193,16.679985,59,52,42
16.728598,16.971653,59,54,42
17.06193,17.304985,59,58,42
17.395264,17.513319,59,63,42
17.56193,17.679985,59,65,42
17.728596,17.971651,59,67,42
18.06193,18.304985,59,72,42
18.395262,18.513317,59,76,42
18.561928,18.679983,59,78,42
18.728596,18.971651,59,81,42
19.061928,19.304983,59,85,42
19.395262,19.513317,59,89,42
19.561928,19.679983,59,92,42
19.728594,19.84665,59,94,42
19.89526,20.013315,59,96,42
20.061928,20.185472,59,98,42
20.236345,20.369158,59,100,42
20.423845,22.623064,60,110,42
22.673845,23.000235,58,70,42
23.00718,23.333567,53,70,42
23.340511,23.6669,55,70,42
23.673845,24.000233,51,70,42
24.007177,24.333567,53,70,42
24.340511,24.666899,51,70,42
24.673843,25.000233,50,70,42
25.007177,25.333565,48,70,42
25.34051,25.666899,46,70,42
25.673843,26.00023,39,70,42
26.007175,26.333565,41,70,42
26.34051,26.666897,39,70,42
26.673841,26.935469,38,110,42
26.935469,27.022678,46,110,42
27.022678,27.277039,51,110,42
28.095352,28.46254,53,70,42
28.845352,28.963408,46,120,42
29.012018,29.130074,46,120,42
29.178686,29.421741,46,120,42
29.512018,29.755074,46,120,42
29.845352,29.963408,46,120,42
30.012018,30.130074,46,120,42
30.178684,30.42174,46,120,42
30.512018,30.755074,46,120,42
30.84535,30.963406,46,120,42
31.012016,31.130072,46,120,42
31.178684,31.29674,46,120,42
31.34535,31.463406,46,120,42
31.512016,31.630072,46,120,42
31.678682,31.796738,46,120,42
31.84535,32.838406,58,120,42
32.84535,32.963406,45,120,42
33.012016,33.13007,45,120,42
33.17868,33.296738,45,120,42
33.34535,33.4634,45,120,42
33.512016,33.63007,45,120,42
33.67868,33.796738,45,120,42
33.84535,34.8384,57,120,42
37.845345,37.963398,45,70,42
38.01201,38.130066,45,70,42
38.178677,38.299416,45,70,42
38.349133,38.469868,45,70,42
38.519585,38.644585,45,70,42
38.696056,38.82887,45,70,42
38.883556,39.209946,38,100,42
41.05022,41.168278,57,70,42
41.21689,41.33494,53,70,42
41.383553,41.50161,50,70,42
41.55022,41.668274,45,70,42
41.716885,41.83494,41,70,42
41.883553,42.20994,43,70,42
42.216885,42.543274,55,70,42
42.55022,42.876606,56,70,42
42.883553,43.20994,57,70,42
44.716885,44.876606,46,70,42
44.88355,45.209938,45,70,42
45.921764,46.961006,62,70,42
46.968273,47.472534,60,90,42
47.479637,47.650093,58,100,42
47.650093,47.820545,57,104,42
47.820545,47.991,55,107,42
47.991,48.665718,53,110,42
48.672817,48.843273,53,70,42
48.843273,49.01373,55,70,42
49.01373,49.51799,57,70,42
49.52509,49.695545,55,70,42
49.695545,49.866,53,70,42
49.866,50.036453,52,70,42
50.036453,51.05208,50,70,42
51.05918,51.563442,48,90,42
51.570545,51.741,46,100,42
51.741,51.911453,45,104,42
51.911453,52.08191,43,107,42
52.08191,52.756626,41,110,42
52.763725,52.938145,41,79,42
52.938145,53.118866,43,71,42
53.118866,53.634857,45,70,42
53.642124,53.816544,43,70,42
53.816544,53.99096,41,70,42
53.99096,54.16538,40,70,42
54.16538,54.681366,38,50,42
54.688633,54.81218,45,50,42
54.863052,55.55346,50,50,42
55.560726,55.684273,45,50,42
55.735146,55.858692,38,50,42
55.909565,56.59997,45,50,42
56.60724,56.730785,38,50,42
56.781654,56.9052,45,50,42
56.956074,57.64648,50,50,42
57.653748,57.777294,45,70,42
57.828167,57.951714,38,70,42
58.002586,58.344154,45,70,42
58.35142,58.692993,38,70,42
58.70026,59.6959,39,110,42
59.74677,60.08834,45,70,42
60.095608,60.437176,38,70,42
60.444447,60.706074,50,70,42
60.706074,60.786015,51,90,42
60.79328,61.781654,51,110,42
61.839794,62.193707,45,70,42
62.201237,62.568424,50,70,42
62.576237,62.735962,38,70,42
62.742905,62.902626,38,70,42
62.909573,63.23596,38,70,42
63.242905,63.569294,38,70,42
63.576237,63.73596,38,70,42
63.742905,63.902626,38,70,42
63.90957,64.23596,38,70,42
64.242905,64.56929,38,70,42
64.57623,64.73596,38,70,42
64.742905,64.902626,38,70,42
64.90957,65.07292,38,70,42
65.080025,65.24338,38,70,42
65.25048,65.41959,38,70,42
65.42695,65.606636,38,70,42
65.61445,66.607506,38,70,42
66.61445,67.63007,36,70,42
67.63718,68.32758,42,70,42
68.33485,68.702034,41,60,42
68.70985,68.8279,46,50,42
68.87652,68.99457,46,50,42
69.04318,69.28624,46,50,42
69.37652,69.61957,46,50,42
69.70985,69.8279,46,50,42
69.87651,69.99457,46,50,42
70.04318,70.28624,46,50,42
70.37651,70.61957,46,50,42
70.70985,70.8279,46,50,42
70.87651,70.99457,46,50,42
71.04318,71.16392,46,50,42
71.21363,71.33437,46,50,42
71.38409,71.50909,46,50,42
71.56056,71.693375,46,50,42
71.74806,72.49025,46,50,42
91.217865,91.276695,48,110,42
91.276695,91.39434,46,110,42
91.39434,91.57403,45,110,42
91.58184,91.64434,48,110,42
91.64434,91.76934,46,110,42
91.76934,91.961006,45,110,42
91.96934,92.12906,50,120,42
92.13601,92.29573,50,120,42
92.30267,92.462395,50,120,42
92.96934,93.12906,60,120,42
93.136,93.29573,60,120,42
93.30267,93.462395,60,120,42
93.96934,94.12906,58,120,42
94.136,94.29572,58,120,42
94.30267,94.462395,58,120,42
94.96934,95.96239,50,120,42
94.96934,95.96239,58,120,42
95.96934,96.29572,50,120,42
95.96934,96.29572,57,120,42
96.636,96.75406,50,120,42
96.802666,96.92072,50,120,42
97.302666,97.42072,48,120,42
97.46934,97.58739,48,120,42
97.96933,98.08739,46,120,42
98.136,98.25406,46,120,42
98.636,98.75405,43,120,42
98.802666,98.92072,43,120,42
98.96933,99.08739,43,120,42
98.96933,99.08739,50,120,42
99.136,99.25405,43,120,42
99.136,99.25405,50,120,42
99.302666,99.4234,43,120,42
99.302666,99.4234,50,120,42
99.47312,99.59386,43,120,42
99.47312,99.59386,50,120,42
99.64358,99.76858,43,120,42
99.64358,99.76858,50,120,42
99.820045,99.95286,43,100,42
99.820045,99.95286,50,100,42
100.007545,100.1256,38,80,42
100.17421,100.29227,38,50,42
100.34088,100.45893,38,50,42
100.507545,100.6256,38,50,42
100.67421,100.79227,38,50,42
100.84087,100.95893,38,50,42
101.007545,101.1256,36,50,42
101.17421,101.29227,36,50,42
101.34087,101.45893,42,50,42
101.507545,101.625595,42,50,42
101.67421,101.79227,41,50,42
101.84087,101.95893,41,50,42
102.007545,102.125595,46,120,42
102.007545,102.125595,50,120,42
102.17421,102.29227,46,120,42
102.17421,102.29227,50,120,42
102.34087,102.58393,46,120,42
102.34087,102.58393,50,120,42
102.67421,102.91727,46,120,42
102.67421,102.91727,50,120,42
103.007545,103.125595,46,120,42
103.007545,103.125595,50,120,42
103.17421,103.29227,46,120,42
103.17421,103.29227,50,120,42
103.34087,103.45893,46,120,42
103.34087,103.45893,50,120,42
103.50754,103.625595,46,120,42
103.50754,103.625595,50,120,42
103.67421,103.79227,46,120,42
103.67421,103.79227,50,120,42
103.84087,103.95893,46,120,42
103.84087,103.95893,50,120,42
104.00754,104.125595,46,120,42
104.00754,104.125595,51,120,42
104.17421,104.29226,46,120,42
104.17421,104.29226,51,120,42
104.34087,104.45893,46,120,42
104.34087,104.45893,51,120,42
104.50754,104.625595,46,120,42
104.50754,104.625595,51,120,42
104.67421,104.79226,46,120,42
104.67421,104.79226,51,120,42
104.84087,104.95893,46,120,42
104.84087,104.95893,51,120,42
105.00754,105.125595,46,120,42
105.00754,105.125595,50,120,42
105.17421,105.29226,53,120,42
105.34087,105.45893,58,120,42
105.50754,105.625595,62,120,42
105.6742,105.79226,60,120,42
105.84087,105.95893,57,120,42
106.00754,106.125595,58,120,42
106.1742,106.29226,53,120,42
106.34087,106.45893,50,120,42
106.50754,106.625595,46,120,42
106.6742,106.79226,51,120,42
106.84087,106.95892,51,120,42
107.00754,107.125595,50,120,42
107.1742,107.29226,53,120,42
107.34087,107.45892,58,120,42
107.50754,107.625595,62,120,42
107.6742,107.79226,60,120,42
107.84087,107.95892,57,120,42
108.00754,108.125595,58,120,42
108.1742,108.29226,46,120,42
108.340866,108.45892,58,120,42
108.50754,108.625595,58,120,42
108.6742,108.79226,58,120,42
108.840866,108.95892,58,120,42
109.00754,109.12559,61,120,42
109.1742,109.29226,61,104,42
109.340866,109.45892,61,87,42
109.50754,109.62559,61,71,42
109.6742,109.79226,61,70,42
109.840866,109.95892,61,70,42
110.00754,110.12559,62,70,42
110.1742,110.29226,62,70,42
110.340866,110.45892,62,70,42
110.50754,110.62559,62,70,42
110.6742,110.79226,62,70,42
110.840866,110.95892,62,70,42
111.00753,111.12559,64,70,42
111.1742,111.29226,64,70,42
111.340866,111.45892,64,70,42
111.50753,111.62559,64,70,42
111.6742,111.79225,64,110,42
111.840866,111.95892,64,110,42
112.00753,112.16725,65,110,42
112.1742,112.25753,53,110,42
112.25753,112.340866,55,110,42
112.340866,112.45892,57,110,42
112.50753,112.62559,53,110,42
112.6742,112.79225,59,110,42
112.840866,112.95892,55,110,42
113.00753,113.33392,60,110,42
114.70138,114.83419,45,123,42
114.88888,115.03055,43,101,42
115.08888,116.28055,36,110,42
117.622215,118.9486,53,102,42
118.95554,119.615265,53,84,42
120.78888,120.90693,61,93,42
120.95554,121.0736,60,100,42
121.12221,121.240265,58,70,42
121.28888,121.40693,56,100,42
121.45554,121.5736,55,100,42
121.62221,121.740265,53,100,42
121.78887,121.90693,51,100,42
121.95554,122.0736,49,110,42
122.12221,122.240265,48,105,42
122.28887,122.615265,46,99,42
122.62221,123.29919,48,88,42
123.30672,123.640526,41,70,42
123.64763,123.98143,53,70,42
124.329445,124.578026,36,70,42
124.67036,124.91893,48,70,42
125.01126,125.25984,48,70,42
125.35217,125.68598,53,70,42
125.693085,126.026886,41,70,42
126.03399,126.3678,38,70,42
126.3749,126.7087,39,70,42
126.715805,126.964386,51,70,42
127.05672,127.3053,51,70,42
127.39763,127.6462,56,70,42
127.73853,128.07234,44,70,42
128.07944,128.41325,42,70,42
128.42035,128.75417,43,70,42
128.76126,129.00984,55,70,42
129.10217,129.35075,55,70,42
129.44308,129.77689,48,75,42
129.784,130.1178,60,83,42
130.1249,130.45871,62,92,42
130.4658,131.14052,63,100,42
131.14763,131.48143,65,110,42
131.48854,131.60658,67,110,42
131.6552,131.77325,65,110,42
131.82187,131.93993,63,110,42
131.98854,132.10658,56,110,42
132.1552,132.27325,55,110,42
132.32187,132.43993,43,110,42
132.48853,132.60658,48,110,42
132.6552,132.77325,60,110,42
132.82187,132.94261,60,110,42
132.99232,133.11305,60,110,42
133.16278,133.28778,60,110,42
133.33925,133.47206,60,110,42
133.52675,134.0198,65,110,42
134.02675,134.1448,61,110,42
134.1934,134.31146,60,110,42
134.36008,134.47813,58,110,42
134.52675,134.6448,56,110,42
134.6934,134.81146,55,110,42
134.86008,134.97813,53,110,42
135.02675,135.1448,51,110,42
135.1934,135.31146,49,110,42
135.36008,135.47813,48,110,42
135.52675,135.85313,46,110,42
135.86008,136.55714,48,110,42
136.56496,136.89134,41,110,42
137.23163,137.55801,56,70,42
137.56496,137.81496,55,70,42
137.81496,137.89828,53,70,42
137.89828,138.22467,52,70,42
138.23163,138.55801,55,70,42
138.56496,139.22467,53,70,42
139.23161,139.55801,60,70,42
139.56496,139.81496,58,70,42
139.81496,139.89828,56,70,42
139.89828,140.22467,55,70,42
140.23161,140.55801,58,70,42
140.56496,141.22467,56,70,42
141.23161,141.55801,63,80,42
141.56496,141.81496,62,80,42
141.81496,141.89828,60,80,42
141.89828,142.22467,59,80,42
142.23161,142.558,62,80,42
142.56496,142.81496,60,80,42
142.81496,142.89828,62,85,42
142.89828,143.22467,63,86,42
143.23161,143.558,65,93,42
143.56494,144.22467,67,100,42
144.23161,144.558,68,120,42
144.56494,144.683,70,120,42
144.73161,144.84967,68,120,42
144.89828,145.01634,67,120,42
145.06494,145.183,65,120,42
145.23161,145.34967,63,120,42
145.39828,145.51634,62,120,42
145.56494,145.683,63,110,42
145.73161,145.84967,61,110,42
145.89828,146.01634,60,110,42
146.06494,146.183,58,110,42
146.23161,146.34967,56,110,42
146.39828,146.51634,55,110,42
146.56494,146.683,56,110,42
146.73161,146.84967,55,110,42
146.89828,147.01633,53,110,42
147.06494,147.183,61,110,42
147.23161,147.34967,60,110,42
147.39828,147.51633,58,110,42
147.56494,147.683,56,110,42
147.73161,147.84967,55,110,42
147.89828,148.01633,53,110,42
148.06494,148.183,51,110,42
148.23161,148.34967,49,125,42
148.39828,148.51633,48,110,42
148.56494,148.683,46,110,42
148.73161,148.84967,43,103,42
148.89827,149.01633,48,96,42
149.06494,149.183,36,89,42
149.23161,149.34967,38,82,42
149.39827,149.51633,40,75,42
149.56494,149.89133,41,70,42
151.39827,151.558,48,70,42
151.56494,151.89133,53,70,42
152.06873,152.18947,49,70,42
152.23918,152.36418,48,70,42
152.41565,152.54846,46,70,42
152.60315,152.7267,44,50,42
152.77757,152.90112,43,50,42
152.952,153.20634,41,50,42
153.30083,153.55519,49,50,42
153.64966,153.77321,46,50,42
153.82408,153.94763,46,50,42
153.9985,154.26205,43,50,42
154.35994,154.65161,48,50,42
154.75995,154.88069,53,70,42
154.9304,155.05115,53,73,42
155.10086,155.22159,49,76,42
155.27132,155.39204,49,80,42
155.44177,155.5625,46,83,42
155.61221,155.73296,46,87,42
155.78267,155.90073,42,90,42
155.94934,156.0674,42,93,42
156.11601,156.23407,39,97,42
156.28267,156.40073,39,100,42
156.44934,156.5674,44,104,42
156.61601,156.73405,44,107,42
156.78267,156.90073,37,110,42
156.94934,157.0674,61,70,42
157.11601,157.23405,61,70,42
157.28267,157.40073,61,70,42
157.44934,157.5674,61,70,42
157.61601,157.73405,61,70,42
157.78267,157.90073,63,70,42
157.94934,158.0674,63,70,42
158.11601,158.23405,63,70,42
158.28267,158.40073,63,70,42
158.44934,158.5674,63,70,42
158.616,158.73405,63,70,42
158.78267,159.10905,61,70,42
159.28267,159.40073,44,70,42
159.44934,159.5674,49,70,42
159.616,159.73405,53,70,42
159.78267,159.90073,51,70,42
159.94934,160.0674,49,70,42
160.116,160.23405,48,70,42
160.28267,160.40073,46,70,42
160.44934,160.5674,48,70,42
160.616,160.73405,44,70,42
160.78267,160.90073,37,70,42
160.94934,161.0674,41,70,42
161.116,161.23405,44,70,42
162.78267,162.90073,36,70,42
162.94934,163.06738,41,70,42
163.116,163.23405,44,70,42
164.78267,164.90073,47,70,42
164.94933,165.06738,50,70,42
165.116,165.23405,53,70,42
166.78267,166.90071,44,70,42
166.94933,167.06738,50,72,42
167.116,167.23405,53,75,42
168.78265,168.90071,43,110,42
168.94933,169.06738,47,110,42
169.116,169.23405,50,110,42
169.28265,169.40071,55,110,42
169.44933,169.56738,59,110,42
169.616,169.94238,62,110,42
169.94933,170.06738,59,110,42
170.116,170.23405,55,110,42
170.28265,170.40071,50,110,42
170.44933,170.57007,47,110,42
170.61978,170.74052,43,110,42
170.79024,170.91524,42,120,42
170.9667,171.09952,42,120,42
171.1542,171.5214,42,120,42
173.0292,173.363,59,70,42
173.37012,173.70392,54,70,42
173.71103,174.04483,56,70,42
174.05193,174.38574,52,70,42
174.39284,174.72665,54,70,42
174.73375,175.06755,52,70,42
175.07466,175.40846,51,70,42
175.41557,175.74937,54,70,42
175.75648,176.09029,56,70,42
176.09738,176.43895,52,70,42
176.44623,176.7878,54,70,42
176.79506,177.13663,52,70,42
177.14389,177.4086,51,70,42
177.4086,177.49684,47,70,42
177.49684,177.84242,52,70,42
178.65048,179.08891,54,70,42
179.546,180.53906,47,50,42
180.546,181.53906,46,50,42
181.546,182.53906,47,50,42
182.546,183.53906,42,50,42
183.546,184.53905,44,50,42
184.546,185.53905,39,50,42
185.54599,187.66318,46,90,42
187.67099,187.78905,42,70,42
187.83766,187.95572,58,70,42
188.00433,188.12239,54,70,42
188.17099,188.28905,58,70,42
188.33766,188.45572,54,70,42
188.50433,188.62239,58,70,42
188.67099,188.78905,53,70,42
188.83766,188.95572,56,70,42
189.00433,189.12239,53,70,42
189.17099,189.28905,56,70,42
189.33766,189.45572,53,70,42
189.50433,189.62239,56,70,42
189.67099,189.78905,54,70,42
189.83766,189.95572,54,70,42
190.00433,190.12238,51,70,42
190.17099,190.28905,54,70,42
190.33766,190.45572,51,70,42
190.50433,190.62238,54,50,42
190.67099,190.78905,50,70,42
190.83766,190.95572,53,70,42
191.00433,191.12238,50,70,42
191.17099,191.28905,53,70,42
191.33766,191.45572,50,70,42
191.50433,191.62238,53,70,42
191.67099,191.78905,51,70,42
191.83766,191.95572,51,70,42
192.00432,192.12238,46,70,42
192.17099,192.28905,51,70,42
192.33766,192.45572,46,70,42
192.50432,192.62238,51,70,42
192.67099,192.78905,46,70,42
192.83766,192.95572,49,70,42
193.00432,193.12238,46,70,42
193.17099,193.28905,49,70,42
193.33766,193.45572,46,70,42
193.50432,193.62238,49,70,42
193.67099,195.66405,48,120,42
195.67099,195.78905,36,120,42
195.67099,195.78905,48,120,42
195.83766,195.9557,36,120,42
195.83766,195.9557,48,120,42
196.00432,196.24738,36,120,42
196.00432,196.24738,48,120,42
196.33766,196.5807,36,120,42
196.33766,196.5807,48,120,42
196.67099,196.78905,36,120,42
196.67099,196.78905,48,120,42
196.83765,196.9557,36,120,42
196.83765,196.9557,48,120,42
197.00432,197.24738,36,120,42
197.00432,197.24738,48,120,42
197.33765,197.5807,36,120,42
197.33765,197.5807,48,120,42
197.67099,197.78905,36,120,42
197.67099,197.78905,48,120,42
197.83765,197.9557,36,120,42
197.83765,197.9557,48,120,42
198.00432,198.12238,36,120,42
198.00432,198.12238,48,120,42
198.17099,198.28905,36,120,42
198.17099,198.28905,48,120,42
198.33765,198.4557,36,120,42
198.33765,198.4557,48,120,42
198.50432,198.62238,36,120,42
198.50432,198.62238,48,120,42
198.67099,199.66405,36,120,42
198.67099,199.66405,48,120,42
199.67099,199.78905,43,120,42
199.83765,199.9557,55,120,42
200.00432,200.12238,59,120,42
200.17099,200.28903,62,120,42
200.33765,200.4557,67,120,42
200.50432,200.62238,50,120,42
200.67099,200.78903,55,120,42
200.83765,200.9557,59,120,42
201.00432,201.12238,62,120,42
201.17099,201.28903,47,120,42
201.33765,201.4557,50,120,42
201.50432,201.62238,55,120,42
201.67099,201.78903,43,120,42
201.83765,201.9557,47,120,42
202.00432,202.12238,50,120,42
202.17097,202.28903,55,120,42
202.33765,202.4557,50,120,42
202.50432,202.62238,46,120,42
202.67097,202.78903,43,120,42
202.83765,202.9557,46,120,42
203.00432,203.12238,43,120,42
203.17097,203.28903,41,120,42
203.33765,203.4557,40,120,42
203.50432,203.62238,45,120,42
203.67097,206.3307,38,120,42
206.33765,206.66403,38,120,42
206.67097,207.3307,38,120,42
207.33765,207.66403,50,120,42
207.67097,207.99736,51,120,42
209.17097,209.28903,51,120,42
209.33765,209.4557,54,120,42
209.5043,209.62236,57,120,42
209.67097,209.78903,60,120,42
209.83765,209.9557,57,120,42
210.0043,210.12236,54,120,42
210.17097,210.28903,51,120,42
210.33765,210.45569,48,120,42
210.5043,210.62236,45,120,42
210.67097,210.78903,42,120,42
210.83765,210.95569,39,120,42
211.0043,211.12236,39,120,42
211.17097,211.28903,39,120,42
211.33765,211.45569,39,120,42
211.5043,211.62236,39,120,42
211.67097,211.78903,39,120,42
211.83765,211.95569,39,120,42
212.0043,212.12236,39,120,42
212.17097,212.28903,39,120,42
212.33763,212.45569,39,120,42
212.5043,212.62236,39,120,42
212.67097,212.78903,39,120,42
212.83763,212.95569,39,120,42
213.0043,213.12505,39,120,42
213.17476,213.2955,39,120,42
213.34521,213.47021,39,120,42
213.52168,213.64668,39,120,42
213.69815,214.02454,40,120,42
215.69815,215.81621,69,50,42
215.86482,215.98288,69,50,42
216.03148,216.27454,69,50,42
216.36482,216.60788,69,50,42
216.69815,216.81621,69,50,42
216.86482,216.98288,69,50,42
217.03148,217.27454,69,50,42
217.36482,217.60788,69,50,42
217.69815,217.81621,69,50,42
217.86482,217.98288,69,50,42
218.03148,218.27454,69,50,42
218.36482,218.60786,69,50,42
218.69815,218.81621,69,50,42
218.86482,218.98286,69,50,42
219.03148,219.27454,69,50,42
221.69815,221.81621,58,60,42
221.8648,221.98286,57,60,42
222.03148,222.14954,55,60,42
222.19815,222.31621,53,60,42
222.3648,222.48286,52,60,42
222.53148,222.64954,58,60,42
223.3648,223.48286,53,60,42
223.53148,223.64954,51,60,42
223.69815,223.8162,50,60,42
223.8648,223.98286,56,60,42
224.03148,224.14954,55,60,42
224.19815,224.3162,53,60,42
225.3648,225.48286,63,60,42
225.53148,225.64954,62,60,42
225.69814,225.8162,60,60,42
225.8648,225.98286,63,60,42
226.3648,226.48286,60,60,42
226.53148,226.64954,58,60,42
226.69814,226.8162,57,60,42
226.8648,226.98286,60,60,42
227.69814,227.8162,58,60,42
227.8648,227.98286,57,60,42
228.03148,228.14954,55,60,42
228.19814,228.3162,58,60,42
228.3648,228.48286,51,60,42
228.53148,228.64952,55,60,42
228.69814,228.8162,60,60,42
228.8648,228.98286,58,60,42
229.03148,229.14952,57,60,42
229.19814,229.3162,60,60,42
229.3648,229.48286,53,60,42
229.53148,229.64952,57,60,42
229.69814,229.8162,58,60,42
229.8648,229.98286,57,60,42
230.03148,230.14952,55,60,42
230.19814,230.3162,58,60,42
230.3648,230.48286,60,60,42
230.53146,230.64952,58,60,42
230.69814,230.8162,56,60,42
230.8648,230.98286,60,60,42
231.03146,231.14952,62,60,42
231.19814,231.3162,60,60,42
231.3648,231.48286,58,60,42
231.53146,231.64952,62,60,42
231.69814,231.8162,63,60,42
231.8648,231.98286,63,60,42
232.03146,232.14952,62,60,42
232.19814,232.3162,63,60,42
232.3648,232.48286,65,60,42
232.53146,232.64952,67,60,42
232.69814,232.8162,68,60,42
232.8648,232.98286,67,60,42
233.03146,233.14952,65,60,42
233.19814,233.3162,63,60,42
233.3648,233.48286,62,60,42
233.53146,233.64952,60,60,42
233.69814,233.8162,59,60,42
233.8648,233.98285,57,60,42
234.03146,234.14952,55,60,42
234.19814,234.3162,65,65,42
234.3648,234.48285,63,66,42
234.53146,234.64952,62,67,42
234.69814,234.8162,60,69,42
234.8648,234.98285,58,70,42
235.03146,235.14952,57,72,42
235.19814,235.3162,58,73,42
235.3648,235.48285,57,75,42
235.53146,235.64952,55,76,42
235.69814,235.8162,53,77,42
235.86479,235.98285,51,79,42
236.03146,236.14952,50,80,42
236.19814,236.3162,48,82,42
236.36479,236.48285,57,83,42
236.53146,236.64952,55,85,42
236.69814,236.8162,53,86,42
236.86479,236.98285,51,87,42
237.03146,237.14952,58,89,42
237.19814,237.3162,57,90,42
237.36479,237.48285,55,92,42
237.53146,237.64952,53,93,42
237.69814,237.8162,51,95,42
237.86479,237.98285,50,96,42
238.03146,238.14952,48,98,42
238.19814,238.3162,46,99,42
238.36479,238.48285,45,100,42
238.53146,238.64952,46,102,42
238.69814,238.81618,36,103,42
238.86479,238.98285,38,105,42
239.03146,239.14952,39,106,42
239.19814,239.31618,40,108,42
239.36479,239.48553,41,109,42
239.53525,239.65599,41,110,42
239.7057,239.8307,42,120,42
239.88217,240.01498,42,120,42
240.06967,240.43686,42,120,42
244.94467,245.06273,61,70,42
245.11134,245.2294,58,70,42
245.278,245.39606,54,70,42
245.44467,245.56273,49,70,42
245.61134,245.7294,46,70,42
245.778,245.89606,42,70,42
245.94467,246.27106,41,70,42
246.278,247.27106,47,70,42
247.278,247.39606,46,70,42
247.44467,247.56273,49,70,42
247.61134,247.72939,46,70,42
247.778,247.89606,42,70,42
247.94467,248.06273,41,70,42
248.11133,248.22939,44,70,42
248.278,248.39606,39,70,42
248.44467,248.56273,42,70,42
248.61133,248.72939,44,70,42
248.778,248.89606,44,70,42
248.94467,249.93773,41,70,42
249.94467,250.93773,44,70,42
250.94467,251.27106,42,70,42
251.278,251.60439,46,70,42
251.61133,251.93771,39,70,42
251.94467,252.43771,41,70,42
254.44466,254.56271,56,70,42
254.61133,254.72939,53,70,42
254.778,254.89606,49,70,42
254.94466,255.06271,48,70,42
255.11133,255.22939,51,70,42
255.278,255.39606,46,70,42
255.44466,255.56271,49,70,42
255.61133,255.72939,51,70,42
255.778,255.89606,61,70,42
255.94466,256.9377,60,70,42
256.94467,257.9377,63,80,42
257.94467,258.0002,61,90,42
258.0002,258.05576,63,91,42
258.05576,258.11133,61,91,42
258.11133,258.19467,60,92,42
258.19467,258.2745,61,93,42
258.27798,258.60437,65,93,42
258.61133,258.9377,58,97,42
258.94467,259.27106,60,100,42
259.27798,259.60437,56,104,42
259.61133,259.9377,56,107,42
259.94467,261.89606,57,110,42
261.94464,262.27106,58,70,42
262.27798,262.60437,53,70,42
262.61133,262.9377,55,70,42
262.94464,263.27106,51,70,42
263.27798,263.60437,53,70,42
263.61133,263.9377,51,70,42
263.94464,264.27103,50,70,42
264.27798,264.60437,48,77,42
264.61133,264.9377,46,84,42
264.94464,265.27103,39,91,42
265.27798,265.60437,41,98,42
265.61133,265.9377,39,105,42
265.94464,266.27103,38,110,42
266.27798,266.60437,39,110,42
267.27798,267.6118,41,110,42
267.98285,268.11566,46,120,42
268.17035,268.28842,46,120,42
268.33704,268.58008,46,120,42
268.67035,268.91342,46,120,42
269.0037,269.12177,46,120,42
269.17035,269.28842,46,120,42
269.33704,269.58008,46,120,42
269.67035,269.91342,46,120,42
270.0037,270.12173,46,120,42
270.17035,270.28842,46,120,42
270.33704,270.45508,46,120,42
270.5037,270.62173,46,120,42
270.67035,270.78842,46,120,42
270.83704,270.95508,46,120,42
271.0037,271.99673,58,120,42
272.0037,272.12173,45,120,42
272.17035,272.28842,45,120,42
272.33704,272.45776,45,120,42
272.50748,272.6282,45,120,42
272.67795,272.80295,45,120,42
272.8544,272.9872,45,120,42
273.0419,274.3187,57,120,42
277.3276,277.44568,50,70,42
277.4943,277.61234,50,70,42
277.66095,277.779,50,70,42
277.8276,277.94568,50,70,42
277.9943,278.11234,50,70,42
278.16095,278.279,50,70,42
278.3276,278.654,43,100,42
280.3276,280.44568,62,70,42
280.4943,280.61234,58,70,42
280.66095,280.779,55,70,42
280.8276,280.94568,50,70,42
280.99426,281.11234,46,70,42
281.16095,281.279,43,70,42
281.3276,281.654,51,70,42
281.99426,282.32068,51,70,42
282.3276,282.654,50,70,42
284.16095,284.3276,51,70,42
284.3276,284.6614,50,70,42
285.40897,286.4246,67,70,42
286.43167,286.93594,65,92,42
286.94305,287.1135,63,103,42
287.1135,287.28397,62,107,42
287.28397,287.4544,60,110,42
287.4544,288.12912,58,110,42
288.13623,288.30667,58,86,42
288.30667,288.47714,60,80,42
288.47714,288.9814,62,70,42
288.9885,289.15897,60,70,42
289.15897,289.3294,58,70,42
289.3294,289.49988,57,70,42
289.49988,290.5155,55,70,42
290.52258,291.02686,53,92,42
291.03397,291.2044,51,103,42
291.2044,291.37488,50,107,42
291.37488,291.54532,48,110,42
291.54532,292.22003,46,110,42
292.22714,292.39758,46,86,42
292.39758,292.56805,48,80,42
292.56805,293.0723,50,70,42
293.0794,293.24988,48,70,42
293.24988,293.42032,46,70,42
293.42032,293.59076,45,70,42
293.59076,294.09503,43,50,42
294.10214,294.22287,50,50,42
294.27258,294.9473,55,50,42
294.9544,295.0738,50,50,42
295.12296,295.24234,55,50,42
295.29147,295.95862,50,50,42
295.96564,296.08502,55,50,42
296.1342,296.25357,50,50,42
296.30273,296.96985,55,50,42
296.97687,297.09494,50,50,42
297.14355,297.2616,55,50,42
297.3102,297.6366,50,50,42
297.64355,297.96994,43,90,42
297.97687,298.93173,44,110,42
298.97687,299.30325,38,50,42
299.3102,299.6366,43,50,42
299.64355,299.89355,43,50,42
299.89355,299.96994,44,100,42
299.97687,300.93173,44,110,42
300.97687,301.30325,38,50,42
301.3102,301.6366,43,50,42
301.64355,301.7616,43,50,42
301.8102,301.92825,43,50,42
301.97687,302.21994,43,50,42
302.3102,302.55325,43,50,42
302.64355,302.7616,43,50,42
302.8102,302.92825,43,50,42
302.97687,303.09494,43,50,42
303.14355,303.2616,43,50,42
303.3102,303.42825,43,50,42
303.47687,303.59494,43,50,42
303.64355,304.6366,43,50,42
304.64355,305.6366,45,50,42
305.64352,306.6366,46,50,42
306.64352,307.30325,37,50,42
307.3102,307.6366,36,50,42
307.64352,307.7616,41,50,42
307.8102,307.92825,41,50,42
307.97687,308.2199,41,50,42
308.3102,308.55325,41,50,42
308.64352,308.7616,41,50,42
308.8102,308.92825,41,50,42
308.97687,309.2199,41,50,42
309.3102,309.55325,41,50,42
309.64352,309.76428,41,50,42
309.814,309.93472,41,50,42
309.98444,310.1052,41,50,42
310.1549,310.27563,41,50,42
310.32535,310.45035,41,50,42
310.50183,310.62683,41,50,42
310.67828,311.79285,41,50,42
317.9756,318.09366,62,59,42
318.14227,318.2603,62,68,42
318.30893,318.42697,62,77,42
318.4756,318.80197,62,86,42
318.80893,319.80197,64,50,42
319.80893,320.80197,60,50,42
320.80893,322.1353,59,50,42
322.14227,322.46866,56,50,42
322.4756,322.80197,57,50,42
322.80893,323.46866,52,50,42
324.80893,324.92697,61,50,42
324.9756,325.09366,59,50,42
325.14224,325.2603,57,50,42
325.30893,325.42697,56,50,42
325.4756,325.59366,54,50,42
325.64224,325.7603,59,50,42
325.80893,326.05197,56,50,42
326.14224,326.80197,52,50,42
330.16943,330.23193,43,110,42
330.23193,330.35303,41,110,42
330.35693,330.53662,40,110,42
330.54443,330.6111,43,110,42
330.6111,330.74026,41,110,42
330.74445,330.9498,40,110,42
330.9587,331.12784,45,110,42
331.1352,331.29492,45,110,42
331.6352,331.79492,45,110,42
331.80185,331.96158,45,110,42
332.30185,332.46158,43,110,42
332.46854,332.62823,43,110,42
332.96854,333.12823,41,110,42
333.1352,333.29492,41,110,42
333.6352,333.79492,41,110,42
333.80185,333.96158,41,110,42
333.96854,334.08658,38,125,42
333.96854,334.08658,45,125,42
334.1352,334.25323,38,116,42
334.1352,334.25323,45,116,42
334.30185,334.41992,38,110,42
334.30185,334.41992,45,110,42
334.46854,334.58658,38,110,42
334.46854,334.58658,45,110,42
334.6352,334.75323,38,110,42
334.6352,334.75323,45,110,42
334.80185,334.91992,38,110,42
334.80185,334.91992,45,110,42
334.9685,335.29492,45,120,42
335.30185,335.46158,45,120,42
335.4685,335.62823,45,120,42
335.9685,336.12823,43,120,42
336.1352,336.29492,43,120,42
336.6352,336.79492,43,120,42
336.80185,336.96158,43,120,42
337.30185,337.46158,41,120,42
337.4685,337.62823,41,120,42
337.9685,338.08658,38,120,42
337.9685,338.08658,45,120,42
338.1352,338.25323,38,120,42
338.1352,338.25323,45,120,42
338.30185,338.42258,38,120,42
338.30185,338.42258,45,120,42
338.47232,338.59305,38,120,42
338.47232,338.59305,45,120,42
338.64276,338.76776,38,120,42
338.64276,338.76776,45,120,42
338.81924,338.95206,38,120,42
338.81924,338.95206,45,120,42
339.00674,339.1248,45,100,42
339.1734,339.29144,45,50,42
339.34006,339.45813,45,50,42
339.50674,339.6248,45,50,42
339.6734,339.79144,45,50,42
339.84006,339.95813,45,50,42
340.00674,340.13174,48,50,42
340.1734,340.2984,48,50,42
340.34006,340.46506,48,50,42
340.5067,340.6317,48,50,42
340.6734,340.7984,41,50,42
340.84006,340.96506,41,50,42
341.0067,341.1317,46,100,42
341.0067,341.1317,50,100,42
341.1734,341.2984,46,100,42
341.1734,341.2984,50,100,42
341.34006,341.58313,46,100,42
341.34006,341.58313,50,100,42
341.6734,341.91644,46,100,42
341.6734,341.91644,51,100,42
342.0067,342.1317,46,100,42
342.0067,342.1317,50,100,42
342.1734,342.2984,46,100,42
342.1734,342.2984,50,100,42
342.34006,342.58313,46,100,42
342.34006,342.58313,50,100,42
342.6734,342.91644,46,100,42
342.6734,342.91644,50,100,42
343.0067,343.1317,46,100,42
343.0067,343.1317,51,100,42
343.1734,343.2984,46,100,42
343.1734,343.2984,53,100,42
343.34006,343.46506,46,100,42
343.34006,343.46506,55,100,42
343.5067,343.6317,46,100,42
343.5067,343.6317,53,100,42
343.6734,343.7984,46,100,42
343.6734,343.7984,51,100,42
343.84006,343.96506,46,100,42
343.84006,343.96506,51,100,42
344.0067,344.1317,46,100,42
344.1734,344.2984,50,100,42
344.34006,344.46506,53,100,42
344.5067,344.6317,58,100,42
344.6734,344.7984,62,100,42
344.84006,344.96506,60,100,42
345.0067,345.1317,58,100,42
345.1734,345.2984,53,100,42
345.34006,345.46506,50,100,42
345.5067,345.6317,46,100,42
345.6734,345.7984,53,100,42
345.84006,345.96506,41,100,42
346.0067,346.1248,46,100,42
346.1734,346.29144,46,100,42
346.34006,346.4581,58,100,42
346.5067,346.6248,58,100,42
346.6734,346.79144,58,100,42
346.84006,346.9581,58,100,42
347.0067,347.1248,58,70,42
347.1734,347.29144,46,70,42
347.34006,347.4581,58,70,42
347.5067,347.6248,58,70,42
347.6734,347.79144,58,110,42
347.84006,347.9581,58,90,42
348.0067,348.1248,60,70,42
348.1734,348.29144,48,70,42
348.34006,348.4581,60,70,42
348.5067,348.6248,60,70,42
348.6734,348.79144,60,110,42
348.84006,348.9581,60,90,42
349.0067,349.1248,60,70,42
349.1734,349.29144,48,70,42
349.34006,349.4581,60,70,42
349.5067,349.6248,60,70,42
349.6734,349.79144,60,110,42
349.84006,349.9581,60,90,42
350.0067,350.1248,62,70,42
350.1734,350.29144,50,70,42
350.34006,350.4581,62,70,42
350.5067,350.6248,62,70,42
350.67337,350.79144,62,110,42
350.84006,350.9581,62,90,42
351.0067,351.1248,63,70,42
351.17337,351.29144,51,70,42
351.34006,351.4581,63,70,42
351.5067,351.6248,63,70,42
351.67337,351.79144,64,110,42
351.84006,351.9581,64,90,42
352.0067,352.1248,65,70,42
352.17337,352.29144,53,70,42
352.34006,352.4581,65,70,42
352.5067,352.6248,65,70,42
352.67337,352.79144,64,110,42
352.84006,352.9581,64,90,42
353.0067,353.1248,65,70,42
353.17337,353.29144,53,70,42
353.34006,353.4581,53,70,42
353.5067,353.6248,53,70,42
353.67337,353.79144,52,110,42
353.84006,353.9581,52,90,42
354.0067,354.12476,53,70,42
354.17337,354.29144,65,70,42
354.34006,354.4581,65,70,42
354.5067,354.62476,65,70,42
354.67337,354.79144,64,110,42
354.84006,354.9581,64,90,42
356.68097,356.80597,50,110,42
356.85742,356.99023,48,110,42
357.04492,357.7871,41,110,42
359.52286,360.1826,58,102,42
360.18954,360.84924,58,110,42
360.8562,361.1826,58,83,42
361.18954,361.51593,58,70,42
362.68954,362.8076,54,80,42
362.8562,362.97424,53,83,42
363.02286,363.14093,51,87,42
363.1895,363.3076,49,90,42
363.3562,363.47424,48,93,42
363.52286,363.64093,46,97,42
363.6895,363.8076,42,100,42
363.8562,363.97424,41,104,42
364.02286,364.14093,39,107,42
364.1895,364.3076,37,110,42
364.3562,364.47424,39,104,42
364.52286,365.1826,41,97,42
365.1895,365.51593,46,70,42
366.1895,366.5159,41,70,42
366.52286,366.84924,53,70,42
366.8562,367.1826,53,70,42
367.1895,367.5159,58,70,42
367.52286,367.84924,46,70,42
367.8562,368.1826,43,70,42
368.1895,368.5159,44,70,42
368.52286,368.84924,56,70,42
368.8562,369.1826,56,70,42
369.1895,369.5159,61,70,42
369.52286,369.84924,49,70,42
369.8562,370.1826,47,70,42
370.1895,370.5159,48,70,42
370.52286,370.84924,60,70,42
370.8562,371.1826,48,70,42
371.1895,371.4395,41,70,42
371.4395,371.52286,43,76,42
371.52286,371.84924,45,78,42
371.8562,372.1826,46,86,42
372.1895,372.84924,48,94,42
372.8562,373.1826,49,110,42
373.1895,373.3076,51,110,42
373.35617,373.47424,49,110,42
373.52286,373.6409,48,110,42
373.6895,373.8076,46,110,42
373.85617,373.97424,44,110,42
374.02286,374.1409,43,110,42
374.1895,374.3076,44,110,42
374.35617,374.47424,43,110,42
374.52286,374.6436,41,110,42
375.72772,375.8458,54,110,42
375.8944,376.01245,53,110,42
376.06107,376.1791,51,110,42
376.22772,376.3458,49,110,42
376.3944,376.51245,48,110,42
376.56107,376.6791,46,110,42
376.72772,376.8458,42,110,42
376.8944,377.01245,41,110,42
377.06107,377.1791,39,110,42
377.22772,377.3458,38,110,42
377.3944,377.51245,39,110,42
377.56107,378.2208,41,110,42
378.22772,378.5541,46,100,42
378.89438,379.2208,61,80,42
379.22772,379.47772,60,80,42
379.47772,379.56107,58,80,42
379.56107,379.88745,57,80,42
379.89438,380.2208,60,80,42
380.22772,380.88745,58,80,42
380.89438,381.2208,65,80,42
381.22772,381.47772,63,80,42
381.47772,381.56107,61,80,42
381.56107,381.88745,60,80,42
381.89438,382.22076,63,80,42
382.22772,382.88745,61,80,42
382.89438,383.22076,68,80,42
383.22772,383.47772,67,80,42
383.47772,383.56107,65,80,42
383.56107,383.88745,64,80,42
383.89438,384.22076,67,80,42
384.22772,384.47772,65,80,42
384.47772,384.56107,67,80,42
384.56107,384.88745,69,80,42
384.89438,385.22076,70,80,42
385.22772,385.8909,72,80,42
385.89438,386.22424,73,80,42
386.22772,386.34576,75,80,42
386.39438,386.51245,73,80,42
386.56107,386.6791,72,80,42
386.72772,386.84576,70,80,42
386.89438,387.01245,68,80,42
387.06107,387.1791,67,80,42
387.22772,387.34576,68,80,42
387.39438,387.51245,66,80,42
387.56107,387.6818,65,80,42
387.7315,387.85223,63,80,42
387.90195,388.02695,61,80,42
388.07843,388.21124,60,80,42
388.26593,388.59232,58,70,42
388.76593,388.88397,54,70,42
388.9326,389.05066,53,70,42
389.09927,389.21732,51,70,42
389.26593,389.38397,49,70,42
389.4326,389.55066,48,70,42
389.59927,389.71732,46,70,42
389.76593,389.88397,42,70,42
389.9326,390.05066,41,70,42
390.09927,390.21732,39,70,42
390.26593,390.38397,38,70,42
390.4326,390.55066,39,70,42
390.59927,391.09232,41,70,42
391.09927,391.25897,41,70,42
391.26593,391.59232,46,70,42
393.26593,393.59232,58,70,42
393.76593,393.88397,54,70,42
393.9326,394.05066,53,70,42
394.09927,394.21732,51,70,42
394.26593,394.38397,49,50,42
394.4326,394.55066,48,50,42
394.59924,394.84232,46,50,42
394.9326,395.17566,42,50,42
395.26593,395.38397,39,50,42
395.4326,395.55066,39,50,42
395.59924,395.84232,36,50,42
395.9326,396.17566,41,50,42
396.26593,396.38666,46,70,42
396.43637,396.55713,58,73,42
396.60684,396.72757,54,76,42
396.77728,396.898,54,80,42
396.94775,397.06848,51,83,42
397.1182,397.23892,51,87,42
397.28864,397.4094,47,90,42
397.4591,397.57983,47,93,42
397.62955,397.75455,44,97,42
397.80603,397.93103,44,100,42
397.9825,398.1105,49,104,42
398.1632,398.29602,49,107,42
398.3507,398.46878,42,110,42
398.5174,398.63544,54,70,42
398.68405,398.80212,54,70,42
398.8507,398.96878,54,70,42
399.0174,399.13544,54,70,42
399.18405,399.30212,54,70,42
399.3507,399.46878,56,70,42
399.5174,399.63544,56,70,42
399.68405,399.80212,56,70,42
399.8507,399.96878,56,70,42
400.0174,400.13544,56,70,42
400.18405,400.30212,56,70,42
400.3507,400.67712,58,70,42
400.8507,400.96878,37,70,42
401.0174,401.13544,42,70,42
401.18405,401.3021,46,70,42
401.3507,401.46878,44,70,42
401.5174,401.63544,42,70,42
401.68405,401.8021,41,70,42
401.8507,401.96878,39,70,42
402.0174,402.13544,41,70,42
402.18405,402.3021,38,70,42
402.3507,402.46878,42,70,42
402.5174,402.63544,46,70,42
402.68405,402.8021,49,70,42
404.3583,404.47903,41,70,42
404.52875,404.64948,46,70,42
404.6992,404.81995,49,70,42
406.41577,406.54077,40,65,42
406.59225,406.71725,43,69,42
406.7687,406.89673,46,73,42
407.50516,407.63797,37,90,42
407.69266,407.82547,41,94,42
407.88016,408.01297,46,98,42
408.64746,408.76553,36,70,42
408.81415,408.9322,40,70,42
408.9808,409.09885,43,70,42
409.14746,409.26553,40,70,42
409.31415,409.4322,41,70,42
409.4808,409.59885,38,70,42
409.64746,409.76553,45,70,42
409.81415,409.9322,41,70,42
409.9808,410.09885,43,70,42
410.14746,410.26553,40,70,42
410.31415,410.4322,46,70,42
410.4808,410.59885,43,70,42
410.64746,410.76553,45,70,42
410.81415,410.9322,41,70,42
410.9808,411.09885,48,70,42
411.14746,411.26553,45,70,42
411.31415,411.4322,46,70,42
411.4808,411.59885,43,70,42
411.64746,411.76553,50,70,42
411.81415,411.9322,46,70,42
411.9808,412.09885,43,70,42
412.14746,412.26553,46,70,42
412.31415,412.4322,40,70,42
412.4808,412.59885,48,70,42
412.64746,412.76553,45,70,42
412.81415,412.9322,48,70,42
412.9808,413.09885,41,70,42
413.14746,413.26553,45,70,42
413.31415,413.4322,43,70,42
413.4808,413.59885,46,70,42
413.64746,413.76553,46,70,42
413.81415,413.9322,50,70,42
413.9808,414.09885,45,70,42
414.14746,414.26553,48,70,42
414.31415,414.4322,48,70,42
414.4808,414.59885,51,70,42
414.64746,414.76553,46,70,42
414.81415,414.9322,50,70,42
414.9808,415.09885,50,70,42
415.14746,415.26553,53,70,42
415.31415,415.4322,48,70,42
415.4808,415.59885,51,70,42
415.64746,415.76553,51,70,42
415.81412,415.9322,55,70,42
415.9808,416.09885,51,70,42
416.14746,416.26553,55,70,42
416.31412,416.4322,53,70,42
416.4808,416.59885,51,70,42
416.64746,416.76553,50,70,42
416.81412,416.9322,46,71,42
416.9808,417.09885,47,73,42
417.14746,417.26553,50,75,42
417.31412,417.4322,48,77,42
417.4808,417.59885,51,78,42
417.64746,417.76553,49,80,42
417.81412,417.9322,52,82,42
417.9808,418.09885,50,84,42
418.14746,418.26553,53,86,42
418.31412,418.4322,50,87,42
418.4808,418.59885,53,89,42
418.64746,418.7655,51,91,42
418.81412,418.9322,55,93,42
418.9808,419.09885,52,94,42
419.14746,419.2655,55,96,42
419.31412,419.4322,53,98,42
419.4808,419.59885,57,100,42
419.64746,419.7655,54,102,42
419.81412,419.9322,57,103,42
419.9808,420.09885,55,105,42
420.14746,420.2655,58,107,42
420.31412,420.4322,55,109,42
420.4808,420.59885,58,110,42
420.64746,420.7655,57,110,42
420.81412,420.9322,60,110,42
420.9808,421.09885,63,110,42
421.14746,421.2655,62,110,42
421.31412,421.4322,60,110,42
421.4808,421.59885,58,110,42
421.64746,421.7655,57,110,42
421.81412,421.9322,55,110,42
421.9808,422.09885,53,110,42
422.14746,422.2655,51,110,42
422.31412,422.4322,50,110,42
422.4808,422.59885,48,110,42
422.64746,422.7655,46,110,42
422.81412,422.9322,45,110,42
422.9808,423.09885,43,110,42
423.14746,423.2655,50,110,42
423.31412,423.4322,48,110,42
423.4808,423.59885,46,110,42
423.64746,423.7655,45,120,42
423.81412,423.9322,43,120,42
423.9808,424.10153,41,120,42
424.15125,424.27197,39,120,42
424.3217,424.4467,38,120,42
424.49817,424.63098,36,120,42
424.68567,424.8037,46,70,42
424.85233,424.9704,46,70,42
425.019,425.26205,46,70,42
425.35233,425.5954,46,70,42
425.68567,425.8037,46,70,42
425.85233,425.9704,46,70,42
426.019,426.26205,46,70,42
426.35233,426.5954,46,70,42
426.68567,426.8037,46,70,42
426.85233,426.9704,46,70,42
427.019,427.13705,46,70,42
427.18567,427.3037,46,70,42
427.35233,427.4704,46,70,42
427.519,427.63705,46,70,42
427.68567,428.1787,46,70,42
431.20303,431.32803,43,50,42
431.37952,431.51233,48,50,42
431.56702,431.69983,40,50,42
431.75452,432.1217,41,50,42
432.87952,433.8803,60,80,42
433.88727,434.8803,63,80,42
434.88727,435.21365,61,80,42
435.2206,435.547,63,80,42
435.55392,435.8803,58,80,42
435.88727,436.21365,60,80,42
436.38727,436.5053,39,50,42
436.55392,436.672,44,50,42
436.72058,436.83865,48,50,42
436.88727,437.0053,46,50,42
437.05392,437.172,45,50,42
437.22058,437.33865,43,50,42
440.98422,441.10226,59,50,42
441.15088,441.26895,59,52,42
441.31757,441.5606,59,55,42
441.65088,441.89395,59,61,42
441.98422,442.10226,59,66,42
442.15088,442.26895,59,69,42
442.31757,442.5606,59,72,42
442.65088,442.89395,59,77,42
442.98422,443.10226,59,83,42
443.15088,443.26895,59,86,42
443.31757,443.4356,59,88,42
443.48422,443.60226,59,91,42
443.65088,443.76895,59,94,42
443.81757,443.9356,59,97,42
443.98422,444.3106,59,99,42
444.31757,444.64395,47,105,42
444.65088,444.97726,47,110,42
444.98422,446.8974,48,110,42
446.98422,447.3106,46,70,42
447.31754,447.64395,48,70,42
447.65088,447.97726,46,70,42
447.98422,448.3106,39,70,42
448.31754,448.64395,41,70,42
448.65088,448.97726,39,70,42
448.98422,449.3106,38,70,42
449.31754,449.64392,45,76,42
449.65088,449.97726,46,82,42
449.98422,450.3106,51,88,42
450.31754,450.64392,53,94,42
450.65088,450.98468,41,100,42
450.9918,451.1168,41,120,42
451.16824,451.29324,41,120,42
451.34473,451.6903,41,120,42
453.10944,453.26123,51,70,42
453.32373,453.4755,51,70,42
453.538,453.95764,51,70,42
455.68085,456.0185,52,70,42
456.0257,456.36334,47,70,42
456.3705,456.70816,48,70,42
456.71533,457.05298,45,70,42
457.06018,457.39783,47,70,42
457.405,457.74265,45,70,42
457.74982,458.08746,43,70,42
458.09467,458.43228,42,70,42
458.43948,458.77713,40,70,42
458.7843,459.12195,45,70,42
459.12912,459.47473,47,70,42
459.4821,459.84927,47,70,42
459.8571,459.97513,48,50,42
460.02374,460.14178,48,50,42
460.1904,460.30847,48,50,42
460.3571,460.47513,48,50,42
460.52374,460.64178,48,50,42
460.6904,460.80847,48,50,42
460.8571,460.97513,47,50,42
461.02374,461.14178,47,50,42
461.1904,461.30847,47,50,42
461.3571,461.47513,47,50,42
461.52374,461.64178,47,50,42
461.6904,461.80847,47,50,42
461.8571,461.97513,46,50,42
462.02374,462.14178,46,50,42
462.1904,462.30847,45,50,42
462.3571,462.47513,45,50,42
462.52374,462.64178,45,50,42
462.6904,462.80847,45,50,42
462.8571,462.97513,43,50,42
463.02374,463.14178,43,50,42
463.1904,463.30847,42,50,42
463.3571,463.47513,42,50,42
463.52374,463.64178,41,50,42
463.6904,463.80847,41,50,42
463.8571,463.97513,53,50,42
464.02374,464.14178,53,50,42
464.1904,464.30847,53,50,42
464.3571,464.47513,53,50,42
464.52374,464.64178,53,50,42
464.6904,464.80847,53,50,42
464.85706,464.97513,41,50,42
465.02374,465.14178,41,50,42
465.1904,465.31116,41,50,42
465.36087,465.4816,41,50,42
465.5313,465.6563,41,50,42
465.7078,465.8406,41,50,42
465.8953,466.01334,46,50,42
466.06195,466.18,46,50,42
466.2286,466.34668,46,50,42
466.3953,466.51334,46,50,42
466.56195,466.68,46,50,42
466.7286,466.84668,46,50,42
466.8953,467.01334,51,50,42
467.06195,467.18,51,50,42
467.2286,467.34668,51,50,42
467.3953,467.51334,51,50,42
467.56195,467.68,51,50,42
467.7286,467.84668,51,50,42
467.8953,468.01334,50,50,42
468.06195,468.18,50,50,42
468.2286,468.34668,50,50,42
468.3953,468.51334,50,50,42
468.56195,468.68,50,50,42
468.7286,468.84668,50,50,42
468.8953,469.01334,48,50,42
469.06195,469.18,48,50,42
469.2286,469.34668,48,50,42
469.3953,469.51334,48,50,42
469.56195,469.68,48,50,42
469.7286,469.84668,48,50,42
469.8953,470.01334,46,50,42
470.06195,470.18,46,50,42
470.2286,470.34668,46,50,42
470.39526,470.47168,41,50,42
470.56195,470.68,46,50,42
470.7286,470.805,50,50,42
470.89526,471.01334,48,50,42
471.06195,471.18,46,50,42
471.2286,471.34668,45,50,42
471.39526,471.51334,43,50,42
471.56195,471.68,45,50,42
471.7286,471.84668,41,50,42
471.89526,472.01334,46,50,42
472.06195,472.18,50,50,42
472.2286,472.34668,53,50,42
479.70874,479.88193,46,120,42
479.88947,480.06265,46,120,42
480.0702,480.24338,46,120,42
480.25092,480.4306,46,120,42
480.43842,480.6251,46,120,42
480.6332,480.83856,46,120,42
480.8475,481.99332,58,120,42
482.00134,483.27814,46,120,42
483.28705,484.56384,46,120,42
475.10873,475.47592,63,50,45
475.10873,475.47592,69,50,45
475.10873,475.47592,63,50,45
475.10873,475.47592,60,50,45
475.10873,475.47592,53,50,45
475.10873,475.47592,60,50,45
475.10873,475.47592,53,50,45
