start_time,end_time,note_value,velocity,instrument_program_number
1.11111,1.1805544,71,50,40
1.1805544,1.2499988,72,52,40
1.2499988,1.3194431,71,55,40
1.3194431,1.3888875,72,57,40
1.3888875,1.48148,71,60,40
1.48148,1.5740725,69,63,40
1.5740725,1.666665,71,67,40
1.666665,1.966665,76,70,40
1.966665,2.299998,74,60,40
2.299998,2.9597197,71,50,40
4.7106805,4.7801247,71,70,40
4.7801247,4.8495693,72,70,40
4.8495693,4.9190135,71,70,40
4.9190135,4.988458,72,70,40
4.988458,5.0810504,71,70,40
5.0810504,5.173643,69,70,40
5.173643,5.2662354,71,70,40
5.2662354,5.544013,76,70,40
5.544013,5.8217907,74,70,40
5.8217907,6.3715587,66,70,40
6.3773456,6.665807,69,70,40
6.665807,6.965807,67,70,40
6.965807,8.159557,62,70,40
8.165807,8.465807,67,70,40
8.465807,8.765807,71,70,40
8.765807,9.065807,74,70,40
9.065807,9.365807,79,70,40
9.365807,9.665807,83,70,40
9.665807,9.965807,86,70,40
9.965807,10.265807,83,70,40
10.265807,10.578307,79,70,40
10.578307,10.890807,78,70,40
10.890807,11.22414,81,70,40
11.22414,11.883862,79,70,40
13.634823,13.704267,59,70,40
13.704267,13.773711,60,70,40
13.773711,13.843156,59,70,40
13.843156,13.9126,60,70,40
13.9126,14.005193,59,70,40
14.005193,14.097785,57,70,40
14.097785,14.190377,59,70,40
14.190377,14.478839,64,70,40
14.478839,14.778839,62,70,40
14.778839,15.372589,59,70,40
15.378839,15.928607,59,70,40
15.934394,16.484161,59,70,40
16.489948,17.060862,60,70,40
17.066872,17.67937,62,70,40
17.68602,18.955965,60,70,40
18.962614,19.262615,64,70,40
19.262615,19.551077,67,70,40
19.551077,19.828854,72,70,40
19.828854,20.10663,76,70,40
20.10663,20.384409,79,70,40
20.384409,20.662186,84,70,40
20.662186,20.939964,79,70,40
20.939964,21.217741,76,70,40
21.217741,21.495518,72,70,40
21.495518,21.773296,76,70,40
21.773296,22.051073,79,70,40
22.051073,22.328852,84,70,40
22.328852,22.606628,79,70,40
22.606628,22.884405,76,70,40
22.884405,23.162184,72,70,40
23.162184,23.43996,76,70,40
23.43996,23.71774,81,70,40
23.71774,23.995516,84,70,40
23.995516,24.273294,81,70,40
24.273294,24.551071,76,70,40
24.551071,24.828848,72,70,40
24.828848,25.106627,76,70,40
25.106627,25.384403,81,70,40
25.384403,25.662182,84,70,40
25.662182,25.939959,81,70,40
25.939959,26.217735,76,70,40
26.217735,26.495514,72,70,40
26.495514,26.77329,78,70,40
26.77329,27.05107,81,70,40
27.05107,27.328846,84,70,40
27.328846,27.606623,81,70,40
27.606623,27.884401,78,70,40
27.884401,28.162178,72,70,40
28.162178,28.439957,78,70,40
28.439957,28.717733,81,70,40
28.717733,28.99551,84,70,40
28.99551,29.273289,81,70,40
29.273289,29.551065,78,70,40
29.551065,29.828844,72,70,40
29.828844,30.10662,78,70,40
30.10662,30.3844,81,70,40
30.3844,30.662176,84,70,40
30.662176,30.939953,88,70,40
30.939953,31.217731,86,70,40
31.217731,31.495508,84,70,40
31.495508,31.773287,83,70,40
31.773287,32.051064,81,70,40
32.051064,32.328842,79,70,40
32.328842,32.606617,78,70,40
32.606617,32.884396,76,70,40
32.884396,33.162174,74,70,40
33.162174,33.439953,72,70,40
33.439953,33.717728,71,70,40
33.717728,33.995506,69,70,40
33.995506,34.283497,67,70,40
34.289623,34.59561,67,70,40
34.602123,35.186615,67,70,40
35.1924,35.394947,67,70,40
35.470177,35.672726,67,73,40
35.747955,35.9505,67,77,40
36.025734,36.22828,67,81,40
36.303513,36.581287,67,85,40
36.581287,36.783836,66,89,40
36.859066,37.06161,66,93,40
37.136845,37.33939,66,97,40
37.41462,37.62908,66,100,40
37.70874,37.936604,66,85,40
38.02124,39.88973,67,65,40
39.89624,40.19624,71,70,40
40.19624,40.398785,69,70,40
40.474014,40.676563,69,70,40
40.751793,40.954338,69,73,40
41.02957,41.232117,69,77,40
41.30735,41.509895,69,81,40
41.585125,41.862904,69,85,40
41.862904,42.06545,74,89,40
42.140682,42.343227,74,93,40
42.418457,42.621006,74,97,40
42.696236,42.910698,74,100,40
42.990353,43.223064,74,85,40
43.3095,44.247,74,70,40
44.247,44.5595,76,70,40
44.5595,45.20488,74,70,40
48.757126,48.95599,74,70,40
49.029854,49.228718,74,70,40
49.30258,49.501442,74,70,40
49.575306,49.77417,74,70,40
49.848034,50.046898,74,70,40
50.12076,50.938942,74,70,40
50.938942,51.21167,76,70,40
51.21167,51.751442,74,70,40
55.302574,55.50144,59,100,40
55.575302,55.77974,59,100,40
55.855675,56.06601,59,100,40
56.144135,56.362885,59,100,40
56.444138,56.681908,59,85,40
56.77022,57.354713,61,70,40
57.3605,58.65101,61,70,40
57.3605,58.65101,64,70,40
58.656796,58.84198,56,70,40
58.84198,59.027164,57,70,40
59.027164,59.21235,59,70,40
59.21235,59.397533,61,70,40
59.397533,59.58272,62,70,40
59.58272,59.767906,63,70,40
59.767906,59.95309,64,70,40
59.95309,60.13249,66,70,40
60.138275,60.68804,66,70,40
60.69383,61.799152,67,70,40
61.80494,61.984337,64,70,40
61.990124,62.17531,56,70,40
62.17531,62.360497,57,70,40
62.360497,62.54568,59,70,40
62.54568,62.730865,61,70,40
62.730865,62.91605,62,70,40
62.91605,63.101234,63,70,40
63.101234,63.28642,64,70,40
63.28642,63.465816,66,70,40
63.471603,64.02137,66,70,40
64.02716,65.68804,57,70,40
64.02716,65.68804,67,70,40
69.65921,69.87197,61,60,40
69.87197,70.091995,62,60,40
70.091995,70.31927,64,60,40
70.31927,70.527596,62,60,40
70.527596,70.668526,74,60,40
70.729805,70.86461,74,60,40
70.92588,71.11107,62,60,40
71.11107,71.23838,74,60,40
71.29625,71.42357,74,60,40
71.48144,71.66662,62,60,40
71.66662,71.79394,74,60,40
71.85181,71.97912,74,60,40
72.036995,72.222176,55,60,40
72.222176,72.349495,67,60,40
72.407364,72.534676,67,60,40
72.592545,72.77773,55,60,40
72.77773,72.905045,67,60,40
72.96291,73.09023,67,60,40
73.1481,73.33329,55,60,40
73.33329,73.4606,67,60,40
73.51847,73.64579,67,60,40
73.70366,73.88884,55,60,40
73.88884,74.01616,67,60,40
74.07403,74.20134,67,60,40
74.25921,74.4444,59,60,40
74.4444,74.57171,66,60,40
74.629585,74.7569,66,60,40
74.814766,74.999954,59,60,40
74.999954,75.127266,66,60,40
75.185135,75.312454,66,60,40
75.37032,75.555504,59,60,40
75.555504,75.68282,66,60,40
75.74069,75.868004,66,60,40
75.92588,76.11106,64,60,40
76.11106,76.23838,67,60,40
76.29625,76.42356,67,60,40
76.48143,76.66662,64,60,40
76.66662,76.79393,67,60,40
76.8518,76.97912,67,60,40
77.03699,77.222176,64,60,40
77.222176,77.34949,67,63,40
77.40736,77.53467,67,66,40
77.592545,77.777725,64,70,40
77.777725,77.905045,67,73,40
77.96291,78.090225,67,77,40
78.148094,78.33328,64,80,40
78.33328,78.460594,67,83,40
78.51847,78.64578,67,87,40
78.70365,78.88884,57,90,40
78.88884,79.01615,67,94,40
79.07402,79.20134,67,97,40
79.25921,79.44439,57,100,40
79.44439,79.57171,67,60,40
79.62958,79.75689,67,60,40
79.81476,79.99995,57,60,40
79.99995,80.12726,67,60,40
80.185135,80.31245,67,60,40
80.370316,80.92008,57,60,40
80.370316,80.92008,67,60,40
83.92406,84.217804,78,70,40
84.362946,84.49605,79,70,40
84.50183,85.607155,81,70,40
85.61294,85.88493,83,70,40
86.02961,86.16271,85,70,40
86.168495,87.27382,86,70,40
87.27961,87.5516,74,70,40
87.69627,87.82938,75,70,40
87.83516,88.107155,76,70,40
88.25183,88.384926,75,70,40
88.39072,88.662704,76,70,40
88.80738,88.94048,78,70,40
88.94627,89.49604,78,70,40
89.50182,90.60715,79,70,40
90.61294,90.884926,79,70,40
91.0296,91.162704,81,77,40
91.168495,92.27381,83,80,40
92.2796,92.55159,85,100,40
92.696266,92.82937,86,108,40
92.83516,93.662704,88,110,40
93.66849,93.94048,86,70,40
93.946266,94.131454,86,70,40
94.131454,94.27613,85,70,40
94.316635,94.46131,83,70,40
94.50182,94.687004,83,70,40
94.687004,94.83168,81,70,40
94.87219,95.01687,79,70,40
95.05737,95.24256,79,70,40
95.24256,95.38724,78,70,40
95.42775,95.572426,76,70,40
95.61293,95.79812,76,70,40
95.79812,95.942795,74,70,40
95.9833,96.127975,73,70,40
96.16849,96.35367,73,70,40
96.35367,96.498344,71,70,40
96.53886,96.68353,69,70,40
96.724045,96.909225,69,70,40
96.909225,97.0539,67,70,40
97.09441,97.23909,66,70,40
97.279594,97.46478,66,70,40
97.46478,97.61146,64,70,40
97.65353,97.80377,62,70,40
97.84583,98.03815,62,70,40
98.03815,98.190544,61,70,40
98.2343,98.39055,59,70,40
98.434296,98.6343,59,70,40
98.6343,98.83846,71,70,40
98.83846,99.04028,70,70,40
99.0468,99.25513,70,70,40
99.25513,99.470406,61,70,40
99.470406,99.685684,70,70,40
99.69263,99.91485,70,70,40
99.91485,100.14224,61,70,40
100.14224,100.36753,69,70,40
100.3748,100.6248,69,70,40
100.6248,100.892654,61,70,40
100.892654,101.16944,67,70,40
101.17837,102.97212,62,55,40
101.17837,102.97212,65,55,40
102.97837,104.77212,57,55,40
102.97837,104.77212,65,55,40
104.77837,106.57212,58,55,40
104.77837,106.57212,65,55,40
106.57837,107.79686,66,55,40
106.57837,108.12976,57,55,40
107.80337,108.12976,67,55,40
108.1367,108.50389,61,55,40
108.5117,109.30545,62,70,40
109.31171,109.505455,74,70,40
109.5117,109.70545,75,70,40
109.7117,109.90546,79,70,40
109.911705,110.10545,77,70,40
110.1117,110.30545,74,70,40
110.31171,110.505455,74,70,40
110.5117,110.70545,75,70,40
110.7117,110.90546,72,70,40
110.911705,111.10545,65,70,40
111.1117,111.30545,72,70,40
111.31171,111.505455,74,70,40
111.5117,111.70545,77,70,40
111.7117,111.90546,75,70,40
111.911705,112.10545,72,70,40
112.1117,112.30545,72,70,40
112.31171,112.505455,74,70,40
112.5117,112.70545,70,70,40
112.7117,112.911446,65,70,40
112.91789,113.11763,62,70,40
113.12408,113.323814,63,70,40
113.33026,113.53638,67,70,40
113.54302,113.75358,65,70,40
113.76052,113.9758,62,70,40
113.98274,116.264984,62,70,40
113.98274,116.264984,74,70,40
116.270775,116.82054,61,97,40
116.82633,117.3761,67,104,40
117.38188,117.931656,64,110,40
117.93744,118.487206,64,100,40
118.493,119.04276,61,100,40
119.048546,119.59832,64,100,40
119.6041,120.15387,76,100,40
120.15966,120.70943,73,100,40
120.71522,121.264984,76,100,40
121.27077,121.82053,76,100,40
121.826324,122.37609,73,100,40
122.38188,122.66433,76,100,40
122.67034,122.95279,73,100,40
122.9588,123.55255,74,100,40
123.5588,124.19769,74,100,40
124.204636,124.86436,74,60,40
124.8713,125.19769,71,60,40
126.204636,126.86436,71,60,40
126.8713,127.197685,67,60,40
128.87129,129.53102,67,70,40
129.53796,130.28015,67,70,40
130.28796,130.61435,66,70,40
130.62129,130.92729,74,70,40
130.93379,131.23979,76,70,40
131.24629,131.55229,78,70,40
131.55879,131.86479,79,70,40
131.87129,132.17729,81,70,40
132.18379,133.01714,83,70,40
133.01714,133.22546,86,70,40
133.22546,133.43379,83,70,40
133.43379,134.09352,79,70,40
134.10046,134.90047,79,70,40
134.90047,135.10046,83,70,40
135.10046,135.29422,79,70,40
135.30046,135.96019,76,70,40
135.96713,137.29352,71,70,40
137.30046,138.08171,73,70,40
138.08994,138.29826,74,70,40
138.29826,138.49858,73,70,40
138.49858,138.69089,71,70,40
138.69089,138.88321,69,70,40
138.88321,139.07552,71,70,40
139.07552,139.26782,73,70,40
139.26782,139.46013,74,70,40
139.46013,139.65244,73,70,40
139.65244,139.84474,71,70,40
139.84474,140.03705,69,70,40
140.03705,140.22935,71,70,40
140.22935,140.42166,73,70,40
140.42166,140.61397,74,70,40
140.61397,140.80627,76,70,40
140.80627,140.99858,78,70,40
140.99858,141.19089,79,70,40
141.19089,141.3772,81,70,40
141.38321,141.57552,81,70,40
141.57552,141.76782,79,70,40
141.76782,141.96397,78,70,40
141.96397,142.16397,76,70,40
142.16397,142.49036,74,70,40
142.83064,143.19783,73,70,40
142.83064,143.19783,76,70,40
143.58064,146.4219,69,55,40
146.42781,146.61649,57,65,40
146.61649,146.79927,69,70,40
146.80516,146.99384,69,70,40
146.99384,147.18253,67,70,40
147.18253,147.37686,66,70,40
147.37686,147.57686,64,70,40
147.57686,147.90324,62,70,40
148.24353,148.56992,61,70,40
148.24353,148.56992,64,70,40
149.54352,150.09329,61,77,40
149.54352,150.09329,64,77,40
151.21019,151.75996,62,89,40
151.21019,151.75996,66,89,40
152.87686,153.42662,64,100,40
152.87686,153.42662,73,100,40
154.54352,155.09329,66,70,40
154.54352,155.09329,74,70,40
155.09908,155.37106,80,70,40
155.37685,155.64885,81,71,40
155.65463,156.20439,83,73,40
156.21019,156.75995,81,77,40
156.76575,157.03773,76,81,40
157.04352,157.3155,78,83,40
157.32129,157.87106,79,85,40
157.87685,158.42662,78,89,40
158.4324,158.70439,73,93,40
158.71017,158.98218,74,95,40
158.98796,159.53773,78,97,40
159.54352,160.09328,76,100,40
160.09908,160.64883,70,70,40
160.65462,161.75995,69,70,40
161.76573,162.3155,70,63,40
162.32129,163.4266,69,59,40
163.4324,163.98216,70,52,40
163.98796,165.09328,69,50,40
165.09906,165.64883,70,50,40
165.65462,166.75995,69,50,40
166.76573,166.83784,71,50,40
166.83784,166.90996,72,52,40
166.90996,166.98207,71,55,40
166.98207,167.05418,72,57,40
167.05418,167.15419,71,60,40
167.15419,167.2542,69,63,40
167.2542,167.35419,71,67,40
167.35419,167.66669,76,70,40
167.66669,168.00003,74,70,40
168.00003,168.65974,71,70,40
170.48111,170.5561,71,70,40
170.5561,170.63112,72,70,40
170.63112,170.70612,71,70,40
170.70612,170.78111,72,70,40
170.78111,170.88112,71,70,40
170.88112,170.98111,69,70,40
170.98111,171.08112,71,70,40
171.08112,171.39362,76,70,40
171.39362,171.72694,74,70,40
171.72694,172.38667,66,70,40
172.39362,172.71275,69,70,40
172.71275,173.0319,67,70,40
173.0319,174.30185,62,70,40
174.3085,174.62766,67,70,40
174.62766,174.9468,71,70,40
174.9468,175.25291,74,70,40
175.25291,175.55905,79,70,40
175.55905,175.86517,83,70,40
175.86517,176.1713,86,70,40
176.1713,176.49043,83,70,40
176.49043,176.82378,79,70,40
176.82378,177.1571,78,70,40
177.1571,177.49043,81,70,40
177.49043,178.15016,79,70,40
180.0321,180.11023,59,70,40
180.11023,180.18835,60,70,40
180.18835,180.26648,59,70,40
180.26648,180.3446,60,70,40
180.3446,180.44876,59,70,40
180.44876,180.55293,57,70,40
180.55293,180.6571,59,70,40
180.6571,180.9696,64,70,40
180.9696,181.2821,62,70,40
181.2821,181.90059,59,70,40
181.9071,182.52559,59,70,40
182.5321,183.15059,59,70,40
183.1571,183.80247,60,70,40
183.80928,184.484,62,70,40
184.49109,185.73459,60,70,40
185.74109,186.05359,64,70,40
186.05359,186.35359,67,70,40
186.35359,186.63136,72,70,40
186.63136,186.90915,76,70,40
186.90915,187.18692,79,70,40
187.18692,187.4647,84,70,40
187.4647,187.74248,79,70,40
187.74248,188.02026,76,70,40
188.02026,188.29803,72,70,40
188.29803,188.5758,76,70,40
188.5758,188.85359,79,70,40
188.85359,189.13136,84,70,40
189.13136,189.40915,79,70,40
189.40915,189.68692,76,70,40
189.68692,189.9647,72,70,40
189.9647,190.24248,76,70,40
190.24248,190.52025,81,70,40
190.52025,190.79803,84,70,40
190.79803,191.0758,81,70,40
191.0758,191.35359,76,70,40
191.35359,191.63136,72,70,40
191.63136,191.90915,76,70,40
191.90915,192.18692,81,70,40
192.18692,192.46469,84,70,40
192.46469,192.74248,81,70,40
192.74248,193.02025,76,70,40
193.02025,193.29803,72,70,40
193.29803,193.5758,78,70,40
193.5758,193.85359,81,70,40
193.85359,194.13136,84,70,40
194.13136,194.40913,81,70,40
194.40913,194.68692,78,70,40
194.68692,194.96469,72,70,40
194.96469,195.24248,78,70,40
195.24248,195.52025,81,70,40
195.52025,195.79803,84,70,40
195.79803,196.0758,81,70,40
196.0758,196.35358,78,70,40
196.35358,196.63136,72,70,40
196.63136,196.90913,78,70,40
196.90913,197.18692,81,70,40
197.18692,197.46469,84,70,40
197.46469,197.74248,88,70,40
197.74248,198.02025,86,70,40
198.02025,198.29802,84,70,40
198.29802,198.5758,83,70,40
198.5758,198.85358,81,70,40
198.85358,199.13136,79,70,40
199.13136,199.40913,78,70,40
199.40913,199.6869,76,70,40
199.6869,199.96469,74,70,40
199.96469,200.24246,72,70,40
200.24246,200.53093,71,70,40
200.53093,200.8194,69,70,40
200.8194,201.11314,67,70,40
201.11938,201.43188,67,70,40
201.43854,202.04015,67,70,40
202.04614,202.25648,67,70,40
202.33461,202.54495,67,73,40
202.62308,202.8334,67,77,40
202.91153,203.12187,67,81,40
203.2,203.48845,67,85,40
203.48845,203.69879,66,89,40
203.77692,203.98726,66,93,40
204.06538,204.27571,66,97,40
204.35384,204.57259,66,100,40
204.65384,204.88655,66,85,40
204.97299,206.88123,67,70,40
206.88788,207.18788,71,70,40
207.18788,207.39043,69,70,40
207.46565,207.6682,69,70,40
207.74344,207.94598,69,73,40
208.02121,208.22375,69,77,40
208.299,208.50154,69,81,40
208.57677,208.85454,69,85,40
208.85454,209.0571,74,89,40
209.13232,209.33487,74,93,40
209.4101,209.61264,74,97,40
209.68788,209.89043,74,100,40
209.96565,210.1682,74,85,40
210.24344,211.07677,74,70,40
211.07677,211.35454,76,70,40
211.35454,211.90431,74,70,40
215.52121,215.72375,74,70,40
215.79898,216.00153,74,70,40
216.07677,216.27931,74,70,40
216.35454,216.55708,74,70,40
216.63231,216.83485,74,70,40
216.9101,217.74342,74,70,40
217.74342,218.02121,76,70,40
218.02121,218.57097,74,70,40
222.36479,222.57513,59,100,40
222.65326,222.86359,59,100,40
222.94171,223.15205,59,100,40
223.23018,223.44893,59,100,40
223.53018,223.7629,59,85,40
223.84932,224.44046,61,70,40
224.44624,225.73676,61,70,40
224.44624,225.73676,64,70,40
225.74254,225.92773,56,70,40
225.92773,226.11292,57,70,40
226.11292,226.2981,59,70,40
226.2981,226.48329,61,70,40
226.48329,226.66847,62,70,40
226.66847,226.85365,63,70,40
226.85365,227.03883,64,70,40
227.03883,227.21823,66,70,40
227.22403,227.77379,66,70,40
227.77959,228.8849,67,70,40
228.89069,229.07008,64,70,40
229.07588,229.26106,56,70,40
229.26106,229.44624,57,70,40
229.44624,229.63142,59,70,40
229.63142,229.81662,61,70,40
229.81662,230.0018,62,70,40
230.0018,230.18698,63,70,40
230.18698,230.37218,64,70,40
230.37218,230.55157,66,70,40
230.55736,231.10712,66,70,40
231.11292,232.77379,57,70,40
231.11292,232.77379,67,70,40
236.68983,236.88983,61,60,40
236.88983,237.0962,62,60,40
237.0962,237.30898,64,60,40
237.30898,237.50897,62,60,40
237.50897,237.64369,74,60,40
237.70157,237.82889,74,60,40
237.88675,238.07195,62,60,40
238.07195,238.19925,74,60,40
238.25713,238.38445,74,60,40
238.4423,238.62749,62,60,40
238.62749,238.7548,74,60,40
238.81268,238.93999,74,60,40
238.99786,239.18304,55,60,40
239.18304,239.31036,67,60,40
239.36824,239.49554,67,60,40
239.55342,239.7386,55,60,40
239.7386,239.86592,67,60,40
239.92378,240.0511,67,60,40
240.10898,240.29416,55,60,40
240.29416,240.42148,67,60,40
240.47934,240.60666,67,60,40
240.66454,240.84972,55,60,40
240.84972,240.97704,67,60,40
241.0349,241.16222,67,60,40
241.22008,241.40527,59,60,40
241.40527,241.53258,66,60,40
241.59045,241.71777,66,60,40
241.77563,241.96083,59,60,40
241.96083,242.08813,66,60,40
242.14601,242.27333,66,60,40
242.33119,242.51637,59,60,40
242.51637,242.64369,66,60,40
242.70157,242.82887,66,60,40
242.88675,243.07193,64,60,40
243.07193,243.19925,67,60,40
243.25713,243.38443,67,60,40
243.4423,243.62749,64,60,40
243.62749,243.7548,67,60,40
243.81267,243.93999,67,60,40
243.99786,244.18304,64,60,40
244.18304,244.31036,67,63,40
244.36823,244.49554,67,66,40
244.55342,244.7386,64,70,40
244.7386,244.86592,67,73,40
244.92378,245.0511,67,77,40
245.10896,245.29416,64,80,40
245.29416,245.42146,67,83,40
245.47934,245.60666,67,87,40
245.66452,245.84972,57,90,40
245.84972,245.97702,67,94,40
246.0349,246.16222,67,97,40
246.22008,246.40526,57,100,40
246.40526,246.53258,67,60,40
246.59045,246.71776,67,60,40
246.77563,246.96082,57,60,40
246.96082,247.08813,67,60,40
247.14601,247.27332,67,60,40
247.33119,247.88095,57,60,40
247.33119,247.88095,67,60,40
250.8502,251.14395,78,70,40
251.2891,251.4222,79,70,40
251.42798,252.53331,81,70,40
252.5391,252.81108,83,70,40
252.95576,253.08885,85,70,40
253.09465,254.19997,86,70,40
254.20575,254.47775,74,70,40
254.62242,254.75552,75,70,40
254.7613,255.0333,76,70,40
255.17798,255.31108,75,70,40
255.31686,255.58885,76,70,40
255.73354,255.86664,78,70,40
255.87242,256.42218,78,70,40
256.42798,257.5333,79,70,40
257.5391,257.81107,79,70,40
257.95575,258.08887,81,77,40
258.09464,259.19995,83,80,40
259.20575,259.47775,85,100,40
259.6224,259.75552,86,108,40
259.7613,260.58884,88,110,40
260.59464,260.86664,86,70,40
260.8724,261.0576,86,70,40
261.0576,261.20227,85,70,40
261.2428,261.38745,83,70,40
261.42798,261.61316,83,70,40
261.61316,261.75784,81,70,40
261.79834,261.94302,79,70,40
261.98352,262.1687,79,70,40
262.1687,262.3134,78,70,40
262.35388,262.49857,76,70,40
262.5391,262.72427,76,70,40
262.72427,262.86893,74,70,40
262.90945,263.05414,73,70,40
263.09464,263.27982,73,70,40
263.27982,263.4245,71,70,40
263.465,263.60968,69,70,40
263.65018,263.8354,69,70,40
263.8354,263.98004,67,70,40
264.02057,264.16522,66,70,40
264.20575,264.39093,66,70,40
264.39093,264.5356,64,70,40
264.5761,264.7208,62,70,40
264.7613,264.9536,62,70,40
264.9536,265.10385,61,70,40
265.1459,265.29614,59,70,40
265.33823,265.53824,59,70,40
265.53824,265.73822,71,70,40
265.73822,265.93198,70,70,40
265.93823,266.1382,70,70,40
266.1382,266.34238,61,70,40
266.34238,266.54422,70,70,40
266.55072,266.75906,70,70,40
266.75906,266.97433,61,70,40
266.97433,267.1896,69,70,40
267.19656,267.44656,69,70,40
267.44656,267.72308,61,70,40
267.72308,268.01663,67,70,40
268.0261,269.8946,62,55,40
268.0261,269.8946,65,55,40
269.9011,271.7696,57,55,40
269.9011,271.7696,65,55,40
271.7761,273.68582,58,55,40
271.7761,273.68582,65,55,40
273.69278,274.91986,66,55,40
273.69278,275.2525,57,55,40
274.9261,275.2525,67,55,40
275.25943,275.62662,61,55,40
275.63443,276.4282,62,70,40
276.43445,276.62817,74,70,40
276.63443,276.8282,75,70,40
276.83444,277.0282,79,70,40
277.03442,277.22818,77,70,40
277.23444,277.4282,74,70,40
277.43445,277.62817,74,70,40
277.63443,277.8282,75,70,40
277.83444,278.0282,72,70,40
278.03442,278.22818,65,70,40
278.23444,278.4282,72,70,40
278.43445,278.62817,74,70,40
278.63443,278.8282,77,70,40
278.83444,279.0282,75,70,40
279.03442,279.22818,72,70,40
279.23444,279.4282,72,70,40
279.43445,279.62817,74,70,40
279.63443,279.8282,70,70,40
279.83444,280.03625,65,70,40
280.04276,280.2511,62,70,40
280.25806,280.47333,63,70,40
280.48026,280.7109,67,70,40
280.71835,280.96075,65,70,40
280.969,281.2239,62,70,40
281.23215,283.6259,62,70,40
281.23215,283.6259,74,70,40
283.63214,284.2259,61,97,40
284.23215,284.8259,67,104,40
284.83215,285.4259,64,110,40
285.43216,286.0259,64,100,40
286.03214,286.6259,61,100,40
286.63214,287.2259,64,100,40
287.23215,287.8259,76,100,40
287.83215,288.4259,73,100,40
288.43216,289.0259,76,100,40
289.03214,289.6259,76,100,40
289.63214,290.2259,73,100,40
290.23215,290.5259,76,100,40
290.53214,290.8259,73,100,40
290.83215,291.45062,74,100,40
291.45715,292.14017,74,100,40
292.1476,292.82407,74,60,40
292.83084,293.15015,71,60,40
294.1352,294.78058,71,60,40
294.78738,295.10666,67,60,40
296.7439,297.38928,67,70,40
297.39606,298.13824,67,70,40
298.14606,298.45206,66,70,40
298.45856,298.74103,74,70,40
298.747,299.02948,76,70,40
299.0355,299.31793,78,70,40
299.32394,299.60638,79,70,40
299.6124,299.9184,81,70,40
299.9249,300.75824,83,70,40
300.75824,300.96658,86,70,40
300.96658,301.1749,83,60,40
301.1749,301.7934,79,50,40
301.7999,302.63324,79,70,40
302.63324,302.84158,83,70,40
302.84158,303.0434,79,60,40
303.0499,303.6684,76,50,40
303.6749,304.94528,71,60,40
304.9521,305.69427,73,70,40
305.7021,305.9104,74,70,40
305.9104,306.11075,73,70,40
306.11075,306.30304,71,70,40
306.30304,306.49536,69,70,40
306.49536,306.68765,71,70,40
306.68765,306.87997,73,70,40
306.87997,307.07227,74,70,40
307.07227,307.2646,73,70,40
307.2646,307.45688,71,70,40
307.45688,307.6492,69,70,40
307.6492,307.8415,71,70,40
307.8415,308.0338,73,70,40
308.0338,308.2261,74,70,40
308.2261,308.41843,76,70,40
308.41843,308.61075,78,70,40
308.61075,308.80304,79,70,40
308.80304,308.98935,81,70,40
308.99536,309.18765,81,70,40
309.18765,309.37997,79,70,40
309.37997,309.5761,78,70,40
309.5761,309.77612,76,70,40
309.77612,310.1025,74,70,40
310.44278,310.80997,73,70,40
310.44278,310.80997,76,70,40
311.19278,314.09543,69,55,40
314.10144,314.29373,57,65,40
314.29373,314.48004,69,70,40
314.48605,314.67838,69,70,40
314.67838,314.87067,67,70,40
314.87067,315.06683,66,70,40
315.06683,315.2668,64,70,40
315.2668,315.5793,62,70,40
315.90512,316.21762,61,70,40
315.90512,316.21762,64,70,40
317.13187,317.7028,61,77,40
317.13187,317.7028,64,77,40
318.86264,319.43356,62,89,40
318.86264,319.43356,66,89,40
320.5934,321.16434,64,100,40
320.5934,321.16434,73,100,40
322.3242,322.8951,66,70,40
322.3242,322.8951,74,70,40
322.90112,323.18356,80,70,40
323.18958,323.4667,81,71,40
323.4726,324.0327,83,73,40
324.03864,324.59875,81,77,40
324.60468,324.88177,76,81,40
324.8877,325.15967,78,83,40
325.16547,325.71524,79,85,40
325.721,326.27078,78,89,40
326.27658,326.54855,73,93,40
326.55435,326.82632,74,95,40
326.83212,327.3819,78,97,40
327.38766,327.93744,76,100,40
327.94324,328.493,70,70,40
328.49878,329.60413,69,70,40
329.6099,330.15967,70,63,40
330.16547,331.27078,69,59,40
331.27655,331.82632,70,52,40
331.83212,332.93744,69,50,40
332.94324,333.49298,70,50,40
333.49878,334.6041,69,50,40
334.6099,335.15967,71,61,40
335.16544,336.27078,72,66,40
336.27655,336.82632,74,78,40
336.83212,337.9586,75,83,40
337.9646,338.5771,76,95,40
338.58374,338.7775,77,100,40
338.78375,338.97632,60,70,40
338.97632,339.15573,65,70,40
339.16153,339.3467,69,70,40
339.3467,339.5319,65,70,40
339.5319,339.71127,60,70,40
339.71707,339.90225,70,70,40
339.90225,340.08743,67,70,40
340.08743,340.26685,64,70,40
340.2726,340.45782,69,70,40
340.45782,340.643,65,70,40
340.643,340.8224,60,70,40
340.8282,341.01337,69,70,40
341.01337,341.19855,65,70,40
341.19855,341.37796,60,70,40
341.38373,341.5689,70,70,40
341.5689,341.75412,67,60,40
341.75412,341.9335,64,50,40
341.9393,342.12448,69,50,40
342.12448,342.30966,65,50,40
342.30966,342.48907,60,50,40
342.49484,342.68002,69,50,40
342.68002,342.8652,65,50,40
342.8652,343.04462,60,50,40
343.0504,343.2356,70,50,40
343.2356,343.42078,67,50,40
343.42078,343.60016,64,50,40
343.60596,343.79114,69,50,40
343.79114,343.97632,65,50,40
343.97632,344.15573,60,50,40
344.1615,344.3467,69,50,40
344.3467,344.5319,65,50,40
344.5319,344.71127,60,50,40
344.71707,344.90225,70,50,40
344.90225,345.08743,67,50,40
345.08743,345.26685,64,50,40
345.2726,345.4578,69,50,40
345.4578,345.643,65,50,40
345.643,345.8224,60,50,40
345.8282,346.37796,57,50,40
347.49484,347.76685,57,62,40
348.05038,348.3224,72,69,40
348.3282,348.60016,74,72,40
348.60596,349.15573,75,75,40
349.1615,349.71127,74,81,40
350.8282,351.10016,57,100,40
350.8282,351.10016,63,100,40
352.49484,353.04462,58,70,40
352.49484,353.04462,62,70,40
354.1615,354.71127,58,70,40
354.1615,354.71127,62,70,40
355.82816,356.37793,58,70,40
355.82816,356.37793,62,70,40
357.49484,357.7668,58,70,40
357.49484,357.7668,62,70,40
358.05038,358.60016,68,70,40
358.60596,359.71127,67,70,40
361.38373,361.93347,71,70,40
361.93927,363.0446,69,70,40
364.71704,365.2668,72,70,40
365.2726,366.37793,71,70,40
368.05038,368.60016,72,70,40
368.60593,370.98264,71,70,40
370.9894,371.1746,76,70,40
371.1746,371.3598,78,70,40
371.3598,371.54498,80,70,40
371.54498,371.73016,81,70,40
371.73016,371.91534,80,70,40
371.91534,372.10052,78,70,40
372.10052,372.3783,76,70,40
372.3783,372.6503,71,70,40
372.6561,374.31696,71,70,40
374.32275,374.89368,83,70,40
374.89966,375.51218,76,70,40
375.51883,377.818,76,70,40
377.8238,378.00897,81,70,40
378.00897,378.19415,83,70,40
378.19415,378.37933,84,70,40
378.37933,378.5645,86,70,40
378.5645,378.7497,84,70,40
378.7497,378.9349,83,70,40
378.9349,379.20688,81,70,40
379.21268,381.1725,76,70,40
381.17847,381.77222,88,70,40
381.77847,382.41736,81,70,40
382.42432,384.75186,81,70,40
384.75763,384.94284,74,70,40
384.94284,385.12802,76,70,40
385.12802,385.3132,77,70,40
385.3132,385.49838,79,70,40
385.49838,385.68356,77,70,40
385.68356,385.86874,76,70,40
385.86874,386.14075,74,70,40
386.14655,388.08517,69,70,40
388.09097,389.75186,81,70,40
389.75763,390.86298,66,70,40
389.75763,390.86298,69,70,40
390.86874,391.41852,67,70,40
391.42432,393.08517,79,72,40
393.09097,394.23923,64,80,40
393.09097,394.23923,73,80,40
394.24545,394.44547,72,85,40
394.44547,394.6398,71,86,40
394.24545,394.8226,62,85,40
394.6398,394.8226,72,87,40
394.8285,395.0103,72,88,40
395.0103,395.1921,71,89,40
394.8285,395.36826,62,88,40
395.1921,395.36826,72,90,40
395.37393,395.55576,72,91,40
395.55576,395.73758,71,92,40
395.37393,395.91373,62,91,40
395.73758,395.91373,72,93,40
395.9194,396.10123,71,93,40
396.10123,396.28302,69,94,40
395.9194,396.45917,62,93,40
396.28302,396.45917,71,95,40
396.46484,396.64667,71,96,40
396.64667,396.8285,69,97,40
396.46484,397.0046,62,96,40
396.8285,397.0046,71,98,40
397.0103,397.1921,71,99,40
397.1921,397.37393,69,100,40
397.0103,397.55008,62,99,40
397.37393,397.55008,71,100,40
397.55576,397.73758,69,110,40
397.73758,397.9194,68,110,40
397.9194,398.09552,69,110,40
398.1012,398.28302,69,110,40
398.28302,398.46484,68,110,40
398.46484,398.641,69,110,40
398.64667,398.8285,69,110,40
398.8285,399.0103,68,110,40
399.0103,399.18643,69,110,40
400.96365,401.1523,69,110,40
401.1523,401.3376,68,110,40
401.3376,401.5137,69,110,40
401.51938,401.7012,69,110,40
401.7012,401.88303,68,110,40
401.88303,402.05917,69,110,40
402.06485,402.24667,69,110,40
402.24667,402.4285,68,110,40
402.4285,402.6046,69,110,40
409.39746,409.4756,71,70,40
409.4756,409.5537,72,68,40
409.5537,409.63184,71,65,40
409.63184,409.70996,72,62,40
409.70996,409.7881,71,59,40
409.7881,409.8662,72,56,40
409.8662,409.94434,71,53,40
409.94434,410.02246,72,50,40
411.27246,411.3506,71,70,40
411.3506,411.4287,72,68,40
411.4287,411.50684,71,65,40
411.50684,411.58496,72,62,40
411.58496,411.6631,71,59,40
411.6631,411.7412,72,56,40
411.7412,411.81934,71,53,40
411.81934,411.89746,72,50,40
414.39746,414.4756,59,70,40
414.4756,414.5537,60,70,40
414.5537,414.63184,59,70,40
414.63184,414.70996,60,70,40
414.70996,414.7881,59,70,40
414.7881,414.8662,60,70,40
414.8662,414.94434,59,70,40
414.94434,415.02246,60,70,40
415.02246,415.32846,64,70,40
415.33496,415.64096,62,70,40
415.64746,416.26596,59,70,40
416.27246,416.8662,59,70,40
416.87247,417.46622,59,70,40
417.47247,418.06622,60,70,40
418.07248,418.71136,62,70,40
418.7183,419.37802,57,60,40
419.38498,420.04468,59,50,40
421.56415,421.86414,71,50,40
421.86414,422.1734,74,60,40
422.1734,422.4995,71,70,40
422.4995,422.8404,69,70,40
422.8404,423.2154,72,60,40
423.2154,423.95758,71,50,40
423.9654,424.04352,71,70,40
424.04352,424.12164,72,70,40
424.12164,424.19977,71,70,40
424.19977,424.2779,72,70,40
424.2779,424.35602,71,70,40
424.35602,424.43414,72,70,40
424.43414,424.51227,71,70,40
424.51227,424.5904,72,70,40
424.5904,424.9029,76,70,40
424.9029,425.2154,74,70,40
425.2154,425.8339,71,70,40
427.6404,427.71393,67,70,40
427.71393,427.78748,68,70,40
427.78748,427.861,67,70,40
427.861,427.9345,68,70,40
427.9345,428.00806,67,70,40
428.00806,428.08157,68,70,40
428.08157,428.15512,67,70,40
428.15512,428.22864,68,70,40
428.22864,428.52277,72,70,40
428.52277,428.83527,70,70,40
428.83527,429.45374,62,70,40
429.46027,429.77277,65,70,40
429.77277,430.08527,63,70,40
430.08527,431.4796,58,70,40
431.48743,431.82077,63,70,40
431.82077,432.13992,67,70,40
432.13992,432.44604,70,70,40
432.44604,432.75217,75,70,40
432.75217,433.0583,79,70,40
433.0583,433.3644,82,70,40
433.3644,433.67053,79,70,40
433.67053,433.97028,75,70,40
433.97665,434.28278,70,70,40
434.28278,434.58276,75,70,40
434.58276,434.88278,79,70,40
434.88278,435.18277,82,70,40
435.18277,435.48276,79,70,40
435.48276,435.77652,75,70,40
435.78278,436.08276,70,70,40
436.08276,436.3769,75,70,40
436.3769,436.671,79,70,40
436.671,436.96512,82,70,40
436.96512,437.25925,79,70,40
437.25925,437.54724,75,70,40
437.55334,437.84747,70,70,40
437.84747,438.13593,75,70,40
438.13593,438.4244,79,70,40
438.4244,438.71286,82,70,40
438.71286,439.0013,79,70,40
439.0013,439.28378,75,70,40
439.2898,439.57825,70,70,40
439.57825,439.8667,75,70,40
439.8667,440.15515,79,70,40
440.15515,440.44363,82,70,40
440.44363,440.72607,87,70,40
440.7321,441.02054,87,70,40
441.02054,441.30902,86,70,40
441.30902,441.59204,84,70,40
441.59204,441.87506,82,70,40
441.87506,442.15808,80,70,40
442.15808,442.44107,79,70,40
442.44107,442.7241,77,70,40
442.7241,443.0071,75,70,40
443.0071,443.29013,74,70,40
443.29013,443.57315,72,70,40
443.57315,443.85617,70,70,40
443.85617,444.1562,69,70,40
444.1562,444.48227,67,70,40
444.48227,444.80835,67,70,40
444.80835,445.0147,65,73,40
445.09137,445.29773,65,76,40
445.3744,445.58075,65,79,40
445.6574,445.86377,65,82,40
445.94043,446.1468,65,85,40
446.22345,446.50647,65,88,40
446.50647,446.71283,70,91,40
446.7895,446.99585,70,94,40
447.0725,447.27887,70,97,40
447.35553,447.57428,70,100,40
447.65552,447.89856,70,85,40
447.98886,448.98886,70,70,40
448.98886,449.32217,72,70,40
449.32217,449.9819,70,70,40
455.79742,455.99997,65,110,40
455.79742,455.99997,74,110,40
456.07523,456.27777,65,110,40
456.07523,456.27777,74,110,40
456.353,456.55554,65,110,40
456.353,456.55554,74,110,40
456.63077,456.8333,65,110,40
456.63077,456.8333,74,110,40
456.90854,457.11108,65,110,40
456.90854,457.11108,74,110,40
457.1863,458.0139,58,110,40
457.1863,458.0139,67,110,40
457.1863,458.01965,75,110,40
458.01965,458.29742,77,110,40
458.29742,458.8472,75,110,40
462.4641,462.684,74,110,40
462.4641,462.73608,65,110,40
462.74188,462.9618,74,110,40
462.74188,463.01385,65,110,40
463.01965,463.24536,74,110,40
463.01965,463.29166,65,110,40
463.29742,463.52313,74,110,40
463.29742,463.56943,65,110,40
463.5752,463.8009,74,110,40
463.5752,463.8472,65,110,40
463.853,464.68054,58,110,40
463.853,464.68054,67,110,40
463.853,464.68054,75,110,40
464.6863,464.9583,77,110,40
464.96408,465.51385,67,110,40
464.96408,465.51385,75,110,40
465.51965,466.3472,67,110,40
465.51965,466.3472,70,110,40
466.353,466.62497,69,110,40
466.353,466.62497,72,110,40
466.63077,467.18054,67,95,40
466.63077,467.18054,70,95,40
467.1863,469.03818,66,70,40
467.1863,469.03818,69,70,40
469.03818,469.22336,61,70,40
469.22336,469.40854,62,70,40
469.40854,469.59372,64,70,40
469.59372,469.7789,66,70,40
469.7789,469.96408,67,70,40
469.96408,470.14926,68,70,40
470.14926,470.33447,69,70,40
470.33447,470.51965,70,70,40
470.51965,471.06943,71,70,40
471.0752,472.1805,72,70,40
472.1863,472.3715,69,70,40
472.3715,472.55667,61,70,40
472.55667,472.74185,62,70,40
472.74185,472.92706,64,70,40
472.92706,473.11224,66,70,40
473.11224,473.29742,67,70,40
473.29742,473.4826,68,70,40
473.4826,473.6678,69,70,40
473.6678,473.85297,70,70,40
473.85297,474.40274,71,70,40
474.40854,477.73608,62,70,40
474.40854,477.73608,72,70,40
479.99698,480.20975,66,55,40
480.20975,480.42978,67,55,40
480.42978,480.65704,69,55,40
480.65704,480.85706,55,55,40
480.85706,481.00912,67,55,40
481.04962,481.1943,67,55,40
481.23483,481.42,55,55,40
481.42,481.5647,67,55,40
481.6052,481.74988,67,55,40
481.79037,481.97556,55,55,40
481.97556,482.12024,67,55,40
482.16074,482.30542,67,55,40
482.34592,482.53113,60,55,40
482.53113,482.67578,67,55,40
482.7163,482.861,67,55,40
482.9015,483.08667,60,55,40
483.08667,483.23135,67,55,40
483.27185,483.41653,67,55,40
483.45703,483.6422,60,55,40
483.6422,483.7869,67,55,40
483.82742,483.97208,67,55,40
484.0126,484.19778,60,55,40
484.19778,484.34247,64,55,40
484.38297,484.52765,64,55,40
484.56815,484.71283,64,55,40
484.75333,484.898,64,55,40
484.9385,485.0832,64,55,40
485.12372,485.26837,64,55,40
485.3089,485.45355,64,55,40
485.49408,485.63876,64,55,40
485.67926,485.82394,64,55,40
485.86444,486.00912,64,55,40
486.04962,486.1943,64,55,40
486.2348,486.42,57,55,40
486.42,486.56467,69,55,40
486.6052,486.74985,69,55,40
486.79037,486.97556,57,55,40
486.97556,487.12024,69,55,40
487.16074,487.30542,69,55,40
487.34592,487.5311,57,55,40
487.5311,487.67578,69,59,40
487.7163,487.86096,69,64,40
487.9015,488.08667,57,68,40
488.08667,488.23135,69,73,40
488.27185,488.41653,69,78,40
488.45703,488.6422,57,82,40
488.6422,488.7869,69,87,40
488.8274,488.97208,69,92,40
489.0126,489.19778,62,96,40
489.19778,489.34244,69,101,40
489.38297,489.52765,69,106,40
489.56815,489.75333,62,110,40
489.75333,489.898,69,80,40
489.9385,490.0832,69,55,40
490.1237,490.3089,62,55,40
490.3089,490.45355,72,55,40
490.49408,490.63873,72,55,40
490.67926,491.22903,62,50,40
490.67926,491.22903,72,50,40
493.52466,493.7469,74,70,40
493.7469,493.9127,73,70,40
493.983,494.15488,72,70,40
494.233,494.52673,71,70,40
494.67188,494.81076,72,70,40
494.81076,495.9161,74,70,40
495.92188,496.19388,76,70,40
496.33856,496.47745,78,70,40
496.47745,497.58276,79,70,40
497.58853,497.86053,79,70,40
498.00522,498.1441,80,70,40
498.1441,498.41608,81,70,40
498.56076,498.69965,80,70,40
498.69965,498.97165,81,70,40
499.11633,499.24942,83,70,40
499.25522,499.805,83,70,40
499.81076,500.91608,84,70,40
500.92188,501.19388,72,70,40
501.33853,501.47742,74,77,40
501.47742,502.58276,76,100,40
502.58853,502.86053,78,100,40
503.00522,503.1441,79,108,40
503.1441,503.97165,81,110,40
503.97742,504.24942,79,70,40
504.25522,504.4404,79,70,40
504.4404,504.58505,78,70,40
504.62558,504.77026,88,70,40
504.81076,504.99594,88,70,40
504.99594,505.14062,86,70,40
505.18112,505.3258,84,70,40
505.3663,505.5515,84,70,40
505.5515,505.69617,83,70,40
505.7367,505.88135,81,70,40
505.92188,506.10706,81,70,40
506.10706,506.25174,79,70,40
506.29224,506.43692,78,70,40
506.47742,506.6626,78,70,40
506.6626,506.80728,76,70,40
506.8478,506.99246,74,70,40
507.033,507.21817,74,70,40
507.21817,507.36285,72,70,40
507.40335,507.54803,71,70,40
507.58853,507.7737,71,70,40
507.7737,507.9184,69,70,40
507.9589,508.10358,67,70,40
508.1441,508.3364,67,70,40
508.3364,508.48663,66,70,40
508.52872,508.67896,64,70,40
508.721,508.92102,64,70,40
508.92102,509.121,76,70,40
509.121,509.31476,75,70,40
509.321,509.52103,75,70,40
509.52103,509.7252,66,70,40
509.7252,509.927,75,70,40
509.9335,510.14185,75,70,40
510.14185,510.35712,66,70,40
510.35712,510.5724,74,70,40
510.57935,510.82935,74,70,40
510.82935,511.10587,66,70,40
511.10587,511.4089,72,70,40
511.4089,512.0686,67,60,40
511.4089,512.0686,70,60,40
512.07556,513.4019,58,50,40
512.07556,513.4019,67,50,40
513.4089,515.4019,58,50,40
513.4089,515.4019,68,50,40
515.4089,516.7072,58,50,40
515.4089,516.7072,67,50,40
516.71387,517.3402,70,50,40
516.71387,517.9657,67,50,40
517.34717,517.9657,71,50,40
517.97217,518.5907,67,50,40
518.59717,519.27295,66,50,40
519.2804,520.09033,67,70,40
520.09674,520.30084,67,70,40
520.30084,520.5049,68,70,40
520.5049,520.709,72,70,40
520.709,520.9131,70,70,40
520.9131,521.1108,67,70,40
521.1171,521.3212,67,90,40
521.3212,521.48065,68,70,40
521.5253,521.68475,65,70,40
521.7294,521.88885,58,70,40
521.9335,522.1376,62,70,40
522.1376,522.3416,63,70,40
522.3416,522.5457,67,70,40
522.5457,522.7498,65,70,40
522.7498,522.9475,62,70,40
522.95386,523.15796,62,70,40
523.15796,523.3174,63,70,40
523.36206,523.5215,58,70,40
523.5661,523.73236,55,70,40
523.7789,523.99164,67,70,40
523.99164,524.2044,68,70,40
524.2044,524.42664,72,70,40
524.42664,524.6568,70,70,40
524.6568,524.88745,67,70,40
524.8949,527.28864,55,70,40
524.8949,527.28864,67,70,40
527.2949,527.8887,66,89,40
527.8949,528.48865,66,94,40
528.4949,529.0886,69,110,40
529.0949,529.68866,66,110,40
529.6949,530.28864,72,110,40
530.2949,530.8887,69,110,40
530.8949,531.48865,69,110,40
531.4949,532.0886,66,110,40
532.0949,532.68866,69,110,40
532.6949,533.28864,81,110,40
533.2949,533.8887,78,110,40
533.8949,534.48865,78,110,40
534.4949,535.1134,79,110,40
535.1199,535.7796,79,110,40
535.78656,536.405,79,70,40
536.41156,536.7175,76,70,40
537.66156,538.28,76,70,40
538.28656,538.5925,72,70,40
540.16156,540.80695,69,70,40
540.16156,540.80695,72,70,40
540.8137,541.5559,69,70,40
540.8137,541.5559,72,70,40
541.5637,541.86975,67,70,40
541.5637,541.86975,71,70,40
541.8762,542.18225,67,70,40
542.1887,542.49475,69,70,40
542.5012,542.80725,71,70,40
542.8137,543.11975,72,70,40
543.1262,543.43225,74,70,40
543.4387,544.2721,76,70,40
544.2721,544.4804,79,70,40
544.4804,544.6887,76,65,40
544.6887,545.30725,72,60,40
545.3137,546.1471,72,70,40
546.1471,546.3554,76,70,40
546.3554,546.5637,72,60,40
546.5637,547.18225,69,50,40
547.1887,548.4591,64,70,40
548.4659,549.20807,66,70,40
549.2159,549.42426,67,70,40
549.42426,549.6246,66,70,40
549.6246,549.8169,64,70,40
549.8169,550.00916,62,70,40
550.00916,550.2015,64,70,40
550.2015,550.3938,66,70,40
550.3938,550.5861,67,70,40
550.5861,550.7784,66,70,40
550.7784,550.9707,64,70,40
550.9707,551.163,62,70,40
551.163,551.35175,64,70,40
551.35175,551.5369,66,70,40
551.5369,551.7221,67,70,40
551.7221,551.90735,69,70,40
551.90735,552.0925,71,70,40
552.0925,552.2777,72,70,40
552.2777,552.4571,74,70,40
552.4629,552.6481,74,70,40
552.6481,552.83325,72,70,40
552.83325,553.01843,71,70,40
553.01843,553.2036,69,70,40
553.2036,553.4974,55,70,40
553.2036,553.4974,67,70,40
553.8036,554.13,66,70,40
553.8036,554.13,69,70,40
554.4703,555.0423,62,70,40
555.04803,557.4497,74,70,40
557.45544,557.6349,74,70,40
557.6406,557.8258,74,70,40
557.8258,558.01105,72,70,40
558.01105,558.1962,71,70,40
558.1962,558.3814,81,70,40
558.1962,558.3814,69,70,40
558.3814,558.6638,79,70,40
558.9583,559.2521,69,70,40
558.9583,559.2521,78,70,40
560.1246,560.6743,57,77,40
560.1246,560.6743,66,77,40
561.7912,562.341,59,89,40
561.7912,562.341,67,89,40
563.4579,564.0076,60,100,40
563.4579,564.0076,69,100,40
565.1246,565.6743,62,70,40
565.1246,565.6743,71,70,40
565.6801,565.9521,73,73,40
565.9579,566.22986,74,75,40
566.23566,566.7854,76,76,40
566.7912,567.341,74,80,40
567.34674,567.6188,69,83,40
567.6246,567.89655,71,85,40
567.90234,568.4521,72,87,40
568.4579,569.0076,71,90,40
569.0134,569.2854,66,94,40
569.2912,569.5632,67,95,40
569.569,570.1188,71,97,40
570.1246,570.6743,69,100,40
570.6801,571.22986,63,70,40
571.23566,572.341,62,70,40
572.34674,572.89655,63,67,40
572.90234,574.0076,62,65,40
574.0134,574.5632,63,61,40
574.569,575.6743,62,60,40
575.6801,576.22986,63,60,40
576.23566,576.7854,62,60,40
576.7912,576.9764,71,50,40
576.9764,577.16156,67,50,40
577.16156,577.34674,62,50,40
577.34674,577.5319,66,50,40
577.5319,577.7171,69,50,40
577.7171,577.9023,72,50,40
577.9023,578.0875,71,50,40
578.0875,578.2727,67,50,40
578.2727,578.4579,62,50,40
578.4579,578.64307,71,50,40
578.64307,578.82825,67,50,40
578.82825,579.0134,62,50,40
579.0134,579.1986,66,50,40
579.1986,579.3838,69,50,40
579.3838,579.569,72,50,40
579.569,579.75415,71,50,40
579.75415,579.93933,67,50,40
579.93933,580.1245,62,50,40
580.1245,580.3097,71,50,40
580.3097,580.4949,67,50,40
580.4949,580.6801,62,50,40
580.6801,580.8653,66,50,40
580.8653,581.0505,69,50,40
581.0505,581.23566,72,50,40
581.23566,581.4243,71,50,40
581.4243,581.613,67,50,40
581.613,581.8017,62,50,40
581.8017,581.99036,71,50,40
581.99036,582.179,67,50,40
582.179,582.36774,62,50,40
582.36774,582.56,66,50,40
582.56,582.7523,69,50,40
582.7523,582.94464,72,50,40
582.94464,583.14465,71,50,40
583.14465,583.34467,67,50,40
583.34467,583.5446,65,50,40
583.5446,583.753,71,50,40
583.753,583.9613,67,50,40
583.9613,584.1696,65,50,40
584.1696,584.39185,72,50,40
584.39185,584.6141,67,50,40
584.6141,584.82935,64,50,40
584.8363,585.49603,55,50,40
584.8363,585.49603,64,50,40
586.1696,586.76337,64,60,40
586.76965,587.0756,69,60,40
587.08215,587.4085,67,60,40
587.41547,588.0752,64,60,40
601.9424,602.01184,60,50,40
602.01184,602.0813,62,50,40
602.0813,602.1507,60,50,40
602.1507,602.22015,62,50,40
602.22015,602.2896,60,50,40
602.2896,602.3591,62,50,40
602.3591,602.42847,60,50,40
602.42847,602.4979,62,50,40
602.4979,602.7757,65,50,40
602.7757,603.05347,63,50,40
603.05347,603.6033,60,50,40
605.2757,605.34515,61,50,40
605.34515,605.4146,62,50,40
605.4146,605.4841,61,50,40
605.4841,605.55347,62,50,40
605.55347,605.6229,61,50,40
605.6229,605.6924,62,50,40
605.6924,605.76184,61,50,40
605.76184,605.8313,62,50,40
605.8313,606.1091,66,50,40
606.1091,606.38684,64,50,40
606.38684,606.9366,61,50,40
608.6091,608.67847,61,50,40
608.67847,608.7479,62,50,40
608.7479,608.8174,61,50,40
608.8174,608.88684,62,50,40
608.88684,608.95624,61,50,40
608.95624,609.0257,62,50,40
609.0257,609.09515,61,50,40
609.09515,609.1646,62,50,40
609.1646,609.4424,66,50,40
609.4424,609.72015,64,50,40
609.72015,610.2699,61,50,40
611.9424,612.01184,62,60,40
612.01184,612.08124,64,60,40
612.08124,612.1507,62,60,40
612.1507,612.22015,64,60,40
612.22015,612.2896,62,60,40
612.2896,612.3591,64,60,40
612.3591,612.42847,62,60,40
612.42847,612.4979,64,60,40
612.4979,612.7757,69,60,40
612.7757,613.05347,67,61,40
613.05347,613.6033,62,63,40
614.72015,614.9979,69,73,40
614.9979,615.2757,67,75,40
615.2757,615.8255,62,76,40
616.38684,616.6646,60,83,40
616.6646,616.9424,59,85,40
616.9424,617.4921,55,87,40
618.05347,618.33124,64,93,40
618.33124,618.609,62,95,40
618.609,619.1588,59,97,40
619.72015,620.0086,69,104,40
620.0086,620.3086,67,105,40
620.3086,620.64197,71,107,40
620.64197,621.00916,79,109,40
621.01697,624.0107,71,110,40
621.01697,624.0107,79,110,40
624.01697,624.16693,74,60,40
624.16693,624.31696,71,60,40
624.31696,624.4669,74,60,40
624.4669,624.6107,72,60,40
624.61694,624.76697,72,60,40
624.76697,624.91693,62,60,40
624.91693,625.06696,64,60,40
625.06696,625.2169,67,60,40
625.2169,625.36694,65,60,40
625.36694,625.51697,66,60,40
625.51697,625.66693,69,60,40
625.66693,625.81696,67,60,40
625.81696,625.9669,68,60,40
625.9669,626.11694,69,60,40
626.11694,626.26697,72,60,40
626.26697,626.41693,71,60,40
626.41693,626.56696,72,60,40
626.56696,626.7169,73,60,40
626.7169,626.86694,76,60,40
626.86694,627.01697,74,60,40
627.01697,627.16693,76,60,40
627.16693,627.31696,77,60,40
627.31696,627.4669,79,60,40
627.4669,627.6107,78,60,40
627.61694,627.69196,78,60,40
627.69196,627.76697,79,60,40
627.76697,627.8419,78,60,40
627.8419,627.91693,79,60,40
627.91693,627.99194,78,60,40
627.99194,628.06696,79,60,40
628.06696,628.14197,78,60,40
628.14197,628.2169,79,60,40
628.2169,628.29193,78,60,40
628.29193,628.36694,79,61,40
628.36694,628.44196,78,62,40
628.44196,628.51697,79,63,40
628.51697,628.5919,78,64,40
628.5919,628.66693,79,65,40
628.66693,628.74194,78,66,40
628.74194,628.81696,79,67,40
628.81696,628.89197,78,68,40
628.89197,628.9669,79,69,40
628.9669,629.04193,78,70,40
629.04193,629.11694,79,71,40
629.11694,629.19196,78,72,40
629.19196,629.26697,79,73,40
629.26697,629.3419,78,74,40
629.3419,629.41693,79,75,40
629.41693,629.49194,78,76,40
629.49194,629.56696,79,78,40
629.56696,629.64197,78,79,40
629.64197,629.7169,79,80,40
629.7169,629.79193,78,81,40
629.79193,629.86694,79,82,40
629.86694,629.94196,78,83,40
629.94196,630.01697,79,84,40
630.01697,630.0919,78,85,40
630.0919,630.16693,79,86,40
630.16693,630.24194,78,87,40
630.24194,630.31696,79,88,40
630.31696,630.39197,78,89,40
630.39197,630.4669,79,90,40
630.4669,630.54193,78,91,40
630.54193,630.61694,79,92,40
630.61694,630.69196,78,93,40
630.69196,630.76697,79,95,40
630.76697,630.8419,78,96,40
630.8419,630.91693,79,97,40
630.91693,630.99194,78,98,40
630.99194,631.06696,79,99,40
631.06696,631.14197,78,100,40
631.14197,631.2169,79,101,40
631.2169,631.29193,78,102,40
631.29193,631.36694,79,103,40
631.36694,631.44196,78,104,40
631.44196,631.51697,79,105,40
631.51697,631.5919,78,106,40
631.5919,631.66693,79,107,40
631.66693,631.74194,78,108,40
631.74194,631.81696,79,109,40
631.81696,631.89197,78,110,40
631.89197,631.9669,79,110,40
631.9669,632.04193,78,109,40
632.04193,632.11694,79,108,40
632.11694,632.19196,78,107,40
632.19196,632.26697,79,106,40
632.26697,632.3419,78,105,40
632.3419,632.41693,79,105,40
632.41693,632.49194,78,104,40
632.49194,632.56696,79,103,40
632.56696,632.64197,78,102,40
632.64197,632.7169,79,101,40
632.7169,632.79193,78,100,40
632.79193,632.86694,79,99,40
632.86694,632.94196,78,99,40
632.94196,633.01697,79,98,40
633.01697,633.0919,78,97,40
633.0919,633.16693,79,96,40
633.16693,633.24194,78,95,40
633.24194,633.31696,79,94,40
633.31696,633.39197,78,93,40
633.39197,633.4669,79,93,40
633.4669,633.54193,78,92,40
633.54193,633.61694,79,91,40
633.61694,633.69196,78,90,40
633.69196,633.76697,79,89,40
633.76697,633.8419,78,88,40
633.8419,633.91693,79,86,40
633.91693,633.99194,78,85,40
633.99194,634.06696,79,84,40
634.06696,634.14197,78,82,40
634.14197,634.2169,79,81,40
634.2169,634.29193,78,80,40
634.29193,634.36694,79,78,40
634.36694,634.44196,78,77,40
634.44196,634.51697,79,76,40
634.51697,634.5919,78,74,40
634.5919,634.66693,79,73,40
634.66693,634.74194,78,72,40
634.74194,634.81696,79,70,40
634.81696,634.89197,78,69,40
634.89197,634.9669,79,68,40
634.9669,635.04193,78,66,40
635.04193,635.11694,79,65,40
635.11694,635.19196,78,64,40
635.19196,635.26697,79,62,40
635.26697,635.3419,78,61,40
635.3419,635.41693,79,60,40
635.41693,635.7169,78,60,40
635.7169,636.01697,72,60,40
636.01697,636.31696,69,60,40
636.31696,636.61694,66,60,40
636.61694,636.91693,69,60,40
636.91693,637.2169,72,60,40
637.2169,639.0107,78,60,40
639.01697,639.31696,81,60,40
639.31696,639.61694,78,60,40
639.61694,639.91693,72,60,40
639.91693,640.2169,69,60,40
640.2169,640.51697,72,60,40
640.51697,640.81696,78,60,40
640.81696,642.6107,79,60,40
642.61694,642.91693,79,60,40
642.91693,643.2169,74,60,40
643.2169,643.51697,71,60,40
643.51697,643.81696,67,60,40
643.81696,644.11694,71,60,40
644.11694,644.41693,74,60,40
644.41693,646.2107,79,60,40
646.2169,646.51697,79,60,40
646.51697,646.81696,74,59,40
646.81696,647.11694,71,58,40
647.11694,647.41693,67,57,40
647.41693,647.7169,71,56,40
647.7169,648.01697,74,54,40
648.01697,648.31696,79,53,40
648.31696,648.61694,74,52,40
648.61694,648.91693,71,51,40
648.91693,649.22943,67,50,40
649.22943,649.30756,67,40,40
649.30756,649.3857,69,45,40
649.3857,649.4638,67,50,40
649.4638,649.54193,69,50,40
649.54193,649.62006,67,50,40
649.62006,649.6982,69,50,40
649.6982,649.7763,67,50,40
649.7763,649.85443,69,50,40
649.85443,650.16693,72,50,40
650.16693,650.49304,71,50,40
650.49304,651.1384,67,50,40
651.1452,651.22675,59,50,40
651.22675,651.3082,60,50,40
651.3082,651.3898,59,50,40
651.3898,651.4713,60,50,40
651.4713,651.5528,59,50,40
651.5528,651.63434,60,50,40
651.63434,651.7158,59,50,40
651.7158,651.79736,60,50,40
651.79736,652.1235,64,50,40
652.1235,652.4495,62,50,40
652.4495,653.0949,59,50,40
653.10175,653.7471,59,50,40
653.7539,654.3993,59,50,40
654.40607,655.08075,60,50,40
655.0879,655.79474,62,50,40
655.8022,656.86615,60,50,40
656.8736,657.0522,62,50,40
657.0522,657.2307,64,54,40
657.2307,657.3974,65,58,40
657.3974,657.5641,67,63,40
657.5641,657.71405,69,67,40
657.71405,657.8641,71,71,40
657.8641,658.0141,72,76,40
658.0141,658.16406,74,80,40
658.16406,658.3141,76,84,40
658.3141,658.46405,77,89,40
658.46405,658.6141,79,93,40
658.6141,658.7641,81,97,40
658.7641,658.91406,83,102,40
658.91406,659.0641,84,106,40
659.0641,659.39044,62,110,40
659.0641,659.39044,69,110,40
659.0641,659.39044,78,110,40
659.7307,660.39044,55,120,40
659.7307,660.39044,62,120,40
659.7307,660.39044,71,120,40
659.7307,660.39044,79,120,40
664.0641,664.2238,67,1,40
0.0,0.27199048,67,1,0
2.966664,3.0997658,59,70,0
3.0361085,3.1692102,60,70,0
3.1055527,3.2386544,59,70,0
3.174997,3.3080988,60,70,0
3.2444415,3.3775432,59,70,0
3.337034,3.4701357,57,70,0
3.4296265,3.516432,59,70,0
3.522219,3.8046708,64,70,0
3.8106804,4.1044307,62,70,0
4.1106806,4.7044306,59,70,0
4.7106805,5.2604485,59,70,0
4.7106805,5.2604485,62,70,0
5.2662354,5.8160033,59,70,0
5.2662354,5.8160033,62,70,0
5.8217907,6.3715587,57,70,0
5.8217907,6.3715587,60,70,0
5.8217907,6.3715587,62,70,0
6.3773456,6.959557,55,70,0
6.3773456,6.959557,59,70,0
6.3773456,6.959557,62,70,0
6.965807,7.259557,57,70,0
7.265807,7.559557,54,70,0
7.265807,7.559557,57,70,0
7.565807,8.159557,55,70,0
7.565807,8.159557,59,70,0
9.965807,10.259557,67,70,0
9.965807,10.259557,71,70,0
10.265807,10.571796,71,70,0
10.265807,10.571796,74,70,0
10.578307,10.884296,69,70,0
10.578307,10.884296,72,70,0
10.890807,11.2171955,72,70,0
10.890807,11.2171955,74,70,0
11.22414,11.883862,71,70,0
11.22414,11.883862,74,70,0
11.890806,12.023908,71,70,0
11.96025,12.093352,72,70,0
12.029695,12.162796,71,70,0
12.099139,12.232241,72,70,0
12.168584,12.301685,71,70,0
12.261176,12.394278,69,70,0
12.353768,12.440574,71,70,0
12.446361,12.728813,76,70,0
12.734822,13.028572,74,70,0
13.034822,13.628572,71,70,0
15.378839,15.511941,71,70,0
15.448283,15.581385,72,70,0
15.517728,15.650829,71,70,0
15.5871725,15.720274,72,70,0
15.656616,15.789719,71,70,0
15.749209,15.882311,69,70,0
15.841802,15.928607,71,70,0
15.934394,16.206385,76,70,0
16.212172,16.484161,74,70,0
16.489948,17.060862,65,70,0
17.066872,17.360622,69,70,0
17.366873,17.67937,67,70,0
17.68602,18.955965,64,70,0
18.962614,19.256365,67,70,0
19.262615,19.545067,72,70,0
19.551077,19.823067,76,70,0
19.828854,20.100843,79,70,0
20.10663,20.378622,84,70,0
20.384409,20.656399,88,70,0
20.662186,20.934177,84,70,0
20.939964,21.211954,79,70,0
21.217741,21.48973,76,70,0
21.495518,21.76751,79,70,0
21.773296,22.045286,84,70,0
22.051073,22.323065,88,70,0
22.328852,22.600842,84,70,0
22.606628,22.878618,79,70,0
22.884405,23.156397,76,70,0
23.162184,23.434174,81,70,0
23.43996,23.711952,84,70,0
23.71774,23.989729,88,70,0
23.995516,24.267506,84,70,0
24.273294,24.545284,81,70,0
24.551071,24.823061,76,70,0
24.828848,25.10084,81,70,0
25.106627,25.378616,84,70,0
25.384403,25.656393,88,70,0
25.662182,25.934172,84,70,0
25.939959,26.211948,81,70,0
26.217735,26.489727,78,70,0
26.495514,26.767504,81,70,0
26.77329,27.045282,84,70,0
27.05107,27.32306,90,70,0
27.328846,27.600836,84,70,0
27.606623,27.878614,81,70,0
27.884401,28.156391,78,70,0
28.162178,28.43417,81,70,0
28.439957,28.711946,84,70,0
28.717733,28.989723,90,70,0
28.99551,29.267502,84,70,0
29.273289,29.545279,81,70,0
29.551065,29.823057,78,70,0
29.828844,30.100834,81,70,0
30.10662,30.37861,84,70,0
30.3844,30.65639,90,70,0
30.662176,30.934166,93,70,0
30.939953,31.211945,91,70,0
31.217731,31.489721,90,70,0
31.495508,31.767498,88,70,0
31.773287,32.045277,86,70,0
32.051064,32.323055,84,70,0
32.328842,32.60083,83,70,0
32.606617,32.87861,81,70,0
32.884396,33.156387,79,70,0
33.162174,33.434162,78,70,0
33.439953,33.71194,76,70,0
33.717728,33.98972,74,70,0
33.995506,34.283497,72,70,0
34.289623,34.59561,71,70,0
34.602123,34.90811,71,70,0
34.914623,35.186615,69,70,0
35.1924,35.46439,69,70,0
35.470177,35.74217,69,73,0
35.747955,36.019947,69,77,0
36.025734,36.297726,69,81,0
36.303513,36.5755,69,85,0
36.581287,36.85328,74,89,0
36.859066,37.131058,74,93,0
37.136845,37.408833,74,97,0
37.41462,37.70261,74,100,0
37.70874,38.01473,74,85,0
38.02124,38.95223,74,70,0
38.95874,39.26473,76,70,0
39.27124,39.88973,74,70,0
39.89624,40.468227,57,70,0
39.89624,40.468227,64,70,0
39.89624,40.468227,67,70,0
40.474014,40.746006,57,70,0
40.474014,40.746006,64,70,0
40.474014,40.746006,67,70,0
40.751793,41.023785,57,73,0
40.751793,41.023785,64,73,0
40.751793,41.023785,67,73,0
41.02957,41.301563,57,77,0
41.02957,41.301563,64,77,0
41.02957,41.301563,67,77,0
41.30735,41.579338,57,81,0
41.30735,41.579338,64,81,0
41.30735,41.579338,67,81,0
41.585125,41.857117,57,85,0
41.585125,41.857117,64,85,0
41.585125,41.857117,67,85,0
41.862904,42.134895,57,89,0
41.862904,42.134895,62,89,0
41.862904,42.134895,66,89,0
42.140682,42.41267,57,93,0
42.140682,42.41267,62,93,0
42.140682,42.41267,66,93,0
42.418457,42.69045,57,97,0
42.418457,42.69045,62,97,0
42.418457,42.69045,66,97,0
42.696236,42.984226,57,100,0
42.696236,42.984226,62,100,0
42.696236,42.984226,66,100,0
42.990353,43.302853,57,85,0
42.990353,43.302853,62,85,0
42.990353,43.302853,66,85,0
43.3095,45.20488,55,70,0
43.3095,45.20488,62,70,0
43.3095,45.20488,67,70,0
45.4844,45.751446,69,110,0
45.4844,45.751446,72,110,0
45.4844,45.751446,78,110,0
45.75713,46.024174,69,110,0
45.75713,46.024174,72,110,0
45.75713,46.024174,78,110,0
46.029858,46.2969,69,110,0
46.029858,46.2969,72,110,0
46.029858,46.2969,78,110,0
46.30258,46.56963,69,110,0
46.30258,46.56963,72,110,0
46.30258,46.56963,78,110,0
46.57531,46.842354,69,110,0
46.57531,46.842354,72,110,0
46.57531,46.842354,78,110,0
46.848038,47.660538,67,110,0
46.848038,47.660538,71,110,0
46.848038,47.660538,79,110,0
47.666218,47.93326,72,110,0
47.666218,47.93326,69,110,0
47.666218,47.93326,81,110,0
47.938946,48.478718,71,110,0
47.938946,48.478718,67,110,0
47.938946,48.478718,79,110,0
48.484398,49.02417,66,70,0
48.484398,49.02417,69,70,0
50.12076,50.660534,67,70,0
50.12076,50.660534,71,70,0
52.02985,52.296894,69,110,0
52.02985,52.296894,72,110,0
52.02985,52.296894,78,110,0
52.302578,52.569622,69,110,0
52.302578,52.569622,72,110,0
52.302578,52.569622,78,110,0
52.575302,52.84235,69,110,0
52.575302,52.84235,72,110,0
52.575302,52.84235,78,110,0
52.84803,53.115078,69,110,0
52.84803,53.115078,72,110,0
52.84803,53.115078,78,110,0
53.120758,53.387802,69,110,0
53.120758,53.387802,72,110,0
53.120758,53.387802,78,110,0
53.393486,54.205986,67,110,0
53.393486,54.205986,71,110,0
53.393486,54.205986,79,110,0
54.211666,54.47871,72,110,0
54.211666,54.47871,69,110,0
54.211666,54.47871,81,110,0
54.484394,55.024166,71,110,0
54.484394,55.024166,67,110,0
54.484394,55.024166,79,110,0
55.029846,55.849834,74,125,0
55.029846,55.849834,77,125,0
55.855675,56.138126,76,100,0
55.855675,56.138126,79,100,0
56.144135,56.763428,74,100,0
56.144135,56.763428,77,100,0
56.77022,56.972046,73,70,0
56.77022,56.972046,76,70,0
56.978558,57.16953,68,70,0
57.175316,57.354713,69,70,0
57.3605,57.539898,71,70,0
57.545685,57.725082,73,70,0
57.73087,57.910267,74,70,0
57.916054,58.09545,75,70,0
58.10124,58.28064,76,70,0
58.286427,58.465824,78,70,0
58.47161,59.021378,78,70,0
59.027164,60.13249,79,70,0
60.138275,60.317673,76,70,0
60.32346,60.502857,68,70,0
60.508644,60.68804,69,70,0
60.69383,60.873226,71,70,0
60.879017,61.058414,73,70,0
61.0642,61.2436,74,70,0
61.249386,61.428783,75,70,0
61.43457,61.613968,76,70,0
61.619755,61.799152,78,70,0
61.80494,62.35471,78,70,0
62.360497,63.465816,79,70,0
63.471603,63.651005,76,70,0
63.65679,63.83619,68,70,0
63.841976,64.02137,69,70,0
64.02716,64.20656,71,70,0
64.21234,64.39175,73,70,0
64.39753,64.57693,74,70,0
64.58272,64.762115,75,70,0
64.7679,64.947296,76,70,0
64.95309,65.132484,78,70,0
65.13827,65.317665,79,70,0
65.323456,65.50285,78,70,0
65.50864,65.68804,76,70,0
65.693825,65.87322,83,70,0
65.87901,66.05841,81,70,0
66.06419,66.24359,79,70,0
66.24938,66.42878,78,70,0
66.43456,66.61396,76,70,0
66.61975,66.79915,74,70,0
66.80493,66.98433,73,70,0
66.99012,67.16952,71,70,0
67.17531,67.354706,69,70,0
67.36049,67.53989,67,70,0
67.54568,67.725075,66,70,0
67.73086,67.910255,64,70,0
67.916046,68.09544,62,70,0
68.10123,68.283966,61,70,0
68.28998,68.47627,59,70,0
68.482285,68.66858,57,70,0
68.67459,68.86089,61,70,0
68.8669,69.0532,64,70,0
69.059204,69.25296,69,70,0
69.25921,69.45296,73,70,0
69.459206,69.652954,76,70,0
69.65921,69.865326,81,70,0
69.87197,70.08489,79,70,0
70.091995,70.312164,76,70,0
70.31927,70.62525,78,70,0
70.778824,70.919754,79,70,0
70.92588,72.031204,81,70,0
72.036995,72.30898,83,70,0
72.036995,72.30898,79,70,0
72.45366,72.58676,81,70,0
72.45366,72.58676,85,70,0
72.592545,73.69787,83,70,0
72.592545,73.69787,86,70,0
73.70366,73.97565,74,70,0
74.12032,74.253426,75,70,0
74.25921,74.531204,76,70,0
74.67588,74.80898,75,70,0
74.814766,75.086754,76,70,0
75.23143,75.36453,78,70,0
75.23143,75.36453,75,70,0
75.37032,75.92009,75,70,0
75.37032,75.92009,78,70,0
75.92588,77.0312,76,70,0
75.92588,77.0312,79,70,0
77.03699,77.308975,76,70,0
77.03699,77.308975,79,70,0
77.45365,77.586754,78,77,0
77.45365,77.586754,81,77,0
77.592545,78.69787,79,80,0
77.592545,78.69787,83,80,0
78.70365,78.97564,85,100,0
78.70365,78.97564,81,100,0
79.120316,79.25342,83,108,0
79.120316,79.25342,86,108,0
79.25921,80.086754,88,110,0
79.25921,80.086754,85,110,0
80.09254,80.36453,83,70,0
80.09254,80.36453,86,70,0
80.370316,80.54971,86,70,0
80.555504,80.7349,85,70,0
80.740685,80.92008,83,70,0
80.92587,81.10527,83,70,0
81.11105,81.29046,81,70,0
81.29624,81.47564,79,70,0
81.48143,81.66083,79,70,0
81.66661,81.84601,78,70,0
81.8518,82.0312,76,70,0
82.03698,82.21638,76,70,0
82.22217,82.40491,74,70,0
82.41091,82.59721,73,70,0
82.60322,82.796974,73,70,0
82.80322,83.00088,71,70,0
83.007385,83.20921,69,70,0
83.21572,83.431,69,70,0
83.43794,83.666245,68,70,0
83.67406,83.916245,67,70,0
83.92406,84.117805,57,70,0
84.124054,84.31086,66,70,0
84.31664,84.49605,62,70,0
84.50183,84.68123,57,70,0
84.68702,84.86642,66,70,0
84.8722,85.0516,62,70,0
85.05739,85.236786,57,70,0
85.24257,85.42197,66,70,0
85.42776,85.607155,62,70,0
85.61294,85.79234,55,70,0
85.79813,85.97752,67,70,0
85.983315,86.16271,62,70,0
86.168495,86.34789,59,70,0
86.35368,86.53308,67,70,0
86.538864,86.71826,64,70,0
86.72405,86.90345,59,70,0
86.90923,87.08863,71,70,0
87.09442,87.27382,67,70,0
87.27961,87.45901,59,70,0
87.46479,87.64419,71,70,0
87.64998,87.82938,67,70,0
87.83516,88.01456,59,70,0
88.02035,88.199745,69,70,0
88.20553,88.384926,66,70,0
88.39072,88.570114,59,70,0
88.575905,88.7553,69,70,0
88.761086,88.94048,66,70,0
88.94627,89.12567,59,70,0
89.131454,89.31085,69,70,0
89.31664,89.49604,66,70,0
89.50182,89.68122,59,70,0
89.68701,89.86641,67,70,0
89.8722,90.0516,64,70,0
90.05738,90.23678,59,70,0
90.24257,90.42197,67,70,0
90.42775,90.60715,64,70,0
90.61294,90.792336,59,70,0
90.79812,90.977516,67,73,0
90.98331,91.162704,64,76,0
91.168495,91.34789,59,80,0
91.353676,91.53307,67,83,0
91.538864,91.71826,64,87,0
91.724045,91.90344,59,90,0
91.90923,92.08863,67,93,0
92.09441,92.27381,64,97,0
92.2796,92.459,55,100,0
92.46478,92.64419,67,104,0
92.64997,92.82937,64,107,0
92.83516,93.662704,55,110,0
92.83516,93.662704,61,110,0
92.83516,93.662704,64,110,0
92.83516,93.662704,67,110,0
93.66849,93.94048,78,70,0
93.66849,93.94048,81,70,0
93.946266,94.218254,76,70,0
93.946266,94.218254,79,70,0
94.224045,94.49603,74,70,0
94.224045,94.49603,78,70,0
94.50182,94.77381,73,70,0
94.50182,94.77381,76,70,0
94.7796,95.05159,71,70,0
94.7796,95.05159,74,70,0
95.05737,95.32937,69,70,0
95.05737,95.32937,73,70,0
95.33515,95.60715,67,70,0
95.33515,95.60715,71,70,0
95.61293,95.88492,66,70,0
95.61293,95.88492,69,70,0
95.89071,96.1627,64,70,0
95.89071,96.1627,67,70,0
96.16849,96.440475,62,70,0
96.16849,96.440475,66,70,0
96.446266,96.718254,61,70,0
96.446266,96.718254,64,70,0
96.724045,96.99603,59,70,0
96.724045,96.99603,62,70,0
97.001816,97.27381,57,70,0
97.001816,97.27381,61,70,0
97.279594,97.55159,55,70,0
97.279594,97.55159,59,70,0
97.55737,97.83983,54,70,0
97.55737,97.83983,57,70,0
97.84583,98.12829,52,70,0
97.84583,98.12829,55,70,0
98.1343,98.42805,50,70,0
98.1343,98.42805,54,70,0
98.434296,98.72805,49,70,0
98.434296,98.72805,52,70,0
98.7343,99.04028,49,70,0
98.7343,99.04028,52,70,0
98.7343,99.04028,55,70,0
99.0468,99.685684,49,70,0
99.0468,99.685684,52,70,0
99.0468,99.685684,55,70,0
99.69263,100.36753,49,70,0
99.69263,100.36753,52,70,0
99.69263,100.36753,55,70,0
100.3748,101.16944,55,70,0
100.3748,101.16944,61,70,0
101.17837,101.97212,53,70,0
101.17837,101.97212,62,70,0
101.97837,102.17212,74,70,0
102.17837,102.37212,75,70,0
102.37837,102.57212,79,70,0
102.57837,102.77212,77,70,0
102.77837,102.97212,74,70,0
102.97837,103.17212,74,70,0
103.17837,103.37212,75,70,0
103.37837,103.57212,72,70,0
103.57837,103.77212,65,70,0
103.77837,103.97212,72,70,0
103.97837,104.17212,74,70,0
104.17837,104.37212,77,70,0
104.37837,104.57212,75,70,0
104.57837,104.77212,72,70,0
104.77837,104.97212,72,70,0
104.97837,105.17212,74,70,0
105.17837,105.37212,70,70,0
105.37837,105.57212,65,70,0
105.57837,105.77212,74,70,0
105.77837,105.97212,75,70,0
105.97837,106.17212,79,70,0
106.17837,106.37212,77,70,0
106.37837,106.57212,74,70,0
106.57837,106.77212,79,70,0
106.77837,106.97212,78,70,0
106.97837,107.17212,74,70,0
107.17837,107.380196,83,70,0
107.3867,107.588524,81,70,0
107.59504,107.79686,78,70,0
107.80337,108.01865,81,70,0
108.0256,108.25389,80,70,0
108.2617,108.50389,79,70,0
108.5117,108.65546,77,70,0
108.5867,108.73045,79,70,0
108.661705,108.80545,77,70,0
108.7367,108.880455,79,70,0
108.81171,108.95545,77,70,0
108.8867,109.03046,79,70,0
108.9617,109.10545,77,70,0
109.036705,109.18045,79,70,0
109.1117,109.255455,77,70,0
109.18671,109.33045,79,70,0
109.2617,109.40546,77,70,0
109.3367,109.48045,79,70,0
109.411705,109.55545,77,70,0
109.4867,109.630455,79,70,0
109.56171,109.70545,77,70,0
109.6367,109.78046,79,70,0
109.7117,109.85545,77,70,0
109.786705,109.93045,79,70,0
109.8617,110.005455,77,70,0
109.93671,110.08045,79,70,0
110.0117,110.15546,77,70,0
110.0867,110.23045,79,70,0
110.161705,110.30545,77,70,0
110.2367,110.380455,79,70,0
110.31171,110.45545,77,70,0
110.3867,110.53046,79,70,0
110.4617,110.60545,77,70,0
110.536705,110.68045,79,70,0
110.6117,110.755455,77,70,0
110.68671,110.83045,79,70,0
110.7617,110.90546,77,70,0
110.8367,110.98045,79,70,0
110.911705,111.05545,77,70,0
110.9867,111.130455,79,70,0
111.06171,111.20545,77,70,0
111.1367,111.28046,79,70,0
111.2117,111.35545,77,70,0
111.286705,111.43045,79,70,0
111.3617,111.505455,77,70,0
111.43671,111.58045,79,70,0
111.5117,111.65546,77,70,0
111.5867,111.73045,79,70,0
111.661705,111.80545,77,70,0
111.7367,111.880455,79,70,0
111.81171,111.95545,77,70,0
111.8867,112.03046,79,70,0
111.9617,112.10545,77,70,0
112.036705,112.18045,79,70,0
112.1117,112.255455,77,70,0
112.18671,112.33045,79,70,0
112.2617,112.40546,77,70,0
112.3367,112.48045,79,70,0
112.411705,112.55545,77,70,0
112.4867,112.630455,79,70,0
112.56171,112.70545,77,70,0
112.6367,112.78258,79,70,0
112.7117,112.8599,77,70,0
112.789024,112.93722,79,70,0
112.86634,113.01454,77,70,0
112.943665,113.09186,79,70,0
113.02098,113.169174,77,70,0
113.098305,113.2465,79,70,0
113.17562,113.323814,77,70,0
113.25294,113.4034,79,70,0
113.33026,113.483185,77,70,0
113.41005,113.56297,79,70,0
113.48984,113.64276,77,70,0
113.56962,113.7258,79,70,0
113.64941,113.80913,77,70,0
113.73274,113.89246,79,70,0
113.81608,113.9758,77,70,0
113.89941,113.9758,79,70,0
113.98274,114.12649,78,70,0
114.05774,114.20149,79,70,0
114.132744,114.27649,78,71,0
114.20774,114.351494,79,72,0
114.28274,114.42649,78,73,0
114.35774,114.50149,79,74,0
114.43274,114.57649,78,75,0
114.507744,114.64885,79,75,0
114.58274,114.64885,79,76,0
114.654854,114.793076,81,77,0
114.726974,114.8652,79,78,0
114.79909,114.93731,81,79,0
114.8712,115.00942,79,80,0
114.94332,115.08154,81,81,0
115.015434,115.153656,79,81,0
115.08755,115.22332,81,82,0
115.15967,115.29276,79,83,0
115.22911,115.36221,81,84,0
115.29855,115.431656,79,85,0
115.368,115.5011,81,86,0
115.43744,115.57054,79,87,0
115.50689,115.63999,81,87,0
115.57633,115.709435,79,88,0
115.71522,115.84832,80,90,0
115.78466,115.91776,81,91,0
115.85411,115.98721,80,92,0
115.92355,116.056656,81,93,0
115.993,116.1261,80,93,0
116.06244,116.19554,81,94,0
116.13189,116.264984,80,95,0
116.270775,116.40388,81,97,0
116.34022,116.47332,83,98,0
116.40966,116.54276,81,98,0
116.47911,116.61221,83,99,0
116.54855,116.681656,81,100,0
116.618,116.7511,83,101,0
116.68744,116.82054,81,102,0
116.75688,116.889984,83,103,0
116.82633,116.959435,81,104,0
116.895775,117.02888,83,104,0
116.96522,117.09832,81,105,0
117.03466,117.16776,83,106,0
117.10411,117.237206,81,107,0
117.17355,117.306656,83,108,0
117.243,117.3761,81,109,0
117.31244,117.44554,83,110,0
117.38188,117.514984,81,125,0
117.45133,117.58443,83,117,0
117.520775,117.65388,81,109,0
117.59022,117.72332,83,101,0
117.65966,117.79276,81,100,0
117.7291,117.862206,83,100,0
117.79855,117.931656,81,100,0
117.868,118.0011,83,100,0
117.93744,118.07054,81,125,0
118.00688,118.139984,83,117,0
118.076324,118.20943,81,109,0
118.145775,118.27888,83,101,0
118.21522,118.34832,81,100,0
118.28466,118.41776,83,100,0
118.3541,118.487206,81,100,0
118.42355,118.55665,83,100,0
118.493,118.6261,81,125,0
118.56244,118.69554,83,117,0
118.63188,118.764984,81,109,0
118.701324,118.83443,83,101,0
118.770775,118.90388,81,100,0
118.84022,118.97332,83,100,0
118.90966,119.04276,81,100,0
118.9791,119.112206,83,100,0
119.048546,119.18165,81,125,0
119.118,119.2511,83,117,0
119.18744,119.32054,81,109,0
119.25688,119.389984,83,101,0
119.326324,119.45943,81,100,0
119.395775,119.52887,83,100,0
119.46522,119.59832,81,100,0
119.53466,119.66776,83,100,0
119.6041,119.737206,81,125,0
119.673546,119.80665,83,117,0
119.743,119.8761,81,109,0
119.81244,119.94554,83,101,0
119.88188,120.014984,81,100,0
119.951324,120.08443,83,100,0
120.02077,120.15387,81,100,0
120.09022,120.22332,83,100,0
120.15966,120.29276,81,125,0
120.2291,120.362206,83,117,0
120.298546,120.43165,81,109,0
120.368,120.50109,83,101,0
120.43744,120.57054,81,100,0
120.50688,120.639984,83,100,0
120.576324,120.70943,81,100,0
120.64577,120.77887,83,100,0
120.71522,120.84832,81,125,0
120.78466,120.91776,83,117,0
120.8541,120.987206,81,109,0
120.923546,121.05665,83,101,0
120.99299,121.12609,81,100,0
121.06244,121.19554,83,100,0
121.13188,121.264984,81,100,0
121.201324,121.33443,83,100,0
121.27077,121.40387,81,125,0
121.34022,121.47331,83,117,0
121.40966,121.54276,81,109,0
121.4791,121.612206,83,101,0
121.548546,121.68165,81,100,0
121.61799,121.75109,83,100,0
121.68744,121.82053,81,100,0
121.75688,121.889984,83,100,0
121.826324,121.95943,81,125,0
121.89577,122.02887,83,117,0
121.96521,122.09831,81,109,0
122.03466,122.16776,83,101,0
122.1041,122.237206,81,100,0
122.173546,122.30665,83,100,0
122.24299,122.37609,81,100,0
122.31243,122.44798,83,100,0
122.38188,122.5201,81,125,0
122.453995,122.59222,83,117,0
122.52611,122.66433,81,109,0
122.59823,122.73645,83,101,0
122.67034,122.80856,81,100,0
122.742455,122.88068,83,100,0
122.814575,122.95279,81,100,0
122.88669,123.02755,83,100,0
122.9588,123.102554,81,100,0
123.033806,123.17755,83,100,0
123.1088,123.252556,81,100,0
123.1838,123.32755,83,100,0
123.258804,123.40255,81,100,0
123.3338,123.477554,83,100,0
123.408806,123.55255,81,100,0
123.4838,123.63042,83,100,0
123.5588,123.70854,82,125,0
123.636925,123.78667,83,117,0
123.71505,123.86479,82,109,0
123.793175,123.94769,83,101,0
123.8713,124.03102,82,100,0
123.954636,124.11436,83,90,0
124.03797,124.19769,82,80,0
124.204636,125.08658,83,70,0
125.09352,125.3088,86,70,0
125.31574,125.53102,83,70,0
125.537964,126.19769,79,70,0
126.204636,127.08658,79,70,0
127.09352,127.3088,83,70,0
127.31574,127.53102,79,70,0
127.537964,128.1977,76,70,0
128.20464,129.53102,71,70,0
129.53796,130.28015,73,70,0
130.28796,130.92729,74,70,0
131.24629,131.55229,74,70,0
131.55879,131.86479,73,70,0
131.87129,132.17729,72,70,0
132.18379,132.38562,71,70,0
132.39214,132.59395,74,70,0
132.60046,132.80229,79,70,0
132.80879,133.11479,71,70,0
134.10046,134.29422,71,70,0
134.30046,134.49422,76,70,0
134.50046,134.69421,79,70,0
134.70047,134.99422,71,70,0
136.63379,137.29352,79,70,0
137.30046,138.08171,79,70,0
138.08994,138.29176,78,70,0
138.29826,138.49258,76,70,0
138.49858,138.68489,74,70,0
138.69089,138.8772,73,70,0
138.88321,139.0695,74,70,0
139.07552,139.26181,76,70,0
139.26782,139.45412,78,70,0
139.46013,139.64642,76,70,0
139.65244,139.83873,74,70,0
139.84474,140.03104,73,70,0
140.03705,140.22334,74,70,0
140.22935,140.41565,76,70,0
140.42166,140.60796,78,70,0
140.61397,140.80026,79,70,0
140.80627,140.99258,81,70,0
140.99858,141.18489,83,70,0
141.19089,141.3772,85,70,0
141.38321,141.5695,86,70,0
141.57552,141.76181,88,70,0
141.76782,141.95772,90,70,0
141.96397,142.15771,91,70,0
142.16397,142.49036,80,70,0
142.16397,142.49036,86,70,0
142.16397,142.49036,92,70,0
142.83064,143.19783,81,70,0
142.83064,143.19783,85,70,0
142.83064,143.19783,93,70,0
143.58064,143.77438,74,70,0
143.58064,143.77438,78,70,0
143.78064,143.96909,73,70,0
143.78064,143.96909,76,70,0
143.97498,144.15776,71,70,0
143.97498,144.15776,74,70,0
144.16365,144.34644,69,70,0
144.16365,144.34644,73,70,0
144.35234,144.53511,71,70,0
144.35234,144.53511,74,70,0
144.54102,144.7238,73,70,0
144.54102,144.7238,76,70,0
144.72969,144.91248,74,70,0
144.72969,144.91248,78,70,0
144.91837,145.10115,73,70,0
144.91837,145.10115,76,70,0
145.10706,145.28984,71,70,0
145.10706,145.28984,74,70,0
145.29573,145.47852,69,70,0
145.29573,145.47852,73,70,0
145.4844,145.66719,71,70,0
145.4844,145.66719,74,70,0
145.67308,145.85587,73,70,0
145.67308,145.85587,76,70,0
145.86177,146.04456,74,70,0
145.86177,146.04456,78,70,0
146.05045,146.23323,76,70,0
146.05045,146.23323,79,70,0
146.23912,146.4219,78,70,0
146.23912,146.4219,81,70,0
146.42781,146.61058,79,70,0
146.42781,146.61058,83,70,0
146.61649,146.79927,81,70,0
146.61649,146.79927,85,70,0
146.80516,146.98795,83,70,0
146.80516,146.98795,86,70,0
146.99384,147.17662,85,70,0
146.99384,147.17662,88,70,0
147.18253,147.3706,86,70,0
147.18253,147.3706,90,70,0
147.37686,147.5706,88,70,0
147.37686,147.5706,91,70,0
147.57686,147.90324,80,70,0
147.57686,147.90324,86,70,0
147.57686,147.90324,92,70,0
148.24353,148.56992,68,70,0
148.24353,148.56992,80,70,0
148.57686,148.90324,69,71,0
148.57686,148.90324,81,71,0
148.91019,149.53728,83,73,0
148.91019,149.53728,71,73,0
149.54352,150.09329,81,77,0
149.54352,150.09329,69,77,0
150.09908,150.37106,76,81,0
150.09908,150.37106,64,81,0
150.37686,150.64885,78,83,0
150.37686,150.64885,66,83,0
150.65463,151.2044,79,85,0
150.65463,151.2044,67,85,0
151.21019,151.75996,78,89,0
151.21019,151.75996,66,89,0
151.76575,152.03773,73,93,0
151.76575,152.03773,61,93,0
152.04352,152.3155,74,95,0
152.04352,152.3155,62,95,0
152.3213,152.87106,78,97,0
152.3213,152.87106,66,97,0
152.87686,153.42662,76,100,0
152.87686,153.42662,64,100,0
153.4324,153.98218,70,85,0
153.4324,153.98218,58,85,0
153.98796,155.09329,69,70,0
153.98796,155.09329,57,70,0
155.09908,155.27847,57,70,0
155.28426,155.46365,64,71,0
155.46945,155.64885,67,72,0
155.65463,155.83403,57,73,0
155.83981,156.01921,64,75,0
156.025,156.20439,67,76,0
156.21019,156.38959,57,77,0
156.39537,156.57477,64,79,0
156.58055,156.75995,67,80,0
156.76575,156.94514,57,81,0
156.95093,157.13033,61,82,0
157.13611,157.3155,64,84,0
157.32129,157.50069,57,85,0
157.50648,157.68588,61,86,0
157.69167,157.87106,64,88,0
157.87685,158.05624,57,89,0
158.06203,158.24144,62,90,0
158.24722,158.42662,66,91,0
158.4324,158.6118,57,93,0
158.61758,158.79698,62,94,0
158.80278,158.98218,66,95,0
158.98796,159.16736,57,97,0
159.17314,159.35254,61,98,0
159.35832,159.53773,67,99,0
159.54352,159.72292,57,100,0
159.7287,159.9081,61,90,0
159.91388,160.09328,67,80,0
160.09908,160.27847,61,70,0
160.28426,160.46365,64,70,0
160.46944,160.64883,67,70,0
160.65462,160.83401,66,70,0
160.83981,161.01921,62,69,0
161.025,161.20439,57,68,0
161.21017,161.38957,66,67,0
161.39537,161.57477,62,66,0
161.58055,161.75995,57,64,0
161.76573,161.94513,61,63,0
161.95091,162.13031,64,62,0
162.13611,162.3155,67,61,0
162.32129,162.50069,66,59,0
162.50647,162.68587,62,58,0
162.69167,162.87106,57,57,0
162.87685,163.05624,66,56,0
163.06203,163.24142,62,54,0
163.24721,163.4266,57,53,0
163.4324,163.6118,61,52,0
163.61758,163.79698,64,51,0
163.80276,163.98216,67,50,0
163.98796,164.16736,66,50,0
164.17314,164.35254,62,50,0
164.35832,164.53772,57,50,0
164.5435,164.7229,66,50,0
164.7287,164.9081,62,50,0
164.91388,165.09328,57,50,0
165.09906,165.27846,61,50,0
165.28426,165.46365,64,50,0
165.46944,165.64883,67,50,0
165.65462,165.83401,66,50,0
165.8398,166.0192,62,50,0
166.025,166.20439,60,50,0
166.21017,166.38957,66,50,0
166.39536,166.57475,62,50,0
166.58055,166.75995,60,50,0
166.76573,166.95203,67,50,0
166.95804,167.14793,62,50,0
167.15419,167.34795,59,50,0
167.35419,167.99307,59,50,0
167.35419,167.99307,62,50,0
167.35419,167.99307,67,50,0
168.66669,168.80492,59,70,0
168.7388,168.87703,60,70,0
168.81093,168.94914,59,70,0
168.88304,169.02126,60,70,0
168.95515,169.09337,59,70,0
169.0513,169.18953,57,70,0
169.14746,169.23761,59,70,0
169.2436,169.53737,64,70,0
169.54361,169.84961,62,70,0
169.85611,170.47461,59,70,0
170.48111,171.07486,59,70,0
170.48111,171.07486,62,70,0
171.08112,171.72,59,70,0
171.08112,171.72,62,70,0
171.72694,172.38667,57,70,0
171.72694,172.38667,60,70,0
171.72694,172.38667,62,70,0
172.39362,173.02525,55,70,0
172.39362,173.02525,59,70,0
172.39362,173.02525,62,70,0
173.0319,173.3444,57,70,0
173.35106,173.66356,54,70,0
173.35106,173.66356,57,70,0
173.67021,174.30185,55,70,0
173.67021,174.30185,59,70,0
176.1713,176.4838,67,70,0
176.1713,176.4838,71,70,0
176.49043,176.81682,71,70,0
176.49043,176.81682,74,70,0
176.82378,177.15016,69,70,0
176.82378,177.15016,72,70,0
177.1571,177.48349,72,70,0
177.1571,177.48349,74,70,0
177.49043,178.15016,71,70,0
177.49043,178.15016,74,70,0
178.1571,178.30684,71,70,0
178.23523,178.38496,72,70,0
178.31335,178.46309,71,70,0
178.39148,178.54121,72,70,0
178.4696,178.61934,71,70,0
178.57376,178.72351,69,70,0
178.67793,178.77559,71,70,0
178.7821,179.08809,76,70,0
179.0946,179.40059,74,70,0
179.4071,180.02559,71,70,0
181.9071,182.05684,71,70,0
181.98523,182.13496,72,70,0
182.06335,182.21309,71,70,0
182.14148,182.29121,72,70,0
182.2196,182.36934,71,70,0
182.32376,182.47351,69,70,0
182.42793,182.52559,71,70,0
182.5321,182.83809,76,70,0
182.8446,183.15059,74,70,0
183.1571,183.80247,65,70,0
183.80928,184.14308,69,70,0
184.15018,184.484,67,70,0
184.49109,185.73459,64,70,0
185.74109,186.04709,67,70,0
186.05359,186.34734,72,70,0
186.35359,186.62558,76,70,0
186.63136,186.90337,79,70,0
186.90915,187.18114,84,70,0
187.18692,187.45891,88,70,0
187.4647,187.7367,84,70,0
187.74248,188.01447,79,70,0
188.02026,188.29225,76,70,0
188.29803,188.57002,79,70,0
188.5758,188.84781,84,70,0
188.85359,189.12558,88,70,0
189.13136,189.40335,84,70,0
189.40915,189.68114,79,70,0
189.68692,189.95891,76,70,0
189.9647,190.2367,81,70,0
190.24248,190.51447,84,70,0
190.52025,190.79225,88,70,0
190.79803,191.07002,84,70,0
191.0758,191.3478,81,70,0
191.35359,191.62558,76,70,0
191.63136,191.90335,81,70,0
191.90915,192.18114,84,70,0
192.18692,192.45891,88,70,0
192.46469,192.7367,84,70,0
192.74248,193.01447,81,70,0
193.02025,193.29224,78,70,0
193.29803,193.57002,81,70,0
193.5758,193.8478,84,70,0
193.85359,194.12558,90,70,0
194.13136,194.40335,84,70,0
194.40913,194.68114,81,70,0
194.68692,194.95891,78,70,0
194.96469,195.23668,81,70,0
195.24248,195.51447,84,70,0
195.52025,195.79224,90,70,0
195.79803,196.07002,84,70,0
196.0758,196.3478,81,70,0
196.35358,196.62558,78,70,0
196.63136,196.90335,81,70,0
196.90913,197.18112,84,70,0
197.18692,197.45891,90,70,0
197.46469,197.73668,93,70,0
197.74248,198.01447,91,70,0
198.02025,198.29224,90,70,0
198.29802,198.57002,88,70,0
198.5758,198.8478,86,70,0
198.85358,199.12556,84,70,0
199.13136,199.40335,83,70,0
199.40913,199.68112,81,70,0
199.6869,199.95891,79,70,0
199.96469,200.23668,78,70,0
200.24246,200.52492,76,70,0
200.53093,200.81339,74,70,0
200.8194,201.11314,72,70,0
201.11938,201.43188,71,70,0
201.43854,201.75104,71,70,0
201.75769,202.04015,69,70,0
202.04614,202.3286,69,70,0
202.33461,202.61707,69,73,0
202.62308,202.90552,69,77,0
202.91153,203.19398,69,81,0
203.2,203.48245,69,85,0
203.48845,203.7709,74,89,0
203.77692,204.05937,74,93,0
204.06538,204.34782,74,97,0
204.35384,204.6476,74,100,0
204.65384,204.96634,74,85,0
204.97299,205.92378,74,70,0
205.93044,206.24294,76,70,0
206.24959,206.88123,74,70,0
206.88788,207.45987,57,70,0
206.88788,207.45987,64,70,0
206.88788,207.45987,67,70,0
207.46565,207.73766,57,70,0
207.46565,207.73766,64,70,0
207.46565,207.73766,67,70,0
207.74344,208.01543,57,73,0
207.74344,208.01543,64,73,0
207.74344,208.01543,67,73,0
208.02121,208.2932,57,77,0
208.02121,208.2932,64,77,0
208.02121,208.2932,67,77,0
208.299,208.57098,57,81,0
208.299,208.57098,64,81,0
208.299,208.57098,67,81,0
208.57677,208.84875,57,85,0
208.57677,208.84875,64,85,0
208.57677,208.84875,67,85,0
208.85454,209.12654,57,89,0
208.85454,209.12654,62,89,0
208.85454,209.12654,66,89,0
209.13232,209.40431,57,93,0
209.13232,209.40431,62,93,0
209.13232,209.40431,66,93,0
209.4101,209.6821,57,97,0
209.4101,209.6821,62,97,0
209.4101,209.6821,66,97,0
209.68788,209.95987,57,100,0
209.68788,209.95987,62,100,0
209.68788,209.95987,66,100,0
209.96565,210.23764,57,85,0
209.96565,210.23764,62,85,0
209.96565,210.23764,66,85,0
210.24344,211.90431,55,70,0
210.24344,211.90431,62,70,0
210.24344,211.90431,67,70,0
212.18788,212.45987,69,110,0
212.18788,212.45987,72,110,0
212.18788,212.45987,78,110,0
212.46565,212.73764,69,110,0
212.46565,212.73764,72,110,0
212.46565,212.73764,78,110,0
212.74342,213.01543,69,110,0
212.74342,213.01543,72,110,0
212.74342,213.01543,78,110,0
213.02121,213.2932,69,110,0
213.02121,213.2932,72,110,0
213.02121,213.2932,78,110,0
213.29898,213.57097,69,110,0
213.29898,213.57097,72,110,0
213.29898,213.57097,78,110,0
213.57677,214.40431,67,110,0
213.57677,214.40431,71,110,0
213.57677,214.40431,79,110,0
214.4101,214.68208,72,110,0
214.4101,214.68208,69,110,0
214.4101,214.68208,81,110,0
214.68787,215.23764,71,110,0
214.68787,215.23764,67,110,0
214.68787,215.23764,79,110,0
215.24342,215.7932,66,70,0
215.24342,215.7932,69,70,0
216.9101,217.45985,67,70,0
216.9101,217.45985,71,70,0
218.85454,219.12653,69,110,0
218.85454,219.12653,72,110,0
218.85454,219.12653,78,110,0
219.13231,219.4043,69,110,0
219.13231,219.4043,72,110,0
219.13231,219.4043,78,110,0
219.4101,219.68208,69,110,0
219.4101,219.68208,72,110,0
219.4101,219.68208,78,110,0
219.68787,219.97032,69,110,0
219.68787,219.97032,72,110,0
219.68787,219.97032,78,110,0
219.97633,220.27008,69,110,0
219.97633,220.27008,72,110,0
219.97633,220.27008,78,110,0
220.27634,221.17007,67,110,0
220.27634,221.17007,71,110,0
220.27634,221.17007,79,110,0
221.17633,221.47008,72,110,0
221.17633,221.47008,69,110,0
221.17633,221.47008,81,110,0
221.47633,222.07008,71,110,0
221.47633,222.07008,67,110,0
221.47633,222.07008,79,110,0
222.07632,222.9357,74,125,0
222.07632,222.9357,77,125,0
222.94171,223.22417,76,100,0
222.94171,223.22417,79,100,0
223.23018,223.84268,74,100,0
223.23018,223.84268,77,100,0
223.84932,224.05544,73,70,0
223.84932,224.05544,76,70,0
224.06209,224.25528,68,70,0
224.26106,224.44046,69,70,0
224.44624,224.62564,71,70,0
224.63144,224.81084,73,70,0
224.81662,224.99602,74,70,0
225.0018,225.1812,75,70,0
225.187,225.3664,76,70,0
225.37218,225.55157,78,70,0
225.55736,226.10713,78,70,0
226.11292,227.21823,79,70,0
227.22403,227.40343,76,70,0
227.40921,227.58861,68,70,0
227.59439,227.77379,69,70,0
227.77959,227.95898,71,70,0
227.96477,228.14417,73,70,0
228.14995,228.32935,74,70,0
228.33513,228.51453,75,70,0
228.52032,228.69972,76,70,0
228.7055,228.8849,78,70,0
228.89069,229.44046,78,70,0
229.44624,230.55157,79,70,0
230.55736,230.73676,76,70,0
230.74254,230.92194,68,70,0
230.92772,231.10712,69,70,0
231.11292,231.29231,71,70,0
231.2981,231.4775,73,70,0
231.48328,231.66267,74,70,0
231.66847,231.84787,75,70,0
231.85365,232.03305,76,70,0
232.03883,232.21823,78,70,0
232.22401,232.40341,79,70,0
232.40921,232.58861,78,70,0
232.59439,232.77379,76,70,0
232.77957,232.95897,83,70,0
232.96477,233.14417,81,70,0
233.14995,233.32935,79,70,0
233.33513,233.51453,78,70,0
233.52031,233.6997,76,70,0
233.7055,233.8849,74,70,0
233.89069,234.07008,73,70,0
234.07587,234.25526,71,70,0
234.26106,234.44046,69,70,0
234.44624,234.62564,67,70,0
234.63142,234.81082,66,70,0
234.8166,234.996,64,70,0
235.0018,235.1812,62,70,0
235.18698,235.36638,61,70,0
235.37216,235.55156,59,70,0
235.55734,235.73676,57,70,0
235.74254,235.92194,61,70,0
235.92772,236.10712,64,70,0
236.1129,236.29921,69,70,0
236.3052,236.49152,73,70,0
236.49751,236.68382,76,70,0
236.68983,236.88358,81,70,0
236.88983,237.08957,79,70,0
237.0962,237.30232,76,70,0
237.30898,237.60272,78,70,0
237.74786,237.88097,79,70,0
237.88675,238.99208,81,70,0
238.99786,239.26985,83,70,0
238.99786,239.26985,79,70,0
239.41454,239.54764,81,70,0
239.41454,239.54764,85,70,0
239.55342,240.65874,83,70,0
239.55342,240.65874,86,70,0
240.66454,240.93652,74,70,0
241.08119,241.2143,75,70,0
241.22008,241.49208,76,70,0
241.63675,241.76985,75,70,0
241.77563,242.04762,76,70,0
242.1923,242.32541,78,70,0
242.1923,242.32541,75,70,0
242.33119,242.88097,75,70,0
242.33119,242.88097,78,70,0
242.88675,243.99207,76,70,0
242.88675,243.99207,79,70,0
243.99786,244.26985,76,70,0
243.99786,244.26985,79,70,0
244.41452,244.54762,78,77,0
244.41452,244.54762,81,77,0
244.55342,245.65874,79,80,0
244.55342,245.65874,83,80,0
245.66452,245.93651,85,100,0
245.66452,245.93651,81,100,0
246.08119,246.2143,83,108,0
246.08119,246.2143,86,108,0
246.22008,247.04762,88,110,0
246.22008,247.04762,85,110,0
247.0534,247.32541,83,70,0
247.0534,247.32541,86,70,0
247.33119,247.51059,86,70,0
247.51637,247.69577,85,70,0
247.70155,247.88095,83,70,0
247.88675,248.06615,83,70,0
248.07193,248.25133,81,70,0
248.25711,248.43651,79,70,0
248.4423,248.6217,79,70,0
248.62749,248.80688,78,70,0
248.81267,248.99207,76,70,0
248.99785,249.17725,76,70,0
249.18304,249.36244,74,70,0
249.36823,249.54762,73,70,0
249.5534,249.7397,73,70,0
249.74571,249.93562,71,70,0
249.94186,250.13562,69,70,0
250.14188,250.35715,69,70,0
250.36409,250.59239,68,70,0
250.6002,250.84239,67,70,0
250.8502,251.04396,57,70,0
251.0502,251.23701,66,70,0
251.2428,251.4222,62,70,0
251.42798,251.60738,57,70,0
251.61316,251.79256,66,70,0
251.79836,251.97775,62,70,0
251.98354,252.16293,57,70,0
252.16872,252.34811,66,70,0
252.35391,252.53331,62,70,0
252.5391,252.71849,55,70,0
252.72427,252.90367,67,70,0
252.90945,253.08885,62,70,0
253.09465,253.27405,59,70,0
253.27983,253.45923,67,70,0
253.46501,253.64441,64,70,0
253.6502,253.8296,59,70,0
253.83539,254.01479,71,70,0
254.02057,254.19997,67,70,0
254.20575,254.38515,59,70,0
254.39095,254.57034,71,70,0
254.57613,254.75552,67,70,0
254.7613,254.9407,59,70,0
254.9465,255.1259,69,70,0
255.13168,255.31108,66,70,0
255.31686,255.49626,59,70,0
255.50204,255.68144,69,70,0
255.68724,255.86664,66,70,0
255.87242,256.05182,59,70,0
256.05762,256.237,69,70,0
256.2428,256.42218,66,70,0
256.42798,256.60736,59,70,0
256.61316,256.79257,67,70,0
256.79834,256.97775,64,70,0
256.98352,257.16293,59,70,0
257.1687,257.3481,67,70,0
257.3539,257.5333,64,70,0
257.5391,257.71848,59,70,0
257.72427,257.90366,67,73,0
257.90945,258.08887,64,76,0
258.09464,258.27405,59,80,0
258.27982,258.45923,67,83,0
258.465,258.6444,64,87,0
258.6502,258.8296,59,90,0
258.8354,259.01477,67,93,0
259.02057,259.19995,64,97,0
259.20575,259.38516,55,100,0
259.39093,259.57034,67,104,0
259.5761,259.75552,64,107,0
259.7613,260.58884,55,110,0
259.7613,260.58884,61,110,0
259.7613,260.58884,64,110,0
259.7613,260.58884,67,110,0
260.59464,260.86664,78,70,0
260.59464,260.86664,81,70,0
260.8724,261.1444,76,70,0
260.8724,261.1444,79,70,0
261.1502,261.42218,74,70,0
261.1502,261.42218,78,70,0
261.42798,261.69995,73,70,0
261.42798,261.69995,76,70,0
261.70575,261.97775,71,70,0
261.70575,261.97775,74,70,0
261.98352,262.25552,69,70,0
261.98352,262.25552,73,70,0
262.2613,262.5333,67,70,0
262.2613,262.5333,71,70,0
262.5391,262.81107,66,70,0
262.5391,262.81107,69,70,0
262.81686,263.08884,64,70,0
262.81686,263.08884,67,70,0
263.09464,263.36664,62,70,0
263.09464,263.36664,66,70,0
263.3724,263.6444,61,70,0
263.3724,263.6444,64,70,0
263.65018,263.92218,59,70,0
263.65018,263.92218,62,70,0
263.92798,264.19995,57,70,0
263.92798,264.19995,61,70,0
264.20575,264.47772,55,70,0
264.20575,264.47772,59,70,0
264.48352,264.75552,54,70,0
264.48352,264.75552,57,70,0
264.7613,265.04376,52,70,0
264.7613,265.04376,55,70,0
265.04977,265.3322,50,70,0
265.04977,265.3322,54,70,0
265.33823,265.632,49,70,0
265.33823,265.632,52,70,0
265.6382,265.93198,49,70,0
265.6382,265.93198,52,70,0
265.6382,265.93198,55,70,0
265.93823,266.54422,49,70,0
265.93823,266.54422,52,70,0
265.93823,266.54422,55,70,0
266.55072,267.1896,49,70,0
266.55072,267.1896,52,70,0
266.55072,267.1896,55,70,0
267.19656,268.01663,55,70,0
267.19656,268.01663,61,70,0
268.0261,268.85294,53,70,0
268.0261,268.85294,62,70,0
268.85944,269.06125,74,70,0
269.06778,269.2696,75,70,0
269.2761,269.47794,79,70,0
269.48444,269.68625,77,70,0
269.69278,269.8946,74,70,0
269.9011,270.10294,74,70,0
270.10944,270.31125,75,70,0
270.31778,270.5196,72,70,0
270.5261,270.72794,65,70,0
270.73444,270.93625,72,70,0
270.94278,271.1446,74,70,0
271.1511,271.35294,77,70,0
271.35944,271.56125,75,70,0
271.56778,271.7696,72,70,0
271.7761,271.97794,72,70,0
271.98444,272.18625,74,70,0
272.19278,272.3946,70,70,0
272.4011,272.60294,65,70,0
272.60944,272.81125,74,70,0
272.81778,273.0196,75,70,0
273.0261,273.2414,79,70,0
273.24832,273.4636,77,70,0
273.47055,273.68582,74,70,0
273.69278,273.90805,79,70,0
273.91498,274.11984,78,70,0
274.1261,274.31985,74,70,0
274.3261,274.51984,83,70,0
274.5261,274.71985,81,70,0
274.7261,274.91986,78,70,0
274.9261,275.1414,81,70,0
275.14832,275.37662,80,70,0
275.38443,275.62662,79,70,0
275.63443,275.7782,77,70,0
275.70944,275.85318,79,70,0
275.78442,275.9282,77,70,0
275.85944,276.00317,79,70,0
275.93445,276.0782,77,70,0
276.00943,276.1532,79,70,0
276.08444,276.22818,77,70,0
276.15942,276.3032,79,70,0
276.23444,276.37817,77,70,0
276.30945,276.4532,79,70,0
276.38443,276.5282,77,70,0
276.45944,276.60318,79,70,0
276.53442,276.6782,77,70,0
276.60944,276.75317,79,70,0
276.68445,276.8282,77,70,0
276.75943,276.9032,79,70,0
276.83444,276.97818,77,70,0
276.90942,277.0532,79,70,0
276.98444,277.12817,77,70,0
277.05945,277.2032,79,70,0
277.13443,277.2782,77,70,0
277.20944,277.35318,79,70,0
277.28442,277.4282,77,70,0
277.35944,277.50317,79,70,0
277.43445,277.5782,77,70,0
277.50943,277.6532,79,70,0
277.58444,277.72818,77,70,0
277.65942,277.8032,79,70,0
277.73444,277.87817,77,70,0
277.80945,277.9532,79,70,0
277.88443,278.0282,77,70,0
277.95944,278.10318,79,70,0
278.03442,278.1782,77,70,0
278.10944,278.25317,79,70,0
278.18445,278.3282,77,70,0
278.25943,278.4032,79,70,0
278.33444,278.47818,77,70,0
278.40942,278.5532,79,70,0
278.48444,278.62817,77,70,0
278.55945,278.7032,79,70,0
278.63443,278.7782,77,70,0
278.70944,278.85318,79,70,0
278.78442,278.9282,77,70,0
278.85944,279.00317,79,70,0
278.93445,279.0782,77,70,0
279.00943,279.1532,79,70,0
279.08444,279.22818,77,70,0
279.15942,279.3032,79,70,0
279.23444,279.37817,77,70,0
279.30945,279.4532,79,70,0
279.38443,279.5282,77,70,0
279.45944,279.60318,79,70,0
279.53442,279.6782,77,70,0
279.60944,279.75317,79,70,0
279.68445,279.8282,77,70,0
279.75943,279.90604,79,70,0
279.83444,279.98416,77,70,0
279.91257,280.0623,79,70,0
279.9907,280.1404,77,70,0
280.06882,280.22333,79,70,0
280.14694,280.30667,77,70,0
280.23026,280.38998,79,70,0
280.3136,280.47333,77,70,0
280.39694,280.5621,79,70,0
280.48026,280.6514,77,70,0
280.56955,280.7407,79,70,0
280.65884,280.82996,77,70,0
280.74814,280.92786,79,70,0
280.8374,281.02655,77,70,0
280.9361,281.12524,79,70,0
281.0348,281.2239,77,70,0
281.13345,281.2239,79,70,0
281.23215,281.3759,78,70,0
281.30716,281.4509,79,70,0
281.38214,281.5259,78,71,0
281.45715,281.6009,79,72,0
281.53214,281.6759,78,73,0
281.60715,281.7509,79,74,0
281.68216,281.8259,78,75,0
281.75714,281.9009,79,75,0
281.83215,281.9009,79,76,0
281.90714,282.0509,81,77,0
281.98215,282.1259,79,78,0
282.05716,282.2009,81,79,0
282.13214,282.2759,79,80,0
282.20715,282.3509,81,81,0
282.28214,282.4259,79,81,0
282.35715,282.5009,81,82,0
282.43216,282.5759,79,83,0
282.50714,282.6509,81,84,0
282.58215,282.7259,79,85,0
282.65714,282.8009,81,86,0
282.73215,282.8759,79,87,0
282.80716,282.9509,81,87,0
282.88214,283.0259,79,88,0
283.03214,283.1759,80,90,0
283.10715,283.2509,81,91,0
283.18216,283.3259,80,92,0
283.25714,283.4009,81,93,0
283.33215,283.4759,80,93,0
283.40714,283.5509,81,94,0
283.48215,283.6259,80,95,0
283.63214,283.7759,81,97,0
283.70715,283.8509,83,98,0
283.78214,283.9259,81,98,0
283.85715,284.0009,83,99,0
283.93216,284.0759,81,100,0
284.00714,284.1509,83,101,0
284.08215,284.2259,81,102,0
284.15714,284.3009,83,103,0
284.23215,284.3759,81,104,0
284.30716,284.4509,83,104,0
284.38214,284.5259,81,105,0
284.45715,284.6009,83,106,0
284.53214,284.6759,81,107,0
284.60715,284.7509,83,108,0
284.68216,284.8259,81,109,0
284.75714,284.9009,83,110,0
284.83215,284.9759,81,125,0
284.90714,285.0509,83,117,0
284.98215,285.1259,81,109,0
285.05716,285.2009,83,101,0
285.13214,285.2759,81,100,0
285.20715,285.3509,83,100,0
285.28214,285.4259,81,100,0
285.35715,285.5009,83,100,0
285.43216,285.5759,81,125,0
285.50714,285.6509,83,117,0
285.58215,285.7259,81,109,0
285.65714,285.8009,83,101,0
285.73215,285.8759,81,100,0
285.80716,285.9509,83,100,0
285.88214,286.0259,81,100,0
285.95715,286.1009,83,100,0
286.03214,286.1759,81,125,0
286.10715,286.2509,83,117,0
286.18216,286.3259,81,109,0
286.25714,286.4009,83,101,0
286.33215,286.4759,81,100,0
286.40714,286.5509,83,100,0
286.48215,286.6259,81,100,0
286.55716,286.7009,83,100,0
286.63214,286.7759,81,125,0
286.70715,286.8509,83,117,0
286.78214,286.9259,81,109,0
286.85715,287.0009,83,101,0
286.93216,287.0759,81,100,0
287.00714,287.1509,83,100,0
287.08215,287.2259,81,100,0
287.15714,287.3009,83,100,0
287.23215,287.3759,81,125,0
287.30716,287.4509,83,117,0
287.38214,287.5259,81,109,0
287.45715,287.6009,83,101,0
287.53214,287.6759,81,100,0
287.60715,287.7509,83,100,0
287.68216,287.8259,81,100,0
287.75714,287.9009,83,100,0
287.83215,287.9759,81,125,0
287.90714,288.0509,83,117,0
287.98215,288.1259,81,109,0
288.05716,288.2009,83,101,0
288.13214,288.2759,81,100,0
288.20715,288.3509,83,100,0
288.28214,288.4259,81,100,0
288.35715,288.5009,83,100,0
288.43216,288.5759,81,125,0
288.50714,288.6509,83,117,0
288.58215,288.7259,81,109,0
288.65714,288.8009,83,101,0
288.73215,288.8759,81,100,0
288.80716,288.9509,83,100,0
288.88214,289.0259,81,100,0
288.95715,289.1009,83,100,0
289.03214,289.1759,81,125,0
289.10715,289.2509,83,117,0
289.18216,289.3259,81,109,0
289.25714,289.4009,83,101,0
289.33215,289.4759,81,100,0
289.40714,289.5509,83,100,0
289.48215,289.6259,81,100,0
289.55716,289.7009,83,100,0
289.63214,289.7759,81,125,0
289.70715,289.8509,83,117,0
289.78214,289.9259,81,109,0
289.85715,290.0009,83,101,0
289.93216,290.0759,81,100,0
290.00714,290.1509,83,100,0
290.08215,290.2259,81,100,0
290.15714,290.3009,83,100,0
290.23215,290.3759,81,125,0
290.30716,290.4509,83,117,0
290.38214,290.5259,81,109,0
290.45715,290.6009,83,101,0
290.53214,290.6759,81,100,0
290.60715,290.7509,83,100,0
290.68216,290.8259,81,100,0
290.75714,290.90375,83,100,0
290.83215,290.98187,81,100,0
290.91028,291.06,83,100,0
290.9884,291.13812,81,100,0
291.06653,291.21625,83,100,0
291.14465,291.29437,81,100,0
291.22278,291.3725,83,100,0
291.3009,291.45062,81,100,0
291.37903,291.53354,83,100,0
291.45715,291.61688,82,125,0
291.54047,291.7002,83,117,0
291.6238,291.78354,82,109,0
291.70715,291.8723,83,101,0
291.79047,291.9616,82,100,0
291.87976,292.0509,83,90,0
291.96906,292.14017,82,80,0
292.1476,293.04144,83,70,0
293.04825,293.25885,86,70,0
293.26562,293.47623,83,70,0
293.48303,294.12842,79,70,0
294.1352,294.99796,79,70,0
295.00476,295.21536,83,70,0
295.22214,295.43274,79,70,0
295.43954,296.08493,76,70,0
296.0917,297.38928,71,70,0
297.39606,298.13824,73,70,0
298.14606,298.74103,74,70,0
299.0355,299.31793,74,70,0
299.32394,299.60638,73,70,0
299.6124,299.9184,72,70,0
299.9249,300.12674,71,70,0
300.13324,300.33505,74,70,0
300.34158,300.5434,79,70,0
300.5499,300.8559,71,70,0
301.7999,302.00174,71,70,0
302.00824,302.21005,76,70,0
302.21658,302.4184,79,70,0
302.4249,302.7309,71,70,0
304.2999,304.94528,79,70,0
304.9521,305.69427,79,70,0
305.7021,305.9039,78,70,0
305.9104,306.10474,76,70,0
306.11075,306.29703,74,70,0
306.30304,306.48935,73,70,0
306.49536,306.68164,74,70,0
306.68765,306.87396,76,70,0
306.87997,307.06625,78,70,0
307.07227,307.25858,76,70,0
307.2646,307.45087,74,70,0
307.45688,307.6432,73,70,0
307.6492,307.83548,74,70,0
307.8415,308.0278,76,70,0
308.0338,308.22012,78,70,0
308.2261,308.4124,79,70,0
308.41843,308.60474,81,70,0
308.61075,308.79703,83,70,0
308.80304,308.98935,85,70,0
308.99536,309.18164,86,70,0
309.18765,309.37396,88,70,0
309.37997,309.56985,90,70,0
309.5761,309.76987,91,70,0
309.77612,310.1025,80,70,0
309.77612,310.1025,86,70,0
309.77612,310.1025,92,70,0
310.44278,310.80997,81,70,0
310.44278,310.80997,85,70,0
310.44278,310.80997,93,70,0
311.19278,311.3946,74,70,0
311.19278,311.3946,78,70,0
311.40112,311.59543,73,70,0
311.40112,311.59543,76,70,0
311.60144,311.78775,71,70,0
311.60144,311.78775,74,70,0
311.79373,311.98004,69,70,0
311.79373,311.98004,73,70,0
311.98605,312.17236,71,70,0
311.98605,312.17236,74,70,0
312.17838,312.36465,73,70,0
312.17838,312.36465,76,70,0
312.37067,312.55698,74,70,0
312.37067,312.55698,78,70,0
312.563,312.74927,73,70,0
312.563,312.74927,76,70,0
312.75528,312.9416,71,70,0
312.75528,312.9416,74,70,0
312.9476,313.13388,69,70,0
312.9476,313.13388,73,70,0
313.1399,313.3262,71,70,0
313.1399,313.3262,74,70,0
313.3322,313.5185,73,70,0
313.3322,313.5185,76,70,0
313.5245,313.71082,74,70,0
313.5245,313.71082,78,70,0
313.71683,313.9031,76,70,0
313.71683,313.9031,79,70,0
313.90912,314.09543,78,70,0
313.90912,314.09543,81,70,0
314.10144,314.28775,79,70,0
314.10144,314.28775,83,70,0
314.29373,314.48004,81,70,0
314.29373,314.48004,85,70,0
314.48605,314.67236,83,70,0
314.48605,314.67236,86,70,0
314.67838,314.86465,85,70,0
314.67838,314.86465,88,70,0
314.87067,315.06058,86,70,0
314.87067,315.06058,90,70,0
315.06683,315.26056,88,70,0
315.06683,315.26056,91,70,0
315.2668,315.5793,80,70,0
315.2668,315.5793,86,70,0
315.2668,315.5793,92,70,0
315.90512,316.21762,68,70,0
315.90512,316.21762,80,70,0
316.22427,316.53677,69,71,0
316.22427,316.53677,81,71,0
316.54343,317.12585,83,73,0
316.54343,317.12585,71,73,0
317.13187,317.7028,81,77,0
317.13187,317.7028,69,77,0
317.7088,317.99124,76,81,0
317.7088,317.99124,64,81,0
317.99725,318.27972,78,83,0
317.99725,318.27972,66,83,0
318.28574,318.85663,79,85,0
318.28574,318.85663,67,85,0
318.86264,319.43356,78,89,0
318.86264,319.43356,66,89,0
319.43958,319.72202,73,93,0
319.43958,319.72202,61,93,0
319.72803,320.0105,74,95,0
319.72803,320.0105,62,95,0
320.01648,320.5874,78,97,0
320.01648,320.5874,66,97,0
320.5934,321.16434,76,100,0
320.5934,321.16434,64,100,0
321.17035,321.74124,70,85,0
321.17035,321.74124,58,85,0
321.74725,322.8951,69,70,0
321.74725,322.8951,57,70,0
322.90112,323.0874,57,70,0
323.0934,323.278,64,71,0
323.2839,323.4667,67,72,0
323.4726,323.65536,57,73,0
323.66125,323.84406,64,75,0
323.84995,324.0327,67,76,0
324.03864,324.2214,57,77,0
324.2273,324.4101,64,79,0
324.416,324.59875,67,80,0
324.60468,324.78745,57,81,0
324.79333,324.9745,61,82,0
324.9803,325.15967,64,84,0
325.16547,325.34485,57,85,0
325.35065,325.53003,61,86,0
325.53583,325.71524,64,88,0
325.721,325.90042,57,89,0
325.9062,326.0856,62,90,0
326.09137,326.27078,66,91,0
326.27658,326.45596,57,93,0
326.46176,326.64114,62,94,0
326.64694,326.82632,66,95,0
326.83212,327.01154,57,97,0
327.0173,327.19672,61,98,0
327.20248,327.3819,67,99,0
327.38766,327.56708,57,100,0
327.57288,327.75226,61,90,0
327.75806,327.93744,67,80,0
327.94324,328.12262,61,70,0
328.12842,328.30783,64,70,0
328.3136,328.493,67,70,0
328.49878,328.6782,66,70,0
328.68396,328.86337,62,69,0
328.86917,329.04855,57,68,0
329.05435,329.23373,66,67,0
329.23953,329.4189,62,66,0
329.4247,329.60413,57,64,0
329.6099,329.7893,61,63,0
329.79507,329.9745,64,62,0
329.98026,330.15967,67,61,0
330.16547,330.34485,66,59,0
330.35065,330.53003,62,58,0
330.53583,330.7152,57,57,0
330.721,330.90042,66,56,0
330.9062,331.0856,62,54,0
331.09137,331.27078,57,53,0
331.27655,331.45596,61,52,0
331.46176,331.64114,64,51,0
331.64694,331.82632,67,50,0
331.83212,332.0115,66,50,0
332.0173,332.1967,62,50,0
332.20248,332.3819,57,50,0
332.38766,332.56708,66,50,0
332.57285,332.75226,62,50,0
332.75806,332.93744,57,50,0
332.94324,333.12262,61,50,0
333.12842,333.3078,64,50,0
333.3136,333.49298,67,50,0
333.49878,333.6782,66,50,0
333.68396,333.86337,62,51,0
333.86914,334.04855,60,53,0
334.05435,334.23373,66,55,0
334.23953,334.4189,62,57,0
334.4247,334.6041,60,59,0
334.6099,334.78928,66,61,0
334.79507,334.9745,62,63,0
334.98026,335.15967,59,65,0
335.16544,335.34485,63,66,0
335.35065,335.53003,60,68,0
335.53583,335.7152,55,70,0
335.721,335.9004,63,72,0
335.9062,336.08557,60,74,0
336.09137,336.27078,55,76,0
336.27655,336.45596,62,78,0
336.46173,336.64114,60,80,0
336.64694,336.82632,55,82,0
336.83212,337.0115,60,83,0
337.0173,337.1967,58,85,0
337.20248,337.38187,55,87,0
337.38766,337.57397,60,89,0
337.58,337.76627,58,91,0
337.77228,337.9586,55,93,0
337.9646,338.15836,60,95,0
338.16458,338.36432,58,97,0
338.37097,338.5771,55,99,0
338.58374,339.15573,57,100,0
338.58374,339.15573,60,100,0
339.16153,339.71127,84,70,0
339.16153,339.71127,72,70,0
339.71707,340.26685,85,70,0
339.71707,340.26685,73,70,0
340.2726,341.37796,84,70,0
340.2726,341.37796,72,70,0
341.38373,341.9335,73,70,0
341.38373,341.9335,85,70,0
341.9393,343.04462,84,50,0
341.9393,343.04462,72,50,0
343.0504,343.60016,73,50,0
343.0504,343.60016,85,50,0
343.60596,344.71127,84,50,0
343.60596,344.71127,72,50,0
344.71707,345.26685,73,50,0
344.71707,345.26685,85,50,0
345.2726,346.37796,84,50,0
345.2726,346.37796,72,50,0
346.38373,346.65573,88,50,0
346.38373,346.65573,76,50,0
346.6615,346.9335,89,53,0
346.6615,346.9335,77,53,0
346.9393,347.48904,91,56,0
346.9393,347.48904,79,56,0
347.49484,348.04462,89,62,0
347.49484,348.04462,77,62,0
349.71707,349.98904,81,88,0
349.71707,349.98904,69,88,0
349.99484,350.2668,82,91,0
349.99484,350.2668,70,91,0
350.2726,350.8224,86,94,0
350.2726,350.8224,74,94,0
350.8282,351.37793,84,100,0
350.8282,351.37793,72,100,0
351.38373,351.9335,66,70,0
351.38373,351.9335,78,70,0
351.93927,353.04462,65,70,0
351.93927,353.04462,77,70,0
353.05038,353.60016,66,70,0
353.05038,353.60016,78,70,0
353.60596,354.71127,65,70,0
353.60596,354.71127,77,70,0
354.71707,355.2668,66,70,0
354.71707,355.2668,78,70,0
355.2726,356.37793,65,70,0
355.2726,356.37793,77,70,0
356.38373,356.9335,66,70,0
356.38373,356.9335,78,70,0
356.93927,358.0446,65,70,0
356.93927,358.0446,77,70,0
359.71704,360.2668,69,70,0
359.71704,360.2668,81,70,0
360.2726,361.37793,68,70,0
360.2726,361.37793,80,70,0
363.05038,363.60016,72,70,0
363.05038,363.60016,84,70,0
363.60593,364.71127,71,70,0
363.60593,364.71127,83,70,0
366.3837,366.93347,72,70,0
366.3837,366.93347,84,70,0
366.93927,368.0446,71,70,0
366.93927,368.0446,83,70,0
369.1615,369.34088,64,70,0
369.1615,369.34088,68,70,0
369.34668,369.52606,63,70,0
369.34668,369.52606,66,70,0
369.53186,369.71124,61,70,0
369.53186,369.71124,64,70,0
369.71704,369.90698,59,70,0
369.71704,369.90698,63,70,0
369.91312,370.11307,61,70,0
369.91312,370.11307,64,70,0
370.11984,370.33044,63,70,0
370.11984,370.33044,66,70,0
370.33725,370.98264,64,70,0
370.33725,370.98264,68,70,0
370.9894,371.16882,68,70,0
371.1746,371.354,66,70,0
371.3598,371.53918,64,70,0
371.54498,371.72437,63,70,0
371.73016,371.90955,64,70,0
371.91534,372.09476,66,70,0
372.10052,372.6503,68,70,0
372.6561,372.83548,64,70,0
372.6561,372.83548,68,70,0
372.84128,373.02066,63,70,0
372.84128,373.02066,66,70,0
373.02646,373.20584,61,70,0
373.02646,373.20584,64,70,0
373.21164,373.39102,59,70,0
373.21164,373.39102,63,70,0
373.39682,373.57623,61,70,0
373.39682,373.57623,64,70,0
373.582,373.7614,63,70,0
373.582,373.7614,66,70,0
373.76718,373.9466,64,70,0
373.76718,373.9466,68,70,0
373.9524,374.13177,66,70,0
373.9524,374.13177,69,70,0
374.13757,374.31696,64,70,0
374.13757,374.31696,68,70,0
374.32275,374.50903,66,70,0
374.32275,374.50903,69,70,0
374.51505,374.70135,68,70,0
374.51505,374.70135,71,70,0
374.70737,374.89368,66,70,0
374.70737,374.89368,69,70,0
374.89966,375.0934,68,70,0
374.89966,375.0934,71,70,0
375.09967,375.2994,69,70,0
375.09967,375.2994,72,70,0
375.30606,375.51218,68,70,0
375.30606,375.51218,71,70,0
375.51883,376.15048,69,70,0
375.51883,376.15048,72,70,0
376.1571,376.33652,81,70,0
376.1571,376.33652,84,70,0
376.34232,376.5217,80,70,0
376.34232,376.5217,83,70,0
376.5275,376.70688,78,70,0
376.5275,376.70688,81,70,0
376.71268,376.89206,76,70,0
376.71268,376.89206,80,70,0
376.89786,377.07727,78,70,0
376.89786,377.07727,81,70,0
377.08304,377.26245,80,70,0
377.08304,377.26245,83,70,0
377.26822,377.818,81,70,0
377.26822,377.818,84,70,0
377.8238,378.00317,72,70,0
378.00897,378.18835,71,70,0
378.19415,378.37357,69,70,0
378.37933,378.55875,68,70,0
378.5645,378.74393,69,70,0
378.7497,378.9291,71,70,0
378.9349,379.48465,72,70,0
379.49045,379.66983,81,70,0
379.49045,379.66983,84,70,0
379.67563,379.85504,80,70,0
379.67563,379.85504,83,70,0
379.8608,380.04022,78,70,0
379.8608,380.04022,81,70,0
380.046,380.2254,76,70,0
380.046,380.2254,80,70,0
380.2312,380.41058,78,70,0
380.2312,380.41058,81,70,0
380.41638,380.59576,80,70,0
380.41638,380.59576,83,70,0
380.60156,380.78784,81,70,0
380.60156,380.78784,84,70,0
380.79385,380.98016,83,70,0
380.79385,380.98016,86,70,0
380.98618,381.1725,81,70,0
380.98618,381.1725,84,70,0
381.17847,381.37222,83,70,0
381.17847,381.37222,86,70,0
381.37848,381.57224,84,70,0
381.37848,381.57224,88,70,0
381.5785,381.77222,83,70,0
381.5785,381.77222,86,70,0
381.77847,381.98032,85,70,0
381.77847,381.98032,88,70,0
381.98682,382.19516,86,70,0
381.98682,382.19516,89,70,0
382.2021,382.41736,85,70,0
382.2021,382.41736,88,70,0
382.42432,383.08405,89,70,0
382.42432,383.08405,86,70,0
383.09097,383.2704,74,70,0
383.09097,383.2704,77,70,0
383.27615,383.45557,73,70,0
383.27615,383.45557,76,70,0
383.46136,383.64075,71,70,0
383.46136,383.64075,74,70,0
383.64655,383.82593,69,70,0
383.64655,383.82593,73,70,0
383.83173,384.0111,71,70,0
383.83173,384.0111,74,70,0
384.0169,384.1963,73,70,0
384.0169,384.1963,76,70,0
384.2021,384.75186,74,70,0
384.2021,384.75186,77,70,0
384.75763,384.93704,65,70,0
384.94284,385.12222,64,70,0
385.12802,385.3074,62,70,0
385.3132,385.49258,61,70,0
385.49838,385.6778,62,70,0
385.68356,385.86298,64,70,0
385.86874,386.41852,65,70,0
386.42432,386.6037,74,70,0
386.42432,386.6037,77,70,0
386.6095,386.78888,73,70,0
386.6095,386.78888,76,70,0
386.79468,386.9741,71,70,0
386.79468,386.9741,74,70,0
386.97986,387.15927,69,70,0
386.97986,387.15927,73,70,0
387.16504,387.34445,71,70,0
387.16504,387.34445,74,70,0
387.35022,387.52963,73,70,0
387.35022,387.52963,76,70,0
387.53543,387.7148,74,70,0
387.53543,387.7148,78,70,0
387.7206,387.9,76,70,0
387.7206,387.9,79,70,0
387.9058,388.08517,74,70,0
387.9058,388.08517,78,70,0
388.09097,388.2704,76,70,0
388.09097,388.2704,79,70,0
388.27615,388.45557,78,70,0
388.27615,388.45557,81,70,0
388.46133,388.64075,76,70,0
388.46133,388.64075,79,70,0
388.6465,388.82593,78,70,0
388.6465,388.82593,81,70,0
388.83173,389.0111,79,70,0
388.83173,389.0111,83,70,0
389.0169,389.1963,78,70,0
389.0169,389.1963,81,70,0
389.2021,389.38147,78,70,0
389.2021,389.38147,81,70,0
389.38727,389.56668,79,70,0
389.38727,389.56668,83,70,0
389.57245,389.75186,78,70,0
389.57245,389.75186,81,70,0
389.75763,389.93704,78,70,0
389.75763,389.93704,81,70,0
389.9428,390.12222,79,70,0
389.9428,390.12222,83,70,0
390.12802,390.3074,78,70,0
390.12802,390.3074,81,70,0
390.3132,390.49258,78,70,0
390.3132,390.49258,81,70,0
390.49838,390.67776,79,70,0
390.49838,390.67776,83,70,0
390.68356,390.86298,78,70,0
390.68356,390.86298,81,70,0
390.86874,391.04816,76,70,0
390.86874,391.04816,79,70,0
391.05392,391.23334,78,70,0
391.05392,391.23334,81,70,0
391.2391,391.41852,76,71,0
391.2391,391.41852,79,71,0
391.42432,391.6037,76,72,0
391.42432,391.6037,79,72,0
391.6095,391.78888,78,73,0
391.6095,391.78888,81,73,0
391.79468,391.97406,76,74,0
391.79468,391.97406,79,74,0
391.97986,392.15927,76,75,0
391.97986,392.15927,79,75,0
392.16504,392.34445,78,76,0
392.16504,392.34445,81,76,0
392.35022,392.52963,76,77,0
392.35022,392.52963,79,77,0
392.5354,392.7148,76,77,0
392.5354,392.7148,79,77,0
392.7206,392.9,78,78,0
392.7206,392.9,81,78,0
392.9058,393.08517,76,79,0
392.9058,393.08517,79,79,0
393.09097,393.27374,76,80,0
393.09097,393.27374,79,80,0
393.27966,393.46243,78,81,0
393.27966,393.46243,81,81,0
393.46832,393.65112,76,82,0
393.46832,393.65112,79,82,0
393.657,393.8433,76,83,0
393.657,393.8433,79,83,0
393.8493,394.0392,78,84,0
393.8493,394.0392,81,84,0
394.04547,394.23923,76,85,0
394.04547,394.23923,79,85,0
394.24545,394.4392,78,85,0
394.24545,394.4392,81,85,0
394.44547,394.6339,79,86,0
394.44547,394.6339,83,86,0
394.6398,394.8226,78,87,0
394.6398,394.8226,81,87,0
394.8285,395.0046,78,88,0
394.8285,395.0046,81,88,0
395.0103,395.18643,79,89,0
395.0103,395.18643,83,89,0
395.1921,395.36826,78,90,0
395.1921,395.36826,81,90,0
395.37393,395.55008,78,91,0
395.37393,395.55008,81,91,0
395.55576,395.7319,79,92,0
395.55576,395.7319,83,92,0
395.73758,395.91373,78,93,0
395.73758,395.91373,81,93,0
395.9194,396.09552,79,93,0
395.9194,396.09552,83,93,0
396.10123,396.27734,81,94,0
396.10123,396.27734,84,94,0
396.28302,396.45917,79,95,0
396.28302,396.45917,83,95,0
396.46484,396.641,79,96,0
396.46484,396.641,83,96,0
396.64667,396.8228,81,97,0
396.64667,396.8228,84,97,0
396.8285,397.0046,79,98,0
396.8285,397.0046,83,98,0
397.0103,397.18643,79,99,0
397.0103,397.18643,83,99,0
397.1921,397.36826,81,100,0
397.1921,397.36826,84,100,0
397.37393,397.55008,79,100,0
397.37393,397.55008,83,100,0
397.55576,397.7319,81,110,0
397.55576,397.7319,84,110,0
397.73758,397.9137,83,110,0
397.73758,397.9137,86,110,0
397.9194,398.09552,81,110,0
397.9194,398.09552,84,110,0
398.1012,398.27734,81,110,0
398.1012,398.27734,84,110,0
398.28302,398.45917,83,110,0
398.28302,398.45917,86,110,0
398.46484,398.641,81,110,0
398.46484,398.641,84,110,0
398.64667,398.8228,81,110,0
398.64667,398.8228,84,110,0
398.8285,399.0046,83,110,0
398.8285,399.0046,86,110,0
399.0103,399.18643,81,110,0
399.0103,399.18643,84,110,0
399.1921,399.3749,84,70,0
399.1921,399.3749,90,70,0
399.3808,399.56357,86,70,0
399.3808,399.56357,91,70,0
399.5695,399.75226,84,70,0
399.5695,399.75226,90,70,0
399.75815,399.94095,84,70,0
399.75815,399.94095,90,70,0
399.94684,400.1296,86,70,0
399.94684,400.1296,91,70,0
400.13553,400.3183,84,70,0
400.13553,400.3183,90,70,0
400.3242,400.52188,84,70,0
400.3242,400.52188,90,70,0
400.52826,400.73447,86,70,0
400.52826,400.73447,91,70,0
400.74142,400.9567,84,70,0
400.74142,400.9567,90,70,0
400.96365,401.14642,81,110,0
400.96365,401.14642,84,110,0
401.1523,401.33188,83,110,0
401.1523,401.33188,86,110,0
401.3376,401.5137,81,110,0
401.3376,401.5137,84,110,0
401.51938,401.69553,81,110,0
401.51938,401.69553,84,110,0
401.7012,401.87735,83,110,0
401.7012,401.87735,86,110,0
401.88303,402.05917,81,110,0
401.88303,402.05917,84,110,0
402.06485,402.241,81,110,0
402.06485,402.241,84,110,0
402.24667,402.4228,83,110,0
402.24667,402.4228,86,110,0
402.4285,402.6046,81,110,0
402.4285,402.6046,84,110,0
402.6103,402.7897,84,70,0
402.6103,402.7897,90,70,0
402.79547,402.97488,86,70,0
402.79547,402.97488,91,70,0
402.98068,403.16006,84,70,0
402.98068,403.16006,90,70,0
403.16586,403.34525,84,70,0
403.16586,403.34525,90,70,0
403.35104,403.53043,86,70,0
403.35104,403.53043,91,70,0
403.53622,403.71564,84,70,0
403.53622,403.71564,90,70,0
403.7214,403.90082,83,70,0
403.7214,403.90082,88,70,0
403.9066,404.086,84,70,0
403.9066,404.086,90,70,0
404.09177,404.27118,83,70,0
404.09177,404.27118,88,70,0
404.27698,404.45636,81,70,0
404.27698,404.45636,86,70,0
404.46216,404.64154,83,70,0
404.46216,404.64154,88,70,0
404.64734,404.82672,81,70,0
404.64734,404.82672,86,70,0
404.83252,405.01193,81,70,0
404.83252,405.01193,86,70,0
405.0177,405.1971,83,70,0
405.0177,405.1971,88,70,0
405.20288,405.3823,81,70,0
405.20288,405.3823,86,70,0
405.38806,405.56747,79,70,0
405.38806,405.56747,84,70,0
405.57327,405.75266,81,70,0
405.57327,405.75266,86,70,0
405.75845,405.93784,79,70,0
405.75845,405.93784,84,70,0
405.94363,406.12302,84,70,0
405.94363,406.12302,79,70,0
406.1288,406.30823,86,70,0
406.1288,406.30823,78,70,0
406.314,406.4934,84,70,0
406.314,406.4934,79,70,0
406.49918,406.6786,86,70,0
406.49918,406.6786,78,70,0
406.68436,406.86377,84,70,0
406.68436,406.86377,79,70,0
406.86957,407.04895,86,70,0
406.86957,407.04895,78,70,0
407.05475,407.23413,84,70,0
407.05475,407.23413,79,70,0
407.23993,407.4193,86,70,0
407.23993,407.4193,78,70,0
407.4251,407.60452,84,70,0
407.4251,407.60452,79,70,0
407.6103,407.7897,86,70,0
407.6103,407.7897,78,70,0
407.79547,407.97488,84,70,0
407.79547,407.97488,79,70,0
407.98065,408.16006,86,70,0
407.98065,408.16006,78,70,0
408.16586,408.3558,84,70,0
408.16586,408.3558,79,70,0
408.36194,408.55762,86,70,0
408.36194,408.55762,78,70,0
408.56415,408.76596,84,70,0
408.56415,408.76596,81,70,0
408.77246,408.9222,83,70,0
408.8506,409.00034,84,70,0
408.9287,409.07846,83,70,0
409.00684,409.1566,84,70,0
409.08496,409.2347,83,70,0
409.1631,409.31284,84,70,0
409.2412,409.39096,83,70,0
409.31934,409.39096,84,70,0
410.64746,410.7972,83,70,0
410.7256,410.87534,84,70,0
410.8037,410.95346,83,70,0
410.88184,411.0316,84,70,0
410.95996,411.1097,83,70,0
411.0381,411.18784,84,70,0
411.1162,411.26596,83,70,0
411.19434,411.26596,84,70,0
412.52246,412.6722,71,70,0
412.6006,412.75034,72,70,0
412.6787,412.82846,71,70,0
412.75684,412.9066,72,70,0
412.83496,412.9847,71,70,0
412.9131,413.06284,72,70,0
412.9912,413.14096,71,70,0
413.06934,413.14096,72,70,0
413.14746,413.45346,76,70,0
413.45996,413.76596,74,70,0
413.77246,414.39096,71,70,0
415.02246,416.26596,50,70,0
415.02246,416.26596,55,70,0
415.02246,416.26596,59,70,0
416.27246,416.41623,71,70,0
416.34747,416.4912,72,70,0
416.42245,416.56622,71,70,0
416.49747,416.6412,72,70,0
416.57248,416.71622,71,70,0
416.64746,416.79123,72,70,0
416.72247,416.8662,71,70,0
416.79745,416.8662,72,70,0
416.87247,417.16623,76,70,0
417.17245,417.46622,74,70,0
417.47247,418.06622,66,70,0
418.07248,418.37845,69,70,0
418.38498,418.71136,67,70,0
418.7183,420.04468,62,70,0
420.05164,420.35764,67,70,0
420.36414,420.6579,71,70,0
420.66412,420.9579,74,70,0
420.96414,421.25787,79,70,0
421.26413,421.5579,83,70,0
421.56415,421.85788,86,70,0
421.86414,422.16696,83,70,0
422.1734,422.4927,79,70,0
422.4995,422.8333,78,70,0
422.8404,423.20758,81,70,0
423.2154,423.95758,79,70,0
425.8404,425.98416,58,70,0
425.9154,426.05914,60,70,0
425.99042,426.13416,58,70,0
426.0654,426.20917,60,70,0
426.1404,426.28415,58,70,0
426.2154,426.35916,60,70,0
426.2904,426.43414,58,70,0
426.36542,426.43414,60,70,0
426.4404,426.73416,63,70,0
426.74042,427.03415,62,70,0
427.0404,427.63416,56,70,0
427.0404,427.63416,58,70,0
427.6404,428.2225,55,70,0
427.6404,428.2225,58,70,0
428.22864,428.82874,55,70,0
428.22864,428.82874,58,70,0
428.83527,429.45374,56,70,0
428.83527,429.45374,58,70,0
429.46027,429.76624,55,70,0
429.46027,429.76624,58,70,0
429.77277,430.07874,55,70,0
430.08527,430.73065,53,70,0
430.73743,431.4796,55,70,0
431.48743,431.8138,58,70,0
431.82077,432.13327,63,70,0
432.13992,432.43967,67,70,0
432.44604,432.7458,70,70,0
432.75217,433.0519,75,70,0
433.0583,433.35803,79,70,0
433.3644,433.66415,75,70,0
433.67053,433.97028,70,70,0
433.97665,434.2764,67,70,0
434.28278,434.5765,70,70,0
434.58276,434.87653,75,70,0
434.88278,435.1765,79,70,0
435.18277,435.47653,75,70,0
435.48276,435.77652,70,70,0
435.78278,436.0765,67,70,0
436.08276,436.37076,70,70,0
436.3769,436.6649,75,70,0
436.671,436.95898,79,70,0
436.96512,437.2531,75,70,0
437.25925,437.54724,70,70,0
437.55334,437.84134,67,70,0
437.84747,438.1299,70,70,0
438.13593,438.4184,75,70,0
438.4244,438.70685,79,70,0
438.71286,438.9953,75,70,0
439.0013,439.28378,70,70,0
439.2898,439.57224,67,70,0
439.57825,439.8607,70,70,0
439.8667,440.14917,75,70,0
440.15515,440.43762,79,70,0
440.44363,440.72607,82,70,0
440.7321,441.01453,82,70,0
441.02054,441.303,80,70,0
441.30902,441.58612,79,70,0
441.59204,441.86914,77,70,0
441.87506,442.15216,75,70,0
442.15808,442.43518,74,70,0
442.44107,442.7182,72,70,0
442.7241,443.00122,70,70,0
443.0071,443.28424,68,70,0
443.29013,443.56726,67,70,0
443.57315,443.85028,65,70,0
443.85617,444.14993,63,70,0
444.1562,444.47546,62,70,0
444.48227,445.08548,60,70,0
444.48227,445.08548,63,70,0
445.09137,445.3685,60,76,0
445.09137,445.3685,63,76,0
445.3744,445.65152,60,79,0
445.3744,445.65152,63,79,0
445.6574,445.93454,60,82,0
445.6574,445.93454,63,82,0
445.94043,446.21756,60,85,0
445.94043,446.21756,63,85,0
446.22345,446.50058,58,88,0
446.22345,446.50058,62,88,0
446.50647,446.78357,62,91,0
446.50647,446.78357,65,91,0
446.7895,447.0666,62,94,0
446.7895,447.0666,65,94,0
447.0725,447.3496,62,97,0
447.0725,447.3496,65,97,0
447.35553,447.64926,62,100,0
447.35553,447.64926,65,100,0
447.65552,447.9819,62,85,0
447.65552,447.9819,65,85,0
447.98886,449.9819,63,70,0
447.98886,449.9819,67,70,0
449.98886,450.31525,75,70,0
449.98886,450.31525,79,70,0
450.32217,450.61594,77,70,0
450.6222,450.8993,75,73,0
450.6222,450.8993,77,73,0
450.9052,451.1823,75,76,0
450.9052,451.1823,77,76,0
451.18823,451.46533,75,80,0
451.18823,451.46533,77,80,0
451.47122,451.74835,75,83,0
451.47122,451.74835,77,83,0
451.75424,452.03137,74,87,0
451.75424,452.03137,77,87,0
452.03726,452.3144,77,90,0
452.03726,452.3144,82,90,0
452.32028,452.5974,77,94,0
452.32028,452.5974,82,94,0
452.6033,452.88043,77,97,0
452.6033,452.88043,82,97,0
452.88632,453.18008,77,100,0
452.88632,453.18008,82,100,0
453.18634,453.51273,77,85,0
453.18634,453.51273,82,85,0
453.51965,454.51273,82,70,0
454.51965,454.84604,84,70,0
453.51965,455.51273,79,70,0
454.853,455.51273,82,70,0
455.51965,456.06943,58,110,0
455.51965,456.06943,65,110,0
455.51965,456.06943,68,110,0
457.1863,457.73608,58,110,0
457.1863,457.73608,63,110,0
457.1863,457.73608,67,110,0
459.13077,459.40277,74,70,0
459.13077,459.40277,82,70,0
459.40854,459.68054,74,70,0
459.40854,459.68054,82,70,0
459.6863,459.9583,74,70,0
459.6863,459.9583,82,70,0
459.9641,460.23608,74,70,0
459.9641,460.23608,82,70,0
460.24188,460.51385,74,70,0
460.24188,460.51385,82,70,0
460.51965,461.3472,82,70,0
461.353,461.62497,84,70,0
460.51965,462.18054,75,70,0
461.63077,462.18054,82,70,0
462.4641,462.73608,77,110,0
462.4641,462.73608,80,110,0
462.4641,462.73608,86,110,0
462.74188,463.01385,77,110,0
462.74188,463.01385,80,110,0
462.74188,463.01385,86,110,0
463.01965,463.29166,77,110,0
463.01965,463.29166,80,110,0
463.01965,463.29166,86,110,0
463.29742,463.56943,77,110,0
463.29742,463.56943,80,110,0
463.29742,463.56943,86,110,0
463.5752,463.8472,77,110,0
463.5752,463.8472,80,110,0
463.5752,463.8472,86,110,0
463.853,464.68054,79,110,0
463.853,464.68054,87,110,0
464.6863,464.9583,89,110,0
464.6863,464.9583,81,110,0
464.96408,465.51385,79,110,0
464.96408,465.51385,87,110,0
465.51965,466.3472,79,110,0
465.51965,466.3472,82,110,0
466.353,466.62497,81,110,0
466.353,466.62497,84,110,0
466.63077,467.18054,79,95,0
466.63077,467.18054,82,95,0
467.1863,467.36572,81,70,0
467.1863,467.36572,78,70,0
467.3715,467.5509,73,70,0
467.55667,467.73608,74,70,0
467.74188,467.92126,76,70,0
467.92706,468.10645,78,70,0
468.11224,468.29163,79,70,0
468.29742,468.47684,80,70,0
468.4826,468.66202,81,70,0
468.6678,468.8472,82,70,0
468.85297,469.40274,83,70,0
469.40854,470.51385,84,70,0
470.51965,470.69904,81,70,0
470.70483,470.88422,73,70,0
470.89,471.06943,74,70,0
471.0752,471.2546,76,70,0
471.26038,471.4398,78,70,0
471.44556,471.62497,79,70,0
471.63077,471.81015,80,70,0
471.81595,471.99533,81,70,0
472.00113,472.1805,82,70,0
472.1863,472.73608,83,70,0
472.74185,473.8472,84,70,0
473.85297,474.03238,81,70,0
474.03815,474.21756,73,70,0
474.22336,474.40274,74,70,0
474.40854,474.58792,76,70,0
474.59372,474.7731,78,70,0
474.7789,474.9583,79,70,0
474.96408,475.1435,80,70,0
475.14926,475.32867,81,70,0
475.33444,475.51385,83,70,0
475.51965,475.69904,84,70,0
475.70483,475.88422,83,70,0
475.89,476.0694,81,70,0
476.0752,476.2546,88,70,0
476.26038,476.4398,86,70,0
476.44556,476.62497,84,70,0
476.63074,476.81015,83,70,0
476.81595,476.99533,81,70,0
477.00113,477.1805,79,70,0
477.1863,477.3657,78,70,0
477.3715,477.55087,76,70,0
477.55667,477.73608,74,70,0
477.74185,477.92126,72,70,0
477.92703,478.10645,71,70,0
478.11224,478.29163,69,70,0
478.29742,478.4768,67,70,0
478.4826,478.662,66,70,0
478.6678,478.84717,64,70,0
478.85297,479.03238,62,70,0
479.03815,479.21756,66,70,0
479.22333,479.40274,69,70,0
479.40854,479.59482,74,70,0
479.60083,479.79074,78,70,0
479.797,479.99072,81,70,0
479.99698,480.2031,86,70,0
480.20975,480.42267,84,70,0
480.42978,480.64993,83,70,0
480.65704,480.9508,83,70,0
481.09595,481.22903,84,70,0
481.23483,482.34015,86,70,0
482.34592,482.61792,84,70,0
482.34592,482.61792,88,70,0
482.7626,482.8957,86,70,0
482.7626,482.8957,90,70,0
482.9015,484.0068,88,70,0
482.9015,484.0068,91,70,0
484.0126,484.28458,79,70,0
484.42926,484.56238,80,70,0
484.56815,484.84015,81,70,0
484.98483,485.11792,80,70,0
485.12372,485.3957,81,70,0
485.54037,485.67346,80,70,0
485.54037,485.67346,83,70,0
485.67926,486.22903,80,70,0
485.67926,486.22903,83,70,0
486.2348,487.34015,81,70,0
486.2348,487.34015,84,70,0
487.34592,487.61792,81,70,0
487.34592,487.61792,84,70,0
487.7626,487.8957,83,77,0
487.7626,487.8957,86,77,0
487.9015,489.0068,84,80,0
487.9015,489.0068,88,80,0
489.0126,489.28458,86,100,0
489.0126,489.28458,90,100,0
489.42926,489.56235,88,108,0
489.42926,489.56235,91,108,0
489.56815,490.3957,93,110,0
489.56815,490.3957,90,110,0
490.4015,490.67346,88,70,0
490.4015,490.67346,91,70,0
490.67926,490.85864,91,70,0
490.86444,491.04385,90,70,0
491.04962,491.22903,88,70,0
491.2348,491.4142,88,70,0
491.41998,491.5994,86,70,0
491.6052,491.78458,84,70,0
491.79037,491.96976,84,70,0
491.97556,492.15494,83,70,0
492.16074,492.34015,81,70,0
492.34592,492.52533,81,70,0
492.5311,492.71384,79,70,0
492.71985,492.90616,78,70,0
492.91217,493.1059,66,70,0
492.91217,493.1059,78,70,0
493.11215,493.3098,64,70,0
493.11215,493.3098,76,70,0
493.3163,493.51816,62,70,0
493.3163,493.51816,74,70,0
493.52466,493.73993,62,70,0
493.7469,493.9752,64,70,0
493.983,494.2252,66,70,0
494.233,494.42676,67,70,0
494.43298,494.6198,62,70,0
494.62558,494.805,60,70,0
494.81076,494.99017,59,70,0
494.99594,495.17535,67,70,0
495.18115,495.36053,62,70,0
495.36633,495.54572,59,70,0
495.5515,495.7309,67,70,0
495.7367,495.9161,62,70,0
495.92188,496.1013,60,70,0
496.10706,496.28647,67,70,0
496.29224,496.47165,64,70,0
496.47745,496.65683,64,70,0
496.66263,496.842,72,70,0
496.8478,497.0272,67,70,0
497.033,497.2124,67,70,0
497.21817,497.39758,76,70,0
497.40335,497.58276,72,70,0
497.58853,497.76794,64,70,0
497.77374,497.95312,76,70,0
497.95892,498.1383,72,70,0
498.1441,498.3235,64,70,0
498.32928,498.5087,74,70,0
498.51447,498.69388,71,70,0
498.69965,498.87906,64,70,0
498.88483,499.06424,74,70,0
499.07004,499.24942,71,70,0
499.25522,499.4346,64,70,0
499.4404,499.61978,74,70,0
499.62558,499.805,71,70,0
499.81076,499.99017,64,70,0
499.99594,500.17535,72,70,0
500.18112,500.36053,69,70,0
500.36633,500.54572,64,70,0
500.5515,500.7309,72,70,0
500.7367,500.91608,69,70,0
500.92188,501.1013,64,70,0
501.10706,501.28647,72,73,0
501.29224,501.47165,69,76,0
501.47742,501.65683,60,80,0
501.66263,501.842,72,83,0
501.8478,502.0272,69,87,0
502.033,502.21237,60,90,0
502.21817,502.39758,72,93,0
502.40335,502.58276,69,97,0
502.58853,502.76794,60,100,0
502.7737,502.95312,72,104,0
502.95892,503.1383,69,107,0
503.1441,503.97165,60,110,0
503.1441,503.97165,66,110,0
503.1441,503.97165,69,110,0
503.1441,503.97165,72,110,0
503.97742,504.24942,71,70,0
503.97742,504.24942,74,70,0
504.25522,504.5272,69,70,0
504.25522,504.5272,72,70,0
504.533,504.80496,79,70,0
504.533,504.80496,83,70,0
504.81076,505.08276,78,70,0
504.81076,505.08276,81,70,0
505.08853,505.36053,76,70,0
505.08853,505.36053,79,70,0
505.3663,505.6383,74,70,0
505.3663,505.6383,78,70,0
505.6441,505.91608,72,70,0
505.6441,505.91608,76,70,0
505.92188,506.19385,71,70,0
505.92188,506.19385,74,70,0
506.19965,506.47165,69,70,0
506.19965,506.47165,72,70,0
506.47742,506.74942,67,70,0
506.47742,506.74942,71,70,0
506.75522,507.0272,66,70,0
506.75522,507.0272,69,70,0
507.033,507.30496,64,70,0
507.033,507.30496,67,70,0
507.31076,507.58276,62,70,0
507.31076,507.58276,66,70,0
507.58853,507.86053,60,70,0
507.58853,507.86053,64,70,0
507.8663,508.1383,59,70,0
507.8663,508.1383,62,70,0
508.1441,508.42654,57,70,0
508.1441,508.42654,60,70,0
508.43256,508.715,55,70,0
508.43256,508.715,60,70,0
508.721,509.31476,54,70,0
508.721,509.31476,57,70,0
508.721,509.31476,60,70,0
509.321,509.927,54,70,0
509.321,509.927,60,70,0
509.9335,510.5724,54,70,0
509.9335,510.5724,60,70,0
509.9335,510.5724,66,70,0
510.57935,511.3994,54,70,0
510.57935,511.3994,60,70,0
510.57935,511.3994,66,70,0
511.4089,512.29083,55,70,0
511.4089,512.29083,58,70,0
511.4089,512.29083,67,70,0
512.2978,512.51306,79,70,0
512.52,512.7353,80,70,0
512.74225,512.9575,84,70,0
512.9644,513.17975,82,70,0
513.18665,513.4019,79,70,0
513.4089,513.62415,79,70,0
513.6311,513.8464,80,70,0
513.85333,514.0686,77,70,0
514.07556,514.29083,70,70,0
514.2978,514.51306,77,70,0
514.52,514.7353,79,70,0
514.74225,514.9575,82,70,0
514.9644,515.17975,80,70,0
515.18665,515.4019,77,70,0
515.4089,515.62415,77,70,0
515.6311,515.8464,79,70,0
515.85333,516.0686,75,70,0
516.07556,516.2817,70,70,0
516.2883,516.49445,79,70,0
516.5011,516.7072,80,70,0
516.71387,516.9076,84,70,0
516.9139,517.11804,82,70,0
517.12494,517.3402,79,70,0
517.34717,517.549,84,70,0
517.55554,517.7573,83,70,0
517.76385,517.9657,79,70,0
517.97217,518.174,88,70,0
518.18054,518.3823,86,70,0
518.38885,518.5907,83,70,0
518.59717,518.8078,86,70,0
518.8146,519.03485,85,70,0
519.0423,519.27295,84,70,0
519.2804,519.4781,82,70,0
519.38245,519.58014,84,70,0
519.4845,519.6822,82,70,0
519.58655,519.78424,84,70,0
519.6886,519.8863,82,70,0
519.7906,519.98834,84,70,0
519.89264,520.09033,82,70,0
519.9947,520.1924,84,70,0
520.09674,520.29443,82,70,0
520.1988,520.3965,84,70,0
520.30084,520.49854,82,70,0
520.40283,520.6006,84,70,0
520.5049,520.7026,82,70,0
520.60693,520.8046,84,70,0
520.709,520.9067,82,70,0
520.81104,521.0087,84,70,0
520.9131,521.1108,82,70,0
521.0151,521.2128,84,70,0
521.1171,521.3148,82,70,0
521.2192,521.4169,84,70,0
521.3212,521.5189,82,70,0
521.4233,521.621,84,70,0
521.5253,521.723,82,70,0
521.6273,521.8251,84,70,0
521.7294,521.92706,82,70,0
521.8314,522.0291,84,70,0
521.9335,522.13116,82,70,0
522.0355,522.2332,84,70,0
522.1376,522.33527,82,70,0
522.23956,522.4373,84,70,0
522.3416,522.5393,82,70,0
522.44366,522.64136,84,70,0
522.5457,522.7434,82,70,0
522.64777,522.84546,84,70,0
522.7498,522.9475,82,70,0
522.8518,523.04956,84,70,0
522.95386,523.15155,82,70,0
523.0559,523.2536,84,70,0
523.15796,523.35565,82,70,0
523.26,523.4577,84,70,0
523.36206,523.55975,82,70,0
523.46405,523.66583,84,70,0
523.5661,523.7722,82,70,0
523.6725,523.8786,84,70,0
523.7789,523.985,82,70,0
523.88525,524.0914,84,70,0
523.99164,524.19775,82,70,0
524.098,524.3086,84,70,0
524.2044,524.4197,82,70,0
524.31555,524.5308,84,70,0
524.42664,524.64935,82,70,0
524.5378,524.76843,84,70,0
524.6568,524.88745,82,70,0
524.7758,524.88745,84,70,0
524.8949,525.03864,83,70,0
524.9699,525.11365,84,70,0
525.0449,525.18866,83,71,0
525.1199,525.2637,84,71,0
525.1949,525.3386,83,72,0
525.2699,525.41364,84,73,0
525.3449,525.48865,83,73,0
525.4949,525.6387,84,74,0
525.5699,525.7136,86,75,0
525.6449,525.78864,84,76,0
525.7199,525.86365,86,76,0
525.7949,525.93866,84,77,0
525.8699,526.0137,86,78,0
525.9449,526.0886,84,78,0
526.0199,526.16364,86,79,0
526.0949,526.23865,84,79,0
526.1699,526.31366,86,80,0
526.2449,526.3887,84,81,0
526.3199,526.4636,86,81,0
526.3949,526.53864,84,82,0
526.4699,526.61365,86,83,0
526.5449,526.68866,84,83,0
526.6199,526.7637,86,84,0
526.6949,526.8386,85,84,0
526.7699,526.91364,86,85,0
526.8449,526.98865,85,86,0
526.9199,527.06366,86,86,0
526.9949,527.1387,85,87,0
527.0699,527.2136,86,88,0
527.1449,527.28864,85,88,0
527.2949,527.43866,86,89,0
527.3699,527.5137,88,90,0
527.4449,527.5886,86,91,0
527.5199,527.66364,88,91,0
527.5949,527.73865,86,92,0
527.6699,527.81366,88,93,0
527.7449,527.8887,86,93,0
527.8199,527.9636,88,94,0
527.8949,528.03864,86,94,0
527.9699,528.11365,88,95,0
528.0449,528.18866,86,96,0
528.1199,528.2637,88,96,0
528.1949,528.3386,86,97,0
528.2699,528.41364,88,98,0
528.3449,528.48865,86,98,0
528.4199,528.56366,88,99,0
528.4949,528.6387,86,125,0
528.5699,528.7136,88,117,0
528.6449,528.78864,86,109,0
528.7199,528.86365,88,101,0
528.7949,528.93866,86,100,0
528.8699,529.0137,88,100,0
528.9449,529.0886,86,100,0
529.0199,529.16364,88,100,0
529.0949,529.23865,86,125,0
529.1699,529.31366,88,117,0
529.2449,529.3887,86,109,0
529.3199,529.4636,88,101,0
529.3949,529.53864,86,100,0
529.4699,529.61365,88,100,0
529.5449,529.68866,86,100,0
529.6199,529.7637,88,100,0
529.6949,529.8386,86,125,0
529.7699,529.91364,88,117,0
529.8449,529.98865,86,109,0
529.9199,530.06366,88,101,0
529.9949,530.1387,86,100,0
530.0699,530.2136,88,100,0
530.1449,530.28864,86,100,0
530.2199,530.36365,88,100,0
530.2949,530.43866,86,125,0
530.3699,530.5137,88,117,0
530.4449,530.5886,86,109,0
530.5199,530.66364,88,101,0
530.5949,530.73865,86,100,0
530.6699,530.81366,88,100,0
530.7449,530.8887,86,100,0
530.8199,530.9636,88,100,0
530.8949,531.03864,86,125,0
530.9699,531.11365,88,117,0
531.0449,531.18866,86,109,0
531.1199,531.2637,88,101,0
531.1949,531.3386,86,100,0
531.2699,531.41364,88,100,0
531.3449,531.48865,86,100,0
531.4199,531.56366,88,100,0
531.4949,531.6387,86,125,0
531.5699,531.7136,88,117,0
531.6449,531.78864,86,109,0
531.7199,531.86365,88,101,0
531.7949,531.93866,86,100,0
531.8699,532.0137,88,100,0
531.9449,532.0886,86,100,0
532.0199,532.16364,88,100,0
532.0949,532.23865,86,125,0
532.1699,532.31366,88,117,0
532.2449,532.3887,86,109,0
532.3199,532.4636,88,101,0
532.3949,532.53864,86,100,0
532.4699,532.61365,88,100,0
532.5449,532.68866,86,100,0
532.6199,532.7637,88,100,0
532.6949,532.8386,86,125,0
532.7699,532.91364,88,117,0
532.8449,532.98865,86,109,0
532.9199,533.06366,88,101,0
532.9949,533.1387,86,100,0
533.0699,533.2136,88,100,0
533.1449,533.28864,86,100,0
533.2199,533.36365,88,100,0
533.2949,533.43866,86,125,0
533.3699,533.5137,88,117,0
533.4449,533.5886,86,109,0
533.5199,533.66364,88,101,0
533.5949,533.73865,86,100,0
533.6699,533.81366,88,100,0
533.7449,533.8887,86,100,0
533.8199,533.9636,88,100,0
533.8949,534.03864,86,125,0
533.9699,534.11365,88,117,0
534.0449,534.18866,86,109,0
534.1199,534.2637,88,101,0
534.1949,534.3386,86,100,0
534.2699,534.41364,88,100,0
534.3449,534.48865,86,100,0
534.4199,534.5665,88,100,0
534.4949,534.64465,86,100,0
534.573,534.7228,88,100,0
534.6511,534.8009,86,100,0
534.72925,534.879,88,100,0
534.8074,534.95715,86,100,0
534.8855,535.0353,88,100,0
534.9636,535.1134,86,100,0
535.04175,535.1963,88,100,0
535.1199,535.2796,86,125,0
535.20325,535.363,88,119,0
535.28656,535.4463,86,112,0
535.3699,535.5296,88,105,0
535.45325,535.613,87,99,0
535.56433,535.72406,86,90,0
535.6755,535.7796,84,81,0
535.78656,536.6134,88,70,0
536.6199,536.8217,91,70,0
536.82825,537.03,88,70,0
537.03656,537.655,84,70,0
537.66156,538.4884,84,70,0
538.4949,538.6967,88,70,0
538.70325,538.905,84,70,0
538.91156,539.53,81,70,0
539.53656,540.80695,76,70,0
540.8137,541.5559,78,70,0
541.5637,542.18225,79,70,0
542.5012,542.80725,55,70,0
542.8137,543.11975,54,70,0
543.1262,543.43225,53,70,0
543.4387,543.64056,52,70,0
543.6471,543.8489,55,70,0
543.8554,544.05725,60,70,0
544.0637,544.36975,64,70,0
545.3137,545.51556,52,70,0
545.5221,545.7239,57,70,0
545.7304,545.93225,60,70,0
545.9387,546.24475,64,70,0
547.8137,548.4591,69,70,0
547.8137,548.4591,72,70,0
548.4659,549.20807,69,70,0
548.4659,549.20807,72,70,0
549.2159,549.4177,71,70,0
549.42426,549.6185,69,70,0
549.6246,549.81085,67,70,0
549.8169,550.0032,66,70,0
550.00916,550.1955,67,70,0
550.2015,550.38776,69,70,0
550.3938,550.5801,71,70,0
550.5861,550.7724,69,70,0
550.7784,550.9647,67,70,0
550.9707,551.157,66,70,0
551.163,551.346,67,70,0
551.35175,551.5312,69,70,0
551.5369,551.7164,71,70,0
551.7221,551.90155,72,70,0
551.90735,552.08673,74,70,0
552.0925,552.2719,76,70,0
552.2777,552.4571,78,70,0
552.4629,552.6423,76,70,0
552.4629,552.6423,79,70,0
552.6481,552.82745,78,70,0
552.6481,552.82745,81,70,0
552.83325,553.01263,79,70,0
552.83325,553.01263,83,70,0
553.01843,553.1978,81,70,0
553.01843,553.1978,84,70,0
553.2036,553.4974,73,70,0
553.2036,553.4974,79,70,0
553.2036,553.4974,81,70,0
553.2036,553.4974,85,70,0
553.8036,554.13,74,70,0
553.8036,554.13,78,70,0
553.8036,554.13,81,70,0
553.8036,554.13,86,70,0
554.4703,554.66406,79,70,0
554.4703,554.66406,83,70,0
554.6703,554.8571,78,70,0
554.6703,554.8571,81,70,0
554.86285,555.0423,76,70,0
554.86285,555.0423,79,70,0
555.04803,555.2275,74,70,0
555.04803,555.2275,78,70,0
555.2332,555.41266,76,70,0
555.2332,555.41266,79,70,0
555.41846,555.59784,78,70,0
555.41846,555.59784,81,70,0
555.60364,555.783,79,70,0
555.60364,555.783,83,70,0
555.7888,555.9682,78,70,0
555.7888,555.9682,81,70,0
555.974,556.1534,76,70,0
555.974,556.1534,79,70,0
556.1592,556.33856,74,70,0
556.1592,556.33856,78,70,0
556.34436,556.52374,76,70,0
556.34436,556.52374,79,70,0
556.52954,556.7089,78,70,0
556.52954,556.7089,81,70,0
556.7147,556.8941,79,70,0
556.7147,556.8941,83,70,0
556.8999,557.0793,81,70,0
556.8999,557.0793,84,70,0
557.0851,557.26447,83,70,0
557.0851,557.26447,86,70,0
557.27026,557.4497,84,70,0
557.27026,557.4497,88,70,0
557.45544,557.6349,86,70,0
557.45544,557.6349,90,70,0
557.6406,557.82007,88,70,0
557.6406,557.82007,91,70,0
557.8258,558.00525,90,70,0
557.8258,558.00525,93,70,0
558.01105,558.1904,91,70,0
558.01105,558.1904,95,70,0
558.1962,558.3756,84,70,0
558.1962,558.3756,93,70,0
558.1962,558.3756,96,70,0
558.3814,558.6638,85,70,0
558.3814,558.6638,93,70,0
558.3814,558.6638,97,70,0
558.9583,559.2521,85,70,0
558.9583,559.2521,73,70,0
559.2583,559.55206,86,71,0
559.2583,559.55206,74,71,0
559.5583,560.1188,88,73,0
559.5583,560.1188,76,73,0
560.1246,560.6743,86,77,0
560.1246,560.6743,74,77,0
560.6801,560.9521,81,81,0
560.6801,560.9521,69,81,0
560.9579,561.22986,83,83,0
560.9579,561.22986,71,83,0
561.23566,561.7854,84,85,0
561.23566,561.7854,72,85,0
561.7912,562.341,83,89,0
561.7912,562.341,71,89,0
562.3468,562.6188,78,93,0
562.3468,562.6188,66,93,0
562.6246,562.89655,79,95,0
562.6246,562.89655,67,95,0
562.90234,563.4521,83,97,0
562.90234,563.4521,71,97,0
563.4579,564.0076,81,100,0
563.4579,564.0076,69,100,0
564.0134,564.56323,75,70,0
564.0134,564.56323,63,70,0
564.569,565.1188,74,70,0
564.569,565.1188,62,70,0
565.1246,565.30396,71,70,0
565.30975,565.48914,67,71,0
565.49493,565.6743,62,72,0
565.6801,565.8595,62,73,0
565.8653,566.0447,60,74,0
566.0505,566.22986,57,75,0
566.23566,566.41504,50,76,0
566.42084,566.6002,57,78,0
566.606,566.7854,60,79,0
566.7912,566.9706,50,80,0
566.9764,567.1558,57,81,0
567.16156,567.341,60,82,0
567.34674,567.5262,50,83,0
567.532,567.71136,54,84,0
567.71716,567.89655,57,86,0
567.90234,568.0817,50,87,0
568.0875,568.2669,54,88,0
568.2727,568.4521,57,89,0
568.4579,568.63727,50,90,0
568.64307,568.82245,55,91,0
568.82825,569.0076,59,92,0
569.0134,569.1928,50,94,0
569.1986,569.378,55,95,0
569.3838,569.5632,59,96,0
569.569,569.7484,50,97,0
569.75415,569.9336,54,98,0
569.93933,570.1188,60,99,0
570.1246,570.30396,50,100,0
570.30975,570.48914,54,90,0
570.49493,570.6743,60,80,0
570.6801,570.8595,54,70,0
570.8653,571.0447,57,70,0
571.0505,571.22986,60,70,0
571.23566,571.41504,59,70,0
571.42084,571.6002,55,70,0
571.606,571.7854,50,69,0
571.7912,571.9706,59,69,0
571.9764,572.15576,55,68,0
572.16156,572.341,50,67,0
572.34674,572.5262,54,67,0
572.5319,572.71136,57,66,0
572.7171,572.89655,60,66,0
572.90234,573.0817,59,65,0
573.0875,573.2669,55,64,0
573.2727,573.4521,50,64,0
573.4579,573.63727,59,63,0
573.64307,573.82245,55,63,0
573.82825,574.0076,50,62,0
574.0134,574.1928,54,61,0
574.1986,574.378,57,61,0
574.3838,574.5632,60,60,0
574.569,574.74835,59,60,0
574.75415,574.9336,55,60,0
574.93933,575.1188,50,60,0
575.1245,575.30396,59,60,0
575.3097,575.48914,55,60,0
575.49493,575.6743,50,60,0
575.6801,575.8595,54,60,0
575.8653,576.0447,57,60,0
576.0505,576.22986,60,60,0
576.23566,576.5076,59,60,0
576.5134,576.7854,62,60,0
576.7912,577.34094,62,60,0
576.7912,577.34094,74,60,0
577.34674,577.89655,63,60,0
577.34674,577.89655,75,60,0
577.9023,579.0076,62,60,0
577.9023,579.0076,74,60,0
579.0134,579.5632,63,60,0
579.0134,579.5632,75,60,0
579.569,580.6743,62,60,0
579.569,580.6743,74,60,0
580.6801,581.22986,63,60,0
580.6801,581.22986,75,60,0
581.23566,582.3618,62,60,0
581.23566,582.3618,74,60,0
582.36774,582.93866,63,60,0
582.36774,582.93866,75,60,0
582.94464,584.16315,62,60,0
582.94464,584.16315,74,60,0
584.1696,584.32935,76,60,0
584.253,584.4127,77,60,0
584.3363,584.49603,76,60,0
584.4196,584.57935,77,60,0
584.503,584.6627,76,60,0
584.5863,584.74603,77,60,0
584.6696,584.82935,76,60,0
584.753,584.9127,77,60,0
584.8363,585.1627,81,60,0
585.1696,585.49603,79,60,0
585.503,586.1627,76,60,0
586.1696,586.76337,55,60,0
586.1696,586.76337,60,60,0
586.76965,588.0752,55,60,0
586.76965,588.0752,60,60,0
586.76965,588.0752,64,60,0
588.08215,588.2259,76,60,0
588.15717,588.3009,77,60,0
588.2321,588.3759,76,60,0
588.3071,588.45087,77,60,0
588.38214,588.5259,76,60,0
588.45715,588.6009,77,60,0
588.53217,588.6759,76,60,0
588.6071,588.7509,77,60,0
588.6821,588.9759,81,60,0
588.9821,589.2759,79,60,0
589.28217,589.8759,71,60,0
589.88214,590.1759,74,60,0
590.1821,590.4759,72,60,0
590.4821,590.7759,72,60,0
590.78217,591.07587,76,60,0
591.08215,591.3759,79,60,0
591.38214,591.6759,82,60,0
591.6821,591.9759,79,60,0
591.9821,592.2759,76,60,0
592.28217,592.8701,82,60,0
592.58215,593.16425,79,60,0
592.8763,593.4584,76,60,0
593.17035,593.7525,73,60,0
593.4645,594.0466,76,60,0
593.7586,594.0466,79,60,0
594.05273,594.6293,72,60,0
594.34686,594.9177,75,60,0
594.6353,595.20624,78,60,0
594.92377,595.4947,81,60,0
595.2122,595.78314,78,60,0
595.5007,595.78314,75,60,0
595.7891,596.35474,80,60,0
596.07764,596.63776,77,60,0
596.36066,596.9208,74,60,0
596.6437,597.2038,71,60,0
596.92664,597.4868,74,60,0
597.20966,597.4868,77,60,0
597.4927,598.0477,70,60,0
597.7757,598.3255,73,60,0
598.0535,598.6033,76,60,0
598.3313,598.88104,79,60,0
598.6091,599.1588,76,60,0
598.88684,599.1588,73,60,0
599.1646,599.71436,69,60,0
599.4424,599.9921,72,60,0
599.72015,600.26996,75,60,0
599.9979,600.5477,78,60,0
600.2757,600.8255,75,60,0
600.55347,601.1033,72,60,0
600.8313,601.38104,69,60,0
601.1091,601.6588,72,60,0
601.38684,601.9366,75,60,0
601.6646,602.21436,78,60,0
601.9424,602.4921,75,60,0
602.22015,602.76996,72,60,0
602.4979,603.0477,69,60,0
602.7757,603.3255,72,60,0
603.05347,603.6033,75,60,0
603.3313,603.88104,78,60,0
603.6091,604.1588,75,60,0
603.88684,604.4366,72,60,0
604.1646,604.71436,69,60,0
604.4424,604.9921,72,60,0
604.72015,605.2699,75,60,0
604.9979,605.5477,78,60,0
605.2757,605.8255,69,60,0
605.55347,605.8255,76,60,0
605.8313,606.38104,69,60,0
606.1091,606.6588,76,60,0
606.38684,606.9366,79,60,0
606.6646,607.21436,81,60,0
606.9424,607.4921,79,60,0
607.22015,607.7699,76,60,0
607.4979,608.0477,69,60,0
607.7757,608.3255,76,60,0
608.05347,608.6033,79,60,0
608.33124,608.88104,81,60,0
608.6091,609.1588,79,60,0
608.88684,609.4366,76,60,0
609.1646,609.71436,69,60,0
609.4424,609.9921,76,60,0
609.72015,610.2699,79,60,0
609.9979,610.5477,81,60,0
610.2757,610.8255,79,60,0
610.55347,611.1033,76,60,0
610.83124,611.38104,69,60,0
611.1091,611.6588,76,60,0
611.38684,611.9366,79,60,0
611.6646,612.21436,81,60,0
611.9424,612.4921,71,60,0
612.22015,612.4921,79,60,0
612.7757,613.3255,74,61,0
613.05347,613.6033,79,63,0
612.4979,614.1588,71,60,0
613.609,614.1588,79,66,0
613.88684,614.4366,74,68,0
613.33124,614.9921,83,65,0
614.4424,614.9921,74,71,0
614.72015,615.2699,79,73,0
614.1646,615.8255,71,70,0
615.2757,615.8255,79,76,0
615.55347,616.1033,74,78,0
614.9979,616.6588,83,75,0
616.109,616.6588,74,82,0
616.38684,616.9366,79,83,0
615.83124,617.4921,71,80,0
616.9424,617.4921,79,87,0
617.22015,617.7699,74,88,0
616.6646,618.32544,83,85,0
617.7757,618.32544,74,92,0
618.05347,618.6033,79,93,0
617.4979,619.1588,71,90,0
618.609,619.1588,79,97,0
618.88684,619.4366,74,99,0
618.33124,620.0026,83,95,0
619.4424,620.0026,74,102,0
619.72015,620.30237,79,104,0
619.1646,621.00916,71,100,0
620.0086,621.00916,83,105,0
620.3086,621.00916,79,107,0
620.64197,621.00916,74,109,0
621.01697,621.1607,83,110,0
621.16693,621.31067,67,60,0
621.31696,621.4607,69,60,0
621.4669,621.6107,72,60,0
621.61694,621.7607,70,60,0
621.76697,621.9107,71,60,0
621.91693,622.06067,74,60,0
622.06696,622.2107,72,60,0
622.2169,622.3607,73,60,0
622.36694,622.5107,76,60,0
622.51697,622.6607,73,60,0
622.66693,622.81067,74,60,0
622.81696,622.9607,75,60,0
622.9669,623.1107,76,60,0
623.11694,623.2607,79,60,0
623.26697,623.4107,77,60,0
623.41693,623.56067,78,60,0
623.56696,623.7107,81,60,0
623.7169,623.8607,78,60,0
623.86694,624.0107,79,60,0
624.01697,624.1607,83,60,0
624.16693,624.31067,80,60,0
624.31696,624.4607,83,60,0
624.4669,624.6107,81,60,0
624.61694,624.81067,81,70,0
624.7169,624.9107,83,70,0
624.81696,625.0107,81,70,0
624.91693,625.1107,83,70,0
625.01697,625.2107,81,70,0
625.11694,625.2607,83,70,0
625.2169,625.3607,81,70,0
625.29193,625.43567,83,70,0
625.36694,625.5107,81,70,0
625.44196,625.5857,83,70,0
625.51697,625.6607,81,70,0
625.5919,625.7357,83,70,0
625.66693,625.81067,81,70,0
625.74194,625.8857,83,70,0
625.81696,625.9607,81,70,0
625.89197,626.0357,83,70,0
625.9669,626.1107,81,70,0
626.04193,626.18567,83,70,0
626.11694,626.2607,81,70,0
626.19196,626.3357,83,70,0
626.26697,626.4107,81,70,0
626.3419,626.4857,83,70,0
626.41693,626.56067,81,70,0
626.49194,626.6357,83,70,0
626.56696,626.7107,81,70,0
626.64197,626.7857,83,70,0
626.7169,626.8607,81,70,0
626.79193,626.93567,83,70,0
626.86694,627.0107,81,70,0
626.94196,627.0857,83,70,0
627.01697,627.1607,81,70,0
627.0919,627.2357,83,70,0
627.16693,627.31067,81,70,0
627.24194,627.3857,83,70,0
627.31696,627.4607,81,70,0
627.39197,627.5357,83,70,0
627.4669,627.6107,81,70,0
627.54193,627.68567,83,70,0
627.61694,627.7607,81,70,0
627.69196,627.8357,83,70,0
627.76697,627.9107,81,70,0
627.8419,627.9857,83,70,0
627.91693,628.06067,81,70,0
627.99194,628.1357,83,70,0
628.06696,628.2107,81,70,0
628.14197,628.2857,83,70,0
628.2169,628.3607,81,60,0
628.29193,628.43567,83,61,0
628.36694,628.5107,81,62,0
628.44196,628.5857,83,63,0
628.51697,628.6607,81,64,0
628.5919,628.7357,83,65,0
628.66693,628.81067,81,66,0
628.74194,628.8857,83,67,0
628.81696,628.9607,81,68,0
628.89197,629.0357,83,69,0
628.9669,629.1107,81,70,0
629.04193,629.18567,83,71,0
629.11694,629.2607,81,72,0
629.19196,629.3357,83,73,0
629.26697,629.4107,81,74,0
629.3419,629.4857,83,75,0
629.41693,629.56067,81,76,0
629.49194,629.6357,83,78,0
629.56696,629.7107,81,79,0
629.64197,629.7857,83,80,0
629.7169,629.8607,81,81,0
629.79193,629.93567,83,82,0
629.86694,630.0107,81,83,0
629.94196,630.0857,83,84,0
630.01697,630.1607,81,85,0
630.0919,630.2357,83,86,0
630.16693,630.31067,81,87,0
630.24194,630.3857,83,88,0
630.31696,630.4607,81,89,0
630.39197,630.5357,83,90,0
630.4669,630.6107,81,91,0
630.54193,630.68567,83,92,0
630.61694,630.7607,81,93,0
630.69196,630.8357,83,95,0
630.76697,630.9107,81,96,0
630.8419,630.9857,83,97,0
630.91693,631.06067,81,98,0
630.99194,631.1357,83,99,0
631.06696,631.2107,81,100,0
631.14197,631.2857,83,101,0
631.2169,631.3607,81,102,0
631.29193,631.43567,83,103,0
631.36694,631.5107,81,104,0
631.44196,631.5857,83,105,0
631.51697,631.6607,81,106,0
631.5919,631.7357,83,107,0
631.66693,631.81067,81,108,0
631.74194,631.8857,83,109,0
631.81696,631.9607,81,110,0
631.89197,632.0357,83,110,0
631.9669,632.1107,81,109,0
632.04193,632.18567,83,108,0
632.11694,632.2607,81,107,0
632.19196,632.3357,83,106,0
632.26697,632.4107,81,105,0
632.3419,632.4857,83,105,0
632.41693,632.56067,81,104,0
632.49194,632.6357,83,103,0
632.56696,632.7107,81,102,0
632.64197,632.7857,83,101,0
632.7169,632.8607,81,100,0
632.79193,632.93567,83,99,0
632.86694,633.0107,81,99,0
632.94196,633.0857,83,98,0
633.01697,633.1607,81,97,0
633.0919,633.2357,83,96,0
633.16693,633.31067,81,95,0
633.24194,633.3857,83,94,0
633.31696,633.4607,81,93,0
633.39197,633.5357,83,93,0
633.4669,633.6107,81,92,0
633.54193,633.68567,83,91,0
633.61694,633.7607,81,90,0
633.69196,633.8357,83,89,0
633.76697,633.9107,81,88,0
633.8419,633.9857,83,87,0
633.91693,634.06067,81,87,0
633.99194,634.1357,83,86,0
634.06696,634.2107,81,85,0
634.14197,634.2857,83,84,0
634.2169,634.3607,81,83,0
634.29193,634.43567,83,82,0
634.36694,634.5107,81,82,0
634.44196,634.5857,83,81,0
634.51697,634.6607,81,80,0
634.5919,634.7357,83,79,0
634.66693,634.81067,81,78,0
634.74194,634.8857,83,77,0
634.81696,634.9607,81,76,0
634.89197,635.0357,83,76,0
634.9669,635.1107,81,75,0
635.04193,635.18567,83,74,0
635.11694,635.2607,81,73,0
635.19196,635.3357,83,72,0
635.26697,635.4107,81,71,0
635.3419,635.4857,83,70,0
635.41693,636.0107,81,60,0
635.7169,636.31067,78,60,0
636.01697,636.6107,72,60,0
636.31696,636.9107,69,60,0
636.61694,637.2107,72,60,0
636.91693,637.5107,78,60,0
637.2169,639.0107,81,60,0
639.01697,639.6107,84,60,0
639.31696,639.9107,81,60,0
639.61694,640.2107,78,60,0
639.91693,640.5107,72,60,0
640.2169,640.81067,78,60,0
640.51697,640.81067,81,60,0
640.81696,643.2107,83,60,0
642.91693,643.5107,79,60,0
643.2169,643.81067,74,60,0
643.51697,644.1107,71,60,0
643.81696,644.4107,74,60,0
644.11694,644.7107,79,60,0
644.41693,646.81067,83,60,0
646.51697,647.1107,79,59,0
646.81696,647.4107,74,58,0
647.11694,647.7107,71,57,0
647.41693,648.0107,74,56,0
647.7169,648.31067,79,54,0
648.01697,648.6107,83,53,0
648.31696,648.9107,79,52,0
648.61694,649.2229,74,51,0
648.91693,649.2229,71,50,0
649.22943,649.37915,71,50,0
649.30756,649.4573,72,50,0
649.3857,649.5354,71,50,0
649.4638,649.6135,72,50,0
649.54193,649.69165,71,50,0
649.62006,649.7698,72,50,0
649.6982,649.8479,71,50,0
649.7763,649.926,72,50,0
649.85443,650.4862,76,50,0
650.16693,650.8123,74,50,0
650.49304,651.1384,71,50,0
651.1452,651.30145,55,50,0
651.22675,651.383,57,50,0
651.3082,651.4645,55,50,0
651.3898,651.546,57,50,0
651.4713,651.62756,55,50,0
651.5528,651.70905,57,50,0
651.63434,651.7906,55,50,0
651.7158,651.8721,57,50,0
651.79736,652.44275,60,50,0
652.1235,652.76886,59,50,0
652.4495,653.0949,55,50,0
653.10175,653.258,71,50,0
653.1832,653.3395,72,50,0
653.2648,653.421,71,50,0
653.34625,653.5025,72,50,0
653.4278,653.58405,71,50,0
653.50934,653.6656,72,50,0
653.5908,653.7471,71,50,0
653.67236,653.8286,72,50,0
653.7539,654.3993,76,50,0
654.07996,654.73987,74,50,0
654.40607,655.08075,66,50,0
655.0879,655.79474,69,50,0
655.445,656.15186,67,50,0
655.8022,656.86615,64,50,0
656.8736,657.22327,65,50,0
657.0522,657.39044,67,54,0
657.2307,657.5571,69,58,0
657.3974,657.7078,71,63,0
657.5641,657.85785,72,67,0
657.71405,658.0078,74,71,0
657.8641,658.15784,76,76,0
658.0141,658.3078,77,80,0
658.16406,658.4578,79,84,0
658.3141,658.60785,81,89,0
658.46405,658.7578,83,93,0
658.6141,658.90784,84,97,0
658.7641,659.0578,86,102,0
658.91406,659.0578,88,106,0
659.0641,659.39044,81,110,0
659.0641,659.39044,84,110,0
659.0641,659.39044,90,110,0
659.7307,660.39044,91,120,0
659.7307,660.39044,83,120,0
659.7307,660.39044,79,120,0
2.966664,3.516432,43,70,0
2.966664,3.516432,50,70,0
2.966664,3.516432,47,70,0
3.522219,4.7044306,43,70,0
3.522219,4.7044306,47,70,0
3.522219,4.7044306,50,70,0
4.7106805,5.2604485,43,70,0
4.7106805,5.2604485,47,70,0
4.7106805,5.2604485,50,70,0
5.2662354,5.8160033,43,70,0
5.2662354,5.8160033,50,70,0
5.8217907,6.3715587,45,70,0
5.8217907,6.3715587,50,70,0
6.3773456,6.959557,47,70,0
6.3773456,6.959557,50,70,0
6.965807,7.559557,48,70,0
6.965807,7.559557,50,70,0
7.565807,8.159557,47,70,0
7.565807,8.159557,50,70,0
10.578307,11.2171955,62,70,0
11.22414,11.883862,67,70,0
13.634823,14.18459,43,70,0
13.634823,14.18459,47,70,0
13.634823,14.18459,50,70,0
14.190377,15.372589,50,70,0
14.190377,15.372589,47,70,0
14.190377,15.372589,43,70,0
15.378839,15.928607,43,70,0
15.378839,15.928607,55,70,0
15.934394,16.484161,43,70,0
15.934394,16.484161,55,70,0
16.489948,17.060862,45,70,0
16.489948,17.060862,55,70,0
17.066872,17.67937,47,70,0
17.066872,17.67937,55,70,0
17.68602,18.955965,48,70,0
17.68602,18.955965,55,70,0
22.328852,22.600842,60,70,0
22.606628,22.878618,64,70,0
22.884405,23.156397,69,70,0
23.162184,23.434174,72,70,0
23.43996,23.711952,76,70,0
23.71774,23.989729,81,70,0
23.995516,24.267506,76,70,0
24.273294,24.545284,72,70,0
24.551071,24.823061,69,70,0
24.828848,25.10084,72,70,0
25.106627,25.378616,76,70,0
25.384403,25.656393,81,70,0
25.662182,25.934172,76,70,0
25.939959,26.211948,72,70,0
26.217735,26.489727,69,70,0
26.495514,26.767504,72,70,0
26.77329,27.045282,78,70,0
27.05107,27.32306,81,70,0
27.328846,27.600836,78,70,0
27.606623,27.878614,72,70,0
27.884401,28.156391,69,70,0
28.162178,28.43417,72,70,0
28.439957,28.711946,78,70,0
28.717733,28.989723,81,70,0
28.99551,29.267502,78,70,0
29.273289,29.545279,72,70,0
29.551065,29.823057,69,70,0
29.828844,30.100834,72,70,0
30.10662,30.37861,78,70,0
30.3844,30.65639,81,70,0
30.662176,30.934166,84,70,0
30.939953,31.211945,83,70,0
31.217731,31.489721,81,70,0
31.495508,31.767498,79,70,0
31.773287,32.045277,78,70,0
32.051064,32.323055,76,70,0
32.328842,32.60083,74,70,0
32.606617,32.87861,72,70,0
32.884396,33.156387,71,70,0
33.162174,33.434162,69,70,0
33.439953,33.71194,67,70,0
33.717728,33.98972,66,70,0
33.995506,34.283497,64,70,0
34.289623,34.59561,62,70,0
34.602123,35.186615,61,70,0
34.602123,35.186615,64,70,0
35.1924,35.46439,61,70,0
35.1924,35.46439,64,70,0
35.470177,35.74217,61,73,0
35.470177,35.74217,64,73,0
35.747955,36.019947,61,77,0
35.747955,36.019947,64,77,0
36.025734,36.297726,61,81,0
36.025734,36.297726,64,81,0
36.303513,36.5755,61,85,0
36.303513,36.5755,64,85,0
36.581287,36.85328,60,89,0
36.581287,36.85328,62,89,0
36.859066,37.131058,60,93,0
36.859066,37.131058,62,93,0
37.136845,37.408833,60,97,0
37.136845,37.408833,62,97,0
37.41462,37.70261,60,100,0
37.41462,37.70261,62,100,0
37.70874,38.01473,60,85,0
37.70874,38.01473,62,85,0
38.02124,39.88973,59,70,0
38.02124,39.88973,62,70,0
39.89624,40.468227,37,70,0
39.89624,40.468227,49,70,0
40.474014,40.746006,37,70,0
40.474014,40.746006,49,70,0
40.751793,41.023785,37,73,0
40.751793,41.023785,49,73,0
41.02957,41.301563,37,77,0
41.02957,41.301563,49,77,0
41.30735,41.579338,37,81,0
41.30735,41.579338,49,81,0
41.585125,41.857117,36,85,0
41.585125,41.857117,48,85,0
41.862904,42.134895,36,89,0
41.862904,42.134895,48,89,0
42.140682,42.41267,36,93,0
42.140682,42.41267,48,93,0
42.418457,42.69045,36,97,0
42.418457,42.69045,48,97,0
42.696236,42.984226,36,100,0
42.696236,42.984226,48,100,0
42.990353,43.302853,36,85,0
42.990353,43.302853,48,85,0
43.3095,45.20488,35,70,0
43.3095,45.20488,47,70,0
45.211674,45.751446,50,110,0
45.211674,45.751446,57,110,0
45.211674,45.751446,60,110,0
47.120766,47.38781,55,110,0
47.120766,47.38781,59,110,0
47.39349,47.660538,55,110,0
47.39349,47.660538,59,110,0
47.666218,47.93326,55,110,0
47.666218,47.93326,59,110,0
47.938946,48.20599,55,110,0
47.938946,48.20599,59,110,0
48.211674,48.478718,55,90,0
48.211674,48.478718,59,90,0
48.484398,49.02417,60,70,0
48.484398,49.02417,62,70,0
50.39349,50.660534,59,70,0
50.39349,50.660534,62,70,0
50.666214,50.93326,59,70,0
50.666214,50.93326,62,70,0
50.938942,51.205986,59,70,0
50.938942,51.205986,62,70,0
51.21167,51.478714,59,70,0
51.21167,51.478714,62,70,0
51.484398,51.751442,59,70,0
51.484398,51.751442,62,70,0
51.757122,52.296894,50,110,0
51.757122,52.296894,57,110,0
51.757122,52.296894,60,110,0
53.66621,53.933258,55,110,0
53.66621,53.933258,59,110,0
53.93894,54.205986,55,110,0
53.93894,54.205986,59,110,0
54.211666,54.47871,55,110,0
54.211666,54.47871,59,110,0
54.484394,54.75144,55,110,0
54.484394,54.75144,59,110,0
54.75712,55.024166,55,90,0
54.75712,55.024166,59,90,0
55.302574,55.56962,44,100,0
55.302574,55.56962,56,100,0
55.575302,55.849834,44,100,0
55.575302,55.849834,56,100,0
55.855675,56.138126,44,100,0
55.855675,56.138126,56,100,0
56.144135,56.437885,44,100,0
56.144135,56.437885,56,100,0
56.444138,56.763428,44,100,0
56.444138,56.763428,56,100,0
56.77022,57.076214,45,70,0
57.08272,57.354713,57,70,0
57.3605,57.632492,45,70,0
57.63828,57.910267,57,70,0
57.916054,58.188046,45,70,0
58.193832,58.465824,57,70,0
58.47161,58.7436,45,70,0
58.749386,59.021378,57,70,0
59.027164,59.299156,45,70,0
59.304943,59.576935,57,70,0
59.58272,59.85471,45,70,0
59.860497,60.13249,57,70,0
60.138275,60.410267,45,70,0
60.416054,60.68804,57,70,0
60.69383,60.96582,45,70,0
60.971607,61.2436,57,70,0
61.249386,61.521374,45,70,0
61.52716,61.799152,57,70,0
61.80494,62.07693,45,70,0
62.082718,62.35471,57,70,0
62.360497,62.632484,45,70,0
62.63827,62.910263,57,70,0
62.91605,63.18804,45,70,0
63.19383,63.465816,57,70,0
63.471603,63.743595,45,70,0
63.749382,64.02137,57,70,0
64.02716,64.29915,45,70,0
64.30494,64.57693,55,70,0
64.58272,64.854706,45,70,0
64.86049,65.132484,52,70,0
65.13827,65.41026,45,70,0
65.416046,65.68804,45,70,0
65.693825,65.87322,33,70,0
65.87901,66.05841,35,70,0
66.06419,66.24359,37,70,0
66.24938,66.42878,38,70,0
66.43456,66.61396,40,70,0
66.61975,66.79915,42,70,0
66.80493,66.98433,43,70,0
66.99012,67.16952,45,70,0
67.17531,67.354706,47,70,0
67.36049,67.53989,49,70,0
67.54568,67.725075,50,70,0
67.73086,67.910255,52,70,0
67.916046,68.09544,54,70,0
68.10123,68.283966,55,70,0
68.28998,68.47627,56,70,0
69.059204,69.25296,57,70,0
69.25921,69.45296,61,70,0
69.459206,69.652954,64,70,0
69.65921,69.865326,69,70,0
69.87197,70.08489,71,70,0
70.091995,70.312164,73,70,0
70.31927,70.62525,74,70,0
70.778824,70.919754,76,70,0
70.92588,72.031204,78,70,0
72.036995,72.30898,67,70,0
72.036995,72.30898,71,70,0
72.45366,72.58676,69,70,0
72.45366,72.58676,73,70,0
72.592545,73.69787,71,70,0
72.592545,73.69787,74,70,0
73.70366,73.97565,67,70,0
73.70366,73.97565,71,70,0
74.12032,74.253426,67,70,0
74.12032,74.253426,71,70,0
74.25921,74.531204,66,70,0
74.25921,74.531204,69,70,0
74.67588,74.80898,66,70,0
74.67588,74.80898,69,70,0
74.814766,75.086754,66,70,0
74.814766,75.086754,69,70,0
75.23143,75.36453,66,70,0
75.23143,75.36453,69,70,0
75.37032,75.92009,66,70,0
75.37032,75.92009,69,70,0
75.92588,77.0312,64,70,0
75.92588,77.0312,67,70,0
77.03699,77.308975,64,70,0
77.03699,77.308975,67,70,0
77.45365,77.586754,66,77,0
77.45365,77.586754,69,77,0
77.592545,78.69787,67,80,0
77.592545,78.69787,71,80,0
78.70365,78.97564,69,100,0
78.70365,78.97564,73,100,0
79.120316,79.25342,71,108,0
79.120316,79.25342,74,108,0
79.25921,80.086754,73,110,0
79.25921,80.086754,76,110,0
80.09254,80.36453,71,70,0
80.09254,80.36453,74,70,0
80.370316,80.64231,69,70,0
80.370316,80.64231,73,70,0
80.648094,80.92008,67,70,0
80.648094,80.92008,71,70,0
80.92587,81.19786,66,70,0
80.92587,81.19786,69,70,0
81.20365,81.47564,64,70,0
81.20365,81.47564,67,70,0
81.48143,81.75342,62,70,0
81.48143,81.75342,66,70,0
81.7592,82.0312,61,70,0
81.7592,82.0312,64,70,0
82.03698,82.308975,59,70,0
82.03698,82.308975,62,70,0
82.31476,82.59721,57,70,0
82.31476,82.59721,61,70,0
82.60322,82.796974,57,70,0
82.60322,82.796974,61,70,0
82.80322,83.00088,55,70,0
82.80322,83.00088,59,70,0
83.007385,83.20921,54,70,0
83.007385,83.20921,57,70,0
83.21572,83.431,54,70,0
83.21572,83.431,57,70,0
83.43794,83.666245,53,70,0
83.43794,83.666245,56,70,0
83.67406,83.916245,52,70,0
83.67406,83.916245,55,70,0
83.92406,84.49605,50,70,0
83.92406,84.49605,54,70,0
85.61294,86.16271,43,70,0
87.27961,87.5516,43,70,0
87.27961,87.5516,55,70,0
87.83516,88.107155,47,70,0
88.39072,88.662704,47,70,0
88.94627,89.21826,40,70,0
88.94627,89.21826,52,70,0
89.50182,89.77382,40,70,0
89.50182,89.77382,52,70,0
90.61294,90.884926,40,70,0
90.61294,90.884926,52,70,0
92.2796,92.82937,33,100,0
92.2796,92.82937,45,100,0
92.83516,93.384926,33,110,0
92.83516,93.384926,45,110,0
99.69263,100.36753,33,70,0
99.69263,100.36753,45,70,0
100.3748,101.16944,33,70,0
100.3748,101.16944,45,70,0
101.17837,102.97212,34,70,0
101.17837,102.97212,46,70,0
102.97837,104.77212,46,70,0
102.97837,104.77212,48,70,0
102.97837,104.77212,51,70,0
104.77837,106.57212,46,70,0
104.77837,106.57212,50,70,0
104.77837,106.57212,53,70,0
106.57837,107.17212,45,70,0
106.57837,107.17212,50,70,0
106.57837,107.17212,54,70,0
107.17837,107.79686,54,70,0
107.17837,107.79686,50,70,0
107.17837,107.79686,45,70,0
107.80337,108.50389,45,70,0
107.80337,108.50389,52,70,0
107.80337,108.50389,55,70,0
108.5117,110.30545,46,70,0
108.5117,110.30545,50,70,0
108.5117,110.30545,53,70,0
110.31171,111.10545,46,70,0
110.31171,111.10545,48,70,0
110.31171,111.10545,51,70,0
110.31171,111.10545,53,70,0
110.31171,111.10545,57,70,0
111.1117,111.30545,57,70,0
111.31171,111.505455,58,70,0
111.5117,111.70545,62,70,0
111.7117,111.90546,60,70,0
111.911705,112.10545,57,70,0
112.1117,112.30545,57,70,0
112.31171,112.505455,58,70,0
112.5117,112.70545,62,70,0
112.7117,112.911446,62,70,0
112.91789,113.11763,58,70,0
113.12408,113.323814,60,70,0
113.33026,113.53638,63,70,0
113.54302,113.75358,62,70,0
113.76052,113.9758,58,70,0
113.98274,114.27649,46,70,0
114.28274,114.57649,58,73,0
114.58274,114.8652,46,76,0
114.8712,115.153656,58,80,0
115.15967,115.431656,46,83,0
115.43744,115.709435,58,87,0
115.71522,115.98721,47,90,0
115.993,116.264984,59,93,0
116.270775,116.54276,45,97,0
116.54855,116.82054,57,100,0
116.82633,117.09832,52,104,0
117.10411,117.3761,64,107,0
117.38188,117.65388,49,110,0
117.65966,117.931656,61,100,0
117.93744,118.20943,55,100,0
118.21522,118.487206,67,100,0
118.493,118.764984,52,100,0
118.770775,119.04276,64,100,0
119.048546,119.32054,61,100,0
119.326324,119.59832,73,100,0
119.6041,119.8761,55,100,0
119.88188,120.15387,67,100,0
120.15966,120.43165,64,100,0
120.43744,120.70943,76,100,0
120.71522,120.987206,61,100,0
120.99299,121.264984,73,100,0
121.27077,121.54276,67,100,0
121.548546,121.82053,79,100,0
121.826324,122.09831,64,100,0
122.1041,122.37609,76,100,0
122.38188,122.66433,67,100,0
122.67034,122.95279,79,100,0
122.9588,123.252556,66,100,0
123.258804,123.55255,78,100,0
123.5588,123.86479,67,100,0
123.8713,124.19769,79,100,0
124.204636,124.419914,67,70,0
124.42686,124.642136,71,70,0
124.64908,124.86436,74,70,0
124.8713,125.19769,67,70,0
126.204636,126.419914,67,70,0
126.42686,126.642136,71,70,0
126.64908,126.86436,76,70,0
126.8713,127.197685,67,70,0
128.87129,129.53102,57,70,0
128.87129,129.53102,64,70,0
129.53796,130.28015,57,70,0
129.53796,130.28015,64,70,0
130.28796,130.92729,50,70,0
130.28796,130.92729,62,70,0
131.24629,131.55229,62,70,0
131.55879,131.86479,64,70,0
131.87129,132.17729,66,70,0
132.18379,132.38562,67,70,0
132.39214,132.59395,71,70,0
132.60046,132.80229,74,70,0
132.80879,133.11479,67,70,0
134.10046,134.29422,67,70,0
134.30046,134.49422,71,70,0
134.50046,134.69421,76,70,0
134.70047,134.99422,67,70,0
136.63379,137.29352,57,70,0
136.63379,137.29352,64,70,0
137.30046,138.08171,57,70,0
137.30046,138.08171,64,70,0
138.08994,138.29176,62,70,0
138.29826,138.49258,64,70,0
138.49858,138.68489,66,70,0
138.69089,138.8772,67,70,0
138.88321,139.0695,66,70,0
139.07552,139.26181,64,70,0
139.26782,139.45412,62,70,0
139.46013,139.64642,64,70,0
139.65244,139.83873,66,70,0
139.84474,140.03104,67,70,0
140.03705,140.22334,66,70,0
140.22935,140.41565,64,70,0
140.42166,140.60796,62,70,0
140.61397,140.80026,61,70,0
140.80627,140.99258,59,70,0
140.99858,141.18489,57,70,0
141.19089,141.3772,55,70,0
141.38321,141.5695,54,70,0
141.57552,141.76181,52,70,0
141.76782,141.95772,50,70,0
141.96397,142.15771,49,70,0
142.16397,142.49036,47,70,0
142.83064,143.19783,45,70,0
143.58064,143.77438,62,70,0
143.78064,143.96909,64,70,0
143.97498,144.15776,66,70,0
144.16365,144.34644,67,70,0
144.35234,144.53511,66,70,0
144.54102,144.7238,64,70,0
144.72969,144.91248,62,70,0
144.91837,145.10115,64,70,0
145.10706,145.28984,66,70,0
145.29573,145.47852,67,70,0
145.4844,145.66719,66,70,0
145.67308,145.85587,64,70,0
145.86177,146.04456,62,70,0
146.05045,146.23323,61,70,0
146.23912,146.4219,59,70,0
146.42781,146.61058,57,70,0
146.61649,146.79927,55,70,0
146.80516,146.98795,54,70,0
146.99384,147.17662,52,70,0
147.18253,147.3706,50,70,0
147.37686,147.5706,49,70,0
147.57686,147.90324,47,70,0
148.24353,148.4588,45,70,0
148.46574,148.68103,52,71,0
148.68797,148.90324,55,72,0
148.91019,149.12547,45,73,0
149.13242,149.33728,52,75,0
149.34352,149.53728,55,76,0
149.54352,149.72292,45,77,0
149.72871,149.90811,52,79,0
149.9139,150.09329,55,80,0
150.09908,150.27847,45,81,0
150.28427,150.46367,48,82,0
150.46945,150.64885,52,84,0
150.65463,150.83403,45,85,0
150.83981,151.01921,50,86,0
151.02501,151.2044,54,88,0
151.21019,151.38959,45,89,0
151.39537,151.57477,50,90,0
151.58057,151.75996,54,91,0
151.76575,151.94514,45,93,0
151.95093,152.13033,50,94,0
152.13611,152.3155,54,95,0
152.3213,152.5007,45,97,0
152.50648,152.68588,49,98,0
152.69167,152.87106,55,99,0
152.87686,153.05626,45,100,0
153.06204,153.24144,49,95,0
153.24722,153.42662,55,90,0
153.4324,153.6118,45,85,0
153.6176,153.797,49,80,0
153.80278,153.98218,55,75,0
153.98796,154.16736,45,70,0
154.17316,154.35255,50,70,0
154.35834,154.53773,54,70,0
154.54352,154.72292,45,70,0
154.7287,154.9081,50,70,0
154.9139,155.09329,54,70,0
155.09908,155.27847,45,70,0
155.28426,155.46365,52,71,0
155.46945,155.64885,55,72,0
155.65463,155.83403,45,73,0
155.83981,156.01921,52,75,0
156.025,156.20439,55,76,0
156.21019,156.38959,45,77,0
156.39537,156.57477,52,79,0
156.58055,156.75995,55,80,0
156.76575,156.94514,45,81,0
156.95093,157.13033,49,82,0
157.13611,157.3155,52,84,0
157.32129,157.50069,45,85,0
157.50648,157.68588,49,86,0
157.69167,157.87106,52,88,0
157.87685,158.05624,45,89,0
158.06203,158.24144,50,90,0
158.24722,158.42662,54,91,0
158.4324,158.6118,45,93,0
158.61758,158.79698,50,94,0
158.80278,158.98218,54,95,0
158.98796,159.16736,45,97,0
159.17314,159.35254,49,98,0
159.35832,159.53773,55,99,0
159.54352,159.72292,45,100,0
159.7287,159.9081,49,70,0
159.91388,160.09328,55,70,0
160.09908,160.27847,45,70,0
160.28426,160.46365,49,70,0
160.46944,160.64883,52,70,0
160.65462,160.83401,45,70,0
160.83981,161.01921,50,69,0
161.025,161.20439,54,68,0
161.21017,161.38957,45,67,0
161.39537,161.57477,50,66,0
161.58055,161.75995,54,64,0
161.76573,161.94513,45,63,0
161.95091,162.13031,49,62,0
162.13611,162.3155,52,61,0
162.32129,162.50069,45,59,0
162.50647,162.68587,50,58,0
162.69167,162.87106,54,57,0
162.87685,163.05624,45,56,0
163.06203,163.24142,50,54,0
163.24721,163.4266,54,53,0
163.4324,163.6118,45,52,0
163.61758,163.79698,49,51,0
163.80276,163.98216,52,50,0
163.98796,164.16736,45,50,0
164.17314,164.35254,50,50,0
164.35832,164.53772,54,50,0
164.5435,164.7229,45,50,0
164.7287,164.9081,50,50,0
164.91388,165.09328,54,50,0
165.09906,165.27846,45,50,0
165.28426,165.46365,49,50,0
165.46944,165.64883,52,50,0
165.65462,165.83401,45,50,0
165.8398,166.0192,50,50,0
166.025,166.20439,54,50,0
166.21017,166.38957,45,50,0
166.39536,166.57475,50,50,0
166.58055,166.75995,54,50,0
166.76573,166.95203,43,50,0
166.95804,167.14793,50,50,0
167.15419,167.34795,55,50,0
167.35419,167.99307,43,50,0
167.35419,167.99307,50,50,0
167.35419,167.99307,55,50,0
168.66669,169.23761,43,70,0
168.66669,169.23761,50,70,0
168.66669,169.23761,47,70,0
169.2436,170.47461,43,70,0
169.2436,170.47461,47,70,0
169.2436,170.47461,50,70,0
170.48111,171.07486,43,70,0
170.48111,171.07486,47,70,0
170.48111,171.07486,50,70,0
171.08112,171.72,43,70,0
171.08112,171.72,50,70,0
171.72694,172.38667,45,70,0
171.72694,172.38667,50,70,0
172.39362,173.02525,47,70,0
172.39362,173.02525,50,70,0
173.0319,173.66356,48,70,0
173.0319,173.66356,50,70,0
173.67021,174.30185,47,70,0
173.67021,174.30185,50,70,0
176.82378,177.48349,62,70,0
177.49043,178.15016,67,70,0
180.0321,180.65059,43,70,0
180.0321,180.65059,47,70,0
180.0321,180.65059,50,70,0
180.6571,181.90059,50,70,0
180.6571,181.90059,47,70,0
180.6571,181.90059,43,70,0
181.9071,182.52559,43,70,0
181.9071,182.52559,55,70,0
182.5321,183.15059,43,70,0
182.5321,183.15059,55,70,0
183.1571,183.80247,45,70,0
183.1571,183.80247,55,70,0
183.80928,184.484,47,70,0
183.80928,184.484,55,70,0
184.49109,185.73459,48,70,0
184.49109,185.73459,55,70,0
189.13136,189.40335,60,70,0
189.40915,189.68114,64,70,0
189.68692,189.95891,69,70,0
189.9647,190.2367,72,70,0
190.24248,190.51447,76,70,0
190.52025,190.79225,81,70,0
190.79803,191.07002,76,70,0
191.0758,191.3478,72,70,0
191.35359,191.62558,69,70,0
191.63136,191.90335,72,70,0
191.90915,192.18114,76,70,0
192.18692,192.45891,81,70,0
192.46469,192.7367,76,70,0
192.74248,193.01447,72,70,0
193.02025,193.29224,69,70,0
193.29803,193.57002,72,70,0
193.5758,193.8478,78,70,0
193.85359,194.12558,81,70,0
194.13136,194.40335,78,70,0
194.40913,194.68114,72,70,0
194.68692,194.95891,69,70,0
194.96469,195.23668,72,70,0
195.24248,195.51447,78,70,0
195.52025,195.79224,81,70,0
195.79803,196.07002,78,70,0
196.0758,196.3478,72,70,0
196.35358,196.62558,69,70,0
196.63136,196.90335,72,70,0
196.90913,197.18112,78,70,0
197.18692,197.45891,81,70,0
197.46469,197.73668,84,70,0
197.74248,198.01447,83,70,0
198.02025,198.29224,81,70,0
198.29802,198.57002,79,70,0
198.5758,198.8478,78,70,0
198.85358,199.12556,76,70,0
199.13136,199.40335,74,70,0
199.40913,199.68112,72,70,0
199.6869,199.95891,71,70,0
199.96469,200.23668,69,70,0
200.24246,200.52492,67,70,0
200.53093,200.81339,66,70,0
200.8194,201.11314,64,70,0
201.11938,201.43188,62,70,0
201.43854,202.04015,61,70,0
201.43854,202.04015,64,70,0
202.04614,202.3286,61,70,0
202.04614,202.3286,64,70,0
202.33461,202.61707,61,73,0
202.33461,202.61707,64,73,0
202.62308,202.90552,61,77,0
202.62308,202.90552,64,77,0
202.91153,203.19398,61,81,0
202.91153,203.19398,64,81,0
203.2,203.48245,61,85,0
203.2,203.48245,64,85,0
203.48845,203.7709,60,89,0
203.48845,203.7709,62,89,0
203.77692,204.05937,60,93,0
203.77692,204.05937,62,93,0
204.06538,204.34782,60,97,0
204.06538,204.34782,62,97,0
204.35384,204.6476,60,100,0
204.35384,204.6476,62,100,0
204.65384,204.96634,60,85,0
204.65384,204.96634,62,85,0
204.97299,206.88123,59,70,0
204.97299,206.88123,62,70,0
206.88788,207.45987,37,70,0
206.88788,207.45987,49,70,0
207.46565,207.73766,37,70,0
207.46565,207.73766,49,70,0
207.74344,208.01543,37,73,0
207.74344,208.01543,49,73,0
208.02121,208.2932,37,77,0
208.02121,208.2932,49,77,0
208.299,208.57098,37,81,0
208.299,208.57098,49,81,0
208.57677,208.84875,36,85,0
208.57677,208.84875,48,85,0
208.85454,209.12654,36,89,0
208.85454,209.12654,48,89,0
209.13232,209.40431,36,93,0
209.13232,209.40431,48,93,0
209.4101,209.6821,36,97,0
209.4101,209.6821,48,97,0
209.68788,209.95987,36,100,0
209.68788,209.95987,48,100,0
209.96565,210.23764,36,85,0
209.96565,210.23764,48,85,0
210.24344,211.90431,35,70,0
210.24344,211.90431,47,70,0
211.9101,212.45987,50,110,0
211.9101,212.45987,57,110,0
211.9101,212.45987,60,110,0
213.85454,214.12653,55,110,0
213.85454,214.12653,59,110,0
214.13232,214.40431,55,110,0
214.13232,214.40431,59,110,0
214.4101,214.68208,55,110,0
214.4101,214.68208,59,110,0
214.68787,214.95987,55,110,0
214.68787,214.95987,59,110,0
214.96565,215.23764,55,90,0
214.96565,215.23764,59,90,0
215.24342,215.7932,60,70,0
215.24342,215.7932,62,70,0
217.18787,217.45985,59,70,0
217.18787,217.45985,62,70,0
217.46565,217.73764,59,70,0
217.46565,217.73764,62,70,0
217.74342,218.01541,59,70,0
217.74342,218.01541,62,70,0
218.02121,218.2932,59,70,0
218.02121,218.2932,62,70,0
218.29898,218.57097,59,70,0
218.29898,218.57097,62,70,0
218.57675,219.12653,50,110,0
218.57675,219.12653,57,110,0
218.57675,219.12653,60,110,0
220.57632,220.87009,55,110,0
220.57632,220.87009,59,110,0
220.87633,221.17007,55,110,0
220.87633,221.17007,59,110,0
221.17633,221.47008,55,110,0
221.17633,221.47008,59,110,0
221.47633,221.77008,55,110,0
221.47633,221.77008,59,110,0
221.77634,222.07008,55,90,0
221.77634,222.07008,59,90,0
222.36479,222.64725,44,100,0
222.36479,222.64725,56,100,0
222.65326,222.9357,44,100,0
222.65326,222.9357,56,100,0
222.94171,223.22417,44,100,0
222.94171,223.22417,56,100,0
223.23018,223.52393,44,100,0
223.23018,223.52393,56,100,0
223.53018,223.84268,44,100,0
223.53018,223.84268,56,100,0
223.84932,224.16182,45,70,0
224.16847,224.44046,57,70,0
224.44624,224.71825,45,70,0
224.72403,224.99602,57,70,0
225.0018,225.27379,45,70,0
225.27959,225.55157,57,70,0
225.55736,225.82935,45,70,0
225.83514,226.10713,57,70,0
226.11292,226.3849,45,70,0
226.39069,226.66269,57,70,0
226.66847,226.94046,45,70,0
226.94624,227.21823,57,70,0
227.22403,227.49602,45,70,0
227.5018,227.77379,57,70,0
227.77959,228.05157,45,70,0
228.05736,228.32935,57,70,0
228.33513,228.60713,45,70,0
228.61292,228.8849,57,70,0
228.89069,229.16267,45,70,0
229.16847,229.44046,57,70,0
229.44624,229.71823,45,70,0
229.72403,229.99602,57,70,0
230.0018,230.27379,45,70,0
230.27957,230.55157,57,70,0
230.55736,230.82935,45,70,0
230.83513,231.10712,57,70,0
231.11292,231.3849,45,70,0
231.39069,231.66267,55,70,0
231.66847,231.94046,45,70,0
231.94624,232.21823,52,70,0
232.22401,232.49602,45,70,0
232.5018,232.77379,45,70,0
232.77957,232.95897,33,70,0
232.96477,233.14417,35,70,0
233.14995,233.32935,37,70,0
233.33513,233.51453,38,70,0
233.52031,233.6997,40,70,0
233.7055,233.8849,42,70,0
233.89069,234.07008,43,70,0
234.07587,234.25526,45,70,0
234.26106,234.44046,47,70,0
234.44624,234.62564,49,70,0
234.63142,234.81082,50,70,0
234.8166,234.996,52,70,0
235.0018,235.1812,54,70,0
235.18698,235.36638,55,70,0
235.37216,235.55156,56,70,0
236.1129,236.29921,57,70,0
236.3052,236.49152,61,70,0
236.49751,236.68382,64,70,0
236.68983,236.88358,69,70,0
236.88983,237.08957,71,70,0
237.0962,237.30232,73,70,0
237.30898,237.60272,74,70,0
237.74786,237.88097,76,70,0
237.88675,238.99208,78,70,0
238.99786,239.26985,67,70,0
238.99786,239.26985,71,70,0
239.41454,239.54764,69,70,0
239.41454,239.54764,73,70,0
239.55342,240.65874,71,70,0
239.55342,240.65874,74,70,0
240.66454,240.93652,67,70,0
240.66454,240.93652,71,70,0
241.08119,241.2143,67,70,0
241.08119,241.2143,71,70,0
241.22008,241.49208,66,70,0
241.22008,241.49208,69,70,0
241.63675,241.76985,66,70,0
241.63675,241.76985,69,70,0
241.77563,242.04762,66,70,0
241.77563,242.04762,69,70,0
242.1923,242.32541,66,70,0
242.1923,242.32541,69,70,0
242.33119,242.88097,66,70,0
242.33119,242.88097,69,70,0
242.88675,243.99207,64,70,0
242.88675,243.99207,67,70,0
243.99786,244.26985,64,70,0
243.99786,244.26985,67,70,0
244.41452,244.54762,66,77,0
244.41452,244.54762,69,77,0
244.55342,245.65874,67,80,0
244.55342,245.65874,71,80,0
245.66452,245.93651,69,100,0
245.66452,245.93651,73,100,0
246.08119,246.2143,71,108,0
246.08119,246.2143,74,108,0
246.22008,247.04762,73,110,0
246.22008,247.04762,76,110,0
247.0534,247.32541,71,70,0
247.0534,247.32541,74,70,0
247.33119,247.60318,69,70,0
247.33119,247.60318,73,70,0
247.60896,247.88095,67,70,0
247.60896,247.88095,71,70,0
247.88675,248.15874,66,70,0
247.88675,248.15874,69,70,0
248.16452,248.43651,64,70,0
248.16452,248.43651,67,70,0
248.4423,248.7143,62,70,0
248.4423,248.7143,66,70,0
248.72008,248.99207,61,70,0
248.72008,248.99207,64,70,0
248.99785,249.26985,59,70,0
248.99785,249.26985,62,70,0
249.27563,249.54762,57,70,0
249.27563,249.54762,61,70,0
249.5534,249.7397,57,70,0
249.5534,249.7397,61,70,0
249.74571,249.93562,55,70,0
249.74571,249.93562,59,70,0
249.94186,250.13562,54,70,0
249.94186,250.13562,57,70,0
250.14188,250.35715,54,70,0
250.14188,250.35715,57,70,0
250.36409,250.59239,53,70,0
250.36409,250.59239,56,70,0
250.6002,250.84239,52,70,0
250.6002,250.84239,55,70,0
250.8502,251.4222,50,70,0
250.8502,251.4222,54,70,0
252.5391,253.08885,43,70,0
254.20575,254.47775,43,70,0
254.20575,254.47775,55,70,0
254.7613,255.0333,47,70,0
255.31686,255.58885,47,70,0
255.87242,256.1444,40,70,0
255.87242,256.1444,52,70,0
256.42798,256.69998,40,70,0
256.42798,256.69998,52,70,0
257.5391,257.81107,40,70,0
257.5391,257.81107,52,70,0
259.20575,259.75552,33,100,0
259.20575,259.75552,45,100,0
259.7613,260.31107,33,110,0
259.7613,260.31107,45,110,0
266.55072,267.1896,33,70,0
266.55072,267.1896,45,70,0
267.19656,268.01663,33,70,0
267.19656,268.01663,45,70,0
268.0261,269.8946,34,70,0
268.0261,269.8946,46,70,0
269.9011,271.7696,46,70,0
269.9011,271.7696,48,70,0
269.9011,271.7696,51,70,0
271.7761,273.68582,46,70,0
271.7761,273.68582,50,70,0
271.7761,273.68582,53,70,0
273.69278,274.31985,45,70,0
273.69278,274.31985,50,70,0
273.69278,274.31985,54,70,0
274.3261,274.91986,54,70,0
274.3261,274.91986,50,70,0
274.3261,274.91986,45,70,0
274.9261,275.62662,45,70,0
274.9261,275.62662,52,70,0
274.9261,275.62662,55,70,0
275.63443,277.4282,46,70,0
275.63443,277.4282,50,70,0
275.63443,277.4282,53,70,0
277.43445,278.22818,46,70,0
277.43445,278.22818,48,70,0
277.43445,278.22818,51,70,0
277.43445,278.22818,53,70,0
277.43445,278.22818,57,70,0
278.23444,278.4282,57,70,0
278.43445,278.62817,58,70,0
278.63443,278.8282,62,70,0
278.83444,279.0282,60,70,0
279.03442,279.22818,57,70,0
279.23444,279.4282,57,70,0
279.43445,279.62817,58,70,0
279.63443,279.8282,62,70,0
279.83444,280.03625,62,70,0
280.04276,280.2511,58,70,0
280.25806,280.47333,60,70,0
280.48026,280.7109,63,70,0
280.71835,280.96075,62,70,0
280.969,281.2239,58,70,0
281.23215,281.5259,46,70,0
281.53214,281.8259,58,73,0
281.83215,282.1259,46,76,0
282.13214,282.4259,58,80,0
282.43216,282.7259,46,83,0
282.73215,283.0259,58,87,0
283.03214,283.3259,47,90,0
283.33215,283.6259,59,93,0
283.63214,283.9259,45,97,0
283.93216,284.2259,57,100,0
284.23215,284.5259,52,104,0
284.53214,284.8259,64,107,0
284.83215,285.1259,49,110,0
285.13214,285.4259,61,100,0
285.43216,285.7259,55,100,0
285.73215,286.0259,67,100,0
286.03214,286.3259,52,100,0
286.33215,286.6259,64,100,0
286.63214,286.9259,61,100,0
286.93216,287.2259,73,100,0
287.23215,287.5259,55,100,0
287.53214,287.8259,67,100,0
287.83215,288.1259,64,100,0
288.13214,288.4259,76,100,0
288.43216,288.7259,61,100,0
288.73215,289.0259,73,100,0
289.03214,289.3259,67,100,0
289.33215,289.6259,79,100,0
289.63214,289.9259,64,100,0
289.93216,290.2259,76,100,0
290.23215,290.5259,67,100,0
290.53214,290.8259,79,100,0
290.83215,291.13812,66,100,0
291.14465,291.45062,78,100,0
291.45715,291.78354,67,100,0
291.79047,292.14017,79,100,0
292.1476,292.37827,67,70,0
292.3857,292.60666,71,70,0
292.61346,292.82407,74,70,0
292.83084,293.15015,67,70,0
294.1352,294.3458,67,70,0
294.3526,294.56317,71,70,0
294.56998,294.78058,76,70,0
294.78738,295.10666,67,70,0
296.7439,297.38928,57,70,0
296.7439,297.38928,64,70,0
297.39606,298.13824,57,70,0
297.39606,298.13824,64,70,0
298.14606,298.74103,50,70,0
298.14606,298.74103,62,70,0
299.0355,299.31793,62,70,0
299.32394,299.60638,64,70,0
299.6124,299.9184,66,70,0
299.9249,300.12674,67,70,0
300.13324,300.33505,71,70,0
300.34158,300.5434,74,70,0
300.5499,300.8559,67,70,0
301.7999,302.00174,67,70,0
302.00824,302.21005,71,70,0
302.21658,302.4184,76,70,0
302.4249,302.7309,67,70,0
304.2999,304.94528,57,70,0
304.2999,304.94528,64,70,0
304.9521,305.69427,57,70,0
304.9521,305.69427,64,70,0
305.7021,305.9039,62,70,0
305.9104,306.10474,64,70,0
306.11075,306.29703,66,70,0
306.30304,306.48935,67,70,0
306.49536,306.68164,66,70,0
306.68765,306.87396,64,70,0
306.87997,307.06625,62,70,0
307.07227,307.25858,64,70,0
307.2646,307.45087,66,70,0
307.45688,307.6432,67,70,0
307.6492,307.83548,66,70,0
307.8415,308.0278,64,70,0
308.0338,308.22012,62,70,0
308.2261,308.4124,61,70,0
308.41843,308.60474,59,70,0
308.61075,308.79703,57,70,0
308.80304,308.98935,55,70,0
308.99536,309.18164,54,70,0
309.18765,309.37396,52,70,0
309.37997,309.56985,50,70,0
309.5761,309.76987,49,70,0
309.77612,310.1025,47,70,0
310.44278,310.80997,45,70,0
311.19278,311.3946,62,70,0
311.40112,311.59543,64,70,0
311.60144,311.78775,66,70,0
311.79373,311.98004,67,70,0
311.98605,312.17236,66,70,0
312.17838,312.36465,64,70,0
312.37067,312.55698,62,70,0
312.563,312.74927,64,70,0
312.75528,312.9416,66,70,0
312.9476,313.13388,67,70,0
313.1399,313.3262,66,70,0
313.3322,313.5185,64,70,0
313.5245,313.71082,62,70,0
313.71683,313.9031,61,70,0
313.90912,314.09543,59,70,0
314.10144,314.28775,57,70,0
314.29373,314.48004,55,70,0
314.48605,314.67236,54,70,0
314.67838,314.86465,52,70,0
314.87067,315.06058,50,70,0
315.06683,315.26056,49,70,0
315.2668,315.5793,47,70,0
315.90512,316.11124,45,70,0
316.1179,316.324,52,71,0
316.33066,316.53677,55,72,0
316.54343,316.73715,45,73,0
316.7434,316.93356,52,75,0
316.93958,317.12585,55,76,0
317.13187,317.31818,45,77,0
317.3242,317.5105,52,79,0
317.51648,317.7028,55,80,0
317.7088,317.8951,45,81,0
317.90112,318.0874,48,82,0
318.0934,318.27972,52,84,0
318.28574,318.47202,45,85,0
318.47803,318.66434,50,86,0
318.67035,318.85663,54,88,0
318.86264,319.04895,45,89,0
319.05496,319.24124,50,90,0
319.24725,319.43356,54,91,0
319.43958,319.62585,45,93,0
319.63187,319.81818,50,94,0
319.8242,320.0105,54,95,0
320.01648,320.2028,45,97,0
320.2088,320.3951,49,98,0
320.40112,320.5874,55,99,0
320.5934,320.77972,45,100,0
320.78574,320.97202,49,95,0
320.97803,321.16434,55,90,0
321.17035,321.35663,45,85,0
321.36264,321.54895,49,80,0
321.55496,321.74124,55,75,0
321.74725,321.93356,45,70,0
321.93958,322.12585,50,70,0
322.13187,322.31818,54,70,0
322.3242,322.5105,45,70,0
322.51648,322.7028,50,70,0
322.7088,322.8951,54,70,0
322.90112,323.0874,45,70,0
323.0934,323.278,52,71,0
323.2839,323.4667,55,72,0
323.4726,323.65536,45,73,0
323.66125,323.84406,52,75,0
323.84995,324.0327,55,76,0
324.03864,324.2214,45,77,0
324.2273,324.4101,52,79,0
324.416,324.59875,55,80,0
324.60468,324.78745,45,81,0
324.79333,324.9745,49,82,0
324.9803,325.15967,52,84,0
325.16547,325.34485,45,85,0
325.35065,325.53003,49,86,0
325.53583,325.71524,52,88,0
325.721,325.90042,45,89,0
325.9062,326.0856,50,90,0
326.09137,326.27078,54,91,0
326.27658,326.45596,45,93,0
326.46176,326.64114,50,94,0
326.64694,326.82632,54,95,0
326.83212,327.01154,45,97,0
327.0173,327.19672,49,98,0
327.20248,327.3819,55,99,0
327.38766,327.56708,45,100,0
327.57288,327.75226,49,70,0
327.75806,327.93744,55,70,0
327.94324,328.12262,45,70,0
328.12842,328.30783,49,70,0
328.3136,328.493,52,70,0
328.49878,328.6782,45,70,0
328.68396,328.86337,50,69,0
328.86917,329.04855,54,68,0
329.05435,329.23373,45,67,0
329.23953,329.4189,50,66,0
329.4247,329.60413,54,64,0
329.6099,329.7893,45,63,0
329.79507,329.9745,49,62,0
329.98026,330.15967,52,61,0
330.16547,330.34485,45,59,0
330.35065,330.53003,50,58,0
330.53583,330.7152,54,57,0
330.721,330.90042,45,56,0
330.9062,331.0856,50,54,0
331.09137,331.27078,54,53,0
331.27655,331.45596,45,52,0
331.46176,331.64114,49,51,0
331.64694,331.82632,52,50,0
331.83212,332.0115,45,50,0
332.0173,332.1967,50,50,0
332.20248,332.3819,54,50,0
332.38766,332.56708,45,50,0
332.57285,332.75226,50,50,0
332.75806,332.93744,54,50,0
332.94324,333.12262,45,50,0
333.12842,333.3078,49,50,0
333.3136,333.49298,52,50,0
333.49878,333.6782,45,50,0
333.68396,333.86337,50,51,0
333.86914,334.04855,54,53,0
334.05435,334.23373,45,55,0
334.23953,334.4189,50,57,0
334.4247,334.6041,54,59,0
334.6099,334.78928,43,61,0
334.79507,334.9745,50,63,0
334.98026,335.15967,54,65,0
335.16544,335.34485,43,66,0
335.35065,335.53003,48,68,0
335.53583,335.7152,51,70,0
335.721,335.9004,43,72,0
335.9062,336.08557,48,74,0
336.09137,336.27078,51,76,0
336.27655,336.45596,43,78,0
336.46173,336.64114,47,80,0
336.64694,336.82632,50,82,0
336.83212,337.0115,43,83,0
337.0173,337.1967,46,85,0
337.20248,337.38187,50,87,0
337.38766,337.57397,43,89,0
337.58,337.76627,46,91,0
337.77228,337.9586,50,93,0
337.9646,338.15836,43,95,0
338.16458,338.36432,46,97,0
338.37097,338.5771,50,99,0
338.58374,338.7775,41,100,0
338.78375,338.97055,45,70,0
338.97632,339.15573,48,70,0
339.16153,339.3409,53,70,0
339.3467,339.5261,57,70,0
339.5319,339.71127,60,70,0
339.71707,339.89648,53,70,0
339.90225,340.08167,58,70,0
340.08743,340.26685,61,70,0
340.2726,340.45203,53,70,0
340.45782,340.6372,57,70,0
340.643,340.8224,60,70,0
340.8282,341.00757,53,70,0
341.01337,341.19278,57,70,0
341.19855,341.37796,60,70,0
341.38373,341.56314,53,70,0
341.5689,341.74832,58,60,0
341.75412,341.9335,61,50,0
341.9393,342.11868,53,50,0
342.12448,342.30386,57,50,0
342.30966,342.48907,60,50,0
342.49484,342.67426,53,50,0
342.68002,342.85944,57,50,0
342.8652,343.04462,60,50,0
343.0504,343.2298,53,50,0
343.2356,343.41498,58,50,0
343.42078,343.60016,61,50,0
343.60596,343.78537,53,50,0
343.79114,343.97055,57,50,0
343.97632,344.15573,60,50,0
344.1615,344.3409,53,50,0
344.3467,344.5261,57,50,0
344.5319,344.71127,60,50,0
344.71707,344.89645,53,50,0
344.90225,345.08167,58,50,0
345.08743,345.26685,61,50,0
345.2726,345.45203,53,50,0
345.4578,345.6372,57,50,0
345.643,345.8224,60,50,0
345.8282,346.00757,53,50,0
346.01337,346.19275,57,50,0
346.19855,346.37796,60,50,0
346.38373,346.56314,53,50,0
346.5689,346.74832,57,52,0
346.7541,346.9335,60,54,0
346.9393,347.11868,53,56,0
347.12448,347.30386,57,58,0
347.30966,347.48904,60,60,0
347.49484,347.67422,53,62,0
347.68002,347.85944,57,64,0
347.8652,348.04462,60,66,0
348.05038,348.2298,53,69,0
348.2356,348.41498,57,71,0
348.42078,348.60016,60,73,0
348.60596,348.78534,53,75,0
348.79114,348.97052,58,77,0
348.97632,349.15573,62,79,0
349.1615,349.3409,53,81,0
349.34668,349.5261,58,83,0
349.5319,349.71127,62,86,0
349.71707,349.89645,53,88,0
349.90225,350.08163,58,90,0
350.08743,350.2668,62,92,0
350.2726,350.45203,53,94,0
350.4578,350.6372,57,96,0
350.64297,350.8224,63,98,0
350.8282,351.00757,53,100,0
351.01337,351.19275,57,90,0
351.19855,351.37793,63,80,0
351.38373,351.5631,53,70,0
351.5689,351.74832,57,70,0
351.7541,351.9335,63,70,0
351.93927,352.11868,53,70,0
352.12448,352.30386,58,70,0
352.30966,352.48904,62,70,0
352.49484,352.67422,53,70,0
352.68002,352.8594,58,70,0
352.8652,353.04462,62,70,0
353.05038,353.2298,53,70,0
353.23557,353.41498,57,70,0
353.42078,353.60016,63,70,0
353.60596,353.78534,53,70,0
353.79114,353.97052,58,70,0
353.97632,354.1557,62,70,0
354.1615,354.3409,53,70,0
354.34668,354.5261,58,70,0
354.53186,354.71127,62,70,0
354.71707,354.89645,53,70,0
354.90225,355.08163,57,70,0
355.08743,355.2668,63,70,0
355.2726,355.452,53,70,0
355.4578,355.6372,58,70,0
355.64297,355.8224,62,70,0
355.82816,356.00757,53,70,0
356.01337,356.19275,58,70,0
356.19855,356.37793,62,70,0
356.38373,356.5631,53,70,0
356.5689,356.7483,57,70,0
356.7541,356.9335,63,70,0
356.93927,357.11868,53,70,0
357.12445,357.30386,58,70,0
357.30966,357.48904,62,70,0
357.49484,357.67422,53,70,0
357.68002,357.8594,58,70,0
357.8652,358.0446,62,70,0
358.05038,358.2298,53,70,0
358.23557,358.41498,59,70,0
358.42075,358.60016,62,70,0
358.60596,358.78534,53,70,0
358.79114,358.97052,59,70,0
358.97632,359.1557,62,70,0
359.1615,359.34088,53,70,0
359.34668,359.5261,59,70,0
359.53186,359.71127,62,70,0
359.71704,359.89645,53,70,0
359.90225,360.08163,59,70,0
360.08743,360.2668,62,70,0
360.2726,360.452,52,70,0
360.4578,360.63718,59,70,0
360.64297,360.8224,62,70,0
360.82816,361.00757,52,70,0
361.01334,361.19275,59,70,0
361.19852,361.37793,62,70,0
361.38373,361.5631,52,70,0
361.5689,361.7483,56,70,0
361.7541,361.93347,62,70,0
361.93927,362.11868,52,70,0
362.12445,362.30386,57,70,0
362.30963,362.48904,60,70,0
362.4948,362.67422,52,70,0
362.68002,362.8594,57,70,0
362.8652,363.0446,60,70,0
363.05038,363.22977,52,70,0
363.23557,363.41498,57,70,0
363.42075,363.60016,63,70,0
363.60593,363.78534,52,70,0
363.7911,363.97052,56,70,0
363.97632,364.1557,64,70,0
364.1615,364.34088,52,70,0
364.34668,364.52606,56,70,0
364.53186,364.71127,64,70,0
364.71704,364.89645,52,70,0
364.90222,365.08163,57,70,0
365.0874,365.2668,63,70,0
365.2726,365.452,52,70,0
365.4578,365.63718,56,70,0
365.64297,365.82236,64,70,0
365.82816,366.00757,52,70,0
366.01334,366.19275,56,70,0
366.19852,366.37793,64,70,0
366.3837,366.5631,52,70,0
366.5689,366.7483,57,70,0
366.7541,366.93347,63,70,0
366.93927,367.11865,52,70,0
367.12445,367.30386,56,70,0
367.30963,367.48904,64,70,0
367.4948,367.67422,52,70,0
367.68,367.8594,56,70,0
367.8652,368.0446,64,70,0
368.05038,368.22977,52,70,0
368.23557,368.41495,57,70,0
368.42075,368.60016,63,70,0
368.60593,368.78534,52,70,0
368.7911,368.97052,56,70,0
368.9763,369.1557,64,70,0
369.1615,369.34088,52,70,0
369.34668,369.52606,54,70,0
369.53186,369.71124,56,70,0
369.71704,369.90698,57,70,0
369.91312,370.11307,56,70,0
370.11984,370.33044,54,70,0
370.33725,370.98264,52,70,0
370.9894,371.16882,64,70,0
371.1746,371.354,63,70,0
371.3598,371.53918,61,70,0
371.54498,371.72437,59,70,0
371.73016,371.90955,61,70,0
371.91534,372.09476,63,70,0
372.10052,372.6503,64,70,0
372.6561,372.83548,52,70,0
372.84128,373.02066,54,70,0
373.02646,373.20584,56,70,0
373.21164,373.39102,57,70,0
373.39682,373.57623,56,70,0
373.582,373.7614,54,70,0
373.76718,373.9466,52,70,0
373.9524,374.13177,40,70,0
374.13757,374.31696,52,70,0
374.32275,374.50903,51,70,0
374.51505,374.70135,40,70,0
374.70737,374.89368,51,70,0
374.89966,375.0934,50,70,0
375.09967,375.2994,40,70,0
375.30606,375.51218,50,70,0
375.51883,376.15048,45,70,0
375.51883,376.15048,48,70,0
376.1571,376.33652,69,70,0
376.34232,376.5217,71,70,0
376.5275,376.70688,72,70,0
376.71268,376.89206,74,70,0
376.89786,377.07727,72,70,0
377.08304,377.26245,71,70,0
377.26822,377.818,69,70,0
377.8238,378.00317,69,70,0
378.00897,378.18835,68,70,0
378.19415,378.37357,66,70,0
378.37933,378.55875,64,70,0
378.5645,378.74393,66,70,0
378.7497,378.9291,68,70,0
378.9349,379.48465,69,70,0
379.49045,379.66983,69,70,0
379.67563,379.85504,71,70,0
379.8608,380.04022,72,70,0
380.046,380.2254,74,70,0
380.2312,380.41058,72,70,0
380.41638,380.59576,71,70,0
380.60156,380.78784,69,70,0
380.79385,380.98016,57,70,0
380.98618,381.1725,69,70,0
381.17847,381.37222,68,70,0
381.37848,381.57224,57,70,0
381.5785,381.77222,68,70,0
381.77847,381.98032,67,70,0
381.98682,382.19516,57,70,0
382.2021,382.41736,67,70,0
382.42432,383.08405,62,70,0
382.42432,383.08405,65,70,0
383.09097,383.2704,62,70,0
383.27615,383.45557,64,70,0
383.46136,383.64075,65,70,0
383.64655,383.82593,67,70,0
383.83173,384.0111,65,70,0
384.0169,384.1963,64,70,0
384.2021,384.75186,62,70,0
384.75763,384.93704,62,70,0
384.94284,385.12222,61,70,0
385.12802,385.3074,59,70,0
385.3132,385.49258,57,70,0
385.49838,385.6778,59,70,0
385.68356,385.86298,61,70,0
385.86874,386.41852,62,70,0
386.42432,386.6037,62,70,0
386.6095,386.78888,64,70,0
386.79468,386.9741,65,70,0
386.97986,387.15927,67,70,0
387.16504,387.34445,65,70,0
387.35022,387.52963,64,70,0
387.53543,387.7148,62,70,0
387.7206,387.9,50,70,0
387.9058,388.08517,62,70,0
388.09097,388.2704,61,70,0
388.27615,388.45557,50,70,0
388.46133,388.64075,61,70,0
388.6465,388.82593,60,70,0
388.83173,389.0111,50,70,0
389.0169,389.1963,60,70,0
389.2021,389.38147,59,70,0
389.38727,389.56668,51,70,0
389.57245,389.75186,59,70,0
389.75763,389.93704,59,70,0
389.9428,390.12222,51,70,0
390.12802,390.3074,59,70,0
390.3132,390.49258,59,70,0
390.49838,390.67776,51,70,0
390.68356,390.86298,59,70,0
390.86874,391.04816,59,70,0
391.05392,391.23334,52,70,0
391.2391,391.41852,59,71,0
391.42432,391.6037,59,72,0
391.6095,391.78888,52,73,0
391.79468,391.97406,59,74,0
391.97986,392.15927,59,75,0
392.16504,392.34445,52,76,0
392.35022,392.52963,59,77,0
392.5354,392.7148,57,77,0
392.7206,392.9,45,78,0
392.9058,393.08517,57,79,0
393.09097,393.27374,57,80,0
393.27966,393.46243,45,81,0
393.46832,393.65112,57,82,0
393.657,393.8433,57,83,0
393.8493,394.0392,45,84,0
394.04547,394.23923,57,85,0
394.24545,394.4392,50,85,0
394.44547,394.6339,38,86,0
394.6398,394.8226,50,87,0
394.8285,395.0046,50,88,0
395.0103,395.18643,38,89,0
395.1921,395.36826,50,90,0
395.37393,395.55008,50,91,0
395.55576,395.7319,38,92,0
395.73758,395.91373,50,93,0
395.9194,396.09552,50,93,0
396.10123,396.27734,38,94,0
396.28302,396.45917,50,95,0
396.46484,396.641,50,96,0
396.64667,396.8228,38,97,0
396.8285,397.0046,50,98,0
397.0103,397.18643,50,99,0
397.1921,397.36826,38,100,0
397.37393,397.55008,50,100,0
397.55576,397.7319,50,110,0
397.73758,397.9137,38,110,0
397.9194,398.09552,50,110,0
398.1012,398.27734,50,110,0
398.28302,398.45917,38,110,0
398.46484,398.641,50,110,0
398.64667,398.8228,50,110,0
398.8285,399.0046,38,110,0
399.0103,399.18643,50,110,0
399.1921,399.3749,81,70,0
399.3808,399.56357,83,70,0
399.5695,399.75226,81,70,0
399.75815,399.94095,81,70,0
399.94684,400.1296,83,70,0
400.13553,400.3183,81,70,0
400.3242,400.52188,81,70,0
400.52826,400.73447,83,70,0
400.74142,400.9567,81,70,0
400.96365,401.14642,50,110,0
401.1523,401.33188,38,110,0
401.3376,401.5137,50,110,0
401.51938,401.69553,50,110,0
401.7012,401.87735,38,110,0
401.88303,402.05917,50,110,0
402.06485,402.241,50,110,0
402.24667,402.4228,38,110,0
402.4285,402.6046,50,110,0
402.6103,402.7897,81,70,0
402.79547,402.97488,83,70,0
402.98068,403.16006,81,70,0
403.16586,403.34525,81,70,0
403.35104,403.53043,83,70,0
403.53622,403.71564,81,70,0
403.7214,403.90082,79,70,0
403.9066,404.086,81,70,0
404.09177,404.27118,79,70,0
404.27698,404.45636,78,70,0
404.46216,404.64154,79,70,0
404.64734,404.82672,78,70,0
404.83252,405.01193,78,70,0
405.0177,405.1971,79,70,0
405.20288,405.3823,78,70,0
405.38806,405.56747,76,70,0
405.57327,405.75266,78,70,0
405.75845,405.93784,76,70,0
405.94363,406.12302,75,70,0
406.1288,406.30823,74,70,0
406.314,406.4934,75,70,0
406.49918,406.6786,74,70,0
406.68436,406.86377,75,70,0
406.86957,407.04895,74,70,0
407.05475,407.23413,75,70,0
407.23993,407.4193,74,70,0
407.4251,407.60452,75,70,0
407.6103,407.7897,74,70,0
407.79547,407.97488,75,70,0
407.98065,408.16006,74,70,0
408.16586,408.3558,75,70,0
408.36194,408.55762,74,70,0
408.56415,408.76596,78,70,0
408.77246,408.9222,79,70,0
408.8506,409.00034,81,70,0
408.9287,409.07846,79,70,0
409.00684,409.1566,81,70,0
409.08496,409.2347,79,70,0
409.1631,409.31284,81,70,0
409.2412,409.39096,79,70,0
409.31934,409.39096,81,70,0
410.64746,410.7972,79,70,0
410.7256,410.87534,81,70,0
410.8037,410.95346,79,70,0
410.88184,411.0316,81,70,0
410.95996,411.1097,79,70,0
411.0381,411.18784,81,70,0
411.1162,411.26596,79,70,0
411.19434,411.26596,81,70,0
411.89746,412.51596,55,70,0
411.89746,412.51596,59,70,0
411.89746,412.51596,62,70,0
412.52246,413.14096,55,70,0
412.52246,413.14096,59,70,0
412.52246,413.14096,62,70,0
413.14746,414.39096,55,70,0
413.14746,414.39096,59,70,0
413.14746,414.39096,62,70,0
414.39746,415.01596,31,70,0
414.39746,415.01596,43,70,0
415.02246,416.26596,31,70,0
415.02246,416.26596,43,70,0
416.27246,416.8662,43,70,0
416.27246,416.8662,50,70,0
416.87247,417.46622,50,70,0
416.87247,417.46622,43,70,0
417.47247,418.06622,45,70,0
417.47247,418.06622,50,70,0
418.07248,418.71136,50,70,0
418.07248,418.71136,47,70,0
418.7183,419.04468,50,70,0
418.7183,419.37802,48,70,0
419.05164,419.37802,54,70,0
419.38498,420.04468,47,70,0
419.38498,420.04468,55,70,0
421.86414,422.16696,55,70,0
421.86414,422.16696,67,70,0
422.1734,422.4927,67,70,0
422.1734,422.4927,71,70,0
422.4995,422.8333,69,70,0
422.4995,423.20758,62,70,0
422.8404,423.20758,66,70,0
423.2154,423.95758,55,70,0
423.2154,423.95758,67,70,0
423.9654,424.5839,59,70,0
423.9654,424.5839,62,70,0
423.9654,424.5839,55,70,0
424.5904,425.8339,55,70,0
424.5904,425.8339,59,70,0
424.5904,425.8339,62,70,0
425.8404,426.43414,43,70,0
425.8404,426.43414,50,70,0
425.8404,426.43414,55,70,0
426.4404,427.03415,43,70,0
426.4404,427.03415,46,70,0
426.4404,427.03415,55,70,0
427.0404,427.63416,41,70,0
427.0404,427.63416,46,70,0
427.0404,427.63416,53,70,0
427.6404,428.2225,39,70,0
427.6404,428.2225,46,70,0
427.6404,428.2225,51,70,0
428.22864,428.82874,39,70,0
428.22864,428.82874,46,70,0
428.22864,428.82874,51,70,0
428.83527,429.45374,41,70,0
428.83527,429.45374,46,70,0
428.83527,429.45374,53,70,0
429.46027,429.76624,46,70,0
429.46027,430.07874,43,70,0
429.77277,430.07874,50,70,0
430.08527,430.73065,44,70,0
430.08527,430.73065,50,70,0
430.73743,431.4796,43,70,0
430.73743,431.4796,51,70,0
435.78278,436.0765,63,70,0
436.08276,436.37076,67,70,0
436.3769,436.6649,70,70,0
436.671,436.95898,75,70,0
436.96512,437.2531,70,70,0
437.25925,437.54724,67,70,0
437.55334,437.84134,63,70,0
437.84747,438.1299,67,70,0
438.13593,438.4184,70,70,0
438.4244,438.70685,75,70,0
438.71286,438.9953,70,70,0
439.0013,439.28378,67,70,0
439.2898,439.57224,63,70,0
439.57825,439.8607,67,70,0
439.8667,440.14917,70,70,0
440.15515,440.43762,75,70,0
440.44363,440.72607,79,70,0
440.7321,441.01453,79,70,0
441.02054,441.303,77,70,0
441.30902,441.58612,75,70,0
441.59204,441.86914,74,70,0
441.87506,442.15216,72,70,0
442.15808,442.43518,70,70,0
442.44107,442.7182,68,70,0
442.7241,443.00122,67,70,0
443.0071,443.28424,65,70,0
443.29013,443.56726,63,70,0
443.57315,443.85028,62,70,0
443.85617,444.14993,60,70,0
444.1562,444.47546,58,70,0
444.48227,445.08548,57,70,0
445.09137,445.3685,57,76,0
445.3744,445.65152,57,79,0
445.6574,445.93454,57,82,0
445.94043,446.21756,57,85,0
446.22345,446.50058,56,88,0
446.50647,446.78357,58,91,0
446.50647,446.78357,56,91,0
446.7895,447.0666,56,94,0
446.7895,447.0666,58,94,0
447.0725,447.3496,56,97,0
447.0725,447.3496,58,97,0
447.35553,447.64926,56,100,0
447.35553,447.64926,58,100,0
447.65552,447.9819,56,85,0
447.65552,447.9819,58,85,0
447.98886,449.9819,55,70,0
447.98886,449.9819,58,70,0
449.98886,450.61594,69,70,0
449.98886,450.61594,72,70,0
450.6222,450.8993,69,73,0
450.6222,450.8993,72,73,0
450.9052,451.1823,69,76,0
450.9052,451.1823,72,76,0
451.18823,451.46533,69,80,0
451.18823,451.46533,72,80,0
451.47122,451.74835,69,83,0
451.47122,451.74835,72,83,0
451.75424,452.03137,68,87,0
451.75424,452.03137,70,87,0
452.03726,452.3144,68,90,0
452.03726,452.3144,70,90,0
452.03726,452.3144,74,90,0
452.32028,452.5974,68,94,0
452.32028,452.5974,70,94,0
452.32028,452.5974,74,94,0
452.6033,452.88043,68,97,0
452.6033,452.88043,70,97,0
452.6033,452.88043,74,97,0
452.88632,453.18008,68,100,0
452.88632,453.18008,70,100,0
452.88632,453.18008,74,100,0
453.18634,453.51273,68,85,0
453.18634,453.51273,70,85,0
453.18634,453.51273,74,85,0
453.51965,455.51273,67,70,0
453.51965,455.51273,70,70,0
453.51965,455.51273,75,70,0
455.51965,456.06943,34,110,0
455.51965,456.06943,46,110,0
457.4641,457.73608,51,110,0
457.4641,457.73608,55,110,0
457.74188,458.0139,51,110,0
457.74188,458.0139,55,110,0
458.01965,458.29166,51,110,0
458.01965,458.29166,55,110,0
458.29742,458.56943,51,110,0
458.29742,458.56943,55,110,0
458.57523,458.8472,51,110,0
458.57523,458.8472,55,110,0
458.853,459.12497,53,110,0
458.853,459.12497,56,110,0
459.13077,459.40277,65,70,0
459.13077,459.40277,68,70,0
459.40854,459.68054,65,70,0
459.40854,459.68054,68,70,0
459.6863,459.9583,65,70,0
459.6863,459.9583,68,70,0
459.9641,460.23608,65,70,0
459.9641,460.23608,68,70,0
460.24188,460.51385,65,70,0
460.24188,460.51385,68,70,0
460.51965,462.18054,67,70,0
460.51965,462.18054,70,70,0
462.1863,462.73608,46,70,0
462.1863,462.73608,58,70,0
464.13077,464.40274,39,110,0
464.13077,464.40274,51,110,0
464.40854,464.68054,39,110,0
464.40854,464.68054,51,110,0
464.6863,464.9583,39,110,0
464.6863,464.9583,51,110,0
464.96408,465.23608,39,110,0
464.96408,465.23608,51,110,0
465.24188,465.51385,39,110,0
465.24188,465.51385,51,110,0
465.79742,466.06943,49,110,0
465.79742,466.06943,61,110,0
466.0752,466.3472,49,110,0
466.0752,466.3472,61,110,0
466.353,466.62497,49,110,0
466.353,466.62497,61,110,0
466.63077,466.90274,49,95,0
466.63077,466.90274,61,95,0
466.90854,467.18054,49,85,0
466.90854,467.18054,61,85,0
467.1863,467.4583,50,70,0
467.46408,467.73608,62,70,0
467.74188,468.01385,50,70,0
468.01965,468.29163,62,70,0
468.29742,468.56943,50,70,0
468.5752,468.8472,62,70,0
468.85297,469.12497,50,70,0
469.13077,469.40274,62,70,0
469.40854,469.6805,50,70,0
469.6863,469.9583,62,70,0
469.96408,470.23608,50,70,0
470.24188,470.51385,62,70,0
470.51965,470.79163,50,70,0
470.79742,471.06943,62,70,0
471.0752,471.3472,50,70,0
471.35297,471.62497,62,70,0
471.63077,471.90274,50,70,0
471.90854,472.1805,62,70,0
472.1863,472.4583,50,70,0
472.46408,472.73608,62,70,0
472.74185,473.01385,50,70,0
473.01965,473.29163,62,70,0
473.29742,473.5694,50,70,0
473.5752,473.8472,62,70,0
473.85297,474.12497,50,70,0
474.13074,474.40274,62,70,0
474.40854,474.6805,50,70,0
474.6863,474.9583,60,70,0
474.96408,475.23608,50,70,0
475.24185,475.51385,57,70,0
475.51965,475.79163,50,70,0
475.79742,476.0694,50,70,0
476.0752,476.2546,38,70,0
476.26038,476.4398,40,70,0
476.44556,476.62497,42,70,0
476.63074,476.81015,43,70,0
476.81595,476.99533,45,70,0
477.00113,477.1805,47,70,0
477.1863,477.3657,48,70,0
477.3715,477.55087,50,70,0
477.55667,477.73608,52,70,0
477.74185,477.92126,54,70,0
477.92703,478.10645,55,70,0
478.11224,478.29163,57,70,0
478.29742,478.4768,59,70,0
478.4826,478.662,60,70,0
478.6678,478.84717,61,70,0
478.85297,479.12497,62,70,0
479.40854,479.59482,62,70,0
479.60083,479.79074,66,70,0
479.797,479.99072,69,70,0
479.99698,480.2031,74,70,0
480.20975,480.42267,76,70,0
480.42978,480.64993,78,70,0
480.65704,480.9508,79,70,0
481.09595,481.22903,81,70,0
481.23483,482.34015,83,70,0
482.34592,482.61792,72,70,0
482.34592,482.61792,76,70,0
482.7626,482.8957,74,70,0
482.7626,482.8957,78,70,0
482.9015,484.0068,76,70,0
482.9015,484.0068,79,70,0
484.0126,484.28458,72,70,0
484.0126,484.28458,76,70,0
484.42926,484.56238,72,70,0
484.42926,484.56238,76,70,0
484.56815,484.84015,72,70,0
484.56815,484.84015,76,70,0
484.98483,485.11792,71,70,0
484.98483,485.11792,74,70,0
485.12372,485.3957,71,70,0
485.12372,485.3957,74,70,0
485.54037,485.67346,71,70,0
485.54037,485.67346,74,70,0
485.67926,486.22903,71,70,0
485.67926,486.22903,74,70,0
486.2348,487.34015,69,70,0
486.2348,487.34015,72,70,0
487.34592,487.61792,69,70,0
487.34592,487.61792,72,70,0
487.7626,487.8957,71,77,0
487.7626,487.8957,74,77,0
487.9015,489.0068,72,80,0
487.9015,489.0068,76,80,0
489.0126,489.28458,74,100,0
489.0126,489.28458,78,100,0
489.42926,489.56235,76,108,0
489.42926,489.56235,79,108,0
489.56815,490.3957,81,110,0
489.56815,490.3957,78,110,0
490.4015,490.67346,76,70,0
490.4015,490.67346,79,70,0
490.67926,490.95123,74,70,0
490.67926,490.95123,78,70,0
490.95703,491.22903,72,70,0
490.95703,491.22903,76,70,0
491.2348,491.5068,71,70,0
491.2348,491.5068,74,70,0
491.5126,491.78458,69,70,0
491.5126,491.78458,72,70,0
491.79037,492.06235,67,70,0
491.79037,492.06235,71,70,0
492.06815,492.34015,66,70,0
492.06815,492.34015,69,70,0
492.34592,492.52533,66,70,0
492.34592,492.52533,69,70,0
492.5311,492.71384,64,70,0
492.5311,492.71384,67,70,0
492.71985,492.90616,62,70,0
492.71985,492.90616,66,70,0
492.91217,493.1059,62,70,0
493.11215,493.3098,60,70,0
493.3163,493.51816,59,70,0
493.52466,493.73993,59,70,0
493.7469,493.9752,58,70,0
493.983,494.2252,57,70,0
494.233,494.805,55,70,0
494.233,494.805,59,70,0
494.81076,495.36053,43,70,0
494.81076,495.36053,55,70,0
495.92188,496.47165,36,70,0
495.92188,496.47165,48,70,0
497.58853,497.86053,36,70,0
497.58853,497.86053,48,70,0
498.1441,498.41608,40,70,0
498.1441,498.41608,52,70,0
498.69965,498.97165,40,70,0
498.69965,498.97165,52,70,0
499.25522,499.5272,45,70,0
499.25522,499.5272,57,70,0
499.81076,500.08276,45,70,0
499.81076,500.08276,57,70,0
500.92188,501.19388,45,70,0
500.92188,501.19388,57,70,0
502.58853,502.86053,38,100,0
502.58853,502.86053,50,100,0
503.1441,503.97165,50,110,0
503.1441,503.97165,54,110,0
503.1441,503.97165,57,110,0
503.97742,504.24942,59,70,0
503.97742,504.24942,62,70,0
504.25522,504.5272,57,70,0
504.25522,504.5272,60,70,0
504.533,504.80496,67,70,0
504.533,504.80496,71,70,0
504.81076,505.08276,66,70,0
504.81076,505.08276,69,70,0
505.08853,505.36053,64,70,0
505.08853,505.36053,67,70,0
505.3663,505.6383,62,70,0
505.3663,505.6383,66,70,0
505.6441,505.91608,60,70,0
505.6441,505.91608,64,70,0
505.92188,506.19385,59,70,0
505.92188,506.19385,62,70,0
506.19965,506.47165,57,70,0
506.19965,506.47165,60,70,0
506.47742,506.74942,55,70,0
506.47742,506.74942,59,70,0
506.75522,507.0272,54,70,0
506.75522,507.0272,57,70,0
507.033,507.30496,52,70,0
507.033,507.30496,55,70,0
507.31076,507.58276,50,70,0
507.31076,507.58276,54,70,0
507.58853,507.86053,48,70,0
507.58853,507.86053,52,70,0
507.8663,508.1383,47,70,0
507.8663,508.1383,50,70,0
508.1441,508.42654,45,70,0
508.1441,508.42654,48,70,0
508.43256,508.715,43,70,0
508.43256,508.715,48,70,0
508.721,509.31476,42,70,0
508.721,509.31476,45,70,0
508.721,509.31476,48,70,0
509.321,509.927,42,70,0
509.321,509.927,48,70,0
509.9335,510.5724,38,70,0
509.9335,510.5724,50,70,0
510.57935,511.3994,38,70,0
510.57935,511.3994,50,70,0
511.4089,512.0686,39,70,0
511.4089,512.0686,51,70,0
512.07556,513.4019,39,60,0
512.07556,513.4019,46,60,0
512.07556,513.4019,51,60,0
513.4089,515.4019,39,60,0
513.4089,515.4019,46,60,0
513.4089,515.4019,50,60,0
515.4089,516.7072,39,60,0
515.4089,516.7072,46,60,0
515.4089,516.7072,51,60,0
516.71387,517.3402,51,60,0
516.71387,517.3402,55,60,0
516.71387,517.3402,58,60,0
517.34717,517.9657,50,60,0
517.34717,517.9657,55,60,0
517.34717,517.9657,59,60,0
517.97217,518.5907,50,60,0
517.97217,518.5907,55,60,0
517.97217,518.5907,59,60,0
518.59717,519.27295,50,60,0
518.59717,519.27295,57,60,0
518.59717,519.27295,60,60,0
519.2804,519.8863,51,70,0
519.2804,519.8863,55,70,0
519.2804,519.8863,58,70,0
519.89264,521.1108,39,70,0
519.89264,521.1108,46,70,0
519.89264,521.1108,51,70,0
521.1171,521.92706,39,70,0
521.1171,521.92706,46,70,0
521.1171,521.92706,50,70,0
521.9335,522.13116,53,70,0
522.1376,522.33527,55,70,0
522.3416,522.5393,58,70,0
522.5457,522.7434,57,70,0
522.7498,522.9475,53,70,0
522.95386,523.15155,53,70,0
523.15796,523.35565,55,70,0
523.36206,523.55975,55,70,0
523.5661,523.7722,51,70,0
523.7789,523.985,63,70,0
523.99164,524.19775,65,70,0
524.2044,524.4197,68,70,0
524.42664,524.64935,67,70,0
524.6568,524.88745,63,70,0
524.8949,525.18866,52,70,0
525.1949,525.48865,64,72,0
525.4949,525.78864,52,74,0
525.7949,526.0886,64,77,0
526.0949,526.3887,52,79,0
526.3949,526.68866,64,82,0
526.6949,526.98865,52,84,0
526.9949,527.28864,64,87,0
527.2949,527.5886,50,89,0
527.5949,527.8887,62,92,0
527.8949,528.18866,57,94,0
528.1949,528.48865,69,97,0
528.4949,528.78864,54,100,0
528.7949,529.0886,66,100,0
529.0949,529.3887,60,100,0
529.3949,529.68866,72,100,0
529.6949,529.98865,57,100,0
529.9949,530.28864,69,100,0
530.2949,530.5886,66,100,0
530.5949,530.8887,78,100,0
530.8949,531.18866,60,100,0
531.1949,531.48865,72,100,0
531.4949,531.78864,69,100,0
531.7949,532.0886,81,100,0
532.0949,532.3887,66,100,0
532.3949,532.68866,78,100,0
532.6949,532.98865,72,100,0
532.9949,533.28864,84,100,0
533.2949,533.5886,69,100,0
533.5949,533.8887,81,100,0
533.8949,534.18866,72,100,0
534.1949,534.48865,84,100,0
534.4949,534.8009,70,100,0
534.8074,535.1134,82,100,0
535.1199,535.4463,72,100,0
535.45325,535.7796,84,90,0
535.78656,535.9884,72,70,0
535.9949,536.1967,76,70,0
536.20325,536.405,79,70,0
536.41156,536.7175,72,70,0
537.66156,537.8634,72,70,0
537.8699,538.0717,76,70,0
538.07825,538.28,81,70,0
538.28656,538.5925,72,70,0
540.16156,540.80695,60,70,0
540.16156,540.80695,64,70,0
540.8137,541.5559,62,70,0
540.8137,541.5559,66,70,0
541.5637,542.18225,55,70,0
541.5637,542.18225,62,70,0
541.5637,542.18225,67,70,0
542.5012,542.80725,43,70,0
542.8137,543.11975,45,70,0
543.1262,543.43225,47,70,0
543.4387,543.64056,48,70,0
543.6471,543.8489,52,70,0
543.8554,544.05725,55,70,0
544.0637,544.36975,60,70,0
545.3137,545.51556,48,70,0
545.5221,545.7239,52,70,0
545.7304,545.93225,57,70,0
545.9387,546.24475,60,70,0
547.8137,548.4591,50,70,0
547.8137,548.4591,57,70,0
547.8137,548.4591,60,70,0
548.4659,549.20807,50,70,0
548.4659,549.20807,57,70,0
548.4659,549.20807,60,70,0
549.2159,549.4177,55,70,0
549.2159,549.4177,59,70,0
549.42426,549.6185,57,70,0
549.6246,549.81085,59,70,0
549.8169,550.0032,60,70,0
550.00916,550.1955,59,70,0
550.2015,550.38776,57,70,0
550.3938,550.5801,55,70,0
550.5861,550.7724,57,70,0
550.7784,550.9647,59,70,0
550.9707,551.157,60,70,0
551.163,551.346,59,70,0
551.35175,551.5312,57,70,0
551.5369,551.7164,55,70,0
551.7221,551.90155,54,70,0
551.90735,552.08673,52,70,0
552.0925,552.2719,50,70,0
552.2777,552.4571,48,70,0
552.4629,552.6423,47,70,0
552.6481,552.82745,45,70,0
552.83325,553.01263,43,70,0
553.01843,553.1978,42,70,0
553.2036,553.4974,40,70,0
553.2036,553.4974,52,70,0
553.8036,554.13,38,70,0
553.8036,554.13,50,70,0
554.4703,554.66406,67,70,0
554.6703,554.8571,69,70,0
554.86285,555.0423,71,70,0
555.04803,555.2275,72,70,0
555.2332,555.41266,71,70,0
555.41846,555.59784,69,70,0
555.60364,555.783,67,70,0
555.7888,555.9682,69,70,0
555.974,556.1534,71,70,0
556.1592,556.33856,72,70,0
556.34436,556.52374,71,70,0
556.52954,556.7089,69,70,0
556.7147,556.8941,67,70,0
556.8999,557.0793,66,70,0
557.0851,557.26447,64,70,0
557.27026,557.4497,62,70,0
557.45544,557.6349,60,70,0
557.6406,557.82007,59,70,0
557.8258,558.00525,57,70,0
558.01105,558.1904,55,70,0
558.1962,558.3756,54,70,0
558.3814,558.6638,52,70,0
558.3814,558.6638,64,70,0
558.9583,559.15204,50,70,0
559.1583,559.35205,57,71,0
559.35834,559.55206,60,72,0
559.5583,559.7446,50,73,0
559.7506,559.9336,57,75,0
559.9394,560.1188,60,76,0
560.1246,560.30396,50,77,0
560.30975,560.48914,57,79,0
560.49493,560.6743,60,80,0
560.6801,560.8595,50,81,0
560.8653,561.0447,54,82,0
561.0505,561.22986,57,84,0
561.23566,561.41504,50,85,0
561.42084,561.6002,55,86,0
561.606,561.7854,59,88,0
561.7912,561.97064,50,89,0
561.9764,562.1558,55,90,0
562.16156,562.341,59,91,0
562.3468,562.5262,50,93,0
562.532,562.71136,55,94,0
562.71716,562.89655,59,95,0
562.90234,563.0817,50,97,0
563.0875,563.2669,54,98,0
563.2727,563.4521,60,99,0
563.4579,563.63727,50,100,0
563.64307,563.82245,54,90,0
563.82825,564.0076,60,80,0
564.0134,564.1928,50,70,0
564.1986,564.378,54,70,0
564.3838,564.56323,60,70,0
564.569,564.7484,50,70,0
564.75415,564.9336,55,70,0
564.9394,565.1188,59,70,0
565.1246,565.30396,50,70,0
565.30975,565.48914,55,71,0
565.49493,565.6743,59,72,0
565.6801,565.8595,50,73,0
565.8653,566.0447,48,74,0
566.0505,566.22986,45,75,0
566.23566,566.41504,38,76,0
566.42084,566.6002,45,78,0
566.606,566.7854,48,79,0
566.7912,566.9706,38,80,0
566.9764,567.1558,45,81,0
567.16156,567.341,48,82,0
567.34674,567.5262,38,83,0
567.532,567.71136,42,84,0
567.71716,567.89655,45,86,0
567.90234,568.0817,38,87,0
568.0875,568.2669,42,88,0
568.2727,568.4521,45,89,0
568.4579,568.63727,38,90,0
568.64307,568.82245,43,91,0
568.82825,569.0076,47,92,0
569.0134,569.1928,38,94,0
569.1986,569.378,43,95,0
569.3838,569.5632,47,96,0
569.569,569.7484,38,97,0
569.75415,569.9336,42,98,0
569.93933,570.1188,48,99,0
570.1246,570.30396,38,100,0
570.30975,570.48914,42,90,0
570.49493,570.6743,48,80,0
570.6801,570.8595,38,70,0
570.8653,571.0447,42,70,0
571.0505,571.22986,45,70,0
571.23566,571.41504,38,70,0
571.42084,571.6002,43,70,0
571.606,571.7854,47,69,0
571.7912,571.9706,38,69,0
571.9764,572.15576,43,68,0
572.16156,572.341,47,67,0
572.34674,572.5262,38,67,0
572.5319,572.71136,42,66,0
572.7171,572.89655,45,66,0
572.90234,573.0817,38,65,0
573.0875,573.2669,43,64,0
573.2727,573.4521,47,64,0
573.4579,573.63727,38,63,0
573.64307,573.82245,43,63,0
573.82825,574.0076,47,62,0
574.0134,574.1928,38,61,0
574.1986,574.378,42,61,0
574.3838,574.5632,45,60,0
574.569,574.74835,38,60,0
574.75415,574.9336,43,60,0
574.93933,575.1188,47,60,0
575.1245,575.30396,38,60,0
575.3097,575.48914,43,60,0
575.49493,575.6743,47,60,0
575.6801,575.8595,38,60,0
575.8653,576.0447,42,60,0
576.0505,576.22986,45,60,0
576.23566,576.41504,38,60,0
576.42084,576.6002,43,60,0
576.606,576.7854,47,60,0
576.7912,576.9706,54,60,0
576.9764,577.15576,55,60,0
577.16156,577.34094,59,60,0
577.34674,577.5262,50,60,0
577.5319,577.71136,54,60,0
577.7171,577.89655,57,60,0
577.9023,578.0817,50,60,0
578.0875,578.2669,55,60,0
578.2727,578.4521,59,60,0
578.4579,578.63727,54,60,0
578.64307,578.82245,55,60,0
578.82825,579.0076,59,60,0
579.0134,579.1928,50,60,0
579.1986,579.378,54,60,0
579.3838,579.5632,57,60,0
579.569,579.74835,50,60,0
579.75415,579.93353,55,60,0
579.93933,580.1188,59,60,0
580.1245,580.30396,54,60,0
580.3097,580.48914,55,60,0
580.4949,580.6743,59,60,0
580.6801,580.8595,50,60,0
580.8653,581.0447,54,60,0
581.0505,581.22986,57,60,0
581.23566,581.4184,50,60,0
581.4243,581.6071,55,60,0
581.613,581.7958,59,60,0
581.8017,581.98444,54,60,0
581.99036,582.17316,55,60,0
582.179,582.3618,59,60,0
582.36774,582.554,50,60,0
582.56,582.74634,54,60,0
582.7523,582.93866,57,60,0
582.94464,583.13837,50,60,0
583.14465,583.3384,55,60,0
583.34467,583.5384,59,60,0
583.5446,583.74646,54,60,0
583.753,583.9548,55,60,0
583.9613,584.16315,59,60,0
584.1696,584.3849,48,60,0
584.39185,584.6071,55,60,0
584.6141,584.82935,60,60,0
584.8363,585.49603,48,60,0
584.8363,585.49603,55,60,0
584.8363,585.49603,60,60,0
586.1696,586.76337,48,60,0
586.1696,586.76337,52,60,0
586.76965,588.0752,48,60,0
586.76965,588.0752,52,60,0
588.08215,588.6759,60,60,0
588.08215,588.6759,64,60,0
588.6821,589.2759,60,60,0
588.6821,589.2759,64,60,0
589.28217,589.8759,62,60,0
589.28217,589.8759,65,60,0
589.88214,590.4759,64,60,0
589.88214,590.4759,67,60,0
590.4821,592.2759,64,60,0
590.4821,592.2759,67,60,0
592.28217,592.8701,61,60,0
592.58215,593.16425,64,60,0
592.8763,593.4584,67,60,0
593.17035,593.7525,70,60,0
593.4645,594.0466,67,60,0
593.7586,594.0466,64,60,0
594.05273,594.6293,69,60,0
594.34686,594.9177,66,60,0
594.6353,595.20624,63,60,0
594.92377,595.4947,60,60,0
595.2122,595.78314,63,60,0
595.5007,595.78314,66,60,0
595.7891,596.35474,59,60,0
596.07764,596.63776,62,60,0
596.36066,596.9208,65,60,0
596.6437,597.2038,68,60,0
596.92664,597.4868,65,60,0
597.20966,597.4868,62,60,0
597.4927,598.0477,67,60,0
597.7757,598.3255,64,60,0
598.0535,598.6033,61,60,0
598.3313,598.88104,58,60,0
598.6091,599.1588,61,60,0
598.88684,599.1588,64,60,0
599.1646,599.71436,66,60,0
599.4424,599.9921,63,60,0
599.72015,600.26996,60,60,0
599.9979,600.26996,57,60,0
600.2757,600.4088,36,60,0
600.34515,600.4783,38,60,0
600.4146,600.5477,36,60,0
600.4841,600.6171,38,60,0
600.55347,600.6866,36,60,0
600.6229,600.75604,38,60,0
600.6924,600.8255,36,60,0
600.76184,600.89496,38,60,0
600.8313,601.38104,41,60,0
601.1091,601.6588,39,60,0
601.38684,602.4921,36,60,0
603.6091,603.7421,36,60,0
603.67847,603.8116,38,60,0
603.7479,603.88104,36,60,0
603.8174,603.9505,38,60,0
603.88684,604.01996,36,60,0
603.9563,604.08936,38,60,0
604.0257,604.1588,36,60,0
604.09515,604.2283,38,60,0
604.1646,604.71436,41,60,0
604.4424,604.9921,39,60,0
604.72015,605.8255,36,60,0
606.9424,607.0755,37,60,0
607.01184,607.1449,38,60,0
607.08124,607.21436,37,60,0
607.1507,607.2838,38,60,0
607.22015,607.3533,37,60,0
607.2896,607.4227,38,60,0
607.3591,607.4921,37,60,0
607.42847,607.5616,38,60,0
607.4979,608.0477,42,60,0
607.7757,608.3255,40,60,0
608.05347,609.1588,37,60,0
610.2757,610.4088,37,60,0
610.34515,610.4783,38,60,0
610.4146,610.5477,37,60,0
610.4841,610.6171,38,60,0
610.55347,610.6866,37,60,0
610.6229,610.75604,38,60,0
610.6924,610.8255,37,60,0
610.76184,610.8949,38,60,0
610.83124,611.38104,42,60,0
611.1091,611.6588,40,60,0
611.38684,612.4921,37,60,0
613.609,613.7421,38,66,0
613.67847,613.8116,40,67,0
613.7479,613.88104,38,67,0
613.8174,613.9505,40,68,0
613.88684,614.0199,38,68,0
613.95624,614.08936,40,68,0
614.0257,614.1588,38,69,0
614.09515,614.2283,40,69,0
614.1646,614.71436,45,70,0
614.4424,614.9921,43,71,0
614.72015,616.38104,38,73,0
615.83124,616.38104,48,80,0
616.109,616.6588,47,82,0
616.38684,618.04767,43,83,0
617.4979,618.04767,52,90,0
617.7757,618.32544,50,92,0
618.05347,619.71436,47,93,0
619.1646,619.71436,57,100,0
619.4424,620.0026,55,102,0
619.72015,621.00916,50,104,0
621.01697,621.6107,50,110,0
621.01697,621.6107,55,110,0
621.01697,621.6107,59,110,0
624.01697,624.31067,54,60,0
624.01697,624.31067,50,60,0
624.01697,624.31067,57,60,0
624.01697,624.31067,60,60,0
624.61694,625.2107,54,70,0
624.61694,625.2107,50,70,0
624.61694,625.2107,57,70,0
624.61694,625.2107,60,70,0
628.36694,628.5107,62,62,0
628.51697,628.6607,64,64,0
628.66693,628.81067,67,66,0
628.81696,628.9607,65,68,0
628.9669,629.1107,66,70,0
629.11694,629.2607,69,72,0
629.26697,629.4107,67,74,0
629.41693,629.56067,68,76,0
629.56696,629.7107,69,79,0
629.7169,629.8607,72,81,0
629.86694,630.0107,71,83,0
630.01697,630.1607,71,85,0
630.16693,630.31067,72,87,0
630.31696,630.4607,71,89,0
630.4669,630.6107,72,91,0
630.61694,630.7607,72,93,0
630.69196,630.8357,74,95,0
630.76697,630.9107,72,96,0
630.8419,630.9857,74,97,0
630.91693,631.06067,72,98,0
630.99194,631.1357,74,99,0
631.06696,631.2107,72,100,0
631.14197,631.2857,74,101,0
631.2169,631.3607,72,102,0
631.29193,631.43567,74,103,0
631.36694,631.5107,72,104,0
631.44196,631.5857,74,105,0
631.51697,631.6607,72,106,0
631.5919,631.7357,74,107,0
631.66693,631.81067,72,108,0
631.74194,631.8857,74,109,0
631.81696,631.9607,72,110,0
631.89197,632.0357,74,110,0
631.9669,632.1107,72,109,0
632.04193,632.18567,74,108,0
632.11694,632.2607,72,107,0
632.19196,632.3357,74,106,0
632.26697,632.4107,72,105,0
632.3419,632.4857,74,105,0
632.41693,632.56067,72,104,0
632.49194,632.6357,74,103,0
632.56696,632.7107,72,102,0
632.64197,632.7857,74,101,0
632.7169,632.8607,72,100,0
632.79193,632.93567,74,99,0
632.86694,633.0107,72,99,0
632.94196,633.0857,74,98,0
633.01697,633.1607,72,97,0
633.0919,633.2357,74,96,0
633.16693,633.31067,72,95,0
633.24194,633.3857,74,94,0
633.31696,633.4607,72,93,0
633.39197,633.5357,74,93,0
633.4669,633.6107,72,92,0
633.54193,633.68567,74,91,0
633.61694,633.7607,72,90,0
633.69196,633.8357,74,89,0
633.76697,633.9107,72,88,0
633.8419,633.9857,74,87,0
633.91693,634.06067,72,87,0
633.99194,634.1357,74,86,0
634.06696,634.2107,72,85,0
634.14197,634.2857,74,84,0
634.2169,634.3607,72,83,0
634.29193,634.43567,74,82,0
634.36694,634.5107,72,82,0
634.44196,634.5857,74,81,0
634.51697,634.6607,72,80,0
634.5919,634.7357,74,79,0
634.66693,634.81067,72,78,0
634.74194,634.8857,74,77,0
634.81696,634.9607,72,76,0
634.89197,635.0357,74,76,0
634.9669,635.1107,72,75,0
635.04193,635.18567,74,74,0
635.11694,635.2607,72,73,0
635.19196,635.3357,74,72,0
635.26697,635.4107,72,71,0
635.3419,635.4857,74,70,0
635.41693,636.0107,72,60,0
635.7169,636.31067,69,60,0
636.01697,636.6107,66,60,0
636.31696,636.9107,60,60,0
636.61694,637.2107,57,60,0
636.91693,637.5107,54,60,0
637.2169,637.81067,50,60,0
637.51697,638.1107,54,60,0
637.81696,638.4107,57,60,0
638.11694,638.7107,60,60,0
638.41693,639.0107,57,60,0
638.7169,639.31067,54,60,0
639.01697,640.81067,50,60,0
640.81696,641.4107,43,60,0
641.11694,641.7107,47,60,0
641.41693,642.0107,50,60,0
641.7169,642.31067,55,60,0
642.01697,642.6107,50,60,0
642.31696,642.9107,47,60,0
642.61694,644.4107,43,60,0
644.41693,645.0107,43,60,0
644.7169,645.31067,47,60,0
645.01697,645.6107,50,60,0
645.31696,645.9107,55,60,0
645.61694,646.2107,50,60,0
645.91693,646.5107,47,60,0
647.11694,647.7107,43,57,0
647.41693,648.0107,38,56,0
647.7169,648.31067,35,54,0
648.01697,648.6107,31,53,0
648.31696,648.9107,35,52,0
648.61694,649.2229,38,51,0
648.91693,649.5354,43,50,0
649.22943,649.8479,38,50,0
649.54193,650.1604,35,50,0
649.85443,650.4862,31,50,0
650.16693,650.8123,35,50,0
650.49304,651.1384,38,50,0
650.8191,651.4645,43,50,0
651.1452,651.7906,38,50,0
651.4713,652.11664,35,50,0
651.79736,652.44275,31,50,0
652.1235,652.76886,35,50,0
652.4495,653.0949,38,50,0
652.77563,653.421,43,50,0
653.10175,653.7471,38,50,0
653.4278,653.7471,35,50,0
653.7539,654.3993,31,50,0
654.07996,654.73987,43,50,0
654.40607,655.08075,33,50,0
654.74695,655.43756,45,50,0
655.0879,655.79474,35,50,0
655.445,656.15186,47,50,0
655.8022,656.50903,36,50,0
656.1593,656.86615,48,50,0
656.5165,657.22327,36,50,0
656.8736,657.5571,48,50,0
657.2307,657.85785,36,58,0
657.5641,658.15784,48,67,0
657.8641,658.4578,36,76,0
658.16406,658.7578,48,84,0
658.46405,659.0578,36,93,0
658.7641,659.39044,48,102,0
659.0641,659.39044,50,110,0
659.0641,659.39044,38,110,0
659.7307,660.39044,43,120,0
659.7307,660.39044,31,120,0
0.0,0.27199048,67,1,45
408.77246,409.39096,55,70,45
410.64746,411.26596,55,70,45
