start_time,end_time,note_value,velocity,instrument_program_number
0.0,1.105323,67,55,40
0.0,1.105323,59,55,40
1.11111,2.216433,69,55,40
1.11111,2.771988,62,55,40
2.22222,2.771988,71,55,40
2.777775,3.6053205,67,55,40
2.777775,3.6053205,71,55,40
3.6111076,3.883098,66,55,40
3.6111076,3.883098,69,55,40
3.888885,4.438653,60,55,40
3.888885,4.438653,69,55,40
4.44444,5.549763,59,55,40
4.44444,5.549763,67,55,40
5.55555,7.216428,67,67,40
5.55555,7.771983,57,67,40
7.222215,7.771983,66,85,40
7.77777,8.054893,59,55,40
7.77777,8.054893,67,55,40
8.060788,8.626259,62,55,40
8.632269,8.914721,60,55,40
8.92073,9.470498,59,70,40
8.92073,9.470498,67,70,40
9.476285,9.615173,72,70,40
9.615173,9.754063,71,70,40
9.754063,9.892951,69,70,40
9.892951,10.03184,67,70,40
10.03184,10.309617,69,70,40
10.309617,10.512163,74,70,40
10.587395,10.789941,74,70,40
11.14295,11.692718,71,70,40
11.698505,11.837394,72,70,40
11.837394,11.976282,71,70,40
11.976282,12.115171,69,70,40
12.115171,12.25406,67,70,40
12.25406,12.531837,71,70,40
12.531837,12.734384,69,70,40
12.809615,13.012161,69,70,40
13.36517,13.914938,67,70,40
13.920725,14.059614,72,76,40
14.059614,14.198503,71,77,40
14.198503,14.337391,69,79,40
14.337391,14.47628,67,80,40
14.47628,14.754058,76,82,40
14.754058,14.956604,79,85,40
15.031835,15.234381,79,88,40
15.58739,15.865168,69,94,40
15.865168,16.067713,74,97,40
16.142944,16.345491,74,100,40
16.6985,16.981518,71,70,40
16.981518,17.54699,62,70,40
17.552998,17.84146,62,70,40
17.84146,18.391228,61,70,40
18.397015,18.946783,61,70,40
18.397015,18.946783,66,70,40
18.95257,20.057894,63,70,40
18.95257,20.057894,66,70,40
20.06368,21.169003,61,70,40
20.06368,21.169003,66,70,40
21.17479,21.724558,63,70,40
21.17479,22.280113,66,70,40
21.730345,22.280113,62,70,40
22.2859,23.391224,62,70,40
22.2859,23.391224,65,70,40
23.39701,23.946777,64,82,40
23.952564,24.502333,67,88,40
23.39701,25.057888,60,82,40
24.50812,25.057888,66,94,40
25.063675,25.613443,57,100,40
25.063675,25.613443,66,100,40
25.61923,25.896353,59,70,40
25.61923,25.896353,67,70,40
25.902248,26.467718,62,70,40
26.473728,26.75618,71,70,40
26.76219,27.311958,70,70,40
27.317745,27.456635,71,70,40
27.456635,27.595522,70,70,40
27.595522,27.734411,68,70,40
27.734411,27.8733,66,70,40
27.8733,28.151077,66,70,40
28.151077,28.353624,71,70,40
28.428856,28.631401,71,70,40
28.98441,29.262188,70,70,40
29.262188,29.401075,71,70,40
29.401075,29.539965,73,70,40
29.539965,29.678854,71,70,40
29.678854,29.817743,70,70,40
29.817743,29.95663,68,70,40
29.95663,30.09552,66,70,40
30.09552,30.373297,66,70,40
30.373297,30.575844,71,70,40
30.651075,30.85362,71,70,40
31.20663,31.484407,71,70,40
31.484407,31.623297,72,73,40
31.623297,31.762184,74,74,40
31.762184,31.901073,72,76,40
31.901073,32.039963,71,77,40
32.039963,32.178852,69,79,40
32.178852,32.31774,67,80,40
32.31774,32.595516,72,82,40
32.595516,32.798065,76,85,40
32.873295,33.07584,76,88,40
33.42885,33.706627,69,94,40
33.706627,33.909172,74,97,40
33.984406,34.18695,74,100,40
34.53996,34.817738,71,70,40
34.817738,35.095516,62,70,40
35.095516,35.37329,64,70,40
35.37329,35.65107,66,70,40
35.65107,35.92885,67,70,40
35.92885,36.206627,71,70,40
36.206627,36.489643,72,80,40
36.489643,36.778107,71,70,40
36.778107,37.05588,69,70,40
39.29403,39.571804,62,70,40
39.571804,39.849583,64,80,40
39.849583,40.12736,66,70,40
40.12736,40.405136,67,70,40
40.405136,40.682915,71,70,40
40.682915,40.965935,72,80,40
40.965935,41.254395,71,70,40
41.254395,41.532173,76,70,40
43.770317,44.048096,62,70,40
44.048096,44.325874,64,70,40
44.325874,44.60365,66,70,40
44.60365,44.881428,67,70,40
44.881428,45.159206,71,70,40
45.159206,45.442223,72,80,40
45.442223,45.730686,71,70,40
45.730686,46.00846,69,70,40
48.24661,48.524384,62,70,40
48.524384,48.802162,64,80,40
48.802162,49.07994,66,70,40
49.07994,49.357716,67,70,40
49.357716,49.635494,71,70,40
49.635494,49.918514,72,80,40
49.918514,50.206974,71,70,40
50.206974,50.484753,76,70,40
52.722897,53.000675,67,70,40
53.000675,53.278454,66,70,40
53.278454,53.55623,65,70,40
53.55623,53.834007,66,70,40
53.834007,54.111786,70,70,40
54.111786,54.38956,71,80,40
54.38956,54.66734,70,70,40
54.66734,54.945118,71,70,40
57.18326,57.46104,71,70,40
57.46104,57.73882,70,80,40
57.73882,58.010807,71,70,40
58.016594,58.288586,71,70,40
58.294373,58.57215,71,70,40
58.57215,58.855167,72,80,40
58.855167,59.14363,71,70,40
59.14363,59.421406,72,70,40
60.532516,60.810295,74,70,40
60.810295,61.093315,73,70,40
61.093315,61.381775,74,70,40
61.381775,61.659554,71,70,40
61.659554,61.93733,67,70,40
61.93733,62.215107,66,70,40
62.215107,62.492886,65,70,40
62.492886,62.770664,66,70,40
62.770664,63.04844,70,70,40
63.04844,63.33146,71,80,40
63.33146,63.61992,70,70,40
63.61992,63.897697,71,70,40
66.13584,66.41362,71,70,40
66.41362,66.6914,70,80,40
66.6914,66.96339,71,70,40
66.96918,67.241165,71,70,40
67.246956,67.52473,71,70,40
67.52473,67.80775,72,80,40
67.80775,68.09621,71,70,40
68.09621,68.373985,72,70,40
69.4851,69.76288,74,70,40
69.76288,70.04589,73,70,40
70.04589,70.33436,74,70,40
70.33436,70.61213,71,70,40
71.445465,71.99523,74,100,40
72.1862,72.3656,74,100,40
72.37139,72.55079,74,100,40
72.55657,73.106346,74,100,40
73.29732,73.476715,74,100,40
73.4825,73.661896,74,100,40
73.66769,74.21745,74,100,40
74.408424,74.58782,74,100,40
74.59361,74.77301,74,100,40
74.77879,75.32856,74,100,40
75.51953,75.69894,74,100,40
75.70472,75.88412,74,100,40
75.88991,76.439674,74,100,40
76.630646,76.81004,79,100,40
76.81583,76.99523,79,100,40
77.001015,77.55078,79,100,40
77.74175,77.92115,79,100,40
77.92694,78.10634,79,100,40
78.11212,78.661896,78,100,40
78.85287,79.032265,57,100,40
78.85287,79.032265,66,100,40
79.03805,79.217445,57,100,40
79.03805,79.217445,66,100,40
79.223236,79.40842,57,100,40
79.223236,79.40842,67,100,40
79.40842,79.47208,62,100,40
79.47208,79.535736,64,100,40
79.535736,79.593605,62,100,40
79.593605,79.77879,61,100,40
79.77879,79.906105,62,100,40
79.963974,80.14916,64,100,40
80.14916,80.33434,66,100,40
80.33434,80.47902,67,100,40
80.51953,80.58319,62,100,40
80.58319,80.64684,64,100,40
80.64684,80.70471,62,100,40
80.70471,80.8899,61,100,40
80.8899,81.01721,62,100,40
81.07509,81.254486,67,100,40
81.26027,81.43967,71,100,40
81.44546,81.59013,69,100,40
81.63064,81.6943,62,100,40
81.6943,81.75796,64,100,40
81.75796,81.81583,62,100,40
81.81583,82.00101,61,100,40
82.00101,82.12833,62,100,40
82.186195,82.37138,69,100,40
82.37138,82.556564,74,100,40
82.556564,82.712814,71,100,40
82.74175,82.805405,62,100,40
82.805405,82.869064,64,100,40
82.869064,82.92693,62,100,40
82.92693,83.11212,61,100,40
83.11212,83.23943,62,100,40
83.2973,83.48249,67,100,40
83.48249,83.66189,71,100,40
83.66767,83.81235,69,100,40
83.85286,83.91652,62,100,40
83.91652,83.98017,64,100,40
83.98017,84.03805,62,100,40
84.03805,84.22323,61,100,40
84.22323,84.35055,62,100,40
84.40842,84.5936,66,100,40
84.5936,84.778786,69,100,40
84.778786,84.92346,67,100,40
84.96397,85.027626,67,100,40
85.027626,85.091286,69,100,40
85.091286,85.149155,67,100,40
85.149155,85.32855,66,100,40
85.33434,85.51374,67,100,40
85.51952,85.70471,67,100,40
85.70471,85.88989,74,100,40
85.88989,86.03457,76,100,40
86.07508,86.13874,64,100,40
86.13874,86.20239,66,100,40
86.20239,86.26026,64,100,40
86.26026,86.43967,62,100,40
86.44545,86.57855,64,100,40
86.63064,86.81582,76,100,40
86.81582,87.00101,79,100,40
87.00101,87.14568,69,100,40
87.18619,87.24985,62,100,40
87.24985,87.31351,64,100,40
87.31351,87.371376,62,100,40
87.371376,87.55656,61,100,40
87.55656,87.683876,62,100,40
87.741745,87.92693,69,100,40
87.92693,88.112114,74,100,40
88.112114,88.66188,71,100,40
88.85285,89.03804,59,100,40
89.03804,89.22323,62,100,40
89.22323,89.772995,61,100,40
89.96397,90.143364,78,100,40
90.14915,90.328545,78,100,40
90.334335,90.8841,78,100,40
91.07507,91.25447,78,100,40
91.26026,91.43966,78,100,40
91.44544,91.99522,78,100,40
92.18619,92.365585,78,100,40
92.37137,92.550766,78,100,40
92.55656,93.10632,78,100,40
93.297295,93.47669,78,100,40
93.48248,93.66188,78,100,40
93.66766,94.21743,77,100,40
94.4084,94.58781,79,100,40
94.59359,94.77299,79,100,40
94.77878,95.328545,79,100,40
95.519516,95.69891,64,100,40
95.519516,95.69891,72,100,40
95.7047,95.884094,64,100,40
95.7047,95.884094,72,100,40
95.889885,96.43965,66,100,40
95.889885,96.43965,69,100,40
96.63062,96.81002,57,100,40
96.63062,96.81002,66,100,40
96.81581,96.99521,57,100,40
96.81581,96.99521,66,100,40
97.00099,97.14567,59,100,40
97.00099,97.15724,71,100,40
97.18618,97.24405,59,100,40
97.24405,97.30192,60,100,40
97.30192,97.37137,59,100,40
97.37137,97.55655,58,100,40
97.55655,97.69544,59,100,40
97.74174,97.92692,62,100,40
97.92692,98.11211,71,100,40
98.11211,98.25678,70,100,40
98.29729,98.35516,66,100,40
98.35516,98.41303,68,100,40
98.41303,98.482475,66,100,40
98.482475,98.66766,65,100,40
98.66766,98.81233,66,100,40
98.852844,99.03803,70,100,40
99.03803,99.22321,73,100,40
99.22321,99.36789,71,100,40
99.4084,99.46627,66,100,40
99.46627,99.52414,68,100,40
99.52414,99.59358,66,100,40
99.59358,99.77877,65,100,40
99.77877,99.92345,66,100,40
99.96396,100.14914,71,100,40
100.14914,100.33433,75,100,40
100.33433,100.479004,70,100,40
100.51951,100.57738,66,100,40
100.57738,100.635254,68,100,40
100.635254,100.7047,66,100,40
100.7047,100.88988,65,100,40
100.88988,101.03455,66,100,40
101.075066,101.26025,70,100,40
101.26025,101.445435,73,100,40
101.445435,101.59011,71,100,40
101.63062,101.68849,66,100,40
101.68849,101.74636,68,100,40
101.74636,101.8158,66,100,40
101.8158,102.00099,65,100,40
102.00099,102.14567,66,100,40
102.18617,102.37136,71,100,40
102.37136,102.55076,74,100,40
102.55654,102.70122,74,100,40
102.74173,102.7996,65,100,40
102.7996,102.85747,67,100,40
102.85747,102.92692,65,100,40
102.92692,103.1121,64,100,40
103.1121,103.256775,65,100,40
103.29729,103.48247,71,100,40
103.48247,103.667656,74,100,40
103.667656,103.81233,76,100,40
103.85284,103.91071,64,100,40
103.91071,103.96858,65,100,40
103.96858,104.038025,64,100,40
104.038025,104.22321,63,100,40
104.22321,104.36789,64,100,40
104.408394,104.59358,76,100,40
104.59358,104.77876,84,100,40
104.77876,104.92344,81,100,40
104.96395,105.02182,62,100,40
105.02182,105.080124,64,100,40
105.080124,105.15088,62,100,40
105.15088,105.33956,61,100,40
105.33956,105.4898,62,100,40
105.53187,105.72802,81,100,40
105.72802,105.928024,86,100,40
105.928024,106.4889,83,100,40
107.32802,107.87779,67,70,40
107.883575,108.43334,67,70,40
108.43913,108.71691,67,70,40
108.71691,108.9889,72,70,40
108.99469,109.27246,72,70,40
109.27246,109.54446,71,70,40
109.55024,110.100006,71,70,40
110.1058,110.383575,70,70,40
110.383575,110.65556,69,70,40
110.661354,111.21112,69,70,40
111.2169,111.76668,74,70,40
111.77246,112.32223,71,70,40
112.32802,112.6058,71,70,40
112.6058,112.877785,72,70,40
112.88357,113.43334,72,70,40
113.439125,113.98889,72,70,40
113.99468,114.54445,72,70,40
114.55024,114.82801,72,70,40
114.82801,115.10579,71,70,40
115.10579,115.655556,67,70,40
115.66135,116.21111,67,70,40
116.2169,116.76667,71,70,40
116.77245,117.05023,71,70,40
117.05023,117.32223,76,70,40
117.32801,117.87778,76,70,40
117.88357,118.433334,74,70,40
118.439125,118.98889,79,70,40
118.994675,119.54444,79,70,40
119.55023,120.1,78,70,40
120.10579,120.38356,78,70,40
120.38356,120.655556,79,70,40
120.66134,121.21111,79,70,40
121.216896,121.76666,79,70,40
121.77245,122.32222,76,70,40
122.328,122.60578,76,70,40
122.60578,122.87778,74,70,40
122.88356,123.43333,74,70,40
123.43912,123.988884,74,70,40
123.994675,124.54444,71,70,40
124.550224,124.68912,59,70,40
124.68912,124.828,62,70,40
124.828,125.09999,61,70,40
125.10578,125.65555,64,70,40
125.66134,125.93333,64,70,40
125.93912,126.211105,63,70,40
126.21689,126.76666,63,70,40
126.772446,127.32221,66,70,40
127.328,127.882904,61,70,40
127.888794,128.16592,61,70,40
128.17181,128.45427,63,70,40
128.46028,128.74272,63,70,40
128.74873,129.0425,62,70,40
129.04874,129.63857,62,70,40
129.64436,130.19412,62,70,40
130.19992,130.47191,62,70,40
130.47769,130.74968,64,70,40
130.75546,131.30524,64,70,40
131.31102,131.58301,67,70,40
131.5888,131.8608,69,70,40
131.86658,132.41635,69,70,40
132.42213,132.69412,69,70,40
132.6999,132.97191,67,70,40
132.97769,133.24968,62,70,40
133.25546,133.52745,59,70,40
133.53325,133.80524,65,70,40
133.81102,134.08301,66,70,40
134.08879,134.63857,66,70,40
134.64435,135.19412,66,70,40
135.1999,135.74968,71,70,40
135.75546,136.02745,71,70,40
136.03323,136.30524,70,70,40
136.31102,136.86078,70,70,40
136.86658,137.13857,70,70,40
137.14435,137.41634,71,70,40
137.42213,137.9719,71,70,40
137.97768,138.52745,71,70,40
138.53323,139.08301,71,70,40
139.08879,139.36078,71,70,40
139.36658,139.63857,72,70,40
139.64435,140.19412,76,70,40
140.1999,140.4719,76,70,40
140.47768,140.74966,74,70,40
140.75546,141.31569,74,70,40
141.3217,141.76544,74,70,40
141.7717,141.92169,62,70,40
141.92169,142.0717,59,70,40
142.0717,142.2217,62,70,40
142.2217,142.3717,67,70,40
142.3717,142.5217,62,70,40
142.5217,142.67169,59,70,40
142.67169,142.8217,62,70,40
142.8217,143.09369,55,110,40
143.37726,143.64925,79,110,40
143.37726,143.64925,71,110,40
143.37726,143.64925,62,110,40
143.9328,144.2048,62,110,40
143.9328,144.2048,69,110,40
143.9328,144.2048,81,110,40
144.48836,144.76035,86,110,40
144.48836,144.76035,74,110,40
144.48836,144.76035,62,110,40
147.58585,147.85783,59,110,40
147.58585,147.85783,67,110,40
148.1414,148.41339,79,110,40
148.1414,148.41339,71,110,40
148.1414,148.41339,62,110,40
148.69695,148.96895,64,110,40
148.69695,148.96895,72,110,40
148.69695,148.96895,79,110,40
149.2525,149.5245,79,110,40
149.2525,149.5245,69,110,40
149.53029,149.8074,78,70,40
149.81331,149.95482,81,70,40
149.95482,150.09633,79,70,40
150.09633,150.23784,78,70,40
150.23784,150.37933,76,70,40
150.37933,150.52084,74,70,40
150.52084,150.66235,72,70,40
150.66235,150.76259,71,70,40
150.80386,150.94537,71,70,40
150.94537,151.08688,69,70,40
151.08688,151.2284,67,70,40
151.2284,151.3699,66,70,40
151.3699,151.51141,64,70,40
151.51141,151.65292,62,70,40
151.65292,151.79443,60,70,40
151.79443,152.06642,59,110,40
152.0722,152.34421,67,112,40
152.0722,152.34421,59,110,40
152.62776,152.89975,79,110,40
152.62776,152.89975,71,110,40
153.18332,153.4553,81,110,40
153.18332,153.4553,69,110,40
153.73888,154.01086,86,110,40
153.73888,154.01086,74,110,40
153.73888,154.01086,62,110,40
154.01665,154.44118,83,70,40
154.44118,154.58269,81,70,40
154.58269,154.7242,79,70,40
154.7242,154.8657,78,70,40
154.8657,155.00722,76,70,40
155.00722,155.14873,74,70,40
155.14873,155.29024,73,70,40
155.29024,155.43175,74,70,40
155.43175,155.57326,72,70,40
155.57326,155.71477,71,70,40
155.71477,155.85628,69,70,40
155.85628,155.99779,72,70,40
155.99779,156.1393,71,70,40
156.1393,156.2808,69,70,40
156.2808,156.5528,59,110,40
156.2808,156.5528,67,110,40
156.83635,157.10835,79,110,40
156.83635,157.10835,71,110,40
156.83635,157.10835,62,110,40
157.3919,157.6639,76,110,40
157.3919,157.6639,64,110,40
157.94746,158.21945,79,110,40
157.94746,158.21945,69,110,40
158.50302,158.78014,69,70,40
158.78604,158.92755,78,70,40
158.92755,159.06906,76,70,40
159.06906,159.21057,74,70,40
159.21057,159.35208,72,70,40
159.35208,159.49359,71,70,40
159.49359,159.6351,69,70,40
159.6351,159.77661,67,70,40
159.77661,159.91222,59,70,40
159.91812,160.05373,59,70,40
160.05962,160.19524,59,70,40
160.20113,160.34264,59,70,40
160.34264,160.47826,71,70,40
160.48415,160.61977,71,70,40
160.62566,160.76128,71,70,40
160.76717,161.03915,70,110,40
161.32272,161.59471,66,110,40
161.32272,161.59471,73,110,40
161.32272,161.59471,82,110,40
161.87828,162.15027,59,110,40
162.43384,162.70583,66,110,40
162.43384,162.70583,75,110,40
162.43384,162.70583,83,110,40
165.53131,165.8033,55,110,40
165.53131,165.8033,62,110,40
165.53131,165.8033,71,110,40
165.53131,165.8033,77,110,40
166.08687,166.35886,55,110,40
166.08687,166.35886,62,110,40
166.08687,166.35886,71,110,40
166.08687,166.35886,77,110,40
166.64243,166.91441,64,110,40
166.64243,166.91441,72,110,40
166.64243,166.91441,76,110,40
167.19798,167.46997,76,110,40
167.19798,167.46997,84,110,40
167.47575,167.8944,81,70,40
167.90028,168.0418,79,70,40
168.0418,168.1833,78,70,40
168.1833,168.32481,76,70,40
168.32481,168.46632,74,70,40
168.46632,168.60783,72,70,40
168.60783,168.74934,71,70,40
168.74934,168.84958,62,70,40
168.89085,168.99109,62,70,40
169.03236,169.1326,62,70,40
169.17387,169.31538,62,70,40
169.31538,169.41562,74,70,40
169.4569,169.55713,62,70,40
169.59839,169.69864,62,70,40
169.7399,170.0119,61,110,40
170.01768,170.28967,78,110,40
170.01768,170.28967,73,110,40
170.01768,170.28967,66,110,40
170.57324,170.84523,66,110,40
170.57324,170.84523,73,110,40
170.57324,170.84523,78,110,40
171.1288,171.40079,75,110,40
171.1288,171.40079,78,110,40
171.68434,171.95634,75,110,40
171.68434,171.95634,83,110,40
171.96213,172.38075,82,70,40
172.38666,172.52817,80,70,40
172.52817,172.66968,78,70,40
172.66968,172.81119,76,70,40
172.81119,172.95268,75,70,40
172.95268,173.0883,73,70,40
173.0942,173.19443,73,70,40
173.2357,173.37721,71,70,40
173.37721,173.51872,70,70,40
173.51872,173.66023,71,70,40
173.66023,173.80174,70,70,40
173.80174,173.94325,71,70,40
173.94325,174.08476,70,70,40
174.08476,174.22627,71,70,40
174.22627,174.49826,71,110,40
174.78183,175.05382,67,110,40
174.78183,175.05382,74,110,40
174.78183,175.05382,83,110,40
175.33739,175.60938,67,110,40
175.33739,175.60938,76,110,40
175.33739,175.60938,84,110,40
175.89294,176.16493,76,110,40
175.89294,176.16493,88,110,40
176.44849,176.86713,76,70,40
176.87302,177.01453,74,70,40
177.01453,177.15877,72,70,40
177.15877,177.303,71,70,40
177.303,177.44722,69,70,40
177.44722,177.59145,67,70,40
177.59145,177.74146,66,70,40
177.74146,177.89145,64,70,40
177.89145,178.0477,62,70,40
178.0477,178.20395,60,70,40
178.20395,178.37062,59,70,40
178.37062,178.55812,57,70,40
178.55812,178.78539,61,70,40
178.78539,179.16039,60,70,40
179.16039,180.14998,59,55,40
180.16039,181.14998,59,55,40
180.16039,181.14998,62,55,40
181.16039,182.14998,59,55,40
181.16039,182.14998,62,55,40
182.16039,183.14998,59,55,40
182.16039,183.14998,62,55,40
183.16039,184.14998,59,55,40
183.16039,184.14998,62,55,40
184.16039,185.14998,59,55,40
184.16039,185.14998,62,55,40
185.16039,186.14998,60,55,40
185.16039,186.14998,62,55,40
186.16039,187.14998,60,55,40
186.16039,187.14998,62,55,40
187.16039,188.14998,60,55,40
187.16039,188.14998,62,55,40
188.16039,189.14998,60,55,40
188.16039,189.14998,62,55,40
189.16039,190.14998,60,55,40
189.16039,190.14998,62,55,40
190.16039,191.14998,60,55,40
190.16039,191.14998,62,55,40
191.16039,192.14998,58,55,40
191.16039,192.14998,62,55,40
192.16039,193.14998,59,55,40
192.16039,193.14998,62,55,40
193.16039,194.14998,59,55,40
193.16039,194.14998,62,55,40
194.16039,195.14998,59,55,40
194.16039,195.14998,62,55,40
195.16039,196.14998,67,55,40
196.16039,197.14998,71,55,40
196.16039,197.14998,67,55,40
197.16039,198.14998,67,55,40
197.16039,198.14998,71,55,40
198.16039,199.14998,66,55,40
198.16039,199.14998,69,55,40
199.16039,200.14998,66,55,40
199.16039,200.14998,69,55,40
200.16039,203.13956,66,55,40
200.16039,203.13956,69,55,40
206.68608,206.85275,66,70,40
206.85275,207.01941,64,70,40
207.01941,207.18608,62,70,40
207.18608,207.35275,69,70,40
207.35275,207.51941,67,70,40
207.51941,207.68608,66,70,40
207.68608,207.86465,72,70,40
207.86465,208.04323,71,70,40
208.04323,208.2218,69,70,40
208.2218,208.41411,74,70,40
208.41411,208.61896,72,70,40
208.61896,208.83635,69,70,40
208.83635,210.8155,67,70,40
210.83635,210.89885,67,70,40
210.89885,210.96135,69,70,40
210.96135,211.02385,67,70,40
211.02385,211.08635,69,70,40
211.08635,211.14885,67,70,40
211.14885,211.21135,69,70,40
211.21135,211.27385,67,70,40
211.27385,211.33635,69,70,40
211.33635,211.39885,67,70,40
211.39885,211.46135,69,70,40
211.46135,211.52385,67,70,40
211.52385,211.58635,69,70,40
211.58635,211.64885,67,70,40
211.64885,211.71135,69,70,40
211.71135,211.77385,67,70,40
211.77385,211.83635,69,70,40
211.83635,213.003,71,70,40
213.003,213.16968,62,70,40
213.16968,213.33635,61,70,40
213.33635,213.503,62,70,40
213.503,213.66968,64,70,40
213.66968,213.83635,66,70,40
213.83635,213.96135,67,70,40
213.96135,214.08635,69,70,40
214.08635,214.21135,71,70,40
214.21135,214.33635,72,70,40
214.33635,214.46135,74,70,40
214.46135,214.58635,71,70,40
214.58635,214.71135,69,70,40
214.71135,214.83635,67,70,40
214.83635,215.8155,76,70,40
215.83635,218.04468,79,73,40
218.08635,218.5655,79,82,40
218.58635,219.08188,79,84,40
219.1042,219.6176,79,86,40
219.63991,220.1722,79,88,40
220.19623,220.77115,79,90,40
220.7972,221.08365,79,92,40
221.1097,222.08887,69,93,40
222.1097,224.27637,74,97,40
224.27637,224.44302,74,70,40
224.44302,224.6097,73,70,40
224.6097,224.77637,74,70,40
224.77637,224.94302,75,70,40
224.94302,225.1097,76,70,40
225.1097,225.27637,77,70,40
225.27637,225.44302,78,70,40
225.44302,225.6097,79,70,40
225.6097,225.77637,80,70,40
225.77637,225.94302,81,70,40
225.94302,226.1097,83,70,40
226.1097,226.27637,84,70,40
226.27637,226.44302,83,70,40
226.44302,226.6097,81,70,40
226.6097,226.77637,88,70,40
226.77637,226.94302,86,70,40
226.94302,227.1097,84,70,40
227.1097,228.27637,83,70,40
228.27637,228.44302,79,70,40
228.44302,228.6097,74,70,40
228.6097,228.77637,83,70,40
228.77637,228.94302,79,70,40
228.94302,229.1097,74,70,40
229.1097,229.27637,71,70,40
229.27637,229.44302,67,70,40
229.44302,229.6097,62,70,40
229.6097,229.77637,71,70,40
229.77637,229.95345,67,70,40
229.94302,230.1097,62,70,40
230.1097,231.08887,59,70,40
231.1097,232.1588,62,70,40
232.18112,233.31093,62,70,40
233.33498,235.31413,61,70,40
235.33498,254.31413,66,70,40
254.33498,254.81413,67,70,40
254.83498,257.31415,62,70,40
254.83498,257.31415,65,70,40
260.67477,260.84146,59,70,40
260.84146,261.00812,67,70,40
261.00812,261.17477,69,70,40
261.17477,261.34146,71,70,40
261.34146,261.50812,69,70,40
261.50812,261.67477,67,70,40
261.67477,261.85336,74,70,40
261.85336,262.03192,72,70,40
262.03192,262.2105,71,70,40
262.2105,262.4028,77,70,40
262.4028,262.60767,74,70,40
262.60767,262.82504,72,70,40
262.82504,264.32504,71,70,40
264.32504,264.57504,72,73,40
264.57504,264.82504,74,74,40
264.82504,265.32504,67,75,40
265.32504,265.57504,69,76,40
265.57504,265.81464,71,77,40
265.82504,266.32504,71,77,40
266.32504,266.57504,72,79,40
266.57504,266.81464,74,79,40
266.82504,267.32504,74,80,40
267.32504,267.57504,72,81,40
267.57504,267.81464,71,82,40
267.82504,268.32504,71,82,40
268.32504,268.57504,69,84,40
268.57504,268.82504,67,84,40
268.82504,269.8042,72,85,40
269.82504,271.8042,76,88,40
271.82504,272.8042,76,93,40
272.82504,274.8042,84,95,40
274.82504,275.8042,84,100,40
275.82504,276.9917,66,70,40
276.9917,277.1584,67,70,40
277.1584,277.32504,69,70,40
277.32504,277.4917,62,70,40
277.4917,277.6584,64,70,40
277.6584,277.82504,66,70,40
277.82504,277.9917,67,70,40
277.9917,278.1584,68,70,40
278.1584,278.32504,69,70,40
278.32504,278.4917,70,70,40
278.4917,278.6584,71,70,40
278.6584,278.82504,72,70,40
278.82504,278.9917,74,70,40
278.9917,279.1584,71,70,40
279.1584,279.32504,72,70,40
279.32504,279.4917,74,70,40
279.4917,279.6584,71,70,40
279.6584,279.82504,72,70,40
279.82504,279.9917,74,70,40
279.9917,280.1584,71,70,40
280.1584,280.32504,72,70,40
280.32504,280.4917,76,70,40
280.4917,280.6584,75,70,40
280.6584,280.82504,74,70,40
280.82504,281.8042,72,70,40
281.82504,282.8042,66,70,40
282.82504,283.8042,66,70,40
283.82504,284.8042,66,69,40
284.82504,285.8042,66,67,40
285.82504,285.9917,72,65,40
285.9917,286.1584,69,65,40
286.1584,286.32504,71,65,40
286.32504,286.4917,74,64,40
286.4917,286.6584,73,64,40
286.6584,286.82504,72,64,40
286.82504,287.8042,71,64,40
287.82504,288.8042,67,62,40
288.82504,289.8042,67,60,40
289.82504,290.8042,67,58,40
290.82504,291.8042,67,57,40
291.82504,291.9917,70,55,40
291.9917,292.1584,67,54,40
292.1584,292.32504,68,54,40
292.32504,292.4917,72,54,40
292.4917,292.6584,71,54,40
292.6584,292.82504,70,53,40
292.82504,293.8042,68,53,40
293.82504,294.8042,65,51,40
294.82504,295.8042,65,50,40
295.82504,296.8042,63,50,40
296.82504,297.8042,63,50,40
297.82504,297.9917,69,50,40
297.9917,298.1584,65,50,40
298.1584,298.32504,67,50,40
298.32504,298.4917,70,50,40
298.4917,298.6584,69,50,40
298.6584,298.82504,67,50,40
298.82504,299.9917,65,50,40
299.9917,300.1584,58,51,40
300.1584,300.32504,60,52,40
300.32504,300.4917,62,53,40
300.4917,300.6584,60,55,40
300.6584,300.82504,58,56,40
300.82504,300.9917,65,57,40
300.9917,301.1584,63,59,40
301.1584,301.32504,62,60,40
301.32504,301.4917,68,61,40
301.4917,301.6584,67,62,40
301.6584,301.82504,65,64,40
301.82504,301.9917,74,65,40
301.9917,302.1584,72,66,40
302.1584,302.32504,70,68,40
302.32504,302.4917,77,69,40
302.4917,302.6584,75,70,40
302.6584,302.82504,74,71,40
302.82504,302.9917,80,73,40
302.9917,303.1584,79,74,40
303.1584,303.32504,77,75,40
303.32504,303.4917,75,77,40
303.4917,303.6584,74,78,40
303.6584,303.82504,72,79,40
303.82504,304.0706,70,80,40
304.0929,304.33844,69,70,40
304.36075,304.62518,68,70,40
304.64923,304.94812,65,70,40
304.9753,305.5938,63,70,40
305.6003,305.75656,68,70,40
305.75656,305.9128,67,70,40
305.9128,306.06906,65,70,40
306.06906,306.2253,63,70,40
306.2253,306.5313,65,70,40
306.5378,306.7657,70,70,40
306.8503,307.0782,70,70,40
307.4753,308.0938,67,70,40
308.1003,308.25656,68,70,40
308.25656,308.4128,67,70,40
308.4128,308.56906,65,70,40
308.56906,308.7253,63,70,40
308.7253,309.0378,67,70,40
309.0378,309.2657,65,70,40
309.3503,309.5782,65,70,40
309.9753,310.60696,63,70,40
310.61362,310.77316,68,75,40
310.77316,310.93274,67,76,40
310.93274,311.09232,65,77,40
311.09232,311.2519,63,79,40
311.2519,311.57797,72,80,40
311.57797,311.82104,75,82,40
311.91132,312.1544,75,85,40
312.58557,312.96057,65,90,40
312.96057,313.32776,70,93,40
313.33557,314.82776,70,95,40
317.08557,317.45276,69,70,40
317.46057,317.734,74,80,40
317.83557,318.109,74,70,40
322.75223,323.046,69,110,40
322.75223,323.046,72,110,40
323.05222,323.25476,71,125,40
323.33002,323.53256,67,100,40
323.6078,323.81033,62,100,40
323.88556,324.0881,59,100,40
324.16333,324.36588,57,125,40
324.4411,324.64365,69,100,40
324.7189,324.92145,66,100,40
324.99667,325.19922,57,100,40
325.27444,325.477,59,125,40
325.55222,325.75476,71,100,40
325.83,326.03253,67,100,40
326.1078,326.31033,59,100,40
326.38556,326.5881,57,125,40
326.66333,326.86588,66,100,40
326.9411,327.14365,67,100,40
327.2189,327.42145,69,100,40
327.49667,327.69922,71,125,40
327.77444,327.977,67,100,40
328.05222,328.25476,62,100,40
328.33,328.53253,59,100,40
328.6078,328.81033,64,125,40
328.88556,329.0881,76,100,40
329.16333,329.36588,57,100,40
329.16333,329.36588,67,100,40
329.4411,329.64365,57,100,40
329.4411,329.64365,67,100,40
329.71887,329.92142,57,125,40
329.71887,329.92142,67,125,40
329.99667,330.19922,57,100,40
329.99667,330.19922,67,100,40
330.27444,330.477,57,100,40
330.27444,330.477,66,100,40
330.55222,330.75476,57,100,40
330.55222,330.75476,66,100,40
330.83,330.9631,67,100,40
330.83,330.96887,55,100,40
330.96887,331.10776,74,100,40
331.10776,331.24667,76,100,40
331.24667,331.38556,74,100,40
331.38556,331.52444,76,100,40
331.52444,331.66333,74,100,40
331.66333,331.80222,76,100,40
331.80222,331.9411,78,100,40
331.9411,332.08,79,125,40
332.08,332.21887,78,100,40
332.21887,332.35776,79,100,40
332.35776,332.49667,81,100,40
332.49667,332.63556,83,100,40
332.63556,332.77444,81,100,40
332.77444,332.91333,84,100,40
332.91333,333.05222,83,100,40
333.05222,333.1911,81,125,40
333.1911,333.33,80,100,40
333.33,333.46887,81,100,40
333.46887,333.60776,83,100,40
333.60776,333.74667,84,100,40
333.74667,333.88556,83,100,40
333.88556,334.02444,86,100,40
334.02444,334.16333,84,100,40
334.16333,334.30222,83,125,40
334.30222,334.4411,78,100,40
334.4411,334.58,79,100,40
334.58,334.71887,81,100,40
334.71887,334.85776,83,100,40
334.85776,334.99664,79,100,40
334.99664,335.13556,84,100,40
335.13556,335.27444,83,100,40
335.27444,335.41333,81,125,40
335.41333,335.55222,79,100,40
335.55222,335.6911,78,100,40
335.6911,335.83,76,100,40
335.83,335.96887,74,100,40
335.96887,336.10776,72,100,40
336.10776,336.24664,71,100,40
336.24664,336.38556,69,100,40
336.38556,336.52444,67,125,40
336.52444,336.66333,66,100,40
336.66333,336.80222,67,100,40
336.80222,336.9411,69,100,40
336.9411,337.08,71,100,40
337.08,337.21887,69,100,40
337.21887,337.35776,72,100,40
337.35776,337.49664,71,100,40
337.49664,337.63556,76,125,40
337.63556,337.77444,75,100,40
337.77444,337.91333,78,100,40
337.91333,338.05222,76,100,40
338.05222,338.1911,79,100,40
338.1911,338.33,78,100,40
338.33,338.46887,81,100,40
338.46887,338.60776,79,100,40
338.60776,338.74664,74,125,40
338.74664,338.88553,73,100,40
338.88553,339.02444,76,100,40
339.02444,339.16333,74,100,40
339.16333,339.30222,86,100,40
339.30222,339.4411,85,100,40
339.4411,339.58,88,100,40
339.58,339.71887,86,100,40
339.71887,339.99088,83,100,40
339.99664,340.1992,62,100,40
340.27444,340.477,62,100,40
340.55222,340.75476,62,100,40
340.83,341.03253,61,125,40
341.10776,341.3103,64,100,40
341.38553,341.58807,61,100,40
341.66333,341.86588,58,100,40
341.9411,342.14365,63,125,40
342.21887,342.42142,66,100,40
342.49664,342.6992,63,100,40
342.7744,342.97696,63,100,40
343.05222,343.25476,61,125,40
343.33,343.53253,64,100,40
343.60776,343.8103,61,100,40
343.88553,344.08807,58,100,40
344.16333,344.36588,63,125,40
344.4411,344.64365,66,100,40
344.71887,344.92142,62,100,40
344.99664,345.1992,59,100,40
344.99664,345.1992,62,100,40
345.2744,345.47696,59,125,40
345.2744,345.47696,62,125,40
345.55222,345.75476,65,100,40
345.83,346.03253,62,100,40
346.10776,346.3103,55,100,40
346.10776,346.3103,65,100,40
346.38553,346.58807,55,125,40
346.38553,346.58807,64,125,40
346.6633,346.86584,64,100,40
346.9411,347.14365,60,100,40
347.21887,347.42142,60,100,40
347.21887,347.42142,64,100,40
347.49664,347.6992,60,100,40
347.49664,347.6992,66,100,40
347.7744,347.97696,57,100,40
347.7744,347.97696,66,100,40
348.0522,348.25476,57,100,40
348.0522,348.25476,66,100,40
348.33,348.53253,60,100,40
348.33,348.53253,66,100,40
348.60776,348.87976,59,100,40
348.60776,348.87976,67,100,40
348.88553,349.0244,71,100,40
349.0244,349.1633,70,100,40
349.1633,349.3022,71,100,40
349.3022,349.4411,73,100,40
349.4411,349.58,71,100,40
349.58,349.71887,73,100,40
349.71887,349.85776,70,125,40
349.85776,349.99664,71,100,40
349.99664,350.13553,73,100,40
350.13553,350.2744,71,100,40
350.2744,350.4133,73,100,40
350.4133,350.5522,75,100,40
350.5522,350.6911,76,100,40
350.6911,350.83,73,100,40
350.83,350.96887,71,125,40
350.96887,351.10776,73,100,40
351.10776,351.24664,75,100,40
351.24664,351.38553,73,100,40
351.38553,351.5244,75,100,40
351.5244,351.6633,76,100,40
351.6633,351.8022,78,100,40
351.8022,351.94107,71,100,40
351.94107,352.08,70,125,40
352.08,352.21887,71,100,40
352.21887,352.35776,73,100,40
352.35776,352.49664,71,100,40
352.49664,352.63553,73,100,40
352.63553,352.7744,75,100,40
352.7744,352.9133,76,100,40
352.9133,353.0522,70,100,40
353.0522,353.19107,71,125,40
353.19107,353.33,73,100,40
353.33,353.46887,75,100,40
353.46887,353.60776,76,100,40
353.60776,353.74664,78,100,40
353.74664,353.88553,70,100,40
353.88553,354.0244,71,100,40
354.0244,354.1633,70,100,40
354.1633,354.3022,71,125,40
354.3022,354.44107,72,100,40
354.44107,354.58,74,100,40
354.58,354.71887,76,100,40
354.71887,354.85776,77,100,40
354.85776,354.99664,79,100,40
354.99664,355.13553,81,100,40
355.13553,355.2744,83,100,40
355.2744,355.4133,84,125,40
355.4133,355.5522,83,100,40
355.5522,355.69107,84,100,40
355.69107,355.82996,86,100,40
355.82996,355.96887,87,100,40
355.96887,356.10776,88,100,40
356.10776,356.24664,75,100,40
356.24664,356.38553,76,100,40
356.38553,356.5244,69,100,40
356.5244,356.6633,68,100,40
356.6633,356.8022,71,100,40
356.8022,356.94107,69,100,40
356.94107,357.07996,74,100,40
357.07996,357.21887,73,100,40
357.21887,357.35776,76,100,40
357.35776,357.49664,74,100,40
357.49664,357.76862,67,100,40
357.7744,359.71307,67,125,40
359.71884,359.99084,67,100,40
359.99664,362.21307,67,125,40
362.21884,362.76862,67,100,40
362.7744,363.3242,67,100,40
363.32996,363.60196,67,100,40
363.60773,363.87973,66,100,40
363.88553,364.1575,60,100,40
364.1633,364.43527,59,100,40
364.44107,364.71884,79,125,40
364.71884,364.9966,78,100,40
364.9966,365.26862,79,100,40
365.2744,365.5522,75,100,40
365.5522,365.82996,76,100,40
365.82996,366.10773,71,100,40
366.10773,366.38553,72,100,40
366.38553,366.6633,74,100,40
366.6633,366.94107,79,125,40
366.94107,367.21884,78,100,40
367.21884,367.4966,79,100,40
367.4966,367.7744,75,100,40
367.7744,368.0522,76,100,40
368.0522,368.32996,71,100,40
368.32996,368.60773,72,100,40
368.60773,368.8962,74,100,40
368.8962,369.18466,77,100,40
369.18466,369.48465,76,100,40
369.48465,369.78467,72,100,40
369.78467,370.09717,71,100,40
370.09717,370.43048,74,95,40
370.43048,370.80548,62,89,40
370.80548,371.30548,66,83,40
381.61798,381.93048,67,50,40
381.93048,382.24298,72,50,40
382.24298,382.55548,70,50,40
382.55548,382.86798,69,50,40
382.86798,383.18048,68,50,40
383.18048,383.49298,69,50,40
383.49298,384.11148,74,50,40
384.11798,384.43048,71,50,40
384.43048,384.74298,72,50,40
384.74298,385.05548,70,50,40
385.05548,385.36798,69,50,40
385.36798,385.68048,73,50,40
385.68048,385.99298,74,50,40
385.99298,386.30548,72,50,40
386.30548,387.54898,71,50,40
387.55548,388.17398,72,50,40
388.18048,388.79898,73,50,40
388.80548,389.73648,74,50,40
389.74298,390.36148,79,50,40
390.36798,390.68048,79,50,40
390.68048,390.98648,77,50,40
390.99298,391.61148,77,50,40
391.61798,391.93048,75,50,40
391.93048,392.24298,68,50,40
392.24298,392.55548,67,50,40
392.55548,392.86148,65,50,40
392.86798,393.17398,63,50,40
393.18048,393.48648,65,50,40
393.49298,393.79898,62,50,40
393.80548,394.11148,67,50,40
394.11798,394.42398,60,50,40
394.43048,395.04898,60,50,40
395.05548,395.67398,69,50,40
395.68048,396.61148,62,50,40
396.61798,396.93048,62,50,40
396.93048,397.24298,67,50,40
397.24298,397.55548,65,50,40
397.55548,397.86798,63,50,40
397.86798,398.18048,62,50,40
398.18048,398.49298,63,50,40
398.49298,398.79898,68,50,40
398.80548,399.42398,68,50,40
399.43048,400.04898,65,50,40
400.05548,400.67398,67,50,40
400.68048,400.99298,58,50,40
400.99298,401.30548,67,50,40
401.30548,401.61798,66,50,40
401.61798,401.93048,72,50,40
401.93048,402.24298,70,50,40
402.24298,402.55548,67,50,40
402.55548,402.86798,66,50,40
402.86798,403.18048,72,50,40
403.18048,403.49298,70,50,40
403.49298,403.80548,67,50,40
403.80548,404.11798,66,50,40
404.11798,404.43048,67,58,40
404.43048,404.74963,69,67,40
404.74963,405.0757,71,76,40
405.0757,405.40906,72,84,40
405.40906,405.74286,74,93,40
405.74997,406.10712,74,102,40
406.10712,406.4743,60,110,40
406.10712,406.4743,66,110,40
406.48212,407.62994,59,60,40
406.48212,407.62994,67,60,40
407.63596,408.78378,62,60,40
407.63596,408.78378,69,60,40
408.7898,409.36072,62,60,40
409.36673,410.2261,67,60,40
408.7898,410.2261,71,60,40
410.23212,410.51456,66,60,40
410.23212,410.51456,69,60,40
410.52057,410.803,66,60,40
410.52057,411.0915,69,60,40
410.80902,411.0915,60,60,40
411.0975,412.24533,59,60,40
411.0975,412.24533,67,60,40
412.25134,413.39917,67,72,40
412.25134,413.39917,69,72,40
413.40518,413.9761,66,84,40
413.40518,413.9761,69,84,40
413.98212,414.553,57,90,40
413.98212,414.553,66,90,40
414.55902,414.8415,59,60,40
414.55902,414.8415,67,60,40
414.8475,415.4184,71,70,40
415.4244,415.70688,83,70,40
415.7129,416.28378,82,70,40
416.2898,416.43402,83,70,40
416.43402,416.57828,82,70,40
416.57828,416.7225,80,70,40
416.7225,416.86072,78,70,40
416.86673,417.15518,78,70,40
417.15518,417.3655,83,70,40
417.44363,417.654,83,70,40
418.02057,418.30902,82,70,40
418.30902,418.45328,83,70,40
418.45328,418.5975,85,70,40
418.5975,418.74173,83,70,40
418.74173,418.88596,82,70,40
418.88596,419.03018,80,70,40
419.03018,419.1684,78,70,40
419.1744,419.4629,78,70,40
419.4629,419.67322,83,70,40
419.75134,419.96167,83,70,40
420.32828,420.61673,83,70,40
420.61673,420.76096,84,72,40
420.76096,420.90518,86,73,40
420.90518,421.0494,84,75,40
421.0494,421.19363,83,76,40
421.19363,421.3379,81,77,40
421.3379,421.4761,79,79,40
421.48212,421.77057,84,80,40
421.77057,421.9809,88,83,40
422.05902,422.26938,88,85,40
422.63596,422.93008,81,91,40
422.93008,423.14453,86,93,40
423.22418,423.43866,86,96,40
423.81244,424.11243,83,101,40
424.11243,424.33118,86,104,40
424.4124,424.6403,86,106,40
425.0374,425.19366,89,120,40
425.19366,425.3437,88,120,40
425.3437,425.48257,86,120,40
425.48257,425.62146,84,120,40
425.62146,425.76035,83,120,40
425.76035,425.89923,81,120,40
425.89923,426.03812,79,120,40
426.03812,426.177,77,120,40
426.177,426.3159,76,120,40
426.3159,426.45477,74,120,40
426.45477,426.59366,72,120,40
426.59366,426.73257,71,120,40
426.73257,426.87146,69,120,40
426.87146,427.01035,67,120,40
427.01035,427.14923,65,120,40
427.14923,427.28812,64,120,40
427.28812,427.427,66,120,40
427.427,427.5659,67,120,40
427.5659,427.70477,69,120,40
427.70477,427.84366,71,120,40
427.84366,427.98257,72,120,40
427.98257,428.12146,74,120,40
428.12146,428.26035,76,120,40
428.26035,428.39923,78,120,40
428.39923,428.53812,79,120,40
428.53812,428.677,81,120,40
428.677,428.8159,83,120,40
428.8159,428.95477,84,120,40
428.95477,429.09366,86,120,40
429.09366,429.23257,88,120,40
429.23257,429.37146,90,120,40
429.37146,429.51035,91,120,40
429.51035,429.64923,86,120,40
429.64923,429.78812,84,120,40
429.78812,429.927,83,120,40
429.927,430.0659,81,120,40
430.0659,430.20477,79,120,40
430.20477,430.34366,77,120,40
430.34366,430.48254,76,120,40
430.48254,430.62146,74,120,40
430.62146,430.76035,72,120,40
430.76035,430.89923,71,120,40
430.89923,431.03812,69,120,40
431.03812,431.177,67,120,40
431.177,431.3159,65,120,40
431.3159,431.45477,64,120,40
431.45477,431.59366,62,120,40
431.59366,431.73254,60,120,40
431.73254,431.87146,57,120,40
431.87146,432.01035,59,120,40
432.01035,432.14923,60,120,40
432.14923,432.28812,62,120,40
432.28812,432.427,64,120,40
432.427,432.5659,66,120,40
432.5659,432.70477,67,120,40
432.70477,432.84366,69,120,40
432.84366,432.97678,71,123,40
432.98254,433.12146,71,120,40
433.12146,433.26035,72,120,40
433.26035,433.39923,69,120,40
433.39923,433.53812,71,120,40
433.53812,433.677,72,120,40
433.677,433.8159,74,120,40
433.8159,433.95477,73,120,40
433.95477,434.09366,74,120,40
434.09366,434.23254,79,120,40
434.23254,434.37143,81,120,40
434.37143,434.51035,78,120,40
434.51035,434.64923,79,120,40
434.64923,434.78812,83,120,40
434.78812,434.927,84,120,40
434.927,435.0659,81,120,40
435.0659,435.20477,83,120,40
435.20477,435.34366,86,120,40
435.34366,435.48254,88,120,40
435.48254,435.62143,85,120,40
435.62143,435.82397,86,120,40
435.89923,436.10178,91,120,40
436.177,436.37955,95,120,40
436.45477,436.65732,98,120,40
437.0103,437.2129,57,120,40
437.0103,437.2129,66,120,40
437.28812,437.5601,59,120,40
437.28812,437.5601,67,120,40
442.14078,442.63037,71,60,40
442.64078,443.63037,70,60,40
443.64078,443.89078,71,60,40
443.89078,444.14078,70,60,40
444.14078,444.39078,68,60,40
444.39078,444.63037,66,60,40
444.64078,445.14078,66,60,40
445.14078,445.50537,71,60,40
445.64078,446.00537,71,60,40
450.64078,451.14078,71,60,40
451.14078,451.39078,72,60,40
451.39078,451.64078,74,60,40
451.64078,451.89078,72,60,40
451.89078,452.14078,71,60,40
452.14078,452.39078,69,60,40
452.39078,452.64078,67,60,40
452.64078,453.14078,72,60,40
453.14078,453.50537,76,60,40
453.64078,454.00537,76,60,40
456.64078,457.14078,71,60,40
457.14078,457.51794,74,60,40
457.65802,458.0352,74,60,40
460.8169,461.3526,71,60,40
461.3526,461.7577,74,60,40
461.90817,462.31326,74,60,40
464.13037,464.7073,69,60,40
464.7073,465.3073,74,60,40
466.5073,467.1595,71,60,40
467.1595,467.9095,74,60,40
467.9095,468.148,69,100,40
467.9095,468.148,66,100,40
468.22614,468.42786,69,100,40
468.22614,468.42786,66,100,40
468.49887,468.7006,67,100,40
468.49887,468.7006,71,100,40
468.7716,468.9733,67,100,40
468.7716,468.9733,71,100,40
469.04434,469.24603,69,100,40
469.04434,469.24603,66,100,40
469.31705,469.51877,69,100,40
469.31705,469.51877,66,100,40
469.58978,469.79147,67,100,40
469.58978,469.79147,71,100,40
469.86252,470.0642,67,100,40
469.86252,470.0642,71,100,40
470.13522,470.33694,69,120,40
470.13522,470.33694,66,120,40
470.40796,470.60968,69,120,40
470.40796,470.60968,66,120,40
470.6807,470.8824,67,120,40
470.6807,470.8824,71,120,40
470.95343,471.15512,67,120,40
470.95343,471.15512,71,120,40
471.22614,471.42786,78,120,40
471.22614,471.42786,69,120,40
471.49887,471.76877,69,120,40
471.49887,471.76877,78,120,40
471.90796,472.3142,55,120,40
471.90796,472.3142,62,120,40
471.90796,472.3142,71,120,40
471.90796,472.3142,79,120,40
474.63522,474.70056,67,1,40
0.0,0.549768,79,70,0
0.555555,0.68865675,84,70,0
0.69444376,0.82754546,83,70,0
0.8333325,0.96643424,81,70,0
0.97222126,1.105323,79,70,0
1.11111,1.3831005,81,70,0
1.3888875,1.660878,86,70,0
1.666665,1.9386555,86,70,0
2.22222,2.771988,83,70,0
2.777775,2.9108768,84,70,0
2.9166636,3.0497656,83,70,0
3.0555525,3.1886542,81,70,0
3.1944413,3.327543,79,70,0
3.33333,3.6053205,83,70,0
3.6111076,3.883098,81,70,0
3.888885,4.1608753,81,70,0
4.44444,4.994208,79,70,0
4.999995,5.1330967,84,76,0
5.1388836,5.2719855,83,77,0
5.2777724,5.4108744,81,79,0
5.4166613,5.549763,79,80,0
5.55555,5.8275404,88,82,0
5.8333273,6.105318,91,85,0
6.111105,6.3830953,91,88,0
6.66666,6.9386506,81,94,0
6.9444375,7.216428,86,97,0
7.222215,7.4942055,86,100,0
7.77777,8.054893,83,70,0
8.060788,8.337911,74,70,0
8.343807,8.626259,76,70,0
8.632269,8.914721,78,70,0
8.92073,9.470498,79,70,0
9.476285,9.609386,84,70,0
9.615173,9.748276,83,70,0
9.754063,9.887164,81,70,0
9.892951,10.026053,79,70,0
10.03184,10.30383,81,70,0
10.309617,10.581608,86,70,0
10.587395,10.8593855,86,70,0
11.14295,11.692718,83,70,0
11.698505,11.831607,84,70,0
11.837394,11.970495,83,70,0
11.976282,12.109385,81,70,0
12.115171,12.248273,79,70,0
12.25406,12.526051,83,70,0
12.531837,12.803828,81,70,0
12.809615,13.081606,81,70,0
13.36517,13.914938,79,70,0
13.920725,14.053826,84,76,0
14.059614,14.192716,83,77,0
14.198503,14.331604,81,79,0
14.337391,14.470493,79,80,0
14.47628,14.74827,88,82,0
14.754058,15.026048,91,85,0
15.031835,15.303825,91,88,0
15.58739,15.859381,81,94,0
15.865168,16.137157,86,97,0
16.142944,16.414936,86,100,0
16.6985,17.54699,83,70,0
17.552998,17.835451,83,70,0
17.84146,18.391228,82,70,0
18.397015,18.530117,83,70,0
18.535904,18.669006,82,70,0
18.674793,18.807894,80,70,0
18.81368,18.946783,78,70,0
18.95257,19.22456,78,70,0
19.230347,19.502338,83,70,0
19.508125,19.780115,83,70,0
20.06368,20.33567,82,70,0
20.341457,20.47456,83,70,0
20.480347,20.613447,85,70,0
20.619234,20.752337,83,70,0
20.758123,20.891226,82,70,0
20.897013,21.030115,80,70,0
21.035902,21.169003,78,70,0
21.17479,21.446781,78,70,0
21.452568,21.724558,83,70,0
21.730345,22.002335,83,70,0
22.2859,22.55789,83,70,0
22.563677,22.69678,84,73,0
22.702566,22.835669,86,74,0
22.841455,22.974556,84,76,0
22.980343,23.113445,83,77,0
23.119232,23.252335,81,79,0
23.258121,23.391224,79,80,0
23.39701,23.669,84,82,0
23.674788,23.946777,88,85,0
23.952564,24.224556,88,88,0
24.50812,24.780111,81,94,0
24.785898,25.057888,86,97,0
25.063675,25.335665,86,100,0
25.61923,26.467718,83,70,0
26.473728,26.75618,83,70,0
26.76219,27.311958,82,70,0
27.317745,27.450848,83,70,0
27.456635,27.589735,82,70,0
27.595522,27.728624,80,70,0
27.734411,27.867514,78,70,0
27.8733,28.14529,78,70,0
28.151077,28.423067,83,70,0
28.428856,28.700846,83,70,0
28.98441,29.256401,82,70,0
29.262188,29.395288,83,70,0
29.401075,29.534178,85,70,0
29.539965,29.673067,83,70,0
29.678854,29.811956,82,70,0
29.817743,29.950844,80,70,0
29.95663,30.089733,78,70,0
30.09552,30.36751,78,70,0
30.373297,30.645288,83,70,0
30.651075,30.923065,83,70,0
31.20663,31.47862,83,70,0
31.484407,31.61751,84,73,0
31.623297,31.756397,86,74,0
31.762184,31.895287,84,76,0
31.901073,32.034176,83,77,0
32.039963,32.173065,81,79,0
32.178852,32.311954,79,80,0
32.31774,32.58973,84,82,0
32.595516,32.867508,88,85,0
32.873295,33.145287,88,88,0
33.42885,33.70084,81,94,0
33.706627,33.97862,86,97,0
33.984406,34.256397,86,100,0
34.53996,35.08973,83,70,0
35.92885,36.200836,62,70,0
35.92885,36.200836,67,70,0
36.206627,36.483746,63,80,0
36.206627,36.483746,69,80,0
36.489643,36.772095,62,70,0
36.489643,36.772095,67,70,0
36.778107,37.050095,62,70,0
36.778107,37.050095,66,70,0
37.05588,37.327873,74,70,0
37.05588,37.327873,86,70,0
37.33366,37.60565,73,90,0
37.33366,37.60565,85,90,0
37.61144,37.883427,74,80,0
37.61144,37.883427,86,80,0
37.889214,38.161205,74,70,0
37.889214,38.161205,83,70,0
38.166992,38.438984,79,70,0
38.166992,38.438984,83,70,0
38.44477,38.721893,84,90,0
38.44477,38.721893,81,90,0
38.727787,39.01024,79,80,0
38.727787,39.01024,83,80,0
39.01625,39.288242,78,70,0
39.01625,39.288242,81,70,0
39.29403,39.566017,84,70,0
39.29403,39.566017,81,70,0
39.571804,39.843796,79,80,0
39.571804,39.843796,83,80,0
39.849583,40.121574,72,70,0
39.849583,40.121574,81,70,0
40.12736,40.39935,71,70,0
40.12736,40.39935,79,70,0
40.405136,40.677128,67,70,0
40.682915,40.960037,69,80,0
40.965935,41.248386,67,70,0
41.254395,41.526386,72,70,0
41.532173,41.80416,91,70,0
41.532173,41.80416,88,70,0
41.80995,42.08194,87,80,0
41.80995,42.08194,90,80,0
42.087727,42.35972,88,70,0
42.087727,42.35972,91,70,0
42.365505,42.637497,81,70,0
42.643284,42.91527,74,70,0
42.643284,42.91527,86,70,0
42.92106,43.19818,73,80,0
42.92106,43.19818,85,80,0
43.20408,43.48653,74,70,0
43.20408,43.48653,86,70,0
43.49254,43.76453,83,70,0
43.49254,43.76453,71,70,0
44.881428,45.15342,62,70,0
44.881428,45.15342,67,70,0
45.159206,45.43633,63,80,0
45.159206,45.43633,69,80,0
45.442223,45.724674,62,70,0
45.442223,45.724674,67,70,0
45.730686,46.002674,62,70,0
45.730686,46.002674,66,70,0
46.00846,46.280453,74,70,0
46.00846,46.280453,86,70,0
46.28624,46.55823,73,90,0
46.28624,46.55823,85,90,0
46.56402,46.836006,74,80,0
46.56402,46.836006,86,80,0
46.841797,47.113785,74,70,0
46.841797,47.113785,83,70,0
47.11957,47.391563,79,70,0
47.11957,47.391563,83,70,0
47.39735,47.674473,84,90,0
47.39735,47.674473,81,90,0
47.68037,47.962822,79,80,0
47.68037,47.962822,83,80,0
47.96883,48.24082,78,70,0
47.96883,48.24082,81,70,0
48.24661,48.518597,84,70,0
48.24661,48.518597,81,70,0
48.524384,48.796375,79,80,0
48.524384,48.796375,83,80,0
48.802162,49.074154,72,70,0
48.802162,49.074154,81,70,0
49.07994,49.35193,71,70,0
49.07994,49.35193,79,70,0
49.357716,49.629707,67,70,0
49.635494,49.912617,69,80,0
49.918514,50.200966,67,70,0
50.206974,50.478966,72,70,0
50.484753,50.756744,91,70,0
50.484753,50.756744,88,70,0
50.76253,51.03452,87,80,0
50.76253,51.03452,90,80,0
51.040306,51.312298,88,70,0
51.040306,51.312298,91,70,0
51.318085,51.590076,81,70,0
51.595863,51.86785,74,70,0
51.595863,51.86785,86,70,0
51.87364,52.15076,73,80,0
51.87364,52.15076,85,80,0
52.15666,52.43911,74,70,0
52.15666,52.43911,86,70,0
52.44512,52.71711,83,70,0
52.44512,52.71711,71,70,0
52.722897,53.272667,62,70,0
53.278454,53.55044,59,70,0
53.55623,53.82822,58,70,0
53.834007,54.106,52,70,0
53.834007,54.106,64,70,0
54.111786,54.383774,54,80,0
54.111786,54.383774,66,80,0
54.38956,54.661552,52,70,0
54.38956,54.661552,64,70,0
54.66734,54.93933,63,70,0
54.66734,54.93933,51,70,0
54.945118,55.21711,75,70,0
54.945118,55.21711,83,70,0
55.222897,55.494884,76,80,0
55.222897,55.494884,82,80,0
55.50067,55.772663,75,70,0
55.50067,55.772663,83,70,0
55.77845,56.05044,76,70,0
55.77845,56.05044,82,70,0
56.05623,56.328217,66,70,0
56.05623,56.328217,73,70,0
56.05623,56.328217,76,70,0
56.334003,56.611126,66,80,0
56.334003,56.611126,75,80,0
56.334003,56.611126,78,80,0
56.617023,56.899475,66,70,0
56.617023,56.899475,73,70,0
56.617023,56.899475,76,70,0
56.905483,57.177475,66,70,0
56.905483,57.177475,71,70,0
56.905483,57.177475,75,70,0
57.18326,57.455254,51,70,0
57.18326,57.455254,63,70,0
57.46104,57.733032,52,80,0
57.46104,57.733032,64,80,0
57.73882,58.010807,50,70,0
57.73882,58.010807,62,70,0
58.016594,58.288586,50,70,0
58.016594,58.288586,62,70,0
58.294373,58.566364,55,70,0
58.294373,58.566364,65,70,0
58.57215,58.849274,55,80,0
58.57215,58.849274,67,80,0
58.855167,59.13762,55,70,0
58.855167,59.13762,65,70,0
59.14363,59.41562,55,70,0
59.14363,59.41562,64,70,0
59.421406,59.693398,84,70,0
59.421406,59.693398,88,70,0
59.699184,59.971176,86,80,0
59.699184,59.971176,89,80,0
59.976963,60.248955,84,70,0
59.976963,60.248955,88,70,0
60.25474,60.52673,81,70,0
60.532516,60.80451,62,70,0
60.532516,60.80451,66,70,0
60.810295,61.087418,64,70,0
60.810295,61.087418,67,70,0
61.093315,61.375767,66,70,0
61.093315,61.375767,69,70,0
61.381775,61.653767,71,70,0
61.381775,61.653767,67,70,0
61.659554,62.20932,62,70,0
62.215107,62.4871,59,70,0
62.492886,62.764877,58,70,0
62.770664,63.042652,52,70,0
62.770664,63.042652,64,70,0
63.04844,63.32556,54,80,0
63.04844,63.32556,66,80,0
63.33146,63.61391,52,70,0
63.33146,63.61391,64,70,0
63.61992,63.89191,63,70,0
63.61992,63.89191,51,70,0
63.897697,64.169685,75,70,0
63.897697,64.169685,83,70,0
64.175476,64.447464,76,80,0
64.175476,64.447464,82,80,0
64.453255,64.72524,75,70,0
64.453255,64.72524,83,70,0
64.73103,65.00302,76,70,0
64.73103,65.00302,82,70,0
65.008804,65.2808,66,70,0
65.008804,65.2808,73,70,0
65.008804,65.2808,76,70,0
65.28658,65.563705,66,80,0
65.28658,65.563705,75,80,0
65.28658,65.563705,78,80,0
65.5696,65.85206,66,70,0
65.5696,65.85206,73,70,0
65.5696,65.85206,76,70,0
65.85806,66.13006,66,70,0
65.85806,66.13006,71,70,0
65.85806,66.13006,75,70,0
66.13584,66.40783,51,70,0
66.13584,66.40783,63,70,0
66.41362,66.68561,52,80,0
66.41362,66.68561,64,80,0
66.6914,66.96339,50,70,0
66.6914,66.96339,62,70,0
66.96918,67.241165,50,70,0
66.96918,67.241165,62,70,0
67.246956,67.51894,55,70,0
67.246956,67.51894,65,70,0
67.52473,67.80185,55,80,0
67.52473,67.80185,67,80,0
67.80775,68.0902,55,70,0
67.80775,68.0902,65,70,0
68.09621,68.3682,55,70,0
68.09621,68.3682,64,70,0
68.373985,68.64598,84,70,0
68.373985,68.64598,88,70,0
68.651764,68.92375,86,80,0
68.651764,68.92375,89,80,0
68.92954,69.20153,84,70,0
68.92954,69.20153,88,70,0
69.20732,69.47931,81,70,0
69.4851,69.75709,62,70,0
69.4851,69.75709,66,70,0
69.76288,70.04,64,70,0
69.76288,70.04,67,70,0
70.04589,70.32835,66,70,0
70.04589,70.32835,69,70,0
70.33436,70.513756,71,70,0
70.33436,70.513756,67,70,0
70.51954,70.606346,62,76,0
70.5832,70.670006,64,78,0
70.64686,70.73366,62,80,0
70.70473,70.884125,61,82,0
70.88991,71.069305,62,88,0
71.075096,71.25449,64,94,0
71.26028,71.439674,66,100,0
71.445465,71.62486,67,100,0
71.63065,71.71745,62,100,0
71.694305,71.78111,64,100,0
71.757965,71.84477,62,100,0
71.815834,71.99523,61,100,0
72.00102,72.18042,62,100,0
72.1862,72.3656,67,100,0
72.37139,72.55079,71,100,0
72.55657,72.73597,69,100,0
72.74176,72.82857,62,100,0
72.80542,72.89222,64,100,0
72.86907,72.95588,62,100,0
72.92695,73.106346,61,100,0
73.11213,73.29153,62,100,0
73.29732,73.476715,69,100,0
73.4825,73.661896,74,100,0
73.66769,73.847084,71,100,0
73.85287,73.939674,62,100,0
73.91653,74.003334,64,100,0
73.98019,74.06699,62,100,0
74.038055,74.21745,61,100,0
74.22324,74.40264,62,100,0
74.408424,74.58782,67,100,0
74.59361,74.77301,71,100,0
74.77879,74.95819,69,100,0
74.96398,75.05079,62,100,0
75.02763,75.11444,64,100,0
75.09129,75.1781,62,100,0
75.14916,75.32856,61,100,0
75.33435,75.51375,62,100,0
75.51953,75.69894,66,100,0
75.70472,75.88412,69,100,0
75.88991,76.069305,67,100,0
76.07509,76.161896,67,100,0
76.13875,76.225555,69,100,0
76.20241,76.28921,67,100,0
76.26028,76.439674,66,100,0
76.44546,76.624855,67,100,0
76.630646,76.81004,67,100,0
76.81583,76.99523,74,100,0
77.001015,77.18041,76,100,0
77.1862,77.273,64,100,0
77.249855,77.33666,66,100,0
77.313515,77.40032,64,100,0
77.37138,77.55078,63,100,0
77.55657,77.73597,64,100,0
77.74175,77.92115,76,100,0
77.92694,78.10634,79,100,0
78.11212,78.29152,69,100,0
78.29731,78.38412,62,100,0
78.36097,78.44777,64,100,0
78.42462,78.51143,62,100,0
78.4825,78.661896,61,100,0
78.66768,78.84708,62,100,0
78.85287,79.032265,69,100,0
79.03805,79.217445,74,100,0
79.223236,79.773,71,100,0
80.33434,80.88411,74,100,0
80.33434,80.88411,79,100,0
80.33434,80.88411,83,100,0
80.33434,80.88411,86,100,0
81.07509,81.254486,74,100,0
81.07509,81.254486,79,100,0
81.07509,81.254486,86,100,0
81.07509,81.254486,83,100,0
81.26027,81.43967,74,100,0
81.26027,81.43967,79,100,0
81.26027,81.43967,86,100,0
81.26027,81.43967,83,100,0
81.44546,81.995224,74,100,0
81.44546,81.995224,81,100,0
81.44546,81.995224,86,100,0
82.186195,82.36559,74,100,0
82.186195,82.36559,81,100,0
82.186195,82.36559,86,100,0
82.37138,82.55078,74,100,0
82.37138,82.55078,81,100,0
82.37138,82.55078,86,100,0
82.556564,83.10633,74,100,0
82.556564,83.10633,83,100,0
82.556564,83.10633,86,100,0
83.2973,83.4767,74,100,0
83.2973,83.4767,83,100,0
83.2973,83.4767,86,100,0
83.48249,83.66189,74,100,0
83.48249,83.66189,83,100,0
83.48249,83.66189,86,100,0
83.66767,84.217445,74,100,0
83.66767,84.217445,81,100,0
83.66767,84.217445,86,100,0
84.40842,84.587814,74,100,0
84.40842,84.587814,78,100,0
84.40842,84.587814,81,100,0
84.40842,84.587814,86,100,0
84.5936,84.772995,74,100,0
84.5936,84.772995,78,100,0
84.5936,84.772995,81,100,0
84.5936,84.772995,86,100,0
84.778786,85.32855,74,100,0
84.778786,85.32855,79,100,0
84.778786,85.32855,86,100,0
85.51952,85.69892,79,100,0
85.51952,85.69892,86,100,0
85.51952,85.69892,91,100,0
85.70471,85.88411,79,100,0
85.70471,85.88411,86,100,0
85.70471,85.88411,91,100,0
85.88989,86.43967,79,100,0
85.88989,86.43967,88,100,0
85.88989,86.43967,91,100,0
86.63064,86.810036,79,100,0
86.63064,86.810036,88,100,0
86.63064,86.810036,91,100,0
86.81582,86.99522,79,100,0
86.81582,86.99522,88,100,0
86.81582,86.99522,91,100,0
87.00101,87.55077,78,100,0
87.00101,87.55077,86,100,0
87.00101,87.55077,90,100,0
87.741745,87.92114,78,100,0
87.741745,87.92114,81,100,0
87.741745,87.92114,86,100,0
87.741745,87.92114,90,100,0
87.92693,88.10633,78,100,0
87.92693,88.10633,81,100,0
87.92693,88.10633,86,100,0
87.92693,88.10633,90,100,0
88.112114,88.29151,91,100,0
88.112114,88.29151,86,100,0
88.112114,88.29151,83,100,0
88.112114,88.29151,79,100,0
88.2973,88.3841,59,100,0
88.35517,88.44198,60,100,0
88.41304,88.49985,59,100,0
88.48248,88.66188,58,100,0
88.66767,88.84707,59,100,0
88.85285,89.03225,62,100,0
89.03804,89.21744,71,100,0
89.22323,89.402626,70,100,0
89.40841,89.49522,66,100,0
89.46628,89.553085,68,100,0
89.52415,89.610954,66,100,0
89.5936,89.772995,65,100,0
89.77878,89.958176,66,100,0
89.96397,90.143364,70,100,0
90.14915,90.328545,73,100,0
90.334335,90.51373,71,100,0
90.51952,90.60632,66,100,0
90.57739,90.66419,68,100,0
90.63526,90.72207,66,100,0
90.704704,90.8841,65,100,0
90.88989,91.06929,66,100,0
91.07507,91.25447,71,100,0
91.26026,91.43966,75,100,0
91.44544,91.62484,70,100,0
91.63063,91.71744,66,100,0
91.6885,91.77531,68,100,0
91.74637,91.833176,66,100,0
91.81582,91.99522,65,100,0
92.001,92.1804,66,100,0
92.18619,92.365585,70,100,0
92.37137,92.550766,73,100,0
92.55656,92.735954,71,100,0
92.74174,92.828545,66,100,0
92.799614,92.88641,68,100,0
92.85748,92.94428,66,100,0
92.926926,93.10632,65,100,0
93.11211,93.29151,66,100,0
93.297295,93.47669,71,100,0
93.48248,93.66188,74,100,0
93.66766,93.84706,74,100,0
93.85285,93.93966,65,100,0
93.91072,93.99753,67,100,0
93.96859,94.0554,65,100,0
94.03803,94.21743,64,100,0
94.22322,94.40262,65,100,0
94.4084,94.58781,71,100,0
94.59359,94.77299,74,100,0
94.77878,94.958176,76,100,0
94.96396,95.050766,64,100,0
95.02183,95.108635,65,100,0
95.079704,95.166504,64,100,0
95.14915,95.328545,63,100,0
95.33433,95.513725,64,100,0
95.519516,95.69891,76,100,0
95.7047,95.884094,88,100,0
95.889885,96.06928,81,100,0
96.07507,96.16187,74,100,0
96.13294,96.21975,76,100,0
96.19081,96.27762,74,100,0
96.260254,96.43965,73,100,0
96.44544,96.62484,74,100,0
96.63062,96.81002,81,100,0
96.81581,96.99521,86,100,0
97.00099,97.550766,83,100,0
97.74174,97.921135,59,100,0
97.92692,98.106316,62,100,0
98.11211,98.66187,61,100,0
98.852844,99.03224,90,100,0
98.852844,99.03224,78,100,0
99.03803,99.21743,90,100,0
99.03803,99.21743,78,100,0
99.22321,99.77298,90,100,0
99.22321,99.77298,78,100,0
99.96396,100.14336,90,100,0
99.96396,100.14336,78,100,0
100.14914,100.32854,90,100,0
100.14914,100.32854,78,100,0
100.33433,100.884094,78,100,0
100.33433,100.884094,90,100,0
101.075066,101.25446,90,100,0
101.075066,101.25446,78,100,0
101.26025,101.43965,90,100,0
101.26025,101.43965,78,100,0
101.445435,101.9952,78,100,0
101.445435,101.9952,90,100,0
102.18617,102.36557,90,100,0
102.18617,102.36557,78,100,0
102.37136,102.55076,90,100,0
102.37136,102.55076,78,100,0
102.55654,103.106316,77,100,0
102.55654,103.106316,89,100,0
103.29729,103.476685,79,100,0
103.29729,103.476685,91,100,0
103.48247,103.661865,79,100,0
103.48247,103.661865,91,100,0
103.667656,104.21742,79,100,0
103.667656,104.21742,91,100,0
104.408394,104.58779,64,100,0
104.408394,104.58779,72,100,0
104.59358,104.77298,64,100,0
104.59358,104.77298,72,100,0
104.77876,105.333664,66,100,0
104.77876,105.333664,69,100,0
105.53187,105.72177,57,100,0
105.53187,105.72177,62,100,0
105.53187,105.72177,66,100,0
105.72802,105.921776,57,100,0
105.72802,105.921776,62,100,0
105.72802,105.921776,66,100,0
105.928024,106.21112,59,100,0
105.928024,106.21112,62,100,0
105.928024,106.21112,67,100,0
107.05025,107.322235,67,70,0
107.32802,107.87779,71,70,0
107.883575,108.15556,71,70,0
108.161354,108.43334,76,70,0
108.43913,108.9889,76,70,0
108.99469,109.54446,74,70,0
109.55024,110.100006,79,70,0
110.1058,110.65556,79,70,0
110.661354,111.21112,78,70,0
111.2169,111.4889,78,70,0
111.49468,111.76668,79,70,0
111.77246,112.32223,79,70,0
112.32802,112.600006,77,70,0
112.32802,112.877785,79,70,0
112.6058,112.877785,76,70,0
112.88357,113.43334,76,70,0
113.439125,113.71111,76,70,0
113.7169,113.98889,74,70,0
113.99468,114.54445,74,70,0
114.55024,115.100006,74,70,0
115.10579,115.655556,71,70,0
115.66135,116.21111,71,70,0
116.2169,116.76667,67,70,0
116.77245,117.32223,67,70,0
117.32801,117.6,67,70,0
117.60579,117.87778,72,70,0
117.88357,118.155556,72,70,0
118.16135,118.433334,71,70,0
118.439125,118.98889,71,70,0
118.994675,119.26667,70,70,0
119.27245,119.54444,69,70,0
119.55023,120.1,69,70,0
120.10579,120.655556,74,70,0
120.66134,121.21111,71,70,0
121.216896,121.488884,71,70,0
121.216896,121.488884,77,70,0
121.494675,121.76666,72,70,0
121.494675,121.76666,76,70,0
121.77245,122.32222,72,70,0
122.328,122.87778,72,70,0
122.88356,123.43333,72,70,0
123.43912,123.711105,72,70,0
123.716896,123.988884,71,70,0
123.994675,124.54444,67,70,0
124.550224,124.82222,65,70,0
124.828,125.09999,66,70,0
125.10578,125.65555,66,70,0
125.66134,126.211105,66,70,0
126.21689,126.76666,66,70,0
126.772446,127.04443,71,70,0
127.050224,127.32221,70,70,0
127.328,127.882904,66,70,0
127.328,127.882904,70,70,0
127.888794,128.16592,66,70,0
127.888794,128.16592,70,70,0
128.17181,128.45427,66,70,0
128.17181,128.45427,71,70,0
128.46028,129.0425,66,70,0
128.46028,129.0425,71,70,0
129.04874,129.35472,66,70,0
129.04874,129.35472,71,70,0
129.36124,129.63857,67,70,0
129.36124,129.63857,71,70,0
129.64436,130.19412,67,70,0
129.64436,130.19412,71,70,0
130.19992,130.47191,67,70,0
130.19992,130.47191,71,70,0
130.47769,130.74968,67,70,0
130.47769,130.74968,72,70,0
130.75546,131.30524,72,70,0
130.75546,131.30524,76,70,0
131.31102,131.58301,72,70,0
131.31102,131.58301,76,70,0
131.5888,131.8608,72,70,0
131.5888,131.8608,74,70,0
131.86658,132.41635,74,70,0
131.86658,132.41635,72,70,0
132.42213,132.69412,72,70,0
132.42213,132.97191,74,70,0
132.6999,132.97191,71,70,0
132.97769,133.24968,67,70,0
132.97769,133.24968,71,70,0
133.25546,133.52745,62,70,0
133.25546,133.52745,67,70,0
133.53325,133.66635,59,70,0
133.67213,133.80524,62,70,0
133.81102,134.08301,61,70,0
134.08879,134.63857,64,70,0
134.64435,134.91635,64,70,0
134.92213,135.19412,63,70,0
135.1999,135.4719,66,70,0
135.47769,135.74968,62,70,0
135.75546,136.02745,66,70,0
136.03323,136.30524,64,70,0
136.31102,136.58301,61,70,0
136.31102,136.58301,66,70,0
136.58879,136.86078,64,70,0
136.86658,137.13857,61,70,0
136.86658,137.41634,66,70,0
137.14435,137.41634,63,70,0
137.42213,137.69412,66,70,0
137.6999,137.9719,62,70,0
137.97768,138.24968,66,70,0
137.97768,138.52745,62,70,0
138.25546,138.52745,67,70,0
138.53323,138.80522,67,70,0
138.81102,139.08301,62,70,0
138.81102,139.08301,67,70,0
139.08879,139.36078,62,70,0
139.08879,139.63857,67,70,0
139.36658,139.63857,60,70,0
139.64435,140.19412,64,70,0
139.64435,140.19412,72,70,0
140.1999,140.4719,67,70,0
140.1999,140.74966,72,70,0
140.47768,140.74966,69,70,0
140.75546,141.31569,69,70,0
140.75546,141.31569,72,70,0
141.3217,141.61545,69,70,0
141.3217,141.61545,72,70,0
141.6217,141.91545,67,70,0
141.6217,141.91545,71,70,0
143.09947,143.51036,67,110,0
143.09947,143.51036,71,110,0
143.09947,143.51036,74,110,0
143.09947,143.51036,79,110,0
143.65503,144.0659,67,110,0
143.65503,144.0659,71,110,0
143.65503,144.0659,74,110,0
143.65503,144.0659,79,110,0
144.21059,144.62146,69,110,0
144.21059,144.62146,74,110,0
144.21059,144.62146,81,110,0
144.76614,145.03813,74,110,0
144.76614,145.03813,78,110,0
144.76614,145.03813,81,110,0
144.76614,145.03813,86,110,0
145.04391,145.46255,83,70,0
145.46844,145.60406,81,70,0
145.60995,145.74556,79,70,0
145.75146,145.88707,78,70,0
145.89297,146.02858,76,70,0
146.03448,146.17009,74,70,0
146.176,146.3116,73,70,0
146.3175,146.45311,74,70,0
146.45901,146.59462,72,70,0
146.60052,146.73613,71,70,0
146.74203,146.87764,69,70,0
146.88354,147.01915,72,70,0
147.02504,147.16066,71,70,0
147.16655,147.30217,69,70,0
147.30806,147.71895,59,110,0
147.30806,147.71895,62,110,0
147.30806,147.71895,67,110,0
147.86362,148.2745,67,110,0
147.86362,148.2745,71,110,0
147.86362,148.2745,74,110,0
147.86362,148.2745,79,110,0
148.41917,148.83005,76,110,0
148.41917,148.83005,79,110,0
148.41917,148.83005,88,110,0
148.97473,149.3856,79,110,0
148.97473,149.3856,81,110,0
148.97473,149.3856,88,110,0
148.97473,149.3856,91,110,0
149.53029,149.8074,69,70,0
149.81331,149.94891,78,70,0
149.95482,150.09042,76,70,0
150.09633,150.23193,74,70,0
150.23784,150.37344,72,70,0
150.37933,150.51495,71,70,0
150.52084,150.65646,69,70,0
150.66235,150.79797,67,70,0
150.80386,150.93948,67,70,0
150.94537,151.081,66,70,0
151.08688,151.2225,64,70,0
151.2284,151.36401,62,70,0
151.3699,151.50552,60,70,0
151.51141,151.64703,59,70,0
151.65292,151.78854,57,70,0
151.79443,152.2053,55,110,0
152.34999,152.76086,67,110,0
152.34999,152.76086,71,110,0
152.34999,152.76086,74,110,0
152.34999,152.76086,79,110,0
152.90555,153.31642,69,110,0
152.90555,153.31642,74,110,0
152.90555,153.31642,81,110,0
153.4611,153.87198,74,110,0
153.4611,153.87198,78,110,0
153.4611,153.87198,81,110,0
153.4611,153.87198,86,110,0
154.01665,154.43529,79,70,0
154.44118,154.5768,78,70,0
154.58269,154.7183,76,70,0
154.7242,154.85982,74,70,0
154.8657,155.00133,72,70,0
155.00722,155.14284,71,70,0
155.14873,155.28435,70,70,0
155.29024,155.42584,71,70,0
155.43175,155.56735,69,70,0
155.57326,155.70886,67,70,0
155.71477,155.85037,66,70,0
155.85628,155.99188,64,70,0
155.99779,156.13339,62,70,0
156.1393,156.2749,60,70,0
156.2808,156.5528,59,110,0
156.55858,156.96945,67,110,0
156.55858,156.96945,71,110,0
156.55858,156.96945,74,110,0
156.55858,156.96945,79,110,0
157.11414,157.52501,67,110,0
157.11414,157.52501,71,110,0
157.11414,157.52501,74,110,0
157.11414,157.52501,79,110,0
157.6697,158.08057,76,110,0
157.6697,158.08057,79,110,0
157.6697,158.08057,88,110,0
158.22525,158.49724,79,110,0
158.22525,158.49724,81,110,0
158.22525,158.49724,88,110,0
158.22525,158.49724,91,110,0
158.50302,158.78014,78,70,0
158.78604,158.92165,81,70,0
158.92755,159.06316,79,70,0
159.06906,159.20467,78,70,0
159.21057,159.34618,76,70,0
159.35208,159.48769,74,70,0
159.49359,159.6292,72,70,0
159.6351,159.7707,71,70,0
159.77661,159.91222,62,70,0
159.91812,160.05373,62,70,0
160.05962,160.19524,62,70,0
160.20113,160.33675,62,70,0
160.34264,160.47826,74,70,0
160.48415,160.61977,62,70,0
160.62566,160.76128,62,70,0
160.76717,161.03915,61,110,0
161.04495,161.45583,78,110,0
161.04495,161.45583,73,110,0
161.04495,161.45583,70,110,0
161.04495,161.45583,66,110,0
161.6005,162.01138,66,110,0
161.6005,162.01138,70,110,0
161.6005,162.01138,73,110,0
161.6005,162.01138,78,110,0
162.15605,162.56694,66,110,0
162.15605,162.56694,71,110,0
162.15605,162.56694,75,110,0
162.15605,162.56694,78,110,0
162.71161,162.9836,66,110,0
162.71161,162.9836,71,110,0
162.71161,162.9836,75,110,0
162.71161,162.9836,78,110,0
162.9894,163.40802,82,70,0
163.41391,163.54953,80,70,0
163.55542,163.69104,78,70,0
163.69693,163.83255,76,70,0
163.83844,163.97406,75,70,0
163.97995,164.11557,73,70,0
164.12146,164.25708,73,70,0
164.26297,164.39859,71,70,0
164.40448,164.5401,70,70,0
164.54599,164.68161,71,70,0
164.6875,164.82312,70,70,0
164.82901,164.96463,71,70,0
164.97052,165.10612,70,70,0
165.11203,165.24763,71,70,0
165.25354,165.66441,71,110,0
165.8091,166.21997,71,110,0
165.8091,166.21997,74,110,0
165.8091,166.21997,77,110,0
165.8091,166.21997,79,110,0
165.8091,166.21997,83,110,0
166.36465,166.77553,72,110,0
166.36465,166.77553,76,110,0
166.36465,166.77553,79,110,0
166.36465,166.77553,84,110,0
166.9202,167.33109,76,110,0
166.9202,167.33109,84,110,0
166.9202,167.33109,88,110,0
167.47575,167.8944,78,70,0
167.90028,168.0359,76,70,0
168.0418,168.17741,74,70,0
168.1833,168.31892,72,70,0
168.32481,168.46042,71,70,0
168.46632,168.60193,69,70,0
168.60783,168.74344,67,70,0
168.74934,168.88495,59,70,0
168.89085,169.02646,59,70,0
169.03236,169.16797,59,70,0
169.17387,169.30948,59,70,0
169.31538,169.45099,71,70,0
169.4569,169.5925,71,70,0
169.59839,169.73401,71,70,0
169.7399,170.15079,61,110,0
169.7399,170.15079,66,110,0
169.7399,170.15079,70,110,0
170.29546,170.70634,70,110,0
170.29546,170.70634,73,110,0
170.29546,170.70634,78,110,0
170.29546,170.70634,82,110,0
170.85101,171.2619,63,110,0
170.85101,171.2619,66,110,0
170.85101,171.2619,71,110,0
171.40657,171.81744,71,110,0
171.40657,171.81744,75,110,0
171.40657,171.81744,78,110,0
171.40657,171.81744,83,110,0
171.96213,172.38075,76,70,0
172.38666,172.52226,75,70,0
172.52817,172.66377,73,70,0
172.66968,172.80528,71,70,0
172.81119,172.9468,70,70,0
172.95268,173.0883,70,70,0
173.0942,173.22981,66,70,0
173.2357,173.37132,66,70,0
173.37721,173.51283,67,70,0
173.51872,173.65434,66,70,0
173.66023,173.79585,67,70,0
173.80174,173.93736,66,70,0
173.94325,174.07887,67,70,0
174.08476,174.22038,66,70,0
174.22627,174.49826,62,110,0
174.22627,174.49826,65,110,0
174.50404,174.91493,65,110,0
174.50404,174.91493,74,110,0
174.50404,174.91493,71,110,0
174.50404,174.91493,77,110,0
175.0596,175.47049,65,110,0
175.0596,175.47049,71,110,0
175.0596,175.47049,74,110,0
175.0596,175.47049,77,110,0
175.61516,176.02605,64,110,0
175.61516,176.02605,67,110,0
175.61516,176.02605,72,110,0
175.61516,176.02605,76,110,0
176.17072,176.4427,76,110,0
176.17072,176.4427,84,110,0
176.44849,176.86713,81,70,0
176.87302,177.00864,79,70,0
177.01453,177.15276,78,70,0
177.15877,177.29698,76,70,0
177.303,177.44121,74,70,0
177.44722,177.58545,72,70,0
177.59145,177.7352,71,70,0
177.74146,177.88521,69,70,0
177.89145,178.0412,67,70,0
178.0477,178.19745,66,70,0
178.20395,178.36368,64,70,0
178.37062,178.55031,62,70,0
178.55812,178.77592,55,70,0
178.55812,178.77592,64,70,0
178.78539,179.14476,57,70,0
178.78539,179.14476,66,70,0
179.16039,181.13956,67,70,0
181.16039,181.26456,67,70,0
181.22289,181.32706,69,70,0
181.28539,181.38956,67,70,0
181.34789,181.45206,69,70,0
181.41039,181.51456,67,70,0
181.47289,181.57706,69,70,0
181.53539,181.63956,67,70,0
181.59789,181.70206,69,70,0
181.66039,181.76456,67,70,0
181.72289,181.82706,69,70,0
181.78539,181.88956,67,70,0
181.84789,181.95206,69,70,0
181.91039,182.01456,67,70,0
181.97289,182.07706,69,70,0
182.03539,182.13956,67,70,0
182.09789,182.20206,69,70,0
182.16039,183.47289,71,70,0
183.32706,183.63956,62,70,0
183.49373,183.80623,61,70,0
183.66039,183.97289,62,70,0
183.82706,184.13956,64,70,0
183.99373,184.30623,66,70,0
184.16039,184.47289,67,70,0
184.32706,184.63956,69,70,0
184.49373,184.80623,71,70,0
184.66039,184.97289,74,70,0
184.82706,185.13956,72,70,0
184.99373,185.13956,71,70,0
185.16039,186.13956,68,70,0
186.16039,188.63956,69,70,0
188.66039,188.97289,73,70,0
188.82706,189.13956,76,70,0
188.99373,189.30623,74,70,0
189.16039,189.47289,73,70,0
189.32706,189.63956,76,70,0
189.49373,189.80623,74,70,0
189.66039,189.97289,73,70,0
189.82706,190.13956,76,70,0
189.99373,190.30623,74,70,0
190.16039,190.47289,71,70,0
190.32706,190.63956,74,70,0
190.49373,190.80623,72,70,0
190.66039,190.97289,71,70,0
190.82706,191.13956,74,70,0
190.99373,191.13956,72,70,0
191.16039,192.13956,70,70,0
192.16039,193.13956,71,70,0
192.99373,194.30623,83,70,0
194.32706,194.63956,71,70,0
194.49373,194.80623,69,70,0
194.66039,194.97289,71,70,0
194.82706,195.13956,72,70,0
194.99373,195.30623,73,70,0
195.16039,195.47289,74,70,0
195.32706,195.63956,75,70,0
195.49373,195.80623,76,70,0
195.66039,195.97289,77,70,0
195.82706,196.13956,78,70,0
195.99373,196.30623,79,70,0
196.16039,196.38956,80,70,0
196.28539,196.51456,81,70,0
196.41039,196.63956,82,70,0
196.53539,196.76456,83,70,0
196.66039,196.88956,84,70,0
196.78539,197.01456,85,70,0
196.91039,197.13956,86,70,0
197.03539,197.13956,83,70,0
197.16039,198.13956,83,70,0
198.16039,198.26456,81,70,0
198.22289,198.32706,83,70,0
198.28539,198.38956,81,70,0
198.34789,198.45206,83,70,0
198.41039,198.51456,81,70,0
198.47289,198.57706,83,70,0
198.53539,198.63956,81,70,0
198.59789,198.70206,83,70,0
198.66039,198.76456,81,70,0
198.72289,198.82706,83,70,0
198.78539,198.88956,81,70,0
198.84789,198.95206,83,70,0
198.91039,199.01456,81,70,0
198.97289,199.07706,83,70,0
199.03539,199.13956,81,70,0
199.09789,199.20206,83,70,0
199.16039,199.26456,81,70,0
199.22289,199.32706,83,70,0
199.28539,199.38956,81,70,0
199.34789,199.45206,83,70,0
199.41039,199.51456,81,70,0
199.47289,199.57706,83,70,0
199.53539,199.63956,81,70,0
199.59789,199.70206,83,70,0
199.66039,199.76456,81,70,0
199.72289,199.82706,83,70,0
199.78539,199.88956,81,70,0
199.84789,199.95206,83,70,0
199.91039,200.01456,81,70,0
199.97289,200.07706,83,70,0
200.03539,200.13956,81,70,0
200.09789,200.20206,83,70,0
200.16039,200.26456,81,70,0
200.22289,200.32706,83,70,0
200.28539,200.38956,81,70,0
200.34789,200.45206,83,70,0
200.41039,200.51456,81,70,0
200.47289,200.57706,83,70,0
200.53539,200.63956,81,70,0
200.59789,200.70206,83,70,0
200.66039,200.76456,81,70,0
200.72289,200.82706,83,70,0
200.78539,200.88956,81,70,0
200.84789,200.95206,83,70,0
200.91039,201.01456,81,70,0
200.97289,201.07706,83,70,0
201.03539,201.13956,81,70,0
201.09789,201.20206,83,70,0
201.16039,201.26456,81,70,0
201.22289,201.32706,83,70,0
201.28539,201.38956,81,70,0
201.34789,201.45206,83,70,0
201.41039,201.51456,81,70,0
201.47289,201.57706,83,70,0
201.53539,201.63956,81,70,0
201.59789,201.70206,83,70,0
201.66039,201.76456,81,70,0
201.72289,201.82706,83,70,0
201.78539,201.88956,81,70,0
201.84789,201.95206,83,70,0
201.91039,202.01456,81,70,0
201.97289,202.07706,83,70,0
202.03539,202.13956,81,70,0
202.09789,202.20206,83,70,0
202.16039,202.38956,84,70,0
202.28539,202.51456,83,70,0
202.41039,202.63956,82,70,0
202.53539,202.76456,81,70,0
202.66039,202.88956,80,70,0
202.82706,203.05623,79,70,0
202.99373,203.22289,78,70,0
203.16039,203.38956,84,70,0
203.28539,203.51456,83,70,0
203.41039,203.63956,82,70,0
203.53539,203.7551,81,70,0
203.66039,203.86873,80,70,0
203.8119,204.02023,79,70,0
203.96342,204.16702,78,70,0
204.11494,204.30591,84,70,0
204.2191,204.41008,83,70,0
204.32327,204.51424,82,70,0
204.42744,204.61385,81,70,0
204.5316,204.71252,80,70,0
204.66318,204.8441,79,70,0
204.79477,204.97322,78,70,0
204.92635,205.03572,84,70,0
204.98885,205.09822,83,70,0
205.05135,205.16072,82,70,0
205.11385,205.22322,81,70,0
205.17635,205.28572,80,70,0
205.23885,205.34395,79,70,0
205.30135,205.40077,78,70,0
205.35815,205.4576,77,70,0
205.41498,205.52536,76,70,0
205.4718,205.5968,75,70,0
205.54323,205.66823,74,70,0
205.61465,205.74858,73,70,0
205.68608,205.83191,72,70,0
205.76941,205.91525,71,70,0
205.85275,205.99858,70,70,0
205.93608,206.08191,69,70,0
206.01941,206.16525,68,70,0
206.10275,206.24858,67,70,0
206.18608,206.66525,66,70,0
207.68608,208.80917,54,70,0
207.68608,208.80917,57,70,0
208.83635,209.8155,55,70,0
208.83635,209.8155,59,70,0
209.83635,210.8155,59,70,0
209.83635,210.8155,62,70,0
210.83635,211.8155,59,70,0
210.83635,211.8155,62,70,0
211.83635,212.8155,59,70,0
211.83635,212.8155,62,70,0
212.83635,213.8155,59,70,0
212.83635,213.8155,62,70,0
213.83635,214.8155,62,70,0
213.83635,214.8155,67,70,0
214.83635,215.8155,64,70,0
214.83635,215.8155,67,70,0
215.83635,216.8155,64,73,0
215.83635,216.8155,67,73,0
216.83635,217.8155,64,77,0
216.83635,217.8155,67,77,0
217.83635,218.8155,57,81,0
217.83635,218.8155,64,81,0
217.83635,218.8155,67,81,0
218.83635,219.88545,57,85,0
218.83635,219.88545,64,85,0
218.83635,219.88545,67,85,0
219.90778,221.08365,57,89,0
219.90778,221.08365,64,89,0
219.90778,221.08365,67,89,0
221.1097,222.08887,57,93,0
221.1097,222.08887,62,93,0
221.1097,222.08887,67,93,0
222.1097,223.08887,57,97,0
222.1097,223.08887,62,97,0
222.1097,223.08887,67,97,0
223.1097,224.08887,57,100,0
223.1097,224.08887,62,100,0
223.1097,224.08887,67,100,0
224.1097,225.08887,60,70,0
224.1097,225.08887,57,70,0
224.1097,225.08887,62,70,0
224.1097,225.08887,66,70,0
225.1097,226.08887,60,70,0
225.1097,226.08887,57,70,0
225.1097,226.08887,62,70,0
225.1097,226.08887,66,70,0
226.1097,227.08887,60,70,0
226.1097,227.08887,57,70,0
226.1097,227.08887,62,70,0
226.1097,227.08887,66,70,0
227.1097,228.08887,59,70,0
227.1097,228.08887,62,70,0
227.1097,228.08887,67,70,0
228.1097,229.08887,59,70,0
228.1097,229.08887,62,70,0
228.1097,229.08887,67,70,0
229.1097,230.08887,59,70,0
229.1097,230.08887,62,70,0
229.1097,230.08887,67,70,0
230.1097,231.08887,59,70,0
230.1097,231.08887,62,70,0
230.1097,231.08887,67,70,0
231.1097,232.1588,71,70,0
232.18112,233.31093,71,70,0
233.33498,234.83498,70,70,0
234.83498,235.06413,71,70,0
235.08498,235.31413,73,70,0
235.33498,235.83498,66,70,0
235.83498,236.06413,68,70,0
236.08498,236.31413,70,70,0
236.33498,236.83498,70,70,0
236.83498,237.06413,71,70,0
237.08498,237.31413,73,70,0
237.33498,237.81413,76,70,0
237.83498,238.06413,75,70,0
238.08498,238.31413,73,70,0
238.33498,238.81413,76,70,0
238.83498,239.06413,75,70,0
239.08498,239.31413,73,70,0
239.33498,240.81413,71,70,0
240.83498,241.06413,73,70,0
241.08498,241.31413,75,70,0
241.33498,241.81413,66,70,0
241.83498,242.06413,68,70,0
242.08498,242.31413,70,70,0
242.33498,242.81413,71,70,0
242.83498,243.06413,73,70,0
243.08498,243.31413,75,70,0
243.33498,243.81413,78,70,0
243.83498,244.06413,76,70,0
244.08498,244.31413,75,70,0
244.33498,244.81413,78,70,0
244.83498,245.06413,75,70,0
245.08498,245.31413,71,70,0
245.33498,246.81413,70,70,0
246.83498,247.06413,71,70,0
247.08498,247.31413,73,70,0
247.33498,247.81413,66,70,0
247.83498,248.06413,68,70,0
248.08498,248.31413,70,70,0
248.33498,248.81413,70,70,0
248.83498,249.06413,71,70,0
249.08498,249.31413,73,70,0
249.33498,249.81413,76,70,0
249.83498,250.06413,75,70,0
250.08498,250.31413,73,70,0
250.33498,250.81413,76,70,0
250.83498,251.06413,75,70,0
251.08498,251.31413,73,70,0
251.33498,251.43913,71,70,0
251.39748,251.50163,73,70,0
251.45998,251.56413,71,70,0
251.52248,251.62663,73,70,0
251.58498,251.68913,71,70,0
251.64748,251.75163,73,70,0
251.70998,251.81413,71,70,0
251.77248,251.87663,73,70,0
251.83498,251.93913,71,70,0
251.89748,252.00163,73,70,0
251.95998,252.06413,71,70,0
252.02248,252.12663,73,70,0
252.08498,252.18913,71,70,0
252.14748,252.25163,73,70,0
252.20998,252.31413,71,70,0
252.27248,252.37663,73,70,0
252.33498,252.43913,71,70,0
252.39748,252.50163,73,70,0
252.45998,252.56413,71,70,0
252.52248,252.62663,73,70,0
252.58498,252.68913,71,70,0
252.64748,252.75163,73,70,0
252.70998,252.81413,71,70,0
252.77248,252.87663,73,70,0
252.83498,252.93913,71,70,0
252.89748,253.00163,73,70,0
252.95998,253.06413,71,70,0
253.02248,253.12663,73,70,0
253.08498,253.18913,71,70,0
253.14748,253.25163,73,70,0
253.20998,253.31413,71,70,0
253.27248,253.37663,73,70,0
253.33498,253.43913,71,70,0
253.39748,253.50163,73,70,0
253.45998,253.56413,71,70,0
253.52248,253.62663,73,70,0
253.58498,253.68913,71,70,0
253.64748,253.75163,73,70,0
253.70998,253.81413,71,70,0
253.77248,253.87663,73,70,0
253.83498,253.93913,71,70,0
253.89748,254.00163,73,70,0
253.95998,254.06413,71,70,0
254.02248,254.12663,73,70,0
254.08498,254.18913,71,70,0
254.14748,254.25163,73,70,0
254.20998,254.31413,71,70,0
254.27248,254.37663,73,70,0
254.33498,254.43913,71,70,0
254.39748,254.50163,72,70,0
254.45998,254.56413,71,70,0
254.52248,254.62663,72,70,0
254.58498,254.68913,71,70,0
254.64748,254.75163,72,70,0
254.70998,254.81413,71,70,0
254.77248,254.87663,72,70,0
254.83498,254.93913,71,70,0
254.89748,255.00163,72,70,0
254.95998,255.06413,71,70,0
255.02248,255.12663,72,70,0
255.08498,255.18913,71,70,0
255.14748,255.25163,72,70,0
255.20998,255.31413,71,70,0
255.27248,255.37663,72,70,0
255.33498,255.43913,71,70,0
255.39748,255.50163,72,70,0
255.45998,255.56413,71,70,0
255.52248,255.62663,72,70,0
255.58498,255.68913,71,70,0
255.64748,255.75163,72,70,0
255.70998,255.81413,71,70,0
255.77248,255.87663,72,70,0
255.83498,255.93913,71,70,0
255.89748,256.00165,72,70,0
255.95998,256.06415,71,70,0
256.02246,256.12665,72,70,0
256.08496,256.18915,71,70,0
256.14746,256.25165,72,70,0
256.20996,256.31415,71,70,0
256.27246,256.37665,72,70,0
256.33496,256.56415,77,70,0
256.45996,256.68915,76,70,0
256.58496,256.81415,75,70,0
256.70996,256.93915,74,70,0
256.83496,257.06415,73,70,0
257.00165,257.2308,72,70,0
257.1683,257.39178,71,70,0
257.33496,257.5433,77,70,0
257.4486,257.65695,76,70,0
257.56226,257.77057,75,70,0
257.67587,257.8763,74,70,0
257.78952,257.9805,73,70,0
257.9284,258.1194,72,70,0
258.0673,258.25552,71,70,0
258.20618,258.38712,77,70,0
258.30487,258.48578,76,70,0
258.40356,258.58447,75,70,0
258.50223,258.67905,74,70,0
258.60092,258.7728,73,70,0
258.72592,258.8978,72,70,0
258.85092,259.01852,71,70,0
258.97592,259.07535,77,70,0
259.03275,259.13217,76,70,0
259.08957,259.189,75,70,0
259.14636,259.24582,74,70,0
259.2032,259.3026,73,70,0
259.26,259.35944,72,70,0
259.31683,259.41626,71,70,0
259.37366,259.47308,70,70,0
259.43045,259.53415,69,70,0
259.48727,259.59665,68,70,0
259.54977,259.65915,67,70,0
259.61227,259.73727,66,70,0
259.67477,259.82062,65,70,0
259.75812,259.90396,64,70,0
259.84146,259.98727,63,70,0
259.92477,260.07062,62,70,0
260.00812,260.15396,61,70,0
260.09146,260.23727,60,70,0
260.17477,260.65396,59,70,0
261.67477,262.79788,59,70,0
261.67477,262.79788,62,70,0
261.67477,262.79788,65,70,0
262.82504,263.8042,59,70,0
262.82504,263.8042,62,70,0
262.82504,263.8042,65,70,0
263.82504,264.8042,59,72,0
263.82504,264.8042,62,72,0
263.82504,264.8042,65,72,0
264.82504,265.8042,59,75,0
264.82504,265.8042,62,75,0
264.82504,265.8042,65,75,0
265.82504,266.8042,55,77,0
265.82504,266.8042,59,77,0
265.82504,266.8042,62,77,0
265.82504,266.8042,67,77,0
266.82504,267.8042,55,80,0
266.82504,267.8042,59,80,0
266.82504,267.8042,62,80,0
266.82504,267.8042,67,80,0
267.82504,268.8042,55,82,0
267.82504,268.8042,59,82,0
267.82504,268.8042,62,82,0
267.82504,268.8042,67,82,0
268.82504,269.8042,55,85,0
268.82504,269.8042,60,85,0
268.82504,269.8042,67,85,0
269.82504,270.8042,55,88,0
269.82504,270.8042,60,88,0
269.82504,270.8042,64,88,0
270.82504,271.8042,52,90,0
270.82504,271.8042,60,90,0
270.82504,271.8042,64,90,0
271.82504,272.8042,52,93,0
271.82504,272.8042,60,93,0
271.82504,272.8042,64,93,0
272.82504,273.8042,52,95,0
272.82504,273.8042,60,95,0
272.82504,273.8042,64,95,0
273.82504,274.8042,52,98,0
273.82504,274.8042,60,98,0
273.82504,274.8042,64,98,0
274.82504,275.8042,52,100,0
274.82504,275.8042,60,100,0
274.82504,275.8042,64,100,0
275.82504,276.8042,54,70,0
275.82504,276.8042,57,70,0
275.82504,276.8042,60,70,0
276.82504,277.8042,54,70,0
276.82504,277.8042,57,70,0
276.82504,277.8042,60,70,0
277.82504,278.8042,54,70,0
277.82504,278.8042,57,70,0
277.82504,278.8042,60,70,0
278.82504,279.8042,54,70,0
278.82504,279.8042,57,70,0
278.82504,279.8042,60,70,0
279.82504,280.8042,54,70,0
279.82504,280.8042,57,70,0
279.82504,280.8042,60,70,0
280.82504,281.8042,54,70,0
280.82504,281.8042,57,70,0
280.82504,281.8042,60,70,0
281.82504,282.8042,54,70,0
281.82504,282.8042,57,70,0
281.82504,282.8042,60,70,0
282.82504,282.9709,74,70,0
282.9917,283.13754,71,70,0
283.1584,283.3042,72,70,0
283.32504,283.4709,76,70,0
283.4917,283.63754,75,69,0
283.6584,283.8042,74,69,0
283.82504,284.8042,72,69,0
285.82504,286.8042,54,65,0
285.82504,286.8042,57,65,0
285.82504,286.8042,60,65,0
286.82504,287.8042,55,64,0
286.82504,287.8042,59,64,0
287.82504,288.8042,55,62,0
287.82504,288.8042,59,62,0
288.82504,288.9709,72,60,0
288.9917,289.13754,69,60,0
289.1584,289.3042,70,59,0
289.32504,289.4709,74,59,0
289.4917,289.63754,73,59,0
289.6584,289.8042,72,59,0
289.82504,290.8042,71,58,0
290.82504,291.8042,55,57,0
290.82504,291.8042,59,57,0
291.82504,292.8042,54,55,0
291.82504,292.8042,56,55,0
291.82504,292.8042,58,55,0
292.82504,293.8042,54,53,0
292.82504,293.8042,56,53,0
292.82504,293.8042,58,53,0
293.82504,294.8042,54,51,0
293.82504,294.8042,56,51,0
293.82504,294.8042,58,51,0
294.82504,294.9709,70,50,0
294.9917,295.13754,67,50,0
295.1584,295.3042,68,50,0
295.32504,295.4709,72,50,0
295.4917,295.63754,70,50,0
295.6584,295.8042,68,50,0
295.82504,296.8042,67,50,0
296.82504,297.8042,55,50,0
296.82504,297.8042,58,50,0
297.82504,298.8042,55,50,0
297.82504,298.8042,58,50,0
298.82504,299.8042,56,50,0
298.82504,299.8042,58,50,0
299.82504,300.8042,53,50,0
299.82504,300.8042,56,50,0
299.82504,300.8042,58,50,0
299.82504,300.8042,62,50,0
300.82504,301.8042,53,57,0
300.82504,301.8042,56,57,0
300.82504,301.8042,58,57,0
300.82504,301.8042,62,57,0
301.82504,302.8042,53,65,0
301.82504,302.8042,56,65,0
301.82504,302.8042,58,65,0
301.82504,302.8042,62,65,0
302.82504,303.8042,53,73,0
302.82504,303.8042,56,73,0
302.82504,303.8042,58,73,0
302.82504,303.8042,62,73,0
303.82504,304.94812,50,80,0
303.82504,304.94812,56,80,0
303.82504,304.94812,58,80,0
304.9753,306.2188,55,70,0
304.9753,306.2188,58,70,0
306.2253,307.4688,53,70,0
306.2253,307.4688,56,70,0
306.2253,307.4688,58,70,0
307.4753,308.4063,55,70,0
307.4753,308.4063,58,70,0
308.4128,308.7188,55,70,0
308.4128,308.7188,58,70,0
308.7253,309.0313,58,70,0
308.7253,309.0313,63,70,0
309.0378,309.3438,58,70,0
309.0378,309.3438,62,70,0
309.3503,309.6563,58,70,0
309.3503,309.6563,63,70,0
309.6628,309.9688,58,70,0
309.6628,309.9688,62,70,0
309.6628,309.9688,65,70,0
309.9753,310.2878,58,70,0
310.29446,310.60696,56,72,0
310.61362,310.92612,55,75,0
310.93274,311.24524,58,77,0
311.2519,311.5712,60,80,0
311.57797,311.9044,59,82,0
311.91132,312.2377,60,85,0
312.24466,312.57846,60,88,0
312.24466,312.57846,63,88,0
312.58557,312.95276,58,90,0
312.58557,312.95276,62,90,0
312.96057,313.32776,53,93,0
312.96057,313.32776,58,93,0
313.33557,314.82776,53,95,0
313.33557,314.82776,58,95,0
315.58557,315.95276,69,70,0
315.58557,315.95276,73,70,0
315.96057,316.32776,76,80,0
315.96057,316.32776,79,80,0
316.33557,316.70276,76,70,0
316.33557,316.70276,79,70,0
317.08557,317.45276,66,70,0
317.46057,317.82776,69,80,0
317.46057,317.82776,72,80,0
317.83557,318.20276,69,70,0
317.83557,318.20276,72,70,0
318.58557,319.08035,78,70,0
319.08557,319.74527,81,80,0
319.08557,319.74527,84,80,0
319.75223,321.88617,74,70,0
319.75223,321.88617,81,70,0
319.75223,321.88617,84,70,0
322.75223,322.89597,75,110,0
322.90222,323.046,77,110,0
323.05222,323.18533,79,125,0
323.1911,323.32422,78,100,0
323.33002,323.4631,79,100,0
323.4689,323.602,81,100,0
323.6078,323.74088,83,100,0
323.74667,323.87976,81,100,0
323.88556,324.01865,84,100,0
324.02444,324.15756,83,100,0
324.16333,324.29645,81,125,0
324.30222,324.43533,80,100,0
324.4411,324.57422,81,100,0
324.58,324.7131,83,100,0
324.7189,324.852,84,100,0
324.8578,324.99088,83,100,0
324.99667,325.12976,86,100,0
325.13556,325.26865,84,100,0
325.27444,325.40753,83,125,0
325.41333,325.54645,78,100,0
325.55222,325.68533,79,100,0
325.6911,325.82422,81,100,0
325.83,325.9631,83,100,0
325.9689,326.102,79,100,0
326.1078,326.24088,84,100,0
326.24667,326.37976,83,100,0
326.38556,326.51865,81,125,0
326.52444,326.65753,79,100,0
326.66333,326.79645,78,100,0
326.80222,326.93533,76,100,0
326.9411,327.07422,74,100,0
327.08,327.2131,72,100,0
327.2189,327.352,71,100,0
327.3578,327.49088,69,100,0
327.49667,327.62976,67,125,0
327.63556,327.76865,66,100,0
327.77444,327.90753,67,100,0
327.91333,328.04645,69,100,0
328.05222,328.18533,71,100,0
328.1911,328.32422,69,100,0
328.33,328.4631,72,100,0
328.46887,328.602,71,100,0
328.6078,328.74088,76,125,0
328.74667,328.87976,75,100,0
328.88556,329.01865,78,100,0
329.02444,329.15753,76,100,0
329.16333,329.29642,79,100,0
329.30222,329.43533,78,100,0
329.4411,329.57422,81,100,0
329.58,329.7131,79,100,0
329.71887,329.852,74,125,0
329.8578,329.99088,73,100,0
329.99667,330.12976,76,100,0
330.13556,330.26865,74,100,0
330.27444,330.40753,86,100,0
330.41333,330.54642,85,100,0
330.55222,330.68533,88,100,0
330.6911,330.82422,86,100,0
330.83,331.102,83,100,0
331.9411,332.2131,71,125,0
332.21887,332.49088,67,100,0
332.49667,332.76865,62,100,0
332.77444,333.04642,59,100,0
333.05222,333.32422,57,125,0
333.33,333.602,69,100,0
333.60776,333.87976,66,100,0
333.88556,334.15753,57,100,0
334.16333,334.4353,59,125,0
334.4411,334.7131,71,100,0
334.71887,334.99088,67,100,0
334.99664,335.26865,59,100,0
335.27444,335.54642,57,125,0
335.55222,335.8242,66,100,0
335.83,336.102,67,100,0
336.10776,336.37976,69,100,0
336.38556,336.65753,71,125,0
336.66333,336.9353,67,100,0
336.9411,337.2131,62,100,0
337.21887,337.49088,59,100,0
337.49664,337.76865,76,125,0
337.77444,338.04642,64,100,0
338.05222,338.3242,57,100,0
338.05222,338.3242,67,100,0
338.33,338.602,57,100,0
338.33,338.602,67,100,0
338.60776,338.87976,57,125,0
338.60776,338.87976,67,125,0
338.88553,339.15753,67,100,0
338.88553,339.15753,57,100,0
339.16333,339.4353,57,100,0
339.16333,339.4353,66,100,0
339.4411,339.71307,57,100,0
339.4411,339.71307,66,100,0
339.71887,339.99088,59,100,0
339.71887,339.99088,67,100,0
339.99664,340.12976,71,100,0
340.13553,340.26865,70,100,0
340.27444,340.40753,71,100,0
340.41333,340.54642,73,100,0
340.55222,340.6853,71,100,0
340.6911,340.8242,73,100,0
340.83,340.96887,70,125,0
340.96887,341.10776,71,100,0
341.10776,341.24664,73,100,0
341.24664,341.38553,71,100,0
341.38553,341.5244,73,100,0
341.5244,341.66333,75,100,0
341.66333,341.80222,76,100,0
341.80222,341.9411,73,100,0
341.9411,342.08,71,125,0
342.08,342.21887,73,100,0
342.21887,342.35776,75,100,0
342.35776,342.49664,73,100,0
342.49664,342.63553,75,100,0
342.63553,342.7744,76,100,0
342.7744,342.91333,78,100,0
342.91333,343.05222,71,100,0
343.05222,343.1911,70,125,0
343.1911,343.33,71,100,0
343.33,343.46887,73,100,0
343.46887,343.60776,71,100,0
343.60776,343.74664,73,100,0
343.74664,343.88553,75,100,0
343.88553,344.0244,76,100,0
344.0244,344.16333,70,100,0
344.16333,344.30222,71,125,0
344.30222,344.4411,73,100,0
344.4411,344.58,75,100,0
344.58,344.71887,76,100,0
344.71887,344.85776,78,100,0
344.85776,344.99664,71,100,0
344.99664,345.13553,73,100,0
345.13553,345.2744,74,100,0
345.2744,345.4133,71,125,0
345.4133,345.55222,72,100,0
345.55222,345.6911,74,100,0
345.6911,345.83,76,100,0
345.83,345.96887,77,100,0
345.96887,346.10776,79,100,0
346.10776,346.24664,81,100,0
346.24664,346.38553,83,100,0
346.38553,346.5244,84,125,0
346.5244,346.6633,83,100,0
346.6633,346.80222,84,100,0
346.80222,346.9411,86,100,0
346.9411,347.08,87,100,0
347.08,347.21887,88,100,0
347.21887,347.35776,75,100,0
347.35776,347.49664,76,100,0
347.49664,347.63553,69,100,0
347.63553,347.7744,68,100,0
347.7744,347.9133,71,100,0
347.9133,348.0522,69,100,0
348.0522,348.1911,74,100,0
348.1911,348.33,73,100,0
348.33,348.46887,76,100,0
348.46887,348.60776,74,100,0
348.60776,348.87976,71,100,0
348.88553,349.15753,62,100,0
349.1633,349.4353,62,100,0
349.4411,349.71307,62,100,0
349.71887,349.99084,61,125,0
349.99664,350.26865,64,100,0
350.2744,350.54642,61,100,0
350.5522,350.8242,58,100,0
350.83,351.10196,63,125,0
351.10776,351.37973,66,100,0
351.38553,351.65753,63,100,0
351.6633,351.9353,59,100,0
351.94107,352.21307,61,125,0
352.21887,352.49084,64,100,0
352.49664,352.76862,61,100,0
352.7744,353.04642,58,100,0
353.0522,353.3242,63,125,0
353.33,353.60196,66,100,0
353.60776,353.87973,62,100,0
353.88553,354.15753,59,100,0
354.1633,354.4353,59,125,0
354.1633,354.4353,62,125,0
354.44107,354.71307,65,100,0
354.71887,354.99084,62,100,0
354.99664,355.26862,55,100,0
354.99664,355.26862,62,100,0
354.99664,355.26862,65,100,0
355.2744,355.54642,55,125,0
355.2744,355.54642,64,125,0
355.5522,355.8242,64,100,0
355.82996,356.10196,67,100,0
356.10776,356.37973,60,100,0
356.10776,356.37973,64,100,0
356.38553,356.6575,60,100,0
356.38553,356.6575,66,100,0
356.6633,356.9353,57,100,0
356.6633,356.9353,66,100,0
356.94107,357.21307,57,100,0
356.94107,357.21307,66,100,0
357.21887,357.49084,60,100,0
357.21887,357.49084,66,100,0
357.49664,357.76862,59,100,0
357.49664,357.76862,67,100,0
357.7744,358.04642,79,125,0
357.9133,358.1853,91,100,0
358.0522,358.3242,78,100,0
358.19107,358.46307,90,100,0
358.32996,358.60196,79,100,0
358.46884,358.74084,91,100,0
358.60776,358.87973,75,100,0
358.74664,359.01862,87,100,0
358.88553,359.1575,76,100,0
359.0244,359.2964,88,100,0
359.1633,359.4353,71,100,0
359.3022,359.5742,83,100,0
359.44107,359.71307,72,100,0
359.57996,359.85196,84,100,0
359.71884,359.99084,86,100,0
359.71884,359.99084,74,100,0
359.99664,360.26862,79,125,0
360.13553,360.4075,91,100,0
360.2744,360.5464,78,100,0
360.4133,360.6853,90,100,0
360.5522,360.8242,79,100,0
360.69107,360.96307,91,100,0
360.82996,361.10196,75,100,0
360.96884,361.24084,87,100,0
361.10776,361.37973,76,100,0
361.24664,361.51862,88,100,0
361.38553,361.6575,71,100,0
361.5244,361.7964,83,100,0
361.6633,361.9353,72,100,0
361.8022,362.0742,84,100,0
361.94107,362.21307,74,100,0
362.07996,362.35196,86,100,0
362.21884,362.49084,77,100,0
362.35773,362.62973,89,100,0
362.49664,362.76862,76,100,0
362.63553,362.9075,88,100,0
362.7744,363.0464,72,100,0
362.9133,363.18527,84,100,0
363.0522,363.3242,71,100,0
363.19107,363.46307,83,100,0
363.32996,363.60196,74,100,0
363.46884,363.74084,86,100,0
363.60773,363.87973,62,100,0
363.74664,364.01862,74,100,0
363.88553,364.1575,66,100,0
364.0244,364.2964,78,100,0
364.1633,364.43527,67,100,0
364.1633,364.43527,79,100,0
364.44107,366.6575,79,125,0
364.44107,366.6575,91,125,0
366.6633,368.8902,79,125,0
366.6633,368.8902,91,125,0
368.8962,369.4784,67,100,0
368.8962,369.4784,79,100,0
369.48465,369.7784,67,100,0
369.48465,370.09064,79,100,0
370.09717,370.42355,67,95,0
370.43048,370.79767,66,89,0
370.80548,371.29507,60,83,0
376.61798,376.92398,50,60,0
376.93048,377.23648,55,60,0
377.24298,377.54898,53,60,0
377.55548,377.86148,52,60,0
377.86798,378.17398,51,60,0
378.18048,378.48648,52,60,0
378.49298,379.11148,57,60,0
379.11798,379.42398,54,60,0
379.43048,379.73648,58,60,0
379.74298,380.04898,58,60,0
380.05548,380.36148,55,60,0
380.36798,380.67398,60,60,0
380.68048,380.98648,57,60,0
380.99298,381.29898,62,60,0
381.30548,381.92398,58,60,0
381.93048,382.23648,63,60,0
382.24298,382.54898,62,60,0
382.55548,383.17398,61,60,0
383.18048,383.48648,62,60,0
383.49298,383.79898,57,60,0
383.80548,384.11148,56,60,0
384.11798,384.42398,55,60,0
384.43048,384.73648,67,60,0
384.74298,385.04898,55,60,0
385.05548,385.36148,67,60,0
385.36798,385.67398,55,60,0
385.68048,385.98648,53,60,0
385.99298,386.29898,65,60,0
386.30548,386.61148,62,60,0
386.30548,386.61148,65,60,0
386.61798,386.92398,74,60,0
386.93048,387.23648,79,60,0
387.24298,387.54898,77,60,0
387.55548,387.86148,76,60,0
387.86798,388.17398,75,60,0
388.18048,388.48648,76,60,0
388.49298,389.11148,81,60,0
389.11798,389.42398,78,60,0
389.43048,389.73648,82,60,0
389.74298,390.04898,82,60,0
390.05548,390.36148,84,60,0
390.36798,390.98648,84,60,0
390.99298,391.29898,83,60,0
391.30548,391.92398,84,60,0
391.93048,392.54898,72,60,0
392.55548,393.17398,77,60,0
393.18048,393.79898,71,60,0
393.80548,394.11148,72,60,0
394.11798,394.42398,55,60,0
394.43048,394.73648,60,60,0
394.74298,395.04898,58,60,0
395.05548,395.36148,57,60,0
395.36798,395.67398,56,60,0
395.68048,395.98648,57,60,0
395.99298,396.29898,62,60,0
396.30548,396.61148,58,60,0
396.61798,396.92398,59,60,0
396.93048,397.23648,57,60,0
397.24298,397.54898,59,60,0
397.55548,398.17398,60,60,0
398.49298,399.11148,77,60,0
399.11798,399.42398,77,60,0
399.43048,399.73648,82,60,0
399.74298,400.04898,80,60,0
400.05548,400.36148,79,60,0
400.36798,400.67398,78,60,0
400.68048,400.98648,79,60,0
400.99298,401.29898,73,60,0
401.30548,401.61148,74,60,0
401.61798,401.92398,78,60,0
401.93048,402.23648,79,60,0
402.24298,402.54898,73,60,0
402.55548,402.86148,74,60,0
402.86798,403.17398,78,60,0
403.18048,403.48648,79,60,0
403.49298,403.79898,73,60,0
403.80548,404.11148,74,60,0
404.11798,404.42398,76,67,0
404.43048,404.74298,78,74,0
404.74963,405.06894,79,81,0
405.0757,405.4021,81,89,0
405.40906,405.74286,83,96,0
405.74997,406.09967,84,103,0
406.10712,406.4743,81,110,0
406.48212,407.053,79,70,0
407.05902,407.19727,84,70,0
407.20328,407.3415,83,70,0
407.3475,407.48572,81,70,0
407.49173,407.62994,79,70,0
407.63596,407.9184,81,70,0
407.9244,408.20688,86,70,0
408.2129,408.49533,86,70,0
408.7898,409.36072,83,70,0
409.36673,409.50494,84,70,0
409.51096,409.64917,83,70,0
409.65518,409.7934,81,70,0
409.7994,409.93765,79,70,0
409.94363,410.2261,83,70,0
410.23212,410.51456,81,70,0
410.52057,410.803,81,70,0
411.0975,411.6684,79,70,0
411.6744,411.81265,84,76,0
411.81863,411.95688,83,77,0
411.9629,412.1011,81,79,0
412.10712,412.24533,79,80,0
412.25134,412.53378,88,82,0
412.5398,412.82227,91,85,0
412.82828,413.11072,91,88,0
413.40518,413.68765,81,94,0
413.69363,413.9761,86,97,0
413.98212,414.26456,86,100,0
414.55902,414.8415,74,70,0
414.55902,414.8415,83,70,0
414.8475,415.4184,62,70,0
415.4244,415.70688,62,70,0
415.4244,415.70688,71,70,0
415.7129,415.8511,61,70,0
415.7129,415.99533,70,70,0
415.85712,416.13956,61,70,0
416.00134,416.28378,64,70,0
416.14557,416.428,66,70,0
416.2898,416.57227,54,70,0
416.43402,416.7165,61,70,0
416.57828,416.86072,64,70,0
416.7225,416.86072,66,70,0
416.86673,417.14917,54,70,0
417.01096,417.2934,59,70,0
417.15518,417.43765,63,70,0
417.2994,417.58188,66,70,0
417.44363,417.7261,54,70,0
417.5879,417.87033,59,70,0
417.73212,418.01456,63,70,0
417.87634,418.01456,66,70,0
418.02057,418.303,54,70,0
418.1648,418.44727,61,70,0
418.30902,418.5915,64,70,0
418.45328,418.73572,61,70,0
418.5975,418.87994,54,70,0
418.74173,419.02417,61,70,0
418.88596,419.1684,64,70,0
419.03018,419.1684,66,70,0
419.1744,419.45688,54,70,0
419.31863,419.6011,59,70,0
419.4629,419.74533,63,70,0
419.60712,419.88956,66,70,0
419.75134,420.03378,54,70,0
419.89557,420.178,59,70,0
420.0398,420.32227,62,70,0
420.18402,420.32227,66,70,0
420.32828,420.61072,53,70,0
420.4725,420.75494,59,71,0
420.61673,420.89917,62,72,0
420.76096,421.0434,65,73,0
420.90518,421.18765,55,75,0
421.0494,421.33188,59,76,0
421.19363,421.4761,62,77,0
421.3379,421.4761,67,79,0
421.48212,421.76456,55,80,0
421.62634,421.90878,60,81,0
421.77057,422.053,64,83,0
421.9148,422.19727,67,84,0
422.05902,422.3415,55,85,0
422.20328,422.48572,60,87,0
422.3475,422.62994,64,88,0
422.49173,422.62994,67,89,0
422.63596,422.92395,54,91,0
422.78302,423.071,60,92,0
422.93008,423.21805,62,93,0
423.07712,423.3651,66,95,0
423.22418,423.51218,54,96,0
423.37125,423.65924,60,97,0
423.5183,423.8063,62,99,0
423.66537,423.8063,66,100,0
423.81244,424.10617,55,101,0
423.96243,424.25616,59,103,0
424.11243,424.4062,62,104,0
424.26242,424.56216,67,105,0
424.4124,424.7184,71,106,0
424.56866,424.87466,74,108,0
424.7249,425.0309,79,109,0
424.88116,425.0309,83,110,0
425.0374,425.33743,86,120,0
425.19366,425.47678,84,120,0
425.3437,425.61566,83,120,0
425.48257,425.75455,81,120,0
425.62146,425.89343,79,120,0
425.76035,426.03232,77,120,0
425.89923,426.17123,76,120,0
426.03812,426.31012,74,120,0
426.177,426.449,72,120,0
426.3159,426.5879,71,120,0
426.45477,426.72678,69,120,0
426.59366,426.86566,67,120,0
426.73257,427.00455,65,120,0
426.87146,427.14343,64,120,0
427.01035,427.28232,62,120,0
427.14923,427.42123,60,120,0
427.28812,427.56012,57,120,0
427.427,427.699,59,120,0
427.5659,427.8379,60,120,0
427.70477,427.97678,62,120,0
427.84366,428.11566,64,120,0
427.98257,428.25455,66,120,0
428.12146,428.39343,67,120,0
428.26035,428.53232,69,120,0
428.39923,428.6712,71,120,0
428.53812,428.81012,72,120,0
428.677,428.949,74,120,0
428.8159,429.0879,76,120,0
428.95477,429.22678,78,120,0
429.09366,429.36566,79,120,0
429.23257,429.50455,81,120,0
429.37146,429.64343,83,120,0
429.51035,429.78232,89,120,0
429.64923,429.9212,88,120,0
429.78812,430.06012,86,120,0
429.927,430.199,84,120,0
430.0659,430.3379,83,120,0
430.20477,430.47678,81,120,0
430.34366,430.61566,79,120,0
430.48254,430.75455,77,120,0
430.62146,430.89343,76,120,0
430.76035,431.03232,74,120,0
430.89923,431.1712,72,120,0
431.03812,431.3101,71,120,0
431.177,431.449,69,120,0
431.3159,431.5879,67,120,0
431.45477,431.72678,65,120,0
431.59366,431.86566,64,120,0
431.73254,432.00455,66,120,0
431.87146,432.14343,67,120,0
432.01035,432.28232,69,120,0
432.14923,432.4212,71,120,0
432.28812,432.5601,72,120,0
432.427,432.699,74,120,0
432.5659,432.8379,76,120,0
432.70477,432.97678,78,120,0
432.84366,433.11566,79,120,0
437.0103,437.28232,62,120,0
437.0103,437.28232,69,120,0
437.28812,437.5601,62,120,0
437.427,437.69897,71,120,0
437.5659,437.83786,72,120,0
437.70477,437.97678,69,120,0
437.84366,438.11566,71,120,0
437.98254,438.25455,74,120,0
438.12143,438.39343,76,120,0
438.2603,438.53232,73,120,0
438.39923,438.6712,74,120,0
438.53812,438.81262,79,120,0
438.677,438.95413,81,120,0
438.8185,439.0956,78,120,0
438.96002,439.23712,79,120,0
439.10153,439.38126,83,120,0
439.24304,439.52548,84,120,0
439.38727,439.6697,82,120,0
439.5315,439.81393,83,120,0
439.67572,439.9637,86,120,0
439.81995,440.1137,88,120,0
439.96994,440.26968,85,120,0
440.11996,440.42593,86,120,0
440.43246,440.75885,91,120,0
440.76578,441.13297,95,120,0
441.14078,441.63037,98,120,0
442.14078,442.63037,59,60,0
442.14078,442.63037,65,60,0
442.64078,443.63037,58,60,0
442.64078,443.63037,66,60,0
443.64078,444.63037,61,60,0
443.64078,444.63037,64,60,0
444.64078,445.63037,59,60,0
444.64078,445.63037,63,60,0
445.64078,446.63037,59,60,0
445.64078,446.63037,63,60,0
446.64078,447.13037,70,60,0
447.14078,447.38037,71,60,0
447.39078,447.63037,73,60,0
447.64078,447.88037,71,60,0
447.89078,448.13037,70,60,0
448.14078,448.38037,68,60,0
448.39078,448.63037,66,60,0
448.64078,449.13037,66,60,0
449.14078,449.63037,71,60,0
449.64078,450.13037,71,60,0
450.64078,451.63037,65,60,0
451.64078,452.63037,55,60,0
451.64078,452.63037,62,60,0
451.64078,452.63037,65,60,0
452.64078,453.63037,55,60,0
452.64078,453.63037,60,60,0
452.64078,453.63037,64,60,0
453.64078,454.63037,64,60,0
453.64078,454.63037,72,60,0
454.64078,455.13037,69,60,0
455.14078,455.63037,74,60,0
455.64078,456.13037,74,60,0
458.6925,459.19897,69,60,0
459.20975,459.7343,74,60,0
459.74545,460.27002,74,60,0
463.0193,463.56326,69,60,0
463.57483,464.1188,74,60,0
465.3073,465.8948,71,60,0
465.90732,466.4948,74,60,0
467.9095,468.07266,69,100,0
468.07614,468.22302,74,100,0
468.22614,468.35968,74,100,0
468.36252,468.49603,78,100,0
468.49887,468.6324,71,100,0
468.63525,468.76877,74,100,0
468.7716,468.90512,74,100,0
468.90796,469.04147,79,100,0
469.04434,469.17786,74,100,0
469.1807,469.3142,78,100,0
469.31705,469.4506,78,100,0
469.45343,469.58694,81,100,0
469.58978,469.7233,74,100,0
469.72614,469.85968,79,100,0
469.86252,469.99603,79,100,0
469.99887,470.1324,83,100,0
470.13522,470.26877,78,120,0
470.2716,470.40512,81,120,0
470.40796,470.54147,81,120,0
470.54434,470.67786,86,120,0
470.6807,470.8142,79,120,0
470.81705,470.9506,83,120,0
470.95343,471.08694,83,120,0
471.08978,471.2233,86,120,0
471.22614,471.35968,81,120,0
471.36252,471.49603,86,120,0
471.49887,471.6324,86,120,0
471.63522,471.90512,90,120,0
471.90796,472.3142,79,120,0
471.90796,472.3142,83,120,0
471.90796,472.3142,86,120,0
471.90796,472.3142,91,120,0
0.0,0.27199048,43,70,0
0.2777775,0.549768,50,70,0
0.555555,0.82754546,55,70,0
0.8333325,1.105323,50,70,0
1.11111,1.3831005,54,70,0
1.3888875,1.660878,50,70,0
1.666665,1.9386555,42,70,0
1.9444425,2.216433,50,70,0
2.22222,2.4942105,43,70,0
2.4999976,2.771988,50,70,0
2.777775,3.0497656,55,70,0
3.0555525,3.327543,50,70,0
3.33333,3.6053205,50,70,0
3.6111076,3.883098,50,70,0
3.888885,4.1608753,38,70,0
4.1666627,4.438653,48,70,0
4.1666627,4.438653,50,70,0
4.44444,4.7164307,43,70,0
4.44444,4.7164307,47,70,0
4.44444,4.7164307,50,70,0
4.7222176,4.994208,50,73,0
4.999995,5.2719855,55,76,0
5.2777724,5.549763,43,79,0
5.55555,5.8275404,48,82,0
5.8333273,6.105318,36,85,0
6.111105,6.3830953,36,88,0
6.3888826,6.660873,48,91,0
6.66666,6.9386506,50,94,0
6.9444375,7.216428,50,97,0
7.222215,7.4942055,38,100,0
7.4999924,7.771983,50,87,0
7.77777,8.054893,43,70,0
7.77777,8.054893,55,70,0
8.060788,8.626259,59,70,0
8.632269,8.914721,57,70,0
8.92073,9.19272,55,70,0
8.92073,9.19272,59,70,0
9.198507,9.470498,50,70,0
9.476285,9.748276,59,70,0
9.476285,9.748276,55,70,0
9.754063,10.026053,50,70,0
10.03184,10.30383,60,70,0
10.03184,10.30383,54,70,0
10.309617,10.581608,50,70,0
10.587395,10.8593855,60,70,0
10.587395,10.8593855,54,70,0
10.865172,11.137163,50,70,0
11.14295,11.414941,55,70,0
11.14295,11.414941,59,70,0
11.420728,11.692718,50,70,0
11.698505,11.970495,55,70,0
11.698505,11.970495,59,70,0
11.976282,12.248273,50,70,0
12.25406,12.526051,54,70,0
12.25406,12.526051,60,70,0
12.531837,12.803828,50,70,0
12.809615,13.081606,60,70,0
12.809615,13.081606,54,70,0
13.087393,13.359383,50,70,0
13.36517,13.63716,59,70,0
13.36517,13.63716,55,70,0
13.642947,13.914938,43,73,0
13.920725,14.192716,55,76,0
13.920725,14.192716,59,76,0
14.198503,14.470493,52,79,0
14.47628,14.74827,55,82,0
14.47628,14.74827,57,82,0
14.754058,15.026048,48,85,0
15.031835,15.303825,52,88,0
15.031835,15.303825,55,88,0
15.031835,15.303825,57,88,0
15.309612,15.581603,49,91,0
15.58739,15.859381,54,94,0
15.58739,15.859381,57,94,0
15.865168,16.137157,50,97,0
16.142944,16.414936,60,100,0
16.142944,16.414936,54,100,0
16.420723,16.692713,50,85,0
16.6985,16.975622,59,70,0
16.6985,16.975622,55,70,0
16.981518,17.25864,43,70,0
16.981518,17.25864,55,70,0
17.264538,17.54699,42,70,0
17.264538,17.54699,54,70,0
17.552998,17.835451,41,70,0
17.552998,17.835451,53,70,0
17.84146,18.113451,42,70,0
17.84146,18.113451,54,70,0
18.119238,18.391228,54,70,0
18.397015,18.669006,42,70,0
18.674793,18.946783,54,70,0
18.95257,19.22456,42,70,0
19.230347,19.502338,54,70,0
19.508125,19.780115,42,70,0
19.785902,20.057894,54,70,0
20.06368,20.33567,42,70,0
20.341457,20.613447,54,70,0
20.619234,20.891226,42,70,0
20.897013,21.169003,54,70,0
21.17479,21.446781,42,70,0
21.452568,21.724558,54,70,0
21.730345,22.002335,42,70,0
22.008123,22.280113,54,70,0
22.2859,22.55789,43,70,0
22.563677,22.835669,50,73,0
22.841455,23.113445,55,76,0
23.119232,23.391224,43,79,0
23.119232,23.391224,55,79,0
23.39701,23.669,36,82,0
23.39701,23.669,48,82,0
23.674788,23.946777,36,85,0
23.952564,24.224556,36,88,0
24.230343,24.502333,48,91,0
24.50812,24.780111,50,94,0
24.785898,25.057888,38,97,0
25.063675,25.335665,38,100,0
25.341452,25.613443,50,85,0
25.61923,25.896353,43,70,0
25.902248,26.17937,55,70,0
26.185266,26.467718,54,70,0
26.473728,26.75618,62,70,0
26.473728,26.75618,53,70,0
26.76219,27.03418,61,70,0
26.76219,27.03418,54,70,0
27.039967,27.311958,54,70,0
27.317745,27.589735,64,70,0
27.317745,27.589735,61,70,0
27.595522,27.867514,54,70,0
27.8733,28.14529,63,70,0
27.8733,28.14529,59,70,0
28.151077,28.423067,54,70,0
28.428856,28.700846,59,70,0
28.428856,28.700846,63,70,0
28.706633,28.978622,54,70,0
28.98441,29.256401,64,70,0
28.98441,29.256401,61,70,0
29.262188,29.534178,54,70,0
29.539965,29.811956,61,70,0
29.539965,29.811956,64,70,0
29.817743,30.089733,54,70,0
30.09552,30.36751,63,70,0
30.09552,30.36751,59,70,0
30.373297,30.645288,54,70,0
30.651075,30.923065,62,70,0
30.651075,30.923065,59,70,0
30.928852,31.200844,54,70,0
31.20663,31.47862,55,70,0
31.484407,31.756397,66,73,0
31.484407,31.756397,62,73,0
31.762184,32.034176,62,76,0
31.762184,32.034176,66,76,0
32.039963,32.311954,55,79,0
32.31774,32.58973,64,82,0
32.31774,32.58973,60,82,0
32.595516,32.867508,55,85,0
32.873295,33.145287,60,88,0
32.873295,33.145287,55,88,0
33.151073,33.42306,48,91,0
33.42885,33.70084,60,94,0
33.42885,33.70084,54,94,0
33.706627,33.97862,50,97,0
33.984406,34.256397,54,100,0
33.984406,34.256397,60,100,0
34.262184,34.534172,50,85,0
34.53996,35.08973,55,70,0
34.53996,35.08973,59,70,0
35.92885,36.200836,55,70,0
36.206627,36.483746,54,80,0
36.489643,36.772095,55,70,0
36.778107,37.050095,50,70,0
37.05588,37.327873,62,70,0
37.05588,37.327873,66,70,0
37.33366,37.60565,64,90,0
37.33366,37.60565,67,90,0
37.61144,37.883427,66,80,0
37.61144,37.883427,69,80,0
37.889214,38.161205,71,70,0
37.889214,38.161205,67,70,0
38.166992,38.438984,64,70,0
38.166992,38.438984,67,70,0
38.44477,38.721893,60,90,0
38.44477,38.721893,64,90,0
38.727787,39.01024,61,80,0
38.727787,39.01024,64,80,0
39.01625,39.288242,62,70,0
39.01625,39.288242,66,70,0
39.29403,39.566017,54,70,0
39.29403,39.566017,57,70,0
39.571804,39.843796,55,80,0
39.571804,39.843796,59,80,0
39.849583,40.121574,57,70,0
39.849583,40.121574,60,70,0
40.12736,40.39935,59,70,0
40.12736,40.39935,62,70,0
40.405136,40.677128,55,70,0
40.405136,40.677128,62,70,0
40.682915,40.960037,63,80,0
40.682915,40.960037,54,80,0
40.965935,41.248386,55,70,0
40.965935,41.248386,62,70,0
41.254395,41.526386,48,70,0
41.254395,41.526386,60,70,0
41.532173,41.80416,79,70,0
41.532173,42.08194,72,70,0
41.80995,42.08194,81,80,0
42.087727,42.35972,72,70,0
42.087727,42.35972,79,70,0
42.365505,42.637497,74,70,0
42.365505,42.637497,78,70,0
42.643284,42.91527,62,70,0
42.643284,42.91527,66,70,0
42.92106,43.19818,64,80,0
42.92106,43.19818,67,80,0
43.20408,43.48653,62,70,0
43.20408,43.48653,66,70,0
43.20408,43.48653,69,70,0
43.49254,43.76453,67,70,0
43.49254,43.76453,55,70,0
44.881428,45.15342,55,70,0
45.159206,45.43633,54,80,0
45.442223,45.724674,55,70,0
45.730686,46.002674,50,70,0
46.00846,46.280453,62,70,0
46.00846,46.280453,66,70,0
46.28624,46.55823,64,90,0
46.28624,46.55823,67,90,0
46.56402,46.836006,66,80,0
46.56402,46.836006,69,80,0
46.841797,47.113785,71,70,0
46.841797,47.113785,67,70,0
47.11957,47.391563,64,70,0
47.11957,47.391563,67,70,0
47.39735,47.674473,60,90,0
47.39735,47.674473,64,90,0
47.68037,47.962822,61,80,0
47.68037,47.962822,64,80,0
47.96883,48.24082,62,70,0
47.96883,48.24082,66,70,0
48.24661,48.518597,54,70,0
48.24661,48.518597,57,70,0
48.524384,48.796375,55,80,0
48.524384,48.796375,59,80,0
48.802162,49.074154,57,70,0
48.802162,49.074154,60,70,0
49.07994,49.35193,59,70,0
49.07994,49.35193,62,70,0
49.357716,49.629707,55,70,0
49.357716,49.629707,62,70,0
49.635494,49.912617,63,80,0
49.635494,49.912617,54,80,0
49.918514,50.200966,55,70,0
49.918514,50.200966,62,70,0
50.206974,50.478966,48,70,0
50.206974,50.478966,60,70,0
50.484753,50.756744,79,70,0
50.484753,51.03452,72,70,0
50.76253,51.03452,81,80,0
51.040306,51.312298,72,70,0
51.040306,51.312298,79,70,0
51.318085,51.590076,74,70,0
51.318085,51.590076,78,70,0
51.595863,51.86785,62,70,0
51.595863,51.86785,66,70,0
51.87364,52.15076,64,80,0
51.87364,52.15076,67,80,0
52.15666,52.43911,62,70,0
52.15666,52.43911,66,70,0
52.15666,52.43911,69,70,0
52.44512,52.71711,67,70,0
52.44512,52.71711,55,70,0
52.722897,53.272667,47,70,0
52.722897,53.272667,59,70,0
53.278454,53.55044,43,70,0
53.278454,53.55044,55,70,0
53.55623,53.82822,54,70,0
53.55623,53.82822,42,70,0
53.834007,54.106,49,70,0
54.111786,54.383774,51,80,0
53.834007,54.661552,42,70,0
54.38956,54.661552,49,70,0
54.66734,54.93933,42,70,0
54.66734,54.93933,47,70,0
54.945118,55.21711,71,70,0
55.222897,55.494884,73,80,0
54.945118,55.772663,66,70,0
55.50067,55.772663,71,70,0
55.77845,56.05044,66,70,0
55.77845,56.05044,73,70,0
56.05623,56.328217,58,70,0
56.05623,56.328217,61,70,0
56.334003,56.611126,56,80,0
56.334003,56.611126,59,80,0
56.617023,56.899475,58,70,0
56.617023,56.899475,61,70,0
56.905483,57.177475,59,70,0
56.905483,57.177475,63,70,0
57.18326,57.455254,47,70,0
57.18326,57.733032,42,70,0
57.46104,57.733032,49,80,0
57.73882,58.010807,42,70,0
57.73882,58.010807,47,70,0
58.016594,58.288586,47,70,0
58.016594,58.288586,43,70,0
58.294373,58.566364,50,70,0
58.294373,58.849274,43,70,0
58.57215,58.849274,52,80,0
58.855167,59.13762,43,70,0
58.855167,59.13762,50,70,0
59.14363,59.41562,52,70,0
59.14363,59.41562,48,70,0
59.421406,59.693398,72,70,0
59.421406,59.693398,79,70,0
59.699184,59.971176,80,80,0
59.699184,59.971176,71,80,0
59.976963,60.248955,72,70,0
59.976963,60.248955,79,70,0
60.25474,60.52673,74,70,0
60.25474,60.52673,78,70,0
60.532516,60.80451,50,70,0
60.532516,60.80451,54,70,0
60.810295,61.087418,52,70,0
60.810295,61.087418,55,70,0
61.093315,61.375767,54,70,0
61.093315,61.375767,57,70,0
61.381775,61.653767,55,70,0
61.381775,61.653767,59,70,0
61.659554,62.20932,47,70,0
61.659554,62.20932,59,70,0
62.215107,62.4871,43,70,0
62.215107,62.4871,55,70,0
62.492886,62.764877,54,70,0
62.492886,62.764877,42,70,0
62.770664,63.042652,49,70,0
63.04844,63.32556,51,80,0
62.770664,63.61391,42,70,0
63.33146,63.61391,49,70,0
63.61992,63.89191,42,70,0
63.61992,63.89191,47,70,0
63.897697,64.169685,71,70,0
64.175476,64.447464,73,80,0
63.897697,64.72524,66,70,0
64.453255,64.72524,71,70,0
64.73103,65.00302,66,70,0
64.73103,65.00302,73,70,0
65.008804,65.2808,58,70,0
65.008804,65.2808,61,70,0
65.28658,65.563705,56,80,0
65.28658,65.563705,59,80,0
65.5696,65.85206,58,70,0
65.5696,65.85206,61,70,0
65.85806,66.13006,59,70,0
65.85806,66.13006,63,70,0
66.13584,66.40783,47,70,0
66.13584,66.68561,42,70,0
66.41362,66.68561,49,80,0
66.6914,66.96339,42,70,0
66.6914,66.96339,47,70,0
66.96918,67.241165,47,70,0
66.96918,67.241165,43,70,0
67.246956,67.51894,50,70,0
67.246956,67.80185,43,70,0
67.52473,67.80185,52,80,0
67.80775,68.0902,43,70,0
67.80775,68.0902,50,70,0
68.09621,68.3682,52,70,0
68.09621,68.3682,48,70,0
68.373985,68.64598,72,70,0
68.373985,68.64598,79,70,0
68.651764,68.92375,80,80,0
68.651764,68.92375,71,80,0
68.92954,69.20153,72,70,0
68.92954,69.20153,79,70,0
69.20732,69.47931,74,70,0
69.20732,69.47931,78,70,0
69.4851,69.75709,50,70,0
69.4851,69.75709,54,70,0
69.76288,70.04,52,70,0
69.76288,70.04,55,70,0
70.04589,70.32835,54,70,0
70.04589,70.32835,57,70,0
70.33436,70.606346,55,70,0
70.33436,70.606346,59,70,0
71.445465,71.99523,55,100,0
71.445465,71.99523,59,100,0
72.1862,72.3656,55,100,0
72.1862,72.3656,59,100,0
72.37139,72.55079,55,100,0
72.37139,72.55079,59,100,0
72.55657,73.106346,54,100,0
72.55657,73.106346,57,100,0
72.55657,73.106346,60,100,0
73.29732,73.476715,54,100,0
73.29732,73.476715,57,100,0
73.29732,73.476715,60,100,0
73.4825,73.661896,54,100,0
73.4825,73.661896,57,100,0
73.66769,74.21745,55,100,0
73.66769,74.21745,59,100,0
74.408424,74.58782,55,100,0
74.408424,74.58782,59,100,0
74.59361,74.77301,55,100,0
74.59361,74.77301,59,100,0
74.77879,75.32856,50,100,0
74.77879,75.32856,54,100,0
74.77879,75.32856,57,100,0
75.51953,75.69894,60,100,0
75.51953,75.69894,62,100,0
75.70472,75.88412,60,100,0
75.70472,75.88412,62,100,0
75.88991,76.439674,59,100,0
75.88991,76.439674,62,100,0
76.630646,76.81004,55,100,0
76.630646,76.81004,59,100,0
76.81583,76.99523,55,100,0
76.81583,76.99523,59,100,0
77.001015,77.55078,48,100,0
77.001015,77.55078,55,100,0
77.001015,77.55078,60,100,0
77.74175,77.92115,49,100,0
77.74175,77.92115,52,100,0
77.74175,77.92115,57,100,0
77.92694,78.10634,49,100,0
77.92694,78.10634,52,100,0
77.92694,78.10634,57,100,0
78.11212,78.661896,50,100,0
78.11212,78.661896,54,100,0
78.11212,78.661896,57,100,0
78.85287,79.032265,38,100,0
78.85287,79.032265,50,100,0
79.03805,79.217445,38,100,0
79.03805,79.217445,50,100,0
79.223236,79.773,43,100,0
79.223236,79.773,55,100,0
80.33434,80.88411,43,100,0
80.33434,80.88411,50,100,0
80.33434,80.88411,55,100,0
81.07509,81.254486,43,100,0
81.07509,81.254486,50,100,0
81.07509,81.254486,55,100,0
81.26027,81.43967,43,100,0
81.26027,81.43967,50,100,0
81.26027,81.43967,55,100,0
81.44546,81.995224,42,100,0
81.44546,81.995224,50,100,0
81.44546,81.995224,54,100,0
82.186195,82.36559,42,100,0
82.186195,82.36559,50,100,0
82.186195,82.36559,54,100,0
82.37138,82.55078,42,100,0
82.37138,82.55078,50,100,0
82.37138,82.55078,54,100,0
82.556564,83.10633,43,100,0
82.556564,83.10633,50,100,0
82.556564,83.10633,55,100,0
83.2973,83.4767,43,100,0
83.2973,83.4767,50,100,0
83.2973,83.4767,55,100,0
83.48249,83.66189,43,100,0
83.48249,83.66189,50,100,0
83.48249,83.66189,55,100,0
83.66767,84.217445,50,100,0
83.66767,84.217445,54,100,0
84.40842,84.587814,48,100,0
84.40842,84.587814,60,100,0
84.5936,84.772995,48,100,0
84.5936,84.772995,60,100,0
84.778786,85.32855,47,100,0
84.778786,85.32855,59,100,0
85.51952,85.69892,47,100,0
85.51952,85.69892,55,100,0
85.51952,85.69892,59,100,0
85.70471,85.88411,47,100,0
85.70471,85.88411,55,100,0
85.70471,85.88411,59,100,0
85.88989,86.43967,48,100,0
85.88989,86.43967,55,100,0
85.88989,86.43967,60,100,0
86.63064,86.810036,49,100,0
86.63064,86.810036,52,100,0
86.63064,86.810036,57,100,0
86.81582,86.99522,49,100,0
86.81582,86.99522,52,100,0
86.81582,86.99522,57,100,0
87.00101,87.55077,50,100,0
87.00101,87.55077,54,100,0
87.00101,87.55077,57,100,0
87.741745,87.92114,38,100,0
87.741745,87.92114,50,100,0
87.92693,88.10633,38,100,0
87.92693,88.10633,50,100,0
88.112114,88.66188,43,100,0
88.112114,88.66188,55,100,0
88.85285,89.03225,41,100,0
88.85285,89.03225,53,100,0
89.03804,89.21744,41,100,0
89.03804,89.21744,53,100,0
89.22323,89.772995,42,100,0
89.22323,89.772995,54,100,0
89.96397,90.143364,54,100,0
89.96397,90.143364,64,100,0
89.96397,90.143364,61,100,0
90.14915,90.328545,54,100,0
90.14915,90.328545,58,100,0
90.14915,90.328545,61,100,0
90.334335,90.8841,54,100,0
90.334335,90.8841,59,100,0
90.334335,90.8841,63,100,0
91.07507,91.25447,54,100,0
91.07507,91.25447,59,100,0
91.07507,91.25447,63,100,0
91.26026,91.43966,54,100,0
91.26026,91.43966,59,100,0
91.26026,91.43966,63,100,0
91.44544,91.99522,54,100,0
91.44544,91.99522,61,100,0
91.44544,91.99522,64,100,0
92.18619,92.365585,54,100,0
92.18619,92.365585,61,100,0
92.18619,92.365585,64,100,0
92.37137,92.550766,54,100,0
92.37137,92.550766,58,100,0
92.37137,92.550766,61,100,0
92.55656,93.10632,54,100,0
92.55656,93.10632,59,100,0
92.55656,93.10632,63,100,0
93.297295,93.47669,54,100,0
93.297295,93.47669,59,100,0
93.297295,93.47669,62,100,0
93.48248,93.66188,54,100,0
93.48248,93.66188,59,100,0
93.48248,93.66188,62,100,0
93.66766,94.21743,55,100,0
93.66766,94.21743,59,100,0
93.66766,94.21743,62,100,0
94.4084,94.58781,55,100,0
94.4084,94.58781,62,100,0
94.4084,94.58781,65,100,0
94.59359,94.77299,55,100,0
94.59359,94.77299,62,100,0
94.59359,94.77299,65,100,0
94.77878,95.328545,60,100,0
94.77878,95.328545,64,100,0
95.519516,95.69891,48,100,0
95.519516,95.69891,55,100,0
95.519516,95.69891,60,100,0
95.7047,95.884094,48,100,0
95.7047,95.884094,55,100,0
95.7047,95.884094,60,100,0
95.889885,96.43965,50,100,0
95.889885,96.43965,54,100,0
95.889885,96.43965,57,100,0
96.63062,96.81002,38,100,0
96.63062,96.81002,50,100,0
96.81581,96.99521,38,100,0
96.81581,96.99521,50,100,0
97.00099,97.550766,43,100,0
97.00099,97.550766,55,100,0
97.74174,97.921135,40,100,0
97.74174,97.921135,52,100,0
97.92692,98.106316,40,100,0
97.92692,98.106316,52,100,0
98.11211,98.66187,42,100,0
98.11211,98.66187,54,100,0
98.852844,99.03224,54,100,0
98.852844,99.03224,64,100,0
98.852844,99.03224,61,100,0
99.03803,99.21743,61,100,0
99.03803,99.21743,58,100,0
99.03803,99.21743,54,100,0
99.22321,99.77298,54,100,0
99.22321,99.77298,59,100,0
99.22321,99.77298,63,100,0
99.96396,100.14336,54,100,0
99.96396,100.14336,59,100,0
99.96396,100.14336,63,100,0
100.14914,100.32854,54,100,0
100.14914,100.32854,59,100,0
100.14914,100.32854,63,100,0
100.33433,100.884094,54,100,0
100.33433,100.884094,61,100,0
100.33433,100.884094,64,100,0
101.075066,101.25446,54,100,0
101.075066,101.25446,61,100,0
101.075066,101.25446,64,100,0
101.26025,101.43965,54,100,0
101.26025,101.43965,58,100,0
101.26025,101.43965,61,100,0
101.445435,101.9952,54,100,0
101.445435,101.9952,59,100,0
101.445435,101.9952,63,100,0
102.18617,102.36557,54,100,0
102.18617,102.36557,59,100,0
102.18617,102.36557,62,100,0
102.37136,102.55076,54,100,0
102.37136,102.55076,59,100,0
102.37136,102.55076,62,100,0
102.55654,103.106316,55,100,0
102.55654,103.106316,59,100,0
102.55654,103.106316,62,100,0
103.29729,103.476685,55,100,0
103.29729,103.476685,59,100,0
103.29729,103.476685,62,100,0
103.29729,103.476685,65,100,0
103.48247,103.661865,55,100,0
103.48247,103.661865,59,100,0
103.48247,103.661865,62,100,0
103.48247,103.661865,65,100,0
103.667656,104.21742,60,100,0
103.667656,104.21742,64,100,0
104.408394,104.58779,48,100,0
104.408394,104.58779,55,100,0
104.408394,104.58779,60,100,0
104.59358,104.77298,48,100,0
104.59358,104.77298,55,100,0
104.59358,104.77298,60,100,0
104.77876,105.333664,50,100,0
104.77876,105.333664,54,100,0
104.77876,105.333664,57,100,0
105.53187,105.72177,38,100,0
105.53187,105.72177,50,100,0
105.72802,105.921776,38,100,0
105.72802,105.921776,50,100,0
105.928024,106.07177,43,100,0
105.928024,106.07177,55,100,0
106.078026,106.21112,55,70,0
106.21691,106.35001,59,70,0
106.3558,106.4889,62,70,0
106.49469,106.62779,60,70,0
106.633575,106.76668,59,70,0
106.77247,106.90557,60,70,0
106.911354,107.04446,57,70,0
107.05025,107.18334,59,70,0
107.18913,107.322235,60,70,0
107.32802,107.46112,62,70,0
107.46691,107.60001,54,70,0
107.6058,107.7389,55,70,0
107.74469,107.87779,57,70,0
107.883575,108.01668,59,70,0
108.02247,108.15556,50,70,0
108.161354,108.29446,49,70,0
108.30024,108.43334,50,70,0
108.43913,108.572235,52,70,0
108.57802,108.71112,45,70,0
108.71691,108.85001,45,70,0
108.8558,108.9889,47,70,0
108.99469,109.127785,48,70,0
109.133575,109.26668,42,70,0
109.27246,109.40556,43,70,0
109.411354,109.54446,45,70,0
109.55024,109.68334,47,70,0
109.68913,109.822235,39,70,0
109.82802,109.96112,40,70,0
109.9669,110.100006,51,70,0
110.1058,110.2389,52,70,0
110.24468,110.377785,50,70,0
110.383575,110.51668,49,70,0
110.52246,110.65556,52,70,0
110.661354,110.79446,50,70,0
110.80024,110.93334,49,70,0
110.939125,111.07223,50,70,0
111.07802,111.21112,54,70,0
111.2169,111.350006,57,70,0
111.3558,111.4889,60,70,0
111.49468,111.627785,59,70,0
111.633575,111.76668,60,70,0
111.77246,111.90556,62,70,0
111.91135,112.04445,54,70,0
112.05024,112.18334,55,70,0
112.189125,112.32223,57,70,0
112.32802,112.46112,59,70,0
112.4669,112.600006,50,70,0
112.6058,112.7389,52,70,0
112.74468,112.877785,53,70,0
112.88357,113.01667,55,70,0
113.02246,113.15556,47,70,0
113.16135,113.29445,48,70,0
113.30024,113.43334,50,70,0
113.439125,113.57223,52,70,0
113.57802,113.71111,43,70,0
113.7169,113.850006,42,70,0
113.85579,113.98889,43,70,0
113.99468,114.127785,45,70,0
114.13357,114.26667,38,70,0
114.27246,114.40556,40,70,0
114.41135,114.54445,38,70,0
114.55024,114.683334,40,70,0
114.689125,114.82223,42,70,0
114.82801,114.96111,43,70,0
114.9669,115.100006,47,70,0
115.10579,115.23889,48,70,0
115.24468,115.377785,50,70,0
115.38357,115.51667,52,70,0
115.52246,115.655556,54,70,0
115.66135,115.79445,55,70,0
115.80023,115.933334,57,70,0
115.939125,116.07223,59,70,0
116.07801,116.21111,60,70,0
116.2169,116.350006,62,70,0
116.35579,116.48889,54,70,0
116.49468,116.62778,55,70,0
116.63357,116.76667,57,70,0
116.77245,116.905556,59,70,0
116.91135,117.04445,50,70,0
117.05023,117.183334,49,70,0
117.189125,117.32223,50,70,0
117.32801,117.46111,52,70,0
117.4669,117.6,45,70,0
117.60579,117.73889,45,70,0
117.744675,117.87778,47,70,0
117.88357,118.01667,48,70,0
118.02245,118.155556,42,70,0
118.16135,118.29445,43,70,0
118.30023,118.433334,45,70,0
118.439125,118.57222,47,70,0
118.57801,118.71111,39,70,0
118.716896,118.85,40,70,0
118.85579,118.98889,51,70,0
118.994675,119.12778,52,70,0
119.13357,119.26667,50,70,0
119.27245,119.405556,49,70,0
119.41134,119.54444,52,70,0
119.55023,119.683334,50,70,0
119.68912,119.82222,49,70,0
119.82801,119.96111,50,70,0
119.966896,120.1,54,70,0
120.10579,120.23889,57,70,0
120.244675,120.37778,60,70,0
120.38356,120.51666,59,70,0
120.52245,120.655556,60,70,0
120.66134,120.79444,62,70,0
120.80023,120.933334,54,70,0
120.93912,121.07222,55,70,0
121.07801,121.21111,57,70,0
121.216896,121.35,59,70,0
121.35578,121.488884,50,70,0
121.494675,121.62778,52,70,0
121.63356,121.76666,53,70,0
121.77245,121.905556,55,70,0
121.91134,122.04444,47,70,0
122.05023,122.18333,48,70,0
122.18912,122.32222,50,70,0
122.328,122.461105,52,70,0
122.466896,122.6,43,70,0
122.60578,122.738884,42,70,0
122.744675,122.87778,43,70,0
122.88356,123.01666,45,70,0
123.02245,123.15555,38,70,0
123.16134,123.29444,40,70,0
123.300224,123.43333,38,70,0
123.43912,123.57222,40,70,0
123.578,123.711105,42,70,0
123.716896,123.85,43,70,0
123.85578,123.988884,47,70,0
123.994675,124.12777,48,70,0
124.13356,124.26666,50,70,0
124.272446,124.40555,52,70,0
124.41134,124.54444,54,70,0
124.550224,124.68333,55,70,0
124.68912,124.82222,59,70,0
124.828,124.961105,58,70,0
124.966896,125.09999,59,70,0
125.10578,125.238884,61,70,0
125.24467,125.37777,54,70,0
125.38356,125.51666,58,70,0
125.522446,125.65555,59,70,0
125.66134,125.79444,61,70,0
125.800224,125.93333,54,70,0
125.93912,126.07221,59,70,0
126.078,126.211105,61,70,0
126.21689,126.34999,63,70,0
126.35578,126.488884,54,70,0
126.49467,126.62777,59,70,0
126.63356,126.76666,61,70,0
126.772446,126.90555,63,70,0
126.91134,127.04443,54,70,0
127.050224,127.18333,61,70,0
127.18911,127.32221,63,70,0
127.328,127.461105,64,70,0
127.46689,127.59999,54,70,0
127.60578,127.741394,61,70,0
127.74729,127.882904,63,70,0
127.888794,128.02441,64,70,0
128.0303,128.16592,54,70,0
128.17181,128.31004,59,70,0
128.31604,128.45427,61,70,0
128.46028,128.5985,63,70,0
128.6045,128.74272,54,70,0
128.74873,128.89249,59,70,0
128.89874,129.0425,61,70,0
129.04874,129.19847,62,70,0
129.20499,129.35472,54,70,0
129.36124,129.49947,59,70,0
129.50546,129.63857,60,70,0
129.64436,129.77747,62,70,0
129.78325,129.91635,54,70,0
129.92213,130.05524,59,70,0
130.06102,130.19412,60,70,0
130.19992,130.33301,62,70,0
130.3388,130.47191,54,70,0
130.47769,130.6108,52,70,0
130.61658,130.74968,53,70,0
130.75546,130.88857,55,70,0
130.89436,131.02747,47,70,0
131.03325,131.16635,48,70,0
131.17213,131.30524,50,70,0
131.31102,131.44412,52,70,0
131.4499,131.58301,43,70,0
131.5888,131.72191,42,70,0
131.72769,131.8608,43,70,0
131.86658,131.99968,45,70,0
132.00546,132.13857,38,70,0
132.14435,132.27745,40,70,0
132.28325,132.41635,38,70,0
132.42213,132.55524,40,70,0
132.56102,132.69412,42,70,0
132.6999,132.83301,43,70,0
132.8388,132.97191,47,70,0
132.97769,133.1108,48,70,0
133.11658,133.24968,50,70,0
133.25546,133.38857,52,70,0
133.39435,133.52745,54,70,0
133.53325,133.66635,55,70,0
133.67213,133.80524,57,70,0
133.81102,133.94412,58,70,0
133.9499,134.08301,59,70,0
134.08879,134.2219,61,70,0
134.22769,134.3608,54,70,0
134.36658,134.49968,58,70,0
134.50546,134.63857,59,70,0
134.64435,134.77745,61,70,0
134.78325,134.91635,54,70,0
134.92213,135.05524,59,70,0
135.06102,135.19412,61,70,0
135.1999,135.33301,63,70,0
135.33879,135.4719,54,70,0
135.47769,135.6108,59,70,0
135.61658,135.74968,61,70,0
135.75546,135.88857,63,70,0
135.89435,136.02745,54,70,0
136.03323,136.16634,61,70,0
136.17213,136.30524,63,70,0
136.31102,136.44412,64,70,0
136.4499,136.58301,54,70,0
136.58879,136.7219,61,70,0
136.72769,136.86078,63,70,0
136.86658,136.99968,64,70,0
137.00546,137.13857,54,70,0
137.14435,137.27745,59,70,0
137.28323,137.41634,61,70,0
137.42213,137.55524,63,70,0
137.56102,137.69412,54,70,0
137.6999,137.83301,59,70,0
137.83879,137.9719,61,70,0
137.97768,138.11078,62,70,0
138.11658,138.24968,54,70,0
138.25546,138.38857,59,70,0
138.39435,138.52745,60,70,0
138.53323,138.66634,62,70,0
138.67213,138.80522,54,70,0
138.81102,138.94412,59,70,0
138.9499,139.08301,60,70,0
139.08879,139.2219,62,70,0
139.22768,139.36078,54,70,0
139.36658,139.49968,52,70,0
139.50546,139.63857,53,70,0
139.64435,139.77745,55,70,0
139.78323,139.91634,47,70,0
139.92212,140.05522,48,70,0
140.06102,140.19412,50,70,0
140.1999,140.33301,52,70,0
140.33879,140.4719,43,70,0
140.47768,140.61078,42,70,0
140.61656,140.74966,43,70,0
140.75546,140.88857,45,70,0
140.89435,141.02745,38,70,0
141.03323,141.17146,40,70,0
141.17746,141.31569,38,70,0
141.3217,141.46545,40,70,0
141.4717,141.61545,42,70,0
141.6217,141.91545,43,70,0
143.09947,143.51036,43,110,0
143.09947,143.51036,47,110,0
143.09947,143.51036,50,110,0
143.09947,143.51036,55,110,0
143.65503,144.0659,43,110,0
143.65503,144.0659,47,110,0
143.65503,144.0659,50,110,0
143.65503,144.0659,55,110,0
144.21059,144.62146,42,110,0
144.21059,144.62146,50,110,0
144.21059,144.62146,54,110,0
144.76614,145.03813,38,110,0
144.76614,145.03813,50,110,0
145.04391,145.46255,79,70,0
145.46844,145.60406,78,70,0
145.60995,145.74556,76,70,0
145.75146,145.88707,74,70,0
145.89297,146.02858,72,70,0
146.03448,146.17009,71,70,0
146.176,146.3116,70,70,0
146.3175,146.45311,71,70,0
146.45901,146.59462,69,70,0
146.60052,146.73613,67,70,0
146.74203,146.87764,66,70,0
146.88354,147.01915,64,70,0
147.02504,147.16066,62,70,0
147.16655,147.30217,60,70,0
147.30806,147.71895,43,110,0
147.30806,147.71895,47,110,0
147.30806,147.71895,50,110,0
147.30806,147.71895,55,110,0
147.86362,148.2745,43,110,0
147.86362,148.2745,47,110,0
147.86362,148.2745,50,110,0
147.86362,148.2745,55,110,0
148.41917,148.83005,36,110,0
148.41917,148.83005,48,110,0
148.97473,149.3856,36,110,0
148.97473,149.3856,48,110,0
149.53029,150.37344,38,70,0
150.37933,150.51495,40,70,0
150.52084,150.65646,42,70,0
150.66235,150.79797,43,70,0
150.80386,150.93948,43,70,0
150.94537,151.081,45,70,0
151.08688,151.2225,47,70,0
151.2284,151.36401,48,70,0
151.3699,151.50552,50,70,0
151.51141,151.64703,52,70,0
151.65292,151.78854,54,70,0
151.79443,152.2053,43,110,0
151.79443,152.2053,47,110,0
151.79443,152.2053,50,110,0
152.34999,152.76086,43,110,0
152.34999,152.76086,50,110,0
152.34999,152.76086,55,110,0
152.90555,153.31642,42,110,0
152.90555,153.31642,50,110,0
152.90555,153.31642,54,110,0
153.4611,153.87198,38,110,0
153.4611,153.87198,50,110,0
156.2808,156.5528,43,110,0
156.2808,156.5528,47,110,0
156.2808,156.5528,50,110,0
156.2808,156.5528,55,110,0
156.55858,156.96945,43,110,0
156.55858,156.96945,47,110,0
156.55858,156.96945,50,110,0
156.55858,156.96945,55,110,0
157.11414,157.52501,43,110,0
157.11414,157.52501,47,110,0
157.11414,157.52501,50,110,0
157.11414,157.52501,55,110,0
157.6697,158.08057,36,110,0
157.6697,158.08057,48,110,0
158.22525,158.49724,37,110,0
158.22525,158.49724,49,110,0
158.50302,159.34618,38,70,0
159.35208,159.48769,40,70,0
159.49359,159.6292,42,70,0
159.6351,159.91222,43,70,0
159.91812,160.47826,55,70,0
160.48415,160.76128,41,70,0
160.48415,160.76128,53,70,0
160.76717,161.03915,42,110,0
160.76717,161.03915,54,110,0
161.04495,161.45583,42,110,0
161.04495,161.45583,46,110,0
161.04495,161.45583,49,110,0
161.04495,161.45583,54,110,0
161.6005,162.01138,42,110,0
161.6005,162.01138,46,110,0
161.6005,162.01138,49,110,0
161.6005,162.01138,54,110,0
162.15605,162.56694,47,110,0
162.15605,162.56694,51,110,0
162.15605,162.56694,54,110,0
162.15605,162.56694,59,110,0
162.71161,162.9836,35,110,0
162.71161,162.9836,47,110,0
162.9894,163.40802,73,70,0
163.41391,163.54953,71,70,0
163.55542,163.69104,70,70,0
163.69693,163.83255,68,70,0
163.83844,163.97406,66,70,0
163.97995,164.11557,64,70,0
164.12146,164.25708,63,70,0
164.26297,164.39859,66,70,0
164.40448,164.5401,63,70,0
164.54599,164.68161,66,70,0
164.6875,164.82312,62,70,0
164.82901,164.96463,66,70,0
164.97052,165.10612,62,70,0
165.11203,165.24763,66,70,0
165.25354,165.66441,55,110,0
165.25354,165.66441,62,110,0
165.25354,165.66441,65,110,0
165.8091,166.21997,43,110,0
165.8091,166.21997,47,110,0
165.8091,166.21997,50,110,0
165.8091,166.21997,55,110,0
166.36465,166.77553,48,110,0
166.36465,166.77553,52,110,0
166.36465,166.77553,55,110,0
166.36465,166.77553,60,110,0
166.9202,167.33109,36,110,0
166.9202,167.33109,48,110,0
167.47575,168.31892,38,70,0
168.32481,168.46042,40,70,0
168.46632,168.60193,42,70,0
168.60783,168.88495,43,70,0
168.89085,169.16797,55,70,0
168.89085,169.16797,43,70,0
169.17387,169.45099,54,70,0
169.17387,169.45099,42,70,0
169.4569,169.73401,53,70,0
169.4569,169.73401,41,70,0
169.7399,170.15079,42,110,0
169.7399,170.15079,54,110,0
170.29546,170.70634,42,110,0
170.29546,170.70634,46,110,0
170.29546,170.70634,49,110,0
170.29546,170.70634,54,110,0
170.85101,171.2619,47,110,0
170.85101,171.2619,51,110,0
170.85101,171.2619,54,110,0
170.85101,171.2619,59,110,0
171.40657,171.81744,35,110,0
171.40657,171.81744,47,110,0
171.96213,172.38075,73,70,0
172.38666,172.52226,71,70,0
172.52817,172.66377,70,70,0
172.66968,172.80528,68,70,0
172.81119,172.9468,66,70,0
172.95268,173.0883,64,70,0
173.0942,173.22981,63,70,0
173.2357,173.37132,63,70,0
173.37721,173.51283,64,70,0
173.51872,173.65434,63,70,0
173.66023,173.79585,64,70,0
173.80174,173.93736,62,70,0
173.94325,174.07887,64,70,0
174.08476,174.22038,62,70,0
174.22627,174.49826,43,110,0
174.22627,174.49826,47,110,0
174.22627,174.49826,50,110,0
174.22627,174.49826,55,110,0
174.50404,174.91493,43,110,0
174.50404,174.91493,47,110,0
174.50404,174.91493,50,110,0
174.50404,174.91493,55,110,0
175.0596,175.47049,43,110,0
175.0596,175.47049,47,110,0
175.0596,175.47049,50,110,0
175.0596,175.47049,55,110,0
175.61516,176.02605,48,110,0
175.61516,176.02605,52,110,0
175.61516,176.02605,55,110,0
175.61516,176.02605,60,110,0
176.17072,176.4427,36,110,0
176.17072,176.4427,48,110,0
176.44849,176.86713,72,70,0
176.87302,177.00864,71,70,0
177.01453,177.15276,69,70,0
177.15877,177.29698,67,70,0
177.303,177.44121,66,70,0
177.44722,177.58545,64,70,0
177.59145,177.7352,62,70,0
177.74146,177.88521,60,70,0
177.89145,178.0412,59,70,0
178.0477,178.19745,57,70,0
178.20395,178.36368,55,70,0
178.37062,178.55031,54,70,0
178.55812,178.77592,52,70,0
178.78539,179.14476,50,70,0
179.16039,180.13956,43,70,0
179.16039,180.13956,50,70,0
179.16039,180.13956,55,70,0
180.16039,181.13956,43,70,0
180.16039,181.13956,50,70,0
180.16039,181.13956,55,70,0
181.16039,182.13956,43,70,0
181.16039,182.13956,50,70,0
181.16039,182.13956,55,70,0
182.16039,183.13956,43,70,0
182.16039,183.13956,50,70,0
182.16039,183.13956,55,70,0
183.16039,184.13956,43,70,0
183.16039,184.13956,50,70,0
183.16039,184.13956,55,70,0
184.16039,185.13956,43,70,0
184.16039,185.13956,50,70,0
184.16039,185.13956,55,70,0
185.16039,186.13956,42,70,0
185.16039,186.13956,50,70,0
185.16039,186.13956,54,70,0
186.16039,187.13956,42,70,0
186.16039,187.13956,50,70,0
186.16039,187.13956,54,70,0
187.16039,188.13956,42,70,0
187.16039,188.13956,50,70,0
187.16039,188.13956,54,70,0
188.16039,189.13956,42,70,0
188.16039,189.13956,50,70,0
188.16039,189.13956,54,70,0
189.16039,190.13956,42,70,0
189.16039,190.13956,50,70,0
189.16039,190.13956,54,70,0
190.16039,191.13956,42,70,0
190.16039,191.13956,50,70,0
190.16039,191.13956,54,70,0
191.16039,192.13956,42,70,0
191.16039,192.13956,50,70,0
191.16039,192.13956,54,70,0
192.16039,193.13956,55,70,0
192.16039,193.13956,50,70,0
192.16039,193.13956,43,70,0
193.16039,194.13956,55,70,0
193.16039,194.13956,50,70,0
193.16039,194.13956,43,70,0
194.16039,195.13956,55,70,0
194.16039,195.13956,50,70,0
194.16039,195.13956,43,70,0
195.16039,196.13956,62,70,0
195.16039,196.13956,59,70,0
196.16039,197.13956,55,70,0
196.16039,197.13956,59,70,0
197.16039,198.13956,50,70,0
197.16039,198.13956,55,70,0
197.16039,198.13956,59,70,0
198.16039,199.13956,50,70,0
198.16039,199.13956,54,70,0
198.16039,199.13956,57,70,0
199.16039,200.13956,50,70,0
199.16039,200.13956,54,70,0
199.16039,200.13956,57,70,0
199.16039,200.13956,62,70,0
200.16039,206.66525,50,70,0
200.16039,206.66525,54,70,0
200.16039,206.66525,57,70,0
200.16039,206.66525,60,70,0
207.68608,208.19948,50,70,0
207.68608,208.80917,38,70,0
208.2218,208.80917,48,70,0
208.83635,209.8155,43,70,0
208.83635,209.8155,47,70,0
208.83635,209.8155,50,70,0
209.83635,210.8155,43,70,0
209.83635,210.8155,50,70,0
209.83635,210.8155,55,70,0
210.83635,211.8155,43,70,0
210.83635,211.8155,50,70,0
210.83635,211.8155,55,70,0
211.83635,212.8155,43,70,0
211.83635,212.8155,50,70,0
211.83635,212.8155,55,70,0
212.83635,213.8155,43,70,0
212.83635,213.8155,50,70,0
212.83635,213.8155,55,70,0
213.83635,214.8155,47,70,0
213.83635,214.8155,50,70,0
213.83635,214.8155,55,70,0
214.83635,215.8155,48,70,0
214.83635,215.8155,52,70,0
214.83635,215.8155,55,70,0
215.83635,216.8155,48,73,0
215.83635,216.8155,52,73,0
215.83635,216.8155,55,73,0
216.83635,217.8155,48,77,0
216.83635,217.8155,52,77,0
216.83635,217.8155,55,77,0
217.83635,218.8155,49,81,0
217.83635,218.8155,52,81,0
217.83635,218.8155,55,81,0
218.83635,219.88545,49,85,0
218.83635,219.88545,52,85,0
218.83635,219.88545,55,85,0
219.90778,221.08365,49,89,0
219.90778,221.08365,52,89,0
219.90778,221.08365,55,89,0
221.1097,222.08887,50,93,0
221.1097,222.08887,55,93,0
222.1097,223.08887,50,97,0
222.1097,223.08887,55,97,0
223.1097,224.08887,50,100,0
223.1097,224.08887,55,100,0
224.1097,225.08887,54,70,0
224.1097,225.08887,50,70,0
225.1097,226.08887,38,70,0
225.1097,226.08887,50,70,0
226.1097,227.08887,38,70,0
226.1097,227.08887,50,70,0
227.1097,228.08887,50,70,0
227.1097,228.08887,43,70,0
228.1097,229.08887,55,70,0
228.1097,229.08887,43,70,0
228.1097,229.08887,47,70,0
228.1097,229.08887,50,70,0
229.1097,230.08887,43,70,0
229.1097,230.08887,47,70,0
229.1097,230.08887,50,70,0
229.1097,230.08887,55,70,0
230.1097,231.08887,43,70,0
230.1097,231.08887,47,70,0
230.1097,231.08887,50,70,0
230.1097,231.08887,55,70,0
231.1097,232.1588,42,70,0
231.1097,232.1588,54,70,0
232.18112,233.31093,41,70,0
232.18112,233.31093,53,70,0
233.33498,234.31413,42,70,0
233.33498,234.31413,54,70,0
234.33498,235.31413,54,70,0
234.33498,235.31413,61,70,0
234.33498,235.31413,64,70,0
235.33498,236.31413,54,70,0
235.33498,236.31413,61,70,0
235.33498,236.31413,64,70,0
236.33498,237.31413,54,70,0
236.33498,237.31413,61,70,0
236.33498,237.31413,64,70,0
237.33498,238.31413,54,70,0
237.33498,238.31413,58,70,0
237.33498,238.31413,61,70,0
238.33498,239.31413,54,70,0
238.33498,239.31413,58,70,0
238.33498,239.31413,61,70,0
239.33498,240.31413,54,70,0
239.33498,240.31413,59,70,0
239.33498,240.31413,63,70,0
240.33498,241.31413,66,70,0
240.33498,241.31413,63,70,0
240.33498,241.31413,54,70,0
241.33498,242.31413,54,70,0
241.33498,242.31413,59,70,0
241.33498,242.31413,63,70,0
242.33498,243.31413,54,70,0
242.33498,243.31413,59,70,0
242.33498,243.31413,63,70,0
243.33498,244.31413,54,70,0
243.33498,244.31413,59,70,0
243.33498,244.31413,63,70,0
244.33498,245.31413,54,70,0
244.33498,245.31413,59,70,0
244.33498,245.31413,63,70,0
245.33498,246.31413,54,70,0
245.33498,246.31413,61,70,0
245.33498,246.31413,64,70,0
246.33498,247.31413,54,70,0
246.33498,247.31413,61,70,0
246.33498,247.31413,64,70,0
247.33498,248.31413,54,70,0
247.33498,248.31413,61,70,0
247.33498,248.31413,64,70,0
248.33498,249.31413,54,70,0
248.33498,249.31413,61,70,0
248.33498,249.31413,64,70,0
249.33498,250.31413,54,70,0
249.33498,250.31413,58,70,0
249.33498,250.31413,61,70,0
250.33498,251.31413,54,70,0
250.33498,251.31413,58,70,0
250.33498,251.31413,61,70,0
251.33498,252.31413,54,70,0
251.33498,252.31413,59,70,0
251.33498,252.31413,63,70,0
252.33498,253.31413,54,70,0
252.33498,253.31413,59,70,0
252.33498,253.31413,63,70,0
253.33498,254.31413,54,70,0
253.33498,254.31413,59,70,0
253.33498,254.31413,63,70,0
254.33498,260.65396,55,70,0
254.33498,260.65396,59,70,0
254.33498,260.65396,63,70,0
261.67477,262.79788,43,70,0
261.67477,262.79788,50,70,0
261.67477,262.79788,53,70,0
262.82504,263.8042,43,70,0
262.82504,263.8042,50,70,0
262.82504,263.8042,53,70,0
263.82504,264.8042,43,72,0
263.82504,264.8042,50,72,0
263.82504,264.8042,53,72,0
264.82504,265.8042,43,75,0
264.82504,265.8042,50,75,0
264.82504,265.8042,53,75,0
265.82504,266.8042,43,77,0
265.82504,266.8042,50,77,0
265.82504,266.8042,53,77,0
266.82504,267.8042,41,80,0
266.82504,267.8042,50,80,0
266.82504,267.8042,53,80,0
267.82504,268.8042,41,82,0
267.82504,268.8042,50,82,0
267.82504,268.8042,53,82,0
268.82504,269.8042,40,85,0
268.82504,269.8042,48,85,0
268.82504,269.8042,52,85,0
269.82504,270.8042,36,88,0
269.82504,270.8042,48,88,0
270.82504,271.8042,36,90,0
270.82504,271.8042,48,90,0
271.82504,272.8042,36,93,0
271.82504,272.8042,48,93,0
272.82504,273.8042,33,95,0
272.82504,273.8042,45,95,0
273.82504,274.8042,33,98,0
273.82504,274.8042,45,98,0
274.82504,275.8042,33,100,0
274.82504,275.8042,45,100,0
275.82504,276.8042,38,70,0
275.82504,276.8042,50,70,0
276.82504,277.8042,38,70,0
276.82504,277.8042,50,70,0
277.82504,278.8042,38,70,0
277.82504,278.8042,50,70,0
278.82504,279.8042,50,70,0
278.82504,279.8042,38,70,0
279.82504,280.8042,50,70,0
279.82504,280.8042,38,70,0
280.82504,281.8042,50,70,0
280.82504,281.8042,38,70,0
281.82504,282.8042,50,70,0
281.82504,282.8042,38,70,0
282.82504,283.8042,50,70,0
282.82504,283.8042,54,70,0
282.82504,283.8042,57,70,0
282.82504,283.8042,60,70,0
283.82504,284.8042,50,69,0
283.82504,284.8042,54,69,0
283.82504,284.8042,57,69,0
283.82504,284.8042,60,69,0
284.82504,285.8042,50,67,0
284.82504,285.8042,54,67,0
284.82504,285.8042,57,67,0
284.82504,285.8042,60,67,0
285.82504,286.8042,38,65,0
285.82504,286.8042,50,65,0
286.82504,287.8042,38,64,0
286.82504,287.8042,50,64,0
287.82504,288.8042,38,62,0
287.82504,288.8042,50,62,0
288.82504,289.8042,50,60,0
288.82504,289.8042,55,60,0
288.82504,289.8042,58,60,0
289.82504,290.8042,50,58,0
289.82504,290.8042,55,58,0
289.82504,290.8042,58,58,0
290.82504,291.8042,38,57,0
290.82504,291.8042,50,57,0
291.82504,292.8042,38,55,0
291.82504,292.8042,46,55,0
291.82504,292.8042,50,55,0
292.82504,293.8042,38,53,0
292.82504,293.8042,46,53,0
292.82504,293.8042,50,53,0
293.82504,294.8042,38,51,0
293.82504,294.8042,46,51,0
293.82504,294.8042,50,51,0
294.82504,295.8042,38,50,0
294.82504,295.8042,46,50,0
294.82504,295.8042,50,50,0
295.82504,296.8042,46,50,0
295.82504,296.8042,39,50,0
295.82504,296.8042,51,50,0
296.82504,297.8042,46,50,0
296.82504,297.8042,39,50,0
296.82504,297.8042,51,50,0
297.82504,298.8042,46,50,0
297.82504,298.8042,39,50,0
297.82504,298.8042,51,50,0
298.82504,299.8042,46,50,0
298.82504,299.8042,50,50,0
299.82504,300.8042,34,50,0
299.82504,300.8042,46,50,0
300.82504,301.8042,34,57,0
300.82504,301.8042,46,57,0
301.82504,302.8042,34,65,0
301.82504,302.8042,46,65,0
302.82504,303.8042,34,73,0
302.82504,303.8042,46,73,0
303.82504,304.94812,34,80,0
303.82504,304.94812,46,80,0
304.9753,305.2813,39,70,0
305.2878,305.5938,46,70,0
305.6003,305.9063,51,70,0
305.9128,306.2188,46,70,0
306.2253,306.5313,50,70,0
306.5378,306.8438,46,70,0
306.8503,307.1563,38,70,0
307.1628,307.4688,46,70,0
307.4753,307.7813,39,70,0
307.7878,308.0938,46,70,0
308.1003,308.4063,51,70,0
308.4128,308.7188,46,70,0
308.7253,309.0313,34,70,0
309.0378,309.3438,46,70,0
309.3503,309.6563,45,70,0
309.6628,309.9688,44,70,0
309.9753,310.2878,43,70,0
310.29446,310.60696,41,72,0
310.61362,310.92612,39,75,0
310.93274,311.24524,43,77,0
311.2519,311.5712,44,80,0
311.57797,311.9044,43,82,0
311.91132,312.2377,44,85,0
312.24466,312.57846,45,88,0
312.58557,312.95276,46,90,0
312.96057,313.32776,50,93,0
313.33557,314.82776,50,95,0
315.58557,315.95276,64,70,0
315.58557,315.95276,67,70,0
315.96057,316.32776,61,80,0
315.96057,316.32776,64,80,0
316.33557,316.70276,61,70,0
316.33557,316.70276,64,70,0
317.08557,317.45276,57,70,0
317.08557,317.45276,60,70,0
317.46057,317.82776,54,80,0
317.46057,317.82776,57,80,0
317.83557,318.20276,54,70,0
317.83557,318.20276,57,70,0
318.58557,319.08035,69,70,0
318.58557,319.08035,72,70,0
319.08557,319.74527,66,80,0
319.08557,319.74527,69,80,0
319.75223,321.88617,66,70,0
319.75223,321.88617,69,70,0
322.75223,323.046,50,110,0
322.75223,323.046,62,110,0
323.05222,323.32422,55,125,0
323.33002,323.602,50,100,0
323.6078,323.87976,47,100,0
323.88556,324.15756,43,100,0
324.16333,324.43533,42,125,0
324.4411,324.7131,54,100,0
324.7189,324.99088,50,100,0
324.99667,325.26865,42,100,0
325.27444,325.54645,43,125,0
325.55222,325.82422,55,100,0
325.83,326.102,50,100,0
326.1078,326.37976,43,100,0
326.38556,326.65753,42,125,0
326.66333,326.93533,50,100,0
326.9411,327.2131,52,100,0
327.2189,327.49088,54,100,0
327.49667,327.76865,55,125,0
327.77444,328.04645,50,100,0
328.05222,328.32422,47,100,0
328.33,328.602,43,100,0
328.6078,328.87976,48,125,0
328.88556,329.15753,36,100,0
329.16333,329.43533,37,100,0
329.4411,329.7131,49,100,0
329.71887,329.99088,50,125,0
329.99667,330.26865,38,100,0
330.27444,330.54642,50,100,0
330.55222,330.82422,38,100,0
330.83,331.102,43,100,0
331.9411,332.2131,55,125,0
332.21887,332.49088,50,100,0
332.49667,332.76865,47,100,0
332.77444,333.04642,43,100,0
333.05222,333.32422,42,125,0
333.33,333.602,54,100,0
333.60776,333.87976,50,100,0
333.88556,334.15753,42,100,0
334.16333,334.4353,43,125,0
334.4411,334.7131,55,100,0
334.71887,334.99088,50,100,0
334.99664,335.26865,43,100,0
335.27444,335.54642,42,125,0
335.55222,335.8242,50,100,0
335.83,336.102,52,100,0
336.10776,336.37976,54,100,0
336.38556,336.65753,55,125,0
336.66333,336.9353,50,100,0
336.9411,337.2131,47,100,0
337.21887,337.49088,43,100,0
337.49664,337.76865,48,125,0
337.77444,338.04642,36,100,0
338.05222,338.3242,37,100,0
338.33,338.602,49,100,0
338.60776,338.87976,50,125,0
338.88553,339.15753,38,100,0
339.16333,339.4353,50,100,0
339.4411,339.71307,38,100,0
339.71887,339.99088,43,100,0
339.99664,340.26865,43,100,0
339.99664,340.26865,55,100,0
340.27444,340.54642,41,100,0
340.27444,340.54642,53,100,0
340.55222,340.8242,41,100,0
340.55222,340.8242,53,100,0
340.83,341.102,42,125,0
340.83,341.102,54,125,0
341.10776,341.37976,49,100,0
341.38553,341.65753,46,100,0
341.66333,341.9353,42,100,0
341.9411,342.21307,54,125,0
342.21887,342.49088,51,100,0
342.49664,342.76865,47,100,0
342.7744,343.04642,42,100,0
343.05222,343.3242,54,125,0
343.33,343.60196,49,100,0
343.60776,343.87976,46,100,0
343.88553,344.15753,42,100,0
344.16333,344.4353,54,125,0
344.4411,344.71307,51,100,0
344.71887,344.99088,47,100,0
344.99664,345.26865,42,100,0
345.2744,345.54642,55,125,0
345.55222,345.8242,50,100,0
345.83,346.10196,47,100,0
346.10776,346.37976,43,100,0
346.38553,346.65753,48,125,0
346.6633,346.9353,43,100,0
346.9411,347.21307,40,100,0
347.21887,347.49084,36,100,0
347.49664,347.76865,38,100,0
347.7744,348.04642,50,100,0
348.0522,348.3242,50,100,0
348.33,348.60196,38,100,0
348.60776,348.87976,43,100,0
348.88553,349.15753,43,100,0
348.88553,349.15753,55,100,0
349.1633,349.4353,41,100,0
349.1633,349.4353,53,100,0
349.4411,349.71307,41,100,0
349.4411,349.71307,53,100,0
349.71887,349.99084,42,125,0
349.71887,349.99084,54,125,0
349.99664,350.26865,49,100,0
350.2744,350.54642,46,100,0
350.5522,350.8242,42,100,0
350.83,351.10196,54,125,0
351.10776,351.37973,51,100,0
351.38553,351.65753,47,100,0
351.6633,351.9353,42,100,0
351.94107,352.21307,54,125,0
352.21887,352.49084,49,100,0
352.49664,352.76862,46,100,0
352.7744,353.04642,42,100,0
353.0522,353.3242,54,125,0
353.33,353.60196,51,100,0
353.60776,353.87973,47,100,0
353.88553,354.15753,42,100,0
354.1633,354.4353,55,125,0
354.44107,354.71307,50,100,0
354.71887,354.99084,47,100,0
354.99664,355.26862,43,100,0
355.2744,355.54642,48,125,0
355.5522,355.8242,43,100,0
355.82996,356.10196,40,100,0
356.10776,356.37973,36,100,0
356.38553,356.6575,38,100,0
356.6633,356.9353,50,100,0
356.94107,357.21307,50,100,0
357.21887,357.49084,38,100,0
357.49664,357.76862,43,100,0
357.7744,358.04642,64,125,0
357.9133,358.1853,76,100,0
358.0522,358.3242,63,100,0
358.19107,358.46307,75,100,0
358.32996,358.60196,64,100,0
358.46884,358.74084,76,100,0
358.60776,358.87973,59,100,0
358.74664,359.01862,71,100,0
358.88553,359.1575,60,100,0
359.0244,359.2964,72,100,0
359.1633,359.4353,55,100,0
359.3022,359.5742,67,100,0
359.44107,359.71307,57,100,0
359.57996,359.85196,69,100,0
359.71884,359.99084,59,100,0
359.71884,359.99084,71,100,0
359.99664,360.26862,64,125,0
360.13553,360.4075,76,100,0
360.2744,360.5464,63,100,0
360.4133,360.6853,75,100,0
360.5522,360.8242,64,100,0
360.69107,360.96307,76,100,0
360.82996,361.10196,59,100,0
360.96884,361.24084,71,100,0
361.10776,361.37973,60,100,0
361.24664,361.51862,72,100,0
361.38553,361.6575,55,100,0
361.5244,361.7964,67,100,0
361.6633,361.9353,57,100,0
361.8022,362.0742,69,100,0
361.94107,362.21307,59,100,0
362.07996,362.35196,71,100,0
362.21884,362.49084,47,100,0
362.35773,362.62973,59,100,0
362.49664,362.76862,48,100,0
362.63553,362.9075,60,100,0
362.7744,363.0464,52,100,0
362.9133,363.18527,64,100,0
363.0522,363.3242,50,100,0
363.19107,363.46307,62,100,0
363.32996,363.60196,50,100,0
363.46884,363.74084,62,100,0
363.60773,363.87973,50,100,0
363.74664,364.01862,62,100,0
363.88553,364.1575,50,100,0
364.0244,364.1575,57,100,0
364.1633,364.43527,43,100,0
364.1633,364.43527,55,100,0
364.44107,364.71307,52,125,0
364.57996,364.85196,64,100,0
364.71884,364.99084,51,100,0
364.85773,365.12973,63,100,0
364.9966,365.26862,52,100,0
365.13553,365.4075,64,100,0
365.2744,365.5464,47,100,0
365.4133,365.68527,59,100,0
365.5522,365.8242,48,100,0
365.69107,365.96307,60,100,0
365.82996,366.10196,43,100,0
365.96884,366.24084,55,100,0
366.10773,366.37973,45,100,0
366.2466,366.37973,57,100,0
366.38553,366.6575,55,100,0
366.5244,366.7964,67,100,0
366.6633,366.93527,52,125,0
366.8022,367.07416,64,100,0
366.94107,367.21307,51,100,0
367.07996,367.35196,63,100,0
367.21884,367.49084,52,100,0
367.35773,367.62973,64,100,0
367.4966,367.76862,47,100,0
367.63553,367.9075,59,100,0
367.7744,368.0464,48,100,0
367.9133,368.18527,60,100,0
368.0522,368.32416,43,100,0
368.19107,368.46307,55,100,0
368.32996,368.60196,45,100,0
368.46884,368.74594,57,100,0
368.60773,368.8902,47,100,0
368.75195,369.03442,59,100,0
368.8962,369.17865,47,100,0
369.04044,369.3284,59,100,0
369.18466,369.4784,48,100,0
369.33466,369.62842,60,100,0
369.48465,369.7784,52,100,0
369.63464,369.9344,64,100,0
369.78467,370.09064,50,100,0
369.94092,370.25687,62,98,0
370.09717,370.42355,50,95,0
370.26382,370.61017,59,92,0
370.43048,370.79767,50,89,0
370.61798,371.04507,60,86,0
370.80548,371.29507,50,83,0
371.05548,371.29507,57,80,0
371.61798,371.92398,43,60,0
371.93048,372.23648,48,60,0
372.24298,372.54898,46,60,0
372.55548,372.86148,45,60,0
372.86798,373.17398,43,60,0
373.18048,373.48648,45,60,0
373.49298,374.11148,50,60,0
374.11798,374.42398,47,60,0
374.43048,374.73648,48,60,0
374.74298,375.04898,46,60,0
375.05548,375.36148,45,60,0
375.36798,375.67398,49,60,0
375.68048,375.98648,50,60,0
375.99298,376.29898,48,60,0
376.30548,377.54898,47,60,0
377.55548,378.17398,48,60,0
378.18048,378.79898,49,60,0
378.80548,380.04898,50,60,0
380.05548,380.36148,51,60,0
380.36798,380.67398,52,60,0
380.68048,380.98648,53,60,0
380.99298,381.29898,54,60,0
381.30548,383.17398,55,60,0
383.18048,383.79898,54,60,0
383.80548,384.42398,53,60,0
384.43048,385.67398,51,60,0
385.68048,386.29898,50,60,0
386.30548,386.61148,43,60,0
387.24298,387.54898,67,60,0
387.55548,387.86148,67,60,0
387.86798,388.17398,60,60,0
388.18048,388.48648,69,60,0
388.49298,388.79898,67,60,0
388.80548,389.11148,66,60,0
389.11798,389.42398,62,60,0
389.43048,389.73648,67,60,0
389.74298,390.04898,65,60,0
390.05548,390.36148,64,60,0
390.36798,390.67398,63,60,0
390.68048,390.98648,62,60,0
390.99298,391.29898,67,60,0
391.30548,391.61148,67,60,0
391.61798,391.92398,36,60,0
391.93048,392.23648,41,60,0
392.24298,392.54898,39,60,0
392.55548,392.86148,38,60,0
392.86798,393.17398,36,60,0
393.18048,393.48648,38,60,0
393.49298,393.79898,43,60,0
393.80548,394.42398,39,60,0
394.43048,395.04898,40,60,0
395.05548,395.67398,41,60,0
395.68048,396.29898,42,60,0
396.30548,396.92398,43,60,0
396.93048,397.54898,31,60,0
396.93048,397.54898,43,60,0
397.55548,398.17398,36,60,0
397.55548,398.17398,48,60,0
398.18048,398.79898,44,60,0
398.18048,398.79898,48,60,0
398.80548,399.42398,53,60,0
398.80548,400.04898,46,60,0
399.43048,400.04898,50,60,0
400.05548,400.36148,51,60,0
400.05548,400.67398,39,60,0
400.36798,400.67398,55,60,0
400.68048,400.98648,58,60,0
400.68048,401.29898,51,60,0
400.99298,401.29898,55,60,0
401.30548,401.61148,57,60,0
401.61798,401.92398,54,60,0
401.93048,402.23648,55,60,0
401.30548,402.54898,50,60,0
402.24298,402.54898,58,60,0
402.55548,402.86148,57,60,0
402.86798,403.17398,54,60,0
403.18048,403.48648,55,60,0
402.55548,403.79898,50,60,0
403.49298,403.79898,58,60,0
403.80548,404.11148,50,60,0
403.80548,404.42398,57,60,0
404.11798,404.42398,49,67,0
404.43048,404.74298,62,74,0
404.43048,404.74298,60,74,0
404.74963,405.06894,59,81,0
404.74963,405.06894,62,81,0
405.0757,405.4021,57,89,0
405.0757,405.4021,60,89,0
405.40906,405.74286,55,96,0
405.40906,405.74286,59,96,0
405.74997,406.09967,50,103,0
405.74997,406.09967,54,103,0
405.74997,406.09967,57,103,0
406.10712,406.4743,38,110,0
406.10712,406.4743,50,110,0
406.48212,406.62033,55,70,0
406.48212,406.76456,42,70,0
406.62634,406.90878,55,70,0
406.77057,407.053,50,70,0
406.9148,407.19727,47,70,0
407.05902,407.3415,42,70,0
407.20328,407.48572,55,70,0
407.3475,407.62994,50,70,0
407.49173,407.62994,47,70,0
407.63596,407.9184,42,70,0
407.78018,408.06265,54,70,0
407.9244,408.20688,50,70,0
408.06863,408.3511,48,70,0
408.2129,408.49533,42,70,0
408.35712,408.63956,54,70,0
408.50134,408.78378,50,70,0
408.64557,408.78378,48,70,0
408.7898,409.07227,43,70,0
408.93402,409.2165,55,70,0
409.07828,409.36072,50,70,0
409.2225,409.50494,47,70,0
409.36673,409.64917,43,70,0
409.51096,409.7934,47,70,0
409.65518,409.93765,50,70,0
409.7994,409.93765,55,70,0
409.94363,410.2261,38,70,0
410.0879,410.37033,42,70,0
410.23212,410.51456,45,70,0
410.37634,410.65878,50,70,0
410.52057,410.803,49,70,0
410.6648,410.94727,50,70,0
410.80902,411.0915,52,70,0
410.95328,411.0915,54,70,0
411.0975,411.37994,42,70,0
411.24173,411.52417,55,71,0
411.38596,411.6684,50,73,0
411.53018,411.81265,47,74,0
411.6744,411.95688,42,76,0
411.81863,412.1011,55,77,0
411.9629,412.24533,50,79,0
412.10712,412.24533,47,80,0
412.25134,412.53378,48,82,0
412.39557,412.678,60,83,0
412.5398,412.82227,55,85,0
412.68402,412.9665,52,87,0
412.82828,413.11072,49,88,0
412.9725,413.25494,52,90,0
413.11673,413.39917,55,91,0
413.26096,413.39917,57,93,0
413.40518,413.68765,50,94,0
413.5494,413.83188,60,96,0
413.69363,413.9761,57,97,0
413.8379,414.12033,54,99,0
413.98212,414.26456,50,100,0
414.12634,414.40878,48,90,0
414.27057,414.553,47,80,0
414.4148,414.553,45,70,0
414.55902,414.8415,43,70,0
414.70328,414.98572,55,70,0
414.8475,415.12994,43,70,0
414.99173,415.27417,55,70,0
415.13596,415.4184,42,70,0
415.28018,415.56265,54,70,0
415.4244,415.70688,41,70,0
415.56863,415.70688,53,70,0
415.7129,416.28378,42,70,0
415.7129,416.28378,54,70,0
416.2898,416.86072,42,70,0
416.2898,416.86072,49,70,0
416.2898,416.86072,52,70,0
416.86673,417.43765,42,70,0
416.86673,417.43765,47,70,0
416.86673,417.43765,51,70,0
417.44363,418.01456,42,70,0
417.44363,418.01456,47,70,0
417.44363,418.01456,51,70,0
418.02057,418.5915,42,70,0
418.02057,418.5915,49,70,0
418.02057,418.5915,52,70,0
418.5975,419.1684,42,70,0
418.5975,419.1684,49,70,0
418.5975,419.1684,52,70,0
419.1744,419.74533,42,70,0
419.1744,419.74533,47,70,0
419.1744,419.74533,51,70,0
419.75134,420.32227,42,70,0
419.75134,420.32227,47,70,0
419.75134,420.32227,50,70,0
420.32828,420.89917,43,70,0
420.32828,420.89917,47,70,0
420.32828,420.89917,50,70,0
420.90518,421.4761,43,75,0
420.90518,421.4761,50,75,0
420.90518,421.4761,54,75,0
421.48212,422.053,48,80,0
421.48212,422.053,52,80,0
422.05902,422.62994,36,85,0
422.05902,422.62994,48,85,0
422.63596,423.21805,38,91,0
422.63596,423.21805,50,91,0
423.22418,423.8063,38,96,0
423.22418,423.8063,50,96,0
423.81244,424.4062,31,101,0
423.81244,424.4062,43,101,0
424.4124,425.0309,31,106,0
424.4124,425.0309,43,106,0
425.0374,425.33743,43,120,0
425.19366,425.47678,45,120,0
425.3437,425.61566,47,120,0
425.48257,425.75455,48,120,0
425.62146,425.89343,50,120,0
425.76035,426.03232,52,120,0
425.89923,426.17123,53,120,0
426.03812,426.31012,55,120,0
426.177,426.449,36,120,0
426.3159,426.5879,38,120,0
426.45477,426.72678,40,120,0
426.59366,426.86566,41,120,0
426.73257,427.00455,43,120,0
426.87146,427.14343,45,120,0
427.01035,427.28232,47,120,0
427.14923,427.42123,48,120,0
427.28812,427.56012,50,120,0
427.427,427.699,48,120,0
427.5659,427.8379,47,120,0
427.70477,427.97678,45,120,0
427.84366,428.11566,43,120,0
427.98257,428.25455,42,120,0
428.12146,428.39343,40,120,0
428.26035,428.53232,38,120,0
428.39923,428.6712,43,120,0
428.53812,428.81012,42,120,0
428.677,428.949,40,120,0
428.8159,429.0879,38,120,0
428.95477,429.22678,36,120,0
429.09366,429.36566,35,120,0
429.23257,429.50455,33,120,0
429.37146,429.64343,31,120,0
429.51035,429.78232,43,120,0
429.64923,429.9212,45,120,0
429.78812,430.06012,47,120,0
429.927,430.199,48,120,0
430.0659,430.3379,50,120,0
430.20477,430.47678,52,120,0
430.34366,430.61566,53,120,0
430.48254,430.75455,55,120,0
430.62146,430.89343,36,120,0
430.76035,431.03232,38,120,0
430.89923,431.1712,40,120,0
431.03812,431.3101,41,120,0
431.177,431.449,43,120,0
431.3159,431.5879,45,120,0
431.45477,431.72678,47,120,0
431.59366,431.86566,48,120,0
431.73254,432.00455,50,120,0
431.87146,432.14343,48,120,0
432.01035,432.28232,47,120,0
432.14923,432.4212,45,120,0
432.28812,432.5601,43,120,0
432.427,432.699,42,120,0
432.5659,432.8379,40,120,0
432.70477,432.97678,38,120,0
432.84366,433.11566,43,120,0
437.0103,437.28232,38,120,0
437.0103,437.28232,50,120,0
437.28812,437.5601,43,120,0
437.28812,437.5601,55,120,0
442.14078,442.63037,43,60,0
442.14078,442.63037,55,60,0
442.64078,443.63037,42,60,0
442.64078,443.63037,54,60,0
443.64078,444.63037,42,60,0
443.64078,444.63037,54,60,0
444.64078,445.63037,42,60,0
444.64078,445.63037,54,60,0
445.64078,446.63037,42,60,0
445.64078,446.63037,54,60,0
446.64078,447.63037,54,60,0
446.64078,447.63037,61,60,0
446.64078,447.63037,64,60,0
447.64078,448.63037,64,60,0
447.64078,448.63037,61,60,0
447.64078,448.63037,54,60,0
448.64078,449.63037,54,60,0
448.64078,449.63037,59,60,0
448.64078,449.63037,63,60,0
449.64078,450.63037,62,60,0
449.64078,450.63037,59,60,0
449.64078,450.63037,54,60,0
450.64078,451.63037,55,60,0
450.64078,451.63037,59,60,0
450.64078,451.63037,62,60,0
451.64078,452.63037,43,60,0
451.64078,452.63037,50,60,0
451.64078,452.63037,53,60,0
452.64078,453.63037,48,60,0
452.64078,453.63037,52,60,0
453.64078,454.63037,48,60,0
453.64078,454.63037,52,60,0
454.64078,455.63037,50,60,0
454.64078,455.63037,54,60,0
455.64078,456.63037,50,60,0
455.64078,456.63037,54,60,0
455.64078,456.63037,57,60,0
456.64078,457.64725,50,60,0
456.64078,457.64725,55,60,0
456.64078,457.64725,59,60,0
457.65802,458.68173,50,60,0
457.65802,458.68173,55,60,0
457.65802,458.68173,59,60,0
458.6925,459.7343,50,60,0
458.6925,459.7343,54,60,0
458.6925,459.7343,57,60,0
459.74545,460.80573,50,60,0
459.74545,460.80573,54,60,0
459.74545,460.80573,57,60,0
460.8169,461.89658,50,60,0
460.8169,461.89658,55,60,0
460.8169,461.89658,59,60,0
461.90817,463.0077,50,60,0
461.90817,463.0077,55,60,0
461.90817,463.0077,59,60,0
463.0193,464.1188,50,60,0
463.0193,464.1188,54,60,0
463.0193,464.1188,57,60,0
464.13037,465.2948,50,60,0
464.13037,465.2948,54,60,0
464.13037,465.2948,57,60,0
465.3073,466.4948,50,60,0
465.3073,466.4948,55,60,0
465.3073,466.4948,59,60,0
466.5073,467.89386,50,60,0
466.5073,467.89386,55,60,0
466.5073,467.89386,59,60,0
467.9095,468.22302,50,100,0
467.9095,468.22302,54,100,0
467.9095,468.22302,57,100,0
468.22614,468.49603,62,100,0
468.49887,468.76877,43,100,0
468.7716,469.04147,55,100,0
469.04434,469.3142,38,100,0
469.31705,469.58694,50,100,0
469.58978,469.85968,43,100,0
469.86252,470.1324,55,100,0
470.13522,470.40512,50,120,0
470.40796,470.67786,62,120,0
470.6807,470.9506,43,120,0
470.95343,471.2233,55,120,0
471.22614,471.49603,38,120,0
471.49887,471.90512,50,120,0
471.90796,472.3142,31,120,0
471.90796,472.3142,43,120,0
