start_time,end_time,note_value,velocity,instrument_program_number
0.4999995,0.65972155,55,80,0
0.666666,0.99305457,60,80,0
0.666666,0.99305457,55,80,0
0.666666,0.99305457,52,80,0
1.333332,1.6597205,59,80,0
1.333332,1.6597205,55,80,0
1.333332,1.6597205,53,80,0
1.999998,2.3263865,60,80,0
1.999998,2.3263865,55,80,0
2.666664,2.9930525,62,80,0
2.666664,2.9930525,55,80,0
3.33333,3.6597185,64,80,0
3.33333,3.6597185,60,80,0
3.33333,3.6597185,55,80,0
3.999996,4.3263845,65,80,0
3.999996,4.3263845,62,80,0
3.999996,4.3263845,57,80,0
4.666662,5.9930496,62,80,0
4.666662,5.9930496,59,80,0
5.999994,6.345582,67,80,0
5.999994,6.345582,60,80,0
6.705876,7.0322647,67,80,0
6.705876,7.0322647,65,80,0
6.705876,7.0322647,59,80,0
7.372542,7.6989307,67,80,0
7.372542,7.6989307,64,80,0
7.372542,7.6989307,60,80,0
8.039208,8.365597,68,80,0
8.039208,8.365597,64,80,0
8.039208,8.365597,62,80,0
8.705874,9.051462,69,80,0
8.705874,9.051462,64,80,0
8.705874,9.051462,60,80,0
9.411756,9.757344,69,80,0
9.411756,9.757344,65,80,0
9.411756,9.757344,60,80,0
10.117638,11.277359,62,80,0
10.117638,11.277359,59,80,0
11.117637,11.277359,55,80,0
11.45097,11.796558,60,80,0
11.45097,11.796558,55,80,0
11.45097,11.796558,52,80,0
12.156852,12.48324,59,80,0
12.156852,12.48324,55,80,0
12.156852,12.48324,53,80,0
12.823518,13.149906,60,80,0
12.823518,13.149906,55,80,0
13.490184,13.816572,62,80,0
13.490184,13.816572,55,80,0
14.15685,14.483238,64,80,0
14.15685,14.483238,55,80,0
14.823516,15.149904,66,80,0
14.823516,15.149904,60,80,0
15.490182,16.81657,67,80,0
15.490182,16.81657,62,80,0
16.823515,17.149902,69,80,0
16.823515,17.149902,64,80,0
17.49018,17.816568,70,80,0
17.49018,17.816568,64,80,0
18.156845,19.483234,71,80,0
18.156845,19.483234,62,80,0
19.490177,19.816566,72,80,0
19.490177,19.816566,66,80,0
20.156843,20.483232,69,80,0
20.156843,20.483232,66,80,0
20.82351,21.483232,67,80,0
21.990175,22.149897,67,80,0
22.156841,22.816563,79,80,0
22.156841,22.816563,72,80,0
22.823507,23.483229,77,80,0
22.823507,23.483229,71,80,0
23.490173,24.149895,76,80,0
23.490173,24.149895,72,80,0
24.15684,24.316563,76,80,0
24.240173,24.399895,77,80,0
24.323507,24.483229,76,80,0
24.40684,24.566563,77,80,0
24.490173,24.649895,76,80,0
24.573505,24.733229,77,80,0
24.15684,24.81656,72,80,0
24.65684,24.81656,74,80,0
24.740173,24.81656,76,80,0
24.823505,25.483227,84,80,0
24.823505,25.483227,72,80,0
25.490171,26.149893,82,80,0
25.490171,26.149893,72,80,0
26.156837,27.316559,81,80,0
26.156837,27.316559,72,80,0
27.323503,27.483225,69,80,0
27.49017,28.14989,81,80,0
27.49017,28.14989,69,80,0
28.156836,28.816557,79,80,0
28.156836,28.816557,69,80,0
28.823502,29.483223,77,80,0
28.823502,29.483223,69,80,0
29.490168,30.149889,76,80,0
29.490168,30.149889,73,80,0
29.490168,30.149889,67,80,0
30.156834,30.816555,74,80,0
30.156834,30.816555,69,80,0
30.156834,30.816555,65,80,0
30.8235,31.483221,69,80,0
30.8235,31.483221,63,80,0
30.8235,32.149887,72,80,0
31.490166,32.149887,67,80,0
31.490166,32.149887,62,80,0
32.156834,32.816555,71,80,0
32.823498,33.149887,72,80,0
32.823498,33.149887,67,80,0
33.490166,33.81655,71,80,0
33.490166,33.81655,67,80,0
33.490166,33.81655,65,80,0
34.15683,34.48322,72,80,0
34.15683,34.48322,67,80,0
34.15683,34.48322,64,80,0
34.823498,35.149883,74,80,0
34.823498,35.149883,67,80,0
34.823498,35.149883,62,80,0
35.49016,35.81655,76,80,0
35.49016,35.81655,72,80,0
35.49016,35.81655,67,80,0
35.49016,35.81655,64,80,0
36.15683,36.483215,77,80,0
36.15683,36.483215,74,80,0
36.15683,36.483215,65,80,0
36.15683,36.483215,69,80,0
36.823494,37.149883,74,80,0
36.823494,37.149883,71,80,0
36.823494,37.149883,67,80,0
36.823494,37.149883,62,80,0
37.49016,38.816547,67,100,0
37.49016,38.816547,79,100,0
38.82349,39.483215,70,100,0
38.82349,40.14988,79,100,0
39.490158,40.816547,69,100,0
40.156822,40.816547,77,100,0
40.82349,41.14988,76,80,0
40.82349,41.14988,72,80,0
40.82349,41.14988,67,80,0
41.490154,41.816544,74,80,0
41.490154,41.816544,71,80,0
41.490154,41.816544,65,80,0
42.156822,42.48321,72,80,0
42.156822,42.48321,67,80,0
42.156822,42.48321,64,80,0
43.490154,43.816544,59,80,0
43.490154,43.816544,53,80,0
43.490154,43.816544,50,80,0
44.15682,44.483208,60,100,0
44.15682,44.483208,55,100,0
44.15682,44.483208,52,100,0
44.823486,45.149876,61,80,0
44.823486,45.149876,55,80,0
44.823486,45.149876,52,80,0
45.49015,45.81654,62,100,0
45.49015,45.81654,57,100,0
45.49015,45.81654,53,100,0
46.15682,46.483208,63,80,0
46.15682,46.483208,57,80,0
46.15682,46.483208,54,80,0
46.823483,47.14987,64,100,0
46.823483,47.14987,59,100,0
46.823483,47.14987,55,100,0
47.49015,49.483204,55,100,0
47.49015,49.483204,59,100,0
47.49015,49.483204,65,100,0
49.490147,50.149868,60,80,0
49.490147,50.149868,64,80,0
49.490147,50.149868,55,80,0
50.156815,50.816536,62,80,0
50.156815,50.816536,60,80,0
50.156815,50.816536,53,80,0
50.82348,51.4832,65,80,0
50.82348,51.4832,60,80,0
50.82348,51.4832,57,80,0
51.490147,51.816536,64,80,0
51.490147,51.816536,60,80,0
51.490147,51.816536,55,80,0
52.15681,52.4832,62,80,0
52.15681,52.4832,59,80,0
52.15681,52.4832,53,80,0
52.82348,53.149868,60,80,0
52.82348,53.149868,55,80,0
52.82348,53.149868,52,80,0
53.990143,54.149864,67,80,0
54.15681,54.816532,79,80,0
54.15681,54.816532,72,80,0
54.823475,55.483196,77,80,0
54.823475,55.483196,71,80,0
55.490143,56.149864,76,80,0
55.490143,56.149864,72,80,0
56.156807,56.31653,76,80,0
56.240143,56.399864,77,80,0
56.323475,56.483196,76,80,0
56.406807,56.56653,77,80,0
56.490143,56.649864,76,80,0
56.573475,56.733196,77,80,0
56.156807,56.81653,72,80,0
56.656807,56.81653,74,80,0
56.74014,56.81653,76,80,0
56.823475,57.483196,84,80,0
56.823475,57.483196,72,80,0
57.49014,58.14986,82,80,0
57.49014,58.14986,72,80,0
58.156807,59.31653,81,80,0
58.156807,59.31653,72,80,0
59.32347,59.483192,69,80,0
59.49014,60.14986,81,80,0
59.49014,60.14986,69,80,0
60.156803,60.816525,79,82,0
60.156803,60.816525,69,82,0
60.82347,61.483192,77,85,0
60.82347,61.483192,69,85,0
61.490135,62.149857,76,87,0
61.490135,62.149857,73,87,0
61.490135,62.149857,67,87,0
62.156803,62.816525,74,90,0
62.156803,62.816525,69,90,0
62.156803,62.816525,65,90,0
62.823467,63.48319,69,92,0
62.823467,63.48319,63,92,0
62.823467,64.14986,72,92,0
63.490135,64.14986,67,95,0
63.490135,64.14986,62,95,0
64.1568,64.81652,71,98,0
64.82346,65.14986,72,80,0
64.82346,65.14986,67,80,0
65.490135,65.81652,71,80,0
65.490135,65.81652,67,80,0
65.490135,65.81652,65,80,0
66.1568,66.483185,72,80,0
66.1568,66.483185,67,80,0
66.1568,66.483185,64,80,0
66.82346,67.14985,74,80,0
66.82346,67.14985,67,80,0
66.82346,67.14985,62,80,0
67.49013,67.81652,76,80,0
67.49013,67.81652,72,80,0
67.49013,67.81652,67,80,0
67.49013,67.81652,64,80,0
68.1568,68.483185,77,80,0
68.1568,68.483185,74,80,0
68.1568,68.483185,65,80,0
68.1568,68.483185,69,80,0
68.82346,69.14985,74,80,0
68.82346,69.14985,71,80,0
68.82346,69.14985,67,80,0
68.82346,69.14985,62,80,0
69.49013,70.81651,67,100,0
69.49013,70.81651,79,100,0
70.82346,71.483185,70,100,0
70.82346,72.14985,79,100,0
71.49013,72.81651,69,100,0
72.15679,72.81651,77,100,0
72.823456,73.14985,76,80,0
72.823456,73.14985,72,80,0
72.823456,73.14985,67,80,0
73.49013,73.81651,74,80,0
73.49013,73.81651,71,80,0
73.49013,73.81651,65,80,0
74.15679,74.48318,72,80,0
74.15679,74.48318,67,80,0
74.15679,74.48318,64,80,0
75.49012,75.81651,59,80,0
75.49012,75.81651,53,80,0
75.49012,75.81651,50,80,0
76.15679,76.48318,60,100,0
76.15679,76.48318,55,100,0
76.15679,76.48318,52,100,0
76.823456,77.14984,61,80,0
76.823456,77.14984,55,80,0
76.823456,77.14984,52,80,0
77.49012,77.816505,62,100,0
77.49012,77.816505,57,100,0
77.49012,77.816505,53,100,0
78.156784,78.48318,63,80,0
78.156784,78.48318,57,80,0
78.156784,78.48318,54,80,0
78.823456,79.14984,64,100,0
78.823456,79.14984,59,100,0
78.823456,79.14984,55,100,0
79.49012,81.48317,55,100,0
79.49012,81.48317,59,100,0
79.49012,81.48317,65,100,0
81.49011,82.14984,60,80,0
81.49011,82.14984,64,80,0
81.49011,82.14984,55,80,0
82.156784,82.816505,62,80,0
82.156784,82.816505,60,80,0
82.156784,82.816505,53,80,0
82.82345,83.48317,65,80,0
82.82345,83.48317,60,80,0
82.82345,83.48317,57,80,0
83.49011,83.82776,64,80,0
83.49011,83.82776,60,80,0
83.49011,83.82776,55,80,0
84.17977,84.52536,62,80,0
84.17977,84.52536,59,80,0
84.17977,84.52536,53,80,0
84.88565,85.23124,60,80,0
84.88565,85.23124,55,80,0
84.88565,85.23124,52,80,0
86.65035,87.32969,79,80,0
87.33663,87.99635,79,80,0
88.003296,88.66302,79,80,0
88.66996,89.32968,79,80,0
89.33663,89.99635,79,80,0
90.003296,90.66302,79,80,0
90.66996,90.996346,79,80,0
91.003296,91.32968,79,80,0
91.336624,91.66302,79,80,0
92.00329,92.66302,79,80,0
92.66996,93.32968,77,80,0
93.336624,93.996346,76,80,0
94.00329,94.66301,74,80,0
94.66995,95.32967,72,80,0
95.00329,95.66301,69,80,0
95.336624,95.66301,74,80,0
95.66995,95.996346,72,80,0
96.00329,96.32967,71,80,0
96.336624,96.66301,69,80,0
95.66995,96.996346,62,80,0
96.66995,96.996346,67,80,0
97.00329,97.32967,79,80,0
97.33662,97.99634,79,80,0
98.00329,98.66301,79,80,0
98.66995,99.32967,79,80,0
99.33662,99.99634,79,80,0
100.00328,100.32967,84,80,0
100.33662,100.663,84,83,0
100.66995,100.99634,84,86,0
101.00328,101.32967,84,89,0
101.33662,101.663,83,93,0
101.66995,101.99634,81,96,0
102.00328,102.32967,79,99,0
102.669945,102.99634,88,110,0
103.00328,103.329666,88,110,0
103.33662,103.663,88,110,0
103.669945,103.99634,88,110,0
104.00328,104.329666,86,110,0
104.33662,104.663,85,110,0
104.669945,105.329666,86,110,0
105.33661,105.663,74,110,0
105.669945,105.99633,76,110,0
106.00328,106.674255,78,100,0
106.68144,107.01908,79,91,0
107.02627,107.37186,74,86,0
107.3792,107.74639,71,81,0
108.1292,108.788925,79,80,0
108.795876,109.4556,79,80,0
109.46254,110.12226,79,80,0
110.1292,110.788925,79,80,0
110.46254,111.12226,72,80,0
110.79587,111.45559,77,80,0
111.1292,111.788925,70,80,0
111.46254,112.12226,76,80,0
112.1292,112.45559,77,80,0
112.46254,112.788925,79,80,0
111.79587,113.12226,69,80,0
112.79587,113.12226,80,80,0
113.1292,113.45559,81,80,0
113.46253,114.12225,81,81,0
114.1292,114.788925,81,85,0
114.79587,115.45559,81,89,0
115.46253,116.12225,81,92,0
116.129196,116.78892,86,96,0
116.79587,117.45559,74,99,0
117.46253,118.12225,79,110,0
118.129196,118.28892,77,87,0
118.29586,118.45559,74,81,0
118.46253,118.82972,72,80,0
118.83753,119.53892,79,80,0
119.54586,120.20558,79,80,0
120.21253,120.87225,79,80,0
120.879196,121.53892,79,80,0
121.54586,122.20558,79,80,0
122.212524,122.872246,79,80,0
122.879196,123.53892,79,80,0
123.54586,124.20558,71,80,0
124.212524,124.872246,72,83,0
124.87919,125.53891,73,91,0
125.54586,126.20558,74,98,0
126.212524,126.872246,81,106,0
126.87919,127.53891,72,80,0
127.54585,127.872246,71,80,0
127.87919,128.20558,72,80,0
128.21252,128.53891,67,80,0
128.54585,128.87224,64,80,0
128.87918,129.20558,60,80,0
129.54585,130.20558,53,100,0
129.54585,130.20558,50,100,0
129.54585,130.20558,59,100,0
130.21252,130.53891,60,80,0
130.21252,130.53891,55,80,0
130.21252,130.53891,52,80,0
130.87918,131.53891,61,100,0
130.87918,131.53891,55,100,0
130.87918,131.53891,52,100,0
131.54585,131.87224,62,80,0
131.54585,131.87224,57,80,0
131.54585,131.87224,53,80,0
132.21252,132.87224,63,100,0
132.21252,132.87224,57,100,0
132.21252,132.87224,53,100,0
132.87918,133.20557,64,80,0
132.87918,133.20557,59,80,0
132.87918,133.20557,55,80,0
133.54585,134.20557,65,100,0
133.54585,134.20557,59,100,0
133.54585,134.20557,55,100,0
134.21251,134.87224,55,80,0
134.21251,134.87224,59,80,0
134.21251,134.87224,65,80,0
134.87918,135.53891,65,86,0
134.87918,135.53891,59,86,0
134.87918,135.53891,55,86,0
135.54585,136.20557,64,93,0
135.54585,136.20557,60,93,0
135.54585,136.20557,57,93,0
136.21251,136.87224,62,100,0
136.21251,136.87224,60,100,0
136.21251,136.87224,53,100,0
136.87918,137.5389,57,106,0
136.87918,137.5389,60,106,0
136.87918,137.5389,65,106,0
137.54584,138.20557,64,80,0
137.54584,138.20557,60,80,0
137.54584,138.20557,55,80,0
138.21251,138.5389,62,80,0
138.21251,138.5389,59,80,0
138.21251,138.5389,53,80,0
138.54584,139.20557,60,80,0
138.54584,139.20557,55,80,0
138.54584,139.20557,52,80,0
139.54584,139.87224,67,80,0
139.87918,140.20557,79,80,0
140.21251,140.87224,79,80,0
140.87918,141.5389,79,80,0
141.54584,142.20557,79,80,0
142.21251,142.87222,79,80,0
142.54584,143.20557,72,80,0
142.87917,143.5389,77,80,0
143.21251,143.87222,70,80,0
143.54584,144.20557,76,80,0
144.21251,144.5389,77,80,0
144.54584,144.87222,79,80,0
143.87917,145.20557,69,80,0
144.87917,145.20557,80,80,0
145.21251,145.5389,81,80,0
145.54584,146.20555,81,82,0
146.21251,146.87222,81,87,0
146.87917,147.5389,81,92,0
147.54584,148.20555,81,97,0
148.2125,148.87222,86,102,0
148.87917,149.5389,74,107,0
149.54584,150.20555,79,110,0
150.2125,150.3857,77,87,0
150.39322,150.56642,74,81,0
150.57394,150.92786,72,80,0
150.9354,151.59511,79,80,0
151.60205,152.26178,79,80,0
152.26872,152.92844,79,80,0
152.9354,153.59511,79,80,0
153.60205,154.26178,79,80,0
154.26872,154.92844,79,80,0
154.93538,155.59511,79,80,0
155.60205,156.26178,71,80,0
156.26872,156.92844,72,80,0
156.93538,157.59511,73,80,0
157.60205,158.26176,74,80,0
158.26872,158.92844,81,80,0
158.93538,159.59511,72,80,0
159.60205,159.92844,71,80,0
159.93538,160.26176,72,80,0
160.2687,160.59511,67,80,0
160.60205,160.92844,64,80,0
160.93538,161.26176,60,80,0
161.60205,162.26176,53,100,0
161.60205,162.26176,50,100,0
161.60205,162.26176,59,100,0
162.2687,162.59511,60,80,0
162.2687,162.59511,55,80,0
162.2687,162.59511,52,80,0
162.93538,163.5951,61,100,0
162.93538,163.5951,55,100,0
162.93538,163.5951,52,100,0
163.60205,163.92844,62,80,0
163.60205,163.92844,57,80,0
163.60205,163.92844,53,80,0
164.2687,164.92844,63,100,0
164.2687,164.92844,57,100,0
164.2687,164.92844,53,100,0
164.93538,165.26176,64,80,0
164.93538,165.26176,59,80,0
164.93538,165.26176,55,80,0
165.60204,166.26176,65,100,0
165.60204,166.26176,59,100,0
165.60204,166.26176,55,100,0
166.2687,166.92844,55,100,0
166.2687,166.92844,59,100,0
166.2687,166.92844,65,100,0
166.93538,167.5951,65,80,0
166.93538,167.5951,59,80,0
166.93538,167.5951,55,80,0
167.60204,168.26176,64,80,0
167.60204,168.26176,60,80,0
167.60204,168.26176,57,80,0
168.2687,168.92842,62,80,0
168.2687,168.92842,60,80,0
168.2687,168.92842,53,80,0
168.93538,169.5951,57,80,0
168.93538,169.5951,60,80,0
168.93538,169.5951,65,80,0
169.60204,170.26176,64,80,0
169.60204,170.26176,60,80,0
169.60204,170.26176,55,80,0
170.2687,170.5951,62,80,0
170.2687,170.5951,59,80,0
170.2687,170.5951,53,80,0
170.60204,171.26176,60,80,0
170.60204,171.26176,55,80,0
170.60204,171.26176,52,80,0
171.60204,171.92842,67,80,0
171.93536,172.26176,72,80,0
172.2687,172.5951,72,80,0
172.2687,172.5951,67,80,0
172.93536,173.26175,71,80,0
172.93536,173.26175,67,80,0
172.93536,173.26175,65,80,0
173.60204,173.92842,72,80,0
173.60204,173.92842,67,80,0
173.60204,173.92842,64,80,0
174.2687,174.5951,74,80,0
174.2687,174.5951,67,80,0
174.2687,174.5951,65,80,0
174.93536,175.26175,76,80,0
174.93536,175.26175,72,80,0
174.93536,175.26175,67,80,0
175.60204,175.92842,77,80,0
175.60204,175.92842,72,80,0
175.60204,175.92842,65,80,0
176.26869,176.5951,74,80,0
176.26869,176.5951,72,80,0
176.26869,176.5951,65,80,0
176.93536,177.26175,74,80,0
176.93536,177.26175,71,80,0
176.93536,177.26175,65,80,0
177.60204,177.92842,79,80,0
177.60204,177.92842,74,80,0
177.60204,177.92842,71,80,0
177.60204,177.92842,67,80,0
178.26869,178.59508,79,80,0
178.26869,178.59508,72,80,0
178.26869,178.59508,67,80,0
178.93536,179.26175,79,80,0
178.93536,179.26175,77,80,0
178.93536,179.26175,71,80,0
179.60204,179.92842,80,80,0
179.60204,179.92842,76,80,0
179.60204,179.92842,70,80,0
180.26869,180.59508,81,80,0
180.26869,180.59508,77,80,0
180.26869,180.59508,69,80,0
180.93536,181.26175,81,80,0
180.93536,181.26175,77,80,0
180.93536,181.26175,69,80,0
181.60202,182.26175,68,100,0
182.26869,182.42842,67,80,0
181.60202,182.59508,74,100,0
181.60202,182.59508,71,100,0
182.43536,182.59508,65,80,0
182.93536,183.26175,72,80,0
182.93536,183.26175,67,80,0
183.60202,183.9284,71,80,0
183.60202,183.9284,67,80,0
183.60202,183.9284,65,80,0
184.26869,184.59508,72,80,0
184.26869,184.59508,67,80,0
184.26869,184.59508,64,80,0
184.93535,185.26175,74,80,0
184.93535,185.26175,67,80,0
184.93535,185.26175,62,80,0
185.60202,185.9284,76,80,0
185.60202,185.9284,72,80,0
185.60202,185.9284,67,80,0
185.60202,185.9284,64,80,0
186.26869,186.59508,78,80,0
186.26869,186.59508,75,80,0
186.26869,186.59508,72,80,0
186.26869,186.59508,66,80,0
186.93535,187.59508,79,100,0
186.93535,187.59508,67,100,0
186.93535,187.59508,74,100,0
187.60202,187.9284,79,80,0
187.60202,187.9284,74,80,0
187.60202,187.9284,67,80,0
188.26869,188.59508,81,80,0
188.26869,188.59508,79,80,0
188.26869,188.59508,76,80,0
188.26869,188.59508,69,80,0
188.93535,189.26173,82,80,0
188.93535,189.26173,79,80,0
188.93535,189.26173,76,80,0
188.93535,189.26173,70,80,0
189.60202,190.26173,83,100,0
189.60202,190.26173,79,100,0
189.60202,190.26173,74,100,0
189.60202,190.26173,71,100,0
190.26868,190.59508,83,80,0
190.26868,190.59508,79,80,0
190.26868,190.59508,74,80,0
190.26868,190.59508,71,80,0
190.93535,191.26173,84,80,0
190.93535,191.26173,78,80,0
190.93535,191.26173,72,80,0
191.60202,191.9284,81,80,0
191.60202,191.9284,78,80,0
191.60202,191.9284,72,80,0
192.26868,192.9284,79,105,0
192.93535,193.03952,74,80,0
193.04646,193.15062,71,80,0
193.15758,193.26173,67,80,0
193.60202,193.9284,79,80,0
193.60202,193.9284,73,80,0
193.60202,193.9284,70,80,0
193.60202,193.9284,67,80,0
194.26868,194.59506,77,80,0
194.26868,194.59506,73,80,0
194.26868,194.59506,70,80,0
194.26868,194.59506,67,80,0
194.93535,195.26173,76,80,0
194.93535,195.26173,73,80,0
194.93535,195.26173,70,80,0
194.93535,195.26173,67,80,0
195.602,195.9284,76,80,0
195.602,195.9284,72,80,0
195.602,195.9284,70,80,0
195.602,195.9284,67,80,0
196.26868,196.59506,84,80,0
196.26868,196.59506,77,80,0
196.26868,196.59506,72,80,0
196.93535,197.26173,82,80,0
196.93535,197.26173,76,80,0
196.93535,197.26173,72,80,0
196.93535,197.26173,70,80,0
197.602,197.9284,81,80,0
197.602,197.9284,77,80,0
197.602,197.9284,72,80,0
197.602,197.9284,69,80,0
198.26868,198.59506,81,80,0
198.26868,198.59506,77,80,0
198.26868,198.59506,73,80,0
198.26868,198.59506,69,80,0
198.93535,199.26173,81,82,0
198.93535,199.26173,77,82,0
198.93535,199.26173,74,82,0
198.93535,199.26173,69,82,0
199.602,199.92839,79,86,0
199.602,199.92839,76,86,0
199.602,199.92839,73,86,0
199.602,199.92839,70,86,0
199.602,199.92839,67,86,0
200.26868,200.59506,77,91,0
200.26868,200.59506,74,91,0
200.26868,200.59506,69,91,0
200.26868,200.59506,65,91,0
200.93533,201.26173,76,96,0
200.93533,201.26173,73,96,0
200.93533,201.26173,70,96,0
200.93533,201.26173,67,96,0
200.93533,201.26173,64,96,0
201.602,201.92839,74,100,0
201.602,201.92839,69,100,0
201.602,201.92839,65,100,0
201.602,201.92839,62,100,0
202.26868,202.59506,72,105,0
202.26868,202.59506,69,105,0
202.26868,202.59506,66,105,0
202.26868,202.59506,63,105,0
202.26868,202.59506,60,105,0
202.93533,203.92839,71,109,0
202.93533,203.92839,67,109,0
202.93533,203.92839,62,109,0
202.93533,203.92839,59,109,0
204.26868,204.59506,72,80,0
204.26868,204.59506,67,80,0
204.26868,204.59506,64,80,0
204.93533,205.26172,71,80,0
204.93533,205.26172,67,80,0
204.93533,205.26172,65,80,0
205.602,205.92839,72,80,0
205.602,205.92839,67,80,0
205.602,205.92839,64,80,0
206.26866,206.59506,74,80,0
206.26866,206.59506,67,80,0
206.26866,206.59506,65,80,0
206.93533,207.26172,76,80,0
206.93533,207.26172,72,80,0
206.93533,207.26172,67,80,0
207.602,207.92839,77,80,0
207.602,207.92839,72,80,0
207.602,207.92839,65,80,0
208.26866,208.59505,74,80,0
208.26866,208.59505,72,80,0
208.26866,208.59505,65,80,0
208.93533,209.26172,74,80,0
208.93533,209.26172,71,80,0
208.93533,209.26172,65,80,0
209.602,209.92839,79,84,0
209.602,209.92839,74,84,0
209.602,209.92839,71,84,0
209.602,209.92839,67,84,0
210.26866,210.59505,79,92,0
210.26866,210.59505,73,92,0
210.26866,210.59505,70,92,0
210.26866,210.59505,67,92,0
210.93533,211.26172,79,101,0
210.93533,211.26172,70,101,0
210.93533,211.26172,67,101,0
210.93533,211.26172,73,101,0
211.60199,211.92839,77,109,0
211.60199,211.92839,74,109,0
211.60199,211.92839,69,109,0
211.60199,211.92839,65,109,0
212.26866,212.62257,76,98,0
212.26866,212.62257,72,98,0
212.26866,212.62257,67,98,0
212.26866,212.62257,64,98,0
212.99155,213.34547,67,93,0
212.99155,213.34547,65,93,0
212.99155,213.34547,74,93,0
213.71445,214.42981,72,103,0
214.43733,214.5503,67,82,0
214.55782,214.67076,64,81,0
214.6783,214.79124,60,81,0
215.16023,215.48662,59,80,0
215.16023,215.48662,53,80,0
215.16023,215.48662,50,80,0
215.82689,216.15327,60,80,0
215.82689,216.15327,55,80,0
215.82689,216.15327,52,80,0
216.49356,216.81995,61,80,0
216.49356,216.81995,55,80,0
216.49356,216.81995,52,80,0
217.16022,217.48662,62,80,0
217.16022,217.48662,57,80,0
217.16022,217.48662,53,80,0
217.82689,218.15327,63,80,0
217.82689,218.15327,57,80,0
217.82689,218.15327,54,80,0
218.49356,218.81995,64,80,0
218.49356,218.81995,59,80,0
218.49356,218.81995,55,80,0
219.16022,219.48662,65,100,0
219.16022,219.48662,59,100,0
219.16022,219.48662,55,100,0
219.49356,219.81995,65,100,0
219.49356,219.81995,59,100,0
219.49356,219.81995,55,100,0
219.82689,220.15327,59,100,0
219.82689,220.15327,55,100,0
219.82689,220.15327,65,100,0
220.49356,220.81995,65,98,0
220.49356,220.81995,59,98,0
220.49356,220.81995,55,98,0
221.16022,221.4866,64,92,0
221.16022,221.4866,60,92,0
221.16022,221.4866,55,92,0
221.82689,222.15327,62,86,0
221.82689,222.15327,60,86,0
221.82689,222.15327,53,86,0
222.49355,222.81995,65,81,0
222.49355,222.81995,60,81,0
222.49355,222.81995,57,81,0
223.16022,223.4866,64,80,0
223.16022,223.4866,60,80,0
223.16022,223.4866,55,80,0
223.82689,224.15327,62,80,0
223.82689,224.15327,59,80,0
223.82689,224.15327,53,80,0
224.49355,224.81993,60,80,0
224.82689,225.15327,67,80,0
225.16022,225.5274,67,80,0
225.91022,226.2366,79,80,0
225.91022,226.2366,73,80,0
225.91022,226.2366,70,80,0
225.91022,226.2366,67,80,0
226.57689,226.90327,77,80,0
226.57689,226.90327,73,80,0
226.57689,226.90327,70,80,0
226.57689,226.90327,67,80,0
227.24355,227.56993,76,80,0
227.24355,227.56993,73,80,0
227.24355,227.56993,70,80,0
227.24355,227.56993,67,80,0
227.91022,228.2366,76,80,0
227.91022,228.2366,72,80,0
227.91022,228.2366,70,80,0
227.91022,228.2366,67,80,0
228.57687,228.90327,84,80,0
228.57687,228.90327,77,80,0
228.57687,228.90327,72,80,0
229.24355,229.56993,82,80,0
229.24355,229.56993,76,80,0
229.24355,229.56993,72,80,0
229.24355,229.56993,70,80,0
229.91022,230.2366,81,80,0
229.91022,230.2366,77,80,0
229.91022,230.2366,72,80,0
229.91022,230.2366,69,80,0
230.57687,230.90326,81,80,0
230.57687,230.90326,77,80,0
230.57687,230.90326,73,80,0
230.57687,230.90326,69,80,0
231.24355,231.56993,81,81,0
231.24355,231.56993,77,81,0
231.24355,231.56993,74,81,0
231.24355,231.56993,69,81,0
231.91022,232.2366,79,84,0
231.91022,232.2366,76,84,0
231.91022,232.2366,73,84,0
231.91022,232.2366,70,84,0
231.91022,232.2366,67,84,0
232.57687,232.90326,77,87,0
232.57687,232.90326,74,87,0
232.57687,232.90326,69,87,0
232.57687,232.90326,65,87,0
233.24355,233.56993,76,90,0
233.24355,233.56993,73,90,0
233.24355,233.56993,70,90,0
233.24355,233.56993,67,90,0
233.24355,233.56993,64,90,0
233.9102,234.2366,74,93,0
233.9102,234.2366,69,93,0
233.9102,234.2366,65,93,0
233.9102,234.2366,62,93,0
234.57687,234.90326,72,96,0
234.57687,234.90326,69,96,0
234.57687,234.90326,66,96,0
234.57687,234.90326,63,96,0
234.57687,234.90326,60,96,0
235.24355,236.23659,71,99,0
235.24355,236.23659,67,99,0
235.24355,236.23659,62,99,0
235.24355,236.23659,59,99,0
236.57687,236.90326,72,80,0
236.57687,236.90326,67,80,0
236.57687,236.90326,64,80,0
237.24355,237.56993,71,80,0
237.24355,237.56993,67,80,0
237.24355,237.56993,65,80,0
237.9102,238.23659,72,80,0
237.9102,238.23659,67,80,0
237.9102,238.23659,64,80,0
238.57687,238.90326,74,80,0
238.57687,238.90326,67,80,0
238.57687,238.90326,65,80,0
239.24353,239.56993,76,80,0
239.24353,239.56993,72,80,0
239.24353,239.56993,67,80,0
239.9102,240.23659,77,80,0
239.9102,240.23659,72,80,0
239.9102,240.23659,65,80,0
240.57687,240.90326,74,80,0
240.57687,240.90326,72,80,0
240.57687,240.90326,65,80,0
241.24353,241.56992,74,80,0
241.24353,241.56992,71,80,0
241.24353,241.56992,65,80,0
241.9102,242.23659,79,84,0
241.9102,242.23659,74,84,0
241.9102,242.23659,71,84,0
241.9102,242.23659,67,84,0
242.57686,242.90326,79,92,0
242.57686,242.90326,73,92,0
242.57686,242.90326,70,92,0
242.57686,242.90326,67,92,0
243.24353,243.56992,79,101,0
243.24353,243.56992,70,101,0
243.24353,243.56992,67,101,0
243.24353,243.56992,73,101,0
243.9102,244.23659,77,109,0
243.9102,244.23659,74,109,0
243.9102,244.23659,69,109,0
243.9102,244.23659,65,109,0
244.57686,244.90326,76,98,0
244.57686,244.90326,72,98,0
244.57686,244.90326,67,98,0
244.57686,244.90326,64,98,0
245.24353,245.56992,67,93,0
245.24353,245.56992,65,93,0
245.24353,245.56992,74,93,0
245.9102,246.56992,72,104,0
246.57686,246.69405,67,82,0
246.70186,246.81905,64,81,0
246.82686,246.94405,60,81,0
247.32686,247.65324,59,80,0
247.32686,247.65324,53,80,0
247.32686,247.65324,50,80,0
247.99353,248.31992,60,80,0
247.99353,248.31992,55,80,0
247.99353,248.31992,52,80,0
248.66019,248.98659,61,80,0
248.66019,248.98659,55,80,0
248.66019,248.98659,52,80,0
249.32686,249.65324,62,80,0
249.32686,249.65324,57,80,0
249.32686,249.65324,53,80,0
249.99353,250.31992,63,80,0
249.99353,250.31992,57,80,0
249.99353,250.31992,54,80,0
250.66019,250.98659,64,80,0
250.66019,250.98659,59,80,0
250.66019,250.98659,55,80,0
251.32686,251.65324,65,100,0
251.32686,251.65324,59,100,0
251.32686,251.65324,55,100,0
251.66019,251.98657,65,100,0
251.66019,251.98657,59,100,0
251.66019,251.98657,55,100,0
251.99353,252.31992,59,100,0
251.99353,252.31992,55,100,0
251.99353,252.31992,65,100,0
252.66019,252.98657,65,98,0
252.66019,252.98657,59,98,0
252.66019,252.98657,55,98,0
253.32686,253.65324,64,92,0
253.32686,253.65324,60,92,0
253.32686,253.65324,55,92,0
253.99352,254.31992,62,86,0
253.99352,254.31992,60,86,0
253.99352,254.31992,53,86,0
254.66019,254.98657,65,81,0
254.66019,254.98657,60,81,0
254.66019,254.98657,57,81,0
255.32686,255.65324,64,80,0
255.32686,255.65324,60,80,0
255.32686,255.65324,55,80,0
255.99352,256.31992,62,80,0
255.99352,256.31992,59,80,0
255.99352,256.31992,53,80,0
256.6602,256.98657,60,80,0
256.99353,257.36072,72,80,0
257.36853,257.73572,72,80,0
258.11853,258.44492,72,80,0
258.11853,258.44492,65,80,0
258.11853,258.44492,62,80,0
258.7852,259.11157,71,80,0
258.7852,259.11157,65,80,0
258.7852,259.11157,62,80,0
259.45184,259.77823,68,80,0
259.45184,259.77823,65,80,0
259.45184,259.77823,62,80,0
260.11853,260.44492,67,80,0
260.11853,260.44492,65,80,0
260.11853,260.44492,62,80,0
260.7852,261.11157,77,80,0
260.7852,261.11157,74,80,0
260.7852,261.11157,72,80,0
261.45184,261.77823,77,80,0
261.45184,261.77823,74,80,0
261.45184,261.77823,71,80,0
262.1185,262.44492,77,80,0
262.1185,262.44492,74,80,0
262.1185,262.44492,68,80,0
262.7852,263.11157,77,80,0
262.7852,263.11157,74,80,0
262.7852,263.11157,67,80,0
263.45184,263.77823,80,78,0
263.45184,263.77823,74,78,0
263.45184,263.77823,71,78,0
264.1185,264.44492,79,74,0
264.1185,264.44492,74,74,0
264.1185,264.44492,71,74,0
264.7852,265.11157,78,70,0
264.7852,265.11157,74,70,0
264.7852,265.11157,71,70,0
265.45184,265.77823,77,66,0
265.45184,265.77823,74,66,0
265.45184,265.77823,71,66,0
266.13,266.46765,77,65,0
266.13,266.46765,70,65,0
266.13,266.46765,74,65,0
266.83627,267.1902,77,65,0
266.83627,267.1902,74,65,0
266.83627,267.1902,69,65,0
267.57272,267.9399,77,65,0
267.57272,267.9399,74,65,0
267.57272,267.9399,68,65,0
268.34772,268.73938,77,65,0
268.34772,268.73938,74,65,0
268.34772,268.73938,67,65,0
268.92014,269.08536,64,80,0
269.09256,269.2523,72,80,0
269.25922,269.41895,67,80,0
269.58545,269.73837,65,80,0
269.74503,269.89795,71,80,0
269.9046,270.05753,67,80,0
270.22375,270.37668,66,80,0
270.38333,270.53625,72,80,0
270.5429,270.69583,67,80,0
270.86206,271.01498,67,80,0
271.02164,271.17456,74,80,0
271.1812,271.33414,67,80,0
271.50034,271.6533,67,80,0
271.6599,271.81284,76,80,0
271.8195,271.9724,72,80,0
272.13864,272.29156,69,80,0
272.29822,272.45114,77,80,0
272.4578,272.61072,74,80,0
272.77695,272.92987,67,80,0
272.93652,273.08945,74,80,0
273.0961,273.24902,71,80,0
273.25568,273.4086,74,80,0
273.41525,273.56818,71,80,0
273.57483,273.72775,74,80,0
273.73438,273.88733,71,80,0
274.05353,274.20645,67,80,0
274.2131,274.36603,79,80,0
274.37268,274.5256,72,80,0
274.69183,274.84476,67,80,0
274.8514,275.00433,79,80,0
275.011,275.1639,77,80,0
275.33014,275.48306,67,80,0
275.48972,275.64264,79,80,0
275.6493,275.80222,76,80,0
275.9684,276.12137,68,80,0
276.128,276.2809,80,80,0
276.28757,276.4405,74,80,0
276.60672,276.75964,69,80,0
276.7663,276.91922,81,80,0
276.92587,277.0788,72,80,0
277.24503,277.39795,69,80,0
277.4046,277.55753,81,80,0
277.56418,277.7171,77,80,0
277.72375,277.87668,74,80,0
277.88333,278.03625,71,80,0
278.0429,278.19583,77,80,0
278.20245,278.3554,74,80,0
278.36203,278.51495,71,80,0
278.5216,278.67453,67,80,0
278.68118,278.8341,65,80,0
278.84076,278.99368,62,80,0
279.1599,279.31284,64,80,0
279.3195,279.4724,72,81,0
279.47906,279.632,67,82,0
279.79822,279.95114,65,84,0
279.9578,280.11072,71,85,0
280.11737,280.2703,67,86,0
280.4365,280.58945,66,88,0
280.59607,280.749,72,89,0
280.75565,280.90857,67,90,0
281.0748,281.22772,62,92,0
281.23438,281.3873,74,93,0
281.39395,281.54688,67,94,0
281.7131,281.86603,64,95,0
281.87268,282.0256,76,95,0
282.03226,282.18518,67,95,0
282.3514,282.50433,66,95,0
282.511,282.6639,78,95,0
282.67053,282.8235,72,95,0
282.9897,283.1426,74,110,0
283.14926,283.3022,79,110,0
283.30884,283.46176,78,110,0
283.4684,283.62134,79,95,0
283.628,283.7809,74,95,0
283.78757,283.9405,71,95,0
283.94714,284.10007,67,95,0
284.2663,284.41922,76,95,0
284.42587,284.5788,81,96,0
284.58545,284.73837,79,97,0
284.90457,285.05753,76,99,0
285.06415,285.21707,82,100,0
285.22372,285.37665,79,101,0
285.54288,285.6958,79,103,0
285.70245,285.85538,83,104,0
285.86203,286.01495,82,105,0
286.0216,286.17453,83,106,0
286.18118,286.3341,79,107,0
286.34076,286.49368,74,108,0
286.50034,286.65326,71,109,0
286.6599,286.81284,74,80,0
286.8195,286.9724,72,80,0
286.97906,287.132,76,80,0
287.13864,287.29156,72,80,0
287.2982,287.4511,71,80,0
287.45776,287.6107,69,80,0
287.61734,287.77026,67,80,0
287.77692,287.92984,66,80,0
287.9365,288.08942,67,80,0
288.09607,288.249,69,80,0
288.25565,288.40857,71,80,0
288.41522,288.56815,72,80,0
288.5748,288.73453,74,80,0
288.74146,288.90118,76,80,0
288.90814,289.07724,77,80,0
289.0846,289.25372,78,80,0
289.43753,289.59045,67,80,0
289.5971,289.75003,79,80,0
289.75668,289.9096,72,80,0
290.07584,290.22876,67,80,0
290.2354,290.38834,77,80,0
290.395,290.5479,71,80,0
290.71414,290.86707,67,80,0
290.87372,291.02664,76,80,0
291.0333,291.18622,72,80,0
291.35242,291.50534,67,80,0
291.512,291.66492,76,80,0
291.67157,291.8245,72,80,0
291.99072,292.14365,72,80,0
292.1503,292.30322,84,80,0
292.30988,292.4628,77,80,0
292.62903,292.78195,72,80,0
292.7886,292.94153,82,80,0
292.94818,293.1011,76,80,0
293.26733,293.42026,72,80,0
293.4269,293.57983,81,80,0
293.58646,293.73938,77,80,0
293.74603,293.89896,81,80,0
293.9056,294.05853,77,80,0
294.0652,294.2181,81,80,0
294.22476,294.3777,77,80,0
294.5439,294.69684,69,80,0
294.7035,294.8564,81,81,0
294.86307,295.016,72,82,0
295.18222,295.33514,69,84,0
295.3418,295.49472,79,85,0
295.50137,295.6543,73,86,0
295.8205,295.97342,69,88,0
295.98007,296.133,77,89,0
296.13965,296.29257,74,90,0
296.4588,296.61172,67,92,0
296.61838,296.7713,76,93,0
296.77795,296.93088,73,94,0
297.0971,297.25003,65,96,0
297.25668,297.4096,74,97,0
297.41626,297.56918,69,98,0
297.7354,297.88834,63,100,0
297.895,298.0479,72,101,0
298.05453,298.2075,69,102,0
298.3737,298.5266,62,104,0
298.53326,298.6862,72,105,0
298.69284,298.84576,67,106,0
298.85242,299.00534,71,107,0
299.012,299.16492,67,108,0
299.17157,299.3245,62,108,0
299.33115,299.48407,67,109,0
299.6503,299.80322,60,80,0
299.80988,299.9628,72,80,0
299.96945,300.12238,67,80,0
300.28857,300.44153,65,80,0
300.44815,300.60107,71,80,0
300.60773,300.76065,67,80,0
300.92688,301.0798,64,80,0
301.08646,301.23938,72,80,0
301.24603,301.39896,67,80,0
301.5652,301.7181,62,80,0
301.72476,301.8777,74,80,0
301.88434,302.03726,67,80,0
302.2035,302.3564,67,80,0
302.36307,302.516,76,80,0
302.5226,302.67557,72,80,0
302.84177,302.9947,69,80,0
303.00134,303.15427,77,80,0
303.16092,303.31384,74,80,0
303.48007,303.633,67,80,0
303.63965,303.79257,74,80,0
303.79922,303.95215,71,80,0
303.9588,304.11172,74,80,0
304.11838,304.2713,71,80,0
304.27795,304.43088,74,80,0
304.43753,304.59045,71,80,0
304.75665,304.9096,67,81,0
304.91623,305.06915,79,82,0
305.0758,305.22873,72,83,0
305.39496,305.54788,70,86,0
305.55453,305.70746,79,87,0
305.7141,305.86703,73,89,0
306.03326,306.1862,69,91,0
306.19284,306.34576,79,93,0
306.35242,306.50534,73,94,0
306.67157,306.8245,69,96,0
306.83115,306.98407,77,98,0
306.9907,307.14365,74,99,0
307.30984,307.46277,67,102,0
307.46942,307.62234,76,103,0
307.629,307.78192,72,104,0
307.94815,308.10107,65,107,0
308.10773,308.26065,74,108,0
308.2673,308.42023,71,109,0
308.58646,308.73938,64,98,0
308.74603,308.89896,72,95,0
308.9056,309.05853,67,92,0
309.0652,309.2181,65,89,0
309.22473,309.3777,64,86,0
309.3843,309.53723,62,83,0
309.54388,309.6968,60,81,0
309.86304,310.01596,50,80,0
310.0226,310.17554,59,80,0
310.1822,310.3351,53,80,0
310.50134,310.65427,52,80,0
310.66092,310.81384,60,80,0
310.8205,310.97342,55,80,0
311.13965,311.29257,52,80,0
311.29922,311.45215,61,80,0
311.45877,311.61172,55,80,0
311.77792,311.93085,53,80,0
311.9375,312.09042,62,80,0
312.09708,312.25,57,80,0
312.41623,312.56915,54,80,0
312.5758,312.72873,63,80,0
312.73538,312.8883,57,80,0
313.05453,313.20746,55,80,0
313.2141,313.36703,64,80,0
313.3737,313.5266,59,80,0
313.6928,313.84576,55,100,0
313.8524,314.0053,65,100,0
314.01196,314.1649,59,100,0
314.17154,314.32446,65,100,0
314.33112,314.48404,59,100,0
314.4907,314.64362,65,100,0
314.65027,314.8032,59,100,0
314.96942,315.12234,55,99,0
315.129,315.28192,65,98,0
315.28857,315.4415,59,97,0
315.60773,315.76065,55,94,0
315.7673,315.92023,64,93,0
315.92685,316.0798,60,91,0
316.246,316.39893,53,89,0
316.40558,316.5585,62,87,0
316.56516,316.71808,60,86,0
316.8843,317.03723,57,83,0
317.04388,317.1968,65,82,0
317.20346,317.35638,60,81,0
317.5226,317.67554,55,80,0
317.6822,317.8351,64,80,0
317.84177,317.9947,60,80,0
318.16092,318.31384,53,80,0
318.32047,318.4734,62,80,0
318.48004,318.63297,59,80,0
318.7992,318.95212,60,80,0
318.95877,319.1117,62,80,0
319.11835,319.27127,64,80,0
319.27792,319.43085,65,80,0
319.4375,319.59042,67,80,0
319.59708,319.7568,69,80,0
319.76373,319.92346,71,80,0
319.93042,320.2497,72,80,0
319.93042,320.2497,67,80,0
320.58258,320.9019,71,80,0
320.58258,320.9019,67,80,0
321.23474,321.55405,72,80,0
321.23474,321.55405,67,80,0
321.88693,322.2062,74,80,0
321.88693,322.2062,67,80,0
322.5391,322.8584,76,80,0
322.5391,322.8584,67,80,0
323.19128,323.541,77,80,0
323.19128,323.541,69,80,0
323.90555,324.25525,74,80,0
323.90555,324.25525,67,80,0
325.33414,325.70132,79,70,0
326.08414,326.45132,79,70,0
326.08414,326.45132,77,70,0
326.83414,327.20132,79,70,0
326.83414,327.20132,76,70,0
327.58414,327.95132,80,70,0
327.58414,327.95132,74,70,0
328.33414,328.70132,81,70,0
328.33414,328.70132,72,70,0
329.83414,330.20132,65,70,0
329.83414,330.20132,62,70,0
329.83414,330.20132,57,70,0
331.33414,331.70132,76,70,0
331.33414,331.70132,72,70,0
331.33414,331.70132,67,70,0
332.83414,333.42163,62,70,0
332.83414,333.42163,59,70,0
332.83414,333.42163,53,70,0
335.23413,337.6216,84,120,0
335.23413,337.6216,79,120,0
335.23413,337.6216,76,120,0
335.23413,337.6216,72,120,0
341.23413,341.82162,72,1,0
0.666666,0.99305457,48,80,0
1.333332,1.6597205,50,80,0
1.999998,2.3263865,52,80,0
2.666664,2.9930525,47,80,0
3.33333,3.6597185,48,80,0
3.999996,4.3263845,41,80,0
4.666662,5.3263836,43,80,0
5.333328,5.826383,55,80,0
5.8333273,5.9930496,53,80,0
5.999994,6.345582,52,80,0
6.705876,7.0322647,50,80,0
7.372542,7.6989307,48,80,0
8.039208,8.365597,47,80,0
8.705874,9.051462,45,80,0
9.411756,9.757344,41,80,0
10.117638,11.444026,43,80,0
11.45097,11.796558,48,80,0
12.156852,12.48324,50,80,0
12.823518,13.149906,52,80,0
13.490184,13.816572,47,80,0
14.15685,14.483238,48,80,0
14.823516,15.149904,50,80,0
14.823516,15.149904,45,80,0
15.490182,16.81657,50,80,0
15.490182,16.81657,47,80,0
16.823515,17.149902,55,80,0
16.823515,17.149902,48,80,0
17.49018,17.816568,55,80,0
17.49018,17.816568,49,80,0
18.156845,19.483234,55,80,0
18.156845,19.483234,50,80,0
19.490177,19.816566,57,80,0
19.490177,19.816566,50,80,0
20.156843,20.483232,60,80,0
20.156843,20.483232,50,80,0
20.82351,21.483232,55,80,0
20.82351,21.483232,59,80,0
22.156841,22.816563,67,80,0
22.156841,22.816563,64,80,0
22.823507,23.483229,67,80,0
22.823507,23.483229,62,80,0
23.490173,24.149895,67,80,0
23.490173,24.149895,60,80,0
24.15684,24.81656,67,80,0
24.15684,24.81656,58,80,0
24.823505,25.483227,65,80,0
24.823505,25.483227,57,80,0
25.490171,26.149893,64,80,0
25.490171,26.149893,55,80,0
26.156837,27.483225,65,80,0
26.156837,27.483225,53,80,0
27.49017,28.14989,60,80,0
27.49017,28.14989,53,80,0
28.156836,28.816557,60,80,0
28.156836,28.816557,52,80,0
28.823502,29.483223,62,80,0
28.823502,29.483223,50,80,0
29.490168,30.149889,52,80,0
30.156834,30.816555,53,80,0
30.8235,31.483221,54,80,0
31.490166,32.149887,55,80,0
32.156834,32.649887,67,80,0
32.65683,32.816555,65,80,0
32.823498,33.149887,64,80,0
33.490166,33.81655,62,80,0
34.15683,34.48322,60,80,0
34.823498,35.149883,59,80,0
34.823498,35.149883,55,80,0
34.823498,35.149883,47,80,0
34.823498,35.149883,50,80,0
35.49016,35.81655,60,80,0
35.49016,35.81655,55,80,0
35.49016,35.81655,52,80,0
35.49016,35.81655,48,80,0
36.15683,36.483215,53,80,0
36.15683,36.483215,50,80,0
36.15683,36.483215,45,80,0
36.15683,36.483215,41,80,0
36.823494,37.149883,55,80,0
36.823494,37.149883,50,80,0
36.823494,37.149883,47,80,0
36.823494,37.149883,43,80,0
37.823494,38.149883,59,100,0
37.823494,38.149883,53,100,0
38.156826,38.816547,60,100,0
38.156826,38.816547,52,100,0
38.82349,39.483215,52,100,0
38.82349,40.14988,61,100,0
39.490158,40.816547,53,100,0
40.156822,40.816547,62,100,0
40.82349,41.14988,55,80,0
41.490154,41.816544,43,80,0
42.156822,42.48321,48,80,0
43.490154,43.816544,43,80,0
44.15682,44.483208,36,100,0
44.823486,45.149876,45,80,0
45.49015,45.81654,38,100,0
46.15682,46.483208,47,80,0
46.823483,47.14987,40,100,0
47.49015,48.816536,50,100,0
47.49015,48.816536,38,100,0
48.823483,49.483204,36,80,0
49.490147,50.149868,48,80,0
50.156815,50.816536,45,80,0
50.82348,51.4832,41,80,0
51.490147,51.816536,43,80,0
52.15681,52.4832,31,80,0
52.82348,53.149868,36,80,0
54.15681,54.816532,67,80,0
54.15681,54.816532,64,80,0
54.823475,55.483196,67,80,0
54.823475,55.483196,62,80,0
55.490143,56.149864,67,80,0
55.490143,56.149864,60,80,0
56.156807,56.81653,67,80,0
56.156807,56.81653,58,80,0
56.823475,57.483196,65,80,0
56.823475,57.483196,57,80,0
57.49014,58.14986,64,80,0
57.49014,58.14986,55,80,0
58.156807,59.483192,65,80,0
58.156807,59.483192,53,80,0
59.49014,60.14986,60,80,0
59.49014,60.14986,53,80,0
60.156803,60.816525,60,82,0
60.156803,60.816525,52,82,0
60.82347,61.483192,62,85,0
60.82347,61.483192,50,85,0
61.490135,62.149857,52,87,0
62.156803,62.816525,53,90,0
62.823467,63.48319,54,92,0
63.490135,64.14986,55,95,0
64.1568,64.64986,67,98,0
64.6568,64.81652,65,99,0
64.82346,65.14986,64,80,0
65.490135,65.81652,62,80,0
66.1568,66.483185,60,80,0
66.82346,67.14985,59,80,0
66.82346,67.14985,55,80,0
66.82346,67.14985,47,80,0
66.82346,67.14985,50,80,0
67.49013,67.81652,60,80,0
67.49013,67.81652,55,80,0
67.49013,67.81652,52,80,0
67.49013,67.81652,48,80,0
68.1568,68.483185,53,80,0
68.1568,68.483185,50,80,0
68.1568,68.483185,45,80,0
68.1568,68.483185,41,80,0
68.82346,69.14985,55,80,0
68.82346,69.14985,50,80,0
68.82346,69.14985,47,80,0
68.82346,69.14985,43,80,0
69.82346,70.14985,59,100,0
69.82346,70.14985,53,100,0
70.15679,70.81651,60,100,0
70.15679,70.81651,52,100,0
70.82346,71.483185,52,100,0
70.82346,72.14985,61,100,0
71.49013,72.81651,53,100,0
72.15679,72.81651,62,100,0
72.823456,73.14985,55,80,0
73.49013,73.81651,43,80,0
74.15679,74.48318,48,80,0
75.49012,75.81651,43,80,0
76.15679,76.48318,36,100,0
76.823456,77.14984,45,80,0
77.49012,77.816505,38,100,0
78.156784,78.48318,47,80,0
78.823456,79.14984,40,100,0
79.49012,80.816505,50,100,0
79.49012,80.816505,38,100,0
80.82345,81.48317,36,80,0
81.49011,82.14984,48,80,0
82.156784,82.816505,45,80,0
82.82345,83.48317,41,80,0
83.49011,83.82776,43,80,0
84.17977,84.52536,31,80,0
84.88565,85.23124,36,80,0
86.12094,86.29006,55,80,0
86.29742,86.99594,60,80,0
86.29742,86.99594,52,80,0
87.003296,87.66302,59,80,0
87.003296,87.66302,53,80,0
87.66996,88.32968,60,80,0
87.66996,88.32968,52,80,0
88.33663,88.99635,62,80,0
88.33663,88.99635,59,80,0
89.003296,89.66302,64,80,0
89.003296,89.66302,60,80,0
89.66996,90.32968,65,80,0
89.66996,90.32968,62,80,0
90.336624,91.66302,62,80,0
90.336624,91.66302,59,80,0
91.66996,92.32968,67,80,0
91.66996,92.32968,64,80,0
92.336624,92.996346,67,80,0
92.336624,92.996346,62,80,0
93.00329,93.66301,67,80,0
93.00329,93.66301,60,80,0
93.66996,94.32968,68,80,0
93.66996,94.32968,59,80,0
94.336624,94.996346,57,80,0
94.336624,94.996346,69,80,0
95.00329,95.66301,53,80,0
95.66995,96.996346,55,80,0
97.00329,97.66301,60,80,0
97.00329,97.66301,52,80,0
97.66995,98.32967,59,80,0
97.66995,98.32967,53,80,0
98.33662,98.99634,60,80,0
98.33662,98.99634,52,80,0
99.00329,99.66301,62,80,0
99.00329,99.66301,59,80,0
99.66995,100.32967,60,80,0
99.66995,100.32967,64,80,0
100.33662,100.99634,57,83,0
100.33662,100.99634,66,83,0
101.00328,102.32967,59,89,0
101.00328,102.32967,67,89,0
102.33662,102.99634,69,110,0
102.33662,102.99634,60,110,0
103.00328,103.663,70,110,0
103.00328,103.663,61,110,0
103.669945,104.99634,71,110,0
103.669945,104.99634,62,110,0
105.00328,105.663,72,110,0
105.00328,105.663,62,110,0
105.669945,106.329666,69,110,0
105.669945,106.329666,62,110,0
106.33661,107.74639,55,96,0
106.33661,107.74639,67,96,0
107.7542,108.4556,64,80,0
107.7542,108.4556,67,80,0
108.46254,109.12226,65,80,0
108.46254,109.12226,62,80,0
109.1292,109.788925,64,80,0
109.1292,109.788925,60,80,0
109.795876,110.4556,64,80,0
109.795876,110.4556,58,80,0
110.46254,111.12226,60,80,0
110.46254,111.12226,57,80,0
111.1292,111.788925,60,80,0
111.1292,111.788925,55,80,0
111.79587,113.12226,60,80,0
111.79587,113.12226,53,80,0
113.1292,113.788925,65,80,0
113.1292,113.788925,69,80,0
113.79587,114.45559,67,83,0
113.79587,114.45559,61,83,0
114.46253,115.12225,65,87,0
114.46253,115.12225,62,87,0
115.1292,115.788925,64,90,0
115.1292,115.788925,55,90,0
115.79587,116.45559,62,94,0
115.79587,116.45559,53,94,0
116.46253,117.12225,54,98,0
116.46253,117.12225,60,98,0
117.129196,117.78892,60,110,0
117.129196,118.45559,55,110,0
117.79586,118.45559,59,100,0
118.46253,119.20472,60,80,0
118.46253,119.20472,52,80,0
119.21253,119.87225,59,80,0
119.21253,119.87225,53,80,0
119.879196,120.53892,52,80,0
119.879196,120.53892,60,80,0
120.54586,121.20558,62,80,0
120.54586,121.20558,59,80,0
121.212524,121.872246,64,80,0
121.212524,121.872246,60,80,0
121.879196,122.53892,62,80,0
121.879196,122.53892,65,80,0
122.54586,123.20558,59,80,0
122.54586,123.20558,62,80,0
123.212524,123.872246,65,80,0
123.212524,124.53891,67,80,0
123.87919,124.53891,64,80,0
124.54586,125.20558,67,87,0
124.54586,125.20558,58,87,0
125.212524,125.872246,57,95,0
125.212524,125.872246,67,95,0
125.87919,126.53891,65,102,0
125.87919,126.53891,57,102,0
126.54585,127.205574,64,80,0
126.54585,127.205574,55,80,0
127.212524,127.872246,62,80,0
127.212524,127.872246,55,80,0
127.87919,128.53891,60,80,0
127.87919,128.53891,48,80,0
129.21252,129.87224,43,100,0
129.87918,130.20558,36,80,0
130.54585,131.20557,45,100,0
131.21252,131.53891,38,80,0
131.87918,132.53891,47,100,0
132.54585,132.87224,40,80,0
133.21251,134.53891,50,100,0
133.21251,134.53891,38,100,0
134.54585,135.20557,36,83,0
135.21251,135.87224,48,90,0
135.87918,136.5389,45,96,0
136.54585,137.20557,41,103,0
137.21251,137.87224,43,80,0
137.87918,138.5389,31,80,0
138.54584,139.20557,36,80,0
139.87918,140.5389,64,80,0
139.87918,140.5389,67,80,0
140.54584,141.20557,65,80,0
140.54584,141.20557,62,80,0
141.21251,141.87222,64,80,0
141.21251,141.87222,60,80,0
141.87918,142.5389,64,80,0
141.87918,142.5389,58,80,0
142.54584,143.20557,60,80,0
142.54584,143.20557,57,80,0
143.21251,143.87222,60,80,0
143.21251,143.87222,55,80,0
143.87917,145.20557,60,80,0
143.87917,145.20557,53,80,0
145.21251,145.87222,65,80,0
145.21251,145.87222,69,80,0
145.87917,146.5389,67,84,0
145.87917,146.5389,61,84,0
146.54584,147.20555,65,89,0
146.54584,147.20555,62,89,0
147.21251,147.87222,64,94,0
147.21251,147.87222,55,94,0
147.87917,148.5389,62,99,0
147.87917,148.5389,53,99,0
148.54584,149.20555,54,104,0
148.54584,149.20555,60,104,0
149.2125,149.87222,60,109,0
149.2125,150.56642,55,109,0
149.87917,150.56642,59,99,0
150.57394,151.26178,60,80,0
150.57394,151.26178,52,80,0
151.26872,151.92845,59,80,0
151.26872,151.92845,53,80,0
151.9354,152.59511,52,80,0
151.9354,152.59511,60,80,0
152.60205,153.26178,62,80,0
152.60205,153.26178,59,80,0
153.26872,153.92844,64,80,0
153.26872,153.92844,60,80,0
153.9354,154.59511,62,80,0
153.9354,154.59511,65,80,0
154.60205,155.26178,59,80,0
154.60205,155.26178,62,80,0
155.26872,155.92844,65,80,0
155.26872,156.59511,67,80,0
155.93538,156.59511,64,80,0
156.60205,157.26178,67,80,0
156.60205,157.26178,58,80,0
157.26872,157.92844,57,80,0
157.26872,157.92844,67,80,0
157.93538,158.59511,65,80,0
157.93538,158.59511,57,80,0
158.60205,159.26176,64,80,0
158.60205,159.26176,55,80,0
159.26872,159.92844,62,80,0
159.26872,159.92844,55,80,0
159.93538,160.59511,60,80,0
159.93538,160.59511,48,80,0
161.2687,161.92844,43,100,0
161.93538,162.26176,36,80,0
162.60205,163.26176,45,100,0
163.2687,163.5951,38,80,0
163.93538,164.5951,47,100,0
164.60204,164.92844,40,80,0
165.2687,166.5951,50,100,0
165.2687,166.5951,38,100,0
166.60204,167.26176,36,80,0
167.2687,167.92842,48,80,0
167.93538,168.5951,45,80,0
168.60204,169.26176,41,80,0
169.2687,169.92842,43,80,0
169.93536,170.5951,31,80,0
170.60204,171.26176,36,80,0
171.93536,172.26176,48,80,0
172.2687,172.5951,64,80,0
172.60204,172.92842,48,80,0
172.93536,173.26175,62,80,0
173.2687,173.5951,48,80,0
173.60204,173.92842,60,80,0
173.93536,174.26175,48,80,0
174.2687,174.5951,59,80,0
174.60204,174.92842,48,80,0
174.93536,175.26175,58,80,0
175.26869,175.5951,48,80,0
175.60204,175.92842,57,80,0
175.93536,176.26175,48,80,0
176.26869,176.5951,56,80,0
176.60204,176.92842,48,80,0
176.93536,177.26175,55,80,0
177.26869,177.5951,36,80,0
177.60204,177.92842,53,80,0
177.93536,178.26175,36,80,0
178.26869,178.59508,52,80,0
178.60204,178.92842,36,80,0
178.93536,179.26175,50,80,0
179.26869,179.59508,36,80,0
179.60204,179.92842,48,80,0
179.93536,180.26175,41,80,0
180.26869,180.59508,53,80,0
180.60202,180.92842,38,80,0
180.93536,181.26175,50,80,0
181.26869,181.59508,43,80,0
181.60202,182.59508,55,100,0
182.60202,182.92842,48,80,0
182.93536,183.26175,64,80,0
183.26869,183.59508,48,80,0
183.60202,183.9284,62,80,0
183.93536,184.26175,48,80,0
184.26869,184.59508,60,80,0
184.60202,184.9284,47,80,0
184.93535,185.26175,59,80,0
185.26869,185.59508,48,80,0
185.60202,185.9284,60,80,0
185.93535,186.26175,45,80,0
186.26869,186.59508,57,80,0
186.60202,186.9284,47,80,0
186.93535,187.59508,59,100,0
186.93535,187.59508,62,100,0
187.60202,187.9284,59,80,0
187.60202,187.9284,62,80,0
187.93535,188.26173,50,80,0
188.26869,188.59508,60,80,0
188.60202,188.9284,49,80,0
188.93535,189.26173,61,80,0
189.26869,189.59508,50,80,0
189.60202,190.26173,62,100,0
189.60202,190.26173,67,100,0
190.26868,190.59508,62,80,0
190.26868,190.59508,67,80,0
190.60202,190.9284,50,80,0
190.93535,191.26173,62,80,0
191.26868,191.59508,50,80,0
191.60202,191.9284,62,80,0
191.93535,192.59508,55,80,0
191.93535,192.59508,43,80,0
193.26868,193.59506,55,80,0
193.60202,193.9284,58,80,0
193.60202,193.9284,61,80,0
193.60202,193.9284,64,80,0
193.93535,194.26173,55,80,0
194.26868,194.59506,58,80,0
194.26868,194.59506,61,80,0
194.26868,194.59506,64,80,0
194.60202,194.9284,55,80,0
194.93535,195.26173,58,80,0
194.93535,195.26173,61,80,0
194.93535,195.26173,64,80,0
195.26868,195.59506,55,80,0
195.602,195.9284,58,80,0
195.602,195.9284,60,80,0
195.602,195.9284,64,80,0
195.93535,196.26173,57,80,0
196.26868,196.59506,60,80,0
196.26868,196.59506,65,80,0
196.602,196.9284,55,80,0
196.93535,197.26173,60,80,0
196.93535,197.26173,64,80,0
197.26868,197.59506,53,80,0
197.602,197.9284,60,80,0
197.602,197.9284,65,80,0
197.93535,198.26173,53,80,0
198.26868,198.59506,61,80,0
198.26868,198.59506,65,80,0
198.602,198.92839,53,80,0
198.93535,199.26173,62,82,0
198.93535,199.26173,65,82,0
199.26868,199.59506,53,84,0
199.602,199.92839,58,86,0
199.602,199.92839,61,86,0
199.602,199.92839,64,86,0
199.93535,200.26173,53,89,0
200.26868,200.59506,57,91,0
200.26868,200.59506,62,91,0
200.602,200.92839,41,93,0
200.93533,201.26173,55,96,0
200.93533,201.26173,58,96,0
201.26868,201.59506,41,98,0
201.602,201.92839,53,100,0
201.602,201.92839,57,100,0
201.93533,202.26173,42,103,0
202.26868,202.59506,54,105,0
202.26868,202.59506,57,105,0
202.602,202.92839,43,107,0
202.93533,203.59506,55,109,0
203.602,203.70618,53,80,0
203.71312,203.81728,52,80,0
203.82422,203.92839,50,80,0
203.93533,204.26172,48,80,0
204.26868,204.59506,60,80,0
204.602,204.92839,48,80,0
204.93533,205.26172,62,80,0
205.26866,205.59506,48,80,0
205.602,205.92839,60,80,0
205.93533,206.26172,48,80,0
206.26866,206.59506,59,80,0
206.602,206.92839,48,80,0
206.93533,207.26172,58,80,0
207.26866,207.59506,48,80,0
207.602,207.92839,57,80,0
207.93533,208.26172,48,80,0
208.26866,208.59505,56,80,0
208.602,208.92839,48,80,0
208.93533,209.26172,55,80,0
209.26866,209.59505,53,80,0
209.602,209.92839,59,84,0
209.602,209.92839,62,84,0
209.93533,210.26172,52,88,0
210.26866,210.59505,58,92,0
210.26866,210.59505,61,92,0
210.26866,210.59505,64,92,0
210.60199,210.92839,53,97,0
210.93533,211.26172,58,101,0
210.93533,211.26172,61,101,0
210.93533,211.26172,64,101,0
211.26866,211.59505,53,105,0
211.60199,211.92839,57,109,0
211.60199,211.92839,62,109,0
211.93533,212.26172,43,100,0
212.26866,212.62257,55,98,0
212.26866,212.62257,60,98,0
212.63011,212.98402,43,95,0
212.99155,213.34547,55,93,0
212.99155,213.34547,59,93,0
213.353,213.70691,48,90,0
214.79878,215.1527,43,80,0
215.49356,215.81995,36,80,0
216.16023,216.48662,45,80,0
216.82689,217.15327,38,80,0
217.49356,217.81995,47,80,0
218.16022,218.48662,40,80,0
218.82689,220.15327,50,100,0
218.82689,220.15327,38,100,0
220.16022,220.4866,36,100,0
220.82689,221.15327,48,95,0
221.49355,221.81995,45,89,0
222.16022,222.4866,41,83,0
222.82689,223.15327,43,80,0
223.49355,223.81995,31,80,0
224.16022,224.4866,36,80,0
225.53522,225.9024,55,80,0
225.91022,226.2366,58,80,0
225.91022,226.2366,61,80,0
225.91022,226.2366,64,80,0
226.24355,226.56993,55,80,0
226.57689,226.90327,58,80,0
226.57689,226.90327,61,80,0
226.57689,226.90327,64,80,0
226.91022,227.2366,55,80,0
227.24355,227.56993,58,80,0
227.24355,227.56993,61,80,0
227.24355,227.56993,64,80,0
227.57687,227.90327,55,80,0
227.91022,228.2366,58,80,0
227.91022,228.2366,60,80,0
227.91022,228.2366,64,80,0
228.24355,228.56993,57,80,0
228.57687,228.90327,60,80,0
228.57687,228.90327,65,80,0
228.91022,229.2366,55,80,0
229.24355,229.56993,60,80,0
229.24355,229.56993,64,80,0
229.57687,229.90327,53,80,0
229.91022,230.2366,60,80,0
229.91022,230.2366,65,80,0
230.24355,230.56993,53,80,0
230.57687,230.90326,61,80,0
230.57687,230.90326,65,80,0
230.91022,231.2366,53,80,0
231.24355,231.56993,62,81,0
231.24355,231.56993,65,81,0
231.57687,231.90326,53,83,0
231.91022,232.2366,58,84,0
231.91022,232.2366,61,84,0
231.91022,232.2366,64,84,0
232.24355,232.56993,53,86,0
232.57687,232.90326,57,87,0
232.57687,232.90326,62,87,0
232.9102,233.2366,41,89,0
233.24355,233.56993,55,90,0
233.24355,233.56993,58,90,0
233.57687,233.90326,41,92,0
233.9102,234.2366,53,93,0
233.9102,234.2366,57,93,0
234.24355,234.56993,42,95,0
234.57687,234.90326,54,96,0
234.57687,234.90326,57,96,0
234.9102,235.2366,43,98,0
235.24355,235.90326,55,99,0
235.9102,236.01437,53,80,0
236.02132,236.12549,52,80,0
236.13243,236.23659,50,80,0
236.24355,236.56993,48,80,0
236.57687,236.90326,60,80,0
236.9102,237.23659,48,80,0
237.24355,237.56993,62,80,0
237.57687,237.90326,48,80,0
237.9102,238.23659,60,80,0
238.24353,238.56993,48,80,0
238.57687,238.90326,59,80,0
238.9102,239.23659,48,80,0
239.24353,239.56993,58,80,0
239.57687,239.90326,48,80,0
239.9102,240.23659,57,80,0
240.24353,240.56993,48,80,0
240.57687,240.90326,56,80,0
240.9102,241.23659,48,80,0
241.24353,241.56992,55,80,0
241.57687,241.90326,53,80,0
241.9102,242.23659,59,84,0
241.9102,242.23659,62,84,0
242.24353,242.56992,52,88,0
242.57686,242.90326,58,92,0
242.57686,242.90326,61,92,0
242.57686,242.90326,64,92,0
242.9102,243.23659,53,97,0
243.24353,243.56992,58,101,0
243.24353,243.56992,61,101,0
243.24353,243.56992,64,101,0
243.57686,243.90326,53,105,0
243.9102,244.23659,57,109,0
243.9102,244.23659,62,109,0
244.24353,244.56992,43,100,0
244.57686,244.90326,55,98,0
244.57686,244.90326,60,98,0
244.9102,245.23659,43,95,0
245.24353,245.56992,55,93,0
245.24353,245.56992,59,93,0
245.57686,245.90324,48,90,0
246.95186,247.31905,43,80,0
247.6602,247.98659,36,80,0
248.32686,248.65324,45,80,0
248.99353,249.31992,38,80,0
249.66019,249.98659,47,80,0
250.32686,250.65324,40,80,0
250.99353,252.31992,50,100,0
250.99353,252.31992,38,100,0
252.32686,252.65324,36,100,0
252.99353,253.31992,48,95,0
253.66019,253.98657,45,89,0
254.32686,254.65324,41,83,0
254.99352,255.31992,43,80,0
255.66019,255.98657,31,80,0
256.32684,256.65323,36,80,0
257.74353,258.11072,43,80,0
258.45184,258.77823,55,80,0
259.11853,259.44492,55,80,0
259.7852,260.11157,55,80,0
260.45184,260.77823,43,80,0
261.11853,261.44492,55,80,0
261.7852,262.11157,55,80,0
262.45184,262.77823,55,80,0
263.1185,263.44492,43,80,0
263.7852,264.11157,55,76,0
264.45184,264.77823,55,72,0
265.1185,265.44492,55,68,0
265.7852,266.12283,55,65,0
266.47482,266.82874,55,65,0
267.19772,267.5649,55,65,0
267.94772,268.3394,55,65,0
268.7477,269.41895,60,80,0
269.42587,270.05753,62,80,0
270.06418,270.69583,64,80,0
270.70248,271.33414,59,80,0
271.3408,271.9724,60,80,0
271.97906,272.61072,53,80,0
272.61737,273.56818,55,80,0
273.57483,273.88733,53,80,0
273.89395,274.5256,52,80,0
274.53226,275.1639,50,80,0
275.17056,275.80222,48,80,0
275.80887,276.4405,47,80,0
276.44714,277.0788,45,80,0
277.08545,277.7171,41,80,0
277.72375,278.99368,43,80,0
279.00034,279.632,48,80,0
279.63864,280.2703,50,83,0
280.27695,280.90857,52,87,0
280.91522,281.54688,47,91,0
281.55353,282.18518,48,95,0
282.19183,282.8235,45,95,0
282.8301,284.10007,47,110,0
284.10672,284.73837,48,95,0
284.74503,285.37665,49,98,0
285.3833,286.65326,50,102,0
286.6599,287.29156,38,80,0
287.2982,287.92984,50,80,0
287.9365,289.25372,43,80,0
289.26108,289.9096,64,80,0
289.91626,290.5479,62,80,0
290.55457,291.18622,60,80,0
291.19284,291.8245,58,80,0
291.83115,292.4628,57,80,0
292.46945,293.1011,55,80,0
293.10776,294.3777,53,80,0
294.38434,295.016,53,80,0
295.02264,295.6543,52,83,0
295.66095,296.29257,50,87,0
296.29922,296.93088,52,91,0
296.93753,297.56918,53,95,0
297.57584,298.2075,54,99,0
298.2141,299.16492,55,103,0
299.17157,299.48407,53,108,0
299.49072,300.12238,52,80,0
300.12903,300.76065,50,80,0
300.7673,301.39896,48,80,0
301.4056,302.03726,47,80,0
302.0439,302.67557,48,80,0
302.6822,303.31384,41,80,0
303.3205,304.2713,43,80,0
304.27795,304.59045,41,80,0
304.5971,305.86703,40,80,0
305.23538,305.86703,52,85,0
305.8737,307.14365,41,90,0
306.512,307.14365,53,95,0
307.15027,308.42023,43,100,0
307.78857,308.42023,55,106,0
308.42688,309.05853,48,100,0
309.70346,310.3351,43,110,0
310.34177,310.65427,36,80,0
310.98007,311.61172,45,110,0
311.61835,311.93085,38,80,0
312.25665,312.8883,47,110,0
312.89496,313.20746,40,80,0
313.53326,314.8032,50,100,0
313.53326,314.8032,38,100,0
314.80984,315.4415,36,100,0
315.44815,316.0798,48,95,0
316.08643,316.71808,45,90,0
316.72473,317.35638,41,85,0
317.36304,317.9947,43,80,0
318.00134,318.63297,31,80,0
318.63962,318.95212,36,80,0
319.93042,320.2497,60,80,0
319.93042,320.2497,64,80,0
320.58258,320.9019,62,80,0
320.58258,320.9019,65,80,0
321.23474,321.55405,64,80,0
321.88693,322.2062,59,80,0
321.88693,322.2062,65,80,0
322.5391,322.8584,60,80,0
322.5391,322.8584,64,80,0
323.19128,323.541,53,80,0
323.19128,323.541,62,80,0
323.90555,324.25525,55,80,0
323.90555,324.25525,59,80,0
325.33414,325.70132,67,70,0
325.33414,325.70132,64,70,0
326.08414,326.45132,67,70,0
326.08414,326.45132,62,70,0
326.83414,327.20132,67,70,0
326.83414,327.20132,60,70,0
327.58414,327.95132,59,70,0
327.58414,327.95132,64,70,0
328.33414,328.70132,64,70,0
328.33414,328.70132,57,70,0
329.83414,330.20132,53,70,0
329.83414,330.20132,50,70,0
329.83414,330.20132,45,70,0
329.83414,330.20132,41,70,0
331.33414,331.70132,64,70,0
331.33414,331.70132,55,70,0
331.33414,331.70132,60,70,0
332.83414,333.42163,50,70,0
332.83414,333.42163,47,70,0
332.83414,333.42163,43,70,0
335.23413,337.6216,48,120,0
335.23413,337.6216,43,120,0
335.23413,337.6216,36,120,0
335.23413,337.6216,40,120,0
