start_time,end_time,note_value,velocity,instrument_program_number
0.0,0.115,59,80,0
0.12,0.235,60,80,0
0.24,0.475,62,80,0
0.48,0.595,64,80,0
0.6,0.715,66,80,0
0.72,0.955,67,80,0
0.96,1.075,69,80,0
1.08,1.195,71,80,0
1.2,1.435,72,80,0
1.44,1.675,73,80,0
1.68,2.155,74,80,0
2.16,2.275,76,80,0
2.28,2.395,73,80,0
2.4,2.635,74,80,0
2.88,2.995,71,80,0
3.0,3.115,72,80,0
3.12,3.355,74,80,0
3.36,3.475,76,80,0
3.48,3.595,78,80,0
3.6,3.835,79,80,0
3.84,3.955,81,80,0
3.96,4.075,83,80,0
4.08,4.315,84,80,0
4.32,4.555,85,80,0
4.56,4.615,74,100,0
4.62,5.035,86,99,0
5.04,5.155,84,87,0
5.16,5.275,81,84,0
5.28,5.515,79,81,0
5.76,5.835,62,80,0
5.84,5.915,64,80,0
5.92,5.995,66,80,0
6.0,6.075,67,80,0
6.08,6.155,69,80,0
6.16,6.235,71,80,0
6.24,6.475,72,80,0
6.9866667,7.2477775,84,80,0
7.253333,7.328333,62,80,0
7.333333,7.408333,64,80,0
7.413333,7.488333,66,80,0
7.493333,7.568333,67,80,0
7.573333,7.648333,69,80,0
7.653333,7.728333,71,80,0
7.733333,7.968333,72,80,0
8.48,8.741111,84,80,0
8.746666,8.821666,62,80,0
8.826666,8.901666,64,80,0
8.906666,8.981666,66,80,0
8.986666,9.061666,67,80,0
9.066666,9.141666,69,80,0
9.146666,9.221666,71,80,0
9.226666,9.301666,72,80,0
9.306666,9.381666,74,80,0
9.386666,9.461666,76,80,0
9.466666,9.521666,78,80,0
9.526666,9.581666,79,80,0
9.586666,9.641666,81,80,0
9.646666,9.701666,83,80,0
9.706666,9.946462,84,80,0
9.951564,10.196355,84,80,0
10.201564,10.451563,84,80,0
10.456882,10.712317,84,80,0
10.717752,10.978863,81,80,0
10.984419,11.251464,79,80,0
11.257146,12.394049,69,80,0
11.257146,12.394049,78,80,0
12.685716,12.82262,71,80,0
12.828572,12.965477,72,80,0
12.97143,13.229286,74,80,0
13.234286,13.349286,76,80,0
13.354286,13.469287,78,80,0
13.474286,13.709287,79,80,0
13.714287,13.829287,81,80,0
13.834287,13.949286,83,80,0
13.954287,14.189286,84,80,0
14.194286,14.429287,85,80,0
14.434286,14.9092865,86,80,0
14.914287,15.029286,88,80,0
15.0342865,15.149286,85,80,0
15.154286,15.389286,86,80,0
15.634287,15.749287,84,80,0
15.634287,15.869287,76,80,0
15.754287,15.869287,81,80,0
15.874287,16.109287,71,80,0
15.874287,16.109287,79,80,0
16.354286,16.469286,81,80,0
16.354286,16.589287,72,80,0
16.474287,16.589287,78,80,0
16.594286,16.829287,71,80,0
16.594286,16.829287,79,80,0
17.314287,18.029287,71,100,0
17.314287,18.029287,63,100,0
17.314287,18.029287,59,100,0
17.314287,18.029287,66,100,0
18.034286,18.109287,71,80,0
18.114286,18.189287,75,80,0
18.194286,18.269287,78,80,0
18.274286,18.349287,83,80,0
18.354286,18.429287,81,80,0
18.434286,18.509287,79,80,0
18.514286,18.589287,78,80,0
18.594286,18.669287,76,80,0
18.674286,18.749287,75,80,0
18.754286,18.83241,76,80,0
18.83762,18.915745,71,80,0
18.920954,18.999079,79,80,0
19.004286,19.085808,76,80,0
19.091244,19.172764,71,80,0
19.1782,19.259722,79,80,0
19.265156,19.350384,78,80,0
19.356066,19.441292,71,80,0
19.446974,19.532202,81,80,0
19.537884,19.804928,79,80,0
20.356064,21.071064,71,80,0
20.356064,21.071064,66,80,0
20.356064,21.071064,63,80,0
20.356064,21.071064,59,80,0
21.076063,21.151064,71,80,0
21.156063,21.231064,74,80,0
21.236065,21.311064,78,80,0
21.316065,21.391064,83,80,0
21.396065,21.471064,81,80,0
21.476065,21.551064,79,80,0
21.556065,21.631063,78,80,0
21.636065,21.711063,76,80,0
21.716064,21.791063,74,80,0
21.796064,21.87419,76,80,0
21.879396,21.957521,79,80,0
21.96273,22.040855,73,80,0
22.046064,22.127586,74,80,0
22.13302,22.214542,78,80,0
22.219976,22.301498,71,80,0
22.306934,22.39216,73,80,0
22.397842,22.48307,76,80,0
22.488752,22.573978,70,80,0
22.57966,22.846706,71,80,0
23.397842,24.11284,71,100,0
23.397842,24.11284,66,100,0
23.397842,24.11284,63,100,0
23.397842,24.11284,59,100,0
24.117842,24.19284,71,80,0
24.197842,24.272842,75,80,0
24.277842,24.352842,78,80,0
24.357841,24.432842,83,80,0
24.437841,24.512842,81,80,0
24.517841,24.592842,79,80,0
24.597841,24.672842,78,80,0
24.677841,24.752842,76,80,0
24.757841,24.832842,75,80,0
24.837841,24.915966,76,80,0
24.921175,24.9993,82,80,0
25.004509,25.082634,83,80,0
25.087841,25.169363,76,80,0
25.174797,25.256319,82,80,0
25.261755,25.343277,83,80,0
25.348711,25.433939,78,80,0
25.43962,25.524847,82,80,0
25.530529,25.615757,83,80,0
25.621437,25.856438,79,80,0
26.341438,27.056438,76,100,0
26.341438,27.056438,71,100,0
26.341438,27.056438,68,100,0
26.341438,27.056438,64,100,0
27.061438,27.136438,76,80,0
27.141438,27.216438,80,80,0
27.221437,27.296438,83,80,0
27.301437,27.376438,88,80,0
27.381437,27.456438,86,80,0
27.461437,27.536438,84,80,0
27.541437,27.617968,83,80,0
27.62307,27.6996,81,80,0
27.704702,27.781233,80,80,0
27.786335,27.866123,81,80,0
27.87144,27.95123,87,80,0
27.956549,28.036335,88,80,0
28.041655,28.124989,81,80,0
28.130543,28.213877,87,80,0
28.219433,28.302765,88,80,0
28.308321,28.397606,83,80,0
28.403559,28.492846,87,80,0
28.498796,28.588083,88,80,0
28.594034,28.873796,84,80,0
29.451178,29.730938,84,80,0
29.451178,29.730938,78,80,0
30.30832,30.588081,72,80,0
30.30832,30.588081,66,80,0
32.5026,32.617603,59,80,0
32.622604,32.737602,60,80,0
32.742603,32.977604,62,80,0
32.9826,33.097603,64,80,0
33.102604,33.2176,66,80,0
33.222603,33.457603,67,80,0
33.462605,33.577602,69,80,0
33.582603,33.6976,71,80,0
33.702602,33.937603,72,80,0
33.942604,34.177605,73,80,0
34.182602,34.657604,74,80,0
34.6626,34.777603,76,80,0
34.782604,34.897602,73,80,0
34.902603,35.137604,74,80,0
35.382603,35.497604,71,80,0
35.5026,35.617603,72,80,0
35.622604,35.8576,74,80,0
35.862602,35.977604,76,80,0
35.9826,36.097603,78,80,0
36.102604,36.337605,79,80,0
36.3426,36.457603,81,80,0
36.462605,36.577602,83,80,0
36.582603,36.817604,84,80,0
36.8226,37.057602,85,80,0
37.062603,37.117603,74,100,0
37.122604,37.5376,86,99,0
37.542603,37.657604,84,87,0
37.6626,37.777603,81,84,0
37.782604,38.017605,79,81,0
38.262604,38.337605,62,80,0
38.3426,38.417603,64,80,0
38.422604,38.497604,66,80,0
38.5026,38.577602,67,80,0
38.582603,38.657604,69,80,0
38.6626,38.737602,71,80,0
38.742603,38.977604,72,80,0
39.462605,39.6976,84,80,0
39.702602,39.777603,62,80,0
39.782604,39.8576,64,80,0
39.862602,39.937603,66,80,0
39.942604,40.017605,67,80,0
40.022602,40.097603,69,80,0
40.102604,40.177605,71,80,0
40.182602,40.417603,72,80,0
40.902603,41.137604,84,80,0
41.142605,41.2176,62,80,0
41.222603,41.297604,64,81,0
41.302605,41.3776,66,82,0
41.382603,41.457603,67,83,0
41.462605,41.5376,69,84,0
41.542603,41.617603,71,85,0
41.622604,41.6976,72,86,0
41.702602,41.777603,74,87,0
41.782604,41.8576,76,88,0
41.862602,41.917603,78,89,0
41.922604,41.977604,79,90,0
41.9826,42.0376,81,90,0
42.042603,42.097603,83,91,0
42.102604,42.3424,84,92,0
42.3475,42.592293,84,95,0
42.5975,42.8475,84,98,0
42.85282,43.108253,84,101,0
43.11369,43.3748,81,104,0
43.380356,43.6474,79,107,0
43.653084,45.057495,69,120,0
43.653084,45.057495,78,120,0
45.417786,45.54847,71,80,0
45.55415,45.684834,72,80,0
45.690514,45.94188,74,80,0
45.946877,46.06188,76,80,0
46.06688,46.181877,78,80,0
46.18688,46.42188,79,80,0
46.42688,46.541878,81,80,0
46.54688,46.661877,83,80,0
46.666878,46.90188,84,80,0
46.90688,47.141876,85,80,0
47.146877,47.62188,86,80,0
47.626877,47.74188,88,80,0
47.74688,47.861877,85,80,0
47.86688,48.10188,86,80,0
48.346878,48.46188,84,80,0
48.346878,48.58188,76,80,0
48.466877,48.58188,81,80,0
48.58688,48.821877,71,80,0
48.58688,48.821877,79,80,0
49.06688,49.19188,81,80,0
49.06688,49.32231,72,80,0
49.19731,49.32231,78,80,0
49.327747,49.583183,71,80,0
49.327747,49.583183,79,80,0
50.569485,50.804485,67,80,0
50.569485,50.804485,62,80,0
50.569485,50.804485,59,80,0
50.809486,51.044487,79,80,0
50.809486,51.044487,74,80,0
50.809486,51.044487,71,80,0
52.009487,52.244488,67,80,0
52.009487,52.244488,62,80,0
52.009487,52.244488,59,80,0
52.249485,52.484486,79,80,0
52.249485,52.484486,74,80,0
52.249485,52.484486,71,80,0
53.209488,53.284485,55,87,0
53.289486,53.364487,57,88,0
53.369488,53.444485,59,89,0
53.449486,53.524487,60,91,0
53.529488,53.60449,62,92,0
53.609486,53.684486,64,93,0
53.689487,53.924488,65,94,0
54.169487,54.244488,67,102,0
54.249485,54.324486,69,103,0
54.329487,54.404488,71,104,0
54.409485,54.49101,72,106,0
54.496445,54.577965,74,107,0
54.5834,54.66492,76,108,0
54.670357,55.295357,77,109,0
55.301933,56.294987,75,94,0
56.301933,57.040268,76,80,0
57.045265,57.520267,77,80,0
57.525265,57.640266,79,80,0
57.585266,57.700268,77,80,0
57.645267,57.760265,76,80,0
57.705265,57.760265,77,80,0
57.765266,58.000267,78,80,0
58.00527,58.240265,79,80,0
58.245266,58.480267,79,80,0
58.485268,58.960266,79,80,0
58.965267,59.200268,76,80,0
59.205265,59.920265,73,80,0
59.925266,60.160267,74,80,0
60.165268,60.220264,76,80,0
60.225266,60.280266,74,80,0
60.285267,60.400265,73,80,0
60.405266,60.520267,74,80,0
60.525265,60.640266,76,80,0
60.645267,60.88027,77,80,0
60.885265,61.120266,71,80,0
61.125267,61.360268,71,80,0
61.365265,61.840267,72,80,0
62.085266,62.800266,76,80,0
62.805267,63.280266,77,80,0
63.285267,63.400265,79,80,0
63.345264,63.460266,77,80,0
63.405266,63.520267,76,80,0
63.465267,63.520267,77,80,0
63.525265,63.760265,78,80,0
63.765266,64.00027,79,80,0
64.005264,64.240265,79,80,0
64.24527,64.72027,79,80,0
64.725266,64.960266,76,80,0
64.96526,65.68027,73,80,0
65.685265,65.920265,74,80,0
65.92526,65.98026,76,80,0
65.98527,66.04027,74,80,0
66.045265,66.16026,73,80,0
66.16527,66.280266,74,80,0
66.28526,66.40027,76,80,0
66.405266,66.64027,77,80,0
66.64526,66.880264,71,80,0
66.88527,67.12027,71,80,0
67.12527,67.600266,72,80,0
67.60526,67.84026,55,80,0
67.84527,68.32027,65,80,0
67.84527,68.32027,55,80,0
68.325264,68.560265,64,100,0
68.325264,69.04027,55,100,0
68.56527,69.04027,62,80,0
69.045265,69.280266,64,100,0
69.045265,69.76027,55,100,0
69.28526,69.76027,62,80,0
69.76527,70.00027,64,100,0
69.76527,70.12027,55,100,0
70.005264,70.12027,62,80,0
70.12527,70.240265,61,80,0
70.24527,70.36027,62,80,0
70.365265,70.48026,64,80,0
70.48527,70.600266,65,80,0
70.60526,70.72027,66,80,0
70.725266,71.200264,67,80,0
70.725266,71.200264,64,80,0
71.20527,71.44027,65,80,0
71.20527,71.44027,62,80,0
71.44527,71.920265,64,80,0
71.44527,71.920265,60,80,0
71.92526,72.16026,64,80,0
71.92526,72.16026,60,80,0
72.16527,72.40027,69,80,0
72.16527,72.40027,60,80,0
72.405266,72.64027,69,80,0
72.405266,72.64027,60,80,0
72.64526,72.880264,69,80,0
72.64526,72.880264,60,80,0
72.88527,73.36027,62,80,0
72.88527,73.36027,59,80,0
73.725266,73.84026,55,80,0
73.84527,73.960266,57,80,0
73.96526,74.08027,59,80,0
74.085266,74.200264,60,80,0
74.20527,74.32027,54,80,0
74.44527,74.560265,55,80,0
74.56527,74.68027,57,80,0
74.685265,74.80026,59,80,0
74.80527,74.920265,60,80,0
74.92526,75.04027,54,80,0
75.16527,75.280266,55,80,0
75.28526,75.40027,57,80,0
75.405266,75.52026,59,80,0
75.52527,75.64027,60,80,0
75.64526,75.76027,54,80,0
75.76527,75.880264,55,80,0
75.88527,76.00027,59,80,0
76.005264,76.12027,60,80,0
76.12527,76.240265,62,80,0
76.24527,76.36027,64,80,0
76.365265,76.48026,65,80,0
76.48527,76.960266,67,80,0
76.48527,76.960266,64,80,0
76.96526,77.200264,65,80,0
76.96526,77.200264,62,80,0
77.20527,77.68027,64,80,0
77.20527,77.68027,60,80,0
77.685265,77.920265,64,80,0
77.685265,77.920265,60,80,0
77.92526,78.16026,69,80,0
77.92526,78.16026,60,80,0
78.16527,78.40027,69,80,0
78.16527,78.40027,60,80,0
78.405266,78.64027,69,80,0
78.405266,78.64027,60,80,0
78.64526,79.12027,62,80,0
78.64526,79.12027,59,80,0
79.365265,79.600266,74,80,0
79.365265,79.600266,72,80,0
79.365265,79.600266,69,80,0
79.60526,79.84026,74,80,0
79.60526,79.84026,72,80,0
79.60526,79.84026,69,80,0
79.84527,80.08027,74,80,0
79.84527,80.08027,72,80,0
79.84527,80.08027,69,80,0
80.085266,80.560265,74,80,0
80.085266,80.560265,71,80,0
80.085266,80.560265,67,80,0
80.80527,81.04027,72,80,0
80.80527,81.04027,81,80,0
81.045265,81.280266,81,80,0
81.045265,81.280266,72,80,0
81.28526,81.52026,81,80,0
81.28526,81.52026,72,80,0
81.52527,81.64027,74,80,0
81.52527,81.64027,71,80,0
81.64526,81.76027,67,70,0
81.76527,81.880264,69,70,0
81.88527,82.00027,71,70,0
82.005264,82.12027,72,70,0
82.12527,82.240265,74,70,0
82.24527,82.960266,76,80,0
82.96526,83.44027,77,80,0
83.44527,83.560265,79,80,0
83.505264,83.62027,77,80,0
83.56527,83.68027,76,80,0
83.62527,83.68027,77,80,0
83.685265,83.920265,78,80,0
83.92526,84.16026,79,80,0
84.16527,84.40027,79,80,0
84.405266,84.880264,79,80,0
84.88527,85.12027,76,80,0
85.12527,85.84026,73,80,0
85.84527,86.08027,74,80,0
86.085266,86.14027,76,80,0
86.14526,86.200264,74,80,0
86.20527,86.32027,73,80,0
86.325264,86.44027,74,80,0
86.44527,86.560265,76,80,0
86.56527,86.80026,77,80,0
86.80527,87.04027,71,80,0
87.045265,87.280266,71,80,0
87.28526,87.52026,72,80,0
87.52527,87.64027,79,80,0
87.64526,87.76027,77,80,0
87.76527,87.880264,76,80,0
87.88527,88.00027,74,80,0
88.005264,88.72027,73,80,0
88.725266,88.960266,74,80,0
88.96526,89.02026,76,80,0
89.02527,89.08027,74,80,0
89.085266,89.200264,73,80,0
89.20527,89.32027,74,80,0
89.325264,89.44027,76,80,0
89.44527,89.68027,77,80,0
89.685265,89.920265,71,80,0
89.92526,90.16026,71,80,0
90.16527,90.40027,72,80,0
90.88527,90.94027,77,110,0
90.94527,91.36027,89,108,0
91.365265,91.600266,83,91,0
91.60526,91.84026,84,81,0
92.325264,92.380264,65,80,0
92.38527,92.80026,77,80,0
92.80527,93.04027,71,80,0
93.045265,93.280266,72,80,0
93.52527,93.64027,64,80,0
93.64526,93.76027,66,80,0
93.76527,94.00027,67,80,0
94.005264,94.12027,69,80,0
94.12527,94.240265,71,80,0
94.24527,94.48026,72,80,0
94.48527,94.600266,74,80,0
94.60526,94.72027,76,80,0
94.725266,94.960266,77,80,0
94.96526,95.200264,78,80,0
95.20527,95.68027,79,80,0
95.685265,95.80026,81,80,0
95.80527,95.920265,78,80,0
95.92526,96.16026,79,80,0
96.405266,96.52026,64,80,0
96.52527,96.64027,65,80,0
96.64526,96.880264,67,80,0
96.88527,97.00027,69,80,0
97.005264,97.12027,71,80,0
97.12527,97.36027,72,80,0
97.365265,97.48026,74,80,0
97.48527,97.600266,76,80,0
97.60526,97.84026,77,80,0
97.84527,98.08027,78,80,0
98.085266,98.14027,67,110,0
98.14526,98.560265,79,109,0
98.56527,98.68027,77,101,0
98.685265,98.80026,74,98,0
98.80527,99.04027,76,96,0
99.28526,99.40027,74,86,0
99.405266,99.52026,71,83,0
99.52527,99.76027,72,81,0
100.005264,100.12027,71,80,0
100.12527,100.240265,67,80,0
100.24527,100.48026,69,80,0
100.725266,100.84026,67,80,0
100.84527,100.960266,64,80,0
100.96526,101.200264,66,80,0
104.95159,105.07659,59,80,0
105.08202,105.20702,60,80,0
105.212456,105.467896,62,80,0
105.47333,105.59312,64,80,0
105.59833,105.71812,66,80,0
105.72333,105.95833,67,80,0
105.963326,106.07833,69,80,0
106.08333,106.198326,71,80,0
106.20333,106.43833,72,80,0
106.44333,106.67833,73,80,0
106.68333,107.158325,74,80,0
107.16333,107.27833,76,80,0
107.283325,107.39833,73,80,0
107.40333,107.63833,74,80,0
107.88333,107.99833,71,80,0
108.00333,108.11833,72,80,0
108.12333,108.35833,74,80,0
108.36333,108.47833,76,80,0
108.48333,108.59833,78,80,0
108.60333,108.838326,79,80,0
108.84333,108.95833,81,80,0
108.963326,109.07833,83,80,0
109.08333,109.31833,84,80,0
109.323326,109.55833,85,80,0
109.56333,109.61833,74,100,0
109.62333,110.03833,86,99,0
110.04333,110.158325,84,87,0
110.16333,110.27833,81,84,0
110.283325,110.518326,79,81,0
110.76333,110.838326,62,80,0
110.84333,110.91833,64,80,0
110.92333,110.99833,66,80,0
111.00333,111.07833,67,80,0
111.08333,111.158325,69,80,0
111.16333,111.23833,71,80,0
111.24333,111.47833,72,80,0
111.963326,112.198326,84,80,0
112.20333,112.27833,62,80,0
112.283325,112.35833,64,80,0
112.36333,112.43833,66,80,0
112.44333,112.518326,67,80,0
112.52333,112.59833,69,80,0
112.60333,112.67833,71,80,0
112.68333,112.91833,72,80,0
113.40333,113.63833,84,80,0
113.643326,113.71833,62,80,0
113.72333,113.79833,64,80,0
113.80333,113.87833,66,80,0
113.88333,113.95833,67,80,0
113.963326,114.03833,69,80,0
114.04333,114.11833,71,80,0
114.12333,114.198326,72,80,0
114.20333,114.27833,74,80,0
114.283325,114.35833,76,80,0
114.36333,114.41833,78,80,0
114.42333,114.47833,79,80,0
114.48333,114.53833,81,80,0
114.54333,114.59833,83,80,0
114.60333,114.84411,84,80,0
114.84923,115.094025,84,83,0
115.09923,115.34923,84,87,0
115.354546,115.609985,84,91,0
115.61542,115.88246,81,95,0
115.888145,116.16791,79,99,0
116.17386,117.500244,69,110,0
116.17386,117.500244,78,110,0
117.84052,117.96552,71,80,0
117.97096,118.09596,72,80,0
118.101395,118.35683,74,80,0
118.36227,118.477264,76,80,0
118.48226,118.59727,78,80,0
118.602264,118.837265,79,80,0
118.84226,118.95726,81,80,0
118.962265,119.07726,83,80,0
119.08226,119.31726,84,80,0
119.322266,119.55727,85,80,0
119.56226,120.03726,86,80,0
120.04227,120.157265,88,80,0
120.16226,120.27727,85,80,0
120.282265,120.517265,86,80,0
120.76226,120.877266,84,80,0
120.76226,120.99726,76,80,0
120.88226,120.99726,81,80,0
121.002266,121.23727,71,80,0
121.002266,121.23727,79,80,0
121.48226,121.59727,81,80,0
121.48226,121.71726,72,80,0
121.602264,121.71726,78,80,0
121.72227,121.95726,71,80,0
121.72227,121.95726,79,80,0
122.922264,123.157265,74,80,0
122.922264,123.157265,69,80,0
122.922264,123.157265,66,80,0
123.16226,123.39726,86,80,0
123.16226,123.39726,81,80,0
123.16226,123.39726,78,80,0
124.36227,124.59727,74,80,0
124.36227,124.59727,69,80,0
124.36227,124.59727,66,80,0
124.602264,124.837265,86,80,0
124.602264,124.837265,81,80,0
124.602264,124.837265,78,80,0
125.56226,125.63726,62,80,0
125.642265,125.71726,64,80,0
125.72227,125.797264,66,80,0
125.80226,125.877266,67,80,0
125.88226,125.95726,69,80,0
125.962265,126.03726,71,80,0
126.04227,126.27727,72,80,0
126.52226,126.59727,74,80,0
126.602264,126.67726,76,80,0
126.68227,126.75726,78,80,0
126.76226,126.837265,79,80,0
126.84226,126.91727,81,80,0
126.922264,126.99726,83,80,0
127.002266,127.23727,84,80,0
128.95227,129.03378,75,78,0
129.03922,129.12074,76,77,0
129.12617,129.2077,78,77,0
129.21313,129.29466,79,77,0
129.3001,129.3816,81,77,0
129.38704,129.46857,83,76,0
129.474,129.72943,84,76,0
130.55305,130.64233,76,72,0
130.64828,130.73758,78,72,0
130.74353,130.83281,80,72,0
130.83876,130.93251,81,71,0
130.93877,131.03252,82,71,0
131.03877,131.13252,83,71,0
131.13876,131.43251,84,71,0
132.93877,133.06377,69,80,0
133.0692,133.1942,70,80,0
133.19963,133.45508,72,80,0
133.46051,133.58551,74,80,0
133.59094,133.71594,76,80,0
133.72137,133.9768,77,80,0
133.98224,134.10458,79,80,0
134.10991,134.23224,81,80,0
134.23756,134.48756,82,80,0
134.49289,134.74289,83,80,0
134.7482,135.25352,84,80,0
135.25883,135.38118,86,80,0
135.3865,135.50883,83,80,0
135.51416,135.76416,84,80,0
136.0248,136.14714,69,80,0
136.15245,136.2748,70,80,0
136.28012,136.53012,72,80,0
136.53543,136.65523,74,80,0
136.66043,136.78023,76,80,0
136.78543,137.03023,77,80,0
137.03543,137.15523,79,80,0
137.16043,137.28023,81,80,0
137.28543,137.53023,82,80,0
137.53543,137.78023,83,80,0
137.78543,138.28023,84,70,0
138.28543,138.40523,86,70,0
138.41043,138.53023,83,70,0
138.53543,139.03023,84,70,0
139.03543,139.15279,86,74,0
139.15788,139.27524,83,76,0
139.28033,139.76503,84,77,0
139.77013,139.88513,86,82,0
139.89012,140.00513,83,83,0
140.01013,140.25491,84,84,0
140.26013,140.51556,84,87,0
140.521,140.78804,84,89,0
140.79373,140.84985,84,80,0
140.85495,141.03352,83,80,0
141.03862,141.09474,81,80,0
141.09985,141.27841,79,80,0
141.28352,141.33965,78,80,0
141.34474,141.52332,79,80,0
141.52841,141.58453,81,80,0
141.58965,141.76822,79,80,0
141.77332,141.82944,78,80,0
141.83453,142.0131,76,80,0
142.01822,142.07434,75,80,0
142.07944,142.25801,76,80,0
142.2631,142.31923,79,80,0
142.32434,142.5029,78,80,0
142.50801,142.56413,76,80,0
142.56923,142.7478,74,80,0
142.7529,142.80902,72,80,0
142.81413,142.9927,71,80,0
142.9978,143.05392,74,80,0
143.05902,143.2376,72,80,0
143.2427,143.29883,71,80,0
143.30392,143.4825,69,80,0
143.4876,143.54372,67,80,0
143.54883,143.72739,66,80,0
143.7325,143.97229,67,80,0
143.97739,144.10239,55,80,0
144.05902,144.19168,59,80,0
144.14066,144.2631,62,80,0
144.22229,144.33963,55,80,0
144.30392,144.42892,59,80,0
144.38556,144.51056,62,80,0
144.4672,144.58199,55,80,0
144.54881,144.67638,59,80,0
144.63045,144.76566,62,80,0
144.71208,144.83708,55,80,0
144.79372,144.92381,59,80,0
144.87535,145.0131,62,80,0
144.95699,145.07687,55,80,0
145.03862,145.16617,59,80,0
145.12024,145.2478,62,80,0
145.20187,145.31923,57,80,0
145.28351,145.40341,60,80,0
145.36514,145.48505,62,80,0
145.44678,145.57687,57,80,0
145.52841,145.67892,60,80,0
145.61005,145.7478,62,80,0
145.69168,145.83199,57,80,0
145.7733,145.91106,60,80,0
145.85493,145.99014,62,80,0
145.93657,146.07433,57,80,0
146.0182,146.16872,60,80,0
146.09984,146.24524,62,80,0
146.18147,146.33199,57,80,0
146.2631,146.40341,60,80,0
146.34474,146.47993,62,80,0
146.42636,146.57942,57,80,0
146.508,146.6432,60,80,0
146.58963,146.71973,62,80,0
146.67126,146.81923,55,80,0
146.7529,146.88554,59,80,0
146.83453,146.99014,62,80,0
146.91617,147.05136,55,80,0
146.99779,147.13045,59,80,0
147.07942,147.21208,62,80,0
147.16106,147.29626,55,80,0
147.24269,147.37279,59,80,0
147.32433,147.46463,62,80,0
147.40596,147.54626,55,80,0
147.4876,147.633,59,80,0
147.56923,147.71208,62,80,0
147.65085,147.79626,55,80,0
147.73248,147.87024,59,80,0
147.81412,147.95187,62,80,0
147.89575,148.04881,55,80,0
147.97739,148.11769,59,80,0
148.05902,148.21463,62,80,0
148.14066,148.2886,57,80,0
148.22227,148.36514,60,80,0
148.30391,148.45953,62,80,0
148.38554,148.5233,57,80,0
148.46718,148.59984,60,80,0
148.54881,148.68402,62,80,0
148.63045,148.78351,57,80,0
148.71208,148.84984,60,80,0
148.79372,148.95952,62,80,0
148.87534,149.01054,57,80,0
148.95697,149.08708,60,80,0
149.0386,149.18657,62,80,0
149.12024,149.26054,57,80,0
149.20187,149.33963,60,80,0
149.28351,149.4187,62,80,0
149.36514,149.48503,57,80,0
149.44676,149.57687,60,80,0
149.5284,149.6534,62,80,0
149.61003,149.74269,55,80,0
149.69167,149.83197,59,80,0
149.7733,149.90085,62,80,0
149.85493,149.99014,55,80,0
149.93657,150.06412,59,80,0
150.0182,150.15085,62,80,0
150.09982,150.24013,55,80,0
150.18146,150.30646,59,80,0
150.26309,150.3983,62,80,0
150.34473,150.49013,57,80,0
150.42636,150.56157,60,80,0
150.508,150.63554,62,80,0
150.58963,150.71973,57,80,0
150.67125,150.81412,60,80,0
150.75288,150.89064,62,80,0
150.83452,150.96973,57,80,0
150.91615,151.05136,60,80,0
150.99779,151.133,62,80,0
151.07942,151.21718,55,80,0
151.16106,151.31157,59,80,0
151.24269,151.37788,62,80,0
151.32431,151.46207,55,80,0
151.40594,151.54881,59,80,0
151.48758,151.62024,62,80,0
151.56921,151.69931,55,80,0
151.65085,151.7835,59,80,0
151.73248,151.85237,62,80,0
151.81412,151.95187,57,80,0
151.89574,152.0233,60,80,0
151.97737,152.11768,62,80,0
152.059,152.19421,57,80,0
152.14064,152.27074,60,80,0
152.22227,152.35748,62,80,0
152.30391,152.434,57,80,0
152.38554,152.50288,60,80,0
152.46718,152.5437,62,80,0
152.5488,152.66615,55,80,0
152.67125,152.7886,59,80,0
152.7937,152.91104,57,80,0
152.91615,153.0335,60,80,0
153.0386,153.15594,59,80,0
153.16104,153.2784,62,80,0
153.2835,153.40085,60,80,0
153.40594,153.52328,64,80,0
153.5284,153.64574,62,80,0
153.65085,153.76819,66,80,0
153.77328,153.89064,64,80,0
153.89574,154.01309,67,80,0
154.01819,154.13553,66,80,0
154.14064,154.25798,69,80,0
154.26309,154.38043,67,80,0
154.38553,154.50288,71,80,0
154.50798,154.62534,69,80,0
154.63043,154.74777,72,80,0
154.75288,154.87022,71,80,0
154.87534,154.99268,73,81,0
154.99777,155.11513,74,83,0
155.12022,155.23758,72,85,0
155.24268,155.36002,71,86,0
155.36513,155.48247,67,88,0
155.48758,155.60492,76,90,0
155.61002,155.72737,74,92,0
155.73247,155.84982,72,93,0
155.85492,155.97227,69,95,0
155.97737,156.09238,78,97,0
156.09737,156.21237,76,99,0
156.21738,156.33237,74,100,0
156.33737,156.45236,71,102,0
156.45737,156.57237,79,104,0
156.57736,156.69237,77,106,0
156.69737,156.81236,76,107,0
156.81737,156.93237,72,109,0
156.93736,157.05237,79,111,0
157.05737,157.17236,77,113,0
157.17737,157.29237,76,114,0
157.29736,157.41237,72,116,0
157.41737,157.53236,79,118,0
157.53737,157.65237,77,119,0
157.65736,157.77716,76,120,0
157.78236,157.90216,72,120,0
157.90736,158.03236,79,120,0
158.03781,158.16281,77,120,0
158.16824,158.29892,76,120,0
158.3046,158.43529,72,120,0
158.7137,158.79182,79,80,0
158.79703,158.87515,78,80,0
158.88036,158.95848,76,80,0
158.9637,159.04182,79,80,0
159.04703,159.12515,78,80,0
159.13036,159.20848,76,80,0
159.4637,159.54182,79,80,0
159.54703,159.62515,78,80,0
159.63036,159.70848,76,80,0
159.7137,159.79182,79,80,0
159.79703,159.87515,78,80,0
159.88036,159.95848,76,80,0
160.2137,160.29182,74,80,0
160.29703,160.37515,72,80,0
160.38036,160.45848,71,80,0
160.4637,160.54182,74,80,0
160.54703,160.62515,72,80,0
160.63036,160.70848,71,80,0
160.9637,161.04182,69,80,0
161.04703,161.12515,67,80,0
161.13036,161.20848,66,80,0
161.2137,161.29182,69,80,0
161.29703,161.37515,67,80,0
161.38036,161.45848,66,80,0
161.4637,161.95848,67,80,0
162.2137,162.95848,43,90,0
162.9637,163.20848,42,90,0
163.2137,163.45848,50,90,0
163.4637,163.70848,50,90,0
163.7137,164.45848,66,90,0
164.4637,164.70848,67,90,0
164.7137,164.95848,74,90,0
164.9637,165.20848,74,90,0
165.2137,165.95848,43,90,0
165.9637,166.20848,42,90,0
166.2137,166.45848,52,90,0
166.4637,166.70848,50,90,0
166.7137,167.45848,66,90,0
167.4637,167.70848,67,90,0
167.7137,167.95848,76,103,0
167.9637,168.20848,74,90,0
168.2137,168.45848,42,90,0
168.4637,168.70848,52,105,0
168.7137,168.95848,50,90,0
168.9637,169.20848,67,90,0
169.2137,169.45848,76,106,0
169.4637,169.70848,74,90,0
169.7137,169.95848,42,90,0
169.9637,170.21913,52,104,0
170.22456,170.49161,50,90,0
170.49728,170.61708,43,80,0
170.62228,170.74208,47,80,0
170.74728,170.86708,45,80,0
170.87228,170.99208,48,80,0
170.99728,171.11708,47,80,0
171.12228,171.24208,50,80,0
171.24728,171.36708,48,80,0
171.37228,171.49208,52,80,0
171.49728,171.61708,50,80,0
171.62228,171.74208,54,80,0
171.74728,171.86708,52,80,0
171.87228,171.99208,55,80,0
171.99728,172.11708,54,80,0
172.12228,172.24208,57,80,0
172.24728,172.36708,55,80,0
172.37228,172.49208,59,80,0
172.49728,172.61708,57,80,0
172.62228,172.74208,60,80,0
172.74728,172.86708,59,80,0
172.87228,172.99208,61,81,0
172.99728,173.11708,62,83,0
173.12228,173.24208,60,85,0
173.24728,173.36708,59,86,0
173.37228,173.49208,57,88,0
173.49728,173.61708,64,90,0
173.62228,173.74208,62,92,0
173.74728,173.86708,60,93,0
173.87228,173.99208,57,95,0
173.99728,174.11708,66,97,0
174.12228,174.24208,64,99,0
174.24728,174.36708,62,100,0
174.37228,174.49208,59,102,0
174.49728,174.61708,67,104,0
174.62228,174.74208,65,106,0
174.74728,174.86708,64,107,0
174.87228,174.99208,60,109,0
174.99728,175.11708,67,111,0
175.12228,175.24208,65,113,0
175.24728,175.36708,64,114,0
175.37228,175.49208,60,116,0
175.49728,175.61708,67,118,0
175.62228,175.74208,65,119,0
175.74728,175.86963,64,120,0
175.87495,175.99728,60,120,0
176.00261,176.13039,67,120,0
176.13594,176.26372,65,120,0
176.26927,176.40617,64,120,0
176.41212,176.54904,60,120,0
176.8407,176.91724,79,80,0
176.92233,176.99887,78,80,0
177.00397,177.0805,76,80,0
177.0856,177.16212,79,80,0
177.16724,177.24376,78,80,0
177.24887,177.3254,76,80,0
177.5754,177.65352,79,80,0
177.65872,177.73685,78,80,0
177.74207,177.82019,76,80,0
177.8254,177.90352,79,80,0
177.90872,177.98685,78,80,0
177.99207,178.07019,76,80,0
178.3254,178.40692,74,80,0
178.41235,178.49387,72,80,0
178.49931,178.58083,71,80,0
178.58626,178.66779,74,80,0
178.67322,178.75475,72,80,0
178.76018,178.8417,71,80,0
179.108,179.19324,69,80,0
179.19891,179.28413,67,80,0
179.28983,179.37505,66,80,0
179.38074,179.46596,69,80,0
179.47163,179.55687,67,80,0
179.56255,179.64778,66,80,0
179.65346,179.9002,67,80,0
180.1502,180.26756,71,80,0
180.27266,180.39,72,80,0
180.39511,180.6349,74,80,0
180.64,180.75735,76,80,0
180.76245,180.8798,78,80,0
180.8849,181.1247,79,80,0
181.1298,181.24715,81,80,0
181.25224,181.3696,83,80,0
181.3747,181.61449,84,80,0
181.6196,181.85939,85,95,0
181.6196,181.85939,73,95,0
181.86449,182.34918,74,80,0
181.86449,182.34918,86,80,0
182.3543,182.47163,88,80,0
182.47673,182.59409,85,80,0
182.59918,182.83897,86,80,0
183.08897,183.20633,71,80,0
183.21143,183.32878,72,80,0
183.33388,183.57367,74,80,0
183.57878,183.69612,76,80,0
183.70122,183.81857,78,80,0
183.82367,184.06346,79,80,0
184.06857,184.18591,81,80,0
184.19102,184.30836,83,80,0
184.31346,184.55327,84,80,0
184.55836,184.79816,85,95,0
184.55836,184.79816,73,95,0
184.80327,185.28795,74,80,0
184.80327,185.28795,86,80,0
185.29306,185.4104,84,80,0
185.41551,185.53285,81,80,0
185.53795,185.77776,79,80,0
186.02776,186.26755,73,95,0
186.02776,186.26755,61,95,0
186.27264,186.75734,74,80,0
186.27264,186.75734,62,80,0
186.76244,186.87979,76,80,0
186.88489,187.00224,73,80,0
187.00734,187.24713,74,80,0
187.49713,187.73692,85,95,0
187.49713,187.73692,73,95,0
187.74203,188.22673,74,80,0
187.74203,188.22673,86,80,0
188.23183,188.34917,84,80,0
188.35428,188.47162,81,80,0
188.47673,188.71652,79,80,0
188.96652,189.08386,72,80,0
189.08897,189.20631,69,80,0
189.21141,189.45122,67,80,0
189.70631,189.82866,84,80,0
189.83397,189.95631,81,80,0
189.96164,190.21707,79,80,0
190.49522,190.63214,72,80,0
190.63809,190.775,69,80,0
190.78094,191.07469,67,80,0
1.68,2.155,59,80,0
2.16,2.275,60,80,0
1.68,2.395,55,80,0
2.28,2.395,58,80,0
2.4,2.635,59,80,0
2.4,2.635,55,80,0
4.56,5.035,71,100,0
5.04,5.155,69,87,0
4.56,5.275,62,100,0
5.16,5.275,66,84,0
5.28,5.515,67,81,0
6.48,6.715,60,80,0
6.48,6.715,57,80,0
6.48,6.715,50,80,0
6.72,6.981111,72,80,0
6.72,6.981111,69,80,0
6.72,6.981111,62,80,0
7.973333,8.208333,60,80,0
7.973333,8.208333,57,80,0
7.973333,8.208333,50,80,0
8.213333,8.474444,72,80,0
8.213333,8.474444,69,80,0
8.213333,8.474444,62,80,0
10.201564,10.260074,38,80,0
10.265393,10.323904,40,80,0
10.329223,10.387733,42,80,0
10.393053,10.451563,43,80,0
10.456882,10.538404,45,80,0
10.543839,10.6253605,47,80,0
10.6307955,10.712317,48,80,0
10.717752,10.801085,50,80,0
10.806641,10.889974,52,80,0
10.89553,10.978863,54,80,0
10.984419,11.069646,55,80,0
11.075328,11.160555,57,80,0
11.166237,11.251464,59,80,0
11.257146,12.394049,60,80,0
11.257146,12.394049,62,80,0
14.434286,14.9092865,71,80,0
14.914287,15.029286,72,80,0
14.434286,15.149286,67,80,0
15.0342865,15.149286,70,80,0
15.154286,15.389286,67,80,0
15.154286,15.389286,71,80,0
15.634287,15.869287,60,80,0
15.874287,16.109287,62,80,0
16.354286,16.589287,50,80,0
16.594286,16.829287,55,80,0
17.314287,18.029287,47,100,0
17.314287,18.029287,35,100,0
18.514286,18.749287,69,80,0
18.754286,18.999079,67,80,0
19.004286,19.259722,67,80,0
19.265156,19.532202,63,80,0
19.537884,19.804928,64,80,0
20.356064,21.071064,47,80,0
20.356064,21.071064,35,80,0
21.796064,22.040855,64,80,0
21.796064,22.040855,67,80,0
22.046064,22.301498,66,80,0
22.306934,22.573978,54,80,0
22.57966,22.846706,59,80,0
23.397842,24.11284,47,100,0
23.397842,24.11284,35,100,0
24.597841,24.832842,69,80,0
24.837841,25.082634,67,80,0
25.087841,25.343277,67,80,0
25.348711,25.615757,63,80,0
25.621437,25.856438,64,80,0
26.341438,27.056438,52,100,0
26.341438,27.056438,40,100,0
27.541437,27.781233,74,80,0
27.786335,28.036335,72,80,0
28.041655,28.302765,72,80,0
28.308321,28.588083,68,80,0
28.594034,28.873796,69,80,0
29.451178,29.730938,69,80,0
29.451178,29.730938,62,80,0
30.30832,30.588081,57,80,0
30.30832,30.588081,50,80,0
34.182602,34.657604,59,80,0
34.6626,34.777603,60,80,0
34.182602,34.897602,55,80,0
34.782604,34.897602,58,80,0
34.902603,35.137604,59,80,0
34.902603,35.137604,55,80,0
37.062603,37.5376,71,100,0
37.542603,37.657604,69,87,0
37.062603,37.777603,62,100,0
37.6626,37.777603,66,84,0
37.782604,38.017605,67,81,0
38.9826,39.2176,60,80,0
38.9826,39.2176,57,80,0
38.9826,39.2176,50,80,0
39.222603,39.457603,72,80,0
39.222603,39.457603,69,80,0
39.222603,39.457603,62,80,0
40.422604,40.657604,60,80,0
40.422604,40.657604,57,80,0
40.422604,40.657604,50,80,0
40.6626,40.897602,72,80,0
40.6626,40.897602,69,80,0
40.6626,40.897602,62,80,0
42.5975,42.65601,38,98,0
42.66133,42.71984,40,99,0
42.72516,42.783672,42,100,0
42.78899,42.8475,43,100,0
42.85282,42.93434,45,101,0
42.939777,43.021297,47,102,0
43.026733,43.108253,48,103,0
43.11369,43.19702,50,104,0
43.20258,43.28591,52,105,0
43.291466,43.3748,54,106,0
43.380356,43.465584,55,107,0
43.471264,43.55649,57,108,0
43.562172,43.6474,59,109,0
43.653084,45.057495,60,120,0
43.653084,45.057495,62,120,0
47.146877,47.62188,71,80,0
47.626877,47.74188,72,80,0
47.146877,47.861877,67,80,0
47.74688,47.861877,70,80,0
47.86688,48.10188,67,80,0
47.86688,48.10188,71,80,0
48.346878,48.58188,60,80,0
48.58688,48.821877,62,80,0
49.06688,49.32231,50,80,0
49.327747,49.583183,55,80,0
49.849487,49.924488,43,80,0
49.929485,50.004486,45,80,0
50.009487,50.084488,47,80,0
50.089485,50.164486,48,80,0
50.169487,50.244488,50,80,0
50.249485,50.324486,52,80,0
50.329487,50.564487,53,80,0
51.049488,51.284485,65,102,0
51.289486,51.364487,43,80,0
51.369488,51.444485,45,80,0
51.449486,51.524487,47,80,0
51.529488,51.60449,48,80,0
51.609486,51.684486,50,80,0
51.689487,51.76449,52,80,0
51.769485,52.004486,53,80,0
52.489487,52.724487,65,102,0
52.72949,52.804485,43,80,0
52.809486,52.884487,45,81,0
52.88949,52.964485,47,82,0
52.969486,53.044487,48,83,0
53.049488,53.124485,50,84,0
53.129486,53.204487,52,86,0
53.209488,53.444485,53,87,0
53.689487,53.76449,55,94,0
53.769485,53.844486,57,96,0
53.849487,53.924488,59,97,0
53.929485,54.004486,60,98,0
54.009487,54.084488,62,99,0
54.089485,54.164486,64,101,0
54.169487,54.404488,65,102,0
56.301933,56.440266,48,80,0
56.445267,56.560265,55,80,0
56.565266,56.680267,60,80,0
56.685265,56.800266,55,80,0
56.805267,56.920265,48,80,0
56.925266,57.040268,55,80,0
57.045265,57.160267,48,80,0
57.165268,57.280266,57,80,0
57.285267,57.400265,60,80,0
57.405266,57.520267,57,80,0
57.525265,57.640266,48,80,0
57.645267,57.760265,57,80,0
57.765266,57.88027,48,80,0
57.885265,58.000267,53,80,0
58.00527,58.120266,59,80,0
58.125267,58.240265,53,80,0
58.245266,58.360268,48,80,0
58.365265,58.480267,53,80,0
58.485268,58.600266,48,80,0
58.605267,58.720264,52,80,0
58.725266,58.840267,60,80,0
58.845264,58.960266,52,80,0
58.965267,59.080265,48,80,0
59.085266,59.200268,52,80,0
59.325268,59.440266,52,80,0
59.445267,59.560265,55,80,0
59.205265,59.680267,46,80,0
59.565266,59.680267,52,80,0
59.685265,59.920265,45,80,0
59.805267,59.920265,52,80,0
60.045265,60.160267,50,80,0
60.165268,60.280266,53,80,0
59.925266,60.400265,45,80,0
60.285267,60.400265,50,80,0
60.405266,60.640266,45,80,0
60.525265,60.640266,50,80,0
60.765266,60.88027,50,80,0
60.885265,61.000267,53,80,0
60.645267,61.120266,44,80,0
61.00527,61.120266,50,80,0
61.125267,61.360268,43,80,0
61.245266,61.360268,50,80,0
61.365265,61.480267,48,80,0
61.485268,61.600266,52,80,0
61.605267,61.720264,55,80,0
61.725266,61.840267,53,80,0
61.845264,61.960266,52,80,0
61.965267,62.080265,50,80,0
62.085266,62.200268,48,80,0
62.205265,62.320267,55,80,0
62.325268,62.440266,60,80,0
62.445267,62.560265,55,80,0
62.565266,62.680267,48,80,0
62.685265,62.800266,55,80,0
62.805267,62.920265,48,80,0
62.925266,63.040268,57,80,0
63.045265,63.160267,60,80,0
63.165268,63.280266,57,80,0
63.285267,63.400265,48,80,0
63.405266,63.520267,57,80,0
63.525265,63.640266,48,80,0
63.645267,63.760265,53,80,0
63.765266,63.88027,59,80,0
63.885265,64.00027,53,80,0
64.005264,64.12027,48,80,0
64.12527,64.240265,53,80,0
64.24527,64.36027,48,80,0
64.365265,64.48026,52,80,0
64.48527,64.600266,60,80,0
64.60526,64.72027,52,80,0
64.725266,64.84026,48,80,0
64.84527,64.960266,52,80,0
65.085266,65.200264,52,80,0
65.20527,65.32027,55,80,0
64.96526,65.44027,46,80,0
65.325264,65.44027,52,80,0
65.44527,65.68027,45,80,0
65.56527,65.68027,52,80,0
65.80527,65.920265,50,80,0
65.92526,66.04027,53,80,0
65.685265,66.16026,45,80,0
66.045265,66.16026,50,80,0
66.16527,66.40027,45,80,0
66.28526,66.40027,50,80,0
66.52527,66.64027,50,80,0
66.64526,66.76027,53,80,0
66.405266,66.880264,44,80,0
66.76527,66.880264,50,80,0
66.88527,67.12027,43,80,0
67.005264,67.12027,50,80,0
67.12527,67.240265,48,80,0
67.24527,67.36027,55,80,0
67.365265,67.48026,53,80,0
67.48527,67.600266,52,80,0
67.60526,67.72027,50,80,0
67.725266,67.84026,48,80,0
67.96526,68.08027,43,80,0
68.085266,68.200264,45,80,0
68.20527,68.32027,47,80,0
68.325264,68.44027,48,80,0
68.44527,68.560265,42,80,0
68.685265,68.80026,43,80,0
68.80527,68.920265,45,80,0
68.92526,69.04027,47,80,0
69.045265,69.16026,48,80,0
69.16527,69.280266,42,80,0
69.405266,69.52026,43,80,0
69.52527,69.64027,45,80,0
69.64526,69.76027,47,80,0
69.76527,69.880264,48,80,0
69.88527,70.00027,42,80,0
70.005264,70.84026,43,80,0
70.84527,70.960266,42,80,0
70.96526,71.08027,43,80,0
71.085266,71.200264,42,80,0
71.20527,71.32027,43,80,0
71.325264,71.44027,44,80,0
71.44527,71.560265,45,80,0
71.56527,71.68027,44,80,0
71.685265,71.80026,45,80,0
71.80527,71.920265,44,80,0
71.92526,72.04027,45,80,0
72.045265,72.16026,43,80,0
72.16527,72.280266,42,80,0
72.28526,72.40027,40,80,0
72.405266,72.52026,42,80,0
72.52527,72.64027,38,80,0
72.64526,72.76027,40,80,0
72.76527,72.880264,42,80,0
72.88527,73.00027,43,80,0
73.005264,73.12027,45,80,0
73.12527,73.240265,47,80,0
73.24527,73.36027,48,80,0
73.365265,73.48026,50,80,0
73.48527,73.600266,52,80,0
73.60526,74.08027,53,80,0
73.60526,74.32027,43,80,0
74.085266,74.32027,51,100,0
74.325264,74.80026,50,80,0
74.325264,75.04027,43,80,0
74.80527,75.04027,51,100,0
75.045265,75.52026,50,80,0
75.045265,75.76027,43,80,0
75.52527,75.76027,51,100,0
75.76527,76.240265,50,80,0
75.76527,76.600266,43,80,0
76.60526,76.72027,42,80,0
76.725266,76.84026,43,80,0
76.84527,76.960266,42,80,0
76.96526,77.08027,43,80,0
77.085266,77.200264,44,80,0
77.20527,77.32027,45,80,0
77.325264,77.44027,44,80,0
77.44527,77.560265,45,80,0
77.56527,77.68027,44,80,0
77.685265,77.80026,45,80,0
77.80527,77.920265,43,80,0
77.92526,78.04027,42,80,0
78.045265,78.16026,40,80,0
78.16527,78.280266,42,80,0
78.28526,78.40027,38,80,0
78.405266,78.52026,40,80,0
78.52527,78.64027,42,80,0
78.64526,78.76027,43,80,0
78.76527,78.880264,45,80,0
78.88527,79.00027,47,80,0
79.005264,79.12027,48,80,0
79.12527,79.240265,50,80,0
79.24527,79.36027,52,80,0
79.365265,79.48026,54,80,0
79.48527,79.600266,52,80,0
79.60526,79.72027,54,80,0
79.725266,79.84026,50,80,0
79.84527,79.960266,52,80,0
79.96526,80.08027,54,80,0
80.085266,80.200264,55,80,0
80.20527,80.32027,57,80,0
80.325264,80.44027,59,80,0
80.44527,80.560265,60,80,0
80.56527,80.68027,62,80,0
80.685265,80.80026,64,80,0
80.80527,80.920265,66,80,0
80.92526,81.04027,64,80,0
81.045265,81.16026,66,80,0
81.16527,81.280266,62,80,0
81.28526,81.40027,64,80,0
81.405266,81.52026,66,80,0
81.52527,82.00027,67,80,0
82.24527,82.36027,48,80,0
82.365265,82.48026,55,80,0
82.48527,82.600266,60,80,0
82.60526,82.72027,55,80,0
82.725266,82.84026,48,80,0
82.84527,82.960266,55,80,0
82.96526,83.08027,48,80,0
83.085266,83.200264,57,80,0
83.20527,83.32027,60,80,0
83.325264,83.44027,57,80,0
83.44527,83.560265,48,80,0
83.56527,83.68027,57,80,0
83.685265,83.80026,48,80,0
83.80527,83.920265,53,80,0
83.92526,84.04027,59,80,0
84.045265,84.16026,53,80,0
84.16527,84.280266,48,80,0
84.28526,84.40027,53,80,0
84.405266,84.52026,48,80,0
84.52527,84.64027,52,80,0
84.64526,84.76027,60,80,0
84.76527,84.880264,52,80,0
84.88527,85.00027,48,80,0
85.005264,85.12027,52,80,0
85.24527,85.36027,52,80,0
85.365265,85.48026,55,80,0
85.12527,85.600266,46,80,0
85.48527,85.600266,52,80,0
85.60526,85.84026,45,80,0
85.725266,85.84026,52,80,0
85.96526,86.08027,50,80,0
86.085266,86.200264,53,80,0
85.84527,86.32027,45,80,0
86.20527,86.32027,50,80,0
86.325264,86.560265,45,80,0
86.44527,86.560265,50,80,0
86.685265,86.80026,50,80,0
86.80527,86.920265,53,80,0
86.56527,87.04027,44,80,0
86.92526,87.04027,50,80,0
87.045265,87.280266,43,80,0
87.16527,87.280266,50,80,0
87.28526,87.40027,48,80,0
87.405266,87.52026,52,80,0
87.52527,87.64027,55,80,0
87.64526,87.76027,52,80,0
87.76527,87.880264,48,80,0
87.88527,88.00027,52,80,0
88.12527,88.240265,52,80,0
88.24527,88.36027,55,80,0
88.005264,88.48026,46,80,0
88.365265,88.48026,52,80,0
88.48527,88.72027,45,80,0
88.60526,88.72027,52,80,0
88.84527,88.960266,50,80,0
88.96526,89.08027,53,80,0
88.725266,89.200264,45,80,0
89.085266,89.200264,50,80,0
89.20527,89.44027,45,80,0
89.325264,89.44027,50,80,0
89.56527,89.68027,50,80,0
89.685265,89.80026,53,80,0
89.44527,89.920265,44,80,0
89.80527,89.920265,50,80,0
89.92526,90.16026,43,80,0
90.045265,90.16026,50,80,0
90.16527,90.280266,48,80,0
90.28526,90.40027,52,80,0
90.405266,90.52026,55,80,0
90.52527,90.64027,52,80,0
90.64526,90.76027,50,80,0
90.76527,90.880264,48,80,0
90.88527,91.00027,43,80,0
91.005264,91.12027,50,80,0
91.12527,91.240265,53,80,0
91.24527,91.36027,50,80,0
91.365265,91.48026,43,80,0
91.48527,91.600266,50,80,0
91.60526,91.72027,48,80,0
91.725266,91.84026,52,80,0
91.84527,91.960266,55,80,0
91.96526,92.08027,52,80,0
92.085266,92.200264,50,80,0
92.20527,92.32027,48,80,0
92.325264,92.44027,43,80,0
92.44527,92.560265,50,80,0
92.56527,92.68027,53,80,0
92.685265,92.80026,50,80,0
92.80527,92.920265,43,80,0
92.92526,93.04027,50,80,0
93.045265,93.280266,48,80,0
93.045265,93.280266,52,80,0
95.20527,95.68027,64,80,0
95.685265,95.80026,65,80,0
95.20527,95.920265,60,80,0
95.80527,95.920265,63,80,0
95.92526,96.16026,60,80,0
95.92526,96.16026,64,80,0
98.085266,98.560265,64,110,0
98.56527,98.68027,62,101,0
98.685265,98.80026,59,98,0
98.80527,99.04027,60,96,0
99.28526,99.40027,59,86,0
99.405266,99.52026,56,83,0
99.52527,99.76027,57,81,0
100.005264,100.12027,55,80,0
100.12527,100.240265,52,80,0
100.24527,100.48026,54,80,0
100.725266,100.84026,52,80,0
100.84527,100.960266,49,80,0
100.96526,101.200264,50,80,0
101.44527,101.57027,40,80,0
101.5757,101.7007,37,80,0
101.70614,101.97318,38,80,0
102.25159,102.39534,40,80,0
102.40159,102.54534,37,80,0
102.55159,104.94534,38,80,0
106.68333,107.158325,59,80,0
107.16333,107.27833,60,80,0
106.68333,107.39833,55,80,0
107.283325,107.39833,58,80,0
107.40333,107.63833,59,80,0
107.40333,107.63833,55,80,0
109.56333,110.03833,71,100,0
110.04333,110.158325,69,87,0
109.56333,110.27833,62,100,0
110.16333,110.27833,66,84,0
110.283325,110.518326,67,81,0
111.48333,111.71833,60,80,0
111.48333,111.71833,57,80,0
111.48333,111.71833,50,80,0
111.72333,111.95833,72,80,0
111.72333,111.95833,69,80,0
111.72333,111.95833,62,80,0
112.92333,113.158325,60,80,0
112.92333,113.158325,57,80,0
112.92333,113.158325,50,80,0
113.16333,113.39833,72,80,0
113.16333,113.39833,69,80,0
113.16333,113.39833,62,80,0
115.09923,115.15774,38,87,0
115.16306,115.22157,40,88,0
115.22689,115.2854,42,89,0
115.29072,115.34923,43,90,0
115.354546,115.43607,45,91,0
115.441505,115.523026,47,93,0
115.528465,115.609985,48,94,0
115.61542,115.700645,50,95,0
115.70633,115.79156,52,97,0
115.79723,115.88246,54,98,0
115.888145,115.97743,55,99,0
115.98338,116.07267,57,80,0
116.07862,116.16791,59,80,0
116.17386,117.500244,60,110,0
116.17386,117.500244,62,110,0
119.56226,120.03726,71,80,0
120.04227,120.157265,72,80,0
119.56226,120.27727,67,80,0
120.16226,120.27727,70,80,0
120.282265,120.517265,67,80,0
120.282265,120.517265,71,80,0
120.76226,120.99726,60,80,0
121.002266,121.23727,62,80,0
121.48226,121.71726,50,80,0
121.72227,121.95726,55,80,0
122.20226,122.27727,50,80,0
122.282265,122.35726,52,80,0
122.36227,122.43726,54,80,0
122.44226,122.517265,55,80,0
122.52226,122.59727,57,80,0
122.602264,122.67726,59,80,0
122.68227,122.91727,60,80,0
123.40227,123.63726,72,102,0
123.642265,123.71726,50,80,0
123.72227,123.797264,52,80,0
123.80226,123.877266,54,80,0
123.88226,123.95726,55,80,0
123.962265,124.03726,57,80,0
124.04227,124.11726,59,80,0
124.12226,124.35726,60,80,0
124.84226,125.07726,72,103,0
125.08226,125.157265,50,80,0
125.16226,125.23727,52,80,0
125.24226,125.31726,54,80,0
125.322266,125.39726,55,80,0
125.40227,125.477264,57,80,0
125.48226,125.55727,59,80,0
125.56226,125.797264,60,80,0
126.04227,126.11726,62,80,0
126.12226,126.197266,64,80,0
126.20226,126.27727,66,80,0
126.282265,126.35726,67,80,0
126.36227,126.43726,69,80,0
126.44226,126.517265,71,80,0
126.52226,126.75726,72,80,0
128.20227,128.2804,63,80,0
128.2856,128.36372,64,80,0
128.36893,128.44705,66,80,0
128.45227,128.5304,67,80,0
128.5356,128.61372,69,79,0
128.61893,128.69705,71,79,0
128.70227,128.94705,72,79,0
129.73488,129.8201,64,75,0
129.82578,129.91101,66,75,0
129.91669,130.00192,68,74,0
130.0076,130.09282,69,74,0
130.09851,130.18373,70,74,0
130.18942,130.27464,71,74,0
130.28032,130.54738,72,73,0
134.7482,135.25352,69,80,0
135.25883,135.38118,70,80,0
134.7482,135.50883,65,80,0
135.3865,135.50883,68,80,0
135.51416,135.76416,69,80,0
135.51416,135.76416,66,80,0
137.78543,138.28023,69,70,0
138.28543,138.40523,70,70,0
137.78543,138.53023,65,70,0
138.41043,138.53023,68,70,0
138.53543,139.03023,69,70,0
139.03543,139.15279,71,74,0
138.53543,139.27524,64,70,0
139.15788,139.27524,68,76,0
139.28033,139.76503,69,77,0
139.77013,139.88513,71,82,0
139.28033,140.00513,63,77,0
139.89012,140.00513,68,83,0
140.01013,140.25491,69,84,0
140.26013,140.51556,69,87,0
140.01013,140.78804,62,84,0
140.521,140.78804,69,89,0
140.79373,141.03352,67,80,0
141.52841,141.76822,69,80,0
141.52841,141.76822,67,80,0
141.52841,141.76822,61,80,0
142.2631,142.5029,71,80,0
142.2631,142.5029,67,80,0
142.2631,142.5029,62,80,0
142.9978,143.2376,60,80,0
142.9978,143.2376,57,80,0
142.9978,143.2376,50,80,0
143.7325,143.97229,43,80,0
144.4672,145.19678,67,90,0
145.20187,145.44168,66,90,0
145.44678,145.68657,74,90,0
145.69168,145.93147,74,90,0
145.93657,146.66617,42,90,0
146.67126,146.91106,43,90,0
146.91617,147.15596,50,90,0
147.16106,147.40085,50,90,0
147.40596,148.13554,67,90,0
148.14066,148.38045,66,90,0
148.38554,148.62534,76,90,0
148.63045,148.87024,74,90,0
148.87534,149.60493,42,90,0
149.61003,149.84982,43,90,0
149.85493,150.09473,52,106,0
150.09982,150.33963,50,90,0
150.34473,150.58452,66,90,0
150.58963,150.82942,76,106,0
150.83452,151.07431,74,90,0
151.07942,151.31921,43,90,0
151.32431,151.56412,52,106,0
151.56921,151.809,50,90,0
151.81412,152.05391,66,90,0
152.059,152.2988,76,106,0
152.30391,152.5437,74,90,0
153.0386,153.2784,55,80,0
153.2835,153.52328,57,80,0
153.5284,153.76819,59,80,0
153.77328,154.01309,60,80,0
154.01819,154.25798,62,80,0
154.26309,154.50288,64,80,0
154.50798,154.74777,66,80,0
154.75288,154.99268,67,80,0
154.99777,155.23758,54,83,0
155.24268,155.48247,55,86,0
155.48758,155.72737,56,90,0
155.73247,155.97227,57,93,0
155.97737,156.21237,58,97,0
156.21738,156.45236,59,100,0
156.45737,156.69237,67,104,0
156.45737,156.69237,59,104,0
156.69737,156.93237,67,107,0
156.69737,156.93237,60,107,0
156.93736,157.17236,67,111,0
156.93736,157.17236,59,111,0
157.17737,157.41237,67,114,0
157.17737,157.41237,60,114,0
157.41737,157.65237,67,118,0
157.41737,157.65237,59,118,0
157.65736,157.90216,67,120,0
157.65736,157.90216,60,120,0
157.90736,158.16281,67,120,0
157.90736,158.16281,59,120,0
158.16824,158.43529,67,120,0
158.16824,158.43529,60,120,0
158.44096,158.70801,60,120,0
158.44096,158.70801,67,120,0
159.2137,159.45848,69,80,0
159.2137,159.45848,67,80,0
159.2137,159.45848,61,80,0
159.9637,160.20848,67,80,0
159.9637,160.20848,62,80,0
159.9637,160.20848,71,80,0
160.7137,160.95848,60,80,0
160.7137,160.95848,57,80,0
160.7137,160.95848,50,80,0
161.4637,161.61473,55,80,0
161.54703,161.69286,59,80,0
161.63036,161.7788,62,80,0
161.7137,161.85172,55,80,0
161.79703,161.92723,59,80,0
161.88036,162.0262,62,80,0
161.9637,162.12254,55,80,0
162.04703,162.18245,59,80,0
162.13036,162.26057,62,80,0
162.2137,162.35172,55,80,0
162.29703,162.43765,59,80,0
162.38036,162.50797,62,80,0
162.4637,162.60432,55,80,0
162.54703,162.67984,59,80,0
162.63036,162.76578,62,80,0
162.7137,162.8413,55,80,0
162.79703,162.93504,59,80,0
162.88036,163.02098,62,80,0
162.9637,163.0939,57,80,0
163.04703,163.17464,60,80,0
163.13036,163.26317,62,80,0
163.2137,163.35692,57,80,0
163.29703,163.42464,60,80,0
163.38036,163.52359,62,80,0
163.4637,163.5991,57,80,0
163.54703,163.68504,60,80,0
163.63036,163.76839,62,80,0
163.7137,163.85172,57,80,0
163.79703,163.94807,60,80,0
163.88036,164.03401,62,80,0
163.9637,164.11214,57,80,0
164.04703,164.18765,60,80,0
164.13036,164.27098,62,80,0
164.2137,164.36214,57,80,0
164.29703,164.43765,60,80,0
164.38036,164.51057,62,80,0
164.4637,164.59651,55,80,0
164.54703,164.67984,59,80,0
164.63036,164.76839,62,80,0
164.7137,164.85432,55,80,0
164.79703,164.92723,59,80,0
164.88036,165.01839,62,80,0
164.9637,165.12776,55,80,0
165.04703,165.18245,59,80,0
165.13036,165.2762,62,80,0
165.2137,165.35953,55,80,0
165.29703,165.44286,59,80,0
165.38036,165.51578,62,80,0
165.4637,165.60953,55,80,0
165.54703,165.67984,59,80,0
165.63036,165.76578,62,80,0
165.7137,165.8491,55,80,0
165.79703,165.93504,59,80,0
165.88036,166.01578,62,80,0
165.9637,166.09651,57,80,0
166.04703,166.18504,60,80,0
166.13036,166.27098,62,80,0
166.2137,166.35432,57,80,0
166.29703,166.44286,60,80,0
166.38036,166.51839,62,80,0
166.4637,166.61214,57,80,0
166.54703,166.68765,60,80,0
166.63036,166.77359,62,80,0
166.7137,166.86995,57,80,0
166.79703,166.94286,60,80,0
166.88036,167.0262,62,80,0
166.9637,167.10692,57,80,0
167.04703,167.19026,60,80,0
167.13036,167.27359,62,80,0
167.2137,167.3439,57,80,0
167.29703,167.44807,60,80,0
167.38036,167.51839,62,80,0
167.4637,167.59651,55,80,0
167.54703,167.68765,59,80,0
167.63036,167.77359,62,80,0
167.7137,167.8491,55,80,0
167.79703,167.92984,59,80,0
167.88036,168.01057,62,80,0
167.9637,168.11473,55,80,0
168.04703,168.20067,59,80,0
168.13036,168.2814,62,80,0
168.2137,168.35432,57,80,0
168.29703,168.44286,60,80,0
168.38036,168.50015,62,80,0
168.4637,168.61995,57,80,0
168.54703,168.71109,60,80,0
168.63036,168.7866,62,80,0
168.7137,168.86734,57,80,0
168.79703,168.95589,60,80,0
168.88036,169.0366,62,80,0
168.9637,169.11995,55,80,0
169.04703,169.18504,59,80,0
169.13036,169.28922,62,80,0
169.2137,169.37515,55,80,0
169.29703,169.44026,59,80,0
169.38036,169.54964,62,80,0
169.4637,169.60953,55,80,0
169.54703,169.68765,59,80,0
169.63036,169.7788,62,80,0
169.7137,169.86473,57,80,0
169.79703,169.96642,60,80,0
169.88036,170.02075,62,80,0
169.9637,170.105,57,80,0
170.05064,170.18652,60,80,0
170.1376,170.28139,62,80,0
170.22456,170.36661,57,80,0
170.31548,170.45183,60,80,0
170.40639,170.49161,62,80,0
170.99728,171.24208,43,80,0
170.99728,171.24208,31,80,0
171.24728,171.49208,45,80,0
171.24728,171.49208,33,80,0
171.49728,171.74208,47,80,0
171.49728,171.74208,35,80,0
171.74728,171.99208,48,80,0
171.74728,171.99208,36,80,0
171.99728,172.24208,50,80,0
171.99728,172.24208,38,80,0
172.24728,172.49208,52,80,0
172.24728,172.49208,40,80,0
172.49728,172.74208,54,80,0
172.49728,172.74208,42,80,0
172.74728,172.99208,55,80,0
172.74728,172.99208,43,80,0
172.99728,173.24208,42,83,0
173.24728,173.49208,43,86,0
173.49728,173.74208,44,90,0
173.74728,173.99208,45,93,0
173.99728,174.24208,46,97,0
174.24728,174.49208,47,100,0
174.49728,174.74208,55,104,0
174.49728,174.74208,47,104,0
174.74728,174.99208,55,107,0
174.74728,174.99208,48,107,0
174.99728,175.24208,55,111,0
174.99728,175.24208,47,111,0
175.24728,175.49208,55,114,0
175.24728,175.49208,48,114,0
175.49728,175.74208,55,118,0
175.49728,175.74208,47,118,0
175.74728,175.99728,55,120,0
175.74728,175.99728,48,120,0
176.00261,176.26372,55,120,0
176.00261,176.26372,47,120,0
176.26927,176.54904,55,120,0
176.26927,176.54904,48,120,0
176.555,176.83475,55,120,0
176.555,176.83475,48,120,0
177.3305,177.5703,57,80,0
177.3305,177.5703,55,80,0
177.3305,177.5703,49,80,0
178.0754,178.32019,55,80,0
178.0754,178.32019,50,80,0
178.0754,178.32019,59,80,0
178.84714,179.10257,60,80,0
178.84714,179.10257,57,80,0
178.84714,179.10257,50,80,0
179.65346,179.81602,43,70,0
179.74205,179.89766,50,70,0
179.82368,179.9793,55,70,0
179.90532,180.06093,43,70,0
179.98694,180.14256,50,70,0
180.06857,180.22418,55,70,0
180.1502,180.30582,43,70,0
180.23184,180.38745,50,70,0
180.31348,180.46909,55,70,0
180.39511,180.55072,43,70,0
180.47675,180.63235,50,70,0
180.55838,180.71399,55,70,0
180.64,180.79562,43,70,0
180.72163,180.87724,50,70,0
180.80327,180.95888,55,70,0
180.8849,181.04051,43,70,0
180.96654,181.12215,50,70,0
181.04817,181.20378,55,70,0
181.1298,181.28542,43,70,0
181.21143,181.36705,50,70,0
181.29306,181.44868,55,70,0
181.3747,181.5303,43,70,0
181.45633,181.61194,50,70,0
181.53796,181.69357,55,70,0
181.6196,181.7752,43,70,0
181.70123,181.85684,50,70,0
181.78287,181.93848,55,70,0
181.86449,182.02011,43,70,0
181.94612,182.10173,50,70,0
182.02776,182.18336,55,70,0
182.10939,182.265,43,70,0
182.19102,182.34663,50,70,0
182.27266,182.42827,55,70,0
182.3543,182.5099,43,70,0
182.43591,182.59154,50,70,0
182.51755,182.67317,55,70,0
182.59918,182.75479,43,70,0
182.68082,182.83643,50,70,0
182.76245,182.91806,55,70,0
182.84409,182.9997,43,70,0
182.92572,183.08133,50,70,0
183.00735,183.16296,55,70,0
183.08897,183.2446,43,70,0
183.17061,183.32622,50,70,0
183.25224,183.40785,55,70,0
183.33388,183.48949,43,70,0
183.41551,183.57112,50,70,0
183.49715,183.65276,55,70,0
183.57878,183.73439,43,70,0
183.6604,183.81602,50,70,0
183.74203,183.89766,55,70,0
183.82367,183.97928,43,70,0
183.9053,184.06091,50,70,0
183.98694,184.14255,55,70,0
184.06857,184.22418,43,70,0
184.1502,184.30582,50,70,0
184.23184,184.38745,55,70,0
184.31346,184.46909,43,70,0
184.3951,184.5507,50,70,0
184.47673,184.63234,55,70,0
184.55836,184.71397,43,70,0
184.64,184.79561,50,70,0
184.72163,184.87724,55,70,0
184.80327,184.95888,43,70,0
184.88489,185.04051,50,70,0
184.96652,185.12215,55,70,0
185.04816,185.20377,43,70,0
185.12979,185.2854,50,70,0
185.21143,185.36703,55,70,0
185.29306,185.44867,43,70,0
185.3747,185.5303,50,70,0
185.45633,185.61194,55,70,0
185.53795,185.69357,43,70,0
185.61958,185.77519,50,70,0
185.70122,185.85683,55,70,0
185.78285,185.93846,43,70,0
185.86449,186.0201,50,70,0
185.94612,186.10173,55,70,0
186.02776,186.18336,43,70,0
186.10938,186.265,50,70,0
186.19101,186.34663,55,70,0
186.27264,186.42825,43,70,0
186.35428,186.50989,50,70,0
186.43591,186.59152,55,70,0
186.51755,186.67316,43,70,0
186.59918,186.75479,50,70,0
186.68082,186.83643,55,70,0
186.76244,186.91806,43,70,0
186.84407,186.99968,50,70,0
186.9257,187.08131,55,70,0
187.00734,187.16295,43,70,0
187.08897,187.24458,50,70,0
187.17061,187.32622,55,70,0
187.25224,187.40785,43,70,0
187.33388,187.48949,50,70,0
187.4155,187.57112,55,70,0
187.49713,187.65274,43,70,0
187.57877,187.73438,50,70,0
187.6604,187.81601,55,70,0
187.74203,187.89764,43,70,0
187.82367,187.97928,50,70,0
187.9053,188.06091,55,70,0
187.98692,188.14255,43,70,0
188.06856,188.22418,50,70,0
188.15019,188.3058,55,70,0
188.23183,188.38744,43,70,0
188.31346,188.46907,50,70,0
188.3951,188.5507,55,70,0
188.47673,188.63234,43,70,0
188.55836,188.71397,50,70,0
188.63998,188.79561,55,70,0
188.72162,188.87723,43,70,0
188.80325,188.95886,50,70,0
188.88489,189.0405,55,70,0
188.96652,189.12213,43,70,0
189.04816,189.20377,50,70,0
189.12979,189.2854,55,70,0
189.21141,189.36703,43,70,0
189.29305,189.44867,50,70,0
189.37468,189.53183,55,70,0
189.45631,189.61517,43,70,0
189.53964,189.6985,50,70,0
189.62299,189.78345,55,70,0
189.70631,189.86855,43,70,0
189.79143,189.95366,50,70,0
189.87653,190.04044,55,70,0
189.96164,190.1274,43,70,0
190.04858,190.21436,50,70,0
190.13554,190.30489,55,70,0
190.2225,190.3958,43,70,0
190.31342,190.48671,50,70,0
190.40433,190.58154,55,70,0
190.49522,190.67677,43,70,0
190.59047,190.77202,50,70,0
190.6857,190.87157,55,70,0
190.78094,191.07469,43,70,0
191.38095,191.52782,33,80,0
191.53094,191.67783,30,80,0
191.68094,192.57469,31,80,0
193.18094,193.4747,31,1,0
