start_time,end_time,note_value,velocity,instrument_program_number
0.0,0.8526777,71,80,0
0.857142,1.7098197,76,80,0
0.857142,1.7098197,64,80,0
1.714284,2.5669618,73,80,0
2.571426,3.4241037,78,80,0
2.571426,3.4241037,66,80,0
3.428568,4.2812457,75,80,0
4.28571,5.1383877,83,80,0
4.28571,5.1383877,71,80,0
5.142852,5.7812443,83,80,0
5.7857084,5.888387,85,80,0
5.8928514,5.9955297,87,80,0
5.999994,6.424101,88,80,0
6.857136,6.9598145,80,80,0
6.9642787,7.066957,76,80,0
7.0714216,7.1741,81,80,0
7.178564,7.281243,78,80,0
7.285707,7.3883853,83,80,0
7.39285,7.495528,80,80,0
7.4999924,7.602671,85,80,0
7.6071353,7.7098136,81,80,0
7.714278,8.138385,83,80,0
8.57142,8.674098,56,80,0
8.678563,8.781241,52,80,0
8.785706,8.888384,57,80,0
8.892848,8.995526,54,80,0
8.999991,9.10267,59,80,0
9.107134,9.209812,56,80,0
9.214276,9.316955,61,80,0
9.32142,9.424098,57,80,0
9.428562,9.852669,59,80,0
10.714275,10.924096,68,80,0
10.92856,11.138382,64,80,0
11.142846,11.352667,69,80,0
11.357132,11.566953,66,80,0
11.571417,11.781239,63,80,0
10.4999895,11.995523,59,80,0
11.785703,11.995523,71,80,0
12.214273,12.316952,73,80,0
12.267845,12.370523,71,80,0
12.321416,12.424095,70,80,0
12.428559,12.63838,80,80,0
12.642844,12.852666,76,80,0
12.85713,13.066951,81,80,0
13.071416,13.281237,78,80,0
13.285701,13.4955225,75,80,0
12.374988,13.709807,71,80,0
13.499987,14.352664,83,80,0
14.357128,14.459807,81,80,0
13.714272,14.56695,71,80,0
14.464272,14.56695,80,80,0
14.571414,14.781236,78,80,0
14.7857,14.995521,76,80,0
14.999985,15.209806,75,80,0
14.571414,15.424091,73,80,0
15.214271,15.424091,73,80,0
15.428556,15.852663,68,80,0
15.857127,16.281233,67,80,0
15.428556,16.709805,64,80,0
15.428556,17.138376,71,80,0
16.285698,17.138376,66,80,0
16.71427,17.138376,63,80,0
17.14284,17.781233,71,80,0
17.785696,17.888374,69,80,0
17.14284,17.995518,59,80,0
17.14284,17.995518,64,80,0
17.89284,17.995518,68,80,0
17.999983,18.209803,66,80,0
18.214268,18.42409,64,80,0
18.428553,18.638374,63,80,0
17.999983,18.85266,61,80,0
18.64284,18.85266,61,80,0
18.857124,19.28123,56,80,0
19.285694,19.709803,55,80,0
18.857124,20.15408,52,80,0
18.857124,20.61544,59,80,0
19.714266,20.61544,54,80,0
20.15871,20.61544,51,80,0
20.620249,21.505892,59,80,0
21.510357,22.363035,64,80,0
21.510357,22.363035,52,80,0
22.367498,23.220177,61,80,0
23.224642,24.077318,66,80,0
23.224642,24.077318,54,80,0
24.081783,24.934462,68,80,0
24.081783,24.934462,56,80,0
24.938925,25.791603,69,85,0
24.938925,25.791603,57,85,0
25.796066,26.648745,70,90,0
25.796066,26.648745,58,90,0
26.65321,27.505886,71,95,0
26.65321,27.505886,59,95,0
27.510351,27.934458,70,110,0
27.510351,28.36303,58,110,0
27.938923,28.36303,66,110,0
28.367493,29.005886,65,110,0
29.01035,29.113028,66,110,0
28.367493,29.220171,74,110,0
29.117493,29.220171,68,110,0
29.224634,29.64874,73,110,0
29.224634,30.077312,61,110,0
29.653206,30.077312,70,110,0
30.081778,30.934454,71,110,0
30.081778,30.934454,65,110,0
30.081778,30.934454,59,110,0
30.93892,31.363026,70,110,0
30.93892,31.791597,58,110,0
31.36749,31.791597,66,110,0
31.79606,32.434452,65,110,0
32.43892,32.541595,66,110,0
31.79606,32.64874,74,110,0
32.54606,32.64874,68,110,0
32.653202,33.07731,73,110,0
32.653202,33.505882,61,110,0
33.081776,33.505882,70,110,0
33.510345,34.14874,71,110,0
34.153202,34.25588,73,110,0
33.510345,34.36302,77,110,0
33.510345,34.36302,68,110,0
34.260345,34.36302,74,110,0
34.36749,34.791595,78,110,0
34.36749,34.791595,73,110,0
34.36749,34.791595,70,110,0
35.22463,35.648735,66,110,0
35.22463,35.648735,61,110,0
35.22463,35.648735,58,110,0
36.08177,36.50588,54,110,0
36.08177,36.50588,49,110,0
36.08177,36.50588,46,110,0
36.93891,37.134747,78,80,0
37.138912,37.334747,76,80,0
37.338913,37.534748,75,80,0
37.538914,37.734745,73,80,0
37.738914,38.534748,71,80,0
38.538914,38.934746,72,80,0
38.93891,39.334747,73,80,0
39.338913,39.734745,74,80,0
39.738914,40.134747,75,80,0
40.138912,40.534748,76,80,0
40.538914,40.934746,78,80,0
40.93891,41.334747,79,80,0
41.338913,42.134747,80,80,0
42.138912,42.934746,78,80,0
41.738914,43.334747,68,80,0
42.93891,43.334747,76,80,0
43.338913,43.434746,75,80,0
43.388912,43.484745,76,80,0
43.43891,43.534748,78,80,0
43.488914,43.534748,76,80,0
43.538914,43.734745,75,80,0
43.738914,43.934746,73,80,0
43.93891,44.134747,71,80,0
44.138912,44.934746,70,80,0
44.93891,45.334747,71,80,0
45.338913,45.734745,72,80,0
45.738914,46.134747,73,80,0
46.138912,46.534748,74,80,0
46.538914,46.934746,75,80,0
46.93891,47.334747,76,80,0
47.338913,47.734745,77,80,0
47.738914,48.534748,78,80,0
48.538914,49.334747,76,80,0
48.138912,49.734745,66,80,0
49.338913,49.734745,75,80,0
51.338913,51.534748,54,80,0
51.538914,51.734745,52,80,0
51.738914,51.934746,51,80,0
51.93891,52.134747,49,80,0
52.138912,52.534748,48,80,0
52.93891,53.134747,78,80,0
53.138912,53.334747,76,80,0
53.338913,53.534748,75,80,0
53.538914,53.734745,73,80,0
53.738914,54.534748,72,80,0
54.538914,55.734745,72,80,0
54.538914,55.734745,75,80,0
54.538914,55.734745,81,80,0
55.738914,56.134747,80,80,0
55.738914,56.134747,76,80,0
55.738914,56.134747,73,80,0
57.738914,57.934746,52,80,0
57.93891,58.134747,51,80,0
58.138912,58.334747,49,80,0
58.338913,58.534748,47,80,0
58.538914,58.934746,46,80,0
59.338913,59.534748,76,80,0
59.538914,59.734745,75,80,0
59.738914,59.934746,73,80,0
59.93891,60.134747,71,80,0
60.138912,60.934746,70,80,0
60.93891,62.134747,70,80,0
60.93891,62.134747,73,80,0
60.93891,62.134747,79,80,0
62.138912,62.534748,78,80,0
62.138912,62.534748,75,80,0
62.138912,62.534748,71,80,0
62.93891,63.334747,78,80,0
62.93891,63.334747,71,80,0
63.338913,63.534748,78,80,0
63.538914,63.601414,80,80,0
63.60558,63.66808,78,80,0
63.672245,63.734745,77,80,0
63.738914,63.934746,78,80,0
63.338913,64.13474,70,80,0
63.93891,64.13474,82,80,0
64.138916,64.534744,83,80,0
64.138916,64.534744,71,80,0
64.53891,64.934746,78,80,0
64.53891,64.934746,71,80,0
64.93891,65.13474,78,80,0
65.138916,65.201416,80,80,0
65.20558,65.26808,78,80,0
65.27225,65.33475,77,80,0
65.33891,65.534744,78,80,0
64.93891,65.73475,70,80,0
65.53891,65.73475,82,80,0
65.738914,66.13474,83,80,0
65.738914,66.13474,71,80,0
66.138916,66.534744,72,80,0
66.138916,66.534744,84,80,0
66.53891,66.934746,73,80,0
66.53891,66.934746,85,80,0
66.93891,67.33475,87,80,0
66.93891,67.33475,75,80,0
67.33891,67.73475,88,80,0
67.33891,67.73475,76,80,0
67.738914,68.13474,90,80,0
67.738914,68.13474,78,80,0
68.138916,68.934746,76,80,0
68.138916,68.934746,88,80,0
68.93891,69.33475,87,80,0
68.93891,69.33475,75,80,0
69.33891,69.73475,78,80,0
69.33891,69.73475,71,80,0
69.738914,69.934746,78,80,0
69.93891,70.00141,80,80,0
70.00558,70.06808,78,80,0
70.07224,70.13474,77,80,0
70.138916,70.33475,78,80,0
69.738914,70.534744,70,80,0
70.33891,70.534744,82,80,0
70.53891,70.934746,83,80,0
70.53891,70.934746,71,80,0
70.93891,71.33475,78,80,0
70.93891,71.33475,71,80,0
71.33891,71.534744,78,80,0
71.53891,71.60141,80,80,0
71.60558,71.66808,78,80,0
71.67225,71.73475,77,80,0
71.738914,71.934746,78,80,0
71.33891,72.13474,70,80,0
71.93891,72.13474,82,80,0
72.138916,72.534744,83,80,0
72.138916,72.534744,71,80,0
72.53891,72.934746,72,80,0
72.53891,72.934746,84,80,0
72.93891,73.33475,85,80,0
72.93891,73.33475,73,80,0
73.33891,73.73475,87,80,0
73.33891,73.73475,75,80,0
73.738914,74.13474,88,80,0
73.738914,74.13474,76,80,0
74.138916,74.534744,82,80,0
74.138916,74.534744,70,80,0
74.53891,74.934746,83,80,0
74.53891,74.934746,71,80,0
74.93891,75.33475,66,110,0
74.93891,75.33475,63,110,0
74.93891,75.73475,59,110,0
75.738914,76.13474,58,110,0
75.33891,76.534744,64,110,0
75.33891,76.534744,67,110,0
76.53891,76.934746,66,110,0
76.53891,76.934746,63,110,0
76.138916,77.33475,59,110,0
76.53891,77.33475,59,110,0
77.33891,77.73475,58,110,0
76.93891,78.13474,64,110,0
76.93891,78.13474,68,110,0
78.138916,78.534744,66,110,0
78.138916,78.534744,63,110,0
77.738914,78.934746,59,110,0
78.138916,78.934746,59,110,0
78.93891,79.33475,58,110,0
78.53891,79.73475,64,110,0
78.53891,79.73475,67,110,0
79.738914,80.13474,66,110,0
79.738914,80.13474,63,110,0
79.33891,80.534744,59,110,0
79.738914,80.534744,59,110,0
80.53891,80.934746,58,110,0
80.138916,81.33475,64,110,0
80.138916,81.33475,68,110,0
81.33891,81.73475,63,80,0
81.33891,81.73475,66,80,0
80.93891,82.13474,59,110,0
81.738914,82.13474,70,80,0
81.738914,82.13474,64,80,0
82.138916,82.534744,71,80,0
82.138916,82.534744,66,80,0
82.53891,83.13474,75,80,0
82.53891,83.33475,68,80,0
82.53891,83.33475,64,80,0
83.138916,83.33475,73,80,0
83.33891,83.73475,71,80,0
83.33891,83.73475,66,80,0
83.738914,84.13474,70,80,0
83.738914,84.13474,66,80,0
84.138916,84.534744,66,80,0
84.53891,84.934746,66,82,0
84.53891,84.934746,71,82,0
84.93891,85.33475,66,85,0
84.93891,85.33475,73,85,0
85.33891,85.73475,66,88,0
85.33891,85.73475,75,88,0
85.738914,86.33475,78,91,0
85.738914,86.534744,68,91,0
86.33891,86.534744,76,95,0
86.53891,86.934746,75,97,0
86.53891,86.934746,66,97,0
86.93891,87.33475,73,99,0
86.93891,87.33475,66,99,0
87.33891,87.778725,78,120,0
87.33891,87.778725,66,120,0
87.783356,88.24009,78,120,0
87.783356,88.24009,71,120,0
87.783356,88.24009,66,120,0
88.244896,88.719894,78,120,0
88.244896,88.719894,73,120,0
88.244896,88.719894,70,120,0
88.244896,88.719894,66,120,0
88.72489,89.21969,78,120,0
88.72489,89.21969,75,120,0
88.72489,89.21969,71,120,0
88.72489,89.21969,66,120,0
89.22489,89.71969,79,120,0
89.22489,89.71969,67,120,0
89.72489,90.21969,80,100,0
89.72489,90.21969,68,100,0
91.72489,92.21969,58,80,0
91.72489,92.21969,52,80,0
93.43918,93.649,59,70,0
93.43918,93.649,51,70,0
93.43918,93.649,47,70,0
93.653465,93.86329,59,70,0
93.653465,93.86329,51,70,0
93.653465,93.86329,47,70,0
93.86775,94.077576,59,70,0
93.86775,94.077576,51,70,0
93.86775,94.077576,47,70,0
94.296326,94.50614,59,70,0
94.296326,94.50614,56,70,0
94.296326,94.50614,47,70,0
94.510605,94.72043,59,70,0
94.510605,94.72043,56,70,0
94.510605,94.72043,47,70,0
94.72489,94.934715,59,70,0
94.72489,94.934715,56,70,0
94.72489,94.934715,47,70,0
95.153465,95.36329,59,70,0
95.153465,95.36329,54,70,0
95.153465,95.36329,47,70,0
95.36775,95.57757,59,70,0
95.36775,95.57757,54,70,0
95.36775,95.57757,47,70,0
95.58204,95.791855,59,70,0
95.58204,95.791855,54,70,0
95.58204,95.791855,47,70,0
96.010605,96.22043,59,70,0
96.010605,96.22043,52,70,0
96.010605,96.22043,47,70,0
96.22489,96.434715,59,70,0
96.22489,96.434715,52,70,0
96.22489,96.434715,47,70,0
96.43918,96.649,59,70,0
96.43918,96.649,52,70,0
96.43918,96.649,47,70,0
96.86775,97.07757,59,70,0
96.86775,97.07757,51,70,0
96.86775,97.07757,47,70,0
97.08203,97.291855,59,70,0
97.08203,97.291855,51,70,0
97.08203,97.291855,47,70,0
97.29632,97.50614,59,70,0
97.29632,97.50614,51,70,0
97.29632,97.50614,47,70,0
97.72489,97.934715,59,70,0
97.72489,97.934715,58,70,0
97.72489,97.934715,49,70,0
97.72489,97.934715,47,70,0
97.93918,98.148994,59,70,0
97.93918,98.148994,58,70,0
97.93918,98.148994,49,70,0
97.93918,98.148994,47,70,0
98.153465,98.36328,59,70,0
98.153465,98.36328,58,70,0
98.153465,98.36328,49,70,0
98.153465,98.36328,47,70,0
98.58203,98.791855,59,70,0
98.58203,98.791855,47,70,0
98.79632,99.00614,59,70,0
98.79632,99.00614,47,70,0
99.010605,99.22043,59,70,0
99.010605,99.22043,47,70,0
99.43917,99.648994,57,70,0
99.43917,99.648994,51,70,0
99.43917,99.648994,47,70,0
99.43917,99.648994,59,70,0
99.65346,99.86328,57,70,0
99.65346,99.86328,51,70,0
99.65346,99.86328,47,70,0
99.65346,99.86328,59,70,0
99.867744,100.07757,57,70,0
99.867744,100.07757,51,70,0
99.867744,100.07757,47,70,0
99.867744,100.07757,59,70,0
100.08203,100.93471,71,80,0
100.93917,101.79185,76,80,0
100.93917,101.79185,64,80,0
101.79632,102.648994,73,80,0
102.65346,103.506134,78,80,0
102.65346,103.506134,66,80,0
103.5106,104.36327,75,80,0
104.367744,105.22042,83,80,0
104.367744,105.22042,71,80,0
105.224884,105.86327,83,80,0
105.86774,105.97042,85,80,0
105.974884,106.07756,87,80,0
106.08202,106.506134,88,80,0
106.93916,107.04185,80,80,0
107.04631,107.14899,76,80,0
107.15345,107.256134,81,80,0
107.2606,107.36327,78,80,0
107.36774,107.47041,83,80,0
107.474884,107.57756,80,80,0
107.58202,107.6847,85,80,0
107.68916,107.79185,81,80,0
107.79631,108.22041,83,80,0
108.65345,108.75613,56,80,0
108.7606,108.86327,52,80,0
108.86774,108.97041,57,80,0
108.97488,109.07756,54,80,0
109.08202,109.1847,59,80,0
109.18916,109.29184,56,80,0
109.29631,109.39899,61,80,0
109.40345,109.50613,57,80,0
109.51059,109.9347,59,80,0
110.7963,111.00613,68,80,0
111.01059,111.22041,64,80,0
111.22488,111.4347,69,80,0
111.43916,111.64899,66,80,0
111.65345,111.863266,63,80,0
110.58202,112.07755,59,80,0
111.86774,112.07755,71,80,0
112.2963,112.39898,73,80,0
112.34988,112.45255,71,80,0
112.40345,112.50613,70,80,0
112.51059,112.72041,80,80,0
112.72488,112.9347,76,80,0
112.93916,113.14898,81,80,0
113.15345,113.363266,78,80,0
113.36773,113.57755,75,80,0
112.457016,113.79184,71,80,0
113.582016,114.43469,83,80,0
114.43916,114.54184,81,80,0
113.7963,114.64898,71,80,0
114.5463,114.64898,80,80,0
114.65344,114.863266,78,80,0
114.86773,115.07755,76,80,0
115.082016,115.29184,75,80,0
114.65344,115.50613,73,80,0
115.2963,115.50613,73,80,0
115.51059,115.93469,68,80,0
115.939156,116.363266,67,80,0
115.51059,116.79183,64,80,0
115.51059,117.220406,71,80,0
116.36773,117.220406,66,80,0
116.7963,117.220406,63,80,0
117.22487,117.863266,71,80,0
117.86773,117.970406,69,80,0
117.22487,118.077545,59,80,0
117.22487,118.077545,64,80,0
117.97487,118.077545,68,80,0
118.082016,118.29183,66,80,0
118.296295,118.50612,64,80,0
118.51058,118.720406,63,80,0
118.082016,118.93469,61,80,0
118.72487,118.93469,61,80,0
118.939156,119.36326,56,80,0
119.36773,119.79183,55,80,0
118.939156,120.236115,52,80,0
118.939156,120.69747,59,80,0
119.796295,120.69747,54,80,0
120.24074,120.69747,51,80,0
120.70228,121.58792,59,80,0
121.592384,122.44507,64,80,0
121.592384,122.44507,52,80,0
122.44953,123.30221,61,80,0
123.30667,124.15935,66,80,0
123.30667,124.15935,54,80,0
124.16381,125.016495,68,80,0
124.16381,125.016495,56,80,0
125.02096,125.873634,69,85,0
125.02096,125.873634,57,85,0
125.8781,126.730774,70,90,0
125.8781,126.730774,58,90,0
126.73524,127.58792,71,95,0
126.73524,127.58792,59,95,0
127.592384,128.0165,70,110,0
127.592384,128.44505,58,110,0
128.02095,128.44505,66,110,0
128.44952,129.08792,65,90,0
129.09238,129.19505,66,90,0
128.44952,129.3022,74,90,0
129.19952,129.3022,68,90,0
129.30667,129.73077,73,90,0
129.30667,130.15935,61,90,0
129.73523,130.15935,70,90,0
130.1638,131.01648,71,110,0
130.1638,131.01648,65,110,0
130.1638,131.01648,59,110,0
131.02095,131.44505,70,110,0
131.02095,131.87363,58,110,0
131.44952,131.87363,66,110,0
131.8781,132.51648,65,90,0
132.52095,132.62363,66,90,0
131.8781,132.73077,74,90,0
132.6281,132.73077,68,90,0
132.73523,133.15935,73,90,0
132.73523,133.5879,61,90,0
133.1638,133.5879,70,90,0
133.59238,134.23077,71,110,0
134.23523,134.3379,73,110,0
133.59238,134.44505,77,110,0
133.59238,134.44505,68,110,0
134.34238,134.44505,74,110,0
134.44952,134.87363,78,110,0
134.44952,134.87363,73,110,0
134.44952,134.87363,70,110,0
135.30666,135.73077,66,110,0
135.30666,135.73077,61,110,0
135.30666,135.73077,58,110,0
136.1638,136.5879,54,110,0
136.1638,136.5879,49,110,0
136.1638,136.5879,46,110,0
137.02095,137.23076,78,80,0
137.23523,137.44505,76,80,0
137.44951,137.65933,75,80,0
137.6638,137.87363,73,80,0
137.87808,138.73076,71,80,0
138.73523,139.15933,72,80,0
139.1638,139.5879,73,80,0
139.59238,140.01648,74,80,0
140.02094,140.44505,75,80,0
140.44951,140.87361,76,80,0
140.87808,141.30219,78,80,0
141.30666,141.73076,79,80,0
141.73523,142.5879,80,80,0
142.59236,143.44504,78,80,0
142.1638,143.87361,68,80,0
143.44951,143.87361,76,80,0
143.87808,143.98076,75,80,0
143.93166,144.03433,76,80,0
143.98523,144.0879,78,80,0
144.03879,144.0879,76,80,0
144.09236,144.30219,75,80,0
144.30666,144.51648,73,80,0
144.52094,144.73076,71,80,0
144.73523,145.5879,70,80,0
145.59236,146.01646,71,80,0
146.02094,146.44504,72,80,0
146.44951,146.87361,73,80,0
146.87808,147.30219,74,80,0
147.30664,147.73076,75,80,0
147.73521,148.15933,76,80,0
148.16379,148.58789,77,80,0
148.59236,149.44504,78,80,0
149.44951,150.30219,76,80,0
149.02094,150.73076,66,80,0
150.30664,150.73076,75,80,0
152.4495,152.65932,54,80,0
152.66379,152.87361,52,80,0
152.87807,153.08789,51,80,0
153.09236,153.30219,49,80,0
153.30664,153.73074,48,80,0
154.16379,154.37361,78,80,0
154.37807,154.58789,76,80,0
154.59236,154.80217,75,80,0
154.80664,155.01646,73,80,0
155.02092,155.8736,72,80,0
155.87807,157.15932,72,80,0
155.87807,157.15932,75,80,0
155.87807,157.15932,81,80,0
157.16379,157.58789,80,80,0
157.16379,157.58789,76,80,0
157.16379,157.58789,73,80,0
159.30664,159.51646,52,80,0
159.52092,159.73074,51,80,0
159.73521,159.94502,49,80,0
159.9495,160.15932,47,80,0
160.16377,160.58789,46,80,0
161.02092,161.23074,76,80,0
161.2352,161.44502,75,80,0
161.4495,161.65932,73,80,0
161.66377,161.8736,71,80,0
161.87807,162.73074,70,80,0
162.7352,164.01645,70,80,0
162.7352,164.01645,73,80,0
162.7352,164.01645,79,80,0
164.02092,164.44502,78,80,0
164.02092,164.44502,75,80,0
164.02092,164.44502,71,80,0
164.87805,165.30217,78,80,0
164.87805,165.30217,71,80,0
165.30663,165.51645,78,80,0
165.52092,165.58788,80,80,0
165.59235,165.6593,78,80,0
165.66377,165.73074,77,80,0
165.7352,165.94502,78,80,0
165.30663,166.1593,70,80,0
165.9495,166.1593,82,80,0
166.16377,166.58788,83,80,0
166.16377,166.58788,71,80,0
166.59235,167.01645,78,80,0
166.59235,167.01645,71,80,0
167.02092,167.23073,78,80,0
167.2352,167.30217,80,80,0
167.30663,167.3736,78,80,0
167.37805,167.44502,77,80,0
167.44948,167.6593,78,80,0
167.02092,167.8736,70,80,0
167.66377,167.8736,82,80,0
167.87805,168.30217,83,80,0
167.87805,168.30217,71,80,0
168.30663,168.73073,72,80,0
168.30663,168.73073,84,80,0
168.7352,169.1593,73,80,0
168.7352,169.1593,85,80,0
169.16377,169.58788,87,80,0
169.16377,169.58788,75,80,0
169.59235,170.01645,88,80,0
169.59235,170.01645,76,80,0
170.0209,170.44502,90,80,0
170.0209,170.44502,78,80,0
170.44948,171.30215,76,80,0
170.44948,171.30215,88,80,0
171.30663,171.73073,87,80,0
171.30663,171.73073,75,80,0
171.7352,172.1593,78,80,0
171.7352,172.1593,71,80,0
172.16377,172.37358,78,80,0
172.37805,172.44502,80,80,0
172.44948,172.51645,78,80,0
172.5209,172.58788,77,80,0
172.59233,172.80215,78,80,0
172.16377,173.01645,70,80,0
172.80663,173.01645,82,80,0
173.0209,173.445,83,80,0
173.0209,173.445,71,80,0
173.44948,173.87358,78,80,0
173.44948,173.87358,71,80,0
173.87805,174.08788,78,80,0
174.09233,174.1593,80,80,0
174.16376,174.23073,78,80,0
174.2352,174.30215,77,80,0
174.30663,174.51645,78,80,0
173.87805,174.73073,70,80,0
174.5209,174.73073,82,80,0
174.7352,175.1593,83,80,0
174.7352,175.1593,71,80,0
175.16376,175.58788,72,80,0
175.16376,175.58788,84,80,0
175.59233,176.01643,85,80,0
175.59233,176.01643,73,80,0
176.0209,176.445,87,80,0
176.0209,176.445,75,80,0
176.44948,176.87358,88,80,0
176.44948,176.87358,76,80,0
176.87805,177.30215,82,80,0
176.87805,177.30215,70,80,0
177.30663,177.73073,83,80,0
177.30663,177.73073,71,80,0
177.73518,178.1593,66,110,0
177.73518,178.1593,63,110,0
177.73518,178.58786,59,110,0
178.59233,179.01643,58,110,0
178.16376,179.445,64,110,0
178.16376,179.445,67,110,0
179.44948,179.87358,66,110,0
179.44948,179.87358,63,110,0
179.0209,180.30215,59,110,0
179.44948,180.30215,59,110,0
180.30661,180.73073,58,110,0
179.87804,181.15929,64,110,0
179.87804,181.15929,68,110,0
181.16376,181.58786,66,110,0
181.16376,181.58786,63,110,0
180.73518,182.01643,59,110,0
181.16376,182.01643,59,110,0
182.0209,182.445,58,110,0
181.59233,182.87358,64,110,0
181.59233,182.87358,67,110,0
182.87804,183.30215,66,110,0
182.87804,183.30215,63,110,0
182.44946,183.73071,59,110,0
182.87804,183.73071,59,110,0
183.73518,184.15929,58,110,0
183.30661,184.58786,64,110,0
183.30661,184.58786,68,110,0
184.59233,185.01643,63,80,0
184.59233,185.01643,66,80,0
184.16376,185.445,59,110,0
185.02089,185.445,70,80,0
185.02089,185.445,64,80,0
185.44946,185.87358,71,80,0
185.44946,185.87358,66,80,0
185.87804,186.51643,75,80,0
185.87804,186.73071,68,80,0
185.87804,186.73071,64,80,0
186.52089,186.73071,73,80,0
186.73518,187.15929,71,80,0
186.73518,187.15929,66,80,0
187.16376,187.58786,70,80,0
187.16376,187.58786,66,80,0
187.59232,188.01643,66,80,0
188.02089,188.445,66,86,0
188.02089,188.445,71,86,0
188.44946,188.87357,66,93,0
188.44946,188.87357,73,93,0
188.87804,189.30214,66,99,0
188.87804,189.30214,75,99,0
189.30661,189.94499,78,110,0
189.30661,190.15929,68,110,0
189.94946,190.15929,76,110,0
190.16374,190.58786,75,110,0
190.16374,190.58786,66,110,0
190.59232,191.01642,73,110,0
190.59232,191.01642,66,110,0
191.02089,191.46071,78,120,0
191.02089,191.46071,66,120,0
191.46533,191.92206,78,120,0
191.46533,191.92206,71,120,0
191.46533,191.92206,66,120,0
191.92686,192.40187,78,120,0
191.92686,192.40187,73,120,0
191.92686,192.40187,70,120,0
191.92686,192.40187,66,120,0
192.40688,192.90166,78,120,0
192.40688,192.90166,75,120,0
192.40688,192.90166,71,120,0
192.40688,192.90166,66,120,0
192.90688,193.40166,79,120,0
192.90688,193.40166,67,120,0
193.40688,193.90166,80,120,0
193.40688,193.90166,68,120,0
195.40688,195.90166,58,80,0
195.40688,195.90166,52,80,0
197.12115,197.33098,59,70,0
197.12115,197.33098,51,70,0
197.12115,197.33098,47,70,0
197.33545,197.54526,59,70,0
197.33545,197.54526,51,70,0
197.33545,197.54526,47,70,0
197.54973,197.75955,59,70,0
197.54973,197.75955,51,70,0
197.54973,197.75955,47,70,0
197.9783,198.18813,59,70,0
197.9783,198.18813,56,70,0
197.9783,198.18813,47,70,0
198.19258,198.4024,59,70,0
198.19258,198.4024,56,70,0
198.19258,198.4024,47,70,0
198.40688,198.6167,59,70,0
198.40688,198.6167,56,70,0
198.40688,198.6167,47,70,0
198.83543,199.04526,59,70,0
198.83543,199.04526,54,70,0
198.83543,199.04526,47,70,0
199.04973,199.25955,59,70,0
199.04973,199.25955,54,70,0
199.04973,199.25955,47,70,0
199.264,199.47383,59,70,0
199.264,199.47383,54,70,0
199.264,199.47383,47,70,0
199.69258,199.9024,59,70,0
199.69258,199.9024,52,70,0
199.69258,199.9024,47,70,0
199.90688,200.11668,59,70,0
199.90688,200.11668,52,70,0
199.90688,200.11668,47,70,0
200.12115,200.33098,59,70,0
200.12115,200.33098,52,70,0
200.12115,200.33098,47,70,0
200.54973,200.75955,59,70,0
200.54973,200.75955,51,70,0
200.54973,200.75955,47,70,0
200.764,200.97383,59,70,0
200.764,200.97383,51,70,0
200.764,200.97383,47,70,0
200.9783,201.18811,59,70,0
200.9783,201.18811,51,70,0
200.9783,201.18811,47,70,0
201.40686,201.61668,59,70,0
201.40686,201.61668,58,70,0
201.40686,201.61668,49,70,0
201.40686,201.61668,47,70,0
201.62115,201.83098,59,70,0
201.62115,201.83098,58,70,0
201.62115,201.83098,49,70,0
201.62115,201.83098,47,70,0
201.83543,202.04526,59,70,0
201.83543,202.04526,58,70,0
201.83543,202.04526,49,70,0
201.83543,202.04526,47,70,0
202.264,202.47383,59,70,0
202.264,202.47383,47,70,0
202.4783,202.68811,59,70,0
202.4783,202.68811,47,70,0
202.69258,202.9024,59,70,0
202.69258,202.9024,47,70,0
203.12115,203.33098,57,70,0
203.12115,203.33098,51,70,0
203.12115,203.33098,47,70,0
203.12115,203.33098,59,70,0
203.33543,203.54526,57,70,0
203.33543,203.54526,51,70,0
203.33543,203.54526,47,70,0
203.33543,203.54526,59,70,0
203.54973,203.75954,57,70,0
203.54973,203.75954,51,70,0
203.54973,203.75954,47,70,0
203.54973,203.75954,59,70,0
203.764,204.61668,71,80,0
204.62115,205.47383,76,83,0
204.62115,205.47383,64,83,0
205.47829,206.33096,72,87,0
206.33543,207.18811,65,91,0
206.33543,208.04526,77,91,0
207.19258,208.04526,71,95,0
208.04971,208.90239,71,99,0
208.04971,208.90239,83,99,0
208.90686,209.75954,74,103,0
208.90686,209.75954,86,103,0
209.764,210.66518,89,107,0
209.764,210.66518,77,107,0
210.66998,211.95123,76,112,0
210.66998,211.95123,88,113,0
211.9557,212.16551,86,80,0
211.9557,212.16551,74,80,0
212.16998,212.3798,84,80,0
212.16998,212.3798,72,80,0
212.38426,212.59409,83,80,0
212.38426,212.59409,71,80,0
212.59856,212.80838,81,80,0
212.59856,212.80838,69,80,0
212.81284,213.02266,80,80,0
212.81284,213.02266,68,80,0
213.02713,213.23694,81,80,0
213.02713,213.23694,69,80,0
213.24141,213.45123,80,80,0
213.24141,213.45123,68,80,0
213.45569,213.66551,81,80,0
213.45569,213.66551,69,80,0
213.66998,213.8798,83,80,0
213.66998,213.8798,71,80,0
213.88426,214.09409,81,80,0
213.88426,214.09409,69,80,0
214.09856,215.3798,81,80,0
214.09856,215.3798,69,80,0
215.38426,215.59409,86,80,0
215.38426,215.59409,74,80,0
215.59856,215.80836,84,80,0
215.59856,215.80836,72,80,0
215.81284,216.02266,83,80,0
215.81284,216.02266,71,80,0
216.02711,216.23694,81,80,0
216.02711,216.23694,69,80,0
216.24141,216.45123,80,80,0
216.24141,216.45123,68,80,0
216.45569,216.66551,81,80,0
216.45569,216.66551,69,80,0
216.66998,216.8798,80,80,0
216.66998,216.8798,68,80,0
216.88426,217.09409,81,80,0
216.88426,217.09409,69,80,0
217.09856,217.30836,83,80,0
217.09856,217.30836,71,80,0
217.31284,217.52266,81,80,0
217.31284,217.52266,69,80,0
217.52711,218.59409,69,80,0
217.52711,218.59409,81,80,0
218.59854,218.80836,88,86,0
218.59854,218.80836,76,86,0
218.81284,219.02266,86,87,0
218.81284,219.02266,74,87,0
219.02711,219.23694,84,89,0
219.02711,219.23694,72,89,0
219.24141,219.45122,83,90,0
219.24141,219.45122,71,90,0
219.45569,219.66551,81,91,0
219.45569,219.66551,69,91,0
219.66997,219.87979,80,92,0
219.66997,219.87979,68,92,0
219.88426,220.09409,81,94,0
219.88426,220.09409,69,94,0
220.09854,220.30836,80,95,0
220.09854,220.30836,68,95,0
220.31284,220.52266,81,96,0
220.31284,220.52266,69,96,0
220.52711,220.73694,83,98,0
220.52711,220.73694,71,98,0
220.74141,220.95122,81,99,0
220.74141,220.95122,69,99,0
220.95569,222.23694,81,80,0
220.95569,222.23694,69,80,0
222.2414,222.45122,80,87,0
222.2414,222.45122,68,87,0
222.45569,222.66551,81,89,0
222.45569,222.66551,69,89,0
222.66997,222.87979,80,90,0
222.66997,222.87979,68,90,0
222.88426,223.09409,81,91,0
222.88426,223.09409,69,91,0
223.09854,223.30836,83,92,0
223.09854,223.30836,71,92,0
223.31284,223.52264,81,94,0
223.31284,223.52264,69,94,0
223.52711,223.73694,80,95,0
223.52711,223.73694,68,95,0
223.7414,223.95122,81,96,0
223.7414,223.95122,69,96,0
223.95569,224.16551,83,98,0
223.95569,224.16551,71,98,0
224.16997,224.37979,84,99,0
224.16997,224.37979,72,99,0
224.38426,225.66551,72,100,0
224.38426,225.66551,84,100,0
225.66997,225.87979,74,97,0
225.66997,225.87979,86,97,0
225.88426,226.09407,76,96,0
225.88426,226.09407,88,96,0
226.09854,226.52264,88,95,0
226.09854,226.52264,76,95,0
226.52711,227.37979,77,94,0
226.52711,227.37979,89,94,0
227.38425,227.80836,71,91,0
227.38425,227.80836,83,91,0
227.81282,229.09407,72,80,0
227.81282,229.09407,84,80,0
229.09854,229.30836,67,80,0
229.09854,229.30836,79,80,0
229.31282,229.52264,65,80,0
229.31282,229.52264,77,80,0
229.52711,229.73692,77,80,0
229.52711,229.73692,65,80,0
229.7414,229.95122,76,80,0
229.7414,229.95122,64,80,0
229.95567,230.1655,75,80,0
229.95567,230.1655,63,80,0
230.16997,230.37979,76,80,0
230.16997,230.37979,64,80,0
230.38425,230.59407,75,80,0
230.38425,230.59407,63,80,0
230.59854,230.80835,76,80,0
230.59854,230.80835,64,80,0
230.81282,231.02264,77,80,0
230.81282,231.02264,65,80,0
231.0271,231.23692,76,80,0
231.0271,231.23692,64,80,0
231.2414,232.52264,76,80,0
231.2414,232.52264,64,80,0
232.5271,232.73692,67,80,0
232.5271,232.73692,79,80,0
232.7414,232.95122,66,80,0
232.7414,232.95122,78,80,0
232.95567,233.1655,78,80,0
232.95567,233.1655,66,80,0
233.16997,233.37978,76,80,0
233.16997,233.37978,64,80,0
233.38425,233.59407,75,80,0
233.38425,233.59407,63,80,0
233.59853,233.80835,76,80,0
233.59853,233.80835,64,80,0
233.81282,234.02264,75,80,0
233.81282,234.02264,63,80,0
234.0271,234.23692,76,80,0
234.0271,234.23692,64,80,0
234.2414,234.45122,78,80,0
234.2414,234.45122,66,80,0
234.45567,234.6655,76,80,0
234.45567,234.6655,64,80,0
234.66995,235.9512,76,80,0
234.66995,235.9512,64,80,0
235.95567,236.37978,76,110,0
235.95567,236.37978,88,110,0
236.38425,237.4512,76,110,0
236.38425,237.4512,88,110,0
237.45567,237.6655,67,80,0
237.45567,237.6655,79,80,0
237.66995,237.87978,78,80,0
237.66995,237.87978,66,80,0
237.88425,238.09407,76,80,0
237.88425,238.09407,64,80,0
238.09853,238.30835,75,80,0
238.09853,238.30835,63,80,0
238.31282,238.52263,71,80,0
238.31282,238.52263,63,80,0
238.31282,238.52263,59,80,0
238.5271,238.73692,71,80,0
238.5271,238.73692,63,80,0
238.5271,238.73692,59,80,0
238.74138,238.9512,71,80,0
238.74138,238.9512,63,80,0
238.74138,238.9512,59,80,0
239.16995,239.37978,71,80,0
239.16995,239.37978,67,80,0
239.16995,239.37978,59,80,0
239.38425,239.59406,71,80,0
239.38425,239.59406,67,80,0
239.38425,239.59406,59,80,0
239.59853,239.80835,71,80,0
239.59853,239.80835,67,80,0
239.59853,239.80835,59,80,0
240.0271,240.23692,71,80,0
240.0271,240.23692,66,80,0
240.0271,240.23692,59,80,0
240.24138,240.4512,71,80,0
240.24138,240.4512,66,80,0
240.24138,240.4512,59,80,0
240.45567,240.6655,71,80,0
240.45567,240.6655,66,80,0
240.45567,240.6655,59,80,0
240.88425,241.09406,71,80,0
240.88425,241.09406,64,80,0
240.88425,241.09406,59,80,0
241.09853,241.30835,71,80,0
241.09853,241.30835,64,80,0
241.09853,241.30835,59,80,0
241.3128,241.52263,71,80,0
241.3128,241.52263,64,80,0
241.3128,241.52263,59,80,0
241.74138,241.9512,63,80,0
241.95567,242.16548,63,80,0
241.5271,242.37978,71,80,0
242.16995,242.37978,63,80,0
242.59853,242.80835,64,80,0
242.59853,242.80835,67,80,0
242.8128,243.02263,64,80,0
242.8128,243.02263,67,80,0
242.38423,243.23692,76,80,0
243.0271,243.23692,64,80,0
243.0271,243.23692,67,80,0
243.45566,243.66548,63,80,0
243.45566,243.66548,66,80,0
243.66995,243.87978,63,80,0
243.66995,243.87978,66,80,0
243.24138,244.09406,75,80,0
243.88423,244.09406,63,80,0
243.88423,244.09406,66,80,0
244.3128,244.52263,64,80,0
244.3128,244.52263,61,80,0
244.5271,244.73691,64,80,0
244.5271,244.73691,61,80,0
244.09853,244.9512,70,80,0
244.74138,244.9512,64,80,0
244.74138,244.9512,61,80,0
245.16995,245.37978,71,80,0
245.16995,245.37978,63,80,0
245.16995,245.37978,59,80,0
245.38423,245.59406,71,80,0
245.38423,245.59406,63,80,0
245.38423,245.59406,59,80,0
245.59853,245.80833,71,80,0
245.59853,245.80833,63,80,0
245.59853,245.80833,59,80,0
246.02708,246.23691,71,80,0
246.02708,246.23691,67,80,0
246.02708,246.23691,59,80,0
246.24138,246.4512,71,80,0
246.24138,246.4512,67,80,0
246.24138,246.4512,59,80,0
246.45566,246.66548,71,80,0
246.45566,246.66548,67,80,0
246.45566,246.66548,59,80,0
246.88423,247.09406,71,80,0
246.88423,247.09406,66,80,0
246.88423,247.09406,59,80,0
247.09853,247.30833,71,80,0
247.09853,247.30833,66,80,0
247.09853,247.30833,59,80,0
247.3128,247.52263,71,80,0
247.3128,247.52263,66,80,0
247.3128,247.52263,59,80,0
247.74138,247.9512,71,80,0
247.74138,247.9512,64,80,0
247.74138,247.9512,59,80,0
247.95566,248.16548,71,80,0
247.95566,248.16548,64,80,0
247.95566,248.16548,59,80,0
248.16995,248.37976,71,80,0
248.16995,248.37976,64,80,0
248.16995,248.37976,59,80,0
248.59851,248.80833,63,80,0
248.8128,249.02263,63,80,0
248.38423,249.23691,71,80,0
249.02708,249.23691,63,80,0
249.45566,249.66548,64,80,0
249.45566,249.66548,67,80,0
249.66995,249.87976,64,80,0
249.66995,249.87976,67,80,0
249.24138,250.09406,76,80,0
249.88423,250.09406,64,80,0
249.88423,250.09406,67,80,0
250.3128,250.52263,63,80,0
250.3128,250.52263,66,80,0
250.52708,250.73691,63,80,0
250.52708,250.73691,66,80,0
250.09851,250.95119,75,80,0
250.74138,250.95119,63,80,0
250.74138,250.95119,66,80,0
251.16994,251.37976,64,80,0
251.16994,251.37976,61,80,0
251.38423,251.59406,64,80,0
251.38423,251.59406,61,80,0
250.95566,251.80833,70,80,0
251.59851,251.80833,64,80,0
251.59851,251.80833,61,80,0
252.02708,252.23691,63,81,0
252.02708,252.23691,59,81,0
252.24136,252.45119,63,82,0
252.24136,252.45119,59,82,0
251.8128,252.66548,71,80,0
252.45566,252.66548,63,83,0
252.45566,252.66548,59,83,0
252.88423,253.09406,61,86,0
252.88423,253.09406,64,86,0
253.09851,253.30833,61,87,0
253.09851,253.30833,64,87,0
252.66994,253.52261,69,85,0
253.3128,253.52261,61,89,0
253.3128,253.52261,64,89,0
253.74136,253.95119,64,91,0
253.74136,253.95119,59,91,0
253.95566,254.16548,64,93,0
253.95566,254.16548,59,93,0
253.52708,254.37976,68,90,0
254.16994,254.37976,64,94,0
254.16994,254.37976,59,94,0
254.59851,254.80833,63,97,0
254.59851,254.80833,57,97,0
254.81279,255.02261,63,98,0
254.81279,255.02261,57,98,0
254.38423,255.23691,66,95,0
255.02708,255.23691,63,99,0
255.02708,255.23691,57,99,0
255.24136,256.09406,71,110,0
255.24136,256.09406,68,110,0
255.24136,256.09406,64,110,0
255.24136,256.09406,59,110,0
256.0985,256.9512,76,110,0
256.0985,256.9512,71,110,0
256.0985,256.9512,68,110,0
256.0985,256.9512,64,110,0
256.95566,257.80832,73,110,0
256.95566,257.80832,69,110,0
257.8128,258.66547,78,110,0
257.8128,258.66547,73,110,0
257.8128,258.66547,69,110,0
258.66992,259.5226,75,110,0
258.66992,259.5226,71,110,0
258.66992,259.5226,69,110,0
259.52707,259.95117,83,110,0
259.52707,259.95117,81,110,0
259.52707,259.95117,78,110,0
259.95566,260.37976,83,110,0
259.95566,260.37976,81,110,0
259.95566,260.37976,78,110,0
260.38422,261.0226,83,110,0
261.02707,261.12976,85,110,0
261.13422,261.2369,87,110,0
260.38422,261.66547,80,110,0
261.24136,261.66547,88,110,0
262.0985,262.20117,80,80,0
262.20566,262.30832,76,80,0
262.31277,262.41547,81,80,0
262.41992,262.5226,78,80,0
262.52707,262.62976,83,80,0
262.63422,262.7369,80,80,0
262.74136,262.84402,85,80,0
262.8485,262.95117,81,80,0
262.95566,263.37976,83,80,0
263.81277,263.91547,56,80,0
263.91992,264.0226,52,80,0
264.02707,264.12976,57,80,0
264.13422,264.2369,54,80,0
264.24136,264.34402,59,80,0
264.3485,264.45117,56,80,0
264.45566,264.55832,61,80,0
264.56277,264.66547,57,80,0
264.66992,265.09402,59,80,0
265.95566,266.16547,68,80,0
266.16992,266.37976,64,80,0
266.38422,266.59402,69,80,0
266.5985,266.80832,66,80,0
266.81277,267.0226,63,80,0
265.74136,267.23688,59,80,0
267.02707,267.23688,71,80,0
267.45563,267.55832,73,80,0
267.50922,267.61188,71,80,0
267.56277,267.66547,70,80,0
267.66992,267.87976,80,80,0
267.88422,268.09402,76,80,0
268.0985,268.30832,81,80,0
268.31277,268.5226,78,80,0
268.52707,268.73688,75,80,0
267.61636,268.95117,71,80,0
268.74136,269.59402,83,80,0
269.5985,269.70117,81,80,0
268.95563,269.80832,71,80,0
269.70563,269.80832,80,80,0
269.81277,270.0226,78,80,0
270.02707,270.23688,76,80,0
270.24136,270.45117,75,80,0
269.81277,270.66547,73,80,0
270.45563,270.66547,73,80,0
270.66992,271.09402,68,80,0
271.09848,271.5226,67,80,0
270.66992,271.95117,64,80,0
270.66992,272.37973,71,80,0
271.52707,272.37973,66,80,0
271.95563,272.37973,63,80,0
272.38422,273.0226,71,80,0
273.02707,273.12973,69,80,0
272.38422,273.23688,59,80,0
272.38422,273.23688,64,80,0
273.13422,273.23688,68,80,0
273.24136,273.45117,66,80,0
273.45563,273.66547,64,80,0
273.66992,273.87973,63,80,0
273.24136,274.09402,61,80,0
273.88422,274.09402,61,80,0
274.09848,274.5226,56,80,0
274.52707,274.95117,55,80,0
274.09848,275.41235,52,80,0
274.09848,275.91196,59,80,0
274.95563,275.91196,54,80,0
275.41718,275.91196,51,80,0
275.91718,276.80557,55,70,0
275.91718,276.80557,52,70,0
276.81003,277.66272,55,70,0
276.81003,277.66272,52,70,0
276.81003,277.66272,60,70,0
277.66718,278.51984,59,70,0
277.66718,278.51984,53,70,0
277.66718,278.51984,50,70,0
278.52432,279.37698,65,70,0
278.52432,279.37698,62,70,0
278.52432,279.37698,59,70,0
278.52432,279.37698,55,70,0
279.4886,279.59128,64,71,0
279.59573,279.69843,65,73,0
279.70288,279.80557,67,75,0
279.81003,279.9127,69,77,0
279.91718,280.01984,71,79,0
280.02432,280.12698,72,81,0
280.13144,280.23413,74,83,0
280.2386,280.44843,76,85,0
280.45288,280.55557,77,89,0
280.56003,280.6627,79,91,0
280.66718,280.76984,81,93,0
280.77432,280.87698,83,95,0
280.88144,280.98413,84,97,0
280.9886,281.09128,86,99,0
281.09573,281.51984,88,110,0
281.52432,281.62698,75,110,0
281.63144,281.73413,76,110,0
281.7386,281.84128,75,110,0
281.84573,281.94843,76,110,0
281.95288,282.05557,63,110,0
282.06003,282.1627,64,110,0
282.16718,282.26984,63,110,0
282.27432,282.37698,64,110,0
282.38144,282.48413,63,110,0
282.4886,282.59128,64,110,0
282.59573,282.69843,67,110,0
282.70288,282.80557,64,110,0
282.81003,283.23413,63,110,0
283.2386,283.6627,59,110,0
283.66718,284.51984,67,110,0
283.66718,284.51984,61,110,0
283.66718,284.51984,58,110,0
284.5243,284.94843,66,110,0
284.5243,285.37698,59,110,0
284.95288,285.37698,63,110,0
285.38144,286.01984,61,90,0
286.0243,286.12698,63,90,0
285.38144,286.23413,70,90,0
286.13144,286.23413,64,90,0
286.2386,286.6627,63,90,0
286.2386,287.09128,71,90,0
286.66718,287.09128,59,90,0
287.09573,287.94843,79,110,0
287.09573,287.94843,73,110,0
287.09573,287.94843,70,110,0
287.95288,288.37698,78,110,0
287.95288,288.80554,71,110,0
288.38144,288.80554,75,110,0
288.81003,289.4484,73,90,0
289.45288,289.55554,75,90,0
288.81003,289.6627,82,90,0
289.56003,289.6627,76,90,0
289.66714,290.09128,75,90,0
289.66714,290.51984,83,90,0
290.09573,290.51984,71,90,0
290.5243,291.1627,76,110,0
291.16714,291.26984,78,110,0
290.5243,291.37698,82,110,0
290.5243,291.37698,73,110,0
291.2743,291.37698,79,110,0
291.38144,291.80554,83,110,0
291.38144,291.80554,78,110,0
291.38144,291.80554,75,110,0
292.2386,292.6627,71,110,0
292.2386,292.6627,66,110,0
292.2386,292.6627,63,110,0
293.09573,293.51984,59,110,0
293.09573,293.51984,54,110,0
293.09573,293.51984,51,110,0
293.95288,294.1627,83,80,0
294.16714,294.37698,81,80,0
294.38144,294.59125,80,80,0
294.59573,294.80554,78,80,0
294.81,295.6627,76,80,0
295.66714,296.09125,78,80,0
296.09573,296.51984,79,80,0
296.5243,296.9484,80,80,0
296.95285,297.37698,81,80,0
297.38144,297.80554,82,80,0
297.81,298.2341,83,80,0
298.2386,298.6627,84,80,0
298.66714,299.51984,85,80,0
299.5243,300.37698,83,80,0
299.09573,300.80554,73,80,0
300.38144,300.80554,81,80,0
300.81,300.9127,80,80,0
300.8636,300.96625,81,80,0
300.91714,301.01984,83,80,0
300.97073,301.01984,81,80,0
301.0243,301.2341,80,80,0
301.2386,301.4484,78,80,0
301.45285,301.6627,76,80,0
301.66714,302.51984,75,80,0
302.5243,302.9484,76,80,0
302.95285,303.37695,77,80,0
303.38144,303.80554,78,80,0
303.81,304.2341,79,80,0
304.2386,304.6627,80,80,0
304.66714,305.09125,81,80,0
305.0957,305.51984,82,80,0
305.5243,306.37695,83,80,0
306.38144,307.2341,81,80,0
305.95285,307.6627,71,80,0
307.23856,307.6627,80,80,0
309.38144,309.59125,59,80,0
309.5957,309.80554,57,80,0
309.81,310.0198,56,80,0
310.0243,310.2341,54,80,0
310.23856,310.66266,53,80,0
311.0957,311.30554,83,80,0
311.31,311.5198,81,80,0
311.5243,311.7341,80,80,0
311.73856,311.9484,78,80,0
311.95285,312.80554,77,80,0
312.81,314.09125,77,80,0
312.81,314.09125,80,80,0
312.81,314.09125,86,80,0
314.0957,314.5198,85,80,0
314.0957,314.5198,81,80,0
314.0957,314.5198,78,80,0
316.23856,316.4484,57,80,0
316.45285,316.66266,56,80,0
316.66714,316.87695,54,80,0
316.8814,317.09125,52,80,0
317.0957,317.5198,51,80,0
317.95285,318.16266,81,80,0
318.16714,318.37695,80,80,0
318.3814,318.59125,78,80,0
318.5957,318.8055,76,80,0
318.81,319.66266,75,80,0
319.6671,320.94836,75,80,0
319.6671,320.94836,78,80,0
319.6671,320.94836,84,80,0
320.95285,321.37695,83,80,0
320.95285,321.37695,80,80,0
320.95285,321.37695,76,80,0
321.81,322.2341,71,80,0
321.81,322.2341,64,80,0
322.23856,322.44836,71,80,0
322.45285,322.5198,73,80,0
322.52426,322.59125,71,80,0
322.5957,322.66266,70,80,0
322.6671,322.87695,71,80,0
322.23856,323.09122,63,80,0
322.8814,323.09122,75,80,0
323.0957,323.5198,76,80,0
323.0957,323.5198,64,80,0
323.52426,323.94836,71,80,0
323.52426,323.94836,64,80,0
323.95285,324.16266,71,80,0
324.1671,324.2341,73,80,0
324.23856,324.3055,71,80,0
324.30997,324.37695,70,80,0
324.3814,324.59122,71,80,0
323.95285,324.8055,63,80,0
324.5957,324.8055,75,80,0
324.80997,325.2341,76,80,0
324.80997,325.2341,64,80,0
325.23856,325.66266,65,80,0
325.23856,325.66266,77,80,0
325.6671,326.09122,78,80,0
325.6671,326.09122,66,80,0
326.0957,326.5198,80,80,0
326.0957,326.5198,68,80,0
326.52426,326.94836,81,80,0
326.52426,326.94836,69,80,0
326.95285,327.37695,83,80,0
326.95285,327.37695,71,80,0
327.3814,328.23407,81,80,0
327.3814,328.23407,69,80,0
328.23856,328.66266,80,80,0
328.23856,328.66266,68,80,0
328.6671,329.09122,83,80,0
328.6671,329.09122,71,80,0
329.0957,329.3055,83,80,0
329.30997,329.37695,85,80,0
329.3814,329.44836,83,80,0
329.45282,329.5198,82,80,0
329.52426,329.73407,83,80,0
329.0957,329.94836,75,80,0
329.73856,329.94836,87,80,0
329.95282,330.37695,88,80,0
329.95282,330.37695,76,80,0
330.3814,330.8055,83,80,0
330.3814,330.8055,71,80,0
330.80997,331.0198,83,80,0
331.02426,331.09122,85,80,0
331.0957,331.16266,83,80,0
331.1671,331.23407,82,80,0
331.23856,331.44836,83,80,0
330.80997,331.66266,75,80,0
331.45282,331.66266,87,80,0
331.6671,332.09122,88,80,0
331.6671,332.09122,76,80,0
332.09567,332.5198,77,80,0
332.09567,332.5198,89,80,0
332.52426,332.94836,78,80,0
332.52426,332.94836,90,80,0
332.95282,333.37692,80,80,0
332.95282,333.37692,92,80,0
333.3814,333.8055,93,80,0
333.3814,333.8055,81,80,0
333.80997,334.23407,87,80,0
333.80997,334.23407,75,80,0
334.23856,334.66266,76,80,0
334.23856,334.66266,88,80,0
334.6671,335.09122,71,110,0
334.6671,335.09122,68,110,0
334.6671,335.5198,64,110,0
335.52426,335.94836,63,110,0
335.09567,336.37692,69,110,0
335.09567,336.37692,72,110,0
336.3814,336.8055,71,110,0
336.3814,336.8055,68,110,0
335.95282,337.23407,64,110,0
337.23853,337.66266,63,110,0
336.80997,338.09122,69,110,0
336.80997,338.09122,73,110,0
338.09567,338.51978,71,110,0
338.09567,338.51978,68,110,0
337.6671,338.94836,64,110,0
338.95282,339.37692,63,110,0
338.52426,339.8055,69,110,0
338.52426,339.8055,72,110,0
339.80997,340.23407,71,110,0
339.80997,340.23407,68,110,0
339.3814,340.66263,64,110,0
340.6671,341.09122,63,110,0
340.23853,341.51978,69,110,0
340.23853,341.51978,73,110,0
341.09567,341.51978,64,110,0
341.52426,341.94836,71,80,0
341.52426,341.94836,68,80,0
341.95282,342.37692,75,80,0
341.95282,342.37692,69,80,0
342.38138,342.8055,76,80,0
342.38138,342.8055,71,80,0
342.80997,343.44836,80,80,0
342.80997,343.66263,73,80,0
342.80997,343.66263,69,80,0
343.45282,343.66263,78,80,0
343.6671,344.09122,76,80,0
343.6671,344.09122,71,80,0
344.09567,344.51978,75,80,0
344.09567,344.51978,71,80,0
344.52426,344.94836,71,80,0
344.95282,345.37692,76,86,0
344.95282,345.37692,71,86,0
345.38138,345.80548,78,93,0
345.38138,345.80548,71,93,0
345.80997,346.23407,80,99,0
345.80997,346.23407,71,99,0
346.23853,346.87692,83,110,0
346.23853,347.09122,73,110,0
346.88138,347.09122,81,110,0
347.09567,347.51978,71,110,0
347.09567,347.51978,80,110,0
347.52423,347.94836,71,110,0
347.52423,347.94836,78,110,0
347.95282,348.39264,83,120,0
347.95282,348.39264,71,120,0
348.39725,348.83707,83,120,0
348.39725,348.83707,71,120,0
348.39725,348.83707,76,120,0
348.8417,349.3167,83,120,0
348.8417,349.3167,71,120,0
348.8417,349.3167,78,120,0
348.8417,349.3167,75,120,0
349.32172,349.8165,83,120,0
349.32172,349.8165,71,120,0
349.32172,349.8165,80,120,0
349.32172,349.8165,76,120,0
349.82172,350.3165,84,120,0
349.82172,350.3165,72,120,0
350.32172,350.8165,85,120,0
350.32172,350.8165,73,120,0
352.36716,352.90692,63,80,0
352.36716,352.90692,57,80,0
354.2178,354.4276,64,70,0
354.2178,354.4276,56,70,0
354.2178,354.4276,52,70,0
354.4321,354.6419,64,70,0
354.4321,354.6419,56,70,0
354.4321,354.6419,52,70,0
354.64636,354.8562,64,70,0
354.64636,354.8562,56,70,0
354.64636,354.8562,52,70,0
355.07495,355.28476,64,70,0
355.07495,355.28476,61,70,0
355.07495,355.28476,52,70,0
355.28925,355.49905,64,70,0
355.28925,355.49905,61,70,0
355.28925,355.49905,52,70,0
355.5035,355.71335,64,70,0
355.5035,355.71335,61,70,0
355.5035,355.71335,52,70,0
355.9321,356.1419,64,70,0
355.9321,356.1419,59,70,0
355.9321,356.1419,52,70,0
356.14636,356.3562,64,70,0
356.14636,356.3562,59,70,0
356.14636,356.3562,52,70,0
356.36066,356.57047,64,70,0
356.36066,356.57047,59,70,0
356.36066,356.57047,52,70,0
356.7892,356.99905,64,70,0
356.7892,356.99905,57,70,0
356.7892,356.99905,52,70,0
357.0035,357.21335,64,70,0
357.0035,357.21335,57,70,0
357.0035,357.21335,52,70,0
357.2178,357.4276,64,70,0
357.2178,357.4276,57,70,0
357.2178,357.4276,52,70,0
357.64636,357.8562,64,70,0
357.64636,357.8562,56,70,0
357.64636,357.8562,52,70,0
357.86066,358.07047,64,70,0
357.86066,358.07047,56,70,0
357.86066,358.07047,52,70,0
358.07495,358.28476,64,70,0
358.07495,358.28476,56,70,0
358.07495,358.28476,52,70,0
358.5035,358.71335,64,70,0
358.5035,358.71335,52,70,0
358.5035,358.71335,61,70,0
358.7178,358.9276,64,70,0
358.7178,358.9276,52,70,0
358.7178,358.9276,61,70,0
358.9321,359.1419,64,70,0
358.9321,359.1419,52,70,0
358.9321,359.1419,61,70,0
359.36066,359.57047,64,70,0
359.36066,359.57047,52,70,0
359.36066,359.57047,59,70,0
359.57495,359.78476,64,70,0
359.57495,359.78476,52,70,0
359.57495,359.78476,59,70,0
359.7892,359.99905,64,70,0
359.7892,359.99905,52,70,0
359.7892,359.99905,59,70,0
360.2178,360.4276,64,70,0
360.2178,360.4276,63,70,0
360.2178,360.4276,57,70,0
360.2178,360.4276,52,70,0
360.4321,360.6419,64,70,0
360.4321,360.6419,63,70,0
360.4321,360.6419,57,70,0
360.4321,360.6419,52,70,0
360.64636,360.8562,64,70,0
360.64636,360.8562,63,70,0
360.64636,360.8562,57,70,0
360.64636,360.8562,52,70,0
361.07495,361.28476,64,70,0
361.07495,361.28476,56,70,0
361.07495,361.28476,52,70,0
361.2892,361.49905,64,70,0
361.2892,361.49905,56,70,0
361.2892,361.49905,52,70,0
361.5035,361.71332,64,70,0
361.5035,361.71332,56,70,0
361.5035,361.71332,52,70,0
361.93207,362.1419,64,70,0
361.93207,362.1419,63,70,0
361.93207,362.1419,57,70,0
361.93207,362.1419,52,70,0
362.14636,362.3562,64,70,0
362.14636,362.3562,63,70,0
362.14636,362.3562,57,70,0
362.14636,362.3562,52,70,0
362.36066,362.57047,64,70,0
362.36066,362.57047,63,70,0
362.36066,362.57047,57,70,0
362.36066,362.57047,52,70,0
362.7892,362.99905,64,70,0
362.7892,362.99905,56,70,0
362.7892,362.99905,52,70,0
363.0035,363.21332,64,70,0
363.0035,363.21332,56,70,0
363.0035,363.21332,52,70,0
363.2178,363.4276,64,70,0
363.2178,363.4276,56,70,0
363.2178,363.4276,52,70,0
363.64636,363.8562,64,70,0
363.64636,363.8562,63,70,0
363.64636,363.8562,57,70,0
363.64636,363.8562,52,70,0
363.86066,364.07047,64,70,0
363.86066,364.07047,63,70,0
363.86066,364.07047,57,70,0
363.86066,364.07047,52,70,0
364.07495,364.28476,64,70,0
364.07495,364.28476,63,70,0
364.07495,364.28476,57,70,0
364.07495,364.28476,52,70,0
364.5035,364.71332,64,70,0
364.5035,364.71332,56,70,0
364.5035,364.71332,52,70,0
364.7178,364.9276,64,70,0
364.7178,364.9276,56,70,0
364.7178,364.9276,52,70,0
364.93207,365.1419,64,70,0
364.93207,365.1419,56,70,0
364.93207,365.1419,52,70,0
365.36066,365.57047,64,70,0
365.36066,365.57047,63,70,0
365.36066,365.57047,57,70,0
365.36066,365.57047,52,70,0
365.57492,365.78476,64,70,0
365.57492,365.78476,63,70,0
365.57492,365.78476,57,70,0
365.57492,365.78476,52,70,0
365.7892,365.99905,64,70,0
365.7892,365.99905,63,70,0
365.7892,365.99905,57,70,0
365.7892,365.99905,52,70,0
366.2178,366.4276,59,80,0
366.2178,366.4276,56,80,0
366.43207,366.6419,59,80,0
366.43207,366.6419,56,80,0
366.0035,366.85617,64,80,0
366.64636,366.85617,59,80,0
366.64636,366.85617,56,80,0
367.07492,367.28476,66,80,0
367.07492,367.28476,59,80,0
367.2892,367.49905,66,80,0
367.2892,367.49905,59,80,0
366.86066,367.71332,69,80,0
367.5035,367.71332,66,80,0
367.5035,367.71332,59,80,0
367.93207,368.1419,64,80,0
367.93207,368.1419,59,80,0
368.14636,368.35617,64,80,0
368.14636,368.35617,59,80,0
367.7178,368.57047,68,80,0
368.36066,368.57047,64,80,0
368.36066,368.57047,59,80,0
368.7892,368.99905,71,80,0
368.7892,368.99905,63,80,0
369.0035,369.21332,71,80,0
369.0035,369.21332,63,80,0
368.57492,369.4276,75,80,0
369.2178,369.4276,71,80,0
369.2178,369.4276,63,80,0
369.6543,369.8719,71,80,0
369.6543,369.8719,68,80,0
369.87653,370.09412,71,80,0
369.87653,370.09412,68,80,0
369.43207,370.31635,76,80,0
370.09875,370.31635,71,80,0
370.09875,370.31635,68,80,0
370.54318,370.76077,78,80,0
370.54318,370.76077,71,80,0
370.7654,370.983,78,80,0
370.7654,370.983,71,80,0
370.32095,371.20523,81,80,0
370.98764,371.20523,78,80,0
370.98764,371.20523,71,80,0
371.43207,371.64966,76,80,0
371.43207,371.64966,71,80,0
371.6543,371.8719,76,80,0
371.6543,371.8719,71,80,0
371.20984,372.09412,80,80,0
371.87653,372.09412,76,80,0
371.87653,372.09412,71,80,0
372.32095,372.53854,83,80,0
372.32095,372.53854,75,80,0
372.54318,372.76077,83,80,0
372.54318,372.76077,75,80,0
372.09872,372.983,87,80,0
372.7654,372.983,83,80,0
372.7654,372.983,75,80,0
373.22385,373.45514,83,80,0
373.22385,373.45514,76,80,0
373.46005,373.69138,83,79,0
373.46005,373.69138,76,79,0
372.98764,373.92758,88,80,0
373.6963,373.92758,83,79,0
373.6963,373.92758,76,79,0
374.16873,374.40002,83,77,0
374.16873,374.40002,75,77,0
374.40494,374.63623,83,77,0
374.40494,374.63623,75,77,0
373.9325,374.87247,87,78,0
374.64117,374.87247,83,76,0
374.64117,374.87247,75,76,0
375.11362,375.3449,83,75,0
375.11362,375.3449,76,75,0
375.34982,375.58112,83,74,0
375.34982,375.58112,76,74,0
374.87738,375.81735,88,75,0
375.58606,375.81735,83,73,0
375.58606,375.81735,76,73,0
376.05847,376.2898,83,72,0
376.05847,376.2898,75,72,0
376.2947,376.526,83,71,0
376.2947,376.526,75,71,0
375.82227,376.76224,87,73,0
376.5309,376.76224,83,71,0
376.5309,376.76224,75,71,0
377.01715,377.26193,83,70,0
377.01715,377.26193,80,70,0
377.01715,377.26193,76,70,0
377.26715,377.51193,83,70,0
377.26715,377.51193,80,70,0
377.26715,377.51193,76,70,0
376.76715,377.76193,88,70,0
377.51715,377.76193,83,70,0
377.51715,377.76193,80,70,0
377.51715,377.76193,76,70,0
378.0399,378.30692,83,70,0
378.0399,378.30692,80,70,0
378.0399,378.30692,76,70,0
378.3126,378.63898,83,70,0
378.3126,378.63898,80,70,0
378.3126,378.63898,76,70,0
377.76715,378.97232,88,70,0
378.64594,378.97232,83,70,0
378.64594,378.97232,80,70,0
378.64594,378.97232,76,70,0
378.97928,381.63898,88,70,0
379.64594,381.63898,83,70,0
379.64594,381.63898,80,70,0
379.64594,381.63898,76,70,0
382.97925,383.63898,76,1,0
0.2142855,0.42410672,59,80,0
0.2142855,0.42410672,56,80,0
0.2142855,0.42410672,52,80,0
0.428571,0.6383922,59,80,0
0.428571,0.6383922,56,80,0
0.428571,0.6383922,52,80,0
0.6428565,0.8526777,59,80,0
0.6428565,0.8526777,56,80,0
0.6428565,0.8526777,52,80,0
1.0714275,1.2812487,59,80,0
1.0714275,1.2812487,56,80,0
1.0714275,1.2812487,52,80,0
1.285713,1.4955342,59,80,0
1.285713,1.4955342,56,80,0
1.285713,1.4955342,52,80,0
1.4999985,1.7098197,59,80,0
1.4999985,1.7098197,56,80,0
1.4999985,1.7098197,52,80,0
1.9285696,2.1383908,61,80,0
1.9285696,2.1383908,57,80,0
1.9285696,2.1383908,52,80,0
2.142855,2.3526762,61,80,0
2.142855,2.3526762,57,80,0
2.142855,2.3526762,52,80,0
2.3571405,2.5669618,61,80,0
2.3571405,2.5669618,57,80,0
2.3571405,2.5669618,52,80,0
2.7857115,2.9955328,61,80,0
2.7857115,2.9955328,57,80,0
2.7857115,2.9955328,52,80,0
2.999997,3.2098181,61,80,0
2.999997,3.2098181,57,80,0
2.999997,3.2098181,52,80,0
3.2142825,3.4241037,61,80,0
3.2142825,3.4241037,57,80,0
3.2142825,3.4241037,52,80,0
3.6428535,3.8526747,63,80,0
3.6428535,3.8526747,57,80,0
3.6428535,3.8526747,54,80,0
3.6428535,3.8526747,52,80,0
3.857139,4.0669603,63,80,0
3.857139,4.0669603,57,80,0
3.857139,4.0669603,54,80,0
3.857139,4.0669603,52,80,0
4.0714245,4.2812457,63,80,0
4.0714245,4.2812457,57,80,0
4.0714245,4.2812457,54,80,0
4.0714245,4.2812457,52,80,0
4.4999957,4.709817,63,80,0
4.4999957,4.709817,57,80,0
4.4999957,4.709817,54,80,0
4.4999957,4.709817,52,80,0
4.714281,4.9241023,63,80,0
4.714281,4.9241023,57,80,0
4.714281,4.9241023,54,80,0
4.714281,4.9241023,52,80,0
4.9285665,5.1383877,63,80,0
4.9285665,5.1383877,57,80,0
4.9285665,5.1383877,54,80,0
4.9285665,5.1383877,52,80,0
5.142852,6.424101,59,80,0
5.142852,6.424101,56,80,0
5.142852,6.424101,52,80,0
5.142852,6.424101,64,80,0
7.714278,7.8169565,68,80,0
7.8214207,7.9240994,64,80,0
7.9285636,8.031242,69,80,0
8.0357065,8.138385,66,80,0
8.142849,8.245527,71,80,0
8.249991,8.352671,68,80,0
8.357135,8.459813,73,80,0
8.464277,8.566956,69,80,0
8.57142,8.995526,71,80,0
9.428562,9.53124,44,80,0
9.535705,9.638383,40,80,0
9.642847,9.745526,45,80,0
9.74999,9.852669,42,80,0
9.857133,9.959811,47,80,0
9.964275,10.066955,44,80,0
10.071419,10.174097,49,80,0
10.178561,10.2812395,45,80,0
10.92856,11.138382,56,80,0
11.142846,11.352667,51,80,0
11.357132,11.566953,54,80,0
10.285704,11.995523,47,80,0
11.571417,11.995523,57,80,0
11.999988,12.066952,49,80,0
12.071417,12.138381,52,80,0
12.142845,12.209809,56,80,0
12.642844,12.852666,68,80,0
12.85713,13.066951,63,80,0
13.071416,13.281237,66,80,0
12.214273,13.709807,59,80,0
13.285701,13.709807,69,80,0
13.714272,14.138379,64,80,0
13.714272,14.138379,68,80,0
14.142843,14.56695,56,80,0
14.571414,14.995521,57,80,0
14.999985,15.424091,58,80,0
15.428556,16.281233,59,80,0
16.285698,16.709805,58,80,0
16.285698,17.138376,47,80,0
16.71427,17.138376,57,80,0
17.14284,17.566946,52,80,0
17.14284,17.566946,56,80,0
17.571411,17.995518,44,80,0
17.999983,18.42409,45,80,0
18.428553,18.85266,46,80,0
18.857124,19.709803,47,80,0
19.714266,20.15408,46,80,0
19.714266,20.61544,35,80,0
20.15871,20.61544,45,80,0
20.851017,21.076979,44,80,0
20.851017,21.076979,40,80,0
21.081785,21.291607,44,80,0
21.081785,21.291607,40,80,0
21.296072,21.505892,44,80,0
21.296072,21.505892,40,80,0
21.724642,21.934464,44,80,0
21.724642,21.934464,40,80,0
21.938929,22.148748,44,80,0
21.938929,22.148748,40,80,0
22.153214,22.363035,44,80,0
22.153214,22.363035,40,80,0
22.581785,22.791605,45,80,0
22.581785,22.791605,40,80,0
22.79607,23.005892,45,80,0
22.79607,23.005892,40,80,0
23.010355,23.220177,45,80,0
23.010355,23.220177,40,80,0
23.438927,23.648748,46,80,0
23.438927,23.648748,40,80,0
23.653212,23.863033,46,80,0
23.653212,23.863033,40,80,0
23.867498,24.077318,46,80,0
23.867498,24.077318,40,80,0
24.296068,24.50589,47,81,0
24.296068,24.50589,40,81,0
24.510353,24.720175,47,82,0
24.510353,24.720175,40,82,0
24.72464,24.934462,47,83,0
24.72464,24.934462,40,83,0
25.15321,25.363031,48,86,0
25.15321,25.363031,40,86,0
25.367496,25.577316,48,87,0
25.367496,25.577316,40,87,0
25.581781,25.791603,48,89,0
25.581781,25.791603,40,89,0
26.010353,26.220173,49,91,0
26.010353,26.220173,40,91,0
26.224638,26.43446,49,93,0
26.224638,26.43446,40,93,0
26.438923,26.648745,49,94,0
26.438923,26.648745,40,94,0
26.65321,26.86303,41,95,0
26.867495,27.077316,41,97,0
27.08178,27.291601,41,98,0
26.65321,27.505886,51,95,0
27.296066,27.505886,41,99,0
27.510351,27.720173,42,110,0
27.724636,27.934458,42,110,0
27.938923,28.148743,42,110,0
27.510351,28.36303,49,110,0
28.153208,28.36303,42,110,0
28.367493,28.577314,42,110,0
28.581778,28.7916,42,110,0
28.796064,29.005886,42,110,0
28.367493,29.220171,56,110,0
28.367493,29.220171,47,110,0
29.01035,29.220171,42,110,0
29.224634,29.434456,42,110,0
29.438921,29.64874,42,110,0
29.653206,29.863028,42,110,0
29.224634,30.077312,54,110,0
29.224634,30.077312,46,110,0
29.86749,30.077312,42,110,0
30.081778,30.291597,42,110,0
30.296062,30.505884,42,110,0
30.510347,30.72017,42,110,0
30.081778,30.934454,56,110,0
30.081778,30.934454,50,110,0
30.724634,30.934454,42,110,0
30.93892,31.14874,42,110,0
31.153204,31.363026,42,110,0
31.36749,31.57731,42,110,0
30.93892,31.791597,49,110,0
31.581776,31.791597,42,110,0
31.79606,32.005882,42,110,0
32.010345,32.22017,42,110,0
32.224632,32.434452,42,110,0
31.79606,32.64874,56,110,0
31.79606,32.64874,47,110,0
32.43892,32.64874,42,110,0
32.653202,32.863026,42,110,0
32.86749,33.07731,42,110,0
33.081776,33.291595,42,110,0
32.653202,33.505882,54,110,0
32.653202,33.505882,46,110,0
33.29606,33.505882,42,110,0
33.510345,33.720165,42,110,0
33.724632,33.934452,42,110,0
33.938915,34.14874,42,110,0
33.510345,34.36302,56,110,0
33.510345,34.36302,50,110,0
33.510345,34.36302,47,110,0
34.153202,34.36302,42,110,0
34.36749,34.791595,54,110,0
34.36749,34.791595,49,110,0
34.36749,34.791595,46,110,0
34.36749,34.791595,42,110,0
35.22463,35.648735,54,110,0
35.22463,35.648735,42,110,0
36.08177,36.50588,42,110,0
36.08177,36.50588,30,110,0
41.738914,42.534748,60,80,0
41.738914,42.534748,63,80,0
42.538914,43.334747,61,80,0
42.538914,43.334747,64,80,0
48.138912,48.934746,61,80,0
48.138912,48.934746,58,80,0
48.93891,49.734745,59,80,0
48.93891,49.734745,63,80,0
49.738914,49.934746,66,80,0
49.93891,50.134747,64,80,0
50.138912,50.334747,63,80,0
50.338913,50.534748,61,80,0
50.538914,51.334747,59,80,0
51.338913,51.734745,60,80,0
51.738914,52.134747,61,80,0
52.138912,52.534748,62,80,0
52.538914,52.934746,63,80,0
52.93891,53.334747,64,80,0
53.338913,53.734745,66,80,0
53.738914,54.134747,67,80,0
54.138912,54.934746,68,80,0
53.738914,55.334747,56,80,0
54.93891,55.734745,66,80,0
55.338913,56.134747,61,80,0
55.738914,56.134747,64,80,0
56.138912,56.334747,64,80,0
56.338913,56.534748,63,80,0
56.538914,56.734745,61,80,0
56.738914,56.934746,59,80,0
56.93891,57.734745,58,80,0
57.738914,58.134747,59,80,0
58.138912,58.534748,60,80,0
58.538914,58.934746,61,80,0
58.93891,59.334747,63,80,0
59.338913,59.734745,64,80,0
59.738914,60.534748,65,80,0
60.538914,61.334747,66,80,0
60.138912,61.734745,54,80,0
61.338913,62.134747,64,80,0
61.738914,62.534748,59,80,0
62.138912,62.534748,63,80,0
62.538914,62.734745,51,80,0
62.538914,62.934746,59,80,0
62.738914,62.934746,54,80,0
62.93891,63.134747,51,80,0
62.93891,63.334747,59,80,0
63.138912,63.334747,54,80,0
63.338913,63.534748,52,80,0
63.538914,63.734745,54,80,0
63.738914,63.934746,52,80,0
63.338913,64.13474,61,80,0
63.93891,64.13474,54,80,0
64.138916,64.33475,51,80,0
64.138916,64.534744,59,80,0
64.33891,64.534744,54,80,0
64.53891,64.73475,51,80,0
64.53891,64.934746,59,80,0
64.738914,64.934746,54,80,0
64.93891,65.13474,52,80,0
65.138916,65.33475,54,80,0
65.33891,65.534744,52,80,0
64.93891,65.73475,61,80,0
65.53891,65.73475,54,80,0
65.738914,65.934746,51,80,0
65.738914,66.13474,59,80,0
65.93891,66.13474,54,80,0
66.138916,66.33475,51,80,0
66.138916,66.534744,57,80,0
66.33891,66.534744,54,80,0
66.53891,66.73475,56,80,0
66.53891,66.934746,52,80,0
66.738914,66.934746,61,80,0
66.93891,67.13474,56,80,0
66.93891,67.33475,52,80,0
67.138916,67.33475,61,80,0
67.33891,67.534744,58,80,0
67.33891,67.73475,54,80,0
67.53891,67.73475,61,80,0
67.738914,67.934746,58,80,0
67.738914,68.13474,54,80,0
67.93891,68.13474,61,80,0
68.138916,68.33475,59,80,0
68.33891,68.534744,54,80,0
68.53891,68.73475,59,80,0
68.738914,68.934746,54,80,0
68.93891,69.13474,59,80,0
68.138916,69.33475,47,80,0
69.138916,69.33475,54,80,0
69.33891,69.534744,51,80,0
69.33891,69.73475,59,80,0
69.53891,69.73475,54,80,0
69.738914,69.934746,52,80,0
69.93891,70.13474,54,80,0
70.138916,70.33475,52,80,0
69.738914,70.534744,61,80,0
70.33891,70.534744,54,80,0
70.53891,70.73475,51,80,0
70.53891,70.934746,59,80,0
70.738914,70.934746,54,80,0
70.93891,71.13474,51,80,0
70.93891,71.33475,59,80,0
71.138916,71.33475,54,80,0
71.33891,71.534744,52,80,0
71.53891,71.73475,54,80,0
71.738914,71.934746,52,80,0
71.33891,72.13474,61,80,0
71.93891,72.13474,54,80,0
72.138916,72.33475,51,80,0
72.138916,72.534744,59,80,0
72.33891,72.534744,54,80,0
72.53891,72.73475,51,80,0
72.53891,72.934746,57,80,0
72.738914,72.934746,54,80,0
72.93891,73.13474,56,80,0
72.93891,73.33475,52,80,0
73.138916,73.33475,61,80,0
73.33891,73.534744,56,80,0
73.33891,73.73475,52,80,0
73.53891,73.73475,61,80,0
73.738914,73.934746,61,80,0
73.738914,74.13474,54,80,0
73.93891,74.13474,64,80,0
74.138916,74.33475,61,80,0
74.138916,74.534744,54,80,0
74.33891,74.534744,64,80,0
74.53891,74.934746,59,80,0
74.53891,74.934746,47,80,0
75.93891,76.00141,42,110,0
76.00558,76.06808,44,110,0
76.07224,76.13474,46,110,0
76.138916,76.534744,47,110,0
77.53891,77.60141,42,110,0
77.60558,77.66808,44,110,0
77.67225,77.73475,46,110,0
77.738914,78.13474,47,110,0
79.138916,79.201416,42,110,0
79.20558,79.26808,44,110,0
79.27225,79.33475,46,110,0
79.33891,79.73475,47,110,0
80.738914,80.801414,42,110,0
80.80558,80.86808,44,110,0
80.872246,80.934746,46,110,0
80.93891,81.33475,47,110,0
81.33891,81.73475,54,80,0
81.33891,81.73475,47,80,0
81.738914,82.13474,54,80,0
81.738914,82.13474,49,80,0
82.138916,82.534744,54,80,0
82.138916,82.534744,51,80,0
82.53891,83.33475,61,80,0
82.53891,83.33475,56,80,0
82.53891,83.33475,52,80,0
83.33891,83.73475,61,80,0
83.33891,83.73475,54,80,0
83.738914,84.13474,61,80,0
83.738914,84.13474,54,80,0
84.53891,84.934746,59,82,0
84.53891,84.934746,51,82,0
84.93891,85.33475,58,85,0
84.93891,85.33475,49,85,0
85.33891,85.73475,59,88,0
85.33891,85.73475,47,88,0
85.738914,86.33475,63,91,0
85.738914,86.534744,52,91,0
86.33891,86.534744,61,95,0
86.53891,86.934746,59,97,0
86.53891,86.934746,54,97,0
86.93891,87.33475,58,99,0
86.93891,87.33475,54,99,0
87.783356,88.24009,59,120,0
87.783356,88.24009,54,120,0
87.783356,88.24009,51,120,0
88.244896,88.719894,58,120,0
88.244896,88.719894,52,120,0
88.244896,88.719894,49,120,0
88.72489,89.21969,59,120,0
88.72489,89.21969,51,120,0
88.72489,89.21969,47,120,0
89.22489,89.71969,52,120,0
89.22489,89.71969,49,120,0
89.22489,89.71969,44,120,0
89.22489,89.71969,40,120,0
91.22489,91.71969,42,80,0
93.22489,94.077576,35,70,0
94.08204,94.934715,40,70,0
94.93918,95.791855,39,70,0
95.79632,96.649,44,70,0
96.653465,97.50614,42,70,0
97.510605,98.36328,40,70,0
98.367744,99.22043,39,70,0
99.22489,100.07757,35,70,0
100.08203,100.291855,40,80,0
100.29632,100.506134,59,80,0
100.29632,100.506134,56,80,0
100.29632,100.506134,52,80,0
100.510605,100.72042,59,80,0
100.510605,100.72042,56,80,0
100.510605,100.72042,52,80,0
100.724884,100.93471,59,80,0
100.724884,100.93471,56,80,0
100.724884,100.93471,52,80,0
101.15346,101.36328,59,80,0
101.15346,101.36328,56,80,0
101.15346,101.36328,52,80,0
101.367744,101.57757,59,80,0
101.367744,101.57757,56,80,0
101.367744,101.57757,52,80,0
101.58203,101.79185,59,80,0
101.58203,101.79185,56,80,0
101.58203,101.79185,52,80,0
102.0106,102.22042,61,80,0
102.0106,102.22042,57,80,0
102.0106,102.22042,52,80,0
102.224884,102.43471,61,80,0
102.224884,102.43471,57,80,0
102.224884,102.43471,52,80,0
102.43917,102.648994,61,80,0
102.43917,102.648994,57,80,0
102.43917,102.648994,52,80,0
102.867744,103.07756,61,80,0
102.867744,103.07756,57,80,0
102.867744,103.07756,52,80,0
103.08203,103.29185,61,80,0
103.08203,103.29185,57,80,0
103.08203,103.29185,52,80,0
103.29631,103.506134,61,80,0
103.29631,103.506134,57,80,0
103.29631,103.506134,52,80,0
103.724884,103.93471,63,80,0
103.724884,103.93471,57,80,0
103.724884,103.93471,54,80,0
103.724884,103.93471,52,80,0
103.93917,104.148994,63,80,0
103.93917,104.148994,57,80,0
103.93917,104.148994,54,80,0
103.93917,104.148994,52,80,0
104.15346,104.36327,63,80,0
104.15346,104.36327,57,80,0
104.15346,104.36327,54,80,0
104.15346,104.36327,52,80,0
104.58202,104.79185,63,80,0
104.58202,104.79185,57,80,0
104.58202,104.79185,54,80,0
104.58202,104.79185,52,80,0
104.79631,105.006134,63,80,0
104.79631,105.006134,57,80,0
104.79631,105.006134,54,80,0
104.79631,105.006134,52,80,0
105.0106,105.22042,63,80,0
105.0106,105.22042,57,80,0
105.0106,105.22042,54,80,0
105.0106,105.22042,52,80,0
105.224884,106.506134,59,80,0
105.224884,106.506134,56,80,0
105.224884,106.506134,52,80,0
105.224884,106.506134,64,80,0
107.79631,107.89899,68,80,0
107.90345,108.006134,64,80,0
108.0106,108.11327,69,80,0
108.11774,108.22041,66,80,0
108.22488,108.32756,71,80,0
108.33202,108.4347,68,80,0
108.43916,108.54185,73,80,0
108.54631,108.64899,69,80,0
108.65345,109.07756,71,80,0
109.51059,109.61327,44,80,0
109.61774,109.72041,40,80,0
109.72488,109.82756,45,80,0
109.83202,109.9347,42,80,0
109.93916,110.04184,47,80,0
110.04631,110.14899,44,80,0
110.15345,110.25613,49,80,0
110.26059,110.36327,45,80,0
111.01059,111.22041,56,80,0
111.22488,111.4347,51,80,0
111.43916,111.64899,54,80,0
110.36774,112.07755,47,80,0
111.65345,112.07755,57,80,0
112.082016,112.14899,49,80,0
112.15345,112.22041,52,80,0
112.22488,112.29184,56,80,0
112.72488,112.9347,68,80,0
112.93916,113.14898,63,80,0
113.15345,113.363266,66,80,0
112.2963,113.79184,59,80,0
113.36773,113.79184,69,80,0
113.7963,114.22041,64,80,0
113.7963,114.22041,68,80,0
114.22488,114.64898,56,80,0
114.65344,115.07755,57,80,0
115.082016,115.50613,58,80,0
115.51059,116.363266,59,80,0
116.36773,116.79183,58,80,0
116.36773,117.220406,47,80,0
116.7963,117.220406,57,80,0
117.22487,117.64898,52,80,0
117.22487,117.64898,56,80,0
117.65344,118.077545,44,80,0
118.082016,118.50612,45,80,0
118.51058,118.93469,46,80,0
118.939156,119.79183,47,80,0
119.796295,120.236115,46,80,0
119.796295,120.69747,35,80,0
120.24074,120.69747,45,80,0
120.933044,121.15901,44,80,0
120.933044,121.15901,40,80,0
121.16382,121.37364,44,80,0
121.16382,121.37364,40,80,0
121.378105,121.58792,44,80,0
121.378105,121.58792,40,80,0
121.80667,122.016495,44,80,0
121.80667,122.016495,40,80,0
122.02096,122.23078,44,80,0
122.02096,122.23078,40,80,0
122.235245,122.44507,44,80,0
122.235245,122.44507,40,80,0
122.66382,122.873634,45,80,0
122.66382,122.873634,40,80,0
122.8781,123.08792,45,80,0
122.8781,123.08792,40,80,0
123.092384,123.30221,45,80,0
123.092384,123.30221,40,80,0
123.52096,123.73078,46,80,0
123.52096,123.73078,40,80,0
123.735245,123.94506,46,80,0
123.735245,123.94506,40,80,0
123.94953,124.15935,46,80,0
123.94953,124.15935,40,80,0
124.3781,124.58792,47,81,0
124.3781,124.58792,40,81,0
124.592384,124.80221,47,82,0
124.592384,124.80221,40,82,0
124.80667,125.016495,47,83,0
124.80667,125.016495,40,83,0
125.235245,125.44506,48,86,0
125.235245,125.44506,40,86,0
125.449524,125.65935,48,87,0
125.449524,125.65935,40,87,0
125.66381,125.873634,48,89,0
125.66381,125.873634,40,89,0
126.092384,126.30221,49,91,0
126.092384,126.30221,40,91,0
126.30667,126.51649,49,93,0
126.30667,126.51649,40,93,0
126.52096,126.730774,49,94,0
126.52096,126.730774,40,94,0
126.73524,126.94506,41,95,0
126.949524,127.15935,41,97,0
127.16381,127.373634,41,98,0
126.73524,127.58792,51,95,0
127.3781,127.58792,41,99,0
127.592384,127.8022,42,110,0
127.80667,128.0165,42,110,0
128.02095,128.23077,42,110,0
127.592384,128.44505,49,110,0
128.23524,128.44505,42,110,0
128.44952,128.65935,42,90,0
128.6638,128.87363,42,90,0
128.8781,129.08792,42,90,0
128.44952,129.3022,56,90,0
128.44952,129.3022,47,90,0
129.09238,129.3022,42,90,0
129.30667,129.5165,42,90,0
129.52095,129.73077,42,90,0
129.73523,129.94505,42,90,0
129.30667,130.15935,54,90,0
129.30667,130.15935,46,90,0
129.94952,130.15935,42,90,0
130.1638,130.37363,42,110,0
130.3781,130.58792,42,110,0
130.59238,130.8022,42,110,0
130.1638,131.01648,56,110,0
130.1638,131.01648,50,110,0
130.80667,131.01648,42,110,0
131.02095,131.23077,42,110,0
131.23523,131.44505,42,110,0
131.44952,131.65935,42,110,0
131.02095,131.87363,49,110,0
131.6638,131.87363,42,110,0
131.8781,132.0879,42,90,0
132.09238,132.3022,42,90,0
132.30666,132.51648,42,90,0
131.8781,132.73077,56,90,0
131.8781,132.73077,47,90,0
132.52095,132.73077,42,90,0
132.73523,132.94505,42,90,0
132.94952,133.15935,42,90,0
133.1638,133.37363,42,90,0
132.73523,133.5879,54,90,0
132.73523,133.5879,46,90,0
133.3781,133.5879,42,90,0
133.59238,133.8022,42,110,0
133.80666,134.01648,42,110,0
134.02095,134.23077,42,110,0
133.59238,134.44505,56,110,0
133.59238,134.44505,50,110,0
133.59238,134.44505,47,110,0
134.23523,134.44505,42,110,0
134.44952,134.87363,54,110,0
134.44952,134.87363,49,110,0
134.44952,134.87363,46,110,0
134.44952,134.87363,42,110,0
135.30666,135.73077,54,110,0
135.30666,135.73077,42,110,0
136.1638,136.5879,42,110,0
136.1638,136.5879,30,110,0
142.1638,143.01648,60,80,0
142.1638,143.01648,63,80,0
143.02094,143.87361,61,80,0
143.02094,143.87361,64,80,0
149.02094,149.87361,61,80,0
149.02094,149.87361,58,80,0
149.87807,150.73076,59,80,0
149.87807,150.73076,63,80,0
150.73521,150.94504,66,80,0
150.94951,151.15932,64,80,0
151.16379,151.37361,63,80,0
151.37807,151.58789,61,80,0
151.59236,152.44504,59,80,0
152.4495,152.87361,60,80,0
152.87807,153.30219,61,80,0
153.30664,153.73074,62,80,0
153.73521,154.15932,63,80,0
154.16379,154.58789,64,80,0
154.59236,155.01646,66,80,0
155.02092,155.44504,67,80,0
155.4495,156.30217,68,80,0
155.02092,156.73074,56,80,0
156.30664,157.15932,66,80,0
156.73521,157.58789,61,80,0
157.16379,157.58789,64,80,0
157.59235,157.80217,64,80,0
157.80664,158.01646,63,80,0
158.02092,158.23074,61,80,0
158.23521,158.44502,59,80,0
158.4495,159.30217,58,80,0
159.30664,159.73074,59,80,0
159.73521,160.15932,60,80,0
160.16377,160.58789,61,80,0
160.59235,161.01645,63,80,0
161.02092,161.44502,64,80,0
161.4495,162.30217,65,80,0
162.30664,163.15932,66,80,0
161.87807,163.58788,54,80,0
163.16377,164.01645,64,80,0
163.59235,164.44502,59,80,0
164.02092,164.44502,63,80,0
164.4495,164.6593,51,80,0
164.4495,164.8736,59,80,0
164.66377,164.8736,54,80,0
164.87805,165.08788,51,80,0
164.87805,165.30217,59,80,0
165.09235,165.30217,54,80,0
165.30663,165.51645,52,80,0
165.52092,165.73074,54,80,0
165.7352,165.94502,52,80,0
165.30663,166.1593,61,80,0
165.9495,166.1593,54,80,0
166.16377,166.3736,51,80,0
166.16377,166.58788,59,80,0
166.37805,166.58788,54,80,0
166.59235,166.80217,51,80,0
166.59235,167.01645,59,80,0
166.80663,167.01645,54,80,0
167.02092,167.23073,52,80,0
167.2352,167.44502,54,80,0
167.44948,167.6593,52,80,0
167.02092,167.8736,61,80,0
167.66377,167.8736,54,80,0
167.87805,168.08788,51,80,0
167.87805,168.30217,59,80,0
168.09235,168.30217,54,80,0
168.30663,168.51645,51,80,0
168.30663,168.73073,57,80,0
168.52092,168.73073,54,80,0
168.7352,168.94502,56,80,0
168.7352,169.1593,52,80,0
168.94948,169.1593,61,80,0
169.16377,169.3736,56,80,0
169.16377,169.58788,52,80,0
169.37805,169.58788,61,80,0
169.59235,169.80215,58,80,0
169.59235,170.01645,54,80,0
169.80663,170.01645,61,80,0
170.0209,170.23073,58,80,0
170.0209,170.44502,54,80,0
170.2352,170.44502,61,80,0
170.44948,170.6593,59,80,0
170.66377,170.8736,54,80,0
170.87805,171.08788,59,80,0
171.09233,171.30215,54,80,0
171.30663,171.51645,59,80,0
170.44948,171.73073,47,80,0
171.5209,171.73073,54,80,0
171.7352,171.94502,51,80,0
171.7352,172.1593,59,80,0
171.94948,172.1593,54,80,0
172.16377,172.37358,52,80,0
172.37805,172.58788,54,80,0
172.59233,172.80215,52,80,0
172.16377,173.01645,61,80,0
172.80663,173.01645,54,80,0
173.0209,173.23073,51,80,0
173.0209,173.445,59,80,0
173.2352,173.445,54,80,0
173.44948,173.6593,51,80,0
173.44948,173.87358,59,80,0
173.66376,173.87358,54,80,0
173.87805,174.08788,52,80,0
174.09233,174.30215,54,80,0
174.30663,174.51645,52,80,0
173.87805,174.73073,61,80,0
174.5209,174.73073,54,80,0
174.7352,174.945,51,80,0
174.7352,175.1593,59,80,0
174.94948,175.1593,54,80,0
175.16376,175.37358,51,80,0
175.16376,175.58788,57,80,0
175.37805,175.58788,54,80,0
175.59233,175.80215,56,80,0
175.59233,176.01643,52,80,0
175.80663,176.01643,61,80,0
176.0209,176.23073,56,80,0
176.0209,176.445,52,80,0
176.23518,176.445,61,80,0
176.44948,176.6593,61,80,0
176.44948,176.87358,54,80,0
176.66376,176.87358,64,80,0
176.87805,177.08788,61,80,0
176.87805,177.30215,54,80,0
177.09233,177.30215,64,80,0
177.30663,177.73073,59,80,0
177.30663,177.73073,47,80,0
178.80661,178.87358,42,110,0
178.87805,178.945,44,110,0
178.94948,179.01643,46,110,0
179.0209,179.445,47,110,0
180.5209,180.58786,42,110,0
180.59233,180.65929,44,110,0
180.66376,180.73073,46,110,0
180.73518,181.15929,47,110,0
182.23518,182.30215,42,110,0
182.30661,182.37358,44,110,0
182.37804,182.445,46,110,0
182.44946,182.87358,47,110,0
183.94946,184.01643,42,110,0
184.0209,184.08786,44,110,0
184.09233,184.15929,46,110,0
184.16376,184.58786,47,110,0
184.59233,185.01643,54,80,0
184.59233,185.01643,47,80,0
185.02089,185.445,54,80,0
185.02089,185.445,49,80,0
185.44946,185.87358,54,80,0
185.44946,185.87358,51,80,0
185.87804,186.73071,61,80,0
185.87804,186.73071,56,80,0
185.87804,186.73071,52,80,0
186.73518,187.15929,61,80,0
186.73518,187.15929,54,80,0
187.16376,187.58786,61,80,0
187.16376,187.58786,54,80,0
188.02089,188.445,59,86,0
188.02089,188.445,51,86,0
188.44946,188.87357,58,93,0
188.44946,188.87357,49,93,0
188.87804,189.30214,59,99,0
188.87804,189.30214,47,99,0
189.30661,189.94499,63,110,0
189.30661,190.15929,52,110,0
189.94946,190.15929,61,110,0
190.16374,190.58786,59,110,0
190.16374,190.58786,54,110,0
190.59232,191.01642,58,110,0
190.59232,191.01642,54,110,0
191.46533,191.92206,59,120,0
191.46533,191.92206,54,120,0
191.46533,191.92206,51,120,0
191.92686,192.40187,58,120,0
191.92686,192.40187,52,120,0
191.92686,192.40187,49,120,0
192.40688,192.90166,59,120,0
192.40688,192.90166,51,120,0
192.40688,192.90166,47,120,0
192.90688,193.40166,52,120,0
192.90688,193.40166,49,120,0
192.90688,193.40166,44,120,0
192.90688,193.40166,40,120,0
194.90688,195.40166,42,80,0
196.90688,197.75955,35,70,0
197.764,198.6167,40,70,0
198.62115,199.47383,39,70,0
199.4783,200.33098,44,70,0
200.33543,201.18811,42,70,0
201.19258,202.04526,40,70,0
202.04973,202.9024,39,70,0
202.90686,203.75954,35,70,0
203.764,203.97383,40,80,0
203.97829,204.18811,52,80,0
203.97829,204.18811,56,80,0
203.97829,204.18811,59,80,0
204.19258,204.4024,52,81,0
204.19258,204.4024,56,81,0
204.19258,204.4024,59,81,0
204.40686,204.61668,52,82,0
204.40686,204.61668,56,82,0
204.40686,204.61668,59,82,0
204.83543,205.04526,52,84,0
204.83543,205.04526,56,84,0
204.83543,205.04526,59,84,0
205.04973,205.25954,52,85,0
205.04973,205.25954,56,85,0
205.04973,205.25954,59,85,0
205.264,205.47383,52,86,0
205.264,205.47383,56,86,0
205.264,205.47383,59,86,0
205.69258,205.9024,52,88,0
205.69258,205.9024,57,88,0
205.69258,205.9024,60,88,0
205.90686,206.11668,52,89,0
205.90686,206.11668,57,89,0
205.90686,206.11668,60,89,0
206.12115,206.33096,52,90,0
206.12115,206.33096,57,90,0
206.12115,206.33096,60,90,0
206.54971,206.75954,52,92,0
206.54971,206.75954,57,92,0
206.54971,206.75954,60,92,0
206.764,206.97383,52,93,0
206.764,206.97383,57,93,0
206.764,206.97383,60,93,0
206.97829,207.18811,52,94,0
206.97829,207.18811,57,94,0
206.97829,207.18811,60,94,0
207.40686,207.61668,50,96,0
207.40686,207.61668,53,96,0
207.40686,207.61668,57,96,0
207.40686,207.61668,59,96,0
207.62114,207.83096,50,97,0
207.62114,207.83096,53,97,0
207.62114,207.83096,57,97,0
207.62114,207.83096,59,97,0
207.83543,208.04526,50,98,0
207.83543,208.04526,53,98,0
207.83543,208.04526,57,98,0
207.83543,208.04526,59,98,0
208.264,208.47383,53,100,0
208.264,208.47383,57,100,0
208.264,208.47383,59,100,0
208.264,208.47383,50,100,0
208.47829,208.68811,53,101,0
208.47829,208.68811,57,101,0
208.47829,208.68811,59,101,0
208.47829,208.68811,50,101,0
208.69258,208.90239,53,102,0
208.69258,208.90239,57,102,0
208.69258,208.90239,59,102,0
208.69258,208.90239,50,102,0
209.12114,209.33096,50,104,0
209.12114,209.33096,53,104,0
209.12114,209.33096,56,104,0
209.12114,209.33096,59,104,0
209.33543,209.54526,50,105,0
209.33543,209.54526,53,105,0
209.33543,209.54526,56,105,0
209.33543,209.54526,59,105,0
209.54971,209.75954,50,106,0
209.54971,209.75954,53,106,0
209.54971,209.75954,56,106,0
209.54971,209.75954,59,106,0
209.98622,210.20381,50,108,0
209.98622,210.20381,53,108,0
209.98622,210.20381,56,108,0
209.98622,210.20381,59,108,0
210.20845,210.4344,50,109,0
210.20845,210.4344,53,109,0
210.20845,210.4344,56,109,0
210.20845,210.4344,59,109,0
210.43921,210.66518,50,109,0
210.43921,210.66518,53,109,0
210.43921,210.66518,56,109,0
210.43921,210.66518,59,109,0
210.66998,210.77266,48,80,0
210.77713,210.8798,52,80,0
210.88426,210.98695,57,80,0
210.99141,211.09409,60,80,0
211.09856,211.20123,48,80,0
211.2057,211.30838,52,80,0
211.31284,211.41551,57,80,0
211.41998,211.52266,60,80,0
211.52713,211.6298,48,80,0
211.63426,211.73695,52,80,0
211.74141,211.84409,57,80,0
211.84856,211.95123,60,80,0
211.9557,212.05838,48,80,0
212.06284,212.16551,52,80,0
212.16998,212.27266,57,80,0
212.27713,212.3798,60,80,0
212.38426,212.48695,48,80,0
212.49141,212.59409,52,80,0
212.59856,212.70123,57,80,0
212.7057,212.80838,60,80,0
212.81284,212.91551,48,80,0
212.91998,213.02266,52,80,0
213.02713,213.1298,57,80,0
213.13426,213.23694,60,80,0
213.24141,213.34409,48,80,0
213.34856,213.45123,52,80,0
213.45569,213.55838,57,80,0
213.56284,213.66551,60,80,0
213.66998,213.77266,48,80,0
213.77713,213.8798,52,80,0
213.88426,213.98694,57,80,0
213.99141,214.09409,60,80,0
214.09856,214.20123,50,80,0
214.20569,214.30838,53,80,0
214.31284,214.41551,57,80,0
214.41998,214.52266,60,80,0
214.52713,214.6298,50,80,0
214.63426,214.73694,53,80,0
214.74141,214.84409,57,80,0
214.84856,214.95123,60,80,0
214.95569,215.05836,50,80,0
215.06284,215.16551,53,80,0
215.16998,215.27266,57,80,0
215.27711,215.3798,60,80,0
215.38426,215.48694,50,80,0
215.49141,215.59409,53,80,0
215.59856,215.70123,57,80,0
215.70569,215.80836,60,80,0
215.81284,215.91551,50,80,0
215.91998,216.02266,53,80,0
216.02711,216.1298,57,80,0
216.13426,216.23694,60,80,0
216.24141,216.34409,50,80,0
216.34856,216.45123,53,80,0
216.45569,216.55836,57,80,0
216.56284,216.66551,60,80,0
216.66998,216.77266,50,80,0
216.77711,216.8798,53,80,0
216.88426,216.98694,57,80,0
216.99141,217.09409,60,80,0
217.09856,217.20123,50,80,0
217.20569,217.30836,53,80,0
217.31284,217.41551,57,80,0
217.41998,217.52266,60,80,0
217.52711,217.62979,52,80,0
217.63426,217.73694,57,80,0
217.74141,217.84409,60,81,0
217.84854,217.95123,64,81,0
217.95569,218.05836,52,82,0
218.06284,218.16551,57,83,0
218.16998,218.27266,60,83,0
218.27711,218.37979,64,84,0
218.38426,218.48694,52,85,0
218.49141,218.59409,57,85,0
218.59854,218.70123,60,86,0
218.70569,218.80836,64,87,0
218.81284,218.91551,52,87,0
218.91998,219.02266,57,88,0
219.02711,219.12979,60,89,0
219.13426,219.23694,64,89,0
219.24141,219.34409,52,90,0
219.34854,219.45122,57,90,0
219.45569,219.55836,60,91,0
219.56284,219.66551,64,92,0
219.66997,219.77266,52,92,0
219.77711,219.87979,57,93,0
219.88426,219.98694,60,94,0
219.99141,220.09409,64,94,0
220.09854,220.20122,52,95,0
220.20569,220.30836,57,96,0
220.31284,220.41551,60,96,0
220.41997,220.52266,64,97,0
220.52711,220.62979,52,98,0
220.63426,220.73694,57,98,0
220.74141,220.84409,60,99,0
220.84854,220.95122,64,99,0
220.95569,221.05836,53,80,0
221.06284,221.16551,57,80,0
221.16997,221.27266,60,81,0
221.27711,221.37979,62,81,0
221.38426,221.48694,53,82,0
221.49141,221.59409,57,83,0
221.59854,221.70122,60,83,0
221.70569,221.80836,62,84,0
221.81284,221.91551,53,85,0
221.91997,222.02264,57,85,0
222.02711,222.12979,60,86,0
222.13426,222.23694,62,87,0
222.2414,222.34409,53,87,0
222.34854,222.45122,57,88,0
222.45569,222.55836,60,89,0
222.56284,222.66551,62,89,0
222.66997,222.77264,54,90,0
222.77711,222.87979,57,90,0
222.88426,222.98694,60,91,0
222.9914,223.09409,62,92,0
223.09854,223.20122,54,92,0
223.20569,223.30836,57,93,0
223.31284,223.41551,60,94,0
223.41997,223.52264,62,94,0
223.52711,223.62979,54,95,0
223.63426,223.73694,57,96,0
223.7414,223.84407,60,96,0
223.84854,223.95122,62,97,0
223.95569,224.05836,54,98,0
224.06282,224.16551,57,98,0
224.16997,224.27264,60,99,0
224.27711,224.37979,62,99,0
224.38426,224.48694,55,100,0
224.4914,224.59407,60,100,0
224.59854,224.70122,64,100,0
224.70569,224.80836,67,100,0
224.81282,224.91551,55,99,0
224.91997,225.02264,60,99,0
225.02711,225.12979,64,99,0
225.13426,225.23694,67,98,0
225.2414,225.34407,55,98,0
225.34854,225.45122,60,98,0
225.45569,225.55836,64,97,0
225.56282,225.66551,67,97,0
225.66997,225.77264,55,97,0
225.77711,225.87979,60,96,0
225.88426,225.98694,64,96,0
225.9914,226.09407,67,96,0
226.09854,226.20122,43,95,0
226.20569,226.30836,50,95,0
226.31282,226.4155,53,95,0
226.41997,226.52264,55,94,0
226.52711,226.62979,43,94,0
226.63425,226.73694,50,94,0
226.7414,226.84407,53,93,0
226.84854,226.95122,55,93,0
226.95569,227.05836,43,93,0
227.06282,227.1655,50,92,0
227.16997,227.27264,53,92,0
227.27711,227.37979,55,92,0
227.38425,227.48694,43,91,0
227.4914,227.59407,50,91,0
227.59854,227.70122,53,91,0
227.70569,227.80836,55,91,0
227.81282,227.9155,48,80,0
227.91997,228.02264,52,80,0
228.02711,228.12979,55,80,0
228.13425,228.23692,60,80,0
228.2414,228.34407,48,80,0
228.34854,228.45122,52,80,0
228.45567,228.55836,55,80,0
228.56282,228.6655,60,80,0
228.66997,228.77264,48,80,0
228.77711,228.87979,52,80,0
228.88425,228.98692,55,80,0
228.9914,229.09407,60,80,0
229.09854,229.20122,48,80,0
229.20567,229.30836,52,80,0
229.31282,229.4155,55,80,0
229.41997,229.52264,60,80,0
229.52711,229.62979,48,80,0
229.63425,229.73692,52,80,0
229.7414,229.84407,55,80,0
229.84854,229.95122,60,80,0
229.95567,230.05836,48,80,0
230.06282,230.1655,52,80,0
230.16997,230.27264,55,80,0
230.27711,230.37979,60,80,0
230.38425,230.48692,48,80,0
230.4914,230.59407,52,80,0
230.59854,230.70122,55,80,0
230.70567,230.80835,60,80,0
230.81282,230.9155,48,80,0
230.91997,231.02264,52,80,0
231.0271,231.12979,55,80,0
231.13425,231.23692,60,80,0
231.2414,231.34407,47,80,0
231.34854,231.45122,52,80,0
231.45567,231.55835,55,80,0
231.56282,231.6655,59,80,0
231.66997,231.77264,47,80,0
231.7771,231.87979,52,80,0
231.88425,231.98692,55,80,0
231.9914,232.09407,59,80,0
232.09854,232.20122,47,80,0
232.20567,232.30835,52,80,0
232.31282,232.4155,55,80,0
232.41997,232.52264,59,80,0
232.5271,232.62978,47,80,0
232.63425,232.73692,52,80,0
232.7414,232.84407,55,80,0
232.84853,232.95122,59,80,0
232.95567,233.05835,47,80,0
233.06282,233.1655,52,80,0
233.16997,233.27264,55,80,0
233.2771,233.37978,59,80,0
233.38425,233.48692,47,80,0
233.4914,233.59407,52,80,0
233.59853,233.70122,55,80,0
233.70567,233.80835,59,80,0
233.81282,233.9155,47,80,0
233.91997,234.02264,52,80,0
234.0271,234.12978,55,80,0
234.13425,234.23692,59,80,0
234.2414,234.34407,47,80,0
234.34853,234.45122,52,80,0
234.45567,234.55835,55,80,0
234.56282,234.6655,59,80,0
234.66995,234.77264,46,80,0
234.7771,234.87978,52,80,0
234.88425,234.98692,55,80,0
234.9914,235.09407,61,80,0
235.09853,235.2012,46,80,0
235.20567,235.30835,52,80,0
235.31282,235.4155,55,80,0
235.41995,235.52264,61,80,0
235.5271,235.62978,46,80,0
235.63425,235.73692,52,80,0
235.7414,235.84407,55,80,0
235.84853,235.9512,61,80,0
235.95567,236.05835,46,110,0
236.06282,236.1655,52,110,0
236.16995,236.27264,55,110,0
236.2771,236.37978,61,110,0
236.38425,236.48692,46,110,0
236.4914,236.59407,52,110,0
236.59853,236.7012,55,110,0
236.70567,236.80835,61,110,0
236.81282,236.9155,46,110,0
236.91995,237.02263,52,110,0
237.0271,237.12978,55,110,0
237.13425,237.23692,61,110,0
237.24138,237.34407,46,110,0
237.34853,237.4512,52,80,0
237.45567,237.55835,55,80,0
237.56282,237.6655,61,80,0
237.66995,237.77263,46,80,0
237.7771,237.87978,52,80,0
237.88425,237.98692,55,80,0
237.99138,238.09407,61,80,0
238.95567,239.80835,52,80,0
239.8128,240.6655,51,80,0
238.09853,241.52263,47,80,0
240.66995,241.52263,55,80,0
241.5271,241.73692,54,80,0
241.5271,241.73692,47,80,0
241.74138,241.9512,59,80,0
241.95567,242.16548,59,80,0
242.16995,242.37978,59,80,0
242.59853,242.80835,59,80,0
242.8128,243.02263,59,80,0
243.0271,243.23692,59,80,0
243.45566,243.66548,59,80,0
243.66995,243.87978,59,80,0
243.88423,244.09406,59,80,0
244.3128,244.52263,59,80,0
244.5271,244.73691,59,80,0
244.74138,244.9512,59,80,0
245.8128,246.66548,52,80,0
246.66995,247.52263,51,80,0
244.95566,248.37976,47,80,0
247.52708,248.37976,55,80,0
248.38423,248.59406,54,80,0
248.38423,248.59406,47,80,0
248.59851,248.80833,59,80,0
248.8128,249.02263,59,80,0
249.02708,249.23691,59,80,0
249.45566,249.66548,59,80,0
249.66995,249.87976,59,80,0
249.88423,250.09406,59,80,0
250.3128,250.52263,59,80,0
250.52708,250.73691,59,80,0
250.74138,250.95119,59,80,0
251.16994,251.37976,59,80,0
251.38423,251.59406,59,80,0
251.59851,251.80833,59,80,0
252.02708,252.23691,47,81,0
252.24136,252.45119,47,82,0
252.45566,252.66548,47,83,0
252.88423,253.09406,47,86,0
253.09851,253.30833,47,87,0
253.3128,253.52261,47,89,0
253.74136,253.95119,47,91,0
253.74136,253.95119,35,91,0
253.95566,254.16548,47,93,0
253.95566,254.16548,35,93,0
254.16994,254.37976,47,94,0
254.16994,254.37976,35,94,0
254.59851,254.80833,47,97,0
254.59851,254.80833,35,97,0
254.81279,255.02261,47,98,0
254.81279,255.02261,35,98,0
255.02708,255.23691,47,99,0
255.02708,255.23691,35,99,0
255.34851,255.45119,40,110,0
255.45566,255.55833,42,110,0
255.56279,255.66548,44,110,0
255.66994,255.77261,45,110,0
255.77708,255.87976,47,110,0
255.88423,255.98691,49,110,0
255.99136,256.09406,51,110,0
256.0985,256.2012,52,110,0
256.20566,256.30832,54,110,0
256.3128,256.41547,56,110,0
256.41995,256.5226,57,110,0
256.52707,256.62976,59,110,0
256.63422,256.7369,61,110,0
256.74136,256.84406,63,110,0
256.8485,256.9512,64,110,0
257.0628,257.16547,40,110,0
257.16995,257.2726,42,110,0
257.27707,257.37976,44,110,0
257.38422,257.4869,45,110,0
257.49136,257.59406,47,110,0
257.5985,257.70117,49,110,0
257.70566,257.80832,51,110,0
257.8128,257.91547,52,110,0
257.91992,258.0226,54,110,0
258.02707,258.12976,56,110,0
258.13422,258.2369,57,110,0
258.24136,258.34406,59,110,0
258.3485,258.45117,61,110,0
258.45566,258.55832,63,110,0
258.5628,258.66547,64,110,0
258.77707,258.87976,52,110,0
258.88422,258.9869,54,110,0
258.99136,259.09406,56,110,0
259.0985,259.20117,57,110,0
259.20566,259.30832,59,110,0
259.3128,259.41547,61,110,0
259.41992,259.5226,63,110,0
259.52707,259.62976,64,110,0
259.63422,259.7369,66,110,0
259.74136,259.84406,68,110,0
259.8485,259.95117,69,110,0
259.95566,260.05832,71,110,0
260.0628,260.16547,73,110,0
260.16992,260.2726,74,110,0
260.27707,260.37976,75,110,0
260.38422,261.66547,76,110,0
262.95566,263.05832,68,80,0
263.06277,263.16547,64,80,0
263.16992,263.2726,69,80,0
263.27707,263.37976,66,80,0
263.38422,263.4869,71,80,0
263.49136,263.59402,68,80,0
263.5985,263.70117,73,80,0
263.70566,263.80832,69,80,0
263.81277,264.2369,71,80,0
264.66992,264.7726,44,80,0
264.77707,264.87976,40,80,0
264.88422,264.9869,45,80,0
264.99136,265.09402,42,80,0
265.0985,265.20117,47,80,0
265.20566,265.30832,44,80,0
265.31277,265.41547,49,80,0
265.41992,265.5226,45,80,0
266.16992,266.37976,56,80,0
266.38422,266.59402,51,80,0
266.5985,266.80832,54,80,0
265.52707,267.23688,47,80,0
266.81277,267.23688,57,80,0
267.24136,267.30832,49,80,0
267.31277,267.37976,52,80,0
267.38422,267.45117,56,80,0
267.88422,268.09402,68,80,0
268.0985,268.30832,63,80,0
268.31277,268.5226,66,80,0
267.45563,268.95117,59,80,0
268.52707,268.95117,69,80,0
268.95563,269.37976,64,80,0
268.95563,269.37976,68,80,0
269.38422,269.80832,56,80,0
269.81277,270.23688,57,80,0
270.24136,270.66547,58,80,0
270.66992,271.5226,59,80,0
271.52707,271.95117,58,80,0
271.52707,272.37973,47,80,0
271.95563,272.37973,57,80,0
272.38422,272.80832,52,80,0
272.38422,272.80832,56,80,0
272.81277,273.23688,44,80,0
273.24136,273.66547,45,80,0
273.66992,274.09402,46,80,0
274.09848,274.95117,47,80,0
274.95563,275.91196,35,80,0
276.04218,276.16196,36,70,0
276.16718,276.26984,38,70,0
276.27432,276.37698,40,70,0
276.38147,276.48413,41,70,0
276.4886,276.59128,43,70,0
276.59573,276.69843,45,70,0
276.70288,276.80557,47,70,0
276.81003,277.01984,48,70,0
277.02432,277.23413,48,70,0
277.2386,277.44843,48,70,0
277.45288,277.66272,48,70,0
277.77432,277.87698,36,70,0
277.88147,277.98413,38,70,0
277.9886,278.09128,40,70,0
278.09573,278.19843,41,70,0
278.20288,278.30557,43,70,0
278.31003,278.41272,45,70,0
278.41718,278.51984,47,70,0
278.52432,278.73413,48,70,0
278.7386,278.94843,48,70,0
278.95288,279.16272,48,70,0
279.16718,279.37698,48,70,0
279.38147,280.23413,55,70,0
280.2386,281.09128,60,85,0
279.38147,281.94843,48,70,0
281.09573,282.80557,58,110,0
281.95288,282.80557,48,110,0
282.81003,283.01984,59,110,0
282.81003,283.01984,47,110,0
283.02432,283.23413,47,110,0
283.2386,283.44843,47,110,0
283.45288,283.6627,47,110,0
283.66718,283.87698,47,110,0
283.88144,284.09128,47,110,0
284.09573,284.30554,47,110,0
283.66718,284.51984,52,110,0
284.31003,284.51984,47,110,0
284.5243,284.73413,47,110,0
284.7386,284.94843,47,110,0
284.95288,285.1627,47,110,0
284.5243,285.37698,51,110,0
285.16718,285.37698,47,110,0
285.38144,285.59128,47,90,0
285.59573,285.80554,47,90,0
285.81003,286.01984,47,90,0
285.38144,286.23413,55,90,0
286.0243,286.23413,47,90,0
286.2386,286.44843,47,90,0
286.45288,286.6627,47,90,0
286.66718,286.87698,47,90,0
286.2386,287.09128,54,90,0
286.88144,287.09128,47,90,0
287.09573,287.30554,59,110,0
287.31003,287.51984,59,110,0
287.5243,287.73413,59,110,0
287.09573,287.94843,64,110,0
287.7386,287.94843,59,110,0
287.95288,288.1627,59,110,0
288.16714,288.37698,59,110,0
288.38144,288.59128,59,110,0
287.95288,288.80554,63,110,0
288.59573,288.80554,59,90,0
288.81003,289.01984,59,90,0
289.0243,289.23413,59,90,0
289.2386,289.4484,59,90,0
288.81003,289.6627,67,90,0
289.45288,289.6627,59,90,0
289.66714,289.87698,59,90,0
289.88144,290.09128,59,90,0
290.09573,290.30554,59,90,0
289.66714,290.51984,66,90,0
290.31003,290.51984,59,90,0
290.5243,290.73413,59,110,0
290.7386,290.9484,59,110,0
290.95288,291.1627,59,110,0
290.5243,291.37698,67,110,0
290.5243,291.37698,64,110,0
291.16714,291.37698,59,110,0
291.38144,291.80554,66,110,0
291.38144,291.80554,63,110,0
291.38144,291.80554,59,110,0
292.2386,292.6627,59,110,0
292.2386,292.6627,54,110,0
292.2386,292.6627,51,110,0
292.2386,292.6627,47,110,0
293.09573,293.51984,47,110,0
293.09573,293.51984,35,110,0
299.09573,299.9484,68,80,0
299.09573,299.9484,65,80,0
299.95285,300.80554,66,80,0
299.95285,300.80554,69,80,0
305.95285,306.80554,63,80,0
305.95285,306.80554,66,80,0
306.81,307.6627,64,80,0
306.81,307.6627,68,80,0
307.66714,307.87695,71,80,0
307.88144,308.09125,69,80,0
308.0957,308.30554,68,80,0
308.31,308.5198,66,80,0
308.5243,309.37695,64,80,0
309.38144,309.80554,66,80,0
309.81,310.2341,68,80,0
310.23856,310.66266,69,80,0
310.66714,311.09125,70,80,0
311.0957,311.5198,71,80,0
311.5243,312.37695,72,80,0
312.3814,313.2341,73,80,0
311.95285,313.66266,61,80,0
313.23856,314.09125,71,80,0
313.66714,314.5198,66,80,0
314.0957,314.5198,69,80,0
314.52426,314.7341,69,80,0
314.73856,314.9484,68,80,0
314.95285,315.16266,66,80,0
315.16714,315.37695,64,80,0
315.3814,316.2341,63,80,0
316.23856,316.66266,64,80,0
316.66714,317.09125,66,80,0
317.0957,317.5198,67,80,0
317.52426,317.9484,68,80,0
317.95285,318.37695,69,80,0
318.3814,319.2341,70,80,0
319.23856,320.09125,71,80,0
318.81,320.5198,59,80,0
320.0957,320.94836,69,80,0
320.52426,321.37695,64,80,0
320.95285,321.37695,68,80,0
321.3814,321.59125,56,80,0
321.5957,321.8055,59,80,0
321.81,322.0198,56,80,0
322.02426,322.2341,59,80,0
322.23856,322.44836,57,80,0
322.45285,322.66266,59,80,0
322.6671,322.87695,57,80,0
322.8814,323.09122,59,80,0
323.0957,323.3055,56,80,0
323.30997,323.5198,59,80,0
323.52426,323.7341,56,80,0
323.73856,323.94836,59,80,0
323.95285,324.16266,57,80,0
324.1671,324.37695,59,80,0
324.3814,324.59122,57,80,0
324.5957,324.8055,59,80,0
324.80997,325.0198,56,80,0
325.02426,325.2341,59,80,0
325.23856,325.44836,56,80,0
325.45285,325.66266,59,80,0
325.6671,325.87695,57,80,0
325.8814,326.09122,61,80,0
326.0957,326.3055,57,80,0
326.30997,326.5198,61,80,0
326.52426,326.7341,59,80,0
326.73856,326.94836,63,80,0
326.95285,327.16266,59,80,0
327.1671,327.37695,63,80,0
327.5957,327.8055,59,80,0
327.80997,328.0198,63,80,0
328.02426,328.23407,59,80,0
328.23856,328.44836,64,80,0
327.3814,328.66266,52,80,0
328.45282,328.66266,59,80,0
328.6671,328.87695,64,80,0
328.6671,329.09122,56,80,0
328.8814,329.09122,59,80,0
329.0957,329.3055,57,80,0
329.30997,329.5198,59,80,0
329.52426,329.73407,57,80,0
329.0957,329.94836,66,80,0
329.73856,329.94836,59,80,0
329.95282,330.16266,56,80,0
329.95282,330.37695,64,80,0
330.1671,330.37695,59,80,0
330.3814,330.59122,56,80,0
330.3814,330.8055,64,80,0
330.5957,330.8055,59,80,0
330.80997,331.0198,57,80,0
331.02426,331.23407,59,80,0
331.23856,331.44836,57,80,0
330.80997,331.66266,66,80,0
331.45282,331.66266,59,80,0
331.6671,331.87692,64,80,0
331.6671,332.09122,56,80,0
331.8814,332.09122,59,80,0
332.09567,332.3055,65,80,0
332.09567,332.5198,56,80,0
332.30997,332.5198,59,80,0
332.52426,332.73407,57,80,0
332.52426,332.94836,66,80,0
332.73856,332.94836,61,80,0
332.95282,333.16266,57,80,0
333.1671,333.37692,61,80,0
333.3814,333.59122,54,80,0
333.3814,333.8055,47,80,0
333.59567,333.8055,57,80,0
333.80997,334.0198,54,80,0
333.80997,334.23407,47,80,0
334.02426,334.23407,57,80,0
334.23856,334.66266,56,80,0
334.23856,334.66266,52,80,0
335.73856,335.8055,47,110,0
335.80997,335.87692,49,110,0
335.8814,335.94836,51,110,0
335.95282,336.37692,52,110,0
337.45282,337.51978,35,110,0
337.52426,337.59122,37,110,0
337.59567,337.66266,39,110,0
337.6671,338.09122,40,110,0
339.1671,339.23407,47,110,0
339.23853,339.3055,49,110,0
339.30997,339.37692,51,110,0
339.3814,339.8055,52,110,0
340.88138,340.94836,35,110,0
340.95282,341.01978,37,110,0
341.02426,341.09122,39,110,0
341.09567,341.51978,40,110,0
341.52426,341.94836,59,80,0
341.52426,341.94836,52,80,0
341.95282,342.37692,59,80,0
341.95282,342.37692,54,80,0
342.38138,342.8055,59,80,0
342.38138,342.8055,56,80,0
342.80997,343.66263,66,80,0
342.80997,343.66263,61,80,0
342.80997,343.66263,57,80,0
343.6671,344.09122,68,80,0
343.6671,344.09122,59,80,0
344.09567,344.51978,66,80,0
344.09567,344.51978,59,80,0
344.95282,345.37692,59,86,0
344.95282,345.37692,56,86,0
345.38138,345.80548,63,93,0
345.38138,345.80548,54,93,0
345.80997,346.23407,64,99,0
345.80997,346.23407,52,99,0
346.23853,346.87692,68,110,0
346.23853,347.09122,57,110,0
346.88138,347.09122,66,110,0
347.09567,347.51978,64,110,0
347.09567,347.51978,59,110,0
347.52423,347.94836,63,110,0
347.52423,347.94836,59,110,0
348.39725,348.83707,64,120,0
348.39725,348.83707,59,120,0
348.39725,348.83707,56,120,0
348.8417,349.3167,63,120,0
348.8417,349.3167,57,120,0
348.8417,349.3167,54,120,0
349.32172,349.8165,64,120,0
349.32172,349.8165,59,120,0
349.32172,349.8165,56,120,0
349.32172,349.8165,52,120,0
349.82172,350.3165,57,120,0
349.82172,350.3165,54,120,0
349.82172,350.3165,49,120,0
349.82172,350.3165,45,120,0
351.82172,352.36148,47,80,0
351.82172,352.36148,35,80,0
354.0035,354.8562,40,70,0
354.86066,355.71335,45,70,0
355.7178,356.57047,44,70,0
356.57495,357.4276,49,70,0
357.4321,358.28476,47,70,0
358.2892,359.1419,45,70,0
359.14636,359.99905,44,70,0
360.0035,360.8562,41,100,0
360.0035,360.8562,29,100,0
360.86066,361.71332,40,70,0
360.86066,361.71332,28,70,0
361.7178,362.57047,42,100,0
361.7178,362.57047,30,100,0
362.57495,363.4276,40,70,0
362.57495,363.4276,28,70,0
363.43207,364.28476,41,100,0
363.43207,364.28476,29,100,0
364.2892,365.1419,40,70,0
364.2892,365.1419,28,70,0
365.14636,365.99905,42,100,0
365.14636,365.99905,30,100,0
366.2178,366.4276,40,80,0
366.43207,366.6419,40,80,0
366.64636,366.85617,40,80,0
367.07492,367.28476,40,80,0
367.07492,367.28476,51,80,0
367.2892,367.49905,40,80,0
367.2892,367.49905,51,80,0
367.5035,367.71332,40,80,0
367.5035,367.71332,51,80,0
367.93207,368.1419,52,80,0
367.93207,368.1419,40,80,0
368.14636,368.35617,52,80,0
368.14636,368.35617,40,80,0
368.36066,368.57047,52,80,0
368.36066,368.57047,40,80,0
368.7892,368.99905,54,80,0
368.7892,368.99905,45,80,0
368.7892,368.99905,40,80,0
369.0035,369.21332,54,80,0
369.0035,369.21332,45,80,0
369.0035,369.21332,40,80,0
369.2178,369.4276,54,80,0
369.2178,369.4276,45,80,0
369.2178,369.4276,40,80,0
369.6543,369.8719,40,80,0
369.87653,370.09412,40,80,0
370.09875,370.31635,40,80,0
370.54318,370.76077,40,80,0
370.54318,370.76077,51,80,0
370.7654,370.983,40,80,0
370.7654,370.983,51,80,0
370.98764,371.20523,40,80,0
370.98764,371.20523,51,80,0
371.43207,371.64966,52,80,0
371.43207,371.64966,40,80,0
371.6543,371.8719,52,80,0
371.6543,371.8719,40,80,0
371.87653,372.09412,52,80,0
371.87653,372.09412,40,80,0
372.32095,372.53854,54,80,0
372.32095,372.53854,45,80,0
372.32095,372.53854,40,80,0
372.54318,372.76077,54,80,0
372.54318,372.76077,45,80,0
372.54318,372.76077,40,80,0
372.7654,372.983,54,80,0
372.7654,372.983,45,80,0
372.7654,372.983,40,80,0
373.22385,373.45514,52,80,0
373.22385,373.45514,40,80,0
373.22385,373.45514,44,80,0
373.46005,373.69138,52,79,0
373.46005,373.69138,40,79,0
373.46005,373.69138,44,79,0
373.6963,373.92758,52,79,0
373.6963,373.92758,40,79,0
373.6963,373.92758,44,79,0
374.16873,374.40002,54,77,0
374.16873,374.40002,45,77,0
374.16873,374.40002,40,77,0
374.40494,374.63623,54,77,0
374.40494,374.63623,45,77,0
374.40494,374.63623,40,77,0
374.64117,374.87247,54,76,0
374.64117,374.87247,45,76,0
374.64117,374.87247,40,76,0
375.11362,375.3449,52,75,0
375.11362,375.3449,40,75,0
375.11362,375.3449,44,75,0
375.34982,375.58112,52,74,0
375.34982,375.58112,40,74,0
375.34982,375.58112,44,74,0
375.58606,375.81735,52,73,0
375.58606,375.81735,40,73,0
375.58606,375.81735,44,73,0
376.05847,376.2898,54,72,0
376.05847,376.2898,45,72,0
376.05847,376.2898,40,72,0
376.2947,376.526,54,71,0
376.2947,376.526,45,71,0
376.2947,376.526,40,71,0
376.5309,376.76224,54,71,0
376.5309,376.76224,45,71,0
376.5309,376.76224,40,71,0
377.01715,377.26193,52,70,0
377.01715,377.26193,47,70,0
377.01715,377.26193,44,70,0
377.01715,377.26193,40,70,0
377.26715,377.51193,52,70,0
377.26715,377.51193,47,70,0
377.26715,377.51193,44,70,0
377.26715,377.51193,40,70,0
377.51715,377.76193,52,70,0
377.51715,377.76193,47,70,0
377.51715,377.76193,44,70,0
377.51715,377.76193,40,70,0
378.0399,378.30692,52,70,0
378.0399,378.30692,47,70,0
378.0399,378.30692,44,70,0
378.0399,378.30692,40,70,0
378.3126,378.63898,52,70,0
378.3126,378.63898,47,70,0
378.3126,378.63898,44,70,0
378.3126,378.63898,40,70,0
378.64594,378.97232,52,70,0
378.64594,378.97232,47,70,0
378.64594,378.97232,44,70,0
378.64594,378.97232,40,70,0
379.64594,381.63898,52,70,0
379.64594,381.63898,47,70,0
379.64594,381.63898,44,70,0
379.64594,381.63898,40,70,0
