start_time,end_time,note_value,velocity,instrument_program_number
0.1666665,0.32638857,62,80,0
0.333333,0.49305508,74,80,0
0.4999995,0.65972155,70,80,0
0.666666,0.82638806,71,80,0
0.8333325,0.99305457,66,80,0
0.999999,1.493054,67,80,0
1.4999985,1.6597205,62,80,0
1.666665,1.826387,74,80,0
1.8333315,1.9930536,70,80,0
1.999998,2.15972,71,80,0
2.1666646,2.3263865,66,80,0
2.333331,2.826386,67,80,0
2.8333304,2.9930525,64,80,0
2.999997,3.159719,76,80,0
3.1666634,3.3263855,71,80,0
3.33333,3.493052,72,80,0
3.4999964,3.6597185,68,80,0
3.666663,4.159718,69,80,0
4.1666627,4.3263845,64,80,0
4.333329,4.493051,76,80,0
4.4999957,4.6597176,71,80,0
4.666662,4.826384,72,80,0
4.8333287,4.9930506,68,80,0
4.999995,5.49305,69,80,0
5.4999943,5.6597166,69,80,0
5.666661,5.826383,84,80,0
5.8333273,5.9930496,83,80,0
5.999994,6.493049,81,80,0
6.4999933,6.6597157,79,80,0
6.66666,6.826382,78,80,0
6.8333263,6.9930487,76,80,0
6.999993,7.159715,74,80,0
7.1666594,7.3263817,72,80,0
7.333326,7.368048,74,80,0
7.374993,7.493048,72,80,0
7.4999924,7.826381,71,80,0
7.8333254,7.9930477,79,80,0
7.999992,8.159714,79,80,0
8.166658,8.493047,69,80,0
8.499991,8.659714,76,80,0
8.666658,8.82638,76,80,0
8.833324,9.159713,67,80,0
9.166657,9.32638,74,80,0
9.333324,9.493046,74,80,0
9.49999,9.826379,60,80,0
9.8333235,9.993046,66,80,0
9.99999,10.659712,67,80,0
9.99999,10.659712,59,80,0
10.999989,11.326378,74,80,0
11.333322,11.659711,74,80,0
11.666655,11.993044,74,85,0
11.999988,12.326377,74,91,0
12.333321,12.493043,74,97,0
12.416655,12.576376,76,98,0
12.499988,12.65971,73,99,0
12.583321,12.743043,74,100,0
12.666654,13.326376,76,100,0
13.33332,13.659709,74,80,0
14.499986,14.659708,74,83,0
14.666652,14.826374,74,87,0
14.833319,14.993041,74,91,0
14.999985,15.159707,74,95,0
15.166652,15.326373,74,99,0
15.333318,15.993039,76,100,0
15.999984,16.326372,74,80,0
16.999983,17.493038,74,80,0
17.499983,17.576372,76,80,0
17.583315,17.659704,74,80,0
17.666649,17.82637,72,80,0
17.833315,17.993038,71,80,0
17.999983,18.32637,71,80,0
18.333315,18.993036,69,80,0
18.99998,19.32637,67,80,0
19.333315,19.43748,66,80,0
19.38887,19.493036,67,80,0
19.444426,19.548592,69,80,0
19.49998,19.659702,67,80,0
19.666647,20.326368,66,80,0
20.333313,20.659702,74,80,0
20.666645,20.993034,74,80,0
20.999979,21.6597,73,80,0
21.666645,21.993034,71,80,0
21.999977,22.104145,69,80,0
22.055534,22.1597,71,80,0
22.11109,22.215256,73,80,0
22.166645,22.326366,71,80,0
22.333311,22.993032,69,80,0
22.999977,23.326366,78,80,0
23.33331,23.659698,78,80,0
23.666643,24.326365,76,80,0
24.33331,24.659698,74,80,0
24.666641,24.99303,74,80,0
24.999975,25.659697,73,80,0
25.666641,25.993029,71,80,0
25.999973,26.326363,71,80,0
26.333307,26.659695,69,80,0
26.777752,26.881918,74,80,0
26.888863,26.993029,76,80,0
26.999973,27.10414,78,80,0
27.111084,27.21525,76,80,0
27.222195,27.32636,74,80,0
27.333305,27.659695,74,80,0
27.66664,27.993027,73,80,0
28.111082,28.21525,71,80,0
28.222195,28.32636,73,80,0
28.333305,28.437471,74,80,0
28.444416,28.548582,73,80,0
28.555527,28.659693,71,80,0
28.666637,28.993027,71,80,0
28.999971,29.326359,69,80,0
29.444414,29.548582,74,80,0
29.555527,29.659693,76,80,0
29.666637,29.770803,78,80,0
29.777748,29.881914,76,80,0
29.888859,29.993025,74,80,0
29.99997,30.104137,74,80,0
30.11108,30.215248,73,80,0
30.222193,30.326359,74,80,0
30.333303,30.43747,76,80,0
30.444414,30.54858,74,80,0
30.555525,30.65969,73,80,0
30.666636,30.770803,73,80,0
30.777746,30.881914,71,80,0
30.888859,30.993025,73,80,0
30.99997,31.104136,74,80,0
31.11108,31.215246,73,80,0
31.22219,31.326357,71,80,0
31.333302,31.443596,71,80,0
31.450949,31.561243,69,80,0
31.568596,31.67889,68,80,0
31.686243,31.796537,69,80,0
31.80389,31.914185,71,80,0
31.921537,32.03183,73,80,0
32.039185,32.156372,74,80,0
32.164185,32.281372,75,80,0
32.289185,32.406372,76,80,0
32.414185,32.500122,77,80,0
32.507935,32.593872,78,80,0
32.601685,32.687622,79,80,0
32.695435,32.781372,80,80,0
32.789185,33.156372,81,80,0
33.164185,33.531372,81,80,0
33.539185,33.906372,81,80,0
33.914185,34.281372,81,80,0
34.289185,34.782238,81,80,0
34.289185,34.782238,78,80,0
34.789185,34.948906,80,80,0
34.789185,34.948906,77,80,0
34.95585,35.448906,81,80,0
34.95585,35.448906,78,80,0
35.45585,35.61557,80,80,0
35.45585,35.61557,77,80,0
35.622517,36.11557,81,80,0
35.622517,36.11557,78,80,0
36.122517,36.282238,79,80,0
36.122517,36.282238,76,80,0
36.28918,36.448906,79,80,0
36.28918,36.448906,76,80,0
36.45585,36.61557,78,80,0
36.45585,36.61557,74,80,0
36.622517,36.782238,74,80,0
36.622517,36.782238,78,80,0
36.78918,36.948902,76,80,0
36.78918,36.948902,73,80,0
36.95585,37.11557,76,80,0
36.95585,37.11557,73,80,0
37.122513,37.282238,74,80,0
37.122513,37.282238,71,80,0
37.28918,37.448902,74,80,0
37.28918,37.448902,71,80,0
37.45585,37.61557,73,80,0
37.45585,37.61557,69,80,0
37.622513,37.782234,73,80,0
37.622513,37.782234,69,80,0
37.78918,37.948902,71,80,0
37.78918,37.948902,67,80,0
37.95585,38.11557,71,80,0
37.95585,38.11557,67,80,0
38.122513,38.282234,69,80,0
38.122513,38.282234,66,80,0
38.28918,38.948902,66,80,0
38.28918,38.948902,63,80,0
38.955845,39.282234,67,80,0
38.955845,39.282234,64,80,0
39.622513,40.115566,79,80,0
39.622513,40.115566,76,80,0
40.122513,40.282234,78,80,0
40.122513,40.282234,75,80,0
40.289177,40.782234,79,80,0
40.289177,40.782234,76,80,0
40.789177,40.9489,78,80,0
40.789177,40.9489,75,80,0
40.955845,41.4489,79,80,0
40.955845,41.4489,76,80,0
41.455845,41.615566,78,80,0
41.455845,41.615566,74,80,0
41.62251,41.78223,78,80,0
41.62251,41.78223,74,80,0
41.789177,41.9489,76,80,0
41.789177,41.9489,73,80,0
41.955845,42.115566,76,80,0
41.955845,42.115566,73,80,0
42.12251,42.28223,74,80,0
42.12251,42.28223,71,80,0
42.289177,42.4489,74,80,0
42.289177,42.4489,71,80,0
42.45584,42.615566,73,80,0
42.45584,42.615566,69,80,0
42.62251,42.78223,73,80,0
42.62251,42.78223,69,80,0
42.789177,42.9489,71,80,0
42.789177,42.9489,67,80,0
42.95584,43.115562,71,80,0
42.95584,43.115562,67,80,0
43.12251,43.28223,69,80,0
43.12251,43.28223,66,80,0
43.289173,43.4489,69,80,0
43.289173,43.4489,66,80,0
43.45584,43.615562,67,80,0
43.45584,43.615562,64,80,0
43.62251,43.9489,66,80,0
43.62251,43.9489,62,80,0
43.95584,44.28223,71,80,0
43.95584,44.28223,66,80,0
44.289173,44.615562,69,80,0
44.289173,44.615562,64,80,0
44.622505,44.948895,67,80,0
44.622505,44.948895,61,80,0
44.95584,45.28223,66,80,0
44.95584,45.28223,62,80,0
45.289173,45.615562,71,80,0
45.289173,45.615562,66,80,0
45.622505,45.948895,69,80,0
45.622505,45.948895,64,80,0
45.955837,46.282227,67,80,0
45.955837,46.282227,61,80,0
46.289173,46.615562,66,80,0
46.455837,46.615562,62,80,0
46.622505,46.782227,66,80,0
46.622505,46.948895,71,80,0
46.789173,46.948895,62,80,0
46.955837,47.11556,61,80,0
46.955837,47.282227,69,80,0
47.122505,47.282227,64,80,0
47.28917,47.448895,59,80,0
47.28917,47.61556,68,80,0
47.455837,47.61556,62,80,0
47.622505,47.94889,69,80,0
48.955837,49.282223,78,80,0
49.28917,49.61556,83,80,0
49.6225,49.94889,81,80,0
49.955833,50.282223,79,80,0
49.955833,50.282223,73,80,0
50.28917,50.615555,78,80,0
50.6225,50.94889,83,80,0
50.955833,51.301422,81,80,0
51.308777,51.675964,79,80,0
51.308777,51.675964,73,80,0
51.683777,52.010162,78,80,0
51.683777,52.010162,74,80,0
52.01711,52.67683,86,82,0
52.683773,53.343494,86,87,0
53.35044,53.67683,86,93,0
53.683773,54.010162,86,95,0
54.017105,54.343494,86,98,0
54.350437,54.510162,83,80,0
54.433773,54.593494,85,80,0
54.517105,54.676826,83,80,0
54.600437,54.760162,82,80,0
54.683773,54.843494,83,80,0
54.767105,54.926826,85,80,0
54.850437,55.010162,86,80,0
54.933773,55.093494,85,80,0
55.017105,55.176826,83,80,0
55.100437,55.26016,85,80,0
55.183773,55.343494,83,80,0
55.267105,55.426826,82,80,0
55.350437,55.51016,83,80,0
55.433773,55.593494,85,80,0
55.517105,55.676826,86,80,0
55.600437,55.76016,85,80,0
55.68377,55.843494,86,81,0
55.767105,55.926826,88,82,0
55.850437,56.01016,86,83,0
55.93377,56.093494,85,85,0
56.017105,56.176826,86,86,0
56.100437,56.26016,88,87,0
56.18377,56.343494,89,89,0
56.267105,56.426826,88,90,0
56.350437,56.51016,86,91,0
56.43377,56.59349,88,93,0
56.517105,56.676826,86,94,0
56.600437,56.76016,85,95,0
56.68377,56.84349,86,97,0
56.767105,56.926826,88,98,0
56.850437,57.01016,89,99,0
56.93377,57.09349,88,110,0
57.0171,57.176826,86,110,0
57.100437,57.26016,88,110,0
57.18377,57.34349,86,110,0
57.2671,57.426826,85,110,0
57.350437,57.51016,86,110,0
57.43377,57.59349,88,110,0
57.5171,57.676823,90,110,0
57.600437,57.76016,88,110,0
57.68377,57.84349,86,110,0
57.7671,57.926823,85,110,0
57.850437,58.01016,83,110,0
57.93377,58.09349,81,110,0
58.0171,58.176823,79,110,0
58.100433,58.26016,78,110,0
58.18377,58.34349,76,110,0
58.2671,58.426823,74,110,0
58.350433,58.426823,74,110,0
58.350433,59.010155,78,110,0
59.0171,59.676823,76,110,0
59.0171,59.676823,73,110,0
59.683765,59.84349,74,110,0
59.7671,59.926823,76,110,0
59.850433,60.010155,78,110,0
59.933765,60.09349,79,110,0
60.0171,60.176823,81,110,0
60.100433,60.260155,79,110,0
60.183765,60.343487,78,110,0
60.2671,60.426823,76,110,0
60.350433,60.510155,74,110,0
60.433765,60.593487,73,110,0
60.5171,60.676823,71,110,0
60.600433,60.760155,69,110,0
60.683765,60.843487,67,110,0
60.767097,60.926823,66,110,0
60.850433,61.010155,64,110,0
60.933765,61.09798,62,110,0
61.017097,61.09798,62,110,0
61.017097,61.71563,66,110,0
61.72298,62.465168,64,110,0
61.72298,62.465168,61,110,0
62.47298,62.63821,62,80,0
62.645393,62.810623,57,80,0
62.81781,62.98304,62,80,0
62.81781,62.98304,66,80,0
62.990223,63.155453,57,80,0
63.162636,63.327866,64,80,0
63.162636,63.327866,67,80,0
63.33505,63.50028,57,80,0
63.507465,63.672695,68,80,0
63.507465,63.672695,65,80,0
63.67988,63.845108,57,80,0
64.024704,64.36235,57,80,0
64.36953,64.70718,57,80,0
64.71436,65.052,57,80,0
65.05919,65.39683,57,80,0
63.85229,65.569244,66,80,0
63.85229,65.569244,69,80,0
65.404015,65.569244,57,80,0
65.57643,65.74166,62,80,0
65.57643,65.91407,66,80,0
65.74884,65.91407,57,80,0
65.92126,66.08649,67,80,0
65.92126,66.258896,71,80,0
66.093666,66.258896,57,80,0
66.26608,66.43131,66,80,0
66.26608,66.60373,69,80,0
66.4385,66.60373,57,80,0
66.783325,67.12097,57,80,0
67.12815,67.4658,57,80,0
67.47298,67.81062,57,80,0
67.81781,68.15545,57,80,0
66.61091,68.327866,64,80,0
66.61091,68.327866,67,80,0
68.162636,68.327866,57,80,0
68.335045,68.500275,64,80,0
68.335045,68.67269,67,80,0
68.50746,68.67269,57,80,0
68.67988,68.84511,66,80,0
68.67988,69.01752,69,80,0
68.85229,69.01752,57,80,0
69.024704,69.18993,64,80,0
69.024704,69.36235,67,80,0
69.19712,69.36235,57,80,0
69.54195,69.70718,57,80,0
69.88677,70.052,58,80,0
70.2316,70.39683,59,80,0
70.57642,70.74165,54,80,0
69.36953,71.08649,62,80,0
69.36953,71.08649,66,80,0
70.92126,71.08649,55,80,0
71.093666,71.258896,62,80,0
71.093666,71.43131,64,80,0
71.26608,71.43131,56,80,0
71.4385,71.60373,62,80,0
71.4385,71.77614,64,80,0
71.61091,71.77614,57,80,0
71.783325,71.948555,61,80,0
71.783325,72.120964,67,80,0
71.955734,72.120964,57,80,0
72.30057,72.4658,57,80,0
72.64539,72.81062,58,80,0
72.99022,73.15545,59,80,0
73.335045,73.500275,54,80,0
72.12815,73.84511,62,80,0
72.12815,73.84511,66,80,0
73.67988,73.84511,55,80,0
73.85229,74.01752,62,80,0
73.85229,74.18993,64,80,0
74.024704,74.18993,56,80,0
74.19711,74.36234,62,80,0
74.19711,74.53476,64,80,0
74.36953,74.53476,57,80,0
74.54195,74.70718,61,80,0
74.54195,74.879585,67,80,0
74.714355,74.879585,57,80,0
75.05918,75.22441,57,80,0
75.404015,75.569244,58,80,0
75.74884,75.91407,59,80,0
76.093666,76.258896,60,80,0
74.88677,76.60372,62,80,0
74.88677,76.60372,66,80,0
76.43849,76.60372,59,80,0
76.61091,76.77614,64,80,0
76.61091,76.948555,67,80,0
76.783325,76.948555,59,80,0
76.955734,77.120964,62,80,0
76.955734,77.29338,66,80,0
77.12815,77.29338,57,80,0
77.30056,77.46579,61,80,0
77.30056,77.63821,64,80,0
77.47298,77.63821,55,80,0
77.64539,77.81062,54,80,0
77.8178,77.98303,57,80,0
77.99022,78.15545,54,80,0
78.162636,78.327866,57,80,0
78.335045,78.500275,54,80,0
77.64539,78.67269,62,80,0
78.50746,78.67269,57,80,0
78.67987,78.8451,55,80,0
78.67987,79.01752,64,80,0
78.85229,79.01752,61,80,0
79.024704,79.18993,57,80,0
79.19711,79.36234,62,80,0
79.36953,79.53476,57,80,0
79.54194,79.70717,62,80,0
79.714355,79.879585,57,80,0
79.024704,80.052,66,80,0
79.88677,80.052,62,80,0
80.05918,80.22441,55,80,0
80.05918,80.39683,64,80,0
80.2316,80.39683,61,80,0
80.404015,81.43131,62,80,0
81.43849,81.77614,73,91,0
81.43849,81.77614,64,94,0
81.78332,82.120964,74,80,0
81.78332,82.120964,62,80,0
82.12815,82.46579,73,94,0
82.12815,82.46579,64,95,0
82.47298,82.81062,74,80,0
82.47298,82.81062,62,80,0
82.8178,82.99527,73,80,0
82.91039,83.08787,74,80,0
82.8178,83.18046,64,80,0
83.00299,83.18046,71,80,0
83.09558,83.26542,73,80,0
83.18817,84.529465,76,80,0
83.18817,84.529465,67,80,0
84.53648,84.86655,74,80,0
84.53648,84.86655,66,80,0
85.37918,85.5407,62,80,0
85.54772,85.709236,74,80,0
85.71626,85.87778,70,80,0
85.8848,86.04632,71,80,0
86.05334,86.21486,66,80,0
86.22188,86.720474,67,80,0
86.7275,86.889015,62,80,0
86.896034,87.057556,74,80,0
87.064575,87.22609,70,80,0
87.233116,87.39463,71,80,0
87.40166,87.56317,66,80,0
87.57019,88.06879,67,80,0
88.07581,88.23733,64,80,0
88.244354,88.40587,76,80,0
88.41289,88.57441,71,80,0
88.58143,88.74294,72,80,0
88.74997,88.91148,68,80,0
88.91851,89.41711,69,80,0
89.424126,89.58564,64,80,0
89.59267,89.75418,76,80,0
89.76121,89.92272,71,80,0
89.92974,90.09126,72,80,0
90.09828,90.259796,68,80,0
90.26682,90.76542,69,80,0
90.77244,90.93396,69,80,0
90.94098,91.10249,84,80,0
91.10952,91.271034,83,80,0
91.27806,91.77665,81,80,0
91.783676,91.94519,79,80,0
91.95222,92.11373,78,80,0
92.12075,92.28227,76,80,0
92.28929,92.45081,74,80,0
92.45783,92.61935,72,80,0
92.62637,92.66148,74,80,0
92.6685,92.78789,72,80,0
92.794914,93.12497,71,80,0
93.13199,93.2935,79,80,0
93.30053,93.46204,79,80,0
93.46907,93.799126,69,80,0
93.806145,93.96767,76,80,0
93.974686,94.1362,76,80,0
94.14323,94.47328,67,80,0
94.4803,94.64182,74,80,0
94.64884,94.810356,74,80,0
94.81738,95.14744,60,80,0
95.15446,95.31598,66,80,0
95.323,95.990135,67,80,0
95.323,95.990135,59,80,0
96.334236,96.66429,74,80,0
96.67131,97.00137,74,84,0
97.00839,97.33845,74,88,0
97.345474,97.67553,74,93,0
97.68255,97.84406,74,97,0
97.766815,97.92834,76,98,0
97.85109,98.0126,73,99,0
97.935356,98.09688,74,100,0
98.01963,98.68676,76,100,0
98.69379,99.02384,74,80,0
99.87356,100.03507,74,80,0
100.0421,100.20361,74,84,0
100.21064,100.372154,74,89,0
100.37917,100.540695,74,94,0
100.547714,100.709236,74,99,0
100.716255,101.38339,76,100,0
101.39041,101.72047,74,80,0
102.40165,102.900246,74,80,0
102.907265,102.98451,76,80,0
102.99154,103.06878,74,80,0
103.075806,103.23732,72,80,0
103.24435,103.40586,71,80,0
103.41288,103.74294,71,80,0
103.74996,104.4171,69,81,0
104.42412,104.75417,67,83,0
104.7612,104.86653,66,84,0
104.817375,104.922714,67,84,0
104.87356,104.9789,69,84,0
104.92973,105.091255,67,84,0
105.098274,105.76541,66,85,0
105.77243,106.102486,74,87,0
106.10951,106.43957,74,88,0
106.44659,107.11372,73,89,0
107.12075,107.450806,71,91,0
107.457825,107.56316,69,92,0
107.51401,107.61934,71,92,0
107.57018,107.67552,73,92,0
107.626366,107.78788,71,92,0
107.79491,108.462036,69,93,0
108.46906,108.79912,78,95,0
108.80614,109.13619,78,96,0
109.14322,109.810356,76,97,0
109.817375,110.14743,74,99,0
110.15446,110.48451,74,80,0
110.49153,111.15867,73,80,0
111.16569,111.49574,71,80,0
111.50277,111.832825,71,80,0
111.83984,112.1699,69,80,0
112.28928,112.39462,74,80,0
112.40164,112.50698,76,80,0
112.514,112.61934,78,80,0
112.626366,112.7317,76,80,0
112.73872,112.84406,74,80,0
112.85108,113.18114,74,80,0
113.18816,113.51822,73,80,0
113.637596,113.742935,71,80,0
113.749954,113.85529,73,80,0
113.86232,113.96765,74,80,0
113.97468,114.08002,73,80,0
114.087036,114.192375,71,80,0
114.199394,114.52945,71,80,0
114.536476,114.86653,69,80,0
114.98591,115.09125,74,80,0
115.098274,115.203606,76,80,0
115.21063,115.31597,78,80,0
115.32299,115.42833,76,80,0
115.43535,115.54069,74,80,0
115.54771,115.653046,74,80,0
115.66007,115.7654,73,80,0
115.77243,115.87776,74,80,0
115.88479,115.99013,76,80,0
115.99715,116.102486,74,80,0
116.109505,116.21484,73,80,0
116.22186,116.3272,73,80,0
116.33423,116.43956,71,80,0
116.44659,116.551926,73,80,0
116.558945,116.66428,74,80,0
116.6713,116.77664,73,80,0
116.78366,116.889,71,80,0
116.89603,117.00136,71,80,0
117.008385,117.11372,69,80,0
117.12074,117.22608,68,80,0
117.2331,117.33844,69,80,0
117.34546,117.4508,71,80,0
117.457825,117.563156,73,80,0
117.57018,117.68047,74,80,0
117.68783,117.79812,75,80,0
117.80547,117.91577,76,80,0
117.92312,118.017296,77,80,0
118.02586,118.12004,78,80,0
118.1286,118.22278,79,80,0
118.23134,118.325516,80,80,0
118.33408,118.73647,81,80,0
118.74504,119.14744,81,80,0
119.156,119.558395,81,80,0
119.566956,119.96935,81,80,0
119.97791,120.50978,81,80,0
119.97791,120.50978,78,80,0
120.51672,120.676445,80,80,0
120.51672,120.676445,77,80,0
120.683395,121.176445,81,80,0
120.683395,121.176445,78,80,0
121.183395,121.34312,80,80,0
121.183395,121.34312,77,80,0
121.35006,121.84312,81,80,0
121.35006,121.84312,78,80,0
121.85006,122.00978,79,80,0
121.85006,122.00978,76,80,0
122.01672,122.176445,79,80,0
122.01672,122.176445,76,80,0
122.18339,122.34312,78,80,0
122.18339,122.34312,74,80,0
122.35006,122.50978,74,80,0
122.35006,122.50978,78,80,0
122.51672,122.676445,76,80,0
122.51672,122.676445,73,80,0
122.68339,122.84311,76,80,0
122.68339,122.84311,73,80,0
122.85006,123.00978,74,80,0
122.85006,123.00978,71,80,0
123.01672,123.176445,74,80,0
123.01672,123.176445,71,80,0
123.18339,123.34311,73,80,0
123.18339,123.34311,69,80,0
123.35006,123.50978,73,80,0
123.35006,123.50978,69,80,0
123.51672,123.676445,71,80,0
123.51672,123.676445,67,80,0
123.68339,123.84311,71,80,0
123.68339,123.84311,67,80,0
123.85006,124.00978,69,80,0
123.85006,124.00978,66,80,0
124.01672,124.676445,66,80,0
124.01672,124.676445,63,80,0
124.68339,125.00978,67,80,0
124.68339,125.00978,64,80,0
125.35005,125.84311,79,80,0
125.35005,125.84311,76,80,0
125.85005,126.00977,78,80,0
125.85005,126.00977,75,80,0
126.01672,126.50977,79,80,0
126.01672,126.50977,76,80,0
126.51672,126.676445,78,80,0
126.51672,126.676445,75,80,0
126.68339,127.176445,79,80,0
126.68339,127.176445,76,80,0
127.18339,127.34311,78,80,0
127.18339,127.34311,74,80,0
127.35005,127.50977,78,80,0
127.35005,127.50977,74,80,0
127.516716,127.676445,76,80,0
127.516716,127.676445,73,80,0
127.68339,127.84311,76,80,0
127.68339,127.84311,73,80,0
127.85005,128.00978,74,80,0
127.85005,128.00978,71,80,0
128.01672,128.17644,74,80,0
128.01672,128.17644,71,80,0
128.18338,128.34311,73,80,0
128.18338,128.34311,69,80,0
128.35005,128.50978,73,80,0
128.35005,128.50978,69,80,0
128.51672,128.67644,71,80,0
128.51672,128.67644,67,80,0
128.68338,128.84311,71,80,0
128.68338,128.84311,67,80,0
128.85005,129.00978,69,80,0
128.85005,129.00978,66,80,0
129.01672,129.17644,69,80,0
129.01672,129.17644,66,80,0
129.18338,129.34311,67,80,0
129.18338,129.34311,64,80,0
129.35005,129.67644,66,80,0
129.35005,129.67644,62,80,0
129.68338,130.00977,71,80,0
129.68338,130.00977,66,80,0
130.01672,130.34311,69,80,0
130.01672,130.34311,64,80,0
130.35005,130.67644,67,80,0
130.35005,130.67644,61,80,0
130.68338,131.00977,66,80,0
130.68338,131.00977,62,80,0
131.01671,131.34311,71,80,0
131.01671,131.34311,66,80,0
131.35005,131.67644,69,80,0
131.35005,131.67644,64,80,0
131.68338,132.00977,67,80,0
131.68338,132.00977,61,80,0
132.01671,132.34311,66,80,0
132.18338,132.34311,62,80,0
132.35005,132.50977,66,80,0
132.35005,132.67644,71,80,0
132.51671,132.67644,62,80,0
132.68338,132.84311,61,80,0
132.68338,133.00977,69,80,0
132.85005,133.00977,64,80,0
133.01671,133.17644,59,80,0
133.01671,133.34311,68,80,0
133.18338,133.34311,62,80,0
133.35005,133.67644,69,80,0
134.68338,135.00977,78,80,0
135.01671,135.3431,83,80,0
135.35005,135.67644,81,80,0
135.68338,136.00977,79,80,0
135.68338,136.00977,73,80,0
136.01671,136.3431,78,80,0
136.35004,136.67644,83,80,0
136.68338,137.00977,81,80,0
137.01671,137.3431,79,80,0
137.01671,137.3431,73,80,0
137.35004,137.67644,78,80,0
137.35004,137.67644,74,80,0
137.68338,138.3431,86,82,0
138.35004,139.00977,86,87,0
139.01671,139.3431,86,93,0
139.35004,139.67642,86,95,0
139.68338,140.00977,86,98,0
140.01671,140.17642,83,80,0
140.10004,140.25977,85,80,0
140.18338,140.3431,83,80,0
140.26671,140.42642,82,80,0
140.35004,140.50977,83,80,0
140.43338,140.5931,85,80,0
140.51671,140.67642,86,80,0
140.60004,140.75977,85,80,0
140.68338,140.8431,83,80,0
140.76671,140.92642,85,80,0
140.85004,141.00977,83,80,0
140.93338,141.0931,82,80,0
141.01671,141.17642,83,80,0
141.10004,141.25977,85,80,0
141.18336,141.3431,86,80,0
141.26671,141.42642,85,80,0
141.35004,141.50977,86,81,0
141.43336,141.5931,88,82,0
141.51671,141.67642,86,83,0
141.60004,141.75977,85,85,0
141.68336,141.8431,86,86,0
141.76671,141.92642,88,87,0
141.85004,142.00977,89,89,0
141.93336,142.0931,88,90,0
142.01671,142.17642,86,91,0
142.10004,142.25977,88,93,0
142.18336,142.3431,86,94,0
142.26671,142.42642,85,95,0
142.35004,142.50977,86,97,0
142.43336,142.5931,88,98,0
142.51671,142.67642,89,99,0
142.60004,142.75977,88,110,0
142.68336,142.8431,86,110,0
142.76671,142.92642,88,110,0
142.85004,143.00977,86,110,0
142.93336,143.0931,85,110,0
143.01671,143.17642,86,110,0
143.10004,143.25977,88,110,0
143.18336,143.3431,90,110,0
143.26671,143.42642,88,110,0
143.35004,143.50977,86,110,0
143.43336,143.5931,85,110,0
143.51671,143.67642,83,110,0
143.60004,143.75977,81,110,0
143.68336,143.8431,79,110,0
143.76671,143.92642,78,110,0
143.85004,144.00977,76,110,0
143.93336,144.09758,74,110,0
144.01671,144.09758,74,110,0
144.01671,144.71523,78,110,0
144.72258,145.42111,76,110,0
144.72258,145.42111,73,110,0
145.42847,145.5882,74,110,0
145.5118,145.67152,76,110,0
145.59514,145.75485,78,110,0
145.67847,145.8382,79,110,0
145.7618,145.92152,81,110,0
145.84514,146.00485,79,110,0
145.92847,146.0882,78,110,0
146.0118,146.17152,76,110,0
146.09514,146.25485,74,110,0
146.17847,146.33818,73,110,0
146.2618,146.42152,71,110,0
146.34514,146.50485,69,110,0
146.42847,146.58818,67,110,0
146.5118,146.67152,66,110,0
146.59514,146.75485,64,110,0
146.67847,146.84268,62,110,0
146.7618,146.84268,62,110,0
146.7618,147.46033,66,110,0
147.46768,148.20987,64,110,0
147.46768,148.20987,61,110,0
148.21768,148.3829,62,80,0
148.39009,148.55533,57,80,0
148.56252,148.72774,62,80,0
148.56252,148.72774,66,80,0
148.73492,148.90015,57,80,0
148.90733,149.07257,64,80,0
148.90733,149.07257,67,80,0
149.07974,149.24498,57,80,0
149.25217,149.41739,68,80,0
149.25217,149.41739,65,80,0
149.42458,149.58981,57,80,0
149.76941,150.10706,57,80,0
150.11423,150.45187,57,80,0
150.45906,150.7967,57,80,0
150.8039,151.14153,57,80,0
149.59698,151.31395,66,80,0
149.59698,151.31395,69,80,0
151.14871,151.31395,57,80,0
151.32112,151.48636,62,80,0
151.32112,151.65877,66,80,0
151.49355,151.65877,57,80,0
151.66595,151.83119,67,80,0
151.66595,152.0036,71,80,0
151.83836,152.0036,57,80,0
152.01079,152.17601,66,80,0
152.01079,152.34843,69,80,0
152.1832,152.34843,57,80,0
152.52803,152.86566,57,80,0
152.87285,153.2105,57,80,0
153.21768,153.55533,57,80,0
153.5625,153.90015,57,80,0
152.3556,154.07257,64,80,0
152.3556,154.07257,67,80,0
153.90733,154.07257,57,80,0
154.07974,154.24498,64,80,0
154.07974,154.41739,67,80,0
154.25217,154.41739,57,80,0
154.42458,154.5898,66,80,0
154.42458,154.76222,69,80,0
154.59698,154.76222,57,80,0
154.76941,154.93463,64,80,0
154.76941,155.10704,67,80,0
154.94182,155.10704,57,80,0
155.28665,155.45187,57,80,0
155.63147,155.7967,58,80,0
155.9763,156.14153,59,80,0
156.32112,156.48636,54,80,0
155.11423,156.83118,62,80,0
155.11423,156.83118,66,80,0
156.66595,156.83118,55,80,0
156.83836,157.0036,62,80,0
156.83836,157.17601,64,80,0
157.01079,157.17601,56,80,0
157.1832,157.34842,62,80,0
157.1832,157.52084,64,80,0
157.3556,157.52084,57,80,0
157.52803,157.69325,61,80,0
157.52803,157.86566,67,80,0
157.70044,157.86566,57,80,0
158.04526,158.2105,57,80,0
158.39009,158.55533,58,80,0
158.73492,158.90015,59,80,0
159.07974,159.24498,54,80,0
157.87285,159.5898,62,80,0
157.87285,159.5898,66,80,0
159.42458,159.5898,55,80,0
159.59698,159.76222,62,80,0
159.59698,159.93463,64,80,0
159.76941,159.93463,56,80,0
159.94182,160.10704,62,80,0
159.94182,160.27946,64,80,0
160.11423,160.27946,57,80,0
160.28664,160.45187,61,80,0
160.28664,160.62428,67,80,0
160.45906,160.62428,57,80,0
160.80388,160.96912,57,80,0
161.14871,161.31393,58,80,0
161.49355,161.65877,59,80,0
161.83836,162.0036,60,80,0
160.63147,162.34842,62,80,0
160.63147,162.34842,66,80,0
162.1832,162.34842,59,80,0
162.3556,162.52084,64,80,0
162.3556,162.69325,67,80,0
162.52802,162.69325,59,80,0
162.70044,162.86566,62,80,0
162.70044,163.03809,66,80,0
162.87285,163.03809,57,80,0
163.04526,163.2105,61,80,0
163.04526,163.3829,64,80,0
163.21768,163.3829,55,80,0
163.39009,163.55531,54,80,0
163.5625,163.72774,57,80,0
163.73492,163.90015,54,80,0
163.90733,164.07256,57,80,0
164.07974,164.24498,54,80,0
163.39009,164.41739,62,80,0
164.25217,164.41739,57,80,0
164.42458,164.5898,55,80,0
164.42458,164.76222,64,80,0
164.59698,164.76222,61,80,0
164.7694,164.93463,57,80,0
164.94182,165.10704,62,80,0
165.11423,165.27946,57,80,0
165.28664,165.45187,62,80,0
165.45906,165.62428,57,80,0
164.7694,165.79669,66,80,0
165.63147,165.79669,62,80,0
165.80388,165.96912,55,80,0
165.80388,166.14153,64,80,0
165.9763,166.14153,61,80,0
166.14871,167.17601,62,80,0
167.1832,167.52084,73,90,0
167.1832,167.52084,64,90,0
167.52802,167.86566,74,80,0
167.52802,167.86566,62,80,0
167.87285,168.2105,73,90,0
167.87285,168.2105,64,90,0
168.21768,168.55531,74,80,0
168.21768,168.55531,62,80,0
168.5625,168.7357,73,80,0
168.65286,168.82605,74,80,0
168.5625,168.91641,64,80,0
168.74323,168.91641,71,80,0
168.83359,169.00034,73,80,0
168.92395,170.25034,76,80,0
168.92395,170.25034,67,80,0
170.25728,170.58366,74,80,0
170.25728,170.58366,66,80,0
171.0906,171.25034,62,80,0
171.25728,171.417,74,80,0
171.42395,171.58366,69,80,0
171.5906,171.75034,70,80,0
171.75728,171.917,66,80,0
171.92395,172.417,67,80,0
172.42395,172.58366,62,80,0
172.5906,172.75034,74,80,0
172.75728,172.917,69,80,0
172.92395,173.08366,70,80,0
173.0906,173.25034,66,80,0
173.25728,173.75034,67,80,0
173.75728,173.91699,67,80,0
173.92395,174.08366,79,80,0
174.0906,174.25034,74,80,0
174.25728,174.41699,75,80,0
174.42395,174.58366,71,80,0
174.5906,175.08366,72,80,0
175.0906,175.25034,67,80,0
175.25728,175.41699,79,80,0
175.42393,175.58366,74,80,0
175.5906,175.75034,75,80,0
175.75728,175.91699,71,80,0
175.92393,176.41699,72,80,0
176.42393,176.58366,86,70,0
176.5906,176.75034,87,70,0
176.75728,176.91699,83,70,0
176.92393,177.25034,84,70,0
177.75728,177.91699,74,70,0
177.92393,178.08366,75,70,0
178.0906,178.25034,71,70,0
178.25728,178.58366,72,70,0
179.0906,179.25032,86,70,0
179.25728,179.41699,87,70,0
179.42393,179.58366,83,70,0
179.5906,179.91699,84,70,0
180.42393,180.58366,65,79,0
180.5906,180.75032,75,81,0
180.75726,180.91699,71,83,0
180.92393,181.08366,72,85,0
181.0906,181.25032,68,87,0
181.25726,181.75032,69,89,0
181.75726,181.91699,65,95,0
181.92393,182.08366,75,97,0
182.0906,182.25032,71,99,0
182.25726,182.41699,72,110,0
182.42393,182.58366,68,110,0
182.5906,183.08366,69,110,0
185.07149,185.59787,77,80,0
185.07149,185.59787,74,80,0
185.60481,185.76454,76,80,0
185.60481,185.76454,73,80,0
185.77148,186.26454,77,80,0
185.77148,186.26454,74,80,0
186.27148,186.4312,76,80,0
186.27148,186.4312,73,80,0
186.43814,186.9312,77,80,0
186.43814,186.9312,74,80,0
186.93814,187.09787,75,80,0
186.93814,187.09787,72,80,0
187.10481,187.26454,75,80,0
187.10481,187.26454,72,80,0
187.27148,187.4312,74,80,0
187.27148,187.4312,70,80,0
187.43814,187.59787,74,80,0
187.43814,187.59787,70,80,0
187.60481,187.76454,72,80,0
187.60481,187.76454,69,80,0
187.77148,187.9312,72,80,0
187.77148,187.9312,69,80,0
187.93814,188.09787,70,80,0
187.93814,188.09787,67,80,0
188.10481,188.26454,70,80,0
188.10481,188.26454,67,80,0
188.27148,188.4312,69,80,0
188.27148,188.4312,65,80,0
188.43814,188.59787,69,80,0
188.43814,188.59787,65,80,0
188.60481,188.76454,67,80,0
188.60481,188.76454,63,80,0
188.77148,188.9312,67,80,0
188.77148,188.9312,63,80,0
188.93814,189.09787,62,80,0
188.93814,189.09787,65,80,0
189.10481,189.76453,62,80,0
189.10481,189.76453,59,80,0
189.77148,190.09787,63,80,0
189.77148,190.09787,60,80,0
190.43814,190.9312,75,80,0
190.43814,190.9312,72,80,0
190.93814,191.09787,74,79,0
190.93814,191.09787,71,79,0
191.10481,191.59787,75,79,0
191.10481,191.59787,72,79,0
191.60481,191.76453,74,77,0
191.60481,191.76453,71,77,0
191.77147,192.28154,75,77,0
191.77147,192.28154,72,77,0
192.28871,192.45395,74,76,0
192.28871,192.45395,71,76,0
192.46114,192.97119,75,75,0
192.46114,192.97119,72,75,0
192.97838,193.1436,74,74,0
192.97838,193.1436,71,74,0
193.15079,193.67906,75,74,0
193.15079,193.67906,72,74,0
193.6865,193.85764,74,72,0
193.6865,193.85764,71,72,0
193.86507,194.43173,75,72,0
193.86507,194.43173,72,72,0
194.44008,194.63174,74,71,0
194.44008,194.63174,71,71,0
194.64008,194.76508,75,110,0
194.7734,194.88869,72,110,0
194.89563,194.99979,63,110,0
195.00674,195.1109,75,110,0
195.11784,195.22202,72,110,0
195.22896,195.33313,63,110,0
195.34007,195.44424,75,110,0
195.45119,195.55534,72,110,0
195.56229,195.66646,63,110,0
195.6734,195.77757,75,110,0
195.78452,195.88869,72,110,0
195.89563,195.99979,63,110,0
196.00673,196.1109,75,110,0
196.11784,196.22202,72,110,0
196.22896,196.33313,63,110,0
196.34007,196.44423,75,110,0
196.45119,196.55534,72,110,0
196.56229,196.66646,63,110,0
196.6734,196.77757,75,110,0
196.78452,196.88869,72,110,0
196.89563,196.99979,63,110,0
197.00673,197.1109,75,110,0
197.11784,197.22202,72,110,0
197.22896,197.33313,63,110,0
197.34007,197.44423,75,110,0
197.45119,197.55534,72,110,0
197.56229,197.66646,63,110,0
197.6734,197.77757,75,110,0
197.78452,197.88867,72,110,0
197.89563,197.99979,63,110,0
198.00673,198.1109,75,110,0
198.11784,198.22202,72,110,0
198.22896,198.33313,63,110,0
198.34007,198.44423,75,110,0
198.45117,198.55534,72,110,0
198.56229,198.66646,63,110,0
198.6734,198.77757,74,110,0
198.78452,198.88867,72,110,0
198.89563,198.99979,62,110,0
199.00673,199.1109,74,110,0
199.11784,199.22202,72,110,0
199.22896,199.33313,62,110,0
199.34007,199.44423,74,110,0
199.45117,199.55534,72,110,0
199.56229,199.66646,62,110,0
199.6734,199.77757,74,110,0
199.78452,199.88867,72,110,0
199.89561,199.99979,62,110,0
200.00673,200.1109,74,110,0
200.11784,200.22202,72,110,0
200.22896,200.33311,62,110,0
200.34007,200.44423,74,110,0
200.45117,200.55534,72,110,0
200.56229,200.66646,62,110,0
200.6734,200.77757,74,110,0
200.78452,200.88867,72,110,0
200.89561,200.99979,62,110,0
201.00673,201.1109,74,110,0
201.11784,201.22202,72,110,0
201.22896,201.33311,62,110,0
201.34006,201.44423,74,110,0
201.45117,201.55534,70,110,0
201.56229,201.66646,62,110,0
201.6734,201.77756,74,110,0
201.78452,201.88867,70,110,0
201.89561,201.99979,67,110,0
202.00673,202.1109,74,110,0
202.11784,202.22202,70,110,0
202.22896,202.33311,67,110,0
202.34006,202.44423,74,110,0
202.45117,202.55534,70,110,0
202.56229,202.66646,67,110,0
202.6734,202.77756,74,110,0
202.7845,202.88867,70,110,0
202.89561,202.99979,67,110,0
203.00673,203.1109,74,110,0
203.11784,203.222,70,110,0
203.22896,203.33311,67,110,0
203.34006,203.44423,74,110,0
203.45117,203.55534,70,110,0
203.56229,203.66646,67,110,0
203.6734,203.77756,74,110,0
203.7845,203.88867,70,110,0
203.89561,203.99979,67,110,0
204.00673,204.1109,74,110,0
204.11784,204.222,70,110,0
204.22896,204.33311,67,110,0
204.34006,204.44423,74,110,0
204.45117,204.55534,70,110,0
204.56229,204.66644,67,110,0
204.6734,204.77756,74,110,0
204.7845,204.88867,70,110,0
204.89561,204.99979,67,110,0
205.00673,205.1109,74,110,0
205.11784,205.222,70,110,0
205.22894,205.33311,67,110,0
205.34006,205.44423,72,110,0
205.45117,205.55534,70,110,0
205.56229,205.66644,67,110,0
205.6734,205.77756,72,110,0
205.7845,205.88867,70,110,0
205.89561,205.99979,67,110,0
206.00673,206.1109,72,110,0
206.11784,206.222,70,110,0
206.22894,206.33311,67,110,0
206.34006,206.44423,72,110,0
206.45117,206.55534,70,110,0
206.56229,206.66644,67,110,0
206.67339,206.77756,72,110,0
206.7845,206.88867,70,110,0
206.89561,206.99979,67,110,0
207.00673,207.11089,76,110,0
207.11784,207.222,71,110,0
207.22894,207.33311,67,110,0
207.34006,207.44423,76,110,0
207.45117,207.55534,71,110,0
207.56229,207.66644,67,110,0
207.67339,207.77756,76,110,0
207.7845,207.88867,71,110,0
207.89561,207.99979,67,110,0
208.00673,208.11089,77,110,0
208.11783,208.222,68,110,0
208.22894,208.33311,65,110,0
208.34006,208.44423,77,110,0
208.45117,208.55533,68,110,0
208.56229,208.66644,65,110,0
208.67339,208.77756,77,110,0
208.7845,208.88867,68,110,0
208.89561,208.99979,65,110,0
209.00673,209.11089,77,110,0
209.11783,209.222,68,110,0
209.22894,209.33311,65,110,0
209.34006,209.44423,77,110,0
209.45117,209.55533,69,110,0
209.56229,209.66644,65,110,0
209.67339,209.77756,75,110,0
209.7845,209.88867,69,110,0
209.89561,209.99977,65,110,0
210.00673,210.11089,75,110,0
210.11783,210.222,69,110,0
210.22894,210.33311,65,110,0
210.34006,210.44423,75,110,0
210.45117,210.55533,69,110,0
210.56227,210.66644,65,110,0
210.67339,210.77756,75,110,0
210.7845,210.88867,70,110,0
210.89561,210.99977,65,110,0
211.00673,211.11089,74,110,0
211.11783,211.222,70,110,0
211.22894,211.33311,65,110,0
211.34006,211.44421,74,110,0
211.45117,211.55533,70,110,0
211.56227,211.66644,65,110,0
211.67339,211.77756,74,110,0
211.7845,211.88867,70,110,0
211.89561,211.99977,65,110,0
212.00671,212.11089,74,110,0
212.11783,212.222,70,110,0
212.22894,212.33311,65,110,0
212.34006,212.44421,74,110,0
212.45117,212.55533,70,110,0
212.56227,212.66644,65,110,0
212.67339,212.77756,74,110,0
212.7845,212.88867,70,110,0
212.89561,212.99977,65,110,0
213.00671,213.11089,74,110,0
213.11783,213.222,70,110,0
213.22894,213.33311,65,110,0
213.34006,213.44421,74,110,0
213.45116,213.55533,70,110,0
213.56227,213.66644,65,110,0
213.67339,213.77756,77,110,0
213.7845,213.88866,74,110,0
213.89561,213.99977,70,110,0
214.00671,214.11089,77,110,0
214.11783,214.222,74,110,0
214.22894,214.33311,70,110,0
214.34006,214.44421,77,110,0
214.45116,214.55533,74,110,0
214.56227,214.66644,70,110,0
214.67339,214.77756,77,110,0
214.7845,214.88866,74,110,0
214.8956,214.99977,70,110,0
215.00671,215.11089,80,110,0
215.11783,215.222,74,110,0
215.22894,215.3331,70,110,0
215.34006,215.44421,80,110,0
215.45116,215.55533,74,110,0
215.56227,215.66644,70,110,0
215.67339,215.77756,80,110,0
215.7845,215.88866,74,110,0
215.8956,215.99977,70,110,0
216.00671,216.11089,80,110,0
216.11783,216.222,74,110,0
216.22894,216.3331,70,110,0
216.34006,216.44421,77,110,0
216.45116,216.55533,74,110,0
216.56227,216.66644,70,110,0
216.67339,216.79839,77,110,0
216.80672,216.93172,74,110,0
216.94005,217.06505,70,110,0
217.07338,217.19838,77,110,0
217.20671,217.33171,74,110,0
217.34004,217.46504,70,110,0
217.47339,219.86505,70,110,0
217.47339,219.86505,74,110,0
217.47339,219.86505,77,110,0
220.04005,220.19977,70,80,0
220.20671,220.36644,82,80,0
220.37338,220.53311,78,80,0
220.54005,220.69977,79,80,0
220.70671,220.86644,74,80,0
220.87338,221.36644,75,80,0
221.37338,221.5331,70,80,0
221.54005,221.69977,82,80,0
221.70671,221.86644,78,80,0
221.87338,222.0331,79,80,0
222.04005,222.19977,74,80,0
222.20671,222.69977,75,80,0
222.70671,222.86644,72,80,0
222.87338,223.0331,84,80,0
223.04004,223.19977,79,80,0
223.20671,223.36644,80,80,0
223.37338,223.5331,76,80,0
223.54004,224.0331,77,80,0
224.04004,224.19977,72,80,0
224.20671,224.36644,84,80,0
224.37338,224.5331,79,80,0
224.54004,224.69977,80,80,0
224.70671,224.86644,76,80,0
224.87338,225.36644,77,80,0
225.37338,225.5331,77,80,0
225.54004,225.69977,89,80,0
225.70671,225.86644,89,80,0
225.87338,226.36642,89,80,0
226.37338,226.5331,87,80,0
226.54004,226.69977,86,80,0
226.70671,226.86642,84,80,0
226.87338,227.0331,82,80,0
227.04004,227.19977,80,80,0
227.20671,227.69977,79,80,0
227.70671,227.86642,77,82,0
227.87337,228.0331,75,83,0
228.04004,228.19977,74,84,0
228.20671,228.36642,72,85,0
228.37337,228.5331,70,86,0
228.54004,229.0331,69,86,0
229.04004,229.19977,67,89,0
229.20671,229.36642,66,90,0
229.37337,229.5331,63,91,0
229.54004,229.69977,62,92,0
229.70671,229.86642,60,93,0
229.87337,230.38342,58,93,0
230.39061,230.55585,57,96,0
230.56303,230.73416,55,97,0
230.7416,230.91273,57,98,0
230.92017,231.09985,58,99,0
231.10767,231.28735,61,99,0
231.38892,231.55905,62,80,0
231.48267,231.6424,64,80,0
231.56601,231.72572,66,80,0
231.64934,231.80905,67,110,0
231.73267,231.8924,69,110,0
231.81601,231.97572,71,110,0
231.89934,232.05905,73,110,0
231.98267,232.1424,74,110,0
232.06601,232.22572,76,110,0
232.14934,232.30905,78,110,0
232.23267,232.3924,79,110,0
232.31601,232.47572,81,110,0
232.39934,232.55905,74,110,0
232.48267,232.6424,76,110,0
232.56601,232.72572,78,110,0
232.64934,232.80905,79,110,0
232.73267,232.8924,81,110,0
232.81601,232.97572,82,110,0
232.89934,233.05905,84,110,0
232.98267,233.1424,86,110,0
233.06601,233.22572,87,110,0
233.14934,233.30905,86,110,0
233.23267,233.3924,84,110,0
233.316,233.47572,82,110,0
233.39934,233.55905,84,110,0
233.48267,233.6424,82,110,0
233.566,233.72572,81,110,0
233.64934,233.80905,79,110,0
233.73267,233.8924,82,110,0
233.816,233.97572,81,110,0
233.89934,234.05905,79,110,0
233.98267,234.1424,78,110,0
234.066,234.22572,62,110,0
234.14934,234.30905,64,110,0
234.23267,234.3924,66,110,0
234.316,234.47572,67,110,0
234.39934,234.55905,69,110,0
234.48267,234.6424,71,110,0
234.566,234.72572,73,110,0
234.64934,234.80905,74,110,0
234.73267,234.8924,76,110,0
234.816,234.97572,78,110,0
234.89934,235.05905,79,110,0
234.98267,235.1424,81,110,0
235.066,235.22572,74,110,0
235.14934,235.30905,76,110,0
235.23267,235.3924,78,110,0
235.316,235.47572,79,110,0
235.39934,235.55905,81,110,0
235.48267,235.6424,82,110,0
235.566,235.72572,84,110,0
235.64934,235.80905,86,110,0
235.73267,235.8924,87,110,0
235.816,235.97572,86,110,0
235.89934,236.05905,84,110,0
235.98267,236.1424,82,110,0
236.066,236.22572,84,110,0
236.14934,236.30905,82,110,0
236.23267,236.3924,81,110,0
236.316,236.47572,79,110,0
236.39934,236.55905,82,110,0
236.48267,236.64238,81,110,0
236.566,236.72572,79,110,0
236.64934,236.80905,78,110,0
236.73267,236.89238,62,110,0
236.816,236.97572,64,110,0
236.89934,237.05905,66,110,0
236.98267,237.14238,67,110,0
237.066,237.22572,69,110,0
237.14934,237.30905,71,110,0
237.23267,237.39238,73,110,0
237.316,237.47572,74,110,0
237.39934,237.55905,76,110,0
237.48267,237.64238,78,110,0
237.566,237.72572,79,110,0
237.64934,237.80905,81,110,0
237.73267,237.89238,74,110,0
237.816,237.97572,76,110,0
237.89934,238.05905,78,110,0
237.98267,238.14238,79,110,0
238.066,238.22572,81,110,0
238.14934,238.30905,82,110,0
238.23267,238.39238,84,110,0
238.316,238.47572,86,110,0
238.39932,238.55905,87,110,0
238.48267,238.64238,86,110,0
238.566,238.72572,84,110,0
238.64932,238.80905,82,110,0
238.73267,238.89238,84,110,0
238.816,238.97572,82,110,0
238.89932,239.05905,81,110,0
238.98267,239.14238,79,110,0
239.066,239.22572,82,110,0
239.14932,239.30905,81,110,0
239.23267,239.39238,79,100,0
239.316,239.47572,78,100,0
239.39932,239.55905,81,99,0
239.48267,239.64238,79,99,0
239.566,239.72572,78,98,0
239.64932,239.80905,79,97,0
239.73267,239.89238,82,97,0
239.816,239.97572,81,96,0
239.89932,240.05905,79,95,0
239.98267,240.14238,78,95,0
240.066,240.22572,81,94,0
240.14932,240.30905,79,93,0
240.23267,240.39238,78,93,0
240.316,240.47572,79,92,0
240.39932,240.55905,82,91,0
240.48267,240.64238,81,91,0
240.566,240.72835,79,90,0
240.64932,240.81456,78,90,0
240.73553,240.90077,81,89,0
240.82175,240.98697,79,88,0
240.90794,241.07318,78,88,0
240.99416,241.15938,79,87,0
241.08037,241.24559,82,86,0
241.16656,241.3318,81,86,0
241.25278,241.42082,79,85,0
241.33899,241.51012,78,84,0
241.42827,241.5994,81,84,0
241.51755,241.68869,79,83,0
241.60684,241.78206,78,82,0
241.69612,241.87581,79,82,0
241.78987,241.96956,82,81,0
241.88362,242.06331,81,81,0
241.97737,242.15706,79,70,0
242.07112,242.41835,78,70,0
242.9253,243.085,56,70,0
243.09196,243.25168,57,70,0
243.25862,243.41835,53,70,0
243.4253,243.75168,54,70,0
244.25862,244.41835,80,70,0
244.4253,244.585,81,70,0
244.59195,244.75168,77,70,0
244.75862,245.085,78,70,0
245.59195,245.75168,59,70,0
245.75862,245.91835,60,70,0
245.9253,246.085,56,70,0
246.09195,246.41835,57,70,0
246.9253,247.085,83,71,0
247.09195,247.25168,84,73,0
247.25862,247.41833,80,74,0
247.4253,247.585,81,76,0
247.59195,247.75168,59,77,0
247.75862,247.91833,60,79,0
247.9253,248.085,56,80,0
248.09195,248.25168,57,82,0
248.25862,248.41833,83,83,0
248.4253,248.585,84,85,0
248.59195,248.75168,80,86,0
248.75862,248.91833,81,88,0
248.92528,249.085,59,89,0
249.09195,249.26106,60,91,0
249.26842,249.43755,56,92,0
249.44489,249.62457,57,94,0
249.63239,249.81207,83,95,0
249.81989,250.02525,84,97,0
250.03418,250.23953,80,98,0
250.24846,250.41759,81,110,0
250.42493,250.59406,87,110,0
250.60141,250.77052,88,110,0
250.77788,250.94699,83,110,0
250.95435,251.12346,84,110,0
251.13081,251.29993,87,110,0
251.30728,251.47641,88,110,0
251.48376,251.65288,83,110,0
251.66023,251.82935,84,120,0
251.8367,252.00581,87,120,0
252.01317,252.18228,88,120,0
252.18964,252.35875,83,120,0
252.3661,252.53523,84,120,0
252.54259,252.7117,80,120,0
252.71906,252.88817,81,120,0
252.89552,253.06464,77,120,0
253.07199,253.2411,78,120,0
253.24846,253.41759,75,120,0
253.42493,253.59406,76,120,0
253.60141,253.77052,71,120,0
253.77788,253.95757,72,120,0
253.96538,254.14507,68,120,0
254.15288,254.34454,69,120,0
254.35287,254.54454,70,120,0
254.55287,254.74454,71,120,0
254.75287,254.94453,72,120,0
254.95288,257.14453,73,120,0
257.15286,257.34454,62,80,0
257.35287,257.5126,74,80,0
257.51953,257.67926,70,80,0
257.68622,257.84592,71,80,0
257.85287,258.0126,66,80,0
258.01953,258.5126,67,80,0
258.51953,258.67926,62,80,0
258.68622,258.84592,74,80,0
258.85287,259.0126,70,80,0
259.01953,259.17926,71,80,0
259.18622,259.34592,66,80,0
259.35287,259.84592,67,80,0
259.85287,260.0126,64,80,0
260.01953,260.17926,76,80,0
260.18622,260.34592,71,80,0
260.35287,260.5126,72,80,0
260.51953,260.67926,68,80,0
260.68622,261.17926,69,80,0
261.18622,261.34592,64,80,0
261.35287,261.5126,76,80,0
261.51953,261.67926,71,80,0
261.6862,261.84592,72,80,0
261.85287,262.0126,68,80,0
262.01953,262.5126,69,80,0
262.51953,262.67926,69,80,0
262.6862,262.84592,84,80,0
262.85287,263.0126,83,80,0
263.01953,263.5126,81,80,0
263.51953,263.67926,79,80,0
263.6862,263.84592,78,80,0
263.85287,264.0126,76,80,0
264.01953,264.17926,74,80,0
264.1862,264.34592,72,80,0
264.35287,264.3876,74,80,0
264.39453,264.5126,72,80,0
264.51953,264.84592,71,80,0
264.85287,265.01257,79,80,0
265.01953,265.17926,79,80,0
265.1862,265.51257,69,80,0
265.51953,265.67926,76,80,0
265.6862,265.84592,76,80,0
265.85287,266.17926,67,80,0
266.1862,266.34592,74,80,0
266.35287,266.51257,74,80,0
266.51953,266.84592,60,80,0
266.85287,267.01257,66,80,0
267.01953,267.67926,67,80,0
267.01953,267.67926,59,80,0
268.01953,268.34592,74,80,0
268.35287,268.67926,74,84,0
268.6862,269.01257,74,88,0
269.01953,269.34592,74,93,0
269.35287,269.51257,74,97,0
269.4362,269.59592,76,98,0
269.51953,269.67926,73,99,0
269.60287,269.76257,74,100,0
269.6862,270.34592,76,100,0
270.35287,270.67926,74,80,0
271.51953,271.67926,74,80,0
271.6862,271.84592,74,84,0
271.85284,272.01257,74,89,0
272.01953,272.17926,74,94,0
272.1862,272.34592,74,99,0
272.35284,273.01257,76,100,0
273.01953,273.34592,74,80,0
274.01953,274.34592,79,70,0
274.35284,274.67926,79,70,0
274.6862,274.84592,79,70,0
274.76953,274.92926,81,70,0
274.85284,275.01257,78,70,0
274.9362,275.01257,79,70,0
275.01953,275.67923,81,80,0
275.6862,276.01257,79,80,0
276.85284,277.01257,79,83,0
277.01953,277.17923,79,87,0
277.1862,277.34592,79,91,0
277.35284,277.51257,79,95,0
277.51953,277.67923,79,99,0
277.6862,278.01257,81,80,0
278.01953,278.51257,79,80,0
278.51953,278.59592,81,80,0
278.60284,278.67923,79,80,0
278.6862,278.84592,77,80,0
278.85284,279.01257,76,80,0
279.01953,279.34592,76,80,0
279.35284,280.01257,74,80,0
280.01953,280.34592,72,80,0
280.35284,280.45703,71,80,0
280.40842,280.51257,72,80,0
280.46396,280.5681,74,80,0
280.51953,280.67923,72,80,0
280.6862,281.34592,71,80,0
281.35284,282.01257,79,80,0
282.0195,282.67923,78,80,0
282.6862,283.01257,76,80,0
283.0195,283.1237,74,80,0
283.07507,283.17923,76,80,0
283.1306,283.2348,78,80,0
283.1862,283.34592,76,80,0
283.35284,284.01257,74,80,0
284.0195,284.67923,83,80,0
284.6862,285.3459,81,80,0
285.35284,285.67923,79,80,0
285.6862,286.01257,79,80,0
286.0195,286.67923,78,80,0
286.6862,287.01257,76,80,0
287.0195,287.3459,76,80,0
287.35284,287.67923,74,80,0
287.7973,287.90146,79,80,0
287.9084,288.01257,81,80,0
288.0195,288.1237,83,80,0
288.1306,288.2348,81,80,0
288.24173,288.3459,79,80,0
288.35284,288.67923,79,80,0
288.6862,289.01257,78,80,0
289.1306,289.23477,76,80,0
289.24173,289.3459,78,80,0
289.35284,289.457,79,80,0
289.46396,289.5681,78,80,0
289.57507,289.67923,76,80,0
289.6862,290.01257,76,80,0
290.0195,290.3459,74,80,0
290.46396,290.5681,79,80,0
290.57507,290.67923,81,80,0
290.6862,290.79034,83,80,0
290.79727,290.90146,81,80,0
290.9084,291.01257,79,80,0
291.0195,291.1237,79,80,0
291.1306,291.23477,78,80,0
291.24173,291.3459,79,80,0
291.35284,291.457,81,80,0
291.46396,291.5681,79,80,0
291.57507,291.67923,78,80,0
291.6862,291.79034,78,80,0
291.79727,291.90146,76,80,0
291.9084,292.01257,78,80,0
292.0195,292.12366,79,80,0
292.1306,292.23477,78,80,0
292.24173,292.3459,76,80,0
292.35284,292.457,76,80,0
292.46396,292.5681,74,80,0
292.57507,292.67923,73,80,0
292.68616,292.79034,74,80,0
292.79727,292.90146,76,80,0
292.9084,293.01257,78,80,0
293.0195,293.1298,79,80,0
293.13715,293.24744,80,80,0
293.2548,293.36508,81,80,0
293.37244,293.55212,82,80,0
293.4662,293.64587,83,80,0
293.55994,293.73962,84,80,0
293.6537,293.73962,85,80,0
293.74744,294.11462,86,80,0
294.12244,294.48962,86,80,0
294.49744,294.86462,86,80,0
294.87244,295.23962,86,80,0
295.24744,295.76132,86,80,0
295.24744,295.76132,83,80,0
295.76828,295.928,85,80,0
295.76828,295.928,82,80,0
295.93494,296.428,86,80,0
295.93494,296.428,83,80,0
296.43494,296.59467,85,80,0
296.43494,296.59467,82,80,0
296.60162,297.09467,86,80,0
296.60162,297.09467,83,80,0
297.10162,297.26132,84,80,0
297.10162,297.26132,81,80,0
297.26828,297.428,84,80,0
297.26828,297.428,81,80,0
297.43494,297.59467,83,80,0
297.43494,297.59467,79,80,0
297.60162,297.76132,83,80,0
297.60162,297.76132,79,80,0
297.76828,297.928,81,80,0
297.76828,297.928,78,80,0
297.93494,298.09467,81,80,0
297.93494,298.09467,78,80,0
298.10162,298.26132,79,80,0
298.10162,298.26132,76,80,0
298.26828,298.428,79,80,0
298.26828,298.428,76,80,0
298.43494,298.59467,78,80,0
298.43494,298.59467,74,80,0
298.60162,298.76132,78,80,0
298.60162,298.76132,74,80,0
298.76828,298.928,76,80,0
298.76828,298.928,72,80,0
298.93494,299.09467,76,80,0
298.93494,299.09467,72,80,0
299.10162,299.26132,74,80,0
299.10162,299.26132,71,80,0
299.26828,299.928,71,80,0
299.26828,299.928,68,80,0
299.93494,300.26132,72,80,0
299.93494,300.26132,69,80,0
300.6016,301.09467,81,80,0
300.6016,301.09467,84,80,0
301.1016,301.26132,83,80,0
301.1016,301.26132,80,80,0
301.26828,301.76132,81,80,0
301.26828,301.76132,84,80,0
301.76828,301.928,83,80,0
301.76828,301.928,80,80,0
301.93494,302.428,81,80,0
301.93494,302.428,84,80,0
302.43494,302.59467,83,80,0
302.43494,302.59467,79,80,0
302.6016,302.76132,83,80,0
302.6016,302.76132,79,80,0
302.76828,302.928,81,80,0
302.76828,302.928,78,80,0
302.93494,303.09467,81,80,0
302.93494,303.09467,78,80,0
303.1016,303.26132,79,80,0
303.1016,303.26132,76,80,0
303.26828,303.42798,79,80,0
303.26828,303.42798,76,80,0
303.43494,303.59467,78,80,0
303.43494,303.59467,74,80,0
303.6016,303.76132,78,80,0
303.6016,303.76132,74,80,0
303.76828,303.92798,76,80,0
303.76828,303.92798,72,80,0
303.93494,304.09467,76,80,0
303.93494,304.09467,72,80,0
304.1016,304.26132,74,80,0
304.1016,304.26132,71,80,0
304.26828,304.42798,74,80,0
304.26828,304.42798,71,80,0
304.43494,304.59467,72,80,0
304.43494,304.59467,69,80,0
304.6016,304.92798,71,80,0
304.6016,304.92798,67,80,0
304.93494,305.26132,76,80,0
304.93494,305.26132,71,80,0
305.26828,305.59467,74,80,0
305.26828,305.59467,69,80,0
305.6016,305.92798,72,80,0
305.6016,305.92798,66,80,0
305.93494,306.26132,71,80,0
305.93494,306.26132,67,80,0
306.26828,306.59467,76,80,0
306.26828,306.59467,71,80,0
306.6016,306.92798,74,80,0
306.6016,306.92798,69,80,0
306.93494,307.26132,72,80,0
306.93494,307.26132,66,80,0
307.26828,307.59467,71,80,0
307.43494,307.59467,67,80,0
307.6016,307.76132,71,80,0
307.6016,307.92798,76,80,0
307.76828,307.92798,67,80,0
307.93494,308.09467,66,80,0
307.93494,308.26132,74,80,0
308.1016,308.26132,69,80,0
308.26828,308.42798,64,80,0
308.26828,308.59467,73,80,0
308.43494,308.59467,67,80,0
308.6016,308.76132,66,80,0
308.6016,308.92798,74,80,0
308.76828,308.92798,62,80,0
309.93494,310.26132,83,80,0
310.26825,310.59467,88,80,0
310.26825,310.59467,76,80,0
310.6016,310.92798,86,80,0
310.6016,310.92798,74,80,0
310.93494,311.26132,84,80,0
310.93494,311.26132,78,80,0
311.26825,311.59467,83,80,0
311.6016,311.92798,88,80,0
311.6016,311.92798,76,80,0
311.93494,312.26132,86,80,0
311.93494,312.26132,74,80,0
312.26825,312.59467,84,80,0
312.26825,312.59467,78,80,0
312.6016,312.92798,83,80,0
312.6016,312.92798,79,80,0
312.93494,313.59464,79,82,0
313.6016,314.26132,79,87,0
314.26825,314.59464,79,93,0
314.6016,314.92798,79,95,0
314.93494,315.26132,79,98,0
315.26825,315.42798,76,80,0
315.3516,315.51132,78,80,0
315.43494,315.59464,76,80,0
315.51825,315.67798,75,80,0
315.6016,315.76132,76,80,0
315.68494,315.84464,78,80,0
315.76825,315.92798,79,80,0
315.8516,316.01132,78,80,0
315.93494,316.09464,76,80,0
316.01825,316.17798,78,80,0
316.1016,316.26132,76,80,0
316.18494,316.34464,75,80,0
316.26825,316.42798,76,80,0
316.3516,316.51132,78,80,0
316.43494,316.59464,79,80,0
316.51825,316.67798,78,80,0
316.6016,316.76132,79,80,0
316.68494,316.84464,81,81,0
316.76825,316.92798,79,81,0
316.8516,317.01132,78,82,0
316.93494,317.09464,79,83,0
317.01825,317.17798,81,83,0
317.1016,317.26132,82,84,0
317.18494,317.34464,81,85,0
317.26825,317.42798,79,85,0
317.3516,317.51132,81,86,0
317.43494,317.59464,79,87,0
317.51825,317.67798,78,87,0
317.6016,317.76132,79,88,0
317.68494,317.84464,81,89,0
317.76825,317.92798,82,89,0
317.8516,318.01132,81,90,0
317.93494,318.09464,79,90,0
318.01825,318.17798,81,91,0
318.1016,318.26132,79,92,0
318.18494,318.34464,78,92,0
318.26825,318.42798,79,93,0
318.3516,318.51132,81,94,0
318.43494,318.59464,83,94,0
318.51825,318.67798,81,95,0
318.6016,318.76132,79,96,0
318.68494,318.84464,78,96,0
318.76825,318.92798,76,97,0
318.8516,319.01132,74,98,0
318.93494,319.09464,72,98,0
319.01825,319.17798,71,99,0
319.1016,319.26132,69,99,0
319.18494,319.34915,67,110,0
319.26825,319.34915,67,110,0
319.26825,319.9668,71,110,0
319.97415,320.67267,69,110,0
319.97415,320.67267,66,110,0
320.68002,320.83975,67,110,0
320.76337,320.92307,69,110,0
320.84668,321.0064,71,110,0
320.93002,321.08975,72,110,0
321.01337,321.17307,74,110,0
321.09668,321.2564,72,110,0
321.18002,321.33975,71,110,0
321.26337,321.42307,69,110,0
321.34668,321.5064,67,110,0
321.43002,321.58975,66,110,0
321.51337,321.67307,64,110,0
321.59668,321.7564,62,110,0
321.68002,321.83975,60,110,0
321.76337,321.92307,59,110,0
321.84668,322.0064,57,110,0
321.93002,322.09424,55,110,0
322.01334,322.09424,55,110,0
322.01334,322.71188,59,110,0
322.71924,323.46143,57,110,0
322.71924,323.46143,54,110,0
323.46924,323.63446,55,80,0
323.64163,323.8069,50,80,0
323.81406,323.97928,55,80,0
323.81406,323.97928,59,80,0
323.98648,324.1517,50,80,0
324.15887,324.32413,60,80,0
324.15887,324.32413,57,80,0
324.3313,324.49652,50,80,0
324.50372,324.66895,58,80,0
324.50372,324.66895,61,80,0
324.67612,324.84137,50,80,0
325.02097,325.3586,50,80,0
325.36578,325.70343,50,80,0
325.7106,326.04825,50,80,0
326.05545,326.3859,50,80,0
324.84854,326.55832,59,80,0
324.84854,326.55832,62,80,0
326.3931,326.55832,50,80,0
326.5655,326.7307,55,80,0
326.5655,326.90314,59,80,0
326.7379,326.90314,50,80,0
326.91034,327.07556,60,80,0
326.91034,327.24796,64,80,0
327.08273,327.24796,50,80,0
327.25516,327.42038,59,80,0
327.25516,327.5928,62,80,0
327.42755,327.5928,50,80,0
327.7724,328.11005,50,80,0
328.11722,328.45486,50,80,0
328.46204,328.79968,50,80,0
328.8069,329.14453,50,80,0
327.59998,329.31693,57,80,0
327.59998,329.31693,60,80,0
329.1517,329.31693,50,80,0
329.32413,329.48935,57,80,0
329.32413,329.66177,60,80,0
329.49652,329.66177,50,80,0
329.66895,329.83417,59,80,0
329.66895,330.0066,62,80,0
329.84137,330.0066,50,80,0
330.01376,330.17902,57,80,0
330.01376,330.3514,60,80,0
330.1862,330.3514,50,80,0
330.531,330.69623,50,80,0
330.87585,331.04108,51,80,0
331.22067,331.3859,52,80,0
331.5655,331.7307,47,80,0
330.3586,332.07556,55,80,0
330.3586,332.07556,59,80,0
331.9103,332.07556,48,80,0
332.08273,332.24796,55,80,0
332.08273,332.42038,57,80,0
332.25516,332.42038,49,80,0
332.42755,332.5928,55,80,0
332.42755,332.7652,57,80,0
332.59998,332.7652,50,80,0
332.7724,332.93762,54,80,0
332.7724,333.11005,60,80,0
332.9448,333.11005,50,80,0
333.28964,333.45486,50,80,0
333.63446,333.79968,51,80,0
333.97928,334.14453,52,80,0
334.32413,334.48935,47,80,0
333.11722,334.83417,55,80,0
333.11722,334.83417,59,80,0
334.66895,334.83417,48,80,0
334.84137,335.0066,55,80,0
334.84137,335.179,57,80,0
335.01376,335.179,49,80,0
335.1862,335.3514,55,80,0
335.1862,335.52383,57,80,0
335.3586,335.52383,50,80,0
335.531,335.69623,54,80,0
335.531,335.86865,60,80,0
335.70343,335.86865,50,80,0
336.04825,336.21347,50,80,0
336.39307,336.55832,51,80,0
336.7379,336.90314,52,80,0
337.08273,337.24796,53,80,0
335.87585,337.5928,55,80,0
335.87585,337.5928,59,80,0
337.42755,337.5928,52,80,0
337.59998,337.7652,55,80,0
337.59998,337.93762,59,80,0
337.7724,337.93762,50,80,0
337.9448,338.11005,55,80,0
337.9448,338.28244,60,80,0
338.11722,338.28244,52,80,0
338.28964,338.45486,59,80,0
338.28964,338.6273,62,80,0
338.46204,338.6273,53,80,0
338.63446,338.79968,55,80,0
338.8069,338.9721,52,80,0
338.97928,339.14453,55,80,0
338.63446,339.31693,64,80,0
339.1517,339.31693,52,80,0
339.32413,339.48935,55,80,0
339.49652,339.66174,52,80,0
339.66895,339.83417,55,80,0
339.32413,340.0066,57,80,0
339.84137,340.0066,52,80,0
340.01376,340.1827,55,80,0
340.19006,340.3592,50,80,0
340.36655,340.53564,55,80,0
340.01376,340.71213,59,80,0
340.543,340.71213,50,80,0
340.71948,340.8987,54,80,0
340.90652,341.0862,50,80,0
340.71948,341.28516,60,80,0
341.09402,341.28516,54,80,0
341.2935,341.48517,57,80,0
341.2935,341.48517,50,80,0
341.4935,342.17712,55,80,0
342.35672,342.52194,62,80,0
342.52914,342.69437,74,80,0
342.70154,342.8668,70,80,0
342.87396,343.72885,71,80,0
343.73602,343.90125,67,80,0
343.90845,344.07367,79,80,0
344.08087,344.2461,71,80,0
344.25327,345.10815,72,80,0
345.11533,345.28058,72,80,0
345.28775,345.45297,84,80,0
345.46017,345.6254,83,80,0
345.63257,346.14264,81,80,0
346.1498,346.31506,79,80,0
346.32224,346.48746,78,80,0
346.49466,346.65988,76,80,0
346.66705,346.8323,74,80,0
346.83948,347.01233,72,80,0
347.01987,347.37378,70,80,0
347.3813,347.73523,71,80,0
347.92346,348.09665,62,80,0
348.1042,348.26978,74,80,0
348.27695,348.44217,70,80,0
348.44937,349.30426,71,80,0
349.31143,349.47665,67,89,0
349.48386,349.64908,79,91,0
349.65625,349.8215,71,93,0
349.82867,350.69116,72,95,0
350.6987,350.8719,72,105,0
350.87943,351.08337,88,107,0
351.09232,351.29767,86,109,0
351.3066,352.20407,84,110,0
352.2116,352.3848,83,104,0
352.39233,352.56552,81,103,0
352.57306,352.74625,79,101,0
352.75378,352.92697,78,100,0
352.9345,353.1077,76,99,0
353.11523,353.28842,74,97,0
353.29596,353.46915,72,96,0
353.47668,353.64987,71,95,0
353.6574,353.8306,69,93,0
353.8381,354.01132,67,92,0
354.01883,354.19205,66,91,0
354.19955,354.38336,64,80,0
354.3914,354.57568,62,80,0
354.5837,354.768,61,80,0
354.776,354.9603,62,80,0
354.96832,355.15262,61,80,0
355.1606,355.3449,62,80,0
355.35294,355.53723,64,80,0
355.54523,355.72952,60,80,0
355.73755,356.11414,59,80,0
356.69907,356.88336,75,80,0
356.8914,357.07568,76,80,0
357.08368,357.26797,72,80,0
357.276,357.6526,71,80,0
358.2586,358.46396,87,80,0
358.4729,358.67825,88,80,0
358.68716,358.89252,84,80,0
358.9104,360.35504,84,80,0
360.35504,360.64252,83,80,0
360.50504,360.79254,84,80,0
360.65503,360.94254,86,80,0
360.80502,360.94254,84,80,0
360.95502,362.14252,83,80,0
363.96753,364.55502,67,1,0
0.999999,1.9930536,43,80,0
1.1666656,1.9930536,47,80,0
1.333332,1.9930536,50,80,0
2.333331,3.3263855,55,80,0
2.4999976,3.3263855,59,80,0
2.666664,3.3263855,62,80,0
3.666663,4.6597176,43,80,0
3.8333294,4.6597176,48,80,0
3.999996,4.6597176,52,80,0
4.999995,5.9930496,55,80,0
5.1666613,5.9930496,60,80,0
5.333328,5.9930496,64,80,0
6.1666603,6.3263826,54,80,0
6.333327,6.493049,57,80,0
6.4999933,6.6597157,62,80,0
6.8333263,6.9930487,50,80,0
6.999993,7.159715,57,80,0
7.1666594,7.3263817,60,80,0
7.4999924,7.6597147,55,80,0
7.666659,7.826381,59,80,0
7.8333254,7.9930477,62,80,0
8.166658,8.326381,48,80,0
8.333325,8.493047,52,80,0
8.499991,8.659714,57,80,0
8.833324,8.993047,50,80,0
8.999991,9.159713,55,80,0
9.166657,9.32638,59,80,0
9.49999,9.659713,38,80,0
9.666657,9.826379,45,80,0
9.8333235,9.993046,50,80,0
9.99999,10.159712,43,80,0
10.1666565,10.326379,47,80,0
10.333323,10.493045,50,80,0
10.4999895,10.659712,47,80,0
10.666656,10.826378,43,80,0
10.833323,10.993045,47,80,0
10.999989,11.159711,50,80,0
11.166656,11.326378,47,80,0
11.333322,11.493044,43,80,0
11.499989,11.659711,47,80,0
11.666655,11.826377,50,80,0
11.833322,11.993044,47,80,0
11.999988,12.15971,43,80,0
12.166655,12.326377,47,80,0
12.333321,12.493043,50,80,0
12.499988,12.65971,47,80,0
12.666654,12.826376,45,80,0
12.833321,12.993043,48,80,0
12.999987,13.159709,54,80,0
13.166654,13.326376,48,80,0
13.33332,13.493042,45,80,0
13.499987,13.659709,48,80,0
13.666653,13.826375,54,80,0
13.83332,13.993042,48,80,0
13.999986,14.159708,45,80,0
14.166653,14.326375,48,80,0
14.333319,14.493041,54,80,0
14.499986,14.659708,48,80,0
14.666652,14.826374,45,80,0
14.833319,14.993041,48,80,0
14.999985,15.159707,54,80,0
15.166652,15.326373,48,80,0
15.333318,15.49304,47,80,0
15.499985,15.659706,50,80,0
15.666651,15.826373,55,80,0
15.833318,15.993039,50,80,0
15.999984,16.159706,47,80,0
16.16665,16.326372,50,80,0
16.333317,16.493038,55,80,0
16.499983,16.659706,50,80,0
16.66665,16.826372,47,80,0
16.833317,16.993038,50,80,0
16.999983,17.159704,55,80,0
17.166649,17.326372,50,80,0
17.333317,17.493038,47,80,0
17.499983,17.659704,50,80,0
17.666649,17.82637,55,80,0
17.833315,17.993038,50,80,0
17.999983,18.159704,48,80,0
18.166649,18.32637,52,80,0
18.333315,18.493036,57,80,0
18.49998,18.659704,52,80,0
18.666649,18.82637,49,80,0
18.833315,18.993036,52,80,0
18.99998,19.159702,57,80,0
19.166647,19.32637,52,80,0
19.333315,19.493036,50,80,0
19.49998,19.659702,54,80,0
19.666647,19.826368,57,80,0
19.833313,19.993036,54,80,0
19.99998,20.159702,50,80,0
20.166647,20.326368,54,80,0
20.333313,20.493034,59,80,0
20.499979,20.659702,54,80,0
20.666645,20.826368,52,80,0
20.833313,20.993034,55,80,0
20.999979,21.1597,59,80,0
21.166645,21.326368,55,80,0
21.333311,21.493034,52,80,0
21.499979,21.6597,55,80,0
21.666645,21.826366,61,80,0
21.833311,21.993034,55,80,0
21.999977,22.1597,54,80,0
22.166645,22.326366,57,80,0
22.333311,22.493032,61,80,0
22.499977,22.6597,57,80,0
22.666643,22.826366,54,80,0
22.833311,22.993032,57,80,0
22.999977,23.159698,62,80,0
23.166643,23.326366,57,80,0
23.33331,23.493032,55,80,0
23.499977,23.659698,59,80,0
23.666643,23.826365,64,80,0
23.83331,23.993032,59,80,0
23.999975,24.159698,56,80,0
24.166643,24.326365,59,80,0
24.33331,24.49303,64,80,0
24.499975,24.659698,59,80,0
24.666641,24.826365,57,80,0
24.83331,24.99303,64,80,0
24.999975,25.159697,69,80,0
25.166641,25.326363,64,80,0
25.333307,25.49303,57,80,0
25.499975,25.659697,62,80,0
25.666641,25.826363,68,80,0
25.833307,25.993029,62,80,0
25.999973,26.159697,57,80,0
26.166641,26.326363,61,80,0
26.333307,26.493029,64,80,0
26.499973,26.659695,61,80,0
26.66664,26.826363,57,80,0
26.833307,26.993029,64,80,0
26.999973,27.159695,68,80,0
27.16664,27.32636,64,80,0
27.333305,27.493029,57,80,0
27.499973,27.659695,64,80,0
27.66664,27.82636,69,80,0
27.833305,27.993027,64,80,0
27.999971,28.159695,57,80,0
28.16664,28.32636,62,80,0
28.333305,28.493027,68,80,0
28.499971,28.659693,62,80,0
28.666637,28.82636,57,80,0
28.833305,28.993027,61,80,0
28.999971,29.159693,64,80,0
29.166637,29.326359,61,80,0
29.333303,29.493027,57,80,0
29.499971,29.659693,64,80,0
29.666637,29.826359,68,80,0
29.833303,29.993025,64,80,0
29.99997,30.159693,57,80,0
30.166637,30.326359,64,80,0
30.333303,30.493025,69,80,0
30.49997,30.65969,64,80,0
30.666636,30.826359,57,80,0
30.833303,30.993025,62,80,0
30.99997,31.15969,68,80,0
31.166636,31.326357,62,80,0
31.333302,31.67889,61,80,0
31.333302,31.67889,64,80,0
31.333302,31.67889,57,80,0
34.45585,34.615574,38,80,0
34.622517,34.782238,50,80,0
35.122517,35.282238,50,80,0
35.289185,35.448906,62,80,0
35.78918,35.948906,62,80,0
35.95585,36.11557,74,80,0
38.622513,38.948902,33,80,0
38.955845,39.282234,33,80,0
39.28918,39.615566,33,80,0
39.789177,39.948902,33,80,0
39.955845,40.115566,45,80,0
40.455845,40.615566,45,80,0
40.622513,40.782234,57,80,0
41.12251,41.282234,57,80,0
41.289177,41.4489,69,80,0
43.789173,43.9489,57,80,0
43.95584,44.115562,50,80,0
44.12251,44.28223,57,80,0
44.289173,44.448895,49,80,0
44.45584,44.615562,57,80,0
44.622505,44.78223,45,80,0
44.789173,44.948895,57,80,0
45.122505,45.28223,57,80,0
45.289173,45.448895,50,80,0
45.45584,45.615562,57,80,0
45.622505,45.782227,49,80,0
45.789173,45.948895,57,80,0
45.955837,46.115562,45,80,0
46.122505,46.282227,57,80,0
46.289173,46.948895,50,80,0
46.955837,47.61556,52,80,0
47.622505,47.782227,57,80,0
47.78917,47.94889,69,80,0
47.955837,48.11556,64,80,0
47.955837,48.11556,67,80,0
48.122505,48.282227,69,80,0
48.28917,48.44889,66,80,0
48.28917,48.44889,62,80,0
48.455837,48.61556,69,80,0
48.6225,48.782227,64,80,0
48.6225,48.782227,61,80,0
48.78917,48.94889,69,80,0
48.955837,49.11556,66,80,0
48.955837,49.11556,62,80,0
49.1225,49.282223,69,80,0
49.28917,49.44889,66,80,0
49.28917,49.44889,62,80,0
49.455837,49.61556,69,80,0
49.6225,49.782223,64,80,0
49.6225,49.782223,61,80,0
49.78917,49.94889,69,80,0
49.955833,50.11556,64,80,0
49.955833,50.11556,57,80,0
50.1225,50.282223,69,80,0
50.28917,50.44889,66,80,0
50.28917,50.44889,62,80,0
50.455833,50.615555,69,80,0
50.6225,50.782223,66,80,0
50.6225,50.782223,62,80,0
50.78917,50.94889,69,80,0
50.955833,51.12495,64,80,0
50.955833,51.12495,61,80,0
51.132305,51.301422,69,80,0
51.308777,51.488464,64,80,0
51.308777,51.488464,57,80,0
51.496277,51.675964,69,80,0
51.683777,51.8435,66,80,0
51.683777,51.8435,62,80,0
51.85044,52.010162,74,81,0
52.01711,52.17683,67,82,0
52.01711,52.17683,64,82,0
52.183773,52.3435,74,83,0
52.35044,52.510162,69,85,0
52.35044,52.510162,66,85,0
52.51711,52.67683,74,86,0
52.683773,52.843494,71,87,0
52.683773,52.843494,67,87,0
52.85044,53.010162,74,89,0
53.017105,53.17683,72,90,0
53.017105,53.17683,69,90,0
53.183773,53.343494,74,91,0
53.35044,53.510162,68,93,0
53.35044,53.510162,71,93,0
53.517105,53.67683,74,94,0
53.683773,53.843494,69,95,0
53.683773,53.843494,72,95,0
53.85044,54.010162,74,97,0
54.017105,54.176826,66,98,0
54.017105,54.176826,70,98,0
54.183773,54.343494,74,99,0
54.350437,54.676826,67,80,0
54.350437,54.676826,71,80,0
55.017105,55.343494,67,80,0
55.017105,55.343494,71,80,0
55.017105,55.343494,74,80,0
55.68377,56.01016,68,81,0
55.68377,56.01016,71,81,0
55.68377,56.01016,74,81,0
55.68377,56.01016,77,81,0
56.350437,56.676826,68,91,0
56.350437,56.676826,71,91,0
56.350437,56.676826,74,91,0
56.350437,56.676826,77,91,0
57.0171,57.34349,78,110,0
57.0171,57.34349,74,110,0
57.0171,57.34349,69,110,0
58.350433,59.010155,69,110,0
58.350433,59.676823,57,110,0
59.0171,59.676823,67,110,0
59.683765,60.010155,62,110,0
59.683765,60.010155,66,110,0
61.017097,61.71563,57,110,0
61.017097,62.465168,45,110,0
61.72298,62.465168,55,110,0
62.47298,62.810623,54,80,0
62.47298,62.810623,50,80,0
64.19712,64.53476,38,80,0
64.54195,64.87959,42,80,0
64.88677,65.22442,45,80,0
65.2316,66.948555,50,80,0
66.95574,67.29338,50,80,0
67.30057,67.63821,49,80,0
67.64539,67.98304,47,80,0
67.99022,68.67269,49,80,0
68.67988,69.70718,45,80,0
69.714355,70.052,46,80,0
70.05919,70.39683,47,80,0
70.404015,70.74165,42,80,0
70.74884,71.08649,43,80,0
71.093666,71.43131,44,80,0
71.4385,72.4658,45,80,0
72.47298,72.81062,46,80,0
72.8178,73.15545,47,80,0
73.162636,73.500275,42,80,0
73.50746,73.84511,43,80,0
73.85229,74.18993,44,80,0
74.19711,75.22441,45,80,0
75.2316,75.569244,46,80,0
75.57642,75.91407,47,80,0
75.92126,76.258896,48,80,0
76.26608,76.60372,47,80,0
76.61091,76.948555,43,80,0
76.955734,77.29338,45,80,0
77.30056,77.63821,33,80,0
78.67987,79.01752,50,80,0
79.024704,80.052,50,80,0
77.64539,80.39683,38,80,0
80.05918,80.39683,50,80,0
80.404015,80.569244,54,80,0
80.57642,80.74165,57,80,0
80.74884,80.91407,54,80,0
80.92125,81.08648,57,80,0
81.093666,81.258896,54,80,0
80.404015,81.43131,50,80,0
81.26608,81.43131,57,80,0
81.43849,81.60372,55,80,0
81.61091,81.77614,57,80,0
81.78332,81.94855,54,80,0
81.43849,82.120964,50,80,0
81.955734,82.120964,57,80,0
82.12815,82.29338,55,80,0
82.30056,82.46579,57,80,0
82.47298,82.63821,54,80,0
82.12815,82.81062,50,80,0
82.64539,82.81062,57,80,0
82.8178,82.99527,55,80,0
82.8178,83.18046,50,80,0
83.00299,83.18046,57,80,0
83.18817,84.529465,61,80,0
83.18817,84.86655,50,80,0
83.18817,84.86655,57,80,0
84.53648,84.86655,62,80,0
86.22188,87.22609,43,80,0
86.39042,87.22609,47,80,0
86.55896,87.22609,50,80,0
87.57019,88.57441,55,80,0
87.73873,88.57441,59,80,0
87.90727,88.57441,62,80,0
88.91851,89.92272,43,80,0
89.08704,89.92272,48,80,0
89.255585,89.92272,52,80,0
90.26682,91.271034,55,80,0
90.43536,91.271034,60,80,0
90.6039,91.271034,64,80,0
91.446594,91.608116,54,80,0
91.615135,91.77665,57,80,0
91.783676,91.94519,62,80,0
92.12075,92.28227,50,80,0
92.28929,92.45081,57,80,0
92.45783,92.61935,60,80,0
92.794914,92.95643,55,80,0
92.96345,93.12497,59,80,0
93.13199,93.2935,62,80,0
93.46907,93.630585,48,80,0
93.6376,93.799126,52,80,0
93.806145,93.96767,57,80,0
94.14323,94.30474,50,80,0
94.31177,94.47328,55,80,0
94.4803,94.64182,59,80,0
94.81738,94.9789,38,80,0
94.98592,95.14744,45,80,0
95.15446,95.31598,50,80,0
95.323,95.48452,43,80,0
95.49154,95.65305,47,80,0
95.66008,95.821594,50,80,0
95.82862,95.990135,47,80,0
95.997154,96.158676,43,80,0
96.165695,96.32721,47,80,0
96.334236,96.49575,50,80,0
96.50278,96.66429,47,80,0
96.67131,96.83283,43,80,0
96.83985,97.00137,47,80,0
97.00839,97.16991,50,80,0
97.17693,97.33845,47,80,0
97.345474,97.50699,43,80,0
97.51401,97.67553,47,80,0
97.68255,97.84406,50,80,0
97.85109,98.0126,47,80,0
98.01963,98.181145,45,80,0
98.18816,98.349686,48,80,0
98.356705,98.51822,54,80,0
98.525246,98.68676,48,80,0
98.69379,98.8553,45,80,0
98.86232,99.02384,48,80,0
99.03086,99.19238,54,80,0
99.1994,99.360916,48,80,0
99.36794,99.52946,45,80,0
99.53648,99.698,48,80,0
99.70502,99.86654,54,80,0
99.87356,100.03507,48,80,0
100.0421,100.20361,45,80,0
100.21064,100.372154,48,80,0
100.37917,100.540695,54,80,0
100.547714,100.709236,48,80,0
100.716255,100.87777,47,80,0
100.884796,101.04631,50,80,0
101.05334,101.21485,55,80,0
101.22187,101.38339,50,80,0
101.39041,101.551926,47,80,0
101.55895,101.72047,50,80,0
101.72749,101.88901,55,80,0
101.89603,102.05755,50,80,0
102.06457,102.22609,47,80,0
102.23311,102.39462,50,80,0
102.40165,102.56316,55,80,0
102.57019,102.731705,50,80,0
102.73872,102.900246,47,80,0
102.907265,103.06878,50,80,0
103.075806,103.23732,55,80,0
103.24435,103.40586,50,80,0
103.41288,103.5744,48,80,0
103.58142,103.74294,52,80,0
103.74996,103.911476,57,81,0
103.9185,104.08002,52,81,0
104.08704,104.24856,49,82,0
104.25558,104.4171,52,82,0
104.42412,104.58563,57,83,0
104.59266,104.75417,52,83,0
104.7612,104.922714,50,84,0
104.92973,105.091255,54,84,0
105.098274,105.259796,57,85,0
105.266815,105.42833,54,85,0
105.435356,105.59687,50,86,0
105.6039,105.76541,54,86,0
105.77243,105.93395,59,87,0
105.94097,106.102486,54,87,0
106.10951,106.27103,52,88,0
106.27805,106.43957,55,88,0
106.44659,106.60811,59,89,0
106.61513,106.77665,55,89,0
106.78367,106.94518,52,90,0
106.95221,107.11372,55,90,0
107.12075,107.282265,61,91,0
107.28928,107.450806,55,91,0
107.457825,107.61934,54,92,0
107.626366,107.78788,57,92,0
107.79491,107.95642,61,93,0
107.96344,108.12496,57,93,0
108.13198,108.2935,54,94,0
108.30052,108.462036,57,94,0
108.46906,108.63058,62,95,0
108.6376,108.79912,57,95,0
108.80614,108.96766,55,96,0
108.97468,109.13619,59,96,0
109.14322,109.30473,64,97,0
109.31176,109.473274,59,97,0
109.48029,109.641815,56,98,0
109.648834,109.810356,59,98,0
109.817375,109.97889,64,99,0
109.985916,110.14743,59,99,0
110.15446,110.31597,57,80,0
110.32299,110.48451,64,80,0
110.49153,110.653046,69,80,0
110.66007,110.82159,64,80,0
110.82861,110.99013,57,80,0
110.99715,111.15867,62,80,0
111.16569,111.32721,68,80,0
111.33423,111.49574,62,80,0
111.50277,111.66428,57,80,0
111.67131,111.832825,61,80,0
111.83984,112.001366,64,80,0
112.008385,112.1699,61,80,0
112.176926,112.33844,57,80,0
112.34547,112.50698,64,80,0
112.514,112.67552,68,80,0
112.68254,112.84406,64,80,0
112.85108,113.012596,57,80,0
113.01962,113.18114,64,80,0
113.18816,113.34968,69,80,0
113.3567,113.51822,64,80,0
113.52524,113.68675,57,80,0
113.69378,113.85529,62,80,0
113.86232,114.023834,68,80,0
114.03085,114.192375,62,80,0
114.199394,114.36091,57,80,0
114.367935,114.52945,61,80,0
114.536476,114.69799,64,80,0
114.70501,114.86653,61,80,0
114.87355,115.03507,57,80,0
115.04209,115.203606,64,80,0
115.21063,115.37215,68,80,0
115.37917,115.54069,64,80,0
115.54771,115.70923,57,80,0
115.71625,115.87776,64,80,0
115.88479,116.0463,69,80,0
116.05333,116.21484,64,80,0
116.22186,116.383385,57,80,0
116.3904,116.551926,62,80,0
116.558945,116.72046,68,80,0
116.727486,116.889,62,80,0
116.89603,117.22608,61,80,0
116.89603,117.22608,64,80,0
116.89603,117.22608,57,80,0
120.183395,120.34312,38,80,0
120.35006,120.50978,50,80,0
120.85006,121.00978,50,80,0
121.01672,121.176445,62,80,0
121.51672,121.676445,62,80,0
121.683395,121.84312,74,80,0
124.35006,124.676445,33,80,0
124.68339,125.00978,33,80,0
125.01672,125.34311,33,80,0
125.51672,125.676445,33,80,0
125.68339,125.84311,45,80,0
126.18339,126.34311,45,80,0
126.35005,126.50977,57,80,0
126.85005,127.00977,57,80,0
127.016716,127.176445,69,80,0
129.51672,129.67644,57,80,0
129.68338,129.84311,50,80,0
129.85005,130.00977,57,80,0
130.01672,130.17644,49,80,0
130.18338,130.34311,57,80,0
130.35005,130.50977,45,80,0
130.51672,130.67644,57,80,0
130.85005,131.00977,57,80,0
131.01671,131.17644,50,80,0
131.18338,131.34311,57,80,0
131.35005,131.50977,49,80,0
131.51671,131.67644,57,80,0
131.68338,131.84311,45,80,0
131.85005,132.00977,57,80,0
132.01671,132.67644,50,80,0
132.68338,133.34311,52,80,0
133.35005,133.50977,57,80,0
133.51671,133.67644,69,80,0
133.68338,133.84311,64,80,0
133.68338,133.84311,67,80,0
133.85005,134.00977,69,80,0
134.01671,134.17644,66,80,0
134.01671,134.17644,62,80,0
134.18338,134.3431,69,80,0
134.35005,134.50977,64,80,0
134.35005,134.50977,61,80,0
134.51671,134.67644,69,80,0
134.68338,134.8431,66,80,0
134.68338,134.8431,62,80,0
134.85005,135.00977,69,80,0
135.01671,135.17644,66,80,0
135.01671,135.17644,62,80,0
135.18338,135.3431,69,80,0
135.35005,135.50977,64,80,0
135.35005,135.50977,61,80,0
135.51671,135.67644,69,80,0
135.68338,135.8431,64,80,0
135.68338,135.8431,57,80,0
135.85004,136.00977,69,80,0
136.01671,136.17644,66,80,0
136.01671,136.17644,62,80,0
136.18338,136.3431,69,80,0
136.35004,136.50977,66,80,0
136.35004,136.50977,62,80,0
136.51671,136.67644,69,80,0
136.68338,136.8431,64,80,0
136.68338,136.8431,61,80,0
136.85004,137.00977,69,80,0
137.01671,137.17644,64,80,0
137.01671,137.17644,57,80,0
137.18338,137.3431,69,80,0
137.35004,137.50977,66,80,0
137.35004,137.50977,62,80,0
137.51671,137.67644,74,81,0
137.68338,137.8431,67,82,0
137.68338,137.8431,64,82,0
137.85004,138.00977,74,83,0
138.01671,138.17644,69,85,0
138.01671,138.17644,66,85,0
138.18338,138.3431,74,86,0
138.35004,138.50977,71,87,0
138.35004,138.50977,67,87,0
138.51671,138.67644,74,89,0
138.68338,138.8431,72,90,0
138.68338,138.8431,69,90,0
138.85004,139.00977,74,91,0
139.01671,139.17644,68,93,0
139.01671,139.17644,71,93,0
139.18338,139.3431,74,94,0
139.35004,139.50977,69,95,0
139.35004,139.50977,72,95,0
139.51671,139.67642,74,97,0
139.68338,139.8431,66,98,0
139.68338,139.8431,70,98,0
139.85004,140.00977,74,99,0
140.01671,140.3431,67,80,0
140.01671,140.3431,71,80,0
140.68338,141.00977,67,80,0
140.68338,141.00977,71,80,0
140.68338,141.00977,74,80,0
141.35004,141.67642,68,81,0
141.35004,141.67642,71,81,0
141.35004,141.67642,74,81,0
141.35004,141.67642,77,81,0
142.01671,142.3431,68,91,0
142.01671,142.3431,71,91,0
142.01671,142.3431,74,91,0
142.01671,142.3431,77,91,0
142.68336,143.00977,78,110,0
142.68336,143.00977,74,110,0
142.68336,143.00977,69,110,0
144.01671,144.71523,69,110,0
144.01671,145.42111,57,110,0
144.72258,145.42111,67,110,0
145.42847,145.75485,62,110,0
145.42847,145.75485,66,110,0
146.7618,147.46033,57,110,0
146.7618,148.20987,45,110,0
147.46768,148.20987,55,110,0
148.21768,148.55533,54,80,0
148.21768,148.55533,50,80,0
149.94182,150.27946,38,80,0
150.28665,150.62428,42,80,0
150.63147,150.96912,45,80,0
150.9763,152.69325,50,80,0
152.70044,153.03809,50,80,0
153.04527,153.3829,49,80,0
153.39009,153.72774,47,80,0
153.73492,154.41739,49,80,0
154.42458,155.45187,45,80,0
155.45906,155.7967,46,80,0
155.80388,156.14153,47,80,0
156.14871,156.48636,42,80,0
156.49355,156.83118,43,80,0
156.83836,157.17601,44,80,0
157.1832,158.2105,45,80,0
158.21768,158.55533,46,80,0
158.5625,158.90015,47,80,0
158.90733,159.24498,42,80,0
159.25217,159.5898,43,80,0
159.59698,159.93463,44,80,0
159.94182,160.96912,45,80,0
160.9763,161.31393,46,80,0
161.32112,161.65877,47,80,0
161.66595,162.0036,48,80,0
162.01079,162.34842,47,80,0
162.3556,162.69325,43,80,0
162.70044,163.03809,45,80,0
163.04526,163.3829,33,80,0
164.42458,164.76222,50,80,0
164.7694,165.79669,50,80,0
163.39009,166.14153,38,80,0
165.80388,166.14153,50,80,0
166.14871,166.31393,54,80,0
166.32112,166.48636,57,80,0
166.49355,166.65877,54,80,0
166.66595,166.83118,57,80,0
166.83836,167.0036,54,80,0
166.14871,167.17601,50,80,0
167.01077,167.17601,57,80,0
167.1832,167.34842,55,80,0
167.3556,167.52084,57,80,0
167.52802,167.69325,54,80,0
167.1832,167.86566,50,80,0
167.70044,167.86566,57,80,0
167.87285,168.03807,55,80,0
168.04526,168.2105,57,80,0
168.21768,168.3829,54,80,0
167.87285,168.55531,50,80,0
168.39009,168.55531,57,80,0
168.5625,168.7357,55,80,0
168.5625,168.91641,50,80,0
168.74323,168.91641,57,80,0
168.92395,170.25034,61,80,0
168.92395,170.58366,50,80,0
168.92395,170.58366,57,80,0
170.25728,170.58366,62,80,0
171.92395,172.917,43,80,0
172.0906,172.917,46,80,0
172.25728,172.917,50,80,0
173.25728,174.25034,55,80,0
173.42395,174.25034,58,80,0
173.5906,174.25034,62,80,0
174.5906,175.58366,43,80,0
174.75728,175.58366,48,80,0
174.92395,175.58366,51,80,0
175.92393,177.25034,55,80,0
176.0906,177.25034,60,80,0
176.25728,177.25034,63,80,0
177.25728,178.58366,54,70,0
177.42393,178.58366,60,70,0
177.5906,178.58366,63,70,0
178.5906,179.91699,53,70,0
179.75728,179.91699,53,71,0
178.75728,179.91699,60,70,0
178.92393,179.91699,63,70,0
179.92393,180.08366,63,73,0
180.0906,180.25032,59,75,0
180.25726,180.41699,60,77,0
180.42393,180.58366,56,79,0
180.5906,181.08366,57,81,0
181.0906,181.25032,53,87,0
181.25726,181.41699,63,89,0
181.42393,181.58366,59,91,0
181.5906,181.75032,60,93,0
181.75726,181.91699,56,95,0
181.92393,182.41699,57,97,0
182.42393,182.58366,53,110,0
182.5906,182.75032,63,110,0
182.75726,182.91699,59,110,0
182.92393,183.08366,60,110,0
183.0906,183.25032,56,110,0
183.25726,183.41699,57,110,0
183.42393,183.58366,52,110,0
183.5906,183.75972,53,110,0
183.76707,183.93619,54,110,0
183.94354,184.11266,55,110,0
184.12001,184.28912,51,110,0
184.29648,184.47617,53,110,0
184.48398,184.66367,50,110,0
184.67148,184.86314,51,110,0
184.87148,185.06316,48,110,0
185.27148,185.4312,46,80,0
185.43816,185.59787,58,80,0
185.93816,186.09787,58,80,0
186.10481,186.26454,70,80,0
186.60481,186.76454,70,80,0
186.77148,186.9312,82,80,0
189.43814,189.76453,41,80,0
189.77148,190.09787,41,80,0
190.10481,190.4312,41,80,0
190.60481,190.76453,41,80,0
190.77148,190.9312,53,80,0
191.27148,191.4312,53,78,0
191.43814,191.59787,65,78,0
191.9439,192.10912,54,77,0
192.1163,192.28154,66,76,0
192.63354,192.79878,54,75,0
192.80595,192.97119,66,74,0
193.32936,193.50049,55,73,0
193.50793,193.67906,67,73,0
194.05257,194.23225,55,71,0
194.24007,194.43173,67,71,0
194.64008,195.49979,56,110,0
194.64008,195.49979,44,110,0
195.50674,195.66646,50,110,0
195.6734,195.83313,51,110,0
195.84007,195.99979,47,110,0
196.00673,196.16646,48,110,0
196.1734,196.33313,43,110,0
196.34007,196.83313,44,110,0
196.84007,196.99979,50,110,0
197.00673,197.16646,51,110,0
197.1734,197.33313,47,110,0
197.34007,197.49979,48,110,0
197.50673,197.66646,43,110,0
197.6734,198.16646,44,110,0
198.1734,198.33313,48,110,0
198.34007,198.49979,44,110,0
198.50673,198.66646,43,110,0
198.6734,198.83313,42,110,0
198.84007,198.99979,38,110,0
199.00673,199.16646,42,110,0
199.1734,199.33313,45,110,0
199.34007,199.49979,50,110,0
199.50673,199.66646,52,110,0
199.6734,199.83311,54,110,0
199.84007,199.99979,55,110,0
200.00673,200.16646,57,110,0
200.1734,200.33311,55,110,0
200.34007,200.49979,54,110,0
200.50673,200.66646,51,110,0
200.6734,200.83311,50,110,0
200.84007,200.99979,48,110,0
201.00673,201.16646,46,110,0
201.1734,201.33311,45,110,0
201.34006,202.16646,43,110,0
202.1734,202.33311,61,110,0
202.34006,202.49979,62,110,0
202.50673,202.66646,57,110,0
202.6734,202.83311,58,110,0
202.84006,202.99979,54,110,0
203.00673,203.49979,55,110,0
203.50673,203.66646,61,110,0
203.6734,203.83311,62,110,0
203.84006,203.99979,57,110,0
204.00673,204.16646,58,110,0
204.1734,204.33311,54,110,0
204.34006,204.83311,55,110,0
204.84006,204.99979,58,110,0
205.00673,205.16644,55,110,0
205.1734,205.33311,53,110,0
205.34006,205.49979,52,110,0
205.50673,205.66644,48,110,0
205.6734,205.83311,52,110,0
205.84006,205.99979,55,110,0
206.00673,206.16644,60,110,0
206.1734,206.33311,62,110,0
206.34006,206.49979,64,110,0
206.50673,206.66644,65,110,0
206.67339,206.83311,67,110,0
206.84006,206.99979,65,110,0
207.00673,207.16644,64,110,0
207.17339,207.33311,61,110,0
207.34006,207.49979,60,110,0
207.50673,207.66644,58,110,0
207.67339,207.83311,56,110,0
207.84006,207.99979,55,110,0
208.00673,208.16644,53,110,0
208.17339,208.33311,41,110,0
208.34006,208.49979,44,110,0
208.50673,208.66644,48,110,0
208.67339,208.83311,53,110,0
208.84006,208.99979,55,110,0
209.00673,209.16644,56,110,0
209.17339,209.33311,58,110,0
209.34006,209.49979,60,110,0
209.50673,209.66644,58,110,0
209.67339,209.83311,57,110,0
209.84006,209.99977,55,110,0
210.00673,210.16644,53,110,0
210.17339,210.33311,51,110,0
210.34006,210.49977,50,110,0
210.50673,210.66644,48,110,0
210.67339,210.83311,46,110,0
210.84006,210.99977,34,110,0
211.00673,211.16644,38,110,0
211.17339,211.33311,41,110,0
211.34006,211.49977,46,110,0
211.50671,211.66644,48,110,0
211.67339,211.83311,50,110,0
211.84006,211.99977,51,110,0
212.00671,212.16644,53,110,0
212.17339,212.33311,51,110,0
212.34006,212.49977,50,110,0
212.50671,212.66644,48,110,0
212.67339,212.83311,46,110,0
212.84006,212.99977,48,110,0
213.00671,213.16644,50,110,0
213.17339,213.33311,51,110,0
213.34006,213.49977,53,110,0
213.50671,213.66644,51,110,0
213.67339,213.83311,50,110,0
213.84006,213.99977,48,110,0
214.00671,214.16644,46,110,0
214.17339,214.33311,48,110,0
214.34006,214.49977,50,110,0
214.50671,214.66644,51,110,0
214.67339,214.8331,53,110,0
214.84006,214.99977,51,110,0
215.00671,215.16644,50,110,0
215.17339,215.3331,48,110,0
215.34006,215.49977,46,110,0
215.50671,215.66644,48,110,0
215.67339,215.8331,50,110,0
215.84006,215.99977,51,110,0
216.00671,216.16644,53,110,0
216.17339,216.3331,55,110,0
216.34006,216.49977,56,110,0
216.34006,216.66644,46,110,0
216.50671,216.66644,55,110,0
216.67339,216.86505,56,110,0
216.67339,217.06505,46,110,0
216.87338,217.06505,55,110,0
217.07338,217.26505,56,110,0
217.07338,217.46504,46,110,0
217.27338,217.46504,55,110,0
217.47339,219.86505,46,110,0
217.47339,219.86505,56,110,0
220.87338,221.86644,51,80,0
221.04005,221.86644,55,80,0
221.20671,221.86644,58,80,0
222.20671,223.19977,63,80,0
222.37338,223.19977,67,80,0
222.54005,223.19977,70,80,0
223.54004,224.5331,51,80,0
223.70671,224.5331,56,80,0
223.87338,224.5331,60,80,0
224.87338,225.86644,63,80,0
225.04004,225.86644,68,80,0
225.20671,225.86644,72,80,0
226.04004,226.19977,62,80,0
226.20671,226.36642,65,80,0
226.37338,226.5331,70,80,0
226.70671,226.86642,58,80,0
226.87338,227.0331,62,80,0
227.04004,227.19977,65,80,0
227.37338,227.5331,59,80,0
227.54004,227.69977,62,81,0
227.70671,227.86642,67,82,0
228.04004,228.19977,60,84,0
228.20671,228.36642,63,85,0
228.37337,228.5331,55,86,0
228.70671,228.86642,54,87,0
228.87337,229.0331,57,88,0
229.04004,229.19977,62,89,0
229.37337,229.5331,50,91,0
229.54004,229.69977,54,92,0
229.70671,229.86642,57,93,0
230.04579,230.21101,43,94,0
230.2182,230.38342,46,95,0
230.39061,230.55585,50,96,0
230.7416,230.91273,39,98,0
230.92017,231.09985,51,99,0
231.10767,231.28735,51,99,0
231.29517,231.6424,38,80,0
232.31601,232.6424,60,110,0
232.64934,232.97572,58,110,0
232.98267,233.30905,54,110,0
233.316,233.6424,55,110,0
231.64934,233.97572,50,110,0
233.64934,233.97572,61,110,0
234.316,234.97572,62,110,0
234.98267,235.30905,60,110,0
235.316,235.6424,58,110,0
235.64934,235.97572,54,110,0
235.98267,236.30905,55,110,0
233.98267,236.64238,50,110,0
236.316,236.64238,61,110,0
236.98267,237.64238,62,110,0
237.64934,237.97572,60,110,0
237.98267,238.30905,58,110,0
238.316,238.64238,54,110,0
238.64932,238.97572,55,110,0
236.64934,239.30905,50,110,0
238.98267,239.30905,61,110,0
239.316,239.64238,62,100,0
239.64932,239.97572,61,97,0
239.98267,240.30905,62,95,0
240.316,240.64238,61,92,0
240.64932,240.98697,62,90,0
240.99416,241.3318,61,87,0
241.33899,241.68869,62,84,0
239.316,242.06331,50,100,0
241.69612,242.06331,61,82,0
242.07112,242.18831,62,70,0
242.19612,242.30724,66,70,0
242.31418,242.41835,69,70,0
242.4253,242.52946,62,70,0
242.5364,242.64056,66,70,0
242.6475,242.75168,69,70,0
242.75862,242.8628,62,70,0
242.86974,242.9739,66,70,0
242.98085,243.085,69,70,0
243.09196,243.19612,62,70,0
243.20306,243.30724,66,70,0
243.31418,243.41835,69,70,0
243.4253,243.52946,62,70,0
243.5364,243.64056,66,70,0
243.6475,243.75168,69,70,0
243.75862,243.8628,62,70,0
243.86974,243.9739,66,70,0
243.98085,244.085,69,70,0
244.09195,244.19612,62,70,0
244.20306,244.30724,66,70,0
244.31418,244.41835,69,70,0
244.4253,244.52945,62,70,0
244.5364,244.64056,66,70,0
244.6475,244.75168,69,70,0
244.75862,244.8628,62,70,0
244.86974,244.9739,69,70,0
244.98085,245.085,72,70,0
245.09195,245.19612,62,70,0
245.20306,245.30724,69,70,0
245.31418,245.41835,72,70,0
245.4253,245.52945,62,70,0
245.53639,245.64056,69,70,0
245.6475,245.75168,72,70,0
245.75862,245.8628,62,70,0
245.86974,245.97389,69,70,0
245.98085,246.085,72,70,0
246.09195,246.19612,62,70,0
246.20306,246.30724,69,70,0
246.31418,246.41835,72,70,0
246.4253,246.52945,62,70,0
246.53639,246.64056,69,70,0
246.6475,246.75168,72,70,0
246.75862,246.8628,62,70,0
246.86974,246.97389,69,71,0
246.98085,247.085,72,72,0
247.09195,247.19612,62,73,0
247.20306,247.30724,69,74,0
247.31418,247.41833,72,75,0
247.4253,247.52945,62,76,0
247.53639,247.64056,69,77,0
247.6475,247.75168,72,78,0
247.75862,247.8628,62,79,0
247.86974,247.97389,69,80,0
247.98083,248.085,72,81,0
248.09195,248.19612,62,82,0
248.20306,248.30724,69,83,0
248.31418,248.41833,72,84,0
248.4253,248.52945,62,85,0
248.53639,248.64056,69,86,0
248.6475,248.75168,72,87,0
248.75862,248.86278,62,88,0
248.86974,248.97389,69,89,0
248.98083,249.085,72,90,0
249.09195,249.20224,62,91,0
249.2096,249.31989,69,92,0
249.32724,249.43755,72,93,0
249.44489,249.56207,62,94,0
249.56989,249.68707,69,95,0
249.69489,249.81207,72,96,0
249.81989,249.95383,62,97,0
249.96275,250.09668,69,98,0
250.1056,250.23953,72,99,0
250.24846,250.59406,72,110,0
250.24846,250.59406,69,110,0
250.24846,250.59406,62,110,0
258.01953,259.0126,43,80,0
258.18622,259.0126,47,80,0
258.35287,259.0126,50,80,0
259.35287,260.34592,55,80,0
259.51953,260.34592,59,80,0
259.68622,260.34592,62,80,0
260.68622,261.67926,43,80,0
260.85287,261.67926,48,80,0
261.01953,261.67926,52,80,0
262.01953,263.0126,55,80,0
262.1862,263.0126,60,80,0
262.35287,263.0126,64,80,0
263.1862,263.34592,54,80,0
263.35287,263.5126,57,80,0
263.51953,263.67926,62,80,0
263.85287,264.0126,50,80,0
264.01953,264.17926,57,80,0
264.1862,264.34592,60,80,0
264.51953,264.67926,55,80,0
264.6862,264.84592,59,80,0
264.85287,265.01257,62,80,0
265.1862,265.34592,48,80,0
265.35287,265.51257,52,80,0
265.51953,265.67926,57,80,0
265.85287,266.01257,50,80,0
266.01953,266.17926,55,80,0
266.1862,266.34592,59,80,0
266.51953,266.67926,38,80,0
266.6862,266.84592,45,80,0
266.85287,267.01257,50,80,0
267.01953,267.17926,43,80,0
267.1862,267.34592,47,80,0
267.35287,267.51257,50,80,0
267.51953,267.67926,47,80,0
267.6862,267.84592,43,80,0
267.85287,268.01257,47,80,0
268.01953,268.17926,50,80,0
268.1862,268.34592,47,80,0
268.35287,268.51257,43,80,0
268.51953,268.67926,47,80,0
268.6862,268.84592,50,80,0
268.85287,269.01257,47,80,0
269.01953,269.17926,43,80,0
269.1862,269.34592,47,80,0
269.35287,269.51257,50,80,0
269.51953,269.67926,47,80,0
269.6862,269.84592,45,80,0
269.85287,270.01257,48,80,0
270.01953,270.17926,54,80,0
270.1862,270.34592,48,80,0
270.35287,270.51257,45,80,0
270.51953,270.67926,48,80,0
270.6862,270.84592,54,80,0
270.85287,271.01257,48,80,0
271.01953,271.17926,45,80,0
271.1862,271.34592,48,80,0
271.35287,271.51257,54,80,0
271.51953,271.67926,48,80,0
271.6862,271.84592,45,80,0
271.85284,272.01257,48,80,0
272.01953,272.17926,54,80,0
272.1862,272.34592,48,80,0
272.35284,272.51257,47,80,0
272.51953,272.67926,50,80,0
272.6862,272.84592,55,80,0
272.85284,273.01257,50,80,0
273.01953,273.17926,47,80,0
273.1862,273.34592,50,80,0
273.35284,273.51257,55,80,0
273.51953,273.67926,50,80,0
273.6862,273.84592,47,80,0
273.85284,274.01257,53,80,0
274.01953,274.17926,55,80,0
274.1862,274.34592,53,80,0
274.35284,274.51257,47,80,0
274.51953,274.67926,53,80,0
274.6862,274.84592,55,80,0
274.85284,275.01257,53,80,0
275.01953,275.17923,48,80,0
275.1862,275.34592,52,80,0
275.35284,275.51257,55,80,0
275.51953,275.67923,52,80,0
275.6862,275.84592,48,80,0
275.85284,276.01257,52,80,0
276.01953,276.17923,55,80,0
276.1862,276.34592,52,80,0
276.35284,276.51257,50,80,0
276.51953,276.67923,53,80,0
276.6862,276.84592,59,80,0
276.85284,277.01257,53,80,0
277.01953,277.17923,50,80,0
277.1862,277.34592,53,80,0
277.35284,277.51257,59,80,0
277.51953,277.67923,53,80,0
277.6862,277.84592,52,80,0
277.85284,278.01257,55,80,0
278.01953,278.17923,60,80,0
278.1862,278.34592,55,80,0
278.35284,278.51257,52,80,0
278.51953,278.67923,55,80,0
278.6862,278.84592,60,80,0
278.85284,279.01257,55,80,0
279.01953,279.17923,53,80,0
279.1862,279.34592,57,80,0
279.35284,279.51257,62,80,0
279.51953,279.67923,57,80,0
279.6862,279.84592,54,80,0
279.85284,280.01257,57,80,0
280.01953,280.17923,62,80,0
280.1862,280.34592,57,80,0
280.35284,280.51257,55,80,0
280.51953,280.67923,59,80,0
280.6862,280.84592,62,80,0
280.85284,281.01257,59,80,0
281.01953,281.17923,55,80,0
281.1862,281.34592,59,80,0
281.35284,281.51257,64,80,0
281.51953,281.67923,59,80,0
281.6862,281.84592,57,80,0
281.85284,282.01257,60,80,0
282.0195,282.17923,64,80,0
282.1862,282.34592,60,80,0
282.35284,282.51257,57,80,0
282.5195,282.67923,60,80,0
282.6862,282.84592,66,80,0
282.85284,283.01257,60,80,0
283.0195,283.17923,59,80,0
283.1862,283.34592,62,80,0
283.35284,283.51257,66,80,0
283.5195,283.67923,62,80,0
283.6862,283.84592,59,80,0
283.85284,284.01257,62,80,0
284.0195,284.17923,67,80,0
284.1862,284.34592,62,80,0
284.35284,284.51257,60,80,0
284.5195,284.67923,64,80,0
284.6862,284.84592,69,80,0
284.85284,285.01257,64,80,0
285.0195,285.17923,61,80,0
285.1862,285.3459,64,80,0
285.35284,285.51257,69,80,0
285.5195,285.67923,64,80,0
285.6862,285.8459,62,80,0
285.85284,286.01257,69,80,0
286.0195,286.17923,74,80,0
286.1862,286.3459,69,80,0
286.35284,286.51257,62,80,0
286.5195,286.67923,67,80,0
286.6862,286.8459,73,80,0
286.85284,287.01257,67,80,0
287.0195,287.17923,62,80,0
287.1862,287.3459,66,80,0
287.35284,287.51257,69,80,0
287.5195,287.67923,66,80,0
287.6862,287.8459,62,80,0
287.85284,288.01257,69,80,0
288.0195,288.17923,73,80,0
288.1862,288.3459,69,80,0
288.35284,288.51257,62,80,0
288.5195,288.67923,69,80,0
288.6862,288.8459,74,80,0
288.85284,289.01257,69,80,0
289.0195,289.17923,62,80,0
289.1862,289.3459,67,80,0
289.35284,289.51257,73,80,0
289.5195,289.67923,67,80,0
289.6862,289.8459,62,80,0
289.85284,290.01257,66,80,0
290.0195,290.17923,69,80,0
290.1862,290.3459,66,80,0
290.35284,290.51257,62,80,0
290.5195,290.67923,69,80,0
290.6862,290.8459,73,80,0
290.85284,291.01257,69,80,0
291.0195,291.17923,62,80,0
291.1862,291.3459,69,80,0
291.35284,291.51257,74,80,0
291.5195,291.67923,69,80,0
291.6862,291.8459,62,80,0
291.85284,292.01257,67,80,0
292.0195,292.17923,73,80,0
292.18616,292.3459,67,80,0
292.35284,292.67923,69,80,0
292.35284,292.67923,66,80,0
292.35284,292.67923,62,80,0
295.43494,295.59467,43,80,0
295.60162,295.76132,55,80,0
296.10162,296.26132,55,80,0
296.26828,296.428,67,80,0
296.76828,296.928,67,80,0
296.93494,297.09467,79,80,0
299.6016,299.928,38,80,0
299.93494,300.26132,38,80,0
300.26828,300.59467,38,80,0
300.76828,300.928,38,80,0
300.93494,301.09467,50,80,0
301.43494,301.59467,50,80,0
301.6016,301.76132,62,80,0
302.1016,302.26132,62,80,0
302.26828,302.428,74,80,0
304.76828,304.92798,62,80,0
304.93494,305.09467,55,80,0
305.1016,305.26132,62,80,0
305.26828,305.42798,54,80,0
305.43494,305.59467,62,80,0
305.6016,305.76132,50,80,0
305.76828,305.92798,62,80,0
306.1016,306.26132,62,80,0
306.26828,306.42798,55,80,0
306.43494,306.59467,62,80,0
306.6016,306.76132,54,80,0
306.76828,306.92798,62,80,0
306.93494,307.09467,50,80,0
307.1016,307.26132,62,80,0
307.26828,307.92798,55,80,0
307.93494,308.59467,57,80,0
308.6016,308.92798,50,80,0
308.93494,309.09467,72,80,0
308.93494,309.09467,69,80,0
309.1016,309.26132,62,80,0
309.26828,309.42798,71,80,0
309.26828,309.42798,67,80,0
309.43494,309.59467,62,80,0
309.6016,309.76132,69,80,0
309.6016,309.76132,66,80,0
309.76825,309.92798,62,80,0
309.93494,310.09467,67,80,0
309.93494,310.09467,71,80,0
310.1016,310.26132,62,80,0
310.26825,310.42798,71,80,0
310.26825,310.42798,67,80,0
310.43494,310.59467,62,80,0
310.6016,310.76132,66,80,0
310.6016,310.76132,69,80,0
310.76825,310.92798,62,80,0
310.93494,311.09467,69,80,0
310.93494,311.09467,72,80,0
311.1016,311.26132,62,80,0
311.26825,311.42798,67,80,0
311.26825,311.42798,71,80,0
311.43494,311.59467,62,80,0
311.6016,311.76132,71,80,0
311.6016,311.76132,67,80,0
311.76825,311.92798,62,80,0
311.93494,312.09467,66,80,0
311.93494,312.09467,69,80,0
312.1016,312.26132,62,80,0
312.26825,312.42798,69,80,0
312.26825,312.42798,72,80,0
312.43494,312.59467,62,80,0
312.6016,312.76132,67,80,0
312.76825,312.92798,71,81,0
312.93494,313.09467,69,82,0
313.1016,313.26132,72,83,0
313.26825,313.42798,71,85,0
313.43494,313.59464,74,86,0
313.6016,313.76132,72,87,0
313.76825,313.92798,76,89,0
313.93494,314.09464,74,90,0
314.1016,314.26132,77,91,0
314.26825,314.42798,73,93,0
314.43494,314.59464,76,94,0
314.6016,314.76132,74,95,0
314.76825,314.92798,77,97,0
314.93494,315.09464,71,98,0
315.1016,315.26132,75,99,0
315.26825,315.59464,72,80,0
315.93494,316.26132,67,80,0
315.93494,316.26132,64,80,0
315.93494,316.26132,60,80,0
316.6016,316.92798,70,80,0
316.6016,316.92798,67,80,0
316.6016,316.92798,64,80,0
316.6016,316.92798,61,80,0
317.26825,317.59464,70,85,0
317.26825,317.59464,67,85,0
317.26825,317.59464,64,85,0
317.26825,317.59464,61,85,0
317.93494,318.26132,71,90,0
317.93494,318.26132,67,90,0
317.93494,318.26132,62,90,0
319.26825,319.9668,62,110,0
319.26825,320.67267,50,110,0
319.97415,320.67267,60,110,0
320.68002,321.0064,55,110,0
320.68002,321.0064,59,110,0
322.01334,322.71188,50,110,0
322.01334,323.46143,38,110,0
322.71924,323.46143,48,110,0
323.46924,323.8069,47,80,0
323.46924,323.8069,43,80,0
325.19336,325.531,31,80,0
325.5382,325.87585,35,80,0
325.88303,326.22067,38,80,0
326.22784,327.9448,43,80,0
327.952,328.28964,43,80,0
328.2968,328.63446,42,80,0
328.64163,328.97928,40,80,0
328.98648,329.66895,42,80,0
329.67612,330.70343,38,80,0
330.7106,331.04825,38,80,0
331.05545,331.3931,40,80,0
331.40027,331.7379,35,80,0
331.7451,332.08273,36,80,0
332.08994,332.42755,36,80,0
332.43475,333.46204,38,80,0
333.46924,333.8069,38,80,0
333.81406,334.1517,40,80,0
334.15887,334.49652,35,80,0
334.50372,334.84137,36,80,0
334.84854,335.1862,36,80,0
335.19336,336.22067,38,80,0
336.22784,336.5655,39,80,0
336.5727,336.9103,40,80,0
336.9175,337.25516,41,80,0
337.26233,337.59998,40,80,0
337.60715,337.9448,41,80,0
337.952,338.28964,40,80,0
338.2968,338.63446,38,80,0
338.64163,339.32413,36,80,0
339.3313,340.01376,37,80,0
340.02097,340.71948,38,80,0
340.72684,341.4935,38,80,0
341.84665,342.87396,43,80,0
342.01907,342.87396,47,80,0
342.1915,342.87396,50,80,0
343.22598,344.25327,43,80,0
343.39838,344.25327,50,80,0
343.5708,344.25327,53,80,0
344.6053,345.63257,43,80,0
344.7777,345.63257,48,80,0
344.9501,345.63257,52,80,0
345.9846,347.01987,43,80,0
346.157,347.01987,50,80,0
346.3294,347.01987,54,80,0
347.38882,348.44937,43,80,0
347.56955,348.44937,50,80,0
347.75027,348.44937,55,80,0
348.80136,349.82867,43,84,0
348.9738,349.82867,50,86,0
349.1462,349.82867,53,88,0
350.1807,351.3066,43,100,0
350.3531,351.3066,48,102,0
350.5255,351.3066,52,104,0
351.67697,355.73755,43,108,0
351.8577,355.73755,45,106,0
352.03842,355.73755,54,105,0
355.74554,356.12216,55,80,0
355.74554,356.12216,50,80,0
355.74554,356.12216,47,80,0
355.74554,356.12216,43,80,0
356.51477,357.276,62,80,0
356.51477,357.276,66,80,0
357.28403,357.6606,67,80,0
357.28403,357.6606,55,80,0
358.05325,358.90146,78,80,0
358.05325,358.90146,74,80,0
358.9104,360.95502,78,80,0
358.9104,360.95502,74,80,0
360.96753,362.15503,79,80,0
360.96753,362.15503,67,80,0
