start_time,end_time,note_value,velocity,instrument_program_number
1.628172,2.1468117,60,35,0
2.1468117,2.2834113,56,31,0
2.2834113,3.9527583,53,28,0
3.9527583,4.4300885,56,35,0
4.4300885,4.5375156,60,30,0
4.5375156,5.065808,65,35,0
5.065808,5.5339007,68,35,0
5.5339007,5.635451,72,30,0
5.635451,6.194203,77,35,0
6.2023673,6.7588167,65,33,0
6.7588167,7.6862316,72,35,0
7.6862316,7.8352876,74,33,0
7.8352876,7.884973,72,31,0
7.884973,7.942693,74,32,0
7.942693,8.0,76,28,0
8.0,8.05694,74,32,0
8.05694,8.113477,76,28,0
8.113477,8.169657,74,32,0
8.169657,8.225407,76,29,0
8.225407,8.281195,74,32,0
8.281195,8.337139,76,28,0
8.337139,8.393398,74,31,0
8.393398,8.449816,76,29,0
8.449816,8.506553,74,27,0
8.506553,8.563453,76,32,0
8.563453,8.6545,74,27,0
8.6545,8.759889,72,28,0
8.759889,8.865277,76,31,0
8.865277,8.980742,74,28,0
8.980742,9.4426,72,35,0
11.059103,11.557365,61,35,0
11.557365,11.693396,58,31,0
11.693396,13.381962,54,28,0
13.381962,13.870978,58,35,0
13.870978,13.978405,61,30,0
13.978405,14.506698,66,35,0
14.506698,14.9723625,70,35,0
14.9723625,15.073914,73,30,0
15.073914,15.64083,78,34,0
15.64083,16.197279,66,33,0
16.197279,17.124693,73,35,0
17.124693,17.27375,75,32,0
17.27375,17.321365,73,31,0
17.321365,17.380234,75,30,0
17.380234,17.438457,77,27,0
17.438457,17.496138,75,30,0
17.496138,17.553198,77,27,0
17.553198,17.609735,75,30,0
17.609735,17.66568,77,27,0
17.66568,17.721275,75,29,0
17.721275,17.776907,77,27,0
17.776907,17.832851,75,29,0
17.832851,17.889032,77,28,0
17.889032,17.94545,75,30,0
17.94545,18.002888,77,28,0
18.002888,18.094969,75,26,0
18.094969,18.200357,73,28,0
18.200357,18.305748,77,31,0
18.305748,18.421211,75,29,0
18.421211,18.793743,73,35,0
20.656404,21.582443,72,35,0
21.582443,21.7315,74,42,0
21.7315,21.781185,72,38,0
21.781185,21.837683,74,43,0
21.837683,21.89402,76,35,0
21.89402,21.95012,74,40,0
21.95012,22.006065,76,36,0
22.006065,22.061775,74,39,0
22.061775,22.117254,76,36,0
22.117254,22.172733,74,41,0
22.172733,22.228443,76,37,0
22.228443,22.284388,74,40,0
22.284388,22.340567,76,35,0
22.340567,22.396986,74,31,0
22.396986,22.454632,76,37,0
22.454632,22.546703,74,33,0
22.546703,22.652092,72,33,0
22.652092,22.75748,76,37,0
22.75748,22.872946,74,33,0
22.872946,23.21803,72,35,0
25.081423,26.007463,76,35,0
26.007463,26.205416,77,38,0
26.205416,26.261126,77,39,0
26.261126,26.31668,79,34,0
26.31668,26.372084,77,39,0
26.372084,26.427332,79,35,0
26.427332,26.482428,77,39,0
26.482428,26.537373,79,35,0
26.537373,26.592169,77,39,0
26.592169,26.647114,79,35,0
26.647114,26.702286,77,39,0
26.702286,26.75761,79,36,0
26.75761,26.81309,77,33,0
26.81309,26.8688,79,39,0
26.8688,26.952755,77,33,0
26.952755,27.058144,76,34,0
27.058144,27.163532,79,40,0
27.163532,27.278997,77,35,0
27.278997,27.624998,76,35,0
28.929737,29.176226,79,35,0
28.929737,29.176226,76,35,0
29.176226,29.422712,76,31,0
29.176226,29.422712,79,31,0
29.422712,29.690308,79,35,0
29.422712,29.690308,76,35,0
29.690308,30.136404,82,35,0
29.690308,30.136404,79,35,0
32.096436,32.33453,79,83,0
32.096436,32.33453,82,83,0
32.33453,32.583492,79,77,0
32.33453,32.583492,82,77,0
32.583492,32.8455,82,83,0
32.583492,32.8455,79,83,0
32.8455,32.928375,88,85,0
32.928375,33.011173,82,76,0
33.011173,33.093815,91,85,0
33.093815,33.176235,88,75,0
33.176235,33.258575,94,85,0
33.258575,33.340767,91,76,0
33.340767,33.422733,88,85,0
33.422733,33.504627,91,76,0
33.504627,33.586372,82,83,0
33.586372,33.667892,88,75,0
33.667892,33.74934,79,83,0
33.74934,33.830643,82,74,0
33.830643,33.911724,76,81,0
33.911724,33.992805,79,74,0
33.992805,34.073883,70,81,0
34.073883,34.154964,76,71,0
34.154964,34.236046,67,80,0
34.236046,34.317127,70,73,0
34.317127,34.39821,64,80,0
34.39821,34.47929,67,70,0
34.47929,34.56037,58,79,0
34.56037,34.641453,64,71,0
39.818726,40.355797,60,35,0
40.355797,40.451336,56,31,0
40.451336,40.675217,53,103,0
40.675217,40.998787,53,75,0
40.675217,40.998787,60,85,0
40.675217,40.998787,65,101,0
40.675217,40.998787,56,75,0
41.002193,41.32576,68,96,0
41.002193,41.32576,60,72,0
41.002193,41.32576,56,72,0
41.002193,41.32576,65,81,0
41.329166,41.652737,68,79,0
41.329166,41.652737,60,71,0
41.329166,41.652737,72,96,0
41.329166,41.652737,65,71,0
41.656143,41.97971,68,72,0
41.656143,41.97971,72,80,0
41.656143,41.97971,77,95,0
41.656143,41.97971,65,72,0
41.983116,42.306686,80,103,0
41.983116,42.306686,77,86,0
41.983116,42.306686,68,76,0
41.983116,42.306686,72,76,0
42.310093,42.487175,72,71,0
42.310093,42.487175,77,78,0
42.310093,42.487175,84,94,0
42.310093,42.487175,80,78,0
42.488663,44.095806,80,86,0
42.488663,44.095806,89,103,0
42.488663,44.095806,77,76,0
42.488663,44.095806,84,86,0
44.095806,44.53989,56,41,0
44.53989,44.638203,60,35,0
44.638203,45.12168,65,39,0
45.12168,45.550053,68,41,0
45.550053,45.642986,72,36,0
45.642986,46.15807,77,39,0
46.161804,46.68764,65,39,0
46.68764,46.911522,60,103,0
46.911522,47.235092,64,101,0
46.911522,47.235092,60,85,0
47.238495,47.562065,60,72,0
47.238495,47.562065,67,96,0
47.238495,47.562065,64,81,0
47.56547,47.88904,67,79,0
47.56547,47.88904,64,71,0
47.56547,47.88904,72,96,0
47.892445,48.216015,72,80,0
47.892445,48.216015,67,72,0
47.892445,48.216015,76,95,0
48.21942,48.54299,76,86,0
48.21942,48.54299,72,76,0
48.21942,48.54299,79,103,0
48.5464,48.8469,79,78,0
48.5464,48.8469,76,78,0
48.5464,48.8469,84,94,0
48.849426,49.696884,72,41,0
49.696884,49.87877,74,45,0
49.87877,49.935734,74,39,0
49.935734,50.020798,76,35,0
49.992504,50.049088,74,39,0
50.049088,50.105484,76,36,0
50.105484,50.161697,74,38,0
50.161697,50.21772,76,36,0
50.21772,50.27351,74,38,0
50.27351,50.328987,76,36,0
50.328987,50.38515,74,39,0
50.38515,50.44188,76,37,0
50.44188,50.49918,74,35,0
50.49918,50.557064,76,39,0
50.557064,50.644566,74,35,0
50.644566,50.741016,72,36,0
50.741016,50.837463,76,41,0
50.837463,50.943123,74,38,0
50.943123,51.165134,60,103,0
51.167,51.49057,64,101,0
51.167,51.49057,60,85,0
51.493977,51.817547,67,96,0
51.493977,51.817547,64,81,0
51.493977,51.817547,60,72,0
51.820953,52.14452,72,96,0
51.820953,52.14452,67,79,0
51.820953,52.14452,64,71,0
52.147926,52.471497,76,95,0
52.147926,52.471497,72,80,0
52.147926,52.471497,67,72,0
52.474903,52.79847,79,103,0
52.474903,52.79847,76,86,0
52.474903,52.79847,72,76,0
52.801876,53.100872,79,78,0
52.801876,53.100872,84,94,0
52.801876,53.100872,76,78,0
53.103386,53.95084,72,48,0
53.95084,54.087254,73,52,0
54.087254,54.132725,72,48,0
54.132725,54.18969,73,46,0
54.18969,54.246464,75,41,0
54.246464,54.303047,73,46,0
54.303047,54.35944,75,41,0
54.35944,54.415653,73,44,0
54.415653,54.471676,75,41,0
54.471676,54.52747,73,46,0
54.52747,54.582947,75,42,0
54.582947,54.63911,73,46,0
54.63911,54.72441,75,43,0
54.72441,54.811024,73,40,0
54.811024,54.89852,75,46,0
54.89852,54.994972,73,42,0
54.994972,55.091423,72,48,0
55.091423,55.19708,73,44,0
55.19708,55.686214,82,58,0
55.19708,55.686214,79,58,0
57.15896,57.646343,80,56,0
57.15896,57.646343,83,56,0
59.11909,61.07964,83,75,0
59.11909,61.07964,80,75,0
59.11909,61.07964,88,75,0
61.07964,61.406616,79,52,0
61.07964,61.406616,87,52,0
61.07964,61.406616,82,52,0
62.550602,62.953896,82,56,0
62.550602,62.953896,79,56,0
62.953896,63.052906,79,52,0
62.953896,63.052906,82,52,0
63.052906,63.380775,80,58,0
63.052906,63.380775,83,58,0
63.380775,63.541634,82,52,0
63.380775,63.541634,79,52,0
63.86335,64.02728,67,50,0
63.86335,64.02728,70,50,0
64.352486,64.51509,55,49,0
64.352486,64.51509,58,49,0
64.92229,65.01439,82,58,0
64.92229,65.01439,79,58,0
65.01439,65.342255,82,61,0
65.01439,65.342255,85,61,0
65.342255,65.50355,80,52,0
65.342255,65.50355,83,52,0
65.826126,65.99006,68,49,0
65.826126,65.99006,71,49,0
66.316154,66.47494,56,47,0
66.316154,66.47494,59,47,0
66.887054,66.988754,83,52,0
66.887054,66.988754,80,52,0
66.988754,68.9533,83,75,0
66.988754,68.9533,88,75,0
66.988754,68.9533,80,75,0
68.9533,69.27984,82,61,0
68.9533,69.27984,87,61,0
68.9533,69.27984,79,61,0
69.93424,70.915184,69,52,0
69.93424,70.915184,66,52,0
69.93424,70.915184,75,52,0
70.915184,71.24577,68,52,0
70.915184,71.24577,65,52,0
70.915184,71.24577,74,52,0
71.91016,72.242584,67,46,0
71.91016,72.242584,64,46,0
71.91016,72.242584,73,46,0
72.91,73.41326,67,41,0
72.91,73.41326,63,41,0
72.91,73.41326,73,41,0
78.67053,79.13854,60,44,0
79.13854,79.25962,63,40,0
79.25962,79.77449,68,41,0
79.25962,79.77449,56,38,0
79.77449,80.230125,60,40,0
79.77449,80.230125,72,44,0
80.230125,80.335106,68,39,0
80.230125,80.335106,56,36,0
80.335106,80.866104,55,38,0
80.335106,80.866104,67,41,0
80.866104,81.32597,70,44,0
80.866104,81.32597,58,40,0
81.32597,81.43883,67,39,0
81.32597,81.43883,55,36,0
81.43883,81.954025,56,38,0
81.43883,81.954025,68,41,0
81.954025,83.01322,63,40,0
83.01322,83.4711,65,44,0
83.4711,83.58355,61,40,0
83.58355,84.09737,60,44,0
84.09737,84.55431,63,44,0
84.55431,84.659294,60,39,0
84.659294,85.19029,58,44,0
85.19029,85.656975,63,44,0
85.656975,85.77488,61,39,0
85.77488,86.32604,60,42,0
86.32604,87.403305,63,42,0
87.403305,87.86419,72,55,0
87.86419,87.985725,75,53,0
87.985725,88.51679,68,51,0
87.985725,88.51679,80,56,0
88.51679,88.968,84,62,0
88.51679,88.968,72,57,0
88.968,89.07298,68,53,0
88.968,89.07298,80,58,0
89.07298,89.60398,79,61,0
89.07298,89.60398,67,57,0
89.60398,90.068504,82,68,0
89.60398,90.068504,70,62,0
90.068504,90.20425,67,58,0
90.068504,90.20425,79,63,0
90.20425,90.74288,80,57,0
90.20425,90.74288,68,51,0
90.74288,92.30547,75,52,0
90.74288,92.30547,63,45,0
92.30547,92.84928,64,72,0
92.30547,92.84928,76,85,0
92.84928,94.32873,73,81,0
92.84928,94.32873,61,69,0
94.32873,95.83291,71,58,0
95.83291,96.17873,70,51,0
96.17873,96.32725,68,49,0
96.32725,96.37526,69,38,0
96.37526,96.46495,70,44,0
96.46495,96.55384,71,38,0
96.55384,96.64105,70,46,0
96.64105,96.72929,71,40,0
96.72929,96.81718,70,47,0
96.81718,96.90338,71,40,0
96.90338,96.98925,70,48,0
96.98925,97.07415,71,41,0
97.07415,97.15941,70,49,0
97.15941,97.24365,71,42,0
97.24365,97.32867,70,50,0
97.32867,97.41361,71,42,0
97.41361,97.49864,70,51,0
97.49864,97.58399,71,44,0
97.58399,97.669426,70,51,0
97.669426,97.754814,71,45,0
97.754814,97.840744,70,52,0
97.840744,97.925964,71,46,0
97.925964,98.0125,70,53,0
98.0125,98.098465,71,48,0
98.098465,98.18459,70,55,0
98.18459,98.27129,71,48,0
98.27129,98.3588,70,56,0
98.3588,98.446785,71,48,0
98.446785,98.54535,76,46,0
98.54535,98.63187,75,39,0
98.63187,98.71802,76,46,0
98.71802,98.80421,75,40,0
98.80421,98.88933,76,48,0
98.88933,98.97423,75,41,0
98.97423,99.05924,76,50,0
99.05924,99.143486,75,44,0
99.143486,99.227615,76,51,0
99.227615,99.311966,75,45,0
99.311966,99.39624,76,53,0
99.39624,99.48072,75,47,0
99.48072,99.56514,76,56,0
99.56514,99.65009,75,48,0
99.65009,99.73489,76,56,0
99.73489,99.81982,75,47,0
99.81982,99.905075,76,56,0
99.905075,99.99028,75,48,0
99.99028,100.07588,76,56,0
100.07588,100.16187,75,49,0
100.16187,100.24757,76,56,0
100.24757,100.33432,75,49,0
100.33432,100.42132,74,56,0
100.42132,100.50878,75,48,0
100.50878,100.607,88,55,0
100.607,100.69312,87,46,0
100.69312,100.77786,88,55,0
100.77786,100.861824,87,48,0
100.861824,100.94473,88,57,0
100.94473,101.026794,87,50,0
101.026794,101.1081,88,60,0
101.1081,101.18969,87,51,0
101.18969,101.27075,88,62,0
101.27075,101.35172,87,52,0
101.35172,101.43276,88,63,0
101.43276,101.51389,87,55,0
101.51389,101.59572,88,67,0
101.59572,101.67691,87,56,0
101.67691,101.758026,88,68,0
101.758026,101.8401,87,57,0
101.8401,101.92291,88,67,0
101.92291,102.00709,87,56,0
102.00709,102.091515,88,67,0
102.091515,102.17677,87,58,0
102.17677,102.26279,88,67,0
102.26279,102.348946,87,58,0
102.348946,102.436455,86,67,0
102.436455,102.52392,87,56,0
102.52392,102.70464,88,64,0
102.70464,102.88536,87,55,0
102.88536,103.066086,85,48,0
103.066086,103.24681,83,49,0
103.24681,103.427536,82,48,0
103.427536,103.60825,80,48,0
103.60825,103.78898,79,49,0
103.78898,103.9697,78,47,0
103.9697,104.15043,76,47,0
104.15043,104.33115,75,48,0
104.33115,104.51187,73,48,0
104.51187,104.69255,71,45,0
104.69255,104.873276,70,48,0
104.873276,105.05546,68,44,0
105.05546,105.239136,67,44,0
105.239136,105.424324,66,45,0
105.424324,105.61066,64,45,0
105.61066,105.79699,63,45,0
105.79699,105.98333,61,45,0
111.545074,111.63653,56,83,0
111.63653,111.727974,51,66,0
111.727974,111.81942,47,66,0
111.81942,111.910866,51,66,0
111.910866,112.00811,56,80,0
112.00811,112.105354,51,64,0
112.105354,112.1971,59,84,0
112.1971,112.28884,51,66,0
112.28884,112.380585,58,83,0
112.380585,112.47233,51,66,0
112.47233,112.56601,56,81,0
112.56601,112.65968,51,66,0
112.65968,112.75005,56,83,0
112.75005,112.84042,51,63,0
112.84042,112.930786,47,63,0
112.930786,113.02116,51,63,0
113.02116,113.117065,56,79,0
113.117065,113.21298,51,62,0
113.21298,113.30417,59,83,0
113.30417,113.395355,51,63,0
113.395355,113.48654,58,80,0
113.48654,113.57772,51,66,0
113.57772,113.67531,56,80,0
113.67531,113.772896,51,64,0
113.772896,113.863266,64,83,0
113.863266,113.95363,59,66,0
113.95363,114.044,56,66,0
114.044,114.13436,59,66,0
114.13436,114.231606,64,80,0
114.231606,114.32886,59,64,0
114.32886,114.42059,68,84,0
114.42059,114.51234,59,66,0
114.51234,114.60408,66,83,0
114.60408,114.69582,59,66,0
114.69582,114.789505,64,81,0
114.789505,114.88319,59,66,0
114.88319,114.97355,64,83,0
114.97355,115.06392,59,63,0
115.06392,115.15429,56,63,0
115.15429,115.24465,59,63,0
115.24465,115.34057,64,80,0
115.34057,115.43648,59,62,0
115.43648,115.52822,68,83,0
115.52822,115.619965,59,63,0
115.619965,115.71171,66,80,0
115.71171,115.80345,59,66,0
115.80345,115.8984,64,80,0
115.8984,115.99334,59,64,0
115.99334,116.08282,73,92,0
116.08282,116.17283,76,67,0
116.17283,116.26261,73,77,0
116.26261,116.35368,76,67,0
116.35368,116.443375,73,74,0
116.443375,116.53316,76,67,0
116.53316,116.62308,73,73,0
116.62308,116.71318,76,67,0
116.71318,116.803375,73,73,0
116.803375,116.893166,76,67,0
116.893166,116.983864,73,73,0
116.983864,117.074104,76,67,0
117.074104,117.164116,73,73,0
117.164116,117.25436,76,67,0
117.25436,117.34355,73,73,0
117.34355,117.43411,76,67,0
117.43411,117.52367,73,72,0
117.52367,117.61377,76,67,0
117.61377,117.705215,73,95,0
117.705215,117.79666,76,78,0
117.79666,117.88811,70,89,0
117.88811,117.97956,73,78,0
117.97956,118.07302,67,84,0
118.07302,118.16649,70,77,0
118.16649,118.25681,64,82,0
118.25681,118.347145,67,70,0
118.347145,118.43747,61,81,0
118.43747,118.5278,64,71,0
118.5278,118.618126,58,82,0
118.618126,118.70846,61,68,0
118.70846,118.79879,56,81,0
118.79879,118.889114,58,70,0
118.889114,118.97945,61,80,0
118.97945,119.06977,58,70,0
119.06977,119.166916,56,80,0
119.166916,119.26406,58,69,0
119.35439,119.44472,56,70,0
119.44472,119.53505,61,80,0
119.53505,119.625374,58,69,0
119.625374,119.715706,56,77,0
119.715706,119.80603,61,70,0
119.89636,119.986694,55,69,0
119.986694,120.07702,61,80,0
120.07702,120.16735,58,69,0
120.16735,120.257675,55,78,0
120.257675,120.34801,61,69,0
120.34801,120.43945,68,83,0
120.43945,120.5309,63,66,0
120.5309,120.622345,59,66,0
120.622345,120.71379,63,66,0
120.71379,120.811035,68,80,0
120.811035,120.90828,63,64,0
120.90828,120.99938,71,84,0
120.99938,121.09084,63,66,0
121.09084,121.182304,70,83,0
121.182304,121.27377,63,66,0
121.27377,121.36745,68,81,0
121.36745,121.46113,63,66,0
121.46113,121.5515,68,83,0
121.5515,121.64186,63,63,0
121.64186,121.73223,59,63,0
121.73223,121.8226,63,63,0
121.8226,121.91851,68,80,0
121.91851,122.01443,63,62,0
122.01443,122.10589,71,83,0
122.10589,122.19735,63,63,0
122.19735,122.28882,70,80,0
122.28882,122.38028,63,66,0
122.38028,122.47787,68,80,0
122.47787,122.575455,63,64,0
122.575455,122.66582,76,83,0
122.66582,122.75619,71,66,0
122.75619,122.84655,68,66,0
122.84655,122.93692,71,66,0
122.93692,123.034164,76,80,0
123.034164,123.13141,71,64,0
123.13141,123.22287,80,84,0
123.22287,123.31434,71,66,0
123.31434,123.4058,78,83,0
123.4058,123.49726,71,66,0
123.49726,123.59094,76,81,0
123.59094,123.68462,71,66,0
123.68462,123.774994,76,83,0
123.774994,123.86536,71,63,0
123.86536,123.95573,68,63,0
123.95573,124.04609,71,63,0
124.04609,124.142006,76,80,0
124.142006,124.23792,71,62,0
124.23792,124.329384,80,83,0
124.329384,124.420845,71,63,0
124.420845,124.512314,78,80,0
124.512314,124.603775,71,66,0
124.603775,124.698715,76,80,0
124.698715,124.793655,71,64,0
124.793655,124.88313,85,94,0
124.88313,124.973145,88,77,0
124.973145,125.062935,85,78,0
125.062935,125.154,88,69,0
125.154,125.2437,85,75,0
125.2437,125.33348,88,69,0
125.33348,125.4234,85,75,0
125.4234,125.513504,88,69,0
125.513504,125.6037,85,74,0
125.6037,125.69348,88,69,0
125.69348,125.78418,85,71,0
125.78418,125.87442,88,69,0
125.87442,125.96444,85,71,0
125.96444,126.05467,88,69,0
126.05467,126.14387,85,71,0
126.14387,126.23443,88,69,0
126.23443,126.32399,85,73,0
126.32399,126.41409,88,69,0
126.41409,126.50554,85,76,0
126.50554,126.596985,88,69,0
126.596985,126.68843,85,77,0
126.68843,126.77988,88,69,0
126.77988,126.873344,85,77,0
126.873344,126.966805,88,69,0
126.966805,127.05714,85,82,0
127.05714,127.14746,88,70,0
127.14746,127.23779,82,81,0
127.23779,127.32812,85,71,0
127.32812,127.41845,80,82,0
127.41845,127.50878,82,68,0
127.50878,127.599106,80,81,0
127.599106,127.68944,82,70,0
127.68944,127.77976,85,80,0
127.77976,127.870094,82,70,0
127.870094,127.96724,80,80,0
127.96724,128.06438,82,69,0
128.15471,128.24504,80,72,0
128.24504,128.33537,85,77,0
128.33537,128.42569,82,70,0
128.42569,128.51602,80,74,0
128.51602,128.60635,85,69,0
128.69669,128.78702,79,67,0
128.78702,128.87733,85,71,0
128.87733,128.96767,82,64,0
128.96767,129.06087,79,68,0
129.06087,129.15407,85,62,0
129.24438,129.33472,76,72,0
129.33472,129.42505,85,78,0
129.42505,129.51538,82,70,0
129.51538,129.60571,76,77,0
129.60571,129.69603,85,69,0
129.78636,129.8767,75,67,0
129.8767,129.96703,85,74,0
129.96703,130.05734,82,64,0
130.05734,130.15025,75,70,0
130.15025,130.24315,85,62,0
130.33347,130.4238,80,72,0
130.4238,130.51413,85,78,0
130.51413,130.60446,82,70,0
130.60446,130.6948,80,76,0
130.6948,130.78511,85,69,0
130.87544,130.96577,79,67,0
130.96577,131.0561,85,73,0
131.0561,131.14642,82,64,0
131.14642,131.23676,79,70,0
131.23676,131.32709,85,62,0
131.59637,131.68571,83,79,0
131.68571,131.77477,86,83,0
131.77477,131.86354,89,74,0
131.86354,131.95213,92,85,0
131.95213,132.04047,89,81,0
132.04047,132.12852,86,86,0
132.12852,132.21638,95,83,0
132.21638,132.30399,94,86,0
132.30399,132.39133,92,78,0
132.39133,132.47858,91,83,0
132.47858,132.56583,94,81,0
132.56583,132.65308,92,84,0
132.65308,132.74033,91,82,0
132.74033,132.82785,88,81,0
132.82785,132.91536,87,74,0
132.91536,133.00305,85,78,0
133.00305,133.09084,88,75,0
133.09084,133.1788,87,74,0
133.1788,133.26685,85,72,0
133.26685,133.355,83,71,0
133.355,133.46582,82,66,0
133.55861,133.6512,80,42,0
133.6512,133.73842,83,45,0
133.73842,133.82562,87,47,0
133.82562,133.91283,92,49,0
133.91283,134.00005,80,45,0
134.26529,134.3525,92,49,0
134.3525,134.43971,80,45,0
134.43971,134.52692,92,49,0
134.79192,134.87888,92,48,0
134.87888,134.96584,80,45,0
134.96584,135.05278,92,48,0
135.30595,135.3929,91,48,0
135.3929,135.47986,79,45,0
135.47986,135.56682,91,49,0
135.6596,135.7522,80,42,0
135.7522,135.8394,83,45,0
135.8394,135.9266,87,47,0
135.9266,136.01382,92,49,0
136.01382,136.10103,80,45,0
136.36629,136.45349,80,49,0
136.45349,136.5407,68,45,0
136.5407,136.62791,80,49,0
136.8929,136.97986,80,48,0
136.97986,137.06682,68,45,0
137.06682,137.15378,80,48,0
137.40694,137.4939,79,48,0
137.4939,137.58086,67,45,0
137.58086,137.6678,79,49,0
137.76059,137.85318,80,42,0
137.85318,137.9404,83,45,0
137.9404,138.0276,87,47,0
138.0276,138.1148,92,49,0
138.1148,138.20203,80,45,0
138.46727,138.55447,92,49,0
138.55447,138.6417,80,45,0
138.6417,138.7289,92,49,0
138.9939,139.08086,92,48,0
139.08086,139.16782,80,45,0
139.16782,139.25476,92,48,0
139.50792,139.59488,91,48,0
139.59488,139.68834,79,45,0
139.68834,139.7818,91,49,0
139.7818,139.86943,92,48,0
139.86943,139.95758,87,45,0
139.95758,140.04599,83,44,0
140.04599,140.13466,87,39,0
140.13466,140.2236,92,42,0
140.2236,140.31279,87,39,0
140.31279,140.40225,83,46,0
140.40225,140.49199,87,41,0
140.49199,140.58208,92,41,0
140.58208,140.67216,87,37,0
140.67216,140.77118,83,40,0
140.77118,140.87099,87,36,0
140.87099,140.97534,92,42,0
140.97534,141.08078,87,39,0
141.08078,141.18736,83,39,0
141.18736,141.29507,87,35,0
141.29507,141.40404,92,38,0
141.40404,141.51454,87,34,0
141.51454,141.62627,92,39,0
141.62627,141.73927,87,35,0
141.73927,141.85356,92,37,0
141.85356,141.96954,87,31,0
141.96954,142.08783,92,36,0
142.08783,142.21164,87,30,0
142.21164,143.88866,92,33,0
143.88866,144.40454,59,35,0
144.40454,144.5404,56,31,0
144.5404,146.20093,51,28,0
146.20093,146.71043,59,35,0
146.71043,146.8463,56,31,0
146.8463,148.52594,52,28,0
148.52594,149.00713,56,35,0
149.00713,149.11398,59,30,0
149.11398,149.63947,64,35,0
149.63947,150.10507,68,36,0
150.10507,150.2061,71,31,0
150.2061,150.76596,76,36,0
150.77002,151.32353,64,34,0
151.32353,152.24603,71,35,0
152.24603,152.3943,73,33,0
152.3943,152.44154,71,34,0
152.44154,152.49852,73,31,0
152.49852,152.55518,75,27,0
152.55518,152.61151,73,31,0
152.61151,152.66754,75,27,0
152.66754,152.72325,73,31,0
152.72325,152.77861,75,28,0
152.77861,152.83348,73,31,0
152.83348,152.88866,75,27,0
152.88866,152.94421,73,31,0
152.94421,153.00015,75,28,0
153.00015,153.05649,73,26,0
153.05649,153.11324,75,31,0
153.11324,153.19894,73,26,0
153.19894,153.30434,71,30,0
153.30434,153.40973,75,35,0
153.40973,153.52519,73,31,0
153.52519,153.89786,71,35,0
155.76122,156.68271,78,35,0
156.68271,156.8804,80,35,0
156.8804,156.93674,80,44,0
156.93674,156.99284,81,35,0
156.99284,157.04863,80,40,0
157.04863,157.10419,81,36,0
157.10419,157.1595,80,39,0
157.1595,157.21452,81,36,0
157.21452,157.26932,80,38,0
157.26932,157.32434,81,34,0
157.32434,157.37967,80,37,0
157.37967,157.43523,81,35,0
157.43523,157.49101,80,31,0
157.49101,157.5471,81,36,0
157.5471,157.63162,80,33,0
157.63162,157.73701,78,33,0
157.73701,157.84239,81,37,0
157.84239,157.95786,80,33,0
156.8804,157.95786,77,35,0
157.95786,158.33054,78,35,0
160.1939,161.14627,64,35,0
161.14627,161.34396,66,35,0
161.34396,161.39983,66,44,0
161.39983,161.45554,68,35,0
161.45554,161.5111,66,40,0
161.5111,161.5665,68,36,0
161.5665,161.62175,66,39,0
161.62175,161.67683,68,36,0
161.67683,161.7317,66,39,0
161.7317,161.78658,68,35,0
161.78658,161.8416,66,39,0
161.8416,161.89677,68,35,0
161.89677,161.9521,66,31,0
161.9521,162.00957,68,36,0
162.00957,162.10518,66,33,0
162.10518,162.21057,64,33,0
162.21057,162.31596,68,37,0
162.31596,162.43143,66,33,0
161.34396,162.43143,63,35,0
162.43143,162.97359,64,35,0
162.97359,164.07115,69,53,0
162.97359,164.07115,61,45,0
162.97359,164.07115,57,45,0
164.07115,164.5336,66,44,0
164.5336,164.6302,68,39,0
164.07115,164.6302,61,36,0
164.07115,164.6302,57,36,0
164.6302,165.74289,59,35,0
164.6302,165.74289,56,35,0
164.6302,165.74289,64,42,0
165.74289,166.85558,54,30,0
165.74289,166.85558,57,30,0
165.74289,166.85558,63,36,0
166.85558,167.77707,76,35,0
167.77707,167.97476,78,35,0
167.97476,168.03094,78,36,0
168.03094,168.08688,80,33,0
168.08688,168.14252,78,36,0
168.14252,168.198,80,34,0
168.198,168.25317,78,36,0
168.25317,168.30804,80,34,0
168.30804,168.36292,78,36,0
168.36292,168.41792,80,32,0
168.41792,168.47318,78,36,0
168.47318,168.52858,80,33,0
168.52858,168.58421,78,30,0
168.58421,168.64,80,34,0
168.64,168.72403,78,31,0
168.72403,168.82887,76,33,0
168.82887,168.93372,80,37,0
168.93372,169.04855,78,33,0
167.97476,169.04855,75,29,0
169.04855,169.58984,76,35,0
169.58984,170.68895,81,53,0
169.58984,170.68895,73,45,0
169.58984,170.68895,69,45,0
170.68895,171.1519,78,44,0
171.1519,171.2485,80,39,0
170.68895,171.2485,73,36,0
170.68895,171.2485,69,36,0
171.2485,172.36119,71,35,0
171.2485,172.36119,76,42,0
171.2485,172.36119,68,35,0
172.36119,172.73209,66,30,0
172.36119,172.73209,69,30,0
172.36119,172.73209,75,36,0
173.47345,173.55873,71,70,0
173.55873,173.6446,67,61,0
173.6446,173.72955,71,70,0
173.72955,173.81601,67,60,0
173.81601,173.90082,71,70,0
173.90082,173.98734,67,61,0
173.98734,174.07294,71,70,0
174.07294,174.15862,67,60,0
174.15862,174.24466,71,70,0
174.24466,174.32964,67,60,0
174.32964,174.41562,71,70,0
174.41562,174.50151,67,59,0
174.50151,174.58983,71,70,0
174.58983,174.67574,67,61,0
174.67574,174.76248,71,70,0
174.76248,174.84958,67,60,0
174.84958,174.93542,71,70,0
174.93542,175.02148,67,61,0
175.02148,175.10783,71,70,0
175.10783,175.19484,67,60,0
175.19484,175.27917,71,70,0
175.27917,175.36353,67,60,0
175.36353,175.44788,71,70,0
175.44788,175.53403,67,59,0
175.53403,175.61526,71,70,0
175.61526,175.69695,67,61,0
175.69695,175.77834,71,70,0
175.77834,175.85974,67,60,0
175.85974,175.94154,71,70,0
175.94154,176.02345,67,61,0
176.02345,176.10754,71,70,0
176.10754,176.19165,67,60,0
176.19165,176.27766,71,70,0
176.27766,176.36362,67,60,0
176.36362,176.44986,71,70,0
176.44986,176.54105,67,59,0
176.54105,176.62566,71,70,0
176.62566,176.71025,67,61,0
176.71025,176.79485,71,70,0
176.79485,176.87944,67,60,0
176.87944,176.96404,71,70,0
176.96404,177.04865,67,61,0
177.04865,177.1322,71,70,0
177.1322,177.21577,67,60,0
177.21577,177.29933,71,70,0
177.29933,177.3829,67,60,0
177.3829,177.4674,71,70,0
177.4674,177.55191,67,59,0
177.55191,177.64948,65,83,0
177.64948,177.74704,67,67,0
177.74704,177.84459,71,70,0
177.84459,177.94365,67,68,0
177.94365,178.04506,65,68,0
178.04506,178.14534,62,81,0
178.14534,178.24562,65,67,0
178.24562,178.3459,67,70,0
178.3459,178.4466,65,68,0
178.4466,178.54752,62,68,0
178.54752,178.64723,59,77,0
178.64723,178.74693,62,62,0
178.74693,178.84665,65,67,0
178.84665,178.94637,62,63,0
178.94637,179.04607,59,63,0
179.04607,179.46153,71,89,0
179.46153,179.54742,74,80,0
179.54742,180.03685,79,89,0
180.03685,180.46494,83,91,0
180.46494,180.55614,86,80,0
180.55614,181.06432,91,90,0
180.55614,181.06432,79,82,0
181.06432,181.56343,79,79,0
181.06432,181.56343,91,86,0
181.56343,181.6604,91,91,0
181.56343,181.6604,79,91,0
181.6604,181.7567,87,73,0
181.7567,181.853,91,77,0
181.853,181.9493,87,74,0
181.9493,182.0456,84,74,0
182.0456,182.14442,79,91,0
182.14442,182.24326,84,73,0
182.24326,182.3421,87,77,0
182.3421,182.44093,84,74,0
182.44093,182.53976,79,74,0
182.53976,182.6386,75,91,0
182.6386,182.73744,79,73,0
182.73744,182.83627,84,77,0
182.83627,182.9351,79,74,0
182.9351,183.03395,75,74,0
183.03395,183.13278,72,91,0
183.13278,183.23161,75,73,0
183.23161,183.33046,79,77,0
183.33046,183.42929,75,74,0
183.42929,183.53609,72,74,0
183.53609,183.6336,67,91,0
183.6336,183.7314,72,73,0
183.7314,183.82903,75,77,0
183.82903,183.92712,72,74,0
183.92712,184.02551,67,74,0
184.02551,184.12733,63,91,0
184.12733,184.22981,67,73,0
184.22981,184.3331,72,77,0
184.3331,184.43631,67,74,0
184.43631,184.54478,63,74,0
184.54478,184.6445,63,91,0
184.6445,184.74423,67,73,0
184.74423,184.84395,72,77,0
184.84395,184.94368,67,74,0
184.94368,185.0434,63,74,0
185.0434,185.14342,63,91,0
185.14342,185.24342,67,73,0
185.24342,185.34343,72,77,0
185.34343,185.44438,67,74,0
185.44438,185.54578,63,74,0
185.54578,185.64348,61,83,0
185.64348,185.74117,63,67,0
185.74117,185.83887,67,70,0
185.83887,185.93932,63,68,0
185.93932,186.04114,61,68,0
186.04114,186.14114,58,81,0
186.14114,186.24117,61,67,0
186.24117,186.34117,63,70,0
186.34117,186.44179,61,68,0
186.44179,186.5427,58,68,0
186.5427,186.64241,55,77,0
186.64241,186.74213,58,62,0
186.74213,186.84183,61,67,0
186.84183,186.94154,58,63,0
186.94154,187.04126,55,63,0
187.04126,187.4511,67,89,0
187.4511,187.53755,70,80,0
187.53755,188.02698,75,89,0
188.02698,188.45506,79,91,0
188.45506,188.54625,82,80,0
188.54625,189.05826,87,90,0
188.54625,189.05826,75,82,0
189.05826,189.5624,87,86,0
189.05826,189.5624,75,79,0
189.5624,189.66156,87,100,0
189.66156,189.76003,92,80,0
189.76003,189.85706,96,83,0
189.85706,189.9541,92,81,0
189.9541,190.05113,87,80,0
190.05113,190.14896,84,97,0
190.14896,190.24678,87,78,0
190.24678,190.3446,92,81,0
190.3446,190.44243,87,79,0
190.44243,190.54025,84,75,0
190.54025,190.63863,80,95,0
190.63863,190.73698,84,77,0
190.73698,190.83534,87,79,0
190.83534,190.9337,84,77,0
190.9337,191.03206,80,77,0
191.03206,191.13042,75,93,0
191.13042,191.22879,80,74,0
191.22879,191.32715,84,78,0
191.32715,191.4255,80,74,0
191.4255,191.53221,75,74,0
191.53221,191.62975,72,91,0
191.62975,191.72754,75,73,0
191.72754,191.82515,80,77,0
191.82515,191.92325,75,74,0
191.92325,192.02165,72,74,0
192.02165,192.12347,68,91,0
192.12347,192.22595,72,73,0
192.22595,192.32924,75,77,0
192.32924,192.43243,72,74,0
192.43243,192.54092,68,74,0
192.54092,192.639,63,91,0
192.639,192.7371,68,73,0
192.7371,192.8352,72,77,0
192.8352,192.93329,68,74,0
192.93329,193.03139,63,74,0
193.03139,193.1314,60,91,0
193.1314,193.2314,63,73,0
193.2314,193.33142,68,77,0
193.33142,193.43143,63,74,0
193.43143,193.53143,60,74,0
193.53143,195.02377,66,83,0
195.02377,195.4416,72,89,0
195.4416,195.53334,75,85,0
195.53334,196.02277,78,92,0
196.02277,196.45085,84,95,0
196.45085,196.55052,87,84,0
196.55052,197.07774,90,96,0
197.07774,197.59526,90,93,0
197.59526,198.26566,90,105,0
198.26566,198.35185,90,77,0
198.35185,198.43806,87,76,0
198.43806,198.52428,84,75,0
198.52428,198.61047,78,75,0
198.61047,199.279,90,103,0
199.279,199.36447,78,77,0
199.36447,199.44994,75,76,0
199.44994,199.53542,72,75,0
199.53542,199.62088,66,75,0
199.62088,200.29128,78,94,0
200.29128,200.37749,66,72,0
200.37749,200.46368,63,71,0
200.46368,200.5499,60,69,0
200.5499,200.63611,54,69,0
200.63611,200.80324,66,91,0
200.80324,200.88943,66,74,0
200.88943,200.97565,63,70,0
200.97565,201.06186,60,70,0
201.06186,201.14806,54,69,0
201.14806,201.31613,66,89,0
201.31613,201.40259,66,74,0
201.40259,201.48904,63,72,0
201.48904,201.5755,60,72,0
201.5755,201.66196,54,71,0
201.66196,202.15569,66,84,0
203.62843,204.12218,60,58,0
203.62843,204.12218,63,58,0
204.61398,205.10312,75,59,0
204.61398,205.10312,72,59,0
205.59492,206.08867,61,55,0
205.59492,206.08867,65,55,0
206.58047,207.06961,77,58,0
206.58047,207.06961,73,58,0
207.56142,209.52196,65,61,0
207.56142,209.52196,70,61,0
207.56142,209.52196,61,61,0
209.52196,209.84894,68,52,0
209.52196,209.84894,63,52,0
209.52196,209.84894,60,52,0
210.99292,211.39622,63,55,0
210.99292,211.39622,60,55,0
211.39622,211.49522,63,50,0
211.39622,211.49522,60,50,0
211.49522,211.8231,65,55,0
211.49522,211.8231,61,55,0
211.8231,211.98396,63,50,0
211.8231,211.98396,60,50,0
212.30568,212.4696,75,58,0
212.30568,212.4696,72,58,0
212.79482,212.95741,84,56,0
212.79482,212.95741,87,56,0
213.36461,213.45671,63,53,0
213.36461,213.45671,60,53,0
213.45671,213.78458,66,57,0
213.45671,213.78458,63,57,0
213.78458,213.94586,61,52,0
213.78458,213.94586,65,52,0
214.26845,214.43239,77,60,0
214.26845,214.43239,73,60,0
214.75848,214.91727,85,56,0
214.75848,214.91727,89,56,0
215.32938,215.43108,61,52,0
215.32938,215.43108,65,52,0
215.43108,217.39561,70,61,0
215.43108,217.39561,65,61,0
215.43108,217.39561,61,61,0
217.39561,217.72215,68,56,0
217.39561,217.72215,63,56,0
217.39561,217.72215,60,56,0
218.37656,219.3575,69,52,0
218.37656,219.3575,64,52,0
218.37656,219.3575,61,52,0
219.3575,219.68404,63,57,0
219.3575,219.68404,68,57,0
219.3575,219.68404,60,57,0
220.33844,221.31938,76,58,0
220.33844,221.31938,81,58,0
220.33844,221.31938,73,58,0
221.31938,221.6477,72,56,0
221.31938,221.6477,80,56,0
221.31938,221.6477,75,56,0
222.31209,222.64452,68,46,0
222.31209,222.64452,59,46,0
222.31209,222.64452,62,46,0
223.31194,223.64435,67,44,0
223.31194,223.64435,58,44,0
223.31194,223.64435,61,44,0
224.31625,224.65216,66,39,0
224.31625,224.65216,60,39,0
224.31625,224.65216,57,39,0
225.33046,225.67741,56,47,0
225.33046,225.67741,60,47,0
225.33046,225.67741,66,47,0
226.36069,226.52924,75,67,0
226.52924,226.69452,77,61,0
226.69452,226.85982,75,59,0
226.85982,227.02835,73,69,0
227.02835,227.19363,75,66,0
227.19363,227.35893,73,64,0
227.35893,227.53334,72,70,0
227.53334,227.70332,78,66,0
228.38321,228.55034,78,73,0
228.55034,228.71516,80,70,0
228.71516,228.88,78,70,0
228.88,229.04713,77,74,0
229.04713,229.21198,78,71,0
229.21198,229.3768,77,68,0
229.3768,229.54922,75,81,0
229.54922,229.71823,87,72,0
230.39429,230.56142,87,83,0
230.56142,230.72855,89,77,0
230.72855,230.89569,87,73,0
230.89569,231.06282,85,77,0
231.06282,231.22995,87,75,0
231.22995,231.40137,85,73,0
231.40137,231.57135,84,76,0
231.57135,231.73941,85,75,0
231.73941,231.90749,84,72,0
231.90749,232.07555,82,76,0
232.07555,232.2436,84,73,0
232.2436,232.40936,82,69,0
232.40936,232.57782,80,74,0
232.57782,232.74724,82,70,0
232.74724,232.91762,80,67,0
232.91762,233.08896,78,72,0
233.08896,233.26129,80,66,0
233.26129,233.43471,78,63,0
233.43471,233.80725,77,73,0
235.0785,235.54652,53,44,0
235.0785,235.54652,65,55,0
235.54652,235.6676,56,39,0
235.54652,235.6676,68,49,0
235.6676,236.18246,61,49,0
235.6676,236.18246,73,53,0
236.18246,236.6381,65,52,0
236.18246,236.6381,77,57,0
236.6381,236.74309,61,46,0
236.6381,236.74309,73,50,0
236.74309,237.2741,60,49,0
236.74309,237.2741,72,53,0
237.2741,237.73395,75,57,0
237.2741,237.73395,63,52,0
237.73395,237.84682,72,50,0
237.73395,237.84682,60,46,0
237.84682,238.36201,61,49,0
237.84682,238.36201,73,53,0
238.36201,239.4212,68,52,0
238.36201,239.4212,56,52,0
239.4212,239.87907,70,57,0
239.4212,239.87907,58,52,0
239.87907,239.99153,66,53,0
239.99153,240.50534,65,59,0
240.50534,240.9623,68,61,0
240.9623,241.06728,65,55,0
241.06728,241.59828,63,63,0
241.59828,242.06496,66,66,0
242.06496,242.18286,63,59,0
242.18286,242.73402,60,72,0
242.73402,243.8113,65,63,0
243.8113,244.27217,61,56,0
243.8113,244.27217,73,60,0
244.27217,244.3937,65,53,0
244.27217,244.3937,77,58,0
244.3937,244.92477,70,51,0
244.3937,244.92477,82,60,0
244.92477,245.37599,73,57,0
244.92477,245.37599,85,62,0
245.37599,245.48097,82,58,0
245.37599,245.48097,70,53,0
245.48097,246.01196,69,57,0
245.48097,246.01196,81,61,0
246.01196,246.47649,84,65,0
246.01196,246.47649,72,59,0
246.47649,246.61223,81,63,0
246.47649,246.61223,69,58,0
246.61223,247.1433,82,57,0
246.61223,247.1433,70,51,0
247.1433,248.23048,65,52,0
247.1433,248.23048,77,52,0
248.23048,248.68689,78,68,0
248.68689,248.79935,75,63,0
248.23048,248.79935,66,62,0
248.79935,249.31316,73,70,0
249.31316,249.77011,77,67,0
249.77011,249.87509,73,61,0
249.87509,250.40608,72,70,0
250.40608,250.87276,75,71,0
250.87276,250.99066,72,67,0
250.99066,251.54184,70,78,0
251.54184,252.6191,73,73,0
252.6191,253.07233,82,79,0
252.6191,253.07233,70,73,0
253.07233,253.17613,73,69,0
253.07233,253.17613,85,75,0
253.17613,253.7072,90,80,0
253.17613,253.7072,78,71,0
253.7072,254.15842,94,81,0
253.7072,254.15842,82,74,0
254.15842,254.2634,78,69,0
254.15842,254.2634,90,75,0
254.2634,254.79439,89,80,0
254.2634,254.79439,77,74,0
254.79439,255.25235,92,85,0
254.79439,255.25235,80,77,0
255.25235,255.36183,89,82,0
255.25235,255.36183,77,75,0
255.36183,255.8929,90,89,0
255.36183,255.8929,78,80,0
255.8929,257.5234,85,81,0
255.8929,257.5234,73,68,0
257.5234,258.05447,78,80,0
257.5234,258.05447,90,89,0
258.05447,259.675,74,70,0
258.05447,259.675,86,83,0
259.675,260.19977,91,96,0
259.675,260.19977,79,96,0
260.19977,261.81198,86,89,0
260.19977,261.81198,74,74,0
261.81198,262.33524,91,102,0
261.81198,262.33524,79,102,0
262.33524,263.93875,76,80,0
262.33524,263.93875,88,94,0
264.61838,264.7008,85,70,0
264.53598,264.78323,82,71,0
264.78323,264.86563,91,73,0
264.7008,264.86563,88,70,0
264.45355,264.86563,79,75,0
264.86563,264.9591,79,71,0
265.64084,265.72327,85,72,0
265.55844,265.8057,82,72,0
265.8057,265.8881,91,74,0
265.72327,265.8881,88,70,0
265.476,265.8881,79,77,0
265.8881,265.98157,79,72,0
266.6386,266.72104,85,71,0
266.55618,266.80344,82,71,0
266.80344,266.88678,91,76,0
266.72104,266.88678,88,70,0
266.4738,266.88678,79,77,0
266.88678,266.97012,79,71,0
267.6178,267.7018,85,73,0
267.53375,267.78586,82,71,0
267.78586,267.8699,91,76,0
267.7018,267.8699,88,70,0
267.44974,267.8699,79,77,0
267.8699,267.96335,79,71,0
268.28885,268.37015,88,74,0
268.37015,268.4537,91,70,0
268.20755,268.4537,85,71,0
268.12625,268.4537,82,77,0
268.77893,268.86023,91,74,0
268.86023,268.94354,94,70,0
268.69763,268.94354,88,72,0
268.6163,268.94354,85,77,0
269.1881,269.26965,88,73,0
269.26965,269.35117,91,74,0
269.35117,269.43472,94,73,0
269.6793,269.7608,88,73,0
269.7608,269.84235,91,74,0
269.84235,269.92804,94,73,0
270.08932,270.16998,88,77,0
270.16998,270.25064,91,75,0
270.25064,270.41193,94,74,0
270.57108,270.6505,85,77,0
270.6505,270.72986,88,75,0
270.72986,270.88834,91,74,0
271.04642,271.12537,82,77,0
271.12537,271.2042,85,75,0
271.2042,271.3616,88,74,0
271.51868,271.597,79,77,0
271.597,271.67532,82,75,0
271.67532,271.83163,85,74,0
271.9876,272.06555,76,77,0
272.06555,272.14325,79,72,0
272.14325,272.29855,82,74,0
272.45355,272.53125,73,77,0
272.53125,272.60898,76,75,0
272.60898,272.76443,79,74,0
272.91986,272.9976,70,77,0
272.9976,273.0753,73,75,0
273.0753,273.23074,76,74,0
273.38617,273.4639,67,77,0
273.4639,273.54163,70,75,0
273.54163,273.69705,73,74,0
273.8525,273.93024,64,72,0
273.93024,274.00793,67,71,0
274.00793,274.1634,70,70,0
274.31882,274.39655,61,72,0
274.39655,274.47427,64,71,0
274.47427,274.6297,67,70,0
274.78516,274.86285,58,72,0
274.86285,274.94058,61,71,0
274.94058,275.09604,64,70,0
275.25146,275.3292,55,72,0
275.3292,275.40692,58,71,0
275.40692,275.56256,61,70,0
275.7192,275.798,52,72,0
275.798,275.8771,55,71,0
275.8771,276.03625,58,70,0
276.19662,276.2772,49,72,0
276.2772,276.35812,52,71,0
276.35812,276.52094,55,70,0
276.68512,276.76767,46,72,0
276.76767,276.85046,49,71,0
276.85046,277.01715,52,70,0
277.1852,277.2698,43,72,0
277.2698,277.3547,46,71,0
277.3547,277.5249,49,70,0
277.5249,277.6148,43,71,0
277.5249,277.6148,46,71,0
277.6148,277.7047,52,63,0
277.7047,277.79462,43,71,0
277.7047,277.79462,46,71,0
277.79462,277.88452,52,63,0
277.88452,277.97443,43,71,0
277.88452,277.97443,46,71,0
277.97443,278.06433,52,63,0
278.06433,278.15228,43,71,0
278.06433,278.15228,46,71,0
278.15228,278.24026,52,63,0
278.24026,278.32825,43,71,0
278.24026,278.32825,46,71,0
278.32825,278.41623,52,63,0
278.41623,278.5042,46,71,0
278.41623,278.5042,43,71,0
278.5042,278.5922,52,63,0
278.5922,278.68015,43,71,0
278.5922,278.68015,46,71,0
278.68015,278.76813,52,63,0
278.76813,278.8561,46,71,0
278.76813,278.8561,43,71,0
278.8561,278.9441,52,63,0
278.9441,279.03427,43,71,0
278.9441,279.03427,46,71,0
279.03427,279.12445,52,63,0
279.12445,279.21243,43,71,0
279.12445,279.21243,46,71,0
279.21243,279.3004,52,63,0
279.3004,279.38837,43,71,0
279.3004,279.38837,46,71,0
279.38837,279.47635,52,63,0
279.47635,279.56433,46,71,0
279.47635,279.56433,43,71,0
279.56433,279.6523,52,63,0
279.6523,279.74222,46,71,0
279.6523,279.74222,43,71,0
279.74222,279.83212,52,63,0
279.83212,279.922,43,71,0
279.83212,279.922,46,71,0
279.922,280.0119,52,63,0
280.0119,280.1018,46,71,0
280.0119,280.1018,43,71,0
280.1018,280.1917,52,63,0
280.1917,280.2797,46,71,0
280.1917,280.2797,43,71,0
280.2797,280.36768,52,63,0
280.36768,280.45566,43,71,0
280.36768,280.45566,46,71,0
280.45566,280.5436,52,63,0
280.5436,280.6316,46,71,0
280.5436,280.6316,43,71,0
280.6316,280.71957,52,63,0
280.71957,280.80756,46,71,0
280.71957,280.80756,43,71,0
280.80756,280.89554,52,63,0
280.89554,280.9835,46,71,0
280.89554,280.9835,43,71,0
280.9835,281.07147,52,63,0
281.07147,281.16165,46,71,0
281.07147,281.16165,43,71,0
281.16165,281.25183,52,63,0
281.25183,281.3398,43,71,0
281.25183,281.3398,46,71,0
281.3398,281.4278,52,63,0
281.4278,281.51578,46,71,0
281.4278,281.51578,43,71,0
281.51578,281.60376,52,63,0
281.60376,281.6917,43,71,0
281.60376,281.6917,46,71,0
281.6917,281.7797,52,63,0
281.7797,281.8696,43,71,0
281.7797,281.8696,46,71,0
281.8696,281.9595,52,63,0
281.9595,282.0494,46,71,0
281.9595,282.0494,43,71,0
282.0494,282.1393,52,63,0
282.1393,282.22922,46,71,0
282.1393,282.22922,43,71,0
282.22922,282.31912,52,63,0
282.31912,282.40707,43,71,0
282.31912,282.40707,46,71,0
282.40707,282.49506,52,63,0
282.49506,282.58304,46,71,0
282.49506,282.58304,43,71,0
282.58304,282.67102,52,63,0
282.67102,282.759,43,71,0
282.67102,282.759,46,71,0
282.759,282.84695,52,63,0
282.84695,282.93494,43,71,0
282.84695,282.93494,46,71,0
282.93494,283.02292,52,63,0
283.02292,283.1109,46,71,0
283.02292,283.1109,43,71,0
283.1109,283.19888,52,63,0
283.19888,283.28906,46,71,0
283.19888,283.28906,43,71,0
283.28906,283.37924,52,63,0
283.37924,283.46722,43,71,0
283.37924,283.46722,46,71,0
283.46722,283.5552,52,63,0
283.5552,283.64316,46,71,0
283.5552,283.64316,43,71,0
283.64316,283.73114,52,63,0
283.73114,283.81912,46,71,0
283.73114,283.81912,43,71,0
283.81912,283.9071,52,63,0
283.9071,283.997,46,71,0
283.9071,283.997,43,71,0
283.997,284.0869,52,63,0
284.0869,284.1768,46,71,0
284.0869,284.1768,43,71,0
284.1768,284.2667,52,63,0
284.2667,284.3566,46,71,0
284.2667,284.3566,43,71,0
284.3566,284.4465,52,63,0
284.4465,284.5345,43,71,0
284.4465,284.5345,46,71,0
284.5345,284.62247,52,63,0
284.62247,284.71042,46,71,0
284.62247,284.71042,43,71,0
284.71042,284.7984,52,63,0
284.7984,284.88638,43,71,0
284.7984,284.88638,46,71,0
284.88638,284.97437,52,63,0
284.97437,285.06235,43,71,0
284.97437,285.06235,46,71,0
285.06235,285.15033,52,63,0
285.15033,285.23828,46,71,0
285.15033,285.23828,43,71,0
285.23828,285.32626,52,63,0
285.32626,285.41644,46,71,0
285.32626,285.41644,43,71,0
285.41644,285.50662,52,63,0
285.50662,285.6032,46,71,0
285.50662,285.6032,43,71,0
285.6032,285.69977,52,63,0
285.69977,285.79633,43,71,0
285.69977,285.79633,46,71,0
285.79633,285.8929,52,63,0
285.8929,285.99472,46,71,0
285.8929,285.99472,43,71,0
285.99472,286.09653,52,63,0
286.09653,286.4635,46,65,0
286.09653,286.4635,52,65,0
286.09653,286.4635,43,65,0
289.94974,290.40845,60,35,0
289.94974,290.40845,48,27,0
290.40845,290.50018,44,25,0
290.40845,290.50018,56,31,0
290.50018,292.17294,53,28,0
290.50018,292.17294,41,22,0
292.17294,292.65347,44,27,0
292.17294,292.65347,56,35,0
292.65347,292.76016,60,30,0
292.65347,292.76016,48,24,0
292.76016,293.28494,53,27,0
292.76016,293.28494,65,35,0
293.28494,293.74994,56,28,0
293.28494,293.74994,68,36,0
293.74994,293.8508,60,25,0
293.74994,293.8508,72,31,0
293.8508,294.40988,65,31,0
293.8508,294.40988,77,40,0
294.41394,294.9667,53,26,0
294.41394,294.9667,65,33,0
294.9667,295.88797,72,35,0
295.88797,296.0854,74,33,0
294.9667,296.0854,64,26,0
294.9667,296.0854,67,26,0
296.0854,296.14127,74,33,0
296.14127,296.19696,76,29,0
296.19696,296.25253,74,33,0
296.25253,296.30783,76,29,0
296.30783,296.363,74,33,0
296.363,296.41803,76,30,0
296.41803,296.47284,74,33,0
296.47284,296.52786,76,29,0
296.52786,296.58304,74,33,0
296.58304,296.6385,76,30,0
296.6385,296.69412,74,28,0
296.69412,296.75186,76,33,0
296.75186,296.84683,74,28,0
296.84683,296.9515,72,30,0
296.9515,297.0562,76,35,0
297.0562,297.1709,74,31,0
296.0854,297.1709,71,26,0
296.0854,297.1709,65,26,0
297.1709,297.5447,67,22,0
297.1709,297.5447,64,19,0
297.1709,297.5447,72,35,0
298.8927,299.3876,49,27,0
298.8927,299.3876,61,35,0
299.3876,299.52274,46,25,0
299.3876,299.52274,58,31,0
299.52274,301.20007,42,22,0
299.52274,301.20007,54,28,0
301.20007,301.68582,58,35,0
301.20007,301.68582,46,27,0
301.68582,301.79254,49,24,0
301.68582,301.79254,61,30,0
301.79254,302.31732,66,35,0
301.79254,302.31732,54,27,0
302.31732,302.77988,58,28,0
302.31732,302.77988,70,36,0
302.77988,302.88077,73,31,0
302.77988,302.88077,61,25,0
302.88077,303.4439,66,31,0
302.88077,303.4439,78,40,0
303.4439,303.99667,66,33,0
303.4439,303.99667,54,26,0
303.99667,304.91794,73,35,0
304.91794,305.11536,75,33,0
303.99667,305.11536,68,26,0
303.99667,305.11536,65,26,0
305.11536,305.17154,75,28,0
305.17154,305.22754,77,25,0
305.22754,305.28333,75,28,0
305.28333,305.33896,77,25,0
305.33896,305.39444,75,28,0
305.39444,305.4497,77,25,0
305.4497,305.50473,75,29,0
305.50473,305.55972,77,25,0
305.55972,305.61505,75,29,0
305.61505,305.6707,77,26,0
305.6707,305.72665,75,29,0
305.72665,305.78458,77,27,0
305.78458,305.87958,75,24,0
305.87958,305.98425,73,30,0
305.98425,306.08893,77,35,0
306.08893,306.20364,75,31,0
305.11536,306.20364,72,26,0
305.11536,306.20364,66,26,0
306.20364,306.57367,68,22,0
306.20364,306.57367,65,19,0
306.20364,306.57367,73,35,0
308.4238,309.34366,72,35,0
309.34366,309.4917,74,38,0
309.4917,309.54108,72,38,0
309.54108,309.59726,74,37,0
309.59726,309.65326,76,32,0
309.65326,309.70914,74,37,0
309.70914,309.76477,76,33,0
309.76477,309.82025,74,37,0
309.82025,309.87558,76,33,0
309.87558,309.93066,74,37,0
309.93066,309.98593,76,33,0
309.98593,310.04132,74,37,0
310.04132,310.09686,76,34,0
310.09686,310.1526,74,31,0
310.1526,310.20847,76,37,0
310.20847,310.29263,74,31,0
310.29263,310.39734,72,34,0
310.39734,310.502,76,40,0
310.502,310.6167,74,35,0
310.6167,310.99527,72,35,0
312.88577,313.80563,76,40,0
313.80563,313.9537,77,38,0
313.9537,314.00305,76,38,0
314.00305,314.05923,77,37,0
314.05923,314.11526,79,32,0
314.11526,314.1711,77,37,0
314.1711,314.22684,79,33,0
314.22684,314.28238,77,37,0
314.28238,314.3377,79,33,0
314.3377,314.39304,77,37,0
314.39304,314.44852,79,33,0
314.44852,314.50415,77,37,0
314.50415,314.55994,79,34,0
314.55994,314.61588,77,31,0
314.61588,314.67197,79,37,0
314.67197,314.7565,77,31,0
314.7565,314.86118,76,34,0
314.86118,314.96588,79,40,0
314.96588,315.08057,77,35,0
315.08057,315.44864,76,35,0
316.77924,316.97095,79,35,0
316.77924,316.97095,76,35,0
316.97095,317.17026,79,31,0
316.97095,317.17026,76,31,0
317.17026,317.37646,76,35,0
317.17026,317.37646,79,35,0
317.37646,317.74683,79,35,0
317.37646,317.74683,82,35,0
319.09155,319.28702,82,66,0
319.09155,319.28702,79,66,0
319.28702,319.48767,82,62,0
319.28702,319.48767,79,62,0
319.48767,319.69315,79,68,0
319.48767,319.69315,82,68,0
319.69315,319.77603,88,71,0
319.77603,319.85883,82,64,0
319.85883,319.94147,91,72,0
319.94147,320.0239,88,64,0
320.0239,320.10623,94,73,0
320.10623,320.18842,91,66,0
320.18842,320.2704,88,74,0
320.2704,320.35226,91,67,0
320.35226,320.43402,82,74,0
320.43402,320.51553,88,68,0
320.51553,320.597,79,75,0
320.597,320.67828,82,68,0
320.67828,320.75937,76,75,0
320.75937,320.84045,79,69,0
320.84045,320.92154,70,76,0
320.92154,321.00262,76,67,0
321.00262,321.0837,67,76,0
321.0837,321.16476,70,70,0
321.16476,321.24585,64,77,0
321.24585,321.32693,67,68,0
321.32693,321.40802,58,78,0
321.40802,321.4891,64,71,0
326.71417,327.27625,60,35,0
327.27625,327.3718,57,31,0
327.3718,327.5938,53,103,0
327.59567,327.91925,65,101,0
327.59567,327.91925,57,75,0
327.59567,327.91925,53,75,0
327.59567,327.91925,60,85,0
327.92264,328.24622,57,72,0
327.92264,328.24622,60,72,0
327.92264,328.24622,65,81,0
327.92264,328.24622,69,96,0
328.2496,328.57318,69,79,0
328.2496,328.57318,60,71,0
328.2496,328.57318,65,71,0
328.2496,328.57318,72,96,0
328.5766,328.90015,65,72,0
328.5766,328.90015,69,72,0
328.5766,328.90015,77,95,0
328.5766,328.90015,72,80,0
328.90356,329.22714,81,103,0
328.90356,329.22714,77,86,0
328.90356,329.22714,69,76,0
328.90356,329.22714,72,76,0
329.23053,329.40762,81,78,0
329.23053,329.40762,77,78,0
329.23053,329.40762,84,94,0
329.23053,329.40762,72,71,0
329.40912,331.01627,77,76,0
329.40912,331.01627,81,86,0
329.40912,331.01627,84,86,0
329.40912,331.01627,89,103,0
331.01627,331.46033,57,41,0
331.46033,331.55865,60,35,0
331.55865,332.04214,65,40,0
332.04214,332.4705,69,43,0
332.4705,332.56345,72,37,0
332.56345,333.07852,77,40,0
333.08224,333.6081,65,40,0
333.6081,333.8301,60,103,0
333.83197,334.15555,64,101,0
333.83197,334.15555,60,85,0
334.15894,334.4825,64,81,0
334.15894,334.4825,67,96,0
334.15894,334.4825,60,72,0
334.48593,334.80948,64,72,0
334.48593,334.80948,72,98,0
334.48593,334.80948,67,81,0
334.8129,335.13647,72,80,0
334.8129,335.13647,67,72,0
334.8129,335.13647,76,95,0
335.13986,335.46344,76,86,0
335.13986,335.46344,72,76,0
335.13986,335.46344,79,103,0
335.46686,335.76736,79,78,0
335.46686,335.76736,76,78,0
335.46686,335.76736,84,94,0
335.76987,336.61734,72,41,0
336.61734,336.79922,74,45,0
336.79922,336.85617,74,38,0
336.85617,336.94125,76,35,0
336.91296,336.96954,74,38,0
336.96954,337.02594,76,36,0
337.02594,337.08215,74,39,0
337.08215,337.13815,76,36,0
337.13815,337.19397,74,38,0
337.19397,337.24945,76,36,0
337.24945,337.3056,74,39,0
337.3056,337.36234,76,37,0
337.36234,337.41962,74,35,0
337.41962,337.4775,76,39,0
337.4775,337.565,74,35,0
337.565,337.66147,72,36,0
337.66147,337.7579,76,41,0
337.7579,337.86356,74,38,0
337.86356,338.08557,60,103,0
338.08746,338.411,60,85,0
338.08746,338.411,64,101,0
338.41443,338.738,60,72,0
338.41443,338.738,67,96,0
338.41443,338.738,64,81,0
338.7414,339.06497,67,81,0
338.7414,339.06497,64,72,0
338.7414,339.06497,72,98,0
339.0684,339.39194,72,80,0
339.0684,339.39194,67,72,0
339.0684,339.39194,76,95,0
339.39536,339.71893,76,86,0
339.39536,339.71893,72,76,0
339.39536,339.71893,79,103,0
339.72232,340.02133,79,78,0
339.72232,340.02133,84,94,0
339.72232,340.02133,76,78,0
340.02383,340.87128,72,41,0
340.87128,341.05316,74,45,0
341.05316,341.11014,74,44,0
341.11014,341.1669,76,39,0
341.1669,341.2235,74,42,0
341.2235,341.27988,76,37,0
341.27988,341.3361,74,41,0
341.3361,341.39212,76,36,0
341.39212,341.4479,74,40,0
341.4479,341.5034,76,37,0
341.5034,341.55957,74,41,0
341.55957,341.64487,76,38,0
341.64487,341.73148,74,37,0
341.73148,341.81897,76,42,0
341.81897,341.91544,74,41,0
341.91544,342.01187,72,48,0
342.01187,342.11752,74,44,0
342.11752,342.33954,58,81,0
342.11752,342.33954,64,103,0
342.11752,342.33954,55,81,0
342.3414,342.66498,67,101,0
342.3414,342.66498,58,85,0
342.3414,342.66498,64,85,0
342.6684,342.99194,64,72,0
342.6684,342.99194,70,96,0
342.6684,342.99194,67,81,0
342.99536,343.31894,67,75,0
342.99536,343.31894,76,101,0
342.99536,343.31894,70,85,0
343.32233,343.6459,76,80,0
343.32233,343.6459,79,95,0
343.32233,343.6459,70,72,0
343.64932,343.97287,79,86,0
343.64932,343.97287,82,103,0
343.64932,343.97287,76,76,0
343.9763,344.27527,82,78,0
343.9763,344.27527,88,94,0
343.9763,344.27527,79,78,0
344.2778,345.12524,76,48,0
345.12524,345.30713,77,52,0
345.30713,345.3641,77,46,0
345.3641,345.42087,79,41,0
345.42087,345.47745,77,46,0
345.47745,345.53384,79,41,0
345.53384,345.59006,77,46,0
345.59006,345.6461,79,41,0
345.6461,345.70187,77,46,0
345.70187,345.75735,79,42,0
345.75735,345.8135,77,46,0
345.8135,345.89883,79,43,0
345.89883,345.98544,77,40,0
345.98544,346.07294,79,46,0
346.07294,346.16937,77,42,0
346.16937,346.26584,76,48,0
346.26584,346.3715,77,44,0
346.3715,346.5935,64,81,0
346.3715,346.5935,67,103,0
346.59537,346.91895,73,85,0
346.59537,346.91895,76,101,0
346.92233,347.2459,79,96,0
346.92233,347.2459,76,81,0
347.24933,347.57288,79,85,0
347.24933,347.57288,82,101,0
347.5763,347.89987,85,95,0
347.5763,347.89987,82,80,0
347.90326,348.22684,88,103,0
347.90326,348.22684,85,86,0
348.23026,348.52924,91,94,0
348.23026,348.52924,88,78,0
348.53174,349.3792,79,79,0
349.3792,349.56543,80,87,0
348.53174,349.56543,76,59,0
349.56543,349.65475,80,76,0
349.65475,349.7405,82,68,0
349.7405,349.8255,80,76,0
349.8255,349.9098,82,68,0
349.9098,349.99307,80,76,0
349.99307,350.07712,82,68,0
350.07712,350.1624,80,76,0
350.1624,350.24902,82,67,0
350.24902,350.33652,80,67,0
350.33652,350.43298,79,70,0
350.43298,350.52942,82,79,0
350.52942,350.63507,80,73,0
349.56543,350.63507,77,64,0
350.63507,351.12424,79,58,0
350.63507,351.12424,76,58,0
352.59695,353.08435,80,56,0
352.59695,353.08435,77,56,0
354.5571,356.51764,85,75,0
354.5571,356.51764,77,75,0
354.5571,356.51764,80,75,0
356.51764,356.84464,84,52,0
356.51764,356.84464,76,52,0
356.51764,356.84464,79,52,0
357.98862,358.3919,79,56,0
357.98862,358.3919,76,56,0
358.3919,358.4909,76,52,0
358.3919,358.4909,79,52,0
358.4909,358.8188,77,58,0
358.4909,358.8188,80,58,0
358.8188,358.97964,76,52,0
358.8188,358.97964,79,52,0
359.30136,359.4653,64,50,0
359.30136,359.4653,67,50,0
359.7905,359.9531,52,49,0
359.7905,359.9531,55,49,0
360.3603,360.4524,76,58,0
360.3603,360.4524,79,58,0
360.4524,360.78027,79,61,0
360.4524,360.78027,82,61,0
360.78027,360.94156,80,52,0
360.78027,360.94156,77,52,0
361.26413,361.42807,68,49,0
361.26413,361.42807,65,49,0
361.75415,361.91293,56,47,0
361.75415,361.91293,53,47,0
362.32507,362.42676,80,52,0
362.32507,362.42676,77,52,0
362.42676,364.3913,85,75,0
362.42676,364.3913,77,75,0
362.42676,364.3913,80,75,0
364.3913,364.71783,84,61,0
364.3913,364.71783,76,61,0
364.3913,364.71783,79,61,0
365.37225,366.35318,72,52,0
365.37225,366.35318,63,52,0
365.37225,366.35318,66,52,0
366.35318,366.68378,62,52,0
366.35318,366.68378,71,52,0
366.35318,366.68378,65,52,0
367.34818,367.6806,65,46,0
367.34818,367.6806,70,46,0
367.34818,367.6806,61,46,0
368.34802,368.85126,65,41,0
368.34802,368.85126,68,41,0
368.34802,368.85126,60,41,0
374.10855,374.57654,57,44,0
374.57654,374.69763,60,40,0
374.69763,375.2125,65,41,0
374.69763,375.2125,53,38,0
375.2125,375.66812,69,44,0
375.2125,375.66812,57,40,0
375.66812,375.7731,53,36,0
375.66812,375.7731,65,39,0
375.7731,376.3041,52,38,0
375.7731,376.3041,64,41,0
376.3041,376.76398,55,40,0
376.3041,376.76398,67,44,0
376.76398,376.87683,52,36,0
376.76398,376.87683,64,39,0
376.87683,377.39203,65,41,0
376.87683,377.39203,53,38,0
377.39203,378.45123,60,40,0
378.45123,378.90912,62,44,0
378.90912,379.02155,58,40,0
379.02155,379.53537,57,44,0
379.53537,379.9923,60,44,0
379.9923,380.0973,57,39,0
380.0973,380.6283,55,44,0
380.6283,381.09497,60,44,0
381.09497,381.2129,58,39,0
381.2129,381.76404,57,42,0
381.76404,382.8413,60,42,0
382.8413,383.3022,69,55,0
383.3022,383.42374,72,53,0
383.42374,383.9548,77,56,0
383.42374,383.9548,65,51,0
383.9548,384.406,69,57,0
383.9548,384.406,81,62,0
384.406,384.511,65,53,0
384.406,384.511,77,58,0
384.511,385.042,64,57,0
384.511,385.042,76,61,0
385.042,385.5065,67,62,0
385.042,385.5065,79,68,0
385.5065,385.64227,64,58,0
385.5065,385.64227,76,63,0
385.64227,386.18088,65,51,0
385.64227,386.18088,77,57,0
386.18088,387.74347,72,52,0
386.18088,387.74347,60,48,0
387.74347,388.2873,73,85,0
387.74347,388.2873,61,72,0
388.2873,389.76672,70,81,0
388.2873,389.76672,58,69,0
389.76672,391.2709,68,58,0
391.2709,391.61673,67,51,0
391.61673,391.81326,65,49,0
391.81326,391.90295,67,46,0
391.90295,391.99185,68,39,0
391.99185,392.07907,67,46,0
392.07907,392.1673,68,40,0
392.1673,392.2552,67,47,0
392.2552,392.3414,68,40,0
392.3414,392.42725,67,48,0
392.42725,392.51215,68,41,0
392.51215,392.5974,67,49,0
392.5974,392.68167,68,42,0
392.68167,392.76666,67,50,0
392.76666,392.85162,68,42,0
392.85162,392.93665,67,51,0
392.93665,393.022,68,44,0
393.022,393.10742,67,51,0
393.10742,393.1928,68,45,0
393.1928,393.27875,67,52,0
393.27875,393.36398,68,46,0
393.36398,393.4505,67,53,0
393.4505,393.53647,68,48,0
393.53647,393.6226,67,55,0
393.6226,393.7093,68,48,0
393.7093,393.7968,67,56,0
393.7968,393.8848,68,48,0
393.8848,393.98337,73,46,0
393.98337,394.0699,72,39,0
394.0699,394.15604,73,46,0
394.15604,394.24222,72,40,0
394.24222,394.32733,73,48,0
394.32733,394.41223,72,41,0
394.41223,394.49725,73,50,0
394.49725,394.58148,72,44,0
394.58148,394.66562,73,51,0
394.66562,394.74997,72,45,0
394.74997,394.83426,73,53,0
394.83426,394.91873,72,47,0
394.91873,395.00314,73,56,0
395.00314,395.0881,72,48,0
395.0881,395.1729,73,56,0
395.1729,395.2578,72,47,0
395.2578,395.34308,73,56,0
395.34308,395.42828,72,48,0
395.42828,395.5139,73,56,0
395.5139,395.59988,72,49,0
395.59988,395.68558,73,56,0
395.68558,395.77234,72,49,0
395.77234,395.8593,71,56,0
395.8593,395.94678,72,48,0
395.94678,396.045,85,49,0
396.045,396.13113,84,41,0
396.13113,396.21588,85,49,0
396.21588,396.29984,84,43,0
396.29984,396.38275,85,51,0
396.38275,396.4648,84,45,0
396.4648,396.5461,85,54,0
396.5461,396.6277,84,45,0
396.6277,396.70877,85,55,0
396.70877,396.78973,84,46,0
396.78973,396.87076,85,56,0
396.87076,396.9519,84,49,0
396.9519,397.03372,85,60,0
397.03372,397.11493,84,49,0
397.11493,397.19604,85,58,0
397.19604,397.2781,84,48,0
397.2781,397.36093,85,55,0
397.36093,397.4451,84,45,0
397.4451,397.5295,85,54,0
397.5295,397.61478,84,45,0
397.61478,397.7008,85,52,0
397.7008,397.78696,84,44,0
397.78696,397.87738,83,50,0
397.87738,397.97202,84,40,0
397.97202,398.15274,85,47,0
398.15274,398.33347,84,47,0
398.33347,398.5142,82,45,0
398.5142,398.69492,80,42,0
398.69492,398.87564,79,43,0
398.87564,399.05637,78,42,0
399.05637,399.23706,77,42,0
399.23706,399.4178,76,42,0
399.4178,399.5985,75,42,0
399.5985,399.77924,73,42,0
399.77924,399.95996,72,41,0
399.95996,400.14066,70,41,0
400.14066,400.31595,68,41,0
400.31595,400.49814,67,39,0
400.49814,400.68182,66,39,0
400.68182,400.867,65,38,0
400.867,401.05334,64,37,0
401.05334,401.2397,63,36,0
401.2397,401.426,61,36,0
401.426,401.61234,60,36,0
401.61234,401.79868,58,35,0
406.98776,407.0791,53,83,0
407.0791,407.1704,48,66,0
407.1704,407.26175,44,66,0
407.26175,407.3531,48,66,0
407.3531,407.4502,53,72,0
407.4502,407.54733,48,64,0
407.54733,407.6388,56,84,0
407.6388,407.73026,48,66,0
407.73026,407.82172,55,83,0
407.82172,407.91318,48,66,0
407.91318,408.00674,53,81,0
408.00674,408.10028,48,66,0
408.10028,408.19055,53,83,0
408.19055,408.2808,48,63,0
408.2808,408.37106,44,63,0
408.37106,408.4613,48,63,0
408.4613,408.5571,53,66,0
408.5571,408.6529,48,62,0
408.6529,408.74435,56,83,0
408.74435,408.83582,48,63,0
408.83582,408.92728,55,80,0
408.92728,409.01874,48,66,0
409.01874,409.1162,53,80,0
409.1162,409.21365,48,64,0
409.21365,409.30392,61,83,0
409.30392,409.39417,56,66,0
409.39417,409.4844,53,66,0
409.4844,409.57468,56,66,0
409.57468,409.67178,61,77,0
409.67178,409.76892,56,64,0
409.76892,409.8601,65,84,0
409.8601,409.9513,56,66,0
409.9513,410.04248,63,83,0
410.04248,410.13367,56,66,0
410.13367,410.22723,61,81,0
410.22723,410.32077,56,66,0
410.32077,410.41104,61,83,0
410.41104,410.50128,56,63,0
410.50128,410.59152,53,63,0
410.59152,410.6818,56,63,0
410.6818,410.7776,61,75,0
410.7776,410.87338,56,62,0
410.87338,410.96484,65,83,0
410.96484,411.0563,56,63,0
411.0563,411.14777,63,80,0
411.14777,411.23923,56,66,0
411.23923,411.33405,61,80,0
411.33405,411.42886,56,64,0
411.42886,411.51822,70,93,0
411.51822,411.60812,73,74,0
411.60812,411.6978,70,76,0
411.6978,411.78876,73,67,0
411.78876,411.87833,70,72,0
411.87833,411.96802,73,67,0
411.96802,412.0578,70,72,0
412.0578,412.1478,73,67,0
412.1478,412.23788,70,72,0
412.23788,412.32755,73,67,0
412.32755,412.41812,70,72,0
412.41812,412.50827,73,67,0
412.50827,412.59814,70,76,0
412.59814,412.68826,73,67,0
412.68826,412.77737,70,76,0
412.77737,412.8678,73,67,0
412.8678,412.95724,70,76,0
412.95724,413.04724,73,67,0
413.04724,413.13855,70,95,0
413.13855,413.2299,73,78,0
413.2299,413.32123,67,89,0
413.32123,413.41257,70,78,0
413.41257,413.5059,64,84,0
413.5059,413.59924,67,77,0
413.59924,413.68945,61,82,0
413.68945,413.7797,64,70,0
413.7797,413.8699,58,81,0
413.8699,413.9601,61,71,0
413.9601,414.05032,55,82,0
414.05032,414.14053,58,68,0
414.14053,414.23074,53,81,0
414.23074,414.32095,55,70,0
414.32095,414.4112,58,80,0
414.4112,414.5014,55,70,0
414.5014,414.59842,53,80,0
414.59842,414.69543,55,69,0
414.78564,414.87585,53,70,0
414.87585,414.96606,58,80,0
414.96606,415.0563,55,69,0
415.0563,415.1465,53,77,0
415.1465,415.23672,58,70,0
415.32693,415.41714,52,69,0
415.41714,415.50735,58,80,0
415.50735,415.5976,55,69,0
415.5976,415.6878,52,78,0
415.6878,415.778,58,69,0
415.778,415.86935,65,83,0
415.86935,415.96066,60,66,0
415.96066,416.052,56,66,0
416.052,416.14334,60,66,0
416.14334,416.24045,65,80,0
416.24045,416.3376,60,64,0
416.3376,416.42877,68,84,0
416.42877,416.51996,60,66,0
416.51996,416.61115,67,83,0
416.61115,416.70233,60,66,0
416.70233,416.79587,65,81,0
416.79587,416.88943,60,66,0
416.88943,416.97968,65,83,0
416.97968,417.06995,60,63,0
417.06995,417.1602,56,63,0
417.1602,417.25046,60,63,0
417.25046,417.34625,65,80,0
417.34625,417.44202,60,62,0
417.44202,417.53348,68,83,0
417.53348,417.62497,60,63,0
417.62497,417.71643,67,80,0
417.71643,417.8079,60,66,0
417.8079,417.90533,65,80,0
417.90533,418.0028,60,64,0
418.0028,418.09305,73,83,0
418.09305,418.18332,68,66,0
418.18332,418.27356,65,66,0
418.27356,418.3638,68,66,0
418.3638,418.46094,73,80,0
418.46094,418.55807,68,64,0
418.55807,418.64954,77,84,0
418.64954,418.741,68,66,0
418.741,418.83246,75,83,0
418.83246,418.92392,68,66,0
418.92392,419.0175,73,81,0
419.0175,419.11102,68,66,0
419.11102,419.2013,73,83,0
419.2013,419.29153,68,63,0
419.29153,419.38177,65,63,0
419.38177,419.47205,68,63,0
419.47205,419.56784,73,80,0
419.56784,419.66364,68,62,0
419.66364,419.75482,77,83,0
419.75482,419.846,68,63,0
419.846,419.9372,75,80,0
419.9372,420.02838,68,66,0
420.02838,420.1232,73,80,0
420.1232,420.21802,68,64,0
420.21802,420.30737,82,93,0
420.30737,420.39728,85,75,0
420.39728,420.48694,82,80,0
420.48694,420.5779,85,69,0
420.5779,420.66748,82,77,0
420.66748,420.75714,85,69,0
420.75714,420.84695,82,78,0
420.84695,420.93695,85,69,0
420.93695,421.027,82,74,0
421.027,421.1167,85,69,0
421.1167,421.20728,82,74,0
421.20728,421.2974,85,69,0
421.2974,421.3873,82,74,0
421.3873,421.47742,85,69,0
421.47742,421.5665,82,74,0
421.5665,421.65695,85,69,0
421.65695,421.7464,82,74,0
421.7464,421.83636,85,69,0
421.83636,421.9277,82,75,0
421.9277,422.01904,85,69,0
422.01904,422.11035,82,77,0
422.11035,422.2017,85,69,0
422.2017,422.29504,82,77,0
422.29504,422.3884,85,69,0
422.3884,422.4786,82,82,0
422.4786,422.56882,85,70,0
422.56882,422.65903,79,81,0
422.65903,422.74924,82,71,0
422.74924,422.83948,77,82,0
422.83948,422.9297,79,68,0
422.9297,423.0199,77,81,0
423.0199,423.1101,79,70,0
423.1101,423.20032,82,80,0
423.20032,423.29053,79,70,0
423.29053,423.38754,77,80,0
423.38754,423.4846,79,69,0
423.5748,423.665,77,72,0
423.665,423.75522,82,82,0
423.75522,423.84543,79,70,0
423.84543,423.93564,77,77,0
423.93564,424.02585,82,69,0
424.1161,424.2063,76,67,0
424.2063,424.2965,82,75,0
424.2965,424.38672,79,64,0
424.38672,424.4798,76,72,0
424.4798,424.57288,82,62,0
424.6631,424.75333,73,72,0
424.75333,424.84354,82,82,0
424.84354,424.93375,79,70,0
424.93375,425.02396,73,77,0
425.02396,425.11417,82,69,0
425.20438,425.2946,72,67,0
425.2946,425.38483,82,75,0
425.38483,425.47504,79,64,0
425.47504,425.5678,72,72,0
425.5678,425.66058,82,62,0
425.7508,425.841,77,72,0
425.841,425.9312,82,82,0
425.9312,426.02145,79,70,0
426.02145,426.11166,77,77,0
426.11166,426.20187,82,69,0
426.29208,426.3823,76,67,0
426.3823,426.4725,82,75,0
426.4725,426.56274,79,64,0
426.56274,426.65295,76,72,0
426.65295,426.74316,82,62,0
427.10135,427.19028,83,83,0
427.19028,427.27893,86,79,0
427.27893,427.36743,89,87,0
427.36743,427.45563,86,79,0
427.45563,427.54358,83,86,0
427.54358,427.63135,92,83,0
427.63135,427.71884,91,84,0
427.71884,427.80606,89,79,0
427.80606,427.8932,88,79,0
427.8932,427.98035,91,74,0
427.98035,428.06747,89,79,0
428.06747,428.1546,88,72,0
428.1546,428.242,85,73,0
428.242,428.3294,84,72,0
428.3294,428.417,82,78,0
428.417,428.50467,85,73,0
428.50467,428.59253,84,75,0
428.59253,428.68045,82,72,0
428.68045,428.7685,80,71,0
428.7685,428.87918,79,70,0
428.972,429.06458,77,39,0
429.06458,429.15176,80,41,0
429.15176,429.23898,84,43,0
429.23898,429.3262,89,45,0
429.3262,429.4134,77,41,0
429.67865,429.76587,89,45,0
429.76587,429.85306,77,41,0
429.85306,429.94028,89,45,0
430.2053,430.29224,89,44,0
430.29224,430.37918,77,41,0
430.37918,430.46616,89,44,0
430.7193,430.80627,88,44,0
430.80627,430.89322,76,41,0
430.89322,430.98016,88,45,0
431.07297,431.16556,77,39,0
431.16556,431.25278,80,41,0
431.25278,431.33997,84,43,0
431.33997,431.4272,89,45,0
431.4272,431.5144,77,41,0
431.77963,431.86685,77,45,0
431.86685,431.95407,65,41,0
431.95407,432.04126,77,45,0
432.30627,432.39322,77,44,0
432.39322,432.4802,65,41,0
432.4802,432.56714,77,44,0
432.8203,432.90726,76,44,0
432.90726,432.9942,64,41,0
432.9942,433.08118,76,45,0
433.17395,433.26654,77,39,0
433.26654,433.35376,80,41,0
433.35376,433.44095,84,43,0
433.44095,433.52817,89,45,0
433.52817,433.6154,77,41,0
433.88065,433.96783,89,45,0
433.96783,434.05505,77,41,0
434.05505,434.14227,89,45,0
434.40726,434.4942,89,44,0
434.4942,434.58118,77,41,0
434.58118,434.66812,89,44,0
434.9213,435.00824,88,44,0
435.00824,435.1017,76,41,0
435.1017,435.19516,88,45,0
435.19516,435.2828,89,44,0
435.2828,435.37094,84,41,0
435.37094,435.45935,80,40,0
435.45935,435.54803,84,36,0
435.54803,435.63696,89,39,0
435.63696,435.72617,84,36,0
435.72617,435.8156,80,42,0
435.8156,435.90536,84,38,0
435.90536,435.99545,89,38,0
435.99545,436.08554,84,34,0
436.08554,436.18454,80,37,0
436.18454,436.28436,84,33,0
436.28436,436.38525,89,39,0
436.38525,436.487,84,36,0
436.487,436.5897,80,36,0
436.5897,436.69324,84,32,0
436.69324,436.7978,89,35,0
436.7978,436.90323,84,31,0
436.90323,437.0096,89,36,0
437.0096,437.117,84,34,0
437.117,437.22537,89,34,0
437.22537,437.3348,84,30,0
437.3348,437.44522,89,33,0
437.44522,437.555,84,30,0
437.555,437.656,89,38,0
437.656,437.7561,84,30,0
437.7561,437.8554,80,37,0
437.8554,437.95383,84,30,0
437.95383,438.05142,89,33,0
438.05142,438.1482,84,30,0
438.1482,438.24435,80,36,0
438.24435,438.3405,84,30,0
438.3405,438.43668,89,35,0
438.43668,438.5328,84,30,0
438.5328,438.62897,80,31,0
438.62897,438.72513,84,30,0
438.72513,438.82043,89,38,0
438.82043,438.91574,84,30,0
438.91574,439.01105,80,33,0
439.01105,439.10635,84,29,0
439.10635,439.20166,89,33,0
439.20166,439.29697,84,28,0
439.29697,439.39227,89,37,0
439.39227,439.48758,84,33,0
439.48758,439.5842,80,34,0
439.5842,439.68085,84,29,0
439.68085,439.77747,89,33,0
439.77747,439.8842,84,29,0
439.8842,439.9741,89,38,0
439.9741,440.0633,84,30,0
440.0633,440.1518,80,37,0
440.1518,440.2396,84,30,0
440.2396,440.32672,89,33,0
440.32672,440.41367,84,30,0
440.41367,440.5058,89,36,0
440.5058,440.59793,84,30,0
440.59793,440.6915,80,35,0
440.6915,440.78506,84,30,0
440.78506,440.87866,89,31,0
440.87866,440.97952,84,30,0
440.97952,441.07166,89,38,0
441.07166,441.1638,84,30,0
441.1638,441.25592,80,33,0
441.25592,441.34802,84,29,0
441.34802,441.44534,89,33,0
441.44534,441.54266,84,28,0
441.54266,441.6348,89,37,0
441.6348,441.72693,84,33,0
441.72693,441.81906,80,34,0
441.81906,441.91116,84,29,0
441.91116,442.0033,89,33,0
442.0033,442.09543,84,29,0
442.09543,442.18716,87,38,0
442.18716,442.2787,84,30,0
442.2787,442.36996,80,37,0
442.36996,442.46097,84,30,0
442.46097,442.55173,87,33,0
442.55173,442.64224,84,30,0
442.64224,442.7328,80,36,0
442.7328,442.8237,84,30,0
442.8237,442.91498,87,35,0
442.91498,443.00656,84,30,0
443.00656,443.09854,80,31,0
443.09854,443.19095,84,30,0
443.19095,443.28354,87,38,0
443.28354,443.37643,84,30,0
443.37643,443.46957,80,33,0
443.46957,443.56305,84,29,0
443.56305,443.65674,87,33,0
443.65674,443.75073,84,28,0
443.75073,443.84503,87,37,0
443.84503,443.9396,84,33,0
443.9396,444.03625,80,34,0
444.03625,444.1329,84,29,0
444.1329,444.22952,87,33,0
444.22952,444.33347,84,29,0
444.33347,444.42334,87,38,0
444.42334,444.51266,84,30,0
444.51266,444.60147,80,37,0
444.60147,444.68976,84,30,0
444.68976,444.7775,87,33,0
444.7775,444.8648,84,30,0
444.8648,444.95694,87,36,0
444.95694,445.04904,84,30,0
445.04904,445.14264,80,35,0
445.14264,445.2362,84,30,0
445.2362,445.32977,87,31,0
445.32977,445.43066,84,30,0
445.43066,445.52277,87,38,0
445.52277,445.6149,84,30,0
445.6149,445.70703,80,33,0
445.70703,445.79916,84,29,0
445.79916,445.89648,87,33,0
445.89648,445.9938,84,28,0
445.9938,446.08594,87,37,0
446.08594,446.17804,84,33,0
446.17804,446.27017,80,34,0
446.27017,446.3623,84,29,0
446.3623,446.45444,87,33,0
446.45444,446.54605,84,29,0
446.54605,446.6348,89,38,0
446.6348,446.7229,85,30,0
446.7229,446.81036,80,37,0
446.81036,446.8973,85,30,0
446.8973,446.98428,89,33,0
446.98428,447.07123,85,31,0
447.07123,447.16336,89,37,0
447.16336,447.2555,85,30,0
447.2555,447.34906,80,36,0
447.34906,447.44263,85,31,0
447.44263,447.53622,89,34,0
447.53622,447.6371,85,33,0
447.6371,447.72922,89,40,0
447.72922,447.82135,85,33,0
447.82135,447.91345,80,35,0
447.91345,448.00558,85,31,0
448.00558,448.1029,89,35,0
448.1029,448.20023,85,30,0
448.20023,448.29224,89,40,0
448.29224,448.3838,85,36,0
448.3838,448.47482,80,37,0
448.47482,448.56552,85,33,0
448.56552,448.65656,89,36,0
448.65656,448.74802,85,33,0
448.74802,448.84015,90,40,0
448.84015,448.93228,84,35,0
448.93228,449.02585,80,40,0
449.02585,449.11942,84,35,0
449.11942,449.213,90,37,0
449.213,449.31387,84,36,0
449.31387,449.406,90,42,0
449.406,449.49814,84,35,0
449.49814,449.5917,80,41,0
449.5917,449.68527,84,37,0
449.68527,449.77884,90,38,0
449.77884,449.87973,84,37,0
449.87973,449.97186,90,44,0
449.97186,450.06396,84,36,0
450.06396,450.15756,80,44,0
450.15756,450.25113,84,38,0
450.25113,450.3447,90,39,0
450.3447,450.4456,84,38,0
450.4456,450.5377,90,45,0
450.5377,450.62982,87,38,0
450.62982,450.7234,80,44,0
450.7234,450.817,87,39,0
450.817,450.91055,90,39,0
450.91055,451.0173,87,39,0
451.0173,451.38986,89,55,0
452.66113,453.12912,77,62,0
453.12912,453.2502,80,57,0
453.2502,453.76508,85,66,0
453.76508,454.2207,89,62,0
454.2207,454.32568,85,55,0
454.32568,454.8567,84,63,0
454.8567,455.31656,87,66,0
455.31656,455.4294,84,55,0
455.4294,455.9446,85,66,0
455.9446,457.0038,80,59,0
457.0038,457.46167,77,68,0
457.46167,457.57413,80,62,0
457.57413,458.08795,85,71,0
458.08795,458.5449,89,74,0
458.5449,458.64987,85,64,0
458.64987,459.18088,84,75,0
459.18088,459.64755,87,80,0
459.64755,459.76547,84,71,0
459.76547,460.2872,83,85,0
460.2872,461.36447,86,95,0
461.36447,461.8184,86,84,0
461.8184,461.93994,83,79,0
461.93994,462.4632,84,85,0
462.4632,463.54047,88,97,0
463.54047,463.99274,79,71,0
463.54047,463.99274,91,84,0
463.99274,464.11426,89,79,0
463.99274,464.11426,77,67,0
464.11426,464.6375,76,72,0
464.11426,464.6375,88,85,0
464.6375,465.71478,91,93,0
464.6375,465.71478,79,79,0
465.71478,466.16705,91,88,0
465.71478,466.16705,79,74,0
466.16705,466.2886,88,82,0
466.16705,466.2886,76,70,0
466.2886,466.81186,77,75,0
466.2886,466.81186,89,89,0
466.81186,467.8891,80,81,0
466.81186,467.8891,92,96,0
467.8891,468.35,80,74,0
467.8891,468.35,92,88,0
468.35,468.47153,77,70,0
468.35,468.47153,89,82,0
468.58517,468.67105,61,80,0
468.67105,468.75616,58,77,0
468.75616,468.84055,66,72,0
469.09888,469.18237,66,75,0
469.18237,469.26587,61,78,0
469.26587,469.3494,70,73,0
469.60867,469.69217,70,74,0
469.69217,469.7757,66,80,0
469.7757,469.8592,73,74,0
470.11707,470.20004,73,75,0
470.20004,470.28305,70,80,0
470.28305,470.36606,78,72,0
470.62372,470.7067,78,74,0
470.7067,470.7897,73,77,0
470.7897,470.8727,82,72,0
471.13037,471.21335,82,71,0
471.21335,471.29636,78,75,0
471.29636,471.37936,85,73,0
471.63663,471.72015,85,74,0
471.72015,471.80365,82,80,0
471.80365,471.88715,90,74,0
472.23276,472.32047,90,82,0
472.32047,472.40997,85,79,0
472.40997,472.6877,94,84,0
472.82797,472.91385,63,80,0
472.91385,472.999,60,77,0
472.999,473.08334,69,72,0
473.3417,473.4252,69,75,0
473.4252,473.5087,63,78,0
473.5087,473.5922,72,73,0
473.8515,473.935,72,74,0
473.935,474.0185,69,80,0
474.0185,474.10202,75,74,0
474.35986,474.44287,75,75,0
474.44287,474.52588,72,80,0
474.52588,474.60886,81,72,0
474.86652,474.94952,81,75,0
474.94952,475.03253,75,77,0
475.03253,475.1155,84,72,0
475.3732,475.45618,84,71,0
475.45618,475.53918,81,75,0
475.53918,475.62216,87,73,0
475.87946,475.96295,87,74,0
475.96295,476.04648,84,80,0
476.04648,476.12997,93,74,0
476.4756,476.5633,93,83,0
476.5633,476.6528,87,77,0
476.6528,476.88055,96,83,0
476.96713,477.053,65,74,0
477.053,477.13815,61,77,0
477.13815,477.2225,70,72,0
477.56436,477.64786,70,75,0
477.64786,477.73135,65,72,0
477.73135,477.90714,73,73,0
477.99728,478.08313,67,75,0
478.08313,478.16827,64,77,0
478.16827,478.25266,72,72,0
478.59448,478.67798,72,75,0
478.67798,478.7615,67,72,0
478.7615,478.9373,76,73,0
479.0274,479.11328,68,73,0
479.11328,479.1984,65,77,0
479.1984,479.28278,73,72,0
479.6246,479.70813,73,75,0
479.70813,479.79163,68,71,0
479.79163,479.9674,77,73,0
480.05753,480.1434,70,80,0
480.1434,480.22855,67,77,0
480.22855,480.3129,76,72,0
480.65472,480.73825,76,75,0
480.73825,480.82175,70,73,0
480.82175,480.99753,79,73,0
481.08017,481.1628,72,64,0
481.1628,481.24545,68,69,0
481.24545,481.3281,77,64,0
481.58484,481.66727,73,64,0
481.66727,481.74966,70,69,0
481.74966,481.8321,79,67,0
482.08817,482.17102,75,69,0
482.17102,482.2539,72,73,0
482.2539,482.3368,81,69,0
482.59448,482.67737,77,71,0
482.67737,482.76025,73,68,0
482.76025,482.8431,82,70,0
483.0979,483.1803,79,71,0
483.1803,483.26273,76,73,0
483.26273,483.34512,84,70,0
483.60165,483.68405,80,69,0
483.68405,483.76648,77,73,0
483.76648,483.8489,85,72,0
484.10452,484.18692,82,74,0
484.18692,484.26935,79,78,0
484.26935,484.35175,88,74,0
484.6088,484.69144,84,75,0
484.69144,484.77408,80,77,0
484.77408,484.85672,89,75,0
485.11185,485.1945,85,78,0
485.1945,485.27713,82,79,0
485.27713,485.35977,91,74,0
485.61673,485.69937,87,74,0
485.69937,485.782,84,79,0
485.782,485.86465,93,74,0
486.12073,486.20337,89,79,0
486.20337,486.286,85,80,0
486.286,486.36868,94,79,0
486.62756,486.71344,89,81,0
486.71344,486.80112,85,83,0
486.80112,486.89062,94,80,0
487.34656,487.43185,89,78,0
487.43185,487.51675,85,82,0
487.51675,487.6012,94,79,0
487.6012,487.6853,89,89,0
487.6853,487.76895,85,83,0
487.76895,487.8522,82,78,0
487.8522,487.93515,77,78,0
487.93515,488.018,73,82,0
488.018,488.1009,82,79,0
488.1009,488.18378,77,86,0
488.18378,488.26663,73,82,0
488.26663,488.34952,70,80,0
488.34952,488.43237,65,74,0
488.43237,488.51526,61,78,0
488.51526,488.59814,70,73,0
488.59814,488.68192,65,81,0
488.68192,488.76572,61,78,0
489.60718,489.69073,61,80,0
489.69073,489.77408,65,75,0
489.77408,489.85724,70,75,0
489.85724,489.94034,73,75,0
489.94034,490.02414,77,79,0
490.02414,490.10794,73,73,0
490.10794,490.192,70,80,0
490.192,490.2761,73,74,0
490.2761,490.36035,77,79,0
490.36035,490.4448,82,74,0
490.4448,490.5293,85,82,0
490.5293,490.61392,82,75,0
490.61392,490.6989,89,83,0
490.6989,490.78488,85,78,0
490.78488,490.8719,94,83,0
490.8719,490.95993,89,78,0
490.95993,491.0491,85,80,0
491.0491,491.1645,82,75,0
491.42227,491.50742,92,78,0
491.50742,491.59225,89,85,0
491.59225,491.67667,95,81,0
491.67667,491.7608,92,92,0
491.7608,491.8445,89,80,0
491.8445,491.92792,86,81,0
491.92792,492.01096,83,77,0
492.01096,492.09366,80,81,0
492.09366,492.17633,77,79,0
492.17633,492.25897,83,85,0
492.25897,492.3416,80,82,0
492.3416,492.42426,77,78,0
492.42426,492.5068,74,74,0
492.5068,492.58923,71,75,0
492.58923,492.6718,68,73,0
492.6718,492.75446,74,81,0
492.75446,492.8373,71,78,0
492.8373,492.9203,68,74,0
492.9203,493.0034,65,74,0
493.0034,493.08664,62,74,0
493.08664,493.1702,59,74,0
493.1702,493.25424,68,79,0
493.25424,493.33804,65,71,0
493.33804,493.4216,62,74,0
494.16556,494.2486,62,80,0
494.2486,494.33194,65,74,0
494.33194,494.41556,68,79,0
494.41556,494.4995,71,74,0
494.4995,494.5841,74,82,0
494.5841,494.66974,77,75,0
494.66974,494.75662,80,83,0
494.75662,494.8447,83,78,0
494.8447,494.93396,86,83,0
494.93396,495.0245,89,78,0
495.0245,495.11636,92,80,0
495.11636,495.34894,95,75,0
495.68097,495.80096,92,78,0
495.80096,495.94452,89,82,0
495.94452,496.05444,96,79,0
496.05444,496.14377,92,92,0
496.14377,496.2316,89,83,0
496.2316,496.3192,84,82,0
496.3192,496.40652,80,78,0
496.40652,496.49338,77,82,0
496.49338,496.57993,84,79,0
496.57993,496.66605,80,86,0
496.66605,496.75183,77,82,0
496.75183,496.8374,72,80,0
496.8374,496.92255,68,74,0
496.92255,497.00735,65,78,0
497.00735,497.0918,72,73,0
497.0918,497.1759,68,81,0
497.1759,497.25964,65,78,0
498.60052,498.68457,65,80,0
498.68457,498.76868,68,74,0
498.76868,498.85294,72,79,0
498.85294,498.93738,77,74,0
498.93738,499.02188,80,78,0
499.02188,499.1065,84,75,0
499.1065,499.1915,89,83,0
499.1915,499.27747,92,78,0
499.27747,499.36444,96,83,0
499.36444,499.4525,92,78,0
499.4525,499.54144,89,80,0
499.54144,499.63046,84,75,0
499.8896,499.97522,91,72,0
499.97522,500.06052,88,77,0
500.06052,500.1455,94,73,0
500.1455,500.2302,91,78,0
500.2302,500.31454,88,77,0
500.31454,500.3985,84,74,0
500.3985,500.48212,82,72,0
500.48212,500.5656,79,77,0
500.5656,500.64917,76,73,0
500.64917,500.73276,72,78,0
500.73276,500.8163,70,75,0
500.8163,500.89987,67,71,0
500.89987,500.98346,64,70,0
502.3265,502.4097,60,71,0
502.4097,502.4928,64,71,0
502.4928,502.5766,67,73,0
502.5766,502.6604,70,69,0
502.6604,502.74442,72,73,0
502.74442,502.82855,76,66,0
502.82855,502.9128,79,70,0
502.9128,502.99725,76,66,0
502.99725,503.0822,72,70,0
503.0822,503.16818,76,66,0
503.16818,503.25516,79,70,0
503.25516,503.3431,76,60,0
503.3431,503.43216,82,65,0
503.43216,503.52225,79,58,0
503.52225,503.61343,76,63,0
503.61343,503.72882,79,56,0
503.72882,504.1587,82,57,0
505.88705,506.17093,76,46,0
505.88705,506.17093,79,46,0
506.17093,506.45483,79,42,0
506.17093,506.45483,76,42,0
506.45483,506.7567,79,46,0
506.45483,506.7567,76,46,0
506.7567,507.205,79,46,0
506.7567,507.205,82,46,0
509.0206,509.32077,67,39,0
509.0206,509.32077,64,39,0
509.32077,509.62097,67,37,0
509.32077,509.62097,64,37,0
509.62097,509.9321,64,37,0
509.62097,509.9321,67,37,0
509.9321,510.51947,70,41,0
509.9321,510.51947,67,41,0
515.2058,515.6314,76,32,0
515.2058,515.6314,67,32,0
515.2058,515.6314,70,32,0
515.6314,516.093,67,36,0
515.6314,516.093,70,36,0
515.6314,516.093,76,36,0
516.093,516.71814,70,39,0
516.093,516.71814,67,39,0
516.093,516.71814,76,39,0
516.71814,518.2971,67,43,0
516.71814,518.2971,70,43,0
516.71814,518.2971,76,43,0
518.2971,518.46106,88,102,0
518.2971,518.46106,79,87,0
518.2971,518.46106,84,87,0
518.2971,518.46106,82,87,0
518.2971,518.46106,76,87,0
518.46106,518.625,82,78,0
518.46106,518.625,79,78,0
518.46106,518.625,76,78,0
518.46106,518.625,84,78,0
518.46106,518.625,88,93,0
518.625,518.78894,88,93,0
518.625,518.78894,82,78,0
518.625,518.78894,79,78,0
518.625,518.78894,76,78,0
518.625,518.78894,84,78,0
518.78894,519.0852,77,87,0
518.78894,519.0852,84,87,0
518.78894,519.0852,80,87,0
518.78894,519.0852,89,102,0
520.0113,520.35223,68,66,0
520.35223,520.4405,72,58,0
520.4405,520.81555,77,63,0
520.81555,521.14746,80,68,0
521.14746,521.22394,77,60,0
521.22394,521.6108,76,63,0
521.6108,521.9458,79,68,0
521.9458,522.028,76,60,0
522.028,522.4033,77,63,0
522.4033,523.1749,72,62,0
523.1749,523.5025,68,60,0
523.1749,523.5025,80,71,0
523.5025,523.5907,72,52,0
523.5025,523.5907,84,62,0
523.5907,523.96576,89,73,0
523.5907,523.96576,77,61,0
523.96576,524.29767,80,65,0
523.96576,524.29767,92,78,0
524.29767,524.3775,77,59,0
524.29767,524.3775,89,71,0
524.3775,524.7654,76,64,0
524.3775,524.7654,88,76,0
524.7654,525.0973,79,68,0
524.7654,525.0973,91,82,0
525.0973,525.1906,76,65,0
525.0973,525.1906,88,77,0
525.1906,525.5659,78,82,0
525.1906,525.5659,90,99,0
525.5659,526.3375,84,79,0
525.5659,526.3375,72,63,0
526.3375,526.66943,87,84,0
526.3375,526.66943,75,70,0
526.66943,526.7627,84,78,0
526.66943,526.7627,72,66,0
526.7627,527.13806,77,82,0
526.7627,527.13806,89,99,0
527.13806,527.90967,82,79,0
527.13806,527.90967,70,63,0
527.90967,528.2415,85,84,0
527.90967,528.2415,73,70,0
528.2415,528.33484,70,66,0
528.2415,528.33484,82,78,0
528.33484,528.71014,80,90,0
528.33484,528.71014,68,75,0
528.71014,529.04205,72,70,0
528.71014,529.04205,84,84,0
529.04205,529.1354,68,66,0
529.04205,529.1354,80,78,0
529.1354,529.5111,67,75,0
529.1354,529.5111,79,90,0
529.5111,529.8477,91,92,0
529.5111,529.8477,79,77,0
529.8477,529.9474,88,85,0
529.8477,529.9474,76,72,0
529.937,530.3123,78,84,0
529.937,530.3123,90,103,0
530.323,531.0946,84,86,0
530.323,531.0946,72,69,0
531.0946,531.4265,75,77,0
531.0946,531.4265,87,92,0
531.4265,531.52655,84,85,0
531.4265,531.52655,72,72,0
531.52655,531.90186,77,84,0
531.52655,531.90186,89,103,0
531.90186,532.67346,70,69,0
531.90186,532.67346,82,86,0
532.67346,533.0054,85,92,0
532.67346,533.0054,73,77,0
533.0054,533.09863,82,85,0
533.0054,533.09863,70,72,0
533.09863,533.47394,80,99,0
533.09863,533.47394,68,82,0
533.47394,533.80585,72,77,0
533.47394,533.80585,84,92,0
533.80585,533.8992,68,72,0
533.80585,533.8992,80,85,0
533.8992,534.2749,67,82,0
533.8992,534.2749,79,99,0
534.2749,534.5399,72,84,0
534.2749,534.5399,84,101,0
534.5399,534.6997,72,80,0
534.5399,534.6997,84,95,0
534.6997,534.8275,72,87,0
534.6997,534.8275,84,105,0
534.8275,534.94464,68,66,0
534.8275,534.94464,65,59,0
534.8275,534.94464,60,59,0
534.8275,534.94464,72,79,0
534.9553,535.07245,65,59,0
534.9553,535.07245,68,66,0
534.9553,535.07245,72,79,0
534.9553,535.07245,60,59,0
535.08307,535.47516,60,62,0
535.08307,535.47516,68,69,0
535.08307,535.47516,65,62,0
535.08307,535.47516,72,84,0
535.61475,535.7322,67,66,0
535.61475,535.7322,60,59,0
535.61475,535.7322,72,79,0
535.61475,535.7322,64,66,0
535.74286,535.86005,67,66,0
535.74286,535.86005,72,79,0
535.74286,535.86005,60,59,0
535.74286,535.86005,64,66,0
535.87067,536.26,60,62,0
535.87067,536.26,72,84,0
535.87067,536.26,70,69,0
535.87067,536.26,67,62,0
536.3917,536.50885,72,79,0
536.3917,536.50885,68,66,0
536.3917,536.50885,60,59,0
536.3917,536.50885,65,59,0
536.51953,536.63666,65,59,0
536.51953,536.63666,68,66,0
536.51953,536.63666,72,79,0
536.51953,536.63666,60,59,0
536.64734,537.0378,72,84,0
536.64734,537.0378,60,62,0
536.64734,537.0378,68,69,0
536.64734,537.0378,65,62,0
537.17773,537.29486,67,66,0
537.17773,537.29486,64,66,0
537.17773,537.29486,60,59,0
537.17773,537.29486,72,79,0
537.30554,537.42267,72,79,0
537.30554,537.42267,64,66,0
537.30554,537.42267,67,66,0
537.30554,537.42267,60,59,0
537.43335,537.835,60,62,0
537.43335,537.835,72,84,0
537.43335,537.835,67,62,0
537.43335,537.835,70,69,0
537.96405,538.0824,68,65,0
537.96405,538.0824,65,65,0
537.96405,538.0824,60,65,0
537.96405,538.0824,72,77,0
538.2276,538.34564,67,73,0
538.2276,538.34564,65,73,0
538.2276,538.34564,61,73,0
538.2276,538.34564,73,85,0
538.48517,538.6087,73,77,0
538.48517,538.6087,61,65,0
538.48517,538.6087,65,65,0
538.48517,538.6087,67,65,0
538.74756,538.8646,65,69,0
538.74756,538.8646,60,69,0
538.74756,538.8646,72,83,0
538.74756,538.8646,68,69,0
539.00696,539.12524,67,70,0
539.00696,539.12524,60,70,0
539.00696,539.12524,64,70,0
539.00696,539.12524,72,82,0
539.2651,539.40344,72,71,0
539.2651,539.40344,64,59,0
539.2651,539.40344,67,59,0
539.2651,539.40344,60,59,0
539.416,539.5438,72,92,0
539.416,539.5438,65,76,0
539.416,539.5438,68,76,0
539.416,539.5438,60,76,0
539.5438,539.66095,60,79,0
539.5438,539.66095,53,59,0
539.5438,539.66095,48,59,0
539.5438,539.66095,56,66,0
539.67163,539.78876,53,59,0
539.67163,539.78876,48,59,0
539.67163,539.78876,60,79,0
539.67163,539.78876,56,66,0
539.79944,540.1915,56,69,0
539.79944,540.1915,48,62,0
539.79944,540.1915,53,62,0
539.79944,540.1915,60,84,0
540.3311,540.44855,52,66,0
540.3311,540.44855,48,59,0
540.3311,540.44855,55,66,0
540.3311,540.44855,60,79,0
540.4592,540.57635,60,79,0
540.4592,540.57635,55,66,0
540.4592,540.57635,52,66,0
540.4592,540.57635,48,59,0
540.58704,540.9763,48,62,0
540.58704,540.9763,55,62,0
540.58704,540.9763,58,69,0
540.58704,540.9763,60,84,0
541.10803,541.2252,60,79,0
541.10803,541.2252,48,59,0
541.10803,541.2252,53,59,0
541.10803,541.2252,56,66,0
541.23584,541.353,53,59,0
541.23584,541.353,48,59,0
541.23584,541.353,56,66,0
541.23584,541.353,60,79,0
541.36365,541.7541,60,84,0
541.36365,541.7541,53,62,0
541.36365,541.7541,48,62,0
541.36365,541.7541,56,69,0
541.89404,542.0112,60,79,0
541.89404,542.0112,52,66,0
541.89404,542.0112,55,66,0
541.89404,542.0112,48,59,0
542.02185,542.13904,48,59,0
542.02185,542.13904,55,66,0
542.02185,542.13904,60,79,0
542.02185,542.13904,52,66,0
542.14966,542.55133,60,84,0
542.14966,542.55133,58,69,0
542.14966,542.55133,48,62,0
542.14966,542.55133,55,62,0
542.6804,542.7987,48,63,0
542.6804,542.7987,53,63,0
542.6804,542.7987,56,63,0
542.6804,542.7987,60,81,0
542.9439,543.062,53,69,0
542.9439,543.062,49,69,0
542.9439,543.062,61,89,0
542.9439,543.062,55,69,0
543.2015,543.325,61,81,0
543.2015,543.325,49,63,0
543.2015,543.325,53,63,0
543.2015,543.325,55,63,0
543.4639,543.58093,53,66,0
543.4639,543.58093,56,66,0
543.4639,543.58093,60,87,0
543.4639,543.58093,48,66,0
543.72327,543.8416,48,66,0
543.72327,543.8416,55,66,0
543.72327,543.8416,52,66,0
543.72327,543.8416,60,87,0
543.98145,544.11304,60,81,0
543.98145,544.11304,52,63,0
543.98145,544.11304,55,63,0
543.98145,544.11304,48,63,0
544.2542,544.3725,60,63,0
544.2542,544.3725,68,63,0
544.2542,544.3725,72,81,0
544.2542,544.3725,65,63,0
544.51776,544.6358,67,69,0
544.51776,544.6358,65,69,0
544.51776,544.6358,61,69,0
544.51776,544.6358,73,89,0
544.7753,544.89886,73,81,0
544.7753,544.89886,65,63,0
544.7753,544.89886,61,63,0
544.7753,544.89886,67,63,0
545.0377,545.1547,68,66,0
545.0377,545.1547,72,87,0
545.0377,545.1547,65,66,0
545.0377,545.1547,60,66,0
545.29706,545.4154,67,66,0
545.29706,545.4154,60,66,0
545.29706,545.4154,64,66,0
545.29706,545.4154,72,87,0
545.55524,545.69,72,81,0
545.55524,545.69,64,63,0
545.55524,545.69,67,63,0
545.55524,545.69,60,63,0
545.8353,545.9573,72,72,0
545.8353,545.9573,80,72,0
545.8353,545.9573,84,93,0
545.8353,545.9573,77,72,0
546.10986,546.2343,85,101,0
546.10986,546.2343,79,79,0
546.10986,546.2343,73,79,0
546.10986,546.2343,77,79,0
546.38135,546.5117,79,72,0
546.38135,546.5117,85,93,0
546.38135,546.5117,73,72,0
546.38135,546.5117,77,72,0
546.6634,546.7916,72,76,0
546.6634,546.7916,84,99,0
546.6634,546.7916,80,76,0
546.6634,546.7916,77,76,0
546.95593,547.08563,79,75,0
546.95593,547.08563,84,99,0
546.95593,547.08563,72,75,0
546.95593,547.08563,76,75,0
547.23895,547.3926,79,72,0
547.23895,547.3926,84,93,0
547.23895,547.3926,76,72,0
547.23895,547.3926,72,72,0
547.40656,547.4821,60,64,0
547.4821,547.55774,56,55,0
547.55774,547.6333,60,59,0
547.6333,547.70886,56,50,0
547.70886,547.7845,60,55,0
547.7845,547.86005,56,48,0
547.86005,547.93567,60,43,0
547.93567,548.0112,56,37,0
548.0112,548.086,60,43,0
548.086,548.16064,56,37,0
548.16064,548.2353,60,43,0
548.2353,548.32764,56,36,0
548.32764,548.3942,60,43,0
548.3942,548.4606,56,36,0
548.4606,548.5269,60,42,0
548.5269,548.59326,56,36,0
548.59326,548.65967,60,42,0
548.65967,548.726,56,35,0
548.726,548.79236,60,42,0
548.79236,548.8587,56,35,0
548.8587,548.93243,60,41,0
548.93243,549.0071,56,35,0
549.0071,549.08167,60,41,0
549.08167,549.174,56,35,0
549.174,549.2437,60,41,0
549.2437,549.31006,56,35,0
549.31006,549.3764,60,41,0
549.3764,549.44275,56,34,0
549.44275,549.50916,60,40,0
549.50916,549.5755,56,34,0
549.5755,549.64185,60,40,0
549.64185,549.7082,56,34,0
549.7082,549.78186,60,40,0
549.78186,549.8565,56,33,0
549.8565,549.93115,60,40,0
549.93115,550.0235,56,33,0
550.0235,550.0932,60,40,0
550.0932,550.15955,56,33,0
550.15955,550.2259,60,39,0
550.2259,550.29224,56,33,0
550.29224,550.35864,60,39,0
550.35864,550.425,56,33,0
550.425,550.49133,60,39,0
550.49133,550.5577,56,32,0
550.5577,550.63135,60,38,0
550.63135,550.706,56,32,0
550.706,550.78064,60,38,0
550.78064,550.873,56,32,0
550.873,550.9404,60,38,0
550.9404,551.0078,56,32,0
551.0078,551.07526,60,37,0
551.07526,551.14264,56,31,0
551.14264,551.2101,60,37,0
551.2101,551.27747,56,31,0
551.27747,551.3449,72,37,0
551.3449,551.4123,68,31,0
551.4123,551.48615,72,37,0
551.48615,551.5608,68,31,0
551.5608,551.63544,72,36,0
551.63544,551.7277,68,31,0
551.7277,551.7966,72,36,0
551.7966,551.86536,68,30,0
551.86536,551.93414,72,36,0
551.93414,552.003,68,30,0
552.003,552.0718,72,35,0
552.0718,552.14056,68,30,0
552.14056,552.2094,72,35,0
552.2094,552.2782,68,30,0
552.2782,552.35376,72,35,0
552.35376,552.4293,68,30,0
552.4293,552.5049,72,34,0
552.5049,552.59735,68,29,0
552.59735,552.6691,72,34,0
552.6691,552.7409,68,29,0
552.7409,552.8126,72,34,0
552.8126,552.8844,68,28,0
552.8844,552.9562,72,33,0
552.9562,553.02795,68,27,0
553.02795,553.09973,72,33,0
553.09973,553.1715,68,27,0
553.1715,553.24786,72,32,0
553.24786,553.32416,68,27,0
553.32416,553.4005,72,31,0
553.4005,553.49304,68,26,0
553.49304,553.56696,72,31,0
553.56696,553.6408,68,26,0
553.6408,553.7147,72,31,0
553.7147,553.78864,68,25,0
553.78864,553.8625,72,30,0
553.8625,553.9364,68,25,0
553.9364,554.01025,72,29,0
554.01025,554.08417,68,25,0
554.08417,554.1581,72,29,0
554.1581,554.23193,68,24,0
554.23193,554.30585,72,29,0
554.30585,554.37964,68,24,0
554.37964,554.4534,72,28,0
554.4534,554.52783,68,23,0
554.52783,554.6027,72,27,0
554.6027,554.6781,68,23,0
554.6781,554.7541,72,26,0
554.7541,554.83057,68,22,0
554.83057,554.90765,72,26,0
554.90765,554.9853,68,22,0
554.9853,555.06354,72,25,0
555.06354,555.14233,68,21,0
555.14233,555.2217,72,24,0
555.2217,555.3017,68,20,0
555.3017,555.3831,72,23,0
555.3831,555.4666,68,20,0
555.4666,555.5525,72,23,0
555.5525,555.64075,68,19,0
555.64075,555.7316,72,22,0
555.7316,555.82526,68,18,0
555.82526,555.92175,72,21,0
555.92175,556.02246,68,18,0
556.02246,556.131,72,21,0
556.131,556.2488,68,17,0
556.2488,556.3717,72,20,0
556.3717,556.642,68,17,0
556.642,558.8991,68,15,0
556.642,558.8991,72,18,0
1.628172,2.1468117,36,27,0
2.1468117,2.2834113,32,25,0
2.2834113,3.9527583,29,22,0
3.9527583,4.4300885,32,27,0
4.4300885,4.5375156,36,24,0
4.5375156,5.065808,41,27,0
5.065808,5.5339007,44,27,0
5.5339007,5.635451,48,24,0
5.635451,6.194203,53,27,0
6.2023673,6.7588167,56,26,0
6.7588167,7.884973,52,26,0
6.7588167,7.884973,60,26,0
6.7588167,7.884973,55,26,0
7.884973,8.980742,56,26,0
7.884973,8.980742,59,26,0
7.884973,8.980742,53,26,0
8.980742,9.4426,60,26,0
8.980742,9.4426,52,19,0
8.980742,9.4426,55,22,0
11.059103,11.557365,37,27,0
11.557365,11.693396,34,25,0
11.693396,13.381962,30,22,0
13.381962,13.870978,34,27,0
13.870978,13.978405,37,24,0
13.978405,14.506698,42,27,0
14.506698,14.9723625,46,27,0
14.9723625,15.073914,49,24,0
15.073914,15.64083,54,29,0
15.64083,16.197279,58,26,0
16.197279,17.321365,56,26,0
16.197279,17.321365,61,26,0
16.197279,17.321365,53,26,0
17.321365,18.421211,54,26,0
17.321365,18.421211,60,26,0
17.321365,18.421211,57,26,0
18.421211,18.793743,61,26,0
18.421211,18.793743,56,22,0
18.421211,18.793743,53,19,0
20.656404,21.781185,64,26,0
20.656404,21.781185,67,26,0
21.781185,22.872946,65,26,0
21.781185,22.872946,71,26,0
21.781185,22.872946,68,26,0
22.872946,23.21803,67,26,0
22.872946,23.21803,64,22,0
23.390574,23.486382,37,27,0
23.580425,23.675663,37,26,0
23.7709,23.867365,37,26,0
23.963827,24.150093,36,26,0
25.081423,26.205416,70,26,0
25.081423,26.205416,73,26,0
25.081423,26.205416,67,26,0
26.205416,27.278997,68,26,0
26.205416,27.278997,73,26,0
26.205416,27.278997,70,26,0
27.278997,27.624998,73,26,0
27.278997,27.624998,70,22,0
27.278997,27.624998,67,22,0
27.797998,27.892635,37,27,0
27.987274,28.082815,37,26,0
28.178356,28.275444,37,26,0
28.372532,28.558268,36,26,0
30.359453,30.624893,37,27,0
30.624893,30.90391,37,26,0
30.90391,31.206055,37,26,0
31.206055,31.802319,36,26,0
34.641453,34.722534,55,75,0
34.722534,34.803616,58,63,0
34.803616,34.88477,52,75,0
34.88477,34.966217,55,64,0
34.966217,35.051445,46,75,0
35.051445,35.149803,52,60,0
35.149803,35.232224,31,73,0
35.232224,35.314865,34,67,0
35.314865,35.397816,40,77,0
35.397816,35.48107,43,67,0
35.48107,35.56456,46,77,0
35.56456,35.648438,49,67,0
35.648438,35.732628,52,82,0
35.732628,35.817055,55,73,0
35.817055,35.987774,58,89,0
36.47757,36.72247,49,86,0
36.47757,36.72247,56,86,0
36.47757,36.72247,41,72,0
36.47757,36.72247,29,72,0
36.47757,36.72247,61,86,0
37.364178,39.750546,55,48,0
37.364178,39.750546,48,40,0
37.364178,39.750546,40,40,0
37.364178,39.750546,52,48,0
37.364178,39.750546,60,48,0
39.818726,40.355797,36,27,0
40.355797,40.451336,32,25,0
40.451336,40.675217,29,81,0
40.838703,41.162273,36,69,0
40.838703,41.162273,32,61,0
40.838703,41.162273,29,61,0
40.838703,41.162273,41,81,0
41.16568,41.48925,29,57,0
41.16568,41.48925,32,57,0
41.16568,41.48925,36,64,0
41.16568,41.48925,41,76,0
41.492653,41.816223,29,55,0
41.492653,41.816223,32,55,0
41.492653,41.816223,36,63,0
41.492653,41.816223,41,73,0
41.81963,42.1432,36,69,0
41.81963,42.1432,32,61,0
41.81963,42.1432,29,61,0
41.81963,42.1432,41,81,0
42.146606,42.484943,29,55,0
42.146606,42.484943,32,55,0
42.146606,42.484943,36,63,0
42.146606,42.484943,41,73,0
42.488663,44.095806,32,61,0
42.488663,44.095806,29,61,0
42.488663,44.095806,36,69,0
42.488663,44.095806,41,81,0
44.095806,44.53989,32,33,0
44.53989,44.638203,36,28,0
44.638203,45.12168,41,33,0
45.12168,45.550053,44,33,0
45.550053,45.642986,48,28,0
45.642986,46.15807,53,33,0
46.161804,46.68764,41,30,0
46.68764,46.911522,52,81,0
46.68764,46.911522,55,81,0
46.911522,47.235092,55,75,0
47.07501,47.39858,43,69,0
47.07501,47.39858,48,81,0
47.07501,47.39858,40,61,0
47.401985,47.72555,43,64,0
47.401985,47.72555,48,76,0
47.401985,47.72555,40,57,0
47.72896,48.05253,48,73,0
47.72896,48.05253,40,55,0
47.72896,48.05253,43,63,0
48.055935,48.3795,43,69,0
48.055935,48.3795,48,81,0
48.055935,48.3795,40,61,0
48.382908,48.843113,40,55,0
48.382908,48.843113,48,73,0
48.382908,48.843113,43,63,0
48.849426,49.87877,64,30,0
48.849426,49.87877,67,30,0
49.87877,50.943123,65,30,0
49.87877,50.943123,71,30,0
49.87877,50.943123,68,30,0
50.943123,51.165134,52,81,0
50.943123,51.165134,55,81,0
51.167,51.49057,55,75,0
51.33049,51.654057,43,69,0
51.33049,51.654057,48,81,0
51.33049,51.654057,40,61,0
51.657463,51.981033,43,64,0
51.657463,51.981033,48,76,0
51.657463,51.981033,40,57,0
51.98444,52.308006,48,73,0
51.98444,52.308006,40,55,0
51.98444,52.308006,43,63,0
52.311413,52.634983,43,69,0
52.311413,52.634983,48,81,0
52.311413,52.634983,40,61,0
52.63839,53.097103,40,55,0
52.63839,53.097103,48,73,0
52.63839,53.097103,43,63,0
53.103386,54.132725,64,36,0
53.103386,54.132725,67,36,0
54.132725,55.36101,63,36,0
54.132725,55.36101,67,36,0
55.36101,55.510063,75,36,0
55.523613,55.672665,75,36,0
55.686214,55.83649,75,39,0
55.85015,56.000423,75,37,0
56.014084,56.164356,75,36,0
56.17802,56.328293,75,39,0
56.341953,56.491005,75,35,0
56.504555,56.653606,75,35,0
56.667156,56.81743,75,39,0
56.831093,56.981365,75,36,0
56.995026,57.145298,75,36,0
57.322895,57.47114,75,38,0
57.48462,57.632866,75,38,0
57.646343,57.81028,68,39,0
57.646343,57.81028,71,39,0
57.81028,57.960552,75,37,0
57.974213,58.12449,75,37,0
58.13815,58.28842,75,41,0
58.302082,58.451134,75,37,0
58.464684,58.613735,75,38,0
58.627285,58.777557,75,46,0
58.79122,58.941494,75,40,0
58.955154,59.105427,75,40,0
59.283024,59.432076,75,38,0
59.445625,59.594677,75,38,0
59.608227,59.77083,71,40,0
59.608227,59.77083,68,40,0
59.77083,59.91988,75,37,0
59.93343,60.08248,75,37,0
60.09603,60.259964,71,37,0
60.09603,60.259964,68,37,0
60.259964,60.41024,75,37,0
60.4239,60.574173,75,37,0
60.587833,60.75177,71,37,0
60.587833,60.75177,68,37,0
60.75177,60.902042,75,37,0
60.915703,61.065975,75,37,0
61.07964,61.243572,70,39,0
61.07964,61.243572,67,39,0
61.243572,61.39303,63,37,0
61.406616,61.556072,63,37,0
61.56966,61.719933,63,38,0
61.733593,61.88387,63,37,0
61.89753,62.047802,63,37,0
62.061462,62.211735,63,37,0
62.2254,62.37445,63,37,0
62.388,62.537052,63,37,0
62.550602,62.700874,63,38,0
62.714535,62.860813,63,37,0
62.87411,63.036404,63,37,0
63.052906,63.20318,63,39,0
63.216843,63.367115,63,37,0
63.380775,63.52823,63,37,0
63.541634,63.689087,63,38,0
63.70249,63.849945,63,37,0
63.86335,64.013626,63,37,0
64.02728,64.17634,63,38,0
64.18989,64.338936,63,39,0
64.352486,64.50154,63,37,0
64.51509,64.67769,61,44,0
64.51509,64.67769,58,44,0
64.67769,64.82838,63,37,0
64.84207,64.99805,63,37,0
65.01439,65.16466,63,39,0
65.17832,65.32859,63,37,0
65.342255,65.490105,63,37,0
65.50355,65.6514,63,37,0
65.66483,65.81268,63,37,0
65.826126,65.9764,63,37,0
65.99006,66.140335,63,38,0
66.15399,66.30264,63,37,0
66.316154,66.464806,63,37,0
66.47832,66.64048,56,44,0
66.47832,66.64048,59,48,0
66.64048,66.79117,63,37,0
66.80486,66.9718,63,37,0
67.15269,67.301735,63,38,0
67.315285,67.46434,63,38,0
67.47789,67.64182,59,40,0
67.47789,67.64182,56,40,0
67.64182,67.7921,63,37,0
67.805756,67.95603,63,37,0
67.969696,68.13363,56,37,0
67.969696,68.13363,59,37,0
68.13363,68.2839,63,37,0
68.29756,68.44784,63,37,0
68.461494,68.62543,56,36,0
68.461494,68.62543,59,36,0
68.62543,68.7757,63,37,0
68.78937,68.93964,63,37,0
69.11723,69.26629,63,38,0
69.27984,69.42889,63,38,0
69.44244,69.60637,55,40,0
69.44244,69.60637,58,40,0
69.60637,69.756645,63,37,0
69.77031,69.92058,63,37,0
70.098175,70.24722,63,37,0
70.26077,70.40983,63,37,0
70.42338,70.58731,57,36,0
70.42338,70.58731,54,36,0
70.58731,70.73759,63,37,0
70.75124,70.90152,63,37,0
71.08138,71.23207,63,37,0
71.24577,71.396454,63,36,0
71.41016,71.57682,53,38,0
71.41016,71.57682,56,38,0
71.57682,71.7296,63,34,0
71.743484,71.89626,63,34,0
72.07775,72.22885,63,32,0
72.242584,72.393684,63,32,0
72.40742,72.57226,55,30,0
72.40742,72.57226,52,30,0
72.57226,72.72336,63,31,0
72.73709,72.89559,63,30,0
73.0776,73.23123,51,25,0
73.24519,73.39926,51,26,0
73.41326,73.56733,51,28,0
73.58133,73.735825,51,26,0
73.74987,73.904366,51,26,0
73.91841,74.07334,51,28,0
74.087425,74.242355,51,26,0
74.25644,74.411804,51,26,0
74.42593,74.5813,51,28,0
74.59542,74.75123,51,26,0
74.765396,74.9212,51,27,0
75.11437,75.27062,39,25,0
75.28483,75.44136,39,26,0
74.93536,75.45561,55,41,0
74.93536,75.45561,61,41,0
74.93536,75.45561,58,41,0
75.45561,75.61234,39,28,0
75.62663,75.783775,39,26,0
75.79806,75.95549,39,26,0
75.96982,76.12745,39,28,0
76.141815,76.30057,39,26,0
76.31506,76.4755,39,26,0
76.49016,76.652275,39,28,0
76.66707,76.83093,39,26,0
76.84591,77.01157,39,27,0
77.02672,77.21766,32,28,0
77.21766,77.39927,39,20,0
77.21766,77.39927,36,20,0
77.21766,77.39927,44,25,0
77.39927,77.58088,32,26,0
77.58088,77.76249,39,22,0
77.58088,77.76249,36,22,0
77.58088,77.76249,44,28,0
77.76249,77.94409,32,26,0
77.94409,78.1257,39,20,0
77.94409,78.1257,36,20,0
77.94409,78.1257,44,26,0
78.1257,78.30731,32,28,0
78.30731,78.48892,36,20,0
78.30731,78.48892,39,20,0
78.30731,78.48892,44,26,0
78.48892,78.67053,32,26,0
78.67053,78.85214,39,22,0
78.67053,78.85214,44,28,0
78.67053,78.85214,36,22,0
78.85214,79.043076,32,26,0
78.67053,79.13854,48,40,0
79.13854,79.25962,51,37,0
79.043076,79.25962,44,27,0
79.043076,79.25962,39,21,0
79.043076,79.25962,36,21,0
79.25962,79.43102,32,28,0
79.43102,79.60275,39,20,0
79.43102,79.60275,36,20,0
79.43102,79.60275,44,25,0
79.60275,79.77449,32,26,0
79.77449,79.95454,39,22,0
79.77449,79.95454,36,22,0
79.77449,79.95454,44,28,0
79.95454,80.13826,32,26,0
80.13826,80.335106,44,26,0
80.13826,80.335106,39,20,0
80.13826,80.335106,36,20,0
80.335106,80.51598,34,28,0
80.51598,80.69104,37,20,0
80.51598,80.69104,39,20,0
80.51598,80.69104,46,26,0
80.69104,80.866104,34,26,0
80.866104,81.04463,37,22,0
80.866104,81.04463,46,28,0
80.866104,81.04463,39,22,0
81.04463,81.23219,34,26,0
81.23219,81.43883,39,21,0
81.23219,81.43883,46,27,0
81.23219,81.43883,37,21,0
81.43883,81.610565,36,28,0
81.610565,81.782295,48,25,0
81.610565,81.782295,44,20,0
81.610565,81.782295,39,20,0
81.782295,81.954025,36,26,0
81.954025,82.13056,48,28,0
81.954025,82.13056,44,22,0
81.954025,82.13056,39,22,0
82.13056,82.30709,36,26,0
82.30709,82.48363,39,20,0
82.30709,82.48363,48,26,0
82.30709,82.48363,44,20,0
82.48363,82.66016,36,28,0
82.66016,82.83669,48,26,0
82.66016,82.83669,44,20,0
82.66016,82.83669,39,20,0
82.83669,83.01322,36,26,0
81.954025,83.01322,51,40,0
83.01322,83.18976,44,28,0
83.18976,83.37732,37,26,0
83.01322,83.4711,53,40,0
83.4711,83.58355,49,37,0
83.37732,83.58355,44,27,0
83.58355,83.75482,39,28,0
83.75482,83.926094,44,25,0
83.926094,84.09737,39,26,0
83.58355,84.09737,48,40,0
84.09737,84.27793,44,28,0
84.27793,84.46219,39,25,0
84.09737,84.55431,51,40,0
84.55431,84.659294,48,36,0
84.46219,84.659294,44,25,0
84.659294,84.84017,39,28,0
84.84017,85.015236,43,25,0
85.015236,85.19029,39,25,0
84.659294,85.19029,46,40,0
85.19029,85.36882,43,28,0
85.36882,85.56092,39,25,0
85.19029,85.656975,51,40,0
85.656975,85.77488,49,36,0
85.56092,85.77488,43,25,0
85.77488,85.9586,44,28,0
85.9586,86.14232,51,20,0
85.9586,86.14232,48,20,0
85.9586,86.14232,56,25,0
86.14232,86.32604,44,27,0
86.32604,86.505585,51,23,0
86.32604,86.505585,48,23,0
86.32604,86.505585,56,29,0
86.505585,86.685135,44,28,0
86.685135,86.86468,51,22,0
86.685135,86.86468,48,22,0
86.685135,86.86468,56,29,0
86.86468,87.04422,44,32,0
87.04422,87.22376,48,24,0
87.04422,87.22376,51,24,0
87.04422,87.22376,56,31,0
87.22376,87.403305,44,31,0
87.403305,87.582855,56,35,0
87.403305,87.582855,48,27,0
87.403305,87.582855,51,27,0
87.582855,87.77041,44,33,0
87.403305,87.86419,60,51,0
87.86419,87.985725,63,49,0
87.77041,87.985725,56,34,0
87.77041,87.985725,51,27,0
87.77041,87.985725,48,27,0
87.985725,88.16275,44,37,0
88.16275,88.33977,48,27,0
88.16275,88.33977,51,27,0
88.16275,88.33977,56,34,0
88.33977,88.51679,44,36,0
88.51679,88.69559,48,30,0
88.51679,88.69559,51,30,0
88.51679,88.69559,56,39,0
88.69559,88.8772,44,37,0
88.8772,89.07298,51,29,0
88.8772,89.07298,56,38,0
88.8772,89.07298,48,29,0
89.07298,89.25386,46,40,0
89.25386,89.428925,49,29,0
89.25386,89.428925,51,29,0
89.25386,89.428925,58,38,0
89.428925,89.60398,46,39,0
89.60398,89.78716,49,34,0
89.60398,89.78716,58,42,0
89.60398,89.78716,51,34,0
89.78716,89.974724,46,40,0
89.974724,90.20425,51,33,0
89.974724,90.20425,58,42,0
89.974724,90.20425,49,33,0
90.20425,92.30547,56,36,0
90.20425,92.30547,60,36,0
90.20425,92.30547,51,28,0
90.20425,92.30547,48,28,0
92.30547,92.84928,56,59,0
92.84928,94.32873,57,57,0
92.30547,94.32873,52,50,0
92.30547,94.32873,49,50,0
94.32873,96.37526,59,36,0
94.32873,96.37526,51,28,0
94.32873,96.37526,56,36,0
96.37526,98.446785,51,25,0
96.37526,98.446785,61,31,0
96.37526,98.446785,55,31,0
105.98333,106.16966,59,44,0
106.16966,106.356,58,42,0
106.356,106.542336,56,42,0
106.542336,106.72867,55,41,0
106.72867,106.91501,54,39,0
106.91501,107.10076,52,42,0
107.10076,107.2871,51,41,0
107.2871,107.474014,49,41,0
107.474014,107.661514,47,40,0
107.661514,107.8496,46,39,0
107.8496,108.03833,44,39,0
108.03833,108.22761,43,42,0
108.22761,108.41688,42,41,0
108.41688,108.606155,41,41,0
108.606155,108.79543,39,41,0
108.79543,108.9847,37,41,0
108.9847,109.18537,35,41,0
109.18537,109.3783,34,42,0
109.3783,109.57123,35,42,0
109.57123,109.76415,37,42,0
109.76415,109.95708,39,42,0
109.95708,110.15,40,41,0
110.15,110.35135,39,39,0
110.35135,110.54518,37,42,0
110.54518,110.73999,35,40,0
110.73999,110.9366,34,40,0
110.9366,111.13495,39,45,0
111.13495,111.33529,37,42,0
111.33529,111.545074,39,40,0
111.545074,111.63653,32,64,0
111.63653,111.727974,39,52,0
111.727974,111.81942,44,52,0
111.81942,111.910866,39,52,0
111.910866,112.00811,32,58,0
112.00811,112.105354,39,51,0
112.105354,112.1971,32,68,0
112.1971,112.28884,39,52,0
112.28884,112.380585,32,64,0
112.380585,112.47233,39,52,0
112.47233,112.56601,32,62,0
112.56601,112.65968,39,52,0
112.65968,112.75005,32,64,0
112.75005,112.84042,39,52,0
112.84042,112.930786,44,52,0
112.930786,113.02116,39,52,0
113.02116,113.117065,32,58,0
113.117065,113.21298,39,51,0
113.21298,113.30417,32,68,0
113.30417,113.395355,39,52,0
113.395355,113.48654,32,64,0
113.48654,113.57772,39,52,0
113.57772,113.67531,32,62,0
113.67531,113.772896,39,52,0
113.772896,113.863266,32,64,0
113.863266,113.95363,40,52,0
113.95363,114.044,44,52,0
114.044,114.13436,40,52,0
114.13436,114.231606,32,58,0
114.231606,114.32886,40,51,0
114.32886,114.42059,32,68,0
114.42059,114.51234,40,52,0
114.51234,114.60408,32,64,0
114.60408,114.69582,40,52,0
114.69582,114.789505,32,62,0
114.789505,114.88319,40,52,0
114.88319,114.97355,32,64,0
114.97355,115.06392,40,52,0
115.06392,115.15429,44,52,0
115.15429,115.24465,40,52,0
115.24465,115.34057,32,58,0
115.34057,115.43648,40,51,0
115.43648,115.52822,32,68,0
115.52822,115.619965,40,52,0
115.619965,115.71171,32,64,0
115.71171,115.80345,40,52,0
115.80345,115.8984,32,62,0
115.8984,115.99334,40,52,0
115.99334,117.61377,45,106,0
115.99334,117.61377,33,90,0
117.61377,117.79666,34,74,0
117.61377,117.79666,46,88,0
117.79666,117.97956,37,72,0
117.97956,118.16649,40,82,0
118.16649,118.347145,43,95,0
118.347145,118.5278,46,82,0
118.5278,118.70846,49,82,0
118.70846,118.881584,52,85,0
118.889114,119.06225,52,83,0
119.06977,119.25597,52,83,0
119.26406,119.80603,52,97,0
119.80603,120.34801,51,89,0
120.34801,120.43945,44,64,0
120.43945,120.5309,51,52,0
120.5309,120.622345,56,52,0
120.622345,120.71379,51,52,0
120.71379,120.811035,44,58,0
120.811035,120.90828,51,51,0
120.90828,120.99938,44,68,0
120.99938,121.09084,51,52,0
121.09084,121.182304,44,64,0
121.182304,121.27377,51,52,0
121.27377,121.36745,44,62,0
121.36745,121.46113,51,52,0
121.46113,121.5515,44,64,0
121.5515,121.64186,51,52,0
121.64186,121.73223,56,52,0
121.73223,121.8226,51,52,0
121.8226,121.91851,44,58,0
121.91851,122.01443,51,51,0
122.01443,122.10589,44,68,0
122.10589,122.19735,51,52,0
122.19735,122.28882,44,64,0
122.28882,122.38028,51,52,0
122.38028,122.47787,44,62,0
122.47787,122.575455,51,52,0
122.575455,122.66582,44,64,0
122.66582,122.75619,52,52,0
122.75619,122.84655,56,52,0
122.84655,122.93692,52,52,0
122.93692,123.034164,44,58,0
123.034164,123.13141,52,51,0
123.13141,123.22287,44,68,0
123.22287,123.31434,52,52,0
123.31434,123.4058,44,64,0
123.4058,123.49726,52,52,0
123.49726,123.59094,44,62,0
123.59094,123.68462,52,52,0
123.68462,123.774994,44,64,0
123.774994,123.86536,52,52,0
123.86536,123.95573,56,52,0
123.95573,124.04609,52,52,0
124.04609,124.142006,44,58,0
124.142006,124.23792,52,51,0
124.23792,124.329384,44,68,0
124.329384,124.420845,52,52,0
124.420845,124.512314,44,64,0
124.512314,124.603775,52,52,0
124.603775,124.698715,44,62,0
124.698715,124.793655,52,52,0
124.793655,126.41409,45,90,0
124.793655,126.41409,57,106,0
126.41409,126.596985,58,88,0
126.41409,126.596985,46,59,0
126.596985,126.77988,49,58,0
126.596985,126.77988,61,72,0
126.77988,126.966805,52,63,0
126.77988,126.966805,64,82,0
126.966805,127.14746,55,75,0
126.966805,127.14746,67,95,0
127.14746,127.32812,58,63,0
127.14746,127.32812,70,82,0
127.32812,127.50878,61,63,0
127.32812,127.50878,73,82,0
127.50878,127.68191,76,85,0
127.50878,127.68191,64,68,0
127.68944,127.862564,64,64,0
127.68944,127.862564,76,83,0
127.870094,128.05629,64,64,0
127.870094,128.05629,76,83,0
128.06438,128.60635,76,102,0
128.06438,128.60635,64,80,0
128.60635,129.15407,63,69,0
128.60635,129.15407,75,86,0
129.15407,129.69603,68,102,0
129.69603,130.24315,67,86,0
130.24315,130.78511,76,102,0
130.78511,131.32709,75,86,0
131.50687,132.39133,80,97,0
131.41707,132.39133,77,91,0
131.32709,132.39133,74,97,0
132.47858,133.46582,79,77,0
132.39133,133.46582,75,85,0
133.46582,134.00005,71,45,0
133.46582,134.00005,68,45,0
134.00005,134.52692,76,44,0
134.00005,134.52692,73,44,0
134.52692,135.05278,75,45,0
134.52692,135.05278,71,45,0
135.05278,135.56682,73,60,0
135.05278,135.56682,70,60,0
135.05278,135.56682,75,60,0
135.56682,136.10103,71,45,0
135.56682,136.10103,68,45,0
136.10103,136.62791,64,44,0
136.10103,136.62791,61,44,0
136.62791,137.15378,63,45,0
136.62791,137.15378,59,45,0
137.15378,137.6678,63,60,0
137.15378,137.6678,61,60,0
137.15378,137.6678,58,60,0
137.6678,138.20203,56,45,0
137.6678,138.20203,59,45,0
138.20203,138.7289,49,44,0
138.20203,138.7289,52,44,0
138.7289,139.25476,47,45,0
138.7289,139.25476,51,45,0
139.25476,139.7818,46,60,0
139.25476,139.7818,49,60,0
139.25476,139.7818,51,60,0
139.7818,140.87099,44,48,0
140.87099,141.51454,39,38,0
141.51454,142.21164,35,30,0
142.21164,143.88866,32,27,0
143.88866,144.40454,47,27,0
144.40454,144.5404,44,25,0
144.5404,146.20093,39,22,0
146.20093,146.71043,47,27,0
146.71043,146.8463,44,25,0
146.8463,148.52594,40,22,0
148.52594,149.00713,44,27,0
149.00713,149.11398,47,24,0
149.11398,149.63947,52,27,0
149.63947,150.10507,56,28,0
150.10507,150.2061,59,25,0
150.2061,150.76596,64,28,0
150.77002,151.32353,52,27,0
151.32353,152.44154,59,26,0
151.32353,152.44154,51,26,0
151.32353,152.44154,54,26,0
152.44154,153.52519,55,26,0
152.44154,153.52519,58,26,0
152.44154,153.52519,52,26,0
153.52519,153.89786,59,26,0
153.52519,153.89786,51,19,0
153.52519,153.89786,54,22,0
155.76122,156.8804,69,26,0
155.76122,156.8804,73,26,0
156.8804,157.95786,74,28,0
156.8804,157.95786,71,28,0
157.95786,158.33054,73,26,0
157.95786,158.33054,69,22,0
160.1939,161.34396,56,26,0
160.1939,161.34396,59,26,0
161.34396,162.43143,60,28,0
161.34396,162.43143,57,28,0
162.43143,162.97359,59,26,0
162.43143,162.97359,56,22,0
162.97359,164.07115,42,44,0
164.07115,164.6302,45,40,0
164.6302,165.74289,47,35,0
165.74289,166.85558,35,30,0
166.85558,167.97476,68,26,0
166.85558,167.97476,71,26,0
167.97476,169.04855,72,28,0
167.97476,169.04855,69,28,0
169.04855,169.58984,71,26,0
169.04855,169.58984,68,22,0
169.58984,170.68895,54,38,0
169.58984,170.68895,66,44,0
170.68895,171.2485,57,40,0
171.2485,172.36119,59,35,0
172.36119,172.73209,47,30,0
172.91754,173.37279,47,83,0
173.37279,173.47345,43,75,0
173.47345,175.02148,40,80,0
175.02148,175.44788,43,81,0
175.44788,175.53403,47,73,0
175.53403,176.02345,52,81,0
176.02345,176.44986,55,83,0
176.44986,176.54105,59,73,0
176.54105,177.04865,64,82,0
177.04865,177.55191,64,79,0
179.04607,179.14578,55,70,0
179.14578,179.2455,59,59,0
179.2455,179.34521,62,62,0
179.34521,179.44492,59,60,0
179.44492,179.54742,55,60,0
179.54742,179.64496,53,70,0
179.64496,179.74275,55,59,0
179.74275,179.84036,59,62,0
179.84036,179.93846,55,60,0
179.93846,180.03685,53,60,0
180.03685,180.13869,50,70,0
180.13869,180.24117,53,59,0
180.24117,180.34445,55,62,0
180.34445,180.44765,53,60,0
180.44765,180.55614,50,60,0
180.55614,180.6397,47,70,0
180.6397,180.72327,50,59,0
180.72327,180.80682,53,60,0
180.80682,180.8904,50,66,0
180.8904,180.97736,47,59,0
180.97736,181.06432,43,60,0
181.06432,181.14696,41,70,0
181.14696,181.2296,43,60,0
181.2296,181.31224,47,60,0
181.31224,181.39488,43,66,0
181.39488,181.47916,41,66,0
181.47916,181.56343,38,60,0
181.56343,183.03395,36,80,0
183.03395,183.44576,39,81,0
183.44576,183.53609,43,73,0
183.53609,184.02551,48,81,0
184.02551,184.45358,51,83,0
184.45358,184.54478,55,73,0
184.54478,185.0434,60,82,0
185.0434,185.54578,60,79,0
187.04126,187.13962,51,70,0
187.13962,187.23798,55,59,0
187.23798,187.33633,58,62,0
187.33633,187.43471,55,60,0
187.43471,187.53755,51,60,0
187.53755,187.63507,49,70,0
187.63507,187.73288,51,59,0
187.73288,187.83049,55,62,0
187.83049,187.92859,51,60,0
187.92859,188.02698,49,60,0
188.02698,188.1288,46,70,0
188.1288,188.23128,49,59,0
188.23128,188.33456,51,62,0
188.33456,188.43777,49,60,0
188.43777,188.54625,46,60,0
188.54625,188.63052,43,70,0
188.63052,188.7148,46,59,0
188.7148,188.79906,49,60,0
188.79906,188.88333,46,66,0
188.88333,188.9708,43,59,0
188.9708,189.05826,39,60,0
189.05826,189.14159,37,70,0
189.14159,189.22493,39,60,0
189.22493,189.30826,43,60,0
189.30826,189.39159,39,66,0
189.39159,189.47493,37,66,0
189.47493,189.5624,34,60,0
189.5624,191.03206,32,80,0
191.03206,191.4419,36,81,0
191.4419,191.53221,39,73,0
191.53221,192.02165,44,81,0
192.02165,192.44972,48,83,0
192.44972,192.54092,51,73,0
192.54092,193.03139,56,82,0
193.03139,193.53143,56,79,0
193.53143,193.62914,57,83,0
193.62914,193.72682,60,67,0
193.72682,193.82452,63,70,0
193.82452,193.92497,60,68,0
193.92497,194.0268,57,68,0
194.0268,194.1268,54,81,0
194.1268,194.22682,57,67,0
194.22682,194.32683,60,70,0
194.32683,194.42744,57,68,0
194.42744,194.52835,54,68,0
194.52835,194.62807,51,77,0
194.62807,194.72778,54,62,0
194.72778,194.82748,57,67,0
194.82748,194.92595,54,63,0
194.92595,195.02377,51,63,0
195.02377,195.12405,48,70,0
195.12405,195.22433,51,59,0
195.22433,195.3246,54,62,0
195.3246,195.42488,51,60,0
195.42488,195.53334,48,60,0
195.53334,195.63086,45,70,0
195.63086,195.72867,48,59,0
195.72867,195.82628,51,62,0
195.82628,195.92438,48,60,0
195.92438,196.02277,45,60,0
196.02277,196.1246,42,70,0
196.1246,196.22708,45,59,0
196.22708,196.33035,48,62,0
196.33035,196.43356,45,60,0
196.43356,196.55052,42,60,0
196.55052,196.63676,39,70,0
196.63676,196.72302,42,59,0
196.72302,196.80927,45,60,0
196.80927,196.89552,42,66,0
196.89552,196.98663,39,59,0
196.98663,197.07774,36,60,0
197.07774,197.164,33,70,0
197.164,197.25026,36,60,0
197.25026,197.3365,39,60,0
197.3365,197.42276,42,66,0
197.42276,197.509,39,66,0
197.509,197.59526,36,60,0
197.59526,197.67906,32,70,0
197.67906,197.76286,36,60,0
197.76286,197.84665,39,60,0
197.84665,197.93045,42,66,0
197.93045,198.01425,39,66,0
198.01425,198.09805,36,60,0
198.09805,198.18185,33,70,0
198.18185,198.26566,36,60,0
198.26566,198.35185,39,60,0
198.35185,198.43806,42,66,0
198.43806,198.52428,39,66,0
198.52428,198.61047,36,60,0
198.61047,198.69405,32,70,0
198.69405,198.7776,36,60,0
198.7776,198.86118,39,60,0
198.86118,198.94475,42,66,0
198.94475,199.0283,39,66,0
199.0283,199.11188,36,60,0
199.11188,199.19543,33,70,0
199.19543,199.279,36,60,0
199.279,199.36447,39,60,0
199.36447,199.44994,42,66,0
199.44994,199.53542,39,66,0
199.53542,199.62088,36,60,0
199.62088,199.70468,32,70,0
199.70468,199.78848,36,60,0
199.78848,199.87228,39,60,0
199.87228,199.95609,42,60,0
199.95609,200.03987,39,66,0
200.03987,200.12367,36,60,0
200.12367,200.20747,33,70,0
200.20747,200.29128,36,60,0
200.29128,200.37749,39,60,0
200.37749,200.46368,42,61,0
200.46368,200.5499,39,66,0
200.5499,200.63611,36,60,0
200.63611,200.71967,32,70,0
200.71967,200.80324,36,60,0
200.80324,200.88943,39,60,0
200.88943,200.97565,42,61,0
200.97565,201.06186,39,66,0
201.06186,201.14806,36,60,0
201.14806,201.2321,33,70,0
201.2321,201.31613,36,60,0
201.31613,201.40259,39,60,0
201.40259,201.48904,42,60,0
201.48904,201.5755,39,66,0
201.5755,201.66196,36,60,0
201.66196,201.83049,44,60,0
201.66196,201.83049,32,60,0
201.83049,201.97954,56,36,0
201.99309,202.14214,56,36,0
202.15569,202.30597,56,39,0
202.31963,202.4699,56,37,0
202.48357,202.63383,56,36,0
202.64749,202.79778,56,39,0
202.81143,202.96048,56,35,0
202.97403,203.12308,56,35,0
203.13663,203.28691,56,39,0
203.30057,203.45084,56,36,0
203.46451,203.61478,56,36,0
203.79698,203.94603,56,36,0
203.95958,204.10863,56,36,0
204.12218,204.27245,56,39,0
204.28612,204.43639,56,37,0
204.45004,204.60033,56,36,0
204.61398,204.77792,54,39,0
204.77792,204.92697,56,35,0
204.94052,205.08957,56,35,0
205.10312,205.25339,56,39,0
205.26706,205.41733,56,36,0
205.43098,205.58127,56,36,0
205.76346,205.91252,56,36,0
205.92607,206.07512,56,36,0
206.08867,206.23894,56,39,0
206.2526,206.40288,56,37,0
206.41653,206.5668,56,36,0
206.58047,206.7444,53,39,0
206.7444,206.89346,56,35,0
206.90701,207.05606,56,35,0
207.06961,207.21988,56,39,0
207.23354,207.38382,56,36,0
207.39748,207.54774,56,36,0
207.72534,207.87439,56,38,0
207.88794,208.037,56,38,0
208.05055,208.21315,49,40,0
208.05055,208.21315,53,40,0
208.21315,208.3622,56,37,0
208.37575,208.5248,56,37,0
208.53836,208.70229,53,37,0
208.53836,208.70229,49,37,0
208.70229,208.85255,56,37,0
208.86623,209.0165,56,37,0
209.03015,209.19409,53,37,0
209.03015,209.19409,49,37,0
209.19409,209.34436,56,37,0
209.35803,209.5083,56,37,0
209.52196,209.6859,51,39,0
209.52196,209.6859,48,39,0
209.6859,209.83536,56,37,0
209.84894,209.9984,56,37,0
210.01198,210.16226,56,38,0
210.17592,210.32619,56,37,0
210.33984,210.49013,56,37,0
210.50378,210.65405,56,37,0
210.66772,210.81677,56,37,0
210.83032,210.97937,56,37,0
210.99292,211.14319,56,38,0
211.15686,211.30313,56,37,0
211.31644,211.47873,56,37,0
211.49522,211.64551,56,39,0
211.65916,211.80943,56,37,0
211.8231,211.97055,56,37,0
211.98396,212.13141,56,38,0
212.14482,212.29227,56,37,0
212.30568,212.45595,56,37,0
212.4696,212.61865,56,38,0
212.6322,212.78127,56,39,0
212.95741,213.12001,51,44,0
212.95741,213.12001,54,44,0
213.12001,213.27069,56,37,0
213.2844,213.44037,56,37,0
213.45671,213.60698,56,39,0
213.62064,213.77092,56,37,0
213.78458,213.93242,56,37,0
213.94586,214.09372,56,37,0
214.10716,214.255,56,37,0
214.26845,214.41872,56,37,0
214.43239,214.58266,56,38,0
214.59631,214.74496,56,37,0
214.75848,214.90712,56,37,0
214.92064,215.08281,53,48,0
214.92064,215.08281,49,44,0
215.08281,215.23349,56,37,0
215.2472,215.41412,56,37,0
215.595,215.74406,56,38,0
215.75761,215.90666,56,38,0
215.92021,216.08415,49,40,0
215.92021,216.08415,53,40,0
216.08415,216.23442,56,37,0
216.24808,216.39835,56,37,0
216.41202,216.57594,53,37,0
216.41202,216.57594,49,37,0
216.57594,216.72623,56,37,0
216.73988,216.89015,56,37,0
216.90382,217.06775,53,36,0
216.90382,217.06775,49,36,0
217.06775,217.21803,56,37,0
217.23169,217.38196,56,37,0
217.55956,217.7086,56,38,0
217.72215,217.87122,56,38,0
217.88477,218.04869,48,40,0
217.88477,218.04869,51,40,0
218.04869,218.19896,56,37,0
218.21263,218.3629,56,37,0
218.5405,218.68954,56,37,0
218.7031,218.85214,56,37,0
218.86569,219.02963,52,36,0
218.86569,219.02963,49,36,0
219.02963,219.1799,56,37,0
219.19357,219.34384,56,37,0
219.52144,219.67049,56,38,0
219.68404,219.83308,56,38,0
219.84663,220.01057,48,40,0
219.84663,220.01057,51,40,0
220.01057,220.16084,56,37,0
220.17451,220.32478,56,37,0
220.50238,220.65143,56,37,0
220.66498,220.81403,56,37,0
220.82758,220.99152,52,36,0
220.82758,220.99152,49,36,0
220.99152,221.14178,56,37,0
221.15546,221.30573,56,37,0
221.48332,221.634,56,37,0
221.6477,221.79839,56,36,0
221.81209,221.97876,48,38,0
221.81209,221.97876,51,38,0
221.97876,222.13153,56,34,0
222.14542,222.2982,56,34,0
222.47969,222.63078,56,32,0
222.64452,222.79562,56,32,0
222.80936,222.97418,50,30,0
222.80936,222.97418,47,30,0
222.97418,223.12529,56,31,0
223.13902,223.29753,56,30,0
223.47722,223.63043,56,31,0
223.64435,223.79756,56,30,0
223.8115,223.97815,46,32,0
223.8115,223.97815,49,32,0
223.97815,224.13094,56,28,0
224.14482,224.30196,56,28,0
224.48526,224.63823,56,27,0
224.65216,224.80568,56,27,0
224.81969,224.98814,45,25,0
224.81969,224.98814,48,25,0
224.98814,225.14339,56,26,0
225.15755,225.31606,56,25,0
225.67741,225.84875,43,39,0
225.5059,225.84875,44,44,0
226.0197,226.19032,46,41,0
225.84875,226.19032,44,44,0
226.36069,226.52924,42,41,0
226.19032,226.52924,44,45,0
226.69452,226.85982,42,48,0
226.85982,227.02835,41,42,0
227.02835,227.19363,42,42,0
227.19363,227.35893,41,47,0
226.52924,227.35893,44,41,0
227.35893,227.53334,39,55,0
227.70332,227.87329,43,42,0
227.53334,227.87329,44,48,0
228.04326,228.21323,46,45,0
227.87329,228.21323,44,48,0
228.38321,228.55034,39,46,0
228.55034,228.71516,41,46,0
228.71516,228.88,39,50,0
228.88,229.04713,37,47,0
229.04713,229.21198,39,47,0
229.21198,229.3768,37,51,0
228.21323,229.3768,44,49,0
229.3768,229.54922,36,57,0
229.71823,229.88725,43,47,0
229.54922,229.88725,44,52,0
230.05626,230.22528,46,49,0
229.88725,230.22528,44,52,0
230.39429,230.56142,36,50,0
230.56142,230.72855,37,50,0
230.72855,230.89569,36,54,0
230.89569,231.06282,34,50,0
231.06282,231.22995,36,51,0
231.22995,231.40137,34,51,0
230.22528,231.40137,44,53,0
231.40137,231.57135,32,55,0
231.57135,231.73941,31,49,0
231.73941,231.90749,32,49,0
231.90749,232.07555,34,53,0
232.07555,232.2436,32,46,0
232.2436,232.40936,34,45,0
232.40936,232.57782,35,50,0
232.57782,232.74724,34,44,0
232.74724,232.91762,35,42,0
232.91762,233.08896,36,47,0
233.08896,233.26129,35,40,0
233.26129,233.43471,36,40,0
233.43471,233.62564,37,36,0
233.62564,233.80725,44,26,0
233.62564,233.80725,41,26,0
233.62564,233.80725,49,32,0
233.80725,233.98886,37,33,0
233.98886,234.17047,44,28,0
233.98886,234.17047,41,28,0
233.98886,234.17047,49,36,0
234.17047,234.35208,37,33,0
234.35208,234.53369,41,26,0
234.35208,234.53369,44,26,0
234.35208,234.53369,49,33,0
234.53369,234.7153,37,36,0
234.7153,234.89691,44,26,0
234.7153,234.89691,41,26,0
234.7153,234.89691,49,33,0
234.89691,235.0785,37,33,0
235.0785,235.26012,49,36,0
235.0785,235.26012,41,28,0
235.0785,235.26012,44,28,0
235.26012,235.45107,37,33,0
235.45107,235.6676,44,27,0
235.45107,235.6676,41,27,0
235.45107,235.6676,49,35,0
235.6676,235.839,37,36,0
235.839,236.01074,41,26,0
235.839,236.01074,44,26,0
235.839,236.01074,49,32,0
236.01074,236.18246,37,33,0
236.18246,236.36252,41,28,0
236.18246,236.36252,44,28,0
236.18246,236.36252,49,36,0
236.36252,236.54625,37,33,0
236.54625,236.74309,44,26,0
236.54625,236.74309,49,33,0
236.54625,236.74309,41,26,0
236.74309,236.92397,39,36,0
236.92397,237.09903,44,26,0
236.92397,237.09903,42,26,0
236.92397,237.09903,51,33,0
237.09903,237.2741,39,33,0
237.2741,237.45262,51,36,0
237.2741,237.45262,42,28,0
237.2741,237.45262,44,28,0
237.45262,237.64017,39,33,0
237.64017,237.84682,51,35,0
237.64017,237.84682,44,27,0
237.64017,237.84682,42,27,0
237.84682,238.01854,41,36,0
238.01854,238.19028,49,26,0
238.01854,238.19028,53,32,0
238.01854,238.19028,44,26,0
238.19028,238.36201,41,33,0
238.36201,238.53854,44,28,0
238.36201,238.53854,49,28,0
238.36201,238.53854,53,36,0
238.53854,238.71507,41,33,0
238.71507,238.89162,49,26,0
238.71507,238.89162,53,33,0
238.71507,238.89162,44,26,0
238.89162,239.06815,41,36,0
239.06815,239.24467,49,26,0
239.06815,239.24467,44,26,0
239.06815,239.24467,53,33,0
239.24467,239.4212,41,33,0
239.4212,239.59775,51,28,0
239.4212,239.59775,54,36,0
239.4212,239.59775,49,28,0
239.59775,239.7853,42,33,0
239.7853,239.99153,51,27,0
239.7853,239.99153,54,35,0
239.7853,239.99153,49,27,0
239.99153,240.1628,44,37,0
240.1628,240.33408,53,27,0
240.1628,240.33408,56,33,0
240.1628,240.33408,49,27,0
240.33408,240.50534,44,34,0
240.50534,240.68591,53,30,0
240.50534,240.68591,56,38,0
240.50534,240.68591,49,30,0
240.68591,240.87016,44,34,0
240.87016,241.06728,53,28,0
240.87016,241.06728,56,35,0
240.87016,241.06728,49,28,0
241.06728,241.24815,44,40,0
241.24815,241.42322,51,29,0
241.24815,241.42322,56,36,0
241.24815,241.42322,48,29,0
241.42322,241.59828,44,36,0
241.59828,241.77681,51,32,0
241.59828,241.77681,56,41,0
241.59828,241.77681,48,32,0
241.77681,241.9689,44,37,0
241.9689,242.18286,51,30,0
241.9689,242.18286,56,37,0
241.9689,242.18286,48,30,0
242.18286,242.36658,45,51,0
242.36658,242.55031,57,41,0
242.36658,242.55031,53,33,0
242.36658,242.55031,48,33,0
242.55031,242.73402,45,45,0
242.73402,242.91357,57,38,0
242.73402,242.91357,53,29,0
242.73402,242.91357,48,29,0
242.91357,243.09311,45,36,0
243.09311,243.27266,57,38,0
243.09311,243.27266,53,28,0
243.09311,243.27266,48,28,0
243.27266,243.45221,45,39,0
243.45221,243.63174,57,36,0
243.45221,243.63174,53,28,0
243.45221,243.63174,48,28,0
243.63174,243.8113,45,39,0
243.8113,243.99083,49,27,0
243.8113,243.99083,58,35,0
243.8113,243.99083,53,27,0
243.99083,244.17839,46,33,0
244.17839,244.3937,58,34,0
244.17839,244.3937,53,27,0
244.17839,244.3937,49,27,0
244.3937,244.57072,46,37,0
244.57072,244.74776,58,34,0
244.57072,244.74776,53,27,0
244.57072,244.74776,49,27,0
244.74776,244.92477,46,36,0
244.92477,245.10358,58,39,0
244.92477,245.10358,53,30,0
244.92477,245.10358,49,30,0
245.10358,245.28519,46,37,0
245.28519,245.48097,49,29,0
245.28519,245.48097,58,38,0
245.28519,245.48097,53,29,0
245.48097,245.66185,48,40,0
245.66185,245.8369,60,38,0
245.66185,245.8369,53,29,0
245.66185,245.8369,51,29,0
245.8369,246.01196,48,39,0
246.01196,246.19514,53,34,0
246.01196,246.19514,60,42,0
246.01196,246.19514,51,34,0
246.19514,246.3827,48,40,0
246.3827,246.61223,51,33,0
246.3827,246.61223,60,42,0
246.3827,246.61223,53,33,0
246.61223,246.78926,49,37,0
246.78926,246.96628,61,34,0
246.78926,246.96628,58,27,0
246.78926,246.96628,53,27,0
246.96628,247.1433,49,36,0
247.1433,247.3221,61,39,0
247.1433,247.3221,58,30,0
247.1433,247.3221,53,30,0
247.3221,247.50371,49,37,0
247.50371,247.6995,53,29,0
247.50371,247.6995,61,38,0
247.50371,247.6995,58,29,0
247.6995,247.88037,49,40,0
247.88037,248.05544,61,38,0
247.88037,248.05544,58,29,0
247.88037,248.05544,53,29,0
248.05544,248.23048,49,39,0
248.23048,248.40555,58,28,0
248.23048,248.40555,63,36,0
248.23048,248.40555,54,28,0
248.40555,248.59311,51,33,0
248.59311,248.79935,58,27,0
248.59311,248.79935,63,35,0
248.59311,248.79935,54,27,0
248.79935,248.97061,53,37,0
248.97061,249.14189,61,27,0
248.97061,249.14189,65,33,0
248.97061,249.14189,58,27,0
249.14189,249.31316,53,34,0
249.31316,249.49373,61,30,0
249.31316,249.49373,65,38,0
249.31316,249.49373,58,30,0
249.49373,249.67798,53,34,0
249.67798,249.87509,58,28,0
249.67798,249.87509,65,35,0
249.67798,249.87509,61,28,0
249.87509,250.05597,53,40,0
250.05597,250.23103,63,37,0
250.05597,250.23103,57,29,0
250.05597,250.23103,60,29,0
250.23103,250.40608,53,37,0
250.40608,250.58461,63,42,0
250.40608,250.58461,57,33,0
250.40608,250.58461,60,33,0
250.58461,250.77672,53,38,0
250.77672,250.99066,63,38,0
250.77672,250.99066,57,31,0
250.77672,250.99066,60,31,0
250.99066,251.1744,54,53,0
251.1744,251.35811,58,34,0
251.1744,251.35811,61,34,0
251.1744,251.35811,66,43,0
251.35811,251.54184,54,47,0
251.54184,251.72137,58,35,0
251.54184,251.72137,61,35,0
251.54184,251.72137,66,46,0
251.72137,251.90092,54,43,0
251.90092,252.08047,58,34,0
251.90092,252.08047,61,34,0
251.90092,252.08047,66,46,0
252.08047,252.26001,54,47,0
252.26001,252.43956,58,34,0
252.26001,252.43956,61,34,0
252.26001,252.43956,66,44,0
252.43956,252.6191,54,47,0
252.6191,252.79865,66,46,0
252.6191,252.79865,61,35,0
252.6191,252.79865,58,35,0
252.79865,252.98141,54,42,0
252.98141,253.17613,61,35,0
252.98141,253.17613,58,35,0
252.98141,253.17613,66,44,0
253.17613,253.35315,54,48,0
253.35315,253.53018,58,35,0
253.35315,253.53018,61,35,0
253.35315,253.53018,66,44,0
253.53018,253.7072,54,47,0
253.7072,253.886,58,39,0
253.7072,253.886,61,39,0
253.7072,253.886,66,50,0
253.886,254.06761,54,48,0
254.06761,254.2634,61,37,0
254.06761,254.2634,66,49,0
254.06761,254.2634,58,37,0
254.2634,254.44427,56,52,0
254.44427,254.61932,61,37,0
254.44427,254.61932,59,37,0
254.44427,254.61932,68,49,0
254.61932,254.79439,56,50,0
254.79439,254.97456,59,44,0
254.79439,254.97456,68,55,0
254.79439,254.97456,61,44,0
254.97456,255.15976,56,52,0
255.15976,255.36183,61,42,0
255.15976,255.36183,68,55,0
255.15976,255.36183,59,42,0
255.36183,255.53886,58,48,0
255.53886,255.71588,66,35,0
255.53886,255.71588,61,35,0
255.53886,255.71588,70,44,0
255.71588,255.8929,58,47,0
255.8929,256.0717,66,33,0
255.8929,256.0717,61,33,0
255.8929,256.0717,70,42,0
256.0717,256.2533,58,40,0
256.2533,256.4349,70,44,0
256.2533,256.4349,66,33,0
256.2533,256.4349,61,33,0
256.4349,256.60867,58,50,0
256.60867,256.78165,61,37,0
256.60867,256.78165,66,37,0
256.60867,256.78165,70,49,0
256.78165,256.95383,58,52,0
256.95383,257.12518,61,38,0
256.95383,257.12518,70,51,0
256.95383,257.12518,66,38,0
257.12518,257.31274,58,48,0
257.31274,257.5234,61,41,0
257.31274,257.5234,70,55,0
257.31274,257.5234,66,41,0
257.5234,257.7004,59,57,0
257.7004,257.87744,66,35,0
257.7004,257.87744,62,35,0
257.7004,257.87744,71,44,0
257.87744,258.05447,59,47,0
258.05447,258.23325,66,33,0
258.05447,258.23325,62,33,0
258.05447,258.23325,71,42,0
258.23325,258.41486,59,40,0
258.41486,258.59647,71,44,0
258.41486,258.59647,66,33,0
258.41486,258.59647,62,33,0
258.59647,258.77057,59,50,0
258.77057,258.94223,62,37,0
258.77057,258.94223,66,37,0
258.77057,258.94223,71,49,0
258.94223,259.11148,59,53,0
259.11148,259.279,62,38,0
259.11148,259.279,71,52,0
259.11148,259.279,66,38,0
259.279,259.46655,59,49,0
259.46655,259.675,62,42,0
259.46655,259.675,71,56,0
259.46655,259.675,66,42,0
259.675,259.8499,59,60,0
259.8499,260.02484,71,46,0
259.8499,260.02484,67,36,0
259.8499,260.02484,62,36,0
260.02484,260.19977,59,49,0
260.19977,260.37857,71,45,0
260.19977,260.37857,67,34,0
260.19977,260.37857,62,34,0
260.37857,260.56018,59,42,0
260.56018,260.7418,62,35,0
260.56018,260.7418,71,47,0
260.56018,260.7418,67,35,0
260.7418,260.91354,59,53,0
260.91354,261.0831,71,51,0
260.91354,261.0831,67,39,0
260.91354,261.0831,62,39,0
261.0831,261.25064,59,56,0
261.25064,261.416,67,40,0
261.25064,261.416,71,55,0
261.25064,261.416,62,40,0
261.416,261.60355,59,51,0
261.60355,261.81198,67,44,0
261.60355,261.81198,71,59,0
261.60355,261.81198,62,44,0
261.81198,261.98642,60,64,0
261.98642,262.16083,72,48,0
261.98642,262.16083,67,38,0
261.98642,262.16083,64,38,0
262.16083,262.33524,60,51,0
262.33524,262.51404,72,48,0
262.33524,262.51404,67,37,0
262.33524,262.51404,64,37,0
262.51404,262.69565,60,47,0
262.69565,262.87726,64,37,0
262.69565,262.87726,72,50,0
262.69565,262.87726,67,37,0
262.87726,263.04837,60,57,0
263.04837,263.21713,72,55,0
263.04837,263.21713,67,41,0
263.04837,263.21713,64,41,0
263.21713,263.38358,60,59,0
263.38358,263.54843,67,44,0
263.38358,263.54843,72,58,0
263.38358,263.54843,64,44,0
263.54843,263.73193,60,55,0
263.73193,263.93875,67,47,0
263.73193,263.93875,72,61,0
263.73193,263.93875,64,47,0
264.26663,264.9591,73,78,0
264.1027,264.9591,67,78,0
263.93875,264.9591,61,102,0
264.02072,264.9591,64,78,0
264.18466,264.9591,70,78,0
265.28967,265.98157,76,79,0
265.1244,265.98157,70,78,0
264.9591,265.98157,64,101,0
265.04175,265.98157,67,78,0
265.20703,265.98157,73,78,0
266.2295,266.97012,76,84,0
265.98157,266.97012,67,101,0
266.0642,266.97012,70,84,0
266.14685,266.97012,73,84,0
267.13098,267.96335,76,86,0
267.05054,267.96335,73,84,0
266.97012,267.96335,70,100,0
268.12625,268.4537,79,84,0
268.04495,268.4537,76,84,0
267.96335,268.4537,73,96,0
268.6163,268.94354,82,84,0
268.535,268.94354,79,84,0
268.4537,268.94354,76,98,0
268.94354,269.0251,79,100,0
269.0251,269.1066,82,84,0
269.1066,269.1881,85,84,0
269.43472,269.51624,82,100,0
269.51624,269.59778,85,84,0
269.59778,269.6793,88,84,0
269.92804,270.0087,85,102,0
270.0087,270.0853,88,84,0
270.41193,270.4915,82,97,0
270.4915,270.5671,85,84,0
270.88834,270.96747,79,96,0
270.96747,271.04248,82,84,0
271.3616,271.44012,76,96,0
271.44012,271.51474,79,84,0
271.83163,271.9097,73,96,0
271.9097,271.98373,76,84,0
272.29855,272.3761,70,96,0
272.3761,272.44968,73,84,0
272.76443,272.84213,67,96,0
272.84213,272.916,70,84,0
273.23074,273.30847,64,96,0
273.30847,273.3823,67,84,0
273.69705,273.77478,61,91,0
273.77478,273.8486,64,80,0
274.1634,274.24112,58,91,0
274.24112,274.31494,61,80,0
274.6297,274.70743,55,91,0
274.70743,274.78125,58,80,0
275.09604,275.17374,52,91,0
275.17374,275.2476,55,80,0
275.56256,275.64075,49,91,0
275.64075,275.71527,52,80,0
276.03625,276.11633,46,91,0
276.11633,276.1926,49,80,0
276.52094,276.60284,43,91,0
276.60284,276.68097,46,80,0
277.01715,277.101,40,91,0
277.101,277.181,43,80,0
277.5249,277.88452,37,104,0
278.06433,278.24026,73,106,0
278.24026,278.41623,73,100,0
278.41623,278.5922,73,100,0
278.5922,278.9441,73,105,0
279.12445,279.3004,37,98,0
279.3004,279.47635,37,93,0
279.47635,279.6523,37,93,0
279.6523,280.0119,37,100,0
280.1917,280.36768,73,106,0
280.36768,280.5436,73,100,0
280.5436,280.71957,73,100,0
280.71957,281.07147,73,105,0
281.25183,281.4278,37,98,0
281.4278,281.60376,37,93,0
281.60376,281.7797,37,93,0
281.7797,282.1393,36,100,0
282.31912,282.49506,73,106,0
282.49506,282.67102,73,100,0
282.67102,282.84695,73,100,0
282.84695,283.19888,72,105,0
283.37924,283.5552,37,98,0
283.5552,283.73114,37,93,0
283.73114,283.9071,37,93,0
283.9071,284.2667,36,100,0
284.4465,284.62247,73,106,0
284.62247,284.7984,73,100,0
284.7984,284.97437,73,100,0
284.97437,285.32626,72,105,0
285.50662,285.69977,37,110,0
285.69977,285.8929,37,105,0
285.8929,286.09653,37,105,0
286.09653,286.26474,36,59,0
286.28003,286.4482,36,30,0
286.4635,286.6317,36,30,0
286.647,286.8152,36,32,0
286.83047,286.99866,36,27,0
287.01395,287.18216,36,27,0
287.19745,287.36563,36,30,0
287.38092,287.54913,36,24,0
287.56442,287.7326,36,24,0
287.7479,287.9161,36,28,0
287.9314,288.09958,36,22,0
288.11487,288.28308,36,22,0
288.29837,288.46655,36,24,0
288.48184,288.65005,36,22,0
288.66534,288.83353,36,22,0
288.84882,289.01703,36,24,0
289.03232,289.2005,36,20,0
289.2158,289.384,36,20,0
289.3993,289.56747,36,23,0
289.58276,289.75095,36,18,0
289.76627,289.93445,36,23,0
289.94974,290.11792,36,23,0
290.1332,290.30142,36,20,0
290.3167,290.4849,36,22,0
290.50018,290.6684,36,23,0
290.6837,290.85187,36,20,0
290.86716,291.03537,36,22,0
291.05066,291.21884,36,23,0
291.23413,291.40234,36,20,0
291.41763,291.58582,36,22,0
291.6011,291.77585,36,23,0
291.79172,291.96646,36,20,0
291.98233,292.15704,36,22,0
292.17294,292.34766,36,23,0
292.36356,292.5407,36,20,0
292.55682,292.74237,36,22,0
292.76016,292.92053,36,23,0
292.9351,293.09546,36,20,0
293.11002,293.2704,36,22,0
293.28494,293.45386,36,23,0
293.4692,293.64075,36,20,0
293.65634,293.83398,36,22,0
293.8508,294.01968,36,23,0
294.03506,294.20395,36,20,0
294.2193,294.39774,36,22,0
294.41394,294.58286,36,23,0
294.5982,294.7671,36,20,0
294.78244,294.95135,36,22,0
294.9667,295.1356,36,23,0
295.15097,295.31985,36,20,0
295.3352,295.50412,36,22,0
295.51947,295.68835,36,23,0
295.7037,295.87262,36,20,0
295.88797,296.06894,36,22,0
296.0854,296.23862,36,23,0
296.25253,296.4043,36,20,0
296.41803,296.5692,36,22,0
296.58304,296.73608,36,23,0
296.75186,296.93405,36,20,0
296.9515,297.15176,36,22,0
297.1709,297.34222,36,23,0
297.35782,297.52914,36,20,0
297.5447,297.71606,36,22,0
297.73163,297.90298,36,23,0
297.91855,298.0899,36,20,0
298.10547,298.27682,36,22,0
298.2924,298.48627,36,23,0
298.5039,298.6821,37,20,0
298.6983,298.8765,37,22,0
298.8927,299.0674,37,23,0
299.08328,299.26926,37,20,0
299.28616,299.5002,37,22,0
299.52274,299.69165,37,23,0
299.707,299.8759,37,20,0
299.89124,300.06015,37,22,0
300.0755,300.2444,37,23,0
300.25974,300.42865,37,20,0
300.444,300.6129,37,22,0
300.62827,300.80298,37,23,0
300.81888,300.9936,37,20,0
301.00946,301.1842,37,22,0
301.20007,301.37482,37,23,0
301.3907,301.57104,37,20,0
301.58746,301.77475,37,22,0
301.79254,301.95288,37,23,0
301.96747,302.1278,37,20,0
302.1424,302.30273,37,22,0
302.31732,302.4862,37,23,0
302.5016,302.67166,37,20,0
302.6871,302.86395,37,22,0
302.88077,303.04965,37,23,0
303.065,303.23392,37,20,0
303.24927,303.42767,37,22,0
303.4439,303.6128,37,23,0
303.62814,303.79706,37,20,0
303.8124,303.9813,37,22,0
303.99667,304.16556,37,23,0
304.1809,304.34982,37,20,0
304.36517,304.53406,37,22,0
304.5494,304.71832,37,23,0
304.73367,304.90256,37,20,0
304.91794,305.0989,37,22,0
305.11536,305.2694,37,23,0
305.28333,305.43588,37,20,0
305.4497,305.60123,37,22,0
305.61505,305.7688,37,23,0
305.78458,305.9668,37,20,0
305.98425,306.1845,37,22,0
306.20364,306.37323,37,23,0
306.38864,306.55823,35,15,0
306.38864,306.55823,41,20,0
306.57367,306.74326,35,16,0
306.57367,306.74326,41,22,0
306.75867,306.92828,35,17,0
306.75867,306.92828,41,23,0
306.9437,307.11328,35,15,0
306.9437,307.11328,41,20,0
307.1287,307.2983,35,16,0
307.1287,307.2983,41,22,0
307.31372,307.4833,35,17,0
307.31372,307.4833,41,23,0
307.49872,307.66833,41,20,0
307.49872,307.66833,35,15,0
307.68375,307.85333,41,22,0
307.68375,307.85333,35,16,0
307.86874,308.03836,41,23,0
307.86874,308.03836,35,17,0
308.05377,308.22336,41,20,0
308.05377,308.22336,35,15,0
308.23877,308.4084,41,22,0
308.23877,308.4084,35,16,0
308.60776,308.7764,36,20,0
308.79175,308.9604,36,22,0
308.9757,309.14435,36,23,0
309.15967,309.3283,36,20,0
309.34366,309.52463,36,22,0
308.4238,309.54108,40,26,0
309.70914,309.86176,36,20,0
309.87558,310.02747,36,22,0
310.04132,310.1945,36,23,0
310.20847,310.37988,36,20,0
310.39734,310.5976,36,22,0
309.54108,310.6167,41,26,0
310.6167,310.79022,40,26,0
310.806,310.9795,36,20,0
310.99527,311.16876,36,22,0
311.18454,311.36026,36,23,0
311.18454,311.36026,49,27,0
311.37622,311.55597,49,26,0
311.37622,311.55597,36,20,0
311.5723,311.75876,36,22,0
311.5723,311.75876,49,26,0
311.7757,311.94528,36,26,0
311.96072,312.1303,36,20,0
311.7757,312.14572,48,26,0
312.14572,312.3153,36,22,0
312.33075,312.50034,36,23,0
312.51575,312.68536,36,20,0
312.70078,312.87036,36,22,0
313.06976,313.2384,36,20,0
313.25372,313.42236,36,22,0
313.43768,313.60632,36,23,0
313.62167,313.7903,36,20,0
313.80563,313.9866,36,22,0
312.88577,314.00305,43,26,0
314.1711,314.32388,36,20,0
314.3377,314.49023,36,22,0
314.50415,314.65793,36,23,0
314.67197,314.84372,36,20,0
314.86118,315.06143,36,22,0
314.00305,315.08057,44,26,0
315.08057,315.24927,43,26,0
315.26462,315.43332,36,20,0
315.44864,315.61737,36,22,0
315.6327,315.809,49,27,0
315.6327,315.809,36,23,0
315.825,316.00592,36,20,0
315.825,316.00592,49,26,0
316.02237,316.20883,36,22,0
316.02237,316.20883,49,26,0
316.22577,316.3949,36,26,0
316.41025,316.57938,36,20,0
316.22577,316.59476,48,26,0
316.59476,316.76385,36,22,0
316.77924,316.95496,36,23,0
316.97095,317.15366,36,20,0
317.17026,317.35928,36,22,0
317.37646,317.5462,36,26,0
317.56165,317.73138,36,20,0
317.74683,317.91656,36,22,0
317.932,318.11002,36,23,0
317.932,318.11002,49,27,0
318.1262,318.3089,49,26,0
318.1262,318.3089,36,20,0
318.32553,318.51584,49,26,0
318.32553,318.51584,36,22,0
318.53314,318.70447,36,26,0
318.72006,318.89032,36,20,0
318.53314,318.9058,48,26,0
318.9058,319.07608,36,22,0
319.09155,319.27072,36,43,0
319.28702,319.47095,36,38,0
319.48767,319.67603,36,41,0
319.69315,319.84506,36,50,0
319.85883,320.01016,36,40,0
320.0239,320.1747,36,43,0
320.18842,320.33865,36,47,0
320.35226,320.50195,36,43,0
320.51553,320.66473,36,45,0
320.67828,320.82693,36,55,0
320.84045,320.9891,36,45,0
321.00262,321.15128,36,48,0
321.16476,321.31342,36,52,0
321.32693,321.4756,36,47,0
321.4891,321.5702,55,75,0
321.4891,321.63776,36,50,0
321.5702,321.65128,58,63,0
321.65128,321.73242,52,76,0
321.65128,321.8003,36,61,0
321.73242,321.81387,55,65,0
321.81387,321.8991,46,77,0
321.81387,321.98105,36,49,0
321.8991,321.99747,52,62,0
321.99747,322.07986,43,76,0
321.99747,322.14874,36,52,0
322.07986,322.1625,46,69,0
322.1625,322.24545,49,80,0
322.1625,322.31485,36,57,0
322.24545,322.32874,46,70,0
322.32874,322.4122,52,81,0
322.32874,322.4821,36,51,0
322.4122,322.4961,49,71,0
322.4961,322.5803,55,86,0
322.4961,322.65063,36,54,0
322.5803,322.6647,52,78,0
322.6647,322.83542,31,61,0
322.6647,322.83542,43,66,0
322.6647,322.83542,58,94,0
322.83542,323.08032,36,58,0
323.08032,323.32523,36,57,0
323.32523,323.59192,29,62,0
323.32523,323.59192,56,93,0
323.32523,323.59192,49,93,0
323.32523,323.59192,61,93,0
323.32523,323.59192,41,68,0
323.59192,323.91278,36,78,0
323.91278,324.25964,36,66,0
324.25964,326.646,55,48,0
324.25964,326.646,60,48,0
324.25964,326.646,52,48,0
324.25964,326.646,36,40,0
324.25964,326.646,40,40,0
326.71417,327.27625,36,27,0
327.27625,327.3718,33,25,0
327.3718,327.59567,29,81,0
327.75916,328.08273,36,69,0
327.75916,328.08273,33,61,0
327.75916,328.08273,29,61,0
327.75916,328.08273,41,81,0
328.08612,328.4097,29,57,0
328.08612,328.4097,33,57,0
328.08612,328.4097,36,64,0
328.08612,328.4097,41,76,0
328.41312,328.73666,36,63,0
328.41312,328.73666,33,55,0
328.41312,328.73666,29,55,0
328.41312,328.73666,41,73,0
328.74008,329.06366,29,61,0
328.74008,329.06366,33,61,0
328.74008,329.06366,36,69,0
328.74008,329.06366,41,81,0
329.06705,329.4054,36,63,0
329.06705,329.4054,33,55,0
329.06705,329.4054,29,55,0
329.06705,329.4054,41,73,0
329.40912,331.01627,41,81,0
329.40912,331.01627,29,61,0
329.40912,331.01627,33,61,0
329.40912,331.01627,36,69,0
331.01627,331.46033,33,33,0
331.46033,331.55865,36,28,0
331.55865,332.04214,41,34,0
332.04214,332.4705,45,34,0
332.4705,332.56345,48,29,0
332.56345,333.07852,53,34,0
333.08224,333.6081,41,31,0
333.6081,333.8301,55,81,0
333.6081,333.8301,52,81,0
333.83197,334.15555,55,75,0
333.99545,334.31903,40,61,0
333.99545,334.31903,48,81,0
333.99545,334.31903,43,69,0
334.32242,334.646,48,76,0
334.32242,334.646,40,57,0
334.32242,334.646,43,64,0
334.6494,334.973,43,63,0
334.6494,334.973,48,73,0
334.6494,334.973,40,55,0
334.97638,335.29996,40,61,0
334.97638,335.29996,48,81,0
334.97638,335.29996,43,69,0
335.30334,335.76355,43,63,0
335.30334,335.76355,48,73,0
335.30334,335.76355,40,55,0
335.76987,336.79922,67,30,0
335.76987,336.79922,64,30,0
336.79922,337.86356,68,30,0
336.79922,337.86356,71,30,0
336.79922,337.86356,65,30,0
337.86356,338.08557,52,81,0
337.86356,338.08557,55,81,0
338.08746,338.411,55,75,0
338.25095,338.5745,43,69,0
338.25095,338.5745,40,61,0
338.25095,338.5745,48,81,0
338.5779,338.9015,43,64,0
338.5779,338.9015,48,76,0
338.5779,338.9015,40,57,0
338.90488,339.22845,40,55,0
338.90488,339.22845,48,73,0
338.90488,339.22845,43,63,0
339.23187,339.55542,43,69,0
339.23187,339.55542,48,81,0
339.23187,339.55542,40,61,0
339.55884,340.01755,40,55,0
339.55884,340.01755,48,73,0
339.55884,340.01755,43,63,0
340.02383,341.05316,64,30,0
340.02383,341.05316,67,30,0
341.05316,342.11752,65,30,0
341.05316,342.11752,68,29,0
342.50488,342.82846,46,69,0
342.50488,342.82846,52,81,0
342.50488,342.82846,43,61,0
342.83188,343.15543,52,76,0
342.83188,343.15543,43,57,0
342.83188,343.15543,46,64,0
343.15884,343.48242,46,63,0
343.15884,343.48242,52,73,0
343.15884,343.48242,43,55,0
343.4858,343.8094,43,61,0
343.4858,343.8094,52,81,0
343.4858,343.8094,46,69,0
343.8128,344.2715,46,63,0
343.8128,344.2715,52,73,0
343.8128,344.2715,43,55,0
344.2778,345.30713,70,36,0
344.2778,345.30713,67,36,0
345.30713,346.3715,72,36,0
345.30713,346.3715,68,36,0
346.75885,347.08243,49,61,0
346.75885,347.08243,46,61,0
346.75885,347.08243,52,69,0
346.75885,347.08243,55,81,0
347.08582,347.4094,67,76,0
347.08582,347.4094,58,57,0
347.08582,347.4094,64,64,0
347.08582,347.4094,61,57,0
347.4128,347.73636,61,55,0
347.4128,347.73636,58,55,0
347.4128,347.73636,64,63,0
347.4128,347.73636,67,73,0
347.73978,348.06335,58,61,0
347.73978,348.06335,61,61,0
347.73978,348.06335,64,69,0
347.73978,348.06335,67,81,0
348.06674,348.52545,64,63,0
348.06674,348.52545,61,55,0
348.06674,348.52545,58,55,0
348.06674,348.52545,67,73,0
348.53174,349.56543,73,59,0
348.53174,349.56543,70,59,0
349.56543,350.63507,74,59,0
349.56543,350.63507,71,59,0
350.63507,350.799,60,39,0
350.799,350.94806,72,36,0
350.9616,351.1107,72,36,0
351.12424,351.2745,72,39,0
351.28815,351.43845,72,37,0
351.4521,351.60236,72,36,0
351.61603,351.7663,72,39,0
351.77997,351.92902,72,35,0
351.94257,352.0916,72,35,0
352.10516,352.25543,72,39,0
352.2691,352.41937,72,36,0
352.43304,352.5833,72,36,0
352.7609,352.90915,72,38,0
352.92264,353.07086,72,38,0
353.08435,353.2483,65,39,0
353.08435,353.2483,68,39,0
353.2483,353.39856,72,37,0
353.41223,353.5625,72,37,0
353.57614,353.72644,72,41,0
353.74008,353.88913,72,37,0
353.90268,354.05176,72,38,0
354.0653,354.21558,72,46,0
354.22922,354.3795,72,40,0
354.39316,354.54343,72,40,0
354.72104,354.8701,72,38,0
354.88364,355.03268,72,38,0
355.04623,355.20883,65,40,0
355.04623,355.20883,68,40,0
355.20883,355.35788,72,37,0
355.37143,355.52048,72,37,0
355.53403,355.69797,68,37,0
355.53403,355.69797,65,37,0
355.69797,355.84824,72,37,0
355.8619,356.01218,72,37,0
356.02585,356.1898,68,37,0
356.02585,356.1898,65,37,0
356.1898,356.34006,72,37,0
356.3537,356.504,72,37,0
356.51764,356.68158,67,39,0
356.51764,356.68158,64,39,0
356.68158,356.83102,60,37,0
356.84464,356.99408,60,37,0
357.00766,357.15793,60,38,0
357.1716,357.32187,60,37,0
357.33554,357.4858,60,37,0
357.49948,357.64975,60,37,0
357.6634,357.81247,60,37,0
357.82602,357.97507,60,37,0
357.98862,358.1389,60,38,0
358.15256,358.29883,60,37,0
358.3121,358.47443,60,37,0
358.4909,358.64117,60,39,0
358.65485,358.8051,60,37,0
358.8188,358.96625,60,37,0
358.97964,359.1271,60,38,0
359.1405,359.28796,60,37,0
359.30136,359.45163,60,37,0
359.4653,359.61435,60,38,0
359.6279,359.77695,60,39,0
359.7905,359.93954,60,37,0
359.9531,360.1157,58,44,0
359.9531,360.1157,55,44,0
360.1157,360.2664,60,37,0
360.2801,360.43607,60,37,0
360.4524,360.60266,60,39,0
360.61633,360.7666,60,37,0
360.78027,360.9281,60,37,0
360.94156,361.08942,60,37,0
361.10284,361.2507,60,37,0
361.26413,361.4144,60,37,0
361.42807,361.57834,60,38,0
361.592,361.74066,60,37,0
361.75415,361.9028,60,37,0
361.91632,362.0785,53,44,0
361.91632,362.0785,56,48,0
362.0785,362.2292,60,37,0
362.24286,362.40982,60,37,0
362.5907,362.73975,60,38,0
362.7533,362.90234,60,38,0
362.9159,363.07983,56,40,0
362.9159,363.07983,53,40,0
363.07983,363.2301,60,37,0
363.24377,363.39404,60,37,0
363.4077,363.57162,53,37,0
363.4077,363.57162,56,37,0
363.57162,363.7219,60,37,0
363.73557,363.88583,60,37,0
363.8995,364.06345,53,36,0
363.8995,364.06345,56,36,0
364.06345,364.2137,60,37,0
364.2274,364.37766,60,37,0
364.55524,364.70428,60,38,0
364.71783,364.86688,60,38,0
364.88043,365.04437,55,40,0
364.88043,365.04437,52,40,0
365.04437,365.19464,60,37,0
365.2083,365.35858,60,37,0
365.5362,365.68524,60,37,0
365.6988,365.84784,60,37,0
365.8614,366.02533,51,36,0
365.8614,366.02533,54,36,0
366.02533,366.1756,60,37,0
366.18924,366.33954,60,37,0
366.51938,366.67007,60,37,0
366.68378,366.83447,60,36,0
366.84818,367.01483,53,38,0
366.84818,367.01483,50,38,0
367.01483,367.1676,60,34,0
367.1815,367.33426,60,34,0
367.51575,367.66687,60,32,0
367.6806,367.8317,60,32,0
367.84543,368.01025,49,30,0
367.84543,368.01025,53,30,0
368.01025,368.16138,60,31,0
368.1751,368.3336,60,30,0
368.5156,368.66925,48,25,0
368.6832,368.83728,48,26,0
368.85126,369.00534,48,28,0
369.01935,369.17383,48,26,0
369.18787,369.34238,48,26,0
369.3564,369.51135,48,28,0
369.52542,369.68036,48,26,0
369.69446,369.84982,48,26,0
369.86392,370.01932,48,28,0
370.03342,370.18924,48,26,0
370.2034,370.35922,48,27,0
370.55237,370.72284,36,25,0
370.72284,370.89362,36,26,0
370.37338,370.89362,48,41,0
370.37338,370.89362,55,41,0
370.37338,370.89362,46,41,0
370.37338,370.89362,52,41,0
370.89362,371.06464,36,28,0
371.06464,371.23605,36,26,0
371.23605,371.40784,36,26,0
371.40784,371.57983,36,28,0
371.57983,371.75308,36,26,0
371.75308,371.92816,36,26,0
371.92816,372.10507,36,28,0
372.10507,372.2839,36,26,0
372.2839,372.46472,36,27,0
372.46472,372.65567,29,28,0
372.65567,372.83728,41,25,0
372.65567,372.83728,36,20,0
372.65567,372.83728,33,20,0
372.83728,373.0189,29,26,0
373.0189,373.2005,41,28,0
373.0189,373.2005,36,22,0
373.0189,373.2005,33,22,0
373.2005,373.3821,29,26,0
373.3821,373.56372,41,26,0
373.3821,373.56372,36,20,0
373.3821,373.56372,33,20,0
373.56372,373.74533,29,28,0
373.74533,373.92694,41,26,0
373.74533,373.92694,36,20,0
373.74533,373.92694,33,20,0
373.92694,374.10855,29,26,0
374.10855,374.29016,41,28,0
374.10855,374.29016,33,22,0
374.10855,374.29016,36,22,0
374.29016,374.48108,29,26,0
374.10855,374.57654,45,40,0
374.57654,374.69763,48,37,0
374.48108,374.69763,36,21,0
374.48108,374.69763,33,21,0
374.48108,374.69763,41,27,0
374.69763,374.86902,29,28,0
374.86902,375.04077,41,25,0
374.86902,375.04077,36,20,0
374.86902,375.04077,33,20,0
375.04077,375.2125,29,26,0
375.2125,375.39255,33,22,0
375.2125,375.39255,36,22,0
375.2125,375.39255,41,28,0
375.39255,375.57626,29,26,0
375.57626,375.7731,33,20,0
375.57626,375.7731,41,26,0
375.57626,375.7731,36,20,0
375.7731,375.95398,31,28,0
375.95398,376.12906,43,26,0
375.95398,376.12906,40,20,0
375.95398,376.12906,34,20,0
376.12906,376.3041,31,26,0
376.3041,376.48264,40,22,0
376.3041,376.48264,43,28,0
376.3041,376.48264,34,22,0
376.48264,376.6702,31,26,0
376.6702,376.87683,34,21,0
376.6702,376.87683,43,27,0
376.6702,376.87683,40,21,0
376.87683,377.04858,33,28,0
377.04858,377.2203,36,20,0
377.04858,377.2203,45,25,0
377.04858,377.2203,41,20,0
377.2203,377.39203,33,26,0
377.39203,377.56857,36,22,0
377.39203,377.56857,41,22,0
377.39203,377.56857,45,28,0
377.56857,377.7451,33,26,0
377.7451,377.92163,41,20,0
377.7451,377.92163,45,26,0
377.7451,377.92163,36,20,0
377.92163,378.09818,33,28,0
378.09818,378.2747,41,20,0
378.09818,378.2747,36,20,0
378.09818,378.2747,45,26,0
378.2747,378.45123,33,26,0
377.39203,378.45123,48,40,0
378.45123,378.62778,41,28,0
378.62778,378.81534,34,26,0
378.45123,378.90912,50,40,0
378.90912,379.02155,46,37,0
378.81534,379.02155,41,27,0
379.02155,379.19284,36,28,0
379.19284,379.3641,41,25,0
379.3641,379.53537,36,26,0
379.02155,379.53537,45,40,0
379.53537,379.71594,41,28,0
379.71594,379.9002,36,25,0
379.53537,379.9923,48,40,0
379.9923,380.0973,45,36,0
379.9002,380.0973,41,25,0
380.0973,380.27817,36,28,0
380.27817,380.45325,40,25,0
380.45325,380.6283,36,25,0
380.0973,380.6283,43,40,0
380.6283,380.80682,40,28,0
380.80682,380.99893,36,25,0
380.6283,381.09497,48,40,0
381.09497,381.2129,46,36,0
380.99893,381.2129,40,25,0
381.2129,381.3966,41,28,0
381.3966,381.58032,53,25,0
381.3966,381.58032,48,20,0
381.3966,381.58032,45,20,0
381.58032,381.76404,41,27,0
381.76404,381.9436,53,29,0
381.76404,381.9436,48,23,0
381.76404,381.9436,45,23,0
381.9436,382.12314,41,28,0
382.12314,382.30267,53,29,0
382.12314,382.30267,48,22,0
382.12314,382.30267,45,22,0
382.30267,382.48224,41,32,0
382.48224,382.66177,53,31,0
382.48224,382.66177,48,24,0
382.48224,382.66177,45,24,0
382.66177,382.8413,41,31,0
382.8413,383.02087,53,35,0
382.8413,383.02087,45,27,0
382.8413,383.02087,48,27,0
383.02087,383.2084,41,33,0
382.8413,383.3022,57,51,0
383.3022,383.42374,60,49,0
383.2084,383.42374,48,27,0
383.2084,383.42374,45,27,0
383.2084,383.42374,53,34,0
383.42374,383.60077,41,37,0
383.60077,383.77777,53,34,0
383.60077,383.77777,48,27,0
383.60077,383.77777,45,27,0
383.77777,383.9548,41,36,0
383.9548,384.1336,53,39,0
383.9548,384.1336,48,30,0
383.9548,384.1336,45,30,0
384.1336,384.31522,41,37,0
384.31522,384.511,45,29,0
384.31522,384.511,53,38,0
384.31522,384.511,48,29,0
384.511,384.69186,43,40,0
384.69186,384.86694,55,38,0
384.69186,384.86694,48,29,0
384.69186,384.86694,46,29,0
384.86694,385.042,43,39,0
385.042,385.22516,48,34,0
385.042,385.22516,55,42,0
385.042,385.22516,46,34,0
385.22516,385.41272,43,40,0
385.41272,385.64227,46,33,0
385.41272,385.64227,55,42,0
385.41272,385.64227,48,33,0
385.64227,387.74347,53,36,0
385.64227,387.74347,57,36,0
385.64227,387.74347,48,28,0
385.64227,387.74347,45,28,0
387.74347,388.2873,53,59,0
388.2873,389.76672,54,57,0
387.74347,389.76672,46,50,0
387.74347,389.76672,49,50,0
389.76672,391.81326,53,36,0
389.76672,391.81326,56,36,0
389.76672,391.81326,48,28,0
391.81326,393.8848,58,31,0
391.81326,393.8848,52,31,0
391.81326,393.8848,48,25,0
401.79868,401.98502,56,34,0
401.98502,402.17136,55,35,0
402.17136,402.3577,54,33,0
402.3577,402.54346,53,34,0
402.54346,402.72977,52,33,0
402.72977,402.9167,51,33,0
402.9167,403.1042,49,33,0
403.1042,403.2923,48,32,0
403.2923,403.48102,46,32,0
403.48102,403.6703,44,34,0
403.6703,403.85956,43,33,0
403.85956,404.04883,42,33,0
404.04883,404.2381,41,33,0
404.2381,404.4274,40,33,0
404.4274,404.62805,39,33,0
404.62805,404.82098,37,34,0
404.82098,405.01392,36,34,0
405.01392,405.20682,34,34,0
405.20682,405.39975,32,34,0
405.39975,405.59268,31,33,0
405.59268,405.79404,32,31,0
405.79404,405.98785,34,34,0
405.98785,406.18268,36,33,0
406.18268,406.37927,35,33,0
406.37927,406.57764,36,36,0
406.57764,406.77795,35,34,0
406.77795,406.98776,36,33,0
406.98776,407.0791,29,64,0
407.0791,407.1704,36,52,0
407.1704,407.26175,41,52,0
407.26175,407.3531,36,52,0
407.3531,407.4502,29,58,0
407.4502,407.54733,36,51,0
407.54733,407.6388,29,68,0
407.6388,407.73026,36,52,0
407.73026,407.82172,29,64,0
407.82172,407.91318,36,52,0
407.91318,408.00674,29,62,0
408.00674,408.10028,36,52,0
408.10028,408.19055,29,64,0
408.19055,408.2808,36,52,0
408.2808,408.37106,41,52,0
408.37106,408.4613,36,52,0
408.4613,408.5571,29,58,0
408.5571,408.6529,36,51,0
408.6529,408.74435,29,68,0
408.74435,408.83582,36,52,0
408.83582,408.92728,29,64,0
408.92728,409.01874,36,52,0
409.01874,409.1162,29,62,0
409.1162,409.21365,36,52,0
409.21365,409.30392,29,64,0
409.30392,409.39417,37,52,0
409.39417,409.4844,41,52,0
409.4844,409.57468,37,52,0
409.57468,409.67178,29,58,0
409.67178,409.76892,37,51,0
409.76892,409.8601,29,68,0
409.8601,409.9513,37,52,0
409.9513,410.04248,29,64,0
410.04248,410.13367,37,52,0
410.13367,410.22723,29,62,0
410.22723,410.32077,37,52,0
410.32077,410.41104,29,64,0
410.41104,410.50128,37,52,0
410.50128,410.59152,41,52,0
410.59152,410.6818,37,52,0
410.6818,410.7776,29,58,0
410.7776,410.87338,37,51,0
410.87338,410.96484,29,68,0
410.96484,411.0563,37,52,0
411.0563,411.14777,29,64,0
411.14777,411.23923,37,52,0
411.23923,411.33405,29,62,0
411.33405,411.42886,37,52,0
411.42886,413.04724,30,91,0
411.42886,413.04724,42,107,0
413.04724,413.2299,43,88,0
413.04724,413.2299,31,74,0
413.2299,413.41257,34,72,0
413.41257,413.59924,37,82,0
413.59924,413.7797,40,95,0
413.7797,413.9601,43,82,0
413.9601,414.14053,46,82,0
414.14053,414.31345,49,85,0
414.32095,414.49387,49,83,0
414.5014,414.68735,49,83,0
414.69543,415.23672,49,97,0
415.23672,415.778,48,89,0
415.778,415.86935,41,64,0
415.86935,415.96066,48,52,0
415.96066,416.052,53,52,0
416.052,416.14334,48,52,0
416.14334,416.24045,41,58,0
416.24045,416.3376,48,51,0
416.3376,416.42877,41,68,0
416.42877,416.51996,48,52,0
416.51996,416.61115,41,64,0
416.61115,416.70233,48,52,0
416.70233,416.79587,41,62,0
416.79587,416.88943,48,52,0
416.88943,416.97968,41,64,0
416.97968,417.06995,48,52,0
417.06995,417.1602,53,52,0
417.1602,417.25046,48,52,0
417.25046,417.34625,41,58,0
417.34625,417.44202,48,51,0
417.44202,417.53348,41,68,0
417.53348,417.62497,48,52,0
417.62497,417.71643,41,64,0
417.71643,417.8079,48,52,0
417.8079,417.90533,41,62,0
417.90533,418.0028,48,52,0
418.0028,418.09305,41,64,0
418.09305,418.18332,49,52,0
418.18332,418.27356,53,52,0
418.27356,418.3638,49,52,0
418.3638,418.46094,41,58,0
418.46094,418.55807,49,51,0
418.55807,418.64954,41,68,0
418.64954,418.741,49,52,0
418.741,418.83246,41,64,0
418.83246,418.92392,49,52,0
418.92392,419.0175,41,62,0
419.0175,419.11102,49,52,0
419.11102,419.2013,41,64,0
419.2013,419.29153,49,52,0
419.29153,419.38177,53,52,0
419.38177,419.47205,49,52,0
419.47205,419.56784,41,58,0
419.56784,419.66364,49,51,0
419.66364,419.75482,41,68,0
419.75482,419.846,49,52,0
419.846,419.9372,41,64,0
419.9372,420.02838,49,52,0
420.02838,420.1232,41,62,0
420.1232,420.21802,49,52,0
420.21802,421.83636,54,106,0
420.21802,421.83636,42,90,0
421.83636,422.01904,43,59,0
421.83636,422.01904,55,88,0
422.01904,422.2017,58,72,0
422.01904,422.2017,46,58,0
422.2017,422.3884,61,82,0
422.2017,422.3884,49,63,0
422.3884,422.56882,52,75,0
422.3884,422.56882,64,95,0
422.56882,422.74924,67,82,0
422.56882,422.74924,55,63,0
422.74924,422.9297,70,82,0
422.74924,422.9297,58,63,0
422.9297,423.1026,61,68,0
422.9297,423.1026,73,85,0
423.1101,423.28302,73,83,0
423.1101,423.28302,61,64,0
423.29053,423.4765,73,83,0
423.29053,423.4765,61,64,0
423.4846,424.02585,61,80,0
423.4846,424.02585,73,102,0
424.02585,424.57288,72,86,0
424.02585,424.57288,60,69,0
424.57288,425.11417,65,102,0
425.11417,425.66058,64,86,0
425.66058,426.20187,73,102,0
426.20187,426.74316,72,86,0
427.01212,427.80606,80,87,0
426.74316,427.80606,71,97,0
426.83304,427.80606,74,91,0
426.9227,427.80606,77,95,0
427.98035,428.87918,79,77,0
427.8932,428.87918,76,77,0
427.80606,428.87918,72,85,0
428.87918,429.4134,65,41,0
428.87918,429.4134,68,41,0
429.4134,429.94028,70,40,0
429.4134,429.94028,73,40,0
429.94028,430.46616,68,41,0
429.94028,430.46616,72,41,0
430.46616,430.98016,67,55,0
430.46616,430.98016,70,55,0
430.46616,430.98016,72,55,0
430.98016,431.5144,68,41,0
430.98016,431.5144,65,41,0
431.5144,432.04126,61,40,0
431.5144,432.04126,58,40,0
432.04126,432.56714,60,41,0
432.04126,432.56714,56,41,0
432.56714,433.08118,55,55,0
432.56714,433.08118,58,55,0
432.56714,433.08118,60,55,0
433.08118,433.6154,56,41,0
433.08118,433.6154,53,41,0
433.6154,434.14227,49,40,0
433.6154,434.14227,46,40,0
434.14227,434.66812,48,41,0
434.14227,434.66812,44,41,0
434.66812,435.19516,48,55,0
434.66812,435.19516,46,55,0
434.66812,435.19516,43,55,0
435.19516,436.28436,41,44,0
436.28436,436.90323,36,36,0
436.90323,437.555,32,30,0
437.555,439.29697,29,24,0
439.29697,439.77747,32,29,0
439.77747,439.8842,36,26,0
439.8842,440.41367,41,29,0
440.41367,440.87866,44,29,0
440.87866,440.97952,48,26,0
440.97952,441.54266,53,29,0
441.54266,442.09543,41,28,0
442.09543,443.75073,42,34,0
443.75073,444.22952,48,33,0
444.22952,444.33347,51,28,0
444.33347,444.8648,54,33,0
444.8648,445.32977,60,33,0
445.32977,445.43066,63,28,0
445.43066,445.9938,66,33,0
445.9938,446.54605,54,30,0
446.54605,447.07123,53,33,0
447.07123,447.53622,56,34,0
447.53622,447.6371,61,30,0
447.6371,448.20023,65,36,0
448.20023,448.74802,53,35,0
448.74802,449.213,51,40,0
449.213,449.31387,54,36,0
449.31387,449.77884,56,42,0
449.77884,449.87973,60,38,0
449.87973,450.3447,63,44,0
450.3447,450.4456,66,39,0
450.4456,450.91055,68,47,0
450.91055,451.0173,72,42,0
451.0173,451.20825,61,33,0
451.20825,451.38986,73,30,0
451.20825,451.38986,68,24,0
451.20825,451.38986,65,24,0
451.38986,451.57147,61,31,0
451.57147,451.75308,73,33,0
451.57147,451.75308,68,26,0
451.57147,451.75308,65,26,0
451.75308,451.9347,61,31,0
451.9347,452.1163,73,31,0
451.9347,452.1163,68,24,0
451.9347,452.1163,65,24,0
452.1163,452.2979,61,33,0
452.2979,452.47952,73,31,0
452.2979,452.47952,68,24,0
452.2979,452.47952,65,24,0
452.47952,452.66113,61,31,0
452.66113,452.84274,68,26,0
452.66113,452.84274,73,33,0
452.66113,452.84274,65,26,0
452.84274,453.03366,61,31,0
453.03366,453.2502,73,32,0
453.03366,453.2502,68,25,0
453.03366,453.2502,65,25,0
453.2502,453.4216,61,33,0
453.4216,453.59335,73,30,0
453.4216,453.59335,68,24,0
453.4216,453.59335,65,24,0
453.59335,453.76508,61,31,0
453.76508,453.94513,73,33,0
453.76508,453.94513,68,26,0
453.76508,453.94513,65,26,0
453.94513,454.12885,61,31,0
454.12885,454.32568,65,24,0
454.12885,454.32568,73,31,0
454.12885,454.32568,68,24,0
454.32568,454.50656,63,33,0
454.50656,454.68164,75,31,0
454.50656,454.68164,68,24,0
454.50656,454.68164,66,24,0
454.68164,454.8567,63,31,0
454.8567,455.03522,75,33,0
454.8567,455.03522,66,26,0
454.8567,455.03522,68,26,0
455.03522,455.22278,63,31,0
455.22278,455.4294,75,32,0
455.22278,455.4294,68,25,0
455.22278,455.4294,66,25,0
455.4294,455.60114,65,33,0
455.60114,455.7729,73,24,0
455.60114,455.7729,77,30,0
455.60114,455.7729,68,24,0
455.7729,455.9446,65,31,0
455.9446,456.12115,68,26,0
455.9446,456.12115,73,26,0
455.9446,456.12115,77,33,0
456.12115,456.29767,65,31,0
456.29767,456.4742,73,24,0
456.29767,456.4742,77,31,0
456.29767,456.4742,68,24,0
456.4742,456.65076,65,33,0
456.65076,456.82727,73,24,0
456.65076,456.82727,68,24,0
456.65076,456.82727,77,31,0
456.82727,457.0038,65,31,0
457.0038,457.18036,68,36,0
457.0038,457.18036,73,36,0
457.18036,457.36792,68,34,0
457.36792,457.57413,73,35,0
457.36792,457.57413,68,35,0
457.57413,457.74542,65,36,0
457.74542,457.9167,77,33,0
457.74542,457.9167,73,26,0
457.74542,457.9167,68,26,0
457.9167,458.08795,65,34,0
458.08795,458.26852,77,37,0
458.08795,458.26852,68,29,0
458.08795,458.26852,73,29,0
458.26852,458.4528,65,35,0
458.4528,458.64987,68,27,0
458.4528,458.64987,73,27,0
458.4528,458.64987,77,36,0
458.64987,458.83075,66,39,0
458.83075,459.00583,72,28,0
458.83075,459.00583,75,37,0
458.83075,459.00583,69,28,0
459.00583,459.18088,66,38,0
459.18088,459.3594,72,40,0
459.18088,459.3594,69,40,0
459.18088,459.3594,75,40,0
459.3594,459.5515,66,38,0
459.5515,459.76547,72,40,0
459.5515,459.76547,69,40,0
459.5515,459.76547,75,40,0
459.76547,459.9394,65,49,0
459.9394,460.11328,68,30,0
459.9394,460.11328,71,30,0
459.9394,460.11328,74,39,0
460.11328,460.2872,65,41,0
460.2872,460.46674,71,35,0
460.2872,460.46674,74,44,0
460.2872,460.46674,68,35,0
460.46674,460.6463,65,42,0
460.6463,460.82584,71,34,0
460.6463,460.82584,74,44,0
460.6463,460.82584,68,34,0
460.82584,461.00537,65,49,0
461.00537,461.18494,74,48,0
461.00537,461.18494,71,36,0
461.00537,461.18494,68,36,0
461.18494,461.36447,65,48,0
461.36447,461.544,74,55,0
461.36447,461.544,68,41,0
461.36447,461.544,71,41,0
461.544,461.72693,65,50,0
461.72693,461.93994,71,41,0
461.72693,461.93994,68,41,0
461.72693,461.93994,74,52,0
461.93994,462.11435,64,54,0
462.11435,462.2888,67,37,0
462.11435,462.2888,72,37,0
462.11435,462.2888,76,47,0
462.2888,462.4632,64,51,0
462.4632,462.64273,72,42,0
462.4632,462.64273,76,53,0
462.4632,462.64273,67,42,0
462.64273,462.8223,64,47,0
462.8223,463.00183,72,41,0
462.8223,463.00183,76,52,0
462.8223,463.00183,67,41,0
463.00183,463.18137,64,49,0
463.18137,463.3609,76,54,0
463.18137,463.3609,72,43,0
463.18137,463.3609,67,43,0
463.3609,463.54047,64,48,0
463.54047,463.72,76,55,0
463.54047,463.72,67,41,0
463.54047,463.72,72,41,0
463.72,463.90182,64,50,0
463.90182,464.11426,72,41,0
463.90182,464.11426,67,41,0
463.90182,464.11426,76,52,0
464.11426,464.2887,58,54,0
464.2887,464.4631,61,37,0
464.2887,464.4631,64,37,0
464.2887,464.4631,67,47,0
464.4631,464.6375,58,51,0
464.6375,464.81708,64,42,0
464.6375,464.81708,67,53,0
464.6375,464.81708,61,42,0
464.81708,464.9966,58,47,0
464.9966,465.17615,64,41,0
464.9966,465.17615,67,52,0
464.9966,465.17615,61,41,0
465.17615,465.3557,58,49,0
465.3557,465.53525,61,43,0
465.3557,465.53525,67,54,0
465.3557,465.53525,64,43,0
465.53525,465.71478,58,48,0
465.71478,465.89432,64,43,0
465.71478,465.89432,67,57,0
465.71478,465.89432,61,43,0
465.89432,466.07614,58,52,0
466.07614,466.2886,67,54,0
466.07614,466.2886,64,43,0
466.07614,466.2886,61,43,0
466.2886,466.463,56,56,0
466.463,466.63742,68,49,0
466.463,466.63742,65,38,0
466.463,466.63742,60,38,0
466.63742,466.81186,56,53,0
466.81186,466.9914,60,44,0
466.81186,466.9914,68,55,0
466.81186,466.9914,65,44,0
466.9914,467.17093,56,49,0
467.17093,467.3505,60,43,0
467.17093,467.3505,68,54,0
467.17093,467.3505,65,43,0
467.3505,467.53003,56,51,0
467.53003,467.70956,60,45,0
467.53003,467.70956,68,56,0
467.53003,467.70956,65,45,0
467.70956,467.8891,56,50,0
467.8891,468.06866,65,43,0
467.8891,468.06866,68,57,0
467.8891,468.06866,60,43,0
468.06866,468.25623,56,52,0
468.25623,468.47153,68,54,0
468.25623,468.47153,65,43,0
468.25623,468.47153,60,43,0
468.47153,468.67105,46,101,0
468.47153,468.67105,34,101,0
468.84055,468.9243,49,75,0
468.9243,469.01538,54,69,0
469.01538,469.18237,58,86,0
469.3494,469.4329,54,75,0
469.4329,469.52518,58,73,0
469.52518,469.69217,61,86,0
469.8592,469.9427,58,78,0
469.9427,470.03406,61,73,0
470.03406,470.20004,66,84,0
470.36606,470.44904,61,77,0
470.44904,470.5407,66,71,0
470.5407,470.7067,70,81,0
470.8727,470.9557,66,75,0
470.9557,471.04736,70,74,0
471.04736,471.21335,73,81,0
471.37936,471.46234,70,75,0
471.46234,471.55313,73,73,0
471.55313,471.72015,78,84,0
471.88715,471.97064,73,75,0
471.97064,472.06262,78,74,0
472.06262,472.23276,82,83,0
472.6877,472.91385,36,101,0
472.6877,472.91385,48,101,0
473.08334,473.1671,51,80,0
473.1671,473.25818,57,73,0
473.25818,473.4252,60,89,0
473.5922,473.67572,57,78,0
473.67572,473.76797,60,73,0
473.76797,473.935,63,86,0
474.10202,474.18552,60,78,0
474.18552,474.2769,63,73,0
474.2769,474.44287,69,84,0
474.60886,474.69186,63,77,0
474.69186,474.78354,69,71,0
474.78354,474.94952,72,82,0
475.1155,475.19852,69,75,0
475.19852,475.2902,72,73,0
475.2902,475.45618,75,85,0
475.62216,475.70517,72,75,0
475.70517,475.79596,75,73,0
475.79596,475.96295,81,84,0
476.12997,476.21347,75,80,0
476.21347,476.30545,81,74,0
476.30545,476.4756,84,85,0
476.88055,477.053,49,101,0
476.88055,477.053,37,101,0
477.2225,477.30627,53,78,0
477.30627,477.39734,58,73,0
477.39734,477.56436,61,84,0
477.90714,478.08313,40,101,0
477.90714,478.08313,52,101,0
478.25266,478.3364,55,80,0
478.3364,478.42746,60,73,0
478.42746,478.59448,64,82,0
478.9373,479.11328,41,101,0
478.9373,479.11328,53,101,0
479.28278,479.36652,56,80,0
479.36652,479.4576,61,73,0
479.4576,479.6246,65,86,0
479.9674,480.1434,55,101,0
479.9674,480.1434,43,101,0
480.3129,480.39667,58,80,0
480.39667,480.48773,64,73,0
480.48773,480.65472,67,86,0
480.99753,481.1628,44,75,0
481.3281,481.41074,56,69,0
481.41074,481.5024,60,61,0
481.5024,481.66727,46,77,0
481.8321,481.91452,58,69,0
481.91452,482.00528,61,64,0
482.00528,482.17102,48,78,0
482.3368,482.41965,60,71,0
482.41965,482.51163,63,67,0
482.51163,482.67737,49,81,0
482.8431,482.926,61,77,0
482.926,483.0153,65,71,0
483.0153,483.1803,52,80,0
483.34512,483.42755,64,77,0
483.42755,483.51923,67,73,0
483.51923,483.68405,53,83,0
483.8489,483.9313,65,77,0
483.9313,484.0221,68,72,0
484.0221,484.18692,55,84,0
484.35175,484.43417,67,78,0
484.43417,484.52615,70,74,0
484.52615,484.69144,56,85,0
484.85672,484.93936,68,77,0
484.93936,485.0292,72,73,0
485.0292,485.1945,58,86,0
485.35977,485.4424,70,81,0
485.4424,485.5341,73,77,0
485.5341,485.69937,60,89,0
485.86465,485.94733,72,80,0
485.94733,486.0381,75,78,0
486.0381,486.20337,61,89,0
486.36868,486.45132,73,83,0
486.45132,486.54327,77,80,0
486.54327,486.71344,61,92,0
486.89062,486.98206,73,84,0
486.98206,487.08817,77,80,0
487.08817,487.1747,41,108,0
487.1747,487.26083,53,100,0
487.26083,487.34656,56,92,0
488.76572,488.84976,58,74,0
488.84976,488.9338,53,74,0
488.9338,489.01807,49,74,0
489.01807,489.10233,58,74,0
489.10233,489.18683,53,79,0
489.18683,489.27127,49,71,0
489.27127,489.35553,46,74,0
489.35553,489.43958,49,71,0
489.43958,489.52344,53,74,0
489.52344,489.60718,58,72,0
491.1645,491.25085,62,105,0
491.25085,491.33673,74,100,0
491.33673,491.42227,77,92,0
493.4216,493.50494,59,71,0
493.50494,493.58804,56,74,0
493.58804,493.6709,53,72,0
493.6709,493.75354,50,80,0
493.75354,493.83597,47,75,0
493.83597,493.91815,50,75,0
493.91815,494.00037,53,75,0
494.00037,494.08286,56,79,0
494.08286,494.16556,59,73,0
495.34894,495.56097,36,125,0
497.25964,497.34305,60,74,0
497.34305,497.42636,56,74,0
497.42636,497.51065,53,74,0
497.51065,497.5949,60,74,0
497.5949,497.6794,56,79,0
497.6794,497.76385,53,71,0
497.76385,497.8481,48,74,0
497.8481,497.93216,44,71,0
497.93216,498.01602,41,74,0
498.01602,498.09976,36,72,0
498.09976,498.18332,41,80,0
498.18332,498.26666,44,75,0
498.26666,498.34982,48,75,0
498.34982,498.43292,53,75,0
498.43292,498.51672,56,79,0
498.51672,498.60052,60,73,0
499.63046,499.71716,36,82,0
499.71716,499.80356,48,72,0
499.80356,499.8896,52,73,0
499.8896,499.97522,55,74,0
499.97522,500.1455,58,74,0
500.98346,501.06702,60,73,0
501.06702,501.15057,58,69,0
501.15057,501.23438,55,74,0
501.23438,501.31818,52,69,0
501.31818,501.40222,48,71,0
501.40222,501.48624,46,70,0
501.48624,501.57053,43,70,0
501.57053,501.6548,40,70,0
501.6548,501.7393,36,75,0
501.7393,501.82373,40,67,0
501.82373,501.908,43,70,0
501.908,501.992,46,67,0
501.992,502.0759,48,70,0
502.0759,502.1596,52,68,0
502.1596,502.2432,55,76,0
502.2432,502.3265,58,71,0
504.37366,504.65756,49,37,0
504.65756,504.94873,49,35,0
504.94873,505.25024,49,35,0
505.25024,505.67477,48,36,0
507.4291,507.7142,49,35,0
507.7142,508.00662,49,33,0
508.00662,508.31082,49,33,0
508.31082,508.784,48,34,0
510.82098,511.16425,37,32,0
511.16425,511.5128,37,30,0
511.5128,511.86676,37,30,0
511.86676,512.97174,36,31,0
512.97174,513.34406,37,31,0
513.34406,513.71643,37,29,0
513.71643,514.0888,37,29,0
514.0888,515.2058,36,29,0
515.2058,515.6314,37,21,0
515.6314,516.093,37,24,0
516.093,516.71814,37,26,0
516.71814,518.2971,36,28,0
518.2971,518.46106,48,83,0
518.2971,518.46106,36,70,0
518.46106,518.625,36,65,0
518.46106,518.625,48,78,0
518.625,518.78894,36,65,0
518.625,518.78894,48,78,0
518.78894,518.9529,41,85,0
518.78894,518.9529,29,71,0
518.9529,519.0852,60,30,0
518.9529,519.0852,65,30,0
519.0852,519.21747,56,37,0
519.21747,519.3498,60,32,0
519.21747,519.3498,65,42,0
519.3498,519.4821,56,37,0
519.4821,519.6144,65,37,0
519.4821,519.6144,60,30,0
519.6144,519.7467,56,42,0
519.7467,519.879,60,30,0
519.7467,519.879,65,37,0
519.879,520.0113,56,37,0
520.0113,520.1436,60,32,0
520.0113,520.1436,65,42,0
520.1436,520.2827,56,37,0
520.2827,520.4405,60,31,0
520.2827,520.4405,65,41,0
520.4405,520.5653,56,42,0
520.5653,520.6904,65,36,0
520.5653,520.6904,60,30,0
520.6904,520.81555,56,37,0
520.81555,520.9467,60,32,0
520.81555,520.9467,65,42,0
520.9467,521.0805,56,37,0
521.0805,521.22394,60,30,0
521.0805,521.22394,65,37,0
521.22394,521.3557,58,42,0
521.3557,521.4832,60,30,0
521.3557,521.4832,67,37,0
521.4832,521.6108,58,37,0
521.6108,521.74084,60,32,0
521.6108,521.74084,67,42,0
521.74084,521.87744,58,37,0
521.87744,522.028,60,31,0
521.87744,522.028,67,41,0
522.028,522.1531,56,42,0
522.1531,522.2782,65,36,0
522.1531,522.2782,60,30,0
522.2782,522.4033,56,37,0
522.4033,522.5319,65,42,0
522.4033,522.5319,60,32,0
522.5319,522.6605,56,37,0
522.6605,522.7891,65,37,0
522.6605,522.7891,60,30,0
522.7891,522.9177,56,42,0
522.9177,523.0463,65,37,0
522.9177,523.0463,60,30,0
523.0463,523.1749,56,42,0
523.1749,523.3035,65,44,0
523.1749,523.3035,60,34,0
523.3035,523.43616,56,40,0
523.43616,523.5907,65,44,0
523.43616,523.5907,60,33,0
523.5907,523.7156,56,46,0
523.7156,523.84064,65,40,0
523.7156,523.84064,60,34,0
523.7156,523.84064,68,40,0
523.84064,523.96576,56,42,0
523.96576,524.0969,65,47,0
523.96576,524.0969,60,36,0
523.96576,524.0969,68,47,0
524.0969,524.2308,56,43,0
524.2308,524.3775,60,36,0
524.2308,524.3775,65,44,0
524.2308,524.3775,68,44,0
524.3775,524.5103,58,49,0
524.5103,524.6379,67,45,0
524.5103,524.6379,60,36,0
524.5103,524.6379,64,36,0
524.6379,524.7654,58,46,0
524.7654,524.89545,60,39,0
524.7654,524.89545,67,51,0
524.7654,524.89545,64,39,0
524.89545,525.03,58,47,0
525.03,525.1906,60,38,0
525.03,525.1906,67,51,0
525.03,525.1906,64,38,0
525.1906,525.31573,57,55,0
525.31573,525.4408,60,39,0
525.31573,525.4408,63,48,0
525.31573,525.4408,66,48,0
525.4408,525.5659,57,49,0
525.5659,525.6945,63,55,0
525.5659,525.6945,60,41,0
525.5659,525.6945,66,55,0
525.6945,525.8231,57,49,0
525.8231,525.9517,66,49,0
525.8231,525.9517,63,49,0
525.8231,525.9517,60,39,0
525.9517,526.0803,57,55,0
526.0803,526.2089,63,49,0
526.0803,526.2089,60,39,0
526.0803,526.2089,66,49,0
526.2089,526.3375,57,55,0
526.3375,526.4676,60,40,0
526.3375,526.4676,66,53,0
526.3375,526.4676,63,40,0
526.4676,526.6022,57,48,0
526.6022,526.7627,60,39,0
526.6022,526.7627,66,52,0
526.6022,526.7627,63,39,0
526.7627,526.8878,57,55,0
526.8878,527.01294,60,39,0
526.8878,527.01294,63,48,0
526.8878,527.01294,65,48,0
527.01294,527.13806,57,49,0
527.13806,527.26666,61,55,0
527.13806,527.26666,65,55,0
527.26666,527.39526,58,49,0
527.39526,527.52386,65,49,0
527.39526,527.52386,61,49,0
527.52386,527.65247,58,55,0
527.65247,527.78107,61,49,0
527.65247,527.78107,65,49,0
527.78107,527.90967,58,55,0
527.90967,528.0397,64,40,0
527.90967,528.0397,67,53,0
528.0397,528.17426,58,48,0
528.17426,528.33484,67,52,0
528.17426,528.33484,64,39,0
528.33484,528.45996,48,55,0
528.45996,528.585,60,48,0
528.45996,528.585,56,48,0
528.45996,528.585,53,39,0
528.585,528.71014,48,49,0
528.71014,528.8402,53,40,0
528.71014,528.8402,60,53,0
528.71014,528.8402,56,40,0
528.8402,528.9748,48,48,0
528.9748,529.1354,60,52,0
528.9748,529.1354,53,39,0
528.9748,529.1354,56,39,0
529.1354,529.26044,46,55,0
529.26044,529.38556,55,48,0
529.26044,529.38556,52,48,0
529.26044,529.38556,48,39,0
529.38556,529.5111,46,49,0
529.5111,529.64154,55,51,0
529.5111,529.64154,48,39,0
529.5111,529.64154,52,39,0
529.64154,529.77606,46,47,0
529.77606,529.9474,52,38,0
529.77606,529.9474,48,38,0
529.77606,529.9474,55,50,0
529.9474,530.0725,45,53,0
530.0725,530.19763,54,47,0
530.0725,530.19763,51,38,0
530.0725,530.19763,57,47,0
530.1872,530.3123,45,48,0
530.323,530.4516,54,53,0
530.323,530.4516,57,53,0
530.323,530.4516,51,53,0
530.4516,530.5802,45,48,0
530.5802,530.7088,54,48,0
530.5802,530.7088,57,48,0
530.5802,530.7088,51,48,0
530.7088,530.8374,45,53,0
530.8374,530.966,54,48,0
530.8374,530.966,57,48,0
530.8374,530.966,51,48,0
530.966,531.0946,45,53,0
531.0946,531.2247,51,45,0
531.0946,531.2247,57,59,0
531.0946,531.2247,54,45,0
531.2247,531.35925,45,49,0
531.35925,531.52655,51,39,0
531.35925,531.52655,57,55,0
531.35925,531.52655,54,39,0
531.52655,531.6516,45,57,0
531.6516,531.77673,51,39,0
531.6516,531.77673,53,49,0
531.6516,531.77673,57,49,0
531.77673,531.90186,45,49,0
531.90186,532.03046,58,57,0
531.90186,532.03046,53,57,0
531.90186,532.03046,49,57,0
532.03046,532.15906,46,49,0
532.15906,532.28766,58,49,0
532.15906,532.28766,53,49,0
532.15906,532.28766,49,49,0
532.28766,532.41626,46,57,0
532.41626,532.54486,58,49,0
532.41626,532.54486,53,49,0
532.41626,532.54486,49,49,0
532.54486,532.67346,46,57,0
532.67346,532.8035,52,40,0
532.67346,532.8035,58,56,0
532.67346,532.8035,55,56,0
532.8035,532.93805,46,49,0
532.93805,533.09863,55,55,0
532.93805,533.09863,58,55,0
532.93805,533.09863,52,39,0
533.09863,533.22375,48,57,0
533.22375,533.3489,53,39,0
533.22375,533.3489,56,49,0
533.22375,533.3489,60,49,0
533.3489,533.47394,48,49,0
533.47394,533.604,56,40,0
533.47394,533.604,60,56,0
533.47394,533.604,53,40,0
533.604,533.7386,48,49,0
533.7386,533.8992,56,39,0
533.7386,533.8992,60,55,0
533.7386,533.8992,53,39,0
533.8992,534.0243,48,57,0
534.0243,534.14935,55,39,0
534.0243,534.14935,52,49,0
534.0243,534.14935,60,49,0
534.14935,534.2749,48,49,0
534.2749,534.40533,52,37,0
534.2749,534.40533,55,37,0
534.2749,534.40533,60,49,0
534.40533,534.5399,48,44,0
534.5399,534.6997,52,36,0
534.5399,534.6997,55,36,0
534.5399,534.6997,60,48,0
534.6997,534.9553,44,63,0
534.6997,534.9553,41,63,0
534.6997,534.9553,48,63,0
534.6997,534.9553,53,75,0
535.2183,535.33673,56,79,0
535.2183,535.33673,53,79,0
535.34735,535.46454,56,76,0
535.34735,535.46454,53,76,0
535.47516,535.74286,55,80,0
535.47516,535.74286,52,80,0
536.0044,536.1215,58,79,0
536.0044,536.1215,55,79,0
536.1322,536.2493,58,76,0
536.1322,536.2493,55,76,0
536.26,536.51953,56,80,0
536.26,536.51953,53,80,0
536.78156,536.8993,53,79,0
536.78156,536.8993,56,79,0
536.91,537.0271,53,76,0
536.91,537.0271,56,76,0
537.0378,537.30554,52,80,0
537.0378,537.30554,55,80,0
537.5692,537.68634,55,79,0
537.5692,537.68634,58,79,0
537.697,537.8235,58,76,0
537.697,537.8235,55,76,0
537.835,537.9533,53,66,0
537.835,537.9533,56,80,0
538.09314,538.2164,53,63,0
538.09314,538.2164,56,76,0
538.3564,538.4744,55,73,0
538.3564,538.4744,46,59,0
538.3564,538.4744,53,59,0
538.61993,538.73694,48,66,0
538.61993,538.73694,56,80,0
538.61993,538.73694,53,66,0
538.87524,538.996,48,63,0
538.87524,538.996,56,76,0
538.87524,538.996,53,63,0
539.13605,539.25433,52,63,0
539.13605,539.25433,55,76,0
539.13605,539.25433,48,63,0
539.416,539.67163,41,61,0
539.416,539.67163,44,61,0
539.416,539.67163,48,61,0
539.416,539.67163,53,73,0
539.93463,540.05304,41,75,0
539.93463,540.05304,44,75,0
540.0637,540.18085,41,72,0
540.0637,540.18085,44,72,0
540.1915,540.4592,40,76,0
540.1915,540.4592,43,76,0
540.7207,540.8379,43,75,0
540.7207,540.8379,46,75,0
540.8485,540.9657,43,72,0
540.8485,540.9657,46,72,0
540.9763,541.23584,41,76,0
540.9763,541.23584,44,76,0
541.4979,541.6156,41,75,0
541.4979,541.6156,44,75,0
541.6263,541.74347,41,72,0
541.6263,541.74347,44,72,0
541.7541,542.02185,40,76,0
541.7541,542.02185,43,76,0
542.2855,542.4027,43,75,0
542.2855,542.4027,46,75,0
542.4133,542.53986,43,72,0
542.4133,542.53986,46,72,0
542.55133,542.6696,44,79,0
542.55133,542.6696,41,66,0
542.80945,542.93274,41,59,0
542.80945,542.93274,44,71,0
543.0727,543.1908,41,55,0
543.0727,543.1908,43,66,0
543.0727,543.1908,34,55,0
543.33624,543.4533,41,62,0
543.33624,543.4533,36,62,0
543.33624,543.4533,44,75,0
543.59155,543.7123,41,59,0
543.59155,543.7123,36,59,0
543.59155,543.7123,44,71,0
543.85236,543.97064,36,59,0
543.85236,543.97064,43,71,0
543.85236,543.97064,40,59,0
544.1251,544.24347,32,62,0
544.1251,544.24347,36,62,0
544.1251,544.24347,41,62,0
544.1251,544.24347,44,75,0
544.3833,544.50653,44,71,0
544.3833,544.50653,32,59,0
544.3833,544.50653,41,59,0
544.3833,544.50653,36,59,0
544.64655,544.7646,34,55,0
544.64655,544.7646,46,66,0
544.64655,544.7646,41,55,0
544.64655,544.7646,43,60,0
544.9101,545.0271,36,62,0
544.9101,545.0271,48,75,0
544.9101,545.0271,44,69,0
544.9101,545.0271,41,62,0
545.16534,545.28613,36,59,0
545.16534,545.28613,48,71,0
545.16534,545.28613,41,59,0
545.16534,545.28613,44,66,0
545.42615,545.5445,34,59,0
545.42615,545.5445,46,71,0
545.42615,545.5445,40,59,0
545.42615,545.5445,43,66,0
545.7023,545.8242,32,65,0
545.7023,545.8242,36,65,0
545.7023,545.8242,41,65,0
545.7023,545.8242,44,77,0
545.9684,546.0981,44,74,0
545.9684,546.0981,32,62,0
545.9684,546.0981,41,62,0
545.9684,546.0981,36,62,0
546.2456,546.37006,34,57,0
546.2456,546.37006,46,69,0
546.2456,546.37006,41,57,0
546.2456,546.37006,43,63,0
546.52356,546.65173,44,72,0
546.52356,546.65173,48,77,0
546.52356,546.65173,41,65,0
546.52356,546.65173,36,65,0
546.8033,546.94324,48,74,0
546.8033,546.94324,44,69,0
546.8033,546.94324,41,62,0
546.8033,546.94324,36,62,0
547.0974,547.2272,40,62,0
547.0974,547.2272,36,62,0
547.0974,547.2272,48,74,0
547.0974,547.2272,43,69,0
547.40656,547.70886,41,110,0
547.40656,547.70886,29,82,0
547.86005,548.2353,68,62,0
548.2353,548.32764,72,54,0
548.32764,548.726,77,59,0
548.726,549.08167,80,60,0
549.08167,549.174,84,52,0
549.174,549.5755,89,56,0
549.5755,549.93115,84,58,0
549.93115,550.0235,80,50,0
550.0235,550.425,77,54,0
550.425,550.78064,72,56,0
550.78064,550.873,68,48,0
550.873,551.27747,65,52,0
551.27747,551.63544,60,47,0
551.63544,551.7277,56,41,0
551.7277,552.14056,53,44,0
552.14056,552.5049,48,45,0
552.5049,552.59735,44,39,0
552.59735,553.02795,41,42,0
553.02795,553.4005,36,38,0
553.4005,553.49304,32,27,0
553.49304,553.9364,29,28,0
553.9364,554.37964,29,27,0
554.37964,555.3017,29,27,0
555.3017,556.642,29,19,0
556.642,558.8991,29,12,0
