start_time,end_time,note_value,velocity,instrument_program_number
0.0,0.63985217,73,105,0
0.0,0.63985217,64,89,0
0.646134,0.8597172,73,97,0
0.646134,0.8597172,64,82,0
0.861512,1.5013641,64,89,0
0.861512,1.5013641,73,105,0
1.507646,1.7212292,73,98,0
1.507646,1.7212292,64,82,0
1.723024,2.0433989,73,105,0
1.723024,2.0433989,64,89,0
2.046091,2.1528826,64,82,0
2.046091,2.1528826,73,97,0
2.15378,2.4741547,73,105,0
2.15378,2.4741547,64,89,0
2.476847,2.5836387,73,96,0
2.476847,2.5836387,64,81,0
2.584536,2.9049108,64,89,0
2.584536,2.9049108,73,105,0
2.907603,3.0143945,73,97,0
2.907603,3.0143945,64,82,0
3.015292,3.3356667,64,89,0
3.015292,3.3356667,73,105,0
3.338359,3.4451506,73,97,0
3.338359,3.4451506,64,82,0
3.446048,3.876804,73,105,0
3.446048,3.876804,64,89,0
4.085282,4.189521,85,50,0
4.189521,4.29376,84,50,0
4.29376,4.397999,82,54,0
4.397999,4.502238,84,50,0
4.502238,4.606477,82,50,0
4.606477,4.710716,80,50,0
4.710716,4.814955,79,54,0
4.814955,4.919194,80,50,0
4.919194,5.023433,79,50,0
5.023433,5.127672,77,50,0
5.127672,5.563307,76,54,0
5.771785,5.876024,73,50,0
5.876024,5.980263,72,50,0
5.980263,6.084502,70,53,0
6.084502,6.188741,72,50,0
6.188741,6.29298,70,50,0
6.29298,6.397219,68,50,0
6.397219,6.501458,67,53,0
6.501458,6.605697,68,50,0
6.605697,6.709936,67,50,0
6.709936,6.814175,65,50,0
6.814175,7.24183,64,52,0
7.450308,7.554547,73,50,0
7.554547,7.658786,72,50,0
7.658786,7.763025,70,51,0
7.763025,7.867264,72,51,0
7.867264,7.971503,70,52,0
7.971503,8.075742,68,52,0
8.075742,8.1796055,67,53,0
8.1796055,8.283469,68,54,0
8.283469,8.387333,67,54,0
8.387333,8.491197,65,55,0
8.491197,8.594688,64,55,0
8.594688,8.698179,65,56,0
8.698179,8.80167,64,57,0
8.80167,8.905161,61,57,0
8.905161,9.008296,60,58,0
9.008296,9.111431,61,61,0
9.111431,9.214567,60,62,0
9.214567,9.317702,59,63,0
9.317702,9.420477,58,64,0
9.420477,9.523252,60,65,0
9.523252,9.625662,58,66,0
9.625662,9.727951,56,67,0
9.727951,9.829999,55,68,0
9.829999,9.931694,56,69,0
9.931694,10.033272,55,70,0
10.033272,10.134617,53,71,0
10.134617,10.235724,52,73,0
10.235724,10.3365965,53,71,0
10.3365965,10.437234,52,72,0
10.437234,10.537647,49,71,0
10.537647,10.646277,48,75,0
10.637948,10.746231,49,75,0
10.737902,10.846567,48,75,0
10.837625,10.953229,47,75,0
10.944928,11.053184,48,75,0
11.044883,11.152657,49,75,0
11.14427,11.253055,48,75,0
11.244754,11.353161,47,75,0
11.344889,11.453467,48,75,0
11.445022,11.553433,49,75,0
11.545048,11.6545,48,75,0
11.646085,11.7554035,47,75,0
11.747074,11.855196,48,75,0
11.846809,11.955508,49,75,0
11.947207,12.056046,48,75,0
12.04763,12.156132,47,75,0
12.147745,12.257011,48,75,0
12.248652,12.357814,49,75,0
12.349428,12.459416,48,75,0
12.450539,12.565474,47,75,0
12.557066,12.666605,46,74,0
12.658117,12.767552,48,74,0
12.759223,12.869005,46,74,0
12.860491,12.970695,45,74,0
12.962338,13.071306,46,74,0
13.062819,13.172938,48,74,0
13.164505,13.275003,46,74,0
13.2661915,13.379667,45,74,0
13.371233,13.480718,46,74,0
13.472337,13.581272,48,74,0
13.572812,13.682401,46,74,0
13.67402,13.78385,45,74,0
13.775389,13.88469,46,73,0
13.87623,13.986166,48,73,0
13.97781,14.087852,46,73,0
14.079071,14.192845,45,73,0
14.184438,14.29374,46,74,0
14.285333,14.39487,48,72,0
14.3864355,14.496209,46,70,0
14.487748,14.597758,45,68,0
14.589272,14.699605,46,67,0
14.691118,14.801691,48,65,0
14.793178,14.904316,46,63,0
14.895504,15.008521,45,61,0
15.000017,15.111023,46,60,0
15.1024275,15.214456,43,58,0
15.2058,15.318787,44,56,0
15.310038,15.423961,46,54,0
15.415149,15.530157,48,53,0
15.521279,15.637168,46,51,0
15.628194,15.745199,44,49,0
15.736157,15.853748,43,47,0
15.949301,16.053396,48,40,0
16.053396,16.157202,53,37,0
16.157202,16.26065,56,37,0
16.26065,16.363743,60,40,0
16.363743,16.466835,61,38,0
16.466835,16.570047,60,38,0
16.570047,16.673494,58,38,0
16.673494,16.776943,56,40,0
16.776943,16.88063,58,37,0
16.88063,16.984436,56,37,0
16.984436,17.088243,55,37,0
17.088243,17.19241,53,40,0
17.19241,17.296576,55,37,0
17.296576,17.400864,56,37,0
17.400864,17.509363,53,37,0
17.613602,17.717552,48,40,0
17.717552,17.82112,53,37,0
17.82112,17.924332,56,37,0
17.924332,18.027071,60,40,0
18.027071,18.12981,61,38,0
18.12981,18.23255,60,38,0
18.23255,18.335407,58,38,0
18.335407,18.438501,56,40,0
18.438501,18.541594,58,37,0
18.541594,18.645042,56,37,0
18.645042,18.74849,55,37,0
18.74849,18.852177,53,40,0
18.852177,18.955982,55,37,0
18.955982,19.05991,56,37,0
19.05991,19.168818,53,37,0
19.273058,19.377224,49,44,0
19.377224,19.48127,54,40,0
19.48127,19.585077,58,40,0
19.585077,19.688524,61,44,0
19.688524,19.791973,63,41,0
19.791973,19.89554,61,41,0
19.89554,19.999348,60,41,0
19.999348,20.103153,58,44,0
20.103153,20.2072,60,40,0
20.2072,20.311367,58,40,0
20.311367,20.415533,56,40,0
20.415533,20.520063,54,44,0
20.520063,20.624592,56,40,0
20.624592,20.729244,54,40,0
20.729244,20.838152,53,40,0
20.838152,20.94352,52,44,0
20.94352,21.048885,53,40,0
21.048885,21.154253,55,40,0
21.154253,21.262753,52,40,0
21.262753,21.368498,53,44,0
21.368498,21.474243,55,40,0
21.474243,21.579988,56,40,0
21.579988,21.688896,53,40,0
21.688896,21.794264,55,44,0
21.794264,21.89963,56,40,0
21.89963,22.004997,58,40,0
22.004997,22.113497,55,40,0
22.113497,22.218863,52,44,0
22.218863,22.32423,53,37,0
22.32423,22.429596,55,38,0
22.429596,22.538506,52,40,0
22.538506,22.642744,53,44,0
22.642744,22.746983,48,40,0
22.746983,22.851223,53,37,0
22.851223,22.955462,56,37,0
22.955462,23.0597,60,40,0
23.0597,23.163939,61,38,0
23.163939,23.270481,60,38,0
23.270481,23.377022,58,38,0
23.377022,23.481161,56,40,0
23.481161,23.585299,58,37,0
23.585299,23.689436,56,37,0
23.689436,23.793573,55,37,0
23.793573,23.89771,53,40,0
23.89771,24.00185,55,37,0
24.00185,24.105988,56,37,0
24.105988,24.214485,53,37,0
24.318726,24.422964,48,40,0
24.422964,24.527203,53,37,0
24.527203,24.631441,56,37,0
24.631441,24.735682,60,40,0
24.735682,24.83992,61,38,0
24.83992,24.945755,60,38,0
24.945755,25.05159,58,38,0
25.05159,25.155727,56,40,0
25.155727,25.259865,58,37,0
25.259865,25.364004,56,37,0
25.364004,25.468142,55,37,0
25.468142,25.572279,53,40,0
25.572279,25.676416,55,37,0
25.676416,25.780554,56,37,0
25.780554,25.889463,53,37,0
25.993702,26.09794,49,44,0
26.09794,26.20218,54,40,0
26.20218,26.30642,58,40,0
26.30642,26.410658,61,44,0
26.410658,26.514896,63,41,0
26.514896,26.621077,61,41,0
26.621077,26.727257,60,41,0
26.727257,26.831394,58,44,0
26.831394,26.935532,60,40,0
26.935532,27.039669,58,40,0
27.039669,27.143808,56,40,0
27.143808,27.247946,54,44,0
27.247946,27.352083,56,40,0
27.352083,27.45622,54,40,0
27.45622,27.56513,53,40,0
27.56513,27.670496,52,44,0
27.670496,27.775864,53,40,0
27.775864,27.88123,55,40,0
27.88123,27.989729,52,40,0
27.989729,28.095474,53,44,0
28.095474,28.20122,55,40,0
28.20122,28.306965,56,40,0
28.306965,28.415874,53,40,0
28.415874,28.522053,55,44,0
28.522053,28.628233,56,40,0
28.628233,28.734413,58,40,0
28.734413,28.842913,55,40,0
28.842913,28.948748,52,44,0
28.948748,29.054583,53,37,0
29.054583,29.160418,55,38,0
29.160418,29.269325,52,40,0
29.269325,29.373465,53,37,0
29.373465,29.477602,60,38,0
29.477602,29.58174,65,40,0
29.58174,29.685877,68,42,0
29.685877,29.790014,72,43,0
29.790014,29.894152,60,45,0
29.894152,29.998291,65,46,0
29.998291,30.106977,68,48,0
30.211115,30.315254,60,46,0
30.315254,30.419392,65,47,0
30.419392,30.52353,68,49,0
30.52353,30.627666,72,50,0
30.627666,30.731804,60,52,0
30.731804,30.835941,65,53,0
30.835941,30.944262,68,38,0
31.049156,31.154419,59,51,0
31.154419,31.260054,62,52,0
31.260054,31.36606,68,52,0
31.472443,31.579205,59,52,0
31.579205,31.686348,62,52,0
31.686348,31.794003,68,52,0
31.36606,31.794003,71,54,0
31.901146,32.007908,59,52,0
32.007908,32.114166,64,50,0
32.114166,32.220047,67,49,0
31.794003,32.220047,71,54,0
32.325436,32.430454,60,46,0
32.430454,32.53498,64,44,0
32.53498,32.639027,67,38,0
32.220047,32.639027,72,52,0
32.743168,32.847305,60,38,0
32.847305,32.951443,64,40,0
32.951443,33.05558,67,42,0
33.05558,33.159718,72,43,0
33.159718,33.263855,60,45,0
33.263855,33.367992,64,46,0
33.367992,33.47668,67,48,0
33.58082,33.684956,60,46,0
33.684956,33.789093,64,47,0
33.789093,33.89323,67,49,0
33.89323,33.997368,72,50,0
33.997368,34.101505,60,52,0
34.101505,34.205647,64,53,0
34.205647,34.313965,67,38,0
34.419304,34.524567,60,51,0
34.524567,34.6302,64,52,0
34.6302,34.736084,67,52,0
34.842216,34.948597,60,52,0
34.948597,35.05536,64,52,0
35.05536,35.162376,67,52,0
34.736084,35.162376,72,54,0
35.268757,35.37489,60,52,0
35.37489,35.480648,64,50,0
35.480648,35.58616,67,49,0
35.162376,35.58616,72,53,0
35.6913,35.796196,60,46,0
35.796196,35.900723,65,44,0
35.900723,36.00465,68,38,0
35.58616,36.00465,72,47,0
36.108788,36.21293,65,38,0
36.21293,36.317066,69,40,0
36.317066,36.421204,72,42,0
36.421204,36.52534,77,43,0
36.52534,36.62948,65,45,0
36.62948,36.733616,69,46,0
36.733616,36.842304,72,48,0
36.94644,37.05058,65,46,0
37.05058,37.154716,69,47,0
37.154716,37.258854,72,49,0
37.258854,37.36299,77,50,0
37.36299,37.46713,65,52,0
37.46713,37.571266,69,53,0
37.571266,37.67959,72,54,0
37.78508,37.89057,65,50,0
37.89057,37.996063,69,50,0
37.996063,38.10156,72,50,0
38.20705,38.312542,65,53,0
38.312542,38.418037,69,52,0
38.418037,38.52353,72,52,0
38.10156,38.52353,77,55,0
38.52353,38.627666,69,54,0
38.52353,38.627666,65,54,0
38.627666,38.731804,77,54,0
38.731804,38.837296,65,53,0
38.731804,38.837296,70,53,0
38.837296,38.94279,77,52,0
38.94279,39.048798,65,52,0
38.94279,39.048798,72,52,0
39.048798,39.154804,77,51,0
39.154804,39.26081,73,50,0
39.154804,39.26081,65,50,0
39.26081,39.366817,77,50,0
39.470955,39.575092,60,52,0
39.575092,39.67923,65,49,0
39.67923,39.783367,68,50,0
39.88751,39.991646,60,50,0
39.991646,40.095783,65,50,0
40.095783,40.205566,68,50,0
39.783367,40.205566,72,56,0
40.309704,40.41384,60,52,0
40.41384,40.517982,67,52,0
40.517982,40.62212,70,52,0
40.205566,40.62212,72,56,0
40.726257,40.830395,60,52,0
40.830395,40.934532,64,52,0
40.934532,41.04432,67,52,0
40.62212,41.04432,72,56,0
41.04432,41.46087,68,59,0
41.04432,41.46087,60,59,0
41.04432,41.46087,72,59,0
41.04432,41.46087,65,59,0
41.77328,41.882374,77,69,0
41.77328,41.882374,80,69,0
41.882374,42.298923,77,74,0
41.882374,42.298923,80,74,0
42.611336,42.7196,80,70,0
42.611336,42.7196,77,70,0
42.7196,43.55584,80,75,0
42.7196,43.55584,77,75,0
43.55584,43.764896,79,68,0
43.55584,43.764896,76,68,0
45.12104,45.23013,79,69,0
45.12104,45.23013,82,69,0
45.23013,45.64668,79,74,0
45.23013,45.64668,82,74,0
45.959095,46.06736,82,70,0
45.959095,46.06736,79,70,0
46.06736,46.903595,79,75,0
46.06736,46.903595,82,75,0
46.903595,47.112656,77,68,0
46.903595,47.112656,80,68,0
48.468796,48.577885,87,82,0
48.468796,48.577885,84,82,0
48.577885,48.99444,84,89,0
48.577885,48.99444,87,89,0
49.30685,49.415115,87,84,0
49.30685,49.415115,84,84,0
49.415115,50.46041,84,90,0
49.415115,50.46041,87,90,0
50.46041,50.670937,82,79,0
50.46041,50.670937,85,79,0
50.670937,50.881466,84,77,0
50.670937,50.881466,80,77,0
50.881466,51.09199,82,73,0
50.881466,51.09199,79,73,0
51.09199,51.50854,80,82,0
51.09199,51.50854,77,82,0
51.820953,51.925724,80,79,0
51.820953,51.925724,89,79,0
51.820953,51.925724,77,79,0
51.925724,52.342274,82,82,0
51.925724,52.342274,91,82,0
51.925724,52.342274,79,82,0
52.65469,52.764923,79,79,0
52.65469,52.764923,88,79,0
52.65469,52.764923,76,79,0
52.764923,52.86982,80,73,0
52.764923,52.86982,89,73,0
52.764923,52.86982,77,73,0
52.86982,52.97429,72,61,0
52.97429,53.078335,77,62,0
53.078335,53.182022,80,63,0
53.182022,53.285294,84,68,0
53.285294,53.38815,85,65,0
53.38815,53.490654,84,66,0
53.490654,53.592754,82,65,0
53.592754,53.694622,80,68,0
53.694622,53.797245,82,67,0
53.797245,53.900635,80,66,0
53.900635,54.004864,79,65,0
54.004864,54.109882,77,64,0
54.109882,54.215763,79,63,0
54.215763,54.322464,80,63,0
54.322464,54.42999,77,62,0
54.5652,54.67065,72,61,0
54.67065,54.775608,77,62,0
54.775608,54.880016,80,63,0
54.880016,54.98394,84,68,0
54.98394,55.08739,85,65,0
55.08739,55.190365,84,66,0
55.190365,55.29287,82,65,0
55.29287,55.39538,80,68,0
55.39538,55.498413,82,67,0
55.498413,55.60204,80,66,0
55.60204,55.706326,79,65,0
55.706326,55.811222,77,64,0
55.811222,55.916733,79,63,0
55.916733,56.022926,80,63,0
56.022926,56.12988,77,62,0
56.265408,56.370857,77,64,0
56.370857,56.47575,83,65,0
56.47575,56.5801,86,66,0
56.5801,56.683846,89,72,0
56.683846,56.78706,91,69,0
56.78706,56.88968,89,70,0
56.88968,56.99178,87,69,0
56.99178,57.093647,86,72,0
57.093647,57.196156,87,71,0
57.196156,57.299305,86,70,0
57.299305,57.403053,84,69,0
57.403053,57.50746,83,68,0
57.50746,57.61254,84,67,0
57.61254,57.7183,86,66,0
57.7183,57.824936,83,65,0
57.960026,58.065105,77,64,0
58.065105,58.169697,83,65,0
58.169697,58.273743,86,66,0
58.273743,58.377308,89,72,0
58.377308,58.480404,91,69,0
58.480404,58.583027,89,70,0
58.583027,58.68518,87,69,0
58.68518,58.78705,86,72,0
58.78705,58.889614,87,71,0
58.889614,58.992886,86,70,0
58.992886,59.09693,84,69,0
59.09693,59.201767,83,68,0
59.201767,59.30734,84,67,0
59.30734,59.41366,86,66,0
59.41366,59.520866,83,65,0
59.655956,59.761036,79,67,0
59.761036,59.865623,84,68,0
59.865623,59.969673,87,69,0
59.969673,60.07324,91,75,0
60.07324,60.17633,92,72,0
60.17633,60.278954,91,73,0
60.278954,60.38111,89,72,0
60.38111,60.48298,87,75,0
60.48298,60.585545,89,74,0
60.585545,60.688816,87,73,0
60.688816,60.792862,86,72,0
60.792862,60.897697,84,71,0
60.897697,61.00327,86,70,0
61.00327,61.10959,87,69,0
61.10959,61.216797,84,68,0
61.351887,61.456963,79,67,0
61.456963,61.561554,84,68,0
61.561554,61.6656,87,69,0
61.6656,61.76917,91,76,0
61.76917,61.87226,92,74,0
61.87226,61.974884,91,75,0
61.974884,62.07704,89,74,0
62.07704,62.17891,87,78,0
62.17891,62.281475,89,77,0
62.281475,62.384743,87,77,0
62.384743,62.488792,86,76,0
62.488792,62.593628,84,75,0
62.593628,62.6992,86,75,0
62.6992,62.80552,87,74,0
62.80552,62.912727,84,74,0
63.01799,63.123253,85,70,0
63.123253,63.228516,87,73,0
63.228516,63.333782,85,70,0
63.333782,63.439045,87,65,0
63.439045,63.544308,85,63,0
63.544308,63.65222,84,59,0
63.65222,63.760136,85,59,0
63.86805,63.975964,83,58,0
63.975964,64.08388,84,60,0
64.08388,64.19179,83,57,0
64.299706,64.407616,84,57,0
64.407616,64.51553,86,60,0
64.51553,64.62344,84,56,0
64.72871,64.83397,85,70,0
64.83397,64.93923,87,73,0
64.93923,65.044495,85,70,0
65.044495,65.14976,87,65,0
65.14976,65.25503,85,63,0
65.25503,65.36294,84,59,0
65.36294,65.47085,85,59,0
65.578766,65.686676,83,58,0
65.686676,65.79459,84,60,0
65.79459,65.902504,83,57,0
66.01042,66.11833,84,57,0
66.11833,66.22625,86,60,0
66.22625,66.33416,84,56,0
66.43942,66.544685,85,70,0
66.544685,66.64995,87,73,0
66.64995,66.75521,85,70,0
66.75521,66.86048,87,73,0
66.86048,66.965744,85,70,0
66.965744,67.073654,84,59,0
67.073654,67.18157,86,59,0
67.28948,67.39739,83,58,0
67.39739,67.50531,84,60,0
67.50531,67.61322,83,58,0
67.72114,67.82905,80,58,0
67.82905,67.936966,82,61,0
67.936966,68.044876,80,57,0
68.152794,68.260704,79,60,0
68.260704,68.36862,80,62,0
68.36862,68.47653,79,60,0
68.58445,68.69236,78,61,0
68.69236,68.80028,79,65,0
68.80028,68.90819,78,62,0
69.016106,69.124016,77,65,0
69.124016,69.231926,79,67,0
69.231926,69.33984,77,64,0
69.447754,69.55567,75,66,0
69.55567,69.66358,77,69,0
69.66358,69.7715,75,67,0
69.87941,69.98733,75,67,0
69.98733,70.09524,77,70,0
70.09524,70.203156,75,68,0
70.311066,70.41898,74,66,0
70.41898,70.52689,75,69,0
70.52689,70.63481,74,64,0
70.74272,70.85064,72,64,0
70.85064,70.95855,74,65,0
70.95855,71.06647,72,62,0
71.17438,71.28229,71,60,0
71.28229,71.390205,72,62,0
71.390205,71.498116,71,57,0
71.60338,71.70865,68,66,0
71.70865,71.81391,80,73,0
71.81391,71.919174,68,59,0
71.919174,72.02444,80,71,0
72.02444,72.1297,68,58,0
72.1297,72.23761,80,63,0
72.23761,72.34553,68,59,0
72.45344,72.561356,68,60,0
72.561356,72.669266,80,71,0
72.669266,72.77718,79,66,0
72.77718,72.88509,77,68,0
72.88509,72.99301,75,66,0
72.99301,73.10092,74,65,0
73.10092,73.20883,72,58,0
73.3141,73.419365,80,68,0
73.419365,73.52463,92,75,0
73.52463,73.62989,80,67,0
73.62989,73.73515,92,74,0
73.73515,73.840416,80,67,0
73.840416,73.948326,92,69,0
73.948326,74.056244,80,60,0
74.164154,74.27207,80,61,0
74.27207,74.37998,92,73,0
74.37998,74.4879,91,66,0
74.4879,74.59581,89,70,0
74.59581,74.70373,87,68,0
74.70373,74.81164,86,67,0
74.81164,74.919556,84,65,0
75.02482,75.13008,68,66,0
75.13008,75.235344,80,73,0
75.235344,75.34061,68,66,0
75.34061,75.44587,80,73,0
75.44587,75.55113,68,66,0
75.55113,75.65904,80,68,0
75.65904,75.76696,68,61,0
75.87487,75.98279,80,68,0
75.98279,76.0907,68,60,0
76.0907,76.198616,80,68,0
76.30462,76.41063,92,78,0
76.41063,76.51663,80,69,0
76.51663,76.62264,92,75,0
76.73017,76.8377,91,78,0
76.8377,76.94522,79,71,0
76.94522,77.05275,91,74,0
77.16028,77.26781,90,75,0
77.26781,77.37533,78,71,0
77.37533,77.48286,90,74,0
77.58924,77.695625,89,78,0
77.695625,77.80201,77,69,0
77.80201,77.908394,89,74,0
78.01477,78.121155,87,77,0
78.121155,78.22754,75,71,0
78.121155,78.22754,79,71,0
78.22754,78.33392,87,75,0
78.44106,78.54821,87,75,0
78.54821,78.65535,75,68,0
78.54821,78.65535,81,68,0
78.65535,78.7625,87,75,0
78.86964,78.976776,86,73,0
78.976776,79.08392,74,66,0
78.976776,79.08392,81,66,0
79.08392,79.19106,86,73,0
79.29821,79.40535,84,71,0
79.40535,79.51249,72,66,0
79.40535,79.51249,75,66,0
79.51249,79.61964,84,71,0
79.726776,79.83392,83,69,0
79.83392,79.94106,74,62,0
79.83392,79.94106,71,62,0
79.94106,80.04821,83,64,0
80.04821,80.15421,72,65,0
80.04821,80.15421,79,65,0
80.04821,80.15421,84,77,0
80.04821,80.15421,75,65,0
80.15421,80.26022,67,74,0
80.26022,80.36585,72,76,0
80.36585,80.47149,75,78,0
80.47149,80.57675,79,80,0
80.57675,80.682014,80,76,0
80.682014,80.78691,79,76,0
80.78691,80.89156,77,76,0
80.89156,80.99573,75,77,0
80.99573,81.100136,77,71,0
81.100136,81.20479,75,72,0
81.20479,81.309685,74,72,0
81.309685,81.414825,72,78,0
81.414825,81.52021,70,73,0
81.52021,81.62585,68,73,0
81.62585,81.73173,67,72,0
81.73173,81.83786,65,75,0
81.83786,81.944244,63,70,0
81.944244,82.05088,62,70,0
82.05088,82.15777,60,70,0
82.15777,82.37755,59,73,0
82.37755,82.54238,67,82,0
82.37755,82.54238,62,69,0
82.37755,82.54238,55,69,0
82.37755,82.54238,59,69,0
82.59733,82.76216,67,73,0
82.59733,82.76216,59,61,0
82.59733,82.76216,65,73,0
82.59733,82.76216,55,61,0
82.81711,82.98194,67,71,0
82.81711,82.98194,59,60,0
82.81711,82.98194,55,60,0
82.81711,82.98194,65,71,0
83.03689,83.20172,65,72,0
83.03689,83.20172,55,61,0
83.03689,83.20172,67,72,0
83.03689,83.20172,59,61,0
83.25667,83.4215,59,61,0
83.25667,83.4215,65,72,0
83.25667,83.4215,67,72,0
83.25667,83.4215,55,61,0
83.47645,83.58245,67,77,0
83.47645,83.58245,63,77,0
83.47645,83.58245,55,77,0
83.47645,83.58245,60,77,0
83.58245,83.68846,79,74,0
83.68846,83.79409,84,76,0
83.79409,83.89973,87,78,0
83.89973,84.00499,91,80,0
84.00499,84.11025,92,76,0
84.11025,84.21515,91,76,0
84.21515,84.3198,89,76,0
84.3198,84.423965,87,77,0
84.423965,84.52837,89,71,0
84.52837,84.633026,87,72,0
84.633026,84.73792,86,72,0
84.73792,84.84306,84,78,0
84.84306,84.94845,82,73,0
84.94845,85.054085,80,73,0
85.054085,85.159966,79,72,0
85.159966,85.2661,77,75,0
85.2661,85.37248,75,70,0
85.37248,85.47912,74,70,0
85.47912,85.586006,72,70,0
85.586006,85.805786,71,73,0
85.805786,85.97062,67,58,0
85.805786,85.97062,71,69,0
85.805786,85.97062,79,82,0
85.805786,85.97062,74,69,0
86.025566,86.1904,77,73,0
86.025566,86.1904,67,51,0
86.025566,86.1904,79,73,0
86.025566,86.1904,71,61,0
86.245346,86.41018,79,70,0
86.245346,86.41018,77,70,0
86.245346,86.41018,67,50,0
86.245346,86.41018,71,59,0
86.465126,86.62996,79,73,0
86.465126,86.62996,71,61,0
86.465126,86.62996,77,73,0
86.465126,86.62996,67,51,0
86.684906,86.84974,79,71,0
86.684906,86.84974,71,60,0
86.684906,86.84974,67,51,0
86.684906,86.84974,77,71,0
86.904686,87.14653,75,73,0
86.904686,87.14653,67,51,0
86.904686,87.14653,79,73,0
86.904686,87.14653,72,61,0
87.579834,87.74467,84,69,0
87.579834,87.74467,87,69,0
87.579834,87.74467,91,82,0
87.579834,87.74467,79,58,0
87.799614,87.96445,91,73,0
87.799614,87.96445,89,73,0
87.799614,87.96445,79,51,0
87.799614,87.96445,83,61,0
88.019394,88.18423,79,50,0
88.019394,88.18423,83,59,0
88.019394,88.18423,91,70,0
88.019394,88.18423,89,70,0
88.239174,88.40401,83,61,0
88.239174,88.40401,79,51,0
88.239174,88.40401,91,73,0
88.239174,88.40401,89,73,0
88.458954,88.62379,79,51,0
88.458954,88.62379,83,60,0
88.458954,88.62379,91,71,0
88.458954,88.62379,89,71,0
88.678734,88.867386,87,73,0
88.678734,88.867386,79,51,0
88.678734,88.867386,91,73,0
88.678734,88.867386,84,61,0
89.35388,89.518715,79,82,0
89.35388,89.518715,75,69,0
89.35388,89.518715,67,58,0
89.35388,89.518715,72,69,0
89.57366,89.738495,79,73,0
89.57366,89.738495,71,61,0
89.57366,89.738495,77,73,0
89.57366,89.738495,67,51,0
89.79344,89.958275,79,70,0
89.79344,89.958275,71,59,0
89.79344,89.958275,67,50,0
89.79344,89.958275,77,70,0
90.01322,90.178055,77,73,0
90.01322,90.178055,67,51,0
90.01322,90.178055,79,73,0
90.01322,90.178055,71,61,0
90.233,90.397835,71,60,0
90.233,90.397835,77,71,0
90.233,90.397835,79,71,0
90.233,90.397835,67,51,0
90.45278,90.64143,79,73,0
90.45278,90.64143,75,61,0
90.45278,90.64143,67,51,0
90.45278,90.64143,72,61,0
91.12793,91.29276,72,58,0
91.12793,91.29276,75,69,0
91.12793,91.29276,84,82,0
91.12793,91.29276,79,69,0
91.34771,91.51254,79,61,0
91.34771,91.51254,72,51,0
91.34771,91.51254,84,73,0
91.34771,91.51254,76,61,0
91.56749,91.73232,79,59,0
91.56749,91.73232,72,50,0
91.56749,91.73232,84,70,0
91.56749,91.73232,76,59,0
91.78727,91.9521,72,51,0
91.78727,91.9521,79,61,0
91.78727,91.9521,84,73,0
91.78727,91.9521,76,61,0
92.00705,92.17188,79,60,0
92.00705,92.17188,76,60,0
92.00705,92.17188,72,51,0
92.00705,92.17188,84,71,0
92.22683,92.41548,72,51,0
92.22683,92.41548,77,61,0
92.22683,92.41548,84,73,0
92.22683,92.41548,80,61,0
92.9036,93.125,68,69,0
92.9036,93.125,60,58,0
92.9036,93.125,72,82,0
92.9036,93.125,65,69,0
93.125,93.34682,72,73,0
93.125,93.34682,70,73,0
93.125,93.34682,60,51,0
93.125,93.34682,64,61,0
93.34682,93.57056,72,70,0
93.34682,93.57056,64,59,0
93.34682,93.57056,70,70,0
93.34682,93.57056,60,50,0
93.57056,93.796265,72,73,0
93.57056,93.796265,64,61,0
93.57056,93.796265,60,51,0
93.57056,93.796265,70,73,0
93.796265,94.02412,70,71,0
93.796265,94.02412,60,51,0
93.796265,94.02412,72,71,0
93.796265,94.02412,64,60,0
94.02412,94.14176,63,75,0
94.02412,94.14176,69,89,0
94.02412,94.14176,72,89,0
94.02412,94.14176,60,63,0
94.14176,94.25266,57,70,0
94.25266,94.36019,60,71,0
94.36019,94.46758,63,72,0
94.46758,94.57473,66,72,0
94.57473,94.68175,69,72,0
94.68175,94.788506,72,73,0
94.788506,94.89514,75,74,0
94.89514,95.001526,78,75,0
95.001526,95.10778,81,77,0
95.10778,95.21379,84,79,0
95.21379,95.31967,87,81,0
95.31967,95.42531,90,83,0
95.42531,95.530815,87,83,0
95.530815,95.63608,84,82,0
95.63608,95.74122,81,81,0
95.74122,95.84648,78,81,0
95.84648,95.951744,75,80,0
95.951744,96.05738,72,79,0
96.05738,96.16302,69,78,0
96.16302,96.26902,66,77,0
96.26902,96.37503,63,76,0
96.37503,96.48141,60,75,0
99.30943,99.41352,57,40,0
99.41352,99.517334,60,37,0
99.517334,99.62078,63,37,0
99.62078,99.72387,66,40,0
99.72387,99.826965,68,38,0
99.826965,99.930176,66,38,0
99.930176,100.03362,65,38,0
100.03362,100.13707,63,40,0
100.13707,100.24076,65,37,0
100.24076,100.34457,63,37,0
100.34457,100.44837,61,37,0
100.44837,100.552536,60,40,0
100.552536,100.65671,61,37,0
100.65671,100.760994,63,37,0
100.760994,100.86949,60,37,0
100.97373,101.07768,57,40,0
101.07768,101.18125,60,37,0
101.18125,101.28446,63,37,0
101.28446,101.3872,66,40,0
101.3872,101.48994,68,38,0
101.48994,101.59268,66,38,0
101.59268,101.69553,65,38,0
101.69553,101.79863,63,40,0
101.79863,101.901726,65,37,0
101.901726,102.00517,63,37,0
102.00517,102.10862,61,37,0
102.10862,102.2123,60,40,0
102.2123,102.31611,61,37,0
102.31611,102.42004,63,37,0
102.42004,102.528946,60,37,0
102.63319,102.73735,57,47,0
102.73735,102.8414,60,49,0
102.8414,102.945206,63,50,0
102.945206,103.04865,66,52,0
103.04865,103.1521,68,54,0
103.1521,103.25567,66,56,0
103.25567,103.368454,65,58,0
103.368454,103.57776,63,67,0
103.57776,103.68192,63,47,0
103.68192,103.78609,65,49,0
103.78609,103.89062,66,52,0
103.89062,103.99515,68,54,0
103.99515,104.0998,66,56,0
104.0998,104.21344,65,59,0
104.21344,104.42177,63,67,0
104.42177,104.52594,63,50,0
104.52594,104.630104,65,50,0
104.630104,104.734634,66,56,0
104.734634,104.839165,68,49,0
104.839165,104.94382,66,50,0
104.94382,105.05702,65,50,0
105.05702,105.29511,63,67,0
105.29511,105.531334,78,56,0
105.29511,105.531334,66,56,0
105.531334,105.77134,77,60,0
105.531334,105.77134,65,60,0
105.77134,106.01134,81,54,0
105.77134,106.01134,69,54,0
106.01134,106.11772,70,56,0
106.01134,106.11772,82,56,0
106.11772,106.223724,65,51,0
106.223724,106.32936,70,52,0
106.32936,106.43462,73,53,0
106.43462,106.53952,77,57,0
106.53952,106.64405,78,55,0
106.64405,106.748215,77,56,0
106.748215,106.85131,75,55,0
106.85131,106.95487,73,57,0
106.95487,107.05892,75,56,0
107.05892,107.163574,73,56,0
107.163574,107.268715,72,55,0
107.268715,107.37447,70,54,0
107.37447,107.48073,72,53,0
107.48073,107.587616,73,53,0
107.587616,107.69508,70,52,0
107.80072,107.90648,65,51,0
107.90648,108.01174,70,52,0
108.01174,108.11651,73,53,0
108.11651,108.220924,77,57,0
108.220924,108.324844,78,55,0
108.324844,108.42841,77,56,0
108.42841,108.53139,75,55,0
108.53139,108.63436,73,57,0
108.63436,108.73793,75,56,0
108.73793,108.84198,73,56,0
108.84198,108.94663,72,55,0
108.94663,109.05177,70,54,0
109.05177,109.15753,72,53,0
109.15753,109.26379,73,53,0
109.26379,109.371254,70,52,0
109.47614,109.58061,66,51,0
109.58061,109.68466,71,53,0
109.68466,109.788345,75,54,0
109.788345,109.89162,78,59,0
109.89162,109.99448,80,58,0
109.99448,110.096985,78,59,0
110.096985,110.19908,77,59,0
110.19908,110.30095,75,62,0
110.30095,110.40357,77,62,0
110.40357,110.50696,75,62,0
110.50696,110.61119,73,62,0
110.61119,110.71621,71,62,0
110.71621,110.82209,73,61,0
110.82209,110.92879,75,64,0
110.92879,111.03489,71,61,0
111.03489,111.13846,70,68,0
111.13846,111.24251,72,64,0
111.24251,111.34716,70,66,0
111.34716,111.4523,69,64,0
111.4523,111.55806,70,62,0
111.55806,111.664314,72,60,0
111.664314,111.77114,73,59,0
111.77114,111.87724,70,58,0
111.87724,111.98081,69,62,0
111.98081,112.084854,70,61,0
112.084854,112.189384,69,60,0
112.189384,112.2944,67,58,0
112.2944,112.39992,69,56,0
112.39992,112.5058,70,55,0
112.5058,112.61237,72,54,0
112.61237,112.719894,69,53,0
112.719894,112.92969,70,61,0
112.92969,113.03434,70,57,0
113.03434,113.13887,73,58,0
113.13887,113.243034,77,62,0
113.243034,113.3472,78,60,0
113.3472,113.451004,77,61,0
113.451004,113.554695,75,60,0
113.554695,113.6585,73,62,0
113.6585,113.762665,75,61,0
113.762665,113.867195,73,61,0
113.867195,113.97209,72,60,0
113.97209,114.077354,70,69,0
114.077354,114.18299,72,58,0
113.97209,114.18299,82,69,0
114.18299,114.289246,73,59,0
114.289246,114.396774,70,58,0
114.396774,114.60841,81,71,0
114.60841,114.71368,70,60,0
114.71368,114.81857,73,62,0
114.81857,114.9231,77,69,0
114.9231,115.02727,78,65,0
114.81857,115.02727,82,69,0
115.02727,115.13108,77,67,0
115.13108,115.234406,75,66,0
115.234406,115.33774,73,69,0
115.33774,115.441666,75,68,0
115.441666,115.546074,73,69,0
115.546074,115.651215,72,69,0
115.651215,115.75697,70,68,0
115.75697,115.86323,72,67,0
115.651215,115.86323,82,82,0
115.86323,115.970245,73,68,0
115.970245,116.077774,70,67,0
116.077774,116.18194,83,88,0
116.077774,116.18194,71,88,0
116.18194,116.285866,78,74,0
116.285866,116.389435,83,76,0
116.389435,116.49276,87,78,0
116.49276,116.59573,90,80,0
116.59573,116.69848,92,76,0
116.69848,116.800865,90,76,0
116.800865,116.90291,89,76,0
116.90291,117.00414,87,77,0
117.00414,117.105385,89,71,0
117.105385,117.20708,87,72,0
117.20708,117.309235,85,72,0
117.309235,117.41174,83,78,0
117.41174,117.51472,85,73,0
117.51472,117.61804,83,73,0
117.61804,117.72197,82,72,0
117.72197,117.82613,81,77,0
117.82613,117.92995,84,71,0
117.92995,118.033394,87,72,0
118.033394,118.136604,85,72,0
118.136604,118.23946,84,78,0
118.23946,118.34255,85,73,0
118.34255,118.44648,84,73,0
118.44648,118.55138,82,72,0
118.55138,118.65591,81,77,0
118.65591,118.76044,82,71,0
118.76044,118.86509,81,72,0
118.86509,118.96998,78,72,0
118.96998,119.07512,77,74,0
119.07512,119.18051,75,71,0
119.18051,119.28614,73,71,0
119.28614,119.39203,72,69,0
119.39203,119.50355,70,73,0
119.615074,120.0391,77,74,0
120.0391,120.14511,77,61,0
120.251114,120.35981,77,61,0
120.468506,120.89253,78,72,0
120.89253,120.99854,78,60,0
121.10455,121.21525,78,59,0
121.32595,121.74998,77,73,0
121.74998,121.85599,77,63,0
121.96199,122.07229,77,65,0
122.18258,122.289345,72,61,0
122.3961,122.50287,73,61,0
122.60963,122.71639,75,61,0
122.82315,122.93468,73,65,0
123.046196,123.47023,77,73,0
123.046196,123.47023,89,80,0
123.47023,123.57623,77,68,0
123.47023,123.57623,89,74,0
123.68224,123.79094,77,68,0
123.68224,123.79094,89,74,0
123.899635,124.32366,78,74,0
123.899635,124.32366,90,81,0
124.32366,124.429665,78,67,0
124.32366,124.429665,90,73,0
124.535675,124.64638,78,66,0
124.535675,124.64638,90,72,0
124.75708,125.18111,77,75,0
124.75708,125.18111,89,82,0
125.18111,125.28711,77,70,0
125.18111,125.28711,89,77,0
125.39312,125.50341,77,73,0
125.39312,125.50341,89,80,0
125.61371,125.72047,72,68,0
125.61371,125.72047,84,74,0
125.82723,125.93399,73,68,0
125.82723,125.93399,85,74,0
126.04076,126.147514,75,68,0
126.04076,126.147514,87,74,0
126.25427,126.3658,73,73,0
126.25427,126.3658,85,80,0
126.477325,126.90135,72,72,0
126.90135,127.00736,72,61,0
127.113365,127.22206,72,61,0
127.33076,127.75478,71,72,0
127.75478,127.860794,71,60,0
127.9668,128.0775,71,59,0
128.1882,128.61223,72,71,0
128.61223,128.71823,72,63,0
128.82425,128.93454,72,65,0
129.04483,129.1516,67,61,0
129.25836,129.36511,68,61,0
129.47188,129.57864,70,61,0
129.6854,129.79692,68,65,0
129.90845,130.33247,72,73,0
129.90845,130.33247,84,80,0
130.33247,130.43848,72,68,0
130.33247,130.43848,84,74,0
130.5445,130.65318,72,68,0
130.5445,130.65318,84,74,0
130.76189,131.18591,71,74,0
130.76189,131.18591,83,81,0
131.18591,131.29192,71,67,0
131.18591,131.29192,83,73,0
131.39792,131.50862,71,66,0
131.39792,131.50862,83,72,0
131.61932,132.04335,72,75,0
131.61932,132.04335,84,82,0
132.04335,132.14937,72,70,0
132.04335,132.14937,84,77,0
132.25537,132.36566,72,73,0
132.25537,132.36566,84,80,0
132.47595,132.58272,67,68,0
132.47595,132.58272,79,74,0
132.68948,132.79623,68,68,0
132.68948,132.79623,80,74,0
132.903,133.00977,70,68,0
132.903,133.00977,82,74,0
133.11653,133.25351,68,73,0
133.11653,133.25351,80,80,0
133.25351,133.35951,60,70,0
133.35951,133.46515,65,72,0
133.46515,133.57079,68,74,0
133.57079,133.67606,72,76,0
133.67606,133.78131,73,72,0
133.78131,133.88622,72,72,0
133.88622,133.99086,70,72,0
133.99086,134.09503,68,73,0
134.09503,134.19943,70,67,0
134.19943,134.3041,68,69,0
134.3041,134.40898,67,69,0
134.40898,134.51413,65,75,0
134.51413,134.6195,67,70,0
134.6195,134.72514,68,70,0
134.72514,134.83118,65,70,0
134.83118,134.94026,66,75,0
134.94026,135.04622,61,72,0
135.04622,135.15184,66,74,0
135.15184,135.25748,70,76,0
135.25748,135.36275,73,78,0
135.36275,135.468,75,75,0
135.468,135.5729,73,75,0
135.5729,135.67755,72,75,0
135.67755,135.78172,70,76,0
135.78172,135.88612,72,70,0
135.88612,135.99078,70,71,0
135.99078,136.09567,68,71,0
136.09567,136.20082,66,76,0
136.20082,136.3062,68,73,0
136.3062,136.41183,70,73,0
136.41183,136.51772,66,72,0
136.51772,136.62524,69,77,0
136.62524,136.73119,63,74,0
136.73119,136.83682,69,76,0
136.83682,136.94246,72,78,0
136.94246,137.04771,75,80,0
137.04771,137.15298,77,76,0
137.15298,137.25787,75,76,0
137.25787,137.36253,73,77,0
137.36253,137.4667,72,78,0
137.4667,137.5711,73,72,0
137.5711,137.67577,72,73,0
137.67577,137.78065,70,73,0
137.78065,137.88579,69,80,0
137.88579,137.99118,70,75,0
137.99118,138.09682,72,75,0
138.09682,138.2027,69,74,0
138.2027,138.31023,70,90,0
138.31023,138.41617,65,76,0
138.41617,138.5218,70,79,0
138.5218,138.62744,73,82,0
138.62744,138.7327,77,83,0
138.7327,138.83797,78,83,0
138.83797,138.94286,77,82,0
138.94286,139.04752,75,82,0
139.04752,139.15167,73,81,0
139.15167,139.25584,72,81,0
139.25584,139.36002,70,80,0
139.36002,139.46417,68,80,0
139.46417,139.56834,66,79,0
139.56834,139.67252,65,79,0
139.67252,139.77667,63,78,0
139.77667,139.88084,61,78,0
139.88084,139.98502,60,77,0
139.98502,140.08917,58,77,0
140.08917,140.19334,56,76,0
140.19334,140.29752,54,76,0
140.29752,140.40167,53,73,0
140.40167,140.50584,51,73,0
140.50584,140.61002,49,74,0
140.61002,140.71417,48,76,0
140.71417,140.81834,46,78,0
140.81834,140.92252,48,79,0
140.92252,141.02667,49,81,0
141.02667,141.13084,46,82,0
141.13084,141.37878,46,82,0
141.37878,141.70665,56,90,0
141.37878,141.70665,47,77,0
141.37878,141.70665,50,77,0
141.37878,141.70665,53,77,0
141.70665,141.81418,55,98,0
141.70665,141.81418,52,82,0
141.70665,141.81418,48,82,0
141.81418,141.9217,60,66,0
141.81418,141.9217,48,66,0
142.02924,142.1365,48,66,0
142.02924,142.1365,60,66,0
142.24364,142.35078,48,66,0
142.24364,142.35078,60,66,0
142.4578,142.56456,48,66,0
142.4578,142.56456,60,66,0
142.67133,142.77795,48,66,0
142.67133,142.77795,60,66,0
142.88434,142.99072,48,66,0
142.88434,142.99072,60,66,0
143.0971,143.20311,48,66,0
143.0971,143.20311,60,66,0
143.30913,143.41513,48,66,0
143.30913,143.41513,60,66,0
143.52113,143.62714,72,64,0
143.52113,143.62714,60,64,0
143.73315,143.83916,72,64,0
143.73315,143.83916,60,64,0
143.94516,144.05118,72,65,0
143.94516,144.05118,60,65,0
144.15718,144.26318,72,66,0
144.15718,144.26318,60,66,0
144.36919,144.4752,72,64,0
144.36919,144.4752,60,64,0
144.5812,144.68721,72,64,0
144.5812,144.68721,60,64,0
144.79323,144.89923,72,65,0
144.79323,144.89923,60,65,0
145.00523,145.11124,72,66,0
145.00523,145.11124,60,66,0
145.21614,145.32127,84,67,0
145.21614,145.32127,72,67,0
145.42679,145.53255,84,68,0
145.42679,145.53255,72,68,0
145.63867,145.7452,84,69,0
145.63867,145.7452,72,69,0
145.85194,145.95909,84,70,0
145.85194,145.95909,72,70,0
146.06662,146.17453,84,71,0
146.06662,146.17453,72,71,0
146.2827,146.39127,84,72,0
146.2827,146.39127,72,72,0
146.50023,146.60945,84,73,0
146.50023,146.60945,72,73,0
146.71907,146.82924,84,74,0
146.71907,146.82924,72,74,0
146.93953,147.05023,96,75,0
146.93953,147.05023,84,75,0
147.16121,147.27246,96,76,0
147.16121,147.27246,84,76,0
147.38397,147.49591,96,78,0
147.38397,147.49591,84,78,0
147.60814,147.72064,96,81,0
147.60814,147.72064,84,81,0
147.83342,147.94662,96,82,0
147.83342,147.94662,84,82,0
148.06012,148.1739,96,84,0
148.06012,148.1739,84,84,0
148.28856,148.41035,96,86,0
148.28856,148.41035,84,86,0
148.54796,148.68558,96,88,0
148.54796,148.68558,84,88,0
149.65863,149.76578,61,72,0
149.76578,149.87291,66,75,0
149.87291,149.98006,70,76,0
149.98006,150.0872,73,88,0
150.5215,150.6302,73,77,0
150.6302,150.74008,78,79,0
150.74008,150.8512,82,81,0
150.8512,151.06549,85,89,0
152.56549,152.67262,64,89,0
153.10684,153.21397,64,72,0
153.21397,153.32112,67,75,0
153.32112,153.42827,70,76,0
153.42827,153.5354,76,87,0
153.96933,154.07736,76,77,0
154.07736,154.18633,79,79,0
154.18633,154.29622,82,81,0
154.29622,154.5105,88,93,0
156.22607,156.33517,61,51,0
156.33517,156.44547,64,53,0
156.44547,156.65974,67,54,0
157.73117,157.83884,58,47,0
157.83884,157.94753,61,51,0
157.94753,158.05742,64,48,0
158.05742,158.16853,67,50,0
158.16853,158.38281,70,51,0
159.45424,159.56139,61,44,0
159.56139,159.66853,64,48,0
159.66853,159.77568,67,45,0
159.77568,159.88281,70,47,0
159.88281,160.0971,73,48,0
161.16853,161.27567,64,41,0
161.27567,161.38281,67,45,0
161.38281,161.48996,70,42,0
161.48996,161.5971,73,44,0
161.5971,161.81139,76,45,0
163.31139,163.52567,61,35,0
163.52567,163.73996,64,36,0
163.73996,163.95424,67,37,0
163.95424,164.16853,70,38,0
164.16853,164.38281,73,39,0
164.38281,164.59709,76,40,0
164.59709,164.81139,79,40,0
164.81139,165.02567,82,41,0
165.02567,165.23996,85,42,0
165.23996,165.45424,88,43,0
165.45424,165.66852,91,44,0
165.66852,165.88281,94,46,0
165.88281,166.09709,91,46,0
166.09709,166.31139,88,45,0
166.31139,166.52567,85,45,0
166.52567,166.73996,82,44,0
166.73996,166.95424,79,44,0
166.95424,167.16852,76,43,0
167.16852,167.38281,73,43,0
167.38281,167.59709,70,42,0
167.59709,167.81139,67,42,0
167.81139,168.02567,64,41,0
168.02567,168.23994,61,40,0
176.16852,176.81137,64,34,0
176.16852,176.81137,55,34,0
176.16852,176.81137,58,34,0
176.16852,176.81137,60,34,0
177.02565,177.66852,76,34,0
177.02565,177.66852,67,34,0
177.02565,177.66852,70,34,0
177.02565,177.66852,72,34,0
177.8828,178.52565,79,34,0
177.8828,178.52565,88,34,0
177.8828,178.52565,84,34,0
177.8828,178.52565,82,34,0
179.70132,179.80542,48,40,0
179.80542,179.90923,53,37,0
179.90923,180.01266,56,37,0
180.01266,180.11577,60,40,0
180.11577,180.21886,61,38,0
180.21886,180.32207,60,38,0
180.32207,180.42552,58,38,0
180.42552,180.52896,56,40,0
180.52896,180.63264,58,37,0
180.63264,180.73645,56,37,0
180.73645,180.84026,55,37,0
180.84026,180.94443,53,40,0
180.94443,181.0486,55,37,0
181.0486,181.15288,56,37,0
181.15288,181.26138,53,37,0
181.36562,181.46986,48,40,0
181.46986,181.5741,53,37,0
181.5741,181.67834,56,37,0
181.67834,181.78258,60,40,0
181.78258,181.88681,61,38,0
181.88681,181.99265,60,38,0
181.99265,182.09848,58,38,0
182.09848,182.20262,56,40,0
182.20262,182.30676,58,37,0
182.30676,182.4109,56,37,0
182.4109,182.51505,55,37,0
182.51505,182.61917,53,40,0
182.61917,182.72331,55,37,0
182.72331,182.82745,56,37,0
182.82745,182.93636,53,37,0
183.0406,183.14484,49,44,0
183.14484,183.24908,54,40,0
183.24908,183.35332,58,40,0
183.35332,183.45755,61,44,0
183.45755,183.5618,63,41,0
183.5618,183.66797,61,41,0
183.66797,183.77415,60,41,0
183.77415,183.8783,58,44,0
183.8783,183.98242,60,40,0
183.98242,184.08656,58,40,0
184.08656,184.1907,56,40,0
184.1907,184.29485,54,44,0
184.29485,184.39899,56,40,0
184.39899,184.50311,54,40,0
184.50311,184.61203,53,40,0
184.61203,184.71739,52,44,0
184.71739,184.82275,53,40,0
184.82275,184.92813,55,40,0
184.92813,185.03662,52,40,0
185.03662,185.14236,53,44,0
185.14236,185.24812,55,40,0
185.24812,185.35387,56,40,0
185.35387,185.46277,53,40,0
185.46277,185.56895,55,44,0
185.56895,185.67513,56,40,0
185.67513,185.78131,58,40,0
185.78131,185.88982,55,40,0
185.88982,185.99565,52,44,0
185.99565,186.10149,53,37,0
186.10149,186.20732,55,38,0
186.20732,186.31622,52,40,0
186.31622,186.76117,53,38,0
186.96748,187.07385,64,57,0
187.18024,187.28662,65,62,0
187.393,187.49939,67,57,0
187.60356,187.70882,68,62,0
187.81384,187.92233,65,59,0
188.65361,188.76038,64,52,0
188.65361,188.76038,76,60,0
188.86713,188.97389,65,57,0
188.86713,188.97389,77,66,0
189.08066,189.18666,79,63,0
189.08066,189.18666,67,53,0
189.29266,189.39868,80,68,0
189.29266,189.39868,68,57,0
189.50468,189.61359,77,63,0
189.50468,189.61359,65,53,0
190.3452,190.56743,77,71,0
190.3452,190.56743,65,59,0
190.56743,190.78964,78,77,0
190.56743,190.78964,66,63,0
190.78964,191.01038,82,79,0
190.78964,191.01038,70,66,0
191.01038,191.1219,85,81,0
191.01038,191.1219,73,69,0
191.23454,191.34732,85,79,0
191.23454,191.34732,73,66,0
191.45955,191.89648,85,83,0
191.45955,191.89648,73,71,0
191.89648,192.77242,72,64,0
191.89648,192.77242,84,78,0
192.77242,193.21198,76,64,0
192.77242,193.21198,64,64,0
193.21198,193.31686,65,57,0
193.21198,193.31686,77,57,0
193.31686,193.42175,60,41,0
193.42175,193.52641,65,44,0
193.52641,193.63094,68,46,0
193.63094,193.73523,72,43,0
193.73523,193.83939,60,45,0
193.83939,193.94331,65,46,0
193.94331,194.052,68,48,0
194.15614,194.26028,60,46,0
194.26028,194.36443,65,47,0
194.36443,194.46855,68,49,0
194.46855,194.5727,72,50,0
194.5727,194.67683,60,52,0
194.67683,194.78098,65,53,0
194.78098,194.8893,68,38,0
194.99419,195.09944,59,51,0
195.09944,195.20508,62,52,0
195.20508,195.3111,68,52,0
195.41747,195.52423,59,52,0
195.52423,195.63138,62,52,0
195.63138,195.73903,68,52,0
195.3111,195.73903,71,54,0
195.84618,195.95294,59,52,0
195.95294,196.05919,64,50,0
196.05919,196.16507,67,49,0
195.73903,196.16507,71,54,0
196.27046,196.37549,60,46,0
196.37549,196.48001,64,44,0
196.48001,196.58406,67,38,0
196.16507,196.58406,72,52,0
196.6882,196.79233,60,38,0
196.79233,196.89647,64,40,0
196.89647,197.00061,67,42,0
197.00061,197.10475,72,43,0
197.10475,197.20888,60,45,0
197.20888,197.31302,64,46,0
197.31302,197.4217,67,48,0
197.52585,197.62999,60,46,0
197.62999,197.73412,64,47,0
197.73412,197.83826,67,49,0
197.83826,197.9424,72,50,0
197.9424,198.04654,60,52,0
198.04654,198.15068,64,53,0
198.15068,198.25899,67,38,0
198.36433,198.46959,60,51,0
198.46959,198.57523,64,52,0
198.57523,198.6811,67,52,0
198.78725,198.89363,60,52,0
198.89363,199.0004,64,52,0
199.0004,199.1074,67,52,0
198.6811,199.1074,72,54,0
199.21379,199.31992,60,52,0
199.31992,199.42567,64,50,0
199.42567,199.53119,67,49,0
199.1074,199.53119,72,53,0
199.63632,199.74123,60,46,0
199.74123,199.84575,65,44,0
199.84575,199.94968,68,38,0
199.53119,199.94968,72,47,0
200.05382,200.15796,65,38,0
200.15796,200.2621,69,40,0
200.2621,200.36623,72,42,0
200.36623,200.47037,77,43,0
200.47037,200.57451,65,45,0
200.57451,200.67865,69,46,0
200.67865,200.78734,72,48,0
200.89146,200.9956,65,46,0
200.9956,201.09975,69,47,0
201.09975,201.20389,72,49,0
201.20389,201.30803,77,50,0
201.30803,201.41216,65,52,0
201.41216,201.5163,69,53,0
201.5163,201.62462,72,54,0
201.7301,201.8356,65,50,0
201.8356,201.9411,69,50,0
201.9411,202.04659,72,50,0
202.15208,202.25757,65,53,0
202.25757,202.36307,69,52,0
202.36307,202.46855,72,52,0
202.04659,202.46855,77,55,0
202.46855,202.5727,65,54,0
202.46855,202.5727,69,54,0
202.5727,202.67683,77,54,0
202.67683,202.78233,70,53,0
202.67683,202.78233,65,53,0
202.78233,202.88782,77,52,0
202.88782,202.99382,72,52,0
202.88782,202.99382,65,52,0
202.99382,203.09984,77,51,0
203.09984,203.20584,65,50,0
203.09984,203.20584,73,50,0
203.20584,203.31184,77,50,0
203.41599,203.52013,60,52,0
203.52013,203.62427,65,49,0
203.62427,203.7284,68,50,0
203.83253,203.93668,60,50,0
203.93668,204.04082,65,50,0
204.04082,204.1506,68,50,0
203.7284,204.1506,72,56,0
204.25473,204.35887,60,52,0
204.35887,204.46301,67,52,0
204.46301,204.56715,70,52,0
204.1506,204.56715,72,56,0
204.67128,204.77542,60,52,0
204.77542,204.87956,64,52,0
204.87956,204.98935,67,52,0
204.56715,204.98935,72,56,0
204.98935,205.4059,72,59,0
204.98935,205.4059,60,59,0
204.98935,205.4059,65,59,0
204.98935,205.4059,68,59,0
205.7183,205.82741,77,69,0
205.7183,205.82741,80,69,0
205.82741,206.24396,77,74,0
205.82741,206.24396,80,74,0
206.55637,206.66463,77,70,0
206.55637,206.66463,80,70,0
206.66463,207.50087,77,75,0
206.66463,207.50087,80,75,0
207.50087,207.70993,76,68,0
207.50087,207.70993,79,68,0
209.06607,209.17516,79,75,0
209.06607,209.17516,82,75,0
209.17516,209.5917,79,81,0
209.17516,209.5917,82,81,0
209.90413,210.01239,79,77,0
209.90413,210.01239,82,77,0
210.01239,210.84862,79,82,0
210.01239,210.84862,82,82,0
210.84862,211.05768,77,74,0
210.84862,211.05768,80,74,0
212.41382,212.52292,84,82,0
212.41382,212.52292,87,82,0
212.52292,212.93947,84,89,0
212.52292,212.93947,87,89,0
213.25188,213.36014,84,84,0
213.25188,213.36014,87,84,0
213.36014,214.40544,84,90,0
213.36014,214.40544,87,90,0
214.40544,214.61597,82,79,0
214.40544,214.61597,85,79,0
214.61597,214.82649,80,77,0
214.61597,214.82649,84,77,0
214.82649,215.03702,79,73,0
214.82649,215.03702,82,73,0
215.03702,215.45357,77,82,0
215.03702,215.45357,80,82,0
215.76599,215.87076,77,79,0
215.76599,215.87076,80,79,0
215.76599,215.87076,89,79,0
215.87076,216.28731,79,82,0
215.87076,216.28731,82,82,0
215.87076,216.28731,91,82,0
216.59972,216.70996,76,79,0
216.59972,216.70996,79,79,0
216.59972,216.70996,88,79,0
216.70996,216.81485,77,73,0
216.70996,216.81485,80,73,0
216.70996,216.81485,89,73,0
216.81485,216.91931,72,61,0
216.91931,217.02336,77,62,0
217.02336,217.12704,80,63,0
217.12704,217.23032,84,68,0
217.23032,217.33318,85,65,0
217.33318,217.43568,84,66,0
217.43568,217.53778,82,65,0
217.53778,217.63965,80,68,0
217.63965,217.74228,82,67,0
217.74228,217.84566,80,66,0
217.84566,217.94989,79,65,0
217.94989,218.05492,77,64,0
218.05492,218.1608,79,63,0
218.1608,218.26749,80,63,0
218.26749,218.37502,77,62,0
218.51022,218.61568,72,61,0
218.61568,218.72064,77,62,0
218.72064,218.82504,80,63,0
218.82504,218.92897,84,68,0
218.92897,219.03242,85,65,0
219.03242,219.13539,84,66,0
219.13539,219.2379,82,65,0
219.2379,219.34041,80,68,0
219.34041,219.44344,82,67,0
219.44344,219.54707,80,66,0
219.54707,219.65135,79,65,0
219.65135,219.75626,77,64,0
219.75626,219.86176,79,63,0
219.86176,219.96796,80,63,0
219.96796,220.0749,77,62,0
220.21043,220.31589,78,64,0
220.31589,220.42078,84,65,0
220.42078,220.52513,87,66,0
220.52513,220.62888,90,72,0
220.62888,220.73209,92,69,0
220.73209,220.83472,90,70,0
220.83472,220.93681,89,69,0
220.93681,221.03868,87,72,0
221.03868,221.14119,89,71,0
221.14119,221.24434,87,70,0
221.24434,221.34808,85,69,0
221.34808,221.45248,84,68,0
221.45248,221.55757,85,67,0
221.55757,221.66333,87,66,0
221.66333,221.76997,84,65,0
221.90506,222.01013,78,64,0
222.01013,222.11473,84,65,0
222.11473,222.21877,87,66,0
222.21877,222.32234,90,72,0
222.32234,222.42543,92,69,0
222.42543,222.52806,90,70,0
222.52806,222.63022,89,69,0
222.63022,222.73209,87,72,0
222.73209,222.83464,89,71,0
222.83464,222.93791,87,70,0
222.93791,223.04196,85,69,0
223.04196,223.14679,84,68,0
223.14679,223.25237,82,67,0
223.25237,223.35869,80,66,0
223.35869,223.4659,78,65,0
223.4659,223.60098,77,68,0
223.60098,223.70607,80,67,0
223.70607,223.81065,85,68,0
223.81065,223.9147,89,69,0
223.9147,224.01826,92,75,0
224.01826,224.12137,94,72,0
224.12137,224.22398,92,73,0
224.22398,224.32614,90,72,0
224.32614,224.42801,89,75,0
224.42801,224.53058,90,74,0
224.53058,224.63385,89,73,0
224.63385,224.73788,87,72,0
224.73788,224.84273,85,71,0
224.84273,224.9483,87,70,0
224.9483,225.05461,89,69,0
225.05461,225.16182,85,68,0
225.29692,225.402,80,67,0
225.402,225.50658,85,68,0
225.50658,225.61063,89,69,0
225.61063,225.7142,92,76,0
225.7142,225.81729,94,74,0
225.81729,225.91992,92,75,0
225.91992,226.02206,90,74,0
226.02206,226.12393,89,78,0
226.12393,226.2265,90,77,0
226.2265,226.32977,92,77,0
226.32977,226.43382,90,76,0
226.43382,226.53865,89,75,0
226.53865,226.64423,90,75,0
226.64423,226.75055,92,74,0
226.75055,226.85776,89,74,0
226.96301,227.06828,90,70,0
227.06828,227.17355,92,73,0
227.17355,227.27881,90,70,0
227.27881,227.38408,92,65,0
227.38408,227.48933,90,63,0
227.48933,227.59724,89,59,0
227.59724,227.70517,90,59,0
227.81308,227.92099,88,58,0
227.92099,228.0289,89,60,0
228.0289,228.13683,88,57,0
228.24474,228.35265,89,57,0
228.35265,228.46056,91,60,0
228.46056,228.56848,89,56,0
228.67374,228.779,90,70,0
228.779,228.88426,92,73,0
228.88426,228.98953,90,70,0
228.98953,229.09479,92,65,0
229.09479,229.20006,90,63,0
229.20006,229.30797,89,59,0
229.30797,229.41588,90,59,0
229.52379,229.63171,88,58,0
229.63171,229.73962,89,60,0
229.73962,229.84753,88,57,0
229.95544,230.06337,89,57,0
230.06337,230.17128,91,60,0
230.17128,230.27919,89,56,0
230.38446,230.48972,90,70,0
230.48972,230.59499,92,73,0
230.59499,230.70024,90,70,0
230.70024,230.80551,92,73,0
230.80551,230.91077,90,70,0
230.91077,231.01868,89,59,0
231.01868,231.1266,91,59,0
231.23451,231.34242,88,58,0
231.34242,231.45033,89,60,0
231.45033,231.55826,88,58,0
231.66617,231.77408,85,58,0
231.77408,231.88199,87,61,0
231.88199,231.98991,85,57,0
232.09782,232.20573,84,60,0
232.20573,232.31364,85,62,0
232.31364,232.42157,84,60,0
232.52948,232.63739,83,61,0
232.63739,232.7453,84,65,0
232.7453,232.85321,83,62,0
232.96114,233.06905,82,65,0
233.06905,233.17696,84,67,0
233.17696,233.28487,82,64,0
233.39279,233.5007,80,66,0
233.5007,233.60861,82,69,0
233.60861,233.71652,80,67,0
233.82445,233.93236,80,67,0
233.93236,234.04027,82,70,0
234.04027,234.14818,80,68,0
234.2561,234.36401,79,66,0
234.36401,234.47192,80,69,0
234.47192,234.57983,79,64,0
234.68774,234.79567,77,64,0
234.79567,234.90358,79,65,0
234.90358,235.01149,77,62,0
235.1194,235.22733,76,60,0
235.22733,235.33524,77,62,0
235.33524,235.44315,76,57,0
235.54842,235.65367,61,66,0
235.65367,235.75894,73,73,0
235.75894,235.8642,61,59,0
235.8642,235.96947,73,71,0
235.96947,236.07472,61,58,0
236.07472,236.18265,73,63,0
236.18265,236.29056,61,59,0
236.39847,236.50638,61,60,0
236.50638,236.6143,73,71,0
236.6143,236.72221,72,66,0
236.72221,236.83012,70,68,0
236.83012,236.93803,68,66,0
236.93803,237.04594,67,65,0
237.04594,237.15387,65,58,0
237.25912,237.3644,73,68,0
237.3644,237.46965,85,75,0
237.46965,237.57492,73,67,0
237.57492,237.68018,85,74,0
237.68018,237.78545,73,67,0
237.78545,237.89336,85,69,0
237.89336,238.00127,73,60,0
238.10919,238.2171,73,61,0
238.2171,238.32501,85,73,0
238.32501,238.43292,84,66,0
238.43292,238.54085,82,70,0
238.54085,238.64876,80,68,0
238.64876,238.75667,79,67,0
238.75667,238.86458,77,65,0
238.96985,239.0751,61,66,0
239.0751,239.18037,73,73,0
239.18037,239.28563,61,66,0
239.28563,239.3909,73,73,0
239.3909,239.49615,61,66,0
239.49615,239.60408,73,68,0
239.60408,239.71199,61,61,0
239.8199,239.92781,73,68,0
239.92781,240.03574,61,60,0
240.03574,240.14365,73,68,0
240.24965,240.35565,85,78,0
240.35565,240.46167,73,69,0
240.46167,240.56767,85,75,0
240.6752,240.78273,84,76,0
240.78273,240.89026,72,71,0
240.89026,240.99777,84,75,0
241.1053,241.21283,83,77,0
241.21283,241.32036,71,71,0
241.32036,241.42789,83,74,0
241.53427,241.64066,82,78,0
241.64066,241.74704,70,69,0
241.74704,241.85342,82,77,0
241.95981,242.0662,80,77,0
242.0662,242.17256,72,71,0
242.0662,242.17256,68,71,0
242.17256,242.27895,80,77,0
242.3861,242.49324,80,75,0
242.49324,242.60039,68,68,0
242.49324,242.60039,74,68,0
242.60039,242.70752,80,75,0
242.81467,242.92181,79,73,0
242.92181,243.02895,67,66,0
242.92181,243.02895,74,66,0
243.02895,243.1361,79,73,0
243.24324,243.35037,77,71,0
243.35037,243.45752,65,66,0
243.35037,243.45752,68,66,0
243.45752,243.56467,77,71,0
243.67181,243.77895,76,72,0
243.77895,243.8861,64,66,0
243.77895,243.8861,67,66,0
243.8861,243.99324,76,69,0
243.99324,244.09924,77,77,0
243.99324,244.09924,68,65,0
243.99324,244.09924,65,65,0
244.09924,244.20525,60,74,0
244.20525,244.31088,65,76,0
244.31088,244.41652,68,78,0
244.41652,244.52177,72,80,0
244.52177,244.62704,73,76,0
244.62704,244.73193,72,76,0
244.73193,244.8366,70,76,0
244.8366,244.94077,68,77,0
244.94077,245.04517,70,71,0
245.04517,245.14981,68,72,0
245.14981,245.25471,67,72,0
245.25471,245.35985,65,78,0
245.35985,245.46524,63,73,0
245.46524,245.57088,61,73,0
245.57088,245.67676,60,72,0
245.67676,245.78288,58,75,0
245.78288,245.88927,56,70,0
245.88927,245.99591,54,70,0
245.99591,246.1028,53,70,0
246.1028,246.32257,52,73,0
246.32257,246.48741,60,82,0
246.32257,246.48741,48,69,0
246.32257,246.48741,52,69,0
246.32257,246.48741,54,69,0
246.54236,246.70718,60,73,0
246.54236,246.70718,48,61,0
246.54236,246.70718,52,61,0
246.54236,246.70718,58,73,0
246.76213,246.92697,60,71,0
246.76213,246.92697,48,60,0
246.76213,246.92697,52,60,0
246.76213,246.92697,58,71,0
246.98192,247.14674,60,72,0
246.98192,247.14674,48,61,0
246.98192,247.14674,52,61,0
246.98192,247.14674,58,72,0
247.20169,247.36653,60,72,0
247.20169,247.36653,48,61,0
247.20169,247.36653,52,61,0
247.20169,247.36653,58,72,0
247.42148,247.52748,60,77,0
247.42148,247.52748,48,77,0
247.42148,247.52748,53,77,0
247.42148,247.52748,56,77,0
247.52748,247.63348,72,74,0
247.63348,247.73912,77,76,0
247.73912,247.84476,80,78,0
247.84476,247.95003,84,80,0
247.95003,248.05528,85,76,0
248.05528,248.16017,84,76,0
248.16017,248.26483,82,76,0
248.26483,248.369,80,77,0
248.369,248.4734,82,71,0
248.4734,248.57806,80,72,0
248.57806,248.68295,79,72,0
248.68295,248.78809,77,78,0
248.78809,248.89348,75,73,0
248.89348,248.99911,73,73,0
248.99911,249.105,72,72,0
249.105,249.21114,70,75,0
249.21114,249.3175,68,70,0
249.3175,249.42415,67,70,0
249.42415,249.53104,65,70,0
249.53104,249.75081,64,73,0
249.75081,249.91565,72,82,0
249.75081,249.91565,60,58,0
249.75081,249.91565,64,69,0
249.75081,249.91565,67,69,0
249.9706,250.13544,72,73,0
249.9706,250.13544,60,51,0
249.9706,250.13544,64,61,0
249.9706,250.13544,70,73,0
250.19037,250.35521,72,70,0
250.19037,250.35521,60,50,0
250.19037,250.35521,64,59,0
250.19037,250.35521,70,70,0
250.41016,250.575,72,73,0
250.41016,250.575,60,51,0
250.41016,250.575,64,61,0
250.41016,250.575,70,73,0
250.62993,250.79477,72,71,0
250.62993,250.79477,60,51,0
250.62993,250.79477,64,60,0
250.62993,250.79477,70,71,0
250.84972,251.09155,72,73,0
250.84972,251.09155,60,51,0
250.84972,251.09155,65,61,0
250.84972,251.09155,68,73,0
251.52486,251.6897,84,90,0
251.52486,251.6897,72,63,0
251.52486,251.6897,77,75,0
251.52486,251.6897,80,75,0
251.74464,251.90948,84,80,0
251.74464,251.90948,72,56,0
251.74464,251.90948,76,67,0
251.74464,251.90948,82,80,0
251.96442,252.12926,84,77,0
251.96442,252.12926,72,55,0
251.96442,252.12926,76,64,0
251.96442,252.12926,82,77,0
252.1842,252.34904,84,80,0
252.1842,252.34904,72,56,0
252.1842,252.34904,76,67,0
252.1842,252.34904,82,80,0
252.40398,252.56882,84,78,0
252.40398,252.56882,72,56,0
252.40398,252.56882,76,66,0
252.40398,252.56882,82,78,0
252.62376,252.81241,84,80,0
252.62376,252.81241,72,56,0
252.62376,252.81241,77,67,0
252.62376,252.81241,80,80,0
253.2989,253.46375,72,82,0
253.2989,253.46375,60,58,0
253.2989,253.46375,65,69,0
253.2989,253.46375,68,69,0
253.51869,253.68353,72,73,0
253.51869,253.68353,60,51,0
253.51869,253.68353,64,61,0
253.51869,253.68353,70,73,0
253.73846,253.9033,72,70,0
253.73846,253.9033,60,50,0
253.73846,253.9033,64,59,0
253.73846,253.9033,70,70,0
253.95825,254.1231,72,73,0
253.95825,254.1231,60,51,0
253.95825,254.1231,64,61,0
253.95825,254.1231,70,73,0
254.17802,254.34286,72,71,0
254.17802,254.34286,60,51,0
254.17802,254.34286,64,60,0
254.17802,254.34286,70,71,0
254.39781,254.58646,72,80,0
254.39781,254.58646,60,56,0
254.39781,254.58646,65,67,0
254.39781,254.58646,68,67,0
254.63965,254.79967,84,84,0
254.63965,254.79967,72,70,0
254.63965,254.79967,77,70,0
254.63965,254.79967,80,70,0
254.85318,255.01802,84,90,0
254.85318,255.01802,72,74,0
254.85318,255.01802,77,74,0
254.85318,255.01802,80,74,0
255.07295,255.2378,84,88,0
255.07295,255.2378,72,73,0
255.07295,255.2378,77,73,0
255.07295,255.2378,80,73,0
255.29274,255.45758,84,93,0
255.29274,255.45758,72,64,0
255.29274,255.45758,76,78,0
255.29274,255.45758,82,78,0
255.51251,255.67735,84,91,0
255.51251,255.67735,72,64,0
255.51251,255.67735,76,75,0
255.51251,255.67735,82,75,0
255.7323,255.89714,84,97,0
255.7323,255.89714,72,68,0
255.7323,255.89714,76,81,0
255.7323,255.89714,82,81,0
255.95207,256.1169,84,96,0
255.95207,256.1169,72,69,0
255.95207,256.1169,76,82,0
255.95207,256.1169,82,82,0
256.17184,256.28952,84,102,0
256.17184,256.28952,72,72,0
256.17184,256.28952,75,85,0
256.17184,256.28952,81,102,0
256.28952,256.40042,57,70,0
256.40042,256.50793,60,71,0
256.50793,256.61533,63,72,0
256.61533,256.72247,66,72,0
256.72247,256.8295,69,72,0
256.8295,256.93625,72,73,0
256.93625,257.04288,75,74,0
257.04288,257.14926,78,75,0
257.14926,257.25552,81,77,0
257.25552,257.36154,84,79,0
257.36154,257.4674,87,81,0
257.4674,257.57306,90,83,0
257.57306,257.67856,87,83,0
257.67856,257.7838,84,82,0
257.7838,257.88898,81,81,0
257.88898,257.99423,78,81,0
257.99423,258.0995,75,80,0
258.0995,258.20514,72,79,0
258.20514,258.31076,69,78,0
258.31076,258.41678,66,77,0
258.41678,258.52277,63,76,0
258.52277,258.62915,60,75,0
261.45718,261.56128,57,40,0
261.56128,261.66507,60,37,0
261.66507,261.76852,63,37,0
261.76852,261.8716,66,40,0
261.8716,261.9747,68,38,0
261.9747,262.0779,66,38,0
262.0779,262.18137,65,38,0
262.18137,262.28482,63,40,0
262.28482,262.38852,65,37,0
262.38852,262.4923,63,37,0
262.4923,262.59613,61,37,0
262.59613,262.7003,60,40,0
262.7003,262.80444,61,37,0
262.80444,262.90875,63,37,0
262.90875,263.01724,60,37,0
263.1215,263.22543,57,40,0
263.22543,263.32898,60,37,0
263.32898,263.43222,63,37,0
263.43222,263.53494,66,40,0
263.53494,263.6377,68,38,0
263.6377,263.74042,66,38,0
263.74042,263.8433,65,38,0
263.8433,263.94638,63,40,0
263.94638,264.04947,65,37,0
264.04947,264.15292,63,37,0
264.15292,264.25638,61,37,0
264.25638,264.36005,60,40,0
264.36005,264.46387,61,37,0
264.46387,264.56778,63,37,0
264.56778,264.6767,60,37,0
264.78094,264.8851,57,47,0
264.8851,264.98914,60,49,0
264.98914,265.09296,63,50,0
265.09296,265.1964,66,52,0
265.1964,265.29984,68,54,0
265.29984,265.4034,66,56,0
265.4034,265.5162,65,58,0
265.5162,265.7255,63,67,0
265.7255,265.82968,63,47,0
265.82968,265.93384,65,49,0
265.93384,266.03836,66,52,0
266.03836,266.14288,68,54,0
266.14288,266.24756,66,56,0
266.24756,266.36118,65,59,0
266.36118,266.56952,63,67,0
266.56952,266.67368,63,50,0
266.67368,266.77786,65,50,0
266.77786,266.8824,66,56,0
266.8824,266.9869,68,49,0
266.9869,267.09155,66,50,0
267.09155,267.20477,65,50,0
267.20477,267.43732,63,67,0
267.43732,267.67355,78,56,0
267.43732,267.67355,66,56,0
267.67355,267.91354,77,60,0
267.67355,267.91354,65,60,0
267.91354,268.15353,81,54,0
267.91354,268.15353,69,54,0
268.15353,268.25845,70,56,0
268.15353,268.25845,82,56,0
268.25845,268.3629,65,51,0
268.3629,268.46695,70,52,0
268.46695,268.57065,73,53,0
268.57065,268.67392,77,57,0
268.67392,268.77676,78,55,0
268.77676,268.87927,77,56,0
268.87927,268.98138,75,55,0
268.98138,269.08325,73,57,0
269.08325,269.18585,75,56,0
269.18585,269.28925,73,56,0
269.28925,269.3935,72,55,0
269.3935,269.4985,70,54,0
269.4985,269.60437,72,53,0
269.60437,269.7111,73,53,0
269.7111,269.8186,70,52,0
269.9235,270.02798,65,51,0
270.02798,270.13202,70,52,0
270.13202,270.23572,73,53,0
270.23572,270.339,77,57,0
270.339,270.44183,78,55,0
270.44183,270.54434,77,56,0
270.54434,270.64645,75,55,0
270.64645,270.74832,73,57,0
270.74832,270.85092,75,56,0
270.85092,270.9543,73,56,0
270.9543,271.05856,72,55,0
271.05856,271.16357,70,54,0
271.16357,271.26944,72,53,0
271.26944,271.37616,73,53,0
271.37616,271.48367,70,52,0
271.58856,271.69305,66,51,0
271.69305,271.7971,71,53,0
271.7971,271.9008,75,54,0
271.9008,272.00406,78,59,0
272.00406,272.1069,80,58,0
272.1069,272.2094,78,59,0
272.2094,272.3115,77,59,0
272.3115,272.41336,75,62,0
272.41336,272.516,77,62,0
272.516,272.6194,75,62,0
272.6194,272.7236,73,62,0
272.7236,272.82864,71,62,0
272.82864,272.9345,73,61,0
272.9345,273.04123,75,64,0
273.04123,273.14874,71,61,0
273.14874,273.2508,70,68,0
273.2508,273.35318,72,64,0
273.35318,273.4559,70,66,0
273.4559,273.559,69,64,0
273.559,273.66245,70,62,0
273.66245,273.76627,72,60,0
273.76627,273.87042,73,59,0
273.87042,273.9756,70,58,0
273.9756,274.07727,69,62,0
274.07727,274.17944,70,61,0
274.17944,274.28204,69,60,0
274.28204,274.38504,67,58,0
274.38504,274.4886,69,56,0
274.4886,274.59253,70,55,0
274.59253,274.69693,72,54,0
274.69693,274.8024,69,53,0
274.8024,275.01218,70,61,0
275.01218,275.11682,70,57,0
275.11682,275.22137,73,58,0
275.22137,275.32553,77,62,0
275.32553,275.4297,78,60,0
275.4297,275.5335,77,61,0
275.5335,275.63718,75,61,0
275.63718,275.741,73,63,0
275.741,275.84515,75,62,0
275.84515,275.9497,73,62,0
275.9497,276.0546,72,61,0
276.0546,276.15985,70,71,0
276.15985,276.26547,72,60,0
276.0546,276.26547,82,71,0
276.26547,276.37173,73,61,0
276.37173,276.47928,70,60,0
276.47928,276.69092,81,74,0
276.69092,276.79617,70,63,0
276.79617,276.90106,73,65,0
276.90106,277.00558,77,73,0
277.00558,277.10977,78,68,0
276.90106,277.10977,82,73,0
277.10977,277.21356,77,71,0
277.21356,277.3169,75,70,0
277.3169,277.42023,73,73,0
277.42023,277.52417,75,72,0
277.52417,277.62857,73,74,0
277.62857,277.7337,72,74,0
277.7337,277.83948,70,73,0
277.83948,277.9457,72,73,0
277.7337,277.9457,82,88,0
277.9457,278.05273,73,74,0
278.05273,278.16028,70,73,0
278.16028,278.26443,83,88,0
278.16028,278.26443,71,88,0
278.26443,278.36835,78,74,0
278.36835,278.47192,83,76,0
278.47192,278.57526,87,78,0
278.57526,278.67822,90,80,0
278.67822,278.78098,92,76,0
278.78098,278.88336,90,76,0
278.88336,278.9854,89,76,0
278.9854,279.08664,87,77,0
279.08664,279.18787,89,71,0
279.18787,279.28958,87,72,0
279.28958,279.39172,85,72,0
279.39172,279.49423,83,78,0
279.49423,279.5972,85,73,0
279.5972,279.70053,83,73,0
279.70053,279.80447,82,72,0
279.80447,279.90863,81,77,0
279.90863,280.01245,84,71,0
280.01245,280.11588,87,72,0
280.11588,280.2191,85,72,0
280.2191,280.32196,84,78,0
280.32196,280.42505,85,73,0
280.42505,280.52896,84,73,0
280.52896,280.63388,82,72,0
280.63388,280.7384,81,77,0
280.7384,280.84293,82,71,0
280.84293,280.94757,81,72,0
280.94757,281.0525,78,72,0
281.0525,281.15762,77,74,0
281.15762,281.263,75,71,0
281.263,281.36865,73,71,0
281.36865,281.47452,72,69,0
281.47452,281.5886,70,73,0
281.70267,282.12668,77,74,0
282.12668,282.2327,77,61,0
282.3387,282.4474,77,61,0
282.5561,282.98013,78,72,0
282.98013,283.08612,78,60,0
283.19214,283.30283,78,59,0
283.41354,283.83755,77,73,0
283.83755,283.94357,77,63,0
284.0496,284.15988,77,65,0
284.27017,284.37692,72,61,0
284.4837,284.59045,73,61,0
284.6972,284.804,75,61,0
284.91074,285.02225,73,65,0
285.1338,285.55557,77,73,0
285.1338,285.55557,89,80,0
285.55557,285.6605,77,68,0
285.55557,285.6605,89,74,0
285.76538,285.87408,77,68,0
285.76538,285.87408,89,74,0
285.98276,286.4053,78,74,0
285.98276,286.4053,90,81,0
286.4053,286.51056,78,67,0
286.4053,286.51056,90,73,0
286.61584,286.72653,78,66,0
286.61584,286.72653,90,72,0
286.83725,287.26126,77,75,0
286.83725,287.26126,89,82,0
287.26126,287.36728,77,70,0
287.26126,287.36728,89,77,0
287.47327,287.5836,77,73,0
287.47327,287.5836,89,80,0
287.69388,287.80063,72,68,0
287.69388,287.80063,84,74,0
287.90738,288.01416,73,68,0
287.90738,288.01416,85,74,0
288.1209,288.22766,75,68,0
288.1209,288.22766,87,74,0
288.33444,288.44595,73,73,0
288.33444,288.44595,85,80,0
288.5575,288.98,72,72,0
288.98,289.0853,72,61,0
289.19055,289.29926,72,61,0
289.40793,289.82974,71,72,0
289.82974,289.93463,71,60,0
290.03955,290.15024,71,59,0
290.26093,290.68497,72,71,0
290.68497,290.791,72,63,0
290.89697,291.00726,72,65,0
291.11758,291.22433,67,61,0
291.3311,291.43787,68,61,0
291.54462,291.65137,70,61,0
291.75815,291.86966,68,65,0
291.9812,292.40372,72,73,0
291.9812,292.40372,84,80,0
292.40372,292.509,72,68,0
292.40372,292.509,84,74,0
292.61426,292.72296,72,68,0
292.61426,292.72296,84,74,0
292.83163,293.25418,71,74,0
292.83163,293.25418,83,81,0
293.25418,293.35944,71,67,0
293.25418,293.35944,83,73,0
293.46472,293.5754,71,66,0
293.46472,293.5754,83,72,0
293.68613,294.1079,72,75,0
293.68613,294.1079,84,82,0
294.1079,294.2128,72,70,0
294.1079,294.2128,84,77,0
294.31772,294.428,72,73,0
294.31772,294.428,84,80,0
294.5383,294.64505,67,68,0
294.5383,294.64505,79,74,0
294.75183,294.85858,68,68,0
294.75183,294.85858,80,74,0
294.96533,295.0721,70,68,0
294.96533,295.0721,82,74,0
295.17886,295.31586,68,73,0
295.17886,295.31586,80,80,0
295.31586,295.42184,60,70,0
295.42184,295.5275,65,72,0
295.5275,295.63312,68,74,0
295.63312,295.7384,72,76,0
295.7384,295.84366,73,72,0
295.84366,295.94855,72,72,0
295.94855,296.0532,70,72,0
296.0532,296.15738,68,73,0
296.15738,296.26178,70,67,0
296.26178,296.36642,68,69,0
296.36642,296.4713,67,69,0
296.4713,296.57648,65,75,0
296.57648,296.68185,67,70,0
296.68185,296.78748,68,70,0
296.78748,296.89352,65,70,0
296.89352,297.0026,66,75,0
297.0026,297.1075,61,72,0
297.1075,297.21228,66,74,0
297.21228,297.3168,70,76,0
297.3168,297.42108,73,78,0
297.42108,297.52527,75,75,0
297.52527,297.62906,73,75,0
297.62906,297.73288,72,75,0
297.73288,297.83704,70,76,0
297.83704,297.94144,72,70,0
297.94144,298.0461,70,71,0
298.0461,298.151,68,71,0
298.151,298.25613,66,76,0
298.25613,298.3615,68,73,0
298.3615,298.46716,70,73,0
298.46716,298.57303,66,72,0
298.57303,298.68057,69,77,0
298.68057,298.78632,63,74,0
298.78632,298.89148,69,76,0
298.89148,298.99625,72,78,0
298.99625,299.10065,75,80,0
299.10065,299.20468,77,76,0
299.20468,299.30838,75,76,0
299.30838,299.4117,73,77,0
299.4117,299.51492,72,78,0
299.51492,299.6185,73,72,0
299.6185,299.7224,72,73,0
299.7224,299.8268,70,73,0
299.8268,299.9316,69,80,0
299.9316,300.03674,70,75,0
300.03674,300.14236,72,75,0
300.14236,300.24826,69,74,0
300.24826,300.35577,70,90,0
300.35577,300.46173,65,76,0
300.46173,300.56735,70,79,0
300.56735,300.673,73,82,0
300.673,300.77826,77,83,0
300.77826,300.8835,78,83,0
300.8835,300.9884,77,82,0
300.9884,301.09308,75,82,0
301.09308,301.19724,73,81,0
301.19724,301.3014,72,81,0
301.3014,301.40558,70,80,0
301.40558,301.50937,68,80,0
301.50937,301.6132,66,79,0
301.6132,301.71686,65,79,0
301.71686,301.8203,63,78,0
301.8203,301.92377,61,78,0
301.92377,302.02698,60,77,0
302.02698,302.13007,58,77,0
302.13007,302.23315,56,76,0
302.23315,302.3365,54,76,0
302.3365,302.43994,53,73,0
302.43994,302.5434,51,73,0
302.5434,302.6472,49,74,0
302.6472,302.751,48,76,0
302.751,302.8548,46,78,0
302.8548,302.95898,48,79,0
302.95898,303.06314,49,81,0
303.06314,303.16742,46,82,0
303.16742,303.41537,46,82,0
303.41537,303.74323,56,90,0
303.41537,303.74323,47,77,0
303.41537,303.74323,50,77,0
303.41537,303.74323,53,77,0
303.74323,303.85077,55,98,0
303.74323,303.85077,52,82,0
303.74323,303.85077,48,82,0
303.85077,303.95828,60,66,0
303.85077,303.95828,48,66,0
304.0658,304.1731,48,66,0
304.0658,304.1731,60,66,0
304.2802,304.38736,48,66,0
304.2802,304.38736,60,66,0
304.4944,304.60114,48,66,0
304.4944,304.60114,60,66,0
304.70792,304.81454,48,66,0
304.70792,304.81454,60,66,0
304.92093,305.0273,48,66,0
304.92093,305.0273,60,66,0
305.1337,305.2397,48,66,0
305.1337,305.2397,60,66,0
305.3457,305.45172,48,66,0
305.3457,305.45172,60,66,0
305.5577,305.66373,72,64,0
305.5577,305.66373,60,64,0
305.76862,305.8735,72,64,0
305.76862,305.8735,60,64,0
305.97842,306.08307,72,65,0
305.97842,306.08307,60,65,0
306.1876,306.2921,72,66,0
306.1876,306.2921,60,66,0
306.3964,306.50058,72,64,0
306.3964,306.50058,60,64,0
306.60474,306.7089,72,64,0
306.60474,306.7089,60,64,0
306.81308,306.91724,72,65,0
306.81308,306.91724,60,65,0
307.0214,307.12558,72,66,0
307.0214,307.12558,60,66,0
307.23047,307.3356,84,67,0
307.23047,307.3356,72,67,0
307.44113,307.54688,84,68,0
307.44113,307.54688,72,68,0
307.653,307.75952,84,69,0
307.653,307.75952,72,69,0
307.86627,307.97342,84,70,0
307.86627,307.97342,72,70,0
308.08096,308.18887,84,71,0
308.08096,308.18887,72,71,0
308.29703,308.4056,84,72,0
308.29703,308.4056,72,72,0
308.51456,308.62378,84,73,0
308.51456,308.62378,72,73,0
308.7334,308.8437,84,74,0
308.7334,308.8437,72,74,0
308.95453,309.06592,96,75,0
308.95453,309.06592,84,75,0
309.17786,309.29037,96,76,0
309.17786,309.29037,84,76,0
309.40344,309.51694,96,78,0
309.40344,309.51694,84,78,0
309.63113,309.7458,96,81,0
309.63113,309.7458,84,81,0
309.86102,309.97687,96,82,0
309.86102,309.97687,84,82,0
310.0933,310.21033,96,84,0
310.0933,310.21033,84,84,0
310.32617,310.44797,96,86,0
310.32617,310.44797,84,86,0
310.58557,310.7232,96,88,0
310.58557,310.7232,84,88,0
311.69626,311.80338,61,72,0
311.80338,311.91052,66,75,0
311.91052,312.01767,70,76,0
312.01767,312.12482,73,88,0
312.5591,312.66782,73,77,0
312.66782,312.7777,78,79,0
312.7777,312.88882,82,81,0
312.88882,313.1031,85,89,0
314.6031,314.71024,64,89,0
315.14444,315.2516,64,72,0
315.2516,315.35873,67,75,0
315.35873,315.46588,70,76,0
315.46588,315.57303,76,87,0
316.00693,316.115,76,77,0
316.115,316.22394,79,79,0
316.22394,316.33383,82,81,0
316.33383,316.54813,88,93,0
318.2637,318.37277,61,51,0
318.37277,318.4831,64,53,0
318.4831,318.69736,67,54,0
319.7688,319.87643,58,47,0
319.87643,319.98514,61,51,0
319.98514,320.09503,64,48,0
320.09503,320.20615,67,50,0
320.20615,320.42044,70,51,0
321.49185,321.599,61,44,0
321.599,321.70615,64,48,0
321.70615,321.8133,67,45,0
321.8133,321.92044,70,47,0
321.92044,322.1347,73,48,0
323.20615,323.3133,64,41,0
323.3133,323.42044,67,45,0
323.42044,323.5276,70,42,0
323.5276,323.6347,73,44,0
323.6347,323.849,76,45,0
325.349,325.5633,61,35,0
325.5633,325.77756,64,36,0
325.77756,325.99185,67,37,0
325.99185,326.20615,70,38,0
326.20615,326.42044,73,39,0
326.42044,326.6347,76,40,0
326.6347,326.849,79,40,0
326.849,327.0633,82,41,0
327.0633,327.27756,85,42,0
327.27756,327.49185,88,43,0
327.49185,327.70615,91,44,0
327.70615,327.92044,94,46,0
327.92044,328.1347,91,46,0
328.1347,328.349,88,45,0
328.349,328.5633,85,45,0
328.5633,328.77756,82,44,0
328.77756,328.99185,79,44,0
328.99185,329.20615,76,43,0
329.20615,329.4204,73,43,0
329.4204,329.6347,70,42,0
329.6347,329.849,67,42,0
329.849,330.0633,64,41,0
330.0633,330.27756,61,40,0
338.20612,338.849,64,34,0
338.20612,338.849,55,34,0
338.20612,338.849,58,34,0
338.20612,338.849,60,34,0
339.06326,339.70612,76,34,0
339.06326,339.70612,67,34,0
339.06326,339.70612,70,34,0
339.06326,339.70612,72,34,0
339.9204,340.56326,79,34,0
339.9204,340.56326,88,34,0
339.9204,340.56326,84,34,0
339.9204,340.56326,82,34,0
341.73892,341.84302,48,40,0
341.84302,341.94684,53,37,0
341.94684,342.0503,56,37,0
342.0503,342.15338,60,40,0
342.15338,342.25647,61,38,0
342.25647,342.35968,60,38,0
342.35968,342.46313,58,38,0
342.46313,342.5666,56,40,0
342.5666,342.67026,58,37,0
342.67026,342.77408,56,37,0
342.77408,342.87787,55,37,0
342.87787,342.98206,53,40,0
342.98206,343.0862,55,37,0
343.0862,343.1905,56,37,0
343.1905,343.299,53,37,0
343.40323,343.50748,48,40,0
343.50748,343.61172,53,37,0
343.61172,343.71594,56,37,0
343.71594,343.8202,60,40,0
343.8202,343.92444,61,38,0
343.92444,344.03027,60,38,0
344.03027,344.1361,58,38,0
344.1361,344.24023,56,40,0
344.24023,344.3444,58,37,0
344.3444,344.44852,56,37,0
344.44852,344.55264,55,37,0
344.55264,344.6568,53,40,0
344.6568,344.76093,55,37,0
344.76093,344.86508,56,37,0
344.86508,344.97397,53,37,0
345.07822,345.18246,49,44,0
345.18246,345.28668,54,40,0
345.28668,345.39093,58,40,0
345.39093,345.49518,61,44,0
345.49518,345.5994,63,41,0
345.5994,345.7056,61,41,0
345.7056,345.81177,60,41,0
345.81177,345.9159,58,44,0
345.9159,346.02005,60,40,0
346.02005,346.12418,58,40,0
346.12418,346.22833,56,40,0
346.22833,346.33246,54,44,0
346.33246,346.43658,56,40,0
346.43658,346.54074,54,40,0
346.54074,346.64963,53,40,0
346.64963,346.755,52,44,0
346.755,346.86038,53,40,0
346.86038,346.96573,55,40,0
346.96573,347.07425,52,40,0
347.07425,347.18,53,44,0
347.18,347.28574,55,40,0
347.28574,347.39148,56,40,0
347.39148,347.5004,53,40,0
347.5004,347.60657,55,44,0
347.60657,347.71274,56,40,0
347.71274,347.81894,58,40,0
347.81894,347.92743,55,40,0
347.92743,348.03326,52,44,0
348.03326,348.1391,53,37,0
348.1391,348.24493,55,38,0
348.24493,348.35385,52,40,0
348.35385,348.7988,53,38,0
349.0051,349.11108,64,57,0
349.2171,349.3235,65,62,0
349.42987,349.53625,67,57,0
349.6404,349.7457,68,62,0
349.8507,349.9592,65,59,0
350.68475,350.79114,64,52,0
350.68475,350.79114,76,60,0
350.8975,351.00427,65,57,0
350.8975,351.00427,77,66,0
351.11102,351.21704,79,63,0
351.11102,351.21704,67,53,0
351.32303,351.42905,80,68,0
351.32303,351.42905,68,57,0
351.53506,351.64395,77,63,0
351.53506,351.64395,65,53,0
352.36984,352.59207,77,71,0
352.36984,352.59207,65,59,0
352.59207,352.8143,78,77,0
352.59207,352.8143,66,63,0
352.8143,353.03503,82,79,0
352.8143,353.03503,70,66,0
353.03503,353.14655,85,81,0
353.03503,353.14655,73,69,0
353.2592,353.37198,85,79,0
353.2592,353.37198,73,66,0
353.4842,353.9211,85,83,0
353.4842,353.9211,73,71,0
353.9211,354.79706,72,64,0
353.9211,354.79706,84,78,0
354.79706,355.2366,76,64,0
354.79706,355.2366,64,64,0
355.2366,355.3405,65,57,0
355.2366,355.3405,77,57,0
355.3405,355.4441,60,41,0
355.4441,355.54706,65,44,0
355.54706,355.64957,68,46,0
355.64957,355.75186,72,43,0
355.75186,355.85483,60,45,0
355.85483,355.95853,65,46,0
355.95853,356.0672,68,48,0
356.17087,356.27408,60,46,0
356.27408,356.37695,65,47,0
356.37695,356.47946,68,49,0
356.47946,356.5823,72,50,0
356.5823,356.68588,60,52,0
356.68588,356.79004,65,53,0
356.79004,356.89838,68,38,0
357.00327,357.10852,59,51,0
357.10852,357.21414,62,52,0
357.21414,357.32016,68,52,0
357.42654,357.5333,59,52,0
357.5333,357.64044,62,52,0
357.64044,357.7481,68,52,0
357.32016,357.7481,71,54,0
357.85526,357.962,59,52,0
357.962,358.06827,64,50,0
358.06827,358.17416,67,49,0
357.7481,358.17416,71,54,0
358.27954,358.38455,60,46,0
358.38455,358.48907,64,44,0
358.48907,358.59314,67,38,0
358.17416,358.59314,72,52,0
358.6968,358.80014,60,38,0
358.80014,358.90314,64,40,0
358.90314,359.00574,67,42,0
359.00574,359.10803,72,43,0
359.10803,359.21112,60,45,0
359.21112,359.3154,64,46,0
359.3154,359.42233,67,48,0
359.5258,359.62888,60,46,0
359.62888,359.73163,64,47,0
359.73163,359.834,67,49,0
359.834,359.93582,72,50,0
359.93582,360.03857,60,52,0
360.03857,360.14224,64,53,0
360.14224,360.25058,67,38,0
360.3559,360.46118,60,51,0
360.46118,360.5668,64,52,0
360.5668,360.6727,67,52,0
360.7788,360.8852,60,52,0
360.8852,360.99197,64,52,0
360.99197,361.09897,67,52,0
360.6727,361.09897,72,54,0
361.20535,361.3115,60,52,0
361.3115,361.41727,64,50,0
361.41727,361.52277,67,49,0
361.09897,361.52277,72,53,0
361.6279,361.7328,60,46,0
361.7328,361.83734,65,44,0
361.83734,361.94125,68,38,0
361.52277,361.94125,72,47,0
362.04507,362.1485,65,38,0
362.1485,362.25162,69,40,0
362.25162,362.35422,72,42,0
362.35422,362.45697,77,43,0
362.45697,362.56042,65,45,0
362.56042,362.66458,69,46,0
362.66458,362.7733,72,48,0
362.87708,362.98053,65,46,0
362.98053,363.08362,69,47,0
363.08362,363.18637,72,49,0
363.18637,363.28885,77,50,0
363.28885,363.39218,65,52,0
363.39218,363.49637,69,53,0
363.49637,363.60468,72,54,0
363.71017,363.81567,65,50,0
363.81567,363.92117,69,50,0
363.92117,364.02664,72,50,0
364.13214,364.23764,65,53,0
364.23764,364.34314,69,52,0
364.34314,364.4486,72,52,0
364.02664,364.4486,77,55,0
364.4486,364.55066,65,54,0
364.4486,364.55066,69,54,0
364.55066,364.6527,77,54,0
364.6527,364.7565,70,53,0
364.6527,364.7565,65,53,0
364.7565,364.86032,77,52,0
364.86032,364.9663,72,52,0
364.86032,364.9663,65,52,0
364.9663,365.07233,77,51,0
365.07233,365.18024,65,50,0
365.07233,365.18024,73,50,0
365.18024,365.28815,77,50,0
365.3923,365.49643,60,52,0
365.49643,365.6006,65,49,0
365.6006,365.7047,68,50,0
365.80884,365.913,60,50,0
365.913,366.01712,65,50,0
366.01712,366.1269,68,50,0
365.7047,366.1269,72,56,0
366.23035,366.3338,60,52,0
366.3338,366.4369,67,52,0
366.4369,366.53998,70,52,0
366.1269,366.53998,72,56,0
366.64285,366.7462,60,52,0
366.7462,366.84998,64,52,0
366.84998,366.95978,67,52,0
366.53998,366.95978,72,56,0
366.95978,367.37418,72,59,0
366.95978,367.37418,60,59,0
366.95978,367.37418,65,59,0
366.95978,367.37418,68,59,0
367.68524,367.7943,77,69,0
367.68524,367.7943,80,69,0
367.7943,368.206,77,74,0
367.7943,368.206,80,74,0
368.5153,368.62357,77,70,0
368.5153,368.62357,80,70,0
368.62357,369.45993,77,75,0
368.62357,369.45993,80,75,0
369.45993,369.6691,76,68,0
369.45993,369.6691,79,68,0
371.0221,371.1312,79,75,0
371.0221,371.1312,82,75,0
371.1312,371.54776,79,81,0
371.1312,371.54776,82,81,0
371.86017,371.9684,79,77,0
371.86017,371.9684,82,77,0
371.9684,372.79544,79,82,0
371.9684,372.79544,82,82,0
372.79544,373.00305,77,74,0
372.79544,373.00305,80,74,0
374.35052,374.45963,84,82,0
374.35052,374.45963,87,82,0
374.45963,374.87616,84,89,0
374.45963,374.87616,87,89,0
375.18857,375.29684,84,84,0
375.18857,375.29684,87,84,0
375.29684,376.33856,84,90,0
375.29684,376.33856,87,90,0
376.33856,376.54617,82,79,0
376.33856,376.54617,85,79,0
376.54617,376.75378,80,77,0
376.54617,376.75378,84,77,0
376.75378,376.9614,79,73,0
376.75378,376.9614,82,73,0
376.9614,377.37375,77,82,0
376.9614,377.37375,80,82,0
377.67886,377.78363,77,79,0
377.67886,377.78363,80,79,0
377.67886,377.78363,89,79,0
377.78363,378.20016,79,82,0
377.78363,378.20016,82,82,0
377.78363,378.20016,91,82,0
378.51257,378.62283,76,79,0
378.51257,378.62283,79,79,0
378.51257,378.62283,88,79,0
378.62283,378.72772,77,73,0
378.62283,378.72772,80,73,0
378.62283,378.72772,89,73,0
378.72772,378.83218,72,61,0
378.83218,378.93622,77,62,0
378.93622,379.03992,80,63,0
379.03992,379.1432,84,68,0
379.1432,379.24603,85,65,0
379.24603,379.34854,84,66,0
379.34854,379.45065,82,65,0
379.45065,379.55252,80,68,0
379.55252,379.65515,82,67,0
379.65515,379.7585,80,66,0
379.7585,379.86276,79,65,0
379.86276,379.96777,77,64,0
379.96777,380.07367,79,63,0
380.07367,380.18036,80,63,0
380.18036,380.28787,77,62,0
380.4231,380.52853,72,61,0
380.52853,380.6335,77,62,0
380.6335,380.7379,80,63,0
380.7379,380.84183,84,68,0
380.84183,380.94528,85,65,0
380.94528,381.04825,84,66,0
381.04825,381.15076,82,65,0
381.15076,381.25327,80,68,0
381.25327,381.3563,82,67,0
381.3563,381.45993,80,66,0
381.45993,381.5642,79,65,0
381.5642,381.66913,77,64,0
381.66913,381.77463,79,63,0
381.77463,381.88083,80,63,0
381.88083,381.98776,77,62,0
382.12274,382.2274,78,64,0
382.2274,382.33145,84,65,0
382.33145,382.435,87,66,0
382.435,382.538,90,72,0
382.538,382.64047,92,69,0
382.64047,382.7424,90,70,0
382.7424,382.84387,89,69,0
382.84387,382.944,87,72,0
382.944,383.0449,89,71,0
383.0449,383.14658,87,70,0
383.14658,383.24896,85,69,0
383.24896,383.35217,84,68,0
383.35217,383.45624,85,67,0
383.45624,383.56113,87,66,0
383.56113,383.66763,84,65,0
383.78708,383.89078,78,64,0
383.89078,383.994,84,65,0
383.994,384.09662,87,66,0
384.09662,384.19876,90,72,0
384.19876,384.30035,92,69,0
384.30035,384.40146,90,70,0
384.40146,384.502,89,69,0
384.502,384.6027,87,72,0
384.6027,384.70416,89,71,0
384.70416,384.80655,87,70,0
384.80655,384.90964,85,69,0
384.90964,385.0137,84,68,0
385.0137,385.1186,82,67,0
385.1186,385.2248,80,66,0
385.2248,385.332,78,65,0
385.332,385.4364,77,68,0
385.4364,385.5403,80,67,0
385.5403,385.64365,85,68,0
385.64365,385.74628,89,69,0
385.74628,385.84845,92,75,0
385.84845,385.9499,94,72,0
385.9499,386.0508,92,73,0
386.0508,386.15112,90,72,0
386.15112,386.25146,89,75,0
386.25146,386.3526,90,74,0
386.3526,386.45453,89,73,0
386.45453,386.55725,87,72,0
386.55725,386.66083,85,71,0
386.66083,386.76523,87,70,0
386.76523,386.8705,89,69,0
386.8705,386.97745,85,68,0
387.09714,387.2012,80,67,0
387.2012,387.30475,85,68,0
387.30475,387.40775,89,69,0
387.40775,387.51013,92,76,0
387.51013,387.61194,94,74,0
387.61194,387.71317,92,75,0
387.71317,387.81396,90,74,0
387.81396,387.91406,89,78,0
387.91406,388.01474,90,77,0
388.01474,388.11642,92,77,0
388.11642,388.21918,90,76,0
388.21918,388.32263,89,75,0
388.32263,388.42715,90,75,0
388.42715,388.53278,92,74,0
388.53278,388.63986,89,74,0
388.74515,388.8504,90,70,0
388.8504,388.95566,92,73,0
388.95566,389.0609,90,70,0
389.0609,389.16367,92,65,0
389.16367,389.26642,90,63,0
389.26642,389.37433,89,59,0
389.37433,389.48224,90,59,0
389.59015,389.69806,88,58,0
389.69806,389.80597,89,60,0
389.80597,389.91388,88,57,0
390.0218,390.1297,89,57,0
390.1297,390.23764,91,60,0
390.23764,390.34555,89,56,0
390.4508,390.55606,90,70,0
390.55606,390.66135,92,73,0
390.66135,390.7666,90,70,0
390.7666,390.8704,92,65,0
390.8704,390.9742,90,63,0
390.9742,391.08212,89,59,0
391.08212,391.19003,90,59,0
391.29794,391.40585,88,58,0
391.40585,391.51376,89,60,0
391.51376,391.6217,88,57,0
391.7296,391.83752,89,57,0
391.83752,391.94543,91,60,0
391.94543,392.05334,89,56,0
392.1586,392.2639,90,70,0
392.2639,392.36914,92,73,0
392.36914,392.4744,90,70,0
392.4744,392.57822,92,73,0
392.57822,392.682,90,70,0
392.682,392.78992,89,59,0
392.78992,392.89783,91,59,0
393.00574,393.11368,88,58,0
393.11368,393.2216,89,60,0
393.2216,393.3295,88,58,0
393.4374,393.54532,85,58,0
393.54532,393.65323,87,61,0
393.65323,393.76114,85,57,0
393.86905,393.977,84,60,0
393.977,394.0849,85,62,0
394.0849,394.1928,84,60,0
394.30072,394.40863,83,61,0
394.40863,394.51654,84,65,0
394.51654,394.62445,83,62,0
394.73236,394.84027,82,65,0
394.84027,394.9482,84,67,0
394.9482,395.05612,82,64,0
395.16403,395.27194,80,66,0
395.27194,395.37985,82,69,0
395.37985,395.48776,80,67,0
395.59567,395.70358,80,67,0
395.70358,395.81152,82,70,0
395.81152,395.91943,80,68,0
396.02734,396.13525,79,66,0
396.13525,396.24316,80,69,0
396.24316,396.35107,79,64,0
396.45898,396.5669,77,64,0
396.5669,396.6748,79,65,0
396.6748,396.78275,77,62,0
396.89066,396.99857,76,60,0
396.99857,397.10648,77,62,0
397.10648,397.2144,76,57,0
397.31964,397.42493,61,66,0
397.42493,397.53018,73,73,0
397.53018,397.63544,61,59,0
397.63544,397.7389,73,71,0
397.7389,397.84235,61,58,0
397.84235,397.95026,73,63,0
397.95026,398.05817,61,59,0
398.16608,398.274,61,60,0
398.274,398.3819,73,71,0
398.3819,398.4898,72,66,0
398.4898,398.59775,70,68,0
398.59775,398.70566,68,66,0
398.70566,398.81357,67,65,0
398.81357,398.92148,65,58,0
399.02673,399.132,73,68,0
399.132,399.23727,85,75,0
399.23727,399.34253,73,67,0
399.34253,399.4467,85,74,0
399.4467,399.55087,73,67,0
399.55087,399.65878,85,69,0
399.65878,399.7667,73,60,0
399.8746,399.9825,73,61,0
399.9825,400.09042,85,73,0
400.09042,400.19833,84,66,0
400.19833,400.30624,82,70,0
400.30624,400.41418,80,68,0
400.41418,400.5221,79,67,0
400.5221,400.63,77,65,0
400.73526,400.8405,61,66,0
400.8405,400.9458,73,73,0
400.9458,401.05106,61,66,0
401.05106,401.1552,73,73,0
401.1552,401.2594,61,66,0
401.2594,401.3673,73,68,0
401.3673,401.47522,61,61,0
401.58313,401.69104,73,68,0
401.69104,401.79895,61,60,0
401.79895,401.90686,73,68,0
402.01138,402.11594,85,78,0
402.11594,402.22046,73,69,0
402.22046,402.32498,85,75,0
402.43063,402.53625,84,76,0
402.53625,402.64188,72,71,0
402.64188,402.74753,84,74,0
402.85315,402.9588,83,77,0
402.9588,403.06442,71,71,0
403.06442,403.17004,83,74,0
403.27533,403.38058,82,78,0
403.38058,403.48584,70,69,0
403.48584,403.5911,82,74,0
403.69638,403.80164,80,77,0
403.80164,403.9069,72,71,0
403.80164,403.9069,68,71,0
403.9069,404.01218,80,73,0
404.1178,404.22342,80,75,0
404.22342,404.32907,68,68,0
404.22342,404.32907,74,68,0
404.32907,404.4347,80,72,0
404.54184,404.649,79,73,0
404.649,404.75613,67,66,0
404.649,404.75613,74,66,0
404.75613,404.86328,79,73,0
404.9704,405.07755,77,71,0
405.07755,405.1847,65,66,0
405.07755,405.1847,68,66,0
405.1847,405.29184,77,71,0
405.399,405.50613,76,72,0
405.50613,405.61328,64,66,0
405.50613,405.61328,67,66,0
405.61328,405.7204,76,69,0
405.7204,405.82593,77,77,0
405.7204,405.82593,68,65,0
405.7204,405.82593,65,65,0
405.82593,405.93094,60,74,0
405.93094,406.03558,65,76,0
406.03558,406.1399,68,78,0
406.1399,406.24368,72,80,0
406.24368,406.34714,73,76,0
406.34714,406.45023,72,76,0
406.45023,406.55286,70,76,0
406.55286,406.65524,68,77,0
406.65524,406.75797,70,71,0
406.75797,406.86108,68,72,0
406.86108,406.9645,67,72,0
406.9645,407.06833,65,78,0
407.06833,407.1725,63,73,0
407.1725,407.277,61,73,0
407.277,407.38193,60,72,0
407.38193,407.48718,58,75,0
407.48718,407.5928,56,70,0
407.5928,407.6993,54,70,0
407.6993,407.8062,53,70,0
407.8062,408.026,52,73,0
408.026,408.19083,60,82,0
408.026,408.19083,48,69,0
408.026,408.19083,52,69,0
408.026,408.19083,54,69,0
408.24576,408.4106,60,73,0
408.24576,408.4106,48,61,0
408.24576,408.4106,52,61,0
408.24576,408.4106,58,73,0
408.46555,408.63037,60,71,0
408.46555,408.63037,48,60,0
408.46555,408.63037,52,60,0
408.46555,408.63037,58,71,0
408.68533,408.85016,60,72,0
408.68533,408.85016,48,61,0
408.68533,408.85016,52,61,0
408.68533,408.85016,58,72,0
408.90512,409.06995,60,72,0
408.90512,409.06995,48,61,0
408.90512,409.06995,52,61,0
408.90512,409.06995,58,72,0
409.12488,409.23065,60,77,0
409.12488,409.23065,48,77,0
409.12488,409.23065,53,77,0
409.12488,409.23065,56,77,0
409.23065,409.3358,72,74,0
409.3358,409.44043,77,76,0
409.44043,409.5445,80,78,0
409.5445,409.64816,84,80,0
409.64816,409.75137,85,76,0
409.75137,409.854,84,76,0
409.854,409.95676,82,76,0
409.95676,410.05972,80,77,0
410.05972,410.16293,82,71,0
410.16293,410.2665,80,72,0
410.2665,410.3703,79,72,0
410.3703,410.4745,77,78,0
410.4745,410.579,75,73,0
410.579,410.68378,73,73,0
410.68378,410.7888,72,72,0
410.7888,410.8942,70,75,0
410.8942,410.99982,68,70,0
410.99982,411.10583,67,70,0
411.10583,411.21246,65,70,0
411.21246,411.43225,64,73,0
411.43225,411.59708,72,82,0
411.43225,411.59708,60,58,0
411.43225,411.59708,64,69,0
411.43225,411.59708,67,69,0
411.652,411.81686,72,73,0
411.652,411.81686,60,51,0
411.652,411.81686,64,61,0
411.652,411.81686,70,73,0
411.8718,412.03662,72,70,0
411.8718,412.03662,60,50,0
411.8718,412.03662,64,59,0
411.8718,412.03662,70,70,0
412.09158,412.2564,72,73,0
412.09158,412.2564,60,51,0
412.09158,412.2564,64,61,0
412.09158,412.2564,70,73,0
412.31137,412.4762,72,71,0
412.31137,412.4762,60,51,0
412.31137,412.4762,64,60,0
412.31137,412.4762,70,71,0
412.53113,412.77298,72,73,0
412.53113,412.77298,60,51,0
412.53113,412.77298,65,61,0
412.53113,412.77298,68,73,0
413.2063,413.37112,84,90,0
413.2063,413.37112,72,63,0
413.2063,413.37112,77,75,0
413.2063,413.37112,80,75,0
413.42606,413.5909,84,80,0
413.42606,413.5909,72,56,0
413.42606,413.5909,76,67,0
413.42606,413.5909,82,80,0
413.64584,413.81067,84,77,0
413.64584,413.81067,72,55,0
413.64584,413.81067,76,64,0
413.64584,413.81067,82,77,0
413.86563,414.03046,84,80,0
413.86563,414.03046,72,56,0
413.86563,414.03046,76,67,0
413.86563,414.03046,82,80,0
414.08542,414.25024,84,78,0
414.08542,414.25024,72,56,0
414.08542,414.25024,76,66,0
414.08542,414.25024,82,78,0
414.30518,414.49384,84,80,0
414.30518,414.49384,72,56,0
414.30518,414.49384,77,67,0
414.30518,414.49384,80,80,0
414.98035,415.14517,72,82,0
414.98035,415.14517,60,58,0
414.98035,415.14517,65,69,0
414.98035,415.14517,68,69,0
415.2001,415.36496,72,73,0
415.2001,415.36496,60,51,0
415.2001,415.36496,64,61,0
415.2001,415.36496,70,73,0
415.4199,415.58472,72,70,0
415.4199,415.58472,60,50,0
415.4199,415.58472,64,59,0
415.4199,415.58472,70,70,0
415.63968,415.8045,72,73,0
415.63968,415.8045,60,51,0
415.63968,415.8045,64,61,0
415.63968,415.8045,70,73,0
415.85947,416.0243,72,71,0
415.85947,416.0243,60,51,0
415.85947,416.0243,64,60,0
415.85947,416.0243,70,71,0
416.07922,416.2147,72,73,0
416.07922,416.2147,60,73,0
416.07922,416.2147,65,73,0
416.07922,416.2147,68,73,0
416.2147,416.32108,67,74,0
416.32108,416.4277,68,75,0
416.4277,416.5346,70,76,0
416.5346,416.64316,72,77,0
416.64316,416.75122,74,78,0
416.75122,416.8585,76,79,0
416.8585,416.96512,77,80,0
416.96512,417.07114,79,80,0
417.07114,417.17752,77,79,0
417.17752,417.28427,76,79,0
417.28427,417.39142,73,78,0
417.39142,417.49893,72,77,0
417.49893,417.60684,70,76,0
417.60684,417.71515,68,75,0
417.71515,417.82385,67,74,0
417.82385,417.95932,65,73,0
417.95932,418.0657,67,74,0
418.0657,418.17233,68,75,0
418.17233,418.27936,70,76,0
418.27936,418.38687,72,77,0
418.38687,418.49402,74,78,0
418.49402,418.60077,76,79,0
418.60077,418.70715,77,80,0
418.70715,418.81317,79,80,0
418.81317,418.9189,77,79,0
418.9189,419.02518,76,79,0
419.02518,419.13208,73,78,0
419.13208,419.23947,72,77,0
419.23947,419.3475,70,76,0
419.3475,419.4562,68,75,0
419.4562,419.5653,67,74,0
419.5653,419.6702,65,73,0
419.6702,419.7751,67,74,0
419.7751,419.87997,68,75,0
419.87997,419.98563,70,76,0
419.98563,420.092,72,77,0
420.092,420.1984,74,78,0
420.1984,420.30478,76,79,0
420.30478,420.41043,77,80,0
420.41043,420.5157,79,80,0
420.5157,420.6207,78,76,0
420.6207,420.7256,79,79,0
420.7256,420.83014,78,73,0
420.83014,420.93454,79,77,0
420.93454,421.0387,78,72,0
421.0387,421.14264,79,75,0
421.14264,421.24643,78,70,0
421.24643,421.34988,79,77,0
421.34988,421.45334,78,72,0
421.45334,421.55676,79,76,0
421.55676,421.66022,78,72,0
421.66022,421.76367,79,75,0
421.76367,421.86713,78,71,0
421.86713,421.97058,79,74,0
421.97058,422.07483,78,71,0
422.07483,422.17734,79,80,0
422.17734,422.2803,77,79,0
422.2803,422.38388,76,79,0
422.38388,422.48816,73,78,0
422.48816,422.59296,72,77,0
422.59296,422.69846,70,76,0
422.69846,422.8046,68,75,0
422.8046,422.91135,67,74,0
422.91135,423.59592,65,111,0
422.91135,423.59592,60,94,0
422.91135,423.59592,56,94,0
423.59592,424.26334,68,105,0
423.59592,424.26334,60,88,0
423.59592,424.26334,56,88,0
424.26334,424.33994,67,50,0
424.26334,424.33994,58,50,0
424.26334,424.33994,55,50,0
424.41653,424.4911,64,50,0
424.41653,424.4911,58,50,0
424.41653,424.4911,55,50,0
424.56567,424.6408,60,46,0
424.56567,424.6408,58,46,0
424.56567,424.6408,55,46,0
424.71597,424.7911,64,46,0
424.71597,424.7911,58,46,0
424.71597,424.7911,55,46,0
424.86627,424.9423,65,50,0
424.86627,424.9423,60,50,0
424.86627,424.9423,56,50,0
425.0183,425.0923,60,47,0
425.0183,425.0923,56,47,0
425.16626,425.2412,65,47,0
425.16626,425.2412,60,47,0
425.16626,425.2412,56,47,0
425.3162,425.39114,68,47,0
425.3162,425.39114,60,47,0
425.3162,425.39114,56,47,0
425.4661,425.54105,67,50,0
425.4661,425.54105,58,50,0
425.4661,425.54105,55,50,0
425.616,425.68942,64,50,0
425.616,425.68942,58,50,0
425.616,425.68942,55,50,0
425.76282,425.8372,60,46,0
425.76282,425.8372,58,46,0
425.76282,425.8372,55,46,0
425.91156,425.98593,64,46,0
425.91156,425.98593,58,46,0
425.91156,425.98593,55,46,0
426.0603,426.13498,65,50,0
426.0603,426.13498,60,50,0
426.0603,426.13498,56,50,0
426.2097,426.28372,60,47,0
426.2097,426.28372,56,47,0
426.35776,426.43176,65,49,0
426.35776,426.43176,60,49,0
426.35776,426.43176,56,49,0
426.5058,426.57983,68,50,0
426.5058,426.57983,60,50,0
426.5058,426.57983,56,50,0
426.65387,426.72968,67,55,0
426.65387,426.72968,60,55,0
426.65387,426.72968,55,55,0
426.8055,426.88132,63,50,0
426.8055,426.88132,60,50,0
426.8055,426.88132,55,50,0
426.95715,427.03485,62,49,0
426.95715,427.03485,59,49,0
426.95715,427.03485,55,49,0
427.11255,427.19025,67,48,0
427.11255,427.19025,59,48,0
427.11255,427.19025,55,48,0
427.26794,427.57874,60,60,0
427.73413,427.78595,60,75,0
427.78595,427.83774,62,78,0
427.83774,427.88956,64,80,0
427.88956,428.55142,65,111,0
427.88956,428.55142,60,94,0
427.88956,428.55142,56,94,0
428.55142,429.199,68,105,0
428.55142,429.199,60,88,0
428.55142,429.199,56,88,0
429.199,429.2758,67,50,0
429.199,429.2758,58,50,0
429.199,429.2758,55,50,0
429.35257,429.42734,64,50,0
429.35257,429.42734,58,50,0
429.35257,429.42734,55,50,0
429.5021,429.57724,60,46,0
429.5021,429.57724,58,46,0
429.5021,429.57724,55,46,0
429.6524,429.72754,64,46,0
429.6524,429.72754,58,46,0
429.6524,429.72754,55,46,0
429.8027,429.87872,65,50,0
429.8027,429.87872,60,50,0
429.8027,429.87872,56,50,0
429.95505,430.02887,60,47,0
429.95505,430.02887,56,47,0
430.10266,430.1774,65,47,0
430.10266,430.1774,60,47,0
430.10266,430.1774,56,47,0
430.25217,430.3269,68,47,0
430.25217,430.3269,60,47,0
430.25217,430.3269,56,47,0
430.40167,430.47568,67,50,0
430.40167,430.47568,58,50,0
430.40167,430.47568,55,50,0
430.54965,430.6225,64,50,0
430.54965,430.6225,58,50,0
430.54965,430.6225,55,50,0
430.69537,430.76895,60,46,0
430.69537,430.76895,58,46,0
430.69537,430.76895,55,46,0
430.84256,430.91617,64,46,0
430.84256,430.91617,58,46,0
430.84256,430.91617,55,46,0
430.98978,431.06448,65,50,0
430.98978,431.06448,60,50,0
430.98978,431.06448,56,50,0
431.13916,431.21298,60,47,0
431.13916,431.21298,56,47,0
431.2868,431.3606,65,49,0
431.2868,431.3606,60,49,0
431.2868,431.3606,56,49,0
431.43442,431.50824,68,50,0
431.43442,431.50824,60,50,0
431.43442,431.50824,56,50,0
431.58203,431.65787,67,55,0
431.58203,431.65787,60,55,0
431.58203,431.65787,55,55,0
431.73367,431.80948,63,50,0
431.73367,431.80948,60,50,0
431.73367,431.80948,55,50,0
431.8853,431.963,62,49,0
431.8853,431.963,59,49,0
431.8853,431.963,55,49,0
432.0407,432.1184,67,48,0
432.0407,432.1184,59,48,0
432.0407,432.1184,55,48,0
432.1961,432.50693,60,60,0
432.66232,432.7141,63,75,0
432.7141,432.7659,65,78,0
432.7659,432.81772,67,80,0
432.81772,433.47958,68,111,0
432.81772,433.47958,63,94,0
432.81772,433.47958,60,94,0
433.47958,434.12717,72,105,0
433.47958,434.12717,63,88,0
433.47958,434.12717,60,88,0
434.12717,434.2026,70,50,0
434.12717,434.2026,61,50,0
434.12717,434.2026,58,50,0
434.27805,434.35165,67,50,0
434.27805,434.35165,61,50,0
434.27805,434.35165,58,50,0
434.42526,434.49942,63,46,0
434.42526,434.49942,61,46,0
434.42526,434.49942,58,46,0
434.5736,434.6478,67,46,0
434.5736,434.6478,61,46,0
434.5736,434.6478,58,46,0
434.72195,434.7972,68,50,0
434.72195,434.7972,63,50,0
434.72195,434.7972,60,50,0
434.87247,434.9457,63,47,0
434.87247,434.9457,60,47,0
435.01892,435.0927,68,47,0
435.01892,435.0927,63,47,0
435.01892,435.0927,60,47,0
435.1665,435.2403,72,47,0
435.1665,435.2403,63,47,0
435.1665,435.2403,60,47,0
435.3141,435.38858,70,50,0
435.3141,435.38858,61,50,0
435.3141,435.38858,58,50,0
435.46304,435.5364,67,50,0
435.46304,435.5364,61,50,0
435.46304,435.5364,58,50,0
435.6098,435.6832,63,46,0
435.6098,435.6832,61,46,0
435.6098,435.6832,58,46,0
435.75656,435.82996,67,46,0
435.75656,435.82996,61,46,0
435.75656,435.82996,58,46,0
435.90332,435.9778,68,50,0
435.90332,435.9778,63,50,0
435.90332,435.9778,60,50,0
436.05228,436.12564,63,47,0
436.05228,436.12564,60,47,0
436.19904,436.27243,68,47,0
436.19904,436.27243,63,47,0
436.19904,436.27243,60,47,0
436.3458,436.4192,72,47,0
436.3458,436.4192,63,47,0
436.3458,436.4192,60,47,0
436.49255,436.56763,69,52,0
436.49255,436.56763,63,52,0
436.49255,436.56763,60,52,0
436.6427,436.71664,65,52,0
436.6427,436.71664,63,52,0
436.6427,436.71664,60,52,0
436.7906,436.86453,69,48,0
436.7906,436.86453,63,48,0
436.7906,436.86453,60,48,0
436.9385,437.01245,72,49,0
436.9385,437.01245,63,49,0
436.9385,437.01245,60,49,0
437.0864,437.1622,70,54,0
437.0864,437.1622,65,54,0
437.0864,437.1622,61,54,0
437.23804,437.31198,65,52,0
437.23804,437.31198,61,52,0
437.38593,437.4599,70,53,0
437.38593,437.4599,65,53,0
437.38593,437.4599,61,53,0
437.53384,437.6078,73,54,0
437.53384,437.6078,65,54,0
437.53384,437.6078,61,54,0
437.68173,437.7574,72,60,0
437.68173,437.7574,65,60,0
437.68173,437.7574,60,60,0
437.833,437.90768,68,60,0
437.833,437.90768,65,60,0
437.833,437.90768,60,60,0
437.9824,438.05707,67,53,0
437.9824,438.05707,64,53,0
437.9824,438.05707,60,53,0
438.13177,438.20645,72,53,0
438.13177,438.20645,64,53,0
438.13177,438.20645,60,53,0
438.28116,438.58444,65,70,0
438.73608,438.78662,63,75,0
438.78662,438.8372,65,78,0
438.8372,438.88773,67,80,0
438.88773,439.5442,68,111,0
438.88773,439.5442,63,94,0
438.88773,439.5442,60,94,0
439.5442,440.18484,72,105,0
439.5442,440.18484,63,88,0
439.5442,440.18484,60,88,0
440.18484,440.25958,70,50,0
440.18484,440.25958,61,50,0
440.18484,440.25958,58,50,0
440.33435,440.40738,67,50,0
440.33435,440.40738,61,50,0
440.33435,440.40738,58,50,0
440.48044,440.5548,63,46,0
440.48044,440.5548,61,46,0
440.48044,440.5548,58,46,0
440.62918,440.70355,67,46,0
440.62918,440.70355,61,46,0
440.62918,440.70355,58,46,0
440.7779,440.85297,68,50,0
440.7779,440.85297,63,50,0
440.7779,440.85297,60,50,0
440.92804,441.00198,63,47,0
440.92804,441.00198,60,47,0
441.07593,441.14987,68,47,0
441.07593,441.14987,63,47,0
441.07593,441.14987,60,47,0
441.22385,441.2978,72,47,0
441.22385,441.2978,63,47,0
441.22385,441.2978,60,47,0
441.37173,441.4462,70,50,0
441.37173,441.4462,61,50,0
441.37173,441.4462,58,50,0
441.5207,441.59406,67,50,0
441.5207,441.59406,61,50,0
441.5207,441.59406,58,50,0
441.66745,441.7408,63,46,0
441.66745,441.7408,61,46,0
441.66745,441.7408,58,46,0
441.8142,441.88757,67,46,0
441.8142,441.88757,61,46,0
441.8142,441.88757,58,46,0
441.96097,442.0367,68,50,0
441.96097,442.0367,63,50,0
441.96097,442.0367,60,50,0
442.11246,442.187,63,47,0
442.11246,442.187,60,47,0
442.2616,442.33615,68,47,0
442.2616,442.33615,63,47,0
442.2616,442.33615,60,47,0
442.4107,442.4853,72,47,0
442.4107,442.4853,63,47,0
442.4107,442.4853,60,47,0
442.55984,442.6351,69,52,0
442.55984,442.6351,63,52,0
442.55984,442.6351,60,52,0
442.71036,442.7843,65,52,0
442.71036,442.7843,63,52,0
442.71036,442.7843,60,52,0
442.85825,442.9322,69,48,0
442.85825,442.9322,63,48,0
442.85825,442.9322,60,48,0
443.00613,443.0801,72,49,0
443.00613,443.0801,63,49,0
443.00613,443.0801,60,49,0
443.15405,443.22968,70,54,0
443.15405,443.22968,65,54,0
443.15405,443.22968,61,54,0
443.30533,443.37982,65,52,0
443.30533,443.37982,61,52,0
443.4543,443.52884,70,53,0
443.4543,443.52884,65,53,0
443.4543,443.52884,61,53,0
443.60333,443.67783,73,54,0
443.60333,443.67783,65,54,0
443.60333,443.67783,61,54,0
443.75235,443.82816,72,60,0
443.75235,443.82816,65,60,0
443.75235,443.82816,60,60,0
443.904,443.9785,68,60,0
443.904,443.9785,65,60,0
443.904,443.9785,60,60,0
444.053,444.1275,67,53,0
444.053,444.1275,64,53,0
444.053,444.1275,60,53,0
444.202,444.27652,72,53,0
444.202,444.27652,64,53,0
444.202,444.27652,60,53,0
444.351,444.42038,65,70,0
444.42038,444.4902,60,65,0
444.4902,444.5602,65,63,0
444.5602,444.63046,68,62,0
444.63046,444.70004,72,62,0
444.70004,444.76965,73,58,0
444.76965,444.83926,72,62,0
444.83926,444.90884,70,57,0
444.90884,444.97855,68,65,0
444.97855,445.04846,70,60,0
445.04846,445.11853,68,60,0
445.11853,445.18878,67,54,0
445.18878,445.25858,65,63,0
445.25858,445.3284,67,54,0
445.3284,445.3982,68,57,0
445.3982,445.46857,65,54,0
445.46857,445.5381,68,67,0
445.5381,445.6079,60,63,0
445.6079,445.678,65,63,0
445.678,445.7484,68,60,0
445.7484,445.81802,72,63,0
445.81802,445.8876,73,59,0
445.8876,445.9572,72,61,0
445.9572,446.0268,70,61,0
446.0268,446.0964,68,64,0
446.0964,446.1661,70,61,0
446.1661,446.23605,68,60,0
446.23605,446.30624,67,54,0
446.30624,446.37622,65,63,0
446.37622,446.44623,67,54,0
446.44623,446.5162,68,57,0
446.5162,446.58655,65,54,0
446.58655,446.65607,66,67,0
446.65607,446.72592,61,63,0
446.72592,446.7961,66,63,0
446.7961,446.86658,70,62,0
446.86658,446.9362,73,63,0
446.9362,447.00577,75,61,0
447.00577,447.07538,73,63,0
447.07538,447.14496,72,61,0
447.14496,447.2144,70,64,0
447.2144,447.284,72,60,0
447.284,447.35376,70,60,0
447.35376,447.42377,68,54,0
447.42377,447.49374,66,63,0
447.49374,447.56372,68,54,0
447.56372,447.6337,66,57,0
447.6337,447.70486,65,54,0
447.70486,447.77435,64,69,0
447.77435,447.84418,65,63,0
447.84418,447.91437,67,63,0
447.91437,447.98495,68,62,0
447.98495,448.05457,70,63,0
448.05457,448.12415,68,61,0
448.12415,448.19376,67,63,0
448.19376,448.26334,65,61,0
448.26334,448.33295,64,63,0
448.33295,448.40277,65,64,0
448.40277,448.47296,67,61,0
448.47296,448.54346,68,54,0
448.54346,448.61328,70,62,0
448.61328,448.68307,72,63,0
448.68307,448.7529,74,65,0
448.7529,448.82336,76,69,0
448.82336,448.89297,77,72,0
448.89297,448.9628,72,69,0
448.9628,449.0328,77,65,0
449.0328,449.10306,80,64,0
449.10306,449.17264,84,67,0
449.17264,449.24225,85,64,0
449.24225,449.31183,84,64,0
449.31183,449.38144,82,64,0
449.38144,449.45114,80,66,0
449.45114,449.52103,82,63,0
449.52103,449.5911,80,63,0
449.5911,449.66135,79,55,0
449.66135,449.73096,77,63,0
449.73096,449.80054,79,56,0
449.80054,449.87015,80,60,0
449.87015,449.9405,77,55,0
449.9405,450.01004,80,72,0
450.01004,450.07986,72,65,0
450.07986,450.14993,77,65,0
450.14993,450.22037,80,64,0
450.22037,450.28995,84,67,0
450.28995,450.35956,85,64,0
450.35956,450.42914,84,64,0
450.42914,450.49875,82,64,0
450.49875,450.56833,80,64,0
450.56833,450.63806,82,63,0
450.63806,450.708,80,63,0
450.708,450.7782,79,55,0
450.7782,450.84778,77,63,0
450.84778,450.9174,79,56,0
450.9174,450.98697,80,60,0
450.98697,451.057,77,55,0
451.057,451.12653,78,71,0
451.12653,451.19638,73,65,0
451.19638,451.26654,78,65,0
451.26654,451.33704,82,64,0
451.33704,451.40665,85,67,0
451.40665,451.47623,87,64,0
451.47623,451.54584,85,64,0
451.54584,451.61542,84,64,0
451.61542,451.68484,82,67,0
451.68484,451.75446,84,63,0
451.75446,451.82422,82,63,0
451.82422,451.89423,80,55,0
451.89423,451.96384,78,63,0
451.96384,452.03342,80,56,0
452.03342,452.10303,78,60,0
452.10303,452.17365,77,55,0
452.17365,452.24313,76,72,0
452.24313,452.31296,77,65,0
452.31296,452.38315,79,65,0
452.38315,452.45377,80,64,0
452.45377,452.52338,82,70,0
452.52338,452.59296,80,66,0
452.59296,452.66257,79,65,0
452.66257,452.73215,77,63,0
452.73215,452.80176,76,66,0
452.80176,452.87158,77,67,0
452.87158,452.94177,79,63,0
452.94177,453.01227,80,55,0
453.01227,453.08185,82,63,0
453.08185,453.15146,84,66,0
453.15146,453.22104,86,71,0
453.22104,453.29184,88,73,0
453.29184,453.36145,89,80,0
453.36145,453.43127,80,75,0
453.43127,453.50128,84,70,0
453.50128,453.57153,89,70,0
453.57153,453.91965,92,86,0
453.91965,453.98953,84,70,0
453.98953,454.0596,89,70,0
454.0596,454.12985,92,73,0
454.12985,454.19943,96,77,0
454.19943,454.26904,92,76,0
454.26904,454.33862,91,73,0
454.33862,454.40817,88,73,0
454.40817,454.47775,89,78,0
454.47775,454.5476,80,75,0
454.5476,454.6176,84,70,0
454.6176,454.68787,89,70,0
454.68787,455.03595,92,86,0
455.03595,455.10583,84,69,0
455.10583,455.1759,89,72,0
455.1759,455.24615,92,75,0
455.24615,455.31577,96,77,0
455.31577,455.38535,92,76,0
455.38535,455.45496,91,75,0
455.45496,455.5245,88,72,0
455.5245,455.5941,89,78,0
455.5941,455.6639,80,75,0
455.6639,455.73392,84,70,0
455.73392,455.80417,89,70,0
455.80417,456.15228,92,86,0
456.15228,456.22217,84,69,0
456.22217,456.29224,89,72,0
456.29224,456.3625,92,75,0
456.3625,456.43207,96,77,0
456.43207,456.50168,92,76,0
456.50168,456.57126,91,75,0
456.57126,456.6408,88,73,0
456.6408,456.71042,89,77,0
456.71042,456.78024,80,75,0
456.78024,456.85025,84,70,0
456.85025,456.9205,89,70,0
456.9205,457.2686,92,86,0
457.2686,457.3385,84,70,0
457.3385,457.40857,89,72,0
457.40857,457.4788,92,75,0
457.4788,457.5484,96,76,0
457.5484,457.618,92,76,0
457.618,457.6876,91,75,0
457.6876,457.75714,88,73,0
457.75714,457.82574,89,77,0
457.82574,457.8945,84,72,0
457.8945,457.9634,89,72,0
457.9634,458.03253,92,76,0
458.03253,458.10098,96,79,0
458.10098,458.16946,92,78,0
458.16946,458.2379,91,77,0
458.2379,458.30722,88,76,0
458.30722,458.37592,89,79,0
458.37592,458.44467,84,75,0
458.44467,458.5136,89,77,0
458.5136,458.5827,92,80,0
458.5827,458.65118,96,80,0
458.65118,458.71964,92,79,0
458.71964,458.78812,91,77,0
458.78812,458.85742,88,77,0
458.85742,458.92612,89,89,0
458.92612,458.99487,84,82,0
458.99487,459.0638,89,85,0
459.0638,459.1329,92,88,0
459.1329,459.2014,96,84,0
459.2014,459.26984,92,82,0
459.26984,459.33832,91,82,0
459.33832,459.40717,88,80,0
459.40717,459.47586,96,89,0
459.47586,459.54462,92,75,0
459.54462,459.61356,91,79,0
459.61356,459.68265,88,84,0
459.68265,459.75113,96,90,0
459.75113,459.81958,92,89,0
459.81958,459.88806,91,87,0
459.88806,459.95767,88,89,0
459.95767,460.02606,96,93,0
460.02606,460.09445,92,79,0
460.09445,460.1628,89,80,0
460.1628,460.23282,84,80,0
460.23282,460.30118,92,93,0
460.30118,460.36957,89,82,0
460.36957,460.43796,84,82,0
460.43796,460.50775,80,82,0
460.50775,460.57614,89,93,0
460.57614,460.64453,84,81,0
460.64453,460.7129,80,81,0
460.7129,460.78223,77,82,0
460.78223,460.85062,84,93,0
460.85062,460.919,80,81,0
460.919,460.98737,77,81,0
460.98737,461.0572,72,81,0
461.0572,461.12558,80,93,0
461.12558,461.19394,77,80,0
461.19394,461.26233,72,80,0
461.26233,461.33197,68,80,0
461.33197,461.40036,77,93,0
461.40036,461.46875,72,82,0
461.46875,461.5371,68,81,0
461.5371,461.60678,65,81,0
461.60678,461.67517,72,93,0
461.67517,461.74353,68,80,0
461.74353,461.81192,65,80,0
461.81192,461.88174,60,80,0
461.88174,461.9501,68,93,0
461.9501,462.0185,65,80,0
462.0185,462.08688,60,81,0
462.08688,462.15668,56,81,0
462.15668,462.22507,65,93,0
462.22507,462.29346,60,81,0
462.29346,462.36182,56,81,0
462.36182,462.43164,53,81,0
462.43164,462.50003,60,93,0
462.50003,462.5684,56,81,0
462.5684,462.63678,53,81,0
462.63678,462.70676,48,81,0
462.70676,462.77515,56,93,0
462.77515,462.84354,53,81,0
462.84354,462.9119,48,81,0
462.9119,462.98172,44,81,0
462.98172,463.05026,53,93,0
463.05026,463.1188,48,85,0
463.1188,463.18732,44,80,0
463.18732,463.257,48,80,0
463.257,463.3986,53,106,0
463.257,463.3986,41,90,0
463.257,463.3986,44,90,0
463.257,463.3986,48,90,0
463.82343,463.96774,77,111,0
463.82343,463.96774,65,94,0
463.82343,463.96774,68,94,0
463.82343,463.96774,72,94,0
464.40076,464.55127,65,111,0
464.40076,464.55127,53,94,0
464.40076,464.55127,56,94,0
464.40076,464.55127,60,94,0
0.0,0.63985217,55,84,0
0.0,0.63985217,46,71,0
0.646134,0.8597172,46,65,0
0.646134,0.8597172,55,77,0
0.861512,1.5013641,55,84,0
0.861512,1.5013641,46,71,0
1.507646,1.7212292,46,65,0
1.507646,1.7212292,55,76,0
1.723024,2.0433989,55,84,0
1.723024,2.0433989,46,71,0
2.046091,2.1528826,46,65,0
2.046091,2.1528826,55,77,0
2.15378,2.4741547,55,84,0
2.15378,2.4741547,46,71,0
2.476847,2.5836387,55,76,0
2.476847,2.5836387,46,65,0
2.584536,2.9049108,46,71,0
2.584536,2.9049108,55,84,0
2.907603,3.0143945,55,75,0
2.907603,3.0143945,46,64,0
3.015292,3.3356667,46,71,0
3.015292,3.3356667,55,84,0
3.338359,3.4451506,55,75,0
3.338359,3.4451506,46,64,0
3.446048,3.876804,46,71,0
3.446048,3.876804,55,84,0
10.537647,10.646277,36,60,0
10.637948,10.746231,37,60,0
10.737902,10.846567,36,60,0
10.837625,10.953229,35,60,0
10.944928,11.053184,36,60,0
11.044883,11.152657,37,60,0
11.14427,11.253055,36,60,0
11.244754,11.353161,35,60,0
11.344889,11.453467,36,60,0
11.445022,11.553433,37,60,0
11.545048,11.6545,36,60,0
11.646085,11.7554035,35,60,0
11.747074,11.855196,36,60,0
11.846809,11.955508,37,60,0
11.947207,12.056046,36,60,0
12.04763,12.156132,35,60,0
12.147745,12.257011,36,60,0
12.248652,12.357814,37,60,0
12.349428,12.459416,36,60,0
12.450539,12.565474,35,60,0
12.557066,12.666605,34,57,0
12.658117,12.767552,36,57,0
12.759223,12.869005,34,57,0
12.860491,12.970695,33,57,0
12.962338,13.071306,34,57,0
13.062819,13.172938,36,57,0
13.164505,13.275003,34,57,0
13.2661915,13.379667,33,57,0
13.371233,13.480718,34,57,0
13.472337,13.581272,36,56,0
13.572812,13.682401,34,56,0
13.67402,13.78385,33,56,0
13.775389,13.88469,34,55,0
13.87623,13.986166,36,55,0
13.97781,14.087852,34,55,0
14.079071,14.192845,33,55,0
14.184438,14.29374,34,55,0
14.285333,14.39487,36,54,0
14.3864355,14.496209,34,53,0
14.487748,14.597758,33,52,0
14.589272,14.699605,34,51,0
14.691118,14.801691,36,50,0
14.793178,14.904316,34,49,0
14.895504,15.008521,33,48,0
15.000017,15.111023,34,47,0
15.1024275,15.214456,31,46,0
15.2058,15.318787,32,45,0
15.310038,15.423961,34,44,0
15.415149,15.530157,36,43,0
15.521279,15.637168,34,42,0
15.628194,15.745199,32,41,0
15.736157,15.853748,31,40,0
15.845061,16.26065,29,39,0
17.400864,17.509363,41,35,0
17.509363,17.924332,29,40,0
19.05991,19.168818,41,35,0
19.168818,19.585077,34,40,0
20.729244,20.838152,37,36,0
20.838152,21.048885,36,40,0
21.262753,21.474243,37,38,0
21.688896,21.89963,34,40,0
22.113497,22.32423,36,37,0
22.538506,22.955462,29,40,0
22.538506,22.955462,41,40,0
23.270481,23.377022,68,49,0
23.270481,23.377022,72,49,0
23.377022,23.793573,72,57,0
23.377022,23.793573,68,57,0
23.793573,24.00185,65,30,0
23.793573,24.00185,68,30,0
24.214485,24.631441,29,40,0
24.214485,24.631441,41,40,0
24.945755,25.05159,72,51,0
24.945755,25.05159,68,51,0
25.05159,25.468142,68,56,0
25.05159,25.468142,72,56,0
25.468142,25.676416,68,30,0
25.468142,25.676416,65,30,0
25.889463,26.30642,46,40,0
25.889463,26.30642,34,40,0
26.621077,26.727257,73,63,0
26.621077,26.727257,70,63,0
26.727257,27.56513,70,70,0
26.727257,27.56513,73,70,0
27.56513,27.775864,72,51,0
27.56513,27.775864,70,51,0
27.775864,27.989729,36,43,0
27.775864,27.989729,48,43,0
28.20122,28.415874,49,37,0
28.20122,28.415874,37,37,0
28.628233,28.842913,46,39,0
28.628233,28.842913,34,39,0
29.054583,29.269325,36,35,0
29.054583,29.269325,48,35,0
29.269325,29.685877,41,44,0
29.269325,29.685877,29,44,0
29.998291,30.106977,53,52,0
29.998291,30.106977,56,52,0
30.106977,30.52353,56,65,0
30.106977,30.52353,53,65,0
30.835941,30.944262,53,54,0
30.835941,30.944262,56,54,0
30.944262,31.794003,53,66,0
30.944262,31.794003,56,66,0
30.944262,31.794003,48,66,0
31.794003,32.007908,55,48,0
31.794003,32.007908,52,48,0
31.794003,32.007908,48,48,0
32.639027,33.05558,48,42,0
32.639027,33.05558,36,42,0
33.367992,33.47668,55,60,0
33.367992,33.47668,58,60,0
33.47668,33.89323,55,68,0
33.47668,33.89323,58,68,0
34.205647,34.313965,58,61,0
34.205647,34.313965,55,61,0
34.313965,35.162376,55,58,0
34.313965,35.162376,58,69,0
34.313965,35.162376,53,58,0
35.162376,35.37489,53,47,0
35.162376,35.37489,56,52,0
36.00465,36.421204,53,45,0
36.00465,36.421204,41,45,0
36.733616,36.842304,63,59,0
36.733616,36.842304,60,59,0
36.842304,37.258854,63,68,0
36.842304,37.258854,60,68,0
37.571266,37.67959,60,66,0
37.571266,37.67959,63,66,0
37.67959,38.731804,58,72,0
37.67959,38.731804,63,72,0
37.67959,38.731804,60,72,0
38.731804,38.94279,61,64,0
38.731804,38.94279,58,64,0
38.94279,39.154804,56,61,0
38.94279,39.154804,60,61,0
39.154804,39.366817,58,59,0
39.154804,39.366817,55,59,0
39.366817,39.783367,48,56,0
39.366817,39.783367,56,56,0
39.366817,39.783367,53,56,0
40.095783,40.205566,53,56,0
40.095783,40.205566,56,56,0
40.205566,40.62212,48,63,0
40.205566,40.62212,58,63,0
40.205566,40.62212,55,63,0
40.934532,41.04432,52,53,0
40.934532,41.04432,55,53,0
41.04432,41.148457,53,56,0
41.148457,41.252594,60,49,0
41.252594,41.35673,56,49,0
41.35673,41.46087,53,49,0
41.46087,41.565006,48,53,0
41.565006,41.669144,56,49,0
41.669144,41.77328,53,49,0
41.77328,41.882374,48,49,0
41.882374,41.98651,44,53,0
41.98651,42.09065,53,49,0
42.09065,42.194786,48,49,0
42.194786,42.298923,44,49,0
42.298923,42.40306,41,53,0
42.40306,42.5072,48,49,0
42.5072,42.611336,44,49,0
42.611336,42.7196,41,49,0
42.7196,42.82413,36,53,0
42.82413,42.92866,41,49,0
42.92866,43.03319,44,49,0
43.03319,43.137722,48,49,0
43.137722,43.24225,47,53,0
43.24225,43.34678,48,49,0
43.34678,43.45131,47,49,0
43.45131,43.55584,48,49,0
43.55584,43.660366,47,53,0
43.660366,43.764896,48,49,0
43.764896,43.869427,43,49,0
43.869427,43.973957,48,49,0
43.973957,44.078487,40,53,0
44.078487,44.183014,48,49,0
44.183014,44.287544,43,49,0
44.287544,44.392075,48,49,0
44.392075,44.496212,36,56,0
44.496212,44.60035,40,49,0
44.60035,44.704487,43,49,0
44.704487,44.808624,48,49,0
44.808624,44.91276,40,53,0
44.91276,45.0169,43,49,0
45.0169,45.12104,48,49,0
45.12104,45.23013,52,49,0
45.23013,45.334267,43,53,0
45.334267,45.438404,48,49,0
45.438404,45.54254,52,49,0
45.54254,45.64668,55,49,0
45.64668,45.750816,48,53,0
45.750816,45.854958,52,49,0
45.854958,45.959095,55,49,0
45.959095,46.06736,60,49,0
46.06736,46.17189,53,59,0
46.17189,46.276417,56,49,0
46.276417,46.380947,60,49,0
46.380947,46.485477,65,49,0
46.485477,46.590008,64,53,0
46.590008,46.694534,65,49,0
46.694534,46.799065,64,49,0
46.799065,46.903595,65,49,0
46.903595,47.008125,64,53,0
47.008125,47.112656,65,49,0
47.112656,47.217182,60,49,0
47.217182,47.321712,65,49,0
47.321712,47.426243,56,53,0
47.426243,47.530773,65,49,0
47.530773,47.635303,60,49,0
47.635303,47.73983,65,49,0
47.73983,47.843967,53,61,0
47.843967,47.948105,57,53,0
47.948105,48.052246,60,53,0
48.052246,48.156384,65,53,0
48.156384,48.26052,57,58,0
48.26052,48.36466,60,53,0
48.36466,48.468796,65,53,0
48.468796,48.577885,69,53,0
48.577885,48.682026,60,58,0
48.682026,48.786163,65,53,0
48.786163,48.8903,69,53,0
48.8903,48.99444,72,53,0
48.99444,49.098576,65,58,0
49.098576,49.202713,69,53,0
49.202713,49.30685,72,53,0
49.30685,49.415115,77,53,0
49.415115,49.519646,69,67,0
49.519646,49.624176,77,53,0
49.624176,49.728706,76,53,0
49.728706,49.833233,77,53,0
49.833233,49.937763,69,58,0
49.937763,50.042294,77,53,0
50.042294,50.146824,69,53,0
50.146824,50.25135,77,53,0
50.25135,50.35588,69,57,0
50.35588,50.46041,77,56,0
50.46041,50.565674,70,56,0
50.565674,50.670937,77,55,0
50.670937,50.7762,72,54,0
50.7762,50.881466,77,53,0
50.881466,50.98673,73,52,0
50.98673,51.09199,77,52,0
51.09199,51.19613,60,52,0
51.19613,51.300266,65,47,0
51.300266,51.404404,68,47,0
51.404404,51.50854,72,47,0
51.50854,51.61268,71,52,0
51.61268,51.716816,72,47,0
51.716816,51.820953,71,47,0
51.820953,51.925724,72,47,0
51.925724,52.02986,60,52,0
52.02986,52.134,64,47,0
52.134,52.238136,67,47,0
52.238136,52.342274,72,47,0
52.342274,52.44641,60,52,0
52.44641,52.55055,67,47,0
52.55055,52.65469,70,47,0
52.65469,52.764923,72,47,0
52.764923,52.86982,53,52,0
52.86982,52.97429,68,38,0
52.86982,52.97429,65,38,0
52.97429,53.078335,72,39,0
52.97429,53.078335,60,39,0
53.078335,53.182022,65,41,0
53.078335,53.182022,68,41,0
53.182022,53.285294,60,45,0
53.182022,53.285294,72,45,0
53.285294,53.38815,65,44,0
53.285294,53.38815,68,44,0
53.38815,53.490654,60,45,0
53.38815,53.490654,72,45,0
53.490654,53.592754,65,45,0
53.490654,53.592754,68,45,0
53.592754,53.694622,60,46,0
53.592754,53.694622,72,46,0
53.694622,53.797245,65,46,0
53.694622,53.797245,68,46,0
53.797245,53.900635,60,45,0
53.797245,53.900635,72,45,0
53.900635,54.004864,65,45,0
53.900635,54.004864,68,45,0
54.004864,54.109882,60,45,0
54.004864,54.109882,72,45,0
54.109882,54.215763,65,44,0
54.109882,54.215763,68,44,0
54.215763,54.322464,60,44,0
54.215763,54.322464,72,44,0
54.322464,54.42999,65,43,0
54.322464,54.42999,68,43,0
54.42999,54.5652,53,54,0
54.5652,54.67065,65,38,0
54.5652,54.67065,68,38,0
54.67065,54.775608,60,39,0
54.67065,54.775608,72,39,0
54.775608,54.880016,65,41,0
54.775608,54.880016,68,41,0
54.880016,54.98394,60,45,0
54.880016,54.98394,72,45,0
54.98394,55.08739,65,44,0
54.98394,55.08739,68,44,0
55.08739,55.190365,72,45,0
55.08739,55.190365,60,45,0
55.190365,55.29287,68,45,0
55.190365,55.29287,65,45,0
55.29287,55.39538,60,46,0
55.29287,55.39538,72,46,0
55.39538,55.498413,65,46,0
55.39538,55.498413,68,46,0
55.498413,55.60204,60,45,0
55.498413,55.60204,72,45,0
55.60204,55.706326,65,45,0
55.60204,55.706326,68,45,0
55.706326,55.811222,60,45,0
55.706326,55.811222,72,45,0
55.811222,55.916733,65,44,0
55.811222,55.916733,68,44,0
55.916733,56.022926,60,44,0
55.916733,56.022926,72,44,0
56.022926,56.12988,65,43,0
56.022926,56.12988,68,43,0
56.12988,56.265408,43,55,0
56.265408,56.370857,53,40,0
56.265408,56.370857,55,40,0
56.370857,56.47575,50,41,0
56.370857,56.47575,59,41,0
56.47575,56.5801,53,43,0
56.47575,56.5801,55,43,0
56.5801,56.683846,50,47,0
56.5801,56.683846,59,47,0
56.683846,56.78706,53,46,0
56.683846,56.78706,55,46,0
56.78706,56.88968,59,47,0
56.78706,56.88968,50,47,0
56.88968,56.99178,55,48,0
56.88968,56.99178,53,48,0
56.99178,57.093647,59,49,0
56.99178,57.093647,50,49,0
57.093647,57.196156,53,49,0
57.093647,57.196156,56,49,0
57.196156,57.299305,50,48,0
57.196156,57.299305,59,48,0
57.299305,57.403053,53,47,0
57.299305,57.403053,56,47,0
57.403053,57.50746,59,47,0
57.403053,57.50746,50,47,0
57.50746,57.61254,55,46,0
57.50746,57.61254,53,46,0
57.61254,57.7183,59,46,0
57.61254,57.7183,50,46,0
57.7183,57.824936,55,45,0
57.7183,57.824936,53,45,0
57.824936,57.960026,43,54,0
57.960026,58.065105,55,40,0
57.960026,58.065105,53,40,0
58.065105,58.169697,59,41,0
58.065105,58.169697,50,41,0
58.169697,58.273743,55,43,0
58.169697,58.273743,53,43,0
58.273743,58.377308,59,47,0
58.273743,58.377308,50,47,0
58.377308,58.480404,55,46,0
58.377308,58.480404,53,46,0
58.480404,58.583027,59,47,0
58.480404,58.583027,50,47,0
58.583027,58.68518,53,48,0
58.583027,58.68518,55,48,0
58.68518,58.78705,50,49,0
58.68518,58.78705,59,49,0
58.78705,58.889614,56,49,0
58.78705,58.889614,53,49,0
58.889614,58.992886,59,48,0
58.889614,58.992886,50,48,0
58.992886,59.09693,56,47,0
58.992886,59.09693,53,47,0
59.09693,59.201767,59,47,0
59.09693,59.201767,50,47,0
59.201767,59.30734,53,46,0
59.201767,59.30734,55,46,0
59.30734,59.41366,50,46,0
59.30734,59.41366,59,46,0
59.41366,59.520866,53,45,0
59.41366,59.520866,55,45,0
59.520866,59.655956,48,56,0
59.655956,59.761036,63,42,0
59.655956,59.761036,60,42,0
59.761036,59.865623,67,43,0
59.761036,59.865623,55,43,0
59.865623,59.969673,60,45,0
59.865623,59.969673,63,45,0
59.969673,60.07324,55,49,0
59.969673,60.07324,67,49,0
60.07324,60.17633,60,48,0
60.07324,60.17633,63,48,0
60.17633,60.278954,55,49,0
60.17633,60.278954,67,49,0
60.278954,60.38111,60,50,0
60.278954,60.38111,63,50,0
60.38111,60.48298,55,51,0
60.38111,60.48298,67,51,0
60.48298,60.585545,60,51,0
60.48298,60.585545,63,51,0
60.585545,60.688816,55,50,0
60.585545,60.688816,67,50,0
60.688816,60.792862,63,49,0
60.688816,60.792862,60,49,0
60.792862,60.897697,67,49,0
60.792862,60.897697,55,49,0
60.897697,61.00327,60,48,0
60.897697,61.00327,63,48,0
61.00327,61.10959,55,48,0
61.00327,61.10959,67,48,0
61.10959,61.216797,60,47,0
61.10959,61.216797,63,47,0
61.216797,61.456963,48,56,0
61.456963,61.561554,67,43,0
61.561554,61.6656,63,45,0
61.6656,61.76917,72,49,0
61.76917,61.87226,67,49,0
61.87226,61.974884,72,50,0
61.974884,62.07704,67,52,0
62.07704,62.17891,75,53,0
62.17891,62.281475,72,53,0
62.281475,62.384743,75,53,0
62.384743,62.488792,72,51,0
62.488792,62.593628,79,52,0
62.593628,62.6992,75,51,0
62.6992,62.80552,79,51,0
62.80552,62.912727,75,51,0
62.912727,63.544308,80,80,0
62.912727,63.544308,77,80,0
63.544308,63.760136,75,66,0
63.544308,63.760136,79,66,0
63.760136,64.19179,77,68,0
63.760136,64.19179,74,68,0
64.19179,64.62344,79,64,0
64.19179,64.62344,75,64,0
64.62344,65.25503,77,80,0
64.62344,65.25503,80,80,0
65.25503,65.47085,75,66,0
65.25503,65.47085,79,66,0
65.47085,65.902504,74,68,0
65.47085,65.902504,77,68,0
65.902504,66.33416,75,64,0
65.902504,66.33416,79,64,0
66.33416,66.965744,80,80,0
66.33416,66.965744,77,80,0
66.965744,67.18157,75,66,0
66.965744,67.18157,79,66,0
67.18157,67.61322,77,68,0
67.18157,67.61322,74,68,0
67.61322,68.044876,75,65,0
67.61322,68.044876,72,65,0
68.044876,68.47653,74,70,0
68.044876,68.47653,71,70,0
68.47653,68.90819,69,70,0
68.47653,68.90819,72,70,0
68.90819,69.33984,68,75,0
68.90819,69.33984,72,75,0
69.33984,69.7715,67,75,0
69.33984,69.7715,72,75,0
70.203156,70.63481,68,75,0
69.7715,70.63481,66,76,0
70.63481,71.06647,63,72,0
71.06647,71.498116,62,68,0
70.63481,71.498116,67,72,0
70.63481,71.498116,55,72,0
71.498116,72.1297,56,61,0
71.498116,72.1297,61,72,0
71.498116,72.1297,53,61,0
72.1297,72.34553,51,50,0
72.1297,72.34553,60,59,0
72.1297,72.34553,55,50,0
72.34553,72.77718,59,64,0
72.34553,72.77718,53,54,0
72.34553,72.77718,50,51,0
72.77718,73.20883,51,48,0
72.77718,73.20883,60,57,0
72.77718,73.20883,55,48,0
73.20883,73.840416,56,61,0
73.20883,73.840416,61,72,0
73.20883,73.840416,53,61,0
73.840416,74.056244,51,50,0
73.840416,74.056244,60,59,0
73.840416,74.056244,55,50,0
74.056244,74.4879,53,51,0
74.056244,74.4879,59,61,0
74.056244,74.4879,50,51,0
74.4879,74.919556,60,57,0
74.4879,74.919556,55,48,0
74.4879,74.919556,51,48,0
74.919556,75.55113,53,61,0
74.919556,75.55113,56,61,0
74.919556,75.55113,61,72,0
75.55113,75.76696,55,50,0
75.55113,75.76696,51,50,0
75.55113,75.76696,60,59,0
75.76696,76.198616,53,51,0
75.76696,76.198616,59,61,0
75.76696,76.198616,50,51,0
76.198616,76.62264,48,49,0
76.198616,76.62264,51,49,0
76.198616,76.62264,56,58,0
76.62264,77.05275,50,63,0
76.62264,77.05275,47,53,0
76.62264,77.05275,55,63,0
77.05275,77.48286,45,53,0
77.05275,77.48286,54,63,0
77.05275,77.48286,51,63,0
77.05275,77.48286,48,53,0
77.48286,77.908394,53,67,0
77.48286,77.908394,47,56,0
77.48286,77.908394,50,56,0
77.908394,78.33392,48,56,0
77.908394,78.33392,51,67,0
78.33392,78.7625,51,66,0
78.7625,79.19106,50,64,0
78.33392,79.19106,45,56,0
78.33392,79.19106,42,56,0
79.19106,79.61964,48,61,0
79.61964,80.04821,47,59,0
79.19106,80.04821,43,61,0
80.04821,80.26022,39,59,0
80.04821,80.26022,36,59,0
80.04821,80.26022,43,59,0
80.04821,80.26022,48,70,0
80.57675,80.682014,55,59,0
80.682014,80.78691,60,62,0
80.78691,80.89156,63,64,0
80.89156,80.99573,67,70,0
80.99573,81.100136,68,64,0
81.100136,81.20479,67,64,0
81.20479,81.309685,65,64,0
81.309685,81.414825,63,70,0
81.414825,81.52021,62,63,0
81.52021,81.62585,60,63,0
81.62585,81.73173,58,63,0
81.73173,81.83786,56,67,0
81.83786,81.944244,55,60,0
81.944244,82.05088,53,60,0
82.05088,82.15777,51,60,0
82.15777,82.267654,50,71,0
82.267654,82.37755,51,65,0
82.37755,82.487434,53,73,0
82.487434,82.59733,51,69,0
82.59733,82.707214,50,73,0
82.707214,82.81711,48,73,0
82.81711,82.926994,47,72,0
82.926994,83.03689,44,72,0
83.03689,83.146774,43,71,0
83.146774,83.25667,41,71,0
83.25667,83.366554,39,70,0
83.366554,83.47645,38,70,0
83.47645,83.68846,39,70,0
83.47645,83.68846,36,70,0
83.47645,83.68846,43,70,0
83.47645,83.68846,48,70,0
84.00499,84.11025,67,59,0
84.11025,84.21515,72,62,0
84.21515,84.3198,75,64,0
84.3198,84.423965,79,70,0
84.423965,84.52837,80,64,0
84.52837,84.633026,79,64,0
84.633026,84.73792,77,64,0
84.73792,84.84306,75,70,0
84.84306,84.94845,74,63,0
84.94845,85.054085,72,63,0
85.054085,85.159966,70,63,0
85.159966,85.2661,68,67,0
85.2661,85.37248,67,60,0
85.37248,85.47912,65,60,0
85.47912,85.586006,63,60,0
85.586006,85.69589,62,71,0
85.69589,85.805786,63,65,0
85.805786,85.91567,65,73,0
85.91567,86.025566,63,69,0
86.025566,86.13545,62,73,0
86.13545,86.245346,60,73,0
86.245346,86.35523,59,72,0
86.35523,86.465126,56,72,0
86.465126,86.57501,55,71,0
86.57501,86.684906,53,71,0
86.684906,86.7948,51,70,0
86.7948,86.904686,50,70,0
86.904686,87.040146,48,67,0
87.040146,87.14653,50,60,0
87.14653,87.25317,51,60,0
87.25317,87.360054,53,60,0
87.360054,87.46994,55,71,0
87.46994,87.579834,57,65,0
87.579834,87.68972,59,73,0
87.68972,87.799614,60,69,0
87.799614,87.9095,62,73,0
87.9095,88.019394,60,73,0
88.019394,88.12929,59,72,0
88.12929,88.239174,56,72,0
88.239174,88.34907,55,71,0
88.34907,88.458954,53,71,0
88.458954,88.56885,51,70,0
88.56885,88.678734,50,70,0
88.678734,88.81419,48,67,0
88.81419,88.92058,50,60,0
88.92058,89.027214,51,60,0
89.027214,89.1341,53,60,0
89.1341,89.24399,55,71,0
89.24399,89.35388,57,65,0
89.35388,89.463776,59,73,0
89.463776,89.57366,60,69,0
89.57366,89.683556,62,73,0
89.683556,89.79344,60,73,0
89.79344,89.903336,59,72,0
89.903336,90.01322,56,72,0
90.01322,90.123116,55,71,0
90.123116,90.233,53,71,0
90.233,90.342896,51,70,0
90.342896,90.45278,50,70,0
90.45278,90.58824,48,67,0
90.58824,90.694626,50,60,0
90.694626,90.80126,51,60,0
90.80126,90.90815,53,60,0
90.90815,91.01804,55,71,0
91.01804,91.12793,57,65,0
91.12793,91.23782,59,73,0
91.23782,91.34771,60,69,0
91.34771,91.4576,58,73,0
91.4576,91.56749,56,73,0
91.56749,91.67738,55,72,0
91.67738,91.78727,53,72,0
91.78727,91.89716,52,71,0
91.89716,92.00705,50,71,0
92.00705,92.11694,48,70,0
92.11694,92.22683,46,70,0
92.22683,92.36229,44,67,0
92.36229,92.46867,46,60,0
92.46867,92.57531,48,60,0
92.57531,92.6822,50,60,0
92.6822,92.7929,52,71,0
92.7929,92.9036,53,65,0
92.9036,93.0143,55,73,0
93.0143,93.125,56,69,0
93.125,93.2357,55,73,0
93.2357,93.34682,53,73,0
93.34682,93.45847,52,72,0
93.45847,93.57056,50,72,0
93.57056,93.6832,48,71,0
93.6832,93.796265,46,71,0
93.796265,93.9099,44,70,0
93.9099,94.02412,43,70,0
94.02412,94.14176,42,78,0
94.02412,94.14176,30,76,0
96.48141,96.58779,57,69,0
96.58779,96.69456,54,68,0
96.69456,96.801315,51,68,0
96.801315,96.90846,48,67,0
96.90846,97.0156,45,66,0
97.0156,97.12313,42,66,0
97.12313,97.23066,39,65,0
97.23066,97.33857,36,64,0
97.33857,97.44649,33,63,0
97.44649,97.55531,30,60,0
97.55531,97.664406,33,59,0
97.664406,97.77349,36,58,0
97.77349,97.88285,39,57,0
97.88285,97.99234,30,56,0
97.99234,98.10183,33,54,0
98.10183,98.211586,36,53,0
98.211586,98.32147,39,52,0
98.32147,98.431366,30,51,0
98.431366,98.54153,33,47,0
98.54153,98.65182,36,47,0
98.65182,98.762115,39,47,0
98.762115,98.87268,30,52,0
98.87268,98.983376,33,47,0
98.983376,99.09408,36,46,0
99.09408,99.20519,39,46,0
99.20519,99.62078,29,39,0
100.760994,100.86949,41,35,0
100.86949,101.28446,29,40,0
102.42004,102.528946,41,35,0
102.528946,102.945206,29,40,0
103.1521,103.25567,57,38,0
103.25567,103.368454,58,42,0
103.368454,103.47334,60,49,0
103.47334,103.57776,61,42,0
103.57776,103.68192,60,43,0
103.68192,103.78609,58,43,0
103.78609,103.99515,57,47,0
103.99515,104.0998,57,41,0
104.0998,104.21344,58,46,0
104.21344,104.317604,60,53,0
104.317604,104.42177,61,42,0
104.42177,104.52594,60,43,0
104.52594,104.630104,58,43,0
104.630104,104.839165,57,47,0
104.839165,104.94382,57,43,0
104.94382,105.05702,58,47,0
105.05702,105.17607,60,52,0
105.17607,105.29511,61,42,0
105.29511,105.41322,60,43,0
105.41322,105.531334,58,43,0
105.531334,105.65134,57,44,0
105.65134,105.77134,54,42,0
105.77134,105.891335,53,41,0
105.891335,106.01134,51,39,0
106.11772,106.223724,53,32,0
106.223724,106.32936,58,33,0
106.32936,106.43462,53,34,0
106.43462,106.53952,58,38,0
106.53952,106.64405,53,37,0
106.64405,106.748215,58,38,0
106.748215,106.85131,53,38,0
106.85131,106.95487,58,39,0
106.95487,107.05892,53,39,0
107.05892,107.163574,58,38,0
107.163574,107.268715,53,38,0
107.268715,107.37447,58,38,0
107.37447,107.48073,53,37,0
107.48073,107.587616,58,37,0
107.587616,107.69508,53,36,0
106.01134,107.69508,49,44,0
107.80072,107.90648,53,32,0
107.90648,108.01174,58,33,0
108.01174,108.11651,53,34,0
108.11651,108.220924,58,38,0
108.220924,108.324844,53,37,0
108.324844,108.42841,58,38,0
108.42841,108.53139,53,38,0
108.53139,108.63436,58,39,0
108.63436,108.73793,53,39,0
108.73793,108.84198,58,38,0
108.84198,108.94663,53,38,0
108.94663,109.05177,58,38,0
109.05177,109.15753,53,37,0
109.15753,109.26379,58,37,0
109.26379,109.371254,53,36,0
107.69508,109.371254,49,44,0
109.47614,109.58061,54,32,0
109.58061,109.68466,59,33,0
109.68466,109.788345,54,35,0
109.788345,109.89162,59,39,0
109.89162,109.99448,54,39,0
109.99448,110.096985,59,40,0
110.096985,110.19908,54,41,0
110.19908,110.30095,59,42,0
110.30095,110.40357,54,43,0
110.40357,110.50696,59,42,0
110.50696,110.61119,54,42,0
110.61119,110.71621,59,43,0
110.71621,110.82209,54,42,0
110.82209,110.92879,59,45,0
110.92879,111.03489,54,42,0
109.371254,111.03489,51,44,0
111.13846,111.24251,58,46,0
111.24251,111.34716,61,44,0
111.34716,111.4523,58,44,0
111.4523,111.55806,61,43,0
111.55806,111.664314,58,42,0
111.664314,111.77114,61,41,0
111.77114,111.87724,58,40,0
111.03489,111.87724,53,46,0
111.98081,112.084854,53,42,0
112.084854,112.189384,60,41,0
112.189384,112.2944,53,40,0
112.2944,112.39992,60,39,0
112.39992,112.5058,53,38,0
112.5058,112.61237,60,38,0
112.61237,112.719894,53,36,0
111.87724,112.719894,51,42,0
112.719894,112.82479,49,48,0
112.82479,112.92969,65,48,0
113.243034,113.3472,61,40,0
113.3472,113.451004,65,41,0
113.451004,113.554695,61,41,0
113.13887,113.554695,58,58,0
113.6585,113.762665,61,42,0
113.762665,113.867195,65,41,0
113.867195,113.97209,61,41,0
113.554695,113.97209,57,62,0
114.077354,114.18299,61,40,0
114.18299,114.289246,65,40,0
114.289246,114.396774,61,40,0
113.97209,114.396774,58,54,0
114.396774,114.502785,49,49,0
114.502785,114.60841,65,50,0
114.9231,115.02727,61,43,0
115.02727,115.13108,65,45,0
115.13108,115.234406,61,45,0
114.81857,115.234406,58,65,0
115.33774,115.441666,61,47,0
115.441666,115.546074,65,46,0
115.546074,115.651215,61,47,0
115.234406,115.651215,57,70,0
115.75697,115.86323,61,46,0
115.86323,115.970245,65,47,0
115.970245,116.077774,61,46,0
115.651215,116.077774,58,72,0
116.077774,116.18194,51,70,0
116.18194,116.285866,71,55,0
116.18194,116.285866,66,55,0
116.285866,116.389435,63,59,0
116.389435,116.49276,71,55,0
116.389435,116.49276,66,55,0
116.49276,116.59573,63,59,0
116.59573,116.69848,71,55,0
116.59573,116.69848,66,55,0
116.69848,116.800865,63,59,0
116.800865,116.90291,71,56,0
116.800865,116.90291,66,56,0
116.90291,117.00414,63,59,0
117.00414,117.105385,71,55,0
117.00414,117.105385,66,55,0
117.105385,117.20708,63,59,0
117.20708,117.309235,71,55,0
117.20708,117.309235,66,55,0
117.309235,117.41174,63,59,0
117.41174,117.51472,71,55,0
117.41174,117.51472,66,55,0
117.51472,117.61804,63,59,0
117.61804,117.72197,71,56,0
117.61804,117.72197,66,56,0
117.72197,117.82613,65,59,0
117.82613,117.92995,75,55,0
117.82613,117.92995,72,55,0
117.82613,117.92995,69,55,0
117.92995,118.033394,65,59,0
118.033394,118.136604,75,55,0
118.033394,118.136604,72,55,0
118.033394,118.136604,69,55,0
118.136604,118.23946,65,59,0
118.23946,118.34255,75,55,0
118.23946,118.34255,72,55,0
118.23946,118.34255,69,55,0
118.34255,118.44648,65,59,0
118.44648,118.55138,75,56,0
118.44648,118.55138,72,56,0
118.44648,118.55138,69,55,0
118.55138,118.65591,65,59,0
118.65591,118.76044,69,55,0
118.76044,118.86509,65,59,0
118.86509,118.96998,69,55,0
118.96998,119.07512,53,59,0
119.07512,119.18051,65,50,0
119.18051,119.28614,53,57,0
119.28614,119.39203,65,49,0
119.39203,119.615074,46,59,0
119.615074,119.721085,61,44,0
119.615074,119.721085,58,44,0
119.721085,119.82709,65,38,0
119.82709,119.9331,61,44,0
119.82709,119.9331,58,44,0
119.9331,120.0391,65,38,0
120.0391,120.14511,58,44,0
120.0391,120.14511,61,44,0
120.14511,120.251114,65,38,0
120.251114,120.35981,61,44,0
120.251114,120.35981,58,44,0
120.35981,120.468506,65,38,0
120.468506,120.57452,58,44,0
120.468506,120.57452,61,44,0
120.57452,120.68052,64,38,0
120.68052,120.78653,61,44,0
120.68052,120.78653,58,44,0
120.78653,120.89253,64,38,0
120.89253,120.99854,61,44,0
120.89253,120.99854,58,44,0
120.99854,121.10455,64,38,0
121.10455,121.21525,60,44,0
121.10455,121.21525,57,44,0
121.21525,121.32595,64,38,0
121.32595,121.43196,57,44,0
121.32595,121.43196,60,44,0
121.43196,121.537964,65,38,0
121.537964,121.643974,60,44,0
121.537964,121.643974,57,44,0
121.643974,121.74998,65,38,0
121.74998,121.85599,60,44,0
121.74998,121.85599,57,44,0
121.85599,121.96199,65,38,0
121.96199,122.07229,60,44,0
121.96199,122.07229,57,44,0
122.07229,122.18258,65,38,0
122.18258,122.289345,57,44,0
122.18258,122.289345,60,44,0
122.289345,122.3961,65,38,0
122.3961,122.50287,60,44,0
122.3961,122.50287,57,44,0
122.50287,122.60963,65,38,0
122.60963,122.71639,60,44,0
122.60963,122.71639,57,44,0
122.71639,122.82315,65,38,0
122.82315,122.93468,58,44,0
122.82315,122.93468,61,44,0
122.93468,123.046196,65,38,0
123.046196,123.15221,61,58,0
123.046196,123.15221,58,58,0
123.15221,123.25821,65,51,0
123.25821,123.36422,61,58,0
123.25821,123.36422,58,58,0
123.36422,123.47023,65,51,0
123.47023,123.57623,58,58,0
123.47023,123.57623,61,58,0
123.57623,123.68224,65,51,0
123.68224,123.79094,61,58,0
123.68224,123.79094,58,58,0
123.79094,123.899635,65,51,0
123.899635,124.00564,58,58,0
123.899635,124.00564,61,58,0
124.00564,124.11165,64,51,0
124.11165,124.21765,61,58,0
124.11165,124.21765,58,58,0
124.21765,124.32366,64,51,0
124.32366,124.429665,61,58,0
124.32366,124.429665,58,58,0
124.429665,124.535675,64,51,0
124.535675,124.64638,60,58,0
124.535675,124.64638,57,58,0
124.64638,124.75708,64,51,0
124.75708,124.86308,57,58,0
124.75708,124.86308,60,58,0
124.86308,124.96909,65,51,0
124.96909,125.075096,60,58,0
124.96909,125.075096,57,58,0
125.075096,125.18111,65,51,0
125.18111,125.28711,60,58,0
125.18111,125.28711,57,58,0
125.28711,125.39312,65,51,0
125.39312,125.50341,60,58,0
125.39312,125.50341,57,58,0
125.50341,125.61371,65,51,0
125.61371,125.72047,57,58,0
125.61371,125.72047,60,58,0
125.72047,125.82723,65,51,0
125.82723,125.93399,60,58,0
125.82723,125.93399,57,58,0
125.93399,126.04076,65,51,0
126.04076,126.147514,60,58,0
126.04076,126.147514,57,58,0
126.147514,126.25427,65,51,0
126.25427,126.3658,58,58,0
126.25427,126.3658,61,58,0
126.3658,126.477325,65,51,0
126.477325,126.58333,55,44,0
126.477325,126.58333,52,44,0
126.58333,126.68934,60,38,0
126.68934,126.79534,55,44,0
126.68934,126.79534,52,44,0
126.79534,126.90135,60,38,0
126.90135,127.00736,52,44,0
126.90135,127.00736,55,44,0
127.00736,127.113365,60,38,0
127.113365,127.22206,56,44,0
127.113365,127.22206,53,44,0
127.22206,127.33076,60,38,0
127.33076,127.43677,53,44,0
127.33076,127.43677,56,44,0
127.43677,127.54277,62,38,0
127.54277,127.64878,56,44,0
127.54277,127.64878,53,44,0
127.64878,127.75478,62,38,0
127.75478,127.860794,56,44,0
127.75478,127.860794,53,44,0
127.860794,127.9668,62,38,0
127.9668,128.0775,55,44,0
127.9668,128.0775,52,44,0
128.0775,128.1882,62,38,0
128.1882,128.2942,52,44,0
128.1882,128.2942,55,44,0
128.2942,128.40022,60,38,0
128.40022,128.50623,55,44,0
128.40022,128.50623,52,44,0
128.50623,128.61223,60,38,0
128.61223,128.71823,55,44,0
128.61223,128.71823,52,44,0
128.71823,128.82425,60,38,0
128.82425,128.93454,55,44,0
128.82425,128.93454,52,44,0
128.93454,129.04483,60,38,0
129.04483,129.1516,52,44,0
129.04483,129.1516,55,44,0
129.1516,129.25836,60,38,0
129.25836,129.36511,55,44,0
129.25836,129.36511,52,44,0
129.36511,129.47188,60,38,0
129.47188,129.57864,55,44,0
129.47188,129.57864,52,44,0
129.57864,129.6854,60,38,0
129.6854,129.79692,53,44,0
129.6854,129.79692,56,44,0
129.79692,129.90845,60,38,0
129.90845,130.01445,53,58,0
129.90845,130.01445,56,58,0
130.01445,130.12047,60,51,0
130.12047,130.22647,53,58,0
130.12047,130.22647,56,58,0
130.22647,130.33247,60,51,0
130.33247,130.43848,53,58,0
130.33247,130.43848,56,58,0
130.43848,130.5445,60,51,0
130.5445,130.65318,53,58,0
130.5445,130.65318,56,58,0
130.65318,130.76189,60,51,0
130.76189,130.86789,53,58,0
130.76189,130.86789,56,58,0
130.86789,130.97389,62,51,0
130.97389,131.07991,53,58,0
130.97389,131.07991,56,58,0
131.07991,131.18591,62,51,0
131.18591,131.29192,56,58,0
131.18591,131.29192,53,58,0
131.29192,131.39792,62,51,0
131.39792,131.50862,52,58,0
131.39792,131.50862,55,58,0
131.50862,131.61932,62,51,0
131.61932,131.72533,55,58,0
131.61932,131.72533,52,58,0
131.72533,131.83134,60,51,0
131.83134,131.93735,55,58,0
131.83134,131.93735,52,58,0
131.93735,132.04335,60,51,0
132.04335,132.14937,55,58,0
132.04335,132.14937,52,58,0
132.14937,132.25537,60,51,0
132.25537,132.36566,52,58,0
132.25537,132.36566,55,58,0
132.36566,132.47595,60,51,0
132.47595,132.58272,52,58,0
132.47595,132.58272,55,58,0
132.58272,132.68948,60,51,0
132.68948,132.79623,52,58,0
132.68948,132.79623,55,58,0
132.79623,132.903,60,51,0
132.903,133.00977,52,58,0
132.903,133.00977,55,58,0
133.00977,133.11653,60,51,0
133.11653,133.57079,41,61,0
133.11653,133.57079,44,61,0
133.11653,133.57079,48,61,0
133.11653,133.57079,53,72,0
133.67606,133.78131,48,56,0
133.78131,133.88622,53,58,0
133.88622,133.99086,56,60,0
133.99086,134.09503,60,66,0
134.09503,134.19943,61,60,0
134.19943,134.3041,60,61,0
134.3041,134.40898,58,61,0
134.40898,134.51413,56,67,0
134.51413,134.6195,58,60,0
134.6195,134.72514,60,60,0
134.72514,134.83118,56,60,0
134.83118,134.94026,58,72,0
134.94026,135.04622,60,60,0
135.04622,135.15184,58,60,0
135.15184,135.25748,56,60,0
135.25748,135.36275,54,68,0
135.36275,135.468,49,57,0
135.468,135.5729,54,60,0
135.5729,135.67755,58,62,0
135.67755,135.78172,61,69,0
135.78172,135.88612,63,63,0
135.88612,135.99078,61,63,0
135.99078,136.09567,60,63,0
136.09567,136.20082,58,69,0
136.20082,136.3062,60,62,0
136.3062,136.41183,61,62,0
136.41183,136.51772,58,62,0
136.51772,136.62524,60,74,0
136.62524,136.73119,61,62,0
136.73119,136.83682,60,63,0
136.83682,136.94246,58,63,0
136.94246,137.04771,57,70,0
137.04771,137.15298,51,59,0
137.15298,137.25787,57,62,0
137.25787,137.36253,60,65,0
137.36253,137.4667,63,71,0
137.4667,137.5711,65,65,0
137.5711,137.67577,63,65,0
137.67577,137.78065,61,65,0
137.78065,137.88579,60,72,0
137.88579,137.99118,61,64,0
137.99118,138.09682,63,64,0
138.09682,138.2027,60,64,0
138.2027,138.31023,61,70,0
138.31023,138.41617,53,59,0
138.41617,138.5218,58,63,0
138.5218,138.62744,61,66,0
138.62744,138.7327,65,65,0
138.7327,138.83797,66,65,0
138.83797,138.94286,65,65,0
138.94286,139.04752,63,64,0
139.04752,139.15167,61,64,0
139.15167,139.25584,60,64,0
139.25584,139.36002,58,63,0
139.36002,139.46417,56,63,0
139.46417,139.56834,54,62,0
139.56834,139.67252,53,62,0
139.67252,139.77667,51,62,0
139.77667,139.88084,49,61,0
139.88084,139.98502,48,61,0
139.98502,140.08917,46,61,0
140.08917,140.19334,44,60,0
140.19334,140.29752,42,60,0
140.29752,140.40167,41,59,0
140.40167,140.50584,39,59,0
140.50584,140.61002,37,59,0
140.61002,140.71417,36,59,0
140.71417,140.81834,34,59,0
140.81834,140.92252,36,59,0
140.92252,141.02667,37,62,0
141.02667,141.13084,36,64,0
141.13084,141.37878,34,65,0
141.37878,141.70665,35,72,0
141.70665,141.81418,36,89,0
141.9217,142.02924,40,76,0
142.1365,142.24364,36,76,0
142.35078,142.4578,41,76,0
142.56456,142.67133,36,76,0
142.77795,142.88434,43,76,0
142.99072,143.0971,36,76,0
143.20311,143.30913,44,76,0
143.41513,143.52113,36,74,0
143.62714,143.73315,46,74,0
143.83916,143.94516,36,75,0
144.05118,144.15718,44,76,0
144.26318,144.36919,36,77,0
144.4752,144.5812,43,78,0
144.68721,144.79323,36,79,0
144.89923,145.00523,41,80,0
145.11124,145.21614,36,81,0
145.32127,145.42679,40,82,0
145.53255,145.63867,36,82,0
145.7452,145.85194,41,83,0
145.95909,146.06662,36,84,0
146.17453,146.2827,43,85,0
146.39127,146.50023,36,86,0
146.60945,146.71907,44,87,0
146.82924,146.93953,36,88,0
147.05023,147.16121,45,89,0
147.27246,147.38397,36,91,0
147.49591,147.60814,46,92,0
147.72064,147.83342,36,94,0
147.94662,148.06012,47,96,0
148.1739,148.28856,36,99,0
148.41035,148.54796,48,101,0
148.79669,148.90384,49,72,0
148.68558,148.90384,37,86,0
148.68558,148.90384,34,86,0
148.68558,148.90384,42,86,0
148.68558,148.90384,46,102,0
148.90384,149.01097,54,75,0
149.01097,149.11812,58,76,0
149.11812,149.22527,61,90,0
149.22527,149.3324,46,71,0
149.3324,149.43954,49,74,0
149.43954,149.55148,54,76,0
149.55148,149.65863,58,91,0
150.0872,150.19434,58,73,0
150.19434,150.30148,61,76,0
150.30148,150.41385,66,78,0
150.41385,150.5215,70,86,0
152.24405,152.3512,52,72,0
152.13692,152.3512,43,79,0
152.13692,152.3512,36,79,0
152.13692,152.3512,46,94,0
152.13692,152.3512,48,97,0
152.3512,152.45834,55,75,0
152.45834,152.56549,58,76,0
152.67262,152.77977,48,71,0
152.77977,152.88692,55,74,0
152.88692,152.9997,58,76,0
152.9997,153.10684,60,90,0
153.5354,153.64255,60,73,0
153.64255,153.7497,67,76,0
153.7497,153.86205,70,78,0
153.86205,153.96933,72,89,0
155.58192,155.7248,37,58,0
155.7248,155.86765,49,50,0
155.86765,156.0105,52,50,0
156.0105,156.11777,55,50,0
156.11777,156.22607,58,54,0
157.30261,157.44547,40,55,0
157.44547,157.58832,52,47,0
157.58832,157.73117,55,47,0
159.02568,159.16853,43,52,0
159.16853,159.31139,55,44,0
159.31139,159.45424,58,44,0
160.73996,160.88281,46,49,0
160.88281,161.02567,58,41,0
161.02567,161.16853,61,41,0
162.45424,162.66853,49,40,0
162.66853,162.88281,52,36,0
162.88281,163.09709,55,36,0
163.09709,163.31139,58,36,0
168.23994,168.45424,58,38,0
168.45424,168.66852,55,38,0
168.66852,168.88281,52,37,0
168.88281,169.09709,49,36,0
169.09709,169.31137,46,35,0
169.31137,170.16852,43,35,0
170.16852,171.02567,40,36,0
171.02567,171.8828,37,35,0
171.8828,172.73994,34,34,0
172.73994,174.45422,31,34,0
174.45422,175.09709,48,34,0
174.45422,175.09709,52,34,0
174.45422,175.09709,43,34,0
174.45422,175.09709,46,34,0
178.73994,179.3828,48,34,0
178.73994,179.3828,43,34,0
178.73994,179.3828,52,34,0
178.73994,179.3828,46,34,0
174.45422,179.48994,36,34,0
179.48994,179.59708,36,34,0
179.59708,180.01266,29,39,0
179.59708,180.01266,41,39,0
181.26138,181.67834,41,40,0
181.26138,181.67834,29,40,0
181.99265,182.09848,72,51,0
181.99265,182.09848,68,51,0
182.09848,182.51505,72,56,0
182.09848,182.51505,68,56,0
182.51505,182.72331,65,30,0
182.51505,182.72331,68,30,0
182.93636,183.35332,46,40,0
182.93636,183.35332,34,40,0
183.66797,183.77415,70,63,0
183.66797,183.77415,73,63,0
183.77415,184.61203,70,70,0
183.77415,184.61203,73,70,0
184.61203,184.82275,72,51,0
184.61203,184.82275,70,51,0
184.82275,185.03662,36,43,0
184.82275,185.03662,48,43,0
185.24812,185.46277,49,37,0
185.24812,185.46277,37,37,0
185.67513,185.88982,46,39,0
185.67513,185.88982,34,39,0
186.10149,186.31622,48,35,0
186.10149,186.31622,36,35,0
186.31622,186.45082,29,40,0
186.31622,186.45082,41,40,0
186.45082,186.55463,48,37,0
186.55463,186.65808,53,37,0
186.65808,186.76117,56,40,0
186.76117,186.86426,60,38,0
186.86426,186.96748,61,38,0
186.96748,187.07385,60,38,0
187.07385,187.18024,58,40,0
187.18024,187.28662,56,37,0
187.28662,187.393,58,37,0
187.393,187.49939,56,37,0
187.49939,187.60356,55,40,0
187.60356,187.70882,53,37,0
187.70882,187.81384,55,37,0
187.81384,187.92233,56,37,0
187.92233,188.02658,53,37,0
188.02658,188.13081,56,40,0
188.13081,188.23506,48,37,0
188.23506,188.3393,53,37,0
188.3393,188.44353,56,40,0
188.44353,188.54778,60,38,0
188.54778,188.65361,61,38,0
188.65361,188.76038,60,38,0
188.76038,188.86713,58,40,0
188.86713,188.97389,56,37,0
188.97389,189.08066,58,37,0
189.08066,189.18666,56,37,0
189.18666,189.29266,55,40,0
189.29266,189.39868,53,37,0
189.39868,189.50468,55,37,0
189.50468,189.61359,56,37,0
189.61359,189.71783,53,37,0
189.71783,189.82207,58,44,0
189.82207,189.92632,49,40,0
189.92632,190.03055,54,40,0
190.03055,190.13478,58,44,0
190.13478,190.23903,61,41,0
190.23903,190.3452,63,41,0
190.3452,190.45631,61,41,0
190.45631,190.56743,60,44,0
190.56743,190.67854,58,40,0
190.67854,190.78964,60,40,0
190.78964,190.89981,58,40,0
190.89981,191.01038,56,44,0
191.01038,191.1219,54,40,0
191.1219,191.23454,56,40,0
191.23454,191.34732,54,40,0
191.34732,191.45955,53,44,0
191.45955,191.57025,52,40,0
191.57025,191.67975,53,40,0
191.67975,191.78818,55,40,0
191.78818,191.89648,56,44,0
191.89648,192.00517,58,40,0
192.00517,192.11414,56,40,0
192.11414,192.22336,55,40,0
192.22336,192.33286,53,44,0
192.33286,192.44273,52,40,0
192.44273,192.55263,53,40,0
192.55263,192.66252,52,40,0
192.66252,192.77242,49,44,0
192.77242,192.8823,48,37,0
192.8823,192.99219,46,38,0
192.99219,193.10208,44,40,0
193.10208,193.21198,43,40,0
193.21198,193.63094,41,44,0
193.94331,194.052,53,52,0
193.94331,194.052,56,52,0
194.052,194.46855,56,65,0
194.052,194.46855,53,65,0
194.78098,194.8893,53,54,0
194.78098,194.8893,56,54,0
194.8893,195.73903,53,66,0
194.8893,195.73903,56,66,0
194.8893,195.73903,48,66,0
195.73903,195.95294,55,48,0
195.73903,195.95294,48,48,0
195.73903,195.95294,52,48,0
196.58406,197.00061,36,42,0
196.58406,197.00061,48,42,0
197.31302,197.4217,55,60,0
197.31302,197.4217,58,60,0
197.4217,197.83826,58,68,0
197.4217,197.83826,55,68,0
198.15068,198.25899,58,61,0
198.15068,198.25899,55,61,0
198.25899,199.1074,55,58,0
198.25899,199.1074,58,69,0
198.25899,199.1074,53,58,0
199.1074,199.31992,56,52,0
199.1074,199.31992,53,47,0
199.94968,200.36623,53,45,0
199.94968,200.36623,41,45,0
200.67865,200.78734,60,59,0
200.67865,200.78734,63,59,0
200.78734,201.20389,63,68,0
200.78734,201.20389,60,68,0
201.5163,201.62462,63,66,0
201.5163,201.62462,60,66,0
201.62462,202.67683,60,72,0
201.62462,202.67683,63,72,0
201.62462,202.67683,58,72,0
202.67683,202.88782,58,64,0
202.67683,202.88782,61,64,0
202.88782,203.09984,56,61,0
202.88782,203.09984,60,61,0
203.09984,203.31184,55,59,0
203.09984,203.31184,58,59,0
203.31184,203.7284,53,56,0
203.31184,203.7284,56,56,0
203.31184,203.7284,48,56,0
204.04082,204.1506,53,56,0
204.04082,204.1506,56,56,0
204.1506,204.56715,55,63,0
204.1506,204.56715,58,63,0
204.1506,204.56715,48,63,0
204.87956,204.98935,52,53,0
204.87956,204.98935,55,53,0
204.98935,205.09349,53,56,0
205.09349,205.19762,60,49,0
205.19762,205.30176,56,49,0
205.30176,205.4059,53,49,0
205.4059,205.51004,48,53,0
205.51004,205.61417,56,49,0
205.61417,205.7183,53,49,0
205.7183,205.82741,48,49,0
205.82741,205.93153,44,53,0
205.93153,206.03568,53,49,0
206.03568,206.13982,48,49,0
206.13982,206.24396,44,49,0
206.24396,206.34808,41,53,0
206.34808,206.45222,48,49,0
206.45222,206.55637,44,49,0
206.55637,206.66463,41,49,0
206.66463,206.76917,36,53,0
206.76917,206.87369,41,49,0
206.87369,206.97823,44,49,0
206.97823,207.08275,48,49,0
207.08275,207.18729,47,53,0
207.18729,207.29181,48,49,0
207.29181,207.39633,47,49,0
207.39633,207.50087,48,49,0
207.50087,207.6054,47,53,0
207.6054,207.70993,48,49,0
207.70993,207.81445,43,49,0
207.81445,207.91899,48,49,0
207.91899,208.02351,40,53,0
208.02351,208.12805,48,49,0
208.12805,208.23257,43,49,0
208.23257,208.3371,48,49,0
208.3371,208.44124,36,56,0
208.44124,208.54538,40,49,0
208.54538,208.64952,43,49,0
208.64952,208.75366,48,49,0
208.75366,208.85779,40,53,0
208.85779,208.96193,43,49,0
208.96193,209.06607,48,49,0
209.06607,209.17516,52,49,0
209.17516,209.2793,43,53,0
209.2793,209.38344,48,49,0
209.38344,209.48758,52,49,0
209.48758,209.5917,55,49,0
209.5917,209.69585,48,53,0
209.69585,209.79999,52,49,0
209.79999,209.90413,55,49,0
209.90413,210.01239,60,49,0
210.01239,210.11691,53,59,0
210.11691,210.22145,56,49,0
210.22145,210.32597,60,49,0
210.32597,210.43051,65,49,0
210.43051,210.53503,64,53,0
210.53503,210.63957,65,49,0
210.63957,210.7441,64,49,0
210.7441,210.84862,65,49,0
210.84862,210.95316,64,53,0
210.95316,211.05768,65,49,0
211.05768,211.16222,60,49,0
211.16222,211.26674,65,49,0
211.26674,211.37128,56,53,0
211.37128,211.4758,65,49,0
211.4758,211.58034,60,49,0
211.58034,211.68486,65,49,0
211.68486,211.789,53,61,0
211.789,211.89314,57,53,0
211.89314,211.99727,60,53,0
211.99727,212.10141,65,53,0
212.10141,212.20555,57,58,0
212.20555,212.3097,60,53,0
212.3097,212.41382,65,53,0
212.41382,212.52292,69,53,0
212.52292,212.62706,60,58,0
212.62706,212.73119,65,53,0
212.73119,212.83533,69,53,0
212.83533,212.93947,72,53,0
212.93947,213.04361,65,58,0
213.04361,213.14774,69,53,0
213.14774,213.25188,72,53,0
213.25188,213.36014,77,53,0
213.36014,213.46468,69,67,0
213.46468,213.5692,77,53,0
213.5692,213.67374,76,53,0
213.67374,213.77826,77,53,0
213.77826,213.8828,69,58,0
213.8828,213.98732,77,53,0
213.98732,214.09186,69,53,0
214.09186,214.19638,77,53,0
214.19638,214.30092,69,57,0
214.30092,214.40544,77,56,0
214.40544,214.5107,70,56,0
214.5107,214.61597,77,55,0
214.61597,214.72124,72,54,0
214.72124,214.82649,77,53,0
214.82649,214.93176,73,52,0
214.93176,215.03702,77,52,0
215.03702,215.14116,60,52,0
215.14116,215.2453,65,47,0
215.2453,215.34943,68,47,0
215.34943,215.45357,72,47,0
215.45357,215.55771,71,52,0
215.55771,215.66185,72,47,0
215.66185,215.76599,71,47,0
215.76599,215.87076,72,47,0
215.87076,215.97488,60,52,0
215.97488,216.07903,64,47,0
216.07903,216.18317,67,47,0
216.18317,216.28731,72,47,0
216.28731,216.39145,60,52,0
216.39145,216.49557,67,47,0
216.49557,216.59972,70,47,0
216.59972,216.70996,72,47,0
216.70996,216.81485,53,52,0
216.81485,216.91931,68,38,0
216.81485,216.91931,65,38,0
216.91931,217.02336,72,39,0
216.91931,217.02336,60,39,0
217.02336,217.12704,65,41,0
217.02336,217.12704,68,41,0
217.12704,217.23032,60,45,0
217.12704,217.23032,72,45,0
217.23032,217.33318,68,44,0
217.23032,217.33318,65,44,0
217.33318,217.43568,60,45,0
217.33318,217.43568,72,45,0
217.43568,217.53778,68,45,0
217.43568,217.53778,65,45,0
217.53778,217.63965,72,46,0
217.53778,217.63965,60,46,0
217.63965,217.74228,68,46,0
217.63965,217.74228,65,46,0
217.74228,217.84566,72,45,0
217.74228,217.84566,60,45,0
217.84566,217.94989,65,45,0
217.84566,217.94989,68,45,0
217.94989,218.05492,60,45,0
217.94989,218.05492,72,45,0
218.05492,218.1608,68,44,0
218.05492,218.1608,65,44,0
218.1608,218.26749,60,44,0
218.1608,218.26749,72,44,0
218.26749,218.37502,68,43,0
218.26749,218.37502,65,43,0
218.37502,218.51022,53,54,0
218.51022,218.61568,68,38,0
218.51022,218.61568,65,38,0
218.61568,218.72064,60,39,0
218.61568,218.72064,72,39,0
218.72064,218.82504,68,41,0
218.72064,218.82504,65,41,0
218.82504,218.92897,60,45,0
218.82504,218.92897,72,45,0
218.92897,219.03242,68,44,0
218.92897,219.03242,65,44,0
219.03242,219.13539,60,45,0
219.03242,219.13539,72,45,0
219.13539,219.2379,65,45,0
219.13539,219.2379,68,45,0
219.2379,219.34041,72,46,0
219.2379,219.34041,60,46,0
219.34041,219.44344,68,46,0
219.34041,219.44344,65,46,0
219.44344,219.54707,60,45,0
219.44344,219.54707,72,45,0
219.54707,219.65135,68,45,0
219.54707,219.65135,65,45,0
219.65135,219.75626,72,45,0
219.65135,219.75626,60,45,0
219.75626,219.86176,65,44,0
219.75626,219.86176,68,44,0
219.86176,219.96796,60,44,0
219.86176,219.96796,72,44,0
219.96796,220.0749,65,43,0
219.96796,220.0749,68,43,0
220.0749,220.21043,44,55,0
220.21043,220.31589,56,40,0
220.21043,220.31589,54,40,0
220.31589,220.42078,51,41,0
220.31589,220.42078,60,41,0
220.42078,220.52513,56,43,0
220.42078,220.52513,54,43,0
220.52513,220.62888,51,47,0
220.52513,220.62888,60,47,0
220.62888,220.73209,56,46,0
220.62888,220.73209,54,46,0
220.73209,220.83472,51,47,0
220.73209,220.83472,60,47,0
220.83472,220.93681,54,48,0
220.83472,220.93681,56,48,0
220.93681,221.03868,60,49,0
220.93681,221.03868,51,49,0
221.03868,221.14119,54,49,0
221.03868,221.14119,56,49,0
221.14119,221.24434,60,48,0
221.14119,221.24434,51,48,0
221.24434,221.34808,56,47,0
221.24434,221.34808,54,47,0
221.34808,221.45248,51,47,0
221.34808,221.45248,60,47,0
221.45248,221.55757,56,46,0
221.45248,221.55757,54,46,0
221.55757,221.66333,51,46,0
221.55757,221.66333,60,46,0
221.66333,221.76997,54,45,0
221.66333,221.76997,56,45,0
221.76997,221.90506,44,54,0
221.90506,222.01013,56,40,0
221.90506,222.01013,54,40,0
222.01013,222.11473,51,41,0
222.01013,222.11473,60,41,0
222.11473,222.21877,56,43,0
222.11473,222.21877,54,43,0
222.21877,222.32234,51,47,0
222.21877,222.32234,60,47,0
222.32234,222.42543,56,46,0
222.32234,222.42543,54,46,0
222.42543,222.52806,60,47,0
222.42543,222.52806,51,47,0
222.52806,222.63022,54,48,0
222.52806,222.63022,56,48,0
222.63022,222.73209,51,49,0
222.63022,222.73209,60,49,0
222.73209,222.83464,56,49,0
222.73209,222.83464,54,49,0
222.83464,222.93791,51,48,0
222.83464,222.93791,60,48,0
222.93791,223.04196,54,47,0
222.93791,223.04196,56,47,0
223.04196,223.14679,60,47,0
223.04196,223.14679,51,47,0
223.14679,223.25237,56,46,0
223.14679,223.25237,54,46,0
223.25237,223.35869,60,46,0
223.25237,223.35869,51,46,0
223.35869,223.4659,54,45,0
223.35869,223.4659,56,45,0
223.4659,223.60098,49,56,0
223.60098,223.70607,65,42,0
223.60098,223.70607,61,42,0
223.70607,223.81065,56,43,0
223.70607,223.81065,68,43,0
223.81065,223.9147,61,45,0
223.81065,223.9147,65,45,0
223.9147,224.01826,68,49,0
223.9147,224.01826,56,49,0
224.01826,224.12137,65,48,0
224.01826,224.12137,61,48,0
224.12137,224.22398,56,49,0
224.12137,224.22398,68,49,0
224.22398,224.32614,65,50,0
224.22398,224.32614,61,50,0
224.32614,224.42801,56,51,0
224.32614,224.42801,68,51,0
224.42801,224.53058,65,51,0
224.42801,224.53058,61,51,0
224.53058,224.63385,68,50,0
224.53058,224.63385,56,50,0
224.63385,224.73788,61,49,0
224.63385,224.73788,65,49,0
224.73788,224.84273,56,49,0
224.73788,224.84273,68,49,0
224.84273,224.9483,65,48,0
224.84273,224.9483,61,48,0
224.9483,225.05461,56,48,0
224.9483,225.05461,68,48,0
225.05461,225.16182,65,47,0
225.05461,225.16182,61,47,0
225.16182,225.29692,49,56,0
225.29692,225.402,65,42,0
225.29692,225.402,61,42,0
225.402,225.50658,56,43,0
225.402,225.50658,68,43,0
225.50658,225.61063,65,45,0
225.50658,225.61063,61,45,0
225.61063,225.81729,68,49,0
225.81729,226.02206,73,55,0
226.02206,226.2265,77,58,0
226.2265,226.43382,80,62,0
226.43382,226.64423,85,66,0
226.64423,226.85776,85,69,0
226.85776,227.48933,82,80,0
226.85776,227.48933,85,80,0
227.48933,227.70517,84,66,0
227.48933,227.70517,80,66,0
227.70517,228.13683,82,68,0
227.70517,228.13683,79,68,0
228.13683,228.56848,80,64,0
228.13683,228.56848,84,64,0
228.56848,229.20006,85,80,0
228.56848,229.20006,82,80,0
229.20006,229.41588,80,66,0
229.20006,229.41588,84,66,0
229.41588,229.84753,82,68,0
229.41588,229.84753,79,68,0
229.84753,230.27919,84,64,0
229.84753,230.27919,80,64,0
230.27919,230.91077,82,80,0
230.27919,230.91077,85,80,0
230.91077,231.1266,80,66,0
230.91077,231.1266,84,66,0
231.1266,231.55826,82,68,0
231.1266,231.55826,79,68,0
231.55826,231.98991,77,65,0
231.55826,231.98991,80,65,0
231.98991,232.42157,79,70,0
231.98991,232.42157,76,70,0
232.42157,232.85321,74,70,0
232.42157,232.85321,77,70,0
232.85321,233.28487,73,75,0
232.85321,233.28487,77,75,0
233.28487,233.71652,77,75,0
233.28487,233.71652,72,75,0
234.14818,234.57983,74,75,0
233.71652,234.57983,71,76,0
234.57983,235.01149,68,72,0
235.01149,235.44315,67,68,0
234.57983,235.44315,72,72,0
234.57983,235.44315,60,72,0
235.44315,236.07472,49,61,0
235.44315,236.07472,54,72,0
235.44315,236.07472,46,61,0
236.07472,236.29056,48,50,0
236.07472,236.29056,53,59,0
236.07472,236.29056,44,50,0
236.29056,236.72221,43,51,0
236.29056,236.72221,46,51,0
236.29056,236.72221,52,61,0
236.72221,237.15387,53,57,0
236.72221,237.15387,44,48,0
236.72221,237.15387,48,48,0
237.15387,237.78545,46,61,0
237.15387,237.78545,49,61,0
237.15387,237.78545,54,72,0
237.78545,238.00127,44,50,0
237.78545,238.00127,53,59,0
237.78545,238.00127,48,50,0
238.00127,238.43292,43,51,0
238.00127,238.43292,46,54,0
238.00127,238.43292,52,65,0
238.43292,238.86458,48,48,0
238.43292,238.86458,53,57,0
238.43292,238.86458,44,48,0
238.86458,239.49615,49,61,0
238.86458,239.49615,54,72,0
238.86458,239.49615,46,61,0
239.49615,239.71199,53,59,0
239.49615,239.71199,48,50,0
239.49615,239.71199,44,50,0
239.71199,240.14365,43,51,0
239.71199,240.14365,46,61,0
239.71199,240.14365,52,61,0
240.14365,240.56767,44,49,0
240.14365,240.56767,49,58,0
240.14365,240.56767,41,49,0
240.56767,240.99777,43,53,0
240.56767,240.99777,48,63,0
240.56767,240.99777,40,53,0
240.99777,241.42789,41,53,0
240.99777,241.42789,47,63,0
240.99777,241.42789,38,53,0
240.99777,241.42789,44,53,0
241.42789,241.85342,43,56,0
241.42789,241.85342,40,56,0
241.42789,241.85342,46,67,0
241.85342,242.27895,41,67,0
241.85342,242.27895,44,67,0
242.27895,242.70752,44,66,0
242.70752,243.1361,42,64,0
242.27895,243.1361,35,66,0
243.1361,243.56467,41,61,0
243.56467,243.99324,40,59,0
243.1361,243.99324,36,61,0
243.99324,244.20525,41,70,0
243.99324,244.20525,29,59,0
243.99324,244.20525,32,59,0
243.99324,244.20525,36,59,0
244.52177,244.62704,48,59,0
244.62704,244.73193,53,62,0
244.73193,244.8366,56,64,0
244.8366,244.94077,60,70,0
244.94077,245.04517,61,64,0
245.04517,245.14981,60,64,0
245.14981,245.25471,58,64,0
245.25471,245.35985,56,70,0
245.35985,245.46524,55,63,0
245.46524,245.57088,53,63,0
245.57088,245.67676,51,63,0
245.67676,245.78288,49,67,0
245.78288,245.88927,48,60,0
245.88927,245.99591,46,60,0
245.99591,246.1028,44,60,0
246.1028,246.21269,43,71,0
246.21269,246.32257,44,65,0
246.32257,246.43246,46,73,0
246.43246,246.54236,44,69,0
246.54236,246.65225,43,73,0
246.65225,246.76213,41,73,0
246.76213,246.87202,40,72,0
246.87202,246.98192,38,72,0
246.98192,247.09181,36,71,0
247.09181,247.20169,34,71,0
247.20169,247.31158,32,70,0
247.31158,247.42148,31,70,0
247.42148,247.63348,32,70,0
247.42148,247.63348,29,70,0
247.42148,247.63348,36,70,0
247.42148,247.63348,41,70,0
247.95003,248.05528,60,59,0
248.05528,248.16017,65,62,0
248.16017,248.26483,68,64,0
248.26483,248.369,72,70,0
248.369,248.4734,73,64,0
248.4734,248.57806,72,64,0
248.57806,248.68295,70,64,0
248.68295,248.78809,68,70,0
248.78809,248.89348,67,63,0
248.89348,248.99911,65,63,0
248.99911,249.105,63,63,0
249.105,249.21114,61,67,0
249.21114,249.3175,60,60,0
249.3175,249.42415,58,60,0
249.42415,249.53104,56,60,0
249.53104,249.64093,55,71,0
249.64093,249.75081,56,65,0
249.75081,249.8607,58,73,0
249.8607,249.9706,56,69,0
249.9706,250.08049,55,73,0
250.08049,250.19037,53,73,0
250.19037,250.30026,52,72,0
250.30026,250.41016,50,72,0
250.41016,250.52005,48,71,0
250.52005,250.62993,46,71,0
250.62993,250.73982,44,70,0
250.73982,250.84972,43,70,0
250.84972,250.98518,41,67,0
250.98518,251.09155,43,60,0
251.09155,251.1982,44,60,0
251.1982,251.30508,46,60,0
251.30508,251.41498,48,71,0
251.41498,251.52486,50,65,0
251.52486,251.63475,52,73,0
251.63475,251.74464,53,69,0
251.74464,251.85454,55,73,0
251.85454,251.96442,53,73,0
251.96442,252.07431,52,72,0
252.07431,252.1842,50,72,0
252.1842,252.2941,48,71,0
252.2941,252.40398,46,71,0
252.40398,252.51387,44,70,0
252.51387,252.62376,43,70,0
252.62376,252.75923,41,67,0
252.75923,252.8656,43,60,0
252.8656,252.97224,44,60,0
252.97224,253.07913,46,60,0
253.07913,253.18903,48,71,0
253.18903,253.2989,50,65,0
253.2989,253.4088,52,73,0
253.4088,253.51869,53,69,0
253.51869,253.62859,55,73,0
253.62859,253.73846,53,73,0
253.73846,253.84836,52,72,0
253.84836,253.95825,50,72,0
253.95825,254.06815,48,71,0
254.06815,254.17802,46,71,0
254.17802,254.28792,44,70,0
254.28792,254.39781,43,70,0
254.39781,254.53328,41,67,0
254.53328,254.63965,40,60,0
254.63965,254.74629,38,60,0
254.74629,254.85318,36,60,0
254.85318,254.96307,34,64,0
254.96307,255.07295,32,59,0
255.07295,255.18285,31,65,0
255.18285,255.29274,29,58,0
255.29274,255.40263,31,68,0
255.40263,255.51251,32,69,0
255.51251,255.6224,34,71,0
255.6224,255.7323,36,72,0
255.7323,255.8422,38,74,0
255.8422,255.95207,40,75,0
255.95207,256.06198,41,77,0
256.06198,256.17184,43,78,0
256.17184,256.28952,42,78,0
256.17184,256.28952,30,76,0
258.62915,258.73553,57,69,0
258.73553,258.84232,54,68,0
258.84232,258.94907,51,68,0
258.94907,259.0562,48,67,0
259.0562,259.16336,45,66,0
259.16336,259.27087,42,66,0
259.27087,259.3784,39,65,0
259.3784,259.48633,36,64,0
259.48633,259.59424,33,63,0
259.59424,259.70306,30,60,0
259.70306,259.81213,39,59,0
259.81213,259.92123,36,58,0
259.92123,260.0306,33,57,0
260.0306,260.14008,30,56,0
260.14008,260.24957,39,54,0
260.24957,260.35934,36,53,0
260.35934,260.4692,33,52,0
260.4692,260.5791,30,51,0
260.5791,260.68927,39,47,0
260.68927,260.79956,36,47,0
260.79956,260.90985,33,43,0
260.90985,261.02042,30,47,0
261.02042,261.13113,39,41,0
261.13113,261.24182,36,39,0
261.24182,261.35294,33,38,0
261.35294,261.76852,29,39,0
262.90875,263.01724,41,35,0
263.01724,263.43222,29,40,0
264.56778,264.6767,41,35,0
264.6767,265.09296,29,40,0
265.29984,265.4034,57,38,0
265.4034,265.5162,58,42,0
265.5162,265.6211,60,49,0
265.6211,265.7255,61,42,0
265.7255,265.82968,60,43,0
265.82968,265.93384,58,43,0
265.93384,266.14288,57,47,0
266.14288,266.24756,57,41,0
266.24756,266.36118,58,46,0
266.36118,266.46536,60,53,0
266.46536,266.56952,61,42,0
266.56952,266.67368,60,43,0
266.67368,266.77786,58,43,0
266.77786,266.9869,57,47,0
266.9869,267.09155,57,43,0
267.09155,267.20477,58,47,0
267.20477,267.32104,60,52,0
267.32104,267.43732,61,42,0
267.43732,267.55542,60,43,0
267.55542,267.67355,58,43,0
267.67355,267.79355,57,44,0
267.79355,267.91354,54,42,0
267.91354,268.03354,53,41,0
268.03354,268.15353,51,39,0
268.25845,268.3629,53,32,0
268.3629,268.46695,58,33,0
268.46695,268.57065,53,34,0
268.57065,268.67392,58,38,0
268.67392,268.77676,53,37,0
268.77676,268.87927,58,38,0
268.87927,268.98138,53,38,0
268.98138,269.08325,58,39,0
269.08325,269.18585,53,39,0
269.18585,269.28925,58,38,0
269.28925,269.3935,53,38,0
269.3935,269.4985,58,38,0
269.4985,269.60437,53,37,0
269.60437,269.7111,58,37,0
269.7111,269.8186,53,36,0
268.15353,269.8186,49,44,0
269.9235,270.02798,53,32,0
270.02798,270.13202,58,33,0
270.13202,270.23572,53,34,0
270.23572,270.339,58,38,0
270.339,270.44183,53,37,0
270.44183,270.54434,58,38,0
270.54434,270.64645,53,38,0
270.64645,270.74832,58,39,0
270.74832,270.85092,53,39,0
270.85092,270.9543,58,38,0
270.9543,271.05856,53,38,0
271.05856,271.16357,58,38,0
271.16357,271.26944,53,37,0
271.26944,271.37616,58,37,0
271.37616,271.48367,53,36,0
269.8186,271.48367,49,44,0
271.58856,271.69305,54,32,0
271.69305,271.7971,59,33,0
271.7971,271.9008,54,35,0
271.9008,272.00406,59,39,0
272.00406,272.1069,54,39,0
272.1069,272.2094,59,40,0
272.2094,272.3115,54,41,0
272.3115,272.41336,59,42,0
272.41336,272.516,54,43,0
272.516,272.6194,59,42,0
272.6194,272.7236,54,42,0
272.7236,272.82864,59,43,0
272.82864,272.9345,54,42,0
272.9345,273.04123,59,45,0
273.04123,273.14874,54,42,0
271.48367,273.14874,51,44,0
273.2508,273.35318,58,46,0
273.35318,273.4559,61,44,0
273.4559,273.559,58,44,0
273.559,273.66245,61,43,0
273.66245,273.76627,58,42,0
273.76627,273.87042,61,41,0
273.87042,273.9756,58,40,0
273.14874,273.9756,53,46,0
274.07727,274.17944,53,42,0
274.17944,274.28204,60,41,0
274.28204,274.38504,53,40,0
274.38504,274.4886,60,39,0
274.4886,274.59253,53,38,0
274.59253,274.69693,60,38,0
274.69693,274.8024,53,36,0
273.9756,274.8024,51,42,0
274.8024,274.9073,49,48,0
274.9073,275.01218,65,48,0
275.32553,275.4297,61,40,0
275.4297,275.5335,65,41,0
275.5335,275.63718,61,41,0
275.22137,275.63718,58,58,0
275.741,275.84515,61,42,0
275.84515,275.9497,65,42,0
275.9497,276.0546,61,42,0
275.63718,276.0546,57,63,0
276.15985,276.26547,61,41,0
276.26547,276.37173,65,41,0
276.37173,276.47928,61,41,0
276.0546,276.47928,58,55,0
276.47928,276.58527,49,51,0
276.58527,276.69092,65,52,0
277.00558,277.10977,61,45,0
277.10977,277.21356,65,47,0
277.21356,277.3169,61,48,0
276.90106,277.3169,58,68,0
277.42023,277.52417,61,50,0
277.52417,277.62857,65,49,0
277.62857,277.7337,61,50,0
277.3169,277.7337,57,74,0
277.83948,277.9457,61,50,0
277.9457,278.05273,65,51,0
278.05273,278.16028,61,50,0
277.7337,278.16028,58,77,0
278.16028,278.26443,51,70,0
278.26443,278.36835,71,55,0
278.26443,278.36835,66,55,0
278.36835,278.47192,63,59,0
278.47192,278.57526,71,55,0
278.47192,278.57526,66,55,0
278.57526,278.67822,63,59,0
278.67822,278.78098,71,55,0
278.67822,278.78098,66,55,0
278.78098,278.88336,63,59,0
278.88336,278.9854,71,56,0
278.88336,278.9854,66,56,0
278.9854,279.08664,63,59,0
279.08664,279.18787,71,55,0
279.08664,279.18787,66,55,0
279.18787,279.28958,63,59,0
279.28958,279.39172,71,55,0
279.28958,279.39172,66,55,0
279.39172,279.49423,63,59,0
279.49423,279.5972,71,55,0
279.49423,279.5972,66,55,0
279.5972,279.70053,63,59,0
279.70053,279.80447,71,56,0
279.70053,279.80447,66,56,0
279.80447,279.90863,65,59,0
279.90863,280.01245,75,55,0
279.90863,280.01245,72,55,0
279.90863,280.01245,69,55,0
280.01245,280.11588,65,59,0
280.11588,280.2191,75,55,0
280.11588,280.2191,72,55,0
280.11588,280.2191,69,55,0
280.2191,280.32196,65,59,0
280.32196,280.42505,75,55,0
280.32196,280.42505,72,55,0
280.32196,280.42505,69,55,0
280.42505,280.52896,65,59,0
280.52896,280.63388,75,56,0
280.52896,280.63388,72,56,0
280.52896,280.63388,69,55,0
280.63388,280.7384,65,59,0
280.7384,280.84293,69,55,0
280.84293,280.94757,65,59,0
280.94757,281.0525,69,55,0
281.0525,281.15762,53,59,0
281.15762,281.263,65,50,0
281.263,281.36865,53,57,0
281.36865,281.47452,65,49,0
281.47452,281.70267,46,59,0
281.70267,281.80865,61,44,0
281.70267,281.80865,58,44,0
281.80865,281.91467,65,38,0
281.91467,282.0207,61,44,0
281.91467,282.0207,58,44,0
282.0207,282.12668,65,38,0
282.12668,282.2327,58,44,0
282.12668,282.2327,61,44,0
282.2327,282.3387,65,38,0
282.3387,282.4474,61,44,0
282.3387,282.4474,58,44,0
282.4474,282.5561,65,38,0
282.5561,282.6621,58,44,0
282.5561,282.6621,61,44,0
282.6621,282.7681,64,38,0
282.7681,282.8741,61,44,0
282.7681,282.8741,58,44,0
282.8741,282.98013,64,38,0
282.98013,283.08612,61,44,0
282.98013,283.08612,58,44,0
283.08612,283.19214,64,38,0
283.19214,283.30283,60,44,0
283.19214,283.30283,57,44,0
283.30283,283.41354,64,38,0
283.41354,283.51953,57,44,0
283.41354,283.51953,60,44,0
283.51953,283.62555,65,38,0
283.62555,283.73157,60,44,0
283.62555,283.73157,57,44,0
283.73157,283.83755,65,38,0
283.83755,283.94357,60,44,0
283.83755,283.94357,57,44,0
283.94357,284.0496,65,38,0
284.0496,284.15988,60,44,0
284.0496,284.15988,57,44,0
284.15988,284.27017,65,38,0
284.27017,284.37692,57,44,0
284.27017,284.37692,60,44,0
284.37692,284.4837,65,38,0
284.4837,284.59045,60,44,0
284.4837,284.59045,57,44,0
284.59045,284.6972,65,38,0
284.6972,284.804,60,44,0
284.6972,284.804,57,44,0
284.804,284.91074,65,38,0
284.91074,285.02225,58,44,0
284.91074,285.02225,61,44,0
285.02225,285.1338,65,38,0
285.1338,285.23978,61,58,0
285.1338,285.23978,58,58,0
285.23978,285.3458,65,51,0
285.3458,285.45068,61,58,0
285.3458,285.45068,58,58,0
285.45068,285.55557,65,51,0
285.55557,285.6605,58,58,0
285.55557,285.6605,61,58,0
285.6605,285.76538,65,51,0
285.76538,285.87408,61,58,0
285.76538,285.87408,58,58,0
285.87408,285.98276,65,51,0
285.98276,286.08878,58,58,0
285.98276,286.08878,61,58,0
286.08878,286.1948,64,51,0
286.1948,286.30005,61,58,0
286.1948,286.30005,58,58,0
286.30005,286.4053,64,51,0
286.4053,286.51056,61,58,0
286.4053,286.51056,58,58,0
286.51056,286.61584,64,51,0
286.61584,286.72653,60,58,0
286.61584,286.72653,57,58,0
286.72653,286.83725,64,51,0
286.83725,286.94324,57,58,0
286.83725,286.94324,60,58,0
286.94324,287.04926,65,51,0
287.04926,287.15527,60,58,0
287.04926,287.15527,57,58,0
287.15527,287.26126,65,51,0
287.26126,287.36728,60,58,0
287.26126,287.36728,57,58,0
287.36728,287.47327,65,51,0
287.47327,287.5836,60,58,0
287.47327,287.5836,57,58,0
287.5836,287.69388,65,51,0
287.69388,287.80063,57,58,0
287.69388,287.80063,60,58,0
287.80063,287.90738,65,51,0
287.90738,288.01416,60,58,0
287.90738,288.01416,57,58,0
288.01416,288.1209,65,51,0
288.1209,288.22766,60,58,0
288.1209,288.22766,57,58,0
288.22766,288.33444,65,51,0
288.33444,288.44595,58,58,0
288.33444,288.44595,61,58,0
288.44595,288.5575,65,51,0
288.5575,288.66348,55,44,0
288.5575,288.66348,52,44,0
288.66348,288.7695,60,38,0
288.7695,288.87476,55,44,0
288.7695,288.87476,52,44,0
288.87476,288.98,60,38,0
288.98,289.0853,52,44,0
288.98,289.0853,55,44,0
289.0853,289.19055,60,38,0
289.19055,289.29926,56,44,0
289.19055,289.29926,53,44,0
289.29926,289.40793,60,38,0
289.40793,289.51395,53,44,0
289.40793,289.51395,56,44,0
289.51395,289.61996,62,38,0
289.61996,289.72485,56,44,0
289.61996,289.72485,53,44,0
289.72485,289.82974,62,38,0
289.82974,289.93463,56,44,0
289.82974,289.93463,53,44,0
289.93463,290.03955,62,38,0
290.03955,290.15024,55,44,0
290.03955,290.15024,52,44,0
290.15024,290.26093,62,38,0
290.26093,290.36694,52,44,0
290.26093,290.36694,55,44,0
290.36694,290.47296,60,38,0
290.47296,290.57895,55,44,0
290.47296,290.57895,52,44,0
290.57895,290.68497,60,38,0
290.68497,290.791,55,44,0
290.68497,290.791,52,44,0
290.791,290.89697,60,38,0
290.89697,291.00726,55,44,0
290.89697,291.00726,52,44,0
291.00726,291.11758,60,38,0
291.11758,291.22433,52,44,0
291.11758,291.22433,55,44,0
291.22433,291.3311,60,38,0
291.3311,291.43787,55,44,0
291.3311,291.43787,52,44,0
291.43787,291.54462,60,38,0
291.54462,291.65137,55,44,0
291.54462,291.65137,52,44,0
291.65137,291.75815,60,38,0
291.75815,291.86966,53,44,0
291.75815,291.86966,56,44,0
291.86966,291.9812,60,38,0
291.9812,292.0872,56,58,0
291.9812,292.0872,53,58,0
292.0872,292.1932,60,51,0
292.1932,292.29846,56,58,0
292.1932,292.29846,53,58,0
292.29846,292.40372,60,51,0
292.40372,292.509,53,58,0
292.40372,292.509,56,58,0
292.509,292.61426,60,51,0
292.61426,292.72296,56,58,0
292.61426,292.72296,53,58,0
292.72296,292.83163,60,51,0
292.83163,292.93765,53,58,0
292.83163,292.93765,56,58,0
292.93765,293.04367,62,51,0
293.04367,293.14893,56,58,0
293.04367,293.14893,53,58,0
293.14893,293.25418,62,51,0
293.25418,293.35944,56,58,0
293.25418,293.35944,53,58,0
293.35944,293.46472,62,51,0
293.46472,293.5754,55,58,0
293.46472,293.5754,52,58,0
293.5754,293.68613,62,51,0
293.68613,293.7921,52,58,0
293.68613,293.7921,55,58,0
293.7921,293.89813,60,51,0
293.89813,294.00302,55,58,0
293.89813,294.00302,52,58,0
294.00302,294.1079,60,51,0
294.1079,294.2128,55,58,0
294.1079,294.2128,52,58,0
294.2128,294.31772,60,51,0
294.31772,294.428,55,58,0
294.31772,294.428,52,58,0
294.428,294.5383,60,51,0
294.5383,294.64505,52,58,0
294.5383,294.64505,55,58,0
294.64505,294.75183,60,51,0
294.75183,294.85858,55,58,0
294.75183,294.85858,52,58,0
294.85858,294.96533,60,51,0
294.96533,295.0721,55,58,0
294.96533,295.0721,52,58,0
295.0721,295.17886,60,51,0
295.17886,295.63312,53,72,0
295.17886,295.63312,41,61,0
295.17886,295.63312,44,61,0
295.17886,295.63312,48,61,0
295.7384,295.84366,48,56,0
295.84366,295.94855,53,58,0
295.94855,296.0532,56,60,0
296.0532,296.15738,60,66,0
296.15738,296.26178,61,60,0
296.26178,296.36642,60,61,0
296.36642,296.4713,58,61,0
296.4713,296.57648,56,67,0
296.57648,296.68185,58,60,0
296.68185,296.78748,60,60,0
296.78748,296.89352,56,60,0
296.89352,297.0026,58,72,0
297.0026,297.1075,60,60,0
297.1075,297.21228,58,60,0
297.21228,297.3168,56,60,0
297.3168,297.42108,54,68,0
297.42108,297.52527,49,57,0
297.52527,297.62906,54,60,0
297.62906,297.73288,58,62,0
297.73288,297.83704,61,69,0
297.83704,297.94144,63,63,0
297.94144,298.0461,61,63,0
298.0461,298.151,60,63,0
298.151,298.25613,58,69,0
298.25613,298.3615,60,62,0
298.3615,298.46716,61,62,0
298.46716,298.57303,58,62,0
298.57303,298.68057,60,74,0
298.68057,298.78632,61,62,0
298.78632,298.89148,60,63,0
298.89148,298.99625,58,63,0
298.99625,299.10065,57,70,0
299.10065,299.20468,51,59,0
299.20468,299.30838,57,62,0
299.30838,299.4117,60,65,0
299.4117,299.51492,63,71,0
299.51492,299.6185,65,65,0
299.6185,299.7224,63,65,0
299.7224,299.8268,61,65,0
299.8268,299.9316,60,72,0
299.9316,300.03674,61,64,0
300.03674,300.14236,63,64,0
300.14236,300.24826,60,64,0
300.24826,300.35577,61,70,0
300.35577,300.46173,53,59,0
300.46173,300.56735,58,63,0
300.56735,300.673,61,66,0
300.673,300.77826,65,65,0
300.77826,300.8835,66,65,0
300.8835,300.9884,65,65,0
300.9884,301.09308,63,64,0
301.09308,301.19724,61,64,0
301.19724,301.3014,60,64,0
301.3014,301.40558,58,63,0
301.40558,301.50937,56,63,0
301.50937,301.6132,54,62,0
301.6132,301.71686,53,62,0
301.71686,301.8203,51,62,0
301.8203,301.92377,49,61,0
301.92377,302.02698,48,61,0
302.02698,302.13007,46,61,0
302.13007,302.23315,44,60,0
302.23315,302.3365,42,60,0
302.3365,302.43994,41,59,0
302.43994,302.5434,39,59,0
302.5434,302.6472,37,59,0
302.6472,302.751,36,59,0
302.751,302.8548,34,59,0
302.8548,302.95898,36,59,0
302.95898,303.06314,37,62,0
303.06314,303.16742,36,64,0
303.16742,303.41537,34,65,0
303.41537,303.74323,35,72,0
303.74323,303.85077,36,89,0
303.95828,304.0658,40,76,0
304.1731,304.2802,36,76,0
304.38736,304.4944,41,76,0
304.60114,304.70792,36,76,0
304.81454,304.92093,43,76,0
305.0273,305.1337,36,76,0
305.2397,305.3457,44,76,0
305.45172,305.5577,36,74,0
305.66373,305.76862,46,74,0
305.8735,305.97842,36,75,0
306.08307,306.1876,44,76,0
306.2921,306.3964,36,77,0
306.50058,306.60474,43,78,0
306.7089,306.81308,36,79,0
306.91724,307.0214,41,80,0
307.12558,307.23047,36,81,0
307.3356,307.44113,40,82,0
307.54688,307.653,36,82,0
307.75952,307.86627,41,83,0
307.97342,308.08096,36,84,0
308.18887,308.29703,43,85,0
308.4056,308.51456,36,86,0
308.62378,308.7334,44,87,0
308.8437,308.95453,36,88,0
309.06592,309.17786,45,89,0
309.29037,309.40344,36,91,0
309.51694,309.63113,46,92,0
309.7458,309.86102,36,94,0
309.97687,310.0933,47,96,0
310.21033,310.32617,36,99,0
310.44797,310.58557,48,101,0
310.8343,310.94144,49,72,0
310.7232,310.94144,42,86,0
310.7232,310.94144,34,86,0
310.7232,310.94144,37,86,0
310.7232,310.94144,46,102,0
310.94144,311.04858,54,75,0
311.04858,311.15573,58,76,0
311.15573,311.26288,61,90,0
311.26288,311.37003,46,71,0
311.37003,311.47717,49,74,0
311.47717,311.5891,54,76,0
311.5891,311.69626,58,91,0
312.12482,312.23196,58,73,0
312.23196,312.3391,61,76,0
312.3391,312.45145,66,78,0
312.45145,312.5591,70,86,0
314.28168,314.38882,52,72,0
314.17453,314.38882,46,94,0
314.17453,314.38882,36,79,0
314.17453,314.38882,43,79,0
314.17453,314.38882,48,97,0
314.38882,314.49597,55,75,0
314.49597,314.6031,58,76,0
314.71024,314.81738,48,71,0
314.81738,314.92453,55,74,0
314.92453,315.03732,58,76,0
315.03732,315.14444,60,90,0
315.57303,315.68018,60,73,0
315.68018,315.78732,67,76,0
315.78732,315.89966,70,78,0
315.89966,316.00693,72,89,0
317.61954,317.7624,37,58,0
317.7624,317.90527,49,50,0
317.90527,318.04813,52,50,0
318.04813,318.1554,55,50,0
318.1554,318.2637,58,54,0
319.3402,319.48306,40,55,0
319.48306,319.62595,52,47,0
319.62595,319.7688,55,47,0
321.0633,321.20615,43,52,0
321.20615,321.349,55,44,0
321.349,321.49185,58,44,0
322.7776,322.92044,46,49,0
322.92044,323.0633,58,41,0
323.0633,323.20615,61,41,0
324.49185,324.70615,49,40,0
324.70615,324.92044,52,36,0
324.92044,325.1347,55,36,0
325.1347,325.349,58,36,0
330.27756,330.49185,58,38,0
330.49185,330.70615,55,38,0
330.70615,330.9204,52,37,0
330.9204,331.1347,49,36,0
331.1347,331.349,46,35,0
331.349,332.20615,43,35,0
332.20615,333.06326,40,36,0
333.06326,333.9204,37,35,0
333.9204,334.77756,34,34,0
334.77756,336.49185,31,34,0
336.49185,337.1347,43,34,0
336.49185,337.1347,46,34,0
336.49185,337.1347,52,34,0
336.49185,337.1347,48,34,0
340.77756,341.4204,52,34,0
340.77756,341.4204,46,34,0
340.77756,341.4204,48,34,0
340.77756,341.4204,43,34,0
336.49185,341.52756,36,34,0
341.52756,341.6347,36,34,0
341.6347,342.0503,29,39,0
341.6347,342.0503,41,39,0
343.299,343.71594,29,40,0
343.299,343.71594,41,40,0
344.03027,344.1361,72,51,0
344.03027,344.1361,68,51,0
344.1361,344.55264,72,56,0
344.1361,344.55264,68,56,0
344.55264,344.76093,68,30,0
344.55264,344.76093,65,30,0
344.97397,345.39093,34,40,0
344.97397,345.39093,46,40,0
345.7056,345.81177,73,63,0
345.7056,345.81177,70,63,0
345.81177,346.64963,73,70,0
345.81177,346.64963,70,70,0
346.64963,346.86038,72,51,0
346.64963,346.86038,70,51,0
346.86038,347.07425,36,43,0
346.86038,347.07425,48,43,0
347.28574,347.5004,37,37,0
347.28574,347.5004,49,37,0
347.71274,347.92743,34,39,0
347.71274,347.92743,46,39,0
348.1391,348.35385,36,35,0
348.1391,348.35385,48,35,0
348.35385,348.48843,41,40,0
348.35385,348.48843,29,40,0
348.48843,348.59225,48,37,0
348.59225,348.6957,53,37,0
348.6957,348.7988,56,40,0
348.7988,348.9019,60,38,0
348.9019,349.0051,61,38,0
349.0051,349.11108,60,38,0
349.11108,349.2171,58,40,0
349.2171,349.3235,56,37,0
349.3235,349.42987,58,37,0
349.42987,349.53625,56,37,0
349.53625,349.6404,55,40,0
349.6404,349.7457,53,37,0
349.7457,349.8507,55,37,0
349.8507,349.9592,56,37,0
349.9592,350.06345,53,37,0
350.06345,350.16653,56,40,0
350.16653,350.26962,48,37,0
350.26962,350.3727,53,37,0
350.3727,350.4758,56,40,0
350.4758,350.57892,60,38,0
350.57892,350.68475,61,38,0
350.68475,350.79114,60,38,0
350.79114,350.8975,58,40,0
350.8975,351.00427,56,37,0
351.00427,351.11102,58,37,0
351.11102,351.21704,56,37,0
351.21704,351.32303,55,40,0
351.32303,351.42905,53,37,0
351.42905,351.53506,55,37,0
351.53506,351.64395,56,37,0
351.64395,351.7482,53,37,0
351.7482,351.8513,58,44,0
351.8513,351.95438,49,40,0
351.95438,352.0575,54,40,0
352.0575,352.16058,58,44,0
352.16058,352.26367,61,41,0
352.26367,352.36984,63,41,0
352.36984,352.48096,61,41,0
352.48096,352.59207,60,44,0
352.59207,352.7032,58,40,0
352.7032,352.8143,60,40,0
352.8143,352.92447,58,40,0
352.92447,353.03503,56,44,0
353.03503,353.14655,54,40,0
353.14655,353.2592,56,40,0
353.2592,353.37198,54,40,0
353.37198,353.4842,53,44,0
353.4842,353.5949,52,40,0
353.5949,353.70438,53,40,0
353.70438,353.81284,55,40,0
353.81284,353.9211,56,44,0
353.9211,354.02982,58,40,0
354.02982,354.1388,56,40,0
354.1388,354.24802,55,40,0
354.24802,354.35748,53,44,0
354.35748,354.46738,52,40,0
354.46738,354.57727,53,40,0
354.57727,354.68716,52,40,0
354.68716,354.79706,49,44,0
354.79706,354.90695,48,37,0
354.90695,355.01685,46,38,0
355.01685,355.1267,44,40,0
355.1267,355.2366,43,40,0
355.2366,355.64957,41,44,0
355.95853,356.0672,56,52,0
355.95853,356.0672,53,52,0
356.0672,356.47946,56,65,0
356.0672,356.47946,53,65,0
356.79004,356.89838,56,54,0
356.79004,356.89838,53,54,0
356.89838,357.7481,56,66,0
356.89838,357.7481,53,66,0
356.89838,357.7481,48,66,0
357.7481,357.962,55,48,0
357.7481,357.962,52,48,0
357.7481,357.962,48,48,0
358.59314,359.00574,48,42,0
358.59314,359.00574,36,42,0
359.3154,359.42233,58,60,0
359.3154,359.42233,55,60,0
359.42233,359.834,58,68,0
359.42233,359.834,55,68,0
360.14224,360.25058,58,61,0
360.14224,360.25058,55,61,0
360.25058,361.09897,58,69,0
360.25058,361.09897,55,58,0
360.25058,361.09897,53,58,0
361.09897,361.3115,56,52,0
361.09897,361.3115,53,47,0
361.94125,362.35422,53,45,0
361.94125,362.35422,41,45,0
362.66458,362.7733,63,59,0
362.66458,362.7733,60,59,0
362.7733,363.18637,63,68,0
362.7733,363.18637,60,68,0
363.49637,363.60468,63,66,0
363.49637,363.60468,60,66,0
363.60468,364.6527,63,72,0
363.60468,364.6527,60,72,0
363.60468,364.6527,58,72,0
364.6527,364.86032,61,64,0
364.6527,364.86032,58,64,0
364.86032,365.07233,60,61,0
364.86032,365.07233,56,61,0
365.07233,365.28815,58,59,0
365.07233,365.28815,55,59,0
365.28815,365.7047,56,56,0
365.28815,365.7047,53,56,0
365.28815,365.7047,48,56,0
366.01712,366.1269,56,56,0
366.01712,366.1269,53,56,0
366.1269,366.53998,58,63,0
366.1269,366.53998,55,63,0
366.1269,366.53998,48,63,0
366.84998,366.95978,55,53,0
366.84998,366.95978,52,53,0
366.95978,367.06393,53,56,0
367.06393,367.16776,60,49,0
367.16776,367.27118,56,49,0
367.27118,367.37418,53,49,0
367.37418,367.47714,48,53,0
367.47714,367.58084,56,49,0
367.58084,367.68524,53,49,0
367.68524,367.7943,48,49,0
367.7943,367.89777,44,53,0
367.89777,368.00085,53,49,0
368.00085,368.1036,48,49,0
368.1036,368.206,44,49,0
368.206,368.30817,41,53,0
368.30817,368.41125,48,49,0
368.41125,368.5153,44,49,0
368.5153,368.62357,41,49,0
368.62357,368.7281,36,53,0
368.7281,368.8326,41,49,0
368.8326,368.93713,44,49,0
368.93713,369.0417,48,49,0
369.0417,369.1462,47,53,0
369.1462,369.25073,48,49,0
369.25073,369.35526,47,49,0
369.35526,369.45993,48,49,0
369.45993,369.5647,47,53,0
369.5647,369.6691,48,49,0
369.6691,369.77313,43,49,0
369.77313,369.87683,48,49,0
369.87683,369.9804,40,53,0
369.9804,370.08432,48,49,0
370.08432,370.1886,43,49,0
370.1886,370.29315,48,49,0
370.29315,370.39728,36,56,0
370.39728,370.5014,40,49,0
370.5014,370.60556,43,49,0
370.60556,370.7097,48,49,0
370.7097,370.81384,40,53,0
370.81384,370.91797,43,49,0
370.91797,371.0221,48,49,0
371.0221,371.1312,52,49,0
371.1312,371.23532,43,53,0
371.23532,371.33948,48,49,0
371.33948,371.4436,52,49,0
371.4436,371.54776,55,49,0
371.54776,371.6519,48,53,0
371.6519,371.756,52,49,0
371.756,371.86017,55,49,0
371.86017,371.9684,60,49,0
371.9684,372.07272,53,59,0
372.07272,372.17664,56,49,0
372.17664,372.2801,60,49,0
372.2801,372.38306,65,49,0
372.38306,372.4858,64,53,0
372.4858,372.58878,65,49,0
372.58878,372.692,64,49,0
372.692,372.79544,65,49,0
372.79544,372.89923,64,53,0
372.89923,373.00305,65,49,0
373.00305,373.10687,60,49,0
373.10687,373.21066,65,49,0
373.21066,373.31448,56,53,0
373.31448,373.41827,65,49,0
373.41827,373.5221,60,49,0
373.5221,373.6259,65,49,0
373.6259,373.7297,53,61,0
373.7297,373.83313,57,53,0
373.83313,373.93634,60,53,0
373.93634,374.0392,65,53,0
374.0392,374.14243,57,58,0
374.14243,374.24612,60,53,0
374.24612,374.35052,65,53,0
374.35052,374.45963,69,53,0
374.45963,374.56375,60,58,0
374.56375,374.66788,65,53,0
374.66788,374.77203,69,53,0
374.77203,374.87616,72,53,0
374.87616,374.9803,65,58,0
374.9803,375.08444,69,53,0
375.08444,375.18857,72,53,0
375.18857,375.29684,77,53,0
375.29684,375.40137,69,67,0
375.40137,375.5059,77,53,0
375.5059,375.61044,76,53,0
375.61044,375.71497,77,53,0
375.71497,375.8195,69,58,0
375.8195,375.924,77,53,0
375.924,376.02853,69,53,0
376.02853,376.1331,77,53,0
376.1331,376.2358,69,57,0
376.2358,376.33856,77,56,0
376.33856,376.44235,70,56,0
376.44235,376.54617,77,55,0
376.54617,376.64996,72,54,0
376.64996,376.75378,77,53,0
376.75378,376.85757,73,52,0
376.85757,376.9614,77,52,0
376.9614,377.06448,60,52,0
377.06448,377.16757,65,47,0
377.16757,377.27066,68,47,0
377.27066,377.37375,72,47,0
377.37375,377.47546,71,52,0
377.47546,377.57715,72,47,0
377.57715,377.67886,71,47,0
377.67886,377.78363,72,47,0
377.78363,377.88776,60,52,0
377.88776,377.99188,64,47,0
377.99188,378.09604,67,47,0
378.09604,378.20016,72,47,0
378.20016,378.30432,60,52,0
378.30432,378.40845,67,47,0
378.40845,378.51257,70,47,0
378.51257,378.62283,72,47,0
378.62283,378.72772,53,52,0
378.72772,378.83218,65,38,0
378.72772,378.83218,68,38,0
378.83218,378.93622,72,39,0
378.83218,378.93622,60,39,0
378.93622,379.03992,65,41,0
378.93622,379.03992,68,41,0
379.03992,379.1432,72,45,0
379.03992,379.1432,60,45,0
379.1432,379.24603,65,44,0
379.1432,379.24603,68,44,0
379.24603,379.34854,72,45,0
379.24603,379.34854,60,45,0
379.34854,379.45065,65,45,0
379.34854,379.45065,68,45,0
379.45065,379.55252,72,46,0
379.45065,379.55252,60,46,0
379.55252,379.65515,65,46,0
379.55252,379.65515,68,46,0
379.65515,379.7585,72,45,0
379.65515,379.7585,60,45,0
379.7585,379.86276,65,45,0
379.7585,379.86276,68,45,0
379.86276,379.96777,72,45,0
379.86276,379.96777,60,45,0
379.96777,380.07367,65,44,0
379.96777,380.07367,68,44,0
380.07367,380.18036,72,44,0
380.07367,380.18036,60,44,0
380.18036,380.28787,65,43,0
380.18036,380.28787,68,43,0
380.28787,380.4231,53,54,0
380.4231,380.52853,65,38,0
380.4231,380.52853,68,38,0
380.52853,380.6335,72,39,0
380.52853,380.6335,60,39,0
380.6335,380.7379,65,41,0
380.6335,380.7379,68,41,0
380.7379,380.84183,72,45,0
380.7379,380.84183,60,45,0
380.84183,380.94528,65,44,0
380.84183,380.94528,68,44,0
380.94528,381.04825,72,45,0
380.94528,381.04825,60,45,0
381.04825,381.15076,65,45,0
381.04825,381.15076,68,45,0
381.15076,381.25327,72,46,0
381.15076,381.25327,60,46,0
381.25327,381.3563,65,46,0
381.25327,381.3563,68,46,0
381.3563,381.45993,72,45,0
381.3563,381.45993,60,45,0
381.45993,381.5642,65,45,0
381.45993,381.5642,68,45,0
381.5642,381.66913,72,45,0
381.5642,381.66913,60,45,0
381.66913,381.77463,65,44,0
381.66913,381.77463,68,44,0
381.77463,381.88083,72,44,0
381.77463,381.88083,60,44,0
381.88083,381.98776,65,43,0
381.88083,381.98776,68,43,0
381.98776,382.12274,44,55,0
382.12274,382.2274,54,40,0
382.12274,382.2274,56,40,0
382.2274,382.33145,60,41,0
382.2274,382.33145,51,41,0
382.33145,382.435,54,43,0
382.33145,382.435,56,43,0
382.435,382.538,60,47,0
382.435,382.538,51,47,0
382.538,382.64047,54,46,0
382.538,382.64047,56,46,0
382.64047,382.7424,60,47,0
382.64047,382.7424,51,47,0
382.7424,382.84387,54,48,0
382.7424,382.84387,56,48,0
382.84387,382.944,60,49,0
382.84387,382.944,51,49,0
382.944,383.0449,54,49,0
382.944,383.0449,56,49,0
383.0449,383.14658,60,48,0
383.0449,383.14658,51,48,0
383.14658,383.24896,54,47,0
383.14658,383.24896,56,47,0
383.24896,383.35217,60,47,0
383.24896,383.35217,51,47,0
383.35217,383.45624,54,46,0
383.35217,383.45624,56,46,0
383.45624,383.56113,60,46,0
383.45624,383.56113,51,46,0
383.56113,383.66763,54,45,0
383.56113,383.66763,56,45,0
383.66763,383.78708,44,54,0
383.78708,383.89078,54,40,0
383.78708,383.89078,56,40,0
383.89078,383.994,60,41,0
383.89078,383.994,51,41,0
383.994,384.09662,54,43,0
383.994,384.09662,56,43,0
384.09662,384.19876,60,47,0
384.09662,384.19876,51,47,0
384.19876,384.30035,54,46,0
384.19876,384.30035,56,46,0
384.30035,384.40146,60,47,0
384.30035,384.40146,51,47,0
384.40146,384.502,54,48,0
384.40146,384.502,56,48,0
384.502,384.6027,60,49,0
384.502,384.6027,51,49,0
384.6027,384.70416,54,49,0
384.6027,384.70416,56,49,0
384.70416,384.80655,60,48,0
384.70416,384.80655,51,48,0
384.80655,384.90964,54,47,0
384.80655,384.90964,56,47,0
384.90964,385.0137,60,47,0
384.90964,385.0137,51,47,0
385.0137,385.1186,54,46,0
385.0137,385.1186,56,46,0
385.1186,385.2248,60,46,0
385.1186,385.2248,51,46,0
385.2248,385.332,54,45,0
385.2248,385.332,56,45,0
385.332,385.4364,49,56,0
385.4364,385.5403,61,42,0
385.4364,385.5403,65,42,0
385.5403,385.64365,68,43,0
385.5403,385.64365,56,43,0
385.64365,385.74628,61,45,0
385.64365,385.74628,65,45,0
385.74628,385.84845,68,49,0
385.74628,385.84845,56,49,0
385.84845,385.9499,61,48,0
385.84845,385.9499,65,48,0
385.9499,386.0508,68,49,0
385.9499,386.0508,56,49,0
386.0508,386.15112,61,50,0
386.0508,386.15112,65,50,0
386.15112,386.25146,68,51,0
386.15112,386.25146,56,51,0
386.25146,386.3526,61,51,0
386.25146,386.3526,65,51,0
386.3526,386.45453,68,50,0
386.3526,386.45453,56,50,0
386.45453,386.55725,61,49,0
386.45453,386.55725,65,49,0
386.55725,386.66083,68,49,0
386.55725,386.66083,56,49,0
386.66083,386.76523,61,48,0
386.66083,386.76523,65,48,0
386.76523,386.8705,68,48,0
386.76523,386.8705,56,48,0
386.8705,386.97745,61,47,0
386.8705,386.97745,65,47,0
386.97745,387.09714,49,56,0
387.09714,387.2012,65,42,0
387.09714,387.2012,61,42,0
387.2012,387.30475,68,43,0
387.2012,387.30475,56,43,0
387.30475,387.40775,65,45,0
387.30475,387.40775,61,45,0
387.40775,387.61194,68,49,0
387.61194,387.81396,73,55,0
387.81396,388.01474,77,58,0
388.01474,388.21918,80,62,0
388.21918,388.42715,85,66,0
388.42715,388.63986,85,69,0
388.63986,389.26642,82,80,0
388.63986,389.26642,85,80,0
389.26642,389.48224,84,66,0
389.26642,389.48224,80,66,0
389.48224,389.91388,82,68,0
389.48224,389.91388,79,68,0
389.91388,390.34555,84,64,0
389.91388,390.34555,80,64,0
390.34555,390.9742,82,80,0
390.34555,390.9742,85,80,0
390.9742,391.19003,84,66,0
390.9742,391.19003,80,66,0
391.19003,391.6217,82,68,0
391.19003,391.6217,79,68,0
391.6217,392.05334,84,64,0
391.6217,392.05334,80,64,0
392.05334,392.682,82,80,0
392.05334,392.682,85,80,0
392.682,392.89783,84,66,0
392.682,392.89783,80,66,0
392.89783,393.3295,82,68,0
392.89783,393.3295,79,68,0
393.3295,393.76114,80,65,0
393.3295,393.76114,77,65,0
393.76114,394.1928,76,70,0
393.76114,394.1928,79,70,0
394.1928,394.62445,77,70,0
394.1928,394.62445,74,70,0
394.62445,395.05612,73,75,0
394.62445,395.05612,77,75,0
395.05612,395.48776,77,75,0
395.05612,395.48776,72,75,0
395.91943,396.35107,74,75,0
395.48776,396.35107,71,76,0
396.35107,396.78275,68,72,0
396.78275,397.2144,67,68,0
396.35107,397.2144,72,72,0
396.35107,397.2144,60,72,0
397.2144,397.84235,49,61,0
397.2144,397.84235,54,72,0
397.2144,397.84235,46,61,0
397.84235,398.05817,53,59,0
397.84235,398.05817,48,50,0
397.84235,398.05817,44,50,0
398.05817,398.4898,46,51,0
398.05817,398.4898,43,51,0
398.05817,398.4898,52,61,0
398.4898,398.92148,53,57,0
398.4898,398.92148,48,48,0
398.4898,398.92148,44,48,0
398.92148,399.55087,49,61,0
398.92148,399.55087,54,72,0
398.92148,399.55087,46,61,0
399.55087,399.7667,53,59,0
399.55087,399.7667,48,50,0
399.55087,399.7667,44,50,0
399.7667,400.19833,46,54,0
399.7667,400.19833,43,51,0
399.7667,400.19833,52,65,0
400.19833,400.63,53,57,0
400.19833,400.63,48,48,0
400.19833,400.63,44,48,0
400.63,401.2594,49,61,0
400.63,401.2594,54,72,0
400.63,401.2594,46,61,0
401.2594,401.47522,48,50,0
401.2594,401.47522,44,50,0
401.2594,401.47522,53,59,0
401.47522,401.90686,46,61,0
401.47522,401.90686,43,51,0
401.47522,401.90686,52,61,0
401.90686,402.32498,44,49,0
401.90686,402.32498,41,49,0
401.90686,402.32498,49,58,0
402.32498,402.74753,43,53,0
402.32498,402.74753,48,63,0
402.32498,402.74753,40,53,0
402.74753,403.17004,41,53,0
402.74753,403.17004,47,63,0
402.74753,403.17004,44,53,0
402.74753,403.17004,38,53,0
403.17004,403.5911,40,56,0
403.17004,403.5911,43,56,0
403.17004,403.5911,46,67,0
403.5911,404.01218,44,67,0
403.5911,404.01218,41,67,0
404.01218,404.4347,44,66,0
404.4347,404.86328,42,64,0
404.01218,404.86328,35,66,0
404.86328,405.29184,41,61,0
405.29184,405.7204,40,59,0
404.86328,405.7204,36,61,0
405.7204,405.93094,41,70,0
405.7204,405.93094,29,59,0
405.7204,405.93094,32,59,0
405.7204,405.93094,36,59,0
406.24368,406.34714,48,59,0
406.34714,406.45023,53,62,0
406.45023,406.55286,56,64,0
406.55286,406.65524,60,70,0
406.65524,406.75797,61,64,0
406.75797,406.86108,60,64,0
406.86108,406.9645,58,64,0
406.9645,407.06833,56,70,0
407.06833,407.1725,55,63,0
407.1725,407.277,53,63,0
407.277,407.38193,51,63,0
407.38193,407.48718,49,67,0
407.48718,407.5928,48,60,0
407.5928,407.6993,46,60,0
407.6993,407.8062,44,60,0
407.8062,407.9161,43,71,0
407.9161,408.026,44,65,0
408.026,408.1359,46,73,0
408.1359,408.24576,44,69,0
408.24576,408.35565,43,73,0
408.35565,408.46555,41,73,0
408.46555,408.57544,40,72,0
408.57544,408.68533,38,72,0
408.68533,408.79523,36,71,0
408.79523,408.90512,34,71,0
408.90512,409.015,32,70,0
409.015,409.12488,31,70,0
409.12488,409.3358,41,70,0
409.12488,409.3358,29,70,0
409.12488,409.3358,32,70,0
409.12488,409.3358,36,70,0
409.64816,409.75137,60,59,0
409.75137,409.854,65,62,0
409.854,409.95676,68,64,0
409.95676,410.05972,72,70,0
410.05972,410.16293,73,64,0
410.16293,410.2665,72,64,0
410.2665,410.3703,70,64,0
410.3703,410.4745,68,70,0
410.4745,410.579,67,63,0
410.579,410.68378,65,63,0
410.68378,410.7888,63,63,0
410.7888,410.8942,61,67,0
410.8942,410.99982,60,60,0
410.99982,411.10583,58,60,0
411.10583,411.21246,56,60,0
411.21246,411.32236,55,71,0
411.32236,411.43225,56,65,0
411.43225,411.54214,58,73,0
411.54214,411.652,56,69,0
411.652,411.7619,55,73,0
411.7619,411.8718,53,73,0
411.8718,411.9817,52,72,0
411.9817,412.09158,50,72,0
412.09158,412.20148,48,71,0
412.20148,412.31137,46,71,0
412.31137,412.42126,44,70,0
412.42126,412.53113,43,70,0
412.53113,412.6666,41,67,0
412.6666,412.77298,43,60,0
412.77298,412.8796,44,60,0
412.8796,412.9865,46,60,0
412.9865,413.0964,48,71,0
413.0964,413.2063,50,65,0
413.2063,413.3162,52,73,0
413.3162,413.42606,53,69,0
413.42606,413.53595,55,73,0
413.53595,413.64584,53,73,0
413.64584,413.75574,52,72,0
413.75574,413.86563,50,72,0
413.86563,413.97552,48,71,0
413.97552,414.08542,46,71,0
414.08542,414.1953,44,70,0
414.1953,414.30518,43,70,0
414.30518,414.44064,41,67,0
414.44064,414.54703,43,60,0
414.54703,414.65366,44,60,0
414.65366,414.76056,46,60,0
414.76056,414.87045,48,71,0
414.87045,414.98035,50,65,0
414.98035,415.09024,52,73,0
415.09024,415.2001,53,69,0
415.2001,415.31,55,73,0
415.31,415.4199,53,73,0
415.4199,415.5298,52,72,0
415.5298,415.63968,50,72,0
415.63968,415.74957,48,71,0
415.74957,415.85947,46,71,0
415.85947,415.96936,44,70,0
415.96936,416.07922,43,70,0
416.07922,416.5346,41,67,0
416.75122,416.91187,44,60,0
416.75122,416.91187,48,72,0
416.75122,416.91187,36,60,0
416.75122,416.91187,41,60,0
416.96512,417.12433,48,76,0
416.96512,417.12433,46,63,0
416.96512,417.12433,43,63,0
416.96512,417.12433,40,63,0
416.96512,417.12433,36,53,0
417.17752,417.33783,48,74,0
417.17752,417.33783,40,62,0
417.17752,417.33783,43,62,0
417.17752,417.33783,36,53,0
417.17752,417.33783,46,62,0
417.39142,417.5529,48,76,0
417.39142,417.5529,36,52,0
417.39142,417.5529,43,52,0
417.39142,417.5529,40,52,0
417.39142,417.5529,46,62,0
417.60684,417.7695,48,71,0
417.60684,417.7695,36,50,0
417.60684,417.7695,43,59,0
417.60684,417.7695,46,59,0
417.60684,417.7695,40,59,0
417.82385,418.27936,41,56,0
417.82385,418.27936,36,56,0
417.82385,418.27936,48,67,0
417.82385,418.27936,44,56,0
418.49402,418.65396,56,60,0
418.49402,418.65396,60,72,0
418.49402,418.65396,48,60,0
418.49402,418.65396,53,60,0
418.70715,418.866,60,76,0
418.70715,418.866,58,63,0
418.70715,418.866,55,63,0
418.70715,418.866,52,63,0
418.70715,418.866,48,53,0
418.9189,419.07855,60,74,0
418.9189,419.07855,52,62,0
418.9189,419.07855,55,62,0
418.9189,419.07855,48,53,0
418.9189,419.07855,58,62,0
419.13208,419.29343,60,76,0
419.13208,419.29343,48,52,0
419.13208,419.29343,55,52,0
419.13208,419.29343,52,52,0
419.13208,419.29343,58,62,0
419.3475,419.51077,60,71,0
419.3475,419.51077,48,50,0
419.3475,419.51077,55,59,0
419.3475,419.51077,58,59,0
419.3475,419.51077,52,59,0
419.5653,419.98563,53,56,0
419.5653,419.98563,48,56,0
419.5653,419.98563,60,67,0
419.5653,419.98563,56,56,0
420.1984,420.3578,44,54,0
420.1984,420.3578,48,64,0
420.1984,420.3578,36,54,0
420.1984,420.3578,41,54,0
420.41043,420.56824,48,68,0
420.41043,420.56824,46,56,0
420.41043,420.56824,43,56,0
420.41043,420.56824,40,56,0
420.41043,420.56824,36,47,0
420.6207,420.77786,48,66,0
420.6207,420.77786,40,55,0
420.6207,420.77786,43,55,0
420.6207,420.77786,36,47,0
420.6207,420.77786,46,55,0
420.83014,420.9866,48,68,0
420.83014,420.9866,36,46,0
420.83014,420.9866,43,46,0
420.83014,420.9866,40,46,0
420.83014,420.9866,46,55,0
421.0387,421.19452,48,63,0
421.0387,421.19452,36,45,0
421.0387,421.19452,43,53,0
421.0387,421.19452,46,53,0
421.0387,421.19452,40,53,0
421.24643,421.4016,48,68,0
421.24643,421.4016,46,56,0
421.24643,421.4016,43,56,0
421.24643,421.4016,40,56,0
421.24643,421.4016,36,47,0
421.45334,421.6085,48,66,0
421.45334,421.6085,40,55,0
421.45334,421.6085,43,55,0
421.45334,421.6085,36,47,0
421.45334,421.6085,46,55,0
421.66022,421.8154,48,68,0
421.66022,421.8154,36,46,0
421.66022,421.8154,43,46,0
421.66022,421.8154,40,46,0
421.66022,421.8154,46,55,0
421.86713,422.0223,48,63,0
421.86713,422.0223,36,45,0
421.86713,422.0223,43,53,0
421.86713,422.0223,46,53,0
421.86713,422.0223,40,53,0
422.07483,422.22876,48,68,0
422.07483,422.22876,46,56,0
422.07483,422.22876,43,56,0
422.07483,422.22876,40,56,0
422.07483,422.22876,36,47,0
422.2803,422.43597,48,66,0
422.2803,422.43597,40,55,0
422.2803,422.43597,43,55,0
422.2803,422.43597,36,47,0
422.2803,422.43597,46,55,0
422.48816,422.64563,48,68,0
422.48816,422.64563,36,46,0
422.48816,422.64563,43,46,0
422.48816,422.64563,40,46,0
422.48816,422.64563,46,55,0
422.69846,422.85785,40,53,0
422.69846,422.85785,46,53,0
422.69846,422.85785,48,63,0
422.69846,422.85785,43,53,0
422.69846,422.85785,36,45,0
422.91135,423.59592,41,75,0
422.91135,423.59592,29,62,0
422.91135,423.59592,32,62,0
422.91135,423.59592,36,62,0
423.59592,424.26334,41,75,0
423.59592,424.26334,29,62,0
423.59592,424.26334,32,62,0
423.59592,424.26334,36,62,0
424.26334,424.33994,48,40,0
424.26334,424.33994,36,40,0
424.41653,424.4911,36,36,0
424.56567,424.6408,36,36,0
424.71597,424.7911,36,36,0
424.86627,424.9423,41,40,0
424.86627,424.9423,29,40,0
425.0183,425.0923,41,37,0
425.16626,425.2412,41,37,0
425.3162,425.39114,41,37,0
425.4661,425.54105,48,40,0
425.4661,425.54105,36,40,0
425.616,425.68942,36,36,0
425.76282,425.8372,36,36,0
425.91156,425.98593,36,36,0
426.0603,426.13498,41,40,0
426.0603,426.13498,29,40,0
426.2097,426.28372,41,37,0
426.35776,426.43176,41,38,0
426.5058,426.57983,41,39,0
426.65387,426.72968,31,44,0
426.8055,426.88132,43,39,0
426.95715,427.03485,31,38,0
427.11255,427.19025,31,38,0
427.26794,427.57874,36,48,0
427.73413,427.77298,36,53,0
427.77298,427.81183,34,55,0
427.81183,427.85068,32,57,0
427.85068,427.88956,31,61,0
427.88956,428.55142,41,75,0
427.88956,428.55142,29,62,0
427.88956,428.55142,32,62,0
427.88956,428.55142,36,62,0
428.55142,429.199,41,75,0
428.55142,429.199,29,62,0
428.55142,429.199,32,62,0
428.55142,429.199,36,62,0
429.199,429.2758,48,40,0
429.199,429.2758,36,40,0
429.35257,429.42734,36,36,0
429.5021,429.57724,36,36,0
429.6524,429.72754,36,36,0
429.8027,429.87872,41,40,0
429.8027,429.87872,29,40,0
429.95505,430.02887,41,37,0
430.10266,430.1774,41,37,0
430.25217,430.3269,41,37,0
430.40167,430.47568,48,40,0
430.40167,430.47568,36,40,0
430.54965,430.6225,36,36,0
430.69537,430.76895,36,36,0
430.84256,430.91617,36,36,0
430.98978,431.06448,41,40,0
430.98978,431.06448,29,40,0
431.13916,431.21298,41,37,0
431.2868,431.3606,41,38,0
431.43442,431.50824,41,39,0
431.58203,431.65787,31,44,0
431.73367,431.80948,43,39,0
431.8853,431.963,31,38,0
432.0407,432.1184,31,38,0
432.1961,432.50693,36,48,0
432.66232,432.7141,39,63,0
432.7141,432.7659,41,66,0
432.7659,432.81772,43,68,0
432.81772,433.47958,44,75,0
432.81772,433.47958,32,62,0
432.81772,433.47958,36,62,0
432.81772,433.47958,39,62,0
433.47958,434.12717,44,75,0
433.47958,434.12717,32,62,0
433.47958,434.12717,36,62,0
433.47958,434.12717,39,62,0
434.12717,434.2026,51,40,0
434.12717,434.2026,39,40,0
434.27805,434.35165,39,36,0
434.42526,434.49942,39,36,0
434.5736,434.6478,39,36,0
434.72195,434.7972,44,40,0
434.72195,434.7972,32,40,0
434.87247,434.9457,44,37,0
435.01892,435.0927,44,37,0
435.1665,435.2403,44,37,0
435.3141,435.38858,51,40,0
435.3141,435.38858,39,40,0
435.46304,435.5364,39,36,0
435.6098,435.6832,39,36,0
435.75656,435.82996,39,36,0
435.90332,435.9778,44,40,0
435.90332,435.9778,32,40,0
436.05228,436.12564,44,37,0
436.19904,436.27243,44,37,0
436.3458,436.4192,44,37,0
436.49255,436.56763,41,42,0
436.49255,436.56763,29,42,0
436.6427,436.71664,29,37,0
436.7906,436.86453,29,38,0
436.9385,437.01245,29,38,0
437.0864,437.1622,46,43,0
437.0864,437.1622,34,43,0
437.23804,437.31198,46,40,0
437.38593,437.4599,46,42,0
437.53384,437.6078,46,42,0
437.68173,437.7574,36,48,0
437.833,437.90768,48,43,0
437.9824,438.05707,36,42,0
438.13177,438.20645,36,42,0
438.28116,438.58444,41,48,0
438.28116,438.58444,29,48,0
438.73608,438.78662,39,63,0
438.78662,438.8372,41,66,0
438.8372,438.88773,43,68,0
438.88773,439.5442,44,75,0
438.88773,439.5442,32,62,0
438.88773,439.5442,36,62,0
438.88773,439.5442,39,62,0
439.5442,440.18484,44,75,0
439.5442,440.18484,32,62,0
439.5442,440.18484,36,62,0
439.5442,440.18484,39,62,0
440.18484,440.25958,51,40,0
440.18484,440.25958,39,40,0
440.33435,440.40738,39,36,0
440.48044,440.5548,39,36,0
440.62918,440.70355,39,36,0
440.7779,440.85297,44,40,0
440.7779,440.85297,32,40,0
440.92804,441.00198,44,37,0
441.07593,441.14987,44,37,0
441.22385,441.2978,44,37,0
441.37173,441.4462,51,40,0
441.37173,441.4462,39,40,0
441.5207,441.59406,39,36,0
441.66745,441.7408,39,36,0
441.8142,441.88757,39,36,0
441.96097,442.0367,44,40,0
441.96097,442.0367,32,40,0
442.11246,442.187,44,37,0
442.2616,442.33615,44,37,0
442.4107,442.4853,44,37,0
442.55984,442.6351,41,42,0
442.55984,442.6351,29,42,0
442.71036,442.7843,29,37,0
442.85825,442.9322,29,38,0
443.00613,443.0801,29,38,0
443.15405,443.22968,46,43,0
443.15405,443.22968,34,43,0
443.30533,443.37982,46,40,0
443.4543,443.52884,46,42,0
443.60333,443.67783,46,42,0
443.75235,443.82816,36,48,0
443.904,443.9785,48,43,0
444.053,444.1275,36,42,0
444.202,444.27652,36,42,0
444.351,444.42038,41,54,0
444.351,444.42038,29,54,0
444.63046,444.97855,53,67,0
444.42038,444.97855,41,45,0
444.4902,444.97855,44,49,0
444.5602,444.97855,48,52,0
445.18878,445.5381,53,67,0
444.97855,445.5381,41,45,0
445.04846,445.5381,44,49,0
445.11853,445.5381,48,52,0
445.7484,446.0964,53,67,0
445.5381,446.0964,41,45,0
445.6079,446.0964,44,49,0
445.678,446.0964,48,52,0
446.30624,446.58655,53,67,0
446.0964,446.58655,41,45,0
446.1661,446.58655,44,49,0
446.23605,446.58655,48,52,0
446.86658,447.2144,58,67,0
446.65607,447.2144,46,45,0
446.72592,447.2144,49,49,0
446.7961,447.2144,54,52,0
447.42377,447.70486,58,67,0
447.2144,447.70486,46,45,0
447.284,447.70486,49,49,0
447.35376,447.70486,54,52,0
447.98495,448.33295,60,67,0
447.77435,448.33295,48,45,0
447.84418,448.33295,55,49,0
447.91437,448.33295,58,52,0
448.54346,448.82336,60,67,0
448.33295,448.82336,48,45,0
448.40277,448.82336,55,49,0
448.47296,448.82336,58,52,0
448.82336,448.89297,53,56,0
448.82336,448.89297,41,56,0
449.10306,449.45114,65,71,0
448.89297,449.45114,53,47,0
448.9628,449.45114,56,51,0
449.0328,449.45114,60,54,0
449.66135,450.01004,65,71,0
449.45114,450.01004,53,47,0
449.52103,450.01004,56,51,0
449.5911,450.01004,60,54,0
450.22037,450.56833,65,71,0
450.01004,450.56833,53,47,0
450.07986,450.56833,56,51,0
450.14993,450.56833,60,54,0
450.7782,451.057,65,71,0
450.56833,451.057,53,47,0
450.63806,451.057,56,51,0
450.708,451.057,60,54,0
451.33704,451.68484,70,71,0
451.12653,451.68484,58,47,0
451.19638,451.68484,61,51,0
451.26654,451.68484,66,54,0
451.89423,452.17365,70,71,0
451.68484,452.17365,58,47,0
451.75446,452.17365,61,51,0
451.82422,452.17365,66,54,0
452.45377,452.80176,72,71,0
452.24313,452.80176,60,47,0
452.31296,452.80176,64,51,0
452.38315,452.80176,67,54,0
453.01227,453.29184,60,73,0
452.80176,453.29184,48,47,0
452.87158,453.29184,52,51,0
452.94177,453.29184,55,54,0
453.29184,453.36145,53,77,0
453.29184,453.36145,41,77,0
453.8499,454.26904,80,89,0
453.78033,454.26904,77,74,0
453.71072,454.26904,72,71,0
454.26904,454.40817,60,67,0
454.40817,454.5476,65,82,0
454.96625,455.38535,80,87,0
454.89664,455.38535,77,74,0
454.82706,455.38535,72,71,0
455.38535,455.5245,60,67,0
455.5245,455.6639,65,82,0
456.08255,456.50168,80,86,0
456.01297,456.50168,77,74,0
455.94336,456.50168,72,71,0
456.50168,456.6408,60,67,0
456.6408,456.78024,65,85,0
457.19888,457.618,80,88,0
457.12927,457.618,77,74,0
457.0597,457.618,72,71,0
457.618,457.75714,60,66,0
457.75714,458.03253,65,88,0
458.16946,458.30722,60,67,0
458.30722,458.5827,53,89,0
458.71964,458.85742,48,66,0
458.85742,459.1329,41,92,0
459.26984,459.40717,36,63,0
459.40717,459.54462,29,87,0
459.54462,459.68265,36,65,0
459.68265,459.81958,29,89,0
459.81958,459.95767,36,64,0
459.95767,460.02606,29,72,0
460.02606,460.09445,32,63,0
460.09445,460.1628,36,63,0
460.1628,460.23282,41,63,0
460.23282,460.30118,29,72,0
460.30118,460.36957,32,63,0
460.36957,460.43796,36,63,0
460.43796,460.50775,41,63,0
460.50775,460.57614,29,72,0
460.57614,460.64453,32,63,0
460.64453,460.7129,36,63,0
460.7129,460.78223,41,63,0
460.78223,460.85062,29,72,0
460.85062,460.919,32,63,0
460.919,460.98737,36,63,0
460.98737,461.0572,41,63,0
461.0572,461.12558,29,72,0
461.12558,461.19394,32,63,0
461.19394,461.26233,36,63,0
461.26233,461.33197,41,63,0
461.33197,461.40036,29,72,0
461.40036,461.46875,32,63,0
461.46875,461.5371,36,63,0
461.5371,461.60678,41,63,0
461.60678,461.67517,29,72,0
461.67517,461.74353,32,63,0
461.74353,461.81192,36,63,0
461.81192,461.88174,41,63,0
461.88174,461.9501,29,72,0
461.9501,462.0185,32,63,0
462.0185,462.08688,36,63,0
462.08688,462.15668,41,63,0
462.15668,462.22507,29,72,0
462.22507,462.29346,32,63,0
462.29346,462.36182,36,63,0
462.36182,462.43164,41,63,0
462.43164,462.50003,29,72,0
462.50003,462.5684,32,63,0
462.5684,462.63678,36,63,0
462.63678,462.70676,41,63,0
462.70676,462.77515,29,72,0
462.77515,462.84354,32,63,0
462.84354,462.9119,36,63,0
462.9119,462.98172,41,63,0
462.98172,463.05026,29,72,0
463.05026,463.1188,32,63,0
463.1188,463.18732,36,63,0
463.18732,463.257,41,63,0
463.257,463.3986,41,81,0
463.257,463.3986,29,69,0
463.257,463.3986,32,69,0
463.257,463.3986,36,69,0
463.82343,463.96774,41,85,0
463.82343,463.96774,29,72,0
463.82343,463.96774,32,72,0
463.82343,463.96774,36,72,0
464.40076,464.55127,41,85,0
464.40076,464.55127,29,72,0
464.40076,464.55127,32,72,0
464.40076,464.55127,36,72,0
