start_time,end_time,note_value,velocity,instrument_program_number
0.5,0.68907577,74,50,0
0.68907577,0.7632516,77,50,0
0.68907577,0.7632516,69,42,0
0.7714934,1.0246578,77,62,0
0.7714934,1.0246578,72,53,0
1.0246578,1.1512401,74,55,0
1.0246578,1.1512401,65,46,0
1.2778224,1.4668981,70,50,0
1.4668981,1.541074,74,50,0
1.4668981,1.541074,66,42,0
1.5493157,1.8024802,74,62,0
1.5493157,1.8024802,69,53,0
1.8024802,1.9290625,70,55,0
1.8024802,1.9290625,62,46,0
2.0556448,2.2447205,67,52,0
2.2447205,2.3188963,70,53,0
2.2447205,2.3188963,62,44,0
2.3271382,2.5803027,70,66,0
2.3271382,2.5803027,65,57,0
2.5803027,2.7068849,67,61,0
2.5803027,2.7068849,58,51,0
2.833467,3.022543,67,57,0
2.833467,3.022543,58,47,0
3.022543,3.0959125,69,58,0
3.022543,3.0959125,63,48,0
3.1040647,3.3572292,69,72,0
3.1040647,3.3572292,63,62,0
3.3572292,3.4838114,70,66,0
3.3572292,3.4838114,58,55,0
3.6103935,3.7994695,70,61,0
3.7994695,3.8736453,72,63,0
3.6103935,3.881887,65,51,0
3.881887,4.1350517,72,79,0
3.881887,4.1350517,65,67,0
4.1350517,4.261634,74,72,0
4.1350517,4.261634,65,60,0
4.1350517,4.261634,70,60,0
4.388216,4.577292,74,67,0
4.577292,4.6506615,75,70,0
4.388216,4.6588135,70,56,0
4.6588135,4.918554,75,88,0
4.6588135,4.918554,70,75,0
4.918554,4.9899826,77,82,0
4.918554,4.9899826,73,68,0
4.918554,4.9899826,70,68,0
4.918554,4.9899826,65,68,0
5.2042685,5.280411,79,94,0
5.2042685,5.280411,67,79,0
5.2042685,5.280411,70,79,0
5.2042685,5.280411,72,79,0
5.508837,5.665087,72,94,0
5.508837,5.665087,69,79,0
5.508837,5.665087,60,79,0
6.133837,6.3229127,86,50,0
6.3229127,6.3970885,89,50,0
6.3229127,6.3970885,81,42,0
6.40533,6.658495,89,62,0
6.40533,6.658495,84,53,0
6.658495,6.7889295,86,55,0
6.658495,6.7889295,77,46,0
6.9193645,7.10844,82,50,0
7.10844,7.1826158,86,50,0
7.10844,7.1826158,78,42,0
7.190858,7.444022,86,62,0
7.190858,7.444022,81,53,0
7.444022,7.5706043,82,55,0
7.444022,7.5706043,74,46,0
7.697187,7.8862624,79,52,0
7.8862624,7.9604383,82,53,0
7.8862624,7.9604383,74,44,0
7.96868,8.221845,82,66,0
7.96868,8.221845,77,57,0
8.221845,8.351155,79,61,0
8.221845,8.351155,70,51,0
8.480465,8.66954,79,57,0
8.480465,8.66954,70,47,0
8.66954,8.74291,81,58,0
8.66954,8.74291,75,48,0
8.751062,9.004227,81,72,0
8.751062,9.004227,75,62,0
9.004227,9.13081,82,66,0
9.004227,9.13081,70,55,0
9.257392,9.446467,82,61,0
9.446467,9.520643,84,63,0
9.257392,9.528885,77,51,0
9.528885,9.782049,84,79,0
9.528885,9.782049,77,67,0
9.782049,9.9130535,86,72,0
9.782049,9.9130535,77,60,0
10.044058,10.233133,87,67,0
10.233133,10.306503,88,70,0
10.044058,10.314655,82,56,0
10.314655,10.574396,88,88,0
10.314655,10.574396,82,75,0
10.574396,10.645824,89,82,0
10.574396,10.645824,77,68,0
10.574396,10.645824,81,68,0
10.86011,10.936253,91,94,0
10.86011,10.936253,79,79,0
10.86011,10.936253,82,79,0
10.86011,10.936253,88,79,0
11.164679,11.325107,89,94,0
11.164679,11.325107,81,79,0
11.164679,11.325107,77,79,0
11.80639,11.995465,74,50,0
11.80639,11.995465,71,43,0
11.995465,12.057279,77,50,0
11.995465,12.057279,74,42,0
12.077884,12.331048,77,62,0
12.077884,12.331048,74,53,0
12.331048,12.462052,74,55,0
12.331048,12.462052,71,46,0
12.593057,12.782132,74,50,0
12.593057,12.782132,71,43,0
12.782132,12.8439455,79,50,0
12.782132,12.8439455,75,42,0
12.86455,13.117714,79,62,0
12.86455,13.117714,75,53,0
13.117714,13.244296,75,55,0
13.117714,13.244296,72,46,0
13.370879,13.559955,72,50,0
13.370879,13.559955,69,43,0
13.559955,13.621768,75,50,0
13.559955,13.621768,72,42,0
13.642372,13.895536,75,62,0
13.642372,13.895536,72,53,0
13.895536,14.02828,72,55,0
13.895536,14.02828,69,46,0
14.161023,14.350099,72,50,0
14.161023,14.350099,69,43,0
14.350099,14.411912,77,50,0
14.350099,14.411912,73,42,0
14.432516,14.685681,77,62,0
14.432516,14.685681,74,53,0
14.685681,14.8122635,74,55,0
14.685681,14.8122635,70,46,0
14.938846,15.127921,60,45,0
14.938846,15.127921,57,38,0
15.127921,15.189734,63,45,0
15.127921,15.189734,60,37,0
15.210339,15.716668,63,55,0
15.210339,15.716668,60,47,0
15.716668,15.969832,62,48,0
15.716668,15.969832,58,40,0
15.969832,16.23184,60,46,0
15.969832,16.23184,57,39,0
16.23184,16.493849,58,45,0
16.23184,16.493849,55,38,0
16.493849,17.036232,57,43,0
16.493849,17.036232,53,36,0
17.036232,17.316607,55,39,0
17.036232,17.316607,52,33,0
17.316607,17.906258,60,38,0
17.316607,17.906258,51,32,0
17.906258,18.215536,59,38,0
17.906258,18.215536,50,32,0
17.316607,18.215536,55,32,0
19.143372,19.332449,59,40,0
19.332449,19.406624,62,40,0
19.414865,19.66803,62,49,0
19.66803,19.794613,59,44,0
19.921194,20.11027,71,40,0
20.11027,20.184446,74,40,0
20.192688,20.445852,74,49,0
20.445852,20.57978,71,44,0
19.921194,20.57978,62,33,0
20.713709,20.902786,84,46,0
20.902786,20.976961,87,46,0
20.985203,21.238367,87,56,0
21.238367,21.36495,84,50,0
21.491531,21.680607,71,50,0
21.491531,21.680607,62,43,0
21.680607,21.74242,74,50,0
21.680607,21.74242,65,42,0
21.763025,22.01619,74,62,0
21.763025,22.01619,65,53,0
22.01619,22.148933,71,56,0
22.01619,22.148933,62,47,0
22.281677,22.470753,71,59,0
22.281677,22.470753,62,51,0
22.470753,22.532566,75,60,0
22.470753,22.532566,67,50,0
22.55317,22.806334,75,75,0
22.55317,22.806334,67,63,0
22.806334,22.935644,72,68,0
22.806334,22.935644,63,56,0
23.064955,23.25403,72,73,0
23.064955,23.25403,69,61,0
23.25403,23.3274,81,75,0
23.25403,23.3274,72,66,0
23.335552,23.595293,81,94,0
23.335552,23.595293,72,80,0
23.595293,23.666721,77,85,0
23.595293,23.666721,69,71,0
23.881008,23.95715,82,103,0
23.881008,23.95715,70,86,0
24.185575,24.346003,82,103,0
24.185575,24.346003,70,86,0
24.827288,25.016363,86,50,0
24.827288,25.016363,83,43,0
25.016363,25.078176,89,50,0
25.016363,25.078176,86,42,0
25.09878,25.351944,89,62,0
25.09878,25.351944,86,53,0
25.351944,25.482948,86,55,0
25.351944,25.482948,83,46,0
25.613953,25.803028,86,50,0
25.613953,25.803028,83,43,0
25.803028,25.864841,91,50,0
25.803028,25.864841,87,42,0
25.885447,26.13861,91,62,0
25.885447,26.13861,87,53,0
26.13861,26.265194,87,55,0
26.13861,26.265194,84,46,0
26.391775,26.58085,84,50,0
26.391775,26.58085,81,43,0
26.58085,26.642664,87,50,0
26.58085,26.642664,84,42,0
26.663269,26.916433,87,62,0
26.663269,26.916433,84,53,0
26.916433,27.047438,84,55,0
26.916433,27.047438,81,46,0
27.178442,27.367517,84,50,0
27.178442,27.367517,81,43,0
27.367517,27.42933,89,50,0
27.367517,27.42933,85,42,0
27.449936,27.7031,89,62,0
27.449936,27.7031,86,53,0
27.7031,27.829681,86,55,0
27.7031,27.829681,82,46,0
27.956264,28.14534,72,45,0
27.956264,28.14534,69,38,0
28.14534,28.207153,75,45,0
28.14534,28.207153,72,37,0
28.227758,28.734087,75,55,0
28.227758,28.734087,72,47,0
28.734087,28.987251,74,48,0
28.734087,28.987251,70,40,0
28.987251,29.24926,72,46,0
28.987251,29.24926,69,39,0
29.24926,29.511269,70,45,0
29.24926,29.511269,67,38,0
29.511269,30.05365,69,43,0
29.511269,30.05365,65,36,0
30.05365,30.334024,67,39,0
30.05365,30.334024,64,33,0
30.334024,30.923677,72,38,0
30.334024,30.923677,63,32,0
30.923677,31.232956,71,38,0
30.923677,31.232956,62,32,0
30.334024,31.232956,67,32,0
32.16079,32.34987,71,40,0
32.34987,32.42404,74,40,0
32.432285,32.685448,74,49,0
32.685448,32.818783,71,44,0
32.952114,33.14119,83,40,0
33.14119,33.215366,86,40,0
33.22361,33.476772,86,49,0
33.476772,33.607777,83,44,0
32.952114,33.607777,74,33,0
33.73878,33.927856,72,46,0
33.927856,34.002033,75,46,0
34.010277,34.26344,75,56,0
34.26344,34.394444,72,50,0
34.525448,34.714523,83,50,0
34.525448,34.714523,74,43,0
34.714523,34.776337,86,50,0
34.714523,34.776337,77,42,0
34.79694,35.050106,86,63,0
34.79694,35.050106,77,54,0
35.050106,35.179977,83,57,0
35.050106,35.179977,74,48,0
35.309845,35.498924,83,60,0
35.309845,35.498924,74,52,0
35.498924,35.560734,87,62,0
35.498924,35.560734,79,52,0
35.58134,35.834503,87,78,0
35.58134,35.834503,79,66,0
35.834503,35.963814,84,70,0
35.834503,35.963814,75,58,0
36.093124,36.2822,84,77,0
36.093124,36.2822,81,64,0
36.2822,36.35557,93,79,0
36.2822,36.35557,84,69,0
36.363724,36.623463,93,98,0
36.363724,36.623463,84,83,0
36.623463,36.694893,89,89,0
36.623463,36.694893,81,74,0
36.909176,36.98532,94,112,0
36.909176,36.98532,82,94,0
37.213745,37.374172,94,112,0
37.213745,37.374172,82,94,0
37.855457,38.393574,85,62,0
37.855457,38.393574,73,52,0
38.393574,38.662632,77,58,0
38.393574,38.662632,89,58,0
38.662632,39.19589,85,62,0
38.662632,39.19589,73,52,0
39.19589,39.45809,82,62,0
39.19589,39.45809,70,52,0
39.45809,39.71896,77,57,0
39.45809,39.71896,65,48,0
39.71896,40.24725,82,63,0
39.71896,40.24725,70,53,0
40.24725,40.50812,73,55,0
40.24725,40.50812,85,66,0
40.50812,41.03641,89,69,0
40.50812,41.03641,77,58,0
41.03641,41.29728,73,67,0
41.03641,41.29728,85,79,0
41.29728,41.823112,70,68,0
41.29728,41.823112,82,81,0
41.823112,42.08512,65,68,0
41.823112,42.08512,77,82,0
42.08512,42.616383,82,86,0
42.08512,42.616383,70,72,0
42.616383,42.87839,73,66,0
42.616383,42.87839,85,78,0
42.87839,43.41437,89,72,0
42.87839,43.41437,77,60,0
43.41437,43.698734,80,42,0
43.41437,43.698734,92,51,0
43.698734,43.983093,73,40,0
43.698734,43.983093,85,48,0
44.267452,44.334717,82,40,0
44.267452,44.334717,70,34,0
44.53651,44.603775,82,40,0
44.53651,44.603775,70,34,0
45.074627,45.164314,73,37,0
45.164314,45.253662,70,30,0
45.253662,45.34269,65,30,0
45.34269,45.4314,73,37,0
45.4314,45.5198,70,31,0
45.5198,45.607883,65,31,0
45.607883,45.695602,77,37,0
45.695602,45.782997,73,31,0
45.782997,45.870087,70,30,0
45.870087,45.957043,73,37,0
45.957043,46.044,70,31,0
46.044,46.130955,65,31,0
46.130955,46.217915,73,37,0
46.217915,46.30487,70,31,0
46.30487,46.391827,65,31,0
46.391827,46.478783,70,39,0
46.478783,46.567924,65,32,0
46.567924,46.65925,61,32,0
46.65925,46.746204,65,40,0
46.746204,46.83316,61,34,0
46.83316,46.920116,58,36,0
46.920116,47.007072,70,49,0
46.920116,47.007072,61,49,0
47.007072,47.09403,58,42,0
47.09403,47.180984,61,42,0
47.180984,47.267944,70,50,0
47.267944,47.357082,61,43,0
47.357082,47.448406,58,43,0
47.448406,47.535362,73,54,0
47.448406,47.535362,65,54,0
47.535362,47.62232,61,46,0
47.62232,47.70928,65,51,0
47.70928,47.796234,77,63,0
47.796234,47.88319,73,55,0
47.88319,47.970146,70,59,0
47.970146,48.057102,77,71,0
48.057102,48.145424,73,60,0
48.145424,48.23511,70,64,0
48.23511,48.322445,73,77,0
48.322445,48.409782,70,67,0
48.409782,48.49712,65,61,0
48.49712,48.584454,70,83,0
48.584454,48.67179,65,68,0
48.67179,48.75913,61,58,0
48.75913,48.846462,70,64,0
48.846462,48.936214,65,54,0
48.936214,49.02838,61,46,0
49.02838,49.115715,65,60,0
49.115715,49.203053,61,45,0
49.203053,49.29039,58,44,0
49.29039,49.377724,68,44,0
49.29039,49.377724,61,31,0
49.377724,49.46506,56,36,0
49.46506,49.5524,61,35,0
49.5524,49.643723,68,41,0
49.643723,49.735046,65,34,0
49.735046,49.82637,61,32,0
49.82637,49.921158,73,39,0
49.82637,49.921158,65,27,0
49.921158,50.01594,61,32,0
50.01594,50.11073,65,31,0
50.11073,50.205517,77,37,0
50.205517,50.300304,73,26,0
50.300304,50.39509,68,26,0
50.39509,50.489876,77,30,0
50.489876,50.584663,73,25,0
50.584663,50.67945,68,25,0
50.67945,50.782543,80,30,0
50.782543,50.885635,77,25,0
50.885635,50.98615,73,25,0
50.988728,51.298008,73,40,0
50.988728,51.298008,65,33,0
51.6063,52.15341,89,57,0
51.6063,52.15341,77,48,0
52.15341,52.42357,80,53,0
52.15341,52.42357,92,53,0
52.42357,52.95682,89,57,0
52.42357,52.95682,77,48,0
52.95682,53.219025,85,57,0
52.95682,53.219025,73,48,0
53.219025,53.479897,80,52,0
53.219025,53.479897,68,44,0
53.479897,54.008186,85,58,0
53.479897,54.008186,73,49,0
54.008186,54.269054,77,50,0
54.008186,54.269054,89,60,0
54.269054,54.797344,92,63,0
54.269054,54.797344,80,53,0
54.797344,55.058216,77,61,0
54.797344,55.058216,89,72,0
55.058216,55.58405,73,68,0
55.058216,55.58405,85,81,0
55.58405,55.846058,70,68,0
55.58405,55.846058,82,82,0
55.846058,56.37732,77,86,0
55.846058,56.37732,65,72,0
56.37732,56.639328,70,66,0
56.37732,56.639328,82,78,0
56.639328,57.17531,85,72,0
56.639328,57.17531,73,60,0
57.17531,57.459667,77,42,0
57.17531,57.459667,89,51,0
57.459667,57.744026,70,40,0
57.459667,57.744026,82,48,0
58.02839,58.0961,73,40,0
58.02839,58.0961,61,34,0
58.297894,58.365158,73,40,0
58.297894,58.365158,61,34,0
58.56695,58.65664,61,37,0
58.65664,58.746323,65,32,0
58.746323,58.83601,73,32,0
58.925697,59.015076,73,30,0
59.015076,59.104137,68,30,0
58.83601,59.104137,77,37,0
59.192886,59.28132,73,31,0
59.28132,59.369423,68,31,0
59.104137,59.369423,77,37,0
59.369423,59.457157,77,37,0
59.457157,59.544582,73,31,0
59.544582,59.631706,68,30,0
59.369423,59.631706,80,37,0
59.631706,59.718662,77,37,0
59.718662,59.80562,73,31,0
59.80562,59.89258,68,31,0
59.89258,59.979534,77,37,0
59.979534,60.06649,73,31,0
60.06649,60.153446,68,31,0
60.153446,60.240402,73,38,0
60.240402,60.32916,68,32,0
60.32916,60.420486,65,31,0
60.420486,60.507824,68,39,0
60.420486,60.507824,61,34,0
60.507824,60.59478,56,33,0
60.59478,60.681736,61,34,0
60.681736,60.768692,73,41,0
60.681736,60.768692,65,32,0
60.768692,60.855648,61,35,0
60.855648,60.942604,65,35,0
60.942604,61.029564,73,50,0
61.029564,61.11832,68,40,0
61.11832,61.209644,65,43,0
61.209644,61.29698,77,54,0
61.29698,61.38394,73,47,0
61.38394,61.470898,68,50,0
61.470898,61.557854,80,62,0
61.557854,61.64481,77,53,0
61.64481,61.731766,73,55,0
61.731766,61.81872,77,67,0
61.81872,61.906803,73,60,0
61.906803,61.994247,77,62,0
61.99649,62.084034,77,72,0
62.084034,62.171368,73,63,0
62.171368,62.258705,65,60,0
62.258705,62.346043,73,75,0
62.346043,62.433376,70,66,0
62.433376,62.520714,65,52,0
62.520714,62.60805,73,55,0
62.60805,62.69738,70,45,0
62.69738,62.789543,65,42,0
62.789543,62.877304,70,60,0
62.877304,62.964638,65,45,0
62.964638,63.051975,61,44,0
63.051975,63.139313,65,44,0
63.139313,63.226646,61,36,0
63.226646,63.313984,58,35,0
63.313984,63.40496,65,41,0
63.40496,63.496284,61,34,0
63.496284,63.58761,58,32,0
63.58761,63.68209,70,39,0
63.58761,63.68209,61,27,0
63.68209,63.77688,58,32,0
63.77688,63.871666,61,31,0
63.871666,63.96645,73,37,0
63.96645,64.06124,70,26,0
64.06124,64.15602,65,26,0
64.15602,64.25081,73,30,0
64.25081,64.3456,70,25,0
64.3456,64.440384,65,25,0
64.440384,64.537,77,30,0
64.537,64.63362,73,25,0
64.63362,64.730576,65,25,0
64.730576,65.02971,70,40,0
65.662605,65.71277,70,50,0
65.86327,65.91344,73,44,0
66.06394,66.11361,72,50,0
66.26262,66.31295,65,43,0
66.46396,66.513466,77,50,0
66.66198,66.71149,75,45,0
66.86,66.90886,73,45,0
67.055435,67.10681,72,45,0
67.26092,67.31026,70,50,0
67.45828,67.50763,73,43,0
67.655655,67.7042,72,50,0
67.84983,67.90034,68,42,0
68.05185,68.10119,72,50,0
68.24922,68.301125,67,42,0
68.45683,68.87062,65,46,0
68.97443,69.07477,72,50,0
68.97443,69.07477,68,42,0
68.97443,69.07477,65,42,0
69.177155,69.27749,72,48,0
69.177155,69.27749,68,40,0
69.177155,69.27749,65,40,0
69.37953,69.47854,72,49,0
69.37953,69.47854,70,41,0
69.37953,69.47854,64,41,0
69.58307,69.6876,72,51,0
69.58307,69.6876,64,42,0
69.58307,69.6876,67,42,0
69.58307,69.6876,70,42,0
69.789986,69.8877,72,57,0
69.789986,69.8877,67,46,0
69.789986,69.8877,64,46,0
69.989746,70.08843,72,57,0
69.989746,70.08843,67,47,0
69.989746,70.08843,64,47,0
70.18777,70.28711,72,58,0
70.18777,70.28711,68,48,0
70.18777,70.28711,65,48,0
70.39349,70.49987,72,59,0
70.39349,70.49987,70,49,0
70.39349,70.49987,64,49,0
70.603325,70.70233,72,70,0
70.603325,70.70233,68,58,0
70.603325,70.70233,65,58,0
70.80614,70.90547,77,65,0
70.80614,70.90547,65,54,0
70.80614,70.90547,68,54,0
70.80614,70.90547,72,54,0
71.00288,71.098114,77,66,0
71.00288,71.098114,65,56,0
71.00288,71.098114,70,56,0
71.00288,71.098114,72,56,0
71.19913,71.30013,76,69,0
71.19913,71.30013,64,57,0
71.19913,71.30013,70,57,0
71.19913,71.30013,72,57,0
71.40183,71.50051,77,82,0
71.40183,71.50051,72,69,0
71.40183,71.50051,65,69,0
71.604324,71.70813,75,73,0
71.604324,71.70813,72,60,0
71.604324,71.70813,65,60,0
71.80948,71.91083,73,75,0
71.80948,71.91083,70,62,0
71.80948,71.91083,65,62,0
72.01836,72.16259,72,76,0
72.01836,72.16259,69,63,0
72.01836,72.16259,63,63,0
72.16259,72.262924,82,90,0
72.16259,72.262924,77,76,0
72.16259,72.262924,70,76,0
72.36326,72.46359,73,72,0
72.36326,72.46359,85,85,0
72.36326,72.46359,82,72,0
72.36326,72.46359,77,72,0
72.56393,72.66326,72,72,0
72.56393,72.66326,84,85,0
72.56393,72.66326,81,85,0
72.56393,72.66326,77,72,0
72.7626,72.86361,65,72,0
72.7626,72.86361,77,85,0
72.7626,72.86361,72,72,0
72.7626,72.86361,69,72,0
72.979,73.078,77,83,0
72.979,73.078,82,83,0
72.979,73.078,89,99,0
73.17702,73.276024,75,71,0
73.17702,73.276024,87,84,0
73.17702,73.276024,81,71,0
73.17702,73.276024,77,71,0
73.37504,73.472755,73,71,0
73.37504,73.472755,85,84,0
73.37504,73.472755,82,71,0
73.37504,73.472755,77,71,0
73.57047,73.67322,72,71,0
73.57047,73.67322,77,71,0
73.57047,73.67322,84,84,0
73.775955,73.87464,70,76,0
73.775955,73.87464,82,90,0
73.775955,73.87464,77,76,0
73.775955,73.87464,73,76,0
73.97332,74.07201,73,69,0
73.97332,74.07201,85,82,0
73.97332,74.07201,82,69,0
73.97332,74.07201,77,69,0
74.17069,74.26778,72,76,0
74.17069,74.26778,77,76,0
74.17069,74.26778,84,90,0
74.36487,74.46587,65,68,0
74.36487,74.46587,77,81,0
74.36487,74.46587,72,68,0
74.36487,74.46587,69,68,0
74.57782,74.6765,77,92,0
74.57782,74.6765,89,109,0
74.775185,74.87899,73,78,0
74.775185,74.87899,82,78,0
74.775185,74.87899,85,92,0
74.982796,75.39659,72,85,0
74.982796,75.39659,81,85,0
74.982796,75.39659,84,101,0
75.39659,75.49528,77,92,0
75.39659,75.49528,89,109,0
75.593956,75.69777,82,78,0
75.593956,75.69777,85,92,0
75.801575,76.22745,81,85,0
75.801575,76.22745,84,101,0
76.22745,76.659904,69,81,0
76.22745,76.659904,72,97,0
76.659904,77.11289,57,80,0
76.659904,77.11289,60,98,0
77.11289,77.62184,45,85,0
77.11289,77.62184,48,101,0
77.62184,79.28796,33,85,0
77.62184,79.28796,36,101,0
80.477974,80.52017,65,81,0
80.52017,80.56236,67,81,0
80.56236,80.60453,69,81,0
80.60453,80.667694,70,81,0
80.667694,80.73081,72,82,0
80.73081,80.79384,74,82,0
80.79384,80.856834,76,83,0
80.856834,80.898766,77,83,0
80.898766,80.9407,79,83,0
80.9407,80.98258,81,84,0
80.98258,81.04535,82,84,0
81.04535,81.108086,84,84,0
81.108086,81.170715,86,85,0
81.170715,81.23319,88,85,0
81.23319,81.27497,89,86,0
81.27497,81.317116,91,88,0
81.317116,81.35964,93,89,0
81.35964,81.42414,94,90,0
81.42414,81.48951,96,92,0
81.48951,81.555786,98,94,0
81.555786,81.62299,100,96,0
81.62299,81.690865,101,98,0
82.50211,82.552956,78,81,0
82.50211,82.552956,75,68,0
82.552956,82.603806,69,70,0
82.603806,82.65484,78,79,0
82.603806,82.65484,75,67,0
82.65484,82.706276,69,70,0
82.706276,82.757416,78,79,0
82.706276,82.757416,75,67,0
82.757416,82.80825,69,70,0
82.80825,82.85878,78,79,0
82.80825,82.85878,75,67,0
82.85878,82.909035,69,70,0
82.909035,82.958984,78,80,0
82.909035,82.958984,75,68,0
82.958984,83.008995,69,70,0
83.008995,83.05931,78,77,0
83.008995,83.05931,75,65,0
83.05931,83.10997,69,70,0
83.89591,84.084984,74,50,0
84.084984,84.159164,77,50,0
84.084984,84.159164,69,42,0
84.167404,84.42057,77,62,0
84.167404,84.42057,72,53,0
84.42057,84.549324,74,55,0
84.42057,84.549324,65,46,0
84.67808,84.86716,70,50,0
84.86716,84.94133,74,50,0
84.86716,84.94133,66,42,0
84.94957,85.202736,74,62,0
84.94957,85.202736,69,53,0
85.202736,85.33317,70,55,0
85.202736,85.33317,62,46,0
85.46361,85.65268,67,52,0
85.65268,85.72686,70,53,0
85.65268,85.72686,62,44,0
85.7351,85.988266,70,66,0
85.7351,85.988266,65,57,0
85.988266,86.114845,67,61,0
85.988266,86.114845,58,51,0
86.241425,86.430504,67,57,0
86.241425,86.430504,58,47,0
86.430504,86.503876,69,58,0
86.430504,86.503876,63,48,0
86.512024,86.76519,69,72,0
86.512024,86.76519,63,62,0
86.76519,86.89677,70,66,0
86.76519,86.89677,58,55,0
87.02835,87.21742,70,61,0
87.21742,87.2916,72,63,0
87.02835,87.29984,65,51,0
87.29984,87.55301,72,79,0
87.29984,87.55301,65,67,0
87.55301,87.68121,74,72,0
87.55301,87.68121,65,60,0
87.55301,87.68121,70,60,0
87.80942,87.99849,74,67,0
87.99849,88.07186,75,70,0
87.80942,88.08002,70,56,0
88.08002,88.33975,75,88,0
88.08002,88.33975,70,75,0
88.33975,88.41119,77,82,0
88.33975,88.41119,73,68,0
88.33975,88.41119,70,68,0
88.33975,88.41119,65,68,0
88.625465,88.701614,79,94,0
88.625465,88.701614,67,79,0
88.625465,88.701614,70,79,0
88.625465,88.701614,72,79,0
88.93004,89.08629,72,94,0
88.93004,89.08629,69,79,0
88.93004,89.08629,60,79,0
89.55504,89.74411,86,50,0
89.74411,89.81829,89,50,0
89.74411,89.81829,81,42,0
89.82653,90.0797,89,62,0
89.82653,90.0797,81,53,0
90.0797,90.20901,86,55,0
89.95311,90.20901,77,46,0
90.33832,90.52739,82,50,0
90.52739,90.60157,86,50,0
90.52739,90.60157,78,42,0
90.60981,90.862976,86,62,0
90.862976,90.99229,82,55,0
90.73639,90.99229,74,46,0
91.1216,91.31067,79,52,0
91.31067,91.38485,82,53,0
91.31067,91.38485,74,44,0
91.39309,91.646255,82,66,0
91.646255,91.77446,79,61,0
91.51967,91.77446,70,51,0
91.902664,92.091736,79,57,0
91.902664,92.091736,70,47,0
92.091736,92.16511,81,58,0
92.091736,92.16511,75,48,0
92.17326,92.42642,81,72,0
92.30933,92.43647,75,62,0
92.42642,92.560356,82,66,0
92.42642,92.560356,70,55,0
92.69428,92.883354,82,61,0
92.883354,92.957535,84,63,0
92.69428,92.965775,77,51,0
92.965775,93.21894,84,79,0
93.21894,93.34937,86,72,0
93.092354,93.34937,77,67,0
93.47981,93.668884,87,67,0
93.668884,93.742256,88,70,0
93.47981,93.750404,82,56,0
93.88028,94.01015,82,76,0
93.750404,94.01015,88,88,0
94.01015,94.08157,89,82,0
94.01015,94.08157,81,68,0
94.29586,94.372,91,94,0
94.29586,94.372,79,79,0
94.29586,94.372,82,79,0
94.29586,94.372,88,79,0
94.60043,94.76086,89,94,0
94.60043,94.76086,81,79,0
94.60043,94.76086,77,79,0
95.24214,95.43121,74,50,0
95.24214,95.43121,71,43,0
95.43121,95.49303,77,50,0
95.43121,95.49303,74,42,0
95.51363,95.7668,77,62,0
95.51363,95.7668,74,53,0
95.7668,95.90073,74,55,0
95.7668,95.90073,71,46,0
96.03465,96.22373,74,50,0
96.03465,96.22373,71,43,0
96.22373,96.285545,79,50,0
96.22373,96.285545,75,42,0
96.30615,96.55931,79,62,0
96.30615,96.55931,75,53,0
96.55931,96.6859,75,55,0
96.55931,96.6859,72,46,0
96.81248,97.00156,72,50,0
96.81248,97.00156,69,43,0
97.00156,97.06337,75,50,0
97.00156,97.06337,72,42,0
97.08397,97.337135,75,62,0
97.08397,97.337135,72,53,0
97.337135,97.47047,72,55,0
97.337135,97.47047,69,46,0
97.210556,97.47047,63,34,0
97.603806,97.79288,72,50,0
97.603806,97.79288,69,43,0
97.79288,97.85469,77,50,0
97.79288,97.85469,73,42,0
97.8753,98.12846,77,62,0
97.8753,98.12846,74,53,0
98.12846,98.25667,74,55,0
98.12846,98.25667,70,46,0
98.00188,98.25667,65,34,0
98.38487,98.573944,60,45,0
98.38487,98.573944,57,38,0
98.573944,98.63576,63,45,0
98.573944,98.63576,60,37,0
98.656364,99.1627,63,55,0
98.656364,99.1627,60,47,0
99.1627,99.415855,62,48,0
99.1627,99.415855,58,40,0
99.415855,99.677864,60,46,0
99.415855,99.677864,57,39,0
99.677864,99.93987,58,45,0
99.677864,99.93987,55,38,0
99.93987,100.482254,57,43,0
99.93987,100.482254,53,36,0
100.482254,100.762634,55,39,0
100.482254,100.762634,52,33,0
100.762634,101.35229,60,38,0
100.762634,101.35229,51,32,0
101.35229,101.66156,59,38,0
101.35229,101.66156,50,32,0
100.762634,101.66156,55,32,0
102.5894,102.77847,59,40,0
102.77847,102.852646,62,40,0
102.86089,103.11406,62,49,0
103.11406,103.245636,59,44,0
103.37721,103.56629,71,40,0
103.56629,103.640465,74,40,0
103.37721,103.77318,62,33,0
103.648705,103.90187,74,49,0
103.90187,104.02846,71,44,0
103.77529,104.02846,62,33,0
104.15504,104.34411,84,46,0
104.34411,104.41829,87,46,0
104.42653,104.679695,87,56,0
104.679695,104.81185,84,50,0
104.94401,105.13309,71,50,0
104.94401,105.13309,62,43,0
105.13309,105.1949,74,50,0
105.13309,105.1949,65,42,0
105.21551,105.468666,74,62,0
105.21551,105.468666,65,53,0
105.468666,105.59525,71,55,0
105.468666,105.59525,62,46,0
105.72183,105.91091,71,57,0
105.72183,105.91091,62,49,0
105.91091,105.972725,75,57,0
105.91091,105.972725,67,48,0
105.993324,106.24649,75,72,0
105.993324,106.24649,67,61,0
106.24649,106.37692,72,66,0
106.24649,106.37692,63,54,0
106.50736,106.696434,72,71,0
106.50736,106.696434,69,59,0
106.696434,106.769806,81,75,0
106.696434,106.769806,72,65,0
106.77796,107.0377,81,94,0
106.77796,107.0377,72,80,0
107.0377,107.10913,77,87,0
107.0377,107.10913,69,72,0
107.32341,107.39956,82,108,0
107.32341,107.39956,70,90,0
107.62798,107.78841,82,108,0
107.62798,107.78841,70,90,0
108.26969,108.45877,86,50,0
108.26969,108.45877,83,43,0
108.45877,108.520584,89,50,0
108.45877,108.520584,86,42,0
108.54118,108.79435,89,62,0
108.54118,108.79435,86,53,0
108.79435,108.92768,86,55,0
108.79435,108.92768,83,46,0
109.06102,109.25009,86,50,0
109.06102,109.25009,83,43,0
109.25009,109.311905,91,50,0
109.25009,109.311905,87,42,0
109.33251,109.58568,91,62,0
109.33251,109.58568,87,53,0
109.58568,109.72142,87,55,0
109.58568,109.72142,84,46,0
109.85717,110.04624,84,50,0
109.85717,110.04624,81,43,0
110.04624,110.108055,87,50,0
110.04624,110.108055,84,42,0
110.12866,110.38183,87,62,0
110.12866,110.38183,84,53,0
110.38183,110.511696,84,55,0
110.38183,110.511696,81,46,0
110.25524,110.511696,75,39,0
110.64156,110.83064,84,50,0
110.64156,110.83064,81,43,0
110.83064,110.892456,89,50,0
110.83064,110.892456,85,42,0
110.91306,111.16622,89,62,0
110.91306,111.16622,86,53,0
111.16622,111.29281,86,55,0
111.16622,111.29281,82,46,0
111.03964,111.29281,77,39,0
111.41939,111.60847,72,45,0
111.41939,111.60847,69,38,0
111.60847,111.67028,75,45,0
111.60847,111.67028,72,37,0
111.69088,112.19721,75,55,0
111.69088,112.19721,72,47,0
112.19721,112.45038,74,48,0
112.19721,112.45038,70,40,0
112.45038,112.71239,72,46,0
112.45038,112.71239,69,39,0
112.71239,112.974396,70,45,0
112.71239,112.974396,67,38,0
112.974396,113.51678,69,43,0
112.974396,113.51678,65,36,0
113.51678,113.79715,67,39,0
113.51678,113.79715,64,33,0
113.79715,114.3868,72,38,0
113.79715,114.3868,63,32,0
114.3868,114.69608,71,38,0
114.3868,114.69608,62,32,0
113.79715,114.69608,67,32,0
115.62392,115.81299,71,40,0
115.81299,115.88717,74,40,0
115.89541,116.148575,74,49,0
116.148575,116.275154,71,44,0
116.40174,116.59081,59,40,0
116.59081,116.66499,62,40,0
116.40174,116.79981,50,33,0
116.67323,116.9264,62,49,0
116.9264,117.05973,59,44,0
116.79981,117.05973,50,33,0
117.19306,117.38214,84,46,0
117.38214,117.456314,87,46,0
117.464554,117.71772,87,56,0
117.71772,117.850464,84,50,0
117.98321,118.17228,83,50,0
117.98321,118.17228,74,43,0
118.17228,118.23409,86,50,0
118.17228,118.23409,77,42,0
118.2547,118.507866,86,62,0
118.2547,118.507866,77,53,0
118.507866,118.634445,83,56,0
118.507866,118.634445,74,47,0
118.76103,118.9501,83,59,0
118.76103,118.9501,74,51,0
118.9501,119.01192,87,60,0
118.9501,119.01192,79,50,0
119.032524,119.28569,87,75,0
119.032524,119.28569,79,63,0
119.28569,119.42205,84,68,0
119.28569,119.42205,75,56,0
119.55842,119.74749,84,77,0
119.55842,119.74749,81,63,0
119.74749,119.82086,93,80,0
119.74749,119.82086,84,69,0
119.82901,120.08875,93,101,0
119.82901,120.08875,84,85,0
120.08875,120.16018,89,93,0
120.08875,120.16018,81,77,0
120.374466,120.45061,94,117,0
120.374466,120.45061,82,99,0
120.67904,120.83946,94,117,0
120.67904,120.83946,82,99,0
121.32075,121.39689,71,35,0
121.32075,121.39689,59,28,0
121.62531,121.78574,71,35,0
121.62531,121.78574,59,28,0
122.26703,122.34317,94,117,0
122.26703,122.34317,82,99,0
122.571594,122.732025,94,117,0
122.571594,122.732025,82,99,0
123.2133,123.29267,71,31,0
123.2133,123.29267,59,25,0
123.53077,123.709335,71,30,0
123.53077,123.709335,59,25,0
124.24505,124.33126,70,28,0
124.24505,124.33126,58,23,0
124.58988,124.77506,70,27,0
124.58988,124.77506,58,22,0
125.33062,125.64531,62,31,0
125.64531,125.74496,66,28,0
125.7502,126.19796,66,33,0
126.19796,126.45437,62,28,0
126.710785,126.82797,71,28,0
126.710785,126.82797,59,22,0
127.179535,127.41391,71,27,0
127.179535,127.41391,59,22,0
128.11703,128.25096,71,28,0
128.11703,128.25096,59,22,0
128.65274,128.92061,71,27,0
128.65274,128.92061,59,22,0
129.72418,129.86191,71,46,0
129.72418,129.86191,59,39,0
130.00195,130.24481,71,47,0
130.00195,130.24481,59,39,0
130.24686,130.48972,71,51,0
130.24686,130.48972,59,43,0
130.49174,130.7346,71,55,0
130.49174,130.7346,59,45,0
130.73665,130.97878,71,59,0
130.73665,130.97878,59,50,0
130.9807,131.20215,71,65,0
130.9807,131.20215,59,55,0
131.20393,131.40862,83,72,0
131.20393,131.40862,71,60,0
131.41026,131.60048,83,79,0
131.41026,131.60048,71,66,0
131.60202,131.7795,83,87,0
131.60202,131.7795,71,73,0
131.78091,131.94975,83,81,0
131.78091,131.94975,71,96,0
131.95116,132.11832,95,97,0
131.95116,132.11832,83,81,0
132.11972,132.28526,95,97,0
132.11972,132.28526,83,82,0
132.28665,132.45062,95,98,0
132.28665,132.45062,83,83,0
132.452,132.61546,83,88,0
132.452,132.61546,95,105,0
132.61684,132.7803,83,83,0
132.61684,132.7803,95,99,0
132.78168,132.9723,83,84,0
132.78168,132.9723,95,100,0
132.9723,133.0609,94,109,0
132.9723,133.0609,82,92,0
133.15144,133.2429,94,109,0
133.15144,133.2429,82,92,0
133.62181,133.8109,62,40,0
133.8109,133.88347,65,40,0
133.89171,134.14647,65,49,0
134.14647,134.27304,62,44,0
134.14647,134.27304,53,33,0
134.01988,134.27304,60,46,0
134.38919,134.57828,74,40,0
134.57828,134.65117,77,40,0
134.65941,134.91385,77,49,0
134.91385,135.04044,74,44,0
134.91385,135.04044,65,33,0
134.78726,135.04044,72,33,0
135.18594,135.37505,86,34,0
135.37505,135.44792,89,34,0
135.45616,135.7106,89,41,0
135.7106,135.83719,86,37,0
135.7106,135.83719,77,28,0
135.58401,135.83719,84,35,0
0.5,0.68907577,58,34,0
0.5,0.68907577,62,40,0
0.68907577,0.7632516,60,40,0
0.68907577,0.7632516,53,34,0
0.7714934,1.0246578,57,42,0
0.7714934,1.0246578,60,50,0
1.0246578,1.1512401,58,37,0
1.0246578,1.1512401,62,44,0
1.2778224,1.4668981,55,34,0
1.2778224,1.4668981,58,40,0
1.4668981,1.541074,57,40,0
1.4668981,1.541074,50,34,0
1.5493157,1.8024802,54,42,0
1.5493157,1.8024802,57,50,0
1.8024802,1.9290625,55,37,0
1.8024802,1.9290625,58,44,0
2.0556448,2.2447205,51,35,0
2.0556448,2.2447205,55,42,0
2.2447205,2.3188963,53,42,0
2.2447205,2.3188963,46,36,0
2.3271382,2.5803027,50,45,0
2.3271382,2.5803027,53,54,0
2.5803027,2.7068849,51,41,0
2.5803027,2.7068849,55,48,0
2.833467,3.022543,51,38,0
2.833467,3.022543,55,45,0
3.022543,3.0959125,53,46,0
3.022543,3.0959125,48,39,0
3.1040647,3.3572292,48,49,0
3.3572292,3.4838114,50,44,0
3.1040647,3.4838114,53,58,0
3.6103935,3.7994695,50,49,0
3.7994695,3.8736453,45,42,0
3.6103935,3.881887,53,41,0
3.881887,4.1350517,45,53,0
4.1350517,4.261634,44,48,0
3.881887,4.261634,53,64,0
4.388216,4.577292,53,53,0
4.388216,4.577292,44,45,0
4.577292,4.6506615,51,46,0
4.577292,4.6506615,43,46,0
4.6588135,4.918554,43,59,0
4.6588135,4.918554,51,71,0
4.918554,4.9899826,41,49,0
4.918554,4.9899826,49,56,0
5.2042685,5.280411,48,62,0
5.2042685,5.280411,40,58,0
5.508837,5.665087,53,62,0
5.508837,5.665087,41,58,0
6.133837,6.3229127,70,34,0
6.133837,6.3229127,74,40,0
6.3229127,6.3970885,72,40,0
6.3229127,6.3970885,65,34,0
6.40533,6.658495,69,42,0
6.40533,6.658495,72,50,0
6.658495,6.7889295,70,37,0
6.658495,6.7889295,74,44,0
6.9193645,7.10844,67,34,0
6.9193645,7.10844,70,40,0
7.10844,7.1826158,69,40,0
7.10844,7.1826158,62,34,0
7.190858,7.444022,66,42,0
7.190858,7.444022,69,50,0
7.444022,7.5706043,67,37,0
7.444022,7.5706043,70,44,0
7.697187,7.8862624,63,35,0
7.697187,7.8862624,67,42,0
7.8862624,7.9604383,65,42,0
7.8862624,7.9604383,58,36,0
7.96868,8.221845,62,45,0
7.96868,8.221845,65,54,0
8.221845,8.351155,63,41,0
8.221845,8.351155,67,48,0
8.480465,8.66954,63,38,0
8.480465,8.66954,67,45,0
8.66954,8.74291,65,46,0
8.66954,8.74291,60,39,0
8.751062,9.004227,60,49,0
9.004227,9.13081,62,44,0
8.751062,9.13081,65,58,0
9.257392,9.446467,74,49,0
9.446467,9.520643,69,42,0
9.446467,9.520643,72,42,0
9.528885,9.782049,69,53,0
9.528885,9.782049,72,64,0
9.782049,9.9130535,68,48,0
9.782049,9.9130535,70,52,0
10.044058,10.233133,67,45,0
10.233133,10.306503,66,46,0
10.044058,10.314655,70,53,0
10.314655,10.574396,66,59,0
10.314655,10.574396,70,71,0
10.574396,10.645824,65,49,0
10.574396,10.645824,72,56,0
10.86011,10.936253,60,62,0
10.86011,10.936253,48,58,0
11.164679,11.325107,65,62,0
11.164679,11.325107,53,58,0
11.80639,12.593057,53,34,0
11.80639,12.593057,65,40,0
12.593057,13.370879,41,34,0
12.593057,13.370879,53,40,0
13.370879,14.161023,41,34,0
13.370879,14.161023,53,40,0
14.161023,14.938846,29,30,0
14.161023,14.938846,41,36,0
14.938846,15.463504,30,30,0
14.938846,15.463504,42,36,0
15.463504,15.969832,43,34,0
15.463504,15.969832,31,28,0
15.969832,16.23184,45,34,0
15.969832,16.23184,33,28,0
16.23184,16.493849,46,33,0
16.23184,16.493849,34,28,0
16.493849,16.755857,47,33,0
16.493849,16.755857,35,28,0
16.755857,17.316607,48,33,0
16.755857,17.316607,36,28,0
17.316607,17.59698,36,32,0
17.59698,18.215536,43,32,0
19.921194,20.11027,43,32,0
20.11027,20.184446,47,32,0
20.192688,20.445852,47,40,0
20.445852,20.57978,43,35,0
19.921194,20.57978,55,27,0
20.713709,20.902786,72,36,0
20.902786,20.976961,75,36,0
20.985203,21.238367,75,46,0
21.238367,21.36495,72,40,0
21.491531,22.281677,43,34,0
21.491531,22.281677,55,40,0
22.281677,23.064955,36,40,0
22.281677,23.064955,48,48,0
23.064955,23.595293,41,71,0
23.064955,23.595293,29,57,0
23.595293,23.666721,53,60,0
23.595293,23.666721,41,57,0
23.881008,23.95715,46,68,0
23.881008,23.95715,34,63,0
24.185575,24.346003,46,68,0
24.185575,24.346003,34,63,0
24.827288,25.613953,65,34,0
24.827288,25.613953,77,40,0
25.613953,26.391775,53,34,0
25.613953,26.391775,65,40,0
26.391775,27.178442,53,34,0
26.391775,27.178442,65,40,0
27.178442,27.956264,41,30,0
27.178442,27.956264,53,36,0
27.956264,28.480923,42,30,0
27.956264,28.480923,54,36,0
28.480923,28.734087,63,34,0
28.480923,28.734087,60,28,0
28.480923,28.734087,54,28,0
28.734087,28.987251,62,34,0
28.734087,28.987251,58,28,0
28.734087,28.987251,55,28,0
28.987251,29.24926,60,34,0
28.987251,29.24926,57,28,0
29.24926,29.511269,58,33,0
29.24926,29.511269,55,28,0
29.24926,29.511269,46,28,0
29.511269,29.773277,47,28,0
29.511269,30.05365,57,33,0
29.511269,30.05365,53,28,0
30.05365,30.334024,55,33,0
30.05365,30.334024,52,27,0
29.773277,30.334024,48,28,0
30.334024,30.614399,55,33,0
30.334024,30.614399,51,27,0
30.334024,30.923677,60,32,0
30.923677,31.232956,59,30,0
30.614399,31.232956,55,32,0
32.952114,33.14119,55,32,0
33.14119,33.215366,59,32,0
33.22361,33.476772,59,40,0
33.476772,33.607777,55,35,0
32.952114,33.607777,67,27,0
33.73878,33.927856,60,36,0
33.927856,34.002033,63,36,0
34.010277,34.26344,63,46,0
34.26344,34.394444,60,40,0
34.525448,35.309845,55,34,0
34.525448,35.309845,67,40,0
35.309845,36.093124,48,41,0
35.309845,36.093124,60,49,0
36.093124,36.909176,53,74,0
36.093124,36.909176,41,59,0
36.909176,36.98532,46,74,0
36.909176,36.98532,34,69,0
37.213745,37.374172,46,74,0
37.213745,37.374172,34,69,0
37.855457,37.989986,46,37,0
37.855457,37.989986,34,31,0
38.124516,38.259045,46,37,0
38.124516,38.259045,34,31,0
38.662632,38.75232,34,37,0
38.75232,38.841663,41,30,0
38.841663,38.93069,49,30,0
38.93069,39.019405,34,37,0
39.019405,39.107803,41,31,0
39.107803,39.19589,49,31,0
39.19589,39.283607,34,37,0
39.283607,39.371002,41,31,0
39.371002,39.45809,49,30,0
39.45809,39.545048,34,37,0
39.545048,39.632004,41,31,0
39.632004,39.71896,49,31,0
39.71896,39.805916,34,37,0
39.805916,39.89287,41,31,0
39.89287,39.979828,49,31,0
39.979828,40.066788,34,38,0
40.066788,40.155926,41,32,0
40.155926,40.24725,49,31,0
40.24725,40.334206,34,39,0
40.334206,40.421165,41,33,0
40.421165,40.50812,49,34,0
40.50812,40.595078,34,41,0
40.595078,40.682034,41,35,0
40.682034,40.76899,49,35,0
40.76899,40.855946,34,42,0
40.855946,40.945087,41,36,0
40.945087,41.03641,49,35,0
41.03641,41.123367,34,44,0
41.123367,41.210323,41,37,0
41.210323,41.29728,49,38,0
41.29728,41.384235,34,49,0
41.384235,41.47119,41,42,0
41.47119,41.55815,49,42,0
41.55815,41.645107,34,54,0
41.645107,41.73343,41,49,0
41.73343,41.823112,49,49,0
41.823112,41.91045,34,61,0
41.91045,41.997787,41,56,0
41.997787,42.08512,49,58,0
42.08512,42.17246,34,69,0
42.17246,42.259796,41,57,0
42.259796,42.34713,49,52,0
42.34713,42.434467,34,61,0
42.434467,42.52422,41,51,0
42.52422,42.616383,49,51,0
42.616383,42.70372,32,60,0
42.70372,42.791058,41,50,0
42.791058,42.87839,49,46,0
42.87839,42.96573,32,44,0
42.96573,43.053066,41,36,0
43.053066,43.1404,49,35,0
43.1404,43.231724,32,41,0
43.231724,43.323048,41,34,0
43.323048,43.41437,49,32,0
43.41437,43.50916,37,39,0
43.50916,43.603947,41,32,0
43.603947,43.698734,49,31,0
43.698734,43.793518,37,37,0
43.793518,43.888306,41,26,0
43.888306,43.983093,49,26,0
43.983093,44.07788,37,30,0
44.07788,44.17267,41,25,0
44.17267,44.267452,49,25,0
44.267452,44.80557,49,48,0
44.267452,44.80557,37,40,0
44.80557,45.074627,41,50,0
44.80557,45.074627,53,50,0
45.074627,45.607883,49,52,0
45.074627,45.607883,37,44,0
45.607883,45.870087,46,52,0
45.607883,45.870087,34,44,0
45.870087,46.130955,41,49,0
45.870087,46.130955,29,40,0
46.130955,46.65925,46,53,0
46.130955,46.65925,34,46,0
46.65925,46.920116,37,51,0
46.65925,46.920116,49,61,0
46.920116,47.448406,53,61,0
46.920116,47.448406,41,51,0
47.448406,47.70928,37,59,0
47.448406,47.70928,49,70,0
47.70928,48.23511,34,67,0
47.70928,48.23511,46,79,0
48.23511,48.49712,29,61,0
48.23511,48.49712,41,73,0
48.49712,49.02838,46,77,0
48.49712,49.02838,34,64,0
49.02838,49.29039,37,58,0
49.02838,49.29039,49,69,0
49.29039,49.82637,53,64,0
49.29039,49.82637,41,54,0
49.82637,50.11073,44,37,0
49.82637,50.11073,56,45,0
50.11073,50.39509,37,36,0
50.11073,50.39509,49,43,0
50.67945,50.834087,49,37,0
50.67945,50.834087,37,37,0
50.988728,51.143368,49,34,0
50.988728,51.143368,37,34,0
51.298008,51.4011,37,37,0
51.4011,51.504192,41,31,0
51.504192,51.6063,49,30,0
51.6063,51.700123,37,37,0
51.700123,51.792385,41,30,0
51.792385,51.88314,49,30,0
51.88314,51.973232,37,37,0
51.973232,52.063324,41,31,0
52.063324,52.15341,49,31,0
52.15341,52.243504,37,37,0
52.243504,52.33359,41,31,0
52.33359,52.42357,49,30,0
52.42357,52.513252,37,37,0
52.513252,52.6026,41,30,0
52.6026,52.691628,49,30,0
52.691628,52.78034,37,37,0
52.78034,52.868736,41,31,0
52.868736,52.95682,49,31,0
52.95682,53.044544,37,37,0
53.044544,53.131935,41,31,0
53.131935,53.219025,49,30,0
53.219025,53.30598,37,37,0
53.30598,53.392937,41,31,0
53.392937,53.479897,49,31,0
53.479897,53.566853,37,37,0
53.566853,53.65381,41,31,0
53.65381,53.740765,49,31,0
53.740765,53.82772,37,38,0
53.82772,53.916862,41,32,0
53.916862,54.008186,49,31,0
54.008186,54.095142,32,39,0
54.095142,54.1821,41,33,0
54.1821,54.269054,49,34,0
54.269054,54.35601,32,41,0
54.35601,54.442966,41,35,0
54.442966,54.529926,49,35,0
54.529926,54.616882,32,42,0
54.616882,54.70602,41,36,0
54.70602,54.797344,49,35,0
54.797344,54.8843,32,46,0
54.8843,54.97126,41,37,0
54.97126,55.058216,49,40,0
55.058216,55.145172,34,51,0
55.145172,55.23213,41,43,0
55.23213,55.319084,49,43,0
55.319084,55.40604,34,55,0
55.40604,55.49436,41,48,0
55.49436,55.58405,49,51,0
55.58405,55.671383,34,61,0
55.671383,55.75872,41,53,0
55.75872,55.846058,49,55,0
55.846058,55.93339,34,66,0
55.93339,56.02073,41,57,0
56.02073,56.108067,49,52,0
56.108067,56.1954,34,55,0
56.1954,56.285152,41,45,0
56.285152,56.37732,49,42,0
56.37732,56.464653,34,50,0
56.464653,56.55199,41,45,0
56.55199,56.639328,49,44,0
56.639328,56.72666,29,44,0
56.72666,56.814,41,36,0
56.814,56.901337,49,35,0
56.901337,56.99266,29,41,0
56.99266,57.083984,41,27,0
57.083984,57.17531,49,27,0
57.17531,57.270096,29,33,0
57.270096,57.36488,41,32,0
57.36488,57.459667,49,28,0
57.459667,57.554455,34,37,0
57.554455,57.649242,41,26,0
57.649242,57.744026,49,26,0
57.744026,58.02839,34,30,0
58.02839,58.56695,53,46,0
58.02839,58.56695,41,39,0
58.56695,58.83601,44,48,0
58.56695,58.83601,56,48,0
58.83601,59.369423,53,50,0
58.83601,59.369423,41,42,0
59.369423,59.631706,49,50,0
59.369423,59.631706,37,42,0
59.631706,59.89258,44,47,0
59.631706,59.89258,32,39,0
59.89258,60.420486,49,51,0
59.89258,60.420486,37,44,0
60.420486,60.681736,41,49,0
60.420486,60.681736,53,59,0
60.681736,61.209644,56,61,0
60.681736,61.209644,44,51,0
61.209644,61.470898,41,59,0
61.209644,61.470898,53,70,0
61.470898,61.99649,37,67,0
61.470898,61.99649,49,79,0
61.99649,62.258705,46,73,0
61.99649,62.258705,34,61,0
62.258705,62.789543,41,77,0
62.258705,62.789543,29,64,0
62.789543,63.051975,46,69,0
62.789543,63.051975,34,58,0
63.051975,63.58761,49,64,0
63.051975,63.58761,37,54,0
63.58761,63.871666,53,45,0
63.58761,63.871666,41,37,0
63.871666,64.15602,46,43,0
63.871666,64.15602,34,36,0
64.730576,64.82912,61,29,0
64.82912,64.92884,58,20,0
64.92884,65.02971,53,20,0
65.02971,65.1319,61,24,0
65.1319,65.23542,58,20,0
65.23542,65.34011,53,20,0
65.34011,65.44625,65,24,0
65.44625,65.55371,61,20,0
65.55371,65.662605,53,20,0
65.662605,65.71277,58,42,0
65.86327,65.91344,61,37,0
66.06394,66.11361,60,42,0
66.26262,66.31295,53,36,0
66.46396,66.513466,65,42,0
66.66198,66.71149,63,38,0
66.86,66.90886,61,38,0
67.055435,67.10681,60,38,0
67.26092,67.31026,58,42,0
67.45828,67.50763,61,36,0
67.655655,67.7042,60,42,0
67.84983,67.90034,56,35,0
68.05185,68.10119,60,42,0
68.24922,68.301125,55,35,0
68.45683,68.87062,53,39,0
68.87062,69.0246,53,55,0
68.87062,69.0246,41,46,0
69.07477,69.22732,56,49,0
69.07477,69.22732,44,41,0
69.27749,69.42903,55,57,0
69.27749,69.42903,43,48,0
69.47854,69.63533,48,50,0
69.47854,69.63533,36,41,0
69.6876,69.838844,60,61,0
69.6876,69.838844,48,51,0
69.8877,70.03909,58,57,0
69.8877,70.03909,46,48,0
70.08843,70.237434,56,58,0
70.08843,70.237434,44,49,0
70.28711,70.44668,55,60,0
70.28711,70.44668,43,50,0
70.49987,70.652824,53,69,0
70.49987,70.652824,41,57,0
70.70233,70.855804,56,60,0
70.70233,70.855804,44,50,0
70.90547,71.0505,55,73,0
70.90547,71.0505,43,60,0
71.098114,71.24963,60,61,0
71.098114,71.24963,48,50,0
71.30013,71.45117,57,75,0
71.30013,71.45117,45,63,0
71.50051,71.65623,53,65,0
71.50051,71.65623,41,54,0
71.70813,71.86015,58,79,0
71.70813,71.86015,46,66,0
71.91083,72.09047,60,68,0
71.91083,72.09047,48,56,0
72.16259,72.262924,49,78,0
72.262924,72.36326,61,69,0
72.36326,72.46359,46,78,0
72.46359,72.56393,58,68,0
72.56393,72.66326,41,78,0
72.66326,72.7626,53,67,0
72.7626,72.86361,39,78,0
72.86361,72.979,51,66,0
72.979,73.078,37,78,0
73.078,73.17702,49,67,0
73.17702,73.276024,36,78,0
73.276024,73.37504,48,67,0
73.37504,73.472755,34,73,0
73.472755,73.57047,46,62,0
73.57047,73.67322,33,73,0
73.67322,73.775955,45,61,0
73.775955,73.87464,34,75,0
73.87464,73.97332,46,63,0
73.97332,74.07201,34,73,0
74.07201,74.17069,46,65,0
74.17069,74.26778,33,74,0
74.26778,74.36487,45,62,0
74.36487,74.46587,39,73,0
74.46587,74.57782,51,60,0
74.57782,74.6765,37,71,0
74.6765,74.775185,49,61,0
74.775185,74.87899,34,70,0
74.87899,74.982796,46,63,0
74.982796,75.39659,53,75,0
74.982796,75.39659,41,75,0
75.39659,75.49528,61,71,0
75.49528,75.593956,73,61,0
75.593956,75.69777,58,70,0
75.69777,75.801575,70,63,0
76.00847,76.22745,77,80,0
76.43434,76.659904,65,80,0
76.87573,77.11289,53,80,0
77.34277,77.62184,41,80,0
77.93763,79.28796,29,89,0
79.28796,79.33466,29,65,0
79.33466,79.38116,31,65,0
79.38116,79.427414,33,66,0
79.427414,79.4964,34,66,0
79.4964,79.56488,36,67,0
79.56488,79.63288,38,68,0
79.63288,79.7004,40,69,0
79.7004,79.74515,41,69,0
79.74515,79.789696,43,70,0
79.789696,79.83404,45,70,0
79.83404,79.90016,46,71,0
79.90016,79.965836,48,72,0
79.965836,80.03107,50,73,0
80.03107,80.095856,52,73,0
80.095856,80.1388,53,74,0
80.1388,80.181564,55,75,0
80.181564,80.224075,57,75,0
80.224075,80.28763,58,76,0
80.28763,80.351166,60,77,0
80.351166,80.41459,62,77,0
80.41459,80.477974,64,78,0
81.23319,81.27497,65,60,0
81.27497,81.317116,67,61,0
81.317116,81.35964,69,62,0
81.35964,81.42414,70,63,0
81.42414,81.48951,72,64,0
81.48951,81.555786,74,65,0
81.555786,81.62299,76,67,0
81.62299,81.690865,77,68,0
82.50211,82.552956,53,66,0
82.552956,82.603806,63,58,0
82.603806,82.65484,53,66,0
82.65484,82.706276,63,58,0
82.706276,82.757416,53,66,0
82.757416,82.80825,63,58,0
82.80825,82.85878,53,66,0
82.85878,82.909035,63,58,0
82.909035,82.958984,53,66,0
82.958984,83.008995,63,57,0
83.008995,83.05931,53,65,0
83.05931,83.10997,63,58,0
83.89591,84.084984,58,34,0
83.89591,84.084984,62,40,0
84.084984,84.159164,60,40,0
84.084984,84.159164,53,34,0
84.167404,84.42057,57,42,0
84.167404,84.42057,60,50,0
84.42057,84.549324,58,37,0
84.42057,84.549324,62,44,0
84.67808,84.86716,55,34,0
84.67808,84.86716,58,40,0
84.86716,84.94133,57,40,0
84.86716,84.94133,50,34,0
84.94957,85.202736,54,42,0
84.94957,85.202736,57,50,0
85.202736,85.33317,55,37,0
85.202736,85.33317,58,44,0
85.46361,85.65268,51,35,0
85.46361,85.65268,55,42,0
85.65268,85.72686,53,42,0
85.65268,85.72686,46,36,0
85.7351,85.988266,50,45,0
85.7351,85.988266,53,54,0
85.988266,86.114845,51,41,0
85.988266,86.114845,55,48,0
86.241425,86.430504,51,38,0
86.241425,86.430504,55,45,0
86.430504,86.503876,53,46,0
86.430504,86.503876,48,39,0
86.512024,86.76519,48,49,0
86.76519,86.89677,50,44,0
86.512024,86.89677,53,58,0
87.02835,87.21742,50,49,0
87.21742,87.2916,45,42,0
87.02835,87.29984,53,41,0
87.29984,87.55301,45,53,0
87.55301,87.68121,44,48,0
87.29984,87.68121,53,64,0
87.80942,87.99849,53,53,0
87.80942,87.99849,44,45,0
87.99849,88.07186,51,46,0
87.99849,88.07186,43,46,0
88.08002,88.33975,43,59,0
88.08002,88.33975,51,71,0
88.33975,88.41119,41,49,0
88.33975,88.41119,49,56,0
88.625465,88.701614,48,62,0
88.625465,88.701614,40,58,0
88.93004,89.08629,53,62,0
88.93004,89.08629,41,58,0
89.55504,89.74411,70,34,0
89.55504,89.74411,74,40,0
89.74411,89.81829,72,40,0
89.74411,89.81829,65,34,0
89.82653,90.0797,69,42,0
89.82653,90.0797,72,50,0
90.0797,90.20901,70,37,0
90.0797,90.20901,74,44,0
90.33832,90.52739,67,34,0
90.33832,90.52739,70,40,0
90.52739,90.60157,69,40,0
90.52739,90.60157,62,34,0
90.60981,90.862976,66,42,0
90.60981,90.862976,69,50,0
90.862976,90.99229,67,37,0
90.862976,90.99229,70,44,0
91.1216,91.31067,63,35,0
91.1216,91.31067,67,42,0
91.31067,91.38485,65,42,0
91.31067,91.38485,58,36,0
91.39309,91.646255,62,45,0
91.39309,91.646255,65,54,0
91.646255,91.77446,63,41,0
91.646255,91.77446,67,48,0
91.902664,92.091736,63,38,0
91.902664,92.091736,67,45,0
92.091736,92.16511,65,46,0
92.091736,92.16511,60,39,0
92.17326,92.42642,60,49,0
92.42642,92.560356,62,44,0
92.17326,92.560356,65,58,0
92.69428,92.883354,74,49,0
92.883354,92.957535,69,42,0
92.883354,92.957535,72,42,0
92.965775,93.21894,69,53,0
92.965775,93.21894,72,64,0
93.21894,93.34937,68,48,0
93.21894,93.34937,70,52,0
93.47981,93.668884,67,45,0
93.668884,93.742256,66,46,0
93.47981,93.750404,70,53,0
93.750404,94.01015,66,59,0
93.750404,94.01015,70,71,0
94.01015,94.08157,65,49,0
94.01015,94.08157,72,56,0
94.29586,94.372,60,62,0
94.29586,94.372,48,58,0
94.60043,94.76086,65,62,0
94.60043,94.76086,53,58,0
95.24214,95.64021,53,34,0
95.24214,95.64021,65,40,0
95.64021,95.7668,53,34,0
95.7668,95.90073,65,39,0
96.03465,96.43273,41,34,0
96.03465,96.43273,53,40,0
96.43273,96.55931,41,34,0
96.55931,96.6859,53,39,0
96.81248,97.210556,41,34,0
96.81248,97.210556,53,40,0
97.210556,97.337135,41,34,0
97.337135,97.47047,53,39,0
97.603806,98.00188,29,30,0
97.603806,98.00188,41,36,0
98.00188,98.12846,29,34,0
98.12846,98.25667,41,39,0
98.38487,98.90953,30,30,0
98.38487,98.90953,42,36,0
98.90953,99.677864,43,34,0
98.90953,99.677864,31,28,0
99.677864,99.93987,45,33,0
99.677864,99.93987,33,28,0
99.93987,100.20188,46,33,0
99.93987,100.20188,34,28,0
100.20188,100.482254,47,33,0
100.20188,100.482254,35,28,0
100.482254,100.762634,48,33,0
100.482254,100.762634,36,28,0
100.762634,101.04301,36,32,0
101.04301,101.66156,43,32,0
103.37721,103.56629,43,32,0
103.56629,103.640465,47,32,0
103.648705,103.90187,47,40,0
103.90187,104.02846,43,35,0
103.37721,104.15504,55,27,0
104.15504,104.34411,72,36,0
104.34411,104.41829,75,36,0
104.42653,104.679695,75,46,0
104.679695,104.81185,72,40,0
104.94401,105.33997,43,34,0
104.94401,105.33997,55,40,0
105.34209,105.468666,43,34,0
105.468666,105.59525,55,39,0
105.72183,106.11991,36,39,0
105.72183,106.11991,48,46,0
106.11991,106.24649,36,54,0
106.24649,106.37692,48,64,0
106.50736,106.90566,41,69,0
106.50736,106.90566,29,55,0
106.90783,107.0377,41,75,0
107.0377,107.10913,53,86,0
107.32341,107.39956,46,71,0
107.32341,107.39956,34,66,0
107.62798,107.78841,46,71,0
107.62798,107.78841,34,66,0
108.26969,108.66566,65,34,0
108.26969,108.66566,77,40,0
108.66777,108.79435,65,34,0
108.79435,108.92768,77,39,0
109.06102,109.456985,65,40,0
109.06102,109.456985,53,34,0
109.45909,109.58568,53,34,0
109.58568,109.72142,65,39,0
109.85717,110.253136,53,34,0
109.85717,110.253136,65,40,0
110.25524,110.38183,53,34,0
110.38183,110.511696,65,39,0
110.64156,111.03753,53,36,0
110.64156,111.03753,41,30,0
111.03964,111.16622,41,34,0
111.16622,111.29281,53,39,0
111.41939,111.938774,54,30,0
111.41939,111.938774,63,36,0
111.41939,111.938774,60,30,0
111.944046,112.19721,63,34,0
111.944046,112.19721,60,28,0
111.944046,112.19721,54,28,0
112.19721,112.45038,58,28,0
112.19721,112.45038,55,28,0
112.19721,112.45038,62,34,0
112.45038,112.58138,60,34,0
112.45038,112.58138,57,28,0
112.58138,112.71239,45,28,0
112.71239,112.974396,46,28,0
112.71239,112.974396,55,28,0
112.71239,112.974396,58,33,0
112.974396,113.236404,47,28,0
112.974396,113.51678,57,33,0
112.974396,113.51678,53,28,0
113.51678,113.79715,52,27,0
113.51678,113.79715,55,33,0
113.236404,113.79715,48,28,0
113.79715,114.07752,55,33,0
113.79715,114.07752,51,27,0
113.79715,114.3868,60,32,0
114.3868,114.69608,59,30,0
114.07752,114.69608,55,32,0
116.40174,116.59081,31,32,0
116.59081,116.66499,35,32,0
116.67323,116.9264,35,40,0
116.9264,117.05973,31,35,0
116.40174,117.19306,43,27,0
117.19306,117.38214,72,36,0
117.38214,117.456314,75,36,0
117.464554,117.71772,75,46,0
117.71772,117.850464,72,40,0
117.98321,118.38128,55,34,0
117.98321,118.38128,67,40,0
118.38128,118.507866,55,34,0
118.507866,118.634445,67,40,0
118.76103,119.1591,48,40,0
118.76103,119.1591,60,48,0
119.1591,119.28569,48,55,0
119.28569,119.42205,60,64,0
119.55842,119.958885,53,74,0
119.55842,119.958885,41,59,0
119.958885,120.08875,41,70,0
120.08875,120.16018,53,78,0
120.374466,120.45061,46,78,0
120.374466,120.45061,34,72,0
120.67904,120.83946,46,78,0
120.67904,120.83946,34,72,0
121.32075,121.39689,47,23,0
121.32075,121.39689,35,21,0
121.62531,121.78574,47,23,0
121.62531,121.78574,35,21,0
122.26703,122.34317,46,78,0
122.26703,122.34317,34,72,0
122.571594,122.732025,46,78,0
122.571594,122.732025,34,72,0
123.2133,123.29267,47,20,0
123.2133,123.29267,35,18,0
123.53077,123.709335,47,19,0
123.53077,123.709335,35,18,0
124.24505,124.33126,46,18,0
124.24505,124.33126,34,17,0
124.58988,124.77506,46,18,0
124.58988,124.77506,34,17,0
126.710785,126.82797,47,18,0
126.710785,126.82797,35,16,0
127.179535,127.41391,47,17,0
127.179535,127.41391,35,16,0
128.11703,128.25096,47,18,0
128.11703,128.25096,35,16,0
128.65274,128.92061,47,17,0
128.65274,128.92061,35,16,0
129.72418,129.86191,47,30,0
129.72418,129.86191,35,25,0
130.00195,130.24481,47,41,0
130.00195,130.24481,35,34,0
130.24686,130.48972,47,45,0
130.24686,130.48972,35,38,0
130.49174,130.7346,47,51,0
130.49174,130.7346,35,42,0
130.73665,130.97878,47,55,0
130.73665,130.97878,35,46,0
130.9807,131.20215,47,61,0
130.9807,131.20215,35,52,0
131.20393,131.40862,47,66,0
131.20393,131.40862,35,55,0
131.41026,131.60048,47,72,0
131.41026,131.60048,35,60,0
131.60202,131.7795,47,77,0
131.60202,131.7795,35,65,0
131.78091,131.94975,47,83,0
131.78091,131.94975,35,70,0
131.95116,132.11832,47,80,0
131.95116,132.11832,35,67,0
132.11972,132.28526,47,83,0
132.11972,132.28526,35,70,0
132.28665,132.45062,47,84,0
132.28665,132.45062,35,71,0
132.452,132.61546,47,86,0
132.452,132.61546,35,72,0
132.61684,132.7803,47,82,0
132.61684,132.7803,35,70,0
132.78168,132.9723,47,83,0
132.78168,132.9723,35,70,0
132.9723,133.0609,46,99,0
132.9723,133.0609,34,84,0
133.15144,133.2429,46,99,0
133.15144,133.2429,34,84,0
133.62181,133.8109,58,32,0
133.8109,133.88347,53,32,0
133.89171,134.14647,57,40,0
134.14647,134.27304,58,35,0
134.38919,134.57828,70,32,0
134.57828,134.65117,65,32,0
134.65941,134.91385,69,40,0
134.91385,135.04044,70,35,0
135.18594,135.37505,82,27,0
135.37505,135.44792,77,27,0
135.45616,135.7106,81,34,0
135.7106,135.83719,82,29,0
