start_time,end_time,note_value,velocity,instrument_program_number
1.274787,1.3580277,58,42,0
1.3580277,1.4412684,57,40,0
1.4412684,1.5245092,58,45,0
1.5245092,1.641514,53,39,0
1.274787,1.641514,62,50,0
1.641514,1.7169162,65,42,0
1.641514,1.7169162,62,35,0
2.043659,2.1190612,62,38,0
2.043659,2.1190612,58,32,0
2.847949,2.9311898,58,42,0
2.9311898,3.0144305,57,40,0
3.0144305,3.0976713,58,45,0
3.0976713,3.214676,53,39,0
2.847949,3.214676,62,50,0
3.214676,3.2900782,65,42,0
3.214676,3.2900782,62,35,0
3.616821,3.692223,62,38,0
3.616821,3.692223,58,32,0
4.421111,4.524754,58,42,0
4.421111,4.609553,62,50,0
4.515332,4.618975,57,40,0
4.609553,4.7131963,58,46,0
4.703774,4.797995,53,40,0
4.797995,4.899098,62,44,0
4.797995,4.9818187,65,53,0
4.889907,4.9910097,61,42,0
4.9818187,5.0829215,62,49,0
5.0737305,5.165642,58,42,0
5.165642,5.2652197,65,47,0
5.165642,5.346692,70,56,0
5.256167,5.3557444,64,45,0
5.346692,5.4462695,65,51,0
5.437217,5.527742,62,45,0
5.527742,5.626132,70,49,0
5.527742,5.706633,74,59,0
5.6171875,5.7155776,69,47,0
5.706633,5.805023,70,54,0
5.7960787,5.885524,65,47,0
5.885524,5.9857063,74,52,0
5.885524,6.0676737,77,62,0
5.9765987,6.076781,73,50,0
6.0676737,6.1699257,74,57,0
6.158748,6.2705216,70,49,0
6.2705216,7.370094,82,72,0
7.370094,7.4617248,81,60,0
7.4617248,7.5533557,82,57,0
7.5533557,7.6449866,84,60,0
7.6449866,7.747586,82,54,0
7.747586,7.936028,81,60,0
7.936028,8.12447,79,51,0
8.12447,8.312912,77,54,0
8.312912,8.501354,75,50,0
8.501354,8.689796,74,59,0
8.689796,8.878238,72,48,0
8.878238,9.06668,79,56,0
9.06668,9.27063,77,47,0
9.27063,9.6714325,75,54,0
9.6714325,10.072234,74,47,0
10.4677515,10.56663,69,58,0
10.56663,10.66551,70,54,0
10.66551,10.764389,72,58,0
10.764389,10.863268,70,54,0
10.863268,11.052304,68,60,0
11.052304,11.241341,67,54,0
11.241341,11.430376,65,66,0
11.430376,11.625769,63,61,0
11.625769,11.814804,62,69,0
11.814804,12.00384,60,62,0
12.00384,12.192877,63,73,0
12.192877,12.396724,57,63,0
12.396724,12.501472,58,79,0
12.606221,12.695666,62,68,0
12.695666,12.785112,60,65,0
12.785112,12.8745575,58,71,0
12.8745575,12.964003,57,65,0
12.964003,13.053449,58,71,0
13.053449,13.142894,55,65,0
13.142894,13.251432,53,79,0
13.355817,13.445262,67,68,0
13.445262,13.534707,65,65,0
13.534707,13.624153,63,71,0
13.624153,13.713598,62,65,0
13.713598,13.803044,63,71,0
13.803044,13.892489,60,65,0
13.892489,14.001028,58,79,0
14.10505,14.194495,74,68,0
14.194495,14.283941,72,65,0
14.283941,14.373386,70,71,0
14.373386,14.462832,69,65,0
14.462832,14.552278,70,71,0
14.552278,14.641723,67,65,0
14.641723,14.750261,65,79,0
14.854283,14.943729,79,78,0
14.943729,15.0331745,77,74,0
15.0331745,15.12262,75,81,0
15.12262,15.212066,74,74,0
15.212066,15.301511,75,81,0
15.301511,15.390957,72,74,0
15.390957,15.499495,70,90,0
15.608033,15.700797,72,68,0
15.700797,15.793562,74,68,0
15.793562,15.886327,75,77,0
15.886327,15.979091,77,70,0
15.979091,16.071856,79,70,0
16.071856,16.164663,81,71,0
16.164663,16.187998,82,73,0
16.187998,16.211308,84,65,0
16.211308,16.2578,82,81,0
16.2578,16.35034,81,72,0
16.35034,16.442202,82,73,0
16.442202,16.533373,84,74,0
16.533373,16.556164,86,74,0
16.556164,16.579142,87,66,0
16.579142,16.67179,86,83,0
16.625298,16.718596,84,75,0
16.718596,16.813274,86,76,0
16.813274,16.921812,88,76,0
16.921812,17.021019,89,92,0
17.318638,17.417843,65,79,0
21.80454,22.196697,71,56,0
20.697393,22.196697,77,75,0
22.196697,22.574055,75,53,0
22.196697,22.574055,72,44,0
22.574055,22.96316,69,41,0
22.96316,23.33353,70,55,0
22.574055,23.33353,74,49,0
23.33353,23.7039,67,41,0
23.7039,24.07427,69,55,0
23.33353,24.07427,72,49,0
24.07427,24.46262,71,50,0
24.07427,24.46262,65,42,0
24.46262,24.552603,72,68,0
24.552603,24.642584,67,40,0
24.552603,24.642584,64,34,0
24.642584,24.732567,72,62,0
24.732567,24.822548,67,39,0
24.732567,24.822548,64,33,0
24.822548,24.91253,72,64,0
24.91253,25.002512,67,41,0
24.91253,25.002512,64,34,0
25.002512,25.092495,74,68,0
25.092495,25.186714,67,40,0
25.092495,25.186714,64,34,0
25.186714,25.276428,76,62,0
25.276428,25.36614,70,45,0
25.276428,25.36614,67,38,0
25.36614,25.455854,72,68,0
25.455854,25.545567,70,45,0
25.455854,25.545567,67,38,0
25.545567,25.63528,74,68,0
25.63528,25.724993,70,45,0
25.63528,25.724993,67,38,0
25.724993,25.814707,76,70,0
25.814707,25.908632,70,45,0
25.814707,25.908632,67,38,0
25.908632,25.998613,77,68,0
25.998613,26.088596,69,40,0
25.998613,26.088596,65,34,0
26.088596,26.178577,77,62,0
26.178577,26.26856,69,39,0
26.178577,26.26856,65,33,0
26.26856,26.358541,77,64,0
26.358541,26.448524,69,41,0
26.358541,26.448524,65,34,0
26.448524,26.538506,76,68,0
26.538506,26.632727,69,40,0
26.538506,26.632727,65,34,0
26.632727,26.72244,74,62,0
26.72244,26.812153,68,45,0
26.72244,26.812153,65,38,0
26.812153,26.901867,72,68,0
26.901867,26.99158,68,45,0
26.901867,26.99158,65,38,0
26.99158,27.081291,71,68,0
27.081291,27.171005,68,45,0
27.081291,27.171005,65,38,0
27.171005,27.260717,74,70,0
27.260717,27.354645,68,45,0
27.260717,27.354645,65,38,0
27.354645,27.444626,72,68,0
27.444626,27.534609,67,40,0
27.444626,27.534609,64,34,0
27.534609,27.62459,71,62,0
27.62459,27.714573,67,39,0
27.62459,27.714573,64,33,0
27.714573,27.804554,72,64,0
27.804554,27.894537,67,41,0
27.804554,27.894537,64,34,0
27.894537,27.984518,74,68,0
27.984518,28.07874,67,40,0
27.984518,28.07874,64,34,0
28.07874,28.168451,76,62,0
28.168451,28.258165,70,45,0
28.168451,28.258165,67,38,0
28.258165,28.347878,72,68,0
28.347878,28.437592,70,45,0
28.347878,28.437592,67,38,0
28.437592,28.527304,74,68,0
28.527304,28.617018,70,45,0
28.527304,28.617018,67,38,0
28.617018,28.70673,76,70,0
28.70673,28.800655,70,45,0
28.70673,28.800655,67,38,0
28.800655,28.890638,77,68,0
28.890638,28.98062,69,40,0
28.890638,28.98062,65,34,0
28.98062,29.070602,77,62,0
29.070602,29.160583,69,39,0
29.070602,29.160583,65,33,0
29.160583,29.250566,77,64,0
29.250566,29.340548,69,41,0
29.250566,29.340548,65,34,0
29.340548,29.43053,76,68,0
29.43053,29.524752,69,40,0
29.43053,29.524752,65,34,0
29.524752,29.614464,74,62,0
29.614464,29.704178,68,45,0
29.614464,29.704178,65,38,0
29.704178,29.79389,72,68,0
29.79389,29.883602,68,45,0
29.79389,29.883602,65,38,0
29.883602,29.973316,71,68,0
29.973316,30.063028,68,45,0
29.973316,30.063028,65,38,0
30.063028,30.152742,74,70,0
30.152742,30.246668,68,45,0
30.152742,30.246668,65,38,0
30.246668,30.336382,72,78,0
30.336382,30.426094,67,45,0
30.336382,30.426094,64,38,0
30.426094,30.515806,72,68,0
30.515806,30.60552,67,45,0
30.515806,30.60552,64,38,0
30.60552,30.695232,71,68,0
30.695232,30.784946,68,45,0
30.695232,30.784946,65,38,0
30.784946,30.874659,74,70,0
30.874659,30.968586,68,45,0
30.874659,30.968586,65,38,0
30.968586,31.058298,72,76,0
31.058298,31.14801,67,45,0
31.058298,31.14801,64,38,0
31.14801,31.237724,72,68,0
31.237724,31.327436,67,45,0
31.237724,31.327436,64,38,0
31.327436,31.41715,71,68,0
31.41715,31.506863,68,45,0
31.41715,31.506863,65,38,0
31.506863,31.596577,74,70,0
31.596577,31.699175,68,45,0
31.596577,31.699175,65,38,0
31.699175,31.7931,72,70,0
31.699175,31.7931,67,59,0
31.699175,31.7931,64,59,0
31.7931,31.89608,60,35,0
31.887028,31.98741,62,40,0
31.978264,32.078625,64,35,0
32.069504,32.169514,65,40,0
32.16045,32.2601,67,35,0
32.251064,32.350258,69,40,0
32.341278,32.440105,71,33,0
32.4311,32.530197,72,40,0
32.521187,32.62051,71,33,0
32.611473,32.71087,72,40,0
32.701836,32.80123,71,33,0
32.792194,32.891594,72,40,0
32.882557,32.981956,71,34,0
32.97292,33.073807,72,40,0
33.06328,33.168545,71,33,0
33.168545,33.909786,72,43,0
33.168545,33.909786,69,38,0
33.909786,34.268047,69,49,0
34.268047,34.627132,77,47,0
34.627132,34.9864,72,49,0
34.627132,34.9864,69,41,0
34.9864,35.359497,77,36,0
34.9864,35.359497,81,43,0
35.359497,35.717434,72,50,0
35.359497,35.717434,69,42,0
35.717434,36.087833,81,36,0
35.717434,36.087833,84,43,0
36.087833,36.82908,72,43,0
36.087833,36.82908,69,38,0
36.82908,37.187336,69,49,0
37.187336,37.54642,77,46,0
37.54642,37.90569,72,49,0
37.54642,37.90569,69,41,0
37.90569,38.278786,77,36,0
37.90569,38.278786,81,43,0
38.278786,38.636723,72,50,0
38.278786,38.636723,69,42,0
38.636723,39.007122,81,36,0
38.636723,39.007122,84,43,0
39.007122,39.736057,78,49,0
39.007122,39.736057,69,41,0
39.007122,39.736057,72,41,0
39.007122,39.736057,74,49,0
40.82258,41.17972,78,70,0
41.17972,41.533714,81,68,0
41.533714,42.245903,84,66,0
41.891922,42.60954,78,72,0
42.96042,43.32186,73,66,0
42.60954,43.67274,79,75,0
42.245903,43.67274,82,73,0
43.67274,44.037483,77,57,0
43.67274,44.037483,81,67,0
43.32186,44.037483,72,74,0
44.037483,44.393566,79,72,0
44.037483,44.393566,74,61,0
44.037483,44.393566,70,61,0
44.393566,44.787148,76,64,0
44.393566,44.787148,70,53,0
44.393566,44.787148,67,53,0
44.787148,44.96625,77,77,0
44.787148,44.96625,69,64,0
44.787148,44.96625,65,64,0
45.503563,46.22874,65,73,0
45.503563,46.23643,69,88,0
46.23643,46.601337,62,57,0
46.23643,46.609104,65,68,0
46.609104,46.803905,62,70,0
46.609104,46.803905,58,59,0
46.99871,47.545826,70,88,0
46.99871,47.545826,67,73,0
47.545826,47.728195,69,68,0
47.545826,47.728195,65,57,0
47.728195,48.0931,64,64,0
47.728195,48.10087,67,77,0
48.10087,48.2872,64,68,0
48.10087,48.2872,60,57,0
48.473537,49.195404,69,73,0
48.473537,49.20305,72,88,0
49.20305,49.567955,65,57,0
49.20305,49.575718,69,68,0
49.575718,49.769894,65,70,0
49.575718,49.769894,62,59,0
49.96407,50.51118,74,88,0
49.96407,50.51118,70,73,0
50.51118,50.693554,72,68,0
50.51118,50.693554,69,57,0
50.693554,51.05846,67,64,0
50.693554,51.066223,70,77,0
51.066223,51.25256,67,68,0
51.066223,51.25256,64,57,0
51.438896,51.98435,79,88,0
51.438896,51.98435,70,73,0
51.98435,52.172436,77,68,0
51.98435,52.172436,69,57,0
52.172436,52.714607,76,88,0
52.172436,52.714607,67,73,0
52.714607,52.903286,74,68,0
52.714607,52.903286,65,57,0
52.903286,53.264732,72,60,0
52.903286,53.264732,64,51,0
53.264732,53.62618,70,52,0
53.264732,53.62618,58,44,0
53.62618,53.99092,69,58,0
53.62618,53.99092,57,49,0
53.99092,54.35566,67,46,0
53.99092,54.35566,61,39,0
54.35566,54.7204,65,53,0
54.35566,54.7204,62,45,0
54.7204,55.106255,62,48,0
54.7204,55.106255,55,40,0
54.7204,55.106255,53,40,0
55.46989,55.656227,60,38,0
55.46989,55.656227,57,32,0
55.46989,55.656227,53,32,0
56.207306,56.399,60,37,0
56.207306,56.399,48,31,0
56.207306,56.399,52,31,0
56.207306,56.399,55,31,0
56.96569,57.317253,48,29,0
56.96569,57.317253,53,29,0
56.96569,57.317253,57,35,0
57.50598,57.890095,69,66,0
57.50598,57.890095,65,55,0
57.890095,57.987812,69,51,0
57.890095,57.987812,65,43,0
58.266804,58.357437,65,49,0
58.266804,58.357437,62,41,0
58.630997,58.73304,62,45,0
58.630997,58.73304,58,38,0
59.00037,59.375896,70,73,0
59.00037,59.375896,67,60,0
59.375896,59.473618,69,51,0
59.375896,59.473618,65,43,0
59.752605,59.84324,67,49,0
59.752605,59.84324,64,41,0
60.11736,60.218033,64,45,0
60.11736,60.218033,60,38,0
60.483994,60.85952,72,72,0
60.483994,60.85952,69,60,0
60.85952,60.95724,72,56,0
60.85952,60.95724,69,47,0
61.23623,61.326862,69,53,0
61.23623,61.326862,65,45,0
61.600426,61.702465,65,49,0
61.600426,61.702465,62,41,0
61.969795,62.345325,74,84,0
61.969795,62.345325,70,68,0
62.345325,62.443043,72,58,0
62.345325,62.443043,69,49,0
62.722034,62.812668,70,55,0
62.722034,62.812668,67,47,0
63.08679,63.192795,67,51,0
63.08679,63.192795,64,43,0
63.464092,63.83962,79,96,0
63.464092,63.83962,70,79,0
63.83962,63.94488,77,67,0
63.83962,63.94488,69,56,0
64.21544,64.590965,76,96,0
64.21544,64.590965,67,79,0
64.590965,64.68868,74,67,0
64.590965,64.68868,65,56,0
64.98843,65.08943,72,52,0
64.98843,65.08943,64,44,0
65.398056,65.50715,70,46,0
65.398056,65.50715,58,39,0
65.616234,65.71428,69,54,0
65.71428,65.81232,57,46,0
65.81232,65.910355,61,43,0
65.910355,66.00839,64,43,0
66.00839,66.10633,69,53,0
66.10633,66.20395,73,42,0
66.20395,66.30125,76,42,0
66.30125,66.39823,80,42,0
66.39823,66.4949,81,49,0
66.4949,66.59121,80,39,0
66.59121,66.68762,81,42,0
66.68762,66.7845,80,38,0
66.7845,66.88181,81,48,0
66.88181,66.979614,76,38,0
66.979614,67.07789,73,38,0
67.07789,67.18698,69,38,0
67.28438,67.381744,57,46,0
67.381744,67.47883,62,43,0
67.47883,67.57569,65,43,0
67.57569,67.67236,69,53,0
67.67236,67.76883,74,42,0
67.76883,67.865005,77,42,0
67.865005,67.961,80,42,0
67.961,68.05685,81,49,0
68.05685,68.152916,80,39,0
68.152916,68.24907,81,42,0
68.24907,68.345505,80,38,0
68.345505,68.44201,81,48,0
68.44201,68.53878,77,38,0
68.53878,68.63556,74,38,0
68.63556,68.74505,69,38,0
68.84151,68.93797,56,46,0
68.93797,69.03443,59,43,0
69.03443,69.130226,62,43,0
69.130226,69.22577,65,50,0
69.22577,69.32127,68,42,0
69.32127,69.41651,71,42,0
69.41651,69.51175,74,42,0
69.51175,69.606674,77,49,0
69.606674,69.70147,74,41,0
69.70147,69.79656,80,48,0
69.79656,69.89196,77,41,0
69.89196,69.98766,74,48,0
69.98766,70.08373,71,45,0
70.08373,70.179886,68,42,0
70.179886,70.29266,65,39,0
70.38885,70.48462,64,48,0
70.48462,70.58014,67,50,0
70.58014,70.67538,70,51,0
70.67538,70.770355,73,53,0
70.770355,70.865036,76,55,0
70.865036,70.95967,79,57,0
70.95967,71.05431,82,59,0
71.05431,71.14895,85,65,0
71.14895,71.24358,88,57,0
71.24358,71.33533,76,64,0
71.33533,71.42707,88,56,0
71.42707,71.518814,76,64,0
71.518814,71.61056,88,58,0
71.61056,71.7023,76,64,0
71.7023,71.80002,88,59,0
71.80002,71.89176,77,74,0
71.89176,71.983505,89,59,0
71.983505,72.07525,76,67,0
72.07525,72.16699,88,54,0
72.16699,72.258736,77,66,0
72.258736,72.35048,89,57,0
72.35048,72.44222,70,59,0
72.44222,72.54026,82,50,0
72.54026,72.63172,69,79,0
72.63172,72.72319,81,54,0
72.72319,72.81465,76,65,0
72.81465,72.90611,88,57,0
72.90611,72.99758,77,68,0
72.99758,73.08904,89,60,0
73.08904,73.180504,70,67,0
73.180504,73.27635,82,58,0
73.27635,73.36781,69,81,0
73.36781,73.45928,81,58,0
73.45928,73.55074,76,64,0
73.55074,73.642204,88,59,0
73.642204,73.733665,77,67,0
73.733665,73.825134,89,55,0
73.825134,73.916595,70,62,0
73.916595,74.01463,82,51,0
74.01463,74.1061,69,72,0
74.1061,74.19756,81,52,0
74.19756,74.289024,76,64,0
74.289024,74.38049,88,54,0
74.38049,74.471954,77,64,0
74.471954,74.563416,89,51,0
74.563416,74.65488,70,60,0
74.65488,74.75389,82,51,0
74.75389,74.84535,69,83,0
74.84535,74.93681,81,53,0
74.93681,75.02828,67,62,0
75.02828,75.11974,79,54,0
75.11974,75.211205,65,62,0
75.211205,75.30267,77,54,0
75.30267,75.394135,64,62,0
75.394135,75.48877,76,53,0
75.48877,75.579956,62,81,0
75.579956,75.67114,74,53,0
75.67114,75.76233,60,60,0
75.76233,75.853516,72,52,0
75.853516,75.9447,58,59,0
75.9447,76.03588,70,52,0
76.03588,76.12707,57,59,0
76.12707,76.22201,69,50,0
76.22201,76.31347,55,79,0
76.31347,76.40494,67,50,0
76.40494,76.4964,53,59,0
76.4964,76.58786,65,49,0
76.58786,76.67932,52,59,0
76.67932,76.77079,64,49,0
76.77079,76.86225,50,59,0
76.86225,76.96094,62,51,0
76.96094,77.05296,48,79,0
77.05296,77.14498,60,49,0
77.14498,77.23701,46,59,0
77.23701,77.32903,58,50,0
77.32903,77.42106,45,59,0
77.42106,77.513084,57,48,0
77.513084,77.60511,43,58,0
77.60511,77.713806,55,49,0
77.713806,77.806114,41,64,0
77.713806,77.806114,53,76,0
77.89842,77.99072,52,49,0
77.99072,78.08303,60,42,0
78.08303,78.17422,53,49,0
78.17422,78.2654,60,41,0
78.2654,78.35659,58,49,0
78.35659,78.44778,60,42,0
78.44778,78.53896,57,49,0
78.53896,78.63015,60,41,0
78.63015,78.72133,52,49,0
78.72133,78.812515,60,42,0
78.812515,78.9037,53,49,0
78.9037,78.99489,60,43,0
78.99489,79.086075,58,49,0
79.086075,79.17726,60,40,0
79.17726,79.26929,57,49,0
79.26929,79.361305,60,41,0
79.361305,79.45333,52,49,0
79.45333,79.54536,60,42,0
79.54536,79.63738,53,49,0
79.63738,79.72941,60,43,0
79.72941,79.821434,58,49,0
79.821434,79.91346,60,40,0
79.91346,80.00464,57,56,0
80.00464,80.095825,60,45,0
80.095825,80.18701,49,60,0
80.18701,80.2782,61,52,0
80.2782,80.369385,50,61,0
80.369385,80.46057,62,49,0
80.46057,80.55176,52,67,0
80.55176,80.6435,64,60,0
80.6435,80.73524,53,71,0
80.73524,80.82698,65,62,0
80.82698,80.918724,54,70,0
80.918724,81.01047,66,64,0
81.01047,81.10221,55,70,0
81.10221,81.193954,67,64,0
81.193954,81.2857,57,74,0
81.2857,81.37744,69,65,0
81.37744,81.469185,58,82,0
81.469185,81.56093,70,71,0
81.56093,81.65267,60,79,0
81.65267,81.744415,72,70,0
81.744415,81.83616,62,83,0
81.83616,81.9279,74,72,0
81.9279,82.019646,60,81,0
82.019646,82.11642,72,69,0
82.11642,82.20733,58,84,0
82.20733,82.29823,70,69,0
82.29823,82.389145,57,81,0
82.389145,82.48005,69,69,0
82.48005,82.57096,55,79,0
82.57096,82.66187,67,69,0
82.66187,82.75278,53,78,0
82.75278,82.84369,65,65,0
82.84369,82.93543,52,79,0
82.93543,83.027176,64,69,0
83.027176,83.11892,50,77,0
83.11892,83.21477,62,65,0
83.21477,83.306786,48,77,0
83.306786,83.39881,60,67,0
83.39881,83.49084,52,75,0
83.49084,83.58286,64,66,0
83.58286,83.95096,53,79,0
83.58286,83.95096,65,79,0
84.87461,85.06942,53,39,0
84.31906,85.06942,57,34,0
84.31906,85.06942,60,40,0
85.62157,85.81131,56,40,0
85.06942,85.81131,58,39,0
85.06942,85.81131,61,46,0
85.81131,85.99424,54,45,0
85.99424,86.17716,53,40,0
85.81131,86.17716,58,32,0
85.81131,86.17716,60,32,0
86.17716,86.36009,54,46,0
86.36009,86.55553,52,40,0
86.17716,86.55553,58,33,0
86.17716,86.55553,60,33,0
86.55553,87.10599,53,39,0
86.55553,87.10599,57,39,0
86.55553,87.10599,60,46,0
87.289474,87.84503,69,52,0
87.84503,88.03983,65,50,0
87.289474,88.03983,57,44,0
87.289474,88.03983,60,52,0
88.03983,88.59198,70,52,0
88.59198,88.78172,68,52,0
88.03983,88.78172,58,50,0
88.03983,88.78172,61,59,0
88.78172,88.96465,66,58,0
88.96465,89.14758,65,52,0
88.78172,89.14758,58,41,0
88.78172,89.14758,61,41,0
89.14758,89.330505,66,59,0
89.330505,89.52595,64,52,0
89.14758,89.52595,58,42,0
89.14758,89.52595,61,42,0
89.52595,90.0764,57,50,0
89.52595,90.0764,60,50,0
89.52595,90.0764,65,59,0
90.25987,90.4428,67,53,0
90.4428,90.625725,65,46,0
90.25987,90.625725,58,37,0
90.25987,90.625725,61,37,0
90.625725,90.80902,67,51,0
90.80902,91.00411,64,44,0
90.625725,91.00411,58,36,0
90.625725,91.00411,61,36,0
91.00411,91.554565,57,42,0
91.00411,91.554565,60,42,0
91.00411,91.554565,65,49,0
91.73805,91.92101,66,43,0
91.92101,92.10394,65,39,0
91.73805,92.10394,58,30,0
91.73805,92.10394,61,30,0
92.10394,92.286865,66,44,0
92.286865,92.481575,64,39,0
92.10394,92.481575,58,31,0
92.10394,92.481575,61,31,0
92.481575,93.03273,65,88,0
92.481575,93.03273,53,74,0
93.03273,93.13207,67,79,0
93.03273,93.13207,55,67,0
93.23141,93.78019,69,89,0
93.23141,93.78019,57,74,0
93.78019,93.878876,70,81,0
93.78019,93.878876,58,68,0
93.977554,94.52467,72,91,0
93.977554,94.52467,60,77,0
94.52467,94.62335,74,74,0
94.52467,94.62335,62,62,0
94.72204,94.8135,76,84,0
94.72204,94.8135,64,71,0
94.90497,94.99643,77,81,0
94.90497,94.99643,65,68,0
95.08789,95.17936,79,87,0
95.08789,95.17936,67,74,0
95.27082,95.381935,81,83,0
95.27082,95.381935,69,69,0
95.49304,96.0442,82,96,0
95.49304,96.0442,70,81,0
96.0442,96.14353,81,84,0
96.0442,96.14353,69,71,0
96.242874,96.79166,79,94,0
96.242874,96.79166,67,78,0
96.79166,96.890335,77,83,0
96.79166,96.890335,65,70,0
96.98902,97.53613,76,92,0
96.98902,97.53613,64,78,0
97.53613,97.63482,74,74,0
97.53613,97.63482,62,62,0
97.733505,97.82497,72,83,0
97.733505,97.82497,60,70,0
97.91643,98.0079,70,78,0
97.91643,98.0079,58,66,0
98.09936,98.19082,69,83,0
98.09936,98.19082,57,70,0
98.28229,98.38195,67,77,0
98.28229,98.38195,55,64,0
98.48162,98.58129,65,90,0
98.48162,98.58129,53,78,0
98.880295,98.97147,64,53,0
98.97147,99.06266,63,45,0
99.06266,99.15385,64,53,0
99.15385,99.25319,60,43,0
99.25319,99.34465,65,57,0
99.61904,99.709946,76,53,0
99.709946,99.80086,75,45,0
99.80086,99.89177,76,53,0
99.89177,99.99177,72,43,0
99.99177,100.094154,77,57,0
100.81088,101.24883,76,77,0
100.81088,101.24883,82,77,0
100.81088,101.24883,88,91,0
100.81088,101.24883,84,77,0
100.81088,101.24883,79,77,0
101.68679,102.12475,77,82,0
101.68679,102.12475,89,97,0
101.68679,102.12475,84,82,0
101.68679,102.12475,81,82,0
103.000656,103.0839,58,42,0
103.0839,103.16714,57,40,0
103.16714,103.25038,58,45,0
103.25038,103.367386,53,39,0
103.000656,103.367386,62,50,0
103.367386,103.44279,65,42,0
103.367386,103.44279,62,35,0
103.76953,103.84493,62,38,0
103.76953,103.84493,58,32,0
104.57382,104.65706,58,42,0
104.65706,104.7403,57,40,0
104.7403,104.82354,58,45,0
104.82354,104.94055,53,39,0
104.57382,104.94055,62,50,0
104.94055,105.01595,65,42,0
104.94055,105.01595,62,35,0
105.34269,105.4181,62,38,0
105.34269,105.4181,58,32,0
106.14698,106.250626,58,42,0
106.14698,106.33543,62,50,0
106.2412,106.34485,57,40,0
106.33543,106.43907,58,46,0
106.42965,106.523865,53,40,0
106.523865,106.62497,62,44,0
106.523865,106.70769,65,53,0
106.615776,106.71688,61,42,0
106.70769,106.80879,62,49,0
106.7996,106.89152,58,42,0
106.89152,106.99023,65,47,0
106.89152,107.07099,70,56,0
106.981255,107.07997,64,45,0
107.07099,107.16971,65,51,0
107.160736,107.25047,62,45,0
107.25047,107.34716,70,49,0
107.25047,107.42627,74,59,0
107.33837,107.43506,69,47,0
107.42627,107.522964,70,54,0
107.51417,107.60207,65,47,0
107.60207,107.702286,74,52,0
107.60207,107.78427,77,62,0
107.69317,107.79339,73,50,0
107.78427,107.88655,74,57,0
107.875374,107.98715,70,49,0
107.98715,109.08672,82,72,0
109.08672,109.17835,81,60,0
109.17835,109.26998,82,57,0
109.26998,109.36162,84,60,0
109.36162,109.46422,82,54,0
109.46422,109.65266,81,60,0
109.65266,109.841095,79,51,0
109.841095,110.02954,77,54,0
110.02954,110.21798,75,50,0
110.21798,110.406425,74,59,0
110.406425,110.594864,72,48,0
110.594864,110.78331,79,56,0
110.78331,110.98726,77,47,0
110.98726,111.38806,75,54,0
111.38806,111.788864,74,47,0
112.18438,112.28326,69,58,0
112.28326,112.38214,70,54,0
112.38214,112.48102,72,58,0
112.48102,112.579895,70,54,0
112.579895,112.768936,68,60,0
112.768936,112.95797,67,54,0
112.95797,113.147,65,66,0
113.147,113.3424,63,61,0
113.3424,113.53143,62,69,0
113.53143,113.72047,60,62,0
113.72047,113.90663,63,73,0
113.90663,114.10904,57,63,0
114.10904,114.21379,58,79,0
114.318535,114.40798,62,68,0
114.40798,114.49743,60,65,0
114.49743,114.586876,58,71,0
114.586876,114.67632,57,65,0
114.67632,114.76576,58,71,0
114.76576,114.85521,55,65,0
114.85521,114.96375,53,79,0
115.06813,115.15758,67,68,0
115.15758,115.247025,65,65,0
115.247025,115.33647,63,71,0
115.33647,115.42592,62,65,0
115.42592,115.51536,63,71,0
115.51536,115.604805,60,65,0
115.604805,115.71335,58,79,0
115.81737,115.906815,74,68,0
115.906815,115.99626,72,65,0
115.99626,116.08442,70,71,0
116.08442,116.17258,69,65,0
116.17258,116.260735,70,71,0
116.260735,116.34889,67,65,0
116.34889,116.45743,65,79,0
116.56145,116.650894,79,78,0
116.650894,116.74034,77,74,0
116.74034,116.8285,75,81,0
116.8285,116.91666,74,74,0
116.91666,117.004814,75,81,0
117.004814,117.09297,72,74,0
117.09297,117.20151,70,90,0
117.31004,117.40281,72,68,0
117.40281,117.495575,74,68,0
117.495575,117.58834,75,77,0
117.58834,117.68111,77,70,0
117.68111,117.77387,79,70,0
117.77387,117.86668,81,71,0
117.86668,117.890015,82,73,0
117.890015,117.91332,84,65,0
117.91332,117.959816,82,81,0
117.959816,118.05235,81,72,0
118.05235,118.14422,82,73,0
118.14422,118.23538,84,74,0
118.23538,118.25818,86,74,0
118.25818,118.28116,87,66,0
118.28116,118.3738,86,83,0
118.32731,118.42061,84,75,0
118.42061,118.51529,86,76,0
118.51529,118.623825,88,76,0
118.623825,118.72303,89,97,0
119.02065,119.11986,65,79,0
123.50039,123.89255,71,56,0
122.39324,123.89255,77,75,0
123.89255,124.269905,75,53,0
123.89255,124.269905,72,44,0
124.269905,124.65901,69,41,0
124.65901,125.02938,70,55,0
124.269905,125.02938,74,49,0
125.02938,125.39975,67,41,0
125.39975,125.77012,69,55,0
125.02938,125.77012,72,49,0
125.77012,126.15847,71,50,0
125.77012,126.15847,65,42,0
126.15847,126.24845,72,68,0
126.24845,126.33843,67,40,0
126.24845,126.33843,64,34,0
126.33843,126.42842,72,62,0
126.42842,126.5184,67,39,0
126.42842,126.5184,64,33,0
126.5184,126.60838,72,64,0
126.60838,126.698364,67,41,0
126.60838,126.698364,64,34,0
126.698364,126.788345,74,68,0
126.788345,126.88257,67,40,0
126.788345,126.88257,64,34,0
126.88257,126.97228,76,62,0
126.97228,127.06199,70,45,0
126.97228,127.06199,67,38,0
127.06199,127.1517,72,68,0
127.1517,127.24142,70,45,0
127.1517,127.24142,67,38,0
127.24142,127.3301,74,68,0
127.3301,127.41878,70,45,0
127.3301,127.41878,67,38,0
127.41878,127.507454,76,70,0
127.507454,127.60138,70,45,0
127.507454,127.60138,67,38,0
127.60138,127.69136,77,68,0
127.69136,127.78134,69,40,0
127.69136,127.78134,65,34,0
127.78134,127.87133,77,62,0
127.87133,127.96131,69,39,0
127.87133,127.96131,65,33,0
127.96131,128.05128,77,64,0
128.05128,128.14127,69,41,0
128.05128,128.14127,65,34,0
128.14127,128.23126,76,68,0
128.23126,128.32547,69,40,0
128.23126,128.32547,65,34,0
128.32547,128.41519,74,62,0
128.41519,128.5049,68,45,0
128.41519,128.5049,65,38,0
128.5049,128.59462,72,68,0
128.59462,128.68433,68,45,0
128.59462,128.68433,65,38,0
128.68433,128.77405,71,68,0
128.77405,128.86375,68,45,0
128.77405,128.86375,65,38,0
128.86375,128.95346,74,70,0
128.95346,129.0474,68,45,0
128.95346,129.0474,65,38,0
129.0474,129.13794,72,68,0
129.13794,129.2285,67,40,0
129.13794,129.2285,64,34,0
129.2285,129.31905,71,62,0
129.31905,129.4096,67,39,0
129.31905,129.4096,64,33,0
129.4096,129.4996,72,64,0
129.4996,129.58961,67,41,0
129.4996,129.58961,64,34,0
129.58961,129.67963,74,68,0
129.67963,129.77385,67,40,0
129.67963,129.77385,64,34,0
129.77385,129.86356,76,62,0
129.86356,129.95328,70,45,0
129.86356,129.95328,67,38,0
129.95328,130.04298,72,68,0
130.04298,130.1327,70,45,0
130.04298,130.1327,67,38,0
130.1327,130.22191,74,68,0
130.22191,130.31111,70,45,0
130.22191,130.31111,67,38,0
130.31111,130.40031,76,70,0
130.40031,130.49425,70,45,0
130.40031,130.49425,67,38,0
130.49425,130.58423,77,68,0
130.58423,130.67421,69,40,0
130.58423,130.67421,65,34,0
130.67421,130.76419,77,62,0
130.76419,130.85417,69,39,0
130.76419,130.85417,65,33,0
130.85417,130.9426,77,64,0
130.9426,131.031,69,41,0
130.9426,131.031,65,34,0
131.031,131.11943,76,68,0
131.11943,131.21365,69,40,0
131.11943,131.21365,65,34,0
131.21365,131.30336,74,62,0
131.30336,131.39307,68,45,0
131.30336,131.39307,65,38,0
131.39307,131.48279,72,68,0
131.48279,131.5725,68,45,0
131.48279,131.5725,65,38,0
131.5725,131.66222,71,68,0
131.66222,131.75192,68,45,0
131.66222,131.75192,65,38,0
131.75192,131.84164,74,70,0
131.84164,131.93556,68,45,0
131.84164,131.93556,65,38,0
131.93556,132.02528,72,78,0
132.02528,132.11499,67,45,0
132.02528,132.11499,64,38,0
132.11499,132.2047,72,68,0
132.2047,132.29442,67,45,0
132.2047,132.29442,64,38,0
132.29442,132.38336,71,68,0
132.38336,132.4723,68,45,0
132.38336,132.4723,65,38,0
132.4723,132.56123,74,70,0
132.56123,132.65517,68,45,0
132.56123,132.65517,65,38,0
132.65517,132.74487,72,76,0
132.74487,132.8346,67,45,0
132.74487,132.8346,64,38,0
132.8346,132.9243,72,68,0
132.9243,133.01402,67,45,0
132.9243,133.01402,64,38,0
133.01402,133.10297,71,68,0
133.10297,133.1919,68,45,0
133.10297,133.1919,65,38,0
133.1919,133.28084,74,70,0
133.28084,133.38637,68,45,0
133.28084,133.38637,65,38,0
133.38637,133.48029,72,70,0
133.38637,133.48029,67,59,0
133.38637,133.48029,64,59,0
133.48029,133.58327,60,35,0
133.57422,133.6746,62,40,0
133.66545,133.76581,64,35,0
133.7567,133.8567,65,40,0
133.84764,133.9473,67,35,0
133.93825,134.03745,69,40,0
134.02847,134.1273,71,33,0
134.11829,134.21739,72,40,0
134.20837,134.3077,71,33,0
134.29866,134.39806,72,40,0
134.38902,134.48842,71,33,0
134.47939,134.57878,72,40,0
134.56975,134.66914,71,34,0
134.66011,134.761,72,40,0
134.75047,134.85573,71,33,0
134.85573,135.59698,72,43,0
134.85573,135.59698,69,38,0
135.59698,135.9533,69,49,0
135.9533,136.30893,77,47,0
136.30893,136.6674,72,49,0
136.30893,136.6674,69,41,0
136.6674,137.0405,77,36,0
136.6674,137.0405,81,43,0
137.0405,137.3975,72,50,0
137.0405,137.3975,69,42,0
137.3975,137.76704,81,36,0
137.3975,137.76704,84,43,0
137.76704,138.50829,72,43,0
137.76704,138.50829,69,38,0
138.50829,138.86444,69,49,0
138.86444,139.22096,77,46,0
139.22096,139.57433,72,49,0
139.22096,139.57433,69,41,0
139.57433,139.94643,77,36,0
139.57433,139.94643,81,43,0
139.94643,140.30208,72,50,0
139.94643,140.30208,69,42,0
140.30208,140.67065,81,36,0
140.30208,140.67065,84,43,0
140.67065,141.39958,78,49,0
140.67065,141.39958,69,41,0
140.67065,141.39958,72,41,0
140.67065,141.39958,74,49,0
142.48611,142.84325,78,70,0
142.84325,143.19725,81,68,0
143.19725,143.90944,84,66,0
143.55545,144.27307,78,72,0
144.62395,144.9854,73,66,0
144.27307,145.33246,79,75,0
143.90944,145.33246,82,73,0
145.33246,145.6972,77,57,0
145.33246,145.6972,81,67,0
144.9854,145.6972,72,74,0
145.6972,146.05328,79,72,0
145.6972,146.05328,74,61,0
145.6972,146.05328,70,61,0
146.05328,146.44687,76,64,0
146.05328,146.44687,70,53,0
146.05328,146.44687,67,53,0
146.44687,146.62598,77,77,0
146.44687,146.62598,69,64,0
146.44687,146.62598,65,64,0
147.16328,147.88846,65,73,0
147.16328,147.89615,69,88,0
147.89615,148.26106,62,57,0
147.89615,148.26881,65,68,0
148.26881,148.46362,62,70,0
148.26881,148.46362,58,59,0
148.65843,149.20555,70,88,0
148.65843,149.20555,67,73,0
149.20555,149.38791,69,68,0
149.20555,149.38791,65,57,0
149.38791,149.75282,64,64,0
149.38791,149.76059,67,77,0
149.76059,149.94691,64,68,0
149.76059,149.94691,60,57,0
150.13326,150.85512,69,73,0
150.13326,150.86276,72,88,0
150.86276,151.22768,65,57,0
150.86276,151.23544,69,68,0
151.23544,151.42961,65,70,0
151.23544,151.42961,62,59,0
151.6238,152.1709,74,88,0
151.6238,152.1709,70,73,0
152.1709,152.35327,72,68,0
152.1709,152.35327,69,57,0
152.35327,152.71819,67,64,0
152.35327,152.72594,70,77,0
152.72594,152.91228,67,68,0
152.72594,152.91228,64,57,0
153.09862,153.64407,79,88,0
153.09862,153.64407,70,73,0
153.64407,153.83215,77,68,0
153.64407,153.83215,69,57,0
153.83215,154.37433,76,88,0
153.83215,154.37433,67,73,0
154.37433,154.563,74,68,0
154.37433,154.563,65,57,0
154.563,154.92445,72,60,0
154.563,154.92445,64,51,0
154.92445,155.28589,70,52,0
154.92445,155.28589,58,44,0
155.28589,155.65063,69,58,0
155.28589,155.65063,57,49,0
155.65063,156.01538,67,46,0
155.65063,156.01538,61,39,0
156.01538,156.38013,65,53,0
156.01538,156.38013,62,45,0
156.38013,156.76598,62,48,0
156.38013,156.76598,55,40,0
156.38013,156.76598,53,40,0
157.12961,157.31595,60,38,0
157.12961,157.31595,57,32,0
157.12961,157.31595,53,32,0
157.86702,158.05872,60,37,0
157.86702,158.05872,48,31,0
157.86702,158.05872,52,31,0
157.86702,158.05872,55,31,0
158.62541,158.97697,48,29,0
158.62541,158.97697,53,29,0
158.62541,158.97697,57,35,0
159.1657,159.54616,69,66,0
159.1657,159.54616,65,55,0
159.54616,159.64388,69,51,0
159.54616,159.64388,65,43,0
159.92285,160.01349,65,49,0
159.92285,160.01349,62,41,0
160.28705,160.3891,62,45,0
160.28705,160.3891,58,38,0
160.65643,161.02928,70,73,0
160.65643,161.02928,67,60,0
161.02928,161.127,69,51,0
161.02928,161.127,65,43,0
161.40599,161.49663,67,49,0
161.40599,161.49663,64,41,0
161.77074,161.87141,64,45,0
161.77074,161.87141,60,38,0
162.13737,162.51102,72,72,0
162.13737,162.51102,69,60,0
162.51102,162.60873,72,56,0
162.51102,162.60873,69,47,0
162.88773,162.97836,69,53,0
162.88773,162.97836,65,45,0
163.25192,163.35396,65,49,0
163.25192,163.35396,62,41,0
163.62129,163.99683,74,84,0
163.62129,163.99683,70,68,0
163.99683,164.09454,72,58,0
163.99683,164.09454,69,49,0
164.37354,164.46416,70,55,0
164.37354,164.46416,67,47,0
164.73828,164.84428,67,51,0
164.73828,164.84428,64,43,0
165.11559,165.49112,79,96,0
165.11559,165.49112,70,79,0
165.49112,165.59637,77,67,0
165.49112,165.59637,69,56,0
165.86693,166.24246,76,96,0
165.86693,166.24246,67,79,0
166.24246,166.34018,74,67,0
166.24246,166.34018,65,56,0
166.63992,166.74092,72,52,0
166.63992,166.74092,64,44,0
167.0507,167.16408,70,46,0
167.0507,167.16408,58,39,0
167.27802,167.37605,69,54,0
167.37605,167.47409,57,46,0
167.47409,167.57214,61,43,0
167.57214,167.67018,64,43,0
167.67018,167.76811,69,53,0
167.76811,167.86572,73,42,0
167.86572,167.96303,76,42,0
167.96303,168.06001,80,42,0
168.06001,168.1567,81,49,0
168.1567,168.25299,80,39,0
168.25299,168.34941,81,42,0
168.34941,168.44627,80,38,0
168.44627,168.5436,81,48,0
168.5436,168.6414,76,38,0
168.6414,168.73967,73,38,0
168.73967,168.84875,69,38,0
168.94617,169.04352,57,46,0
169.04352,169.14061,62,43,0
169.14061,169.2372,65,43,0
169.2372,169.33287,69,53,0
169.33287,169.42795,74,42,0
169.42795,169.52242,77,42,0
169.52242,169.61618,80,42,0
169.61618,169.70992,81,49,0
169.70992,169.80424,80,39,0
169.80424,169.89917,81,42,0
169.89917,169.99458,80,38,0
169.99458,170.09021,81,48,0
170.09021,170.18698,77,38,0
170.18698,170.28375,74,38,0
170.28375,170.39323,69,38,0
170.4897,170.58617,56,46,0
170.58617,170.68263,59,43,0
170.68263,170.77843,62,43,0
170.77843,170.87396,65,50,0
170.87396,170.96947,68,42,0
170.96947,171.06471,71,42,0
171.06471,171.15994,74,42,0
171.15994,171.25487,77,49,0
171.25487,171.34967,74,41,0
171.34967,171.44476,80,48,0
171.44476,171.54016,77,41,0
171.54016,171.63586,74,48,0
171.63586,171.73193,71,45,0
171.73193,171.82808,68,42,0
171.82808,171.94086,65,39,0
172.03705,172.13281,64,48,0
172.13281,172.22833,67,50,0
172.22833,172.32358,70,51,0
172.32358,172.41855,73,53,0
172.41855,172.51323,76,55,0
172.51323,172.60786,79,57,0
172.60786,172.7025,82,59,0
172.7025,172.79715,85,65,0
172.79715,172.89178,88,57,0
172.89178,172.98352,76,64,0
172.98352,173.07527,88,56,0
173.07527,173.167,76,64,0
173.167,173.25876,88,58,0
173.25876,173.3505,76,64,0
173.3505,173.44821,88,59,0
173.44821,173.53996,77,74,0
173.53996,173.6317,89,59,0
173.6317,173.72345,76,67,0
173.72345,173.81519,88,54,0
173.81519,173.90694,77,66,0
173.90694,173.99867,89,57,0
173.99867,174.09042,70,59,0
174.09042,174.18846,82,50,0
174.18846,174.27992,69,79,0
174.27992,174.37138,81,54,0
174.37138,174.46284,76,65,0
174.46284,174.55376,88,57,0
174.55376,174.64377,77,68,0
174.64377,174.73376,89,60,0
174.73376,174.82378,70,67,0
174.82378,174.91963,82,58,0
174.91963,175.0111,69,81,0
175.0111,175.10255,81,58,0
175.10255,175.19402,76,64,0
175.19402,175.28548,88,59,0
175.28548,175.3765,77,67,0
175.3765,175.46677,89,55,0
175.46677,175.55705,70,62,0
175.55705,175.65509,82,51,0
175.65509,175.74655,69,72,0
175.74655,175.83801,81,52,0
175.83801,175.92947,76,64,0
175.92947,176.02078,88,54,0
176.02078,176.11131,77,64,0
176.11131,176.20186,89,51,0
176.20186,176.2924,70,60,0
176.2924,176.39142,82,51,0
176.39142,176.48288,69,83,0
176.48288,176.57434,81,53,0
176.57434,176.66582,67,62,0
176.66582,176.75728,79,54,0
176.75728,176.84799,65,62,0
176.84799,176.93826,77,54,0
176.93826,177.02855,64,62,0
177.02855,177.12318,76,53,0
177.12318,177.21437,62,81,0
177.21437,177.30556,74,53,0
177.30556,177.39674,60,60,0
177.39674,177.48793,72,52,0
177.48793,177.57912,58,59,0
177.57912,177.6703,70,52,0
177.6703,177.76149,57,59,0
177.76149,177.85641,69,50,0
177.85641,177.94788,55,79,0
177.94788,178.03935,67,50,0
178.03935,178.13081,53,59,0
178.13081,178.22227,65,49,0
178.22227,178.31374,52,59,0
178.31374,178.4052,64,49,0
178.4052,178.49666,50,59,0
178.49666,178.59535,62,51,0
178.59535,178.68738,48,79,0
178.68738,178.7794,60,49,0
178.7794,178.87143,46,59,0
178.87143,178.96344,58,50,0
178.96344,179.05547,45,59,0
179.05547,179.14749,57,48,0
179.14749,179.23952,43,58,0
179.23952,179.34822,55,49,0
179.34822,179.44052,41,64,0
179.34822,179.44052,53,76,0
179.53284,179.62514,52,49,0
179.62514,179.71745,60,42,0
179.71745,179.80864,53,49,0
179.80864,179.89981,60,41,0
179.89981,179.991,58,49,0
179.991,180.08218,60,42,0
180.08218,180.17337,57,49,0
180.17337,180.26456,60,41,0
180.26456,180.35574,52,49,0
180.35574,180.44693,60,42,0
180.44693,180.53812,53,49,0
180.53812,180.6293,60,43,0
180.6293,180.72049,58,49,0
180.72049,180.81168,60,40,0
180.81168,180.9037,57,49,0
180.9037,180.99573,60,41,0
180.99573,181.08775,52,49,0
181.08775,181.17976,60,42,0
181.17976,181.27179,53,49,0
181.27179,181.36382,60,43,0
181.36382,181.45584,58,49,0
181.45584,181.54787,60,40,0
181.54787,181.63905,57,56,0
181.63905,181.73024,60,45,0
181.73024,181.82143,49,60,0
181.82143,181.91261,61,52,0
181.91261,182.0038,50,61,0
182.0038,182.09499,62,49,0
182.09499,182.18617,52,67,0
182.18617,182.27791,64,60,0
182.27791,182.36966,53,71,0
182.36966,182.4614,65,62,0
182.4614,182.55315,54,70,0
182.55315,182.64488,66,64,0
182.64488,182.73662,55,70,0
182.73662,182.82837,67,64,0
182.82837,182.9201,57,74,0
182.9201,183.01186,69,65,0
183.01186,183.10359,58,82,0
183.10359,183.19534,70,71,0
183.19534,183.28708,60,79,0
183.28708,183.37883,72,70,0
183.37883,183.47057,62,83,0
183.47057,183.56232,74,72,0
183.56232,183.65405,60,81,0
183.65405,183.75082,72,69,0
183.75082,183.84174,58,84,0
183.84174,183.93265,70,69,0
183.93265,184.02356,57,81,0
184.02356,184.11447,69,69,0
184.11447,184.20537,55,79,0
184.20537,184.29628,67,69,0
184.29628,184.38719,53,78,0
184.38719,184.4781,65,65,0
184.4781,184.56984,52,79,0
184.56984,184.66159,64,69,0
184.66159,184.75333,50,77,0
184.75333,184.84918,62,65,0
184.84918,184.94121,48,77,0
184.94121,185.03323,60,67,0
185.03323,185.12524,52,75,0
185.12524,185.21727,64,66,0
185.21727,185.58537,53,79,0
185.21727,185.58537,65,79,0
186.50903,186.70383,53,39,0
185.95348,186.70383,57,34,0
185.95348,186.70383,60,40,0
187.25598,187.44572,56,40,0
186.70383,187.44572,58,39,0
186.70383,187.44572,61,46,0
187.44572,187.62865,54,45,0
187.62865,187.81157,53,40,0
187.44572,187.81157,58,32,0
187.44572,187.81157,60,32,0
187.81157,187.9945,54,46,0
187.9945,188.18994,52,40,0
187.81157,188.18994,58,33,0
187.81157,188.18994,60,33,0
188.18994,188.7404,53,39,0
188.18994,188.7404,57,39,0
188.18994,188.7404,60,46,0
188.92389,189.48027,69,52,0
189.48027,189.68208,65,50,0
188.92389,189.68208,57,44,0
188.92389,189.68208,60,52,0
189.68208,190.23424,70,52,0
190.23424,190.42398,68,52,0
189.68208,190.42398,58,50,0
189.68208,190.42398,61,59,0
190.42398,190.6069,66,58,0
190.6069,190.78984,65,52,0
190.42398,190.78984,58,41,0
190.42398,190.78984,61,41,0
190.78984,190.97276,66,59,0
190.97276,191.1682,64,52,0
190.78984,191.1682,58,42,0
190.78984,191.1682,61,42,0
191.1682,191.71866,57,50,0
191.1682,191.71866,60,50,0
191.1682,191.71866,65,59,0
191.90213,192.08337,67,53,0
192.08337,192.26448,65,46,0
191.90213,192.26448,58,37,0
191.90213,192.26448,61,37,0
192.26448,192.44798,67,51,0
192.44798,192.64307,64,44,0
192.26448,192.64307,58,36,0
192.26448,192.64307,61,36,0
192.64307,193.19353,57,42,0
192.64307,193.19353,60,42,0
192.64307,193.19353,65,49,0
193.37701,193.55998,66,43,0
193.55998,193.7429,65,39,0
193.37701,193.7429,58,30,0
193.37701,193.7429,61,30,0
193.7429,193.92583,66,44,0
193.92583,194.12054,64,39,0
193.7429,194.12054,58,31,0
193.7429,194.12054,61,31,0
194.12054,194.67169,65,88,0
194.12054,194.67169,53,74,0
194.67169,194.77103,67,79,0
194.67169,194.77103,55,67,0
194.87038,195.41914,69,89,0
194.87038,195.41914,57,74,0
195.41914,195.51784,70,81,0
195.41914,195.51784,58,68,0
195.61652,196.1664,72,91,0
195.61652,196.1664,60,77,0
196.1664,196.26509,74,74,0
196.1664,196.26509,62,62,0
196.36377,196.45523,76,84,0
196.36377,196.45523,64,71,0
196.54669,196.63817,77,81,0
196.54669,196.63817,65,68,0
196.72963,196.82109,79,87,0
196.72963,196.82109,67,74,0
196.91255,197.02367,81,83,0
196.91255,197.02367,69,69,0
197.13289,197.68622,82,96,0
197.13289,197.68622,70,81,0
197.68622,197.78555,81,84,0
197.68622,197.78555,69,71,0
197.88489,198.43367,79,94,0
197.88489,198.43367,67,78,0
198.43367,198.53236,77,83,0
198.43367,198.53236,65,70,0
198.63104,199.17816,76,92,0
198.63104,199.17816,64,78,0
199.17816,199.27684,74,74,0
199.17816,199.27684,62,62,0
199.37552,199.467,72,83,0
199.37552,199.467,60,70,0
199.55846,199.64992,70,78,0
199.55846,199.64992,58,66,0
199.74138,199.83284,69,83,0
199.74138,199.83284,57,70,0
199.9243,200.02397,67,77,0
199.9243,200.02397,55,64,0
200.12364,200.22331,65,90,0
200.12364,200.22331,53,78,0
200.52231,200.6135,64,53,0
200.6135,200.70468,63,45,0
200.70468,200.79587,64,53,0
200.79587,200.8952,60,43,0
200.8952,200.98666,65,57,0
201.26106,201.35197,76,53,0
201.35197,201.44289,75,45,0
201.44289,201.53378,76,53,0
201.53378,201.63379,72,43,0
201.63379,201.73618,77,57,0
202.4529,202.89085,76,77,0
202.4529,202.89085,82,77,0
202.4529,202.89085,88,91,0
202.4529,202.89085,84,77,0
202.4529,202.89085,79,77,0
203.32881,203.77097,77,82,0
203.32881,203.77097,89,97,0
203.32881,203.77097,84,82,0
203.32881,203.77097,81,82,0
204.6556,204.73883,60,42,0
204.73883,204.82208,59,40,0
204.82208,204.90532,60,45,0
204.90532,205.02232,57,39,0
205.02232,205.11324,65,50,0
206.15483,206.23807,60,42,0
206.23807,206.3213,59,40,0
206.3213,206.40456,60,45,0
206.40456,206.52156,57,39,0
206.52156,206.61192,65,50,0
207.65187,207.73512,60,70,0
207.73512,207.81836,59,66,0
207.81836,207.9016,60,77,0
207.9016,208.0186,57,71,0
208.0186,208.56976,65,92,0
208.56976,208.6691,67,82,0
208.76843,209.31721,69,93,0
209.31721,209.4159,70,86,0
209.51459,210.06169,72,97,0
210.06169,210.16039,74,82,0
210.25906,210.35052,75,90,0
210.44199,210.53345,74,85,0
210.62492,210.71638,72,93,0
210.80785,210.92172,74,86,0
211.0361,211.5832,75,97,0
211.5832,211.6819,74,77,0
211.78058,211.87204,72,85,0
211.96352,212.05498,70,80,0
212.14644,212.2379,69,88,0
212.32936,212.44048,70,81,0
212.55159,213.0987,72,92,0
213.0987,213.19739,70,76,0
213.29607,213.38753,69,81,0
213.47899,213.57045,67,74,0
213.66193,213.75339,66,79,0
213.84485,213.95596,64,71,0
214.06706,214.80327,62,75,0
214.80327,215.35883,66,34,0
215.35883,215.55362,62,39,0
214.80327,215.55362,60,40,0
214.80327,215.55362,57,40,0
215.55362,216.10577,67,46,0
216.10577,216.29552,65,40,0
215.55362,216.29552,58,39,0
215.55362,216.29552,55,39,0
216.29552,216.47844,63,45,0
216.47844,216.66138,62,40,0
216.29552,216.66138,55,32,0
216.29552,216.66138,58,32,0
216.66138,216.8443,63,46,0
216.8443,217.03973,61,40,0
216.66138,217.03973,55,33,0
216.66138,217.03973,58,33,0
217.03973,217.5902,54,39,0
217.03973,217.5902,57,39,0
217.03973,217.5902,62,46,0
217.77368,218.32924,78,41,0
218.32924,218.52405,74,42,0
217.77368,218.52405,72,40,0
217.77368,218.52405,69,40,0
218.52405,219.07619,79,53,0
219.07619,219.26593,77,44,0
218.52405,219.26593,70,39,0
218.52405,219.26593,67,39,0
219.26593,219.44885,75,49,0
219.44885,219.63147,74,44,0
219.26593,219.63147,67,32,0
219.26593,219.63147,70,32,0
219.63147,219.81258,75,50,0
219.81258,220.00801,73,44,0
219.63147,220.00801,67,33,0
219.63147,220.00801,70,33,0
220.00801,220.55847,66,39,0
220.00801,220.55847,69,39,0
220.00801,220.55847,74,50,0
220.74196,220.92488,76,49,0
220.92488,221.1078,74,44,0
220.74196,221.1078,67,32,0
220.74196,221.1078,70,32,0
221.1078,221.29074,76,50,0
221.29074,221.48618,73,44,0
221.1078,221.48618,67,33,0
221.1078,221.48618,70,33,0
221.48618,222.03664,66,39,0
221.48618,222.03664,69,39,0
221.48618,222.03664,74,50,0
222.22012,222.40305,75,39,0
222.40305,222.58597,74,35,0
222.22012,222.58597,67,25,0
222.22012,222.58597,70,25,0
222.58597,222.7689,75,40,0
222.7689,222.96362,73,35,0
222.58597,222.96362,67,26,0
222.58597,222.96362,70,26,0
222.96362,223.52216,66,39,0
222.96362,223.52216,69,39,0
222.96362,223.52216,74,50,0
224.8358,224.92802,75,86,0
225.02025,225.11893,74,75,0
225.2176,225.30907,72,84,0
225.40054,225.492,70,74,0
225.58347,225.67493,69,84,0
225.76639,225.8775,67,75,0
225.98862,226.0798,66,84,0
226.35336,226.44453,81,61,0
226.44453,226.53572,80,50,0
226.53572,226.6269,81,54,0
226.6269,226.72276,78,50,0
226.72276,226.81395,84,61,0
226.81395,226.90514,83,50,0
226.90514,226.99632,84,54,0
226.99632,227.09566,81,50,0
227.09566,227.18684,87,63,0
227.18684,227.27803,86,50,0
227.27803,227.36922,84,57,0
227.36922,227.46039,82,50,0
227.46039,227.5513,81,58,0
227.5513,227.64221,82,50,0
227.64221,227.73312,84,59,0
227.73312,227.82404,82,49,0
227.82404,227.91495,81,58,0
227.91495,228.00584,79,50,0
228.00584,228.09676,78,55,0
228.09676,228.1948,79,50,0
228.1948,228.2857,81,60,0
228.2857,228.37663,79,47,0
228.37663,228.46782,78,53,0
228.46782,228.55923,75,46,0
228.55923,228.6509,74,64,0
228.6509,228.74277,72,51,0
228.74277,228.83485,71,57,0
228.83485,228.94154,72,52,0
228.94154,229.31306,71,72,0
230.80821,230.8994,80,81,0
230.99059,231.08928,79,75,0
231.18796,231.27942,77,84,0
231.37088,231.46236,75,74,0
231.55382,231.64528,74,84,0
231.73674,231.84785,72,75,0
231.95897,232.05014,71,84,0
232.3237,232.41489,74,61,0
232.41489,232.50607,73,50,0
232.50607,232.59726,74,54,0
232.59726,232.6931,71,50,0
232.6931,232.78429,77,61,0
232.78429,232.87547,76,50,0
232.87547,232.96666,77,54,0
232.96666,233.066,74,50,0
233.066,233.15718,80,63,0
233.15718,233.24837,79,50,0
233.24837,233.33955,77,57,0
233.33955,233.43074,75,50,0
233.43074,233.52165,74,58,0
233.52165,233.61256,75,50,0
233.61256,233.70348,77,59,0
233.70348,233.79437,75,49,0
233.79437,233.88528,74,62,0
233.88528,233.9762,72,50,0
233.9762,234.06711,71,55,0
234.06711,234.16515,72,50,0
234.16515,234.25606,74,62,0
234.25606,234.34698,72,51,0
234.34698,234.43817,71,55,0
234.43817,234.52959,68,46,0
234.52959,234.62123,67,65,0
234.62123,234.7131,65,47,0
234.7131,234.8052,64,55,0
234.8052,234.91295,65,50,0
234.91295,235.2877,64,71,0
236.78401,236.8752,73,86,0
236.96638,237.06506,72,75,0
237.16376,237.25522,70,84,0
237.34668,237.43814,68,74,0
237.5296,237.62106,67,84,0
237.71254,237.82364,65,75,0
237.93475,238.02594,64,84,0
238.2995,238.39069,79,67,0
238.39069,238.48187,78,55,0
238.48187,238.57306,79,59,0
238.57306,238.6689,76,55,0
238.6689,238.76009,82,67,0
238.76009,238.85127,81,55,0
238.85127,238.94246,82,59,0
238.94246,239.0418,79,55,0
239.0418,239.13298,85,69,0
239.13298,239.22417,84,55,0
239.22417,239.31535,85,62,0
239.31535,239.40654,84,55,0
239.40654,239.49745,85,73,0
239.49745,239.58835,82,55,0
239.58835,239.67926,79,64,0
239.67926,239.77017,76,53,0
239.77017,239.86108,82,71,0
239.86108,239.952,79,55,0
239.952,240.04291,76,64,0
240.04291,240.14095,73,55,0
240.14095,240.23184,79,71,0
240.23184,240.32275,76,51,0
240.32275,240.41367,73,63,0
240.41367,240.50458,70,50,0
240.50458,240.59549,76,69,0
240.59549,240.6864,73,51,0
240.6864,240.7773,70,60,0
240.7773,240.87471,67,50,0
241.23724,241.32843,77,67,0
241.32843,241.41962,76,55,0
241.41962,241.5108,77,59,0
241.5108,241.60664,72,55,0
241.60664,241.69783,80,67,0
241.69783,241.78902,79,55,0
241.78902,241.8802,80,59,0
241.8802,241.97954,77,55,0
241.97954,242.07072,84,69,0
242.07072,242.16191,83,55,0
242.16191,242.2531,84,62,0
242.2531,242.34428,80,55,0
242.34428,242.4352,89,73,0
242.4352,242.52611,84,55,0
242.52611,242.617,80,64,0
242.617,242.70792,77,53,0
242.70792,242.79883,84,71,0
242.79883,242.88974,80,55,0
242.88974,242.98065,77,64,0
242.98065,243.07869,72,55,0
243.07869,243.1696,80,71,0
243.1696,243.2605,77,51,0
243.2605,243.35141,72,63,0
243.35141,243.44232,68,50,0
243.44232,243.53323,77,69,0
243.53323,243.62415,72,51,0
243.62415,243.71504,68,60,0
243.71504,243.81245,65,50,0
244.17499,244.26617,77,67,0
244.26617,244.35736,76,55,0
244.35736,244.44855,77,59,0
244.44855,244.54439,74,55,0
244.54439,244.63557,83,67,0
244.63557,244.72676,82,55,0
244.72676,244.81795,83,59,0
244.81795,244.91728,77,55,0
244.91728,245.00847,86,69,0
245.00847,245.09966,85,55,0
245.09966,245.19084,86,62,0
245.19084,245.28917,83,55,0
245.28917,245.38008,89,73,0
245.38008,245.471,86,55,0
245.471,245.5619,83,64,0
245.5619,245.65282,77,53,0
245.65282,245.74371,86,71,0
245.74371,245.83463,83,55,0
245.83463,245.92554,77,64,0
245.92554,246.02357,74,55,0
246.02357,246.11449,83,71,0
246.11449,246.2054,77,51,0
246.2054,246.29631,74,63,0
246.29631,246.3872,71,50,0
246.3872,246.47812,77,69,0
246.47812,246.56903,74,51,0
246.56903,246.65994,71,60,0
246.65994,246.75734,65,50,0
247.11989,247.21106,75,67,0
247.21106,247.30225,74,54,0
247.30225,247.39343,75,58,0
247.39343,247.48929,72,54,0
247.48929,247.58047,79,66,0
247.58047,247.67166,78,53,0
247.67166,247.76285,79,57,0
247.76285,247.86218,75,53,0
247.86218,247.95337,84,67,0
247.95337,248.04456,83,53,0
248.04456,248.13574,84,60,0
248.13574,248.22691,79,53,0
248.22691,248.31783,87,70,0
248.31783,248.40874,84,53,0
248.40874,248.49965,81,61,0
248.49965,248.59056,75,50,0
248.59056,248.68147,84,68,0
248.68147,248.77237,81,52,0
248.77237,248.86328,75,60,0
248.86328,248.96132,72,52,0
248.96132,249.05223,81,67,0
249.05223,249.14314,75,48,0
249.14314,249.23405,72,59,0
249.23405,249.32495,69,47,0
249.32495,249.41586,75,64,0
249.41586,249.50677,72,47,0
249.50677,249.59769,69,55,0
249.59769,249.69508,63,46,0
250.05763,250.14882,75,61,0
250.14882,250.23999,74,50,0
250.23999,250.33118,75,54,0
250.33118,250.42703,72,50,0
250.42703,250.51822,81,60,0
250.51822,250.6094,80,50,0
250.6094,250.70059,81,53,0
250.70059,250.79993,75,49,0
250.79993,250.89111,84,62,0
250.89111,250.9823,83,49,0
250.9823,251.07716,84,55,0
251.07716,251.18939,81,48,0
251.18939,251.2803,87,64,0
251.2803,251.37122,84,48,0
251.37122,251.46213,81,56,0
251.46213,251.55304,75,47,0
251.55304,251.64394,84,62,0
251.64394,251.73485,81,48,0
251.73485,251.82576,75,56,0
251.82576,251.9238,72,48,0
251.9238,252.01471,81,61,0
252.01471,252.10562,75,44,0
252.10562,252.19653,72,54,0
252.19653,252.28743,69,43,0
252.28743,252.37834,75,59,0
252.37834,252.46925,72,43,0
252.46925,252.56017,69,51,0
252.56017,252.65756,63,43,0
253.0201,253.11128,73,56,0
253.11128,253.20247,72,46,0
253.20247,253.29366,73,49,0
253.29366,253.38951,70,46,0
253.38951,253.4807,77,56,0
253.4807,253.57188,76,45,0
253.57188,253.66306,77,48,0
253.66306,253.7624,73,45,0
253.7624,253.85359,82,57,0
253.85359,253.94478,81,45,0
253.94478,254.039,82,50,0
254.039,254.14758,77,45,0
254.14758,254.2384,85,59,0
254.2384,254.32924,82,44,0
254.32924,254.42006,79,51,0
254.42006,254.5109,73,42,0
254.5109,254.60172,82,57,0
254.60172,254.69255,79,44,0
254.69255,254.78337,73,51,0
254.78337,254.88141,70,44,0
254.88141,254.97232,79,56,0
254.97232,255.06323,73,40,0
255.06323,255.15413,70,49,0
255.15413,255.24504,67,39,0
255.24504,255.33595,73,54,0
255.33595,255.42686,70,40,0
255.42686,255.51778,67,46,0
255.51778,255.61517,61,39,0
255.9777,256.0689,73,51,0
256.0689,256.1601,72,42,0
256.1601,256.25128,73,45,0
256.25128,256.3471,70,41,0
256.3471,256.4383,79,50,0
256.4383,256.52948,78,41,0
256.52948,256.62067,79,44,0
256.62067,256.72,73,41,0
256.72,256.8112,82,51,0
256.8112,256.90237,81,41,0
256.90237,256.99356,82,46,0
256.99356,257.08478,79,40,0
257.08478,257.17624,85,54,0
257.17624,257.2677,82,40,0
257.2677,257.35916,79,47,0
257.35916,257.45062,73,38,0
257.45062,257.54208,82,51,0
257.54208,257.63354,79,40,0
257.63354,257.725,73,46,0
257.725,257.82306,70,40,0
257.82306,257.91516,79,51,0
257.91516,258.00772,73,36,0
258.00772,258.10068,70,45,0
258.10068,258.194,67,36,0
258.194,258.28763,73,48,0
258.28763,258.38165,70,36,0
258.38165,258.47607,67,42,0
258.47607,258.5985,61,35,0
258.5985,258.69095,70,37,0
258.69095,258.7827,67,28,0
258.7827,258.87445,61,28,0
258.87445,258.9662,58,28,0
258.9662,259.05792,67,35,0
259.05792,259.1497,61,28,0
259.1497,259.2455,58,28,0
259.2455,259.34137,55,28,0
259.34137,259.43283,63,34,0
259.43283,259.5243,61,29,0
259.5243,259.61575,58,29,0
259.61575,259.7072,55,28,0
259.7072,259.79868,63,34,0
259.79868,259.89014,61,28,0
259.89014,259.98538,58,28,0
259.98538,260.08063,55,28,0
260.08063,260.17307,63,37,0
260.17307,260.2648,61,28,0
260.2648,260.35657,58,28,0
260.35657,260.4483,55,28,0
260.4483,260.54004,63,35,0
260.54004,260.63177,61,28,0
260.63177,260.72763,58,28,0
260.72763,260.8235,55,28,0
260.8235,260.91495,63,34,0
260.91495,261.0064,61,29,0
261.0064,261.09787,58,29,0
261.09787,261.18933,55,28,0
261.18933,261.2808,63,34,0
261.2808,261.37225,61,28,0
261.37225,261.4675,58,28,0
261.4675,261.56274,55,28,0
261.56274,261.65518,63,37,0
261.65518,261.74692,61,28,0
261.74692,261.83865,58,28,0
261.83865,261.9304,55,28,0
261.9304,262.02216,63,35,0
262.02216,262.1139,61,28,0
262.1139,262.20975,58,28,0
262.20975,262.30557,55,28,0
262.30557,262.39703,63,34,0
262.39703,262.4885,61,29,0
262.4885,262.57996,58,29,0
262.57996,262.67145,55,28,0
262.67145,262.7629,63,34,0
262.7629,262.85437,61,28,0
262.85437,262.9496,58,28,0
262.9496,263.04483,55,28,0
263.04483,263.13727,63,37,0
263.13727,263.22903,61,27,0
263.22903,263.32077,58,27,0
263.32077,263.4125,55,27,0
263.4125,263.50424,63,32,0
263.50424,263.596,61,25,0
263.596,263.69183,58,24,0
263.69183,263.7877,55,24,0
263.7877,263.87915,63,32,0
263.87915,263.9706,61,23,0
263.9706,264.06207,58,23,0
264.06207,264.15353,55,21,0
264.15353,264.245,63,27,0
264.245,264.33646,61,20,0
264.33646,264.4317,58,20,0
264.4317,264.52695,55,19,0
264.52695,264.61993,64,29,0
264.61993,264.7127,61,22,0
264.7127,264.8055,58,22,0
264.8055,264.8983,55,22,0
264.8983,264.9911,64,27,0
264.9911,265.0839,61,22,0
265.0839,265.17972,58,22,0
265.17972,265.27557,55,22,0
265.27557,265.36703,64,27,0
265.36703,265.4585,61,23,0
265.4585,265.54996,58,23,0
265.54996,265.64142,55,22,0
265.64142,265.7329,64,27,0
265.7329,265.82437,61,22,0
265.82437,265.9196,58,22,0
265.9196,266.01483,55,22,0
266.01483,266.10727,64,29,0
266.10727,266.199,61,22,0
266.199,266.29077,58,22,0
266.29077,266.3825,55,22,0
266.3825,266.47424,64,27,0
266.47424,266.56598,61,22,0
266.56598,266.66183,58,22,0
266.66183,266.7577,55,22,0
266.7577,266.84915,64,27,0
266.84915,266.9406,61,23,0
266.9406,267.03207,58,23,0
267.03207,267.12354,55,22,0
267.12354,267.215,64,27,0
267.215,267.30646,61,22,0
267.30646,267.4017,58,22,0
267.4017,267.49695,55,22,0
267.49695,267.5894,64,29,0
267.5894,267.68112,61,22,0
267.68112,267.77286,58,22,0
267.77286,267.86462,55,22,0
267.86462,267.95636,64,27,0
267.95636,268.0481,61,22,0
268.0481,268.14395,58,22,0
268.14395,268.23978,55,22,0
268.23978,268.33127,64,27,0
268.33127,268.42273,61,23,0
268.42273,268.5142,58,23,0
268.5142,268.60565,55,22,0
268.60565,268.6971,64,27,0
268.6971,268.78857,61,22,0
268.78857,268.88382,58,22,0
268.88382,268.97903,55,22,0
268.97903,269.07147,64,29,0
269.07147,269.16324,61,22,0
269.16324,269.25497,58,22,0
269.25497,269.3467,55,22,0
269.3467,269.43845,64,27,0
269.43845,269.5302,61,22,0
269.5302,269.62604,58,22,0
269.62604,269.7219,55,22,0
269.7219,269.81406,64,27,0
269.81406,269.90628,61,23,0
269.90628,269.9985,58,23,0
269.9985,270.09073,55,22,0
270.09073,270.18295,64,27,0
270.18295,270.27518,61,22,0
270.27518,270.37042,58,22,0
270.37042,270.46564,55,22,0
270.46564,270.55807,63,29,0
270.55807,270.64984,60,22,0
270.64984,270.74158,57,22,0
270.74158,270.8333,54,22,0
270.8333,270.92505,63,27,0
270.92505,271.0168,60,22,0
271.0168,271.11264,57,22,0
271.11264,271.2085,54,22,0
271.2085,271.29996,63,27,0
271.29996,271.39142,60,23,0
271.39142,271.48288,57,23,0
271.48288,271.57434,54,22,0
271.57434,271.6658,63,27,0
271.6658,271.7573,60,22,0
271.7573,271.8525,57,22,0
271.8525,271.94775,54,22,0
271.94775,272.0402,63,29,0
272.0402,272.13193,60,22,0
272.13193,272.2237,57,22,0
272.2237,272.31543,54,22,0
272.31543,272.40717,63,27,0
272.40717,272.4989,60,22,0
272.4989,272.59476,57,22,0
272.59476,272.6906,54,22,0
272.6906,272.78207,63,27,0
272.78207,272.87354,60,23,0
272.87354,272.965,57,23,0
272.965,273.05646,54,22,0
273.05646,273.14792,63,27,0
273.14792,273.23938,60,22,0
273.23938,273.33463,57,22,0
273.33463,273.42987,54,22,0
273.42987,273.5223,63,29,0
273.5223,273.61404,60,22,0
273.61404,273.70578,57,22,0
273.70578,273.79752,54,22,0
273.79752,273.88928,63,27,0
273.88928,273.98102,60,22,0
273.98102,274.07687,57,22,0
274.07687,274.1727,54,22,0
274.1727,274.26416,63,27,0
274.26416,274.35565,60,23,0
274.35565,274.4471,57,23,0
274.4471,274.53857,54,22,0
274.53857,274.63004,63,27,0
274.63004,274.7215,60,22,0
274.7215,274.81674,57,22,0
274.81674,274.91196,54,22,0
274.91196,275.0044,63,29,0
275.0044,275.09616,60,22,0
275.09616,275.1879,57,22,0
275.1879,275.27963,54,22,0
275.27963,275.37137,63,27,0
275.37137,275.46313,60,22,0
275.46313,275.55896,57,22,0
275.55896,275.65482,54,22,0
275.65482,275.74628,63,27,0
275.74628,275.83774,60,23,0
275.83774,275.9292,57,23,0
275.9292,276.02066,53,22,0
276.02066,276.11212,63,27,0
276.11212,276.20358,60,22,0
276.20358,276.29883,57,22,0
276.29883,276.39407,53,22,0
276.39407,276.4865,63,29,0
276.4865,276.57825,60,22,0
276.57825,276.67,57,22,0
276.67,276.76175,53,22,0
276.76175,276.8535,63,27,0
276.8535,276.94522,60,22,0
276.94522,277.04108,57,22,0
277.04108,277.13693,53,22,0
277.13693,277.2284,63,27,0
277.2284,277.31985,60,23,0
277.31985,277.41132,57,23,0
277.41132,277.50278,53,22,0
277.50278,277.59424,63,27,0
277.59424,277.6857,60,22,0
277.6857,277.78094,57,22,0
277.78094,277.8762,53,22,0
277.8762,277.96863,63,29,0
277.96863,278.06036,60,22,0
278.06036,278.1521,57,22,0
278.1521,278.24384,53,22,0
278.24384,278.3356,63,27,0
278.3356,278.42734,60,22,0
278.42734,278.5232,57,22,0
278.5232,278.61902,53,22,0
278.61902,278.71048,63,27,0
278.71048,278.80194,60,23,0
278.80194,278.89343,57,23,0
278.89343,278.9849,53,22,0
278.9849,279.07635,63,27,0
279.07635,279.16782,60,22,0
279.16782,279.26306,57,22,0
279.26306,279.35828,53,22,0
279.35828,279.4507,63,29,0
279.4507,279.54248,60,22,0
279.54248,279.63422,57,22,0
279.63422,279.72595,53,22,0
279.72595,279.8177,63,28,0
279.8177,279.90945,60,23,0
279.90945,280.00528,57,23,0
280.00528,280.10114,53,23,0
280.10114,280.1926,63,28,0
280.1926,280.28406,60,24,0
280.28406,280.37552,57,24,0
280.37552,280.46698,53,24,0
280.46698,280.55844,63,29,0
280.55844,280.6499,60,24,0
280.6499,280.74515,57,24,0
280.74515,280.8404,53,24,0
280.8404,280.93283,63,33,0
280.93283,281.02457,60,25,0
281.02457,281.1163,57,25,0
281.1163,281.20807,53,25,0
281.20807,281.2998,63,32,0
281.2998,281.39154,60,26,0
281.39154,281.4874,57,26,0
281.4874,281.58325,53,26,0
281.58325,281.6747,63,32,0
281.6747,281.76617,60,28,0
281.76617,281.85764,57,28,0
281.85764,281.9491,53,27,0
281.9491,282.04056,63,33,0
282.04056,282.13202,60,28,0
282.13202,282.22726,57,28,0
282.22726,282.3225,53,28,0
282.3225,282.41495,63,38,0
282.41495,282.50668,60,29,0
282.50668,282.59842,57,29,0
282.59842,282.69016,53,29,0
282.69016,282.78192,63,37,0
282.78192,282.87366,60,30,0
282.87366,282.9695,57,30,0
282.9695,283.06534,53,30,0
283.06534,283.1568,63,37,0
283.1568,283.24826,60,32,0
283.24826,283.33972,57,33,0
283.33972,283.4312,53,32,0
283.4312,283.52267,63,38,0
283.52267,283.61414,60,32,0
283.61414,283.70935,57,33,0
283.70935,283.8046,53,33,0
283.8046,283.89703,63,44,0
283.89703,283.9888,60,33,0
283.9888,284.08054,57,34,0
284.08054,284.17227,53,34,0
284.17227,284.264,63,43,0
284.264,284.35574,60,36,0
284.35574,284.4516,57,39,0
284.4516,284.54745,53,41,0
284.54745,284.6392,63,53,0
284.6392,284.73093,60,43,0
284.73093,284.82678,57,44,0
284.82678,284.92264,53,44,0
284.92264,285.01437,63,55,0
285.01437,285.1061,60,45,0
285.1061,285.20197,57,45,0
285.20197,285.29782,53,45,0
285.29782,285.38956,63,56,0
285.38956,285.4813,60,46,0
285.4813,285.57715,57,46,0
285.57715,285.673,53,46,0
285.673,285.76474,63,57,0
285.76474,285.85648,60,47,0
285.85648,285.95233,57,47,0
285.95233,286.04816,53,47,0
286.04816,286.13992,63,59,0
286.13992,286.23166,60,48,0
286.23166,286.3275,57,48,0
286.3275,286.42334,53,49,0
286.42334,286.5151,63,60,0
286.5151,286.60684,60,49,0
286.60684,286.70267,57,49,0
286.70267,286.81985,53,50,0
287.0056,287.20068,52,54,0
287.19138,287.38644,53,44,0
287.37714,287.5722,55,44,0
287.5629,287.75793,57,53,0
287.74866,287.9437,58,40,0
287.93442,288.12946,60,40,0
288.12018,288.31537,62,40,0
288.30606,288.50204,63,52,0
288.4927,288.68973,64,45,0
288.68033,288.87836,65,43,0
288.8689,289.06787,67,41,0
289.05838,289.2602,69,45,0
289.25046,289.4578,70,41,0
289.44778,289.6675,72,38,0
289.65073,289.99564,74,38,0
289.98593,292.50726,63,38,0
289.98593,292.50726,72,38,0
289.98593,292.50726,75,45,0
292.70123,292.78445,58,42,0
292.78445,292.8677,57,40,0
292.8677,292.95093,58,45,0
292.95093,293.06793,53,39,0
292.70123,293.06793,62,50,0
293.06793,293.14334,65,42,0
293.06793,293.14334,62,35,0
293.4701,293.5455,62,38,0
293.4701,293.5455,58,32,0
294.27438,294.35764,58,42,0
294.35764,294.44086,57,40,0
294.44086,294.5241,58,45,0
294.5241,294.6411,53,39,0
294.27438,294.6411,62,50,0
294.6411,294.71652,65,42,0
294.6411,294.71652,62,35,0
295.04324,295.11865,62,38,0
295.04324,295.11865,58,32,0
295.84753,295.95117,58,42,0
295.84753,296.03598,62,50,0
295.94177,296.0454,57,40,0
296.03598,296.13962,58,46,0
296.13022,296.22443,53,40,0
296.22443,296.32553,62,44,0
296.22443,296.40826,65,53,0
296.31635,296.41745,61,42,0
296.40826,296.50937,62,49,0
296.50015,296.59207,58,42,0
296.59207,296.69165,65,47,0
296.59207,296.77313,70,56,0
296.6826,296.78217,64,45,0
296.77313,296.8727,65,51,0
296.86365,296.95416,62,45,0
296.95416,297.05124,70,49,0
296.95416,297.13058,74,59,0
297.04242,297.1394,69,47,0
297.13058,297.22757,70,54,0
297.21875,297.30692,65,47,0
297.30692,297.40707,74,52,0
297.30692,297.48904,77,62,0
297.39798,297.49817,73,50,0
297.48904,297.5913,74,57,0
297.58014,297.6919,70,49,0
297.6919,298.79147,82,72,0
298.79147,298.8831,81,60,0
298.8831,298.97473,82,57,0
298.97473,299.06638,84,60,0
299.06638,299.16898,82,54,0
299.16898,299.3574,81,60,0
299.3574,299.54584,79,51,0
299.54584,299.73428,77,54,0
299.73428,299.92273,75,50,0
299.92273,300.11118,74,59,0
300.11118,300.29962,72,48,0
300.29962,300.48807,79,56,0
300.48807,300.69202,77,47,0
300.69202,301.0928,75,54,0
301.0928,301.49362,74,47,0
301.88913,301.988,69,58,0
301.988,302.08688,70,54,0
302.08688,302.18576,72,58,0
302.18576,302.28464,70,54,0
302.28464,302.4737,68,60,0
302.4737,302.66272,67,54,0
302.66272,302.85175,65,66,0
302.85175,303.04715,63,61,0
303.04715,303.23618,62,69,0
303.23618,303.42523,60,62,0
303.42523,303.61426,63,73,0
303.61426,303.8181,57,63,0
303.8181,303.92285,58,79,0
304.0276,304.11703,62,68,0
304.11703,304.20648,60,65,0
304.20648,304.29593,58,71,0
304.29593,304.38538,57,65,0
304.38538,304.47482,58,71,0
304.47482,304.56427,55,65,0
304.56427,304.67282,53,79,0
304.7772,304.86664,67,68,0
304.86664,304.9561,65,65,0
304.9561,305.04553,63,71,0
305.04553,305.13498,62,65,0
305.13498,305.22443,63,71,0
305.22443,305.31387,60,65,0
305.31387,305.4224,58,79,0
305.52643,305.61588,74,68,0
305.61588,305.70532,72,65,0
305.70532,305.79477,70,71,0
305.79477,305.88422,69,65,0
305.88422,305.97366,70,71,0
305.97366,306.0631,67,65,0
306.0631,306.17163,65,79,0
306.27567,306.3651,79,78,0
306.3651,306.45456,77,74,0
306.45456,306.544,75,81,0
306.544,306.63345,74,74,0
306.63345,306.7229,75,81,0
306.7229,306.81235,72,74,0
306.81235,306.92087,70,90,0
307.02942,307.12216,72,68,0
307.12216,307.21494,74,68,0
307.21494,307.3077,75,77,0
307.3077,307.40048,77,70,0
307.40048,307.49323,79,70,0
307.49323,307.58603,81,71,0
307.58603,307.60938,82,73,0
307.60938,307.6327,84,65,0
307.6327,307.67917,82,81,0
307.67917,307.77173,81,72,0
307.77173,307.8636,82,73,0
307.8636,307.95474,84,74,0
307.95474,307.97754,86,74,0
307.97754,308.00052,87,66,0
308.00052,308.09317,86,83,0
308.04666,308.13998,84,75,0
308.13998,308.23465,86,76,0
308.23465,308.3432,88,76,0
308.3432,308.44238,89,94,0
308.74002,308.83923,65,79,0
310.30255,310.38602,62,54,0
310.38602,310.4695,61,52,0
310.4695,310.55298,62,58,0
310.55298,310.66956,58,50,0
310.30255,310.66956,65,65,0
310.66956,310.76978,74,65,0
310.66956,310.76978,65,65,0
311.0704,311.15366,70,58,0
311.0704,311.15366,62,58,0
311.83926,311.92276,62,54,0
311.92276,312.00626,61,52,0
312.00626,312.08972,62,58,0
312.08972,312.2063,58,50,0
311.83926,312.2063,65,65,0
312.2063,312.30652,74,65,0
312.2063,312.30652,65,65,0
312.60715,312.6974,70,58,0
312.60715,312.6974,62,58,0
315.93286,316.69156,74,56,0
315.19226,316.69156,80,75,0
316.69156,317.0689,75,44,0
316.2994,317.0689,79,53,0
317.0689,317.458,72,41,0
317.458,317.8284,74,55,0
317.0689,317.8284,77,49,0
317.8284,318.19876,71,41,0
318.19876,318.56912,72,55,0
317.8284,318.56912,75,49,0
318.56912,318.9575,69,42,0
318.9575,319.32785,70,55,0
318.56912,319.32785,74,50,0
319.32785,319.6982,67,41,0
319.6982,320.0686,68,55,0
319.32785,320.0686,72,49,0
320.0686,320.45694,65,42,0
320.45694,320.8273,67,55,0
320.0686,320.8273,70,50,0
320.8273,321.1977,69,49,0
320.8273,321.1977,63,41,0
321.1977,321.56033,62,55,0
321.1977,321.56805,70,50,0
321.56805,321.9564,62,42,0
321.56805,321.9564,58,42,0
321.9564,322.13635,60,68,0
321.9564,322.13635,57,60,0
322.13635,322.22635,65,62,0
322.22635,322.3163,60,39,0
322.22635,322.3163,57,33,0
322.3163,322.4063,65,64,0
322.4063,322.49628,60,41,0
322.4063,322.49628,57,34,0
322.49628,322.58627,67,68,0
322.58627,322.68048,60,40,0
322.58627,322.68048,57,34,0
322.68048,322.7702,69,62,0
322.7702,322.85992,63,45,0
322.7702,322.85992,60,38,0
322.85992,322.94965,65,68,0
322.94965,323.03934,63,45,0
322.94965,323.03934,60,38,0
323.03934,323.12906,67,68,0
323.12906,323.21878,63,45,0
323.12906,323.21878,60,38,0
323.21878,323.30847,69,70,0
323.30847,323.4024,63,45,0
323.30847,323.4024,60,38,0
323.4024,323.4924,70,68,0
323.4924,323.58237,61,40,0
323.4924,323.58237,58,34,0
323.58237,323.67236,70,62,0
323.67236,323.76233,61,39,0
323.67236,323.76233,58,33,0
323.76233,323.85233,70,64,0
323.85233,323.9423,61,41,0
323.85233,323.9423,58,34,0
323.9423,324.0323,68,68,0
324.0323,324.1265,61,40,0
324.0323,324.1265,58,34,0
324.1265,324.21622,67,62,0
324.21622,324.30594,61,45,0
324.21622,324.30594,58,38,0
324.30594,324.39563,65,68,0
324.39563,324.48535,61,45,0
324.39563,324.48535,58,38,0
324.48535,324.57507,64,68,0
324.57507,324.6648,61,45,0
324.57507,324.6648,58,38,0
324.6648,324.7545,67,70,0
324.7545,324.84842,61,45,0
324.7545,324.84842,58,38,0
324.84842,325.02838,65,68,0
324.84842,325.02838,57,60,0
324.84842,325.02838,60,60,0
325.02838,325.11838,77,62,0
325.11838,325.20834,72,39,0
325.11838,325.20834,69,33,0
325.20834,325.29834,77,64,0
325.29834,325.3883,72,41,0
325.29834,325.3883,69,34,0
325.3883,325.4783,79,68,0
325.4783,325.5725,72,40,0
325.4783,325.5725,69,34,0
325.5725,325.66223,81,62,0
325.66223,325.75195,75,45,0
325.66223,325.75195,72,38,0
325.75195,325.84164,77,68,0
325.84164,325.93137,75,45,0
325.84164,325.93137,72,38,0
325.93137,326.01968,79,68,0
326.01968,326.10782,75,45,0
326.01968,326.10782,72,38,0
326.10782,326.19598,81,70,0
326.19598,326.28992,75,45,0
326.19598,326.28992,72,38,0
326.28992,326.37988,82,68,0
326.37988,326.46988,73,40,0
326.37988,326.46988,70,34,0
326.46988,326.55984,82,62,0
326.55984,326.64984,73,39,0
326.55984,326.64984,70,33,0
326.64984,326.7398,82,64,0
326.7398,326.8298,73,41,0
326.7398,326.8298,70,34,0
326.8298,326.9198,80,68,0
326.9198,327.014,73,40,0
326.9198,327.014,70,34,0
327.014,327.10373,79,62,0
327.10373,327.19342,73,45,0
327.10373,327.19342,70,38,0
327.19342,327.28314,77,68,0
327.28314,327.37265,73,45,0
327.28314,327.37265,70,38,0
327.37265,327.46106,76,68,0
327.46106,327.5495,73,45,0
327.46106,327.5495,70,38,0
327.5495,327.6379,79,70,0
327.6379,327.73184,73,45,0
327.6379,327.73184,70,38,0
327.73184,327.82153,77,78,0
327.82153,327.91125,72,45,0
327.82153,327.91125,69,38,0
327.91125,328.00098,77,68,0
328.00098,328.09067,72,45,0
328.00098,328.09067,69,38,0
328.09067,328.1804,76,68,0
328.1804,328.2701,73,45,0
328.1804,328.2701,70,38,0
328.2701,328.35983,79,70,0
328.35983,328.45374,73,45,0
328.35983,328.45374,70,38,0
328.45374,328.54346,77,76,0
328.54346,328.63318,72,45,0
328.54346,328.63318,69,38,0
328.63318,328.7229,77,68,0
328.7229,328.8126,72,45,0
328.7229,328.8126,69,38,0
328.8126,328.9023,76,68,0
328.9023,328.99203,73,45,0
328.9023,328.99203,70,38,0
328.99203,329.08173,79,70,0
329.08173,329.18433,73,45,0
329.08173,329.18433,70,38,0
329.18433,329.27826,77,70,0
329.18433,329.27826,72,59,0
329.18433,329.27826,69,59,0
329.27826,329.38126,65,35,0
329.3722,329.47256,67,40,0
329.46344,329.56378,69,35,0
329.55466,329.65466,70,40,0
329.6456,329.74527,72,35,0
329.73624,329.83542,74,40,0
329.82645,329.92526,76,33,0
329.91626,330.01535,77,40,0
330.00635,330.10568,76,33,0
330.09665,330.19604,77,40,0
330.18698,330.2864,76,33,0
330.27734,330.37677,77,40,0
330.3677,330.4671,76,34,0
330.45807,330.55896,77,40,0
330.54843,330.65372,76,33,0
330.65372,331.39496,77,43,0
330.65372,331.39496,74,38,0
331.39496,331.7532,74,49,0
331.7532,332.11224,82,47,0
332.11224,332.4715,77,49,0
332.11224,332.4715,74,41,0
332.4715,332.8446,82,36,0
332.4715,332.8446,86,43,0
332.8446,333.20255,77,50,0
332.8446,333.20255,74,42,0
333.20255,333.57294,86,36,0
333.20255,333.57294,89,43,0
333.57294,334.31418,77,43,0
333.57294,334.31418,74,38,0
334.31418,334.67233,74,49,0
334.67233,335.0313,82,46,0
335.0313,335.3879,77,49,0
335.0313,335.3879,74,41,0
335.3879,335.7599,82,36,0
335.3879,335.7599,86,43,0
335.7599,336.11343,77,50,0
335.7599,336.11343,74,42,0
336.11343,336.48306,86,36,0
336.11343,336.48306,89,43,0
336.48306,337.212,83,49,0
336.48306,337.212,74,49,0
336.48306,337.212,77,49,0
336.48306,337.212,79,49,0
338.29852,338.65567,83,70,0
338.65567,339.00967,86,70,0
339.00967,339.72186,89,66,0
339.3679,340.08548,83,72,0
340.43637,340.79782,78,66,0
340.08548,341.14868,84,75,0
339.72186,341.14868,87,75,0
341.14868,341.51343,82,57,0
341.14868,341.51343,86,70,0
340.79782,341.51343,77,74,0
341.51343,341.8695,84,70,0
341.51343,341.8695,79,61,0
341.51343,341.8695,75,61,0
341.8695,342.2631,81,64,0
341.8695,342.2631,75,53,0
341.8695,342.2631,72,53,0
342.2631,342.4422,82,77,0
342.2631,342.4422,74,64,0
342.2631,342.4422,70,64,0
342.97952,343.70468,70,73,0
342.97952,343.71237,74,88,0
343.71237,344.0773,67,57,0
343.71237,344.08505,70,68,0
344.08505,344.27985,67,70,0
344.08505,344.27985,63,59,0
344.47467,345.0218,75,88,0
344.47467,345.0218,72,73,0
345.0218,345.20416,74,68,0
345.0218,345.20416,70,57,0
345.20416,345.56906,69,64,0
345.20416,345.5768,72,77,0
345.5768,345.76315,69,68,0
345.5768,345.76315,65,57,0
345.9495,346.67136,74,73,0
345.9495,346.67902,77,88,0
346.67902,347.0439,70,57,0
346.67902,347.05167,74,68,0
347.05167,347.24585,70,70,0
347.05167,347.24585,67,59,0
347.44003,347.98712,79,88,0
347.44003,347.98712,75,73,0
347.98712,348.1695,77,68,0
347.98712,348.1695,74,57,0
348.1695,348.53442,72,64,0
348.1695,348.54218,75,77,0
348.54218,348.72852,72,68,0
348.54218,348.72852,69,57,0
348.91486,349.4603,84,88,0
348.91486,349.4603,75,73,0
349.4603,349.64838,82,68,0
349.4603,349.64838,74,57,0
349.64838,350.19055,81,88,0
349.64838,350.19055,72,73,0
350.19055,350.37924,79,68,0
350.19055,350.37924,70,57,0
350.37924,350.7407,77,60,0
350.37924,350.7407,69,51,0
350.7407,351.10214,75,52,0
350.7407,351.10214,63,44,0
351.10214,351.46686,74,58,0
351.10214,351.46686,62,49,0
351.46686,351.8316,72,46,0
351.46686,351.8316,66,39,0
351.8316,352.19635,70,53,0
351.8316,352.19635,67,45,0
352.19635,352.5822,67,48,0
352.19635,352.5822,60,40,0
352.94583,353.13217,65,38,0
352.94583,353.13217,62,32,0
352.94583,353.13217,58,32,0
353.68326,353.87494,65,37,0
353.68326,353.87494,60,31,0
353.68326,353.87494,57,31,0
354.44165,354.7932,53,29,0
354.44165,354.7932,58,29,0
354.44165,354.7932,62,35,0
354.98193,355.36606,74,72,0
354.98193,355.36606,70,60,0
355.36606,355.46378,74,56,0
355.36606,355.46378,70,47,0
355.74277,355.8334,70,49,0
355.74277,355.8334,67,41,0
356.10696,356.20898,67,45,0
356.10696,356.20898,63,38,0
356.47632,356.84796,75,73,0
356.47632,356.84796,72,60,0
356.84796,356.94568,74,51,0
356.84796,356.94568,70,43,0
357.22467,357.3153,72,49,0
357.22467,357.3153,69,41,0
357.58942,357.6901,69,45,0
357.58942,357.6901,65,38,0
357.95605,358.33157,77,72,0
357.95605,358.33157,74,60,0
358.33157,358.4293,77,56,0
358.33157,358.4293,74,47,0
358.70828,358.79892,74,53,0
358.70828,358.79892,70,45,0
359.07248,359.17453,70,49,0
359.07248,359.17453,67,41,0
359.44186,359.813,79,84,0
359.44186,359.813,75,68,0
359.813,359.9107,77,58,0
359.813,359.9107,74,49,0
360.1897,360.28033,75,55,0
360.1897,360.28033,72,47,0
360.55444,360.66046,72,51,0
360.55444,360.66046,69,43,0
360.93176,361.30728,84,93,0
360.93176,361.30728,75,75,0
361.30728,361.41254,82,67,0
361.30728,361.41254,74,56,0
361.6831,362.05862,81,82,0
361.6831,362.05862,72,71,0
362.05862,362.15634,79,67,0
362.05862,362.15634,70,56,0
362.4561,362.5571,77,52,0
362.4561,362.5571,69,44,0
362.8714,362.9805,75,46,0
362.8714,362.9805,63,39,0
363.08957,363.18762,74,54,0
363.18762,363.28564,62,46,0
363.28564,363.3837,66,43,0
363.3837,363.48172,69,43,0
363.48172,363.57968,74,53,0
363.57968,363.67728,78,42,0
363.67728,363.7746,81,42,0
363.7746,363.87158,85,42,0
363.87158,363.96823,86,49,0
363.96823,364.06454,85,39,0
364.06454,364.16095,86,42,0
364.16095,364.25784,85,38,0
364.25784,364.35516,86,48,0
364.35516,364.45294,81,38,0
364.45294,364.55124,78,38,0
364.55124,364.6603,74,38,0
364.75772,364.85507,62,46,0
364.85507,364.95218,67,43,0
364.95218,365.04904,70,43,0
365.04904,365.1457,74,53,0
365.1457,365.24216,79,42,0
365.24216,365.33835,82,42,0
365.33835,365.43433,85,42,0
365.43433,365.53018,86,49,0
365.53018,365.62625,85,39,0
365.62625,365.7224,86,42,0
365.7224,365.81885,85,38,0
365.81885,365.91534,86,48,0
365.91534,366.01212,82,38,0
366.01212,366.1089,79,38,0
366.1089,366.21838,74,38,0
366.31485,366.41132,61,46,0
366.41132,366.50778,64,43,0
366.50778,366.60358,67,43,0
366.60358,366.6991,70,50,0
366.6991,366.79462,73,42,0
366.79462,366.88986,76,42,0
366.88986,366.98508,79,42,0
366.98508,367.08002,82,49,0
367.08002,367.1748,79,41,0
367.1748,367.2699,85,48,0
367.2699,367.3653,82,41,0
367.3653,367.461,79,48,0
367.461,367.55707,76,45,0
367.55707,367.65323,73,42,0
367.65323,367.76602,70,39,0
367.86218,367.95795,57,48,0
367.95795,368.05347,60,50,0
368.05347,368.1487,63,51,0
368.1487,368.24368,66,53,0
368.24368,368.33838,69,55,0
368.33838,368.433,72,57,0
368.433,368.52765,75,59,0
368.52765,368.62228,78,65,0
368.62228,368.71692,81,57,0
368.71692,368.80865,69,64,0
368.80865,368.90042,81,56,0
368.90042,368.99216,69,64,0
368.99216,369.0839,81,58,0
369.0839,369.17563,69,64,0
369.17563,369.27335,81,59,0
369.27335,369.3651,70,74,0
369.3651,369.45685,82,59,0
369.45685,369.54858,69,67,0
369.54858,369.64032,81,54,0
369.64032,369.7321,70,66,0
369.7321,369.82382,82,57,0
369.82382,369.91556,63,59,0
369.91556,370.0136,75,50,0
370.0136,370.10507,62,79,0
370.10507,370.19653,74,54,0
370.19653,370.288,69,65,0
370.288,370.37946,81,57,0
370.37946,370.47092,70,68,0
370.47092,370.56238,82,60,0
370.56238,370.65384,63,67,0
370.65384,370.7497,75,58,0
370.7497,370.84116,62,81,0
370.84116,370.93262,74,58,0
370.93262,371.02408,69,64,0
371.02408,371.11554,81,59,0
371.11554,371.207,70,67,0
371.207,371.29846,82,55,0
371.29846,371.38992,63,62,0
371.38992,371.48798,75,51,0
371.48798,371.57944,62,72,0
371.57944,371.6709,74,52,0
371.6709,371.76236,69,64,0
371.76236,371.85382,81,54,0
371.85382,371.9444,70,64,0
371.9444,372.03494,82,51,0
372.03494,372.1255,63,60,0
372.1255,372.2245,75,51,0
372.2245,372.31595,62,83,0
372.31595,372.4074,74,53,0
372.4074,372.4989,69,62,0
372.4989,372.59036,81,54,0
372.59036,372.68182,70,62,0
372.68182,372.7733,82,54,0
372.7733,372.86475,69,62,0
372.86475,372.95938,81,53,0
372.95938,373.05057,67,81,0
373.05057,373.14175,79,53,0
373.14175,373.23294,65,60,0
373.23294,373.32413,77,52,0
373.32413,373.4144,63,59,0
373.4144,373.50467,75,52,0
373.50467,373.59497,62,59,0
373.59497,373.6899,74,50,0
373.6899,373.78137,60,79,0
373.78137,373.87283,72,50,0
373.87283,373.9643,58,59,0
373.9643,374.05576,70,49,0
374.05576,374.14722,57,59,0
374.14722,374.23868,69,49,0
374.23868,374.33014,55,59,0
374.33014,374.42883,67,51,0
374.42883,374.52084,53,79,0
374.52084,374.61288,65,49,0
374.61288,374.7049,51,59,0
374.7049,374.79694,63,50,0
374.79694,374.88895,50,59,0
374.88895,374.98096,62,48,0
374.98096,375.073,48,58,0
375.073,375.1817,60,49,0
375.1817,375.274,46,64,0
375.1817,375.274,58,76,0
375.3663,375.45862,57,49,0
375.45862,375.55093,53,42,0
375.55093,375.64212,58,49,0
375.64212,375.7333,53,41,0
375.7333,375.8245,63,49,0
375.8245,375.91568,53,42,0
375.91568,376.00684,62,49,0
376.00684,376.09802,53,41,0
376.09802,376.1892,57,49,0
376.1892,376.2804,53,42,0
376.2804,376.37158,58,49,0
376.37158,376.46277,53,43,0
376.46277,376.55396,63,49,0
376.55396,376.64514,53,40,0
376.64514,376.73718,62,49,0
376.73718,376.8292,53,41,0
376.8292,376.92123,57,49,0
376.92123,377.01324,53,42,0
377.01324,377.1053,58,49,0
377.1053,377.1973,53,43,0
377.1973,377.2893,63,49,0
377.2893,377.38135,53,40,0
377.38135,377.56372,62,56,0
377.56372,377.6549,54,60,0
377.6549,377.7461,66,52,0
377.7461,377.83728,55,61,0
377.83728,377.92847,67,49,0
377.92847,378.01965,57,67,0
378.01965,378.1114,69,60,0
378.1114,378.20312,58,71,0
378.20312,378.29486,70,62,0
378.29486,378.38663,59,70,0
378.38663,378.47836,71,64,0
378.47836,378.5701,60,70,0
378.5701,378.66183,72,64,0
378.66183,378.7536,62,74,0
378.7536,378.84534,74,65,0
378.84534,378.93707,63,82,0
378.93707,379.0288,75,71,0
379.0288,379.12054,65,79,0
379.12054,379.2123,77,70,0
379.2123,379.30405,67,83,0
379.30405,379.39578,79,72,0
379.39578,379.48752,65,81,0
379.48752,379.58432,77,69,0
379.58432,379.6752,63,84,0
379.6752,379.7661,75,69,0
379.7661,379.85703,62,81,0
379.85703,379.94794,74,69,0
379.94794,380.03885,60,79,0
380.03885,380.12976,72,69,0
380.12976,380.22067,58,78,0
380.22067,380.31158,70,65,0
380.31158,380.40332,57,79,0
380.40332,380.49506,69,69,0
380.49506,380.5868,55,77,0
380.5868,380.68265,67,65,0
380.68265,380.7747,53,77,0
380.7747,380.8667,65,67,0
380.8667,380.95874,57,75,0
380.95874,381.05075,69,66,0
381.05075,381.41885,58,79,0
381.05075,381.41885,70,79,0
382.3425,382.5373,58,39,0
381.78696,382.5373,62,34,0
381.78696,382.5373,65,40,0
383.08945,383.2792,61,40,0
382.5373,383.2792,63,39,0
382.5373,383.2792,66,46,0
383.2792,383.46213,59,45,0
383.46213,383.64505,58,40,0
383.2792,383.64505,63,32,0
383.2792,383.64505,66,32,0
383.64505,383.82797,59,46,0
383.82797,384.0234,57,40,0
383.64505,384.0234,63,33,0
383.64505,384.0234,66,33,0
384.0234,384.57388,58,39,0
384.0234,384.57388,62,39,0
384.0234,384.57388,65,46,0
384.75735,385.31293,74,52,0
385.31293,385.50772,70,50,0
384.75735,385.50772,62,44,0
384.75735,385.50772,65,52,0
385.50772,386.05988,75,52,0
386.05988,386.2496,73,52,0
385.50772,386.2496,63,50,0
385.50772,386.2496,66,59,0
386.2496,386.43256,71,58,0
386.43256,386.61548,70,52,0
386.2496,386.61548,63,41,0
386.2496,386.61548,66,41,0
386.61548,386.7984,71,59,0
386.7984,386.99384,69,52,0
386.61548,386.99384,63,42,0
386.61548,386.99384,66,42,0
386.99384,387.54428,62,50,0
386.99384,387.54428,65,50,0
386.99384,387.54428,70,59,0
387.72775,387.91068,72,53,0
387.91068,388.09363,70,46,0
387.72775,388.09363,63,37,0
387.72775,388.09363,66,37,0
388.09363,388.27692,72,51,0
388.27692,388.472,69,44,0
388.09363,388.472,63,36,0
388.09363,388.472,66,36,0
388.472,389.02246,62,42,0
388.472,389.02246,65,42,0
388.472,389.02246,70,49,0
389.20593,389.38892,71,43,0
389.38892,389.57184,70,39,0
389.20593,389.57184,63,30,0
389.20593,389.57184,66,30,0
389.57184,389.75186,71,44,0
389.75186,389.94638,69,39,0
389.57184,389.94638,63,31,0
389.57184,389.94638,66,31,0
389.94638,390.49756,70,88,0
389.94638,390.49756,58,74,0
390.49756,390.5969,72,79,0
390.49756,390.5969,60,67,0
390.69623,391.245,74,89,0
390.69623,391.245,62,74,0
391.245,391.3437,75,81,0
391.245,391.3437,63,68,0
391.44238,391.98947,77,91,0
391.44238,391.98947,65,77,0
391.98947,392.08817,79,74,0
391.98947,392.08817,67,62,0
392.18686,392.27832,81,84,0
392.18686,392.27832,69,71,0
392.36978,392.46124,82,81,0
392.36978,392.46124,70,68,0
392.5527,392.64417,84,87,0
392.5527,392.64417,72,74,0
392.73563,392.84674,86,83,0
392.73563,392.84674,74,69,0
392.95786,393.509,87,96,0
392.95786,393.509,75,81,0
393.509,393.60834,86,84,0
393.509,393.60834,74,71,0
393.70767,394.25647,84,94,0
393.70767,394.25647,72,78,0
394.25647,394.35516,82,83,0
394.25647,394.35516,70,70,0
394.45383,395.00095,81,92,0
394.45383,395.00095,69,78,0
395.00095,395.09964,79,74,0
395.00095,395.09964,67,62,0
395.1983,395.28976,77,83,0
395.1983,395.28976,65,70,0
395.38126,395.47272,75,78,0
395.38126,395.47272,63,66,0
395.56418,395.65564,74,83,0
395.56418,395.65564,62,70,0
395.7471,395.84677,72,77,0
395.7471,395.84677,60,64,0
395.94644,396.0461,70,90,0
395.94644,396.0461,58,78,0
396.3451,396.43628,69,53,0
396.43628,396.52747,68,45,0
396.52747,396.61865,69,53,0
396.61865,396.718,65,43,0
396.718,396.80945,70,57,0
397.08386,397.17477,81,53,0
397.17477,397.26566,80,45,0
397.26566,397.35657,81,53,0
397.35657,397.45657,77,43,0
397.45657,397.55896,82,57,0
398.2757,398.72513,69,77,0
398.2757,398.72513,75,77,0
398.2757,398.72513,81,91,0
398.2757,398.72513,77,77,0
398.2757,398.72513,72,77,0
399.17456,399.624,70,82,0
399.17456,399.624,82,97,0
399.17456,399.624,77,82,0
399.17456,399.624,74,82,0
1.641514,1.7169162,46,36,0
1.641514,1.7169162,34,30,0
2.043659,2.1190612,46,32,0
2.043659,2.1190612,34,27,0
3.214676,3.2900782,46,36,0
3.214676,3.2900782,34,30,0
3.616821,3.692223,46,32,0
3.616821,3.692223,34,27,0
6.2705216,6.3621526,46,44,0
6.3621526,6.4537835,50,31,0
6.4537835,6.545415,53,31,0
6.545415,6.637046,58,31,0
6.637046,6.728677,46,44,0
6.728677,6.8203077,50,32,0
6.8203077,6.9119387,53,32,0
6.9119387,7.0035696,58,32,0
7.0035696,7.0952005,46,44,0
7.0952005,7.186832,50,33,0
7.186832,7.278463,53,33,0
7.278463,7.370094,58,33,0
7.370094,7.4617248,46,44,0
7.4617248,7.5533557,50,33,0
7.5533557,7.6449866,53,33,0
7.6449866,7.747586,58,33,0
7.747586,7.841807,46,44,0
7.841807,7.936028,51,31,0
7.936028,8.030249,55,31,0
8.030249,8.12447,58,31,0
8.12447,8.218691,46,42,0
8.218691,8.312912,51,28,0
8.312912,8.407133,55,28,0
8.407133,8.501354,58,28,0
8.501354,8.595575,46,41,0
8.595575,8.689796,51,29,0
8.689796,8.784017,53,29,0
8.784017,8.878238,57,29,0
8.878238,8.972459,46,41,0
8.972459,9.06668,51,31,0
9.06668,9.160901,53,31,0
9.160901,9.27063,57,31,0
9.27063,9.370831,46,44,0
9.370831,9.471031,50,31,0
9.471031,9.571232,53,31,0
9.571232,9.6714325,58,31,0
9.6714325,9.771633,46,44,0
9.771633,9.871833,50,32,0
9.871833,9.9720335,53,32,0
9.9720335,10.072234,58,32,0
10.072234,10.171114,46,44,0
10.171114,10.269993,50,32,0
10.269993,10.368872,53,32,0
10.368872,10.4677515,56,32,0
10.4677515,10.56663,46,44,0
10.56663,10.66551,50,32,0
10.66551,10.764389,53,32,0
10.764389,10.863268,56,32,0
10.863268,10.957787,46,44,0
10.957787,11.052304,51,32,0
11.052304,11.146822,55,32,0
11.146822,11.241341,51,32,0
11.241341,11.335858,46,44,0
11.335858,11.430376,51,36,0
11.430376,11.524895,55,36,0
11.524895,11.625769,51,36,0
11.625769,11.720286,46,48,0
11.720286,11.814804,48,37,0
11.814804,11.909323,51,38,0
11.909323,12.00384,53,40,0
12.00384,12.098358,46,50,0
12.098358,12.192877,48,40,0
12.192877,12.287395,51,39,0
12.287395,12.396724,53,43,0
12.396724,12.501472,46,60,0
12.785112,12.8745575,46,53,0
12.8745575,12.964003,45,46,0
12.964003,13.053449,46,53,0
13.053449,13.142894,43,46,0
13.142894,13.251432,41,60,0
13.534707,13.624153,51,53,0
13.624153,13.713598,50,46,0
13.713598,13.803044,51,53,0
13.803044,13.892489,48,46,0
13.892489,14.001028,46,60,0
14.283941,14.373386,58,53,0
14.373386,14.462832,57,46,0
14.462832,14.552278,58,53,0
14.552278,14.641723,55,46,0
14.641723,14.750261,53,60,0
15.0331745,15.12262,63,60,0
15.12262,15.212066,62,52,0
15.212066,15.301511,63,60,0
15.301511,15.390957,60,52,0
15.390957,15.499495,58,69,0
15.608033,15.700797,60,53,0
15.700797,15.793562,62,48,0
15.793562,15.886327,63,54,0
15.886327,15.979091,65,48,0
15.979091,16.071856,67,48,0
16.071856,16.164663,69,49,0
16.164663,16.2578,70,56,0
16.2578,16.35034,69,50,0
16.35034,16.442202,70,50,0
16.442202,16.533373,72,51,0
16.533373,16.625298,74,58,0
16.625298,16.718596,72,52,0
16.718596,16.813274,74,52,0
16.813274,16.921812,76,53,0
16.921812,17.021019,77,73,0
17.318638,17.417843,53,60,0
18.112288,18.20254,46,65,0
18.20254,18.292793,45,57,0
18.292793,18.383045,46,62,0
18.383045,18.477863,41,55,0
18.477863,18.568115,50,65,0
18.568115,18.658367,49,58,0
18.658367,18.748621,50,63,0
18.748621,18.843437,46,57,0
18.843437,18.933691,53,65,0
18.933691,19.023943,52,58,0
19.023943,19.114195,53,63,0
19.114195,19.209013,50,57,0
19.209013,19.298994,58,65,0
19.298994,19.388977,57,58,0
19.388977,19.478958,58,63,0
19.478958,19.573774,53,57,0
19.573774,19.663757,62,63,0
19.663757,19.753738,61,58,0
19.753738,19.843721,62,62,0
19.843721,19.955914,58,57,0
19.955914,20.602276,65,72,0
20.602276,20.697393,63,63,0
20.697393,20.972286,62,71,0
20.972286,21.063917,60,63,0
21.063917,21.33881,58,72,0
21.33881,21.438017,56,63,0
21.438017,22.196697,55,72,0
22.196697,22.574055,56,48,0
22.574055,22.96316,54,42,0
22.96316,23.33353,55,51,0
23.33353,23.7039,52,44,0
23.7039,24.07427,53,52,0
24.07427,24.46262,50,34,0
24.46262,24.642584,48,51,0
24.46262,24.642584,36,51,0
24.642584,24.745314,60,42,0
24.822548,24.925278,60,42,0
25.002512,25.105843,60,42,0
25.186714,25.289137,60,51,0
25.36614,25.468563,60,43,0
25.545567,25.64799,60,43,0
25.724993,25.828012,60,43,0
25.908632,26.011362,60,51,0
26.088596,26.191326,60,42,0
26.26856,26.37129,60,42,0
26.448524,26.551853,60,42,0
26.632727,26.73515,60,51,0
26.812153,26.914576,60,43,0
26.99158,27.094002,60,43,0
27.171005,27.279503,60,43,0
27.354645,27.534609,48,51,0
27.354645,27.534609,36,51,0
27.534609,27.637337,60,42,0
27.714573,27.8173,60,42,0
27.894537,27.997866,60,42,0
28.07874,28.181162,60,51,0
28.258165,28.360588,60,43,0
28.437592,28.540014,60,43,0
28.617018,28.720036,60,43,0
28.800655,28.903385,60,51,0
28.98062,29.08335,60,42,0
29.160583,29.263313,60,42,0
29.340548,29.443878,60,42,0
29.524752,29.627172,60,51,0
29.704178,29.806599,60,43,0
29.883602,29.986025,60,43,0
30.063028,30.171528,60,43,0
30.246668,30.417122,48,51,0
30.426094,30.528517,60,43,0
30.60552,30.707943,60,43,0
30.784946,30.893444,60,43,0
30.968586,31.13904,48,51,0
31.14801,31.250433,60,43,0
31.327436,31.42986,60,43,0
31.506863,31.617096,60,43,0
31.699175,32.069504,48,51,0
33.260513,33.361244,53,31,0
33.352097,33.452408,55,36,0
33.443317,33.543205,57,31,0
33.53414,33.63363,58,36,0
33.62459,33.723633,60,31,0
33.714653,33.81491,62,36,0
33.80431,33.918797,64,29,0
33.909786,34.008076,65,36,0
33.999172,34.097893,64,29,0
34.089016,34.187645,65,36,0
34.17858,34.27698,64,29,0
34.268047,34.367664,65,36,0
34.358555,34.457165,64,27,0
34.448322,34.54596,65,34,0
34.53703,34.627132,64,26,0
34.627132,34.72603,65,30,0
34.717163,34.81613,64,25,0
34.80728,34.90486,65,30,0
34.895927,34.99555,64,25,0
34.9864,35.08606,65,30,0
35.077038,35.1767,64,25,0
35.167667,35.26797,65,30,0
35.2578,35.36849,64,25,0
35.359497,35.457054,65,30,0
35.4481,35.547737,64,25,0
35.538708,35.63641,65,30,0
35.627533,35.726353,64,25,0
35.717434,35.81569,65,30,0
35.806652,35.905586,64,25,0
35.896656,35.996307,65,30,0
35.986137,36.087833,64,25,0
36.087833,36.179802,65,30,0
36.179802,36.280533,53,31,0
36.27139,36.3717,55,36,0
36.362606,36.462494,57,31,0
36.45343,36.552917,58,36,0
36.54388,36.64292,60,31,0
36.63394,36.7342,62,36,0
36.7236,36.838085,64,29,0
36.82908,36.927364,65,36,0
36.91846,37.01718,64,29,0
37.008305,37.106934,65,36,0
37.09787,37.19627,64,29,0
37.187336,37.286953,65,36,0
37.277847,37.376453,64,27,0
37.36761,37.46525,65,34,0
37.456318,37.54642,64,26,0
37.54642,37.645317,65,30,0
37.63645,37.73542,64,25,0
37.72657,37.824154,65,30,0
37.815216,37.914837,64,25,0
37.90569,38.00535,65,30,0
37.996326,38.09599,64,25,0
38.086956,38.18726,65,30,0
38.17709,38.287777,64,25,0
38.278786,38.376343,65,30,0
38.36739,38.467026,64,25,0
38.457996,38.5557,65,30,0
38.54682,38.64564,64,25,0
38.636723,38.734978,65,30,0
38.72594,38.824875,63,25,0
38.815945,38.915596,65,30,0
38.905426,39.007122,63,25,0
39.007122,39.144318,61,39,0
39.098583,39.19005,62,34,0
39.19005,39.326965,61,39,0
39.281513,39.37242,62,35,0
39.37242,39.508785,59,41,0
39.46333,39.554237,60,35,0
39.554237,39.6906,59,42,0
39.645145,39.736057,60,36,0
39.736057,39.87201,56,44,0
39.82669,39.917324,57,37,0
39.917324,40.053276,56,45,0
40.00796,40.098595,57,37,0
40.098595,40.234547,53,44,0
40.189228,40.27986,54,38,0
40.27986,40.415813,53,44,0
40.3705,40.461132,54,39,0
40.461132,40.596676,49,45,0
40.551495,40.641857,50,39,0
40.641857,40.777397,49,46,0
40.732216,40.82258,50,40,0
40.82258,40.95651,47,48,0
40.911865,41.00115,48,41,0
41.00115,41.13508,47,48,0
41.090435,41.17972,48,41,0
41.17972,41.313126,44,54,0
41.26901,41.357243,45,42,0
41.357243,41.489594,44,52,0
41.445477,41.533714,45,43,0
41.533714,41.66804,41,55,0
41.623264,41.71282,42,44,0
41.71282,41.847145,41,51,0
41.80237,41.891922,42,44,0
41.891922,42.024666,37,57,0
41.98042,42.068913,38,44,0
42.068913,42.201656,37,51,0
42.15741,42.245903,38,44,0
42.245903,42.382267,37,56,0
42.33681,42.427723,38,50,0
42.427723,42.564087,37,57,0
42.51863,42.601963,38,44,0
42.60954,42.74112,38,61,0
42.697258,42.784977,39,52,0
42.784977,42.916557,38,58,0
42.872696,42.96042,39,52,0
42.96042,43.09596,39,58,0
43.050777,43.14114,40,44,0
43.14114,43.276684,39,54,0
43.231503,43.32186,40,44,0
43.32186,43.45344,40,56,0
43.40958,43.497303,41,48,0
43.497303,43.62888,40,51,0
43.585022,43.67274,41,44,0
43.67274,43.809517,40,51,0
43.763924,43.85511,41,44,0
43.85511,43.99189,40,51,0
43.946297,44.029884,41,44,0
44.037483,44.171013,33,51,0
44.126503,44.215523,34,44,0
44.215523,44.349056,33,51,0
44.304543,44.386147,34,44,0
44.393566,44.533752,35,51,0
44.487022,44.580482,36,44,0
44.580482,44.73054,35,51,0
44.67394,44.777714,36,44,0
44.787148,44.96625,29,48,0
45.503563,46.22874,53,54,0
45.503563,46.23643,57,64,0
46.23643,46.601337,50,41,0
46.23643,46.609104,53,49,0
46.609104,46.803905,50,49,0
46.609104,46.803905,46,41,0
46.99871,47.545826,58,64,0
46.99871,47.545826,55,54,0
47.545826,47.728195,57,49,0
47.545826,47.728195,53,41,0
47.728195,48.0931,52,49,0
47.728195,48.10087,55,58,0
48.10087,48.2872,52,52,0
48.10087,48.2872,48,44,0
48.473537,49.195404,57,54,0
48.473537,49.20305,60,64,0
49.20305,49.567955,53,41,0
49.20305,49.575718,57,49,0
49.575718,49.769894,53,49,0
49.575718,49.769894,50,41,0
49.96407,50.51118,62,64,0
49.96407,50.51118,58,54,0
50.51118,50.693554,60,49,0
50.51118,50.693554,57,41,0
50.693554,51.05846,55,49,0
50.693554,51.066223,58,58,0
51.066223,51.25256,55,52,0
51.066223,51.25256,52,44,0
51.438896,51.98435,67,64,0
51.438896,51.98435,58,54,0
51.98435,52.172436,65,49,0
51.98435,52.172436,57,41,0
52.172436,52.714607,64,64,0
52.172436,52.714607,55,54,0
52.714607,52.903286,62,41,0
52.714607,52.903286,53,41,0
52.903286,53.264732,60,49,0
52.903286,53.264732,52,41,0
53.264732,53.62618,53,41,0
53.264732,53.62618,50,34,0
53.62618,53.99092,52,43,0
53.62618,53.99092,49,36,0
53.99092,54.35566,52,32,0
53.99092,54.35566,45,27,0
54.35566,54.7204,50,39,0
54.35566,54.7204,46,33,0
54.7204,55.106255,47,31,0
55.106255,55.842564,48,38,0
55.842564,56.59069,36,32,0
56.59069,57.34069,29,35,0
57.34069,57.890095,53,55,0
57.34069,57.890095,57,66,0
57.890095,57.987812,57,44,0
57.890095,57.987812,53,37,0
58.085533,58.176167,53,53,0
58.085533,58.176167,50,45,0
58.44807,58.539536,50,47,0
58.44807,58.539536,46,39,0
58.83508,59.375896,55,55,0
58.83508,59.375896,58,66,0
59.375896,59.473618,57,44,0
59.375896,59.473618,53,37,0
59.57134,59.661972,55,53,0
59.57134,59.661972,52,45,0
59.933876,60.02562,52,47,0
59.933876,60.02562,48,39,0
60.318703,60.85952,57,60,0
60.318703,60.85952,60,72,0
60.85952,60.95724,60,48,0
60.85952,60.95724,57,40,0
61.054962,61.145596,57,58,0
61.054962,61.145596,53,49,0
61.4175,61.50896,53,51,0
61.4175,61.50896,50,42,0
61.80451,62.345325,58,62,0
61.80451,62.345325,62,75,0
62.345325,62.443043,60,50,0
62.345325,62.443043,57,42,0
62.540764,62.631397,58,60,0
62.540764,62.631397,55,51,0
62.9033,62.995045,55,53,0
62.9033,62.995045,52,44,0
63.2988,63.83962,58,66,0
63.2988,63.83962,67,79,0
63.83962,63.94488,65,52,0
63.83962,63.94488,57,44,0
64.05015,64.590965,55,66,0
64.05015,64.590965,64,79,0
64.590965,64.68868,62,52,0
64.590965,64.68868,53,44,0
64.7864,64.88741,60,58,0
64.7864,64.88741,52,49,0
65.190445,65.29425,53,49,0
65.190445,65.29425,50,40,0
65.616234,67.18698,55,40,0
65.616234,67.18698,52,34,0
65.616234,67.18698,49,34,0
67.18698,68.74505,53,40,0
67.18698,68.74505,50,34,0
68.74505,70.29266,53,40,0
68.74505,70.29266,50,34,0
68.74505,70.29266,47,34,0
70.29266,71.24358,55,68,0
70.29266,71.24358,46,57,0
70.29266,71.24358,49,57,0
70.29266,71.24358,52,57,0
71.24358,71.33533,55,60,0
71.24358,71.33533,48,50,0
71.24358,71.33533,46,50,0
71.42707,71.518814,55,72,0
71.42707,71.518814,48,61,0
71.42707,71.518814,46,61,0
71.61056,71.7023,55,61,0
71.61056,71.7023,48,51,0
71.61056,71.7023,46,51,0
71.80002,72.16699,53,73,0
71.80002,72.16699,48,73,0
71.80002,72.16699,45,73,0
72.35048,72.44222,48,68,0
72.35048,72.44222,40,57,0
72.54026,72.63172,48,75,0
72.54026,72.63172,41,63,0
72.72319,72.81465,48,67,0
72.72319,72.81465,46,56,0
72.90611,72.99758,48,75,0
72.90611,72.99758,45,63,0
73.08904,73.180504,48,67,0
73.08904,73.180504,40,56,0
73.27635,73.36781,48,75,0
73.27635,73.36781,41,63,0
73.45928,73.55074,48,67,0
73.45928,73.55074,46,56,0
73.642204,73.733665,48,75,0
73.642204,73.733665,45,63,0
73.825134,73.916595,48,67,0
73.825134,73.916595,40,56,0
74.01463,74.1061,48,75,0
74.01463,74.1061,41,63,0
74.19756,74.289024,48,67,0
74.19756,74.289024,46,56,0
74.38049,74.471954,48,75,0
74.38049,74.471954,45,63,0
74.563416,74.65488,48,68,0
74.563416,74.65488,40,57,0
74.75389,75.48877,41,89,0
75.48877,76.22201,38,80,0
76.22201,76.96094,34,88,0
76.96094,77.713806,36,84,0
77.713806,77.806114,29,81,0
77.89842,77.99072,46,54,0
78.08303,78.17422,45,60,0
78.2654,78.35659,40,54,0
78.44778,78.53896,41,60,0
78.63015,78.72133,46,52,0
78.812515,78.9037,45,60,0
78.99489,79.086075,40,58,0
79.17726,79.26929,41,60,0
79.361305,79.45333,46,52,0
79.54536,79.63738,45,60,0
79.72941,79.821434,40,58,0
79.91346,80.00464,41,67,0
80.095825,80.18701,43,59,0
80.2782,80.369385,41,72,0
80.46057,80.55176,40,67,0
80.6435,80.73524,38,75,0
80.82698,80.918724,36,77,0
81.01047,81.10221,34,80,0
81.193954,81.2857,33,82,0
81.37744,82.84369,31,94,0
82.84369,83.58286,36,87,0
83.58286,83.67489,29,30,0
83.67489,83.766914,41,26,0
83.766914,83.85893,29,30,0
83.85893,83.95096,41,25,0
83.95096,84.042984,29,30,0
84.042984,84.13501,41,26,0
84.13501,84.227036,29,30,0
84.227036,84.31906,41,27,0
84.31906,84.41165,29,30,0
84.41165,84.50424,41,27,0
84.50424,84.59683,29,30,0
84.59683,84.68943,41,25,0
84.68943,84.78202,29,30,0
84.78202,84.87461,41,26,0
84.87461,84.972015,29,30,0
84.972015,85.06942,41,26,0
85.06942,85.161446,29,30,0
85.161446,85.25346,41,26,0
85.25346,85.34549,29,30,0
85.34549,85.437515,41,25,0
85.437515,85.52954,29,30,0
85.52954,85.62157,41,26,0
85.62157,85.71359,29,30,0
85.71359,85.81131,41,27,0
85.81131,85.90277,29,30,0
85.90277,85.99424,41,27,0
85.99424,86.0857,29,30,0
86.0857,86.17716,41,25,0
86.17716,86.26863,29,30,0
86.26863,86.36009,41,26,0
86.36009,86.45781,29,30,0
86.45781,86.55553,41,26,0
86.55553,86.64727,29,30,0
86.64727,86.73901,41,26,0
86.73901,86.83076,29,30,0
86.83076,86.9225,41,25,0
86.9225,87.014244,29,30,0
87.014244,87.10599,41,26,0
87.10599,87.19773,29,30,0
87.19773,87.289474,41,27,0
87.289474,87.382065,29,30,0
87.382065,87.47466,41,27,0
87.47466,87.56725,29,35,0
87.56725,87.65984,41,29,0
87.65984,87.75243,29,34,0
87.75243,87.84503,41,26,0
87.84503,87.94243,29,35,0
87.94243,88.03983,41,31,0
88.03983,88.13186,29,38,0
88.13186,88.223885,41,30,0
88.223885,88.31591,29,34,0
88.31591,88.40793,41,25,0
88.40793,88.499954,29,33,0
88.499954,88.59198,41,26,0
88.59198,88.684006,29,30,0
88.684006,88.78172,41,27,0
88.78172,88.87319,29,30,0
88.87319,88.96465,41,27,0
88.96465,89.056114,29,30,0
89.056114,89.14758,41,25,0
89.14758,89.239044,29,30,0
89.239044,89.330505,41,26,0
89.330505,89.42822,29,30,0
89.42822,89.52595,41,26,0
89.52595,89.61769,29,30,0
89.61769,89.709435,41,25,0
89.709435,89.80118,29,29,0
89.80118,89.89292,41,24,0
89.89292,89.98466,29,28,0
89.98466,90.0764,41,24,0
90.0764,90.168144,29,28,0
90.168144,90.25987,41,25,0
90.25987,90.35133,29,27,0
90.35133,90.4428,41,24,0
90.4428,90.53426,29,27,0
90.53426,90.625725,41,22,0
90.625725,90.71719,29,26,0
90.71719,90.80902,41,22,0
90.80902,90.90674,29,25,0
90.90674,91.00411,41,22,0
91.00411,91.095856,29,25,0
91.095856,91.1876,41,21,0
91.1876,91.27934,29,24,0
91.27934,91.371086,41,20,0
91.371086,91.46282,29,24,0
91.46282,91.554565,41,20,0
91.554565,91.64631,29,23,0
91.64631,91.73805,41,20,0
91.73805,91.82955,29,22,0
91.82955,91.92101,41,20,0
91.92101,92.012474,29,22,0
92.012474,92.10394,41,18,0
92.10394,92.195404,29,22,0
92.195404,92.286865,41,19,0
92.286865,92.38386,29,22,0
92.38386,92.481575,41,19,0
92.481575,93.03273,41,66,0
92.481575,93.03273,29,56,0
93.03273,93.13207,43,59,0
93.03273,93.13207,31,49,0
93.23141,93.78019,45,66,0
93.23141,93.78019,33,56,0
93.78019,93.878876,46,60,0
93.78019,93.878876,34,50,0
93.977554,94.52467,48,68,0
93.977554,94.52467,36,57,0
94.52467,94.62335,50,56,0
94.52467,94.62335,38,47,0
94.72204,94.8135,52,63,0
94.72204,94.8135,40,53,0
94.90497,94.99643,53,60,0
94.90497,94.99643,41,50,0
95.08789,95.17936,55,65,0
95.08789,95.17936,43,55,0
95.27082,95.381935,57,61,0
95.27082,95.381935,45,51,0
95.49304,96.0442,58,72,0
95.49304,96.0442,46,61,0
96.0442,96.14353,57,63,0
96.0442,96.14353,45,52,0
96.242874,96.79166,55,69,0
96.242874,96.79166,43,59,0
96.79166,96.890335,53,61,0
96.79166,96.890335,41,51,0
96.98902,97.53613,52,69,0
96.98902,97.53613,40,58,0
97.53613,97.63482,50,56,0
97.53613,97.63482,38,47,0
97.733505,97.82497,48,62,0
97.733505,97.82497,36,52,0
97.91643,98.0079,46,58,0
97.91643,98.0079,34,49,0
98.09936,98.19082,45,62,0
98.09936,98.19082,33,52,0
98.28229,98.38195,43,57,0
98.28229,98.38195,31,48,0
98.48162,98.58129,41,69,0
98.48162,98.58129,29,58,0
98.880295,98.97147,58,41,0
98.880295,98.97147,55,34,0
98.880295,98.97147,48,34,0
99.25319,99.34465,57,49,0
99.25319,99.34465,53,41,0
99.61904,99.709946,70,41,0
99.61904,99.709946,67,34,0
99.61904,99.709946,60,34,0
99.99177,100.094154,69,49,0
99.99177,100.094154,65,41,0
100.81088,101.24883,60,67,0
100.81088,101.24883,48,56,0
101.68679,102.12475,53,76,0
101.68679,102.12475,41,64,0
103.367386,103.44279,46,36,0
103.367386,103.44279,34,30,0
103.76953,103.84493,46,32,0
103.76953,103.84493,34,27,0
104.94055,105.01595,46,36,0
104.94055,105.01595,34,30,0
105.34269,105.4181,46,32,0
105.34269,105.4181,34,27,0
107.98715,108.07878,46,44,0
108.07878,108.17041,50,31,0
108.17041,108.26205,53,31,0
108.26205,108.353676,58,31,0
108.353676,108.445305,46,44,0
108.445305,108.536934,50,32,0
108.536934,108.62857,53,32,0
108.62857,108.7202,58,32,0
108.7202,108.81183,46,44,0
108.81183,108.90346,50,33,0
108.90346,108.995094,53,33,0
108.995094,109.08672,58,33,0
109.08672,109.17835,46,44,0
109.17835,109.26998,50,33,0
109.26998,109.36162,53,33,0
109.36162,109.46422,58,33,0
109.46422,109.55843,46,44,0
109.55843,109.65266,51,31,0
109.65266,109.74688,55,31,0
109.74688,109.841095,58,31,0
109.841095,109.93532,46,42,0
109.93532,110.02954,51,28,0
110.02954,110.123764,55,28,0
110.123764,110.21798,58,28,0
110.21798,110.3122,46,41,0
110.3122,110.406425,51,29,0
110.406425,110.50065,53,29,0
110.50065,110.594864,57,29,0
110.594864,110.68909,46,41,0
110.68909,110.78331,51,31,0
110.78331,110.87753,53,31,0
110.87753,110.98726,57,31,0
110.98726,111.087456,46,44,0
111.087456,111.18766,50,31,0
111.18766,111.28786,53,31,0
111.28786,111.38806,58,31,0
111.38806,111.48826,46,44,0
111.48826,111.58846,50,32,0
111.58846,111.68866,53,32,0
111.68866,111.788864,58,32,0
111.788864,111.88774,46,44,0
111.88774,111.98662,50,32,0
111.98662,112.0855,53,32,0
112.0855,112.18438,56,32,0
112.18438,112.28326,46,44,0
112.28326,112.38214,50,32,0
112.38214,112.48102,53,32,0
112.48102,112.579895,56,32,0
112.579895,112.674416,46,44,0
112.674416,112.768936,51,32,0
112.768936,112.86345,55,32,0
112.86345,112.95797,51,32,0
112.95797,113.05249,46,44,0
113.05249,113.147,51,36,0
113.147,113.24152,55,36,0
113.24152,113.3424,51,36,0
113.3424,113.43691,46,48,0
113.43691,113.53143,48,37,0
113.53143,113.62595,51,38,0
113.62595,113.72047,53,40,0
113.72047,113.81355,46,50,0
113.81355,113.90663,48,40,0
113.90663,113.99971,51,39,0
113.99971,114.10904,53,43,0
114.10904,114.21379,46,60,0
114.49743,114.586876,46,53,0
114.586876,114.67632,45,46,0
114.67632,114.76576,46,53,0
114.76576,114.85521,43,46,0
114.85521,114.96375,41,60,0
115.247025,115.33647,51,53,0
115.33647,115.42592,50,46,0
115.42592,115.51536,51,53,0
115.51536,115.604805,48,46,0
115.604805,115.71335,46,60,0
115.99626,116.08442,58,53,0
116.08442,116.17258,57,46,0
116.17258,116.260735,58,53,0
116.260735,116.34889,55,46,0
116.34889,116.45743,53,60,0
116.74034,116.8285,63,60,0
116.8285,116.91666,62,52,0
116.91666,117.004814,63,60,0
117.004814,117.09297,60,52,0
117.09297,117.20151,58,69,0
117.31004,117.40281,60,53,0
117.40281,117.495575,62,48,0
117.495575,117.58834,63,54,0
117.58834,117.68111,65,48,0
117.68111,117.77387,67,48,0
117.77387,117.86668,69,49,0
117.86668,117.959816,70,56,0
117.959816,118.05235,69,50,0
118.05235,118.14422,70,50,0
118.14422,118.23538,72,51,0
118.23538,118.32731,74,58,0
118.32731,118.42061,72,52,0
118.42061,118.51529,74,52,0
118.51529,118.623825,76,53,0
118.623825,118.72303,77,73,0
119.02065,119.11986,53,60,0
119.8143,119.90456,46,65,0
119.90456,119.994804,45,57,0
119.994804,120.08506,46,62,0
120.08506,120.17988,41,55,0
120.17988,120.27016,50,65,0
120.27016,120.360435,49,58,0
120.360435,120.450714,50,63,0
120.450714,120.54553,46,57,0
120.54553,120.63579,53,65,0
120.63579,120.726036,52,58,0
120.726036,120.81629,53,63,0
120.81629,120.91111,50,57,0
120.91111,121.000046,58,65,0
121.000046,121.08899,57,58,0
121.08899,121.17793,58,63,0
121.17793,121.27275,53,57,0
121.27275,121.36169,62,63,0
121.36169,121.45063,61,58,0
121.45063,121.53957,62,62,0
121.53957,121.651764,58,57,0
121.651764,122.29813,65,72,0
122.29813,122.39324,63,63,0
122.39324,122.66814,62,71,0
122.66814,122.759766,60,63,0
122.759766,123.03466,58,72,0
123.03466,123.133865,56,63,0
123.133865,123.89255,55,72,0
123.89255,124.269905,56,48,0
124.269905,124.65901,54,42,0
124.65901,125.02938,55,51,0
125.02938,125.39975,52,44,0
125.39975,125.77012,53,52,0
125.77012,126.15847,50,34,0
126.15847,126.33843,48,51,0
126.15847,126.33843,36,51,0
126.33843,126.44116,60,42,0
126.5184,126.62113,60,42,0
126.698364,126.8017,60,42,0
126.88257,126.984985,60,51,0
127.06199,127.16441,60,43,0
127.24142,127.34266,60,43,0
127.41878,127.52076,60,43,0
127.60138,127.70411,60,51,0
127.78134,127.88407,60,42,0
127.96131,128.06404,60,42,0
128.14127,128.2446,60,42,0
128.32547,128.4279,60,51,0
128.5049,128.60733,60,43,0
128.68433,128.78674,60,43,0
128.86375,128.97226,60,43,0
129.0474,129.2285,48,51,0
129.0474,129.2285,36,51,0
129.2285,129.33188,60,42,0
129.4096,129.51236,60,42,0
129.58961,129.69298,60,42,0
129.77385,129.87627,60,51,0
129.95328,130.0557,60,43,0
130.1327,130.23454,60,43,0
130.31111,130.41362,60,43,0
130.49425,130.59697,60,51,0
130.67421,130.77693,60,42,0
130.85417,130.95512,60,42,0
131.031,131.13277,60,42,0
131.21365,131.31607,60,51,0
131.39307,131.4955,60,43,0
131.5725,131.67493,60,43,0
131.75192,131.86043,60,43,0
131.93556,132.10602,48,51,0
132.11499,132.2174,60,43,0
132.29442,132.39595,60,43,0
132.4723,132.58003,60,43,0
132.65517,132.82562,48,51,0
132.8346,132.93701,60,43,0
133.01402,133.11555,60,43,0
133.1919,133.30194,60,43,0
133.38637,133.7567,48,51,0
134.94771,135.04843,53,31,0
135.03929,135.1396,55,36,0
135.13051,135.2304,57,31,0
135.22133,135.32082,58,36,0
135.31178,135.41083,60,31,0
135.40184,135.5021,62,36,0
135.4915,135.60599,64,29,0
135.59698,135.69496,65,36,0
135.68613,135.7845,64,29,0
135.77553,135.87283,65,36,0
135.86398,135.96227,64,29,0
135.9533,136.05098,65,36,0
136.04214,136.13991,64,27,0
136.13092,136.22893,65,34,0
136.22011,136.30893,64,26,0
136.30893,136.40848,65,30,0
136.39948,136.49715,64,25,0
136.48822,136.58592,65,30,0
136.57695,136.67654,64,25,0
136.6674,136.76706,65,30,0
136.75804,136.8577,64,25,0
136.84866,136.94897,65,30,0
136.9388,137.04948,64,25,0
137.0405,137.13806,65,30,0
137.1291,137.22801,64,25,0
137.21904,137.31668,65,30,0
137.3078,137.4063,64,25,0
137.3975,137.49521,65,30,0
137.48618,137.58481,64,25,0
137.57587,137.6755,65,30,0
137.66534,137.76704,64,25,0
137.76704,137.85901,65,30,0
137.85901,137.95973,53,31,0
137.95059,138.0509,55,36,0
138.04181,138.1417,57,31,0
138.13263,138.23212,58,36,0
138.22308,138.32213,60,31,0
138.31314,138.4134,62,36,0
138.4028,138.51724,64,29,0
138.50829,138.6058,65,36,0
138.59694,138.69545,64,29,0
138.68661,138.78381,65,36,0
138.77484,138.8733,64,29,0
138.86444,138.96175,65,36,0
138.9529,139.05219,64,27,0
139.0432,139.14084,65,34,0
139.13202,139.22096,64,26,0
139.22096,139.31717,65,30,0
139.30846,139.40517,64,25,0
139.39636,139.49426,65,30,0
139.48529,139.58333,64,25,0
139.57433,139.67299,65,30,0
139.66399,139.76363,64,25,0
139.7546,139.8549,65,30,0
139.84473,139.95541,64,25,0
139.94643,140.0439,65,30,0
140.03497,140.13443,64,25,0
140.12541,140.2223,65,30,0
140.21349,140.31097,64,25,0
140.30208,140.39949,65,30,0
140.39061,140.4884,63,25,0
140.47948,140.57913,65,30,0
140.56895,140.67065,63,25,0
140.67065,140.80785,61,39,0
140.76212,140.85358,62,34,0
140.85358,140.9905,61,39,0
140.94504,141.03595,62,35,0
141.03595,141.17232,59,41,0
141.12686,141.21777,60,35,0
141.21777,141.35413,59,42,0
141.30869,141.39958,60,36,0
141.39958,141.53554,56,44,0
141.49022,141.58086,57,37,0
141.58086,141.71681,56,45,0
141.6715,141.76213,57,37,0
141.76213,141.89807,53,44,0
141.85275,141.94339,54,38,0
141.94339,142.07935,53,44,0
142.03403,142.12466,54,39,0
142.12466,142.26021,49,45,0
142.21503,142.30539,50,39,0
142.30539,142.44093,49,46,0
142.39575,142.48611,50,40,0
142.48611,142.62004,47,48,0
142.5754,142.66469,48,41,0
142.66469,142.79861,47,48,0
142.75397,142.84325,48,41,0
142.84325,142.97665,44,54,0
142.93254,143.02077,45,42,0
143.02077,143.15312,44,52,0
143.10901,143.19725,45,43,0
143.19725,143.33157,41,55,0
143.28679,143.37634,42,44,0
143.37634,143.51068,41,51,0
143.4659,143.55545,42,44,0
143.55545,143.6882,37,57,0
143.64395,143.73244,38,44,0
143.73244,143.86519,37,51,0
143.82094,143.90944,38,44,0
143.90944,144.04579,37,56,0
144.00035,144.09125,38,50,0
144.09125,144.22762,37,57,0
144.18216,144.26549,38,44,0
144.27307,144.40465,38,61,0
144.3608,144.4485,39,52,0
144.4485,144.5801,38,58,0
144.53622,144.62395,39,52,0
144.62395,144.75949,39,58,0
144.71431,144.80467,40,44,0
144.80467,144.94022,39,54,0
144.89503,144.9854,40,44,0
144.9854,145.11589,40,56,0
145.07257,145.1592,41,48,0
145.1592,145.28914,40,51,0
145.24583,145.33246,41,44,0
145.33246,145.46924,40,51,0
145.42365,145.51483,41,44,0
145.51483,145.65161,40,51,0
145.60602,145.6896,41,44,0
145.6972,145.83073,33,51,0
145.78622,145.87524,34,44,0
145.87524,146.00877,33,51,0
145.96426,146.04587,34,44,0
146.05328,146.19347,35,51,0
146.14674,146.2402,36,44,0
146.2402,146.39026,35,51,0
146.33366,146.43742,36,44,0
146.44687,146.62598,29,48,0
147.16328,147.88846,53,54,0
147.16328,147.89615,57,64,0
147.89615,148.26106,50,41,0
147.89615,148.26881,53,49,0
148.26881,148.46362,50,49,0
148.26881,148.46362,46,41,0
148.65843,149.20555,58,64,0
148.65843,149.20555,55,54,0
149.20555,149.38791,57,49,0
149.20555,149.38791,53,41,0
149.38791,149.75282,52,49,0
149.38791,149.76059,55,58,0
149.76059,149.94691,52,52,0
149.76059,149.94691,48,44,0
150.13326,150.85512,57,54,0
150.13326,150.86276,60,64,0
150.86276,151.22768,53,41,0
150.86276,151.23544,57,49,0
151.23544,151.42961,53,49,0
151.23544,151.42961,50,41,0
151.6238,152.1709,62,64,0
151.6238,152.1709,58,54,0
152.1709,152.35327,60,49,0
152.1709,152.35327,57,41,0
152.35327,152.71819,55,49,0
152.35327,152.72594,58,58,0
152.72594,152.91228,55,52,0
152.72594,152.91228,52,44,0
153.09862,153.64407,67,64,0
153.09862,153.64407,58,54,0
153.64407,153.83215,65,49,0
153.64407,153.83215,57,41,0
153.83215,154.37433,64,64,0
153.83215,154.37433,55,54,0
154.37433,154.563,62,41,0
154.37433,154.563,53,41,0
154.563,154.92445,60,49,0
154.563,154.92445,52,41,0
154.92445,155.28589,53,41,0
154.92445,155.28589,50,34,0
155.28589,155.65063,52,43,0
155.28589,155.65063,49,36,0
155.65063,156.01538,52,32,0
155.65063,156.01538,45,27,0
156.01538,156.38013,50,39,0
156.01538,156.38013,46,33,0
156.38013,156.76598,47,31,0
156.76598,157.50227,48,38,0
157.50227,158.25041,36,32,0
158.25041,159.00041,29,35,0
159.00041,159.54616,53,55,0
159.00041,159.54616,57,66,0
159.54616,159.64388,57,44,0
159.54616,159.64388,53,37,0
159.7416,159.83223,53,53,0
159.7416,159.83223,50,45,0
160.10413,160.19559,50,47,0
160.10413,160.19559,46,39,0
160.49113,161.02928,55,55,0
160.49113,161.02928,58,66,0
161.02928,161.127,57,44,0
161.02928,161.127,53,37,0
161.22472,161.31535,55,53,0
161.22472,161.31535,52,45,0
161.58725,161.679,52,47,0
161.58725,161.679,48,39,0
161.97209,162.51102,57,60,0
161.97209,162.51102,60,72,0
162.51102,162.60873,60,48,0
162.51102,162.60873,57,40,0
162.70645,162.79709,57,58,0
162.70645,162.79709,53,49,0
163.069,163.16046,53,51,0
163.069,163.16046,50,42,0
163.45601,163.99683,58,62,0
163.45601,163.99683,62,75,0
163.99683,164.09454,60,50,0
163.99683,164.09454,57,42,0
164.19226,164.2829,58,60,0
164.19226,164.2829,55,51,0
164.5548,164.64655,55,53,0
164.5548,164.64655,52,44,0
164.9503,165.49112,58,66,0
164.9503,165.49112,67,79,0
165.49112,165.59637,65,52,0
165.49112,165.59637,57,44,0
165.70164,166.24246,55,66,0
165.70164,166.24246,64,79,0
166.24246,166.34018,62,52,0
166.24246,166.34018,53,44,0
166.4379,166.53891,60,58,0
166.4379,166.53891,52,49,0
166.84193,166.94629,53,49,0
166.84193,166.94629,50,40,0
167.27802,168.84875,55,40,0
167.27802,168.84875,52,34,0
167.27802,168.84875,49,34,0
168.84875,170.39323,53,40,0
168.84875,170.39323,50,34,0
170.39323,171.94086,53,40,0
170.39323,171.94086,50,34,0
170.39323,171.94086,47,34,0
171.94086,172.89178,55,68,0
171.94086,172.89178,46,57,0
171.94086,172.89178,49,57,0
171.94086,172.89178,52,57,0
172.89178,172.98352,55,60,0
172.89178,172.98352,48,50,0
172.89178,172.98352,46,50,0
173.07527,173.167,55,72,0
173.07527,173.167,48,61,0
173.07527,173.167,46,61,0
173.25876,173.3505,55,61,0
173.25876,173.3505,48,51,0
173.25876,173.3505,46,51,0
173.44821,173.81519,53,73,0
173.44821,173.81519,48,73,0
173.44821,173.81519,45,73,0
173.99867,174.09042,48,68,0
173.99867,174.09042,40,57,0
174.18846,174.27992,48,75,0
174.18846,174.27992,41,63,0
174.37138,174.46284,48,67,0
174.37138,174.46284,46,56,0
174.55376,174.64377,48,75,0
174.55376,174.64377,45,63,0
174.73376,174.82378,48,67,0
174.73376,174.82378,40,56,0
174.91963,175.0111,48,75,0
174.91963,175.0111,41,63,0
175.10255,175.19402,48,67,0
175.10255,175.19402,46,56,0
175.28548,175.3765,48,75,0
175.28548,175.3765,45,63,0
175.46677,175.55705,48,67,0
175.46677,175.55705,40,56,0
175.65509,175.74655,48,75,0
175.65509,175.74655,41,63,0
175.83801,175.92947,48,67,0
175.83801,175.92947,46,56,0
176.02078,176.11131,48,75,0
176.02078,176.11131,45,63,0
176.20186,176.2924,48,68,0
176.20186,176.2924,40,57,0
176.39142,177.12318,41,89,0
177.12318,177.85641,38,80,0
177.85641,178.59535,34,88,0
178.59535,179.34822,36,84,0
179.34822,179.44052,29,81,0
179.53284,179.62514,46,54,0
179.71745,179.80864,45,60,0
179.89981,179.991,40,54,0
180.08218,180.17337,41,60,0
180.26456,180.35574,46,52,0
180.44693,180.53812,45,60,0
180.6293,180.72049,40,58,0
180.81168,180.9037,41,60,0
180.99573,181.08775,46,52,0
181.17976,181.27179,45,60,0
181.36382,181.45584,40,58,0
181.54787,181.63905,41,67,0
181.73024,181.82143,43,59,0
181.91261,182.0038,41,72,0
182.09499,182.18617,40,67,0
182.27791,182.36966,38,75,0
182.4614,182.55315,36,77,0
182.64488,182.73662,34,80,0
182.82837,182.9201,33,82,0
183.01186,184.4781,31,94,0
184.4781,185.21727,36,87,0
185.21727,185.3093,29,30,0
185.3093,185.40132,41,26,0
185.40132,185.49335,29,30,0
185.49335,185.58537,41,25,0
185.58537,185.6774,29,30,0
185.6774,185.76942,41,26,0
185.76942,185.86145,29,30,0
185.86145,185.95348,41,27,0
185.95348,186.04607,29,30,0
186.04607,186.13866,41,27,0
186.13866,186.23125,29,30,0
186.23125,186.32384,41,25,0
186.32384,186.41643,29,30,0
186.41643,186.50903,41,26,0
186.50903,186.60643,29,30,0
186.60643,186.70383,41,26,0
186.70383,186.79585,29,30,0
186.79585,186.88788,41,26,0
186.88788,186.9799,29,30,0
186.9799,187.07193,41,25,0
187.07193,187.16396,29,30,0
187.16396,187.25598,41,26,0
187.25598,187.348,29,30,0
187.348,187.44572,41,27,0
187.44572,187.53719,29,30,0
187.53719,187.62865,41,27,0
187.62865,187.72011,29,30,0
187.72011,187.81157,41,25,0
187.81157,187.90305,29,30,0
187.90305,187.9945,41,26,0
187.9945,188.09222,29,30,0
188.09222,188.18994,41,26,0
188.18994,188.2817,29,30,0
188.2817,188.37343,41,26,0
188.37343,188.46518,29,30,0
188.46518,188.55692,41,25,0
188.55692,188.64865,29,30,0
188.64865,188.7404,41,26,0
188.7404,188.83214,29,30,0
188.83214,188.92389,41,27,0
188.92389,189.01648,29,30,0
189.01648,189.10907,41,27,0
189.10907,189.20166,29,35,0
189.20166,189.29425,41,29,0
189.29425,189.38686,29,34,0
189.38686,189.48027,41,26,0
189.48027,189.58118,29,35,0
189.58118,189.68208,41,31,0
189.68208,189.77411,29,38,0
189.77411,189.86613,41,30,0
189.86613,189.95816,29,34,0
189.95816,190.05019,41,25,0
190.05019,190.14221,29,33,0
190.14221,190.23424,41,26,0
190.23424,190.32626,29,30,0
190.32626,190.42398,41,27,0
190.42398,190.51544,29,30,0
190.51544,190.6069,41,27,0
190.6069,190.69836,29,30,0
190.69836,190.78984,41,25,0
190.78984,190.8813,29,30,0
190.8813,190.97276,41,26,0
190.97276,191.07048,29,30,0
191.07048,191.1682,41,26,0
191.1682,191.25995,29,30,0
191.25995,191.35168,41,25,0
191.35168,191.44344,29,29,0
191.44344,191.53517,41,24,0
191.53517,191.62692,29,28,0
191.62692,191.71866,41,24,0
191.71866,191.81041,29,28,0
191.81041,191.90213,41,25,0
191.90213,191.99281,29,27,0
191.99281,192.08337,41,24,0
192.08337,192.17392,29,27,0
192.17392,192.26448,41,22,0
192.26448,192.35597,29,26,0
192.35597,192.44798,41,22,0
192.44798,192.5457,29,25,0
192.5457,192.64307,41,22,0
192.64307,192.73482,29,25,0
192.73482,192.82655,41,21,0
192.82655,192.9183,29,24,0
192.9183,193.01004,41,20,0
193.01004,193.10179,29,24,0
193.10179,193.19353,41,20,0
193.19353,193.28528,29,23,0
193.28528,193.37701,41,20,0
193.37701,193.4685,29,22,0
193.4685,193.55998,41,20,0
193.55998,193.65144,29,22,0
193.65144,193.7429,41,18,0
193.7429,193.83437,29,22,0
193.83437,193.92583,41,19,0
193.92583,194.02281,29,22,0
194.02281,194.12054,41,19,0
194.12054,194.67169,41,66,0
194.12054,194.67169,29,56,0
194.67169,194.77103,43,59,0
194.67169,194.77103,31,49,0
194.87038,195.41914,45,66,0
194.87038,195.41914,33,56,0
195.41914,195.51784,46,60,0
195.41914,195.51784,34,50,0
195.61652,196.1664,48,68,0
195.61652,196.1664,36,57,0
196.1664,196.26509,50,56,0
196.1664,196.26509,38,47,0
196.36377,196.45523,52,63,0
196.36377,196.45523,40,53,0
196.54669,196.63817,53,60,0
196.54669,196.63817,41,50,0
196.72963,196.82109,55,65,0
196.72963,196.82109,43,55,0
196.91255,197.02367,57,61,0
196.91255,197.02367,45,51,0
197.13289,197.68622,58,72,0
197.13289,197.68622,46,61,0
197.68622,197.78555,57,63,0
197.68622,197.78555,45,52,0
197.88489,198.43367,55,69,0
197.88489,198.43367,43,59,0
198.43367,198.53236,53,61,0
198.43367,198.53236,41,51,0
198.63104,199.17816,52,69,0
198.63104,199.17816,40,58,0
199.17816,199.27684,50,56,0
199.17816,199.27684,38,47,0
199.37552,199.467,48,62,0
199.37552,199.467,36,52,0
199.55846,199.64992,46,58,0
199.55846,199.64992,34,49,0
199.74138,199.83284,45,62,0
199.74138,199.83284,33,52,0
199.9243,200.02397,43,57,0
199.9243,200.02397,31,48,0
200.12364,200.22331,41,69,0
200.12364,200.22331,29,58,0
200.52231,200.6135,58,41,0
200.52231,200.6135,55,34,0
200.52231,200.6135,48,34,0
200.8952,200.98666,57,49,0
200.8952,200.98666,53,41,0
201.26106,201.35197,70,41,0
201.26106,201.35197,67,34,0
201.26106,201.35197,60,34,0
201.63379,201.73618,69,49,0
201.63379,201.73618,65,41,0
202.4529,202.89085,60,67,0
202.4529,202.89085,48,56,0
203.32881,203.77097,53,76,0
203.32881,203.77097,41,64,0
205.38596,205.4692,48,42,0
205.4692,205.55244,47,40,0
205.55244,205.63568,48,45,0
205.63568,205.75269,45,39,0
205.75269,205.85323,53,50,0
206.883,206.96625,48,42,0
206.96625,207.04948,47,40,0
207.04948,207.13272,48,45,0
207.13272,207.24973,45,39,0
207.24973,207.35027,53,50,0
208.0186,208.56976,53,66,0
208.0186,208.56976,41,56,0
208.56976,208.6691,55,59,0
208.56976,208.6691,43,49,0
208.76843,209.31721,57,66,0
208.76843,209.31721,45,56,0
209.31721,209.4159,58,60,0
209.31721,209.4159,46,50,0
209.51459,210.06169,60,68,0
209.51459,210.06169,48,57,0
210.06169,210.16039,62,56,0
210.06169,210.16039,50,47,0
210.25906,210.35052,63,63,0
210.25906,210.35052,51,53,0
210.44199,210.53345,62,60,0
210.44199,210.53345,50,50,0
210.62492,210.71638,60,65,0
210.62492,210.71638,48,55,0
210.80785,210.92172,62,61,0
210.80785,210.92172,50,51,0
211.0361,211.5832,63,68,0
211.0361,211.5832,51,57,0
211.5832,211.6819,62,53,0
211.5832,211.6819,50,44,0
211.78058,211.87204,60,59,0
211.78058,211.87204,48,50,0
211.96352,212.05498,58,57,0
211.96352,212.05498,46,47,0
212.14644,212.2379,57,61,0
212.14644,212.2379,45,52,0
212.32936,212.44048,58,57,0
212.32936,212.44048,46,48,0
212.55159,213.0987,60,64,0
212.55159,213.0987,48,54,0
213.0987,213.19739,58,52,0
213.0987,213.19739,46,43,0
213.29607,213.38753,57,56,0
213.29607,213.38753,45,47,0
213.47899,213.57045,55,52,0
213.47899,213.57045,43,44,0
213.66193,213.75339,54,55,0
213.66193,213.75339,42,46,0
213.84485,213.95596,52,50,0
213.84485,213.95596,40,42,0
214.06706,214.15909,38,30,0
214.15909,214.25111,50,26,0
214.25111,214.34314,38,30,0
214.34314,214.43517,50,25,0
214.43517,214.52719,38,30,0
214.52719,214.61922,50,26,0
214.61922,214.71124,38,30,0
214.71124,214.80327,50,27,0
214.80327,214.89586,38,30,0
214.89586,214.98845,50,27,0
214.98845,215.08104,38,30,0
215.08104,215.17363,50,25,0
215.17363,215.26624,38,30,0
215.26624,215.35883,50,26,0
215.35883,215.45622,38,30,0
215.45622,215.55362,50,26,0
215.55362,215.64565,38,30,0
215.64565,215.73767,50,26,0
215.73767,215.8297,38,30,0
215.8297,215.92172,50,25,0
215.92172,216.01375,38,30,0
216.01375,216.10577,50,26,0
216.10577,216.1978,38,30,0
216.1978,216.29552,50,27,0
216.29552,216.38698,38,30,0
216.38698,216.47844,50,27,0
216.47844,216.5699,38,30,0
216.5699,216.66138,50,25,0
216.66138,216.75284,38,30,0
216.75284,216.8443,50,26,0
216.8443,216.94202,38,30,0
216.94202,217.03973,50,26,0
217.03973,217.13148,38,30,0
217.13148,217.22322,50,26,0
217.22322,217.31497,38,30,0
217.31497,217.40671,50,25,0
217.40671,217.49846,38,30,0
217.49846,217.5902,50,26,0
217.5902,217.68195,38,30,0
217.68195,217.77368,50,27,0
217.77368,217.86627,38,30,0
217.86627,217.95886,50,27,0
217.95886,218.05145,38,30,0
218.05145,218.14406,50,25,0
218.14406,218.23665,38,30,0
218.23665,218.32924,50,26,0
218.32924,218.42664,38,30,0
218.42664,218.52405,50,26,0
218.52405,218.61606,38,30,0
218.61606,218.70808,50,26,0
218.70808,218.80011,38,30,0
218.80011,218.89214,50,25,0
218.89214,218.98416,38,30,0
218.98416,219.07619,50,26,0
219.07619,219.16821,38,30,0
219.16821,219.26593,50,27,0
219.26593,219.35739,38,30,0
219.35739,219.44885,50,27,0
219.44885,219.54033,38,30,0
219.54033,219.63147,50,25,0
219.63147,219.72202,38,30,0
219.72202,219.81258,50,26,0
219.81258,219.9103,38,30,0
219.9103,220.00801,50,26,0
220.00801,220.09976,38,30,0
220.09976,220.1915,50,26,0
220.1915,220.28323,38,30,0
220.28323,220.37498,50,25,0
220.37498,220.46672,38,30,0
220.46672,220.55847,50,26,0
220.55847,220.6502,38,30,0
220.6502,220.74196,50,27,0
220.74196,220.83342,38,30,0
220.83342,220.92488,50,27,0
220.92488,221.01634,38,30,0
221.01634,221.1078,50,25,0
221.1078,221.19928,38,30,0
221.19928,221.29074,50,26,0
221.29074,221.38846,38,30,0
221.38846,221.48618,50,26,0
221.48618,221.57793,38,30,0
221.57793,221.66966,50,26,0
221.66966,221.7614,38,30,0
221.7614,221.85315,50,25,0
221.85315,221.94489,38,30,0
221.94489,222.03664,50,26,0
222.03664,222.12837,38,30,0
222.12837,222.22012,50,27,0
222.22012,222.31158,38,24,0
222.31158,222.40305,50,21,0
222.40305,222.4945,38,24,0
222.4945,222.58597,50,20,0
222.58597,222.67744,38,24,0
222.67744,222.7689,50,20,0
222.7689,222.86662,38,24,0
222.86662,222.96362,50,20,0
222.96362,223.52216,38,97,0
223.52216,223.62149,40,70,0
223.72084,224.26962,50,81,0
223.72084,224.26962,42,68,0
224.26962,224.3683,52,68,0
224.26962,224.3683,43,57,0
224.46698,225.02025,54,76,0
224.46698,225.02025,45,64,0
224.46698,225.02025,48,64,0
225.02025,225.11893,55,64,0
225.02025,225.11893,46,54,0
225.02025,225.11893,50,54,0
225.2176,225.30907,57,72,0
225.2176,225.30907,54,61,0
225.40054,225.492,58,66,0
225.40054,225.492,55,56,0
225.58347,225.67493,60,73,0
225.58347,225.67493,57,62,0
225.76639,225.8775,62,66,0
225.76639,225.8775,58,56,0
225.98862,226.0798,63,76,0
225.98862,226.0798,60,64,0
228.94154,229.49866,43,97,0
229.49866,229.59799,45,70,0
229.69733,230.24611,55,81,0
229.69733,230.24611,47,68,0
230.24611,230.34479,57,68,0
230.24611,230.34479,48,57,0
230.44348,230.99059,59,76,0
230.44348,230.99059,50,64,0
230.44348,230.99059,53,64,0
230.99059,231.08928,60,64,0
230.99059,231.08928,51,54,0
230.99059,231.08928,55,54,0
231.18796,231.27942,62,72,0
231.18796,231.27942,59,61,0
231.37088,231.46236,63,66,0
231.37088,231.46236,60,56,0
231.55382,231.64528,65,73,0
231.55382,231.64528,62,62,0
231.73674,231.84785,67,66,0
231.73674,231.84785,63,56,0
231.95897,232.05014,68,76,0
231.95897,232.05014,65,64,0
234.91295,235.47444,36,97,0
235.47444,235.57379,38,70,0
235.67313,236.22191,48,81,0
235.67313,236.22191,40,68,0
236.22191,236.32059,50,68,0
236.22191,236.32059,41,57,0
236.41927,236.96638,52,76,0
236.41927,236.96638,43,64,0
236.41927,236.96638,46,64,0
236.96638,237.06506,53,64,0
236.96638,237.06506,44,54,0
236.96638,237.06506,48,54,0
237.16376,237.25522,55,72,0
237.16376,237.25522,52,61,0
237.34668,237.43814,56,66,0
237.34668,237.43814,53,56,0
237.5296,237.62106,58,73,0
237.5296,237.62106,55,62,0
237.71254,237.82364,60,66,0
237.71254,237.82364,56,56,0
237.93475,238.02594,61,76,0
237.93475,238.02594,58,64,0
240.50458,240.87471,55,67,0
239.40654,240.87471,46,76,0
239.77017,240.87471,49,67,0
240.14095,240.87471,52,67,0
241.97954,242.34428,56,67,0
240.87471,242.34428,44,76,0
241.23724,242.34428,48,67,0
241.60664,242.34428,53,67,0
243.44232,243.81245,56,67,0
242.34428,243.81245,44,76,0
242.70792,243.81245,48,67,0
243.07869,243.81245,53,67,0
244.91728,245.28917,55,67,0
243.81245,245.28917,43,76,0
244.17499,245.28917,50,67,0
244.54439,245.28917,53,67,0
246.3872,246.75734,55,67,0
245.28917,246.75734,43,76,0
245.65282,246.75734,47,67,0
246.02357,246.75734,50,67,0
247.86218,248.22691,55,65,0
246.75734,248.22691,43,76,0
247.11989,248.22691,48,67,0
247.48929,248.22691,51,66,0
249.32495,249.69508,54,62,0
248.22691,249.69508,42,73,0
248.59056,249.69508,48,64,0
248.96132,249.69508,51,63,0
250.79993,251.18939,53,60,0
249.69508,251.18939,41,70,0
250.05763,251.18939,48,61,0
250.42703,251.18939,51,60,0
252.28743,252.65756,53,57,0
251.18939,252.65756,41,67,0
251.55304,252.65756,45,58,0
251.9238,252.65756,48,58,0
253.7624,254.14758,53,55,0
252.65756,254.14758,41,64,0
253.0201,254.14758,46,56,0
253.38951,254.14758,49,56,0
255.24504,255.61517,52,52,0
254.14758,255.61517,40,62,0
254.5109,255.61517,46,54,0
254.88141,255.61517,49,53,0
256.72,257.08478,51,50,0
255.61517,257.08478,39,59,0
255.9777,257.08478,46,51,0
256.3471,257.08478,49,50,0
258.194,258.5985,51,47,0
257.08478,258.5985,39,56,0
257.45062,258.5985,46,48,0
257.82306,258.5985,49,48,0
258.5985,259.1497,39,49,0
259.1497,259.34137,41,44,0
259.34137,259.89014,43,49,0
259.89014,260.08063,44,44,0
260.08063,260.63177,46,47,0
260.63177,260.8235,48,44,0
260.8235,261.0064,49,46,0
261.0064,261.18933,48,44,0
261.18933,261.37225,46,46,0
261.37225,261.56274,44,38,0
261.56274,262.1139,43,47,0
262.1139,262.30557,44,44,0
262.30557,262.4885,46,46,0
262.4885,262.67145,44,44,0
262.67145,262.85437,43,46,0
262.85437,263.04483,41,38,0
263.04892,263.59998,39,47,0
264.52695,265.0839,36,39,0
265.0839,265.27557,38,35,0
265.27557,265.82437,40,39,0
265.82437,266.01483,41,35,0
266.01483,266.56598,43,37,0
266.56598,266.7577,44,35,0
266.7577,266.9406,46,36,0
266.9406,267.12354,44,35,0
267.12354,267.30646,43,36,0
267.30646,267.49695,41,30,0
267.49695,268.0481,40,37,0
268.0481,268.23978,41,35,0
268.23978,268.42273,43,36,0
268.42273,268.60565,41,35,0
268.60565,268.78857,40,36,0
268.78857,268.97903,38,30,0
268.97903,269.5302,36,37,0
270.46564,271.0168,29,39,0
271.0168,271.2085,31,35,0
271.2085,271.7573,33,39,0
271.7573,271.94775,34,35,0
271.94775,272.4989,36,37,0
272.4989,272.6906,37,35,0
272.6906,272.87354,39,36,0
272.87354,273.05646,37,35,0
273.05646,273.23938,36,36,0
273.23938,273.42987,34,30,0
273.42987,273.98102,33,37,0
273.98102,274.1727,34,35,0
274.1727,274.35565,36,36,0
274.35565,274.53857,34,35,0
274.53857,274.7215,33,36,0
274.7215,274.91196,31,30,0
274.91196,277.13693,29,37,0
277.13693,277.31985,36,36,0
277.31985,277.50278,34,35,0
277.50278,277.6857,33,36,0
277.6857,277.8762,31,30,0
277.8762,280.10114,29,37,0
280.10114,280.28406,36,41,0
280.28406,280.46698,34,40,0
280.46698,280.6499,33,41,0
280.6499,280.8404,31,34,0
280.8404,281.58325,29,42,0
281.58325,281.76617,36,43,0
281.76617,281.9491,34,43,0
281.9491,282.13202,33,46,0
282.13202,282.3225,31,39,0
282.3225,283.06534,29,48,0
283.06534,283.24826,36,51,0
283.24826,283.4312,34,50,0
283.4312,283.61414,33,52,0
283.61414,283.8046,31,44,0
283.8046,284.35574,29,56,0
284.35574,284.54745,31,54,0
284.54745,284.73093,33,59,0
284.73093,284.92264,34,54,0
284.92264,285.1061,36,62,0
285.1061,285.29782,38,54,0
285.29782,285.4813,39,59,0
285.4813,285.673,40,54,0
285.673,285.85648,41,64,0
285.85648,286.04816,43,57,0
286.04816,286.23166,45,59,0
286.23166,286.42334,46,55,0
286.42334,286.60684,48,66,0
286.60684,286.81985,50,60,0
286.81985,288.30606,41,63,0
286.81985,288.30606,51,63,0
288.30606,289.05838,48,50,0
288.30606,289.05838,41,50,0
289.05838,289.98593,46,42,0
289.05838,289.98593,41,42,0
289.98593,292.50726,53,25,0
289.98593,292.50726,45,20,0
289.98593,292.50726,41,20,0
293.06793,293.14334,46,36,0
293.06793,293.14334,34,30,0
293.4701,293.5455,46,32,0
293.4701,293.5455,34,27,0
294.6411,294.71652,46,36,0
294.6411,294.71652,34,30,0
295.04324,295.11865,46,32,0
295.04324,295.11865,34,27,0
297.6919,297.78354,46,44,0
297.78354,297.87515,50,31,0
297.87515,297.9668,53,31,0
297.9668,298.0584,58,31,0
298.0584,298.15005,46,44,0
298.15005,298.2417,50,32,0
298.2417,298.3333,53,32,0
298.3333,298.42496,58,32,0
298.42496,298.51657,46,44,0
298.51657,298.60822,50,33,0
298.60822,298.69983,53,33,0
298.69983,298.79147,58,33,0
298.79147,298.8831,46,44,0
298.8831,298.97473,50,33,0
298.97473,299.06638,53,33,0
299.06638,299.16898,58,33,0
299.16898,299.26318,46,44,0
299.26318,299.3574,51,31,0
299.3574,299.45163,55,31,0
299.45163,299.54584,58,31,0
299.54584,299.64008,46,42,0
299.64008,299.73428,51,28,0
299.73428,299.82852,55,28,0
299.82852,299.92273,58,28,0
299.92273,300.01697,46,41,0
300.01697,300.11118,51,29,0
300.11118,300.20538,53,29,0
300.20538,300.29962,57,29,0
300.29962,300.39383,46,41,0
300.39383,300.48807,51,31,0
300.48807,300.58228,53,31,0
300.58228,300.69202,57,31,0
300.69202,300.7922,46,44,0
300.7922,300.8924,50,31,0
300.8924,300.9926,53,31,0
300.9926,301.0928,58,31,0
301.0928,301.19302,46,44,0
301.19302,301.2932,50,32,0
301.2932,301.3934,53,32,0
301.3934,301.49362,58,32,0
301.49362,301.5925,46,44,0
301.5925,301.69138,50,32,0
301.69138,301.79025,53,32,0
301.79025,301.88913,56,32,0
301.88913,301.988,46,44,0
301.988,302.08688,50,32,0
302.08688,302.18576,53,32,0
302.18576,302.28464,56,32,0
302.28464,302.37915,46,44,0
302.37915,302.4737,51,32,0
302.4737,302.5682,55,32,0
302.5682,302.66272,51,32,0
302.66272,302.75723,46,44,0
302.75723,302.85175,51,36,0
302.85175,302.94626,55,36,0
302.94626,303.04715,51,36,0
303.04715,303.14166,46,48,0
303.14166,303.23618,48,37,0
303.23618,303.3307,51,38,0
303.3307,303.42523,53,40,0
303.42523,303.51974,46,50,0
303.51974,303.61426,48,40,0
303.61426,303.70877,51,39,0
303.70877,303.8181,53,43,0
303.8181,303.92285,46,60,0
304.20648,304.29593,46,53,0
304.29593,304.38538,45,46,0
304.38538,304.47482,46,53,0
304.47482,304.56427,43,46,0
304.56427,304.67282,41,60,0
304.9561,305.04553,51,53,0
305.04553,305.13498,50,46,0
305.13498,305.22443,51,53,0
305.22443,305.31387,48,46,0
305.31387,305.4224,46,60,0
305.70532,305.79477,58,53,0
305.79477,305.88422,57,46,0
305.88422,305.97366,58,53,0
305.97366,306.0631,55,46,0
306.0631,306.17163,53,60,0
306.45456,306.544,63,60,0
306.544,306.63345,62,52,0
306.63345,306.7229,63,60,0
306.7229,306.81235,60,52,0
306.81235,306.92087,58,69,0
307.02942,307.12216,60,53,0
307.12216,307.21494,62,48,0
307.21494,307.3077,63,54,0
307.3077,307.40048,65,48,0
307.40048,307.49323,67,48,0
307.49323,307.58603,69,49,0
307.58603,307.67917,70,56,0
307.67917,307.77173,69,50,0
307.77173,307.8636,70,50,0
307.8636,307.95474,72,51,0
307.95474,308.04666,74,58,0
308.04666,308.13998,72,52,0
308.13998,308.23465,74,52,0
308.23465,308.3432,76,53,0
308.3432,308.44238,77,73,0
308.74002,308.83923,53,60,0
309.53366,309.6169,46,54,0
309.6169,309.70013,45,52,0
309.70013,309.7834,46,58,0
309.7834,309.9004,41,50,0
309.53366,309.9004,50,65,0
309.9004,310.00092,53,65,0
309.9004,310.00092,50,65,0
310.30255,310.38602,50,58,0
310.30255,310.38602,46,58,0
311.0704,311.15366,46,54,0
311.15366,311.23688,45,52,0
311.23688,311.32013,46,58,0
311.32013,311.43713,41,50,0
311.0704,311.43713,50,65,0
311.43713,311.53766,53,65,0
311.43713,311.53766,50,65,0
311.83926,311.92276,50,58,0
311.83926,311.92276,46,58,0
312.60715,312.6974,50,65,0
312.6974,312.78766,49,57,0
312.78766,312.8779,50,62,0
312.8779,312.97272,46,55,0
312.97272,313.063,53,65,0
313.063,313.15323,52,58,0
313.15323,313.24347,53,63,0
313.24347,313.3383,50,57,0
313.3383,313.42856,58,65,0
313.42856,313.5188,57,58,0
313.5188,313.60904,58,63,0
313.60904,313.70386,53,57,0
313.70386,313.79385,62,65,0
313.79385,313.88385,61,58,0
313.88385,313.97382,62,63,0
313.97382,314.06863,58,57,0
314.06863,314.15863,65,63,0
314.15863,314.2486,64,58,0
314.2486,314.3386,65,62,0
314.3386,314.45078,62,57,0
314.45078,315.09714,68,75,0
315.09714,315.19226,67,63,0
315.19226,315.46713,65,71,0
315.46713,315.55878,63,63,0
315.55878,315.83368,62,72,0
315.83368,315.93286,60,63,0
315.93286,316.69156,59,72,0
316.69156,317.0689,60,48,0
317.0689,317.458,57,42,0
317.458,317.8284,58,51,0
317.8284,318.19876,55,44,0
318.19876,318.56912,56,52,0
318.56912,318.9575,54,34,0
318.9575,319.32785,55,51,0
319.32785,319.6982,52,44,0
319.6982,320.0686,53,52,0
320.0686,320.45694,50,34,0
320.45694,320.8273,51,51,0
320.8273,321.1977,48,44,0
321.1977,321.56805,50,52,0
321.56805,321.9564,52,34,0
321.9564,322.13635,41,51,0
322.13635,322.2391,53,42,0
322.3163,322.41907,53,42,0
322.49628,322.5996,53,42,0
322.68048,322.78293,53,51,0
322.85992,322.96234,53,43,0
323.03934,323.14175,53,43,0
323.21878,323.32178,53,43,0
323.4024,323.50513,53,51,0
323.58237,323.6851,53,42,0
323.76233,323.86508,53,42,0
323.9423,324.04562,53,42,0
324.1265,324.22894,53,51,0
324.30594,324.40836,53,43,0
324.48535,324.58777,53,43,0
324.6648,324.7733,53,43,0
324.84842,325.02838,53,51,0
324.84842,325.02838,41,46,0
325.02838,325.1311,65,42,0
325.20834,325.31107,65,42,0
325.3883,325.49164,65,42,0
325.5725,325.67493,65,51,0
325.75195,325.85437,65,43,0
325.93137,326.03217,65,43,0
326.10782,326.2093,65,43,0
326.28992,326.39264,65,51,0
326.46988,326.5726,65,42,0
326.64984,326.75256,65,42,0
326.8298,326.93314,65,42,0
327.014,327.11642,65,51,0
327.19342,327.29587,65,43,0
327.37265,327.4736,65,43,0
327.5495,327.65668,65,43,0
327.73184,327.90228,53,51,0
327.91125,328.01367,65,43,0
328.09067,328.1931,65,43,0
328.2701,328.3786,65,43,0
328.45374,328.6242,53,51,0
328.63318,328.7356,65,43,0
328.8126,328.915,65,43,0
328.99203,329.10226,65,43,0
329.18433,329.55466,53,51,0
330.74567,330.8464,58,31,0
330.83725,330.93756,60,36,0
330.92847,331.02838,62,31,0
331.01932,331.11877,63,36,0
331.10974,331.2088,65,31,0
331.19983,331.30008,67,36,0
331.28946,331.40396,69,29,0
331.39496,331.49323,70,36,0
331.48434,331.58304,69,29,0
331.5742,331.67282,70,36,0
331.66376,331.76215,69,29,0
331.7532,331.8528,70,36,0
331.84372,331.94238,69,27,0
331.93353,332.03116,70,34,0
332.02225,332.11224,69,26,0
332.11224,332.21112,70,30,0
332.20227,332.30124,69,25,0
332.2924,332.38995,70,30,0
332.38104,332.48065,69,25,0
332.4715,332.57117,70,30,0
332.56213,332.6618,69,25,0
332.65277,332.75308,70,30,0
332.74292,332.8536,69,25,0
332.8446,332.94217,70,30,0
332.9332,333.03284,69,25,0
333.0238,333.12152,70,30,0
333.11264,333.21146,69,25,0
333.20255,333.30078,70,30,0
333.29175,333.3907,69,25,0
333.38177,333.4814,70,30,0
333.47125,333.57294,69,25,0
333.57294,333.66492,70,30,0
333.66492,333.76562,58,31,0
333.7565,333.8568,60,36,0
333.84772,333.9476,62,31,0
333.93854,334.03802,63,36,0
334.029,334.12802,65,31,0
334.11905,334.2193,67,36,0
334.2087,334.32318,69,29,0
334.31418,334.41248,70,36,0
334.40356,334.5023,69,29,0
334.4934,334.59204,70,36,0
334.58298,334.68118,69,29,0
334.67233,334.77185,70,36,0
334.76276,334.86136,69,27,0
334.8525,334.95016,70,34,0
334.94122,335.0313,69,26,0
335.0313,335.13022,70,30,0
335.12137,335.22028,69,25,0
335.2115,335.30795,70,30,0
335.29916,335.39676,69,25,0
335.3879,335.48645,70,30,0
335.47742,335.5771,69,25,0
335.56805,335.66837,70,30,0
335.65817,335.76886,69,25,0
335.7599,335.85706,70,30,0
335.8481,335.94635,69,25,0
335.9375,336.03394,70,30,0
336.02524,336.1223,69,25,0
336.11343,336.21133,70,30,0
336.20242,336.3008,68,25,0
336.2919,336.39154,70,30,0
336.38138,336.48306,68,25,0
336.48306,336.62027,66,39,0
336.57452,336.66602,67,34,0
336.66602,336.80292,66,39,0
336.75748,336.8484,67,35,0
336.8484,336.98474,64,41,0
336.93927,337.03018,65,35,0
337.03018,337.16656,64,42,0
337.1211,337.212,65,36,0
337.212,337.34796,61,44,0
337.30264,337.39328,62,37,0
337.39328,337.52924,61,45,0
337.48392,337.57455,62,37,0
337.57455,337.7105,58,44,0
337.6652,337.75583,59,38,0
337.75583,337.89175,58,44,0
337.84647,337.93707,59,39,0
337.93707,338.07263,54,45,0
338.02744,338.1178,55,39,0
338.1178,338.25336,54,46,0
338.20816,338.29852,55,40,0
338.29852,338.43246,52,48,0
338.38782,338.4771,53,41,0
338.4771,338.61102,52,48,0
338.56638,338.65567,53,41,0
338.65567,338.7891,49,54,0
338.74496,338.8332,50,42,0
338.8332,338.96555,49,52,0
338.92142,339.00967,50,43,0
339.00967,339.14398,46,55,0
339.0992,339.18878,47,44,0
339.18878,339.3231,46,51,0
339.27832,339.3679,47,44,0
339.3679,339.5006,42,57,0
339.45636,339.54486,43,44,0
339.54486,339.6776,42,51,0
339.63336,339.72186,43,44,0
339.72186,339.85822,42,56,0
339.81277,339.9037,43,50,0
339.9037,340.04004,42,57,0
339.9946,340.0779,43,44,0
340.08548,340.21707,43,61,0
340.17322,340.26093,44,52,0
340.26093,340.39252,43,58,0
340.34866,340.43637,44,52,0
340.43637,340.5719,44,58,0
340.52673,340.6171,45,44,0
340.6171,340.75262,44,54,0
340.70746,340.79782,45,44,0
340.79782,340.92938,45,56,0
340.88553,340.97327,46,48,0
340.97327,341.10483,45,51,0
341.06097,341.14868,46,44,0
341.14868,341.28546,45,51,0
341.23987,341.33105,46,44,0
341.33105,341.46783,45,51,0
341.42224,341.50583,46,44,0
341.51343,341.64697,38,51,0
341.60245,341.69147,39,44,0
341.69147,341.825,38,51,0
341.7805,341.8621,39,44,0
341.8695,342.0097,40,51,0
341.96298,342.05643,41,44,0
342.05643,342.20648,40,51,0
342.1499,342.25366,41,44,0
342.2631,342.4422,34,48,0
342.97952,343.70468,58,54,0
342.97952,343.71237,62,64,0
343.71237,344.0773,55,41,0
343.71237,344.08505,58,49,0
344.08505,344.27985,55,49,0
344.08505,344.27985,51,41,0
344.47467,345.0218,63,64,0
344.47467,345.0218,60,54,0
345.0218,345.20416,62,49,0
345.0218,345.20416,58,41,0
345.20416,345.56906,57,49,0
345.20416,345.5768,60,58,0
345.5768,345.76315,57,52,0
345.5768,345.76315,53,44,0
345.9495,346.67136,62,54,0
345.9495,346.67902,65,64,0
346.67902,347.0439,58,41,0
346.67902,347.05167,62,49,0
347.05167,347.24585,58,49,0
347.05167,347.24585,55,41,0
347.44003,347.98712,67,64,0
347.44003,347.98712,63,54,0
347.98712,348.1695,65,49,0
347.98712,348.1695,62,41,0
348.1695,348.53442,60,49,0
348.1695,348.54218,63,58,0
348.54218,348.72852,60,52,0
348.54218,348.72852,57,44,0
348.91486,349.4603,72,64,0
348.91486,349.4603,63,54,0
349.4603,349.64838,70,49,0
349.4603,349.64838,62,41,0
349.64838,350.19055,69,64,0
349.64838,350.19055,60,54,0
350.19055,350.37924,67,41,0
350.19055,350.37924,58,41,0
350.37924,350.7407,65,49,0
350.37924,350.7407,57,41,0
350.7407,351.10214,58,41,0
350.7407,351.10214,55,34,0
351.10214,351.46686,57,43,0
351.10214,351.46686,54,36,0
351.46686,351.8316,57,32,0
351.46686,351.8316,50,27,0
351.8316,352.19635,55,39,0
351.8316,352.19635,51,33,0
352.19635,352.5822,52,31,0
352.19635,352.5822,58,40,0
352.5822,353.3185,53,38,0
353.3185,354.06665,41,32,0
354.06665,354.81665,34,35,0
354.81665,355.36606,58,55,0
354.81665,355.36606,62,66,0
355.36606,355.46378,62,44,0
355.36606,355.46378,58,37,0
355.5615,355.65213,58,53,0
355.5615,355.65213,55,45,0
355.924,356.0155,55,47,0
355.924,356.0155,51,39,0
356.31104,356.84796,60,55,0
356.31104,356.84796,63,66,0
356.84796,356.94568,62,44,0
356.84796,356.94568,58,37,0
357.0434,357.13403,60,53,0
357.0434,357.13403,57,45,0
357.40594,357.49768,57,47,0
357.40594,357.49768,53,39,0
357.79077,358.33157,62,60,0
357.79077,358.33157,65,72,0
358.33157,358.4293,65,48,0
358.33157,358.4293,62,40,0
358.52704,358.61765,62,58,0
358.52704,358.61765,58,49,0
358.88956,358.98102,58,51,0
358.88956,358.98102,55,42,0
359.27658,359.813,63,62,0
359.27658,359.813,67,75,0
359.813,359.9107,65,50,0
359.813,359.9107,62,42,0
360.00842,360.09906,63,60,0
360.00842,360.09906,60,51,0
360.37097,360.4627,60,53,0
360.37097,360.4627,57,44,0
360.76645,361.30728,63,66,0
360.76645,361.30728,72,79,0
361.30728,361.41254,70,52,0
361.30728,361.41254,62,44,0
361.5178,362.05862,60,66,0
361.5178,362.05862,69,79,0
362.05862,362.15634,67,52,0
362.05862,362.15634,58,44,0
362.25406,362.35507,65,58,0
362.25406,362.35507,57,49,0
362.6581,362.76474,58,49,0
362.6581,362.76474,55,40,0
363.08957,364.6603,60,40,0
363.08957,364.6603,57,34,0
363.08957,364.6603,54,34,0
364.6603,366.21838,58,40,0
364.6603,366.21838,55,34,0
366.21838,367.76602,55,40,0
366.21838,367.76602,52,34,0
367.76602,368.71692,54,68,0
367.76602,368.71692,51,57,0
368.71692,368.80865,60,60,0
368.71692,368.80865,53,50,0
368.71692,368.80865,51,50,0
368.90042,368.99216,60,72,0
368.90042,368.99216,53,61,0
368.90042,368.99216,51,61,0
369.0839,369.17563,60,61,0
369.0839,369.17563,53,51,0
369.0839,369.17563,51,51,0
369.27335,369.64032,58,73,0
369.27335,369.64032,53,73,0
369.27335,369.64032,50,73,0
369.82382,369.91556,53,68,0
369.82382,369.91556,45,57,0
370.0136,370.10507,53,75,0
370.0136,370.10507,46,63,0
370.19653,370.288,53,67,0
370.19653,370.288,51,56,0
370.37946,370.47092,53,75,0
370.37946,370.47092,50,63,0
370.56238,370.65384,53,67,0
370.56238,370.65384,45,56,0
370.7497,370.84116,53,75,0
370.7497,370.84116,46,63,0
370.93262,371.02408,53,67,0
370.93262,371.02408,51,56,0
371.11554,371.207,53,75,0
371.11554,371.207,50,63,0
371.29846,371.38992,53,67,0
371.29846,371.38992,45,56,0
371.48798,371.57944,53,75,0
371.48798,371.57944,46,63,0
371.6709,371.76236,53,67,0
371.6709,371.76236,51,56,0
371.85382,371.9444,53,75,0
371.85382,371.9444,50,63,0
372.03494,372.1255,53,68,0
372.03494,372.1255,45,57,0
372.2245,372.95938,46,89,0
372.95938,373.6899,43,80,0
373.6899,374.42883,39,88,0
374.42883,375.1817,41,84,0
375.1817,375.274,34,81,0
375.3663,375.45862,51,54,0
375.55093,375.64212,50,60,0
375.7333,375.8245,45,54,0
375.91568,376.00684,46,60,0
376.09802,376.1892,51,52,0
376.2804,376.37158,50,60,0
376.46277,376.55396,45,58,0
376.64514,376.73718,46,60,0
376.8292,376.92123,51,52,0
377.01324,377.1053,50,60,0
377.1973,377.2893,45,58,0
377.38135,377.47253,46,67,0
377.56372,377.6549,48,59,0
377.7461,377.83728,46,72,0
377.92847,378.01965,45,67,0
378.1114,378.20312,43,75,0
378.29486,378.38663,41,77,0
378.47836,378.5701,39,80,0
378.66183,378.7536,38,82,0
378.84534,380.31158,36,94,0
380.31158,381.05075,41,87,0
380.31158,381.05075,29,73,0
381.05075,381.14276,34,30,0
381.14276,381.2348,46,26,0
381.2348,381.3268,34,30,0
381.3268,381.41885,46,25,0
381.41885,381.51086,34,30,0
381.51086,381.6029,46,26,0
381.6029,381.69492,34,30,0
381.69492,381.78696,46,27,0
381.78696,381.87955,34,30,0
381.87955,381.97214,46,27,0
381.97214,382.06473,34,30,0
382.06473,382.15732,46,25,0
382.15732,382.2499,34,30,0
382.2499,382.3425,46,26,0
382.3425,382.4399,34,30,0
382.4399,382.5373,46,26,0
382.5373,382.62933,34,30,0
382.62933,382.72134,46,26,0
382.72134,382.8134,34,30,0
382.8134,382.9054,46,25,0
382.9054,382.99744,34,30,0
382.99744,383.08945,46,26,0
383.08945,383.1815,34,30,0
383.1815,383.2792,46,27,0
383.2792,383.37067,34,30,0
383.37067,383.46213,46,27,0
383.46213,383.5536,34,30,0
383.5536,383.64505,46,25,0
383.64505,383.7365,34,30,0
383.7365,383.82797,46,26,0
383.82797,383.9257,34,30,0
383.9257,384.0234,46,26,0
384.0234,384.11517,34,30,0
384.11517,384.2069,46,26,0
384.2069,384.29865,34,30,0
384.29865,384.39038,46,25,0
384.39038,384.48215,34,30,0
384.48215,384.57388,46,26,0
384.57388,384.66562,34,30,0
384.66562,384.75735,46,27,0
384.75735,384.84995,34,30,0
384.84995,384.94254,46,27,0
384.94254,385.03513,34,35,0
385.03513,385.12775,46,29,0
385.12775,385.22034,34,34,0
385.22034,385.31293,46,26,0
385.31293,385.4103,34,35,0
385.4103,385.50772,46,31,0
385.50772,385.59976,34,38,0
385.59976,385.69177,46,30,0
385.69177,385.78378,34,34,0
385.78378,385.87582,46,25,0
385.87582,385.96783,34,33,0
385.96783,386.05988,46,26,0
386.05988,386.1519,34,30,0
386.1519,386.2496,46,27,0
386.2496,386.34106,34,30,0
386.34106,386.43256,46,27,0
386.43256,386.52402,34,30,0
386.52402,386.61548,46,25,0
386.61548,386.70694,34,30,0
386.70694,386.7984,46,26,0
386.7984,386.89612,34,30,0
386.89612,386.99384,46,26,0
386.99384,387.08557,34,30,0
387.08557,387.1773,46,25,0
387.1773,387.26907,34,29,0
387.26907,387.3608,46,24,0
387.3608,387.45255,34,28,0
387.45255,387.54428,46,24,0
387.54428,387.63605,34,28,0
387.63605,387.72775,46,25,0
387.72775,387.8192,34,27,0
387.8192,387.91068,46,24,0
387.91068,388.00217,34,27,0
388.00217,388.09363,46,22,0
388.09363,388.1851,34,26,0
388.1851,388.27692,46,22,0
388.27692,388.37463,34,25,0
388.37463,388.472,46,22,0
388.472,388.56375,34,25,0
388.56375,388.6555,46,21,0
388.6555,388.74722,34,24,0
388.74722,388.83896,46,20,0
388.83896,388.93073,34,24,0
388.93073,389.02246,46,20,0
389.02246,389.1142,34,23,0
389.1142,389.20593,46,20,0
389.20593,389.29745,34,22,0
389.29745,389.38892,46,20,0
389.38892,389.48038,34,22,0
389.48038,389.57184,46,18,0
389.57184,389.66183,34,22,0
389.66183,389.75186,46,19,0
389.75186,389.84866,34,22,0
389.84866,389.94638,46,19,0
389.94638,390.49756,46,66,0
389.94638,390.49756,34,56,0
390.49756,390.5969,48,59,0
390.49756,390.5969,36,49,0
390.69623,391.245,50,66,0
390.69623,391.245,38,56,0
391.245,391.3437,51,60,0
391.245,391.3437,39,50,0
391.44238,391.98947,53,68,0
391.44238,391.98947,41,57,0
391.98947,392.08817,55,56,0
391.98947,392.08817,43,47,0
392.18686,392.27832,57,63,0
392.18686,392.27832,45,53,0
392.36978,392.46124,58,60,0
392.36978,392.46124,46,50,0
392.5527,392.64417,60,65,0
392.5527,392.64417,48,55,0
392.73563,392.84674,62,61,0
392.73563,392.84674,50,51,0
392.95786,393.509,63,72,0
392.95786,393.509,51,61,0
393.509,393.60834,62,63,0
393.509,393.60834,50,52,0
393.70767,394.25647,60,69,0
393.70767,394.25647,48,59,0
394.25647,394.35516,58,61,0
394.25647,394.35516,46,51,0
394.45383,395.00095,57,69,0
394.45383,395.00095,45,58,0
395.00095,395.09964,55,56,0
395.00095,395.09964,43,47,0
395.1983,395.28976,53,62,0
395.1983,395.28976,41,52,0
395.38126,395.47272,51,58,0
395.38126,395.47272,39,49,0
395.56418,395.65564,50,62,0
395.56418,395.65564,38,52,0
395.7471,395.84677,48,57,0
395.7471,395.84677,36,48,0
395.94644,396.0461,46,69,0
395.94644,396.0461,34,58,0
396.3451,396.43628,63,41,0
396.3451,396.43628,60,34,0
396.3451,396.43628,53,34,0
396.718,396.80945,62,49,0
396.718,396.80945,58,41,0
397.08386,397.17477,75,41,0
397.08386,397.17477,72,34,0
397.08386,397.17477,65,34,0
397.45657,397.55896,74,49,0
397.45657,397.55896,70,41,0
398.2757,398.72513,53,67,0
398.2757,398.72513,41,56,0
399.17456,399.624,46,76,0
399.17456,399.624,34,64,0
