start_time,end_time,note_value,velocity,instrument_program_number
0.0,0.125,92,88,0
0.0,0.125,89,77,0
0.0,0.125,86,77,0
0.0,0.125,80,77,0
0.25,0.33823526,58,66,0
0.33823526,0.4264705,57,57,0
0.4264705,0.5147058,58,57,0
0.5147058,0.602941,62,56,0
0.602941,0.69117624,65,67,0
0.69117624,0.7794115,62,56,0
0.7794115,0.86764675,65,54,0
0.86764675,0.955882,68,55,0
0.955882,1.0441172,65,55,0
1.0441172,1.136425,62,55,0
1.136425,1.2244015,68,65,0
1.2244015,1.312378,65,56,0
1.312378,1.4003545,68,57,0
1.4003545,1.488331,70,56,0
1.488331,1.5763075,68,55,0
1.5763075,1.664284,65,55,0
1.664284,1.7522604,70,67,0
1.7522604,1.840237,68,55,0
1.840237,1.9282135,70,55,0
1.9282135,2.01619,74,55,0
2.01619,2.1041665,70,55,0
2.1041665,2.1973343,68,55,0
2.1973343,2.2855694,77,64,0
2.2855694,2.3738048,74,54,0
2.3738048,2.46204,77,55,0
2.46204,2.5502753,80,55,0
2.5502753,2.6385105,77,54,0
2.6385105,2.7267458,74,54,0
2.7267458,2.814981,80,65,0
2.814981,2.9032164,77,54,0
2.9032164,2.9914515,80,54,0
2.9914515,3.0796866,82,54,0
3.0796866,3.167922,80,53,0
3.167922,3.2628589,77,53,0
3.2628589,3.3508353,82,62,0
3.3508353,3.4388118,80,53,0
3.4388118,3.5267882,82,54,0
3.5267882,3.6147647,86,54,0
3.6147647,3.7027411,82,53,0
3.7027411,3.7907178,80,53,0
3.7907178,3.8786943,86,64,0
3.8786943,3.9666708,82,53,0
3.9666708,4.0546474,86,52,0
4.0546474,4.142624,89,52,0
4.142624,4.2306004,86,52,0
4.2306004,4.327063,82,52,0
4.327063,4.4150395,89,57,0
4.4150395,4.5030165,86,49,0
4.5030165,4.590993,89,50,0
4.590993,4.6789694,92,49,0
4.6789694,4.766946,89,48,0
4.766946,4.8549223,86,48,0
4.8549223,4.9428988,82,58,0
4.9428988,5.030875,81,48,0
5.030875,5.1188517,82,47,0
5.1188517,5.206828,86,47,0
5.206828,5.2948046,89,47,0
5.2948046,5.3909583,86,47,0
5.3909583,5.4786777,89,54,0
5.4786777,5.566397,86,46,0
5.566397,5.654116,89,47,0
5.654116,5.7418356,92,47,0
5.7418356,5.8295546,89,46,0
5.8295546,5.917274,86,45,0
5.917274,6.0049934,82,55,0
6.0049934,6.0927124,81,45,0
6.0927124,6.180432,82,45,0
6.180432,6.268151,86,45,0
6.268151,6.3558702,89,44,0
6.3558702,6.4523335,86,44,0
6.4523335,6.54031,77,51,0
6.54031,6.6282864,74,44,0
6.6282864,6.716263,77,45,0
6.716263,6.8042393,80,44,0
6.8042393,6.8922157,77,43,0
6.8922157,6.980192,74,43,0
6.980192,7.0681686,70,52,0
7.0681686,7.156145,69,43,0
7.156145,7.2441216,70,42,0
7.2441216,7.3320985,74,42,0
7.3320985,7.420075,77,42,0
7.420075,7.5159216,74,42,0
7.5159216,7.6036406,77,48,0
7.6036406,7.69136,74,41,0
7.69136,7.7790794,77,42,0
7.7790794,7.8667984,80,41,0
7.8667984,7.954518,77,41,0
7.954518,8.042237,74,40,0
8.042237,8.129956,70,49,0
8.129956,8.217675,69,40,0
8.217675,8.305395,70,40,0
8.305395,8.393114,74,40,0
8.393114,8.480833,77,39,0
8.480833,8.597347,74,39,0
8.597347,8.722347,68,77,0
8.597347,8.722347,80,88,0
8.597347,8.722347,74,77,0
8.597347,8.722347,77,77,0
8.847347,8.935582,58,66,0
8.935582,9.023818,57,57,0
9.023818,9.112053,58,56,0
9.112053,9.200288,57,54,0
9.200288,9.288524,60,64,0
9.288524,9.376759,58,53,0
9.376759,9.464994,63,51,0
9.464994,9.553229,62,51,0
9.553229,9.641464,67,51,0
9.641464,9.732099,65,50,0
9.732099,9.820595,70,60,0
9.820595,9.90909,69,51,0
9.90909,9.997325,72,59,0
9.997325,10.085561,70,50,0
10.085561,10.173796,75,50,0
10.173796,10.262031,74,48,0
10.262031,10.350266,79,57,0
10.350266,10.438501,77,47,0
10.438501,10.526737,82,45,0
10.526737,10.614972,81,45,0
10.614972,10.703207,84,45,0
10.703207,10.801568,82,44,0
10.801568,10.985054,82,45,0
10.985054,11.16854,79,45,0
11.16854,11.352026,75,39,0
11.352026,11.535512,74,45,0
11.535512,11.718998,77,40,0
11.718998,11.863229,82,40,0
11.911305,12.095921,82,45,0
12.095921,12.280537,79,41,0
12.280537,12.418998,75,41,0
12.465152,12.649768,75,45,0
12.649768,12.834383,79,39,0
12.834383,12.982898,84,51,0
13.032403,13.215889,84,57,0
13.215889,13.399375,80,45,0
13.399375,13.582861,77,45,0
13.582861,13.766347,76,49,0
13.766347,13.949833,79,44,0
13.949833,14.09269,84,51,0
14.140309,14.323795,84,60,0
14.323795,14.507281,80,45,0
14.507281,14.690767,77,45,0
14.690767,14.874253,74,51,0
14.874253,15.057739,77,45,0
15.057739,15.20197,82,45,0
15.250047,15.434095,82,50,0
15.434095,15.618144,79,43,0
15.618144,15.802194,75,43,0
15.802194,15.986242,72,45,0
15.986242,16.170292,77,41,0
16.170292,16.314062,80,41,0
16.361984,16.546034,70,47,0
16.546034,16.730083,75,43,0
16.730083,16.87204,79,43,0
16.919357,17.105116,68,48,0
17.105116,17.290874,74,43,0
17.290874,17.446585,68,43,0
17.290874,17.446585,77,43,0
17.498487,17.681973,67,49,0
17.498487,17.681973,75,49,0
17.86546,18.048944,79,49,0
18.048944,18.13958,80,49,0
18.13958,18.230213,79,45,0
18.230213,18.320848,80,49,0
18.320848,18.411484,77,44,0
18.411484,18.503508,82,49,0
18.503508,18.600283,80,44,0
18.600283,18.784897,79,67,0
18.784897,18.969513,94,62,0
19.52336,19.671875,67,49,0
20.088352,20.271837,68,49,0
20.271837,20.362747,70,51,0
20.362747,20.453655,68,41,0
20.453655,20.544565,70,49,0
20.544565,20.635473,67,42,0
20.635473,20.726936,72,49,0
20.726936,20.82562,70,47,0
20.82562,21.009108,68,69,0
21.009108,21.192593,84,61,0
21.743052,21.887281,77,55,0
22.303457,22.487505,79,53,0
22.487505,22.57814,80,53,0
22.57814,22.668774,79,49,0
22.668774,22.759409,80,55,0
22.759409,22.850044,77,49,0
22.850044,22.993814,92,74,0
23.409836,23.55179,75,49,0
23.59911,23.690294,77,57,0
23.690294,23.78148,75,49,0
23.78148,23.872665,77,56,0
23.872665,23.963852,74,49,0
23.963852,24.111393,89,72,0
24.160572,24.252316,67,81,0
24.252316,24.344059,79,60,0
24.344059,24.435802,67,69,0
24.435802,24.527546,79,59,0
24.527546,24.619287,70,67,0
24.619287,24.711031,82,59,0
24.711031,24.801666,70,77,0
24.801666,24.8923,82,57,0
24.8923,24.982935,70,63,0
24.982935,25.073568,82,56,0
25.073568,25.165594,68,63,0
25.165594,25.262367,80,56,0
25.262367,25.354675,67,73,0
25.354675,25.446983,79,60,0
25.446983,25.539291,67,66,0
25.539291,25.6316,79,60,0
25.6316,25.723906,70,66,0
25.723906,25.816214,82,59,0
25.816214,25.908522,70,73,0
25.908522,26.00083,82,60,0
26.00083,26.093138,70,63,0
26.093138,26.185446,82,55,0
26.185446,26.284454,67,66,0
26.284454,26.383465,79,60,0
26.383465,26.475208,68,73,0
26.475208,26.566952,80,53,0
26.566952,26.658693,68,61,0
26.658693,26.750437,80,53,0
26.750437,26.84218,72,61,0
26.84218,26.933924,84,56,0
26.933924,27.024832,72,73,0
27.024832,27.115742,84,53,0
27.115742,27.20665,72,61,0
27.20665,27.29756,84,55,0
27.29756,27.389023,70,61,0
27.389023,27.487707,82,53,0
27.487707,27.57945,68,73,0
27.57945,27.671192,80,55,0
27.671192,27.762936,68,61,0
27.762936,27.85468,80,55,0
27.85468,27.946423,72,61,0
27.946423,28.038164,84,55,0
28.038164,28.129908,72,73,0
28.129908,28.221651,84,52,0
28.221651,28.313395,70,59,0
28.313395,28.405136,82,52,0
28.405136,28.501291,68,59,0
28.501291,28.597445,80,53,0
28.597445,28.689468,67,73,0
28.689468,28.781494,79,53,0
28.781494,28.873518,70,61,0
28.873518,28.965542,82,55,0
28.965542,29.057568,75,61,0
29.057568,29.149591,87,55,0
29.149591,29.240227,75,73,0
29.240227,29.33086,87,53,0
29.33086,29.421495,72,60,0
29.421495,29.512129,84,53,0
29.512129,29.607977,68,60,0
29.607977,29.703823,80,53,0
29.703823,29.795847,75,73,0
29.795847,29.887873,87,56,0
29.887873,29.979897,70,62,0
29.979897,30.07192,82,55,0
30.07192,30.166557,67,62,0
30.166557,30.261196,79,55,0
30.261196,30.35238,70,73,0
30.35238,30.443567,82,56,0
30.443567,30.534752,68,64,0
30.534752,30.625938,80,57,0
30.625938,30.724298,65,64,0
30.724298,30.822659,77,58,0
30.822659,30.92102,55,78,0
30.92102,31.01938,63,64,0
31.01938,31.115843,58,72,0
31.115843,31.212307,67,64,0
31.212307,31.30877,63,74,0
31.30877,31.405233,70,64,0
31.405233,31.499573,67,79,0
31.499573,31.593912,75,64,0
31.593912,31.688251,70,70,0
31.688251,31.78259,79,64,0
31.78259,31.87693,75,71,0
31.87693,31.97127,82,64,0
31.97127,32.06561,79,79,0
32.06561,32.15995,87,64,0
32.15995,32.254288,82,70,0
32.254288,32.34863,91,61,0
32.34863,32.442966,87,69,0
32.442966,32.537308,94,62,0
32.537308,32.629616,93,73,0
32.629616,32.721924,94,66,0
32.721924,32.814228,93,70,0
32.814228,32.906536,94,64,0
32.906536,32.998844,93,69,0
32.998844,33.099854,94,64,0
33.099854,33.193604,96,77,0
33.193604,33.287354,94,77,0
33.287354,33.380814,92,76,0
33.380814,33.47427,91,75,0
33.47427,33.56773,89,74,0
33.56773,33.661186,87,74,0
33.661186,33.754646,86,72,0
33.754646,33.848103,84,65,0
33.848103,33.941563,82,65,0
33.941563,34.03502,80,65,0
34.03502,34.12848,79,65,0
34.12848,34.23017,77,65,0
34.23017,34.32392,75,70,0
34.32392,34.41767,74,69,0
34.41767,34.51142,72,68,0
34.51142,34.60517,70,68,0
34.60517,34.697765,68,67,0
34.697765,34.790356,67,66,0
34.790356,34.88295,65,64,0
34.88295,34.975544,63,59,0
34.975544,35.068134,62,64,0
35.068134,35.16073,65,60,0
35.16073,35.25332,68,69,0
35.25332,35.36281,62,63,0
35.36281,35.46117,55,78,0
35.46117,35.55953,63,64,0
35.55953,35.655994,58,72,0
35.655994,35.752457,67,64,0
35.752457,35.84892,63,74,0
35.84892,35.94538,70,64,0
35.94538,36.039722,67,79,0
36.039722,36.13406,75,64,0
36.13406,36.2284,70,70,0
36.2284,36.32274,79,64,0
36.32274,36.41708,75,71,0
36.41708,36.511417,82,64,0
36.511417,36.60576,79,79,0
36.60576,36.7001,87,64,0
36.7001,36.794437,82,70,0
36.794437,36.88878,91,61,0
36.88878,36.983116,87,69,0
36.983116,37.077457,94,62,0
37.077457,37.169765,93,73,0
37.169765,37.262074,94,66,0
37.262074,37.354378,93,70,0
37.354378,37.446686,94,64,0
37.446686,37.538994,93,69,0
37.538994,37.640003,94,64,0
37.640003,37.733753,96,77,0
37.733753,37.827503,94,77,0
37.827503,37.920963,92,76,0
37.920963,38.01442,91,75,0
38.01442,38.10788,89,74,0
38.10788,38.201336,87,74,0
38.201336,38.294796,86,72,0
38.294796,38.388252,84,65,0
38.388252,38.481712,82,65,0
38.481712,38.57517,80,65,0
38.57517,38.66863,79,65,0
38.66863,38.77032,77,65,0
38.77032,38.833603,75,70,0
38.833603,38.896103,74,69,0
38.89532,38.95782,72,68,0
38.95782,39.02032,70,68,0
39.02032,39.08282,68,67,0
39.08282,39.14532,67,66,0
39.14532,39.20705,65,64,0
39.20705,39.26878,63,59,0
39.26878,39.330505,62,55,0
39.330505,39.4231,60,62,0
39.4231,39.515694,58,54,0
39.515694,39.608284,57,60,0
39.608284,39.70088,60,54,0
39.70088,39.79347,63,64,0
39.79347,39.897274,57,54,0
39.897274,40.09145,58,95,0
40.4798,40.670883,70,89,0
41.05305,41.244133,73,96,0
41.626297,41.817383,78,88,0
42.199547,42.388226,73,94,0
42.765583,42.957893,70,88,0
43.342506,43.534813,66,93,0
43.91943,44.11551,61,82,0
44.507664,44.70184,57,95,0
45.09019,45.281273,69,89,0
45.66344,45.854523,72,96,0
46.236687,46.427773,77,88,0
46.809937,46.998615,72,94,0
47.375973,47.568283,69,88,0
47.952896,48.145203,65,93,0
48.52982,48.7259,60,82,0
49.118053,49.211803,73,55,0
49.43561,49.478966,84,51,0
49.478966,49.56567,82,57,0
49.56567,49.652374,81,52,0
49.652374,49.739082,82,57,0
49.955845,49.999195,87,53,0
49.999195,50.085903,85,59,0
50.085903,50.172607,84,52,0
50.172607,50.266357,85,63,0
50.494038,50.538677,92,54,0
50.538677,50.625637,90,60,0
50.625637,50.712593,89,55,0
50.712593,50.79955,90,61,0
51.01694,51.060417,87,51,0
51.060417,51.151882,85,57,0
51.151882,51.243343,84,50,0
51.243343,51.33132,85,60,0
51.55126,51.59525,84,51,0
51.59525,51.683228,82,56,0
51.683228,51.771202,81,51,0
51.771202,51.85918,82,56,0
52.07912,52.123108,80,51,0
52.123108,52.21402,78,57,0
52.21402,52.304928,77,50,0
52.304928,52.39239,78,60,0
52.61105,52.65478,75,51,0
52.65478,52.742245,73,56,0
52.742245,52.82971,72,51,0
52.82971,53.17956,73,56,0
53.35449,53.44824,72,55,0
53.67357,53.71743,82,51,0
53.71743,53.80515,81,57,0
53.80515,53.892868,79,52,0
53.892868,53.980587,81,57,0
54.199883,54.243744,86,53,0
54.243744,54.331463,84,59,0
54.331463,54.41918,83,52,0
54.41918,54.51293,84,63,0
54.737877,54.78161,90,55,0
54.78161,54.869072,89,60,0
54.869072,54.956535,88,55,0
54.956535,55.044,89,61,0
55.262657,55.30639,85,51,0
55.30639,55.393852,84,57,0
55.393852,55.481316,83,50,0
55.481316,55.575066,84,60,0
55.80001,55.843742,82,51,0
55.843742,55.93121,81,56,0
55.93121,56.018673,79,51,0
56.018673,56.106136,81,56,0
56.324795,56.368526,78,51,0
56.368526,56.45599,77,57,0
56.45599,56.543453,76,50,0
56.543453,56.637203,77,60,0
56.863304,56.90742,73,51,0
56.90742,56.99566,72,56,0
56.99566,57.083893,71,51,0
57.083893,57.260365,72,56,0
57.436832,57.62375,73,61,0
57.62375,57.715775,65,35,0
57.715775,57.8078,67,31,0
57.8078,57.899822,65,35,0
57.899822,57.991848,67,31,0
57.991848,58.08248,65,34,0
58.08248,58.17312,67,31,0
57.62375,58.17312,74,56,0
58.17312,58.263752,65,36,0
58.263752,58.354385,67,32,0
58.354385,58.445023,65,36,0
58.445023,58.535656,67,31,0
58.535656,58.62629,65,37,0
58.62629,58.716923,67,31,0
58.17312,58.716923,70,55,0
58.716923,58.806477,65,37,0
58.806477,58.89603,67,33,0
58.89603,58.98558,65,37,0
58.98558,59.075134,67,33,0
59.075134,59.164684,65,37,0
59.164684,59.25424,67,34,0
58.716923,59.25424,69,59,0
59.25424,59.34379,65,38,0
59.34379,59.433342,67,34,0
59.433342,59.52425,65,39,0
59.52425,59.61516,67,33,0
59.61516,59.707466,65,39,0
59.707466,59.799774,67,34,0
59.25424,59.799774,75,59,0
59.799774,59.89096,65,40,0
59.89096,59.982147,67,35,0
59.982147,60.073334,65,39,0
60.073334,60.164516,67,35,0
60.164516,60.254337,65,38,0
60.254337,60.34416,67,34,0
59.799774,60.34416,74,64,0
60.34416,60.43398,65,39,0
60.43398,60.5238,67,34,0
60.5238,60.61362,65,38,0
60.61362,60.703438,67,33,0
60.703438,60.79326,65,38,0
60.79326,60.88308,67,32,0
60.34416,60.88308,70,60,0
60.88308,60.9729,65,37,0
60.9729,61.06272,67,33,0
61.06272,61.152542,65,37,0
61.152542,61.24236,67,32,0
61.24236,61.33218,65,35,0
61.33218,61.422,67,32,0
60.88308,61.422,69,60,0
61.422,61.51182,65,36,0
61.51182,61.601643,67,32,0
61.601643,61.69255,65,36,0
61.69255,61.78346,67,30,0
61.78346,61.87437,65,35,0
61.87437,61.96528,67,30,0
61.422,61.96528,75,56,0
61.96528,62.05903,74,51,0
62.05903,62.15278,77,45,0
62.15278,62.21302,79,48,0
62.21302,62.273113,81,50,0
62.273113,62.333023,82,52,0
62.333023,62.39279,84,54,0
62.39279,62.452374,86,56,0
62.452374,62.51177,87,59,0
62.51177,62.600597,89,61,0
62.600597,62.688988,87,60,0
62.688988,62.77738,86,58,0
62.77738,62.866085,84,57,0
62.866085,62.95516,82,55,0
62.95516,63.04455,81,54,0
63.04455,63.1383,79,51,0
63.1383,63.231472,81,45,0
63.231472,63.32151,82,48,0
63.32151,63.411263,84,50,0
63.411263,63.470966,86,54,0
63.470966,63.530502,87,56,0
63.530502,63.589943,89,59,0
63.589943,63.678825,91,61,0
63.678825,63.767586,89,60,0
63.767586,63.82687,87,58,0
63.82687,63.886215,86,57,0
63.886215,63.945606,84,56,0
63.945606,64.00513,82,55,0
64.00513,64.06465,81,54,0
64.06465,64.12433,79,53,0
64.12433,64.21808,77,57,0
64.21808,64.31183,86,49,0
64.31183,64.402176,82,59,0
64.402176,64.49224,89,55,0
64.49224,64.581985,86,62,0
64.581985,64.671455,94,57,0
64.671455,64.73097,89,62,0
64.73097,64.790306,98,57,0
64.790306,64.8495,94,55,0
64.8495,64.908875,101,61,0
64.908875,64.96844,98,53,0
64.96844,65.028175,94,54,0
65.028175,65.08811,89,59,0
65.08811,65.148224,86,53,0
65.148224,65.208534,82,53,0
65.208534,65.570305,77,59,0
65.74958,65.81002,84,59,0
65.81002,65.870415,86,52,0
65.870415,65.93044,84,59,0
65.93044,65.98988,86,54,0
65.98988,66.04957,84,59,0
66.04957,66.10953,86,53,0
66.10953,66.169876,84,59,0
66.169876,66.23048,86,53,0
66.23048,66.291084,84,56,0
66.291084,66.38311,77,41,0
66.38311,66.475136,79,31,0
66.475136,66.56716,77,35,0
66.56716,66.65919,79,31,0
66.65919,66.74982,77,34,0
66.74982,66.840454,79,31,0
66.291084,66.840454,86,61,0
66.840454,66.93108,77,36,0
66.93108,67.02172,79,32,0
67.02172,67.11236,77,36,0
67.11236,67.20299,79,31,0
67.20299,67.293625,77,37,0
67.293625,67.38426,79,31,0
66.840454,67.38426,82,55,0
67.38426,67.47381,77,37,0
67.47381,67.56336,79,33,0
67.56336,67.652916,77,37,0
67.652916,67.74247,79,33,0
67.74247,67.83202,77,37,0
67.83202,67.92157,79,34,0
67.38426,67.92157,81,59,0
67.92157,68.01112,77,38,0
68.01112,68.10068,79,34,0
68.10068,68.19159,77,39,0
68.19159,68.28249,79,33,0
68.28249,68.3748,77,39,0
68.3748,68.46711,79,34,0
67.92157,68.46711,87,59,0
68.46711,68.5583,77,40,0
68.5583,68.64948,79,35,0
68.64948,68.74067,77,39,0
68.74067,68.831856,79,35,0
68.831856,68.92168,77,38,0
68.92168,69.01149,79,34,0
68.46711,69.01149,86,64,0
69.01149,69.10131,77,39,0
69.10131,69.19113,79,34,0
69.19113,69.28095,77,38,0
69.28095,69.37077,79,33,0
69.37077,69.460594,77,38,0
69.460594,69.550415,79,32,0
69.01149,69.550415,82,60,0
69.550415,69.640236,77,37,0
69.640236,69.73006,79,33,0
69.73006,69.81988,77,37,0
69.81988,69.9097,79,32,0
69.9097,69.99952,77,35,0
69.99952,70.08934,79,32,0
69.550415,70.08934,81,60,0
70.08934,70.17915,77,36,0
70.17915,70.268974,79,32,0
70.268974,70.359886,77,36,0
70.359886,70.4508,79,30,0
70.4508,70.5417,77,35,0
70.5417,70.632614,79,30,0
70.08934,70.632614,87,56,0
70.820114,70.91042,82,45,0
70.820114,70.91042,86,45,0
71.00036,71.08994,82,45,0
71.00036,71.08994,86,45,0
71.1791,71.26794,82,48,0
71.1791,71.26794,86,48,0
71.35632,71.44472,82,42,0
71.35632,71.44472,86,42,0
71.533424,71.6225,82,42,0
71.533424,71.6225,86,42,0
71.89881,71.988846,82,45,0
71.89881,71.988846,84,45,0
72.0786,72.168076,84,45,0
72.0786,72.168076,82,45,0
72.25728,72.34616,84,49,0
72.25728,72.34616,82,49,0
72.43492,72.52388,82,44,0
72.43492,72.52388,84,44,0
72.61294,72.702225,82,46,0
72.61294,72.702225,84,46,0
72.97916,73.06951,82,48,0
72.97916,73.06951,86,48,0
73.15958,73.24932,82,49,0
73.15958,73.24932,86,49,0
73.33879,73.43254,82,52,0
73.33879,73.43254,86,52,0
73.52629,73.61664,82,47,0
73.52629,73.61664,86,47,0
73.70671,73.796455,86,48,0
73.70671,73.796455,82,48,0
73.70671,73.796455,89,48,0
73.88592,73.975204,89,59,0
73.88592,73.975204,81,59,0
73.88592,73.975204,87,59,0
74.06449,74.15527,87,46,0
74.06449,74.15527,81,46,0
74.06449,74.15527,89,46,0
74.24608,74.33649,81,45,0
74.24608,74.33649,89,45,0
74.24608,74.33649,87,45,0
74.42645,74.51575,87,53,0
74.42645,74.51575,81,53,0
74.42645,74.51575,89,53,0
74.605034,74.69423,81,45,0
74.605034,74.69423,89,45,0
74.605034,74.69423,87,45,0
74.78408,74.874725,87,44,0
74.78408,74.874725,81,44,0
74.78408,74.874725,89,44,0
75.33105,75.88052,92,83,0
75.33105,75.88052,80,70,0
75.88052,76.06711,91,79,0
75.88052,76.06711,79,66,0
76.43142,76.97519,90,81,0
76.43142,76.97519,78,69,0
76.97519,77.15927,89,80,0
76.97519,77.15927,77,67,0
77.52371,78.06755,80,86,0
77.52371,78.06755,68,73,0
78.06755,78.25001,79,86,0
78.06755,78.25001,67,71,0
78.61128,79.15434,78,92,0
78.61128,79.15434,66,78,0
79.15434,79.33647,77,90,0
79.15434,79.33647,65,75,0
79.51665,79.60674,65,60,0
79.51665,79.60674,77,71,0
79.51665,79.60674,70,60,0
79.69683,79.78692,70,57,0
79.69683,79.78692,77,68,0
79.69683,79.78692,65,57,0
80.0606,80.15042,67,58,0
80.0606,80.15042,75,69,0
80.0606,80.15042,70,58,0
80.24024,80.33006,70,55,0
80.24024,80.33006,67,55,0
80.24024,80.33006,74,65,0
80.60007,80.690155,67,60,0
80.60007,80.690155,74,71,0
80.60007,80.690155,63,60,0
80.78024,80.87034,63,57,0
80.78024,80.87034,67,57,0
80.78024,80.87034,72,68,0
81.14402,81.23384,60,58,0
81.14402,81.23384,63,58,0
81.14402,81.23384,70,69,0
81.32366,81.41348,60,55,0
81.32366,81.41348,63,55,0
81.32366,81.41348,69,65,0
81.68348,81.77357,58,60,0
81.68348,81.77357,65,60,0
81.68348,81.77357,70,71,0
81.86366,81.95375,58,58,0
81.86366,81.95375,62,58,0
81.86366,81.95375,65,69,0
82.22743,82.31725,58,60,0
82.22743,82.31725,63,72,0
82.22743,82.31725,55,74,0
82.407074,82.496895,55,58,0
82.407074,82.496895,58,58,0
82.407074,82.496895,62,68,0
82.7669,82.85699,51,64,0
82.7669,82.85699,55,64,0
82.7669,82.85699,62,76,0
82.947075,83.03716,51,62,0
82.947075,83.03716,55,62,0
82.947075,83.03716,60,74,0
83.31085,83.40067,58,77,0
83.31085,83.40067,51,64,0
83.31085,83.40067,48,79,0
83.49049,83.580315,48,62,0
83.49049,83.580315,57,73,0
83.49049,83.580315,51,62,0
83.67525,83.766,46,62,0
83.766,83.85697,48,63,0
83.85697,83.94738,50,65,0
83.94738,84.03722,51,66,0
84.03722,84.096924,53,67,0
84.096924,84.156624,55,68,0
84.156624,84.216324,57,68,0
84.216324,84.276024,58,69,0
84.276024,84.33732,60,70,0
84.33732,84.400215,62,71,0
84.400215,84.4601,63,72,0
84.4601,84.51997,65,72,0
84.51997,84.57986,67,73,0
84.57986,84.66968,69,85,0
84.66968,84.76976,57,67,0
84.76976,84.86037,58,62,0
84.86037,84.950645,60,63,0
84.950645,85.0406,62,65,0
85.0406,85.13023,63,66,0
85.13023,85.18979,65,67,0
85.18979,85.24931,67,68,0
85.24931,85.30884,69,68,0
85.30884,85.368355,70,69,0
85.368355,85.429276,72,70,0
85.429276,85.49158,74,71,0
85.49158,85.55128,75,72,0
85.55128,85.610985,77,72,0
85.610985,85.670685,79,73,0
85.670685,85.76024,81,85,0
85.76024,85.859375,69,67,0
85.859375,85.94994,70,62,0
85.94994,86.04013,72,63,0
86.04013,86.129906,74,65,0
86.129906,86.219315,75,66,0
86.219315,86.27869,77,68,0
86.27869,86.338036,79,70,0
86.338036,86.397385,81,72,0
86.397385,86.486404,82,74,0
86.486404,86.578995,84,75,0
86.578995,86.638695,86,77,0
86.638695,86.6984,87,79,0
86.6984,86.7581,89,81,0
86.7581,86.8178,91,83,0
86.8178,86.88167,93,92,0
86.88167,86.94969,81,85,0
86.94969,87.31005,82,89,0
86.94969,87.31005,94,105,0
87.490234,87.85059,82,90,0
87.490234,87.85059,74,75,0
87.490234,87.85059,77,75,0
88.03078,88.391136,65,74,0
88.03078,88.391136,70,89,0
88.03078,88.391136,62,74,0
88.93167,89.111855,82,45,0
89.111855,89.29534,82,45,0
89.29534,89.47883,79,45,0
89.47883,89.662315,75,39,0
89.662315,89.845795,74,45,0
89.845795,90.02928,77,40,0
90.02928,90.173515,82,40,0
90.22159,90.406204,82,45,0
90.406204,90.59082,79,41,0
90.59082,90.72929,75,41,0
90.77544,90.96005,75,45,0
90.96005,91.14467,79,39,0
91.14467,91.29645,84,51,0
91.347046,91.53053,84,57,0
91.53053,91.71401,80,45,0
91.71401,91.8975,77,45,0
91.8975,92.080986,76,49,0
92.080986,92.26447,79,44,0
92.26447,92.40733,84,51,0
92.45495,92.638435,84,60,0
92.638435,92.82192,80,45,0
92.82192,93.00541,77,45,0
93.00541,93.188896,74,51,0
93.188896,93.37238,77,45,0
93.37238,93.51661,82,45,0
93.56469,93.74873,82,50,0
93.74873,93.932785,79,43,0
93.932785,94.11684,75,43,0
94.11684,94.30088,72,45,0
94.30088,94.48493,77,41,0
94.48493,94.6287,80,41,0
94.67663,94.86067,70,47,0
94.86067,95.04472,75,43,0
95.04472,95.186676,79,43,0
95.234,95.419754,68,48,0
95.419754,95.605515,74,43,0
95.605515,95.76122,68,43,0
95.605515,95.76122,77,43,0
95.813126,95.99661,67,49,0
95.813126,95.99661,75,49,0
96.1801,96.36359,79,49,0
96.36359,96.45422,80,49,0
96.45422,96.54485,79,45,0
96.54485,96.63549,80,49,0
96.63549,96.72612,77,44,0
96.72612,96.818146,82,49,0
96.818146,96.914925,80,44,0
96.914925,97.09954,79,67,0
97.09954,97.28332,94,62,0
97.83465,97.98317,67,49,0
98.39964,98.58313,68,49,0
98.58313,98.67404,70,51,0
98.67404,98.764946,68,41,0
98.764946,98.85586,70,49,0
98.85586,98.94676,67,42,0
98.94676,99.03823,72,49,0
99.03823,99.13692,70,47,0
99.13692,99.3204,68,69,0
99.3204,99.50388,84,61,0
100.054344,100.19857,77,55,0
100.614746,100.7988,79,53,0
100.7988,100.889435,80,53,0
100.889435,100.980064,79,49,0
100.980064,101.07003,80,55,0
101.07003,101.15999,77,49,0
101.15999,101.30376,92,74,0
101.71978,101.86173,75,49,0
101.90906,102.00024,77,57,0
102.00024,102.09142,75,49,0
102.09142,102.181656,77,56,0
102.181656,102.27189,74,49,0
102.27189,102.419426,89,72,0
102.468605,102.56035,67,81,0
102.56035,102.65209,79,60,0
102.65209,102.743835,67,69,0
102.743835,102.83558,79,59,0
102.83558,102.92732,70,67,0
102.92732,103.019066,82,59,0
103.019066,103.1097,70,77,0
103.1097,103.20033,82,57,0
103.20033,103.29097,70,63,0
103.29097,103.38161,82,56,0
103.38161,103.473625,68,63,0
103.473625,103.570404,80,56,0
103.570404,103.66271,67,73,0
103.66271,103.75502,79,60,0
103.75502,103.84733,67,66,0
103.84733,103.93964,79,60,0
103.93964,104.031525,70,66,0
104.031525,104.12341,82,59,0
104.12341,104.2153,70,73,0
104.2153,104.30719,82,60,0
104.30719,104.39908,70,63,0
104.39908,104.49097,82,55,0
104.49097,104.58998,67,66,0
104.58998,104.68899,79,60,0
104.68899,104.78073,68,73,0
104.78073,104.872475,80,53,0
104.872475,104.96422,68,61,0
104.96422,105.05596,80,53,0
105.05596,105.147705,72,61,0
105.147705,105.23945,84,56,0
105.23945,105.32995,72,73,0
105.32995,105.420456,84,53,0
105.420456,105.510956,72,61,0
105.510956,105.60146,84,55,0
105.60146,105.692924,70,61,0
105.692924,105.79161,82,53,0
105.79161,105.883354,68,73,0
105.883354,105.9751,80,55,0
105.9751,106.06684,68,61,0
106.06684,106.15858,80,55,0
106.15858,106.25032,72,61,0
106.25032,106.342064,84,55,0
106.342064,106.43312,72,73,0
106.43312,106.52417,84,52,0
106.52417,106.61523,70,59,0
106.61523,106.706276,82,52,0
106.706276,106.80243,68,59,0
106.80243,106.89858,80,53,0
106.89858,106.99061,67,73,0
106.99061,107.082634,79,53,0
107.082634,107.17466,70,61,0
107.17466,107.266685,82,55,0
107.266685,107.3587,75,61,0
107.3587,107.45073,87,55,0
107.45073,107.54137,75,73,0
107.54137,107.631996,87,53,0
107.631996,107.72263,72,60,0
107.72263,107.81327,84,53,0
107.81327,107.90912,68,60,0
107.90912,108.00496,80,53,0
108.00496,108.09629,75,73,0
108.09629,108.18762,87,56,0
108.18762,108.27895,70,62,0
108.27895,108.370285,82,55,0
108.370285,108.46492,67,62,0
108.46492,108.559555,79,55,0
108.559555,108.65074,70,73,0
108.65074,108.74193,82,56,0
108.74193,108.833115,68,64,0
108.833115,108.9243,80,57,0
108.9243,109.02266,65,64,0
109.02266,109.12102,77,58,0
109.12102,109.21938,55,78,0
109.21938,109.31774,63,64,0
109.31774,109.41421,58,72,0
109.41421,109.510666,67,64,0
109.510666,109.60713,63,74,0
109.60713,109.70359,70,64,0
109.70359,109.797935,67,79,0
109.797935,109.89227,75,64,0
109.89227,109.98661,70,70,0
109.98661,110.08095,79,64,0
110.08095,110.17529,75,71,0
110.17529,110.26963,82,64,0
110.26963,110.362946,79,79,0
110.362946,110.45627,87,64,0
110.45627,110.54958,82,70,0
110.54958,110.64291,91,61,0
110.64291,110.73622,87,69,0
110.73622,110.829544,94,62,0
110.829544,110.92185,93,73,0
110.92185,111.01416,94,66,0
111.01416,111.10646,93,70,0
111.10646,111.19877,94,64,0
111.19877,111.29108,93,69,0
111.29108,111.39209,94,64,0
111.39209,111.48584,96,77,0
111.48584,111.57959,94,77,0
111.57959,111.67305,92,76,0
111.67305,111.7665,91,75,0
111.7665,111.85996,89,74,0
111.85996,111.95342,87,74,0
111.95342,112.04559,86,72,0
112.04559,112.137764,84,65,0
112.137764,112.229935,82,65,0
112.229935,112.322105,80,65,0
112.322105,112.414276,79,65,0
112.414276,112.515976,77,65,0
112.515976,112.609726,75,70,0
112.609726,112.703476,74,69,0
112.703476,112.797226,72,68,0
112.797226,112.890976,70,68,0
112.890976,112.98357,68,67,0
112.98357,113.07616,67,66,0
113.07616,113.16833,65,64,0
113.16833,113.260506,63,59,0
113.260506,113.35268,62,64,0
113.35268,113.44485,65,60,0
113.44485,113.53702,68,69,0
113.53702,113.64651,62,63,0
113.64651,113.744865,55,78,0
113.744865,113.84322,63,64,0
113.84322,113.93969,58,72,0
113.93969,114.036156,67,64,0
114.036156,114.132614,63,74,0
114.132614,114.22908,70,64,0
114.22908,114.32342,67,79,0
114.32342,114.417755,75,64,0
114.417755,114.5121,70,70,0
114.5121,114.60644,79,64,0
114.60644,114.700775,75,71,0
114.700775,114.79511,82,64,0
114.79511,114.888725,79,79,0
114.888725,114.98234,87,64,0
114.98234,115.07594,82,70,0
115.07594,115.169556,91,61,0
115.169556,115.26316,87,69,0
115.26316,115.35677,94,62,0
115.35677,115.44908,93,73,0
115.44908,115.54139,94,66,0
115.54139,115.6337,93,70,0
115.6337,115.726006,94,64,0
115.726006,115.81831,93,69,0
115.81831,115.91932,94,64,0
115.91932,116.01307,96,77,0
116.01307,116.10682,94,77,0
116.10682,116.20028,92,76,0
116.20028,116.29374,91,75,0
116.29374,116.3872,89,74,0
116.3872,116.48065,87,74,0
116.48065,116.57311,86,72,0
116.57311,116.665565,84,65,0
116.665565,116.75802,82,65,0
116.75802,116.85048,80,65,0
116.85048,116.94293,79,65,0
116.94293,117.044624,77,65,0
117.044624,117.10791,75,70,0
117.10791,117.17041,74,69,0
117.169624,117.232124,72,68,0
117.232124,117.294624,70,68,0
117.294624,117.357124,68,67,0
117.357124,117.419624,67,66,0
117.419624,117.48135,65,64,0
117.48135,117.54308,63,59,0
117.54308,117.60481,62,55,0
117.60481,117.6974,60,62,0
117.6974,117.78999,58,54,0
117.78999,117.88259,57,60,0
117.88259,117.97518,60,54,0
117.97518,118.06777,63,64,0
118.06777,118.17158,57,54,0
118.17158,118.36575,58,95,0
118.754105,118.94519,70,89,0
119.327354,119.51844,73,96,0
119.900604,120.09168,78,88,0
120.473854,120.66166,73,94,0
121.03727,121.229576,70,88,0
121.61419,121.806496,66,93,0
122.19111,122.38882,61,82,0
122.78423,122.97841,57,95,0
123.36676,123.55784,69,89,0
123.94,124.13109,72,96,0
124.51325,124.70434,77,88,0
125.0865,125.275185,72,94,0
125.65254,125.84485,69,88,0
126.22946,126.42177,65,93,0
126.80639,127.002464,60,82,0
127.39462,127.48837,73,55,0
127.71181,127.755035,84,51,0
127.755035,127.841484,82,57,0
127.841484,127.92794,81,52,0
127.92794,128.0144,82,57,0
128.22906,128.27179,87,53,0
128.27179,128.35727,85,59,0
128.35727,128.44273,84,52,0
128.44273,128.53648,85,63,0
128.76337,128.80775,92,54,0
128.80775,128.89546,90,60,0
128.89546,128.98318,89,55,0
128.98318,129.06964,90,61,0
129.28578,129.32901,87,51,0
129.32901,129.42047,85,57,0
129.42047,129.51193,84,50,0
129.51193,129.59966,85,60,0
129.81895,129.86281,84,51,0
129.86281,129.95053,82,56,0
129.95053,130.03825,81,51,0
130.03825,130.12495,82,56,0
130.34172,130.38507,80,51,0
130.38507,130.47598,78,57,0
130.47598,130.5669,77,50,0
130.5669,130.65436,78,60,0
130.87302,130.91675,75,51,0
130.91675,131.00421,73,56,0
131.00421,131.09167,72,51,0
131.09167,131.4365,73,56,0
131.60892,131.70267,72,55,0
131.92877,131.97289,82,51,0
131.97289,132.06111,81,57,0
132.06111,132.14935,79,52,0
132.14935,132.23581,81,57,0
132.45195,132.49518,86,53,0
132.49518,132.58163,84,59,0
132.58163,132.66809,83,52,0
132.66809,132.76184,84,63,0
132.98833,133.03258,90,55,0
133.03258,133.12106,89,60,0
133.12106,133.20956,88,55,0
133.20956,133.29807,89,61,0
133.51662,133.55997,85,51,0
133.55997,133.64667,84,57,0
133.64667,133.73338,83,50,0
133.73338,133.82713,84,60,0
134.05284,134.09683,82,51,0
134.09683,134.18481,81,56,0
134.18481,134.27278,79,51,0
134.27278,134.36076,81,56,0
134.58032,134.62418,78,51,0
134.62418,134.7119,77,57,0
134.7119,134.79962,76,50,0
134.79962,134.89337,77,60,0
135.11946,135.16359,73,51,0
135.16359,135.25182,72,56,0
135.25182,135.34006,71,51,0
135.34006,135.51653,72,56,0
135.693,135.87991,73,61,0
135.87991,135.97194,65,35,0
135.97194,136.06396,67,31,0
136.06396,136.15599,65,35,0
136.15599,136.24802,67,31,0
136.24802,136.33864,65,34,0
136.33864,136.42928,67,31,0
135.87991,136.42928,74,56,0
136.42928,136.51991,65,36,0
136.51991,136.61055,67,32,0
136.61055,136.70119,65,36,0
136.70119,136.79182,67,31,0
136.79182,136.88245,65,37,0
136.88245,136.97308,67,31,0
136.42928,136.97308,70,55,0
136.97308,137.06264,65,37,0
137.06264,137.15219,67,33,0
137.15219,137.24174,65,37,0
137.24174,137.3313,67,33,0
137.3313,137.42085,65,37,0
137.42085,137.5104,67,34,0
136.97308,137.5104,69,59,0
137.5104,137.59995,65,38,0
137.59995,137.6895,67,34,0
137.6895,137.78041,65,39,0
137.78041,137.87132,67,33,0
137.87132,137.96362,65,39,0
137.96362,138.05594,67,34,0
137.5104,138.05594,75,59,0
138.05594,138.14713,65,40,0
138.14713,138.23831,67,35,0
138.23831,138.3295,65,39,0
138.3295,138.42068,67,35,0
138.42068,138.5105,65,38,0
138.5105,138.60033,67,34,0
138.05594,138.60033,74,64,0
138.60033,138.69014,65,39,0
138.69014,138.77997,67,34,0
138.77997,138.86978,65,38,0
138.86978,138.9596,67,33,0
138.9596,139.04942,65,38,0
139.04942,139.13924,67,32,0
138.60033,139.13924,70,60,0
139.13924,139.22906,65,37,0
139.22906,139.31888,67,33,0
139.31888,139.4087,65,37,0
139.4087,139.49852,67,32,0
139.49852,139.58835,65,35,0
139.58835,139.67816,67,32,0
139.13924,139.67816,69,60,0
139.67816,139.76799,65,36,0
139.76799,139.8578,67,32,0
139.8578,139.94872,65,36,0
139.94872,140.03963,67,30,0
140.03963,140.13052,65,35,0
140.13052,140.22144,67,30,0
139.67816,140.22144,75,56,0
140.22144,140.31519,74,51,0
140.31519,140.40894,77,45,0
140.40894,140.46918,79,48,0
140.46918,140.52928,81,50,0
140.52928,140.58919,82,52,0
140.58919,140.64896,84,54,0
140.64896,140.70853,86,56,0
140.70853,140.76793,87,59,0
140.76793,140.85677,89,61,0
140.85677,140.94514,87,60,0
140.94514,141.03354,86,58,0
141.03354,141.12225,84,57,0
141.12225,141.21132,82,55,0
141.21132,141.30072,81,54,0
141.30072,141.39447,79,51,0
141.39447,141.48764,81,45,0
141.48764,141.57767,82,48,0
141.57767,141.66742,84,50,0
141.66742,141.72713,86,54,0
141.72713,141.78667,87,56,0
141.78667,141.8461,89,59,0
141.8461,141.93498,91,61,0
141.93498,142.02374,89,60,0
142.02374,142.08302,87,58,0
142.08302,142.14238,86,57,0
142.14238,142.20177,84,56,0
142.20177,142.26129,82,55,0
142.26129,142.32082,81,54,0
142.32082,142.3805,79,53,0
142.3805,142.47424,77,57,0
142.47424,142.568,86,49,0
142.568,142.65834,82,59,0
142.65834,142.7484,89,55,0
142.7484,142.83815,86,62,0
142.83815,142.92761,94,57,0
142.92761,142.98714,89,62,0
142.98714,143.04646,98,57,0
143.04646,143.10567,94,55,0
143.10567,143.16504,101,61,0
143.16504,143.2246,98,53,0
143.2246,143.28435,94,54,0
143.28435,143.34427,89,59,0
143.34427,143.40439,86,53,0
143.40439,143.46469,82,53,0
143.46469,143.82646,77,59,0
144.0064,144.06804,84,59,0
144.06804,144.12817,86,52,0
144.12817,144.18716,84,59,0
144.18716,144.24652,86,54,0
144.24652,144.30621,84,59,0
144.30621,144.36617,86,53,0
144.36617,144.42651,84,59,0
144.42651,144.48712,86,53,0
144.48712,144.54773,84,56,0
144.54773,144.63976,77,41,0
144.63976,144.73178,79,31,0
144.73178,144.8238,77,35,0
144.8238,144.91583,79,31,0
144.91583,145.00645,77,34,0
145.00645,145.09709,79,31,0
144.54773,145.09709,86,61,0
145.09709,145.18773,77,36,0
145.18773,145.27837,79,32,0
145.27837,145.369,77,36,0
145.369,145.45963,79,31,0
145.45963,145.55026,77,37,0
145.55026,145.6409,79,31,0
145.09709,145.6409,82,55,0
145.6409,145.73045,77,37,0
145.73045,145.82,79,33,0
145.82,145.90956,77,37,0
145.90956,145.99911,79,33,0
145.99911,146.088,77,37,0
146.088,146.1769,79,34,0
145.6409,146.1769,81,59,0
146.1769,146.2658,77,38,0
146.2658,146.35469,79,34,0
146.35469,146.4456,77,39,0
146.4456,146.5365,79,33,0
146.5365,146.62881,77,39,0
146.62881,146.72112,79,34,0
146.1769,146.72112,87,59,0
146.72112,146.8123,77,40,0
146.8123,146.90349,79,35,0
146.90349,146.99467,77,39,0
146.99467,147.08586,79,35,0
147.08586,147.17569,77,38,0
147.17569,147.2655,79,34,0
146.72112,147.2655,86,64,0
147.2655,147.35532,77,39,0
147.35532,147.44514,79,34,0
147.44514,147.53496,77,38,0
147.53496,147.62479,79,33,0
147.62479,147.7146,77,38,0
147.7146,147.80443,79,32,0
147.2655,147.80443,82,60,0
147.80443,147.89384,77,37,0
147.89384,147.98328,79,33,0
147.98328,148.0727,77,37,0
148.0727,148.16212,79,32,0
148.16212,148.25208,77,35,0
148.25208,148.34204,79,32,0
147.80443,148.34204,81,60,0
148.34204,148.432,77,36,0
148.432,148.52196,79,32,0
148.52196,148.61287,77,36,0
148.61287,148.70378,79,30,0
148.70378,148.7947,77,35,0
148.7947,148.8856,79,30,0
148.34204,148.8856,87,56,0
149.0731,149.1634,82,45,0
149.0731,149.1634,86,45,0
149.25334,149.34293,82,45,0
149.25334,149.34293,86,45,0
149.43208,149.52092,82,48,0
149.43208,149.52092,86,48,0
149.60931,149.69771,82,42,0
149.60931,149.69771,86,42,0
149.7864,149.87547,82,42,0
149.7864,149.87547,86,42,0
150.1518,150.24184,82,45,0
150.1518,150.24184,84,45,0
150.33159,150.42107,84,45,0
150.33159,150.42107,82,45,0
150.51027,150.59915,84,49,0
150.51027,150.59915,82,49,0
150.68791,150.77686,82,44,0
150.68791,150.77686,84,44,0
150.86592,150.95522,82,46,0
150.86592,150.95522,84,46,0
151.23215,151.3225,82,48,0
151.23215,151.3225,86,48,0
151.41257,151.5023,82,49,0
151.41257,151.5023,86,49,0
151.59178,151.68553,82,52,0
151.59178,151.68553,86,52,0
151.77928,151.86963,82,47,0
151.77928,151.86963,86,47,0
151.95969,152.04944,86,48,0
151.95969,152.04944,82,48,0
151.95969,152.04944,89,48,0
152.1389,152.2282,89,59,0
152.1389,152.2282,81,59,0
152.1389,152.2282,87,59,0
152.31747,152.40826,87,46,0
152.31747,152.40826,81,46,0
152.31747,152.40826,89,46,0
152.49907,152.58948,81,45,0
152.49907,152.58948,89,45,0
152.49907,152.58948,87,45,0
152.67944,152.76874,87,53,0
152.67944,152.76874,81,53,0
152.67944,152.76874,89,53,0
152.85802,152.94722,81,45,0
152.85802,152.94722,89,45,0
152.85802,152.94722,87,45,0
153.03706,153.12772,87,44,0
153.03706,153.12772,81,44,0
153.03706,153.12772,89,44,0
153.58403,154.1358,92,83,0
153.58403,154.1358,80,70,0
154.1358,154.32239,91,79,0
154.1358,154.32239,79,66,0
154.6867,155.23146,90,81,0
154.6867,155.23146,78,69,0
155.23146,155.41554,89,80,0
155.23146,155.41554,77,67,0
155.77998,156.32382,80,86,0
155.77998,156.32382,68,73,0
156.32382,156.50627,79,86,0
156.32382,156.50627,67,71,0
156.86755,157.41061,78,92,0
156.86755,157.41061,66,78,0
157.41061,157.59273,77,90,0
157.41061,157.59273,65,75,0
157.77292,157.86234,65,60,0
157.77292,157.86234,77,71,0
157.77292,157.86234,70,60,0
157.95177,158.04118,70,57,0
157.95177,158.04118,77,68,0
157.95177,158.04118,65,57,0
158.31462,158.40431,67,58,0
158.31462,158.40431,75,69,0
158.31462,158.40431,70,58,0
158.494,158.5837,70,55,0
158.494,158.5837,67,55,0
158.494,158.5837,74,65,0
158.85356,158.94365,67,60,0
158.85356,158.94365,74,71,0
158.85356,158.94365,63,60,0
159.03374,159.12383,63,57,0
159.03374,159.12383,67,57,0
159.03374,159.12383,72,68,0
159.3975,159.48734,60,58,0
159.3975,159.48734,63,58,0
159.3975,159.48734,70,69,0
159.57715,159.66698,60,55,0
159.57715,159.66698,63,55,0
159.57715,159.66698,69,65,0
159.93564,160.02507,58,60,0
159.93564,160.02507,65,60,0
159.93564,160.02507,70,71,0
160.11449,160.20392,58,58,0
160.11449,160.20392,62,58,0
160.11449,160.20392,65,69,0
160.4776,160.56741,58,60,0
160.4776,160.56741,63,72,0
160.4776,160.56741,55,74,0
160.65724,160.74706,55,58,0
160.65724,160.74706,58,58,0
160.65724,160.74706,62,68,0
161.01706,161.10715,51,64,0
161.01706,161.10715,55,64,0
161.01706,161.10715,62,76,0
161.19724,161.28734,51,62,0
161.19724,161.28734,55,62,0
161.19724,161.28734,60,74,0
161.56102,161.65083,58,77,0
161.56102,161.65083,51,64,0
161.56102,161.65083,48,79,0
161.74066,161.83047,48,62,0
161.74066,161.83047,57,73,0
161.74066,161.83047,51,62,0
161.92542,162.01616,46,62,0
162.01616,162.10713,48,63,0
162.10713,162.19754,50,65,0
162.19754,162.28738,51,66,0
162.28738,162.347,53,67,0
162.347,162.40662,55,68,0
162.40662,162.46623,57,68,0
162.46623,162.52585,58,69,0
162.52585,162.5871,60,70,0
162.5871,162.65,62,71,0
162.65,162.70987,63,72,0
162.70987,162.76976,65,72,0
162.76976,162.82964,67,73,0
162.82964,162.91945,69,85,0
162.91945,163.01955,57,67,0
163.01955,163.11015,58,62,0
163.11015,163.20042,60,63,0
163.20042,163.29039,62,65,0
163.29039,163.38002,63,66,0
163.38002,163.43956,65,67,0
163.43956,163.49908,67,68,0
163.49908,163.55861,69,68,0
163.55861,163.61813,70,69,0
163.61813,163.67905,72,70,0
163.67905,163.74136,74,71,0
163.74136,163.80106,75,72,0
163.80106,163.86076,77,72,0
163.86076,163.92046,79,73,0
163.92046,164.01001,81,85,0
164.01001,164.10916,69,67,0
164.10916,164.19972,70,62,0
164.19972,164.28992,72,63,0
164.28992,164.37968,74,65,0
164.37968,164.4691,75,66,0
164.4691,164.52847,77,68,0
164.52847,164.58781,79,70,0
164.58781,164.64716,81,72,0
164.64716,164.73619,82,74,0
164.73619,164.82878,84,75,0
164.82878,164.88847,86,77,0
164.88847,164.94818,87,79,0
164.94818,165.00787,89,81,0
165.00787,165.06758,91,83,0
165.06758,165.13144,93,92,0
165.13144,165.19948,81,85,0
165.19948,165.60764,94,105,0
165.19948,165.60764,82,89,0
165.81172,166.21988,74,75,0
165.81172,166.21988,77,75,0
165.81172,166.21988,82,90,0
166.42397,166.83212,70,89,0
166.42397,166.83212,65,74,0
166.42397,166.83212,62,74,0
167.44437,167.54642,70,45,0
167.64845,167.77927,70,57,0
167.82288,167.91058,66,45,0
167.9983,168.08867,63,45,0
169.59486,169.77185,70,49,0
169.59486,169.77185,82,58,0
169.77185,170.30283,70,49,0
169.77185,170.30283,82,59,0
170.30283,170.84451,83,62,0
170.30283,170.84451,71,52,0
170.84451,171.37393,84,70,0
170.84451,171.37393,72,59,0
171.37393,171.72687,73,50,0
171.37393,171.72687,85,60,0
171.72687,171.81511,73,45,0
171.90334,172.03378,73,59,0
172.07726,172.16548,70,45,0
172.25372,172.34409,66,45,0
173.84483,174.01932,85,58,0
173.84483,174.01932,73,49,0
174.02078,174.54865,73,49,0
174.02078,174.54865,85,59,0
174.54865,175.60335,87,62,0
174.54865,175.60335,75,52,0
175.60335,176.65602,88,60,0
175.60335,176.65602,76,50,0
176.65602,177.19397,78,55,0
176.65602,177.19397,90,64,0
177.19397,177.76196,79,57,0
177.19397,177.76196,91,67,0
177.76196,178.8111,80,59,0
177.76196,178.8111,92,69,0
178.8111,179.37961,78,57,0
178.8111,179.37961,90,67,0
179.37961,179.91853,88,63,0
179.37961,179.91853,76,63,0
179.91853,180.45744,85,58,0
179.91853,180.45744,73,49,0
180.45744,180.82555,75,54,0
180.82555,181.00682,80,52,0
181.00682,181.36935,78,62,0
181.36935,181.55063,75,55,0
180.45744,181.55063,87,54,0
181.55063,181.91872,73,62,0
181.91872,182.09999,80,54,0
182.09999,182.46252,78,61,0
182.46252,182.6438,73,49,0
181.55063,182.6438,85,62,0
182.6438,182.73582,78,50,0
182.73582,182.82785,80,34,0
182.82785,182.91988,78,39,0
182.91988,183.01189,80,35,0
183.01189,183.10252,78,39,0
183.10252,183.19316,80,36,0
182.6438,183.19316,87,41,0
183.19316,183.2838,78,52,0
183.2838,183.37444,80,38,0
183.37444,183.46507,78,44,0
183.46507,183.5557,80,38,0
183.5557,183.64633,78,46,0
183.64633,183.73697,80,39,0
183.19316,183.73697,83,45,0
183.73697,183.829,78,57,0
183.829,183.92102,80,38,0
183.92102,184.01305,78,42,0
184.01305,184.10507,80,37,0
184.10507,184.19571,78,40,0
184.19571,184.28633,80,36,0
183.73697,184.28633,82,47,0
184.28633,184.37697,78,51,0
184.37697,184.4676,80,37,0
184.4676,184.55824,78,40,0
184.55824,184.64888,80,35,0
184.64888,184.74292,78,41,0
184.74292,184.83696,80,34,0
184.28633,184.83696,90,45,0
184.83696,185.3796,78,45,0
184.83696,185.3796,90,50,0
185.3796,185.92168,66,40,0
185.3796,185.92168,78,47,0
185.92168,186.459,78,46,0
185.92168,186.459,74,41,0
185.92168,186.459,66,41,0
186.459,186.81613,74,45,0
186.459,186.81613,67,45,0
186.459,186.81613,79,45,0
186.81613,186.9947,74,43,0
186.81613,186.9947,69,43,0
186.81613,186.9947,81,43,0
186.9947,187.35509,83,54,0
186.9947,187.35509,71,54,0
186.9947,187.35509,74,54,0
187.35509,187.53418,88,51,0
187.35509,187.53418,76,51,0
187.53418,187.8924,86,58,0
187.53418,187.8924,74,58,0
187.8924,188.08167,71,50,0
187.8924,188.08167,83,50,0
188.08167,188.43881,81,62,0
188.08167,188.43881,69,62,0
188.43881,188.61739,76,50,0
188.43881,188.61739,88,50,0
188.61739,188.97453,74,58,0
188.61739,188.97453,86,58,0
188.97453,189.16745,69,53,0
188.97453,189.16745,81,53,0
189.16745,189.25948,74,46,0
189.25948,189.3515,76,31,0
189.3515,189.44353,74,36,0
189.44353,189.53555,76,32,0
189.53555,189.62564,74,36,0
189.62564,189.71573,76,33,0
189.16745,189.71573,83,38,0
189.71573,189.80582,74,48,0
189.80582,189.8959,76,35,0
189.8959,189.98601,74,40,0
189.98601,190.0761,76,35,0
190.0761,190.16618,74,42,0
190.16618,190.25627,76,36,0
189.71573,190.25627,79,41,0
190.25627,190.3483,74,52,0
190.3483,190.44032,76,35,0
190.44032,190.53235,74,39,0
190.53235,190.62437,76,34,0
190.62437,190.715,74,37,0
190.715,190.80563,76,33,0
190.25627,190.80563,78,43,0
190.80563,190.89546,74,47,0
190.89546,190.98528,76,34,0
190.98528,191.0751,74,37,0
191.0751,191.16492,76,32,0
191.16492,191.35301,74,38,0
190.80563,191.35301,84,41,0
191.35301,191.5365,83,50,0
191.35301,191.5365,74,42,0
191.5365,191.71999,71,44,0
191.71999,191.81314,67,42,0
191.71999,191.81314,86,50,0
191.90631,192.08813,66,45,0
191.90631,192.08813,86,54,0
192.08813,192.26994,67,39,0
192.08813,192.26994,83,46,0
192.26994,192.364,79,45,0
192.26994,192.364,71,38,0
192.64041,192.82278,71,46,0
192.82278,193.00854,74,46,0
193.00854,193.18925,79,50,0
193.18925,193.36998,83,50,0
193.36998,193.46344,86,53,0
193.36998,193.46344,79,43,0
193.5569,193.73763,79,45,0
193.73763,193.91835,76,46,0
193.5569,193.91835,88,57,0
193.91835,194.10468,72,46,0
194.10468,194.2865,71,53,0
194.2865,194.46832,72,46,0
194.46832,194.65582,76,46,0
194.83931,195.02168,79,50,0
195.02168,195.20801,84,54,0
195.20801,195.57164,88,60,0
195.20801,195.57164,76,51,0
195.57164,195.76582,87,62,0
195.57164,195.76582,75,52,0
195.76582,195.94765,87,60,0
195.94765,196.12946,84,55,0
196.12946,196.26582,80,55,0
196.31128,196.49309,79,60,0
196.49309,196.67491,82,57,0
196.67491,196.81686,87,57,0
196.67491,196.81686,75,50,0
196.86418,197.046,75,58,0
197.046,197.22783,72,50,0
197.22783,197.36418,68,50,0
197.40964,197.59146,75,58,0
197.59146,197.77327,70,51,0
197.77327,197.91705,70,51,0
197.77327,197.91705,82,51,0
197.96497,198.14734,82,59,0
197.96497,198.14734,70,50,0
198.14734,198.32971,79,51,0
198.14734,198.32971,67,43,0
198.32971,198.51208,75,47,0
198.32971,198.51208,63,39,0
198.51208,198.69446,74,54,0
198.51208,198.69446,62,45,0
198.69446,198.87683,65,41,0
198.69446,198.87683,77,49,0
198.87683,199.02106,70,42,0
198.87683,199.02106,82,50,0
199.06914,199.25206,82,55,0
199.06914,199.25206,70,46,0
199.25206,199.43498,79,51,0
199.25206,199.43498,67,43,0
199.43498,199.57219,75,51,0
199.43498,199.57219,63,43,0
199.61792,199.80084,75,56,0
199.61792,199.80084,63,47,0
199.80084,199.98376,67,40,0
199.80084,199.98376,79,48,0
199.98376,200.13228,72,49,0
199.98376,200.13228,84,58,0
200.1818,200.3636,84,63,0
200.1818,200.3636,72,53,0
200.3636,200.54543,80,57,0
200.3636,200.54543,68,48,0
200.54543,200.72723,77,57,0
200.54543,200.72723,65,48,0
200.72723,200.90906,76,63,0
200.72723,200.90906,64,53,0
200.90906,201.09088,79,57,0
200.90906,201.09088,67,48,0
201.09088,201.23373,84,62,0
201.09088,201.23373,72,52,0
201.28136,201.46317,72,62,0
201.28136,201.46317,84,73,0
201.46317,201.64499,80,59,0
201.46317,201.64499,68,50,0
201.64499,201.82681,65,50,0
201.64499,201.82681,77,59,0
201.82681,202.00862,62,56,0
201.82681,202.00862,74,67,0
202.00862,202.19044,77,60,0
202.00862,202.19044,65,51,0
202.19044,202.33995,82,60,0
202.19044,202.33995,70,51,0
202.38979,202.5716,82,67,0
202.38979,202.5716,70,56,0
202.5716,202.75342,79,58,0
202.5716,202.75342,67,49,0
202.75342,202.93523,75,58,0
202.75342,202.93523,63,49,0
202.93523,203.11705,72,61,0
202.93523,203.11705,60,51,0
203.11705,203.29887,65,47,0
203.11705,203.29887,77,56,0
203.29887,203.44592,68,47,0
203.29887,203.44592,80,56,0
203.49495,203.67622,58,55,0
203.49495,203.67622,70,65,0
203.67622,203.85748,63,50,0
203.67622,203.85748,75,59,0
203.85748,203.99944,67,51,0
203.85748,203.99944,79,60,0
204.04675,204.22913,58,56,0
204.04675,204.22913,70,67,0
204.22913,204.4115,62,51,0
204.22913,204.4115,74,60,0
204.4115,204.5153,68,60,0
204.5153,204.61911,77,60,0
204.71002,204.80093,79,55,0
204.80093,204.89185,82,59,0
204.89185,204.98276,87,55,0
204.98276,205.07365,91,61,0
205.07365,205.16457,79,55,0
205.25548,205.34639,80,55,0
205.34639,205.4373,82,59,0
205.4373,205.5282,89,55,0
205.5282,205.62436,92,61,0
205.62436,205.7205,80,56,0
205.81142,205.90233,79,56,0
205.90233,205.99324,82,60,0
205.99324,206.08415,87,56,0
206.08415,206.17506,91,62,0
206.17506,206.26596,79,56,0
206.35687,206.44778,79,56,0
206.44778,206.5387,82,61,0
206.5387,206.62961,87,57,0
206.62961,206.7286,91,63,0
206.7286,206.82762,88,57,0
206.91826,207.0089,80,57,0
207.0089,207.09953,84,61,0
207.09953,207.19016,89,57,0
207.19016,207.28079,92,63,0
207.28079,207.37143,80,57,0
207.46207,207.5527,82,58,0
207.5527,207.64333,84,62,0
207.64333,207.73396,91,58,0
207.73396,207.82921,94,64,0
207.82921,207.92444,82,58,0
208.01453,208.10463,80,58,0
208.10463,208.19472,84,62,0
208.19472,208.2848,89,59,0
208.2848,208.3749,92,66,0
208.3749,208.46498,80,59,0
208.55507,208.64516,80,59,0
208.64516,208.73526,82,63,0
208.73526,208.82535,89,59,0
208.82535,208.92502,92,67,0
208.92502,209.02467,80,59,0
209.11476,209.20486,79,60,0
209.20486,209.29495,82,64,0
209.29495,209.38504,87,60,0
209.38504,209.47513,91,68,0
209.47513,209.56522,79,61,0
209.6553,209.74539,92,62,0
209.74539,209.8355,89,68,0
209.8355,209.92558,87,63,0
209.92558,210.02362,80,72,0
210.02362,210.12166,92,66,0
210.21202,210.30238,94,67,0
210.30238,210.39275,91,72,0
210.39275,210.48311,87,68,0
210.48311,210.57774,82,78,0
210.57774,210.67238,94,69,0
210.76329,210.8542,94,70,0
210.8542,210.9451,89,77,0
210.9451,211.03601,86,72,0
211.03601,211.15897,82,81,0
211.15897,211.28192,94,73,0
211.28192,211.38028,55,85,0
211.38028,211.47864,63,70,0
211.47864,211.5751,58,79,0
211.5751,211.67157,67,70,0
211.67157,211.76802,63,81,0
211.76802,211.86449,70,70,0
211.86449,211.95883,67,86,0
211.95883,212.05316,75,70,0
212.05316,212.1475,70,77,0
212.1475,212.24185,79,70,0
212.24185,212.33618,75,78,0
212.33618,212.43053,82,70,0
212.43053,212.52487,79,86,0
212.52487,212.6192,87,70,0
212.6192,212.71355,82,77,0
212.71355,212.80788,91,67,0
212.80788,212.90222,87,75,0
212.90222,212.99657,94,68,0
212.99657,213.08887,93,80,0
213.08887,213.18118,94,72,0
213.18118,213.27348,93,77,0
213.27348,213.3658,94,70,0
213.3658,213.4581,93,75,0
213.4581,213.55911,94,70,0
213.55911,213.65286,96,84,0
213.65286,213.74661,94,84,0
213.74661,213.84007,92,83,0
213.84007,213.93353,91,82,0
213.93353,214.027,89,81,0
214.027,214.12044,87,81,0
214.12044,214.2139,86,79,0
214.2139,214.30736,84,71,0
214.30736,214.40082,82,71,0
214.40082,214.49428,80,71,0
214.49428,214.58774,79,71,0
214.58774,214.68942,77,71,0
214.68942,214.78317,75,77,0
214.78317,214.87692,74,75,0
214.87692,214.97067,72,74,0
214.97067,215.06442,70,74,0
215.06442,215.15703,68,73,0
215.15703,215.24962,67,72,0
215.24962,215.34221,65,70,0
215.34221,215.4348,63,64,0
215.4348,215.52739,62,70,0
215.52739,215.61998,65,66,0
215.61998,215.71257,68,75,0
215.71257,215.82207,62,69,0
215.82207,215.92043,55,85,0
215.92043,216.01878,63,70,0
216.01878,216.11525,58,79,0
216.11525,216.21172,67,70,0
216.21172,216.30818,63,81,0
216.30818,216.40463,70,70,0
216.40463,216.49898,67,86,0
216.49898,216.59332,75,70,0
216.59332,216.68765,70,77,0
216.68765,216.782,79,70,0
216.782,216.87634,75,78,0
216.87634,216.97067,82,70,0
216.97067,217.06502,79,86,0
217.06502,217.15935,87,70,0
217.15935,217.2537,82,77,0
217.2537,217.34804,91,67,0
217.34804,217.44237,87,75,0
217.44237,217.53671,94,68,0
217.53671,217.62901,93,80,0
217.62901,217.72133,94,72,0
217.72133,217.81363,93,77,0
217.81363,217.90594,94,70,0
217.90594,217.99825,93,75,0
217.99825,218.09926,94,70,0
218.09926,218.19301,96,84,0
218.19301,218.28676,94,84,0
218.28676,218.38022,92,83,0
218.38022,218.47368,91,82,0
218.47368,218.56714,89,81,0
218.56714,218.6606,87,81,0
218.6606,218.75404,85,79,0
218.75404,218.8475,84,71,0
218.8475,218.94096,82,71,0
218.94096,219.03442,80,71,0
219.03442,219.12788,79,71,0
219.12788,219.22958,77,71,0
219.22958,219.32411,75,77,0
219.32333,219.41786,73,75,0
219.41708,219.51083,72,74,0
219.51083,219.60458,70,74,0
219.60458,219.69717,68,73,0
219.69717,219.78976,67,72,0
219.78976,219.88235,65,68,0
219.88235,219.97495,63,59,0
219.97495,220.06754,62,66,0
220.06754,220.16013,65,59,0
220.16013,220.25273,68,64,0
220.25273,220.35654,62,59,0
220.35654,220.5507,63,95,0
220.93906,221.13014,75,89,0
221.5123,221.70338,78,96,0
222.08556,222.27664,83,88,0
222.6588,222.84749,78,94,0
223.22484,223.41714,75,88,0
223.80176,223.99406,71,93,0
224.3787,224.57477,66,82,0
224.96692,225.1611,62,95,0
225.54945,225.74052,74,89,0
226.1227,226.31378,77,96,0
226.69594,226.88702,82,88,0
227.2692,227.45787,77,94,0
227.83524,228.02754,74,88,0
228.41216,228.60446,70,93,0
228.98907,229.18515,65,82,0
229.57732,229.67107,78,55,0
229.89375,229.93674,89,51,0
229.93674,230.02269,87,56,0
230.02269,230.10866,86,51,0
230.10866,230.28056,87,56,0
230.40952,230.45248,92,51,0
230.45248,230.53845,90,57,0
230.53845,230.6244,89,50,0
230.6244,230.71815,90,60,0
230.94426,230.98839,97,51,0
230.98839,231.07483,95,56,0
231.07483,231.16129,94,51,0
231.16129,231.3342,95,56,0
231.46388,231.50711,92,51,0
231.50711,231.59857,90,57,0
231.59857,231.69003,89,50,0
231.69003,231.77675,90,60,0
231.99352,232.03687,89,51,0
232.03687,232.12357,87,56,0
232.12357,232.21027,86,51,0
232.21027,232.38368,87,56,0
232.51373,232.5571,85,51,0
232.5571,232.648,83,57,0
232.648,232.7389,82,50,0
232.7389,232.82536,83,60,0
233.0415,233.08473,80,51,0
233.08473,233.17119,78,56,0
233.17119,233.25764,77,51,0
233.25764,233.60347,78,56,0
233.77637,233.87012,77,55,0
234.09319,234.13629,87,51,0
234.13629,234.22249,86,56,0
234.22249,234.3087,84,51,0
234.3087,234.48111,86,56,0
234.61043,234.65353,90,51,0
234.65353,234.73973,89,57,0
234.73973,234.82594,88,50,0
234.82594,234.9197,89,60,0
235.14388,235.18736,95,51,0
235.18736,235.2743,94,56,0
235.2743,235.36127,93,51,0
235.36127,235.53519,94,56,0
235.66562,235.70909,90,51,0
235.70909,235.79605,89,57,0
235.79605,235.88301,88,50,0
235.88301,235.97676,89,60,0
236.20094,236.24442,87,51,0
236.24442,236.33138,86,56,0
236.33138,236.41833,84,51,0
236.41833,236.59225,86,56,0
236.72269,236.76616,83,51,0
236.76616,236.85312,82,57,0
236.85312,236.94008,81,50,0
236.94008,237.03383,82,60,0
237.25839,237.30199,78,51,0
237.30199,237.3892,77,56,0
237.3892,237.47641,76,51,0
237.47641,237.65083,77,56,0
237.82524,238.01216,78,52,0
238.01216,238.10335,70,35,0
238.10335,238.19453,72,31,0
238.19453,238.28572,70,35,0
238.28572,238.3769,72,31,0
238.3769,238.46593,70,34,0
238.46593,238.55495,72,31,0
238.01216,238.55495,79,56,0
238.55495,238.64397,70,36,0
238.64397,238.73299,72,32,0
238.73299,238.822,70,36,0
238.822,238.91103,72,31,0
238.91103,239.00005,70,37,0
239.00005,239.08907,72,31,0
238.55495,239.08907,75,55,0
239.08907,239.17679,70,37,0
239.17679,239.26451,72,33,0
239.26451,239.35223,70,37,0
239.35223,239.43994,72,33,0
239.43994,239.52766,70,37,0
239.52766,239.61539,72,34,0
239.08907,239.61539,74,59,0
239.61539,239.70311,70,38,0
239.70311,239.79083,72,34,0
239.79083,239.88011,70,39,0
239.88011,239.96939,72,33,0
239.96939,240.0617,70,39,0
240.0617,240.154,72,34,0
239.61539,240.154,80,59,0
240.154,240.24464,70,40,0
240.24464,240.33528,72,35,0
240.33528,240.42592,70,39,0
240.42592,240.51656,72,35,0
240.51656,240.60504,70,38,0
240.60504,240.69354,72,34,0
240.154,240.69354,79,64,0
240.69354,240.78204,70,39,0
240.78204,240.87053,72,34,0
240.87053,240.95903,70,38,0
240.95903,241.04752,72,33,0
241.04752,241.13602,70,38,0
241.13602,241.22452,72,32,0
240.69354,241.22452,75,60,0
241.22452,241.313,70,37,0
241.313,241.4015,72,33,0
241.4015,241.49,70,37,0
241.49,241.57849,72,32,0
241.57849,241.66699,70,35,0
241.66699,241.7555,72,32,0
241.22452,241.7555,74,60,0
241.7555,241.84398,70,36,0
241.84398,241.93248,72,32,0
241.93248,242.02203,70,36,0
242.02203,242.11159,72,30,0
242.11159,242.20114,70,35,0
242.20114,242.29068,72,30,0
241.7555,242.29068,80,56,0
242.29068,242.38443,79,51,0
242.29068,242.38443,70,48,0
242.38443,242.47818,72,45,0
242.47818,242.5685,74,50,0
242.5685,242.65843,75,52,0
242.65843,242.7182,77,54,0
242.7182,242.77779,79,56,0
242.77779,242.83717,80,59,0
242.83717,242.92601,82,61,0
242.92601,243.0144,80,60,0
243.0144,243.07329,79,58,0
243.07329,243.13232,77,56,0
243.13232,243.1915,75,54,0
243.1915,243.25084,74,53,0
243.25084,243.31033,72,51,0
243.31033,243.36996,71,49,0
243.36996,243.46371,72,54,0
243.46371,243.55688,75,45,0
243.55688,243.64691,77,48,0
243.64691,243.73668,79,50,0
243.73668,243.82616,80,56,0
243.82616,243.91536,82,59,0
243.91536,244.00424,84,61,0
244.00424,244.09299,82,60,0
244.09299,244.15228,80,58,0
244.15228,244.21162,79,57,0
244.21162,244.27101,77,56,0
244.27101,244.33054,75,55,0
244.33054,244.39006,74,54,0
244.39006,244.44974,72,53,0
244.44974,244.54349,70,57,0
244.54349,244.63724,79,49,0
244.63724,244.72758,75,59,0
244.72758,244.81766,82,55,0
244.81766,244.9074,79,62,0
244.9074,244.99686,87,57,0
244.99686,245.08606,82,62,0
245.08606,245.17491,91,57,0
245.17491,245.26405,87,55,0
245.25883,245.34834,94,61,0
245.35359,245.44354,91,53,0
245.44354,245.53395,87,54,0
245.53395,245.8957,82,59,0
246.07498,246.13542,89,59,0
246.13542,246.19583,91,52,0
246.19583,246.25586,89,59,0
246.25586,246.31529,91,54,0
246.31529,246.37497,89,59,0
246.37497,246.43494,91,53,0
246.43494,246.49529,89,59,0
246.49529,246.5559,91,53,0
246.5559,246.6165,89,56,0
246.6165,246.70853,82,45,0
246.70853,246.80054,84,34,0
246.80054,246.89256,82,38,0
246.89256,246.98459,84,34,0
246.98459,247.07523,82,37,0
247.07523,247.16586,84,34,0
246.6165,247.16586,91,67,0
247.16586,247.2565,82,39,0
247.2565,247.34714,84,35,0
247.34714,247.43776,82,39,0
247.43776,247.5284,84,34,0
247.5284,247.61903,82,40,0
247.61903,247.70967,84,34,0
247.16586,247.70967,87,60,0
247.70967,247.79869,82,40,0
247.79869,247.88771,84,36,0
247.88771,247.97673,82,40,0
247.97673,248.06575,84,36,0
248.06575,248.15477,82,40,0
248.15477,248.24379,84,37,0
247.70967,248.24379,86,64,0
248.24379,248.33281,82,41,0
248.33281,248.42183,84,37,0
248.42183,248.51274,82,42,0
248.51274,248.60365,84,36,0
248.60365,248.69595,82,42,0
248.69595,248.78827,84,37,0
248.24379,248.78827,92,64,0
248.78827,248.87946,82,44,0
248.87946,248.97064,84,38,0
248.97064,249.06183,82,42,0
249.06183,249.15302,84,38,0
249.15302,249.24283,82,41,0
249.24283,249.33266,84,37,0
248.78827,249.33266,91,70,0
249.33266,249.42247,82,42,0
249.42247,249.5123,84,37,0
249.5123,249.60211,82,41,0
249.60211,249.69193,84,36,0
249.69193,249.78175,82,41,0
249.78175,249.87157,84,35,0
249.33266,249.87157,87,66,0
249.87157,249.96112,82,40,0
249.96112,250.05067,84,36,0
250.05067,250.14023,82,40,0
250.14023,250.22978,84,35,0
250.22978,250.31934,82,38,0
250.31934,250.40889,84,35,0
249.87157,250.40889,86,66,0
250.40889,250.49844,82,39,0
250.49844,250.588,84,35,0
250.588,250.6789,82,39,0
250.6789,250.7698,84,33,0
250.7698,250.86072,82,38,0
250.86072,250.95163,84,33,0
250.40889,250.95163,92,61,0
251.13913,251.22943,91,49,0
251.13913,251.22943,87,49,0
251.31937,251.40897,87,49,0
251.31937,251.40897,91,49,0
251.49812,251.58694,91,52,0
251.49812,251.58694,87,52,0
251.67534,251.76373,91,46,0
251.67534,251.76373,87,46,0
251.85243,251.94151,91,46,0
251.85243,251.94151,87,46,0
252.21782,252.30786,89,49,0
252.21782,252.30786,87,49,0
252.39761,252.48709,87,49,0
252.39761,252.48709,89,49,0
252.5763,252.66518,87,53,0
252.5763,252.66518,89,53,0
252.75394,252.8429,87,48,0
252.75394,252.8429,89,48,0
252.93196,253.02124,87,50,0
252.93196,253.02124,89,50,0
253.29817,253.38852,87,52,0
253.29817,253.38852,91,52,0
253.47859,253.56833,87,53,0
253.47859,253.56833,91,53,0
253.6578,253.75156,87,57,0
253.6578,253.75156,91,57,0
253.8453,253.93565,87,51,0
253.8453,253.93565,91,51,0
254.02573,254.11546,87,52,0
254.02573,254.11546,91,52,0
254.20494,254.29422,86,64,0
254.20494,254.29422,89,64,0
254.3835,254.47429,86,50,0
254.3835,254.47429,89,50,0
254.5651,254.6555,86,49,0
254.5651,254.6555,89,49,0
254.74547,254.83476,89,58,0
254.74547,254.83476,86,58,0
254.92406,255.01324,89,49,0
254.92406,255.01324,86,49,0
255.10309,255.19374,89,48,0
255.10309,255.19374,86,48,0
255.65005,256.19955,97,80,0
255.65005,256.19955,85,68,0
256.19955,256.3861,84,64,0
256.19955,256.3861,96,77,0
256.75043,257.29422,83,81,0
256.75043,257.29422,71,69,0
257.29422,257.47827,82,80,0
257.29422,257.47827,70,67,0
257.8427,258.38657,73,86,0
257.8427,258.38657,61,73,0
258.38657,258.56903,72,77,0
258.38657,258.56903,60,63,0
258.9303,259.47336,59,92,0
258.9303,259.47336,47,78,0
259.47336,259.6555,58,90,0
259.47336,259.6555,46,75,0
259.83566,259.92575,58,60,0
259.83566,259.92575,70,71,0
260.01584,260.10593,58,57,0
260.01584,260.10593,70,68,0
260.3796,260.46945,56,58,0
260.3796,260.46945,68,69,0
260.55927,260.64908,55,55,0
260.55927,260.64908,67,65,0
260.91907,261.00916,55,60,0
260.91907,261.00916,67,71,0
261.09927,261.18936,53,57,0
261.09927,261.18936,65,68,0
261.46304,261.55286,51,58,0
261.46304,261.55286,63,69,0
261.64267,261.73248,50,55,0
261.64267,261.73248,62,65,0
262.00195,262.09177,70,60,0
262.00195,262.09177,82,71,0
262.1816,262.27142,70,57,0
262.1816,262.27142,82,68,0
262.5451,262.63492,68,58,0
262.5451,262.63492,80,69,0
262.72473,262.81458,67,55,0
262.72473,262.81458,79,65,0
263.08456,263.17465,67,60,0
263.08456,263.17465,79,71,0
263.26474,263.35483,65,57,0
263.26474,263.35483,77,68,0
263.6285,263.71832,63,58,0
263.6285,263.71832,75,69,0
263.80817,263.89798,62,55,0
263.80817,263.89798,74,65,0
264.16797,264.25806,63,60,0
264.16797,264.25806,67,60,0
264.16797,264.25806,75,71,0
264.34814,264.43823,63,58,0
264.34814,264.43823,67,58,0
264.34814,264.43823,70,69,0
264.71194,264.80176,63,60,0
264.71194,264.80176,68,72,0
264.71194,264.80176,60,74,0
264.89157,264.98138,60,58,0
264.89157,264.98138,63,58,0
264.89157,264.98138,67,68,0
265.2514,265.3415,56,64,0
265.2514,265.3415,60,64,0
265.2514,265.3415,67,76,0
265.43158,265.52167,56,62,0
265.43158,265.52167,60,62,0
265.43158,265.52167,65,74,0
265.79535,265.88516,56,64,0
265.79535,265.88516,63,77,0
265.79535,265.88516,53,79,0
265.97498,266.06482,53,62,0
265.97498,266.06482,56,62,0
265.97498,266.06482,62,73,0
266.15973,266.2505,51,62,0
266.2505,266.34146,53,63,0
266.34146,266.4319,55,65,0
266.4319,266.52173,56,66,0
266.52173,266.58142,58,67,0
266.58142,266.6411,60,68,0
266.6411,266.7008,62,68,0
266.7008,266.76053,63,69,0
266.76053,266.8218,65,70,0
266.8218,266.8847,67,71,0
266.8847,266.94458,68,72,0
266.94458,267.0045,70,72,0
267.0045,267.06436,72,73,0
267.06436,267.15417,74,85,0
267.15417,267.25424,62,67,0
267.25424,267.34488,63,62,0
267.34488,267.43515,65,63,0
267.43515,267.5251,67,65,0
267.5251,267.61475,68,66,0
267.61475,267.6743,70,67,0
267.6743,267.7338,72,68,0
267.7338,267.79333,74,68,0
267.79333,267.85284,75,69,0
267.85284,267.91376,77,70,0
267.91376,267.97607,79,71,0
267.97607,268.03577,80,72,0
268.03577,268.0955,82,72,0
268.0955,268.15518,84,73,0
268.15518,268.24472,86,85,0
268.24472,268.34387,74,67,0
268.34387,268.43445,75,62,0
268.43445,268.52463,77,63,0
268.52463,268.6144,79,65,0
268.6144,268.7038,80,66,0
268.7038,268.76318,82,68,0
268.76318,268.82254,84,70,0
268.82254,268.88187,86,72,0
268.88187,268.9709,87,74,0
268.9709,269.0635,89,78,0
269.0635,269.15305,91,82,0
269.15305,269.24258,92,86,0
269.24258,269.3023,94,90,0
269.3023,269.36615,96,92,0
269.36615,269.4342,98,95,0
269.4342,269.79456,99,103,0
269.97473,270.33508,75,90,0
269.97473,270.33508,70,75,0
269.97473,270.33508,67,75,0
270.51526,271.00308,63,89,0
270.51526,271.00308,58,74,0
270.51526,271.00308,55,74,0
271.24698,271.7121,70,70,0
271.7121,271.9707,70,60,0
271.9707,272.1905,70,45,0
272.1905,272.40103,67,45,0
272.40103,272.61154,63,39,0
272.61154,272.82208,62,45,0
272.82208,273.0326,65,40,0
273.0326,273.20502,70,40,0
273.26248,273.4799,70,45,0
273.4799,273.68967,67,41,0
273.68967,273.89944,63,41,0
273.89944,274.10925,64,45,0
274.10925,274.31903,67,39,0
274.31903,274.49414,72,46,0
274.5525,274.7699,72,50,0
274.7699,274.9819,68,45,0
274.9819,275.1939,65,45,0
275.1939,275.40594,66,49,0
275.40594,275.61795,69,44,0
275.61795,275.79794,74,47,0
275.85794,276.07773,74,56,0
276.07773,276.29126,70,45,0
276.29126,276.50476,67,45,0
276.50476,276.7183,68,51,0
276.7183,276.93182,70,45,0
276.93182,277.11038,74,45,0
277.16992,277.3938,75,50,0
277.3938,277.61118,70,43,0
277.61118,277.77423,67,43,0
277.82858,278.04596,67,45,0
278.04596,278.26337,70,41,0
278.26337,278.4493,75,41,0
278.5113,278.74387,79,50,0
278.74387,278.96942,75,43,0
278.96942,279.14728,70,44,0
279.20657,279.42963,70,47,0
279.42963,279.65268,75,43,0
279.65268,279.84833,79,44,0
279.91354,280.15744,82,55,0
279.91354,280.15744,79,46,0
280.15744,280.38385,79,47,0
280.15744,280.38385,75,39,0
280.38385,280.61026,70,40,0
280.38385,280.61026,75,48,0
280.61026,280.83667,75,43,0
280.61026,280.83667,79,51,0
280.83667,281.0631,75,47,0
280.83667,281.0631,70,39,0
281.0631,281.2506,70,48,0
281.0631,281.2506,67,40,0
281.3131,281.54565,75,60,0
281.3131,281.54565,70,50,0
281.54565,281.77823,70,52,0
281.54565,281.77823,67,43,0
281.77823,282.0709,63,44,0
281.77823,282.0709,67,52,0
282.0709,282.3352,70,54,0
282.3352,282.59952,68,46,0
282.3352,282.59952,60,38,0
282.59952,282.8658,65,43,0
282.59952,282.8658,62,36,0
282.95456,283.10236,75,54,0
282.95456,283.10236,67,54,0
283.10236,283.25012,74,46,0
283.25012,283.39792,75,46,0
283.39792,283.5457,70,42,0
283.5457,283.70526,67,54,0
283.78506,283.86484,68,47,0
283.86484,284.01483,67,54,0
284.01483,284.16486,66,43,0
284.16486,284.31485,67,48,0
284.31485,284.46484,70,43,0
284.46484,284.63626,75,56,0
284.8077,284.9577,79,54,0
284.9577,285.1077,78,46,0
285.1077,285.2577,79,46,0
285.2577,285.4077,75,42,0
285.4077,285.56985,70,54,0
285.65094,285.73203,72,47,0
284.8077,285.73203,67,48,0
285.73203,285.88278,70,54,0
285.88278,286.03354,69,43,0
286.03354,286.1843,70,48,0
286.1843,286.33505,75,43,0
286.33505,286.4921,79,56,0
286.64917,286.8096,79,45,0
286.64917,286.8096,82,54,0
286.8096,286.97003,80,42,0
286.8096,286.97003,84,50,0
286.97003,287.12546,79,45,0
286.97003,287.12546,82,55,0
287.12546,287.2809,75,41,0
287.12546,287.2809,79,49,0
287.2809,287.60522,75,56,0
287.2809,287.60522,67,47,0
287.60522,287.76068,75,48,0
287.60522,287.76068,79,57,0
287.76068,287.9161,80,54,0
287.9161,288.07156,75,49,0
287.9161,288.07156,79,59,0
288.07156,288.227,70,44,0
288.07156,288.227,75,53,0
288.227,288.5641,70,60,0
288.227,288.5641,67,50,0
288.5641,288.7228,67,51,0
288.5641,288.7228,75,62,0
288.7228,288.88153,77,56,0
288.88153,289.04028,67,49,0
288.88153,289.04028,75,59,0
289.04028,289.199,67,43,0
289.04028,289.199,70,51,0
289.199,289.53992,67,56,0
289.199,289.53992,63,47,0
289.53992,289.8625,70,54,0
289.8625,290.18506,68,46,0
289.8625,290.18506,60,38,0
290.18506,290.4792,65,43,0
290.18506,290.4792,62,36,0
290.7439,291.07724,82,55,0
290.7439,291.07724,79,46,0
291.07724,291.40778,79,47,0
291.07724,291.40778,75,39,0
291.41055,291.74112,70,40,0
291.41055,291.74112,75,48,0
291.7439,292.07446,75,43,0
291.7439,292.07446,79,51,0
292.07724,292.4294,75,47,0
292.07724,292.4294,70,39,0
292.4326,292.78793,70,48,0
292.4326,292.78793,67,40,0
292.79074,293.1269,75,60,0
292.79074,293.1269,70,50,0
293.12973,293.4791,70,52,0
293.12973,293.4791,67,43,0
293.48215,293.85916,67,52,0
293.86243,294.25388,70,54,0
293.86243,294.25388,62,46,0
294.25717,294.66678,68,46,0
294.25717,294.66678,62,38,0
294.67038,295.2531,65,43,0
294.67038,295.2531,62,36,0
295.2531,295.33432,82,80,0
295.33432,295.41553,94,63,0
295.41553,295.4967,79,69,0
295.4967,295.5779,91,64,0
295.5779,295.6591,75,69,0
295.6591,295.7462,87,64,0
295.7462,295.82715,79,80,0
295.82715,295.90814,91,64,0
295.90814,295.9891,75,69,0
295.9891,296.0701,87,64,0
296.0701,296.15106,70,69,0
296.15106,296.23764,82,65,0
296.23764,296.31842,75,80,0
296.31842,296.39917,87,65,0
296.39917,296.47992,70,70,0
296.47992,296.56067,82,65,0
296.56067,296.64145,67,70,0
296.64145,296.7273,79,66,0
296.7273,296.80804,70,80,0
296.80804,296.8888,82,64,0
296.8888,296.96954,68,69,0
296.96954,297.05032,80,65,0
297.05032,297.13107,65,69,0
297.13107,297.21692,77,66,0
297.21692,297.29745,63,80,0
297.29745,297.378,75,65,0
297.378,297.45853,67,70,0
297.45853,297.5391,79,66,0
297.5391,297.61963,67,71,0
297.61963,297.70016,79,67,0
297.70016,297.7807,67,82,0
297.7807,297.86124,79,66,0
297.86124,297.94177,70,72,0
297.94177,298.02234,82,68,0
298.02234,298.10287,70,73,0
298.10287,298.18564,82,69,0
298.18564,298.26596,70,85,0
298.26596,298.34628,82,70,0
298.34628,298.4266,75,75,0
298.4266,298.50693,87,70,0
298.50693,298.58725,75,76,0
298.58725,298.66757,87,72,0
298.66757,298.74792,75,88,0
298.74792,298.82825,87,77,0
298.82825,298.90857,79,88,0
298.90857,298.9889,91,81,0
298.9889,299.07053,82,92,0
299.07053,299.15686,94,84,0
299.15686,299.50723,99,109,0
299.15686,299.50723,87,101,0
299.68243,300.05,70,74,0
299.68243,300.05,74,88,0
299.68243,300.05,68,74,0
299.68243,300.05,65,74,0
300.23376,300.60132,75,95,0
300.23376,300.60132,70,80,0
300.23376,300.60132,67,77,0
0.0,0.125,58,66,0
0.0,0.125,65,66,0
0.0,0.125,68,75,0
0.0,0.125,62,66,0
0.25,0.33823526,46,60,0
0.33823526,0.4264705,50,50,0
0.4264705,0.5147058,46,60,0
0.5147058,0.602941,50,51,0
0.602941,0.69117624,50,59,0
0.69117624,0.7794115,53,52,0
0.7794115,0.86764675,50,59,0
0.86764675,0.955882,53,52,0
0.955882,1.0441172,50,59,0
1.0441172,1.136425,53,51,0
1.136425,1.2244015,53,59,0
1.2244015,1.312378,56,51,0
1.312378,1.4003545,53,59,0
1.4003545,1.488331,56,50,0
1.488331,1.5763075,53,58,0
1.5763075,1.664284,56,50,0
1.664284,1.7522604,58,58,0
1.7522604,1.840237,62,50,0
1.840237,1.9282135,58,58,0
1.9282135,2.01619,62,50,0
2.01619,2.1041665,58,58,0
2.1041665,2.1973343,62,51,0
2.1973343,2.2855694,62,57,0
2.2855694,2.3738048,65,50,0
2.3738048,2.46204,62,57,0
2.46204,2.5502753,65,49,0
2.5502753,2.6385105,62,57,0
2.6385105,2.7267458,65,48,0
2.7267458,2.814981,65,57,0
2.814981,2.9032164,68,48,0
2.9032164,2.9914515,65,57,0
2.9914515,3.0796866,68,49,0
3.0796866,3.167922,65,56,0
3.167922,3.2628589,68,50,0
3.2628589,3.3508353,74,56,0
3.3508353,3.4388118,77,49,0
3.4388118,3.5267882,74,56,0
3.5267882,3.6147647,77,47,0
3.6147647,3.7027411,74,56,0
3.7027411,3.7907178,77,47,0
3.7907178,3.8786943,77,56,0
3.8786943,3.9666708,80,47,0
3.9666708,4.0546474,77,55,0
4.0546474,4.142624,80,48,0
4.142624,4.2306004,77,55,0
4.2306004,4.327063,80,49,0
4.6789694,4.8549223,80,33,0
4.8549223,5.206828,74,38,0
4.6789694,5.206828,77,33,0
5.7418356,5.917274,80,32,0
5.917274,6.268151,74,36,0
5.7418356,6.268151,77,32,0
6.8042393,6.980192,68,30,0
6.980192,7.3320985,62,34,0
6.8042393,7.3320985,65,30,0
7.8667984,8.042237,68,28,0
8.042237,8.393114,62,31,0
7.8667984,8.393114,65,28,0
8.597347,8.722347,53,66,0
8.597347,8.722347,58,75,0
8.597347,8.722347,50,66,0
8.597347,8.722347,46,66,0
8.847347,8.935582,46,60,0
9.023818,9.112053,46,59,0
9.200288,9.288524,50,57,0
9.376759,9.464994,53,56,0
9.553229,9.641464,58,54,0
9.732099,9.820595,62,54,0
9.90909,9.997325,65,54,0
10.085561,10.173796,70,52,0
10.085561,10.173796,68,52,0
10.262031,10.350266,68,50,0
10.262031,10.350266,70,50,0
10.438501,10.526737,70,49,0
10.438501,10.526737,68,49,0
10.614972,10.703207,68,48,0
10.614972,10.703207,70,48,0
10.801568,11.16854,70,40,0
10.801568,11.16854,67,34,0
10.801568,11.16854,63,34,0
11.352026,11.718998,70,34,0
11.352026,11.718998,65,28,0
11.352026,11.718998,68,28,0
11.352026,11.718998,58,28,0
11.911305,12.280537,67,34,0
11.911305,12.280537,70,40,0
11.911305,12.280537,63,34,0
12.834383,12.982898,72,34,0
12.834383,12.982898,64,28,0
12.834383,12.982898,67,28,0
12.834383,12.982898,70,28,0
13.032403,13.399375,72,40,0
13.032403,13.399375,65,34,0
13.032403,13.399375,68,34,0
13.582861,13.949833,67,28,0
13.582861,13.949833,72,34,0
13.582861,13.949833,70,28,0
13.582861,13.949833,60,28,0
14.140309,14.507281,72,40,0
14.140309,14.507281,68,34,0
14.140309,14.507281,65,34,0
15.057739,15.20197,70,37,0
15.057739,15.20197,65,31,0
15.057739,15.20197,62,31,0
15.057739,15.20197,68,31,0
15.250047,15.618144,63,33,0
15.250047,15.618144,70,39,0
15.250047,15.618144,67,33,0
15.802194,16.170292,65,35,0
15.802194,16.170292,60,29,0
15.802194,16.170292,56,29,0
16.361984,16.730083,67,42,0
16.361984,16.730083,58,35,0
16.361984,16.730083,63,35,0
16.919357,17.290874,62,33,0
16.919357,17.290874,65,39,0
16.919357,17.290874,58,33,0
17.290874,17.446585,58,39,0
17.498487,17.681973,58,49,0
17.681973,17.86546,55,49,0
17.86546,18.048944,51,42,0
18.048944,18.230213,50,49,0
18.230213,18.411484,53,45,0
18.411484,18.551895,58,45,0
18.600283,18.784897,58,51,0
18.784897,18.969513,55,47,0
18.969513,19.107975,51,47,0
19.154129,19.338743,51,52,0
19.338743,19.52336,55,46,0
19.52336,19.671875,60,60,0
19.52336,19.671875,52,49,0
19.721378,19.904865,53,53,0
19.721378,19.904865,60,66,0
19.904865,20.088352,56,53,0
20.088352,20.271837,53,53,0
20.271837,20.453655,52,59,0
20.453655,20.635473,55,53,0
20.635473,20.77628,60,58,0
20.82562,21.009108,60,70,0
21.009108,21.192593,56,56,0
21.192593,21.37608,53,57,0
21.37608,21.559565,50,64,0
21.559565,21.743052,53,58,0
21.743052,21.887281,58,63,0
21.743052,21.887281,50,53,0
21.935358,22.119408,51,61,0
21.935358,22.119408,58,72,0
22.119408,22.303457,55,56,0
22.303457,22.487505,51,57,0
22.487505,22.668774,48,59,0
22.487505,22.668774,44,50,0
22.668774,22.850044,53,55,0
22.850044,22.993814,56,55,0
23.041737,23.225786,46,61,0
23.225786,23.409836,51,56,0
23.409836,23.55179,55,56,0
23.59911,23.78148,46,62,0
23.78148,23.963852,50,56,0
23.963852,24.111393,46,56,0
23.963852,24.111393,58,56,0
24.160572,24.344059,46,63,0
24.344059,24.527546,43,63,0
24.527546,24.711031,39,55,0
24.711031,24.8923,38,63,0
24.8923,25.073568,41,57,0
25.073568,25.21398,46,57,0
25.262367,25.446983,46,63,0
25.446983,25.6316,43,58,0
25.6316,25.77006,39,58,0
25.816214,26.00083,39,63,0
26.00083,26.185446,43,55,0
26.185446,26.33396,48,70,0
26.185446,26.33396,40,58,0
26.383465,26.566952,41,63,0
26.383465,26.566952,48,78,0
26.566952,26.750437,44,63,0
26.750437,26.933924,41,63,0
26.933924,27.115742,40,69,0
27.115742,27.29756,43,62,0
27.29756,27.438364,48,73,0
27.487707,27.671192,48,86,0
27.671192,27.85468,44,63,0
27.85468,28.038164,41,63,0
28.038164,28.221651,38,72,0
28.221651,28.405136,41,63,0
28.405136,28.549368,46,69,0
28.405136,28.549368,38,58,0
28.597445,28.781494,46,78,0
28.597445,28.781494,39,66,0
28.781494,28.965542,43,60,0
28.965542,29.149591,39,60,0
29.149591,29.33086,36,63,0
29.33086,29.512129,41,58,0
29.149591,29.512129,32,53,0
29.512129,29.6559,44,63,0
29.703823,29.887873,34,69,0
29.887873,30.07192,39,58,0
30.07192,30.213877,43,58,0
30.261196,30.443567,34,63,0
30.443567,30.625938,41,57,0
30.625938,30.77348,46,57,0
30.822659,30.92102,39,73,0
31.01938,31.115843,51,49,0
31.01938,31.115843,55,62,0
31.212307,31.30877,55,49,0
31.212307,31.30877,51,49,0
31.212307,31.30877,58,62,0
31.405233,31.499573,51,49,0
31.405233,31.499573,55,49,0
31.405233,31.499573,63,62,0
31.405233,31.499573,58,49,0
31.593912,31.688251,55,49,0
31.593912,31.688251,51,49,0
31.593912,31.688251,63,62,0
31.593912,31.688251,58,49,0
31.78259,31.87693,55,49,0
31.78259,31.87693,58,49,0
31.78259,31.87693,63,62,0
31.78259,31.87693,51,49,0
31.97127,32.06561,51,56,0
31.97127,32.06561,63,70,0
31.97127,32.06561,55,56,0
31.97127,32.06561,58,56,0
32.15995,32.254288,55,49,0
32.15995,32.254288,58,49,0
32.15995,32.254288,63,62,0
32.15995,32.254288,51,49,0
32.34863,32.442966,51,49,0
32.34863,32.442966,55,49,0
32.34863,32.442966,63,62,0
32.34863,32.442966,58,49,0
32.537308,32.629616,51,49,0
32.537308,32.629616,56,49,0
32.537308,32.629616,53,49,0
32.537308,32.629616,62,62,0
32.537308,32.629616,58,49,0
32.721924,32.814228,51,49,0
32.721924,32.814228,58,49,0
32.721924,32.814228,53,49,0
32.721924,32.814228,62,62,0
32.721924,32.814228,56,49,0
32.906536,32.998844,51,49,0
32.906536,32.998844,58,49,0
32.906536,32.998844,53,49,0
32.906536,32.998844,62,62,0
32.906536,32.998844,56,49,0
33.099854,33.193604,55,57,0
33.099854,33.193604,51,57,0
33.099854,33.193604,63,72,0
33.099854,33.193604,58,57,0
33.287354,33.380814,55,49,0
33.287354,33.380814,58,49,0
33.287354,33.380814,63,62,0
33.287354,33.380814,51,49,0
33.47427,33.56773,51,49,0
33.47427,33.56773,63,62,0
33.47427,33.56773,55,49,0
33.47427,33.56773,58,49,0
33.661186,33.754646,55,49,0
33.661186,33.754646,58,49,0
33.661186,33.754646,63,62,0
33.661186,33.754646,51,49,0
33.848103,33.941563,51,49,0
33.848103,33.941563,55,49,0
33.848103,33.941563,63,62,0
33.848103,33.941563,58,49,0
34.03502,34.12848,55,49,0
34.03502,34.12848,51,49,0
34.03502,34.12848,63,62,0
34.03502,34.12848,58,49,0
34.23017,34.32392,55,55,0
34.23017,34.32392,58,55,0
34.23017,34.32392,63,69,0
34.23017,34.32392,51,55,0
34.41767,34.51142,51,48,0
34.41767,34.51142,63,61,0
34.41767,34.51142,55,48,0
34.41767,34.51142,58,48,0
34.60517,34.697765,55,48,0
34.60517,34.697765,58,48,0
34.60517,34.697765,63,61,0
34.60517,34.697765,51,48,0
34.790356,34.88295,51,48,0
34.790356,34.88295,53,48,0
34.790356,34.88295,58,61,0
34.790356,34.88295,56,48,0
34.975544,35.068134,53,48,0
34.975544,35.068134,51,48,0
34.975544,35.068134,58,61,0
34.975544,35.068134,56,48,0
35.16073,35.25332,53,48,0
35.16073,35.25332,56,48,0
35.16073,35.25332,58,61,0
35.16073,35.25332,51,48,0
35.36281,35.46117,39,73,0
35.55953,35.655994,55,62,0
35.55953,35.655994,51,49,0
35.752457,35.84892,55,49,0
35.752457,35.84892,58,62,0
35.752457,35.84892,51,49,0
35.94538,36.039722,55,49,0
35.94538,36.039722,58,49,0
35.94538,36.039722,63,62,0
35.94538,36.039722,51,49,0
36.13406,36.2284,51,49,0
36.13406,36.2284,63,62,0
36.13406,36.2284,55,49,0
36.13406,36.2284,58,49,0
36.32274,36.41708,55,49,0
36.32274,36.41708,58,49,0
36.32274,36.41708,63,62,0
36.32274,36.41708,51,49,0
36.511417,36.60576,51,56,0
36.511417,36.60576,55,56,0
36.511417,36.60576,63,70,0
36.511417,36.60576,58,56,0
36.7001,36.794437,63,62,0
36.7001,36.794437,58,49,0
36.7001,36.794437,51,49,0
36.7001,36.794437,55,49,0
36.88878,36.983116,63,62,0
36.88878,36.983116,55,49,0
36.88878,36.983116,51,49,0
36.88878,36.983116,58,49,0
37.077457,37.169765,56,49,0
37.077457,37.169765,51,49,0
37.077457,37.169765,62,62,0
37.077457,37.169765,53,49,0
37.077457,37.169765,58,49,0
37.262074,37.354378,58,49,0
37.262074,37.354378,51,49,0
37.262074,37.354378,62,62,0
37.262074,37.354378,53,49,0
37.262074,37.354378,56,49,0
37.446686,37.538994,58,49,0
37.446686,37.538994,51,49,0
37.446686,37.538994,62,62,0
37.446686,37.538994,53,49,0
37.446686,37.538994,56,49,0
37.640003,37.733753,55,57,0
37.640003,37.733753,63,72,0
37.640003,37.733753,51,57,0
37.640003,37.733753,58,57,0
37.827503,37.920963,55,49,0
37.827503,37.920963,63,62,0
37.827503,37.920963,58,49,0
37.827503,37.920963,51,49,0
38.01442,38.10788,51,49,0
38.01442,38.10788,63,62,0
38.01442,38.10788,58,49,0
38.01442,38.10788,55,49,0
38.201336,38.294796,63,62,0
38.201336,38.294796,58,49,0
38.201336,38.294796,51,49,0
38.201336,38.294796,55,49,0
38.388252,38.481712,63,62,0
38.388252,38.481712,55,49,0
38.388252,38.481712,51,49,0
38.388252,38.481712,58,49,0
38.57517,38.66863,55,49,0
38.57517,38.66863,63,62,0
38.57517,38.66863,51,49,0
38.57517,38.66863,58,49,0
38.77032,38.86407,58,69,0
38.77032,38.86407,51,55,0
38.77032,38.86407,55,55,0
38.95782,39.05157,51,48,0
38.95782,39.05157,55,48,0
38.95782,39.05157,58,61,0
39.14532,39.237915,51,48,0
39.14532,39.237915,58,61,0
39.14532,39.237915,55,48,0
39.330505,39.4231,51,48,0
39.330505,39.4231,53,61,0
39.515694,39.608284,41,48,0
39.515694,39.608284,53,61,0
39.515694,39.608284,51,48,0
39.70088,39.79347,51,48,0
39.70088,39.79347,41,48,0
39.70088,39.79347,53,61,0
39.897274,40.09145,46,80,0
39.897274,40.09145,34,80,0
40.4798,40.670883,58,75,0
41.05305,41.244133,61,81,0
41.626297,41.817383,66,74,0
42.199547,42.388226,61,79,0
42.765583,42.957893,58,74,0
43.342506,43.534813,54,78,0
43.91943,44.11551,49,70,0
44.507664,44.70184,33,80,0
44.507664,44.70184,45,80,0
45.09019,45.281273,57,75,0
45.66344,45.854523,60,81,0
46.236687,46.427773,65,74,0
46.809937,46.998615,60,79,0
47.375973,47.568283,57,74,0
47.952896,48.145203,53,78,0
48.52982,48.7259,48,70,0
49.118053,49.211803,58,34,0
49.118053,49.211803,66,40,0
49.118053,49.211803,61,34,0
49.305553,49.39226,66,35,0
49.305553,49.39226,61,29,0
49.305553,49.39226,58,29,0
49.478966,49.56567,66,35,0
49.478966,49.56567,58,29,0
49.478966,49.56567,61,29,0
49.652374,49.739082,61,29,0
49.652374,49.739082,66,36,0
49.652374,49.739082,58,29,0
49.825787,49.91249,66,36,0
49.825787,49.91249,61,30,0
49.825787,49.91249,58,30,0
49.999195,50.085903,58,30,0
49.999195,50.085903,66,36,0
49.999195,50.085903,61,30,0
50.172607,50.266357,66,42,0
50.172607,50.266357,61,36,0
50.172607,50.266357,58,36,0
50.360107,50.449394,66,37,0
50.360107,50.449394,58,31,0
50.360107,50.449394,61,31,0
50.538677,50.625637,61,31,0
50.538677,50.625637,66,37,0
50.538677,50.625637,58,31,0
50.712593,50.79955,66,38,0
50.712593,50.79955,61,31,0
50.712593,50.79955,58,31,0
50.886505,50.97346,58,29,0
50.886505,50.97346,66,35,0
50.886505,50.97346,61,29,0
51.060417,51.151882,66,35,0
51.060417,51.151882,61,29,0
51.060417,51.151882,58,29,0
51.243343,51.33132,66,40,0
51.243343,51.33132,58,34,0
51.243343,51.33132,61,34,0
51.419296,51.507275,61,29,0
51.419296,51.507275,66,35,0
51.419296,51.507275,58,29,0
51.59525,51.683228,66,35,0
51.59525,51.683228,61,29,0
51.59525,51.683228,58,29,0
51.771202,51.85918,58,29,0
51.771202,51.85918,66,35,0
51.771202,51.85918,61,29,0
51.947155,52.035133,66,35,0
51.947155,52.035133,61,29,0
51.947155,52.035133,58,29,0
52.123108,52.21402,66,35,0
52.123108,52.21402,58,29,0
52.123108,52.21402,61,29,0
52.304928,52.39239,61,34,0
52.304928,52.39239,66,40,0
52.304928,52.39239,58,34,0
52.479855,52.567318,66,35,0
52.479855,52.567318,61,29,0
52.479855,52.567318,58,29,0
52.65478,52.742245,58,29,0
52.65478,52.742245,66,35,0
52.65478,52.742245,61,29,0
52.82971,52.91717,66,35,0
52.82971,52.91717,61,29,0
52.82971,52.91717,58,29,0
53.004635,53.0921,66,35,0
53.004635,53.0921,58,29,0
53.004635,53.0921,61,29,0
53.17956,53.267025,61,29,0
53.17956,53.267025,64,35,0
53.17956,53.267025,58,29,0
53.35449,53.44824,65,40,0
53.35449,53.44824,60,34,0
53.35449,53.44824,57,34,0
53.54199,53.629707,57,29,0
53.54199,53.629707,65,35,0
53.54199,53.629707,60,29,0
53.71743,53.80515,60,29,0
53.71743,53.80515,57,29,0
53.71743,53.80515,65,35,0
53.892868,53.980587,65,36,0
53.892868,53.980587,60,29,0
53.892868,53.980587,57,29,0
54.068306,54.156025,65,36,0
54.068306,54.156025,57,30,0
54.068306,54.156025,60,30,0
54.243744,54.331463,60,30,0
54.243744,54.331463,65,36,0
54.243744,54.331463,57,30,0
54.41918,54.51293,65,42,0
54.41918,54.51293,60,36,0
54.41918,54.51293,57,36,0
54.60668,54.694145,60,31,0
54.60668,54.694145,57,31,0
54.60668,54.694145,65,37,0
54.78161,54.869072,65,37,0
54.78161,54.869072,60,31,0
54.78161,54.869072,57,31,0
54.956535,55.044,65,38,0
54.956535,55.044,57,31,0
54.956535,55.044,60,31,0
55.131462,55.218925,60,29,0
55.131462,55.218925,65,35,0
55.131462,55.218925,57,29,0
55.30639,55.393852,65,35,0
55.30639,55.393852,60,29,0
55.30639,55.393852,57,29,0
55.481316,55.575066,60,34,0
55.481316,55.575066,57,34,0
55.481316,55.575066,65,40,0
55.668816,55.75628,65,35,0
55.668816,55.75628,60,29,0
55.668816,55.75628,57,29,0
55.843742,55.93121,65,35,0
55.843742,55.93121,57,29,0
55.843742,55.93121,60,29,0
56.018673,56.106136,60,29,0
56.018673,56.106136,65,35,0
56.018673,56.106136,57,29,0
56.1936,56.281063,65,35,0
56.1936,56.281063,60,29,0
56.1936,56.281063,57,29,0
56.368526,56.45599,60,29,0
56.368526,56.45599,57,29,0
56.368526,56.45599,65,35,0
56.543453,56.637203,65,40,0
56.543453,56.637203,57,34,0
56.543453,56.637203,60,34,0
56.730953,56.819187,65,35,0
56.730953,56.819187,57,29,0
56.730953,56.819187,60,29,0
56.90742,56.99566,65,35,0
56.90742,56.99566,60,29,0
56.90742,56.99566,57,29,0
57.083893,57.260365,65,35,0
57.083893,57.260365,60,29,0
57.083893,57.260365,57,29,0
57.260365,57.436832,53,35,0
57.436832,57.62375,51,35,0
57.62375,57.991848,50,40,0
57.991848,58.17312,55,33,0
58.17312,58.535656,53,42,0
58.535656,58.716923,50,39,0
57.62375,58.716923,46,40,0
58.716923,59.075134,48,42,0
59.075134,59.25424,55,36,0
59.25424,59.61516,53,45,0
59.61516,59.799774,48,41,0
58.716923,59.799774,41,42,0
59.799774,60.164516,50,46,0
60.164516,60.34416,55,37,0
60.34416,60.703438,53,45,0
60.703438,60.88308,50,40,0
59.799774,60.88308,46,46,0
60.88308,61.24236,48,43,0
61.24236,61.422,55,34,0
61.422,61.78346,53,42,0
61.78346,61.96528,48,37,0
60.88308,61.96528,41,43,0
61.96528,62.05903,46,34,0
61.96528,62.05903,50,40,0
62.15278,62.243084,58,35,0
62.15278,62.243084,53,29,0
62.15278,62.243084,50,29,0
62.333023,62.42261,58,35,0
62.333023,62.42261,53,29,0
62.333023,62.42261,50,29,0
62.51177,62.600597,58,35,0
62.51177,62.600597,53,29,0
62.51177,62.600597,50,29,0
62.688988,62.77738,58,35,0
62.688988,62.77738,53,29,0
62.688988,62.77738,50,29,0
62.866085,62.95516,58,35,0
62.866085,62.95516,53,29,0
62.866085,62.95516,50,29,0
63.231472,63.32151,58,35,0
63.231472,63.32151,55,29,0
63.231472,63.32151,51,29,0
63.411263,63.50074,58,35,0
63.411263,63.50074,55,29,0
63.411263,63.50074,51,29,0
63.589943,63.678825,58,35,0
63.589943,63.678825,55,29,0
63.589943,63.678825,51,29,0
63.767586,63.85654,58,35,0
63.767586,63.85654,55,29,0
63.767586,63.85654,51,29,0
63.945606,64.03489,60,35,0
63.945606,64.03489,55,29,0
63.945606,64.03489,51,29,0
64.31183,64.402176,62,35,0
64.31183,64.402176,58,29,0
64.31183,64.402176,53,29,0
64.49224,64.581985,62,35,0
64.49224,64.581985,58,29,0
64.49224,64.581985,53,29,0
64.671455,64.76064,62,35,0
64.671455,64.76064,58,29,0
64.671455,64.76064,53,29,0
64.8495,64.93864,62,35,0
64.8495,64.93864,58,29,0
64.8495,64.93864,53,29,0
65.028175,65.11814,62,35,0
65.028175,65.11814,58,29,0
65.028175,65.11814,53,29,0
65.208534,65.29917,58,29,0
65.208534,65.29917,53,29,0
65.208534,65.29917,62,35,0
65.3898,65.480194,62,35,0
65.3898,65.480194,58,29,0
65.3898,65.480194,53,29,0
65.570305,65.66008,53,29,0
65.570305,65.66008,58,29,0
65.570305,65.66008,62,35,0
65.74958,65.84026,63,35,0
65.74958,65.84026,57,29,0
65.74958,65.84026,53,29,0
65.93044,66.01968,63,35,0
65.93044,66.01968,57,29,0
65.93044,66.01968,53,29,0
66.10953,66.20018,63,35,0
66.10953,66.20018,57,29,0
66.10953,66.20018,53,29,0
66.291084,66.65919,62,40,0
66.65919,66.840454,67,33,0
66.840454,67.20299,65,42,0
67.20299,67.38426,62,39,0
66.291084,67.38426,58,40,0
67.38426,67.74247,60,42,0
67.74247,67.92157,67,36,0
67.92157,68.28249,65,45,0
68.28249,68.46711,60,41,0
67.38426,68.46711,53,42,0
68.46711,68.831856,62,46,0
68.831856,69.01149,67,37,0
69.01149,69.37077,65,45,0
69.37077,69.550415,62,40,0
68.46711,69.550415,58,46,0
69.550415,69.9097,60,43,0
69.9097,70.08934,67,34,0
70.08934,70.4508,65,42,0
70.4508,70.632614,60,37,0
69.550415,70.632614,53,43,0
70.632614,70.726364,65,51,0
70.632614,70.726364,62,51,0
70.726364,70.820114,67,45,0
70.820114,70.91042,69,50,0
70.91042,71.00036,70,52,0
71.00036,71.06013,72,54,0
71.06013,71.119705,74,56,0
71.119705,71.1791,75,59,0
71.1791,71.26794,77,61,0
71.26794,71.35632,75,60,0
71.35632,71.44472,74,58,0
71.44472,71.533424,72,57,0
71.533424,71.6225,70,55,0
71.6225,71.71188,69,54,0
71.71188,71.80563,67,51,0
71.71188,71.80563,63,51,0
71.80563,71.89881,69,45,0
71.89881,71.988846,70,48,0
71.988846,72.0786,72,50,0
72.0786,72.1383,74,55,0
72.1383,72.19784,75,57,0
72.19784,72.25728,77,60,0
72.25728,72.34616,79,62,0
72.34616,72.43492,77,62,0
72.43492,72.4942,75,60,0
72.4942,72.55355,74,59,0
72.55355,72.61294,72,58,0
72.61294,72.67246,70,58,0
72.67246,72.73199,69,57,0
72.73199,72.79166,67,56,0
72.79166,72.88541,65,60,0
72.88541,72.97916,53,52,0
72.97916,73.06951,58,63,0
73.06951,73.15958,62,59,0
73.15958,73.24932,65,68,0
73.24932,73.33879,70,62,0
73.33879,73.43254,74,63,0
73.43254,73.52629,70,54,0
73.52629,73.61664,77,66,0
73.61664,73.70671,74,62,0
73.70671,73.796455,70,70,0
73.796455,73.88592,74,64,0
73.88592,73.94544,72,67,0
73.94544,74.00497,74,59,0
74.00497,74.06449,72,67,0
73.88592,74.06449,65,60,0
74.06449,74.124886,74,61,0
74.124886,74.18558,72,66,0
74.18558,74.24608,74,59,0
74.24608,74.30639,72,66,0
74.30639,74.366516,74,59,0
74.366516,74.42645,72,62,0
74.42645,74.48599,74,56,0
74.48599,74.54551,72,63,0
74.54551,74.605034,74,55,0
74.605034,74.66444,72,63,0
74.66444,74.72411,74,55,0
74.72411,74.78408,72,63,0
74.78408,74.84442,74,55,0
74.84442,74.90503,72,63,0
74.90503,74.96575,74,59,0
74.96575,75.05794,65,62,0
75.05794,75.14955,71,55,0
75.14955,75.240585,72,58,0
75.240585,75.33105,74,60,0
75.33105,75.42689,72,58,0
75.42689,75.51908,71,58,0
75.51908,75.60944,63,61,0
75.60944,75.69981,72,56,0
75.69981,75.79017,74,59,0
75.79017,75.88052,75,61,0
75.88052,75.97241,74,57,0
75.97241,76.06711,72,57,0
76.07171,76.16359,63,62,0
76.159004,76.25035,69,55,0
76.25035,76.3411,70,58,0
76.33734,76.42768,72,60,0
76.43142,76.52488,70,59,0
76.52488,76.61591,69,59,0
76.61591,76.705734,62,62,0
76.705734,76.795555,70,57,0
76.795555,76.885376,72,61,0
76.885376,76.97519,74,64,0
76.97519,77.06613,72,59,0
77.06613,77.15927,70,60,0
77.16392,77.25638,53,65,0
77.25178,77.34335,59,58,0
77.34335,77.43397,60,62,0
77.430214,77.51998,62,64,0
77.52371,77.6208,60,62,0
77.6208,77.71041,59,63,0
77.71041,77.7997,51,67,0
77.7997,77.888985,60,61,0
77.888985,77.978264,62,65,0
77.978264,78.06755,63,67,0
78.06755,78.15684,62,63,0
78.15684,78.25001,60,63,0
78.25447,78.34595,51,70,0
78.341385,78.432175,57,62,0
78.432175,78.52212,58,66,0
78.51839,78.607574,60,68,0
78.61128,78.70533,58,66,0
78.70533,78.79506,57,67,0
78.79506,78.88488,50,70,0
78.88488,78.9747,58,65,0
78.9747,79.06452,60,69,0
79.06452,79.15434,62,71,0
79.15434,79.24416,60,67,0
79.24416,79.33647,58,67,0
79.33647,79.42656,50,70,0
79.42656,79.51665,53,62,0
79.51665,79.60674,58,66,0
79.60674,79.69683,62,68,0
79.69683,79.78692,58,66,0
79.78692,79.88097,53,63,0
79.88097,79.97079,43,70,0
79.97079,80.0606,46,65,0
80.0606,80.15042,50,69,0
80.15042,80.24024,55,71,0
80.24024,80.33006,50,67,0
80.33006,80.41988,46,64,0
80.41988,80.50997,39,70,0
80.50997,80.60007,43,62,0
80.60007,80.690155,48,66,0
80.690155,80.78024,51,68,0
80.78024,80.87034,48,66,0
80.87034,80.96438,43,63,0
80.96438,81.0542,41,70,0
81.0542,81.14402,48,65,0
81.14402,81.23384,51,69,0
81.23384,81.32366,53,71,0
81.32366,81.41348,51,67,0
81.41348,81.5033,48,64,0
81.5033,81.59339,38,70,0
81.59339,81.68348,41,62,0
81.68348,81.77357,46,66,0
81.77357,81.86366,50,68,0
81.86366,81.95375,46,67,0
81.95375,82.0478,41,64,0
82.0478,82.13761,31,72,0
82.13761,82.22743,34,67,0
82.22743,82.31725,38,72,0
82.31725,82.407074,43,74,0
82.407074,82.496895,38,71,0
82.496895,82.586716,34,67,0
82.586716,82.6768,39,74,0
82.6768,82.7669,43,66,0
82.7669,82.85699,48,71,0
82.85699,82.947075,43,74,0
82.947075,83.13121,39,72,0
83.13121,83.22103,29,77,0
83.22103,83.31085,36,72,0
83.31085,83.40067,39,77,0
83.40067,83.49049,41,80,0
83.49049,83.580315,29,75,0
83.580315,83.67525,41,72,0
83.67525,83.766,34,75,0
83.85697,83.94738,46,75,0
84.03722,84.12677,50,77,0
84.03722,84.12677,46,64,0
84.216324,84.57986,53,83,0
84.216324,84.57986,50,70,0
84.216324,84.57986,46,70,0
84.57986,84.66968,53,71,0
84.57986,84.66968,41,60,0
84.57986,84.66968,48,60,0
84.76976,84.86037,50,67,0
84.76976,84.86037,53,79,0
84.76976,84.86037,46,67,0
84.950645,85.0406,53,75,0
84.950645,85.0406,50,63,0
84.950645,85.0406,46,63,0
85.13023,85.21955,50,62,0
85.13023,85.21955,46,62,0
85.13023,85.21955,53,74,0
85.30884,85.670685,53,82,0
85.30884,85.670685,50,69,0
85.30884,85.670685,46,69,0
85.670685,85.76024,53,75,0
85.670685,85.76024,41,63,0
85.670685,85.76024,48,63,0
85.859375,85.94994,50,64,0
85.859375,85.94994,53,76,0
85.859375,85.94994,46,64,0
86.04013,86.129906,53,75,0
86.04013,86.129906,50,63,0
86.04013,86.129906,46,63,0
86.219315,86.308365,50,61,0
86.219315,86.308365,46,61,0
86.219315,86.308365,53,73,0
86.397385,86.7581,53,83,0
86.397385,86.7581,50,70,0
86.397385,86.7581,46,70,0
86.7581,86.84766,53,75,0
86.7581,86.84766,41,63,0
86.7581,86.84766,48,63,0
86.94969,87.31005,53,69,0
86.94969,87.31005,46,69,0
86.94969,87.31005,58,82,0
86.94969,87.31005,50,69,0
87.490234,87.85059,53,69,0
87.490234,87.85059,46,69,0
87.490234,87.85059,50,69,0
87.490234,87.85059,58,82,0
88.03078,88.391136,46,69,0
88.03078,88.391136,53,69,0
88.03078,88.391136,58,82,0
88.03078,88.391136,50,69,0
89.111855,89.47883,70,40,0
89.111855,89.47883,67,34,0
89.111855,89.47883,63,34,0
89.662315,90.02928,70,34,0
89.662315,90.02928,65,28,0
89.662315,90.02928,68,28,0
89.662315,90.02928,58,28,0
90.22159,90.59082,67,34,0
90.22159,90.59082,70,40,0
90.22159,90.59082,63,34,0
91.14467,91.29645,72,34,0
91.14467,91.29645,64,28,0
91.14467,91.29645,67,28,0
91.14467,91.29645,70,28,0
91.347046,91.71401,72,40,0
91.347046,91.71401,65,34,0
91.347046,91.71401,68,34,0
91.8975,92.26447,67,28,0
91.8975,92.26447,72,34,0
91.8975,92.26447,70,28,0
91.8975,92.26447,60,28,0
92.45495,92.82192,72,40,0
92.45495,92.82192,68,34,0
92.45495,92.82192,65,34,0
93.37238,93.51661,70,37,0
93.37238,93.51661,65,31,0
93.37238,93.51661,62,31,0
93.37238,93.51661,68,31,0
93.56469,93.932785,63,33,0
93.56469,93.932785,70,39,0
93.56469,93.932785,67,33,0
94.11684,94.48493,65,35,0
94.11684,94.48493,60,29,0
94.11684,94.48493,56,29,0
94.67663,95.04472,67,42,0
94.67663,95.04472,58,35,0
94.67663,95.04472,63,35,0
95.234,95.605515,62,33,0
95.234,95.605515,65,39,0
95.234,95.605515,58,33,0
95.605515,95.76122,58,39,0
95.813126,95.99661,58,49,0
95.99661,96.1801,55,49,0
96.1801,96.36359,51,42,0
96.36359,96.54485,50,49,0
96.54485,96.72612,53,45,0
96.72612,96.86653,58,45,0
96.914925,97.09954,58,51,0
97.09954,97.28332,55,47,0
97.28332,97.42115,51,47,0
97.467094,97.65087,51,52,0
97.65087,97.83465,55,46,0
97.83465,97.98317,60,60,0
97.83465,97.98317,52,49,0
98.03267,98.216156,53,53,0
98.03267,98.216156,60,66,0
98.216156,98.39964,56,53,0
98.39964,98.58313,53,53,0
98.58313,98.764946,52,59,0
98.764946,98.94676,55,53,0
98.94676,99.08757,60,58,0
99.13692,99.3204,60,70,0
99.3204,99.50388,56,56,0
99.50388,99.68737,53,57,0
99.68737,99.87086,50,64,0
99.87086,100.054344,53,58,0
100.054344,100.19857,58,63,0
100.054344,100.19857,50,53,0
100.24665,100.4307,51,61,0
100.24665,100.4307,58,72,0
100.4307,100.614746,55,56,0
100.614746,100.7988,51,57,0
100.7988,100.980064,48,59,0
100.7988,100.980064,44,50,0
100.980064,101.15999,53,55,0
101.15999,101.30376,56,55,0
101.351685,101.53573,46,61,0
101.53573,101.71978,51,56,0
101.71978,101.86173,55,56,0
101.90906,102.09142,46,62,0
102.09142,102.27189,50,56,0
102.27189,102.419426,46,56,0
102.27189,102.419426,58,56,0
102.468605,102.65209,46,63,0
102.65209,102.83558,43,63,0
102.83558,103.019066,39,55,0
103.019066,103.20033,38,63,0
103.20033,103.38161,41,57,0
103.38161,103.52202,46,57,0
103.570404,103.75502,46,63,0
103.75502,103.93964,43,58,0
103.93964,104.07747,39,58,0
104.12341,104.30719,39,63,0
104.30719,104.49097,43,55,0
104.49097,104.63949,48,70,0
104.49097,104.63949,40,58,0
104.68899,104.872475,41,63,0
104.68899,104.872475,48,78,0
104.872475,105.05596,44,63,0
105.05596,105.23945,41,63,0
105.23945,105.420456,40,69,0
105.420456,105.60146,43,62,0
105.60146,105.74226,48,73,0
105.79161,105.9751,48,86,0
105.9751,106.15858,44,63,0
106.15858,106.342064,41,63,0
106.342064,106.52417,38,72,0
106.52417,106.706276,41,63,0
106.706276,106.85051,46,69,0
106.706276,106.85051,38,58,0
106.89858,107.082634,46,78,0
106.89858,107.082634,39,66,0
107.082634,107.266685,43,60,0
107.266685,107.45073,39,60,0
107.45073,107.631996,36,63,0
107.631996,107.81327,41,58,0
107.45073,107.81327,32,53,0
107.81327,107.95704,44,63,0
108.00496,108.18762,34,69,0
108.18762,108.370285,39,58,0
108.370285,108.51224,43,58,0
108.559555,108.74193,34,63,0
108.74193,108.9243,41,57,0
108.9243,109.07184,46,57,0
109.12102,109.21938,39,73,0
109.31774,109.41421,51,49,0
109.31774,109.41421,55,62,0
109.510666,109.60713,55,49,0
109.510666,109.60713,51,49,0
109.510666,109.60713,58,62,0
109.70359,109.797935,51,49,0
109.70359,109.797935,55,49,0
109.70359,109.797935,63,62,0
109.70359,109.797935,58,49,0
109.89227,109.98661,55,49,0
109.89227,109.98661,51,49,0
109.89227,109.98661,63,62,0
109.89227,109.98661,58,49,0
110.08095,110.17529,55,49,0
110.08095,110.17529,58,49,0
110.08095,110.17529,63,62,0
110.08095,110.17529,51,49,0
110.26963,110.362946,51,56,0
110.26963,110.362946,63,70,0
110.26963,110.362946,55,56,0
110.26963,110.362946,58,56,0
110.45627,110.54958,55,49,0
110.45627,110.54958,58,49,0
110.45627,110.54958,63,62,0
110.45627,110.54958,51,49,0
110.64291,110.73622,51,49,0
110.64291,110.73622,55,49,0
110.64291,110.73622,63,62,0
110.64291,110.73622,58,49,0
110.829544,110.92185,51,49,0
110.829544,110.92185,56,49,0
110.829544,110.92185,53,49,0
110.829544,110.92185,62,62,0
110.829544,110.92185,58,49,0
111.01416,111.10646,51,49,0
111.01416,111.10646,58,49,0
111.01416,111.10646,53,49,0
111.01416,111.10646,62,62,0
111.01416,111.10646,56,49,0
111.19877,111.29108,51,49,0
111.19877,111.29108,58,49,0
111.19877,111.29108,53,49,0
111.19877,111.29108,62,62,0
111.19877,111.29108,56,49,0
111.39209,111.48584,55,57,0
111.39209,111.48584,51,57,0
111.39209,111.48584,63,72,0
111.39209,111.48584,58,57,0
111.57959,111.67305,55,49,0
111.57959,111.67305,58,49,0
111.57959,111.67305,63,62,0
111.57959,111.67305,51,49,0
111.7665,111.85996,51,49,0
111.7665,111.85996,63,62,0
111.7665,111.85996,55,49,0
111.7665,111.85996,58,49,0
111.95342,112.04559,55,49,0
111.95342,112.04559,58,49,0
111.95342,112.04559,63,62,0
111.95342,112.04559,51,49,0
112.137764,112.229935,51,49,0
112.137764,112.229935,55,49,0
112.137764,112.229935,63,62,0
112.137764,112.229935,58,49,0
112.322105,112.414276,55,49,0
112.322105,112.414276,51,49,0
112.322105,112.414276,63,62,0
112.322105,112.414276,58,49,0
112.515976,112.609726,55,55,0
112.515976,112.609726,58,55,0
112.515976,112.609726,63,69,0
112.515976,112.609726,51,55,0
112.703476,112.797226,51,48,0
112.703476,112.797226,63,61,0
112.703476,112.797226,55,48,0
112.703476,112.797226,58,48,0
112.890976,112.98357,55,48,0
112.890976,112.98357,58,48,0
112.890976,112.98357,63,61,0
112.890976,112.98357,51,48,0
113.07616,113.16833,51,48,0
113.07616,113.16833,53,48,0
113.07616,113.16833,58,61,0
113.07616,113.16833,56,48,0
113.260506,113.35268,53,48,0
113.260506,113.35268,51,48,0
113.260506,113.35268,58,61,0
113.260506,113.35268,56,48,0
113.44485,113.53702,53,48,0
113.44485,113.53702,56,48,0
113.44485,113.53702,58,61,0
113.44485,113.53702,51,48,0
113.64651,113.744865,39,73,0
113.84322,113.93969,55,62,0
113.84322,113.93969,51,49,0
114.036156,114.132614,55,49,0
114.036156,114.132614,58,62,0
114.036156,114.132614,51,49,0
114.22908,114.32342,55,49,0
114.22908,114.32342,58,49,0
114.22908,114.32342,63,62,0
114.22908,114.32342,51,49,0
114.417755,114.5121,51,49,0
114.417755,114.5121,63,62,0
114.417755,114.5121,55,49,0
114.417755,114.5121,58,49,0
114.60644,114.700775,55,49,0
114.60644,114.700775,58,49,0
114.60644,114.700775,63,62,0
114.60644,114.700775,51,49,0
114.79511,114.888725,51,56,0
114.79511,114.888725,55,56,0
114.79511,114.888725,63,70,0
114.79511,114.888725,58,56,0
114.98234,115.07594,63,62,0
114.98234,115.07594,58,49,0
114.98234,115.07594,51,49,0
114.98234,115.07594,55,49,0
115.169556,115.26316,63,62,0
115.169556,115.26316,55,49,0
115.169556,115.26316,51,49,0
115.169556,115.26316,58,49,0
115.35677,115.44908,56,49,0
115.35677,115.44908,51,49,0
115.35677,115.44908,62,62,0
115.35677,115.44908,53,49,0
115.35677,115.44908,58,49,0
115.54139,115.6337,58,49,0
115.54139,115.6337,51,49,0
115.54139,115.6337,62,62,0
115.54139,115.6337,53,49,0
115.54139,115.6337,56,49,0
115.726006,115.81831,58,49,0
115.726006,115.81831,51,49,0
115.726006,115.81831,62,62,0
115.726006,115.81831,53,49,0
115.726006,115.81831,56,49,0
115.91932,116.01307,55,57,0
115.91932,116.01307,63,72,0
115.91932,116.01307,51,57,0
115.91932,116.01307,58,57,0
116.10682,116.20028,55,49,0
116.10682,116.20028,63,62,0
116.10682,116.20028,58,49,0
116.10682,116.20028,51,49,0
116.29374,116.3872,51,49,0
116.29374,116.3872,63,62,0
116.29374,116.3872,58,49,0
116.29374,116.3872,55,49,0
116.48065,116.57311,63,62,0
116.48065,116.57311,58,49,0
116.48065,116.57311,51,49,0
116.48065,116.57311,55,49,0
116.665565,116.75802,63,62,0
116.665565,116.75802,55,49,0
116.665565,116.75802,51,49,0
116.665565,116.75802,58,49,0
116.85048,116.94293,55,49,0
116.85048,116.94293,63,62,0
116.85048,116.94293,51,49,0
116.85048,116.94293,58,49,0
117.044624,117.138374,58,69,0
117.044624,117.138374,51,55,0
117.044624,117.138374,55,55,0
117.232124,117.325874,51,48,0
117.232124,117.325874,55,48,0
117.232124,117.325874,58,61,0
117.419624,117.51222,51,48,0
117.419624,117.51222,58,61,0
117.419624,117.51222,55,48,0
117.60481,117.6974,51,48,0
117.60481,117.6974,53,61,0
117.78999,117.88259,41,48,0
117.78999,117.88259,53,61,0
117.78999,117.88259,51,48,0
117.97518,118.06777,51,48,0
117.97518,118.06777,41,48,0
117.97518,118.06777,53,61,0
118.17158,118.36575,46,80,0
118.17158,118.36575,34,80,0
118.754105,118.94519,58,75,0
119.327354,119.51844,61,81,0
119.900604,120.09168,66,74,0
120.473854,120.66166,61,79,0
121.03727,121.229576,58,74,0
121.61419,121.806496,54,78,0
122.19111,122.38882,49,70,0
122.78423,122.97841,33,80,0
122.78423,122.97841,45,80,0
123.36676,123.55784,57,75,0
123.94,124.13109,60,81,0
124.51325,124.70434,65,74,0
125.0865,125.275185,60,79,0
125.65254,125.84485,57,74,0
126.22946,126.42177,53,78,0
126.80639,127.002464,48,70,0
127.39462,127.48837,58,34,0
127.39462,127.48837,66,40,0
127.39462,127.48837,61,34,0
127.58212,127.66858,66,35,0
127.58212,127.66858,61,29,0
127.58212,127.66858,58,29,0
127.755035,127.841484,66,35,0
127.755035,127.841484,58,29,0
127.755035,127.841484,61,29,0
127.92794,128.0144,61,29,0
127.92794,128.0144,66,36,0
127.92794,128.0144,58,29,0
128.10085,128.18633,66,36,0
128.10085,128.18633,61,30,0
128.10085,128.18633,58,30,0
128.27179,128.35727,58,30,0
128.27179,128.35727,66,36,0
128.27179,128.35727,61,30,0
128.44273,128.53648,66,42,0
128.44273,128.53648,61,36,0
128.44273,128.53648,58,36,0
128.63023,128.719,66,37,0
128.63023,128.719,58,31,0
128.63023,128.719,61,31,0
128.80775,128.89546,61,31,0
128.80775,128.89546,66,37,0
128.80775,128.89546,58,31,0
128.98318,129.06964,66,38,0
128.98318,129.06964,61,31,0
128.98318,129.06964,58,31,0
129.1561,129.24255,58,29,0
129.1561,129.24255,66,35,0
129.1561,129.24255,61,29,0
129.32901,129.42047,66,35,0
129.32901,129.42047,61,29,0
129.32901,129.42047,58,29,0
129.51193,129.59966,66,40,0
129.51193,129.59966,58,34,0
129.51193,129.59966,61,34,0
129.68738,129.77509,61,29,0
129.68738,129.77509,66,35,0
129.68738,129.77509,58,29,0
129.86281,129.95053,66,35,0
129.86281,129.95053,61,29,0
129.86281,129.95053,58,29,0
130.03825,130.12495,58,29,0
130.03825,130.12495,66,35,0
130.03825,130.12495,61,29,0
130.21165,130.29837,66,35,0
130.21165,130.29837,61,29,0
130.21165,130.29837,58,29,0
130.38507,130.47598,66,35,0
130.38507,130.47598,58,29,0
130.38507,130.47598,61,29,0
130.5669,130.65436,61,34,0
130.5669,130.65436,66,40,0
130.5669,130.65436,58,34,0
130.74182,130.82928,66,35,0
130.74182,130.82928,61,29,0
130.74182,130.82928,58,29,0
130.91675,131.00421,58,29,0
130.91675,131.00421,66,35,0
130.91675,131.00421,61,29,0
131.09167,131.17787,66,35,0
131.09167,131.17787,61,29,0
131.09167,131.17787,58,29,0
131.26408,131.3503,66,35,0
131.26408,131.3503,58,29,0
131.26408,131.3503,61,29,0
131.4365,131.5227,61,29,0
131.4365,131.5227,64,35,0
131.4365,131.5227,58,29,0
131.60892,131.70267,65,40,0
131.60892,131.70267,60,34,0
131.60892,131.70267,57,34,0
131.79642,131.88464,57,29,0
131.79642,131.88464,65,35,0
131.79642,131.88464,60,29,0
131.97289,132.06111,60,29,0
131.97289,132.06111,57,29,0
131.97289,132.06111,65,35,0
132.14935,132.23581,65,36,0
132.14935,132.23581,60,29,0
132.14935,132.23581,57,29,0
132.32227,132.40872,65,36,0
132.32227,132.40872,57,30,0
132.32227,132.40872,60,30,0
132.49518,132.58163,60,30,0
132.49518,132.58163,65,36,0
132.49518,132.58163,57,30,0
132.66809,132.76184,65,42,0
132.66809,132.76184,60,36,0
132.66809,132.76184,57,36,0
132.85559,132.94408,60,31,0
132.85559,132.94408,57,31,0
132.85559,132.94408,65,37,0
133.03258,133.12106,65,37,0
133.03258,133.12106,60,31,0
133.03258,133.12106,57,31,0
133.20956,133.29807,65,38,0
133.20956,133.29807,57,31,0
133.20956,133.29807,60,31,0
133.38655,133.47327,60,29,0
133.38655,133.47327,65,35,0
133.38655,133.47327,57,29,0
133.55997,133.64667,65,35,0
133.55997,133.64667,60,29,0
133.55997,133.64667,57,29,0
133.73338,133.82713,60,34,0
133.73338,133.82713,57,34,0
133.73338,133.82713,65,40,0
133.92088,134.00885,65,35,0
133.92088,134.00885,60,29,0
133.92088,134.00885,57,29,0
134.09683,134.18481,65,35,0
134.09683,134.18481,57,29,0
134.09683,134.18481,60,29,0
134.27278,134.36076,60,29,0
134.27278,134.36076,65,35,0
134.27278,134.36076,57,29,0
134.44873,134.53645,65,35,0
134.44873,134.53645,60,29,0
134.44873,134.53645,57,29,0
134.62418,134.7119,60,29,0
134.62418,134.7119,57,29,0
134.62418,134.7119,65,35,0
134.79962,134.89337,65,40,0
134.79962,134.89337,57,34,0
134.79962,134.89337,60,34,0
134.98712,135.07535,65,35,0
134.98712,135.07535,57,29,0
134.98712,135.07535,60,29,0
135.16359,135.25182,65,35,0
135.16359,135.25182,60,29,0
135.16359,135.25182,57,29,0
135.34006,135.51653,65,35,0
135.34006,135.51653,60,29,0
135.34006,135.51653,57,29,0
135.51653,135.693,53,35,0
135.693,135.87991,51,35,0
135.87991,136.24802,50,40,0
136.24802,136.42928,55,33,0
136.42928,136.79182,53,42,0
136.79182,136.97308,50,39,0
135.87991,136.97308,46,40,0
136.97308,137.3313,48,42,0
137.3313,137.5104,55,36,0
137.5104,137.87132,53,45,0
137.87132,138.05594,48,41,0
136.97308,138.05594,41,42,0
138.05594,138.42068,50,46,0
138.42068,138.60033,55,37,0
138.60033,138.9596,53,45,0
138.9596,139.13924,50,40,0
138.05594,139.13924,46,46,0
139.13924,139.49852,48,43,0
139.49852,139.67816,55,34,0
139.67816,140.03963,53,42,0
140.03963,140.22144,48,37,0
139.13924,140.22144,41,43,0
140.22144,140.31519,46,34,0
140.22144,140.31519,50,40,0
140.40894,140.49925,58,35,0
140.40894,140.49925,53,29,0
140.40894,140.49925,50,29,0
140.58919,140.67877,58,35,0
140.58919,140.67877,53,29,0
140.58919,140.67877,50,29,0
140.76793,140.85677,58,35,0
140.76793,140.85677,53,29,0
140.76793,140.85677,50,29,0
140.94514,141.03354,58,35,0
140.94514,141.03354,53,29,0
140.94514,141.03354,50,29,0
141.12225,141.21132,58,35,0
141.12225,141.21132,53,29,0
141.12225,141.21132,50,29,0
141.48764,141.57767,58,35,0
141.48764,141.57767,55,29,0
141.48764,141.57767,51,29,0
141.66742,141.7569,58,35,0
141.66742,141.7569,55,29,0
141.66742,141.7569,51,29,0
141.8461,141.93498,58,35,0
141.8461,141.93498,55,29,0
141.8461,141.93498,51,29,0
142.02374,142.1127,58,35,0
142.02374,142.1127,55,29,0
142.02374,142.1127,51,29,0
142.20177,142.29105,60,35,0
142.20177,142.29105,55,29,0
142.20177,142.29105,51,29,0
142.568,142.65834,62,35,0
142.568,142.65834,58,29,0
142.568,142.65834,53,29,0
142.7484,142.83815,62,35,0
142.7484,142.83815,58,29,0
142.7484,142.83815,53,29,0
142.92761,143.0168,62,35,0
142.92761,143.0168,58,29,0
142.92761,143.0168,53,29,0
143.10567,143.1948,62,35,0
143.10567,143.1948,58,29,0
143.10567,143.1948,53,29,0
143.28435,143.3743,62,35,0
143.28435,143.3743,58,29,0
143.28435,143.3743,53,29,0
143.46469,143.55533,58,29,0
143.46469,143.55533,53,29,0
143.46469,143.55533,62,35,0
143.64597,143.73636,62,35,0
143.64597,143.73636,58,29,0
143.64597,143.73636,53,29,0
143.82646,143.91624,53,29,0
143.82646,143.91624,58,29,0
143.82646,143.91624,62,35,0
144.0064,144.0983,63,35,0
144.0064,144.0983,57,29,0
144.0064,144.0983,53,29,0
144.18716,144.27632,63,35,0
144.18716,144.27632,57,29,0
144.18716,144.27632,53,29,0
144.36617,144.45682,63,35,0
144.36617,144.45682,57,29,0
144.36617,144.45682,53,29,0
144.54773,144.91583,62,40,0
144.91583,145.09709,67,33,0
145.09709,145.45963,65,42,0
145.45963,145.6409,62,39,0
144.54773,145.6409,58,40,0
145.6409,145.99911,60,42,0
145.99911,146.1769,67,36,0
146.1769,146.5365,65,45,0
146.5365,146.72112,60,41,0
145.6409,146.72112,53,42,0
146.72112,147.08586,62,46,0
147.08586,147.2655,67,37,0
147.2655,147.62479,65,45,0
147.62479,147.80443,62,40,0
146.72112,147.80443,58,46,0
147.80443,148.16212,60,43,0
148.16212,148.34204,67,34,0
148.34204,148.70378,65,42,0
148.70378,148.8856,60,37,0
147.80443,148.8856,53,43,0
148.8856,148.97935,65,51,0
148.8856,148.97935,62,51,0
148.97935,149.0731,67,45,0
149.0731,149.1634,69,50,0
149.1634,149.25334,70,52,0
149.25334,149.31311,72,54,0
149.31311,149.3727,74,56,0
149.3727,149.43208,75,59,0
149.43208,149.52092,77,61,0
149.52092,149.60931,75,60,0
149.60931,149.69771,74,58,0
149.69771,149.7864,72,57,0
149.7864,149.87547,70,55,0
149.87547,149.96487,69,54,0
149.96487,150.05862,67,51,0
149.96487,150.05862,63,51,0
150.05862,150.1518,69,45,0
150.1518,150.24184,70,48,0
150.24184,150.33159,72,50,0
150.33159,150.39128,74,55,0
150.39128,150.45082,75,57,0
150.45082,150.51027,77,60,0
150.51027,150.59915,79,62,0
150.59915,150.68791,77,62,0
150.68791,150.7472,75,60,0
150.7472,150.80653,74,59,0
150.80653,150.86592,72,58,0
150.86592,150.92545,70,58,0
150.92545,150.98497,69,57,0
150.98497,151.04465,67,56,0
151.04465,151.1384,65,60,0
151.1384,151.23215,53,52,0
151.23215,151.3225,58,63,0
151.3225,151.41257,62,59,0
151.41257,151.5023,65,68,0
151.5023,151.59178,70,62,0
151.59178,151.68553,74,63,0
151.68553,151.77928,70,54,0
151.77928,151.86963,77,66,0
151.86963,151.95969,74,62,0
151.95969,152.04944,70,70,0
152.04944,152.1389,74,64,0
152.1389,152.19843,72,67,0
152.19843,152.25795,74,59,0
152.25795,152.31747,72,67,0
152.1389,152.31747,65,60,0
152.31747,152.37787,74,61,0
152.37787,152.43857,72,66,0
152.43857,152.49907,74,59,0
152.49907,152.55937,72,66,0
152.55937,152.6195,74,59,0
152.6195,152.67944,72,62,0
152.67944,152.73897,74,56,0
152.73897,152.7985,72,63,0
152.7985,152.85802,74,55,0
152.85802,152.91742,72,63,0
152.91742,152.9771,74,55,0
152.9771,153.03706,72,63,0
153.03706,153.09741,74,55,0
153.09741,153.15802,72,63,0
153.15802,153.21873,74,59,0
153.21873,153.31091,65,62,0
153.31091,153.40254,71,55,0
153.40254,153.49358,72,58,0
153.49358,153.58403,74,60,0
153.58403,153.6816,72,58,0
153.6816,153.77435,71,58,0
153.77435,153.86472,63,61,0
153.86472,153.95508,72,56,0
153.95508,154.04544,74,59,0
154.04544,154.1358,75,61,0
154.1358,154.22769,74,57,0
154.22769,154.32239,72,57,0
154.327,154.41887,63,62,0
154.41429,154.50563,69,55,0
154.50563,154.59639,70,58,0
154.59262,154.68295,72,60,0
154.6867,154.7809,70,59,0
154.7809,154.87218,69,59,0
154.87218,154.96199,62,62,0
154.96199,155.05182,70,57,0
155.05182,155.14163,72,61,0
155.14163,155.23146,74,64,0
155.23146,155.32239,72,59,0
155.32239,155.41554,70,60,0
155.42018,155.51265,53,65,0
155.50804,155.59961,59,58,0
155.59961,155.69023,60,62,0
155.68648,155.77625,62,64,0
155.77998,155.87706,60,62,0
155.87706,155.96667,59,63,0
155.96667,156.05595,51,67,0
156.05595,156.14525,60,61,0
156.14525,156.23453,62,65,0
156.23453,156.32382,63,67,0
156.32382,156.4131,62,63,0
156.4131,156.50627,60,63,0
156.51074,156.60222,51,70,0
156.59766,156.68845,57,62,0
156.68845,156.77838,58,66,0
156.77464,156.86385,60,68,0
156.86755,156.9616,58,66,0
156.9616,157.05133,57,67,0
157.05133,157.14114,50,70,0
157.14114,157.23097,58,65,0
157.23097,157.32079,60,69,0
157.32079,157.41061,62,71,0
157.41061,157.50043,60,67,0
157.50043,157.59273,58,67,0
157.59273,157.68283,50,70,0
157.68283,157.77292,53,62,0
157.77292,157.86234,58,66,0
157.86234,157.95177,62,68,0
157.95177,158.04118,58,66,0
158.04118,158.13522,53,63,0
158.13522,158.22493,43,70,0
158.22493,158.31462,46,65,0
158.31462,158.40431,50,69,0
158.40431,158.494,55,71,0
158.494,158.5837,50,67,0
158.5837,158.67339,46,64,0
158.67339,158.76347,39,70,0
158.76347,158.85356,43,62,0
158.85356,158.94365,48,66,0
158.94365,159.03374,51,68,0
159.03374,159.12383,48,66,0
159.12383,159.21788,43,63,0
159.21788,159.3077,41,70,0
159.3077,159.3975,48,65,0
159.3975,159.48734,51,69,0
159.48734,159.57715,53,71,0
159.57715,159.66698,51,67,0
159.66698,159.75679,48,64,0
159.75679,159.84622,38,70,0
159.84622,159.93564,41,62,0
159.93564,160.02507,46,66,0
160.02507,160.11449,50,68,0
160.11449,160.20392,46,67,0
160.20392,160.29796,41,64,0
160.29796,160.38779,31,72,0
160.38779,160.4776,34,67,0
160.4776,160.56741,38,72,0
160.56741,160.65724,43,74,0
160.65724,160.74706,38,71,0
160.74706,160.83688,34,67,0
160.83688,160.92697,39,74,0
160.92697,161.01706,43,66,0
161.01706,161.10715,48,71,0
161.10715,161.19724,43,74,0
161.19724,161.38138,39,72,0
161.38138,161.47119,29,77,0
161.47119,161.56102,36,72,0
161.56102,161.65083,39,77,0
161.65083,161.74066,41,80,0
161.74066,161.83047,29,75,0
161.83047,161.92542,41,72,0
161.92542,162.01616,34,75,0
162.10713,162.19754,46,75,0
162.28738,162.3768,50,77,0
162.28738,162.3768,46,64,0
162.46623,162.82964,53,83,0
162.46623,162.82964,50,70,0
162.46623,162.82964,46,70,0
162.82964,162.91945,53,71,0
162.82964,162.91945,41,60,0
162.82964,162.91945,48,60,0
163.01955,163.11015,50,67,0
163.01955,163.11015,53,79,0
163.01955,163.11015,46,67,0
163.20042,163.29039,53,75,0
163.20042,163.29039,50,63,0
163.20042,163.29039,46,63,0
163.38002,163.46933,50,62,0
163.38002,163.46933,46,62,0
163.38002,163.46933,53,74,0
163.55861,163.92046,53,82,0
163.55861,163.92046,50,69,0
163.55861,163.92046,46,69,0
163.92046,164.01001,53,75,0
163.92046,164.01001,41,63,0
163.92046,164.01001,48,63,0
164.10916,164.19972,50,64,0
164.10916,164.19972,53,76,0
164.10916,164.19972,46,64,0
164.28992,164.37968,53,75,0
164.28992,164.37968,50,63,0
164.28992,164.37968,46,63,0
164.4691,164.55814,50,61,0
164.4691,164.55814,46,61,0
164.4691,164.55814,53,73,0
164.64716,165.00787,53,83,0
164.64716,165.00787,50,70,0
164.64716,165.00787,46,70,0
165.00787,165.09743,53,75,0
165.00787,165.09743,41,63,0
165.00787,165.09743,48,63,0
165.19948,165.60764,53,69,0
165.19948,165.60764,46,69,0
165.19948,165.60764,58,82,0
165.19948,165.60764,50,69,0
165.81172,166.21988,53,69,0
165.81172,166.21988,46,69,0
165.81172,166.21988,50,69,0
165.81172,166.21988,58,82,0
166.42397,166.83212,58,82,0
166.42397,166.83212,46,69,0
166.42397,166.83212,50,69,0
166.42397,166.83212,53,69,0
168.17903,168.30984,58,56,0
168.35345,168.44168,54,45,0
168.52992,168.62056,51,45,0
168.7112,168.84265,46,51,0
168.8869,168.97539,42,45,0
169.06389,169.15237,39,45,0
169.94884,170.03734,63,43,0
169.94884,170.03734,66,51,0
170.12584,170.21432,63,43,0
170.12584,170.21432,66,51,0
170.30283,170.39238,66,55,0
170.30283,170.39238,63,46,0
170.48193,170.57147,66,51,0
170.48193,170.57147,63,43,0
170.66103,170.75278,63,43,0
170.66103,170.75278,66,51,0
170.84451,170.93275,68,59,0
170.84451,170.93275,63,50,0
170.84451,170.93275,66,50,0
171.02098,171.10922,68,51,0
171.02098,171.10922,63,43,0
171.02098,171.10922,66,43,0
171.19746,171.28569,66,43,0
171.19746,171.28569,68,51,0
171.19746,171.28569,63,43,0
171.37393,171.46216,65,47,0
171.37393,171.46216,68,56,0
171.37393,171.46216,61,47,0
171.5504,171.63864,61,44,0
171.5504,171.63864,68,52,0
171.5504,171.63864,65,44,0
171.72687,171.81511,68,32,0
171.72687,171.81511,61,28,0
171.72687,171.81511,65,28,0
172.43445,172.56526,61,56,0
172.60887,172.6971,58,45,0
172.78534,172.87598,54,45,0
172.9666,173.09741,49,51,0
173.14102,173.229,46,45,0
173.31697,173.40495,42,45,0
174.19675,174.28471,70,51,0
174.19675,174.28471,66,43,0
174.3727,174.46068,70,51,0
174.3727,174.46068,66,43,0
174.54865,174.63663,66,46,0
174.54865,174.63663,71,55,0
174.7246,174.81258,66,43,0
174.7246,174.81258,71,51,0
174.90056,174.98853,66,43,0
174.90056,174.98853,71,51,0
175.0765,175.16397,72,59,0
175.0765,175.16397,66,43,0
175.25143,175.3389,72,51,0
175.25143,175.3389,66,43,0
175.42636,175.51486,66,46,0
175.42636,175.51486,72,51,0
175.60335,175.69081,66,47,0
175.60335,175.69081,73,56,0
175.77827,175.86574,66,44,0
175.77827,175.86574,73,52,0
175.9532,176.04066,73,53,0
175.9532,176.04066,66,44,0
176.12813,176.21559,73,58,0
176.12813,176.21559,66,48,0
176.30305,176.39052,66,44,0
176.30305,176.39052,73,52,0
176.47798,176.567,66,45,0
176.47798,176.567,73,54,0
176.65602,176.74348,66,50,0
176.65602,176.74348,75,60,0
176.83095,176.91841,75,53,0
176.83095,176.91841,66,44,0
177.00587,177.09993,75,53,0
177.00587,177.09993,66,45,0
177.19397,177.28221,66,52,0
177.19397,177.28221,76,62,0
177.37044,177.45868,66,47,0
177.37044,177.45868,76,56,0
177.5469,177.65443,66,47,0
177.5469,177.65443,76,57,0
177.76196,177.8502,76,64,0
177.76196,177.8502,66,54,0
177.93843,178.02667,76,58,0
177.93843,178.02667,66,49,0
178.1149,178.20262,66,49,0
178.1149,178.20262,76,59,0
178.29034,178.3778,66,56,0
178.29034,178.3778,76,67,0
178.46527,178.55173,66,47,0
178.46527,178.55173,76,56,0
178.63818,178.72464,76,55,0
178.63818,178.72464,66,46,0
178.8111,178.89906,75,63,0
178.8111,178.89906,66,53,0
178.98705,179.07503,66,48,0
178.98705,179.07503,75,57,0
179.163,179.2713,66,47,0
179.163,179.2713,75,56,0
179.37961,179.46942,66,49,0
179.37961,179.46942,73,58,0
179.55925,179.64906,73,51,0
179.55925,179.64906,66,43,0
179.73889,179.8287,73,50,0
179.73889,179.8287,66,42,0
179.91853,180.00835,70,48,0
179.91853,180.00835,64,41,0
179.91853,180.00835,66,41,0
180.09816,180.18799,66,36,0
180.09816,180.18799,70,43,0
180.09816,180.18799,64,36,0
180.2778,180.36763,66,35,0
180.2778,180.36763,70,42,0
180.2778,180.36763,64,35,0
180.45744,180.54947,66,46,0
180.54947,180.6415,68,31,0
180.6415,180.73352,66,36,0
180.73352,180.82555,68,32,0
180.82555,180.91618,66,36,0
180.91618,181.00682,68,33,0
180.45744,181.00682,63,38,0
181.00682,181.09744,66,48,0
181.09744,181.18808,68,35,0
181.18808,181.27872,66,40,0
181.27872,181.36935,68,35,0
181.36935,181.45999,66,42,0
181.45999,181.55063,68,36,0
181.00682,181.55063,59,41,0
181.55063,181.64264,66,52,0
181.64264,181.73466,68,35,0
181.73466,181.82669,66,39,0
181.82669,181.91872,68,34,0
181.91872,182.00935,66,37,0
182.00935,182.09999,68,33,0
181.55063,182.09999,58,43,0
182.09999,182.19063,66,47,0
182.19063,182.28127,68,34,0
182.28127,182.37189,66,37,0
182.37189,182.46252,68,32,0
182.46252,182.55316,66,38,0
182.55316,182.6438,68,31,0
182.09999,182.6438,64,41,0
182.6438,183.01189,63,48,0
183.01189,183.19316,68,45,0
183.19316,183.5557,66,54,0
183.5557,183.73697,63,49,0
182.6438,183.73697,59,48,0
183.73697,184.10507,61,55,0
184.10507,184.28633,68,46,0
183.73697,184.28633,54,46,0
184.28633,184.64888,66,53,0
184.64888,184.83696,61,44,0
184.28633,184.83696,52,45,0
184.83696,184.9276,51,35,0
184.9276,185.01823,59,27,0
185.01823,185.10887,51,31,0
185.10887,185.19943,59,26,0
185.19943,185.28952,51,31,0
185.28952,185.3796,59,27,0
185.3796,185.46942,50,37,0
185.46942,185.5592,60,27,0
185.5592,185.6515,50,31,0
185.6515,185.74318,60,27,0
185.74318,185.83247,50,31,0
185.83247,185.92168,60,27,0
185.92168,186.01123,48,35,0
186.01123,186.10078,57,27,0
186.10078,186.19034,48,31,0
186.19034,186.27989,57,26,0
186.27989,186.36945,48,31,0
186.36945,186.459,57,27,0
186.459,186.54828,47,37,0
186.54828,186.63756,55,27,0
186.63756,186.72685,47,31,0
186.72685,186.81613,55,27,0
186.81613,186.90543,45,31,0
186.90543,186.9947,54,27,0
186.9947,187.17598,55,36,0
186.9947,187.17598,43,36,0
187.17598,187.26553,55,32,0
187.17598,187.26553,59,38,0
187.26553,187.35509,62,39,0
187.35509,187.44464,55,34,0
187.35509,187.44464,59,40,0
187.44464,187.53418,62,36,0
187.53418,187.62373,55,35,0
187.53418,187.62373,59,42,0
187.62373,187.71329,62,40,0
187.71329,187.80284,55,37,0
187.71329,187.80284,59,44,0
187.80284,187.8924,62,42,0
187.8924,187.98703,55,39,0
187.8924,187.98703,59,46,0
187.98703,188.08167,62,44,0
188.08167,188.17096,60,48,0
188.08167,188.17096,54,40,0
188.17096,188.26024,62,42,0
188.26024,188.34953,60,42,0
188.26024,188.34953,54,35,0
188.34953,188.43881,62,42,0
188.43881,188.52809,60,48,0
188.43881,188.52809,54,40,0
188.52809,188.61739,62,44,0
188.61739,188.70667,60,46,0
188.61739,188.70667,54,39,0
188.70667,188.79596,62,41,0
188.79596,188.88524,60,44,0
188.79596,188.88524,54,37,0
188.88524,188.97453,62,39,0
188.97453,189.07098,60,42,0
188.97453,189.07098,54,35,0
189.07098,189.16745,62,36,0
189.16745,189.53555,59,48,0
189.53555,189.71573,64,45,0
189.71573,190.0761,62,54,0
190.0761,190.25627,59,49,0
189.16745,190.25627,55,48,0
190.25627,190.62437,57,55,0
190.62437,190.80563,64,46,0
190.80563,191.16492,62,53,0
191.16492,191.35301,57,44,0
190.25627,191.35301,50,46,0
191.35301,191.71999,55,37,0
191.35301,191.71999,59,37,0
191.35301,191.71999,62,44,0
192.26994,192.364,62,44,0
192.45804,192.64041,62,44,0
192.64041,192.82278,59,38,0
192.82278,193.00854,55,38,0
193.00854,193.18925,53,44,0
193.18925,193.36998,50,44,0
193.36998,193.46344,47,44,0
193.5569,193.91835,48,44,0
193.91835,194.10236,67,40,0
194.10468,194.2865,67,44,0
194.2865,194.46832,64,40,0
194.46832,194.65425,60,40,0
194.46832,194.65425,55,34,0
194.65582,194.83931,55,44,0
194.83931,195.02168,52,40,0
195.02168,195.20801,48,40,0
195.20801,195.38983,43,44,0
195.38983,195.57164,36,39,0
195.57164,195.7642,48,39,0
195.76582,195.85674,48,39,0
195.85674,195.94765,51,31,0
195.94765,196.03854,56,31,0
196.03854,196.12946,51,31,0
196.12946,196.22037,56,30,0
196.22037,196.31128,51,32,0
196.31128,196.40219,49,41,0
196.40219,196.49309,51,32,0
196.49309,196.584,55,33,0
196.584,196.67491,58,33,0
196.67491,196.76955,61,33,0
196.76955,196.86418,55,33,0
196.86418,196.9551,56,40,0
196.9551,197.046,60,32,0
197.046,197.13692,63,33,0
197.13692,197.22783,60,33,0
197.22783,197.31873,63,34,0
197.31873,197.40964,60,34,0
197.40964,197.50055,55,42,0
197.50055,197.59146,58,33,0
197.59146,197.68237,63,33,0
197.68237,197.77327,58,33,0
197.77327,197.86913,55,33,0
197.86913,197.96497,58,33,0
197.96497,198.05615,51,41,0
198.05615,198.14734,55,33,0
198.14734,198.23853,58,34,0
198.23853,198.32971,55,35,0
198.32971,198.4209,58,35,0
198.4209,198.51208,55,35,0
198.51208,198.60327,46,43,0
198.60327,198.69446,56,34,0
198.69446,198.78564,58,34,0
198.78564,198.87683,56,34,0
198.87683,198.97298,58,34,0
198.97298,199.06914,56,34,0
199.06914,199.1606,51,42,0
199.1606,199.25206,55,34,0
199.25206,199.34352,58,36,0
199.34352,199.43498,55,36,0
199.43498,199.52644,58,36,0
199.52644,199.61792,55,36,0
199.61792,199.70938,58,45,0
199.70938,199.80084,55,35,0
199.80084,199.8923,58,35,0
199.8923,199.98376,55,35,0
199.98376,200.08278,52,35,0
200.08278,200.1818,55,35,0
200.1818,200.27269,53,43,0
200.27269,200.3636,56,36,0
200.3636,200.45451,60,37,0
200.45451,200.54543,56,37,0
200.54543,200.63634,60,37,0
200.63634,200.72723,56,37,0
200.72723,200.81815,48,46,0
200.81815,200.90906,58,36,0
200.90906,200.99997,60,36,0
200.99997,201.09088,58,36,0
201.09088,201.18611,60,36,0
201.18611,201.28136,58,36,0
201.28136,201.37227,53,44,0
201.37227,201.46317,56,37,0
201.46317,201.55408,60,38,0
201.55408,201.64499,56,38,0
201.64499,201.7359,60,38,0
201.7359,201.82681,56,38,0
201.82681,201.91771,58,47,0
201.91771,202.00862,56,37,0
202.00862,202.09953,58,37,0
202.09953,202.19044,56,37,0
202.19044,202.29012,50,37,0
202.29012,202.38979,56,37,0
202.38979,202.48068,51,46,0
202.48068,202.5716,55,38,0
202.5716,202.6625,58,39,0
202.6625,202.75342,55,39,0
202.75342,202.84433,58,39,0
202.84433,202.93523,55,39,0
202.93523,203.02614,44,49,0
203.02614,203.11705,53,38,0
203.11705,203.20796,56,38,0
203.20796,203.29887,53,38,0
203.29887,203.39691,56,38,0
203.39691,203.49495,53,39,0
203.49495,203.58559,46,47,0
203.58559,203.67622,51,39,0
203.67622,203.76685,55,40,0
203.76685,203.85748,51,40,0
203.85748,203.95212,55,40,0
203.95212,204.04675,51,40,0
204.04675,204.13794,46,50,0
204.13794,204.22913,50,39,0
204.22913,204.32031,53,39,0
204.32031,204.4115,50,39,0
204.4115,204.61911,58,39,0
204.4115,204.61911,46,39,0
204.61911,204.71002,58,67,0
204.61911,204.71002,46,57,0
204.80093,204.89185,55,58,0
204.80093,204.89185,43,49,0
204.98276,205.07365,51,54,0
204.98276,205.07365,39,44,0
205.16457,205.25548,50,62,0
205.16457,205.25548,38,51,0
205.34639,205.4373,53,56,0
205.34639,205.4373,41,47,0
205.5282,205.62515,58,57,0
205.5282,205.62515,46,48,0
205.7205,205.81142,58,63,0
205.7205,205.81142,46,52,0
205.90233,205.99324,55,58,0
205.90233,205.99324,43,49,0
206.08415,206.17581,51,58,0
206.08415,206.17581,39,49,0
206.26596,206.35687,51,64,0
206.26596,206.35687,39,54,0
206.44778,206.5387,55,55,0
206.44778,206.5387,43,46,0
206.62961,206.72943,60,66,0
206.62961,206.72943,48,56,0
206.82762,206.91826,60,72,0
206.82762,206.91826,48,60,0
207.0089,207.09953,56,65,0
207.0089,207.09953,44,55,0
207.19016,207.28079,53,65,0
207.19016,207.28079,41,55,0
207.37143,207.46207,52,72,0
207.37143,207.46207,40,60,0
207.5527,207.64333,55,65,0
207.5527,207.64333,43,55,0
207.73396,207.83,60,71,0
207.73396,207.83,48,59,0
207.92444,208.01453,60,83,0
207.92444,208.01453,48,71,0
208.10463,208.19472,56,67,0
208.10463,208.19472,44,57,0
208.2848,208.3749,53,67,0
208.2848,208.3749,41,57,0
208.46498,208.55507,50,77,0
208.46498,208.55507,38,64,0
208.64516,208.73526,53,69,0
208.64516,208.73526,41,58,0
208.82535,208.92584,58,69,0
208.82535,208.92584,46,58,0
209.02467,209.11476,58,77,0
209.02467,209.11476,46,64,0
209.20486,209.29495,55,66,0
209.20486,209.29495,43,56,0
209.38504,209.47513,51,66,0
209.38504,209.47513,39,56,0
209.56522,209.6553,48,70,0
209.56522,209.6553,36,58,0
209.74539,209.8355,53,64,0
209.74539,209.8355,41,54,0
209.92558,210.02443,56,64,0
209.92558,210.02443,44,54,0
210.12166,210.21202,46,74,0
210.12166,210.21202,34,63,0
210.30238,210.39275,51,67,0
210.30238,210.39275,39,57,0
210.48311,210.57852,55,69,0
210.48311,210.57852,43,58,0
210.67238,210.76329,46,77,0
210.67238,210.76329,34,64,0
210.8542,210.9451,50,69,0
210.8542,210.9451,38,58,0
211.03601,211.15897,58,69,0
211.03601,211.15897,46,58,0
211.28192,211.38028,39,73,0
211.47864,211.5751,51,49,0
211.47864,211.5751,55,62,0
211.67157,211.76802,51,49,0
211.67157,211.76802,55,49,0
211.67157,211.76802,58,62,0
211.86449,211.95883,51,49,0
211.86449,211.95883,63,62,0
211.86449,211.95883,58,49,0
211.86449,211.95883,55,49,0
212.05316,212.1475,51,49,0
212.05316,212.1475,63,62,0
212.05316,212.1475,58,49,0
212.05316,212.1475,55,49,0
212.24185,212.33618,51,49,0
212.24185,212.33618,63,62,0
212.24185,212.33618,58,49,0
212.24185,212.33618,55,49,0
212.43053,212.52487,51,56,0
212.43053,212.52487,63,70,0
212.43053,212.52487,58,56,0
212.43053,212.52487,55,56,0
212.6192,212.71355,51,49,0
212.6192,212.71355,63,62,0
212.6192,212.71355,58,49,0
212.6192,212.71355,55,49,0
212.80788,212.90222,51,49,0
212.80788,212.90222,63,62,0
212.80788,212.90222,58,49,0
212.80788,212.90222,55,49,0
212.99657,213.08887,51,49,0
212.99657,213.08887,58,49,0
212.99657,213.08887,62,62,0
212.99657,213.08887,56,49,0
212.99657,213.08887,53,49,0
213.18118,213.27348,51,49,0
213.18118,213.27348,56,49,0
213.18118,213.27348,62,62,0
213.18118,213.27348,58,49,0
213.18118,213.27348,53,49,0
213.3658,213.4581,51,49,0
213.3658,213.4581,56,49,0
213.3658,213.4581,62,62,0
213.3658,213.4581,58,49,0
213.3658,213.4581,53,49,0
213.55911,213.65286,51,57,0
213.55911,213.65286,63,72,0
213.55911,213.65286,58,57,0
213.55911,213.65286,55,57,0
213.74661,213.84007,51,49,0
213.74661,213.84007,63,62,0
213.74661,213.84007,58,49,0
213.74661,213.84007,55,49,0
213.93353,214.027,51,49,0
213.93353,214.027,63,62,0
213.93353,214.027,58,49,0
213.93353,214.027,55,49,0
214.12044,214.2139,51,49,0
214.12044,214.2139,63,62,0
214.12044,214.2139,58,49,0
214.12044,214.2139,55,49,0
214.30736,214.40082,51,49,0
214.30736,214.40082,63,62,0
214.30736,214.40082,58,49,0
214.30736,214.40082,55,49,0
214.49428,214.58774,51,49,0
214.49428,214.58774,63,62,0
214.49428,214.58774,58,49,0
214.49428,214.58774,55,49,0
214.68942,214.78317,51,55,0
214.68942,214.78317,63,69,0
214.68942,214.78317,58,55,0
214.68942,214.78317,55,55,0
214.87692,214.97067,51,48,0
214.87692,214.97067,63,61,0
214.87692,214.97067,58,48,0
214.87692,214.97067,55,48,0
215.06442,215.15703,51,48,0
215.06442,215.15703,63,61,0
215.06442,215.15703,58,48,0
215.06442,215.15703,55,48,0
215.24962,215.34221,51,48,0
215.24962,215.34221,58,61,0
215.24962,215.34221,56,48,0
215.24962,215.34221,53,48,0
215.4348,215.52739,51,48,0
215.4348,215.52739,58,61,0
215.4348,215.52739,56,48,0
215.4348,215.52739,53,48,0
215.61998,215.71257,51,48,0
215.61998,215.71257,58,61,0
215.61998,215.71257,56,48,0
215.61998,215.71257,53,48,0
215.82207,215.92043,39,73,0
216.01878,216.11525,51,49,0
216.01878,216.11525,55,62,0
216.21172,216.30818,51,49,0
216.21172,216.30818,55,49,0
216.21172,216.30818,58,62,0
216.40463,216.49898,51,49,0
216.40463,216.49898,63,62,0
216.40463,216.49898,58,49,0
216.40463,216.49898,55,49,0
216.59332,216.68765,51,49,0
216.59332,216.68765,63,62,0
216.59332,216.68765,58,49,0
216.59332,216.68765,55,49,0
216.782,216.87634,51,49,0
216.782,216.87634,63,62,0
216.782,216.87634,58,49,0
216.782,216.87634,55,49,0
216.97067,217.06502,51,56,0
216.97067,217.06502,63,70,0
216.97067,217.06502,58,56,0
216.97067,217.06502,55,56,0
217.15935,217.2537,51,49,0
217.15935,217.2537,63,62,0
217.15935,217.2537,58,49,0
217.15935,217.2537,55,49,0
217.34804,217.44237,51,49,0
217.34804,217.44237,63,62,0
217.34804,217.44237,58,49,0
217.34804,217.44237,55,49,0
217.53671,217.62901,51,49,0
217.53671,217.62901,61,62,0
217.53671,217.62901,58,49,0
217.53671,217.62901,55,49,0
217.72133,217.81363,51,49,0
217.72133,217.81363,61,62,0
217.72133,217.81363,58,49,0
217.72133,217.81363,55,49,0
217.90594,217.99825,51,49,0
217.90594,217.99825,61,62,0
217.90594,217.99825,58,49,0
217.90594,217.99825,55,49,0
218.09926,218.19301,51,57,0
218.09926,218.19301,61,72,0
218.09926,218.19301,58,57,0
218.09926,218.19301,55,57,0
218.28676,218.38022,51,49,0
218.28676,218.38022,61,62,0
218.28676,218.38022,58,49,0
218.28676,218.38022,55,49,0
218.47368,218.56714,51,49,0
218.47368,218.56714,61,62,0
218.47368,218.56714,58,49,0
218.47368,218.56714,55,49,0
218.6606,218.75404,51,49,0
218.6606,218.75404,61,62,0
218.6606,218.75404,58,49,0
218.6606,218.75404,55,49,0
218.8475,218.94096,51,49,0
218.8475,218.94096,61,62,0
218.8475,218.94096,58,49,0
218.8475,218.94096,55,49,0
219.03442,219.12788,51,49,0
219.03442,219.12788,61,62,0
219.03442,219.12788,58,49,0
219.03442,219.12788,55,49,0
219.22958,219.32333,51,55,0
219.22958,219.32333,58,55,0
219.22958,219.32333,61,69,0
219.22958,219.32333,55,55,0
219.41708,219.51083,51,48,0
219.41708,219.51083,58,48,0
219.41708,219.51083,61,61,0
219.41708,219.51083,55,48,0
219.60458,219.69717,51,48,0
219.60458,219.69717,60,61,0
219.60458,219.69717,56,48,0
219.78976,219.88235,56,48,0
219.78976,219.88235,51,48,0
219.78976,219.88235,53,48,0
219.78976,219.88235,59,61,0
219.97495,220.06754,53,48,0
219.97495,220.06754,51,48,0
219.97495,220.06754,59,61,0
219.97495,220.06754,56,48,0
220.16013,220.25273,53,48,0
220.16013,220.25273,51,48,0
220.16013,220.25273,58,61,0
220.16013,220.25273,56,48,0
220.35654,220.5507,51,80,0
220.35654,220.5507,39,80,0
220.93906,221.13014,63,75,0
221.5123,221.70338,66,81,0
222.08556,222.27664,71,74,0
222.6588,222.84749,66,79,0
223.22484,223.41714,63,74,0
223.80176,223.99406,59,78,0
224.3787,224.57477,54,70,0
224.96692,225.1611,50,80,0
224.96692,225.1611,38,80,0
225.54945,225.74052,62,75,0
226.1227,226.31378,65,81,0
226.69594,226.88702,70,74,0
227.2692,227.45787,65,79,0
227.83524,228.02754,62,74,0
228.41216,228.60446,58,78,0
228.98907,229.18515,53,70,0
229.57732,229.67107,71,40,0
229.57732,229.67107,66,34,0
229.57732,229.67107,63,34,0
229.76482,229.85077,71,35,0
229.76482,229.85077,66,29,0
229.76482,229.85077,63,29,0
229.93674,230.02269,71,35,0
229.93674,230.02269,66,29,0
229.93674,230.02269,63,29,0
230.10866,230.19461,71,35,0
230.10866,230.19461,66,29,0
230.10866,230.19461,63,29,0
230.28056,230.36653,71,35,0
230.28056,230.36653,66,29,0
230.28056,230.36653,63,29,0
230.45248,230.53845,71,35,0
230.45248,230.53845,66,29,0
230.45248,230.53845,63,29,0
230.6244,230.71815,71,40,0
230.6244,230.71815,66,34,0
230.6244,230.71815,63,34,0
230.8119,230.90015,71,35,0
230.8119,230.90015,66,29,0
230.8119,230.90015,63,29,0
230.98839,231.07483,71,35,0
230.98839,231.07483,66,29,0
230.98839,231.07483,63,29,0
231.16129,231.24774,71,35,0
231.16129,231.24774,66,29,0
231.16129,231.24774,63,29,0
231.3342,231.42065,71,35,0
231.3342,231.42065,66,29,0
231.3342,231.42065,63,29,0
231.50711,231.59857,71,35,0
231.50711,231.59857,66,29,0
231.50711,231.59857,63,29,0
231.69003,231.77675,71,40,0
231.69003,231.77675,66,34,0
231.69003,231.77675,63,34,0
231.86345,231.95015,71,35,0
231.86345,231.95015,66,29,0
231.86345,231.95015,63,29,0
232.03687,232.12357,71,35,0
232.03687,232.12357,66,29,0
232.03687,232.12357,63,29,0
232.21027,232.29698,71,35,0
232.21027,232.29698,66,29,0
232.21027,232.29698,63,29,0
232.38368,232.47038,71,35,0
232.38368,232.47038,66,29,0
232.38368,232.47038,63,29,0
232.5571,232.648,71,35,0
232.5571,232.648,66,29,0
232.5571,232.648,63,29,0
232.7389,232.82536,71,40,0
232.7389,232.82536,66,34,0
232.7389,232.82536,63,34,0
232.91182,232.99828,71,35,0
232.91182,232.99828,66,29,0
232.91182,232.99828,63,29,0
233.08473,233.17119,71,35,0
233.08473,233.17119,66,29,0
233.08473,233.17119,63,29,0
233.25764,233.3441,71,35,0
233.25764,233.3441,66,29,0
233.25764,233.3441,63,29,0
233.43056,233.51701,71,35,0
233.43056,233.51701,66,29,0
233.43056,233.51701,63,29,0
233.60347,233.68991,69,35,0
233.60347,233.68991,66,29,0
233.60347,233.68991,63,29,0
233.77637,233.87012,70,40,0
233.77637,233.87012,65,34,0
233.77637,233.87012,62,34,0
233.96387,234.05008,70,35,0
233.96387,234.05008,65,29,0
233.96387,234.05008,62,29,0
234.13629,234.22249,70,35,0
234.13629,234.22249,65,29,0
234.13629,234.22249,62,29,0
234.3087,234.39491,70,35,0
234.3087,234.39491,65,29,0
234.3087,234.39491,62,29,0
234.48111,234.56732,70,35,0
234.48111,234.56732,65,29,0
234.48111,234.56732,62,29,0
234.65353,234.73973,70,35,0
234.65353,234.73973,65,29,0
234.65353,234.73973,62,29,0
234.82594,234.9197,70,40,0
234.82594,234.9197,65,34,0
234.82594,234.9197,62,34,0
235.01344,235.1004,70,35,0
235.01344,235.1004,65,29,0
235.01344,235.1004,62,29,0
235.18736,235.2743,70,35,0
235.18736,235.2743,65,29,0
235.18736,235.2743,62,29,0
235.36127,235.44823,70,35,0
235.36127,235.44823,65,29,0
235.36127,235.44823,62,29,0
235.53519,235.62213,70,35,0
235.53519,235.62213,65,29,0
235.53519,235.62213,62,29,0
235.70909,235.79605,70,35,0
235.70909,235.79605,65,29,0
235.70909,235.79605,62,29,0
235.88301,235.97676,70,40,0
235.88301,235.97676,65,34,0
235.88301,235.97676,62,34,0
236.07051,236.15747,70,35,0
236.07051,236.15747,65,29,0
236.07051,236.15747,62,29,0
236.24442,236.33138,70,35,0
236.24442,236.33138,65,29,0
236.24442,236.33138,62,29,0
236.41833,236.5053,70,35,0
236.41833,236.5053,65,29,0
236.41833,236.5053,62,29,0
236.59225,236.6792,70,35,0
236.59225,236.6792,65,29,0
236.59225,236.6792,62,29,0
236.76616,236.85312,70,35,0
236.76616,236.85312,65,29,0
236.76616,236.85312,62,29,0
236.94008,237.03383,70,40,0
236.94008,237.03383,65,34,0
236.94008,237.03383,62,34,0
237.12758,237.21478,70,35,0
237.12758,237.21478,65,29,0
237.12758,237.21478,62,29,0
237.30199,237.3892,70,35,0
237.30199,237.3892,65,29,0
237.30199,237.3892,62,29,0
237.47641,237.65083,70,35,0
237.47641,237.65083,65,29,0
237.47641,237.65083,62,29,0
237.65083,237.82524,58,35,0
237.82524,238.01216,56,35,0
238.01216,238.3769,55,40,0
238.3769,238.55495,60,33,0
238.55495,238.91103,58,42,0
238.91103,239.08907,55,39,0
238.01216,239.08907,51,40,0
239.08907,239.43994,53,42,0
239.43994,239.61539,60,36,0
239.61539,239.96939,58,45,0
239.96939,240.154,53,41,0
239.08907,240.154,46,42,0
240.154,240.51656,55,46,0
240.51656,240.69354,60,37,0
240.69354,241.04752,58,45,0
241.04752,241.22452,55,40,0
240.154,241.22452,51,46,0
241.22452,241.57849,53,43,0
241.57849,241.7555,60,34,0
241.7555,242.11159,58,42,0
242.11159,242.29068,53,37,0
241.22452,242.29068,46,43,0
242.29068,242.38443,51,34,0
242.29068,242.38443,58,40,0
242.47818,242.5685,63,35,0
242.47818,242.5685,58,29,0
242.47818,242.5685,55,29,0
242.65843,242.74802,63,35,0
242.65843,242.74802,58,29,0
242.65843,242.74802,55,29,0
242.83717,242.92601,63,35,0
242.83717,242.92601,58,29,0
242.83717,242.92601,55,29,0
243.0144,243.10278,63,35,0
243.0144,243.10278,58,29,0
243.0144,243.10278,55,29,0
243.1915,243.28056,63,35,0
243.1915,243.28056,59,29,0
243.1915,243.28056,55,29,0
243.55688,243.64691,63,35,0
243.55688,243.64691,60,29,0
243.55688,243.64691,56,29,0
243.73668,243.82616,63,35,0
243.73668,243.82616,60,29,0
243.73668,243.82616,56,29,0
243.91536,244.00424,63,35,0
243.91536,244.00424,60,29,0
243.91536,244.00424,56,29,0
244.09299,244.18195,63,35,0
244.09299,244.18195,60,29,0
244.09299,244.18195,56,29,0
244.27101,244.3603,65,35,0
244.27101,244.3603,63,29,0
244.27101,244.3603,57,29,0
244.63724,244.72758,67,35,0
244.63724,244.72758,63,29,0
244.63724,244.72758,58,29,0
244.81766,244.9074,67,35,0
244.81766,244.9074,63,29,0
244.81766,244.9074,58,29,0
244.99686,245.08606,67,35,0
244.99686,245.08606,63,29,0
244.99686,245.08606,58,29,0
245.17491,245.26405,67,35,0
245.17491,245.26405,63,29,0
245.17491,245.26405,58,29,0
245.35359,245.44354,67,35,0
245.35359,245.44354,63,29,0
245.35359,245.44354,58,29,0
245.53395,245.62457,63,29,0
245.53395,245.62457,58,29,0
245.53395,245.62457,67,35,0
245.71521,245.8056,67,35,0
245.71521,245.8056,63,29,0
245.71521,245.8056,58,29,0
245.8957,245.98549,67,35,0
245.8957,245.98549,63,29,0
245.8957,245.98549,58,29,0
246.07498,246.16568,68,35,0
246.07498,246.16568,62,29,0
246.07498,246.16568,58,29,0
246.25586,246.3451,68,35,0
246.25586,246.3451,62,29,0
246.25586,246.3451,58,29,0
246.43494,246.52559,68,35,0
246.43494,246.52559,62,29,0
246.43494,246.52559,58,29,0
246.6165,246.98459,67,40,0
246.98459,247.16586,72,33,0
247.16586,247.5284,70,42,0
247.5284,247.70967,67,39,0
246.6165,247.70967,63,40,0
247.70967,248.06575,65,42,0
248.06575,248.24379,72,36,0
248.24379,248.60365,70,45,0
248.60365,248.78827,65,41,0
247.70967,248.78827,58,42,0
248.78827,249.15302,67,46,0
249.15302,249.33266,72,37,0
249.33266,249.69193,70,45,0
249.69193,249.87157,67,40,0
248.78827,249.87157,63,46,0
249.87157,250.22978,65,43,0
250.22978,250.40889,72,34,0
250.40889,250.7698,70,42,0
250.7698,250.95163,65,37,0
249.87157,250.95163,58,43,0
250.95163,251.04538,63,51,0
251.04538,251.13913,67,45,0
251.13913,251.22943,68,50,0
251.22943,251.31937,70,52,0
251.31937,251.40897,72,54,0
251.40897,251.49812,74,56,0
251.49812,251.58694,75,61,0
251.58694,251.67534,74,60,0
251.67534,251.76373,72,58,0
251.76373,251.85243,70,57,0
251.85243,251.94151,68,55,0
251.94151,252.0309,67,54,0
252.0309,252.12465,68,51,0
252.12465,252.21782,72,45,0
252.21782,252.30786,74,48,0
252.30786,252.39761,75,50,0
252.39761,252.48709,77,55,0
252.48709,252.5763,79,57,0
252.5763,252.66518,80,62,0
252.66518,252.75394,79,60,0
252.75394,252.8429,77,59,0
252.8429,252.93196,75,58,0
252.93196,253.02124,74,57,0
253.02124,253.11067,72,55,0
253.11067,253.20442,70,60,0
253.20442,253.29817,58,52,0
253.29817,253.38852,63,63,0
253.38852,253.47859,67,59,0
253.47859,253.56833,70,68,0
253.56833,253.6578,75,62,0
253.6578,253.75156,79,63,0
253.75156,253.8453,75,54,0
253.8453,253.93565,82,66,0
253.93565,254.02573,79,62,0
254.02573,254.11546,75,70,0
254.11546,254.20494,70,64,0
254.20494,254.26445,77,67,0
254.26445,254.32397,79,59,0
254.32397,254.3835,77,67,0
254.20494,254.3835,70,60,0
254.3835,254.4439,79,61,0
254.4439,254.5046,77,66,0
254.5046,254.5651,79,59,0
254.5651,254.62541,77,66,0
254.62541,254.68553,79,59,0
254.68553,254.74547,77,62,0
254.74547,254.80501,79,56,0
254.80501,254.86453,77,63,0
254.86453,254.92406,79,55,0
254.92406,254.98344,77,63,0
254.98344,255.04312,79,55,0
255.04312,255.10309,77,63,0
255.10309,255.16344,79,55,0
255.16344,255.22404,77,63,0
255.22404,255.28476,79,59,0
255.28476,255.37695,70,62,0
255.37695,255.46857,76,55,0
255.46857,255.5596,77,58,0
255.5596,255.65005,79,60,0
255.65005,255.74591,77,58,0
255.74591,255.83809,76,58,0
255.83809,255.92845,68,61,0
255.92845,256.01883,77,56,0
256.01883,256.1092,79,59,0
256.1092,256.19955,80,61,0
256.19955,256.2914,79,57,0
256.2914,256.3861,77,57,0
256.39072,256.4826,56,62,0
256.47803,256.56937,62,55,0
256.56937,256.66013,63,58,0
256.65634,256.7467,65,60,0
256.75043,256.8439,63,59,0
256.8439,256.93494,62,59,0
256.93494,257.02475,55,62,0
257.02475,257.11456,63,57,0
257.11456,257.20438,65,61,0
257.20438,257.29422,67,64,0
257.29422,257.38513,65,59,0
257.38513,257.47827,63,60,0
257.48294,257.57538,46,65,0
257.5708,257.66235,52,58,0
257.66235,257.753,53,62,0
257.74924,257.839,55,64,0
257.8427,257.93982,53,62,0
257.93982,258.02942,52,63,0
258.02942,258.1187,44,67,0
258.1187,258.208,53,61,0
258.208,258.29727,55,65,0
258.29727,258.38657,56,67,0
258.38657,258.47586,55,63,0
258.47586,258.56903,53,63,0
258.5735,258.66495,32,70,0
258.6604,258.7512,38,62,0
258.7512,258.84113,39,66,0
258.8374,258.92657,41,68,0
258.9303,259.02435,39,66,0
259.02435,259.11407,38,67,0
259.11407,259.2039,31,70,0
259.2039,259.2937,39,65,0
259.2937,259.38354,41,69,0
259.38354,259.47336,43,71,0
259.47336,259.56317,41,67,0
259.56317,259.6555,39,67,0
259.6555,259.74557,31,70,0
259.74557,259.83566,34,62,0
259.83566,259.92575,39,66,0
259.92575,260.01584,43,68,0
260.01584,260.10593,39,66,0
260.10593,260.19998,34,63,0
260.19998,260.2898,36,70,0
260.2898,260.3796,39,65,0
260.3796,260.46945,43,69,0
260.46945,260.55927,48,71,0
260.55927,260.64908,43,67,0
260.64908,260.7389,39,64,0
260.7389,260.82898,32,70,0
260.82898,260.91907,36,62,0
260.91907,261.00916,41,66,0
261.00916,261.09927,44,68,0
261.09927,261.18936,41,66,0
261.18936,261.2834,36,63,0
261.2834,261.3732,34,70,0
261.3732,261.46304,41,65,0
261.46304,261.55286,44,69,0
261.55286,261.64267,46,71,0
261.64267,261.73248,44,67,0
261.73248,261.82233,41,64,0
261.82233,261.91214,43,70,0
261.91214,262.00195,46,62,0
262.00195,262.09177,51,66,0
262.09177,262.1816,55,68,0
262.1816,262.27142,51,66,0
262.27142,262.36545,46,63,0
262.36545,262.4553,48,70,0
262.4553,262.5451,51,65,0
262.5451,262.63492,55,69,0
262.63492,262.72473,60,71,0
262.72473,262.81458,55,67,0
262.81458,262.9044,51,64,0
262.9044,262.99448,44,70,0
262.99448,263.08456,48,62,0
263.08456,263.17465,53,66,0
263.17465,263.26474,56,68,0
263.26474,263.35483,53,66,0
263.35483,263.44888,48,63,0
263.44888,263.5387,34,70,0
263.5387,263.6285,41,65,0
263.6285,263.71832,44,69,0
263.71832,263.80817,46,71,0
263.80817,263.89798,44,67,0
263.89798,263.9878,41,64,0
263.9878,264.07788,31,70,0
264.07788,264.16797,34,62,0
264.16797,264.25806,39,66,0
264.25806,264.34814,43,68,0
264.34814,264.43823,39,67,0
264.43823,264.5323,34,64,0
264.5323,264.6221,36,72,0
264.6221,264.71194,39,67,0
264.71194,264.80176,43,72,0
264.80176,264.89157,48,74,0
264.89157,264.98138,43,71,0
264.98138,265.0712,39,67,0
265.0712,265.16132,32,74,0
265.16132,265.2514,36,66,0
265.2514,265.3415,41,71,0
265.3415,265.43158,44,74,0
265.43158,265.52167,41,72,0
265.52167,265.6157,36,67,0
265.6157,265.70554,34,77,0
265.70554,265.79535,41,72,0
265.79535,265.88516,44,77,0
265.88516,265.97498,46,80,0
265.97498,266.06482,34,75,0
266.06482,266.15973,46,72,0
266.15973,266.2505,39,75,0
266.34146,266.4319,51,75,0
266.52173,266.61127,51,64,0
266.52173,266.61127,55,77,0
266.7008,267.06436,58,83,0
266.7008,267.06436,55,70,0
266.7008,267.06436,51,70,0
267.06436,267.15417,58,71,0
267.06436,267.15417,53,60,0
267.06436,267.15417,46,60,0
267.25424,267.34488,58,79,0
267.25424,267.34488,55,67,0
267.25424,267.34488,51,67,0
267.43515,267.5251,58,75,0
267.43515,267.5251,55,63,0
267.43515,267.5251,51,63,0
267.61475,267.70404,58,74,0
267.61475,267.70404,55,62,0
267.61475,267.70404,51,62,0
267.79333,268.15518,58,82,0
267.79333,268.15518,55,69,0
267.79333,268.15518,51,69,0
268.15518,268.24472,58,75,0
268.15518,268.24472,53,63,0
268.15518,268.24472,46,63,0
268.34387,268.43445,58,76,0
268.34387,268.43445,55,64,0
268.34387,268.43445,51,64,0
268.52463,268.6144,58,75,0
268.52463,268.6144,55,63,0
268.52463,268.6144,51,63,0
268.7038,268.79285,58,73,0
268.7038,268.79285,55,61,0
268.7038,268.79285,51,61,0
268.88187,269.24258,58,83,0
268.88187,269.24258,55,70,0
268.88187,269.24258,51,70,0
269.24258,269.33215,58,75,0
269.24258,269.33215,53,63,0
269.24258,269.33215,46,63,0
269.4342,269.79456,58,82,0
269.4342,269.79456,55,69,0
269.4342,269.79456,51,69,0
269.97473,270.33508,51,82,0
269.97473,270.33508,39,69,0
270.51526,271.00308,51,82,0
270.51526,271.00308,39,69,0
271.9707,272.40103,58,40,0
271.9707,272.40103,55,34,0
271.9707,272.40103,51,34,0
272.61154,273.0326,58,34,0
272.61154,273.0326,53,28,0
272.61154,273.0326,56,28,0
272.61154,273.0326,46,28,0
273.26248,273.68967,55,34,0
273.26248,273.68967,58,40,0
273.26248,273.68967,51,34,0
273.89944,274.10925,60,34,0
273.89944,274.10925,55,28,0
273.89944,274.10925,48,28,0
274.31903,274.49414,60,34,0
274.31903,274.49414,52,28,0
274.31903,274.49414,55,28,0
274.31903,274.49414,58,28,0
274.5525,274.9819,60,40,0
274.5525,274.9819,53,34,0
274.5525,274.9819,56,34,0
275.1939,275.40594,57,28,0
275.1939,275.40594,50,28,0
275.1939,275.40594,62,34,0
275.61795,275.79794,62,34,0
275.61795,275.79794,57,28,0
275.61795,275.79794,54,28,0
275.85794,276.29126,62,40,0
275.85794,276.29126,58,34,0
275.85794,276.29126,55,34,0
276.50476,276.93182,62,40,0
276.50476,276.93182,53,34,0
276.50476,276.93182,56,34,0
276.50476,276.93182,58,34,0
277.16992,277.61118,51,33,0
277.16992,277.61118,58,33,0
277.16992,277.61118,55,33,0
277.16992,277.61118,63,39,0
278.5113,278.74387,63,42,0
278.74387,278.96942,58,36,0
278.96942,279.14728,55,37,0
279.20657,279.42963,55,39,0
279.42963,279.65268,58,36,0
279.65268,279.84833,63,36,0
279.91354,280.15744,43,46,0
279.91354,280.15744,39,38,0
280.15744,280.38385,43,33,0
280.15744,280.38385,46,39,0
280.38385,280.61026,51,40,0
280.38385,280.61026,46,33,0
280.61026,280.83667,43,36,0
280.61026,280.83667,46,43,0
280.83667,281.0631,51,39,0
280.83667,281.0631,46,32,0
281.0631,281.2506,55,40,0
281.0631,281.2506,51,33,0
281.3131,281.54565,51,50,0
281.3131,281.54565,46,42,0
281.54565,281.77823,51,36,0
281.54565,281.77823,55,43,0
281.77823,282.0709,58,44,0
281.77823,282.0709,55,36,0
282.3352,282.59952,53,38,0
282.3352,282.59952,46,31,0
282.59952,282.8658,58,36,0
282.59952,282.8658,46,29,0
282.95456,283.5457,58,36,0
282.95456,283.5457,55,30,0
282.95456,283.5457,51,30,0
284.8077,284.9577,63,45,0
284.9577,285.1077,62,39,0
285.1077,285.2577,63,39,0
285.2577,285.4077,58,35,0
285.4077,285.56985,55,45,0
285.65094,285.73203,56,39,0
284.8077,285.73203,51,40,0
285.73203,285.88278,55,45,0
285.88278,286.03354,54,36,0
286.03354,286.1843,55,40,0
286.1843,286.33505,58,36,0
286.33505,286.4921,63,47,0
286.64917,286.8096,39,45,0
286.8096,286.97003,38,36,0
286.97003,287.12546,39,41,0
287.12546,287.2809,43,37,0
287.2809,287.60522,46,47,0
287.60522,287.76068,43,48,0
287.76068,287.9161,41,38,0
287.9161,288.07156,43,45,0
288.07156,288.227,46,39,0
288.227,288.5641,51,50,0
288.5641,288.7228,46,51,0
288.7228,288.88153,45,40,0
288.88153,289.04028,46,45,0
289.04028,289.199,51,38,0
289.199,289.53992,55,47,0
289.8625,290.18506,53,38,0
289.8625,290.18506,46,31,0
290.18506,290.4792,58,36,0
290.18506,290.4792,46,29,0
290.57724,290.91055,43,46,0
290.57724,290.91055,39,38,0
290.91055,291.2439,43,33,0
290.91055,291.2439,46,39,0
291.2439,291.57724,51,40,0
291.2439,291.57724,46,33,0
291.57724,291.91055,43,36,0
291.57724,291.91055,46,43,0
291.91055,292.2439,51,39,0
291.91055,292.2439,46,32,0
292.2439,292.60553,55,40,0
292.2439,292.60553,51,33,0
292.62125,292.96024,51,50,0
292.62125,292.96024,46,42,0
292.96024,293.29922,51,36,0
292.96024,293.29922,55,43,0
293.29922,293.66202,58,44,0
293.29922,293.66202,51,36,0
293.29922,293.66202,46,36,0
293.66507,294.05652,58,50,0
293.66507,294.05652,53,42,0
293.66507,294.05652,46,42,0
294.0598,294.45126,58,38,0
294.0598,294.45126,46,31,0
294.0598,294.45126,53,31,0
294.45456,295.2531,58,36,0
294.45456,295.2531,46,29,0
294.45456,295.2531,56,36,0
295.2531,295.33432,70,80,0
295.41553,295.4967,67,67,0
295.5779,295.6591,63,67,0
295.7462,295.82715,67,80,0
295.90814,295.9891,63,70,0
296.0701,296.15106,58,70,0
296.23764,296.31842,63,80,0
296.39917,296.47992,58,71,0
296.56067,296.64145,55,71,0
296.7273,296.80804,58,80,0
296.8888,296.96954,56,69,0
297.05032,297.13107,53,69,0
297.05032,297.13107,46,55,0
297.21692,297.29745,51,82,0
297.21692,297.29745,39,65,0
297.378,297.45853,63,64,0
297.378,297.45853,51,51,0
297.378,297.45853,55,51,0
297.378,297.45853,58,51,0
297.5391,297.61963,63,64,0
297.5391,297.61963,51,51,0
297.5391,297.61963,55,51,0
297.5391,297.61963,58,51,0
297.70016,297.7807,63,64,0
297.70016,297.7807,51,51,0
297.70016,297.7807,55,51,0
297.70016,297.7807,58,51,0
297.86124,297.94177,63,64,0
297.86124,297.94177,51,51,0
297.86124,297.94177,55,51,0
297.86124,297.94177,58,51,0
298.02234,298.10287,63,64,0
298.02234,298.10287,51,51,0
298.02234,298.10287,55,51,0
298.02234,298.10287,58,51,0
298.18564,298.26596,63,74,0
298.18564,298.26596,51,59,0
298.18564,298.26596,55,59,0
298.18564,298.26596,58,59,0
298.34628,298.4266,63,61,0
298.34628,298.4266,51,48,0
298.34628,298.4266,55,48,0
298.34628,298.4266,58,48,0
298.50693,298.58725,63,62,0
298.50693,298.58725,51,49,0
298.50693,298.58725,55,49,0
298.50693,298.58725,58,49,0
298.66757,298.74792,63,63,0
298.66757,298.74792,51,50,0
298.66757,298.74792,55,50,0
298.66757,298.74792,58,50,0
298.82825,298.90857,63,64,0
298.82825,298.90857,51,51,0
298.82825,298.90857,55,51,0
298.82825,298.90857,58,51,0
298.9889,299.07053,63,64,0
298.9889,299.07053,51,51,0
298.9889,299.07053,55,51,0
298.9889,299.07053,58,51,0
299.15686,299.50723,63,74,0
299.15686,299.50723,51,59,0
299.15686,299.50723,55,59,0
299.15686,299.50723,58,59,0
299.68243,300.05,58,68,0
299.68243,300.05,46,57,0
300.23376,300.60132,51,74,0
300.23376,300.60132,39,61,0
