start_time,end_time,note_value,velocity,instrument_program_number
0.546647,0.6833087,65,46,0
0.72886264,0.91107833,65,50,0
0.91107833,1.0477401,77,46,0
1.093294,1.28063,77,59,0
1.6942637,5.0120044,77,51,0
1.28063,5.0120044,89,66,0
5.0120044,5.8793907,77,42,0
5.0120044,5.8793907,89,50,0
7.325034,8.192421,77,39,0
7.325034,8.192421,85,39,0
7.325034,8.192421,89,47,0
7.325034,8.192421,80,39,0
9.638064,10.50545,85,34,0
9.638064,10.50545,89,40,0
9.638064,10.50545,82,34,0
9.638064,10.50545,77,34,0
11.951095,14.182117,85,32,0
11.951095,14.182117,82,32,0
11.951095,14.182117,78,32,0
11.951095,14.182117,90,38,0
15.063779,15.343943,73,37,0
15.343943,15.622339,78,41,0
15.622339,15.900736,73,36,0
15.900736,16.179132,78,42,0
16.179132,16.45753,73,35,0
16.45753,16.735926,78,42,0
16.735926,17.042799,70,38,0
17.323803,17.604807,66,35,0
17.604807,17.88581,71,41,0
17.88581,18.166815,66,35,0
18.166815,18.447819,71,43,0
18.447819,18.728823,66,37,0
18.728823,19.009827,71,42,0
19.009827,19.310549,63,39,0
17.042799,19.310549,75,48,0
19.310549,19.588945,65,33,0
19.588945,19.867342,68,32,0
19.310549,19.867342,75,47,0
19.867342,20.145739,65,30,0
20.145739,20.424135,68,37,0
20.424135,20.702532,65,35,0
20.702532,20.980928,68,38,0
19.867342,20.980928,73,43,0
20.980928,21.259325,65,28,0
21.259325,21.537722,68,27,0
20.980928,21.537722,71,39,0
21.537722,22.127344,70,45,0
21.537722,22.127344,66,38,0
22.127344,22.689352,75,45,0
22.127344,22.689352,66,38,0
22.127344,22.689352,69,38,0
22.689352,23.732014,68,40,0
22.689352,23.732014,65,34,0
23.732014,23.906921,70,35,0
23.732014,23.906921,66,29,0
23.906921,24.496544,73,39,0
23.906921,24.496544,78,39,0
23.906921,24.496544,82,47,0
23.906921,24.496544,70,39,0
25.482918,26.385664,82,41,0
25.482918,26.385664,78,34,0
25.482918,26.385664,70,34,0
25.482918,26.385664,75,34,0
27.366484,29.542149,75,32,0
27.366484,29.542149,87,39,0
27.366484,29.542149,78,32,0
31.113039,31.302288,66,35,0
31.305494,31.51595,68,38,0
31.496826,31.706472,70,41,0
31.68747,31.89649,71,45,0
31.877487,32.086506,73,48,0
32.067505,32.276524,75,52,0
32.257523,32.46654,76,52,0
32.44754,32.65656,75,55,0
32.637558,32.827576,71,52,0
32.827576,33.036594,78,57,0
33.017593,33.226612,76,55,0
33.20761,33.41663,75,53,0
33.39763,33.606647,73,51,0
33.587646,33.79823,71,49,0
33.777664,34.002422,70,47,0
33.983315,34.174397,71,47,0
34.174397,34.356495,78,47,0
34.35958,34.563286,80,47,0
34.544765,34.74847,82,49,0
34.729954,34.933655,83,50,0
34.91514,35.11884,85,52,0
35.100323,35.30564,87,53,0
35.285507,35.505367,88,52,0
35.48685,35.690556,87,59,0
35.672035,35.87574,85,47,0
35.85722,36.060925,83,47,0
36.042404,36.24611,82,47,0
36.227592,36.431293,80,54,0
36.412777,36.61648,78,47,0
36.59796,36.803146,76,47,0
36.783146,37.001553,75,47,0
36.983147,37.1856,73,51,0
37.167194,37.369648,71,47,0
37.351246,37.555428,70,47,0
37.535294,37.755154,68,47,0
37.736637,37.92182,66,51,0
37.92182,38.107006,76,54,0
38.107006,38.29219,75,57,0
38.29219,38.47738,80,60,0
38.47738,38.665173,78,60,0
38.665173,38.877068,83,45,0
38.877068,39.123047,82,52,0
39.123047,39.416206,88,49,0
39.416206,42.143482,88,49,0
39.416206,42.143482,82,41,0
39.416206,42.143482,76,41,0
42.143482,42.95517,75,41,0
42.143482,42.95517,83,41,0
42.143482,42.95517,87,49,0
42.143482,42.95517,78,41,0
44.307983,45.14624,80,49,0
44.307983,45.14624,75,49,0
44.307983,45.14624,83,49,0
44.307983,45.14624,87,49,0
45.14624,45.27663,75,37,0
45.27663,45.404247,68,37,0
45.404247,45.531864,75,37,0
45.531864,45.65894,76,46,0
45.65894,45.786015,75,40,0
45.786015,45.91309,68,42,0
45.91309,46.0452,75,45,0
46.0452,47.184055,76,49,0
47.184055,47.310596,70,41,0
47.310596,47.437138,75,46,0
47.437138,47.563675,74,42,0
47.563675,47.690216,75,44,0
47.690216,47.816753,70,37,0
47.816753,47.943295,75,43,0
47.943295,48.06983,73,37,0
48.06983,48.196373,72,52,0
48.196373,48.322914,75,46,0
48.322914,48.44945,72,55,0
48.44945,48.575993,80,47,0
48.575993,48.70253,73,60,0
48.70253,48.82907,80,54,0
48.82907,48.95561,75,63,0
48.95561,49.09131,80,58,0
49.09131,49.59534,76,70,0
49.59534,50.22538,64,53,0
50.22538,50.351387,61,42,0
50.351387,50.477394,66,50,0
50.477394,50.603405,65,37,0
50.603405,50.729412,66,51,0
50.729412,50.85542,61,43,0
50.85542,50.981426,66,51,0
50.981426,51.11354,64,44,0
51.11354,51.37776,63,54,0
51.37776,51.881794,75,60,0
51.881794,52.133812,73,52,0
52.133812,52.25982,71,63,0
52.25982,52.385826,75,53,0
52.385826,52.511837,71,62,0
52.511837,52.64815,75,53,0
52.64815,52.77416,76,63,0
52.77416,52.900166,75,60,0
52.900166,53.026173,68,65,0
53.026173,53.152184,71,60,0
52.64815,53.28089,83,63,0
53.28089,53.409603,80,59,0
53.409603,53.538315,81,65,0
53.538315,53.680443,85,59,0
53.152184,53.680443,76,58,0
53.680443,53.810833,76,70,0
53.810833,53.94122,81,59,0
53.680443,53.94122,69,58,0
53.94122,54.07161,75,73,0
54.07161,54.217896,80,71,0
53.94122,54.217896,71,62,0
54.217896,54.35118,75,81,0
54.35118,54.484467,80,73,0
54.217896,54.484467,71,69,0
54.484467,54.617752,75,81,0
54.617752,54.759933,79,77,0
54.484467,54.759933,73,69,0
54.759933,54.899815,75,81,0
54.899815,55.044174,80,74,0
54.759933,55.044174,71,69,0
55.044174,55.19338,75,81,0
55.19338,55.347645,82,72,0
55.044174,55.347645,70,69,0
56.70634,58.33536,71,32,0
56.70634,58.33536,80,32,0
56.70634,58.33536,75,32,0
56.70634,58.33536,83,38,0
60.354908,62.071205,71,32,0
60.354908,62.071205,80,32,0
60.354908,62.071205,83,38,0
60.354908,62.071205,76,32,0
65.32573,66.95474,80,32,0
65.32573,66.95474,85,38,0
65.32573,66.95474,76,32,0
65.32573,66.95474,73,32,0
69.26462,70.89363,81,32,0
69.26462,70.89363,76,32,0
69.26462,70.89363,73,32,0
69.26462,70.89363,85,38,0
71.54524,71.708145,69,37,0
71.76244,71.979645,69,32,0
71.979645,72.196846,81,41,0
72.41405,73.71726,93,45,0
72.196846,73.71726,81,46,0
73.71726,74.53972,80,51,0
73.71726,74.53972,92,61,0
74.53972,75.31581,76,49,0
74.53972,75.31581,88,58,0
75.31581,76.09191,87,55,0
75.31581,76.09191,75,46,0
76.09191,76.868004,86,53,0
76.09191,76.868004,74,45,0
76.868004,77.63779,71,42,0
76.868004,77.63779,83,50,0
77.63779,77.91262,80,51,0
77.91262,78.183365,76,45,0
78.183365,78.45014,75,45,0
78.45014,78.71306,74,45,0
78.71306,78.97223,71,45,0
78.97223,79.22825,68,45,0
79.22825,79.4807,64,48,0
79.4807,79.729546,63,42,0
79.729546,79.97504,62,42,0
95.93281,96.94652,59,34,0
95.93281,96.94652,62,41,0
96.94652,97.03306,62,42,0
96.94652,97.03306,59,35,0
97.45002,97.94182,62,42,0
97.45002,97.94182,59,35,0
97.94182,98.8942,59,36,0
97.94182,98.8942,62,43,0
98.8942,98.97879,59,38,0
98.8942,98.97879,67,45,0
99.35599,99.868805,67,47,0
99.35599,99.868805,59,38,0
99.868805,100.81003,64,40,0
99.868805,100.81003,67,47,0
100.81003,100.894615,67,51,0
100.81003,100.894615,64,42,0
101.2646,101.73704,64,42,0
101.2646,101.73704,67,51,0
101.73704,102.606606,72,53,0
101.73704,102.606606,64,44,0
102.606606,102.68639,72,55,0
102.606606,102.68639,64,46,0
103.03996,103.49109,72,52,0
103.03996,103.49109,64,52,0
103.49109,104.33405,69,48,0
103.49109,104.33405,72,58,0
104.33405,104.43472,69,54,0
104.33405,104.43472,72,65,0
104.73673,105.16839,72,69,0
104.73673,105.16839,69,57,0
105.16839,105.973755,77,73,0
105.16839,105.973755,69,60,0
105.973755,106.07053,77,82,0
105.973755,106.07053,74,67,0
105.973755,106.07053,69,67,0
106.360855,106.79251,77,86,0
106.360855,106.79251,69,71,0
106.360855,106.79251,74,71,0
106.79251,107.19519,81,91,0
106.79251,107.19519,76,76,0
106.79251,107.19519,69,76,0
106.79251,107.19519,73,76,0
107.19519,107.24553,81,89,0
107.19519,107.24553,76,75,0
107.19519,107.24553,73,75,0
107.19519,107.24553,69,75,0
107.39654,107.59788,76,74,0
107.39654,107.59788,73,74,0
107.39654,107.59788,69,74,0
107.39654,107.59788,81,89,0
107.59788,108.000565,76,73,0
107.59788,108.000565,69,73,0
107.59788,108.000565,81,87,0
107.59788,108.000565,73,73,0
108.000565,108.0509,81,86,0
108.000565,108.0509,69,71,0
108.000565,108.0509,73,71,0
108.000565,108.0509,76,71,0
108.201904,108.40325,69,71,0
108.201904,108.40325,76,71,0
108.201904,108.40325,73,71,0
108.201904,108.40325,81,85,0
108.40325,108.80593,69,70,0
108.40325,108.80593,73,70,0
108.40325,108.80593,81,83,0
108.40325,108.80593,76,70,0
108.80593,108.85627,81,82,0
108.80593,108.85627,69,68,0
109.00728,109.20862,69,68,0
109.00728,109.20862,81,81,0
109.20862,109.615204,81,73,0
109.20862,109.615204,69,61,0
109.615204,109.66605,81,65,0
109.615204,109.66605,69,54,0
109.818596,110.02198,81,61,0
109.818596,110.02198,69,51,0
110.02198,110.437454,69,47,0
110.02198,110.437454,81,57,0
110.437454,110.49069,69,40,0
110.437454,110.49069,81,49,0
110.65215,110.8718,81,45,0
110.65215,110.8718,69,37,0
110.8718,111.32198,81,32,0
110.8718,111.32198,69,27,0
111.32198,111.379555,69,27,0
111.32198,111.379555,81,32,0
111.555664,111.821,69,27,0
111.555664,111.821,81,32,0
111.821,111.8933,81,40,0
111.8933,111.96529,82,36,0
111.96529,112.03692,81,40,0
112.03692,112.10827,82,35,0
112.10827,112.17926,81,40,0
112.17926,112.249985,82,36,0
112.249985,112.32035,81,40,0
112.32035,112.39043,82,36,0
112.39043,112.46023,81,40,0
112.46023,112.52969,82,36,0
112.52969,112.59914,81,40,0
112.59914,112.66858,82,35,0
112.66858,112.73803,81,40,0
112.73803,112.80747,82,36,0
112.80747,112.876915,81,40,0
112.876915,112.94636,82,35,0
112.94636,113.01581,81,40,0
113.01581,113.08525,82,34,0
113.08525,113.15469,81,48,0
113.15469,113.22414,82,43,0
113.22414,113.29339,81,49,0
113.29339,113.36259,82,43,0
113.36259,113.43156,81,50,0
113.43156,113.5004,82,43,0
113.5004,113.56913,84,52,0
113.56913,113.63769,86,47,0
113.63769,113.70594,84,53,0
113.70594,113.77397,86,47,0
113.77397,113.842094,84,54,0
113.842094,113.910355,86,49,0
113.910355,113.97868,84,56,0
113.97868,114.04718,86,50,0
114.04718,114.11572,84,57,0
114.11572,114.18445,86,52,0
114.18445,114.253204,84,58,0
114.253204,114.322426,86,51,0
114.322426,114.392525,84,60,0
114.392525,114.46236,86,54,0
114.46236,114.53191,84,61,0
114.53191,114.60121,86,54,0
114.60121,114.67025,84,62,0
114.67025,114.738976,86,53,0
114.738976,114.807465,89,64,0
114.807465,114.87596,91,57,0
114.87596,114.94445,89,65,0
114.94445,115.01295,91,57,0
115.01295,115.081436,89,66,0
115.081436,115.14993,91,60,0
115.14993,115.218285,89,68,0
115.218285,115.28664,91,61,0
115.28664,115.35518,89,69,0
115.35518,115.42398,91,63,0
115.42398,115.49297,89,70,0
115.49297,115.56223,91,62,0
115.56223,115.66534,89,78,0
115.66534,115.76808,87,77,0
115.76808,115.87082,86,76,0
115.87082,115.97356,84,75,0
115.97356,116.076294,82,73,0
116.076294,116.17904,81,72,0
116.17904,116.28178,79,71,0
116.28178,116.38457,77,73,0
116.38457,116.487854,75,75,0
116.487854,116.59192,74,76,0
116.59192,116.70139,72,78,0
116.70139,116.81388,77,79,0
116.81388,117.02222,62,75,0
116.81388,117.02222,65,75,0
116.81388,117.02222,70,89,0
116.81388,117.02222,58,75,0
117.43888,117.56388,67,50,0
117.54305,117.66805,65,43,0
117.64722,117.77222,63,50,0
117.75138,117.87638,62,47,0
117.85555,117.98055,60,47,0
117.95972,118.08506,58,47,0
118.06409,118.18996,57,50,0
118.168976,118.294754,58,44,0
118.27385,118.399284,57,44,0
118.37838,118.503784,55,44,0
118.4829,118.58712,53,50,0
118.58712,118.691284,55,44,0
118.691284,118.79492,53,44,0
118.79492,118.89907,51,44,0
118.89907,119.003944,50,50,0
119.003944,119.109566,51,44,0
119.109566,119.21593,50,44,0
119.21593,119.32305,48,44,0
119.32305,119.73972,46,50,0
130.68672,130.79018,58,65,0
131.10056,131.1702,76,65,0
131.1702,131.2396,77,59,0
131.2396,131.30872,76,65,0
131.30872,131.37756,77,60,0
131.37756,131.44617,76,65,0
131.44617,131.5145,77,61,0
131.5145,131.58257,76,65,0
131.58257,131.65094,77,65,0
131.65094,131.7196,76,65,0
131.7196,131.77133,77,61,0
131.77133,131.82323,76,65,0
131.82323,131.8809,74,61,0
131.8809,131.9386,76,61,0
131.9386,132.40218,77,69,0
132.6127,132.74081,77,62,0
132.71947,132.84758,76,52,0
132.82622,132.95433,74,52,0
132.93298,133.0611,72,52,0
133.03975,133.16907,70,58,0
133.1465,133.28282,69,51,0
133.2593,133.72186,74,69,0
133.93462,134.06459,74,62,0
134.04292,134.17288,72,52,0
134.15123,134.28119,70,52,0
134.25954,134.3895,69,52,0
134.36783,134.49869,67,58,0
134.47614,134.61292,65,51,0
134.58891,135.06148,70,69,0
135.2862,135.4171,70,66,0
135.3953,135.5262,69,65,0
135.50438,135.63528,67,64,0
135.61346,135.74438,69,63,0
135.72256,135.85347,67,61,0
135.83165,135.96255,65,62,0
135.94075,136.07166,64,66,0
136.04984,136.18074,65,59,0
136.15892,136.28984,64,59,0
136.26802,136.3771,62,59,0
136.3771,136.48619,60,59,0
136.48619,136.61711,62,62,0
136.59529,136.7262,64,57,0
136.70438,136.8353,65,57,0
136.81348,136.94438,66,57,0
136.92256,137.05347,67,57,0
137.03165,137.1641,69,57,0
137.14075,137.25748,67,57,0
137.25748,137.38885,65,60,0
137.36696,137.49835,67,61,0
137.47646,137.60783,69,61,0
137.58594,137.71733,70,62,0
137.69543,137.82681,71,63,0
137.80492,137.93631,72,63,0
137.91441,138.04579,74,64,0
138.0239,138.15529,72,60,0
138.13339,138.26477,70,64,0
138.24287,138.37427,69,63,0
138.35237,138.48375,67,62,0
138.46185,138.5946,65,60,0
138.57135,138.71088,64,65,0
138.68762,138.82654,65,56,0
138.8039,138.93974,64,58,0
138.91711,139.03032,62,58,0
139.03032,139.1617,60,62,0
139.1398,139.2712,62,62,0
139.2493,139.38068,64,58,0
139.35878,139.49017,65,58,0
139.46828,139.59966,66,58,0
139.57776,139.70915,67,58,0
139.68726,139.81863,69,58,0
139.79674,139.90623,65,58,0
139.90623,140.04576,64,66,0
140.0225,140.16142,65,62,0
140.1388,140.27464,72,59,0
140.252,140.3652,70,59,0
140.3652,140.49611,69,62,0
140.47429,140.6052,70,56,0
140.58339,140.7143,72,56,0
140.69247,140.80156,70,56,0
140.80156,140.93248,68,58,0
140.91066,141.04156,69,57,0
141.01974,141.15065,70,57,0
141.12885,141.23793,69,57,0
141.23793,141.37692,67,68,0
141.35376,141.49214,68,62,0
141.46959,141.60493,75,68,0
141.58237,141.69516,74,62,0
141.69516,141.82607,72,64,0
141.80424,141.93515,73,59,0
141.91333,142.04425,74,59,0
142.02243,142.13152,73,59,0
142.13152,142.26242,71,62,0
142.24062,142.37152,72,58,0
142.3497,142.4806,74,58,0
142.45879,142.56789,72,58,0
142.56789,142.71017,68,79,0
142.68646,142.82776,69,68,0
142.80504,142.9414,70,68,0
142.91867,143.0323,69,68,0
143.0323,143.1418,64,68,0
143.1418,143.25128,65,64,0
143.25128,143.36078,67,64,0
143.36078,143.47026,65,64,0
142.56789,143.47026,63,79,0
143.47026,143.58138,71,68,0
143.58138,143.69249,72,63,0
143.69249,143.80878,74,63,0
143.80878,143.9382,72,63,0
143.47026,144.1596,65,71,0
144.1596,144.27031,62,65,0
144.6024,144.81593,69,45,0
144.381,145.02945,74,76,0
144.81593,145.249,70,50,0
145.48428,145.59793,58,65,0
145.92433,146.14093,66,45,0
145.71156,146.35754,70,76,0
146.14093,146.57863,67,50,0
146.81862,146.9349,67,61,0
147.05118,147.29771,79,68,0
147.27591,147.49408,71,51,0
147.27591,147.5159,77,61,0
147.49408,147.71227,72,51,0
147.49408,147.735,75,60,0
147.71227,147.93954,67,51,0
147.71227,147.96193,76,60,0
147.93954,148.05148,77,70,0
147.93954,148.05148,72,59,0
148.16342,148.40057,65,59,0
148.40057,148.61797,72,59,0
148.61797,148.83536,66,59,0
148.40057,149.05275,75,78,0
149.05275,149.27818,75,59,0
148.83536,149.49715,65,59,0
149.27818,149.51906,75,65,0
149.49715,149.71613,65,50,0
149.49715,149.73804,74,59,0
149.71613,149.9351,63,50,0
149.71613,149.957,72,59,0
149.9351,150.15408,62,50,0
149.9351,150.17598,70,59,0
150.15408,150.37306,60,50,0
150.15408,150.39496,69,59,0
150.37306,150.59204,70,59,0
150.37306,150.59204,62,50,0
150.59204,150.70398,65,70,0
150.81592,151.05309,71,59,0
151.05309,151.27048,72,59,0
151.27048,151.48785,66,59,0
151.05309,151.70525,63,78,0
151.70525,151.93068,62,59,0
151.48785,151.93068,65,59,0
151.93068,152.04388,80,77,0
152.15709,152.37488,70,59,0
152.37488,152.59227,76,59,0
152.37488,153.02705,79,85,0
153.02705,153.24445,77,59,0
152.59227,153.24445,70,59,0
153.24445,153.35474,72,77,0
153.46504,153.68892,75,59,0
153.68892,153.90631,79,59,0
153.90631,154.1237,73,59,0
153.68892,154.3411,70,85,0
154.3411,154.56651,69,59,0
154.1237,154.56651,72,59,0
154.56651,154.67973,89,83,0
154.79294,155.01111,81,67,0
155.01111,155.2293,84,67,0
155.2293,155.44748,78,67,0
155.01111,155.66566,87,89,0
155.66566,155.88385,86,71,0
155.44748,155.88385,77,67,0
155.88385,155.99706,92,92,0
156.11026,156.32845,82,67,0
156.32845,156.54662,88,67,0
156.54662,156.98299,82,67,0
156.32845,156.98299,91,102,0
156.98299,157.20117,86,67,0
157.20117,157.42758,83,67,0
156.98299,157.42758,89,77,0
157.42758,157.64577,79,67,0
157.64577,157.86395,84,67,0
157.42758,157.86395,89,77,0
157.86395,158.08212,88,72,0
157.86395,158.08212,79,67,0
158.08212,158.30031,84,67,0
158.30031,158.7449,77,67,0
158.08212,158.7449,87,77,0
158.7449,158.96309,86,77,0
158.7449,158.96309,82,67,0
158.96309,159.18127,85,77,0
158.96309,159.18127,82,67,0
159.18127,159.39946,70,67,0
159.18127,159.50854,73,77,0
159.50854,159.61763,79,68,0
159.39946,159.61763,58,67,0
159.61763,159.72673,82,71,0
159.72673,159.83582,85,73,0
159.83582,159.90927,76,76,0
159.90927,159.9827,77,64,0
159.9827,160.0559,76,76,0
159.83582,160.0559,85,76,0
160.0559,160.12889,77,64,0
160.0559,160.16533,84,69,0
160.12889,160.20169,76,76,0
160.20169,160.274,77,64,0
160.16533,160.274,82,69,0
160.274,160.34628,76,76,0
160.274,160.3825,81,72,0
160.34628,160.41875,77,64,0
160.41875,160.49142,76,76,0
160.3825,160.49142,82,67,0
160.49142,160.54607,77,64,0
160.54607,160.60081,76,57,0
160.49142,160.60081,84,67,0
160.60081,160.65565,74,57,0
160.65565,160.71059,76,57,0
160.60081,160.71059,82,67,0
160.71059,160.82077,81,73,0
160.82077,160.93106,79,67,0
160.93106,161.04137,81,67,0
161.04137,161.15154,82,67,0
160.71059,161.15154,77,73,0
161.15154,161.26097,84,77,0
161.26097,161.36993,82,71,0
161.36993,161.47841,81,70,0
161.47841,161.58632,79,69,0
161.58632,161.69373,77,68,0
161.69373,161.80206,79,69,0
161.80206,161.91139,77,69,0
161.91139,162.02159,75,69,0
162.02159,162.13028,74,73,0
162.13028,162.23898,85,82,0
162.02159,162.23898,62,67,0
162.23898,162.34767,86,85,0
162.34767,162.4566,85,81,0
162.4566,162.53004,78,76,0
162.53004,162.6032,79,64,0
162.6032,162.67596,78,76,0
162.4566,162.67596,87,76,0
162.67596,162.74838,79,64,0
162.67596,162.78447,86,69,0
162.74838,162.82025,78,76,0
162.82025,162.89174,79,64,0
162.78447,162.89174,84,69,0
162.89174,162.9635,78,76,0
162.89174,162.99948,83,72,0
162.9635,163.03548,79,64,0
163.03548,163.10774,78,76,0
162.99948,163.10774,84,67,0
163.10774,163.16208,79,64,0
163.16208,163.21657,78,57,0
163.10774,163.21657,86,67,0
163.21657,163.27121,75,57,0
163.27121,163.326,78,57,0
163.21657,163.326,84,67,0
163.326,163.4359,83,73,0
163.4359,163.54579,81,67,0
163.54579,163.65569,83,67,0
163.65569,163.76556,84,67,0
163.326,163.76556,79,73,0
163.76556,163.87546,86,77,0
163.87546,163.98505,84,71,0
163.98505,164.0944,83,70,0
164.0944,164.20338,80,69,0
164.20338,164.31183,79,68,0
164.31183,164.42073,80,69,0
164.42073,164.53012,79,69,0
164.53012,164.64005,77,69,0
164.64005,164.75034,67,65,0
164.75034,164.86063,71,66,0
164.64005,164.86063,75,65,0
164.86063,164.97092,72,68,0
164.97092,165.08192,73,71,0
165.08192,165.19414,75,74,0
165.19414,165.30586,73,74,0
165.30586,165.41707,72,72,0
165.41707,165.52788,70,70,0
165.52788,165.6376,68,78,0
165.6376,165.74715,70,75,0
165.74715,165.85704,68,73,0
165.85704,165.96715,66,70,0
166.18773,166.29803,73,70,0
166.29803,166.40833,75,70,0
165.96715,166.40833,65,76,0
166.40833,166.51862,77,76,0
166.51862,166.6289,78,74,0
166.6289,166.7392,77,71,0
166.7392,166.8495,75,71,0
166.8495,166.9598,73,72,0
166.9598,167.07008,72,71,0
167.07008,167.18037,70,69,0
167.18037,167.29068,68,68,0
167.29068,167.40097,61,79,0
167.40097,167.51126,63,69,0
167.51126,167.62155,64,69,0
167.62155,167.7406,65,69,0
167.29068,167.8505,73,79,0
167.8505,167.96039,75,74,0
167.96039,168.07027,73,69,0
168.07027,168.18016,72,69,0
167.7406,168.18016,66,74,0
168.18016,168.29005,70,68,0
168.29005,168.39995,68,67,0
168.39995,168.50983,66,66,0
168.50983,168.62701,65,66,0
168.62701,168.73651,58,74,0
168.73651,168.846,60,68,0
168.846,168.95549,61,69,0
168.95549,169.06497,62,70,0
169.06497,169.17447,63,71,0
169.17447,169.28395,62,67,0
169.28395,169.39345,63,67,0
168.62701,169.39345,70,74,0
169.39345,169.50293,65,67,0
169.50293,169.7285,66,74,0
169.7285,169.95154,70,80,0
169.7285,169.95154,67,70,0
169.95154,170.17796,72,82,0
169.95154,170.17796,68,72,0
170.17796,170.40697,73,83,0
170.40697,171.06631,75,90,0
170.40697,171.06631,66,79,0
171.06631,171.28609,75,80,0
171.06631,171.28609,66,70,0
171.28609,171.50587,75,85,0
171.28609,171.50587,66,74,0
171.50587,171.72565,73,80,0
171.50587,171.72565,65,70,0
171.72565,171.94543,72,83,0
171.72565,171.94543,63,73,0
171.94543,172.1727,73,80,0
171.94543,172.1727,61,70,0
172.1727,172.3941,63,70,0
172.1727,172.3941,60,70,0
172.3941,172.50319,65,67,0
172.50319,172.61229,66,68,0
172.3941,172.61229,61,67,0
172.61229,172.72137,68,70,0
172.72137,172.83046,70,71,0
172.61229,172.83046,60,70,0
172.83046,172.93956,72,72,0
172.93956,173.04865,73,74,0
172.83046,173.04865,63,72,0
173.04865,173.15775,74,75,0
173.15775,173.26683,75,77,0
173.26683,173.37592,77,79,0
173.37592,173.48502,75,76,0
173.48502,173.59612,73,74,0
173.59612,173.70723,72,73,0
173.70723,173.81554,70,72,0
173.81554,173.92384,68,71,0
173.92384,174.03293,73,72,0
174.03293,174.14203,75,73,0
174.14203,174.25111,77,75,0
174.25111,174.3602,78,77,0
174.3602,174.4693,79,78,0
174.4693,174.57838,80,76,0
174.57838,174.68748,82,81,0
174.68748,174.80199,80,73,0
174.80199,174.91434,78,79,0
174.91434,175.0267,77,78,0
175.0267,175.13618,75,76,0
175.13618,175.24568,73,75,0
175.24568,175.3568,60,70,0
175.3568,175.4679,61,63,0
175.24568,175.4679,68,80,0
175.4679,175.57983,60,63,0
175.57983,175.69179,58,65,0
175.69179,175.80087,56,68,0
175.80087,175.90996,58,58,0
175.90996,176.01906,60,58,0
176.01906,176.12814,61,58,0
176.12814,176.23723,62,64,0
176.23723,176.34633,63,58,0
175.69179,176.34633,66,80,0
176.34633,176.45541,60,58,0
176.45541,176.56451,61,58,0
176.34633,176.56451,65,80,0
176.56451,176.67729,64,64,0
176.67729,176.79007,65,58,0
176.79007,176.89996,66,58,0
176.89996,177.00986,65,58,0
176.56451,177.00986,70,80,0
177.00986,177.11974,62,68,0
177.11974,177.22963,63,57,0
177.22963,177.33952,67,57,0
177.33952,177.44942,68,57,0
177.44942,177.5593,66,65,0
177.5593,177.66919,67,58,0
177.66919,177.78156,68,58,0
177.78156,177.8939,67,58,0
177.8939,178.0034,69,66,0
178.0034,178.11288,70,61,0
177.8939,178.11288,73,70,0
178.11288,178.22238,72,70,0
178.22238,178.33186,70,61,0
178.33186,178.44136,67,68,0
178.44136,178.55084,68,60,0
178.55084,178.66034,70,60,0
178.66034,178.76982,68,60,0
178.76982,178.87932,66,66,0
178.87932,178.9888,67,61,0
178.33186,178.9888,72,80,0
178.9888,179.10117,68,61,0
179.10117,179.21352,67,61,0
178.9888,179.21352,70,80,0
179.21352,179.32262,69,68,0
179.32262,179.4317,70,62,0
179.4317,179.54282,72,62,0
179.54282,179.65393,70,62,0
179.21352,179.65393,75,80,0
179.65393,179.76302,68,68,0
179.76302,179.8721,70,61,0
179.8721,179.9812,72,61,0
179.9812,180.09029,73,61,0
180.09029,180.19939,72,68,0
180.19939,180.30847,73,63,0
180.30847,180.41756,71,63,0
180.41756,180.52666,72,63,0
180.52666,180.63574,71,68,0
180.63574,180.74483,72,62,0
180.52666,180.74483,77,80,0
180.74483,180.85847,73,62,0
180.85847,180.9721,72,62,0
180.9721,181.08119,69,68,0
180.9721,181.08119,77,80,0
181.08119,181.19029,70,63,0
181.19029,181.301,72,63,0
181.19029,181.301,75,80,0
181.301,181.4117,70,63,0
181.4117,181.52078,62,68,0
181.52078,181.62987,63,63,0
181.62987,181.73897,65,63,0
181.73897,181.84805,63,63,0
181.84805,181.95715,67,68,0
181.95715,182.06624,68,61,0
181.84805,182.06624,73,80,0
182.06624,182.17818,70,61,0
182.17818,182.29012,68,61,0
182.29012,182.39922,67,68,0
182.39922,182.5083,68,63,0
182.29012,182.5083,73,80,0
182.5083,182.61739,70,63,0
182.61739,182.72649,68,63,0
182.5083,182.72649,72,80,0
182.72649,182.83557,67,68,0
182.83557,182.94466,68,62,0
182.94466,183.05376,70,62,0
182.94466,183.05376,73,80,0
183.05376,183.16331,71,62,0
183.16331,183.23775,91,75,0
183.16331,183.2748,72,68,0
183.23775,183.3117,92,60,0
183.3117,183.38063,91,68,0
183.2748,183.38521,70,68,0
183.38521,183.45828,92,60,0
183.38521,183.49464,69,61,0
183.45828,183.53088,91,75,0
183.49464,183.59407,70,61,0
183.53088,183.60306,92,60,0
183.60306,183.67451,91,75,0
183.60306,183.7103,70,68,0
183.67451,183.74614,92,60,0
183.74614,183.81804,91,75,0
183.7103,183.81804,68,58,0
183.81804,183.87218,92,60,0
183.87218,183.92648,91,75,0
183.81804,183.92648,63,65,0
183.92648,183.98093,89,60,0
183.98093,184.03548,91,60,0
183.92648,184.03548,68,60,0
184.03548,184.50441,92,75,0
184.72499,184.83528,92,67,0
184.72499,184.83528,67,66,0
184.83528,184.94559,91,62,0
184.94559,185.05588,89,69,0
185.05588,185.16617,87,60,0
185.16617,185.27937,85,60,0
185.27937,185.39258,84,60,0
184.94559,185.39258,68,74,0
185.39258,185.85423,89,68,0
186.07242,186.1815,89,67,0
186.07242,186.1815,64,66,0
186.1815,186.2906,87,62,0
186.2906,186.39969,85,69,0
186.39969,186.50877,84,60,0
186.50877,186.61787,82,60,0
186.61787,186.72696,80,60,0
186.2906,186.72696,65,74,0
186.72696,187.1879,85,68,0
187.41177,187.52208,85,67,0
187.52208,187.63237,84,60,0
187.41177,187.63237,75,72,0
187.63237,187.74266,82,67,0
187.74266,187.85295,84,61,0
187.63237,187.85295,73,80,0
187.85295,187.96326,82,61,0
187.96326,188.07355,80,61,0
187.85295,188.07355,70,68,0
188.07355,188.18384,79,67,0
188.18384,188.29413,80,62,0
188.07355,188.29413,70,68,0
188.29413,188.40442,79,62,0
188.40442,188.51472,77,62,0
188.51472,188.62502,75,62,0
188.62502,188.7353,77,61,0
188.7353,188.84894,79,63,0
188.84894,188.96259,80,64,0
188.96259,189.07329,81,66,0
189.07329,189.18398,82,68,0
189.18398,189.2985,84,69,0
189.2985,189.413,82,67,0
189.413,189.52328,80,69,0
189.52328,189.63358,82,64,0
189.63358,189.74635,84,68,0
189.74635,189.85915,85,69,0
189.85915,189.97278,86,72,0
189.97278,190.08641,87,73,0
190.08641,190.20006,89,75,0
190.20006,190.31369,87,71,0
190.31369,190.42996,85,74,0
190.42996,190.54625,84,73,0
190.54625,190.66252,82,71,0
190.66252,190.77881,80,70,0
190.77881,191.00269,82,78,0
190.77881,191.00269,73,78,0
191.22656,191.89583,70,73,0
191.22656,191.89583,73,80,0
191.89583,192.12292,65,69,0
191.89583,192.12292,73,75,0
192.12483,192.36798,65,71,0
192.12483,192.36798,73,78,0
192.34543,192.59372,72,74,0
192.34543,192.59372,63,68,0
192.57098,192.82098,61,70,0
192.57098,192.82098,70,77,0
192.79826,193.02553,60,62,0
192.79826,193.02553,68,68,0
193.02553,193.28134,67,79,0
193.02553,193.28134,58,72,0
193.25809,193.49043,60,68,0
193.25809,193.49043,68,74,0
193.49043,193.60104,69,62,0
193.60104,193.71135,70,57,0
193.71135,193.82394,72,61,0
193.82394,193.93672,73,62,0
193.93672,194.0503,75,64,0
194.0503,194.16393,77,65,0
194.16393,194.27757,78,67,0
194.27757,194.3912,77,63,0
194.3912,194.50728,75,66,0
194.50728,194.62357,73,65,0
194.62357,194.73984,72,63,0
194.73984,194.85612,70,63,0
194.85612,195.09926,66,71,0
194.85612,195.09926,75,78,0
195.0767,195.325,73,74,0
195.0767,195.325,65,68,0
195.30228,195.55228,63,70,0
195.30228,195.55228,72,77,0
195.52954,195.75682,61,62,0
195.52954,195.75682,70,68,0
195.75682,196.01263,69,79,0
195.75682,196.01263,60,72,0
195.98938,196.22173,61,68,0
195.98938,196.22173,70,74,0
196.22173,196.35982,50,62,0
196.33691,196.47382,51,57,0
196.4511,196.58685,53,61,0
196.56433,196.6989,55,62,0
196.67654,196.81003,56,64,0
196.78789,196.91986,58,65,0
196.89793,197.03014,59,67,0
197.008,197.14142,58,63,0
197.11908,197.25375,56,66,0
197.2312,197.36711,55,65,0
197.34439,197.48294,53,63,0
197.45815,197.5821,51,63,0
197.5821,197.72038,52,62,0
197.6975,197.83296,53,57,0
197.81049,197.94492,55,61,0
197.92256,198.05624,56,62,0
198.03403,198.16705,58,64,0
198.14494,198.2771,60,65,0
198.2551,198.38779,61,67,0
198.36557,198.4993,60,63,0
198.4769,198.61171,58,66,0
198.58916,198.72507,56,65,0
198.70235,198.84282,55,63,0
198.81639,198.94855,53,63,0
198.94855,199.1917,71,71,0
198.94855,199.1917,75,78,0
199.16914,199.41743,73,74,0
199.16914,199.41743,70,68,0
199.3947,199.6447,68,70,0
199.3947,199.6447,71,77,0
199.62198,199.84924,66,62,0
199.62198,199.84924,70,68,0
199.84924,200.10506,68,79,0
199.84924,200.10506,65,72,0
200.0818,200.32909,66,68,0
200.0818,200.32909,70,74,0
200.32909,200.57224,76,71,0
200.32909,200.57224,85,78,0
200.54968,200.79797,83,74,0
200.54968,200.79797,75,68,0
200.77524,201.02524,73,70,0
200.77524,201.02524,82,77,0
201.00252,201.22978,71,62,0
201.00252,201.22978,80,68,0
201.22978,201.4849,79,79,0
201.22978,201.4849,70,72,0
201.46234,201.9232,71,68,0
201.46234,201.9232,80,74,0
201.9232,202.38547,83,85,0
201.9232,202.38547,80,78,0
202.38547,202.6364,82,90,0
202.38547,202.6364,79,82,0
202.6364,203.32227,76,78,0
202.6364,203.32227,73,66,0
203.32227,203.79431,76,76,0
203.32227,203.79431,73,64,0
203.79431,204.02597,75,62,0
203.79431,204.02597,71,52,0
204.02597,204.2524,73,68,0
204.02597,204.2524,70,57,0
204.2524,204.48677,71,66,0
204.2524,204.48677,68,56,0
204.48677,204.71753,70,70,0
204.48677,204.71753,67,59,0
204.71753,204.9483,71,66,0
204.71753,204.9483,68,56,0
204.9483,205.1864,73,68,0
204.9483,205.1864,70,57,0
205.1864,205.66035,75,71,0
205.1864,205.66035,71,60,0
205.66228,205.88762,75,70,0
205.66228,205.88762,71,59,0
205.8895,206.58746,71,72,0
205.8895,206.58746,75,85,0
206.58746,207.04553,70,52,0
206.58746,207.04553,73,76,0
207.04553,207.2799,71,66,0
207.04553,207.2799,68,56,0
207.2799,207.51068,70,56,0
207.2799,207.51068,66,47,0
207.51068,207.74144,65,44,0
207.51068,207.74144,68,52,0
207.74144,207.97954,66,45,0
207.74144,207.97954,70,54,0
207.97954,208.20943,71,56,0
207.97954,208.20943,68,48,0
208.20943,208.43932,73,56,0
208.20943,208.43932,66,56,0
208.43932,208.66919,66,51,0
208.66919,208.89476,65,54,0
208.43932,208.89476,75,60,0
208.89476,209.12033,66,45,0
209.12033,209.23483,68,40,0
209.23483,209.35112,66,53,0
208.89476,209.35112,73,54,0
209.35112,209.4683,65,40,0
209.4683,209.5855,68,48,0
209.35112,209.5855,73,48,0
209.5855,209.70088,70,39,0
209.70088,209.81627,58,46,0
209.5855,209.81627,66,46,0
209.81627,209.93166,61,40,0
209.93166,210.04703,66,40,0
210.04703,210.16154,70,52,0
210.16154,210.27663,66,40,0
210.27663,210.39201,71,54,0
210.27663,210.39201,65,40,0
210.39201,210.52132,63,40,0
210.52132,210.75209,73,57,0
210.52132,210.75209,65,41,0
210.75209,210.86748,66,40,0
210.86748,210.98286,68,40,0
210.98286,211.4444,70,50,0
211.55934,211.67429,78,58,0
211.67429,211.78923,77,54,0
211.78923,211.92197,75,58,0
211.92197,212.15274,77,65,0
212.15274,212.26813,78,62,0
212.38351,212.49889,77,67,0
212.49889,212.61427,65,56,0
212.61427,212.72966,68,60,0
212.72966,212.84505,73,64,0
212.26813,212.96043,80,68,0
212.96043,213.07465,89,72,0
212.84505,213.07465,77,70,0
213.07465,213.18828,87,75,0
213.18828,213.30193,85,71,0
213.07465,213.30193,78,75,0
213.30193,213.53006,84,75,0
213.53006,213.645,85,70,0
213.645,213.77106,87,70,0
213.30193,213.77106,80,59,0
213.77106,214.23259,80,66,0
213.77106,214.34798,77,57,0
214.34798,214.46336,77,66,0
214.46336,214.57875,75,65,0
214.57875,214.71327,73,63,0
214.71327,214.82822,72,62,0
214.82822,214.94316,70,61,0
214.94316,215.0581,68,59,0
215.0581,215.17305,66,58,0
215.17305,215.28607,65,69,0
215.17305,215.288,77,75,0
215.40294,215.51788,78,80,0
215.76857,215.88351,68,62,0
215.88351,215.99844,70,62,0
215.99844,216.11339,72,62,0
215.65363,216.22833,80,83,0
216.22833,216.34328,77,62,0
216.11339,216.34328,74,62,0
216.34328,216.45822,75,62,0
216.45822,216.58168,74,62,0
216.34328,216.58168,70,62,0
216.58168,216.69662,70,56,0
216.58168,217.04144,75,62,0
217.04144,217.15683,66,66,0
217.15683,217.2702,90,78,0
217.2702,217.38255,68,78,0
217.2702,217.38255,89,78,0
217.38255,217.49492,87,76,0
217.49492,217.60986,86,74,0
217.60986,217.72481,83,72,0
217.72481,217.84111,82,70,0
217.84111,217.96016,80,68,0
217.49492,217.96016,70,74,0
217.96016,218.18916,70,66,0
217.96016,218.41818,78,74,0
218.18916,218.53268,66,66,0
218.53268,218.64719,78,74,0
218.64719,218.76169,77,72,0
218.76169,218.89743,75,71,0
218.89743,219.01193,74,70,0
219.01193,219.12645,71,68,0
219.12645,219.24095,70,67,0
219.24095,219.35545,68,65,0
219.35545,219.46996,78,78,0
219.35545,219.46996,66,69,0
219.58446,219.69896,80,83,0
219.8347,220.40593,82,88,0
220.40593,220.51913,79,66,0
220.51913,220.63234,77,65,0
220.63234,220.74556,75,65,0
220.74556,220.85876,87,76,0
220.85876,220.97197,83,65,0
220.97197,221.08517,82,65,0
221.08517,221.22154,80,65,0
221.22154,221.33475,92,80,0
221.33475,221.44795,89,67,0
221.44795,221.56116,87,68,0
221.56116,221.69878,86,68,0
221.69878,222.2713,92,87,0
222.2713,222.3858,80,70,0
222.3858,222.5003,78,70,0
222.5003,222.6148,77,70,0
222.6148,222.72801,80,82,0
222.72801,222.84122,77,69,0
222.84122,222.95705,75,69,0
222.95705,223.07288,74,69,0
223.07288,223.18996,77,81,0
223.18996,223.30652,70,70,0
223.30652,223.42253,69,70,0
223.42253,223.53786,70,70,0
223.53786,223.65193,82,85,0
223.65193,223.76659,77,72,0
223.76659,223.88197,76,72,0
223.88197,223.99825,77,72,0
223.99825,224.11232,89,85,0
224.11232,224.22997,82,73,0
224.22997,224.34491,81,73,0
224.34491,224.45963,82,73,0
224.45963,224.57529,94,87,0
224.57529,224.6938,92,76,0
224.6938,224.81532,90,76,0
224.81532,224.95107,89,76,0
224.95107,225.41438,90,87,0
226.35211,226.46619,75,87,0
226.58026,226.69432,73,80,0
226.58026,226.69432,65,67,0
226.8084,226.9229,86,91,0
226.8084,226.9229,71,78,0
226.8084,226.9229,63,66,0
227.0374,227.1519,70,74,0
227.0374,227.1519,61,62,0
227.2664,227.3809,68,71,0
227.2664,227.3809,59,60,0
227.4954,227.60992,66,68,0
227.4954,227.60992,58,57,0
227.2664,228.1952,87,96,0
227.73544,228.6714,71,85,0
227.73544,228.6714,63,72,0
229.13293,229.24701,71,87,0
229.13293,229.24701,63,70,0
229.36107,229.47514,70,80,0
229.36107,229.47514,61,67,0
229.58922,229.70372,82,91,0
229.58922,229.70372,68,78,0
229.58922,229.70372,59,66,0
229.81822,229.93272,66,74,0
229.81822,229.93272,58,62,0
230.04723,230.16173,65,71,0
230.04723,230.16173,56,60,0
230.27623,230.39073,63,68,0
230.27623,230.39073,54,57,0
230.04723,230.97603,83,96,0
230.51627,231.45222,68,85,0
230.51627,231.45222,59,72,0
231.91376,232.02783,68,87,0
231.91376,232.02783,59,70,0
232.14189,232.25597,66,80,0
232.14189,232.25597,58,67,0
232.37004,232.48454,82,91,0
232.37004,232.48454,65,78,0
232.37004,232.48454,56,66,0
232.59904,232.71355,66,74,0
232.59904,232.71355,58,62,0
232.82805,232.94255,65,71,0
232.82805,232.94255,56,60,0
233.05705,233.17155,63,68,0
233.05705,233.17155,54,57,0
232.82805,233.75685,83,96,0
233.75685,234.21663,82,96,0
234.21663,235.60799,80,96,0
235.60799,236.29414,92,109,0
236.52403,236.63898,90,99,0
236.9838,237.09874,89,99,0
237.44357,237.5594,87,107,0
237.90689,238.02362,86,99,0
238.3823,238.4968,68,82,0
238.3823,238.4968,65,69,0
238.6113,238.7258,66,71,0
238.6113,238.7258,63,60,0
238.8403,238.9548,65,81,0
238.8403,238.9548,56,68,0
239.0693,239.1838,66,71,0
239.0693,239.1838,58,60,0
239.29831,239.41283,65,80,0
239.29831,239.41283,56,68,0
239.52733,239.64638,63,71,0
239.52733,239.64638,54,60,0
239.76541,239.87949,62,78,0
239.76541,239.87949,53,66,0
239.99356,240.10762,63,71,0
239.99356,240.10762,54,60,0
240.2217,240.33575,65,81,0
240.2217,240.33575,62,68,0
240.44983,240.5639,66,71,0
240.44983,240.5639,63,60,0
240.67796,240.79204,68,80,0
240.67796,240.79204,65,68,0
240.9061,241.02328,70,60,0
240.9061,241.02328,66,71,0
241.14047,241.25455,72,79,0
241.14047,241.25455,63,67,0
241.36862,241.48268,74,71,0
241.36862,241.48268,65,60,0
241.59676,241.7091,75,79,0
241.59676,241.7091,66,67,0
241.82147,241.93384,77,71,0
241.82147,241.93384,68,60,0
242.04619,242.16069,78,78,0
242.04619,242.16069,70,66,0
242.27519,242.38971,79,71,0
242.27519,242.38971,71,60,0
242.50421,242.62094,80,78,0
242.50421,242.62094,77,66,0
242.73767,242.8544,78,60,0
242.73767,242.8544,82,71,0
242.97113,243.08696,80,68,0
242.97113,243.08696,83,80,0
243.20279,243.31862,78,60,0
243.20279,243.31862,82,71,0
243.43445,243.54765,80,81,0
243.43445,243.54765,71,68,0
243.66087,243.77408,78,71,0
243.66087,243.77408,70,60,0
243.88728,244.00136,75,80,0
243.88728,244.00136,68,68,0
244.11542,244.22949,66,71,0
244.34355,244.45938,65,78,0
244.34355,244.45938,73,66,0
244.57521,244.69104,63,71,0
244.80687,244.9227,61,78,0
244.80687,244.9227,72,66,0
245.03853,245.15437,60,71,0
245.2702,246.67592,63,78,0
246.67592,246.75404,81,71,0
246.67592,246.79309,73,71,0
246.75404,246.832,82,65,0
246.832,246.90982,81,71,0
246.90982,246.98752,82,66,0
246.90982,247.02629,72,66,0
246.98752,247.06505,81,71,0
247.06505,247.14238,82,66,0
247.14238,247.2196,81,71,0
247.14238,247.25821,77,71,0
247.2196,247.29666,82,66,0
247.29666,247.3736,81,71,0
247.3736,247.4504,82,65,0
247.3736,247.48871,75,65,0
247.4504,247.52702,81,71,0
247.52702,247.60347,82,65,0
247.60347,247.67978,81,71,0
247.60347,247.71779,73,71,0
247.67978,247.75581,82,64,0
247.75581,247.83214,81,71,0
247.83214,247.9088,82,67,0
247.83214,247.94725,72,67,0
247.9088,247.98578,81,71,0
247.98578,248.0631,82,67,0
248.0631,248.14061,81,71,0
248.0631,248.17937,78,71,0
248.14061,248.21814,82,66,0
248.21814,248.29565,81,71,0
248.29565,248.41148,72,67,0
248.29565,248.41148,79,67,0
248.41148,248.52695,81,67,0
248.52695,248.60374,75,74,0
248.60374,248.68037,77,69,0
248.68037,248.75691,75,74,0
248.75691,248.83325,77,69,0
248.83325,248.90944,75,74,0
248.90944,248.98549,77,70,0
248.98549,249.0612,75,74,0
249.0612,249.13667,77,70,0
249.13667,249.21214,75,74,0
249.21214,249.28763,77,67,0
249.28763,249.3631,75,74,0
249.3631,249.43857,77,69,0
249.43857,249.51404,75,74,0
249.51404,249.58966,77,69,0
249.58966,249.66577,75,74,0
249.66577,249.7834,73,70,0
249.7834,249.91434,75,68,0
248.52695,249.91434,82,74,0
249.91434,250.03134,82,83,0
249.91434,250.03134,73,70,0
250.14853,250.26572,80,74,0
250.14853,250.26572,72,62,0
250.3829,250.49873,78,74,0
250.3829,250.49873,70,62,0
250.61456,250.7304,77,74,0
250.61456,250.7304,68,62,0
250.84622,250.96205,75,74,0
250.84622,250.96205,66,62,0
251.07788,251.19371,73,74,0
251.07788,251.19371,65,62,0
251.31976,251.43695,75,73,0
251.55414,251.66864,63,71,0
251.78316,251.89766,65,74,0
252.01216,252.12666,66,77,0
251.31976,252.24117,78,87,0
252.24117,252.35567,68,79,0
252.71344,252.83017,78,85,0
252.47017,252.83017,70,82,0
252.9469,253.06363,77,78,0
252.9469,253.06363,68,66,0
253.17813,253.29263,75,76,0
253.17813,253.29263,66,64,0
253.40714,253.52164,73,74,0
253.40714,253.52164,65,62,0
253.63614,253.75066,79,80,0
253.75066,253.86516,85,70,0
253.86516,253.97966,82,71,0
253.97966,254.09416,79,71,0
253.63614,254.09416,76,80,0
254.09416,254.20866,76,74,0
254.20866,254.32317,82,69,0
254.32317,254.43767,79,70,0
254.43767,254.55217,76,70,0
254.55217,254.66669,73,76,0
254.66669,254.78119,79,69,0
254.78119,254.89569,76,69,0
254.89569,255.0102,73,69,0
255.0102,255.12646,72,78,0
255.12646,255.24275,79,69,0
255.24275,255.35858,76,69,0
255.35858,255.47404,72,69,0
255.47404,255.58916,73,77,0
255.58916,255.70401,82,69,0
255.70401,255.81851,79,69,0
255.81851,255.93259,76,69,0
255.93259,256.39157,72,85,0
255.0102,256.39157,70,66,0
256.85013,257.75485,82,87,0
257.75485,257.83112,67,71,0
257.83112,257.90723,68,66,0
257.90723,257.9831,67,63,0
257.9831,258.05872,68,60,0
258.05872,258.13412,67,63,0
258.13412,258.20932,68,59,0
258.20932,258.2842,67,63,0
258.2842,258.35892,68,60,0
258.35892,258.43353,67,63,0
258.43353,258.50845,68,59,0
258.50845,258.5835,67,63,0
258.5835,258.6587,68,59,0
258.6587,258.73407,67,63,0
258.73407,258.8096,68,60,0
258.8096,258.88535,67,63,0
258.88535,258.96124,68,59,0
258.96124,259.0373,67,63,0
259.0373,259.1136,68,59,0
257.75485,259.1136,58,70,0
259.1136,259.34357,60,70,0
259.1136,259.5721,65,70,0
259.34357,260.47882,75,70,0
260.47882,260.55475,60,60,0
260.55475,260.6305,61,56,0
260.6305,260.706,60,60,0
260.706,260.78134,61,56,0
260.78134,260.85648,60,60,0
260.85648,260.9314,61,56,0
260.9314,261.0063,60,60,0
261.0063,261.0812,61,56,0
261.0812,261.1561,60,60,0
261.1561,261.23102,61,56,0
261.23102,261.3059,60,60,0
261.3059,261.38083,61,56,0
261.38083,261.4555,60,60,0
261.4555,261.52985,61,56,0
261.52985,261.60446,60,60,0
261.60446,261.67926,61,56,0
261.67926,261.75433,60,60,0
261.75433,261.8296,61,56,0
260.9314,261.8296,87,116,0
261.8296,261.90527,72,60,0
261.90527,261.9809,73,56,0
261.9809,262.05627,72,60,0
262.05627,262.13135,73,56,0
262.13135,262.20618,72,60,0
262.20618,262.28082,73,56,0
262.28082,262.35513,72,60,0
262.35513,262.4292,73,56,0
262.4292,262.50345,72,60,0
262.50345,262.5779,73,56,0
262.5779,262.65253,72,60,0
262.65253,262.72742,73,56,0
261.8296,262.72742,63,79,0
262.72742,262.80252,72,60,0
262.80252,262.87772,73,56,0
262.87772,262.9529,72,60,0
262.9529,263.0281,73,56,0
263.0281,263.10327,72,60,0
263.10327,263.17847,73,56,0
262.72742,263.17847,64,79,0
263.17847,263.40845,65,59,0
263.17847,263.637,70,59,0
263.40845,264.5437,73,59,0
264.5437,264.61963,58,51,0
264.61963,264.69537,60,47,0
264.69537,264.77087,58,51,0
264.77087,264.84622,60,47,0
264.84622,264.92136,58,51,0
264.92136,264.99625,60,47,0
264.99625,265.07117,58,60,0
265.07117,265.14606,60,56,0
265.14606,265.22098,58,60,0
265.22098,265.2959,60,56,0
265.2959,265.3708,58,60,0
265.3708,265.4457,60,56,0
265.4457,265.5204,58,60,0
265.5204,265.59473,60,56,0
265.59473,265.6693,58,60,0
265.6693,265.72543,60,60,0
265.72543,265.78162,58,56,0
265.78162,265.838,57,56,0
265.838,265.89447,58,56,0
264.5437,265.89447,85,110,0
265.89447,265.97015,70,60,0
265.97015,266.04578,72,56,0
266.04578,266.12115,70,60,0
266.12115,266.19623,72,56,0
266.19623,266.27106,70,60,0
266.27106,266.3457,72,56,0
266.3457,266.42,70,60,0
266.42,266.49408,72,56,0
266.49408,266.56833,70,60,0
266.56833,266.6428,72,56,0
266.6428,266.7174,70,60,0
266.7174,266.7923,72,56,0
266.7923,266.8674,70,60,0
266.8674,266.9426,72,56,0
266.9426,267.0178,70,60,0
267.0178,267.09296,72,56,0
267.09296,267.16815,70,60,0
267.16815,267.24335,72,56,0
265.89447,267.24335,61,79,0
267.24335,267.31903,70,60,0
267.31903,267.39462,72,56,0
267.39462,267.47,70,60,0
267.47,267.54507,72,56,0
267.54507,267.61993,70,60,0
267.61993,267.69455,72,56,0
267.69455,267.7689,70,60,0
267.7689,267.84296,72,56,0
267.84296,267.9172,70,60,0
267.24335,267.9172,67,69,0
267.9172,267.99167,72,56,0
267.99167,268.06628,70,60,0
268.06628,268.14117,72,56,0
267.9172,268.14117,65,59,0
268.14117,268.21628,70,60,0
268.21628,268.29147,72,56,0
268.29147,268.36664,70,60,0
268.14117,268.36664,63,59,0
268.36664,268.42303,72,56,0
268.42303,268.47943,70,56,0
268.47943,268.53583,69,53,0
268.53583,268.59222,70,54,0
268.36664,268.59222,61,59,0
268.59222,269.2689,77,69,0
269.2689,269.49448,75,47,0
269.49448,269.72003,73,51,0
269.72003,269.9456,72,48,0
269.9456,270.17557,71,51,0
269.9456,270.17557,67,51,0
270.17557,270.40414,72,46,0
270.17557,270.40414,68,46,0
270.40414,270.6308,75,51,0
270.40414,270.6308,69,51,0
270.6308,270.8572,73,48,0
270.6308,270.8572,70,48,0
270.8572,271.0839,72,51,0
270.8572,271.0839,63,51,0
271.0839,271.31082,70,49,0
271.31082,271.53894,69,51,0
271.0839,271.53894,61,49,0
271.53894,271.7671,70,45,0
271.53894,271.99524,61,45,0
271.99524,272.2186,60,45,0
271.7671,272.22336,63,51,0
272.33743,272.47397,80,52,0
272.4515,272.58633,79,51,0
272.56387,272.6987,77,50,0
272.6762,272.78857,75,60,0
272.78857,272.90094,70,48,0
272.90094,273.0133,79,64,0
272.90094,273.0133,72,40,0
273.0133,273.1383,73,53,0
273.1383,273.25192,72,48,0
273.25192,273.36557,60,48,0
273.1383,273.36557,80,68,0
273.36557,273.47922,63,48,0
273.47922,273.59283,68,48,0
273.59283,273.70648,72,59,0
273.70648,273.82013,84,52,0
273.82013,273.93375,73,62,0
273.82013,273.93375,82,51,0
273.93375,274.0528,80,50,0
274.0528,274.50394,79,50,0
274.50394,274.6167,80,51,0
274.6167,274.7295,72,50,0
274.0528,274.7295,75,65,0
274.7295,274.8423,75,48,0
274.8423,274.95505,80,57,0
274.95505,275.06784,84,74,0
275.18063,275.2934,85,77,0
275.41245,275.86752,87,80,0
275.86752,275.98032,60,63,0
275.98032,276.09308,72,52,0
276.09308,276.20587,61,65,0
276.09308,276.20587,70,50,0
276.20587,276.31866,68,49,0
276.31866,276.76978,67,50,0
276.31866,276.88132,63,68,0
276.88132,276.99283,60,62,0
276.99283,277.10437,58,65,0
277.10437,277.21588,56,68,0
276.76978,277.3291,68,50,0
277.3291,277.4423,68,62,0
277.21588,277.4423,60,71,0
277.4423,277.5555,72,65,0
277.5555,277.6687,77,67,0
277.6687,277.78192,80,72,0
277.78192,277.8951,77,65,0
277.8951,278.00833,82,75,0
277.8951,278.00833,75,65,0
278.00833,278.12738,73,62,0
278.12738,278.69128,72,66,0
278.69128,278.82663,68,65,0
278.80408,278.93942,67,63,0
278.12738,279.02963,84,79,0
278.91684,279.05203,65,61,0
279.14157,279.2535,80,65,0
279.2535,279.36545,79,69,0
279.36545,279.4774,77,63,0
279.4774,279.58975,76,71,0
279.02963,279.58975,68,71,0
279.58975,279.70212,72,61,0
279.70212,279.81448,77,65,0
279.70212,279.81448,70,65,0
279.81448,279.92685,68,60,0
279.92685,280.03918,80,66,0
280.15155,280.26694,82,68,0
280.5027,280.61545,72,62,0
280.61545,280.72824,74,64,0
280.72824,280.841,76,66,0
280.3899,280.9538,84,69,0
280.9538,281.0666,80,62,0
281.0666,281.17935,79,65,0
280.841,281.29214,77,68,0
281.17935,281.29214,77,60,0
281.29214,281.40494,81,66,0
281.5177,281.6349,82,69,0
281.86963,281.98242,72,58,0
281.98242,282.09518,74,61,0
282.09518,282.20798,76,64,0
281.75684,282.32077,84,72,0
282.32077,282.43353,81,63,0
282.20798,282.5428,77,68,0
282.43353,282.54465,79,65,0
282.54465,282.65576,77,62,0
282.65576,282.76813,82,68,0
282.8805,282.995,84,71,0
283.2308,283.34317,77,59,0
283.34317,283.4555,79,61,0
283.4555,283.5709,81,63,0
283.5709,283.6739,82,65,0
283.11844,283.68326,85,74,0
283.79562,283.908,78,58,0
283.908,284.02036,77,56,0
283.68326,284.02036,82,58,0
284.02036,284.1327,75,63,0
284.24506,284.35742,77,65,0
284.02036,284.4779,81,63,0
284.59027,284.70264,81,60,0
284.70264,284.81497,84,62,0
284.81497,284.92734,85,65,0
284.4779,285.03888,78,70,0
285.03888,285.1504,75,60,0
285.1504,285.2619,73,63,0
285.2619,285.37512,72,55,0
284.92734,285.37512,87,67,0
285.37512,285.5152,77,65,0
285.49185,285.63193,82,69,0
285.60858,285.7497,81,65,0
285.7253,285.8699,79,64,0
285.84726,285.96048,77,60,0
285.96048,286.07367,75,60,0
286.07367,286.1869,74,60,0
286.1869,286.3001,72,60,0
286.3001,286.41245,74,67,0
286.41245,286.5248,77,60,0
286.5248,286.63718,78,60,0
286.63718,286.74954,80,60,0
286.74954,286.8859,79,66,0
286.3001,286.9768,70,67,0
286.86316,286.99954,82,67,0
286.9768,287.11407,80,70,0
287.09045,287.23102,79,69,0
287.20856,287.32092,77,68,0
287.32092,287.4333,75,66,0
287.4333,287.54562,74,65,0
287.54562,287.658,72,64,0
287.4333,287.77036,63,65,0
287.77036,287.88272,67,60,0
287.88272,287.99384,68,60,0
287.658,288.10492,70,69,0
287.99384,288.10492,70,60,0
288.10492,288.21945,63,65,0
288.21945,288.35684,75,69,0
288.33395,288.47235,73,68,0
288.44846,288.59027,72,67,0
288.56796,288.6795,70,65,0
288.6795,288.79102,68,64,0
288.79102,288.90253,67,60,0
288.90253,289.01407,65,60,0
289.01407,289.12558,67,66,0
289.12558,289.23712,70,61,0
289.23712,289.3474,72,62,0
289.3474,289.4577,73,63,0
289.4577,289.59564,72,64,0
289.01407,289.6876,63,66,0
289.57263,289.71057,84,70,0
289.6876,289.82614,82,69,0
289.80252,289.94293,80,68,0
289.92062,290.03217,79,66,0
290.03217,290.14368,77,66,0
290.14368,290.25522,75,63,0
290.25522,290.36673,73,61,0
290.36673,290.47867,63,72,0
290.5906,290.70255,67,74,0
290.8162,291.03842,68,79,0
290.36673,291.03842,72,65,0
291.03842,291.26065,70,78,0
291.03842,291.26065,79,65,0
291.26065,291.48285,72,79,0
291.48285,291.70508,73,80,0
291.26065,291.9273,80,65,0
291.9273,292.15842,84,87,0
291.70508,292.15842,75,82,0
292.15842,292.29376,73,66,0
292.2712,292.40652,77,73,0
292.38397,292.5202,75,71,0
292.15842,292.61395,85,92,0
292.49677,292.63617,73,69,0
292.61395,292.72507,72,71,0
292.72507,292.83618,70,66,0
292.83618,292.94727,68,66,0
292.94727,293.05838,66,66,0
293.05838,293.1695,68,79,0
293.2806,293.39172,72,81,0
293.05838,293.72845,65,66,0
293.72845,293.83957,66,72,0
293.50623,294.17548,73,85,0
294.17548,294.39688,76,79,0
294.39688,294.61826,77,84,0
293.95407,294.61826,68,79,0
294.61826,294.95288,78,86,0
294.95288,295.0887,82,83,0
295.0661,295.203,80,80,0
294.61826,295.29788,70,74,0
295.1793,295.3202,78,77,0
295.29788,295.4094,77,81,0
295.4094,295.52094,75,72,0
295.52094,295.63245,73,72,0
295.63245,295.74396,71,72,0
295.74396,295.8555,61,72,0
295.967,296.07855,65,75,0
295.74396,296.41748,70,72,0
296.41748,296.6397,71,72,0
296.19528,296.8611,66,78,0
296.8611,297.08252,68,66,0
297.08252,297.30392,70,73,0
296.6397,297.30392,73,76,0
297.30392,297.52533,82,66,0
297.30392,297.63852,78,66,0
297.52533,297.75174,83,72,0
297.63852,297.77438,74,66,0
297.75174,297.88876,73,66,0
297.86496,298.0063,71,66,0
297.984,298.09552,70,70,0
298.09552,298.20703,67,68,0
298.20703,298.31857,66,67,0
298.31857,298.43008,64,66,0
298.43008,298.54163,66,71,0
298.65314,298.76468,70,74,0
298.43008,299.1053,62,71,0
299.1053,299.32916,64,73,0
298.8814,299.55304,71,79,0
299.55304,299.77692,73,71,0
299.77692,300.0008,74,75,0
299.32916,300.0008,66,76,0
300.0008,300.23322,76,78,0
300.0008,300.23322,73,78,0
300.23322,300.34818,78,86,0
300.4631,300.57803,82,90,0
300.69806,301.37057,83,90,0
301.37057,301.48376,85,90,0
301.597,301.7115,86,94,0
301.826,301.94455,88,97,0
302.07114,302.2984,90,99,0
302.5257,302.74957,78,71,0
303.8714,304.3214,78,57,0
304.3214,305.2172,76,56,0
305.2172,305.6633,73,50,0
305.6633,306.56232,74,56,0
306.56232,307.45148,73,50,0
307.45148,307.90097,71,50,0
307.90097,308.34543,71,50,0
308.34543,308.79578,71,56,0
308.79578,309.25943,66,50,0
309.25943,309.7025,74,56,0
309.7025,310.14624,73,56,0
310.14624,310.36642,66,56,0
310.58762,310.66144,82,46,0
310.66144,310.73523,83,37,0
310.73523,310.8088,82,45,0
310.8088,310.88232,83,40,0
310.88232,310.95575,82,45,0
310.95575,311.02902,83,45,0
311.02902,311.1022,82,46,0
311.1022,311.17484,83,46,0
311.17484,311.248,82,40,0
311.248,311.3034,83,46,0
311.3034,311.35916,82,41,0
311.35916,311.41544,80,41,0
311.41544,311.47217,82,42,0
311.47217,311.9236,83,54,0
312.14636,312.25638,83,46,0
312.25638,312.36566,81,40,0
312.36566,312.47388,79,47,0
312.47388,312.58206,78,40,0
312.58206,312.69073,76,43,0
312.69073,312.79993,78,40,0
312.79993,312.90942,79,45,0
312.90942,313.01892,81,40,0
313.01892,313.1284,79,44,0
313.1284,313.23788,78,40,0
313.23788,313.34738,76,42,0
313.34738,313.45688,74,40,0
313.45688,313.56635,73,37,0
313.56635,313.67657,74,40,0
313.67657,313.78687,76,44,0
313.78687,313.89597,74,40,0
313.89597,314.00385,73,40,0
314.00385,314.1106,71,40,0
314.1106,314.21658,69,44,0
314.21658,314.32358,68,36,0
314.32358,314.43164,69,40,0
314.43164,314.54114,67,38,0
314.54114,314.65103,66,38,0
314.65103,314.7587,69,39,0
314.7605,314.87,71,40,0
314.87,314.9795,73,41,0
314.9795,315.0874,74,41,0
315.0874,315.1953,76,44,0
315.1953,315.30322,78,46,0
315.30322,315.41113,79,48,0
315.41113,315.52023,81,50,0
315.52023,315.62933,83,47,0
315.62933,315.7384,81,49,0
315.7384,315.8538,80,49,0
315.8538,315.9633,79,48,0
315.9633,316.07278,78,42,0
316.07278,316.18228,76,42,0
316.18228,316.29175,75,44,0
316.29175,316.40125,76,50,0
316.40125,316.51074,78,40,0
316.51074,316.61636,76,40,0
316.61636,316.72202,75,40,0
316.72202,316.83148,74,47,0
316.83148,316.94098,73,40,0
316.94098,317.05048,71,40,0
317.05048,317.15997,69,40,0
317.15997,317.26944,71,44,0
317.26944,317.37894,73,37,0
317.37894,317.49173,74,40,0
317.49173,317.6045,73,36,0
317.6045,317.714,74,41,0
317.714,317.8235,76,42,0
317.8235,317.931,78,44,0
317.931,318.03854,76,45,0
318.03854,318.14606,78,51,0
318.14606,318.2536,79,46,0
318.47748,318.91544,79,44,0
318.91544,319.0249,74,46,0
319.0249,319.1344,76,47,0
319.1344,319.2423,78,48,0
319.2423,319.35022,79,49,0
319.35022,319.45813,81,55,0
319.45813,319.56607,83,50,0
319.78995,320.2263,83,55,0
320.2263,320.3354,78,59,0
320.3354,320.4445,79,60,0
320.4445,320.5524,81,61,0
320.5524,320.6603,83,62,0
320.6603,320.76822,85,63,0
320.76822,320.87613,86,59,0
321.10086,321.53406,86,67,0
321.53406,321.60706,85,61,0
321.60706,321.68005,86,51,0
321.68005,321.75305,85,63,0
321.75305,321.82605,86,52,0
321.82605,321.89905,85,65,0
321.89905,321.97202,86,54,0
321.97202,322.0464,85,68,0
322.0464,322.12073,86,56,0
322.12073,322.19507,85,68,0
322.19507,322.26944,86,53,0
322.26944,322.34378,85,63,0
322.34378,322.41812,86,51,0
322.41812,322.6363,70,48,0
322.8661,322.9395,70,48,0
322.9395,323.01266,71,43,0
323.01266,323.08554,70,48,0
323.08554,323.15808,71,44,0
323.15808,323.23038,70,48,0
323.23038,323.30237,71,44,0
322.8661,323.30237,78,60,0
323.30237,323.37405,70,48,0
323.37405,323.44586,71,45,0
323.44586,323.51785,70,48,0
323.51785,323.59006,71,45,0
323.59006,323.66245,70,48,0
323.66245,323.73505,71,44,0
323.30237,323.73505,76,56,0
323.73505,323.80777,70,48,0
323.80777,323.8805,71,48,0
323.8805,323.95322,70,44,0
323.95322,324.06232,71,48,0
324.06232,324.17816,70,48,0
323.73505,324.17816,73,56,0
324.17816,324.60907,76,64,0
324.17816,325.04227,71,54,0
325.04227,325.4804,66,57,0
324.60907,325.9117,74,57,0
325.4804,326.3449,64,59,0
326.3449,326.78262,61,56,0
326.78262,327.2137,64,57,0
325.9117,327.2137,73,63,0
327.2137,327.64694,62,48,0
327.64694,328.51517,61,48,0
328.51517,328.95587,59,48,0
327.2137,328.95587,71,63,0
328.95587,329.1709,64,48,0
329.1709,329.38596,62,43,0
328.95587,329.38596,59,40,0
329.38596,329.601,61,48,0
329.601,329.81607,62,42,0
329.38596,329.81607,59,40,0
329.81607,330.03113,61,48,0
330.03113,330.25058,62,43,0
329.81607,330.25058,54,40,0
330.25058,330.46564,64,48,0
330.46564,330.6811,65,43,0
330.25058,330.6811,62,40,0
330.6811,331.11017,61,48,0
331.11017,331.5355,54,48,0
330.6811,331.5355,66,51,0
331.5355,331.97214,78,55,0
331.97214,332.0447,74,50,0
332.0447,332.11694,76,47,0
332.11694,332.18875,74,52,0
332.18875,332.26013,76,50,0
332.26013,332.3311,74,55,0
332.3311,332.40158,76,52,0
332.40158,332.47177,74,56,0
332.47177,332.5422,76,50,0
332.5422,332.61295,74,53,0
332.61295,332.68393,76,45,0
332.68393,332.75522,74,50,0
332.75522,332.82678,76,44,0
332.82678,333.04184,71,55,0
333.04184,333.26245,65,47,0
332.82678,333.26245,62,55,0
333.26245,333.6911,61,51,0
333.6911,334.1238,54,43,0
333.26245,334.1238,66,51,0
334.1238,334.3381,66,51,0
334.3381,334.44525,68,51,0
334.44525,334.5524,70,56,0
334.5524,334.65955,71,58,0
334.65955,334.7648,73,60,0
334.7648,334.87006,74,62,0
334.87006,334.98724,76,64,0
334.98724,335.09402,78,66,0
335.09402,335.20078,79,69,0
335.42117,335.85242,79,60,0
335.85242,335.925,78,50,0
335.925,335.99722,79,47,0
335.99722,336.06912,78,52,0
336.06912,336.14072,79,50,0
336.14072,336.21198,78,55,0
336.21198,336.2829,79,52,0
336.2829,336.35358,78,56,0
336.35358,336.42435,79,50,0
336.42435,336.49527,78,53,0
336.49527,336.5664,79,45,0
336.5664,336.6377,78,50,0
336.6377,336.7091,79,44,0
336.7091,337.1484,74,60,0
337.1484,337.21954,62,45,0
337.21954,337.29053,64,42,0
337.29053,337.36127,62,46,0
337.36127,337.4317,64,45,0
337.4317,337.50195,62,49,0
337.50195,337.57193,64,46,0
337.57193,337.6417,62,50,0
337.6417,337.712,64,45,0
337.712,337.78287,62,47,0
337.78287,337.85428,64,40,0
337.85428,337.9266,62,45,0
337.9266,337.9996,64,39,0
337.1484,337.9996,71,60,0
337.9996,338.43762,67,60,0
337.9996,338.43762,61,50,0
338.43762,338.5473,64,62,0
338.5473,338.6562,66,63,0
338.6562,338.76437,67,64,0
338.76437,338.8718,69,65,0
338.8718,338.97858,71,67,0
338.97858,339.08536,73,66,0
339.08536,339.19604,61,55,0
339.19604,339.31415,62,57,0
339.31415,339.4213,64,57,0
339.4213,339.52844,66,55,0
339.52844,339.6356,67,57,0
339.6356,339.74274,69,60,0
339.31415,339.74274,73,69,0
339.74274,339.8524,67,62,0
339.8524,339.9613,69,63,0
339.9613,340.0695,71,64,0
340.0695,340.1769,73,65,0
340.1769,340.2837,74,67,0
340.2837,340.39044,76,66,0
340.39044,340.50116,64,55,0
340.50116,340.61835,66,57,0
340.61835,340.7255,67,57,0
340.7255,340.83264,69,55,0
340.83264,340.93976,71,57,0
340.93976,341.0469,73,60,0
340.61835,341.0469,76,69,0
341.0469,341.1566,79,74,0
341.1566,341.2655,78,72,0
341.2655,341.3737,76,71,0
341.3737,341.4811,74,69,0
341.4811,341.5879,73,67,0
341.5879,341.69464,71,68,0
341.69464,341.80536,67,64,0
341.80536,341.92255,66,61,0
341.92255,342.02966,64,62,0
342.02966,342.1368,62,60,0
342.1368,342.24396,61,57,0
342.24396,342.3511,59,55,0
341.92255,342.3511,71,75,0
342.3511,342.4608,76,74,0
342.4608,342.56967,74,72,0
342.56967,342.67786,73,71,0
342.67786,342.78528,71,69,0
342.78528,342.89206,69,67,0
342.89206,342.99884,67,72,0
342.99884,343.10953,64,64,0
343.10953,343.22717,62,61,0
343.22717,343.33432,61,62,0
343.33432,343.44147,59,60,0
343.44147,343.5486,57,57,0
343.5486,343.6556,55,55,0
343.22717,343.6556,67,75,0
343.6556,343.7609,62,73,0
343.7609,343.86664,61,68,0
343.86664,343.97284,59,63,0
343.97284,344.07947,57,62,0
343.6556,344.07947,66,73,0
344.07947,344.18655,55,62,0
344.18655,344.2937,54,61,0
344.2937,344.4052,66,63,0
344.4052,344.52222,67,65,0
344.52222,344.6308,69,67,0
344.6308,344.73883,71,69,0
344.73883,344.8463,73,72,0
344.8463,344.95325,74,74,0
344.95325,345.05856,66,73,0
345.05856,345.16428,64,68,0
345.16428,345.27048,62,63,0
345.27048,345.3771,61,62,0
344.95325,345.3771,69,73,0
345.3771,345.48422,59,62,0
345.48422,345.59134,57,61,0
345.59134,345.70288,69,63,0
345.70288,345.81943,71,65,0
345.81943,345.928,73,67,0
345.928,346.03604,74,69,0
346.03604,346.14352,76,72,0
346.14352,346.2505,78,74,0
346.2505,346.35577,67,73,0
346.35577,346.46152,66,68,0
346.46152,346.5677,64,63,0
346.5677,346.67435,62,62,0
346.2505,346.67435,71,73,0
346.67435,346.78143,61,62,0
346.78143,346.88858,59,61,0
346.88858,347.0001,71,63,0
347.0001,347.11664,73,65,0
347.11664,347.22525,74,67,0
347.22525,347.33328,76,69,0
347.33328,347.44073,78,72,0
347.44073,347.5477,79,74,0
347.11664,347.5477,67,65,0
347.5477,347.65298,76,80,0
347.65298,347.75873,74,74,0
347.75873,347.86493,73,69,0
347.86493,347.97156,71,68,0
347.5477,347.97156,79,80,0
347.97156,348.07864,69,68,0
348.07864,348.1858,67,67,0
348.1858,348.29733,79,69,0
348.29733,348.41516,81,68,0
348.41516,348.52374,83,73,0
348.52374,348.63177,85,75,0
348.63177,348.73926,86,79,0
348.73926,348.84586,88,81,0
348.41516,348.84586,79,71,0
348.84586,348.95026,90,85,0
348.95026,349.05557,88,83,0
349.05557,349.16168,86,80,0
349.16168,349.26868,85,78,0
348.84586,349.26868,78,71,0
349.26868,349.3765,83,76,0
349.3765,349.4844,81,73,0
349.71228,350.14395,81,71,0
350.14395,350.24835,86,85,0
350.24835,350.35367,85,83,0
350.35367,350.45978,83,80,0
350.45978,350.56677,81,78,0
350.14395,350.56677,74,71,0
350.56677,350.6746,79,76,0
350.6746,350.7825,78,73,0
351.00992,351.441,78,71,0
352.09033,352.19897,74,69,0
352.19897,352.3074,76,70,0
352.3074,352.41544,78,72,0
352.41544,352.52316,79,73,0
352.52316,352.6305,81,74,0
352.6305,352.742,82,75,0
352.742,352.8485,83,76,0
352.8485,352.95538,81,71,0
352.95538,353.0628,79,71,0
353.0628,353.1708,78,70,0
353.1708,353.2793,76,69,0
353.2793,353.38834,74,68,0
353.38834,353.49527,79,77,0
353.49527,353.60165,78,71,0
353.60165,353.7086,76,70,0
353.7086,353.816,74,69,0
353.816,353.924,72,68,0
353.924,354.03207,71,66,0
354.03207,354.13828,76,78,0
354.13828,354.24512,74,69,0
354.24512,354.35257,73,67,0
354.35257,354.4607,71,66,0
354.4607,354.56946,69,67,0
354.56946,354.67896,68,63,0
354.67896,354.78885,64,63,0
354.78885,354.89874,62,59,0
354.89874,355.00864,61,63,0
355.00864,355.11853,59,59,0
355.11853,355.2284,57,58,0
355.2284,355.3383,56,57,0
355.3383,355.44778,64,62,0
355.44778,355.55728,62,57,0
355.55728,355.66678,61,57,0
355.66678,355.7817,62,57,0
354.67896,355.7817,67,63,0
355.7817,356.32715,64,70,0
356.32715,356.43625,61,58,0
356.43625,356.54535,62,58,0
356.54535,356.66028,64,58,0
355.7817,356.66028,66,70,0
356.66028,357.10175,66,65,0
356.66028,357.53812,62,65,0
357.64722,357.75632,62,52,0
357.75632,357.867,59,57,0
357.867,357.97772,65,52,0
357.10175,358.1959,71,68,0
357.97772,358.41406,66,57,0
358.41406,358.52237,62,57,0
358.52237,358.63068,66,52,0
358.63068,358.73898,65,48,0
358.73898,358.8473,64,52,0
358.63068,358.8473,68,57,0
358.8473,358.9568,58,57,0
358.9568,359.06625,64,50,0
358.8473,359.06625,67,63,0
359.06625,359.17575,62,48,0
359.17575,359.29672,57,51,0
359.06625,359.5141,66,58,0
359.5141,359.73218,64,57,0
359.29672,359.73218,58,68,0
359.95175,360.1677,55,65,0
359.73218,360.3842,58,65,0
360.1677,360.60452,52,65,0
360.3842,360.71283,58,65,0
360.71283,360.82114,56,57,0
360.60452,360.92944,54,65,0
360.92944,361.03775,53,60,0
360.82114,361.14606,57,65,0
361.14606,361.25433,61,58,0
361.03775,361.36264,54,65,0
361.36264,361.47095,55,60,0
361.25433,361.58044,62,65,0
361.58044,361.68994,61,58,0
361.47095,361.80106,57,65,0
361.80106,361.91214,58,60,0
361.68994,362.02008,62,65,0
362.02008,362.128,53,58,0
361.91214,362.2359,59,65,0
362.2359,362.3438,49,60,0
362.128,362.45056,54,65,0
362.45056,362.55734,54,59,0
362.3438,362.66486,50,65,0
362.66486,362.77237,51,60,0
362.55734,362.88226,55,65,0
362.88226,362.99216,57,57,0
362.77237,363.10495,52,65,0
363.10495,363.21774,54,60,0
362.99216,363.32602,59,65,0
363.32602,363.43433,58,59,0
363.21774,363.54263,55,65,0
363.54263,363.65094,54,60,0
363.43433,363.7581,59,65,0
363.7581,363.86523,63,56,0
363.65094,363.97238,55,65,0
363.97238,364.0795,57,60,0
363.86523,364.18744,64,65,0
364.18744,364.29535,66,59,0
364.0795,364.40326,59,65,0
364.40326,364.51196,58,60,0
364.29535,364.72934,67,65,0
364.72934,364.94992,68,72,0
364.51196,364.94992,57,60,0
365.16653,365.38315,64,67,0
365.38315,365.59744,61,73,0
364.94992,365.59744,69,78,0
365.59744,365.81326,67,65,0
365.59744,366.02908,57,65,0
366.02908,366.24493,58,65,0
365.81326,366.24493,66,73,0
366.46075,366.67657,66,66,0
366.67657,366.8924,63,71,0
366.24493,366.8924,59,65,0
366.8924,367.10825,57,65,0
367.10825,367.3338,55,65,0
366.8924,367.3338,59,67,0
367.3338,367.5552,71,82,0
367.7718,367.9884,67,69,0
367.9884,368.20502,64,75,0
367.5552,368.20502,72,86,0
368.20502,368.42163,71,70,0
368.42163,368.63824,69,76,0
368.20502,368.63824,60,65,0
368.63824,368.85367,61,75,0
369.06796,369.28458,69,69,0
369.28458,369.49963,66,74,0
368.85367,369.49963,62,75,0
369.49963,369.71466,60,69,0
369.71466,369.8262,59,63,0
369.49963,369.9377,62,69,0
369.8262,369.95938,60,62,0
369.9377,370.0677,74,72,0
370.04602,370.176,72,69,0
370.15433,370.80975,71,72,0
370.80975,371.24542,76,69,0
371.24542,371.35294,76,69,0
371.35294,371.46045,74,65,0
371.46045,371.89056,72,74,0
371.89056,372.11035,73,69,0
372.11035,372.54047,78,75,0
372.54047,372.64798,78,70,0
372.64798,372.75552,76,65,0
372.75552,373.40067,74,76,0
373.40067,373.51138,71,69,0
373.51138,373.83636,79,75,0
373.83636,373.9435,79,69,0
373.9435,374.05066,77,69,0
374.05066,374.26492,76,76,0
374.26492,374.47922,79,78,0
374.47922,374.6935,78,81,0
374.6935,374.91492,79,84,0
374.91492,375.12918,84,86,0
375.34488,375.41718,69,69,0
375.41718,375.48917,71,63,0
375.48917,375.5608,69,69,0
375.5608,375.63153,71,64,0
375.63153,375.70255,69,69,0
375.70255,375.77393,71,63,0
375.77393,375.84567,69,69,0
375.84567,375.91785,71,64,0
375.91785,375.99036,69,69,0
375.99036,376.06357,71,64,0
376.06357,376.13712,69,69,0
376.13712,376.21063,71,63,0
375.77393,376.21063,66,69,0
376.21063,376.6584,67,69,0
376.87115,376.97754,67,69,0
376.97754,377.08392,69,62,0
377.08392,377.1903,71,69,0
377.1903,377.2967,72,65,0
377.2967,377.40308,74,65,0
377.40308,377.50946,76,65,0
377.50946,377.96057,71,75,0
378.1726,378.2786,71,69,0
378.2786,378.3846,72,63,0
378.3846,378.49063,74,69,0
378.49063,378.59662,76,69,0
378.59662,378.70264,78,63,0
378.70264,378.80862,79,63,0
378.80862,379.2564,74,75,0
379.46918,379.57556,74,69,0
379.57556,379.68195,76,63,0
379.68195,379.78833,78,69,0
379.78833,379.89468,76,65,0
379.89468,380.00107,78,65,0
380.00107,380.1143,79,65,0
380.1143,380.2203,81,69,0
380.2203,380.3263,80,65,0
380.3263,380.4323,81,69,0
380.4323,380.54382,83,69,0
380.54382,380.64984,84,79,0
380.64984,380.75586,83,71,0
380.75586,380.86185,81,70,0
380.86185,380.96786,79,67,0
380.96786,381.07388,78,70,0
381.07388,381.17987,75,67,0
381.17987,381.2859,74,67,0
381.2859,381.40128,76,67,0
381.40128,381.50726,78,75,0
381.50726,381.61328,76,73,0
381.61328,381.7193,74,71,0
381.7193,381.8253,72,69,0
381.8253,381.9313,71,69,0
381.9313,382.03732,69,64,0
382.03732,382.1433,67,64,0
382.1433,382.24933,69,64,0
382.24933,382.35532,71,64,0
382.35532,382.46133,72,66,0
382.46133,382.56964,74,68,0
382.56964,382.68457,75,70,0
382.68457,382.7949,76,72,0
382.7949,382.9005,79,66,0
382.9005,383.00613,78,69,0
383.00613,383.1118,76,66,0
383.1118,383.21704,74,69,0
383.21704,383.3223,79,64,0
383.3223,383.42758,78,67,0
383.42758,383.54294,79,63,0
383.54294,383.96548,73,69,0
383.96548,384.18365,69,63,0
384.18365,384.39493,63,68,0
384.39493,384.6062,66,68,0
383.96548,384.81747,72,75,0
384.6062,385.02948,69,68,0
385.02948,385.24454,67,69,0
384.81747,385.24454,71,75,0
385.24454,385.4558,73,73,0
385.4558,385.66708,74,76,0
385.66708,385.87985,76,78,0
385.66708,385.87985,67,66,0
385.87985,386.09875,78,81,0
386.09875,386.73187,79,90,0
386.73187,386.94226,78,80,0
386.94226,387.16614,76,85,0
387.16614,387.27176,79,80,0
387.27176,387.3837,78,69,0
387.3837,387.80624,66,79,0
388.446,388.55164,76,80,0
388.55164,388.66357,74,69,0
388.66357,389.08612,62,79,0
389.7389,389.84454,83,80,0
389.84454,389.95648,81,69,0
389.95648,390.0621,78,70,0
390.0621,390.16776,74,64,0
390.16776,390.27338,73,64,0
390.27338,390.379,71,64,0
390.379,390.48465,61,62,0
390.48465,390.59027,60,62,0
390.59027,390.69592,61,62,0
390.69592,390.80743,63,62,0
390.379,390.80743,70,73,0
390.80743,390.91345,64,58,0
390.91345,391.01944,63,60,0
391.01944,391.12546,64,60,0
391.12546,391.23148,66,60,0
391.23148,391.33746,67,68,0
391.33746,391.44348,66,61,0
390.80743,391.44348,69,69,0
391.44348,391.5495,64,58,0
391.44348,391.5495,71,69,0
391.5495,391.6602,62,62,0
391.6602,391.7658,73,74,0
391.7658,391.87146,72,63,0
391.87146,391.97708,73,63,0
391.97708,392.08273,74,63,0
392.08273,392.18835,76,68,0
392.18835,392.29398,75,67,0
392.29398,392.40152,76,68,0
392.40152,392.51303,78,70,0
392.51303,392.61868,79,71,0
392.61868,392.7243,78,68,0
392.7243,392.82996,76,64,0
392.82996,392.93558,74,64,0
392.93558,393.0412,73,68,0
393.0412,393.14685,70,60,0
393.14685,393.25436,69,60,0
393.25436,393.36673,71,60,0
393.36673,393.47275,72,68,0
393.47275,393.57874,71,62,0
393.57874,393.68475,69,62,0
393.68475,393.79065,67,62,0
393.79065,393.89618,66,68,0
393.89618,394.00244,67,64,0
394.00244,394.10953,69,64,0
394.10953,394.21747,71,64,0
394.21747,394.2903,72,77,0
394.2903,394.36282,74,69,0
394.36282,394.43475,72,74,0
394.43475,394.50623,74,68,0
394.50623,394.57718,72,71,0
394.57718,394.64767,74,66,0
394.64767,394.71768,72,70,0
394.71768,394.78702,74,62,0
394.78702,394.8563,72,69,0
394.8563,394.92612,74,63,0
394.8563,394.96124,64,57,0
394.92612,394.9965,72,68,0
394.9965,395.06735,74,67,0
394.96124,395.06735,66,43,0
395.06735,395.50555,71,64,0
395.06735,395.50555,67,64,0
395.50555,395.5784,69,77,0
395.5784,395.6509,71,69,0
395.6509,395.72284,69,74,0
395.72284,395.7943,71,68,0
395.7943,395.86526,69,71,0
395.86526,395.93576,71,66,0
395.93576,396.00577,69,70,0
396.00577,396.0751,71,62,0
396.0751,396.14438,69,69,0
396.14438,396.2142,71,63,0
396.14438,396.24915,61,57,0
396.2142,396.28885,69,68,0
396.28885,396.3682,71,67,0
396.24915,396.3682,63,43,0
396.3682,396.47458,68,46,0
396.47458,396.58096,71,40,0
396.58096,396.68735,68,46,0
396.3682,396.79373,64,64,0
396.68735,396.79373,64,43,0
396.79373,396.86658,67,73,0
396.86658,396.9391,69,66,0
396.9391,397.01102,67,70,0
397.01102,397.08246,69,65,0
397.08246,397.15344,67,68,0
397.15344,397.22394,69,63,0
397.22394,397.29395,67,67,0
397.29395,397.36328,69,59,0
397.36328,397.43256,67,66,0
397.43256,397.50235,69,60,0
397.43256,397.53732,59,57,0
397.50235,397.57703,67,65,0
397.57703,397.65637,69,64,0
397.53732,397.65637,61,43,0
397.65637,397.76276,66,52,0
397.76276,397.86914,69,46,0
397.86914,397.97552,66,52,0
397.65637,398.0819,62,64,0
397.97552,398.0819,62,49,0
398.0819,398.19107,66,50,0
398.19107,398.2992,64,46,0
398.2992,398.4062,66,48,0
398.4062,398.5122,67,40,0
398.5122,398.61758,69,48,0
398.61758,398.72223,71,50,0
398.72223,398.827,73,60,0
398.827,398.94604,75,55,0
398.72223,398.94604,83,73,0
398.94604,399.1642,76,83,0
399.1642,399.39133,88,84,0
399.39133,399.50046,64,50,0
399.50046,399.6086,62,46,0
399.6086,399.71558,64,48,0
399.71558,399.82162,66,40,0
399.82162,399.927,67,48,0
399.927,400.03162,69,50,0
400.03162,400.1364,71,61,0
400.1364,400.25546,73,55,0
400.03162,400.25546,81,73,0
400.25546,400.47363,74,83,0
400.47363,400.6988,86,84,0
400.6988,400.80795,62,50,0
400.80795,400.91608,60,46,0
400.91608,401.02307,62,48,0
401.02307,401.1291,63,40,0
401.1291,401.23447,65,48,0
401.23447,401.3391,67,50,0
401.3391,401.44388,69,61,0
401.44388,401.56293,71,55,0
401.3391,401.56293,79,73,0
401.56293,401.7811,72,83,0
401.7811,402.11472,84,84,0
402.11472,402.2207,76,78,0
402.2207,402.32672,77,84,0
402.32672,402.43286,79,89,0
402.54202,402.65012,64,55,0
402.43286,402.65012,80,94,0
402.65012,402.75702,65,57,0
402.75702,402.863,67,58,0
402.96832,403.07294,70,61,0
403.07294,403.1786,72,62,0
403.1786,403.29703,74,65,0
402.863,403.40613,68,59,0
403.40613,403.51523,67,58,0
403.51523,403.64288,70,62,0
403.29703,403.728,75,70,0
403.6216,403.74927,68,58,0
403.728,403.85565,67,62,0
403.83438,403.96204,65,55,0
403.94077,404.06842,63,55,0
404.04715,404.17517,62,55,0
404.15353,404.28348,75,62,0
404.2618,404.39178,74,58,0
404.37012,404.50177,72,58,0
404.47842,404.59515,70,58,0
404.59515,404.7027,75,62,0
404.7027,404.83148,70,55,0
404.8102,404.93787,75,62,0
404.15353,405.02298,63,62,0
404.9166,405.04425,74,55,0
405.02298,405.15063,72,62,0
405.12936,405.25702,70,61,0
405.23575,405.36435,68,60,0
405.34213,405.45325,67,59,0
405.45325,405.58136,75,73,0
405.56,405.6881,74,60,0
405.66678,405.79636,72,66,0
405.77353,405.90894,70,60,0
405.45325,405.99435,79,73,0
405.99435,406.12216,77,66,0
406.1011,406.22745,80,69,0
405.8876,406.31165,74,73,0
406.2064,406.3327,79,62,0
406.31165,406.43796,77,69,0
406.4169,406.5432,75,68,0
406.5222,406.6485,74,66,0
406.62744,406.7327,72,64,0
406.7327,406.86127,65,69,0
406.83984,406.9684,67,55,0
406.947,407.0773,65,62,0
407.05414,407.19122,63,58,0
407.16995,407.2976,62,68,0
407.27634,407.40363,60,59,0
407.38272,407.50815,62,59,0
407.48724,407.6127,63,59,0
406.7327,407.69632,70,69,0
407.69632,407.82175,72,59,0
407.80084,407.92627,74,61,0
407.90536,408.03104,75,64,0
407.5918,408.11554,65,62,0
408.11554,408.2423,67,60,0
408.22116,408.3498,68,63,0
408.3268,408.46295,69,65,0
408.0099,408.54776,77,70,0
408.54776,408.67496,79,62,0
408.65375,408.78098,80,67,0
408.75977,408.88696,81,70,0
408.44174,408.97177,70,68,0
408.97177,409.099,72,62,0
409.0778,409.20798,74,65,0
408.86578,409.30475,82,72,0
409.1838,409.32706,75,69,0
409.30475,409.4386,80,72,0
409.30475,409.4386,77,61,0
409.4163,409.55072,75,57,0
409.4163,409.55072,79,68,0
409.5278,409.6423,74,54,0
409.5278,409.66742,77,75,0
409.6423,409.76782,75,70,0
409.76782,409.9986,84,87,0
410.22076,410.2935,68,75,0
410.2935,410.3661,70,67,0
410.3661,410.43842,68,72,0
410.43842,410.51047,70,62,0
410.51047,410.58215,68,67,0
410.58215,410.65405,70,61,0
410.65405,410.72623,68,67,0
410.72623,410.7986,70,62,0
410.7986,410.87128,68,67,0
410.87128,410.94418,70,61,0
410.94418,411.01736,68,67,0
411.01736,411.09085,70,62,0
411.09085,411.22983,77,70,0
411.20667,411.34448,79,72,0
411.32202,411.45648,80,73,0
411.43414,411.56778,82,75,0
411.54556,411.65622,84,76,0
411.65622,411.76614,86,78,0
411.76614,411.87543,87,80,0
411.87543,411.98395,88,81,0
411.98395,412.0925,89,83,0
412.0925,412.20187,91,84,0
412.20187,412.42328,92,86,0
412.42328,412.66043,94,100,0
412.8834,412.95612,79,75,0
412.95612,413.02875,80,67,0
413.02875,413.10107,79,72,0
413.10107,413.1731,80,62,0
413.1731,413.24478,79,67,0
413.24478,413.31668,80,61,0
413.31668,413.38885,79,67,0
413.38885,413.46124,80,62,0
413.46124,413.53394,79,67,0
413.53394,413.6068,80,61,0
413.6068,413.68,79,67,0
413.68,413.75348,80,62,0
413.75348,413.89578,75,70,0
413.87207,414.01224,77,72,0
413.98975,414.1242,79,73,0
414.1019,414.2355,80,75,0
414.2133,414.32397,82,76,0
414.32397,414.4339,84,78,0
414.4339,414.54318,85,80,0
414.54318,414.65167,86,81,0
414.65167,414.76025,87,83,0
414.76025,414.8696,89,84,0
414.8696,414.97986,90,86,0
414.97986,415.091,91,88,0
415.091,415.20685,92,90,0
415.091,415.23,82,70,0
415.20685,415.34464,80,76,0
415.32217,415.45663,79,73,0
415.4343,415.54385,77,73,0
415.54572,415.65637,75,72,0
415.65637,415.76633,74,72,0
415.76633,415.87558,72,71,0
415.87558,415.9841,70,70,0
415.9841,416.09268,69,70,0
416.09268,416.20203,70,65,0
416.20203,416.3123,65,68,0
416.3123,416.42343,68,63,0
415.54572,416.42343,77,72,0
416.42343,416.53925,67,90,0
416.53925,416.67706,82,73,0
416.6546,416.78906,84,74,0
416.76672,416.90036,86,75,0
416.87814,416.9888,87,77,0
416.9888,417.09875,86,78,0
417.09875,417.208,87,79,0
417.208,417.31653,89,81,0
417.31653,417.42508,91,82,0
417.42508,417.53445,89,83,0
417.53445,417.6447,91,85,0
417.6447,417.75586,92,86,0
416.87814,417.75586,82,77,0
417.75586,417.87167,94,90,0
417.98703,418.1215,80,73,0
418.09915,418.2087,79,73,0
418.21057,418.32123,77,72,0
418.32123,418.43115,76,72,0
418.43115,418.54044,73,71,0
418.54044,418.64896,72,70,0
418.64896,418.7575,71,70,0
418.7575,418.86688,72,65,0
418.86688,418.9771,67,68,0
418.9771,419.0883,70,63,0
418.21057,419.0883,79,72,0
419.0883,419.2041,68,90,0
419.31943,419.4539,84,74,0
419.43158,419.56522,88,75,0
419.54297,419.65366,89,77,0
419.65366,419.76358,91,78,0
419.76358,419.87286,92,79,0
419.87286,419.98135,91,81,0
419.98135,420.08994,89,79,0
420.08994,420.1993,87,77,0
419.54297,420.1993,84,77,0
420.1993,420.30954,86,75,0
420.30954,420.4207,84,73,0
420.1993,420.4207,78,75,0
420.4207,420.64374,79,73,0
420.4207,420.64374,83,79,0
420.64374,420.76,74,73,0
420.8763,420.93185,59,73,0
420.93185,420.98743,60,68,0
420.98743,421.04297,59,73,0
421.04297,421.0985,60,66,0
421.0985,421.20963,55,73,0
421.32074,421.3763,71,73,0
421.3763,421.43185,72,68,0
421.43185,421.48743,71,73,0
421.48743,421.54297,72,66,0
421.54297,421.65836,79,73,0
421.77374,421.8289,63,73,0
421.8289,421.88403,65,68,0
421.88403,421.93918,63,73,0
421.93918,421.99432,65,66,0
421.99432,422.1046,60,73,0
422.2149,422.27005,75,75,0
422.27005,422.3252,77,70,0
422.3252,422.38034,75,75,0
422.38034,422.4355,77,68,0
422.4355,422.54828,84,75,0
422.66107,422.716,69,77,0
422.716,422.77097,70,72,0
422.77097,422.8259,69,78,0
422.8259,422.88086,70,70,0
422.88086,422.99072,62,78,0
423.10062,423.15558,78,79,0
423.15558,423.2105,79,74,0
423.2105,423.26547,78,80,0
423.26547,423.3204,79,72,0
423.3204,423.4332,86,81,0
423.54596,423.76495,70,81,0
423.76495,423.87442,67,83,0
423.98392,424.03848,82,83,0
424.03848,424.09302,84,78,0
424.09302,424.14755,82,84,0
424.14755,424.20212,84,77,0
424.20212,424.31445,91,86,0
424.42682,424.48157,76,88,0
424.48157,424.53632,77,82,0
424.53632,424.59106,76,89,0
424.59106,424.6458,77,81,0
424.6458,424.75528,73,90,0
424.86478,424.91953,88,92,0
424.91953,424.97427,89,86,0
424.97427,425.02902,88,93,0
425.02902,425.08377,89,85,0
425.08377,425.1974,93,93,0
425.08377,425.1974,81,93,0
425.31104,425.42053,77,79,0
425.31104,425.42053,89,94,0
425.53,425.6395,74,80,0
425.53,425.6395,86,95,0
425.749,425.8585,69,82,0
425.749,425.8585,81,97,0
425.96796,426.07745,65,83,0
425.96796,426.07745,77,98,0
426.18695,426.29645,62,85,0
426.18695,426.29645,74,101,0
426.4059,426.5154,57,78,0
426.4059,426.5154,69,93,0
426.6249,426.73685,68,95,0
426.6249,426.73685,62,80,0
426.6249,426.73685,56,80,0
426.8488,426.96072,68,81,0
426.8488,426.96072,74,81,0
426.8488,426.96072,80,96,0
427.07266,427.18985,69,82,0
427.07266,427.18985,73,82,0
427.07266,427.18985,81,98,0
427.5414,427.6586,81,93,0
427.5414,427.6586,93,110,0
427.5414,427.6586,88,93,0
427.5414,427.6586,85,93,0
430.3539,430.8389,69,50,0
430.81546,431.30765,67,45,0
431.2842,431.7764,66,50,0
431.75296,432.24515,67,46,0
432.2217,432.69046,69,46,0
432.69046,433.16483,62,50,0
433.16483,433.657,64,44,0
433.16483,433.657,62,44,0
433.63358,434.10233,60,44,0
433.63358,434.10233,66,44,0
434.10233,434.5893,59,50,0
434.10233,435.03812,67,50,0
434.56567,435.06174,61,41,0
435.03812,435.51193,66,44,0
435.03812,435.97888,62,44,0
435.51193,436.46082,64,50,0
435.97888,436.9259,61,42,0
436.9259,437.41428,63,48,0
437.39102,437.88025,64,47,0
436.46082,438.33807,69,47,0
437.85614,438.8032,66,48,0
438.33807,438.82645,71,52,0
438.8032,439.2683,64,45,0
438.8032,439.29156,73,54,0
439.2683,439.73343,74,54,0
439.73343,440.21344,69,50,0
439.2683,440.21344,62,45,0
440.21344,440.67496,64,47,0
440.21344,440.67496,67,47,0
440.67496,441.1437,57,39,0
441.1437,441.60526,58,50,0
440.67496,441.60526,66,47,0
441.60526,442.0668,59,46,0
442.0668,442.52832,61,46,0
442.52832,443.02832,62,50,0
441.60526,443.02832,64,46,0
443.02832,443.52255,76,60,0
443.02832,443.52255,69,51,0
443.49948,443.98465,74,54,0
443.49948,444.43347,71,45,0
443.96103,444.45663,73,58,0
444.43347,444.91995,74,53,0
444.43347,444.91995,69,42,0
444.8968,445.3601,67,42,0
444.8968,445.3601,76,53,0
445.3601,445.8601,69,50,0
445.3601,445.8601,66,42,0
445.8363,446.32455,67,39,0
445.8363,446.32455,71,46,0
446.30148,446.7861,69,39,0
446.30148,446.7861,72,46,0
446.76303,447.24765,62,42,0
446.76303,447.6861,74,52,0
447.22458,447.7098,64,44,0
447.6861,448.1604,66,44,0
447.6861,448.62195,73,52,0
448.62195,449.0835,71,46,0
448.1604,449.0835,67,50,0
449.0835,450.04056,69,46,0
449.0835,450.04056,66,39,0
450.01746,450.50244,64,39,0
450.01746,450.50244,67,46,0
450.479,450.97137,66,46,0
450.479,451.4202,62,39,0
450.94775,451.8835,64,50,0
451.4202,452.35596,61,44,0
451.8835,452.81882,69,54,0
452.81882,453.28217,66,48,0
452.35596,453.74548,63,48,0
453.74548,454.22165,64,54,0
453.28217,454.22165,71,54,0
454.22165,454.71002,76,67,0
454.68677,455.1759,74,63,0
455.1519,455.6319,73,59,0
455.6319,456.124,78,64,0
456.10074,456.58975,76,57,0
456.56586,457.04395,74,57,0
457.04395,457.53043,81,71,0
457.50726,457.9942,79,68,0
457.97058,458.44302,78,67,0
458.44302,458.90634,75,63,0
458.44302,458.90634,71,53,0
458.90634,459.37878,78,56,0
458.90634,459.37878,69,46,0
459.37878,459.8403,71,62,0
459.37878,459.8403,67,51,0
459.8403,460.32492,69,50,0
459.8403,460.32492,66,42,0
460.30185,460.78647,68,42,0
460.30185,460.78647,71,49,0
460.7634,461.2249,69,50,0
460.7634,461.2249,73,57,0
461.2249,461.71356,74,61,0
461.2249,461.71356,71,44,0
461.69003,462.18463,73,44,0
462.16064,462.6421,69,55,0
461.69003,462.6421,76,62,0
462.6421,463.12894,74,58,0
462.6421,463.12894,65,49,0
463.1054,463.59952,64,46,0
463.1054,463.59952,73,54,0
463.576,465.46967,62,44,0
463.576,465.46967,71,52,0
465.46967,465.94775,69,53,0
465.46967,465.94775,61,45,0
465.94775,466.878,72,55,0
465.94775,466.878,63,46,0
466.878,467.35992,71,54,0
466.878,467.35992,64,45,0
467.35992,468.32895,73,53,0
467.35992,468.32895,67,42,0
468.32895,468.81674,74,57,0
468.32895,468.81674,66,45,0
468.81674,469.30457,67,45,0
468.81674,469.81958,75,54,0
469.81958,470.46472,74,58,0
470.46472,471.1665,73,55,0
471.1665,471.51736,72,55,0
471.85678,471.93536,69,50,0
471.93536,472.0135,70,44,0
472.0135,472.09116,69,50,0
472.09116,472.1684,70,44,0
472.1684,472.2451,69,50,0
472.2451,472.32114,70,44,0
471.85678,472.32114,77,50,0
472.32114,472.39722,69,50,0
472.39722,472.47394,70,45,0
472.47394,472.55203,69,50,0
472.55203,472.6114,70,49,0
472.6114,472.67166,69,46,0
472.67166,472.73215,67,46,0
472.73215,472.79263,69,46,0
472.32114,472.79263,75,45,0
472.79263,473.27744,74,50,0
473.48672,473.62625,70,43,0
473.603,473.7429,69,39,0
473.25418,473.7429,75,46,0
473.71927,473.86102,67,42,0
473.8374,473.97913,65,41,0
473.9555,474.09723,63,39,0
474.0736,474.1917,62,37,0
473.71927,474.1917,77,46,0
474.1917,474.65503,71,50,0
474.1917,474.65503,67,50,0
474.8894,475.03003,67,40,0
475.0066,475.1476,65,38,0
474.65503,475.1476,72,44,0
475.12378,475.26666,63,40,0
475.24283,475.3857,62,40,0
475.36188,475.50473,60,39,0
475.48093,475.59998,59,38,0
475.12378,475.59998,74,44,0
475.59998,475.84045,71,55,0
475.59998,476.08096,62,46,0
476.08096,476.54532,67,50,0
476.54532,477.0168,65,46,0
477.0168,477.5016,64,53,0
477.47833,477.96707,65,50,0
477.94345,478.4159,67,51,0
478.4159,478.8792,60,58,0
478.8792,479.37177,72,52,0
478.8792,479.37177,62,52,0
479.34796,479.82416,70,54,0
479.34796,479.84732,64,54,0
479.82416,480.28748,69,63,0
479.82416,480.28748,65,57,0
480.28748,480.78003,70,57,0
480.28748,480.78003,67,57,0
480.75623,481.23242,72,58,0
480.75623,481.25623,69,58,0
481.23242,481.47052,65,70,0
481.23242,481.47052,63,70,0
481.70862,481.78796,81,72,0
481.78796,481.86716,82,57,0
481.86716,481.94598,81,72,0
481.47052,481.94598,72,64,0
481.94598,482.02454,82,57,0
482.02454,482.10275,81,72,0
482.10275,482.18057,82,57,0
482.18057,482.25818,81,72,0
482.25818,482.33505,82,57,0
482.33505,482.41193,81,72,0
481.94598,482.41193,77,72,0
482.41193,482.4893,82,57,0
482.4893,482.56705,81,72,0
482.56705,482.64532,82,57,0
482.41193,482.64532,78,81,0
482.8806,482.99435,82,90,0
482.99435,483.1084,81,82,0
483.1084,483.22284,79,81,0
483.22284,483.33777,77,80,0
483.33777,483.45325,75,79,0
483.45325,483.56912,74,78,0
483.80228,483.918,58,82,0
483.918,484.0328,56,73,0
484.0328,484.14825,55,72,0
484.14825,484.2643,53,72,0
484.2643,484.3811,51,71,0
484.3811,484.49847,50,70,0
484.73535,484.852,79,95,0
484.852,484.9662,77,82,0
484.9662,485.0812,75,81,0
485.0812,485.19702,74,80,0
485.19702,485.31372,72,79,0
485.31372,485.43124,70,78,0
485.66833,485.7851,60,82,0
485.7851,485.89993,58,73,0
485.89993,486.01547,56,72,0
486.01547,486.13174,55,72,0
486.13174,486.2487,53,71,0
486.2487,486.36646,52,70,0
486.6027,486.7165,77,92,0
486.7165,486.8309,76,82,0
486.8309,486.94598,73,81,0
486.94598,487.06183,72,80,0
487.06183,487.17828,70,79,0
487.17828,487.29562,69,78,0
487.52994,487.64377,57,82,0
487.64377,487.7584,55,73,0
487.7584,487.87384,54,72,0
487.87384,487.9899,51,72,0
487.9899,488.1068,50,71,0
488.1068,488.2246,48,70,0
488.46167,488.5748,86,90,0
488.5748,488.68857,84,82,0
488.68857,488.80313,82,81,0
488.80313,488.91852,81,80,0
488.91852,489.03476,79,79,0
489.03476,489.15195,78,78,0
489.38724,489.50165,62,82,0
489.50165,489.61407,61,73,0
489.61407,489.72733,60,72,0
489.72733,489.84137,58,72,0
489.84137,489.9562,57,71,0
489.9562,490.07227,55,70,0
490.31015,490.42398,75,92,0
490.42398,490.53836,74,82,0
490.53836,490.65344,72,81,0
490.65344,490.7693,70,80,0
490.7693,490.88577,69,79,0
490.88577,491.00308,67,78,0
491.00308,491.12073,65,78,0
491.12073,491.2432,64,78,0
491.2432,491.35947,62,88,0
491.35947,491.47574,60,81,0
491.2432,491.47574,70,88,0
491.47574,491.592,58,80,0
491.592,491.7083,57,80,0
491.7083,491.8246,55,79,0
491.8246,491.94086,53,78,0
491.94086,492.05713,52,77,0
492.05713,492.17908,50,75,0
492.17908,492.29446,60,78,0
492.29446,492.40985,58,74,0
492.40985,492.52524,57,80,0
492.52524,492.64062,55,82,0
492.64062,492.756,53,86,0
492.756,492.8805,52,89,0
492.8805,492.99588,50,95,0
492.99588,493.11127,48,87,0
492.8805,493.11127,58,95,0
493.11127,493.22665,52,81,0
493.22665,493.3424,55,85,0
493.3424,493.5752,46,80,0
493.80652,493.8843,64,80,0
493.8843,493.9619,65,74,0
493.9619,494.03912,64,80,0
494.03912,494.11603,65,74,0
494.11603,494.19266,64,80,0
494.19266,494.26837,65,75,0
494.26837,494.34384,64,80,0
494.34384,494.4194,65,73,0
494.4194,494.4952,64,82,0
494.4952,494.5527,65,74,0
494.5527,494.61148,64,80,0
494.61148,494.6716,62,73,0
494.6716,494.7321,64,73,0
494.7321,495.19363,65,86,0
495.4244,495.5398,65,78,0
495.5398,495.65518,64,74,0
495.65518,495.77057,62,80,0
495.77057,495.88596,60,74,0
495.88596,496.00134,58,74,0
496.00134,496.1248,57,74,0
496.1248,496.58633,62,88,0
496.81708,496.93246,62,78,0
496.93246,497.04785,60,74,0
497.04785,497.16324,58,80,0
497.16324,497.27863,57,74,0
497.27863,497.394,55,74,0
497.394,497.5175,53,74,0
497.5175,497.979,58,88,0
498.20978,498.32516,70,78,0
498.32516,498.44565,69,72,0
498.44565,498.56104,67,90,0
498.56104,498.67642,69,73,0
498.67642,498.7918,67,73,0
498.7918,498.9123,65,73,0
498.9123,499.02768,64,89,0
499.02768,499.14304,65,74,0
499.14304,499.25842,64,74,0
499.25842,499.37845,62,74,0
499.37845,499.49426,60,90,0
499.49426,499.6101,62,73,0
499.6101,499.72592,64,73,0
499.72592,499.8464,65,73,0
499.8464,499.96268,66,88,0
499.96268,500.07898,67,73,0
500.07898,500.19525,69,73,0
500.19525,500.31573,67,73,0
500.31573,500.432,65,87,0
500.432,500.54828,67,75,0
500.54828,500.66455,69,75,0
500.66455,500.786,70,75,0
500.786,500.90186,71,89,0
500.90186,501.01767,72,73,0
501.01767,501.1335,74,73,0
501.1335,501.25647,72,73,0
501.25647,501.37186,74,94,0
501.37186,501.48724,72,73,0
501.25647,501.48724,75,94,0
501.48724,501.6026,70,73,0
501.6026,501.71826,69,73,0
501.71826,501.7962,60,85,0
501.7962,501.87366,62,78,0
501.87366,501.9506,60,85,0
501.9506,502.02783,62,80,0
502.02783,502.1054,60,85,0
502.1054,502.1834,62,78,0
502.1834,502.26154,60,85,0
502.26154,502.33945,62,80,0
502.33945,502.41705,60,85,0
502.41705,502.49435,62,73,0
502.49435,502.57135,60,82,0
502.57135,502.648,62,73,0
502.648,503.11856,58,78,0
503.4519,503.57285,58,65,0
503.57285,503.69382,60,60,0
503.69382,503.81146,62,68,0
503.81146,503.9291,63,60,0
503.9291,504.04675,65,60,0
503.9291,504.04675,62,60,0
504.04675,504.17334,67,60,0
504.04675,504.17334,60,60,0
504.17334,504.291,58,60,0
504.291,504.40863,57,60,0
504.40863,504.52768,55,60,0
504.52768,504.64673,53,60,0
504.17334,504.64673,63,72,0
504.88483,505.00293,62,65,0
505.00293,505.12106,63,56,0
504.64673,505.12106,58,72,0
505.12106,505.23734,65,66,0
505.23734,505.3536,67,60,0
505.3536,505.46988,69,60,0
505.46988,505.59543,70,60,0
505.3536,505.71262,58,60,0
505.71262,505.8298,59,60,0
505.8298,505.9493,60,60,0
505.9493,506.06885,62,60,0
505.59543,506.06885,67,74,0
506.30322,506.41858,65,66,0
506.41858,506.53397,67,60,0
506.06885,506.53397,63,72,0
506.53397,506.6498,69,71,0
506.6498,506.76562,67,62,0
506.76562,506.88147,69,62,0
506.88147,506.99728,70,62,0
506.99728,507.11313,72,72,0
507.11313,507.22894,70,65,0
506.76562,507.22894,63,55,0
507.22894,507.3448,72,65,0
507.3448,507.46875,74,65,0
507.46875,507.58502,75,78,0
507.58502,507.70132,74,69,0
507.22894,507.70132,64,59,0
507.70132,507.8176,72,72,0
507.8176,507.94156,74,75,0
507.94156,508.0583,75,86,0
508.0583,508.17502,74,76,0
508.17502,508.29175,73,73,0
508.29175,508.40848,72,72,0
508.40848,508.5252,70,77,0
508.5252,508.64194,69,64,0
507.70132,508.64194,65,60,0
508.64194,508.76007,67,63,0
508.76007,508.87817,69,64,0
508.64194,508.87817,63,54,0
508.87817,508.99628,70,74,0
508.99628,509.11346,69,63,0
509.11346,509.23065,67,62,0
508.87817,509.34784,62,63,0
509.23065,509.4842,65,62,0
509.4842,509.60092,78,68,0
509.34784,509.60092,60,65,0
509.60092,509.71768,79,74,0
509.71768,509.8344,77,69,0
509.8344,509.95114,75,71,0
509.95114,510.06787,74,64,0
510.06787,510.1846,72,67,0
510.1846,510.30856,70,69,0
510.30856,510.42438,69,74,0
510.42438,510.54022,70,65,0
510.54022,510.65604,69,67,0
510.65604,510.78372,67,68,0
510.78372,510.9,65,81,0
510.9,511.01627,67,71,0
511.01627,511.13254,69,71,0
511.13254,511.24884,70,71,0
511.24884,511.3651,72,80,0
511.3651,511.48138,73,70,0
511.48138,511.59766,74,70,0
511.59766,511.71393,72,70,0
511.71393,511.8316,74,81,0
511.8316,511.94925,76,70,0
511.71393,511.94925,70,65,0
511.94925,512.0742,77,70,0
512.0742,512.3068,79,81,0
512.3068,512.4231,72,70,0
512.4231,512.53937,74,71,0
512.53937,512.65564,76,72,0
512.65564,512.7719,77,73,0
512.7719,512.8882,79,74,0
512.8882,513.0068,81,75,0
513.0068,513.1318,82,76,0
513.1318,513.24805,84,77,0
513.24805,513.3643,81,68,0
513.3643,513.4806,79,73,0
513.4806,513.59686,77,72,0
513.59686,513.71313,75,81,0
513.71313,513.82947,74,71,0
513.82947,513.94574,76,71,0
513.94574,514.062,78,71,0
514.062,514.1783,79,79,0
514.1783,514.29456,81,72,0
514.29456,514.4136,82,81,0
514.4136,514.5391,84,71,0
514.5391,514.65497,86,85,0
514.65497,514.7708,82,76,0
514.7708,514.8866,81,76,0
514.8866,515.00244,79,76,0
515.00244,515.1183,77,82,0
515.1183,515.23413,75,73,0
515.23413,515.3499,77,76,0
515.3499,515.46576,79,79,0
515.46576,515.58215,81,82,0
515.58215,515.69995,82,84,0
515.69995,515.8191,84,87,0
515.8191,515.93964,86,90,0
515.93964,516.1816,87,93,0
516.4235,516.5039,72,74,0
516.5039,516.5837,74,70,0
516.5837,516.6629,72,74,0
516.6629,516.74146,74,70,0
516.74146,516.8195,72,74,0
516.8195,516.8967,74,70,0
516.4235,516.8967,69,69,0
516.8967,516.97345,72,74,0
516.97345,517.05054,74,69,0
517.05054,517.1279,72,74,0
517.1279,517.18665,74,70,0
517.18665,517.2466,72,74,0
517.2466,517.3076,70,68,0
517.3076,517.3698,72,68,0
516.8967,517.3698,63,69,0
517.3698,517.6108,62,69,0
517.6108,517.85175,61,69,0
517.3698,517.85175,70,81,0
517.85175,517.93207,70,74,0
517.93207,518.0119,72,70,0
518.0119,518.09106,70,74,0
518.09106,518.1697,72,70,0
518.1697,518.2477,70,74,0
518.2477,518.3249,72,70,0
517.85175,518.3249,67,69,0
518.3249,518.4017,70,74,0
518.4017,518.4787,72,69,0
518.4787,518.5561,70,74,0
518.5561,518.61487,72,70,0
518.61487,518.67474,70,74,0
518.67474,518.7358,69,68,0
518.7358,518.798,70,68,0
518.3249,518.798,61,69,0
518.798,519.03894,69,81,0
518.798,519.03894,60,69,0
519.03894,519.2799,59,62,0
519.03894,519.2799,68,67,0
519.2799,519.3603,68,74,0
519.3603,519.44006,70,70,0
519.44006,519.5193,68,74,0
519.5193,519.59784,70,70,0
519.59784,519.6759,68,74,0
519.6759,519.75305,70,70,0
519.2799,519.75305,65,69,0
519.75305,519.82983,68,74,0
519.82983,519.9069,70,69,0
519.9069,519.98425,68,74,0
519.98425,520.043,70,70,0
520.043,520.10297,68,74,0
520.10297,520.164,67,68,0
520.164,520.2262,68,68,0
519.75305,520.2262,59,69,0
520.2262,520.4671,58,69,0
520.4671,520.70807,64,62,0
520.2262,520.70807,67,81,0
521.4143,521.65216,67,62,0
521.65216,521.8933,64,69,0
521.8933,522.1343,65,61,0
522.8405,523.07837,69,62,0
523.07837,523.3195,66,69,0
523.3195,523.5605,67,61,0
524.2667,524.5046,70,62,0
524.5046,524.7457,67,69,0
524.7457,524.9867,69,61,0
524.9867,525.11066,69,55,0
525.11066,525.2346,65,49,0
524.9867,525.2346,72,61,0
525.2346,525.3537,67,55,0
525.3537,525.4727,69,50,0
525.4727,525.5918,70,55,0
525.5918,525.7108,69,48,0
525.2346,525.7108,77,66,0
525.7108,525.828,70,55,0
525.828,525.9452,65,43,0
525.7108,525.9452,74,61,0
525.9452,526.0638,67,55,0
526.0638,526.1838,66,48,0
525.9452,526.1838,72,61,0
526.1838,526.30426,67,55,0
526.1838,526.42236,70,57,0
526.30426,526.54047,60,49,0
526.42236,526.65857,69,61,0
526.65857,526.9038,68,58,0
526.9038,527.02374,67,49,0
527.02374,527.143,69,59,0
527.143,527.26154,71,57,0
527.26154,527.37933,72,55,0
527.37933,527.4965,73,53,0
527.4965,527.6139,74,51,0
526.9038,527.6139,79,73,0
527.6139,527.7315,75,59,0
527.7315,527.8494,74,41,0
527.6139,527.8494,77,59,0
527.8494,528.0857,77,52,0
528.0857,528.3247,75,47,0
528.3247,528.4428,66,45,0
528.4428,528.5609,67,41,0
528.3247,528.5609,74,52,0
528.5609,528.6805,68,45,0
528.6805,528.8,67,41,0
528.5609,528.8,72,47,0
528.8,529.0362,71,52,0
529.0362,529.27716,72,46,0
529.27716,529.39526,69,57,0
529.39526,529.51337,70,50,0
529.27716,529.51337,77,57,0
529.51337,529.6315,69,55,0
529.6315,529.7586,67,49,0
529.7586,529.87854,65,58,0
529.87854,529.9978,67,55,0
529.9978,530.11633,69,54,0
530.11633,530.23413,70,52,0
530.23413,530.3513,71,50,0
530.3513,530.4686,72,49,0
529.7586,530.4686,75,68,0
530.4686,530.5863,74,59,0
530.5863,530.7042,72,41,0
530.4686,530.7042,75,59,0
530.7042,530.9405,75,52,0
530.9405,531.1795,74,47,0
531.1795,531.2976,64,45,0
531.2976,531.4157,65,41,0
531.1795,531.4157,72,52,0
531.4157,531.5352,67,45,0
531.5352,531.6548,65,41,0
531.4157,531.6548,70,47,0
531.6548,531.891,69,52,0
531.891,532.13196,70,46,0
532.13196,532.25006,59,64,0
532.25006,532.36816,60,57,0
532.36816,532.48627,59,57,0
532.48627,532.6134,57,57,0
532.6134,532.73334,55,65,0
532.73334,532.8526,57,58,0
532.8526,532.9711,59,59,0
532.9711,533.0889,60,59,0
533.0889,533.2061,61,65,0
533.2061,533.3234,62,58,0
533.3234,533.4411,63,58,0
533.4411,533.559,62,58,0
533.559,533.6771,60,64,0
533.6771,533.7952,62,57,0
533.559,533.7952,72,57,0
533.7952,533.9148,64,57,0
533.9148,534.0343,65,57,0
534.0343,534.1524,66,64,0
534.1524,534.2705,67,57,0
534.2705,534.39,68,57,0
534.39,534.5096,67,57,0
534.5096,534.6277,65,63,0
534.6277,534.7458,64,56,0
534.0343,534.7458,70,68,0
534.7458,534.8663,61,56,0
534.8663,534.98676,60,56,0
534.7458,534.98676,70,59,0
534.98676,535.10486,69,64,0
535.10486,535.22296,70,57,0
535.22296,535.34106,69,57,0
535.34106,535.4682,67,57,0
535.4682,535.5881,65,65,0
535.5881,535.7074,67,58,0
535.7074,535.82587,69,59,0
535.82587,535.9437,70,59,0
535.9437,536.0609,71,65,0
536.0609,536.1782,72,58,0
536.1782,536.2959,74,58,0
536.2959,536.4138,72,58,0
536.4138,536.5319,70,64,0
536.5319,536.65,72,57,0
536.65,536.76953,74,57,0
536.76953,536.8891,75,57,0
536.8891,537.0072,76,64,0
537.0072,537.1253,77,57,0
537.1253,537.2448,79,57,0
537.2448,537.3643,77,57,0
537.3643,537.4825,71,63,0
537.4825,537.6006,74,56,0
537.3643,537.6006,67,66,0
537.6006,537.72107,75,56,0
537.6006,537.7813,65,56,0
537.72107,537.84155,77,56,0
537.84155,537.95966,71,64,0
537.95966,538.07776,72,57,0
537.84155,538.07776,65,68,0
538.07776,538.19727,74,57,0
538.07776,538.257,63,62,0
538.19727,538.3168,72,57,0
538.3168,538.4349,74,64,0
538.4349,538.55304,75,57,0
538.3168,538.55304,62,66,0
538.55304,538.67255,77,57,0
538.55304,538.7323,60,61,0
538.67255,538.79205,75,57,0
538.79205,538.91016,69,63,0
538.91016,539.02826,72,56,0
539.02826,539.14874,74,56,0
539.14874,539.2692,75,56,0
539.2692,539.3873,76,64,0
539.3873,539.5055,77,57,0
539.5055,539.625,79,57,0
539.625,539.7445,77,57,0
539.7445,539.8626,81,64,0
539.8626,539.9807,82,57,0
539.9807,540.1003,84,57,0
540.1003,540.2198,82,57,0
540.2198,540.33563,78,63,0
540.33563,540.4514,79,56,0
540.2198,540.4514,75,66,0
540.4514,540.5695,81,56,0
540.4514,540.6286,74,56,0
540.5695,540.6877,79,56,0
540.6877,540.80304,80,64,0
540.80304,540.9184,81,57,0
540.6877,540.9184,74,68,0
540.9184,541.037,82,57,0
540.9184,541.0963,72,62,0
541.037,541.1556,81,57,0
541.1556,541.27185,83,64,0
541.27185,541.3881,84,57,0
541.1556,541.3881,70,66,0
541.3881,541.5067,86,57,0
541.3881,541.566,69,61,0
541.5067,541.6253,84,57,0
541.6253,541.7411,76,63,0
541.7411,541.85693,78,56,0
541.6253,541.85693,74,66,0
541.85693,541.9755,79,56,0
541.85693,542.0348,72,56,0
541.9755,542.0941,78,56,0
542.0941,542.20905,79,64,0
542.20905,542.324,80,57,0
542.0941,542.324,72,68,0
542.324,542.44257,81,57,0
542.324,542.50183,70,62,0
542.44257,542.56116,79,57,0
542.56116,542.6765,82,64,0
542.6765,542.79193,83,57,0
542.56116,542.79193,74,66,0
542.79193,542.91046,84,57,0
542.79193,542.9698,75,61,0
542.91046,543.02905,82,57,0
543.02905,543.1445,80,63,0
543.1445,543.2598,81,56,0
543.02905,543.2598,74,66,0
543.2598,543.3784,82,56,0
543.2598,543.4377,72,56,0
543.3784,543.497,81,56,0
543.497,543.6115,85,64,0
543.6115,543.726,86,57,0
543.497,543.726,76,68,0
543.726,543.8441,87,57,0
543.726,543.90314,77,62,0
543.8441,543.9622,86,57,0
543.9622,544.0767,83,64,0
544.0767,544.1912,84,57,0
543.9622,544.1912,75,66,0
544.1912,544.3093,86,57,0
544.1912,544.3684,74,61,0
544.3093,544.4274,82,57,0
544.4274,544.5402,73,70,0
544.5402,544.653,74,65,0
544.653,544.79364,72,71,0
544.7702,544.8874,70,67,0
544.8874,544.99976,68,64,0
544.99976,545.1121,62,61,0
544.8874,545.1121,71,83,0
545.1121,545.2511,72,76,0
545.1121,545.2511,67,64,0
545.2279,545.34375,64,61,0
545.34375,545.4557,62,64,0
545.4557,545.5676,64,62,0
545.34375,545.5676,70,82,0
545.5676,545.705,69,76,0
545.5676,545.705,61,64,0
545.6821,545.79663,64,61,0
545.79663,545.909,70,64,0
545.909,546.02136,64,61,0
545.79663,546.02136,73,83,0
546.02136,546.15985,74,76,0
546.02136,546.15985,69,64,0
546.1368,546.25214,66,64,0
546.25214,546.3641,63,64,0
546.3641,546.476,66,61,0
546.25214,546.476,72,83,0
546.476,546.61395,70,76,0
546.476,546.61395,62,64,0
546.59094,546.70593,67,62,0
546.70593,546.81744,70,64,0
546.81744,546.92896,69,63,0
546.70593,546.92896,75,83,0
546.92896,547.0653,76,76,0
546.92896,547.0653,70,64,0
547.0426,547.15625,67,62,0
547.15625,547.26776,73,64,0
547.26776,547.3793,72,63,0
547.15625,547.3793,78,82,0
547.3793,547.5162,79,76,0
547.3793,547.5162,73,64,0
547.49335,547.6074,70,62,0
547.6074,547.8474,70,92,0
547.6074,547.8474,67,78,0
547.6074,547.8474,64,78,0
548.0874,548.16376,88,88,0
548.16376,548.2403,89,80,0
548.2403,548.31616,88,88,0
548.31616,548.3913,89,79,0
548.3913,548.46576,88,89,0
548.46576,548.5393,89,82,0
548.5393,548.61255,88,90,0
548.61255,548.6862,89,82,0
548.6862,548.7602,88,91,0
548.7602,548.81683,89,81,0
548.81683,548.87616,88,88,0
548.87616,548.93835,86,84,0
548.93835,549.0029,88,89,0
548.0874,549.0029,82,74,0
548.0874,549.0029,85,74,0
549.2327,549.28955,58,92,0
549.0029,549.45996,91,98,0
549.45996,549.5364,76,88,0
549.5364,549.6129,77,80,0
549.6129,549.6887,76,88,0
549.6887,549.76385,77,79,0
549.6887,549.80115,91,88,0
549.76385,549.8383,76,89,0
549.8383,549.91187,77,82,0
549.80115,549.91187,89,79,0
549.91187,549.9851,76,90,0
549.91187,550.0219,88,88,0
549.9851,550.0588,77,82,0
550.0588,550.13275,76,91,0
550.0219,550.13275,85,79,0
550.13275,550.1894,77,81,0
550.1894,550.2488,76,88,0
550.13275,550.2488,84,88,0
550.2488,550.3109,74,84,0
550.3109,550.37555,76,89,0
550.2488,550.37555,82,79,0
550.59534,550.65234,81,92,0
550.37555,550.8234,77,98,0
550.8234,551.0516,93,98,0
551.0516,551.1623,77,86,0
551.1623,551.273,76,85,0
551.273,551.38367,74,83,0
551.38367,551.4946,72,82,0
551.4946,551.6079,70,81,0
551.6079,551.7239,69,80,0
551.9436,552.0007,77,92,0
551.7239,552.17175,74,98,0
552.17175,552.39734,89,98,0
552.39734,552.50806,74,86,0
552.50806,552.6187,72,85,0
552.6187,552.72943,70,83,0
552.72943,552.84033,69,82,0
552.84033,552.9537,67,81,0
552.9537,553.0696,65,80,0
553.3022,553.5347,74,85,0
553.0696,553.5347,70,98,0
553.5347,553.7586,86,97,0
553.7586,553.9802,84,95,0
553.9802,554.2017,82,92,0
554.2017,554.43005,83,90,0
554.43005,554.66626,84,90,0
554.90247,555.5843,82,94,0
555.5843,555.8133,82,87,0
555.8133,555.9528,77,74,0
555.92957,556.0691,79,68,0
556.04584,556.18536,81,68,0
556.1621,556.30096,82,68,0
556.27844,556.41376,83,72,0
556.3912,556.52655,84,64,0
556.50397,556.63934,86,69,0
556.61676,556.7521,84,64,0
556.72955,556.86487,82,72,0
556.84235,556.9779,81,64,0
556.9551,557.092,79,71,0
557.06915,557.1832,77,66,0
557.1832,557.41943,86,90,0
557.6557,558.3375,84,94,0
558.3375,558.5665,84,87,0
558.5665,558.70605,79,74,0
558.6828,558.8223,81,68,0
558.7991,558.9386,82,68,0
558.91534,559.0542,84,68,0
559.0316,559.167,85,72,0
559.1444,559.2797,86,64,0
559.2572,559.3925,87,69,0
559.37,559.5053,86,64,0
559.4827,559.6181,84,72,0
559.5955,559.73114,82,64,0
559.7083,559.8452,81,71,0
559.8224,559.93646,79,66,0
559.93646,560.17267,89,90,0
560.4089,561.0907,87,94,0
561.0907,561.3197,87,87,0
561.3197,561.4592,82,74,0
561.436,561.57556,84,68,0
561.5523,561.69183,86,68,0
561.6686,561.8074,87,68,0
561.78485,561.92017,88,72,0
561.89764,562.03296,89,65,0
562.0104,562.14575,91,70,0
562.12317,562.25854,89,65,0
562.23596,562.3713,88,74,0
562.34875,562.4843,89,65,0
562.46155,562.5984,90,73,0
562.5756,562.68964,89,68,0
562.68964,562.825,86,75,0
562.8024,562.9378,87,70,0
562.9152,563.0518,89,70,0
563.028,563.14703,87,71,0
563.14703,563.2829,84,76,0
563.26025,563.3961,85,71,0
563.3735,563.5105,87,71,0
563.4867,563.6057,85,71,0
563.6057,563.7411,83,77,0
563.7185,563.8538,84,72,0
563.8313,563.9679,85,73,0
563.9441,564.0631,84,73,0
564.0631,564.1785,75,89,0
564.2939,564.5179,90,95,0
564.5179,564.62994,77,72,0
564.62994,564.74133,75,65,0
564.74133,564.85205,77,72,0
564.85205,564.9621,75,67,0
564.9621,565.0726,77,72,0
565.0726,565.1837,75,67,0
565.1837,565.2955,74,72,0
565.2955,565.4079,75,66,0
564.5179,565.4079,72,66,0
564.5179,565.6352,66,66,0
565.6352,565.8582,65,73,0
565.6352,565.8582,58,73,0
565.4079,565.8582,74,74,0
565.8582,566.0872,70,75,0
566.0872,566.19836,74,69,0
566.19836,566.30945,75,61,0
566.30945,566.4206,77,66,0
566.4206,566.5317,79,67,0
566.5317,566.6428,81,68,0
566.6428,566.7633,82,69,0
566.9855,567.20856,62,73,0
566.7633,567.20856,77,78,0
567.20856,567.43756,74,75,0
567.43756,567.54865,77,69,0
567.54865,567.6598,79,61,0
567.6598,567.7709,81,66,0
567.7709,567.882,82,67,0
567.882,567.9931,84,68,0
567.9931,568.1136,86,69,0
568.3358,568.55884,63,73,0
568.1136,568.55884,79,78,0
568.55884,568.78784,75,75,0
568.78784,568.899,79,69,0
568.899,569.0101,81,61,0
569.0101,569.1212,82,66,0
569.1212,569.2323,83,67,0
569.2323,569.34344,84,68,0
569.34344,569.4639,86,69,0
569.4639,569.6938,87,78,0
569.6938,570.03864,88,83,0
570.03864,570.15356,89,73,0
570.15356,570.2674,87,81,0
570.2674,570.3813,86,78,0
570.3813,570.4945,84,79,0
570.4945,570.60706,82,75,0
570.60706,570.7188,81,75,0
570.7188,570.82983,79,75,0
570.82983,570.94055,77,80,0
570.94055,571.0522,79,70,0
571.0522,571.16486,77,76,0
571.16486,571.27856,75,68,0
571.27856,571.39905,74,74,0
571.39905,571.51953,75,68,0
571.51953,571.6319,77,73,0
571.6319,571.7442,76,66,0
571.7442,571.96735,77,78,0
572.64343,572.8673,59,78,0
573.0912,573.1668,75,64,0
573.1668,573.242,77,59,0
573.242,573.31696,75,64,0
573.31696,573.39105,77,59,0
573.39105,573.4655,75,64,0
573.4655,573.54016,77,58,0
573.54016,573.61456,75,64,0
573.61456,573.68964,77,59,0
573.68964,573.765,75,64,0
573.765,573.82166,77,58,0
573.82166,573.8785,75,61,0
573.8785,573.9354,74,58,0
573.9354,573.99243,75,58,0
573.99243,574.4549,79,64,0
574.67865,574.79,79,73,0
574.79,574.9019,77,74,0
574.9019,575.0144,75,72,0
575.0144,575.1274,74,69,0
575.1274,575.24084,72,67,0
575.24084,575.3548,71,64,0
575.3548,575.80255,72,73,0
576.02826,576.1395,72,73,0
576.1395,576.2515,70,70,0
575.80255,576.2515,67,73,0
576.2515,576.364,69,72,0
576.364,576.477,67,69,0
576.477,576.59045,65,67,0
576.59045,576.7044,64,64,0
576.2515,576.7044,60,73,0
576.7044,576.8185,62,64,0
576.8185,576.9325,60,61,0
576.9325,577.047,58,59,0
577.047,577.1615,57,58,0
577.1615,577.39056,69,73,0
577.39056,577.50165,62,68,0
577.50165,577.61273,60,64,0
577.61273,577.7239,58,68,0
577.7239,577.83484,57,65,0
577.83484,577.9457,55,63,0
577.9457,578.05695,53,60,0
578.05695,578.16876,52,64,0
578.16876,578.281,50,64,0
578.281,578.3938,48,62,0
578.3938,578.507,46,61,0
578.7284,578.8391,75,76,0
578.8391,578.9498,74,71,0
578.9498,579.05975,72,77,0
579.05975,579.1696,70,74,0
579.1696,579.28015,69,71,0
579.28015,579.3913,67,68,0
579.3913,579.5031,65,74,0
579.5031,579.6156,63,73,0
579.6156,579.7287,62,71,0
579.7287,579.8419,60,69,0
579.8419,580.0633,72,77,0
580.0633,580.174,60,74,0
580.174,580.28467,58,70,0
580.28467,580.3954,57,76,0
580.3954,580.5061,55,72,0
580.5061,580.6168,53,70,0
580.6168,580.7275,51,68,0
580.7275,580.8403,50,72,0
580.8403,580.9494,60,79,0
580.9494,581.0585,58,69,0
581.0585,581.16754,57,66,0
581.16754,581.2767,74,76,0
581.2767,581.38574,72,72,0
581.16754,581.38574,62,61,0
581.38574,581.4948,77,76,0
581.4948,581.60846,75,71,0
581.60846,581.71796,74,79,0
581.71796,581.82745,72,76,0
581.82745,581.93695,70,74,0
581.93695,582.0501,69,71,0
582.0501,582.1596,79,78,0
582.1596,582.2691,77,76,0
582.2691,582.3786,75,73,0
582.3786,582.4931,74,71,0
582.4931,582.6026,82,81,0
582.6026,582.7121,81,78,0
582.7121,582.8216,79,75,0
582.8216,582.9361,77,72,0
582.4931,582.9361,74,61,0
582.9361,583.1559,75,86,0
582.9361,583.1559,67,86,0
583.1559,583.3757,72,86,0
583.3757,583.4489,93,86,0
583.4489,583.52216,94,82,0
583.52216,583.5953,93,86,0
583.5953,583.6681,94,81,0
583.6681,583.74066,93,86,0
583.74066,583.813,94,81,0
583.5953,583.813,84,86,0
583.813,583.88495,93,86,0
583.88495,583.9566,94,80,0
583.9566,584.02783,93,86,0
584.02783,584.0815,94,86,0
584.0815,584.1354,93,81,0
584.1354,584.1895,91,80,0
584.1895,584.24384,93,80,0
584.02783,584.24384,89,82,0
584.46265,584.68164,86,88,0
584.24384,584.68164,94,90,0
584.9001,585.0085,94,88,0
585.0085,585.1162,93,86,0
585.1162,585.22363,91,83,0
585.22363,585.332,89,81,0
585.332,585.4413,87,78,0
585.4413,585.55145,86,76,0
585.55145,585.76965,91,88,0
585.55145,585.76965,63,77,0
585.76965,585.98785,79,81,0
585.98785,586.06055,79,69,0
586.06055,586.1333,81,64,0
586.1333,586.206,79,68,0
586.206,586.2783,81,66,0
586.206,586.3144,91,88,0
586.2783,586.35034,79,69,0
586.35034,586.4221,81,66,0
586.3144,586.4221,89,86,0
586.4221,586.49365,79,71,0
586.4221,586.52954,87,83,0
586.49365,586.56555,81,65,0
586.56555,586.63794,79,71,0
586.52954,586.63794,86,81,0
586.63794,586.7107,81,69,0
586.63794,586.74725,84,78,0
586.7107,586.7839,79,73,0
586.7839,586.85736,81,67,0
586.74725,586.85736,82,76,0
586.85736,586.9301,79,75,0
586.9301,587.00287,81,70,0
587.00287,587.07556,79,74,0
587.07556,587.2978,80,72,0
586.85736,587.2978,87,88,0
587.2978,587.5152,81,78,0
587.5152,587.6239,87,88,0
587.6239,587.73627,86,82,0
587.73627,587.84534,84,88,0
587.84534,587.9544,86,82,0
587.9544,588.06354,84,83,0
588.06354,588.17505,82,83,0
587.9544,588.17505,64,67,0
588.17505,588.2833,81,88,0
588.2833,588.39166,82,83,0
588.17505,588.39166,65,72,0
588.39166,588.49994,81,83,0
588.49994,588.61145,79,83,0
588.61145,588.72015,77,88,0
588.72015,588.82886,79,82,0
588.82886,588.93756,81,82,0
588.93756,589.04865,82,82,0
589.04865,589.15735,83,84,0
589.15735,589.26605,84,85,0
589.26605,589.37476,86,86,0
589.37476,589.48346,84,84,0
589.48346,589.59216,82,89,0
589.59216,589.70087,84,90,0
589.70087,589.8095,86,92,0
589.8095,589.9219,87,94,0
589.9219,590.0306,89,96,0
590.0306,590.1393,80,82,0
590.1393,590.248,81,83,0
590.248,590.36426,82,87,0
590.36426,590.5801,84,95,0
590.5801,590.80316,82,88,0
590.80316,591.01855,82,95,0
590.80316,591.01855,79,80,0
591.01855,591.2353,80,89,0
591.01855,591.2353,77,75,0
591.2353,591.4537,79,89,0
591.2353,591.4537,70,75,0
591.4537,591.67377,77,84,0
591.4537,591.67377,68,71,0
591.67377,591.8896,89,85,0
591.67377,591.8896,92,100,0
591.8896,592.0543,91,95,0
591.8896,592.0543,87,80,0
592.11115,592.32855,87,85,0
592.11115,592.32855,91,101,0
592.32855,592.5509,87,95,0
592.32855,592.5509,84,80,0
592.5509,592.76746,82,84,0
592.5509,592.76746,86,99,0
592.76746,592.93964,86,76,0
592.76746,592.93964,89,90,0
593.0034,593.22565,81,98,0
593.0034,593.22565,75,83,0
593.0034,593.22565,72,83,0
593.22565,593.4479,82,99,0
593.22565,593.4479,74,84,0
593.22565,593.4479,70,84,0
593.89233,594.11456,80,62,0
594.3366,594.41003,66,45,0
594.41003,594.48315,67,42,0
594.48315,594.556,66,48,0
594.556,594.62854,67,46,0
594.62854,594.70074,66,52,0
594.70074,594.7726,67,48,0
594.7726,594.84406,66,56,0
594.84406,594.91595,67,51,0
594.91595,594.98816,66,58,0
594.98816,595.0426,67,55,0
595.0426,595.09717,66,63,0
595.09717,595.1519,67,58,0
595.1519,595.207,66,60,0
595.207,595.4284,78,93,0
595.6498,595.7236,63,63,0
595.7236,595.7972,65,57,0
595.7972,595.8706,63,66,0
595.8706,595.9438,65,60,0
595.9438,596.0168,63,69,0
596.0168,596.08954,65,64,0
596.08954,596.16187,63,73,0
596.16187,596.23425,65,67,0
596.23425,596.30695,63,76,0
596.30695,596.36163,65,71,0
596.36163,596.41656,63,80,0
596.41656,596.4717,62,74,0
596.4717,596.5269,63,75,0
596.5269,596.63794,66,83,0
596.63794,596.749,45,63,0
596.749,596.8608,48,65,0
596.8608,596.97284,51,66,0
596.97284,597.0844,54,68,0
597.0844,597.1954,57,70,0
597.1954,597.3058,60,71,0
597.3058,597.41565,63,73,0
597.41565,597.53564,66,78,0
597.53564,597.6462,57,64,0
597.6462,597.75684,60,66,0
597.75684,597.8671,63,68,0
597.8671,597.9772,66,69,0
597.9772,598.0871,69,71,0
598.0871,598.1966,72,73,0
598.1966,598.3059,75,75,0
598.3059,598.4264,78,81,0
598.4264,598.5371,69,66,0
598.5371,598.6477,72,67,0
598.6477,598.758,75,69,0
598.758,598.868,78,71,0
598.868,598.9777,81,72,0
598.9777,599.0872,84,74,0
599.0872,599.19635,87,76,0
599.19635,599.31635,90,86,0
599.31635,599.4282,69,67,0
599.4282,599.539,72,70,0
599.539,599.64844,75,74,0
599.64844,599.76483,78,77,0
599.76483,599.87555,57,63,0
599.87555,599.98566,60,68,0
599.98566,600.09503,63,72,0
600.09503,600.2155,66,76,0
600.2155,600.325,45,64,0
600.325,600.4345,48,69,0
600.4345,600.544,51,74,0
600.544,600.9895,54,79,0
600.9895,601.66876,51,79,0
600.9895,601.66876,42,79,0
600.9895,601.66876,45,79,0
601.66876,601.89514,50,70,0
601.66876,601.89514,44,70,0
601.66876,601.89514,41,70,0
601.89514,602.00507,70,50,0
602.00507,602.1149,68,45,0
602.1149,602.22485,70,50,0
602.22485,602.3347,68,45,0
602.3347,602.44464,70,50,0
602.44464,602.5545,68,45,0
602.5545,602.66437,67,50,0
602.66437,602.78485,68,45,0
603.00464,603.2244,56,53,0
602.78485,603.2244,71,58,0
603.2244,603.4442,68,50,0
603.4442,603.5529,71,46,0
603.5529,603.6616,70,50,0
603.4442,603.6616,79,55,0
603.6616,603.7703,68,47,0
603.7703,603.879,66,48,0
603.6616,603.879,80,56,0
603.879,603.9877,65,52,0
603.9877,604.10815,63,48,0
604.32794,604.5477,53,53,0
604.10815,604.5477,68,58,0
604.5477,604.7675,65,50,0
604.7675,604.8766,68,46,0
604.8766,604.9857,66,50,0
604.7675,604.9857,76,55,0
604.9857,605.0948,65,47,0
605.0948,605.20386,63,48,0
604.9857,605.20386,77,56,0
605.20386,605.313,62,52,0
605.313,605.4311,59,48,0
605.6509,605.87067,51,53,0
605.4311,605.87067,66,58,0
605.87067,606.0904,63,50,0
606.0904,606.1991,66,46,0
606.1991,606.3078,65,50,0
606.0904,606.3078,74,55,0
606.3078,606.4165,63,47,0
606.4165,606.5252,61,48,0
606.3078,606.5252,75,56,0
606.5252,606.6339,59,52,0
606.6339,606.7506,58,48,0
606.5252,606.86053,63,56,0
606.86053,606.9704,65,46,0
606.7506,606.9704,57,50,0
606.9704,607.08234,63,46,0
607.08234,607.1943,62,46,0
607.1943,607.3038,63,52,0
607.3038,607.41327,61,48,0
607.41327,607.52277,60,48,0
607.52277,607.63226,59,48,0
607.63226,607.74176,60,54,0
607.74176,607.85126,59,48,0
607.1943,607.85126,54,52,0
607.85126,607.9607,60,48,0
607.9607,608.0702,61,48,0
607.85126,608.0702,54,48,0
608.0702,608.2892,63,56,0
608.0702,608.2892,54,48,0
608.2892,608.5082,53,48,0
608.5082,608.7271,53,48,0
608.7271,608.9461,51,45,0
608.9461,609.1651,50,55,0
608.5082,609.1651,60,56,0
609.1651,609.3927,51,45,0
609.1651,609.3927,60,45,0
609.3927,609.6157,60,52,0
609.3927,609.6157,51,52,0
609.6157,609.8388,58,45,0
609.6157,609.8388,50,38,0
609.8388,610.0618,57,51,0
609.8388,610.0618,51,43,0
610.0618,610.2849,58,43,0
610.0618,610.2849,50,36,0
610.2849,610.50793,54,49,0
610.2849,610.50793,51,41,0
610.2849,610.50793,45,41,0
610.50793,610.7451,53,39,0
610.50793,610.7451,50,33,0
610.50793,610.7451,46,33,0
610.7451,610.975,63,53,0
610.7451,610.975,57,45,0
610.7451,610.975,54,45,0
610.975,611.20483,62,42,0
610.975,611.20483,58,35,0
610.975,611.20483,53,35,0
611.20483,611.43835,69,51,0
611.20483,611.43835,66,43,0
611.20483,611.43835,63,43,0
611.43835,611.6718,70,42,0
611.43835,611.6718,65,35,0
611.43835,611.6718,62,35,0
611.6718,611.9167,78,52,0
611.6718,611.9167,75,44,0
611.6718,611.9167,69,44,0
611.9167,612.2581,77,45,0
611.9167,612.2581,74,38,0
611.9167,612.2581,70,38,0
612.2581,612.3642,81,52,0
612.3642,612.4628,82,47,0
612.4628,612.5544,81,52,0
612.5544,612.64105,82,47,0
612.64105,612.726,81,52,0
612.726,612.8084,82,46,0
612.8084,612.88776,81,52,0
612.88776,612.9643,82,47,0
612.9643,613.0397,81,52,0
613.0397,613.11505,82,47,0
613.11505,613.1904,81,52,0
613.1904,613.26636,82,48,0
613.26636,613.37787,81,52,0
613.37787,613.50964,79,47,0
613.50964,613.6647,81,47,0
612.2581,613.6647,75,44,0
612.2581,613.6647,72,44,0
613.6647,614.3204,82,47,0
613.6647,614.3204,73,39,0
613.6647,614.3204,70,39,0
614.3204,614.4265,64,44,0
614.4265,614.5251,65,39,0
614.5251,614.61664,64,44,0
614.61664,614.70337,65,39,0
614.70337,614.7883,64,44,0
614.7883,614.8707,65,39,0
614.8707,614.9501,64,44,0
614.9501,615.0266,65,39,0
615.0266,615.102,64,44,0
615.102,615.17737,65,39,0
615.17737,615.25275,64,44,0
615.25275,615.3287,65,40,0
615.3287,615.43604,64,44,0
615.43604,615.555,62,39,0
615.555,615.6934,64,39,0
615.0266,615.6934,73,48,0
615.0266,615.6934,70,40,0
615.6934,616.4041,72,46,0
615.6934,616.4041,65,46,0
616.4041,616.5401,69,46,0
616.5401,616.66296,70,42,0
616.66296,616.7635,69,46,0
616.7635,616.85266,70,42,0
616.85266,616.9375,69,46,0
616.9375,617.0199,70,41,0
617.0199,617.09924,69,46,0
617.09924,617.1758,70,42,0
617.1758,617.25116,69,46,0
617.25116,617.32654,70,42,0
617.32654,617.4019,69,46,0
617.4019,617.47784,70,43,0
617.47784,617.58527,69,46,0
617.58527,617.7141,67,42,0
617.7141,617.89636,69,42,0
617.1758,617.89636,75,52,0
617.89636,618.87994,75,44,0
617.89636,618.87994,72,37,0
617.89636,618.87994,65,37,0
618.87994,620.21326,75,44,0
618.87994,620.21326,72,37,0
618.87994,620.21326,65,37,0
620.21326,620.3437,79,44,0
620.32196,620.4524,77,39,0
620.43066,620.5611,75,44,0
620.53937,620.6698,74,39,0
620.6481,620.7823,72,39,0
620.7568,620.8844,71,39,0
620.8844,621.33215,75,46,0
621.556,621.68695,67,44,0
621.66516,621.7961,65,39,0
621.77423,621.90515,63,44,0
621.88336,622.0142,62,39,0
621.99243,622.12726,60,39,0
622.1015,622.2303,59,39,0
622.2303,622.67804,63,46,0
622.89465,623.0253,79,44,0
623.0035,623.1349,77,39,0
623.1129,623.2449,75,44,0
623.22284,623.35535,74,39,0
623.3332,623.4696,72,39,0
623.44464,623.592,71,39,0
623.56964,623.6998,79,46,0
623.67834,623.8075,77,47,0
623.7859,623.9154,75,48,0
623.8938,624.0236,74,48,0
624.00195,624.132,72,49,0
624.1103,624.2407,70,51,0
624.219,624.34973,69,52,0
624.32794,624.459,67,53,0
624.4371,624.5685,65,55,0
624.5466,624.67944,63,56,0
624.65704,624.7914,62,57,0
624.769,624.90344,60,59,0
624.88104,624.9927,58,60,0
624.9927,625.1048,57,62,0
625.1048,625.2174,55,63,0
625.2174,625.3307,53,64,0
625.3307,625.4445,51,67,0
625.4445,625.55896,50,68,0
625.55896,625.6727,48,71,0
625.6727,625.7855,46,72,0
625.7855,625.8973,45,76,0
625.8973,626.00806,43,79,0
626.00806,626.1179,41,85,0
626.1179,626.2267,40,89,0
626.2267,626.4433,53,99,0
626.2267,626.4433,41,99,0
626.6599,626.73315,81,95,0
626.73315,626.8062,82,75,0
626.8062,626.87866,81,82,0
626.87866,626.9507,82,72,0
626.9507,627.02216,81,79,0
627.02216,627.0931,82,71,0
627.0931,627.164,81,76,0
627.164,627.2349,82,69,0
627.2349,627.30634,81,73,0
627.30634,627.3604,82,67,0
627.3604,627.415,81,76,0
627.415,627.47,79,73,0
627.47,627.5255,81,80,0
626.6599,627.5255,69,95,0
627.5255,627.7429,82,92,0
627.5255,627.7429,70,78,0
627.9603,628.17773,67,89,0
627.9603,628.17773,55,75,0
628.3951,628.4683,83,95,0
628.4683,628.5414,84,75,0
628.5414,628.6139,83,82,0
628.6139,628.6859,84,72,0
628.6859,628.7573,83,79,0
628.7573,628.82825,84,71,0
628.82825,628.8992,83,76,0
628.8992,628.9701,84,69,0
628.9701,629.0415,83,73,0
629.0415,629.0956,84,67,0
629.0956,629.15015,83,74,0
629.15015,629.2052,81,70,0
629.2052,629.26074,83,79,0
628.3951,629.26074,71,95,0
629.26074,629.4781,84,92,0
629.26074,629.4781,72,78,0
629.6955,629.9129,69,89,0
629.6955,629.9129,57,75,0
630.1303,630.20355,85,95,0
630.20355,630.27655,86,75,0
630.27655,630.34906,85,82,0
630.34906,630.4211,86,72,0
630.4211,630.49255,85,79,0
630.49255,630.5635,86,71,0
630.5635,630.6344,85,76,0
630.6344,630.7053,86,69,0
630.7053,630.7767,85,73,0
630.7767,630.8308,86,67,0
630.8308,630.8853,85,74,0
630.8853,630.94037,83,66,0
630.94037,630.9959,85,79,0
630.1303,630.9959,73,95,0
630.9959,631.2133,86,92,0
630.9959,631.2133,74,78,0
631.4307,631.6481,70,89,0
631.4307,631.6481,58,75,0
631.8655,631.9387,86,95,0
631.9387,632.0118,87,75,0
632.0118,632.0842,86,82,0
632.0842,632.15625,87,72,0
632.15625,632.2277,86,79,0
632.2277,632.29865,87,71,0
632.29865,632.36957,86,76,0
632.36957,632.4405,87,69,0
632.4405,632.5119,86,73,0
632.5119,632.566,87,70,0
632.566,632.62054,86,78,0
632.62054,632.67554,84,73,0
632.67554,632.7311,86,81,0
631.8655,632.7311,74,95,0
632.7311,632.9485,87,92,0
632.7311,632.9485,75,78,0
633.1659,633.3833,72,89,0
633.1659,633.3833,60,75,0
633.60065,633.6739,88,95,0
633.6739,633.74695,89,75,0
633.74695,633.81946,88,82,0
633.81946,633.8915,89,72,0
633.8915,633.9629,88,79,0
633.9629,634.0338,89,71,0
634.0338,634.10474,88,76,0
634.10474,634.17566,89,69,0
634.17566,634.2471,88,73,0
634.2471,634.30115,89,67,0
634.30115,634.3557,88,76,0
634.3557,634.4107,86,70,0
634.4107,634.4663,88,79,0
633.60065,634.4663,76,95,0
634.4663,634.68365,89,92,0
634.4663,634.68365,77,78,0
634.90106,635.11847,74,89,0
634.90106,635.11847,62,75,0
635.3359,635.4091,90,95,0
635.4091,635.4821,91,75,0
635.4821,635.5546,90,82,0
635.5546,635.62665,91,72,0
635.62665,635.6981,90,79,0
635.6981,635.76904,91,71,0
635.76904,635.83997,90,76,0
635.83997,635.9109,91,69,0
635.9109,635.98224,90,73,0
635.98224,636.0363,91,67,0
636.0363,636.0909,90,77,0
636.0909,636.14594,88,74,0
636.14594,636.2015,90,83,0
635.3359,636.2015,78,95,0
636.2015,636.4189,91,92,0
636.2015,636.4189,79,78,0
636.6362,636.85364,75,89,0
636.6362,636.85364,63,75,0
637.07104,637.7232,81,75,0
637.07104,637.7232,87,75,0
637.07104,637.7232,93,89,0
637.07104,637.7232,89,75,0
637.07104,637.7232,84,75,0
637.9406,638.5928,82,78,0
637.9406,638.5928,94,93,0
637.9406,638.5928,89,78,0
637.9406,638.5928,86,78,0
638.8102,639.46234,69,75,0
638.8102,639.46234,75,75,0
638.8102,639.46234,81,89,0
638.8102,639.46234,77,75,0
638.8102,639.46234,72,75,0
640.1145,641.85364,70,79,0
640.1145,641.85364,82,94,0
640.1145,641.85364,77,79,0
640.1145,641.85364,74,79,0
0.0,0.18221566,41,50,0
0.18221566,0.31887743,53,46,0
0.36443132,0.546647,53,54,0
1.4809532,5.0120044,41,36,0
1.4809532,5.0120044,29,30,0
5.8793907,6.457648,53,32,0
5.8793907,6.457648,41,27,0
8.192421,8.770678,49,34,0
8.192421,8.770678,37,28,0
10.50545,11.083708,46,31,0
10.50545,11.083708,34,26,0
12.8184805,14.182117,42,24,0
12.8184805,14.182117,30,20,0
19.588945,19.867342,53,29,0
19.867342,20.145739,56,32,0
20.145739,20.424135,53,27,0
20.424135,20.702532,56,32,0
20.702532,20.980928,53,26,0
20.980928,21.259325,56,31,0
21.259325,21.537722,49,25,0
21.537722,22.127344,54,38,0
22.127344,22.689352,48,30,0
22.689352,23.262089,49,28,0
23.262089,23.906921,42,28,0
24.496544,25.137136,42,26,0
24.496544,25.137136,54,31,0
26.385664,27.039545,39,27,0
26.385664,27.039545,51,32,0
27.777443,29.542149,47,32,0
27.777443,29.542149,35,27,0
29.542149,29.74114,54,30,0
29.74114,29.940132,56,31,0
29.940132,30.139124,58,31,0
30.139124,30.335356,59,32,0
30.335356,30.531078,61,33,0
30.531078,30.726036,63,34,0
30.726036,30.919786,64,35,0
30.919786,31.113039,63,36,0
31.113039,31.32472,59,33,0
31.305494,31.51595,66,39,0
31.496826,31.706472,64,39,0
31.68747,31.89649,63,40,0
31.877487,32.086506,61,41,0
32.067505,32.276524,59,42,0
32.257523,32.46654,58,43,0
32.44754,32.65656,59,43,0
32.637558,32.827576,54,38,0
32.827576,33.036594,56,44,0
33.017593,33.226612,58,44,0
33.20761,33.41663,59,43,0
33.39763,33.606647,61,43,0
33.587646,33.79823,63,42,0
33.777664,34.002422,64,42,0
33.983315,34.174397,63,42,0
34.174397,34.3781,75,42,0
34.35958,34.563286,78,39,0
34.544765,34.74847,76,40,0
34.729954,34.933655,75,42,0
34.91514,35.11884,73,44,0
35.100323,35.30564,71,45,0
35.285507,35.505367,70,47,0
35.48685,35.690556,71,50,0
35.672035,35.87574,70,42,0
35.85722,36.060925,75,42,0
36.042404,36.24611,73,42,0
36.227592,36.431293,71,49,0
36.412777,36.61648,70,37,0
36.59796,36.803146,68,37,0
36.783146,37.001553,66,37,0
36.983147,37.1856,64,46,0
37.167194,37.369648,63,42,0
37.351246,37.555428,61,42,0
37.535294,37.755154,59,42,0
37.736637,37.92182,58,42,0
37.92182,38.107006,61,45,0
38.107006,38.29219,59,47,0
38.29219,38.47738,64,50,0
38.47738,38.665173,63,50,0
38.665173,38.877068,62,39,0
38.877068,39.123047,61,47,0
39.123047,39.416206,54,40,0
39.416206,42.143482,54,34,0
39.416206,42.143482,66,40,0
39.416206,42.143482,61,34,0
42.95517,43.496296,35,32,0
42.95517,43.496296,47,32,0
44.991665,45.27663,44,82,0
44.991665,45.27663,32,82,0
46.17174,46.29828,68,39,0
46.29828,46.42482,61,41,0
46.42482,46.55136,68,37,0
46.55136,46.6779,70,42,0
46.6779,46.80444,68,34,0
46.80444,46.930977,61,41,0
46.930977,47.057518,68,34,0
47.057518,47.816753,67,45,0
47.816753,48.322914,67,52,0
48.322914,48.575993,67,49,0
48.575993,48.82907,64,57,0
48.82907,49.09131,63,52,0
49.09131,49.217316,61,60,0
49.217316,49.343323,56,37,0
49.343323,49.46933,49,42,0
49.46933,49.59534,56,37,0
49.59534,49.721348,57,44,0
49.721348,49.847355,56,37,0
49.847355,49.973362,49,37,0
49.973362,50.099373,56,37,0
50.099373,50.85542,57,46,0
50.85542,51.11354,56,40,0
51.11354,51.24565,58,57,0
51.24565,51.37776,61,44,0
51.37776,51.503773,58,52,0
51.503773,51.62978,63,44,0
51.62978,51.755787,64,54,0
51.755787,51.881794,63,42,0
51.881794,52.007805,58,46,0
52.007805,52.133812,63,39,0
51.11354,52.133812,55,57,0
52.25982,52.385826,59,41,0
52.133812,52.385826,56,55,0
52.385826,52.511837,56,42,0
52.511837,52.64815,59,42,0
52.64815,52.77416,61,53,0
52.77416,52.900166,59,37,0
52.900166,53.026173,56,45,0
53.026173,53.152184,59,37,0
52.900166,53.152184,47,38,0
53.152184,53.409603,52,49,0
53.409603,53.94122,61,57,0
53.152184,53.94122,49,41,0
53.94122,54.217896,51,39,0
53.94122,54.217896,59,46,0
54.217896,54.484467,59,57,0
54.484467,54.759933,58,48,0
54.759933,55.044174,56,55,0
54.217896,55.044174,51,48,0
55.044174,55.347645,55,49,0
55.044174,55.347645,51,41,0
58.33536,59.286533,56,24,0
58.33536,59.286533,44,20,0
62.071205,63.96703,52,24,0
62.071205,63.96703,40,20,0
66.95474,67.90592,37,20,0
66.95474,67.90592,49,24,0
70.45923,70.67643,33,38,0
70.67643,70.83933,45,32,0
70.89363,71.11083,45,41,0
71.11083,71.273735,57,32,0
71.32804,71.54524,57,32,0
72.631256,72.84846,33,27,0
72.631256,72.84846,45,32,0
79.97504,80.157875,59,42,0
80.157875,80.34071,56,36,0
80.34071,80.52355,52,37,0
80.52355,80.70639,51,37,0
80.70639,80.823006,50,48,0
80.80352,80.91981,52,39,0
80.90045,81.01612,50,48,0
80.99689,81.11194,52,41,0
81.09283,81.20727,50,40,0
81.18828,81.30187,52,34,0
81.283005,81.396,50,40,0
81.37726,81.48967,52,35,0
81.47101,81.58284,50,40,0
81.5642,81.67538,52,34,0
81.65694,81.767395,50,40,0
81.74899,81.85889,52,35,0
81.8406,81.949936,50,40,0
81.931755,82.04054,52,34,0
82.02248,82.1305,50,40,0
82.11253,82.22062,52,35,0
82.202545,82.31139,50,40,0
82.29321,82.4026,52,34,0
82.384315,82.49449,50,40,0
82.47608,82.58705,52,34,0
82.568535,82.68008,50,40,0
82.661446,82.77389,52,34,0
82.75505,82.86844,50,40,0
82.84945,82.94438,52,34,0
82.94438,83.05742,51,45,0
83.038666,83.15085,52,38,0
83.13221,83.24358,51,45,0
83.22507,83.33555,52,41,0
83.31723,83.42682,51,40,0
83.40864,83.517426,52,34,0
83.49936,83.60738,51,40,0
83.58942,83.69669,52,35,0
83.67884,83.78617,51,40,0
83.7682,83.87607,52,35,0
83.858025,83.96643,51,40,0
83.94836,84.05337,52,35,0
84.03736,84.12892,51,40,0
84.13902,84.26129,52,35,0
84.24078,84.36891,51,40,0
84.34364,84.441284,52,42,0
84.441284,84.55961,54,35,0
84.53996,84.657646,52,44,0
84.63804,84.75559,54,38,0
84.73608,84.85299,52,40,0
84.83351,84.9503,54,35,0
84.930916,85.04707,52,40,0
85.02772,85.14375,54,35,0
85.1245,85.23991,52,40,0
85.22068,85.33597,54,35,0
85.31683,85.43151,52,40,0
85.41241,85.52696,54,35,0
85.50795,85.6219,52,40,0
85.60291,85.71675,54,35,0
85.69785,85.81109,52,40,0
85.79222,85.90534,54,36,0
85.88656,85.99909,52,40,0
85.98034,86.09275,54,35,0
86.07409,86.18592,52,40,0
86.16728,86.27877,54,36,0
86.260254,86.42316,52,40,0
86.39191,86.57941,51,37,0
72.84846,86.70441,33,33,0
72.84846,86.70441,40,33,0
72.84846,86.70441,47,39,0
86.54816,86.70441,52,37,0
72.84846,86.70441,38,33,0
87.33612,87.967834,33,22,0
86.70441,87.967834,52,41,0
86.70441,87.967834,49,34,0
87.33612,87.967834,45,26,0
87.967834,88.037926,49,34,0
87.967834,88.037926,52,41,0
88.24821,88.40288,33,23,0
88.24821,88.40288,45,28,0
88.55755,89.15767,52,41,0
88.55755,89.15767,49,34,0
89.7292,90.30074,45,26,0
89.15767,90.30074,52,41,0
89.15767,90.30074,49,34,0
89.7292,90.30074,33,22,0
90.30074,90.36713,57,41,0
90.30074,90.36713,49,34,0
90.56628,90.72095,30,23,0
90.56628,90.72095,42,28,0
90.87562,91.46968,57,41,0
90.87562,91.46968,49,34,0
90.87562,91.46968,54,34,0
92.041214,92.612755,50,26,0
91.46968,92.612755,57,41,0
91.46968,92.612755,54,34,0
92.041214,92.612755,38,22,0
92.612755,92.67914,54,34,0
92.612755,92.67914,57,41,0
92.87829,93.03135,50,28,0
92.87829,93.03135,38,23,0
93.18441,93.75584,54,34,0
93.18441,93.75584,57,41,0
94.3064,94.85696,38,22,0
93.75584,94.85696,57,41,0
93.75584,94.85696,54,34,0
94.3064,94.85696,50,26,0
94.85696,94.91744,62,41,0
94.85696,94.91744,54,34,0
95.09889,95.243126,47,28,0
95.09889,95.243126,35,23,0
95.38735,95.92826,62,41,0
95.38735,95.92826,59,34,0
95.38735,95.93281,54,34,0
96.42469,96.94652,55,26,0
96.42469,96.94652,43,22,0
97.17729,97.31365,55,28,0
97.17729,97.31365,43,23,0
98.418015,98.8942,55,27,0
98.418015,98.8942,43,23,0
99.11977,99.23788,52,31,0
99.11977,99.23788,40,26,0
100.34128,100.81003,48,27,0
100.34128,100.81003,60,31,0
101.03559,101.15009,60,34,0
101.03559,101.15009,48,28,0
102.17182,102.606606,45,29,0
102.17182,102.606606,57,34,0
102.819374,102.929665,57,38,0
102.819374,102.929665,45,31,0
103.91447,104.33405,53,38,0
103.91447,104.33405,41,32,0
104.53539,104.63606,41,37,0
104.53539,104.63606,53,45,0
105.571075,105.973755,50,48,0
105.571075,105.973755,38,41,0
106.167305,106.264084,38,47,0
106.167305,106.264084,50,57,0
106.99385,107.19519,45,57,0
106.99385,107.19519,33,48,0
106.99385,107.19519,37,48,0
106.99385,107.19519,40,48,0
107.29587,107.3462,40,50,0
107.29587,107.3462,37,50,0
107.29587,107.3462,33,50,0
107.29587,107.3462,45,61,0
107.799225,108.000565,33,46,0
107.799225,108.000565,37,46,0
107.799225,108.000565,40,46,0
107.799225,108.000565,45,54,0
108.101234,108.15157,37,47,0
108.101234,108.15157,33,47,0
108.101234,108.15157,40,47,0
108.101234,108.15157,45,58,0
108.60459,108.80593,40,44,0
108.60459,108.80593,37,44,0
108.60459,108.80593,33,44,0
108.60459,108.80593,45,52,0
108.90661,108.95694,45,56,0
108.90661,108.95694,33,45,0
109.41181,109.615204,33,37,0
109.41181,109.615204,45,44,0
109.716896,109.767746,45,43,0
109.716896,109.767746,33,35,0
110.227486,110.437454,45,33,0
110.227486,110.437454,33,28,0
110.54423,110.59803,33,26,0
110.54423,110.59803,45,32,0
111.09503,111.32198,41,20,0
111.09503,111.32198,29,17,0
111.43769,111.49638,29,18,0
111.43769,111.49638,41,22,0
111.821,112.03692,41,30,0
111.821,112.03692,29,25,0
112.249985,112.46023,57,30,0
112.249985,112.46023,53,25,0
113.08525,113.29339,29,39,0
113.08525,113.29339,41,46,0
113.5004,113.70594,60,39,0
113.5004,113.70594,57,33,0
114.322426,114.53191,29,46,0
114.322426,114.53191,41,55,0
114.738976,114.94445,53,45,0
114.738976,114.94445,65,54,0
114.738976,114.94445,60,45,0
114.738976,114.94445,57,45,0
115.14993,115.35518,41,57,0
115.14993,115.35518,29,48,0
115.56223,115.76808,53,56,0
115.56223,115.76808,65,66,0
115.56223,115.76808,60,56,0
115.56223,115.76808,57,56,0
115.97356,116.59192,41,75,0
115.97356,116.59192,29,63,0
116.59192,116.70139,43,54,0
116.70139,116.81388,45,55,0
116.81388,117.02222,41,55,0
116.81388,117.02222,34,55,0
116.81388,117.02222,38,55,0
116.81388,117.02222,46,65,0
118.06409,118.27385,53,40,0
118.4829,118.5524,69,46,0
118.5524,118.62184,70,40,0
118.62184,118.691284,69,46,0
118.691284,118.76034,70,40,0
118.76034,118.82953,69,44,0
118.82953,118.89907,70,40,0
118.89907,118.96888,69,45,0
118.96888,119.03904,70,40,0
119.03904,119.109566,69,44,0
119.109566,119.162636,70,40,0
119.162636,119.21593,69,44,0
119.21593,119.26938,67,40,0
119.26938,119.32305,69,40,0
119.32305,119.73972,70,52,0
119.94805,120.07305,70,52,0
120.05222,120.17722,69,46,0
120.15639,120.28139,67,46,0
120.26055,120.38555,65,46,0
120.36472,120.49145,63,48,0
120.46889,120.6025,62,43,0
120.58167,120.79,67,52,0
121.20667,121.33167,67,52,0
121.31084,121.43584,65,46,0
121.415,121.54,63,46,0
121.51917,121.64417,62,46,0
121.62334,121.75006,60,49,0
121.7275,121.86112,58,45,0
121.84029,122.04862,63,52,0
122.46529,122.59029,63,52,0
122.56945,122.69445,62,46,0
122.67362,122.79862,60,52,0
122.77779,122.90279,62,46,0
122.88195,123.00786,60,46,0
122.98612,123.09482,58,46,0
123.09482,123.21982,57,53,0
123.19898,123.32398,58,47,0
123.30315,123.429054,57,47,0
123.40732,123.53684,55,47,0
123.516014,123.641014,53,52,0
123.62018,123.74518,55,47,0
123.72434,123.84934,57,48,0
123.828514,123.953514,58,48,0
123.93268,124.05768,59,52,0
124.03684,124.16184,60,49,0
124.141014,124.266914,62,49,0
124.24518,124.353874,60,49,0
124.353874,124.478874,58,52,0
124.45804,124.58304,60,47,0
124.56221,124.689995,62,47,0
124.666374,124.80532,63,47,0
124.784485,124.909485,64,52,0
124.88865,125.01365,65,45,0
124.99282,125.11782,67,45,0
125.096985,125.221985,65,45,0
125.20115,125.32615,63,52,0
125.30532,125.43032,62,48,0
125.409485,125.53555,60,48,0
125.51365,125.62314,58,48,0
125.62314,125.74814,57,52,0
125.72731,125.85231,58,47,0
125.831474,125.956474,57,47,0
125.93564,126.06064,55,47,0
126.03981,126.16481,53,53,0
126.143974,126.268974,55,47,0
126.24814,126.37314,57,48,0
126.35231,126.456474,58,48,0
126.456474,126.581474,59,54,0
126.56064,126.685646,60,47,0
126.66481,126.790405,62,48,0
126.768974,126.87612,60,48,0
126.87612,127.00069,58,55,0
126.97993,127.10449,60,48,0
127.08373,127.20976,62,49,0
127.18754,127.31956,63,49,0
127.298645,127.42408,64,56,0
127.403175,127.52861,65,51,0
127.507706,127.63314,67,52,0
127.612236,127.71677,65,52,0
127.71677,127.8213,58,57,0
127.8213,127.94673,66,52,0
127.92583,128.05455,67,53,0
128.03035,128.15132,66,53,0
128.15132,128.25659,58,61,0
128.25659,128.3829,67,53,0
128.36185,128.48816,69,53,0
128.46712,128.57237,67,53,0
128.57237,128.67764,66,59,0
128.67764,128.80396,67,55,0
128.7829,128.90921,69,55,0
128.88817,128.99342,67,55,0
128.99342,129.0987,64,60,0
129.0987,129.225,65,54,0
129.20395,129.33104,67,54,0
129.30922,129.4183,65,55,0
129.4183,129.52284,64,61,0
129.52284,129.64827,65,57,0
129.62737,129.75404,67,57,0
129.7319,129.8426,65,57,0
129.8426,129.9475,62,62,0
129.9475,130.07336,63,58,0
130.05238,130.17911,65,59,0
130.15729,130.26637,63,59,0
130.26637,130.37091,61,63,0
130.37091,130.49634,62,59,0
130.47543,130.60132,63,59,0
130.57996,130.68672,62,59,0
130.68672,130.79018,61,65,0
130.79018,130.9143,62,58,0
130.89362,131.01776,63,58,0
130.99707,131.10056,62,58,0
131.10056,131.20493,59,65,0
131.20493,131.30872,60,60,0
131.30872,131.41193,62,60,0
131.41193,131.5145,60,60,0
131.5145,131.6167,57,65,0
131.6167,131.7196,58,58,0
131.7196,131.82323,60,58,0
131.82323,131.9386,58,58,0
132.17575,132.28897,57,65,0
132.40218,133.03975,69,76,0
133.49458,133.60822,53,65,0
133.72186,134.36783,65,76,0
134.82892,134.9452,50,61,0
135.06148,135.30801,62,68,0
135.2862,135.5262,60,61,0
135.50438,135.74438,58,60,0
135.72256,135.96255,59,60,0
135.94075,136.04984,60,70,0
136.3771,137.03165,58,71,0
137.03165,137.25748,58,59,0
137.25748,137.49835,58,65,0
137.47646,137.71733,57,59,0
137.69543,137.93631,55,59,0
137.91441,138.15529,53,59,0
138.13339,138.37427,52,59,0
138.35237,138.57135,53,59,0
138.57135,138.68762,60,69,0
139.03032,139.68726,58,68,0
139.68726,139.90623,57,65,0
139.90623,140.0225,62,71,0
140.3652,141.01974,61,70,0
141.01974,141.23793,60,62,0
141.23793,141.35376,65,71,0
141.69516,142.3497,64,70,0
142.3497,142.56789,63,61,0
142.56789,142.80504,41,73,0
143.0323,143.1053,57,70,0
143.1053,143.1783,58,62,0
143.1783,143.25128,57,70,0
143.25128,143.32428,58,63,0
143.32428,143.39728,57,70,0
143.39728,143.47026,58,63,0
143.47026,143.54434,57,70,0
143.54434,143.61841,58,64,0
143.61841,143.69249,57,70,0
143.69249,143.74927,58,63,0
143.74927,143.80878,57,70,0
143.80878,143.87173,55,65,0
143.87173,143.9382,57,65,0
143.9382,144.381,58,72,0
144.6024,144.73051,58,62,0
144.70917,144.83728,57,52,0
144.81593,144.94405,55,52,0
144.92268,145.05081,53,52,0
145.02945,145.15877,51,58,0
145.13622,145.27252,50,51,0
145.249,145.71156,55,69,0
145.92433,146.05429,55,62,0
146.03264,146.1626,53,52,0
146.14093,146.2709,51,52,0
146.24924,146.3792,50,52,0
146.35754,146.4884,48,58,0
146.46585,146.60263,46,51,0
146.57863,147.05118,51,69,0
147.27591,147.40681,51,56,0
147.385,147.5159,50,55,0
147.49408,147.625,48,54,0
147.60318,147.735,50,53,0
147.71227,147.84863,48,51,0
147.8259,147.96193,46,52,0
147.93954,148.07387,45,56,0
148.05148,148.18713,46,50,0
148.16342,148.30571,45,50,0
148.282,148.40057,43,50,0
148.40057,148.50928,41,50,0
148.50928,148.63971,43,52,0
148.61797,148.7484,45,48,0
148.72665,148.8571,46,48,0
148.83536,148.96579,47,48,0
148.94405,149.0745,48,48,0
149.05275,149.18478,50,48,0
149.16144,149.27818,48,48,0
149.27818,149.40956,46,51,0
149.38766,149.51906,48,51,0
149.49715,149.62854,50,51,0
149.60664,149.73804,51,52,0
149.71613,149.84752,52,53,0
149.82562,149.957,53,53,0
149.9351,150.0665,55,54,0
150.0446,150.17598,53,51,0
150.15408,150.28548,51,54,0
150.26358,150.39496,50,53,0
150.37306,150.50446,48,52,0
150.48256,150.61443,46,51,0
150.59204,150.72638,45,56,0
150.70398,150.83965,46,50,0
150.81592,150.95822,45,50,0
150.9345,151.05309,43,50,0
151.05309,151.16177,41,50,0
151.16177,151.2922,43,52,0
151.27048,151.40091,45,48,0
151.37917,151.5096,46,48,0
151.48785,151.6183,45,48,0
151.59656,151.72699,46,48,0
151.70525,151.8373,48,48,0
151.81395,151.93068,50,48,0
151.93068,152.06653,51,51,0
152.04388,152.17891,53,51,0
152.15709,152.28792,55,51,0
152.26619,152.39662,51,52,0
152.37488,152.50531,49,53,0
152.48358,152.61401,50,53,0
152.59227,152.7227,52,54,0
152.70097,152.8314,49,51,0
152.80966,152.91837,50,54,0
152.91837,153.02705,53,53,0
153.02705,153.13576,58,52,0
153.13576,153.24445,62,51,0
153.24445,153.3768,54,56,0
153.35474,153.48743,55,50,0
153.46504,153.59937,57,50,0
153.57698,153.68892,55,50,0
153.68892,153.7976,51,50,0
153.7976,153.92804,52,52,0
153.90631,154.03674,53,48,0
154.015,154.14543,52,48,0
154.1237,154.23239,53,48,0
154.23239,154.3411,57,48,0
154.3411,154.44978,60,48,0
154.44978,154.56651,65,48,0
154.56651,154.70236,59,51,0
154.67973,154.81476,60,51,0
154.79294,154.92384,62,51,0
154.90202,155.03293,60,52,0
155.01111,155.14203,56,53,0
155.12021,155.25111,57,53,0
155.2293,155.3602,58,54,0
155.3384,155.4693,57,51,0
155.44748,155.57838,58,54,0
155.55656,155.68748,57,53,0
155.66566,155.79657,55,52,0
155.77475,155.90648,53,51,0
155.88385,156.0197,51,51,0
155.99706,156.13208,53,51,0
156.11026,156.24117,55,51,0
156.21935,156.35027,51,52,0
156.32845,156.45935,50,53,0
156.43753,156.56844,49,53,0
156.54662,156.67754,48,54,0
156.65572,156.78662,49,51,0
156.7648,156.8957,50,54,0
156.8739,157.0048,52,53,0
156.98299,157.11389,53,52,0
157.09207,157.22382,54,51,0
157.20117,157.33702,55,51,0
157.31438,157.4494,57,51,0
157.42758,157.55849,58,51,0
157.53667,157.66759,59,52,0
157.64577,157.75485,48,53,0
157.75485,157.86395,52,53,0
157.86395,157.97304,55,54,0
157.97304,158.08212,60,51,0
158.08212,158.21304,53,54,0
158.19122,158.32213,55,53,0
158.30031,158.43121,56,52,0
158.40941,158.54114,57,51,0
158.5185,158.6317,46,51,0
158.6317,158.7449,50,51,0
158.7449,158.854,53,51,0
158.854,158.96309,58,52,0
158.96309,159.07217,52,53,0
159.07217,159.18127,55,53,0
159.18127,159.29036,58,54,0
159.29036,159.39946,64,51,0
159.39946,159.50854,55,54,0
159.50854,159.61763,52,53,0
159.61763,159.72673,55,52,0
159.72673,159.83582,52,51,0
160.71059,160.93106,41,67,0
161.15154,161.22453,57,70,0
161.22453,161.29733,58,64,0
161.29733,161.36993,57,70,0
161.36993,161.4423,58,62,0
161.4423,161.51448,57,70,0
161.51448,161.58632,58,62,0
161.58632,161.65782,57,68,0
161.65782,161.72972,58,59,0
161.72972,161.80206,57,68,0
161.80206,161.8566,58,61,0
161.8566,161.91139,57,68,0
161.91139,161.96645,55,63,0
161.96645,162.02159,57,63,0
162.02159,162.4566,58,63,0
163.326,163.54579,43,67,0
163.76556,163.83884,59,70,0
163.83884,163.91206,60,64,0
163.91206,163.98505,59,70,0
163.98505,164.05804,60,62,0
164.05804,164.13077,59,70,0
164.13077,164.20338,60,62,0
164.20338,164.27559,59,68,0
164.27559,164.34805,60,59,0
164.34805,164.42073,59,68,0
164.42073,164.47537,60,61,0
164.47537,164.53012,59,68,0
164.53012,164.58504,57,63,0
164.58504,164.64005,59,63,0
164.64005,164.86063,60,63,0
164.86063,165.08192,44,63,0
165.08192,165.15683,60,70,0
165.15683,165.23146,61,64,0
165.23146,165.30586,60,70,0
165.30586,165.38004,61,62,0
165.38004,165.45409,60,70,0
165.45409,165.52788,61,62,0
165.52788,165.6011,60,68,0
165.6011,165.6741,61,59,0
165.6741,165.74715,60,68,0
165.74715,165.8021,61,61,0
165.8021,165.85704,60,68,0
165.85704,165.912,58,63,0
165.912,165.96715,60,63,0
165.96715,166.40833,61,63,0
166.6289,166.7392,61,61,0
166.7392,166.8495,60,61,0
166.8495,166.9598,58,67,0
166.9598,167.07008,56,61,0
167.07008,167.18037,54,61,0
167.18037,167.29068,53,61,0
167.29068,167.7406,58,69,0
167.96039,168.07027,58,63,0
168.07027,168.18016,56,61,0
168.18016,168.29005,54,57,0
168.29005,168.39995,53,58,0
168.39995,168.50983,51,58,0
168.50983,168.62701,49,58,0
168.62701,169.06497,54,64,0
169.28395,169.39345,54,61,0
169.39345,169.50293,53,56,0
169.50293,169.6157,51,61,0
169.6157,169.7285,53,57,0
169.7285,169.84003,51,57,0
169.84003,169.95154,49,57,0
169.95154,170.06476,48,61,0
170.06476,170.17796,49,55,0
170.17796,170.29247,48,55,0
170.29247,170.40697,46,55,0
170.40697,170.51686,44,61,0
170.51686,170.62675,46,55,0
170.62675,170.73663,48,56,0
170.73663,170.84653,49,57,0
170.84653,170.95642,50,62,0
170.95642,171.06631,51,57,0
171.06631,171.1762,53,57,0
171.1762,171.28609,51,57,0
171.28609,171.39598,49,57,0
171.39598,171.50587,51,57,0
171.50587,171.61575,53,59,0
171.61575,171.72565,54,59,0
171.72565,171.83554,55,61,0
171.83554,171.94543,56,62,0
171.94543,172.05907,58,66,0
172.05907,172.1727,56,62,0
172.1727,172.2834,54,61,0
172.2834,172.3941,53,62,0
172.3941,172.50319,51,60,0
172.50319,172.61229,49,58,0
172.61229,172.83046,44,70,0
173.04865,173.70723,42,75,0
173.04865,173.70723,51,86,0
173.70723,173.92384,51,74,0
173.70723,173.92384,42,65,0
173.92384,174.14203,42,70,0
173.92384,174.14203,51,80,0
174.14203,174.3602,49,74,0
174.14203,174.3602,41,65,0
174.3602,174.57838,48,80,0
174.3602,174.57838,39,70,0
174.57838,174.80199,37,67,0
174.57838,174.80199,49,77,0
174.80199,175.0267,51,80,0
174.80199,175.0267,48,70,0
175.0267,175.24568,49,63,0
175.0267,175.24568,53,72,0
176.56451,176.79007,49,72,0
176.56451,176.79007,37,63,0
177.00986,177.66919,48,80,0
177.00986,177.66919,36,70,0
177.66919,177.8939,34,64,0
177.66919,177.8939,46,73,0
177.8939,178.33186,39,71,0
177.8939,178.33186,51,81,0
179.21352,179.4317,55,72,0
179.21352,179.4317,43,63,0
179.65393,180.30847,53,80,0
179.65393,180.30847,41,70,0
180.30847,180.52666,39,63,0
180.30847,180.52666,51,72,0
180.52666,180.9721,44,70,0
180.52666,180.9721,56,80,0
181.4117,181.62987,43,63,0
181.4117,181.62987,55,72,0
181.84805,182.06624,55,79,0
181.84805,182.06624,43,69,0
182.06624,182.29012,53,77,0
182.06624,182.29012,41,67,0
182.72649,182.94466,51,68,0
182.72649,182.94466,63,68,0
183.16331,183.38521,63,68,0
183.38521,183.59407,61,60,0
183.60306,183.81804,61,68,0
183.81804,184.03548,60,59,0
184.26537,184.38489,48,66,0
184.50441,184.94559,60,74,0
185.62695,185.7406,44,66,0
185.85423,186.2906,56,74,0
186.95168,187.0698,41,59,0
187.1879,187.29984,53,66,0
187.41177,187.52208,57,58,0
187.63237,187.85295,58,68,0
187.85295,188.07355,62,57,0
188.07355,188.29413,63,62,0
188.51472,189.18214,61,73,0
188.51472,189.18214,58,67,0
189.18398,189.41109,58,63,0
189.18398,189.41109,61,69,0
189.413,189.63358,61,71,0
189.413,189.63358,58,65,0
189.63358,189.85915,56,62,0
189.63358,189.85915,60,68,0
189.85915,190.08641,58,70,0
189.85915,190.08641,49,64,0
190.08641,190.31369,48,57,0
190.08641,190.31369,56,62,0
190.31369,190.54625,46,66,0
190.31369,190.54625,55,72,0
190.54625,190.77881,48,62,0
190.54625,190.77881,56,68,0
190.77881,190.91313,43,60,0
190.89075,191.02507,44,55,0
191.00269,191.13701,43,55,0
191.11462,191.24863,41,55,0
191.22656,191.35892,39,55,0
191.33685,191.46988,41,54,0
191.44716,191.58351,43,56,0
191.56079,191.67442,44,57,0
191.67442,191.78513,45,59,0
191.78513,191.91873,46,61,0
191.89583,192.03323,48,62,0
192.01033,192.1469,46,60,0
192.12483,192.25719,43,62,0
192.23512,192.36798,44,57,0
192.34543,192.48076,46,61,0
192.4582,192.59372,48,62,0
192.57098,192.70735,49,64,0
192.68462,192.82098,51,65,0
192.79826,192.93462,53,67,0
192.9119,193.02553,51,63,0
193.02553,193.14182,49,72,0
193.14182,193.25809,48,71,0
193.25809,193.37437,46,69,0
193.37437,193.49043,44,63,0
193.49043,193.71135,54,65,0
193.49043,193.71135,63,71,0
193.71135,193.93672,53,62,0
193.71135,193.93672,61,68,0
193.93672,194.16393,60,70,0
193.93672,194.16393,51,64,0
194.16393,194.3912,58,62,0
194.16393,194.3912,49,57,0
194.3912,194.62357,48,66,0
194.3912,194.62357,57,72,0
194.62357,194.85612,58,68,0
194.62357,194.85612,49,62,0
194.85612,194.98848,45,62,0
194.96642,195.09926,46,57,0
195.0767,195.21205,48,61,0
195.18948,195.325,49,62,0
195.30228,195.43863,51,64,0
195.41591,195.55228,53,65,0
195.52954,195.66591,54,67,0
195.64317,195.75682,53,63,0
195.75682,195.8731,51,72,0
195.8731,195.98938,49,71,0
195.98938,196.10565,48,69,0
196.10565,196.22173,46,63,0
196.22173,196.47382,44,71,0
196.4511,196.6989,43,68,0
196.67654,196.91986,41,70,0
196.89793,197.14142,39,62,0
197.11908,197.36711,38,72,0
197.34439,197.5821,39,68,0
197.5821,197.83296,46,71,0
197.81049,198.05624,44,68,0
198.03403,198.2771,43,70,0
198.2551,198.4993,41,62,0
198.4769,198.72507,40,72,0
198.70235,198.94855,41,68,0
198.94855,199.0809,53,62,0
199.05884,199.1917,54,57,0
199.16914,199.30447,56,61,0
199.28192,199.41743,58,62,0
199.3947,199.53107,59,64,0
199.50835,199.6447,61,65,0
199.62198,199.75833,63,67,0
199.73561,199.8725,61,63,0
199.84924,199.98878,59,72,0
199.96553,200.10506,58,71,0
200.0818,200.22429,56,69,0
200.19809,200.32909,54,63,0
200.32909,200.46144,43,62,0
200.43938,200.57224,44,57,0
200.54968,200.68501,46,61,0
200.66246,200.79797,47,62,0
200.77524,200.9116,49,64,0
200.88887,201.02524,51,65,0
201.00252,201.13887,52,67,0
201.11615,201.25304,51,63,0
201.22978,201.36932,49,72,0
201.34607,201.4849,47,71,0
201.46234,201.59769,46,69,0
201.57512,201.71144,44,63,0
201.68791,201.82909,42,63,0
201.80556,201.94627,40,63,0
201.9232,202.06166,39,63,0
202.03859,202.15398,38,63,0
202.15398,202.26935,39,63,0
202.26935,202.38547,43,63,0
202.38547,202.5085,46,63,0
202.5085,202.6364,51,63,0
202.6364,202.7146,55,84,0
202.7146,202.79218,56,70,0
202.79218,202.86913,55,74,0
202.86913,202.94547,56,67,0
202.94547,203.02121,55,73,0
203.02121,203.09636,56,64,0
203.09636,203.1713,55,72,0
203.1713,203.2466,56,64,0
203.2466,203.32227,55,70,0
203.32227,203.3793,56,64,0
203.3793,203.43655,55,75,0
203.43655,203.50093,53,65,0
203.50093,203.5653,55,70,0
202.6364,203.5653,43,60,0
203.5653,204.48677,56,83,0
203.5653,204.48677,44,75,0
204.48677,204.9483,39,59,0
204.48677,204.9483,51,70,0
204.9483,205.42955,49,70,0
204.9483,205.42955,37,59,0
205.42955,205.50775,53,84,0
205.50775,205.58531,54,70,0
205.58531,205.66228,53,74,0
205.66228,205.73862,54,67,0
205.73862,205.81435,53,73,0
205.81435,205.8895,54,64,0
205.8895,205.96445,53,72,0
205.96445,206.03975,54,64,0
206.03975,206.11542,53,70,0
206.11542,206.17244,54,64,0
206.17244,206.22969,53,75,0
206.22969,206.29407,51,65,0
206.29407,206.35844,53,70,0
205.42955,206.35844,41,60,0
206.35844,206.81912,42,75,0
206.35844,206.81912,54,83,0
206.81912,207.2799,49,70,0
206.81912,207.2799,37,59,0
207.2799,207.74144,51,56,0
207.2799,207.74144,39,47,0
207.74144,208.43932,35,47,0
207.74144,208.43932,47,56,0
208.43932,208.66919,34,38,0
208.43932,208.66919,46,45,0
208.66919,208.89476,32,38,0
208.66919,208.89476,44,45,0
208.89476,209.12033,34,38,0
208.89476,209.12033,46,45,0
209.12033,209.35112,47,45,0
209.12033,209.35112,35,38,0
209.35112,209.5855,37,38,0
209.35112,209.5855,49,45,0
209.5855,210.04703,42,39,0
209.5855,210.04703,30,39,0
210.6367,210.75209,49,35,0
210.75209,210.86748,51,35,0
210.86748,210.98286,53,35,0
210.98286,211.09825,54,40,0
211.09825,211.21362,46,35,0
211.21362,211.32901,49,35,0
211.32901,211.4444,54,35,0
211.4444,211.55934,58,51,0
211.67429,211.78923,59,54,0
211.92197,212.38351,61,56,0
213.41556,213.53006,56,44,0
213.53006,213.645,58,46,0
213.645,213.77106,60,48,0
213.77106,213.88644,61,50,0
213.88644,214.00183,53,43,0
214.00183,214.11722,56,45,0
214.11722,214.23259,61,45,0
214.23259,214.34798,53,73,0
214.46336,214.57875,54,75,0
214.71327,215.288,56,78,0
215.288,215.40294,65,56,0
215.40294,215.51788,63,56,0
215.51788,215.65363,61,56,0
215.65363,215.76857,60,56,0
215.76857,215.88351,58,56,0
215.88351,215.99844,56,56,0
215.99844,216.11339,54,56,0
216.11339,216.34328,53,56,0
216.34328,216.58168,56,56,0
216.58168,216.69183,54,56,0
216.69662,216.81157,54,56,0
216.81157,216.9265,58,56,0
216.9265,217.04144,63,56,0
217.60986,217.72481,62,56,0
217.72481,217.84111,63,56,0
217.84111,217.96016,65,56,0
217.96016,218.07466,63,56,0
218.07466,218.18916,54,56,0
218.18916,218.30368,58,56,0
218.30368,218.41818,51,56,0
218.41818,218.53268,54,64,0
218.64719,218.76169,56,64,0
218.89743,219.46996,58,64,0
219.46996,219.58446,54,56,0
219.58446,219.69896,53,56,0
219.69896,219.8347,51,56,0
219.8347,219.94922,50,56,0
219.94922,220.06372,47,56,0
220.06372,220.17822,46,56,0
220.17822,220.29272,44,56,0
220.29272,220.40593,43,64,0
220.51913,220.63234,44,64,0
220.74556,220.85876,46,69,0
220.97197,221.08517,47,74,0
221.22154,221.81328,59,77,0
221.81328,221.92778,56,56,0
221.92778,222.04228,54,56,0
222.04228,222.15678,53,56,0
222.15678,222.6148,51,56,0
222.6148,223.07288,50,56,0
222.15678,223.07288,58,56,0
223.07288,223.15099,73,50,0
223.15099,223.22887,75,44,0
223.22887,223.30652,73,50,0
223.30652,223.38391,75,46,0
223.38391,223.46107,73,52,0
223.46107,223.53786,75,47,0
223.53786,223.6139,73,53,0
223.6139,223.68996,75,45,0
223.68996,223.76659,73,53,0
223.76659,223.84322,75,47,0
223.84322,223.92073,73,54,0
223.92073,223.99825,75,49,0
223.99825,224.0743,73,56,0
224.0743,224.15154,75,49,0
224.15154,224.22997,73,56,0
224.22997,224.3066,75,51,0
224.3066,224.38322,73,56,0
224.38322,224.45963,75,50,0
224.45963,224.53642,73,56,0
224.53642,224.61447,75,50,0
224.61447,224.6938,73,56,0
224.6938,224.75417,75,51,0
224.75417,224.81532,73,56,0
224.81532,224.8832,71,48,0
224.8832,224.95107,73,48,0
225.41438,225.53343,47,87,0
224.95107,225.89058,75,61,0
225.89058,226.8084,59,96,0
228.1952,228.31425,44,87,0
228.6714,229.58922,56,96,0
230.97603,231.09508,41,87,0
231.45222,232.37004,53,96,0
233.29709,233.41203,62,79,0
233.29709,233.41203,53,67,0
233.52696,233.6419,54,60,0
233.52696,233.6419,63,71,0
233.75685,233.8718,62,78,0
233.75685,233.8718,53,66,0
233.98674,234.10168,60,71,0
233.98674,234.10168,51,60,0
234.21663,234.33157,58,79,0
234.21663,234.33157,50,67,0
234.4465,234.56145,60,71,0
234.4465,234.56145,51,60,0
234.67639,234.79134,62,79,0
234.67639,234.79134,53,67,0
234.90628,235.02122,54,60,0
234.90628,235.02122,63,71,0
235.13617,235.2511,64,79,0
235.13617,235.2511,55,67,0
235.36604,235.48701,56,60,0
235.36604,235.48701,65,71,0
235.60799,235.72205,66,77,0
235.60799,235.72205,58,65,0
235.83612,235.9502,65,71,0
235.83612,235.9502,56,60,0
236.06425,236.1792,63,77,0
236.06425,236.1792,54,65,0
236.29414,236.40909,56,60,0
236.29414,236.40909,65,71,0
236.52403,236.63898,66,78,0
236.52403,236.63898,58,66,0
236.7539,236.86885,68,71,0
236.7539,236.86885,59,60,0
236.9838,237.09874,65,66,0
236.9838,237.09874,69,78,0
237.21368,237.32863,70,71,0
237.21368,237.32863,66,60,0
237.44357,237.5594,68,67,0
237.44357,237.5594,71,79,0
237.67523,237.79106,70,71,0
237.67523,237.79106,66,60,0
237.90689,238.02362,68,79,0
237.90689,238.02362,59,67,0
238.14035,238.26132,58,60,0
238.14035,238.26132,66,71,0
238.3823,239.76541,46,99,0
238.3823,239.76541,34,84,0
239.76541,241.14047,32,84,0
239.76541,241.14047,44,99,0
241.14047,241.82147,44,99,0
241.14047,241.82147,32,84,0
242.04619,242.16069,30,84,0
242.04619,242.16069,42,99,0
242.50421,242.62094,29,84,0
242.50421,242.62094,41,99,0
242.97113,243.08696,27,84,0
242.97113,243.08696,39,99,0
243.43445,243.54765,38,99,0
243.43445,243.54765,26,84,0
243.88728,244.00136,39,99,0
243.88728,244.00136,27,84,0
244.11542,244.22949,58,60,0
244.34355,244.45938,56,68,0
244.57521,244.69104,54,60,0
244.80687,244.9227,53,68,0
245.03853,245.15437,51,60,0
245.2702,245.38603,58,78,0
245.2702,245.38603,49,66,0
245.50186,245.61859,48,60,0
245.50186,245.61859,57,71,0
245.73532,245.85205,54,71,0
245.73532,245.85205,46,60,0
245.96889,246.08607,53,71,0
245.96889,246.08607,44,60,0
246.20326,246.32045,51,71,0
246.20326,246.32045,42,60,0
246.43782,246.55734,49,71,0
246.43782,246.55734,41,60,0
246.67592,248.0631,39,60,0
246.67592,248.0631,51,71,0
248.0631,248.14061,36,71,0
248.14061,248.21814,37,65,0
248.21814,248.29565,36,71,0
248.29565,248.37286,37,66,0
248.37286,248.45003,36,71,0
248.45003,248.52695,37,66,0
248.52695,248.60374,36,71,0
248.60374,248.68037,37,66,0
248.68037,248.75691,36,71,0
248.75691,248.83325,37,67,0
248.83325,248.90944,36,71,0
248.90944,248.98549,37,66,0
248.98549,249.0612,36,71,0
249.0612,249.13667,37,67,0
249.13667,249.21214,36,71,0
249.21214,249.28763,37,66,0
249.28763,249.3631,36,71,0
249.3631,249.43857,37,66,0
248.0631,249.43857,24,64,0
249.43857,249.51404,36,71,0
249.51404,249.58966,37,68,0
249.58966,249.66577,36,71,0
249.66577,249.7834,34,68,0
249.7834,249.91434,36,68,0
249.91434,250.84622,34,86,0
251.31976,251.43695,34,84,0
251.55414,251.66864,36,65,0
251.55414,251.66864,24,55,0
251.78316,251.89766,25,56,0
251.78316,251.89766,37,66,0
252.01216,252.12666,39,67,0
252.01216,252.12666,27,56,0
252.24117,252.35567,29,57,0
252.24117,252.35567,41,68,0
252.47017,252.58467,42,69,0
252.47017,252.58467,30,58,0
252.71344,253.63614,37,70,0
252.71344,253.63614,25,59,0
253.63614,254.55217,24,62,0
253.63614,254.55217,36,79,0
255.0102,255.0877,52,71,0
255.0877,255.16522,53,65,0
255.16522,255.24275,52,63,0
255.24275,255.31996,53,59,0
255.31996,255.39713,52,63,0
255.39713,255.47404,53,59,0
255.47404,255.55084,52,63,0
255.55084,255.62747,53,59,0
255.62747,255.70401,52,63,0
255.70401,255.78035,53,60,0
255.78035,255.85654,52,63,0
255.85654,255.93259,53,59,0
255.93259,256.00864,52,63,0
256.00864,256.0848,53,60,0
256.0848,256.16116,52,63,0
256.16116,256.2378,53,59,0
256.2378,256.31458,52,63,0
256.31458,256.39157,53,59,0
255.0102,256.39157,40,71,0
256.39157,256.46838,55,71,0
256.46838,256.545,56,66,0
256.545,256.62155,55,63,0
256.62155,256.69788,56,60,0
256.69788,256.77408,55,63,0
256.77408,256.85013,56,59,0
256.85013,256.92584,55,63,0
256.92584,257.0013,56,60,0
257.0013,257.07678,55,63,0
257.07678,257.15225,56,59,0
257.15225,257.22772,55,63,0
257.22772,257.3032,56,59,0
257.3032,257.3778,55,63,0
257.3778,257.45267,56,60,0
257.45267,257.52783,55,63,0
257.52783,257.6032,56,59,0
257.6032,257.67892,55,63,0
257.67892,257.75485,56,59,0
257.75485,258.6587,29,89,0
259.1136,259.1904,45,60,0
259.1904,259.26703,46,56,0
259.26703,259.34357,45,60,0
259.34357,259.4199,46,56,0
259.4199,259.4961,45,60,0
259.4961,259.5721,46,56,0
259.5721,259.64786,45,60,0
259.64786,259.72333,46,56,0
259.72333,259.7988,45,60,0
259.7988,259.87427,46,56,0
259.87427,259.94974,45,60,0
259.94974,260.0252,46,56,0
260.0252,260.10092,45,60,0
260.10092,260.1764,46,56,0
260.1764,260.25186,45,60,0
260.25186,260.32733,46,56,0
260.32733,260.4028,45,60,0
260.4028,260.47882,46,56,0
261.8296,263.17847,34,71,0
263.17847,263.25528,49,51,0
263.25528,263.3319,51,47,0
263.3319,263.40845,49,51,0
263.40845,263.48477,51,47,0
263.48477,263.56094,49,51,0
263.56094,263.637,51,47,0
263.637,263.71274,49,51,0
263.71274,263.7882,51,47,0
263.7882,263.86368,49,51,0
263.86368,263.93915,51,47,0
263.93915,264.01462,49,51,0
264.01462,264.0901,51,47,0
264.0901,264.1658,49,51,0
264.1658,264.24127,51,47,0
264.24127,264.31674,49,51,0
264.31674,264.37335,51,51,0
264.37335,264.42996,49,45,0
264.42996,264.48666,48,45,0
264.48666,264.5437,49,45,0
264.5437,265.89447,51,50,0
265.89447,266.56833,56,66,0
266.56833,266.7923,55,60,0
266.7923,267.0178,53,66,0
267.0178,267.24335,51,53,0
267.24335,267.47,50,66,0
267.47,267.69455,51,55,0
268.59222,268.81778,60,55,0
268.81778,269.04333,61,59,0
267.69455,269.04333,51,66,0
269.04333,269.2689,59,59,0
269.2689,269.49448,60,53,0
269.49448,269.72003,58,59,0
269.72003,269.9456,56,53,0
269.04333,269.9456,51,57,0
269.9456,270.0224,51,45,0
270.0224,270.09903,53,42,0
270.09903,270.17557,51,45,0
270.17557,270.2519,53,42,0
270.2519,270.3281,51,45,0
270.3281,270.40414,53,42,0
270.40414,270.47986,51,45,0
270.47986,270.55533,53,42,0
270.55533,270.6308,51,45,0
270.6308,270.70627,53,42,0
270.70627,270.78174,51,45,0
270.78174,270.8572,53,42,0
270.8572,270.93292,51,45,0
270.93292,271.0084,53,42,0
271.0084,271.0839,51,45,0
271.0839,271.19708,53,45,0
271.19708,271.31082,51,40,0
271.31082,271.53894,53,52,0
271.53894,271.7671,55,47,0
271.7671,271.88116,56,40,0
271.88116,271.99524,48,40,0
271.99524,272.10928,51,40,0
272.10928,272.22336,56,40,0
272.22336,272.33743,60,52,0
272.4515,272.56387,61,54,0
272.6762,273.1383,63,61,0
274.1656,274.27835,58,40,0
274.27835,274.39114,60,43,0
274.39114,274.50394,61,45,0
274.50394,274.95505,60,49,0
275.06784,275.2032,56,40,0
275.18063,275.3172,55,44,0
275.2934,275.435,53,40,0
275.52524,275.638,55,42,0
275.638,275.7508,56,44,0
275.7508,275.86752,58,47,0
275.41245,275.86752,51,49,0
276.43143,276.54422,53,44,0
276.54422,276.657,51,52,0
276.657,276.76978,49,46,0
276.76978,276.99283,48,53,0
276.99283,277.10437,50,55,0
277.10437,277.21588,52,58,0
277.21588,277.6687,53,61,0
278.24017,278.35294,52,55,0
278.35294,278.46573,53,56,0
278.46573,278.57852,55,58,0
278.57852,278.69128,56,64,0
278.80408,278.91684,58,68,0
279.02963,279.58975,60,73,0
279.58975,279.70212,56,59,0
279.70212,279.81448,55,59,0
279.81448,279.92685,53,59,0
279.92685,280.03918,60,64,0
280.03918,280.17462,65,69,0
280.15155,280.29153,64,67,0
280.26694,280.41245,62,65,0
280.3899,280.5027,60,62,0
280.5027,280.61545,58,60,0
280.61545,280.72824,56,57,0
280.72824,280.841,55,55,0
280.841,281.0666,53,68,0
281.29214,281.40494,60,64,0
281.40494,281.54114,63,69,0
281.5177,281.6593,61,67,0
281.6349,281.77942,60,65,0
281.75684,281.86963,58,62,0
281.86963,281.98242,57,60,0
281.98242,282.09518,55,57,0
282.09518,282.20798,53,55,0
282.20798,282.65576,51,68,0
282.65576,282.76813,49,64,0
282.76813,282.90338,61,69,0
282.8805,283.01968,60,67,0
282.995,283.1409,58,65,0
283.11844,283.2308,57,62,0
283.2308,283.34317,55,60,0
283.34317,283.4555,53,57,0
283.4555,283.5709,51,55,0
283.5709,284.02036,49,68,0
284.02036,284.1327,48,64,0
284.1327,284.26755,60,69,0
284.24506,284.38153,58,67,0
284.35742,284.50037,57,65,0
284.4779,284.59027,54,62,0
284.59027,284.70264,53,60,0
284.70264,284.81497,51,57,0
284.81497,284.92734,49,55,0
284.92734,285.37512,48,68,0
285.37512,285.49185,38,57,0
285.37512,285.49185,50,68,0
285.60858,285.7253,39,60,0
285.60858,285.7253,51,71,0
285.84726,286.41245,53,76,0
285.84726,286.41245,41,64,0
286.41245,286.5248,50,63,0
286.5248,286.63718,48,63,0
286.63718,286.74954,46,63,0
286.74954,286.86316,51,68,0
286.74954,286.86316,39,57,0
286.9768,287.09045,53,68,0
286.9768,287.09045,41,57,0
287.20856,287.77036,55,70,0
287.20856,287.77036,43,59,0
287.77036,287.88272,51,64,0
287.88272,287.99384,47,64,0
287.99384,288.10492,46,64,0
288.10492,288.21945,55,68,0
288.10492,288.21945,43,57,0
288.33395,288.44846,56,71,0
288.33395,288.44846,44,60,0
288.56796,289.12558,58,72,0
288.56796,289.12558,46,61,0
289.12558,289.23712,55,64,0
289.23712,289.3474,53,64,0
289.3474,289.4577,51,64,0
289.4577,289.57263,56,72,0
289.4577,289.57263,44,61,0
289.6876,289.80252,58,72,0
289.6876,289.80252,46,61,0
289.92062,290.47867,60,75,0
289.92062,290.47867,48,63,0
290.47867,290.613,56,60,0
290.5906,290.72528,51,59,0
290.70255,290.8162,48,59,0
290.8162,290.9273,56,69,0
290.9273,291.03842,51,60,0
291.03842,291.14954,48,60,0
291.14954,291.26065,44,60,0
291.26065,291.37173,51,63,0
291.37173,291.48285,48,58,0
291.48285,291.59396,44,58,0
291.59396,291.70508,39,58,0
291.70508,291.8162,42,63,0
291.8162,291.9273,51,58,0
291.9273,292.03842,48,58,0
292.03842,292.15842,42,58,0
292.15842,292.2712,41,61,0
292.15842,292.2712,53,72,0
292.38397,292.49677,54,72,0
292.38397,292.49677,42,61,0
292.61395,293.1695,56,75,0
292.61395,293.1695,44,63,0
293.1695,293.30283,53,60,0
293.2806,293.4146,49,59,0
293.39172,293.50623,44,59,0
293.50623,293.61734,53,69,0
293.61734,293.72845,48,60,0
293.72845,293.83957,44,60,0
293.83957,293.95407,41,60,0
293.95407,294.06476,49,63,0
294.06476,294.17548,44,58,0
294.17548,294.28616,41,58,0
294.28616,294.39688,37,58,0
294.39688,294.50757,44,63,0
294.50757,294.61826,41,58,0
294.61826,294.72897,39,58,0
294.72897,294.83966,37,58,0
294.83966,294.95288,46,61,0
294.83966,294.95288,58,72,0
295.0661,295.1793,47,61,0
295.0661,295.1793,59,72,0
295.29788,295.8555,49,63,0
295.29788,295.8555,61,75,0
295.8555,295.98932,58,60,0
295.967,296.1019,54,59,0
296.07855,296.19528,49,59,0
296.19528,296.3064,58,69,0
296.3064,296.41748,54,60,0
296.41748,296.5286,49,60,0
296.5286,296.6397,46,60,0
296.6397,296.75043,54,63,0
296.75043,296.8611,49,58,0
296.8611,296.97183,46,58,0
296.97183,297.08252,42,58,0
297.08252,297.1932,49,63,0
297.1932,297.30392,46,58,0
297.30392,297.4146,44,58,0
297.4146,297.52533,42,58,0
297.52533,297.63852,38,61,0
297.52533,297.63852,50,72,0
297.75174,297.86496,40,61,0
297.75174,297.86496,52,72,0
297.984,298.54163,42,63,0
297.984,298.54163,54,75,0
298.54163,298.67545,50,60,0
298.65314,298.78802,47,59,0
298.76468,298.8814,42,59,0
298.8814,298.99335,50,69,0
298.99335,299.1053,47,60,0
299.1053,299.21722,42,60,0
299.21722,299.32916,38,60,0
299.32916,299.4411,47,63,0
299.4411,299.55304,42,58,0
299.55304,299.66498,38,58,0
299.66498,299.77692,35,58,0
299.77692,299.88885,42,65,0
299.88885,300.0008,38,58,0
300.0008,300.11273,37,63,0
300.11273,300.23322,35,66,0
300.23322,300.4631,30,74,0
300.23322,300.4631,74,65,0
300.4631,300.60205,73,65,0
300.57803,300.69806,71,65,0
300.69806,300.83188,74,65,0
300.80957,300.9434,71,60,0
300.92108,301.05493,67,61,0
301.03262,301.14413,66,61,0
301.14413,301.28,71,65,0
301.25735,301.3932,66,58,0
301.37057,301.5064,64,58,0
301.48376,301.597,62,58,0
301.597,301.73438,66,63,0
301.7115,301.8497,62,54,0
301.826,301.96988,61,54,0
301.94455,302.07114,59,54,0
302.07114,302.20752,62,59,0
302.18478,302.32114,59,49,0
302.2984,302.43478,55,50,0
302.41205,302.5257,54,50,0
302.5257,302.63763,55,59,0
302.63763,302.77194,54,41,0
302.74957,302.88388,56,41,0
302.8615,302.9737,58,41,0
302.9737,303.1099,59,40,0
303.08725,303.22296,61,36,0
303.2004,303.3356,62,37,0
303.31314,303.4478,64,39,0
303.42545,303.55963,66,40,0
303.53732,303.67093,67,41,0
303.6487,303.78217,66,41,0
303.75986,303.89377,65,40,0
303.8714,304.00577,64,38,0
303.9833,304.1181,62,37,0
304.09564,304.23087,61,36,0
304.2083,304.3214,59,35,0
304.3214,304.45587,61,35,0
304.43338,304.56808,62,37,0
304.5457,304.68002,61,36,0
304.65762,304.79156,60,36,0
304.76926,304.90277,59,35,0
304.8805,305.0145,58,34,0
304.99213,305.12683,56,33,0
305.10428,305.2395,54,32,0
305.2172,305.351,56,36,0
305.3287,305.46255,58,35,0
305.44025,305.57407,59,39,0
305.55176,305.6856,58,34,0
305.6633,305.79712,59,36,0
305.7748,305.90863,61,34,0
305.88632,306.02017,62,41,0
305.99786,306.13168,61,35,0
306.10938,306.24323,62,39,0
306.22092,306.33243,64,36,0
306.56232,307.00842,64,36,0
307.00842,307.1421,59,39,0
307.11987,307.25308,61,39,0
307.23093,307.36334,62,34,0
307.34137,307.47357,64,34,0
307.45148,307.5845,66,39,0
307.5623,307.6737,67,34,0
307.90097,308.34543,67,36,0
308.34543,308.47876,62,39,0
308.45654,308.59045,64,36,0
308.56763,308.70453,66,36,0
308.6817,308.81833,68,36,0
308.79578,308.93112,70,39,0
308.90857,309.02133,71,35,0
309.25943,309.7025,71,36,0
309.7025,309.7769,70,33,0
309.7769,309.8511,71,27,0
309.8511,309.92517,70,32,0
309.92517,309.99908,71,28,0
309.99908,310.07288,70,32,0
310.07288,310.14624,71,32,0
310.14624,310.2195,70,33,0
310.2195,310.29288,71,33,0
310.29288,310.36642,70,28,0
310.36642,310.42157,71,33,0
310.42157,310.47693,70,29,0
310.47693,310.5323,68,29,0
310.5323,310.58762,70,30,0
310.58762,310.8088,54,50,0
311.47217,311.69196,59,50,0
311.9236,311.9985,74,36,0
311.9985,312.0726,76,34,0
312.0726,312.14636,74,37,0
312.14636,312.21976,76,35,0
312.21976,312.29285,74,39,0
312.29285,312.36566,76,36,0
312.36566,312.4379,74,40,0
312.4379,312.50986,76,37,0
312.50986,312.58206,74,41,0
312.63635,312.69073,74,42,0
312.69073,312.74527,73,43,0
312.74527,312.79993,74,48,0
312.79993,313.23788,76,54,0
313.23788,313.45688,45,50,0
313.23788,313.67657,67,41,0
313.67657,313.75024,61,36,0
313.75024,313.82336,62,34,0
313.82336,313.89597,61,37,0
313.89597,313.96802,62,35,0
313.96802,314.03958,61,39,0
314.03958,314.1106,62,36,0
314.1106,314.18112,61,40,0
314.18112,314.2521,62,37,0
314.2521,314.32358,61,41,0
314.32358,314.37747,62,37,0
314.37747,314.43164,61,43,0
314.43164,314.48608,59,43,0
314.48608,314.54114,61,48,0
314.7605,314.9795,69,44,0
314.54114,314.9795,62,54,0
314.9795,315.1953,71,50,0
315.1953,315.41113,67,49,0
315.41113,315.62933,66,47,0
315.62933,315.8538,65,45,0
315.8538,316.29175,57,47,0
315.8538,316.72202,66,47,0
316.72202,317.15997,64,51,0
316.29175,317.15997,55,47,0
317.15997,317.6045,52,47,0
317.15997,317.6045,55,47,0
317.6045,318.03854,59,47,0
318.03854,318.47748,57,45,0
317.6045,318.47748,54,47,0
318.47748,319.35022,55,44,0
318.47748,319.35022,52,44,0
319.35022,319.78995,54,47,0
319.35022,319.78995,50,47,0
319.78995,320.2263,55,45,0
319.78995,320.2263,50,45,0
320.2263,320.4445,55,47,0
320.4445,320.6603,54,43,0
320.2263,320.6603,50,47,0
320.6603,320.87613,52,47,0
320.87613,321.10086,54,42,0
320.6603,321.10086,45,47,0
321.10086,321.31747,56,47,0
321.31747,321.53406,57,42,0
321.10086,321.53406,54,47,0
321.53406,321.97202,52,52,0
321.97202,322.41812,46,46,0
321.53406,322.41812,55,52,0
322.41812,322.6363,54,46,0
323.73505,323.84415,54,41,0
323.84415,323.95322,52,39,0
323.95322,324.06232,50,39,0
324.06232,324.17816,49,39,0
324.17816,324.30627,47,39,0
324.2849,324.41342,49,38,0
324.39166,324.5221,50,38,0
324.50037,324.63074,52,38,0
324.60907,324.739,54,41,0
324.71738,324.84732,55,38,0
324.82568,324.95563,54,38,0
324.93396,325.06393,53,38,0
325.04227,325.17224,52,41,0
325.15057,325.28055,50,37,0
325.25888,325.38983,49,37,0
325.3672,325.50174,47,37,0
325.4804,325.60852,49,37,0
325.58716,325.71582,50,36,0
325.6939,325.82507,49,36,0
325.8034,325.93338,48,36,0
325.9117,326.0417,47,41,0
326.02002,326.14996,46,34,0
326.12833,326.25827,44,34,0
326.23663,326.36658,42,34,0
326.3449,326.47488,44,40,0
326.45322,326.5832,46,36,0
326.56152,326.69238,47,36,0
326.66983,326.80368,46,36,0
326.78262,326.90894,47,36,0
326.88788,327.0152,49,38,0
326.99313,327.1255,50,41,0
327.10342,327.23538,49,43,0
327.2137,327.3437,50,45,0
327.32202,327.43033,52,41,0
327.64694,328.08505,52,44,0
328.08505,328.21408,47,36,0
328.1926,328.32162,49,38,0
328.3001,328.42914,50,41,0
328.40765,328.53668,52,43,0
328.51517,328.6442,54,45,0
328.62268,328.73022,55,41,0
328.95587,329.38596,55,44,0
329.38596,329.51498,50,36,0
329.4935,329.62253,52,38,0
329.601,329.73004,54,41,0
329.70856,329.8376,56,43,0
329.81607,329.9451,58,45,0
329.9236,330.03113,59,41,0
330.25058,330.6811,59,44,0
330.6811,330.75342,58,40,0
330.75342,330.8254,59,37,0
330.8254,330.89716,58,40,0
330.89716,330.9686,59,36,0
330.9686,331.03976,58,40,0
331.03976,331.11017,59,34,0
331.11017,331.18024,58,40,0
331.18024,331.2506,59,37,0
331.2506,331.32135,58,40,0
331.32135,331.39243,59,36,0
331.39243,331.4638,58,40,0
331.4638,331.5355,59,36,0
331.5355,331.75055,42,36,0
331.75055,331.85806,44,39,0
331.85806,331.97214,46,42,0
331.97214,332.08087,47,45,0
332.08087,332.18875,49,45,0
332.18875,332.29565,50,44,0
332.29565,332.40158,52,42,0
332.40158,332.61295,54,50,0
332.82678,333.26245,59,44,0
333.26245,333.3351,58,40,0
333.3351,333.4073,59,37,0
333.4073,333.47894,58,40,0
333.47894,333.55014,59,36,0
333.55014,333.62085,58,40,0
333.62085,333.6911,59,34,0
333.6911,333.76157,58,40,0
333.76157,333.83243,59,37,0
333.83243,333.90375,58,40,0
333.90375,333.9755,59,36,0
333.9755,334.04892,58,40,0
334.04892,334.1238,59,36,0
334.1238,334.5524,54,44,0
334.1238,334.5524,42,44,0
334.5524,334.6238,50,40,0
334.6238,334.6946,52,37,0
334.6946,334.7648,50,40,0
334.7648,334.83496,52,36,0
334.83496,334.90912,50,40,0
334.90912,334.98724,52,34,0
334.98724,335.0584,50,40,0
335.0584,335.1296,52,37,0
335.1296,335.20078,50,40,0
335.20078,335.27194,52,36,0
335.27194,335.3454,50,40,0
335.3454,335.42117,52,36,0
335.42117,335.6347,47,33,0
335.6347,335.85242,46,34,0
335.6347,335.85242,37,28,0
335.85242,335.96115,38,32,0
335.96115,336.06912,40,33,0
336.06912,336.1764,42,35,0
336.1764,336.2829,43,36,0
335.85242,336.2829,45,32,0
336.2829,336.3889,45,38,0
336.3889,336.49527,47,37,0
336.7091,337.1484,47,33,0
336.7091,337.1484,54,38,0
337.1484,337.25507,43,32,0
337.25507,337.36127,45,33,0
337.36127,337.46686,47,35,0
337.46686,337.57193,49,36,0
337.57193,337.6768,50,38,0
337.6768,337.78287,52,37,0
337.9996,338.43762,52,38,0
338.43762,338.5473,49,45,0
338.5473,338.6562,50,48,0
338.6562,338.76437,52,50,0
338.76437,338.8718,54,53,0
338.8718,338.97858,55,55,0
338.97858,339.08536,57,48,0
339.31415,339.74274,57,59,0
339.74274,339.8524,52,45,0
339.8524,339.9613,54,48,0
339.9613,340.0695,55,50,0
340.0695,340.1769,57,53,0
340.1769,340.2837,59,55,0
340.2837,340.39044,61,48,0
340.61835,341.0469,61,59,0
341.0469,341.1566,64,58,0
341.1566,341.2655,62,56,0
341.2655,341.3737,61,53,0
341.3737,341.4811,59,51,0
341.4811,341.5879,57,49,0
341.5879,341.69464,55,44,0
341.92255,342.3511,55,64,0
342.3511,342.4608,61,58,0
342.4608,342.56967,59,56,0
342.56967,342.67786,57,53,0
342.67786,342.78528,55,51,0
342.78528,342.89206,54,49,0
342.89206,342.99884,52,44,0
343.22717,343.6556,52,64,0
343.6556,343.7609,38,57,0
343.7609,343.86664,40,47,0
343.86664,343.97284,42,50,0
343.97284,344.07947,43,53,0
344.07947,344.18655,44,56,0
344.18655,344.2937,45,50,0
344.52222,344.95325,45,65,0
344.52222,344.95325,54,65,0
344.95325,345.05856,42,57,0
345.05856,345.16428,43,47,0
345.16428,345.27048,45,50,0
345.27048,345.3771,47,53,0
345.3771,345.48422,49,56,0
345.48422,345.59134,50,50,0
345.81943,346.2505,57,65,0
345.81943,346.2505,50,65,0
346.2505,346.35577,43,57,0
346.35577,346.46152,45,47,0
346.46152,346.5677,47,50,0
346.5677,346.67435,49,53,0
346.67435,346.78143,50,56,0
346.78143,346.88858,52,50,0
347.11664,347.5477,52,65,0
347.5477,347.65298,49,62,0
347.65298,347.75873,50,51,0
347.75873,347.86493,52,55,0
347.86493,347.97156,54,58,0
347.97156,348.07864,55,61,0
348.07864,348.1858,57,55,0
348.41516,348.84586,57,71,0
348.84586,348.95026,50,67,0
348.95026,349.05557,49,64,0
349.05557,349.16168,47,62,0
349.16168,349.26868,45,60,0
349.26868,349.3765,43,57,0
349.3765,349.4844,42,55,0
349.4844,349.5951,54,55,0
349.5951,349.71228,55,58,0
349.71228,349.8202,57,62,0
349.8202,349.92813,59,65,0
349.92813,350.03604,61,69,0
350.03604,350.14395,62,72,0
350.14395,350.24835,47,67,0
350.24835,350.35367,45,64,0
350.35367,350.45978,43,62,0
350.45978,350.56677,42,60,0
350.56677,350.6746,40,57,0
350.6746,350.7825,38,55,0
350.7825,350.8932,50,55,0
350.8932,351.00992,52,58,0
351.00992,351.11783,54,62,0
351.11783,351.22577,55,65,0
351.22577,351.33368,57,69,0
351.33368,351.43924,59,72,0
351.441,351.5473,59,72,0
351.441,351.5473,55,61,0
351.5473,351.65427,54,58,0
351.5473,351.65427,57,69,0
351.65427,351.76187,55,67,0
351.65427,351.76187,52,56,0
351.76187,351.87012,54,64,0
351.76187,351.87012,50,54,0
351.87012,351.9788,52,62,0
351.87012,351.9788,49,52,0
351.9788,352.09033,50,60,0
351.9788,352.09033,47,51,0
352.3074,352.742,50,60,0
352.3074,352.742,47,52,0
352.742,352.8485,43,65,0
352.8485,352.95538,45,59,0
352.95538,353.0628,47,59,0
353.0628,353.1708,48,58,0
353.1708,353.2793,50,57,0
353.2793,353.38834,52,56,0
353.38834,353.49527,47,64,0
353.49527,353.60165,48,59,0
353.60165,353.7086,50,58,0
353.7086,353.816,52,57,0
353.816,353.924,54,55,0
353.924,354.03207,55,54,0
354.03207,354.13828,45,64,0
354.13828,354.24512,47,58,0
354.24512,354.35257,49,57,0
354.35257,354.4607,50,55,0
354.4607,354.56946,52,54,0
354.56946,354.67896,53,58,0
354.67896,354.78885,45,54,0
354.78885,354.89874,47,51,0
354.89874,355.00864,49,54,0
355.00864,355.11853,50,52,0
355.11853,355.2284,49,52,0
355.2284,355.3383,47,52,0
355.3383,355.8908,46,60,0
355.8908,355.99988,44,50,0
355.99988,356.10898,42,50,0
356.10898,356.21808,44,50,0
356.21808,356.66028,46,60,0
356.66028,356.76898,47,50,0
356.76898,356.8777,49,46,0
356.8777,356.9864,47,46,0
356.9864,357.10175,45,46,0
357.10175,357.21085,44,50,0
357.21085,357.31995,50,48,0
357.31995,357.42905,47,48,0
357.42905,357.53812,53,48,0
357.53812,357.64722,56,56,0
357.97772,358.0868,45,57,0
358.0868,358.1959,54,52,0
358.1959,358.305,50,57,0
358.305,358.41406,57,52,0
358.41406,358.52237,54,57,0
358.52237,358.63068,62,49,0
358.63068,358.8473,47,57,0
358.8473,359.06625,49,59,0
359.06625,359.29672,50,65,0
359.29672,359.5141,31,80,0
359.73218,359.80582,49,71,0
359.80582,359.87897,50,63,0
359.87897,359.95175,49,71,0
359.95175,360.02414,50,62,0
360.02414,360.09613,49,71,0
360.09613,360.1677,50,63,0
360.1677,360.23944,49,71,0
360.23944,360.31158,50,65,0
360.31158,360.3842,49,71,0
360.3842,360.43893,50,65,0
360.43893,360.49393,49,65,0
360.49393,360.54916,47,65,0
360.54916,360.60452,49,65,0
360.60452,361.03775,50,73,0
361.25433,361.3843,50,69,0
361.36264,361.49286,49,68,0
361.47095,361.60233,47,66,0
361.58044,361.71216,45,65,0
361.68994,361.82327,43,64,0
361.80106,361.91214,42,62,0
361.91214,362.3438,47,73,0
362.55734,362.68637,47,69,0
362.66486,362.79437,45,68,0
362.77237,362.90427,43,66,0
362.88226,363.0147,42,65,0
362.99216,363.1275,40,64,0
363.10495,363.21774,38,62,0
363.21774,363.65094,43,73,0
363.86523,363.9938,43,66,0
363.97238,364.1011,42,60,0
364.0795,364.209,40,66,0
364.18744,364.31693,39,57,0
364.29535,364.425,40,57,0
364.40326,364.5337,38,57,0
364.51196,364.6424,37,66,0
364.62064,364.7514,38,58,0
364.72934,364.8617,37,58,0
364.83963,364.9716,35,58,0
364.94992,365.0799,33,66,0
365.05823,365.1882,35,61,0
365.16653,365.2965,37,61,0
365.27484,365.40442,38,61,0
365.38315,365.5111,39,66,0
365.48953,365.61902,40,58,0
365.59744,365.72693,42,58,0
365.70535,365.83484,40,58,0
365.81326,365.94275,38,66,0
365.92117,366.0507,40,58,0
366.02908,366.1586,38,58,0
366.137,366.2665,37,58,0
366.24493,366.37442,35,66,0
366.35284,366.48233,37,61,0
366.46075,366.59024,38,61,0
366.56866,366.69815,40,61,0
366.67657,366.80606,41,66,0
366.7845,366.914,42,58,0
366.8924,367.0219,43,58,0
367.0003,367.1308,42,58,0
367.10825,367.24356,40,66,0
367.221,367.35593,41,58,0
367.3338,367.46664,40,58,0
367.4445,367.57684,38,58,0
367.5552,367.68515,36,66,0
367.6635,367.79346,38,61,0
367.7718,367.90176,40,61,0
367.8801,368.01007,41,61,0
367.9884,368.11838,42,66,0
368.0967,368.22668,43,58,0
368.20502,368.335,45,58,0
368.31332,368.4433,43,58,0
368.42163,368.55157,42,66,0
368.52994,368.65988,43,58,0
368.63824,368.76797,42,58,0
368.74652,368.8751,40,58,0
368.85367,368.98224,38,66,0
368.96082,369.08963,40,61,0
369.06796,369.19794,42,61,0
369.17627,369.30606,43,61,0
369.28458,369.4136,44,66,0
369.3921,369.52112,45,58,0
369.49963,369.62866,47,58,0
369.60715,369.71466,45,58,0
369.71466,369.9377,43,58,0
369.9377,370.0677,59,54,0
370.04602,370.176,57,54,0
370.15433,370.37094,55,64,0
370.26263,370.3926,57,57,0
370.37094,370.50092,59,57,0
370.37094,370.58755,53,57,0
370.47925,370.60977,60,57,0
370.58755,370.7209,61,64,0
370.58755,370.80975,52,64,0
370.69867,370.83127,62,57,0
370.80975,370.9388,56,57,0
370.9173,371.0248,62,57,0
371.0248,371.1351,60,49,0
371.1351,371.24542,62,44,0
371.24542,371.35294,60,49,0
371.35294,371.46045,59,44,0
371.0248,371.46045,56,53,0
371.568,371.6755,59,44,0
371.46045,371.6755,57,48,0
371.6755,371.78305,60,49,0
371.78305,371.89056,62,44,0
371.6755,371.89056,55,48,0
371.89056,372.00046,63,49,0
372.00046,372.11035,64,45,0
371.89056,372.11035,54,55,0
372.11035,372.21786,58,49,0
372.21786,372.3254,64,46,0
372.3254,372.43292,62,49,0
372.43292,372.54047,64,45,0
372.54047,372.64798,62,49,0
372.64798,372.75552,61,43,0
372.3254,372.75552,58,51,0
372.86304,372.97055,61,42,0
372.75552,372.97055,59,48,0
372.97055,373.0781,62,49,0
373.0781,373.1856,64,45,0
372.97055,373.1856,57,48,0
373.1856,373.29315,65,49,0
373.29315,373.40067,66,45,0
373.1856,373.40067,55,55,0
373.40067,373.51138,67,49,0
373.51138,373.62207,65,45,0
373.62207,373.72922,64,49,0
373.72922,373.83636,65,45,0
373.83636,373.9435,64,49,0
373.9435,374.05066,62,45,0
373.62207,374.05066,59,53,0
374.15778,374.26492,62,49,0
374.05066,374.26492,60,48,0
374.26492,374.37207,64,49,0
374.37207,374.47922,62,47,0
374.26492,374.47922,59,50,0
374.47922,374.58636,60,49,0
374.58636,374.6935,62,47,0
374.47922,374.6935,57,51,0
374.6935,374.8042,60,49,0
374.8042,374.91492,59,48,0
374.6935,374.91492,55,52,0
374.91492,375.02203,57,49,0
375.02203,375.12918,59,49,0
374.91492,375.12918,54,54,0
375.12918,375.23633,57,49,0
375.23633,375.34488,55,50,0
375.12918,375.34488,52,56,0
375.34488,375.45322,51,49,0
375.45322,375.5608,50,49,0
375.5608,375.667,48,54,0
375.667,375.77393,50,49,0
375.34488,375.77393,54,57,0
375.77393,375.8817,51,53,0
375.8817,375.99036,50,49,0
375.99036,376.10034,51,53,0
376.10034,376.21063,48,49,0
376.4345,376.54645,59,65,0
376.87115,377.08392,57,57,0
376.6584,377.2967,47,73,0
377.08392,377.50946,55,63,0
377.73502,377.8478,55,64,0
378.1726,378.3846,54,53,0
378.3846,378.59662,52,61,0
377.96057,378.59662,43,69,0
378.59662,378.80862,47,53,0
378.59662,378.80862,50,53,0
378.80862,379.03253,48,53,0
378.80862,379.03253,45,53,0
379.03253,379.2564,60,65,0
379.2564,379.46918,52,53,0
379.2564,379.46918,48,53,0
379.46918,379.68195,47,50,0
379.46918,379.68195,50,50,0
379.68195,379.89468,48,53,0
379.68195,379.89468,45,53,0
379.89468,380.1143,47,50,0
379.89468,380.1143,43,50,0
380.1143,380.3263,42,59,0
380.3263,380.54382,51,53,0
380.1143,380.54382,45,59,0
380.75586,380.96786,52,53,0
380.96786,381.17987,54,53,0
381.17987,381.40128,55,53,0
381.40128,381.61328,57,53,0
381.61328,381.8253,59,56,0
381.8253,382.03732,60,60,0
380.54382,382.03732,50,63,0
382.03732,382.24933,59,53,0
382.03732,382.24933,50,53,0
382.24933,382.46133,48,53,0
382.24933,382.46133,57,53,0
382.46133,382.68457,47,49,0
382.46133,382.9005,55,49,0
382.68457,383.1118,48,53,0
382.9005,383.3223,60,53,0
383.3223,383.54294,59,53,0
383.1118,383.54294,50,58,0
383.54294,383.6486,58,64,0
383.6486,383.7542,67,55,0
383.7542,383.85986,66,56,0
383.85986,383.96548,67,56,0
383.54294,383.96548,52,64,0
383.96548,384.0964,54,61,0
384.0746,384.2048,57,56,0
384.18365,384.31042,55,56,0
384.2893,384.41608,54,56,0
384.39493,384.5217,52,60,0
384.50058,384.62732,50,55,0
384.6062,384.73297,52,55,0
384.71185,384.83868,54,55,0
384.81747,384.94467,55,61,0
384.9235,385.051,50,55,0
385.02948,385.1585,55,55,0
385.13702,385.26566,54,55,0
385.24454,385.3713,52,60,0
385.3502,385.47693,54,53,0
385.4558,385.58258,52,53,0
385.56143,385.68835,50,53,0
385.66708,385.79474,49,60,0
385.77347,385.90112,50,54,0
385.87985,386.00922,49,55,0
385.98624,386.09875,47,55,0
386.09875,386.17053,50,60,0
386.17053,386.24188,52,55,0
386.24188,386.31284,50,60,0
386.09875,386.31284,45,60,0
386.31284,386.38345,52,55,0
386.38345,386.45367,50,60,0
386.45367,386.52347,52,54,0
386.31284,386.52347,44,55,0
386.52347,386.59302,50,60,0
386.59302,386.66232,52,56,0
386.66232,386.73187,50,60,0
386.73187,386.78424,52,60,0
386.78424,386.83673,50,55,0
386.83673,386.88937,49,55,0
386.88937,386.94226,50,55,0
386.94226,387.3837,49,60,0
386.52347,387.3837,45,63,0
387.59497,387.70062,50,61,0
387.70062,387.80624,52,56,0
387.59497,387.80624,47,61,0
387.80624,387.91245,54,60,0
387.91245,388.01785,55,62,0
388.01785,388.1233,57,64,0
388.1233,388.23398,59,66,0
387.80624,388.23398,45,60,0
388.23398,388.66357,54,66,0
388.87485,388.98047,54,61,0
388.98047,389.08612,55,56,0
388.87485,389.08612,43,61,0
389.08612,389.19232,57,60,0
389.19232,389.29773,59,62,0
389.29773,389.40314,61,64,0
389.40314,389.51385,62,66,0
389.08612,389.51385,54,60,0
389.51385,389.95648,57,66,0
390.16776,390.27338,57,53,0
390.27338,390.379,59,47,0
390.16776,390.379,50,53,0
390.379,390.48465,52,53,0
390.48465,390.59027,51,47,0
390.59027,390.69592,52,47,0
390.69592,390.80743,54,47,0
390.80743,390.91345,55,53,0
390.91345,391.01944,54,47,0
391.01944,391.12546,55,47,0
391.12546,391.23148,57,47,0
391.23148,391.33746,59,53,0
391.33746,391.44348,57,47,0
391.44348,391.5495,55,47,0
391.5495,391.6602,56,47,0
391.6602,391.7658,57,47,0
391.7658,391.87146,56,42,0
391.6602,391.87146,45,47,0
391.87146,391.97708,57,46,0
391.97708,392.08273,59,49,0
392.08273,392.29398,61,53,0
392.29398,392.40152,49,47,0
392.40152,392.51303,50,41,0
392.29398,392.7243,45,47,0
392.7243,392.93558,47,40,0
392.93558,393.14685,49,53,0
392.51303,393.14685,52,52,0
393.14685,393.25436,54,47,0
393.25436,393.36673,55,42,0
393.36673,393.47275,57,47,0
393.47275,393.57874,55,41,0
393.57874,393.68475,54,41,0
393.68475,393.79065,52,41,0
393.14685,393.79065,50,47,0
393.79065,393.89618,50,47,0
393.89618,394.00244,52,43,0
394.00244,394.10953,54,43,0
394.10953,394.21747,55,43,0
394.21747,394.32663,57,43,0
394.32663,394.43475,59,39,0
394.43475,394.54175,60,43,0
394.54175,394.64767,62,39,0
394.64767,394.7525,64,49,0
394.7525,394.8563,62,43,0
394.8563,395.06735,50,43,0
395.06735,395.17374,55,46,0
395.17374,395.28012,59,40,0
395.28012,395.3865,55,46,0
395.3865,395.50555,52,43,0
395.50555,395.61472,54,43,0
395.61472,395.72284,52,39,0
395.72284,395.82983,54,43,0
395.82983,395.93576,55,39,0
395.93576,396.04056,57,49,0
396.04056,396.14438,59,43,0
396.14438,396.3682,47,43,0
396.3682,396.79373,52,52,0
396.79373,396.9029,52,43,0
396.9029,397.01102,50,39,0
397.01102,397.118,52,43,0
397.118,397.22394,54,39,0
397.22394,397.32874,55,49,0
397.32874,397.43256,57,43,0
397.43256,397.65637,45,43,0
397.65637,398.0819,50,52,0
398.0819,398.15475,57,66,0
398.15475,398.22726,59,59,0
398.22726,398.2992,57,63,0
398.2992,398.37064,59,58,0
398.37064,398.44162,57,60,0
398.44162,398.5122,59,57,0
398.5122,398.58255,57,59,0
398.58255,398.65256,59,53,0
398.65256,398.72223,57,59,0
398.72223,398.79202,59,54,0
398.79202,398.86667,57,58,0
398.86667,398.94604,59,57,0
398.94604,399.05515,56,54,0
399.05515,399.1642,59,42,0
399.1642,399.26987,56,50,0
399.26987,399.39133,52,40,0
399.39133,399.46417,55,66,0
399.46417,399.53668,57,59,0
399.53668,399.6086,55,63,0
399.6086,399.68005,57,58,0
399.68005,399.751,55,60,0
399.751,399.82162,57,57,0
399.82162,399.89197,55,59,0
399.89197,399.96198,57,53,0
399.96198,400.03162,55,59,0
400.03162,400.10144,57,54,0
400.10144,400.1761,55,58,0
400.1761,400.25546,57,57,0
400.25546,400.36453,54,54,0
400.36453,400.47363,57,42,0
400.47363,400.57928,54,50,0
400.57928,400.6988,50,40,0
400.6988,400.77164,53,66,0
400.77164,400.84415,55,59,0
400.84415,400.91608,53,63,0
400.91608,400.98752,55,58,0
400.98752,401.0585,53,60,0
401.0585,401.1291,55,57,0
401.1291,401.19943,53,59,0
401.19943,401.26944,55,53,0
401.26944,401.3391,53,59,0
401.3391,401.4089,55,54,0
401.4089,401.48355,53,58,0
401.48355,401.56293,55,57,0
401.56293,401.67203,51,54,0
401.67203,401.7811,55,49,0
401.7811,401.88675,51,59,0
401.88675,402.0087,48,54,0
402.0087,402.2207,56,73,0
402.43286,402.50574,41,66,0
402.50574,402.57822,43,59,0
402.57822,402.65012,41,63,0
402.65012,402.7215,43,58,0
402.7215,402.79242,41,60,0
402.79242,402.863,43,57,0
402.863,402.93332,41,59,0
402.93332,403.0033,43,53,0
403.0033,403.07294,41,59,0
403.07294,403.1428,43,54,0
403.1428,403.21826,41,58,0
403.21826,403.29703,43,57,0
403.29703,403.728,39,63,0
403.94077,404.06842,39,53,0
404.04715,404.17517,41,54,0
404.15353,404.28348,43,56,0
404.2618,404.39178,44,57,0
404.37012,404.50177,46,59,0
404.47842,404.59515,48,60,0
404.59515,404.8102,43,67,0
405.23575,405.36435,43,53,0
405.34213,405.4746,44,54,0
405.45325,405.58136,46,56,0
405.56,405.6881,48,57,0
405.66678,405.79636,50,59,0
405.77353,405.8876,51,60,0
405.8876,406.1011,46,67,0
406.5222,406.6485,46,53,0
406.62744,406.75412,48,54,0
406.7327,406.86127,50,56,0
406.83984,406.9684,48,57,0
406.947,407.0773,50,59,0
407.05414,407.19122,51,60,0
407.16995,407.2976,53,62,0
407.27634,407.40363,52,56,0
407.38272,407.50815,53,56,0
407.48724,407.6127,55,56,0
407.5918,407.71722,56,63,0
407.69632,407.82175,55,54,0
407.80084,407.92627,53,54,0
407.90536,408.03104,51,54,0
408.0099,408.13666,50,61,0
408.11554,408.2423,51,54,0
408.22116,408.3498,50,54,0
408.3268,408.46295,48,54,0
408.44174,408.56894,46,56,0
408.54776,408.67496,48,51,0
408.65375,408.78098,46,51,0
408.75977,408.88696,44,51,0
408.86578,408.99298,43,56,0
408.97177,409.099,44,50,0
409.0778,409.20798,46,50,0
409.1838,409.32706,48,50,0
409.30475,409.4386,50,59,0
409.4163,409.55072,51,52,0
409.5278,409.66742,53,57,0
409.6423,409.76782,55,62,0
409.76782,409.9063,44,60,0
409.8832,410.02167,46,61,0
409.9986,410.13293,48,62,0
410.11084,410.24255,49,63,0
410.22076,410.32983,51,64,0
410.32983,410.43842,53,65,0
410.43842,410.5463,55,66,0
410.5463,410.65405,56,67,0
410.65405,410.7624,58,69,0
410.7624,410.87128,59,70,0
410.87128,411.09085,60,71,0
411.09085,411.32013,80,82,0
411.54556,411.61945,65,75,0
411.61945,411.69296,67,67,0
411.69296,411.76614,65,72,0
411.76614,411.83905,67,62,0
411.83905,411.91168,65,67,0
411.91168,411.98395,67,61,0
411.98395,412.0562,65,67,0
412.0562,412.12888,67,62,0
412.12888,412.20187,65,67,0
412.20187,412.2753,67,61,0
412.2753,412.34906,65,67,0
412.34906,412.42328,67,62,0
412.42328,412.56555,55,60,0
412.54184,412.68414,56,61,0
412.66043,412.79556,58,62,0
412.77347,412.9052,60,63,0
412.8834,412.9925,62,64,0
412.9925,413.10107,63,65,0
413.10107,413.20895,65,66,0
413.20895,413.31668,67,67,0
413.31668,413.42502,68,69,0
413.42502,413.53394,69,70,0
413.53394,413.75348,70,71,0
413.75348,413.98975,55,93,0
414.2133,414.2872,39,75,0
414.2872,414.3607,41,67,0
414.3607,414.4339,39,72,0
414.4339,414.5068,41,62,0
414.5068,414.57944,39,67,0
414.57944,414.65167,41,61,0
414.65167,414.72397,39,67,0
414.72397,414.7966,41,62,0
414.7966,414.8696,39,67,0
414.8696,414.94302,41,61,0
414.94302,415.01678,39,67,0
415.01678,415.091,41,62,0
415.091,415.32217,34,97,0
415.54572,415.61963,50,75,0
415.61963,415.6931,51,67,0
415.6931,415.76633,50,72,0
415.76633,415.83923,51,62,0
415.83923,415.91183,50,67,0
415.91183,415.9841,51,61,0
415.9841,416.0564,50,67,0
416.0564,416.12903,51,62,0
416.12903,416.20203,50,67,0
416.20203,416.27545,51,61,0
416.27545,416.3492,50,67,0
416.3492,416.42343,51,62,0
416.42343,416.6546,39,94,0
416.87814,416.95203,55,75,0
416.95203,417.02554,56,67,0
417.02554,417.09875,55,72,0
417.09875,417.17166,56,62,0
417.17166,417.24426,55,67,0
417.24426,417.31653,56,61,0
417.31653,417.3888,55,67,0
417.3888,417.46146,56,62,0
417.46146,417.53445,55,67,0
417.53445,417.60788,56,61,0
417.60788,417.68164,55,67,0
417.68164,417.75586,56,62,0
417.75586,417.98703,36,98,0
418.21057,418.28445,52,75,0
418.28445,418.35797,53,67,0
418.35797,418.43115,52,72,0
418.43115,418.50406,53,62,0
418.50406,418.5767,52,67,0
418.5767,418.64896,53,61,0
418.64896,418.72122,52,67,0
418.72122,418.79388,53,62,0
418.79388,418.86688,52,67,0
418.86688,418.9403,53,61,0
418.9403,419.01407,52,67,0
419.01407,419.0883,53,62,0
419.0883,419.31943,41,95,0
419.54297,419.61688,56,75,0
419.61688,419.69037,58,67,0
419.69037,419.76358,56,72,0
419.76358,419.8365,58,62,0
419.8365,419.90912,56,67,0
419.90912,419.98135,58,61,0
419.98135,420.05365,56,67,0
420.05365,420.1263,58,62,0
420.1263,420.1993,56,67,0
420.1993,420.27274,58,61,0
420.27274,420.34647,56,67,0
420.34647,420.4207,58,62,0
420.4207,420.64374,55,73,0
420.64374,420.76,59,65,0
420.8763,420.93185,43,62,0
420.93185,420.98743,44,54,0
420.98743,421.04297,43,61,0
421.04297,421.0985,44,54,0
421.54297,421.65836,63,64,0
421.77374,421.8289,48,62,0
421.8289,421.88403,50,54,0
421.88403,421.93918,48,61,0
421.93918,421.99432,50,54,0
422.4355,422.54828,57,66,0
422.66107,422.716,42,65,0
422.716,422.77097,43,57,0
422.77097,422.8259,42,65,0
422.8259,422.88086,43,57,0
423.3204,423.4332,58,68,0
423.54596,423.6007,43,69,0
423.6007,423.65546,44,61,0
423.65546,423.7102,43,68,0
423.7102,423.76495,44,61,0
424.20212,424.31445,64,75,0
424.42682,424.48157,49,75,0
424.48157,424.53632,50,65,0
424.53632,424.59106,49,74,0
424.59106,424.6458,50,66,0
425.08377,425.1974,57,82,0
425.31104,425.42053,53,67,0
425.53,425.6395,50,69,0
425.749,425.8585,45,70,0
425.96796,426.07745,41,72,0
426.18695,426.29645,38,73,0
426.4059,426.5154,45,68,0
426.4059,426.5154,33,57,0
426.6249,426.73685,34,58,0
426.6249,426.73685,46,70,0
426.8488,426.96072,46,71,0
426.8488,426.96072,34,59,0
427.07266,427.18985,40,60,0
427.07266,427.18985,33,60,0
427.07266,427.18985,37,60,0
427.07266,427.18985,45,72,0
427.5414,427.6586,40,65,0
427.5414,427.6586,33,65,0
427.5414,427.6586,45,76,0
427.5414,427.6586,37,65,0
435.97888,436.48407,57,44,0
436.46082,436.94916,55,42,0
436.9259,437.41428,54,42,0
437.39102,437.88025,55,44,0
437.85614,438.8032,57,44,0
438.8032,439.29156,55,44,0
439.2683,439.73343,54,40,0
439.73343,440.21344,59,47,0
440.21344,440.67496,49,40,0
440.67496,441.1437,50,40,0
441.1437,441.60526,43,43,0
441.60526,442.0668,44,41,0
442.0668,442.52832,45,41,0
442.52832,443.02832,47,37,0
443.02832,443.52255,42,47,0
443.49948,443.98465,44,47,0
443.96103,444.45663,45,47,0
444.43347,444.91995,47,46,0
444.8968,445.3601,49,47,0
445.3601,445.8601,50,47,0
445.8363,446.32455,62,44,0
446.30148,446.7861,60,44,0
446.76303,447.24765,59,47,0
447.22458,447.7098,61,39,0
447.6861,448.1604,62,40,0
448.1604,448.64502,55,42,0
448.62195,449.10657,57,44,0
449.0835,449.545,59,47,0
449.545,450.04056,52,47,0
450.01746,450.50244,54,41,0
450.479,450.97137,55,41,0
450.94775,451.44336,56,47,0
451.4202,451.90714,57,45,0
451.8835,452.35596,55,45,0
452.35596,452.81882,54,44,0
452.81882,453.28217,59,45,0
453.28217,453.74548,57,45,0
453.74548,454.68677,55,44,0
454.22165,454.71002,61,51,0
454.68677,455.1759,53,39,0
454.68677,455.1759,59,47,0
455.1519,455.6319,58,51,0
455.1519,456.10074,54,44,0
455.6319,456.124,62,54,0
456.10074,456.35654,56,54,0
456.33328,456.58975,58,48,0
456.10074,456.58975,61,54,0
456.56586,457.04395,59,44,0
456.56586,457.04395,62,54,0
457.04395,457.50726,61,55,0
457.04395,457.53043,57,46,0
457.50726,457.9942,64,54,0
457.50726,457.9942,61,45,0
457.97058,458.44302,62,47,0
457.97058,458.44302,66,56,0
458.44302,458.90634,54,52,0
458.90634,459.37878,51,51,0
459.37878,459.8403,52,54,0
459.8403,460.32492,64,53,0
460.30185,460.78647,62,52,0
460.7634,461.2249,61,59,0
461.2249,461.71356,45,50,0
461.69003,462.18463,43,47,0
462.16064,462.6421,42,48,0
462.6421,463.12894,44,47,0
463.1054,464.04657,45,47,0
464.04657,464.51715,44,43,0
464.51715,464.98776,40,43,0
464.98776,465.46967,45,47,0
465.46967,465.94775,57,43,0
465.94775,466.41287,54,43,0
466.41287,467.35992,55,47,0
467.35992,467.82684,52,47,0
467.82684,468.32895,51,42,0
468.32895,468.81674,50,46,0
468.81674,469.30457,48,46,0
469.30457,469.81958,53,30,0
469.30457,469.81958,57,44,0
469.81958,470.46472,46,39,0
469.81958,470.46472,58,46,0
470.46472,471.1665,52,46,0
470.46472,471.1665,46,39,0
471.1665,471.85678,45,46,0
471.1665,471.85678,53,46,0
471.85678,472.32114,48,46,0
472.32114,472.79263,41,46,0
472.79263,473.25418,46,46,0
475.59998,476.08096,43,46,0
476.08096,476.15955,59,50,0
476.15955,476.23767,60,44,0
476.23767,476.31534,59,50,0
476.31534,476.39255,60,44,0
476.39255,476.46927,59,51,0
476.46927,476.54532,60,44,0
476.54532,476.6214,59,51,0
476.6214,476.69812,60,46,0
476.69812,476.7762,59,52,0
476.7762,476.83557,60,51,0
476.83557,476.89584,59,48,0
476.89584,476.95633,57,48,0
476.95633,477.0168,59,48,0
477.0168,477.47833,60,48,0
477.7109,477.85043,60,47,0
477.82718,477.96707,58,43,0
477.94345,478.0852,57,47,0
478.06155,478.2033,55,46,0
478.1797,478.3214,53,44,0
478.2978,478.4159,52,42,0
478.4159,478.8792,57,53,0
479.1136,479.2542,57,52,0
479.23077,479.37177,55,47,0
479.34796,479.4908,53,51,0
479.467,479.60986,52,50,0
479.58606,479.7289,50,48,0
479.7051,479.82416,48,46,0
479.82416,480.28748,53,57,0
480.52185,480.66248,53,56,0
480.63904,480.78003,52,51,0
480.75623,480.89908,50,55,0
480.87527,481.01813,48,54,0
480.99432,481.13718,46,52,0
481.11337,481.23242,45,49,0
481.23242,481.37527,48,57,0
481.35147,481.49432,46,57,0
481.47052,481.61337,45,57,0
481.58957,481.70862,43,58,0
481.70862,482.18057,29,71,0
481.70862,482.18057,41,81,0
482.18057,482.64532,27,63,0
482.18057,482.64532,39,72,0
482.64532,483.1084,38,81,0
482.64532,483.1084,26,71,0
483.1084,483.56912,27,64,0
483.1084,483.56912,39,73,0
483.56912,484.0328,41,72,0
483.56912,484.0328,29,63,0
484.0328,484.49847,27,71,0
484.0328,484.49847,39,81,0
484.49847,484.9662,29,62,0
484.49847,484.9662,41,71,0
484.9662,485.43124,43,71,0
484.9662,485.43124,31,62,0
485.43124,485.89993,28,70,0
485.43124,485.89993,40,80,0
485.89993,486.36646,41,69,0
485.89993,486.36646,29,60,0
486.36646,486.8309,43,69,0
486.36646,486.8309,31,60,0
486.8309,487.29562,41,77,0
486.8309,487.29562,29,67,0
487.29562,487.7584,43,67,0
487.29562,487.7584,31,59,0
487.7584,488.2246,33,59,0
487.7584,488.2246,45,67,0
488.2246,488.68857,42,73,0
488.2246,488.68857,30,64,0
488.68857,489.15195,31,57,0
488.68857,489.15195,43,65,0
489.15195,489.61407,33,57,0
489.15195,489.61407,45,65,0
489.61407,490.07227,31,63,0
489.61407,490.07227,43,72,0
490.07227,490.53836,45,65,0
490.07227,490.53836,33,57,0
490.53836,490.65344,34,69,0
490.65344,490.7693,46,65,0
490.7693,490.88577,48,65,0
490.88577,491.00308,46,61,0
491.00308,491.12073,45,65,0
491.12073,491.2432,43,69,0
491.2432,491.35947,41,69,0
491.35947,491.47574,40,69,0
491.47574,491.592,43,69,0
491.592,491.7083,41,65,0
491.7083,491.8246,52,65,0
491.8246,491.94086,50,65,0
491.94086,492.05713,48,65,0
492.05713,492.17908,46,63,0
492.17908,492.29446,45,65,0
492.29446,492.40985,43,60,0
492.40985,492.52524,41,69,0
492.52524,492.64062,40,71,0
492.64062,492.756,38,73,0
492.756,492.8805,36,75,0
493.3424,493.42038,43,71,0
493.42038,493.498,45,65,0
493.498,493.5752,43,71,0
493.5752,493.65213,45,65,0
493.65213,493.7292,43,71,0
493.7292,493.80652,45,66,0
493.80652,493.8843,43,71,0
493.8843,493.9619,45,65,0
493.9619,494.03912,43,71,0
494.03912,494.11603,45,66,0
494.11603,494.19266,43,71,0
494.19266,494.26837,45,66,0
494.26837,494.7321,41,88,0
494.96286,495.07825,41,75,0
495.07825,495.19363,43,68,0
495.19363,495.30902,45,75,0
495.30902,495.4244,46,74,0
495.4244,495.5398,48,74,0
495.5398,495.65518,50,74,0
495.65518,496.1248,45,87,0
496.35556,496.47095,45,75,0
496.47095,496.58633,46,68,0
496.58633,496.70172,48,75,0
496.70172,496.81708,50,74,0
496.81708,496.93246,52,74,0
496.93246,497.04785,53,74,0
497.04785,497.5175,48,87,0
497.74823,497.86362,48,67,0
497.86362,497.979,50,63,0
497.979,498.0944,52,73,0
498.0944,498.20978,50,63,0
498.20978,498.32516,52,63,0
498.32516,498.44565,53,63,0
498.44565,498.56104,55,74,0
498.56104,498.67642,53,63,0
498.67642,498.7918,55,63,0
498.7918,498.9123,57,63,0
498.9123,499.02768,58,74,0
499.02768,499.14304,57,62,0
499.14304,499.25842,55,62,0
499.25842,499.37845,57,62,0
499.37845,499.49426,58,73,0
499.49426,499.6101,57,61,0
499.6101,499.72592,55,62,0
499.72592,499.8464,53,62,0
499.8464,499.96268,52,74,0
499.96268,500.07898,50,62,0
500.07898,500.19525,48,62,0
500.19525,500.31573,50,62,0
500.31573,500.432,51,73,0
500.432,500.54828,50,62,0
500.54828,500.66455,48,62,0
500.66455,500.786,46,62,0
500.786,500.90186,50,76,0
500.90186,501.01767,48,62,0
501.01767,501.1335,46,62,0
501.1335,501.25647,45,62,0
501.25647,501.37186,46,73,0
501.37186,501.48724,45,63,0
501.48724,501.6026,43,63,0
501.6026,501.71826,41,63,0
501.9506,502.1834,29,98,0
502.1834,502.26154,45,72,0
502.26154,502.33945,46,65,0
502.33945,502.41705,45,72,0
502.41705,502.49435,46,64,0
502.49435,502.57135,45,72,0
502.57135,502.648,46,64,0
501.71826,502.648,51,78,0
502.648,502.72418,45,72,0
502.72418,502.80072,46,65,0
502.80072,502.87775,45,72,0
502.87775,502.93582,46,70,0
502.93582,502.99487,45,63,0
502.99487,503.05606,43,63,0
503.05606,503.11856,45,63,0
502.648,503.11856,50,72,0
503.11856,503.69382,46,84,0
503.9291,504.04675,46,60,0
504.04675,504.17334,45,54,0
504.17334,504.291,43,60,0
504.291,504.40863,41,53,0
504.40863,504.52768,39,53,0
504.52768,504.64673,38,53,0
504.64673,505.12106,43,65,0
505.3536,505.46988,43,60,0
505.46988,505.59543,41,54,0
505.59543,505.71262,39,60,0
505.71262,505.8298,38,53,0
505.8298,505.9493,36,53,0
505.9493,506.06885,35,53,0
506.06885,506.53397,36,65,0
506.76562,506.88147,51,60,0
506.88147,506.99728,50,53,0
506.99728,507.11313,48,60,0
507.11313,507.22894,50,53,0
507.22894,507.3448,48,53,0
507.3448,507.46875,46,53,0
507.46875,507.58502,45,64,0
507.58502,507.70132,46,58,0
507.70132,507.8176,45,61,0
507.8176,507.94156,43,64,0
507.94156,508.0583,41,72,0
508.0583,508.17502,43,60,0
508.17502,508.29175,45,60,0
508.29175,508.40848,46,60,0
508.40848,508.5252,48,68,0
508.5252,508.64194,49,56,0
508.64194,508.76007,50,56,0
508.76007,508.87817,48,56,0
508.87817,508.99628,46,66,0
508.99628,509.11346,48,57,0
509.11346,509.23065,50,57,0
509.23065,509.34784,51,57,0
509.34784,509.4842,52,60,0
509.4842,509.60092,51,55,0
509.60092,509.71768,50,60,0
509.71768,509.8344,51,54,0
509.8344,509.95114,53,59,0
509.95114,510.06787,55,56,0
510.06787,510.1846,57,61,0
510.1846,510.30856,58,57,0
510.30856,510.42438,60,63,0
510.42438,510.54022,58,60,0
510.54022,510.65604,60,66,0
510.65604,510.78372,62,62,0
510.78372,510.9,63,68,0
510.9,511.01627,62,63,0
511.01627,511.13254,61,62,0
511.13254,511.24884,60,60,0
511.24884,511.3651,58,65,0
511.3651,511.48138,57,60,0
511.48138,511.59766,55,57,0
511.59766,511.71393,57,55,0
511.71393,511.8316,58,63,0
511.8316,511.94925,57,57,0
511.94925,512.0742,55,58,0
512.0742,512.1905,53,58,0
512.1905,512.268,55,58,0
512.268,512.3456,57,52,0
512.3456,512.4231,55,58,0
512.4231,512.5006,57,52,0
512.5006,512.5781,55,58,0
512.5781,512.65564,57,53,0
512.1905,512.65564,52,50,0
512.65564,512.73315,55,58,0
512.73315,512.81067,57,53,0
512.81067,512.8882,55,58,0
512.8882,512.9672,57,54,0
512.9672,513.04846,55,58,0
513.04846,513.1318,57,54,0
512.65564,513.1318,46,58,0
513.1318,513.59686,45,51,0
513.1318,513.59686,53,58,0
513.59686,513.6744,57,58,0
513.6744,513.7519,58,52,0
513.7519,513.82947,57,58,0
513.82947,513.907,58,52,0
513.907,513.9845,57,58,0
513.9845,514.062,58,53,0
513.59686,514.062,54,50,0
514.062,514.1395,57,58,0
514.1395,514.21704,58,53,0
514.21704,514.29456,57,58,0
514.29456,514.3739,58,54,0
514.3739,514.45544,57,58,0
514.45544,514.5391,58,54,0
514.062,514.5391,48,58,0
514.5391,515.00244,46,51,0
514.5391,515.00244,55,58,0
515.00244,515.07965,58,58,0
515.07965,515.15686,60,52,0
515.15686,515.23413,58,58,0
515.23413,515.31134,60,52,0
515.31134,515.38855,58,58,0
515.38855,515.46576,60,53,0
515.00244,515.46576,55,50,0
515.46576,515.5433,58,58,0
515.5433,515.6213,60,53,0
515.6213,515.69995,58,58,0
515.69995,515.77924,60,54,0
515.77924,515.85913,58,58,0
515.85913,515.93964,60,54,0
515.46576,515.93964,50,58,0
515.93964,516.1816,48,51,0
515.93964,516.4235,57,58,0
516.1816,516.5439,42,52,0
516.5439,516.6629,43,48,0
516.6629,516.7806,45,50,0
516.7806,516.8967,46,53,0
516.8967,517.0119,48,55,0
517.0119,517.1279,50,58,0
517.1279,517.2466,52,60,0
517.2466,517.3698,54,63,0
517.3698,517.4903,43,65,0
517.4903,517.6108,55,55,0
517.6108,517.73126,41,62,0
517.73126,517.85175,53,51,0
517.85175,517.9721,40,53,0
517.9721,518.09106,41,48,0
518.09106,518.20874,43,50,0
518.20874,518.3249,45,53,0
518.3249,518.4401,46,55,0
518.4401,518.5561,48,58,0
518.5561,518.67474,50,60,0
518.67474,518.798,52,63,0
518.798,518.91846,41,65,0
518.91846,519.03894,53,55,0
519.03894,519.1594,39,62,0
519.1594,519.2799,51,51,0
519.2799,519.40027,38,53,0
519.40027,519.5193,39,48,0
519.5193,519.6369,41,50,0
519.6369,519.75305,43,53,0
519.75305,519.8683,44,55,0
519.8683,519.98425,46,58,0
519.98425,520.10297,48,60,0
520.10297,520.2262,50,63,0
520.2262,520.3467,39,74,0
520.3467,520.4671,51,63,0
520.4671,520.70807,37,58,0
520.4671,520.70807,49,71,0
520.70807,520.78815,34,66,0
520.70807,520.828,49,66,0
520.78815,520.8677,36,52,0
520.8677,520.9467,34,66,0
520.828,520.9467,48,53,0
520.9467,521.02527,36,52,0
520.9467,521.06433,50,53,0
521.02527,521.1033,34,66,0
521.1033,521.1809,36,52,0
521.06433,521.1809,52,53,0
521.1809,521.25824,34,66,0
521.1809,521.29706,53,57,0
521.25824,521.33606,36,52,0
521.33606,521.4143,34,66,0
521.29706,521.4143,55,59,0
521.4143,521.4931,36,52,0
521.4143,521.5327,57,61,0
521.4931,521.5724,34,66,0
521.5724,521.65216,36,52,0
521.5327,521.65216,58,63,0
521.65216,521.7728,60,65,0
521.7728,521.8933,57,64,0
521.8933,522.0138,55,62,0
522.0138,522.1343,53,60,0
521.65216,522.1343,33,66,0
522.1343,522.21436,36,66,0
522.1343,522.2542,51,66,0
522.21436,522.2939,38,52,0
522.2939,522.3729,36,66,0
522.2542,522.3729,50,53,0
522.3729,522.4515,38,52,0
522.3729,522.49054,52,53,0
522.4515,522.5295,36,66,0
522.5295,522.6071,38,52,0
522.49054,522.6071,54,53,0
522.6071,522.68445,36,66,0
522.6071,522.72327,55,57,0
522.68445,522.76227,38,52,0
522.7613,522.83954,36,66,0
522.72327,522.8405,57,59,0
522.8405,522.9193,38,52,0
522.8405,522.9589,58,61,0
522.9193,522.9986,36,66,0
522.9986,523.07837,38,52,0
522.9589,523.07837,60,63,0
523.07837,523.19904,62,65,0
523.19904,523.3195,58,64,0
523.3195,523.44,57,62,0
523.44,523.5605,55,60,0
523.07837,523.5605,34,66,0
523.5605,523.64056,38,66,0
523.5605,523.68036,53,66,0
523.64056,523.7201,39,52,0
523.7201,523.79913,38,66,0
523.68036,523.79913,51,53,0
523.79913,523.8777,39,52,0
523.79913,523.91675,53,53,0
523.8777,523.9557,38,66,0
523.9557,524.03326,39,52,0
523.91675,524.03326,55,53,0
524.03326,524.11066,38,66,0
524.03326,524.1495,57,57,0
524.11066,524.1885,39,52,0
524.1885,524.2667,38,66,0
524.1495,524.2667,58,59,0
524.2667,524.3455,39,52,0
524.2667,524.38513,60,61,0
524.3455,524.4248,38,66,0
524.4248,524.5046,39,52,0
524.38513,524.5046,62,63,0
524.5046,524.62524,63,65,0
524.62524,524.7457,60,64,0
524.7457,524.8662,58,62,0
524.8662,524.9867,57,60,0
524.5046,524.9867,36,66,0
524.9867,525.06934,39,66,0
525.06934,525.152,41,60,0
525.152,525.2346,39,66,0
525.2346,525.2942,41,62,0
525.2942,525.3537,39,55,0
525.3537,525.4132,38,55,0
525.4132,525.4727,39,55,0
525.4727,525.9452,38,63,0
525.9452,526.1838,40,63,0
526.1838,526.42236,52,57,0
526.54047,526.65857,63,49,0
526.65857,526.77673,62,48,0
526.77673,526.9038,60,48,0
526.9038,527.02374,59,48,0
527.02374,527.143,60,52,0
527.143,527.26154,62,49,0
527.26154,527.37933,63,46,0
527.37933,527.4965,64,53,0
527.4965,527.6139,65,43,0
527.6139,527.7315,67,49,0
527.7315,527.8494,65,40,0
526.42236,527.8494,53,37,0
527.8494,527.9676,60,45,0
527.9676,528.0857,62,41,0
528.0857,528.2052,63,45,0
528.2052,528.3247,62,39,0
528.8,528.9181,65,45,0
528.9181,529.0362,63,41,0
529.0362,529.1567,62,45,0
529.1567,529.27716,63,41,0
527.8494,529.27716,53,37,0
529.27716,529.39526,60,48,0
529.39526,529.51337,62,41,0
529.51337,529.6315,60,48,0
529.6315,529.7586,58,41,0
529.7586,529.87854,57,48,0
529.87854,529.9978,58,52,0
529.9978,530.11633,60,49,0
530.11633,530.23413,62,46,0
530.23413,530.3513,63,53,0
530.3513,530.4686,64,43,0
530.4686,530.5863,65,49,0
530.5863,530.7042,63,40,0
529.27716,530.7042,53,37,0
530.7042,530.8223,58,45,0
530.8223,530.9405,60,41,0
530.9405,531.06,62,45,0
531.06,531.1795,63,39,0
531.6548,531.7729,63,45,0
531.7729,531.891,62,41,0
530.7042,531.891,53,37,0
531.891,532.0115,60,45,0
532.0115,532.13196,58,41,0
531.891,532.13196,54,37,0
532.13196,532.25006,43,65,0
532.13196,532.25006,55,77,0
532.6134,533.3234,53,85,0
532.6134,533.3234,41,72,0
533.3234,533.559,41,61,0
533.3234,533.559,53,72,0
533.559,533.7952,41,62,0
533.559,533.7952,53,74,0
533.7952,533.97455,52,64,0
533.7952,533.97455,40,54,0
534.0343,534.2705,37,56,0
534.0343,534.2705,49,66,0
534.2705,534.44977,48,59,0
534.2705,534.44977,36,50,0
534.5096,534.7458,47,66,0
534.5096,534.7458,35,56,0
534.7458,534.9265,48,56,0
534.7458,534.9265,36,47,0
534.98676,535.10486,41,65,0
534.98676,535.10486,53,77,0
535.4682,536.1782,51,85,0
535.4682,536.1782,39,72,0
536.1782,536.4138,39,61,0
536.1782,536.4138,51,72,0
536.4138,536.65,39,62,0
536.4138,536.65,51,74,0
536.65,536.82935,38,54,0
536.65,536.82935,50,64,0
536.8891,537.1253,36,56,0
536.8891,537.1253,48,66,0
537.1253,537.30457,35,50,0
537.1253,537.30457,47,59,0
538.79205,539.02826,41,56,0
538.79205,539.02826,53,66,0
539.02826,539.209,51,60,0
539.02826,539.209,39,51,0
539.2692,539.5055,39,56,0
539.2692,539.5055,51,66,0
539.5055,539.68475,50,60,0
539.5055,539.68475,38,51,0
539.7445,539.9807,48,66,0
539.7445,539.9807,36,56,0
539.9807,540.16003,46,61,0
539.9807,540.16003,34,51,0
544.4274,544.653,54,76,0
544.4274,544.653,42,64,0
544.653,544.7702,43,56,0
544.653,544.7702,55,66,0
544.8874,545.1121,53,72,0
544.8874,545.1121,41,61,0
545.1121,545.2279,40,56,0
545.1121,545.2279,52,66,0
545.34375,545.5676,43,61,0
545.34375,545.5676,55,72,0
545.5676,545.6821,45,56,0
545.5676,545.6821,57,66,0
545.79663,546.02136,55,74,0
545.79663,546.02136,43,62,0
546.02136,546.1368,54,66,0
546.02136,546.1368,42,56,0
546.25214,546.476,57,76,0
546.25214,546.476,45,64,0
546.476,546.59094,46,56,0
546.476,546.59094,58,66,0
546.70593,546.92896,54,74,0
546.70593,546.92896,42,62,0
546.92896,547.0426,55,66,0
546.92896,547.0426,43,56,0
547.15625,547.3793,51,77,0
547.15625,547.3793,39,65,0
547.3793,547.49335,52,66,0
547.3793,547.49335,40,56,0
547.6074,547.8474,61,66,0
547.6074,547.8474,58,56,0
548.0874,548.16376,43,65,0
548.16376,548.2403,45,57,0
548.2403,548.31616,43,65,0
548.31616,548.3913,45,58,0
548.3913,548.46576,43,66,0
548.46576,548.5393,45,58,0
548.5393,548.61255,43,66,0
548.61255,548.6862,45,61,0
548.6862,548.7602,43,67,0
548.7602,548.81683,45,58,0
548.81683,548.87616,43,69,0
548.87616,548.93835,41,62,0
548.93835,549.0029,43,66,0
548.0874,549.0029,46,69,0
551.0516,551.273,64,62,0
551.273,551.4946,65,73,0
552.39734,552.6187,61,62,0
552.6187,552.84033,62,73,0
553.7586,553.89166,70,70,0
553.8695,554.0024,69,65,0
553.9802,554.1131,67,70,0
554.09094,554.224,69,61,0
554.2017,554.33734,67,67,0
554.3144,554.4537,65,61,0
554.43005,554.5718,64,68,0
554.54816,554.6899,65,62,0
554.66626,554.808,64,62,0
554.78436,554.9252,62,62,0
554.90247,555.0388,60,66,0
555.0161,555.15247,62,59,0
555.12976,555.2661,64,63,0
555.2434,555.37976,65,59,0
555.357,555.4934,66,66,0
555.47064,555.6072,67,59,0
555.5843,555.7217,69,65,0
555.6988,555.8133,67,60,0
555.8133,556.04584,70,85,0
556.27844,556.9551,69,89,0
556.9551,557.1832,69,82,0
557.1832,557.32495,66,68,0
557.30133,557.4431,67,62,0
557.41943,557.5612,66,62,0
557.5376,557.6784,64,62,0
557.6557,557.79205,62,66,0
557.76935,557.9057,64,59,0
557.88293,558.01935,66,63,0
557.9966,558.13293,67,59,0
558.1102,558.2466,68,66,0
558.2239,558.3604,69,59,0
558.3375,558.4749,70,65,0
558.452,558.5665,69,60,0
558.5665,558.7991,72,85,0
559.0316,559.7083,70,89,0
559.7083,559.93646,70,82,0
559.93646,560.0782,69,68,0
560.05457,560.1963,70,62,0
560.17267,560.3144,69,62,0
560.2908,560.43164,67,62,0
560.4089,560.5453,65,66,0
560.5225,560.6589,67,59,0
560.63617,560.7725,69,63,0
560.7498,560.88617,70,59,0
560.86346,560.9998,71,66,0
560.97705,561.1136,72,59,0
561.0907,561.2281,74,65,0
561.2052,561.3197,72,60,0
561.3197,561.5523,75,85,0
561.78485,562.46155,74,89,0
562.46155,562.5756,75,85,0
562.5756,562.68964,73,76,0
562.68964,562.825,71,86,0
562.8024,562.9378,72,79,0
562.9152,563.0518,73,79,0
563.028,563.14703,72,80,0
563.14703,563.2829,69,86,0
563.26025,563.3961,70,83,0
563.3735,563.5105,72,83,0
563.4867,563.6057,70,83,0
563.6057,563.7411,68,88,0
563.7185,563.8538,69,84,0
563.8313,563.9679,70,85,0
563.9441,564.0631,69,85,0
564.0631,564.1785,29,84,0
564.5179,564.59265,45,66,0
564.59265,564.6671,46,58,0
564.6671,564.74133,45,66,0
564.74133,564.8152,46,59,0
564.8152,564.8888,45,66,0
564.8888,564.9621,46,60,0
564.9621,565.03564,45,66,0
565.03564,565.10956,46,66,0
565.10956,565.1837,45,66,0
565.1837,565.2395,46,60,0
565.2395,565.2955,45,66,0
565.2955,565.3516,43,60,0
565.3516,565.4079,45,60,0
565.4079,565.8582,46,71,0
566.0872,566.19836,46,60,0
566.19836,566.30945,45,52,0
566.30945,566.4206,43,59,0
566.4206,566.5317,41,59,0
566.5317,566.6428,39,63,0
566.6428,566.7633,38,64,0
566.7633,567.20856,41,69,0
567.43756,567.54865,43,60,0
567.54865,567.6598,41,52,0
567.6598,567.7709,39,59,0
567.7709,567.882,38,59,0
567.882,567.9931,36,63,0
567.9931,568.1136,34,64,0
568.1136,568.55884,39,69,0
568.78784,568.899,39,60,0
568.899,569.0101,38,52,0
569.0101,569.1212,36,59,0
569.1212,569.2323,38,59,0
569.2323,569.34344,36,63,0
569.34344,569.4639,34,64,0
569.4639,569.6938,33,59,0
569.6938,569.8087,45,60,0
569.8087,569.9237,43,52,0
569.9237,570.15356,41,59,0
569.9237,570.15356,53,59,0
570.3813,570.4569,69,59,0
570.4569,570.5321,70,54,0
570.5321,570.60706,69,59,0
570.60706,570.68164,70,54,0
570.68164,570.75586,69,59,0
570.75586,570.82983,70,53,0
570.82983,570.9035,69,59,0
570.9035,570.97766,70,54,0
570.97766,571.0522,69,59,0
571.0522,571.1084,70,53,0
571.1084,571.16486,69,56,0
571.16486,571.22156,67,53,0
571.22156,571.27856,69,53,0
571.51953,571.6319,46,73,0
571.27856,571.7442,70,59,0
571.7442,571.80005,62,73,0
571.80005,571.85596,63,68,0
571.85596,571.9119,62,73,0
571.9119,571.96735,63,68,0
571.96735,572.0786,70,73,0
572.0786,572.1906,69,74,0
572.1906,572.30304,67,72,0
572.30304,572.416,65,69,0
572.416,572.5295,63,67,0
572.5295,572.64343,62,64,0
572.64343,573.0912,67,73,0
573.31696,573.4282,67,73,0
573.4282,573.54016,65,74,0
573.54016,573.65204,63,72,0
573.65204,573.765,62,69,0
573.765,573.8785,60,67,0
573.8785,573.99243,59,64,0
574.2259,574.3404,51,73,0
573.99243,574.4549,63,73,0
574.4549,574.5114,60,73,0
574.5114,574.5673,62,68,0
574.5673,574.6233,60,73,0
574.6233,574.67865,62,68,0
574.67865,574.79,63,62,0
574.79,574.9019,62,62,0
574.9019,575.0144,60,61,0
575.0144,575.1274,59,58,0
575.1274,575.24084,57,56,0
575.24084,575.3548,55,54,0
575.3548,575.5787,36,73,0
575.3548,575.80255,63,62,0
575.80255,575.8782,52,59,0
575.8782,575.95337,53,54,0
575.95337,576.02826,52,59,0
576.02826,576.10236,53,54,0
576.10236,576.1768,52,59,0
576.1768,576.2515,53,53,0
576.2515,576.3264,52,59,0
576.3264,576.4016,53,54,0
576.4016,576.477,52,59,0
576.477,576.5336,53,53,0
576.5336,576.59045,52,56,0
576.59045,576.64734,50,53,0
576.64734,576.7044,52,53,0
576.7044,577.1615,53,59,0
577.39056,577.50165,53,64,0
577.50165,577.61273,52,59,0
577.61273,577.7239,50,65,0
577.7239,577.83484,48,62,0
577.83484,577.9457,46,59,0
577.9457,578.05695,45,56,0
578.05695,578.507,55,86,0
578.507,578.7284,58,76,0
578.7284,578.8391,55,64,0
578.8391,578.9498,53,60,0
578.9498,579.05975,51,64,0
579.05975,579.1696,50,61,0
579.1696,579.28015,48,60,0
579.28015,579.3913,46,59,0
579.3913,579.8419,57,64,0
580.0633,580.174,57,62,0
580.174,580.28467,55,59,0
580.28467,580.3954,53,64,0
580.3954,580.5061,51,61,0
580.5061,580.6168,50,59,0
580.6168,580.7275,48,57,0
580.7275,580.8403,46,61,0
580.8403,580.9494,57,67,0
580.9494,581.0585,55,58,0
581.0585,581.16754,53,56,0
581.16754,581.2767,58,64,0
581.2767,581.38574,57,61,0
581.38574,581.4948,62,64,0
581.4948,581.60846,60,60,0
581.60846,581.71796,58,67,0
581.71796,581.82745,57,64,0
581.82745,581.93695,55,62,0
581.93695,582.0501,53,60,0
582.0501,582.1596,51,66,0
582.1596,582.2691,50,64,0
582.2691,582.3786,48,62,0
582.3786,582.4931,46,60,0
582.4931,582.6026,43,68,0
582.6026,582.7121,45,66,0
582.7121,582.8216,46,63,0
582.8216,582.9361,47,61,0
582.9361,583.04596,48,61,0
583.04596,583.1559,50,62,0
583.1559,583.26575,51,64,0
583.26575,583.3757,50,62,0
583.3757,583.48553,48,61,0
583.48553,583.5953,46,58,0
583.5953,583.70447,45,58,0
583.70447,583.813,43,57,0
583.813,583.92084,41,61,0
583.92084,584.02783,39,61,0
584.02783,584.1354,38,64,0
584.1354,584.24384,36,66,0
584.24384,584.46265,34,76,0
584.68164,584.75464,50,64,0
584.75464,584.8275,51,59,0
584.8275,584.9001,50,65,0
584.9001,584.9724,51,60,0
584.9724,585.04443,50,66,0
585.04443,585.1162,51,61,0
585.1162,585.18774,50,67,0
585.18774,585.25964,51,62,0
585.25964,585.332,50,68,0
585.332,585.38654,51,65,0
585.38654,585.4413,50,69,0
585.4413,585.49634,48,65,0
585.49634,585.55145,50,65,0
585.55145,585.76965,51,72,0
587.5152,587.73627,52,67,0
587.73627,588.17505,53,72,0
588.39166,588.61145,53,72,0
588.61145,589.26605,66,72,0
588.61145,589.26605,63,61,0
589.26605,589.48346,63,56,0
589.26605,589.48346,66,66,0
589.48346,589.70087,66,70,0
589.48346,589.70087,63,59,0
589.70087,589.9219,62,56,0
589.70087,589.9219,65,67,0
589.9219,590.1393,63,65,0
589.9219,590.1393,60,55,0
590.1393,590.36426,58,53,0
590.1393,590.36426,62,63,0
590.36426,590.47217,50,63,0
590.47217,590.5801,51,56,0
590.5801,590.6916,50,57,0
590.6916,590.80316,48,57,0
590.80316,590.91077,46,63,0
590.91077,591.01855,48,58,0
591.01855,591.1267,50,58,0
591.1267,591.2353,51,58,0
591.2353,591.34424,52,61,0
591.34424,591.4537,53,62,0
591.4537,591.5635,55,64,0
591.5635,591.67377,53,62,0
591.67377,591.7817,50,61,0
591.7817,591.8896,51,63,0
591.8896,591.9975,53,65,0
591.9975,592.11115,51,63,0
592.11115,592.21985,47,63,0
592.21985,592.32855,48,63,0
592.32855,592.43726,50,65,0
592.43726,592.5509,51,66,0
592.5509,592.6592,52,68,0
592.6592,592.76746,53,70,0
592.76746,592.8758,55,73,0
592.8758,593.0034,53,69,0
593.0034,593.22565,41,60,0
593.0034,593.22565,53,71,0
593.22565,593.4479,46,67,0
593.22565,593.4479,34,56,0
594.3366,594.556,34,45,0
594.7726,594.84406,50,56,0
594.84406,594.91595,51,51,0
594.91595,594.98816,50,59,0
594.98816,595.0426,51,55,0
595.0426,595.09717,50,63,0
595.09717,595.1519,51,56,0
595.1519,595.207,50,58,0
595.207,595.4284,63,67,0
595.207,595.4284,51,67,0
595.6498,596.08954,78,57,0
596.08954,596.30695,54,84,0
596.08954,596.30695,42,77,0
596.5269,596.6009,27,100,0
596.6009,596.675,29,56,0
596.675,596.749,27,66,0
596.749,596.8233,29,55,0
596.8233,596.8982,27,66,0
596.8982,596.97284,29,54,0
596.97284,597.0473,27,64,0
597.0473,597.12146,29,57,0
597.12146,597.1954,27,63,0
597.1954,597.26904,29,53,0
597.26904,597.34247,27,62,0
597.34247,597.41565,29,55,0
597.41565,597.49567,27,62,0
597.49567,597.5723,29,52,0
597.5723,597.6462,27,61,0
597.6462,597.72,29,51,0
597.72,597.7936,27,59,0
597.7936,597.8671,29,50,0
597.8671,597.94055,27,58,0
597.94055,598.0138,29,50,0
598.0138,598.0871,27,57,0
598.0871,598.1601,29,51,0
598.1601,598.2331,27,57,0
598.2331,598.3059,29,49,0
598.3059,598.3862,27,56,0
598.3862,598.4633,29,49,0
598.4633,598.5371,27,56,0
598.5371,598.6109,29,49,0
598.6109,598.68445,27,56,0
598.68445,598.758,29,48,0
598.758,598.83136,27,56,0
598.83136,598.9046,29,48,0
598.9046,598.9777,27,56,0
598.9777,599.0507,29,48,0
599.0507,599.12366,27,56,0
599.12366,599.19635,29,48,0
599.19635,599.27637,27,56,0
599.27637,599.3537,29,49,0
599.3537,599.4282,27,56,0
599.4282,599.5022,29,50,0
599.5022,599.5756,27,56,0
599.5756,599.64844,29,49,0
599.64844,599.7278,27,56,0
599.7278,599.8018,29,49,0
599.8018,599.87555,27,56,0
599.87555,599.94904,29,49,0
599.94904,600.0222,27,56,0
600.0222,600.09503,29,48,0
600.09503,600.17535,27,56,0
600.17535,600.252,29,48,0
600.252,600.325,27,56,0
600.325,600.398,29,48,0
600.398,600.471,27,56,0
600.471,600.544,29,48,0
600.544,600.6172,27,56,0
600.6172,600.6908,29,49,0
600.6908,600.7648,27,56,0
600.7648,600.83923,29,50,0
600.83923,600.9142,27,56,0
600.9142,600.9895,29,41,0
600.9895,601.065,34,54,0
601.065,601.14044,36,44,0
601.14044,601.21594,34,52,0
601.21594,601.2914,36,39,0
601.2914,601.3669,34,49,0
601.3669,601.4423,36,38,0
600.9895,601.4423,29,30,0
601.4423,601.5178,34,46,0
601.5178,601.59326,36,36,0
601.59326,601.66876,34,44,0
601.66876,601.7442,36,33,0
601.7442,601.8197,34,41,0
601.8197,601.89514,36,30,0
601.89514,601.96844,34,37,0
601.96844,602.0417,36,31,0
602.0417,602.1149,34,37,0
602.1149,602.18823,36,32,0
602.18823,602.2615,34,37,0
602.2615,602.3347,36,32,0
602.3347,602.40796,34,37,0
602.40796,602.48126,36,31,0
602.48126,602.5545,34,37,0
602.5545,602.62775,36,30,0
602.62775,602.7045,34,37,0
602.7045,602.78485,36,31,0
601.4423,602.78485,29,30,0
602.78485,602.85815,34,37,0
602.85815,602.9314,36,31,0
602.9314,603.00464,34,37,0
603.00464,603.07794,36,30,0
603.07794,603.1512,34,37,0
603.1512,603.2244,36,31,0
603.2244,603.29767,34,37,0
603.29767,603.371,36,31,0
603.371,603.4442,34,37,0
603.4442,603.51666,36,30,0
603.51666,603.5892,34,37,0
603.5892,603.6616,36,31,0
603.6616,603.7341,34,37,0
603.7341,603.8065,36,31,0
603.8065,603.879,34,37,0
603.879,603.9515,36,30,0
603.9515,604.02783,34,37,0
604.02783,604.10815,36,31,0
602.78485,604.10815,29,30,0
604.10815,604.18146,34,37,0
604.18146,604.2547,36,31,0
604.2547,604.32794,34,37,0
604.32794,604.40125,36,30,0
604.40125,604.4745,34,37,0
604.4745,604.5477,36,31,0
604.5477,604.621,34,37,0
604.621,604.6943,36,31,0
604.6943,604.7675,34,37,0
604.7675,604.8403,36,30,0
604.8403,604.91296,34,37,0
604.91296,604.9857,36,31,0
604.9857,605.0584,34,37,0
605.0584,605.13116,36,31,0
605.13116,605.20386,34,37,0
605.20386,605.2766,36,30,0
605.2766,605.35236,34,37,0
605.35236,605.4311,36,31,0
604.10815,605.4311,29,30,0
605.4311,605.50433,34,37,0
605.50433,605.5776,36,31,0
605.5776,605.6509,34,37,0
605.6509,605.7241,36,30,0
605.7241,605.79736,34,37,0
605.79736,605.87067,36,31,0
605.87067,605.9439,34,37,0
605.9439,606.01715,36,31,0
606.01715,606.0904,34,37,0
606.0904,606.1629,36,30,0
606.1629,606.23535,34,37,0
606.23535,606.3078,36,31,0
606.3078,606.38025,34,37,0
606.38025,606.45276,36,31,0
606.45276,606.5252,34,37,0
606.5252,606.59766,36,30,0
606.59766,606.6728,34,37,0
606.6728,606.7506,36,31,0
605.4311,606.7506,29,30,0
606.7506,606.8239,34,37,0
606.8239,606.89716,36,31,0
606.89716,606.9704,34,37,0
606.9704,607.04504,36,30,0
607.04504,607.1197,34,37,0
607.1197,607.1943,36,31,0
607.1943,607.2673,34,37,0
607.2673,607.3403,36,31,0
607.3403,607.41327,34,37,0
607.41327,607.48627,36,30,0
607.48627,607.55927,34,37,0
607.55927,607.63226,36,31,0
607.63226,607.70526,34,37,0
607.70526,607.77826,36,31,0
607.77826,607.85126,34,37,0
607.85126,607.9242,36,30,0
607.9242,607.9972,34,37,0
607.9972,608.0702,36,31,0
606.7506,608.0702,29,30,0
608.0702,608.1432,34,37,0
608.1432,608.2162,36,31,0
608.2162,608.2892,34,37,0
608.2892,608.3622,36,30,0
608.3622,608.4352,34,37,0
608.4352,608.5082,36,31,0
608.5082,608.5812,34,37,0
608.5812,608.6542,36,31,0
608.6542,608.7271,34,37,0
608.7271,608.8001,36,30,0
608.8001,608.8731,34,37,0
608.8731,608.9461,36,31,0
608.9461,609.0191,34,37,0
609.0191,609.0921,36,31,0
609.0921,609.1651,34,37,0
609.1651,609.2381,36,30,0
609.2381,609.31396,34,37,0
609.31396,609.3927,36,31,0
608.0702,609.3927,29,30,0
609.3927,609.4485,34,37,0
609.4485,609.5042,36,31,0
609.5042,609.56,34,37,0
609.56,609.6157,36,30,0
609.6157,609.6715,34,37,0
609.6715,609.7273,36,31,0
609.7273,609.783,34,37,0
609.783,609.8388,36,31,0
609.3927,609.8388,29,30,0
609.8388,609.89453,34,37,0
609.89453,609.9503,36,30,0
609.9503,610.0061,34,37,0
610.0061,610.0618,36,31,0
610.0618,610.1176,34,37,0
610.1176,610.17334,36,31,0
610.17334,610.2291,34,37,0
610.2291,610.2849,36,30,0
609.8388,610.2849,29,30,0
610.2849,610.34064,34,37,0
610.34064,610.3964,36,31,0
610.3964,610.45215,34,37,0
610.45215,610.50793,36,31,0
610.50793,610.5672,34,37,0
610.5672,610.6265,36,30,0
610.6265,610.6858,34,37,0
610.6858,610.7451,36,31,0
610.2849,610.7451,29,30,0
610.7451,610.80255,34,37,0
610.80255,610.86005,36,31,0
610.86005,610.9175,34,37,0
610.9175,610.975,36,31,0
610.975,611.0325,34,37,0
611.0325,611.0899,36,30,0
611.0899,611.1474,34,37,0
611.1474,611.20483,36,31,0
610.7451,611.20483,29,30,0
611.20483,611.26324,34,37,0
611.26324,611.3216,36,31,0
611.3216,611.37994,34,37,0
611.37994,611.43835,36,31,0
611.43835,611.4967,34,37,0
611.4967,611.55505,36,30,0
611.55505,611.6134,34,37,0
611.6134,611.6718,36,31,0
611.20483,611.6718,29,30,0
611.6718,611.73303,34,37,0
611.73303,611.79425,36,31,0
611.79425,611.85547,34,37,0
611.85547,611.94446,36,37,0
611.9167,612.0278,34,37,0
612.0278,612.1389,33,35,0
612.1389,612.2581,34,35,0
611.6718,612.2581,29,30,0
612.2581,612.9643,42,42,0
612.2581,612.9643,34,35,0
612.2581,612.9643,30,35,0
612.9643,614.3204,43,42,0
612.9643,614.3204,34,35,0
612.9643,614.3204,31,35,0
614.3204,614.4265,55,37,0
614.4265,614.5251,57,33,0
614.5251,614.61664,55,37,0
614.61664,614.70337,57,33,0
614.70337,614.7883,55,37,0
614.7883,614.8707,57,33,0
614.8707,614.9501,55,37,0
614.9501,615.0266,57,33,0
615.0266,615.102,55,37,0
615.102,615.17737,57,33,0
615.17737,615.25275,55,37,0
615.25275,615.3287,57,34,0
615.3287,615.43604,55,37,0
615.43604,615.555,53,33,0
615.555,615.6934,55,33,0
615.6934,616.4041,57,42,0
616.4041,616.5401,60,39,0
616.5401,616.66296,62,35,0
616.66296,616.7635,60,39,0
616.7635,616.85266,62,35,0
616.85266,616.9375,60,39,0
616.9375,617.0199,62,35,0
617.0199,617.09924,60,39,0
617.09924,617.1758,62,35,0
617.1758,617.25116,60,39,0
617.25116,617.32654,62,35,0
617.32654,617.4019,60,39,0
617.4019,617.47784,62,36,0
617.47784,617.58527,60,39,0
617.58527,617.7141,58,35,0
617.7141,617.89636,60,35,0
617.1758,617.89636,53,52,0
617.89636,618.87994,60,40,0
617.89636,618.87994,57,34,0
617.89636,618.87994,53,34,0
618.87994,620.21326,57,39,0
618.87994,620.21326,60,47,0
618.87994,620.21326,53,39,0
621.556,621.68695,55,37,0
621.66516,621.7961,53,33,0
621.77423,621.90515,51,37,0
621.88336,622.0142,50,33,0
621.99243,622.12726,48,33,0
622.1015,622.2303,47,33,0
622.2303,622.67804,51,39,0
622.89465,623.0253,67,37,0
623.0035,623.1349,65,33,0
623.1129,623.2449,63,37,0
623.22284,623.35535,62,33,0
623.3332,623.4696,60,33,0
623.44464,623.592,59,33,0
623.56964,623.6998,67,39,0
623.67834,623.8075,65,39,0
623.7859,623.9154,63,40,0
623.8938,624.0236,62,40,0
624.00195,624.132,60,41,0
624.1103,624.2407,58,42,0
624.219,624.34973,57,44,0
624.32794,624.459,55,45,0
624.4371,624.5685,53,46,0
624.5466,624.67944,51,47,0
624.65704,624.7914,50,48,0
624.769,624.90344,48,49,0
624.88104,624.9927,46,50,0
624.9927,625.1048,45,52,0
625.1048,625.2174,43,53,0
625.2174,625.3307,41,55,0
625.3307,625.4445,39,56,0
625.4445,625.55896,38,57,0
625.55896,625.6727,36,60,0
625.6727,625.7855,34,61,0
625.7855,625.8973,33,64,0
625.8973,626.00806,31,67,0
626.00806,626.1179,29,71,0
626.1179,626.2267,28,75,0
626.2267,626.4433,29,83,0
626.6599,626.73315,45,79,0
626.73315,626.8062,46,56,0
626.8062,626.87866,45,61,0
626.87866,626.9507,46,53,0
626.9507,627.02216,45,59,0
627.02216,627.0931,46,52,0
627.0931,627.164,45,57,0
627.164,627.2349,46,52,0
627.2349,627.30634,45,55,0
627.30634,627.3604,46,50,0
627.3604,627.415,45,58,0
627.415,627.47,43,56,0
627.47,627.5255,45,63,0
627.5255,627.7429,46,68,0
627.9603,628.17773,31,69,0
628.3951,628.4683,47,79,0
628.4683,628.5414,48,56,0
628.5414,628.6139,47,61,0
628.6139,628.6859,48,53,0
628.6859,628.7573,47,59,0
628.7573,628.82825,48,52,0
628.82825,628.8992,47,57,0
628.8992,628.9701,48,52,0
628.9701,629.0415,47,55,0
629.0415,629.0956,48,50,0
629.0956,629.15015,47,58,0
629.15015,629.2052,45,52,0
629.2052,629.26074,47,61,0
629.26074,629.4781,48,68,0
629.6955,629.9129,33,69,0
630.1303,630.20355,49,79,0
630.20355,630.27655,50,56,0
630.27655,630.34906,49,61,0
630.34906,630.4211,50,53,0
630.4211,630.49255,49,59,0
630.49255,630.5635,50,52,0
630.5635,630.6344,49,57,0
630.6344,630.7053,50,52,0
630.7053,630.7767,49,55,0
630.7767,630.8308,50,50,0
630.8308,630.8853,49,58,0
630.8853,630.94037,47,54,0
630.94037,630.9959,49,61,0
630.9959,631.2133,50,68,0
631.4307,631.6481,34,69,0
631.8655,631.9387,50,79,0
631.9387,632.0118,51,56,0
632.0118,632.0842,50,61,0
632.0842,632.15625,51,53,0
632.15625,632.2277,50,59,0
632.2277,632.29865,51,52,0
632.29865,632.36957,50,57,0
632.36957,632.4405,51,52,0
632.4405,632.5119,50,55,0
632.5119,632.566,51,50,0
632.566,632.62054,50,58,0
632.62054,632.67554,48,53,0
632.67554,632.7311,50,54,0
632.7311,632.9485,51,68,0
633.1659,633.3833,36,69,0
633.60065,633.6739,52,79,0
633.6739,633.74695,53,56,0
633.74695,633.81946,52,61,0
633.81946,633.8915,53,53,0
633.8915,633.9629,52,59,0
633.9629,634.0338,53,52,0
634.0338,634.10474,52,57,0
634.10474,634.17566,53,52,0
634.17566,634.2471,52,55,0
634.2471,634.30115,53,50,0
634.30115,634.3557,52,56,0
634.3557,634.4107,50,54,0
634.4107,634.4663,52,59,0
634.4663,634.68365,53,68,0
634.90106,635.11847,38,69,0
635.3359,635.4091,54,79,0
635.4091,635.4821,55,56,0
635.4821,635.5546,54,61,0
635.5546,635.62665,55,53,0
635.62665,635.6981,54,59,0
635.6981,635.76904,55,52,0
635.76904,635.83997,54,57,0
635.83997,635.9109,55,52,0
635.9109,635.98224,54,55,0
635.98224,636.0363,55,50,0
636.0363,636.0909,54,54,0
636.0909,636.14594,52,49,0
636.14594,636.2015,54,54,0
636.2015,636.4189,55,68,0
636.6362,636.85364,39,69,0
637.07104,637.7232,53,71,0
637.07104,637.7232,65,84,0
637.07104,637.7232,63,71,0
637.07104,637.7232,60,71,0
637.9406,638.5928,58,87,0
637.9406,638.5928,46,73,0
637.9406,638.5928,50,73,0
637.9406,638.5928,53,73,0
638.8102,639.46234,41,67,0
638.8102,639.46234,53,79,0
638.8102,639.46234,51,67,0
638.8102,639.46234,48,67,0
640.1145,641.85364,46,87,0
640.1145,641.85364,34,73,0
640.1145,641.85364,38,73,0
640.1145,641.85364,41,73,0
