start_time,end_time,note_value,velocity,instrument_program_number
2.764977,3.110599,67,38,0
3.110599,3.2258065,68,36,0
3.2258065,3.4562213,67,39,0
3.4562213,3.686636,65,36,0
3.686636,3.9170508,67,40,0
3.9170508,4.1666346,68,36,0
4.1666346,5.5385857,69,44,0
5.5385857,7.2535243,70,51,0
7.2535243,7.3678536,72,39,0
7.3678536,7.5897474,70,49,0
7.5897474,7.8116407,69,42,0
7.8116407,8.033534,70,51,0
8.033534,8.279034,71,46,0
8.959821,9.014887,72,39,0
8.279034,9.069953,71,50,0
9.014887,9.069953,71,33,0
9.069953,9.125019,69,41,0
9.125019,9.180085,71,37,0
9.180085,9.510481,74,53,0
9.510481,9.620613,72,44,0
9.620613,11.335552,65,55,0
11.335552,11.449882,67,39,0
11.449882,11.678539,65,46,0
11.678539,11.907198,64,42,0
11.907198,12.135857,65,49,0
12.135857,12.377402,67,46,0
12.377402,13.965906,68,55,0
13.965906,14.192835,67,47,0
14.192835,14.419764,65,48,0
14.419764,14.646692,64,44,0
14.646692,14.873622,65,49,0
14.873622,15.097169,67,44,0
15.097169,15.320716,68,50,0
15.320716,15.544263,70,45,0
15.544263,15.76781,72,54,0
15.76781,15.991357,71,45,0
15.991357,16.214903,72,48,0
16.214903,16.464487,68,39,0
16.464487,17.826061,66,58,0
17.826061,19.414564,67,55,0
19.414564,19.634829,63,55,0
19.634829,19.855093,67,59,0
19.855093,20.075357,70,62,0
20.075357,20.295622,75,66,0
20.295622,20.539127,79,69,0
20.539127,22.34093,82,72,0
22.34093,22.79138,79,69,0
22.79138,23.24183,75,65,0
23.24183,23.692282,70,65,0
23.692282,24.142733,67,68,0
24.142733,24.60427,63,66,0
24.60427,25.964909,60,72,0
25.964909,27.742687,84,72,0
27.742687,27.964909,82,67,0
27.964909,28.187132,80,61,0
28.187132,28.409353,79,67,0
28.409353,28.648485,77,60,0
28.670223,29.128239,77,67,0
29.128239,30.451769,75,60,0
30.451769,30.892944,75,56,0
30.892944,31.334122,75,54,0
31.334122,31.391373,75,53,0
31.391373,31.448626,77,43,0
31.448626,31.505877,75,54,0
31.505877,31.56313,77,46,0
31.56313,31.62038,75,52,0
31.62038,31.677633,77,44,0
31.677633,31.715801,75,51,0
31.715801,31.75397,74,43,0
31.75397,31.792137,75,43,0
31.792137,32.23009,77,54,0
32.23009,32.706284,74,47,0
32.706284,33.15741,75,47,0
33.15741,33.55157,70,43,0
33.595367,33.98953,70,43,0
34.033325,34.47128,70,49,0
34.47128,34.909237,72,41,0
34.909237,35.35368,68,32,0
35.35368,35.788464,67,43,0
35.788464,36.223244,68,37,0
35.35368,36.223244,63,36,0
36.223244,36.67779,65,32,0
36.223244,36.67779,62,27,0
36.67779,37.142906,63,47,0
37.142906,37.539967,58,38,0
37.584084,37.981144,58,38,0
38.02526,38.08251,58,34,0
38.08251,38.139763,60,27,0
38.139763,38.197018,58,34,0
38.197018,38.25427,60,29,0
38.25427,38.31152,58,33,0
38.31152,38.36877,60,27,0
38.36877,38.40694,58,32,0
38.40694,38.445107,57,27,0
38.445107,38.483276,58,27,0
38.483276,38.92123,60,34,0
38.92123,39.359646,56,28,0
39.359646,39.416897,55,34,0
39.416897,39.474148,56,27,0
39.474148,39.531403,55,34,0
39.531403,39.588654,56,29,0
39.588654,39.645905,55,33,0
39.645905,39.703156,56,27,0
39.703156,39.741325,55,32,0
39.741325,39.77949,53,27,0
39.77949,39.81724,55,27,0
39.81724,40.2552,56,34,0
39.359646,40.2552,51,28,0
40.246075,40.703674,53,28,0
40.713215,41.629246,51,28,0
41.629246,42.113117,53,39,0
41.629246,42.113117,50,33,0
42.113117,43.02221,51,28,0
43.02221,43.498398,53,40,0
43.02221,43.498398,50,34,0
43.498398,44.41443,51,28,0
44.41443,45.03943,58,43,0
44.41443,45.03943,53,36,0
44.41443,45.03943,50,36,0
45.09625,46.990986,58,28,0
45.09625,46.990986,53,23,0
45.09625,46.990986,50,23,0
46.990986,48.254143,51,25,0
48.885723,49.36959,55,32,0
49.36959,49.853462,58,37,0
49.853462,50.317173,63,42,0
50.337334,52.233665,67,45,0
50.337334,52.233665,55,38,0
50.337334,52.233665,58,38,0
50.337334,52.233665,63,38,0
52.253826,52.70658,67,43,0
52.253826,52.70658,63,36,0
52.253826,52.70658,58,36,0
52.72627,53.189976,67,42,0
52.72627,53.189976,63,35,0
53.210136,53.266956,67,34,0
53.266956,53.323776,68,27,0
53.323776,53.380592,67,34,0
53.380592,53.437412,68,29,0
53.437412,53.49423,67,33,0
53.49423,53.55105,68,27,0
53.55105,53.588924,67,32,0
53.588924,53.626804,65,27,0
53.626804,53.664684,67,27,0
53.664684,54.143806,68,45,0
53.664684,54.143806,65,38,0
53.210136,54.143806,63,23,0
54.143806,54.696693,65,38,0
54.143806,54.696693,62,32,0
54.143806,54.696693,58,32,0
54.72073,56.149303,65,34,0
54.72073,56.149303,62,28,0
56.149303,56.625492,63,32,0
54.72073,56.625492,58,28,0
57.577873,58.061745,58,43,0
57.577873,58.061745,55,36,0
58.061745,58.545616,63,48,0
58.061745,58.545616,58,40,0
58.545616,59.009327,67,54,0
58.545616,59.029488,63,45,0
60.94598,61.377083,75,70,0
61.41842,61.85995,75,64,0
61.90229,62.35111,75,67,0
59.029488,62.374733,70,60,0
59.029488,62.374733,67,51,0
62.374733,62.83073,75,57,0
62.374733,62.853855,69,44,0
62.374733,62.853855,66,44,0
62.853855,63.321068,75,64,0
62.853855,63.32517,70,50,0
62.853855,63.32517,66,50,0
63.34566,64.29804,66,45,0
64.29804,64.77423,65,38,0
63.34566,64.77423,75,68,0
63.34566,64.77423,72,45,0
65.23935,65.687775,66,34,0
65.687775,66.14233,65,29,0
65.23935,66.14233,75,40,0
65.23935,66.14233,72,34,0
66.60744,67.05587,66,34,0
67.05587,67.506996,65,27,0
66.60744,67.506996,73,40,0
66.60744,67.506996,70,34,0
67.975746,68.42085,73,34,0
68.42085,68.87198,71,34,0
67.975746,68.87198,66,40,0
67.975746,68.87198,63,34,0
69.33352,69.77796,71,34,0
69.77796,70.22572,70,34,0
69.33352,70.22572,67,40,0
69.33352,70.22572,61,34,0
70.69084,71.13595,70,34,0
71.13595,71.59748,69,34,0
70.69084,71.59748,63,40,0
70.69084,71.59748,60,34,0
71.59748,72.52056,70,34,0
71.59748,72.52056,62,34,0
74.38136,75.29739,74,57,0
75.29739,75.514786,72,48,0
75.514786,75.75479,70,47,0
75.75479,76.21281,70,54,0
75.75479,76.65173,63,35,0
76.21281,76.67082,69,47,0
75.75479,76.67082,60,30,0
76.67082,76.89141,67,51,0
76.67082,76.89141,58,43,0
76.89141,77.10458,65,43,0
76.89141,77.10458,57,36,0
76.67082,77.10458,63,37,0
77.12396,78.04,57,48,0
78.04,78.26222,55,45,0
78.26222,78.47875,53,38,0
77.12396,78.95998,65,50,0
78.49844,79.19075,53,51,0
79.19075,79.42152,51,38,0
78.95998,79.42152,67,44,0
79.42152,79.65228,50,38,0
79.65228,79.88666,51,38,0
79.42152,79.88666,69,46,0
77.12396,79.88666,63,35,0
79.88666,80.11567,70,51,0
80.11567,80.192,72,44,0
80.192,80.26834,70,38,0
80.26834,80.34467,69,38,0
80.34467,80.573685,70,51,0
80.573685,80.80269,72,47,0
79.88666,80.80269,50,51,0
80.80269,81.0317,74,49,0
81.0317,81.21027,75,50,0
81.21027,81.2698,74,48,0
81.2698,82.643845,77,57,0
82.643845,82.87285,76,47,0
82.87285,83.10186,77,52,0
83.10186,83.330864,79,53,0
83.330864,83.559875,77,51,0
83.559875,83.78888,75,53,0
83.78888,84.00888,74,51,0
84.02888,84.48689,74,57,0
84.02888,84.92583,67,35,0
84.48689,84.94491,72,47,0
84.02888,84.94491,63,30,0
84.94491,85.1655,65,43,0
84.94491,85.1655,70,51,0
84.94491,85.1655,62,36,0
85.1655,85.38375,63,36,0
85.1655,85.38375,69,43,0
85.1655,85.38375,60,30,0
85.403595,86.30744,63,35,0
85.403595,86.326675,69,50,0
85.403595,86.326675,60,40,0
86.326675,86.55055,67,51,0
86.326675,86.55055,58,45,0
86.55055,86.76709,57,38,0
86.326675,86.76709,63,35,0
86.55055,86.78677,65,43,0
86.78677,87.01754,57,51,0
87.01754,87.248314,55,38,0
86.78677,87.248314,65,54,0
87.248314,87.47908,53,38,0
87.47908,87.70985,51,38,0
87.248314,87.70985,67,44,0
87.70985,87.94062,50,38,0
87.94062,88.18062,48,38,0
87.70985,88.18062,69,46,0
86.78677,88.18062,63,35,0
88.18062,88.64216,70,54,0
88.18062,88.64216,62,54,0
88.64216,89.11835,73,40,0
89.11835,89.594536,74,44,0
90.056076,90.532265,76,41,0
90.532265,91.00846,77,44,0
91.46648,91.93159,81,40,0
91.93159,92.396706,82,44,0
92.858246,93.33069,78,41,0
93.33069,93.80312,79,44,0
94.26466,94.74086,74,40,0
94.74086,95.21705,75,42,0
95.67859,96.151024,71,38,0
96.151024,96.62347,72,42,0
97.08501,98.24376,77,59,0
98.24376,98.36021,79,60,0
98.36021,98.476,81,62,0
98.476,98.590866,82,64,0
98.590866,98.70511,84,66,0
98.70511,98.81844,86,68,0
98.81844,98.93091,87,70,0
98.93091,99.84694,89,72,0
99.84694,100.31205,87,70,0
100.31205,100.78449,84,66,0
100.78449,101.35702,82,58,0
101.35702,101.47152,81,50,0
101.47152,101.59486,86,57,0
101.58399,101.70369,84,54,0
101.69273,101.81334,82,53,0
101.80231,101.923836,81,51,0
101.91272,102.03518,79,49,0
102.02399,102.147385,77,47,0
102.13611,102.26048,76,53,0
102.24912,102.37165,77,51,0
102.36081,102.48044,82,59,0
102.46949,102.590065,81,54,0
102.57903,102.70052,79,54,0
102.68941,102.81184,77,52,0
102.800644,102.92402,75,50,0
102.91274,103.03707,74,50,0
103.0257,103.151024,73,52,0
103.13957,103.26588,74,46,0
103.25434,103.377556,79,56,0
103.366844,103.48507,77,55,0
103.47428,103.59339,75,54,0
103.58252,103.70254,74,52,0
103.69158,103.81276,72,50,0
103.801735,103.92384,70,48,0
103.912735,104.03583,69,46,0
104.02459,104.14895,70,45,0
104.13759,104.26036,75,52,0
104.2495,104.369446,74,51,0
104.3585,104.47978,72,49,0
104.468666,104.59136,70,47,0
104.58017,104.704315,69,44,0
104.692955,104.82088,67,42,0
104.80868,104.93063,64,39,0
104.93063,105.05258,65,39,0
105.05258,105.173874,66,40,0
105.173874,105.294846,67,41,0
105.294846,105.41572,68,42,0
105.41572,105.53571,69,42,0
105.53571,105.655716,70,43,0
105.655716,105.77519,71,44,0
105.77519,105.89424,72,45,0
105.89424,106.01329,73,45,0
106.01329,106.13142,74,46,0
106.13142,106.24952,75,47,0
106.24952,106.36725,76,49,0
106.36725,106.484436,77,50,0
106.484436,106.60162,78,52,0
106.60162,106.718025,79,54,0
106.718025,106.834305,80,56,0
106.834305,106.95032,81,58,0
106.95032,107.0657,82,60,0
107.0657,107.18097,83,61,0
107.18097,107.272064,84,64,0
107.272064,107.364006,85,65,0
107.364006,107.4568,86,67,0
107.4568,107.560356,87,69,0
107.560356,107.693695,88,70,0
107.693695,108.25845,89,80,0
108.25845,108.37209,87,69,0
108.37209,108.48573,84,66,0
108.48573,108.599365,81,63,0
108.599365,108.72232,77,60,0
108.72232,108.84527,75,57,0
108.84527,108.968216,72,54,0
108.968216,109.09117,69,51,0
109.09117,109.99342,70,56,0
111.34681,112.23253,73,67,0
112.23253,112.683655,74,54,0
111.34681,112.683655,70,56,0
112.683655,113.03522,75,59,0
113.03522,113.152405,72,53,0
112.683655,113.152405,69,50,0
113.152405,114.05466,70,56,0
113.152405,114.05466,62,46,0
115.40804,116.29376,61,60,0
116.29376,116.74489,62,48,0
115.40804,116.74489,58,50,0
116.74489,117.09645,63,53,0
117.09645,117.21456,60,43,0
116.74489,117.21456,57,45,0
117.21456,117.687004,58,48,0
117.687004,118.35864,63,51,0
118.35864,118.58253,60,44,0
117.687004,118.58253,57,43,0
118.58253,119.0664,58,48,0
119.0664,119.75342,63,51,0
119.75342,119.98243,60,44,0
119.0664,119.98243,57,43,0
119.98243,120.48243,58,48,0
120.48243,120.716805,63,59,0
120.716805,120.95118,62,55,0
120.48243,120.95118,57,50,0
120.95118,121.19118,63,69,0
121.19118,121.4853,60,62,0
120.95118,121.4853,57,51,0
121.4853,121.595184,59,39,0
121.595184,121.70508,60,38,0
121.70508,121.814964,62,32,0
121.814964,123.33012,57,35,0
121.814964,123.33012,60,42,0
123.33012,124.54224,58,39,0
129.45836,129.81268,59,33,0
129.81268,129.9308,60,28,0
129.9308,130.15807,59,34,0
130.15807,130.38535,57,29,0
130.38535,130.62344,59,38,0
130.62344,130.87137,60,37,0
130.87137,132.29994,61,34,0
132.29994,133.25232,62,34,0
130.87137,133.25232,59,25,0
130.87137,133.25232,56,25,0
130.87137,133.25232,53,25,0
134.08566,134.20377,63,28,0
134.20377,134.43105,62,38,0
134.43105,134.65831,61,33,0
134.65831,134.88908,62,39,0
134.88908,135.13298,63,41,0
135.13298,136.55031,64,34,0
136.55031,137.4952,65,34,0
135.13298,137.4952,59,25,0
135.13298,137.4952,56,25,0
135.13298,137.4952,62,25,0
138.32196,138.44006,60,38,0
138.32196,138.44006,72,45,0
138.44006,138.66908,71,52,0
138.44006,138.66908,59,44,0
138.66908,138.89809,69,51,0
138.66908,138.89809,57,43,0
138.89809,139.13065,71,59,0
138.89809,139.13065,59,50,0
139.13065,139.37454,60,51,0
139.13065,139.37454,72,61,0
139.37454,140.78079,61,59,0
139.37454,140.78079,73,70,0
140.78079,141.13235,74,49,0
140.78079,141.13235,62,41,0
141.13235,141.24954,75,52,0
141.24954,141.48032,74,57,0
141.48032,141.71109,73,52,0
141.71109,141.93665,74,52,0
141.93665,142.16222,75,52,0
142.16222,142.38443,77,58,0
142.38443,142.60666,79,55,0
142.60666,142.82887,80,62,0
142.82887,143.06888,79,55,0
143.06888,143.29788,80,66,0
143.29788,143.53789,77,60,0
143.53789,144.94414,77,70,0
144.94414,145.2957,76,49,0
144.94414,145.2957,67,41,0
145.2957,145.41289,68,48,0
145.41289,145.64366,67,52,0
145.64366,145.87442,66,48,0
145.87442,146.09999,67,48,0
146.09999,146.32556,69,48,0
146.32556,146.54778,70,55,0
146.54778,146.77,72,50,0
146.77,146.99222,73,64,0
146.99222,147.23222,72,60,0
147.23222,147.46123,73,68,0
147.46123,147.70123,70,64,0
147.70123,149.10748,70,70,0
149.10748,149.45905,69,41,0
149.10748,149.45905,72,49,0
149.45905,149.57623,73,48,0
149.57623,149.80699,72,52,0
149.80699,150.03777,71,48,0
150.03777,150.26334,72,48,0
150.26334,150.48889,74,48,0
150.48889,150.71112,75,60,0
150.71112,150.93333,77,56,0
150.93333,151.15556,78,64,0
151.15556,151.39557,77,58,0
151.39557,151.62457,78,67,0
151.62457,151.86456,75,64,0
151.86456,153.27081,75,70,0
153.27081,153.62238,74,49,0
153.27081,153.62238,65,41,0
153.62238,153.73956,66,48,0
153.73956,153.97034,65,52,0
153.97034,154.20111,64,48,0
154.20111,154.42667,65,48,0
154.42667,154.65224,67,48,0
154.65224,154.87447,68,60,0
154.87447,155.09668,70,54,0
155.09668,155.31891,71,64,0
155.31891,155.5589,70,56,0
155.5589,155.78792,71,67,0
155.78792,156.02791,68,59,0
156.02791,157.43416,68,70,0
157.43416,157.78572,70,49,0
157.78572,157.90291,71,48,0
157.90291,158.13368,70,53,0
158.13368,158.36446,69,49,0
158.36446,158.59001,70,50,0
158.59001,158.81558,71,50,0
158.81558,159.0378,73,64,0
157.43416,159.2415,67,41,0
159.0378,159.26003,75,60,0
159.26003,159.48224,76,70,0
159.26003,159.67424,67,45,0
159.48224,159.72224,75,64,0
159.72224,159.95125,76,75,0
159.95125,160.19125,73,69,0
159.72224,160.19125,67,45,0
160.19125,160.41852,71,49,0
160.41852,160.6458,73,46,0
160.6458,160.86803,75,52,0
160.86803,161.09024,73,45,0
160.19125,161.09024,68,49,0
161.09024,161.31247,75,51,0
161.31247,161.54684,71,48,0
161.54684,161.77411,70,49,0
161.77411,162.00139,71,44,0
162.00139,162.2236,73,52,0
162.2236,162.44583,71,46,0
162.44583,162.66805,73,49,0
162.66805,162.9006,70,42,0
162.9006,163.12617,68,49,0
163.12617,163.35173,70,45,0
163.35173,163.57396,71,49,0
163.35173,163.77766,75,60,0
163.57396,163.79619,70,45,0
163.79619,164.0184,71,49,0
164.0184,164.25278,68,45,0
163.79619,164.25278,75,60,0
164.25278,164.48006,67,44,0
164.48006,164.70732,68,41,0
164.70732,164.92955,70,46,0
164.92955,165.15176,68,40,0
164.25278,165.15176,76,65,0
165.15176,165.374,70,45,0
165.374,165.60837,67,43,0
165.15176,165.60837,75,60,0
165.60837,165.83563,68,44,0
165.83563,166.06291,70,39,0
166.06291,166.28514,71,46,0
166.28514,166.50735,70,41,0
166.50735,166.72958,71,44,0
166.72958,166.96214,68,37,0
166.96214,167.1877,65,44,0
167.1877,167.41327,66,40,0
167.41327,167.63548,68,44,0
167.41327,167.83919,74,60,0
167.63548,167.85771,66,40,0
167.85771,168.07993,68,44,0
168.07993,168.3143,65,40,0
167.85771,168.3143,74,60,0
168.3143,168.54158,63,44,0
168.54158,168.76886,65,41,0
168.76886,168.99107,66,46,0
168.99107,169.2133,65,40,0
168.3143,169.2133,75,65,0
169.2133,169.43552,66,45,0
169.43552,169.66989,63,43,0
169.2133,169.66989,70,60,0
169.66989,169.89717,62,44,0
169.89717,170.12444,63,39,0
170.12444,170.34666,65,46,0
170.34666,170.56888,63,41,0
170.56888,170.7911,65,44,0
170.7911,171.02367,62,37,0
171.02367,171.24922,63,44,0
171.24922,171.4748,65,40,0
171.4748,171.69702,66,44,0
171.4748,171.90071,70,60,0
171.69702,171.91924,65,40,0
171.91924,172.14146,66,44,0
172.14146,172.37584,63,40,0
171.91924,172.37584,70,60,0
172.37584,172.6031,65,44,0
172.6031,172.83038,66,41,0
172.83038,173.0526,68,46,0
173.0526,173.27483,66,40,0
172.37584,173.27483,71,65,0
173.27483,173.49704,68,45,0
173.49704,173.73141,65,43,0
173.27483,173.73141,70,60,0
173.73141,173.9587,66,44,0
173.9587,174.18597,68,39,0
174.18597,174.40819,70,46,0
174.40819,174.63042,68,41,0
174.63042,174.85263,70,44,0
174.85263,175.08519,66,37,0
175.08519,175.31076,63,44,0
175.31076,175.53632,65,40,0
175.53632,175.75854,66,44,0
175.53632,175.96225,69,60,0
175.75854,175.98076,65,40,0
175.98076,176.20299,66,44,0
176.20299,176.43736,63,40,0
175.98076,176.43736,69,60,0
176.43736,176.66463,62,44,0
176.66463,176.8919,63,41,0
176.8919,177.11414,65,46,0
177.11414,177.33635,63,40,0
177.33635,177.55858,62,45,0
177.55858,177.79295,63,43,0
177.79295,178.02022,65,44,0
178.02022,178.2475,66,39,0
178.2475,178.46971,68,46,0
178.46971,178.69194,66,41,0
178.69194,178.91415,65,44,0
178.91415,179.14671,68,37,0
179.14671,179.37228,66,44,0
179.37228,179.59785,65,40,0
176.43736,179.59785,70,65,0
179.59785,179.82007,63,44,0
179.59785,180.02377,69,60,0
179.82007,180.0423,65,40,0
180.0423,180.26451,66,44,0
180.26451,180.49889,63,40,0
180.0423,180.49889,69,60,0
180.49889,180.72617,58,44,0
180.72617,180.95343,60,41,0
180.95343,181.17566,62,46,0
181.17566,181.39787,60,40,0
181.39787,181.6201,58,45,0
181.6201,181.85448,60,43,0
181.85448,182.08176,62,44,0
182.08176,182.30902,63,39,0
182.30902,182.53125,65,46,0
182.53125,182.75346,63,41,0
182.75346,182.9757,62,44,0
182.9757,183.20825,65,37,0
183.20825,183.4338,63,44,0
183.4338,183.65938,62,40,0
180.49889,183.65938,70,65,0
183.65938,183.88159,60,44,0
183.65938,184.0853,69,60,0
183.88159,184.10382,62,40,0
184.10382,184.32603,63,44,0
184.32603,184.56041,60,40,0
184.10382,184.56041,69,60,0
184.56041,184.79118,58,44,0
184.79118,185.02196,60,37,0
185.02196,185.25273,62,44,0
185.25273,185.48349,61,38,0
185.48349,185.71426,62,41,0
185.71426,185.95236,58,34,0
185.95236,186.2062,62,44,0
186.18312,186.43698,64,39,0
186.4139,186.66774,65,40,0
186.64467,186.89851,64,33,0
186.87544,187.12982,65,39,0
187.1062,187.36533,62,34,0
187.34242,187.59433,65,47,0
187.57143,187.82333,67,43,0
187.80045,188.05235,68,50,0
188.02945,188.28136,67,42,0
188.25845,188.51225,68,53,0
188.48746,188.75795,65,37,0
188.7354,188.98352,68,41,0
188.96097,189.20908,71,36,0
189.18652,189.43571,72,41,0
189.4121,189.67087,71,37,0
189.64832,189.89642,74,41,0
189.87387,190.122,72,36,0
190.09944,190.34756,70,41,0
190.325,190.57312,68,36,0
190.55057,190.79869,67,41,0
190.77612,191.02425,65,35,0
191.0017,191.25052,64,35,0
191.22726,191.48254,65,29,0
191.45982,191.71053,67,41,0
191.68709,191.94453,65,36,0
191.92146,192.17531,68,41,0
192.15224,192.40643,65,32,0
192.383,192.6428,60,38,0
192.61737,192.87161,62,32,0
192.87161,193.79327,63,38,0
195.6366,195.98221,67,38,0
195.98221,196.09743,68,36,0
196.09743,196.32784,67,39,0
196.32784,196.55826,65,36,0
196.55826,196.78867,67,40,0
196.78867,197.03825,68,36,0
197.03825,198.4102,69,44,0
198.4102,200.12514,70,51,0
200.12514,200.23947,72,39,0
200.23947,200.46136,70,49,0
200.46136,200.68326,69,42,0
200.68326,200.90515,70,51,0
200.90515,201.15065,71,46,0
201.83144,201.8865,72,39,0
201.15065,201.94157,71,50,0
201.8865,201.94157,71,33,0
201.94157,201.99663,69,41,0
201.99663,202.0517,71,37,0
202.0517,202.3821,74,53,0
202.3821,202.49223,72,44,0
202.49223,204.20717,65,55,0
204.20717,204.3215,67,39,0
204.3215,204.55016,65,46,0
204.55016,204.77881,64,42,0
204.77881,205.00748,65,49,0
205.00748,205.24902,67,46,0
205.24902,206.72406,68,55,0
206.72406,206.83752,67,47,0
206.83752,206.95099,65,48,0
206.95099,207.06445,64,48,0
207.06445,207.17792,65,49,0
207.17792,207.29138,67,50,0
207.29138,207.40485,68,50,0
207.40485,207.51831,70,51,0
207.51831,207.63177,72,52,0
207.63177,207.74524,74,51,0
207.74524,207.85701,75,53,0
207.85701,207.96878,76,54,0
207.96878,208.08055,77,56,0
208.08055,208.19234,79,57,0
208.19234,208.30411,80,59,0
208.30411,208.41588,82,60,0
208.41588,208.52765,84,63,0
208.52765,208.63942,83,59,0
208.63942,208.7512,86,63,0
208.7512,208.86298,84,61,0
208.86298,208.97475,82,60,0
208.97475,209.08652,80,58,0
209.08652,209.2113,79,56,0
209.2113,209.3361,77,53,0
209.3361,210.69768,78,58,0
210.69768,212.28618,79,55,0
212.28618,212.50644,63,55,0
212.50644,212.72672,67,59,0
212.72672,212.94698,70,62,0
212.94698,213.16724,75,66,0
213.16724,213.41074,79,69,0
213.41074,214.98732,82,72,0
214.98732,215.21254,78,55,0
215.21254,215.43777,79,62,0
215.43777,215.663,74,57,0
215.663,215.88821,75,64,0
215.88821,216.11345,69,57,0
216.11345,216.33867,70,66,0
216.33867,216.5639,66,57,0
216.5639,216.78912,67,68,0
216.78912,217.01434,62,59,0
217.01434,217.24512,63,69,0
217.24512,217.47589,67,57,0
217.47589,217.93742,67,69,0
217.93742,219.27783,60,63,0
219.27783,220.60135,72,69,0
220.60135,220.7067,84,69,0
220.7067,220.81343,83,62,0
220.81343,220.9217,86,69,0
220.9217,221.03159,84,68,0
221.03159,221.14308,82,67,0
221.14308,221.25626,80,65,0
221.25626,221.37625,79,64,0
221.37625,221.47626,77,62,0
221.49626,221.95427,77,67,0
221.95427,223.2778,75,60,0
223.2778,223.71898,75,56,0
223.71898,224.16016,75,54,0
224.16016,224.2174,75,53,0
224.2174,224.27466,77,43,0
224.27466,224.33191,75,54,0
224.33191,224.38916,77,46,0
224.38916,224.44641,75,52,0
224.44641,224.50366,77,44,0
224.50366,224.54184,75,51,0
224.54184,224.58,74,43,0
224.58,224.61816,75,43,0
224.61816,225.05612,77,54,0
225.05612,225.53232,74,47,0
225.53232,225.98344,75,47,0
225.98344,226.37761,70,43,0
226.4214,226.81557,70,43,0
226.85936,227.29732,70,49,0
227.29732,227.73528,72,41,0
227.73528,228.17972,68,32,0
228.17972,228.6145,67,43,0
228.6145,229.04929,68,37,0
228.17972,229.04929,63,36,0
229.04929,229.50383,62,27,0
229.04929,229.50383,65,32,0
229.50383,229.96895,63,47,0
229.96895,230.366,58,38,0
230.41011,230.80717,58,38,0
230.85129,230.90854,58,34,0
230.90854,230.9658,60,27,0
230.9658,231.02306,58,34,0
231.02306,231.0803,60,29,0
231.0803,231.13756,58,33,0
231.13756,231.19481,60,27,0
231.19481,231.23297,58,32,0
231.23297,231.27115,57,27,0
231.27115,231.30931,58,27,0
231.30931,231.74727,60,34,0
231.74727,232.18568,56,28,0
232.18568,232.24294,55,34,0
232.24294,232.30019,56,27,0
232.30019,232.35744,55,34,0
232.35744,232.41469,56,29,0
232.41469,232.47194,55,33,0
232.47194,232.52919,56,27,0
232.52919,232.56735,55,32,0
232.56735,232.60553,53,27,0
232.60553,232.64328,55,27,0
232.64328,233.08124,56,34,0
232.18568,233.08124,51,28,0
233.07211,233.52971,53,28,0
233.53925,233.98769,51,30,0
233.98769,234.43611,55,28,0
234.43611,234.89764,58,29,0
234.89764,235.35567,55,34,0
235.35567,235.81367,58,31,0
235.81367,236.28242,63,31,0
236.28242,236.73087,58,32,0
236.73087,237.17929,63,37,0
237.17929,237.62228,67,42,0
237.64154,239.48811,55,38,0
237.64154,239.48811,67,45,0
237.64154,239.48811,58,38,0
237.64154,239.48811,63,38,0
239.50827,239.95401,58,36,0
239.50827,239.95401,63,36,0
239.50827,239.95401,67,43,0
239.97339,240.4371,67,42,0
239.97339,240.4371,63,35,0
240.45726,240.51408,67,34,0
240.51408,240.57089,68,27,0
240.57089,240.62772,67,34,0
240.62772,240.68454,68,29,0
240.68454,240.74135,67,33,0
240.74135,240.79817,68,27,0
240.79817,240.83604,67,32,0
240.83604,240.87393,65,27,0
240.87393,240.9118,67,27,0
240.9118,241.39093,68,45,0
240.9118,241.39093,65,38,0
240.45726,241.39093,63,23,0
241.39093,241.94382,58,32,0
241.39093,241.94382,65,38,0
241.39093,241.94382,62,32,0
241.96785,243.3546,65,34,0
241.96785,243.3546,62,28,0
243.3546,243.81685,63,32,0
241.96785,243.81685,58,28,0
244.74135,245.21083,54,36,0
244.74135,245.21083,58,43,0
245.21083,245.68031,63,48,0
245.21083,245.68031,58,40,0
245.68031,246.13023,66,54,0
245.68031,246.1498,63,45,0
248.02443,248.44623,75,70,0
248.48668,248.9282,75,64,0
248.97055,249.4131,75,67,0
246.1498,249.43639,70,60,0
246.1498,249.43639,66,51,0
249.43639,249.8924,75,57,0
249.43639,249.91551,68,44,0
249.91551,250.38272,75,64,0
249.91551,250.38683,66,50,0
249.91551,250.38683,70,50,0
250.40732,251.3597,75,68,0
251.3597,251.83589,73,38,0
250.40732,251.83589,65,45,0
250.40732,251.83589,71,45,0
252.30101,252.74611,75,40,0
252.74611,253.20065,73,29,0
252.30101,253.20065,71,34,0
252.30101,253.20065,68,34,0
253.66577,254.11087,75,40,0
254.11087,254.562,73,27,0
253.66577,254.562,70,34,0
253.66577,254.562,66,34,0
255.02711,255.47223,73,40,0
255.47223,255.92336,71,27,0
255.02711,255.92336,63,34,0
255.02711,255.92336,68,34,0
256.38846,256.83356,71,40,0
256.83356,257.2847,70,27,0
256.38846,257.2847,66,34,0
256.38846,257.2847,61,34,0
257.74982,258.19427,70,40,0
257.74982,258.6266,65,34,0
258.19427,258.6454,68,27,0
257.74982,258.6454,59,34,0
258.6454,259.59778,59,68,0
259.59778,260.07397,58,38,0
258.6454,260.07397,65,45,0
258.6454,260.07397,68,45,0
260.53906,260.9842,59,40,0
260.9842,261.43872,58,29,0
260.53906,261.43872,65,34,0
260.53906,261.43872,68,34,0
261.90384,262.34894,59,40,0
262.34894,262.80008,58,27,0
261.90384,262.80008,63,34,0
261.90384,262.80008,66,34,0
263.2652,263.70703,66,40,0
263.70703,264.15814,64,27,0
263.2652,264.15814,59,34,0
263.2652,264.15814,56,34,0
264.62326,265.0651,64,40,0
265.0651,265.5162,63,27,0
264.62326,265.5162,60,34,0
264.62326,265.5162,54,34,0
265.98132,266.42578,63,40,0
266.42578,266.8769,62,27,0
265.98132,266.8769,56,34,0
265.98132,266.8769,53,34,0
266.8769,267.8,55,34,0
266.8769,267.8,63,34,0
269.6608,270.5768,79,57,0
270.5768,270.79422,77,48,0
270.79422,271.0342,75,47,0
271.0342,271.49222,75,54,0
271.0342,271.93115,68,35,0
271.49222,271.95023,74,47,0
271.0342,271.95023,65,30,0
271.95023,272.17084,63,43,0
271.95023,272.17084,72,51,0
272.17084,272.384,62,36,0
272.17084,272.384,70,43,0
271.95023,272.384,68,37,0
272.40338,273.31943,62,48,0
273.31943,273.54163,60,45,0
273.54163,273.75818,58,38,0
272.40338,274.2394,70,50,0
273.77786,274.47015,58,51,0
274.47015,274.70093,56,38,0
274.2394,274.70093,72,44,0
274.70093,274.9317,55,38,0
274.9317,275.16608,56,38,0
274.70093,275.16608,74,46,0
272.40338,275.16608,68,35,0
275.16608,275.39508,75,51,0
275.39508,275.47144,77,44,0
275.47144,275.54776,75,38,0
275.54776,275.62408,74,38,0
275.62408,275.85312,75,51,0
275.85312,276.08212,77,47,0
275.16608,276.08212,55,51,0
276.08212,276.31113,79,49,0
276.31113,276.4897,80,50,0
276.4897,276.54922,79,48,0
276.54922,277.92325,82,57,0
277.92325,278.1544,81,47,0
278.1544,278.38028,82,52,0
278.38028,278.6062,84,53,0
278.6062,278.8321,82,51,0
278.8321,279.058,80,53,0
279.058,279.278,79,51,0
279.298,279.756,79,57,0
279.298,280.19495,72,35,0
279.756,280.21402,77,47,0
279.298,280.21402,68,30,0
280.21402,280.43463,67,36,0
280.21402,280.43463,75,51,0
280.21402,280.43463,70,43,0
280.43463,280.65286,68,36,0
280.43463,280.67273,65,30,0
280.43463,280.67273,74,43,0
280.67273,281.57657,68,35,0
280.67273,281.5958,74,50,0
280.67273,281.5958,65,40,0
281.5958,281.81967,72,51,0
281.5958,281.81967,63,45,0
281.81967,282.0362,62,38,0
281.5958,282.0362,68,35,0
281.81967,282.0559,70,43,0
282.0559,282.28665,62,51,0
282.28665,282.51743,60,38,0
282.0559,282.51743,70,54,0
282.51743,282.7482,58,38,0
282.7482,282.97897,56,38,0
282.51743,282.97897,72,44,0
282.97897,283.20975,55,38,0
283.20975,283.44974,53,38,0
282.97897,283.44974,74,46,0
282.0559,283.44974,68,35,0
283.44974,283.9113,67,54,0
283.44974,283.9113,75,54,0
283.9113,284.38748,78,40,0
284.38748,284.86365,79,44,0
285.3252,285.8014,81,41,0
285.8014,286.2776,82,44,0
286.7356,287.2007,86,40,0
287.2007,287.66583,87,44,0
288.12738,288.5998,83,41,0
288.5998,289.07224,84,44,0
289.53378,290.00998,71,40,0
290.00998,290.48618,72,42,0
290.9477,291.42014,64,38,0
291.42014,291.89258,65,42,0
292.35413,293.51288,70,59,0
293.51288,293.62933,72,60,0
293.62933,293.74512,74,62,0
293.74512,293.86,75,64,0
293.86,293.97424,77,66,0
293.97424,294.08755,79,68,0
294.08755,294.2,80,70,0
294.2,295.11606,82,72,0
295.11606,295.58118,80,70,0
295.58118,296.05362,77,66,0
296.05362,296.62613,75,58,0
296.62613,296.74063,74,50,0
296.74063,296.86398,79,57,0
296.85312,296.9728,77,54,0
296.96185,297.08246,75,53,0
297.07144,297.19296,74,51,0
297.18185,297.3043,72,49,0
297.29312,297.4165,70,47,0
297.40524,297.5296,69,53,0
297.51825,297.64078,70,51,0
297.6299,297.74957,75,59,0
297.73862,297.8592,74,54,0
297.84814,297.96964,72,54,0
297.95853,298.08096,70,52,0
298.06976,298.19315,68,50,0
298.18185,298.30618,67,50,0
298.29483,298.42014,66,52,0
298.4087,298.535,67,46,0
298.52347,298.64667,72,56,0
298.63596,298.75418,70,55,0
298.7434,298.86252,68,54,0
298.85165,298.97165,67,52,0
298.9607,299.08188,65,50,0
299.07086,299.19296,63,48,0
299.18185,299.30496,62,46,0
299.2937,299.41806,63,45,0
299.4067,299.52948,68,52,0
299.51862,299.63855,67,51,0
299.62762,299.7489,65,49,0
299.7378,299.86047,63,47,0
299.84927,299.97345,62,44,0
299.96207,300.09,60,42,0
300.0778,300.19974,57,39,0
300.19974,300.32172,58,39,0
300.32172,300.443,59,40,0
300.443,300.56396,60,41,0
300.56396,300.68484,61,42,0
300.68484,300.80484,62,42,0
300.80484,300.92484,63,43,0
300.92484,301.0443,64,44,0
301.0443,301.16336,65,45,0
301.16336,301.2824,66,45,0
301.2824,301.40054,67,46,0
301.40054,301.51865,68,47,0
301.51865,301.63638,69,49,0
301.63638,301.75357,70,50,0
301.75357,301.87076,71,52,0
301.87076,301.98715,72,54,0
301.98715,302.10342,73,56,0
302.10342,302.21942,74,58,0
302.21942,302.3348,75,60,0
302.3348,302.45007,76,61,0
302.45007,302.5412,77,64,0
302.5412,302.63312,78,65,0
302.63312,302.72592,79,67,0
302.72592,302.82947,80,69,0
302.82947,302.9628,81,70,0
302.9628,303.5276,82,80,0
303.5276,303.6412,80,69,0
303.6412,303.75485,77,66,0
303.75485,303.8685,74,63,0
303.8685,303.99142,70,60,0
303.99142,304.11438,68,57,0
304.11438,304.23734,65,54,0
304.23734,304.3603,62,51,0
304.3603,305.26254,63,56,0
306.61594,307.50165,78,67,0
307.50165,307.9528,79,54,0
306.61594,307.9528,75,56,0
307.9528,308.30435,80,59,0
308.30435,308.42154,77,53,0
307.9528,308.42154,74,50,0
308.42154,309.3238,75,56,0
308.42154,309.3238,67,48,0
310.67715,311.5629,66,60,0
311.5629,312.014,67,48,0
310.67715,312.014,63,50,0
312.014,312.36557,68,53,0
312.36557,312.48367,65,43,0
312.014,312.48367,62,45,0
312.48367,312.95612,63,48,0
312.95612,313.62778,68,51,0
313.62778,313.85165,65,44,0
312.95612,313.85165,62,43,0
313.85165,314.3355,63,48,0
314.3355,315.02255,68,51,0
315.02255,315.25156,65,44,0
314.3355,315.25156,62,43,0
315.25156,315.75156,63,48,0
315.75156,315.99347,68,60,0
315.75156,316.21527,56,50,0
315.99347,316.2354,67,56,0
316.2354,316.49405,68,66,0
316.2354,316.81757,56,49,0
316.49405,316.847,65,61,0
316.847,316.97043,64,35,0
316.97043,317.0939,65,34,0
317.0939,317.21735,67,28,0
317.21735,319.39127,65,37,0
317.21735,319.39127,56,31,0
319.39127,321.1304,63,27,0
319.39127,321.1304,55,27,0
0.0,0.41474655,58,22,0
0.0,0.41474655,55,18,0
0.0,0.41474655,51,18,0
0.4608295,0.8755761,58,18,0
0.4608295,0.8755761,55,15,0
0.4608295,0.8755761,51,15,0
0.921659,1.3364055,58,18,0
0.921659,1.3364055,55,15,0
0.921659,1.3364055,51,15,0
1.3824885,1.797235,58,20,0
1.3824885,1.797235,55,17,0
1.3824885,1.797235,51,17,0
1.843318,2.2580645,58,18,0
1.843318,2.2580645,55,15,0
1.843318,2.2580645,51,15,0
2.3041475,2.718894,58,18,0
2.3041475,2.718894,55,15,0
2.3041475,2.718894,51,15,0
2.764977,3.1797235,58,21,0
2.764977,3.1797235,55,18,0
2.764977,3.1797235,51,18,0
3.2258065,3.640553,58,18,0
3.2258065,3.640553,55,15,0
3.2258065,3.640553,51,15,0
3.686636,4.116718,58,18,0
3.686636,4.116718,55,15,0
3.686636,4.116718,51,15,0
4.1666346,4.57822,58,22,0
4.1666346,4.57822,55,18,0
4.1666346,4.57822,51,18,0
4.623952,5.0355372,58,18,0
4.623952,5.0355372,55,15,0
4.623952,5.0355372,51,15,0
5.081269,5.492854,58,18,0
5.081269,5.492854,55,15,0
5.081269,5.492854,51,15,0
5.5385857,5.950171,58,20,0
5.5385857,5.950171,55,17,0
5.5385857,5.950171,51,17,0
5.9959025,6.407488,58,18,0
5.9959025,6.407488,55,15,0
5.9959025,6.407488,51,15,0
6.45322,6.864805,58,18,0
6.45322,6.864805,55,15,0
6.45322,6.864805,51,15,0
6.910537,7.322122,58,21,0
6.910537,7.322122,55,18,0
6.910537,7.322122,51,18,0
7.3678536,7.767262,58,18,0
7.3678536,7.767262,55,15,0
7.3678536,7.767262,51,15,0
7.8116407,8.229934,58,18,0
7.8116407,8.229934,55,15,0
7.8116407,8.229934,51,15,0
8.279034,8.687506,58,22,0
8.279034,8.687506,56,18,0
8.279034,8.687506,50,18,0
8.732891,9.136032,58,18,0
8.732891,9.136032,56,15,0
8.732891,9.136032,50,15,0
9.180085,9.57656,58,18,0
9.180085,9.57656,56,15,0
9.180085,9.57656,50,15,0
9.620613,10.032199,58,20,0
9.620613,10.032199,56,17,0
9.620613,10.032199,50,17,0
10.07793,10.489515,58,18,0
10.07793,10.489515,56,15,0
10.07793,10.489515,50,15,0
10.535247,10.946833,58,18,0
10.535247,10.946833,56,15,0
10.535247,10.946833,50,15,0
10.992564,11.40415,58,21,0
10.992564,11.40415,56,18,0
10.992564,11.40415,50,18,0
11.449882,11.861466,58,18,0
11.449882,11.861466,56,15,0
11.449882,11.861466,50,15,0
11.907198,12.329094,58,18,0
11.907198,12.329094,56,15,0
11.907198,12.329094,50,15,0
12.377402,12.785875,58,22,0
12.377402,12.785875,53,18,0
12.377402,12.785875,50,18,0
12.377402,12.785875,56,18,0
12.831261,13.239733,58,18,0
12.831261,13.239733,53,15,0
12.831261,13.239733,50,15,0
12.831261,13.239733,56,15,0
13.285119,13.693591,58,18,0
13.285119,13.693591,53,15,0
13.285119,13.693591,50,15,0
13.285119,13.693591,56,15,0
13.7389765,14.147449,58,20,0
13.7389765,14.147449,53,17,0
13.7389765,14.147449,50,17,0
13.7389765,14.147449,56,17,0
14.192835,14.601307,58,18,0
14.192835,14.601307,53,15,0
14.192835,14.601307,50,15,0
14.192835,14.601307,56,15,0
14.646692,15.05246,58,18,0
14.646692,15.05246,53,15,0
14.646692,15.05246,50,15,0
14.646692,15.05246,56,15,0
15.097169,15.499554,58,21,0
15.097169,15.499554,53,18,0
15.097169,15.499554,50,18,0
15.097169,15.499554,56,18,0
15.544263,15.946648,58,18,0
15.544263,15.946648,53,15,0
15.544263,15.946648,50,15,0
15.544263,15.946648,56,15,0
15.991357,16.414572,58,18,0
15.991357,16.414572,53,15,0
15.991357,16.414572,50,15,0
15.991357,16.414572,56,15,0
16.464487,16.87296,58,22,0
16.464487,16.87296,56,18,0
16.464487,16.87296,51,18,0
16.918346,17.326818,58,18,0
16.918346,17.326818,56,15,0
16.918346,17.326818,51,15,0
17.372204,17.780676,58,18,0
17.372204,17.780676,56,15,0
17.372204,17.780676,51,15,0
17.826061,18.234533,58,20,0
17.826061,18.234533,55,17,0
17.826061,18.234533,51,17,0
18.27992,18.688393,58,18,0
18.27992,18.688393,55,15,0
18.27992,18.688393,51,15,0
18.733778,19.14225,58,18,0
18.733778,19.14225,55,15,0
18.733778,19.14225,51,15,0
19.187635,19.634829,51,36,0
19.634829,20.075357,46,40,0
20.075357,20.539127,44,43,0
20.539127,20.989578,43,48,0
20.989578,21.394983,51,35,0
20.989578,21.394983,46,29,0
20.989578,21.394983,43,29,0
21.44003,21.845434,51,35,0
21.44003,21.845434,46,29,0
21.44003,21.845434,43,29,0
21.89048,22.295885,51,35,0
21.89048,22.295885,46,29,0
21.89048,22.295885,43,29,0
22.34093,22.746336,51,32,0
22.34093,22.746336,46,27,0
22.34093,22.746336,43,27,0
22.79138,23.196787,51,32,0
22.79138,23.196787,46,27,0
22.79138,23.196787,43,27,0
23.24183,23.647236,51,35,0
23.24183,23.647236,46,29,0
23.24183,23.647236,43,29,0
23.692282,24.097687,51,30,0
23.692282,24.097687,46,25,0
23.692282,24.097687,43,25,0
24.142733,24.558117,51,30,0
24.142733,24.558117,46,25,0
24.142733,24.558117,43,25,0
24.60427,25.007256,51,38,0
24.60427,25.007256,48,31,0
24.60427,25.007256,44,31,0
25.052032,25.455017,51,33,0
25.052032,25.455017,48,27,0
25.052032,25.455017,44,27,0
25.499792,25.918398,51,33,0
25.499792,25.918398,48,27,0
25.499792,25.918398,44,27,0
25.964909,26.36491,52,38,0
25.964909,26.36491,48,31,0
25.964909,26.36491,44,31,0
26.409353,26.809353,52,33,0
26.409353,26.809353,48,27,0
26.409353,26.809353,44,27,0
26.853798,27.253798,52,33,0
26.853798,27.253798,48,27,0
26.853798,27.253798,44,27,0
27.298243,27.698242,53,38,0
27.298243,27.698242,48,31,0
27.298243,27.698242,44,31,0
27.742687,28.142687,53,30,0
27.742687,28.142687,48,25,0
27.742687,28.142687,44,25,0
28.187132,28.61805,53,30,0
28.187132,28.61805,48,25,0
28.187132,28.61805,44,25,0
28.670223,29.082438,55,35,0
28.670223,29.082438,51,29,0
28.670223,29.082438,46,29,0
29.128239,29.525297,55,28,0
29.128239,29.525297,51,23,0
29.128239,29.525297,46,23,0
29.569416,29.966475,55,28,0
29.569416,29.966475,51,23,0
29.569416,29.966475,46,23,0
30.010592,30.40765,55,25,0
30.010592,30.40765,51,20,0
30.010592,30.40765,46,20,0
30.451769,30.848827,55,21,0
30.451769,30.848827,51,18,0
30.451769,30.848827,46,18,0
30.892944,31.290005,55,21,0
30.892944,31.290005,51,17,0
30.892944,31.290005,46,17,0
31.334122,31.746336,56,24,0
31.334122,31.746336,53,20,0
31.334122,31.746336,46,20,0
31.792137,32.1863,56,20,0
31.792137,32.1863,53,17,0
31.792137,32.1863,46,17,0
32.23009,32.658665,56,20,0
32.23009,32.658665,53,16,0
32.23009,32.658665,46,16,0
32.706284,33.595367,55,31,0
32.706284,33.595367,51,26,0
35.35368,36.223244,58,31,0
36.223244,36.67779,56,29,0
35.35368,36.67779,46,26,0
36.67779,37.584084,55,31,0
36.67779,37.584084,51,26,0
39.359646,40.2552,46,31,0
40.2552,40.713215,53,27,0
40.2552,40.713215,44,22,0
39.359646,40.713215,34,26,0
40.713215,41.629246,43,24,0
40.713215,41.629246,39,20,0
41.629246,42.113117,44,32,0
41.629246,42.113117,34,27,0
42.113117,43.02221,43,26,0
42.113117,43.02221,39,22,0
43.02221,43.498398,44,34,0
43.02221,43.498398,34,28,0
43.498398,44.41443,43,25,0
43.498398,44.41443,39,21,0
44.41443,45.03943,44,35,0
44.41443,45.03943,34,29,0
45.09625,46.96467,39,21,0
45.09625,46.990986,44,25,0
46.990986,48.254143,43,23,0
46.990986,48.254143,39,19,0
50.337334,50.821205,39,32,0
50.821205,51.289955,43,32,0
51.289955,51.769955,46,32,0
51.769955,52.253826,51,36,0
52.253826,52.72627,55,38,0
52.72627,53.189976,58,40,0
53.210136,54.143806,58,43,0
53.210136,54.143806,46,36,0
54.143806,54.696693,56,39,0
54.143806,54.696693,46,33,0
54.72073,56.149303,56,38,0
56.149303,56.625492,55,30,0
54.72073,56.625492,51,32,0
59.029488,59.51336,39,37,0
59.51336,59.98211,43,40,0
59.98211,60.46211,46,44,0
60.46211,60.94598,51,49,0
60.94598,61.41842,55,53,0
61.41842,61.88213,58,57,0
61.90229,62.374733,63,62,0
62.374733,62.853855,60,58,0
62.853855,63.32517,58,54,0
63.34566,64.77423,57,53,0
64.77423,66.14233,56,43,0
66.14233,67.506996,58,40,0
67.506996,68.87198,51,35,0
68.87198,70.22572,52,35,0
70.22572,71.59748,53,35,0
72.05902,72.4744,46,29,0
72.52056,72.93594,46,29,0
72.9821,73.397484,46,32,0
73.443634,73.859024,46,29,0
73.905174,74.33375,46,29,0
74.38136,74.79358,46,32,0
74.83938,75.251595,46,27,0
75.29739,75.70679,46,27,0
71.59748,75.75479,34,35,0
75.75479,76.167,46,32,0
76.21281,76.625015,46,28,0
76.67082,77.07745,46,28,0
77.12396,77.53618,46,32,0
77.581985,77.994194,46,28,0
78.04,78.451195,46,28,0
78.49844,78.913826,46,32,0
78.95998,79.37537,46,28,0
79.42152,79.83978,46,28,0
79.88666,80.298874,46,32,0
80.34467,80.75689,46,28,0
80.80269,81.222176,46,28,0
81.2698,81.68201,46,32,0
81.72781,82.14002,46,28,0
82.18583,82.59804,46,28,0
82.643845,83.05605,46,32,0
83.10186,83.51407,46,28,0
83.559875,83.98088,46,28,0
84.02888,84.44109,46,32,0
84.48689,84.89911,46,28,0
84.94491,85.35597,46,28,0
85.403595,85.81898,46,32,0
85.865135,86.28052,46,28,0
86.326675,86.73953,46,28,0
86.78677,87.202156,46,32,0
87.248314,87.6637,46,28,0
87.70985,88.13262,46,28,0
88.18062,89.11835,46,32,0
89.594536,90.532265,50,23,0
89.594536,90.532265,53,23,0
89.594536,90.532265,58,28,0
91.00846,91.93159,70,28,0
91.00846,91.93159,65,23,0
91.00846,91.93159,62,23,0
92.396706,93.33069,70,28,0
92.396706,93.33069,67,23,0
92.396706,93.33069,63,23,0
93.80312,94.74086,55,23,0
93.80312,94.74086,58,23,0
93.80312,94.74086,63,28,0
95.21705,96.151024,58,23,0
95.21705,96.151024,60,28,0
95.21705,96.151024,52,23,0
97.08501,97.54655,58,24,0
97.08501,97.54655,62,29,0
97.54655,98.00826,58,25,0
97.54655,98.00826,62,31,0
98.00826,98.476,62,39,0
98.00826,98.476,58,32,0
98.476,98.93091,62,42,0
98.476,98.93091,58,35,0
96.62347,99.369835,53,35,0
98.93091,99.38892,62,46,0
98.93091,99.38892,58,39,0
99.38892,99.84694,57,37,0
99.38892,99.84694,63,44,0
99.84694,100.31205,63,39,0
99.84694,100.31205,57,33,0
100.31205,100.78449,63,38,0
100.31205,100.78449,57,32,0
99.38892,100.78449,53,37,0
100.78449,101.69273,58,38,0
100.78449,101.69273,62,40,0
105.294846,105.77519,46,24,0
105.294846,105.77519,50,29,0
105.77519,106.24952,46,25,0
105.77519,106.24952,50,30,0
106.24952,106.718025,50,38,0
106.24952,106.718025,46,31,0
106.718025,107.18097,50,41,0
106.718025,107.18097,46,34,0
104.80868,107.66592,41,35,0
107.18097,107.693695,50,45,0
107.18097,107.693695,46,38,0
107.693695,108.14482,45,45,0
107.693695,108.14482,51,54,0
108.14482,108.599365,51,39,0
108.14482,108.599365,48,33,0
108.599365,109.09117,51,38,0
108.599365,109.09117,48,32,0
107.693695,109.09117,41,45,0
109.09117,109.5423,46,44,0
109.5423,109.99342,50,39,0
109.99342,110.44456,53,39,0
110.44456,110.89568,58,44,0
110.89568,111.34681,62,38,0
111.34681,111.79457,64,38,0
111.79457,112.683655,65,44,0
112.683655,113.03522,60,44,0
113.03522,113.152405,63,40,0
112.683655,113.152405,53,37,0
113.152405,113.60353,34,44,0
113.60353,114.05466,38,39,0
114.05466,114.50579,41,39,0
114.50579,114.95692,46,44,0
114.95692,115.40804,50,38,0
115.40804,115.855804,52,34,0
115.855804,116.74489,53,39,0
116.74489,117.09645,48,39,0
117.09645,117.21456,51,36,0
116.74489,117.21456,41,33,0
117.21456,117.687004,50,40,0
117.21456,117.687004,46,34,0
117.687004,118.35864,48,39,0
118.35864,118.58253,51,34,0
117.687004,118.58253,41,33,0
118.58253,119.0664,50,40,0
118.58253,119.0664,46,34,0
119.0664,119.75342,48,39,0
119.75342,119.98243,51,34,0
119.0664,119.98243,41,33,0
119.98243,120.48243,50,40,0
119.98243,120.48243,46,34,0
120.48243,120.716805,48,45,0
120.716805,120.95118,47,42,0
120.48243,120.95118,41,38,0
120.95118,121.19118,48,52,0
121.19118,121.4853,51,48,0
120.95118,121.4853,41,39,0
121.814964,123.33012,51,35,0
123.33012,124.54224,50,35,0
121.814964,124.54224,46,29,0
126.62371,127.048904,31,21,0
126.62371,127.048904,43,25,0
127.096146,127.52135,43,21,0
127.096146,127.52135,31,17,0
127.56859,127.99379,43,21,0
127.56859,127.99379,31,17,0
128.04103,128.46623,43,21,0
128.04103,128.46623,31,17,0
128.51347,128.93867,43,21,0
128.51347,128.93867,31,17,0
128.98592,129.41112,43,21,0
128.98592,129.41112,31,17,0
129.45836,129.88354,43,21,0
129.45836,129.88354,31,17,0
129.9308,130.33989,43,21,0
129.9308,130.33989,31,17,0
130.38535,130.82178,43,21,0
130.38535,130.82178,31,17,0
130.87137,131.29994,31,21,0
130.87137,131.29994,43,25,0
131.34756,131.77614,43,21,0
131.34756,131.77614,31,17,0
131.82375,132.25232,43,21,0
131.82375,132.25232,31,17,0
132.29994,132.72852,43,21,0
132.29994,132.72852,31,17,0
132.77614,133.2047,43,21,0
132.77614,133.2047,31,17,0
133.25232,133.6809,43,21,0
133.25232,133.6809,31,17,0
133.72852,134.15652,43,21,0
133.72852,134.15652,31,17,0
134.20377,134.61285,43,21,0
134.20377,134.61285,31,17,0
134.65831,135.0842,43,21,0
134.65831,135.0842,31,17,0
135.13298,135.55818,31,21,0
135.13298,135.55818,43,25,0
135.60542,136.03062,43,21,0
135.60542,136.03062,31,17,0
136.07787,136.50307,43,21,0
136.07787,136.50307,31,17,0
136.55031,136.97551,43,21,0
136.55031,136.97551,31,17,0
137.02275,137.44794,43,21,0
137.02275,137.44794,31,17,0
137.4952,137.92038,43,21,0
137.4952,137.92038,31,17,0
137.96764,138.39282,43,21,0
137.96764,138.39282,31,17,0
138.44006,138.85228,43,21,0
138.44006,138.85228,31,17,0
138.89809,139.32576,43,21,0
138.89809,139.32576,31,17,0
139.37454,139.84329,43,60,0
139.37454,139.84329,31,48,0
139.84329,140.26517,53,26,0
139.84329,140.26517,43,20,0
139.84329,140.26517,47,20,0
139.84329,140.26517,50,20,0
140.31204,140.73392,53,26,0
140.31204,140.73392,43,20,0
140.31204,140.73392,47,20,0
140.31204,140.73392,50,20,0
140.78079,141.20267,53,29,0
140.78079,141.20267,43,23,0
140.78079,141.20267,47,23,0
140.78079,141.20267,50,23,0
141.24954,141.66493,53,26,0
141.24954,141.66493,43,20,0
141.24954,141.66493,47,20,0
141.24954,141.66493,50,20,0
141.71109,142.1171,53,26,0
141.71109,142.1171,43,20,0
141.71109,142.1171,47,20,0
141.71109,142.1171,50,20,0
142.16222,142.56221,53,30,0
142.16222,142.56221,43,24,0
142.16222,142.56221,47,24,0
142.16222,142.56221,50,24,0
142.60666,143.02087,53,30,0
142.60666,143.02087,43,23,0
142.60666,143.02087,47,23,0
142.60666,143.02087,50,23,0
143.06888,143.48988,53,31,0
143.06888,143.48988,43,24,0
143.06888,143.48988,47,24,0
143.06888,143.48988,50,24,0
143.53789,144.00664,48,60,0
143.53789,144.00664,36,48,0
144.00664,144.42851,58,26,0
144.00664,144.42851,55,20,0
144.00664,144.42851,48,20,0
144.47539,144.89726,58,26,0
144.47539,144.89726,55,20,0
144.47539,144.89726,48,20,0
144.94414,145.36601,58,29,0
144.94414,145.36601,55,23,0
144.94414,145.36601,48,23,0
145.41289,145.82828,58,26,0
145.41289,145.82828,55,20,0
145.41289,145.82828,48,20,0
145.87442,146.28044,58,26,0
145.87442,146.28044,55,20,0
145.87442,146.28044,48,20,0
146.32556,146.72556,58,30,0
146.32556,146.72556,55,24,0
146.32556,146.72556,48,24,0
146.77,147.18422,58,30,0
146.77,147.18422,55,23,0
146.77,147.18422,48,23,0
147.23222,147.65323,58,31,0
147.23222,147.65323,55,24,0
147.23222,147.65323,48,24,0
147.70123,148.16998,53,60,0
147.70123,148.16998,41,48,0
148.16998,148.59186,63,26,0
148.16998,148.59186,60,20,0
148.16998,148.59186,53,20,0
148.63873,149.06061,63,26,0
148.63873,149.06061,60,20,0
148.63873,149.06061,53,20,0
149.10748,149.52936,63,29,0
149.10748,149.52936,60,23,0
149.10748,149.52936,53,23,0
149.57623,149.99161,63,26,0
149.57623,149.99161,60,20,0
149.57623,149.99161,53,20,0
150.03777,150.44379,63,26,0
150.03777,150.44379,60,20,0
150.03777,150.44379,53,20,0
150.48889,150.8889,63,30,0
150.48889,150.8889,60,24,0
150.48889,150.8889,53,24,0
150.93333,151.34756,63,31,0
150.93333,151.34756,60,24,0
150.93333,151.34756,53,24,0
151.39557,151.81657,63,33,0
151.39557,151.81657,60,26,0
151.39557,151.81657,53,26,0
151.86456,152.33331,46,60,0
151.86456,152.33331,34,48,0
152.33331,152.75519,56,26,0
152.33331,152.75519,53,20,0
152.33331,152.75519,46,20,0
152.80206,153.22394,56,26,0
152.80206,153.22394,53,20,0
152.80206,153.22394,46,20,0
153.27081,153.69269,56,29,0
153.27081,153.69269,53,23,0
153.27081,153.69269,46,23,0
153.73956,154.15495,56,26,0
153.73956,154.15495,53,20,0
153.73956,154.15495,46,20,0
154.20111,154.60712,56,26,0
154.20111,154.60712,53,20,0
154.20111,154.60712,46,20,0
154.65224,155.05223,56,30,0
154.65224,155.05223,53,24,0
154.65224,155.05223,46,24,0
155.09668,155.51091,56,30,0
155.09668,155.51091,53,23,0
155.09668,155.51091,46,23,0
155.5589,155.9799,56,31,0
155.5589,155.9799,53,24,0
155.5589,155.9799,46,24,0
156.02791,156.49666,51,60,0
156.02791,156.49666,39,48,0
156.49666,156.91853,61,26,0
156.49666,156.91853,58,20,0
156.49666,156.91853,51,20,0
156.96541,157.38728,61,26,0
156.96541,157.38728,58,20,0
156.96541,157.38728,51,20,0
157.43416,157.85603,61,29,0
157.43416,157.85603,58,23,0
157.43416,157.85603,51,23,0
157.90291,158.3183,61,26,0
157.90291,158.3183,58,20,0
157.90291,158.3183,51,20,0
158.36446,158.77046,61,27,0
158.36446,158.77046,58,21,0
158.36446,158.77046,51,21,0
158.81558,159.21558,61,33,0
158.81558,159.21558,58,26,0
158.81558,159.21558,51,26,0
159.26003,159.67424,61,35,0
159.26003,159.67424,58,27,0
159.26003,159.67424,51,27,0
159.72224,160.14325,61,39,0
159.72224,160.14325,58,29,0
159.72224,160.14325,51,29,0
160.19125,161.09024,63,29,0
160.19125,161.09024,59,24,0
160.19125,161.09024,51,24,0
161.54684,161.77411,61,41,0
161.77411,162.00139,63,34,0
162.00139,162.2236,64,41,0
162.2236,162.44583,63,36,0
162.44583,162.66805,64,41,0
162.66805,162.9006,61,37,0
162.9006,163.12617,59,41,0
163.12617,163.35173,61,38,0
163.35173,163.57396,63,41,0
163.57396,163.79619,61,35,0
163.79619,164.0184,63,41,0
164.0184,164.25278,59,35,0
164.25278,164.48006,58,41,0
164.48006,164.70732,59,34,0
164.70732,164.92955,61,41,0
164.92955,165.15176,59,36,0
165.15176,165.374,61,41,0
165.374,165.60837,58,37,0
165.60837,165.83563,59,41,0
165.83563,166.06291,61,34,0
166.06291,166.28514,63,41,0
166.28514,166.50735,61,36,0
166.50735,166.72958,63,41,0
166.72958,166.96214,59,37,0
166.96214,167.1877,56,41,0
167.1877,167.41327,58,38,0
167.41327,167.63548,59,41,0
167.63548,167.85771,58,35,0
167.85771,168.07993,59,41,0
168.07993,168.3143,56,35,0
168.3143,168.54158,54,41,0
168.54158,168.76886,56,34,0
168.76886,168.99107,58,41,0
168.99107,169.2133,56,36,0
169.2133,169.43552,58,41,0
169.43552,169.66989,54,37,0
169.66989,169.89717,53,41,0
169.89717,170.12444,54,34,0
170.12444,170.34666,56,41,0
170.34666,170.56888,54,36,0
170.56888,170.7911,56,41,0
170.7911,171.02367,53,37,0
171.02367,171.24922,54,41,0
171.24922,171.4748,56,38,0
171.4748,171.69702,58,41,0
171.69702,171.91924,56,35,0
171.91924,172.14146,58,41,0
172.14146,172.37584,54,35,0
172.37584,172.6031,50,41,0
172.6031,172.83038,51,34,0
172.83038,173.0526,53,41,0
173.0526,173.27483,51,36,0
173.27483,173.49704,53,41,0
173.49704,173.73141,50,37,0
173.73141,173.9587,51,41,0
173.9587,174.18597,53,34,0
174.18597,174.40819,54,41,0
174.40819,174.63042,53,36,0
174.63042,174.85263,54,41,0
174.85263,175.08519,51,37,0
175.08519,175.31076,48,41,0
175.31076,175.53632,50,38,0
175.53632,175.75854,51,41,0
175.75854,175.98076,50,35,0
175.98076,176.20299,51,41,0
176.20299,176.43736,47,35,0
176.66463,176.8919,48,34,0
176.8919,177.11414,50,41,0
177.11414,177.33635,48,36,0
176.43736,177.55858,46,41,0
177.33635,177.55858,46,41,0
177.55858,177.79295,48,37,0
177.79295,178.02022,50,41,0
178.02022,178.2475,51,34,0
178.2475,178.46971,53,41,0
178.46971,178.69194,51,36,0
178.69194,178.91415,50,41,0
178.91415,179.14671,53,37,0
179.14671,179.37228,51,41,0
179.37228,179.59785,50,38,0
179.59785,179.82007,48,41,0
179.59785,180.02377,46,39,0
179.82007,180.0423,50,35,0
180.0423,180.26451,51,41,0
180.0423,180.47935,46,39,0
180.26451,180.49889,48,35,0
180.49889,180.72617,50,41,0
180.72617,180.95343,51,34,0
180.95343,181.17566,53,41,0
181.17566,181.39787,51,36,0
181.39787,181.6201,50,41,0
181.6201,181.85448,51,37,0
181.85448,182.08176,53,41,0
182.08176,182.30902,54,34,0
182.30902,182.53125,56,41,0
182.53125,182.75346,54,36,0
182.75346,182.9757,53,41,0
182.9757,183.20825,56,37,0
183.20825,183.4338,54,41,0
180.49889,183.64058,46,41,0
183.4338,183.65938,53,38,0
183.65938,183.88159,51,41,0
183.65938,184.0853,46,39,0
183.88159,184.10382,53,35,0
184.10382,184.32603,54,41,0
184.10382,184.54088,46,39,0
184.32603,184.56041,51,35,0
184.56041,185.48349,53,39,0
184.56041,185.48349,50,39,0
184.56041,185.48349,46,39,0
192.87161,193.28636,39,25,0
193.33244,193.7472,51,17,0
193.33244,193.7472,55,17,0
193.33244,193.7472,58,20,0
193.79327,194.20802,58,20,0
193.79327,194.20802,55,17,0
193.79327,194.20802,51,17,0
194.2541,194.66885,58,23,0
194.2541,194.66885,55,19,0
194.2541,194.66885,51,19,0
194.71494,195.12968,58,20,0
194.71494,195.12968,51,17,0
194.71494,195.12968,55,17,0
195.17577,195.59052,58,20,0
195.17577,195.59052,55,17,0
195.17577,195.59052,51,17,0
195.6366,196.05135,51,20,0
195.6366,196.05135,55,20,0
195.6366,196.05135,58,24,0
196.09743,196.51216,58,21,0
196.09743,196.51216,55,17,0
196.09743,196.51216,51,17,0
196.55826,196.98833,58,21,0
196.55826,196.98833,55,17,0
196.55826,196.98833,51,17,0
197.03825,197.44983,58,25,0
197.03825,197.44983,51,21,0
197.03825,197.44983,55,21,0
197.49556,197.90715,58,20,0
197.49556,197.90715,55,17,0
197.49556,197.90715,51,17,0
197.95288,198.36447,51,17,0
197.95288,198.36447,55,17,0
197.95288,198.36447,58,20,0
198.4102,198.8218,58,23,0
198.4102,198.8218,55,19,0
198.4102,198.8218,51,19,0
198.86752,199.2791,58,20,0
198.86752,199.2791,55,17,0
198.86752,199.2791,51,17,0
199.32483,199.73642,58,20,0
199.32483,199.73642,51,17,0
199.32483,199.73642,55,17,0
199.78215,200.19374,58,24,0
199.78215,200.19374,55,20,0
199.78215,200.19374,51,20,0
200.23947,200.63887,51,17,0
200.23947,200.63887,55,17,0
200.23947,200.63887,58,21,0
200.68326,201.10155,58,21,0
200.68326,201.10155,55,17,0
200.68326,201.10155,51,17,0
201.15065,201.55913,58,25,0
201.15065,201.55913,56,21,0
201.15065,201.55913,50,21,0
201.6045,202.00764,58,20,0
201.6045,202.00764,50,17,0
201.6045,202.00764,56,17,0
202.0517,202.44818,58,20,0
202.0517,202.44818,56,17,0
202.0517,202.44818,50,17,0
202.49223,202.90381,50,19,0
202.49223,202.90381,56,19,0
202.49223,202.90381,58,23,0
202.94954,203.36113,58,20,0
202.94954,203.36113,56,17,0
202.94954,203.36113,50,17,0
203.40686,203.81845,58,20,0
203.40686,203.81845,56,17,0
203.40686,203.81845,50,17,0
203.86418,204.27577,58,24,0
203.86418,204.27577,50,20,0
203.86418,204.27577,56,20,0
204.3215,204.73308,58,21,0
204.3215,204.73308,56,17,0
204.3215,204.73308,50,17,0
204.77881,205.20071,50,17,0
204.77881,205.20071,56,17,0
204.77881,205.20071,58,21,0
205.24902,205.65749,58,25,0
205.24902,205.65749,53,21,0
205.24902,205.65749,50,21,0
205.24902,205.65749,56,21,0
205.70288,206.11134,56,17,0
205.70288,206.11134,58,20,0
205.70288,206.11134,53,17,0
205.70288,206.11134,50,17,0
206.15674,206.5652,58,20,0
206.15674,206.5652,53,17,0
206.15674,206.5652,50,17,0
206.15674,206.5652,56,17,0
206.6106,207.01906,50,20,0
206.6106,207.01906,56,20,0
206.6106,207.01906,58,25,0
206.6106,207.01906,53,20,0
207.06445,207.47292,58,23,0
207.06445,207.47292,53,19,0
207.06445,207.47292,50,19,0
207.06445,207.47292,56,19,0
207.51831,207.92407,58,24,0
207.51831,207.92407,56,20,0
207.51831,207.92407,53,20,0
207.51831,207.92407,50,20,0
207.96878,208.37117,56,25,0
207.96878,208.37117,53,25,0
207.96878,208.37117,50,25,0
207.96878,208.37117,58,30,0
208.41588,208.81827,58,27,0
208.41588,208.81827,56,22,0
208.41588,208.81827,50,22,0
208.41588,208.81827,53,22,0
208.86298,209.28618,58,28,0
208.86298,209.28618,53,22,0
208.86298,209.28618,50,22,0
208.86298,209.28618,56,22,0
209.3361,209.74457,58,25,0
209.3361,209.74457,51,21,0
209.3361,209.74457,56,21,0
209.78996,210.19844,58,20,0
209.78996,210.19844,56,17,0
209.78996,210.19844,51,17,0
210.24382,210.6523,51,17,0
210.24382,210.6523,56,17,0
210.24382,210.6523,58,20,0
210.69768,211.10616,58,23,0
210.69768,211.10616,55,19,0
210.69768,211.10616,51,19,0
211.15154,211.56001,58,20,0
211.15154,211.56001,55,17,0
211.15154,211.56001,51,17,0
211.6054,212.01387,58,20,0
211.6054,212.01387,51,17,0
211.6054,212.01387,55,17,0
212.05925,212.50644,51,36,0
212.50644,212.94698,46,40,0
212.94698,213.41074,44,43,0
213.41074,213.86119,43,48,0
213.86119,214.2666,43,29,0
213.86119,214.2666,46,29,0
213.86119,214.2666,51,35,0
214.31165,214.71706,51,35,0
214.31165,214.71706,46,29,0
214.31165,214.71706,43,29,0
214.7621,215.1675,46,29,0
214.7621,215.1675,43,29,0
214.7621,215.1675,51,35,0
215.21254,215.61795,51,32,0
215.21254,215.61795,46,27,0
215.21254,215.61795,43,27,0
215.663,216.0684,46,27,0
215.663,216.0684,51,32,0
215.663,216.0684,43,27,0
216.11345,216.51884,43,29,0
216.11345,216.51884,46,29,0
216.11345,216.51884,51,35,0
216.5639,216.9693,51,30,0
216.5639,216.9693,46,25,0
216.5639,216.9693,43,25,0
217.01434,217.42973,46,25,0
217.01434,217.42973,43,25,0
217.01434,217.42973,51,30,0
217.47589,217.93742,51,48,0
217.47589,217.93742,48,34,0
217.47589,217.93742,44,32,0
217.93742,218.33742,48,29,0
217.93742,218.33742,51,35,0
217.93742,218.33742,44,29,0
218.38187,218.79013,44,29,0
218.38187,218.79013,48,29,0
218.38187,218.79013,51,35,0
218.83665,219.2337,52,41,0
218.83665,219.2337,48,34,0
218.83665,219.2337,44,34,0
219.27783,219.67488,48,29,0
219.27783,219.67488,44,29,0
219.27783,219.67488,52,35,0
219.71901,220.11606,52,39,0
219.71901,220.11606,48,33,0
219.71901,220.11606,44,33,0
220.16017,220.55724,48,37,0
220.16017,220.55724,53,44,0
220.16017,220.55724,44,37,0
220.60135,220.98746,44,30,0
220.60135,220.98746,48,30,0
220.60135,220.98746,53,36,0
221.03159,221.44826,53,36,0
221.03159,221.44826,48,30,0
221.03159,221.44826,44,30,0
221.49626,221.90848,51,29,0
221.49626,221.90848,46,29,0
221.49626,221.90848,55,35,0
221.95427,222.35133,55,28,0
221.95427,222.35133,51,23,0
221.95427,222.35133,46,23,0
222.39545,222.79251,51,23,0
222.39545,222.79251,55,28,0
222.39545,222.79251,46,23,0
222.83662,223.23369,46,26,0
222.83662,223.23369,51,26,0
222.83662,223.23369,55,32,0
223.2778,223.67487,55,27,0
223.2778,223.67487,51,23,0
223.2778,223.67487,46,23,0
223.71898,224.11604,51,22,0
223.71898,224.11604,46,22,0
223.71898,224.11604,55,27,0
224.16016,224.57237,56,31,0
224.16016,224.57237,53,25,0
224.16016,224.57237,46,25,0
224.61816,225.01233,53,22,0
224.61816,225.01233,56,26,0
224.61816,225.01233,46,22,0
225.05612,225.4847,46,21,0
225.05612,225.4847,53,21,0
225.05612,225.4847,56,26,0
225.53232,226.4214,55,31,0
225.53232,226.4214,51,26,0
228.17972,229.04929,58,31,0
229.04929,229.50383,56,29,0
228.17972,229.50383,46,26,0
229.50383,230.41011,51,26,0
229.50383,230.41011,55,31,0
232.18568,233.08124,46,31,0
233.08124,233.53925,53,27,0
233.08124,233.53925,44,22,0
232.18568,233.53925,34,26,0
233.53925,234.43611,43,27,0
233.53925,234.43611,39,27,0
237.64154,238.09267,39,32,0
238.09267,238.55492,43,32,0
238.55492,239.0244,46,32,0
239.0244,239.50827,51,36,0
239.50827,239.97339,55,38,0
239.97339,240.4371,58,40,0
240.45726,241.39093,58,43,0
240.45726,241.39093,46,36,0
241.39093,241.94382,56,39,0
241.39093,241.94382,46,33,0
241.96785,243.3546,56,38,0
243.3546,243.81685,55,30,0
241.96785,243.81685,51,32,0
246.1498,246.61928,39,37,0
246.61928,247.078,42,40,0
247.078,247.54749,46,44,0
247.54749,248.02443,51,49,0
248.02443,248.48668,54,53,0
248.48668,248.9504,58,57,0
248.97055,249.43639,63,62,0
249.43639,249.91551,59,58,0
249.91551,250.38683,58,54,0
250.40732,251.83589,56,53,0
251.83589,253.20065,53,43,0
253.20065,254.562,54,40,0
254.562,255.92336,47,32,0
255.92336,257.2847,49,32,0
257.2847,258.6454,37,32,0
258.6454,260.07397,38,53,0
260.07397,261.43872,50,43,0
261.43872,262.80008,51,40,0
262.80008,264.15814,44,32,0
264.15814,265.5162,45,32,0
265.5162,266.8769,46,32,0
267.33844,267.7538,51,29,0
267.8,268.21536,51,29,0
268.2615,268.6769,51,32,0
268.72305,269.13846,51,29,0
269.1846,269.61316,51,29,0
269.6608,270.073,51,32,0
270.1188,270.531,51,27,0
270.5768,270.9862,51,27,0
266.8769,271.0342,39,35,0
271.0342,271.4464,51,32,0
271.49222,271.90445,51,28,0
271.95023,272.35687,51,28,0
272.40338,272.8156,51,32,0
272.8614,273.27362,51,28,0
273.31943,273.73062,51,28,0
273.77786,274.19324,51,32,0
274.2394,274.6548,51,28,0
274.70093,275.1192,51,28,0
275.16608,275.5783,51,32,0
275.62408,276.03632,51,28,0
276.08212,276.5016,51,28,0
276.54922,276.96143,51,32,0
277.00723,277.41943,51,28,0
277.46524,277.87747,51,28,0
277.92325,278.3351,51,32,0
278.38028,278.78693,51,28,0
278.8321,279.25,51,28,0
279.298,279.7102,51,32,0
279.756,280.16824,51,28,0
280.21402,280.6251,51,28,0
280.67273,281.0881,51,32,0
281.13425,281.54965,51,28,0
281.5958,282.00864,51,28,0
282.0559,282.47128,51,32,0
282.51743,282.93283,51,28,0
282.97897,283.40173,51,28,0
283.44974,284.38748,51,32,0
284.86365,285.8014,55,23,0
284.86365,285.8014,58,23,0
284.86365,285.8014,63,28,0
286.2776,287.2007,75,28,0
286.2776,287.2007,70,23,0
286.2776,287.2007,67,23,0
287.66583,288.5998,75,28,0
287.66583,288.5998,72,23,0
287.66583,288.5998,68,23,0
289.07224,290.00998,56,23,0
289.07224,290.00998,60,23,0
289.07224,290.00998,63,28,0
290.48618,291.42014,60,23,0
290.48618,291.42014,63,28,0
290.48618,291.42014,57,23,0
292.35413,292.81567,63,24,0
292.35413,292.81567,67,29,0
292.81567,293.27737,63,25,0
292.81567,293.27737,67,30,0
293.27737,293.74512,67,38,0
293.27737,293.74512,63,31,0
293.74512,294.2,67,42,0
293.74512,294.2,63,35,0
291.89258,294.63895,58,35,0
294.2,294.65805,67,46,0
294.2,294.65805,63,39,0
294.65805,295.11606,62,37,0
294.65805,295.11606,68,44,0
295.11606,295.58118,68,39,0
295.11606,295.58118,62,33,0
295.58118,296.05362,68,38,0
295.58118,296.05362,62,32,0
294.65805,296.05362,58,37,0
296.05362,296.96185,63,38,0
296.05362,296.96185,67,40,0
300.56396,301.0443,51,24,0
300.56396,301.0443,55,29,0
301.0443,301.51865,51,27,0
301.0443,301.51865,55,32,0
301.51865,301.98715,55,43,0
301.51865,301.98715,51,35,0
301.98715,302.45007,55,49,0
301.98715,302.45007,51,41,0
300.0778,302.93503,46,35,0
302.45007,302.9628,55,55,0
302.45007,302.9628,51,47,0
302.9628,303.41394,50,52,0
302.9628,303.41394,56,62,0
303.41394,303.8685,56,39,0
303.41394,303.8685,50,33,0
303.8685,304.3603,56,38,0
303.8685,304.3603,50,32,0
302.9628,304.3603,46,45,0
304.3603,304.81143,51,44,0
304.81143,305.26254,55,39,0
305.26254,305.71368,58,39,0
305.71368,306.1648,63,44,0
306.1648,306.61594,67,38,0
306.61594,307.0637,69,38,0
307.0637,307.9528,70,44,0
307.9528,308.30435,65,44,0
308.30435,308.42154,68,40,0
307.9528,308.42154,58,37,0
308.42154,308.87265,39,44,0
308.87265,309.3238,43,39,0
309.3238,309.7749,46,39,0
309.7749,310.22604,51,44,0
310.22604,310.67715,55,38,0
310.67715,311.12494,57,34,0
311.12494,312.014,58,39,0
312.014,312.36557,53,39,0
312.36557,312.48367,56,36,0
312.014,312.48367,46,33,0
312.48367,312.95612,55,40,0
312.48367,312.95612,51,34,0
312.95612,313.62778,53,39,0
313.62778,313.85165,56,34,0
312.95612,313.85165,46,33,0
313.85165,314.3355,55,40,0
313.85165,314.3355,51,34,0
314.3355,315.02255,53,39,0
315.02255,315.25156,56,34,0
314.3355,315.25156,46,33,0
315.25156,315.75156,55,40,0
315.25156,315.75156,51,34,0
315.75156,315.99347,53,46,0
315.99347,316.2354,52,43,0
315.75156,316.2354,46,38,0
316.2354,316.49405,53,51,0
316.49405,316.847,50,47,0
316.2354,316.847,46,38,0
317.21735,319.39127,50,31,0
319.39127,321.1304,51,25,0
317.21735,321.1304,46,26,0
317.21735,321.1304,39,26,0
