start_time,end_time,note_value,velocity,instrument_program_number
0.8771925,1.0601193,77,45,0
1.0601193,1.2355578,79,50,0
1.2355578,1.4109962,77,46,0
1.4109962,1.5864347,75,50,0
1.5864347,1.7618732,74,46,0
1.7618732,1.9373118,72,46,0
1.9373118,2.1127503,70,46,0
2.1127503,2.4636273,69,50,0
2.4636273,2.8364344,70,47,0
2.8364344,3.1852713,71,53,0
3.1852713,3.7116702,72,49,0
3.7116702,3.891311,78,45,0
3.891311,4.0617657,81,50,0
4.0617657,4.234179,79,46,0
4.234179,4.40759,77,50,0
4.40759,4.5810003,75,46,0
4.5810003,4.7544107,74,46,0
4.7544107,4.927821,72,46,0
4.927821,5.2746425,70,50,0
5.2746425,5.6403604,72,47,0
5.6403604,5.9862075,73,53,0
5.9862075,6.503483,74,49,0
6.503483,6.684206,77,51,0
6.684206,6.8546605,79,58,0
6.8546605,7.029079,74,52,0
7.029079,7.2034974,77,56,0
7.2034974,7.374926,75,52,0
7.374926,7.54734,77,57,0
7.54734,7.7197533,72,52,0
7.7197533,7.894172,75,57,0
7.894172,8.066586,74,52,0
8.066586,8.239996,79,59,0
8.239996,8.421815,74,52,0
8.421815,8.596233,77,62,0
8.596233,8.770652,75,56,0
8.770652,8.94507,77,62,0
8.94507,9.119489,72,54,0
9.119489,9.293907,74,67,0
9.293907,9.465336,75,57,0
9.465336,9.636764,76,59,0
9.636764,9.808192,77,61,0
9.808192,9.980606,78,67,0
9.980606,10.15302,79,64,0
10.15302,10.325434,81,67,0
10.325434,10.497848,82,69,0
10.497848,10.671258,84,70,0
10.671258,10.844668,85,74,0
10.844668,11.018079,86,81,0
11.018079,11.218079,76,54,0
11.218079,11.5649,79,58,0
11.5649,11.917841,77,53,0
12.094312,12.295653,77,45,0
12.094312,12.295653,65,38,0
12.295653,12.471092,79,50,0
12.295653,12.471092,67,42,0
12.471092,12.646531,77,46,0
12.471092,12.646531,65,39,0
12.646531,12.821969,75,50,0
12.646531,12.821969,63,42,0
12.821969,12.997408,74,46,0
12.821969,12.997408,62,39,0
12.997408,13.172846,72,46,0
12.997408,13.172846,60,39,0
13.172846,13.348285,70,46,0
13.172846,13.348285,58,39,0
13.348285,13.699162,69,42,0
13.348285,13.699162,57,42,0
13.699162,14.071969,70,47,0
13.699162,14.071969,58,39,0
14.071969,14.420806,71,53,0
14.071969,14.420806,59,45,0
14.420806,14.944061,72,49,0
14.420806,14.944061,60,41,0
14.944061,15.125879,78,45,0
14.944061,15.125879,66,38,0
15.125879,15.296334,81,50,0
15.125879,15.296334,69,42,0
15.296334,15.468748,79,46,0
15.296334,15.468748,67,39,0
15.468748,15.6421585,77,50,0
15.468748,15.6421585,65,42,0
15.6421585,15.815569,75,46,0
15.6421585,15.815569,63,39,0
15.815569,15.988979,74,46,0
15.815569,15.988979,62,39,0
15.988979,16.16239,72,46,0
15.988979,16.16239,60,39,0
16.16239,16.50921,70,50,0
16.16239,16.50921,58,42,0
16.50921,16.87493,72,47,0
16.50921,16.87493,60,39,0
16.87493,17.223766,73,53,0
16.87493,17.223766,61,45,0
17.223766,17.74702,74,49,0
17.223766,17.74702,62,41,0
17.74702,17.927744,77,56,0
17.927744,18.0982,79,63,0
18.0982,18.272617,74,57,0
18.272617,18.447037,77,62,0
18.447037,18.621454,75,58,0
17.927744,18.621454,68,45,0
18.621454,18.795874,77,63,0
18.795874,18.970291,72,58,0
18.621454,18.970291,69,45,0
18.970291,19.14471,75,64,0
19.14471,19.319128,74,59,0
18.970291,19.319128,70,46,0
19.319128,19.493547,79,67,0
19.493547,19.675365,74,59,0
19.675365,19.849783,77,71,0
19.849783,20.024202,75,64,0
19.319128,20.024202,68,46,0
20.024202,20.19862,77,71,0
20.19862,20.37304,72,63,0
20.024202,20.37304,69,47,0
20.37304,20.547459,75,71,0
20.37304,20.547459,70,59,0
20.547459,20.718885,74,63,0
20.547459,20.718885,62,53,0
20.718885,20.890314,75,67,0
20.718885,20.890314,63,56,0
20.890314,21.061743,77,71,0
20.890314,21.061743,65,60,0
21.061743,21.234158,78,80,0
21.061743,21.234158,66,67,0
21.234158,21.40657,79,75,0
21.234158,21.40657,67,63,0
21.40657,21.492777,81,80,0
21.40657,21.492777,69,67,0
21.578985,21.675758,82,83,0
21.578985,21.675758,70,70,0
21.772533,22.117361,70,70,0
21.772533,22.117361,58,70,0
22.117361,22.496672,72,69,0
22.117361,22.496672,60,58,0
22.496672,22.843493,73,49,0
22.496672,22.843493,61,41,0
22.843493,23.286777,74,45,0
22.843493,23.286777,62,38,0
23.286777,23.37497,70,59,0
23.37497,23.462688,69,61,0
23.462688,23.550161,70,62,0
23.550161,23.637371,71,62,0
23.637371,23.724134,72,64,0
23.724134,23.81084,73,65,0
23.81084,23.897064,74,67,0
23.897064,23.98309,75,69,0
23.98309,24.068804,76,70,0
24.068804,24.154306,77,71,0
24.154306,24.239534,78,73,0
24.239534,24.32436,79,74,0
24.32436,24.408995,80,76,0
24.408995,24.493265,81,77,0
24.493265,24.577534,82,78,0
24.577534,24.6465,70,53,0
24.6465,24.715466,72,48,0
24.715466,24.784431,70,45,0
24.784431,24.853397,69,45,0
24.853397,24.922361,70,45,0
24.922361,25.196127,74,52,0
25.196127,25.297478,72,41,0
24.922361,25.297478,63,42,0
25.297478,25.647102,70,50,0
25.297478,25.647102,62,42,0
25.99193,26.681911,74,80,0
25.99193,26.681911,65,67,0
26.681911,26.757868,72,53,0
26.757868,26.831827,74,50,0
26.831827,26.906847,72,53,0
26.906847,26.981329,74,50,0
26.981329,27.054188,72,53,0
27.054188,27.128473,71,49,0
27.128473,27.201399,72,49,0
27.199902,27.289722,74,49,0
27.289722,27.379541,75,50,0
26.681911,27.379541,67,45,0
27.379541,27.738823,67,57,0
27.738823,28.109194,69,54,0
27.738823,28.109194,63,45,0
28.109194,28.460072,70,56,0
28.460072,28.646406,65,46,0
28.109194,28.831118,62,47,0
28.831118,29.536768,74,80,0
28.831118,29.536768,65,67,0
29.536768,29.712206,72,63,0
29.712206,29.76715,74,56,0
29.76715,29.822096,72,56,0
29.822096,29.87704,71,56,0
29.87704,30.130112,72,63,0
30.130112,30.218348,74,58,0
29.536768,30.218348,67,45,0
30.218348,30.394817,70,63,0
30.394817,30.450066,72,56,0
30.450066,30.505314,70,56,0
30.505314,30.560564,69,56,0
30.560564,30.821245,70,63,0
30.821245,30.916183,72,58,0
30.218348,30.916183,64,45,0
30.916183,31.310919,70,56,0
31.310919,31.496105,69,46,0
30.916183,31.6798,65,47,0
32.1783,32.70632,81,69,0
32.09678,32.70632,77,64,0
32.01526,32.70632,69,55,0
32.869366,33.393063,81,73,0
32.78784,33.393063,77,68,0
32.70632,33.393063,69,57,0
33.555225,34.07438,81,76,0
33.474144,34.07438,77,71,0
33.393063,34.07438,69,60,0
34.23654,34.45237,81,79,0
34.15546,34.45237,77,74,0
34.07438,34.45237,69,63,0
34.813816,35.48429,77,69,0
34.813816,35.48429,89,82,0
35.48429,35.65378,76,52,0
35.48429,35.65378,88,62,0
36.21089,36.881367,74,69,0
36.21089,36.881367,86,82,0
36.881367,37.050858,72,52,0
36.881367,37.050858,84,62,0
37.59338,38.095325,70,69,0
37.59338,38.095325,82,82,0
38.095325,38.43338,81,62,0
38.095325,38.43338,69,52,0
38.43338,38.767643,79,60,0
38.43338,38.767643,67,60,0
38.767643,39.10098,77,62,0
38.767643,39.10098,65,52,0
39.10098,39.312244,79,58,0
39.10098,39.312244,67,54,0
39.312244,39.669388,80,66,0
39.312244,39.669388,68,56,0
39.669388,40.02653,81,60,0
39.669388,40.02653,69,51,0
40.02653,40.387978,69,57,0
40.387978,41.08798,71,49,0
40.02653,41.08798,65,57,0
41.08798,41.26655,64,52,0
41.08798,41.26655,72,62,0
41.445118,41.806564,65,57,0
41.806564,42.14942,67,49,0
42.14942,42.506565,68,53,0
41.445118,42.506565,62,57,0
42.506565,42.68514,60,52,0
42.506565,42.68514,69,62,0
42.86371,43.22085,62,57,0
43.22085,43.577995,64,49,0
43.577995,43.756565,65,53,0
42.86371,43.756565,58,57,0
43.756565,44.11371,57,57,0
44.11371,44.468407,55,62,0
44.468407,44.83019,53,67,0
44.83019,45.01581,52,72,0
45.01581,45.104565,53,70,0
45.104565,45.19028,45,50,0
45.19028,45.275993,48,50,0
45.275993,45.36171,53,50,0
45.36171,45.447422,57,53,0
45.447422,45.533134,60,50,0
45.533134,45.61885,65,50,0
45.61885,45.704563,69,50,0
45.704563,45.79028,60,55,0
45.79028,45.87599,65,50,0
45.87599,45.961708,69,50,0
45.961708,46.04742,72,50,0
46.04742,46.133137,65,55,0
46.133137,46.21885,69,50,0
46.21885,46.304565,72,50,0
46.304565,46.404564,77,50,0
46.404564,46.4928,76,74,0
46.4928,46.581036,82,50,0
46.581036,46.66724,79,50,0
46.66724,46.75345,76,50,0
46.75345,46.839657,72,54,0
46.839657,46.92586,79,50,0
46.92586,47.01207,76,50,0
47.01207,47.098278,72,50,0
47.098278,47.184483,70,56,0
47.184483,47.27069,76,50,0
47.27069,47.356895,72,50,0
47.356895,47.443104,70,50,0
47.443104,47.529312,67,54,0
47.529312,47.615517,72,50,0
47.615517,47.701725,70,50,0
47.701725,47.799763,67,50,0
47.799763,47.88852,65,70,0
47.88852,47.974236,57,50,0
47.974236,48.059948,60,50,0
48.059948,48.145664,65,50,0
48.145664,48.231377,69,53,0
48.231377,48.317093,72,50,0
48.317093,48.402805,77,50,0
48.402805,48.48852,81,50,0
48.48852,48.574234,72,55,0
48.574234,48.65995,77,50,0
48.65995,48.745663,81,50,0
48.745663,48.83138,84,50,0
48.83138,48.91709,77,55,0
48.91709,49.002808,81,50,0
49.002808,49.08852,84,50,0
49.08852,49.188522,89,50,0
49.188522,49.276756,82,74,0
49.276756,49.36499,88,50,0
49.36499,49.4512,84,50,0
49.4512,49.537403,82,50,0
49.537403,49.62361,79,54,0
49.62361,49.70982,84,50,0
49.70982,49.796024,82,50,0
49.796024,49.882233,79,50,0
49.882233,49.96844,76,56,0
49.96844,50.054646,82,50,0
50.054646,50.140854,79,50,0
50.140854,50.22706,76,50,0
50.22706,50.313267,70,54,0
50.313267,50.399475,79,50,0
50.399475,50.48568,76,50,0
50.48568,50.58372,70,50,0
50.58372,50.672478,65,77,0
50.672478,50.75819,57,55,0
50.75819,50.843906,60,55,0
50.843906,50.92962,65,55,0
50.92962,51.015335,69,58,0
51.015335,51.101048,72,55,0
51.101048,51.186764,77,55,0
51.186764,51.272476,81,55,0
51.272476,51.358192,72,61,0
51.358192,51.443905,77,55,0
51.443905,51.52962,81,56,0
51.52962,51.615334,84,56,0
51.615334,51.70105,77,61,0
51.70105,51.786762,81,56,0
51.786762,51.872475,84,56,0
51.872475,51.990585,89,56,0
52.079346,52.16506,57,62,0
52.16506,52.250774,60,62,0
52.250774,52.336487,65,62,0
52.336487,52.422203,69,66,0
52.422203,52.507915,72,62,0
52.507915,52.593628,77,62,0
52.593628,52.679344,81,62,0
52.679344,52.765057,72,69,0
52.765057,52.850773,77,63,0
52.850773,52.936485,81,63,0
52.936485,53.0222,84,63,0
53.0222,53.107914,77,69,0
53.107914,53.19363,81,63,0
53.19363,53.279343,84,63,0
53.279343,53.399345,89,63,0
53.488102,53.573814,58,63,0
53.573814,53.65953,61,70,0
53.65953,53.745243,65,70,0
53.745243,53.83096,70,73,0
53.83096,53.91667,73,70,0
53.91667,54.002388,77,70,0
54.002388,54.0881,82,70,0
54.0881,54.173817,73,77,0
54.173817,54.25953,77,70,0
54.25953,54.345245,82,70,0
54.345245,54.430958,85,70,0
54.430958,54.51667,77,78,0
54.51667,54.602386,82,71,0
54.602386,54.6881,85,71,0
54.6881,54.820843,89,71,0
54.820843,54.908054,76,79,0
54.908054,54.99476,88,70,0
54.99476,55.081463,85,70,0
55.081463,55.168167,82,70,0
55.168167,55.254875,76,80,0
55.254875,55.34158,73,68,0
55.34158,55.428284,70,70,0
55.428284,55.51499,64,70,0
55.51499,55.601696,61,79,0
55.601696,55.6884,63,68,0
55.6884,55.775105,61,69,0
55.775105,55.861813,60,69,0
55.861813,55.948517,58,78,0
55.948517,56.03522,61,72,0
56.03522,56.121925,60,76,0
56.121925,56.224667,58,81,0
56.224667,56.5735,57,86,0
58.519745,58.70267,60,40,0
58.70267,58.87709,62,45,0
58.87709,59.05151,60,41,0
59.05151,59.22593,58,45,0
59.22593,59.400345,57,40,0
59.400345,59.574764,55,43,0
59.574764,59.719925,53,40,0
59.768314,60.12566,53,45,0
61.36572,61.426693,63,38,0
61.426693,61.487667,65,40,0
61.487667,61.548645,63,38,0
61.548645,61.723064,65,45,0
61.723064,61.89748,63,41,0
61.89748,62.0719,62,45,0
62.0719,62.24632,60,40,0
62.24632,62.42074,58,43,0
62.42074,62.5659,57,40,0
62.614285,62.97163,57,45,0
63.14605,63.32047,72,44,0
63.32047,63.494884,74,49,0
63.494884,63.669304,72,45,0
63.669304,63.843723,70,49,0
63.843723,64.03727,69,44,0
64.03727,64.21169,67,47,0
64.21169,64.348885,65,44,0
64.56904,64.743454,75,44,0
64.743454,64.91787,77,49,0
64.91787,65.09229,75,45,0
65.09229,65.26671,74,49,0
65.26671,65.44113,72,44,0
65.44113,65.61555,70,47,0
65.61555,65.79847,69,44,0
65.79847,65.971886,77,49,0
65.971886,66.145294,75,47,0
66.145294,66.3187,74,47,0
66.3187,66.49212,72,47,0
66.49212,66.66553,70,44,0
66.66553,66.84517,69,44,0
66.84517,67.01562,77,53,0
67.01562,67.18607,75,49,0
67.18607,67.35653,74,46,0
67.35653,67.526985,72,46,0
67.526985,67.64062,70,49,0
67.64062,67.75768,69,49,0
67.75768,67.87816,77,54,0
67.87816,67.99245,75,49,0
67.99245,68.106735,74,49,0
68.106735,68.221016,72,49,0
68.221016,68.31084,70,49,0
68.31084,68.40066,69,49,0
68.40066,68.486374,77,58,0
68.486374,68.57209,75,50,0
68.57209,68.6578,74,50,0
68.6578,68.743515,72,50,0
68.743515,68.836685,70,50,0
68.836685,68.929855,69,50,0
68.929855,69.01606,77,59,0
69.01606,69.102264,75,52,0
69.102264,69.18848,74,52,0
69.18848,69.27468,72,52,0
69.27468,69.372086,70,52,0
69.372086,69.46948,69,52,0
69.46948,69.55991,78,61,0
69.55991,69.64957,77,55,0
69.64957,69.720314,75,56,0
69.720314,69.7904,74,57,0
69.7904,69.859825,72,58,0
69.859825,69.934586,70,58,0
69.934586,70.02761,69,59,0
70.02761,70.21394,79,50,0
70.21394,70.38938,77,46,0
70.38938,70.56482,75,50,0
70.56482,70.74026,74,46,0
70.74026,70.915695,72,46,0
70.915695,71.09114,70,46,0
71.09114,71.44202,69,50,0
71.44202,71.81482,70,47,0
71.81482,72.16366,71,53,0
72.16366,72.5125,72,49,0
72.68691,72.866554,78,45,0
72.866554,73.03701,81,50,0
73.03701,73.20942,79,46,0
73.20942,73.382835,77,50,0
73.382835,73.556244,75,44,0
73.556244,73.72965,74,46,0
73.72965,73.90306,72,44,0
73.90306,74.07648,69,50,0
74.07648,74.249886,70,41,0
74.249886,74.423294,71,47,0
74.423294,74.6156,72,44,0
74.6156,74.96444,73,58,0
74.96444,75.48769,74,53,0
75.48769,75.66842,77,56,0
75.66842,75.838875,79,64,0
75.838875,76.01329,74,58,0
76.01329,76.18771,77,62,0
76.18771,76.36213,75,58,0
76.36213,76.536545,77,64,0
76.536545,76.71097,72,58,0
76.71097,76.88538,75,64,0
76.88538,77.05981,74,59,0
77.05981,77.23422,79,67,0
77.23422,77.41604,74,59,0
77.41604,77.59046,77,71,0
77.59046,77.76488,75,64,0
77.76488,77.93929,77,71,0
77.93929,78.113716,72,62,0
78.113716,78.28813,74,70,0
78.28813,78.459564,75,60,0
78.459564,78.63099,76,62,0
78.63099,78.80242,77,64,0
78.80242,78.97483,78,70,0
78.97483,79.14725,79,66,0
79.14725,79.31966,81,69,0
79.31966,79.49207,82,70,0
79.49207,79.66548,84,71,0
79.66548,79.8389,85,76,0
79.8389,80.01231,86,81,0
80.01231,80.2123,76,64,0
80.2123,80.55913,79,58,0
80.55913,80.905945,77,53,0
81.07936,81.286255,77,45,0
81.07936,81.286255,65,38,0
81.286255,81.46169,79,50,0
81.286255,81.46169,67,42,0
81.46169,81.63713,77,46,0
81.46169,81.63713,65,39,0
81.63713,81.81257,75,50,0
81.63713,81.81257,63,42,0
81.81257,81.98801,74,46,0
81.81257,81.98801,62,39,0
81.98801,82.163445,72,46,0
81.98801,82.163445,60,39,0
82.163445,82.33888,70,46,0
82.163445,82.33888,58,39,0
82.33888,82.68976,69,42,0
82.33888,82.68976,57,42,0
82.68976,83.06257,70,47,0
82.68976,83.06257,58,39,0
83.06257,83.41141,71,53,0
83.06257,83.41141,59,45,0
83.41141,83.93466,72,49,0
83.41141,83.93466,60,41,0
83.93466,84.11648,78,45,0
83.93466,84.11648,66,38,0
84.11648,84.286934,81,50,0
84.11648,84.286934,69,42,0
84.286934,84.45935,79,46,0
84.286934,84.45935,67,39,0
84.45935,84.63276,77,50,0
84.45935,84.63276,65,42,0
84.63276,84.80617,75,43,0
84.63276,84.80617,63,43,0
84.80617,84.979576,74,46,0
84.80617,84.979576,62,39,0
84.979576,85.15299,72,43,0
84.979576,85.15299,60,43,0
85.15299,85.3264,69,50,0
85.15299,85.3264,57,42,0
85.3264,85.49981,70,44,0
85.3264,85.49981,58,44,0
85.49981,85.67322,71,47,0
85.49981,85.67322,59,39,0
85.67322,85.86553,72,45,0
85.67322,85.86553,60,45,0
85.86553,86.21436,73,53,0
85.86553,86.21436,61,45,0
86.21436,86.737625,74,49,0
86.21436,86.737625,62,41,0
86.737625,86.91834,77,56,0
86.91834,87.0888,79,63,0
87.0888,87.263214,74,57,0
87.263214,87.43764,77,62,0
87.43764,87.61205,75,58,0
86.91834,87.61205,68,45,0
87.61205,87.786476,77,63,0
87.786476,87.96089,72,58,0
87.61205,87.96089,69,45,0
87.96089,88.13531,75,64,0
88.13531,88.30973,74,59,0
87.96089,88.30973,70,46,0
88.30973,88.484146,79,67,0
88.484146,88.66596,74,59,0
88.66596,88.840385,77,71,0
88.840385,89.0148,75,64,0
88.30973,89.0148,68,46,0
89.0148,89.189224,77,71,0
89.189224,89.36364,72,63,0
89.0148,89.36364,69,47,0
89.36364,89.538055,75,71,0
89.36364,89.538055,70,59,0
89.538055,89.70949,74,63,0
89.538055,89.70949,62,53,0
89.70949,89.88091,75,67,0
89.70949,89.88091,63,56,0
89.88091,90.052345,77,71,0
89.88091,90.052345,65,60,0
90.052345,90.224754,78,76,0
90.052345,90.224754,66,64,0
90.224754,90.39717,79,72,0
90.224754,90.39717,67,61,0
90.39717,90.483376,81,76,0
90.39717,90.483376,69,64,0
90.56959,90.66892,82,80,0
90.56959,90.66892,70,67,0
90.76826,91.11508,70,71,0
90.76826,91.11508,58,71,0
91.11508,91.488495,72,69,0
91.11508,91.488495,60,58,0
91.488495,91.83531,73,49,0
91.488495,91.83531,61,41,0
91.83531,92.278595,74,45,0
91.83531,92.278595,62,38,0
92.278595,92.36679,70,59,0
92.36679,92.454506,69,61,0
92.454506,92.541985,70,62,0
92.541985,92.62919,71,62,0
92.62919,92.71596,72,64,0
92.71596,92.80266,73,65,0
92.80266,92.888885,74,67,0
92.888885,92.97491,75,69,0
92.97491,93.06062,76,70,0
93.06062,93.146126,77,71,0
93.146126,93.23135,78,73,0
93.23135,93.316185,79,74,0
93.316185,93.40082,80,76,0
93.40082,93.485085,81,78,0
93.485085,93.56936,82,78,0
93.56936,93.63832,70,53,0
93.63832,93.70728,72,48,0
93.70728,93.77625,70,45,0
93.77625,93.845215,69,45,0
93.845215,93.914185,70,45,0
93.914185,94.18795,74,52,0
94.18795,94.2893,72,41,0
93.914185,94.2893,63,42,0
94.2893,94.63892,70,50,0
94.2893,94.63892,62,42,0
94.98375,95.68399,61,96,0
94.98375,95.68399,53,79,0
95.68399,96.208,59,96,0
96.208,96.29521,61,70,0
96.29521,96.382416,63,71,0
95.68399,96.382416,54,85,0
96.382416,96.73745,54,81,0
96.73745,97.110115,57,77,0
96.73745,97.110115,51,64,0
97.110115,97.458954,58,79,0
97.458954,97.64414,53,65,0
97.110115,97.82932,49,67,0
97.82932,98.53108,61,96,0
97.82932,98.53108,53,79,0
98.53108,99.24537,60,96,0
98.53108,99.24537,55,96,0
99.24537,99.959656,70,96,0
99.24537,99.959656,60,96,0
99.959656,100.14258,68,96,0
99.959656,100.14258,60,81,0
100.3228,101.03286,77,102,0
100.3228,101.03286,68,86,0
100.3228,101.03286,65,86,0
101.03286,101.22036,76,96,0
101.03286,101.22036,67,81,0
101.03286,101.22036,64,81,0
101.40786,101.596535,77,102,0
101.40786,101.596535,68,86,0
101.40786,101.596535,65,86,0
101.596535,101.69303,60,36,0
101.68426,101.77197,58,31,0
101.77197,101.86847,60,36,0
101.859695,101.94742,56,32,0
101.94742,102.04279,60,36,0
102.03412,102.12083,55,31,0
102.12083,102.2162,60,42,0
102.20753,102.294235,53,31,0
102.294235,102.38961,60,36,0
102.38094,102.46764,52,31,0
102.46764,102.56302,60,36,0
102.55435,102.64106,53,30,0
102.64106,102.74548,60,36,0
102.73599,102.83093,55,31,0
102.83093,102.92742,60,45,0
102.91865,103.00637,56,31,0
103.00637,103.1012,65,36,0
103.092575,103.17878,63,31,0
103.17878,103.27361,65,36,0
103.26499,103.3512,61,32,0
103.3512,103.44602,65,36,0
103.4374,103.52361,60,31,0
103.52361,103.61844,65,42,0
103.60982,103.69602,58,31,0
103.69602,103.79085,65,36,0
103.782234,103.86844,57,31,0
103.86844,103.963264,65,36,0
103.95464,104.04085,58,30,0
104.04085,104.141464,65,36,0
104.13232,104.22378,60,31,0
104.22378,104.31971,65,49,0
104.31099,104.39819,61,34,0
104.39819,104.492485,65,39,0
104.48391,104.569626,61,34,0
104.569626,104.66391,67,39,0
104.65534,104.74105,65,35,0
104.74105,104.83534,67,39,0
104.82677,104.91248,65,34,0
104.91248,105.00677,68,46,0
104.9982,105.08391,65,34,0
105.08391,105.1782,68,39,0
105.169624,105.25534,65,34,0
105.25534,105.349625,70,39,0
105.34106,105.426765,64,33,0
105.426765,105.526764,70,39,0
105.51768,105.60859,64,34,0
105.60859,105.797264,65,78,0
105.797264,105.88298,60,36,0
105.797264,105.89155,72,42,0
105.88298,105.9687,70,37,0
105.9687,106.054405,60,36,0
105.9687,106.06298,72,43,0
106.054405,106.14012,68,39,0
106.14012,106.22584,60,36,0
106.14012,106.234406,72,44,0
106.22584,106.311554,67,39,0
106.311554,106.39726,60,44,0
106.311554,106.40584,72,53,0
106.39726,106.48298,65,39,0
106.48298,106.568695,60,38,0
106.48298,106.57726,72,46,0
106.568695,106.65441,64,39,0
106.65441,106.74012,60,39,0
106.65441,106.748695,72,47,0
106.74012,106.825836,65,40,0
106.825836,106.9173,60,40,0
106.825836,106.926445,72,48,0
106.9173,107.008766,67,41,0
107.008766,107.09858,60,52,0
107.008766,107.10757,72,61,0
107.09858,107.1884,68,42,0
107.1884,107.27461,65,42,0
107.1884,107.28323,77,50,0
107.27461,107.36082,75,43,0
107.36082,107.44702,65,42,0
107.36082,107.45564,77,50,0
107.44702,107.53323,73,46,0
107.53323,107.61944,65,42,0
107.53323,107.62806,77,52,0
107.61944,107.70564,72,45,0
107.70564,107.791855,65,51,0
107.70564,107.800476,77,62,0
107.791855,107.87806,70,45,0
107.87806,107.964264,65,44,0
107.87806,107.972885,77,54,0
107.964264,108.050476,69,47,0
108.050476,108.13668,65,44,0
108.050476,108.1453,77,54,0
108.13668,108.222885,70,46,0
108.222885,108.31325,65,46,0
108.222885,108.32228,77,56,0
108.31325,108.40361,72,47,0
108.40361,108.489815,65,63,0
108.40361,108.498436,77,77,0
108.489815,108.57602,73,54,0
108.57602,108.66223,65,52,0
108.57602,108.67085,77,62,0
108.66223,108.748436,73,54,0
108.748436,108.83464,67,53,0
108.748436,108.84326,79,63,0
108.83464,108.92085,77,57,0
108.92085,109.00706,67,53,0
108.92085,109.01568,79,63,0
109.00706,109.09326,77,56,0
109.09326,109.18047,68,65,0
109.09326,109.18919,80,76,0
109.18047,109.267685,77,57,0
109.267685,109.35489,68,55,0
109.267685,109.36361,80,67,0
109.35489,109.4421,77,58,0
109.4421,109.53192,70,57,0
109.4421,109.5409,82,67,0
109.53192,109.62174,76,57,0
109.62174,109.72591,70,58,0
109.62174,109.73633,82,68,0
109.72591,109.83008,76,60,0
109.83008,110.03142,77,94,0
110.03142,110.391785,89,93,0
110.391785,110.57142,89,89,0
110.57142,110.65914,88,90,0
110.65914,110.74686,85,73,0
110.74686,110.83458,82,78,0
110.83458,110.9223,79,74,0
110.9223,111.01002,73,56,0
111.01002,111.09774,72,61,0
110.9223,111.09774,76,67,0
111.09774,111.185455,73,51,0
111.185455,111.27318,70,60,0
111.09774,111.27318,76,61,0
111.27318,111.45774,77,83,0
111.27318,111.47452,68,77,0
111.47452,111.834885,77,93,0
111.834885,112.01452,77,89,0
112.01452,112.10224,76,90,0
112.10224,112.189964,73,75,0
112.189964,112.27768,70,78,0
112.27768,112.3654,67,74,0
112.3654,112.45312,61,56,0
112.45312,112.54084,60,61,0
112.3654,112.54084,64,67,0
112.54084,112.642876,61,51,0
112.642876,112.74492,58,60,0
112.54084,112.74492,64,61,0
112.74492,113.10637,65,83,0
112.74492,113.10637,56,70,0
114.53553,115.348785,58,88,0
115.348785,115.43915,61,71,0
115.43915,115.5405,60,71,0
115.5405,115.641846,58,64,0
115.641846,116.01222,56,81,0
116.01222,116.39439,53,73,0
117.462105,118.27536,63,88,0
118.27536,118.36572,66,71,0
118.36572,118.46707,65,71,0
118.46707,118.56842,63,64,0
118.56842,118.93879,61,81,0
118.93879,119.319145,58,73,0
119.319145,120.04058,73,79,0
120.04058,120.56759,72,83,0
120.56759,120.65795,73,70,0
120.65795,120.748314,75,70,0
120.748314,120.92903,67,85,0
120.04058,121.20012,63,72,0
121.20012,121.29433,66,71,0
121.10976,121.29433,69,80,0
121.29433,121.395676,65,71,0
121.395676,121.492805,63,64,0
121.492805,121.854256,61,81,0
121.854256,122.23887,58,73,0
121.492805,122.23887,70,81,0
122.23887,122.960304,78,79,0
122.960304,123.48731,77,83,0
123.48731,123.577675,78,70,0
123.577675,123.66803,80,70,0
123.66803,123.848755,72,85,0
122.960304,124.11984,68,72,0
124.11984,124.21405,71,71,0
124.02948,124.21405,74,80,0
124.21405,124.3154,70,71,0
124.3154,124.41253,68,64,0
124.41253,124.77397,66,81,0
124.77397,125.15859,63,73,0
124.41253,125.15859,75,81,0
126.22631,127.12992,80,79,0
126.22631,127.12992,83,93,0
127.12992,127.21912,82,80,0
127.12992,127.21912,78,68,0
127.211006,127.300705,77,62,0
127.211006,127.300705,80,74,0
127.29208,127.4645,75,86,0
127.29208,127.4645,78,93,0
127.63692,128.54053,78,79,0
127.63692,128.54053,82,93,0
128.54053,128.62971,80,80,0
128.54053,128.62971,77,68,0
128.62161,128.71132,75,62,0
128.62161,128.71132,78,74,0
128.7027,129.22824,77,91,0
128.7027,129.22824,73,77,0
129.22824,129.32764,78,77,0
129.22824,129.32764,75,64,0
129.3186,129.418,77,64,0
129.3186,129.418,80,77,0
129.40897,129.58969,68,79,0
129.40897,129.58969,72,93,0
129.77042,129.95114,73,88,0
129.77042,129.95114,70,74,0
130.13185,130.65741,72,77,0
130.13185,130.65741,75,91,0
130.65741,130.7568,77,77,0
130.65741,130.7568,73,64,0
130.74777,130.84717,75,64,0
130.74777,130.84717,78,77,0
130.83813,131.01886,67,79,0
130.83813,131.01886,70,93,0
131.19957,131.3803,72,88,0
131.19957,131.3803,69,74,0
131.56102,132.08658,73,91,0
132.08658,132.17694,75,77,0
132.17694,132.26729,77,77,0
131.56102,132.26729,70,77,0
132.26729,132.79285,78,91,0
132.79285,132.88321,80,77,0
132.88321,132.97357,82,77,0
132.26729,132.97357,70,77,0
132.97357,133.49911,83,91,0
133.49911,133.58948,85,77,0
133.58948,133.67984,87,77,0
132.97357,133.67984,78,77,0
133.67984,133.86057,70,91,0
133.67984,133.86057,65,77,0
134.04129,134.22202,69,88,0
134.04129,134.22202,63,74,0
134.40274,134.59142,70,90,0
134.40274,134.59142,61,75,0
134.59142,134.68791,65,36,0
134.67914,134.76685,63,31,0
134.76685,134.86334,65,36,0
134.85457,134.94229,61,32,0
134.94229,135.03767,65,36,0
135.02899,135.1157,60,31,0
135.1157,135.21107,65,42,0
135.20241,135.28911,58,31,0
135.28911,135.38449,65,36,0
135.37582,135.46252,57,31,0
135.46252,135.55789,65,36,0
135.54922,135.63594,58,30,0
135.63594,135.74036,65,36,0
135.73087,135.8258,60,31,0
135.8258,135.9223,65,45,0
135.91353,136.00125,61,31,0
136.00125,136.09607,70,36,0
136.08745,136.17366,68,31,0
136.17366,136.2685,70,36,0
136.25987,136.34607,66,32,0
136.34607,136.4409,70,36,0
136.43228,136.5185,65,31,0
136.5185,136.61331,70,42,0
136.60469,136.6909,63,31,0
136.6909,136.78572,70,36,0
136.7771,136.86331,62,31,0
136.86331,136.95815,70,36,0
136.94952,137.03572,63,30,0
137.03572,137.13634,70,36,0
137.1272,137.21866,65,31,0
137.21866,137.31459,70,49,0
137.30586,137.39307,66,34,0
137.39307,137.48737,70,39,0
137.47879,137.5645,66,34,0
137.5645,137.65878,72,39,0
137.65022,137.73593,70,35,0
137.73593,137.83022,72,39,0
137.82164,137.90736,70,34,0
137.90736,138.00165,73,46,0
137.99307,138.07878,70,34,0
138.07878,138.17307,73,39,0
138.1645,138.25021,70,34,0
138.25021,138.3445,75,39,0
138.33592,138.42165,69,33,0
138.42165,138.52164,75,39,0
138.51256,138.60345,69,34,0
138.60345,138.79214,70,74,0
138.79214,138.87785,65,40,0
138.79214,138.88643,77,48,0
138.87785,138.96358,75,42,0
138.96358,139.04929,65,40,0
138.96358,139.05786,77,48,0
139.04929,139.135,73,43,0
139.135,139.22072,65,40,0
139.135,139.22928,77,50,0
139.22072,139.30643,72,45,0
139.30643,139.39214,65,49,0
139.30643,139.40071,77,59,0
139.39214,139.47786,70,45,0
139.47786,139.56357,65,44,0
139.47786,139.57214,77,54,0
139.56357,139.64928,69,45,0
139.64928,139.735,65,44,0
139.64928,139.74358,77,54,0
139.735,139.82071,70,45,0
139.82071,139.91217,65,46,0
139.82071,139.92133,77,56,0
139.91217,140.00363,72,47,0
140.00363,140.09346,65,61,0
140.00363,140.10245,77,72,0
140.09346,140.18327,73,48,0
140.18327,140.26949,70,48,0
140.18327,140.2781,82,58,0
140.26949,140.3557,80,50,0
140.3557,140.4419,70,50,0
140.3557,140.45052,82,59,0
140.4419,140.5281,78,55,0
140.5281,140.61432,70,50,0
140.5281,140.62294,82,62,0
140.61432,140.70052,77,54,0
140.70052,140.78673,70,62,0
140.70052,140.79535,82,73,0
140.78673,140.87294,75,54,0
140.87294,140.95914,70,53,0
140.87294,140.96776,82,66,0
140.95914,141.04535,74,55,0
141.04535,141.13156,70,53,0
141.04535,141.14018,82,66,0
141.13156,141.21776,75,55,0
141.21776,141.30812,70,57,0
141.21776,141.31715,82,69,0
141.30812,141.39848,77,58,0
141.39848,141.4847,70,70,0
141.39848,141.49332,82,86,0
141.4847,141.57089,78,66,0
141.57089,141.6571,70,63,0
141.57089,141.66573,82,75,0
141.6571,141.74332,78,68,0
141.74332,141.82951,72,66,0
141.74332,141.83813,84,78,0
141.82951,141.91573,82,71,0
141.91573,142.00194,72,66,0
141.91573,142.01056,84,78,0
142.00194,142.08813,82,71,0
142.08813,142.17535,73,82,0
142.08813,142.18407,85,97,0
142.17535,142.26256,82,71,0
142.26256,142.34976,73,69,0
142.26256,142.35849,85,86,0
142.34976,142.43698,82,74,0
142.43698,142.5268,75,73,0
142.43698,142.53578,87,86,0
142.5268,142.61662,81,73,0
142.61662,142.72078,75,75,0
142.61662,142.7312,87,87,0
142.72078,142.82495,81,77,0
142.82495,143.02629,82,100,0
143.02629,143.38666,89,97,0
143.38666,143.5663,89,93,0
143.5663,143.65402,87,94,0
143.65402,143.74173,84,74,0
143.74173,143.82945,81,81,0
143.82945,143.91718,77,77,0
143.91718,144.0049,75,58,0
144.0049,144.09262,74,64,0
144.09262,144.18033,75,53,0
144.18033,144.26805,72,63,0
144.26805,144.45262,70,87,0
144.46939,144.82976,77,97,0
144.82976,145.0094,77,93,0
145.0094,145.09712,75,94,0
145.09712,145.18483,72,73,0
145.18483,145.27255,69,81,0
145.27255,145.36028,65,74,0
145.36028,145.448,63,58,0
145.448,145.53572,62,64,0
145.53572,145.63776,63,53,0
145.63776,145.73979,60,63,0
145.73979,146.10124,58,87,0
148.62268,149.00003,61,43,0
148.62268,149.00003,58,36,0
149.00003,149.3774,59,40,0
149.00003,149.3774,56,34,0
148.62268,149.3774,63,36,0
151.51978,151.91978,66,36,0
151.91978,152.50311,65,34,0
152.51978,152.73914,65,34,0
152.71979,152.93402,66,34,0
151.51978,153.12022,63,30,0
151.51978,153.12022,60,30,0
152.91333,153.12022,65,34,0
153.12022,153.52023,66,36,0
153.52023,154.10356,65,34,0
154.12022,154.33958,65,34,0
154.32022,154.53432,66,34,0
153.12022,154.71925,63,30,0
153.12022,154.71925,60,30,0
154.51378,154.71925,65,34,0
154.71925,155.11661,60,30,0
154.71925,155.11661,63,30,0
154.71925,155.31528,66,36,0
155.31528,155.51396,65,34,0
155.51396,156.10606,66,36,0
156.10606,156.30705,65,29,0
156.30705,156.4084,66,34,0
156.4084,156.50926,65,29,0
156.50926,156.60963,66,34,0
156.60963,156.70955,65,29,0
156.70955,156.80888,66,34,0
156.80888,156.90765,65,29,0
156.90765,157.00597,66,34,0
157.00597,157.10349,65,30,0
157.10349,157.19946,66,34,0
157.19946,157.29364,65,30,0
157.29364,157.38649,66,34,0
157.38649,157.47758,65,29,0
157.47758,157.56747,66,34,0
157.56747,157.65576,65,29,0
157.65576,157.74278,66,34,0
157.74278,157.8284,65,31,0
157.8284,157.9128,67,34,0
157.9128,157.99683,65,29,0
157.99683,158.08038,67,35,0
158.08038,158.16347,65,30,0
158.16347,158.24606,67,36,0
158.24606,158.32988,65,31,0
158.32988,158.41367,67,37,0
158.41367,158.49785,65,33,0
158.49785,158.58237,67,39,0
158.58237,158.66724,65,34,0
158.66724,158.75247,67,40,0
158.75247,158.83817,65,34,0
158.83817,158.92421,67,41,0
158.92421,159.01062,65,35,0
159.01062,159.0974,67,42,0
159.0974,159.1846,65,39,0
159.36005,159.53548,65,42,0
159.53548,159.71092,77,48,0
159.71092,159.88635,65,42,0
160.0618,160.23723,65,42,0
160.23723,160.41267,77,47,0
160.41267,160.61005,65,42,0
160.78445,160.95888,65,42,0
160.95888,161.1333,77,48,0
161.1333,161.30771,65,42,0
161.30771,161.48213,77,48,0
162.18024,162.35364,65,42,0
162.35364,162.52705,77,48,0
162.52705,162.70045,65,42,0
162.87387,163.04729,65,42,0
163.04729,163.22069,77,47,0
163.22069,163.413,65,42,0
163.58742,163.76184,65,42,0
163.76184,163.93625,77,48,0
163.93625,164.11067,65,42,0
164.11067,164.46582,77,48,0
164.9851,165.15953,77,56,0
165.15953,165.50836,89,67,0
165.68279,165.8572,65,47,0
165.8572,166.21344,77,54,0
166.38785,166.56227,77,66,0
166.56227,167.08539,89,78,0
167.08539,167.4276,77,71,0
167.4276,167.51204,79,67,0
167.51204,167.59612,81,70,0
167.59612,167.67924,82,72,0
167.67924,167.76212,84,73,0
167.76212,167.84499,86,75,0
167.84499,167.9281,84,73,0
167.9281,168.01144,82,74,0
168.01144,168.09477,81,70,0
168.09477,168.1784,79,71,0
168.1784,168.2622,77,69,0
168.2622,168.34601,76,68,0
168.34601,168.43018,74,66,0
168.43018,168.51445,72,63,0
168.51445,168.59871,70,62,0
168.59871,168.68298,69,60,0
168.68298,168.76726,67,58,0
168.76726,168.85152,65,57,0
168.85152,168.93579,64,55,0
168.93579,169.02223,67,54,0
169.02223,169.10893,65,49,0
169.10893,169.19565,69,54,0
169.19565,169.28235,67,48,0
169.28235,169.36905,70,54,0
169.36905,169.45576,69,50,0
169.45576,169.54247,72,54,0
169.54247,169.62909,70,49,0
169.62909,169.71474,74,54,0
169.71474,169.80116,72,48,0
169.80116,169.88837,75,54,0
169.88837,169.97636,74,49,0
169.97636,170.0652,77,54,0
170.0652,170.15482,76,48,0
170.15482,170.24535,79,53,0
170.24535,170.33626,77,49,0
170.33626,170.5117,75,50,0
170.33626,170.5117,63,42,0
170.5117,170.68713,74,46,0
170.5117,170.68713,62,39,0
170.68713,170.86258,72,46,0
170.68713,170.86258,60,39,0
170.86258,171.03801,70,46,0
170.86258,171.03801,58,39,0
171.03801,171.3889,69,42,0
171.03801,171.3889,57,42,0
171.3889,171.7617,70,47,0
171.3889,171.7617,58,39,0
171.7617,172.11053,71,53,0
171.7617,172.11053,59,45,0
172.11053,172.63379,72,49,0
172.11053,172.63379,60,41,0
172.63379,172.7247,66,48,0
172.7247,172.81561,78,45,0
172.81561,172.90083,69,43,0
172.90083,172.98607,81,46,0
172.98607,173.07227,67,53,0
173.07227,173.15848,79,46,0
173.15848,173.24518,65,52,0
173.24518,173.3319,77,47,0
173.3319,173.4186,63,51,0
173.4186,173.5053,75,46,0
173.5053,173.59201,62,51,0
173.59201,173.67871,74,46,0
173.67871,173.76541,60,51,0
173.76541,173.85213,72,46,0
173.85213,173.93883,57,50,0
173.93883,174.02553,69,42,0
174.02553,174.11224,58,47,0
174.11224,174.19894,70,42,0
174.19894,174.28564,59,49,0
174.28564,174.37236,71,42,0
174.37236,174.4685,60,49,0
174.4685,174.56467,72,42,0
174.56467,174.9135,73,53,0
174.56467,174.9135,61,45,0
174.9135,175.43675,74,49,0
174.9135,175.43675,62,41,0
175.43675,175.52711,65,56,0
175.52711,175.61748,77,52,0
175.61748,175.7027,67,64,0
175.7027,175.78793,79,58,0
175.78793,175.87514,62,57,0
175.87514,175.96236,74,52,0
175.96236,176.04956,65,62,0
176.04956,176.13676,77,59,0
176.13676,176.22398,63,58,0
176.22398,176.31119,75,53,0
176.31119,176.39839,65,64,0
176.39839,176.48561,77,58,0
176.48561,176.57281,60,58,0
176.57281,176.66002,72,51,0
176.66002,176.74724,63,64,0
176.74724,176.83444,75,59,0
176.83444,176.92165,62,59,0
176.92165,177.00887,74,53,0
177.00887,177.09607,67,67,0
177.09607,177.18327,79,60,0
177.18327,177.27419,62,59,0
177.27419,177.3651,74,55,0
177.3651,177.4523,65,71,0
177.4523,177.53952,77,67,0
177.53952,177.62672,63,64,0
177.62672,177.71393,75,59,0
177.71393,177.80115,65,72,0
177.80115,177.88835,77,67,0
177.88835,177.97556,60,63,0
177.97556,178.06277,72,60,0
178.06277,178.14998,63,71,0
178.14998,178.23718,75,64,0
178.23718,178.3229,62,64,0
178.3229,178.40862,74,57,0
178.40862,178.49434,63,67,0
178.49434,178.58005,75,58,0
178.58005,178.66576,65,71,0
178.66576,178.75148,77,64,0
178.75148,178.83768,66,76,0
178.83768,178.92389,78,69,0
178.92389,179.0101,67,76,0
179.0101,179.0963,79,69,0
179.0963,179.18251,69,76,0
179.18251,179.26872,81,66,0
179.26872,179.36612,70,78,0
179.36612,179.46352,82,70,0
179.46352,179.80835,70,71,0
179.46352,179.80835,58,71,0
179.80835,180.18076,72,69,0
179.80835,180.18076,60,58,0
180.18076,180.52759,73,49,0
180.18076,180.52759,61,41,0
180.52759,180.97087,74,45,0
180.52759,180.97087,62,38,0
180.97087,181.05907,70,59,0
181.05907,181.14677,69,61,0
181.14677,181.23425,70,62,0
181.23425,181.32146,71,62,0
181.32146,181.40823,72,64,0
181.40823,181.49493,73,65,0
181.49493,181.58116,74,67,0
181.58116,181.66718,75,69,0
181.66718,181.7529,76,70,0
181.7529,181.8384,77,71,0
181.8384,181.92363,78,73,0
181.92363,182.00845,79,74,0
182.00845,182.0931,80,76,0
182.0931,182.17735,81,77,0
182.17735,182.26163,82,78,0
182.26163,182.3306,70,53,0
182.3306,182.39955,72,48,0
182.39955,182.46852,70,45,0
182.46852,182.53749,69,45,0
182.53749,182.60646,70,45,0
182.60646,182.88022,74,52,0
182.88022,182.98157,72,41,0
182.60646,182.98157,63,42,0
182.98157,183.34743,70,50,0
182.98157,183.34743,62,42,0
183.71327,184.39563,74,80,0
183.71327,184.39563,65,67,0
184.39563,184.47159,72,53,0
184.47159,184.54555,74,50,0
184.54555,184.62057,72,53,0
184.62057,184.69505,74,50,0
184.69505,184.76791,72,53,0
184.76791,184.8422,71,49,0
184.8422,184.91512,72,49,0
184.91362,185.00345,74,49,0
185.00345,185.09326,75,50,0
184.39563,185.09326,67,45,0
185.09326,185.44829,67,57,0
185.44829,185.82565,69,54,0
185.44829,185.82565,63,45,0
185.82565,186.18068,70,56,0
186.18068,186.37936,65,46,0
185.82565,186.56061,62,47,0
186.57497,187.2653,74,80,0
186.57497,187.2653,65,67,0
187.2653,187.44075,72,63,0
187.44075,187.49568,74,56,0
187.49568,187.55063,72,56,0
187.55063,187.60558,71,56,0
187.60558,187.85864,72,63,0
187.85864,187.94688,74,58,0
187.2653,187.94688,67,45,0
187.94688,188.12335,70,63,0
188.12335,188.1786,72,56,0
188.1786,188.23386,70,56,0
188.23386,188.28911,69,56,0
188.28911,188.54979,70,63,0
188.54979,188.64471,72,58,0
187.94688,188.64471,64,45,0
188.64471,189.04472,70,56,0
189.04472,189.22437,69,46,0
188.64471,189.40315,65,47,0
189.40315,190.09349,79,80,0
189.40315,190.09349,67,67,0
190.09349,190.26894,77,63,0
190.26894,190.32388,79,56,0
190.32388,190.37883,77,56,0
190.37883,190.43376,76,56,0
190.43376,190.68684,77,63,0
190.68684,190.77507,79,58,0
190.09349,190.77507,72,45,0
190.77507,190.95154,75,63,0
190.95154,191.00679,77,56,0
191.00679,191.06204,75,56,0
191.06204,191.1173,74,56,0
191.1173,191.37798,75,63,0
191.37798,191.47292,77,58,0
190.77507,191.47292,69,45,0
191.47292,191.81973,75,56,0
191.81973,191.99313,74,46,0
191.47292,192.15207,70,47,0
192.66493,193.19296,86,73,0
192.58342,193.19296,82,69,0
192.50189,193.19296,74,54,0
193.356,193.8797,86,78,0
193.27448,193.8797,82,73,0
193.19296,193.8797,74,61,0
194.04185,194.56102,86,81,0
193.96078,194.56102,82,76,0
193.8797,194.56102,74,65,0
194.72318,194.93901,86,86,0
194.64209,194.93901,82,80,0
194.56102,194.93901,74,68,0
195.31168,195.98215,74,75,0
195.31168,195.98215,86,90,0
195.98215,196.15164,72,57,0
195.98215,196.15164,84,68,0
196.66795,197.33842,70,75,0
196.66795,197.33842,82,90,0
197.33842,197.50792,69,57,0
197.33842,197.50792,81,68,0
198.02434,198.52628,67,75,0
198.02434,198.52628,79,90,0
198.52628,198.86719,77,68,0
198.52628,198.86719,65,57,0
198.86719,199.2081,75,66,0
198.86719,199.2081,63,66,0
199.2081,199.54901,74,68,0
199.2081,199.54901,62,57,0
199.54901,199.76028,72,63,0
199.54901,199.76028,60,59,0
199.76028,200.11742,73,72,0
199.76028,200.11742,61,61,0
200.11742,200.29599,74,66,0
200.11742,200.29599,62,56,0
200.47456,200.83601,62,62,0
200.83601,201.53601,64,53,0
200.83601,201.53601,74,57,0
201.53601,201.71458,72,57,0
201.53601,201.71458,65,68,0
201.89316,202.2546,58,62,0
202.2546,202.9546,61,53,0
202.2546,202.9546,70,57,0
202.9546,203.13316,69,57,0
202.9546,203.13316,62,68,0
203.31174,203.66888,67,62,0
203.31174,203.66888,55,62,0
203.66888,204.02603,57,59,0
204.02603,204.38316,58,59,0
203.66888,204.38316,66,53,0
204.2046,204.56174,65,69,0
204.38316,204.74016,60,69,0
204.38316,204.74016,55,69,0
204.56174,204.91644,63,77,0
204.91644,205.27823,62,84,0
205.27823,205.46384,60,92,0
205.46384,205.5526,58,92,0
205.5526,205.6383,50,50,0
205.6383,205.72403,53,50,0
205.72403,205.80974,58,50,0
205.80974,205.89546,62,53,0
205.89546,205.98117,65,50,0
205.98117,206.06688,70,50,0
206.06688,206.1526,74,50,0
206.1526,206.23831,65,55,0
206.23831,206.32402,70,50,0
206.32402,206.40974,74,50,0
206.40974,206.49545,77,50,0
206.49545,206.58116,70,55,0
206.58116,206.66689,74,50,0
206.66689,206.7526,77,50,0
206.7526,206.8526,82,50,0
206.8526,206.94083,81,69,0
206.94083,207.02907,87,50,0
207.02907,207.11528,84,50,0
207.11528,207.20148,81,50,0
207.20148,207.28769,77,54,0
207.28769,207.3739,84,50,0
207.3739,207.4601,81,50,0
207.4601,207.54631,77,50,0
207.54631,207.63252,75,56,0
207.63252,207.71872,81,50,0
207.71872,207.80493,77,50,0
207.80493,207.89114,75,50,0
207.89114,207.97734,72,54,0
207.97734,208.06355,77,50,0
208.06355,208.14975,75,50,0
208.14975,208.2478,72,50,0
208.2478,208.33655,70,69,0
208.33655,208.42227,50,50,0
208.42227,208.50798,53,50,0
208.50798,208.59369,58,50,0
208.59369,208.67941,62,53,0
208.67941,208.76512,65,50,0
208.76512,208.85085,70,50,0
208.85085,208.93655,74,50,0
208.93655,209.02226,65,55,0
209.02226,209.10799,70,50,0
209.10799,209.1937,74,50,0
209.1937,209.2794,77,50,0
209.2794,209.36513,70,55,0
209.36513,209.45084,74,50,0
209.45084,209.53656,77,50,0
209.53656,209.63655,82,50,0
209.63655,209.7248,81,72,0
209.7248,209.81302,87,50,0
209.81302,209.89923,84,50,0
209.89923,209.98544,81,50,0
209.98544,210.07164,77,54,0
210.07164,210.15785,84,50,0
210.15785,210.24406,81,50,0
210.24406,210.33026,77,50,0
210.33026,210.41647,75,56,0
210.41647,210.50269,81,50,0
210.50269,210.58888,77,50,0
210.58888,210.6751,75,50,0
210.6751,210.7613,72,54,0
210.7613,210.8475,77,50,0
210.8475,210.93372,75,50,0
210.93372,211.03175,72,50,0
211.03175,211.12051,70,74,0
211.12051,211.20622,50,50,0
211.20622,211.29193,53,50,0
211.29193,211.37766,58,50,0
211.37766,211.46336,62,53,0
211.46336,211.54909,65,50,0
211.54909,211.6348,70,50,0
211.6348,211.7205,74,50,0
211.7205,211.80623,65,55,0
211.80623,211.89194,70,50,0
211.89194,211.97765,74,50,0
211.97765,212.06337,77,50,0
212.06337,212.14908,70,55,0
212.14908,212.2348,74,50,0
212.2348,212.32051,77,50,0
212.32051,212.43861,82,50,0
212.52737,212.6131,50,55,0
212.6131,212.6988,53,55,0
212.6988,212.78452,58,55,0
212.78452,212.87024,62,58,0
212.87024,212.95595,65,55,0
212.95595,213.04166,70,55,0
213.04166,213.12738,74,55,0
213.12738,213.21309,65,60,0
213.21309,213.2988,70,55,0
213.2988,213.38452,74,55,0
213.38452,213.47023,77,55,0
213.47023,213.55595,70,60,0
213.55595,213.64166,74,55,0
213.64166,213.72737,77,55,0
213.72737,213.84738,82,55,0
213.93613,214.02185,51,55,0
214.02185,214.10756,55,60,0
214.10756,214.19328,58,60,0
214.19328,214.27899,63,63,0
214.27899,214.3647,67,60,0
214.3647,214.45042,70,60,0
214.45042,214.53613,75,60,0
214.53613,214.62184,67,66,0
214.62184,214.70757,70,60,0
214.70757,214.79327,75,60,0
214.79327,214.879,79,60,0
214.879,214.9647,70,66,0
214.9647,215.05042,75,60,0
215.05042,215.13614,79,60,0
215.13614,215.26888,82,60,0
215.96303,216.04973,62,66,0
216.04973,216.13643,65,59,0
216.13643,216.22314,68,61,0
216.22314,216.30984,70,64,0
216.30984,216.37889,74,67,0
216.37889,216.44939,77,68,0
216.44939,216.52264,80,70,0
216.52264,216.61134,84,68,0
216.61134,216.739,82,65,0
216.739,216.91443,80,50,0
216.91443,217.08987,79,46,0
217.08987,217.2653,77,46,0
217.2653,217.44075,75,46,0
217.44075,217.79163,74,50,0
217.79163,218.16443,75,47,0
218.16443,218.51328,76,53,0
218.51328,218.8621,77,49,0
219.03653,219.07245,83,45,0
219.07245,219.10838,84,43,0
219.10838,219.14432,83,45,0
219.14432,219.18024,81,42,0
219.18024,219.21617,83,42,0
219.21617,219.38663,86,50,0
219.38663,219.55904,84,46,0
219.55904,219.73245,82,50,0
219.73245,219.90585,80,44,0
219.90585,220.07927,79,46,0
220.07927,220.25267,77,43,0
220.25267,220.42609,74,50,0
220.42609,220.5995,75,44,0
220.5995,220.7729,76,47,0
220.7729,220.96521,77,43,0
220.96521,221.31406,78,53,0
221.31406,221.83731,79,49,0
221.83731,222.01804,79,51,0
222.01804,222.18849,80,58,0
222.18849,222.3629,79,52,0
222.3629,222.53835,77,50,0
222.53835,222.71378,75,44,0
222.71378,222.88922,74,46,0
222.88922,223.06465,72,43,0
223.06465,223.41554,71,50,0
223.41554,223.78835,72,47,0
223.78835,224.13718,73,53,0
224.13718,224.48602,74,49,0
224.66043,224.84337,79,34,0
224.84337,225.01778,80,40,0
225.01778,225.1922,79,36,0
225.1922,225.36662,77,40,0
225.36662,225.54103,75,36,0
225.54103,225.71545,74,38,0
225.71545,225.909,72,36,0
226.08342,226.26634,75,34,0
226.26634,226.44077,77,40,0
226.44077,226.61519,75,36,0
226.61519,226.7896,74,40,0
226.7896,226.96402,72,36,0
226.96402,227.13844,70,38,0
227.13844,227.33199,69,36,0
229.52278,229.60999,57,36,0
229.60999,229.6972,58,36,0
229.6972,229.78441,60,37,0
229.78441,229.87161,62,37,0
229.87161,229.95883,63,38,0
229.95883,230.04811,65,39,0
230.04811,230.1374,67,39,0
230.1374,230.25243,69,40,0
230.25243,230.36737,70,42,0
230.36737,230.48204,71,43,0
230.48204,230.59633,72,44,0
230.59633,230.7105,73,44,0
230.7105,230.8246,74,45,0
230.8246,230.9402,75,49,0
230.9402,231.05533,69,42,0
231.05533,231.1701,70,42,0
231.1701,231.2844,71,45,0
231.2844,231.39821,72,48,0
231.39821,231.51318,74,50,0
231.51318,231.6286,75,52,0
231.6286,231.7433,69,47,0
231.7433,231.85732,70,49,0
231.85732,231.97064,71,50,0
231.97064,232.08328,72,52,0
232.08328,232.19525,74,53,0
232.19525,232.27885,75,62,0
232.27885,232.36313,69,54,0
232.36313,232.44766,68,51,0
232.44766,232.53256,69,52,0
232.53256,232.61781,70,53,0
232.61781,232.70354,71,54,0
232.70354,232.78952,72,56,0
232.78952,232.87589,73,57,0
232.87589,232.9929,74,59,0
232.9929,233.11603,75,61,0
233.11603,233.24474,76,59,0
233.24474,233.43108,79,50,0
233.43108,233.5998,77,46,0
233.61513,233.6736,77,50,0
233.73209,233.79056,75,46,0
233.84836,233.90617,74,46,0
233.96397,234.02177,74,46,0
234.07957,234.13737,72,46,0
234.19519,234.25299,70,46,0
234.31079,234.36859,70,50,0
234.4264,234.4842,68,44,0
234.542,234.59981,69,44,0
234.65761,234.71542,72,47,0
234.77322,234.83102,69,44,0
234.89682,234.9626,70,44,0
235.0284,235.37723,71,53,0
235.37723,235.72606,72,49,0
235.90254,236.09122,78,45,0
236.09122,236.26167,81,50,0
236.26167,236.43408,79,46,0
236.43408,236.48903,79,50,0
236.54398,236.59892,77,46,0
236.65639,236.71387,75,46,0
236.77133,236.82881,75,46,0
236.88628,236.94374,74,42,0
237.00122,237.05869,72,42,0
237.11617,237.17534,72,50,0
237.2345,237.29367,69,44,0
237.35284,237.41202,70,44,0
237.47119,237.53036,74,47,0
237.58954,237.64871,71,44,0
237.71281,237.77692,72,44,0
237.84102,238.18985,73,53,0
238.18985,238.65497,74,49,0
238.65497,238.77335,77,51,0
238.77335,238.89383,76,48,0
238.89383,239.00746,77,58,0
239.00746,239.12242,79,52,0
239.12242,239.23871,74,49,0
239.23871,239.35498,77,56,0
239.35498,239.47125,75,52,0
239.47125,239.58754,74,51,0
239.58754,239.70381,75,57,0
239.70381,239.8201,77,52,0
239.8201,239.93637,72,52,0
239.93637,240.05402,75,57,0
240.05402,240.17168,74,52,0
240.17168,240.28932,73,51,0
240.28932,240.40697,74,59,0
240.40697,240.5264,79,52,0
240.5264,240.6476,74,55,0
240.6476,240.76389,77,62,0
240.76389,240.88016,75,56,0
240.88016,240.99644,74,56,0
240.99644,241.11272,75,62,0
241.11272,241.229,77,54,0
241.229,241.34528,72,54,0
241.34528,241.4325,75,61,0
241.4325,241.5197,74,55,0
241.5197,241.60541,73,52,0
241.60541,241.69113,74,53,0
241.69113,241.77684,75,55,0
241.77684,241.86255,76,56,0
241.86255,241.94827,77,57,0
241.94827,242.03398,78,58,0
242.03398,242.1202,79,64,0
242.1202,242.20639,80,60,0
242.20639,242.2926,81,61,0
242.2926,242.37881,82,62,0
242.37881,242.46501,83,63,0
242.46501,242.55122,84,65,0
242.55122,242.63744,85,67,0
242.63744,242.72363,86,68,0
242.72363,242.81035,88,79,0
242.81035,242.89705,86,62,0
242.89705,242.98375,84,65,0
242.98375,243.07047,82,59,0
243.07047,243.15717,81,64,0
243.15717,243.24387,79,59,0
243.24387,243.33173,77,58,0
243.33173,243.43608,76,54,0
243.43608,243.7829,79,58,0
243.7829,244.12971,77,53,0
244.30313,244.51003,77,45,0
244.30313,244.51003,65,38,0
244.51003,244.68547,79,50,0
244.51003,244.68547,67,42,0
244.68547,244.8609,77,46,0
244.68547,244.8609,65,39,0
244.97786,245.03635,75,50,0
244.97786,245.03635,63,42,0
245.09482,245.1533,74,41,0
245.09482,245.1533,62,35,0
245.32874,245.38722,72,46,0
245.32874,245.38722,60,39,0
245.4457,245.50418,70,41,0
245.4457,245.50418,58,35,0
245.6817,245.74123,68,50,0
245.6817,245.74123,56,42,0
245.80075,245.86028,69,41,0
245.80075,245.86028,57,35,0
246.03885,246.09837,69,46,0
246.03885,246.09837,57,39,0
246.1566,246.2174,58,35,0
246.1566,246.2174,70,41,0
246.2808,246.62964,71,53,0
246.2808,246.62964,59,45,0
246.62964,247.1529,60,41,0
246.62964,247.1529,72,49,0
247.1529,247.33472,66,38,0
247.1529,247.33472,78,45,0
247.33472,247.50517,81,50,0
247.33472,247.50517,69,42,0
247.50517,247.67758,79,46,0
247.50517,247.67758,67,39,0
247.7932,247.851,77,50,0
247.7932,247.851,65,42,0
247.9088,247.9666,75,41,0
247.9088,247.9666,63,35,0
248.14001,248.19781,74,46,0
248.14001,248.19781,62,39,0
248.25562,248.31343,60,35,0
248.25562,248.31343,72,41,0
248.48888,248.5477,69,50,0
248.48888,248.5477,57,42,0
248.60652,248.66534,70,41,0
248.60652,248.66534,58,35,0
248.84181,248.90063,71,46,0
248.84181,248.90063,59,39,0
248.96474,249.02884,60,35,0
248.96474,249.02884,72,41,0
249.09294,249.44179,73,53,0
249.09294,249.44179,61,45,0
249.44179,249.9069,74,49,0
249.9069,250.02528,77,56,0
250.02528,250.14577,76,56,0
249.44179,250.14577,62,41,0
250.14577,250.2594,77,62,0
250.2594,250.37436,79,57,0
250.37436,250.49063,74,51,0
250.49063,250.60692,77,62,0
250.60692,250.72319,75,58,0
250.72319,250.83948,74,54,0
250.14577,250.83948,68,54,0
250.83948,250.95575,75,63,0
250.95575,251.07204,77,58,0
251.07204,251.18831,72,53,0
250.83948,251.18831,69,46,0
251.18831,251.3046,75,64,0
251.3046,251.42087,74,59,0
251.42087,251.53714,73,59,0
251.18831,251.53714,70,46,0
251.53714,251.65343,74,67,0
251.65343,251.77486,79,62,0
251.77486,251.90144,74,59,0
251.90144,252.01772,77,71,0
252.01772,252.134,75,64,0
252.134,252.25027,74,61,0
251.53714,252.25027,68,47,0
252.25027,252.36656,75,72,0
252.36656,252.48283,77,66,0
252.48283,252.57004,72,63,0
252.25027,252.5991,69,47,0
252.5991,252.7154,75,71,0
252.5991,252.7154,70,60,0
252.7154,252.83067,74,63,0
252.7154,252.83067,62,53,0
252.83067,252.94496,73,63,0
252.83067,252.94496,61,53,0
252.94496,253.05925,74,67,0
252.94496,253.05925,62,57,0
253.05925,253.1164,75,71,0
253.05925,253.1164,63,60,0
253.17354,253.23067,76,71,0
253.17354,253.23067,64,60,0
253.28781,253.34529,77,76,0
253.28781,253.34529,65,64,0
253.40276,253.46024,78,72,0
253.40276,253.46024,66,61,0
253.5177,253.57518,79,72,0
253.5177,253.57518,67,61,0
253.63264,253.69011,80,76,0
253.63264,253.69011,68,64,0
253.74759,253.80505,81,80,0
253.74759,253.80505,69,67,0
253.86253,253.92,82,80,0
253.86253,253.92,70,67,0
253.97748,254.33041,58,71,0
253.97748,254.33041,70,71,0
254.33041,254.70688,60,58,0
254.33041,254.70688,72,69,0
254.70688,255.05371,73,49,0
254.70688,255.05371,61,41,0
255.05371,255.497,74,45,0
255.05371,255.497,62,38,0
255.497,255.58517,70,59,0
255.58517,255.6729,69,61,0
255.6729,255.76038,70,62,0
255.76038,255.84758,71,62,0
255.84758,255.93434,72,64,0
255.93434,256.02106,73,65,0
256.02106,256.10727,74,67,0
256.10727,256.1933,75,69,0
256.1933,256.27902,76,70,0
256.27902,256.36453,77,71,0
256.36453,256.44974,78,73,0
256.44974,256.53458,79,74,0
256.53458,256.6192,80,76,0
256.6192,256.7035,81,77,0
256.7035,256.78775,82,78,0
256.78775,256.85672,70,53,0
256.85672,256.9257,72,48,0
256.9257,256.99463,70,45,0
256.99463,257.0636,69,45,0
257.0636,257.13257,70,45,0
257.13257,257.40634,74,52,0
257.40634,257.5077,72,41,0
257.13257,257.5077,63,44,0
257.5077,257.60107,70,53,0
257.60107,257.6909,65,59,0
257.6909,257.7795,67,62,0
257.7795,257.86697,69,64,0
257.5077,257.86697,62,53,0
257.86697,257.9533,70,67,0
257.9533,258.03903,72,71,0
258.03903,258.12476,74,78,0
258.12476,258.21045,75,84,0
258.21045,258.96518,77,101,0
258.21045,258.96518,70,85,0
258.96518,259.7199,77,101,0
258.96518,259.7199,69,85,0
259.7199,260.28595,70,85,0
260.28595,260.38028,72,85,0
260.38028,260.4746,74,85,0
259.7199,260.4746,77,101,0
260.4746,261.22934,77,101,0
260.4746,261.22934,75,85,0
261.22934,261.79538,74,85,0
261.79538,261.8897,75,56,0
261.8897,261.98404,77,57,0
261.22934,261.98404,82,101,0
261.98404,262.0723,79,68,0
261.98404,262.0723,82,81,0
262.33698,262.42523,79,45,0
262.33698,262.42523,84,53,0
262.33698,262.42523,72,45,0
262.68994,262.77817,74,53,0
262.68994,262.77817,77,53,0
262.68994,262.77817,86,63,0
263.04288,263.13904,75,45,0
263.04288,263.13904,87,54,0
263.4275,263.77634,86,61,0
263.77634,263.95074,82,53,0
263.4275,264.12515,74,51,0
264.12515,264.8642,77,97,0
264.12515,264.8642,70,81,0
264.8642,265.5987,77,97,0
264.8642,265.5987,69,81,0
265.5987,266.1498,70,81,0
266.1498,266.24658,72,81,0
266.24658,266.34335,74,81,0
265.5987,266.34335,77,97,0
266.34335,267.0844,77,97,0
266.34335,267.0844,75,81,0
267.0844,267.63895,74,81,0
267.63895,267.7339,75,67,0
267.7339,267.82883,77,68,0
267.82883,267.9203,75,81,0
267.82883,267.9203,79,97,0
267.0844,267.9203,82,97,0
268.19467,268.28345,79,67,0
268.19467,268.28345,84,79,0
268.19467,268.28345,72,67,0
268.5497,268.63846,74,82,0
268.5497,268.63846,77,82,0
268.5497,268.63846,86,98,0
268.90475,268.99564,75,74,0
268.90475,268.99564,87,87,0
269.26837,269.61722,86,104,0
269.61722,269.79163,82,81,0
269.26837,269.96606,74,75,0
269.96606,270.52057,74,88,0
269.96606,270.52057,70,74,0
270.52057,270.6155,75,73,0
270.52057,270.6155,72,61,0
270.6155,270.71045,77,74,0
270.6155,270.71045,74,62,0
270.71045,270.8019,75,88,0
270.71045,270.8019,79,106,0
269.96606,270.8019,82,106,0
271.07632,271.16507,79,72,0
271.07632,271.16507,84,86,0
271.07632,271.16507,72,72,0
271.43134,271.5201,74,90,0
271.43134,271.5201,77,90,0
271.43134,271.5201,86,108,0
271.78638,271.8773,75,80,0
271.78638,271.8773,87,99,0
272.15,272.49884,86,114,0
272.49884,272.67325,82,88,0
272.15,272.83313,74,82,0
272.8477,273.40222,74,94,0
272.8477,273.40222,70,94,0
273.40222,273.49835,75,86,0
273.40222,273.49835,72,73,0
273.49835,273.5945,77,90,0
273.49835,273.5945,74,75,0
273.5945,273.69452,75,74,0
273.5945,273.69452,79,106,0
272.8477,273.69452,82,111,0
273.9945,274.08945,82,85,0
273.9945,274.08945,76,85,0
273.9945,274.08945,72,85,0
273.9945,274.08945,84,100,0
274.37427,274.47104,74,91,0
274.37427,274.47104,82,91,0
274.37427,274.47104,86,108,0
274.37427,274.47104,77,91,0
274.76135,274.8627,69,82,0
274.76135,274.8627,81,97,0
274.76135,274.8627,75,82,0
275.19586,275.28305,82,103,0
275.19586,275.28305,70,87,0
275.19586,275.28305,74,87,0
275.37027,275.5638,77,45,0
275.5638,275.74347,79,50,0
275.74347,275.9231,77,46,0
275.9231,276.10275,75,50,0
276.10275,276.28238,74,43,0
276.28238,276.46204,72,46,0
276.46204,276.64166,70,43,0
276.64166,276.82132,69,50,0
276.82132,277.00095,67,46,0
276.64166,277.71216,63,40,0
277.00095,277.7272,65,47,0
277.7272,277.90793,67,44,0
277.90793,278.08865,69,42,0
277.7272,278.08865,63,37,0
278.08865,278.17795,70,42,0
278.08865,278.17795,62,35,0
278.26724,278.4559,65,38,0
278.4559,278.6345,67,42,0
278.6345,278.81305,65,39,0
278.81305,278.99164,63,42,0
278.99164,279.1702,62,37,0
279.1702,279.3488,60,39,0
279.3488,279.52734,58,37,0
279.52734,279.7059,57,42,0
279.7059,279.8845,55,39,0
279.52734,280.59546,51,34,0
279.8845,280.6108,53,39,0
280.6108,280.79486,55,37,0
280.79486,281.00317,57,35,0
280.6108,281.00317,51,31,0
281.00317,281.09576,58,37,0
281.00317,281.09576,50,32,0
281.37354,281.46616,69,42,0
281.37354,281.46616,63,42,0
281.74393,281.84738,70,42,0
281.74393,281.84738,62,42,0
282.1577,282.27966,81,105,0
282.1577,282.27966,75,88,0
282.1577,282.27966,72,88,0
282.6455,282.76746,82,116,0
282.6455,282.76746,74,98,0
282.6455,282.76746,70,98,0
1.5864347,1.7618732,65,34,0
1.4109962,1.7618732,58,42,0
1.9373118,2.1127503,65,34,0
1.7618732,2.1127503,62,38,0
2.1127503,2.2881887,63,38,0
2.2881887,2.4636273,65,34,0
2.1127503,2.4636273,60,38,0
2.4636273,2.6390657,62,37,0
2.6390657,2.8364344,65,34,0
2.4636273,2.8364344,58,37,0
3.0108528,3.098062,65,34,0
3.1852713,3.2714782,65,34,0
3.357685,3.4459202,65,34,0
3.5341556,3.622913,65,37,0
3.7116702,3.8014905,65,34,0
3.891311,3.9765382,65,34,0
4.0617657,4.1479726,65,34,0
2.8364344,4.234179,63,43,0
2.8364344,4.234179,57,43,0
4.40759,4.5810003,65,34,0
4.234179,4.5810003,57,42,0
4.7544107,4.927821,65,34,0
4.5810003,4.927821,63,38,0
5.1012316,5.2746425,65,34,0
4.927821,5.2746425,62,38,0
5.448053,5.6403604,65,34,0
5.2746425,5.6403604,57,37,0
5.814779,5.900493,65,34,0
5.9862075,6.0729127,65,34,0
6.159618,6.2448454,65,34,0
6.3300724,6.4167776,65,37,0
6.503483,6.5938444,65,34,0
5.6403604,6.684206,58,43,0
6.8546605,6.9418697,65,34,0
6.684206,7.029079,59,34,0
7.2034974,7.374926,65,34,0
7.029079,7.374926,60,42,0
7.54734,7.7197533,65,34,0
7.374926,7.7197533,57,38,0
7.894172,8.066586,65,34,0
7.7197533,8.066586,58,42,0
8.239996,8.421815,65,34,0
8.066586,8.421815,59,38,0
8.596233,8.770652,65,34,0
8.421815,8.770652,60,47,0
8.94507,9.119489,65,34,0
8.770652,9.119489,57,42,0
9.293907,9.465336,62,38,0
9.119489,9.465336,58,52,0
9.636764,9.808192,60,42,0
9.465336,9.808192,57,47,0
9.808192,10.138652,55,58,0
9.980606,10.15302,58,42,0
10.325434,10.497848,58,41,0
10.15302,10.497848,55,49,0
10.497848,10.830217,48,63,0
10.671258,10.844668,58,39,0
11.018079,11.218079,58,34,0
10.844668,11.218079,48,43,0
11.391489,11.5649,58,29,0
11.5649,11.74137,57,35,0
11.74137,11.917841,55,29,0
11.917841,12.295653,57,34,0
11.218079,12.295653,53,43,0
12.821969,12.997408,53,34,0
12.646531,12.997408,46,42,0
13.172846,13.348285,53,34,0
12.997408,13.348285,50,38,0
13.348285,13.523724,51,38,0
13.523724,13.699162,53,34,0
13.348285,13.699162,48,38,0
13.699162,13.8746,50,37,0
13.8746,14.071969,53,34,0
13.699162,14.071969,46,37,0
14.2463875,14.333596,53,34,0
14.420806,14.508015,53,34,0
14.595224,14.682433,53,34,0
14.769643,14.856852,53,37,0
14.944061,15.03497,53,34,0
15.125879,15.211106,53,34,0
15.296334,15.382541,53,34,0
14.071969,15.468748,51,43,0
14.071969,15.468748,45,43,0
15.6421585,15.815569,53,34,0
15.468748,15.815569,45,42,0
15.988979,16.16239,53,34,0
15.815569,16.16239,51,38,0
16.3358,16.50921,53,34,0
16.16239,16.50921,50,38,0
16.682621,16.87493,53,34,0
16.50921,16.87493,45,37,0
17.049347,17.136557,53,34,0
17.223766,17.310976,53,34,0
17.398184,17.485394,53,34,0
17.572603,17.659813,53,37,0
17.74702,17.837383,53,37,0
16.87493,17.927744,46,43,0
18.0982,18.185408,53,37,0
17.927744,18.272617,47,37,0
18.447037,18.621454,53,38,0
18.272617,18.621454,48,46,0
18.795874,18.970291,53,38,0
18.621454,18.970291,41,42,0
19.14471,19.319128,53,38,0
18.970291,19.319128,46,47,0
19.493547,19.675365,53,39,0
19.319128,19.675365,47,43,0
19.849783,20.024202,53,39,0
19.675365,20.024202,48,54,0
20.19862,20.37304,53,39,0
20.024202,20.37304,41,48,0
20.547459,20.718885,53,41,0
20.37304,20.718885,46,56,0
20.890314,21.061743,46,45,0
20.718885,21.061743,44,50,0
21.061743,21.392202,43,65,0
21.234158,21.40657,46,53,0
21.578985,21.772533,51,53,0
21.40657,21.772533,39,61,0
21.772533,22.102993,41,56,0
21.944946,22.117361,50,42,0
22.289774,22.496672,45,43,0
22.117361,22.496672,41,49,0
22.496672,22.670082,34,43,0
22.843493,22.93153,58,35,0
23.020817,23.109785,58,29,0
23.198542,23.286777,58,37,0
23.37497,23.462688,58,35,0
22.670082,23.550161,46,29,0
23.724134,23.897064,58,39,0
23.550161,23.897064,56,43,0
24.068804,24.239534,58,46,0
23.897064,24.239534,55,52,0
24.408995,24.577534,63,50,0
24.239534,24.577534,51,56,0
24.577534,24.907993,53,35,0
24.749949,24.922361,62,29,0
25.094776,25.297478,57,29,0
24.922361,25.297478,53,35,0
25.297478,25.647102,58,39,0
25.297478,25.647102,46,33,0
25.99193,26.681911,62,60,0
25.99193,26.681911,58,50,0
26.681911,27.738823,60,45,0
26.681911,27.738823,51,38,0
27.738823,28.109194,60,41,0
27.738823,28.109194,53,34,0
28.109194,28.460072,58,50,0
28.109194,28.460072,46,42,0
28.831118,29.536768,62,60,0
28.831118,29.536768,58,50,0
29.536768,30.218348,55,41,0
29.536768,30.218348,52,41,0
30.218348,30.916183,60,41,0
30.218348,30.916183,48,41,0
30.916183,31.6798,60,50,0
30.916183,31.6798,53,42,0
31.852213,32.37185,57,54,0
31.766006,32.37185,53,52,0
31.6798,32.37185,45,62,0
32.543278,33.060448,57,57,0
32.457565,33.060448,53,54,0
32.37185,33.060448,46,65,0
33.230904,33.742725,57,59,0
33.145676,33.742725,53,57,0
33.060448,33.742725,48,68,0
33.912216,34.45237,57,62,0
33.827473,34.45237,53,59,0
33.742725,34.45237,50,71,0
34.45237,34.813816,69,63,0
34.45237,35.145306,65,53,0
34.45237,35.145306,62,53,0
34.813816,35.48429,71,59,0
35.48429,35.65378,72,58,0
35.145306,35.823273,67,64,0
35.145306,35.823273,60,54,0
35.823273,36.21089,65,63,0
35.823273,36.542385,62,53,0
35.823273,36.542385,58,53,0
36.21089,36.881367,64,50,0
36.21089,36.881367,67,59,0
36.881367,37.050858,69,58,0
36.881367,37.050858,65,50,0
36.542385,37.220352,57,54,0
37.220352,37.59338,62,63,0
37.59338,37.924873,64,59,0
37.220352,37.924873,58,53,0
37.220352,37.924873,55,53,0
37.924873,38.26578,53,58,0
37.924873,38.26578,65,58,0
37.924873,38.26578,60,58,0
38.26578,38.43338,58,53,0
38.26578,38.43338,46,45,0
38.60098,38.767643,57,60,0
38.60098,38.767643,48,51,0
38.93431,39.10098,52,54,0
38.93431,39.10098,48,45,0
39.312244,39.669388,53,60,0
39.312244,39.669388,41,51,0
40.02653,40.387978,53,58,0
40.02653,40.730835,50,58,0
40.387978,41.08798,56,52,0
41.08798,41.26655,57,58,0
40.730835,41.445118,48,62,0
41.445118,41.806564,50,58,0
41.445118,42.14942,46,58,0
41.806564,42.506565,52,52,0
42.506565,42.68514,53,58,0
42.14942,42.86371,45,62,0
42.86371,43.22085,50,58,0
42.86371,43.577995,43,62,0
43.22085,43.756565,49,52,0
43.577995,43.93514,41,62,0
43.756565,44.11371,48,51,0
43.93514,44.292126,34,57,0
44.11371,44.468407,46,54,0
44.292126,44.647858,36,59,0
44.468407,44.83019,45,55,0
44.83019,45.01581,43,57,0
44.647858,45.01581,36,62,0
45.01581,45.36171,29,64,0
46.04742,46.404564,48,46,0
45.704563,46.404564,45,46,0
45.36171,46.404564,41,46,0
47.443104,47.799763,52,47,0
46.75345,47.799763,46,47,0
46.404564,47.799763,41,54,0
46.404564,47.799763,43,54,0
47.098278,47.799763,48,47,0
47.799763,48.145664,41,64,0
48.83138,49.188522,60,46,0
48.48852,49.188522,57,46,0
48.145664,49.188522,53,46,0
50.22706,50.58372,64,47,0
49.537403,50.58372,58,47,0
49.188522,50.58372,53,54,0
49.188522,50.58372,55,54,0
49.882233,50.58372,60,47,0
50.58372,50.92962,41,75,0
51.615334,51.990585,60,58,0
51.272476,51.990585,57,57,0
50.92962,51.990585,53,57,0
51.990585,52.336487,39,82,0
53.0222,53.399345,60,64,0
52.679344,53.399345,57,64,0
52.336487,53.399345,51,63,0
53.399345,53.745243,37,91,0
54.430958,54.820843,58,67,0
54.0881,54.820843,53,67,0
53.745243,54.820843,49,66,0
55.168167,55.51499,46,68,0
55.51499,55.861813,49,72,0
55.861813,56.224667,52,75,0
54.820843,56.224667,42,94,0
56.224667,57.09676,53,84,0
56.224667,57.09676,41,72,0
57.09676,57.279686,48,40,0
57.279686,57.454105,50,45,0
57.454105,57.62852,48,41,0
57.62852,57.80294,46,45,0
57.80294,57.97736,45,40,0
57.97736,58.15178,43,43,0
58.15178,58.29694,41,40,0
58.345325,58.70267,41,45,0
59.94273,60.003708,51,38,0
60.003708,60.064682,53,40,0
60.064682,60.12566,51,38,0
60.12566,60.300076,53,45,0
60.300076,60.474495,51,41,0
60.474495,60.648914,50,45,0
60.648914,60.823334,48,40,0
60.823334,60.99775,46,43,0
60.99775,61.142914,45,40,0
61.1913,61.548645,45,45,0
62.788704,62.97163,60,40,0
62.97163,63.14605,62,45,0
63.14605,63.32047,60,41,0
63.32047,63.494884,58,45,0
63.494884,63.669304,57,40,0
63.669304,63.843723,55,43,0
63.843723,63.988884,53,40,0
64.21169,64.394615,63,40,0
64.394615,64.56904,65,45,0
64.56904,64.743454,63,41,0
64.743454,64.91787,62,45,0
64.91787,65.09229,60,40,0
65.09229,65.26671,58,43,0
65.26671,65.39752,57,40,0
70.56482,70.74026,65,34,0
70.38938,70.74026,58,42,0
70.915695,71.09114,65,34,0
70.74026,71.09114,62,38,0
71.09114,71.26658,63,38,0
71.26658,71.44202,65,34,0
71.09114,71.44202,60,38,0
71.44202,71.617455,62,37,0
71.617455,71.81482,65,34,0
71.44202,71.81482,58,37,0
71.98924,72.07645,65,34,0
72.16366,72.25087,65,34,0
72.33807,72.425285,65,34,0
72.5125,72.5997,65,37,0
72.68691,72.77673,65,34,0
72.866554,72.95178,65,34,0
73.03701,73.123215,65,34,0
71.81482,73.20942,63,43,0
71.81482,73.20942,57,43,0
73.382835,73.556244,65,34,0
73.20942,73.556244,57,42,0
73.72965,73.90306,65,34,0
73.556244,73.90306,63,38,0
74.07648,74.249886,65,34,0
73.90306,74.249886,62,38,0
74.423294,74.6156,65,34,0
74.249886,74.6156,57,37,0
74.79002,74.877235,65,37,0
74.96444,75.05165,65,37,0
75.13886,75.22607,65,37,0
75.31328,75.40049,65,41,0
75.48769,75.57806,65,37,0
74.6156,75.66842,58,47,0
75.838875,75.92609,65,38,0
75.66842,76.01329,59,37,0
76.18771,76.36213,65,38,0
76.01329,76.36213,60,47,0
76.536545,76.71097,65,38,0
76.36213,76.71097,57,42,0
76.88538,77.05981,65,38,0
76.71097,77.05981,58,47,0
77.23422,77.41604,65,38,0
77.05981,77.41604,59,43,0
77.59046,77.76488,65,39,0
77.41604,77.76488,60,54,0
77.93929,78.113716,65,39,0
77.76488,78.113716,57,48,0
78.28813,78.459564,62,40,0
78.113716,78.459564,58,55,0
78.63099,78.80242,60,44,0
78.459564,78.80242,57,49,0
78.80242,79.13288,55,60,0
78.97483,79.14725,58,43,0
79.31966,79.49207,58,42,0
79.14725,79.49207,55,50,0
79.49207,79.82444,48,57,0
79.66548,79.8389,58,40,0
80.01231,80.2123,58,40,0
79.8389,80.2123,48,44,0
80.38571,80.55913,58,29,0
80.55913,80.73254,57,35,0
80.73254,80.905945,55,29,0
80.905945,81.286255,57,34,0
80.2123,81.286255,53,43,0
81.81257,81.98801,53,34,0
81.63713,81.98801,46,42,0
82.163445,82.33888,53,34,0
81.98801,82.33888,50,38,0
82.33888,82.51432,51,38,0
82.51432,82.68976,53,34,0
82.33888,82.68976,48,38,0
82.68976,82.865204,50,37,0
82.865204,83.06257,53,34,0
82.68976,83.06257,46,37,0
83.236984,83.324196,53,34,0
83.41141,83.49861,53,34,0
83.58582,83.673035,53,34,0
83.76025,83.84745,53,37,0
83.93466,84.02557,53,34,0
84.11648,84.201706,53,34,0
84.286934,84.37314,53,34,0
83.06257,84.45935,51,43,0
83.06257,84.45935,45,43,0
84.63276,84.80617,53,34,0
84.45935,84.80617,45,42,0
84.979576,85.15299,53,34,0
84.80617,85.15299,51,38,0
85.3264,85.49981,53,34,0
85.15299,85.49981,50,38,0
85.67322,85.86553,53,34,0
85.49981,85.86553,45,37,0
86.03995,86.12716,53,34,0
86.21436,86.301575,53,34,0
86.38879,86.47599,53,34,0
86.5632,86.65041,53,37,0
86.737625,86.82798,53,37,0
85.86553,86.91834,46,43,0
87.0888,87.17601,53,37,0
86.91834,87.263214,47,37,0
87.43764,87.61205,53,38,0
87.263214,87.61205,48,46,0
87.786476,87.96089,53,38,0
87.61205,87.96089,41,42,0
88.13531,88.30973,53,38,0
87.96089,88.30973,46,47,0
88.484146,88.66596,53,39,0
88.30973,88.66596,47,43,0
88.840385,89.0148,53,39,0
88.66596,89.0148,48,54,0
89.189224,89.36364,53,39,0
89.0148,89.36364,41,48,0
89.538055,89.70949,53,41,0
89.36364,89.70949,46,56,0
89.88091,90.052345,46,45,0
89.70949,90.052345,44,50,0
90.052345,90.382805,43,62,0
90.224754,90.39717,46,51,0
90.56959,90.76826,51,51,0
90.39717,90.76826,39,58,0
90.76826,91.10063,41,56,0
90.94167,91.11508,50,42,0
91.28849,91.488495,45,43,0
91.11508,91.488495,41,49,0
91.488495,91.6619,34,43,0
91.83531,91.92335,58,35,0
92.012634,92.10161,58,29,0
92.19036,92.278595,58,40,0
92.36679,92.454506,58,35,0
91.6619,92.541985,46,29,0
92.71596,92.888885,58,39,0
92.541985,92.888885,56,43,0
93.06062,93.23135,58,46,0
92.888885,93.23135,55,52,0
93.40082,93.56936,63,51,0
93.23135,93.56936,51,56,0
93.56936,93.89982,53,35,0
93.74177,93.914185,62,29,0
94.08659,94.2893,57,29,0
93.914185,94.2893,53,35,0
94.2893,94.63892,58,39,0
94.2893,94.63892,46,33,0
94.98375,95.68399,49,71,0
94.98375,95.68399,46,59,0
95.68399,96.208,47,64,0
96.208,96.29521,49,64,0
96.29521,96.382416,51,64,0
96.382416,96.73745,42,58,0
95.68399,96.73745,39,53,0
96.73745,97.110115,45,58,0
96.73745,97.110115,41,48,0
97.110115,97.64414,46,71,0
97.110115,97.64414,34,59,0
97.82932,98.53108,49,71,0
97.82932,98.53108,46,59,0
98.53108,99.24537,48,71,0
98.53108,99.24537,40,71,0
99.24537,99.959656,55,71,0
99.24537,99.959656,52,71,0
99.959656,100.14258,56,71,0
99.959656,100.14258,53,59,0
100.3228,100.50031,59,76,0
100.3228,100.50031,47,64,0
100.677826,100.85535,60,71,0
100.677826,100.85535,48,59,0
101.03286,101.22036,48,71,0
101.03286,101.22036,36,59,0
101.40786,101.596535,53,82,0
101.40786,101.596535,41,70,0
101.596535,101.68426,43,36,0
101.596535,101.68426,40,30,0
101.77197,101.859695,44,36,0
101.77197,101.859695,41,30,0
101.94742,102.03412,46,36,0
101.94742,102.03412,43,30,0
102.12083,102.20753,48,40,0
102.12083,102.20753,44,34,0
102.294235,102.38094,49,35,0
102.294235,102.38094,46,29,0
102.46764,102.55435,48,35,0
102.46764,102.55435,44,29,0
102.64106,102.73599,46,35,0
102.64106,102.73599,43,29,0
102.83093,102.91865,44,40,0
102.83093,102.91865,41,34,0
103.00637,103.092575,48,36,0
103.00637,103.092575,45,30,0
103.17878,103.26499,49,36,0
103.17878,103.26499,46,30,0
103.3512,103.4374,48,30,0
103.3512,103.4374,51,36,0
103.52361,103.60982,49,34,0
103.52361,103.60982,53,40,0
103.69602,103.782234,54,36,0
103.69602,103.782234,51,30,0
103.86844,103.95464,53,36,0
103.86844,103.95464,49,30,0
104.04085,104.13232,51,36,0
104.04085,104.13232,48,30,0
104.22378,104.31099,49,45,0
104.22378,104.31099,46,38,0
104.39819,104.48391,49,36,0
104.39819,104.48391,46,30,0
104.569626,104.65534,50,36,0
104.569626,104.65534,47,30,0
104.74105,104.82677,50,36,0
104.74105,104.82677,47,30,0
104.91248,104.9982,53,47,0
104.91248,104.9982,48,39,0
105.08391,105.169624,53,38,0
105.08391,105.169624,48,32,0
105.25534,105.34106,55,38,0
105.25534,105.34106,48,32,0
105.426765,105.51768,55,38,0
105.426765,105.51768,48,32,0
105.60859,105.797264,56,72,0
105.60859,105.797264,53,61,0
105.797264,105.88298,52,42,0
105.797264,105.88298,40,36,0
105.9687,106.054405,53,43,0
105.9687,106.054405,41,36,0
106.14012,106.22584,55,44,0
106.14012,106.22584,43,36,0
106.311554,106.39726,56,50,0
106.311554,106.39726,44,42,0
106.48298,106.568695,58,45,0
106.48298,106.568695,46,37,0
106.65441,106.74012,56,46,0
106.65441,106.74012,44,37,0
106.825836,106.9173,55,46,0
106.825836,106.9173,43,37,0
107.008766,107.09858,53,54,0
107.008766,107.09858,41,46,0
107.1884,107.27461,57,50,0
107.1884,107.27461,45,42,0
107.36082,107.44702,58,50,0
107.36082,107.44702,46,42,0
107.53323,107.61944,48,42,0
107.53323,107.61944,60,52,0
107.70564,107.791855,49,50,0
107.70564,107.791855,61,58,0
107.87806,107.964264,63,54,0
107.87806,107.964264,51,44,0
108.050476,108.13668,61,54,0
108.050476,108.13668,49,44,0
108.222885,108.31325,60,56,0
108.222885,108.31325,48,46,0
108.40361,108.489815,58,71,0
108.40361,108.489815,46,60,0
108.57602,108.66223,61,57,0
108.57602,108.66223,58,48,0
108.748436,108.83464,62,58,0
108.748436,108.83464,59,48,0
108.92085,109.00706,62,58,0
108.92085,109.00706,59,48,0
109.09326,109.18047,65,78,0
109.09326,109.18047,60,65,0
109.267685,109.35489,65,64,0
109.267685,109.35489,60,54,0
109.4421,109.53192,67,66,0
109.4421,109.53192,60,55,0
109.62174,109.72591,67,67,0
109.62174,109.72591,60,56,0
109.83008,109.93075,65,63,0
109.83008,109.93075,53,53,0
109.83008,109.93075,56,53,0
109.83008,109.93075,60,53,0
110.03142,110.12178,65,63,0
110.03142,110.12178,53,53,0
110.03142,110.12178,56,53,0
110.03142,110.12178,60,53,0
110.21214,110.30196,65,56,0
110.21214,110.30196,53,47,0
110.21214,110.30196,56,47,0
110.21214,110.30196,60,47,0
110.391785,110.4816,65,56,0
110.391785,110.4816,53,47,0
110.391785,110.4816,56,47,0
110.391785,110.4816,60,47,0
110.57142,110.65914,64,59,0
110.57142,110.65914,58,49,0
110.57142,110.65914,53,49,0
110.57142,110.65914,55,49,0
110.57142,110.65914,60,49,0
110.74686,110.83458,64,50,0
110.74686,110.83458,58,42,0
110.74686,110.83458,53,42,0
110.74686,110.83458,55,42,0
110.74686,110.83458,60,42,0
110.9223,111.01002,64,50,0
110.9223,111.01002,58,42,0
110.9223,111.01002,53,42,0
110.9223,111.01002,55,42,0
110.9223,111.01002,60,42,0
111.09774,111.185455,64,50,0
111.09774,111.185455,58,42,0
111.09774,111.185455,53,42,0
111.09774,111.185455,55,42,0
111.09774,111.185455,60,42,0
111.27318,111.37385,53,63,0
111.27318,111.37385,41,53,0
111.27318,111.37385,44,53,0
111.27318,111.37385,48,53,0
111.47452,111.56488,53,63,0
111.47452,111.56488,41,53,0
111.47452,111.56488,44,53,0
111.47452,111.56488,48,53,0
111.65524,111.74506,53,56,0
111.65524,111.74506,41,47,0
111.65524,111.74506,44,47,0
111.65524,111.74506,48,47,0
111.834885,111.924706,53,56,0
111.834885,111.924706,41,47,0
111.834885,111.924706,44,47,0
111.834885,111.924706,48,47,0
112.01452,112.10224,52,59,0
112.01452,112.10224,46,49,0
112.01452,112.10224,41,49,0
112.01452,112.10224,43,49,0
112.01452,112.10224,48,49,0
112.189964,112.27768,52,50,0
112.189964,112.27768,46,42,0
112.189964,112.27768,41,42,0
112.189964,112.27768,43,42,0
112.189964,112.27768,48,42,0
112.3654,112.45312,52,50,0
112.3654,112.45312,46,42,0
112.3654,112.45312,41,42,0
112.3654,112.45312,43,42,0
112.3654,112.45312,48,42,0
112.54084,112.642876,52,50,0
112.54084,112.642876,46,42,0
112.54084,112.642876,41,42,0
112.54084,112.642876,43,42,0
112.54084,112.642876,48,42,0
112.74492,113.46781,53,61,0
112.74492,113.46781,41,51,0
113.46781,114.190704,44,79,0
114.190704,114.716255,43,83,0
114.716255,114.80662,44,70,0
114.80662,114.89698,46,70,0
114.89698,115.0777,38,85,0
115.25842,115.43915,40,80,0
115.641846,115.827034,41,90,0
116.39439,117.11728,49,79,0
117.11728,117.64283,48,83,0
117.64283,117.73319,49,70,0
117.73319,117.82355,51,70,0
117.82355,118.00427,43,85,0
118.185,118.36572,45,80,0
118.56842,118.75361,46,90,0
120.748314,121.492805,53,80,0
121.492805,121.854256,46,90,0
123.66803,124.41253,58,80,0
124.41253,124.77397,51,90,0
125.15859,125.881485,54,67,0
125.15859,125.881485,58,79,0
125.881485,126.407036,53,70,0
125.881485,126.407036,56,83,0
126.407036,126.50643,58,70,0
126.407036,126.50643,54,59,0
126.49739,126.596794,56,59,0
126.49739,126.596794,59,70,0
126.58775,126.76848,48,72,0
126.58775,126.76848,51,85,0
126.9492,127.12992,53,80,0
126.9492,127.12992,50,68,0
127.29208,127.817635,51,70,0
127.29208,127.817635,54,83,0
127.817635,127.91704,56,70,0
127.817635,127.91704,53,59,0
127.908,128.0074,54,59,0
127.908,128.0074,58,70,0
127.99836,128.17908,46,72,0
127.99836,128.17908,49,85,0
128.3598,128.54053,51,80,0
128.3598,128.54053,48,68,0
128.7027,128.8751,53,83,0
128.7027,128.8751,49,78,0
129.04752,129.95114,53,70,0
129.04752,129.95114,56,83,0
129.95114,130.05054,54,71,0
129.95114,130.05054,51,60,0
130.04149,130.14047,49,56,0
130.04149,130.14047,53,67,0
130.13185,130.30428,48,78,0
130.13185,130.30428,51,83,0
130.47668,131.3803,63,70,0
130.47668,131.3803,66,83,0
131.3803,131.47969,65,71,0
131.3803,131.47969,61,60,0
131.47066,131.56964,60,56,0
131.47066,131.56964,63,67,0
131.56102,132.08658,61,83,0
131.56102,132.08658,58,70,0
132.08658,132.26729,60,70,0
132.08658,132.26729,56,59,0
132.26729,132.79285,54,70,0
132.26729,132.79285,58,83,0
132.79285,132.97357,56,70,0
132.79285,132.97357,53,59,0
132.97357,133.31839,54,83,0
133.31839,133.67984,63,70,0
132.97357,133.67984,51,70,0
133.67984,133.86057,61,83,0
133.67984,133.86057,53,70,0
134.04129,134.22202,53,67,0
134.04129,134.22202,60,79,0
134.40274,134.59142,58,72,0
134.40274,134.59142,46,61,0
134.59142,134.67914,48,36,0
134.59142,134.67914,45,30,0
134.76685,134.85457,49,36,0
134.76685,134.85457,46,30,0
134.94229,135.02899,51,36,0
134.94229,135.02899,48,30,0
135.1157,135.20241,53,40,0
135.1157,135.20241,49,34,0
135.28911,135.37582,54,35,0
135.28911,135.37582,51,29,0
135.46252,135.54922,53,35,0
135.46252,135.54922,49,29,0
135.63594,135.73087,51,35,0
135.63594,135.73087,48,29,0
135.8258,135.91353,49,40,0
135.8258,135.91353,46,34,0
136.00125,136.08745,53,36,0
136.00125,136.08745,50,30,0
136.17366,136.25987,54,36,0
136.17366,136.25987,51,30,0
136.34607,136.43228,53,30,0
136.34607,136.43228,56,36,0
136.5185,136.60469,54,34,0
136.5185,136.60469,58,40,0
136.6909,136.7771,59,36,0
136.6909,136.7771,56,30,0
136.86331,136.94952,58,36,0
136.86331,136.94952,54,30,0
137.03572,137.1272,56,36,0
137.03572,137.1272,53,30,0
137.21866,137.30586,54,45,0
137.21866,137.30586,51,38,0
137.39307,137.47879,54,36,0
137.39307,137.47879,51,30,0
137.5645,137.65022,55,36,0
137.5645,137.65022,52,30,0
137.73593,137.82164,55,36,0
137.73593,137.82164,52,30,0
137.90736,137.99307,58,47,0
137.90736,137.99307,53,39,0
138.07878,138.1645,58,38,0
138.07878,138.1645,53,32,0
138.25021,138.33592,60,38,0
138.25021,138.33592,53,32,0
138.42165,138.51256,60,38,0
138.42165,138.51256,53,32,0
138.60345,138.79214,58,69,0
138.60345,138.79214,46,58,0
138.79214,138.87785,57,48,0
138.79214,138.87785,45,40,0
138.96358,139.04929,58,48,0
138.96358,139.04929,46,40,0
139.135,139.22072,60,50,0
139.135,139.22072,48,40,0
139.30643,139.39214,61,57,0
139.30643,139.39214,49,48,0
139.47786,139.56357,63,51,0
139.47786,139.56357,51,43,0
139.64928,139.735,61,53,0
139.64928,139.735,49,43,0
139.82071,139.91217,60,54,0
139.82071,139.91217,48,43,0
140.00363,140.09346,58,64,0
140.00363,140.09346,46,54,0
140.18327,140.26949,62,58,0
140.18327,140.26949,50,48,0
140.3557,140.4419,63,59,0
140.3557,140.4419,51,50,0
140.5281,140.61432,53,50,0
140.5281,140.61432,65,62,0
140.70052,140.78673,54,58,0
140.70052,140.78673,66,70,0
140.87294,140.95914,68,66,0
140.87294,140.95914,56,53,0
141.04535,141.13156,66,66,0
141.04535,141.13156,54,53,0
141.21776,141.30812,65,69,0
141.21776,141.30812,53,57,0
141.39848,141.4847,63,88,0
141.39848,141.4847,51,74,0
141.57089,141.6571,66,69,0
141.57089,141.6571,63,58,0
141.74332,141.82951,67,72,0
141.74332,141.82951,64,60,0
141.91573,142.00194,67,72,0
141.91573,142.00194,64,60,0
142.08813,142.17535,70,90,0
142.08813,142.17535,65,73,0
142.26256,142.34976,70,81,0
142.26256,142.34976,65,68,0
142.43698,142.5268,72,85,0
142.43698,142.5268,65,70,0
142.61662,142.72078,72,86,0
142.61662,142.72078,65,71,0
142.82495,142.92563,70,78,0
142.82495,142.92563,58,66,0
142.82495,142.92563,61,66,0
142.82495,142.92563,65,66,0
143.02629,143.11665,70,66,0
143.02629,143.11665,58,55,0
143.02629,143.11665,61,55,0
143.02629,143.11665,65,55,0
143.20702,143.29684,70,58,0
143.20702,143.29684,58,49,0
143.20702,143.29684,61,49,0
143.20702,143.29684,65,49,0
143.38666,143.47647,70,58,0
143.38666,143.47647,58,49,0
143.38666,143.47647,61,49,0
143.38666,143.47647,65,49,0
143.5663,143.65402,69,61,0
143.5663,143.65402,63,51,0
143.5663,143.65402,58,51,0
143.5663,143.65402,60,51,0
143.5663,143.65402,65,51,0
143.74173,143.82945,69,52,0
143.74173,143.82945,63,44,0
143.74173,143.82945,58,44,0
143.74173,143.82945,60,44,0
143.74173,143.82945,65,44,0
143.91718,144.0049,69,52,0
143.91718,144.0049,63,44,0
143.91718,144.0049,58,44,0
143.91718,144.0049,60,44,0
143.91718,144.0049,65,44,0
144.09262,144.18033,69,52,0
144.09262,144.18033,63,44,0
144.09262,144.18033,58,44,0
144.09262,144.18033,60,44,0
144.09262,144.18033,65,44,0
144.26805,144.36873,58,66,0
144.26805,144.36873,46,55,0
144.26805,144.36873,49,55,0
144.26805,144.36873,53,55,0
144.46939,144.55975,58,66,0
144.46939,144.55975,46,55,0
144.46939,144.55975,49,55,0
144.46939,144.55975,53,55,0
144.65012,144.73994,58,58,0
144.65012,144.73994,46,49,0
144.65012,144.73994,49,49,0
144.65012,144.73994,53,49,0
144.82976,144.91957,58,58,0
144.82976,144.91957,46,49,0
144.82976,144.91957,49,49,0
144.82976,144.91957,53,49,0
145.0094,145.09712,57,61,0
145.0094,145.09712,51,51,0
145.0094,145.09712,46,51,0
145.0094,145.09712,48,51,0
145.0094,145.09712,53,51,0
145.18483,145.27255,57,52,0
145.18483,145.27255,51,44,0
145.18483,145.27255,46,44,0
145.18483,145.27255,48,44,0
145.18483,145.27255,53,44,0
145.36028,145.448,57,52,0
145.36028,145.448,51,44,0
145.36028,145.448,46,44,0
145.36028,145.448,48,44,0
145.36028,145.448,53,44,0
145.53572,145.63776,57,52,0
145.53572,145.63776,51,44,0
145.53572,145.63776,46,44,0
145.53572,145.63776,48,44,0
145.53572,145.63776,53,44,0
145.73979,146.64342,46,64,0
146.64342,146.84389,49,45,0
146.82634,147.01932,51,50,0
147.00177,147.19476,49,46,0
147.17722,147.3702,47,50,0
147.35265,147.54564,46,46,0
147.52809,147.72107,44,46,0
147.70354,147.89651,42,46,0
147.87897,148.22984,41,50,0
148.22984,148.62268,42,47,0
148.62268,149.00003,43,53,0
149.00003,149.5518,44,49,0
149.5518,149.7485,51,45,0
149.73145,149.91914,52,50,0
149.9019,150.09186,51,46,0
150.07433,150.2673,49,50,0
150.24976,150.44273,47,41,0
150.4252,150.61818,46,46,0
150.60063,150.79362,44,40,0
150.77608,151.12695,43,48,0
151.12695,151.51978,44,40,0
151.51978,153.12022,45,45,0
153.12022,154.71925,46,45,0
154.71925,155.11661,45,45,0
159.1846,159.36005,63,42,0
159.1846,159.36005,55,35,0
159.36005,159.53548,62,39,0
159.36005,159.53548,53,33,0
159.53548,159.71092,60,39,0
159.53548,159.71092,51,33,0
159.71092,159.88635,58,39,0
159.71092,159.88635,50,33,0
159.88635,160.23723,57,35,0
159.88635,160.23723,48,35,0
160.23723,160.61005,58,39,0
160.23723,160.61005,50,33,0
160.61005,160.95888,59,45,0
160.61005,160.95888,56,38,0
160.95888,161.48213,60,41,0
160.95888,161.48213,57,34,0
161.48213,161.66396,66,38,0
161.66396,161.83441,69,42,0
161.83441,162.00682,67,39,0
162.00682,162.16577,65,42,0
162.18024,162.35364,63,39,0
162.18024,162.35364,55,33,0
162.35364,162.52705,62,39,0
162.35364,162.52705,53,33,0
162.52705,162.70045,60,39,0
162.52705,162.70045,51,33,0
162.70045,163.04729,58,42,0
162.70045,163.04729,50,35,0
163.04729,163.413,60,39,0
163.04729,163.413,57,33,0
163.413,163.76184,61,45,0
163.413,163.76184,57,38,0
163.76184,164.2851,62,41,0
163.76184,164.2851,58,34,0
164.2851,164.46582,65,43,0
164.46582,164.63628,67,49,0
164.63628,164.81068,62,44,0
164.46582,164.81068,59,34,0
164.81068,164.9851,65,51,0
164.9851,165.15953,63,48,0
164.81068,165.15953,60,37,0
165.15953,165.33394,65,53,0
165.33394,165.50836,60,48,0
165.15953,165.50836,57,37,0
165.50836,165.68279,63,53,0
165.68279,165.8572,62,49,0
165.50836,165.8572,58,38,0
165.8572,166.03162,67,56,0
166.03162,166.21344,62,50,0
165.8572,166.21344,59,38,0
166.21344,166.38785,65,59,0
166.38785,166.56227,63,54,0
166.21344,166.56227,60,39,0
166.56227,166.7367,65,60,0
166.7367,166.91112,60,52,0
166.56227,166.91112,57,39,0
166.91112,167.08539,63,59,0
166.91112,167.25739,58,50,0
167.08539,167.4276,62,53,0
167.25739,167.59612,57,47,0
167.4276,167.9281,60,60,0
167.59612,168.2622,55,66,0
167.9281,168.59871,58,60,0
168.2622,168.93579,48,62,0
168.59871,169.28235,58,58,0
169.28235,169.62909,57,47,0
168.93579,169.62909,53,58,0
170.5117,170.68713,53,34,0
170.33626,170.68713,46,42,0
170.86258,171.03801,53,34,0
170.68713,171.03801,50,38,0
171.03801,171.21346,51,38,0
171.21346,171.3889,53,34,0
171.03801,171.3889,48,38,0
171.3889,171.56433,50,37,0
171.56433,171.7617,53,34,0
171.3889,171.7617,46,37,0
171.93611,172.02333,53,34,0
172.11053,172.19775,53,34,0
172.28496,172.37216,53,34,0
172.45938,172.54659,53,37,0
172.63379,172.7247,53,34,0
172.81561,172.90083,53,34,0
172.98607,173.07227,53,34,0
171.7617,173.15848,51,43,0
171.7617,173.15848,45,43,0
173.3319,173.5053,53,34,0
173.15848,173.5053,45,42,0
173.67871,173.85213,53,34,0
173.5053,173.85213,51,38,0
174.02553,174.19894,53,34,0
173.85213,174.19894,50,38,0
174.37236,174.56467,53,34,0
174.19894,174.56467,45,37,0
174.73907,174.8263,53,34,0
174.9135,175.0007,53,34,0
175.08792,175.17513,53,34,0
175.26233,175.34955,53,40,0
175.43675,175.52711,53,37,0
174.56467,175.61748,46,43,0
175.61748,175.7027,53,37,0
175.78793,175.87514,53,37,0
175.61748,175.96236,47,37,0
176.13676,176.31119,53,38,0
175.96236,176.31119,48,47,0
176.48561,176.66002,53,38,0
176.31119,176.66002,45,42,0
176.83444,177.00887,53,38,0
176.66002,177.00887,46,47,0
177.18327,177.3651,53,39,0
177.00887,177.3651,47,43,0
177.53952,177.71393,53,39,0
177.3651,177.71393,48,54,0
177.88835,178.06277,53,39,0
177.71393,178.06277,45,49,0
178.23718,178.40862,53,41,0
178.06277,178.40862,46,56,0
178.58005,178.75148,46,45,0
178.40862,178.75148,44,51,0
178.75148,179.08194,43,62,0
178.92389,179.0963,46,51,0
179.26872,179.46352,51,51,0
179.0963,179.46352,39,58,0
179.46352,179.79398,41,56,0
179.63594,179.80835,50,42,0
179.98076,180.18076,45,43,0
179.80835,180.18076,41,49,0
180.18076,180.35417,34,43,0
180.52759,180.61562,58,35,0
180.70491,180.79387,58,29,0
180.88263,180.97087,58,37,0
181.05907,181.14677,58,35,0
180.35417,181.23425,46,29,0
181.40823,181.58116,58,39,0
181.23425,181.58116,56,43,0
181.7529,181.92363,58,46,0
181.58116,181.92363,55,52,0
182.0931,182.26163,63,50,0
181.92363,182.26163,51,56,0
182.26163,182.59209,53,35,0
182.43404,182.60646,62,29,0
182.77887,182.98157,57,29,0
182.60646,182.98157,53,35,0
182.98157,183.34743,58,39,0
182.98157,183.34743,46,33,0
183.71327,184.39563,62,60,0
183.71327,184.39563,58,50,0
184.39563,185.44829,60,45,0
184.39563,185.44829,51,38,0
185.44829,185.82565,60,41,0
185.44829,185.82565,53,34,0
185.82565,186.56061,58,50,0
185.82565,186.56061,46,42,0
186.57497,187.2653,62,60,0
186.57497,187.2653,58,50,0
187.2653,187.94688,55,41,0
187.2653,187.94688,52,41,0
187.94688,188.64471,60,41,0
187.94688,188.64471,48,41,0
188.64471,189.40315,60,50,0
188.64471,189.40315,53,42,0
189.40315,190.09349,62,60,0
189.40315,190.09349,58,50,0
190.09349,190.77507,60,41,0
190.09349,190.77507,57,41,0
190.77507,191.47292,65,41,0
190.77507,191.47292,53,41,0
191.47292,192.15207,65,50,0
191.47292,192.15207,58,42,0
192.33885,192.85849,62,54,0
192.25264,192.85849,58,52,0
192.16643,192.85849,50,62,0
193.0299,193.54709,62,60,0
192.9442,193.54709,58,58,0
192.85849,193.54709,51,69,0
193.71754,194.22935,62,64,0
193.63231,194.22935,58,61,0
193.54709,194.22935,53,73,0
194.39885,194.93901,62,68,0
194.3141,194.93901,58,64,0
194.22935,194.93901,55,77,0
194.93901,195.29614,70,69,0
194.93901,195.31168,65,58,0
194.93901,195.31168,62,58,0
195.31168,195.64317,67,58,0
195.31168,195.64317,64,58,0
195.31168,195.98215,70,64,0
195.98215,196.15164,69,63,0
195.64317,196.32114,65,59,0
196.32114,196.6535,67,69,0
196.32114,196.66795,62,58,0
196.32114,196.66795,58,58,0
196.66795,196.99945,61,55,0
196.66795,197.33842,67,64,0
196.66795,197.33842,64,55,0
197.33842,197.50792,65,63,0
196.99945,197.50792,62,59,0
197.67741,198.02434,63,69,0
197.67741,198.02434,58,58,0
197.67741,198.02434,55,58,0
198.02434,198.35583,60,58,0
198.02434,198.35583,57,58,0
198.35583,198.69673,58,68,0
198.02434,198.69673,63,64,0
198.52628,198.86719,62,58,0
198.69673,199.03764,51,49,0
198.86719,199.2081,60,66,0
199.03764,199.36435,53,56,0
199.2081,199.54901,58,59,0
199.37856,199.76028,53,49,0
199.54901,200.11742,57,59,0
200.11742,200.29599,58,66,0
199.76028,200.29599,46,56,0
200.47456,200.83601,53,63,0
200.47456,201.17886,46,63,0
200.83601,201.53601,55,57,0
201.53601,201.71458,57,63,0
201.17886,201.89316,45,68,0
201.89316,202.2546,50,63,0
201.89316,202.59746,43,63,0
202.2546,202.9546,52,57,0
202.9546,203.13316,53,63,0
202.59746,203.31174,41,68,0
203.31174,203.66888,46,63,0
203.66888,204.02603,48,57,0
203.31174,204.02603,39,68,0
204.02603,204.38316,38,68,0
204.02603,204.38316,53,56,0
204.38316,204.74016,39,69,0
204.74016,205.09589,41,73,0
204.74016,205.09589,53,68,0
204.74016,205.09589,58,68,0
205.09589,205.46384,29,79,0
205.09589,205.46384,51,72,0
205.09589,205.46384,57,72,0
205.46384,205.80974,34,83,0
206.49545,206.8526,53,46,0
206.1526,206.8526,50,46,0
205.80974,206.8526,46,46,0
207.89114,208.2478,57,47,0
207.20148,208.2478,51,47,0
206.8526,208.2478,46,54,0
206.8526,208.2478,48,54,0
207.54631,208.2478,53,47,0
208.2478,208.59369,34,64,0
209.2794,209.63655,53,46,0
208.93655,209.63655,50,46,0
208.59369,209.63655,46,46,0
210.6751,211.03175,57,47,0
209.98544,211.03175,51,47,0
209.63655,211.03175,46,54,0
209.63655,211.03175,48,54,0
210.33026,211.03175,53,47,0
211.03175,211.37766,34,69,0
212.06337,212.43861,53,52,0
211.7205,212.43861,50,52,0
211.37766,212.43861,46,52,0
212.43861,212.78452,32,77,0
213.47023,213.84738,53,56,0
213.12738,213.84738,50,56,0
212.78452,213.84738,44,56,0
213.84738,214.19328,31,83,0
214.879,215.26888,51,57,0
214.53613,215.26888,46,57,0
214.19328,215.26888,43,57,0
215.26888,215.35608,38,59,0
215.35608,215.4428,41,60,0
215.4428,215.5295,44,61,0
215.5295,215.6162,46,61,0
215.6162,215.70291,50,62,0
215.70291,215.78961,53,64,0
215.78961,215.87631,56,65,0
215.87631,215.96303,58,66,0
216.91443,217.08987,70,34,0
216.739,217.08987,63,42,0
217.2653,217.44075,70,34,0
217.08987,217.44075,67,38,0
217.44075,217.61618,68,38,0
217.61618,217.79163,70,34,0
217.44075,217.79163,65,38,0
217.79163,217.96707,67,37,0
217.96707,218.16443,70,34,0
217.79163,218.16443,63,37,0
218.33885,218.42606,70,34,0
218.51328,218.60048,70,34,0
218.68768,218.7749,70,34,0
218.8621,218.94931,70,37,0
219.03653,219.12634,70,34,0
219.21617,219.30139,70,34,0
219.38663,219.47282,70,34,0
218.16443,219.55904,68,43,0
218.16443,219.55904,62,43,0
219.73245,219.90585,70,34,0
219.55904,219.90585,62,42,0
220.07927,220.25267,70,34,0
219.90585,220.25267,68,38,0
220.42609,220.5995,70,34,0
220.25267,220.5995,67,38,0
220.7729,220.96521,70,34,0
220.5995,220.96521,62,37,0
221.13963,221.22684,70,34,0
220.96521,221.31406,63,43,0
221.48846,221.57568,71,34,0
221.31406,221.66289,63,43,0
221.83731,221.92767,72,34,0
221.66289,222.01804,63,43,0
222.53835,222.71378,67,34,0
222.88922,223.06465,67,34,0
222.71378,223.06465,63,38,0
223.06465,223.2401,65,38,0
223.2401,223.41554,67,34,0
223.06465,223.41554,62,38,0
223.41554,223.59097,63,37,0
223.59097,223.78835,67,34,0
223.41554,223.78835,60,37,0
223.96277,224.04997,67,34,0
224.13718,224.2244,67,34,0
224.3116,224.3988,67,34,0
224.48602,224.66043,67,34,0
223.78835,224.66043,65,43,0
223.78835,224.66043,59,43,0
226.08342,226.26634,67,28,0
226.26634,226.44077,68,34,0
226.44077,226.61519,67,30,0
226.61519,226.7896,65,34,0
226.7896,226.96402,63,30,0
226.96402,227.13844,62,32,0
227.13844,227.33199,60,30,0
227.50641,227.68933,63,40,0
227.68933,227.86375,65,45,0
227.86375,228.03818,63,41,0
228.03818,228.21259,62,45,0
228.21259,228.38701,60,40,0
228.38701,228.56143,58,43,0
228.56143,228.7379,57,40,0
228.7379,228.91232,55,46,0
228.91232,229.08673,53,40,0
229.08673,229.26115,51,40,0
229.26115,229.43558,50,40,0
229.43558,229.60999,48,51,0
229.60999,229.78441,46,41,0
229.78441,229.95883,45,45,0
229.95883,230.1374,43,47,0
230.1374,233.61513,41,51,0
233.61513,233.70284,67,42,0
233.79056,233.96397,65,34,0
234.13737,234.31079,65,34,0
233.96397,234.31079,62,38,0
234.31079,234.4842,63,38,0
234.4842,234.65761,65,34,0
234.31079,234.65761,60,38,0
234.65761,234.83102,62,37,0
234.83102,235.0284,65,34,0
234.65761,235.0284,58,37,0
235.2028,235.29002,65,34,0
235.37723,235.46443,65,34,0
235.55165,235.63885,65,34,0
235.72606,235.8143,65,37,0
235.90254,235.99687,65,34,0
236.09122,236.17644,65,34,0
236.26167,236.34787,65,34,0
235.0284,236.43408,63,43,0
235.0284,236.43408,57,43,0
236.59892,236.77133,65,34,0
236.43408,236.77133,57,42,0
236.94374,237.11617,65,34,0
236.77133,237.11617,63,38,0
237.29367,237.47119,65,34,0
237.11617,237.47119,62,38,0
237.64871,237.84102,65,34,0
237.47119,237.84102,57,37,0
238.01543,238.10265,65,34,0
238.18985,238.27705,65,34,0
238.36427,238.45148,65,34,0
238.53868,238.6259,65,37,0
238.7131,238.80347,65,34,0
237.84102,238.89383,58,43,0
239.06429,239.15149,65,34,0
238.89383,239.23871,59,34,0
239.41312,239.58754,65,34,0
239.23871,239.58754,60,42,0
239.76196,239.93637,65,34,0
239.58754,239.93637,57,38,0
240.11284,240.28932,65,34,0
239.93637,240.28932,58,42,0
240.46579,240.6476,65,34,0
240.28932,240.6476,59,38,0
240.82202,240.99644,65,34,0
240.6476,240.99644,60,47,0
241.17087,241.34528,65,34,0
240.99644,241.34528,57,42,0
241.5197,241.69113,62,35,0
241.34528,241.69113,58,48,0
241.86255,242.03398,60,39,0
241.69113,242.03398,57,44,0
242.03398,242.36444,55,55,0
242.20639,242.37881,58,47,0
242.55122,242.72363,58,50,0
242.37881,242.72363,55,57,0
242.72363,243.05602,48,63,0
242.89705,243.07047,58,46,0
243.07047,243.43608,48,53,0
243.24387,243.59503,58,34,0
243.60948,243.7829,58,29,0
243.7829,243.95631,57,35,0
243.95631,244.12971,55,29,0
244.12971,244.51003,57,34,0
243.43608,244.51003,53,43,0
245.03635,245.21178,53,34,0
244.8609,245.21178,46,42,0
245.38722,245.56265,53,34,0
245.21178,245.56265,50,38,0
245.56265,245.74123,51,38,0
245.74123,245.9198,53,34,0
245.56265,245.9198,48,38,0
245.9198,246.09837,50,37,0
246.09837,246.2808,53,34,0
245.9198,246.2808,46,37,0
246.45523,246.54243,53,34,0
246.62964,246.71686,53,34,0
246.80406,246.89127,53,34,0
246.97849,247.06569,53,37,0
247.1529,247.2438,53,34,0
247.33472,247.41994,53,34,0
247.50517,247.59138,53,34,0
246.2808,247.67758,51,43,0
246.2808,247.67758,45,43,0
247.851,248.02441,53,34,0
247.67758,248.02441,45,42,0
248.19781,248.37123,53,34,0
248.02441,248.37123,51,38,0
248.5477,248.72417,53,34,0
248.37123,248.72417,50,38,0
248.90063,249.09294,53,34,0
248.72417,249.09294,45,37,0
249.26736,249.35457,53,34,0
249.44179,249.52899,53,34,0
249.6162,249.70341,53,34,0
249.79062,249.87782,53,40,0
249.96504,250.0554,53,37,0
249.09294,250.14577,46,43,0
250.31622,250.40343,53,37,0
250.14577,250.49063,47,37,0
250.66505,250.83948,53,38,0
250.49063,250.83948,48,47,0
251.01389,251.18831,53,38,0
250.83948,251.18831,41,42,0
251.36273,251.53714,53,38,0
251.18831,251.53714,46,47,0
251.71156,251.90144,53,39,0
251.53714,251.90144,47,43,0
252.07585,252.25027,53,47,0
251.90144,252.25027,48,54,0
252.4247,252.5991,53,44,0
252.25027,252.5991,41,53,0
252.77353,252.94496,53,49,0
252.5991,252.94496,46,64,0
253.1164,253.28781,46,45,0
252.94496,253.28781,44,60,0
253.28781,253.61827,43,73,0
253.46024,253.63264,46,60,0
253.80505,253.97748,51,60,0
253.63264,253.97748,39,69,0
253.97748,254.3157,41,56,0
254.15395,254.33041,50,42,0
254.50688,254.70688,45,43,0
254.33041,254.70688,41,49,0
254.70688,254.8803,34,43,0
255.05371,255.14174,58,35,0
255.23103,255.31999,58,29,0
255.40875,255.497,58,49,0
255.58517,255.6729,58,39,0
254.8803,255.76038,46,29,0
255.93434,256.10727,58,39,0
255.76038,256.10727,56,50,0
256.27902,256.44974,58,52,0
256.10727,256.44974,55,63,0
256.6192,256.78775,63,50,0
256.44974,256.78775,51,56,0
256.78775,257.1182,53,35,0
256.96017,257.13257,62,29,0
257.305,257.5077,57,29,0
257.13257,257.5077,53,35,0
257.5077,257.86697,58,39,0
257.5077,257.86697,46,33,0
258.21045,258.96518,65,79,0
258.21045,258.96518,62,69,0
258.96518,259.7199,65,79,0
258.96518,259.7199,63,69,0
258.96518,259.7199,60,69,0
259.7199,260.4746,65,79,0
259.7199,260.4746,62,69,0
259.7199,260.4746,58,69,0
260.4746,261.22934,57,69,0
260.4746,261.22934,60,69,0
260.4746,261.22934,65,79,0
261.22934,261.98404,58,72,0
261.22934,261.98404,56,72,0
261.22934,261.98404,65,86,0
261.98404,262.0723,55,55,0
261.98404,262.0723,58,55,0
261.98404,262.0723,63,64,0
262.33698,262.42523,52,29,0
262.33698,262.42523,58,29,0
262.33698,262.42523,60,35,0
262.68994,262.77817,53,33,0
262.68994,262.77817,58,33,0
262.68994,262.77817,62,39,0
263.04288,263.13904,53,29,0
263.04288,263.13904,57,29,0
263.04288,263.13904,60,35,0
263.4275,263.77634,58,39,0
263.4275,263.77634,46,33,0
264.12515,264.22894,62,70,0
264.2195,264.3228,61,56,0
264.31384,264.41263,62,60,0
264.40366,264.50247,61,55,0
264.49347,264.5923,62,60,0
264.5833,264.68268,65,55,0
264.67313,264.77823,63,55,0
264.76868,264.8642,62,55,0
264.8642,264.9636,60,70,0
264.95456,265.05396,59,56,0
265.04492,265.14432,60,60,0
265.13528,265.23468,59,55,0
265.22565,265.32504,60,60,0
265.316,265.416,63,55,0
265.40637,265.51215,62,55,0
265.50253,265.5987,60,55,0
265.5987,265.7018,58,70,0
265.69244,265.79526,57,56,0
265.7862,265.88617,58,60,0
265.8771,265.97708,57,55,0
265.968,266.068,58,60,0
266.0589,266.1595,62,55,0
266.1498,266.25626,60,55,0
266.24658,266.34335,58,55,0
266.34335,266.44586,57,70,0
266.43652,266.5388,56,56,0
266.5297,266.6297,57,60,0
266.6206,266.7206,56,55,0
266.71152,266.81152,57,60,0
266.80243,266.9029,60,55,0
266.89334,266.99844,58,55,0
266.9889,267.0844,57,55,0
267.0844,267.1882,56,70,0
267.17877,267.28226,55,56,0
267.2731,267.37372,56,60,0
267.36456,267.46518,55,55,0
267.45602,267.55664,56,60,0
267.5475,267.64844,60,55,0
267.63895,267.74338,58,55,0
267.7339,267.82883,56,55,0
267.82883,267.92944,55,70,0
267.9203,268.0209,58,48,0
268.01175,268.11237,57,43,0
268.1032,268.19467,58,43,0
268.19467,268.29233,52,49,0
268.28345,268.38107,58,43,0
268.3722,268.46982,57,42,0
268.46097,268.5497,58,43,0
268.5497,268.64734,53,57,0
268.63846,268.7361,58,46,0
268.72723,268.82486,57,50,0
268.81598,268.90475,58,50,0
268.90475,269.00473,53,60,0
268.99564,269.09564,57,50,0
269.08655,269.18655,56,50,0
269.17746,269.26837,57,51,0
269.26837,269.3556,58,61,0
269.3556,269.4428,60,56,0
269.4428,269.53,62,58,0
269.53,269.61722,63,61,0
269.61722,269.70444,65,63,0
269.70444,269.79163,67,66,0
269.79163,269.87885,69,68,0
269.87885,269.96606,70,72,0
269.96606,270.06982,68,76,0
270.0604,270.16388,67,61,0
270.15472,270.25534,65,66,0
270.2462,270.3468,63,60,0
270.33765,270.43826,62,66,0
270.4291,270.5301,60,60,0
270.52057,270.625,58,60,0
270.6155,270.71045,56,60,0
270.71045,270.81107,55,76,0
270.8019,270.90253,58,52,0
270.89337,270.994,57,46,0
270.98483,271.07632,58,46,0
271.07632,271.17395,52,44,0
271.16507,271.2627,58,52,0
271.2538,271.35147,57,46,0
271.3426,271.43134,58,48,0
271.43134,271.52896,53,62,0
271.5201,271.61774,58,50,0
271.60886,271.70648,57,55,0
271.6976,271.78638,58,55,0
271.78638,271.88638,53,66,0
271.8773,271.97726,57,55,0
271.9682,272.06818,56,55,0
272.05908,272.15,57,56,0
272.15,272.2372,58,67,0
272.2372,272.32443,57,61,0
272.32443,272.41162,55,63,0
272.41162,272.49884,53,67,0
272.49884,272.58606,51,69,0
272.58606,272.67325,50,72,0
272.67325,272.76047,48,74,0
272.76047,272.8477,46,79,0
272.8477,272.95145,44,76,0
272.94202,273.0455,43,61,0
273.03635,273.13696,41,66,0
273.1278,273.22842,39,60,0
273.2193,273.3199,38,66,0
273.31076,273.41183,36,60,0
273.40222,273.508,34,60,0
273.49835,273.5945,32,60,0
273.5945,273.70453,31,87,0
273.69452,273.80453,43,56,0
273.79453,273.9045,42,58,0
273.89453,273.9945,43,58,0
273.9945,274.09894,30,84,0
274.08945,274.19388,42,63,0
274.1844,274.28882,41,62,0
274.27933,274.37427,42,62,0
274.37427,274.4807,29,93,0
274.47104,274.57748,41,66,0
274.5678,274.67426,40,66,0
274.66458,274.76135,41,66,0
274.76135,274.87286,29,90,0
274.8627,274.9742,41,68,0
274.96408,275.07846,40,68,0
275.06543,275.19586,41,68,0
275.19586,275.5638,34,96,0
275.74347,275.9231,65,39,0
275.9231,276.10275,67,42,0
276.10275,276.28238,65,36,0
276.28238,276.46204,63,39,0
276.46204,276.64166,62,36,0
276.64166,276.82132,60,42,0
276.82132,277.00095,58,37,0
277.00095,277.18057,57,39,0
277.18057,277.36578,55,36,0
276.64166,277.36578,53,35,0
277.36578,277.5465,53,39,0
277.5465,277.7272,51,37,0
277.7272,277.90793,50,36,0
277.90793,278.08865,48,34,0
277.36578,278.08865,41,35,0
278.08865,278.4559,46,53,0
278.6345,278.81305,53,33,0
278.81305,278.99164,55,35,0
278.99164,279.1702,53,32,0
279.1702,279.3488,51,33,0
279.3488,279.52734,50,32,0
279.52734,279.7059,48,35,0
279.7059,279.8845,46,32,0
279.8845,280.06305,45,33,0
280.06305,280.2427,43,29,0
279.52734,280.2427,41,30,0
280.2427,280.42676,41,33,0
280.42676,280.6108,39,31,0
280.6108,280.79486,38,30,0
280.79486,281.00317,36,28,0
280.2427,281.00317,29,30,0
281.00317,281.09576,34,31,0
281.37354,281.46616,60,35,0
281.37354,281.46616,53,35,0
281.74393,281.84738,58,35,0
282.1577,282.27966,53,84,0
282.1577,282.27966,41,70,0
282.6455,282.76746,46,93,0
282.6455,282.76746,34,79,0
