start_time,end_time,note_value,velocity,instrument_program_number
1.274787,1.4872515,64,43,0
1.4872515,1.7176663,66,39,0
1.7176663,1.9301307,64,34,0
1.9301307,2.1425953,59,26,0
2.1425953,2.3550599,64,31,0
2.3550599,2.5675242,59,26,0
1.7176663,2.5675242,68,50,0
2.5675242,2.7770214,68,30,0
2.7770214,2.9865189,59,27,0
2.5675242,2.9865189,71,46,0
2.9865189,3.2004988,66,28,0
3.2004988,3.420763,59,27,0
2.9865189,3.420763,69,43,0
3.420763,3.6378398,64,34,0
3.6378398,3.8549166,59,26,0
3.420763,3.8549166,68,50,0
3.8549166,4.067381,63,27,0
4.067381,4.2267294,59,25,0
3.8549166,4.2267294,66,41,0
4.2798457,4.49231,63,27,0
4.49231,4.7047744,59,26,0
4.2798457,4.7047744,66,41,0
4.7047744,4.912819,64,28,0
4.912819,5.1208634,59,28,0
4.7047744,5.1208634,68,43,0
5.1208634,5.333328,64,30,0
5.333328,5.5457926,59,28,0
5.1208634,5.5457926,69,46,0
5.5457926,5.758257,64,36,0
5.758257,5.9707217,59,31,0
5.5457926,5.9707217,73,54,0
5.9707217,6.183186,66,37,0
6.183186,6.3956504,59,26,0
5.9707217,6.3956504,71,47,0
6.3956504,6.612727,63,25,0
6.612727,6.864405,59,27,0
6.3956504,6.864405,66,38,0
6.864405,7.714263,68,42,0
6.864405,7.714263,64,35,0
6.864405,7.714263,59,35,0
8.139192,8.351657,76,54,0
8.351657,8.582071,78,48,0
8.582071,9.43193,80,63,0
8.582071,9.43193,68,63,0
9.43193,9.850924,83,57,0
9.43193,9.850924,71,57,0
9.850924,10.285168,81,54,0
9.850924,10.285168,69,54,0
10.285168,10.719321,80,63,0
10.285168,10.719321,68,63,0
10.719321,11.091134,78,51,0
10.719321,11.091134,66,51,0
11.144251,11.56918,78,51,0
11.144251,11.56918,66,51,0
11.56918,11.985269,80,58,0
11.56918,11.985269,68,58,0
11.985269,12.410197,81,69,0
11.985269,12.410197,69,57,0
12.410197,12.835127,85,69,0
12.410197,12.835127,73,69,0
12.835127,13.260056,83,67,0
12.835127,13.260056,71,56,0
13.260056,13.72881,75,32,0
13.260056,13.72881,87,49,0
13.72881,14.578668,76,35,0
13.72881,14.578668,88,57,0
14.994757,15.42973,71,47,0
15.42973,16.279589,70,51,0
16.279589,17.142208,76,56,0
17.142208,18.426086,75,51,0
18.426086,18.863615,69,49,0
18.863615,19.719534,68,60,0
19.719534,20.595484,74,64,0
20.595484,21.87488,73,56,0
21.87488,22.293875,73,56,0
22.293875,22.718803,72,58,0
22.718803,23.143734,73,58,0
23.143734,23.46243,61,46,0
23.143734,23.46243,64,46,0
23.143734,23.46243,69,55,0
23.568663,23.898132,59,44,0
23.568663,23.898132,64,44,0
23.568663,23.898132,68,54,0
24.015137,24.443096,68,72,0
24.015137,24.884005,58,60,0
24.015137,24.884005,64,60,0
24.443096,25.311966,66,58,0
25.311966,25.76749,66,60,0
24.884005,25.76749,57,58,0
24.884005,25.76749,64,58,0
25.76749,26.198526,57,41,0
25.76749,26.198526,63,41,0
25.76749,26.198526,66,49,0
26.198526,26.62956,71,38,0
26.62956,27.076654,70,46,0
26.198526,27.076654,63,32,0
27.076654,27.549786,63,34,0
27.076654,27.549786,71,40,0
27.549786,28.399643,64,51,0
28.815731,29.250706,71,47,0
28.815731,29.250706,83,47,0
29.250706,30.100563,70,51,0
29.250706,30.100563,82,51,0
30.100563,30.963182,76,56,0
30.100563,30.963182,88,56,0
30.963182,32.247063,75,51,0
30.963182,32.247063,87,51,0
32.247063,32.68459,69,51,0
32.247063,32.68459,81,51,0
32.68459,33.54051,68,62,0
32.68459,33.54051,80,62,0
33.54051,34.41646,74,59,0
33.54051,34.41646,86,59,0
34.41646,35.695854,73,56,0
34.41646,35.695854,85,56,0
35.695854,36.11485,73,50,0
35.695854,36.11485,85,50,0
36.11485,36.53978,72,59,0
36.11485,36.53978,84,59,0
36.53978,36.964706,73,60,0
36.53978,36.964706,85,60,0
36.964706,37.283405,69,58,0
36.964706,37.283405,81,58,0
37.389637,37.719105,68,57,0
37.389637,37.719105,80,57,0
37.83611,38.264072,68,70,0
37.83611,38.264072,80,70,0
38.264072,39.124023,66,64,0
38.264072,39.124023,78,64,0
39.13294,39.564312,66,53,0
39.13294,39.564312,78,53,0
39.588467,40.0195,66,49,0
39.588467,40.0195,78,49,0
40.0195,40.450535,71,38,0
40.0195,40.450535,83,38,0
40.450535,40.89763,70,46,0
40.450535,40.89763,82,46,0
40.89763,41.37076,71,40,0
40.89763,41.37076,83,40,0
41.37076,42.278477,64,51,0
41.37076,42.278477,76,51,0
42.746952,42.97388,64,43,0
42.97388,43.213497,66,39,0
43.213497,43.43872,64,34,0
43.43872,43.663948,59,26,0
43.663948,43.88917,64,31,0
43.88917,44.1144,59,26,0
43.213497,44.1144,68,50,0
44.1144,44.326862,68,30,0
44.326862,44.539326,59,27,0
44.1144,44.539326,71,46,0
44.539326,44.75959,66,28,0
44.75959,44.979855,59,27,0
44.539326,44.979855,69,43,0
44.979855,45.19693,64,34,0
45.19693,45.41401,59,26,0
44.979855,45.41401,68,50,0
45.41401,45.626472,63,27,0
45.626472,45.78582,59,25,0
45.41401,45.78582,66,41,0
45.838936,46.051403,63,27,0
46.051403,46.263866,59,26,0
45.838936,46.263866,66,41,0
46.263866,46.471912,64,28,0
46.471912,46.679955,59,28,0
46.263866,46.679955,68,43,0
46.679955,46.89242,64,30,0
46.89242,47.104885,59,28,0
46.679955,47.104885,69,46,0
47.104885,47.31735,64,36,0
47.31735,47.52981,59,31,0
47.104885,47.52981,73,54,0
47.52981,47.74228,66,37,0
47.74228,47.954742,59,26,0
47.52981,47.954742,71,47,0
47.954742,48.171818,63,25,0
48.171818,48.423496,59,27,0
47.954742,48.423496,66,38,0
48.423496,48.887894,68,42,0
48.423496,48.887894,64,35,0
48.423496,48.887894,59,35,0
49.259705,49.312824,78,48,0
49.312824,49.51663,76,54,0
49.51663,49.720432,75,48,0
49.720432,49.924236,76,56,0
49.924236,50.077087,78,50,0
50.077087,50.12804,81,50,0
50.12804,50.327774,80,60,0
50.327774,50.527508,78,55,0
50.527508,50.729935,80,49,0
50.729935,50.953484,81,55,0
50.953484,51.36957,83,63,0
50.953484,51.36957,71,54,0
51.36957,51.797882,69,54,0
51.36957,51.797882,81,64,0
51.797882,52.216877,68,59,0
51.797882,52.216877,80,70,0
52.216877,52.629074,78,67,0
52.216877,52.629074,66,56,0
52.6516,53.07354,78,75,0
52.6516,53.07354,66,63,0
53.07354,53.49548,68,57,0
53.07354,53.49548,80,68,0
53.49548,53.91742,81,76,0
53.49548,53.91742,69,64,0
53.91742,54.35362,73,58,0
53.91742,54.35362,85,69,0
54.35362,54.778545,71,67,0
54.35362,54.778545,83,80,0
54.778545,55.116383,87,83,0
54.778545,55.116383,81,70,0
54.778545,55.116383,75,70,0
55.228996,56.091614,88,88,0
55.228996,56.091614,80,73,0
55.228996,56.091614,76,73,0
56.522648,56.74454,68,87,0
56.522648,56.74454,64,73,0
56.96644,58.250317,68,96,0
56.96644,58.250317,64,81,0
58.250317,58.47221,64,28,0
58.250317,58.47221,68,28,0
58.250317,58.47221,76,34,0
58.694103,59.943825,63,33,0
58.694103,59.943825,75,39,0
58.694103,59.943825,68,33,0
58.694103,59.943825,66,33,0
59.943825,60.165718,68,87,0
59.943825,60.165718,66,73,0
59.943825,60.165718,63,73,0
60.38761,61.67149,68,96,0
60.38761,61.67149,63,81,0
60.38761,61.67149,66,81,0
61.67149,61.893383,66,28,0
61.67149,61.893383,63,28,0
61.67149,61.893383,75,34,0
61.67149,61.893383,68,28,0
62.115276,63.364998,64,33,0
62.115276,63.364998,68,33,0
62.115276,63.364998,76,39,0
63.364998,63.58689,68,87,0
63.364998,63.58689,64,73,0
63.808784,65.09267,68,96,0
63.808784,65.09267,64,81,0
65.09267,65.31456,64,28,0
65.09267,65.31456,68,28,0
65.09267,65.31456,76,34,0
65.53645,66.78617,64,33,0
65.53645,66.78617,66,33,0
65.53645,66.78617,76,39,0
66.78617,67.008064,64,87,0
66.78617,67.008064,61,73,0
67.22996,68.51384,64,96,0
67.22996,68.51384,59,81,0
68.51384,68.73573,71,70,0
68.51384,68.73573,76,85,0
68.51384,68.73573,64,70,0
68.95763,70.207344,70,66,0
68.95763,70.207344,64,66,0
68.95763,70.207344,76,78,0
68.95763,70.207344,73,66,0
70.64405,71.88371,85,53,0
70.64405,71.88371,76,53,0
71.88371,72.271645,83,57,0
71.88371,72.271645,75,57,0
72.31475,72.727974,75,62,0
72.31475,72.727974,83,62,0
72.727974,73.09988,82,48,0
72.727974,73.09988,73,48,0
73.1412,73.55729,73,47,0
73.1412,73.55729,82,47,0
73.55729,73.99144,83,39,0
73.55729,73.99144,75,39,0
73.99144,75.23971,85,53,0
73.99144,75.23971,76,53,0
75.23971,75.62764,83,57,0
75.23971,75.62764,75,57,0
75.67074,76.08396,73,62,0
75.67074,76.08396,82,62,0
76.08396,76.497185,76,48,0
76.08396,76.497185,85,48,0
76.497185,76.91328,75,47,0
76.497185,76.91328,83,47,0
76.91328,77.34743,82,39,0
76.91328,77.34743,73,39,0
77.34743,77.781586,78,39,0
77.34743,77.781586,83,39,0
77.781586,78.19767,82,34,0
78.19767,78.61376,80,39,0
78.61376,79.054886,78,35,0
79.054886,79.47097,80,39,0
79.47097,79.88706,78,37,0
79.88706,80.30757,76,39,0
80.30757,80.72805,75,34,0
80.74696,82.00988,75,39,0
82.00988,82.23177,76,38,0
82.23177,82.46578,78,33,0
82.46578,82.89994,73,39,0
82.89994,83.113464,78,39,0
83.113464,83.32522,80,34,0
83.32522,83.53475,78,39,0
83.53475,83.75341,80,35,0
83.75341,83.97208,78,39,0
83.97208,84.20073,80,35,0
84.20073,84.40734,78,39,0
84.40734,84.61395,80,35,0
84.61395,84.820564,78,39,0
84.820564,85.027176,80,35,0
85.027176,85.23379,78,39,0
85.23379,85.4404,80,37,0
84.20073,85.4404,88,53,0
84.20073,85.4404,85,53,0
85.4404,85.655914,78,43,0
85.4404,85.82833,83,57,0
85.4404,85.82833,87,57,0
85.655914,85.87144,80,41,0
85.87144,86.07805,78,48,0
86.07805,86.28466,80,42,0
85.87144,86.28466,83,62,0
85.87144,86.28466,87,62,0
86.28466,86.49127,78,46,0
86.28466,86.656555,85,48,0
86.28466,86.656555,82,48,0
86.49127,86.69788,80,40,0
86.69788,86.90592,78,44,0
86.90592,87.11397,80,38,0
86.69788,87.11397,82,47,0
86.69788,87.11397,85,47,0
87.11397,87.33105,78,41,0
87.33105,87.54813,80,36,0
87.11397,87.54813,83,39,0
87.11397,87.54813,87,39,0
87.54813,87.75762,78,39,0
87.75762,87.96423,80,36,0
87.96423,88.170845,78,41,0
88.170845,88.37746,80,38,0
88.37746,88.58407,78,43,0
88.58407,88.79068,80,40,0
87.54813,88.79068,85,53,0
87.54813,88.79068,88,53,0
88.79068,89.006195,78,46,0
88.79068,89.17861,83,57,0
88.79068,89.17861,87,57,0
89.006195,89.22171,80,42,0
89.22171,89.43569,82,62,0
89.43569,89.64967,78,36,0
89.22171,89.64967,85,62,0
89.64967,89.85772,88,48,0
89.85772,90.06576,78,36,0
89.64967,90.06576,92,48,0
90.06576,90.2738,87,47,0
90.2738,90.48185,78,36,0
90.06576,90.48185,90,47,0
90.48185,90.69431,85,39,0
90.69431,90.90678,78,36,0
90.48185,90.90678,88,39,0
90.90678,91.11339,83,62,0
91.11339,91.32,78,35,0
90.90678,91.32,87,62,0
91.32,91.5252,87,47,0
91.5252,91.7304,78,34,0
91.32,91.7304,90,47,0
91.7304,91.938446,85,45,0
91.938446,92.146484,78,34,0
91.7304,92.146484,88,45,0
92.146484,92.360466,83,36,0
92.360466,92.57144,78,33,0
92.146484,92.57144,87,36,0
92.57144,92.78094,82,57,0
92.78094,92.99043,78,32,0
92.57144,92.99043,85,57,0
92.99043,93.19563,85,43,0
93.19563,93.40083,78,32,0
92.99043,93.40083,88,43,0
93.40083,93.60887,83,41,0
93.60887,93.81692,78,31,0
93.40083,93.81692,87,41,0
93.81692,94.02938,82,33,0
94.02938,94.241844,78,30,0
93.81692,94.241844,85,33,0
94.455826,94.66981,78,29,0
94.241844,94.66981,83,52,0
94.8793,95.0888,72,29,0
94.66981,95.0888,81,39,0
95.30588,95.52296,72,28,0
95.0888,95.52296,80,37,0
95.75162,95.98027,72,27,0
95.52296,95.98027,80,30,0
95.98027,96.20893,72,39,0
95.98027,96.20893,80,39,0
96.20893,96.421394,68,33,0
96.421394,96.63386,70,34,0
96.63386,96.80278,72,37,0
96.80278,96.859085,75,35,0
96.859085,97.07307,73,39,0
97.07307,97.28705,72,32,0
97.28705,97.50102,73,35,0
97.50102,97.73322,75,32,0
97.73322,97.9503,76,39,0
97.9503,98.16737,72,33,0
98.16737,98.38445,73,35,0
98.38445,98.55465,75,32,0
98.55465,98.61138,78,32,0
98.61138,98.82235,76,41,0
98.82235,99.033325,75,33,0
99.033325,99.253586,76,35,0
99.253586,99.473854,78,32,0
99.473854,99.68482,80,42,0
99.68482,99.89579,78,35,0
99.89579,100.106766,76,35,0
100.106766,100.32866,75,34,0
100.32866,100.54112,76,41,0
100.54112,100.753586,75,35,0
100.753586,100.96605,73,35,0
100.96605,101.19825,80,34,0
101.19825,101.41533,75,40,0
101.41533,101.6324,73,34,0
101.6324,101.84948,71,35,0
101.84948,102.06656,78,35,0
102.06656,102.28363,73,40,0
102.28363,102.50071,71,33,0
102.50071,102.72937,70,35,0
102.72937,102.9723,78,33,0
102.994385,104.66044,66,36,0
102.994385,104.66044,75,43,0
102.994385,104.66044,78,43,0
104.66044,105.4818,76,34,0
104.66044,105.4818,73,34,0
104.66044,105.4818,64,28,0
105.4818,106.31665,75,30,0
105.4818,106.31665,71,30,0
105.4818,106.31665,63,25,0
106.31665,107.14532,73,39,0
106.31665,107.14532,68,39,0
107.14532,107.98465,68,29,0
107.98465,108.82399,66,33,0
107.14532,108.82399,71,35,0
108.82399,109.25047,70,44,0
109.25047,109.70313,78,43,0
108.82399,109.70313,66,37,0
109.70313,111.34434,78,67,0
109.70313,111.34434,69,57,0
109.70313,111.34434,66,57,0
111.34434,112.14327,76,63,0
111.34434,112.14327,69,51,0
111.34434,112.14327,64,51,0
112.14327,112.9762,66,52,0
112.14327,112.9762,63,52,0
112.14327,112.9762,69,52,0
112.14327,112.9762,75,64,0
112.9762,113.79173,73,80,0
112.9762,113.79173,69,68,0
113.79173,115.45584,63,68,0
113.79173,115.45584,71,81,0
113.79173,115.45584,66,68,0
115.45584,116.29086,63,67,0
115.45584,116.29086,69,80,0
115.45584,116.29086,66,67,0
116.29086,116.491936,69,82,0
116.491936,116.69301,75,75,0
116.69301,116.89408,78,80,0
116.89408,117.09515,75,77,0
117.09515,117.29623,81,68,0
117.29623,117.4973,87,59,0
117.4973,117.69837,90,50,0
117.69837,117.93422,87,41,0
117.93422,118.79014,93,54,0
119.013565,119.2412,63,39,0
119.2412,119.47467,64,39,0
119.47467,119.73284,66,41,0
119.73284,119.95639,64,34,0
119.95639,120.17994,59,26,0
120.17994,120.40349,64,31,0
120.40349,120.62703,59,26,0
119.73284,120.62703,68,50,0
120.62703,120.84411,68,30,0
120.84411,121.06277,59,27,0
120.62703,121.06277,71,46,0
121.06277,121.283035,66,28,0
121.283035,121.503296,59,27,0
121.06277,121.503296,69,43,0
121.503296,121.720375,64,34,0
121.720375,121.93745,59,26,0
121.503296,121.93745,68,50,0
121.93745,122.14992,63,27,0
122.14992,122.309265,59,25,0
121.93745,122.309265,66,41,0
122.36238,122.574844,63,27,0
122.574844,122.78731,59,26,0
122.36238,122.78731,66,41,0
122.78731,122.99535,64,28,0
122.99535,123.2034,59,28,0
122.78731,123.2034,68,43,0
123.2034,123.41586,64,30,0
123.41586,123.62833,59,28,0
123.2034,123.62833,69,46,0
123.62833,123.84079,64,36,0
123.84079,124.05325,59,31,0
123.62833,124.05325,73,54,0
124.05325,124.26572,66,37,0
124.26572,124.47819,59,26,0
124.05325,124.47819,71,47,0
124.47819,124.69526,63,25,0
124.69526,124.94694,59,27,0
124.47819,124.94694,66,38,0
124.94694,125.7968,68,42,0
124.94694,125.7968,64,35,0
124.94694,125.7968,59,35,0
126.221725,126.43419,76,47,0
126.43419,126.664604,78,42,0
126.664604,127.514465,80,55,0
126.664604,127.514465,68,55,0
127.514465,127.93346,83,50,0
127.514465,127.93346,71,50,0
127.93346,128.3677,81,47,0
127.93346,128.3677,69,47,0
128.3677,128.80185,80,55,0
128.3677,128.80185,68,55,0
128.80185,129.17368,78,45,0
128.80185,129.17368,66,45,0
129.22679,129.65172,78,45,0
129.22679,129.65172,66,45,0
129.65172,130.0678,80,49,0
129.65172,130.0678,68,49,0
130.0678,130.49274,81,56,0
130.0678,130.49274,69,47,0
130.49274,130.91766,85,61,0
130.49274,130.91766,73,51,0
130.91766,131.34259,83,57,0
130.91766,131.34259,71,47,0
131.34259,131.81134,75,32,0
131.34259,131.81134,87,49,0
131.81134,132.66121,76,35,0
131.81134,132.66121,88,57,0
133.07729,133.51227,71,47,0
133.51227,134.36212,70,51,0
134.36212,135.22475,76,56,0
135.22475,136.50862,75,51,0
136.50862,136.94615,69,45,0
136.94615,137.80206,68,51,0
137.80206,138.67802,74,54,0
138.67802,139.95741,73,51,0
139.95741,140.3764,73,48,0
140.3764,140.78401,72,57,0
140.78401,141.19162,73,58,0
141.19162,141.5037,61,46,0
141.19162,141.5037,64,46,0
141.19162,141.5037,69,55,0
141.60771,141.93277,59,46,0
141.60771,141.93277,64,46,0
141.60771,141.93277,68,55,0
142.04977,142.47772,68,76,0
142.04977,142.91864,58,64,0
142.04977,142.91864,64,64,0
142.47772,143.3466,66,62,0
143.3466,143.80212,66,67,0
142.91864,143.80212,57,63,0
142.91864,143.80212,64,63,0
143.80212,144.23315,57,41,0
143.80212,144.23315,63,41,0
143.80212,144.23315,66,49,0
144.23315,144.6642,71,38,0
144.6642,145.11128,70,46,0
144.23315,145.11128,63,32,0
145.11128,145.58441,63,34,0
145.11128,145.58441,71,40,0
145.58441,146.43428,64,51,0
146.85036,147.28534,71,47,0
146.85036,147.28534,83,47,0
147.28534,148.12332,70,51,0
147.28534,148.12332,82,51,0
148.12332,148.97705,76,56,0
148.12332,148.97705,88,56,0
148.97705,150.24287,75,51,0
148.97705,150.24287,87,51,0
150.24287,150.67738,69,45,0
150.24287,150.67738,81,45,0
150.67738,151.53331,68,51,0
150.67738,151.53331,80,51,0
151.53331,152.40926,74,54,0
151.53331,152.40926,86,54,0
152.40926,153.68864,73,51,0
152.40926,153.68864,85,51,0
153.68864,154.10765,73,50,0
153.68864,154.10765,85,50,0
154.10765,154.52959,72,59,0
154.10765,154.52959,84,59,0
154.52959,154.95152,73,60,0
154.52959,154.95152,85,60,0
154.95152,155.26799,69,58,0
154.95152,155.26799,81,58,0
155.37347,155.70145,68,57,0
155.37347,155.70145,80,57,0
155.81845,156.24641,68,71,0
155.81845,156.24641,80,71,0
156.24641,157.10637,66,65,0
156.24641,157.10637,78,65,0
157.11528,157.54665,66,69,0
157.11528,157.54665,78,69,0
157.5708,158.00183,66,49,0
157.5708,158.00183,78,49,0
158.00183,158.43288,71,38,0
158.00183,158.43288,83,38,0
158.43288,158.87996,70,46,0
158.43288,158.87996,82,46,0
158.87996,159.3531,71,40,0
158.87996,159.3531,83,40,0
159.3531,160.26082,64,51,0
159.3531,160.26082,76,51,0
160.7293,160.95622,64,43,0
160.95622,161.19583,66,39,0
161.19583,161.42107,64,34,0
161.42107,161.64629,59,26,0
161.64629,161.8715,64,31,0
161.8715,162.09674,59,26,0
161.19583,162.09674,68,50,0
162.09674,162.3092,68,30,0
162.3092,162.52167,59,27,0
162.09674,162.52167,71,46,0
162.52167,162.74193,66,28,0
162.74193,162.96219,59,27,0
162.52167,162.96219,69,43,0
162.96219,163.17928,64,34,0
163.17928,163.39635,59,26,0
162.96219,163.39635,68,50,0
163.39635,163.60881,63,27,0
163.60881,163.76816,59,25,0
163.39635,163.76816,66,41,0
163.82127,164.03374,63,27,0
164.03374,164.2462,59,26,0
163.82127,164.2462,66,41,0
164.2462,164.45425,64,28,0
164.45425,164.6623,59,28,0
164.2462,164.6623,68,43,0
164.6623,164.87476,64,30,0
164.87476,165.08722,59,28,0
164.6623,165.08722,69,46,0
165.08722,165.29968,64,36,0
165.29968,165.51215,59,31,0
165.08722,165.51215,73,54,0
165.51215,165.72461,66,37,0
165.72461,165.93707,59,26,0
165.51215,165.93707,71,47,0
165.93707,166.15416,63,25,0
166.15416,166.40584,59,27,0
165.93707,166.40584,66,38,0
166.40584,166.87022,68,42,0
166.40584,166.87022,64,35,0
166.40584,166.87022,59,35,0
167.2318,167.28345,78,42,0
167.28345,167.48453,76,47,0
167.48453,167.6856,75,42,0
167.6856,167.88667,76,48,0
167.88667,168.03748,78,47,0
168.03748,168.08774,81,50,0
168.08774,168.28882,80,52,0
168.28882,168.48988,78,47,0
168.48988,168.69232,80,42,0
168.69232,168.91586,81,47,0
168.91586,169.32347,83,53,0
168.91586,169.32347,71,45,0
169.32347,169.74754,69,45,0
169.32347,169.74754,81,53,0
169.74754,170.16653,68,49,0
169.74754,170.16653,80,58,0
170.16653,170.57874,78,55,0
170.16653,170.57874,66,46,0
170.60126,171.0232,78,70,0
170.60126,171.0232,66,58,0
171.0232,171.44514,68,54,0
171.0232,171.44514,80,64,0
171.44514,171.86708,81,77,0
171.44514,171.86708,69,65,0
171.86708,172.30328,73,57,0
171.86708,172.30328,85,68,0
172.30328,172.72821,71,67,0
172.30328,172.72821,83,80,0
172.72821,173.06604,87,83,0
172.72821,173.06604,81,70,0
172.72821,173.06604,75,70,0
173.17865,174.04128,88,91,0
173.17865,174.04128,80,76,0
173.17865,174.04128,76,76,0
174.4662,174.89113,64,34,0
174.4662,174.89113,68,41,0
174.89113,175.31013,69,46,0
175.31013,175.72913,73,39,0
174.89113,175.72913,63,39,0
175.72913,176.14812,64,38,0
175.72913,176.14812,71,45,0
176.14812,176.47194,69,40,0
176.14812,176.47194,75,48,0
176.58627,177.02228,68,38,0
176.58627,177.02228,76,45,0
177.02228,177.86559,67,34,0
177.86559,178.29988,79,57,0
178.29988,178.72235,81,67,0
178.72235,179.14134,84,65,0
179.14134,179.57549,83,76,0
179.57549,179.92825,75,79,0
179.57549,179.92825,81,79,0
179.57549,179.92825,87,93,0
180.0541,180.91937,88,101,0
180.0541,180.91937,79,85,0
180.0541,180.91937,76,85,0
181.34734,181.78838,67,47,0
181.78838,182.2194,69,53,0
182.2194,182.6501,72,48,0
182.6501,183.07806,71,49,0
183.07806,183.29204,75,49,0
183.07806,183.29204,69,41,0
183.50534,183.7134,67,47,0
183.50534,183.7134,76,57,0
183.92143,184.12949,79,67,0
183.92143,184.12949,76,67,0
184.33752,184.54556,76,73,0
184.33752,184.54556,84,73,0
184.75362,184.96165,84,73,0
184.75362,184.96165,76,73,0
185.16971,185.37775,84,84,0
185.16971,185.37775,76,84,0
185.58578,185.80768,81,83,0
185.58578,185.80768,84,83,0
186.02957,186.23477,86,87,0
186.02957,186.23477,89,87,0
186.43997,186.64517,86,85,0
186.43997,186.64517,89,85,0
186.85037,187.05011,86,90,0
186.85037,187.05011,89,90,0
187.24983,187.44957,89,86,0
187.24983,187.44957,86,86,0
187.6493,187.84904,89,88,0
187.6493,187.84904,86,88,0
188.04877,188.2485,89,94,0
188.04877,188.2485,86,94,0
188.4625,192.16179,86,102,0
188.4625,192.16179,89,102,0
192.16179,193.00745,89,62,0
192.16179,193.00745,86,62,0
193.00745,193.21991,84,54,0
193.00745,193.21991,88,54,0
193.43237,193.65244,86,46,0
193.87271,194.09297,81,49,0
193.87271,194.09297,74,41,0
194.3136,194.76392,76,36,0
194.3136,194.76392,79,43,0
194.76392,194.99425,71,36,0
194.76392,194.99425,74,36,0
194.76392,194.99425,79,43,0
194.99425,195.22646,67,40,0
195.22646,196.74971,67,36,0
195.22646,196.74971,72,43,0
195.22646,196.74971,76,43,0
196.74971,197.4848,77,34,0
196.74971,197.4848,74,34,0
196.74971,197.4848,65,28,0
197.4848,198.25055,76,30,0
197.4848,198.25055,72,30,0
197.4848,198.25055,67,25,0
198.25055,199.01353,74,39,0
198.25055,199.01353,69,39,0
199.01353,199.8119,69,29,0
199.8119,200.64578,67,33,0
199.01353,200.64578,72,35,0
200.64578,201.0426,71,56,0
201.0426,201.4869,79,60,0
200.64578,201.4869,67,34,0
201.4869,202.98532,79,60,0
201.4869,202.98532,75,51,0
201.4869,202.98532,67,51,0
202.98532,203.72974,77,57,0
202.98532,203.72974,74,46,0
202.98532,203.72974,65,46,0
203.72974,204.5263,67,47,0
203.72974,204.5263,63,47,0
203.72974,204.5263,72,47,0
203.72974,204.5263,75,58,0
204.5263,205.29901,74,73,0
204.5263,205.29901,68,62,0
205.29901,206.11215,69,63,0
206.11215,206.93364,67,64,0
205.29901,206.93364,72,74,0
206.93364,207.3385,72,76,0
206.93364,207.3385,66,76,0
207.3385,207.765,80,82,0
207.765,209.3162,68,36,0
207.765,209.3162,76,43,0
207.765,209.3162,80,43,0
209.3162,210.09192,78,34,0
209.3162,210.09192,75,34,0
209.3162,210.09192,66,28,0
210.09192,210.91103,76,30,0
210.09192,210.91103,73,30,0
210.09192,210.91103,68,25,0
210.91103,211.72253,75,39,0
210.91103,211.72253,69,39,0
211.72253,212.54515,70,29,0
212.54515,213.37291,68,33,0
211.72253,213.37291,73,35,0
213.37291,213.78052,72,56,0
213.78052,214.21466,80,60,0
213.37291,214.21466,68,34,0
214.21466,215.73427,80,60,0
214.21466,215.73427,77,51,0
214.21466,215.73427,68,51,0
215.73427,216.51004,78,57,0
215.73427,216.51004,75,46,0
215.73427,216.51004,66,46,0
216.51004,217.29254,68,47,0
216.51004,217.29254,65,47,0
216.51004,217.29254,73,47,0
216.51004,217.29254,77,58,0
217.29254,218.07338,75,73,0
217.29254,218.07338,69,62,0
218.07338,218.87814,73,74,0
218.87814,219.69437,72,64,0
218.07338,219.69437,69,63,0
219.69437,220.10927,69,82,0
219.69437,220.10927,73,82,0
220.10927,220.53577,81,87,0
220.10927,220.53577,78,87,0
220.53577,223.60948,81,101,0
220.53577,223.60948,78,88,0
220.53577,223.60948,69,88,0
223.60948,226.62642,87,101,0
223.60948,226.62642,75,88,0
223.60948,226.62642,78,88,0
223.60948,226.62642,81,88,0
226.62642,229.68593,90,101,0
226.62642,229.68593,87,88,0
226.62642,229.68593,78,88,0
226.62642,229.68593,81,88,0
229.68593,229.89397,78,68,0
230.10202,230.29045,69,39,0
230.29045,230.4789,72,32,0
230.4789,230.66734,71,40,0
230.66734,230.85579,70,37,0
230.85579,231.04422,71,41,0
231.04422,231.2613,68,35,0
231.2613,231.46935,78,68,0
231.6774,231.86823,69,39,0
231.86823,232.05907,72,32,0
232.05907,232.24991,71,40,0
232.24991,232.44075,70,37,0
232.44075,232.63159,71,41,0
232.63159,232.84866,68,35,0
232.84866,233.05672,78,68,0
233.26476,233.46057,69,39,0
233.46057,233.6564,72,32,0
233.6564,233.85222,71,40,0
233.85222,234.04805,70,37,0
234.04805,234.24387,71,41,0
234.24387,234.46094,69,35,0
234.46094,234.67802,68,40,0
234.67802,234.8951,66,31,0
234.8951,235.11218,68,35,0
235.11218,235.32925,66,30,0
235.32925,235.54633,64,37,0
235.54633,235.76988,63,29,0
235.76988,235.99342,64,29,0
235.99342,236.23114,66,29,0
236.23114,236.4436,64,31,0
236.4436,236.65607,59,26,0
236.65607,236.86853,64,31,0
236.86853,237.081,59,26,0
236.23114,237.081,68,42,0
237.081,237.2905,68,45,0
237.2905,237.5,59,27,0
237.081,237.5,71,45,0
237.5,237.71397,66,40,0
237.71397,237.93423,59,27,0
237.5,237.93423,69,40,0
237.93423,238.15132,64,34,0
238.15132,238.3684,59,26,0
237.93423,238.3684,68,50,0
238.3684,238.58086,63,27,0
238.58086,238.7402,59,25,0
238.3684,238.7402,66,41,0
238.79332,239.00578,63,27,0
239.00578,239.21825,59,26,0
238.79332,239.21825,66,41,0
239.21825,239.4263,64,28,0
239.4263,239.63434,59,28,0
239.21825,239.63434,68,43,0
239.63434,239.8468,64,30,0
239.8468,240.05927,59,28,0
239.63434,240.05927,69,46,0
240.05927,240.27173,64,36,0
240.27173,240.48419,59,31,0
240.05927,240.48419,73,54,0
240.48419,240.69666,66,37,0
240.69666,240.90912,59,26,0
240.48419,240.90912,71,47,0
240.90912,241.1262,63,25,0
241.1262,241.37788,59,27,0
240.90912,241.37788,66,38,0
241.37788,242.22774,68,42,0
241.37788,242.22774,64,35,0
241.37788,242.22774,59,35,0
242.65266,242.86513,76,47,0
242.86513,243.09555,78,42,0
243.09555,243.9454,80,55,0
243.09555,243.9454,68,55,0
243.9454,244.3644,83,50,0
243.9454,244.3644,71,50,0
244.3644,244.79865,81,47,0
244.3644,244.79865,69,47,0
244.79865,245.2328,80,55,0
244.79865,245.2328,68,55,0
245.2328,245.60461,78,45,0
245.2328,245.60461,66,45,0
245.65773,246.08266,78,45,0
245.65773,246.08266,66,45,0
246.08266,246.49875,80,49,0
246.08266,246.49875,68,49,0
246.49875,246.92368,81,56,0
246.49875,246.92368,69,47,0
246.92368,247.3486,85,60,0
246.92368,247.3486,73,50,0
247.3486,247.77353,83,56,0
247.3486,247.77353,71,46,0
247.77353,248.24228,75,32,0
247.77353,248.24228,87,49,0
248.24228,249.09215,76,35,0
248.24228,249.09215,88,57,0
249.50822,249.9432,71,47,0
249.9432,250.79306,70,51,0
250.79306,251.65569,76,56,0
251.65569,252.93956,75,51,0
252.93956,253.37709,69,45,0
253.37709,254.233,68,51,0
254.233,255.10896,74,54,0
255.10896,256.38837,73,51,0
256.38837,256.80734,73,48,0
256.80734,257.23227,72,57,0
257.23227,257.6572,73,58,0
257.6572,257.9759,61,46,0
257.6572,257.9759,64,46,0
257.6572,257.9759,69,55,0
258.08212,258.4116,59,46,0
258.08212,258.4116,64,46,0
258.08212,258.4116,68,55,0
258.52863,258.95657,68,76,0
258.52863,259.3975,58,64,0
258.52863,259.3975,64,64,0
258.95657,259.80762,66,62,0
259.82544,260.26083,66,67,0
259.3975,260.28098,57,63,0
259.3975,260.28098,64,63,0
260.28098,260.712,57,41,0
260.28098,260.712,63,41,0
260.28098,260.712,66,49,0
260.712,261.14304,71,38,0
261.14304,261.59012,70,46,0
260.712,261.59012,63,32,0
261.59012,262.06326,63,34,0
261.59012,262.06326,71,40,0
262.06326,262.91312,64,51,0
263.3292,263.7642,71,47,0
263.3292,263.7642,83,47,0
263.7642,264.61404,70,51,0
263.7642,264.61404,82,51,0
264.61404,265.47665,76,61,0
264.61404,265.47665,88,61,0
265.47665,266.76053,75,56,0
265.47665,266.76053,87,56,0
266.76053,267.19806,69,49,0
266.76053,267.19806,81,49,0
267.19806,268.054,68,56,0
267.19806,268.054,80,56,0
268.054,268.92993,74,59,0
268.054,268.92993,86,59,0
268.92993,270.20932,73,56,0
268.92993,270.20932,85,56,0
270.20932,270.62833,73,48,0
270.20932,270.62833,85,48,0
270.62833,271.04086,72,57,0
270.62833,271.04086,84,57,0
271.04086,271.44717,73,58,0
271.04086,271.44717,85,58,0
271.44717,271.75055,69,55,0
271.44717,271.75055,81,55,0
271.853,272.17706,68,55,0
271.853,272.17706,80,55,0
272.29407,272.71014,68,72,0
272.29407,272.71014,80,72,0
272.71014,273.56418,66,62,0
272.71014,273.56418,78,62,0
273.5731,274.00446,66,67,0
273.5731,274.00446,78,67,0
274.0286,274.45966,66,49,0
274.0286,274.45966,78,49,0
274.45966,274.8907,71,38,0
274.45966,274.8907,83,38,0
274.8907,275.33777,70,46,0
274.8907,275.33777,82,46,0
275.33777,275.8109,71,40,0
275.33777,275.8109,83,40,0
275.8109,276.71863,64,51,0
275.8109,276.71863,76,51,0
277.1871,277.41403,64,43,0
277.41403,277.65363,66,39,0
277.65363,277.87888,64,34,0
277.87888,278.1041,59,26,0
278.1041,278.3293,64,31,0
278.3293,278.55453,59,26,0
277.65363,278.55453,68,50,0
278.55453,278.767,68,30,0
278.767,278.97946,59,27,0
278.55453,278.97946,71,46,0
278.97946,279.19974,66,28,0
279.19974,279.41998,59,27,0
278.97946,279.41998,69,43,0
279.41998,279.6371,64,34,0
279.6371,279.85416,59,26,0
279.41998,279.85416,68,50,0
279.85416,280.06662,63,27,0
280.06662,280.22595,59,25,0
279.85416,280.22595,66,41,0
280.27908,280.49155,63,27,0
280.49155,280.704,59,26,0
280.27908,280.704,66,41,0
280.704,280.91205,64,28,0
280.91205,281.1201,59,28,0
280.704,281.1201,68,43,0
281.1201,281.33255,64,30,0
281.33255,281.545,59,28,0
281.1201,281.545,69,46,0
281.545,281.75748,64,36,0
281.75748,281.96997,59,31,0
281.545,281.96997,73,54,0
281.96997,282.18243,66,37,0
282.18243,282.3949,59,26,0
281.96997,282.3949,71,47,0
282.3949,282.61197,63,25,0
282.61197,282.86365,59,27,0
282.3949,282.86365,66,38,0
282.86365,283.32803,68,42,0
282.86365,283.32803,64,35,0
282.86365,283.32803,59,35,0
283.69986,283.75296,78,42,0
283.75296,283.9488,76,47,0
283.9488,284.14462,75,42,0
284.14462,284.34042,76,48,0
284.34042,284.4873,78,43,0
284.4873,284.53625,81,50,0
284.53625,284.7321,80,55,0
284.7321,284.9279,78,50,0
284.9279,285.13034,80,52,0
285.13034,285.35388,81,54,0
285.35388,285.76147,83,53,0
285.35388,285.76147,71,45,0
285.76147,286.18555,69,45,0
285.76147,286.18555,81,53,0
286.18555,286.60455,68,53,0
286.18555,286.60455,80,63,0
286.60455,287.01675,78,61,0
286.60455,287.01675,66,51,0
287.03928,287.4612,78,70,0
287.03928,287.4612,66,58,0
287.4612,287.88315,68,54,0
287.4612,287.88315,80,64,0
287.88315,288.30508,81,77,0
287.88315,288.30508,69,65,0
288.30508,288.7413,73,57,0
288.30508,288.7413,85,68,0
288.7413,289.16623,71,67,0
288.7413,289.16623,83,80,0
289.16623,289.50406,87,83,0
289.16623,289.50406,81,70,0
289.16623,289.50406,75,70,0
289.61667,290.47928,88,88,0
289.61667,290.47928,80,73,0
289.61667,290.47928,76,73,0
290.9103,291.1322,68,87,0
290.9103,291.1322,64,73,0
291.3541,292.6083,68,96,0
291.3541,292.6083,64,81,0
292.6083,292.8302,64,28,0
292.6083,292.8302,68,28,0
292.6083,292.8302,76,34,0
293.0521,294.30182,63,33,0
293.0521,294.30182,75,39,0
293.0521,294.30182,68,33,0
293.0521,294.30182,66,33,0
294.30182,294.5237,68,87,0
294.30182,294.5237,63,73,0
294.7456,295.98526,68,96,0
294.7456,295.98526,62,81,0
294.7456,295.98526,64,81,0
295.98526,296.20715,64,28,0
295.98526,296.20715,74,34,0
295.98526,296.20715,62,28,0
296.42905,297.67447,61,33,0
296.42905,297.67447,64,33,0
296.42905,297.67447,73,39,0
297.67447,297.89636,61,87,0
298.11826,299.3623,61,96,0
298.11826,299.3623,59,81,0
299.3623,299.5842,59,28,0
299.3623,299.5842,61,28,0
299.3623,299.5842,71,34,0
299.8061,301.0515,57,33,0
299.8061,301.0515,61,33,0
299.8061,301.0515,69,39,0
301.0515,301.2734,81,87,0
301.0515,301.2734,78,73,0
301.0515,301.2734,73,73,0
301.4953,302.72647,81,96,0
301.4953,302.72647,71,81,0
301.4953,302.72647,78,81,0
302.72647,302.94836,69,87,0
302.72647,302.94836,66,73,0
303.17026,304.40723,69,96,0
303.17026,304.40723,64,81,0
304.40723,304.62912,81,87,0
304.40723,304.62912,76,73,0
304.40723,304.62912,69,73,0
304.851,305.26288,81,96,0
304.851,305.26288,75,81,0
304.851,305.26288,78,81,0
304.851,305.26288,69,81,0
306.53174,307.76294,90,53,0
306.53174,307.76294,81,53,0
307.76294,308.15088,88,57,0
307.76294,308.15088,80,57,0
308.19397,308.59882,80,62,0
308.19397,308.59882,88,62,0
308.59882,308.9632,87,48,0
308.59882,308.9632,78,48,0
309.0037,309.4141,78,47,0
309.0037,309.4141,87,47,0
309.4141,309.84824,88,39,0
309.4141,309.84824,80,39,0
309.84824,311.07944,90,53,0
309.84824,311.07944,81,53,0
311.07944,311.46735,88,57,0
311.07944,311.46735,80,57,0
311.51047,311.9153,78,62,0
311.51047,311.9153,87,62,0
311.9153,312.3202,81,48,0
311.9153,312.3202,90,48,0
312.3202,312.73627,80,47,0
312.3202,312.73627,88,47,0
312.73627,313.1704,87,39,0
312.73627,313.1704,78,39,0
312.73627,313.1704,75,39,0
313.1704,313.60458,76,39,0
313.1704,313.60458,88,39,0
313.60458,314.01498,87,34,0
314.01498,314.42535,85,39,0
314.42535,314.8665,83,35,0
314.8665,315.2769,85,39,0
315.2769,315.6873,83,37,0
315.6873,316.10495,81,39,0
316.10495,316.52542,80,34,0
316.54434,317.80725,80,39,0
317.80725,318.02914,81,38,0
318.02914,318.26315,83,33,0
318.26315,318.69733,78,39,0
318.69733,318.91083,71,39,0
318.91083,319.1226,73,34,0
319.1226,319.33212,71,39,0
319.33212,319.55078,73,35,0
319.55078,319.76944,71,39,0
319.76944,319.9981,73,35,0
319.9981,320.20615,71,39,0
320.20615,320.41418,73,35,0
320.41418,320.62225,71,39,0
320.62225,320.8303,73,35,0
320.8303,321.03833,71,39,0
321.03833,321.24637,73,37,0
319.9981,321.24637,81,53,0
319.9981,321.24637,78,53,0
321.24637,321.46188,71,43,0
321.24637,321.6343,76,57,0
321.24637,321.6343,80,57,0
321.46188,321.6774,73,41,0
321.6774,321.88123,71,48,0
321.88123,322.08502,73,42,0
321.6774,322.08502,76,62,0
321.6774,322.08502,80,62,0
322.08502,322.28882,71,46,0
322.08502,322.45187,78,48,0
322.08502,322.45187,75,48,0
322.28882,322.4926,73,40,0
322.4926,322.70068,71,44,0
322.70068,322.90872,73,38,0
322.4926,322.90872,75,47,0
322.4926,322.90872,78,47,0
322.90872,323.1258,71,41,0
323.1258,323.34286,73,36,0
322.90872,323.34286,76,39,0
322.90872,323.34286,80,39,0
323.34286,323.54807,71,39,0
323.54807,323.75327,73,36,0
323.75327,323.95847,71,41,0
323.95847,324.16367,73,38,0
324.16367,324.36887,71,43,0
324.36887,324.57407,73,40,0
323.34286,324.57407,78,53,0
323.34286,324.57407,81,53,0
324.57407,324.78958,71,46,0
324.57407,324.96198,76,57,0
324.57407,324.96198,80,57,0
324.78958,325.0051,73,42,0
325.0051,325.2146,75,62,0
325.2146,325.42407,71,36,0
325.0051,325.42407,78,62,0
325.42407,325.6279,81,48,0
325.6279,325.8317,71,36,0
325.42407,325.8317,85,48,0
325.8317,326.03973,80,47,0
326.03973,326.24777,71,36,0
325.8317,326.24777,83,47,0
326.24777,326.46024,78,39,0
326.46024,326.6727,71,36,0
326.24777,326.6727,81,39,0
326.6727,326.87933,76,62,0
326.87933,327.08594,71,35,0
326.6727,327.08594,80,62,0
327.08594,327.29114,80,47,0
327.29114,327.49634,71,34,0
327.08594,327.49634,83,47,0
327.49634,327.70438,78,45,0
327.70438,327.9124,71,34,0
327.49634,327.9124,81,45,0
327.9124,328.1264,76,36,0
328.1264,328.33737,71,33,0
327.9124,328.33737,80,36,0
328.33737,328.54688,75,57,0
328.54688,328.75638,71,32,0
328.33737,328.75638,78,57,0
328.75638,328.96158,78,43,0
328.96158,329.16675,71,32,0
328.75638,329.16675,81,43,0
329.16675,329.37482,76,41,0
329.37482,329.58286,71,31,0
329.16675,329.58286,80,41,0
329.58286,329.79532,75,33,0
329.79532,330.00778,69,30,0
329.58286,330.00778,78,33,0
330.00778,330.22177,71,41,0
330.22177,330.43573,68,29,0
330.00778,330.43573,76,52,0
330.43573,330.64523,71,29,0
330.64523,330.85474,65,29,0
330.43573,330.85474,74,39,0
330.85474,331.0718,71,29,0
331.0718,331.28888,65,28,0
330.85474,331.28888,73,37,0
331.28888,331.51755,71,29,0
331.51755,331.74622,65,27,0
331.28888,331.74622,73,30,0
331.74622,331.97485,65,39,0
331.74622,331.97485,73,39,0
331.97485,332.18436,73,33,0
332.18436,332.39386,75,34,0
332.39386,332.56277,77,37,0
332.56277,332.61908,80,35,0
332.61908,332.82858,78,39,0
332.82858,333.0381,77,32,0
333.0381,333.2476,78,35,0
333.2476,333.47977,80,32,0
333.47977,333.69073,81,39,0
333.69073,333.9017,77,33,0
333.9017,334.11267,78,35,0
334.11267,334.28287,80,32,0
334.28287,334.3396,83,32,0
334.3396,334.5506,81,41,0
334.5506,334.76157,80,33,0
334.76157,334.9902,81,35,0
334.9902,335.21048,83,32,0
335.21048,335.42145,85,42,0
335.42145,335.63242,83,35,0
335.63242,335.84338,81,35,0
335.84338,336.06528,80,34,0
336.06528,336.27625,81,41,0
336.27625,336.4872,80,35,0
336.4872,336.69818,78,35,0
336.69818,336.9304,85,34,0
336.9304,337.14136,80,40,0
337.14136,337.35233,78,34,0
337.35233,337.5633,76,35,0
337.5633,337.77426,83,35,0
337.77426,337.98526,78,40,0
337.98526,338.19623,76,33,0
338.19623,338.42487,75,35,0
338.42487,338.66782,83,33,0
338.68988,340.34665,71,36,0
338.68988,340.34665,80,43,0
338.68988,340.34665,83,43,0
340.34665,341.14792,81,34,0
340.34665,341.14792,78,34,0
340.34665,341.14792,69,28,0
341.14792,341.978,80,30,0
341.14792,341.978,76,30,0
341.14792,341.978,71,25,0
341.978,342.81567,78,39,0
341.978,342.81567,73,39,0
342.81567,343.65872,73,29,0
343.65872,344.49808,71,33,0
342.81567,344.49808,76,35,0
344.49808,344.91415,75,44,0
344.91415,345.36487,83,43,0
344.49808,345.36487,71,37,0
345.36487,347.01532,83,67,0
345.36487,347.01532,74,57,0
345.36487,347.01532,71,57,0
347.01532,347.83936,81,63,0
347.01532,347.83936,74,51,0
347.01532,347.83936,69,51,0
347.83936,348.67642,71,52,0
347.83936,348.67642,68,52,0
347.83936,348.67642,74,52,0
347.83936,348.67642,80,64,0
348.67642,349.51358,78,80,0
348.67642,349.51358,74,68,0
349.51358,350.34924,76,81,0
349.51358,350.34924,74,68,0
350.34924,351.18274,71,69,0
350.34924,351.18274,74,82,0
350.34924,351.18274,76,82,0
351.18274,352.04922,74,80,0
351.18274,352.04922,86,94,0
352.04922,353.7465,74,87,0
352.04922,353.7465,86,102,0
353.7465,355.42468,89,102,0
353.7465,355.42468,77,87,0
355.42468,355.63013,89,102,0
355.42468,355.63013,77,102,0
355.63013,355.83676,65,63,0
355.83676,356.04337,71,70,0
356.04337,356.25098,74,56,0
356.25098,356.45877,77,53,0
356.45877,356.66537,83,49,0
356.66537,356.87338,86,46,0
356.87338,357.08176,83,42,0
357.08176,357.93912,86,39,0
358.38904,358.8655,76,39,0
358.8655,359.28452,77,42,0
359.28452,359.70352,80,34,0
359.70352,360.1225,79,39,0
360.1225,360.5415,74,37,0
360.5415,360.96048,76,39,0
360.96048,361.3795,77,34,0
361.3795,361.7985,76,39,0
361.7985,362.21747,71,37,0
362.21747,363.05545,72,39,0
363.05545,363.89346,73,47,0
362.21747,363.89346,64,39,0
363.89346,364.72324,74,45,0
363.89346,364.72324,62,45,0
364.72324,366.01666,81,49,0
366.01666,366.43274,82,39,0
366.43274,366.84885,81,43,0
366.84885,367.27988,77,39,0
367.27988,367.69885,82,43,0
367.69885,368.1121,77,39,0
368.1121,368.5253,77,39,0
368.5253,368.96262,73,36,0
368.96262,369.39368,78,37,0
369.39368,369.81265,73,39,0
369.81265,370.23166,73,43,0
370.23166,370.6658,70,39,0
370.6658,371.08774,82,46,0
371.08774,371.49814,78,38,0
371.49814,371.90854,78,42,0
371.90854,372.33957,73,39,0
372.33957,372.7645,85,54,0
372.7645,373.1749,81,49,0
373.1749,373.5853,81,64,0
373.5853,374.0226,78,64,0
374.0226,374.43585,84,79,0
374.43585,374.8638,78,73,0
374.8638,375.2785,83,97,0
375.2785,375.488,78,87,0
376.55188,376.76587,75,72,0
376.76587,376.97986,83,59,0
376.97986,377.1796,75,61,0
377.1796,377.37933,76,64,0
377.37933,377.58594,78,74,0
377.58594,377.79254,83,59,0
377.79254,377.99097,78,61,0
377.99097,378.18936,80,64,0
378.18936,378.39456,81,74,0
378.39456,378.59976,83,59,0
378.59976,378.80084,81,62,0
378.80084,379.00192,80,69,0
379.00192,379.20853,78,74,0
379.20853,379.41513,83,59,0
379.41513,379.61487,78,61,0
379.61487,379.8146,76,64,0
379.8146,380.0212,75,66,0
380.0212,380.2278,83,52,0
380.2278,380.4289,75,53,0
380.4289,380.62997,76,58,0
380.62997,380.84094,78,61,0
380.84094,381.0519,83,47,0
381.0519,381.25165,78,48,0
381.25165,381.4514,80,49,0
381.4514,381.66235,81,55,0
381.66235,381.87332,83,43,0
381.87332,382.07306,81,44,0
382.07306,382.2728,80,48,0
382.2728,382.48083,78,50,0
382.48083,382.68887,83,38,0
382.68887,382.8886,78,39,0
382.8886,383.08835,76,39,0
383.08835,383.29932,75,44,0
383.29932,383.51028,83,35,0
383.51028,383.71548,75,37,0
383.71548,383.9179,76,41,0
383.9179,384.12888,78,44,0
384.12888,384.33984,83,35,0
384.33984,384.54504,78,36,0
384.54504,384.74747,80,38,0
384.74747,384.95847,81,44,0
384.95847,385.16943,83,35,0
385.16943,385.37186,81,37,0
385.37186,385.57428,80,41,0
385.57428,385.78525,78,44,0
385.78525,385.99622,83,35,0
385.99622,386.20142,78,36,0
386.20142,386.4052,76,38,0
386.4052,386.61618,75,44,0
386.61618,386.82718,76,35,0
386.82718,387.03235,75,37,0
387.03235,387.23755,73,41,0
387.23755,387.45,71,44,0
387.45,387.6552,73,35,0
387.6552,387.8604,63,35,0
387.8604,388.0656,64,35,0
388.0656,388.27716,66,35,0
388.27716,388.49182,69,32,0
388.49182,388.70963,68,32,0
388.70963,388.94547,66,32,0
388.94547,389.15793,68,34,0
389.15793,389.3704,71,26,0
389.3704,389.58286,59,31,0
389.58286,389.79532,71,26,0
389.79532,390.00482,68,30,0
390.00482,390.21432,71,27,0
390.21432,390.42828,66,28,0
390.42828,390.64856,71,27,0
390.64856,390.86563,64,34,0
390.86563,391.0827,71,26,0
391.0827,391.29517,63,27,0
391.29517,391.45453,71,25,0
391.50766,391.72012,63,27,0
391.72012,391.9326,71,26,0
391.9326,392.14062,65,28,0
392.14062,392.34866,71,28,0
392.34866,392.56113,66,30,0
392.56113,392.7736,71,28,0
392.7736,392.98605,69,36,0
392.98605,393.19852,71,31,0
393.19852,393.41098,68,37,0
393.41098,393.60574,71,26,0
393.62344,393.8405,71,25,0
393.8405,394.0922,75,27,0
394.0922,394.3017,71,36,0
394.3017,394.5112,76,30,0
394.5112,394.71094,71,38,0
394.71094,394.91068,78,30,0
394.91068,395.1078,71,45,0
395.1078,395.30487,79,33,0
395.30487,395.5318,71,49,0
395.5318,395.77533,80,40,0
395.77533,395.9924,71,34,0
395.9924,396.20947,76,26,0
396.20947,396.42654,71,31,0
396.42654,396.64362,76,26,0
395.77533,396.64362,80,57,0
396.64362,396.86072,76,30,0
396.86072,397.07938,69,27,0
396.64362,397.07938,83,52,0
397.07938,397.29962,73,28,0
397.29962,397.5199,76,27,0
397.07938,397.5199,81,49,0
397.5199,397.73697,76,34,0
397.73697,397.95404,71,26,0
397.5199,397.95404,80,57,0
397.95404,398.1665,75,27,0
397.95404,398.32587,78,47,0
398.1665,398.37897,71,25,0
398.37897,398.59143,75,27,0
398.59143,398.8039,71,26,0
398.37897,398.8039,78,47,0
398.8039,399.01193,76,28,0
399.01193,399.22,71,28,0
398.8039,399.22,80,49,0
399.22,399.43246,78,33,0
399.43246,399.64493,71,42,0
399.22,399.64493,81,57,0
399.64493,399.8574,80,56,0
399.8574,400.06985,71,49,0
399.64493,400.06985,85,56,0
400.06985,400.30386,78,66,0
400.30386,400.53787,71,55,0
400.06985,400.53787,83,66,0
400.53787,400.75653,87,38,0
400.53787,400.75653,78,25,0
400.53787,400.75653,81,25,0
400.99237,401.15173,76,42,0
400.99237,401.15173,80,35,0
400.99237,401.15173,88,42,0
401.20483,401.4173,76,36,0
401.4173,401.62976,71,40,0
401.62976,401.84222,68,36,0
401.84222,402.0547,71,41,0
402.0547,402.26715,68,36,0
402.26715,402.47522,66,40,0
402.47522,402.70215,75,36,0
402.70215,402.91162,66,47,0
402.91162,403.12112,76,36,0
403.12112,403.33063,73,38,0
403.33063,403.48776,66,34,0
403.54013,403.74963,66,38,0
403.74963,403.9591,78,31,0
403.9591,404.1686,73,36,0
404.1686,404.33752,66,34,0
404.39383,404.60052,66,38,0
404.60052,404.80573,75,30,0
404.80573,405.01093,71,37,0
405.01093,405.21545,66,34,0
405.21545,405.4213,63,46,0
405.4213,405.63,71,37,0
405.63,405.84164,64,46,0
405.84164,406.0652,69,40,0
406.0652,406.27615,64,38,0
406.27615,406.48712,71,36,0
406.48712,406.6981,68,42,0
406.6981,406.85632,64,36,0
406.9091,407.12006,64,48,0
407.12006,407.33102,76,39,0
407.33102,407.542,71,45,0
407.542,407.7175,64,36,0
407.776,407.9842,64,44,0
407.9842,408.19223,76,34,0
408.19223,408.40027,73,38,0
408.40027,408.6083,69,34,0
408.6083,408.81528,64,38,0
408.81528,409.02402,76,36,0
409.02402,409.2346,64,41,0
409.2346,409.44772,76,48,0
409.44772,409.66022,64,48,0
409.66022,409.87268,76,42,0
409.87268,410.08514,64,53,0
410.08514,410.2976,76,43,0
410.2976,410.51007,64,54,0
410.51007,410.72253,76,50,0
410.72253,410.935,64,60,0
410.935,411.169,76,53,0
411.169,411.38297,64,67,0
411.38297,411.59695,76,59,0
411.59695,411.81094,64,66,0
411.81094,412.03787,76,52,0
412.03787,412.25186,64,60,0
412.25186,412.46582,76,46,0
412.46582,412.6798,64,59,0
412.6798,412.92136,76,47,0
412.92136,413.13687,63,38,0
413.13687,413.3524,75,34,0
413.3524,413.5679,71,38,0
413.5679,413.72955,66,36,0
413.78342,414.00696,66,38,0
414.00696,414.23053,78,34,0
414.23053,414.45407,75,38,0
414.45407,414.70364,69,35,0
414.70364,415.5535,68,51,0
415.9696,416.40457,71,47,0
415.9696,416.40457,83,47,0
416.40457,417.25443,70,51,0
416.40457,417.25443,82,51,0
417.25443,418.11703,76,56,0
417.25443,418.11703,88,56,0
418.11703,419.37567,75,51,0
418.11703,419.37567,87,51,0
419.37567,419.81085,69,45,0
419.37567,419.81085,81,45,0
419.81085,420.6607,68,51,0
419.81085,420.6607,80,51,0
420.6607,421.5321,74,54,0
420.6607,421.5321,86,54,0
421.5321,422.81152,73,51,0
421.5321,422.81152,85,51,0
422.81152,423.2305,73,48,0
422.81152,423.2305,85,48,0
423.2305,423.65543,72,56,0
423.2305,423.65543,84,56,0
423.65543,424.08035,73,57,0
423.65543,424.08035,85,57,0
424.08035,424.39905,69,55,0
424.08035,424.39905,81,55,0
424.50528,424.83478,68,54,0
424.50528,424.83478,80,54,0
424.95178,425.37973,68,70,0
424.95178,425.37973,80,70,0
425.37973,426.2397,66,61,0
425.37973,426.2397,78,61,0
426.2486,426.67996,66,65,0
426.2486,426.67996,78,65,0
426.70413,427.13516,66,49,0
426.70413,427.13516,78,49,0
427.13516,427.5662,71,38,0
427.13516,427.5662,83,38,0
427.5662,428.0067,70,46,0
427.5662,428.0067,82,46,0
428.0067,428.44888,71,40,0
428.0067,428.44888,83,40,0
428.44888,428.8799,64,49,0
428.44888,428.8799,76,49,0
428.8799,429.31094,71,38,0
428.8799,429.31094,83,38,0
429.31094,429.74826,70,46,0
429.31094,429.74826,82,46,0
429.74826,430.1888,71,40,0
429.74826,430.1888,83,40,0
430.4028,430.6168,75,33,0
430.6168,430.83075,83,38,0
430.83075,431.04474,81,34,0
431.04474,431.265,78,39,0
431.265,431.48526,75,32,0
431.48526,431.70554,71,37,0
431.70554,431.9377,69,32,0
432.1517,432.3657,68,33,0
432.3657,432.57968,83,38,0
432.57968,432.79364,80,34,0
432.79364,433.01392,76,39,0
433.01392,433.2342,71,32,0
433.2342,433.45444,69,37,0
433.45444,433.68665,68,32,0
433.68665,434.11768,66,58,0
433.68665,434.11768,78,58,0
434.11768,434.5487,71,46,0
434.11768,434.5487,83,46,0
434.5487,434.98285,70,58,0
434.5487,434.98285,82,58,0
434.98285,435.4139,71,51,0
434.98285,435.4139,83,51,0
435.4139,435.84494,77,70,0
435.4139,435.84494,65,70,0
435.84494,436.276,86,64,0
435.84494,436.276,74,64,0
436.276,436.70703,85,74,0
436.276,436.70703,73,74,0
436.70703,437.14444,86,69,0
436.70703,437.14444,74,69,0
437.14444,437.58823,85,79,0
437.58823,438.032,78,67,0
438.032,438.4758,81,77,0
438.4758,438.9196,73,68,0
438.9196,439.36337,78,59,0
439.36337,439.80716,73,54,0
439.80716,440.25095,76,59,0
440.25095,440.69473,66,45,0
440.69473,441.13852,71,51,0
441.13852,441.5823,68,38,0
441.5823,442.0261,71,47,0
442.0261,442.5053,64,30,0
442.5053,442.95917,63,42,0
442.95917,443.41302,71,34,0
443.41302,443.88104,63,34,0
443.41302,443.88104,66,41,0
443.88104,444.3844,63,28,0
443.88104,444.3844,71,34,0
444.59995,444.81546,62,49,0
444.81546,445.02493,68,57,0
445.02493,445.23444,65,50,0
445.44394,445.65344,61,53,0
445.65344,445.86295,69,60,0
445.86295,446.07242,66,55,0
446.27762,446.48282,71,65,0
446.48282,446.68802,83,71,0
446.68802,446.89322,80,67,0
447.09842,447.30362,73,70,0
447.30362,447.50882,85,81,0
447.50882,447.71402,81,76,0
447.91782,448.1216,74,91,0
448.1216,448.32544,86,97,0
448.32544,448.52924,83,89,0
448.73303,448.93683,73,89,0
448.93683,449.14066,85,98,0
449.14066,449.34445,83,91,0
450.61923,450.8317,61,45,0
450.8317,451.04416,63,41,0
451.04416,451.46027,64,47,0
451.46027,451.87347,67,50,0
451.87347,452.2867,66,46,0
452.2867,452.69992,61,46,0
452.69992,453.1279,78,48,0
453.1279,453.5411,85,55,0
453.5411,453.95435,83,49,0
453.95435,454.36755,78,48,0
452.69992,454.7955,63,48,0
454.7955,455.2161,66,40,0
455.2161,455.62933,64,43,0
455.62933,456.04254,61,40,0
454.36755,456.46448,81,50,0
456.46448,456.8721,81,48,0
456.8721,457.27972,80,47,0
457.27972,457.68732,76,43,0
456.04254,458.10925,64,42,0
458.10925,458.5225,64,38,0
458.5225,458.9357,63,41,0
458.9357,459.34894,59,39,0
459.34894,459.7636,63,41,0
457.68732,459.7636,80,50,0
459.7636,460.174,80,40,0
459.7636,460.174,76,34,0
460.174,460.5844,75,35,0
460.174,460.5844,78,42,0
460.5844,461.01855,75,40,0
460.5844,461.01855,71,34,0
461.01855,461.41663,78,48,0
461.01855,461.41663,75,40,0
461.43756,461.84796,78,40,0
461.43756,461.84796,72,34,0
461.84796,462.25836,73,35,0
461.84796,462.25836,76,42,0
462.25836,462.67734,73,39,0
462.25836,462.67734,69,33,0
462.67734,463.07263,76,48,0
462.67734,463.07263,73,40,0
463.09344,463.50385,76,40,0
463.09344,463.50385,70,34,0
463.50385,463.91425,71,38,0
463.50385,463.91425,75,45,0
463.91425,464.3422,71,41,0
463.91425,464.3422,68,34,0
464.3422,464.73474,74,48,0
464.3422,464.73474,71,40,0
464.75543,465.16583,74,38,0
464.75543,465.16583,68,32,0
465.16583,465.57346,69,36,0
465.16583,465.57346,73,43,0
465.57346,466.0014,72,39,0
465.57346,466.0014,63,33,0
466.0014,466.4146,64,47,0
466.0014,466.4146,71,56,0
466.4146,466.8195,71,54,0
466.4146,466.8195,61,44,0
466.8195,467.04138,63,50,0
466.8195,467.04138,69,60,0
467.04138,467.26328,66,53,0
467.26328,467.47574,64,42,0
467.47574,467.70615,66,38,0
467.70615,467.9186,64,45,0
467.9186,468.13107,59,26,0
468.13107,468.34354,64,31,0
468.34354,468.556,59,26,0
467.70615,468.556,68,45,0
468.556,468.7655,68,30,0
468.7655,468.975,59,27,0
468.556,468.975,71,46,0
468.975,469.189,66,28,0
469.189,469.40924,59,27,0
468.975,469.40924,69,43,0
469.40924,469.6263,64,34,0
469.6263,469.8434,59,26,0
469.40924,469.8434,68,50,0
469.8434,470.05588,63,27,0
470.05588,470.2152,59,25,0
469.8434,470.2152,66,41,0
470.26834,470.4808,63,27,0
470.4808,470.69327,59,26,0
470.26834,470.69327,66,41,0
470.69327,470.9013,64,28,0
470.9013,471.10934,59,28,0
470.69327,471.10934,68,43,0
471.10934,471.3218,64,30,0
471.3218,471.53427,59,28,0
471.10934,471.53427,69,46,0
471.53427,471.74673,64,36,0
471.74673,471.9592,59,31,0
471.53427,471.9592,73,54,0
471.9592,472.17166,66,37,0
472.17166,472.38412,59,26,0
471.9592,472.38412,71,47,0
472.38412,472.6012,63,25,0
472.6012,472.85287,59,27,0
472.38412,472.85287,66,38,0
472.85287,473.04764,59,30,0
473.06534,473.2778,59,28,0
473.2778,473.4903,64,36,0
473.4903,473.70276,59,31,0
472.85287,473.70276,68,42,0
473.70276,473.91522,64,37,0
473.91522,474.1277,59,31,0
474.1277,474.33572,64,28,0
474.33572,474.54376,59,28,0
474.1277,474.54376,68,43,0
474.54376,474.75623,64,30,0
474.75623,474.9687,59,28,0
474.54376,474.9687,69,46,0
474.9687,475.18115,64,36,0
475.18115,475.39362,59,31,0
474.9687,475.39362,73,54,0
475.39362,475.60608,66,37,0
475.60608,475.81854,59,26,0
475.39362,475.81854,71,47,0
475.81854,476.0356,63,25,0
476.0356,476.2873,59,27,0
475.81854,476.2873,66,38,0
476.2873,477.13718,68,42,0
476.2873,477.13718,64,35,0
476.2873,477.13718,59,35,0
477.5621,478.0092,80,45,0
477.5621,478.0092,68,45,0
478.0092,478.4772,81,51,0
478.0092,478.4772,69,43,0
478.4772,478.94522,85,53,0
478.4772,478.94522,73,44,0
478.94522,479.43304,83,47,0
478.94522,479.43304,71,39,0
479.43304,479.98624,75,32,0
479.43304,479.98624,87,49,0
479.98624,480.94675,76,35,0
479.98624,480.94675,88,57,0
483.36218,483.84528,68,31,0
483.84528,484.32837,66,31,0
484.32837,484.81146,73,35,0
484.32837,484.81146,76,35,0
484.32837,484.81146,78,42,0
484.81146,485.29456,76,45,0
485.29456,485.77853,85,50,0
484.81146,485.77853,73,38,0
485.77853,486.0231,85,45,0
486.0231,486.26517,83,37,0
486.26517,486.50394,80,38,0
486.50394,486.7403,76,38,0
486.7403,486.9735,75,39,0
486.9735,487.2044,73,39,0
487.2044,487.43228,71,39,0
487.43228,487.6565,69,40,0
487.6565,487.87445,68,43,0
487.87445,488.08997,66,40,0
488.08997,488.25128,64,36,0
488.30475,488.51874,76,49,0
488.51874,488.73123,75,46,0
488.73123,488.89026,73,45,0
488.943,489.15396,85,55,0
489.15396,489.36142,83,52,0
489.36142,489.56262,81,50,0
489.56262,489.7128,80,49,0
489.76273,489.96182,93,59,0
489.96182,490.11035,92,56,0
490.15964,490.35645,92,57,0
490.35645,490.55228,90,55,0
490.55228,490.74686,93,58,0
490.74686,490.94232,90,56,0
490.94232,491.13852,88,55,0
491.13852,491.35098,87,56,0
491.35098,491.56345,90,63,0
491.56345,491.72278,81,54,0
491.7759,491.98987,81,50,0
491.98987,492.20084,80,47,0
492.20084,492.4118,88,50,0
492.4118,492.68405,80,46,0
492.68405,492.9127,78,40,0
492.9127,493.14136,85,37,0
493.14136,493.3889,83,40,0
493.3889,493.68533,75,36,0
493.68533,494.23477,76,40,0
1.7176663,2.1425953,52,30,0
1.7176663,2.1425953,40,25,0
3.420763,3.8549166,47,30,0
3.420763,3.8549166,35,25,0
5.1208634,5.5457926,49,30,0
5.1208634,5.5457926,37,25,0
5.9707217,6.3956504,39,23,0
5.9707217,6.3956504,51,28,0
6.3956504,6.864405,35,22,0
6.3956504,6.864405,47,26,0
6.864405,7.0768695,52,28,0
6.864405,7.0768695,40,28,0
7.0768695,7.289334,56,25,0
7.289334,7.5017986,59,28,0
7.5017986,7.714263,57,26,0
7.714263,7.9267273,56,28,0
7.9267273,8.139192,57,25,0
8.139192,8.351657,56,34,0
8.351657,8.582071,54,31,0
8.582071,8.794536,52,42,0
8.794536,9.007,59,32,0
9.007,9.219464,47,39,0
9.219464,9.43193,59,32,0
9.43193,9.641426,52,37,0
9.641426,9.850924,59,33,0
9.850924,10.064904,47,34,0
10.064904,10.285168,59,33,0
10.285168,10.502245,51,42,0
10.502245,10.719321,59,32,0
10.719321,10.931786,47,33,0
10.931786,11.091134,59,31,0
11.144251,11.356715,51,33,0
11.356715,11.56918,59,33,0
11.56918,11.777224,53,37,0
11.777224,11.985269,59,39,0
11.985269,12.197733,54,43,0
12.197733,12.410197,59,43,0
12.410197,12.622662,57,49,0
12.622662,12.835127,59,43,0
12.835127,13.047591,56,44,0
13.047591,13.260056,59,37,0
13.260056,13.477132,54,25,0
13.260056,13.477132,47,25,0
13.477132,13.72881,57,27,0
13.72881,13.941275,56,31,0
13.72881,13.941275,52,31,0
13.941275,14.153739,59,23,0
14.153739,14.366203,56,31,0
14.366203,14.578668,52,25,0
14.578668,14.786713,51,31,0
14.786713,14.994757,59,27,0
14.994757,15.202802,54,31,0
15.202802,15.42973,51,32,0
15.42973,15.642195,49,38,0
15.642195,15.854659,58,29,0
15.854659,16.067123,54,31,0
16.067123,16.279589,49,27,0
16.279589,16.492052,42,31,0
16.492052,16.704517,58,26,0
16.704517,16.916983,54,29,0
16.916983,17.142208,49,27,0
17.142208,17.356188,47,31,0
17.356188,17.570168,59,25,0
17.570168,17.784147,54,30,0
17.784147,17.998127,51,27,0
17.998127,18.212107,47,37,0
18.212107,18.426086,59,30,0
18.426086,18.640068,49,40,0
18.640068,18.863615,57,36,0
18.863615,19.077595,47,34,0
19.077595,19.291574,56,31,0
19.291574,19.505554,52,41,0
19.505554,19.719534,47,37,0
19.719534,19.933514,40,47,0
19.933514,20.147493,56,35,0
20.147493,20.361475,52,39,0
20.361475,20.595484,47,31,0
20.595484,20.809464,45,38,0
20.809464,21.023443,57,29,0
21.023443,21.237423,52,34,0
21.237423,21.451403,49,29,0
21.451403,21.665384,45,34,0
21.665384,21.87488,52,29,0
21.87488,22.084377,45,31,0
22.084377,22.293875,52,35,0
22.293875,22.50634,45,40,0
22.50634,22.718803,52,35,0
22.718803,22.931269,45,39,0
22.931269,23.143734,52,35,0
23.143734,23.356197,45,43,0
23.356197,23.568663,52,35,0
23.568663,23.781126,47,43,0
23.781126,24.015137,52,35,0
24.015137,24.229116,49,52,0
24.229116,24.443096,52,46,0
24.443096,24.657076,49,50,0
24.657076,24.884005,52,40,0
24.884005,25.097984,48,46,0
25.097984,25.311966,52,35,0
25.311966,25.525946,48,44,0
25.525946,25.76749,52,35,0
25.76749,25.983007,47,31,0
25.983007,26.198526,54,27,0
26.198526,26.414043,47,31,0
26.414043,26.62956,57,29,0
26.414043,26.62956,54,29,0
26.62956,26.853107,47,31,0
26.853107,27.076654,57,27,0
26.853107,27.076654,54,27,0
27.076654,27.300201,47,31,0
27.300201,27.549786,54,28,0
27.300201,27.549786,57,28,0
27.549786,27.762249,56,31,0
27.549786,27.762249,52,31,0
27.762249,27.974714,59,23,0
27.974714,28.187178,56,31,0
28.187178,28.399643,52,25,0
28.399643,28.607687,51,31,0
28.607687,28.815731,59,27,0
28.815731,29.023777,54,31,0
29.023777,29.250706,51,32,0
29.250706,29.46317,49,38,0
29.46317,29.675634,58,29,0
29.675634,29.8881,54,31,0
29.8881,30.100563,49,27,0
30.100563,30.313028,42,31,0
30.313028,30.525492,58,26,0
30.525492,30.737957,54,29,0
30.737957,30.963182,49,27,0
30.963182,31.177162,47,31,0
31.177162,31.391142,59,25,0
31.391142,31.605122,54,30,0
31.605122,31.819101,51,27,0
31.819101,32.03308,47,37,0
32.03308,32.247063,59,30,0
32.247063,32.46104,49,42,0
32.46104,32.68459,57,38,0
32.68459,32.89857,47,37,0
32.89857,33.11255,56,36,0
33.11255,33.32653,52,44,0
33.32653,33.54051,47,38,0
33.54051,33.75449,40,42,0
33.75449,33.968468,56,35,0
33.968468,34.18245,52,39,0
34.18245,34.41646,47,31,0
34.41646,34.63044,45,38,0
34.63044,34.844418,57,29,0
34.844418,35.0584,52,34,0
35.0584,35.272377,49,29,0
35.272377,35.48636,45,34,0
35.48636,35.695854,52,29,0
35.695854,35.905354,45,35,0
35.905354,36.11485,52,40,0
36.11485,36.327316,44,40,0
36.327316,36.53978,52,36,0
36.53978,36.752243,45,40,0
36.752243,36.964706,52,36,0
36.964706,37.177174,45,38,0
36.964706,37.177174,49,45,0
37.177174,37.389637,52,37,0
37.389637,37.6021,47,39,0
37.389637,37.6021,52,46,0
37.6021,37.83611,56,37,0
37.83611,38.05009,49,37,0
37.83611,38.05009,52,44,0
38.05009,38.264072,58,39,0
38.264072,38.47805,49,36,0
38.264072,38.47805,52,44,0
38.47805,38.70498,58,35,0
38.70498,38.91896,48,34,0
38.70498,38.91896,52,40,0
38.91896,39.13294,57,31,0
39.13294,39.34692,48,42,0
39.13294,39.34692,52,49,0
39.34692,39.588467,57,39,0
39.588467,39.80398,47,26,0
39.588467,39.80398,51,31,0
39.80398,40.0195,57,27,0
40.0195,40.235016,47,26,0
40.0195,40.235016,51,31,0
40.235016,40.450535,57,29,0
40.450535,40.674084,47,26,0
40.450535,40.674084,51,31,0
40.674084,40.89763,57,27,0
40.89763,41.121178,47,26,0
40.89763,41.121178,51,31,0
41.121178,41.37076,57,28,0
41.37076,41.59769,56,31,0
41.37076,41.59769,52,31,0
41.59769,41.82462,52,31,0
41.82462,42.051548,51,31,0
42.051548,42.278477,49,31,0
42.278477,42.505405,47,31,0
42.505405,42.746952,45,30,0
42.746952,42.97388,44,25,0
42.97388,43.213497,42,25,0
43.213497,43.663948,40,25,0
44.979855,45.41401,35,25,0
46.679955,47.104885,37,25,0
47.52981,47.954742,39,23,0
47.954742,48.423496,35,22,0
48.423496,48.887894,40,28,0
48.887894,49.100357,64,32,0
49.100357,49.312824,59,25,0
49.312824,49.51663,64,32,0
49.51663,49.720432,59,27,0
49.720432,49.924236,64,32,0
49.924236,50.12804,59,29,0
50.12804,50.327774,64,35,0
50.327774,50.527508,59,34,0
50.527508,50.729935,64,38,0
50.729935,50.953484,59,36,0
50.953484,51.16153,68,42,0
51.16153,51.36957,59,38,0
51.36957,51.577618,66,47,0
51.577618,51.797882,59,43,0
51.797882,52.007378,64,54,0
52.007378,52.216877,59,45,0
52.216877,52.426373,63,52,0
52.426373,52.6516,59,45,0
52.6516,52.862568,63,49,0
52.862568,53.07354,59,42,0
53.07354,53.284508,65,52,0
53.284508,53.49548,59,46,0
53.49548,53.70645,66,60,0
53.70645,53.91742,59,50,0
53.91742,54.12839,69,54,0
54.12839,54.35362,59,48,0
54.35362,54.566082,68,57,0
54.566082,54.778545,59,45,0
54.778545,55.003773,66,54,0
55.003773,55.228996,59,46,0
55.228996,55.45422,64,59,0
55.45422,55.666687,59,49,0
55.666687,55.87915,56,58,0
55.87915,56.091614,59,50,0
56.091614,56.522648,52,59,0
56.96644,57.180416,61,67,0
57.180416,57.394398,56,57,0
57.394398,57.608376,52,62,0
57.608376,57.822357,56,57,0
57.822357,58.250317,49,70,0
58.250317,58.47221,61,26,0
58.694103,58.903603,60,33,0
58.903603,59.111645,56,27,0
59.111645,59.31969,51,33,0
59.31969,59.527733,56,27,0
59.527733,59.943825,48,36,0
59.943825,60.165718,60,77,0
60.38761,60.60159,56,67,0
60.60159,60.81557,51,57,0
60.81557,61.02955,48,62,0
61.02955,61.24353,51,57,0
61.24353,61.67149,44,70,0
61.67149,61.893383,60,26,0
62.115276,62.324776,61,33,0
62.324776,62.532818,56,27,0
62.532818,62.740864,52,33,0
62.740864,62.94891,56,27,0
62.94891,63.364998,49,36,0
63.364998,63.58689,61,83,0
63.808784,64.022766,59,67,0
64.022766,64.23675,56,57,0
64.23675,64.45072,52,62,0
64.45072,64.6647,56,57,0
64.6647,65.09267,47,70,0
65.09267,65.31456,59,26,0
65.53645,65.74595,58,33,0
65.74595,65.953995,54,27,0
65.953995,66.16204,49,33,0
66.16204,66.37008,54,27,0
66.37008,66.78617,46,36,0
66.78617,67.008064,46,77,0
67.22996,67.44394,44,67,0
67.44394,67.65792,40,57,0
67.65792,67.871895,35,62,0
67.871895,68.08588,40,57,0
68.08588,68.51384,32,70,0
68.51384,68.73573,44,65,0
68.51384,68.73573,32,60,0
68.95763,69.37517,42,78,0
68.95763,69.37517,30,78,0
69.37517,69.58321,66,33,0
69.58321,69.79125,68,27,0
69.79125,69.9993,66,33,0
69.9993,70.207344,68,29,0
70.207344,70.41539,66,33,0
70.41539,70.64405,68,29,0
70.64405,70.85066,66,32,0
70.85066,71.057274,68,27,0
71.057274,71.263885,66,31,0
71.263885,71.4705,68,26,0
71.4705,71.67711,66,32,0
71.67711,71.88371,68,32,0
70.64405,71.88371,58,34,0
70.64405,71.88371,61,41,0
71.88371,72.099236,66,33,0
71.88371,72.271645,59,35,0
71.88371,72.271645,63,42,0
72.099236,72.31475,68,36,0
72.31475,72.52136,66,37,0
72.52136,72.727974,68,29,0
72.31475,72.727974,59,39,0
72.31475,72.727974,63,47,0
72.727974,72.934586,66,32,0
72.727974,73.09988,61,34,0
72.727974,73.09988,64,41,0
72.934586,73.1412,68,28,0
73.1412,73.34924,66,26,0
73.34924,73.55729,68,24,0
73.1412,73.55729,64,33,0
73.1412,73.55729,61,28,0
73.55729,73.77436,66,26,0
73.77436,73.99144,68,24,0
73.55729,73.99144,63,33,0
73.55729,73.99144,59,28,0
73.99144,74.199486,66,32,0
74.199486,74.40753,68,27,0
74.40753,74.61557,66,31,0
74.61557,74.823616,68,26,0
74.823616,75.03166,66,32,0
75.03166,75.23971,68,32,0
73.99144,75.23971,58,34,0
73.99144,75.23971,61,41,0
75.23971,75.45522,66,33,0
75.23971,75.62764,59,35,0
75.23971,75.62764,63,42,0
75.45522,75.67074,68,36,0
75.67074,75.87735,66,37,0
75.87735,76.08396,68,29,0
75.67074,76.08396,61,39,0
75.67074,76.08396,64,47,0
76.08396,76.29057,66,32,0
76.08396,76.455864,58,34,0
76.08396,76.455864,61,41,0
76.29057,76.497185,68,28,0
76.497185,76.70523,66,26,0
76.70523,76.91328,68,24,0
76.497185,76.91328,63,33,0
76.497185,76.91328,59,28,0
76.91328,77.130356,66,26,0
77.130356,77.34743,68,24,0
76.91328,77.34743,64,33,0
76.91328,77.34743,61,28,0
77.34743,77.56451,66,33,0
77.56451,77.781586,71,27,0
77.34743,77.781586,63,28,0
77.781586,77.989624,66,31,0
77.989624,78.19767,71,27,0
78.19767,78.405716,64,33,0
78.405716,78.61376,71,26,0
78.61376,78.826225,63,30,0
78.826225,79.054886,71,27,0
79.054886,79.26293,64,33,0
79.26293,79.47097,71,26,0
79.47097,79.679016,66,31,0
79.679016,79.88706,71,25,0
79.88706,80.09511,68,33,0
80.09511,80.30757,71,25,0
80.30757,80.520035,65,30,0
80.520035,80.74696,71,27,0
80.95646,81.16596,68,27,0
81.16596,81.37546,70,32,0
81.37546,81.58495,71,26,0
81.58495,81.79742,70,31,0
81.79742,82.00988,71,27,0
82.00988,82.23177,73,29,0
82.23177,82.46578,75,27,0
80.74696,82.46578,66,33,0
82.46578,82.89994,66,33,0
82.46578,82.89994,70,33,0
82.89994,83.113464,68,33,0
83.113464,83.32522,66,30,0
83.32522,83.53475,68,33,0
83.53475,83.75341,66,29,0
83.75341,83.97208,68,33,0
83.97208,84.20073,66,33,0
84.20073,84.40734,68,32,0
84.40734,84.61395,66,27,0
84.61395,84.820564,68,31,0
84.820564,85.027176,66,26,0
85.027176,85.23379,68,32,0
85.23379,85.4404,66,32,0
84.20073,85.4404,58,34,0
84.20073,85.4404,61,41,0
85.4404,85.655914,68,33,0
85.4404,85.82833,59,35,0
85.4404,85.82833,63,42,0
85.655914,85.87144,66,36,0
85.87144,86.07805,68,37,0
86.07805,86.28466,66,29,0
85.87144,86.28466,59,39,0
85.87144,86.28466,63,47,0
86.28466,86.49127,68,32,0
86.28466,86.656555,61,34,0
86.28466,86.656555,64,41,0
86.49127,86.69788,66,28,0
86.69788,86.90592,68,26,0
86.90592,87.11397,66,24,0
86.69788,87.11397,64,33,0
86.69788,87.11397,61,28,0
87.11397,87.33105,68,26,0
87.33105,87.54813,66,24,0
87.11397,87.54813,63,33,0
87.11397,87.54813,59,28,0
87.54813,87.75762,68,32,0
87.75762,87.96423,66,27,0
87.96423,88.170845,68,31,0
88.170845,88.37746,66,26,0
88.37746,88.58407,68,32,0
88.58407,88.79068,66,32,0
87.54813,88.79068,58,34,0
87.54813,88.79068,61,41,0
88.79068,89.006195,68,33,0
88.79068,89.17861,59,35,0
88.79068,89.17861,63,42,0
89.006195,89.22171,66,36,0
89.22171,89.43569,64,32,0
89.43569,89.64967,66,29,0
89.22171,89.64967,61,39,0
89.64967,89.836914,54,34,0
89.64967,89.836914,58,41,0
89.85772,90.06576,66,28,0
90.06576,90.2738,59,33,0
90.06576,90.2738,56,28,0
90.2738,90.48185,66,24,0
90.48185,90.69431,61,33,0
90.48185,90.69431,58,28,0
90.69431,90.90678,66,24,0
90.90678,91.11339,59,39,0
90.90678,91.11339,63,32,0
91.11339,91.32,66,28,0
91.32,91.504684,56,33,0
91.32,91.504684,59,40,0
91.5252,91.7304,66,27,0
91.7304,91.938446,61,31,0
91.7304,91.938446,58,26,0
91.938446,92.146484,66,22,0
92.146484,92.360466,63,31,0
92.146484,92.360466,59,26,0
92.360466,92.57144,66,22,0
92.57144,92.78094,61,35,0
92.57144,92.78094,64,29,0
92.78094,92.99043,66,26,0
92.99043,93.17511,58,30,0
92.99043,93.17511,61,36,0
93.19563,93.40083,66,24,0
93.40083,93.60887,63,29,0
93.40083,93.60887,59,24,0
93.60887,93.81692,66,20,0
93.81692,94.02938,64,28,0
93.81692,94.02938,61,24,0
94.02938,94.241844,66,20,0
94.241844,94.455826,63,26,0
94.455826,94.66981,66,24,0
94.66981,94.85835,63,33,0
94.8793,95.0888,66,22,0
95.0888,95.30588,63,26,0
95.30588,95.52296,66,18,0
95.52296,95.75162,63,25,0
95.75162,95.98027,66,18,0
95.98027,96.421394,66,24,0
95.98027,96.421394,63,24,0
97.07307,97.28705,56,27,0
97.28705,97.50102,58,29,0
97.50102,97.73322,60,27,0
97.73322,97.9503,61,33,0
97.9503,98.16737,56,28,0
98.16737,98.38445,58,29,0
98.38445,98.55465,60,27,0
98.55465,98.61138,63,27,0
98.61138,98.82235,61,34,0
98.82235,99.033325,60,28,0
99.033325,99.253586,61,29,0
99.253586,99.473854,63,27,0
99.473854,99.68482,64,35,0
99.68482,99.89579,63,29,0
99.89579,100.106766,64,29,0
100.106766,100.32866,66,28,0
100.32866,100.54112,68,34,0
100.54112,100.753586,66,29,0
100.753586,100.96605,64,29,0
100.96605,101.19825,65,28,0
101.19825,101.6324,66,34,0
102.06656,102.50071,54,34,0
102.994385,103.26798,47,32,0
103.26798,103.54158,54,27,0
103.54158,103.81518,51,27,0
103.81518,104.088776,47,32,0
104.088776,104.36237,59,27,0
104.36237,104.66044,54,27,0
104.66044,104.937355,49,32,0
104.937355,105.210815,58,27,0
105.210815,105.4818,54,27,0
105.4818,105.7505,51,33,0
105.7505,106.01635,59,27,0
106.01635,106.31665,54,29,0
106.31665,106.59025,52,32,0
106.59025,106.863846,61,29,0
106.863846,107.14532,56,29,0
107.14532,107.41705,53,34,0
107.41705,107.68879,63,31,0
107.68879,107.98465,59,30,0
107.98465,108.25639,54,37,0
108.25639,108.52813,63,32,0
108.52813,108.82399,59,32,0
108.82399,109.109825,52,42,0
109.109825,109.39112,61,36,0
109.39112,109.70313,58,36,0
109.70313,109.92021,51,43,0
109.92021,110.12682,59,36,0
110.12682,110.333435,54,36,0
110.333435,110.54005,51,34,0
110.54005,110.74112,47,42,0
110.74112,110.94219,54,37,0
110.94219,111.143265,51,38,0
111.143265,111.34434,47,35,0
111.34434,111.54407,49,50,0
111.54407,111.743805,57,40,0
111.743805,111.943535,52,40,0
111.943535,112.14327,49,36,0
112.14327,112.343,51,48,0
112.343,112.54274,59,43,0
112.54274,112.75097,54,43,0
112.75097,112.9762,51,41,0
112.9762,113.17593,52,61,0
113.17593,113.37566,61,46,0
113.37566,113.58224,57,45,0
113.58224,113.79173,52,43,0
113.79173,113.992805,54,62,0
113.992805,114.19388,59,47,0
114.19388,114.40189,57,48,0
114.40189,114.60529,54,46,0
114.62379,114.82486,54,66,0
114.82486,115.02593,59,50,0
115.02593,115.23395,57,50,0
115.23395,115.45584,54,48,0
115.45584,115.659645,48,60,0
115.659645,115.86345,57,51,0
115.86345,116.072205,54,51,0
116.072205,116.29086,51,47,0
116.29086,116.491936,48,60,0
116.491936,116.69301,57,51,0
116.69301,116.89408,54,51,0
116.89408,117.09515,51,43,0
117.09515,117.29623,48,48,0
117.29623,117.4973,57,37,0
117.4973,117.69837,54,35,0
117.69837,117.93422,51,33,0
117.93422,118.1482,47,37,0
118.1482,118.362175,57,26,0
118.362175,118.57616,54,30,0
118.57616,118.79014,51,26,0
118.79014,119.013565,47,31,0
119.013565,119.2412,57,26,0
119.2412,119.47467,56,26,0
119.47467,119.73284,54,26,0
119.73284,120.17994,52,30,0
119.73284,120.17994,40,25,0
121.503296,121.93745,47,30,0
121.503296,121.93745,35,25,0
123.2034,123.62833,49,30,0
123.2034,123.62833,37,25,0
124.05325,124.47819,39,23,0
124.05325,124.47819,51,28,0
124.47819,124.94694,35,22,0
124.47819,124.94694,47,26,0
124.94694,125.1594,52,28,0
124.94694,125.1594,40,28,0
125.1594,125.371864,56,25,0
125.371864,125.584335,59,28,0
125.584335,125.7968,57,26,0
125.7968,126.00926,56,28,0
126.00926,126.221725,57,25,0
126.221725,126.43419,56,30,0
126.43419,126.664604,54,27,0
126.664604,126.87707,52,37,0
126.87707,127.08953,59,28,0
127.08953,127.302,47,34,0
127.302,127.514465,59,28,0
127.514465,127.72396,52,33,0
127.72396,127.93346,59,29,0
127.93346,128.14743,47,30,0
128.14743,128.3677,59,29,0
128.3677,128.58478,51,37,0
128.58478,128.80185,59,28,0
128.80185,129.01431,47,29,0
129.01431,129.17368,59,27,0
129.22679,129.43925,51,29,0
129.43925,129.65172,59,28,0
129.65172,129.85976,53,31,0
129.85976,130.0678,59,33,0
130.0678,130.28027,54,36,0
130.28027,130.49274,59,36,0
130.49274,130.7052,57,41,0
130.7052,130.91766,59,37,0
130.91766,131.13013,56,38,0
131.13013,131.34259,59,32,0
131.34259,131.55966,54,25,0
131.34259,131.55966,47,25,0
131.55966,131.81134,57,27,0
131.81134,132.0238,56,31,0
131.81134,132.0238,52,31,0
132.0238,132.23627,59,23,0
132.23627,132.44873,56,31,0
132.44873,132.66121,52,25,0
132.66121,132.86925,51,31,0
132.86925,133.07729,59,27,0
133.07729,133.28534,54,31,0
133.28534,133.51227,51,32,0
133.51227,133.72473,49,38,0
133.72473,133.9372,58,29,0
133.9372,134.14966,54,31,0
134.14966,134.36212,49,27,0
134.36212,134.57458,42,31,0
134.57458,134.78705,58,26,0
134.78705,134.99951,54,29,0
134.99951,135.22475,49,27,0
135.22475,135.43872,47,31,0
135.43872,135.6527,59,25,0
135.6527,135.86668,54,30,0
135.86668,136.08066,51,27,0
136.08066,136.29465,47,37,0
136.29465,136.50862,59,30,0
136.50862,136.7226,49,37,0
136.7226,136.94615,57,33,0
136.94615,137.16013,47,31,0
137.16013,137.37411,56,32,0
137.37411,137.58809,52,38,0
137.58809,137.80206,47,33,0
137.80206,138.01605,40,45,0
138.01605,138.23003,56,32,0
138.23003,138.44402,52,36,0
138.44402,138.67802,47,29,0
138.67802,138.892,45,35,0
138.892,139.10597,57,27,0
139.10597,139.31996,52,31,0
139.31996,139.53394,49,27,0
139.53394,139.74791,45,31,0
139.74791,139.95741,52,29,0
139.95741,140.16692,45,34,0
140.16692,140.3764,52,38,0
140.3764,140.58022,45,39,0
140.58022,140.78401,52,35,0
140.78401,140.98782,45,38,0
140.98782,141.19162,52,35,0
141.19162,141.39967,45,44,0
141.39967,141.60771,52,36,0
141.60771,141.81577,47,44,0
141.81577,142.04977,52,37,0
142.04977,142.26375,49,55,0
142.26375,142.47772,52,48,0
142.47772,142.69171,49,54,0
142.69171,142.91864,52,43,0
142.91864,143.13261,48,50,0
143.13261,143.3466,52,39,0
143.3466,143.56058,48,49,0
143.56058,143.80212,52,39,0
143.80212,144.01764,47,31,0
144.01764,144.23315,54,27,0
144.23315,144.44867,47,31,0
144.44867,144.6642,57,29,0
144.44867,144.6642,54,29,0
144.6642,144.88774,47,31,0
144.88774,145.11128,57,27,0
144.88774,145.11128,54,27,0
145.11128,145.33484,47,31,0
145.33484,145.58441,54,28,0
145.33484,145.58441,57,28,0
145.58441,145.79688,56,31,0
145.58441,145.79688,52,31,0
145.79688,146.00935,59,23,0
146.00935,146.22182,56,31,0
146.22182,146.43428,52,25,0
146.43428,146.64232,51,31,0
146.64232,146.85036,59,27,0
146.85036,147.05841,54,31,0
147.05841,147.28534,51,32,0
147.28534,147.49484,49,38,0
147.49484,147.70433,58,29,0
147.70433,147.91383,54,31,0
147.91383,148.12332,49,27,0
148.12332,148.33282,42,31,0
148.33282,148.54233,58,26,0
148.54233,148.75182,54,29,0
148.75182,148.97705,49,27,0
148.97705,149.18802,47,31,0
149.18802,149.39899,59,25,0
149.39899,149.60995,54,30,0
149.60995,149.82092,51,27,0
149.82092,150.03189,47,37,0
150.03189,150.24287,59,30,0
150.24287,150.45384,49,37,0
150.45384,150.67738,57,33,0
150.67738,150.89136,47,31,0
150.89136,151.10535,56,33,0
151.10535,151.31932,52,37,0
151.31932,151.53331,47,37,0
151.53331,151.74728,40,42,0
151.74728,151.96126,56,32,0
151.96126,152.17525,52,36,0
152.17525,152.40926,47,29,0
152.40926,152.62323,45,35,0
152.62323,152.83722,57,27,0
152.83722,153.0512,52,31,0
153.0512,153.26517,49,27,0
153.26517,153.47916,45,31,0
153.47916,153.68864,52,29,0
153.68864,153.89815,45,35,0
153.89815,154.10765,52,40,0
154.10765,154.31862,45,40,0
154.31862,154.52959,52,36,0
154.52959,154.74055,45,40,0
154.74055,154.95152,52,37,0
154.95152,155.16249,45,38,0
154.95152,155.16249,49,45,0
155.16249,155.37347,52,37,0
155.37347,155.58444,47,39,0
155.37347,155.58444,52,46,0
155.58444,155.81845,56,38,0
155.81845,156.03242,49,49,0
155.81845,156.03242,52,57,0
156.03242,156.24641,58,50,0
156.24641,156.46039,49,47,0
156.24641,156.46039,52,56,0
156.46039,156.68732,58,45,0
156.68732,156.90129,48,44,0
156.68732,156.90129,52,52,0
156.90129,157.11528,57,40,0
157.11528,157.32925,48,43,0
157.11528,157.32925,52,51,0
157.32925,157.5708,57,41,0
157.5708,157.78632,47,26,0
157.5708,157.78632,51,31,0
157.78632,158.00183,57,27,0
158.00183,158.21736,47,26,0
158.00183,158.21736,51,31,0
158.21736,158.43288,57,29,0
158.43288,158.65642,47,26,0
158.43288,158.65642,51,31,0
158.65642,158.87996,57,27,0
158.87996,159.10352,47,26,0
158.87996,159.10352,51,31,0
159.10352,159.3531,57,28,0
159.3531,159.58003,56,31,0
159.3531,159.58003,52,31,0
159.58003,159.80696,52,31,0
159.80696,160.03389,51,31,0
160.03389,160.26082,49,31,0
160.26082,160.48775,47,31,0
160.48775,160.7293,45,30,0
160.7293,160.95622,44,25,0
160.95622,161.19583,42,25,0
161.19583,161.64629,40,25,0
162.96219,163.39635,35,25,0
164.6623,165.08722,37,25,0
165.51215,165.93707,39,23,0
165.93707,166.40584,35,22,0
166.40584,166.87022,40,28,0
166.87022,167.07684,64,28,0
167.07684,167.28345,59,22,0
167.28345,167.48453,64,28,0
167.48453,167.6856,59,24,0
167.6856,167.88667,64,28,0
167.88667,168.08774,59,25,0
168.08774,168.28882,64,30,0
168.28882,168.48988,59,29,0
168.48988,168.69232,64,32,0
168.69232,168.91586,59,31,0
168.91586,169.11967,68,35,0
169.11967,169.32347,59,32,0
169.32347,169.52728,66,39,0
169.52728,169.74754,59,36,0
169.74754,169.95705,64,45,0
169.95705,170.16653,59,37,0
170.16653,170.37604,63,43,0
170.37604,170.60126,59,37,0
170.60126,170.81223,63,46,0
170.81223,171.0232,59,39,0
171.0232,171.23418,65,49,0
171.23418,171.44514,59,44,0
171.44514,171.65611,66,58,0
171.65611,171.86708,59,48,0
171.86708,172.07805,69,53,0
172.07805,172.30328,59,47,0
172.30328,172.51575,68,57,0
172.51575,172.72821,59,44,0
172.72821,172.95343,66,54,0
172.95343,173.17865,59,46,0
173.17865,173.40388,64,59,0
173.40388,173.61635,59,49,0
173.61635,173.82881,56,58,0
173.82881,174.04128,59,50,0
174.04128,174.25374,52,45,0
174.25374,174.4662,59,31,0
174.4662,174.67867,47,31,0
174.67867,174.89113,59,31,0
174.89113,175.10063,54,40,0
175.10063,175.31013,59,33,0
175.31013,175.51962,57,33,0
175.51962,175.72913,59,33,0
175.72913,175.93861,56,37,0
175.93861,176.14812,59,33,0
176.14812,176.35762,54,33,0
176.35762,176.58627,59,33,0
176.58627,176.80981,52,40,0
176.80981,177.02228,59,35,0
177.02228,177.23476,64,28,0
177.23476,177.4465,59,28,0
177.4465,177.65677,64,31,0
177.65677,177.86559,59,28,0
177.86559,178.07295,64,40,0
178.07295,178.29988,59,49,0
178.29988,178.51285,66,47,0
178.51285,178.72235,59,48,0
178.72235,178.93184,69,45,0
178.93184,179.14134,59,49,0
179.14134,179.35841,67,55,0
179.35841,179.57549,59,52,0
179.57549,179.80241,66,71,0
179.80241,180.0541,59,65,0
180.0541,180.27275,64,80,0
180.27275,180.49141,59,65,0
180.49141,180.7054,55,68,0
180.7054,180.91937,59,57,0
180.91937,181.13336,52,44,0
181.13336,181.34734,59,44,0
181.34734,181.56131,47,38,0
181.56131,181.78838,59,38,0
181.78838,182.00389,54,35,0
182.00389,182.2194,59,36,0
182.2194,182.43494,57,36,0
182.43494,182.6501,59,37,0
182.6501,182.86407,55,39,0
182.86407,183.07806,59,39,0
183.07806,183.29204,54,40,0
183.29204,183.50534,59,42,0
183.50534,183.7134,52,43,0
183.7134,183.92143,64,41,0
183.92143,184.12949,50,44,0
184.12949,184.33752,62,42,0
184.33752,184.54556,48,49,0
184.54556,184.75362,60,45,0
184.75362,184.96165,47,51,0
184.96165,185.16971,59,47,0
185.16971,185.37775,45,52,0
185.37775,185.58578,57,51,0
185.58578,185.80768,43,57,0
185.80768,186.02957,55,53,0
186.02957,186.23477,41,57,0
186.23477,186.43997,53,55,0
186.43997,186.64517,40,63,0
186.64517,186.85037,52,59,0
186.85037,187.05011,38,69,0
187.05011,187.24983,50,67,0
187.24983,187.44957,36,74,0
187.44957,187.6493,48,77,0
187.6493,187.84904,35,81,0
187.84904,188.04877,47,76,0
188.04877,188.2485,33,83,0
188.2485,188.4625,45,80,0
188.4625,188.66356,31,86,0
188.66356,188.86462,43,80,0
188.86462,189.0657,35,86,0
189.0657,189.26677,47,80,0
189.26677,189.46785,38,86,0
189.46785,189.66891,50,81,0
189.66891,189.87125,42,87,0
189.87125,190.07785,54,81,0
190.07785,190.28868,43,86,0
190.28868,190.50156,55,76,0
190.50156,190.71223,47,81,0
190.71223,190.92068,59,73,0
190.92068,191.12769,50,77,0
191.12769,191.3343,62,76,0
191.3343,191.54091,54,73,0
191.54091,191.74753,66,73,0
191.74753,191.95413,55,81,0
191.95413,192.16179,67,53,0
192.16179,192.37125,57,50,0
192.37125,192.58252,69,49,0
192.58252,192.79498,59,49,0
192.79498,193.00745,71,48,0
193.00745,193.21991,60,46,0
193.21991,193.43237,72,42,0
193.43237,193.65244,65,42,0
193.65244,193.87271,72,35,0
193.87271,194.09297,66,39,0
194.09297,194.3136,72,34,0
194.3136,194.53706,67,39,0
194.53706,194.76392,72,35,0
194.76392,194.99425,55,40,0
195.22646,195.4746,48,32,0
195.4746,195.72273,55,27,0
195.72273,195.97087,52,27,0
195.97087,196.21901,48,32,0
196.21901,196.46715,60,27,0
196.46715,196.74971,55,27,0
196.74971,196.99843,50,32,0
196.99843,197.24358,59,27,0
197.24358,197.4848,55,27,0
197.4848,197.72443,52,33,0
197.72443,197.97028,60,27,0
197.97028,198.25055,55,29,0
198.25055,198.4914,53,32,0
198.4914,198.73207,62,29,0
198.73207,199.01353,57,29,0
199.01353,199.2648,54,34,0
199.2648,199.51605,63,31,0
199.51605,199.8119,60,30,0
199.8119,200.08,55,37,0
200.08,200.34993,64,32,0
200.34993,200.64578,60,32,0
200.64578,200.91034,53,39,0
200.91034,201.17488,65,33,0
201.17488,201.4869,59,33,0
201.17488,201.4869,62,33,0
201.4869,201.67555,60,39,0
201.67555,201.86285,55,32,0
201.86285,202.04872,51,32,0
202.04872,202.23343,55,30,0
202.23343,202.41672,48,38,0
202.41672,202.6016,60,33,0
202.6016,202.78966,55,34,0
202.78966,202.98532,48,32,0
202.98532,203.17142,50,45,0
203.17142,203.35753,59,36,0
203.35753,203.54362,55,36,0
203.54362,203.72974,50,33,0
203.72974,203.91583,51,43,0
203.91583,204.10194,60,39,0
204.10194,204.30109,55,39,0
204.30109,204.5263,51,37,0
204.5263,204.71594,53,56,0
204.71594,204.90558,62,42,0
204.90558,205.09521,56,42,0
205.09521,205.29901,53,39,0
205.29901,205.51147,54,57,0
205.51147,205.70354,63,44,0
205.70354,205.90555,60,45,0
205.90555,206.09494,54,43,0
206.11215,206.30927,55,62,0
206.30927,206.50638,63,47,0
206.50638,206.71175,60,48,0
206.71175,206.93364,55,47,0
206.93364,207.13606,56,58,0
207.13606,207.3385,63,52,0
207.3385,207.54634,60,57,0
207.54634,207.765,63,58,0
207.765,208.01784,49,32,0
207.765,208.01784,61,32,0
208.01784,208.27069,56,27,0
208.27069,208.52353,52,27,0
208.52353,208.77637,49,32,0
208.77637,209.02922,61,27,0
209.02922,209.3162,56,27,0
209.3162,209.5731,51,32,0
209.5731,209.83252,60,27,0
209.83252,210.09192,56,27,0
210.09192,210.35132,52,33,0
210.35132,210.61072,61,27,0
210.61072,210.91103,56,29,0
210.91103,211.17384,54,32,0
211.17384,211.43665,63,29,0
211.43665,211.72253,57,29,0
211.72253,211.99063,55,34,0
211.99063,212.25873,64,31,0
212.25873,212.54515,61,30,0
212.54515,212.81506,56,37,0
212.81506,213.08496,64,32,0
213.08496,213.37291,61,32,0
213.37291,213.57672,56,39,0
213.57672,213.78052,63,32,0
213.78052,213.9944,60,34,0
213.9944,214.21466,63,32,0
214.21466,214.40794,61,39,0
214.21466,214.40794,49,36,0
214.40794,214.59792,56,32,0
214.59792,214.78668,53,32,0
214.78668,214.97427,56,30,0
214.97427,215.16069,49,38,0
215.16069,215.34677,61,33,0
215.34677,215.53743,56,34,0
215.53743,215.73427,49,32,0
215.73427,215.94824,51,45,0
215.94824,216.13551,60,36,0
216.13551,216.32277,56,36,0
216.32277,216.51004,51,33,0
216.51004,216.69731,53,43,0
216.69731,216.88457,61,39,0
216.88457,217.08449,56,39,0
217.08449,217.29254,53,37,0
217.29254,217.4798,54,56,0
217.4798,217.66707,61,42,0
217.66707,217.86533,57,42,0
217.86533,218.05605,54,39,0
218.07338,218.26422,54,57,0
218.26422,218.45506,61,44,0
218.45506,218.65625,57,45,0
218.65625,218.85965,54,43,0
218.87814,219.06898,54,62,0
219.06898,219.25983,61,47,0
219.25983,219.47247,57,48,0
219.47247,219.69437,54,47,0
219.69437,219.90685,52,58,0
219.90685,220.10927,61,52,0
220.10927,220.31711,57,57,0
220.31711,220.53577,52,57,0
220.53577,220.94337,59,77,0
220.53577,220.94337,51,77,0
220.94337,221.1272,57,69,0
221.1272,221.31102,60,57,0
221.31102,221.49484,59,41,0
221.49484,221.67867,58,37,0
221.67867,221.86249,59,41,0
221.86249,222.04631,54,35,0
222.04631,222.23013,51,41,0
222.23013,222.41396,49,37,0
222.41396,222.59557,51,41,0
222.59557,222.80653,47,40,0
222.80653,222.9064,51,49,0
223.20734,223.30788,54,41,0
224.03764,224.21707,57,69,0
224.21707,224.39648,60,57,0
224.39648,224.57591,59,41,0
224.57591,224.75534,58,37,0
224.75534,224.93477,59,41,0
224.93477,225.1142,54,35,0
225.1142,225.29579,51,41,0
225.29579,225.47739,49,37,0
225.47739,225.65898,51,41,0
225.65898,225.86703,47,40,0
225.86703,225.96758,51,49,0
226.25421,226.34726,54,41,0
227.04541,227.23152,57,69,0
227.23152,227.41762,60,57,0
227.41762,227.60725,59,41,0
227.60725,227.79335,58,37,0
227.79335,227.97946,59,41,0
227.97946,228.16557,54,35,0
228.16557,228.35283,51,41,0
228.35283,228.5401,49,37,0
228.5401,228.72737,51,41,0
228.72737,228.93686,47,40,0
228.93686,229.12413,51,49,0
229.12413,229.31139,49,47,0
229.31139,229.49866,51,49,0
229.49866,229.68593,54,50,0
229.68593,229.89397,57,58,0
230.10202,230.4789,51,26,0
230.4789,230.85579,54,30,0
230.85579,231.2613,59,29,0
231.2613,231.46935,57,58,0
231.6774,232.05907,51,26,0
232.05907,232.44075,54,30,0
232.44075,232.84866,59,29,0
232.84866,233.05672,57,58,0
233.26476,233.6564,51,26,0
233.6564,234.04805,54,30,0
234.04805,234.67802,59,29,0
234.67802,234.8951,57,27,0
234.8951,235.11218,59,30,0
235.11218,235.32925,57,26,0
235.32925,235.54633,56,30,0
235.54633,235.76988,57,25,0
235.76988,235.99342,56,30,0
235.99342,236.23114,54,26,0
236.23114,236.65607,52,30,0
236.23114,236.65607,40,25,0
237.93423,238.3684,47,30,0
237.93423,238.3684,35,25,0
239.63434,240.05927,49,30,0
239.63434,240.05927,37,25,0
240.48419,240.90912,39,23,0
240.48419,240.90912,51,28,0
240.90912,241.37788,35,22,0
240.90912,241.37788,47,26,0
241.37788,241.59035,52,28,0
241.37788,241.59035,40,28,0
241.59035,241.80281,56,25,0
241.80281,242.01527,59,28,0
242.01527,242.22774,57,26,0
242.22774,242.4402,56,28,0
242.4402,242.65266,57,25,0
242.65266,242.86513,56,30,0
242.86513,243.09555,54,27,0
243.09555,243.30801,52,37,0
243.30801,243.52048,59,28,0
243.52048,243.73294,47,34,0
243.73294,243.9454,59,28,0
243.9454,244.1549,52,33,0
244.1549,244.3644,59,29,0
244.3644,244.57838,47,30,0
244.57838,244.79865,59,29,0
244.79865,245.01572,51,37,0
245.01572,245.2328,59,28,0
245.2328,245.44527,47,29,0
245.44527,245.60461,59,27,0
245.65773,245.8702,51,29,0
245.8702,246.08266,59,28,0
246.08266,246.2907,53,31,0
246.2907,246.49875,59,33,0
246.49875,246.71121,54,36,0
246.71121,246.92368,59,35,0
246.92368,247.13614,57,41,0
247.13614,247.3486,59,36,0
247.3486,247.56107,56,37,0
247.56107,247.77353,59,31,0
247.77353,247.9906,54,25,0
247.77353,247.9906,47,25,0
247.9906,248.24228,57,27,0
248.24228,248.45474,56,31,0
248.24228,248.45474,52,31,0
248.45474,248.6672,59,23,0
248.6672,248.87968,56,31,0
248.87968,249.09215,52,25,0
249.09215,249.30019,51,31,0
249.30019,249.50822,59,27,0
249.50822,249.71628,54,31,0
249.71628,249.9432,51,32,0
249.9432,250.15567,49,38,0
250.15567,250.36813,58,29,0
250.36813,250.5806,54,31,0
250.5806,250.79306,49,27,0
250.79306,251.00552,42,31,0
251.00552,251.21799,58,26,0
251.21799,251.43045,54,29,0
251.43045,251.65569,49,27,0
251.65569,251.86966,47,31,0
251.86966,252.08365,59,25,0
252.08365,252.29762,54,30,0
252.29762,252.5116,51,27,0
252.5116,252.72559,47,37,0
252.72559,252.93956,59,30,0
252.93956,253.15355,49,37,0
253.15355,253.37709,57,33,0
253.37709,253.59106,47,31,0
253.59106,253.80505,56,36,0
253.80505,254.01903,52,39,0
254.01903,254.233,47,45,0
254.233,254.44699,40,47,0
254.44699,254.66096,56,32,0
254.66096,254.87495,52,36,0
254.87495,255.10896,47,29,0
255.10896,255.32294,45,35,0
255.32294,255.53691,57,27,0
255.53691,255.7509,52,31,0
255.7509,255.96487,49,27,0
255.96487,256.17886,45,31,0
256.17886,256.38837,52,29,0
256.38837,256.59784,45,34,0
256.59784,256.80734,52,38,0
256.80734,257.0198,45,39,0
257.0198,257.23227,52,35,0
257.23227,257.44473,45,38,0
257.44473,257.6572,52,35,0
257.6572,257.86966,45,44,0
257.86966,258.08212,52,36,0
258.08212,258.2946,47,44,0
258.2946,258.52863,52,37,0
258.52863,258.74258,49,55,0
258.74258,258.95657,52,48,0
258.95657,259.17056,49,54,0
259.17056,259.3975,52,43,0
259.3975,259.61145,48,50,0
259.61145,259.82544,52,39,0
259.82544,260.03943,48,49,0
260.03943,260.28098,52,39,0
260.28098,260.4965,47,31,0
260.4965,260.712,54,27,0
260.712,260.92752,47,31,0
260.92752,261.14304,57,29,0
260.92752,261.14304,54,29,0
261.14304,261.36658,47,31,0
261.36658,261.59012,57,27,0
261.36658,261.59012,54,27,0
261.59012,261.8137,47,31,0
261.8137,262.06326,54,28,0
261.8137,262.06326,57,28,0
262.06326,262.27573,56,31,0
262.06326,262.27573,52,31,0
262.27573,262.4882,59,23,0
262.4882,262.70065,56,31,0
262.70065,262.91312,52,25,0
262.91312,263.12115,51,31,0
263.12115,263.3292,59,27,0
263.3292,263.53726,54,31,0
263.53726,263.7642,51,32,0
263.7642,263.97665,49,38,0
263.97665,264.18912,58,37,0
264.18912,264.40158,54,40,0
264.40158,264.61404,49,43,0
264.61404,264.8265,42,44,0
264.8265,265.03897,58,33,0
265.03897,265.25143,54,39,0
265.25143,265.47665,49,27,0
265.47665,265.69064,47,31,0
265.69064,265.9046,59,25,0
265.9046,266.1186,54,30,0
266.1186,266.33258,51,27,0
266.33258,266.54657,47,37,0
266.54657,266.76053,59,30,0
266.76053,266.97452,49,37,0
266.97452,267.19806,57,33,0
267.19806,267.41205,47,31,0
267.41205,267.62604,56,29,0
267.62604,267.84,52,38,0
267.84,268.054,47,38,0
268.054,268.26797,40,46,0
268.26797,268.48193,56,32,0
268.48193,268.69592,52,36,0
268.69592,268.92993,47,29,0
268.92993,269.14392,45,35,0
269.14392,269.35788,57,27,0
269.35788,269.57187,52,31,0
269.57187,269.78586,49,27,0
269.78586,269.99985,45,31,0
269.99985,270.20932,52,29,0
270.20932,270.41882,45,34,0
270.41882,270.62833,52,38,0
270.62833,270.8355,45,39,0
270.8355,271.04086,52,35,0
271.04086,271.2448,45,38,0
271.2448,271.44717,52,35,0
271.44717,271.64877,45,37,0
271.44717,271.64877,49,44,0
271.64877,271.853,52,36,0
271.853,272.06006,47,37,0
271.853,272.06006,52,44,0
272.06006,272.29407,56,37,0
272.29407,272.5021,49,47,0
272.29407,272.5021,52,55,0
272.5021,272.71014,58,48,0
272.71014,272.91818,49,45,0
272.71014,272.91818,52,54,0
272.91818,273.1451,58,43,0
273.1451,273.3591,48,42,0
273.1451,273.3591,52,50,0
273.3591,273.5731,57,39,0
273.5731,273.78705,48,41,0
273.5731,273.78705,52,49,0
273.78705,274.0286,57,39,0
274.0286,274.24414,47,26,0
274.0286,274.24414,51,31,0
274.24414,274.45966,57,27,0
274.45966,274.67517,47,26,0
274.45966,274.67517,51,31,0
274.67517,274.8907,57,29,0
274.8907,275.11423,47,26,0
274.8907,275.11423,51,31,0
275.11423,275.33777,57,27,0
275.33777,275.5613,47,26,0
275.33777,275.5613,51,31,0
275.5613,275.8109,57,28,0
275.8109,276.03784,56,31,0
275.8109,276.03784,52,31,0
276.03784,276.26477,52,31,0
276.26477,276.4917,51,31,0
276.4917,276.71863,49,31,0
276.71863,276.94556,47,31,0
276.94556,277.1871,45,30,0
277.1871,277.41403,44,25,0
277.41403,277.65363,42,25,0
277.65363,278.1041,40,25,0
279.41998,279.85416,35,25,0
281.1201,281.545,37,25,0
281.96997,282.3949,39,23,0
282.3949,282.86365,35,22,0
282.86365,283.32803,40,28,0
283.32803,283.5405,64,28,0
283.5405,283.75296,59,22,0
283.75296,283.9488,64,28,0
283.9488,284.14462,59,24,0
284.14462,284.34042,64,28,0
284.34042,284.53625,59,25,0
284.53625,284.7321,64,30,0
284.7321,284.9279,59,29,0
284.9279,285.13034,64,32,0
285.13034,285.35388,59,31,0
285.35388,285.55768,68,35,0
285.55768,285.76147,59,32,0
285.76147,285.9653,66,39,0
285.9653,286.18555,59,36,0
286.18555,286.39505,64,49,0
286.39505,286.60455,59,41,0
286.60455,286.81406,63,48,0
286.81406,287.03928,59,42,0
287.03928,287.25024,63,46,0
287.25024,287.4612,59,39,0
287.4612,287.67218,65,49,0
287.67218,287.88315,59,44,0
287.88315,288.09412,66,58,0
288.09412,288.30508,59,48,0
288.30508,288.51605,69,53,0
288.51605,288.7413,59,47,0
288.7413,288.95377,68,57,0
288.95377,289.16623,59,44,0
289.16623,289.39145,66,54,0
289.39145,289.61667,59,46,0
289.61667,289.8419,64,59,0
289.8419,290.05435,59,49,0
290.05435,290.2668,56,58,0
290.2668,290.47928,59,50,0
290.47928,290.9103,52,59,0
291.3541,291.56808,61,67,0
291.56808,291.77612,56,57,0
291.77612,291.9842,52,62,0
291.9842,292.19223,56,57,0
292.19223,292.6083,49,70,0
292.6083,292.8302,61,26,0
293.0521,293.2616,60,33,0
293.2616,293.46964,56,27,0
293.46964,293.67767,51,33,0
293.67767,293.88574,56,27,0
293.88574,294.30182,48,36,0
294.30182,294.5237,60,77,0
294.7456,294.9522,59,67,0
294.9522,295.1588,56,57,0
295.1588,295.36545,52,62,0
295.36545,295.57205,56,57,0
295.57205,295.98526,47,70,0
295.98526,296.20715,59,26,0
296.42905,296.63425,57,33,0
296.63425,296.84232,52,27,0
296.84232,297.05035,49,33,0
297.05035,297.2584,52,27,0
297.2584,297.67447,45,36,0
297.67447,297.89636,57,83,0
298.11826,298.32925,56,67,0
298.32925,298.53586,53,57,0
298.53586,298.74246,49,62,0
298.74246,298.94907,53,57,0
298.94907,299.3623,44,70,0
299.3623,299.5842,56,26,0
299.8061,300.0113,54,33,0
300.0113,300.21933,49,27,0
300.21933,300.42737,45,33,0
300.42737,300.6354,49,27,0
300.6354,301.0515,42,36,0
301.0515,301.2734,66,77,0
301.4953,301.7005,63,67,0
301.7005,301.9057,59,57,0
301.9057,302.1109,54,62,0
302.1109,302.31607,59,57,0
302.31607,302.72647,51,70,0
302.72647,302.94836,51,77,0
303.17026,303.38123,48,67,0
303.38123,303.58643,45,57,0
303.58643,303.79163,40,62,0
303.79163,303.99683,45,57,0
303.99683,304.40723,36,70,0
304.40723,304.62912,60,77,0
304.40723,304.62912,48,63,0
304.851,305.26288,59,48,0
304.851,305.26288,47,48,0
305.26288,305.47092,71,33,0
305.47092,305.67896,73,27,0
305.67896,305.887,71,33,0
305.887,306.09503,73,29,0
306.09503,306.3031,71,33,0
306.3031,306.53174,73,29,0
306.53174,306.73694,71,32,0
306.73694,306.94214,73,27,0
306.94214,307.14734,71,31,0
307.14734,307.35254,73,26,0
307.35254,307.55774,71,38,0
307.55774,307.76294,73,32,0
306.53174,307.76294,63,34,0
306.53174,307.76294,66,41,0
307.76294,307.97845,71,46,0
307.76294,308.15088,68,46,0
307.76294,308.15088,64,46,0
307.97845,308.19397,73,36,0
308.19397,308.3964,71,52,0
308.3964,308.59882,73,29,0
308.19397,308.59882,68,52,0
308.19397,308.59882,64,52,0
308.59882,308.80127,71,32,0
308.59882,308.9632,66,34,0
308.59882,308.9632,69,41,0
308.80127,309.0037,73,28,0
309.0037,309.2089,71,26,0
309.2089,309.4141,73,24,0
309.0037,309.4141,69,33,0
309.0037,309.4141,66,28,0
309.4141,309.63116,71,26,0
309.63116,309.84824,73,24,0
309.4141,309.84824,68,33,0
309.4141,309.84824,64,28,0
309.84824,310.05344,71,32,0
310.05344,310.25864,73,27,0
310.25864,310.46384,71,31,0
310.46384,310.66904,73,26,0
310.66904,310.87424,71,32,0
310.87424,311.07944,73,32,0
309.84824,311.07944,63,34,0
309.84824,311.07944,66,41,0
311.07944,311.29495,71,45,0
311.07944,311.46735,68,45,0
311.07944,311.46735,64,45,0
311.29495,311.51047,73,41,0
311.51047,311.7129,71,37,0
311.7129,311.9153,73,29,0
311.51047,311.9153,66,39,0
311.51047,311.9153,69,47,0
311.9153,312.11774,71,32,0
311.9153,312.2797,63,34,0
311.9153,312.2797,66,41,0
312.11774,312.3202,73,28,0
312.3202,312.52823,71,26,0
312.52823,312.73627,73,24,0
312.3202,312.73627,68,33,0
312.3202,312.73627,64,28,0
312.73627,312.95334,71,26,0
312.95334,313.1704,73,24,0
312.73627,313.1704,69,33,0
312.73627,313.1704,66,28,0
313.1704,313.3875,71,33,0
313.3875,313.60458,76,27,0
313.1704,313.60458,68,28,0
313.60458,313.80978,71,31,0
313.80978,314.01498,76,27,0
314.01498,314.22018,69,33,0
314.22018,314.42535,76,26,0
314.42535,314.63782,68,30,0
314.63782,314.8665,76,27,0
314.8665,315.0717,69,33,0
315.0717,315.2769,76,26,0
315.2769,315.4821,71,31,0
315.4821,315.6873,76,25,0
315.6873,315.8925,73,33,0
315.8925,316.10495,76,25,0
316.10495,316.3174,70,30,0
316.3174,316.54434,76,27,0
316.75385,316.96335,73,27,0
316.96335,317.17282,75,32,0
317.17282,317.38232,76,26,0
317.38232,317.5948,75,31,0
317.5948,317.80725,76,27,0
317.80725,318.02914,78,29,0
318.02914,318.26315,80,27,0
316.54434,318.26315,71,33,0
318.26315,318.69733,71,33,0
318.26315,318.69733,75,33,0
318.69733,318.91083,61,33,0
318.91083,319.1226,59,30,0
319.1226,319.33212,61,33,0
319.33212,319.55078,59,29,0
319.55078,319.76944,61,33,0
319.76944,319.9981,59,33,0
319.9981,320.20615,61,32,0
320.20615,320.41418,59,27,0
320.41418,320.62225,61,31,0
320.62225,320.8303,59,26,0
320.8303,321.03833,61,32,0
321.03833,321.24637,59,32,0
319.9981,321.24637,51,34,0
319.9981,321.24637,54,41,0
321.24637,321.46188,61,33,0
321.24637,321.6343,52,35,0
321.24637,321.6343,56,42,0
321.46188,321.6774,59,36,0
321.6774,321.88123,61,37,0
321.88123,322.08502,59,29,0
321.6774,322.08502,52,39,0
321.6774,322.08502,56,47,0
322.08502,322.28882,61,32,0
322.08502,322.45187,54,34,0
322.08502,322.45187,57,41,0
322.28882,322.4926,59,28,0
322.4926,322.70068,61,26,0
322.70068,322.90872,59,24,0
322.4926,322.90872,57,33,0
322.4926,322.90872,54,28,0
322.90872,323.1258,61,26,0
323.1258,323.34286,59,24,0
322.90872,323.34286,56,33,0
322.90872,323.34286,52,28,0
323.34286,323.54807,61,32,0
323.54807,323.75327,59,27,0
323.75327,323.95847,61,31,0
323.95847,324.16367,59,26,0
324.16367,324.36887,61,32,0
324.36887,324.57407,59,32,0
323.34286,324.57407,51,34,0
323.34286,324.57407,54,41,0
324.57407,324.78958,61,33,0
324.57407,324.96198,52,35,0
324.57407,324.96198,56,42,0
324.78958,325.0051,59,36,0
325.0051,325.2146,57,32,0
325.2146,325.42407,59,29,0
325.0051,325.42407,54,39,0
325.42407,325.6075,47,34,0
325.42407,325.6075,51,41,0
325.6279,325.8317,59,28,0
325.8317,326.03973,52,33,0
325.8317,326.03973,49,28,0
326.03973,326.24777,59,24,0
326.24777,326.46024,54,33,0
326.24777,326.46024,51,28,0
326.46024,326.6727,59,24,0
326.6727,326.87933,52,39,0
326.6727,326.87933,56,32,0
326.87933,327.08594,59,28,0
327.08594,327.2706,49,33,0
327.08594,327.2706,52,40,0
327.29114,327.49634,59,27,0
327.49634,327.70438,54,31,0
327.49634,327.70438,51,26,0
327.70438,327.9124,59,22,0
327.9124,328.1264,56,31,0
327.9124,328.1264,52,26,0
328.1264,328.33737,59,22,0
328.33737,328.54688,54,35,0
328.33737,328.54688,57,29,0
328.54688,328.75638,59,26,0
328.75638,328.94104,51,30,0
328.75638,328.94104,54,36,0
328.96158,329.16675,59,24,0
329.16675,329.37482,56,29,0
329.16675,329.37482,52,24,0
329.37482,329.58286,59,20,0
329.58286,329.79532,57,28,0
329.58286,329.79532,54,24,0
329.79532,330.00778,63,20,0
330.00778,330.22177,56,26,0
330.22177,330.43573,59,24,0
330.43573,330.6243,56,33,0
330.64523,330.85474,59,22,0
330.85474,331.0718,56,26,0
331.0718,331.28888,59,18,0
331.28888,331.51755,56,25,0
331.51755,331.74622,59,18,0
331.74622,332.18436,59,24,0
331.74622,332.18436,56,24,0
332.82858,333.0381,61,27,0
333.0381,333.2476,63,29,0
333.2476,333.47977,65,27,0
333.47977,333.69073,66,33,0
333.69073,333.9017,61,28,0
333.9017,334.11267,63,29,0
334.11267,334.28287,65,27,0
334.28287,334.3396,68,27,0
334.3396,334.5506,66,34,0
334.5506,334.76157,65,28,0
334.76157,334.9902,66,29,0
334.9902,335.21048,68,27,0
335.21048,335.42145,69,35,0
335.42145,335.63242,68,29,0
335.63242,335.84338,69,29,0
335.84338,336.06528,71,28,0
336.06528,336.27625,73,34,0
336.27625,336.4872,71,29,0
336.4872,336.69818,69,29,0
336.69818,336.9304,70,28,0
336.9304,337.35233,71,34,0
337.77426,338.19623,59,34,0
338.68988,338.96164,52,32,0
338.96164,339.23337,59,27,0
339.23337,339.5051,56,27,0
339.5051,339.77686,52,32,0
339.77686,340.04858,64,27,0
340.04858,340.34665,59,27,0
340.34665,340.61594,54,32,0
340.61594,340.88287,63,27,0
340.88287,341.14792,59,27,0
341.14792,341.4115,56,33,0
341.4115,341.6777,64,27,0
341.6777,341.978,59,29,0
341.978,342.25208,57,32,0
342.25208,342.522,66,29,0
342.522,342.81567,61,29,0
342.81567,343.08926,58,34,0
343.08926,343.36288,68,31,0
343.36288,343.65872,64,30,0
343.65872,343.93048,59,37,0
343.93048,344.2022,68,32,0
344.2022,344.49808,64,32,0
344.49808,344.77545,57,42,0
344.77545,345.05286,66,36,0
345.05286,345.36487,63,36,0
345.36487,345.5795,56,43,0
345.5795,345.78723,64,36,0
345.78723,345.99356,59,36,0
345.99356,346.19846,56,34,0
346.19846,346.40198,52,42,0
346.40198,346.6047,59,37,0
346.6047,346.80914,56,38,0
346.80914,347.01532,52,35,0
347.01532,347.22565,54,50,0
347.22565,347.43127,62,40,0
347.43127,347.63583,57,40,0
347.63583,347.83936,54,36,0
347.83936,348.04178,56,48,0
348.04178,348.2429,64,43,0
348.2429,348.45117,59,43,0
348.45117,348.67642,56,41,0
348.67642,348.88022,57,61,0
348.88022,349.084,66,46,0
349.084,349.2933,62,45,0
349.2933,349.51358,57,43,0
349.51358,349.716,59,62,0
349.716,349.91843,68,47,0
349.91843,350.12735,62,49,0
350.12735,350.33075,59,46,0
350.34924,350.55167,56,63,0
350.55167,350.7541,62,53,0
350.7541,350.96246,59,62,0
350.96246,351.18274,56,68,0
351.18274,351.39078,53,79,0
351.39078,351.59882,62,65,0
351.59882,351.8115,59,70,0
351.8115,352.0294,56,65,0
352.04922,352.2602,53,79,0
352.2602,352.47116,62,70,0
352.47116,352.68213,59,70,0
352.68213,352.90402,56,65,0
352.90402,353.11798,53,79,0
353.11798,353.32748,62,66,0
353.32748,353.537,59,72,0
353.537,353.7465,56,66,0
353.7465,353.9553,50,79,0
353.9553,354.16333,59,59,0
354.16333,354.37207,56,68,0
354.37207,354.58157,53,58,0
354.58157,354.79178,50,72,0
354.79178,355.00275,59,57,0
355.00275,355.2137,56,63,0
355.2137,355.42468,53,56,0
355.42468,355.63013,47,73,0
355.63013,355.83676,56,54,0
355.83676,356.04337,53,54,0
356.04337,356.25098,50,46,0
356.25098,356.45877,47,53,0
356.45877,356.66537,56,39,0
356.66537,356.87338,53,42,0
356.87338,357.08176,50,35,0
357.08176,357.29193,47,42,0
357.29193,357.5051,55,33,0
357.5051,357.72055,53,37,0
357.72055,357.93912,50,32,0
357.93912,358.15973,47,37,0
358.15973,358.38904,55,31,0
358.38904,358.62756,47,34,0
358.62756,358.8655,55,29,0
358.8655,359.70352,47,34,0
358.8655,359.70352,55,34,0
360.1225,360.5415,67,31,0
360.5415,360.96048,67,33,0
360.96048,361.3795,68,28,0
361.3795,361.7985,67,33,0
361.7985,362.21747,62,26,0
361.7985,362.21747,55,22,0
362.21747,362.63647,55,33,0
362.63647,363.05545,58,28,0
363.05545,363.47446,57,33,0
363.47446,363.89346,55,26,0
363.47446,363.89346,52,22,0
363.89346,364.3184,57,33,0
363.89346,364.3184,53,28,0
364.3184,364.72324,58,28,0
364.3184,364.72324,55,23,0
364.72324,365.1512,57,33,0
364.72324,365.1512,53,28,0
365.1512,365.59174,52,26,0
365.1512,365.59174,49,22,0
365.59174,366.01666,53,33,0
365.59174,366.01666,50,28,0
366.01666,366.84885,62,28,0
366.01666,366.84885,65,33,0
366.84885,367.69885,60,25,0
366.84885,367.69885,63,30,0
367.69885,368.5253,61,30,0
367.69885,368.5253,58,25,0
368.5253,369.39368,56,25,0
368.5253,369.39368,59,30,0
369.39368,370.23166,58,30,0
369.39368,370.23166,54,25,0
370.23166,371.08774,58,30,0
370.23166,371.08774,54,25,0
371.08774,371.90854,58,30,0
371.08774,371.90854,54,25,0
371.90854,372.7645,58,39,0
371.90854,372.7645,54,39,0
372.7645,373.5853,57,37,0
372.7645,373.5853,54,37,0
372.7645,373.5853,60,44,0
373.5853,374.43585,57,48,0
373.5853,374.43585,52,48,0
373.5853,374.43585,60,58,0
373.5853,374.43585,54,48,0
374.43585,374.8638,57,71,0
374.43585,374.8638,51,61,0
374.43585,374.8638,59,71,0
374.43585,374.8638,54,61,0
374.8638,375.0733,51,63,0
375.0733,375.2785,59,57,0
375.2785,375.488,51,57,0
375.488,375.69748,52,58,0
375.69748,375.90994,54,45,0
375.90994,376.12393,59,41,0
376.12393,376.33792,54,41,0
376.33792,376.55188,56,44,0
376.55188,376.76587,57,49,0
376.76587,376.97986,59,40,0
376.97986,377.1796,57,40,0
377.1796,377.37933,56,44,0
377.37933,377.58594,54,49,0
377.58594,377.79254,59,37,0
377.79254,377.99097,54,39,0
377.99097,378.18936,52,42,0
378.18936,378.39456,51,49,0
378.39456,378.59976,59,40,0
378.59976,378.80084,51,39,0
378.80084,379.00192,52,43,0
379.00192,379.20853,54,49,0
379.20853,379.41513,59,37,0
379.41513,379.61487,54,39,0
379.61487,379.8146,56,42,0
379.8146,380.0212,57,44,0
380.0212,380.2278,59,35,0
380.2278,380.4289,57,33,0
380.4289,380.62997,56,36,0
380.62997,380.84094,54,40,0
380.84094,381.0519,59,29,0
381.0519,381.25165,54,30,0
381.25165,381.4514,52,32,0
381.4514,381.66235,51,36,0
381.66235,381.87332,59,29,0
381.87332,382.07306,51,28,0
382.07306,382.2728,52,30,0
382.2728,382.48083,54,33,0
382.48083,382.68887,59,24,0
382.68887,382.8886,54,24,0
382.8886,383.08835,56,26,0
383.08835,383.29932,57,29,0
383.29932,383.51028,59,24,0
383.51028,383.71548,57,23,0
383.71548,383.9179,56,25,0
383.9179,384.12888,54,29,0
384.12888,384.33984,59,22,0
384.33984,384.54504,54,23,0
384.54504,384.74747,52,25,0
384.74747,384.95847,51,29,0
384.95847,385.16943,59,24,0
385.16943,385.37186,51,23,0
385.37186,385.57428,52,25,0
385.57428,385.78525,54,29,0
385.78525,385.99622,59,22,0
385.99622,386.20142,54,23,0
386.20142,386.4052,56,25,0
386.4052,386.61618,57,29,0
386.61618,386.82718,56,24,0
386.82718,387.03235,57,23,0
387.03235,387.23755,58,25,0
387.23755,387.45,59,29,0
387.45,387.6552,58,24,0
387.6552,387.8604,57,24,0
387.8604,388.0656,56,24,0
388.0656,388.27716,54,27,0
388.27716,388.49182,47,24,0
388.27716,388.49182,51,24,0
388.49182,388.70963,49,24,0
388.49182,388.70963,52,24,0
388.70963,388.94547,51,24,0
388.70963,388.94547,54,24,0
388.94547,389.3704,52,24,0
388.94547,389.79532,56,40,0
389.79532,390.21432,59,36,0
390.21432,390.64856,57,34,0
390.64856,391.0827,47,24,0
390.64856,391.0827,56,40,0
391.0827,391.45453,54,32,0
391.50766,391.9326,54,32,0
391.9326,392.34866,56,34,0
392.34866,392.7736,47,24,0
392.34866,392.7736,57,36,0
392.7736,393.19852,61,43,0
393.19852,393.62344,47,22,0
393.19852,393.62344,59,37,0
393.62344,394.0922,45,20,0
393.62344,394.0922,54,30,0
394.0922,394.5112,56,22,0
394.0922,394.5112,44,22,0
395.77533,395.9924,52,30,0
395.9924,396.20947,64,23,0
396.20947,396.42654,52,27,0
396.42654,396.64362,64,23,0
396.64362,396.86072,49,27,0
396.86072,397.07938,61,24,0
397.07938,397.29962,45,25,0
397.29962,397.5199,57,24,0
397.5199,397.73697,47,30,0
397.73697,397.95404,59,23,0
397.95404,398.1665,47,24,0
398.1665,398.37897,59,22,0
398.37897,398.59143,57,24,0
398.59143,398.8039,69,23,0
398.8039,399.01193,56,25,0
399.01193,399.22,68,25,0
399.22,399.43246,54,29,0
399.43246,399.64493,66,28,0
399.64493,399.8574,52,37,0
399.8574,400.06985,64,31,0
400.06985,400.30386,51,48,0
400.30386,400.53787,63,40,0
400.53787,400.75653,47,22,0
400.75653,400.99237,59,20,0
400.99237,401.84222,64,28,0
400.99237,401.84222,52,28,0
402.26715,402.70215,59,42,0
402.26715,402.70215,51,42,0
402.70215,403.54013,58,42,0
402.70215,403.54013,49,42,0
403.54013,404.39383,64,47,0
403.54013,404.39383,58,47,0
404.39383,405.21545,63,42,0
404.39383,405.21545,59,42,0
405.21545,405.63,59,38,0
405.21545,405.63,47,38,0
405.63,406.0652,57,38,0
405.63,406.0652,49,38,0
406.0652,406.9091,56,42,0
406.0652,406.9091,50,42,0
406.9091,407.776,62,45,0
406.9091,407.776,56,45,0
407.776,409.02402,61,42,0
407.776,409.02402,57,42,0
409.02402,409.44772,61,40,0
409.02402,409.44772,57,40,0
409.44772,409.87268,56,54,0
409.44772,409.87268,60,54,0
409.87268,410.2976,57,51,0
409.87268,410.2976,61,51,0
410.2976,410.6163,57,60,0
410.2976,410.6163,49,60,0
410.72253,411.052,56,58,0
410.72253,411.052,47,58,0
411.169,411.59695,56,68,0
411.59695,412.46582,46,64,0
411.59695,412.46582,54,64,0
412.46582,412.92136,54,54,0
412.46582,412.92136,46,51,0
412.92136,413.3524,54,41,0
413.3524,413.78342,59,32,0
413.78342,414.23053,58,38,0
414.23053,414.70364,59,34,0
412.92136,414.70364,47,34,0
414.70364,414.9161,52,31,0
414.9161,415.12857,59,23,0
415.12857,415.34103,56,31,0
415.34103,415.5535,52,25,0
415.5535,415.76154,51,31,0
415.76154,415.9696,59,27,0
415.9696,416.17764,54,31,0
416.17764,416.40457,51,32,0
416.40457,416.61703,49,38,0
416.61703,416.8295,58,29,0
416.8295,417.04196,54,31,0
417.04196,417.25443,49,27,0
417.25443,417.4669,42,31,0
417.4669,417.67935,58,26,0
417.67935,417.8918,54,29,0
417.8918,418.11703,49,27,0
418.11703,418.3268,47,31,0
418.3268,418.53632,59,25,0
418.53632,418.7458,54,30,0
418.7458,418.9553,51,27,0
418.9553,419.1648,47,37,0
419.1648,419.37567,59,30,0
419.37567,419.5873,49,37,0
419.5873,419.81085,57,33,0
419.81085,420.02332,47,31,0
420.02332,420.23578,56,29,0
420.23578,420.44824,52,34,0
420.44824,420.6607,47,29,0
420.6607,420.87317,40,39,0
420.87317,421.08563,56,32,0
421.08563,421.2981,52,36,0
421.2981,421.5321,47,29,0
421.5321,421.7461,45,35,0
421.7461,421.96008,57,27,0
421.96008,422.17404,52,31,0
422.17404,422.38803,49,27,0
422.38803,422.60202,45,31,0
422.60202,422.81152,52,29,0
422.81152,423.021,45,34,0
423.021,423.2305,52,38,0
423.2305,423.44296,44,38,0
423.44296,423.65543,52,34,0
423.65543,423.8679,45,38,0
423.8679,424.08035,52,35,0
424.08035,424.29282,49,43,0
424.08035,424.29282,45,36,0
424.29282,424.50528,52,35,0
424.50528,424.71777,52,44,0
424.50528,424.71777,47,37,0
424.71777,424.95178,56,36,0
424.95178,425.16574,49,46,0
424.95178,425.16574,52,54,0
425.16574,425.37973,58,47,0
425.37973,425.59372,49,44,0
425.37973,425.59372,52,52,0
425.59372,425.82065,58,42,0
425.82065,426.0346,48,41,0
425.82065,426.0346,52,48,0
426.0346,426.2486,57,37,0
426.2486,426.4626,52,47,0
426.2486,426.4626,48,40,0
426.4626,426.70413,57,38,0
426.70413,426.91965,47,31,0
426.91965,427.13516,57,27,0
426.91965,427.13516,54,21,0
426.91965,427.13516,51,21,0
427.13516,427.35068,47,31,0
427.35068,427.5662,57,29,0
427.35068,427.5662,54,23,0
427.35068,427.5662,51,23,0
427.5662,427.78647,47,31,0
427.78647,428.0067,57,27,0
427.78647,428.0067,54,21,0
427.78647,428.0067,51,21,0
428.0067,428.227,47,31,0
428.227,428.44888,57,28,0
428.227,428.44888,54,22,0
428.227,428.44888,51,22,0
428.44888,428.6644,47,31,0
428.6644,428.8799,56,27,0
428.6644,428.8799,52,21,0
428.8799,429.09543,47,31,0
429.09543,429.31094,56,29,0
429.09543,429.31094,52,23,0
429.31094,429.5296,47,31,0
429.5296,429.74826,56,27,0
429.5296,429.74826,52,21,0
429.74826,429.96692,47,31,0
429.96692,430.1888,56,28,0
429.96692,430.1888,52,22,0
430.6168,431.04474,59,34,0
431.04474,431.48526,58,43,0
431.48526,431.9377,59,35,0
430.1888,431.9377,47,46,0
430.1888,431.9377,54,46,0
432.3657,432.79364,59,34,0
432.79364,433.2342,58,43,0
433.2342,433.68665,59,35,0
431.9377,433.68665,47,46,0
431.9377,433.68665,52,46,0
433.68665,433.90216,47,37,0
433.90216,434.11768,57,31,0
433.90216,434.11768,54,25,0
433.90216,434.11768,51,25,0
434.11768,434.3332,47,37,0
434.3332,434.5487,57,35,0
434.3332,434.5487,54,27,0
434.3332,434.5487,51,27,0
434.5487,434.76578,47,39,0
434.76578,434.98285,57,35,0
434.76578,434.98285,54,27,0
434.76578,434.98285,51,27,0
434.98285,435.19995,47,40,0
435.19995,435.4139,57,37,0
435.19995,435.4139,54,28,0
435.19995,435.4139,51,28,0
435.4139,435.62943,47,48,0
435.62943,435.84494,56,41,0
435.62943,435.84494,53,32,0
435.62943,435.84494,50,32,0
435.84494,436.06046,47,48,0
436.06046,436.276,56,46,0
436.06046,436.276,53,37,0
436.06046,436.276,50,37,0
436.276,436.49152,47,50,0
436.49152,436.70703,56,46,0
436.49152,436.70703,53,34,0
436.49152,436.70703,50,34,0
436.70703,436.92255,47,51,0
436.92255,437.14444,56,47,0
436.92255,437.14444,53,38,0
436.92255,437.14444,50,38,0
437.14444,437.36633,45,51,0
437.36633,437.58823,49,34,0
437.36633,437.58823,54,42,0
437.58823,437.81012,45,49,0
437.81012,438.032,54,42,0
437.81012,438.032,49,35,0
438.032,438.2539,45,52,0
438.2539,438.4758,49,35,0
438.2539,438.4758,54,43,0
438.4758,438.6977,45,49,0
438.6977,438.9196,54,45,0
438.6977,438.9196,49,38,0
438.9196,439.14148,46,43,0
439.14148,439.36337,49,29,0
439.14148,439.36337,52,29,0
439.14148,439.36337,54,35,0
439.36337,439.58527,46,40,0
439.58527,439.80716,49,28,0
439.58527,439.80716,52,28,0
439.58527,439.80716,54,34,0
439.80716,440.02905,46,43,0
440.02905,440.25095,49,28,0
440.02905,440.25095,52,28,0
440.02905,440.25095,54,34,0
440.25095,440.47284,46,39,0
440.47284,440.69473,49,28,0
440.47284,440.69473,52,28,0
440.47284,440.69473,54,33,0
440.69473,440.91663,47,38,0
440.91663,441.13852,56,30,0
440.91663,441.13852,52,25,0
441.13852,441.3604,47,35,0
441.3604,441.5823,52,22,0
441.3604,441.5823,56,26,0
441.5823,441.8042,47,32,0
441.8042,442.0261,56,25,0
441.8042,442.0261,52,21,0
442.0261,442.26572,47,32,0
442.26572,442.5053,52,21,0
442.26572,442.5053,56,25,0
442.5053,442.73224,47,32,0
442.73224,442.95917,54,25,0
442.95917,443.1861,47,32,0
443.1861,443.41302,51,26,0
443.41302,443.64703,47,32,0
443.64703,443.88104,59,26,0
443.88104,444.13272,47,32,0
444.13272,444.36343,59,27,0
444.3844,445.23444,59,50,0
445.23444,446.07242,57,56,0
446.07242,446.89322,59,64,0
446.07242,446.89322,56,64,0
446.89322,447.71402,57,70,0
446.89322,447.71402,54,70,0
447.71402,448.1216,53,80,0
447.71402,448.1216,56,80,0
448.52924,448.93683,53,81,0
448.52924,448.93683,56,81,0
451.04416,452.69992,58,40,0
452.69992,458.9185,59,40,0
459.7636,460.174,58,32,0
460.174,460.5844,59,36,0
460.5844,461.01855,63,32,0
461.01855,461.41663,59,38,0
461.43756,461.84796,56,30,0
461.84796,462.25836,57,34,0
462.25836,462.67734,61,31,0
462.67734,463.07263,57,38,0
463.09344,463.50385,55,31,0
463.50385,463.91425,56,35,0
463.50385,463.91425,47,35,0
463.91425,464.3422,59,32,0
464.3422,464.73474,56,36,0
464.75543,465.16583,53,30,0
465.16583,465.57346,54,36,0
465.16583,465.57346,47,30,0
465.57346,466.0014,57,33,0
466.0014,466.4146,56,49,0
465.57346,466.4146,47,28,0
466.4146,466.8195,52,46,0
466.8195,467.04138,54,52,0
467.04138,467.26328,57,50,0
466.4146,467.26328,47,39,0
467.26328,467.47574,56,45,0
467.47574,467.70615,54,40,0
467.26328,467.70615,47,37,0
467.70615,468.13107,52,30,0
467.70615,468.13107,40,25,0
469.40924,469.8434,47,30,0
469.40924,469.8434,35,25,0
471.10934,471.53427,49,30,0
471.10934,471.53427,37,25,0
471.9592,472.38412,39,23,0
471.9592,472.38412,51,28,0
472.38412,472.85287,35,22,0
472.38412,472.85287,47,26,0
472.85287,473.70276,52,28,0
472.85287,473.70276,40,28,0
474.1277,474.54376,47,26,0
474.54376,475.39362,49,30,0
475.39362,475.81854,51,28,0
475.81854,476.2873,47,22,0
475.81854,476.2873,57,26,0
476.2873,476.49976,56,33,0
476.2873,476.49976,52,28,0
476.49976,476.71222,47,27,0
476.71222,476.9247,56,33,0
476.71222,476.9247,52,28,0
476.9247,477.13718,47,30,0
477.13718,477.34964,52,26,0
477.13718,477.34964,56,31,0
477.34964,477.5621,47,26,0
477.5621,477.78564,53,25,0
477.5621,477.78564,56,30,0
477.78564,478.0092,47,26,0
478.0092,478.2432,57,33,0
478.0092,478.2432,54,28,0
478.2432,478.4772,47,26,0
478.4772,478.7112,61,33,0
478.4772,478.7112,57,28,0
478.7112,478.94522,47,27,0
478.94522,479.17923,56,26,0
478.94522,479.17923,59,31,0
479.17923,479.43304,47,26,0
479.43304,479.68686,54,24,0
479.43304,479.68686,57,29,0
479.68686,479.98624,47,27,0
479.98624,480.46365,56,31,0
479.98624,480.46365,52,26,0
480.46365,480.94675,42,31,0
480.94675,481.42984,40,34,0
481.42984,481.91293,49,37,0
482.396,482.8791,57,40,0
482.8791,483.36218,56,39,0
481.91293,483.36218,47,34,0
483.36218,483.60373,49,45,0
483.60373,483.84528,47,49,0
483.36218,483.84528,64,45,0
483.84528,484.32837,64,52,0
483.84528,484.81146,46,52,0
484.81146,485.77853,66,47,0
484.81146,485.77853,64,39,0
484.81146,485.77853,58,39,0
485.77853,486.26517,68,27,0
485.77853,486.26517,64,22,0
485.77853,486.26517,59,22,0
486.7403,487.2044,59,23,0
486.7403,487.2044,66,27,0
487.6565,488.08997,61,24,0
487.6565,488.08997,64,29,0
488.51874,488.943,57,25,0
488.51874,488.943,61,30,0
489.36142,489.76273,57,31,0
489.36142,489.76273,54,26,0
490.15964,490.55228,54,32,0
490.15964,490.55228,51,26,0
490.94232,491.35098,59,27,0
490.94232,491.35098,63,33,0
491.7759,492.20084,61,25,0
491.7759,492.20084,64,30,0
492.20084,492.68405,61,25,0
492.20084,492.68405,64,30,0
492.68405,493.14136,57,28,0
493.14136,493.68533,59,24,0
493.68533,494.23477,52,27,0
