start_time,end_time,note_value,velocity,instrument_program_number
0.801068,0.9039487,55,66,0
0.801068,0.9039487,67,78,0
0.801068,0.9039487,64,66,0
0.801068,0.9039487,59,66,0
1.212591,1.813392,67,84,0
1.813392,2.013659,66,77,0
1.212591,2.013659,64,70,0
1.212591,2.013659,59,70,0
1.212591,2.013659,55,70,0
2.013659,2.116188,55,57,0
2.013659,2.116188,64,68,0
2.423775,2.624042,69,84,0
2.423775,2.624042,66,70,0
2.423775,2.624042,57,70,0
3.224843,3.625377,66,31,0
3.224843,3.625377,69,37,0
3.625377,4.226178,69,45,0
3.625377,4.226178,66,37,0
4.226178,4.426445,67,40,0
4.426445,4.7350874,66,35,0
4.426445,4.7350874,69,41,0
4.837968,5.1383686,67,36,0
4.837968,5.1383686,71,43,0
5.639036,5.740869,59,66,0
5.639036,5.740869,71,78,0
5.639036,5.740869,67,66,0
5.639036,5.740869,62,66,0
6.046368,6.647169,71,84,0
6.647169,6.847436,69,77,0
6.046368,6.847436,67,70,0
6.046368,6.847436,59,70,0
6.046368,6.847436,62,70,0
6.847436,6.9510274,59,57,0
6.847436,6.9510274,67,68,0
7.261801,7.461402,73,84,0
7.261801,7.461402,70,70,0
7.261801,7.461402,61,70,0
8.060205,8.459407,70,31,0
8.060205,8.459407,73,37,0
8.459407,9.05821,73,45,0
8.459407,9.05821,70,37,0
9.05821,9.257811,71,40,0
9.257811,9.56125,70,35,0
9.257811,9.56125,73,41,0
9.662396,9.961798,71,36,0
9.662396,9.961798,74,43,0
10.4608,11.241034,74,70,0
11.241034,11.624911,79,70,0
11.624911,12.025445,76,62,0
12.025445,12.425979,74,66,0
12.425979,12.806486,72,56,0
12.826513,13.604219,72,61,0
13.604219,13.985656,81,61,0
13.985656,14.788119,72,52,0
14.788119,15.166103,71,61,0
15.185997,15.968775,71,55,0
15.968775,16.348017,67,50,0
16.367977,17.166382,67,44,0
17.166382,17.545624,64,43,0
17.565582,18.34836,64,41,0
18.34836,18.755693,55,36,0
18.755693,19.205807,52,24,0
19.205807,20.118738,59,28,0
19.205807,20.118738,51,24,0
20.220177,21.206453,88,61,0
20.220177,21.206453,76,51,0
21.206453,21.40739,87,53,0
21.206453,21.40739,75,45,0
21.40739,21.818914,88,57,0
21.40739,21.818914,76,48,0
21.818914,22.619982,66,61,0
21.818914,22.619982,64,51,0
21.818914,22.619982,60,51,0
22.619982,23.031506,61,56,0
22.619982,23.031506,64,56,0
22.619982,23.031506,66,66,0
23.031506,23.643295,66,71,0
23.643295,23.843561,67,51,0
23.843561,24.043829,69,56,0
24.043829,24.250298,67,43,0
23.031506,24.250298,63,60,0
23.031506,24.250298,57,60,0
24.250298,24.650833,66,47,0
24.650833,25.063772,64,39,0
25.063772,26.05144,88,61,0
25.063772,26.05144,76,51,0
26.05144,26.252377,87,61,0
26.05144,26.252377,75,52,0
26.252377,26.669624,88,66,0
26.252377,26.669624,76,56,0
26.669624,27.476076,66,61,0
26.669624,27.476076,64,51,0
26.669624,27.476076,60,51,0
27.476076,27.891876,61,44,0
27.476076,27.891876,64,44,0
27.476076,27.891876,66,52,0
27.891876,28.515575,66,55,0
28.515575,28.74148,69,38,0
28.74148,28.977142,67,41,0
28.977142,29.241926,66,32,0
27.891876,29.241926,63,46,0
27.891876,29.241926,57,46,0
29.241926,29.744862,64,36,0
29.241926,29.744862,55,30,0
30.247795,30.346285,71,36,0
30.247795,30.346285,59,30,0
30.641754,31.43488,59,34,0
30.641754,31.43488,71,41,0
31.43488,31.532728,76,36,0
31.43488,31.532728,64,30,0
31.82627,32.616783,64,35,0
31.82627,32.616783,76,42,0
32.616783,32.714314,83,36,0
32.616783,32.714314,71,30,0
33.0069,33.797413,71,34,0
33.0069,33.797413,83,40,0
33.797413,33.89526,76,30,0
33.797413,33.89526,88,36,0
34.188805,34.99576,88,41,0
34.188805,34.99576,76,34,0
34.99576,35.097595,89,82,0
34.99576,35.097595,77,70,0
34.99576,35.097595,83,70,0
34.99576,35.097595,86,70,0
35.403095,36.003895,89,90,0
35.403095,36.003895,77,76,0
35.403095,36.003895,83,76,0
35.403095,36.003895,86,76,0
36.003895,36.114044,88,70,0
36.10403,36.212803,86,69,0
36.20302,36.310654,84,68,0
36.30087,36.4085,83,68,0
36.398716,36.506348,81,68,0
36.496563,36.604305,79,66,0
36.59449,36.702473,77,64,0
36.692657,36.80064,76,64,0
36.790825,36.898808,74,64,0
36.888992,36.99701,72,64,0
36.98716,37.059383,71,63,0
37.05282,37.125046,69,63,0
37.118477,37.190704,67,63,0
37.18414,37.256363,65,63,0
37.249798,37.322025,64,63,0
37.315456,37.387684,62,63,0
37.38112,37.468872,60,63,0
37.4605,37.550137,59,63,0
37.54159,37.63319,57,63,0
37.624466,37.718143,55,62,0
37.70921,37.804024,54,62,0
37.795704,37.995308,55,89,0
38.59411,38.691956,55,34,0
38.59411,38.691956,62,34,0
38.59411,38.691956,65,40,0
38.9855,39.1851,55,38,0
38.9855,39.1851,60,38,0
38.9855,39.1851,64,45,0
39.7839,39.885735,86,90,0
39.7839,39.885735,74,76,0
39.7839,39.885735,80,76,0
39.7839,39.885735,83,76,0
40.191235,40.792034,86,98,0
40.191235,40.792034,74,84,0
40.191235,40.792034,80,84,0
40.191235,40.792034,83,84,0
40.792034,40.902184,84,70,0
40.89217,41.000946,83,69,0
40.99116,41.098793,81,68,0
41.08901,41.19664,80,68,0
41.186855,41.294487,78,68,0
41.284702,41.392445,76,66,0
41.38263,41.490612,74,64,0
41.480797,41.58878,72,64,0
41.578964,41.686947,71,64,0
41.67713,41.78515,69,64,0
41.7753,41.847523,68,63,0
41.840958,41.913185,66,63,0
41.90662,41.978844,64,63,0
41.97228,42.044502,62,63,0
42.037937,42.110165,60,63,0
42.1036,42.175823,59,63,0
42.16926,42.25701,57,63,0
42.24864,42.338276,56,63,0
42.32973,42.42133,54,63,0
42.412605,42.506283,52,62,0
42.49735,42.592163,51,62,0
42.583847,42.983047,52,89,0
43.382248,43.480095,52,34,0
43.382248,43.480095,59,34,0
43.382248,43.480095,62,40,0
43.77364,43.97324,52,38,0
43.77364,43.97324,57,38,0
43.77364,43.97324,60,45,0
44.57204,44.957844,82,57,0
44.983566,45.57841,82,60,0
45.57841,45.684635,81,53,0
45.67513,45.77979,79,53,0
45.770252,45.875248,77,51,0
45.86568,45.971012,75,51,0
45.961414,46.06708,74,51,0
46.057453,46.163223,72,51,0
46.153652,46.259098,70,51,0
46.249496,46.35513,69,50,0
46.345528,46.45116,67,49,0
46.441555,46.547005,65,49,0
46.537586,46.675694,63,53,0
46.663136,46.802643,62,49,0
46.788685,46.941612,60,44,0
46.928253,47.316692,58,53,0
47.324955,49.279423,58,53,0
49.279423,49.628258,67,53,0
49.66702,50.4498,67,59,0
50.4498,50.799767,73,63,0
50.4498,50.799767,67,53,0
50.83865,51.626568,67,57,0
50.83865,51.626568,73,68,0
51.626568,51.975407,79,69,0
51.626568,51.975407,76,58,0
51.626568,51.975407,73,58,0
52.014164,52.78936,79,78,0
52.78936,53.179478,78,80,0
53.179478,53.95467,77,84,0
52.014164,53.95467,76,66,0
52.014164,53.95467,73,66,0
53.95467,54.310402,73,69,0
53.95467,54.310402,76,69,0
53.95467,54.310402,78,82,0
54.349926,55.48623,78,95,0
54.349926,55.48623,74,80,0
54.349926,55.48623,71,80,0
55.48623,56.617455,83,94,0
55.48623,56.617455,78,80,0
55.48623,56.617455,71,80,0
56.617455,56.707924,71,49,0
56.617455,56.707924,66,41,0
56.979336,57.07262,60,49,0
56.979336,57.07262,72,59,0
57.725605,57.816624,67,47,0
57.725605,57.816624,72,56,0
58.089684,58.18297,63,49,0
58.089684,58.18297,75,59,0
58.826897,58.91989,69,48,0
58.826897,58.91989,75,57,0
59.19887,59.291866,64,53,0
59.19887,59.291866,76,63,0
59.933826,60.02625,71,50,0
59.933826,60.02625,76,60,0
60.303513,60.395935,65,55,0
60.303513,60.395935,77,64,0
61.051033,61.14261,76,46,0
61.051033,61.14261,71,39,0
61.051033,61.14261,68,39,0
61.234184,61.325756,68,32,0
61.234184,61.325756,71,32,0
61.234184,61.325756,77,38,0
61.41733,61.508907,68,32,0
61.41733,61.508907,71,32,0
61.41733,61.508907,77,38,0
61.600483,61.691856,68,32,0
61.600483,61.691856,71,32,0
61.600483,61.691856,77,38,0
61.783154,61.87445,68,32,0
61.783154,61.87445,71,32,0
61.783154,61.87445,77,38,0
61.965744,62.05704,68,32,0
61.965744,62.05704,71,32,0
61.965744,62.05704,77,38,0
62.14834,62.239433,77,46,0
62.14834,62.239433,71,39,0
62.14834,62.239433,68,39,0
62.330452,62.421474,68,44,0
62.330452,62.421474,71,44,0
62.330452,62.421474,77,52,0
62.512493,62.60351,68,48,0
62.512493,62.60351,71,48,0
62.512493,62.60351,77,58,0
62.69453,62.785553,68,53,0
62.69453,62.785553,71,53,0
62.69453,62.785553,77,63,0
62.87657,62.96759,68,59,0
62.87657,62.96759,71,59,0
62.87657,62.96759,77,69,0
63.05975,63.153324,68,63,0
63.05975,63.153324,71,63,0
63.05975,63.153324,77,75,0
63.246326,63.337345,90,91,0
63.246326,63.337345,85,77,0
63.246326,63.337345,78,77,0
63.246326,63.337345,82,77,0
63.246326,63.337345,88,91,0
63.428364,63.519382,91,83,0
63.428364,63.519382,85,70,0
63.428364,63.519382,79,70,0
63.428364,63.519382,82,70,0
63.428364,63.519382,88,83,0
63.6104,63.701424,91,83,0
63.6104,63.701424,85,70,0
63.6104,63.701424,79,70,0
63.6104,63.701424,82,70,0
63.6104,63.701424,88,83,0
63.792442,63.88346,91,83,0
63.792442,63.88346,85,70,0
63.792442,63.88346,79,70,0
63.792442,63.88346,82,70,0
63.792442,63.88346,88,83,0
63.97448,64.0655,91,83,0
63.97448,64.0655,85,70,0
63.97448,64.0655,79,70,0
63.97448,64.0655,82,70,0
63.97448,64.0655,88,83,0
64.15652,64.25158,91,83,0
64.15652,64.25158,85,70,0
64.15652,64.25158,79,70,0
64.15652,64.25158,82,70,0
64.15652,64.25158,88,83,0
64.346634,64.43984,91,85,0
64.346634,64.43984,85,71,0
64.346634,64.43984,79,71,0
64.346634,64.43984,82,71,0
64.346634,64.43984,88,85,0
64.533615,64.62813,91,77,0
64.533615,64.62813,85,65,0
64.533615,64.62813,79,65,0
64.533615,64.62813,82,65,0
64.533615,64.62813,88,77,0
64.72339,64.81942,91,74,0
64.72339,64.81942,85,63,0
64.72339,64.81942,79,63,0
64.72339,64.81942,82,63,0
64.72339,64.81942,88,74,0
64.91622,65.01382,91,67,0
64.91622,65.01382,85,57,0
64.91622,65.01382,79,57,0
64.91622,65.01382,82,57,0
64.91622,65.01382,88,67,0
65.1122,65.21141,91,60,0
65.1122,65.21141,85,51,0
65.1122,65.21141,79,51,0
65.1122,65.21141,82,51,0
65.1122,65.21141,88,60,0
65.311356,65.420685,91,56,0
65.311356,65.420685,85,47,0
65.311356,65.420685,79,47,0
65.311356,65.420685,82,47,0
65.311356,65.420685,88,56,0
65.530014,65.927895,79,56,0
65.530014,65.927895,91,56,0
65.927895,67.12153,78,56,0
65.927895,67.12153,90,56,0
67.12153,68.31516,83,56,0
67.12153,68.31516,71,56,0
68.31516,69.5088,78,56,0
68.31516,69.5088,66,56,0
69.5088,70.30455,59,56,0
69.5088,70.70243,71,56,0
70.70243,71.10231,67,63,0
71.10231,71.49909,66,57,0
71.50761,72.30336,66,65,0
72.30336,72.71865,70,58,0
72.71865,72.914345,71,56,0
72.914345,73.118706,79,68,0
73.118706,73.71355,91,74,0
73.71355,73.911835,90,56,0
74.105,74.30328,90,69,0
74.30328,74.89813,85,66,0
74.89813,75.09641,83,51,0
75.290215,75.488495,83,73,0
75.488495,76.083336,79,70,0
76.083336,76.28162,78,53,0
76.47542,76.674355,78,70,0
76.674355,77.27117,73,65,0
77.27117,77.46836,71,56,0
77.47694,77.87482,71,63,0
77.87482,78.27669,67,63,0
78.27669,78.67964,66,65,0
78.68821,78.88519,66,71,0
78.88519,79.08347,62,65,0
79.08347,79.28441,59,71,0
79.28441,79.485344,55,65,0
79.485344,79.6947,54,70,0
79.6947,79.90777,58,76,0
79.90777,80.29288,59,80,0
81.10811,82.289986,55,67,0
81.10811,82.289986,59,79,0
82.289986,83.09105,60,34,0
82.289986,83.491585,55,28,0
83.09105,84.282104,67,39,0
84.282104,84.68505,66,33,0
83.491585,84.69363,61,27,0
83.491585,84.69363,58,27,0
83.491585,84.69363,64,27,0
84.69363,85.078735,59,34,0
84.69363,85.078735,62,34,0
84.69363,85.078735,66,40,0
85.89397,87.07584,55,67,0
85.89397,87.07584,59,79,0
87.07584,87.87691,60,34,0
87.07584,88.27744,55,28,0
87.87691,89.067955,67,39,0
89.067955,89.46015,66,33,0
88.27744,89.46849,61,27,0
88.27744,89.46849,58,27,0
88.27744,89.46849,64,27,0
90.29232,91.48958,67,39,0
90.67415,91.86384,62,24,0
90.67415,91.86384,59,24,0
91.48958,91.88614,66,33,0
92.67927,93.88353,67,39,0
93.05352,94.27868,61,24,0
93.05352,94.27868,64,24,0
93.85998,94.27868,70,33,0
94.27868,94.673935,71,33,0
94.27868,94.673935,62,28,0
94.27868,94.673935,59,28,0
95.46445,95.8597,71,33,0
95.46445,95.8597,62,28,0
95.46445,95.8597,59,28,0
96.65022,97.04548,71,33,0
96.65022,97.04548,62,28,0
96.65022,97.04548,59,28,0
97.83599,99.01353,71,33,0
99.02176,100.199295,71,33,0
100.207535,100.989815,71,33,0
100.99805,101.09852,71,34,0
100.99805,101.09852,81,42,0
101.19898,101.29945,71,33,0
101.39992,101.49498,71,34,0
101.590034,101.68509,71,30,0
101.78015,101.875206,71,30,0
101.39992,101.97026,81,46,0
101.97026,102.06532,71,30,0
101.97026,102.16038,79,42,0
102.16038,102.25728,78,37,0
102.16038,102.25728,71,30,0
102.35418,102.45498,71,30,0
102.555786,102.65145,71,34,0
102.555786,102.747116,79,46,0
102.555786,102.747116,83,46,0
102.747116,102.84278,71,30,0
102.93844,103.0341,71,30,0
103.12977,103.22543,71,30,0
103.3211,103.416756,71,30,0
103.51242,103.608086,71,30,0
103.3211,103.70375,79,22,0
103.3211,103.70375,83,40,0
103.70375,103.79941,71,34,0
103.89507,103.99074,71,30,0
104.0864,104.18207,71,30,0
103.70375,104.277725,80,27,0
103.70375,104.277725,83,46,0
104.277725,104.37339,71,30,0
104.277725,104.469055,81,40,0
104.469055,104.56533,71,30,0
104.469055,104.661606,80,24,0
104.469055,104.661606,83,37,0
104.661606,104.76174,71,30,0
104.86188,105.24575,84,25,0
104.86188,105.24575,81,46,0
104.86188,105.24575,72,34,0
105.62963,105.72653,84,48,0
105.62963,105.72653,72,48,0
106.0237,106.59404,84,54,0
106.0237,106.59404,72,54,0
106.59404,106.78415,83,54,0
106.59404,106.78415,71,54,0
106.78415,106.88105,81,48,0
106.78415,106.88105,69,48,0
107.179565,107.369675,74,64,0
107.179565,107.369675,86,64,0
107.94002,108.03692,86,64,0
107.94002,108.03692,74,64,0
108.33611,108.90286,86,73,0
108.33611,108.90286,74,73,0
108.90286,109.091774,84,69,0
108.90286,109.091774,72,69,0
109.091774,109.188675,86,64,0
109.091774,109.188675,74,64,0
109.48719,110.05216,87,97,0
109.48719,110.05216,75,81,0
110.05216,110.240486,86,74,0
110.05216,110.240486,74,62,0
110.240486,110.43181,75,71,0
110.240486,110.43181,87,84,0
110.63075,111.195724,63,89,0
111.195724,111.38405,62,62,0
111.38405,111.57537,63,71,0
111.774315,112.33929,63,75,0
111.77902,112.343994,66,90,0
112.33929,112.52761,62,53,0
112.33929,112.52761,65,63,0
112.52761,112.71893,63,62,0
112.52761,112.71893,66,73,0
112.91788,113.48285,75,78,0
112.91788,113.48285,78,92,0
113.48285,113.67117,74,55,0
113.48285,113.67117,77,65,0
113.67117,113.862495,75,63,0
113.67117,113.862495,78,75,0
114.06143,114.6264,72,79,0
114.06143,114.6264,84,94,0
114.6264,114.81473,71,56,0
114.6264,114.81473,83,66,0
114.81473,115.00606,72,65,0
114.81473,115.00606,84,77,0
115.204994,115.769966,57,97,0
115.769966,115.95829,56,68,0
115.95829,116.14962,57,78,0
116.34856,116.91353,78,82,0
116.34856,116.91353,90,99,0
116.91353,117.10185,77,58,0
116.91353,117.10185,89,70,0
117.10185,117.29318,78,68,0
117.10185,117.29318,90,80,0
117.49212,118.05709,69,71,0
117.49212,118.05709,72,85,0
117.49212,118.05709,66,71,0
118.05709,118.245415,69,59,0
118.05709,118.245415,71,71,0
118.05709,118.245415,66,59,0
118.245415,118.436745,69,69,0
118.245415,118.436745,72,81,0
118.245415,118.436745,66,69,0
118.63568,119.02656,65,80,0
118.63568,119.02656,68,80,0
118.63568,119.02656,71,93,0
119.2185,119.30741,77,45,0
119.2185,119.30741,71,32,0
119.2185,119.30741,69,32,0
119.396324,119.48881,76,45,0
119.396324,119.48881,72,32,0
119.396324,119.48881,67,32,0
119.76624,120.136154,66,37,0
119.76624,120.136154,69,37,0
119.76624,120.136154,75,52,0
120.32111,120.40977,75,45,0
120.32111,120.40977,69,32,0
120.32111,120.40977,66,32,0
120.49842,120.59005,74,45,0
120.49842,120.59005,71,32,0
120.49842,120.59005,65,32,0
120.864944,121.23147,64,35,0
120.864944,121.23147,67,35,0
120.864944,121.23147,73,50,0
121.41473,121.50255,72,45,0
121.41473,121.50255,67,32,0
121.41473,121.50255,63,32,0
121.59037,121.681946,71,45,0
121.59037,121.681946,67,32,0
121.59037,121.681946,62,32,0
121.95662,122.04736,70,50,0
121.95662,122.04736,64,42,0
121.95662,122.04736,61,42,0
122.31916,122.409615,69,50,0
122.31916,122.409615,64,42,0
122.31916,122.409615,60,42,0
122.68006,122.76999,68,50,0
122.68006,122.76999,63,42,0
122.68006,122.76999,60,42,0
123.039215,123.128654,67,54,0
123.396484,123.48561,66,55,0
123.75216,123.84076,65,58,0
124.10609,124.19428,64,60,0
124.45852,124.5466,63,60,0
124.80982,124.89739,62,60,0
125.16009,125.247406,61,60,0
125.50965,125.597466,60,64,0
125.862076,125.950676,59,68,0
126.217834,126.30736,58,63,0
126.57633,126.66791,57,50,0
126.942635,127.0383,56,46,0
127.34404,127.54102,56,42,0
127.54102,127.74552,55,33,0
127.74552,129.33945,67,43,0
129.34773,130.13072,67,43,0
130.13072,130.51958,72,48,0
130.51958,130.91353,69,43,0
130.91353,131.30238,67,47,0
131.30238,131.68562,65,43,0
131.69377,132.46782,65,45,0
132.46782,132.85541,74,52,0
132.85541,133.62935,65,46,0
133.62935,133.99272,64,43,0
134.01695,134.11385,64,36,0
134.11385,134.21075,67,31,0
134.21075,134.30765,72,32,0
134.30765,134.40456,76,31,0
134.40456,134.49931,77,39,0
134.49931,134.59407,72,38,0
134.59407,134.68883,69,41,0
134.68883,134.78358,65,47,0
134.78358,134.87955,69,52,0
134.87955,134.97551,72,41,0
134.97551,135.07149,77,37,0
135.07149,135.15945,81,35,0
135.16745,135.26404,81,38,0
135.26404,135.36063,74,32,0
135.36063,135.45721,81,35,0
135.45721,135.5538,86,35,0
135.5538,135.64946,81,39,0
135.64946,135.74513,74,34,0
135.74513,135.84079,81,41,0
135.84079,135.93646,82,48,0
135.93646,136.03212,79,52,0
136.03212,136.12778,74,41,0
136.12778,136.22345,79,37,0
136.22345,136.3191,82,34,0
136.3191,136.41478,79,38,0
136.41478,136.51044,73,32,0
136.51044,136.6061,79,35,0
136.6061,136.70177,82,35,0
136.70177,136.79681,79,39,0
136.79681,136.89188,72,38,0
136.89188,136.98694,79,40,0
136.98694,137.08199,82,47,0
137.08199,137.17766,76,54,0
137.17766,137.27332,72,47,0
137.27332,137.36897,76,45,0
137.36897,137.45667,79,39,0
137.46465,137.5603,79,38,0
137.5603,137.65598,76,32,0
137.65598,137.75163,79,35,0
137.75163,137.84729,84,35,0
137.84729,137.94176,79,39,0
137.94176,138.03621,76,35,0
138.03621,138.13068,79,36,0
138.13068,138.22513,84,41,0
138.22513,138.3205,81,46,0
138.3205,138.41585,77,32,0
138.41585,138.51122,81,32,0
138.51122,138.60657,84,32,0
138.60657,138.70192,81,38,0
138.70192,138.79729,77,32,0
138.79729,138.89264,81,35,0
138.89264,138.988,84,35,0
138.988,139.08157,81,46,0
139.08157,139.17516,77,37,0
139.17516,139.26872,81,38,0
139.26872,139.3623,86,37,0
139.3623,139.45735,81,45,0
139.45735,139.55241,77,38,0
139.55241,139.64748,81,38,0
139.64748,139.74252,86,38,0
139.74252,139.83789,82,45,0
139.83789,139.93324,77,39,0
139.93324,140.02861,82,43,0
140.02861,140.12396,86,43,0
140.12396,140.21872,83,47,0
140.21872,140.31348,77,38,0
140.31348,140.40823,83,39,0
140.40823,140.50299,86,38,0
140.50299,140.59836,83,47,0
140.59836,140.69371,76,39,0
140.69371,140.78908,83,40,0
140.78908,140.88443,86,40,0
140.88443,140.9798,83,47,0
140.9798,141.07515,76,40,0
141.07515,141.1705,83,45,0
141.1705,141.26587,86,45,0
141.26587,141.35974,83,50,0
141.35974,141.4536,76,40,0
141.4536,141.54747,83,42,0
141.54747,141.64134,86,41,0
141.64134,141.73639,83,50,0
141.73639,141.83145,76,42,0
141.83145,141.92651,83,42,0
141.92651,142.02156,86,42,0
142.02156,142.11723,83,50,0
142.11723,142.21289,76,43,0
142.21289,142.30855,83,47,0
142.30855,142.40422,86,48,0
142.40422,142.49957,83,53,0
142.49957,142.59494,76,44,0
142.59494,142.69029,83,51,0
142.69029,142.78566,84,55,0
142.78566,142.88162,81,52,0
142.88162,142.9776,76,50,0
142.9776,143.07356,81,48,0
143.07356,143.16953,84,47,0
143.16953,143.2655,81,54,0
143.2655,143.36147,76,45,0
143.36147,143.45744,81,50,0
143.45744,143.5534,84,48,0
143.5534,143.64757,81,56,0
143.64757,143.74173,74,48,0
143.74173,143.83589,81,55,0
143.83589,143.93005,83,56,0
143.93005,144.02542,80,59,0
144.02542,144.12077,74,52,0
144.12077,144.21614,80,51,0
144.21614,144.3115,83,48,0
144.3115,144.40686,80,56,0
144.40686,144.50221,74,48,0
144.50221,144.59756,80,54,0
144.59756,144.69293,83,51,0
144.69293,144.7871,80,59,0
144.7871,144.88126,72,56,0
144.88126,144.97542,80,58,0
144.97542,145.06958,83,60,0
145.06958,145.16434,80,61,0
145.16434,145.2591,81,54,0
145.2591,145.35385,72,50,0
145.35385,145.44861,81,50,0
145.44861,145.54367,80,59,0
145.54367,145.63872,81,50,0
145.63872,145.73378,72,56,0
145.73378,145.8209,81,53,0
145.82883,145.92183,81,62,0
145.92183,146.01482,71,52,0
146.01482,146.10782,81,53,0
146.10782,146.2008,83,55,0
146.2008,146.29468,81,60,0
146.29468,146.38855,71,56,0
146.38855,146.4824,81,49,0
146.4824,146.57628,83,49,0
146.57628,146.67044,81,63,0
146.67044,146.7646,71,53,0
146.7646,146.85876,81,58,0
146.85876,146.95293,83,58,0
146.95293,147.04564,81,65,0
147.04564,147.13834,71,54,0
147.13834,147.23105,81,58,0
147.23105,147.32376,83,60,0
147.32376,147.41762,81,62,0
147.41762,147.51149,71,60,0
147.51149,147.60536,81,56,0
147.60536,147.69922,83,54,0
147.69922,147.79369,81,64,0
147.79369,147.88814,71,56,0
147.88814,147.9826,81,62,0
147.9826,148.07706,83,58,0
148.07706,148.17035,81,68,0
148.17035,148.26363,71,59,0
148.26363,148.3569,81,62,0
148.3569,148.4502,83,64,0
148.4502,148.54376,81,67,0
148.54376,148.63734,71,64,0
148.63734,148.73091,81,62,0
148.73091,148.8245,83,62,0
148.8245,148.91837,81,69,0
148.91837,149.01222,71,58,0
149.01222,149.1061,81,64,0
149.1061,149.19997,83,61,0
149.19997,149.29295,79,72,0
149.29295,149.38596,71,62,0
149.38596,149.47894,79,64,0
149.47894,149.57195,83,65,0
149.57195,149.66493,79,70,0
149.66493,149.75793,71,67,0
149.75793,149.85092,79,65,0
149.85092,149.93617,83,63,0
149.94392,150.03691,83,73,0
150.03691,150.12991,76,61,0
150.12991,150.2229,83,67,0
150.2229,150.3159,88,64,0
150.3159,150.40804,84,64,0
150.40804,150.50017,76,66,0
150.50017,150.5923,84,69,0
150.5923,150.68445,88,72,0
150.68445,150.77687,84,78,0
150.77687,150.8693,76,74,0
150.8693,150.96172,84,67,0
150.96172,151.05414,88,67,0
151.05414,151.14655,84,74,0
151.14655,151.23897,76,63,0
151.23897,151.33139,84,70,0
151.33139,151.42381,88,67,0
151.42381,151.5154,85,77,0
151.5154,151.60696,79,67,0
151.60696,151.69855,85,71,0
151.69855,151.79012,88,75,0
151.79012,151.88197,85,77,0
151.88197,151.97383,79,72,0
151.97383,152.06569,85,72,0
152.06569,152.15753,88,67,0
152.15753,152.25111,85,78,0
152.25111,152.34468,79,66,0
152.34468,152.43826,85,73,0
152.43826,152.53183,88,66,0
152.53183,152.62398,83,87,0
152.62398,152.71611,79,74,0
152.71611,152.80824,83,79,0
152.80824,152.90039,88,74,0
152.90039,152.99252,91,85,0
152.99252,153.08466,90,75,0
153.08466,153.1768,88,79,0
153.1768,153.26894,87,75,0
153.26894,153.36107,88,86,0
153.36107,153.45322,87,75,0
153.45322,153.54535,88,79,0
153.54535,153.63748,90,76,0
153.63748,153.72934,91,85,0
153.72934,153.8212,90,79,0
153.8212,153.91306,88,79,0
153.91306,154.00491,87,75,0
154.00491,154.09593,91,85,0
154.09593,154.18695,90,79,0
154.18695,154.27797,88,79,0
154.27797,154.36899,87,75,0
154.36899,154.46085,91,85,0
154.46085,154.5527,90,79,0
154.5527,154.64455,88,79,0
154.64455,154.73961,87,76,0
154.73961,154.83203,91,85,0
154.83203,154.92445,90,79,0
154.92445,155.01688,88,79,0
155.01688,155.11635,87,76,0
155.11635,155.3012,88,88,0
155.86377,156.06204,91,50,0
156.06204,156.26033,90,42,0
156.26033,156.4586,88,46,0
156.4586,156.65689,87,46,0
156.65689,157.05345,88,50,0
157.05345,157.45001,91,50,0
157.45001,157.84657,90,47,0
157.84657,158.24315,88,50,0
158.24315,158.63971,87,54,0
158.63971,159.03627,88,49,0
159.43283,160.22595,91,50,0
160.22595,161.01909,90,50,0
161.01909,161.41565,88,50,0
161.81221,162.60533,67,50,0
162.60533,162.8004,66,56,0
162.8004,162.99623,64,40,0
163.00475,163.40263,64,50,0
164.59375,164.98204,67,50,0
164.99031,165.18286,66,46,0
165.18286,165.37479,64,46,0
165.38313,165.56946,64,50,0
165.9664,166.15834,67,53,0
166.15834,166.35028,66,56,0
166.35028,166.54597,64,57,0
166.74167,166.93423,91,61,0
166.93423,167.12804,90,66,0
167.12804,167.32373,88,63,0
167.51628,167.70883,67,63,0
167.70883,167.90016,66,74,0
167.90016,168.09459,64,64,0
168.67006,168.78798,55,66,0
168.67006,168.78798,67,78,0
168.67006,168.78798,64,66,0
168.67006,168.78798,59,66,0
169.14175,169.74255,67,84,0
169.74255,169.94283,66,77,0
169.14175,169.94283,64,70,0
169.14175,169.94283,59,70,0
169.14175,169.94283,55,70,0
169.94283,170.04535,55,57,0
169.94283,170.04535,64,68,0
170.35294,170.5532,69,84,0
170.35294,170.5532,66,70,0
170.35294,170.5532,57,70,0
171.154,171.55455,66,31,0
171.154,171.55455,69,37,0
171.55455,172.15535,69,45,0
171.55455,172.15535,66,37,0
172.15535,172.3556,67,40,0
172.3556,172.66426,66,35,0
172.3556,172.66426,69,41,0
172.76714,173.06754,67,36,0
172.76714,173.06754,71,43,0
173.5682,173.67003,59,66,0
173.5682,173.67003,71,78,0
173.5682,173.67003,67,66,0
173.5682,173.67003,62,66,0
173.97554,174.57634,71,84,0
174.57634,174.7766,69,77,0
173.97554,174.7766,67,70,0
173.97554,174.7766,59,70,0
173.97554,174.7766,62,70,0
174.7766,174.88019,59,57,0
174.7766,174.88019,67,68,0
175.19096,175.39056,73,84,0
175.19096,175.39056,70,70,0
175.19096,175.39056,61,70,0
175.98936,176.38858,70,31,0
175.98936,176.38858,73,37,0
176.38858,176.98738,73,45,0
176.38858,176.98738,70,37,0
176.98738,177.18698,71,40,0
177.18698,177.49042,70,35,0
177.18698,177.49042,73,41,0
177.59157,177.89096,71,36,0
177.59157,177.89096,74,43,0
178.38997,179.1702,74,70,0
179.1702,179.55408,79,70,0
179.55408,179.9546,76,62,0
179.9546,180.35515,74,66,0
180.35515,180.73566,72,56,0
180.75568,181.53339,72,61,0
181.53339,181.91483,81,61,0
181.91483,182.71729,72,52,0
182.71729,183.09528,71,61,0
183.11516,183.89795,71,55,0
183.89795,184.27719,67,50,0
184.29715,185.09555,67,44,0
185.09555,185.4748,64,43,0
185.49475,186.27753,64,40,0
186.27753,186.71393,55,36,0
186.71393,187.22244,52,24,0
187.22244,188.44554,59,28,0
187.22244,188.44554,51,24,0
188.58145,189.56772,88,61,0
188.58145,189.56772,76,51,0
189.56772,189.76866,87,53,0
189.56772,189.76866,75,45,0
189.76866,190.18018,88,57,0
189.76866,190.18018,76,48,0
190.18018,190.98125,66,61,0
190.18018,190.98125,64,51,0
190.18018,190.98125,60,51,0
190.98125,191.39278,61,56,0
190.98125,191.39278,64,56,0
190.98125,191.39278,66,66,0
191.39278,192.00456,66,71,0
192.00456,192.20483,67,51,0
192.20483,192.40509,69,56,0
192.40509,192.61157,67,43,0
191.39278,192.61157,63,60,0
191.39278,192.61157,57,60,0
192.61157,193.0121,66,47,0
193.0121,193.42503,64,39,0
193.42503,194.4127,88,61,0
193.42503,194.4127,76,51,0
194.4127,194.61365,87,61,0
194.4127,194.61365,75,52,0
194.61365,195.0309,88,66,0
194.61365,195.0309,76,56,0
195.0309,195.83734,66,61,0
195.0309,195.83734,64,51,0
195.0309,195.83734,60,51,0
195.83734,196.25314,61,44,0
195.83734,196.25314,64,44,0
195.83734,196.25314,66,52,0
196.25314,196.87685,66,55,0
196.87685,197.09904,69,38,0
197.09904,197.33618,67,41,0
197.33618,197.58827,66,32,0
196.25314,197.58827,63,46,0
196.25314,197.58827,57,46,0
197.58827,198.0891,64,36,0
197.58827,198.0891,55,30,0
198.58994,198.68843,67,36,0
198.58994,198.68843,55,30,0
198.9839,199.77702,55,34,0
198.9839,199.77702,67,41,0
199.77702,199.87486,72,36,0
199.77702,199.87486,60,30,0
200.16841,200.95892,60,35,0
200.16841,200.95892,72,42,0
200.95892,201.05646,79,36,0
200.95892,201.05646,67,30,0
201.34904,202.13956,67,34,0
201.34904,202.13956,79,40,0
202.13956,202.2374,72,30,0
202.13956,202.2374,84,36,0
202.53094,203.34073,84,41,0
202.53094,203.34073,72,34,0
203.34073,203.44257,89,82,0
203.34073,203.44257,86,70,0
203.34073,203.44257,77,70,0
203.74806,204.34886,89,90,0
203.74806,204.34886,86,76,0
203.74806,204.34886,77,76,0
204.34886,204.45901,88,70,0
204.44899,204.55777,86,69,0
204.54799,204.65562,84,68,0
204.64583,204.75346,83,68,0
204.74368,204.85132,81,68,0
204.84152,204.94926,79,66,0
204.93945,205.04744,77,64,0
205.03763,205.14561,76,64,0
205.13579,205.24377,74,64,0
205.23396,205.34198,72,64,0
205.33212,205.40436,71,63,0
205.39778,205.47002,69,63,0
205.46344,205.53568,67,63,0
205.5291,205.60133,65,63,0
205.59476,205.66699,64,63,0
205.66043,205.73265,62,63,0
205.72609,205.81384,60,63,0
205.80547,205.8951,59,63,0
205.88655,205.97815,57,63,0
205.96944,206.06311,55,62,0
206.05417,206.14899,54,62,0
206.14067,206.34027,55,89,0
206.93907,207.03693,55,34,0
206.93907,207.03693,62,34,0
206.93907,207.03693,65,40,0
207.33046,207.53006,55,38,0
207.33046,207.53006,60,38,0
207.33046,207.53006,64,45,0
208.12888,208.2307,86,90,0
208.12888,208.2307,74,76,0
208.12888,208.2307,80,76,0
208.12888,208.2307,83,76,0
208.5362,209.13701,86,98,0
208.5362,209.13701,74,84,0
208.5362,209.13701,80,84,0
208.5362,209.13701,83,84,0
209.13701,209.24715,84,70,0
209.23714,209.34592,83,69,0
209.33612,209.44376,81,68,0
209.43398,209.54161,80,68,0
209.53181,209.63945,78,68,0
209.62967,209.73741,76,66,0
209.7276,209.83559,74,64,0
209.82576,209.93375,72,64,0
209.92393,210.03192,71,64,0
210.0221,210.13011,69,64,0
210.12027,210.19249,68,63,0
210.18593,210.25815,66,63,0
210.25159,210.3238,64,63,0
210.31725,210.38947,62,63,0
210.3829,210.45512,60,63,0
210.44856,210.52078,59,63,0
210.51422,210.60197,57,63,0
210.59361,210.68324,56,63,0
210.6747,210.7663,54,63,0
210.75757,210.85126,52,62,0
210.84232,210.93713,51,62,0
210.92882,211.32802,52,89,0
211.72722,211.82506,52,34,0
211.72722,211.82506,59,34,0
211.72722,211.82506,62,40,0
212.1186,212.3182,52,38,0
212.1186,212.3182,57,38,0
212.1186,212.3182,60,45,0
212.917,213.13647,84,43,0
213.35593,213.96321,84,45,0
213.96321,214.0605,82,42,0
214.0605,214.15562,81,42,0
214.15562,214.25105,79,40,0
214.25105,214.34679,77,40,0
214.34679,214.44283,76,40,0
214.44283,214.53911,74,40,0
214.53911,214.63568,72,40,0
214.63568,214.73257,70,40,0
214.73257,214.82977,69,39,0
214.82977,214.9273,67,39,0
214.9273,215.00523,66,37,0
215.00523,215.08311,64,36,0
215.08311,215.16125,62,35,0
215.16125,215.2398,60,35,0
215.2398,215.31876,58,40,0
215.31876,215.70705,57,42,0
215.7153,216.50064,57,42,0
216.50064,216.84836,63,53,0
216.50064,216.84836,57,45,0
216.887,217.66977,63,53,0
216.887,217.66977,57,45,0
217.66977,218.01862,69,53,0
217.66977,218.01862,63,53,0
218.05737,218.84015,69,59,0
218.05737,218.84015,63,59,0
218.84015,219.19011,75,63,0
218.84015,219.19011,69,53,0
218.84015,219.19011,63,53,0
219.229,220.01692,69,57,0
219.229,220.01692,75,68,0
219.229,220.01692,63,57,0
220.01692,220.36575,84,69,0
220.01692,220.36575,75,58,0
220.01692,220.36575,72,58,0
220.01692,220.36575,81,58,0
220.40451,221.1797,84,78,0
220.40451,221.1797,72,66,0
220.40451,221.1797,75,66,0
220.40451,221.1797,81,66,0
221.1797,221.56982,83,80,0
221.1797,221.56982,71,68,0
221.1797,221.56982,75,68,0
221.1797,221.56982,81,68,0
221.56982,222.34502,82,84,0
221.56982,222.34502,75,71,0
221.56982,222.34502,70,71,0
222.34502,222.70074,75,69,0
222.34502,222.70074,71,69,0
222.34502,222.70074,83,82,0
222.34502,222.70074,81,69,0
222.74028,223.87657,83,95,0
222.74028,223.87657,76,80,0
222.74028,223.87657,71,80,0
223.87657,225.0078,88,94,0
223.87657,225.0078,76,80,0
225.0078,225.09828,76,49,0
225.0078,225.09828,74,41,0
225.0078,225.09828,71,41,0
225.36969,225.46297,65,49,0
225.36969,225.46297,77,59,0
225.36969,225.46297,72,49,0
226.11595,226.20697,72,47,0
226.11595,226.20697,77,56,0
226.11595,226.20697,76,47,0
226.48003,226.57332,68,49,0
226.48003,226.57332,80,59,0
226.48003,226.57332,74,49,0
227.21724,227.31024,68,48,0
227.21724,227.31024,76,48,0
227.21724,227.31024,74,48,0
227.21724,227.31024,80,57,0
227.58922,227.68222,69,53,0
227.58922,227.68222,81,63,0
227.58922,227.68222,76,53,0
228.32417,228.4166,76,50,0
228.32417,228.4166,81,60,0
228.69386,228.78629,70,55,0
228.69386,228.78629,79,55,0
228.69386,228.78629,76,55,0
228.69386,228.78629,82,64,0
229.44138,229.53296,81,46,0
229.44138,229.53296,76,39,0
229.44138,229.53296,73,39,0
229.62453,229.71611,73,32,0
229.62453,229.71611,76,32,0
229.62453,229.71611,82,38,0
229.80768,229.89926,73,32,0
229.80768,229.89926,76,32,0
229.80768,229.89926,82,38,0
229.99083,230.0822,73,32,0
229.99083,230.0822,76,32,0
229.99083,230.0822,82,38,0
230.17351,230.2648,73,32,0
230.17351,230.2648,76,32,0
230.17351,230.2648,82,38,0
230.3561,230.44739,73,32,0
230.3561,230.44739,76,32,0
230.3561,230.44739,82,38,0
230.53868,230.62978,82,46,0
230.53868,230.62978,76,39,0
230.53868,230.62978,73,39,0
230.72081,230.81183,73,44,0
230.72081,230.81183,76,44,0
230.72081,230.81183,82,52,0
230.90285,230.99387,73,48,0
230.90285,230.99387,76,48,0
230.90285,230.99387,82,58,0
231.08488,231.1759,73,53,0
231.08488,231.1759,76,53,0
231.08488,231.1759,82,63,0
231.26692,231.35794,73,59,0
231.26692,231.35794,76,59,0
231.26692,231.35794,82,69,0
231.4501,231.54367,73,63,0
231.4501,231.54367,76,63,0
231.4501,231.54367,82,75,0
231.63667,231.72769,83,91,0
231.81871,231.90973,96,83,0
231.81871,231.90973,84,70,0
232.00075,232.09177,96,83,0
232.00075,232.09177,84,70,0
232.18279,232.2738,96,83,0
232.18279,232.2738,84,70,0
232.36484,232.45586,96,83,0
232.36484,232.45586,84,70,0
232.54688,232.64192,96,83,0
232.54688,232.64192,84,70,0
232.73698,232.83018,96,85,0
232.73698,232.83018,84,71,0
232.92397,233.01848,96,77,0
232.92397,233.01848,84,65,0
233.11374,233.20978,96,74,0
233.11374,233.20978,84,63,0
233.30656,233.40416,96,67,0
233.30656,233.40416,84,57,0
233.50255,233.60176,96,60,0
233.50255,233.60176,84,51,0
233.70178,233.80765,96,56,0
233.70178,233.80765,84,47,0
233.9135,234.31137,84,56,0
233.9135,234.31137,96,56,0
234.31137,235.505,83,56,0
234.31137,235.505,95,56,0
235.505,236.69864,88,56,0
235.505,236.69864,76,56,0
236.69864,237.89227,83,56,0
236.69864,237.89227,71,56,0
237.89227,238.68803,64,56,0
237.89227,239.0859,76,56,0
239.0859,239.4858,72,63,0
239.4858,239.88257,71,57,0
239.89108,240.68684,71,65,0
240.68684,241.10213,75,58,0
241.10213,241.29782,76,56,0
241.29782,241.50218,72,69,0
241.50218,242.09703,84,73,0
242.09703,242.29532,83,56,0
242.48848,242.68677,83,71,0
242.68677,243.28162,78,68,0
243.28162,243.47989,76,51,0
243.67369,243.87198,76,71,0
243.87198,244.46681,72,69,0
244.46681,244.6651,71,53,0
244.8589,245.05783,71,69,0
245.05783,245.65465,66,63,0
245.65465,245.85184,64,56,0
245.86041,246.2583,64,63,0
246.2583,246.66017,60,63,0
246.66017,247.06313,59,65,0
247.07169,247.26868,59,71,0
247.26868,247.46695,55,65,0
247.46695,247.6679,52,71,0
247.6679,247.86884,48,65,0
247.86884,248.07819,47,70,0
248.07819,248.29124,51,76,0
248.29124,248.67636,52,80,0
249.4916,250.67346,60,67,0
249.4916,250.67346,64,79,0
250.67346,251.47453,65,34,0
250.67346,251.87506,60,28,0
251.47453,252.66559,72,39,0
252.66559,253.06853,71,33,0
251.87506,253.0771,66,27,0
251.87506,253.0771,63,27,0
251.87506,253.0771,69,27,0
253.0771,253.46222,64,34,0
253.0771,253.46222,67,34,0
253.0771,253.46222,71,40,0
254.27745,255.45932,48,67,0
254.27745,255.45932,52,79,0
255.45932,256.26038,53,34,0
255.45932,256.66092,48,28,0
256.26038,257.45145,60,39,0
257.45145,257.84363,59,33,0
256.66092,257.85196,54,27,0
256.66092,257.85196,51,27,0
256.66092,257.85196,57,27,0
258.6758,259.87305,60,39,0
259.05762,260.2473,55,24,0
259.05762,260.2473,52,24,0
259.87305,260.26962,59,33,0
261.06274,262.267,60,39,0
261.437,262.66217,54,24,0
261.437,262.66217,57,24,0
262.24347,262.66217,63,33,0
262.66217,263.0574,64,33,0
262.66217,263.0574,55,28,0
263.47543,264.6727,72,35,0
263.85727,265.04694,63,21,0
263.85727,265.04694,69,21,0
263.85727,265.04694,66,21,0
264.6727,265.06924,71,29,0
265.84042,267.03772,72,35,0
267.03772,267.43427,71,29,0
266.2446,267.43427,64,21,0
266.2446,267.43427,67,21,0
268.2497,269.45398,72,35,0
268.62396,269.84912,66,21,0
268.62396,269.84912,69,21,0
269.43042,269.84912,75,29,0
269.84912,270.2444,76,29,0
269.84912,270.2444,67,25,0
270.66238,271.85965,84,35,0
271.04422,272.23392,75,21,0
271.04422,272.23392,81,21,0
271.04422,272.23392,78,21,0
271.85965,272.25623,83,29,0
274.1936,274.58627,75,26,0
274.1936,274.58627,78,31,0
274.58627,275.18707,79,38,0
274.58627,275.18707,76,31,0
275.18707,275.38733,78,34,0
275.18707,275.38733,75,27,0
275.38733,275.69598,76,34,0
275.79886,276.09924,78,30,0
275.79886,276.09924,81,36,0
276.5999,276.97296,78,26,0
276.5999,276.97296,81,31,0
276.99258,277.60526,81,38,0
276.99258,277.60526,78,31,0
277.60526,277.80948,79,34,0
277.80948,278.1257,81,34,0
277.80948,278.1257,78,31,0
278.2311,278.55508,79,30,0
278.2311,278.55508,83,36,0
279.09503,279.52554,83,27,0
279.54822,280.2953,83,34,0
280.2953,280.57443,81,30,0
280.57443,281.05847,83,30,0
280.57443,281.05847,79,27,0
281.21982,281.7706,81,27,0
281.21982,281.7706,84,32,0
282.6886,283.67487,88,61,0
282.6886,283.67487,76,51,0
283.67487,283.87582,87,60,0
283.67487,283.87582,75,51,0
283.87582,284.28732,88,65,0
283.87582,284.28732,76,55,0
284.28732,285.0884,66,54,0
284.28732,285.0884,64,45,0
284.28732,285.0884,60,45,0
285.0884,285.4999,61,56,0
285.0884,285.4999,64,56,0
285.0884,285.4999,66,66,0
285.4999,286.11172,66,71,0
286.11172,286.31198,67,51,0
286.31198,286.51224,69,56,0
286.51224,286.71872,67,43,0
285.4999,286.71872,63,60,0
285.4999,286.71872,57,60,0
286.71872,287.11926,66,47,0
287.11926,287.5322,64,39,0
287.5322,288.51987,88,64,0
287.5322,288.51987,76,53,0
288.51987,288.7208,87,64,0
288.51987,288.7208,75,54,0
288.7208,289.20676,88,66,0
288.7208,289.20676,76,56,0
289.20676,290.11603,66,48,0
289.20676,290.11603,64,40,0
289.20676,290.11603,60,40,0
290.11603,290.60004,61,34,0
290.11603,290.60004,64,34,0
290.11603,290.60004,66,41,0
290.60004,291.36945,66,41,0
291.36945,291.64102,69,26,0
291.64102,291.94568,67,28,0
291.94568,292.38705,66,21,0
290.60004,292.38705,63,34,0
290.60004,292.38705,57,34,0
292.38705,292.933,64,24,0
292.38705,292.933,55,20,0
0.801068,0.9039487,40,53,0
0.801068,0.9039487,52,63,0
1.212591,2.013659,52,72,0
1.212591,2.013659,40,61,0
2.013659,2.116188,40,53,0
2.013659,2.116188,52,63,0
2.423775,2.624042,50,72,0
2.423775,2.624042,38,61,0
3.224843,3.625377,62,29,0
3.625377,4.226178,62,36,0
3.625377,4.226178,60,30,0
4.226178,4.426445,59,26,0
4.226178,4.426445,62,31,0
4.426445,4.7350874,60,28,0
4.426445,4.7350874,57,24,0
4.837968,5.1383686,59,36,0
4.837968,5.1383686,55,30,0
5.639036,5.740869,43,53,0
5.639036,5.740869,55,63,0
6.046368,6.847436,55,72,0
6.046368,6.847436,43,61,0
6.847436,6.9510274,31,53,0
6.847436,6.9510274,43,63,0
7.261801,7.461402,42,72,0
7.261801,7.461402,30,61,0
8.060205,8.459407,66,29,0
8.459407,9.05821,66,36,0
8.459407,9.05821,64,30,0
9.05821,9.257811,62,26,0
9.05821,9.257811,66,31,0
9.257811,9.56125,64,28,0
9.257811,9.56125,61,24,0
9.662396,9.961798,62,36,0
9.662396,9.961798,59,30,0
10.850917,11.624911,62,38,0
10.850917,12.025445,59,38,0
12.025445,12.826513,57,39,0
11.624911,12.826513,64,50,0
10.850917,12.826513,67,45,0
12.826513,13.215366,63,32,0
13.215366,13.985656,62,34,0
12.826513,13.985656,66,38,0
13.985656,14.390241,66,46,0
14.390241,15.185997,67,46,0
15.185997,15.577386,55,45,0
15.577386,16.367977,52,49,0
16.367977,16.76718,64,41,0
16.76718,17.565582,60,40,0
17.956972,19.205807,36,28,0
17.565582,19.205807,48,28,0
19.205807,20.118738,35,24,0
19.205807,20.118738,47,28,0
20.612846,21.818914,43,28,0
20.612846,21.818914,59,34,0
21.818914,22.619982,45,39,0
22.619982,23.031506,46,43,0
20.612846,23.031506,52,28,0
23.031506,24.250298,47,49,0
24.250298,25.063772,48,24,0
24.250298,25.063772,55,29,0
25.063772,25.258198,47,32,0
25.258198,25.452625,45,35,0
25.452625,26.252377,43,39,0
26.252377,26.669624,44,37,0
25.452625,26.669624,59,39,0
26.669624,27.476076,45,39,0
27.476076,27.891876,46,34,0
25.452625,27.891876,52,39,0
27.891876,29.241926,47,38,0
27.891876,29.241926,35,29,0
29.241926,29.744862,40,18,0
29.241926,29.744862,52,22,0
30.247795,30.346285,47,30,0
30.247795,30.346285,35,25,0
30.641754,31.43488,47,34,0
30.641754,31.43488,35,28,0
31.43488,31.532728,52,30,0
31.43488,31.532728,40,25,0
31.82627,32.616783,52,34,0
31.82627,32.616783,40,28,0
32.616783,32.714314,59,30,0
32.616783,32.714314,47,25,0
33.0069,33.797413,59,34,0
33.0069,33.797413,47,28,0
33.797413,33.89526,64,30,0
33.797413,33.89526,52,25,0
34.188805,34.99576,64,34,0
34.188805,34.99576,52,28,0
34.99576,35.097595,65,65,0
34.99576,35.097595,55,54,0
34.99576,35.097595,59,54,0
34.99576,35.097595,62,54,0
35.403095,36.003895,65,71,0
35.403095,36.003895,55,59,0
35.403095,36.003895,59,59,0
35.403095,36.003895,62,59,0
38.59411,38.691956,35,24,0
38.59411,38.691956,47,29,0
38.9855,39.1851,48,35,0
38.9855,39.1851,36,29,0
39.7839,39.885735,62,71,0
39.7839,39.885735,52,59,0
39.7839,39.885735,56,59,0
39.7839,39.885735,59,59,0
40.191235,40.792034,62,77,0
40.191235,40.792034,52,65,0
40.191235,40.792034,56,65,0
40.191235,40.792034,59,65,0
43.382248,43.480095,32,24,0
43.382248,43.480095,44,29,0
43.77364,43.97324,45,35,0
43.77364,43.97324,33,29,0
44.57204,44.957844,58,50,0
44.983566,46.537586,58,50,0
48.110294,48.458008,64,53,0
48.496643,49.279423,64,62,0
49.279423,49.628258,64,53,0
49.279423,49.628258,58,45,0
49.66702,50.4498,58,50,0
49.66702,50.4498,64,59,0
50.4498,50.799767,64,53,0
50.4498,50.799767,58,45,0
50.83865,51.626568,58,54,0
50.83865,51.626568,64,64,0
51.626568,51.975407,67,59,0
51.626568,51.975407,58,49,0
51.626568,51.975407,61,49,0
51.626568,51.975407,64,49,0
52.014164,52.78936,67,69,0
52.78936,53.179478,66,63,0
53.179478,53.95467,65,77,0
52.014164,53.95467,58,58,0
52.014164,53.95467,61,58,0
52.014164,53.95467,64,58,0
53.95467,54.310402,58,63,0
53.95467,54.310402,66,75,0
53.95467,54.310402,64,63,0
53.95467,54.310402,61,63,0
54.349926,54.443794,59,40,0
54.349926,54.443794,62,40,0
54.349926,54.443794,66,48,0
54.537663,54.631527,66,40,0
54.537663,54.631527,62,33,0
54.537663,54.631527,59,33,0
54.725395,54.819263,66,40,0
54.725395,54.819263,62,33,0
54.725395,54.819263,59,33,0
54.91313,55.006996,66,40,0
54.91313,55.006996,62,33,0
54.91313,55.006996,59,33,0
55.100864,55.194733,66,40,0
55.100864,55.194733,62,33,0
55.100864,55.194733,59,33,0
55.2886,55.387413,66,40,0
55.2886,55.387413,62,33,0
55.2886,55.387413,59,33,0
55.48623,55.580093,50,40,0
55.48623,55.580093,54,40,0
55.48623,55.580093,59,48,0
55.67396,55.76783,59,41,0
55.67396,55.76783,54,34,0
55.67396,55.76783,50,34,0
55.8617,55.955563,59,41,0
55.8617,55.955563,54,34,0
55.8617,55.955563,50,34,0
56.04943,56.1433,59,41,0
56.04943,56.1433,54,34,0
56.04943,56.1433,50,34,0
56.237167,56.33103,59,41,0
56.237167,56.33103,54,34,0
56.237167,56.33103,50,34,0
56.4249,56.52118,59,41,0
56.4249,56.52118,54,34,0
56.4249,56.52118,50,34,0
56.617455,56.707924,51,37,0
56.617455,56.707924,54,37,0
56.617455,56.707924,57,44,0
56.798397,56.888866,57,34,0
56.798397,56.888866,54,28,0
56.798397,56.888866,51,28,0
56.979336,57.07262,52,37,0
56.979336,57.07262,55,44,0
57.165905,57.259186,52,30,0
57.165905,57.259186,55,37,0
57.35247,57.445755,52,30,0
57.35247,57.445755,55,37,0
57.53904,57.63232,52,30,0
57.53904,57.63232,55,37,0
57.725605,57.816624,52,37,0
57.725605,57.816624,55,37,0
57.725605,57.816624,59,45,0
57.907642,57.998665,52,30,0
57.907642,57.998665,55,30,0
57.907642,57.998665,59,37,0
58.089684,58.18297,54,37,0
58.089684,58.18297,57,44,0
58.27625,58.369534,57,38,0
58.27625,58.369534,54,31,0
58.46282,58.553837,57,38,0
58.46282,58.553837,54,31,0
58.644855,58.735874,57,38,0
58.644855,58.735874,54,31,0
58.826897,58.91989,54,37,0
58.826897,58.91989,57,37,0
58.826897,58.91989,60,44,0
59.012882,59.105877,60,37,0
59.012882,59.105877,57,30,0
59.012882,59.105877,54,30,0
59.19887,59.291866,55,37,0
59.19887,59.291866,59,44,0
59.38486,59.477856,59,39,0
59.38486,59.477856,55,33,0
59.57085,59.661594,59,39,0
59.57085,59.661594,55,33,0
59.75234,59.843082,59,39,0
59.75234,59.843082,55,33,0
59.933826,60.02625,59,49,0
59.933826,60.02625,56,41,0
60.11867,60.21109,62,44,0
60.11867,60.21109,59,37,0
60.11867,60.21109,56,37,0
60.303513,60.395935,61,47,0
60.303513,60.395935,59,39,0
60.303513,60.395935,56,39,0
60.488358,60.580776,61,41,0
60.488358,60.580776,59,35,0
60.488358,60.580776,56,35,0
60.6732,60.76766,61,42,0
60.6732,60.76766,59,36,0
60.6732,60.76766,56,36,0
60.862118,60.956573,61,42,0
60.862118,60.956573,59,36,0
60.862118,60.956573,56,36,0
61.051033,61.14261,61,34,0
61.234184,61.325756,61,32,0
61.41733,61.508907,61,32,0
61.600483,61.691856,61,32,0
61.783154,61.87445,61,32,0
61.965744,62.05704,61,32,0
62.14834,62.239433,61,40,0
62.330452,62.421474,61,45,0
62.512493,62.60351,61,49,0
62.69453,62.785553,61,52,0
62.87657,62.96759,61,56,0
63.05975,63.153324,61,58,0
63.246326,63.337345,64,71,0
63.246326,63.337345,54,60,0
63.246326,63.337345,58,60,0
63.246326,63.337345,61,60,0
63.428364,63.519382,54,49,0
63.428364,63.519382,64,59,0
63.428364,63.519382,61,49,0
63.428364,63.519382,58,49,0
63.6104,63.701424,54,49,0
63.6104,63.701424,64,59,0
63.6104,63.701424,61,49,0
63.6104,63.701424,58,49,0
63.792442,63.88346,54,49,0
63.792442,63.88346,64,59,0
63.792442,63.88346,61,49,0
63.792442,63.88346,58,49,0
63.97448,64.0655,54,49,0
63.97448,64.0655,64,59,0
63.97448,64.0655,61,49,0
63.97448,64.0655,58,49,0
64.15652,64.25158,54,49,0
64.15652,64.25158,64,59,0
64.15652,64.25158,61,49,0
64.15652,64.25158,58,49,0
64.346634,64.43984,54,53,0
64.346634,64.43984,64,64,0
64.346634,64.43984,61,53,0
64.346634,64.43984,58,53,0
64.533615,64.62813,64,60,0
64.533615,64.62813,54,51,0
64.533615,64.62813,58,51,0
64.533615,64.62813,61,51,0
64.72339,64.81942,64,57,0
64.72339,64.81942,54,47,0
64.72339,64.81942,58,47,0
64.72339,64.81942,61,47,0
64.91622,65.01382,64,52,0
64.91622,65.01382,54,44,0
64.91622,65.01382,58,44,0
64.91622,65.01382,61,44,0
65.1122,65.21141,64,47,0
65.1122,65.21141,54,39,0
65.1122,65.21141,58,39,0
65.1122,65.21141,61,39,0
65.311356,65.420685,64,46,0
65.311356,65.420685,54,39,0
65.311356,65.420685,58,39,0
65.311356,65.420685,61,39,0
65.530014,65.629486,47,40,0
65.629486,65.72896,62,34,0
65.72896,65.82842,54,37,0
65.82842,65.927895,62,34,0
65.927895,66.02737,49,40,0
66.02737,66.12683,64,34,0
66.12683,66.2263,54,37,0
66.2263,66.325775,64,34,0
66.325775,66.42524,50,40,0
66.42524,66.52471,66,35,0
66.52471,66.62418,54,38,0
66.62418,66.72365,66,35,0
66.72365,66.82312,47,40,0
66.82312,66.92259,62,34,0
66.92259,67.02206,54,37,0
67.02206,67.12153,62,34,0
67.12153,67.221,49,40,0
67.221,67.320465,64,34,0
67.320465,67.41994,54,37,0
67.41994,67.51941,64,34,0
67.51941,67.61887,50,40,0
67.61887,67.718346,66,35,0
67.718346,67.81782,54,38,0
67.81782,67.91728,66,35,0
67.91728,68.016754,47,40,0
68.016754,68.11623,62,34,0
68.11623,68.21569,54,37,0
68.21569,68.31516,62,34,0
68.31516,68.414635,49,40,0
68.414635,68.5141,64,34,0
68.5141,68.61357,54,37,0
68.61357,68.71304,64,34,0
68.71304,68.81251,50,40,0
68.81251,68.91198,66,35,0
68.91198,69.01145,54,38,0
69.01145,69.110916,66,35,0
69.110916,69.21039,47,40,0
69.21039,69.30986,62,34,0
69.30986,69.409325,54,37,0
69.409325,69.5088,62,34,0
69.5088,69.60827,49,40,0
69.60827,69.70773,64,34,0
69.70773,69.807205,54,37,0
69.807205,69.90668,64,34,0
69.90668,70.00614,50,40,0
70.00614,70.10561,66,35,0
70.10561,70.205086,54,38,0
70.205086,70.30455,66,35,0
70.30455,70.40402,52,40,0
70.40402,70.503494,62,34,0
70.503494,70.60296,59,37,0
70.60296,70.70243,62,34,0
70.70243,70.8019,53,49,0
70.8019,70.90137,62,34,0
70.90137,71.00184,59,42,0
71.00184,71.10231,62,34,0
71.10231,71.202774,54,48,0
71.202774,71.303246,62,35,0
71.303246,71.405426,59,38,0
71.405426,71.50761,62,38,0
71.50761,71.60707,54,51,0
71.60707,71.70654,62,39,0
71.70654,71.806015,59,42,0
71.806015,71.90548,62,39,0
71.90548,72.00495,54,48,0
72.00495,72.10442,62,38,0
72.10442,72.20389,59,39,0
72.20389,72.30336,62,38,0
72.30336,72.40485,54,45,0
72.40485,72.50634,64,41,0
72.50634,72.612495,61,45,0
72.612495,72.71865,64,40,0
72.71865,72.8165,47,40,0
72.8165,72.914345,62,36,0
72.914345,73.016525,54,41,0
73.016525,73.118706,62,40,0
73.118706,73.21785,49,50,0
73.21785,73.316986,64,41,0
73.316986,73.41613,54,44,0
73.41613,73.51527,64,39,0
73.51527,73.61441,50,45,0
73.61441,73.71355,66,38,0
73.71355,73.81269,54,40,0
73.81269,73.911835,66,36,0
73.911835,74.008415,47,40,0
74.008415,74.105,62,36,0
74.105,74.20415,54,41,0
74.20415,74.30328,62,40,0
74.30328,74.40243,49,50,0
74.40243,74.50157,64,41,0
74.50157,74.60071,54,44,0
74.60071,74.69985,64,39,0
74.69985,74.79899,50,45,0
74.79899,74.89813,66,38,0
74.89813,74.99728,54,40,0
74.99728,75.09641,66,36,0
75.09641,75.19331,47,40,0
75.19331,75.290215,62,36,0
75.290215,75.38935,54,41,0
75.38935,75.488495,62,40,0
75.488495,75.58763,49,50,0
75.58763,75.686775,64,41,0
75.686775,75.78592,54,44,0
75.78592,75.885056,64,39,0
75.885056,75.9842,50,45,0
75.9842,76.083336,66,38,0
76.083336,76.18248,54,40,0
76.18248,76.28162,66,36,0
76.28162,76.37852,47,40,0
76.37852,76.47542,62,36,0
76.47542,76.57489,54,41,0
76.57489,76.674355,62,40,0
76.674355,76.77383,49,50,0
76.77383,76.8733,64,41,0
76.8733,76.97276,54,44,0
76.97276,77.072235,64,39,0
77.072235,77.17171,50,45,0
77.17171,77.27117,66,38,0
77.27117,77.374054,54,40,0
77.374054,77.47694,66,36,0
77.47694,77.57641,52,40,0
77.57641,77.67587,62,34,0
77.67587,77.775345,59,37,0
77.775345,77.87482,62,34,0
77.87482,77.97528,53,49,0
77.97528,78.07575,62,34,0
78.07575,78.176216,59,42,0
78.176216,78.27669,62,34,0
78.27669,78.37957,54,48,0
78.37957,78.48245,62,35,0
78.48245,78.58533,59,38,0
78.58533,78.68821,62,38,0
78.68821,79.476974,54,53,0
79.485344,79.90777,30,48,0
79.485344,79.90777,42,57,0
79.90777,80.00404,35,79,0
79.90777,80.00404,47,93,0
80.10032,80.1966,37,69,0
80.10032,80.1966,49,81,0
80.29288,80.391045,38,69,0
80.29288,80.391045,50,81,0
80.48921,80.59499,40,72,0
80.48921,80.59499,52,88,0
80.700775,82.289986,42,80,0
80.700775,82.289986,54,94,0
82.289986,83.491585,52,44,0
82.289986,83.491585,40,37,0
83.491585,84.69363,42,36,0
83.491585,84.69363,54,43,0
84.69363,84.7899,35,79,0
84.69363,84.7899,47,93,0
84.88618,84.98245,37,69,0
84.88618,84.98245,49,81,0
85.078735,85.1769,38,69,0
85.078735,85.1769,50,81,0
85.27507,85.38085,40,72,0
85.27507,85.38085,52,88,0
85.48663,87.07584,42,80,0
85.48663,87.07584,54,94,0
87.07584,88.27744,52,44,0
87.07584,88.27744,40,37,0
88.27744,89.46849,54,29,0
88.27744,89.46849,42,24,0
90.67415,91.86384,35,19,0
90.67415,91.86384,47,23,0
93.05352,94.27868,30,19,0
93.05352,94.27868,42,23,0
94.27868,94.673935,47,23,0
94.27868,94.673935,35,19,0
95.46445,95.8597,47,23,0
95.46445,95.8597,35,19,0
96.65022,97.04548,47,23,0
96.65022,97.04548,35,19,0
100.99805,101.09852,66,25,0
100.99805,101.09852,69,30,0
101.39992,101.78015,69,34,0
101.39992,101.78015,66,28,0
102.16038,102.25728,66,26,0
102.16038,102.25728,69,31,0
102.555786,102.93844,67,34,0
102.555786,102.93844,64,28,0
103.3211,103.70375,64,26,0
103.3211,103.70375,67,31,0
103.70375,104.0864,65,34,0
103.70375,104.0864,62,28,0
104.469055,104.661606,62,25,0
104.469055,104.661606,65,30,0
104.86188,105.05381,64,34,0
104.86188,105.05381,60,28,0
105.05381,105.14978,64,30,0
105.24575,105.34172,64,30,0
105.43769,105.53366,64,30,0
105.62963,105.72653,64,39,0
105.823425,105.92356,64,37,0
106.0237,106.11875,64,40,0
106.213806,106.30887,64,36,0
106.0237,106.40392,60,40,0
106.0237,106.40392,57,33,0
106.40392,106.49898,64,37,0
106.59404,106.689095,64,38,0
106.78415,106.88105,57,34,0
106.78415,106.88105,60,41,0
106.78415,106.88105,64,39,0
106.97795,107.07876,64,40,0
107.179565,107.27462,65,47,0
107.369675,107.46474,65,42,0
107.179565,107.55979,59,47,0
107.179565,107.55979,56,38,0
107.55979,107.65485,65,43,0
107.7499,107.84496,65,45,0
107.94002,108.03692,65,52,0
107.94002,108.03692,59,47,0
107.94002,108.03692,56,47,0
108.13382,108.23496,65,50,0
108.33611,108.430565,65,53,0
108.525024,108.619484,65,49,0
108.33611,108.71394,58,53,0
108.33611,108.71394,56,45,0
108.71394,108.8084,65,49,0
108.90286,108.99732,65,50,0
109.091774,109.188675,56,44,0
109.091774,109.188675,58,53,0
109.091774,109.188675,65,51,0
109.285576,109.38638,65,52,0
109.48719,109.58135,63,67,0
109.48719,109.58135,58,56,0
109.48719,109.58135,55,56,0
109.675514,109.76968,55,51,0
109.675514,109.76968,58,51,0
109.675514,109.76968,63,61,0
109.86384,109.958,55,51,0
109.86384,109.958,58,51,0
109.86384,109.958,63,61,0
110.05216,110.146324,55,51,0
110.05216,110.146324,58,51,0
110.05216,110.146324,63,61,0
110.240486,110.33615,55,51,0
110.240486,110.33615,58,51,0
110.240486,110.33615,63,61,0
110.43181,110.53128,55,51,0
110.43181,110.53128,58,51,0
110.43181,110.53128,63,61,0
110.63075,110.724915,58,56,0
110.63075,110.724915,54,56,0
110.81908,110.91324,54,51,0
110.81908,110.91324,58,51,0
111.0074,111.10156,54,51,0
111.0074,111.10156,58,51,0
111.195724,111.28989,54,51,0
111.195724,111.28989,58,51,0
111.38405,111.47971,54,51,0
111.38405,111.47971,58,51,0
111.57537,111.67484,54,52,0
111.57537,111.67484,58,52,0
111.774315,111.86848,54,57,0
111.774315,111.86848,51,47,0
111.96264,112.0568,51,43,0
111.96264,112.0568,54,52,0
112.15096,112.245125,51,44,0
112.15096,112.245125,54,52,0
112.33929,112.43345,51,44,0
112.33929,112.43345,54,52,0
112.52761,112.62327,51,44,0
112.52761,112.62327,54,53,0
112.71893,112.818405,51,44,0
112.71893,112.818405,54,53,0
112.91788,113.01204,51,58,0
112.922585,113.01675,48,49,0
113.1062,113.20036,48,45,0
113.1062,113.20036,51,53,0
113.294525,113.38869,48,45,0
113.294525,113.38869,51,53,0
113.48285,113.57701,48,45,0
113.48285,113.57701,51,54,0
113.67117,113.76683,48,45,0
113.67117,113.76683,51,54,0
113.862495,113.96197,48,46,0
113.862495,113.96197,51,54,0
114.06143,114.155594,48,59,0
114.06143,114.155594,45,50,0
114.249756,114.34392,45,46,0
114.249756,114.34392,48,54,0
114.43808,114.53224,45,46,0
114.43808,114.53224,48,55,0
114.6264,114.720566,45,46,0
114.6264,114.720566,48,55,0
114.81473,114.91039,45,46,0
114.81473,114.91039,48,55,0
115.00606,115.10553,45,46,0
115.00606,115.10553,48,55,0
115.204994,115.29916,48,61,0
115.204994,115.29916,45,61,0
115.204994,115.29916,42,61,0
115.39332,115.48748,45,56,0
115.39332,115.48748,48,56,0
115.39332,115.48748,42,56,0
115.58164,115.675804,45,56,0
115.58164,115.675804,48,56,0
115.58164,115.675804,42,56,0
115.769966,115.86413,45,56,0
115.769966,115.86413,48,56,0
115.769966,115.86413,42,56,0
115.95829,116.053955,45,56,0
115.95829,116.053955,48,56,0
115.95829,116.053955,42,56,0
116.14962,116.24909,45,57,0
116.14962,116.24909,48,57,0
116.14962,116.24909,42,57,0
116.34856,116.44272,48,62,0
116.34856,116.44272,39,52,0
116.34856,116.44272,42,52,0
116.34856,116.44272,45,52,0
116.53688,116.63104,45,48,0
116.53688,116.63104,39,48,0
116.53688,116.63104,42,48,0
116.53688,116.63104,48,57,0
116.725204,116.81937,45,48,0
116.725204,116.81937,39,48,0
116.725204,116.81937,42,48,0
116.725204,116.81937,48,57,0
116.91353,117.00769,45,48,0
116.91353,117.00769,39,48,0
116.91353,117.00769,42,48,0
116.91353,117.00769,48,57,0
117.10185,117.19752,45,49,0
117.10185,117.19752,39,49,0
117.10185,117.19752,42,49,0
117.10185,117.19752,48,58,0
117.29318,117.39265,45,49,0
117.29318,117.39265,39,49,0
117.29318,117.39265,42,49,0
117.29318,117.39265,48,58,0
117.49212,117.58628,48,64,0
117.49212,117.58628,38,54,0
117.49212,117.58628,42,54,0
117.49212,117.58628,45,54,0
117.68044,117.774605,45,49,0
117.68044,117.774605,38,49,0
117.68044,117.774605,42,49,0
117.68044,117.774605,48,58,0
117.86877,117.96293,45,49,0
117.86877,117.96293,38,49,0
117.86877,117.96293,42,49,0
117.86877,117.96293,48,58,0
118.05709,118.15125,45,49,0
118.05709,118.15125,38,49,0
118.05709,118.15125,42,49,0
118.05709,118.15125,48,58,0
118.245415,118.34108,45,49,0
118.245415,118.34108,38,49,0
118.245415,118.34108,42,49,0
118.245415,118.34108,48,58,0
118.436745,118.53621,45,49,0
118.436745,118.53621,38,49,0
118.436745,118.53621,42,49,0
118.436745,118.53621,48,58,0
118.63568,118.73515,31,57,0
118.63568,118.73515,43,73,0
118.83462,118.93059,43,64,0
118.83462,118.93059,31,54,0
119.02656,119.12253,31,54,0
119.02656,119.12253,43,69,0
119.951195,120.04368,31,22,0
119.951195,120.04368,43,31,0
120.136154,120.22864,43,35,0
120.136154,120.22864,31,24,0
121.0482,121.13983,31,22,0
121.0482,121.13983,43,31,0
121.23147,121.3231,43,35,0
121.23147,121.3231,31,24,0
122.13811,122.22869,43,31,0
122.13811,122.22869,31,26,0
122.49982,122.59001,43,31,0
122.49982,122.59001,31,26,0
122.85989,122.949554,43,31,0
122.85989,122.949554,31,26,0
123.21805,123.30736,31,28,0
123.21805,123.30736,43,34,0
123.574524,123.66338,33,32,0
123.574524,123.66338,45,38,0
123.92936,124.017746,35,33,0
123.92936,124.017746,47,39,0
124.282364,124.37044,36,33,0
124.282364,124.37044,48,39,0
124.63468,124.72226,49,40,0
124.63468,124.72226,37,34,0
124.984955,125.07252,50,41,0
124.984955,125.07252,38,34,0
125.33472,125.42208,51,42,0
125.33472,125.42208,39,35,0
125.68547,125.773674,52,46,0
125.68547,125.773674,40,39,0
126.03953,126.128586,53,48,0
126.03953,126.128586,41,40,0
126.39702,126.48667,42,29,0
126.39702,126.48667,54,35,0
126.75948,126.85106,43,25,0
126.75948,126.85106,55,30,0
127.13396,127.239,43,22,0
127.13396,127.239,55,26,0
128.55197,129.33945,65,26,0
129.34773,129.7456,65,26,0
129.34773,129.7456,59,26,0
129.7456,130.13072,64,33,0
129.7456,130.13072,60,33,0
130.13072,130.51958,60,26,0
130.51958,130.91353,61,26,0
130.91353,131.30238,62,33,0
131.30238,131.69377,57,26,0
131.69377,132.07701,58,26,0
132.08516,132.46782,59,32,0
132.46782,132.85541,55,26,0
132.85541,133.24301,62,26,0
133.24301,133.62935,61,31,0
133.62935,133.99272,60,26,0
134.01695,134.40456,58,26,0
134.40456,134.78358,57,43,0
134.01695,134.78358,60,26,0
134.78358,135.16745,53,48,0
134.78358,135.16745,65,48,0
135.16745,135.5538,54,42,0
135.16745,135.5538,62,42,0
135.5538,135.93646,55,47,0
135.5538,135.93646,60,47,0
135.93646,136.31114,50,47,0
135.93646,136.31114,58,47,0
136.3191,136.70177,53,43,0
136.70177,137.08199,52,41,0
136.3191,137.08199,58,43,0
137.08199,137.46465,67,51,0
137.46465,137.84729,48,44,0
137.84729,138.22513,53,49,0
137.46465,138.22513,58,44,0
138.22513,138.60657,57,44,0
138.22513,138.60657,53,44,0
138.60657,139.3623,45,50,0
139.3623,139.74252,50,56,0
139.74252,140.12396,46,48,0
140.12396,140.50299,45,58,0
140.50299,140.87648,44,50,0
140.88443,141.64134,44,58,0
142.02156,142.40422,44,50,0
141.64134,142.40422,52,57,0
142.40422,142.78566,45,55,0
143.16953,143.5534,45,51,0
142.78566,143.5534,52,59,0
143.5534,143.93005,47,56,0
144.3115,144.69293,47,57,0
143.93005,144.69293,52,62,0
144.69293,145.06958,48,61,0
145.44861,145.82883,48,59,0
145.06958,145.82883,52,68,0
145.82883,146.2008,51,64,0
146.57628,146.95293,51,63,0
146.2008,146.95293,59,68,0
146.95293,147.32376,52,67,0
147.69922,148.07706,52,63,0
147.32376,148.07706,60,73,0
148.07706,148.4502,54,68,0
148.8245,149.19997,54,70,0
148.4502,149.19997,63,76,0
149.19997,149.57195,55,74,0
149.94392,150.3159,55,75,0
149.57195,150.3159,64,78,0
150.3159,150.68445,57,77,0
151.05414,151.42381,57,81,0
150.68445,151.42381,66,85,0
151.42381,151.79012,58,83,0
152.15753,152.53183,58,88,0
151.79012,152.53183,67,90,0
152.90039,153.26894,64,85,0
153.26894,153.63748,67,85,0
152.53183,153.63748,59,99,0
153.63748,154.00491,71,96,0
154.00491,154.36899,76,85,0
154.36899,154.73961,79,85,0
155.11635,155.20877,79,86,0
155.20877,155.3012,78,79,0
155.3012,155.39362,76,79,0
155.39362,155.49408,75,74,0
155.49408,155.67892,76,85,0
156.26033,156.4586,79,50,0
156.4586,156.65689,78,41,0
156.65689,156.85518,76,45,0
156.85518,157.05345,75,42,0
157.05345,157.45001,76,50,0
157.84657,158.24315,79,41,0
158.24315,158.63971,78,46,0
158.63971,159.03627,76,39,0
159.03627,159.43283,75,39,0
159.43283,159.82939,76,45,0
160.62251,161.41565,79,40,0
161.41565,162.20877,78,37,0
162.20877,162.60533,76,41,0
163.00475,163.8005,67,51,0
163.8005,163.99557,66,59,0
163.99557,164.18878,64,42,0
164.19717,164.59375,64,50,0
164.99031,165.38313,67,39,0
165.38313,165.57756,66,39,0
165.57756,165.76389,64,39,0
165.77199,165.9664,64,39,0
166.35028,166.54597,79,55,0
166.54597,166.74167,78,61,0
166.74167,166.93423,76,56,0
167.12804,167.32373,79,58,0
167.32373,167.51628,78,65,0
167.51628,167.70883,76,61,0
167.90016,168.09459,55,71,0
168.09459,168.30191,54,77,0
168.30191,168.486,52,74,0
168.67006,168.78798,52,70,0
168.67006,168.78798,40,70,0
169.14175,169.94283,52,72,0
169.14175,169.94283,40,61,0
169.94283,170.04535,40,53,0
169.94283,170.04535,52,63,0
170.35294,170.5532,50,72,0
170.35294,170.5532,38,61,0
171.154,171.55455,62,29,0
171.55455,172.15535,62,36,0
171.55455,172.15535,60,30,0
172.15535,172.3556,59,26,0
172.15535,172.3556,62,31,0
172.3556,172.66426,60,28,0
172.3556,172.66426,57,24,0
172.76714,173.06754,59,36,0
172.76714,173.06754,55,30,0
173.5682,173.67003,43,53,0
173.5682,173.67003,55,63,0
173.97554,174.7766,55,72,0
173.97554,174.7766,43,61,0
174.7766,174.88019,31,53,0
174.7766,174.88019,43,63,0
175.19096,175.39056,42,72,0
175.19096,175.39056,30,61,0
175.98936,176.38858,66,29,0
176.38858,176.98738,66,36,0
176.38858,176.98738,64,30,0
176.98738,177.18698,62,26,0
176.98738,177.18698,66,31,0
177.18698,177.49042,64,28,0
177.18698,177.49042,61,24,0
177.59157,177.89096,62,36,0
177.59157,177.89096,59,30,0
178.78009,179.55408,62,38,0
178.78009,179.9546,59,38,0
179.9546,180.75568,57,39,0
179.55408,180.75568,64,50,0
178.78009,180.75568,67,45,0
180.75568,181.14453,63,32,0
181.14453,181.91483,62,34,0
180.75568,181.91483,66,38,0
181.91483,182.31941,66,46,0
182.31941,183.11516,67,46,0
183.11516,183.50655,55,45,0
183.50655,184.29715,52,49,0
184.29715,184.69635,64,41,0
184.69635,185.49475,60,40,0
185.88614,187.22244,36,28,0
185.49475,187.22244,48,28,0
187.22244,188.44554,35,24,0
187.22244,188.44554,47,28,0
188.97412,190.18018,43,28,0
188.97412,190.18018,59,34,0
190.18018,190.98125,45,39,0
190.98125,191.39278,46,43,0
188.97412,191.39278,52,28,0
191.39278,192.61157,47,49,0
192.61157,193.42503,48,24,0
192.61157,193.42503,55,29,0
193.42503,193.61946,47,32,0
193.61946,193.81389,45,35,0
193.81389,194.61365,43,39,0
194.61365,195.0309,44,37,0
193.81389,195.0309,59,39,0
195.0309,195.83734,45,39,0
195.83734,196.25314,46,34,0
193.81389,196.25314,52,39,0
196.25314,197.58827,47,38,0
196.25314,197.58827,35,29,0
197.58827,198.0891,40,18,0
197.58827,198.0891,52,22,0
198.58994,198.68843,43,30,0
198.58994,198.68843,31,25,0
198.9839,199.77702,43,34,0
198.9839,199.77702,31,28,0
199.77702,199.87486,48,30,0
199.77702,199.87486,36,25,0
200.16841,200.95892,48,34,0
200.16841,200.95892,36,28,0
200.95892,201.05646,55,30,0
200.95892,201.05646,43,25,0
201.34904,202.13956,55,34,0
201.34904,202.13956,43,28,0
202.13956,202.2374,60,30,0
202.13956,202.2374,48,25,0
202.53094,203.34073,60,34,0
202.53094,203.34073,48,28,0
203.34073,203.44257,67,65,0
203.34073,203.44257,59,54,0
203.34073,203.44257,62,54,0
203.34073,203.44257,65,54,0
203.74806,204.34886,67,71,0
203.74806,204.34886,59,59,0
203.74806,204.34886,62,59,0
203.74806,204.34886,65,59,0
206.93907,207.03693,35,24,0
206.93907,207.03693,47,29,0
207.33046,207.53006,48,35,0
207.33046,207.53006,36,29,0
208.12888,208.2307,62,71,0
208.12888,208.2307,52,59,0
208.12888,208.2307,56,59,0
208.12888,208.2307,59,59,0
208.5362,209.13701,62,77,0
208.5362,209.13701,52,65,0
208.5362,209.13701,56,65,0
208.5362,209.13701,59,65,0
211.72722,211.82506,32,24,0
211.72722,211.82506,44,29,0
212.1186,212.3182,45,35,0
212.1186,212.3182,33,29,0
212.917,213.13647,57,37,0
212.917,213.13647,48,31,0
212.917,213.13647,41,31,0
213.35593,215.31052,57,37,0
213.35593,215.31052,48,31,0
213.35593,215.31052,41,31,0
215.31876,215.7153,48,36,0
215.31876,215.7153,41,31,0
215.7153,216.50064,48,36,0
215.7153,216.50064,41,31,0
216.50064,216.84836,41,34,0
216.50064,216.84836,48,40,0
216.887,217.66977,48,46,0
216.887,217.66977,41,39,0
217.66977,218.01862,57,53,0
217.66977,218.01862,48,45,0
217.66977,218.01862,42,45,0
218.05737,218.84015,48,50,0
218.05737,218.84015,57,59,0
218.05737,218.84015,42,50,0
218.84015,219.19011,57,53,0
218.84015,219.19011,48,45,0
218.84015,219.19011,42,45,0
219.229,220.01692,48,54,0
219.229,220.01692,57,64,0
219.229,220.01692,42,54,0
220.01692,220.36575,57,59,0
220.01692,220.36575,48,49,0
220.01692,220.36575,42,49,0
220.40451,222.34502,57,58,0
220.40451,222.34502,47,58,0
220.40451,222.34502,42,58,0
222.34502,222.70074,42,63,0
222.34502,222.70074,47,63,0
222.34502,222.70074,57,75,0
222.74028,222.83414,43,40,0
222.74028,222.83414,47,40,0
222.74028,222.83414,55,48,0
222.92801,223.02188,59,40,0
222.92801,223.02188,55,33,0
223.11574,223.20961,59,40,0
223.11574,223.20961,55,33,0
223.30348,223.39735,59,40,0
223.30348,223.39735,55,33,0
223.49121,223.58508,59,40,0
223.49121,223.58508,55,33,0
223.67896,223.77776,59,40,0
223.67896,223.77776,55,33,0
223.87657,223.97044,56,40,0
223.87657,223.97044,59,48,0
224.06432,224.15817,59,41,0
224.06432,224.15817,56,34,0
224.25204,224.34592,59,41,0
224.25204,224.34592,56,34,0
224.43977,224.53365,59,41,0
224.43977,224.53365,56,34,0
224.62752,224.72139,59,41,0
224.62752,224.72139,56,34,0
224.81525,224.91153,59,41,0
224.81525,224.91153,56,34,0
225.0078,225.09828,56,37,0
225.0078,225.09828,59,37,0
225.0078,225.09828,62,44,0
225.18498,225.27545,62,34,0
225.18875,225.27922,59,28,0
225.18875,225.27922,56,28,0
225.36969,225.46297,57,37,0
225.36969,225.46297,60,44,0
225.55626,225.64954,57,30,0
225.55626,225.64954,60,37,0
225.74281,225.8361,57,30,0
225.74281,225.8361,60,37,0
225.92938,226.02267,57,30,0
225.92938,226.02267,60,37,0
226.11595,226.20697,57,37,0
226.11595,226.20697,60,37,0
226.11595,226.20697,64,45,0
226.29799,226.389,57,30,0
226.29799,226.389,60,30,0
226.29799,226.389,64,37,0
226.48003,226.57332,59,37,0
226.48003,226.57332,62,44,0
226.6666,226.75989,62,38,0
226.6666,226.75989,59,31,0
226.85316,226.94418,62,38,0
226.85316,226.94418,59,31,0
227.0352,227.12622,62,38,0
227.0352,227.12622,59,31,0
227.21724,227.31024,59,37,0
227.21724,227.31024,62,37,0
227.21724,227.31024,64,44,0
227.40323,227.49623,64,37,0
227.40323,227.49623,62,30,0
227.40323,227.49623,59,30,0
227.58922,227.68222,60,37,0
227.58922,227.68222,64,44,0
227.7752,227.86821,64,39,0
227.7752,227.86821,60,33,0
227.9612,228.05194,64,39,0
227.9612,228.05194,60,33,0
228.14268,228.23343,64,39,0
228.14268,228.23343,60,33,0
228.32417,228.4166,64,49,0
228.32417,228.4166,60,41,0
228.50902,228.60144,64,44,0
228.50902,228.60144,61,37,0
228.69386,228.78629,64,47,0
228.69386,228.78629,61,39,0
228.87871,228.97113,64,41,0
228.87871,228.97113,61,35,0
229.06355,229.158,64,42,0
229.06355,229.158,61,36,0
229.25247,229.34692,64,42,0
229.25247,229.34692,61,36,0
229.44138,229.53296,66,34,0
229.62453,229.71611,66,32,0
229.80768,229.89926,66,32,0
229.99083,230.0822,66,32,0
230.17351,230.2648,66,32,0
230.3561,230.44739,66,32,0
230.53868,230.62978,66,40,0
230.72081,230.81183,66,45,0
230.90285,230.99387,66,49,0
231.08488,231.1759,66,52,0
231.26692,231.35794,66,56,0
231.4501,231.54367,66,58,0
231.63667,231.72769,69,71,0
231.63667,231.72769,59,60,0
231.63667,231.72769,63,60,0
231.63667,231.72769,66,60,0
231.81871,231.90973,59,49,0
231.81871,231.90973,69,59,0
231.81871,231.90973,66,49,0
231.81871,231.90973,63,49,0
232.00075,232.09177,59,49,0
232.00075,232.09177,69,59,0
232.00075,232.09177,66,49,0
232.00075,232.09177,63,49,0
232.18279,232.2738,59,49,0
232.18279,232.2738,69,59,0
232.18279,232.2738,66,49,0
232.18279,232.2738,63,49,0
232.36484,232.45586,59,49,0
232.36484,232.45586,69,59,0
232.36484,232.45586,66,49,0
232.36484,232.45586,63,49,0
232.54688,232.64192,59,49,0
232.54688,232.64192,69,59,0
232.54688,232.64192,66,49,0
232.54688,232.64192,63,49,0
232.73698,232.83018,59,53,0
232.73698,232.83018,69,64,0
232.73698,232.83018,66,53,0
232.73698,232.83018,63,53,0
232.92397,233.01848,69,60,0
232.92397,233.01848,59,51,0
232.92397,233.01848,63,51,0
232.92397,233.01848,66,51,0
233.11374,233.20978,69,57,0
233.11374,233.20978,59,47,0
233.11374,233.20978,63,47,0
233.11374,233.20978,66,47,0
233.30656,233.40416,69,52,0
233.30656,233.40416,59,44,0
233.30656,233.40416,63,44,0
233.30656,233.40416,66,44,0
233.50255,233.60176,69,47,0
233.50255,233.60176,59,39,0
233.50255,233.60176,63,39,0
233.50255,233.60176,66,39,0
233.70178,233.80765,69,46,0
233.70178,233.80765,59,39,0
233.70178,233.80765,63,39,0
233.70178,233.80765,66,39,0
233.9135,234.01297,52,40,0
234.01297,234.11244,67,34,0
234.11244,234.2119,59,37,0
234.2119,234.31137,67,34,0
234.31137,234.41084,54,40,0
234.41084,234.51031,69,34,0
234.51031,234.60979,59,37,0
234.60979,234.70926,69,34,0
234.70926,234.80872,55,40,0
234.80872,234.90819,71,35,0
234.90819,235.00766,59,38,0
235.00766,235.10713,71,35,0
235.10713,235.2066,52,40,0
235.2066,235.30608,67,34,0
235.30608,235.40553,59,37,0
235.40553,235.505,67,34,0
235.505,235.60448,54,40,0
235.60448,235.70395,69,34,0
235.70395,235.80342,59,37,0
235.80342,235.9029,69,34,0
235.9029,236.00235,55,40,0
236.00235,236.10182,71,35,0
236.10182,236.2013,59,38,0
236.2013,236.30077,71,35,0
236.30077,236.40024,52,40,0
236.40024,236.49971,67,34,0
236.49971,236.59917,59,37,0
236.59917,236.69864,67,34,0
236.69864,236.79811,54,40,0
236.79811,236.89758,69,34,0
236.89758,236.99706,59,37,0
236.99706,237.09653,69,34,0
237.09653,237.19598,55,40,0
237.19598,237.29546,71,35,0
237.29546,237.39493,59,38,0
237.39493,237.4944,71,35,0
237.4944,237.59387,52,40,0
237.59387,237.69334,67,34,0
237.69334,237.7928,59,37,0
237.7928,237.89227,67,34,0
237.89227,237.99174,54,40,0
237.99174,238.09122,69,34,0
238.09122,238.19069,59,37,0
238.19069,238.29016,69,34,0
238.29016,238.38962,55,40,0
238.38962,238.48909,71,35,0
238.48909,238.58856,59,38,0
238.58856,238.68803,71,35,0
238.68803,238.7875,57,40,0
238.7875,238.88698,67,34,0
238.88698,238.98643,64,37,0
238.98643,239.0859,67,34,0
239.0859,239.18538,58,49,0
239.18538,239.28485,67,34,0
239.28485,239.38531,64,42,0
239.38531,239.4858,67,34,0
239.4858,239.58626,59,48,0
239.58626,239.68672,67,35,0
239.68672,239.78891,64,38,0
239.78891,239.89108,67,38,0
239.89108,239.99055,59,51,0
239.99055,240.09003,67,39,0
240.09003,240.1895,64,42,0
240.1895,240.28896,67,39,0
240.28896,240.38843,59,48,0
240.38843,240.4879,67,38,0
240.4879,240.58737,64,39,0
240.58737,240.68684,67,38,0
240.68684,240.78833,59,45,0
240.78833,240.88982,69,41,0
240.88982,240.99597,66,45,0
240.99597,241.10213,69,36,0
241.10213,241.19998,40,36,0
241.19998,241.29782,55,31,0
241.29782,241.40001,47,36,0
241.40001,241.50218,55,35,0
241.50218,241.60133,42,45,0
241.60133,241.70047,57,36,0
241.70047,241.7996,47,39,0
241.7996,241.89874,57,34,0
241.89874,241.9979,43,40,0
241.9979,242.09703,59,34,0
242.09703,242.19617,47,36,0
242.19617,242.29532,59,32,0
242.29532,242.3919,40,36,0
242.3919,242.48848,55,31,0
242.48848,242.58763,47,36,0
242.58763,242.68677,55,35,0
242.68677,242.7859,42,45,0
242.7859,242.88506,57,36,0
242.88506,242.98419,47,39,0
242.98419,243.08333,57,34,0
243.08333,243.18246,43,40,0
243.18246,243.28162,59,34,0
243.28162,243.38075,47,36,0
243.38075,243.47989,59,32,0
243.47989,243.5768,40,36,0
243.5768,243.67369,55,31,0
243.67369,243.77283,47,36,0
243.77283,243.87198,55,35,0
243.87198,243.97112,42,45,0
243.97112,244.07025,57,36,0
244.07025,244.1694,47,39,0
244.1694,244.26854,57,34,0
244.26854,244.36768,43,40,0
244.36768,244.46681,59,34,0
244.46681,244.56596,47,36,0
244.56596,244.6651,59,32,0
244.6651,244.762,40,36,0
244.762,244.8589,55,30,0
244.8589,244.95837,47,33,0
244.95837,245.05783,55,30,0
245.05783,245.1573,42,36,0
245.1573,245.25677,57,30,0
245.25677,245.35625,47,33,0
245.35625,245.45572,57,30,0
245.45572,245.55519,43,36,0
245.55519,245.65465,59,31,0
245.65465,245.75754,47,34,0
245.75754,245.86041,59,31,0
245.86041,245.95988,45,40,0
245.95988,246.05936,55,34,0
246.05936,246.15883,52,37,0
246.15883,246.2583,55,34,0
246.2583,246.35876,46,49,0
246.35876,246.45923,55,34,0
246.45923,246.55971,52,42,0
246.55971,246.66017,55,34,0
246.66017,246.76305,47,48,0
246.76305,246.86594,55,35,0
246.86594,246.96881,52,38,0
246.96881,247.07169,55,38,0
247.07169,247.86046,47,53,0
247.86884,248.29124,35,57,0
248.29124,248.38753,40,79,0
248.4838,248.58008,42,69,0
248.4838,248.58008,54,81,0
248.67636,248.77452,43,69,0
248.67636,248.77452,55,81,0
248.8727,248.97847,45,72,0
248.8727,248.97847,57,88,0
249.08426,250.67346,47,80,0
249.08426,250.67346,59,94,0
250.67346,251.87506,57,44,0
250.67346,251.87506,45,37,0
251.87506,253.0771,47,36,0
251.87506,253.0771,59,43,0
253.0771,253.17339,28,79,0
253.0771,253.17339,40,93,0
253.26965,253.36594,30,69,0
253.26965,253.36594,42,81,0
253.46222,253.56038,31,69,0
253.46222,253.56038,43,81,0
253.65855,253.76433,33,72,0
253.65855,253.76433,45,88,0
253.87012,255.45932,35,80,0
253.87012,255.45932,47,94,0
255.45932,256.66092,45,44,0
255.45932,256.66092,33,37,0
256.66092,257.85196,47,29,0
256.66092,257.85196,35,24,0
259.05762,260.2473,40,19,0
259.05762,260.2473,47,23,0
261.437,262.66217,35,19,0
261.437,262.66217,47,23,0
262.66217,263.0574,40,23,0
263.85727,265.04694,47,17,0
263.85727,265.04694,59,20,0
266.2446,267.43427,52,17,0
266.2446,267.43427,59,20,0
268.62396,269.84912,47,17,0
268.62396,269.84912,59,20,0
269.84912,270.2444,52,20,0
271.04422,272.23392,71,20,0
273.02704,273.80475,72,29,0
273.80475,274.1936,71,38,0
274.1936,274.58627,66,19,0
274.1936,274.58627,69,24,0
274.58627,275.18707,67,30,0
274.58627,275.18707,64,25,0
275.18707,275.38733,66,22,0
275.18707,275.38733,69,26,0
275.38733,275.69598,67,23,0
275.79886,276.09924,69,30,0
275.79886,276.09924,66,25,0
275.79886,276.09924,62,25,0
276.5999,276.97296,74,24,0
276.99258,277.60526,74,30,0
276.99258,277.60526,72,25,0
277.60526,277.80948,71,22,0
277.60526,277.80948,74,26,0
277.80948,278.1257,72,23,0
277.80948,278.1257,69,20,0
278.2311,278.55508,71,30,0
278.2311,278.55508,67,25,0
279.09503,279.52554,79,21,0
279.54822,280.2953,79,27,0
280.2953,280.57443,78,23,0
280.57443,281.05847,76,20,0
281.21982,281.7706,75,27,0
283.08127,284.28732,52,28,0
283.08127,284.28732,43,28,0
283.08127,284.28732,59,34,0
284.28732,285.0884,45,35,0
285.0884,285.4999,46,43,0
285.4999,286.71872,47,49,0
286.71872,287.5322,48,24,0
286.71872,287.5322,55,29,0
287.5322,287.72662,47,36,0
287.5322,287.72662,35,31,0
287.72662,287.92105,45,40,0
287.72662,287.92105,33,33,0
287.92105,288.7208,43,44,0
287.92105,288.7208,31,37,0
288.7208,289.20676,44,37,0
288.7208,289.20676,32,31,0
289.20676,290.11603,45,31,0
289.20676,290.11603,33,26,0
290.11603,290.60004,46,26,0
290.11603,290.60004,34,22,0
290.60004,292.38705,47,28,0
290.60004,292.38705,35,22,0
292.38705,292.933,40,14,0
