start_time,end_time,note_value,velocity,instrument_program_number
0.0,0.4909455,72,82,0
0.0,0.4909455,67,69,0
0.0,0.4909455,63,69,0
0.57276976,0.654594,67,70,0
0.654594,0.8933205,75,78,0
0.8933205,0.972896,72,70,0
0.972896,1.2116225,79,79,0
1.2116225,1.291198,75,70,0
1.291198,1.5299245,84,79,0
1.5299245,1.6183628,79,70,0
1.6183628,1.700187,87,84,0
1.9456598,2.027484,87,84,0
2.6248627,2.7916312,72,46,0
2.6248627,2.7916312,67,39,0
2.9583998,3.6352847,72,50,0
2.9583998,3.6352847,67,42,0
3.6352847,4.0279465,67,39,0
3.6436393,4.0363007,71,46,0
4.0363007,4.5272465,71,82,0
4.0363007,4.5272465,65,69,0
4.0363007,4.5272465,68,69,0
4.6090703,4.6908946,71,70,0
4.6908946,4.929621,77,78,0
4.929621,5.0091968,74,70,0
5.0091968,5.2479234,83,79,0
5.2479234,5.327499,77,70,0
5.327499,5.566225,86,79,0
5.566225,5.6546636,83,70,0
5.6546636,5.736488,89,84,0
5.9819603,6.0637846,89,84,0
6.6514883,6.818257,74,46,0
6.6514883,6.818257,71,39,0
6.9850254,7.6619105,74,50,0
6.9850254,7.6619105,71,42,0
7.6619105,7.995813,72,46,0
7.995813,8.044097,72,45,0
8.044097,8.0923815,75,48,0
8.0923815,8.586399,79,53,0
8.586399,8.751071,77,41,0
8.751071,9.102462,75,51,0
9.102462,9.7781,74,47,0
9.7781,10.083516,72,39,0
10.083516,10.1157055,67,27,0
10.1157055,10.147895,72,45,0
10.147895,10.180084,75,48,0
10.180084,10.674102,79,53,0
10.674102,10.838775,77,41,0
10.838775,11.1901655,75,51,0
10.838775,11.1901655,72,43,0
11.1901655,11.865804,74,47,0
11.1901655,11.865804,71,39,0
11.865804,12.119167,72,39,0
12.119167,12.151358,67,60,0
12.151358,12.183547,72,63,0
12.183547,12.215736,75,69,0
12.215736,12.703541,79,81,0
12.215736,12.703541,67,69,0
12.703541,12.866142,65,51,0
12.703541,12.866142,77,61,0
12.866142,13.541414,63,62,0
12.866142,13.541414,75,73,0
13.541414,13.626419,62,61,0
13.541414,13.626419,74,72,0
13.881434,14.553335,60,63,0
13.881434,14.553335,72,75,0
14.553335,14.63598,71,75,0
14.553335,14.63598,59,63,0
14.883914,15.583269,68,74,0
14.883914,15.583269,56,62,0
15.583269,15.758965,67,67,0
15.583269,15.758965,55,57,0
16.628283,16.74236,59,42,0
16.74236,16.856436,62,35,0
16.856436,16.970509,65,35,0
16.970509,17.08541,68,43,0
17.08541,17.203434,67,36,0
17.203434,17.324743,65,36,0
17.324743,17.410023,63,43,0
18.689232,18.803308,53,42,0
18.803308,18.917385,56,35,0
18.917385,19.031458,62,35,0
19.031458,19.146358,65,43,0
19.146358,19.264381,63,36,0
19.264381,19.385693,62,36,0
19.385693,19.470972,60,43,0
20.790628,20.904705,55,66,0
20.904705,21.018784,59,69,0
21.018784,21.132854,62,72,0
21.132854,21.247755,65,75,0
21.247755,21.36578,62,67,0
21.36578,21.48709,59,67,0
21.48709,21.978035,60,94,0
21.48709,21.978035,51,79,0
21.48709,21.978035,55,79,0
22.05986,22.141684,60,70,0
22.141684,22.37915,67,78,0
22.37915,22.458307,63,70,0
22.458307,22.693909,72,85,0
22.693909,22.772442,67,72,0
22.772442,23.008045,75,80,0
23.008045,23.096483,72,83,0
23.096483,23.178307,67,81,0
23.096483,23.178307,79,96,0
23.42378,23.505604,67,81,0
23.42378,23.505604,79,96,0
23.99655,24.078373,59,70,0
24.078373,24.31647,67,78,0
24.31647,24.395834,62,70,0
24.395834,24.632055,71,85,0
24.632055,24.710794,67,74,0
24.710794,24.947016,74,86,0
24.947016,25.035454,71,83,0
25.035454,25.117277,67,81,0
25.035454,25.117277,79,96,0
25.362751,25.444574,67,81,0
25.362751,25.444574,79,96,0
25.93552,26.017345,63,70,0
26.017345,26.256071,67,78,0
26.256071,26.335648,63,70,0
26.335648,26.571867,72,85,0
26.571867,26.650608,67,74,0
26.650608,26.88683,75,86,0
26.88683,26.975267,72,83,0
26.975267,27.22074,79,90,0
27.22074,27.302565,75,83,0
27.302565,27.383633,74,96,0
27.626835,27.71022,89,96,0
28.29391,28.375229,71,96,0
28.619184,28.702044,86,96,0
29.282059,29.368458,72,96,0
29.62766,29.71294,84,96,0
32.983276,33.324398,75,45,0
32.65496,33.324398,67,50,0
33.324398,33.99153,75,50,0
33.324398,34.32827,68,42,0
33.99153,34.654552,75,45,0
34.654552,34.980835,77,45,0
34.32827,35.327576,67,42,0
34.980835,35.65901,73,44,0
35.65901,36.000134,71,45,0
36.000134,36.341255,72,45,0
35.327576,36.341255,68,42,0
36.99807,37.33919,84,45,0
36.674793,37.33919,76,50,0
37.33919,38.000202,84,50,0
37.33919,38.336937,77,42,0
38.000202,38.66322,84,45,0
38.66322,38.989502,85,45,0
38.336937,39.32732,76,42,0
38.989502,39.653603,82,44,0
39.653603,39.9882,79,45,0
39.9882,40.3228,80,45,0
39.32732,40.3228,72,42,0
40.981823,41.322945,80,45,0
40.659534,41.322945,72,50,0
41.322945,41.985962,80,50,0
41.322945,42.3227,73,42,0
41.985962,42.648983,80,45,0
42.648983,42.975266,82,45,0
42.3227,43.313084,72,42,0
42.975266,43.644524,78,44,0
43.644524,43.98234,76,52,0
43.313084,44.32016,68,49,0
43.98234,44.646442,77,52,0
44.646442,44.972725,78,55,0
44.32016,45.319466,69,50,0
44.972725,45.6509,75,50,0
45.6509,45.992023,75,45,0
45.319466,46.333145,65,42,0
45.992023,46.66458,74,45,0
46.66458,47.005703,75,45,0
46.333145,47.005703,66,42,0
47.005703,47.34683,66,33,0
47.005703,47.34683,63,28,0
47.34683,47.68795,65,38,0
47.34683,47.68795,62,32,0
48.69174,48.85523,72,38,0
49.018715,49.18983,72,38,0
49.360947,49.693356,72,46,0
49.693356,50.025764,70,38,0
50.690586,50.85452,68,38,0
51.018456,51.18957,68,38,0
51.360687,51.692177,68,43,0
51.692177,52.02367,67,38,0
52.516018,52.676876,72,37,0
52.676876,52.834774,71,38,0
52.834774,52.99267,72,34,0
52.99267,53.150562,74,43,0
53.150562,53.32508,72,38,0
53.48594,53.646797,70,36,0
53.646797,53.80428,69,38,0
53.80428,53.961758,70,36,0
53.961758,54.11924,72,44,0
54.11924,54.293182,70,38,0
54.455784,54.618385,68,36,0
54.618385,54.77545,67,38,0
54.77545,54.93252,68,35,0
54.93252,55.08959,70,44,0
55.08959,55.259274,68,37,0
55.259274,56.731224,67,46,0
56.731224,56.891224,70,56,0
56.891224,57.21628,75,62,0
57.223457,58.209568,75,63,0
58.209568,58.544167,74,57,0
59.21336,60.203884,70,51,0
60.203884,60.367023,70,61,0
60.367023,60.420074,72,57,0
60.420074,60.473125,70,52,0
60.473125,60.526176,69,52,0
60.526176,60.685326,70,61,0
60.685326,60.84448,77,65,0
60.84448,61.175865,80,73,0
61.175865,62.160805,80,74,0
62.160805,62.495403,79,69,0
63.164597,63.24769,67,56,0
63.3304,63.41288,68,58,0
63.49509,63.57705,70,60,0
63.658768,63.74022,72,62,0
63.821453,63.90242,74,64,0
63.98317,64.06366,75,65,0
64.143936,64.22395,77,70,0
64.303955,64.38311,79,73,0
64.462265,64.54142,80,76,0
64.620575,64.69973,82,78,0
64.778885,64.85804,84,81,0
64.937195,65.03244,86,84,0
65.12768,66.11102,87,91,0
66.11102,66.43992,86,71,0
67.09746,67.17965,58,56,0
67.26173,67.343666,60,58,0
67.425415,67.50704,62,60,0
67.58854,67.66984,63,62,0
67.75103,67.832085,65,64,0
67.91295,67.993706,67,65,0
68.074326,68.154755,68,67,0
68.23518,68.31476,70,72,0
68.39433,68.47391,72,74,0
68.55348,68.63306,74,76,0
68.71264,68.79221,75,78,0
68.87179,68.9579,77,80,0
69.04402,70.05452,79,94,0
70.05452,70.71688,87,100,0
70.71688,71.05641,55,77,0
71.05641,72.06197,56,82,0
72.06197,73.0643,57,84,0
73.0643,74.06234,58,84,0
74.06234,74.146614,56,84,0
74.146614,74.22981,58,57,0
74.22981,74.28488,56,61,0
74.28488,74.33994,58,57,0
74.33994,74.39501,56,64,0
74.39501,74.45007,58,56,0
74.45007,74.50514,56,64,0
74.50514,74.56021,58,56,0
74.56021,74.61527,56,64,0
74.61527,74.67034,58,55,0
74.67034,74.7254,56,64,0
74.7254,74.8079,58,54,0
74.8079,74.89091,56,59,0
74.89091,74.97457,55,55,0
74.97457,75.058876,56,57,0
75.058876,75.22512,55,74,0
75.22512,75.38995,58,60,0
75.38995,75.554794,63,68,0
75.554794,75.71963,58,61,0
75.71963,75.88446,63,69,0
75.88446,76.04929,67,63,0
76.04929,76.21234,70,69,0
76.21234,76.37538,67,60,0
76.37538,76.53843,70,69,0
76.53843,76.70147,75,62,0
76.70147,76.86452,79,73,0
76.86452,77.02756,82,65,0
77.02756,77.19433,87,89,0
77.68992,78.69182,63,84,0
78.69182,79.03135,55,81,0
79.03135,79.69472,56,84,0
79.69472,80.031334,63,84,0
80.031334,80.69258,57,92,0
80.69258,81.02808,63,84,0
81.02808,81.19433,58,77,0
81.19433,81.356926,63,59,0
81.356926,81.51953,62,68,0
81.51953,81.68213,63,55,0
81.68213,81.844734,59,65,0
81.844734,82.01585,63,59,0
82.01585,82.18209,60,82,0
82.18209,82.34425,63,62,0
82.34425,82.50642,62,71,0
82.50642,82.66857,63,59,0
82.66857,82.830734,57,66,0
82.830734,83.001854,63,56,0
83.001854,83.16809,58,88,0
83.16809,83.32982,63,58,0
83.32982,83.49155,61,72,0
83.49155,83.65327,63,62,0
83.65327,83.814995,59,72,0
83.814995,83.98611,63,64,0
83.98611,84.15235,60,88,0
84.15235,84.31408,63,65,0
84.31408,84.4758,62,75,0
84.4758,84.63753,63,65,0
84.63753,84.79925,57,80,0
84.79925,84.97037,63,72,0
84.97037,85.3126,58,93,0
85.569275,85.65483,63,81,0
85.65483,85.900734,70,87,0
85.900734,85.98946,67,84,0
85.98946,86.074196,75,93,0
86.585045,86.6706,63,81,0
86.6706,86.91718,69,87,0
86.91718,87.00591,66,84,0
87.00591,87.090645,75,93,0
87.601494,87.68705,63,81,0
87.68705,87.93295,70,87,0
87.93295,88.02169,67,84,0
88.02169,88.106415,75,93,0
88.61727,88.70283,72,81,0
88.70283,88.95076,78,87,0
88.95076,89.0395,75,84,0
89.0395,89.54786,79,95,0
89.54786,89.71731,75,85,0
89.71731,89.88355,75,93,0
89.88355,90.00823,70,79,0
90.0498,90.216034,70,88,0
90.216034,90.34072,67,78,0
90.38228,90.54621,67,85,0
90.54621,90.67209,63,77,0
90.71404,90.87753,63,81,0
90.87753,91.00381,58,77,0
92.78389,93.143684,62,78,0
92.78389,93.143684,58,66,0
93.143684,93.50349,63,83,0
93.143684,93.50349,58,70,0
94.553116,94.89986,62,42,0
94.553116,94.89986,70,53,0
94.553116,94.89986,65,42,0
94.553116,94.89986,68,42,0
94.89986,95.252426,70,48,0
94.89986,95.252426,62,38,0
94.89986,95.252426,65,38,0
94.89986,95.252426,68,38,0
95.252426,95.60031,72,53,0
95.60031,95.9482,70,49,0
95.252426,95.9482,67,42,0
95.252426,95.9482,63,42,0
96.65588,97.002625,74,53,0
96.65588,97.002625,68,42,0
96.65588,97.002625,65,42,0
97.002625,97.355194,74,48,0
97.002625,97.355194,68,38,0
97.002625,97.355194,65,38,0
97.355194,97.701935,77,53,0
97.701935,98.048676,75,49,0
97.355194,98.048676,70,42,0
97.355194,98.048676,67,42,0
98.751564,99.098305,70,53,0
98.751564,99.098305,62,42,0
98.751564,99.098305,65,42,0
98.751564,99.098305,68,42,0
99.098305,99.450874,62,38,0
99.098305,99.450874,70,48,0
99.098305,99.450874,65,38,0
99.098305,99.450874,68,38,0
99.450874,99.79876,72,53,0
99.79876,100.146645,70,49,0
99.450874,100.146645,67,42,0
99.450874,100.146645,63,42,0
100.85433,101.20107,62,53,0
100.85433,101.20107,56,42,0
100.85433,101.20107,53,42,0
101.20107,101.55364,62,48,0
101.20107,101.55364,56,38,0
101.20107,101.55364,53,38,0
101.55364,101.90038,65,53,0
101.90038,102.24712,63,49,0
101.55364,102.24712,58,42,0
101.55364,102.24712,55,42,0
102.95366,103.3004,62,53,0
102.95366,103.3004,56,42,0
102.95366,103.3004,53,42,0
103.3004,103.67564,62,48,0
103.3004,103.67564,56,38,0
103.3004,103.67564,53,38,0
103.67564,104.88643,65,53,0
103.67564,104.88643,62,42,0
103.67564,104.88643,56,42,0
104.88643,105.351326,63,49,0
104.88643,105.351326,58,44,0
106.28113,106.77207,72,82,0
106.28113,106.77207,67,69,0
106.28113,106.77207,63,69,0
106.8539,106.93572,67,70,0
106.93572,107.174446,75,78,0
107.174446,107.25403,72,70,0
107.25403,107.49275,79,79,0
107.49275,107.57233,75,70,0
107.57233,107.81105,84,79,0
107.81105,107.89949,79,70,0
107.89949,107.981316,87,84,0
108.22679,108.30862,87,84,0
108.90599,109.07276,72,46,0
108.90599,109.07276,67,39,0
109.23953,109.91641,72,50,0
109.23953,109.91641,67,42,0
109.91641,110.309074,67,39,0
109.92477,110.31743,71,46,0
110.31743,110.80837,71,82,0
110.31743,110.80837,65,69,0
110.31743,110.80837,68,69,0
110.8902,110.97202,71,70,0
110.97202,111.21075,77,78,0
111.21075,111.29033,74,70,0
111.29033,111.52905,83,79,0
111.52905,111.60863,77,70,0
111.60863,111.84735,86,79,0
111.84735,111.93579,83,70,0
111.93579,112.01762,89,84,0
112.26309,112.34492,89,84,0
112.93262,113.09939,74,46,0
112.93262,113.09939,71,39,0
113.26615,113.94304,74,50,0
113.26615,113.94304,71,42,0
113.94304,114.27694,72,46,0
114.27694,114.325226,72,45,0
114.325226,114.37351,75,48,0
114.37351,114.86753,79,53,0
114.86753,115.0322,77,41,0
115.0322,115.38359,75,51,0
115.38359,116.05923,74,47,0
116.05923,116.36465,72,39,0
116.36465,116.396835,67,27,0
116.396835,116.42902,72,45,0
116.42902,116.46121,75,48,0
116.46121,116.95523,79,53,0
116.95523,117.1199,77,41,0
117.1199,117.4713,75,51,0
117.1199,117.4713,72,43,0
117.4713,118.146935,74,47,0
117.4713,118.146935,71,39,0
118.146935,118.4003,72,39,0
118.4003,118.43249,67,60,0
118.43249,118.464676,72,63,0
118.464676,118.496864,75,69,0
118.496864,118.98467,79,81,0
118.496864,118.98467,67,69,0
118.98467,119.14727,65,51,0
118.98467,119.14727,77,61,0
119.14727,119.82254,63,62,0
119.14727,119.82254,75,73,0
119.82254,119.90755,62,61,0
119.82254,119.90755,74,72,0
120.16256,120.834465,60,63,0
120.16256,120.834465,72,75,0
120.834465,120.91711,71,75,0
120.834465,120.91711,59,63,0
121.16505,121.864395,68,74,0
121.16505,121.864395,56,62,0
121.864395,122.04009,67,68,0
121.864395,122.04009,55,58,0
122.90941,123.02349,59,42,0
123.02349,123.137566,62,35,0
123.137566,123.25164,65,35,0
123.25164,123.36654,68,43,0
123.36654,123.484566,67,36,0
123.484566,123.60587,65,36,0
123.60587,123.691154,63,43,0
124.97036,125.084435,53,42,0
125.084435,125.19852,56,35,0
125.19852,125.312584,62,35,0
125.312584,125.42749,65,43,0
125.42749,125.54551,63,36,0
125.54551,125.666824,62,36,0
125.666824,125.7521,60,43,0
127.071754,127.18584,55,66,0
127.18584,127.29991,59,69,0
127.29991,127.41399,62,72,0
127.41399,127.528885,65,75,0
127.528885,127.64691,62,67,0
127.64691,127.76822,59,67,0
127.76822,128.25917,60,94,0
127.76822,128.25917,51,79,0
127.76822,128.25917,55,79,0
128.34099,128.4228,60,70,0
128.4228,128.66028,67,78,0
128.66028,128.73944,63,70,0
128.73944,128.97504,72,85,0
128.97504,129.05357,67,72,0
129.05357,129.28917,75,80,0
129.28917,129.37761,72,83,0
129.37761,129.45944,67,81,0
129.37761,129.45944,79,96,0
129.70491,129.78673,67,81,0
129.70491,129.78673,79,96,0
130.27768,130.3595,59,70,0
130.3595,130.5976,67,78,0
130.5976,130.67696,62,70,0
130.67696,130.91318,71,85,0
130.91318,130.99193,67,74,0
130.99193,131.22815,74,86,0
131.22815,131.31659,71,83,0
131.31659,131.3984,67,81,0
131.31659,131.3984,79,96,0
131.64388,131.72571,67,81,0
131.64388,131.72571,79,96,0
132.21664,132.29848,63,70,0
132.29848,132.5372,67,78,0
132.5372,132.61678,63,70,0
132.61678,132.853,72,85,0
132.853,132.93173,67,74,0
132.93173,133.16795,75,86,0
133.16795,133.2564,72,83,0
133.2564,133.50186,79,90,0
133.50186,133.5837,75,83,0
133.5837,133.66476,74,96,0
133.90796,133.99135,89,96,0
134.57504,134.65636,71,96,0
134.90031,134.98317,86,96,0
135.56319,135.64958,72,96,0
135.90878,135.99406,84,96,0
139.2644,139.60553,75,45,0
138.93608,139.60553,67,50,0
139.60553,140.27266,75,50,0
139.60553,140.6094,68,42,0
140.27266,140.93568,75,45,0
140.93568,141.26196,77,45,0
140.6094,141.6087,67,42,0
141.26196,141.94014,73,44,0
141.94014,142.28127,71,45,0
142.28127,142.62239,72,45,0
141.6087,142.62239,68,42,0
143.2792,143.62032,84,45,0
142.95592,143.62032,76,50,0
143.62032,144.28133,84,50,0
143.62032,144.61807,77,42,0
144.28133,144.94435,84,45,0
144.94435,145.27063,85,45,0
144.61807,145.60844,76,42,0
145.27063,145.93474,82,44,0
145.93474,146.26933,79,45,0
146.26933,146.60393,80,45,0
145.60844,146.60393,72,42,0
147.26295,147.60408,80,45,0
146.94066,147.60408,72,50,0
147.60408,148.26709,80,50,0
147.60408,148.60384,73,42,0
148.26709,148.93011,80,45,0
148.93011,149.2564,82,45,0
148.60384,149.59421,72,42,0
149.2564,149.92564,78,44,0
149.92564,150.26347,76,52,0
149.59421,150.60129,68,49,0
150.26347,150.92757,77,52,0
150.92757,151.25386,78,55,0
150.60129,151.6006,69,50,0
151.25386,151.93204,75,50,0
151.93204,152.27315,75,45,0
151.6006,152.61427,65,42,0
152.27315,152.94571,74,45,0
152.94571,153.28683,75,45,0
152.61427,153.28683,66,42,0
153.28683,153.62796,66,33,0
153.28683,153.62796,63,28,0
153.62796,153.96907,65,38,0
153.62796,153.96907,62,32,0
154.97287,155.13635,72,38,0
155.29985,155.47096,72,38,0
155.64207,155.97449,72,46,0
155.97449,156.3069,70,38,0
156.97171,157.13565,68,38,0
157.29959,157.4707,68,38,0
157.64182,157.97331,68,43,0
157.97331,158.3048,67,38,0
158.79715,158.95801,72,37,0
158.95801,159.1159,71,38,0
159.1159,159.27379,72,34,0
159.27379,159.43169,74,43,0
159.43169,159.60622,72,38,0
159.76707,159.92793,70,36,0
159.92793,160.0854,69,38,0
160.0854,160.24289,70,36,0
160.24289,160.40038,72,44,0
160.40038,160.57431,70,38,0
160.73691,160.89952,68,36,0
160.89952,161.05658,67,38,0
161.05658,161.21365,68,35,0
161.21365,161.37071,70,44,0
161.37071,161.5404,68,37,0
161.5404,163.01236,67,46,0
163.01236,163.17235,70,56,0
163.17235,163.4974,75,62,0
163.5046,164.49069,75,63,0
164.49069,164.8253,74,57,0
165.49449,166.48502,70,51,0
166.48502,166.64815,70,61,0
166.64815,166.7012,72,57,0
166.7012,166.75426,70,52,0
166.75426,166.80731,69,52,0
166.80731,166.96646,70,61,0
166.96646,167.12561,77,65,0
167.12561,167.457,80,75,0
167.457,168.44194,80,78,0
168.44194,168.77654,79,69,0
169.44572,169.52882,67,56,0
169.61153,169.69402,68,58,0
169.77621,169.85818,70,60,0
169.9399,170.02135,72,62,0
170.10258,170.18355,74,64,0
170.2643,170.34479,75,65,0
170.42506,170.50508,77,68,0
170.58508,170.66423,79,70,0
170.7434,170.82256,80,73,0
170.9017,170.98087,82,76,0
171.06001,171.13918,84,79,0
171.21832,171.31573,86,81,0
171.41313,172.39648,87,88,0
172.39648,172.72539,86,81,0
173.38292,173.4651,58,56,0
173.54718,173.62912,60,58,0
173.71088,173.7925,62,60,0
173.874,173.9553,63,62,0
174.03648,174.11755,65,64,0
174.19841,174.27916,67,65,0
174.35979,174.44022,68,67,0
174.52065,174.60022,70,70,0
174.6798,174.75937,72,73,0
174.83894,174.91852,74,76,0
174.9981,175.07767,75,79,0
175.15724,175.24336,77,82,0
175.32948,176.33998,79,89,0
176.33998,177.00233,87,100,0
177.00233,177.34187,55,77,0
177.34187,178.34743,56,82,0
178.34743,179.34976,57,84,0
179.34976,180.34781,58,84,0
180.34781,180.43207,56,84,0
180.43207,180.51527,58,57,0
180.51527,180.57034,56,61,0
180.57034,180.6254,58,57,0
180.6254,180.68047,56,64,0
180.68047,180.73553,58,56,0
180.73553,180.7906,56,64,0
180.7906,180.84567,58,56,0
180.84567,180.90073,56,64,0
180.90073,180.9558,58,55,0
180.9558,181.01086,56,64,0
181.01086,181.09335,58,54,0
181.09335,181.17636,56,59,0
181.17636,181.26003,55,55,0
181.26003,181.34433,56,57,0
181.34433,181.51057,55,74,0
181.51057,181.67542,58,60,0
181.67542,181.84026,63,68,0
181.84026,182.00508,58,61,0
182.00508,182.16992,63,69,0
182.16992,182.33475,67,63,0
182.33475,182.4978,70,69,0
182.4978,182.66084,67,60,0
182.66084,182.82388,70,69,0
182.82388,182.98692,75,62,0
182.98692,183.14998,79,78,0
183.14998,183.31302,82,73,0
183.31302,183.47978,87,89,0
183.97537,184.97728,63,84,0
184.97728,185.3168,55,81,0
185.3168,185.98018,56,84,0
185.98018,186.31679,63,84,0
186.31679,186.97804,57,92,0
186.97804,187.31354,63,84,0
187.31354,187.47978,58,77,0
187.47978,187.64238,63,60,0
187.64238,187.805,62,69,0
187.805,187.96759,63,55,0
187.96759,188.13019,59,68,0
188.13019,188.3013,63,61,0
188.3013,188.46754,60,82,0
188.46754,188.62971,63,63,0
188.62971,188.79187,62,70,0
188.79187,188.95403,63,62,0
188.95403,189.1162,57,70,0
189.1162,189.28731,63,61,0
189.28731,189.45355,58,88,0
189.45355,189.61528,63,66,0
189.61528,189.77701,61,75,0
189.77701,189.93872,63,62,0
189.93872,190.10045,59,74,0
190.10045,190.27156,63,65,0
190.27156,190.4378,60,88,0
190.4378,190.59953,63,65,0
190.59953,190.76126,62,71,0
190.76126,190.92299,63,65,0
190.92299,191.08472,57,80,0
191.08472,191.25583,63,72,0
191.25583,191.59805,58,93,0
191.85474,191.94029,63,81,0
191.94029,192.18619,70,87,0
192.18619,192.27493,67,84,0
192.27493,192.35965,75,93,0
192.8705,192.95607,63,81,0
192.95607,193.20264,69,87,0
193.20264,193.29137,66,84,0
193.29137,193.3761,75,93,0
193.88695,193.9725,63,81,0
193.9725,194.21841,70,87,0
194.21841,194.30714,67,84,0
194.30714,194.39188,75,93,0
194.90273,194.98828,72,81,0
194.98828,195.23622,78,87,0
195.23622,195.32495,75,84,0
195.32495,195.83331,79,95,0
195.83331,196.00276,75,85,0
196.00276,196.169,75,93,0
196.169,196.29369,70,79,0
196.33525,196.5015,70,88,0
196.5015,196.62617,67,78,0
196.66774,196.83167,67,85,0
196.83167,196.95755,63,77,0
196.9995,197.163,63,81,0
197.163,197.28926,58,77,0
199.06935,199.42915,62,78,0
199.06935,199.42915,58,66,0
199.42915,199.78894,63,83,0
199.42915,199.78894,58,70,0
200.83858,201.18532,62,42,0
200.83858,201.18532,70,53,0
200.83858,201.18532,65,42,0
200.83858,201.18532,68,42,0
201.18532,201.53789,70,48,0
201.18532,201.53789,62,38,0
201.18532,201.53789,65,38,0
201.18532,201.53789,68,38,0
201.53789,201.88577,72,53,0
201.88577,202.23366,70,49,0
201.53789,202.23366,67,42,0
201.53789,202.23366,63,42,0
202.94135,203.28809,74,53,0
202.94135,203.28809,68,42,0
202.94135,203.28809,65,42,0
203.28809,203.64066,74,48,0
203.28809,203.64066,68,38,0
203.28809,203.64066,65,38,0
203.64066,203.9874,77,53,0
203.9874,204.33414,75,49,0
203.64066,204.33414,70,42,0
203.64066,204.33414,67,42,0
205.03702,205.38376,70,53,0
205.03702,205.38376,62,42,0
205.03702,205.38376,65,42,0
205.03702,205.38376,68,42,0
205.38376,205.73633,62,38,0
205.38376,205.73633,70,48,0
205.38376,205.73633,65,38,0
205.38376,205.73633,68,38,0
205.73633,206.08421,72,53,0
206.08421,206.4321,70,49,0
205.73633,206.4321,67,42,0
205.73633,206.4321,63,42,0
207.13979,207.48653,62,53,0
207.13979,207.48653,56,42,0
207.13979,207.48653,53,42,0
207.48653,207.8391,62,48,0
207.48653,207.8391,56,38,0
207.48653,207.8391,53,38,0
207.8391,208.18584,65,53,0
208.18584,208.53258,63,49,0
207.8391,208.53258,58,42,0
207.8391,208.53258,55,42,0
209.23912,209.58586,62,53,0
209.23912,209.58586,56,42,0
209.23912,209.58586,53,42,0
209.58586,209.96109,62,48,0
209.58586,209.96109,56,38,0
209.58586,209.96109,53,38,0
209.96109,211.17189,65,53,0
209.96109,211.17189,62,42,0
209.96109,211.17189,56,42,0
211.17189,211.63678,63,49,0
211.17189,211.63678,58,44,0
212.56659,213.05753,72,82,0
212.56659,213.05753,67,69,0
212.56659,213.05753,64,69,0
213.13936,213.22118,67,70,0
213.22118,213.45992,76,78,0
213.45992,213.53949,72,70,0
213.53949,213.77821,79,79,0
213.77821,213.85779,76,70,0
213.85779,214.09651,84,79,0
214.09651,214.18495,79,70,0
214.18495,214.26677,88,84,0
214.51225,214.59407,88,84,0
215.19145,215.35822,76,46,0
215.19145,215.35822,72,39,0
215.525,216.20187,76,50,0
215.525,216.20187,72,42,0
216.20187,216.59453,71,39,0
216.20187,216.59453,74,46,0
216.60289,217.09383,74,50,0
216.60289,217.09383,71,42,0
217.17566,217.25748,71,70,0
217.25748,217.49622,77,78,0
217.49622,217.57579,74,70,0
217.57579,217.81451,83,79,0
217.81451,217.89409,77,70,0
217.89409,218.13281,86,79,0
218.13281,218.22125,83,70,0
218.22125,218.30307,89,84,0
218.54855,218.63037,89,84,0
219.21808,219.38484,77,46,0
219.21808,219.38484,74,39,0
219.5516,220.2285,77,50,0
219.5516,220.2285,74,42,0
220.2285,220.62115,73,39,0
220.2285,220.62115,76,46,0
220.62952,221.12045,76,50,0
220.62952,221.12045,73,42,0
221.20229,221.2841,70,70,0
221.2841,221.52283,76,78,0
221.52283,221.60242,73,70,0
221.60242,221.84114,79,84,0
221.84114,221.92072,76,70,0
221.92072,222.15944,82,85,0
222.15944,222.24788,79,70,0
222.24788,222.3297,85,89,0
222.57518,222.65623,67,87,0
222.89944,222.98283,82,86,0
223.56651,223.64784,64,85,0
223.8918,223.97466,79,79,0
224.58363,225.5849,77,50,0
224.58363,225.5849,65,42,0
225.5849,226.23918,72,45,0
225.5849,226.23918,84,53,0
226.24606,226.56975,72,42,0
226.24606,226.56975,84,50,0
226.57664,226.90273,72,45,0
226.57664,226.90273,84,54,0
226.90273,227.22882,71,42,0
226.90273,227.22882,83,50,0
227.22882,227.56876,73,42,0
227.22882,227.56876,85,50,0
227.56876,227.89842,84,50,0
227.56876,227.89842,72,42,0
227.89842,228.2281,70,42,0
227.89842,228.2281,82,50,0
228.2281,228.569,67,42,0
228.2281,228.569,79,50,0
228.569,229.22475,64,47,0
228.569,229.22475,76,56,0
229.22475,229.56372,79,59,0
229.22475,229.56372,67,50,0
229.56372,230.21947,72,55,0
229.56372,230.21947,84,65,0
230.21947,230.57344,67,50,0
230.21947,230.57344,79,59,0
230.57344,231.58679,82,64,0
230.57344,231.58679,70,54,0
231.58679,231.92293,68,49,0
231.58679,231.92293,80,58,0
232.25906,232.5952,81,57,0
232.25906,232.5952,69,48,0
232.5952,233.59647,82,62,0
232.5952,233.59647,70,52,0
233.59647,234.25073,77,56,0
233.59647,234.25073,89,66,0
234.25763,234.58131,77,52,0
234.25763,234.58131,89,62,0
234.5882,234.91429,77,57,0
234.5882,234.91429,89,68,0
234.91429,235.24037,76,52,0
234.91429,235.24037,88,62,0
235.24037,235.58032,78,52,0
235.24037,235.58032,90,62,0
235.58032,235.90999,89,62,0
235.58032,235.90999,77,52,0
235.90999,236.23965,75,52,0
235.90999,236.23965,87,62,0
236.23965,236.58057,72,52,0
236.23965,236.58057,84,62,0
236.58057,237.23631,69,59,0
236.58057,237.23631,81,70,0
237.23631,237.57529,84,73,0
237.23631,237.57529,72,61,0
237.57529,238.23103,77,68,0
237.57529,238.23103,89,81,0
238.23103,238.585,72,61,0
238.23103,238.585,84,73,0
238.585,239.59836,87,80,0
238.585,239.59836,75,68,0
239.59836,239.9345,73,61,0
239.59836,239.9345,85,72,0
240.27063,240.60677,73,61,0
240.60677,241.27206,72,67,0
241.27206,241.35493,75,61,0
241.35493,241.41019,77,57,0
241.41019,241.46655,75,61,0
241.46655,241.52402,74,65,0
241.52402,241.61023,75,69,0
241.61023,242.28062,80,74,0
242.28062,242.62213,75,66,0
242.62213,242.95454,77,70,0
242.95454,243.28696,76,61,0
243.28696,243.6298,78,61,0
243.6298,243.96039,77,70,0
243.96039,244.29097,75,61,0
244.29097,244.62805,72,61,0
244.62805,244.95862,80,70,0
244.95862,245.2892,79,61,0
245.2892,245.62628,82,61,0
245.62628,245.95686,80,70,0
245.95686,246.28745,78,61,0
246.28745,246.62453,75,61,0
246.62453,246.9551,77,70,0
246.9551,247.28568,76,61,0
247.28568,247.62276,78,61,0
247.62276,247.95334,77,70,0
247.95334,248.28392,75,61,0
248.28392,248.62099,72,61,0
248.62099,249.62665,73,66,0
249.62665,250.28636,73,57,0
249.62665,250.28636,82,71,0
250.2933,250.63095,73,60,0
250.2933,250.63095,82,74,0
250.63814,252.29837,72,63,0
250.63814,252.29837,82,78,0
252.29837,252.6364,70,72,0
252.29837,252.6364,67,61,0
252.6364,253.63362,68,69,0
252.6364,253.63362,65,58,0
253.63362,254.29335,77,62,0
253.63362,254.29335,80,78,0
254.3003,254.64513,80,81,0
254.3003,254.64513,77,66,0
254.64513,256.30536,77,69,0
254.64513,256.30536,79,85,0
256.30536,256.64337,65,72,0
256.30536,256.64337,62,61,0
256.64337,256.9758,63,69,0
256.64337,256.9758,60,58,0
257.6406,258.30032,75,72,0
257.6406,258.30032,84,85,0
257.6406,258.30032,72,72,0
258.30728,258.64493,84,84,0
258.30728,258.64493,75,71,0
258.30728,258.64493,72,71,0
258.6521,259.64935,80,76,0
258.6521,259.64935,84,90,0
258.6521,259.64935,72,76,0
259.64935,260.30908,80,82,0
259.64935,260.30908,89,97,0
259.64935,260.30908,77,82,0
260.316,260.65366,89,96,0
260.316,260.65366,80,81,0
260.316,260.65366,77,81,0
260.66083,262.3266,86,87,0
260.66083,262.3266,79,87,0
260.66083,262.3266,77,87,0
260.66083,262.3266,89,103,0
262.3266,262.6581,77,79,0
262.3266,262.6581,74,67,0
262.6581,263.3285,75,85,0
262.6581,263.3285,72,72,0
263.3285,263.99707,75,76,0
263.3285,263.99707,67,64,0
263.99707,264.33414,74,74,0
263.99707,264.33414,65,62,0
263.65997,264.33414,68,80,0
264.33414,264.66382,72,71,0
264.33414,264.66382,69,60,0
264.33414,264.66382,63,60,0
264.66382,265.0009,71,76,0
264.66382,265.0009,67,64,0
264.66382,265.0009,62,64,0
265.33798,265.66763,79,57,0
265.33798,265.66763,74,48,0
265.33798,265.66763,71,48,0
265.66763,266.00284,77,60,0
265.66763,266.00284,72,51,0
265.66763,266.00284,68,51,0
266.33804,266.6686,75,56,0
266.33804,266.6686,70,47,0
266.33804,266.6686,67,47,0
266.6686,267.00476,74,60,0
266.6686,267.00476,68,51,0
266.6686,267.00476,65,51,0
267.34088,267.67056,72,57,0
267.34088,267.67056,67,48,0
267.34088,267.67056,63,48,0
267.67056,268.00763,71,60,0
267.67056,268.00763,65,51,0
267.67056,268.00763,62,51,0
268.3447,268.6753,68,54,0
268.3447,268.6753,63,45,0
268.3447,268.6753,60,45,0
268.6753,269.0133,67,60,0
268.6753,269.0133,62,51,0
268.6753,269.0133,59,51,0
269.35135,269.68103,79,51,0
269.35135,269.68103,74,43,0
269.35135,269.68103,71,43,0
269.68103,270.0162,77,53,0
269.68103,270.0162,72,45,0
269.68103,270.0162,68,45,0
270.3514,270.68198,75,48,0
270.3514,270.68198,70,40,0
270.3514,270.68198,67,40,0
270.68198,271.01813,74,51,0
270.68198,271.01813,68,43,0
270.68198,271.01813,65,43,0
271.35425,271.68393,72,47,0
271.35425,271.68393,67,39,0
271.35425,271.68393,63,39,0
271.68393,272.021,71,49,0
271.68393,272.021,65,41,0
271.68393,272.021,62,41,0
272.3581,272.68866,68,42,0
272.3581,272.68866,63,35,0
272.3581,272.68866,60,35,0
272.68866,273.0267,67,46,0
272.68866,273.0267,62,39,0
272.68866,273.0267,59,39,0
273.36688,273.7124,65,41,0
273.36688,273.7124,56,34,0
273.36688,273.7124,60,34,0
273.7124,274.0682,63,43,0
273.7124,274.0682,60,36,0
273.7124,274.0682,55,36,0
274.44437,274.8776,62,38,0
274.44437,274.8776,59,32,0
274.44437,274.8776,53,32,0
274.8776,275.36853,60,82,0
274.8776,275.36853,55,69,0
274.8776,275.36853,51,69,0
275.45035,275.5322,67,70,0
275.5322,275.7709,75,78,0
275.7709,275.8505,72,70,0
275.8505,276.0892,79,79,0
276.0892,276.1688,75,70,0
276.1688,276.4075,84,79,0
276.4075,276.49594,79,70,0
276.49594,276.5778,87,84,0
276.82324,276.90506,87,84,0
277.50244,277.66922,72,46,0
277.50244,277.66922,67,39,0
277.836,278.51288,72,50,0
277.836,278.51288,67,42,0
278.51288,278.90555,67,39,0
278.52124,278.91388,71,46,0
278.91388,279.40485,71,82,0
278.91388,279.40485,65,69,0
278.91388,279.40485,68,69,0
279.48666,279.56848,71,70,0
279.56848,279.80722,77,78,0
279.80722,279.88678,74,70,0
279.88678,280.12552,83,79,0
280.12552,280.20508,77,70,0
280.20508,280.44382,86,79,0
280.44382,280.53226,83,70,0
280.53226,280.61407,89,84,0
280.85956,280.94138,89,84,0
281.52908,281.69583,74,46,0
281.52908,281.69583,71,39,0
281.8626,282.5395,74,50,0
281.8626,282.5395,71,42,0
282.5395,282.8734,72,46,0
282.8734,282.9217,72,45,0
282.9217,282.96997,75,48,0
282.96997,283.464,79,53,0
283.464,283.62866,77,41,0
283.62866,283.98004,75,51,0
283.98004,284.6557,74,47,0
284.6557,284.9611,72,39,0
284.9611,284.9933,67,27,0
284.9933,285.02548,72,45,0
285.02548,285.05768,75,48,0
285.05768,285.5517,79,53,0
285.5517,285.71637,77,41,0
285.71637,286.06775,75,51,0
285.71637,286.06775,72,43,0
286.06775,286.74338,74,47,0
286.06775,286.74338,71,39,0
286.74338,286.99677,72,39,0
286.99677,287.02893,67,60,0
287.02893,287.06113,72,63,0
287.06113,287.09332,75,69,0
287.09332,287.58112,79,81,0
287.09332,287.58112,67,69,0
287.58112,287.74374,65,51,0
287.58112,287.74374,77,61,0
287.74374,288.419,63,62,0
287.74374,288.419,75,73,0
288.419,288.504,62,61,0
288.419,288.504,74,72,0
288.75903,289.43094,60,63,0
288.75903,289.43094,72,75,0
289.43094,289.51358,71,75,0
289.43094,289.51358,59,63,0
289.7615,290.46085,68,74,0
289.7615,290.46085,56,62,0
290.46085,290.63657,67,67,0
290.46085,290.63657,55,57,0
291.50586,291.61993,59,42,0
291.61993,291.73404,62,35,0
291.73404,291.84808,65,35,0
291.84808,291.963,68,43,0
291.963,292.08102,67,36,0
292.08102,292.20233,65,36,0
292.20233,292.2876,63,43,0
293.56683,293.6809,53,42,0
293.6809,293.79498,56,35,0
293.79498,293.90906,62,35,0
293.90906,294.02396,65,43,0
294.02396,294.14197,63,36,0
294.14197,294.26328,62,36,0
294.26328,294.34857,60,43,0
295.6682,295.7823,55,66,0
295.7823,295.89636,59,69,0
295.89636,296.01044,62,72,0
296.01044,296.12534,65,75,0
296.12534,296.24338,62,67,0
296.24338,296.3647,59,71,0
296.3647,296.52832,60,94,0
299.97845,300.31958,73,45,0
299.65015,300.31958,65,50,0
300.31958,300.98672,73,50,0
300.31958,301.32346,66,42,0
300.98672,301.64975,73,45,0
301.64975,301.976,75,45,0
301.32346,302.32275,65,42,0
301.976,302.6542,71,44,0
302.6542,302.99533,69,45,0
302.99533,303.33646,70,45,0
302.32275,303.33646,66,42,0
303.99326,304.33438,85,45,0
303.66998,304.33438,77,50,0
304.33438,304.9954,85,50,0
304.33438,305.33212,78,42,0
304.9954,305.65842,85,45,0
305.65842,305.98468,87,45,0
305.33212,306.3225,77,42,0
305.98468,306.6488,83,44,0
306.6488,306.9834,81,45,0
306.9834,307.318,82,45,0
306.3225,307.318,78,42,0
307.97702,308.31815,82,45,0
307.65472,308.31815,74,50,0
308.31815,308.98114,82,50,0
308.31815,309.3179,75,42,0
308.98114,309.64417,82,45,0
309.64417,309.97046,83,45,0
309.3179,310.3083,74,42,0
309.97046,310.6397,80,44,0
310.6397,310.97754,77,52,0
310.3083,311.31534,70,49,0
310.97754,311.64163,78,52,0
311.64163,311.96793,80,55,0
311.31534,312.31467,71,50,0
311.96793,312.6461,77,50,0
312.6461,312.9872,77,45,0
312.31467,313.32834,72,42,0
312.9872,313.65976,76,45,0
313.65976,314.0009,77,45,0
313.32834,314.0009,68,42,0
314.0009,314.342,68,33,0
314.0009,314.342,65,28,0
314.342,314.68314,67,38,0
314.342,314.68314,64,32,0
315.68692,315.8504,73,38,0
316.01392,316.18503,73,38,0
316.35614,316.68854,73,46,0
316.68854,317.02097,72,38,0
317.6858,317.8497,70,38,0
318.01364,318.18475,70,38,0
318.35587,318.68738,70,43,0
318.68738,319.01886,69,38,0
319.5112,319.67206,74,37,0
319.67206,319.82996,73,38,0
319.82996,319.98785,74,34,0
319.98785,320.14575,76,43,0
320.14575,320.32028,74,38,0
320.48114,320.642,72,36,0
320.642,320.79947,71,38,0
320.79947,320.95694,72,36,0
320.95694,321.11444,74,44,0
321.11444,321.28836,72,38,0
321.451,321.6136,70,36,0
321.6136,321.77063,69,38,0
321.77063,321.9277,70,35,0
321.9277,322.08478,72,44,0
322.08478,322.25446,70,37,0
322.25446,323.7264,69,46,0
323.7264,323.8864,72,56,0
323.8864,324.21866,77,62,0
324.21866,325.20477,77,63,0
325.20477,325.53937,76,57,0
326.20856,327.19907,72,51,0
327.19907,327.3622,72,61,0
327.3622,327.41525,74,57,0
327.41525,327.46832,72,52,0
327.46832,327.52136,71,52,0
327.52136,327.6805,72,61,0
327.6805,327.83966,79,71,0
327.83966,328.17105,82,76,0
328.17105,329.156,82,78,0
329.156,329.4906,81,69,0
330.1598,330.2429,69,56,0
330.3256,330.40808,70,58,0
330.4903,330.57224,72,60,0
330.65396,330.7354,74,62,0
330.81665,330.8976,76,64,0
330.97836,331.05884,77,65,0
331.13913,331.21915,79,67,0
331.29913,331.3783,81,71,0
331.45746,331.53662,82,74,0
331.61575,331.69492,84,77,0
331.77408,331.85324,86,80,0
331.9324,332.02762,88,83,0
332.12286,333.1062,89,90,0
333.1062,333.43512,88,71,0
334.09265,334.17484,60,56,0
334.25693,334.33887,62,58,0
334.4206,334.50223,64,60,0
334.58374,334.66504,65,62,0
334.74622,334.82727,67,64,0
334.90814,334.9889,69,65,0
335.06952,335.14993,70,71,0
335.23038,335.30994,72,71,0
335.38953,335.4691,74,73,0
335.54868,335.62827,76,75,0
335.70782,335.7874,77,82,0
335.86697,335.9531,79,84,0
336.0392,337.38034,80,92,0
337.38034,337.70645,79,77,0
337.70645,338.0444,77,77,0
338.0444,338.7882,75,84,0
338.7882,338.8433,77,57,0
338.8433,338.89975,75,61,0
338.89975,338.95755,74,65,0
338.95755,339.04425,75,69,0
339.04425,339.37485,79,84,0
339.37485,339.7091,77,78,0
339.7091,340.04764,74,78,0
340.04764,341.5196,75,89,0
340.04764,341.5196,63,66,0
341.5196,341.67957,79,84,0
341.5196,341.67957,67,63,0
341.67957,342.0118,84,97,0
341.67957,342.0118,72,72,0
342.0118,342.99792,84,98,0
342.0118,342.99792,72,73,0
342.99792,343.33252,83,85,0
342.99792,343.33252,71,63,0
344.0017,345.47366,79,89,0
344.0017,345.47366,67,66,0
345.47366,345.63367,86,84,0
345.47366,345.63367,74,63,0
345.63367,345.95874,89,97,0
345.63367,345.95874,77,72,0
345.9659,346.95203,89,98,0
345.9659,346.95203,77,73,0
346.95203,347.28662,87,88,0
346.95203,347.28662,75,66,0
347.9558,348.1229,63,89,0
348.1229,348.28915,67,75,0
348.28915,348.4546,72,79,0
348.4546,348.61926,67,79,0
348.61926,348.78363,72,83,0
348.78363,348.94653,75,89,0
348.94653,349.10776,72,89,0
349.10776,349.26776,75,77,0
349.26776,349.42776,79,83,0
349.42776,349.58777,75,89,0
349.58777,349.74777,79,83,0
349.74777,349.9128,84,89,0
349.91998,350.9061,84,98,0
350.9061,351.2407,83,92,0
351.90988,352.07697,55,80,0
352.07697,352.24326,59,67,0
352.24326,352.4087,62,71,0
352.4087,352.57333,59,71,0
352.57333,352.7377,62,74,0
352.7377,352.9006,67,80,0
352.9006,353.06186,62,80,0
353.06186,353.22183,67,69,0
353.22183,353.38184,71,74,0
353.38184,353.54184,67,80,0
353.54184,353.70184,71,74,0
353.70184,353.87408,74,80,0
353.87408,354.21362,75,86,0
354.5461,355.54694,84,100,0
355.54694,355.88647,52,77,0
355.88647,356.89203,53,82,0
356.89203,357.89435,54,84,0
357.89435,358.8924,55,84,0
358.8924,358.97668,53,84,0
358.97668,359.05988,55,57,0
359.05988,359.11493,53,61,0
359.11493,359.17,55,57,0
359.17,359.22507,53,64,0
359.22507,359.28015,55,56,0
359.28015,359.3352,53,64,0
359.3352,359.39026,55,56,0
359.39026,359.44534,53,64,0
359.44534,359.5004,55,55,0
359.5004,359.55548,53,64,0
359.55548,359.63797,55,54,0
359.63797,359.72098,53,59,0
359.72098,359.80463,52,55,0
359.80463,359.88895,53,57,0
359.88895,360.05518,51,74,0
360.05518,360.22003,55,60,0
360.22003,360.38486,60,68,0
360.38486,360.54968,55,61,0
360.54968,360.7145,60,69,0
360.7145,360.87936,63,63,0
360.87936,361.0424,67,69,0
361.0424,361.20544,63,60,0
361.20544,361.3685,67,73,0
361.3685,361.53152,72,68,0
361.53152,361.69458,75,80,0
361.69458,361.8576,79,73,0
361.8576,362.02438,84,89,0
362.52,363.52188,60,84,0
363.52188,363.86142,52,81,0
363.86142,364.52478,53,84,0
364.52478,364.8614,60,84,0
364.8614,365.52264,54,92,0
365.52264,365.85815,60,84,0
365.85815,366.02438,55,88,0
366.02438,366.18698,60,62,0
366.18698,366.34958,59,74,0
366.34958,366.51218,60,62,0
366.51218,366.6748,55,72,0
366.6748,366.84592,60,62,0
366.84592,367.01215,56,82,0
367.01215,367.17432,60,62,0
367.17432,367.3365,59,73,0
367.3365,367.49863,60,64,0
367.49863,367.6608,54,73,0
367.6608,367.8319,60,62,0
367.8319,367.99817,55,88,0
367.99817,368.15988,60,63,0
368.15988,368.3216,59,73,0
368.3216,368.48334,60,62,0
368.48334,368.64505,52,74,0
368.64505,368.81616,60,65,0
368.81616,368.98242,53,88,0
368.98242,369.14413,60,64,0
369.14413,369.30588,56,71,0
369.30588,369.4676,60,65,0
369.4676,369.6293,54,80,0
369.6293,369.8004,60,72,0
369.8004,370.14267,55,93,0
370.39932,370.4849,67,81,0
370.4849,370.7308,75,87,0
370.7308,370.81952,72,84,0
370.81952,370.90427,78,93,0
371.4151,371.50067,66,81,0
371.50067,371.74725,75,87,0
371.74725,371.83597,72,84,0
371.83597,371.92072,79,93,0
372.43155,372.51712,67,81,0
372.51712,372.763,75,87,0
372.763,372.85175,72,84,0
372.85175,372.9365,81,93,0
373.44733,373.5329,69,81,0
373.5329,373.78082,75,87,0
373.78082,373.86957,72,84,0
373.86957,374.37793,79,95,0
374.37793,374.54736,75,85,0
374.54736,374.71362,75,93,0
374.71362,374.8383,72,79,0
374.87985,375.0461,72,88,0
375.0461,375.17078,67,78,0
375.21234,375.37628,67,85,0
375.37628,375.50214,63,77,0
375.5441,375.70758,63,81,0
375.70758,375.83386,60,77,0
377.61395,377.97375,59,78,0
377.61395,377.97375,55,66,0
377.97375,378.33356,60,83,0
377.97375,378.33356,55,70,0
379.38318,379.72992,59,42,0
379.38318,379.72992,67,53,0
379.38318,379.72992,62,42,0
379.38318,379.72992,65,42,0
379.72992,380.0825,67,48,0
379.72992,380.0825,59,38,0
379.72992,380.0825,62,38,0
379.72992,380.0825,65,38,0
380.0825,380.43036,68,53,0
380.43036,380.77826,67,49,0
380.0825,380.77826,63,42,0
380.0825,380.77826,60,42,0
381.48593,381.83267,71,53,0
381.48593,381.83267,65,42,0
381.48593,381.83267,62,42,0
381.83267,382.18524,71,48,0
381.83267,382.18524,65,38,0
381.83267,382.18524,62,38,0
382.18524,382.53198,74,53,0
382.53198,382.87872,72,49,0
382.18524,382.87872,67,42,0
382.18524,382.87872,63,42,0
383.58163,383.92838,67,53,0
383.58163,383.92838,59,42,0
383.58163,383.92838,62,42,0
383.58163,383.92838,65,42,0
383.92838,384.28094,59,38,0
383.92838,384.28094,67,48,0
383.92838,384.28094,62,38,0
383.92838,384.28094,65,38,0
384.28094,384.6288,68,53,0
384.6288,384.9767,67,49,0
384.28094,384.9767,63,42,0
384.28094,384.9767,60,42,0
385.6844,386.03113,59,53,0
385.6844,386.03113,53,42,0
385.6844,386.03113,50,42,0
386.03113,386.3837,59,48,0
386.03113,386.3837,53,38,0
386.03113,386.3837,50,38,0
386.3837,386.73044,62,53,0
386.73044,387.07718,60,49,0
386.3837,387.07718,55,42,0
386.3837,387.07718,51,42,0
387.78372,388.13046,59,53,0
387.78372,388.13046,53,42,0
387.78372,388.13046,50,42,0
388.13046,388.5057,59,48,0
388.13046,388.5057,53,38,0
388.13046,388.5057,50,38,0
388.5057,388.86676,60,53,0
388.5057,388.86676,55,42,0
388.5057,388.86676,51,42,0
389.6541,390.05664,79,97,0
389.6541,390.05664,67,82,0
389.6541,390.05664,71,82,0
389.6541,390.05664,74,82,0
390.91956,391.35104,72,97,0
390.91956,391.35104,60,82,0
390.91956,391.35104,63,82,0
390.91956,391.35104,67,82,0
0.0,0.4909455,48,59,0
0.0,0.4909455,60,70,0
0.0,0.4909455,55,59,0
0.0,0.4909455,51,59,0
2.6248627,2.7916312,63,41,0
2.6248627,2.7916312,60,34,0
2.9583998,3.6352847,60,34,0
2.9583998,3.6352847,63,41,0
3.6352847,4.0279465,65,38,0
3.6352847,4.0279465,62,32,0
4.0363007,4.5272465,50,59,0
4.0363007,4.5272465,56,59,0
4.0363007,4.5272465,53,59,0
4.0363007,4.5272465,59,59,0
4.0363007,4.5272465,62,70,0
6.6514883,6.818257,65,34,0
6.6514883,6.818257,68,41,0
6.6514883,6.818257,62,34,0
6.9850254,7.6619105,62,34,0
6.9850254,7.6619105,65,34,0
6.9850254,7.6619105,68,41,0
7.6619105,8.0923815,63,32,0
7.6619105,8.0923815,67,38,0
8.751071,9.102462,51,29,0
8.751071,9.102462,55,29,0
8.751071,9.102462,60,35,0
9.102462,9.7781,59,39,0
9.102462,9.7781,56,33,0
9.102462,9.7781,53,33,0
9.7781,10.180084,51,28,0
9.7781,10.180084,55,28,0
9.7781,10.180084,60,34,0
10.838775,11.1901655,67,35,0
10.838775,11.1901655,63,29,0
11.1901655,11.865804,65,33,0
11.1901655,11.865804,68,39,0
11.865804,12.215736,67,34,0
11.865804,12.215736,63,28,0
12.866142,13.211744,51,39,0
12.866142,13.211744,60,47,0
12.866142,13.211744,55,39,0
13.211744,13.881434,56,45,0
13.211744,13.881434,53,45,0
13.211744,13.881434,59,53,0
13.881434,14.211104,51,39,0
13.881434,14.211104,55,46,0
14.211104,14.883914,53,56,0
14.211104,14.883914,50,46,0
14.883914,15.237667,48,41,0
14.883914,15.237667,51,49,0
15.237667,15.583269,47,55,0
15.237667,15.583269,50,47,0
16.970509,17.324743,47,28,0
16.970509,17.324743,56,34,0
16.970509,17.324743,53,28,0
16.970509,17.324743,50,28,0
17.324743,17.410023,48,28,0
17.324743,17.410023,51,28,0
17.324743,17.410023,55,34,0
19.031458,19.385693,41,28,0
19.031458,19.385693,44,28,0
19.031458,19.385693,50,34,0
19.385693,19.470972,51,34,0
19.385693,19.470972,43,28,0
19.385693,19.470972,48,28,0
21.132854,21.306366,31,73,0
21.132854,21.306366,43,73,0
21.48709,21.978035,39,67,0
21.48709,21.978035,43,67,0
21.48709,21.978035,36,67,0
21.48709,21.978035,48,80,0
23.096483,23.178307,51,58,0
23.096483,23.178307,55,69,0
23.096483,23.178307,48,58,0
23.42378,23.505604,55,69,0
23.42378,23.505604,50,58,0
23.42378,23.505604,47,58,0
25.035454,25.117277,50,58,0
25.035454,25.117277,47,58,0
25.035454,25.117277,55,69,0
25.362751,25.444574,51,58,0
25.362751,25.444574,48,58,0
25.362751,25.444574,55,69,0
26.975267,27.05709,55,58,0
26.975267,27.05709,60,69,0
26.975267,27.05709,51,58,0
27.302565,27.383633,53,58,0
27.302565,27.383633,62,69,0
27.302565,27.383633,56,58,0
28.29391,28.375229,55,58,0
28.29391,28.375229,59,58,0
28.29391,28.375229,62,69,0
29.282059,29.368458,51,58,0
29.282059,29.368458,55,58,0
29.282059,29.368458,48,58,0
29.282059,29.368458,60,69,0
32.318222,33.324398,61,50,0
33.324398,34.32827,60,49,0
31.33327,34.32827,63,69,0
34.32827,35.327576,58,28,0
34.32827,35.327576,61,34,0
35.327576,36.341255,63,33,0
35.327576,36.341255,56,28,0
36.341255,37.33919,70,50,0
37.33919,38.336937,68,49,0
36.341255,38.336937,72,60,0
38.336937,39.32732,70,34,0
38.336937,39.32732,67,28,0
39.32732,40.3228,68,33,0
39.32732,40.3228,65,28,0
40.3228,41.322945,66,50,0
41.322945,42.3227,65,49,0
40.3228,42.3227,68,60,0
42.3227,43.313084,66,44,0
42.3227,43.313084,63,44,0
43.313084,44.32016,65,33,0
43.313084,44.32016,61,28,0
44.32016,45.319466,63,48,0
44.32016,45.319466,59,42,0
45.319466,46.333145,58,33,0
46.333145,47.34683,57,33,0
47.68795,48.022545,53,33,0
48.022545,48.357143,55,37,0
48.357143,48.69174,56,41,0
48.69174,49.018715,52,33,0
49.018715,49.360947,53,35,0
47.34683,49.360947,46,33,0
49.360947,49.693356,55,42,0
49.693356,50.025764,50,33,0
50.025764,50.358177,51,33,0
50.358177,50.690586,53,40,0
50.690586,51.018456,48,33,0
51.018456,51.360687,50,33,0
49.360947,51.360687,46,42,0
51.360687,51.692177,51,39,0
51.692177,52.02367,53,33,0
52.02367,52.355164,55,36,0
52.355164,52.676876,56,40,0
52.676876,52.99267,52,33,0
52.99267,53.32508,53,33,0
51.360687,53.32508,46,39,0
53.32508,53.646797,55,42,0
53.646797,53.961758,50,33,0
53.961758,54.293182,51,33,0
54.293182,54.618385,53,40,0
54.618385,54.93252,48,33,0
54.93252,55.259274,50,33,0
53.32508,55.259274,46,42,0
55.259274,55.426346,51,40,0
55.426346,55.59262,58,28,0
55.59262,55.758068,55,33,0
55.758068,55.92272,58,27,0
55.932297,56.096645,53,33,0
56.087093,56.24999,58,30,0
56.24999,56.411224,51,38,0
56.411224,56.571224,58,28,0
56.571224,56.731224,53,42,0
56.731224,56.891224,58,35,0
56.891224,57.051224,55,46,0
57.051224,57.223457,58,40,0
57.223457,57.392666,53,51,0
57.392666,57.556618,58,44,0
57.556618,57.719364,55,52,0
57.719364,57.881107,58,43,0
57.881107,58.04406,56,55,0
58.04406,58.209568,58,47,0
58.209568,58.37687,53,60,0
58.37687,58.544167,58,39,0
58.544167,58.711464,55,46,0
58.711464,58.878765,58,33,0
58.878765,59.046062,56,41,0
59.046062,59.21336,58,33,0
59.21336,59.380436,50,40,0
59.380436,59.54671,58,28,0
59.54671,59.71216,53,33,0
59.71216,59.87681,58,27,0
59.87681,60.040703,51,33,0
60.040703,60.203884,58,30,0
60.203884,60.367023,50,38,0
60.367023,60.526176,58,31,0
60.526176,60.685326,51,46,0
60.685326,60.84448,58,38,0
60.84448,61.003628,53,50,0
61.003628,61.175865,58,43,0
61.175865,61.344387,51,56,0
61.344387,61.50777,58,42,0
61.50777,61.669243,53,54,0
61.669243,61.830723,58,44,0
61.830723,61.99462,55,46,0
61.99462,62.160805,58,33,0
62.160805,62.328102,51,48,0
62.328102,62.495403,58,39,0
62.495403,62.6627,53,41,0
62.6627,62.829998,58,33,0
62.829998,62.997295,55,41,0
62.997295,63.164597,58,33,0
63.164597,63.3304,51,40,0
63.3304,63.49509,58,28,0
63.49509,63.658768,55,33,0
63.658768,63.821453,58,27,0
63.821453,63.98317,51,35,0
63.98317,64.143936,58,32,0
64.143936,64.303955,51,41,0
64.303955,64.462265,58,38,0
64.462265,64.620575,55,48,0
64.620575,64.778885,58,41,0
64.778885,64.937195,51,54,0
64.937195,65.12768,58,51,0
65.12768,65.29848,53,52,0
65.29848,65.4618,58,48,0
65.4618,65.62409,56,52,0
65.62409,65.78536,58,44,0
65.78536,65.94737,53,46,0
65.94737,66.11102,58,43,0
66.11102,66.275536,53,43,0
66.275536,66.43992,58,31,0
66.43992,66.60431,56,39,0
66.60431,66.76869,58,31,0
66.76869,66.933075,53,39,0
66.933075,67.096085,58,31,0
67.09746,67.26173,50,40,0
67.26173,67.425415,58,32,0
67.425415,67.58854,53,39,0
67.58854,67.75103,58,29,0
67.75103,67.91295,50,46,0
67.91295,68.074326,58,37,0
68.074326,68.23518,50,52,0
68.23518,68.39433,58,43,0
68.39433,68.55348,53,57,0
68.55348,68.71264,58,49,0
68.71264,68.87179,50,62,0
68.87179,69.04402,58,51,0
69.216255,69.38355,51,43,0
69.38355,69.5498,50,50,0
69.5498,69.71604,51,44,0
69.71604,69.88228,50,53,0
69.88228,70.05452,51,44,0
70.05452,70.22128,43,67,0
70.22128,70.38648,51,45,0
70.38648,70.55168,44,59,0
70.55168,70.71688,51,47,0
70.71688,70.88418,46,61,0
70.88418,71.05641,51,44,0
71.05641,71.22371,44,65,0
71.22371,71.391014,51,45,0
71.391014,71.55725,46,57,0
71.55725,71.723495,51,42,0
71.723495,71.88974,48,55,0
71.88974,72.06197,51,45,0
72.06197,72.22822,45,67,0
72.22822,72.394455,51,45,0
72.394455,72.5607,46,56,0
72.5607,72.726944,51,47,0
72.726944,72.89318,48,55,0
72.89318,73.0643,51,44,0
73.0643,73.23002,46,64,0
73.23002,73.39574,55,46,0
73.39574,73.561455,51,56,0
73.561455,73.72717,55,45,0
73.72717,73.89289,46,57,0
73.89289,74.06234,55,46,0
74.06234,74.22981,46,64,0
74.22981,74.39501,53,46,0
74.39501,74.56021,50,55,0
74.56021,74.7254,53,45,0
74.7254,74.89091,46,55,0
74.89091,75.058876,53,46,0
75.058876,75.38995,51,64,0
75.058876,75.38995,39,64,0
77.02756,77.19433,43,67,0
77.19433,77.35952,51,45,0
77.35952,77.52472,44,59,0
77.52472,77.68992,51,47,0
77.68992,77.857216,46,61,0
77.857216,78.02946,51,44,0
78.02946,78.19622,43,67,0
78.19622,78.36142,51,45,0
78.36142,78.52662,44,57,0
78.52662,78.69182,51,52,0
78.69182,78.859116,46,61,0
78.859116,79.03135,51,44,0
79.03135,79.19865,44,65,0
79.19865,79.365944,51,45,0
79.365944,79.53033,46,58,0
79.53033,79.69472,51,42,0
79.69472,79.8591,48,57,0
79.8591,80.031334,51,45,0
80.031334,80.19758,45,67,0
80.19758,80.363815,51,45,0
80.363815,80.5282,46,56,0
80.5282,80.69258,51,47,0
80.69258,80.856964,48,58,0
80.856964,81.02808,51,44,0
81.02808,81.19433,46,67,0
81.19433,81.356926,51,52,0
81.356926,81.51953,50,61,0
81.51953,81.68213,51,48,0
81.68213,81.844734,47,62,0
81.844734,82.01585,51,53,0
82.01585,82.18209,48,71,0
82.18209,82.34425,51,54,0
82.34425,82.50642,50,65,0
82.50642,82.66857,51,52,0
82.66857,82.830734,45,64,0
82.830734,83.001854,51,49,0
83.001854,83.16809,46,77,0
83.16809,83.32982,51,58,0
83.32982,83.49155,49,65,0
83.49155,83.65327,51,56,0
83.65327,83.814995,47,70,0
83.814995,83.98611,51,54,0
83.98611,84.15235,48,77,0
84.15235,84.31408,51,57,0
84.31408,84.4758,50,63,0
84.4758,84.63753,51,58,0
84.63753,84.79925,45,71,0
84.79925,84.97037,51,65,0
84.97037,85.3126,46,82,0
85.3126,85.398155,55,87,0
85.3126,85.398155,51,77,0
85.3126,85.398155,46,77,0
86.32838,86.41393,54,87,0
86.32838,86.41393,48,77,0
86.32838,86.41393,51,77,0
87.344826,87.43038,51,77,0
87.344826,87.43038,46,77,0
87.344826,87.43038,55,87,0
88.360596,88.44615,45,77,0
88.360596,88.44615,57,87,0
88.360596,88.44615,51,77,0
88.360596,88.44615,54,77,0
89.3784,89.463135,51,77,0
89.3784,89.463135,46,77,0
89.3784,89.463135,58,87,0
89.3784,89.463135,55,77,0
91.0459,91.20984,58,81,0
91.20984,91.33652,55,77,0
91.378746,91.544464,55,82,0
91.544464,91.672386,51,77,0
91.71503,91.88127,51,83,0
91.88127,92.02938,46,77,0
92.78389,93.143684,53,59,0
92.07875,93.143684,46,92,0
92.07875,93.143684,34,78,0
92.78389,93.143684,56,70,0
93.143684,93.50349,39,67,0
93.143684,93.50349,55,79,0
93.85023,94.19697,45,51,0
94.19697,94.553116,44,51,0
94.553116,94.89986,43,49,0
94.89986,95.252426,41,49,0
93.50349,95.252426,46,51,0
95.252426,95.60031,39,51,0
95.60031,95.9482,43,47,0
95.9482,96.29608,46,47,0
96.29608,96.65588,34,51,0
96.65588,97.002625,41,48,0
97.002625,97.355194,46,48,0
97.355194,97.701935,39,67,0
98.048676,98.39542,45,51,0
98.39542,98.751564,44,51,0
98.751564,99.098305,43,49,0
99.098305,99.450874,41,49,0
97.701935,99.450874,46,51,0
99.450874,99.79876,39,51,0
99.79876,100.146645,43,47,0
100.146645,100.49453,46,47,0
100.49453,100.85433,34,51,0
100.85433,101.20107,41,48,0
101.20107,101.55364,46,48,0
101.55364,101.90038,39,51,0
101.90038,102.24712,43,47,0
102.24712,102.593864,46,47,0
102.593864,102.95366,34,51,0
102.95366,103.3004,41,48,0
103.3004,103.67564,46,48,0
103.67564,104.03669,39,51,0
104.03669,104.42153,43,47,0
104.42153,104.88643,46,47,0
104.88643,105.351326,55,44,0
104.88643,105.351326,51,40,0
106.28113,106.77207,48,59,0
106.28113,106.77207,60,70,0
106.28113,106.77207,55,59,0
106.28113,106.77207,51,59,0
108.90599,109.07276,63,41,0
108.90599,109.07276,60,34,0
109.23953,109.91641,60,34,0
109.23953,109.91641,63,41,0
109.91641,110.309074,65,38,0
109.91641,110.309074,62,32,0
110.31743,110.80837,50,59,0
110.31743,110.80837,56,59,0
110.31743,110.80837,53,59,0
110.31743,110.80837,59,59,0
110.31743,110.80837,62,70,0
112.93262,113.09939,65,34,0
112.93262,113.09939,68,41,0
112.93262,113.09939,62,34,0
113.26615,113.94304,62,34,0
113.26615,113.94304,65,34,0
113.26615,113.94304,68,41,0
113.94304,114.37351,63,32,0
113.94304,114.37351,67,38,0
115.0322,115.38359,51,29,0
115.0322,115.38359,55,29,0
115.0322,115.38359,60,35,0
115.38359,116.05923,59,39,0
115.38359,116.05923,56,33,0
115.38359,116.05923,53,33,0
116.05923,116.46121,51,28,0
116.05923,116.46121,55,28,0
116.05923,116.46121,60,34,0
117.1199,117.4713,67,35,0
117.1199,117.4713,63,29,0
117.4713,118.146935,65,33,0
117.4713,118.146935,68,39,0
118.146935,118.496864,67,34,0
118.146935,118.496864,63,28,0
119.14727,119.492874,51,39,0
119.14727,119.492874,60,47,0
119.14727,119.492874,55,39,0
119.492874,120.16256,56,45,0
119.492874,120.16256,53,45,0
119.492874,120.16256,59,53,0
120.16256,120.49223,51,39,0
120.16256,120.49223,55,46,0
120.49223,121.16505,53,56,0
120.49223,121.16505,50,46,0
121.16505,121.5188,48,41,0
121.16505,121.5188,51,49,0
121.5188,121.864395,47,56,0
121.5188,121.864395,50,47,0
123.25164,123.60587,47,28,0
123.25164,123.60587,56,34,0
123.25164,123.60587,53,28,0
123.25164,123.60587,50,28,0
123.60587,123.691154,48,28,0
123.60587,123.691154,51,28,0
123.60587,123.691154,55,34,0
125.312584,125.666824,41,28,0
125.312584,125.666824,44,28,0
125.312584,125.666824,50,34,0
125.666824,125.7521,51,34,0
125.666824,125.7521,43,28,0
125.666824,125.7521,48,28,0
127.41399,127.587494,31,73,0
127.41399,127.587494,43,73,0
127.76822,128.25917,39,67,0
127.76822,128.25917,43,67,0
127.76822,128.25917,36,67,0
127.76822,128.25917,48,80,0
129.37761,129.45944,51,58,0
129.37761,129.45944,55,69,0
129.37761,129.45944,48,58,0
129.70491,129.78673,55,69,0
129.70491,129.78673,50,58,0
129.70491,129.78673,47,58,0
131.31659,131.3984,50,58,0
131.31659,131.3984,47,58,0
131.31659,131.3984,55,69,0
131.64388,131.72571,51,58,0
131.64388,131.72571,48,58,0
131.64388,131.72571,55,69,0
133.2564,133.33823,55,58,0
133.2564,133.33823,60,69,0
133.2564,133.33823,51,58,0
133.5837,133.66476,53,58,0
133.5837,133.66476,62,69,0
133.5837,133.66476,56,58,0
134.57504,134.65636,55,58,0
134.57504,134.65636,59,58,0
134.57504,134.65636,62,69,0
135.56319,135.64958,51,58,0
135.56319,135.64958,55,58,0
135.56319,135.64958,48,58,0
135.56319,135.64958,60,69,0
138.59935,139.60553,61,50,0
139.60553,140.6094,60,49,0
137.6144,140.6094,63,69,0
140.6094,141.6087,58,28,0
140.6094,141.6087,61,34,0
141.6087,142.62239,63,33,0
141.6087,142.62239,56,28,0
142.62239,143.62032,70,50,0
143.62032,144.61807,68,49,0
142.62239,144.61807,72,60,0
144.61807,145.60844,70,34,0
144.61807,145.60844,67,28,0
145.60844,146.60393,68,33,0
145.60844,146.60393,65,28,0
146.60393,147.60408,66,50,0
147.60408,148.60384,65,49,0
146.60393,148.60384,68,60,0
148.60384,149.59421,66,44,0
148.60384,149.59421,63,44,0
149.59421,150.60129,65,33,0
149.59421,150.60129,61,28,0
150.60129,151.6006,63,48,0
150.60129,151.6006,59,42,0
151.6006,152.61427,58,33,0
152.61427,153.62796,57,33,0
153.96907,154.30368,53,33,0
154.30368,154.63828,55,37,0
154.63828,154.97287,56,41,0
154.97287,155.29985,52,33,0
155.29985,155.64207,53,35,0
153.62796,155.64207,46,33,0
155.64207,155.97449,55,42,0
155.97449,156.3069,50,33,0
156.3069,156.6393,51,33,0
156.6393,156.97171,53,40,0
156.97171,157.29959,48,33,0
157.29959,157.64182,50,33,0
155.64207,157.64182,46,42,0
157.64182,157.97331,51,39,0
157.97331,158.3048,53,33,0
158.3048,158.63629,55,36,0
158.63629,158.95801,56,40,0
158.95801,159.27379,52,33,0
159.27379,159.60622,53,33,0
157.64182,159.60622,46,39,0
159.60622,159.92793,55,42,0
159.92793,160.24289,50,33,0
160.24289,160.57431,51,33,0
160.57431,160.89952,53,40,0
160.89952,161.21365,48,33,0
161.21365,161.5404,50,33,0
159.60622,161.5404,46,42,0
161.5404,161.70747,51,40,0
161.70747,161.87375,58,28,0
161.87375,162.0392,55,33,0
162.0392,162.20386,58,27,0
162.21342,162.37778,53,33,0
162.36823,162.53111,58,30,0
162.53111,162.69235,51,38,0
162.69235,162.85236,58,33,0
162.85236,163.01236,53,45,0
163.01236,163.17235,58,37,0
163.17235,163.33235,55,48,0
163.33235,163.5046,58,43,0
163.5046,163.6738,53,55,0
163.6738,163.83775,58,40,0
163.83775,164.00049,55,48,0
164.00049,164.16223,58,30,0
164.16223,164.3252,56,40,0
164.3252,164.49069,58,33,0
164.49069,164.658,53,39,0
164.658,164.8253,58,33,0
164.8253,164.9926,55,41,0
164.9926,165.1599,58,33,0
165.1599,165.3272,56,41,0
165.3272,165.49449,58,33,0
165.49449,165.66156,50,40,0
165.66156,165.82784,58,28,0
165.82784,165.99329,53,33,0
165.99329,166.15794,58,27,0
166.15794,166.32184,51,38,0
166.32184,166.48502,58,34,0
166.48502,166.64815,50,38,0
166.64815,166.80731,58,34,0
166.80731,166.96646,51,46,0
166.96646,167.12561,58,39,0
167.12561,167.28476,53,48,0
167.28476,167.457,58,44,0
167.457,167.62552,51,55,0
167.62552,167.7889,58,43,0
167.7889,167.95038,53,52,0
167.95038,168.11185,58,37,0
168.11185,168.27576,55,46,0
168.27576,168.44194,58,33,0
168.44194,168.60924,51,44,0
168.60924,168.77654,58,39,0
168.77654,168.94383,53,41,0
168.94383,169.11113,58,33,0
169.11113,169.27843,55,41,0
169.27843,169.44572,58,33,0
169.44572,169.61153,51,40,0
169.61153,169.77621,58,28,0
169.77621,169.9399,55,33,0
169.9399,170.10258,58,27,0
170.10258,170.2643,51,40,0
170.2643,170.42506,58,31,0
170.42506,170.58508,51,43,0
170.58508,170.7434,58,38,0
170.7434,170.9017,55,52,0
170.9017,171.06001,58,45,0
171.06001,171.21832,51,54,0
171.21832,171.41313,58,47,0
171.41313,171.58394,53,52,0
171.58394,171.74725,58,43,0
171.74725,171.90955,56,51,0
171.90955,172.07082,58,40,0
172.07082,172.23283,53,46,0
172.23283,172.39648,58,37,0
172.39648,172.56099,53,37,0
172.56099,172.72539,58,31,0
172.72539,172.88977,56,39,0
172.88977,173.05415,58,31,0
173.05415,173.21854,53,39,0
173.21854,173.38155,58,31,0
173.38292,173.54718,50,40,0
173.54718,173.71088,58,32,0
173.71088,173.874,53,39,0
173.874,174.03648,58,29,0
174.03648,174.19841,50,45,0
174.19841,174.35979,58,36,0
174.35979,174.52065,50,48,0
174.52065,174.6798,58,40,0
174.6798,174.83894,53,53,0
174.83894,174.9981,58,45,0
174.9981,175.15724,50,60,0
175.15724,175.32948,58,50,0
175.50171,175.66902,51,43,0
175.66902,175.83525,50,61,0
175.83525,176.0015,51,48,0
176.0015,176.16774,50,60,0
176.16774,176.33998,51,50,0
176.33998,176.50674,43,67,0
176.50674,176.67194,51,45,0
176.67194,176.83714,44,59,0
176.83714,177.00233,51,51,0
177.00233,177.16963,46,60,0
177.16963,177.34187,51,44,0
177.34187,177.50917,44,65,0
177.50917,177.67647,51,49,0
177.67647,177.84271,46,60,0
177.84271,178.00896,51,47,0
178.00896,178.1752,48,59,0
178.1752,178.34743,51,48,0
178.34743,178.51367,45,67,0
178.51367,178.67992,51,49,0
178.67992,178.84616,46,59,0
178.84616,179.0124,51,47,0
179.0124,179.17863,48,57,0
179.17863,179.34976,51,44,0
179.34976,179.51547,46,64,0
179.51547,179.6812,55,46,0
179.6812,179.84691,51,57,0
179.84691,180.01263,55,45,0
180.01263,180.17834,46,56,0
180.17834,180.34781,55,56,0
180.34781,180.51527,46,64,0
180.51527,180.68047,53,46,0
180.68047,180.84567,50,56,0
180.84567,181.01086,53,45,0
181.01086,181.17636,46,58,0
181.17636,181.34433,53,53,0
181.34433,181.67542,51,64,0
181.34433,181.67542,39,64,0
183.31302,183.47978,43,67,0
183.47978,183.64499,51,45,0
183.64499,183.81018,44,50,0
183.81018,183.97537,51,47,0
183.97537,184.14267,46,54,0
184.14267,184.31491,51,44,0
184.31491,184.48167,43,67,0
184.48167,184.64688,51,45,0
184.64688,184.81207,44,50,0
184.81207,184.97728,51,47,0
184.97728,185.14458,46,54,0
185.14458,185.3168,51,44,0
185.3168,185.4841,44,65,0
185.4841,185.6514,51,45,0
185.6514,185.8158,46,59,0
185.8158,185.98018,51,42,0
185.98018,186.14456,48,58,0
186.14456,186.31679,51,45,0
186.31679,186.48303,45,67,0
186.48303,186.64928,51,45,0
186.64928,186.81366,46,60,0
186.81366,186.97804,51,47,0
186.97804,187.14243,48,58,0
187.14243,187.31354,51,44,0
187.31354,187.47978,46,67,0
187.47978,187.64238,51,53,0
187.64238,187.805,50,61,0
187.805,187.96759,51,48,0
187.96759,188.13019,47,61,0
188.13019,188.3013,51,49,0
188.3013,188.46754,48,71,0
188.46754,188.62971,51,52,0
188.62971,188.79187,50,63,0
188.79187,188.95403,51,55,0
188.95403,189.1162,45,66,0
189.1162,189.28731,51,49,0
189.28731,189.45355,46,77,0
189.45355,189.61528,51,56,0
189.61528,189.77701,49,66,0
189.77701,189.93872,51,54,0
189.93872,190.10045,47,67,0
190.10045,190.27156,51,56,0
190.27156,190.4378,48,77,0
190.4378,190.59953,51,58,0
190.59953,190.76126,50,63,0
190.76126,190.92299,51,58,0
190.92299,191.08472,45,71,0
191.08472,191.25583,51,65,0
191.25583,191.59805,46,82,0
191.59805,191.68361,55,87,0
191.59805,191.68361,51,77,0
191.59805,191.68361,46,77,0
192.61383,192.69939,54,87,0
192.61383,192.69939,48,77,0
192.61383,192.69939,51,77,0
193.63028,193.71584,51,77,0
193.63028,193.71584,46,77,0
193.63028,193.71584,55,87,0
194.64606,194.73161,45,77,0
194.64606,194.73161,57,87,0
194.64606,194.73161,51,77,0
194.64606,194.73161,54,77,0
195.66386,195.7486,51,77,0
195.66386,195.7486,46,77,0
195.66386,195.7486,58,87,0
195.66386,195.7486,55,77,0
197.33136,197.4953,58,81,0
197.4953,197.62198,55,77,0
197.6642,197.82993,55,82,0
197.82993,197.95784,51,77,0
198.00049,198.16673,51,83,0
198.16673,198.31483,46,77,0
199.06935,199.42915,53,59,0
198.36421,199.42915,46,92,0
198.36421,199.42915,34,78,0
199.06935,199.42915,56,70,0
199.42915,199.78894,39,67,0
199.42915,199.78894,55,79,0
200.13568,200.48242,45,51,0
200.48242,200.83858,44,51,0
200.83858,201.18532,43,49,0
201.18532,201.53789,41,49,0
199.78894,201.53789,46,51,0
201.53789,201.88577,39,51,0
201.88577,202.23366,43,47,0
202.23366,202.58154,46,47,0
202.58154,202.94135,34,51,0
202.94135,203.28809,41,48,0
203.28809,203.64066,46,48,0
203.64066,203.9874,39,67,0
204.33414,204.68088,45,51,0
204.68088,205.03702,44,51,0
205.03702,205.38376,43,49,0
205.38376,205.73633,41,49,0
203.9874,205.73633,46,51,0
205.73633,206.08421,39,51,0
206.08421,206.4321,43,47,0
206.4321,206.77998,46,47,0
206.77998,207.13979,34,51,0
207.13979,207.48653,41,48,0
207.48653,207.8391,46,48,0
207.8391,208.18584,39,51,0
208.18584,208.53258,43,47,0
208.53258,208.87932,46,47,0
208.87932,209.23912,34,51,0
209.23912,209.58586,41,48,0
209.58586,209.96109,46,48,0
209.96109,210.32214,39,51,0
210.32214,210.70699,43,47,0
210.70699,211.17189,46,47,0
211.17189,211.63678,55,44,0
211.17189,211.63678,51,40,0
212.56659,213.05753,48,59,0
212.56659,213.05753,60,70,0
212.56659,213.05753,55,59,0
212.56659,213.05753,52,59,0
215.19145,215.35822,67,41,0
215.19145,215.35822,64,34,0
215.525,216.20187,64,34,0
215.525,216.20187,67,41,0
216.20187,216.59453,68,38,0
216.20187,216.59453,65,32,0
216.60289,217.09383,68,41,0
216.60289,217.09383,65,34,0
219.21808,219.38484,68,41,0
219.21808,219.38484,65,34,0
219.5516,220.2285,65,34,0
219.5516,220.2285,68,41,0
220.2285,220.62115,70,38,0
220.2285,220.62115,67,32,0
220.62952,221.12045,70,41,0
220.62952,221.12045,67,34,0
224.58363,224.75171,53,40,0
224.75171,224.91931,60,32,0
224.91931,225.08641,56,34,0
225.08641,225.25307,60,32,0
225.25307,225.41924,53,34,0
225.41924,225.5849,60,32,0
225.5849,225.7502,53,40,0
225.7502,225.91548,60,33,0
225.91548,226.08076,56,34,0
226.08076,226.24606,60,32,0
226.24606,226.41135,53,35,0
226.41135,226.57664,60,32,0
226.57664,226.73969,55,40,0
226.73969,226.90273,60,32,0
226.90273,227.06577,58,34,0
227.06577,227.22882,60,32,0
227.22882,227.39879,55,37,0
227.39879,227.56876,60,32,0
227.56876,227.7336,52,32,0
227.7336,227.89842,60,32,0
227.89842,228.06326,55,35,0
228.06326,228.2281,60,32,0
228.2281,228.39854,52,37,0
228.39854,228.569,60,32,0
228.569,228.73294,48,40,0
228.73294,228.89688,60,31,0
228.89688,229.0608,52,36,0
229.0608,229.22475,60,32,0
229.22475,229.39424,55,38,0
229.39424,229.56372,60,33,0
229.56372,229.72766,52,45,0
229.72766,229.8916,60,35,0
229.8916,230.05553,55,38,0
230.05553,230.21947,60,31,0
230.21947,230.39645,58,37,0
230.39645,230.57344,60,31,0
230.57344,230.74059,53,45,0
230.74059,230.90771,60,31,0
230.90771,231.07484,56,36,0
231.07484,231.24197,60,31,0
231.24197,231.41438,53,36,0
231.41438,231.58679,60,31,0
231.58679,231.75487,53,40,0
231.75487,231.92293,60,30,0
231.92293,232.091,52,42,0
232.091,232.25906,53,40,0
232.25906,232.42714,51,49,0
232.42714,232.5952,53,43,0
232.5952,232.76328,49,52,0
232.76328,232.93088,53,38,0
232.93088,233.09796,48,43,0
233.09796,233.26462,53,32,0
233.26462,233.43079,49,38,0
233.43079,233.59647,53,32,0
233.59647,233.76175,46,45,0
233.76175,233.92705,53,33,0
233.92705,234.09233,48,34,0
234.09233,234.25763,53,32,0
234.25763,234.42291,49,35,0
234.42291,234.5882,53,32,0
234.5882,234.75125,48,46,0
234.75125,234.91429,53,32,0
234.91429,235.07733,51,34,0
235.07733,235.24037,53,32,0
235.24037,235.41035,48,37,0
235.41035,235.58032,53,32,0
235.58032,235.74515,45,40,0
235.74515,235.90999,53,32,0
235.90999,236.07483,48,35,0
236.07483,236.23965,53,32,0
236.23965,236.41011,45,37,0
236.41011,236.58057,53,32,0
236.58057,236.7445,41,40,0
236.7445,236.90843,53,31,0
236.90843,237.07237,45,45,0
237.07237,237.23631,53,37,0
237.23631,237.40579,48,46,0
237.40579,237.57529,53,39,0
237.57529,237.73923,45,51,0
237.73923,237.90315,53,44,0
237.90315,238.0671,48,38,0
238.0671,238.23103,53,31,0
238.23103,238.40802,51,37,0
238.40802,238.585,53,31,0
238.585,238.75214,46,45,0
238.75214,238.91927,53,31,0
238.91927,239.0864,49,36,0
239.0864,239.25354,53,31,0
239.25354,239.42595,46,36,0
239.42595,239.59836,53,31,0
239.59836,239.76643,46,40,0
239.76643,239.9345,53,30,0
239.9345,240.10257,49,33,0
240.10257,240.27063,53,30,0
240.27063,240.43869,46,33,0
240.43869,240.60677,53,30,0
240.60677,240.77483,44,40,0
240.77483,240.94058,54,32,0
240.94058,241.10632,51,48,0
241.10632,241.27206,54,40,0
241.27206,241.43782,44,51,0
241.43782,241.61023,54,46,0
241.61023,241.77783,44,52,0
241.77783,241.94542,54,40,0
241.94542,242.11302,48,40,0
242.11302,242.28062,54,35,0
242.28062,242.44821,44,40,0
242.44821,242.62213,54,34,0
242.62213,242.95454,53,40,0
242.62213,242.95454,49,40,0
243.6298,243.96039,68,45,0
243.96039,244.29097,66,38,0
244.29097,244.62805,63,38,0
244.62805,244.95862,65,45,0
244.95862,245.2892,64,38,0
245.2892,245.62628,66,38,0
245.62628,245.95686,65,45,0
245.95686,246.28745,63,38,0
246.28745,246.62453,60,38,0
246.62453,246.9551,61,45,0
246.9551,247.28568,60,38,0
247.28568,247.62276,63,38,0
247.62276,247.95334,61,45,0
247.95334,248.28392,60,38,0
248.28392,248.62099,57,38,0
248.62099,248.95248,58,45,0
248.95248,249.28957,61,37,0
249.28957,249.62665,56,37,0
249.62665,249.95998,55,45,0
249.95998,250.2933,58,43,0
250.2933,250.63814,53,48,0
250.63814,250.96964,52,53,0
250.96964,251.30112,55,44,0
251.30112,251.63539,50,44,0
251.63539,251.96687,48,52,0
251.96687,252.29837,50,44,0
252.29837,252.6364,52,44,0
252.6364,252.96881,53,53,0
252.96881,253.30121,56,45,0
253.30121,253.63362,51,45,0
253.63362,253.96696,50,45,0
253.96696,254.3003,53,43,0
254.3003,254.64513,48,48,0
254.64513,254.97661,47,56,0
254.97661,255.3081,50,46,0
255.3081,255.64236,45,46,0
255.64236,255.97386,43,55,0
255.97386,256.30536,45,48,0
256.30536,256.64337,47,48,0
256.64337,256.9758,48,62,0
256.9758,257.3082,51,52,0
257.3082,257.6406,46,52,0
257.6406,257.97394,44,61,0
257.97394,258.30728,48,53,0
258.30728,258.6521,43,53,0
258.6521,258.98358,41,61,0
258.98358,259.3151,44,53,0
259.3151,259.64935,39,53,0
259.64935,259.98267,38,70,0
259.98267,260.316,41,60,0
260.316,260.66083,36,60,0
260.66083,260.99234,35,70,0
260.99234,261.32382,38,60,0
261.32382,261.65808,33,60,0
261.65808,261.99234,31,66,0
261.99234,262.3266,33,57,0
262.3266,262.6581,35,57,0
262.6581,262.9933,36,62,0
262.9933,263.3285,38,57,0
263.3285,263.65997,39,62,0
263.65997,264.33414,41,57,0
264.33414,264.66382,42,50,0
264.66382,264.83237,43,57,0
265.0009,265.33798,55,54,0
266.00284,266.33804,55,45,0
267.00476,267.34088,55,46,0
268.00763,268.3447,55,47,0
269.0133,269.35135,43,47,0
270.0162,270.3514,43,39,0
271.01813,271.35425,43,38,0
272.021,272.3581,43,37,0
273.0267,273.36688,43,36,0
273.0267,273.36688,31,36,0
274.0682,274.44437,43,33,0
274.0682,274.44437,31,28,0
274.8776,275.36853,36,59,0
274.8776,275.36853,48,70,0
274.8776,275.36853,43,59,0
274.8776,275.36853,39,59,0
277.50244,277.66922,63,41,0
277.50244,277.66922,60,34,0
277.836,278.51288,60,34,0
277.836,278.51288,63,41,0
278.51288,278.90555,65,38,0
278.51288,278.90555,62,32,0
278.91388,279.40485,50,59,0
278.91388,279.40485,56,59,0
278.91388,279.40485,53,59,0
278.91388,279.40485,59,59,0
278.91388,279.40485,62,70,0
281.52908,281.69583,65,34,0
281.52908,281.69583,68,41,0
281.52908,281.69583,62,34,0
281.8626,282.5395,62,34,0
281.8626,282.5395,65,34,0
281.8626,282.5395,68,41,0
282.5395,282.96997,63,32,0
282.5395,282.96997,67,38,0
283.62866,283.98004,51,29,0
283.62866,283.98004,55,29,0
283.62866,283.98004,60,35,0
283.98004,284.6557,59,39,0
283.98004,284.6557,56,33,0
283.98004,284.6557,53,33,0
284.6557,285.05768,51,28,0
284.6557,285.05768,55,28,0
284.6557,285.05768,60,34,0
285.71637,286.06775,67,35,0
285.71637,286.06775,63,29,0
286.06775,286.74338,65,33,0
286.06775,286.74338,68,39,0
286.74338,287.09332,67,34,0
286.74338,287.09332,63,28,0
287.74374,288.08932,51,39,0
287.74374,288.08932,60,47,0
287.74374,288.08932,55,39,0
288.08932,288.75903,56,45,0
288.08932,288.75903,53,45,0
288.08932,288.75903,59,53,0
288.75903,289.08868,51,39,0
288.75903,289.08868,55,46,0
289.08868,289.7615,53,56,0
289.08868,289.7615,50,46,0
289.7615,290.11526,48,41,0
289.7615,290.11526,51,49,0
290.11526,290.46085,47,56,0
290.11526,290.46085,50,47,0
291.84808,292.20233,47,28,0
291.84808,292.20233,56,34,0
291.84808,292.20233,53,28,0
291.84808,292.20233,50,28,0
292.20233,292.2876,48,28,0
292.20233,292.2876,51,28,0
292.20233,292.2876,55,34,0
293.90906,294.26328,41,28,0
293.90906,294.26328,44,28,0
293.90906,294.26328,50,34,0
294.26328,294.34857,51,34,0
294.26328,294.34857,43,28,0
294.26328,294.34857,48,28,0
296.01044,296.18396,31,73,0
296.01044,296.18396,43,73,0
296.3647,296.52832,48,80,0
296.3647,296.52832,36,67,0
299.31342,300.31958,59,50,0
300.31958,301.32346,58,49,0
298.32846,301.32346,61,69,0
301.32346,302.32275,56,28,0
301.32346,302.32275,59,34,0
302.32275,303.33646,61,33,0
302.32275,303.33646,54,28,0
303.33646,304.33438,71,50,0
304.33438,305.33212,70,49,0
303.33646,305.33212,73,60,0
305.33212,306.3225,71,34,0
305.33212,306.3225,68,28,0
306.3225,307.318,73,33,0
306.3225,307.318,66,28,0
307.318,308.31815,68,50,0
308.31815,309.3179,66,49,0
307.318,309.3179,70,60,0
309.3179,310.3083,68,44,0
309.3179,310.3083,65,44,0
310.3083,311.31534,66,33,0
310.3083,311.31534,63,28,0
311.31534,312.31467,65,48,0
311.31534,312.31467,61,42,0
312.31467,313.32834,60,28,0
312.31467,313.32834,67,33,0
313.32834,314.342,59,33,0
314.342,314.68314,60,42,0
314.68314,315.01773,55,33,0
315.01773,315.35233,56,37,0
315.35233,315.68692,58,41,0
315.68692,316.01392,53,33,0
316.01392,316.35614,55,35,0
314.342,316.35614,48,33,0
316.35614,316.68854,56,42,0
316.68854,317.02097,52,33,0
317.02097,317.35336,53,33,0
317.35336,317.6858,55,40,0
317.6858,318.01364,50,33,0
318.01364,318.35587,52,33,0
316.35614,318.35587,48,42,0
318.35587,318.68738,53,39,0
318.68738,319.01886,55,33,0
319.01886,319.35034,57,36,0
319.35034,319.67206,58,40,0
319.67206,319.98785,54,33,0
319.98785,320.32028,55,33,0
318.35587,320.32028,48,39,0
320.32028,320.642,57,42,0
320.642,320.95694,52,33,0
320.95694,321.28836,53,33,0
321.28836,321.6136,55,40,0
321.6136,321.9277,50,33,0
321.9277,322.25446,52,33,0
320.32028,322.25446,48,42,0
322.25446,322.42154,53,40,0
322.42154,322.5878,60,28,0
322.5878,322.75327,57,33,0
322.75327,322.9179,60,27,0
322.9275,323.09183,55,33,0
323.08228,323.24518,60,30,0
323.24518,323.4064,53,38,0
323.4064,323.5664,60,28,0
323.5664,323.7264,55,43,0
323.7264,323.8864,60,38,0
323.8864,324.04642,57,51,0
324.04642,324.21866,60,41,0
324.21866,324.38785,55,53,0
324.38785,324.55182,60,40,0
324.55182,324.71454,57,45,0
324.71454,324.8763,60,35,0
324.8763,325.03925,58,40,0
325.03925,325.20477,60,33,0
325.20477,325.37207,55,39,0
325.37207,325.53937,60,33,0
325.53937,325.70667,57,41,0
325.70667,325.87396,60,33,0
325.87396,326.04126,58,41,0
326.04126,326.20856,60,33,0
326.20856,326.37564,52,40,0
326.37564,326.5419,60,28,0
326.5419,326.70734,55,33,0
326.70734,326.872,60,27,0
326.872,327.0359,53,33,0
327.0359,327.19907,60,30,0
327.19907,327.3622,52,38,0
327.3622,327.52136,60,28,0
327.52136,327.6805,53,47,0
327.6805,327.83966,60,41,0
327.83966,327.9988,55,49,0
327.9988,328.17105,60,40,0
328.17105,328.33957,53,54,0
328.33957,328.50296,60,43,0
328.50296,328.66443,55,45,0
328.66443,328.82593,60,37,0
328.82593,328.9898,57,46,0
328.9898,329.156,60,33,0
329.156,329.3233,53,44,0
329.3233,329.4906,60,39,0
329.50037,329.66766,55,41,0
329.6579,329.8252,60,33,0
329.8252,329.9925,57,41,0
329.9925,330.1598,60,33,0
330.1598,330.3256,53,40,0
330.3256,330.4903,60,28,0
330.4903,330.65396,57,33,0
330.65396,330.81665,60,27,0
330.81665,330.97836,53,34,0
330.97836,331.13913,60,31,0
331.13913,331.29913,53,40,0
331.29913,331.45746,60,36,0
331.45746,331.61575,57,48,0
331.61575,331.77408,60,40,0
331.77408,331.9324,53,51,0
331.9324,332.12286,60,42,0
332.12286,332.29367,55,59,0
332.29367,332.457,60,47,0
332.457,332.6193,58,46,0
332.6193,332.78055,60,38,0
332.78055,332.94257,55,46,0
332.94257,333.1062,60,37,0
333.1062,333.27072,55,44,0
333.27072,333.43512,60,37,0
333.43512,333.5995,58,47,0
333.5995,333.7639,60,37,0
333.7639,333.92825,55,47,0
333.92825,334.09128,60,37,0
334.09265,334.25693,52,40,0
334.25693,334.4206,60,32,0
334.4206,334.58374,55,39,0
334.58374,334.74622,60,29,0
334.74622,334.90814,52,40,0
334.90814,335.06952,60,31,0
335.06952,335.23038,52,46,0
335.23038,335.38953,60,41,0
335.38953,335.54868,55,52,0
335.54868,335.70782,60,40,0
335.70782,335.86697,52,57,0
335.86697,336.0392,60,44,0
336.0392,336.21146,53,45,0
336.21146,336.37875,60,36,0
336.37875,336.54498,55,49,0
336.54498,336.71124,60,42,0
336.71124,336.87747,56,51,0
336.87747,337.0497,60,44,0
337.0497,337.21732,53,47,0
337.21732,337.38034,60,37,0
337.38034,337.5434,55,41,0
337.5434,337.70645,60,37,0
337.70645,337.86948,56,41,0
337.86948,338.0444,60,37,0
338.0444,338.2097,55,51,0
338.2097,338.375,63,36,0
338.375,338.54028,60,41,0
338.54028,338.70557,63,36,0
338.70557,338.87085,55,41,0
338.87085,339.04425,63,36,0
339.04425,339.20956,55,47,0
339.20956,339.37485,62,36,0
339.37485,339.54196,59,42,0
339.54196,339.7091,62,34,0
339.7091,339.87766,55,40,0
339.87766,340.04764,62,35,0
340.04764,340.2147,48,60,0
340.2147,340.38098,55,37,0
340.38098,340.54642,51,52,0
340.54642,340.7111,55,36,0
340.72064,340.885,50,52,0
340.87546,341.03836,55,46,0
341.03836,341.1996,48,57,0
341.1996,341.3596,55,46,0
341.3596,341.5196,50,57,0
341.5196,341.67957,55,50,0
341.67957,341.83957,51,61,0
341.83957,342.0118,55,56,0
342.0118,342.18103,50,66,0
342.18103,342.34497,55,43,0
342.34497,342.50772,51,59,0
342.50772,342.66946,55,51,0
342.66946,342.83243,53,60,0
342.83243,342.99792,55,53,0
342.99792,343.16522,50,63,0
343.16522,343.33252,55,44,0
343.33252,343.49982,51,54,0
343.49982,343.6671,55,44,0
343.6671,343.8344,53,54,0
343.8344,344.0017,55,44,0
344.0017,344.1688,47,54,0
344.1688,344.33505,55,37,0
344.33505,344.50052,50,44,0
344.50052,344.66516,55,36,0
344.66516,344.82953,48,44,0
344.82953,344.99243,55,40,0
344.99243,345.15366,47,51,0
345.15366,345.31366,55,44,0
345.31366,345.47366,48,57,0
345.47366,345.63367,55,52,0
345.63367,345.79367,50,61,0
345.79367,345.9659,55,46,0
345.9659,346.1351,48,69,0
346.1351,346.29907,55,53,0
346.29907,346.46182,50,60,0
346.46182,346.62357,55,44,0
346.62357,346.7865,51,54,0
346.7865,346.95203,55,44,0
346.95203,347.11932,48,52,0
347.11932,347.28662,55,44,0
347.28662,347.45392,50,54,0
347.45392,347.62122,55,44,0
347.62122,347.7885,51,54,0
347.7885,347.9558,55,44,0
347.9558,348.1229,48,54,0
348.1229,348.28915,55,37,0
348.28915,348.4546,51,44,0
348.4546,348.61926,55,36,0
348.61926,348.78363,48,44,0
348.78363,348.94653,55,40,0
348.94653,349.10776,48,51,0
349.10776,349.26776,55,42,0
349.26776,349.42776,51,51,0
349.42776,349.58777,55,42,0
349.58777,349.74777,48,60,0
349.74777,349.91998,55,53,0
349.91998,350.0892,50,66,0
350.0892,350.25314,55,43,0
350.25314,350.4159,53,54,0
350.4159,350.57764,55,45,0
350.57764,350.7406,50,54,0
350.7406,350.9061,55,44,0
350.9061,351.0734,50,52,0
351.0734,351.2407,55,44,0
351.2407,351.408,53,54,0
351.408,351.5753,55,44,0
351.5753,351.74258,50,54,0
351.74258,351.9085,55,44,0
351.90988,352.07697,47,54,0
352.07697,352.24326,55,37,0
352.24326,352.4087,50,49,0
352.4087,352.57333,55,36,0
352.57333,352.7377,47,50,0
352.7377,352.9006,55,40,0
352.9006,353.06186,47,58,0
353.06186,353.22183,55,45,0
353.22183,353.38184,50,51,0
353.38184,353.54184,55,45,0
353.54184,353.70184,47,56,0
353.70184,353.87408,55,37,0
354.04633,354.21362,48,43,0
354.21362,354.37985,47,61,0
354.37985,354.5461,48,44,0
354.5461,354.71234,47,63,0
354.71234,354.88458,48,50,0
354.88458,355.05136,40,67,0
355.05136,355.21655,48,52,0
355.21655,355.38174,41,57,0
355.38174,355.54694,48,47,0
355.54694,355.71423,43,61,0
355.71423,355.88647,48,44,0
355.88647,356.05377,41,65,0
356.05377,356.22107,48,45,0
356.22107,356.38733,43,57,0
356.38733,356.55356,48,48,0
356.55356,356.7198,44,56,0
356.7198,356.89203,48,50,0
356.89203,357.0583,42,67,0
357.0583,357.22452,48,51,0
357.22452,357.39075,43,58,0
357.39075,357.557,48,49,0
357.557,357.72324,45,60,0
357.72324,357.89435,48,44,0
357.89435,358.0601,43,64,0
358.0601,358.2258,51,51,0
358.2258,358.3915,48,59,0
358.3915,358.55722,51,50,0
358.55722,358.72296,43,57,0
358.72296,358.8924,51,46,0
358.8924,359.05988,43,64,0
359.05988,359.22507,50,46,0
359.22507,359.39026,47,58,0
359.39026,359.55548,50,47,0
359.55548,359.72098,43,56,0
359.72098,359.88895,50,46,0
359.88895,360.22003,48,64,0
359.88895,360.22003,36,64,0
361.8576,362.02438,39,67,0
362.02438,362.18958,48,45,0
362.18958,362.3548,41,50,0
362.3548,362.52,48,47,0
362.52,362.6873,43,56,0
362.6873,362.85953,48,50,0
362.85953,363.02628,40,67,0
363.02628,363.19147,48,45,0
363.19147,363.3567,41,61,0
363.3567,363.52188,48,47,0
363.52188,363.68918,43,60,0
363.68918,363.86142,48,44,0
363.86142,364.02872,41,65,0
364.02872,364.196,48,45,0
364.196,364.36038,43,57,0
364.36038,364.52478,48,42,0
364.52478,364.68915,44,58,0
364.68915,364.8614,48,45,0
364.8614,365.02765,42,67,0
365.02765,365.19388,48,51,0
365.19388,365.35828,43,58,0
365.35828,365.52264,48,47,0
365.52264,365.68704,45,58,0
365.68704,365.85815,48,44,0
365.85815,366.02438,43,67,0
366.02438,366.18698,48,51,0
366.18698,366.34958,47,57,0
366.34958,366.51218,48,48,0
366.51218,366.6748,43,61,0
366.6748,366.84592,48,50,0
366.84592,367.01215,44,71,0
367.01215,367.17432,48,56,0
367.17432,367.3365,47,64,0
367.3365,367.49863,48,55,0
367.49863,367.6608,42,65,0
367.6608,367.8319,48,54,0
367.8319,367.99817,43,77,0
367.99817,368.15988,48,58,0
368.15988,368.3216,47,68,0
368.3216,368.48334,48,54,0
368.48334,368.64505,40,65,0
368.64505,368.81616,48,50,0
368.81616,368.98242,41,77,0
368.98242,369.14413,48,51,0
369.14413,369.30588,44,63,0
369.30588,369.4676,48,58,0
369.4676,369.6293,42,71,0
369.6293,369.8004,48,65,0
369.8004,370.14267,43,82,0
370.14267,370.2282,63,87,0
370.14267,370.2282,60,77,0
370.14267,370.2282,55,77,0
371.15845,371.244,63,87,0
371.15845,371.244,56,77,0
371.15845,371.244,60,77,0
372.1749,372.26044,60,77,0
372.1749,372.26044,55,77,0
372.1749,372.26044,63,87,0
373.19064,373.2762,54,77,0
373.19064,373.2762,60,77,0
373.19064,373.2762,63,87,0
374.20847,374.29318,60,77,0
374.20847,374.29318,63,87,0
374.20847,374.29318,55,77,0
375.87598,376.0399,60,81,0
376.0399,376.16656,55,77,0
376.2088,376.3745,55,82,0
376.3745,376.50244,51,77,0
376.54507,376.71133,51,83,0
376.71133,376.85944,48,77,0
377.61395,377.97375,50,59,0
376.9088,377.97375,43,92,0
376.9088,377.97375,31,78,0
377.61395,377.97375,53,70,0
377.97375,378.33356,36,67,0
377.97375,378.33356,51,79,0
378.6803,379.02704,42,51,0
379.02704,379.38318,41,51,0
379.38318,379.72992,39,49,0
379.72992,380.0825,38,49,0
378.33356,380.0825,43,51,0
380.0825,380.43036,36,51,0
380.43036,380.77826,39,47,0
380.77826,381.12616,43,47,0
381.12616,381.48593,31,51,0
381.48593,381.83267,38,48,0
381.83267,382.18524,43,48,0
382.18524,382.53198,36,67,0
382.87872,383.22546,42,51,0
383.22546,383.58163,41,51,0
383.58163,383.92838,39,49,0
383.92838,384.28094,38,49,0
382.53198,384.28094,43,51,0
384.28094,384.6288,36,51,0
384.6288,384.9767,39,47,0
384.9767,385.3246,43,47,0
385.3246,385.6844,31,51,0
385.6844,386.03113,38,48,0
386.03113,386.3837,43,48,0
386.3837,386.73044,36,51,0
386.73044,387.07718,39,47,0
387.07718,387.42392,43,47,0
387.42392,387.78372,31,51,0
387.78372,388.13046,38,48,0
388.13046,388.5057,43,48,0
388.5057,388.86676,36,51,0
389.6541,390.05664,43,71,0
389.6541,390.05664,31,60,0
389.6541,390.05664,35,60,0
389.6541,390.05664,38,60,0
390.91956,391.35104,48,71,0
390.91956,391.35104,36,60,0
390.91956,391.35104,39,60,0
390.91956,391.35104,43,60,0
