start_time,end_time,note_value,velocity,instrument_program_number
0.0,1.956522,57,42,0
1.956522,3.913044,61,40,0
3.913044,5.217392,69,40,0
3.913044,5.217392,73,48,0
5.217392,5.8915496,69,42,0
3.913044,5.8915496,61,40,0
3.913044,5.8915496,66,40,0
5.8915496,6.55089,69,47,0
5.8915496,6.55089,61,39,0
6.55089,7.189188,66,41,0
6.55089,7.189188,61,34,0
7.189188,7.8950706,61,34,0
7.189188,7.8950706,59,34,0
7.189188,7.8950706,65,34,0
7.189188,7.8950706,68,41,0
7.8950706,9.851592,61,42,0
7.8950706,9.851592,57,42,0
7.8950706,9.851592,66,42,0
7.8950706,9.851592,69,50,0
9.851592,11.15594,66,47,0
9.851592,11.15594,71,56,0
9.851592,11.15594,59,47,0
11.15594,11.8398485,62,46,0
11.15594,11.8398485,66,46,0
11.15594,11.8398485,74,55,0
11.845595,13.135919,66,52,0
11.845595,13.135919,74,62,0
11.845595,13.135919,62,52,0
13.135919,13.775703,61,48,0
13.135919,13.775703,73,57,0
13.135919,13.775703,66,48,0
13.78108,14.426242,61,53,0
13.78108,14.426242,73,64,0
13.78108,14.426242,66,53,0
14.426242,15.051242,77,60,0
14.426242,15.051242,65,49,0
14.426242,15.051242,71,49,0
14.426242,15.051242,73,49,0
15.051242,15.740896,78,68,0
15.051242,15.740896,73,57,0
15.051242,15.740896,69,52,0
15.051242,15.740896,66,52,0
15.740896,17.697418,68,61,0
15.740896,17.697418,73,61,0
15.740896,17.697418,80,72,0
17.697418,19.65394,68,43,0
17.697418,19.65394,71,43,0
17.697418,19.65394,74,51,0
20.937693,21.61951,62,42,0
19.65394,21.61951,68,42,0
19.65394,21.61951,71,42,0
19.65394,21.61951,74,50,0
21.61951,22.938192,73,43,0
21.61951,22.938192,69,36,0
21.61951,22.938192,61,36,0
22.938192,23.630053,71,42,0
22.938192,23.630053,59,35,0
22.938192,23.630053,62,35,0
22.938192,23.630053,65,35,0
23.635866,25.594658,71,48,0
23.635866,25.594658,59,40,0
23.635866,25.594658,62,40,0
23.635866,25.594658,65,40,0
25.613888,26.27323,71,47,0
25.613888,26.27323,59,39,0
25.613888,26.27323,65,39,0
25.613888,26.27323,62,39,0
26.27323,26.911528,69,41,0
26.27323,26.911528,66,34,0
26.27323,26.911528,57,34,0
26.27323,26.911528,61,34,0
26.911528,27.570868,68,41,0
26.911528,27.570868,56,34,0
26.911528,27.570868,62,34,0
26.911528,27.570868,66,34,0
27.570868,28.890312,68,48,0
27.570868,28.890312,66,40,0
27.570868,28.890312,56,40,0
27.570868,28.890312,63,40,0
28.9042,29.588108,68,43,0
28.9042,29.588108,63,36,0
28.9042,29.588108,56,36,0
28.9042,29.588108,66,36,0
29.593855,30.253197,68,53,0
29.593855,30.253197,63,45,0
29.593855,30.253197,66,45,0
29.593855,30.253197,56,45,0
30.253197,30.912537,69,49,0
30.253197,30.912537,66,40,0
30.253197,30.912537,63,40,0
30.253197,30.912537,57,40,0
30.912537,31.61842,66,52,0
30.912537,31.61842,54,42,0
30.912537,31.61842,57,42,0
30.912537,31.61842,63,42,0
31.61842,32.256718,63,44,0
32.256718,32.916058,60,45,0
32.916058,33.605713,61,46,0
31.61842,33.605713,54,44,0
31.61842,33.605713,57,44,0
31.61842,33.605713,66,53,0
33.605713,34.265053,61,46,0
33.605713,34.265053,56,36,0
33.605713,34.265053,65,55,0
33.605713,34.265053,53,36,0
34.265053,34.924393,68,57,0
34.924393,35.622066,71,59,0
35.622066,36.274242,65,50,0
36.274242,36.926414,68,50,0
35.622066,36.926414,71,60,0
35.622066,36.926414,62,50,0
36.926414,37.60255,66,45,0
36.926414,37.60255,69,50,0
36.926414,37.60255,61,45,0
37.608234,38.260406,66,48,0
37.608234,38.260406,61,48,0
37.608234,38.260406,69,58,0
38.260406,38.912582,62,42,0
38.260406,38.912582,65,42,0
38.260406,38.912582,68,51,0
38.260406,38.912582,59,42,0
38.912582,39.23867,57,42,0
39.23867,39.60904,60,42,0
38.912582,39.60904,63,42,0
38.912582,39.60904,66,51,0
39.60904,40.92772,60,50,0
39.60904,40.92772,63,50,0
39.60904,40.92772,66,60,0
39.60904,40.92772,57,50,0
40.92772,41.58706,56,45,0
40.92772,41.58706,61,45,0
40.92772,41.58706,65,50,0
41.58706,42.246403,65,66,0
42.246403,42.8847,68,60,0
42.8847,43.210785,71,63,0
43.210785,43.602234,74,63,0
42.8847,44.24382,68,42,0
42.8847,44.24382,65,42,0
44.24382,44.90316,68,36,0
43.605522,44.90316,74,72,0
43.605522,44.90316,71,50,0
44.24382,44.90316,65,36,0
44.90316,45.59502,69,48,0
44.90316,45.59502,73,54,0
44.90316,45.59502,66,48,0
45.937916,46.274994,66,46,0
45.600838,46.274994,69,46,0
45.600838,46.274994,73,55,0
46.274994,46.94915,65,39,0
46.274994,46.94915,62,39,0
46.274994,46.94915,68,39,0
46.274994,46.94915,71,47,0
46.94915,47.68372,63,39,0
46.94915,47.68372,60,39,0
46.94915,47.68372,66,39,0
46.94915,47.68372,69,47,0
48.35656,49.00172,63,44,0
47.68989,49.00172,66,45,0
47.68989,49.00172,69,54,0
48.35656,49.00172,60,44,0
49.00172,49.66283,68,44,0
49.00172,49.66283,65,38,0
49.00172,49.66283,61,38,0
49.668385,51.00172,61,35,0
49.668385,51.00172,65,35,0
49.668385,51.00172,68,43,0
51.00172,51.537434,61,34,0
51.00172,51.537434,67,39,0
51.00172,51.537434,64,34,0
51.537434,51.716003,67,53,0
51.716003,53.04934,83,65,0
53.04934,53.763622,81,62,0
53.763622,55.096954,79,65,0
55.096954,55.78661,78,64,0
53.763622,55.78661,67,55,0
55.78661,57.076935,76,65,0
57.076935,57.791218,78,63,0
55.78661,57.791218,67,55,0
57.791218,59.1099,79,65,0
57.791218,59.1099,67,55,0
59.1099,59.809902,66,64,0
59.815784,60.475124,66,60,0
60.475124,61.113422,69,53,0
60.475124,61.113422,66,45,0
61.113422,61.772762,73,51,0
61.113422,61.772762,69,43,0
61.113422,61.772762,66,43,0
61.772762,63.092205,68,45,0
61.772762,63.092205,65,45,0
61.772762,63.092205,73,54,0
63.106094,63.790005,65,36,0
63.106094,63.790005,68,36,0
63.106094,63.790005,73,43,0
63.79575,65.12908,73,48,0
63.79575,65.12908,65,40,0
63.79575,65.12908,68,40,0
65.12908,65.81299,66,36,0
65.12908,65.81299,69,43,0
65.81874,66.47259,69,47,0
65.81874,66.47259,66,37,0
66.47808,67.11638,66,45,0
66.47808,67.11638,61,37,0
67.11638,67.446045,65,44,0
67.11638,67.446045,68,44,0
67.446045,67.77572,69,47,0
67.446045,67.77572,66,47,0
67.11638,67.77572,61,44,0
68.40072,69.045876,62,50,0
67.77572,69.045876,71,51,0
67.77572,69.045876,68,51,0
69.045876,69.735535,69,58,0
69.045876,69.735535,66,47,0
69.045876,69.735535,61,47,0
69.735535,70.40969,69,60,0
70.40969,71.04799,68,57,0
69.735535,71.04799,62,51,0
69.735535,71.04799,65,51,0
69.735535,71.04799,59,51,0
71.04799,71.700165,57,45,0
71.04799,71.700165,63,45,0
71.04799,71.700165,66,54,0
71.700165,72.359505,66,60,0
71.700165,72.359505,57,50,0
72.359505,73.018845,64,56,0
72.359505,73.018845,55,50,0
73.018845,73.69498,65,56,0
73.018845,73.69498,56,50,0
71.700165,73.70066,61,50,0
73.70066,74.67915,65,59,0
73.70066,74.67915,61,50,0
73.70066,74.67915,56,50,0
74.67915,74.9983,68,60,0
74.9983,75.32439,71,63,0
75.32439,75.715836,74,66,0
75.719124,76.3713,62,36,0
75.719124,76.3713,71,50,0
75.719124,76.3713,68,36,0
75.719124,76.3713,65,36,0
76.3713,77.045456,68,36,0
76.3713,77.045456,65,36,0
75.719124,77.045456,74,71,0
77.045456,77.72727,73,54,0
77.045456,77.72727,69,48,0
77.72727,78.40143,73,55,0
78.40143,79.04316,71,47,0
77.72727,79.04316,68,39,0
77.72727,79.04316,62,39,0
77.72727,79.04316,65,39,0
79.04316,79.74121,69,47,0
79.04316,79.74121,66,39,0
79.04316,79.74121,63,39,0
79.74121,80.40788,60,44,0
79.74121,80.40788,63,44,0
80.40788,81.07455,63,39,0
79.74121,81.07455,69,54,0
79.74121,81.07455,66,45,0
80.40788,81.07455,60,39,0
81.07455,81.74121,68,44,0
81.07455,81.74121,65,38,0
81.07455,81.74121,61,38,0
81.74121,82.407875,68,43,0
81.74121,82.407875,61,35,0
81.74121,82.407875,65,35,0
82.407875,83.07455,67,39,0
82.407875,83.07455,64,34,0
83.07455,83.61026,62,34,0
83.61026,83.78883,67,53,0
83.78883,85.12216,83,65,0
85.10272,85.77104,81,60,0
85.79632,86.44148,81,65,0
86.44148,87.10082,79,46,0
86.44148,87.10082,91,65,0
87.10082,87.78473,90,64,0
87.10082,87.78473,78,54,0
87.79048,88.43564,78,58,0
87.79048,88.43564,90,69,0
88.43564,89.0808,88,67,0
88.43564,89.0808,76,56,0
89.0808,89.72754,90,71,0
89.0808,89.72754,78,60,0
89.73298,90.43065,78,63,0
89.73298,90.43065,90,75,0
90.43065,91.4199,79,61,0
90.43065,91.4199,91,72,0
91.4199,91.75417,66,57,0
91.4199,91.75417,78,64,0
91.75698,92.41632,78,54,0
91.75698,92.41632,66,54,0
92.41632,93.05462,69,52,0
92.41632,93.05462,81,52,0
93.05462,93.708466,73,59,0
93.05462,93.708466,85,59,0
93.71396,95.047295,85,62,0
93.71396,95.047295,73,62,0
95.047295,95.7312,73,57,0
95.047295,95.7312,85,57,0
95.736946,96.396286,73,53,0
95.736946,96.396286,85,63,0
96.396286,97.034584,86,62,0
96.396286,97.034584,74,52,0
97.034584,97.693924,79,56,0
97.034584,97.693924,67,47,0
97.693924,98.35327,71,53,0
97.693924,98.35327,83,63,0
98.35327,98.99157,73,57,0
98.35327,98.99157,61,48,0
98.99157,99.65091,77,56,0
98.99157,99.65091,65,47,0
99.65091,100.34858,66,53,0
99.65091,100.34858,78,63,0
100.34858,101.31655,85,68,0
100.34858,101.31655,73,57,0
101.31655,101.64622,80,49,0
101.31655,101.64622,68,41,0
101.64622,102.37793,69,45,0
101.64622,102.37793,81,53,0
102.37793,103.345894,81,54,0
102.37793,103.345894,69,45,0
103.345894,103.67557,77,44,0
103.345894,103.67557,65,37,0
107.34831,107.99867,73,44,0
108.00423,108.66534,73,44,0
108.67089,109.332,73,44,0
109.00423,109.66534,78,55,0
109.337555,109.99867,73,44,0
109.67089,110.337555,78,63,0
110.00423,110.661736,73,44,0
110.337555,110.996895,81,63,0
110.66723,111.335976,73,48,0
110.996895,111.68081,85,68,0
111.34173,111.686554,73,50,0
112.01622,112.67007,83,52,0
112.01622,112.67007,77,52,0
111.686554,113.03701,85,71,0
113.03701,113.36668,88,75,0
112.67557,113.36668,83,44,0
112.67557,113.36668,77,37,0
113.36668,113.69635,86,67,0
113.69635,114.35569,86,73,0
114.026024,114.67986,71,44,0
114.35569,115.01503,77,64,0
114.68536,115.33921,71,44,0
115.01503,115.67437,83,64,0
115.3447,116.019196,71,44,0
115.67437,116.36403,83,74,0
116.019196,116.6882,65,44,0
116.36403,117.042534,71,55,0
116.693695,117.36319,65,39,0
117.042534,117.36862,73,63,0
117.36862,117.69199,74,65,0
117.36862,118.01536,65,37,0
117.69471,118.346886,74,66,0
117.69471,118.346886,71,40,0
118.0208,118.346886,71,44,0
118.0208,118.667534,65,37,0
118.672966,119.31971,65,37,0
118.672966,119.31971,71,44,0
118.346886,119.32514,73,63,0
119.32514,119.65123,71,66,0
119.32514,119.65123,65,37,0
119.65123,119.984566,71,63,0
119.984566,120.65123,69,54,0
120.65123,121.317894,73,63,0
121.317894,121.87345,78,67,0
121.87345,122.09567,81,66,0
122.09567,122.537674,85,67,0
122.537674,122.757454,90,70,0
122.757454,122.977234,92,71,0
122.977234,123.20712,93,75,0
123.20712,123.437004,90,73,0
123.437004,123.66689,85,63,0
123.66689,123.837585,85,68,0
123.837585,124.00374,86,63,0
124.00374,124.08494,85,59,0
124.08494,124.1655,86,60,0
124.1655,124.24492,85,62,0
124.24492,124.323074,86,63,0
124.323074,124.40039,85,64,0
124.40039,124.477715,86,65,0
124.477715,124.632355,85,66,0
124.632355,124.81307,84,69,0
124.81307,124.9938,85,71,0
124.9938,125.21358,88,74,0
125.21358,125.43841,85,69,0
125.43841,125.66542,86,70,0
125.6683,125.88808,86,76,0
125.88808,126.10786,76,62,0
126.10786,126.32764,77,62,0
126.32764,126.54742,77,70,0
126.54742,126.774956,86,59,0
126.774956,127.00731,85,60,0
127.01025,127.23003,85,67,0
127.23003,127.44981,82,58,0
127.44981,127.66684,83,53,0
127.669586,127.842,83,59,0
127.842,128.01442,65,46,0
128.01442,128.18683,66,47,0
128.18683,128.35924,68,48,0
128.35924,128.52408,69,49,0
128.52408,128.68892,70,50,0
128.68892,128.86333,71,51,0
128.86333,129.03775,72,52,0
129.03775,129.25514,73,54,0
129.25514,129.47253,74,55,0
129.47253,129.68993,75,57,0
129.68993,129.90732,76,58,0
129.90732,130.12471,73,60,0
130.12471,130.33939,74,61,0
130.3421,130.50514,74,64,0
130.50514,130.66818,83,62,0
130.66818,130.83122,80,56,0
130.83122,130.99428,77,56,0
130.99428,131.15732,74,62,0
131.15732,131.32036,72,57,0
131.32036,131.4834,74,55,0
131.4834,131.64645,73,55,0
131.64645,132.31311,73,57,0
131.97978,132.64088,66,48,0
132.64645,133.31311,66,48,0
132.31311,133.31311,78,62,0
133.31311,133.64645,73,56,0
133.97978,134.63728,65,36,0
133.97978,134.63728,71,43,0
133.64645,134.97246,74,62,0
134.64278,135.31154,71,43,0
134.64278,135.31154,65,36,0
135.31728,135.66211,71,43,0
135.31728,135.66211,65,36,0
134.97246,135.66211,73,56,0
135.66211,135.88434,73,62,0
135.88434,136.10655,85,57,0
136.10655,136.32751,80,57,0
136.32751,136.48882,83,63,0
136.48882,136.6501,81,65,0
136.6501,136.81139,77,68,0
136.81139,136.97269,78,70,0
136.97269,137.13397,80,71,0
137.13397,137.29526,78,70,0
137.29526,137.40279,81,68,0
137.40279,137.51103,78,67,0
137.51378,137.62366,73,65,0
137.62091,137.95059,76,66,0
137.95059,138.28331,75,62,0
137.95059,138.6119,65,43,0
137.95059,138.6119,71,52,0
138.28331,138.61752,74,62,0
138.61752,139.28906,65,41,0
138.61752,139.28906,71,48,0
138.61752,139.28906,74,58,0
139.29474,139.63565,73,58,0
139.29474,139.63565,71,48,0
139.29474,139.63565,65,41,0
139.96898,140.63565,66,40,0
139.63565,140.63565,73,60,0
140.63565,141.27544,78,62,0
141.2808,142.57524,78,63,0
141.92596,142.58897,66,40,0
142.58897,143.24301,78,65,0
143.9083,144.58253,71,45,0
143.24863,144.58253,78,67,0
144.58253,145.22928,83,69,0
145.23471,146.54373,83,71,0
145.88689,146.55746,71,61,0
146.55746,147.21132,83,73,0
146.55746,147.21132,71,62,0
147.21689,147.87799,83,75,0
147.21689,147.87799,71,63,0
147.88354,148.54466,83,76,0
147.88354,148.54466,71,64,0
148.55022,149.21132,83,77,0
148.55022,149.21132,71,65,0
149.21689,149.54744,71,66,0
149.21689,149.90564,83,78,0
149.91167,150.57663,76,68,0
149.91167,150.57663,83,68,0
149.91167,150.57663,88,80,0
150.5823,151.27428,76,68,0
150.5823,151.27428,86,81,0
150.5823,151.27428,88,81,0
150.5823,151.27428,83,68,0
151.28023,151.68777,76,69,0
151.28023,151.68777,88,82,0
151.28023,151.68777,85,69,0
151.28023,151.68777,81,69,0
151.6912,152.01378,88,73,0
152.01378,152.33635,80,57,0
151.6912,152.33635,76,56,0
152.33635,152.65894,83,64,0
152.65894,152.98152,81,60,0
152.33635,152.98152,76,54,0
152.98152,153.3041,80,60,0
153.3041,153.65294,81,60,0
152.98152,153.97551,78,51,0
153.97551,154.2981,78,60,0
153.65294,154.2981,84,69,0
154.62068,154.94325,79,57,0
154.94325,155.26584,78,60,0
154.2981,155.26584,81,65,0
155.26584,155.61467,79,55,0
155.93726,156.25984,80,57,0
155.61467,156.25984,77,56,0
154.2981,156.25984,83,55,0
156.25984,156.58241,82,64,0
156.58241,156.905,81,60,0
156.905,157.22758,80,60,0
157.22758,157.57642,81,60,0
156.25984,157.899,76,54,0
157.899,158.22157,76,60,0
157.57642,158.22157,83,69,0
158.22157,158.54416,79,65,0
158.54416,158.86674,78,57,0
158.86674,159.18932,77,60,0
159.18932,159.53816,78,55,0
158.22157,159.86073,81,55,0
159.86073,160.18332,78,53,0
159.53816,160.18332,75,50,0
160.18332,160.5059,81,61,0
160.5059,160.82848,79,55,0
160.18332,160.82848,76,51,0
160.82848,161.15106,78,61,0
161.15106,161.49301,79,55,0
160.82848,161.4959,73,51,0
161.4959,161.81503,79,63,0
161.81503,162.13419,76,57,0
161.4959,162.13419,73,53,0
162.13419,162.45334,79,67,0
162.45334,162.77249,78,58,0
162.13419,162.77249,74,56,0
162.77249,163.09163,76,68,0
163.09163,163.45892,77,61,0
162.77249,163.79533,71,57,0
163.79533,164.12868,65,61,0
163.462,164.12868,77,71,0
164.12868,164.45476,70,68,0
164.45476,164.78084,69,59,0
164.12868,164.78084,76,68,0
164.12868,164.78084,64,57,0
164.78084,165.10693,68,69,0
165.10693,165.46408,69,60,0
164.78084,165.46408,74,69,0
164.78084,165.46408,66,58,0
165.46408,165.79375,73,67,0
165.79375,166.12341,76,62,0
165.46408,166.12341,79,74,0
166.12341,166.78276,74,60,0
166.12341,166.78276,78,71,0
166.78276,167.47829,71,58,0
166.78276,167.47829,77,58,0
167.47829,168.14494,74,61,0
166.78276,168.14494,83,69,0
167.47829,168.14494,71,61,0
167.47829,168.14494,80,72,0
168.14494,168.84413,81,74,0
168.14494,168.84413,69,62,0
168.14494,168.84413,74,62,0
168.84413,169.5183,74,80,0
169.5183,170.19244,79,82,0
169.5183,170.19244,74,82,0
168.84413,170.19244,86,91,0
170.19244,170.89539,79,73,0
170.19244,170.89539,76,73,0
170.19244,170.89539,73,73,0
170.19244,170.89539,85,87,0
170.89539,172.72281,88,80,0
170.89539,172.72281,85,78,0
170.89539,172.72281,79,78,0
170.89539,172.72281,91,95,0
172.72281,173.07574,67,50,0
173.07574,173.43152,64,54,0
173.43152,173.78867,70,45,0
173.78867,174.14972,68,52,0
174.14972,174.5139,69,45,0
174.5139,174.89963,64,50,0
174.89963,175.30989,71,45,0
175.30989,175.7291,69,49,0
175.7291,176.1564,67,45,0
176.1564,176.82307,66,49,0
177.48975,179.48975,38,58,0
179.48975,179.80225,38,52,0
179.80225,180.14706,33,46,0
180.14706,182.0899,33,52,0
182.09566,183.39212,33,52,0
183.39761,184.08443,33,52,0
184.08443,184.73659,30,52,0
185.41075,187.37459,74,53,0
185.41075,187.37459,86,61,0
187.37459,187.68387,74,48,0
187.37459,187.68387,86,55,0
187.68387,188.02583,69,42,0
187.68387,188.02583,81,48,0
188.0287,189.97841,69,48,0
188.0287,189.97841,81,55,0
189.98415,191.28061,69,48,0
189.98415,191.28061,81,55,0
191.2861,191.97292,69,48,0
191.2861,191.97292,81,55,0
191.97292,192.63959,66,45,0
191.97292,192.63959,78,53,0
193.29176,194.6126,38,58,0
194.61809,195.27194,38,56,0
195.27744,195.50732,38,56,0
195.50732,195.74727,37,50,0
195.74727,195.93477,38,50,0
195.99727,197.28958,33,52,0
197.2949,198.60275,33,52,0
198.6083,199.93318,33,52,0
199.93318,200.59985,30,52,0
201.27077,202.58395,74,61,0
201.27077,202.58395,86,70,0
202.58945,203.2433,86,70,0
202.58945,203.2433,74,61,0
203.2488,203.46654,74,59,0
203.2488,203.46654,86,68,0
203.46384,203.68631,73,53,0
203.46384,203.68631,85,60,0
203.68631,203.85873,86,60,0
203.68631,203.9162,74,53,0
203.9162,205.21532,81,67,0
203.9162,205.21802,69,59,0
205.2207,206.52159,81,70,0
205.2207,206.52159,69,62,0
206.52715,207.62103,81,70,0
206.52715,207.62103,69,61,0
207.62103,207.85913,79,50,0
207.62103,207.85913,67,45,0
207.85913,208.50429,78,50,0
207.85913,208.50429,66,50,0
208.50429,208.71481,66,40,0
208.71481,208.92534,76,40,0
208.92534,209.13586,74,40,0
209.13586,209.34639,73,50,0
209.34639,209.55692,71,41,0
209.55692,209.78947,69,43,0
208.50429,209.78947,78,50,0
209.78947,210.00224,67,50,0
210.00224,210.21501,70,42,0
210.21501,210.42778,69,42,0
210.42778,210.62778,67,50,0
210.62778,210.83185,69,40,0
210.83185,211.03593,71,40,0
211.03593,211.24002,73,50,0
211.24002,211.4441,74,41,0
211.4441,211.67137,76,41,0
209.78947,211.67137,79,50,0
211.67137,212.31653,81,50,0
211.67137,212.31653,69,50,0
212.31653,212.52705,69,42,0
212.52705,212.7376,79,42,0
212.7376,212.94812,78,43,0
212.94812,213.15865,76,55,0
213.15865,213.36917,74,45,0
213.36917,213.60173,72,48,0
212.31653,213.60173,81,52,0
213.60173,213.81448,71,57,0
213.81448,214.02725,74,48,0
214.02725,214.24002,72,49,0
214.24002,214.44002,71,60,0
214.44002,214.6441,72,48,0
214.6441,214.84819,74,49,0
214.84819,215.05226,76,62,0
215.05226,215.25635,78,51,0
213.60173,215.48363,83,57,0
215.25635,215.69867,79,52,0
215.69867,215.91373,79,53,0
215.91373,216.12878,78,54,0
215.48363,216.12878,85,65,0
216.12878,216.33931,76,54,0
216.33931,216.54984,74,54,0
216.54984,216.76036,73,55,0
216.76036,216.97089,74,70,0
216.97089,217.18141,76,57,0
217.18141,217.41397,78,61,0
216.76036,217.41397,86,70,0
217.41397,217.62674,76,72,0
217.62674,217.83951,82,61,0
217.83951,218.05228,81,62,0
218.05228,218.25227,79,75,0
218.25227,218.45636,78,60,0
218.45636,218.66043,76,61,0
217.41397,218.66043,88,77,0
218.66043,218.86452,78,77,0
218.86452,219.0686,79,63,0
219.0686,219.29587,81,64,0
218.66043,219.29587,90,83,0
219.29587,219.50864,79,72,0
219.50864,219.7214,78,61,0
219.7214,219.93417,76,62,0
219.29587,219.93417,91,88,0
219.93417,220.13417,75,63,0
220.13417,220.33826,74,51,0
220.33826,220.54233,75,51,0
219.93417,220.54233,81,74,0
220.54233,220.74641,74,65,0
220.74641,220.9505,72,53,0
220.9505,221.17776,71,54,0
220.54233,221.17776,83,70,0
221.17776,221.39053,74,53,0
221.39053,221.6033,73,48,0
221.6033,221.81607,71,47,0
221.81607,222.03584,68,52,0
222.03584,222.25563,69,46,0
222.25563,222.4754,71,45,0
221.17776,222.4754,77,70,0
222.4754,222.69698,73,47,0
222.69698,222.95462,70,44,0
222.95462,223.24448,69,43,0
222.4754,223.24448,76,58,0
223.24448,225.31343,81,61,0
223.24448,225.31343,75,51,0
225.31343,226.687,71,44,0
225.31343,226.687,78,44,0
225.31343,226.687,83,52,0
226.69275,227.3824,71,43,0
226.69275,227.3824,75,43,0
226.69275,227.3824,78,51,0
227.3824,227.72723,81,61,0
227.72723,228.07205,78,57,0
228.07205,228.41689,79,66,0
228.07205,228.41689,91,66,0
228.41689,228.7617,83,62,0
228.41689,228.7617,71,62,0
228.7617,229.10262,78,69,0
228.7617,229.10262,90,69,0
229.10262,229.47762,76,62,0
229.10262,229.47762,88,62,0
229.47762,229.82245,74,62,0
229.82245,230.16728,77,65,0
230.16728,230.50061,79,69,0
230.50061,230.83394,78,64,0
229.47762,230.83394,86,52,0
230.83394,231.16727,76,54,0
230.83394,231.16727,73,54,0
230.83394,231.16727,81,54,0
230.83394,231.16727,85,64,0
231.16727,231.50061,75,58,0
231.16727,231.50061,72,58,0
231.16727,231.50061,81,58,0
231.16727,231.50061,84,69,0
231.50061,231.65851,81,61,0
231.65851,231.81639,78,71,0
231.81639,231.97429,75,69,0
231.97429,232.13219,72,68,0
231.50061,232.13219,84,72,0
232.13219,232.29008,69,56,0
232.29008,232.44798,66,61,0
232.44798,232.6074,63,59,0
232.6074,232.76753,60,58,0
232.76753,232.92882,69,60,0
232.92882,233.09137,63,48,0
232.13219,233.09137,72,66,0
233.09137,233.25462,62,48,0
233.09137,233.25462,59,40,0
233.25462,233.45198,67,48,0
233.09137,233.45198,71,48,0
233.45198,234.78532,62,35,0
233.45198,234.78532,58,35,0
233.45198,234.78532,70,41,0
233.45198,234.78532,67,35,0
235.44157,235.64565,66,51,0
235.64565,235.84973,62,55,0
235.84973,236.08783,57,55,0
235.44157,236.08783,69,61,0
236.08783,236.23935,66,51,0
236.23935,236.39085,62,54,0
236.39085,236.54237,57,55,0
236.54237,236.71368,66,55,0
236.71368,236.85889,66,63,0
236.85889,237.00705,62,54,0
236.08783,237.00705,69,61,0
237.00705,237.15819,65,50,0
237.15819,237.36484,62,50,0
237.00705,237.36484,68,59,0
237.36484,238.01158,67,57,0
237.36484,238.01158,64,48,0
237.36484,238.01158,58,48,0
237.36484,238.01158,55,48,0
241.264,242.56895,66,45,0
241.264,242.56895,63,38,0
242.58269,243.22943,71,42,0
242.58269,243.22943,66,36,0
242.58269,243.22943,63,36,0
243.23486,244.54013,66,38,0
243.23486,244.54013,59,38,0
243.23486,244.54013,63,38,0
243.23486,244.54013,71,45,0
244.55418,245.20091,66,36,0
244.55418,245.20091,63,36,0
244.55418,245.20091,59,36,0
244.55418,245.20091,71,44,0
245.20636,245.83932,71,45,0
245.20636,245.83932,59,38,0
245.20636,245.83932,64,38,0
245.84465,247.20195,69,41,0
245.84465,247.20195,57,35,0
245.84465,247.20195,64,35,0
245.84465,247.20195,61,35,0
247.21648,248.54982,69,41,0
247.21648,248.54982,57,35,0
247.21648,248.54982,66,35,0
247.21648,248.54982,62,35,0
248.54982,249.21648,66,33,0
249.21648,250.54982,57,42,0
250.54982,251.29056,69,36,0
251.29056,252.60924,66,40,0
252.60924,253.26857,81,49,0
252.60924,253.26857,78,49,0
252.60924,253.26857,90,59,0
253.26857,254.58727,88,63,0
253.26857,254.58727,76,53,0
253.26857,254.58727,79,53,0
254.58727,255.2411,79,43,0
254.58727,255.2411,81,51,0
254.58727,255.2411,76,43,0
254.58727,255.2411,69,43,0
255.2466,256.57993,78,45,0
255.2466,256.57993,81,54,0
255.2466,256.57993,69,45,0
256.57993,257.2466,78,43,0
257.2466,258.57993,69,50,0
258.57993,259.29422,81,47,0
258.57993,259.29422,69,39,0
259.29422,260.61288,66,45,0
259.29422,260.61288,78,54,0
260.61288,261.27225,81,48,0
260.61288,261.27225,69,40,0
261.27225,262.55658,71,47,0
261.27225,262.55658,83,56,0
261.27225,262.55658,79,56,0
262.55658,263.2159,73,45,0
262.55658,263.2159,85,54,0
262.55658,263.2159,76,45,0
262.55658,263.2159,79,45,0
263.2159,265.19394,86,60,0
263.2159,265.19394,74,50,0
263.2159,265.19394,78,50,0
265.19394,267.13144,76,56,0
265.19394,267.13144,85,56,0
265.19394,267.13144,88,68,0
267.15045,268.4548,85,62,0
267.15045,268.4548,88,73,0
267.15045,268.4548,76,62,0
268.4548,269.0931,78,59,0
268.4548,269.0931,90,70,0
268.4548,269.0931,87,70,0
269.0931,269.7392,88,75,0
269.0931,269.7392,79,63,0
269.0931,269.7392,91,75,0
269.74454,270.38925,81,68,0
269.74454,270.38925,93,80,0
269.74454,270.38925,88,80,0
270.3948,271.06876,81,72,0
270.3948,271.06876,88,72,0
270.3948,271.06876,93,85,0
270.3948,271.06876,91,85,0
271.07455,271.71286,81,62,0
271.07455,271.71286,93,74,0
271.71286,272.3189,81,55,0
271.71286,272.3189,69,46,0
272.3189,272.9519,78,55,0
272.3189,272.9519,66,46,0
272.9572,273.59552,78,60,0
272.9572,273.59552,66,51,0
273.59552,274.23383,74,55,0
273.59552,274.23383,62,46,0
274.23383,274.89316,76,56,0
274.23383,274.89316,64,47,0
274.89316,276.74924,78,60,0
274.89316,276.74924,66,51,0
276.74924,277.97372,79,60,0
276.74924,277.97372,67,51,0
277.97372,278.62756,83,63,0
277.97372,278.62756,71,53,0
278.63306,279.90967,83,67,0
278.63306,279.90967,79,56,0
278.63306,279.90967,71,56,0
279.90967,280.5635,70,55,0
279.90967,280.5635,82,65,0
279.90967,280.5635,79,55,0
280.569,281.194,82,65,0
280.569,281.194,70,55,0
281.194,281.819,76,54,0
281.194,281.819,88,64,0
281.819,282.1315,77,56,0
281.819,282.1315,89,66,0
282.1315,282.47742,90,68,0
282.1315,282.47742,78,57,0
282.48032,284.37506,78,58,0
282.48032,284.37506,90,69,0
284.37506,284.68756,75,68,0
284.68756,285.00006,78,70,0
285.00006,285.3141,80,69,0
285.3141,285.63184,87,73,0
285.63184,285.95383,90,74,0
285.95383,286.28052,92,76,0
286.28052,288.25854,77,60,0
286.28052,288.25854,65,51,0
288.25854,288.91788,68,51,0
288.91788,289.54947,77,57,0
288.25854,289.54947,80,60,0
289.54947,290.22363,78,45,0
289.54947,290.22363,80,61,0
290.22363,290.8758,80,58,0
290.8758,291.5074,73,60,0
291.5074,292.16122,73,60,0
290.22363,292.16672,85,69,0
292.16672,292.81888,73,57,0
292.81888,293.45047,69,56,0
292.16672,293.45047,81,68,0
293.45047,294.13437,78,60,0
293.45047,294.1401,66,51,0
293.45047,294.1401,73,51,0
294.1401,294.7923,78,62,0
294.7923,295.4306,87,70,0
294.1401,295.4306,90,73,0
295.4306,296.09912,90,70,0
295.4306,296.09912,87,70,0
295.4306,296.09912,78,59,0
296.10474,296.75693,90,76,0
296.10474,296.75693,87,76,0
296.10474,296.75693,78,64,0
296.75693,297.3885,78,62,0
296.75693,297.3885,80,62,0
296.75693,297.3885,87,73,0
297.3885,298.04068,77,62,0
297.3885,298.04068,80,62,0
297.3885,298.04068,85,73,0
298.04068,299.30383,77,62,0
298.04068,299.30383,80,62,0
299.30383,299.59332,80,70,0
299.61963,299.96445,77,67,0
298.04068,299.96445,83,73,0
299.96445,300.28024,50,61,0
300.28024,300.59604,53,60,0
300.59604,300.90216,58,62,0
300.90216,301.20828,62,64,0
301.20828,301.52744,65,67,0
301.52744,301.84125,70,69,0
301.8466,303.0971,82,73,0
301.8466,303.0971,70,62,0
303.0971,303.74387,79,67,0
303.0971,303.74387,67,56,0
303.7493,304.3743,79,73,0
303.7493,304.3743,67,62,0
304.3743,305.01944,75,68,0
304.3743,305.01944,63,57,0
305.01944,305.34555,65,57,0
305.34555,305.67163,68,68,0
305.01944,305.67163,74,57,0
305.01944,305.67163,70,57,0
305.01944,305.67163,77,68,0
305.67163,306.9482,75,62,0
305.67163,306.9482,79,73,0
305.67163,306.9482,67,62,0
305.67163,306.9482,70,62,0
306.9482,307.60757,71,62,0
306.9482,307.60757,83,73,0
307.60757,308.87085,68,63,0
307.60757,308.87085,80,75,0
308.87085,309.52304,65,57,0
308.87085,309.52304,77,68,0
309.52304,310.8068,73,71,0
309.52304,310.8068,85,84,0
310.8068,311.48096,82,78,0
310.8068,311.48096,70,66,0
311.48096,312.7441,67,68,0
311.48096,312.7441,79,81,0
313.07376,313.40344,67,33,0
313.07376,313.40344,63,27,0
312.7441,313.40344,75,54,0
313.40344,314.04175,68,39,0
313.40344,314.04175,63,39,0
313.40344,314.6733,71,46,0
314.6733,315.33267,68,52,0
315.33267,316.6028,76,58,0
316.6028,317.2695,73,56,0
317.2695,318.53937,70,60,0
318.53937,319.1987,90,80,0
318.53937,319.1987,78,68,0
319.1987,320.46887,87,87,0
319.1987,320.46887,75,73,0
320.46887,321.13553,84,83,0
320.46887,321.13553,72,70,0
321.13553,322.40543,92,87,0
321.13553,322.40543,80,74,0
322.40543,323.06476,88,80,0
322.40543,323.06476,76,68,0
323.06476,324.3349,85,87,0
323.06476,324.3349,73,73,0
324.3349,325.0016,69,53,0
324.3349,325.0016,57,45,0
325.0016,325.6266,57,43,0
325.0016,326.27145,66,51,0
326.27145,326.9308,63,56,0
326.9308,328.20096,83,63,0
328.20096,328.8676,80,53,0
328.8676,330.1375,77,51,0
330.1375,330.79684,73,54,0
330.1375,330.79684,85,59,0
330.79684,331.11942,73,51,0
331.11942,331.7493,78,51,0
331.75452,332.06702,69,51,0
330.79684,332.06702,81,60,0
332.06702,332.73367,74,50,0
332.06702,332.73367,86,56,0
332.73367,334.06702,71,47,0
332.73367,334.06702,83,56,0
334.06702,334.73367,80,50,0
334.06702,334.73367,68,42,0
334.73367,336.0659,65,39,0
334.73367,336.0659,77,46,0
336.0659,336.74155,71,37,0
336.0659,336.74155,68,37,0
336.0659,336.74155,65,37,0
336.0659,336.74155,74,44,0
336.74728,338.11224,68,27,0
336.74728,338.11224,71,39,0
336.74728,338.11224,65,27,0
336.74728,338.11224,62,27,0
338.12662,338.81052,65,25,0
338.12662,338.81052,68,36,0
338.12662,338.81052,59,25,0
338.12662,338.81052,62,25,0
338.81625,340.25623,62,24,0
338.81625,340.25623,65,34,0
338.81625,340.25623,56,24,0
338.81625,340.25623,59,24,0
340.27225,341.21445,59,21,0
340.27225,341.21445,62,30,0
340.27225,341.21445,53,21,0
340.27225,341.21445,56,21,0
341.21445,341.37747,59,30,0
341.37747,341.54053,56,30,0
341.54053,341.70355,53,30,0
341.70355,341.8666,50,30,0
341.8666,342.02966,47,30,0
342.02966,342.1927,44,30,0
342.1927,342.3542,47,30,0
342.3542,342.51376,50,35,0
342.51376,342.67334,53,30,0
342.67334,342.8329,56,30,0
342.8329,342.99353,59,30,0
342.99353,343.15482,62,36,0
342.99353,343.15482,59,30,0
343.15482,343.3161,65,30,0
343.3161,343.47754,68,30,0
343.47754,343.6406,71,30,0
343.6406,343.81104,71,29,0
343.6406,343.81104,74,35,0
343.81104,343.9815,77,30,0
343.9815,344.15195,80,30,0
344.15195,344.34326,83,30,0
344.34326,344.52255,86,32,0
344.52255,344.69827,84,28,0
344.69827,344.87186,86,28,0
344.87186,345.0425,85,28,0
344.34326,345.0425,81,22,0
345.0425,345.21106,86,35,0
345.21106,345.37958,73,24,0
345.37958,345.54813,86,28,0
345.54813,345.71667,85,28,0
345.0425,345.71667,81,24,0
345.71667,345.8852,73,22,0
345.8852,346.05374,85,28,0
346.05374,346.2223,86,28,0
346.2223,346.39084,85,28,0
345.71667,346.39084,81,32,0
346.39084,346.55936,83,28,0
346.55936,346.7279,69,24,0
346.7279,346.89645,83,28,0
346.89645,347.09125,81,26,0
347.09125,347.25607,69,28,0
347.25607,347.42093,81,28,0
347.42093,347.58575,83,28,0
347.58575,347.75058,81,28,0
347.75058,347.91913,80,34,0
347.91913,348.08768,66,24,0
348.08768,348.2562,80,28,0
348.2562,348.4437,78,28,0
348.4437,348.60855,68,28,0
348.60855,348.77338,80,28,0
348.77338,348.9382,81,26,0
348.9382,349.10306,80,26,0
349.10306,349.26788,69,31,0
349.26788,349.43454,81,31,0
349.43454,349.60123,83,29,0
349.60123,349.76788,81,30,0
349.76788,349.93454,83,39,0
349.93454,350.10123,70,28,0
350.10123,350.26788,83,35,0
350.26788,350.43454,82,35,0
350.43454,350.60123,71,36,0
350.60123,350.76788,83,37,0
350.76788,350.93454,85,37,0
350.93454,351.10123,83,38,0
351.10123,351.26788,85,49,0
351.26788,351.43454,83,40,0
351.43454,351.60123,71,34,0
351.60123,351.76788,83,42,0
351.76788,351.93454,71,42,0
351.93454,352.10123,83,44,0
352.10123,352.26788,85,42,0
352.26788,352.46268,83,42,0
352.46268,352.63123,88,55,0
352.63123,352.79977,86,46,0
352.79977,352.9683,74,40,0
352.9683,353.13684,86,48,0
353.13684,353.2999,74,50,0
353.2999,353.46292,86,50,0
353.46292,353.62598,88,51,0
353.62598,353.78903,86,51,0
353.78903,353.95386,88,60,0
353.95386,354.11868,86,43,0
354.11868,354.28354,74,52,0
354.28354,354.4734,86,53,0
354.4734,354.64194,73,52,0
354.64194,354.8105,85,54,0
354.8105,354.979,86,54,0
354.979,355.14755,85,55,0
355.14755,355.3161,86,68,0
355.3161,355.48462,85,56,0
355.48462,355.65317,73,47,0
355.65317,355.82172,85,56,0
355.82172,355.98837,83,57,0
355.82172,355.98837,77,43,0
355.98837,356.15506,89,57,0
356.15506,356.32172,90,58,0
356.32172,356.50922,89,58,0
356.50922,356.67587,92,70,0
356.67587,356.84256,90,59,0
356.84256,357.00922,78,50,0
356.84256,357.00922,81,50,0
357.00922,357.19672,90,60,0
357.19672,357.36154,93,68,0
357.36154,357.5264,92,61,0
357.5264,357.69122,80,61,0
357.69122,357.85605,92,61,0
358.01733,358.18402,92,51,0
358.18402,358.35068,80,60,0
358.35068,358.51733,92,55,0
358.68402,358.85068,92,54,0
358.85068,359.01733,80,59,0
359.01733,359.20026,92,55,0
359.3633,359.52637,80,53,0
359.52637,359.6894,88,64,0
359.6894,359.85245,86,53,0
359.85245,360.0191,85,61,0
360.0191,360.1858,86,61,0
360.1858,360.35245,80,57,0
360.35245,360.5191,86,57,0
360.6858,360.85245,86,56,0
360.85245,361.0191,80,64,0
361.0191,361.1858,86,56,0
361.1858,361.35245,74,61,0
361.35245,361.5191,85,54,0
361.5191,361.6858,88,58,0
361.6858,361.87808,86,53,0
361.87808,362.04663,85,66,0
362.04663,362.21515,86,51,0
362.21515,362.3837,74,61,0
362.3837,362.55225,86,54,0
362.55225,362.71707,74,63,0
362.71707,362.88193,86,57,0
362.88193,363.04675,88,64,0
363.04675,363.2061,86,57,0
363.21158,363.37823,86,66,0
363.37823,363.54492,85,53,0
363.54492,363.71158,73,59,0
363.71158,363.8945,85,51,0
363.8945,364.06305,84,50,0
364.06305,364.2316,85,49,0
364.2316,364.40012,73,48,0
364.40012,364.56866,85,47,0
364.56866,364.7335,82,55,0
364.7335,364.89835,83,46,0
364.89835,365.06317,71,37,0
365.06317,365.228,83,44,0
365.228,365.39468,71,50,0
365.39468,365.56134,83,44,0
365.56134,365.728,85,45,0
365.728,365.91318,83,46,0
365.91318,366.08173,82,55,0
366.08173,366.25027,83,48,0
366.25027,366.41882,71,43,0
366.41882,366.58734,83,51,0
366.58734,366.7559,71,56,0
366.7559,366.92444,83,54,0
366.92444,367.09296,85,55,0
367.09296,367.2615,83,56,0
367.43005,367.59857,85,49,0
367.59857,367.76712,71,43,0
367.76712,367.95462,83,49,0
368.1159,368.2772,83,45,0
368.2772,368.4385,69,43,0
368.4385,368.5998,81,43,0
368.76282,368.92587,81,49,0
368.92587,369.08893,68,47,0
369.08893,369.25195,80,54,0
369.25195,369.415,68,54,0
369.415,369.57803,80,54,0
369.57803,369.7411,79,51,0
369.7411,369.90414,80,51,0
369.90414,370.06717,81,61,0
370.06717,370.23022,80,43,0
370.23022,370.39328,68,52,0
370.39328,370.5563,80,52,0
370.5563,370.71936,68,50,0
370.71936,370.8824,80,51,0
370.8824,371.04544,81,51,0
371.04544,371.2085,80,50,0
371.2085,371.37152,81,61,0
371.37152,371.53458,80,50,0
371.53458,371.6976,68,41,0
371.6976,371.89243,80,49,0
371.89243,372.05908,69,49,0
372.05908,372.22574,81,48,0
372.22574,372.39243,83,48,0
372.39243,372.55908,81,48,0
372.55908,372.72574,80,57,0
372.72574,372.89243,78,47,0
372.89243,373.05908,66,39,0
373.05908,373.242,78,47,0
373.242,373.40506,77,53,0
373.40506,373.56808,78,46,0
373.56808,373.73114,66,45,0
373.73114,373.8942,78,46,0
373.8942,374.05902,80,54,0
374.05902,374.22385,78,39,0
374.22385,374.3887,66,46,0
374.3887,374.55353,78,46,0
374.55353,374.71835,77,45,0
374.71835,374.8832,78,41,0
374.8832,375.04803,66,46,0
375.04803,375.21286,78,40,0
375.37772,375.54254,78,46,0
375.54254,375.70737,65,39,0
375.70737,375.8722,77,46,0
376.0335,376.1948,81,46,0
376.1948,376.35608,68,42,0
376.35608,376.51736,80,46,0
376.67865,376.83994,85,46,0
376.83994,377.00125,71,39,0
377.00125,377.1911,83,46,0
377.1911,377.35242,85,46,0
377.35242,377.5137,71,39,0
377.5137,377.675,85,46,0
377.675,377.83627,83,46,0
377.83627,377.99756,82,54,0
377.99756,378.15884,83,46,0
378.15884,378.32016,71,37,0
378.32016,378.5037,83,46,0
378.51,378.6767,83,45,0
378.6767,378.83798,81,46,0
378.83798,378.99927,69,41,0
378.99927,379.16055,81,46,0
379.16055,379.3236,83,57,0
379.3236,379.48663,69,39,0
379.48663,379.6497,83,44,0
379.6497,379.80728,81,46,0
379.81274,379.97577,81,46,0
379.97577,380.13882,68,39,0
380.13882,380.30185,81,43,0
380.30185,380.45947,80,43,0
380.4649,380.62796,80,55,0
380.62796,380.791,66,38,0
380.791,380.95404,80,39,0
380.95404,381.13477,78,46,0
381.13477,381.29434,77,46,0
381.29434,381.45392,78,46,0
381.45392,381.6135,66,41,0
381.6135,381.77307,78,46,0
381.77307,381.9361,80,54,0
381.9361,382.09915,78,45,0
382.09915,382.26218,66,38,0
382.26218,382.42523,78,46,0
382.42523,382.5883,65,45,0
382.5883,382.7513,77,42,0
382.7513,382.91437,78,46,0
382.91437,383.0774,77,46,0
383.0774,383.24045,78,57,0
383.24045,383.4035,65,39,0
383.4035,383.56653,78,45,0
383.56653,383.72958,77,46,0
383.72958,383.8926,68,51,0
383.8926,384.05566,80,47,0
384.05566,384.21872,81,47,0
384.21872,384.4039,80,48,0
384.4039,384.56693,83,59,0
384.56693,384.72998,71,42,0
384.72998,384.89304,74,51,0
384.89304,385.05606,86,53,0
385.05606,385.21735,85,58,0
385.21735,385.37866,86,55,0
385.37866,385.53995,74,50,0
385.53995,385.70123,86,57,0
385.70123,385.86606,88,68,0
385.86606,386.0309,86,58,0
386.0309,386.19574,74,50,0
386.19574,386.37256,86,61,0
386.37866,386.53995,86,60,0
386.53995,386.70123,73,52,0
386.70123,386.86252,86,59,0
386.86252,387.02383,85,58,0
387.18512,387.3464,86,62,0
387.3464,387.5077,73,50,0
387.5077,387.66898,85,54,0
387.83026,387.99158,85,56,0
387.99158,388.15286,71,45,0
388.15286,388.3336,83,49,0
388.49487,388.65616,83,50,0
388.65616,388.81744,69,40,0
388.81744,388.97873,81,47,0
388.97873,389.14005,83,57,0
389.14005,389.2963,69,45,0
389.2963,389.45255,83,54,0
389.45255,389.6088,81,51,0
389.6088,389.76834,80,63,0
389.76834,389.92792,81,52,0
389.92792,390.0875,69,42,0
390.0875,390.26822,81,51,0
390.26822,390.4295,81,49,0
390.4295,390.59082,68,42,0
390.59082,390.7521,81,48,0
390.7521,390.9134,80,47,0
391.07468,391.23596,80,50,0
391.23596,391.39725,68,41,0
391.39725,391.57373,80,49,0
391.73502,391.8963,92,48,0
391.8963,392.0576,80,53,0
392.0576,392.2189,92,48,0
392.37848,392.53806,91,44,0
392.53806,392.6976,79,51,0
392.6976,392.85718,91,47,0
393.01675,393.17633,91,46,0
393.17633,393.3359,79,52,0
393.3359,393.5211,91,46,0
393.6824,393.8437,91,45,0
393.8437,394.00497,83,51,0
394.00497,394.16626,95,45,0
394.32416,394.48206,95,44,0
394.48206,394.63995,81,48,0
394.63995,394.79785,93,43,0
394.95572,395.11362,93,43,0
395.11362,395.2715,79,49,0
395.2715,395.4294,91,45,0
395.5907,395.75198,91,48,0
395.75198,395.9133,79,57,0
395.9133,396.0746,91,51,0
396.23587,396.39716,91,55,0
396.39716,396.55844,79,61,0
396.55844,396.73703,90,57,0
396.55844,396.73703,78,57,0
396.89832,397.0596,90,60,0
397.0596,397.2209,76,55,0
397.2209,397.38217,88,63,0
397.54175,397.70132,88,60,0
397.70132,397.8609,76,53,0
397.8609,398.02048,88,57,0
398.18353,398.34656,88,53,0
398.34656,398.5096,76,57,0
398.5096,398.68204,90,50,0
398.5096,398.68204,78,50,0
398.8416,399.00116,90,47,0
399.00116,399.16074,79,54,0
399.16074,399.3203,91,44,0
399.4799,399.63947,91,43,0
399.63947,399.79904,79,50,0
399.79904,399.95862,91,43,0
400.11487,400.27112,91,43,0
400.27112,400.42737,79,51,0
400.42737,400.58362,90,43,0
400.42737,400.58362,78,43,0
400.58362,400.73987,90,52,0
400.73987,400.89612,78,43,0
400.89612,401.05237,78,43,0
401.05237,401.20862,90,43,0
401.20862,401.36487,93,50,0
401.36487,401.52112,81,36,0
401.52112,401.67737,81,43,0
401.67737,401.83362,93,43,0
401.83362,401.9949,97,50,0
401.9949,402.1562,85,43,0
402.1562,402.3175,85,49,0
402.3175,402.49606,97,43,0
402.65564,402.81522,97,43,0
402.81522,402.9748,85,49,0
402.9748,403.13437,97,45,0
403.29062,403.44687,85,48,0
403.44687,403.60312,73,45,0
403.60312,403.75937,85,51,0
403.91562,404.07187,97,55,0
404.07187,404.22812,85,65,0
404.22812,404.38437,97,57,0
404.54565,404.70694,85,60,0
404.70694,404.86823,73,48,0
404.86823,405.0295,85,63,0
405.19083,405.3521,97,53,0
405.3521,405.5117,85,61,0
405.5117,405.6946,97,59,0
405.6946,405.8542,93,55,0
405.8542,406.01376,81,54,0
406.01376,406.17334,81,52,0
406.17334,406.33292,93,49,0
406.33292,406.4925,93,52,0
406.4925,406.65204,81,41,0
406.65204,406.8116,81,47,0
406.8116,406.9712,93,44,0
406.9712,407.13077,90,52,0
407.13077,407.29034,78,47,0
407.29034,407.4534,78,47,0
407.4534,407.61642,66,46,0
407.61642,407.77948,71,50,0
407.61642,407.77948,80,59,0
407.61642,407.77948,77,50,0
407.77948,407.94254,68,56,0
407.94254,408.11493,73,50,0
407.94254,408.11493,81,59,0
407.94254,408.11493,78,50,0
408.11493,408.28735,69,62,0
408.28735,408.93253,71,55,0
408.28735,408.93253,83,65,0
408.28735,408.93253,80,55,0
408.93253,409.57767,62,50,0
408.93253,409.57767,71,59,0
408.93253,409.57767,68,50,0
409.57767,410.24118,69,59,0
409.57767,410.24118,66,50,0
409.57767,410.24118,61,50,0
410.24118,410.87946,65,55,0
410.24118,410.87946,59,51,0
410.24118,410.87946,62,51,0
410.24118,410.87946,69,65,0
410.87946,411.51776,65,59,0
410.87946,411.51776,62,50,0
410.87946,411.51776,59,50,0
410.87946,411.51776,68,59,0
411.51776,412.18173,66,59,0
411.51776,412.18173,57,50,0
411.51776,412.18173,63,50,0
412.18173,413.12912,63,56,0
413.12912,413.4449,60,55,0
413.4449,413.76068,61,55,0
413.76068,414.07648,60,55,0
412.18173,414.07648,57,56,0
412.18173,414.07648,66,66,0
415.04138,415.35718,68,57,0
415.35718,415.67297,71,60,0
415.67297,415.98877,74,63,0
414.07648,415.98877,56,50,0
414.07648,415.98877,65,59,0
414.07648,415.98877,61,50,0
415.98877,416.62854,71,55,0
415.98877,416.62854,74,65,0
415.98877,416.62854,68,55,0
415.98877,416.62854,62,46,0
415.98877,416.62854,65,46,0
416.6339,417.2737,71,50,0
416.6339,417.2737,68,50,0
416.6339,417.2737,74,59,0
416.6339,417.2737,62,50,0
417.27908,417.9369,69,50,0
417.27908,417.9369,73,59,0
417.27908,417.9369,61,50,0
417.94257,418.57556,62,55,0
417.94257,418.57556,68,55,0
417.94257,418.57556,73,65,0
417.94257,418.57556,65,55,0
418.58087,419.21384,62,50,0
418.58087,419.21384,68,50,0
418.58087,419.21384,71,59,0
418.58087,419.21384,65,59,0
419.21918,419.87738,69,59,0
419.21918,419.87738,66,50,0
419.21918,419.87738,63,50,0
420.5167,420.83746,60,55,0
420.83746,421.1607,61,55,0
419.88315,421.1607,69,66,0
419.88315,421.1607,66,56,0
421.1607,421.48703,60,55,0
421.48703,421.8167,61,55,0
421.1607,421.8167,68,51,0
421.1607,421.8167,65,51,0
421.8167,422.4832,68,59,0
421.8167,422.4832,61,50,0
421.8167,422.4832,56,50,0
421.8167,422.4832,65,50,0
422.4832,423.15735,64,39,0
422.4832,423.15735,55,33,0
422.4832,423.15735,58,33,0
422.4832,423.66296,67,48,0
423.66296,423.8315,67,47,0
423.15735,423.8315,62,39,0
423.15735,423.8315,59,33,0
423.15735,423.8315,55,33,0
424.50568,425.165,71,47,0
423.8315,425.165,83,63,0
425.165,425.8501,81,50,0
425.165,425.8501,69,37,0
425.8561,426.53793,81,55,0
425.8561,426.53793,69,40,0
426.53793,427.2046,79,48,0
426.53793,427.2046,67,35,0
427.2046,427.53793,79,49,0
427.2046,427.53793,71,36,0
427.53793,427.89508,78,44,0
427.53793,427.89508,74,33,0
427.2046,427.89508,67,36,0
427.89508,428.56924,78,55,0
427.89508,428.56924,74,48,0
427.89508,428.56924,67,40,0
428.56924,429.2434,76,49,0
428.56924,429.2434,72,36,0
428.56924,429.2434,67,36,0
429.2434,429.59222,67,35,0
429.2434,429.59222,72,35,0
429.2434,429.59222,76,48,0
429.59222,429.94107,72,38,0
429.59222,429.94107,75,38,0
429.59222,429.94107,78,51,0
429.59222,429.94107,69,38,0
429.94107,430.30692,72,40,0
429.94107,430.30692,75,40,0
429.94107,430.30692,78,55,0
429.94107,430.30692,69,40,0
430.30692,430.65576,71,37,0
430.30692,430.65576,74,37,0
430.30692,430.65576,79,50,0
430.65576,431.35342,79,50,0
430.65576,431.35342,74,37,0
430.65576,431.35342,71,37,0
431.35342,431.69434,67,40,0
431.69434,432.0602,66,36,0
431.69434,432.0602,54,30,0
432.0602,432.7858,66,40,0
432.0602,432.7858,54,34,0
432.7919,433.50024,61,31,0
432.7919,433.50024,57,31,0
432.7919,433.50024,69,37,0
432.7919,433.50024,66,31,0
433.5062,434.24646,66,31,0
433.5062,434.24646,61,31,0
433.5062,434.24646,73,37,0
433.5062,434.24646,69,31,0
434.25293,435.68405,65,34,0
434.25293,435.68405,61,34,0
434.25293,435.68405,73,41,0
434.25293,435.68405,68,34,0
435.69894,436.4494,66,29,0
435.69894,436.4494,61,29,0
435.69894,436.4494,73,35,0
435.69894,436.4494,69,29,0
436.4561,437.1968,73,43,0
436.4561,437.1968,69,36,0
436.4561,437.1968,61,36,0
437.1968,437.93756,74,40,0
437.1968,437.93756,67,34,0
437.1968,437.93756,62,34,0
437.93756,438.6783,67,36,0
437.93756,438.6783,55,30,0
438.6783,439.46777,71,37,0
438.6783,439.46777,59,31,0
439.46777,440.25726,61,37,0
440.25726,441.08676,53,26,0
440.25726,441.08676,65,31,0
441.08676,441.89758,54,32,0
441.08676,441.89758,66,38,0
441.89758,443.0818,61,34,0
441.89758,443.0818,73,41,0
443.0818,443.52954,56,24,0
443.0818,443.52954,68,29,0
443.52954,444.37463,57,26,0
443.52954,444.37463,69,31,0
444.37463,445.6422,69,34,0
444.37463,445.6422,81,42,0
445.6422,446.11096,65,21,0
445.6422,446.11096,77,25,0
449.37186,450.34195,78,43,0
450.3501,450.99686,78,44,0
451.0023,451.64557,78,44,0
451.32837,451.96814,81,61,0
451.65094,452.29074,78,49,0
451.97354,452.61868,86,74,0
452.2961,452.93253,78,54,0
452.61868,453.257,88,71,0
452.93784,453.57083,78,52,0
453.57614,453.91257,78,45,0
453.257,453.91257,90,71,0
453.91257,454.00983,90,69,0
454.00983,454.09375,91,61,0
454.09375,454.16736,90,67,0
454.16736,454.23526,91,63,0
454.23526,454.30264,90,63,0
454.30264,454.37094,91,71,0
454.37094,454.44122,90,69,0
454.44122,454.51352,91,78,0
454.51352,455.15988,93,83,0
455.15988,455.77844,91,75,0
454.85062,456.07483,81,57,0
455.77844,456.60318,91,77,0
456.0877,456.70627,81,56,0
456.70627,457.01556,88,68,0
457.01556,457.32483,85,62,0
457.32483,457.65594,86,65,0
457.65594,457.95004,87,74,0
457.95004,458.46768,88,64,0
458.46768,458.6697,79,63,0
458.6697,458.8717,78,64,0
458.8717,459.06973,79,64,0
459.06973,459.26776,81,66,0
459.26776,459.4658,82,68,0
459.4658,459.65994,85,70,0
459.65994,459.85413,83,68,0
459.85413,460.06226,81,66,0
460.06226,460.26025,79,69,0
460.26025,460.45828,78,65,0
460.45828,460.67825,79,60,0
460.67825,460.88025,80,69,0
460.88025,461.08228,81,64,0
461.08228,461.31137,76,59,0
461.31137,461.6305,79,70,0
461.6305,462.25577,78,64,0
462.25577,462.868,81,69,0
462.868,463.47516,86,76,0
463.48026,464.10898,86,74,0
464.10898,464.6972,88,78,0
464.6972,465.01993,90,68,0
465.0232,465.1174,90,62,0
465.1174,465.20477,91,59,0
465.20477,465.28622,90,64,0
465.28622,465.36288,91,60,0
465.36288,465.43793,90,67,0
465.43793,465.51245,91,62,0
465.51245,465.58646,90,69,0
465.58646,465.6599,91,65,0
465.6599,465.73273,90,72,0
465.73273,465.80478,91,66,0
465.80478,465.8759,90,74,0
465.8759,465.94806,91,70,0
465.94806,466.0474,90,77,0
466.0474,466.17603,89,79,0
466.17603,466.32526,90,75,0
466.32526,466.66617,93,84,0
466.66617,466.98532,91,67,0
466.98532,467.83868,91,72,0
467.83868,468.05374,87,69,0
468.05374,468.2688,88,72,0
468.2688,468.48383,91,72,0
468.48383,468.69888,90,67,0
468.69888,468.92947,88,64,0
468.93558,469.7958,88,77,0
469.7958,470.01086,84,67,0
470.01086,470.22592,85,64,0
470.22592,470.43866,88,76,0
470.43866,470.65143,86,67,0
470.65143,470.89212,85,65,0
470.89212,471.0517,83,72,0
471.0517,471.21127,82,62,0
471.21127,471.37085,86,66,0
471.37085,471.53043,85,63,0
471.53043,471.68668,84,72,0
471.68668,471.84293,85,63,0
471.84293,471.99918,76,66,0
471.99918,472.15543,79,60,0
472.15543,472.31332,77,72,0
472.31332,472.47122,78,62,0
472.47122,472.62912,73,66,0
472.62912,472.78702,76,61,0
472.78702,473.47665,74,66,0
473.47665,474.42404,83,70,0
474.42404,474.7398,78,59,0
475.07315,475.69293,76,46,0
475.07315,475.69293,70,39,0
474.7398,476.01065,79,66,0
475.69815,476.31793,76,44,0
475.69815,476.31793,70,37,0
476.32315,476.66797,76,46,0
476.32315,476.66797,70,39,0
476.01065,476.66797,78,64,0
476.66797,476.83652,78,66,0
476.83652,477.00507,90,56,0
477.00507,477.1597,85,59,0
477.1597,477.31433,86,55,0
476.66797,477.31433,74,43,0
476.66797,477.31433,71,43,0
477.31433,477.46896,88,66,0
477.46896,477.62363,86,57,0
477.62363,477.77826,82,59,0
477.77826,477.9329,83,55,0
477.9329,478.08752,85,66,0
478.08752,478.2422,83,60,0
478.2422,478.34528,86,66,0
478.34528,478.46625,83,57,0
478.46973,478.60803,78,50,0
478.60513,478.94998,81,66,0
478.94998,479.5763,76,31,0
478.94998,479.5763,70,31,0
478.94998,479.5763,79,60,0
479.58154,480.20786,79,60,0
479.58154,480.20786,70,31,0
479.58154,480.20786,76,31,0
480.21313,480.5502,76,37,0
480.21313,480.5502,70,31,0
480.21313,480.5502,78,64,0
480.5502,480.87357,71,61,0
480.5502,480.87357,74,61,0
480.5502,481.4783,78,72,0
480.8763,481.48093,66,53,0
481.4862,481.79938,71,46,0
481.4862,481.79938,74,48,0
481.4862,482.11252,66,59,0
481.4862,482.11252,78,71,0
481.802,482.11514,70,58,0
481.802,482.11514,76,49,0
482.1178,482.45584,76,49,0
482.1178,482.45584,70,54,0
482.1178,482.45584,78,70,0
482.1178,482.45584,66,59,0
482.45868,482.77185,74,65,0
482.45868,482.77185,71,65,0
482.45868,482.77185,66,65,0
482.45868,483.3824,78,77,0
482.77448,483.385,71,56,0
483.39026,483.70343,78,51,0
483.39026,483.70343,74,61,0
483.39026,484.0166,83,75,0
483.39026,484.0166,71,63,0
483.70605,484.01923,75,62,0
483.70605,484.01923,78,52,0
484.02185,484.36777,83,75,0
484.02185,484.36777,75,62,0
484.02185,484.36777,71,62,0
484.02185,484.36777,78,52,0
484.3707,484.69406,84,75,0
484.3707,484.69406,72,63,0
484.3707,484.69406,78,63,0
484.3707,484.69406,75,63,0
484.69678,485.3435,84,76,0
484.69678,485.3435,72,63,0
484.69678,485.3435,78,63,0
484.69678,485.3435,75,63,0
485.34894,485.67233,75,65,0
485.34894,485.67233,78,78,0
485.34894,485.9957,72,65,0
485.34894,485.9957,84,78,0
485.67505,485.9984,75,65,0
485.67505,485.9984,81,78,0
486.00113,486.34705,75,66,0
486.00113,486.34705,72,66,0
486.00113,486.34705,81,66,0
486.00113,486.34705,84,79,0
486.34995,486.6751,80,66,0
486.34995,486.6751,85,79,0
486.34995,486.6751,73,66,0
486.67783,487.3246,85,80,0
486.67783,487.3246,73,67,0
486.67783,487.3246,80,67,0
487.33002,487.65338,80,82,0
487.33002,487.65338,73,68,0
487.33002,487.97675,85,82,0
487.6561,487.97946,73,69,0
487.6561,487.97946,78,82,0
487.98218,488.32413,78,69,0
487.98218,488.65118,85,83,0
487.98218,488.65118,73,69,0
488.32703,488.65668,77,67,0
488.65668,488.98636,72,60,0
488.65668,488.98636,84,65,0
488.98636,489.31604,75,59,0
488.98636,489.31604,87,59,0
489.31604,489.6457,73,59,0
489.31604,489.6457,85,59,0
489.6457,489.97537,72,58,0
489.6457,489.97537,84,58,0
489.97537,490.3283,85,57,0
489.97537,490.3283,73,57,0
490.3283,490.99496,88,56,0
490.3283,490.99496,76,56,0
490.99496,492.68845,87,55,0
490.99496,492.68845,75,55,0
492.68845,493.01813,72,46,0
492.68845,493.01813,84,55,0
493.01813,493.3478,75,53,0
493.01813,493.3478,87,63,0
493.3478,493.67746,73,46,0
493.3478,493.67746,85,55,0
493.67746,494.00714,72,51,0
493.67746,494.00714,84,60,0
494.00714,494.36008,85,53,0
494.00714,494.36008,73,45,0
494.36008,495.02673,87,59,0
494.36008,495.02673,75,50,0
495.02673,496.7202,73,46,0
495.02673,496.7202,85,55,0
496.7202,497.0499,82,56,0
496.7202,497.0499,70,47,0
497.0499,497.37958,85,66,0
497.0499,497.37958,73,56,0
497.37958,497.70923,83,59,0
497.37958,497.70923,71,50,0
497.70923,498.0389,82,67,0
497.70923,498.0389,70,56,0
498.0389,498.38892,71,51,0
498.0389,498.38892,83,60,0
498.39185,498.7252,83,67,0
498.39185,498.7252,71,56,0
498.7252,499.0585,80,61,0
498.7252,499.0585,68,51,0
499.0585,499.3956,83,68,0
499.0585,499.3956,71,57,0
499.3956,499.73267,82,62,0
499.3956,499.73267,70,52,0
499.73267,500.0775,80,67,0
499.73267,500.0775,68,56,0
500.0775,500.4137,81,62,0
500.0775,500.4137,69,52,0
500.42233,501.11197,81,74,0
500.42233,501.11197,69,62,0
501.11197,501.80164,68,58,0
501.11197,501.80164,73,58,0
501.11197,501.80164,80,69,0
501.80164,502.51685,78,75,0
501.80164,502.85776,73,63,0
502.85776,503.19867,73,67,0
502.51685,503.19867,83,78,0
503.19867,503.53955,80,67,0
503.53955,503.88046,78,67,0
503.19867,503.88046,82,79,0
503.88046,504.22137,77,69,0
504.22137,504.58725,78,70,0
504.58725,505.26904,78,87,0
504.58725,505.26904,75,73,0
503.88046,505.26904,87,82,0
505.26904,505.98495,73,68,0
505.26904,505.98495,85,80,0
505.26904,505.98495,78,68,0
505.98495,507.3612,78,79,0
505.98495,507.3612,90,94,0
507.3612,508.09335,77,76,0
507.3612,508.09335,89,90,0
508.09335,509.97992,92,83,0
508.09335,509.97992,95,93,0
508.09335,509.97992,83,83,0
508.09335,509.97992,89,83,0
509.97992,510.3503,71,36,0
510.3503,510.7221,68,40,0
510.7221,511.10455,74,36,0
511.10455,511.49927,72,40,0
511.49927,511.90637,73,36,0
511.90637,512.32745,68,40,0
512.32745,512.763,75,36,0
512.763,513.21454,73,40,0
513.21454,513.6833,71,35,0
513.6833,514.3499,70,49,0
515.0166,517.0166,42,58,0
517.0166,517.3291,42,52,0
517.3291,517.6682,37,46,0
517.67395,519.61676,37,52,0
519.6225,520.919,37,52,0
520.9245,521.60535,37,52,0
521.61127,522.2635,34,52,0
522.9376,524.8934,78,53,0
522.9376,524.8934,90,61,0
524.9015,525.2082,78,48,0
524.9015,525.2082,90,55,0
525.21075,525.5527,73,42,0
525.21075,525.5527,85,48,0
525.55554,527.4909,73,48,0
525.55554,527.4909,85,55,0
527.51105,528.79926,73,48,0
527.51105,528.79926,85,55,0
528.813,529.49384,73,48,0
528.813,529.49384,85,55,0
529.49976,530.16644,70,45,0
529.49976,530.16644,82,53,0
530.8186,532.1312,42,58,0
532.14496,532.7988,42,58,0
532.8043,533.0342,42,56,0
533.0342,533.2741,41,50,0
533.2741,533.4616,42,50,0
533.5241,534.8085,37,52,0
534.8218,536.1213,37,52,0
536.1352,537.4452,37,52,0
537.4601,538.1267,34,52,0
538.7976,540.7564,78,59,0
538.7976,540.7564,90,67,0
540.77563,540.9934,78,57,0
540.77563,540.9934,90,65,0
540.9907,541.2132,77,51,0
540.9907,541.2132,89,58,0
541.2132,541.3856,90,58,0
541.2132,541.44305,78,51,0
541.44305,542.73413,73,59,0
541.44305,542.73413,85,67,0
542.74756,544.0401,85,70,0
542.74756,544.0401,73,62,0
544.054,545.1479,85,72,0
544.054,545.1479,73,63,0
545.1479,545.386,83,50,0
545.1479,545.386,71,45,0
545.386,546.0311,82,50,0
545.386,546.0311,70,50,0
546.0311,546.2417,70,40,0
546.2417,546.4522,80,40,0
546.4522,546.6627,78,40,0
546.6627,546.8732,77,50,0
546.8732,547.0838,75,41,0
547.0838,547.31635,73,43,0
546.0311,547.31635,82,55,0
547.31635,547.5291,71,50,0
547.5291,547.7419,73,42,0
547.7419,547.95465,70,42,0
547.95465,548.15466,71,50,0
548.15466,548.3587,73,40,0
548.3587,548.5628,75,40,0
548.5628,548.7669,77,50,0
548.7669,548.97095,78,41,0
548.97095,549.19824,80,41,0
547.31635,549.19824,83,55,0
549.19824,549.8434,85,55,0
549.19824,549.8434,73,50,0
549.8434,550.05396,82,42,0
550.05396,550.26447,80,42,0
550.26447,550.475,78,43,0
550.475,550.6855,76,55,0
550.6855,550.89606,75,45,0
549.8434,551.1286,85,57,0
550.89606,551.3414,73,48,0
551.3414,551.55414,75,48,0
551.55414,551.7669,76,49,0
551.7669,551.9669,75,60,0
551.9669,552.17096,77,48,0
552.17096,552.37506,78,49,0
552.37506,552.57916,80,62,0
552.57916,552.7832,82,51,0
551.1286,553.0105,87,67,0
552.7832,553.2255,83,52,0
553.2255,553.4406,83,53,0
553.4406,553.65564,82,54,0
553.0105,553.65564,89,71,0
553.65564,553.86615,80,54,0
553.86615,554.0767,78,54,0
554.0767,554.28723,77,55,0
554.28723,554.49774,78,70,0
554.49774,554.7083,80,57,0
554.7083,554.94086,82,61,0
554.28723,554.94086,90,77,0
554.94086,555.1536,80,72,0
555.1536,555.3664,83,61,0
555.3664,555.57916,82,62,0
555.57916,555.7791,80,75,0
555.7791,555.9832,82,60,0
555.9832,556.1873,83,61,0
554.94086,556.1873,92,84,0
556.1873,556.39136,82,77,0
556.39136,556.59546,83,63,0
556.1873,556.82275,94,91,0
556.59546,557.0355,85,64,0
557.0355,557.2483,82,61,0
557.2483,557.46106,83,62,0
556.82275,557.46106,95,96,0
557.46106,557.661,79,63,0
557.661,557.8651,78,51,0
557.8651,558.0692,76,51,0
557.46106,558.0692,85,74,0
558.0692,558.27325,75,65,0
558.27325,558.47736,76,53,0
558.0692,558.70465,87,70,0
558.47736,558.9174,78,54,0
558.9174,559.1302,77,48,0
559.1302,559.34296,75,47,0
559.34296,559.56274,72,52,0
559.56274,559.7825,73,46,0
559.7825,560.00226,75,45,0
558.70465,560.00226,81,70,0
560.00226,560.2238,77,47,0
560.2238,560.4508,74,44,0
560.4508,560.6854,73,43,0
560.00226,560.6854,80,58,0
560.6854,562.11395,76,51,0
562.11395,562.82825,75,51,0
560.6854,562.82825,85,61,0
560.6854,562.82825,79,51,0
562.82825,564.25684,75,44,0
562.82825,564.25684,82,44,0
562.82825,564.25684,87,52,0
564.25684,564.9711,82,51,0
564.25684,564.9711,75,43,0
564.25684,564.9711,73,43,0
564.9711,565.32825,85,61,0
564.9711,565.32825,73,51,0
565.32825,565.6854,82,57,0
565.32825,565.6854,70,48,0
565.6854,566.0302,71,62,0
565.6854,566.0302,83,74,0
566.0302,566.3961,87,71,0
566.0302,566.3961,75,60,0
566.3961,566.74493,82,67,0
566.3961,566.74493,94,79,0
566.74493,567.4648,80,62,0
566.74493,567.4648,92,73,0
567.4648,568.14294,78,61,0
567.4648,568.14294,90,72,0
568.14294,568.47626,78,67,0
568.14294,568.47626,70,56,0
568.14294,568.47626,66,56,0
568.47626,568.81335,68,58,0
568.47626,568.81335,77,69,0
568.47626,568.81335,65,58,0
568.81335,569.2545,67,64,0
568.81335,569.2545,73,64,0
568.81335,569.2545,64,64,0
568.81335,569.2545,76,76,0
569.2545,570.5214,76,55,0
569.2545,570.5214,64,46,0
569.2545,570.5214,67,46,0
569.2545,570.5214,73,46,0
570.5214,570.68274,73,40,0
570.68274,570.8453,67,40,0
570.5214,570.8453,76,51,0
570.8453,571.0085,71,40,0
571.0085,571.2059,66,40,0
570.8453,571.2059,75,40,0
571.2059,572.5392,74,34,0
571.2059,572.5392,62,29,0
571.2059,572.5392,66,29,0
571.2059,572.5392,70,29,0
573.19543,574.44543,61,51,0
573.19543,574.44543,66,51,0
573.19543,574.44543,70,51,0
574.44543,574.6103,70,40,0
574.6103,574.77515,66,40,0
573.19543,574.77515,73,61,0
574.77515,574.95807,69,40,0
574.95807,575.1635,66,40,0
574.77515,575.1635,72,40,0
575.1635,575.8302,62,40,0
575.1635,575.8302,65,40,0
575.1635,575.8302,71,48,0
575.1635,575.8302,68,40,0
579.04913,580.3541,70,45,0
579.04913,580.3541,67,38,0
580.36786,581.02,75,42,0
580.36786,581.02,70,36,0
580.36786,581.02,67,36,0
581.02,582.33936,75,45,0
581.02,582.33936,67,38,0
581.02,582.33936,63,38,0
581.02,582.33936,70,38,0
582.33936,582.9915,67,36,0
582.33936,582.9915,75,44,0
582.33936,582.9915,63,36,0
582.9915,583.6298,75,45,0
582.9915,583.6298,66,38,0
582.9915,583.6298,63,38,0
583.6298,585.00165,65,35,0
583.6298,585.00165,73,41,0
583.6298,585.00165,61,35,0
585.00165,586.33496,73,41,0
585.00165,586.33496,61,35,0
585.00165,586.33496,66,35,0
585.00165,586.33496,70,35,0
586.33496,587.00165,70,33,0
587.00165,588.33496,61,42,0
588.33496,589.0757,73,36,0
589.0757,590.3944,70,40,0
590.3944,591.0537,70,49,0
590.3944,591.0537,73,49,0
590.3944,591.0537,82,59,0
591.0537,592.3724,71,53,0
591.0537,592.3724,80,63,0
591.0537,592.3724,68,53,0
592.3724,593.03174,61,43,0
592.3724,593.03174,73,51,0
592.3724,593.03174,71,43,0
592.3724,593.03174,68,43,0
593.03174,594.36505,70,45,0
593.03174,594.36505,61,45,0
593.03174,594.36505,73,54,0
594.36505,595.03174,82,51,0
595.03174,596.36505,73,50,0
596.36505,597.07935,73,49,0
596.36505,597.07935,85,58,0
597.07935,598.41284,82,64,0
597.07935,598.41284,70,54,0
598.41284,599.76117,85,62,0
598.41284,599.76117,73,52,0
599.76117,600.1021,85,56,0
600.1021,600.443,83,61,0
599.76117,600.443,87,67,0
599.76117,600.443,75,56,0
600.443,600.78784,82,67,0
600.78784,601.16284,83,60,0
600.443,601.16284,77,56,0
600.443,601.16284,89,67,0
601.16284,603.41284,78,56,0
601.16284,603.41284,90,67,0
601.16284,603.41284,82,56,0
604.91284,605.76996,85,52,0
603.41284,605.76996,80,48,0
603.41284,605.76996,89,48,0
603.41284,605.76996,92,57,0
605.76996,607.34894,82,36,0
605.76996,607.34894,94,43,0
605.76996,607.34894,90,36,0
605.76996,607.34894,85,36,0
607.34894,608.09265,82,43,0
607.34894,608.09265,73,36,0
607.34894,608.09265,70,36,0
608.09894,609.22394,73,51,0
608.09894,609.22394,82,51,0
608.09894,609.22394,85,60,0
609.22394,609.59894,74,57,0
609.22394,609.59894,83,57,0
609.22394,609.59894,86,67,0
609.59894,610.00433,76,60,0
609.59894,610.00433,85,60,0
609.59894,610.00433,88,72,0
610.00433,610.4704,78,47,0
610.00433,610.4704,86,47,0
610.00433,610.4704,90,56,0
610.47485,611.97485,78,43,0
610.47485,611.97485,90,51,0
611.97485,612.6857,74,34,0
611.97485,612.6857,86,40,0
612.69775,613.4295,74,39,0
612.69775,613.4295,86,46,0
613.4295,614.1612,71,36,0
613.4295,614.1612,83,43,0
614.1612,615.0183,85,43,0
614.1612,615.0183,73,36,0
615.0183,616.5768,86,47,0
615.0183,616.5768,74,39,0
619.69366,621.975,83,47,0
619.69366,621.975,71,39,0
621.975,624.2108,86,47,0
621.975,624.2108,74,39,0
624.2108,627.1559,79,67,0
624.2108,627.1559,91,80,0
627.1559,627.8805,74,54,0
627.1559,627.8805,71,45,0
627.8805,628.24194,72,52,0
627.8805,628.24194,66,44,0
628.24194,628.6831,71,47,0
628.24194,628.6831,67,40,0
628.6831,629.3498,71,51,0
628.6831,629.3498,67,43,0
630.00195,631.3146,43,58,0
631.3283,631.9821,43,58,0
631.9876,632.2175,43,56,0
632.2175,632.45746,42,50,0
632.45746,632.64496,43,50,0
632.70746,633.9918,38,52,0
634.00507,635.3046,38,52,0
635.3185,636.6434,38,52,0
636.6434,637.31006,35,48,0
637.98096,639.2859,79,59,0
637.98096,639.2859,91,67,0
639.2996,639.9535,91,67,0
639.2996,639.9535,79,59,0
639.959,640.1767,79,57,0
639.959,640.1767,91,65,0
640.174,640.3965,78,51,0
640.174,640.3965,90,58,0
640.3965,640.5689,91,55,0
640.3965,640.6264,79,46,0
640.6264,641.9174,74,59,0
640.6264,641.9174,86,67,0
641.9309,643.22345,86,70,0
641.9309,643.22345,74,62,0
643.23737,644.55444,86,72,0
643.23737,644.55444,74,63,0
644.56934,645.86035,74,64,0
644.56934,645.86035,86,73,0
645.87384,647.1664,86,80,0
645.87384,647.1664,74,71,0
647.18024,648.07214,86,84,0
647.18024,648.07214,74,75,0
648.07214,648.3034,85,72,0
648.07214,648.3034,73,63,0
648.3034,648.54675,86,73,0
648.3034,648.54675,74,64,0
648.55316,649.84424,74,74,0
648.55316,649.84424,86,85,0
648.55316,649.84424,78,74,0
649.85767,651.1502,86,93,0
649.85767,651.1502,74,82,0
649.85767,651.1502,78,82,0
651.1641,652.04565,90,97,0
651.1641,652.04565,78,86,0
652.04565,652.2731,89,82,0
652.04565,652.2731,77,72,0
652.2731,652.5102,90,83,0
652.2731,652.5102,78,73,0
652.5164,653.80743,90,97,0
652.5164,653.80743,78,85,0
653.8209,654.794,90,103,0
653.8209,654.794,78,103,0
655.1273,656.10925,90,103,0
655.1273,656.10925,78,103,0
656.474,656.8121,78,102,0
656.474,656.8121,90,102,0
656.8149,657.491,90,102,0
657.4967,658.17285,90,103,0
658.1785,658.8547,90,104,0
658.86035,659.54034,90,106,0
659.5461,660.23395,90,107,0
660.23975,660.88293,90,108,0
660.88293,662.18726,73,48,0
662.18726,662.85583,69,42,0
662.86145,663.52075,69,47,0
663.52075,664.15906,66,41,0
664.15906,664.8649,61,34,0
664.15906,664.8649,68,41,0
664.15906,664.8649,65,34,0
664.8649,666.1693,61,42,0
664.8649,666.1693,57,42,0
664.8649,666.1693,66,42,0
664.8649,666.1693,69,50,0
666.1693,666.8215,70,56,0
666.1693,666.8215,58,47,0
666.1693,666.8215,61,47,0
666.1693,666.8215,66,47,0
666.8215,668.133,66,51,0
666.8215,668.133,62,51,0
666.8215,668.133,59,51,0
666.8215,668.133,71,61,0
668.133,668.8888,74,66,0
668.133,668.8888,71,55,0
668.133,668.8888,66,55,0
668.133,668.8888,62,55,0
668.8888,670.26807,65,67,0
668.8888,670.26807,71,67,0
668.8888,670.26807,62,67,0
668.8888,670.26807,74,79,0
670.26807,670.9292,61,55,0
670.26807,670.9292,69,55,0
670.26807,670.9292,66,55,0
670.26807,670.9292,73,65,0
670.93475,671.60144,61,63,0
670.93475,671.60144,69,63,0
670.93475,671.60144,66,63,0
670.93475,671.60144,73,76,0
671.60144,672.2536,71,68,0
671.60144,672.2536,59,55,0
671.60144,672.2536,62,55,0
671.60144,672.2536,68,55,0
672.2536,672.9595,69,67,0
672.2536,672.9595,66,55,0
672.2536,672.9595,63,55,0
672.2536,672.9595,57,55,0
672.9595,674.27814,63,48,0
672.9595,674.27814,69,57,0
672.9595,674.27814,66,48,0
672.9595,674.27814,57,48,0
674.27814,674.92334,68,55,0
673.61884,674.92334,61,46,0
674.27814,674.92334,65,46,0
674.27814,674.92334,56,46,0
674.92334,675.5685,56,53,0
674.92334,675.5685,65,53,0
674.92334,675.5685,61,53,0
674.92334,675.5685,68,64,0
675.5685,676.2503,64,49,0
675.5685,676.2503,55,49,0
675.5685,676.2503,58,49,0
676.2503,676.7675,55,52,0
676.2503,676.7675,59,52,0
676.2503,676.7675,62,52,0
675.5685,676.9759,67,60,0
676.7675,676.9759,67,53,0
677.6425,678.3092,71,55,0
676.9759,678.3092,83,65,0
678.3092,679.0175,81,62,0
678.3092,679.0175,69,52,0
679.0235,679.6901,81,65,0
679.0235,679.6901,69,55,0
679.6901,680.3568,79,57,0
679.6901,680.3568,67,51,0
680.3568,681.0407,78,57,0
680.3568,681.0407,66,50,0
681.04645,681.7058,78,65,0
681.04645,681.7058,66,55,0
681.7058,682.3652,76,56,0
681.7058,682.3652,64,52,0
682.3652,683.0491,78,56,0
682.3652,683.0491,66,52,0
683.0548,683.73663,78,61,0
683.0548,683.73663,66,52,0
683.73663,684.7888,79,59,0
683.73663,684.7888,67,55,0
684.7888,685.1561,66,46,0
684.7888,685.1561,54,43,0
685.1592,685.8735,66,60,0
685.1592,685.8735,54,45,0
685.8735,686.5631,69,53,0
685.8735,686.5631,57,45,0
686.5631,687.346,73,51,0
686.5631,687.346,61,43,0
686.5631,687.346,66,43,0
686.5631,687.346,69,43,0
687.3526,688.76434,68,45,0
687.3526,688.76434,61,45,0
687.3526,688.76434,73,54,0
687.3526,688.76434,65,45,0
688.76434,689.5371,66,36,0
688.76434,689.5371,61,36,0
688.76434,689.5371,73,43,0
688.76434,689.5371,69,36,0
689.5436,690.27527,73,48,0
689.5436,690.27527,61,40,0
689.5436,690.27527,69,40,0
690.27527,691.007,67,36,0
690.27527,691.007,74,43,0
690.27527,691.007,62,36,0
691.007,691.807,67,43,0
691.007,691.807,55,36,0
691.807,692.6289,71,47,0
691.807,692.6289,59,37,0
692.6289,693.4985,61,45,0
692.6289,693.4985,49,37,0
693.4985,693.9672,53,37,0
693.4985,693.9672,65,44,0
693.9672,694.436,66,38,0
693.9672,694.436,54,32,0
694.436,695.5752,64,25,0
694.436,695.5752,54,25,0
694.436,695.5752,58,25,0
694.436,695.9919,66,52,0
695.5752,695.9919,66,25,0
695.9919,696.7514,78,57,0
696.37164,697.1248,66,25,0
697.1311,697.8706,66,25,0
696.7514,698.2426,78,57,0
697.8767,698.6113,66,25,0
698.2426,699.0123,73,50,0
698.6176,699.38574,66,25,0
699.0123,699.7718,76,57,0
699.3921,700.14526,66,25,0
699.7718,700.5313,74,51,0
700.15155,700.9047,62,25,0
700.15155,700.9047,65,25,0
700.15155,700.9047,68,25,0
700.9111,701.66425,68,25,0
700.9111,701.66425,65,25,0
700.9111,701.66425,62,25,0
700.5313,702.0503,71,51,0
701.67053,702.4334,62,25,0
701.67053,702.4334,68,25,0
701.67053,702.4334,65,25,0
702.0503,702.8295,74,56,0
702.4399,703.245,62,25,0
702.4399,703.245,68,25,0
702.4399,703.245,65,25,0
703.2521,703.6711,68,25,0
703.2521,703.6711,65,25,0
703.2521,703.6711,62,25,0
702.8295,703.67456,71,53,0
703.67456,703.93097,70,48,0
703.93097,704.18744,78,45,0
704.18744,704.44385,73,48,0
703.67456,704.44385,66,34,0
703.67456,704.44385,61,34,0
704.44385,704.70026,82,54,0
704.70026,704.95667,78,51,0
704.95667,705.2131,85,51,0
705.2131,705.4695,78,57,0
705.4695,705.7259,91,63,0
705.7259,706.00757,90,59,0
706.00757,706.264,89,64,0
706.264,706.5204,90,59,0
706.5204,707.0332,88,59,0
707.0332,707.2896,85,57,0
707.2896,707.546,82,57,0
707.546,707.7929,79,62,0
707.7929,708.03986,78,60,0
707.546,708.32556,73,34,0
708.03986,708.57874,76,60,0
708.57874,708.8319,73,59,0
708.8319,709.0851,74,59,0
709.0851,709.3382,83,63,0
709.3382,709.6122,80,53,0
709.6122,710.1185,86,58,0
710.1185,710.3717,85,53,0
710.3717,710.6185,83,50,0
710.6249,712.1376,83,52,0
710.6249,712.1376,77,42,0
710.6249,712.1376,71,42,0
710.6249,712.1376,74,42,0
710.6249,712.1376,80,42,0
712.15356,712.9994,83,56,0
712.15356,712.9994,77,44,0
712.15356,712.9994,71,44,0
712.15356,712.9994,74,44,0
712.15356,712.9994,80,44,0
712.9994,716.95447,82,54,0
712.9994,716.95447,70,43,0
712.9994,716.95447,73,43,0
712.9994,716.95447,78,43,0
716.9614,719.38116,82,53,0
716.9614,719.38116,70,42,0
716.9614,719.38116,73,42,0
716.9614,719.38116,78,42,0
719.3892,721.7511,78,40,0
719.3892,721.7511,82,40,0
719.3892,721.7511,90,50,0
721.7577,723.3519,90,46,0
721.7577,723.3519,82,36,0
721.7577,723.3519,78,36,0
723.3691,726.7655,82,35,0
723.3691,726.7655,85,35,0
723.3691,726.7655,94,44,0
726.7976,727.6548,73,35,0
727.6548,729.17377,73,38,0
729.17377,729.9778,69,33,0
729.98456,730.7638,69,37,0
730.7638,731.5045,66,32,0
731.5045,732.294,61,27,0
731.5045,732.294,68,32,0
731.5045,732.294,65,27,0
732.294,733.813,61,33,0
732.294,733.813,69,40,0
732.294,733.813,66,33,0
733.813,734.5725,70,37,0
733.813,734.5725,58,29,0
733.813,734.5725,61,29,0
733.813,734.5725,66,29,0
734.5725,736.082,66,36,0
734.5725,736.082,62,36,0
734.5725,736.082,59,36,0
734.5725,736.082,71,46,0
736.082,736.89276,73,49,0
736.082,736.89276,70,39,0
736.082,736.89276,66,39,0
736.082,736.89276,61,39,0
736.89276,737.7943,66,44,0
736.89276,737.7943,71,44,0
736.89276,737.7943,62,44,0
736.89276,737.7943,74,56,0
737.8019,739.4066,62,28,0
737.8019,739.4066,71,28,0
737.8019,739.4066,68,28,0
737.8019,739.4066,74,35,0
739.4235,741.0073,62,33,0
739.4235,741.0073,71,33,0
739.4235,741.0073,68,33,0
739.4235,741.0073,74,42,0
741.0238,741.4404,74,32,0
741.0238,741.4404,62,25,0
741.0238,741.4404,68,25,0
741.0238,741.4404,71,25,0
741.4404,741.8467,73,32,0
741.4404,741.8467,61,25,0
741.4404,741.8467,70,25,0
741.8571,746.8571,73,39,0
741.8571,746.8571,70,33,0
741.8571,746.8571,61,33,0
746.8571,751.85016,85,33,0
746.8571,751.85016,78,28,0
746.8571,751.85016,70,28,0
751.8571,754.3571,85,33,0
751.8571,754.3571,78,28,0
751.8571,754.3571,70,28,0
754.3571,756.8531,73,33,0
754.3571,756.8531,66,28,0
754.3571,756.8531,58,28,0
758.10095,760.2867,73,33,0
757.7674,760.2867,66,24,0
757.5202,760.2867,58,24,0
0.0,1.956522,45,28,0
0.0,1.956522,33,23,0
1.956522,3.913044,49,30,0
1.956522,3.913044,37,21,0
3.913044,5.8915496,54,35,0
3.913044,5.8915496,49,29,0
3.913044,5.8915496,42,29,0
5.8915496,6.55089,54,35,0
5.8915496,6.55089,49,29,0
5.8915496,6.55089,42,29,0
6.55089,7.189188,57,31,0
6.55089,7.189188,49,26,0
6.55089,7.189188,45,26,0
7.189188,7.8950706,56,31,0
7.189188,7.8950706,49,26,0
7.189188,7.8950706,44,26,0
7.8950706,9.851592,54,34,0
7.8950706,9.851592,49,28,0
7.8950706,9.851592,42,28,0
9.851592,11.15594,50,39,0
9.851592,11.15594,38,33,0
11.15594,11.8398485,47,40,0
11.15594,11.8398485,35,34,0
11.845595,13.135919,47,46,0
11.845595,13.135919,35,37,0
13.135919,13.775703,45,42,0
13.135919,13.775703,33,35,0
13.78108,14.426242,45,48,0
13.78108,14.426242,33,39,0
14.426242,15.051242,44,45,0
14.426242,15.051242,32,38,0
15.051242,15.740896,42,48,0
15.051242,15.740896,30,40,0
15.740896,17.697418,41,48,0
15.740896,17.697418,29,39,0
17.697418,19.65394,62,36,0
17.697418,19.65394,59,30,0
17.697418,19.65394,56,30,0
17.697418,19.65394,53,30,0
19.65394,21.61951,41,34,0
19.65394,21.61951,29,28,0
21.61951,22.938192,42,30,0
21.61951,22.938192,30,25,0
22.938192,23.630053,44,31,0
22.938192,23.630053,32,26,0
23.635866,25.594658,44,35,0
23.635866,25.594658,32,29,0
25.613888,26.27323,44,35,0
25.613888,26.27323,32,29,0
26.27323,26.911528,45,31,0
26.27323,26.911528,33,26,0
26.911528,27.570868,47,31,0
26.911528,27.570868,35,26,0
27.570868,28.890312,48,35,0
27.570868,28.890312,36,29,0
28.9042,29.588108,48,32,0
28.9042,29.588108,36,27,0
29.593855,30.247702,48,40,0
29.593855,30.247702,36,33,0
30.253197,30.907042,48,37,0
30.253197,30.907042,36,31,0
30.912537,31.61842,48,39,0
30.912537,31.61842,36,32,0
31.61842,33.605713,49,39,0
31.61842,33.605713,37,32,0
33.605713,34.265053,49,32,0
33.605713,34.265053,37,27,0
34.265053,34.924393,56,37,0
34.265053,34.924393,53,31,0
34.265053,34.924393,49,31,0
34.924393,35.622066,59,37,0
34.924393,35.622066,56,31,0
34.924393,35.622066,49,31,0
35.622066,36.926414,59,43,0
35.622066,36.926414,49,36,0
36.926414,37.60255,57,34,0
36.926414,37.60255,49,28,0
37.608234,38.260406,57,43,0
37.608234,38.260406,49,36,0
38.260406,38.912582,56,38,0
38.260406,38.912582,49,32,0
38.912582,39.60904,54,38,0
38.912582,39.60904,49,32,0
39.60904,40.92772,54,43,0
39.60904,40.92772,49,36,0
40.92772,41.58706,53,34,0
40.92772,41.58706,49,28,0
41.58706,42.246403,53,49,0
42.246403,42.8847,56,45,0
41.58706,42.8847,49,36,0
42.8847,43.210785,59,38,0
43.210785,43.602234,62,38,0
42.8847,43.605522,49,32,0
42.8847,43.605522,56,32,0
43.605522,44.90316,62,43,0
43.605522,44.90316,49,36,0
43.605522,44.90316,59,36,0
44.90316,45.59502,61,37,0
44.90316,45.59502,49,31,0
44.90316,45.59502,57,31,0
45.600838,46.274994,57,34,0
45.600838,46.274994,61,41,0
45.600838,46.274994,49,34,0
46.274994,46.94915,56,30,0
46.274994,46.94915,59,36,0
46.274994,46.94915,49,30,0
46.94915,47.68372,54,29,0
46.94915,47.68372,57,35,0
46.94915,47.68372,49,29,0
47.68989,49.00172,57,39,0
47.68989,49.00172,49,32,0
47.68989,49.00172,54,32,0
49.00172,49.66283,56,29,0
49.00172,49.66283,49,25,0
49.00172,49.66283,53,25,0
49.668385,51.00172,56,31,0
49.668385,51.00172,49,26,0
49.668385,51.00172,53,26,0
51.00172,51.537434,58,26,0
51.00172,51.537434,55,21,0
51.00172,51.537434,52,21,0
51.00172,51.537434,49,21,0
51.716003,53.763622,55,32,0
51.716003,53.763622,50,32,0
51.743782,53.7914,59,43,0
53.763622,53.7914,59,30,0
53.763622,55.096954,62,36,0
55.096954,55.78661,62,30,0
53.763622,55.78661,55,30,0
55.78661,57.791218,60,33,0
55.78661,57.791218,64,39,0
57.791218,59.1099,62,35,0
57.791218,59.1099,59,29,0
59.1099,59.809902,62,32,0
59.815784,60.475124,62,35,0
60.475124,61.113422,61,31,0
61.113422,61.772762,61,31,0
61.113422,61.772762,49,26,0
61.113422,61.772762,54,26,0
61.113422,61.772762,57,26,0
61.772762,63.092205,61,35,0
61.772762,63.092205,49,29,0
61.772762,63.092205,53,29,0
61.772762,63.092205,56,29,0
63.106094,63.790005,61,32,0
63.106094,63.790005,49,27,0
63.106094,63.790005,53,27,0
63.106094,63.790005,56,27,0
63.79575,65.12908,61,35,0
63.79575,65.12908,49,29,0
63.79575,65.12908,53,29,0
63.79575,65.12908,56,29,0
65.12908,65.81299,61,32,0
65.12908,65.81299,57,27,0
65.12908,65.81299,54,27,0
65.81874,66.47259,61,35,0
65.81874,66.47259,57,27,0
65.81874,66.47259,54,27,0
66.47808,67.11638,57,34,0
67.11638,67.446045,59,33,0
67.11638,67.446045,56,33,0
67.446045,67.77572,57,38,0
67.446045,67.77572,54,38,0
68.40072,69.045876,41,38,0
69.045876,69.735535,42,39,0
69.735535,70.72884,44,42,0
70.72884,71.04799,45,45,0
71.04799,71.37408,47,48,0
71.37408,71.700165,48,50,0
67.77572,71.700165,37,43,0
71.700165,74.030334,49,43,0
71.700165,74.030334,37,36,0
74.030334,74.36,49,45,0
74.36,74.67915,53,45,0
74.67915,74.9983,56,45,0
74.9983,75.32439,59,38,0
75.32439,75.715836,62,38,0
75.719124,76.3713,37,36,0
75.738144,76.39096,49,43,0
76.3713,76.39096,49,31,0
76.3713,77.045456,41,31,0
76.3713,77.045456,53,37,0
77.045456,77.72727,54,37,0
77.045456,77.72727,42,31,0
77.045456,77.72727,49,31,0
77.72727,78.72058,49,34,0
77.72727,78.72058,56,41,0
77.72727,78.72058,44,34,0
78.72058,79.04316,45,38,0
78.72058,79.04316,57,45,0
79.04316,79.38407,47,40,0
79.04316,79.38407,59,48,0
79.38407,79.74121,48,42,0
79.38407,79.74121,60,50,0
80.40788,81.07455,57,35,0
80.40788,81.07455,54,28,0
79.74121,81.07455,49,32,0
81.07455,81.74121,56,29,0
81.07455,81.74121,49,25,0
81.07455,81.74121,53,25,0
81.74121,82.407875,56,31,0
81.74121,82.407875,49,26,0
81.74121,82.407875,53,26,0
82.407875,83.07455,55,21,0
82.407875,83.07455,58,26,0
82.407875,83.07455,52,21,0
82.407875,83.07455,49,21,0
83.07455,83.78883,59,26,0
83.07455,83.78883,55,21,0
83.07455,83.78883,50,21,0
83.78883,85.79632,50,32,0
83.78883,85.79632,43,32,0
83.78883,85.79632,59,43,0
85.79632,87.79048,62,36,0
85.79632,87.79048,47,30,0
85.79632,87.79048,55,30,0
87.79048,89.73298,55,30,0
87.79048,89.73298,64,42,0
87.79048,89.73298,48,30,0
89.73298,90.43065,62,47,0
89.73298,90.43065,55,39,0
90.43065,91.082825,55,35,0
89.73298,91.082825,47,39,0
91.082825,91.75698,54,43,0
91.082825,91.75698,50,36,0
91.75698,92.41632,54,35,0
91.75698,92.41632,50,35,0
92.41632,93.05462,57,31,0
92.41632,93.05462,54,31,0
92.41632,93.05462,49,31,0
93.05462,93.708466,61,31,0
93.05462,93.708466,49,26,0
93.05462,93.708466,54,26,0
93.05462,93.708466,57,26,0
93.71396,95.047295,61,38,0
93.71396,95.047295,49,31,0
93.71396,95.047295,53,31,0
93.71396,95.047295,56,31,0
95.047295,95.7312,61,32,0
95.047295,95.7312,57,27,0
95.047295,95.7312,54,27,0
95.736946,96.396286,61,39,0
95.736946,96.396286,54,33,0
95.736946,96.396286,57,33,0
96.396286,97.034584,62,34,0
97.034584,97.693924,55,31,0
96.396286,97.693924,47,26,0
97.693924,98.35327,59,39,0
98.35327,98.99157,37,26,0
98.99157,99.65091,53,31,0
98.35327,99.65091,49,31,0
99.65091,100.34858,54,39,0
99.65091,100.34858,42,33,0
99.65091,100.34858,49,33,0
100.34858,101.64622,56,37,0
100.34858,101.64622,41,31,0
100.34858,101.64622,49,31,0
101.64622,102.37793,54,33,0
101.64622,102.37793,42,28,0
101.64622,102.37793,49,28,0
102.37793,103.345894,57,32,0
103.345894,103.67557,53,22,0
102.37793,103.67557,49,20,0
104.33491,104.67973,42,26,0
105.02456,105.35065,49,20,0
105.02456,105.35065,61,26,0
105.02456,105.35065,57,20,0
105.02456,105.35065,54,20,0
105.676735,106.00641,49,24,0
105.676735,106.00641,61,31,0
105.676735,106.00641,57,24,0
105.676735,106.00641,54,24,0
106.336075,106.6809,42,26,0
107.025734,107.34831,49,20,0
107.025734,107.34831,61,26,0
107.025734,107.34831,57,20,0
107.025734,107.34831,54,20,0
107.67089,108.00423,61,29,0
107.67089,108.00423,49,23,0
107.67089,108.00423,54,23,0
107.67089,108.00423,57,23,0
108.337555,108.67089,42,26,0
109.00423,109.337555,49,20,0
109.00423,109.337555,61,26,0
109.00423,109.337555,57,20,0
109.00423,109.337555,54,20,0
109.67089,110.00423,61,30,0
109.67089,110.00423,49,24,0
109.67089,110.00423,54,24,0
109.67089,110.00423,57,24,0
110.337555,110.66723,42,26,0
110.996895,111.34173,49,20,0
110.996895,111.34173,61,26,0
110.996895,111.34173,57,20,0
110.996895,111.34173,54,20,0
111.686554,112.01622,61,29,0
111.686554,112.01622,56,23,0
111.686554,112.01622,53,23,0
111.686554,112.01622,49,23,0
111.686554,112.01622,59,23,0
112.345894,112.67557,44,26,0
113.03701,113.36668,53,20,0
113.03701,113.36668,62,26,0
113.03701,113.36668,59,20,0
113.03701,113.36668,56,20,0
113.69635,114.026024,62,30,0
113.69635,114.026024,53,24,0
113.69635,114.026024,56,24,0
113.69635,114.026024,59,24,0
114.35569,114.68536,44,26,0
115.01503,115.3447,53,20,0
115.01503,115.3447,62,26,0
115.01503,115.3447,59,20,0
115.01503,115.3447,56,20,0
115.67437,116.019196,62,29,0
115.67437,116.019196,53,23,0
115.67437,116.019196,56,23,0
115.67437,116.019196,59,23,0
116.36403,116.693695,44,26,0
117.042534,117.36862,53,20,0
117.042534,117.36862,62,26,0
117.042534,117.36862,59,20,0
117.042534,117.36862,56,20,0
117.69471,118.0208,62,30,0
117.69471,118.0208,53,24,0
117.69471,118.0208,56,24,0
117.69471,118.0208,59,24,0
118.346886,118.672966,44,26,0
118.999054,119.32514,53,20,0
118.999054,119.32514,61,26,0
118.999054,119.32514,59,20,0
118.999054,119.32514,56,20,0
119.65123,119.984566,61,29,0
119.65123,119.984566,49,23,0
119.65123,119.984566,54,23,0
119.65123,119.984566,57,23,0
120.317894,120.65123,42,26,0
120.984566,121.317894,49,20,0
120.984566,121.317894,61,26,0
120.984566,121.317894,57,20,0
120.984566,121.317894,54,20,0
121.65123,121.984566,61,30,0
121.65123,121.984566,49,24,0
121.65123,121.984566,54,24,0
121.65123,121.984566,57,24,0
122.317894,122.64757,42,26,0
122.977234,123.32207,49,20,0
122.977234,123.32207,61,26,0
122.977234,123.32207,57,20,0
122.977234,123.32207,54,20,0
123.66689,124.00374,61,32,0
123.66689,124.00374,56,25,0
123.66689,124.00374,53,25,0
123.66689,124.00374,49,25,0
123.66689,124.00374,59,25,0
124.323074,124.632355,44,30,0
124.9938,125.32347,53,24,0
124.9938,125.32347,62,32,0
124.9938,125.32347,59,24,0
124.9938,125.32347,56,24,0
125.6683,125.99796,62,35,0
125.6683,125.99796,53,28,0
125.6683,125.99796,56,28,0
125.6683,125.99796,59,28,0
126.32764,126.65731,44,29,0
127.01025,127.33992,53,21,0
127.01025,127.33992,62,28,0
127.01025,127.33992,59,21,0
127.01025,127.33992,56,21,0
127.669586,128.01442,62,29,0
127.669586,128.01442,53,23,0
127.669586,128.01442,56,23,0
127.669586,128.01442,59,23,0
128.35924,128.68892,44,29,0
129.03775,129.36385,53,24,0
129.03775,129.36385,62,31,0
129.03775,129.36385,59,24,0
129.03775,129.36385,56,24,0
129.68993,130.016,62,35,0
129.68993,130.016,53,28,0
129.68993,130.016,56,28,0
129.68993,130.016,59,28,0
130.3421,130.66818,44,32,0
130.99428,131.32036,53,25,0
130.99428,131.32036,61,32,0
130.99428,131.32036,59,25,0
130.99428,131.32036,56,25,0
131.64645,131.97978,61,36,0
131.64645,131.97978,57,28,0
131.64645,131.97978,54,28,0
132.31311,132.64645,45,32,0
132.97978,133.31311,54,25,0
132.97978,133.31311,57,25,0
132.97978,133.31311,61,32,0
133.64645,133.97978,62,37,0
133.64645,133.97978,53,30,0
133.64645,133.97978,56,30,0
133.64645,133.97978,59,30,0
134.31311,134.64278,44,32,0
134.97246,135.31728,53,25,0
134.97246,135.31728,61,32,0
134.97246,135.31728,59,25,0
134.97246,135.31728,56,25,0
135.66211,135.99544,61,36,0
135.66211,135.99544,57,28,0
135.66211,135.99544,54,28,0
136.32751,136.6501,45,32,0
136.97269,137.29526,54,25,0
136.97269,137.29526,49,25,0
136.97269,137.29526,61,32,0
136.97269,137.29526,57,25,0
137.62091,137.95059,61,37,0
137.62091,137.95059,56,30,0
137.62091,137.95059,49,30,0
137.62091,137.95059,53,30,0
137.62091,137.95059,59,30,0
138.28331,138.61752,44,32,0
138.95459,139.29474,56,25,0
138.95459,139.29474,59,25,0
138.95459,139.29474,61,32,0
139.63565,139.96898,61,39,0
139.63565,139.96898,57,30,0
140.3023,140.63565,45,35,0
140.95822,141.2808,58,28,0
140.95822,141.2808,61,36,0
141.6034,141.92596,61,42,0
141.6034,141.92596,58,34,0
142.25931,142.58897,46,40,0
142.91156,143.24863,59,31,0
142.91156,143.24863,63,40,0
143.58571,143.9083,63,47,0
143.58571,143.9083,59,36,0
144.2492,144.58253,47,42,0
144.90862,145.23471,61,33,0
144.90862,145.23471,64,42,0
145.56079,145.88689,64,50,0
145.56079,145.88689,61,40,0
146.2278,146.55746,49,44,0
146.88354,147.21689,63,35,0
146.88354,147.21689,66,44,0
147.55022,147.88354,63,41,0
147.55022,147.88354,66,49,0
147.88354,148.21689,51,41,0
148.21689,148.55022,64,41,0
148.21689,148.55022,67,49,0
148.55022,148.88354,52,42,0
148.88354,149.21689,66,42,0
148.88354,149.21689,69,51,0
149.21689,149.55022,54,41,0
149.55022,149.91167,71,56,0
149.55022,149.91167,67,47,0
149.91167,150.245,55,44,0
150.245,150.5823,71,57,0
150.245,150.5823,68,48,0
150.5823,150.92706,56,51,0
150.92706,151.28023,73,62,0
150.92706,151.28023,69,52,0
151.28023,151.6912,57,49,0
151.6912,152.33635,73,48,0
151.6912,152.33635,69,40,0
152.33635,152.98152,61,40,0
152.33635,153.65294,57,34,0
152.98152,153.97551,63,35,0
153.97551,154.2981,63,32,0
154.2981,154.62068,66,38,0
154.62068,154.94325,64,34,0
154.94325,155.26584,63,39,0
155.26584,155.61467,64,35,0
153.65294,155.61467,57,33,0
155.61467,156.25984,62,48,0
155.61467,157.57642,57,34,0
156.25984,157.899,61,40,0
157.899,158.22157,61,32,0
158.22157,158.54416,64,38,0
158.54416,158.86674,62,34,0
158.86674,159.18932,61,39,0
159.18932,159.53816,62,35,0
157.57642,159.53816,57,33,0
159.53816,160.18332,60,39,0
159.53816,160.18332,63,39,0
160.18332,160.82848,61,33,0
160.18332,160.82848,64,39,0
159.53816,160.82848,57,33,0
160.82848,161.15106,63,39,0
161.15106,161.49301,64,39,0
160.82848,161.4959,58,33,0
161.4959,161.81503,64,45,0
161.81503,162.13419,61,39,0
161.4959,162.13419,58,38,0
162.13419,162.45334,64,44,0
162.45334,162.77249,62,39,0
162.13419,162.77249,59,37,0
162.77249,163.09163,61,43,0
163.09163,163.45892,62,39,0
162.77249,163.462,56,36,0
163.462,164.12868,62,46,0
163.462,164.12868,56,39,0
164.12868,164.78084,55,35,0
164.12868,164.78084,61,42,0
164.78084,165.46408,62,39,0
164.78084,165.46408,54,33,0
164.78084,165.46408,57,33,0
165.46408,165.79375,52,45,0
165.79375,166.12341,49,39,0
165.46408,166.12341,45,38,0
166.12341,166.45308,52,57,0
166.45308,166.78276,50,48,0
166.12341,166.78276,47,43,0
166.78276,167.11243,49,57,0
167.11243,167.47829,50,53,0
166.78276,167.47829,44,48,0
167.47829,167.81161,50,67,0
167.81161,168.14494,44,59,0
167.47829,168.14494,41,51,0
168.14494,168.47829,47,69,0
168.47829,168.84413,45,58,0
168.84413,169.18121,44,69,0
168.14494,169.18121,42,53,0
169.18121,169.5183,45,58,0
169.18121,169.5183,41,45,0
169.5183,169.85536,45,68,0
169.5183,169.85536,40,57,0
169.85536,170.19244,32,61,0
170.19244,170.52953,34,72,0
170.52953,170.89539,33,63,0
170.89539,171.26123,32,72,0
171.26123,171.5966,33,62,0
171.62709,171.99614,33,81,0
171.99614,172.36533,52,43,0
172.36533,172.72281,49,47,0
172.72281,173.07574,55,43,0
173.07574,173.43152,52,48,0
173.43152,173.78867,58,43,0
173.78867,174.14972,56,47,0
174.14972,174.5139,57,43,0
174.5139,174.89963,52,46,0
174.89963,175.30989,59,39,0
175.30989,175.7291,57,45,0
175.7291,176.1564,55,40,0
176.1564,176.48975,54,38,0
176.48975,176.82307,59,33,0
176.82307,177.1564,56,38,0
177.1564,177.48975,57,34,0
177.48975,177.82307,54,38,0
177.82307,178.1564,59,33,0
178.1564,178.48975,56,38,0
178.48975,178.82307,57,33,0
178.82307,179.1564,54,32,0
179.1564,179.48975,59,28,0
176.1564,179.48975,50,32,0
179.48975,179.80225,54,32,0
179.80225,180.14706,57,28,0
179.48975,180.14706,50,27,0
180.14706,180.47673,52,38,0
180.47673,180.80641,57,33,0
180.14706,180.80641,49,32,0
180.80641,181.12555,54,38,0
181.12555,181.4447,57,34,0
180.80641,181.4447,50,32,0
181.4447,181.75082,55,41,0
181.4447,182.0899,52,34,0
181.75082,182.09566,57,36,0
182.09566,182.40494,55,40,0
182.40494,182.73827,57,34,0
182.09566,182.73827,52,34,0
182.73827,183.06793,54,38,0
183.06793,183.39761,57,32,0
182.73827,183.39761,50,32,0
183.39761,183.72728,52,37,0
183.72728,184.08443,57,34,0
183.39761,184.08443,49,31,0
184.08443,184.4105,54,38,0
184.4105,184.73659,59,33,0
184.73659,185.07367,56,38,0
185.07367,185.41075,57,34,0
185.41075,185.74042,54,38,0
185.74042,186.0701,59,33,0
186.0701,186.39977,56,38,0
186.39977,186.72943,57,33,0
186.72943,187.05202,54,38,0
187.05202,187.37459,59,32,0
184.08443,187.37459,50,32,0
187.37459,187.68387,54,34,0
187.68387,188.0287,57,29,0
187.37459,188.0287,50,29,0
188.0287,188.35837,52,32,0
188.35837,188.68803,57,28,0
188.0287,188.68803,49,27,0
188.68803,189.01062,54,34,0
189.01062,189.3332,57,31,0
188.68803,189.3332,50,28,0
189.3332,189.63933,55,39,0
189.3332,189.97841,52,32,0
189.63933,189.98415,57,35,0
189.98415,190.29343,55,40,0
190.29343,190.62677,57,34,0
189.98415,190.62677,52,34,0
190.62677,190.95644,54,38,0
190.95644,191.2861,57,32,0
190.62677,191.2861,50,32,0
191.2861,191.61577,52,37,0
191.61577,191.97292,57,34,0
191.2861,191.97292,49,31,0
191.97292,192.19792,54,38,0
192.19792,192.42014,59,33,0
192.41736,192.63959,57,33,0
192.63959,192.8597,56,38,0
192.85698,193.07437,59,34,0
193.07437,193.23741,57,34,0
193.29176,193.51187,54,38,0
193.51187,193.73433,59,33,0
193.73148,193.90193,57,33,0
193.95876,194.18127,56,38,0
194.17853,194.39832,59,33,0
194.39832,194.56316,57,33,0
194.61809,194.84062,54,38,0
194.84062,195.0604,59,34,0
195.05765,195.22249,57,34,0
191.97292,195.27744,50,32,0
195.27744,195.5102,54,38,0
195.50732,195.74727,58,34,0
195.74727,195.93477,57,34,0
195.27744,195.99727,50,32,0
195.99727,196.21979,52,38,0
196.21704,196.43683,59,33,0
196.43683,196.60165,57,33,0
195.99727,196.6566,49,32,0
196.6566,196.87202,54,38,0
196.86937,197.08214,59,34,0
197.08214,197.24171,57,34,0
196.6566,197.2949,50,32,0
197.2949,197.50153,55,41,0
197.49898,197.72151,59,36,0
197.72151,197.90222,57,36,0
197.2949,197.95645,52,34,0
197.96246,198.1734,55,40,0
198.1708,198.38608,59,34,0
198.38608,198.55275,57,34,0
197.96246,198.6083,52,34,0
198.6083,198.82605,54,38,0
198.82335,199.0384,59,32,0
199.0384,199.1997,57,32,0
198.6083,199.25346,50,32,0
199.25346,199.4712,52,37,0
199.46852,199.6951,59,34,0
199.6951,199.87366,57,34,0
199.25346,199.93318,49,31,0
199.93318,200.15819,54,38,0
200.15819,200.38042,59,39,0
200.37762,200.59985,57,39,0
200.59985,200.81996,56,46,0
200.81725,201.04088,59,41,0
201.04088,201.2133,57,42,0
201.27077,201.4933,54,47,0
201.4933,201.71307,59,41,0
201.71033,201.87517,57,42,0
201.93011,202.15263,56,49,0
202.14989,202.36967,59,42,0
202.36967,202.5345,57,43,0
202.58945,202.81198,54,50,0
202.81198,203.03175,59,45,0
203.029,203.19385,57,45,0
199.93318,203.2488,50,32,0
203.2488,203.46654,54,51,0
203.46384,203.68631,58,50,0
203.68631,203.85873,57,50,0
203.2488,203.9162,50,43,0
203.9162,204.13873,52,53,0
204.13597,204.35576,59,46,0
204.35576,204.5206,57,46,0
203.9162,204.57553,49,44,0
204.57553,204.79327,54,54,0
204.79059,205.00565,59,48,0
205.00565,205.16693,57,49,0
204.57553,205.2207,50,45,0
205.2207,205.43385,55,60,0
205.43123,205.65143,59,53,0
205.65143,205.82385,57,54,0
205.2207,205.88132,52,50,0
205.88132,206.09225,55,60,0
206.08965,206.30493,59,51,0
206.30493,206.47159,57,51,0
205.88132,206.52715,52,50,0
206.52715,206.74489,54,58,0
206.7422,206.95726,59,49,0
206.95726,207.11855,57,50,0
206.52715,207.17232,50,49,0
207.17232,207.39484,52,58,0
207.39209,207.62103,57,53,0
207.62103,207.7996,55,40,0
207.17232,207.85913,49,49,0
207.85913,208.07417,54,40,0
208.07417,208.28923,57,36,0
208.28923,208.50429,55,36,0
208.50429,208.71481,54,40,0
208.71481,208.92534,55,38,0
208.92534,209.13586,57,38,0
209.13586,209.34639,59,40,0
209.34639,209.55692,61,37,0
209.55692,209.78947,62,37,0
207.85913,209.78947,50,50,0
209.78947,210.42778,64,40,0
210.42778,210.62778,64,40,0
210.62778,210.83185,62,36,0
210.83185,211.03593,61,36,0
211.03593,211.24002,59,40,0
211.24002,211.4441,57,35,0
211.4441,211.67137,55,35,0
209.78947,211.67137,52,50,0
211.67137,211.88643,61,40,0
211.88643,212.10149,62,36,0
212.10149,212.31653,61,37,0
212.31653,212.52705,57,42,0
212.52705,212.7376,59,40,0
212.7376,212.94812,60,41,0
212.94812,213.15865,62,44,0
213.15865,213.36917,64,41,0
213.36917,213.60173,66,41,0
211.67137,213.60173,54,50,0
213.60173,214.44002,67,46,0
214.44002,214.6441,66,43,0
214.6441,214.84819,64,44,0
214.84819,215.05226,62,50,0
215.05226,215.25635,60,44,0
215.25635,215.48363,59,44,0
213.60173,215.48363,55,57,0
215.48363,215.69867,64,52,0
215.69867,215.91373,61,47,0
215.91373,216.12878,62,47,0
216.12878,216.33931,64,54,0
216.33931,216.54984,66,51,0
216.54984,216.76036,67,52,0
215.48363,216.76036,57,65,0
216.76036,216.97089,66,56,0
216.97089,217.18141,64,52,0
217.18141,217.41397,62,52,0
216.76036,217.41397,59,70,0
217.41397,217.62674,70,58,0
217.62674,217.83951,64,52,0
217.83951,218.05228,66,53,0
218.05228,218.25227,67,60,0
218.25227,218.45636,69,57,0
218.45636,218.66043,70,58,0
217.41397,218.66043,61,72,0
218.66043,218.86452,69,62,0
218.86452,219.0686,67,57,0
219.0686,219.29587,66,58,0
218.66043,219.29587,63,77,0
219.29587,219.50864,67,58,0
219.50864,219.7214,70,52,0
219.7214,219.93417,73,53,0
219.29587,219.93417,64,72,0
219.93417,220.13417,72,51,0
220.13417,220.33826,71,48,0
220.33826,220.54233,72,49,0
219.93417,220.54233,66,50,0
220.54233,220.74641,71,52,0
220.74641,220.9505,69,48,0
220.54233,220.9505,67,65,0
220.9505,221.17776,67,52,0
220.9505,221.17776,55,52,0
221.17776,221.39053,59,48,0
221.39053,221.6033,61,47,0
221.6033,221.81607,62,39,0
221.81607,222.03584,65,45,0
222.03584,222.25563,64,38,0
222.25563,222.4754,62,37,0
221.17776,222.4754,56,52,0
222.4754,222.69698,61,43,0
222.69698,222.95462,63,36,0
222.95462,223.24448,64,35,0
222.4754,223.24448,55,38,0
223.24448,225.31343,69,46,0
223.24448,225.31343,66,39,0
225.31343,226.687,66,38,0
225.31343,226.687,63,32,0
226.69275,227.3824,66,31,0
226.69275,227.3824,63,26,0
226.69275,227.3824,59,26,0
227.3824,228.41689,67,41,0
227.3824,228.41689,64,41,0
228.41689,228.7617,59,36,0
228.41689,228.7617,55,30,0
228.7617,229.10262,69,43,0
229.10262,229.47762,67,37,0
228.7617,229.47762,55,43,0
229.47762,229.82245,66,46,0
229.82245,230.16728,68,39,0
230.16728,230.50061,71,44,0
230.50061,230.83394,69,40,0
229.47762,230.83394,57,39,0
230.83394,231.16727,45,45,0
230.83394,231.16727,33,38,0
231.16727,231.33394,43,45,0
231.16727,231.33394,31,38,0
231.33394,231.50061,42,46,0
231.33394,231.50061,30,39,0
231.50061,231.65851,30,52,0
231.65851,231.81639,33,44,0
231.81639,231.97429,36,43,0
231.97429,232.13219,39,42,0
232.13219,232.29008,42,41,0
232.29008,232.44798,45,40,0
232.44798,232.6074,48,39,0
232.6074,232.76753,51,38,0
232.76753,232.92882,54,36,0
232.92882,233.09137,60,27,0
233.09137,233.25462,55,27,0
233.25462,233.45198,59,27,0
233.45198,234.78532,55,26,0
233.45198,234.78532,43,22,0
235.44157,235.64565,33,39,0
235.64565,235.84973,38,34,0
235.84973,236.08783,42,34,0
236.23935,236.39085,50,32,0
236.39085,236.54237,54,32,0
236.54237,236.71368,57,32,0
236.71368,236.85889,50,38,0
236.85889,237.00705,54,34,0
236.08783,237.00705,45,39,0
237.00705,237.15819,50,34,0
237.15819,237.36484,53,34,0
237.00705,237.36484,47,28,0
237.36484,238.01158,52,38,0
237.36484,238.01158,49,32,0
238.01701,238.99527,55,30,0
238.01701,238.99527,46,25,0
238.01701,238.99527,49,25,0
238.01701,238.99527,52,25,0
238.99527,239.32137,54,27,0
238.99527,239.32137,51,22,0
238.99527,239.32137,47,22,0
239.32137,240.61212,54,30,0
239.32137,240.61212,51,25,0
239.32137,240.61212,47,25,0
240.6257,241.25868,59,27,0
240.6257,241.25868,47,22,0
240.6257,241.25868,51,22,0
240.6257,241.25868,54,22,0
241.264,242.56895,59,30,0
241.264,242.56895,47,25,0
241.264,242.56895,51,25,0
241.264,242.56895,54,25,0
242.58269,243.22943,59,27,0
242.58269,243.22943,47,22,0
242.58269,243.22943,51,22,0
242.58269,243.22943,54,22,0
243.23486,243.87465,47,30,0
243.23486,243.87465,35,25,0
243.88002,245.19276,42,30,0
243.88002,245.19276,30,25,0
245.20636,245.83932,43,30,0
245.20636,245.83932,31,25,0
245.84465,247.20195,45,25,0
245.84465,247.20195,33,21,0
247.21648,248.54982,38,24,0
247.21648,248.54982,26,20,0
248.54982,249.21648,54,22,0
249.21648,250.54982,45,24,0
250.54982,251.29056,57,21,0
251.29056,252.60924,54,24,0
252.60924,253.26857,45,34,0
252.60924,253.26857,33,28,0
253.26857,254.58727,45,34,0
253.26857,254.58727,35,27,0
253.26857,254.58727,47,40,0
254.58727,255.2411,45,29,0
254.58727,255.2411,49,29,0
254.58727,255.2411,37,29,0
255.2466,256.57993,50,36,0
255.2466,256.57993,38,30,0
255.2466,256.57993,45,30,0
256.57993,257.2466,66,33,0
257.2466,258.57993,57,33,0
258.57993,259.29422,54,31,0
258.57993,259.29422,45,26,0
258.57993,259.29422,42,26,0
259.29422,260.61288,57,33,0
259.29422,260.61288,45,28,0
260.61288,261.89725,54,33,0
260.61288,261.89725,45,28,0
260.61288,261.89725,42,28,0
261.89725,262.55658,52,34,0
261.89725,262.55658,45,28,0
261.89725,262.55658,40,28,0
262.55658,263.2159,45,34,0
262.55658,263.2159,33,29,0
263.2159,265.19394,45,36,0
263.2159,265.19394,38,30,0
265.19394,267.13144,45,37,0
265.19394,267.13144,33,31,0
267.15045,268.4548,45,38,0
267.15045,268.4548,33,32,0
268.4548,268.77396,43,43,0
268.77396,269.0931,42,45,0
269.0931,269.4192,40,53,0
269.4192,269.74454,38,48,0
269.74454,269.95825,37,64,0
269.95825,270.17484,40,53,0
270.17484,270.3948,45,55,0
270.3948,270.61807,49,65,0
270.61807,270.84448,52,59,0
270.84448,271.07455,57,59,0
271.07455,272.9572,54,43,0
271.07455,272.9572,42,36,0
272.9572,274.89316,57,43,0
272.9572,274.89316,45,36,0
274.89316,276.74924,62,43,0
274.89316,276.74924,50,36,0
276.74924,277.97372,59,43,0
276.74924,277.97372,47,36,0
277.97372,278.63306,55,36,0
277.97372,278.63306,43,30,0
278.63306,279.90967,52,47,0
278.63306,279.90967,40,39,0
279.90967,280.5635,55,43,0
279.90967,280.5635,52,36,0
280.569,281.819,52,43,0
280.569,281.819,49,36,0
281.819,282.1315,50,44,0
281.819,282.1315,47,37,0
282.1315,282.47742,49,45,0
282.1315,282.47742,46,38,0
282.48032,282.7961,46,47,0
282.7961,283.1119,49,44,0
283.1119,283.4277,54,47,0
283.4277,283.7435,58,49,0
283.7435,284.05927,61,51,0
284.05927,284.37506,66,53,0
284.37506,286.28052,60,47,0
284.37506,286.28052,68,56,0
284.37506,286.28052,66,47,0
284.37506,286.28052,63,47,0
286.28052,287.5992,56,50,0
286.28052,287.5992,44,42,0
287.5992,288.25305,53,45,0
287.5992,288.25305,41,38,0
288.25854,288.91788,53,50,0
288.25854,288.91788,41,42,0
288.91788,289.54947,49,45,0
288.91788,289.54947,37,38,0
289.54947,290.22363,51,45,0
289.54947,290.22363,39,38,0
290.22363,291.5074,53,50,0
290.22363,291.5074,41,42,0
291.5074,292.16672,56,45,0
291.5074,292.16672,53,38,0
292.16672,293.45047,57,50,0
292.16672,293.45047,54,42,0
293.45047,294.1401,57,40,0
293.45047,294.1401,61,48,0
294.1401,295.4306,57,42,0
294.1401,295.4306,61,50,0
295.4306,296.09912,56,39,0
295.4306,296.09912,60,46,0
296.10474,296.75693,60,50,0
296.10474,296.75693,56,42,0
296.75693,297.3885,60,39,0
296.75693,297.3885,63,46,0
297.3885,298.04068,61,39,0
297.3885,298.04068,65,46,0
298.04068,298.35648,62,50,0
298.35648,298.67227,65,45,0
298.67227,298.98804,68,48,0
298.98804,299.30383,74,51,0
299.30383,299.59332,77,52,0
299.61963,299.96445,80,49,0
299.96445,301.20828,82,55,0
299.96445,301.20828,74,46,0
299.96445,301.20828,77,46,0
299.96445,301.20828,80,46,0
301.8466,302.1657,43,62,0
302.1657,302.48486,46,50,0
302.48486,302.791,51,50,0
302.791,303.0971,55,47,0
303.0971,303.42322,58,54,0
303.42322,303.7493,63,45,0
303.7493,304.0618,46,53,0
304.0618,304.3743,51,45,0
304.3743,304.69687,55,51,0
304.69687,305.01944,58,45,0
305.01944,305.34555,56,45,0
305.34555,305.67163,53,45,0
305.67163,305.99078,51,55,0
305.99078,306.30994,55,49,0
306.30994,306.62906,58,49,0
306.62906,306.9482,63,49,0
306.9482,307.2779,44,54,0
307.2779,307.60757,56,47,0
307.60757,307.92673,47,54,0
307.92673,308.24585,51,48,0
308.24585,308.55835,56,51,0
308.55835,308.87085,59,45,0
308.87085,309.19696,49,45,0
309.19696,309.52304,61,45,0
309.52304,309.84912,46,65,0
309.84912,310.1752,49,42,0
310.1752,310.491,54,51,0
310.491,310.8068,58,46,0
310.8068,311.14386,49,58,0
311.14386,311.48096,61,46,0
311.48096,311.79672,51,58,0
311.79672,312.11252,55,47,0
312.11252,312.4283,58,55,0
312.4283,312.7441,61,47,0
312.7441,313.07376,55,30,0
313.07376,313.40344,58,30,0
313.40344,313.7226,56,39,0
313.7226,314.04175,59,26,0
314.04175,314.35754,63,26,0
314.35754,314.66806,68,26,0
314.6733,315.003,60,31,0
315.003,315.33267,63,31,0
315.33267,315.65524,61,40,0
315.65524,315.9778,64,34,0
315.9778,316.2903,68,34,0
316.2903,316.59763,73,29,0
316.6028,316.93616,65,34,0
316.93616,317.2695,68,31,0
317.2695,317.58865,54,39,0
317.58865,317.90778,58,31,0
317.90778,318.22357,61,31,0
318.22357,318.53937,66,45,0
318.53937,318.86905,39,59,0
318.86905,319.1987,51,52,0
319.1987,319.5213,42,58,0
319.5213,319.84387,46,49,0
319.84387,320.15637,51,57,0
320.15637,320.46887,54,49,0
320.46887,320.80222,44,53,0
320.80222,321.13553,56,49,0
321.13553,321.45468,40,59,0
321.45468,321.77383,44,51,0
321.77383,322.08963,49,52,0
322.08963,322.40543,52,50,0
322.40543,322.73508,44,50,0
322.73508,323.06476,56,45,0
323.06476,323.38733,45,54,0
323.38733,323.7099,49,49,0
323.7099,324.0224,52,49,0
324.0224,324.3297,57,49,0
324.3349,324.66824,49,37,0
324.66824,325.0016,61,34,0
325.6399,325.95566,58,31,0
325.95566,326.2662,63,31,0
325.32074,326.27145,54,31,0
325.0016,326.27145,51,39,0
326.27145,326.60114,55,35,0
326.60114,326.9308,58,31,0
326.9308,327.2534,56,37,0
327.2534,327.57596,59,34,0
327.57596,327.88846,63,34,0
327.88846,328.20096,68,34,0
328.20096,328.5343,60,37,0
328.5343,328.8676,63,34,0
328.8676,329.18677,61,41,0
329.18677,329.50592,65,31,0
329.50592,329.82172,68,31,0
329.82172,330.13223,73,31,0
330.1375,330.46716,65,42,0
330.46716,330.79684,68,36,0
330.79684,331.11942,66,42,0
331.11942,331.44202,69,34,0
331.44202,331.75452,73,34,0
331.75452,332.06702,78,34,0
332.06702,332.40033,59,37,0
332.40033,332.72812,71,34,0
332.40033,332.73367,59,34,0
333.06702,333.40033,68,33,0
333.06702,333.40033,56,28,0
333.73367,334.06702,53,28,0
333.73367,334.06702,65,33,0
335.06342,335.39505,49,25,0
335.06342,335.39505,61,30,0
335.7288,336.0659,49,30,0
335.7288,336.0659,37,25,0
337.09213,337.43695,49,26,0
337.09213,337.43695,37,22,0
337.78177,338.12662,37,25,0
339.16452,339.52304,37,22,0
339.89203,340.27225,37,21,0
340.27225,341.0514,37,21,0
341.0514,341.69812,37,30,0
341.70355,342.34885,37,24,0
342.3542,342.98816,37,20,0
342.3542,342.98816,44,24,0
342.99353,343.63516,44,24,0
342.99353,343.63516,37,20,0
343.6406,344.33725,44,24,0
343.6406,344.33725,37,20,0
344.34326,345.0369,42,24,0
344.34326,345.0369,37,20,0
344.34326,345.0369,30,20,0
345.0425,345.71106,42,24,0
345.0425,345.71106,37,20,0
345.0425,345.71106,30,20,0
345.71667,346.3852,49,24,0
345.71667,346.3852,42,20,0
345.71667,346.3852,37,20,0
346.39084,347.08475,49,24,0
346.39084,347.08475,42,20,0
346.39084,347.08475,37,20,0
347.09125,347.7451,49,24,0
347.09125,347.7451,42,20,0
347.09125,347.7451,37,20,0
347.75058,348.43747,49,24,0
347.75058,348.43747,42,20,0
347.75058,348.43747,37,20,0
348.4437,349.09756,49,24,0
348.4437,349.09756,41,20,0
348.4437,349.09756,37,20,0
349.10306,349.76233,42,28,0
349.10306,349.76233,37,28,0
349.10306,349.76233,49,34,0
349.76788,350.429,49,27,0
349.76788,350.429,42,23,0
349.76788,350.429,37,23,0
350.43454,351.09567,50,28,0
350.43454,351.09567,42,24,0
350.43454,351.09567,38,24,0
351.10123,351.76233,50,30,0
351.10123,351.76233,42,25,0
351.10123,351.76233,38,25,0
351.76788,352.4562,50,31,0
351.76788,352.4562,42,26,0
351.76788,352.4562,38,26,0
352.46268,353.13123,47,32,0
352.46268,353.13123,42,27,0
352.46268,353.13123,35,27,0
353.13684,353.78357,47,35,0
353.13684,353.78357,42,29,0
353.13684,353.78357,35,29,0
353.78903,354.46707,59,34,0
353.78903,354.46707,54,29,0
353.78903,354.46707,47,29,0
354.4734,355.14194,57,36,0
354.4734,355.14194,54,30,0
354.4734,355.14194,45,30,0
355.14755,355.8161,57,37,0
355.14755,355.8161,54,31,0
355.14755,355.8161,45,31,0
355.82172,356.50296,56,38,0
355.82172,356.50296,49,32,0
355.82172,356.50296,44,32,0
356.50922,357.19046,54,39,0
356.50922,357.19046,49,33,0
356.50922,357.19046,42,33,0
357.19672,357.85056,56,42,0
357.19672,357.85056,49,35,0
357.19672,357.85056,41,35,0
357.85605,358.51178,56,40,0
357.85605,358.51178,49,34,0
357.85605,358.51178,41,34,0
358.51733,359.19418,61,40,0
358.51733,359.19418,53,34,0
358.51733,359.19418,56,34,0
358.51733,359.19418,59,34,0
359.20026,359.84702,62,40,0
359.20026,359.84702,53,34,0
359.20026,359.84702,56,34,0
359.20026,359.84702,59,34,0
359.85245,360.51355,62,40,0
359.85245,360.51355,53,34,0
359.85245,360.51355,56,34,0
359.85245,360.51355,59,34,0
360.5191,361.1802,62,40,0
360.5191,361.1802,53,34,0
360.5191,361.1802,56,34,0
360.5191,361.1802,59,34,0
361.1858,361.87167,62,42,0
361.1858,361.87167,53,35,0
361.1858,361.87167,56,35,0
361.1858,361.87167,59,35,0
361.87808,362.54663,53,40,0
361.87808,362.54663,44,34,0
361.87808,362.54663,41,34,0
362.55225,363.2061,53,40,0
362.55225,363.2061,44,34,0
362.55225,363.2061,41,34,0
363.21158,363.8884,53,36,0
363.21158,363.8884,44,30,0
363.21158,363.8884,41,30,0
363.8945,364.56305,54,33,0
363.8945,364.56305,45,28,0
363.8945,364.56305,42,28,0
364.56866,365.2225,56,31,0
364.56866,365.2225,47,26,0
364.56866,365.2225,44,26,0
365.228,365.907,56,30,0
365.228,365.907,47,25,0
365.228,365.907,44,25,0
365.91318,366.58173,65,31,0
365.91318,366.58173,56,26,0
365.91318,366.58173,59,26,0
365.91318,366.58173,62,26,0
366.58734,367.2559,65,35,0
366.58734,367.2559,56,29,0
366.58734,367.2559,59,29,0
366.58734,367.2559,62,29,0
367.2615,367.94836,65,38,0
367.2615,367.94836,59,32,0
367.2615,367.94836,56,32,0
367.2615,367.94836,62,32,0
367.95462,368.59442,66,37,0
367.95462,368.59442,61,31,0
367.95462,368.59442,57,31,0
368.5998,368.92316,66,36,0
368.5998,368.92316,62,30,0
368.5998,368.92316,59,30,0
368.92587,369.25195,66,36,0
368.92587,369.25195,63,30,0
368.92587,369.25195,60,30,0
369.57803,369.90414,68,37,0
369.57803,369.90414,60,31,0
369.57803,369.90414,63,31,0
369.57803,369.90414,66,31,0
370.23022,370.5563,66,34,0
370.23022,370.5563,63,29,0
370.23022,370.5563,60,29,0
370.8824,371.2085,68,34,0
370.8824,371.2085,66,28,0
370.8824,371.2085,60,28,0
370.8824,371.2085,63,28,0
371.53458,371.89243,66,33,0
371.53458,371.89243,63,27,0
371.53458,371.89243,60,27,0
372.22574,372.55908,69,32,0
372.22574,372.55908,60,27,0
372.22574,372.55908,63,27,0
372.22574,372.55908,66,27,0
372.89243,373.242,57,31,0
372.89243,373.242,54,26,0
372.89243,373.242,48,26,0
372.89243,373.242,51,26,0
373.56808,373.8942,57,32,0
373.56808,373.8942,54,27,0
373.56808,373.8942,49,27,0
374.22385,374.55353,60,26,0
374.22385,374.55353,57,22,0
374.22385,374.55353,49,22,0
374.22385,374.55353,54,22,0
374.8832,375.21286,61,31,0
374.8832,375.21286,57,26,0
374.8832,375.21286,49,26,0
374.8832,375.21286,54,26,0
375.21286,375.8722,61,31,0
375.21286,375.8722,53,26,0
375.21286,375.8722,49,26,0
375.21286,375.8722,56,26,0
375.8722,376.51736,56,31,0
375.8722,376.51736,53,26,0
375.8722,376.51736,49,26,0
376.51736,377.1911,59,31,0
376.51736,377.1911,56,26,0
376.51736,377.1911,49,26,0
377.1911,377.83627,59,32,0
377.1911,377.83627,56,27,0
377.1911,377.83627,49,27,0
377.83627,378.51,59,27,0
377.83627,378.51,56,23,0
377.83627,378.51,49,23,0
378.51,379.16055,57,31,0
378.51,379.16055,54,26,0
378.51,379.16055,49,26,0
379.16055,379.81274,57,27,0
379.16055,379.81274,54,23,0
379.16055,379.81274,49,23,0
379.81274,380.4649,56,31,0
379.81274,380.4649,47,26,0
379.81274,380.4649,50,26,0
379.81274,380.4649,53,26,0
380.4649,381.13477,54,31,0
380.4649,381.13477,45,26,0
380.4649,381.13477,48,26,0
380.4649,381.13477,51,26,0
381.13477,381.77307,54,32,0
381.13477,381.77307,51,27,0
381.13477,381.77307,46,27,0
381.13477,381.77307,47,27,0
381.77307,382.42523,54,27,0
381.77307,382.42523,51,23,0
381.77307,382.42523,46,23,0
381.77307,382.42523,47,23,0
382.42523,383.0774,53,31,0
382.42523,383.0774,49,26,0
382.42523,383.0774,44,26,0
383.0774,383.72958,53,27,0
383.0774,383.72958,49,23,0
383.0774,383.72958,44,23,0
383.72958,384.05566,53,31,0
384.05566,384.4039,56,31,0
384.05566,384.4039,53,31,0
383.72958,384.4039,49,26,0
384.4039,384.72998,56,32,0
384.4039,384.72998,59,32,0
384.72998,385.05606,59,34,0
384.72998,385.05606,62,34,0
384.4039,385.05606,49,27,0
385.05606,385.69586,62,37,0
385.05606,385.69586,59,31,0
385.05606,385.69586,49,31,0
385.70123,386.37256,62,38,0
385.70123,386.37256,59,32,0
385.70123,386.37256,49,32,0
386.37866,387.01843,61,41,0
386.37866,387.01843,57,34,0
386.37866,387.01843,49,34,0
387.02383,387.6636,61,42,0
387.02383,387.6636,57,35,0
387.02383,387.6636,49,35,0
387.66898,388.32755,59,38,0
387.66898,388.32755,56,32,0
387.66898,388.32755,49,32,0
388.3336,388.97336,57,34,0
388.3336,388.97336,54,29,0
388.3336,388.97336,49,29,0
388.97873,389.60358,57,40,0
388.97873,389.60358,54,33,0
388.97873,389.60358,49,33,0
389.6088,390.2622,60,36,0
389.6088,390.2622,57,30,0
389.6088,390.2622,49,30,0
389.6088,390.2622,54,30,0
390.26822,390.90802,61,33,0
390.26822,390.90802,53,28,0
390.26822,390.90802,49,28,0
390.26822,390.90802,56,28,0
390.9134,391.56784,61,33,0
390.9134,391.56784,53,28,0
390.9134,391.56784,49,28,0
390.9134,391.56784,56,28,0
391.57373,392.2135,61,32,0
391.57373,392.2135,53,27,0
391.57373,392.2135,49,27,0
391.57373,392.2135,56,27,0
392.2189,392.85187,61,32,0
392.2189,392.85187,49,26,0
392.2189,392.85187,52,26,0
392.2189,392.85187,58,26,0
392.2189,392.85187,55,26,0
392.85718,393.51492,62,31,0
392.85718,393.51492,55,26,0
392.85718,393.51492,50,26,0
392.85718,393.51492,59,26,0
393.5211,394.1609,62,30,0
393.5211,394.1609,55,25,0
393.5211,394.1609,50,25,0
393.5211,394.1609,59,25,0
394.16626,394.79257,62,29,0
394.16626,394.79257,50,24,0
394.16626,394.79257,59,24,0
394.16626,394.79257,55,24,0
394.79785,395.42416,62,28,0
394.79785,395.42416,55,24,0
394.79785,395.42416,50,24,0
394.79785,395.42416,59,24,0
395.4294,396.0692,62,31,0
395.4294,396.0692,59,26,0
395.4294,396.0692,55,26,0
396.0746,396.73108,62,35,0
396.0746,396.73108,55,29,0
396.0746,396.73108,59,29,0
396.73703,397.3768,64,39,0
396.73703,397.3768,60,33,0
396.73703,397.3768,55,33,0
397.38217,398.01517,64,41,0
397.38217,398.01517,60,34,0
397.38217,398.01517,55,34,0
398.02048,398.67627,64,36,0
398.02048,398.67627,55,30,0
398.02048,398.67627,60,30,0
398.68204,399.315,62,32,0
398.68204,399.315,59,27,0
398.68204,399.315,55,27,0
399.3203,399.9533,62,28,0
399.3203,399.9533,50,24,0
399.3203,399.9533,55,24,0
399.3203,399.9533,59,24,0
399.95862,400.5784,62,28,0
399.95862,400.5784,50,24,0
399.95862,400.5784,57,24,0
399.95862,400.5784,54,24,0
400.58362,401.2034,62,30,0
400.58362,401.2034,54,25,0
400.58362,401.2034,50,25,0
400.58362,401.2034,57,25,0
401.20862,401.8284,57,24,0
401.20862,401.8284,54,24,0
401.20862,401.8284,49,24,0
401.20862,401.8284,61,28,0
401.83362,402.4901,61,28,0
401.83362,402.4901,54,24,0
401.83362,402.4901,49,24,0
401.83362,402.4901,57,24,0
402.49606,403.12903,61,28,0
402.49606,403.12903,53,24,0
402.49606,403.12903,49,24,0
402.49606,403.12903,56,24,0
403.13437,403.75415,61,31,0
403.13437,403.75415,49,26,0
403.13437,403.75415,53,26,0
403.13437,403.75415,56,26,0
403.75937,404.37915,61,35,0
403.75937,404.37915,49,29,0
403.75937,404.37915,53,29,0
403.75937,404.37915,56,29,0
404.38437,405.02414,61,41,0
404.38437,405.02414,53,34,0
404.38437,405.02414,49,34,0
404.38437,405.02414,56,34,0
405.0295,405.6885,61,43,0
405.0295,405.6885,53,36,0
405.0295,405.6885,49,36,0
405.0295,405.6885,56,36,0
405.6946,406.32758,61,37,0
405.6946,406.32758,57,31,0
405.6946,406.32758,54,31,0
406.33292,406.96588,61,32,0
406.33292,406.96588,57,26,0
406.33292,406.96588,54,26,0
406.9712,407.2877,57,32,0
406.9712,407.2877,61,32,0
407.29034,407.61642,57,30,0
407.29034,407.61642,45,25,0
407.29034,407.61642,49,25,0
407.61642,407.94254,56,37,0
407.61642,407.94254,49,32,0
407.61642,407.94254,44,32,0
407.94254,408.28735,54,41,0
407.94254,408.28735,49,34,0
407.94254,408.28735,42,34,0
408.28735,408.60724,49,44,0
408.28735,408.60724,37,37,0
408.60992,409.2551,37,61,0
409.2551,409.90027,41,47,0
409.2551,409.90027,29,39,0
409.90027,410.5603,42,47,0
409.90027,410.5603,30,39,0
410.5603,411.1986,44,47,0
410.5603,411.1986,32,39,0
411.1986,411.51776,45,49,0
411.1986,411.51776,33,41,0
411.51776,411.8369,47,52,0
411.51776,411.8369,35,44,0
411.8369,412.18173,48,55,0
411.8369,412.18173,36,46,0
412.18173,412.49753,49,50,0
412.18173,412.49753,37,42,0
412.49753,412.81332,48,43,0
412.49753,412.81332,36,36,0
412.81332,413.12912,49,49,0
412.81332,413.12912,37,41,0
413.12912,413.4449,48,43,0
413.12912,413.4449,36,36,0
413.4449,413.76068,49,46,0
413.4449,413.76068,37,39,0
413.76068,414.07648,48,42,0
413.76068,414.07648,36,35,0
414.07648,414.39227,49,48,0
414.07648,414.39227,37,40,0
414.39227,414.70807,53,36,0
414.70807,415.04138,56,46,0
415.04138,415.35718,53,36,0
415.35718,415.67297,56,44,0
415.67297,415.98877,59,36,0
415.98877,416.31134,59,44,0
415.98877,416.31134,49,31,0
415.98877,416.31134,53,31,0
415.98877,416.31134,56,37,0
416.31134,416.9565,49,61,0
416.31134,416.9565,37,51,0
416.9565,417.60165,53,47,0
416.9565,417.60165,41,39,0
417.60165,418.26172,54,47,0
417.60165,418.26172,42,39,0
418.26172,418.90002,56,47,0
418.26172,418.90002,44,39,0
418.90002,419.21918,57,49,0
418.90002,419.21918,45,41,0
419.21918,419.5383,59,52,0
419.21918,419.5383,47,44,0
419.5383,420.19894,60,55,0
419.5383,420.19894,48,46,0
420.19894,420.5167,61,43,0
420.19894,420.5167,49,36,0
420.5167,420.83746,48,49,0
420.5167,420.83746,36,41,0
420.83746,421.1607,49,43,0
420.83746,421.1607,37,36,0
421.1607,421.48703,48,46,0
421.1607,421.48703,36,39,0
421.48703,421.8167,49,42,0
421.48703,421.8167,37,35,0
421.8167,422.14987,36,39,0
421.8167,422.14987,48,46,0
422.14987,422.4832,49,42,0
422.14987,422.4832,37,35,0
422.4832,422.82028,37,34,0
422.82028,423.15735,46,30,0
423.15735,423.49442,38,33,0
423.49442,423.8315,47,30,0
423.8315,424.16858,31,33,0
424.16858,424.50568,43,28,0
424.50568,424.83533,50,28,0
424.83533,425.165,43,28,0
425.165,425.49466,50,28,0
425.49466,425.8561,43,28,0
425.8561,426.19702,35,33,0
426.19702,426.53793,43,28,0
426.53793,426.87128,55,28,0
426.87128,427.2046,43,28,0
427.2046,427.53793,55,28,0
427.53793,427.89508,43,28,0
427.89508,428.23215,36,33,0
428.23215,428.56924,43,29,0
428.56924,428.9063,55,29,0
428.9063,429.2434,43,29,0
429.2434,429.59222,55,29,0
429.59222,429.94107,43,29,0
429.94107,430.30692,31,33,0
430.30692,430.65576,43,28,0
430.65576,431.0046,55,28,0
431.0046,431.35342,43,28,0
431.35342,431.5239,55,28,0
431.5239,431.69434,43,24,0
431.69434,432.0602,42,28,0
431.69434,432.0602,38,23,0
432.0602,432.42606,42,30,0
432.0602,432.42606,38,25,0
432.42606,432.7919,45,27,0
432.7919,433.14905,45,27,0
432.7919,433.14905,42,22,0
432.7919,433.14905,37,22,0
433.14905,433.5062,49,27,0
433.5062,433.86334,45,27,0
433.5062,433.86334,42,22,0
433.5062,433.86334,37,22,0
433.86334,434.25293,49,27,0
434.25293,434.6188,44,33,0
434.25293,434.6188,41,28,0
434.25293,434.6188,37,28,0
434.6188,434.98465,49,28,0
434.98465,435.3418,44,28,0
434.98465,435.3418,41,23,0
434.98465,435.3418,37,23,0
435.3418,435.69894,49,28,0
435.69894,436.0561,45,28,0
435.69894,436.0561,42,28,0
436.0561,436.4561,49,28,0
436.4561,436.82645,45,31,0
436.4561,436.82645,42,26,0
436.82645,437.1968,49,26,0
437.1968,437.5672,47,26,0
437.1968,437.5672,35,22,0
437.5672,437.93756,50,26,0
437.93756,438.30792,43,26,0
437.93756,438.30792,35,22,0
438.30792,438.67212,47,26,0
438.6783,439.07303,47,31,0
438.6783,439.07303,35,26,0
439.07303,439.46777,47,24,0
439.46777,439.86252,49,24,0
439.46777,439.86252,37,20,0
439.86252,440.25726,49,24,0
440.25726,440.65198,37,24,0
440.65198,441.08676,41,24,0
441.08676,441.4922,30,29,0
441.4922,441.89758,42,26,0
441.4922,441.89758,37,22,0
441.89758,442.29233,29,26,0
442.29233,442.68704,44,24,0
442.29233,442.68704,37,21,0
442.68704,443.0818,29,23,0
443.0818,443.52954,44,22,0
443.0818,443.52954,37,19,0
443.52954,443.9521,30,24,0
443.9521,444.37463,45,23,0
443.9521,444.37463,37,19,0
444.37463,444.79715,37,18,0
444.79715,445.2197,42,15,0
444.79715,445.2197,49,18,0
445.2197,445.6422,37,18,0
445.6422,446.11096,49,18,0
446.76315,447.08923,50,29,0
446.76315,447.08923,38,24,0
447.4153,447.74142,57,19,0
447.4153,447.74142,69,23,0
447.4153,447.74142,66,19,0
447.4153,447.74142,62,19,0
448.0675,448.3936,57,19,0
448.0675,448.3936,69,23,0
448.0675,448.3936,66,19,0
448.0675,448.3936,62,19,0
448.71967,449.04575,50,28,0
448.71967,449.04575,38,23,0
449.37186,449.69794,57,19,0
449.37186,449.69794,69,23,0
449.37186,449.69794,66,19,0
449.37186,449.69794,62,19,0
450.02402,450.3501,57,19,0
450.02402,450.3501,69,23,0
450.02402,450.3501,66,19,0
450.02402,450.3501,62,19,0
450.6762,451.0023,50,27,0
450.6762,451.0023,38,22,0
451.32837,451.65094,57,19,0
451.32837,451.65094,69,23,0
451.32837,451.65094,66,19,0
451.32837,451.65094,62,19,0
451.97354,452.2961,57,19,0
451.97354,452.2961,69,23,0
451.97354,452.2961,66,19,0
451.97354,452.2961,62,19,0
452.61868,452.93784,50,26,0
452.61868,452.93784,38,22,0
453.257,453.57614,57,19,0
453.257,453.57614,69,23,0
453.257,453.57614,66,19,0
453.257,453.57614,62,19,0
453.91257,454.23526,57,19,0
453.91257,454.23526,69,23,0
453.91257,454.23526,64,19,0
453.91257,454.23526,61,19,0
454.51352,454.85062,49,27,0
454.51352,454.85062,37,22,0
455.15988,455.46915,57,19,0
455.15988,455.46915,69,23,0
455.15988,455.46915,64,19,0
455.15988,455.46915,61,19,0
455.77844,456.0877,57,19,0
455.77844,456.0877,69,23,0
455.77844,456.0877,64,19,0
455.77844,456.0877,61,19,0
456.397,456.70627,49,26,0
456.397,456.70627,37,22,0
457.01556,457.32483,57,19,0
457.01556,457.32483,69,23,0
457.01556,457.32483,64,19,0
457.01556,457.32483,61,19,0
457.65594,457.95004,57,19,0
457.65594,457.95004,69,23,0
457.65594,457.95004,64,19,0
457.65594,457.95004,61,19,0
458.26566,458.5687,49,27,0
458.26566,458.5687,37,22,0
458.8717,459.16873,57,19,0
458.8717,459.16873,69,23,0
458.8717,459.16873,64,19,0
458.8717,459.16873,61,19,0
459.4658,459.75705,57,19,0
459.4658,459.75705,69,23,0
459.4658,459.75705,64,19,0
459.4658,459.75705,61,19,0
460.06226,460.35928,49,26,0
460.06226,460.35928,37,22,0
460.67825,460.98126,57,19,0
460.67825,460.98126,69,23,0
460.67825,460.98126,64,19,0
460.67825,460.98126,61,19,0
461.31137,461.6305,57,21,0
461.31137,461.6305,69,26,0
461.31137,461.6305,66,21,0
461.31137,461.6305,62,21,0
461.94965,462.25577,50,31,0
461.94965,462.25577,38,25,0
462.5619,462.868,54,21,0
462.5619,462.868,66,26,0
462.5619,462.868,62,21,0
462.5619,462.868,57,21,0
463.17413,463.48026,54,21,0
463.17413,463.48026,66,26,0
463.17413,463.48026,62,21,0
463.17413,463.48026,59,21,0
463.78638,464.10898,47,29,0
463.78638,464.10898,35,25,0
464.40308,464.6972,54,21,0
464.40308,464.6972,66,26,0
464.40308,464.6972,62,21,0
464.40308,464.6972,59,21,0
465.0232,465.36288,54,21,0
465.0232,465.36288,64,21,0
465.0232,465.36288,61,21,0
465.0232,465.36288,66,26,0
465.0232,465.36288,58,21,0
465.6599,465.94806,46,31,0
465.6599,465.94806,34,25,0
466.32526,466.66617,58,21,0
466.32526,466.66617,64,21,0
466.32526,466.66617,55,21,0
466.32526,466.66617,67,26,0
466.32526,466.66617,61,21,0
466.98532,467.30447,58,21,0
466.98532,467.30447,64,21,0
466.98532,467.30447,55,21,0
466.98532,467.30447,67,26,0
466.98532,467.30447,61,21,0
467.62363,467.9462,46,29,0
467.62363,467.9462,34,25,0
468.2688,468.59137,58,21,0
468.2688,468.59137,64,21,0
468.2688,468.59137,55,21,0
468.2688,468.59137,67,26,0
468.2688,468.59137,61,21,0
468.93558,469.25818,55,21,0
468.93558,469.25818,64,21,0
468.93558,469.25818,61,21,0
468.93558,469.25818,67,26,0
468.93558,469.25818,58,21,0
469.58075,469.90332,46,31,0
469.58075,469.90332,34,25,0
470.22592,470.54504,58,21,0
470.22592,470.54504,64,21,0
470.22592,470.54504,55,21,0
470.22592,470.54504,67,26,0
470.22592,470.54504,61,21,0
470.89212,471.21127,58,21,0
470.89212,471.21127,64,21,0
470.89212,471.21127,54,21,0
470.89212,471.21127,66,26,0
470.89212,471.21127,61,21,0
471.53043,471.84293,46,29,0
471.53043,471.84293,34,25,0
472.15543,472.47122,58,21,0
472.15543,472.47122,64,21,0
472.15543,472.47122,66,26,0
472.15543,472.47122,54,21,0
472.15543,472.47122,61,21,0
472.78702,473.13184,54,21,0
472.78702,473.13184,59,21,0
472.78702,473.13184,66,26,0
472.78702,473.13184,62,21,0
473.47665,473.79245,47,31,0
473.47665,473.79245,35,25,0
474.10825,474.42404,54,21,0
474.10825,474.42404,66,26,0
474.10825,474.42404,62,21,0
474.10825,474.42404,59,21,0
474.7398,475.07315,58,21,0
474.7398,475.07315,66,26,0
474.7398,475.07315,64,21,0
474.7398,475.07315,54,21,0
475.38565,475.69815,49,29,0
475.38565,475.69815,37,25,0
476.01065,476.32315,58,21,0
476.01065,476.32315,66,26,0
476.01065,476.32315,64,21,0
476.01065,476.32315,54,21,0
476.66797,477.00507,54,23,0
476.66797,477.00507,59,23,0
476.66797,477.00507,66,28,0
476.66797,477.00507,62,23,0
477.31433,477.62363,47,34,0
477.31433,477.62363,35,27,0
477.9329,478.2422,54,23,0
477.9329,478.2422,66,29,0
477.9329,478.2422,62,23,0
477.9329,478.2422,59,23,0
478.60513,478.94998,58,24,0
478.60513,478.94998,66,29,0
478.60513,478.94998,64,24,0
478.60513,478.94998,54,24,0
479.26578,479.58154,49,33,0
479.26578,479.58154,37,29,0
479.89734,480.21313,58,24,0
479.89734,480.21313,66,30,0
479.89734,480.21313,64,24,0
479.89734,480.21313,54,24,0
480.5502,480.8763,54,29,0
480.5502,480.8763,59,29,0
480.5502,480.8763,66,36,0
480.5502,480.8763,62,29,0
481.1704,481.4862,50,58,0
481.1704,481.4862,38,46,0
481.802,482.1178,49,31,0
481.802,482.1178,54,31,0
481.802,482.1178,61,39,0
482.45868,482.77448,47,31,0
482.45868,482.77448,54,31,0
482.45868,482.77448,59,39,0
483.0745,483.39026,47,62,0
483.0745,483.39026,35,50,0
483.70605,484.02185,45,33,0
483.70605,484.02185,57,41,0
484.3707,484.69678,44,33,0
484.3707,484.69678,56,42,0
485.02286,485.34894,44,67,0
485.02286,485.34894,32,53,0
485.67505,486.00113,42,36,0
485.67505,486.00113,54,44,0
486.34995,486.67783,41,43,0
486.34995,486.67783,53,54,0
486.67783,487.00394,65,55,0
486.67783,487.00394,53,44,0
487.00394,487.33002,53,66,0
487.00394,487.33002,41,54,0
487.33002,487.6561,65,68,0
487.33002,487.6561,53,54,0
487.6561,487.98218,39,46,0
487.6561,487.98218,51,57,0
487.98218,488.32703,63,57,0
487.98218,488.32703,51,46,0
488.32703,488.98636,49,44,0
488.32703,488.98636,37,44,0
488.98636,489.6457,68,30,0
488.98636,489.6457,65,25,0
489.6457,490.3283,66,24,0
488.98636,490.3283,61,25,0
490.3283,490.66165,67,25,0
489.6457,490.66165,70,29,0
490.66165,490.99496,67,25,0
490.66165,490.99496,70,30,0
490.99496,491.33206,73,30,0
490.99496,491.33206,70,25,0
491.33206,491.66913,71,29,0
491.33206,491.66913,68,24,0
491.66913,492.01395,70,29,0
491.66913,492.01395,67,24,0
492.01395,492.3588,71,29,0
492.01395,492.3588,68,24,0
490.3283,492.3588,61,25,0
492.3588,492.68845,70,33,0
492.3588,492.68845,66,27,0
492.68845,493.01813,69,33,0
492.68845,493.01813,66,27,0
492.3588,494.36008,61,27,0
493.01813,494.69342,68,33,0
493.01813,494.69342,65,27,0
494.69342,495.02673,65,25,0
494.69342,495.02673,68,30,0
495.02673,495.36383,71,30,0
495.02673,495.36383,68,25,0
495.36383,495.7009,70,29,0
495.36383,495.7009,66,24,0
495.7009,496.04572,68,29,0
495.7009,496.04572,65,24,0
496.04572,496.39056,70,29,0
496.04572,496.39056,66,24,0
494.36008,496.39056,61,25,0
496.39056,497.0499,67,34,0
496.39056,497.0499,64,28,0
497.0499,497.70923,68,29,0
497.0499,497.70923,65,24,0
496.39056,497.70923,61,28,0
497.70923,498.39185,68,39,0
497.70923,498.39185,65,33,0
497.70923,498.39185,62,33,0
498.39185,498.7252,68,35,0
498.7252,499.0585,65,31,0
498.39185,499.0585,62,29,0
499.0585,499.3956,68,39,0
499.3956,499.73267,66,34,0
499.0585,499.73267,63,33,0
499.73267,500.0775,65,40,0
500.0775,500.42233,66,35,0
499.73267,500.42233,60,34,0
500.42233,500.76715,66,46,0
500.76715,501.11197,63,40,0
500.42233,501.11197,60,39,0
501.11197,501.45682,66,45,0
501.45682,501.80164,65,40,0
501.11197,501.80164,59,38,0
501.80164,502.14645,66,50,0
502.14645,502.51685,61,40,0
501.80164,502.51685,58,42,0
502.51685,502.85776,66,50,0
502.85776,503.19867,65,40,0
502.51685,503.19867,61,42,0
502.51685,503.19867,56,42,0
503.19867,503.88046,66,52,0
503.19867,503.88046,61,44,0
503.19867,503.88046,54,44,0
503.88046,504.58725,59,47,0
503.88046,504.58725,47,39,0
504.58725,504.92813,59,55,0
504.92813,505.26904,53,47,0
504.58725,505.26904,47,46,0
505.26904,505.60995,56,54,0
505.60995,505.98495,54,49,0
505.26904,505.98495,46,45,0
505.98495,506.32587,53,55,0
506.32587,506.66678,51,50,0
505.98495,506.66678,45,46,0
506.66678,507.0106,48,57,0
507.0106,507.3612,49,52,0
506.66678,507.3612,44,48,0
507.3612,507.71835,39,61,0
507.71835,508.09335,37,51,0
508.09335,508.4463,36,64,0
508.4463,508.8688,37,58,0
508.8688,509.2392,37,72,0
509.2392,509.60956,56,32,0
509.60956,509.97992,53,36,0
509.97992,510.3503,59,31,0
510.3503,510.7221,56,36,0
510.7221,511.10455,62,28,0
511.10455,511.49927,60,34,0
511.49927,511.90637,61,30,0
511.90637,512.32745,56,34,0
512.32745,512.763,63,29,0
512.763,513.21454,61,34,0
513.21454,513.6833,59,30,0
513.6833,514.0166,58,38,0
514.0166,514.3499,63,33,0
514.3499,514.6833,60,38,0
514.6833,515.0166,61,34,0
515.0166,515.3499,58,38,0
515.3499,515.6833,63,33,0
515.6833,516.0166,60,38,0
516.0166,516.3499,61,33,0
516.3499,516.6833,58,38,0
516.6833,517.0166,63,34,0
513.6833,517.0166,54,32,0
517.0166,517.3291,58,38,0
517.3291,517.67395,61,34,0
517.0166,517.67395,54,32,0
517.67395,518.0036,56,38,0
518.0036,518.33325,61,33,0
517.67395,518.33325,53,32,0
518.33325,518.6524,58,38,0
518.6524,518.97156,61,34,0
518.33325,518.97156,54,32,0
518.97156,519.2777,59,41,0
519.2777,519.6225,61,36,0
518.97156,519.6225,56,34,0
519.6225,519.9318,59,40,0
519.9318,520.26514,61,34,0
519.6225,520.26514,56,34,0
520.26514,520.5948,58,38,0
520.5948,520.9245,61,32,0
520.26514,520.9245,54,32,0
520.9245,521.25415,56,37,0
521.25415,521.61127,61,34,0
520.9245,521.61127,53,31,0
521.61127,521.9374,58,38,0
521.9374,522.2635,63,33,0
522.2635,522.6005,60,38,0
522.6005,522.9376,61,34,0
522.9376,523.2673,58,38,0
523.2673,523.597,63,33,0
523.597,523.92664,60,38,0
523.92664,524.2563,61,33,0
524.2563,524.57886,58,38,0
524.57886,524.9015,63,28,0
521.61127,524.9015,54,32,0
524.9015,525.21075,58,32,0
525.21075,525.55554,61,28,0
524.9015,525.55554,54,27,0
525.55554,525.88525,56,38,0
525.88525,526.2149,61,33,0
525.55554,526.2149,53,32,0
526.2149,526.5375,58,38,0
526.5375,526.86005,61,34,0
526.2149,526.86005,54,32,0
526.86005,527.1662,59,41,0
527.1662,527.51105,61,36,0
526.86005,527.51105,56,34,0
527.51105,527.8203,59,40,0
527.8203,528.1536,61,34,0
527.51105,528.1536,56,34,0
528.1536,528.4833,58,38,0
528.4833,528.813,61,32,0
528.1536,528.813,54,32,0
528.813,529.14264,56,31,0
529.14264,529.49976,61,28,0
528.813,529.49976,53,26,0
529.49976,529.7248,58,38,0
529.7248,529.947,63,33,0
529.9442,530.16644,61,33,0
530.16644,530.38654,60,38,0
530.38385,530.60126,63,34,0
530.60126,530.7643,61,34,0
530.8186,531.03876,58,38,0
531.03876,531.26117,63,33,0
531.25836,531.42883,61,33,0
531.4856,531.7081,60,38,0
531.7054,531.9252,63,33,0
531.9252,532.09,61,33,0
532.14496,532.3675,58,38,0
532.3675,532.5873,63,34,0
532.58453,532.7493,61,34,0
529.49976,532.8043,54,32,0
532.8043,533.03705,58,38,0
533.0342,533.2741,62,34,0
533.2741,533.4616,61,34,0
532.8043,533.5241,54,32,0
533.5241,533.74664,56,38,0
533.7439,533.9637,63,33,0
533.9637,534.12854,61,33,0
533.5241,534.1835,53,32,0
534.1835,534.3989,58,38,0
534.39624,534.609,63,34,0
534.609,534.76855,61,34,0
534.1835,534.8218,54,32,0
534.8218,535.0284,59,41,0
535.0259,535.24835,63,36,0
535.24835,535.4291,61,36,0
534.8218,535.4893,56,34,0
535.4893,535.70026,59,40,0
535.6977,535.91296,63,34,0
535.91296,536.0796,61,34,0
535.4893,536.1352,56,34,0
536.1352,536.3529,58,38,0
536.3502,536.5653,63,32,0
536.5653,536.72656,61,32,0
536.1352,536.78033,54,32,0
536.78033,536.99805,56,37,0
536.99536,537.222,63,34,0
537.222,537.4005,61,34,0
536.78033,537.4601,53,31,0
537.4601,537.68506,58,38,0
537.68506,537.9073,63,33,0
537.9045,538.1267,61,33,0
538.1267,538.3468,60,39,0
538.3441,538.56775,63,34,0
538.56775,538.7402,61,35,0
538.7976,539.02014,58,39,0
539.02014,539.2399,63,34,0
539.2372,539.40204,61,35,0
539.457,539.6795,60,41,0
539.67676,539.89655,63,35,0
539.89655,540.0614,61,36,0
540.11633,540.33887,58,42,0
540.33887,540.55865,63,38,0
540.5559,540.7207,61,34,0
537.4601,540.77563,54,32,0
540.77563,540.9934,58,38,0
540.9907,541.2132,62,34,0
541.2132,541.3856,61,34,0
540.77563,541.44305,54,32,0
541.44305,541.6656,56,47,0
541.66284,541.8826,63,41,0
541.8826,542.0475,61,41,0
541.44305,542.1024,53,39,0
542.1024,542.3201,58,49,0
542.31744,542.53253,63,44,0
542.53253,542.6938,61,46,0
542.1024,542.74756,54,40,0
542.74756,542.96075,59,57,0
542.95807,543.1783,63,51,0
543.1783,543.3507,61,53,0
542.74756,543.4082,56,47,0
543.4082,543.61914,59,60,0
543.6165,543.8318,63,51,0
543.8318,543.9985,61,51,0
543.4082,544.054,56,50,0
544.054,544.2718,58,58,0
544.26904,544.48413,63,49,0
544.48413,544.64545,61,50,0
544.054,544.69916,54,49,0
544.69916,544.9217,56,58,0
544.91895,545.1479,61,53,0
545.1479,545.3265,59,40,0
544.69916,545.386,53,49,0
545.386,545.6011,58,40,0
545.6011,545.8161,61,36,0
545.8161,546.0311,59,36,0
546.0311,546.2417,58,40,0
546.2417,546.4522,59,38,0
546.4522,546.6627,61,38,0
546.6627,546.8732,63,40,0
546.8732,547.0838,65,37,0
547.0838,547.31635,66,37,0
545.386,547.31635,54,50,0
547.31635,548.15466,68,40,0
548.15466,548.3587,66,36,0
548.3587,548.5628,65,36,0
548.5628,548.7669,63,40,0
548.7669,548.97095,61,35,0
548.97095,549.19824,59,35,0
547.31635,549.19824,56,50,0
549.19824,549.41327,65,40,0
549.41327,549.62836,66,36,0
549.62836,549.8434,65,37,0
549.8434,550.05396,61,42,0
550.05396,550.26447,63,40,0
550.26447,550.475,64,41,0
550.475,550.6855,66,44,0
550.6855,550.89606,68,41,0
550.89606,551.1286,70,41,0
549.19824,551.1286,58,50,0
551.1286,551.7669,71,46,0
551.7669,551.9669,71,48,0
551.9669,552.17096,70,43,0
552.17096,552.37506,68,44,0
552.37506,552.57916,66,50,0
552.57916,552.7832,65,44,0
552.7832,553.0105,63,44,0
551.1286,553.0105,59,57,0
553.2255,553.4406,65,47,0
553.4406,553.65564,66,47,0
553.65564,553.86615,68,54,0
553.86615,554.0767,70,51,0
554.0767,554.28723,71,52,0
553.0105,554.28723,61,65,0
554.28723,554.49774,70,56,0
554.49774,554.7083,68,52,0
554.7083,554.94086,66,52,0
554.28723,554.94086,63,70,0
555.1536,555.3664,68,52,0
555.3664,555.57916,70,53,0
555.57916,555.7791,71,60,0
555.7791,555.9832,73,57,0
555.9832,556.1873,75,58,0
554.94086,556.1873,65,72,0
556.1873,556.39136,73,62,0
556.39136,556.59546,71,57,0
556.59546,556.82275,70,58,0
556.1873,556.82275,66,77,0
556.82275,557.0355,76,58,0
557.0355,557.2483,73,52,0
557.2483,557.46106,75,53,0
556.82275,557.46106,68,72,0
557.46106,557.661,76,51,0
557.661,557.8651,66,48,0
557.8651,558.0692,67,49,0
557.661,558.0692,58,48,0
557.46106,558.0692,70,61,0
558.0692,558.27325,66,52,0
558.27325,558.47736,64,48,0
558.47736,558.70465,63,52,0
558.0692,558.70465,59,65,0
558.70465,558.9174,63,48,0
558.9174,559.1302,65,47,0
559.1302,559.34296,66,39,0
559.34296,559.56274,69,45,0
559.56274,559.7825,68,38,0
559.7825,560.00226,66,37,0
558.70465,560.00226,60,52,0
560.00226,560.2238,61,43,0
560.2238,560.4508,65,36,0
560.4508,560.6854,68,35,0
560.00226,560.6854,59,38,0
560.6854,562.82825,73,46,0
560.6854,562.82825,70,39,0
562.82825,564.25684,70,38,0
562.82825,564.25684,67,32,0
564.25684,564.9711,67,31,0
564.25684,564.9711,63,26,0
564.9711,565.32825,70,41,0
565.32825,565.6854,67,37,0
565.6854,566.0302,68,46,0
566.0302,566.3961,63,37,0
565.6854,566.3961,56,36,0
566.3961,566.74493,61,49,0
566.74493,567.11993,59,47,0
566.3961,567.11993,47,49,0
567.11993,567.8096,58,54,0
567.11993,567.8096,49,45,0
567.8096,568.14294,46,43,0
567.8096,568.14294,37,36,0
568.14294,568.6448,49,46,0
568.14294,568.6448,37,33,0
568.6448,568.81335,47,53,0
568.6448,568.81335,35,45,0
568.81335,569.03394,46,55,0
568.81335,569.03394,34,46,0
569.03394,569.2545,47,57,0
569.03394,569.2545,35,48,0
569.2545,569.4124,34,52,0
569.4124,569.5703,37,44,0
569.5703,569.7282,40,43,0
569.7282,569.8861,43,42,0
569.8861,570.044,46,41,0
570.044,570.20184,49,40,0
570.20184,570.3613,52,39,0
570.3613,570.5214,55,38,0
570.5214,570.68274,61,36,0
570.5214,570.68274,58,36,0
570.68274,570.8453,64,27,0
570.8453,571.0085,59,27,0
571.0085,571.2059,63,27,0
571.2059,572.5392,59,26,0
571.2059,572.5392,47,22,0
573.19543,573.4038,37,39,0
573.4038,573.6121,42,34,0
573.6121,573.82043,46,34,0
573.82043,574.0288,49,31,0
574.0288,574.2371,54,31,0
574.2371,574.44543,58,31,0
574.44543,574.6103,54,38,0
574.6103,574.77515,58,34,0
574.44543,574.77515,49,39,0
574.77515,574.95807,54,34,0
574.95807,575.1635,57,34,0
574.77515,575.1635,51,28,0
575.1635,575.8302,59,38,0
575.1635,575.8302,50,32,0
575.1635,575.8302,53,32,0
575.1635,575.8302,56,32,0
575.8302,576.798,59,30,0
575.8302,576.798,50,25,0
575.8302,576.798,53,25,0
575.8302,576.798,56,25,0
576.798,577.12054,58,27,0
576.798,577.12054,55,22,0
576.798,577.12054,51,22,0
577.12054,578.3974,58,30,0
577.12054,578.3974,55,25,0
577.12054,578.3974,51,25,0
578.4108,579.0438,63,27,0
578.4108,579.0438,51,22,0
578.4108,579.0438,55,22,0
578.4108,579.0438,58,22,0
579.04913,580.3541,63,30,0
579.04913,580.3541,51,25,0
579.04913,580.3541,55,25,0
579.04913,580.3541,58,25,0
580.36786,581.0146,63,27,0
580.36786,581.0146,51,22,0
580.36786,581.0146,55,22,0
580.36786,581.0146,58,22,0
581.02,581.66516,51,30,0
581.02,581.66516,39,25,0
581.66516,582.9915,46,30,0
581.66516,582.9915,34,25,0
582.9915,583.6298,47,30,0
582.9915,583.6298,35,25,0
583.6298,585.00165,49,25,0
583.6298,585.00165,37,21,0
585.00165,586.33496,42,24,0
585.00165,586.33496,30,20,0
586.33496,587.00165,58,22,0
587.00165,588.33496,49,24,0
588.33496,589.0757,61,21,0
589.0757,590.3944,58,24,0
590.3944,591.7131,49,34,0
590.3944,591.7131,37,28,0
591.7131,592.0427,51,40,0
591.7131,592.0427,39,27,0
592.0427,592.3724,49,40,0
592.0427,592.3724,37,27,0
592.3724,592.7021,39,29,0
592.3724,592.7021,49,29,0
592.3724,592.7021,51,29,0
592.7021,593.03174,53,29,0
592.7021,593.03174,49,29,0
592.7021,593.03174,41,29,0
593.03174,594.36505,54,36,0
593.03174,594.36505,42,30,0
593.03174,594.36505,49,30,0
594.36505,595.03174,70,33,0
595.03174,596.36505,61,37,0
596.36505,597.07935,46,34,0
596.36505,597.07935,34,28,0
597.07935,597.7387,49,40,0
597.07935,597.7387,37,34,0
597.7387,598.41284,61,34,0
597.7387,598.41284,49,28,0
598.41284,599.08704,58,36,0
598.41284,599.08704,49,30,0
598.41284,599.08704,46,30,0
599.08704,600.443,56,43,0
599.08704,600.443,49,36,0
599.08704,600.443,44,36,0
600.443,601.16284,49,40,0
600.443,601.16284,37,34,0
601.16284,603.41284,54,43,0
601.16284,603.41284,49,36,0
601.16284,603.41284,42,36,0
603.41284,605.76996,49,33,0
603.41284,605.76996,37,28,0
605.76996,607.34894,42,26,0
605.76996,607.34894,30,22,0
607.34894,608.09265,54,26,0
607.34894,608.09265,42,22,0
608.09894,609.59894,54,29,0
608.09894,609.59894,42,25,0
609.59894,610.20703,54,43,0
609.59894,610.20703,42,36,0
610.20703,610.47485,52,36,0
610.20703,610.47485,40,31,0
610.47485,612.69775,50,33,0
610.47485,612.69775,38,28,0
612.69775,615.0183,54,30,0
612.69775,615.0183,42,25,0
615.0183,616.5768,59,31,0
615.0183,616.5768,47,26,0
618.1352,618.9144,59,31,0
618.1352,618.9144,47,26,0
618.9144,619.304,55,26,0
618.9144,619.304,43,22,0
619.304,619.6839,50,26,0
619.304,619.6839,38,22,0
619.69366,621.2521,50,31,0
619.69366,621.2521,38,26,0
621.2521,621.96893,47,26,0
621.2521,621.96893,35,22,0
621.975,622.6979,47,31,0
621.975,622.6979,35,26,0
622.6979,623.4208,43,27,0
622.6979,623.4208,31,22,0
623.4208,624.2108,45,27,0
623.4208,624.2108,33,22,0
624.2108,624.9425,47,55,0
624.2108,624.9425,35,46,0
624.9425,625.6742,55,58,0
624.9425,625.6742,47,49,0
625.6742,626.4059,57,62,0
625.6742,626.4059,48,52,0
626.4059,627.1559,59,65,0
626.4059,627.1559,50,54,0
627.1559,627.8805,55,38,0
627.1559,627.8805,59,45,0
627.8805,628.24194,57,33,0
627.8805,628.24194,60,39,0
627.8805,628.24194,50,33,0
628.24194,628.6831,55,28,0
628.24194,628.6831,59,34,0
628.6831,628.9081,59,42,0
628.9081,629.1303,64,37,0
629.12756,629.3498,62,37,0
629.3498,629.5699,61,42,0
629.56714,629.78455,64,38,0
629.78455,629.9476,62,38,0
630.00195,630.22205,59,42,0
630.22205,630.4445,64,37,0
630.44165,630.6121,62,37,0
630.66895,630.8915,61,42,0
630.88873,631.1085,64,37,0
631.1085,631.2733,62,37,0
631.3283,631.5508,59,42,0
631.5508,631.77057,64,38,0
631.7678,631.9327,62,38,0
628.6831,631.9876,55,36,0
631.9876,632.2204,59,42,0
632.2175,632.45746,63,38,0
632.45746,632.64496,62,38,0
631.9876,632.70746,55,36,0
632.70746,632.93,57,42,0
632.92725,633.14703,64,37,0
633.14703,633.3118,62,37,0
632.70746,633.3668,54,36,0
633.3668,633.5822,59,42,0
633.5795,633.7923,64,38,0
633.7923,633.9519,62,38,0
633.3668,634.00507,55,36,0
634.00507,634.21173,60,46,0
634.20917,634.4317,64,40,0
634.4317,634.6124,62,40,0
634.00507,634.67267,57,38,0
634.67267,634.8836,60,45,0
634.881,635.09625,64,38,0
635.09625,635.26294,62,38,0
634.67267,635.3185,57,38,0
635.3185,635.53625,59,42,0
635.53357,635.7486,64,36,0
635.7486,635.9099,62,36,0
635.3185,635.9636,55,36,0
635.9636,636.1787,58,41,0
636.1787,636.4053,64,38,0
636.4053,636.58386,62,38,0
635.9636,636.6434,54,35,0
636.6434,636.86835,59,42,0
636.86835,637.0906,64,37,0
637.0878,637.31006,62,37,0
637.31006,637.53015,61,43,0
637.5274,637.7511,64,38,0
637.7511,637.92346,62,39,0
637.98096,638.2035,59,44,0
638.2035,638.4233,64,38,0
638.42053,638.5853,62,39,0
638.6403,638.86285,61,46,0
638.8601,639.07983,64,39,0
639.07983,639.2447,62,40,0
639.2996,639.52216,59,47,0
639.52216,639.74194,64,42,0
639.7392,639.90405,62,42,0
636.6434,639.959,55,36,0
639.959,640.1767,59,48,0
640.174,640.3965,63,43,0
640.3965,640.5689,62,43,0
639.959,640.6264,55,40,0
640.6264,640.84894,57,50,0
640.8462,641.0659,64,43,0
641.0659,641.2308,62,43,0
640.6264,641.2857,54,41,0
641.2857,641.5035,59,51,0
641.5008,641.7158,64,45,0
641.7158,641.87714,62,46,0
641.2857,641.9309,55,42,0
641.9309,642.14404,60,57,0
642.1414,642.36163,64,50,0
642.36163,642.53406,62,51,0
641.9309,642.5915,57,47,0
642.5915,642.8024,60,57,0
642.79987,643.01514,64,48,0
643.01514,643.18176,62,48,0
642.5915,643.23737,57,47,0
643.23737,643.4551,59,55,0
643.4524,643.6674,64,46,0
643.6674,643.82874,62,47,0
643.23737,643.8825,55,46,0
643.8825,644.1023,58,55,0
644.1023,644.33124,64,50,0
644.33124,644.50977,62,38,0
643.8825,644.56934,54,46,0
644.56934,644.7891,58,55,0
644.7891,645.00885,64,50,0
645.00885,645.1737,62,51,0
644.56934,645.22864,54,45,0
645.22864,645.4464,59,60,0
645.4437,645.65875,64,54,0
645.65875,645.82007,62,55,0
645.22864,645.87384,55,50,0
645.87384,646.087,59,69,0
646.08435,646.30457,64,61,0
646.30457,646.477,62,63,0
645.87384,646.5344,56,57,0
646.5344,646.74274,59,70,0
646.74274,646.95807,64,60,0
646.95807,647.1247,62,61,0
646.5344,647.18024,56,59,0
647.18024,647.4028,59,60,0
647.4,647.6198,65,54,0
647.6198,647.78467,62,55,0
647.18024,647.8396,56,54,0
647.8396,648.0751,59,63,0
648.07214,648.3034,65,57,0
648.3034,648.4891,62,57,0
647.8396,648.55316,56,53,0
648.55316,648.77295,62,67,0
648.77295,648.99274,66,58,0
648.99274,649.15753,64,59,0
648.55316,649.2125,57,55,0
649.2125,649.43024,62,70,0
649.42755,649.64264,66,62,0
649.64264,649.8039,64,64,0
649.2125,649.85767,58,58,0
649.85767,650.0708,62,79,0
650.0682,650.2884,66,71,0
650.2884,650.4608,64,72,0
649.85767,650.5183,59,66,0
650.5183,650.7266,62,81,0
650.7266,650.9419,66,69,0
650.9419,651.1086,64,70,0
650.5183,651.1641,59,68,0
651.1641,651.38666,62,69,0
651.3839,651.6037,66,63,0
651.6037,651.7685,64,63,0
651.1641,651.8235,59,62,0
651.8235,652.04846,62,72,0
652.04565,652.2731,65,65,0
652.2731,652.45465,66,66,0
651.8235,652.5164,59,61,0
652.5164,652.73615,62,76,0
652.73615,652.95593,67,66,0
652.95593,653.1208,66,67,0
652.5164,653.1757,59,63,0
653.1757,653.3908,63,79,0
653.3908,653.60583,68,71,0
653.60583,653.76715,66,73,0
653.1757,653.8209,60,66,0
653.8209,654.03143,63,84,0
654.03143,654.25165,69,72,0
654.25165,654.4241,66,72,0
653.8209,654.4815,60,71,0
654.4815,654.6898,51,86,0
654.6898,654.90515,57,74,0
654.90515,655.0718,54,74,0
654.4815,655.1273,48,73,0
655.1273,655.3471,63,82,0
655.3471,655.5669,69,73,0
655.5669,655.73175,66,73,0
655.1273,655.7867,60,69,0
655.7867,656.0018,51,84,0
656.0018,656.2242,57,76,0
656.2242,656.4099,54,76,0
655.7867,656.474,48,71,0
656.474,656.57623,60,81,0
656.6445,656.8149,69,74,0
656.8149,656.98535,63,62,0
656.8149,656.98535,66,74,0
656.98535,657.1558,69,74,0
657.1558,657.25806,48,81,0
657.32623,657.4967,57,75,0
657.4967,657.6672,54,75,0
657.4967,657.6672,51,63,0
657.6672,657.83765,57,75,0
657.83765,657.9399,60,81,0
658.00806,658.1785,69,74,0
658.1785,658.349,63,62,0
658.1785,658.349,66,74,0
658.349,658.5195,69,74,0
658.5195,658.58765,48,81,0
658.63306,658.7467,57,73,0
658.7467,658.86035,51,73,0
658.7496,658.8632,54,73,0
658.8632,658.9768,57,73,0
658.974,659.08765,54,73,0
658.974,659.08765,51,62,0
659.08765,659.20123,57,73,0
659.20123,659.2702,60,81,0
659.3162,659.43115,69,73,0
659.43115,659.5461,63,73,0
659.434,659.54895,66,73,0
659.54895,659.6639,69,73,0
659.661,659.776,66,73,0
659.661,659.776,63,62,0
659.776,659.8909,69,73,0
659.8909,659.9607,48,81,0
660.0072,660.1235,57,74,0
660.1235,660.23975,51,74,0
660.1264,660.2427,54,74,0
660.2427,660.35895,57,74,0
660.356,660.57043,54,74,0
660.356,660.57043,51,62,0
660.57043,660.88293,57,74,0
660.88293,662.18726,61,38,0
662.18726,662.85583,57,33,0
662.86145,663.52075,57,35,0
663.52075,664.15906,54,31,0
664.15906,664.8649,56,31,0
664.15906,664.8649,49,26,0
664.8649,666.1693,54,34,0
664.8649,666.1693,42,28,0
666.1693,666.8215,54,41,0
666.1693,666.8215,42,35,0
666.8215,668.133,47,43,0
666.8215,668.133,35,36,0
668.133,668.8888,47,49,0
668.133,668.8888,35,41,0
668.8888,670.26807,44,58,0
668.8888,670.26807,32,47,0
670.26807,670.9292,45,47,0
670.26807,670.9292,33,40,0
670.93475,671.60144,45,57,0
670.93475,671.60144,33,46,0
671.60144,672.2536,47,51,0
671.60144,672.2536,35,43,0
672.2536,672.9595,36,42,0
672.2536,672.9595,48,51,0
672.9595,673.61884,48,42,0
672.9595,673.61884,36,34,0
673.61884,674.6007,49,45,0
673.61884,674.6007,37,38,0
674.6007,674.92334,48,40,0
674.6007,674.92334,36,34,0
674.92334,675.5685,49,48,0
674.92334,675.5685,37,39,0
675.5685,676.2503,49,45,0
675.5685,676.2503,37,38,0
676.2503,676.9759,38,40,0
676.2503,676.9759,50,48,0
676.9759,679.0235,38,32,0
676.9759,679.0235,31,32,0
676.9759,679.0235,43,43,0
679.0235,681.04645,50,36,0
679.0235,681.04645,35,30,0
679.0235,681.04645,43,30,0
681.04645,683.0548,43,33,0
681.04645,683.0548,52,39,0
681.04645,683.0548,36,33,0
683.0548,683.73663,50,35,0
683.0548,683.73663,43,29,0
683.0548,683.73663,35,29,0
683.73663,684.7888,43,46,0
684.7888,685.1561,42,38,0
684.41846,685.1592,38,32,0
685.1592,685.8735,42,35,0
685.1592,685.8735,38,29,0
685.8735,686.5631,45,31,0
685.8735,686.5631,37,29,0
686.5631,687.346,49,31,0
686.5631,687.346,37,26,0
687.3526,688.76434,49,35,0
687.3526,688.76434,37,29,0
688.76434,689.5371,49,32,0
688.76434,689.5371,42,27,0
689.5436,690.27527,42,29,0
689.5436,690.30273,49,35,0
690.27527,691.007,50,32,0
691.007,691.807,43,32,0
691.807,692.6289,47,35,0
690.27527,692.6289,35,27,0
692.6289,693.4985,37,35,0
693.4985,693.9672,41,33,0
693.9672,694.436,42,30,0
693.4985,694.436,37,33,0
694.436,695.1955,42,35,0
694.436,695.1955,37,29,0
695.1955,695.9919,42,28,0
695.1955,695.9919,30,23,0
695.9919,696.7514,46,28,0
695.9919,696.7514,34,23,0
696.7514,697.51086,49,35,0
696.7514,697.51086,37,29,0
697.51086,698.2426,42,28,0
697.51086,698.2426,30,23,0
698.2426,699.0123,46,28,0
698.2426,699.0123,34,23,0
699.0123,699.7718,47,31,0
699.0123,699.7718,35,26,0
699.7718,700.5313,42,27,0
699.7718,700.5313,30,22,0
700.5313,701.29083,47,27,0
700.5313,701.29083,35,22,0
701.29083,702.0503,50,31,0
701.29083,702.0503,38,26,0
702.0503,702.8295,42,25,0
702.0503,702.8295,30,21,0
702.8295,703.67456,47,25,0
702.8295,703.67456,35,21,0
703.67456,704.44385,49,29,0
703.67456,704.44385,37,24,0
704.44385,705.2131,42,23,0
704.44385,705.2131,30,19,0
705.2131,706.00757,46,24,0
705.2131,706.00757,34,20,0
706.00757,706.7768,49,32,0
706.00757,706.7768,37,26,0
706.7768,707.546,42,26,0
706.7768,707.546,30,22,0
707.546,708.32556,46,27,0
707.546,708.32556,34,22,0
708.32556,709.0851,47,36,0
708.32556,709.0851,35,30,0
709.0851,709.86536,42,29,0
709.0851,709.86536,30,24,0
709.86536,710.6249,47,27,0
709.86536,710.6249,35,22,0
710.6249,710.878,50,35,0
710.6249,710.878,38,29,0
710.878,711.13116,30,33,0
711.13116,711.38434,35,35,0
711.38434,711.64075,38,42,0
711.64075,711.89716,42,40,0
711.89716,712.15356,47,38,0
712.15356,712.4202,50,35,0
712.4202,712.6869,42,33,0
712.6869,712.9994,50,31,0
712.9994,713.2626,42,27,0
713.2626,713.52576,49,20,0
713.52576,713.7889,42,20,0
713.7889,714.05206,54,27,0
714.05206,714.3152,49,22,0
714.3152,714.57837,54,22,0
714.57837,714.8415,42,27,0
714.8415,715.1047,49,23,0
715.1047,715.36786,42,23,0
715.36786,715.631,54,27,0
715.631,715.89417,49,23,0
715.89417,716.1573,54,23,0
716.1573,716.4205,49,27,0
716.4205,716.6836,42,21,0
716.6836,716.9614,49,21,0
716.9614,717.22455,54,27,0
717.22455,717.48773,49,22,0
717.48773,717.75085,54,22,0
717.75085,718.01404,37,27,0
718.01404,718.27716,42,23,0
718.27716,718.54034,37,23,0
718.54034,718.8035,49,27,0
718.8035,719.06665,42,23,0
719.06665,719.3892,49,23,0
719.3892,719.6524,37,26,0
719.6524,719.9155,42,22,0
719.9155,720.1787,37,22,0
720.1787,720.4419,49,27,0
720.4419,720.705,42,23,0
720.705,720.9682,49,23,0
720.9682,721.2313,37,27,0
721.2313,721.4945,42,23,0
721.4945,721.7577,37,23,0
721.7577,722.0208,49,27,0
722.0208,722.284,42,24,0
722.284,722.5471,49,24,0
722.5471,722.8211,42,27,0
722.8211,723.0951,37,23,0
723.0951,723.3691,42,23,0
723.3691,723.6548,30,27,0
723.6548,723.9405,37,23,0
723.9405,724.2262,30,23,0
724.2262,724.5119,42,27,0
724.5119,724.7976,37,24,0
724.7976,725.0833,42,24,0
725.0833,725.3691,30,27,0
725.3691,725.6548,37,24,0
725.6548,725.9405,30,24,0
725.9405,726.2262,42,27,0
726.2262,726.5119,37,23,0
726.5119,726.7976,42,23,0
726.7976,727.0833,37,27,0
727.0833,727.3691,42,24,0
727.3691,727.6548,37,24,0
727.6548,728.41425,49,30,0
728.41425,729.17377,61,26,0
729.17377,729.9778,57,26,0
729.98456,730.7638,57,28,0
730.7638,731.5045,54,24,0
731.5045,732.294,56,24,0
731.5045,732.294,49,20,0
731.5045,732.294,53,20,0
732.294,733.05347,54,27,0
732.294,733.05347,57,33,0
733.05347,735.332,54,32,0
733.05347,735.332,42,28,0
735.332,736.082,47,34,0
735.332,736.082,35,28,0
736.082,736.89276,42,39,0
736.082,736.89276,30,32,0
736.89276,737.8019,35,42,0
737.8019,739.4066,41,34,0
737.8019,739.4066,29,28,0
739.4235,741.0073,41,34,0
739.4235,741.0073,29,28,0
741.0238,741.4404,29,25,0
741.0238,741.4404,41,30,0
741.4404,741.8467,42,31,0
741.4404,741.8467,30,26,0
741.8571,744.3571,42,34,0
741.8571,744.3571,30,28,0
744.3571,749.3571,58,29,0
744.3571,749.3571,49,24,0
744.3571,749.3571,42,24,0
749.3571,754.3571,46,23,0
749.3571,754.3571,37,19,0
749.3571,754.3571,30,19,0
754.3571,756.8531,46,23,0
754.3571,756.8531,37,19,0
754.3571,756.8531,30,19,0
757.28436,760.2867,46,20,0
757.06256,760.2867,37,18,0
756.8531,760.2867,30,16,0
