start_time,end_time,note_value,velocity,instrument_program_number
0.0,1.677383,63,34,0
0.0,1.677383,67,40,0
1.677383,3.519004,58,33,0
1.677383,3.519004,65,39,0
3.519004,6.0038185,63,39,0
3.519004,6.0038185,55,33,0
6.0038185,6.625022,63,44,0
6.625022,6.83209,68,37,0
6.83209,7.6603613,67,44,0
7.6603613,8.281565,67,46,0
8.281565,8.488633,73,44,0
8.488633,9.316904,72,50,0
9.316904,9.502916,72,55,0
9.502916,9.567851,74,48,0
9.567851,9.632787,72,48,0
9.632787,9.6977215,71,48,0
9.6977215,9.877664,72,55,0
9.877664,10.087337,74,48,0
10.087337,10.970989,63,44,0
10.087337,11.385125,75,58,0
11.385125,11.83912,72,44,0
10.970989,11.83912,63,33,0
10.970989,11.83912,66,39,0
11.83912,12.647093,67,37,0
11.83912,12.647093,62,32,0
11.83912,12.647093,71,46,0
12.647093,13.041414,79,62,0
13.041414,13.508413,87,58,0
13.508413,14.392065,75,48,0
13.508413,14.806201,87,63,0
14.806201,15.260197,84,53,0
14.392065,15.260197,75,40,0
14.392065,15.260197,78,48,0
15.260197,16.16062,83,50,0
15.260197,16.16062,79,40,0
15.260197,16.16062,74,40,0
16.168186,17.158285,79,46,0
16.168186,17.158285,74,46,0
16.168186,17.158285,82,60,0
17.158285,18.13358,74,55,0
18.13358,19.029367,75,55,0
19.029367,19.336306,77,46,0
17.158285,19.336306,82,68,0
19.336306,19.643242,70,51,0
19.643242,19.950178,72,46,0
19.950178,20.261656,69,55,0
20.261656,20.60924,70,46,0
20.60924,20.828827,68,46,0
21.048414,22.725798,61,34,0
21.048414,22.725798,58,34,0
21.048414,22.725798,64,40,0
21.048414,22.725798,67,40,0
22.725798,24.56742,56,33,0
22.725798,24.56742,65,39,0
22.725798,24.56742,62,33,0
24.56742,27.052233,63,39,0
24.56742,27.052233,54,33,0
27.052233,27.673437,66,44,0
27.673437,27.880505,71,37,0
27.052233,27.880505,63,34,0
27.880505,28.708776,64,34,0
27.880505,28.708776,71,44,0
28.708776,29.329979,70,46,0
29.329979,29.537048,76,44,0
28.708776,29.537048,64,34,0
29.537048,30.365318,63,34,0
29.537048,30.365318,75,50,0
30.365318,30.55133,75,55,0
30.55133,30.616266,77,48,0
30.616266,30.681202,75,48,0
30.681202,30.746136,74,48,0
30.746136,30.926079,75,55,0
30.926079,31.135752,77,48,0
31.135752,32.019405,72,37,0
31.135752,32.43354,78,58,0
32.43354,32.887535,75,49,0
32.019405,32.887535,72,44,0
32.887535,33.695507,70,37,0
32.887535,33.695507,74,46,0
33.695507,33.88152,73,55,0
33.88152,33.946453,75,48,0
33.946453,34.01139,73,48,0
34.01139,34.076324,72,48,0
34.076324,34.256268,73,55,0
34.256268,34.46594,75,48,0
33.695507,35.34959,70,37,0
34.46594,35.76373,76,58,0
35.76373,35.990726,75,49,0
35.990726,36.217724,73,44,0
35.34959,36.217724,70,44,0
36.217724,37.133472,68,37,0
36.217724,37.133472,71,46,0
37.133472,38.049225,70,42,0
37.133472,38.049225,75,55,0
37.133472,38.049225,63,42,0
38.049225,38.91678,70,39,0
38.049225,38.91678,74,51,0
38.049225,38.91678,68,39,0
38.049225,38.91678,62,39,0
40.21811,40.64827,68,32,0
40.21811,40.64827,62,32,0
40.21811,40.64827,70,38,0
40.21811,40.64827,74,45,0
40.651886,41.082047,75,47,0
40.651886,41.082047,70,39,0
40.651886,41.082047,63,33,0
40.651886,41.082047,66,33,0
41.085663,41.588535,63,30,0
41.085663,41.588535,66,30,0
41.085663,41.588535,75,43,0
41.085663,41.588535,70,36,0
41.592762,42.448925,70,46,0
41.592762,42.448925,65,39,0
41.592762,42.448925,77,55,0
43.733173,44.163334,70,38,0
43.733173,44.163334,74,45,0
44.16695,44.59711,75,47,0
44.16695,44.59711,70,39,0
44.600727,45.1036,70,36,0
44.600727,45.1036,75,43,0
45.107826,45.96399,70,46,0
45.107826,45.96399,77,55,0
47.248238,47.6784,77,49,0
47.248238,47.6784,70,41,0
47.682014,48.112175,70,44,0
47.682014,48.112175,79,54,0
48.11579,48.576176,80,51,0
48.11579,48.576176,68,42,0
48.580044,49.436207,80,55,0
48.580044,49.436207,68,46,0
50.720455,51.150616,70,41,0
50.720455,51.150616,77,49,0
51.154232,51.584393,70,44,0
51.154232,51.584393,79,54,0
51.58801,52.048393,68,42,0
51.58801,52.048393,80,51,0
52.908424,53.764587,68,36,0
52.908424,53.764587,80,44,0
54.620754,55.476917,80,44,0
54.620754,55.476917,68,36,0
55.476917,56.20566,68,64,0
55.476917,56.20566,80,77,0
56.20566,56.312805,74,70,0
56.312805,56.374535,79,67,0
56.20566,56.436264,67,59,0
56.436264,56.680164,79,70,0
56.436264,56.680164,67,59,0
56.680164,56.78655,72,70,0
56.78655,56.84879,77,67,0
56.680164,56.91103,65,59,0
56.91103,57.154934,77,70,0
56.91103,57.154934,65,59,0
57.154934,57.261314,70,70,0
57.261314,57.325417,75,67,0
57.154934,57.38952,63,59,0
57.38952,57.887444,75,70,0
57.38952,57.887444,63,59,0
57.887444,58.13036,62,50,0
57.38952,58.13036,70,59,0
57.38952,58.13036,68,59,0
57.887444,58.13036,74,59,0
58.13036,58.373276,63,50,0
58.13036,58.373276,70,50,0
58.13036,58.373276,75,59,0
58.373276,58.61619,77,57,0
58.373276,58.61619,70,48,0
58.373276,58.61619,65,48,0
58.61619,58.859104,79,60,0
58.61619,58.859104,70,51,0
58.61619,58.859104,67,51,0
58.859104,59.105007,68,54,0
58.859104,59.105007,80,64,0
58.859104,59.105007,70,54,0
59.105007,59.361416,82,68,0
59.105007,59.361416,70,57,0
59.361416,59.60335,82,78,0
59.361416,59.60335,70,66,0
59.361416,59.60335,67,66,0
59.845287,60.087223,70,69,0
59.845287,60.087223,82,81,0
60.337223,61.06303,94,93,0
60.337223,61.06303,82,78,0
61.06303,62.030773,70,55,0
61.06303,62.030773,82,65,0
62.030773,62.283936,79,62,0
62.030773,62.283936,67,62,0
62.283936,62.523937,65,55,0
62.283936,62.523937,77,65,0
62.523937,62.763935,62,48,0
62.523937,62.763935,74,57,0
62.763935,63.003937,59,48,0
62.763935,63.003937,71,57,0
63.003937,63.25289,58,47,0
63.003937,63.25289,70,56,0
63.254982,63.496918,58,66,0
63.254982,63.496918,70,78,0
63.738853,63.98079,70,69,0
63.738853,63.98079,82,81,0
64.23079,64.9566,94,93,0
64.23079,64.9566,82,78,0
64.9566,65.92434,82,65,0
64.9566,65.92434,70,55,0
65.92434,66.177505,79,62,0
65.92434,66.177505,67,62,0
66.177505,66.4175,76,65,0
66.177505,66.4175,64,55,0
66.4175,66.6575,65,48,0
66.4175,66.6575,77,57,0
66.6575,66.8975,60,48,0
66.6575,66.8975,72,57,0
66.8975,67.14855,75,56,0
66.8975,67.14855,63,47,0
67.14855,67.27407,62,56,0
67.14855,67.27407,74,56,0
67.27407,67.39504,70,49,0
67.39504,67.51601,69,51,0
67.51601,67.63698,70,53,0
67.63698,67.75794,69,46,0
67.63698,67.75794,72,55,0
67.75794,67.87891,74,57,0
67.75794,67.87891,70,48,0
67.87891,67.99988,75,59,0
67.87891,67.99988,72,50,0
67.99988,68.12863,77,61,0
67.99988,68.12863,74,51,0
68.12863,68.62851,79,63,0
68.12863,68.62851,75,53,0
68.62851,68.75048,80,52,0
68.62851,68.75048,84,62,0
68.75048,68.87295,79,50,0
68.75048,68.87295,82,59,0
68.87295,68.99592,80,56,0
68.87295,68.99592,77,47,0
68.99592,69.1194,75,45,0
68.99592,69.1194,79,53,0
69.1194,69.36733,74,51,0
69.1194,69.36733,77,61,0
69.615265,69.737236,92,57,0
69.615265,69.737236,96,68,0
69.737236,69.85971,91,55,0
69.737236,69.85971,94,64,0
69.85971,69.98268,92,61,0
69.85971,69.98268,89,51,0
69.98268,70.106155,87,49,0
69.98268,70.106155,91,58,0
70.106155,70.35409,86,56,0
70.106155,70.35409,89,67,0
70.35409,70.47569,74,57,0
70.35409,70.47569,84,68,0
70.47569,70.59715,75,56,0
70.47569,70.59715,82,67,0
70.59715,70.71908,80,67,0
70.59715,70.71908,71,56,0
70.71908,70.84103,72,56,0
70.71908,70.84103,79,66,0
70.84103,70.93283,77,64,0
70.84103,70.93283,67,55,0
70.96345,71.05528,78,63,0
70.96345,71.05528,75,53,0
71.0859,71.177734,74,51,0
71.0859,71.177734,79,61,0
71.20834,71.299965,81,64,0
71.20834,71.299965,78,55,0
71.20834,71.299965,74,55,0
71.33045,71.42188,83,68,0
71.33045,71.42188,79,57,0
71.33045,71.42188,74,57,0
71.45225,71.543335,79,60,0
71.45225,71.543335,83,71,0
71.45225,71.543335,74,60,0
71.5737,71.66446,84,75,0
71.5737,71.66446,79,63,0
71.5737,71.66446,75,63,0
71.694695,71.78512,86,79,0
71.694695,71.78512,83,67,0
71.694695,71.78512,77,67,0
71.81521,71.90625,87,82,0
71.81521,71.90625,84,69,0
71.81521,71.90625,79,69,0
71.9369,72.029594,79,72,0
71.9369,72.029594,84,72,0
71.9369,72.029594,88,85,0
72.060814,72.185814,79,74,0
72.060814,72.185814,84,74,0
72.060814,72.185814,88,89,0
72.560814,72.702995,84,92,0
72.560814,72.702995,77,92,0
72.560814,72.702995,89,92,0
73.12953,73.87334,75,84,0
73.87334,74.00209,77,85,0
73.12953,74.377754,70,65,0
74.377754,74.49824,70,61,0
74.49824,74.61872,69,52,0
74.61872,74.739204,70,61,0
74.739204,74.85969,69,54,0
74.85969,74.98017,70,61,0
74.98017,75.1389,69,54,0
74.130844,75.1389,78,93,0
75.1389,75.8827,75,84,0
75.8827,76.01145,77,85,0
75.1389,76.38712,70,65,0
76.38712,76.50761,70,61,0
76.50761,76.62809,69,52,0
76.62809,76.74857,70,61,0
76.74857,76.86905,69,54,0
76.86905,76.98953,70,61,0
76.98953,77.15258,69,54,0
76.14021,77.15258,79,93,0
77.15258,77.39748,78,70,0
77.39748,77.51796,70,51,0
77.51796,77.63844,69,44,0
77.63844,77.75892,70,51,0
77.75892,77.8794,69,43,0
77.8794,77.999886,70,51,0
77.999886,78.162926,69,45,0
78.162926,78.40783,77,70,0
78.40783,78.52831,72,51,0
78.52831,78.64879,71,44,0
78.64879,78.76927,72,51,0
78.76927,78.889755,71,43,0
78.889755,79.01024,72,51,0
79.01024,79.17328,71,45,0
79.17328,79.29573,77,70,0
79.41818,79.53866,74,51,0
79.53866,79.68084,72,44,0
79.68084,79.80329,77,70,0
79.925735,80.04622,72,51,0
80.04622,80.18908,70,44,0
80.18908,80.31152,77,70,0
80.433975,80.55446,70,51,0
80.55446,80.69597,69,44,0
80.69597,80.81841,77,70,0
80.940865,81.06135,72,51,0
81.06135,81.20489,70,44,0
81.20489,81.44978,78,70,0
81.44978,81.57027,70,51,0
81.57027,81.69075,69,44,0
81.69075,81.81123,70,51,0
81.81123,81.93172,69,43,0
81.93172,82.05219,70,51,0
82.05219,82.21524,69,45,0
82.21524,82.46014,77,70,0
82.46014,82.58062,72,51,0
82.58062,82.7011,71,44,0
82.7011,82.82159,72,51,0
82.82159,82.94206,71,43,0
82.94206,83.062546,72,51,0
83.062546,83.22559,71,45,0
83.22559,83.34804,77,70,0
83.47049,83.59097,74,51,0
83.59097,83.733154,72,44,0
83.733154,83.8556,77,70,0
83.97805,84.09853,72,51,0
84.09853,84.24139,71,44,0
84.24139,84.36384,77,70,0
84.48629,84.606766,74,51,0
84.606766,84.748276,72,44,0
84.748276,84.99318,77,64,0
84.99318,85.50172,75,70,0
84.99318,85.50172,72,59,0
85.50172,85.76203,70,55,0
85.50172,85.76203,74,65,0
85.24466,85.76203,65,45,0
85.76203,86.01308,69,55,0
85.76203,86.01308,72,65,0
86.01308,86.52162,87,70,0
86.01308,86.52162,84,59,0
86.52162,86.78194,86,65,0
86.52162,86.78194,82,55,0
86.264565,86.78194,77,45,0
86.78194,87.03298,81,55,0
86.78194,87.03298,84,65,0
87.03298,87.28446,81,64,0
87.03298,87.28446,84,64,0
87.28446,87.54152,82,65,0
87.28446,87.54152,77,65,0
87.03298,87.54152,91,77,0
87.54152,87.801834,82,63,0
87.54152,87.801834,89,75,0
87.54152,87.801834,77,63,0
87.801834,88.05288,82,69,0
87.801834,88.05288,79,69,0
88.05288,88.303925,81,67,0
88.05288,88.303925,84,67,0
88.05288,88.303925,87,79,0
88.42638,88.54883,77,49,0
88.54883,88.67435,79,55,0
88.67435,88.79987,77,50,0
88.79987,88.92539,79,55,0
88.92539,89.05092,77,47,0
89.05092,89.18023,79,55,0
89.18023,89.30954,77,48,0
88.303925,89.30954,86,88,0
89.43099,89.55245,75,46,0
89.55245,89.67798,77,54,0
89.67798,89.8035,75,50,0
89.8035,89.92902,77,53,0
89.92902,90.05454,75,47,0
90.05454,90.18442,77,53,0
90.18442,90.314285,75,48,0
89.30954,90.314285,84,80,0
90.314285,90.439285,74,53,0
90.439285,90.564285,70,48,0
90.564285,90.689285,72,53,0
90.689285,90.814285,70,48,0
90.314285,90.814285,82,70,0
90.93723,91.06019,70,48,0
90.814285,91.06019,79,68,0
91.183136,91.31588,70,48,0
91.06019,91.31588,77,60,0
91.31588,91.43985,70,53,0
91.43985,91.56381,65,48,0
91.31588,91.56381,77,68,0
91.56381,91.68934,69,53,0
91.68934,91.81486,65,48,0
91.56381,91.81486,75,58,0
91.81486,91.941444,70,53,0
91.941444,92.06802,65,48,0
91.81486,92.06802,74,66,0
92.19903,92.33003,65,48,0
92.06802,92.33003,72,57,0
92.452484,92.57493,65,44,0
92.57493,92.700455,67,49,0
92.700455,92.82597,65,45,0
92.82597,92.9515,67,49,0
92.9515,93.07703,65,42,0
93.07703,93.20634,67,49,0
93.20634,93.33564,65,43,0
92.33003,93.33564,74,79,0
93.4571,93.57856,63,41,0
93.57856,93.70408,65,48,0
93.70408,93.829605,63,45,0
93.829605,93.955124,65,47,0
93.955124,94.08065,63,42,0
94.08065,94.21052,65,47,0
94.21052,94.34039,63,43,0
93.33564,94.34039,72,72,0
94.34039,94.46539,62,47,0
94.46539,94.59039,58,43,0
94.59039,94.71539,60,47,0
94.71539,94.84039,58,43,0
94.34039,94.84039,70,63,0
94.96334,95.086296,58,43,0
94.84039,95.086296,67,61,0
95.20924,95.34199,58,43,0
95.086296,95.34199,65,54,0
95.34199,95.46595,58,47,0
95.46595,95.58992,53,43,0
95.34199,95.58992,65,61,0
95.58992,95.71545,57,47,0
95.71545,95.840965,53,43,0
95.58992,95.840965,63,52,0
95.840965,95.96755,58,47,0
95.96755,96.09413,53,43,0
95.840965,96.09413,62,59,0
96.225136,96.35614,53,43,0
96.09413,96.35614,60,51,0
96.61266,96.863716,50,55,0
96.487144,96.863716,54,46,0
96.35614,96.989235,58,57,0
96.999695,97.12522,53,47,0
97.11476,97.24028,50,47,0
97.24028,97.49681,58,47,0
97.49681,97.62233,58,47,0
97.62233,97.747856,57,51,0
97.747856,97.873375,58,49,0
97.873375,97.99435,60,52,0
97.99435,98.11531,62,44,0
98.11531,98.23628,63,51,0
98.23628,98.37846,60,47,0
98.63499,98.88603,62,55,0
98.50947,98.88603,66,46,0
98.37846,99.01156,70,57,0
99.02202,99.14754,65,47,0
99.13708,99.2626,62,47,0
99.2626,99.51913,70,47,0
99.51913,99.64465,70,47,0
99.64465,99.77018,69,51,0
99.77018,99.8957,70,49,0
99.39361,99.8957,65,47,0
99.8957,100.01667,72,52,0
100.01667,100.137634,74,44,0
100.137634,100.258606,75,51,0
100.258606,100.40146,72,47,0
100.40146,100.52243,74,51,0
100.52243,100.64743,72,42,0
100.64743,101.02139,70,49,0
101.02139,101.141396,67,41,0
101.141396,101.51484,65,48,0
101.51484,101.63932,63,42,0
101.63932,102.00769,62,48,0
102.00769,102.13115,60,42,0
102.13115,102.4996,58,47,0
102.4996,102.6246,55,41,0
102.6246,102.993065,53,47,0
102.993065,103.116516,51,38,0
103.116516,103.482925,50,43,0
103.482925,103.60587,48,37,0
103.60587,103.97279,46,44,0
103.97279,104.09676,48,36,0
104.09676,104.6586,46,41,0
106.448135,107.47818,77,53,0
106.448135,107.47818,70,45,0
107.47818,108.58929,79,51,0
107.47818,108.58929,70,43,0
108.58929,109.31803,68,64,0
108.58929,109.31803,80,77,0
109.31803,109.42518,74,70,0
109.42518,109.48691,79,67,0
109.31803,109.54864,67,59,0
109.54864,109.792534,67,59,0
109.54864,109.792534,79,70,0
109.792534,109.89892,72,70,0
109.89892,109.96116,77,67,0
109.792534,110.0234,65,59,0
110.0234,110.2673,65,59,0
110.0234,110.2673,77,70,0
110.2673,110.37369,70,70,0
110.37369,110.43779,75,67,0
110.2673,110.50189,63,59,0
110.50189,110.99982,75,70,0
110.50189,110.99982,63,59,0
110.99982,111.24273,62,50,0
110.50189,111.24273,70,59,0
110.50189,111.24273,68,59,0
110.99982,111.24273,74,59,0
111.24273,111.48565,63,50,0
111.24273,111.48565,70,50,0
111.24273,111.48565,75,59,0
111.48565,111.72856,77,57,0
111.48565,111.72856,65,48,0
111.48565,111.72856,70,48,0
111.72856,111.97147,67,51,0
111.72856,111.97147,79,60,0
111.72856,111.97147,70,51,0
111.97147,112.21738,80,64,0
111.97147,112.21738,70,54,0
111.97147,112.21738,68,54,0
112.21738,112.473785,82,68,0
112.21738,112.473785,70,57,0
112.473785,112.71572,67,66,0
112.473785,112.71572,82,78,0
112.473785,112.71572,70,66,0
112.95766,113.19959,70,69,0
112.95766,113.19959,82,81,0
113.44959,114.1754,94,93,0
113.44959,114.1754,82,78,0
114.1754,115.14314,70,55,0
114.1754,115.14314,82,65,0
115.14314,115.39631,79,62,0
115.14314,115.39631,67,62,0
115.39631,115.63631,65,55,0
115.39631,115.63631,77,65,0
115.63631,115.876305,62,48,0
115.63631,115.876305,74,57,0
115.876305,116.11631,59,48,0
115.876305,116.11631,71,57,0
116.11631,116.367355,70,56,0
116.11631,116.367355,58,47,0
116.367355,116.60929,70,78,0
116.367355,116.60929,58,66,0
116.84959,117.08907,70,69,0
116.84959,117.08907,82,81,0
117.33907,118.06488,94,93,0
117.33907,118.06488,82,78,0
118.06488,119.02608,70,55,0
118.06488,119.02608,82,65,0
119.02608,119.27924,67,62,0
119.02608,119.27924,79,62,0
119.27924,119.51924,76,65,0
119.27924,119.51924,64,55,0
119.51924,119.75925,77,57,0
119.51924,119.75925,65,48,0
119.75925,119.999245,60,48,0
119.75925,119.999245,72,57,0
119.999245,120.25029,75,56,0
119.999245,120.25029,63,47,0
120.25029,120.37582,74,56,0
120.25029,120.37582,62,56,0
120.37582,120.49678,70,49,0
120.49678,120.61652,69,51,0
120.61652,120.73626,70,53,0
120.73626,120.856,69,46,0
120.73626,120.856,72,55,0
120.856,120.975746,70,48,0
120.856,120.975746,74,57,0
120.975746,121.09549,75,59,0
120.975746,121.09549,72,50,0
121.09549,121.22424,74,51,0
121.09549,121.22424,77,61,0
121.22424,121.72411,75,53,0
121.22424,121.72411,79,63,0
121.72411,121.84458,80,52,0
121.72411,121.84458,84,62,0
121.84458,121.96503,82,59,0
121.84458,121.96503,79,50,0
121.96503,122.085754,80,56,0
121.96503,122.085754,77,47,0
122.085754,122.20695,79,53,0
122.085754,122.20695,75,45,0
122.20695,122.45015,74,51,0
122.20695,122.45015,77,61,0
122.69352,122.81549,92,57,0
122.69352,122.81549,96,68,0
122.81549,122.93796,91,55,0
122.81549,122.93796,94,64,0
122.93796,123.06093,92,61,0
122.93796,123.06093,89,51,0
123.06093,123.18441,91,58,0
123.06093,123.18441,87,49,0
123.18441,123.4321,86,56,0
123.18441,123.4321,89,67,0
123.4321,123.55184,74,57,0
123.4321,123.55184,84,68,0
123.55184,123.67199,82,67,0
123.55184,123.67199,75,56,0
123.67199,123.792534,71,56,0
123.67199,123.792534,80,67,0
123.792534,123.91356,72,56,0
123.792534,123.91356,79,66,0
123.91356,124.004555,77,64,0
123.91356,124.004555,67,55,0
124.03497,124.12634,78,63,0
124.03497,124.12634,75,53,0
124.156906,124.24874,74,51,0
124.156906,124.24874,79,61,0
124.27935,124.37097,78,55,0
124.27935,124.37097,74,55,0
124.27935,124.37097,81,64,0
124.40146,124.49289,83,68,0
124.40146,124.49289,79,57,0
124.40146,124.49289,74,57,0
124.523254,124.61435,79,60,0
124.523254,124.61435,74,60,0
124.523254,124.61435,83,71,0
124.644714,124.735466,75,63,0
124.644714,124.735466,79,63,0
124.644714,124.735466,84,75,0
124.76571,124.856125,83,67,0
124.76571,124.856125,86,79,0
124.76571,124.856125,77,67,0
124.886215,124.97726,79,69,0
124.886215,124.97726,87,82,0
124.886215,124.97726,84,69,0
125.007904,125.1006,88,85,0
125.007904,125.1006,84,72,0
125.007904,125.1006,79,72,0
125.13182,125.25682,84,74,0
125.13182,125.25682,79,74,0
125.13182,125.25682,88,89,0
125.63182,125.774,89,92,0
125.63182,125.774,77,92,0
125.63182,125.774,84,92,0
126.20054,126.94434,75,84,0
126.94434,127.0731,77,85,0
126.20054,127.44877,70,65,0
127.44877,127.56925,70,61,0
127.56925,127.68973,69,52,0
127.68973,127.809,70,61,0
127.809,127.92826,69,54,0
127.92826,128.04753,70,61,0
128.04753,128.20625,69,54,0
127.20185,128.20625,78,93,0
128.20625,128.95006,75,84,0
128.95006,129.07881,77,85,0
128.20625,129.45448,70,65,0
129.45448,129.57497,70,61,0
129.57497,129.69545,69,52,0
129.69545,129.81519,70,61,0
129.81519,129.93494,69,54,0
129.93494,130.05467,70,61,0
130.05467,130.21771,69,54,0
129.20757,130.21771,79,93,0
130.21771,130.46262,78,70,0
130.46262,130.5831,70,51,0
130.5831,130.70358,69,44,0
130.70358,130.82405,70,51,0
130.82405,130.94453,69,43,0
130.94453,131.06502,70,51,0
131.06502,131.22807,69,45,0
131.22807,131.47296,77,70,0
131.47296,131.59344,72,51,0
131.59344,131.71393,71,44,0
131.71393,131.83441,72,51,0
131.83441,131.9549,71,43,0
131.9549,132.07538,72,51,0
132.07538,132.23842,71,45,0
132.23842,132.36087,77,70,0
132.48332,132.60211,74,51,0
132.60211,132.7443,72,44,0
132.7443,132.86673,77,70,0
132.98918,133.10751,72,51,0
133.10751,133.25037,70,44,0
133.25037,133.37282,77,70,0
133.49527,133.61575,70,51,0
133.61575,133.75726,69,44,0
133.75726,133.8797,77,70,0
134.00215,134.12094,72,51,0
134.12094,134.2645,70,44,0
134.2645,134.50938,78,70,0
134.50938,134.62987,70,51,0
134.62987,134.75035,69,44,0
134.75035,134.87083,70,51,0
134.87083,134.99132,69,43,0
134.99132,135.1118,70,51,0
135.1118,135.27484,69,45,0
135.27484,135.51974,77,70,0
135.51974,135.64023,72,51,0
135.64023,135.7607,71,44,0
135.7607,135.8795,72,51,0
135.8795,135.99829,71,43,0
135.99829,136.11708,72,51,0
136.11708,136.28012,71,45,0
136.28012,136.40257,77,70,0
136.52502,136.64551,74,51,0
136.64551,136.78769,72,44,0
136.78769,136.91014,77,70,0
137.03258,137.15233,72,51,0
137.15233,137.29518,71,44,0
137.29518,137.41763,77,70,0
137.54008,137.66057,74,51,0
137.66057,137.80208,72,44,0
137.80208,138.04697,77,64,0
138.04697,138.55551,75,70,0
138.04697,138.55551,72,59,0
138.55551,138.81583,70,55,0
138.55551,138.81583,74,65,0
138.29846,138.81583,65,45,0
138.81583,139.06686,69,55,0
138.81583,139.06686,72,65,0
139.06686,139.57541,87,70,0
139.06686,139.57541,84,59,0
139.57541,139.83572,82,55,0
139.57541,139.83572,86,65,0
139.31836,139.83572,77,45,0
139.83572,140.08678,84,65,0
139.83572,140.08678,81,55,0
140.08678,140.33826,84,64,0
140.08678,140.33826,81,64,0
140.33826,140.5953,77,65,0
140.33826,140.5953,82,65,0
140.08678,140.5953,91,77,0
140.5953,140.85562,89,75,0
140.5953,140.85562,77,63,0
140.5953,140.85562,82,63,0
140.85562,141.10667,79,69,0
140.85562,141.10667,82,69,0
141.10667,141.35773,84,67,0
141.10667,141.35773,81,67,0
141.10667,141.35773,87,79,0
141.48016,141.60262,77,49,0
141.60262,141.72813,79,55,0
141.72813,141.85367,77,50,0
141.85367,141.97919,79,55,0
141.97919,142.1047,77,47,0
142.1047,142.23402,79,55,0
142.23402,142.36333,77,48,0
141.35773,142.36333,86,88,0
142.48479,142.60625,75,46,0
142.60625,142.73177,77,54,0
142.73177,142.85728,75,50,0
142.85728,142.98282,77,53,0
142.98282,143.10834,75,47,0
143.10834,143.2382,77,53,0
143.2382,143.36807,75,48,0
142.36333,143.36807,84,80,0
143.36807,143.49307,74,53,0
143.49307,143.61807,70,48,0
143.61807,143.74307,72,53,0
143.74307,143.86807,70,48,0
143.36807,143.86807,82,70,0
143.99103,144.11398,70,48,0
143.86807,144.11398,79,68,0
144.23692,144.36967,70,48,0
144.11398,144.36967,77,60,0
144.36967,144.49364,70,53,0
144.49364,144.61761,65,48,0
144.36967,144.61761,77,68,0
144.61761,144.74313,69,53,0
144.74313,144.86865,65,48,0
144.61761,144.86865,75,58,0
144.86865,144.99524,70,53,0
144.99524,145.12181,65,48,0
144.86865,145.12181,74,66,0
145.25282,145.38382,65,48,0
145.12181,145.38382,72,57,0
145.50627,145.62872,65,44,0
145.62872,145.75424,67,49,0
145.75424,145.87978,65,45,0
145.87978,146.0053,67,49,0
146.0053,146.13081,65,42,0
146.13081,146.26013,67,49,0
146.26013,146.38943,65,43,0
145.38382,146.38943,74,79,0
146.5109,146.63235,63,41,0
146.63235,146.75787,65,48,0
146.75787,146.88339,63,45,0
146.88339,147.00893,65,47,0
147.00893,147.13445,63,42,0
147.13445,147.26431,65,47,0
147.26431,147.39418,63,43,0
146.38943,147.39418,72,72,0
147.39418,147.51918,62,47,0
147.51918,147.64418,58,43,0
147.64418,147.76918,60,47,0
147.76918,147.89418,58,43,0
147.39418,147.89418,70,63,0
148.01714,148.14009,58,43,0
147.89418,148.14009,67,61,0
148.26303,148.39578,58,43,0
148.14009,148.39578,65,54,0
148.39578,148.51974,58,47,0
148.51974,148.6437,53,43,0
148.39578,148.6437,65,61,0
148.6437,148.76924,57,47,0
148.76924,148.89476,53,43,0
148.6437,148.89476,63,52,0
148.89476,149.02135,58,47,0
149.02135,149.14792,53,43,0
148.89476,149.14792,62,59,0
149.27893,149.40993,53,43,0
149.14792,149.40993,60,51,0
149.66646,149.91751,50,55,0
149.54094,149.91751,54,46,0
149.40993,150.04303,58,57,0
150.05348,150.17902,53,47,0
150.16855,150.29408,50,47,0
150.29408,150.5506,58,47,0
150.5506,150.67613,58,47,0
150.67613,150.80165,57,51,0
150.80165,150.92717,58,49,0
150.92717,151.04814,60,52,0
151.04814,151.16911,62,44,0
151.16911,151.29007,63,51,0
151.29007,151.43225,60,47,0
151.68878,151.93983,62,55,0
151.56326,151.93983,66,46,0
151.43225,152.06535,70,57,0
152.0758,152.20134,65,47,0
152.19087,152.31639,62,47,0
152.31639,152.57292,70,47,0
152.57292,152.69844,70,47,0
152.69844,152.82397,69,51,0
152.82397,152.9495,70,49,0
152.4474,152.9495,65,47,0
152.9495,153.07047,72,52,0
153.07047,153.19142,74,44,0
153.19142,153.3124,75,51,0
153.3124,153.45525,72,47,0
153.45525,153.57622,74,51,0
153.57622,153.70122,72,42,0
153.70122,154.0752,70,49,0
154.0752,154.19519,67,41,0
154.19519,154.56863,65,48,0
154.56863,154.69312,63,42,0
154.69312,155.06148,62,48,0
155.06148,155.18494,60,42,0
155.18494,155.55339,58,47,0
155.55339,155.67839,55,41,0
155.67839,156.04686,53,47,0
156.04686,156.17032,51,38,0
156.17032,156.53671,50,43,0
156.53671,156.65967,48,37,0
156.65967,157.02658,46,44,0
157.02658,157.15056,48,36,0
157.15056,157.71239,46,41,0
159.50192,160.53197,77,53,0
159.50192,160.53197,70,45,0
160.53197,161.56201,68,43,0
160.53197,161.56201,80,51,0
161.56201,162.29076,79,88,0
161.56201,162.29076,67,73,0
162.29076,162.3888,74,79,0
162.3888,162.45053,79,76,0
162.51225,162.75615,67,66,0
162.51225,162.75615,79,79,0
162.75615,162.85516,72,78,0
162.85516,162.9174,77,74,0
162.97964,163.22356,77,77,0
162.97964,163.22356,65,65,0
163.22356,163.32256,72,77,0
163.32256,163.38666,75,73,0
163.45076,163.69467,75,75,0
163.45076,163.69467,63,63,0
163.69467,163.79568,69,74,0
163.79568,163.85793,74,71,0
163.92017,164.19923,67,62,0
163.92017,164.19923,74,74,0
163.92017,164.19923,62,62,0
164.19923,164.31828,79,64,0
164.31828,164.40161,84,57,0
164.19923,164.48494,72,64,0
164.48494,165.46454,65,45,0
165.46454,166.44412,63,45,0
166.44412,168.13351,75,45,0
166.44412,168.13351,69,38,0
166.44412,168.13351,66,38,0
168.13351,168.26282,65,45,0
168.13351,168.26282,73,45,0
168.13351,168.26282,70,45,0
168.39214,169.35599,73,55,0
169.35599,170.31984,72,50,0
170.31984,172.2769,78,45,0
170.31984,172.2769,74,45,0
170.31984,172.2769,72,45,0
170.31984,172.2769,81,45,0
172.2769,173.24075,72,55,0
173.24075,174.20462,71,50,0
174.20462,176.15186,78,45,0
174.20462,176.15186,71,45,0
174.20462,176.15186,75,45,0
174.20462,176.15186,81,45,0
176.15186,177.1157,71,55,0
177.1157,178.07956,70,50,0
178.07956,179.27565,80,45,0
178.07956,179.27565,74,45,0
178.07956,179.27565,77,45,0
178.07956,179.27565,70,45,0
179.27565,179.50835,82,62,0
179.50835,179.76923,83,69,0
179.76923,180.02785,82,62,0
180.02785,181.22119,80,45,0
180.02785,181.22119,74,45,0
180.02785,181.22119,70,45,0
180.02785,181.22119,77,45,0
181.22119,181.4601,77,52,0
181.22119,181.4601,82,62,0
181.4601,181.72098,83,69,0
181.4601,181.72098,78,58,0
181.72098,181.9796,77,52,0
181.72098,181.9796,82,62,0
181.9796,182.70834,87,77,0
181.9796,182.70834,79,64,0
181.9796,182.70834,82,64,0
181.9796,182.70834,75,64,0
182.70834,182.81073,80,62,0
182.81073,182.87245,85,52,0
182.70834,182.93419,77,45,0
182.93419,183.17809,85,61,0
182.93419,183.17809,78,51,0
183.17809,183.27943,77,51,0
183.27943,183.34167,83,51,0
183.17809,183.40392,71,51,0
183.40392,183.64783,71,46,0
183.40392,183.64783,80,46,0
183.40392,183.64783,83,55,0
183.64783,183.89102,78,47,0
183.64783,183.89102,82,47,0
183.64783,183.89102,66,47,0
183.89102,184.13896,68,42,0
183.89102,184.13896,80,50,0
184.13896,184.37993,78,45,0
184.13896,184.37993,66,38,0
184.37993,184.62088,65,42,0
184.37993,184.62088,77,50,0
184.62088,184.88637,78,47,0
184.62088,184.88637,66,39,0
184.88637,185.84628,80,45,0
184.88637,185.84628,68,38,0
184.88637,185.84628,71,38,0
185.84628,186.80652,68,38,0
185.84628,186.80652,71,38,0
185.84628,186.80652,80,45,0
186.80652,187.7671,79,45,0
186.80652,187.7671,72,38,0
186.80652,187.7671,67,38,0
187.7671,188.73013,71,37,0
187.7671,188.73013,77,44,0
187.7671,188.73013,65,37,0
187.7671,188.73013,67,37,0
188.73013,189.69214,72,36,0
188.73013,189.69214,63,36,0
188.73013,189.69214,75,42,0
188.73013,189.69214,67,36,0
189.69623,190.65521,68,35,0
189.69214,190.65521,74,41,0
189.69214,190.65521,71,35,0
189.69214,190.65521,65,35,0
190.65521,191.6179,72,40,0
190.65521,191.6179,63,34,0
190.65521,191.6179,67,34,0
191.6179,192.57997,68,39,0
191.6179,192.57997,65,33,0
191.6179,192.57997,62,33,0
191.6179,192.57997,59,33,0
192.57997,193.46951,60,32,0
192.57997,193.54161,67,38,0
192.57997,193.54161,63,32,0
193.54161,194.4315,60,31,0
193.54161,194.5036,63,31,0
193.54161,194.5036,68,37,0
194.5036,195.44559,68,36,0
194.5036,195.44559,63,30,0
195.44559,196.38586,68,36,0
195.44559,196.38586,62,30,0
196.38586,197.32753,63,30,0
196.38586,197.32753,68,36,0
197.32753,198.2706,68,36,0
197.32753,198.2706,63,30,0
198.2706,198.9727,68,36,0
198.2706,198.9727,63,30,0
198.9727,199.09319,56,50,0
199.09319,199.21367,68,52,0
199.21367,199.33415,56,55,0
199.33415,199.44258,68,56,0
199.45451,199.57378,68,59,0
199.57378,199.69392,80,61,0
199.69392,199.81497,68,64,0
199.81497,199.93687,80,66,0
199.93687,200.05968,68,69,0
200.05968,200.20804,80,71,0
200.22452,200.95326,68,68,0
200.22452,200.95326,80,84,0
200.95326,201.06041,74,70,0
201.06041,201.12213,79,67,0
200.95326,201.18387,67,59,0
201.18387,201.42776,67,59,0
201.18387,201.42776,79,70,0
201.42776,201.53415,72,70,0
201.53415,201.59639,77,67,0
201.42776,201.65863,65,59,0
201.65863,201.90253,65,59,0
201.65863,201.90253,77,70,0
201.90253,202.00891,70,70,0
202.00891,202.07301,75,67,0
201.90253,202.13712,63,59,0
202.13712,202.63504,75,70,0
202.13712,202.63504,63,59,0
202.63504,202.87796,62,50,0
202.13712,202.87796,68,59,0
202.13712,202.87796,70,59,0
202.63504,202.87796,74,59,0
202.87796,203.12088,63,50,0
202.87796,203.12088,70,50,0
202.87796,203.12088,75,59,0
203.12088,203.36378,77,57,0
203.12088,203.36378,70,48,0
203.12088,203.36378,65,48,0
203.36378,203.6067,79,60,0
203.36378,203.6067,67,51,0
203.36378,203.6067,70,51,0
203.6067,203.8526,70,54,0
203.6067,203.8526,80,64,0
203.6067,203.8526,68,54,0
203.8526,204.10902,70,57,0
203.8526,204.10902,82,68,0
204.10902,204.35095,70,66,0
204.10902,204.35095,82,78,0
204.10902,204.35095,67,66,0
204.5929,204.83482,70,69,0
204.5929,204.83482,82,81,0
205.08482,205.81062,82,78,0
205.08482,205.81062,94,93,0
205.81062,206.77837,70,55,0
205.81062,206.77837,82,65,0
206.77837,207.03154,67,62,0
206.77837,207.03154,79,62,0
207.03154,207.27153,77,65,0
207.03154,207.27153,65,55,0
207.27153,207.51154,74,57,0
207.27153,207.51154,62,48,0
207.51154,207.75154,59,48,0
207.51154,207.75154,71,57,0
207.75154,208.00258,70,56,0
207.75154,208.00258,58,47,0
208.00258,208.24452,58,66,0
208.00258,208.24452,70,78,0
208.48645,208.7284,70,69,0
208.48645,208.7284,82,81,0
208.9784,209.7042,82,78,0
208.9784,209.7042,94,93,0
209.7042,210.67194,70,55,0
209.7042,210.67194,82,65,0
210.67194,210.92511,67,62,0
210.67194,210.92511,79,62,0
210.92511,211.1651,76,65,0
210.92511,211.1651,64,55,0
211.1651,211.4051,65,48,0
211.1651,211.4051,77,57,0
211.4051,211.6451,72,57,0
211.4051,211.6451,60,48,0
211.6451,211.89615,75,56,0
211.6451,211.89615,63,47,0
211.89615,212.02167,62,56,0
211.89615,212.02167,74,56,0
212.02167,212.14264,70,49,0
212.14264,212.26361,69,51,0
212.26361,212.38457,70,53,0
212.38457,212.50554,69,46,0
212.38457,212.50554,72,55,0
212.50554,212.62651,70,48,0
212.50554,212.62651,74,57,0
212.62651,212.74748,72,50,0
212.62651,212.74748,75,59,0
212.74748,212.87624,77,61,0
212.74748,212.87624,74,51,0
212.87624,213.3761,75,53,0
212.87624,213.3761,79,63,0
213.3761,213.49808,84,62,0
213.3761,213.49808,80,52,0
213.49808,213.62054,79,50,0
213.49808,213.62054,82,59,0
213.62054,213.74352,80,56,0
213.62054,213.74352,77,47,0
213.74352,213.867,79,53,0
213.74352,213.867,75,45,0
213.867,214.11493,74,56,0
213.867,214.11493,77,67,0
214.11493,214.23654,71,57,0
214.11493,214.23654,80,68,0
214.23654,214.35799,79,67,0
214.23654,214.35799,72,56,0
214.35799,214.47992,77,67,0
214.35799,214.47992,67,56,0
214.47992,214.60187,75,56,0
214.47992,214.60187,78,66,0
214.60187,214.69368,79,64,0
214.60187,214.69368,74,55,0
214.72429,214.81612,81,63,0
214.72429,214.81612,74,53,0
214.72429,214.81612,77,53,0
214.84674,214.93857,83,61,0
214.84674,214.93857,74,51,0
214.84674,214.93857,79,51,0
214.9692,215.0608,83,64,0
214.9692,215.0608,74,55,0
214.9692,215.0608,79,55,0
215.0913,215.18272,84,68,0
215.0913,215.18272,79,57,0
215.0913,215.18272,75,57,0
215.21309,215.30418,83,60,0
215.21309,215.30418,86,71,0
215.21309,215.30418,77,60,0
215.33455,215.4253,79,63,0
215.33455,215.4253,84,63,0
215.33455,215.4253,87,75,0
215.45554,215.54596,84,67,0
215.45554,215.54596,88,79,0
215.45554,215.54596,79,67,0
215.57605,215.66708,77,69,0
215.57605,215.66708,84,69,0
215.57605,215.66708,89,82,0
215.69774,215.79044,77,72,0
215.69774,215.79044,84,72,0
215.69774,215.79044,89,85,0
215.82166,215.94666,77,77,0
215.82166,215.94666,86,93,0
215.82166,215.94666,82,81,0
216.32166,216.46384,75,92,0
216.32166,216.46384,82,92,0
216.32166,216.46384,87,92,0
216.89037,217.63417,68,84,0
217.63417,217.76292,70,85,0
216.89037,218.1386,63,65,0
218.1386,218.25764,63,61,0
218.25764,218.3767,62,52,0
218.3767,218.49574,63,61,0
218.49574,218.61479,62,54,0
218.61479,218.73384,63,61,0
218.73384,218.89256,62,54,0
217.89168,218.89256,71,93,0
218.89256,219.63637,68,84,0
219.63637,219.76512,70,85,0
218.89256,220.1408,63,65,0
220.1408,220.26128,63,61,0
220.26128,220.38176,62,52,0
220.38176,220.50034,63,61,0
220.50034,220.61891,62,54,0
220.61891,220.73749,63,61,0
220.73749,220.90053,62,54,0
219.89388,220.90053,72,93,0
220.90053,221.14543,71,70,0
221.14543,221.26448,63,51,0
221.26448,221.38353,62,44,0
221.38353,221.50256,63,51,0
221.50256,221.62161,62,43,0
221.62161,221.74066,63,51,0
221.74066,221.90372,62,45,0
221.90372,222.1486,70,70,0
222.1486,222.26765,65,51,0
222.26765,222.3867,64,44,0
222.3867,222.50575,65,51,0
222.50575,222.6248,64,43,0
222.6248,222.74385,65,51,0
222.74385,222.90689,64,45,0
222.90689,223.02934,70,70,0
223.15178,223.26897,67,51,0
223.26897,223.41115,65,44,0
223.41115,223.5336,70,70,0
223.65605,223.77463,65,51,0
223.77463,223.91748,63,44,0
223.91748,224.03993,70,70,0
224.16238,224.28096,63,51,0
224.28096,224.42247,62,44,0
224.42247,224.54492,70,70,0
224.66737,224.78786,65,51,0
224.78786,224.9314,63,44,0
224.9314,225.17628,83,70,0
225.17628,225.2944,75,51,0
225.2944,225.4125,74,44,0
225.4125,225.53062,75,51,0
225.53062,225.64873,74,43,0
225.64873,225.76685,75,51,0
225.76685,225.92989,74,45,0
225.92989,226.17479,82,70,0
226.17479,226.29431,77,51,0
226.29431,226.41383,76,44,0
226.41383,226.53336,77,51,0
226.53336,226.65288,76,43,0
226.65288,226.7724,77,51,0
226.7724,226.93544,76,45,0
226.93544,227.05789,82,70,0
227.18033,227.29938,79,51,0
227.29938,227.44156,77,44,0
227.44156,227.56401,82,70,0
227.68646,227.80504,77,51,0
227.80504,227.94789,76,44,0
227.94789,228.07034,82,70,0
228.1928,228.31184,79,51,0
228.31184,228.45335,77,44,0
228.45335,228.69824,82,64,0
228.69824,229.20488,77,59,0
228.69824,229.20488,80,70,0
229.20488,229.4652,75,55,0
229.20488,229.4652,79,65,0
228.94783,229.4652,70,45,0
229.4652,229.71625,74,55,0
229.4652,229.71625,77,65,0
229.71625,230.22478,92,70,0
229.71625,230.22478,89,59,0
230.22478,230.48509,91,65,0
230.22478,230.48509,87,55,0
229.96773,230.48509,82,45,0
230.48509,230.74396,86,55,0
230.48509,230.74396,89,65,0
230.74396,230.99544,89,64,0
230.74396,230.99544,86,64,0
230.99544,231.2525,82,65,0
230.99544,231.2525,87,65,0
230.74396,231.2525,96,77,0
231.2525,231.51282,82,63,0
231.2525,231.51282,87,63,0
231.2525,231.51282,94,75,0
231.51282,231.76385,84,69,0
231.51282,231.76385,87,69,0
231.76385,232.01491,86,67,0
231.76385,232.01491,89,67,0
231.76385,232.01491,92,79,0
232.13734,232.2598,82,49,0
232.2598,232.3798,84,55,0
232.3798,232.4998,82,50,0
232.4998,232.6198,84,55,0
232.6198,232.7398,82,47,0
232.7398,232.86911,84,55,0
232.86911,232.99843,82,48,0
232.01491,232.99843,91,88,0
232.01491,232.99843,79,70,0
233.11987,233.24133,80,46,0
233.24133,233.36086,82,54,0
233.36086,233.48038,80,50,0
233.48038,233.5999,82,53,0
233.5999,233.71942,80,47,0
233.71942,233.85217,82,53,0
233.85217,233.98491,80,48,0
232.99843,233.98491,89,80,0
232.99843,233.98491,77,70,0
233.98491,234.10991,79,53,0
234.10991,234.23491,75,48,0
234.23491,234.35991,77,53,0
234.35991,234.48491,75,48,0
233.98491,234.48491,87,70,0
234.60786,234.7308,75,48,0
234.48491,234.7308,84,68,0
234.85376,234.98651,75,48,0
234.7308,234.98651,82,60,0
234.98651,235.11047,75,53,0
235.11047,235.23444,70,48,0
234.98651,235.23444,82,68,0
235.23444,235.35997,74,53,0
235.35997,235.48549,70,48,0
235.23444,235.48549,80,58,0
235.48549,235.61206,75,53,0
235.61206,235.73865,70,48,0
235.48549,235.73865,79,66,0
235.73865,235.87318,68,53,0
235.87318,236.0077,70,48,0
235.73865,236.0077,77,57,0
236.13016,236.25261,70,44,0
236.25261,236.37358,72,49,0
236.37358,236.49454,70,45,0
236.49454,236.61551,72,49,0
236.61551,236.73648,70,42,0
236.73648,236.86578,72,49,0
236.86578,236.9951,70,43,0
236.0077,236.9951,79,79,0
236.0077,236.9951,67,65,0
237.11656,237.238,68,41,0
237.238,237.35802,70,48,0
237.35802,237.47801,68,45,0
237.47801,237.598,70,47,0
237.598,237.71802,68,42,0
237.71802,237.84789,70,47,0
237.84789,237.97775,68,43,0
236.9951,237.97775,77,72,0
236.9951,237.97775,65,65,0
237.97775,238.10275,67,47,0
238.10275,238.22775,63,43,0
238.22775,238.35434,65,47,0
238.35434,238.48091,63,43,0
237.97775,238.48091,75,63,0
238.48091,238.60336,60,47,0
238.60336,238.72581,63,43,0
238.48091,238.72581,68,51,0
238.48091,238.72581,72,61,0
238.72581,238.84827,58,47,0
238.84827,238.9925,63,43,0
238.72581,238.9925,70,54,0
238.72581,238.9925,67,45,0
238.9925,239.11647,67,47,0
239.11647,239.24043,58,43,0
238.9925,239.24043,70,61,0
239.24043,239.36595,65,47,0
239.36595,239.49147,56,43,0
239.24043,239.49147,68,52,0
239.49147,239.61806,63,47,0
239.61806,239.74464,55,43,0
239.49147,239.74464,67,59,0
239.88162,240.01862,53,43,0
239.74464,240.01862,62,51,0
239.74464,240.01862,65,51,0
240.27515,240.52618,55,55,0
240.14961,240.52618,59,46,0
240.01862,240.6517,63,57,0
240.66217,240.78769,58,47,0
240.77724,240.90276,55,47,0
240.90276,241.15929,63,47,0
241.15929,241.2848,63,47,0
241.2848,241.41032,62,51,0
241.41032,241.53586,63,49,0
241.03375,241.53586,58,47,0
241.53586,241.65681,65,52,0
241.65681,241.77779,67,44,0
241.77779,241.89876,68,51,0
241.89876,242.04094,65,47,0
242.29745,242.54851,67,55,0
242.17194,242.54851,71,46,0
242.04094,242.67403,75,57,0
242.6845,242.81001,70,47,0
242.79956,242.92508,67,47,0
242.92508,243.18161,75,47,0
243.18161,243.30713,75,47,0
243.30713,243.43265,74,51,0
243.43265,243.55817,75,49,0
243.05608,243.55817,70,47,0
243.55817,243.67914,77,52,0
243.67914,243.80011,79,44,0
243.80011,243.92108,80,51,0
243.92108,244.07108,77,47,0
244.07108,244.18826,79,51,0
244.18826,244.31326,77,42,0
244.31326,244.68723,75,49,0
244.68723,244.80724,72,41,0
244.80724,245.18068,70,48,0
245.18068,245.30516,68,42,0
245.30516,245.67352,67,48,0
245.67352,245.79698,65,42,0
245.79698,246.16544,63,47,0
246.16544,246.29044,60,41,0
246.29044,246.65889,58,47,0
246.65889,246.78235,56,38,0
246.78235,247.14876,55,43,0
247.14876,247.27171,53,37,0
247.27171,247.63863,51,44,0
247.63863,247.7626,53,36,0
247.7626,248.32443,51,41,0
250.11397,251.14401,82,53,0
250.11397,251.14401,75,45,0
251.14401,252.25513,73,46,0
251.14401,252.25513,85,55,0
252.25513,252.98387,72,70,0
252.25513,252.98387,84,84,0
252.98387,253.0859,77,70,0
252.98387,253.0859,72,59,0
253.0859,253.14764,82,67,0
253.0859,253.14764,73,56,0
253.20937,253.45328,73,59,0
253.20937,253.45328,82,70,0
253.45328,253.55566,75,70,0
253.45328,253.55566,70,59,0
253.55566,253.6179,80,67,0
253.55566,253.6179,72,56,0
253.68015,253.92404,72,59,0
253.68015,253.92404,80,70,0
253.92404,254.02574,73,70,0
253.92404,254.02574,68,59,0
254.02574,254.08984,70,56,0
254.02574,254.08984,79,67,0
254.15395,254.39784,70,59,0
254.15395,254.39784,79,70,0
254.39784,254.49886,67,59,0
254.39784,254.49886,72,70,0
254.49886,254.5611,77,67,0
254.49886,254.5611,68,56,0
254.62334,254.8652,77,70,0
254.62334,254.8652,68,59,0
254.86723,255.10912,65,59,0
254.86723,255.10912,77,70,0
255.11115,255.60907,65,59,0
255.11115,255.60907,77,70,0
255.60907,255.85199,76,59,0
255.60907,255.85199,64,50,0
255.85199,256.0949,77,59,0
255.85199,256.0949,65,50,0
255.85199,256.0949,72,50,0
256.0949,256.33298,79,57,0
256.0949,256.33298,67,48,0
256.0949,256.33298,72,48,0
256.33298,256.57108,68,51,0
256.33298,256.57108,72,51,0
256.33298,256.57108,80,60,0
256.57108,256.817,82,64,0
256.57108,256.817,72,54,0
256.57108,256.817,70,54,0
256.817,257.0734,79,68,0
256.817,257.0734,67,57,0
256.817,257.0734,72,57,0
256.817,257.0734,76,57,0
257.0734,257.31534,72,66,0
257.0734,257.31534,77,66,0
257.0734,257.31534,68,66,0
257.0734,257.31534,80,78,0
257.55344,257.79153,84,89,0
257.55344,257.79153,72,75,0
258.04153,258.76733,84,85,0
258.04153,258.76733,96,102,0
258.76733,259.73508,72,55,0
258.76733,259.73508,84,65,0
259.73508,259.98825,68,62,0
259.73508,259.98825,80,62,0
259.98825,260.22824,79,65,0
259.98825,260.22824,67,55,0
260.22824,260.4654,64,48,0
260.22824,260.4654,76,57,0
260.4654,260.70255,73,57,0
260.4654,260.70255,61,48,0
260.70255,260.9515,60,47,0
260.70255,260.9515,72,56,0
260.95358,261.19553,72,78,0
260.95358,261.19553,60,66,0
261.43747,261.6794,84,89,0
261.43747,261.6794,72,75,0
261.9294,262.6552,96,102,0
261.9294,262.6552,84,85,0
262.6552,263.62296,72,55,0
262.6552,263.62296,84,65,0
263.62296,263.8761,80,62,0
263.62296,263.8761,68,62,0
263.8761,264.11612,65,55,0
263.8761,264.11612,77,65,0
264.11612,264.3561,62,48,0
264.11612,264.3561,74,57,0
264.3561,264.5961,59,48,0
264.3561,264.5961,71,57,0
264.5961,264.84717,58,47,0
264.5961,264.84717,70,56,0
264.84717,265.08908,58,66,0
264.84717,265.08908,70,78,0
265.33005,265.571,82,89,0
265.33005,265.571,70,75,0
265.821,266.5468,82,85,0
265.821,266.5468,94,102,0
266.5468,267.51456,70,55,0
266.5468,267.51456,82,65,0
267.51456,267.76773,78,62,0
267.51456,267.76773,66,62,0
267.76773,268.00772,77,65,0
267.76773,268.00772,65,55,0
268.00772,268.24582,62,48,0
268.00772,268.24582,74,57,0
268.24582,268.48392,71,57,0
268.24582,268.48392,59,48,0
268.48392,268.73288,58,47,0
268.48392,268.73288,70,56,0
268.73495,268.9769,58,66,0
268.73495,268.9769,70,78,0
269.21884,269.46475,70,75,0
269.21884,269.46475,82,89,0
269.7245,269.99844,94,90,0
269.7245,269.99844,82,78,0
270.27243,270.5595,95,103,0
270.27243,270.5595,83,86,0
270.8466,271.80658,71,55,0
271.80658,272.77045,70,50,0
272.77045,273.00854,68,48,0
274.6945,275.6431,72,55,0
275.6431,276.61084,70,50,0
276.61084,276.84894,69,48,0
278.52707,279.4757,77,55,0
279.4757,280.44345,75,50,0
280.44345,280.68344,74,48,0
282.36343,283.31583,82,60,0
282.36343,283.31583,70,51,0
283.31583,284.28357,80,61,0
283.31583,284.28357,68,52,0
284.28357,285.72055,79,70,0
284.28357,285.72055,67,59,0
285.72055,285.9487,80,45,0
285.72055,285.9487,68,38,0
285.9487,286.2073,77,40,0
285.9487,286.2073,65,34,0
286.2073,287.16107,79,47,0
286.2073,287.16107,75,39,0
287.16107,288.11954,77,48,0
287.16107,288.11954,70,40,0
288.11954,288.59763,75,48,0
288.11954,288.59763,67,40,0
288.59763,288.83667,72,42,0
288.59763,288.83667,68,35,0
288.83667,289.0737,67,34,0
288.83667,289.0737,70,41,0
289.0757,289.31644,70,46,0
289.0757,289.31644,67,39,0
289.31644,289.55948,68,40,0
289.31644,289.55948,65,34,0
289.55948,289.80515,67,40,0
289.55948,289.80515,63,34,0
289.80515,290.05322,65,40,0
289.80515,290.05322,58,34,0
290.05322,290.17133,63,42,0
290.17133,290.28946,58,36,0
290.28946,290.40573,60,36,0
290.40573,290.522,58,36,0
290.522,290.63828,57,42,0
290.63828,290.75458,58,36,0
290.75458,290.87177,67,36,0
290.87177,290.9978,63,36,0
290.9978,291.11545,62,42,0
291.11545,291.2331,63,36,0
291.2331,291.34937,65,36,0
291.34937,291.46567,67,36,0
291.46567,291.58194,68,42,0
291.58194,291.6982,69,37,0
291.6982,291.81494,72,37,0
291.81494,291.941,70,37,0
291.941,292.05865,69,42,0
292.05865,292.1763,70,35,0
292.1763,292.2921,72,35,0
292.2921,292.40796,70,35,0
292.40796,292.52423,69,42,0
292.52423,292.6405,70,35,0
292.6405,292.75677,79,35,0
292.75677,292.88336,75,35,0
292.88336,293.00146,74,47,0
293.00146,293.1196,75,40,0
293.1196,293.2368,77,40,0
293.2368,293.35397,79,40,0
293.35397,293.47116,80,48,0
293.47116,293.58835,81,39,0
293.58835,293.70554,84,39,0
293.70554,293.83212,82,39,0
293.83212,293.95023,81,46,0
293.95023,294.06833,82,38,0
294.06833,294.18597,84,39,0
294.18597,294.30362,82,39,0
294.30362,294.42126,81,48,0
294.42126,294.5389,82,40,0
294.5389,294.65656,91,41,0
294.65656,294.78314,87,41,0
294.78314,294.90125,86,57,0
294.90125,295.01938,87,50,0
295.01938,295.13748,89,50,0
295.13748,295.25558,91,51,0
295.25558,295.37512,92,61,0
295.37512,295.49463,93,50,0
295.49463,295.61658,96,50,0
295.61658,295.7517,94,51,0
295.7517,295.87125,93,63,0
295.87125,295.99075,94,54,0
295.99075,296.1103,92,53,0
296.1103,296.23373,91,53,0
296.23373,296.35327,89,60,0
296.35327,296.47278,87,51,0
296.47278,296.59232,86,51,0
296.59232,296.72162,84,50,0
296.72162,296.8416,82,59,0
296.8416,296.9616,80,45,0
296.9616,297.0797,79,45,0
297.0797,297.19785,77,45,0
297.19785,297.31595,75,52,0
297.31595,297.43405,74,47,0
297.43405,297.55215,77,43,0
297.55215,297.6917,80,41,0
297.6917,298.64044,79,47,0
297.6917,298.64044,75,39,0
298.64044,299.6017,77,48,0
298.64044,299.6017,70,40,0
299.6017,300.0798,75,48,0
299.6017,300.0798,67,40,0
300.0798,300.31885,72,42,0
300.0798,300.31885,68,35,0
300.31885,300.5559,67,34,0
300.31885,300.5559,70,41,0
300.5579,300.79865,70,46,0
300.5579,300.79865,67,39,0
300.79865,301.0417,68,40,0
300.79865,301.0417,65,34,0
301.0417,301.28735,67,40,0
301.0417,301.28735,63,34,0
301.28735,301.53543,65,40,0
301.28735,301.53543,58,34,0
301.53543,301.65353,63,42,0
301.65353,301.77164,58,36,0
301.77164,301.88837,60,36,0
301.88837,302.00513,58,36,0
302.00513,302.12186,57,42,0
302.12186,302.2386,58,36,0
302.2386,302.35532,67,36,0
302.35532,302.48135,63,36,0
302.48135,302.599,62,42,0
302.599,302.71664,63,36,0
302.71664,302.83383,65,36,0
302.83383,302.95102,67,36,0
302.95102,303.0682,68,42,0
303.0682,303.1854,69,37,0
303.1854,303.30258,72,37,0
303.30258,303.42865,70,37,0
303.42865,303.5463,69,42,0
303.5463,303.66394,70,35,0
303.66394,303.78067,72,35,0
303.78067,303.8974,70,35,0
303.8974,304.01413,69,42,0
304.01413,304.13086,70,37,0
304.13086,304.24805,79,37,0
304.24805,304.37463,75,37,0
304.37463,304.49274,74,51,0
304.49274,304.61084,75,42,0
304.61084,304.72757,77,42,0
304.72757,304.8443,79,42,0
304.8443,304.96106,80,51,0
304.96106,305.0778,81,43,0
305.0778,305.19452,84,42,0
305.19452,305.32108,82,42,0
305.32108,305.4392,81,53,0
305.4392,305.5573,82,44,0
305.5573,305.67404,84,45,0
305.67404,305.79077,82,46,0
305.79077,305.9075,81,54,0
305.9075,306.02423,82,45,0
306.02423,306.14096,91,47,0
306.14096,306.26755,87,47,0
306.26755,306.38565,86,57,0
306.38565,306.50378,87,50,0
306.50378,306.6219,89,50,0
306.6219,306.74,91,51,0
306.74,306.85953,92,65,0
306.85953,306.97903,93,52,0
306.97903,307.10098,96,54,0
307.10098,307.23386,94,51,0
307.2361,307.35565,94,73,0
307.35565,307.47516,70,47,0
307.47516,307.5947,72,47,0
307.5947,307.71814,70,47,0
307.71814,307.83768,69,56,0
307.83768,307.95718,70,41,0
307.95718,308.07672,79,42,0
308.07672,308.20602,75,44,0
308.20602,308.32602,74,59,0
308.32602,308.446,75,48,0
308.446,308.566,77,45,0
308.566,308.68604,79,42,0
308.68604,308.80414,80,54,0
308.80414,308.92224,81,41,0
308.92224,309.04034,84,41,0
309.04034,309.15845,82,41,0
309.15845,309.27798,82,60,0
309.27798,309.3975,58,39,0
309.3975,309.51703,60,36,0
309.51703,309.64047,58,36,0
309.64047,309.76,57,45,0
309.76,309.87952,58,34,0
309.87952,309.99905,67,34,0
309.99905,310.12836,63,37,0
310.12836,310.24835,57,50,0
310.24835,310.36835,58,37,0
310.36835,310.48837,68,35,0
310.48837,310.60916,65,35,0
310.60916,310.73615,62,45,0
310.73615,310.86813,72,39,0
310.86813,311.00558,70,39,0
311.00558,311.14893,62,39,0
311.14893,312.11288,63,55,0
312.11288,313.06152,58,50,0
313.06152,313.3015,55,48,0
314.99316,315.93805,67,55,0
314.99316,315.93805,63,46,0
315.93805,316.89423,58,42,0
315.93805,316.89423,65,50,0
316.89423,317.13327,55,40,0
316.89423,317.13327,63,48,0
318.56754,318.80658,67,39,0
318.56754,318.80658,63,31,0
318.80658,319.75815,65,52,0
318.80658,319.75815,58,42,0
319.75815,319.9953,63,46,0
319.75815,319.9953,55,37,0
320.4696,320.71057,79,39,0
320.4696,320.71057,75,31,0
320.71057,321.663,77,46,0
320.71057,321.663,70,44,0
321.663,321.9011,75,39,0
321.663,321.9011,67,33,0
322.3773,322.6202,91,45,0
322.3773,322.6202,87,37,0
322.85925,323.09454,91,49,0
322.85925,323.09454,87,41,0
323.09454,323.32983,89,53,0
323.09454,323.32983,82,45,0
323.32983,323.5747,79,42,0
323.32983,323.5747,87,50,0
323.57675,323.8138,79,41,0
323.57675,323.8158,87,49,0
324.76935,325.00464,67,45,0
324.76935,325.00464,63,38,0
325.00464,325.23993,65,49,0
325.00464,325.23993,58,41,0
325.23993,325.4808,55,39,0
325.23993,325.4808,63,46,0
325.48285,325.72083,55,38,0
325.48285,325.72284,63,45,0
326.44424,326.91754,53,43,0
326.44424,327.15573,58,51,0
327.15573,327.27768,55,55,0
327.15573,327.27768,51,46,0
327.39963,327.87292,53,48,0
327.39963,328.1111,58,57,0
328.1111,328.23407,55,62,0
328.1111,328.23407,51,52,0
328.35703,328.83032,53,53,0
328.35703,329.0685,58,63,0
329.0685,329.19046,55,67,0
329.0685,329.19046,51,56,0
329.3124,330.0239,58,70,0
329.3124,330.0239,53,59,0
329.3124,330.0239,50,59,0
330.0239,330.142,56,63,0
330.0239,330.142,53,63,0
330.0239,330.142,62,75,0
330.27774,330.51678,63,41,0
330.27774,330.51678,55,41,0
332.19006,332.3091,63,41,0
332.3091,332.42816,65,35,0
332.42816,332.54703,63,35,0
332.54703,332.66562,62,35,0
332.66562,332.7842,63,41,0
332.7842,332.9025,65,37,0
332.9025,333.0206,67,37,0
333.0206,333.13873,68,37,0
333.13873,333.25644,70,46,0
333.25644,333.37408,72,40,0
333.37408,333.49173,74,41,0
333.49173,333.60938,75,43,0
333.60938,333.72702,77,44,0
333.72702,333.84467,79,45,0
333.84467,333.96234,80,47,0
333.96234,334.08005,82,48,0
334.08005,334.23816,84,55,0
334.23816,334.39563,86,48,0
334.39563,334.5525,87,49,0
334.5525,334.67014,89,51,0
334.67014,334.78778,91,54,0
334.78778,334.90958,92,58,0
334.90958,335.03152,94,61,0
335.03152,335.50595,96,64,0
335.50595,335.74313,94,52,0
335.98703,336.1056,87,57,0
336.1056,336.22418,89,42,0
336.22418,336.34137,87,43,0
336.34137,336.45856,86,45,0
336.45856,336.5523,87,47,0
336.5523,336.64606,89,48,0
336.64606,336.74152,91,49,0
336.74152,336.83868,92,51,0
336.83868,336.93585,94,52,0
336.93585,337.41016,96,62,0
337.41016,337.6473,94,48,0
337.88925,338.0083,87,65,0
338.0083,338.12732,89,50,0
338.12732,338.245,87,54,0
338.245,338.36264,86,58,0
338.36264,338.45676,87,62,0
338.45676,338.55087,89,64,0
338.55087,338.64612,91,67,0
338.64612,338.7425,92,71,0
338.7425,338.8389,94,74,0
338.8389,339.79126,96,77,0
338.8389,339.79126,84,77,0
339.79126,340.03223,94,68,0
339.79126,340.03223,82,68,0
340.75513,340.87463,62,93,0
340.75513,340.87463,53,79,0
340.75513,340.87463,56,79,0
340.75513,340.87463,58,79,0
341.7113,341.8308,63,93,0
341.7113,341.8308,58,79,0
341.7113,341.8308,55,79,0
3.519004,6.0038185,48,32,0
3.519004,6.0038185,36,27,0
6.0038185,6.83209,51,32,0
6.0038185,6.83209,48,27,0
6.83209,7.653459,52,33,0
6.83209,7.653459,46,28,0
7.6603613,8.48173,52,34,0
7.6603613,8.48173,46,28,0
8.488633,9.316904,53,36,0
8.488633,9.316904,45,30,0
9.316904,10.087337,44,32,0
9.316904,10.087337,54,38,0
10.087337,10.970989,55,40,0
10.970989,11.83912,57,26,0
11.83912,12.647093,59,29,0
10.087337,12.647093,43,34,0
13.508413,14.392065,67,44,0
14.392065,15.260197,69,37,0
15.260197,16.168186,71,33,0
13.508413,16.168186,55,44,0
16.168186,17.158285,67,24,0
16.168186,17.158285,70,33,0
17.158285,18.13358,65,45,0
17.158285,18.13358,68,45,0
18.13358,19.029367,67,46,0
18.13358,19.029367,63,39,0
19.029367,19.950178,65,51,0
19.029367,19.950178,62,43,0
17.158285,19.950178,70,53,0
19.950178,21.048414,58,39,0
19.950178,21.048414,62,46,0
22.725798,24.56742,34,27,0
22.725798,24.56742,46,32,0
24.56742,27.052233,47,32,0
24.56742,27.052233,35,27,0
27.052233,27.880505,54,32,0
27.052233,27.880505,47,27,0
27.880505,28.701874,49,28,0
27.880505,28.701874,54,33,0
28.708776,29.530146,49,28,0
28.708776,29.530146,54,34,0
29.537048,30.358418,54,36,0
29.537048,30.358418,47,30,0
30.365318,31.135752,46,32,0
30.365318,32.019405,54,38,0
32.019405,32.887535,53,34,0
31.135752,32.887535,45,40,0
32.887535,33.695507,46,25,0
32.887535,33.695507,53,30,0
33.695507,34.46594,44,32,0
33.695507,35.34959,52,38,0
35.34959,36.217724,51,34,0
34.46594,36.217724,43,40,0
36.217724,37.133472,44,25,0
36.217724,37.133472,51,30,0
37.133472,38.049225,46,26,0
37.133472,38.049225,42,26,0
37.133472,38.049225,54,31,0
38.049225,38.91678,53,32,0
38.049225,38.91678,46,27,0
38.049225,38.91678,41,27,0
40.21811,40.64827,41,28,0
40.21811,40.64827,53,40,0
40.21811,40.64827,46,34,0
40.651886,41.082047,51,40,0
40.651886,41.082047,46,34,0
40.651886,41.082047,39,28,0
41.085663,41.588535,51,34,0
41.085663,41.588535,39,23,0
41.085663,41.588535,46,28,0
41.592762,42.448925,38,33,0
41.592762,42.448925,50,47,0
41.592762,42.448925,46,39,0
43.733173,44.163334,68,40,0
43.733173,44.163334,65,34,0
44.16695,44.59711,63,34,0
44.16695,44.59711,66,40,0
44.600727,45.1036,63,28,0
44.600727,45.1036,66,34,0
45.107826,45.96399,65,47,0
45.107826,45.96399,62,39,0
47.248238,47.6784,62,37,0
47.248238,47.6784,65,44,0
47.682014,48.112175,61,39,0
47.682014,48.112175,63,46,0
48.11579,48.576176,63,40,0
48.11579,48.576176,59,33,0
48.580044,49.436207,63,47,0
48.580044,49.436207,59,39,0
50.720455,51.150616,65,44,0
50.720455,51.150616,62,37,0
51.154232,51.584393,63,46,0
51.154232,51.584393,61,39,0
51.58801,52.048393,63,40,0
51.58801,52.048393,60,33,0
52.908424,53.764587,63,37,0
52.908424,53.764587,60,31,0
54.620754,55.476917,60,31,0
54.620754,55.476917,63,37,0
55.476917,56.20566,60,64,0
55.476917,56.20566,63,77,0
56.20566,56.312805,59,51,0
56.20566,56.312805,62,60,0
56.312805,56.374535,58,50,0
56.312805,56.374535,61,59,0
56.436264,56.680164,61,67,0
56.436264,56.680164,58,56,0
56.680164,56.78655,60,60,0
56.680164,56.78655,57,51,0
56.78655,56.84879,59,59,0
56.78655,56.84879,56,50,0
56.91103,57.154934,59,67,0
56.91103,57.154934,56,56,0
57.154934,57.261314,55,51,0
57.154934,57.261314,58,60,0
57.261314,57.325417,57,59,0
57.261314,57.325417,54,50,0
57.38952,58.13036,53,56,0
57.38952,58.13036,56,67,0
58.13036,58.373276,51,38,0
58.13036,58.373276,55,45,0
58.373276,58.61619,53,48,0
58.373276,58.61619,50,40,0
58.61619,58.859104,51,50,0
58.61619,58.859104,48,42,0
58.859104,59.105007,50,53,0
58.859104,59.105007,46,45,0
59.105007,59.361416,50,47,0
59.105007,59.361416,46,47,0
59.105007,59.361416,53,56,0
59.361416,59.482384,39,56,0
59.482384,59.60335,46,40,0
59.60335,59.72432,55,40,0
59.72432,59.845287,46,40,0
59.845287,59.966255,39,54,0
59.966255,60.087223,46,44,0
60.087223,60.212223,55,43,0
60.212223,60.337223,46,43,0
60.337223,60.45819,41,58,0
60.45819,60.57916,46,49,0
60.57916,60.700127,56,49,0
60.700127,60.821095,46,47,0
60.821095,60.942062,41,53,0
60.942062,61.06303,46,44,0
61.06303,61.184,56,44,0
61.184,61.304966,46,44,0
61.304966,61.425934,43,53,0
61.425934,61.5469,46,43,0
61.5469,61.66787,58,43,0
61.66787,61.788837,46,43,0
61.788837,61.909805,43,53,0
61.909805,62.030773,46,43,0
62.030773,62.157356,58,43,0
62.157356,62.283936,46,43,0
62.283936,62.40394,44,53,0
62.40394,62.523937,46,44,0
62.523937,62.643936,56,44,0
62.643936,62.763935,46,44,0
62.763935,62.883938,34,53,0
62.883938,63.003937,46,46,0
63.003937,63.12946,53,46,0
63.12946,63.254982,46,46,0
63.254982,63.37595,39,56,0
63.37595,63.496918,46,40,0
63.496918,63.617886,55,40,0
63.617886,63.738853,46,40,0
63.738853,63.85982,39,54,0
63.85982,63.98079,46,44,0
63.98079,64.10579,55,43,0
64.10579,64.23079,46,43,0
64.23079,64.35175,41,58,0
64.35175,64.472725,46,49,0
64.472725,64.59369,56,49,0
64.59369,64.71466,46,47,0
64.71466,64.835625,41,53,0
64.835625,64.9566,46,44,0
64.9566,65.07756,56,44,0
65.07756,65.19853,46,44,0
65.19853,65.319496,43,53,0
65.319496,65.44047,51,43,0
65.44047,65.56143,58,43,0
65.56143,65.6824,51,43,0
65.6824,65.80337,43,53,0
65.80337,65.92434,51,43,0
65.92434,66.05092,58,43,0
66.05092,66.177505,51,43,0
66.177505,66.2975,44,53,0
66.2975,66.4175,51,44,0
66.4175,66.537506,60,44,0
66.537506,66.6575,51,44,0
66.6575,66.777504,45,53,0
66.777504,66.8975,53,46,0
66.8975,67.023026,60,46,0
67.023026,67.14855,53,46,0
67.14855,67.39504,58,52,0
67.14855,67.39504,46,52,0
67.39504,67.51601,63,46,0
67.51601,67.63698,62,49,0
67.63698,67.75794,60,48,0
67.75794,67.87891,58,47,0
67.87891,67.99988,57,46,0
67.99988,68.12863,56,45,0
68.12863,68.25363,55,44,0
68.25363,68.37863,53,43,0
68.37863,68.50363,51,42,0
68.50363,68.62851,50,41,0
68.62851,68.75048,51,40,0
68.75048,68.87295,53,42,0
68.87295,68.99592,55,44,0
68.99592,69.1194,56,46,0
69.1194,69.36733,58,48,0
69.36733,69.4913,60,42,0
69.4913,69.615265,62,46,0
69.615265,69.737236,63,44,0
69.737236,69.85971,65,46,0
69.85971,69.98268,67,48,0
69.98268,70.106155,68,50,0
70.106155,70.35409,70,57,0
70.35409,70.47569,68,46,0
70.47569,70.59715,67,53,0
70.59715,70.71908,65,52,0
70.71908,70.84103,63,51,0
70.84103,70.93283,62,50,0
70.96345,71.05528,60,49,0
71.0859,71.177734,59,47,0
71.20834,71.299965,57,48,0
71.33045,71.42188,55,51,0
71.45225,71.543335,53,55,0
71.5737,71.66446,51,59,0
71.694695,71.78512,50,62,0
71.81521,71.90625,48,66,0
71.9369,72.029594,48,69,0
71.9369,72.029594,46,58,0
72.060814,72.185814,46,61,0
72.060814,72.185814,48,72,0
72.560814,72.702995,45,63,0
72.560814,72.702995,48,75,0
73.12953,73.87334,42,71,0
73.87334,74.00209,41,71,0
74.130844,75.1389,39,80,0
73.12953,75.1389,48,65,0
75.1389,75.8827,42,71,0
75.8827,76.01145,41,71,0
76.14021,77.15258,40,80,0
75.1389,77.15258,48,65,0
77.15258,77.39748,41,40,0
77.15258,77.39748,48,48,0
78.162926,78.40783,41,40,0
78.162926,78.40783,50,48,0
79.17328,79.41818,51,48,0
79.17328,79.41818,41,40,0
79.68084,79.925735,50,48,0
79.68084,79.925735,41,40,0
80.18908,80.433975,48,48,0
80.18908,80.433975,41,40,0
80.69597,80.940865,50,48,0
80.69597,80.940865,41,40,0
81.20489,81.44978,41,40,0
81.20489,81.44978,48,48,0
82.21524,82.46014,41,40,0
82.21524,82.46014,50,48,0
83.22559,83.47049,51,48,0
83.22559,83.47049,41,40,0
83.733154,83.97805,50,48,0
83.733154,83.97805,41,40,0
84.24139,84.48629,41,40,0
84.24139,84.48629,51,48,0
84.748276,84.99318,53,48,0
84.99318,85.113655,55,38,0
85.113655,85.24466,57,40,0
85.24466,85.37071,58,42,0
85.37071,85.50172,60,44,0
85.50172,85.63272,62,46,0
85.63272,85.76203,63,48,0
85.76203,86.01308,65,50,0
86.01308,86.13356,67,38,0
86.13356,86.264565,69,40,0
86.264565,86.39062,70,42,0
86.39062,86.52162,72,44,0
86.52162,86.652626,74,46,0
86.652626,86.78194,75,48,0
86.78194,87.03298,77,50,0
87.03298,87.28446,75,47,0
87.28446,87.54152,74,56,0
87.54152,87.801834,73,46,0
87.801834,88.05288,72,55,0
88.05288,88.303925,65,47,0
88.54883,89.05092,64,39,0
88.54883,89.05092,61,39,0
89.05092,89.30954,65,39,0
89.05092,89.30954,62,39,0
88.303925,89.30954,58,39,0
89.55245,90.05454,69,39,0
89.55245,90.05454,66,39,0
90.05454,90.314285,65,39,0
89.30954,90.314285,58,39,0
90.564285,90.814285,65,39,0
90.564285,90.814285,62,33,0
90.814285,91.06019,67,39,0
90.814285,91.06019,63,33,0
91.06019,91.31588,65,39,0
91.06019,91.31588,62,30,0
90.314285,91.31588,58,39,0
91.31588,91.56381,62,39,0
91.56381,91.81486,60,33,0
91.56381,91.81486,63,39,0
91.81486,92.06802,62,39,0
91.81486,92.06802,58,33,0
92.06802,92.33003,57,30,0
92.06802,92.33003,60,39,0
91.31588,92.33003,53,39,0
92.57493,93.07703,52,35,0
92.57493,93.07703,49,35,0
93.07703,93.33564,50,35,0
93.07703,93.33564,53,35,0
92.33003,93.33564,46,35,0
93.57856,94.08065,57,35,0
93.57856,94.08065,54,35,0
94.08065,94.34039,53,35,0
93.33564,94.34039,46,35,0
94.59039,94.84039,53,35,0
94.59039,94.84039,50,29,0
94.84039,95.086296,51,29,0
94.84039,95.086296,55,35,0
95.086296,95.34199,53,35,0
95.086296,95.34199,50,27,0
94.34039,95.34199,46,35,0
95.34199,95.58992,50,35,0
95.58992,95.840965,51,35,0
95.58992,95.840965,48,29,0
95.840965,96.09413,50,35,0
95.840965,96.09413,46,29,0
96.09413,96.35614,48,35,0
96.09413,96.35614,45,27,0
95.34199,96.35614,41,35,0
96.35614,96.73819,34,43,0
96.35614,96.73819,46,43,0
96.73819,96.863716,42,39,0
96.863716,97.11476,41,45,0
97.11476,97.371284,34,38,0
97.371284,97.62233,29,55,0
97.62233,97.747856,51,44,0
97.747856,97.873375,50,36,0
97.371284,97.873375,53,47,0
97.873375,97.99435,48,43,0
97.99435,98.11531,46,39,0
98.11531,98.23628,41,39,0
98.11531,98.23628,45,39,0
98.23628,98.37846,53,39,0
98.37846,98.76051,46,43,0
98.76051,98.88603,54,39,0
98.88603,99.13708,53,45,0
99.13708,99.39361,46,38,0
99.39361,99.64465,41,55,0
99.64465,99.77018,63,44,0
99.77018,99.8957,62,36,0
99.8957,100.01667,60,43,0
100.01667,100.137634,58,39,0
100.137634,100.258606,53,39,0
100.137634,100.258606,57,39,0
100.258606,100.40146,60,39,0
100.40146,100.77243,62,39,0
100.40146,100.77243,58,39,0
100.77243,100.89743,60,33,0
100.89743,101.26588,58,39,0
101.26588,101.39036,55,34,0
101.39036,101.76078,53,39,0
101.76078,101.88423,51,35,0
101.88423,102.25461,50,39,0
102.25461,102.3746,48,33,0
102.3746,102.7496,46,39,0
102.7496,102.869606,43,31,0
102.869606,103.239975,41,39,0
103.239975,103.35998,39,34,0
103.35998,103.72883,38,39,0
103.72883,103.84882,36,35,0
103.84882,104.24239,34,39,0
104.24239,104.40543,65,30,0
104.24239,104.40543,68,37,0
104.40543,105.41809,68,42,0
104.40543,105.41809,65,36,0
105.41809,106.448135,67,42,0
105.41809,106.448135,63,36,0
106.448135,107.47818,65,42,0
106.448135,107.47818,62,36,0
107.47818,108.58929,61,36,0
107.47818,108.58929,63,42,0
108.58929,109.31803,60,64,0
108.58929,109.31803,63,77,0
109.31803,109.42518,62,60,0
109.31803,109.42518,59,51,0
109.42518,109.48691,61,59,0
109.42518,109.48691,58,50,0
109.54864,109.792534,61,67,0
109.54864,109.792534,58,56,0
109.792534,109.89892,60,60,0
109.792534,109.89892,57,51,0
109.89892,109.96116,56,50,0
109.89892,109.96116,59,59,0
110.0234,110.2673,59,67,0
110.0234,110.2673,56,56,0
110.2673,110.37369,58,60,0
110.2673,110.37369,55,51,0
110.37369,110.43779,57,59,0
110.37369,110.43779,54,50,0
110.50189,111.24273,53,56,0
110.50189,111.24273,56,67,0
111.24273,111.48565,55,45,0
111.24273,111.48565,51,38,0
111.48565,111.72856,50,40,0
111.48565,111.72856,53,48,0
111.72856,111.97147,51,50,0
111.72856,111.97147,48,42,0
111.97147,112.21738,50,53,0
111.97147,112.21738,46,45,0
112.21738,112.473785,46,47,0
112.21738,112.473785,50,47,0
112.21738,112.473785,53,56,0
112.473785,112.59476,39,56,0
112.59476,112.71572,46,40,0
112.71572,112.83669,55,40,0
112.83669,112.95766,46,40,0
112.95766,113.07863,39,54,0
113.07863,113.19959,46,44,0
113.19959,113.32459,55,43,0
113.32459,113.44959,46,43,0
113.44959,113.570564,41,58,0
113.570564,113.69153,46,49,0
113.69153,113.8125,56,49,0
113.8125,113.933464,46,47,0
113.933464,114.054436,41,53,0
114.054436,114.1754,46,44,0
114.1754,114.29637,56,44,0
114.29637,114.417336,46,44,0
114.417336,114.53831,43,53,0
114.53831,114.65927,46,43,0
114.65927,114.78024,58,43,0
114.78024,114.90121,46,43,0
114.90121,115.02218,43,53,0
115.02218,115.14314,46,43,0
115.14314,115.26972,58,43,0
115.26972,115.39631,46,43,0
115.39631,115.51631,44,53,0
115.51631,115.63631,46,44,0
115.63631,115.75631,56,44,0
115.75631,115.876305,46,44,0
115.876305,115.99631,34,53,0
115.99631,116.11631,46,46,0
116.11631,116.24183,53,46,0
116.24183,116.367355,46,46,0
116.367355,116.48832,39,56,0
116.48832,116.60929,46,40,0
116.60929,116.72985,55,40,0
116.72985,116.84959,46,40,0
116.84959,116.96933,39,54,0
116.96933,117.08907,46,44,0
117.08907,117.21407,55,43,0
117.21407,117.33907,46,43,0
117.33907,117.46004,41,58,0
117.46004,117.58101,46,49,0
117.58101,117.70197,56,49,0
117.70197,117.822945,46,47,0
117.822945,117.94391,41,53,0
117.94391,118.06488,46,44,0
118.06488,118.185844,56,44,0
118.185844,118.306816,46,44,0
118.306816,118.427376,43,53,0
118.427376,118.54711,51,43,0
118.54711,118.666855,58,43,0
118.666855,118.7866,51,43,0
118.7866,118.90634,43,53,0
118.90634,119.02608,51,43,0
119.02608,119.152664,58,43,0
119.152664,119.27924,51,43,0
119.27924,119.39925,44,53,0
119.39925,119.51924,51,44,0
119.51924,119.639244,60,44,0
119.639244,119.75925,51,44,0
119.75925,119.87924,45,53,0
119.87924,119.999245,53,46,0
119.999245,120.12476,60,46,0
120.12476,120.25029,53,46,0
120.25029,120.49678,58,52,0
120.25029,120.49678,46,52,0
120.49678,120.61652,63,46,0
120.61652,120.73626,62,49,0
120.73626,120.856,60,48,0
120.856,120.975746,58,47,0
120.975746,121.09549,57,46,0
121.09549,121.22424,56,45,0
121.22424,121.34924,55,44,0
121.34924,121.47424,53,43,0
121.47424,121.59924,51,42,0
121.59924,121.72411,50,41,0
121.72411,121.84458,51,40,0
121.84458,121.96503,53,42,0
121.96503,122.085754,55,44,0
122.085754,122.20695,56,46,0
122.20695,122.45015,58,48,0
122.45015,122.57183,60,42,0
122.57183,122.69352,62,46,0
122.69352,122.81549,63,44,0
122.81549,122.93796,65,46,0
122.93796,123.06093,67,48,0
123.06093,123.18441,68,50,0
123.18441,123.4321,70,57,0
123.4321,123.55184,68,46,0
123.55184,123.67199,67,53,0
123.67199,123.792534,65,52,0
123.792534,123.91356,63,51,0
123.91356,124.004555,62,50,0
124.03497,124.12634,60,49,0
124.156906,124.24874,59,47,0
124.27935,124.37097,57,48,0
124.40146,124.49289,55,51,0
124.523254,124.61435,53,55,0
124.644714,124.735466,51,59,0
124.76571,124.856125,50,62,0
124.886215,124.97726,48,66,0
125.007904,125.1006,48,69,0
125.007904,125.1006,46,58,0
125.13182,125.25682,48,72,0
125.13182,125.25682,46,61,0
125.63182,125.774,45,63,0
125.63182,125.774,48,75,0
126.20054,126.94434,42,71,0
126.94434,127.0731,41,71,0
127.20185,128.20625,39,80,0
126.20054,128.20625,48,65,0
128.20625,128.95006,42,71,0
128.95006,129.07881,41,71,0
129.20757,130.21771,40,80,0
128.20625,130.21771,48,65,0
130.21771,130.46262,48,48,0
130.21771,130.46262,41,40,0
131.22807,131.47296,50,48,0
131.22807,131.47296,41,40,0
132.23842,132.48332,41,40,0
132.23842,132.48332,51,48,0
132.7443,132.98918,50,48,0
132.7443,132.98918,41,40,0
133.25037,133.49527,48,48,0
133.25037,133.49527,41,40,0
133.75726,134.00215,50,48,0
133.75726,134.00215,41,40,0
134.2645,134.50938,48,48,0
134.2645,134.50938,41,40,0
135.27484,135.51974,50,48,0
135.27484,135.51974,41,40,0
136.28012,136.52502,51,48,0
136.28012,136.52502,41,40,0
136.78769,137.03258,50,48,0
136.78769,137.03258,41,40,0
137.29518,137.54008,41,40,0
137.29518,137.54008,51,48,0
137.80922,138.054,53,48,0
138.04697,138.16745,55,38,0
138.16745,138.29846,57,40,0
138.29846,138.4245,58,42,0
138.4245,138.55551,60,44,0
138.55551,138.68651,62,46,0
138.68651,138.81583,63,48,0
138.81583,139.06686,65,50,0
139.06686,139.18735,67,38,0
139.18735,139.31836,69,40,0
139.31836,139.44441,70,42,0
139.44441,139.57541,72,44,0
139.57541,139.70642,74,46,0
139.70642,139.83572,75,48,0
139.83572,140.08678,77,50,0
140.08678,140.33826,75,47,0
140.33826,140.5953,74,56,0
140.5953,140.85562,73,46,0
140.85562,141.10667,72,55,0
141.10667,141.35773,65,47,0
141.60262,142.1047,61,39,0
141.60262,142.1047,64,39,0
142.1047,142.36333,65,39,0
142.1047,142.36333,62,39,0
141.35773,142.36333,58,39,0
142.60625,143.10834,69,39,0
142.60625,143.10834,66,39,0
143.10834,143.36807,65,39,0
142.36333,143.36807,58,39,0
143.61807,143.86807,65,39,0
143.61807,143.86807,62,33,0
143.86807,144.11398,63,33,0
143.86807,144.11398,67,39,0
144.11398,144.36967,62,30,0
144.11398,144.36967,65,39,0
143.36807,144.36967,58,39,0
144.36967,144.61761,62,39,0
144.61761,144.86865,60,33,0
144.61761,144.86865,63,39,0
144.86865,145.12181,62,39,0
144.86865,145.12181,58,33,0
145.12181,145.38382,57,30,0
145.12181,145.38382,60,39,0
144.36967,145.38382,53,39,0
145.62872,146.13081,52,35,0
145.62872,146.13081,49,35,0
146.13081,146.38943,53,35,0
146.13081,146.38943,50,35,0
145.38382,146.38943,46,35,0
146.63235,147.13445,57,35,0
146.63235,147.13445,54,35,0
147.13445,147.39418,53,35,0
146.38943,147.39418,46,35,0
147.64418,147.89418,50,29,0
147.64418,147.89418,53,35,0
147.89418,148.14009,51,29,0
147.89418,148.14009,55,35,0
148.14009,148.39578,53,35,0
148.14009,148.39578,50,27,0
147.39418,148.39578,46,35,0
148.39578,148.6437,50,35,0
148.6437,148.89476,48,29,0
148.6437,148.89476,51,35,0
148.89476,149.14792,50,35,0
148.89476,149.14792,46,29,0
149.14792,149.40993,48,35,0
149.14792,149.40993,45,27,0
148.39578,149.40993,41,35,0
149.40993,149.79198,46,43,0
149.40993,149.79198,34,43,0
149.79198,149.91751,42,39,0
149.91751,150.16855,41,45,0
150.16855,150.42508,34,38,0
150.42508,150.67613,29,55,0
150.67613,150.80165,51,44,0
150.80165,150.92717,50,36,0
150.42508,150.92717,53,47,0
150.92717,151.04814,48,43,0
151.04814,151.16911,46,39,0
151.16911,151.29007,45,39,0
151.16911,151.29007,41,39,0
151.29007,151.43225,53,39,0
151.43225,151.8143,46,43,0
151.8143,151.93983,54,39,0
151.93983,152.19087,53,45,0
152.19087,152.4474,46,38,0
152.4474,152.69844,41,55,0
152.69844,152.82397,63,44,0
152.82397,152.9495,62,36,0
152.9495,153.07047,60,43,0
153.07047,153.19142,58,39,0
153.19142,153.3124,57,39,0
153.19142,153.3124,53,39,0
153.3124,153.45525,60,39,0
153.45525,153.82622,58,39,0
153.45525,153.82622,62,39,0
153.82622,153.95122,60,33,0
153.95122,154.31967,58,39,0
154.31967,154.44415,55,34,0
154.44415,154.81458,53,39,0
154.81458,154.93803,51,35,0
154.93803,155.3084,50,39,0
155.3084,155.42839,48,33,0
155.42839,155.80339,46,39,0
155.80339,155.9234,43,31,0
155.9234,156.29376,41,39,0
156.29376,156.41377,39,34,0
156.41377,156.78262,38,39,0
156.78262,156.90262,36,35,0
156.90262,157.29619,34,39,0
157.29619,157.45923,68,37,0
157.29619,157.45923,65,30,0
157.45923,158.4719,65,36,0
157.45923,158.4719,68,42,0
158.4719,159.50192,67,42,0
158.4719,159.50192,63,36,0
159.50192,160.53197,65,42,0
159.50192,160.53197,62,36,0
160.53197,161.56201,60,36,0
160.53197,161.56201,63,42,0
161.56201,162.29076,59,64,0
161.56201,162.29076,62,77,0
162.29076,162.51225,62,60,0
162.29076,162.51225,58,51,0
162.51225,162.75615,60,67,0
162.51225,162.75615,56,56,0
162.97964,163.22356,56,56,0
162.97964,163.22356,59,67,0
163.45076,163.69467,55,52,0
163.45076,163.69467,60,62,0
163.69467,163.92017,54,41,0
163.69467,163.92017,60,49,0
163.92017,164.19923,55,51,0
163.92017,164.19923,53,51,0
163.92017,164.19923,59,61,0
164.19923,164.48494,51,34,0
164.19923,164.48494,60,41,0
164.19923,164.48494,55,34,0
166.68903,166.7887,48,50,0
166.7887,166.8528,54,41,0
166.9169,167.03935,54,48,0
167.16179,167.26349,45,47,0
167.26349,167.3287,51,37,0
167.39392,167.51588,51,48,0
167.63783,167.74164,41,48,0
167.74164,167.80714,48,39,0
167.87263,168.00307,48,48,0
168.13351,168.26282,49,45,0
170.56474,170.66408,62,50,0
170.66408,170.72818,69,41,0
170.79228,170.91473,69,48,0
171.03719,171.13785,54,47,0
171.13785,171.20306,60,37,0
171.26828,171.39024,60,48,0
171.51219,171.61354,50,48,0
171.61354,171.67905,57,39,0
171.74454,171.87498,57,48,0
172.00542,172.13472,38,48,0
172.13472,172.20581,50,39,0
174.44951,174.55052,54,50,0
174.55052,174.61462,63,41,0
174.67873,174.80118,63,48,0
174.92363,175.02498,51,47,0
175.02498,175.0902,59,37,0
175.15541,175.27736,59,48,0
175.39932,175.50136,47,48,0
175.50136,175.56686,54,39,0
175.63235,175.7628,54,48,0
175.89323,176.02254,42,48,0
176.02254,176.08719,51,39,0
178.32446,178.42548,56,50,0
178.42548,178.48958,65,41,0
178.55368,178.67613,65,48,0
178.79857,178.9013,53,47,0
178.9013,178.96654,62,37,0
179.03175,179.1537,62,48,0
179.27565,179.37735,53,48,0
179.27565,179.37735,50,40,0
179.37735,179.44284,56,39,0
179.37735,179.44284,53,33,0
179.50835,179.63878,56,48,0
179.50835,179.63878,53,40,0
179.76923,179.89853,50,40,0
179.76923,179.89853,53,48,0
179.89853,179.96318,56,39,0
179.89853,179.96318,53,33,0
180.27274,180.37308,56,50,0
180.37308,180.43718,65,41,0
180.50128,180.62373,65,48,0
180.74617,180.84685,53,47,0
180.84685,180.91206,62,37,0
180.97728,181.09923,62,48,0
181.22119,181.4601,74,52,0
181.4601,181.72098,75,58,0
181.72098,181.9796,74,52,0
181.9796,182.70834,61,64,0
181.9796,182.70834,67,64,0
181.9796,182.70834,70,77,0
182.70834,182.93419,65,43,0
182.70834,182.93419,59,43,0
182.70834,182.93419,68,43,0
182.93419,183.17809,61,40,0
182.93419,183.17809,58,40,0
182.93419,183.17809,66,48,0
183.17809,183.40392,61,42,0
183.17809,183.40392,56,42,0
183.40392,183.64783,61,42,0
183.40392,183.64783,53,42,0
183.64783,183.89102,54,42,0
183.64783,183.89102,61,42,0
183.89102,184.13896,59,40,0
183.89102,184.13896,63,48,0
184.13896,184.37993,61,40,0
184.13896,184.37993,58,34,0
184.37993,184.62088,56,34,0
184.37993,184.62088,59,40,0
184.62088,184.88637,58,40,0
184.62088,184.88637,54,34,0
185.13127,185.23195,41,50,0
185.23195,185.29605,49,41,0
185.36015,185.48259,49,48,0
185.60504,185.70674,53,47,0
185.70674,185.7765,61,37,0
186.09117,186.19252,41,50,0
186.19252,186.25662,50,41,0
186.32072,186.44318,50,48,0
186.56563,186.66698,53,47,0
186.66698,186.73674,62,37,0
187.0514,187.15242,39,50,0
187.15242,187.21652,48,41,0
187.28062,187.40308,48,47,0
187.52553,187.62756,51,46,0
187.62756,187.69734,60,36,0
188.012,188.11404,38,48,0
188.11404,188.17815,47,39,0
188.24225,188.3647,47,46,0
188.48714,188.59059,50,45,0
188.59059,188.66035,59,35,0
188.97502,189.0757,36,47,0
189.0757,189.1398,48,38,0
189.2039,189.32635,48,45,0
189.4488,189.55261,48,44,0
189.55261,189.62238,60,34,0
189.93704,190.03806,36,46,0
190.03806,190.10216,48,37,0
190.16626,190.2887,48,44,0
190.41115,190.51569,48,42,0
190.51569,190.58545,60,33,0
190.90012,191.00146,36,45,0
191.00146,191.06557,48,36,0
191.12967,191.25212,48,42,0
191.37457,191.47838,48,41,0
191.47838,191.54814,60,32,0
191.86281,191.96281,36,43,0
191.96281,192.02692,48,35,0
192.09102,192.21346,48,41,0
192.3359,192.44044,48,40,0
192.44044,192.51021,60,31,0
192.82487,192.92622,36,42,0
192.92622,192.99033,48,34,0
193.05443,193.17688,48,40,0
193.29933,193.40207,48,39,0
193.40207,193.47183,60,30,0
193.7865,193.88751,36,41,0
193.88751,193.95161,48,33,0
194.01572,194.13817,48,39,0
194.26062,194.36406,48,38,0
194.36406,194.43384,60,29,0
194.74849,194.85124,48,40,0
194.85124,194.91534,60,32,0
194.97945,195.08218,48,37,0
195.08218,195.1434,60,29,0
195.69049,195.7915,47,40,0
195.7915,195.8556,59,32,0
195.91971,196.02245,47,37,0
196.02245,196.08366,59,29,0
196.63075,196.7321,48,40,0
196.7321,196.79622,60,32,0
196.86032,196.96413,48,37,0
196.96413,197.02534,60,29,0
197.57243,197.67482,48,40,0
197.67482,197.73892,60,32,0
197.80302,197.9072,48,37,0
197.9072,197.96841,60,29,0
198.5155,198.61824,48,40,0
198.61824,198.68234,60,32,0
198.74644,198.85025,48,37,0
198.85025,198.91148,60,29,0
198.9727,199.09319,48,40,0
199.09319,199.21367,60,40,0
199.21367,199.33415,48,45,0
199.33415,199.44258,60,48,0
199.45451,199.57378,60,52,0
199.57378,199.69392,63,56,0
199.69392,199.81497,60,59,0
199.81497,199.93687,63,63,0
199.93687,200.05968,60,67,0
200.05968,200.20804,63,70,0
200.22452,200.95326,60,64,0
200.22452,200.95326,63,77,0
200.95326,201.06041,62,60,0
200.95326,201.06041,59,51,0
201.06041,201.12213,58,50,0
201.06041,201.12213,61,59,0
201.18387,201.42776,58,56,0
201.18387,201.42776,61,67,0
201.42776,201.53415,60,60,0
201.42776,201.53415,57,51,0
201.53415,201.59639,59,59,0
201.53415,201.59639,56,50,0
201.65863,201.90253,56,56,0
201.65863,201.90253,59,67,0
201.90253,202.00891,58,60,0
201.90253,202.00891,55,51,0
202.00891,202.07301,54,50,0
202.00891,202.07301,57,59,0
202.13712,202.87796,53,56,0
202.13712,202.87796,56,67,0
202.87796,203.12088,55,45,0
202.87796,203.12088,51,38,0
203.12088,203.36378,53,48,0
203.12088,203.36378,50,40,0
203.36378,203.6067,51,50,0
203.36378,203.6067,48,42,0
203.6067,203.8526,50,53,0
203.6067,203.8526,46,45,0
203.8526,204.10902,50,47,0
203.8526,204.10902,46,47,0
203.8526,204.10902,53,56,0
204.10902,204.22998,39,56,0
204.22998,204.35095,46,40,0
204.35095,204.47192,55,40,0
204.47192,204.5929,46,40,0
204.5929,204.71385,39,54,0
204.71385,204.83482,46,44,0
204.83482,204.95982,55,43,0
204.95982,205.08482,46,43,0
205.08482,205.2058,41,58,0
205.2058,205.32677,46,49,0
205.32677,205.44772,56,49,0
205.44772,205.5687,46,47,0
205.5687,205.68967,41,53,0
205.68967,205.81062,46,44,0
205.81062,205.9316,56,44,0
205.9316,206.05257,46,44,0
206.05257,206.17354,43,53,0
206.17354,206.2945,46,43,0
206.2945,206.41547,58,43,0
206.41547,206.53644,46,43,0
206.53644,206.65741,43,53,0
206.65741,206.77837,46,43,0
206.77837,206.90495,58,43,0
206.90495,207.03154,46,43,0
207.03154,207.15154,44,53,0
207.15154,207.27153,46,44,0
207.27153,207.39154,56,44,0
207.39154,207.51154,46,44,0
207.51154,207.63153,34,53,0
207.63153,207.75154,46,46,0
207.75154,207.87706,53,46,0
207.87706,208.00258,46,46,0
208.00258,208.12355,39,56,0
208.12355,208.24452,46,40,0
208.24452,208.36548,55,40,0
208.36548,208.48645,46,40,0
208.48645,208.60742,39,54,0
208.60742,208.7284,46,44,0
208.7284,208.8534,56,43,0
208.8534,208.9784,46,43,0
208.9784,209.09935,43,58,0
209.09935,209.22032,51,49,0
209.22032,209.3413,58,49,0
209.3413,209.46227,51,47,0
209.46227,209.58322,43,53,0
209.58322,209.7042,51,44,0
209.7042,209.82516,58,44,0
209.82516,209.94614,51,44,0
209.94614,210.0671,43,53,0
210.0671,210.18806,51,43,0
210.18806,210.30904,58,43,0
210.30904,210.43001,51,43,0
210.43001,210.55096,43,53,0
210.55096,210.67194,51,43,0
210.67194,210.79852,58,43,0
210.79852,210.92511,51,43,0
210.92511,211.0451,44,53,0
211.0451,211.1651,51,44,0
211.1651,211.2851,60,44,0
211.2851,211.4051,51,44,0
211.4051,211.5251,45,53,0
211.5251,211.6451,53,46,0
211.6451,211.77063,60,46,0
211.77063,211.89615,53,46,0
211.89615,212.14264,46,52,0
212.14264,212.26361,63,46,0
212.26361,212.38457,62,49,0
212.38457,212.50554,60,48,0
212.50554,212.62651,58,47,0
212.62651,212.74748,57,46,0
212.74748,212.87624,56,45,0
212.87624,213.00124,55,44,0
213.00124,213.12624,53,43,0
213.12624,213.25124,51,42,0
213.25124,213.3761,50,41,0
213.3761,213.49808,51,40,0
213.49808,213.62054,53,42,0
213.62054,213.74352,55,44,0
213.74352,213.867,56,46,0
213.867,214.11493,58,57,0
214.11493,214.23654,65,46,0
214.23654,214.35799,63,53,0
214.35799,214.47992,62,52,0
214.47992,214.60187,60,51,0
214.60187,214.69368,59,50,0
214.72429,214.81612,57,49,0
214.84674,214.93857,55,47,0
214.9692,215.0608,53,48,0
215.0913,215.18272,51,51,0
215.21309,215.30418,50,55,0
215.33455,215.4253,48,59,0
215.45554,215.54596,46,62,0
215.57605,215.66708,45,66,0
215.57605,215.66708,48,66,0
215.69774,215.79044,48,69,0
215.69774,215.79044,45,58,0
215.82166,215.94666,44,61,0
215.82166,215.94666,46,72,0
216.32166,216.46384,46,75,0
216.32166,216.46384,43,63,0
216.89037,217.63417,47,71,0
217.63417,217.76292,46,71,0
217.89168,218.89256,44,80,0
216.89037,218.89256,53,65,0
218.89256,219.63637,47,71,0
219.63637,219.76512,46,71,0
219.89388,220.90053,45,80,0
218.89256,220.90053,53,65,0
220.90053,221.14543,46,40,0
220.90053,221.14543,53,48,0
221.90372,222.1486,55,48,0
221.90372,222.1486,46,40,0
222.90689,223.15178,46,40,0
222.90689,223.15178,56,48,0
223.41115,223.65605,46,40,0
223.41115,223.65605,55,48,0
223.91748,224.16238,46,40,0
223.91748,224.16238,53,48,0
224.42247,224.66737,55,48,0
224.42247,224.66737,46,40,0
224.9314,225.17628,65,48,0
224.9314,225.17628,58,40,0
225.92989,226.17479,67,48,0
225.92989,226.17479,58,40,0
226.93544,227.18033,68,48,0
226.93544,227.18033,58,40,0
227.44156,227.68646,67,48,0
227.44156,227.68646,58,40,0
227.94789,228.1928,68,48,0
227.94789,228.1928,58,40,0
228.45335,228.69824,58,48,0
228.69824,228.81682,60,38,0
228.81682,228.94783,62,40,0
228.94783,229.07388,63,42,0
229.07388,229.20488,65,44,0
229.20488,229.33589,67,46,0
229.33589,229.4652,68,48,0
229.4652,229.71625,70,50,0
229.71625,229.83673,72,38,0
229.83673,229.96773,74,40,0
229.96773,230.09378,75,42,0
230.09378,230.22478,77,44,0
230.22478,230.35579,79,46,0
230.35579,230.48509,80,48,0
230.48509,230.74396,82,50,0
230.74396,230.99544,80,47,0
230.99544,231.2525,79,56,0
231.2525,231.51282,78,46,0
231.51282,231.76385,77,55,0
231.76385,232.01491,70,47,0
232.2598,232.7398,69,39,0
232.2598,232.7398,66,39,0
232.7398,232.99843,70,39,0
232.7398,232.99843,67,39,0
232.01491,232.99843,63,39,0
233.24133,233.71942,71,39,0
233.24133,233.71942,74,39,0
233.71942,233.98491,70,39,0
232.99843,233.98491,63,39,0
234.23491,234.48491,70,39,0
234.23491,234.48491,67,33,0
234.48491,234.7308,68,33,0
234.48491,234.7308,72,39,0
234.7308,234.98651,70,39,0
234.7308,234.98651,67,30,0
233.98491,234.98651,63,39,0
234.98651,235.23444,67,39,0
235.23444,235.48549,68,39,0
235.23444,235.48549,65,33,0
235.48549,235.73865,63,33,0
235.48549,235.73865,67,39,0
235.73865,236.0077,65,39,0
235.73865,236.0077,62,30,0
234.98651,236.0077,58,39,0
236.25261,236.73648,57,53,0
236.25261,236.73648,54,38,0
236.73648,236.9951,55,35,0
236.73648,236.9951,58,35,0
236.0077,236.9951,51,35,0
237.238,237.71802,62,50,0
237.238,237.71802,59,38,0
237.71802,237.97775,58,35,0
236.9951,237.97775,51,35,0
237.97775,238.48091,58,35,0
237.97775,238.48091,55,29,0
237.97775,238.48091,51,29,0
238.48091,238.72581,51,29,0
238.48091,238.72581,44,29,0
238.48091,238.72581,56,35,0
238.72581,238.9925,51,35,0
238.72581,238.9925,39,27,0
238.9925,239.24043,34,35,0
239.24043,239.49147,46,35,0
239.49147,239.74464,34,35,0
239.74464,240.01862,46,35,0
240.01862,240.40067,39,43,0
240.01862,240.40067,51,43,0
240.40067,240.52618,47,39,0
240.52618,240.77724,46,45,0
240.77724,241.03375,39,38,0
241.03375,241.2848,34,55,0
241.2848,241.41032,56,44,0
241.41032,241.53586,55,36,0
241.53586,241.65681,53,43,0
241.65681,241.77779,51,39,0
241.77779,241.89876,50,39,0
241.89876,242.04094,58,39,0
241.77779,242.04094,46,39,0
242.04094,242.42299,51,43,0
242.42299,242.54851,59,39,0
242.54851,242.79956,58,45,0
242.79956,243.05608,51,38,0
243.05608,243.30713,46,55,0
243.30713,243.43265,68,44,0
243.43265,243.55817,67,36,0
243.55817,243.67914,65,43,0
243.67914,243.80011,63,39,0
243.80011,243.92108,62,39,0
243.80011,243.92108,58,39,0
243.92108,244.07108,65,39,0
244.07108,244.43826,67,39,0
244.07108,244.43826,63,39,0
244.43826,244.56326,65,33,0
244.56326,244.93172,63,39,0
244.93172,245.0562,60,34,0
245.0562,245.42662,58,39,0
245.42662,245.55006,56,35,0
245.55006,245.92044,55,39,0
245.92044,246.04044,53,33,0
246.04044,246.41544,51,39,0
246.41544,246.53545,48,31,0
246.53545,246.9058,46,39,0
246.9058,247.02582,44,34,0
247.02582,247.39467,43,39,0
247.39467,247.51466,41,35,0
247.51466,247.90823,39,39,0
247.90823,248.07127,70,30,0
247.90823,248.07127,73,37,0
248.07127,249.08392,73,42,0
248.07127,249.08392,70,36,0
249.08392,250.11397,72,42,0
249.08392,250.11397,68,36,0
250.11397,251.14401,67,36,0
250.11397,251.14401,70,42,0
251.14401,252.25513,68,42,0
251.14401,252.25513,65,36,0
252.25513,252.98387,63,70,0
252.25513,252.98387,67,84,0
252.98387,253.0859,69,60,0
252.98387,253.0859,63,51,0
253.0859,253.14764,61,50,0
253.0859,253.14764,65,59,0
253.20937,253.45328,61,56,0
253.20937,253.45328,65,67,0
253.45328,253.55566,67,60,0
253.45328,253.55566,61,51,0
253.55566,253.6179,60,50,0
253.55566,253.6179,63,59,0
253.68015,253.92404,60,56,0
253.68015,253.92404,63,67,0
253.92404,254.02574,60,44,0
253.92404,254.02574,65,60,0
254.02574,254.08984,61,59,0
254.02574,254.08984,58,50,0
254.15395,254.39784,58,56,0
254.15395,254.39784,61,67,0
254.39784,254.49886,58,51,0
254.39784,254.49886,64,60,0
254.49886,254.5611,56,50,0
254.49886,254.5611,60,59,0
254.62334,254.8652,60,67,0
254.62334,254.8652,56,56,0
254.86723,255.10912,59,67,0
254.86723,255.10912,56,56,0
255.11115,255.85199,55,56,0
255.11115,255.85199,58,67,0
255.85199,256.0949,56,45,0
255.85199,256.0949,53,38,0
256.0949,256.33298,52,40,0
256.0949,256.33298,55,48,0
256.33298,256.57108,53,50,0
256.33298,256.57108,50,42,0
256.57108,256.817,48,45,0
256.57108,256.817,52,53,0
256.817,257.0734,52,47,0
256.817,257.0734,48,47,0
256.817,257.0734,55,47,0
256.817,257.0734,58,56,0
257.0734,257.19437,41,56,0
257.19437,257.31534,48,40,0
257.31534,257.4344,56,40,0
257.4344,257.55344,48,40,0
257.55344,257.6725,41,54,0
257.6725,257.79153,48,44,0
257.79153,257.91653,56,43,0
257.91653,258.04153,48,43,0
258.04153,258.1625,43,58,0
258.1625,258.28345,48,49,0
258.28345,258.40442,58,49,0
258.40442,258.5254,48,47,0
258.5254,258.64636,43,53,0
258.64636,258.76733,48,44,0
258.76733,258.8883,58,44,0
258.8883,259.00928,48,44,0
259.00928,259.13025,44,53,0
259.13025,259.2512,48,43,0
259.2512,259.37216,60,43,0
259.37216,259.49313,48,43,0
259.49313,259.6141,44,53,0
259.6141,259.73508,48,43,0
259.73508,259.86166,60,43,0
259.86166,259.98825,48,43,0
259.98825,260.10825,46,53,0
260.10825,260.22824,48,44,0
260.22824,260.3468,58,44,0
260.3468,260.4654,48,44,0
260.4654,260.58395,36,53,0
260.58395,260.70255,48,46,0
260.70255,260.82806,55,46,0
260.82806,260.95358,48,46,0
260.95358,261.07455,41,56,0
261.07455,261.19553,48,40,0
261.19553,261.3165,56,40,0
261.3165,261.43747,48,40,0
261.43747,261.55844,41,54,0
261.55844,261.6794,48,44,0
261.6794,261.8044,56,43,0
261.8044,261.9294,48,43,0
261.9294,262.05035,43,58,0
262.05035,262.17133,48,49,0
262.17133,262.2923,58,49,0
262.2923,262.41327,48,47,0
262.41327,262.53424,43,53,0
262.53424,262.6552,48,44,0
262.6552,262.77618,58,44,0
262.77618,262.89713,48,44,0
262.89713,263.0181,44,53,0
263.0181,263.13907,48,43,0
263.13907,263.26004,60,43,0
263.26004,263.381,48,43,0
263.381,263.50198,41,53,0
263.50198,263.62296,48,43,0
263.62296,263.74954,56,43,0
263.74954,263.8761,48,43,0
263.8761,263.99612,38,53,0
263.99612,264.11612,46,44,0
264.11612,264.2361,53,44,0
264.2361,264.3561,46,44,0
264.3561,264.4761,38,53,0
264.4761,264.5961,46,46,0
264.5961,264.72165,53,46,0
264.72165,264.84717,46,46,0
264.84717,264.96814,39,56,0
264.96814,265.08908,46,40,0
265.08908,265.20956,54,40,0
265.20956,265.33005,46,40,0
265.33005,265.45053,39,54,0
265.45053,265.571,46,44,0
265.571,265.696,54,43,0
265.696,265.821,46,43,0
265.821,265.942,41,58,0
265.942,266.06296,46,49,0
266.06296,266.18393,56,49,0
266.18393,266.3049,46,47,0
266.3049,266.42587,41,53,0
266.42587,266.5468,46,44,0
266.5468,266.6678,56,44,0
266.6678,266.78876,46,44,0
266.78876,266.90973,42,53,0
266.90973,267.0307,46,43,0
267.0307,267.15167,58,43,0
267.15167,267.27264,46,43,0
267.27264,267.39362,42,53,0
267.39362,267.51456,46,43,0
267.51456,267.64114,58,43,0
267.64114,267.76773,46,43,0
267.76773,267.88773,44,53,0
267.88773,268.00772,46,44,0
268.00772,268.12677,56,44,0
268.12677,268.24582,46,44,0
268.24582,268.36487,34,53,0
268.36487,268.48392,46,46,0
268.48392,268.60944,53,46,0
268.60944,268.73495,46,46,0
268.73495,268.85593,39,56,0
268.85593,268.9769,46,40,0
268.9769,269.09787,54,40,0
269.09787,269.21884,46,40,0
269.21884,269.3418,41,54,0
269.3418,269.46475,46,44,0
269.46475,269.5946,56,43,0
269.5946,269.7245,46,43,0
269.7245,269.86148,43,56,0
269.86148,269.99844,51,40,0
269.99844,270.13544,58,40,0
270.13544,270.27243,51,40,0
270.27243,270.41595,44,54,0
270.41595,270.5595,51,44,0
270.5595,270.70306,59,43,0
270.70306,270.8466,51,43,0
272.77045,273.72284,59,43,0
273.72284,274.6945,58,44,0
274.6945,274.93164,57,46,0
276.61084,277.56323,60,43,0
277.56323,278.52707,58,44,0
278.52707,278.76422,56,46,0
280.44345,281.40344,68,43,0
280.44345,281.40344,65,36,0
281.40344,282.36343,67,47,0
281.40344,282.36343,63,39,0
282.36343,283.31583,65,48,0
282.36343,283.31583,62,40,0
283.31583,284.28357,63,51,0
283.31583,284.28357,60,43,0
284.28357,285.23074,62,64,0
284.28357,285.23074,59,55,0
285.23074,285.72055,63,41,0
285.72055,285.9487,65,36,0
285.9487,286.2073,62,36,0
285.23074,286.2073,58,34,0
286.3278,286.4459,58,36,0
286.4459,286.564,60,36,0
286.564,286.68213,58,36,0
286.68213,286.79886,57,42,0
286.79886,286.9156,58,36,0
286.9156,287.03232,55,36,0
287.03232,287.16107,51,36,0
287.16107,287.28058,56,42,0
287.28058,287.40012,53,36,0
287.40012,287.51822,50,36,0
287.51822,287.63632,46,36,0
287.63632,287.75537,44,43,0
287.75537,287.87442,41,36,0
287.87442,287.99347,38,36,0
287.99347,288.11954,34,36,0
288.11954,288.23904,39,45,0
288.23904,288.35858,41,36,0
288.35858,288.4781,43,36,0
288.4781,288.59763,44,36,0
288.59763,288.71713,46,43,0
288.71713,288.83667,48,36,0
288.83667,288.95618,50,36,0
288.95618,289.0757,51,36,0
289.0757,289.19577,53,42,0
289.19577,289.31644,55,30,0
289.31644,289.43765,56,30,0
289.43765,289.55948,57,30,0
289.55948,289.80515,58,39,0
289.80515,290.05322,56,33,0
289.0757,290.05322,46,33,0
290.05322,290.9978,51,33,0
290.05322,290.9978,55,39,0
290.9978,291.941,53,39,0
290.9978,291.941,46,33,0
291.941,292.88336,67,39,0
291.941,292.88336,63,33,0
292.88336,293.83212,65,39,0
292.88336,293.83212,58,33,0
293.83212,294.78314,79,39,0
293.83212,294.78314,75,33,0
294.78314,295.25558,77,43,0
294.78314,295.25558,74,36,0
294.78314,295.25558,70,36,0
295.25558,295.7517,77,46,0
295.25558,295.7517,68,39,0
295.25558,295.7517,70,39,0
295.25558,295.7517,74,39,0
295.7517,296.23373,70,48,0
295.7517,296.23373,67,40,0
296.23373,296.72162,67,46,0
296.23373,296.72162,63,39,0
296.72162,297.19785,68,44,0
296.72162,297.19785,65,37,0
296.72162,297.19785,58,37,0
297.19785,297.6917,68,41,0
297.19785,297.6917,65,34,0
297.19785,297.6917,58,34,0
297.8122,297.9303,58,36,0
297.9303,298.04657,60,36,0
298.04657,298.16284,58,36,0
298.16284,298.27914,57,42,0
298.27914,298.39542,58,36,0
298.39542,298.5117,55,36,0
298.5117,298.64044,51,36,0
298.64044,298.75998,56,42,0
298.75998,298.8795,53,36,0
298.8795,298.99902,50,36,0
298.99902,299.11853,46,36,0
299.11853,299.23758,44,43,0
299.23758,299.35663,41,36,0
299.35663,299.47568,38,36,0
299.47568,299.6017,34,36,0
299.6017,299.72125,39,45,0
299.72125,299.84076,41,36,0
299.84076,299.9603,43,36,0
299.9603,300.0798,44,36,0
300.0798,300.19934,46,43,0
300.19934,300.31885,48,36,0
300.31885,300.4384,50,36,0
300.4384,300.5579,51,36,0
300.5579,300.67798,53,42,0
300.67798,300.79865,55,30,0
300.79865,300.91986,56,30,0
300.91986,301.0417,57,30,0
301.0417,301.28735,58,39,0
301.28735,301.53543,56,33,0
300.5579,301.53543,46,33,0
301.53543,302.48135,51,33,0
301.53543,302.48135,55,39,0
302.48135,303.42865,53,39,0
302.48135,303.42865,46,33,0
303.42865,304.37463,67,39,0
303.42865,304.37463,63,33,0
304.37463,305.32108,65,39,0
304.37463,305.32108,58,33,0
305.32108,306.26755,79,39,0
305.32108,306.26755,75,33,0
306.26755,306.74,77,43,0
306.26755,306.74,70,36,0
306.74,307.2361,77,46,0
306.74,307.2361,70,39,0
306.74,307.2361,68,39,0
307.2361,307.35364,70,48,0
307.2361,307.47516,67,40,0
307.47516,307.95718,67,46,0
307.47516,307.95718,63,39,0
307.95718,308.20602,67,48,0
307.95718,308.20602,63,40,0
308.20602,308.68604,65,44,0
308.20602,308.68604,58,37,0
308.68604,309.15845,65,41,0
308.68604,309.15845,58,34,0
308.68604,309.15845,56,34,0
309.15845,309.276,58,48,0
309.15845,309.3975,55,40,0
309.3975,309.87952,55,39,0
309.3975,309.87952,51,33,0
309.87952,310.12836,55,40,0
309.87952,310.12836,51,34,0
310.12836,310.60916,56,37,0
310.12836,310.60916,46,31,0
310.12836,310.60916,53,31,0
310.60916,311.14893,56,34,0
310.60916,311.14893,53,28,0
310.60916,311.14893,46,28,0
313.06152,314.0215,51,43,0
314.0215,314.99316,46,44,0
314.99316,315.2294,43,37,0
316.89423,317.8504,51,36,0
316.89423,317.8504,55,43,0
317.8504,318.80658,46,37,0
317.8504,318.80658,53,44,0
318.80658,319.04282,51,33,0
318.80658,319.04282,43,27,0
319.51523,319.75613,55,31,0
319.51523,319.75815,51,26,0
319.75815,320.71057,53,37,0
319.75815,320.71057,46,31,0
320.71057,320.94772,51,33,0
320.71057,320.94772,43,27,0
321.42206,321.661,67,31,0
321.42206,321.663,63,26,0
321.663,322.6202,65,37,0
321.663,322.6202,58,31,0
322.6202,322.85925,63,37,0
322.6202,322.85925,55,31,0
323.8158,324.0511,79,45,0
323.8158,324.0511,75,38,0
324.0511,324.28638,77,49,0
324.0511,324.28638,70,41,0
324.28638,324.52826,67,39,0
324.28638,324.52826,75,46,0
324.5303,324.76733,67,38,0
324.5303,324.76935,75,45,0
325.72284,325.95905,55,45,0
325.72284,325.95905,51,38,0
325.95905,326.19528,53,49,0
325.95905,326.19528,46,41,0
326.19528,326.44424,43,39,0
326.19528,326.44424,51,46,0
326.6833,326.8014,53,56,0
326.6833,326.8014,50,47,0
326.9195,327.03763,39,59,0
327.63867,327.75677,53,63,0
327.63867,327.75677,50,54,0
327.87488,327.993,39,65,0
328.59607,328.71417,53,70,0
328.59607,328.71417,50,59,0
328.83228,328.95038,39,73,0
329.55145,329.66956,46,77,0
329.78766,329.90576,34,80,0
330.0239,330.142,46,82,0
330.27774,331.22495,39,30,0
331.23392,332.18112,38,24,0
331.23392,332.18112,39,30,0
332.19006,333.12985,39,30,0
332.19006,333.12985,36,24,0
333.13873,334.07117,39,30,0
333.13873,334.07117,34,24,0
334.08005,335.02237,39,30,0
334.08005,335.02237,32,24,0
335.03152,335.97787,39,30,0
335.03152,335.97787,31,24,0
335.98703,336.92673,39,30,0
335.98703,336.92673,32,24,0
336.93585,337.88016,39,30,0
336.93585,337.88016,31,24,0
337.88925,338.82983,39,30,0
337.88925,338.82983,32,24,0
338.8389,339.07697,39,33,0
338.8389,339.07697,31,26,0
340.75513,340.99417,46,63,0
340.75513,340.99417,34,53,0
340.75513,340.99417,38,53,0
340.75513,340.99417,41,53,0
341.7113,341.95035,51,63,0
341.7113,341.95035,39,53,0
341.7113,341.95035,43,53,0
341.7113,341.95035,46,53,0
