start_time,end_time,note_value,velocity,instrument_program_number
0.0,1.313868,68,50,0
1.313868,1.4319782,70,50,0
1.4319782,1.5500885,68,46,0
1.5500885,1.6681987,67,46,0
1.6681987,1.786309,68,46,0
0.0,1.786309,60,42,0
1.786309,3.0906565,72,54,0
3.0906565,3.545202,70,45,0
1.786309,3.545202,61,45,0
3.545202,6.211869,68,50,0
3.545202,6.211869,60,42,0
6.211869,7.114259,69,50,0
7.114259,7.983824,70,50,0
8.418607,8.535794,72,50,0
8.535794,8.652982,70,46,0
8.652982,8.770169,69,46,0
8.770169,8.887357,70,46,0
7.114259,8.887357,63,42,0
8.887357,9.750666,63,45,0
8.887357,10.18232,73,54,0
10.18232,10.631143,72,45,0
9.750666,10.631143,68,42,0
10.631143,13.202572,70,50,0
10.631143,13.202572,67,42,0
13.202572,14.059714,71,50,0
14.059714,15.565354,72,63,0
15.565354,15.790918,68,52,0
14.059714,15.790918,63,63,0
15.790918,17.294786,75,64,0
17.294786,17.52206,72,60,0
15.790918,17.52206,63,55,0
15.790918,17.52206,68,64,0
17.52206,19.018675,77,70,0
19.018675,19.245947,73,67,0
17.52206,19.245947,68,64,0
17.52206,19.245947,65,55,0
19.52202,20.890642,77,78,0
19.568033,21.328598,80,82,0
21.328598,21.730057,79,63,0
21.766554,22.168013,77,59,0
22.20451,22.605968,75,56,0
19.47601,22.642466,73,75,0
19.429996,22.642466,68,70,0
22.642466,23.512032,73,60,0
22.642466,23.512032,70,51,0
23.512032,24.421122,72,52,0
23.512032,24.421122,68,44,0
24.421122,25.297033,63,46,0
24.421122,25.73499,75,55,0
25.73499,26.172945,72,51,0
25.297033,26.172945,63,39,0
26.172945,26.248703,70,53,0
26.172945,26.248703,70,51,0
26.248703,26.324461,72,46,0
26.324461,26.400219,70,51,0
26.400219,26.475977,72,45,0
26.475977,26.556622,70,51,0
26.556622,26.637266,69,46,0
26.637266,26.71791,70,46,0
26.71791,26.959846,73,57,0
26.959846,27.201782,72,48,0
26.172945,27.201782,63,45,0
27.201782,27.429056,75,55,0
27.429056,27.656328,73,47,0
27.656328,27.822994,72,51,0
27.822994,28.013855,73,47,0
28.013855,28.228909,70,47,0
28.228909,29.542776,68,50,0
29.542776,29.660887,70,50,0
29.660887,29.778997,68,46,0
29.778997,29.897108,67,46,0
29.897108,30.015217,68,46,0
28.228909,30.015217,60,34,0
30.015217,31.319565,72,54,0
31.319565,31.77411,70,45,0
30.015217,31.77411,61,45,0
31.77411,33.532566,68,50,0
31.77411,33.532566,60,42,0
35.279903,36.149467,70,59,0
36.58425,36.70144,72,54,0
36.70144,36.818626,70,46,0
36.818626,36.935814,69,49,0
36.935814,37.053,70,50,0
37.053,38.347965,73,62,0
38.347965,38.796787,72,50,0
37.053,38.796787,68,62,0
38.796787,40.488598,70,57,0
38.796787,40.488598,67,57,0
42.12563,42.285965,63,36,0
42.17882,43.68446,72,63,0
43.68446,43.910027,68,52,0
43.853634,44.0696,63,43,0
43.910027,45.413895,75,64,0
45.413895,45.52753,72,60,0
45.584347,45.74755,65,44,0
45.641167,48.204216,77,73,0
48.204216,48.623795,75,70,0
48.204216,48.623795,69,59,0
48.623795,49.078342,73,62,0
48.623795,49.078342,70,52,0
49.078342,49.917503,72,70,0
49.917503,50.771866,75,63,0
49.078342,50.771866,68,59,0
50.771866,51.611027,73,70,0
51.611027,52.53481,70,60,0
50.771866,52.53481,67,59,0
52.53481,53.48719,61,59,0
53.48719,53.71975,60,34,0
53.71975,53.952305,61,32,0
53.952305,54.184864,63,36,0
54.184864,54.470577,61,31,0
52.53481,54.470577,70,70,0
54.470577,55.41546,68,45,0
54.470577,55.41546,60,37,0
56.30129,56.465237,77,78,0
56.360344,57.619083,89,91,0
57.619083,57.68027,87,65,0
57.678524,57.73971,84,63,0
57.73971,57.799152,81,62,0
57.799152,57.858593,77,61,0
57.858593,57.919785,75,59,0
57.918034,57.979225,72,57,0
57.977474,58.038666,69,56,0
58.038666,58.458244,65,78,0
59.54126,59.73223,63,54,0
59.54126,59.73223,60,45,0
59.74959,61.5143,63,57,0
59.74959,61.5143,60,48,0
61.5143,62.396652,61,45,0
61.5143,62.396652,58,38,0
63.223858,63.38464,75,78,0
63.279007,64.54661,87,91,0
64.54661,64.60823,85,65,0
64.60647,64.66809,82,63,0
64.66809,64.72795,79,62,0
64.72795,64.78781,75,61,0
64.78781,64.84943,73,59,0
64.847664,64.90929,70,57,0
64.907524,64.96915,67,56,0
64.96915,65.39168,63,78,0
66.50998,66.70502,61,54,0
66.50998,66.70502,58,45,0
66.72275,68.42487,61,57,0
66.72275,68.42487,58,48,0
68.42487,69.27594,60,45,0
68.42487,69.27594,56,38,0
73.324585,73.544586,63,69,0
73.324585,73.544586,56,69,0
73.324585,73.544586,51,69,0
73.56459,75.27887,63,83,0
75.27887,75.70744,62,46,0
75.70744,76.15745,64,46,0
76.13602,76.56459,65,54,0
76.56459,77.01414,69,46,0
76.99316,77.41274,70,54,0
77.41274,77.8533,73,46,0
77.83232,78.2519,74,55,0
78.2519,78.69246,76,46,0
78.67148,79.091064,77,55,0
79.091064,79.54076,79,46,0
79.51963,79.94217,80,55,0
79.94217,80.38335,77,46,0
80.38335,82.48125,74,55,0
82.48125,82.58614,75,50,0
82.58614,82.69104,74,50,0
82.69104,82.79593,72,50,0
82.79593,82.900826,74,50,0
82.900826,83.53794,75,55,0
83.53794,83.75112,77,55,0
83.7705,84.633804,77,55,0
84.633804,86.300476,75,55,0
86.300476,87.1649,76,55,0
87.1649,89.29877,77,55,0
89.29877,89.40591,79,50,0
89.40591,89.513054,77,47,0
89.513054,89.62019,75,49,0
89.62019,89.72734,77,51,0
89.72734,90.35234,79,53,0
90.35234,90.56551,80,60,0
90.5849,91.44204,80,58,0
91.44204,92.29918,79,55,0
94.09912,94.1826,62,30,0
94.18466,94.26716,63,30,0
94.26716,94.34844,65,41,0
94.34844,94.42859,63,33,0
94.42859,94.50785,62,33,0
94.50785,94.58582,68,42,0
94.58582,94.663086,67,34,0
94.663086,94.73918,65,34,0
94.74107,94.81623,74,51,0
94.81623,94.89049,72,37,0
94.89049,94.96369,70,36,0
94.960045,95.03265,77,57,0
95.03265,95.10419,75,41,0
95.10419,95.17511,74,44,0
95.17511,95.25986,80,59,0
95.25986,95.3689,79,46,0
95.3689,95.50223,77,48,0
95.50223,97.195274,84,70,0
97.195274,97.26273,84,54,0
97.26273,97.33019,82,53,0
97.33218,97.39964,80,52,0
97.39964,97.4671,79,52,0
97.4671,97.53456,77,51,0
97.53456,97.60202,75,50,0
97.60202,97.66948,74,49,0
97.67146,98.32364,77,56,0
98.32364,98.54103,75,40,0
98.54103,98.86712,74,43,0
98.86712,98.975815,75,40,0
98.975815,99.316154,77,47,0
99.316154,99.4391,75,41,0
99.4391,100.302414,63,52,0
101.25038,101.333855,65,30,0
101.33592,101.41841,67,30,0
101.41841,101.4997,68,41,0
101.4997,101.57985,67,33,0
101.57985,101.6591,65,33,0
101.6591,101.737076,74,42,0
101.737076,101.81435,72,34,0
101.81435,101.890434,70,34,0
101.89233,101.96749,77,51,0
101.96749,102.04174,75,37,0
102.04174,102.11495,74,36,0
102.1113,102.183914,80,57,0
102.183914,102.25544,79,41,0
102.25544,102.32636,77,44,0
102.32636,102.4097,86,59,0
102.4097,102.507545,84,46,0
102.507545,102.6199,82,48,0
102.6199,104.31295,89,69,0
104.31295,104.390335,89,54,0
104.390335,104.46771,87,53,0
104.46771,104.5451,86,52,0
104.5451,104.622475,84,52,0
104.622475,104.69985,82,51,0
104.69985,104.77724,80,50,0
104.78914,106.06626,79,62,0
106.28524,106.50421,79,64,0
106.50421,107.78455,80,71,0
108.00514,108.22573,80,71,0
108.22573,109.49449,82,81,0
109.71508,109.93567,82,78,0
109.93567,111.20443,83,89,0
111.42502,111.64561,83,84,0
111.64561,112.90485,84,92,0
113.120674,113.3365,84,90,0
113.3365,114.6481,86,96,0
114.88432,115.120544,86,99,0
115.120544,116.39714,87,103,0
116.63336,116.69241,89,94,0
116.69241,116.75147,87,94,0
116.75147,116.810524,86,94,0
116.810524,116.86958,87,94,0
116.86958,117.28916,89,107,0
117.28916,117.70874,87,90,0
117.70874,118.030174,86,74,0
118.137314,118.45874,84,67,0
118.56589,118.985466,82,60,0
118.985466,119.42664,81,55,0
119.42664,119.84622,84,60,0
119.84622,120.300766,82,55,0
120.300766,120.71744,80,60,0
120.71744,121.1341,79,56,0
121.1341,121.550766,77,60,0
121.550766,122.019516,82,57,0
122.019516,122.31581,78,60,0
122.31581,122.60682,79,51,0
122.60682,122.89253,67,43,0
123.178246,123.44852,79,60,0
123.44852,123.74927,67,52,0
123.74927,124.03499,79,60,0
124.03499,124.3207,80,51,0
124.3207,124.606415,68,43,0
124.89213,125.1624,80,60,0
125.1624,125.46315,68,54,0
125.46315,125.74886,81,60,0
125.74886,126.03458,82,51,0
126.03458,126.32029,70,44,0
126.60601,126.87628,82,64,0
126.87628,127.17703,70,56,0
127.17703,127.462746,82,66,0
127.462746,127.74846,83,63,0
127.74846,128.03418,71,58,0
128.31989,128.59016,83,70,0
128.59016,128.89091,71,64,0
128.89091,129.17662,83,73,0
129.17662,129.46234,84,70,0
129.46234,129.74805,72,63,0
130.03377,130.30403,84,77,0
130.30403,130.60478,72,68,0
130.60478,130.8905,85,79,0
130.8905,131.17622,86,77,0
131.17622,131.46193,74,69,0
131.74765,132.01791,86,84,0
132.01791,132.31866,74,76,0
132.31866,132.60439,86,86,0
132.60439,132.89009,87,81,0
132.89009,133.17581,75,75,0
133.46153,133.74724,87,87,0
133.74724,134.05974,75,81,0
134.05974,134.3356,87,87,0
134.3356,134.6319,78,79,0
134.6319,134.90776,87,87,0
134.90776,135.20187,81,79,0
135.20187,135.47966,87,86,0
135.47966,135.79216,81,79,0
135.79216,137.83398,82,88,0
137.83398,138.11969,81,79,0
138.11969,138.40541,84,79,0
138.40541,138.61969,82,85,0
138.69112,138.90541,80,79,0
138.97684,139.21121,79,79,0
139.28934,140.76149,77,79,0
140.76149,140.80763,77,74,0
140.80763,140.85379,79,68,0
140.85379,140.89995,77,74,0
140.89995,140.9461,76,66,0
140.9461,140.99225,77,67,0
139.28934,140.99225,75,79,0
140.99225,142.42082,82,79,0
142.42082,142.62491,82,79,0
140.99225,142.62491,74,79,0
142.62491,143.46844,75,85,0
142.62491,143.46844,67,74,0
144.62634,144.91205,69,79,0
144.91205,145.19777,72,79,0
145.19777,145.41205,70,85,0
145.48349,145.69777,68,79,0
145.7692,146.00357,67,79,0
146.0817,147.55385,65,79,0
147.55385,147.6,65,74,0
147.6,147.64615,67,68,0
147.64615,147.6923,65,74,0
147.6923,147.73846,64,66,0
147.73846,147.78462,65,67,0
146.0817,147.78462,63,79,0
147.78462,149.2132,70,79,0
149.2132,149.41727,70,47,0
147.78462,149.41727,62,79,0
149.41727,150.2336,63,51,0
152.68257,153.4989,67,90,0
152.63156,153.4989,61,81,0
152.58054,153.4989,55,74,0
152.60605,153.4989,58,77,0
152.65707,153.4989,63,86,0
155.94789,157.26175,68,50,0
157.26175,157.37987,70,50,0
157.37987,157.49797,68,46,0
157.49797,157.61609,67,46,0
157.61609,157.73419,68,46,0
155.94789,157.73419,60,42,0
157.73419,159.03854,72,54,0
159.03854,159.49309,70,45,0
157.73419,159.49309,61,45,0
159.49309,161.27086,60,42,0
159.49309,161.71532,68,50,0
161.71532,162.15976,67,46,0
162.15976,162.6042,68,44,0
162.6042,163.06215,69,48,0
163.06215,163.93172,70,52,0
164.36649,164.48367,72,50,0
164.48367,164.60086,70,46,0
164.60086,164.71805,69,46,0
164.71805,164.83524,70,46,0
163.06215,164.83524,63,52,0
164.83524,165.69855,63,45,0
164.83524,166.1302,73,54,0
166.1302,166.57903,72,45,0
165.69855,166.57903,68,45,0
166.57903,168.29332,67,42,0
166.57903,168.57109,70,50,0
168.57109,168.84888,77,61,0
168.84888,169.12665,75,55,0
169.12665,169.33498,73,62,0
169.40442,169.6163,72,60,0
169.6893,169.90828,71,57,0
169.98128,171.47704,72,63,0
171.47704,171.70259,68,52,0
171.70259,173.20647,75,64,0
173.20647,173.43373,72,60,0
173.43373,174.93036,77,70,0
174.93036,175.15762,73,67,0
175.15762,177.24028,80,87,0
177.24028,177.66733,79,63,0
177.66733,178.0959,77,59,0
178.0959,178.48875,75,56,0
176.80232,178.52448,68,84,0
178.52448,178.95926,75,59,0
178.95926,179.3578,73,56,0
178.52448,179.39403,63,37,0
179.39403,179.84859,73,59,0
179.84859,180.26524,72,56,0
179.39403,180.30313,63,37,0
180.30313,181.17903,63,46,0
180.30313,181.61699,75,55,0
181.61699,182.05495,72,51,0
181.17903,182.05495,63,39,0
182.05495,182.1307,70,53,0
182.05495,182.1307,70,51,0
182.1307,182.20647,72,46,0
182.20647,182.28223,70,51,0
182.28223,182.35799,72,45,0
182.35799,182.43863,70,51,0
182.43863,182.51927,69,46,0
182.51927,182.59991,70,46,0
182.59991,182.84186,73,57,0
182.84186,183.08379,72,48,0
182.05495,183.08379,63,45,0
183.08379,183.31635,75,55,0
183.31635,183.5489,73,47,0
183.5489,183.68048,72,51,0
183.68048,183.81206,75,47,0
183.81206,183.98648,73,47,0
183.98648,184.1609,70,47,0
184.1609,185.47476,68,50,0
185.47476,185.59288,70,50,0
185.59288,185.71098,68,46,0
185.71098,185.8291,67,46,0
185.8291,185.9472,68,46,0
184.1609,185.9472,60,42,0
185.9472,187.25156,72,54,0
187.25156,187.7061,70,45,0
185.9472,187.7061,61,45,0
187.7061,189.44551,68,50,0
187.7061,189.44551,60,42,0
191.18916,192.05873,70,50,0
192.49352,192.6107,72,50,0
192.6107,192.72789,70,46,0
192.72789,192.84508,69,46,0
192.84508,192.96227,70,46,0
191.18916,192.96227,63,42,0
192.96227,194.25723,73,54,0
194.25723,194.70605,72,45,0
192.96227,194.70605,68,45,0
192.96227,194.70605,63,45,0
194.70605,196.38463,70,50,0
194.70605,196.38463,67,42,0
198.01506,198.17654,63,36,0
198.06941,199.57504,72,63,0
199.57504,199.80061,68,52,0
199.74422,199.907,63,43,0
199.80061,201.30447,75,64,0
201.30447,201.47493,72,60,0
201.53175,204.37453,77,70,0
201.47493,204.37453,65,44,0
204.37453,204.6659,75,70,0
204.37453,204.6659,69,59,0
204.6659,204.96892,73,62,0
204.6659,204.96892,70,52,0
204.96892,205.80809,72,70,0
205.80809,206.66245,75,63,0
204.96892,206.66245,68,59,0
206.66245,207.50162,73,70,0
207.50162,208.4254,70,60,0
206.66245,208.4254,67,59,0
208.4254,209.61034,61,59,0
209.61034,209.72661,60,37,0
209.72661,209.8429,61,34,0
209.8429,209.95917,63,38,0
209.95917,210.07545,61,34,0
210.07545,210.2183,60,34,0
210.2183,210.36116,61,34,0
208.4254,210.36116,70,70,0
210.36116,211.30605,68,51,0
210.36116,211.30605,60,42,0
212.19186,212.35582,77,78,0
212.25093,213.50967,89,91,0
213.50967,213.57086,87,65,0
213.5691,213.6303,84,63,0
213.6303,213.68974,81,62,0
213.68974,213.74918,77,61,0
213.74918,213.81036,75,59,0
213.80862,213.86981,72,57,0
213.86806,213.92924,69,56,0
213.92924,214.34883,65,78,0
215.43184,215.62282,63,54,0
215.43184,215.62282,60,45,0
215.64018,217.40488,63,57,0
215.64018,217.40488,60,48,0
217.40488,218.28723,61,45,0
217.40488,218.28723,58,38,0
219.11444,219.27522,75,78,0
219.16959,220.4372,87,91,0
220.4372,220.49881,85,65,0
220.49706,220.55867,82,63,0
220.55867,220.61853,79,62,0
220.61853,220.67839,75,61,0
220.67839,220.74,73,59,0
220.73825,220.79987,70,57,0
220.79811,220.85973,67,56,0
220.85973,221.28226,63,78,0
222.40056,222.5956,61,54,0
222.40056,222.5956,58,45,0
222.61333,224.31546,61,57,0
222.61333,224.31546,58,48,0
224.31546,225.16652,59,45,0
224.31546,225.16652,56,38,0
229.19351,229.38187,64,69,0
229.19351,229.38187,52,69,0
229.19351,229.38187,56,69,0
229.39899,231.11327,64,73,0
231.11327,231.97041,63,61,0
229.39899,231.97041,57,73,0
229.39899,231.97041,54,73,0
232.60732,232.7983,63,69,0
232.60732,232.7983,53,69,0
232.60732,232.7983,56,69,0
232.81566,234.52994,63,73,0
234.52994,235.38708,62,61,0
232.81566,235.38708,56,73,0
232.81566,235.38708,53,73,0
236.02399,236.21497,62,69,0
236.02399,236.21497,53,69,0
236.02399,236.21497,56,69,0
236.23232,237.94661,62,73,0
236.23232,237.94661,56,73,0
237.94661,238.37518,61,61,0
237.94661,238.37518,58,54,0
236.23232,238.79475,53,73,0
238.37518,238.81573,69,46,0
238.79475,239.17238,70,54,0
239.21434,239.65489,72,46,0
239.63393,240.01154,73,54,0
240.0535,240.47308,78,50,0
240.47308,240.85071,79,60,0
240.89265,241.33322,81,50,0
241.31224,241.68987,82,60,0
241.73183,242.17238,84,50,0
242.1514,242.57098,85,60,0
242.57098,243.01874,82,50,0
243.01874,245.14641,79,60,0
245.14641,245.25279,80,55,0
245.25279,245.35918,79,55,0
245.35918,245.46555,77,55,0
245.46555,245.57193,79,55,0
245.57193,246.20905,80,60,0
246.20905,246.4416,82,60,0
246.4416,247.30492,82,60,0
247.30492,249.03154,80,60,0
249.03154,249.89484,81,60,0
249.89484,252.05312,82,60,0
252.05312,252.16103,84,55,0
252.16103,252.26894,82,55,0
252.26894,252.37686,81,55,0
252.37686,252.48477,82,55,0
252.48477,253.10977,84,60,0
253.10977,253.34233,85,60,0
253.34233,254.19948,85,60,0
254.19948,255.05661,84,60,0
256.8509,256.93436,67,30,0
256.93643,257.01892,68,30,0
257.01892,257.10022,70,41,0
257.10022,257.18036,68,33,0
257.18036,257.2596,67,33,0
257.2596,257.3376,73,42,0
257.3376,257.41486,72,36,0
257.41486,257.49094,70,39,0
257.49283,257.568,79,51,0
257.568,257.64224,77,39,0
257.64224,257.71545,75,42,0
257.71182,257.78442,82,57,0
257.78442,257.85596,80,46,0
257.85596,257.92688,79,49,0
257.92688,258.00687,85,59,0
258.00687,258.1086,84,50,0
258.1086,258.23206,82,55,0
258.23206,259.93405,89,69,0
259.93405,260.00153,89,54,0
260.00153,260.06897,87,53,0
260.07095,260.13843,85,52,0
260.13843,260.2059,84,52,0
260.2059,260.27335,82,51,0
260.27335,260.34082,80,50,0
260.34082,260.40826,79,49,0
260.41025,261.06244,82,56,0
261.06244,261.27982,80,44,0
261.27982,261.6059,79,47,0
261.6059,261.7146,80,44,0
261.7146,262.05493,82,51,0
262.05493,262.1779,80,45,0
262.1779,263.0412,68,57,0
263.98917,264.07263,70,30,0
264.0747,264.1572,72,30,0
264.1572,264.2385,73,41,0
264.2385,264.31863,72,33,0
264.31863,264.3979,70,33,0
264.3979,264.47586,79,47,0
264.47586,264.55313,77,38,0
264.55313,264.6292,75,39,0
264.6311,264.7063,82,51,0
264.7063,264.79742,80,46,0
264.79742,264.9016,79,48,0
264.8964,267.05902,85,69,0
267.05902,267.1135,84,50,0
267.1135,267.16794,85,52,0
267.16794,267.22238,87,55,0
267.22238,267.27686,85,58,0
267.27686,267.3313,84,58,0
267.3313,267.38577,82,57,0
267.38577,267.44022,80,56,0
267.44022,267.49466,79,55,0
267.4922,267.54666,77,54,0
267.54666,267.6011,75,53,0
267.6011,267.65485,73,52,0
267.65308,268.9302,72,62,0
269.14917,269.36816,72,64,0
269.36816,270.6485,73,71,0
270.86908,271.08966,73,71,0
271.08966,272.35843,75,81,0
272.57904,272.79962,75,78,0
272.79962,274.0684,76,89,0
274.28897,274.50955,76,84,0
274.50955,275.75754,77,92,0
275.97336,276.18918,77,88,0
276.18918,277.5008,79,94,0
277.737,277.97324,79,93,0
277.97324,279.24982,80,100,0
279.48605,279.5451,82,86,0
279.5451,279.60416,80,89,0
279.60416,279.6632,79,91,0
279.6632,279.72226,80,93,0
279.72226,280.14185,82,95,0
280.14185,280.56143,80,87,0
280.56143,280.88287,79,77,0
280.99,281.31143,77,67,0
281.41858,281.8602,75,60,0
281.83817,282.30032,74,55,0
282.27933,282.72165,77,60,0
282.6989,283.1743,75,55,0
283.15344,283.59094,73,60,0
283.57013,284.00763,72,56,0
283.9868,284.42688,70,60,0
284.40344,284.8722,75,57,0
284.8722,285.17294,71,60,0
285.17294,285.4662,72,51,0
285.4662,285.7519,60,43,0
286.03763,286.3079,72,60,0
286.3079,286.60864,60,52,0
286.60864,286.89435,72,60,0
286.89435,287.18008,73,51,0
287.18008,287.4658,61,43,0
287.7515,288.02176,73,60,0
288.02176,288.3225,61,54,0
288.3225,288.60825,74,60,0
288.60825,288.89395,75,51,0
288.89395,289.17966,63,44,0
289.4654,289.73566,75,64,0
289.73566,290.0364,63,56,0
290.0364,290.3221,75,66,0
290.3221,290.60782,76,63,0
290.60782,290.89355,64,58,0
291.17926,291.44952,76,70,0
291.44952,291.75027,64,64,0
291.75027,292.036,76,73,0
292.036,292.3197,77,70,0
292.3197,292.60138,65,63,0
292.8831,293.15335,77,77,0
293.15335,293.4541,65,68,0
293.4541,293.7398,78,79,0
293.7398,294.02353,79,77,0
294.02353,294.3052,67,69,0
294.58688,294.85718,79,84,0
294.85718,295.15793,67,76,0
295.15793,295.44363,79,86,0
295.44363,295.72733,80,81,0
295.72733,296.00903,68,75,0
296.2907,296.57242,80,87,0
296.57242,296.88492,68,81,0
296.88492,297.16077,83,87,0
297.16077,297.45706,71,79,0
297.45706,297.73294,83,87,0
297.73294,298.02704,68,79,0
298.02704,298.3048,80,86,0
298.3048,298.6173,68,79,0
298.6173,300.6314,75,88,0
300.6314,300.9151,86,79,0
300.9151,301.1968,89,79,0
301.1968,301.40808,87,85,0
301.4785,301.68976,85,79,0
301.7602,301.99457,84,79,0
302.0727,303.54483,82,79,0
303.54483,303.59097,82,74,0
303.59097,303.63715,84,68,0
303.63715,303.6833,82,74,0
303.6833,303.72943,81,66,0
303.72943,303.7756,82,67,0
302.0727,303.7756,80,79,0
303.7756,305.20416,87,79,0
305.20416,305.40826,87,79,0
303.7756,305.40826,79,79,0
305.40826,306.2518,80,85,0
305.40826,306.2518,72,74,0
307.3917,307.67743,74,79,0
307.67743,307.96313,77,79,0
307.96313,308.17743,75,85,0
308.24884,308.46313,73,79,0
308.53458,308.76895,72,79,0
308.84708,310.3192,70,79,0
310.3192,310.36536,70,74,0
310.36536,310.41153,72,68,0
310.41153,310.45767,70,74,0
310.45767,310.5038,69,66,0
310.5038,310.55,70,67,0
308.84708,310.55,68,79,0
310.55,311.97855,75,79,0
311.97855,312.23065,75,61,0
310.55,312.23065,67,79,0
312.23065,312.6467,63,30,0
312.23065,312.6467,60,30,0
312.6686,313.4771,63,30,0
312.6686,313.4771,60,30,0
313.51968,313.9685,63,30,0
313.51968,313.9685,60,30,0
312.23065,313.99213,68,50,0
313.99213,314.40515,63,30,0
313.99213,314.40515,61,30,0
314.4269,315.253,63,30,0
314.4269,315.253,61,30,0
313.99213,315.29645,72,54,0
315.29645,315.72827,61,30,0
315.29645,315.72827,63,30,0
315.29645,315.751,70,45,0
315.751,316.17322,63,30,0
315.751,316.17322,60,30,0
316.19547,317.0256,63,30,0
316.19547,317.0256,60,30,0
317.06848,317.89703,60,30,0
317.06848,317.89703,63,30,0
317.94147,318.77164,63,30,0
317.94147,318.77164,60,30,0
315.751,318.81448,68,50,0
318.81448,319.24954,63,30,0
318.81448,319.24954,60,30,0
318.81448,319.27243,69,44,0
319.27243,319.6855,63,30,0
319.27243,319.6855,61,30,0
319.7072,320.5215,63,35,0
319.27243,320.56436,70,52,0
320.56436,320.68155,72,50,0
320.68155,320.79874,70,46,0
320.79874,320.91592,69,46,0
320.91592,321.0331,70,46,0
320.56436,321.4216,63,30,0
321.46478,322.2733,63,30,0
321.0331,322.31583,68,45,0
321.0331,322.31583,73,54,0
322.31583,322.76312,72,45,0
322.31583,322.76312,68,45,0
322.31583,323.14883,63,30,0
323.1917,323.98337,63,37,0
324.02502,324.80905,63,41,0
324.84985,325.63043,63,39,0
322.76312,326.11957,70,50,0
322.76312,326.11957,67,42,0
325.6718,326.4972,63,34,0
326.53915,327.33115,63,53,0
326.11957,327.78632,75,66,0
327.37253,328.16132,63,52,0
328.203,328.99466,63,51,0
327.78632,329.4775,73,63,0
329.03632,329.8578,63,52,0
329.90005,330.69757,63,49,0
329.4775,331.1559,72,66,0
330.73923,331.52325,64,46,0
331.1559,331.97223,70,58,0
331.56406,332.33957,65,54,0
331.97223,332.59937,73,64,0
332.59937,332.81836,70,55,0
332.3804,333.24088,65,50,0
333.24088,334.04105,63,47,0
332.81836,334.5026,68,66,0
334.083,334.875,63,43,0
334.5026,335.33017,69,58,0
334.91638,335.70258,63,45,0
335.33017,336.19852,70,59,0
335.74396,336.57092,63,49,0
336.19852,337.0261,71,64,0
336.6123,337.39343,63,55,0
337.0261,337.84244,72,67,0
337.0261,337.84244,60,56,0
337.43427,338.21228,63,55,0
337.84244,338.67297,73,70,0
337.84244,338.67297,61,59,0
338.2534,339.06146,63,58,0
339.1046,339.5606,63,62,0
338.67297,339.58463,74,73,0
338.67297,339.58463,62,62,0
339.58463,340.39655,63,30,0
340.4388,341.2643,63,58,0
339.58463,341.3091,75,77,0
341.3091,342.12103,63,30,0
341.3091,342.12103,61,30,0
342.1633,342.9888,63,58,0
342.1633,342.9888,61,58,0
341.3091,343.0336,73,69,0
343.0336,343.84787,63,30,0
343.0336,343.84787,60,30,0
343.89072,344.6824,64,52,0
343.89072,344.6824,60,52,0
343.0336,344.72406,72,65,0
344.72406,345.135,70,62,0
345.135,345.546,72,64,0
344.72406,345.95694,65,30,0
345.546,346.17593,73,67,0
346.17593,346.3949,70,69,0
345.95694,346.3949,65,49,0
346.3949,347.21716,68,70,0
346.79758,347.57477,75,58,0
347.21716,348.0341,69,71,0
347.6145,348.3965,75,58,0
348.0341,348.86844,70,73,0
346.3949,348.86844,63,30,0
348.43677,349.24084,75,43,0
349.28223,349.7368,75,43,0
348.86844,349.7368,67,51,0
349.7368,350.12988,63,30,0
349.7368,350.12988,60,30,0
349.7368,350.57013,68,57,0
350.15057,350.94775,63,30,0
350.98972,351.77054,63,30,0
351.81165,352.59247,63,30,0
352.63358,353.41187,63,30,0
353.4527,354.24988,63,30,0
353.04453,354.71143,73,57,0
353.04453,354.71143,70,57,0
354.29184,355.07877,63,30,0
355.1196,355.8951,63,30,0
354.71143,356.38367,73,57,0
354.71143,356.38367,70,57,0
355.9359,356.75354,63,30,0
356.38367,357.22015,72,61,0
356.38367,357.22015,68,61,0
356.79465,357.60315,63,30,0
357.6457,358.44363,63,30,0
358.48502,359.27124,63,30,0
359.31262,360.09128,63,30,0
360.1318,360.92346,63,30,0
359.7264,361.3818,70,57,0
359.7264,361.3818,61,57,0
360.96515,361.7568,63,30,0
361.79846,362.59015,63,30,0
362.6318,363.04846,63,30,0
361.3818,363.04846,70,57,0
361.3818,363.04846,61,57,0
363.04846,363.46228,68,57,0
363.04846,363.46228,60,25,0
363.46228,364.25946,51,25,0
363.46228,364.25946,63,30,0
364.30142,365.08224,51,25,0
364.30142,365.08224,63,30,0
365.12335,365.90417,51,25,0
365.12335,365.90417,63,30,0
365.5343,366.35623,56,42,0
365.5343,366.35623,60,50,0
365.94525,366.72357,63,30,0
365.94525,366.72357,51,25,0
366.35623,367.18396,58,48,0
366.35623,367.18396,61,57,0
366.76437,367.60355,63,30,0
366.76437,367.60355,51,25,0
367.60355,368.39554,51,25,0
367.60355,368.39554,63,30,0
368.02313,368.8507,58,48,0
368.02313,368.8507,61,48,0
368.43692,369.2645,63,30,0
368.43692,369.2645,51,25,0
369.2645,370.08212,51,25,0
369.2645,370.08212,63,30,0
369.71228,370.1027,56,51,0
369.71228,370.1027,60,51,0
370.12323,370.93173,51,25,0
370.12323,370.93173,63,30,0
370.12323,370.93173,60,25,0
370.12323,370.93173,56,25,0
370.9743,371.76718,51,24,0
370.9743,371.76718,63,29,0
370.9743,371.76718,60,24,0
370.9743,371.76718,56,24,0
371.80798,372.5949,51,24,0
371.80798,372.5949,63,28,0
371.80798,372.5949,60,24,0
371.80798,372.5949,56,24,0
372.63574,373.42917,60,23,0
372.63574,373.42917,63,28,0
372.63574,373.42917,56,23,0
372.63574,373.42917,51,23,0
373.4697,374.25125,51,23,0
373.4697,374.25125,56,23,0
373.4697,374.25125,60,27,0
374.29178,375.09897,51,22,0
374.29178,375.09897,56,22,0
374.29178,375.09897,60,27,0
375.14035,375.96573,51,22,0
375.14035,375.96573,56,22,0
375.14035,375.96573,60,26,0
376.0077,376.82788,51,21,0
376.0077,376.82788,56,21,0
376.0077,376.82788,60,26,0
376.86926,377.6739,48,21,0
376.86926,377.6739,51,21,0
376.86926,377.6739,56,25,0
377.715,378.52536,48,20,0
377.715,378.52536,51,20,0
377.715,378.52536,56,24,0
378.56674,379.3882,48,20,0
378.56674,379.3882,51,20,0
378.56674,379.3882,56,24,0
379.43045,380.3544,48,19,0
379.43045,380.3544,51,19,0
379.43045,380.3544,56,23,0
381.6977,382.6352,51,27,0
381.6977,382.6352,48,22,0
383.5727,388.6253,48,23,0
383.5727,388.6253,44,19,0
0.0,1.786309,56,32,0
0.0,1.786309,51,27,0
0.0,1.786309,44,27,0
1.786309,3.545202,55,29,0
1.786309,3.545202,51,24,0
1.786309,3.545202,43,24,0
3.545202,6.211869,56,36,0
3.545202,6.211869,51,30,0
3.545202,6.211869,44,30,0
7.114259,7.983824,61,32,0
7.983824,8.887357,58,32,0
7.114259,8.887357,55,27,0
9.750666,10.631143,60,32,0
8.887357,10.631143,56,29,0
10.631143,13.202572,63,36,0
10.631143,13.202572,51,30,0
14.059714,15.790918,56,32,0
15.790918,17.52206,56,37,0
15.790918,17.52206,60,37,0
15.790918,17.52206,48,37,0
17.52206,19.245947,61,45,0
17.52206,19.245947,56,45,0
17.52206,19.245947,49,45,0
19.383984,22.642466,65,53,0
19.245947,22.642466,53,41,0
19.29196,22.642466,56,45,0
19.337973,22.642466,61,49,0
22.642466,23.512032,63,37,0
22.642466,23.512032,55,31,0
23.512032,24.421122,56,28,0
23.512032,24.421122,63,34,0
24.421122,25.73499,60,37,0
25.73499,26.172945,56,31,0
24.421122,26.172945,51,31,0
26.172945,27.201782,55,31,0
26.172945,27.201782,51,26,0
28.666864,29.082924,51,28,0
29.10482,29.52088,51,29,0
29.542776,30.015217,51,29,0
28.228909,30.015217,44,36,0
30.45,30.863043,51,28,0
30.884783,31.297827,51,28,0
31.319565,31.77411,51,28,0
30.015217,31.77411,43,36,0
31.77411,32.218555,44,36,0
32.218555,32.663,51,32,0
32.663,33.097782,48,36,0
33.097782,33.532566,56,32,0
33.532566,33.958096,51,40,0
33.958096,34.396427,60,36,0
34.396427,34.82196,56,47,0
34.82196,35.279903,63,36,0
35.714687,36.12773,63,29,0
36.149467,36.56251,63,29,0
36.58425,37.053,63,29,0
35.279903,37.053,55,45,0
37.484657,37.89473,63,29,0
37.91631,38.32638,63,29,0
38.347965,38.796787,63,29,0
37.053,38.796787,56,36,0
38.796787,39.22536,51,41,0
39.22536,39.649437,63,32,0
39.649437,40.069016,62,33,0
40.069016,40.488598,63,33,0
40.488598,40.908176,62,36,0
40.908176,41.32776,63,31,0
41.32776,41.75329,65,36,0
41.75329,42.17882,61,33,0
42.60739,43.035965,56,32,0
43.035965,43.464535,60,32,0
43.464535,43.834835,63,29,0
44.335556,44.76109,48,32,0
44.76109,45.186623,51,32,0
45.186623,45.641167,56,30,0
46.0667,46.513508,53,38,0
46.49223,46.939037,55,42,0
46.917763,47.386032,56,45,0
47.365055,47.805614,57,49,0
47.784634,48.225193,58,52,0
48.204216,48.646523,60,48,0
46.0667,49.078342,49,38,0
48.623795,49.09932,61,51,0
49.078342,49.49792,63,51,0
49.49792,49.917503,62,45,0
49.917503,50.337082,61,46,0
50.337082,50.771866,60,46,0
49.078342,50.771866,51,32,0
50.771866,51.191444,58,51,0
51.191444,51.611027,60,44,0
51.611027,52.030605,61,44,0
52.030605,52.5138,55,44,0
50.771866,52.53481,51,32,0
52.53481,54.470577,55,51,0
54.470577,55.41546,56,31,0
52.53481,55.41546,44,32,0
56.360344,58.035168,65,76,0
56.360344,58.038666,63,76,0
56.360344,58.038666,60,76,0
56.360344,58.038666,57,76,0
59.54126,59.73223,53,36,0
59.54126,59.73223,45,30,0
59.74959,62.396652,53,41,0
59.74959,62.396652,46,35,0
63.279007,64.96562,63,76,0
63.279007,64.96915,61,76,0
63.279007,64.96915,58,76,0
63.279007,64.96915,55,76,0
66.50998,66.70502,51,36,0
66.50998,66.70502,43,30,0
66.72275,69.27594,51,41,0
66.72275,69.27594,44,35,0
70.07381,70.234146,47,89,0
70.127,71.397934,59,92,0
71.397934,71.4669,59,59,0
71.4669,71.535866,56,57,0
71.53759,71.60656,51,56,0
71.604836,71.6738,47,56,0
71.67552,71.74449,44,55,0
71.74449,71.813515,39,53,0
71.81173,72.2403,35,91,0
73.324585,73.544586,47,46,0
73.324585,73.544586,35,46,0
73.56459,76.13602,46,59,0
73.56459,76.13602,56,59,0
73.56459,76.13602,53,59,0
73.56459,76.13602,34,59,0
80.38335,81.18055,56,29,0
80.38335,81.18055,58,35,0
81.2225,82.01971,56,25,0
81.2225,82.01971,58,30,0
82.06167,82.85887,56,25,0
82.06167,82.85887,58,30,0
82.900826,83.72398,56,25,0
82.900826,83.72398,58,30,0
83.7705,84.590645,55,29,0
83.7705,84.590645,58,35,0
84.633804,85.425476,55,23,0
84.633804,85.425476,58,28,0
85.46714,86.258804,55,23,0
85.46714,86.258804,58,28,0
86.300476,87.120125,55,23,0
86.300476,87.120125,58,28,0
87.1649,87.97919,56,29,0
87.1649,87.97919,58,35,0
87.1649,87.97919,50,29,0
88.02204,88.83633,56,27,0
88.02204,88.83633,58,33,0
88.02204,88.83633,50,27,0
88.87919,89.68448,56,27,0
88.87919,89.68448,58,33,0
88.87919,89.68448,50,27,0
89.72734,90.35234,55,46,0
90.35234,90.56551,53,46,0
89.72734,90.5849,58,30,0
89.72734,90.5849,50,25,0
90.5849,91.399185,54,29,0
90.5849,91.399185,58,35,0
90.5849,91.399185,51,29,0
91.44204,92.256325,55,23,0
91.44204,92.256325,58,28,0
91.44204,92.256325,51,23,0
92.29918,93.11347,55,23,0
92.29918,93.11347,58,28,0
92.29918,93.11347,51,23,0
93.15633,93.97061,55,23,0
93.15633,93.97061,58,28,0
93.15633,93.97061,51,28,0
94.014465,94.91622,58,30,0
94.014465,94.91622,56,25,0
94.960045,95.88251,58,30,0
94.960045,95.88251,56,25,0
95.92477,96.72758,58,30,0
95.92477,96.72758,56,25,0
96.76984,97.62385,58,30,0
96.76984,97.62385,56,25,0
98.54103,99.38992,58,30,0
98.54103,99.38992,55,25,0
99.4391,100.25925,58,30,0
99.4391,100.25925,55,25,0
100.302414,101.12256,58,30,0
100.302414,101.12256,55,25,0
101.165726,102.06748,58,30,0
101.165726,102.06748,56,25,0
101.165726,102.06748,50,25,0
102.1113,103.00018,58,30,0
102.1113,103.00018,50,25,0
102.1113,103.00018,53,25,0
102.1113,103.00018,56,25,0
103.04244,103.84525,58,30,0
103.04244,103.84525,50,25,0
103.04244,103.84525,53,25,0
103.04244,103.84525,56,25,0
103.88751,104.74152,58,30,0
103.88751,104.74152,50,25,0
103.88751,104.74152,53,25,0
103.88751,104.74152,56,25,0
105.6283,106.50421,58,30,0
105.6283,106.50421,55,30,0
105.6283,106.50421,51,30,0
107.343376,108.22573,62,32,0
107.343376,108.22573,53,32,0
107.343376,108.22573,56,32,0
107.343376,108.22573,58,32,0
109.053314,109.93567,63,37,0
109.053314,109.93567,58,37,0
109.053314,109.93567,55,37,0
110.76325,111.64561,63,43,0
110.76325,111.64561,59,43,0
110.76325,111.64561,55,43,0
112.47319,113.3365,63,51,0
112.47319,113.3365,60,51,0
112.47319,113.3365,56,51,0
114.17566,115.120544,65,60,0
114.17566,115.120544,59,60,0
114.17566,115.120544,56,60,0
114.17566,115.120544,62,60,0
115.97161,116.86958,66,60,0
115.97161,116.86958,57,60,0
115.97161,116.86958,60,60,0
115.97161,116.86958,63,60,0
119.42664,120.300766,58,27,0
119.42664,120.300766,63,30,0
119.42664,120.300766,67,36,0
121.1341,122.019516,58,27,0
121.1341,122.019516,62,31,0
121.1341,122.019516,68,36,0
122.60682,122.89253,63,32,0
122.89253,123.178246,58,39,0
123.178246,123.44852,55,32,0
123.44852,123.74927,51,32,0
124.3207,124.606415,65,34,0
124.606415,124.89213,62,39,0
124.89213,125.1624,58,33,0
125.1624,125.46315,53,33,0
126.03458,126.32029,67,33,0
126.32029,126.60601,63,40,0
126.60601,126.87628,58,34,0
126.87628,127.17703,55,34,0
127.74846,128.03418,67,46,0
128.03418,128.31989,63,53,0
128.31989,128.59016,59,46,0
128.59016,128.89091,55,46,0
129.46234,129.74805,68,47,0
129.74805,130.03377,63,58,0
130.03377,130.30403,60,49,0
130.30403,130.60478,56,49,0
131.17622,131.46193,68,56,0
131.46193,131.74765,65,63,0
131.74765,132.01791,62,54,0
132.01791,132.31866,58,55,0
133.74724,135.79216,59,65,0
132.89009,135.79216,69,78,0
133.17581,135.79216,66,57,0
133.46153,135.79216,63,61,0
136.10466,136.24751,46,64,0
136.39037,136.53323,51,64,0
136.67609,136.81894,55,64,0
136.96179,137.10466,58,58,0
137.24751,137.39037,63,58,0
137.53323,137.83398,67,64,0
137.83398,138.11969,66,58,0
138.11969,138.40541,68,58,0
138.40541,138.61969,67,64,0
138.69112,138.90541,65,59,0
138.97684,139.21121,63,59,0
139.28934,142.62491,58,52,0
139.28934,142.62491,68,62,0
142.89702,143.03987,34,64,0
143.18274,143.32559,39,64,0
143.46844,143.6113,43,64,0
143.75417,143.89702,46,58,0
144.03987,144.18274,51,58,0
144.32559,144.62634,55,64,0
144.62634,144.91205,54,58,0
144.91205,145.19777,56,58,0
145.19777,145.41205,55,64,0
145.48349,145.69777,53,59,0
145.7692,146.00357,51,59,0
146.0817,149.41727,46,52,0
146.0817,149.41727,56,62,0
149.41727,150.2336,55,43,0
149.41727,150.2336,51,37,0
152.55502,153.4989,51,69,0
152.52951,153.4989,49,67,0
152.4785,153.4989,39,64,0
152.52101,153.51591,46,67,0
155.94789,156.82379,44,39,0
156.82379,157.73419,51,32,0
157.73419,158.60376,43,39,0
158.60376,159.49309,51,29,0
159.49309,160.38197,44,42,0
160.38197,161.27086,51,36,0
161.27086,162.15976,56,38,0
162.15976,163.06215,60,40,0
163.06215,163.93172,61,46,0
163.93172,164.83524,58,32,0
163.06215,164.83524,55,46,0
165.69855,166.57903,60,32,0
164.83524,166.57903,56,29,0
167.43617,168.29332,61,32,0
168.29332,169.12665,58,32,0
169.12665,169.98128,55,32,0
166.57903,169.98128,63,36,0
166.57903,169.98128,51,30,0
170.61957,170.83234,56,37,0
170.83234,171.70259,63,46,0
172.3409,172.55367,48,39,0
172.55367,173.43373,56,48,0
174.07204,174.2848,49,51,0
174.2848,174.93036,61,56,0
175.15762,175.7385,61,62,0
175.7385,175.95125,56,56,0
175.95125,176.58955,65,65,0
176.58955,176.80232,61,65,0
176.80232,177.66733,56,72,0
174.93036,177.66733,53,56,0
177.66733,178.52448,56,48,0
177.66733,178.52448,53,40,0
178.52448,179.39403,58,57,0
178.52448,179.39403,55,48,0
179.39403,180.30313,56,40,0
179.39403,180.30313,60,48,0
180.30313,181.61699,60,43,0
181.61699,182.05495,56,31,0
180.30313,182.05495,51,43,0
182.05495,183.08379,55,31,0
182.05495,183.08379,51,26,0
184.59886,185.01491,51,28,0
185.0368,185.45287,51,29,0
185.47476,185.92358,51,29,0
184.1609,185.9472,44,36,0
186.38199,186.79503,51,28,0
186.81677,187.22981,51,28,0
187.25156,187.68338,51,28,0
185.9472,187.7061,43,36,0
187.7061,187.92833,44,43,0
188.0024,188.22249,51,36,0
188.29443,188.51025,48,36,0
188.5822,188.79802,56,40,0
188.86996,189.0858,51,36,0
189.15775,189.37357,60,36,0
189.44551,189.65979,56,43,0
189.73122,189.94551,63,36,0
190.01694,190.23122,61,36,0
190.30266,190.51694,60,47,0
190.58836,190.80754,58,36,0
190.88387,191.11284,56,36,0
191.62395,192.03699,51,29,0
192.05873,192.47177,51,29,0
192.49352,192.93883,51,29,0
191.18916,192.96227,55,45,0
193.39392,193.80399,51,29,0
193.82558,194.23564,51,29,0
194.25723,194.68332,51,29,0
192.96227,194.70605,56,36,0
194.70605,194.92033,39,41,0
194.99176,195.20407,43,38,0
195.27351,195.48184,46,38,0
195.55128,195.75963,51,48,0
195.82907,196.0374,55,48,0
196.10684,196.31519,58,51,0
196.38463,196.59296,61,55,0
196.6624,196.87073,65,49,0
196.94019,197.14851,63,49,0
197.21796,197.42628,61,53,0
197.49573,197.70709,60,44,0
197.77956,197.99695,58,44,0
198.06941,198.28369,56,39,0
198.35512,198.56941,63,42,0
198.64084,198.85512,60,37,0
198.92654,199.14084,56,42,0
199.21227,199.42654,51,32,0
199.49986,199.72542,48,32,0
200.08429,200.29706,60,36,0
200.36798,200.58075,56,36,0
200.65167,200.86444,51,47,0
200.93536,201.15297,48,38,0
201.22871,201.456,44,40,0
202.09912,202.397,51,36,0
202.38281,202.68068,53,36,0
202.6665,202.96776,54,41,0
202.9526,203.26962,55,43,0
203.25565,203.54935,56,46,0
203.53535,203.82907,57,48,0
203.81508,204.10878,58,49,0
204.0948,204.3885,59,52,0
204.37453,204.68105,60,54,0
204.6659,204.96892,61,57,0
201.81544,204.96892,49,32,0
205.24864,205.52837,63,56,0
205.52837,205.80809,62,45,0
206.0878,206.37259,61,46,0
206.37259,206.66245,60,46,0
204.96892,206.66245,51,56,0
206.94217,207.2219,58,51,0
207.2219,207.50162,60,44,0
207.78133,208.08926,61,44,0
208.08926,208.4254,55,44,0
206.66245,208.4254,51,32,0
208.4254,210.36116,55,51,0
210.36116,211.30605,56,35,0
208.4254,211.30605,44,32,0
212.25093,213.92575,65,76,0
212.25093,213.92924,63,76,0
212.25093,213.92924,60,76,0
212.25093,213.92924,57,76,0
215.43184,215.62282,53,36,0
215.43184,215.62282,45,30,0
215.64018,218.28723,53,41,0
215.64018,218.28723,46,35,0
219.16959,220.8562,63,76,0
219.16959,220.85973,61,76,0
219.16959,220.85973,58,76,0
219.16959,220.85973,55,76,0
222.40056,222.5956,51,36,0
222.40056,222.5956,43,30,0
222.61333,225.16652,51,41,0
222.61333,225.16652,44,35,0
225.96439,226.12473,47,89,0
226.01758,227.28851,59,92,0
227.28851,227.35748,59,59,0
227.35748,227.42645,56,57,0
227.42645,227.49542,52,56,0
227.49542,227.56438,47,56,0
227.5661,227.63507,44,55,0
227.63335,227.70232,40,53,0
227.70232,228.13089,35,91,0
229.19351,229.38187,47,46,0
229.19351,229.38187,35,46,0
229.39899,231.97041,47,52,0
229.39899,231.97041,35,70,0
232.60732,232.7983,47,46,0
232.60732,232.7983,35,46,0
232.81566,234.52994,47,52,0
232.81566,234.52994,35,70,0
234.52994,235.38708,46,46,0
234.52994,235.38708,34,43,0
236.02399,236.21497,46,46,0
236.02399,236.21497,34,46,0
236.23232,237.94661,46,52,0
236.23232,237.94661,34,70,0
237.94661,238.37518,51,46,0
237.94661,238.37518,39,43,0
243.01874,243.82726,61,29,0
243.01874,243.82726,63,35,0
243.86981,244.67831,61,25,0
243.86981,244.67831,63,30,0
244.72087,245.52939,61,25,0
244.72087,245.52939,63,30,0
245.57193,246.3951,61,25,0
245.57193,246.3951,63,30,0
246.4416,247.26175,60,29,0
246.4416,247.26175,63,35,0
247.30492,248.12506,60,23,0
247.30492,248.12506,63,28,0
248.16823,248.98837,60,23,0
248.16823,248.98837,63,28,0
249.03154,249.85168,60,23,0
249.03154,249.85168,63,28,0
249.89484,250.71498,61,29,0
249.89484,250.71498,63,35,0
249.89484,250.71498,55,29,0
250.75815,251.5783,61,25,0
250.75815,251.5783,63,30,0
250.75815,251.5783,55,25,0
251.62146,252.4416,61,25,0
251.62146,252.4416,63,30,0
251.62146,252.4416,55,25,0
252.48477,253.10977,60,25,0
253.10977,253.34233,58,25,0
252.48477,253.34233,63,30,0
252.48477,253.34233,55,25,0
253.34233,254.15662,59,29,0
253.34233,254.15662,63,35,0
253.34233,254.15662,56,29,0
254.19948,255.01376,60,23,0
254.19948,255.01376,63,28,0
254.19948,255.01376,56,23,0
255.05661,255.85944,60,23,0
255.05661,255.85944,63,28,0
255.05661,255.85944,56,23,0
255.90169,256.72128,60,23,0
255.90169,256.72128,63,28,0
255.90169,256.72128,56,28,0
256.76624,257.668,63,30,0
256.76624,257.668,61,25,0
257.71182,258.61505,63,30,0
257.71182,258.61505,61,25,0
258.6576,259.4661,63,30,0
258.6576,259.4661,61,25,0
259.50864,260.36264,63,30,0
259.50864,260.36264,61,25,0
261.27982,262.12872,63,30,0
261.27982,262.12872,60,25,0
262.1779,262.99805,63,30,0
262.1779,262.99805,60,25,0
263.0412,263.86136,63,30,0
263.0412,263.86136,60,25,0
263.9045,264.8339,63,30,0
263.9045,264.8339,61,25,0
263.9045,264.8339,55,25,0
264.8964,265.7317,63,30,0
264.8964,265.7317,55,25,0
264.8964,265.7317,58,25,0
264.8964,265.7317,61,25,0
265.77393,266.57675,63,30,0
265.77393,266.57675,55,25,0
265.77393,266.57675,58,25,0
265.77393,266.57675,61,25,0
266.619,267.5937,63,30,0
266.619,267.5937,55,25,0
266.619,267.5937,58,25,0
266.619,267.5937,61,25,0
268.49225,269.36816,63,30,0
268.49225,269.36816,60,30,0
268.49225,269.36816,56,30,0
270.20734,271.08966,67,32,0
270.20734,271.08966,58,32,0
270.20734,271.08966,61,32,0
270.20734,271.08966,63,32,0
271.91727,272.79962,68,37,0
271.91727,272.79962,63,37,0
271.91727,272.79962,60,37,0
273.6272,274.50955,68,43,0
273.6272,274.50955,64,43,0
273.6272,274.50955,60,43,0
275.32587,276.18918,68,51,0
275.32587,276.18918,65,51,0
275.32587,276.18918,61,51,0
277.02835,277.97324,70,60,0
277.02835,277.97324,64,60,0
277.02835,277.97324,61,60,0
277.02835,277.97324,67,60,0
278.8243,279.72226,71,60,0
278.8243,279.72226,62,60,0
278.8243,279.72226,65,60,0
278.8243,279.72226,68,60,0
282.27933,283.15344,51,34,0
282.27933,283.15344,56,34,0
282.27933,283.15344,60,40,0
283.9868,284.8722,51,34,0
283.9868,284.8722,55,34,0
283.9868,284.8722,61,40,0
285.4662,285.7519,56,32,0
285.7519,286.03763,51,39,0
286.03763,286.3079,48,32,0
286.3079,286.60864,44,32,0
287.18008,287.4658,58,34,0
287.4658,287.7515,55,39,0
287.7515,288.02176,51,33,0
288.02176,288.3225,46,33,0
288.89395,289.17966,60,33,0
289.17966,289.4654,56,40,0
289.4654,289.73566,51,34,0
289.73566,290.0364,48,34,0
290.60782,290.89355,60,46,0
290.89355,291.17926,56,53,0
291.17926,291.44952,52,46,0
291.44952,291.75027,48,46,0
292.3197,292.60138,61,47,0
292.60138,292.8831,56,58,0
292.8831,293.15335,53,49,0
293.15335,293.4541,49,49,0
294.02353,294.3052,61,56,0
294.3052,294.58688,58,63,0
294.58688,294.85718,55,54,0
294.85718,295.15793,51,55,0
296.57242,298.6173,52,65,0
295.72733,298.6173,62,78,0
296.00903,298.6173,59,57,0
296.2907,298.6173,56,61,0
298.9298,299.0727,51,64,0
299.21555,299.3569,56,64,0
299.49677,299.63663,60,64,0
299.7765,299.91632,63,58,0
300.05618,300.19604,68,58,0
300.3359,300.6314,72,64,0
300.6314,300.9151,71,58,0
300.9151,301.1968,73,58,0
301.1968,301.40808,72,64,0
301.4785,301.68976,70,59,0
301.7602,301.99457,68,59,0
302.0727,305.40826,63,52,0
302.0727,305.40826,73,62,0
305.68036,305.8232,39,64,0
305.96606,306.10895,44,64,0
306.2518,306.39166,48,64,0
306.53152,306.67136,51,58,0
306.81122,306.95108,56,58,0
307.09094,307.3917,60,64,0
307.3917,307.67743,59,58,0
307.67743,307.96313,61,58,0
307.96313,308.17743,60,64,0
308.24884,308.46313,58,59,0
308.53458,308.76895,56,59,0
308.84708,312.23065,51,52,0
308.84708,312.23065,61,62,0
312.23065,313.09415,56,39,0
313.09415,313.99213,51,32,0
313.99213,314.86166,55,39,0
314.86166,315.751,51,29,0
315.751,316.6399,56,42,0
316.6399,317.49704,51,36,0
317.49704,318.38593,48,38,0
318.38593,319.27243,44,40,0
319.27243,320.1358,43,46,0
320.1358,321.0331,39,32,0
321.0331,321.89032,44,29,0
321.89032,322.76312,48,32,0
322.76312,323.60837,51,36,0
323.60837,324.4417,53,42,0
325.25803,326.11957,49,33,0
324.4417,326.95874,51,36,0
326.11957,327.78632,48,43,0
326.95874,328.61966,56,43,0
327.78632,329.4775,46,36,0
328.61966,330.32257,55,43,0
329.4775,331.1559,44,46,0
330.32257,331.97223,56,43,0
331.97223,332.3804,58,43,0
332.3804,332.81836,61,41,0
331.1559,332.81836,49,45,0
332.81836,334.5026,51,53,0
333.66342,335.33017,60,53,0
334.5026,336.19852,51,36,0
335.33017,337.0261,55,53,0
337.0261,337.84244,56,53,0
336.19852,337.84244,51,49,0
336.19852,337.84244,44,49,0
337.84244,338.67297,58,55,0
337.84244,338.67297,51,46,0
337.84244,338.67297,46,46,0
338.67297,339.58463,59,59,0
338.67297,339.58463,51,50,0
338.67297,339.58463,47,50,0
339.58463,340.4388,60,53,0
340.01627,340.86133,56,53,0
339.58463,341.3091,51,64,0
339.58463,341.3091,48,64,0
340.86133,341.74075,56,53,0
341.74075,342.58582,55,53,0
341.3091,343.0336,51,52,0
341.3091,343.0336,46,52,0
342.58582,343.46216,55,53,0
343.46216,344.3074,56,53,0
343.0336,344.72406,44,55,0
345.135,345.546,57,53,0
344.3074,345.546,56,53,0
345.546,345.95694,58,53,0
344.72406,346.3949,49,48,0
345.95694,347.21716,61,53,0
347.21716,348.0341,60,53,0
346.3949,348.0341,51,58,0
348.0341,348.86844,61,53,0
348.86844,349.7368,61,46,0
348.86844,349.7368,58,46,0
348.0341,349.7368,51,52,0
349.7368,350.57013,56,40,0
349.7368,350.57013,44,40,0
350.57013,351.4007,48,36,0
351.4007,352.2226,51,36,0
352.2226,353.04453,56,36,0
353.04453,353.87225,55,40,0
353.87225,354.71143,53,36,0
354.71143,355.52774,51,36,0
355.52774,356.38367,55,39,0
356.38367,357.22015,56,40,0
357.22015,358.07123,51,36,0
358.07123,358.8988,48,36,0
358.8988,359.7264,44,33,0
359.7264,360.54846,43,40,0
360.54846,361.3818,41,37,0
361.3818,362.21515,39,40,0
362.21515,363.04846,43,38,0
363.04846,363.88184,44,40,0
363.88184,364.7124,39,36,0
364.7124,365.5343,36,36,0
365.5343,366.35623,44,36,0
365.5343,366.35623,32,30,0
366.35623,367.18396,43,40,0
366.35623,367.18396,31,34,0
367.18396,368.02313,41,36,0
367.18396,368.02313,29,30,0
368.02313,368.8507,43,36,0
368.02313,368.8507,31,30,0
368.8507,369.71228,39,39,0
369.71228,370.54877,32,40,0
371.3998,372.22757,39,34,0
372.22757,373.0643,36,31,0
373.0643,373.88638,32,31,0
370.54877,373.88638,44,35,0
374.72656,375.5881,39,35,0
375.5881,376.45544,36,33,0
376.45544,377.30405,32,29,0
373.88638,377.30405,44,33,0
378.15295,379.0079,39,32,0
379.0079,379.90665,36,30,0
379.90665,380.80215,32,26,0
377.30405,380.80215,44,31,0
381.6977,382.6352,32,24,0
383.5727,388.6253,32,25,0
