start_time,end_time,note_value,velocity,instrument_program_number
0.44226,0.58968,60,40,0
0.58968,0.7371,59,45,0
0.7371,0.88452,60,40,0
0.88452,0.956119,65,45,0
1.027718,1.1151814,65,38,0
1.202645,1.493907,63,45,0
1.639538,1.786958,60,40,0
1.786958,1.934378,59,45,0
1.934378,2.081798,60,40,0
2.081798,2.1535683,68,45,0
2.2253385,2.3130577,68,38,0
2.400777,2.692039,67,45,0
2.83767,2.98509,60,40,0
2.98509,3.13251,59,45,0
3.13251,3.27993,60,40,0
3.27993,3.3531008,72,45,0
3.4262714,3.5127268,72,38,0
3.599182,3.7458816,72,45,0
3.7458816,3.7825563,74,45,0
3.7825563,3.8192313,72,45,0
3.8192313,3.855906,71,40,0
3.855906,3.892581,72,45,0
3.892581,4.0392804,75,50,0
4.0392804,4.1928444,74,45,0
4.1928444,4.3391857,77,56,0
4.3391857,4.485527,75,53,0
4.485527,4.631869,74,50,0
4.631869,4.80136,72,47,0
4.80136,5.0926223,71,51,0
5.238253,5.3838844,55,40,0
5.3838844,5.5302258,54,45,0
5.5302258,5.676567,55,40,0
5.676567,5.749738,60,45,0
5.822909,5.9076543,60,38,0
5.9924,6.2843714,59,45,0
6.430357,6.576342,55,40,0
6.576342,6.723762,54,45,0
6.723762,6.8711824,55,40,0
6.8711824,6.944353,63,45,0
7.017524,7.103238,63,38,0
7.1889524,7.485248,62,45,0
7.633396,7.7074704,55,45,0
7.781544,7.854715,59,51,0
7.9278855,8.001057,62,45,0
8.074227,8.147398,65,45,0
8.220569,8.293739,68,45,0
8.36691,8.440081,71,55,0
8.513251,8.586423,74,53,0
8.659594,8.732764,77,56,0
8.805935,8.882077,80,60,0
8.95822,9.031929,79,63,0
9.105639,9.179349,77,59,0
9.253059,9.326769,75,55,0
9.400479,9.484986,74,54,0
9.569493,9.862892,72,62,0
10.009592,10.156291,72,50,0
10.156291,10.304074,71,57,0
10.304074,10.4518585,72,53,0
10.4518585,10.525029,84,60,0
10.5982,10.682469,84,52,0
10.766739,11.059781,84,60,0
11.206122,11.352464,89,59,0
11.352464,11.498805,87,65,0
11.498805,11.645147,86,60,0
11.645147,11.791489,84,66,0
11.791489,11.948969,83,60,0
11.948969,12.0946,86,69,0
12.0946,12.240231,84,60,0
12.385862,12.531493,72,50,0
12.531493,12.678913,71,57,0
12.678913,12.826333,72,53,0
12.826333,12.899504,84,60,0
12.972674,13.057181,84,52,0
13.141688,13.434372,84,60,0
13.434372,13.47254,86,60,0
13.47254,13.510708,84,60,0
13.510708,13.548876,83,60,0
13.548876,13.587044,84,60,0
13.587044,13.733385,89,59,0
13.733385,13.879371,87,65,0
13.879371,14.025356,86,60,0
14.025356,14.171342,84,66,0
14.171342,14.327999,83,60,0
14.327999,14.401349,84,69,0
14.401349,14.474699,86,63,0
14.474699,14.548049,84,63,0
14.548049,14.621399,83,63,0
14.621399,14.694748,84,69,0
14.694748,14.768098,87,73,0
14.768098,14.841448,86,72,0
14.841448,14.93319,84,71,0
14.93319,15.006362,83,72,0
15.006362,15.079533,84,65,0
15.079533,15.152703,83,65,0
15.152703,15.225874,80,65,0
15.225874,15.299045,79,69,0
15.299045,15.372215,77,63,0
15.372215,15.445386,75,63,0
15.445386,15.537129,74,63,0
15.537129,15.610478,72,69,0
15.610478,15.683828,74,63,0
15.683828,15.757178,72,63,0
15.757178,15.830528,71,61,0
15.830528,15.903878,72,66,0
15.903878,15.977227,75,72,0
15.977227,16.050577,74,70,0
16.050577,16.142601,72,67,0
16.142601,16.215773,71,69,0
16.215773,16.288942,72,63,0
16.288942,16.362114,71,63,0
16.362114,16.435286,68,63,0
16.435286,16.508455,67,69,0
16.508455,16.581627,65,63,0
16.581627,16.654797,63,63,0
16.654797,16.74654,62,63,0
16.74654,16.819712,60,77,0
16.819712,16.892881,62,69,0
16.892881,16.966053,60,69,0
16.966053,17.039223,59,69,0
17.039223,17.112394,60,77,0
17.112394,17.185564,63,69,0
17.185564,17.258736,62,69,0
17.258736,17.350199,60,69,0
17.350199,17.424826,59,77,0
17.424826,17.499453,67,69,0
17.499453,17.57408,62,69,0
17.57408,17.648706,59,69,0
17.648706,17.723333,55,79,0
17.723333,17.797958,67,69,0
17.797958,17.872585,63,69,0
17.872585,17.947212,60,69,0
17.947212,18.02184,55,81,0
18.02184,18.096466,67,69,0
18.096466,18.171093,62,69,0
18.171093,18.24572,59,69,0
18.24572,18.320347,55,80,0
18.320347,18.394974,67,69,0
18.394974,18.4696,63,69,0
18.4696,18.544228,60,69,0
18.544228,18.618853,55,80,0
18.618853,18.69348,67,69,0
18.69348,18.768106,62,69,0
18.768106,18.842733,59,69,0
18.842733,18.91736,55,80,0
18.91736,18.991987,67,69,0
18.991987,19.066614,63,69,0
19.066614,19.156166,60,69,0
19.156166,20.257084,67,89,0
19.156166,20.257084,55,74,0
19.156166,20.257084,59,74,0
19.156166,20.257084,62,74,0
20.411724,20.489042,58,40,0
20.566362,20.643682,60,37,0
20.721,20.79832,62,37,0
20.87564,20.95296,63,46,0
21.03028,21.1076,65,40,0
21.184917,21.26644,67,40,0
20.87564,21.511005,58,39,0
20.87564,21.511005,55,39,0
21.511005,21.591005,65,45,0
21.511005,21.591005,62,38,0
21.511005,21.591005,58,38,0
21.831005,21.911005,63,39,0
21.831005,21.911005,58,33,0
22.186445,22.824743,68,45,0
22.186445,22.824743,56,37,0
22.186445,22.824743,58,37,0
22.186445,22.824743,62,37,0
22.984318,23.061636,58,40,0
23.138956,23.216276,60,37,0
23.293594,23.370914,62,37,0
23.448235,23.525555,63,46,0
23.602873,23.680193,65,40,0
23.757513,23.839033,67,40,0
23.448235,24.0836,58,39,0
23.448235,24.0836,55,39,0
24.0836,24.163599,65,45,0
24.0836,24.163599,60,38,0
24.0836,24.163599,53,38,0
24.403599,24.483599,63,39,0
24.403599,24.483599,53,33,0
24.403599,24.483599,60,33,0
24.759039,25.399038,58,37,0
24.759039,25.399038,53,31,0
24.759039,25.399038,50,31,0
25.559038,25.636358,58,40,0
25.713678,25.790997,60,37,0
25.868317,25.945637,62,37,0
26.022955,26.100275,63,46,0
26.177595,26.254913,65,40,0
26.332233,26.413755,67,40,0
26.022955,26.658321,58,39,0
26.022955,26.658321,55,39,0
26.658321,26.738321,65,45,0
26.658321,26.738321,62,38,0
26.658321,26.738321,58,38,0
26.978321,27.058321,63,39,0
26.978321,27.058321,58,33,0
27.341278,27.969305,68,63,0
27.319153,27.969305,60,45,0
27.330215,27.969305,63,50,0
27.352339,28.123547,72,72,0
28.123547,28.200668,72,48,0
28.277788,28.35491,70,53,0
28.43203,28.519493,68,50,0
28.606956,28.760803,67,53,0
28.760803,28.914648,65,48,0
28.914648,28.991571,63,48,0
29.068495,29.145418,62,48,0
29.222342,29.530033,60,53,0
29.530033,29.843452,58,49,0
29.222342,29.843452,56,45,0
29.222342,29.843452,53,45,0
29.843452,30.451048,58,49,0
29.843452,30.451048,55,41,0
29.843452,30.451048,51,41,0
30.60372,30.680056,70,48,0
30.756392,30.832727,68,53,0
30.909063,30.99405,67,50,0
31.079035,31.232096,67,53,0
31.232096,31.385157,65,48,0
31.385157,31.461687,63,48,0
31.538218,31.614748,62,48,0
31.691278,31.9974,60,53,0
31.9974,32.308357,58,49,0
31.691278,32.308357,56,45,0
31.691278,32.308357,53,45,0
32.308357,32.91289,58,54,0
32.308357,32.91289,55,54,0
32.308357,32.91289,51,54,0
33.06634,33.14307,70,48,0
33.06634,33.14307,82,48,0
33.219795,33.29652,68,53,0
33.219795,33.29652,80,53,0
33.37325,33.45346,67,50,0
33.37325,33.45346,79,50,0
33.533676,33.68596,67,55,0
33.533676,33.68596,79,55,0
33.68596,33.838245,65,48,0
33.68596,33.838245,77,48,0
33.838245,33.914387,63,48,0
33.838245,33.914387,75,48,0
33.99053,34.066673,62,48,0
33.99053,34.066673,74,48,0
34.142815,34.21915,72,55,0
34.142815,34.21915,60,55,0
34.295486,34.371822,70,48,0
34.295486,34.371822,58,48,0
34.44816,34.524494,72,48,0
34.44816,34.524494,60,48,0
34.60083,34.682575,74,48,0
34.60083,34.682575,62,48,0
34.76393,34.840343,63,48,0
34.840343,34.916542,75,43,0
34.916542,34.99298,63,48,0
34.99298,35.069237,75,42,0
35.069237,35.145817,63,49,0
35.145817,35.221798,75,43,0
35.221798,35.29865,63,50,0
35.29865,35.374695,75,45,0
35.374695,35.451836,63,51,0
35.451836,35.52833,75,44,0
35.52833,35.604397,63,52,0
35.604397,35.680668,75,47,0
35.680668,35.757004,63,53,0
35.757004,35.83334,75,47,0
35.83334,35.912495,63,53,0
35.912495,35.99165,75,47,0
35.99165,36.06806,63,54,0
36.06806,36.14426,75,48,0
36.14426,36.2207,63,55,0
36.2207,36.296955,75,48,0
36.296955,36.373535,63,55,0
36.373535,36.449516,75,48,0
36.449516,36.526367,63,56,0
36.526367,36.602413,75,51,0
36.602413,36.679554,63,57,0
36.679554,36.75605,75,49,0
36.75605,36.832115,63,58,0
36.832115,36.908386,75,53,0
36.908386,36.984722,63,59,0
36.984722,37.061058,75,54,0
37.061058,37.140213,63,60,0
37.140213,37.219368,75,54,0
37.219368,37.525272,75,70,0
37.219368,37.525272,63,70,0
37.6785,37.831852,75,74,0
37.831852,37.985386,74,84,0
37.985386,38.13837,75,77,0
38.13837,38.222878,80,86,0
38.13837,38.222878,84,86,0
38.307384,38.423214,84,79,0
38.307384,38.423214,80,79,0
38.53029,38.837982,80,92,0
38.53029,38.914906,84,92,0
38.914906,38.99183,82,74,0
38.99183,39.067883,80,73,0
39.067883,39.14383,79,72,0
39.14383,39.219856,77,72,0
39.219856,39.295998,75,72,0
39.295998,39.37214,74,71,0
39.37214,39.448456,72,70,0
39.448456,39.52479,71,69,0
39.52479,39.601204,70,68,0
39.601204,39.677734,69,67,0
39.677734,39.754265,68,66,0
39.754265,39.856304,67,66,0
39.856304,39.958347,68,62,0
39.958347,40.060387,70,62,0
40.060387,40.16234,68,66,0
40.16234,40.26397,67,62,0
40.26397,40.365925,65,62,0
40.365925,40.46825,63,66,0
40.46825,40.570816,62,62,0
40.570816,40.673378,60,62,0
40.673378,40.775944,58,66,0
40.775944,40.880276,56,60,0
40.880276,40.986374,55,63,0
41.06659,41.146805,53,59,0
41.146805,41.22353,56,63,0
41.22353,41.300255,60,67,0
41.300255,41.45371,65,72,0
41.686737,41.76631,53,63,0
41.76631,41.843037,56,66,0
41.843037,41.919765,58,69,0
41.919765,42.073215,62,72,0
42.234653,42.311775,74,67,0
42.311775,42.38876,86,60,0
42.38876,42.4656,74,67,0
42.4656,42.542324,86,60,0
42.542324,42.618866,74,67,0
42.618866,42.695263,86,59,0
42.695263,42.771206,74,67,0
42.771206,42.846962,86,61,0
42.846962,42.92272,74,67,0
42.92272,42.998657,86,59,0
42.998657,43.074608,74,67,0
43.074608,43.15059,86,59,0
43.15059,43.226734,74,67,0
43.226734,43.302876,86,59,0
43.302876,43.3791,74,67,0
43.3791,43.455437,86,60,0
43.455437,43.53256,75,67,0
43.53256,43.609543,87,60,0
43.609543,43.686382,75,69,0
43.686382,43.763107,87,62,0
43.763107,43.839653,75,71,0
43.839653,43.91605,87,63,0
43.91605,43.99199,75,72,0
43.99199,44.067745,87,67,0
44.067745,44.143505,75,75,0
44.143505,44.21944,87,67,0
44.21944,44.29539,75,77,0
44.29539,44.371376,87,69,0
44.371376,44.447517,76,80,0
44.447517,44.52366,88,71,0
44.52366,44.599884,76,81,0
44.599884,44.67622,88,73,0
44.756435,44.83665,77,71,0
44.83665,44.913376,80,76,0
44.913376,44.9901,84,81,0
44.9901,45.143555,89,86,0
45.376583,45.456158,74,75,0
45.456158,45.532883,77,79,0
45.532883,45.60961,80,82,0
45.60961,45.76306,86,86,0
45.9245,46.232983,87,94,0
45.9245,46.232983,75,80,0
45.9245,46.232983,82,80,0
45.9245,46.232983,79,80,0
46.232983,46.307423,82,63,0
46.381866,46.4604,82,63,0
46.538933,46.69278,82,70,0
46.846626,46.921066,82,63,0
46.99551,47.074043,82,63,0
47.152576,47.30682,82,69,0
47.46106,47.613346,62,72,0
47.46106,47.613346,56,60,0
47.46106,47.613346,53,60,0
48.070198,48.14792,62,39,0
48.070198,48.14792,56,33,0
48.070198,48.14792,53,33,0
48.38108,48.457417,63,45,0
48.38108,48.457417,55,37,0
48.686424,48.76199,65,41,0
48.686424,48.76199,63,35,0
48.686424,48.76199,60,35,0
48.98869,49.06426,67,45,0
48.98869,49.06426,63,37,0
48.98869,49.06426,58,37,0
49.29096,49.36868,65,39,0
49.29096,49.36868,62,33,0
49.29096,49.36868,56,33,0
49.601837,49.67798,63,45,0
49.601837,49.67798,55,37,0
49.906406,49.98085,82,63,0
49.98085,50.05529,84,59,0
50.05529,50.133823,82,63,0
50.133823,50.21236,81,59,0
50.21236,50.366203,82,70,0
50.52005,50.594494,82,63,0
50.594494,50.668934,84,58,0
50.668934,50.747467,82,63,0
50.747467,50.826,81,57,0
50.826,50.980244,82,69,0
51.134483,51.28677,62,72,0
51.134483,51.28677,56,60,0
51.134483,51.28677,53,60,0
51.74362,52.35901,63,66,0
51.74362,52.35901,51,55,0
51.74362,52.35901,54,55,0
51.74362,52.35901,57,55,0
52.35901,52.434574,65,41,0
52.35901,52.434574,63,35,0
52.35901,52.434574,60,35,0
52.661274,52.73684,67,45,0
52.661274,52.73684,63,37,0
52.661274,52.73684,58,37,0
52.963543,53.04126,65,39,0
52.963543,53.04126,62,33,0
52.963543,53.04126,56,33,0
53.27442,53.42671,63,45,0
53.27442,53.42671,55,37,0
53.57899,53.728992,68,36,0
53.57899,53.728992,62,30,0
53.728992,53.88403,67,32,0
53.728992,53.88403,63,27,0
54.1886,54.336746,74,37,0
54.1886,54.336746,68,31,0
54.336746,54.491386,75,32,0
54.336746,54.491386,67,27,0
54.79518,54.944435,74,31,0
54.79518,54.944435,80,37,0
54.944435,55.099476,79,32,0
54.944435,55.099476,75,27,0
55.40327,55.553272,80,36,0
55.40327,55.553272,86,43,0
55.553272,55.712,87,36,0
55.553272,55.712,79,30,0
56.035454,56.342358,63,57,0
56.035454,56.342358,58,48,0
56.035454,56.342358,55,48,0
57.416527,57.563946,60,40,0
57.563946,57.711365,59,45,0
57.711365,57.858784,60,40,0
57.858784,57.930386,65,45,0
58.001984,58.089447,65,38,0
58.17691,58.46817,63,45,0
58.613804,58.761223,60,40,0
58.761223,58.90864,59,45,0
58.90864,59.056065,60,40,0
59.056065,59.127834,68,45,0
59.199604,59.287323,68,38,0
59.375042,59.666306,67,45,0
59.811935,59.959354,60,40,0
59.959354,60.106773,59,45,0
60.106773,60.254196,60,40,0
60.254196,60.327366,72,45,0
60.400536,60.48699,72,38,0
60.57345,60.720146,72,45,0
60.720146,60.75682,74,45,0
60.75682,60.793495,72,45,0
60.793495,60.83017,71,40,0
60.83017,60.866844,72,45,0
60.866844,61.013546,75,50,0
61.013546,61.16711,74,45,0
61.16711,61.31345,77,56,0
61.31345,61.459793,75,53,0
61.459793,61.606133,74,50,0
61.606133,61.775627,72,47,0
61.775627,62.066887,71,51,0
62.212517,62.35815,55,40,0
62.35815,62.50449,54,45,0
62.50449,62.650833,55,40,0
62.650833,62.724003,60,45,0
62.797173,62.88192,60,38,0
62.966667,63.258636,59,45,0
63.40462,63.550606,55,40,0
63.550606,63.69803,54,45,0
63.69803,63.845448,55,40,0
63.845448,63.918617,63,45,0
63.991787,64.0775,63,38,0
64.163216,64.45951,62,45,0
64.60766,64.68173,55,45,0
64.755806,64.82898,59,51,0
64.90215,64.97532,62,45,0
65.04849,65.121666,65,45,0
65.19483,65.268005,68,45,0
65.34118,65.414345,71,55,0
65.48752,65.560684,74,53,0
65.63386,65.70703,77,56,0
65.7802,65.85634,80,60,0
65.93249,66.006195,79,63,0
66.0799,66.15362,77,59,0
66.227325,66.30103,75,55,0
66.37474,66.45925,74,54,0
66.543755,66.83716,72,62,0
66.98386,67.130554,72,50,0
67.130554,67.27834,71,57,0
67.27834,67.426125,72,53,0
67.426125,67.49929,84,60,0
67.572464,67.65674,84,52,0
67.741005,68.03404,84,60,0
68.18039,68.32673,89,59,0
68.32673,68.47307,87,65,0
68.47307,68.619415,86,60,0
68.619415,68.765755,84,66,0
68.765755,68.92323,83,60,0
68.92323,69.06886,86,69,0
69.06886,69.21449,84,60,0
69.36013,69.50576,72,50,0
69.50576,69.653175,71,57,0
69.653175,69.8006,72,53,0
69.8006,69.87377,84,60,0
69.94694,70.03145,84,52,0
70.11595,70.40864,84,60,0
70.40864,70.44681,86,60,0
70.44681,70.48497,84,60,0
70.48497,70.52314,83,60,0
70.52314,70.56131,84,60,0
70.56131,70.70765,89,59,0
70.70765,70.85364,87,65,0
70.85364,70.99962,86,60,0
70.99962,71.14561,84,66,0
71.14561,71.30226,83,60,0
71.30226,71.37562,84,69,0
71.37562,71.44897,86,63,0
71.44897,71.522316,84,63,0
71.522316,71.595665,83,63,0
71.595665,71.669014,84,69,0
71.669014,71.74236,87,73,0
71.74236,71.81571,86,72,0
71.81571,71.907455,84,71,0
71.907455,71.98063,83,72,0
71.98063,72.053795,84,65,0
72.053795,72.12697,83,65,0
72.12697,72.20014,80,65,0
72.20014,72.27331,79,69,0
72.27331,72.34648,77,63,0
72.34648,72.419655,75,63,0
72.419655,72.51139,74,63,0
72.51139,72.58475,72,69,0
72.58475,72.6581,74,63,0
72.6581,72.731445,72,63,0
72.731445,72.804794,71,61,0
72.804794,72.87814,72,66,0
72.87814,72.95149,75,72,0
72.95149,73.02484,74,70,0
73.02484,73.11687,72,67,0
73.11687,73.19004,71,69,0
73.19004,73.26321,72,63,0
73.26321,73.33638,71,63,0
73.33638,73.40955,68,63,0
73.40955,73.48272,67,69,0
73.48272,73.55589,65,63,0
73.55589,73.62906,63,63,0
73.62906,73.7208,62,63,0
73.7208,73.793976,60,77,0
73.793976,73.86715,62,69,0
73.86715,73.940315,60,69,0
73.940315,74.01349,59,69,0
74.01349,74.08666,60,77,0
74.08666,74.15983,63,69,0
74.15983,74.233,62,69,0
74.233,74.32446,60,69,0
74.32446,74.39909,59,77,0
74.39909,74.47372,67,69,0
74.47372,74.54835,62,69,0
74.54835,74.62297,59,69,0
74.62297,74.6976,55,79,0
74.6976,74.772224,67,69,0
74.772224,74.84685,63,69,0
74.84685,74.92148,60,69,0
74.92148,74.9961,55,81,0
74.9961,75.07073,67,69,0
75.07073,75.145355,62,69,0
75.145355,75.219986,59,69,0
75.219986,75.29461,55,80,0
75.29461,75.36924,67,69,0
75.36924,75.44386,63,69,0
75.44386,75.51849,60,69,0
75.51849,75.59312,55,80,0
75.59312,75.66775,67,69,0
75.66775,75.74237,62,69,0
75.74237,75.817,59,69,0
75.817,75.891624,55,80,0
75.891624,75.966255,67,69,0
75.966255,76.04088,63,69,0
76.04088,76.13043,60,69,0
76.13043,77.231346,67,89,0
76.13043,77.231346,55,74,0
76.13043,77.231346,59,74,0
76.13043,77.231346,62,74,0
77.38599,77.46331,58,40,0
77.54063,77.61795,60,37,0
77.69527,77.77258,62,37,0
77.84991,77.92722,63,46,0
78.00455,78.08186,65,40,0
78.15918,78.24071,67,40,0
77.84991,78.48527,58,39,0
77.84991,78.48527,55,39,0
78.48527,78.56527,65,45,0
78.48527,78.56527,62,38,0
78.48527,78.56527,58,38,0
78.80527,78.88527,63,39,0
78.80527,78.88527,58,33,0
79.16071,79.79901,68,45,0
79.16071,79.79901,56,37,0
79.16071,79.79901,58,37,0
79.16071,79.79901,62,37,0
79.95858,80.035904,58,40,0
80.11322,80.190544,60,37,0
80.26786,80.34518,62,37,0
80.4225,80.49982,63,46,0
80.57714,80.65446,65,40,0
80.73178,80.8133,67,40,0
80.4225,81.05786,58,39,0
80.4225,81.05786,55,39,0
81.05786,81.13786,65,45,0
81.05786,81.13786,60,38,0
81.05786,81.13786,53,38,0
81.37786,81.45786,63,39,0
81.37786,81.45786,53,33,0
81.37786,81.45786,60,33,0
81.73331,82.37331,58,37,0
81.73331,82.37331,53,31,0
81.73331,82.37331,50,31,0
82.5333,82.61063,58,40,0
82.68794,82.76526,60,37,0
82.84258,82.9199,62,37,0
82.99722,83.07454,63,46,0
83.15186,83.22918,65,40,0
83.306496,83.38802,67,40,0
82.99722,83.63258,58,39,0
82.99722,83.63258,55,39,0
83.63258,83.712585,65,45,0
83.63258,83.712585,62,38,0
83.63258,83.712585,58,38,0
83.95258,84.032585,63,39,0
83.95258,84.032585,58,33,0
84.315544,84.94357,68,63,0
84.29342,84.94357,60,45,0
84.30448,84.94357,63,50,0
84.32661,85.09781,72,72,0
85.09781,85.174934,72,48,0
85.25205,85.32918,70,53,0
85.406296,85.49376,68,50,0
85.58122,85.73507,67,53,0
85.73507,85.888916,65,48,0
85.888916,85.965836,63,48,0
86.04276,86.11968,62,48,0
86.19661,86.504295,60,53,0
86.504295,86.81772,58,49,0
86.19661,86.81772,56,45,0
86.19661,86.81772,53,45,0
86.81772,87.425316,58,49,0
86.81772,87.425316,55,41,0
86.81772,87.425316,51,41,0
87.57799,87.65432,70,48,0
87.73066,87.80699,68,53,0
87.88333,87.968315,67,50,0
88.0533,88.20636,67,53,0
88.20636,88.35942,65,48,0
88.35942,88.43595,63,48,0
88.51248,88.58901,62,48,0
88.66554,88.971664,60,53,0
88.971664,89.28262,58,49,0
88.66554,89.28262,56,45,0
88.66554,89.28262,53,45,0
89.28262,89.88715,58,54,0
89.28262,89.88715,55,54,0
89.28262,89.88715,51,54,0
90.04061,90.11733,70,48,0
90.04061,90.11733,82,48,0
90.19406,90.27079,68,53,0
90.19406,90.27079,80,53,0
90.34751,90.42773,67,50,0
90.34751,90.42773,79,50,0
90.50794,90.660225,67,55,0
90.50794,90.660225,79,55,0
90.660225,90.81251,65,48,0
90.660225,90.81251,77,48,0
90.81251,90.88865,63,48,0
90.81251,90.88865,75,48,0
90.9648,91.04094,62,48,0
90.9648,91.04094,74,48,0
91.11708,91.19341,72,55,0
91.11708,91.19341,60,55,0
91.26975,91.346085,70,48,0
91.26975,91.346085,58,48,0
91.422424,91.49876,72,48,0
91.422424,91.49876,60,48,0
91.575096,91.65684,74,48,0
91.575096,91.65684,62,48,0
91.7382,91.814606,63,48,0
91.814606,91.89081,75,43,0
91.89081,91.96725,63,48,0
91.96725,92.0435,75,42,0
92.0435,92.12008,63,49,0
92.12008,92.19606,75,43,0
92.19606,92.27291,63,50,0
92.27291,92.34896,75,45,0
92.34896,92.4261,63,51,0
92.4261,92.502594,75,44,0
92.502594,92.57866,63,52,0
92.57866,92.65493,75,47,0
92.65493,92.73127,63,53,0
92.73127,92.8076,75,47,0
92.8076,92.88676,63,53,0
92.88676,92.96591,75,47,0
92.96591,93.04233,63,54,0
93.04233,93.11852,75,48,0
93.11852,93.19496,63,55,0
93.19496,93.27122,75,48,0
93.27122,93.3478,63,55,0
93.3478,93.42378,75,48,0
93.42378,93.50063,63,56,0
93.50063,93.576675,75,51,0
93.576675,93.65382,63,57,0
93.65382,93.730316,75,49,0
93.730316,93.80638,63,58,0
93.80638,93.88265,75,53,0
93.88265,93.958984,63,59,0
93.958984,94.035324,75,54,0
94.035324,94.11448,63,60,0
94.11448,94.193634,75,54,0
94.193634,94.499535,75,70,0
94.193634,94.499535,63,70,0
94.65276,94.806114,75,74,0
94.806114,94.95965,74,84,0
94.95965,95.11263,75,77,0
95.11263,95.198105,80,86,0
95.11263,95.198105,84,86,0
95.28358,95.39986,84,79,0
95.28358,95.39986,80,79,0
95.50728,95.81497,80,92,0
95.50728,95.89189,84,92,0
95.89189,95.96882,82,74,0
95.96882,96.04487,80,73,0
96.04487,96.12082,79,72,0
96.12082,96.196846,77,72,0
96.196846,96.27299,75,72,0
96.27299,96.34913,74,71,0
96.34913,96.425446,72,70,0
96.425446,96.50178,71,69,0
96.50178,96.57819,70,68,0
96.57819,96.654724,69,67,0
96.654724,96.731255,68,66,0
96.731255,96.83329,67,66,0
96.83329,96.93533,68,62,0
96.93533,97.03738,70,62,0
97.03738,97.13933,68,66,0
97.13933,97.24096,67,62,0
97.24096,97.34291,65,62,0
97.34291,97.44524,63,66,0
97.44524,97.547806,62,62,0
97.547806,97.65037,60,62,0
97.65037,97.75293,58,66,0
97.75293,97.85726,56,60,0
97.85726,97.96336,55,63,0
98.04358,98.123795,53,59,0
98.123795,98.200516,56,63,0
98.200516,98.277245,60,67,0
98.277245,98.430695,65,72,0
98.66373,98.7433,53,63,0
98.7433,98.82002,56,66,0
98.82002,98.89675,58,69,0
98.89675,99.0502,62,72,0
99.21164,99.288765,74,67,0
99.288765,99.365746,86,60,0
99.365746,99.44259,74,67,0
99.44259,99.51931,86,60,0
99.51931,99.595856,74,67,0
99.595856,99.67225,86,59,0
99.67225,99.74819,74,67,0
99.74819,99.82395,86,61,0
99.82395,99.89971,74,67,0
99.89971,99.97565,86,59,0
99.97565,100.0516,74,67,0
100.0516,100.12758,86,59,0
100.12758,100.20372,74,67,0
100.20372,100.27986,86,59,0
100.27986,100.35609,74,67,0
100.35609,100.43243,86,60,0
100.43243,100.509544,75,67,0
100.509544,100.58653,87,60,0
100.58653,100.66337,75,69,0
100.66337,100.7401,87,62,0
100.7401,100.81664,75,71,0
100.81664,100.893036,87,63,0
100.893036,100.96898,75,72,0
100.96898,101.04474,87,67,0
101.04474,101.12049,75,75,0
101.12049,101.19643,87,67,0
101.19643,101.27238,75,77,0
101.27238,101.348366,87,69,0
101.348366,101.42451,76,80,0
101.42451,101.50065,88,71,0
101.50065,101.57687,76,81,0
101.57687,101.653206,88,73,0
101.73342,101.81364,77,71,0
101.81364,101.890366,80,76,0
101.890366,101.96709,84,81,0
101.96709,102.120544,89,86,0
102.35357,102.43314,74,75,0
102.43314,102.50987,77,79,0
102.50987,102.5866,80,82,0
102.5866,102.74005,86,86,0
102.90149,103.20997,87,94,0
102.90149,103.20997,75,80,0
102.90149,103.20997,82,80,0
102.90149,103.20997,79,80,0
103.20997,103.28441,82,63,0
103.35886,103.437386,82,63,0
103.51592,103.66977,82,70,0
103.823616,103.898056,82,63,0
103.972496,104.05103,82,63,0
104.12956,104.283806,82,69,0
104.43805,104.59033,62,72,0
104.43805,104.59033,56,60,0
104.43805,104.59033,53,60,0
105.04719,105.12491,62,39,0
105.04719,105.12491,56,33,0
105.04719,105.12491,53,33,0
105.35807,105.4344,63,45,0
105.35807,105.4344,55,37,0
105.663414,105.738976,65,41,0
105.663414,105.738976,63,35,0
105.663414,105.738976,60,35,0
105.965675,106.041245,67,45,0
105.965675,106.041245,63,37,0
105.965675,106.041245,58,37,0
106.267944,106.345665,65,39,0
106.267944,106.345665,62,33,0
106.267944,106.345665,56,33,0
106.57883,106.65497,63,45,0
106.57883,106.65497,55,37,0
106.88339,106.95784,82,63,0
106.95784,107.03228,84,59,0
107.03228,107.11081,82,63,0
107.11081,107.18935,81,59,0
107.18935,107.34319,82,70,0
107.49704,107.57148,82,63,0
107.57148,107.64592,84,58,0
107.64592,107.72446,82,63,0
107.72446,107.80299,81,57,0
107.80299,107.95723,82,69,0
108.11147,108.263756,62,72,0
108.11147,108.263756,56,60,0
108.11147,108.263756,53,60,0
108.72061,109.336,63,66,0
108.72061,109.336,51,55,0
108.72061,109.336,54,55,0
108.72061,109.336,57,55,0
109.336,109.41156,65,41,0
109.336,109.41156,63,35,0
109.336,109.41156,60,35,0
109.63826,109.71383,67,45,0
109.63826,109.71383,63,37,0
109.63826,109.71383,58,37,0
109.94053,110.01825,65,39,0
109.94053,110.01825,62,33,0
109.94053,110.01825,56,33,0
110.25141,110.403694,63,45,0
110.25141,110.403694,55,37,0
110.55598,110.70598,68,36,0
110.55598,110.70598,62,30,0
110.70598,110.861015,67,32,0
110.70598,110.861015,63,27,0
111.16559,111.313736,74,37,0
111.16559,111.313736,68,31,0
111.313736,111.468376,75,32,0
111.313736,111.468376,67,27,0
111.77217,111.921425,74,31,0
111.77217,111.921425,80,37,0
111.921425,112.07646,79,32,0
111.921425,112.07646,75,27,0
112.380264,112.53026,80,36,0
112.380264,112.53026,86,43,0
112.53026,112.68899,87,36,0
112.53026,112.68899,79,30,0
113.01244,113.31934,63,57,0
113.01244,113.31934,58,48,0
113.01244,113.31934,55,48,0
115.61533,115.76275,63,40,0
115.76275,115.91017,62,45,0
115.91017,116.057594,63,40,0
116.057594,116.129364,70,45,0
116.20113,116.28885,70,38,0
116.37657,116.523994,61,45,0
116.523994,116.67141,62,40,0
116.67141,116.74318,70,45,0
116.81495,116.888664,70,38,0
118.03878,118.1862,65,40,0
118.1862,118.33362,64,45,0
118.33362,118.48104,65,40,0
118.48104,118.55281,70,45,0
118.62458,118.7123,70,38,0
118.80002,118.94744,63,45,0
118.94744,119.09486,64,40,0
119.09486,119.166626,70,45,0
119.2384,119.32612,70,38,0
119.41384,119.56126,64,45,0
119.56126,119.70868,65,41,0
119.70868,119.78045,73,46,0
119.85222,119.93994,73,40,0
120.02766,120.17508,66,47,0
120.17508,120.322495,67,43,0
120.322495,120.394264,73,48,0
120.466034,120.5452,73,41,0
120.62435,120.77213,72,49,0
120.77213,120.919914,70,42,0
120.919914,121.0677,69,47,0
121.0677,121.215485,70,42,0
121.215485,121.3629,67,49,0
121.3629,121.51032,68,44,0
121.51032,121.58175,77,50,0
121.65318,121.73234,77,44,0
121.81149,121.95783,71,52,0
121.95783,122.10417,72,47,0
122.10417,122.175095,80,54,0
122.24602,122.32517,80,47,0
122.40433,122.550316,76,56,0
122.550316,122.696304,77,50,0
122.696304,122.76722,83,57,0
122.83814,122.9173,83,50,0
122.99646,123.14209,79,63,0
123.14209,123.28772,80,56,0
123.28772,123.35814,86,66,0
123.428566,123.50772,86,60,0
123.586876,123.7343,85,79,0
123.7343,123.881714,86,72,0
123.881714,123.95247,89,69,0
124.023224,124.113045,89,64,0
124.202866,124.78111,89,76,0
124.92295,125.05061,68,65,0
125.0648,125.19246,68,65,0
125.20664,125.339,68,65,0
125.3537,125.93014,59,74,0
126.076126,126.20751,44,64,0
126.22211,126.35349,44,64,0
126.368095,126.52021,44,64,0
126.53711,126.70015,35,78,0
126.70015,126.85444,44,70,0
126.87158,127.02586,44,70,0
127.04301,127.28089,44,70,0
127.30733,128.60362,35,86,0
128.64066,128.78772,60,40,0
128.78772,128.93513,59,45,0
128.93513,129.08257,60,40,0
129.08257,129.15416,65,45,0
129.22575,129.31322,65,38,0
129.40068,129.69194,63,45,0
129.83757,129.985,60,40,0
129.985,130.13242,59,45,0
130.13242,130.27983,60,40,0
130.27983,130.35161,68,45,0
130.42337,130.5111,68,38,0
130.59882,130.89008,67,45,0
131.0357,131.18312,60,40,0
131.18312,131.33055,59,45,0
131.33055,131.47797,60,40,0
131.47797,131.55113,72,45,0
131.62431,131.71077,72,38,0
131.79723,131.94392,72,45,0
131.94392,131.98059,74,45,0
131.98059,132.01727,72,45,0
132.01727,132.05394,71,40,0
132.05394,132.09062,72,45,0
132.09062,132.23732,75,50,0
132.23732,132.39088,74,45,0
132.39088,132.53722,77,56,0
132.53722,132.68356,75,53,0
132.68356,132.82991,74,50,0
132.82991,132.9994,72,47,0
132.9994,133.29066,71,51,0
133.4363,133.58192,55,40,0
133.58192,133.72826,54,45,0
133.72826,133.8746,55,40,0
133.8746,133.94777,60,45,0
134.02095,134.1057,60,38,0
134.19044,134.4824,59,45,0
134.62839,134.77438,55,40,0
134.77438,134.9218,54,45,0
134.9218,135.06921,55,40,0
135.06921,135.1424,63,45,0
135.21556,135.30127,63,38,0
135.387,135.68329,62,45,0
135.83144,135.9055,55,45,0
135.97958,136.05275,59,51,0
136.12593,136.1991,62,45,0
136.27226,136.34543,65,45,0
136.41861,136.49178,68,45,0
136.56494,136.63812,71,55,0
136.71129,136.78445,74,53,0
136.85764,136.9308,77,56,0
137.00397,137.08011,80,60,0
137.15625,137.22997,79,63,0
137.30368,137.37738,77,59,0
137.4511,137.52481,75,55,0
137.59851,137.68303,74,54,0
137.76753,138.06093,72,62,0
138.20763,138.35432,72,50,0
138.35432,138.5021,71,57,0
138.5021,138.6499,72,53,0
138.6499,138.72307,84,60,0
138.79623,138.88051,84,52,0
138.96478,139.25781,84,60,0
139.40416,139.5505,89,59,0
139.5505,139.69684,87,65,0
139.69684,139.84319,86,60,0
139.84319,139.98953,84,66,0
139.98953,140.147,83,60,0
140.147,140.29263,86,69,0
140.29263,140.43826,84,60,0
140.5839,140.72954,72,50,0
140.72954,140.7885,71,54,0
140.7885,140.84747,72,54,0
140.84747,140.90643,73,55,0
140.90643,140.96541,74,56,0
140.96541,141.02437,75,56,0
141.02437,141.09755,76,57,0
141.09755,141.17072,77,58,0
141.17072,141.25522,78,59,0
141.25522,141.33972,79,59,0
141.33972,141.4129,80,60,0
141.4129,141.48607,81,61,0
141.48607,141.55923,82,62,0
141.55923,141.63242,83,62,0
141.63242,141.78508,84,68,0
141.78508,141.93143,89,63,0
141.93143,142.07741,87,65,0
142.07741,142.22339,86,60,0
142.22339,142.36938,84,66,0
142.36938,142.52603,83,60,0
142.52603,142.59938,84,69,0
142.59938,142.67273,86,63,0
142.67273,142.7461,84,63,0
142.7461,142.81944,83,63,0
142.81944,142.89279,84,69,0
142.89279,142.96614,87,73,0
142.96614,143.03949,86,72,0
143.03949,143.13123,84,71,0
143.13123,143.2044,83,72,0
143.2044,143.27757,84,65,0
143.27757,143.35074,83,65,0
143.35074,143.4239,80,65,0
143.4239,143.49709,79,69,0
143.49709,143.57025,77,63,0
143.57025,143.64342,75,63,0
143.64342,143.73517,74,63,0
143.73517,143.80852,72,69,0
143.80852,143.88187,74,63,0
143.88187,143.95522,72,63,0
143.95522,144.02856,71,61,0
144.02856,144.10191,72,66,0
144.10191,144.17526,75,72,0
144.17526,144.24861,74,70,0
144.24861,144.34064,72,67,0
144.34064,144.4138,71,69,0
144.4138,144.48698,72,63,0
144.48698,144.56015,71,63,0
144.56015,144.63332,68,63,0
144.63332,144.7065,67,69,0
144.7065,144.77966,65,63,0
144.77966,144.85283,63,63,0
144.85283,144.94458,62,63,0
144.94458,145.01775,60,77,0
145.01775,145.09093,62,69,0
145.09093,145.1641,60,69,0
145.1641,145.23726,59,69,0
145.23726,145.31042,60,77,0
145.31042,145.3836,63,69,0
145.3836,145.45677,62,69,0
145.45677,145.54823,60,69,0
145.54823,145.62286,59,77,0
145.62286,145.6975,67,69,0
145.6975,145.77211,62,69,0
145.77211,145.84674,59,69,0
145.84674,145.92137,55,79,0
145.92137,145.996,67,69,0
145.996,146.07062,63,69,0
146.07062,146.14525,60,69,0
146.14525,146.21988,55,81,0
146.21988,146.29451,67,69,0
146.29451,146.36913,62,69,0
146.36913,146.44376,59,69,0
146.44376,146.51839,55,80,0
146.51839,146.59302,67,69,0
146.59302,146.66763,63,69,0
146.66763,146.74226,60,69,0
146.74226,146.8169,55,80,0
146.8169,146.89153,67,69,0
146.89153,146.96614,62,69,0
146.96614,147.04077,59,69,0
147.04077,147.1154,55,80,0
147.1154,147.19002,67,69,0
147.19002,147.26465,63,69,0
147.26465,147.3542,60,69,0
147.3542,148.54823,67,89,0
147.3542,148.54823,55,74,0
147.3542,148.54823,59,74,0
147.3542,148.54823,62,74,0
148.84674,148.92406,67,40,0
149.00137,149.0787,69,37,0
149.15602,149.23334,71,37,0
149.31065,149.38799,72,46,0
149.4653,149.54262,74,40,0
149.61993,149.70146,76,40,0
149.31065,149.94603,67,39,0
149.31065,149.94603,64,39,0
149.94603,150.02602,74,45,0
149.94603,150.02602,67,38,0
149.94603,150.02602,62,38,0
150.26602,150.34602,72,39,0
150.26602,150.34602,67,33,0
150.26602,150.34602,64,33,0
150.62146,151.25977,77,45,0
150.62146,151.25977,65,37,0
150.62146,151.25977,67,37,0
150.62146,151.25977,71,37,0
151.41934,151.49666,67,40,0
151.57397,151.65129,69,37,0
151.7286,151.80594,71,37,0
151.88326,151.96057,72,46,0
152.03789,152.1152,74,40,0
152.19254,152.27405,76,40,0
151.88326,152.51862,67,39,0
151.88326,152.51862,64,39,0
152.51862,152.59862,74,45,0
152.51862,152.59862,69,38,0
152.51862,152.59862,62,38,0
152.83862,152.91862,72,39,0
152.83862,152.91862,62,33,0
152.83862,152.91862,69,33,0
153.19406,153.83406,67,37,0
153.19406,153.83406,62,31,0
153.19406,153.83406,59,31,0
153.99406,154.07138,67,40,0
154.1487,154.22601,69,37,0
154.30333,154.38066,71,37,0
154.45798,154.5353,72,46,0
154.61261,154.68993,74,40,0
154.76726,154.84877,76,40,0
154.45798,155.09334,67,39,0
154.45798,155.09334,64,39,0
155.09334,155.17334,74,45,0
155.09334,155.17334,67,38,0
155.09334,155.17334,62,38,0
155.41335,155.49333,72,39,0
155.41335,155.49333,67,33,0
155.41335,155.49333,64,33,0
155.77629,156.40433,77,71,0
155.75417,156.40433,69,45,0
155.76523,156.40433,72,50,0
155.78735,156.55856,81,80,0
156.55856,156.63568,81,48,0
156.71281,156.78993,79,53,0
156.86705,156.95451,77,50,0
157.04198,157.19582,76,53,0
157.19582,157.34967,74,48,0
157.34967,157.42659,72,48,0
157.50351,157.58043,71,48,0
157.65736,157.96506,69,53,0
157.96506,158.27847,67,49,0
157.65736,158.27847,65,45,0
157.65736,158.27847,62,45,0
158.27847,158.88606,67,49,0
158.27847,158.88606,64,41,0
158.27847,158.88606,60,41,0
159.03874,159.11507,79,48,0
159.1914,159.26775,77,53,0
159.34409,159.42906,76,50,0
159.51405,159.66711,76,53,0
159.66711,159.82018,74,48,0
159.82018,159.89671,72,48,0
159.97324,160.04977,71,48,0
160.1263,160.43242,68,53,0
160.43242,160.74338,67,49,0
160.1263,160.74338,65,45,0
160.1263,160.74338,62,45,0
160.74338,161.34792,67,54,0
160.74338,161.34792,63,54,0
160.74338,161.34792,60,54,0
161.50136,161.5781,67,48,0
161.50136,161.5781,79,48,0
161.65482,161.73154,65,53,0
161.65482,161.73154,77,53,0
161.80827,161.88847,63,50,0
161.80827,161.88847,75,50,0
161.96869,162.12097,63,55,0
161.96869,162.12097,75,55,0
162.12097,162.27327,62,48,0
162.12097,162.27327,74,48,0
162.27327,162.34941,60,48,0
162.27327,162.34941,72,48,0
162.42555,162.5017,59,48,0
162.42555,162.5017,71,48,0
162.57784,162.65417,68,55,0
162.57784,162.65417,56,55,0
162.7305,162.80684,67,48,0
162.7305,162.80684,55,48,0
162.88318,162.95952,69,48,0
162.88318,162.95952,57,48,0
163.03584,163.1176,71,48,0
163.03584,163.1176,59,48,0
163.19894,163.50426,72,58,0
163.19894,163.50426,60,49,0
163.65681,163.80971,72,54,0
163.80971,163.96335,71,60,0
163.96335,164.11569,72,55,0
164.11569,164.19202,77,62,0
164.11569,164.19202,74,52,0
164.26836,164.34752,77,57,0
164.26836,164.34752,74,48,0
164.42667,164.73198,75,65,0
164.42667,164.73198,72,55,0
164.88454,165.03743,72,61,0
165.03743,165.19107,71,68,0
165.19107,165.3434,72,63,0
165.3434,165.41974,80,69,0
165.3434,165.41974,77,58,0
165.49608,165.57523,80,64,0
165.49608,165.57523,77,54,0
165.65439,165.9603,79,70,0
165.65439,165.9603,75,70,0
166.11353,166.26688,84,74,0
166.26688,166.42041,83,84,0
166.42041,166.58272,84,77,0
166.58272,166.68504,86,94,0
166.58272,166.68504,89,94,0
166.78735,166.91893,89,86,0
166.78735,166.91893,86,86,0
167.0505,167.3582,86,101,0
167.0505,167.43513,89,101,0
167.43513,167.51205,87,74,0
167.51205,167.5881,86,73,0
167.5881,167.66406,84,72,0
167.66406,167.74008,83,72,0
167.74008,167.81622,84,72,0
167.81622,167.89236,86,71,0
167.89236,167.96867,84,70,0
167.96867,168.04501,83,69,0
168.04501,168.12143,80,68,0
168.12143,168.19795,79,67,0
168.19795,168.27449,77,66,0
168.27449,168.37653,75,66,0
168.37653,168.47858,77,62,0
168.47858,168.58061,79,62,0
168.58061,168.68257,77,66,0
168.68257,168.7842,75,62,0
168.7842,168.88615,74,62,0
168.88615,168.98848,72,66,0
168.98848,169.09103,70,62,0
169.09103,169.1936,68,62,0
169.1936,169.29617,67,66,0
169.29617,169.4005,65,60,0
169.4005,169.5066,63,63,0
169.5868,169.66702,62,59,0
169.66702,169.74376,65,63,0
169.74376,169.82048,68,67,0
169.82048,169.97394,74,72,0
170.20695,170.28653,59,63,0
170.28653,170.36327,62,66,0
170.36327,170.43999,65,69,0
170.43999,170.59344,71,72,0
170.75488,170.832,71,67,0
170.832,170.90898,83,60,0
170.90898,170.98582,71,67,0
170.98582,171.06255,83,60,0
171.06255,171.13908,71,67,0
171.13908,171.21548,83,59,0
171.21548,171.29143,71,67,0
171.29143,171.36719,83,61,0
171.36719,171.44295,71,67,0
171.44295,171.51888,83,59,0
171.51888,171.59483,71,67,0
171.59483,171.67082,83,59,0
171.67082,171.74696,71,67,0
171.74696,171.8231,83,59,0
171.8231,171.89932,71,67,0
171.89932,171.97566,83,60,0
171.97566,172.05278,72,67,0
172.05278,172.12976,84,60,0
172.12976,172.2066,72,69,0
172.2066,172.28333,84,62,0
172.28333,172.35988,72,71,0
172.35988,172.43628,84,63,0
172.43628,172.5122,72,72,0
172.5122,172.58797,84,67,0
172.58797,172.66373,72,75,0
172.66373,172.73967,84,67,0
172.73967,172.81561,72,77,0
172.81561,172.8916,84,69,0
172.8916,172.96774,72,80,0
172.96774,173.04388,84,71,0
173.04388,173.12012,72,81,0
173.12012,173.19644,84,73,0
173.27666,173.35687,77,71,0
173.35687,173.4336,80,76,0
173.4336,173.51033,86,81,0
173.51033,173.66377,89,86,0
173.8968,173.97638,74,75,0
173.97638,174.05312,77,79,0
174.05312,174.12984,83,82,0
174.12984,174.2833,86,86,0
174.44472,174.7532,84,94,0
174.44472,174.7532,72,80,0
174.44472,174.7532,79,80,0
174.44472,174.7532,75,80,0
174.7532,174.82765,79,63,0
174.90208,174.98062,79,63,0
175.05916,175.213,79,70,0
175.36685,175.44128,79,63,0
175.51573,175.59427,79,63,0
175.6728,175.82704,79,69,0
175.98128,176.13358,59,72,0
175.98128,176.13358,53,60,0
175.98128,176.13358,50,60,0
176.59042,176.66814,59,39,0
176.59042,176.66814,53,33,0
176.59042,176.66814,50,33,0
176.9013,176.97765,60,45,0
176.9013,176.97765,51,37,0
176.9013,176.97765,48,37,0
177.20665,177.28221,62,41,0
177.20665,177.28221,60,35,0
177.20665,177.28221,57,35,0
177.50891,177.58449,63,45,0
177.50891,177.58449,60,37,0
177.50891,177.58449,55,37,0
177.81119,177.8889,62,39,0
177.81119,177.8889,59,33,0
177.81119,177.8889,53,33,0
178.12206,178.19821,60,45,0
178.12206,178.19821,55,37,0
178.12206,178.19821,51,37,0
178.42664,178.50107,79,63,0
178.50107,178.57552,80,59,0
178.57552,178.65405,79,63,0
178.65405,178.73259,78,59,0
178.73259,178.88643,79,70,0
179.04027,179.11472,79,63,0
179.11472,179.18916,80,58,0
179.18916,179.26768,79,63,0
179.26768,179.34622,78,57,0
179.34622,179.50047,79,69,0
179.65471,179.81471,59,72,0
179.65471,179.81471,53,60,0
179.65471,179.81471,50,60,0
180.29471,180.9103,60,66,0
180.29471,180.9103,48,55,0
180.29471,180.9103,51,55,0
180.29471,180.9103,54,55,0
180.9103,180.98586,62,41,0
180.9103,180.98586,60,35,0
180.9103,180.98586,57,35,0
181.21255,181.28813,63,45,0
181.21255,181.28813,60,37,0
181.21255,181.28813,55,37,0
181.51483,181.59254,62,39,0
181.51483,181.59254,59,33,0
181.51483,181.59254,53,33,0
181.8257,181.978,60,45,0
181.8257,181.978,55,37,0
181.8257,181.978,51,37,0
182.13028,182.28027,65,36,0
182.13028,182.28027,59,30,0
182.28027,182.43532,63,32,0
182.28027,182.43532,60,27,0
182.73988,182.88803,71,37,0
182.73988,182.88803,65,31,0
182.88803,183.04266,72,32,0
182.88803,183.04266,63,27,0
183.34647,183.49573,71,31,0
183.34647,183.49573,77,37,0
183.49573,183.65076,75,32,0
183.49573,183.65076,72,27,0
183.95456,184.10455,77,36,0
183.95456,184.10455,83,43,0
184.10455,184.26329,84,36,0
184.10455,184.26329,75,30,0
184.56786,184.71785,66,44,0
184.56786,184.71785,60,36,0
184.71785,184.8729,65,40,0
184.71785,184.8729,61,33,0
185.17746,185.3256,73,52,0
185.17746,185.3256,65,43,0
185.3256,185.48026,72,45,0
185.3256,185.48026,66,38,0
185.78404,185.9333,73,54,0
185.78404,185.9333,77,65,0
185.9333,186.08833,78,57,0
185.9333,186.08833,72,47,0
186.41118,186.57466,77,63,0
186.41118,186.57466,85,76,0
186.57466,186.78972,84,65,0
186.57466,186.78972,78,55,0
186.78972,188.08353,78,78,0
186.78972,188.08353,87,84,0
188.08353,188.41779,85,59,0
188.41779,188.75204,84,54,0
188.08353,188.75204,75,40,0
188.75204,189.10394,82,57,0
189.10394,189.32951,80,50,0
189.32951,189.39685,77,41,0
189.39685,189.46419,78,36,0
189.46419,189.53154,80,36,0
189.53154,191.24582,78,50,0
188.75204,191.24582,72,40,0
191.6744,191.76212,56,34,0
191.84982,191.93755,58,31,0
192.02527,192.11299,60,31,0
192.20071,192.28842,61,39,0
192.37614,192.46387,63,34,0
192.55159,192.64534,65,34,0
192.20071,192.92659,56,33,0
192.20071,192.92659,53,33,0
192.92659,193.01668,63,38,0
192.92659,193.01668,56,32,0
193.28694,193.37703,61,33,0
193.28694,193.37703,56,27,0
193.71506,194.76747,66,37,0
193.71506,194.76747,54,31,0
193.71506,194.76747,56,31,0
193.71506,194.76747,60,31,0
194.76747,194.85468,56,34,0
194.94188,195.0291,58,31,0
195.1163,195.20352,60,31,0
195.29073,195.38054,61,39,0
195.47037,195.56018,63,34,0
195.65001,195.74615,65,34,0
195.29073,196.03555,56,33,0
195.29073,196.03555,53,33,0
196.03555,196.1296,63,38,0
196.03555,196.1296,58,32,0
196.03555,196.1296,51,32,0
196.41173,196.50577,61,33,0
196.41173,196.50577,51,27,0
196.41173,196.50577,58,27,0
196.86366,197.74258,56,31,0
196.86366,197.74258,51,26,0
196.86366,197.74258,48,26,0
197.96233,198.05351,56,34,0
198.1447,198.23589,58,31,0
198.32707,198.41824,60,31,0
198.50943,198.60062,61,39,0
198.6918,198.78299,63,34,0
198.87418,198.97287,65,34,0
198.50943,199.26892,56,33,0
198.50943,199.26892,53,33,0
199.26892,199.3744,63,38,0
199.26892,199.3744,56,32,0
199.69086,199.79634,61,33,0
199.69086,199.79634,56,27,0
200.14977,200.77936,66,35,0
200.14977,200.98453,60,28,0
200.77936,200.98625,63,30,0
200.98625,202.35768,60,34,0
200.14977,202.35768,56,28,0
200.14977,202.35768,54,28,0
203.29193,204.04823,66,49,0
203.1895,204.37025,60,46,0
204.04823,204.37433,63,30,0
204.37433,206.34154,60,34,0
203.0893,206.34154,57,43,0
202.98735,206.34154,54,40,0
206.73016,206.79463,55,63,0
206.79463,206.85971,60,65,0
206.8591,206.9254,63,67,0
206.9254,206.99838,67,70,0
207.07137,207.14435,63,63,0
207.21733,207.29031,60,67,0
207.36328,207.43626,55,63,0
208.84425,208.91689,60,44,0
208.98952,209.06213,62,47,0
209.13477,209.2074,64,51,0
209.28003,209.35338,65,54,0
209.42673,209.50008,67,46,0
209.57343,209.64677,68,47,0
209.72012,209.86682,84,56,0
209.86682,210.0146,83,65,0
210.0146,210.16238,84,55,0
210.16238,210.23557,89,66,0
210.30873,210.393,89,54,0
210.47728,210.7768,88,66,0
211.21733,211.28996,60,44,0
211.3626,211.43523,62,47,0
211.50786,211.58047,64,51,0
211.6531,211.72646,65,54,0
211.7998,211.87315,67,46,0
211.9465,212.01987,68,47,0
212.09322,212.23991,84,56,0
212.23991,212.3877,83,65,0
212.3877,212.53548,84,55,0
212.53548,212.60864,89,66,0
212.68182,212.76608,89,54,0
212.85036,213.14987,88,66,0
213.29478,213.44148,72,50,0
213.44148,213.58926,71,57,0
213.58926,213.73705,72,47,0
213.73705,213.81023,77,57,0
213.88339,213.96767,77,45,0
214.05193,214.35146,76,55,0
214.49637,214.64307,60,45,0
214.64307,214.78961,59,51,0
214.79085,214.93863,60,43,0
214.93863,215.0118,65,51,0
215.08498,215.16924,65,40,0
215.25351,215.55736,64,49,0
215.70659,215.85207,36,30,0
215.85329,216.21484,36,40,0
216.39018,216.61728,36,26,0
216.61728,216.97765,36,33,0
0.44226,0.58968,48,36,0
0.58968,0.7371,47,38,0
0.7371,0.88452,48,35,0
0.88452,0.956119,53,38,0
1.027718,1.1151814,53,34,0
1.202645,1.493907,51,38,0
1.639538,1.786958,48,36,0
1.786958,1.934378,47,38,0
1.934378,2.081798,48,35,0
2.081798,2.1535683,56,38,0
2.2253385,2.3130577,56,34,0
2.400777,2.692039,55,38,0
3.599182,4.80136,66,38,0
3.599182,4.80136,60,38,0
3.599182,4.80136,56,38,0
4.80136,5.0926223,55,32,0
4.80136,5.0926223,62,32,0
4.80136,5.0926223,67,38,0
5.238253,5.3838844,43,36,0
5.3838844,5.5302258,42,38,0
5.5302258,5.676567,43,35,0
5.676567,5.749738,48,38,0
5.822909,5.9076543,48,34,0
5.9924,6.2843714,47,38,0
6.430357,6.576342,43,36,0
6.576342,6.723762,42,38,0
6.723762,6.8711824,43,35,0
6.8711824,6.944353,51,38,0
7.017524,7.103238,51,34,0
7.1889524,7.485248,50,38,0
7.633396,7.7074704,43,37,0
7.781544,7.854715,47,43,0
7.9278855,8.001057,50,37,0
8.074227,8.147398,53,37,0
8.220569,8.293739,56,37,0
8.36691,8.440081,59,46,0
8.513251,8.586423,62,45,0
8.659594,8.732764,65,47,0
8.805935,8.882077,68,50,0
8.95822,9.031929,67,53,0
9.105639,9.179349,65,50,0
9.253059,9.326769,63,46,0
9.400479,9.484986,62,45,0
9.569493,9.642843,60,42,0
9.716193,9.789542,67,38,0
9.716193,9.789542,63,32,0
9.862892,9.936242,67,38,0
9.862892,9.936242,63,32,0
10.009592,10.082941,67,38,0
10.009592,10.082941,63,32,0
10.156291,10.230183,60,42,0
10.304074,10.377967,70,37,0
10.304074,10.377967,67,31,0
10.304074,10.377967,64,31,0
10.4518585,10.525029,70,37,0
10.4518585,10.525029,67,31,0
10.4518585,10.525029,64,31,0
10.5982,10.682469,70,37,0
10.5982,10.682469,67,31,0
10.5982,10.682469,64,31,0
10.766739,10.840269,60,42,0
10.91344,10.98661,68,38,0
10.91344,10.98661,65,32,0
11.059781,11.132952,68,38,0
11.059781,11.132952,65,32,0
11.206122,11.279293,68,38,0
11.206122,11.279293,65,32,0
11.352464,11.425634,60,42,0
11.498805,11.571977,71,37,0
11.498805,11.571977,68,31,0
11.498805,11.571977,65,31,0
11.645147,11.718318,71,37,0
11.645147,11.718318,68,31,0
11.645147,11.718318,65,31,0
11.791489,11.870229,71,37,0
11.791489,11.870229,68,31,0
11.791489,11.870229,65,31,0
11.948969,12.021785,60,42,0
12.0946,12.167416,67,38,0
12.0946,12.167416,63,32,0
12.240231,12.313046,67,38,0
12.240231,12.313046,63,32,0
12.385862,12.458677,67,38,0
12.385862,12.458677,63,32,0
12.531493,12.605203,60,42,0
12.678913,12.752623,70,37,0
12.678913,12.752623,67,31,0
12.678913,12.752623,64,31,0
12.826333,12.899504,70,37,0
12.826333,12.899504,67,31,0
12.826333,12.899504,64,31,0
12.972674,13.057181,70,37,0
12.972674,13.057181,67,31,0
12.972674,13.057181,64,31,0
13.141688,13.214859,60,42,0
13.28803,13.3612,68,38,0
13.28803,13.3612,65,32,0
13.434372,13.510708,68,38,0
13.434372,13.510708,65,32,0
13.587044,13.660214,68,38,0
13.587044,13.660214,65,32,0
13.733385,13.806377,60,42,0
13.879371,13.952363,71,37,0
13.879371,13.952363,68,31,0
13.879371,13.952363,65,31,0
14.025356,14.098349,71,37,0
14.025356,14.098349,68,31,0
14.025356,14.098349,65,31,0
14.171342,14.24967,71,37,0
14.171342,14.24967,68,31,0
14.171342,14.24967,65,31,0
14.327999,14.621399,67,36,0
14.327999,14.621399,60,36,0
14.327999,14.621399,63,36,0
14.332278,14.625677,72,44,0
14.768098,14.93319,66,42,0
14.93319,15.225874,67,52,0
15.372215,15.537129,59,48,0
15.537129,15.830528,60,57,0
15.977227,16.142601,54,54,0
16.142601,16.435286,55,63,0
16.581627,16.74654,47,57,0
16.74654,17.039223,48,66,0
17.185564,17.350199,42,58,0
17.350199,17.648706,43,67,0
17.648706,17.797958,48,96,0
17.648706,17.797958,36,82,0
17.947212,18.096466,43,66,0
17.947212,18.096466,31,55,0
18.24572,18.394974,48,97,0
18.24572,18.394974,36,82,0
18.544228,18.69348,43,68,0
18.544228,18.69348,31,57,0
18.842733,18.991987,48,97,0
18.842733,18.991987,36,82,0
19.156166,20.257084,43,78,0
19.156166,20.257084,31,66,0
19.156166,20.257084,35,66,0
19.156166,20.257084,38,66,0
20.87564,21.511005,51,31,0
20.87564,21.511005,39,26,0
21.511005,21.591005,56,30,0
21.511005,21.591005,44,25,0
21.831005,21.911005,55,27,0
21.831005,21.911005,43,23,0
22.186445,22.824743,53,32,0
22.186445,22.824743,41,27,0
22.186445,22.824743,46,27,0
23.448235,24.0836,51,31,0
23.448235,24.0836,39,26,0
24.0836,24.163599,44,30,0
24.0836,24.163599,32,25,0
24.403599,24.483599,45,27,0
24.403599,24.483599,33,23,0
24.759039,25.399038,46,27,0
24.759039,25.399038,34,22,0
26.022955,26.658321,51,31,0
26.022955,26.658321,39,26,0
26.658321,26.738321,56,30,0
26.658321,26.738321,44,25,0
26.978321,27.058321,55,27,0
26.978321,27.058321,43,23,0
27.308092,27.660822,56,40,0
27.274906,27.660822,44,28,0
27.285967,27.660822,48,32,0
27.29703,27.660822,51,36,0
29.376186,29.45311,34,49,0
29.530033,29.606956,36,53,0
29.683878,29.763666,38,45,0
29.843452,29.919403,39,53,0
29.995352,30.0713,41,49,0
30.147251,30.2232,43,51,0
30.451048,30.756392,41,53,0
30.756392,31.079035,39,50,0
28.606956,31.079035,46,80,0
31.84434,31.92087,34,49,0
31.9974,32.073933,36,53,0
32.150463,32.22941,38,45,0
32.308357,32.383923,39,53,0
32.459488,32.535057,41,49,0
32.610622,32.68619,43,51,0
32.91289,33.219795,41,53,0
33.219795,33.533676,39,50,0
31.079035,33.533676,46,80,0
33.533676,33.838245,53,53,0
33.533676,33.838245,48,45,0
33.533676,33.838245,44,45,0
34.142815,34.44816,56,50,0
34.142815,34.44816,53,42,0
34.142815,34.44816,46,42,0
34.76393,35.069237,51,49,0
34.76393,35.069237,55,58,0
35.221798,35.374695,51,54,0
35.374695,35.52833,50,60,0
35.52833,35.680668,51,55,0
35.680668,35.757004,56,62,0
35.680668,35.757004,48,52,0
35.83334,35.912495,56,57,0
35.83334,35.912495,48,48,0
35.99165,36.296955,46,55,0
35.99165,36.296955,55,65,0
36.449516,36.602413,51,61,0
36.602413,36.75605,50,68,0
36.75605,36.908386,51,63,0
36.908386,36.984722,60,69,0
36.908386,36.984722,56,58,0
37.061058,37.140213,60,64,0
37.061058,37.140213,56,54,0
37.219368,37.372837,55,71,0
37.219368,37.372837,58,71,0
37.372837,37.449,51,62,0
37.449,37.525272,63,54,0
37.525272,37.602234,51,63,0
37.602234,37.6785,63,56,0
37.6785,37.7553,51,63,0
37.7553,37.831852,63,57,0
37.831852,37.908318,51,63,0
37.908318,37.985386,63,55,0
37.985386,38.062035,51,64,0
38.062035,38.13837,63,59,0
38.13837,38.222878,51,65,0
38.222878,38.307384,63,58,0
38.307384,38.423214,51,66,0
38.423214,38.53029,63,61,0
38.53029,39.754265,58,49,0
38.53029,39.754265,56,49,0
38.53029,39.754265,50,49,0
38.53029,39.754265,53,49,0
38.547596,39.771484,62,66,0
39.754265,40.060387,58,49,0
39.754265,40.060387,51,49,0
39.754265,40.060387,55,49,0
39.754265,40.060387,63,66,0
40.986374,41.146805,44,73,0
40.986374,41.146805,32,73,0
41.45371,41.530434,44,63,0
41.45371,41.530434,32,63,0
41.607162,41.76631,46,70,0
41.607162,41.76631,34,70,0
42.073215,42.154297,46,63,0
42.073215,42.154297,34,63,0
42.38876,42.4656,68,63,0
42.4656,42.542324,70,65,0
42.542324,42.618866,72,69,0
42.618866,42.695263,70,67,0
42.695263,42.771206,68,65,0
42.771206,42.846962,67,64,0
42.846962,42.948025,65,67,0
42.948025,43.04929,63,61,0
43.04929,43.15059,62,61,0
43.15059,43.252113,60,67,0
43.252113,43.353657,58,62,0
43.353657,43.455437,56,62,0
43.455437,43.55826,55,67,0
43.55826,43.660805,56,63,0
43.660805,43.763107,58,63,0
43.763107,43.865158,56,67,0
43.865158,43.966736,55,60,0
43.966736,44.067745,53,60,0
44.067745,44.168808,51,70,0
44.168808,44.270073,50,63,0
44.270073,44.371376,48,66,0
44.371376,44.472897,46,74,0
44.472897,44.57444,44,67,0
44.57444,44.67622,43,67,0
44.67622,44.83665,44,73,0
44.67622,44.83665,32,73,0
45.143555,45.22028,44,63,0
45.143555,45.22028,32,63,0
45.29701,45.456158,46,70,0
45.29701,45.456158,34,70,0
45.76306,45.844143,46,63,0
45.76306,45.844143,34,63,0
45.9245,46.232983,51,70,0
45.9245,46.232983,39,59,0
45.9245,46.232983,43,59,0
45.9245,46.232983,46,59,0
46.232983,46.307423,67,63,0
46.232983,46.307423,64,53,0
46.381866,46.4604,67,63,0
46.381866,46.4604,64,53,0
46.538933,46.69278,68,70,0
46.538933,46.69278,65,59,0
46.846626,46.921066,67,63,0
46.846626,46.921066,64,53,0
46.99551,47.074043,67,63,0
46.99551,47.074043,64,53,0
47.152576,47.30682,68,70,0
47.152576,47.30682,65,59,0
47.46106,47.613346,46,74,0
47.46106,47.613346,34,63,0
48.070198,48.14792,47,36,0
48.070198,48.14792,35,30,0
48.38108,48.457417,48,38,0
48.38108,48.457417,36,32,0
48.686424,48.76199,45,36,0
48.686424,48.76199,33,30,0
48.98869,49.06426,46,38,0
48.98869,49.06426,34,32,0
49.29096,49.36868,46,33,0
49.29096,49.36868,34,27,0
49.601837,49.67798,51,38,0
49.601837,49.67798,39,32,0
49.906406,49.98085,67,63,0
49.906406,49.98085,64,53,0
50.05529,50.133823,67,63,0
50.05529,50.133823,64,53,0
50.21236,50.366203,68,70,0
50.21236,50.366203,65,59,0
50.52005,50.594494,67,63,0
50.52005,50.594494,64,53,0
50.668934,50.747467,67,63,0
50.668934,50.747467,64,53,0
50.826,50.980244,68,70,0
50.826,50.980244,65,59,0
51.134483,51.28677,46,74,0
51.134483,51.28677,34,63,0
51.74362,52.35901,47,65,0
51.74362,52.35901,35,55,0
51.74362,52.35901,39,55,0
51.74362,52.35901,42,55,0
52.35901,52.434574,45,36,0
52.35901,52.434574,33,30,0
52.661274,52.73684,46,38,0
52.661274,52.73684,34,32,0
52.963543,53.04126,46,33,0
52.963543,53.04126,34,27,0
53.27442,53.42671,39,32,0
53.42671,53.57899,51,27,0
53.88403,54.036316,39,32,0
54.036316,54.1886,51,28,0
54.491386,54.643284,39,32,0
54.643284,54.79518,51,28,0
55.099476,55.251373,39,32,0
55.251373,55.40327,51,27,0
55.712,56.035454,39,32,0
57.416527,57.563946,48,36,0
57.563946,57.711365,47,38,0
57.711365,57.858784,48,35,0
57.858784,57.930386,53,38,0
58.001984,58.089447,53,34,0
58.17691,58.46817,51,38,0
58.613804,58.761223,48,36,0
58.761223,58.90864,47,38,0
58.90864,59.056065,48,35,0
59.056065,59.127834,56,38,0
59.199604,59.287323,56,34,0
59.375042,59.666306,55,38,0
60.57345,61.775627,66,38,0
60.57345,61.775627,60,38,0
60.57345,61.775627,56,38,0
61.775627,62.066887,55,32,0
61.775627,62.066887,62,32,0
61.775627,62.066887,67,38,0
62.212517,62.35815,43,36,0
62.35815,62.50449,42,38,0
62.50449,62.650833,43,35,0
62.650833,62.724003,48,38,0
62.797173,62.88192,48,34,0
62.966667,63.258636,47,38,0
63.40462,63.550606,43,36,0
63.550606,63.69803,42,38,0
63.69803,63.845448,43,35,0
63.845448,63.918617,51,38,0
63.991787,64.0775,51,34,0
64.163216,64.45951,50,38,0
64.60766,64.68173,43,37,0
64.755806,64.82898,47,43,0
64.90215,64.97532,50,37,0
65.04849,65.121666,53,37,0
65.19483,65.268005,56,37,0
65.34118,65.414345,59,46,0
65.48752,65.560684,62,45,0
65.63386,65.70703,65,47,0
65.7802,65.85634,68,50,0
65.93249,66.006195,67,53,0
66.0799,66.15362,65,50,0
66.227325,66.30103,63,46,0
66.37474,66.45925,62,45,0
66.543755,66.61711,60,42,0
66.69046,66.76381,67,38,0
66.69046,66.76381,63,32,0
66.83716,66.91051,67,38,0
66.83716,66.91051,63,32,0
66.98386,67.057205,67,38,0
66.98386,67.057205,63,32,0
67.130554,67.204445,60,42,0
67.27834,67.352234,70,37,0
67.27834,67.352234,67,31,0
67.27834,67.352234,64,31,0
67.426125,67.49929,70,37,0
67.426125,67.49929,67,31,0
67.426125,67.49929,64,31,0
67.572464,67.65674,70,37,0
67.572464,67.65674,67,31,0
67.572464,67.65674,64,31,0
67.741005,67.81454,60,42,0
67.8877,67.96088,68,38,0
67.8877,67.96088,65,32,0
68.03404,68.107216,68,38,0
68.03404,68.107216,65,32,0
68.18039,68.253555,68,38,0
68.18039,68.253555,65,32,0
68.32673,68.3999,60,42,0
68.47307,68.54624,71,37,0
68.47307,68.54624,68,31,0
68.47307,68.54624,65,31,0
68.619415,68.69258,71,37,0
68.619415,68.69258,68,31,0
68.619415,68.69258,65,31,0
68.765755,68.84449,71,37,0
68.765755,68.84449,68,31,0
68.765755,68.84449,65,31,0
68.92323,68.99605,60,42,0
69.06886,69.14168,67,38,0
69.06886,69.14168,63,32,0
69.21449,69.28731,67,38,0
69.21449,69.28731,63,32,0
69.36013,69.432945,67,38,0
69.36013,69.432945,63,32,0
69.50576,69.57947,60,42,0
69.653175,69.72689,70,37,0
69.653175,69.72689,67,31,0
69.653175,69.72689,64,31,0
69.8006,69.87377,70,37,0
69.8006,69.87377,67,31,0
69.8006,69.87377,64,31,0
69.94694,70.03145,70,37,0
69.94694,70.03145,67,31,0
69.94694,70.03145,64,31,0
70.11595,70.189125,60,42,0
70.2623,70.335464,68,38,0
70.2623,70.335464,65,32,0
70.40864,70.48497,68,38,0
70.40864,70.48497,65,32,0
70.56131,70.634476,68,38,0
70.56131,70.634476,65,32,0
70.70765,70.78064,60,42,0
70.85364,70.92663,71,37,0
70.85364,70.92663,68,31,0
70.85364,70.92663,65,31,0
70.99962,71.07262,71,37,0
70.99962,71.07262,68,31,0
70.99962,71.07262,65,31,0
71.14561,71.22394,71,37,0
71.14561,71.22394,68,31,0
71.14561,71.22394,65,31,0
71.30226,71.595665,67,36,0
71.30226,71.595665,60,36,0
71.30226,71.595665,63,36,0
71.30654,71.599945,72,44,0
71.74236,71.907455,66,42,0
71.907455,72.20014,67,52,0
72.34648,72.51139,59,48,0
72.51139,72.804794,60,57,0
72.95149,73.11687,54,54,0
73.11687,73.40955,55,63,0
73.55589,73.7208,47,57,0
73.7208,74.01349,48,66,0
74.15983,74.32446,42,58,0
74.32446,74.62297,43,67,0
74.62297,74.772224,48,96,0
74.62297,74.772224,36,82,0
74.92148,75.07073,43,66,0
74.92148,75.07073,31,55,0
75.219986,75.36924,48,97,0
75.219986,75.36924,36,82,0
75.51849,75.66775,43,68,0
75.51849,75.66775,31,57,0
75.817,75.966255,48,97,0
75.817,75.966255,36,82,0
76.13043,77.231346,43,78,0
76.13043,77.231346,31,66,0
76.13043,77.231346,35,66,0
76.13043,77.231346,38,66,0
77.84991,78.48527,51,31,0
77.84991,78.48527,39,26,0
78.48527,78.56527,56,30,0
78.48527,78.56527,44,25,0
78.80527,78.88527,55,27,0
78.80527,78.88527,43,23,0
79.16071,79.79901,53,32,0
79.16071,79.79901,41,27,0
79.16071,79.79901,46,27,0
80.4225,81.05786,51,31,0
80.4225,81.05786,39,26,0
81.05786,81.13786,44,30,0
81.05786,81.13786,32,25,0
81.37786,81.45786,45,27,0
81.37786,81.45786,33,23,0
81.73331,82.37331,46,27,0
81.73331,82.37331,34,22,0
82.99722,83.63258,51,31,0
82.99722,83.63258,39,26,0
83.63258,83.712585,56,30,0
83.63258,83.712585,44,25,0
83.95258,84.032585,55,27,0
83.95258,84.032585,43,23,0
84.28236,84.635086,56,40,0
84.24917,84.635086,44,28,0
84.26023,84.635086,48,32,0
84.27129,84.635086,51,36,0
86.35045,86.427376,34,49,0
86.504295,86.58122,36,53,0
86.65814,86.73793,38,45,0
86.81772,86.89367,39,53,0
86.96962,87.04556,41,49,0
87.12151,87.197464,43,51,0
87.425316,87.73066,41,53,0
87.73066,88.0533,39,50,0
85.58122,88.0533,46,80,0
88.8186,88.895134,34,49,0
88.971664,89.048195,36,53,0
89.124725,89.203674,38,45,0
89.28262,89.358185,39,53,0
89.433754,89.50932,41,49,0
89.584885,89.66045,43,51,0
89.88715,90.19406,41,53,0
90.19406,90.50794,39,50,0
88.0533,90.50794,46,80,0
90.50794,90.81251,53,53,0
90.50794,90.81251,48,45,0
90.50794,90.81251,44,45,0
91.11708,91.422424,56,50,0
91.11708,91.422424,46,42,0
91.11708,91.422424,53,42,0
91.7382,92.0435,55,58,0
91.7382,92.0435,51,49,0
92.19606,92.34896,51,54,0
92.34896,92.502594,50,60,0
92.502594,92.65493,51,55,0
92.65493,92.73127,56,62,0
92.65493,92.73127,48,52,0
92.8076,92.88676,48,48,0
92.8076,92.88676,56,57,0
92.96591,93.27122,46,55,0
92.96591,93.27122,55,65,0
93.42378,93.576675,51,61,0
93.576675,93.730316,50,68,0
93.730316,93.88265,51,63,0
93.88265,93.958984,60,69,0
93.88265,93.958984,56,58,0
94.035324,94.11448,60,64,0
94.035324,94.11448,56,54,0
94.193634,94.3471,58,71,0
94.193634,94.3471,55,71,0
94.3471,94.42326,51,62,0
94.42326,94.499535,63,54,0
94.499535,94.5765,51,63,0
94.5765,94.65276,63,56,0
94.65276,94.72956,51,63,0
94.72956,94.806114,63,57,0
94.806114,94.88258,51,63,0
94.88258,94.95965,63,55,0
94.95965,95.0363,51,64,0
95.0363,95.11263,63,59,0
95.11263,95.198105,51,65,0
95.198105,95.28358,63,58,0
95.28358,95.39986,51,66,0
95.39986,95.50728,63,61,0
95.50728,96.731255,58,49,0
95.50728,96.731255,56,49,0
95.50728,96.731255,53,49,0
95.50728,96.731255,50,49,0
95.52458,96.748474,62,66,0
96.731255,97.03738,63,66,0
96.731255,97.03738,55,49,0
96.731255,97.03738,51,49,0
96.731255,97.03738,58,49,0
97.96336,98.123795,32,73,0
97.96336,98.123795,44,73,0
98.430695,98.50742,32,63,0
98.430695,98.50742,44,63,0
98.58415,98.7433,46,70,0
98.58415,98.7433,34,70,0
99.0502,99.13129,34,63,0
99.0502,99.13129,46,63,0
99.365746,99.44259,68,63,0
99.44259,99.51931,70,65,0
99.51931,99.595856,72,69,0
99.595856,99.67225,70,67,0
99.67225,99.74819,68,65,0
99.74819,99.82395,67,64,0
99.82395,99.92501,65,67,0
99.92501,100.026276,63,61,0
100.026276,100.12758,62,61,0
100.12758,100.2291,60,67,0
100.2291,100.33064,58,62,0
100.33064,100.43243,56,62,0
100.43243,100.53525,55,67,0
100.53525,100.637794,56,63,0
100.637794,100.7401,58,63,0
100.7401,100.84215,56,67,0
100.84215,100.943726,55,60,0
100.943726,101.04474,53,60,0
101.04474,101.1458,51,70,0
101.1458,101.24706,50,63,0
101.24706,101.348366,48,66,0
101.348366,101.44988,46,74,0
101.44988,101.55143,44,67,0
101.55143,101.653206,43,67,0
101.653206,101.81364,32,73,0
101.653206,101.81364,44,73,0
102.120544,102.197266,44,63,0
102.120544,102.197266,32,63,0
102.273994,102.43314,46,70,0
102.273994,102.43314,34,70,0
102.74005,102.82113,34,63,0
102.74005,102.82113,46,63,0
102.90149,103.20997,46,59,0
102.90149,103.20997,51,70,0
102.90149,103.20997,39,59,0
102.90149,103.20997,43,59,0
103.20997,103.28441,64,53,0
103.20997,103.28441,67,63,0
103.35886,103.437386,67,63,0
103.35886,103.437386,64,53,0
103.51592,103.66977,65,59,0
103.51592,103.66977,68,70,0
103.823616,103.898056,67,63,0
103.823616,103.898056,64,53,0
103.972496,104.05103,67,63,0
103.972496,104.05103,64,53,0
104.12956,104.283806,65,59,0
104.12956,104.283806,68,70,0
104.43805,104.59033,46,74,0
104.43805,104.59033,34,63,0
105.04719,105.12491,35,30,0
105.04719,105.12491,47,36,0
105.35807,105.4344,48,38,0
105.35807,105.4344,36,32,0
105.663414,105.738976,33,30,0
105.663414,105.738976,45,36,0
105.965675,106.041245,34,32,0
105.965675,106.041245,46,38,0
106.267944,106.345665,46,33,0
106.267944,106.345665,34,27,0
106.57883,106.65497,51,38,0
106.57883,106.65497,39,32,0
106.88339,106.95784,64,53,0
106.88339,106.95784,67,63,0
107.03228,107.11081,67,63,0
107.03228,107.11081,64,53,0
107.18935,107.34319,65,59,0
107.18935,107.34319,68,70,0
107.49704,107.57148,67,63,0
107.49704,107.57148,64,53,0
107.64592,107.72446,67,63,0
107.64592,107.72446,64,53,0
107.80299,107.95723,65,59,0
107.80299,107.95723,68,70,0
108.11147,108.263756,34,63,0
108.11147,108.263756,46,74,0
108.72061,109.336,35,55,0
108.72061,109.336,39,55,0
108.72061,109.336,42,55,0
108.72061,109.336,47,65,0
109.336,109.41156,45,36,0
109.336,109.41156,33,30,0
109.63826,109.71383,34,32,0
109.63826,109.71383,46,38,0
109.94053,110.01825,46,33,0
109.94053,110.01825,34,27,0
110.25141,110.403694,39,32,0
110.403694,110.55598,51,27,0
110.861015,111.013306,39,32,0
111.013306,111.16559,51,28,0
111.468376,111.62027,39,32,0
111.62027,111.77217,51,28,0
112.07646,112.22836,39,32,0
112.22836,112.380264,51,27,0
112.68899,113.01244,39,32,0
114.39352,114.54093,48,36,0
114.54093,114.688354,47,42,0
114.688354,114.83577,48,35,0
114.83577,114.90737,55,37,0
114.83577,114.90737,58,45,0
114.97897,115.078705,55,35,0
114.97897,115.078705,58,42,0
115.17844,116.37657,55,64,0
115.17844,116.37657,58,77,0
116.37657,116.67141,56,32,0
116.37657,116.67141,58,38,0
116.81495,116.96237,46,36,0
116.96237,117.109795,45,42,0
117.109795,117.25721,46,35,0
117.25721,117.32881,56,37,0
117.25721,117.32881,58,45,0
117.400406,117.50115,56,35,0
117.400406,117.50115,58,42,0
117.60189,118.80002,56,64,0
117.60189,118.80002,58,77,0
118.80002,119.09486,55,32,0
118.80002,119.09486,58,38,0
119.41384,119.70868,53,33,0
119.41384,119.70868,61,39,0
119.41384,119.70868,58,33,0
120.02766,120.322495,52,34,0
120.02766,120.322495,55,34,0
120.02766,120.322495,58,34,0
120.02766,120.322495,60,40,0
121.215485,121.51032,60,53,0
121.215485,121.51032,56,43,0
121.215485,121.51032,53,43,0
121.81149,122.10417,60,55,0
121.81149,122.10417,51,45,0
121.81149,122.10417,53,45,0
121.81149,122.10417,56,45,0
122.40433,122.696304,59,58,0
122.40433,122.696304,50,49,0
122.40433,122.696304,53,49,0
122.40433,122.696304,56,49,0
122.99646,123.28772,56,63,0
122.99646,123.28772,48,52,0
122.99646,123.28772,50,52,0
122.99646,123.28772,53,52,0
123.586876,123.881714,56,70,0
123.586876,123.881714,47,58,0
123.586876,123.881714,50,58,0
123.586876,123.881714,53,58,0
124.349205,124.47656,80,65,0
124.490715,124.61807,80,65,0
124.632225,124.76622,80,65,0
124.78111,125.3537,71,69,0
125.496216,125.62448,56,65,0
125.63873,125.767006,56,65,0
125.78126,125.91525,56,65,0
125.93014,126.076126,47,69,0
126.076126,126.20751,56,64,0
126.22211,126.35349,56,64,0
126.368095,126.53711,56,64,0
126.53711,126.70015,47,75,0
126.70015,126.85444,56,69,0
126.87158,127.02586,56,69,0
127.04301,127.28089,56,69,0
127.30733,128.60362,47,88,0
128.64066,128.78772,48,36,0
128.78772,128.93513,47,38,0
128.93513,129.08257,48,35,0
129.08257,129.15416,53,38,0
129.22575,129.31322,53,34,0
129.40068,129.69194,51,38,0
129.83757,129.985,48,36,0
129.985,130.13242,47,38,0
130.13242,130.27983,48,35,0
130.27983,130.35161,56,38,0
130.42337,130.5111,56,34,0
130.59882,130.89008,55,38,0
131.79723,132.9994,66,38,0
131.79723,132.9994,60,38,0
131.79723,132.9994,56,38,0
132.9994,133.29066,55,32,0
132.9994,133.29066,62,32,0
132.9994,133.29066,67,38,0
133.4363,133.58192,43,36,0
133.58192,133.72826,42,38,0
133.72826,133.8746,43,35,0
133.8746,133.94777,48,38,0
134.02095,134.1057,48,34,0
134.19044,134.4824,47,38,0
134.62839,134.77438,43,36,0
134.77438,134.9218,42,38,0
134.9218,135.06921,43,35,0
135.06921,135.1424,51,38,0
135.21556,135.30127,51,34,0
135.387,135.68329,50,38,0
135.83144,135.9055,43,37,0
135.97958,136.05275,47,43,0
136.12593,136.1991,50,37,0
136.27226,136.34543,53,37,0
136.41861,136.49178,56,37,0
136.56494,136.63812,59,46,0
136.71129,136.78445,62,45,0
136.85764,136.9308,65,47,0
137.00397,137.08011,68,50,0
137.15625,137.22997,67,53,0
137.30368,137.37738,65,50,0
137.4511,137.52481,63,46,0
137.59851,137.68303,62,45,0
137.76753,137.84088,60,42,0
137.91423,137.98758,67,38,0
137.91423,137.98758,63,32,0
138.06093,138.13428,67,38,0
138.06093,138.13428,63,32,0
138.20763,138.28098,67,38,0
138.20763,138.28098,63,32,0
138.35432,138.42822,60,42,0
138.5021,138.576,70,37,0
138.5021,138.576,67,31,0
138.5021,138.576,64,31,0
138.6499,138.72307,70,37,0
138.6499,138.72307,67,31,0
138.6499,138.72307,64,31,0
138.79623,138.88051,70,37,0
138.79623,138.88051,67,31,0
138.79623,138.88051,64,31,0
138.96478,139.0383,60,42,0
139.11148,139.18465,68,38,0
139.11148,139.18465,65,32,0
139.25781,139.331,68,38,0
139.25781,139.331,65,32,0
139.40416,139.47733,68,38,0
139.40416,139.47733,65,32,0
139.5505,139.62367,60,42,0
139.69684,139.77002,71,37,0
139.69684,139.77002,68,31,0
139.69684,139.77002,65,31,0
139.84319,139.91635,71,37,0
139.84319,139.91635,68,31,0
139.84319,139.91635,65,31,0
139.98953,140.06827,71,37,0
139.98953,140.06827,68,31,0
139.98953,140.06827,65,31,0
140.147,140.21982,60,42,0
140.29263,140.36545,67,38,0
140.29263,140.36545,63,32,0
140.43826,140.51108,67,38,0
140.43826,140.51108,63,32,0
140.5839,140.65672,67,38,0
140.5839,140.65672,63,32,0
140.72954,140.80324,60,42,0
140.87695,140.95067,70,37,0
140.87695,140.95067,67,31,0
140.87695,140.95067,64,31,0
141.02437,141.09755,70,37,0
141.02437,141.09755,67,31,0
141.02437,141.09755,64,31,0
141.17072,141.25522,70,37,0
141.17072,141.25522,67,31,0
141.17072,141.25522,64,31,0
141.33972,141.4129,60,42,0
141.48607,141.55923,68,38,0
141.48607,141.55923,65,32,0
141.63242,141.70874,68,38,0
141.63242,141.70874,65,32,0
141.78508,141.85825,68,38,0
141.78508,141.85825,65,32,0
141.93143,142.00441,60,42,0
142.07741,142.1504,71,37,0
142.07741,142.1504,68,31,0
142.07741,142.1504,65,31,0
142.22339,142.29639,71,37,0
142.22339,142.29639,68,31,0
142.22339,142.29639,65,31,0
142.36938,142.44771,71,37,0
142.36938,142.44771,68,31,0
142.36938,142.44771,65,31,0
142.52603,142.81944,67,36,0
142.52603,142.81944,60,36,0
142.52603,142.81944,63,36,0
142.53032,142.82372,72,44,0
142.96614,143.13123,66,42,0
143.13123,143.4239,67,52,0
143.57025,143.73517,59,48,0
143.73517,144.02856,60,57,0
144.17526,144.34064,54,54,0
144.34064,144.63332,55,63,0
144.77966,144.94458,47,57,0
144.94458,145.23726,48,66,0
145.3836,145.54823,42,58,0
145.54823,145.84674,43,67,0
145.84674,145.996,48,96,0
145.84674,145.996,36,82,0
146.14525,146.29451,43,66,0
146.14525,146.29451,31,55,0
146.44376,146.59302,48,97,0
146.44376,146.59302,36,82,0
146.74226,146.89153,43,68,0
146.74226,146.89153,31,57,0
147.04077,147.19002,48,97,0
147.04077,147.19002,36,82,0
147.3542,148.54823,43,78,0
147.3542,148.54823,31,66,0
147.3542,148.54823,35,66,0
147.3542,148.54823,38,66,0
149.31065,149.94603,60,31,0
149.31065,149.94603,48,26,0
149.31065,149.94603,55,26,0
149.94603,150.02602,59,30,0
149.94603,150.02602,53,25,0
149.94603,150.02602,55,25,0
150.26602,150.34602,60,27,0
150.26602,150.34602,55,23,0
150.26602,150.34602,52,23,0
150.62146,151.25977,62,32,0
150.62146,151.25977,50,27,0
150.62146,151.25977,55,27,0
151.88326,152.51862,60,31,0
151.88326,152.51862,48,26,0
151.88326,152.51862,55,26,0
152.51862,152.59862,57,30,0
152.51862,152.59862,53,25,0
152.83862,152.91862,57,27,0
152.83862,152.91862,54,23,0
153.19406,153.83406,55,27,0
153.19406,153.83406,43,22,0
154.45798,155.09334,60,31,0
154.45798,155.09334,48,26,0
154.45798,155.09334,55,26,0
155.09334,155.17334,59,30,0
155.09334,155.17334,53,25,0
155.09334,155.17334,55,25,0
155.41335,155.49333,60,27,0
155.41335,155.49333,52,23,0
155.41335,155.49333,55,23,0
155.7431,156.09584,65,40,0
155.70993,156.09584,53,28,0
155.721,156.09584,57,32,0
155.73206,156.09584,60,36,0
157.8112,157.88812,43,49,0
157.96506,158.04198,45,53,0
158.1189,158.19868,47,45,0
158.27847,158.35442,48,53,0
158.43037,158.50632,50,49,0
158.58228,158.65822,52,51,0
158.88606,159.1914,50,53,0
159.1914,159.51405,48,50,0
157.04198,159.51405,55,80,0
160.27936,160.3559,43,49,0
160.43242,160.50896,45,53,0
160.58548,160.66443,47,45,0
160.74338,160.81894,48,53,0
160.8945,160.97008,50,49,0
161.04564,161.12122,51,51,0
161.34792,161.65482,50,53,0
161.65482,161.96869,48,50,0
159.51405,161.96869,55,80,0
161.96869,162.27327,44,45,0
161.96869,162.27327,50,45,0
161.96869,162.27327,53,53,0
161.96869,162.27327,41,45,0
162.57784,162.88318,53,50,0
162.57784,162.88318,47,42,0
162.57784,162.88318,43,42,0
162.57784,162.88318,50,42,0
163.19894,163.35156,48,49,0
163.19894,163.35156,51,58,0
163.35156,163.428,55,48,0
163.50426,163.58084,55,48,0
163.65681,163.73367,55,48,0
163.80971,163.96335,55,54,0
163.96335,164.03941,55,47,0
164.11569,164.19202,47,47,0
164.26836,164.34752,55,47,0
164.42667,164.57928,48,63,0
164.57928,164.65572,55,52,0
164.73198,164.80855,55,52,0
164.88454,164.96138,55,52,0
165.03743,165.19107,55,59,0
165.19107,165.26714,55,52,0
165.3434,165.41974,47,52,0
165.49608,165.57523,55,52,0
165.65439,165.80786,48,69,0
165.80786,165.88402,55,55,0
165.9603,166.03725,55,55,0
166.11353,166.19032,55,55,0
166.26688,166.42041,55,71,0
166.42041,166.49706,55,62,0
166.58272,166.68504,55,68,0
166.58272,166.68504,47,57,0
166.58272,166.68504,50,57,0
166.58272,166.68504,53,57,0
166.78735,166.91893,55,69,0
166.78735,166.91893,47,58,0
166.78735,166.91893,50,58,0
166.78735,166.91893,53,58,0
167.0505,168.27449,53,53,0
167.0505,168.27449,55,72,0
167.0505,168.27449,47,53,0
167.0505,168.27449,50,53,0
168.27449,168.58061,55,66,0
168.27449,168.58061,51,49,0
168.27449,168.58061,48,49,0
169.5066,169.66702,41,73,0
169.97394,170.05066,53,63,0
170.12738,170.28653,43,70,0
170.59344,170.67453,55,63,0
170.90898,170.98582,65,63,0
170.98582,171.06255,67,65,0
171.06255,171.13908,68,69,0
171.13908,171.21548,67,67,0
171.21548,171.29143,65,65,0
171.29143,171.36719,63,64,0
171.36719,171.46825,62,67,0
171.46825,171.56952,60,61,0
171.56952,171.67082,59,61,0
171.67082,171.77234,56,67,0
171.77234,171.87389,55,62,0
171.87389,171.97566,53,62,0
171.97566,172.07849,51,67,0
172.07849,172.18103,53,63,0
172.18103,172.28333,55,63,0
172.28333,172.38538,53,67,0
172.38538,172.48697,51,60,0
172.48697,172.58797,50,60,0
172.58797,172.68903,48,70,0
172.68903,172.7903,46,63,0
172.7903,172.8916,44,66,0
172.8916,172.99312,43,74,0
172.99312,173.09467,41,67,0
173.09467,173.19644,39,67,0
173.19644,173.35687,41,73,0
173.19644,173.35687,29,73,0
173.66377,173.74051,41,63,0
173.66377,173.74051,29,63,0
173.81723,173.97638,43,70,0
173.81723,173.97638,31,70,0
174.2833,174.36436,43,63,0
174.2833,174.36436,31,63,0
174.44472,174.7532,48,70,0
174.44472,174.7532,36,59,0
174.44472,174.7532,39,59,0
174.44472,174.7532,43,59,0
174.7532,174.82765,64,63,0
174.7532,174.82765,61,53,0
174.90208,174.98062,64,63,0
174.90208,174.98062,61,53,0
175.05916,175.213,65,70,0
175.05916,175.213,62,59,0
175.36685,175.44128,64,63,0
175.36685,175.44128,61,53,0
175.51573,175.59427,64,63,0
175.51573,175.59427,61,53,0
175.6728,175.82704,65,70,0
175.6728,175.82704,62,59,0
175.98128,176.13358,43,74,0
175.98128,176.13358,31,63,0
176.59042,176.66814,43,36,0
176.59042,176.66814,31,30,0
176.9013,176.97765,44,38,0
176.9013,176.97765,32,32,0
177.20665,177.28221,42,36,0
177.20665,177.28221,30,30,0
177.50891,177.58449,43,38,0
177.50891,177.58449,31,32,0
177.81119,177.8889,43,33,0
177.81119,177.8889,31,27,0
178.12206,178.19821,48,38,0
178.12206,178.19821,36,32,0
178.42664,178.50107,64,63,0
178.42664,178.50107,61,53,0
178.57552,178.65405,64,63,0
178.57552,178.65405,61,53,0
178.73259,178.88643,65,70,0
178.73259,178.88643,62,59,0
179.04027,179.11472,64,63,0
179.04027,179.11472,61,53,0
179.18916,179.26768,61,63,0
179.18916,179.26768,64,53,0
179.34622,179.50047,65,70,0
179.34622,179.50047,62,59,0
179.65471,179.81471,43,74,0
179.65471,179.81471,31,63,0
180.29471,180.9103,44,65,0
180.29471,180.9103,32,55,0
180.29471,180.9103,36,55,0
180.29471,180.9103,39,55,0
180.9103,180.98586,42,36,0
180.9103,180.98586,30,30,0
181.21255,181.28813,43,38,0
181.21255,181.28813,31,32,0
181.51483,181.59254,43,33,0
181.51483,181.59254,31,27,0
181.8257,181.978,36,32,0
181.978,182.13028,48,27,0
182.43532,182.5876,36,32,0
182.5876,182.73988,48,28,0
183.04266,183.19456,36,32,0
183.19456,183.34647,48,28,0
183.65076,183.80266,36,32,0
183.80266,183.95456,48,27,0
184.26329,184.41557,32,36,0
184.41557,184.56786,44,32,0
184.8729,185.02518,32,42,0
185.02518,185.17746,44,38,0
185.48026,185.63216,32,55,0
185.63216,185.78404,44,51,0
186.08833,186.24023,32,64,0
186.24023,186.41118,44,56,0
186.78972,191.24582,44,70,0
186.78972,191.24582,32,65,0
192.20071,192.92659,49,26,0
192.20071,192.92659,37,21,0
192.92659,193.01668,48,25,0
192.92659,193.01668,42,20,0
193.28694,193.37703,49,23,0
193.28694,193.37703,41,19,0
193.71506,194.76747,51,27,0
193.71506,194.76747,44,22,0
195.29073,196.03555,49,26,0
195.29073,196.03555,37,21,0
196.03555,196.1296,42,25,0
196.03555,196.1296,30,20,0
196.41173,196.50577,43,23,0
196.41173,196.50577,31,19,0
196.86366,197.74258,44,22,0
196.86366,197.74258,32,18,0
198.50943,199.26892,49,26,0
198.50943,199.26892,37,21,0
199.26892,199.3744,48,25,0
199.26892,199.3744,42,20,0
199.69086,199.79634,49,23,0
199.69086,199.79634,41,19,0
200.14977,202.35768,51,28,0
200.14977,202.35768,48,24,0
200.14977,202.35768,44,24,0
202.35768,202.44167,33,30,0
202.44167,202.52142,36,32,0
202.52142,202.60059,39,33,0
202.60059,202.67932,42,34,0
202.67833,206.32924,45,36,0
202.88548,206.34154,51,39,0
202.78183,206.34154,48,37,0
206.34154,206.40662,31,60,0
206.40662,206.47108,36,61,0
206.47108,206.53616,39,62,0
206.53555,206.60063,43,63,0
206.60063,206.6651,48,63,0
206.6651,206.73016,51,64,0
207.50925,207.58223,51,70,0
207.65521,207.7282,48,57,0
207.80118,207.87416,47,63,0
207.94714,208.02567,50,53,0
207.80118,208.10419,43,42,0
207.80118,208.10419,31,42,0
208.10419,208.1815,36,64,0
208.10419,208.2588,48,43,0
208.2588,208.33125,48,38,0
208.40372,208.47617,48,38,0
208.54861,208.62106,48,38,0
208.69353,208.76889,48,41,0
208.84425,208.91689,55,31,0
208.84425,208.91689,58,37,0
208.98952,209.06213,55,31,0
208.98952,209.06213,58,37,0
209.13477,209.2074,55,31,0
209.13477,209.2074,58,37,0
209.28003,209.35338,48,43,0
209.42673,209.50008,56,36,0
209.42673,209.50008,53,31,0
209.57343,209.64677,56,36,0
209.57343,209.64677,53,31,0
209.72012,209.79347,56,36,0
209.72012,209.79347,53,31,0
209.86682,209.94072,48,41,0
210.0146,210.0885,53,31,0
210.0146,210.0885,56,31,0
210.0146,210.0885,59,36,0
210.16238,210.23557,53,31,0
210.16238,210.23557,56,31,0
210.16238,210.23557,59,36,0
210.30873,210.393,53,31,0
210.30873,210.393,56,31,0
210.30873,210.393,59,36,0
210.47728,210.63188,48,43,0
210.63188,210.70435,60,38,0
210.63188,210.70435,55,32,0
210.63188,210.70435,52,32,0
210.7768,210.84924,60,38,0
210.7768,210.84924,55,32,0
210.7768,210.84924,52,32,0
210.9217,210.99416,60,38,0
210.9217,210.99416,55,32,0
210.9217,210.99416,52,32,0
211.0666,211.14197,48,41,0
211.21733,211.28996,55,31,0
211.21733,211.28996,58,37,0
211.3626,211.43523,55,31,0
211.3626,211.43523,58,37,0
211.50786,211.58047,55,31,0
211.50786,211.58047,58,37,0
211.6531,211.72646,48,43,0
211.7998,211.87315,56,36,0
211.7998,211.87315,53,31,0
211.9465,212.01987,56,36,0
211.9465,212.01987,53,31,0
212.09322,212.16656,56,36,0
212.09322,212.16656,53,31,0
212.23991,212.3138,48,41,0
212.3877,212.46158,53,31,0
212.3877,212.46158,56,31,0
212.3877,212.46158,59,36,0
212.53548,212.60864,53,31,0
212.53548,212.60864,56,31,0
212.53548,212.60864,59,36,0
212.68182,212.76608,53,31,0
212.68182,212.76608,56,31,0
212.68182,212.76608,59,36,0
212.85036,213.00497,48,43,0
213.00497,213.07742,60,38,0
213.00497,213.07742,55,32,0
213.00497,213.07742,52,32,0
213.14987,213.22234,60,38,0
213.14987,213.22234,55,32,0
213.14987,213.22234,52,32,0
213.29478,213.36813,60,38,0
213.29478,213.36813,55,32,0
213.29478,213.36813,52,32,0
213.44148,213.51538,48,40,0
213.58926,213.66316,53,30,0
213.58926,213.66316,56,30,0
213.58926,213.66316,59,36,0
213.73705,213.81023,53,29,0
213.73705,213.81023,56,29,0
213.73705,213.81023,59,35,0
213.88339,213.96767,53,29,0
213.88339,213.96767,56,29,0
213.88339,213.96767,59,34,0
214.05193,214.20654,48,40,0
214.20654,214.279,60,35,0
214.20654,214.279,55,29,0
214.20654,214.279,52,29,0
214.35146,214.4239,60,35,0
214.35146,214.4239,55,29,0
214.35146,214.4239,52,29,0
214.49637,214.56972,60,34,0
214.49637,214.56972,55,28,0
214.49637,214.56972,52,28,0
214.64307,214.71695,48,36,0
214.79085,214.86473,53,27,0
214.79085,214.86473,56,27,0
214.79085,214.86473,59,32,0
214.93863,215.0118,53,27,0
214.93863,215.0118,56,27,0
214.93863,215.0118,59,31,0
215.08498,215.16924,53,26,0
215.08498,215.16924,56,26,0
215.08498,215.16924,59,30,0
215.25351,215.40813,48,32,0
215.40813,215.48274,60,27,0
215.40813,215.48274,55,23,0
215.40813,215.48274,52,23,0
215.55736,215.63197,60,27,0
215.55736,215.63197,55,23,0
215.55736,215.63197,52,23,0
215.70659,215.77994,60,27,0
215.70659,215.77994,55,22,0
215.70659,215.77994,52,22,0
215.85329,216.0395,48,32,0
216.0395,216.12718,60,26,0
216.0395,216.12718,55,22,0
216.0395,216.12718,52,22,0
216.21484,216.3025,60,26,0
216.21484,216.3025,55,21,0
216.21484,216.3025,52,21,0
216.39018,216.50372,60,25,0
216.39018,216.50372,55,21,0
216.39018,216.50372,52,21,0
216.61728,216.97765,55,24,0
216.61728,216.97765,52,20,0
216.61728,216.97765,48,20,0
