start_time,end_time,note_value,velocity,instrument_program_number
1.2235577,1.3376262,86,105,0
1.2235577,1.3376262,74,88,0
1.2235577,1.3376262,77,88,0
1.2235577,1.3376262,82,88,0
1.3376262,1.508729,86,94,0
1.3376262,1.508729,77,79,0
1.3376262,1.508729,82,79,0
1.3376262,1.508729,74,79,0
1.5657632,1.608539,82,80,0
1.5657632,1.608539,74,80,0
1.5657632,1.608539,87,100,0
1.5657632,1.608539,77,80,0
1.6798317,1.7328978,77,82,0
1.6798317,1.7328978,86,97,0
1.6798317,1.7328978,74,82,0
1.6798317,1.7328978,82,82,0
1.8213413,1.9523455,86,105,0
1.8213413,1.9523455,77,88,0
1.8213413,1.9523455,74,88,0
1.8213413,1.9523455,82,88,0
2.0833497,2.214354,82,96,0
2.0833497,2.214354,74,80,0
2.0833497,2.214354,70,80,0
2.0833497,2.214354,77,80,0
3.209657,3.325936,89,105,0
3.209657,3.325936,82,88,0
3.209657,3.325936,86,88,0
3.209657,3.325936,77,88,0
3.325936,3.5003545,89,94,0
3.325936,3.5003545,77,79,0
3.325936,3.5003545,82,79,0
3.325936,3.5003545,86,79,0
3.558494,3.6020987,77,80,0
3.558494,3.6020987,82,80,0
3.558494,3.6020987,86,80,0
3.558494,3.6020987,91,100,0
3.674773,3.7288594,86,82,0
3.674773,3.7288594,77,82,0
3.674773,3.7288594,82,82,0
3.674773,3.7288594,89,97,0
3.8190038,3.9511623,86,88,0
3.8190038,3.9511623,89,105,0
3.8190038,3.9511623,77,88,0
3.8190038,3.9511623,82,88,0
4.0833206,4.2154794,86,96,0
4.0833206,4.2154794,74,80,0
4.0833206,4.2154794,77,80,0
4.0833206,4.2154794,82,80,0
4.6119547,4.7441134,70,50,0
4.7441134,4.8762717,72,45,0
5.159291,5.419031,67,39,0
4.8762717,5.419031,74,50,0
5.419031,5.678772,72,39,0
5.419031,5.678772,69,33,0
5.678772,5.808642,72,50,0
5.808642,5.9385123,74,46,0
5.678772,5.9385123,68,42,0
5.9385123,6.20167,67,46,0
6.20167,6.4833603,69,45,0
5.9385123,6.4833603,75,55,0
6.4833603,6.7488465,74,45,0
6.4833603,6.7488465,70,38,0
6.7488465,6.889692,74,47,0
6.889692,7.0305367,75,50,0
6.7488465,7.0305367,67,39,0
7.0305367,7.2983937,65,45,0
7.0305367,7.4299726,77,54,0
7.4299726,7.5615516,79,52,0
7.2983937,7.5615516,70,45,0
7.5615516,7.693131,77,50,0
7.5615516,7.846192,67,42,0
7.693131,7.988372,75,43,0
7.988372,8.130552,77,45,0
7.846192,8.130552,69,43,0
8.130552,8.285993,75,49,0
8.285993,8.449927,74,41,0
8.130552,8.449927,65,35,0
8.130552,8.449927,70,35,0
8.449927,8.610354,77,43,0
8.610354,8.791078,75,37,0
8.449927,8.791078,67,30,0
8.449927,8.791078,72,30,0
8.791078,9.152524,72,35,0
8.791078,9.152524,69,30,0
9.152524,9.284682,82,50,0
9.284682,9.416841,84,45,0
9.69986,9.9596,79,39,0
9.416841,9.9596,86,50,0
9.9596,10.21934,84,39,0
9.9596,10.21934,81,33,0
10.21934,10.349211,84,50,0
10.349211,10.479081,86,46,0
10.21934,10.479081,80,42,0
10.479081,10.742239,79,46,0
10.742239,11.02393,81,45,0
10.479081,11.02393,87,55,0
11.02393,11.289415,82,38,0
11.02393,11.289415,86,45,0
11.289415,11.430261,86,51,0
11.430261,11.571106,87,55,0
11.289415,11.571106,79,39,0
11.571106,11.838963,77,45,0
11.571106,11.970542,89,59,0
11.970542,12.10212,91,57,0
11.838963,12.10212,82,45,0
12.10212,12.2337,89,55,0
12.10212,12.386761,79,42,0
12.2337,12.528941,87,47,0
12.528941,12.671121,89,50,0
12.386761,12.671121,81,43,0
12.671121,12.8027,87,57,0
12.671121,12.955761,77,44,0
12.8027,13.097941,86,49,0
13.097941,13.240121,87,53,0
13.240121,13.377736,86,60,0
13.377736,13.51535,84,49,0
12.955761,13.51535,82,46,0
13.51535,13.652966,86,55,0
13.652966,13.79058,87,51,0
13.51535,13.79058,77,47,0
13.51535,13.79058,81,47,0
13.79058,13.926327,91,67,0
13.926327,14.062074,89,53,0
13.79058,14.062074,82,52,0
13.79058,14.062074,77,52,0
14.062074,14.19782,91,58,0
14.19782,14.34136,89,59,0
14.062074,14.34136,82,41,0
14.34136,14.47589,89,69,0
14.47589,14.610419,87,55,0
14.34136,14.610419,79,53,0
14.610419,14.744948,89,61,0
14.744948,14.892732,87,56,0
14.610419,14.892732,81,43,0
14.892732,15.027261,87,74,0
15.027261,15.16179,86,57,0
14.892732,15.16179,77,57,0
15.16179,15.296319,87,63,0
15.296319,15.439701,86,58,0
15.443378,15.578513,86,75,0
15.578513,15.713649,84,61,0
15.16179,15.713649,82,45,0
15.713649,15.8487835,86,67,0
15.8487835,15.999537,87,70,0
15.713649,15.999537,81,47,0
15.713649,15.999537,77,47,0
15.999537,16.135284,91,69,0
16.135284,16.27103,89,70,0
15.999537,16.27103,82,58,0
15.999537,16.27103,77,58,0
16.27103,16.557531,88,76,0
16.27103,16.557531,82,60,0
16.406776,16.69642,91,72,0
16.557531,16.835308,87,67,0
16.69642,16.974197,92,74,0
16.974197,17.122713,93,77,0
16.835308,17.122713,87,76,0
16.835308,17.122713,84,64,0
17.122713,17.263557,96,86,0
17.263557,17.404402,94,72,0
17.122713,17.404402,86,73,0
17.122713,17.404402,82,73,0
17.404402,17.545248,93,84,0
17.545248,17.695248,91,74,0
17.404402,17.695248,87,71,0
17.404402,17.695248,82,71,0
17.695248,17.846,82,72,0
17.695248,17.846,86,72,0
17.695248,17.846,89,86,0
17.996756,18.147509,81,67,0
17.996756,18.147509,89,80,0
17.996756,18.147509,93,80,0
17.996756,18.147509,84,67,0
18.298262,18.841248,94,101,0
18.298262,18.841248,82,85,0
18.298262,18.841248,89,85,0
18.298262,18.841248,86,85,0
18.841248,19.397741,74,63,0
18.841248,19.397741,82,75,0
18.841248,19.397741,70,63,0
19.397741,19.464113,74,50,0
19.397741,19.464113,86,59,0
19.397741,19.464113,77,50,0
19.663229,19.729599,70,51,0
19.663229,19.729599,74,51,0
19.663229,19.729599,82,61,0
19.928715,19.995087,86,61,0
19.928715,19.995087,77,51,0
19.928715,19.995087,74,51,0
20.1942,20.260572,84,61,0
20.1942,20.260572,75,51,0
20.1942,20.260572,72,51,0
20.497398,21.040384,75,97,0
20.497398,21.040384,79,97,0
20.497398,21.040384,87,116,0
21.040384,21.596878,72,63,0
21.040384,21.596878,75,63,0
21.040384,21.596878,84,75,0
21.596878,21.66325,79,50,0
21.596878,21.66325,75,50,0
21.596878,21.66325,87,59,0
21.862364,21.928736,85,61,0
21.862364,21.928736,76,51,0
21.862364,21.928736,73,51,0
22.127851,22.192787,75,51,0
22.127851,22.192787,87,61,0
22.127851,22.192787,78,51,0
22.387592,22.452526,86,61,0
22.387592,22.452526,74,51,0
22.387592,22.452526,77,51,0
22.677889,23.220877,77,93,0
22.677889,23.220877,80,93,0
22.677889,23.220877,89,111,0
23.220877,23.777369,77,63,0
23.220877,23.777369,74,63,0
23.220877,23.777369,86,75,0
23.777369,23.84374,89,59,0
23.777369,23.84374,77,50,0
23.777369,23.84374,80,50,0
24.042856,24.109226,86,61,0
24.042856,24.109226,78,51,0
24.042856,24.109226,74,51,0
24.308342,24.372997,77,51,0
24.308342,24.372997,89,61,0
24.308342,24.372997,80,51,0
24.566963,24.631618,87,61,0
24.566963,24.631618,75,51,0
24.566963,24.631618,79,51,0
24.8567,25.399687,82,93,0
24.8567,25.399687,79,93,0
24.8567,25.399687,91,111,0
25.399687,25.95618,82,63,0
25.399687,25.95618,87,75,0
25.399687,25.95618,79,63,0
25.399687,25.95618,75,63,0
25.95618,26.02255,82,50,0
25.95618,26.02255,91,59,0
25.95618,26.02255,79,50,0
26.221666,26.288038,88,61,0
26.221666,26.288038,82,51,0
26.221666,26.288038,76,51,0
26.487152,26.552942,90,67,0
26.487152,26.552942,78,56,0
26.487152,26.552942,82,56,0
26.75031,26.816101,77,58,0
26.75031,26.816101,82,58,0
26.75031,26.816101,89,69,0
27.02543,27.091803,80,59,0
27.02543,27.091803,82,59,0
27.02543,27.091803,92,69,0
27.290916,27.357288,82,62,0
27.290916,27.357288,90,74,0
27.290916,27.357288,78,62,0
27.556404,27.62162,80,64,0
27.556404,27.62162,82,64,0
27.556404,27.62162,92,76,0
27.817272,27.88249,79,66,0
27.817272,27.88249,91,79,0
27.817272,27.88249,82,66,0
28.088552,28.154343,91,67,0
28.088552,28.154343,82,67,0
28.088552,28.154343,87,67,0
28.088552,28.154343,94,79,0
28.351711,28.4175,92,84,0
28.351711,28.4175,80,70,0
28.614868,28.680658,94,86,0
28.614868,28.680658,82,72,0
28.878027,28.943817,81,74,0
28.878027,28.943817,93,89,0
29.150452,29.28203,96,99,0
29.150452,29.28203,84,84,0
29.413609,29.545187,94,88,0
29.413609,29.545187,82,74,0
29.676767,29.808346,91,97,0
29.676767,29.808346,79,82,0
29.939924,30.071505,77,76,0
29.939924,30.071505,89,90,0
30.212349,30.343353,75,85,0
30.212349,30.343353,87,97,0
30.474358,30.605362,74,69,0
30.474358,30.605362,86,82,0
30.736366,30.86737,72,73,0
30.736366,30.86737,84,87,0
30.998375,31.12938,82,81,0
30.998375,31.12938,70,68,0
31.270224,31.401802,79,89,0
31.270224,31.401802,67,75,0
31.533382,31.66496,77,79,0
31.533382,31.66496,65,66,0
31.79654,31.928118,63,69,0
31.79654,31.928118,75,82,0
32.059696,32.191277,74,76,0
32.059696,32.191277,62,64,0
32.332123,32.464867,60,67,0
32.332123,32.464867,72,80,0
32.597607,32.73035,58,59,0
32.597607,32.73035,70,71,0
32.863094,32.99584,55,65,0
32.863094,32.99584,67,78,0
33.128582,33.261326,53,61,0
33.128582,33.261326,65,72,0
33.40217,33.667656,69,77,0
33.667656,33.94394,65,67,0
33.94394,34.210606,72,73,0
34.210606,34.48612,65,67,0
34.48612,34.752785,77,71,0
34.752785,35.028976,65,59,0
35.028976,35.295643,81,68,0
35.295643,35.573208,65,56,0
35.573208,35.850986,84,62,0
35.850986,36.148605,65,49,0
36.148605,36.453175,89,54,0
36.453175,36.7851,65,45,0
36.7851,37.126007,89,52,0
37.126007,37.55941,65,41,0
37.55941,38.67052,89,48,0
39.2419,39.355972,77,77,0
39.2419,39.355972,82,77,0
39.2419,39.355972,86,92,0
39.2419,39.355972,74,77,0
39.355972,39.584106,82,69,0
39.355972,39.584106,74,69,0
39.355972,39.584106,77,69,0
39.355972,39.584106,86,82,0
39.584106,39.626884,87,89,0
39.584106,39.626884,74,70,0
39.584106,39.626884,82,70,0
39.584106,39.626884,77,70,0
39.698177,39.751244,82,72,0
39.698177,39.751244,77,72,0
39.698177,39.751244,74,72,0
39.698177,39.751244,86,85,0
39.839687,39.97069,74,77,0
39.839687,39.97069,86,92,0
39.839687,39.97069,82,77,0
39.839687,39.97069,77,77,0
40.101696,40.2327,74,70,0
40.101696,40.2327,70,70,0
40.101696,40.2327,82,84,0
40.101696,40.2327,77,70,0
41.228,41.34428,86,92,0
41.228,41.34428,82,77,0
41.228,41.34428,77,77,0
41.234783,41.351063,74,77,0
41.34428,41.351063,74,82,0
41.34428,41.57684,86,99,0
41.57684,41.620445,86,84,0
41.57684,41.620445,78,70,0
41.57684,41.620445,74,70,0
41.57684,41.620445,81,70,0
41.69312,41.747204,81,72,0
41.69312,41.747204,86,85,0
41.69312,41.747204,78,70,0
41.69312,41.747204,74,72,0
41.83735,41.96951,78,77,0
41.83735,41.96951,81,77,0
41.83735,41.96951,74,77,0
41.83735,41.96951,86,92,0
42.101665,42.233826,86,84,0
42.101665,42.233826,81,70,0
42.101665,42.233826,78,70,0
42.101665,42.233826,74,70,0
43.154594,43.280117,69,33,0
43.154594,43.280117,74,39,0
43.154594,43.280117,66,33,0
43.669327,43.79591,66,35,0
43.669327,43.79591,69,35,0
43.669327,43.79591,74,42,0
44.184544,44.310593,66,37,0
44.184544,44.310593,74,44,0
44.184544,44.310593,69,37,0
44.703156,44.829205,74,46,0
44.703156,44.829205,69,39,0
44.703156,44.829205,66,39,0
45.221817,45.349476,69,41,0
45.221817,45.349476,74,41,0
45.221817,45.349476,72,41,0
45.221817,45.349476,78,49,0
45.748573,45.877884,72,43,0
45.748573,45.877884,69,43,0
45.748573,45.877884,74,43,0
45.748573,45.877884,78,51,0
46.280083,46.409954,69,50,0
46.280083,46.409954,81,60,0
46.280083,46.409954,78,50,0
46.280083,46.409954,72,50,0
46.81691,46.947346,81,57,0
46.81691,46.947346,84,68,0
46.81691,46.947346,78,57,0
46.81691,46.947346,72,57,0
47.359955,47.491535,81,64,0
47.359955,47.491535,78,64,0
47.359955,47.491535,84,64,0
47.359955,47.491535,90,75,0
47.90881,48.040966,81,66,0
47.90881,48.040966,84,66,0
47.90881,48.040966,93,79,0
48.463955,48.600315,96,82,0
48.463955,48.600315,93,69,0
48.463955,48.600315,84,69,0
49.027218,49.165466,93,71,0
49.027218,49.165466,96,85,0
49.027218,49.165466,90,71,0
49.027218,49.165466,84,71,0
49.30372,49.441967,90,71,0
49.30372,49.441967,93,71,0
49.30372,49.441967,96,85,0
49.30372,49.441967,84,71,0
49.580215,49.71122,81,57,0
49.580215,49.71122,84,57,0
49.71122,49.85011,80,57,0
49.71122,49.85011,83,57,0
49.85011,50.119167,81,63,0
49.85011,50.119167,84,63,0
50.119167,50.25017,69,52,0
50.119167,50.25017,66,52,0
50.25017,50.39235,67,52,0
50.25017,50.39235,70,52,0
50.39235,50.66262,66,58,0
50.39235,50.66262,69,58,0
50.66262,50.795364,84,47,0
50.66262,50.795364,81,47,0
50.795364,50.93822,80,47,0
50.795364,50.93822,83,47,0
50.93822,51.216,81,56,0
50.93822,51.216,84,56,0
51.216,51.352364,90,47,0
51.352364,51.488728,93,47,0
51.488728,51.62206,96,57,0
51.62206,51.755394,98,48,0
51.755394,51.888725,96,49,0
51.888725,52.027615,95,50,0
52.027615,52.161545,96,65,0
52.161545,52.29547,98,57,0
52.29547,52.4294,100,66,0
52.4294,52.569588,96,58,0
52.569588,52.703518,93,69,0
52.703518,52.837444,95,56,0
52.837444,52.971375,96,66,0
52.971375,53.10899,93,54,0
53.10899,53.242916,90,66,0
53.242916,53.376846,91,53,0
53.376846,53.510773,93,61,0
53.510773,53.65096,90,53,0
53.65096,53.78549,84,47,0
53.78549,53.92002,86,47,0
53.92002,54.05455,88,58,0
54.05455,54.1928,84,47,0
54.1928,54.32554,81,47,0
54.32554,54.458282,83,47,0
54.458282,54.591026,84,53,0
54.591026,54.731873,81,47,0
54.731873,54.865204,78,47,0
54.865204,54.99854,79,47,0
54.99854,55.13187,81,52,0
55.13187,55.27206,78,47,0
55.27206,55.538727,69,47,0
55.27206,55.538727,72,47,0
55.27206,55.538727,74,47,0
55.810947,55.944283,95,57,0
55.944283,56.077614,96,48,0
56.077614,56.21095,95,49,0
56.21095,56.349834,93,50,0
56.349834,56.483765,95,65,0
56.483765,56.617695,96,57,0
56.617695,56.75162,98,66,0
56.75162,56.891808,95,58,0
56.891808,57.025738,91,69,0
57.025738,57.159664,93,56,0
57.159664,57.293594,95,66,0
57.293594,57.43121,91,54,0
57.43121,57.565136,86,66,0
57.565136,57.699066,90,53,0
57.699066,57.832996,91,61,0
57.832996,57.973183,86,53,0
57.973183,58.10771,83,47,0
58.10771,58.24224,84,47,0
58.24224,58.37677,86,58,0
58.37677,58.51502,83,47,0
58.51502,58.647762,79,47,0
58.647762,58.780506,81,47,0
58.780506,58.913246,83,53,0
58.913246,59.054092,79,47,0
59.054092,59.187428,74,47,0
59.187428,59.32076,78,47,0
59.32076,59.454094,79,52,0
59.454094,59.59194,71,47,0
59.59428,59.72761,67,40,0
59.72761,59.860947,69,40,0
59.860947,59.992058,71,45,0
59.994278,60.133167,67,40,0
60.133167,60.410946,66,40,0
60.133167,60.410946,69,46,0
60.133167,60.410946,62,40,0
60.410946,60.54428,88,52,0
60.54428,60.684467,86,47,0
60.684467,60.8178,88,40,0
60.8178,60.951134,86,40,0
60.951134,61.084465,84,45,0
61.084465,61.223354,88,40,0
61.223354,61.362244,84,52,0
61.362244,61.501133,83,42,0
61.501133,61.634468,81,49,0
61.634468,61.774654,84,43,0
61.774654,61.907986,81,48,0
61.907986,62.04132,79,40,0
62.04132,62.174652,78,45,0
62.174652,62.31354,81,40,0
62.31354,62.45243,76,52,0
62.45243,62.59132,74,42,0
62.59132,62.724655,72,49,0
62.724655,62.86484,76,43,0
62.86484,62.998173,72,48,0
62.998173,63.131508,71,40,0
63.131508,63.26484,69,45,0
63.26484,63.40373,72,40,0
63.40373,63.542618,69,52,0
63.542618,63.681507,67,42,0
63.681507,63.814842,66,49,0
63.814842,63.95503,69,43,0
63.95503,64.08836,72,48,0
64.08836,64.221695,71,40,0
64.221695,64.35503,69,45,0
64.35503,64.49392,72,40,0
64.49392,64.7717,67,46,0
64.49392,64.7717,62,40,0
64.7717,64.90503,98,52,0
64.90503,65.04521,96,47,0
65.04521,65.17855,98,40,0
65.17855,65.31188,96,40,0
65.31188,65.44521,95,45,0
65.44521,65.58411,98,40,0
65.58411,65.72299,95,52,0
65.72299,65.86188,93,42,0
65.86188,65.99522,91,49,0
65.99522,66.1354,95,43,0
66.1354,66.26874,83,48,0
66.26874,66.40207,81,40,0
66.40207,66.5354,79,45,0
66.5354,66.67429,83,40,0
66.67429,66.81318,74,52,0
66.81318,66.952065,72,42,0
66.952065,67.0854,71,49,0
67.0854,67.225586,74,43,0
67.225586,67.358925,83,48,0
67.358925,67.492256,81,40,0
67.492256,67.62559,79,45,0
67.62559,67.76448,83,40,0
67.76448,67.903366,86,62,0
67.903366,68.04225,84,51,0
68.04225,68.17559,83,61,0
68.17559,68.31577,84,52,0
68.31577,68.59879,88,62,0
68.59879,68.90807,86,51,0
68.59879,68.90807,81,51,0
68.59879,68.90807,90,51,0
68.90807,69.217354,86,51,0
68.90807,69.217354,79,51,0
68.90807,69.217354,91,51,0
70.41049,70.696205,66,34,0
70.41049,70.696205,69,40,0
70.696205,70.85328,71,38,0
70.696205,70.85328,67,32,0
71.010345,71.15457,83,39,0
71.010345,71.15457,91,47,0
71.15457,71.298805,81,37,0
71.15457,71.298805,90,44,0
71.298805,71.608086,83,39,0
71.298805,71.608086,91,47,0
71.608086,71.92222,88,39,0
71.608086,71.92222,79,33,0
71.608086,71.92222,83,33,0
71.92222,72.25189,78,35,0
71.92222,72.25189,81,35,0
71.92222,72.25189,86,42,0
72.25189,72.60277,76,30,0
72.25189,72.60277,79,30,0
72.25189,72.60277,85,40,0
72.60277,72.93985,88,45,0
72.60277,72.93985,79,38,0
72.93985,73.259735,78,30,0
72.93985,73.259735,86,36,0
73.26243,73.58501,78,30,0
73.26243,73.58501,86,36,0
73.58501,73.729935,86,45,0
73.58501,73.729935,79,38,0
73.729935,73.87486,81,34,0
73.729935,73.87486,84,40,0
73.87486,74.19065,83,46,0
74.19065,74.33699,91,51,0
74.48334,74.63878,88,46,0
74.19065,74.63878,79,43,0
74.79421,74.94056,84,43,0
74.79421,74.94056,96,51,0
74.94056,75.0869,88,37,0
74.94056,75.0869,93,44,0
75.0869,75.411224,90,51,0
75.411224,75.70534,98,56,0
75.70534,75.86078,95,53,0
75.411224,75.86078,86,47,0
76.01622,76.164,91,52,0
76.164,76.31179,90,45,0
76.31179,76.62429,91,52,0
76.62429,76.94687,88,47,0
76.94687,77.26945,84,51,0
77.26945,77.59203,83,44,0
77.26945,77.59203,78,37,0
77.59203,77.89354,78,44,0
77.89354,78.03988,81,50,0
78.03988,78.183784,79,44,0
78.18622,78.488,79,49,0
77.59203,78.488,83,44,0
78.488,78.793205,82,46,0
78.488,78.793205,88,55,0
78.488,79.09472,79,46,0
79.09472,79.24106,79,50,0
79.24106,79.3874,77,44,0
79.3874,79.68918,77,49,0
78.793205,79.68918,81,44,0
79.68918,79.994385,86,55,0
79.68918,79.994385,80,55,0
79.68918,80.29589,77,55,0
80.29589,80.44224,77,50,0
80.44224,80.586136,76,44,0
80.58858,80.89036,76,49,0
79.994385,80.89036,79,44,0
80.89036,81.195564,79,46,0
80.89036,81.195564,85,55,0
80.89036,81.49707,76,46,0
81.49707,81.64341,76,50,0
81.64341,81.78976,75,44,0
81.78976,82.09154,74,49,0
81.195564,82.09154,78,44,0
82.09154,82.39674,83,55,0
82.09154,82.39674,74,46,0
82.09154,82.39674,77,46,0
82.39674,82.54167,77,55,0
82.39674,82.690926,74,46,0
82.54167,82.84018,76,46,0
82.84018,82.997246,81,48,0
82.690926,82.997246,73,46,0
82.997246,83.14217,75,55,0
82.997246,83.29143,72,46,0
83.14217,83.44068,74,47,0
83.44068,83.59857,79,49,0
83.29143,83.59857,71,46,0
83.59857,83.74709,74,56,0
83.74709,83.89063,86,44,0
83.89063,84.03417,85,45,0
84.03417,84.17771,84,46,0
84.17771,84.32125,81,47,0
84.32125,84.46479,78,47,0
84.46479,84.60834,75,48,0
84.60834,84.75188,74,49,0
84.75188,84.89542,73,50,0
84.89542,85.038956,72,51,0
85.038956,85.184586,69,52,0
85.184586,85.330215,66,53,0
85.330215,85.478004,63,61,0
85.478004,85.625786,62,47,0
85.330215,85.625786,67,51,0
85.625786,85.77357,76,58,0
85.77357,85.931465,74,47,0
85.625786,85.931465,67,49,0
85.931465,86.08298,74,56,0
86.08298,86.22861,86,44,0
86.22861,86.37424,85,45,0
86.37424,86.519875,84,46,0
86.519875,86.665504,81,47,0
86.665504,86.811134,78,47,0
86.811134,86.956764,75,48,0
86.956764,87.102394,74,49,0
87.102394,87.24873,73,50,0
87.24873,87.39508,72,51,0
87.39508,87.54142,69,52,0
87.54142,87.68776,66,53,0
87.68776,87.8341,63,61,0
87.8341,87.980446,62,47,0
87.68776,87.980446,67,51,0
87.980446,88.13429,76,58,0
88.13429,88.28814,74,47,0
87.980446,88.28814,67,49,0
88.28814,88.44439,74,52,0
88.44439,88.59438,79,54,0
88.44439,88.59438,71,45,0
88.59438,88.744385,74,49,0
88.59438,88.744385,83,58,0
88.744385,88.89439,81,52,0
88.744385,88.89439,72,44,0
88.89439,89.04439,71,58,0
89.04439,89.19439,75,50,0
89.19439,89.34438,76,55,0
89.34438,89.50228,71,50,0
89.50228,89.65006,70,54,0
89.65006,89.79785,75,58,0
89.79785,89.94563,76,58,0
89.94563,90.10027,70,53,0
88.89439,90.10027,79,58,0
90.10027,90.24953,69,56,0
90.24953,90.39878,73,50,0
90.39878,90.548035,74,60,0
90.548035,90.706764,86,54,0
90.706764,90.85528,86,61,0
90.85528,90.99882,98,48,0
90.99882,91.14236,97,49,0
91.14236,91.2859,96,50,0
91.2859,91.429436,93,51,0
91.429436,91.57298,90,51,0
91.57298,91.71652,87,52,0
91.71652,91.86006,86,53,0
91.86006,92.0036,85,55,0
92.0036,92.14714,84,60,0
92.14714,92.29278,81,64,0
92.29278,92.43841,78,67,0
92.43841,92.58619,75,72,0
92.58619,92.73397,74,51,0
92.43841,92.73397,79,60,0
92.73397,92.88175,88,63,0
92.88175,93.03965,86,51,0
92.73397,93.03965,79,53,0
93.03965,93.19116,86,61,0
93.19116,93.3368,98,48,0
93.3368,93.48243,97,49,0
93.48243,93.62806,96,50,0
93.62806,93.77369,93,51,0
93.77369,93.91932,90,51,0
93.91932,94.06495,87,52,0
94.06495,94.21058,86,53,0
94.21058,94.356926,85,57,0
94.356926,94.503265,84,59,0
94.503265,94.649605,81,61,0
94.649605,94.795944,78,63,0
94.795944,94.94229,75,67,0
94.94229,95.08863,74,51,0
94.795944,95.08863,79,54,0
95.08863,95.24248,88,63,0
95.24248,95.396324,86,51,0
95.08863,95.396324,79,53,0
95.396324,95.552574,86,56,0
95.552574,95.698204,71,45,0
95.552574,95.698204,79,54,0
95.698204,95.843834,83,58,0
95.698204,95.843834,74,49,0
95.843834,95.98946,72,44,0
95.843834,95.98946,81,52,0
95.98946,96.13509,71,58,0
96.13509,96.28073,75,50,0
96.28073,96.42636,76,55,0
96.42636,96.58425,71,50,0
96.58425,96.7278,70,54,0
96.7278,96.87134,75,58,0
96.87134,97.01488,76,58,0
97.01488,97.16952,70,53,0
95.98946,97.16952,79,58,0
97.16952,97.314445,69,56,0
97.314445,97.45937,74,50,0
97.16952,97.45937,78,54,0
97.45937,97.6043,67,60,0
97.6043,97.76303,72,50,0
97.45937,97.76303,79,54,0
97.76303,97.91928,79,54,0
97.91928,98.06421,84,57,0
97.91928,98.06421,76,47,0
98.06421,98.20914,79,52,0
98.06421,98.20914,88,62,0
98.20914,98.35406,86,56,0
98.20914,98.35406,77,47,0
98.35406,98.500404,76,63,0
98.500404,98.64674,80,55,0
98.64674,98.79308,81,61,0
98.79308,98.95098,75,56,0
98.95098,99.09591,75,61,0
99.09591,99.24084,80,66,0
99.24084,99.385765,81,66,0
99.385765,99.540405,75,62,0
98.35406,99.540405,84,63,0
99.540405,99.686035,74,66,0
99.686035,99.831665,79,59,0
99.540405,99.831665,83,63,0
99.831665,99.977295,72,72,0
99.977295,100.136024,77,60,0
99.831665,100.136024,84,64,0
100.136024,100.292274,84,63,0
100.292274,100.4372,89,66,0
100.292274,100.4372,81,55,0
100.4372,100.58213,93,71,0
100.4372,100.58213,84,60,0
100.58213,100.72706,91,65,0
100.58213,100.72706,82,55,0
100.72706,100.8734,80,73,0
100.8734,101.01974,77,63,0
101.01974,101.166084,80,70,0
101.166084,101.323975,79,65,0
101.323975,101.46821,80,70,0
101.46821,101.61244,85,71,0
101.61244,101.75667,86,77,0
101.75667,101.91131,80,71,0
100.72706,101.91131,89,73,0
101.91131,102.05694,79,75,0
102.05694,102.20257,83,68,0
102.20257,102.3482,84,82,0
102.3482,102.506935,79,69,0
102.506935,102.824394,84,74,0
101.91131,102.824394,88,78,0
102.824394,103.11707,79,79,0
102.824394,103.11707,76,79,0
102.824394,103.11707,88,93,0
102.824394,103.11707,84,79,0
103.11707,103.42477,86,88,0
103.11707,103.42477,83,74,0
103.42477,103.57328,88,86,0
103.42477,103.57328,84,74,0
103.57328,103.721794,86,78,0
103.57328,103.721794,89,92,0
103.721794,103.870316,91,96,0
103.721794,103.870316,88,81,0
104.01883,104.16734,88,91,0
104.01883,104.16734,84,77,0
105.20695,105.499626,84,79,0
105.20695,105.499626,79,79,0
105.20695,105.499626,76,79,0
105.20695,105.499626,88,93,0
105.499626,105.80732,83,74,0
105.499626,105.80732,86,88,0
105.80732,105.95583,84,74,0
105.80732,105.95583,88,86,0
105.95583,106.10435,89,92,0
105.95583,106.10435,86,78,0
106.10435,106.25286,91,96,0
106.10435,106.25286,88,81,0
106.40138,106.69841,91,103,0
106.40138,106.69841,88,86,0
106.40138,106.69841,79,86,0
106.40138,106.69841,81,86,0
106.99544,107.292465,79,86,0
106.99544,107.292465,88,86,0
106.99544,107.292465,85,86,0
106.99544,107.292465,91,103,0
107.5895,107.88653,79,86,0
107.5895,107.88653,91,103,0
107.5895,107.88653,86,86,0
107.5895,107.88653,83,86,0
108.183556,108.48058,81,86,0
108.183556,108.48058,79,86,0
108.183556,108.48058,91,103,0
108.183556,108.48058,85,86,0
108.48058,109.03977,79,65,0
108.48058,109.03977,91,77,0
108.48058,109.03977,83,65,0
108.48058,109.03977,86,65,0
109.03977,109.86546,83,54,0
109.03977,109.86546,86,64,0
109.03977,109.86546,79,54,0
109.86546,110.140686,79,53,0
109.86546,110.140686,83,63,0
109.86546,110.140686,74,53,0
110.140686,110.278305,74,56,0
110.278305,110.41592,78,57,0
110.41592,110.553535,79,58,0
110.553535,110.69115,83,59,0
110.69115,110.828766,85,60,0
110.828766,110.96638,86,61,0
110.96638,111.104,88,62,0
111.104,111.24161,86,62,0
111.24161,111.37922,90,63,0
111.37922,111.51684,91,64,0
111.51684,111.65445,93,65,0
111.65445,111.79227,91,66,0
111.79227,111.9323,94,67,0
111.9323,112.07522,95,68,0
112.07522,112.22114,96,69,0
112.22114,112.369835,95,70,0
112.369835,112.66834,98,71,0
112.66834,113.01604,74,59,0
112.66834,113.01604,81,59,0
112.66834,113.01604,84,70,0
113.01604,114.177284,79,49,0
113.01604,114.177284,83,58,0
113.01604,114.177284,74,49,0
114.177284,114.7598,79,48,0
114.177284,114.7598,84,57,0
114.7598,115.34948,79,51,0
114.7598,115.34948,87,61,0
114.7598,115.34948,84,51,0
115.34948,115.91552,86,67,0
115.91552,116.496956,83,61,0
115.34948,116.496956,79,56,0
115.34948,116.496956,91,56,0
116.496956,117.062996,87,60,0
116.496956,117.062996,79,51,0
116.496956,117.062996,84,51,0
117.062996,117.64444,79,53,0
117.062996,117.64444,84,63,0
117.64444,118.21047,82,66,0
118.21047,118.79088,83,59,0
117.64444,118.79088,79,56,0
118.79088,119.354256,78,54,0
118.79088,119.354256,86,64,0
119.354256,119.78957,84,63,0
119.354256,119.78957,81,53,0
119.78957,119.9382,78,48,0
119.78957,119.9382,81,57,0
119.64106,119.9382,74,52,0
119.9382,120.04678,79,49,0
120.04678,120.15223,81,42,0
119.9382,120.253265,74,49,0
120.15223,120.25579,79,49,0
120.25453,120.35494,81,44,0
120.35494,120.45192,79,49,0
120.45192,120.54899,81,44,0
120.54542,120.64145,79,50,0
120.64145,120.73579,81,44,0
120.73579,120.83131,79,50,0
120.830124,120.925644,81,46,0
120.925644,121.01998,79,51,0
119.9382,121.111725,83,58,0
121.01998,121.11523,81,45,0
121.111725,121.20635,79,51,0
121.20635,121.299805,81,44,0
121.299805,121.39404,79,52,0
121.39288,121.48707,81,47,0
121.48707,121.57977,79,52,0
121.111725,121.670166,84,67,0
121.57977,121.67365,81,47,0
121.670166,121.764595,79,53,0
121.764595,121.85832,81,47,0
121.85832,121.95387,79,54,0
121.95269,122.04912,81,48,0
122.04912,122.15438,79,54,0
121.670166,122.25662,88,73,0
122.15438,122.26018,81,48,0
122.25662,122.35259,79,55,0
122.35259,122.447105,81,47,0
122.447105,122.542435,79,55,0
122.54126,122.63623,81,50,0
122.63623,122.72968,79,56,0
122.72968,122.82387,81,51,0
122.82038,122.914566,79,56,0
122.914566,123.007744,81,50,0
123.007744,123.102554,79,57,0
123.10139,123.19685,81,51,0
123.19685,123.29889,79,57,0
122.25662,123.396385,91,67,0
123.29889,123.39994,81,51,0
123.396385,123.49236,79,58,0
123.49236,123.58677,81,50,0
123.58677,123.68199,79,59,0
123.68082,123.77569,81,53,0
123.77569,123.86882,79,59,0
123.396385,123.95974,88,72,0
123.86882,123.96325,81,53,0
123.95974,124.05462,79,60,0
124.05462,124.148674,81,52,0
124.148674,124.244385,79,60,0
124.243195,124.33955,81,55,0
124.33955,124.44159,79,61,0
123.95974,124.54108,84,77,0
124.44159,124.54462,81,54,0
124.54108,124.6371,79,61,0
124.6371,124.73234,81,53,0
124.54108,124.826324,82,83,0
124.73234,124.82869,79,62,0
124.82751,124.92348,81,56,0
124.92348,125.018265,79,62,0
125.018265,125.113884,81,56,0
125.110344,125.205864,79,63,0
125.205864,125.29945,81,55,0
124.826324,125.3922,83,75,0
125.29945,125.394554,79,64,0
125.39337,125.489265,81,57,0
125.489265,125.59079,79,64,0
125.3922,125.68792,86,86,0
125.59079,125.691475,81,56,0
125.68792,125.7839,86,75,0
125.7839,125.8783,88,66,0
125.8783,125.973526,86,75,0
125.97235,126.06732,88,64,0
126.06732,126.16055,86,75,0
125.971176,126.25085,74,60,0
126.16055,126.25434,88,68,0
126.25085,126.34508,86,78,0
126.34508,126.43858,88,69,0
126.43858,126.53366,86,75,0
126.53131,126.67298,85,75,0
126.67298,126.81563,86,79,0
126.81563,126.94956,98,86,0
126.81563,126.94956,89,73,0
126.81563,126.94956,86,73,0
126.81563,126.94956,95,73,0
127.08349,127.62657,98,78,0
127.08349,127.62657,86,66,0
127.08349,127.62657,89,66,0
127.08349,127.62657,95,66,0
127.62657,127.76676,96,78,0
127.62657,127.76676,86,66,0
127.62657,127.76676,84,66,0
127.62657,127.76676,89,66,0
127.906944,128.04028,86,67,0
127.906944,128.04028,89,67,0
127.906944,128.04028,95,79,0
127.906944,128.04028,83,67,0
128.17361,128.30695,84,70,0
128.17361,128.30695,86,70,0
128.17361,128.30695,96,83,0
128.17361,128.30695,89,70,0
128.44028,128.57361,89,69,0
128.44028,128.57361,86,69,0
128.44028,128.57361,98,82,0
128.70694,128.84714,88,58,0
128.70694,128.84714,95,69,0
128.70694,128.84714,83,58,0
128.70694,128.84714,86,58,0
128.98732,129.12007,84,50,0
128.98732,129.12007,96,59,0
128.98732,129.12007,88,50,0
129.2528,129.38554,95,53,0
129.2528,129.38554,83,45,0
129.2528,129.38554,86,45,0
129.2528,129.38554,88,45,0
129.5183,129.65103,84,50,0
129.5183,129.65103,88,50,0
129.5183,129.65103,96,59,0
129.78378,129.92203,81,45,0
129.78378,129.92203,84,45,0
129.78378,129.92203,93,53,0
129.78378,129.92203,88,45,0
130.06027,130.19244,91,59,0
130.06027,130.19244,88,50,0
130.06027,130.19244,81,50,0
130.3246,130.45676,85,45,0
130.3246,130.45676,81,45,0
130.3246,130.45676,91,53,0
130.58891,130.72107,84,50,0
130.58891,130.72107,81,50,0
130.58891,130.72107,90,59,0
130.85323,130.99084,81,45,0
130.85323,130.99084,93,53,0
130.85323,130.99084,84,45,0
131.12846,131.2589,79,55,0
131.12846,131.2589,83,55,0
131.12846,131.2589,91,64,0
131.38933,131.51976,74,50,0
131.38933,131.51976,86,59,0
131.38933,131.51976,83,50,0
131.65019,131.78064,90,69,0
131.65019,131.78064,78,58,0
131.65019,131.78064,84,58,0
131.91107,132.04805,81,55,0
131.91107,132.04805,90,55,0
131.91107,132.04805,84,55,0
131.91107,132.04805,93,65,0
132.18504,132.31548,91,75,0
132.18504,132.31548,79,63,0
132.18504,132.31548,83,63,0
132.4459,132.57634,86,69,0
132.4459,132.57634,74,59,0
132.4459,132.57634,83,59,0
132.70677,132.83722,78,69,0
132.70677,132.83722,90,80,0
132.70677,132.83722,84,69,0
132.96765,133.1034,93,76,0
132.96765,133.1034,90,64,0
132.96765,133.1034,84,64,0
132.96765,133.1034,81,64,0
133.23914,133.36572,79,77,0
133.36572,133.49231,91,70,0
133.49231,133.61888,74,79,0
133.61888,133.74547,86,73,0
133.74547,133.87206,78,82,0
133.87206,133.99864,90,76,0
133.99864,134.12521,81,85,0
134.12521,134.2674,93,79,0
134.2674,134.39505,79,88,0
134.39505,134.52272,91,82,0
134.52272,134.65038,74,91,0
134.65038,134.77803,86,86,0
134.77803,134.9057,78,94,0
134.9057,135.03336,90,90,0
135.03336,135.16101,81,99,0
135.16101,135.30186,93,92,0
135.30186,135.51926,79,91,0
135.30186,135.51926,91,110,0
135.88156,136.11966,81,94,0
135.88156,136.11966,93,112,0
136.5165,137.6276,94,118,0
136.5165,137.6276,82,99,0
140.16728,140.32602,58,57,0
140.32602,140.8022,70,81,0
140.8022,140.96094,70,71,0
140.96094,141.2784,70,78,0
143.16966,143.28372,74,88,0
143.16966,143.28372,77,88,0
143.16966,143.28372,86,105,0
143.16966,143.28372,82,88,0
143.28372,143.45483,77,79,0
143.28372,143.45483,86,94,0
143.28372,143.45483,74,79,0
143.28372,143.45483,82,79,0
143.51186,143.55464,82,80,0
143.51186,143.55464,74,80,0
143.51186,143.55464,77,80,0
143.51186,143.55464,87,100,0
143.62593,143.679,86,97,0
143.62593,143.679,74,82,0
143.62593,143.679,77,82,0
143.62593,143.679,82,82,0
143.76744,143.89844,74,88,0
143.76744,143.89844,77,88,0
143.76744,143.89844,86,105,0
143.76744,143.89844,82,88,0
144.02945,144.16045,74,80,0
144.02945,144.16045,70,80,0
144.02945,144.16045,82,96,0
144.02945,144.16045,77,80,0
145.15576,145.27203,89,105,0
145.15576,145.27203,77,88,0
145.15576,145.27203,82,88,0
145.15576,145.27203,86,88,0
145.27203,145.44646,77,79,0
145.27203,145.44646,89,94,0
145.27203,145.44646,86,79,0
145.27203,145.44646,82,79,0
145.5046,145.5482,86,80,0
145.5046,145.5482,82,80,0
145.5046,145.5482,91,100,0
145.5046,145.5482,77,80,0
145.62086,145.67496,77,82,0
145.62086,145.67496,82,82,0
145.62086,145.67496,86,82,0
145.62086,145.67496,89,97,0
145.7651,145.89726,86,88,0
145.7651,145.89726,89,105,0
145.7651,145.89726,77,88,0
145.7651,145.89726,82,88,0
146.02942,146.16158,77,80,0
146.02942,146.16158,86,96,0
146.02942,146.16158,82,80,0
146.02942,146.16158,74,80,0
146.55806,146.69022,70,50,0
146.69022,146.82237,72,45,0
147.1054,147.36513,67,39,0
146.82237,147.36513,74,50,0
147.36513,147.62488,69,33,0
147.36513,147.62488,72,39,0
147.62488,147.75475,72,50,0
147.75475,147.88461,74,46,0
147.62488,147.88461,68,42,0
147.88461,148.14777,67,46,0
148.14777,148.42946,69,45,0
147.88461,148.42946,75,55,0
148.42946,148.69495,74,45,0
148.42946,148.69495,70,38,0
148.69495,148.83578,74,47,0
148.83578,148.97664,75,50,0
148.69495,148.97664,67,39,0
148.97664,149.24449,65,45,0
148.97664,149.37607,77,54,0
149.37607,149.50764,79,52,0
149.24449,149.50764,70,45,0
149.50764,149.63924,77,50,0
149.50764,149.7923,67,42,0
149.63924,149.93446,75,43,0
149.93446,150.07664,77,45,0
149.7923,150.07664,69,43,0
150.07664,150.23209,75,49,0
150.23209,150.39603,74,41,0
150.07664,150.39603,70,35,0
150.07664,150.39603,65,35,0
150.39603,150.55646,77,43,0
150.55646,150.73718,75,37,0
150.39603,150.73718,67,30,0
150.39603,150.73718,72,30,0
150.73718,151.09862,72,35,0
150.73718,151.09862,69,30,0
151.09862,151.23077,82,50,0
151.23077,151.36295,84,45,0
151.64597,151.9057,79,39,0
151.36295,151.9057,86,50,0
151.9057,152.16544,84,39,0
151.9057,152.16544,81,33,0
152.16544,152.2953,84,50,0
152.2953,152.42519,86,46,0
152.16544,152.42519,80,42,0
152.42519,152.68834,79,46,0
152.68834,152.97003,81,45,0
152.42519,152.97003,87,55,0
152.97003,153.23552,86,45,0
152.97003,153.23552,82,38,0
153.23552,153.37636,86,51,0
153.37636,153.51721,87,55,0
153.23552,153.51721,79,39,0
153.51721,153.78506,77,45,0
153.51721,153.91664,89,59,0
153.91664,154.04822,91,57,0
153.78506,154.04822,82,45,0
154.04822,154.1798,89,55,0
154.04822,154.33286,79,42,0
154.1798,154.47504,87,47,0
154.47504,154.61722,89,50,0
154.33286,154.61722,81,43,0
154.61722,154.7488,87,57,0
154.61722,154.90186,77,44,0
154.7488,155.04404,86,49,0
155.04404,155.18622,87,53,0
155.18622,155.32384,86,60,0
155.32384,155.46146,84,49,0
154.90186,155.46146,82,46,0
155.46146,155.59906,86,55,0
155.59906,155.73668,87,51,0
155.46146,155.73668,81,47,0
155.46146,155.73668,77,47,0
155.73668,155.87242,91,67,0
155.87242,156.00818,89,53,0
155.73668,156.00818,82,52,0
155.73668,156.00818,77,52,0
156.00818,156.14392,91,58,0
156.14392,156.28506,89,59,0
156.00818,156.28746,82,41,0
156.28746,156.42198,89,69,0
156.42198,156.55652,87,55,0
156.28746,156.55652,79,53,0
156.55652,156.69104,89,61,0
156.69104,156.83884,87,56,0
156.55652,156.83884,81,43,0
156.83884,156.97336,87,74,0
156.97336,157.1079,86,57,0
156.83884,157.1079,77,57,0
157.1079,157.24242,87,63,0
157.24242,157.38702,86,58,0
157.38948,157.52461,86,75,0
157.52461,157.65974,84,61,0
157.1079,157.65974,82,45,0
157.65974,157.79488,86,67,0
157.79488,157.94563,87,70,0
157.65974,157.94563,77,47,0
157.65974,157.94563,81,47,0
157.94563,158.08139,91,69,0
158.08139,158.21713,89,70,0
157.94563,158.21713,77,58,0
157.94563,158.21713,82,58,0
158.21713,158.50363,88,76,0
158.21713,158.50363,82,60,0
158.35287,158.64252,91,72,0
158.50363,158.7814,87,67,0
158.64252,158.9203,92,74,0
158.9203,159.06882,93,77,0
158.7814,159.06882,84,64,0
158.7814,159.06882,87,76,0
159.06882,159.20966,96,86,0
159.20966,159.3505,94,72,0
159.06882,159.3505,82,73,0
159.06882,159.3505,86,73,0
159.3505,159.49135,93,84,0
159.49135,159.64134,91,74,0
159.3505,159.64134,87,71,0
159.3505,159.64134,82,71,0
159.64134,159.7921,82,72,0
159.64134,159.7921,86,72,0
159.64134,159.7921,89,86,0
159.94286,160.09361,81,67,0
159.94286,160.09361,93,80,0
159.94286,160.09361,84,67,0
159.94286,160.09361,89,80,0
160.24435,160.78735,82,85,0
160.24435,160.78735,94,101,0
160.24435,160.78735,86,85,0
160.24435,160.78735,89,85,0
160.78735,161.34384,82,75,0
160.78735,161.34384,70,63,0
160.78735,161.34384,74,63,0
161.34384,161.41022,86,59,0
161.34384,161.41022,77,50,0
161.34384,161.41022,74,50,0
161.60933,161.6757,70,51,0
161.60933,161.6757,74,51,0
161.60933,161.6757,82,61,0
161.87482,161.9412,86,61,0
161.87482,161.9412,74,51,0
161.87482,161.9412,77,51,0
162.1403,162.20667,75,51,0
162.1403,162.20667,84,61,0
162.1403,162.20667,72,51,0
162.43433,162.97733,87,116,0
162.43433,162.97733,79,97,0
162.43433,162.97733,75,97,0
162.97733,163.53381,72,63,0
162.97733,163.53381,75,63,0
162.97733,163.53381,84,75,0
163.53381,163.60019,79,50,0
163.53381,163.60019,75,50,0
163.53381,163.60019,87,59,0
163.7993,163.86568,85,61,0
163.7993,163.86568,76,51,0
163.7993,163.86568,73,51,0
164.06479,164.1303,78,51,0
164.06479,164.1303,75,51,0
164.06479,164.1303,87,61,0
164.3268,164.3923,74,51,0
164.3268,164.3923,77,51,0
164.3268,164.3923,86,61,0
164.61823,165.16121,77,93,0
164.61823,165.16121,80,93,0
164.61823,165.16121,89,111,0
165.16121,165.71771,77,63,0
165.16121,165.71771,86,75,0
165.16121,165.71771,74,63,0
165.71771,165.78407,89,59,0
165.71771,165.78407,77,50,0
165.71771,165.78407,80,50,0
165.98318,166.04956,78,51,0
165.98318,166.04956,74,51,0
165.98318,166.04956,86,61,0
166.24867,166.31418,77,51,0
166.24867,166.31418,80,51,0
166.24867,166.31418,89,61,0
166.51068,166.57619,79,51,0
166.51068,166.57619,75,51,0
166.51068,166.57619,87,61,0
166.80212,167.34511,91,111,0
166.80212,167.34511,82,93,0
166.80212,167.34511,79,93,0
167.34511,167.9016,87,75,0
167.34511,167.9016,75,63,0
167.34511,167.9016,79,63,0
167.34511,167.9016,82,63,0
167.9016,167.96797,91,59,0
167.9016,167.96797,79,50,0
167.9016,167.96797,82,50,0
168.16708,168.23346,76,51,0
168.16708,168.23346,88,61,0
168.16708,168.23346,82,51,0
168.43257,168.49895,90,67,0
168.43257,168.49895,82,56,0
168.43257,168.49895,78,56,0
168.69806,168.76443,77,58,0
168.69806,168.76443,89,69,0
168.69806,168.76443,82,58,0
168.97433,169.04042,92,69,0
168.97433,169.04042,82,59,0
168.97433,169.04042,80,59,0
169.23866,169.30473,90,74,0
169.23866,169.30473,82,62,0
169.23866,169.30473,78,62,0
169.50298,169.56906,92,76,0
169.50298,169.56906,82,64,0
169.50298,169.56906,80,64,0
169.76729,169.83337,79,66,0
169.76729,169.83337,82,66,0
169.76729,169.83337,91,79,0
170.0403,170.1058,87,67,0
170.0403,170.1058,91,67,0
170.0403,170.1058,82,67,0
170.0403,170.1058,94,79,0
170.3023,170.36781,80,70,0
170.3023,170.36781,92,84,0
170.56432,170.62982,94,86,0
170.56432,170.62982,82,72,0
170.82632,170.89183,81,74,0
170.82632,170.89183,93,89,0
171.09818,171.22917,96,99,0
171.09818,171.22917,84,84,0
171.36018,171.49118,82,74,0
171.36018,171.49118,94,88,0
171.6222,171.75319,79,82,0
171.6222,171.75319,91,97,0
171.8842,172.0152,89,90,0
171.8842,172.0152,77,76,0
172.15605,172.28821,87,97,0
172.15605,172.28821,75,85,0
172.42036,172.55252,74,69,0
172.42036,172.55252,86,82,0
172.68468,172.81683,84,87,0
172.68468,172.81683,72,73,0
172.94899,173.08116,70,68,0
172.94899,173.08116,82,81,0
173.222,173.35474,67,75,0
173.222,173.35474,79,89,0
173.48749,173.62022,65,66,0
173.48749,173.62022,77,79,0
173.75298,173.88571,75,82,0
173.75298,173.88571,63,69,0
174.01846,174.1512,74,76,0
174.01846,174.1512,62,64,0
174.29205,174.42479,72,80,0
174.29205,174.42479,60,67,0
174.55754,174.69028,58,59,0
174.55754,174.69028,70,71,0
174.82303,174.95576,55,65,0
174.82303,174.95576,67,78,0
175.0885,175.22125,53,61,0
175.0885,175.22125,65,72,0
175.36209,175.62758,69,77,0
175.62758,175.90387,65,67,0
175.90387,176.17053,72,73,0
176.17053,176.44604,65,67,0
176.44604,176.7127,77,71,0
176.7127,176.9889,65,59,0
176.9889,177.25557,81,68,0
177.25557,177.53313,65,56,0
177.53313,177.81091,84,62,0
177.81091,178.10854,65,49,0
178.10854,178.4131,89,54,0
178.4131,178.74503,65,45,0
178.74503,179.08594,89,52,0
179.08594,179.51933,65,41,0
179.51933,180.63045,89,48,0
181.20183,181.3159,74,77,0
181.20183,181.3159,82,77,0
181.20183,181.3159,86,92,0
181.20183,181.3159,77,77,0
181.3159,181.54404,74,69,0
181.3159,181.54404,82,69,0
181.3159,181.54404,77,69,0
181.3159,181.54404,86,82,0
181.54404,181.5868,74,70,0
181.54404,181.5868,82,70,0
181.54404,181.5868,77,70,0
181.54404,181.5868,87,89,0
181.6581,181.71117,86,85,0
181.6581,181.71117,82,72,0
181.6581,181.71117,74,72,0
181.6581,181.71117,77,72,0
181.7996,181.93062,86,92,0
181.7996,181.93062,82,77,0
181.7996,181.93062,74,77,0
181.7996,181.93062,77,77,0
182.06161,182.19263,70,70,0
182.06161,182.19263,82,84,0
182.06161,182.19263,74,70,0
182.06161,182.19263,77,70,0
183.18793,183.30421,82,77,0
183.18793,183.30421,77,77,0
183.18793,183.30421,86,92,0
183.19472,183.31099,74,77,0
183.30421,183.31099,74,82,0
183.30421,183.53676,86,99,0
183.53676,183.58037,86,84,0
183.53676,183.58037,81,70,0
183.53676,183.58037,74,70,0
183.53676,183.58037,78,70,0
183.65305,183.70714,81,72,0
183.65305,183.70714,86,85,0
183.65305,183.70714,78,70,0
183.65305,183.70714,74,72,0
183.79727,183.92943,78,77,0
183.79727,183.92943,81,77,0
183.79727,183.92943,86,92,0
183.79727,183.92943,74,77,0
184.0616,184.19376,78,70,0
184.0616,184.19376,86,84,0
184.0616,184.19376,81,70,0
184.0616,184.19376,74,70,0
185.11452,185.24005,69,33,0
185.11452,185.24005,74,39,0
185.11452,185.24005,66,33,0
185.62926,185.75583,74,42,0
185.62926,185.75583,69,35,0
185.62926,185.75583,66,35,0
186.14447,186.27052,74,44,0
186.14447,186.27052,66,37,0
186.14447,186.27052,69,37,0
186.66309,186.78914,74,46,0
186.66309,186.78914,69,39,0
186.66309,186.78914,66,39,0
187.18175,187.3094,69,41,0
187.18175,187.3094,74,41,0
187.18175,187.3094,72,41,0
187.18175,187.3094,78,49,0
187.7085,187.83781,74,43,0
187.7085,187.83781,69,43,0
187.7085,187.83781,78,51,0
187.7085,187.83781,72,43,0
188.24,188.36989,78,50,0
188.24,188.36989,69,50,0
188.24,188.36989,72,50,0
188.24,188.36989,81,60,0
188.77684,188.90727,81,57,0
188.77684,188.90727,78,57,0
188.77684,188.90727,84,68,0
188.77684,188.90727,72,57,0
189.31989,189.45146,81,64,0
189.31989,189.45146,84,64,0
189.31989,189.45146,78,64,0
189.31989,189.45146,90,75,0
189.86873,190.0009,93,79,0
189.86873,190.0009,81,66,0
189.86873,190.0009,84,66,0
190.42387,190.56024,96,82,0
190.42387,190.56024,84,69,0
190.42387,190.56024,93,69,0
190.98715,191.1254,93,71,0
190.98715,191.1254,84,71,0
190.98715,191.1254,96,85,0
190.98715,191.1254,90,71,0
191.26364,191.40189,90,71,0
191.26364,191.40189,93,71,0
191.26364,191.40189,96,85,0
191.26364,191.40189,84,71,0
191.54015,191.67114,81,57,0
191.54015,191.67114,84,57,0
191.67114,191.81003,83,57,0
191.67114,191.81003,80,57,0
191.81003,192.07909,84,63,0
191.81003,192.07909,81,63,0
192.07909,192.2101,69,52,0
192.07909,192.2101,66,52,0
192.2101,192.35228,67,52,0
192.2101,192.35228,70,52,0
192.35228,192.62254,66,58,0
192.35228,192.62254,69,58,0
192.62254,192.7553,81,47,0
192.62254,192.7553,84,47,0
192.7553,192.89815,83,47,0
192.7553,192.89815,80,47,0
192.89815,193.17592,84,56,0
192.89815,193.17592,81,56,0
193.17592,193.31229,90,47,0
193.31229,193.44865,93,47,0
193.44865,193.58139,96,57,0
193.58139,193.71414,98,48,0
193.71414,193.84688,96,49,0
193.84688,193.98578,95,50,0
193.98578,194.1197,96,65,0
194.1197,194.25363,98,57,0
194.25363,194.38756,100,66,0
194.38756,194.52774,96,58,0
194.52774,194.66049,93,69,0
194.66049,194.79323,95,56,0
194.79323,194.92598,96,66,0
194.92598,195.06358,93,54,0
195.06358,195.19753,90,66,0
195.19753,195.33145,91,53,0
195.33145,195.46538,93,61,0
195.46538,195.60556,90,53,0
195.60556,195.7401,84,47,0
195.7401,195.87462,86,47,0
195.87462,196.00916,88,58,0
196.00916,196.1474,84,47,0
196.1474,196.28014,81,47,0
196.28014,196.41289,83,47,0
196.41289,196.54562,84,53,0
196.54562,196.68648,81,47,0
196.68648,196.81981,78,47,0
196.81981,196.95314,79,47,0
196.95314,197.08647,81,52,0
197.08647,197.22665,78,47,0
197.22665,197.49214,74,47,0
197.22665,197.49214,69,47,0
197.22665,197.49214,72,47,0
197.77122,197.90457,95,57,0
197.90457,198.0379,96,48,0
198.0379,198.17123,95,49,0
198.17123,198.31012,93,50,0
198.31012,198.44405,95,65,0
198.44405,198.57797,96,57,0
198.57797,198.7119,98,66,0
198.7119,198.8521,95,58,0
198.8521,198.98602,91,69,0
198.98602,199.11995,93,56,0
199.11995,199.25388,95,66,0
199.25388,199.3915,91,54,0
199.3915,199.52542,86,66,0
199.52542,199.65935,90,53,0
199.65935,199.79327,91,61,0
199.79327,199.93347,86,53,0
199.93347,200.068,83,47,0
200.068,200.20253,84,47,0
200.20253,200.33705,86,58,0
200.33705,200.4753,83,47,0
200.4753,200.60805,79,47,0
200.60805,200.74078,81,47,0
200.74078,200.87354,83,53,0
200.87354,201.01437,79,47,0
201.01437,201.1477,74,47,0
201.1477,201.28104,78,47,0
201.28104,201.41438,79,52,0
201.41438,201.55457,71,47,0
201.55457,201.6879,67,40,0
201.6879,201.82123,69,40,0
201.82123,201.95235,71,45,0
201.95456,202.09344,67,40,0
202.09344,202.37123,62,40,0
202.09344,202.37123,69,46,0
202.09344,202.37123,66,40,0
202.37123,202.50821,88,52,0
202.50821,202.6484,86,47,0
202.6484,202.78354,88,40,0
202.78354,202.91867,86,40,0
202.91867,203.0538,84,45,0
203.0538,203.1927,88,40,0
203.1927,203.33159,84,52,0
203.33159,203.47047,83,42,0
203.47047,203.6038,81,49,0
203.6038,203.744,84,43,0
203.744,203.87733,81,48,0
203.87733,204.01067,79,40,0
204.01067,204.144,78,45,0
204.144,204.28288,81,40,0
204.28288,204.42177,76,52,0
204.42177,204.56067,74,42,0
204.56067,204.694,72,49,0
204.694,204.83418,76,43,0
204.83418,204.96751,72,48,0
204.96751,205.10085,71,40,0
205.10085,205.23418,69,45,0
205.23418,205.37308,72,40,0
205.37308,205.51196,69,52,0
205.51196,205.65085,67,42,0
205.65085,205.78418,66,49,0
205.78418,205.92438,69,43,0
205.92438,206.05771,72,48,0
206.05771,206.19104,71,40,0
206.19104,206.32437,69,45,0
206.32437,206.46326,72,40,0
206.46326,206.74707,67,46,0
206.46326,206.74707,62,40,0
206.74707,206.8804,98,52,0
206.8804,207.0206,96,47,0
207.0206,207.15393,98,40,0
207.15393,207.28726,96,40,0
207.28726,207.4206,95,45,0
207.4206,207.55948,98,40,0
207.55948,207.69838,95,52,0
207.69838,207.83727,93,42,0
207.83727,207.9706,91,49,0
207.9706,208.11078,95,43,0
208.11078,208.24411,83,48,0
208.24411,208.37744,81,40,0
208.37744,208.51079,79,45,0
208.51079,208.64967,83,40,0
208.64967,208.78856,74,52,0
208.78856,208.92744,72,42,0
208.92744,209.06078,71,49,0
209.06078,209.20097,74,43,0
209.20097,209.3343,83,48,0
209.3343,209.46764,81,40,0
209.46764,209.60097,79,45,0
209.60097,209.73985,83,40,0
209.73985,209.87875,86,62,0
209.87875,210.01764,84,51,0
210.01764,210.15097,83,61,0
210.15097,210.29115,84,52,0
210.29115,210.57417,88,62,0
210.57417,210.88345,90,51,0
210.57417,210.88345,81,51,0
210.57417,210.88345,86,51,0
210.88345,211.19273,86,51,0
210.88345,211.19273,91,51,0
210.88345,211.19273,79,51,0
212.39516,212.68086,66,34,0
212.39516,212.68086,69,40,0
212.68086,212.83794,71,38,0
212.68086,212.83794,67,32,0
212.99501,213.13924,83,39,0
212.99501,213.13924,91,47,0
213.13924,213.28346,81,37,0
213.13924,213.28346,90,44,0
213.28346,213.59274,91,47,0
213.28346,213.59274,83,39,0
213.59274,213.90688,88,39,0
213.59274,213.90688,83,33,0
213.59274,213.90688,79,33,0
213.90688,214.23656,78,35,0
213.90688,214.23656,86,42,0
213.90688,214.23656,81,35,0
214.23656,214.59369,85,40,0
214.23656,214.59369,76,30,0
214.23656,214.59369,79,30,0
214.59369,214.93077,79,38,0
214.59369,214.93077,88,45,0
214.93077,215.25067,78,30,0
214.93077,215.25067,86,36,0
215.25336,215.57593,86,36,0
215.25336,215.57593,78,30,0
215.57593,215.72086,86,45,0
215.57593,215.72086,79,38,0
215.72086,215.86578,84,40,0
215.72086,215.86578,81,34,0
215.86578,216.18158,83,46,0
216.18158,216.32791,91,51,0
216.47426,216.6297,88,46,0
216.18158,216.6297,79,43,0
216.78514,216.93149,84,43,0
216.78514,216.93149,96,51,0
216.93149,217.07782,93,44,0
216.93149,217.07782,88,37,0
217.07782,217.40215,90,51,0
217.40215,217.69627,98,56,0
217.69627,217.8517,95,53,0
217.40215,217.8517,86,47,0
218.00714,218.15494,91,52,0
218.15494,218.30272,90,45,0
218.30272,218.61522,91,52,0
218.61522,218.93779,88,47,0
218.93779,219.26038,84,51,0
219.26038,219.58296,83,44,0
219.26038,219.58296,78,37,0
219.58296,219.88446,78,44,0
219.88446,220.0308,81,50,0
220.0308,220.17471,79,44,0
220.17714,220.47893,79,49,0
219.58296,220.47893,83,44,0
220.47893,220.78413,88,55,0
220.47893,220.78413,82,46,0
220.47893,221.08565,79,46,0
221.08565,221.23198,79,50,0
221.23198,221.37833,77,44,0
221.37833,221.6801,77,49,0
220.78413,221.6801,81,44,0
221.6801,221.9853,80,55,0
221.6801,221.9853,86,55,0
221.6801,222.28682,77,55,0
222.28682,222.43317,77,50,0
222.43317,222.57706,76,44,0
222.5795,222.88129,76,49,0
221.9853,222.88129,79,44,0
222.88129,223.1865,85,55,0
222.88129,223.1865,79,46,0
222.88129,223.48799,76,46,0
223.48799,223.63434,76,50,0
223.63434,223.78069,75,44,0
223.78069,224.08246,74,49,0
223.1865,224.08246,78,44,0
224.08246,224.38766,74,46,0
224.08246,224.38766,83,55,0
224.08246,224.38766,77,46,0
224.38766,224.5326,77,55,0
224.38766,224.68185,74,46,0
224.5326,224.8311,76,46,0
224.8311,224.98817,81,48,0
224.68185,224.98817,73,46,0
224.98817,225.1331,75,55,0
224.98817,225.28235,72,46,0
225.1331,225.43161,74,47,0
225.43161,225.5895,79,49,0
225.28235,225.5895,71,46,0
225.5895,225.73802,74,56,0
225.73802,225.88156,86,44,0
225.88156,226.0251,85,45,0
226.0251,226.16864,84,46,0
226.16864,226.31218,81,47,0
226.31218,226.45572,78,47,0
226.45572,226.59926,75,48,0
226.59926,226.7428,74,49,0
226.7428,226.88634,73,50,0
226.88634,227.02988,72,51,0
227.02988,227.1755,69,52,0
227.1755,227.32114,66,53,0
227.32114,227.46893,63,61,0
227.46893,227.61671,62,47,0
227.32114,227.61671,67,51,0
227.61671,227.7645,76,58,0
227.7645,227.9224,74,47,0
227.61671,227.9224,67,49,0
227.9224,228.0739,74,56,0
228.0739,228.21953,86,44,0
228.21953,228.36516,85,45,0
228.36516,228.5108,84,46,0
228.5108,228.65643,81,47,0
228.65643,228.80206,78,47,0
228.80206,228.9477,75,48,0
228.9477,229.09332,74,49,0
229.09332,229.23965,73,50,0
229.23965,229.386,72,51,0
229.386,229.53235,69,52,0
229.53235,229.67868,66,53,0
229.67868,229.82503,63,61,0
229.82503,229.97137,62,47,0
229.67868,229.97137,67,51,0
229.97137,230.12521,76,58,0
230.12521,230.27907,74,47,0
229.97137,230.27907,67,49,0
230.27907,230.43532,74,52,0
230.43532,230.58531,79,54,0
230.43532,230.58531,71,45,0
230.58531,230.7353,74,49,0
230.58531,230.7353,83,58,0
230.7353,230.88531,81,52,0
230.7353,230.88531,72,44,0
230.88531,231.0331,71,58,0
231.0331,231.18088,75,50,0
231.18088,231.32866,76,55,0
231.32866,231.48656,71,50,0
231.48656,231.63434,70,54,0
231.63434,231.78212,75,58,0
231.78212,231.9299,76,58,0
231.9299,232.08455,70,53,0
230.88531,232.08455,79,58,0
232.08455,232.2338,69,56,0
232.2338,232.38306,73,50,0
232.38306,232.5323,74,60,0
232.5323,232.69104,86,54,0
232.69104,232.83955,86,61,0
232.83955,232.9831,98,48,0
232.9831,233.12663,97,49,0
233.12663,233.27017,96,50,0
233.27017,233.41371,93,51,0
233.41371,233.55725,90,51,0
233.55725,233.70079,87,52,0
233.70079,233.84433,86,53,0
233.84433,233.98788,85,55,0
233.98788,234.13142,84,56,0
234.13142,234.27705,81,64,0
234.27705,234.42268,78,67,0
234.42268,234.57047,75,72,0
234.57047,234.71825,74,51,0
234.42268,234.71825,79,60,0
234.71825,234.86603,88,63,0
234.86603,235.02393,86,51,0
234.71825,235.02393,79,53,0
235.02393,235.17545,86,61,0
235.17545,235.32108,98,48,0
235.32108,235.4667,97,49,0
235.4667,235.61234,96,50,0
235.61234,235.75797,93,51,0
235.75797,235.9036,90,51,0
235.9036,236.04922,87,52,0
236.04922,236.19485,86,53,0
236.19485,236.3412,85,57,0
236.3412,236.48753,84,53,0
236.48753,236.63388,81,61,0
236.63388,236.78023,78,63,0
236.78023,236.92656,75,67,0
236.92656,237.0729,74,51,0
236.78023,237.0729,79,54,0
237.0729,237.22675,88,63,0
237.22675,237.3806,86,51,0
237.0729,237.3806,79,53,0
237.3806,237.53685,86,56,0
237.53685,237.68248,71,45,0
237.53685,237.68248,79,54,0
237.68248,237.82811,83,58,0
237.68248,237.82811,74,49,0
237.82811,237.97374,81,52,0
237.82811,237.97374,72,44,0
237.97374,238.11937,71,58,0
238.11937,238.265,75,50,0
238.265,238.41063,76,55,0
238.41063,238.56853,71,50,0
238.56853,238.71207,70,54,0
238.71207,238.8556,75,58,0
238.8556,238.99915,76,58,0
238.99915,239.1538,70,53,0
237.97374,239.1538,79,58,0
239.1538,239.29872,69,56,0
239.29872,239.44365,74,50,0
239.1538,239.44365,78,54,0
239.44365,239.58858,67,60,0
239.58858,239.7473,72,50,0
239.44365,239.7473,79,54,0
239.7473,239.90355,79,54,0
239.90355,240.04848,84,57,0
239.90355,240.04848,76,47,0
240.04848,240.1934,88,62,0
240.04848,240.1934,79,52,0
240.1934,240.33833,77,47,0
240.1934,240.33833,86,56,0
240.33833,240.48468,76,63,0
240.48468,240.63101,80,55,0
240.63101,240.77736,81,61,0
240.77736,240.93526,75,56,0
240.93526,241.08018,75,61,0
241.08018,241.22511,80,66,0
241.22511,241.37004,81,66,0
241.37004,241.52467,75,62,0
240.33833,241.52467,84,63,0
241.52467,241.6703,74,66,0
241.6703,241.81593,79,59,0
241.52467,241.81593,83,63,0
241.81593,241.96156,72,72,0
241.96156,242.1203,77,60,0
241.81593,242.1203,84,64,0
242.1203,242.27655,84,63,0
242.27655,242.42148,89,66,0
242.27655,242.42148,81,55,0
242.42148,242.5664,84,60,0
242.42148,242.5664,93,71,0
242.5664,242.71133,82,55,0
242.5664,242.71133,91,65,0
242.71133,242.85768,80,73,0
242.85768,243.00401,77,63,0
243.00401,243.15036,80,70,0
243.15036,243.30826,79,65,0
243.30826,243.45248,80,70,0
243.45248,243.59671,85,73,0
243.59671,243.74095,86,77,0
243.74095,243.89558,80,71,0
242.71133,243.89558,89,73,0
243.89558,244.04121,79,75,0
244.04121,244.18684,83,68,0
244.18684,244.33247,84,82,0
244.33247,244.49121,79,69,0
244.49121,244.80867,84,74,0
243.89558,244.80867,88,78,0
244.80867,245.10135,88,93,0
244.80867,245.10135,76,79,0
244.80867,245.10135,84,79,0
244.80867,245.10135,79,79,0
245.10135,245.40904,86,88,0
245.10135,245.40904,83,74,0
245.40904,245.55756,88,86,0
245.40904,245.55756,84,74,0
245.55756,245.70607,86,78,0
245.55756,245.70607,89,92,0
245.70607,245.85458,88,81,0
245.70607,245.85458,91,96,0
246.0031,246.15161,88,91,0
246.0031,246.15161,84,77,0
247.19122,247.4839,76,79,0
247.19122,247.4839,88,93,0
247.19122,247.4839,79,79,0
247.19122,247.4839,84,79,0
247.4839,247.7916,86,88,0
247.4839,247.7916,83,74,0
247.7916,247.94011,84,74,0
247.7916,247.94011,88,86,0
247.94011,248.08862,89,92,0
247.94011,248.08862,86,78,0
248.08862,248.23714,88,81,0
248.08862,248.23714,91,96,0
248.38565,248.68268,79,86,0
248.38565,248.68268,91,103,0
248.38565,248.68268,88,86,0
248.38565,248.68268,81,86,0
248.9797,249.27675,79,86,0
248.9797,249.27675,85,86,0
248.9797,249.27675,88,86,0
248.9797,249.27675,91,103,0
249.57378,249.8708,79,86,0
249.57378,249.8708,91,103,0
249.57378,249.8708,83,86,0
249.57378,249.8708,86,86,0
250.16783,250.46486,91,103,0
250.16783,250.46486,79,86,0
250.16783,250.46486,85,86,0
250.16783,250.46486,81,86,0
250.46486,251.02405,86,65,0
250.46486,251.02405,91,77,0
250.46486,251.02405,79,65,0
250.46486,251.02405,83,65,0
251.02405,251.84973,83,54,0
251.02405,251.84973,79,54,0
251.02405,251.84973,86,64,0
251.84973,252.12497,83,63,0
251.84973,252.12497,79,53,0
251.84973,252.12497,74,53,0
252.12497,252.26257,74,56,0
252.26257,252.40019,78,57,0
252.40019,252.53781,79,58,0
252.53781,252.67543,83,59,0
252.67543,252.81303,85,60,0
252.81303,252.95065,86,61,0
252.95065,253.08827,88,62,0
253.08827,253.22588,86,62,0
253.22588,253.3635,90,63,0
253.3635,253.50111,91,64,0
253.50111,253.63873,93,65,0
253.63873,253.77654,91,66,0
253.77654,253.91658,94,67,0
253.91658,254.0595,95,68,0
254.0595,254.20541,96,69,0
254.20541,254.35411,95,70,0
254.35411,254.65262,98,71,0
254.65262,255.00032,84,70,0
254.65262,255.00032,74,59,0
254.65262,255.00032,81,59,0
255.00032,256.16156,74,49,0
255.00032,256.16156,79,49,0
255.00032,256.16156,83,58,0
256.16156,256.74408,79,48,0
256.16156,256.74408,84,57,0
256.74408,257.33374,87,61,0
256.74408,257.33374,79,51,0
256.74408,257.33374,84,51,0
257.33374,257.89978,86,67,0
257.89978,258.48123,83,61,0
257.33374,258.48123,79,56,0
257.33374,258.48123,91,56,0
258.48123,259.04727,87,60,0
258.48123,259.04727,79,51,0
258.48123,259.04727,84,51,0
259.04727,259.62872,84,63,0
259.04727,259.62872,79,53,0
259.62872,260.19476,82,66,0
260.19476,260.77515,83,59,0
259.62872,260.77515,79,56,0
260.77515,261.33853,86,64,0
260.77515,261.33853,78,54,0
261.33853,261.77386,81,53,0
261.33853,261.77386,84,63,0
261.77386,261.92432,81,57,0
261.77386,261.92432,78,48,0
261.62534,261.92432,74,52,0
261.92432,262.04153,79,49,0
262.04153,262.1473,81,42,0
261.92432,262.2478,74,49,0
262.1473,262.25027,79,49,0
262.24905,262.34903,81,44,0
262.34903,262.44577,79,49,0
262.44577,262.54187,81,44,0
262.5383,262.63428,79,50,0
262.63428,262.7286,81,44,0
262.7286,262.82413,79,50,0
262.82297,262.91846,81,46,0
262.91846,263.01282,79,51,0
261.92432,263.10455,83,58,0
263.01282,263.10806,81,45,0
263.10455,263.1992,79,51,0
263.1992,263.29263,81,44,0
263.29263,263.38687,79,52,0
263.3857,263.4799,81,47,0
263.4799,263.5726,79,52,0
263.10455,263.663,84,67,0
263.5726,263.66647,81,47,0
263.663,263.75742,79,53,0
263.75742,263.85117,81,47,0
263.85117,263.9467,79,54,0
263.94553,264.04193,81,48,0
264.04193,264.14722,79,54,0
263.663,264.24945,88,73,0
264.14722,264.253,81,48,0
264.24945,264.34543,79,55,0
264.34543,264.43994,81,47,0
264.43994,264.53525,79,55,0
264.5341,264.62906,81,50,0
264.62906,264.7225,79,56,0
264.7225,264.81668,81,51,0
264.8132,264.90738,79,56,0
264.90738,265.00058,81,50,0
265.00058,265.0954,79,57,0
265.0942,265.18967,81,51,0
265.18967,265.29172,79,57,0
264.24945,265.38922,91,67,0
265.29172,265.39276,81,51,0
265.38922,265.4852,79,58,0
265.4852,265.5796,81,50,0
265.5796,265.6748,79,59,0
265.67365,265.76852,81,53,0
265.76852,265.86166,79,59,0
265.38922,265.95258,88,72,0
265.86166,265.9561,81,53,0
265.95258,266.04745,79,60,0
266.04745,266.1415,81,52,0
266.1415,266.2372,79,60,0
266.23602,266.33237,81,55,0
266.33237,266.43442,79,61,0
265.95258,266.5339,84,77,0
266.43442,266.53745,81,54,0
266.5339,266.62994,79,61,0
266.62994,266.72516,81,53,0
266.5339,266.81915,82,83,0
266.72516,266.8215,79,62,0
266.82034,266.9163,81,56,0
266.9163,267.01108,79,62,0
267.01108,267.10672,81,56,0
267.10318,267.1987,79,63,0
267.1987,267.29227,81,55,0
266.81915,267.385,83,75,0
267.29227,267.3874,79,64,0
267.3862,267.4821,81,57,0
267.4821,267.58362,79,64,0
267.385,267.68076,86,86,0
267.58362,267.6843,81,56,0
267.68076,267.77673,86,75,0
267.77673,267.87112,88,66,0
267.87112,267.96634,86,75,0
267.96518,268.06015,88,64,0
268.06015,268.15338,86,75,0
267.96402,268.24368,74,60,0
268.15338,268.24716,88,68,0
268.24368,268.3379,86,78,0
268.3379,268.43143,88,69,0
268.43143,268.5265,86,75,0
268.52414,268.6658,85,75,0
268.6658,268.80847,86,79,0
268.80847,268.94238,89,73,0
268.80847,268.94238,86,73,0
268.80847,268.94238,95,73,0
268.80847,268.94238,98,86,0
269.07632,269.61942,98,78,0
269.07632,269.61942,89,66,0
269.07632,269.61942,95,66,0
269.07632,269.61942,86,66,0
269.61942,269.75958,89,66,0
269.61942,269.75958,86,66,0
269.61942,269.75958,84,66,0
269.61942,269.75958,96,78,0
269.89978,270.0337,89,67,0
269.89978,270.0337,86,67,0
269.89978,270.0337,95,79,0
269.89978,270.0337,83,67,0
270.16763,270.30157,86,70,0
270.16763,270.30157,96,83,0
270.16763,270.30157,89,70,0
270.16763,270.30157,84,70,0
270.4355,270.56943,98,82,0
270.4355,270.56943,86,69,0
270.4355,270.56943,89,69,0
270.70334,270.84354,86,58,0
270.70334,270.84354,88,58,0
270.70334,270.84354,95,69,0
270.70334,270.84354,83,58,0
270.98373,271.11646,96,59,0
270.98373,271.11646,88,50,0
270.98373,271.11646,84,50,0
271.2492,271.38196,95,53,0
271.2492,271.38196,88,45,0
271.2492,271.38196,86,45,0
271.2492,271.38196,83,45,0
271.51468,271.64743,96,59,0
271.51468,271.64743,88,50,0
271.51468,271.64743,84,50,0
271.78018,271.91843,88,45,0
271.78018,271.91843,84,45,0
271.78018,271.91843,81,45,0
271.78018,271.91843,93,53,0
272.05667,272.18884,81,50,0
272.05667,272.18884,88,50,0
272.05667,272.18884,91,59,0
272.32098,272.45316,81,45,0
272.32098,272.45316,91,53,0
272.32098,272.45316,85,45,0
272.5853,272.71747,90,59,0
272.5853,272.71747,84,50,0
272.5853,272.71747,81,50,0
272.84964,272.98724,84,45,0
272.84964,272.98724,93,53,0
272.84964,272.98724,81,45,0
273.12485,273.25528,91,64,0
273.12485,273.25528,83,55,0
273.12485,273.25528,79,55,0
273.3857,273.51617,83,50,0
273.3857,273.51617,74,50,0
273.3857,273.51617,86,59,0
273.6466,273.77704,78,58,0
273.6466,273.77704,84,58,0
273.6466,273.77704,90,69,0
273.90747,274.04446,81,55,0
273.90747,274.04446,84,55,0
273.90747,274.04446,93,65,0
273.90747,274.04446,90,55,0
274.18143,274.31186,83,63,0
274.18143,274.31186,91,75,0
274.18143,274.31186,79,63,0
274.44232,274.57275,86,69,0
274.44232,274.57275,83,59,0
274.44232,274.57275,74,59,0
274.7032,274.83362,90,80,0
274.7032,274.83362,78,69,0
274.7032,274.83362,84,69,0
274.96405,275.0998,81,64,0
274.96405,275.0998,90,64,0
274.96405,275.0998,93,76,0
274.96405,275.0998,84,64,0
275.23553,275.36212,79,77,0
275.36212,275.4887,91,70,0
275.4887,275.6153,74,79,0
275.6153,275.74188,86,73,0
275.74188,275.86844,78,82,0
275.86844,275.99503,90,76,0
275.99503,276.1216,81,85,0
276.1216,276.2638,93,79,0
276.2638,276.39145,79,88,0
276.39145,276.5191,91,82,0
276.5191,276.64676,74,91,0
276.64676,276.77444,86,86,0
276.77444,276.9021,78,94,0
276.9021,277.02975,90,90,0
277.02975,277.1574,81,99,0
277.1574,277.29825,93,92,0
277.29825,277.52325,91,110,0
277.29825,277.52325,79,91,0
277.89825,278.14282,93,112,0
277.89825,278.14282,81,94,0
278.55045,279.95395,95,118,0
278.55045,279.95395,83,99,0
279.95395,280.2082,95,110,0
279.95395,280.2082,83,91,0
280.6319,280.9241,96,112,0
280.6319,280.9241,84,94,0
281.41113,282.96957,98,118,0
281.41113,282.96957,86,99,0
282.96957,283.03452,86,51,0
282.96957,283.03452,79,43,0
282.96957,283.03452,74,43,0
283.2293,283.7522,74,39,0
283.2293,283.7522,79,39,0
283.2293,283.7522,86,46,0
283.7522,283.88614,84,46,0
283.7522,283.88614,75,39,0
283.7522,283.88614,79,39,0
284.02005,284.14938,79,40,0
284.02005,284.14938,77,40,0
284.02005,284.14938,83,47,0
284.2787,284.40744,75,42,0
284.2787,284.40744,79,42,0
284.2787,284.40744,84,49,0
284.5362,284.66495,79,41,0
284.5362,284.66495,86,49,0
284.5362,284.66495,74,41,0
284.7937,284.93134,83,41,0
284.7937,284.93134,77,34,0
284.7937,284.93134,79,34,0
285.06894,285.13416,87,51,0
285.06894,285.13416,75,43,0
285.06894,285.13416,79,43,0
285.3298,285.85852,87,46,0
285.3298,285.85852,75,39,0
285.3298,285.85852,79,39,0
285.85852,285.9955,74,39,0
285.85852,285.9955,77,39,0
285.85852,285.9955,79,39,0
285.85852,285.9955,86,46,0
286.1325,286.26126,84,47,0
286.1325,286.26126,79,40,0
286.1325,286.26126,75,40,0
286.39,286.51877,86,49,0
286.39,286.51877,77,42,0
286.39,286.51877,74,42,0
286.39,286.51877,79,42,0
286.64752,286.77628,79,41,0
286.64752,286.77628,75,41,0
286.64752,286.77628,87,49,0
286.90503,287.04523,75,34,0
286.90503,287.04523,79,34,0
286.90503,287.04523,84,41,0
287.1854,287.25064,77,47,0
287.1854,287.25064,89,56,0
287.1854,287.25064,80,47,0
287.4463,287.97263,89,52,0
287.4463,287.97263,77,44,0
287.4463,287.97263,80,44,0
287.97263,288.11026,87,57,0
287.97263,288.11026,75,48,0
287.97263,288.11026,79,48,0
288.24786,288.37775,74,52,0
288.24786,288.37775,77,52,0
288.24786,288.37775,86,61,0
288.5076,288.63748,75,56,0
288.5076,288.63748,79,56,0
288.5076,288.63748,87,66,0
288.76733,288.89722,89,68,0
288.76733,288.89722,77,57,0
288.76733,288.89722,80,57,0
289.0271,289.16727,77,56,0
289.0271,289.16727,86,67,0
289.0271,289.16727,82,56,0
289.0271,289.16727,74,56,0
289.30746,289.53247,87,87,0
289.30746,289.53247,79,87,0
289.30746,289.53247,91,105,0
289.90747,290.15204,89,90,0
289.90747,290.15204,80,90,0
289.90747,290.15204,92,107,0
290.58768,291.99118,91,94,0
290.58768,291.99118,82,94,0
290.58768,291.99118,94,113,0
291.99118,292.19574,63,42,0
291.99118,292.19574,67,50,0
292.54245,292.74158,65,44,0
292.54245,292.74158,68,52,0
293.11115,294.23895,67,45,0
293.11115,294.23895,70,53,0
296.76447,296.92154,51,57,0
296.92154,297.38882,63,77,0
297.39276,297.5472,63,56,0
297.5498,297.86395,63,63,0
299.1032,299.23535,46,40,0
299.23535,299.62964,51,44,0
299.63184,299.76178,51,40,0
299.764,300.02832,51,43,0
300.02832,300.1253,53,44,0
300.15762,300.2599,51,40,0
300.29398,300.39355,51,44,0
300.55948,300.65903,48,39,0
300.82495,301.35995,48,39,0
301.35995,301.4595,56,47,0
301.62543,301.722,56,42,0
301.75418,301.85693,55,42,0
301.89117,302.02393,53,47,0
302.15665,302.25363,53,44,0
302.28598,302.38824,51,44,0
302.42233,302.6878,50,47,0
302.95502,303.48694,50,39,0
303.48694,303.58606,58,50,0
303.75128,303.8474,58,44,0
303.8795,303.98315,56,44,0
304.01773,304.14594,55,48,0
304.28418,304.3833,55,44,0
304.41632,304.51544,53,44,0
304.5485,304.8128,52,48,0
305.07864,305.60635,52,39,0
305.60635,305.70505,60,48,0
305.8695,305.96365,60,44,0
305.99503,306.09778,58,44,0
306.13202,306.25916,56,49,0
306.3955,306.4942,56,45,0
306.5271,306.62576,55,46,0
306.65866,306.75735,53,50,0
306.9218,307.01675,53,47,0
307.0484,307.15115,55,47,0
307.1854,307.3109,56,51,0
307.44666,307.54535,56,48,0
307.57825,307.6769,58,48,0
307.7098,307.84024,55,51,0
307.9707,308.06644,55,49,0
308.09836,308.20447,53,49,0
308.23987,308.50418,51,55,0
308.63632,308.7685,65,46,0
308.7685,309.16275,70,56,0
309.16498,309.29492,70,47,0
309.29712,309.56143,70,55,0
309.56143,309.65842,72,53,0
309.69077,309.79303,70,48,0
309.82712,309.92667,70,57,0
310.0926,310.19217,67,48,0
310.3581,310.89307,67,49,0
310.89307,310.99265,75,61,0
311.15857,311.25513,75,57,0
311.28732,311.39005,74,57,0
311.4243,311.55704,72,62,0
311.6898,311.78677,72,58,0
311.8191,311.92136,70,58,0
311.95547,312.22095,69,64,0
312.48813,313.02008,69,53,0
313.02008,313.1192,77,65,0
313.2844,313.38055,77,62,0
313.4126,313.5163,75,62,0
313.55084,313.67905,74,66,0
313.81732,313.9164,74,63,0
313.94946,314.04858,72,63,0
314.08163,314.34595,71,67,0
314.61176,315.1395,71,53,0
315.1395,315.23816,79,71,0
315.40265,315.4968,79,67,0
315.52817,315.63092,77,67,0
315.66516,315.79227,75,68,0
315.92865,316.0273,75,68,0
316.0602,316.1589,74,69,0
316.1918,316.29047,72,71,0
316.45496,316.5499,72,69,0
316.58154,316.68427,70,70,0
316.71854,316.84406,68,74,0
316.9798,317.0785,68,71,0
317.11136,317.21005,67,71,0
317.24295,317.37338,65,76,0
317.5038,317.59958,65,72,0
317.63147,317.7376,67,73,0
317.77298,318.0373,68,76,0
318.0373,318.30164,70,73,0
318.30164,318.56595,70,62,0
318.30164,318.56595,63,62,0
318.30164,318.6959,67,74,0
318.6981,318.82806,67,64,0
318.83026,319.09457,67,76,0
319.09457,319.19156,68,74,0
319.22388,319.32617,67,70,0
319.22388,319.32617,70,70,0
319.36026,319.63297,67,62,0
319.36026,319.76706,75,74,0
319.76935,319.9057,75,64,0
319.63297,319.9057,63,53,0
319.9057,320.17844,75,76,0
320.17844,320.27542,77,74,0
320.30774,320.41,75,70,0
319.9057,320.4441,63,64,0
320.4441,320.54367,75,74,0
320.4441,320.54367,63,62,0
320.84235,320.9419,70,57,0
320.7096,320.9419,72,68,0
320.97507,321.07465,68,62,0
321.24057,321.33755,68,73,0
321.36987,321.475,67,64,0
320.97507,321.51007,72,74,0
321.51007,321.60962,80,81,0
321.51007,321.77554,65,62,0
321.77554,321.8721,80,71,0
321.9043,322.00705,79,67,0
322.0413,322.17404,77,78,0
322.30676,322.40375,77,74,0
322.4361,322.53836,75,68,0
322.0413,322.57245,65,64,0
322.57245,322.672,74,74,0
322.83795,322.9375,74,68,0
322.97067,323.07025,72,57,0
323.10342,323.20297,70,62,0
323.3689,323.46588,70,73,0
323.49823,323.60336,68,64,0
323.10342,323.6384,74,74,0
323.6384,323.73798,82,79,0
323.6384,323.9039,67,62,0
323.9039,324.00046,82,71,0
324.03265,324.13538,80,67,0
324.16965,324.30237,79,78,0
324.43512,324.5321,79,74,0
324.56442,324.66672,77,68,0
324.7008,324.96628,76,74,0
324.16965,324.96628,67,64,0
324.96628,325.23178,64,56,0
325.23178,325.49725,65,59,0
325.49725,325.59424,60,51,0
325.62656,325.73172,58,49,0
325.49725,325.76675,67,62,0
325.76675,325.8995,56,58,0
326.03223,326.16498,65,51,0
326.16498,326.29773,63,44,0
326.29773,326.43048,62,51,0
325.76675,326.5632,68,58,0
326.5632,326.69595,62,52,0
326.69595,326.8287,60,45,0
326.5632,326.8287,69,52,0
326.8287,326.92825,70,63,0
326.8287,327.09418,58,63,0
327.09418,327.19077,79,62,0
327.22293,327.32568,77,57,0
327.35992,327.49268,75,67,0
327.62543,327.72238,75,63,0
327.75473,327.857,74,57,0
328.1566,328.42206,60,47,0
327.89108,328.68756,72,68,0
328.68756,328.95303,73,61,0
328.42206,328.95303,65,60,0
328.95303,329.05258,74,72,0
328.95303,329.05258,65,72,0
329.2185,329.3151,75,66,0
329.2185,329.3151,67,66,0
329.34726,329.45,65,59,0
329.34726,329.45,74,59,0
329.48425,329.617,63,76,0
329.48425,329.617,72,76,0
329.74976,329.84674,71,73,0
329.74976,329.87906,62,76,0
329.87906,329.98132,67,66,0
330.0154,330.4086,75,79,0
330.0154,330.4086,72,67,0
330.4119,330.54297,72,61,0
330.4119,330.54297,75,72,0
330.54407,330.80838,75,76,0
330.54407,330.80838,72,64,0
330.80838,330.90536,77,79,0
330.80838,330.90536,74,67,0
330.93768,331.03995,72,57,0
330.93768,331.03995,75,68,0
331.07404,331.1736,75,79,0
331.07404,331.1736,72,67,0
331.33954,331.4391,68,58,0
331.33954,331.4391,72,69,0
331.605,332.14,72,69,0
331.605,332.14,68,58,0
332.14,332.23956,77,67,0
332.14,332.23956,80,79,0
332.4055,332.50204,77,67,0
332.4055,332.50204,80,79,0
332.53424,332.637,75,63,0
332.53424,332.637,79,75,0
332.67123,332.804,73,67,0
332.67123,332.804,77,79,0
332.9367,333.0337,77,79,0
332.9367,333.0337,73,67,0
333.06604,333.1683,72,63,0
333.06604,333.1683,75,75,0
333.2024,333.46786,70,67,0
333.2024,333.46786,73,79,0
333.73508,334.267,73,69,0
333.73508,334.267,70,58,0
334.267,334.36612,82,79,0
334.267,334.36612,79,67,0
334.53134,334.62747,82,79,0
334.53134,334.62747,79,67,0
334.65955,334.7632,80,75,0
334.65955,334.7632,77,63,0
334.7978,334.926,79,79,0
334.7978,334.926,76,67,0
335.06424,335.16336,76,67,0
335.06424,335.16336,79,79,0
335.1964,335.2955,77,75,0
335.1964,335.2955,74,63,0
335.32855,335.59286,72,67,0
335.32855,335.59286,76,79,0
335.8587,336.3864,77,69,0
335.8587,336.3864,72,58,0
336.3864,336.4851,80,67,0
336.3864,336.4851,84,79,0
336.64957,336.7437,84,79,0
336.64957,336.7437,80,67,0
336.7751,336.87784,82,75,0
336.7751,336.87784,79,63,0
336.91208,337.0392,77,67,0
336.91208,337.0392,80,79,0
337.17557,337.27426,82,80,0
337.17557,337.27426,79,68,0
337.30716,337.40582,80,77,0
337.30716,337.40582,77,65,0
337.43872,337.5374,75,67,0
337.43872,337.5374,79,79,0
337.70187,337.7968,89,79,0
337.70187,337.7968,80,79,0
337.82846,337.9312,79,63,0
337.82846,337.9312,87,75,0
337.96545,338.09097,86,79,0
337.96545,338.09097,77,67,0
338.2267,338.3254,79,68,0
338.2267,338.3254,87,80,0
338.3583,338.457,86,77,0
338.3583,338.457,77,65,0
338.48987,338.58856,84,79,0
338.48987,338.58856,75,67,0
338.75305,338.84796,82,79,0
338.75305,338.84796,79,67,0
338.8796,338.98236,84,75,0
338.8796,338.98236,80,63,0
339.0166,339.14212,82,68,0
339.0166,339.14212,85,80,0
339.27786,339.37656,80,82,0
339.27786,339.37656,77,70,0
339.40945,339.50815,82,80,0
339.40945,339.50815,79,67,0
339.54105,339.6397,84,82,0
339.54105,339.6397,80,70,0
339.8042,339.89914,75,83,0
339.9308,340.0335,77,80,0
339.8042,340.06775,72,71,0
340.06775,340.31882,71,71,0
340.06775,340.31882,79,84,0
340.44434,340.5742,74,94,0
340.44434,340.5742,71,79,0
340.5742,341.454,83,102,0
340.5742,341.454,79,86,0
341.454,341.5785,74,87,0
341.454,341.5785,71,73,0
341.5785,342.33173,83,102,0
341.5785,342.33173,79,86,0
342.33173,342.45468,87,53,0
342.45468,342.57764,86,45,0
342.33173,342.57764,79,45,0
342.33173,342.57764,83,53,0
342.57764,342.7006,91,53,0
342.7006,342.82352,89,45,0
342.57764,342.82352,83,45,0
342.57764,342.82352,86,45,0
343.07413,343.19708,79,53,0
343.19708,343.32004,77,45,0
343.07413,343.32004,74,45,0
343.07413,343.32004,71,45,0
343.5701,343.69257,67,53,0
343.69257,343.815,65,45,0
343.5701,343.815,62,45,0
343.5701,343.815,59,45,0
344.06458,344.187,79,53,0
344.187,344.30948,77,45,0
344.06458,344.30948,71,45,0
344.06458,344.30948,74,45,0
344.5641,345.44388,84,86,0
344.5641,345.44388,87,102,0
344.5641,345.44388,79,86,0
345.56836,346.3216,87,102,0
345.44388,346.3216,79,73,0
345.44388,346.3216,75,87,0
345.56836,346.3216,84,86,0
346.3216,346.44455,89,53,0
346.44455,346.5675,87,45,0
346.3216,346.5675,79,45,0
346.3216,346.5675,84,53,0
346.5675,346.69046,92,53,0
346.69046,346.81342,91,45,0
346.5675,346.81342,84,45,0
346.5675,346.81342,87,45,0
347.06403,347.18698,80,53,0
347.1798,347.30273,79,45,0
347.06403,347.30994,75,45,0
347.06403,347.30994,72,45,0
347.56,347.68243,68,53,0
347.68243,347.8049,67,45,0
347.56,347.8049,60,45,0
347.56,347.8049,63,45,0
348.05444,348.1769,80,53,0
348.1769,348.29935,79,45,0
348.05444,348.29935,72,45,0
348.05444,348.29935,75,45,0
348.55396,349.43378,89,102,0
348.55396,349.43378,86,86,0
348.55396,349.43378,77,86,0
349.43378,349.55826,77,73,0
349.43378,349.55826,74,87,0
349.9317,350.05618,77,73,0
350.05618,350.3115,82,67,0
349.55826,350.3115,86,86,0
349.55826,350.3115,89,102,0
350.3115,350.43445,91,53,0
350.43445,350.5574,89,45,0
350.3115,350.5574,82,45,0
350.3115,350.5574,86,53,0
350.5574,350.68033,94,58,0
350.68033,350.80328,92,50,0
350.5574,350.80328,89,49,0
350.5574,350.80328,86,49,0
351.0539,351.17685,82,63,0
351.16968,351.29263,80,54,0
351.0539,351.2998,74,54,0
351.0539,351.2998,77,54,0
351.54987,351.67233,70,68,0
351.67233,351.79477,68,59,0
351.54987,351.79477,62,58,0
351.54987,351.79477,65,58,0
352.04434,352.16678,82,74,0
352.16678,352.28925,80,63,0
352.04434,352.28925,74,63,0
352.04434,352.28925,77,63,0
352.54385,353.42365,91,102,0
352.54385,353.42365,87,86,0
353.42365,353.54813,82,73,0
353.42365,353.54813,79,73,0
353.92157,354.04605,79,87,0
354.04605,354.30136,84,80,0
353.54813,354.30136,87,86,0
353.54813,354.30136,91,102,0
354.42902,354.5567,81,87,0
354.42902,354.5567,78,73,0
354.5567,355.4365,90,90,0
354.5567,355.4365,93,106,0
355.4365,355.56097,78,76,0
355.4365,355.56097,81,76,0
355.93442,356.0589,81,91,0
355.56097,356.3142,90,90,0
356.0589,356.3142,90,90,0
355.56097,356.3142,93,106,0
356.0589,356.3142,86,84,0
356.44934,356.58447,83,91,0
356.44934,356.58447,80,76,0
356.58447,357.4643,83,82,0
356.58447,357.4643,89,82,0
356.58447,357.4643,95,97,0
356.58447,357.4643,86,82,0
356.58447,357.4643,92,82,0
357.4643,357.58878,83,76,0
357.4643,357.58878,80,76,0
357.58878,358.4856,95,97,0
357.58878,358.4856,86,82,0
357.58878,358.4856,89,82,0
357.58878,358.4856,83,82,0
357.58878,358.4856,92,82,0
358.4856,358.6271,85,76,0
358.4856,358.6271,82,76,0
358.4856,358.6271,76,76,0
358.4856,358.6271,79,76,0
358.6271,359.5069,88,82,0
358.6271,359.5069,94,82,0
358.6271,359.5069,91,82,0
358.6271,359.5069,97,97,0
359.5069,359.63138,76,76,0
359.5069,359.63138,82,76,0
359.5069,359.63138,85,76,0
359.5069,359.63138,79,76,0
359.63138,360.56924,97,97,0
359.63138,360.56924,91,82,0
359.63138,360.56924,88,82,0
359.63138,360.56924,94,82,0
360.56924,360.728,78,83,0
360.56924,360.728,81,83,0
360.56924,360.728,86,83,0
360.728,361.10773,98,106,0
360.728,361.10773,86,90,0
360.728,361.10773,90,90,0
360.728,361.10773,93,90,0
361.10773,361.2343,86,80,0
361.2343,361.62738,98,100,0
361.62738,361.75613,74,74,0
361.75613,362.1424,86,93,0
362.1424,362.27115,74,68,0
362.27115,362.6626,86,85,0
362.6626,362.79654,74,62,0
362.79654,363.19125,86,78,0
363.19125,363.32285,74,56,0
363.32285,363.72824,86,70,0
363.72824,363.86337,74,51,0
363.86337,364.28006,86,63,0
364.28006,364.41895,74,45,0
364.41895,364.86612,86,55,0
364.86612,365.04904,75,39,0
365.63614,366.1995,75,49,0
365.04904,366.1995,87,58,0
366.1995,366.77643,88,57,0
366.77643,367.36255,79,61,0
366.1995,367.36255,76,48,0
367.36255,367.913,78,67,0
367.913,368.48746,75,61,0
367.36255,368.48746,83,56,0
368.48746,369.0354,79,60,0
368.48746,369.0354,71,51,0
368.48746,369.0354,76,51,0
369.0354,369.60477,76,63,0
369.0354,369.60477,71,53,0
369.60477,370.14777,74,66,0
370.14777,370.71948,75,59,0
370.71948,371.26,78,64,0
371.26,371.53027,76,63,0
371.53027,371.817,73,57,0
371.817,372.0897,75,66,0
372.0897,372.36243,62,48,0
372.36243,372.93414,63,56,0
372.93414,373.4846,66,64,0
373.4846,373.7671,64,52,0
373.7671,374.06424,61,48,0
374.06424,374.20312,75,59,0
374.06424,374.20312,71,59,0
374.20312,374.342,76,48,0
374.342,374.4784,75,48,0
374.4784,374.61475,74,48,0
374.61475,374.7511,75,55,0
374.7511,374.88748,76,48,0
374.88748,375.02914,78,48,0
375.02914,375.18143,77,48,0
375.18143,375.31778,80,57,0
375.31778,375.45416,78,54,0
375.45416,375.5905,77,54,0
375.5905,375.72687,78,54,0
375.72687,375.86325,76,56,0
375.86325,375.9996,75,53,0
375.9996,376.13596,76,51,0
376.13596,376.2818,73,45,0
376.2818,376.42197,63,59,0
376.42197,376.56216,64,48,0
376.2818,376.56216,75,59,0
376.56216,376.69977,63,48,0
376.69977,376.8374,62,48,0
376.8374,376.975,63,55,0
376.975,377.1126,64,48,0
377.1126,377.25513,66,48,0
377.25513,377.4022,65,48,0
377.4022,377.5398,68,57,0
377.5398,377.6774,66,54,0
377.6774,377.81503,65,54,0
377.81503,377.95264,66,54,0
377.95264,378.09027,64,56,0
378.09027,378.22787,63,53,0
378.22787,378.39737,64,51,0
378.39737,378.5278,66,45,0
378.5278,378.75595,64,61,0
378.5278,378.75595,54,51,0
378.5278,378.75595,61,51,0
380.24524,380.3356,66,63,0
380.36572,380.70602,73,61,0
380.70792,380.8201,73,54,0
380.822,380.9931,73,61,0
381.05014,381.13568,75,48,0
381.1642,381.25458,73,51,0
381.1642,381.25458,61,63,0
381.2847,381.39874,73,51,0
381.2847,381.625,64,61,0
381.51282,381.6269,70,51,0
381.6269,381.73904,64,54,0
381.74097,381.91205,64,61,0
381.9691,382.05466,66,48,0
382.08316,382.17352,64,51,0
382.20364,382.31772,64,51,0
382.4318,382.54584,61,51,0
383.00214,383.0925,66,63,0
383.12262,383.46292,76,67,0
383.4648,383.55035,64,63,0
383.4648,383.57697,76,54,0
383.5789,383.74997,76,61,0
383.5789,383.92108,73,61,0
383.92108,384.04205,73,54,0
384.04205,384.21317,73,61,0
384.84055,384.9298,73,63,0
384.9596,385.2999,82,67,0
385.3018,385.38733,61,63,0
385.3018,385.41394,82,54,0
385.41586,385.58694,82,61,0
385.41586,385.75806,70,61,0
385.75806,385.8775,70,54,0
385.87952,386.05127,70,61,0
386.22302,386.3089,52,64,0
386.33752,387.15115,61,62,0
387.15115,387.2377,55,68,0
387.26654,387.8537,64,71,0
387.8537,387.9399,55,70,0
387.96863,388.31088,64,76,0
388.31088,388.39514,79,72,0
388.42325,388.77997,88,78,0
388.77997,388.86752,56,74,0
388.8967,389.24295,64,79,0
389.24295,389.32755,80,76,0
389.35574,389.71503,88,83,0
389.71503,389.80154,57,78,0
389.8304,390.17313,64,84,0
390.17313,390.25708,81,81,0
390.28506,390.64044,88,88,0
390.64044,390.727,57,85,0
390.75583,391.09937,65,93,0
391.09937,391.18396,81,89,0
391.21216,391.5173,89,101,0
391.5173,391.68842,77,82,0
391.5173,391.68842,74,82,0
391.5173,391.68842,82,82,0
391.52777,391.69888,86,99,0
391.85953,391.97357,77,91,0
391.85953,391.97357,74,91,0
391.85953,391.97357,82,91,0
391.85953,391.97357,86,111,0
391.97357,392.14468,74,82,0
391.97357,392.14468,77,82,0
391.97357,392.14468,86,99,0
391.97357,392.14468,82,82,0
392.20172,392.2445,77,84,0
392.20172,392.2445,74,84,0
392.20172,392.2445,87,104,0
392.20172,392.2445,82,84,0
392.3158,392.36887,82,86,0
392.3158,392.36887,74,86,0
392.3158,392.36887,86,102,0
392.3158,392.36887,77,86,0
392.4573,392.58832,86,111,0
392.4573,392.58832,77,91,0
392.4573,392.58832,74,91,0
392.4573,392.58832,82,91,0
392.7193,392.8503,82,101,0
392.7193,392.8503,74,84,0
392.7193,392.8503,70,84,0
392.7193,392.8503,77,84,0
393.37433,393.49677,74,93,0
393.37433,393.49677,77,101,0
393.49677,393.6712,89,99,0
393.49677,393.6712,77,82,0
393.49677,393.6712,82,82,0
393.8456,393.96188,86,91,0
393.8456,393.96188,82,91,0
393.8456,393.96188,77,91,0
393.8456,393.96188,89,111,0
393.96188,394.13632,89,99,0
393.96188,394.13632,86,82,0
393.96188,394.13632,82,82,0
393.96188,394.13632,77,82,0
394.19446,394.23807,77,84,0
394.19446,394.23807,91,104,0
394.19446,394.23807,86,84,0
394.19446,394.23807,82,84,0
394.31073,394.3648,82,86,0
394.31073,394.3648,89,102,0
394.31073,394.3648,86,86,0
394.31073,394.3648,77,86,0
394.45496,394.58713,77,91,0
394.45496,394.58713,89,111,0
394.45496,394.58713,86,91,0
394.45496,394.58713,82,91,0
394.71927,394.85144,82,84,0
394.71927,394.85144,86,101,0
394.71927,394.85144,74,84,0
394.71927,394.85144,77,84,0
395.24792,395.38007,82,54,0
395.24792,395.38007,79,45,0
395.38007,395.51224,84,51,0
395.38007,395.51224,81,43,0
395.51224,396.055,82,51,0
395.51224,396.055,86,61,0
395.51224,396.055,77,51,0
396.055,396.31473,81,47,0
396.055,396.31473,84,56,0
396.055,396.31473,77,47,0
396.31473,396.4446,72,56,0
396.31473,396.4446,69,47,0
396.4446,396.57446,74,46,0
396.4446,396.57446,71,35,0
396.31473,396.57446,65,41,0
396.57446,397.12283,75,58,0
396.57446,397.12283,72,49,0
396.57446,397.12283,67,49,0
397.12283,397.39432,70,43,0
397.12283,397.39432,74,51,0
397.12283,397.39432,67,43,0
397.39432,397.53925,74,58,0
397.53925,397.68417,75,60,0
397.39432,397.9857,70,49,0
397.68417,398.12787,77,63,0
398.12787,398.27005,79,60,0
397.9857,398.27005,70,54,0
397.9857,398.27005,67,45,0
398.27005,398.41223,77,62,0
398.27005,398.58365,67,62,0
398.41223,398.7467,75,51,0
398.7467,398.90973,77,50,0
398.58365,398.90973,69,57,0
398.90973,399.08517,75,60,0
399.08517,399.31775,74,46,0
398.90973,399.31775,70,51,0
399.31775,399.61478,77,49,0
399.31775,399.61478,65,41,0
399.31775,399.61478,68,41,0
399.31775,399.61478,74,49,0
399.61478,400.0763,63,37,0
399.61478,400.0763,67,37,0
399.61478,400.0763,72,44,0
399.61478,400.0763,75,44,0
400.0763,401.47165,69,40,0
400.0763,401.47165,72,40,0
400.0763,401.47165,60,34,0
401.47165,401.61118,74,58,0
401.61118,401.75073,75,60,0
401.9015,402.0391,69,45,0
401.75073,402.1767,77,63,0
402.1767,402.31433,79,60,0
402.0391,402.46432,70,54,0
402.46432,402.60257,66,47,0
402.31433,402.7408,75,64,0
402.7408,402.88788,77,50,0
402.88788,403.02808,75,60,0
402.60257,403.02808,69,53,0
403.02808,403.1868,74,50,0
403.02808,403.1868,70,50,0
403.1868,403.34064,77,57,0
403.34064,403.49448,75,55,0
403.49448,403.8022,72,50,0
403.1868,403.8022,65,35,0
403.8022,403.9417,63,49,0
403.8022,403.9417,75,58,0
403.9417,404.08124,65,51,0
403.9417,404.08124,77,60,0
404.08124,404.232,67,45,0
404.232,404.36963,69,45,0
404.08124,404.50723,79,63,0
404.50723,404.64484,80,60,0
404.36963,404.79486,70,54,0
404.79486,404.9331,69,47,0
404.64484,405.07135,77,64,0
405.07135,405.2184,79,50,0
405.2184,405.35858,77,60,0
405.35858,405.51733,75,50,0
404.9331,405.51733,70,53,0
405.51733,405.67117,79,57,0
405.67117,405.825,77,55,0
405.825,406.13272,74,50,0
405.51733,406.13272,70,35,0
406.13272,406.27225,77,58,0
406.27225,406.41177,78,60,0
406.56253,406.70013,69,45,0
406.41177,406.83777,80,63,0
406.83777,406.97537,82,60,0
406.97537,407.2636,78,64,0
406.70013,407.2636,70,54,0
407.2636,407.40317,78,58,0
407.2636,407.40317,66,49,0
407.40317,407.5427,80,60,0
407.40317,407.5427,68,51,0
407.5427,407.69345,70,38,0
407.69345,407.83105,72,45,0
407.5427,407.9687,82,63,0
407.9687,408.1063,83,60,0
407.83105,408.2563,73,54,0
408.2563,408.39453,77,45,0
408.1063,408.39453,80,64,0
408.39453,408.53537,82,56,0
408.39453,408.53537,78,47,0
408.53537,408.67624,80,51,0
408.53537,408.67624,83,60,0
408.67624,408.9441,82,65,0
408.67624,409.07565,85,65,0
409.07565,409.20724,87,64,0
409.20724,409.33884,85,60,0
408.9441,409.49188,78,54,0
409.33884,409.63406,83,43,0
409.63406,409.77625,85,63,0
409.77625,409.90784,83,60,0
409.49188,410.06088,77,53,0
409.90784,410.20306,82,46,0
410.20306,410.34525,83,62,0
410.34525,410.48285,82,58,0
410.06088,410.48285,78,53,0
410.48285,410.62048,80,48,0
410.48285,410.62048,77,41,0
410.62048,410.7581,82,56,0
410.62048,410.7581,78,48,0
410.7581,410.8957,80,50,0
410.7581,410.8957,83,60,0
410.8957,411.03085,80,51,0
410.8957,411.03085,87,64,0
411.03085,411.166,77,46,0
411.03085,411.166,85,58,0
411.166,411.30112,87,65,0
411.30112,411.44397,85,58,0
411.44397,411.5791,85,66,0
411.166,411.5791,78,52,0
411.5791,411.71423,76,46,0
411.5791,411.71423,83,58,0
411.71423,411.84937,85,67,0
411.84937,411.99155,83,60,0
411.99155,412.12668,83,67,0
411.71423,412.12668,77,53,0
412.12668,412.2618,73,48,0
412.12668,412.2618,82,61,0
412.2618,412.39697,83,68,0
412.39697,412.53848,82,61,0
412.53848,412.6736,82,69,0
412.2618,412.6736,78,54,0
412.6736,412.80875,77,49,0
412.6736,412.80875,80,62,0
412.80875,412.94388,78,55,0
412.80875,412.94388,82,69,0
412.94388,413.0902,83,63,0
412.94388,413.0902,80,51,0
413.0902,413.22473,87,70,0
413.0902,413.22473,77,56,0
413.22473,413.35574,85,61,0
413.22473,413.35574,78,48,0
413.35574,413.49026,73,61,0
413.49026,413.6342,85,63,0
413.35574,413.63663,78,48,0
413.63663,413.77115,76,57,0
413.63663,413.77115,85,71,0
413.77115,413.90216,77,49,0
413.77115,413.90216,83,62,0
413.90216,414.03668,71,62,0
414.03668,414.1823,83,62,0
413.90216,414.1823,77,49,0
414.1823,414.31744,77,58,0
414.1823,414.31744,83,72,0
414.31744,414.44846,78,52,0
414.31744,414.44846,82,65,0
414.44846,414.58298,70,65,0
414.58298,414.72412,82,67,0
414.44846,414.72653,78,52,0
414.72653,414.86227,82,75,0
414.86227,414.99802,80,69,0
414.99802,415.13376,82,70,0
415.13376,415.2746,83,70,0
414.99802,415.2746,73,53,0
415.2746,415.41348,87,81,0
415.2746,415.41348,73,65,0
415.41348,415.5524,78,60,0
415.41348,415.69128,85,75,0
415.5524,415.8428,77,60,0
415.5524,415.8428,83,76,0
415.69128,415.98233,86,81,0
415.98233,416.12186,87,80,0
415.8428,416.12186,78,61,0
415.8428,416.12186,82,61,0
416.12186,416.26138,88,83,0
416.26138,416.41367,89,87,0
416.12186,416.41367,77,61,0
416.12186,416.41367,82,61,0
416.41367,416.55655,92,89,0
416.55655,416.6994,90,85,0
416.41367,416.6994,82,71,0
416.41367,416.6994,78,71,0
416.6994,416.84225,89,91,0
416.84225,417.00443,87,82,0
416.6994,417.00443,82,74,0
416.6994,417.00443,78,74,0
417.00443,417.15985,77,77,0
417.00443,417.15985,80,77,0
417.00443,417.15985,85,98,0
417.3153,417.47073,89,103,0
417.3153,417.47073,77,81,0
417.3153,417.47073,85,81,0
417.3153,417.47073,80,81,0
417.68973,418.25308,90,115,0
417.68973,418.25308,78,97,0
417.68973,418.25308,85,97,0
417.68973,418.25308,82,97,0
418.25308,418.8249,61,63,0
418.25308,418.8249,66,75,0
418.25308,418.8249,58,63,0
418.8249,418.89127,61,50,0
418.8249,418.89127,70,59,0
418.8249,418.89127,66,50,0
419.09036,419.15674,58,51,0
419.09036,419.15674,61,51,0
419.09036,419.15674,66,61,0
419.35587,419.4222,70,61,0
419.35587,419.4222,66,51,0
419.35587,419.4222,61,51,0
419.62134,419.6877,68,61,0
419.62134,419.6877,65,51,0
419.62134,419.6877,59,51,0
419.62134,419.6877,62,51,0
419.93814,420.4811,80,89,0
419.93814,420.4811,86,89,0
419.93814,420.4811,83,89,0
419.93814,420.4811,92,105,0
419.93814,420.4811,89,89,0
420.4811,421.0376,59,63,0
420.4811,421.0376,62,63,0
420.4811,421.0376,68,75,0
420.4811,421.0376,65,63,0
421.0376,421.10397,71,59,0
421.0376,421.10397,65,50,0
421.0376,421.10397,68,50,0
421.0376,421.10397,62,50,0
421.3031,421.36948,59,51,0
421.3031,421.36948,62,51,0
421.3031,421.36948,68,61,0
421.3031,421.36948,65,51,0
421.56857,421.63495,71,61,0
421.56857,421.63495,68,51,0
421.56857,421.63495,62,51,0
421.56857,421.63495,65,51,0
421.83408,421.90045,70,61,0
421.83408,421.90045,67,51,0
421.83408,421.90045,61,51,0
421.83408,421.90045,64,51,0
422.15433,422.70227,94,105,0
422.15433,422.70227,82,89,0
422.15433,422.70227,85,89,0
422.15433,422.70227,88,89,0
422.70227,423.26248,70,75,0
422.70227,423.26248,61,63,0
422.70227,423.26248,67,63,0
422.70227,423.26248,64,63,0
423.26248,423.32886,64,50,0
423.26248,423.32886,70,50,0
423.26248,423.32886,67,50,0
423.26248,423.32886,73,59,0
423.52795,423.59433,61,51,0
423.52795,423.59433,67,51,0
423.52795,423.59433,64,51,0
423.52795,423.59433,70,61,0
423.79346,423.8598,73,61,0
423.79346,423.8598,67,51,0
423.79346,423.8598,70,51,0
423.79346,423.8598,64,51,0
424.05893,424.1253,66,51,0
424.05893,424.1253,71,61,0
424.05893,424.1253,62,51,0
424.36713,424.9101,90,89,0
424.36713,424.9101,83,89,0
424.36713,424.9101,86,89,0
424.36713,424.9101,95,105,0
424.9101,425.46658,62,63,0
424.9101,425.46658,66,63,0
424.9101,425.46658,71,75,0
425.46658,425.53296,74,59,0
425.46658,425.53296,68,50,0
425.46658,425.53296,65,50,0
425.46658,425.53296,71,50,0
425.7321,425.79846,62,51,0
425.7321,425.79846,68,51,0
425.7321,425.79846,71,61,0
425.7321,425.79846,65,51,0
425.99756,426.06393,65,56,0
425.99756,426.06393,71,56,0
425.99756,426.06393,74,67,0
425.99756,426.06393,68,56,0
426.26306,426.32944,64,58,0
426.26306,426.32944,70,58,0
426.26306,426.32944,73,69,0
426.26306,426.32944,67,58,0
426.53934,426.6057,73,59,0
426.53934,426.6057,70,59,0
426.53934,426.6057,76,69,0
426.53934,426.6057,67,59,0
426.8048,426.8712,73,74,0
426.8048,426.8712,67,62,0
426.8048,426.8712,70,62,0
426.8048,426.8712,64,62,0
427.0703,427.1367,76,77,0
427.0703,427.1367,67,65,0
427.0703,427.1367,73,65,0
427.0703,427.1367,70,65,0
427.3358,427.40216,71,67,0
427.3358,427.40216,74,81,0
427.3358,427.40216,66,67,0
427.60938,427.67517,71,70,0
427.60938,427.67517,78,82,0
427.60938,427.67517,74,70,0
427.60938,427.67517,66,70,0
427.87253,427.93832,66,74,0
427.87253,427.93832,74,89,0
427.87253,427.93832,71,74,0
428.1357,428.20148,66,77,0
428.1357,428.20148,74,77,0
428.1357,428.20148,71,77,0
428.1357,428.20148,78,92,0
428.39886,428.46466,73,80,0
428.39886,428.46466,71,80,0
428.39886,428.46466,68,80,0
428.39886,428.46466,77,97,0
428.6713,428.93445,92,108,0
428.6713,428.93445,80,92,0
428.93445,429.1976,90,96,0
428.93445,429.1976,78,81,0
429.1976,429.46075,75,90,0
429.1976,429.46075,87,106,0
429.46075,429.7332,85,99,0
429.46075,429.7332,73,83,0
429.7332,429.9975,83,106,0
429.7332,429.9975,71,93,0
429.9975,430.2618,82,90,0
429.9975,430.2618,70,75,0
430.2618,430.52612,80,95,0
430.2618,430.52612,68,80,0
430.52612,430.79913,78,89,0
430.52612,430.79913,66,74,0
430.79913,431.06464,63,82,0
430.79913,431.06464,75,97,0
431.06464,431.3301,73,86,0
431.06464,431.3301,61,72,0
431.3301,431.59558,71,90,0
431.3301,431.59558,59,75,0
431.59558,431.86917,70,83,0
431.59558,431.86917,58,70,0
431.86917,432.13467,56,73,0
431.86917,432.13467,68,88,0
432.13467,432.40015,54,63,0
432.13467,432.40015,66,76,0
432.40015,432.66565,51,68,0
432.40015,432.66565,63,81,0
432.66565,432.93924,49,62,0
432.66565,432.93924,61,74,0
432.93924,433.2047,65,77,0
433.2047,433.481,61,67,0
433.481,433.74768,68,73,0
433.74768,434.0232,61,67,0
434.0232,434.28986,73,71,0
434.28986,434.56604,61,59,0
434.56604,434.8327,77,68,0
434.8327,435.11026,61,56,0
435.11026,435.38803,80,62,0
435.38803,435.68567,61,49,0
435.68567,435.99023,85,54,0
435.99023,436.32214,61,45,0
436.32214,436.66306,85,52,0
436.66306,437.09647,61,41,0
437.09647,438.20758,85,48,0
439.22583,439.33893,74,91,0
439.22583,439.33893,83,91,0
439.22583,439.33893,78,91,0
439.22583,439.33893,86,111,0
439.3399,439.56802,83,82,0
439.3399,439.56802,78,82,0
439.3399,439.56802,86,99,0
439.3399,439.56802,74,82,0
439.56802,439.6108,78,84,0
439.56802,439.6108,83,84,0
439.56802,439.6108,88,105,0
439.56802,439.6108,74,84,0
439.6821,439.73517,86,102,0
439.6821,439.73517,78,86,0
439.6821,439.73517,74,86,0
439.6821,439.73517,83,86,0
439.8236,439.95462,74,91,0
439.8236,439.95462,86,111,0
439.8236,439.95462,78,91,0
439.8236,439.95462,83,91,0
440.0856,440.2166,71,84,0
440.0856,440.2166,83,101,0
440.0856,440.2166,74,84,0
440.0856,440.2166,78,84,0
441.13278,441.2583,86,39,0
441.13278,441.2583,78,33,0
441.13278,441.2583,83,33,0
441.13278,441.2583,74,33,0
441.6475,441.77408,74,37,0
441.6475,441.77408,86,45,0
441.6475,441.77408,78,37,0
441.6475,441.77408,83,37,0
442.16272,442.28876,74,42,0
442.16272,442.28876,83,42,0
442.16272,442.28876,86,50,0
442.16272,442.28876,79,42,0
442.68134,442.80737,74,46,0
442.68134,442.80737,86,54,0
442.68134,442.80737,83,46,0
442.68134,442.80737,79,46,0
443.1966,443.32266,86,55,0
443.1966,443.32266,83,46,0
443.1966,443.32266,74,46,0
443.1966,443.32266,79,46,0
443.7152,443.84125,83,51,0
443.7152,443.84125,79,51,0
443.7152,443.84125,74,51,0
443.7152,443.84125,86,60,0
444.23047,444.35654,87,60,0
444.23047,444.35654,84,50,0
444.23047,444.35654,75,50,0
444.23047,444.35654,79,50,0
444.74908,444.87512,84,55,0
444.74908,444.87512,79,55,0
444.74908,444.87512,75,55,0
444.74908,444.87512,87,65,0
445.26434,445.3904,79,55,0
445.26434,445.3904,87,65,0
445.26434,445.3904,84,55,0
445.26434,445.3904,75,55,0
445.78296,445.909,87,71,0
445.78296,445.909,84,60,0
445.78296,445.909,79,60,0
445.78296,445.909,75,60,0
446.29822,446.4243,81,59,0
446.29822,446.4243,75,59,0
446.29822,446.4243,87,70,0
446.29822,446.4243,84,59,0
446.81683,446.94287,87,76,0
446.81683,446.94287,75,64,0
446.81683,446.94287,84,65,0
446.81683,446.94287,81,65,0
447.3321,447.45816,84,63,0
447.3321,447.45816,87,75,0
447.3321,447.45816,75,63,0
447.3321,447.45816,81,63,0
447.8507,447.97678,93,81,0
447.8507,447.97678,81,69,0
447.8507,447.97678,87,69,0
447.8507,447.97678,84,69,0
448.36597,448.49203,93,68,0
448.36597,448.49203,84,68,0
448.36597,448.49203,96,80,0
448.36597,448.49203,87,68,0
448.9089,449.04715,93,74,0
448.9089,449.04715,87,74,0
448.9089,449.04715,96,74,0
448.9089,449.04715,99,87,0
449.20178,449.51108,96,75,0
449.20178,449.51108,87,75,0
449.20178,449.51108,99,88,0
449.20178,449.51108,93,75,0
449.51108,449.6421,87,57,0
449.51108,449.6421,84,57,0
449.6421,449.78098,86,57,0
449.6421,449.78098,83,57,0
449.78098,450.05002,87,63,0
449.78098,450.05002,84,63,0
450.05002,450.18103,72,52,0
450.05002,450.18103,69,52,0
450.18103,450.3232,70,52,0
450.18103,450.3232,73,52,0
450.3232,450.59348,69,58,0
450.3232,450.59348,72,58,0
450.59348,450.72623,75,47,0
450.59348,450.72623,72,47,0
450.72623,450.86908,71,47,0
450.72623,450.86908,74,47,0
450.86908,451.14685,72,56,0
450.86908,451.14685,75,56,0
451.14685,451.28323,81,47,0
451.28323,451.4196,84,47,0
451.4196,451.55292,87,57,0
451.55292,451.68625,89,48,0
451.68625,451.81958,87,49,0
451.81958,451.95847,86,50,0
451.95847,452.0924,87,65,0
452.0924,452.22632,89,57,0
452.22632,452.36026,91,66,0
452.36026,452.50046,87,58,0
452.50046,452.63437,84,69,0
452.63437,452.7683,86,56,0
452.7683,452.90222,87,66,0
452.90222,453.03986,84,54,0
453.03986,453.17377,81,66,0
453.17377,453.3077,82,53,0
453.3077,453.44162,84,61,0
453.44162,453.58182,81,53,0
453.58182,453.71634,75,47,0
453.71634,453.8509,77,47,0
453.8509,453.9854,79,58,0
453.9854,454.12366,75,47,0
454.12366,454.2564,72,47,0
454.2564,454.38913,74,47,0
454.38913,454.52188,75,53,0
454.52188,454.66272,72,47,0
454.66272,454.79605,69,47,0
454.79605,454.92938,70,47,0
454.92938,455.06274,72,52,0
455.06274,455.2029,69,47,0
455.2029,455.46957,60,47,0
455.2029,455.46957,63,47,0
455.2029,455.46957,65,47,0
455.74182,455.87515,86,57,0
455.87515,456.00848,87,48,0
456.00848,456.1418,86,49,0
456.1418,456.2807,84,50,0
456.2807,456.4146,86,65,0
456.4146,456.54855,87,57,0
456.54855,456.6825,89,66,0
456.6825,456.82266,86,58,0
456.82266,456.9566,82,69,0
456.9566,457.0905,84,56,0
457.0905,457.22446,86,66,0
457.22446,457.36206,82,54,0
457.36206,457.496,77,66,0
457.496,457.6299,81,53,0
457.6299,457.76385,82,61,0
457.76385,457.90405,77,53,0
457.90405,458.03857,74,47,0
458.03857,458.1731,75,47,0
458.1731,458.30762,77,58,0
458.30762,458.44586,74,47,0
458.44586,458.5786,70,47,0
458.5786,458.71136,72,47,0
458.71136,458.84412,74,53,0
458.84412,458.98495,70,47,0
458.98495,459.1183,65,47,0
459.1183,459.25162,69,47,0
459.25162,459.38495,70,52,0
459.38495,459.52515,62,47,0
459.52515,459.65848,70,40,0
459.65848,459.7918,72,40,0
459.7918,459.9229,74,45,0
459.92514,460.06403,70,40,0
460.06403,460.3418,69,40,0
460.06403,460.3418,72,46,0
460.06403,460.3418,65,40,0
460.3418,460.47513,91,52,0
460.47513,460.61533,89,47,0
460.61533,460.74866,91,40,0
460.74866,460.882,89,40,0
460.882,461.01532,87,45,0
461.01532,461.1542,91,40,0
461.1542,461.2931,87,52,0
461.2931,461.432,86,42,0
461.432,461.56534,84,49,0
461.56534,461.7055,87,43,0
461.7055,461.83884,84,48,0
461.83884,461.97217,82,40,0
461.97217,462.1055,81,45,0
462.1055,462.24442,84,40,0
462.24442,462.3833,78,52,0
462.3833,462.5222,77,42,0
462.5222,462.65552,75,49,0
462.65552,462.7957,78,43,0
462.7957,462.92905,75,48,0
462.92905,463.06238,74,40,0
463.06238,463.1957,72,45,0
463.1957,463.3346,75,40,0
463.3346,463.47348,72,52,0
463.47348,463.61237,70,42,0
463.61237,463.7457,69,49,0
463.7457,463.8859,72,43,0
463.8859,464.01923,63,48,0
464.01923,464.15256,62,40,0
464.15256,464.2859,60,45,0
464.2859,464.42477,63,40,0
464.42477,464.70255,70,46,0
464.42477,464.70255,65,40,0
464.70255,464.83588,89,52,0
464.83588,464.97607,87,47,0
464.97607,465.1094,89,40,0
465.1094,465.24274,87,40,0
465.24274,465.37607,86,45,0
465.37607,465.51495,89,40,0
465.51495,465.65384,86,52,0
465.65384,465.79276,84,42,0
465.79276,465.9261,82,49,0
465.9261,466.06625,86,43,0
466.06625,466.1996,77,48,0
466.1996,466.33292,75,40,0
466.33292,466.46625,74,45,0
466.46625,466.60516,77,40,0
466.60516,466.74405,82,52,0
466.74405,466.88293,79,42,0
466.88293,467.01627,77,49,0
467.01627,467.15643,82,43,0
467.15643,467.2898,74,48,0
467.2898,467.42313,72,40,0
467.42313,467.55646,70,45,0
467.55646,467.69534,74,40,0
467.69534,467.83423,86,62,0
467.83423,467.9731,84,51,0
467.9731,468.10645,82,61,0
468.10645,468.24664,86,52,0
467.69534,468.24664,74,62,0
468.24664,468.38815,87,52,0
468.38815,468.52966,86,59,0
468.52966,468.6843,87,62,0
468.6843,468.83893,89,65,0
468.24664,468.83893,78,62,0
468.83893,469.14822,89,51,0
468.83893,469.14822,77,51,0
470.34134,470.62708,69,34,0
470.34134,470.62708,72,40,0
470.62708,470.78415,70,32,0
470.62708,470.78415,74,38,0
470.9412,471.08545,94,47,0
471.08545,471.22968,93,44,0
471.22968,471.53894,94,47,0
471.53894,471.8531,79,33,0
471.53894,471.8531,82,33,0
471.53894,471.8531,91,39,0
471.8531,472.18274,77,35,0
471.8531,472.18274,89,42,0
471.8531,472.18274,81,35,0
472.18274,472.53363,76,30,0
472.18274,472.53363,79,30,0
472.18274,472.53363,88,40,0
472.53363,472.8707,82,38,0
472.53363,472.8707,91,45,0
472.53363,472.8707,79,38,0
472.8707,473.1933,89,36,0
472.8707,473.1933,77,30,0
472.8707,473.1933,81,30,0
473.1933,473.51587,89,36,0
473.1933,473.51587,81,30,0
473.51587,473.6608,77,45,0
473.51587,473.6608,70,38,0
473.6608,473.80573,72,34,0
473.6608,473.80573,75,40,0
473.80573,474.12152,74,46,0
474.12152,474.41418,82,51,0
474.41418,474.56964,79,46,0
474.12152,474.56964,70,43,0
474.72507,474.87143,87,51,0
474.72507,474.87143,75,43,0
474.87143,475.01776,84,44,0
474.87143,475.01776,79,37,0
475.01776,475.34207,81,51,0
475.34207,475.6362,89,56,0
475.6362,475.79163,86,53,0
475.34207,475.79163,77,47,0
475.94708,476.09488,82,52,0
476.09488,476.24265,81,45,0
476.24265,476.55515,82,52,0
476.55515,476.87772,91,47,0
476.55515,476.87772,79,37,0
476.87772,477.20032,79,37,0
476.87772,477.20032,75,37,0
476.87772,477.20032,87,51,0
477.20032,477.5202,74,37,0
477.20032,477.5202,81,37,0
477.20032,477.5202,86,44,0
477.5229,477.8244,81,44,0
477.5229,477.8244,74,36,0
477.8244,477.97073,84,50,0
477.97073,478.11465,82,44,0
478.11707,478.41885,82,49,0
477.5229,478.41885,86,44,0
478.41885,478.72406,85,46,0
478.41885,478.72406,91,55,0
478.41885,479.02557,82,46,0
479.02557,479.1719,82,50,0
479.1719,479.31583,80,44,0
479.31827,479.62003,80,49,0
478.72406,479.62003,84,44,0
479.62003,479.92523,83,55,0
479.62003,479.92523,89,55,0
479.62003,480.22675,80,55,0
480.22675,480.3731,80,50,0
480.3731,480.517,79,44,0
480.51944,480.82123,79,49,0
479.92523,480.82123,82,44,0
480.82123,481.12643,82,46,0
480.82123,481.12643,88,55,0
480.82123,481.42792,79,46,0
481.42792,481.57428,79,50,0
481.57428,481.71817,77,44,0
481.7206,482.0224,77,49,0
481.12643,482.0224,81,44,0
482.0224,482.3276,77,46,0
482.0224,482.3276,86,55,0
482.0224,482.3276,80,46,0
482.3276,482.47253,80,55,0
482.3276,482.6218,77,46,0
482.47253,482.77103,79,46,0
482.77103,482.9281,84,48,0
482.6218,482.9281,75,46,0
482.9281,483.07303,78,55,0
482.9281,483.2223,75,46,0
483.07303,483.37155,77,47,0
483.37155,483.52942,82,49,0
483.2223,483.52942,74,46,0
483.52942,483.67795,77,56,0
483.67795,483.8215,89,49,0
483.8215,483.96503,88,50,0
483.96503,484.10858,87,50,0
484.10858,484.2521,84,51,0
484.2521,484.39566,81,52,0
484.39566,484.53918,78,53,0
484.53918,484.68274,77,54,0
484.68274,484.82626,76,55,0
484.82626,484.96982,75,56,0
484.96982,485.11545,72,56,0
485.11545,485.26108,69,57,0
485.26108,485.40887,66,61,0
485.40887,485.55664,65,47,0
485.26108,485.55664,70,51,0
485.55664,485.70444,79,58,0
485.70444,485.86234,77,47,0
485.55664,485.86234,70,49,0
485.86234,486.01382,77,56,0
486.01382,486.15945,89,50,0
486.15945,486.30508,88,51,0
486.30508,486.45074,87,52,0
486.45074,486.59637,84,53,0
486.59637,486.742,81,54,0
486.742,486.88763,78,55,0
486.88763,487.03326,77,57,0
487.03326,487.1796,76,58,0
487.1796,487.32593,75,59,0
487.32593,487.4723,72,60,0
487.4723,487.61862,69,61,0
487.61862,487.76495,66,64,0
487.76495,487.91132,65,47,0
487.61862,487.91132,70,64,0
487.91132,488.06516,79,58,0
488.06516,488.219,77,47,0
487.91132,488.219,70,49,0
488.219,488.37524,77,52,0
488.37524,488.52524,82,54,0
488.37524,488.52524,74,45,0
488.52524,488.67523,86,58,0
488.52524,488.67523,77,49,0
488.67523,488.82526,75,44,0
488.67523,488.82526,84,52,0
488.82526,488.97525,74,58,0
488.97525,489.12524,78,50,0
489.12524,489.27524,79,55,0
489.27524,489.43314,74,50,0
489.43314,489.58093,73,54,0
489.58093,489.7287,78,58,0
489.7287,489.8765,79,58,0
489.8765,490.03113,73,53,0
488.82526,490.03113,82,58,0
490.03113,490.1804,72,56,0
490.1804,490.32965,76,50,0
490.32965,490.47888,77,60,0
490.47888,490.63763,89,54,0
490.63763,490.78613,89,61,0
490.78613,490.9297,101,48,0
490.9297,491.0732,100,49,0
491.0732,491.21677,99,50,0
491.21677,491.3603,96,51,0
491.3603,491.50385,93,51,0
491.50385,491.64737,90,52,0
491.64737,491.79092,89,53,0
491.79092,491.93445,88,55,0
491.93445,492.078,87,60,0
492.078,492.22363,84,64,0
492.22363,492.36926,81,67,0
492.36926,492.51706,78,72,0
492.51706,492.66483,77,51,0
492.36926,492.66483,82,60,0
492.66483,492.81262,91,63,0
492.81262,492.97052,89,51,0
492.66483,492.97052,82,53,0
493.122,493.26767,89,48,0
493.26767,493.4133,88,49,0
493.4133,493.55893,87,50,0
493.55893,493.70456,84,51,0
493.70456,493.8502,81,51,0
493.8502,493.99582,78,52,0
493.99582,494.14145,77,53,0
494.14145,494.28778,76,57,0
494.28778,494.4341,75,59,0
494.4341,494.58047,72,61,0
494.58047,494.7268,69,63,0
494.7268,494.87314,66,67,0
494.87314,495.0195,65,51,0
494.7268,495.0195,70,54,0
495.0195,495.17334,79,63,0
495.17334,495.32718,77,51,0
495.0195,495.32718,70,53,0
495.32718,495.48343,77,56,0
495.48343,495.62906,74,45,0
495.48343,495.62906,82,54,0
495.62906,495.7747,86,58,0
495.62906,495.7747,77,49,0
495.7747,495.92032,75,44,0
495.7747,495.92032,84,52,0
495.92032,496.06595,74,58,0
496.06595,496.21158,78,50,0
496.21158,496.3572,79,55,0
496.3572,496.5151,74,50,0
496.5151,496.65866,73,54,0
496.65866,496.8022,78,58,0
496.8022,496.94574,79,58,0
496.94574,497.10037,73,53,0
495.92032,497.10037,82,58,0
497.10037,497.2453,72,56,0
497.2453,497.39023,77,50,0
497.10037,497.39023,81,54,0
497.39023,497.53516,70,60,0
497.53516,497.69388,75,50,0
497.39023,497.69388,82,54,0
497.69388,497.85013,82,54,0
497.85013,497.99506,79,47,0
497.85013,497.99506,87,57,0
497.99506,498.13998,91,62,0
497.99506,498.13998,82,52,0
498.13998,498.2849,80,47,0
498.13998,498.2849,89,56,0
498.2849,498.43127,79,63,0
498.43127,498.5776,83,55,0
498.5776,498.72394,84,61,0
498.72394,498.88184,79,56,0
498.88184,499.02676,78,61,0
499.02676,499.1717,83,64,0
499.1717,499.31662,84,66,0
499.31662,499.47125,78,62,0
498.2849,499.47125,87,63,0
499.47125,499.61688,77,66,0
499.61688,499.7625,82,59,0
499.47125,499.7625,86,63,0
499.7625,499.90814,75,66,0
499.90814,500.0669,80,60,0
499.7625,500.0669,87,64,0
500.22314,500.36807,84,55,0
500.0669,500.36807,87,63,0
500.36807,500.513,87,60,0
500.513,500.65793,85,55,0
500.36807,500.65793,92,71,0
500.65793,500.80426,85,68,0
500.80426,500.9506,83,63,0
500.9506,501.09695,82,70,0
501.09695,501.25482,83,65,0
501.25482,501.39908,83,70,0
501.39908,501.5433,88,73,0
501.5433,501.68753,89,77,0
501.68753,501.84216,83,71,0
500.65793,501.84216,92,73,0
501.84216,501.9878,82,75,0
501.9878,502.13342,86,68,0
502.13342,502.27905,87,82,0
502.27905,502.4378,82,69,0
502.4378,502.75525,79,83,0
501.84216,502.75525,91,78,0
502.75525,503.04794,82,79,0
502.75525,503.04794,91,93,0
502.75525,503.04794,87,79,0
502.75525,503.04794,79,79,0
503.04794,503.35562,89,88,0
503.04794,503.35562,86,74,0
503.35562,503.50415,87,74,0
503.35562,503.50415,91,86,0
503.50415,503.65265,92,92,0
503.50415,503.65265,89,78,0
503.65265,503.80118,91,81,0
503.65265,503.80118,94,96,0
503.94968,504.0982,87,77,0
503.94968,504.0982,91,91,0
505.13782,505.43048,87,79,0
505.13782,505.43048,91,93,0
505.13782,505.43048,79,79,0
505.13782,505.43048,82,79,0
505.43048,505.7382,86,74,0
505.43048,505.7382,89,88,0
505.7382,505.8867,91,86,0
505.7382,505.8867,87,74,0
505.8867,506.03522,92,92,0
505.8867,506.03522,89,78,0
506.03522,506.18372,94,96,0
506.03522,506.18372,91,81,0
506.33224,506.62927,82,103,0
506.33224,506.62927,79,86,0
506.33224,506.62927,70,86,0
506.33224,506.62927,72,86,0
506.9263,507.22333,82,103,0
506.9263,507.22333,76,86,0
506.9263,507.22333,70,86,0
506.9263,507.22333,79,86,0
507.52036,507.81738,70,86,0
507.52036,507.81738,82,103,0
507.52036,507.81738,74,86,0
507.52036,507.81738,77,86,0
508.1144,508.41144,76,79,0
508.1144,508.41144,72,79,0
508.1144,508.41144,82,94,0
508.1144,508.41144,70,79,0
508.41144,508.97064,77,65,0
508.41144,508.97064,74,65,0
508.41144,508.97064,82,77,0
508.41144,508.97064,70,65,0
508.97064,509.79633,74,54,0
508.97064,509.79633,77,64,0
509.79633,509.93164,74,63,0
510.07156,510.20917,77,56,0
510.20917,510.34677,81,57,0
510.34677,510.4844,82,58,0
510.4844,510.622,86,59,0
510.622,510.7596,88,60,0
510.7596,510.89725,89,61,0
510.89725,511.03485,91,62,0
511.03485,511.17245,89,62,0
511.17245,511.3101,93,63,0
511.3101,511.4477,94,64,0
511.4477,511.5853,96,65,0
511.5853,511.7231,94,66,0
511.7231,511.86316,97,67,0
511.86316,512.0061,98,68,0
512.0061,512.152,99,69,0
512.152,512.3007,98,70,0
512.3007,512.5992,101,71,0
512.5992,512.9469,72,59,0
512.5992,512.9469,75,70,0
513.534,514.10815,86,59,0
512.9469,514.10815,74,58,0
514.10815,514.6907,75,48,0
514.10815,514.6907,87,57,0
514.6907,515.28033,78,51,0
514.6907,515.28033,90,61,0
515.8464,516.4278,74,51,0
515.8464,516.4278,77,57,0
515.28033,516.4278,82,62,0
516.7108,516.99384,90,60,0
516.4278,516.99384,78,59,0
516.99384,517.5753,75,53,0
516.99384,517.5753,87,63,0
517.5753,518.14136,85,66,0
517.5753,518.14136,73,56,0
518.14136,518.72174,74,56,0
518.14136,518.72174,86,59,0
518.72174,519.2851,89,64,0
518.72174,519.2851,77,54,0
519.2851,519.72046,75,53,0
519.2851,519.72046,87,63,0
519.72046,519.8691,84,57,0
519.72046,519.8691,72,48,0
519.8691,519.97766,82,49,0
519.97766,520.08307,84,42,0
520.08307,520.18665,82,49,0
520.18536,520.2858,84,44,0
520.2858,520.38275,82,49,0
520.38275,520.47986,84,44,0
520.47626,520.5723,82,50,0
520.5723,520.6666,84,44,0
520.6666,520.76215,82,50,0
520.761,520.8565,84,46,0
520.8565,520.95087,82,51,0
519.8691,521.0426,77,49,0
519.8691,521.0426,86,58,0
520.95087,521.0461,84,45,0
521.0426,521.1372,82,51,0
521.1372,521.23065,84,44,0
521.23065,521.3249,82,52,0
521.3237,521.4179,84,47,0
521.4179,521.5106,82,52,0
521.0426,521.601,75,56,0
521.0426,521.601,87,67,0
521.5106,521.6045,84,47,0
521.601,521.69543,82,53,0
521.69543,521.7892,84,47,0
521.7892,521.8847,82,54,0
521.88354,521.98,84,48,0
521.98,522.08527,82,54,0
521.601,522.1875,79,62,0
521.601,522.1875,91,73,0
522.08527,522.19104,84,48,0
522.1875,522.28345,82,55,0
522.28345,522.378,84,47,0
522.378,522.47327,82,55,0
522.4721,522.5671,84,50,0
522.5671,522.6605,82,56,0
522.6605,522.7547,84,51,0
522.7512,522.8454,82,56,0
522.8454,522.9386,84,50,0
522.9386,523.03345,82,57,0
523.0322,523.1277,84,51,0
523.1277,523.22974,82,57,0
522.1875,523.3273,94,85,0
523.22974,523.3308,84,51,0
523.3273,523.4232,82,58,0
523.4232,523.51764,84,50,0
523.51764,523.61285,82,59,0
523.6117,523.70654,84,53,0
523.70654,523.7997,82,59,0
523.3273,523.8906,79,61,0
523.3273,523.8906,91,72,0
523.7997,523.8941,84,53,0
523.8906,523.9855,82,60,0
523.9855,524.0795,84,52,0
524.0795,524.17523,82,60,0
524.1741,524.2704,84,55,0
524.2704,524.37244,82,61,0
523.8906,524.4719,87,77,0
523.8906,524.4719,75,65,0
524.37244,524.47546,84,54,0
524.4719,524.56793,82,61,0
524.56793,524.6632,84,53,0
524.4719,524.7572,73,65,0
524.4719,524.7572,85,83,0
524.6632,524.7595,82,62,0
524.75836,524.8543,84,56,0
524.8543,524.9491,82,62,0
524.9491,525.04474,84,56,0
525.0412,525.1367,82,63,0
525.1367,525.2303,84,55,0
524.7572,525.32306,74,65,0
524.7572,525.32306,86,75,0
525.2303,525.32544,82,64,0
525.3242,525.4201,84,57,0
525.4201,525.52167,82,64,0
525.32306,525.6188,89,86,0
525.32306,525.6188,77,74,0
525.52167,525.6223,84,56,0
525.6188,525.7148,81,75,0
525.7148,525.80914,82,66,0
525.80914,525.90436,81,75,0
525.9032,525.99817,82,64,0
525.99817,526.09143,81,75,0
526.09143,526.1852,82,68,0
526.1817,526.27594,81,78,0
525.6188,526.3215,89,86,0
526.27594,526.36945,82,69,0
526.3215,526.46216,87,86,0
526.36945,526.46454,81,75,0
526.46216,526.6038,84,79,0
526.46216,526.6038,79,79,0
526.6038,526.74646,89,79,0
526.6038,526.74646,81,79,0
526.74646,526.88043,89,103,0
526.74646,526.88043,80,87,0
526.74646,526.88043,77,87,0
526.74646,526.88043,86,87,0
527.01434,527.55743,98,79,0
527.01434,527.55743,89,79,0
527.01434,527.55743,92,79,0
527.01434,527.55743,101,93,0
527.55743,527.69763,89,66,0
527.55743,527.69763,99,78,0
527.55743,527.69763,92,66,0
527.55743,527.69763,87,66,0
527.8378,527.9711,92,67,0
527.8378,527.9711,86,67,0
527.8378,527.9711,98,79,0
527.8378,527.9711,89,67,0
528.1045,528.2378,92,70,0
528.1045,528.2378,87,70,0
528.1045,528.2378,89,70,0
528.1045,528.2378,99,83,0
528.37115,528.50446,89,69,0
528.37115,528.50446,101,82,0
528.37115,528.50446,92,69,0
528.6378,528.778,86,58,0
528.6378,528.778,98,69,0
528.6378,528.778,91,58,0
528.6378,528.778,89,58,0
528.91815,529.0509,91,50,0
528.91815,529.0509,99,59,0
528.91815,529.0509,87,50,0
529.18365,529.3164,89,45,0
529.18365,529.3164,86,45,0
529.18365,529.3164,98,53,0
529.18365,529.3164,91,45,0
529.44916,529.5819,91,50,0
529.44916,529.5819,87,50,0
529.44916,529.5819,99,59,0
529.71466,529.8529,96,53,0
529.71466,529.8529,84,45,0
529.71466,529.8529,91,45,0
529.99115,530.1233,91,50,0
529.99115,530.1233,94,59,0
529.99115,530.1233,84,50,0
530.25543,530.38763,94,53,0
530.25543,530.38763,84,45,0
530.25543,530.38763,88,45,0
530.5198,530.6519,93,59,0
530.5198,530.6519,84,50,0
530.5198,530.6519,87,50,0
530.7841,530.9217,87,45,0
530.7841,530.9217,96,53,0
530.7841,530.9217,84,45,0
531.0593,531.18976,94,64,0
531.0593,531.18976,82,55,0
531.0593,531.18976,86,55,0
531.3202,531.4506,89,59,0
531.3202,531.4506,86,50,0
531.3202,531.4506,77,50,0
531.58105,531.7115,87,58,0
531.58105,531.7115,89,58,0
531.58105,531.7115,81,58,0
531.58105,531.7115,93,69,0
531.8419,531.97894,84,55,0
531.8419,531.97894,96,65,0
531.8419,531.97894,89,55,0
531.8419,531.97894,87,55,0
532.1159,532.24634,82,63,0
532.1159,532.24634,94,75,0
532.1159,532.24634,86,63,0
532.3768,532.5072,77,59,0
532.3768,532.5072,86,59,0
532.3768,532.5072,89,69,0
532.63763,532.76807,93,80,0
532.63763,532.76807,81,69,0
532.63763,532.76807,87,69,0
532.63763,532.76807,89,69,0
532.8985,533.03424,84,64,0
532.8985,533.03424,87,64,0
532.8985,533.03424,89,64,0
532.8985,533.03424,96,76,0
533.17,533.2966,82,77,0
533.2966,533.42316,94,70,0
533.42316,533.54974,77,79,0
533.54974,533.67633,89,73,0
533.67633,533.8029,81,82,0
533.8029,533.9295,93,76,0
533.9295,534.0561,84,85,0
534.0561,534.19824,96,79,0
534.19824,534.3259,82,88,0
534.3259,534.45355,94,82,0
534.45355,534.58124,77,91,0
534.58124,534.7089,89,81,0
534.7089,534.83655,69,89,0
534.83655,534.96423,81,81,0
534.96423,535.09186,72,90,0
535.09186,535.2327,84,80,0
535.2327,535.36035,70,88,0
535.36035,535.48804,82,82,0
535.48804,535.6157,65,91,0
535.6157,535.74335,77,81,0
535.74335,535.87103,71,89,0
535.87103,535.99866,83,81,0
535.99866,536.12634,74,90,0
536.12634,536.26715,86,80,0
536.26715,536.39484,72,88,0
536.39484,536.5225,84,82,0
536.5225,536.65015,67,91,0
536.65015,536.77783,79,81,0
536.77783,536.90546,71,89,0
536.90546,537.03314,83,81,0
537.03314,537.16077,74,90,0
537.16077,537.30164,86,80,0
537.30164,537.4293,72,88,0
537.4293,537.55695,84,82,0
537.55695,537.68463,67,91,0
537.68463,537.81226,79,81,0
537.81226,537.93994,72,89,0
537.93994,538.0676,84,81,0
538.0676,538.19525,75,90,0
538.19525,538.3361,87,80,0
538.3361,538.46375,74,88,0
538.46375,538.59143,86,82,0
538.59143,538.71906,69,91,0
538.71906,538.84674,81,80,0
538.84674,538.9744,73,88,0
538.9744,539.10205,85,80,0
539.10205,539.22974,76,88,0
539.22974,539.37054,88,78,0
539.37054,539.4982,74,86,0
539.4982,539.62585,86,79,0
539.62585,539.75354,69,88,0
539.75354,539.8812,81,78,0
539.8812,540.00885,74,85,0
540.00885,540.13654,86,77,0
540.13654,540.26416,77,85,0
540.26416,540.405,89,76,0
540.405,540.5327,75,83,0
540.5327,540.66034,87,77,0
540.66034,540.788,70,85,0
540.788,540.91565,82,76,0
540.91565,541.04333,74,82,0
541.04333,541.17096,86,75,0
541.17096,541.29865,77,83,0
541.29865,541.4395,89,73,0
541.4395,541.56714,75,80,0
541.56714,541.6948,87,75,0
541.6948,541.82245,70,82,0
541.82245,541.95013,82,73,0
541.95013,542.07776,75,80,0
542.07776,542.20544,87,72,0
542.20544,542.3331,78,81,0
542.3331,542.47394,90,71,0
542.47394,542.6016,77,78,0
542.6016,542.72925,89,72,0
542.72925,542.85693,72,80,0
542.85693,542.98456,84,71,0
542.98456,543.11224,75,78,0
543.11224,543.2399,87,70,0
543.2399,543.36755,78,78,0
543.36755,543.5084,90,69,0
543.5084,543.63605,73,75,0
543.63605,543.76373,85,70,0
543.76373,543.8914,69,77,0
543.8914,544.01904,81,68,0
544.01904,544.1467,72,75,0
544.1467,544.27435,84,68,0
544.27435,544.40204,75,75,0
544.40204,544.54285,87,67,0
544.54285,544.67444,66,73,0
544.67444,544.806,78,68,0
544.806,544.9376,65,75,0
544.9376,545.0692,77,66,0
545.0692,545.20074,69,72,0
545.20074,545.33234,81,66,0
545.33234,545.4639,75,72,0
545.4639,545.6261,87,64,0
545.6261,545.76825,71,40,0
545.76825,545.91046,70,34,0
545.91046,546.045,71,40,0
546.045,546.1795,70,35,0
546.1795,546.314,71,40,0
546.314,546.44855,70,35,0
546.44855,546.58307,71,40,0
546.58307,546.71765,70,36,0
545.6261,546.71765,74,58,0
546.71765,546.8578,71,40,0
546.8578,546.998,70,34,0
546.998,547.1382,71,40,0
547.1382,547.2784,70,35,0
546.71765,547.2784,75,48,0
547.2784,547.41473,71,40,0
547.41473,547.5511,70,35,0
547.5511,547.694,71,40,0
547.694,547.8368,70,36,0
547.2784,547.8368,78,51,0
547.8368,547.97076,71,40,0
547.97076,548.1047,70,34,0
548.1047,548.2386,71,40,0
548.2386,548.3725,70,35,0
548.3725,548.5065,71,40,0
548.5065,548.6404,70,35,0
548.6404,548.78125,71,40,0
548.78125,548.92206,70,36,0
547.8368,548.92206,82,60,0
548.92206,549.0566,71,40,0
549.0566,549.1911,70,34,0
549.1911,549.3257,71,40,0
549.3257,549.4602,70,35,0
548.92206,549.4602,78,62,0
549.4602,549.5947,71,40,0
549.5947,549.72925,70,35,0
549.72925,549.8688,70,40,0
549.8688,550.0083,72,36,0
549.4602,550.0083,75,51,0
550.0083,550.1169,70,39,0
550.1169,550.22235,72,33,0
550.22235,550.3259,70,39,0
550.32465,550.42505,72,35,0
550.42505,550.52203,70,39,0
550.52203,550.6191,72,35,0
550.61554,550.71155,70,40,0
550.71155,550.8059,72,35,0
550.8059,550.9014,70,40,0
550.90027,550.9958,72,36,0
550.9958,551.0901,70,40,0
550.0083,551.1818,74,52,0
551.0901,551.18536,72,36,0
551.1818,551.2765,70,40,0
551.2765,551.36993,72,35,0
551.36993,551.4642,70,41,0
551.463,551.5572,72,37,0
551.5572,551.6499,70,41,0
551.6499,551.7438,72,37,0
551.7403,551.8347,70,42,0
551.8347,551.92847,72,37,0
551.1818,552.0216,75,60,0
551.92847,552.024,70,43,0
552.0228,552.1192,72,38,0
552.1192,552.2245,70,43,0
552.0216,552.3267,79,65,0
552.2245,552.33026,72,38,0
552.3267,552.4227,70,44,0
552.4227,552.5172,72,37,0
552.5172,552.61255,70,44,0
552.6114,552.70636,72,40,0
552.70636,552.7998,70,45,0
552.7998,552.894,72,40,0
552.8905,552.9847,70,45,0
552.9847,553.0779,72,40,0
552.3267,553.17035,82,74,0
553.0779,553.17267,70,45,0
553.1715,553.26697,72,40,0
553.26697,553.369,70,45,0
553.17035,553.4665,80,65,0
553.369,553.47003,72,40,0
553.4665,553.5625,70,46,0
553.5625,553.65686,72,40,0
553.4665,553.74976,79,64,0
553.65686,553.7521,70,47,0
553.7509,553.8458,72,42,0
553.8458,553.93896,70,47,0
553.74976,554.02985,77,64,0
553.93896,554.0334,72,42,0
554.02985,554.12476,70,48,0
554.12476,554.2188,72,41,0
554.02985,554.31213,75,69,0
554.2188,554.3145,70,48,0
554.3133,554.40967,72,44,0
554.40967,554.5117,70,48,0
554.31213,554.6112,74,69,0
554.5117,554.61475,72,43,0
554.6112,554.7072,70,43,0
554.7072,554.8024,72,37,0
554.8024,554.8988,70,44,0
554.89764,554.9936,72,39,0
554.9936,555.0884,70,42,0
555.0884,555.184,72,38,0
555.1805,555.276,70,43,0
555.276,555.36957,72,36,0
554.6112,555.4623,75,66,0
555.36957,555.46466,70,42,0
555.4635,555.5594,72,37,0
555.5594,555.6609,70,41,0
555.4623,555.75806,74,63,0
555.6609,555.7616,72,36,0
555.75806,555.85406,70,39,0
555.85406,555.9493,72,33,0
555.75806,556.0433,77,60,0
555.9493,556.04565,70,38,0
556.04443,556.14044,72,34,0
556.14044,556.2352,70,37,0
556.2352,556.3309,72,33,0
556.32733,556.42285,70,37,0
556.42285,556.5164,72,32,0
556.0433,556.60913,75,57,0
556.5164,556.6115,70,37,0
556.61035,556.70624,72,32,0
556.70624,556.80774,70,36,0
556.60913,556.90735,74,55,0
556.80774,556.91125,72,31,0
556.90735,556.9862,74,39,0
556.9862,557.0633,75,33,0
557.0633,557.13995,74,38,0
557.13995,557.21735,75,34,0
557.2161,557.2931,74,37,0
557.2931,557.3684,75,33,0
557.3659,557.442,74,37,0
557.442,557.51636,75,32,0
557.51636,557.5895,74,37,0
557.5895,557.6632,75,32,0
557.662,557.73566,74,36,0
557.73566,557.80817,75,31,0
557.8057,557.8791,74,37,0
557.8877,557.96216,75,32,0
557.9534,558.0288,74,36,0
558.0162,558.0913,72,32,0
556.90735,558.1032,70,50,0
558.1032,558.25385,74,41,0
558.2402,558.38873,75,37,0
558.3761,558.5153,74,41,0
558.5027,558.6419,72,37,0
558.6293,558.7685,70,42,0
558.75586,558.8951,69,37,0
558.88245,559.02167,70,40,0
559.00903,559.1489,72,37,0
559.13617,559.27655,74,41,0
559.2638,559.4037,75,42,0
559.39105,559.5304,77,43,0
559.51776,559.6567,79,44,0
559.64404,559.7824,81,45,0
559.7699,559.90784,82,46,0
559.8953,560.03284,84,47,0
560.0204,560.15735,86,48,0
560.14496,560.28143,87,49,0
560.26904,560.4055,89,46,0
560.39307,560.52966,87,48,0
560.5172,560.65424,86,47,0
560.6418,560.7789,84,46,0
560.76636,560.90375,82,45,0
560.89124,561.0288,81,44,0
561.0163,561.15393,79,43,0
561.1414,561.27954,77,42,0
561.26697,561.40515,75,41,0
561.39264,561.5308,74,40,0
561.51825,561.65656,72,39,0
561.6439,561.78326,70,38,0
561.7705,561.9112,69,37,0
561.8984,562.0417,67,35,0
562.0274,562.1704,65,34,0
562.1704,562.5765,65,31,0
562.1704,562.5765,74,37,0
562.57983,562.71045,74,30,0
562.57983,562.71045,65,25,0
562.71155,562.975,65,33,0
562.71155,562.975,74,39,0
563.1159,563.2569,67,85,0
563.1159,563.2569,65,71,0
563.1159,563.2569,62,71,0
563.2569,563.6575,67,88,0
563.2569,563.6575,63,88,0
563.2569,563.6575,75,105,0
563.6608,563.7909,75,72,0
563.6608,563.7909,67,59,0
563.6608,563.7909,63,59,0
563.792,564.0542,63,79,0
563.792,564.0542,67,79,0
563.792,564.0542,75,94,0
564.1853,564.3256,65,25,0
564.1853,564.3256,67,30,0
564.3256,564.7317,75,37,0
564.3256,564.7317,67,31,0
564.7351,564.8657,67,25,0
564.7351,564.8657,75,30,0
564.8668,565.1302,67,33,0
564.8668,565.1302,75,39,0
565.2712,565.4122,69,85,0
565.2712,565.4122,67,71,0
565.2712,565.4122,64,71,0
565.4122,565.81274,69,88,0
565.4122,565.81274,77,105,0
565.4122,565.81274,65,88,0
565.8161,565.9461,65,59,0
565.8161,565.9461,69,59,0
565.8161,565.9461,77,72,0
565.9472,566.2095,65,79,0
565.9472,566.2095,77,94,0
565.9472,566.2095,69,79,0
566.3406,566.4809,69,30,0
566.3406,566.4809,67,25,0
566.4809,566.88696,69,31,0
566.4809,566.88696,77,37,0
566.8904,567.02094,77,30,0
566.8904,567.02094,69,25,0
567.02203,567.28546,69,33,0
567.02203,567.28546,77,39,0
567.4264,567.5674,70,78,0
567.4264,567.5674,68,65,0
567.4264,567.5674,65,65,0
567.5674,567.96796,79,96,0
567.5674,567.96796,70,80,0
567.5674,567.96796,67,80,0
567.9713,568.1014,70,54,0
567.9713,568.1014,79,66,0
567.9713,568.1014,67,54,0
568.1025,568.3647,67,72,0
568.1025,568.3647,70,72,0
568.1025,568.3647,79,86,0
569.5448,569.6857,75,90,0
569.5448,569.6857,67,74,0
569.6857,570.0863,75,92,0
569.6857,570.0863,69,92,0
569.6857,570.0863,72,92,0
569.6857,570.0863,81,110,0
570.0897,570.2197,81,82,0
570.0897,570.2197,69,67,0
570.0897,570.2197,72,67,0
570.0897,570.2197,75,67,0
570.2208,570.48303,75,90,0
570.2208,570.48303,81,108,0
570.2208,570.48303,72,90,0
570.2208,570.48303,69,90,0
572.0291,572.1399,74,47,0
572.0291,572.1399,86,57,0
572.0291,572.1399,82,47,0
572.0291,572.1399,77,47,0
572.1399,572.306,77,42,0
572.1399,572.306,82,42,0
572.1399,572.306,74,42,0
572.1399,572.306,86,51,0
572.36145,572.4168,87,55,0
572.36145,572.4168,77,45,0
572.36145,572.4168,82,45,0
572.36145,572.4168,74,45,0
572.4722,572.5353,74,47,0
572.4722,572.5353,82,47,0
572.4722,572.5353,86,55,0
572.4722,572.5353,77,47,0
572.5984,572.65845,82,51,0
572.5984,572.65845,86,62,0
572.5984,572.65845,77,51,0
572.5984,572.65845,74,51,0
572.83856,572.8986,82,59,0
572.83856,572.8986,74,49,0
572.83856,572.8986,70,49,0
572.83856,572.8986,77,49,0
573.0759,573.1415,74,92,0
573.0759,573.1415,65,76,0
573.0759,573.1415,70,76,0
573.0759,573.1415,62,76,0
573.33795,573.40344,70,84,0
573.33795,573.40344,62,70,0
573.33795,573.40344,65,70,0
573.33795,573.40344,58,70,0
573.6456,573.9892,89,51,0
573.6456,573.9892,77,42,0
573.6456,573.9892,86,42,0
573.6456,573.9892,82,42,0
573.99207,574.10284,82,47,0
573.99207,574.10284,86,47,0
573.99207,574.10284,77,47,0
573.99207,574.10284,89,57,0
574.10284,574.26904,89,51,0
574.10284,574.26904,82,42,0
574.10284,574.26904,77,42,0
574.10284,574.26904,86,42,0
574.3244,574.3798,82,45,0
574.3244,574.3798,91,55,0
574.3244,574.3798,86,45,0
574.3244,574.3798,77,45,0
574.4352,574.4983,86,47,0
574.4352,574.4983,77,47,0
574.4352,574.4983,89,55,0
574.4352,574.4983,82,47,0
574.56134,574.6214,86,51,0
574.56134,574.6214,89,62,0
574.56134,574.6214,82,51,0
574.56134,574.6214,77,51,0
574.8016,574.8616,86,59,0
574.8016,574.8616,77,49,0
574.8016,574.8616,74,49,0
574.8016,574.8616,82,49,0
575.0367,575.1003,74,76,0
575.0367,575.1003,77,92,0
575.0367,575.1003,70,76,0
575.0367,575.1003,65,76,0
575.29114,575.35474,70,70,0
575.29114,575.35474,74,84,0
575.29114,575.35474,65,70,0
575.29114,575.35474,62,70,0
575.56274,575.62274,86,45,0
575.56274,575.62274,89,55,0
575.8029,575.863,82,44,0
575.8029,575.863,86,53,0
576.04706,576.1115,74,74,0
576.04706,576.1115,77,90,0
576.3048,576.36926,70,63,0
576.3048,576.36926,74,75,0
576.5714,576.6315,82,45,0
576.5714,576.6315,86,55,0
576.8116,576.87164,77,44,0
576.8116,576.87164,82,53,0
577.0563,577.121,70,74,0
577.0563,577.121,74,90,0
577.3151,577.3798,65,63,0
577.3151,577.3798,70,75,0
577.58167,577.6417,77,45,0
577.58167,577.6417,82,55,0
577.82184,577.8819,74,44,0
577.82184,577.8819,77,53,0
578.06866,578.13336,65,74,0
578.06866,578.13336,70,90,0
578.3275,578.3922,65,75,0
578.3275,578.3922,62,63,0
578.594,579.56323,75,52,0
578.594,579.56323,69,42,0
579.56323,579.6233,77,55,0
579.56323,579.6233,74,45,0
579.80347,579.86346,74,53,0
579.80347,579.86346,70,44,0
580.06,580.12286,65,75,0
580.06,580.12286,62,61,0
580.3113,580.3741,62,68,0
580.3113,580.3741,58,57,0
580.57404,580.6341,74,62,0
580.57404,580.6341,70,51,0
580.8142,580.87427,70,59,0
580.8142,580.87427,65,49,0
581.0615,581.1241,58,65,0
581.0615,581.1241,62,79,0
581.31177,581.3743,53,60,0
581.31177,581.3743,58,72,0
581.574,581.63403,70,62,0
581.574,581.63403,65,51,0
581.81415,581.8742,65,59,0
581.81415,581.8742,62,49,0
582.0683,582.1311,58,79,0
582.0683,582.1311,53,65,0
582.3196,582.3824,53,72,0
582.3196,582.3824,50,60,0
582.5823,583.5515,63,52,0
582.5823,583.5515,57,42,0
583.902,583.9574,63,42,0
583.902,583.9574,66,51,0
583.902,583.9574,57,42,0
584.01276,584.0682,57,37,0
584.01276,584.0682,63,37,0
584.01276,584.0682,66,45,0
584.2343,584.28973,62,40,0
584.2343,584.28973,65,49,0
584.2343,584.28973,58,40,0
584.81903,584.87445,63,49,0
584.81903,584.87445,54,41,0
584.81903,584.87445,60,41,0
584.81903,584.87445,57,41,0
584.9298,584.9852,63,43,0
584.9298,584.9852,54,35,0
584.9298,584.9852,57,35,0
584.9298,584.9852,60,35,0
585.15137,585.2068,62,46,0
585.15137,585.2068,58,38,0
585.15137,585.2068,53,38,0
585.7361,585.7915,60,38,0
585.7361,585.7915,63,46,0
585.7361,585.7915,54,38,0
585.7361,585.7915,57,38,0
585.84686,585.9023,54,33,0
585.84686,585.9023,60,33,0
585.84686,585.9023,57,33,0
585.84686,585.9023,63,40,0
586.0684,586.12384,58,35,0
586.0684,586.12384,53,35,0
586.0684,586.12384,62,43,0
586.65314,586.7085,60,43,0
586.65314,586.7085,51,35,0
586.65314,586.7085,58,35,0
586.65314,586.7085,54,35,0
586.7639,586.81934,60,37,0
586.7639,586.81934,51,31,0
586.7639,586.81934,54,31,0
586.7639,586.81934,58,31,0
586.9855,587.0409,53,32,0
586.9855,587.0409,50,32,0
586.9855,587.0409,58,40,0
587.5702,587.62555,62,40,0
587.5702,587.62555,50,33,0
587.5702,587.62555,53,33,0
587.5702,587.62555,58,33,0
587.68097,587.7363,62,36,0
587.68097,587.7363,53,29,0
587.68097,587.7363,50,29,0
587.68097,587.7363,58,29,0
587.9025,587.95795,58,39,0
587.9025,587.95795,50,32,0
587.9025,587.95795,53,32,0
588.3713,588.598,50,26,0
588.3713,588.598,53,26,0
588.3713,588.598,62,32,0
588.3713,588.598,58,26,0
589.627,590.06244,94,119,0
589.627,590.06244,89,100,0
589.627,590.06244,86,100,0
589.627,590.06244,82,100,0
590.4978,592.2395,58,100,0
590.4978,592.2395,70,119,0
0.7608703,0.88135225,34,96,0
0.88135225,1.2235577,58,78,0
0.88135225,1.2235577,53,78,0
0.88135225,1.2235577,62,93,0
1.2235577,1.3376262,58,69,0
1.2235577,1.3376262,62,84,0
1.2235577,1.3376262,53,69,0
1.3376262,1.508729,53,78,0
1.3376262,1.508729,58,78,0
1.3376262,1.508729,62,93,0
1.5657632,1.608539,53,75,0
1.5657632,1.608539,58,75,0
1.5657632,1.608539,62,88,0
1.6798317,1.7328978,53,78,0
1.6798317,1.7328978,62,93,0
1.6798317,1.7328978,58,78,0
1.8213413,1.9523455,58,78,0
1.8213413,1.9523455,53,78,0
1.8213413,1.9523455,62,93,0
2.0833497,2.214354,58,93,0
2.0833497,2.214354,50,78,0
2.0833497,2.214354,53,78,0
2.738371,2.86082,34,96,0
2.86082,3.209657,65,93,0
2.86082,3.209657,58,78,0
2.86082,3.209657,53,78,0
2.86082,3.209657,62,78,0
3.209657,3.325936,65,84,0
3.209657,3.325936,58,69,0
3.209657,3.325936,53,69,0
3.209657,3.325936,62,69,0
3.325936,3.5003545,53,78,0
3.325936,3.5003545,58,78,0
3.325936,3.5003545,65,93,0
3.325936,3.5003545,62,78,0
3.558494,3.6020987,53,75,0
3.558494,3.6020987,62,75,0
3.558494,3.6020987,58,75,0
3.558494,3.6020987,65,88,0
3.674773,3.7288594,53,78,0
3.674773,3.7288594,62,78,0
3.674773,3.7288594,58,78,0
3.674773,3.7288594,65,93,0
3.8190038,3.9511623,62,78,0
3.8190038,3.9511623,58,78,0
3.8190038,3.9511623,65,93,0
3.8190038,3.9511623,53,78,0
4.0833206,4.2154794,53,78,0
4.0833206,4.2154794,62,93,0
4.0833206,4.2154794,58,78,0
5.159291,5.419031,64,29,0
5.419031,5.678772,65,29,0
5.678772,5.9385123,59,40,0
5.9385123,6.20167,60,40,0
6.20167,6.4833603,54,36,0
6.4833603,6.7488465,55,36,0
6.7488465,7.0305367,51,40,0
7.0305367,7.2983937,50,40,0
7.2983937,7.5615516,49,35,0
7.5615516,7.846192,48,35,0
7.846192,8.130552,41,40,0
8.130552,8.449927,46,38,0
8.449927,8.791078,39,30,0
8.791078,9.152524,41,27,0
9.69986,9.9596,76,29,0
9.9596,10.21934,77,29,0
10.21934,10.479081,71,40,0
10.479081,10.742239,72,40,0
10.742239,11.02393,66,36,0
11.02393,11.289415,67,36,0
11.289415,11.571106,63,40,0
11.571106,11.838963,62,40,0
11.838963,12.10212,61,35,0
12.10212,12.386761,60,35,0
12.386761,12.671121,53,40,0
12.671121,12.955761,58,36,0
12.955761,13.240121,54,43,0
13.240121,13.51535,53,44,0
13.51535,13.79058,51,45,0
13.79058,14.062074,50,46,0
14.062074,14.34136,49,47,0
14.34136,14.610419,48,48,0
14.610419,14.892732,41,50,0
14.892732,15.16179,46,50,0
15.16179,15.443378,42,52,0
15.443378,15.713649,41,53,0
15.713649,15.999537,39,54,0
15.999537,16.27103,38,55,0
16.27103,16.557531,37,56,0
16.557531,16.835308,36,57,0
16.835308,17.122713,30,58,0
17.122713,17.404402,31,67,0
17.404402,17.695248,39,61,0
17.695248,17.846,41,70,0
17.996756,18.147509,41,66,0
17.996756,18.147509,29,66,0
18.298262,18.43401,34,57,0
18.298262,18.43401,46,68,0
18.43401,18.569756,62,56,0
18.43401,18.569756,58,47,0
18.43401,18.569756,53,47,0
18.569756,18.705502,53,47,0
18.569756,18.705502,58,47,0
18.569756,18.705502,62,56,0
18.705502,18.841248,58,47,0
18.705502,18.841248,62,56,0
18.705502,18.841248,53,47,0
18.976995,19.112741,58,45,0
18.976995,19.112741,53,45,0
18.976995,19.112741,62,53,0
19.112741,19.248487,62,54,0
19.112741,19.248487,53,45,0
19.112741,19.248487,58,45,0
19.248487,19.397741,62,54,0
19.248487,19.397741,53,45,0
19.248487,19.397741,58,45,0
19.530485,19.596857,62,44,0
19.530485,19.596857,58,37,0
19.530485,19.596857,53,37,0
19.79597,19.862343,50,37,0
19.79597,19.862343,58,44,0
20.061459,20.12783,62,44,0
20.061459,20.12783,58,37,0
20.061459,20.12783,53,37,0
20.326944,20.412172,58,37,0
20.326944,20.412172,51,37,0
20.326944,20.412172,60,44,0
20.497398,20.633146,34,65,0
20.497398,20.633146,46,78,0
20.633146,20.768892,55,54,0
20.633146,20.768892,63,64,0
20.633146,20.768892,58,54,0
20.768892,20.904638,58,54,0
20.768892,20.904638,55,54,0
20.768892,20.904638,63,64,0
20.904638,21.040384,55,54,0
20.904638,21.040384,58,54,0
20.904638,21.040384,63,64,0
21.176132,21.311878,51,45,0
21.176132,21.311878,60,53,0
21.176132,21.311878,58,45,0
21.311878,21.447624,51,45,0
21.311878,21.447624,60,54,0
21.311878,21.447624,58,45,0
21.447624,21.596878,51,45,0
21.447624,21.596878,58,45,0
21.447624,21.596878,60,54,0
21.729622,21.795994,55,37,0
21.729622,21.795994,63,44,0
21.729622,21.795994,58,37,0
21.995108,22.06148,61,44,0
21.995108,22.06148,58,37,0
21.995108,22.06148,52,37,0
22.25772,22.322657,58,37,0
22.25772,22.322657,63,44,0
22.25772,22.322657,54,37,0
22.517462,22.597675,58,37,0
22.517462,22.597675,53,37,0
22.517462,22.597675,62,44,0
22.677889,22.813637,34,62,0
22.677889,22.813637,46,74,0
22.813637,22.949383,65,61,0
22.813637,22.949383,56,51,0
22.813637,22.949383,58,51,0
22.949383,23.085129,58,51,0
22.949383,23.085129,56,51,0
22.949383,23.085129,65,61,0
23.085129,23.220877,58,51,0
23.085129,23.220877,56,51,0
23.085129,23.220877,65,61,0
23.356623,23.492369,62,53,0
23.356623,23.492369,53,45,0
23.356623,23.492369,58,45,0
23.492369,23.628115,53,45,0
23.492369,23.628115,58,45,0
23.492369,23.628115,62,54,0
23.628115,23.777369,53,45,0
23.628115,23.777369,62,54,0
23.628115,23.777369,58,45,0
23.910112,23.976484,56,37,0
23.910112,23.976484,65,44,0
23.910112,23.976484,58,37,0
24.175598,24.24197,62,44,0
24.175598,24.24197,54,37,0
24.175598,24.24197,58,37,0
24.437653,24.502308,56,37,0
24.437653,24.502308,65,44,0
24.437653,24.502308,58,37,0
24.696272,24.776487,55,37,0
24.696272,24.776487,63,44,0
24.696272,24.776487,58,37,0
24.8567,24.992447,34,62,0
24.8567,24.992447,46,74,0
24.992447,25.128193,58,51,0
24.992447,25.128193,67,61,0
24.992447,25.128193,63,51,0
25.128193,25.26394,63,51,0
25.128193,25.26394,58,51,0
25.128193,25.26394,67,61,0
25.26394,25.399687,63,51,0
25.26394,25.399687,58,51,0
25.26394,25.399687,67,61,0
25.535433,25.671179,55,45,0
25.535433,25.671179,63,53,0
25.535433,25.671179,58,45,0
25.671179,25.806927,55,45,0
25.671179,25.806927,58,45,0
25.671179,25.806927,63,54,0
25.806927,25.95618,55,45,0
25.806927,25.95618,63,54,0
25.806927,25.95618,58,45,0
26.088923,26.155294,63,33,0
26.088923,26.155294,67,39,0
26.088923,26.155294,58,33,0
26.35441,26.42078,61,33,0
26.35441,26.42078,58,33,0
26.35441,26.42078,64,39,0
26.618732,26.68452,66,44,0
26.618732,26.68452,58,36,0
26.618732,26.68452,63,36,0
26.88189,26.953661,65,45,0
26.88189,26.953661,58,37,0
26.88189,26.953661,62,37,0
27.158175,27.224545,68,46,0
27.158175,27.224545,65,39,0
27.158175,27.224545,58,39,0
27.42366,27.490032,62,40,0
27.42366,27.490032,66,48,0
27.42366,27.490032,58,40,0
27.686838,27.752056,58,42,0
27.686838,27.752056,65,42,0
27.686838,27.752056,68,50,0
27.947708,28.01813,63,43,0
27.947708,28.01813,67,52,0
27.947708,28.01813,58,43,0
28.22013,28.285921,58,45,0
28.22013,28.285921,60,45,0
28.22013,28.285921,67,53,0
28.22013,28.285921,63,45,0
28.48329,28.54908,60,45,0
28.48329,28.54908,68,54,0
28.48329,28.54908,58,45,0
28.48329,28.54908,63,45,0
28.746449,28.812237,63,47,0
28.746449,28.812237,70,56,0
28.746449,28.812237,58,47,0
28.746449,28.812237,60,47,0
29.009605,29.080029,69,58,0
29.009605,29.080029,60,48,0
29.009605,29.080029,63,48,0
29.009605,29.080029,58,48,0
29.28203,29.347818,60,56,0
29.28203,29.347818,72,66,0
29.545187,29.610977,58,56,0
29.545187,29.610977,70,66,0
29.808346,29.874136,67,66,0
29.808346,29.874136,55,56,0
30.071505,30.141926,53,56,0
30.071505,30.141926,65,66,0
30.343353,30.408855,63,59,0
30.343353,30.408855,51,50,0
30.605362,30.670864,50,50,0
30.605362,30.670864,62,59,0
30.86737,30.932873,60,59,0
30.86737,30.932873,48,50,0
31.12938,31.1998,46,50,0
31.12938,31.1998,58,59,0
31.401802,31.467592,43,50,0
31.401802,31.467592,55,59,0
31.66496,31.73075,53,59,0
31.66496,31.73075,41,50,0
31.928118,31.993908,51,56,0
31.928118,31.993908,39,47,0
32.191277,32.2617,38,47,0
32.191277,32.2617,50,56,0
32.464867,32.531235,36,45,0
32.464867,32.531235,48,53,0
32.73035,32.796722,46,53,0
32.73035,32.796722,34,45,0
32.99584,33.06221,43,53,0
32.99584,33.06221,31,45,0
33.261326,33.331745,41,53,0
33.261326,33.331745,29,45,0
33.534912,33.667656,33,42,0
33.8004,33.94394,29,28,0
34.077274,34.210606,36,39,0
34.34394,34.48612,29,27,0
34.619453,34.752785,41,37,0
34.88612,35.028976,29,26,0
35.16231,35.295643,45,34,0
35.428978,35.573208,29,24,0
35.712097,35.850986,48,32,0
35.989876,36.148605,29,23,0
36.300888,36.453175,53,29,0
36.605457,36.7851,29,24,0
36.95555,37.126007,53,28,0
37.313507,37.55941,29,21,0
38.114964,38.67052,53,21,0
38.779217,38.899696,34,77,0
38.899696,39.2419,58,68,0
38.899696,39.2419,53,68,0
38.899696,39.2419,62,81,0
39.2419,39.355972,53,61,0
39.2419,39.355972,58,61,0
39.2419,39.355972,62,73,0
39.355972,39.584106,62,81,0
39.355972,39.584106,58,68,0
39.355972,39.584106,53,68,0
39.584106,39.626884,58,66,0
39.584106,39.626884,62,77,0
39.584106,39.626884,53,66,0
39.698177,39.751244,58,68,0
39.698177,39.751244,62,81,0
39.698177,39.751244,53,68,0
39.839687,39.97069,58,68,0
39.839687,39.97069,62,81,0
39.839687,39.97069,53,68,0
40.101696,40.2327,53,68,0
40.101696,40.2327,58,81,0
40.101696,40.2327,50,68,0
40.756718,40.879166,34,84,0
40.879166,41.228,53,68,0
40.879166,41.228,62,81,0
40.879166,41.228,50,68,0
40.879166,41.228,58,68,0
41.228,41.34428,62,73,0
41.228,41.34428,58,61,0
41.228,41.34428,50,61,0
41.228,41.34428,53,61,0
41.34428,41.57684,50,81,0
41.34428,41.57684,62,97,0
41.57684,41.620445,54,66,0
41.57684,41.620445,57,66,0
41.57684,41.620445,62,77,0
41.57684,41.620445,50,66,0
41.69312,41.747204,50,68,0
41.69312,41.747204,62,81,0
41.69312,41.747204,54,68,0
41.69312,41.747204,57,68,0
41.83735,41.96951,50,68,0
41.83735,41.96951,57,68,0
41.83735,41.96951,54,68,0
41.83735,41.96951,62,81,0
42.101665,42.233826,62,81,0
42.101665,42.233826,57,68,0
42.101665,42.233826,50,68,0
42.101665,42.233826,54,68,0
42.76246,42.894615,50,39,0
42.894615,43.280117,62,45,0
43.280117,43.411697,50,40,0
43.411697,43.79591,62,47,0
43.79591,43.92749,50,42,0
43.92749,44.310593,62,49,0
44.310593,44.443336,50,41,0
44.443336,44.829205,62,52,0
44.829205,44.961365,50,44,0
44.961365,45.349476,60,55,0
44.961365,45.349476,57,55,0
45.349476,45.484005,50,46,0
45.484005,45.877884,57,58,0
45.484005,45.877884,60,58,0
45.877884,46.016132,50,50,0
46.016132,46.409954,54,60,0
46.016132,46.409954,57,60,0
46.409954,46.54694,50,52,0
46.54694,46.947346,45,63,0
46.947346,47.087532,50,52,0
47.087532,47.491535,45,65,0
47.491535,47.63172,50,57,0
47.63172,48.040966,43,68,0
48.040966,48.182476,50,57,0
48.182476,48.600315,42,71,0
48.600315,48.743176,50,59,0
48.743176,49.165466,39,73,0
49.165466,49.30372,50,67,0
49.30372,49.580215,50,73,0
49.30372,49.580215,38,67,0
49.580215,49.71122,75,48,0
49.71122,49.85011,74,48,0
49.85011,50.119167,75,54,0
50.119167,50.25017,74,44,0
50.25017,50.39235,73,44,0
50.39235,50.66262,74,44,0
50.66262,50.795364,63,43,0
50.795364,50.93822,62,43,0
50.93822,51.216,63,51,0
51.216,51.352364,62,43,0
51.352364,51.488728,61,43,0
51.488728,51.755394,62,51,0
51.888725,52.027615,50,42,0
52.027615,52.29547,54,51,0
52.4294,52.569588,57,40,0
52.569588,52.837444,60,51,0
52.971375,53.10899,66,43,0
53.10899,53.376846,69,51,0
53.376846,53.510773,72,45,0
53.510773,53.65096,69,45,0
53.65096,53.78549,81,40,0
53.78549,53.92002,83,40,0
53.92002,54.05455,84,44,0
54.05455,54.1928,81,40,0
54.1928,54.32554,72,40,0
54.32554,54.458282,74,40,0
54.458282,54.591026,76,45,0
54.591026,54.731873,72,40,0
54.731873,54.865204,69,40,0
54.865204,54.99854,71,40,0
54.99854,55.13187,72,45,0
55.13187,55.269722,69,40,0
55.27206,55.40539,66,40,0
55.40539,55.538727,67,40,0
55.538727,55.67206,69,45,0
55.67206,55.810947,66,40,0
55.810947,56.077614,67,48,0
55.810947,56.077614,62,48,0
55.810947,56.077614,71,51,0
56.21095,56.349834,50,42,0
56.349834,56.617695,55,51,0
56.75162,56.891808,59,40,0
56.891808,57.159664,62,51,0
57.293594,57.43121,67,43,0
57.43121,57.699066,71,51,0
57.832996,57.973183,74,45,0
57.973183,58.10771,79,40,0
58.10771,58.24224,81,40,0
58.24224,58.37677,83,44,0
58.37677,58.512714,79,40,0
58.51502,58.647762,71,40,0
58.647762,58.780506,72,40,0
58.780506,58.913246,74,45,0
58.913246,59.054092,71,40,0
59.054092,59.187428,67,40,0
59.187428,59.32076,69,40,0
59.32076,59.45187,71,45,0
59.454094,59.59194,67,40,0
59.59428,59.72761,71,40,0
59.72761,59.860947,72,40,0
59.860947,59.994278,74,45,0
59.994278,60.133167,71,40,0
60.133167,60.272057,72,40,0
60.272057,60.410946,74,40,0
60.410946,60.54428,72,45,0
60.54428,60.684467,71,40,0
60.684467,60.8178,72,40,0
60.8178,60.951134,74,40,0
60.951134,61.084465,76,45,0
61.084465,61.223354,72,40,0
61.223354,61.362244,69,46,0
61.362244,61.501133,71,38,0
61.501133,61.634468,72,45,0
61.634468,61.774654,69,40,0
61.774654,61.907986,66,45,0
61.907986,62.04132,67,36,0
62.04132,62.174652,69,41,0
62.174652,62.31354,66,36,0
62.31354,62.45243,60,46,0
62.45243,62.59132,62,38,0
62.59132,62.724655,64,45,0
62.724655,62.86484,60,40,0
62.86484,62.998173,57,45,0
62.998173,63.131508,59,36,0
63.131508,63.26484,60,41,0
63.26484,63.40373,57,36,0
63.40373,63.542618,54,46,0
63.542618,63.681507,55,38,0
63.681507,63.814842,57,45,0
63.814842,63.95503,54,40,0
63.95503,64.08836,69,45,0
64.08836,64.221695,67,36,0
64.221695,64.35503,66,41,0
64.35503,64.49392,69,36,0
64.49392,64.632805,71,40,0
64.632805,64.7717,72,40,0
64.7717,64.90503,71,45,0
64.90503,65.04521,69,40,0
65.04521,65.17855,71,40,0
65.17855,65.31188,72,40,0
65.31188,65.44521,74,45,0
65.44521,65.58411,71,40,0
65.58411,65.72299,67,46,0
65.72299,65.86188,69,38,0
65.86188,65.99522,71,45,0
65.99522,66.1354,67,40,0
66.1354,66.26874,62,45,0
66.26874,66.40207,66,36,0
66.40207,66.5354,67,41,0
66.5354,66.67429,62,36,0
66.67429,66.81318,59,46,0
66.81318,66.952065,60,38,0
66.952065,67.0854,62,45,0
67.0854,67.225586,59,40,0
67.225586,67.358925,55,45,0
67.358925,67.492256,57,36,0
67.492256,67.62559,59,41,0
67.62559,67.76448,55,36,0
67.76448,67.903366,50,46,0
67.903366,68.04225,54,38,0
68.04225,68.17559,55,45,0
68.17559,68.31577,50,40,0
68.31577,68.45728,48,45,0
68.45728,68.59879,55,36,0
68.59879,68.75343,50,41,0
68.75343,68.90807,48,36,0
68.90807,69.217354,47,36,0
69.217354,69.520386,55,40,0
69.217354,69.520386,43,34,0
69.520386,69.6719,48,30,0
69.520386,69.6719,52,36,0
69.82341,69.96695,60,40,0
69.96695,70.1105,57,36,0
70.1105,70.41049,54,36,0
70.41049,70.696205,62,36,0
70.41049,70.696205,50,31,0
70.696205,70.85328,55,30,0
70.696205,70.85328,59,36,0
71.010345,71.608086,55,30,0
71.010345,71.608086,64,36,0
71.608086,71.92222,64,36,0
71.608086,71.92222,55,30,0
71.92222,72.25189,57,34,0
71.92222,72.25189,66,40,0
72.25189,72.42733,67,30,0
72.42733,72.60277,69,36,0
72.25189,72.60277,57,25,0
72.60277,72.93985,69,36,0
72.93985,73.181786,71,36,0
73.181786,73.26243,73,31,0
73.26243,73.58501,74,36,0
72.60277,73.58501,62,30,0
73.58501,73.729935,76,37,0
73.729935,73.87486,78,36,0
73.87486,74.19065,79,36,0
74.19065,74.48334,71,30,0
74.19065,74.48334,74,36,0
74.48334,74.63878,76,36,0
74.48334,74.63878,72,30,0
74.79421,74.94056,69,36,0
74.94056,75.0869,72,32,0
75.0869,75.411224,74,36,0
75.411224,75.70534,69,36,0
75.411224,75.70534,66,30,0
75.70534,75.86078,71,36,0
75.70534,75.86078,67,33,0
76.31179,76.62429,71,36,0
76.31179,76.62429,64,30,0
76.31179,76.62429,67,30,0
76.62429,76.94687,64,30,0
76.62429,76.94687,67,30,0
76.62429,76.94687,72,36,0
76.94687,77.10816,67,36,0
77.10816,77.26945,69,30,0
76.94687,77.26945,72,36,0
76.94687,77.26945,64,30,0
77.26945,77.59203,71,36,0
77.26945,77.59203,63,30,0
77.26945,77.59203,66,30,0
77.59203,77.89354,63,30,0
77.59203,77.89354,66,30,0
77.59203,77.89354,71,36,0
77.89354,78.18622,59,26,0
77.89354,78.18622,63,31,0
78.18622,78.488,67,36,0
78.18622,78.488,64,30,0
78.488,78.63364,65,40,0
78.488,78.63364,62,34,0
78.63364,78.793205,61,30,0
78.63364,78.793205,64,36,0
78.793205,79.09472,64,36,0
78.793205,79.09472,61,30,0
79.09472,79.3874,61,31,0
79.09472,79.3874,57,26,0
79.3874,79.68918,65,36,0
79.3874,79.68918,62,30,0
79.68918,79.83481,60,34,0
79.68918,79.83481,63,40,0
79.83481,79.99306,59,30,0
79.83481,79.99306,62,36,0
79.994385,80.29589,62,36,0
79.994385,80.29589,59,30,0
80.29589,80.58858,55,26,0
80.29589,80.58858,59,31,0
80.58858,80.89036,64,36,0
80.58858,80.89036,60,30,0
80.89036,81.03599,59,34,0
80.89036,81.03599,63,40,0
81.03599,81.19424,61,36,0
81.03599,81.19424,58,30,0
81.195564,81.49707,61,36,0
81.195564,81.49707,58,30,0
81.49707,81.78976,54,26,0
81.49707,81.78976,58,31,0
81.78976,82.09154,59,30,0
81.78976,82.09154,62,36,0
82.09154,82.23717,57,34,0
82.09154,82.23717,61,40,0
82.23717,82.39674,56,30,0
82.23717,82.39674,59,36,0
82.39674,82.690926,56,30,0
82.39674,82.690926,59,36,0
82.690926,82.84018,57,36,0
82.84018,82.997246,55,30,0
82.690926,82.997246,64,30,0
82.997246,83.29143,57,36,0
82.997246,83.29143,54,30,0
83.29143,83.44068,55,36,0
83.44068,83.59857,47,32,0
83.29143,83.59857,59,30,0
83.59857,85.330215,45,25,0
83.59857,85.330215,60,30,0
83.59857,85.330215,50,25,0
85.330215,85.931465,50,25,0
85.330215,85.931465,47,25,0
85.330215,85.931465,59,30,0
85.931465,87.68776,50,25,0
85.931465,87.68776,60,30,0
85.931465,87.68776,45,25,0
87.68776,88.28814,59,30,0
87.68776,88.28814,50,25,0
87.68776,88.28814,47,25,0
88.28814,88.89439,35,25,0
88.28814,88.89439,47,30,0
88.89439,89.50228,52,28,0
88.89439,89.50228,40,23,0
89.50228,90.10027,37,25,0
89.50228,90.10027,49,30,0
90.10027,90.39878,38,24,0
90.10027,90.39878,50,29,0
90.706764,92.43841,62,25,0
90.706764,92.43841,72,30,0
90.706764,92.43841,57,25,0
92.43841,93.03965,62,25,0
92.43841,93.03965,59,25,0
92.43841,93.03965,71,30,0
93.03965,94.795944,50,25,0
93.03965,94.795944,45,25,0
93.03965,94.795944,60,30,0
94.795944,95.08863,50,25,0
94.795944,95.08863,59,30,0
94.795944,95.08863,47,25,0
95.08863,95.396324,59,30,0
95.396324,95.98946,59,30,0
95.98946,96.58425,64,28,0
96.58425,97.16952,61,30,0
97.16952,97.45937,62,29,0
97.45937,97.76303,63,29,0
97.76303,98.35406,64,31,0
98.35406,98.95098,69,30,0
98.95098,99.540405,66,33,0
99.540405,99.831665,67,34,0
99.831665,100.136024,68,34,0
100.136024,100.72706,69,36,0
100.72706,101.323975,73,35,0
101.323975,101.91131,71,39,0
101.91131,102.824394,72,39,0
101.91131,102.824394,60,39,0
102.824394,103.11707,48,66,0
102.824394,103.11707,36,56,0
104.01883,104.16734,60,69,0
104.01883,104.16734,64,82,0
104.31586,104.612885,62,79,0
104.31586,104.612885,59,67,0
104.612885,104.7614,64,81,0
104.612885,104.7614,60,68,0
104.7614,104.90991,62,71,0
104.7614,104.90991,65,84,0
104.90991,105.05843,64,74,0
104.90991,105.05843,67,88,0
105.20695,105.499626,36,56,0
105.20695,105.499626,48,66,0
106.40138,106.69841,49,74,0
106.40138,106.69841,37,62,0
106.99544,107.292465,33,67,0
106.99544,107.292465,45,79,0
107.5895,107.88653,38,62,0
107.5895,107.88653,50,74,0
108.183556,108.48058,40,67,0
108.183556,108.48058,52,79,0
108.48058,108.62693,38,50,0
108.62693,108.76454,42,50,0
108.76454,108.90215,43,50,0
108.90215,109.03977,47,50,0
109.03977,109.17738,50,50,0
109.17738,109.315,54,50,0
109.315,109.452614,55,50,0
109.452614,109.59023,59,50,0
109.59023,109.727844,62,50,0
109.727844,109.86546,66,50,0
109.86546,110.003075,67,50,0
110.003075,110.140686,71,50,0
110.41592,110.553535,67,43,0
110.553535,110.69115,71,44,0
110.69115,110.828766,73,45,0
110.828766,110.96638,74,46,0
110.96638,111.104,76,47,0
111.104,111.24161,74,48,0
111.24161,111.37922,78,50,0
111.37922,111.51684,79,51,0
111.51684,111.65445,81,52,0
111.65445,111.79227,79,53,0
111.79227,111.9323,82,54,0
111.9323,112.07522,83,55,0
112.07522,112.22114,84,56,0
112.22114,112.369835,83,58,0
112.369835,112.66834,86,59,0
112.66834,112.77416,62,60,0
112.77416,112.87998,64,63,0
112.87998,113.01604,66,66,0
113.01604,113.21604,55,40,0
113.21604,113.411736,71,32,0
113.411736,113.60312,67,32,0
113.60312,113.79451,66,40,0
113.79451,113.98589,71,33,0
113.98589,114.177284,67,33,0
114.177284,114.37146,63,40,0
114.37146,114.565636,72,31,0
114.565636,114.7598,67,31,0
114.7598,114.94938,60,40,0
114.94938,115.138954,72,33,0
115.138954,115.34948,67,33,0
115.34948,115.53816,59,40,0
115.53816,115.72684,71,31,0
115.72684,115.91552,67,31,0
115.91552,116.104195,55,40,0
116.104195,116.29288,71,32,0
116.29288,116.496956,67,32,0
116.496956,116.68564,60,40,0
116.68564,116.87431,72,33,0
116.87431,117.062996,67,33,0
117.062996,117.25168,63,40,0
117.25168,117.44035,72,32,0
117.44035,117.64444,67,32,0
117.64444,117.833115,62,40,0
117.833115,118.0218,70,32,0
118.0218,118.21047,67,32,0
118.21047,118.399155,62,40,0
118.399155,118.58783,71,36,0
118.58783,118.79088,67,36,0
118.79088,118.97867,62,40,0
118.97867,119.166466,72,33,0
119.166466,119.354256,69,33,0
119.354256,119.54205,50,40,0
119.54205,119.740074,62,34,0
119.740074,119.9382,60,34,0
119.9382,120.09862,43,40,0
120.09862,120.253265,55,33,0
120.253265,120.401085,59,33,0
120.401085,120.54542,55,33,0
120.54542,120.68744,54,41,0
120.68744,120.82895,55,35,0
120.82895,120.97046,67,35,0
120.97046,121.111725,55,35,0
121.111725,121.25191,52,42,0
121.25191,121.391716,55,36,0
121.391716,121.53116,67,36,0
121.53116,121.670166,55,37,0
121.670166,121.8102,48,44,0
121.8102,121.9515,55,37,0
121.9515,122.09912,64,37,0
122.09912,122.25662,55,38,0
122.25662,122.39876,47,45,0
122.39876,122.540085,55,37,0
122.540085,122.680626,62,37,0
122.680626,122.82038,55,37,0
122.82038,122.959915,43,46,0
122.959915,123.10021,55,39,0
123.10021,123.24532,59,40,0
123.24532,123.396385,55,40,0
123.396385,123.538414,48,48,0
123.538414,123.67964,55,42,0
123.67964,123.819984,64,42,0
123.819984,123.95974,55,42,0
123.95974,124.10039,52,51,0
124.10039,124.24201,55,43,0
124.24201,124.388016,67,43,0
124.388016,124.54108,55,43,0
124.54108,124.68353,50,50,0
124.68353,124.826324,52,44,0
124.826324,124.9685,54,48,0
124.9685,125.110344,55,51,0
125.110344,125.25156,57,54,0
125.25156,125.3922,59,55,0
125.3922,125.53749,57,55,0
125.53749,125.68792,55,54,0
125.68792,125.829956,54,54,0
125.829956,125.971176,55,49,0
125.971176,126.11172,54,49,0
126.11172,126.25085,52,49,0
126.25085,126.39063,50,54,0
126.39063,126.53131,48,50,0
126.53131,126.67298,47,59,0
126.67298,126.81563,45,66,0
126.81563,126.94956,31,66,0
126.94956,127.08349,43,56,0
127.08349,127.217415,31,66,0
127.217415,127.35134,43,56,0
127.35134,127.48896,31,66,0
127.48896,127.62657,43,57,0
127.62657,127.76676,31,66,0
127.76676,127.906944,43,57,0
127.906944,128.04028,31,66,0
128.04028,128.17361,43,57,0
128.17361,128.30695,31,66,0
128.30695,128.44028,43,58,0
128.44028,128.57361,31,66,0
128.57361,128.70694,43,59,0
128.70694,128.84714,32,45,0
128.84714,128.98732,44,34,0
128.98732,129.12007,33,43,0
129.12007,129.2528,45,33,0
129.2528,129.38554,32,43,0
129.38554,129.5183,44,33,0
129.5183,129.65103,33,43,0
129.65103,129.78378,45,34,0
129.78378,129.92203,36,43,0
129.92203,130.06027,48,35,0
130.06027,130.19244,37,43,0
130.19244,130.3246,49,33,0
130.3246,130.45676,40,43,0
130.45676,130.58891,52,33,0
130.58891,130.72107,38,43,0
130.72107,130.85323,50,34,0
130.85323,130.99084,38,43,0
130.99084,131.12846,50,35,0
131.12846,131.2589,38,47,0
131.2589,131.38933,50,36,0
131.38933,131.51976,43,48,0
131.51976,131.65019,55,37,0
131.65019,131.78064,38,50,0
131.78064,131.90889,50,40,0
131.91107,132.04805,50,53,0
132.04805,132.18504,62,44,0
132.18504,132.31548,38,54,0
132.31548,132.4459,50,42,0
132.4459,132.57634,43,57,0
132.57634,132.70677,55,44,0
132.70677,132.83722,38,58,0
132.83722,132.96547,50,47,0
132.96765,133.1034,50,61,0
133.1034,133.23914,62,51,0
133.23914,133.36572,43,59,0
133.36572,133.49231,55,50,0
133.49231,133.61888,38,61,0
133.61888,133.74547,50,51,0
133.74547,133.87206,42,64,0
133.87206,133.99864,54,55,0
133.99864,134.12521,45,67,0
134.12521,134.2674,57,58,0
134.2674,134.39505,43,68,0
134.39505,134.52272,55,63,0
134.52272,134.65038,38,71,0
134.65038,134.77803,50,63,0
134.77803,134.9057,30,74,0
134.9057,135.03336,42,64,0
135.03336,135.16101,33,76,0
135.16101,135.30186,45,67,0
135.30186,135.51926,43,81,0
135.30186,135.51926,31,69,0
135.88156,136.11966,45,81,0
135.88156,136.11966,33,69,0
136.5165,137.6276,46,86,0
136.5165,137.6276,34,72,0
137.6276,137.78633,46,50,0
137.78633,138.26253,58,71,0
138.26253,138.42125,58,58,0
138.42125,138.73871,58,65,0
140.16728,140.32602,50,50,0
140.32602,140.8022,62,71,0
140.8022,140.96094,62,58,0
140.96094,141.2784,62,64,0
142.70697,142.82745,34,96,0
142.82745,143.16966,58,78,0
142.82745,143.16966,62,93,0
142.82745,143.16966,53,78,0
143.16966,143.28372,53,69,0
143.16966,143.28372,62,84,0
143.16966,143.28372,58,69,0
143.28372,143.45483,62,93,0
143.28372,143.45483,53,78,0
143.28372,143.45483,58,78,0
143.51186,143.55464,53,75,0
143.51186,143.55464,62,88,0
143.51186,143.55464,58,75,0
143.62593,143.679,62,93,0
143.62593,143.679,53,78,0
143.62593,143.679,58,78,0
143.76744,143.89844,58,78,0
143.76744,143.89844,53,78,0
143.76744,143.89844,62,93,0
144.02945,144.16045,53,78,0
144.02945,144.16045,58,93,0
144.02945,144.16045,50,78,0
144.68446,144.80692,34,96,0
144.80692,145.15576,53,78,0
144.80692,145.15576,62,78,0
144.80692,145.15576,58,78,0
144.80692,145.15576,65,93,0
145.15576,145.27203,58,69,0
145.15576,145.27203,53,69,0
145.15576,145.27203,65,84,0
145.15576,145.27203,62,69,0
145.27203,145.44646,53,78,0
145.27203,145.44646,58,78,0
145.27203,145.44646,65,93,0
145.27203,145.44646,62,78,0
145.5046,145.5482,62,75,0
145.5046,145.5482,53,75,0
145.5046,145.5482,58,75,0
145.5046,145.5482,65,88,0
145.62086,145.67496,62,78,0
145.62086,145.67496,58,78,0
145.62086,145.67496,65,93,0
145.62086,145.67496,53,78,0
145.7651,145.89726,58,78,0
145.7651,145.89726,53,78,0
145.7651,145.89726,62,78,0
145.7651,145.89726,65,93,0
146.02942,146.16158,53,78,0
146.02942,146.16158,62,93,0
146.02942,146.16158,58,78,0
147.1054,147.36513,64,29,0
147.36513,147.62488,65,29,0
147.62488,147.88461,59,40,0
147.88461,148.14777,60,40,0
148.14777,148.42946,54,36,0
148.42946,148.69495,55,36,0
148.69495,148.97664,51,40,0
148.97664,149.24449,50,40,0
149.24449,149.50764,49,35,0
149.50764,149.7923,48,35,0
149.7923,150.07664,41,40,0
150.07664,150.39603,46,38,0
150.39603,150.73718,39,30,0
150.73718,151.09862,41,27,0
151.64597,151.9057,76,29,0
151.9057,152.16544,77,29,0
152.16544,152.42519,71,40,0
152.42519,152.68834,72,40,0
152.68834,152.97003,66,36,0
152.97003,153.23552,67,36,0
153.23552,153.51721,63,40,0
153.51721,153.78506,62,40,0
153.78506,154.04822,61,35,0
154.04822,154.33286,60,35,0
154.33286,154.61722,53,40,0
154.61722,154.90186,58,36,0
154.90186,155.18622,54,43,0
155.18622,155.46146,53,44,0
155.46146,155.73668,51,45,0
155.73668,156.00818,50,46,0
156.00818,156.28746,49,47,0
156.28746,156.55652,48,48,0
156.55652,156.83884,41,50,0
156.83884,157.1079,46,50,0
157.1079,157.38948,42,52,0
157.38948,157.65974,41,53,0
157.65974,157.94563,39,54,0
157.94563,158.21713,38,55,0
158.21713,158.50363,37,56,0
158.50363,158.7814,36,57,0
158.7814,159.06882,30,58,0
159.06882,159.3505,31,67,0
159.3505,159.64134,39,61,0
159.64134,159.7921,41,70,0
159.94286,160.09361,41,66,0
159.94286,160.09361,29,66,0
160.24435,160.38011,46,68,0
160.24435,160.38011,34,57,0
160.38011,160.51585,58,47,0
160.38011,160.51585,53,47,0
160.38011,160.51585,62,56,0
160.51585,160.6516,58,47,0
160.51585,160.6516,62,56,0
160.51585,160.6516,53,47,0
160.6516,160.78735,58,47,0
160.6516,160.78735,53,47,0
160.6516,160.78735,62,56,0
160.9231,161.05884,62,53,0
160.9231,161.05884,58,45,0
160.9231,161.05884,53,45,0
161.05884,161.19458,62,54,0
161.05884,161.19458,53,45,0
161.05884,161.19458,58,45,0
161.19458,161.34384,58,45,0
161.19458,161.34384,53,45,0
161.19458,161.34384,62,54,0
161.47658,161.54295,58,37,0
161.47658,161.54295,62,44,0
161.47658,161.54295,53,37,0
161.74207,161.80844,50,37,0
161.74207,161.80844,58,44,0
162.00755,162.07393,53,37,0
162.00755,162.07393,58,37,0
162.00755,162.07393,62,44,0
162.27304,162.35368,51,37,0
162.27304,162.35368,60,44,0
162.27304,162.35368,58,37,0
162.43433,162.57008,46,78,0
162.43433,162.57008,34,65,0
162.57008,162.70583,58,54,0
162.57008,162.70583,63,64,0
162.57008,162.70583,55,54,0
162.70583,162.84157,63,64,0
162.70583,162.84157,58,54,0
162.70583,162.84157,55,54,0
162.84157,162.97733,55,54,0
162.84157,162.97733,63,64,0
162.84157,162.97733,58,54,0
163.11307,163.24881,58,45,0
163.11307,163.24881,51,45,0
163.11307,163.24881,60,53,0
163.24881,163.38455,60,54,0
163.24881,163.38455,58,45,0
163.24881,163.38455,51,45,0
163.38455,163.53381,58,45,0
163.38455,163.53381,51,45,0
163.38455,163.53381,60,54,0
163.66655,163.73293,58,37,0
163.66655,163.73293,63,44,0
163.66655,163.73293,55,37,0
163.93204,163.99841,52,37,0
163.93204,163.99841,61,44,0
163.93204,163.99841,58,37,0
164.19579,164.26129,54,37,0
164.19579,164.26129,63,44,0
164.19579,164.26129,58,37,0
164.4578,164.53801,62,44,0
164.4578,164.53801,53,37,0
164.4578,164.53801,58,37,0
164.61823,164.75397,46,74,0
164.61823,164.75397,34,62,0
164.75397,164.88972,65,61,0
164.75397,164.88972,56,51,0
164.75397,164.88972,58,51,0
164.88972,165.02547,65,61,0
164.88972,165.02547,58,51,0
164.88972,165.02547,56,51,0
165.02547,165.16121,56,51,0
165.02547,165.16121,58,51,0
165.02547,165.16121,65,61,0
165.29697,165.43271,53,45,0
165.29697,165.43271,62,53,0
165.29697,165.43271,58,45,0
165.43271,165.56845,53,45,0
165.43271,165.56845,62,54,0
165.43271,165.56845,58,45,0
165.56845,165.71771,58,45,0
165.56845,165.71771,62,54,0
165.56845,165.71771,53,45,0
165.85045,165.91682,56,37,0
165.85045,165.91682,65,44,0
165.85045,165.91682,58,37,0
166.11594,166.18231,58,37,0
166.11594,166.18231,54,37,0
166.11594,166.18231,62,44,0
166.37968,166.44519,65,44,0
166.37968,166.44519,58,37,0
166.37968,166.44519,56,37,0
166.6417,166.72191,55,37,0
166.6417,166.72191,58,37,0
166.6417,166.72191,63,44,0
166.80212,166.93787,34,62,0
166.80212,166.93787,46,74,0
166.93787,167.07361,63,51,0
166.93787,167.07361,58,51,0
166.93787,167.07361,67,61,0
167.07361,167.20937,63,51,0
167.07361,167.20937,67,61,0
167.07361,167.20937,58,51,0
167.20937,167.34511,58,51,0
167.20937,167.34511,63,51,0
167.20937,167.34511,67,61,0
167.48085,167.6166,63,53,0
167.48085,167.6166,58,45,0
167.48085,167.6166,55,45,0
167.6166,167.75235,63,54,0
167.6166,167.75235,58,45,0
167.6166,167.75235,55,45,0
167.75235,167.9016,58,45,0
167.75235,167.9016,63,54,0
167.75235,167.9016,55,45,0
168.03435,168.10071,58,33,0
168.03435,168.10071,67,39,0
168.03435,168.10071,63,33,0
168.29984,168.3662,58,33,0
168.29984,168.3662,61,33,0
168.29984,168.3662,64,39,0
168.5653,168.63168,58,36,0
168.5653,168.63168,66,44,0
168.5653,168.63168,63,36,0
168.8308,168.90257,62,37,0
168.8308,168.90257,65,45,0
168.8308,168.90257,58,37,0
169.1065,169.17258,65,39,0
169.1065,169.17258,68,46,0
169.1065,169.17258,58,39,0
169.37082,169.43689,66,48,0
169.37082,169.43689,62,40,0
169.37082,169.43689,58,40,0
169.63513,169.70122,68,50,0
169.63513,169.70122,58,42,0
169.63513,169.70122,65,42,0
169.89944,169.96988,67,52,0
169.89944,169.96988,63,43,0
169.89944,169.96988,58,43,0
170.1713,170.2368,60,45,0
170.1713,170.2368,67,53,0
170.1713,170.2368,58,45,0
170.1713,170.2368,63,45,0
170.4333,170.49881,58,45,0
170.4333,170.49881,63,45,0
170.4333,170.49881,60,45,0
170.4333,170.49881,68,54,0
170.69531,170.76082,70,56,0
170.69531,170.76082,58,47,0
170.69531,170.76082,60,47,0
170.69531,170.76082,63,47,0
170.95732,171.02776,63,48,0
170.95732,171.02776,60,48,0
170.95732,171.02776,58,48,0
170.95732,171.02776,69,58,0
171.22917,171.29468,72,66,0
171.22917,171.29468,60,56,0
171.49118,171.55669,70,66,0
171.49118,171.55669,58,56,0
171.75319,171.8187,55,56,0
171.75319,171.8187,67,66,0
172.0152,172.08562,65,66,0
172.0152,172.08562,53,56,0
172.28821,172.35428,51,50,0
172.28821,172.35428,63,59,0
172.55252,172.6186,50,50,0
172.55252,172.6186,62,59,0
172.81683,172.88292,48,50,0
172.81683,172.88292,60,59,0
173.08116,173.15158,58,59,0
173.08116,173.15158,46,50,0
173.35474,173.42111,55,59,0
173.35474,173.42111,43,50,0
173.62022,173.6866,41,50,0
173.62022,173.6866,53,59,0
173.88571,173.95209,39,47,0
173.88571,173.95209,51,56,0
174.1512,174.22162,50,56,0
174.1512,174.22162,38,47,0
174.42479,174.49117,48,53,0
174.42479,174.49117,36,45,0
174.69028,174.75665,34,45,0
174.69028,174.75665,46,53,0
174.95576,175.02214,43,53,0
174.95576,175.02214,31,45,0
175.22125,175.29167,29,45,0
175.22125,175.29167,41,53,0
175.49484,175.62758,33,42,0
175.76033,175.90387,29,28,0
176.0372,176.17053,36,39,0
176.30386,176.44604,29,27,0
176.57938,176.7127,41,37,0
176.84604,176.9889,29,26,0
177.12224,177.25557,45,34,0
177.3889,177.53313,29,24,0
177.67203,177.81091,48,32,0
177.9498,178.10854,29,23,0
178.26082,178.4131,53,29,0
178.56538,178.74503,29,24,0
178.91548,179.08594,53,28,0
179.27344,179.51933,29,21,0
180.07489,180.63045,53,21,0
180.73914,180.85962,34,84,0
180.85962,181.20183,62,81,0
180.85962,181.20183,58,68,0
180.85962,181.20183,53,68,0
181.20183,181.3159,62,73,0
181.20183,181.3159,58,61,0
181.20183,181.3159,53,61,0
181.3159,181.54404,53,68,0
181.3159,181.54404,58,68,0
181.3159,181.54404,62,81,0
181.54404,181.5868,53,66,0
181.54404,181.5868,58,66,0
181.54404,181.5868,62,77,0
181.6581,181.71117,58,68,0
181.6581,181.71117,62,81,0
181.6581,181.71117,53,68,0
181.7996,181.93062,53,68,0
181.7996,181.93062,62,81,0
181.7996,181.93062,58,68,0
182.06161,182.19263,58,81,0
182.06161,182.19263,53,68,0
182.06161,182.19263,50,68,0
182.71664,182.8391,34,84,0
182.8391,183.18793,62,81,0
182.8391,183.18793,53,68,0
182.8391,183.18793,50,68,0
182.8391,183.18793,58,68,0
183.18793,183.30421,58,61,0
183.18793,183.30421,53,61,0
183.18793,183.30421,62,73,0
183.18793,183.30421,50,61,0
183.30421,183.53676,62,97,0
183.30421,183.53676,50,81,0
183.53676,183.58037,57,66,0
183.53676,183.58037,50,66,0
183.53676,183.58037,62,77,0
183.53676,183.58037,54,66,0
183.65305,183.70714,62,81,0
183.65305,183.70714,50,68,0
183.65305,183.70714,57,68,0
183.65305,183.70714,54,68,0
183.79727,183.92943,62,81,0
183.79727,183.92943,54,68,0
183.79727,183.92943,57,68,0
183.79727,183.92943,50,68,0
184.0616,184.19376,57,68,0
184.0616,184.19376,50,68,0
184.0616,184.19376,62,81,0
184.0616,184.19376,54,68,0
184.72238,184.85454,50,39,0
184.85454,185.24005,62,45,0
185.24005,185.37163,50,40,0
185.37163,185.75583,62,47,0
185.75583,185.88742,50,42,0
185.88742,186.27052,62,49,0
186.27052,186.40326,50,41,0
186.40326,186.78914,62,52,0
186.78914,186.9213,50,44,0
186.9213,187.3094,57,55,0
186.9213,187.3094,60,55,0
187.3094,187.44392,50,46,0
187.44392,187.83781,57,58,0
187.44392,187.83781,60,58,0
187.83781,187.97606,50,50,0
187.97606,188.36989,54,60,0
187.97606,188.36989,57,60,0
188.36989,188.50687,50,52,0
188.50687,188.90727,45,63,0
188.90727,189.04745,50,52,0
189.04745,189.45146,45,65,0
189.45146,189.59164,50,57,0
189.59164,190.0009,43,68,0
190.0009,190.14241,50,57,0
190.14241,190.56024,42,71,0
190.56024,190.7031,50,59,0
190.7031,191.1254,39,73,0
191.1254,191.26364,50,67,0
191.26364,191.54015,38,67,0
191.26364,191.54015,50,73,0
191.54015,191.67114,75,48,0
191.67114,191.81003,74,48,0
191.81003,192.07909,75,54,0
192.07909,192.2101,74,44,0
192.2101,192.35228,73,44,0
192.35228,192.62254,74,44,0
192.62254,192.7553,63,43,0
192.7553,192.89815,62,43,0
192.89815,193.17592,63,51,0
193.17592,193.31229,62,43,0
193.31229,193.44865,61,43,0
193.44865,193.71414,62,51,0
193.84688,193.98578,50,42,0
193.98578,194.25363,54,51,0
194.38756,194.52774,57,40,0
194.52774,194.79323,60,51,0
194.92598,195.06358,66,43,0
195.06358,195.33145,69,51,0
195.33145,195.46538,72,45,0
195.46538,195.60556,69,45,0
195.60556,195.7401,81,40,0
195.7401,195.87462,83,40,0
195.87462,196.00916,84,44,0
196.00916,196.1474,81,40,0
196.1474,196.28014,72,40,0
196.28014,196.41289,74,40,0
196.41289,196.54562,76,45,0
196.54562,196.68648,72,40,0
196.68648,196.81981,69,40,0
196.81981,196.95314,71,40,0
196.95314,197.08647,72,45,0
197.08647,197.22432,69,40,0
197.22665,197.3594,66,40,0
197.3594,197.49214,67,40,0
197.49214,197.6249,69,45,0
197.6249,197.77122,66,40,0
197.77122,198.0379,62,48,0
197.77122,198.0379,71,51,0
197.77122,198.0379,67,48,0
198.17123,198.31012,50,42,0
198.31012,198.57797,55,51,0
198.7119,198.8521,59,40,0
198.8521,199.11995,62,51,0
199.25388,199.3915,67,43,0
199.3915,199.65935,71,51,0
199.79327,199.93347,74,45,0
199.93347,200.068,79,40,0
200.068,200.20253,81,40,0
200.20253,200.33705,83,44,0
200.33705,200.47299,79,40,0
200.4753,200.60805,71,40,0
200.60805,200.74078,72,40,0
200.74078,200.87354,74,45,0
200.87354,201.01437,71,40,0
201.01437,201.1477,67,40,0
201.1477,201.28104,69,40,0
201.28104,201.41216,71,45,0
201.41438,201.55223,67,40,0
201.55457,201.6879,71,40,0
201.6879,201.82123,72,40,0
201.82123,201.95456,74,45,0
201.95456,202.09344,71,40,0
202.09344,202.23235,72,40,0
202.23235,202.37123,74,40,0
202.37123,202.50821,72,45,0
202.50821,202.6484,71,40,0
202.6484,202.78354,72,40,0
202.78354,202.91867,74,40,0
202.91867,203.0538,76,45,0
203.0538,203.1927,72,40,0
203.1927,203.33159,69,46,0
203.33159,203.47047,71,38,0
203.47047,203.6038,72,45,0
203.6038,203.744,69,40,0
203.744,203.87733,66,45,0
203.87733,204.01067,67,36,0
204.01067,204.144,69,41,0
204.144,204.28288,66,36,0
204.28288,204.42177,60,46,0
204.42177,204.56067,62,38,0
204.56067,204.694,64,45,0
204.694,204.83418,60,40,0
204.83418,204.96751,57,45,0
204.96751,205.10085,59,36,0
205.10085,205.23418,60,41,0
205.23418,205.37308,57,36,0
205.37308,205.51196,54,46,0
205.51196,205.65085,55,38,0
205.65085,205.78418,57,45,0
205.78418,205.92438,54,40,0
205.92438,206.05771,69,45,0
206.05771,206.19104,67,36,0
206.19104,206.32437,66,41,0
206.32437,206.46326,69,36,0
206.46326,206.60214,71,40,0
206.60214,206.74707,72,40,0
206.74707,206.8804,71,45,0
206.8804,207.0206,69,40,0
207.0206,207.15393,71,40,0
207.15393,207.28726,72,40,0
207.28726,207.4206,74,45,0
207.4206,207.55948,71,40,0
207.55948,207.69838,67,46,0
207.69838,207.83727,69,38,0
207.83727,207.9706,71,45,0
207.9706,208.11078,67,40,0
208.11078,208.24411,62,45,0
208.24411,208.37744,66,36,0
208.37744,208.51079,67,41,0
208.51079,208.64967,62,36,0
208.64967,208.78856,59,46,0
208.78856,208.92744,60,38,0
208.92744,209.06078,62,45,0
209.06078,209.20097,59,40,0
209.20097,209.3343,55,45,0
209.3343,209.46764,57,36,0
209.46764,209.60097,59,41,0
209.60097,209.73985,55,36,0
209.73985,209.87875,50,46,0
209.87875,210.01764,54,38,0
210.01764,210.15097,55,45,0
210.15097,210.29115,50,40,0
210.29115,210.43266,48,45,0
210.43266,210.57417,55,36,0
210.57417,210.72882,50,41,0
210.72882,210.88345,48,36,0
210.88345,211.19273,47,36,0
211.19273,211.49576,55,40,0
211.19273,211.49576,43,34,0
211.49576,211.64728,48,30,0
211.49576,211.64728,52,36,0
211.7988,211.94234,60,40,0
211.94234,212.08588,57,36,0
212.08588,212.39516,54,36,0
212.39516,212.68086,62,36,0
212.39516,212.68086,50,31,0
212.68086,212.83794,59,36,0
212.68086,212.83794,55,30,0
212.99501,213.59274,55,30,0
212.99501,213.59274,64,36,0
213.59274,213.90688,64,36,0
213.59274,213.90688,55,30,0
213.90688,214.23656,57,34,0
213.90688,214.23656,66,40,0
214.23656,214.41512,67,30,0
214.41512,214.59369,69,36,0
214.23656,214.59369,57,25,0
214.59369,214.93077,69,36,0
214.93077,215.17271,71,36,0
215.17271,215.25336,73,31,0
215.25336,215.57593,74,36,0
214.59369,215.57593,62,30,0
215.57593,215.72086,76,37,0
215.72086,215.86578,78,36,0
215.86578,216.18158,79,36,0
216.18158,216.47426,74,36,0
216.18158,216.47426,71,30,0
216.47426,216.6297,72,30,0
216.47426,216.6297,76,36,0
216.78514,216.93149,69,36,0
216.93149,217.07782,72,32,0
217.07782,217.40215,74,36,0
217.40215,217.69627,66,30,0
217.40215,217.69627,69,36,0
217.69627,217.8517,71,36,0
217.69627,217.8517,67,33,0
218.30272,218.61522,71,36,0
218.30272,218.61522,67,30,0
218.30272,218.61522,64,30,0
218.61522,218.93779,67,30,0
218.61522,218.93779,72,36,0
218.61522,218.93779,64,30,0
218.93779,219.09909,67,36,0
219.09909,219.26038,69,30,0
218.93779,219.26038,72,36,0
218.93779,219.26038,64,30,0
219.26038,219.58296,71,36,0
219.26038,219.58296,66,30,0
219.26038,219.58296,63,30,0
219.58296,219.88446,63,30,0
219.58296,219.88446,71,36,0
219.58296,219.88446,66,30,0
219.88446,220.17714,59,26,0
219.88446,220.17714,63,31,0
220.17714,220.47893,64,30,0
220.17714,220.47893,67,36,0
220.47893,220.62456,62,34,0
220.47893,220.62456,65,40,0
220.62456,220.7828,61,30,0
220.62456,220.7828,64,36,0
220.78413,221.08565,61,30,0
220.78413,221.08565,64,36,0
221.08565,221.37833,57,26,0
221.08565,221.37833,61,31,0
221.37833,221.6801,62,30,0
221.37833,221.6801,65,36,0
221.6801,221.82573,60,34,0
221.6801,221.82573,63,40,0
221.82573,221.9853,59,30,0
221.82573,221.9853,62,36,0
221.9853,222.28682,62,36,0
221.9853,222.28682,59,30,0
222.28682,222.5795,59,31,0
222.28682,222.5795,55,26,0
222.5795,222.88129,64,36,0
222.5795,222.88129,60,30,0
222.88129,223.02692,63,40,0
222.88129,223.02692,59,34,0
223.02692,223.18517,61,36,0
223.02692,223.18517,58,30,0
223.1865,223.48799,61,36,0
223.1865,223.48799,58,30,0
223.48799,223.78069,58,31,0
223.48799,223.78069,54,26,0
223.78069,224.08246,62,36,0
223.78069,224.08246,59,30,0
224.08246,224.22809,61,40,0
224.08246,224.22809,57,34,0
224.22809,224.38634,56,30,0
224.22809,224.38634,59,36,0
224.38766,224.68185,56,30,0
224.38766,224.68185,59,36,0
224.68185,224.8311,57,36,0
224.8311,224.98817,55,30,0
224.68185,224.98817,64,30,0
224.98817,225.28235,54,30,0
224.98817,225.28235,57,36,0
225.28235,225.43161,55,36,0
225.43161,225.5895,47,32,0
225.28235,225.5895,59,30,0
225.5895,227.32114,60,30,0
225.5895,227.32114,50,25,0
225.5895,227.32114,45,25,0
227.32114,227.9224,50,25,0
227.32114,227.9224,47,25,0
227.32114,227.9224,59,30,0
227.9224,229.67868,50,25,0
227.9224,229.67868,60,30,0
227.9224,229.67868,45,25,0
229.67868,230.27907,50,25,0
229.67868,230.27907,59,30,0
229.67868,230.27907,47,25,0
230.27907,230.88531,47,30,0
230.27907,230.88531,35,25,0
230.88531,231.48656,40,23,0
230.88531,231.48656,52,28,0
231.48656,232.08455,49,30,0
231.48656,232.08455,37,25,0
232.08455,232.38306,38,24,0
232.08455,232.38306,50,29,0
232.69104,234.42268,57,25,0
232.69104,234.42268,72,30,0
232.69104,234.42268,62,25,0
234.42268,235.02393,62,25,0
234.42268,235.02393,59,25,0
234.42268,235.02393,71,30,0
235.02393,236.78023,60,30,0
235.02393,236.78023,50,25,0
235.02393,236.78023,45,25,0
236.78023,237.0729,59,30,0
236.78023,237.0729,47,25,0
236.78023,237.0729,50,25,0
237.0729,237.37804,59,30,0
237.3806,237.97374,59,30,0
237.97374,238.56853,64,28,0
238.56853,239.1538,61,30,0
239.1538,239.44365,62,29,0
239.44365,239.7473,63,29,0
239.7473,240.33833,64,31,0
240.33833,240.93526,69,30,0
240.93526,241.52467,66,33,0
241.52467,241.81593,67,34,0
241.81593,242.1203,68,34,0
242.1203,242.71133,69,36,0
242.71133,243.30826,73,35,0
243.30826,243.89558,71,39,0
243.89558,244.80867,72,39,0
243.89558,244.80867,60,39,0
244.80867,245.10135,36,56,0
244.80867,245.10135,48,66,0
246.0031,246.15161,64,82,0
246.0031,246.15161,60,69,0
246.30013,246.59717,62,79,0
246.30013,246.59717,59,67,0
246.59717,246.74568,64,81,0
246.59717,246.74568,60,68,0
246.74568,246.8942,65,84,0
246.74568,246.8942,62,71,0
246.8942,247.04271,67,88,0
246.8942,247.04271,64,74,0
247.19122,247.4839,48,66,0
247.19122,247.4839,36,56,0
248.38565,248.68268,49,74,0
248.38565,248.68268,37,62,0
248.9797,249.27675,33,67,0
248.9797,249.27675,45,79,0
249.57378,249.8708,50,74,0
249.57378,249.8708,38,62,0
250.16783,250.46486,52,79,0
250.16783,250.46486,40,67,0
250.46486,250.6112,38,50,0
250.6112,250.74881,42,50,0
250.74881,250.88643,43,50,0
250.88643,251.02405,47,50,0
251.02405,251.16167,50,50,0
251.16167,251.29927,54,50,0
251.29927,251.43689,55,50,0
251.43689,251.57451,59,50,0
251.57451,251.71213,62,50,0
251.71213,251.84973,66,50,0
251.84973,251.98735,67,50,0
251.98735,252.12497,71,50,0
252.40019,252.53781,67,43,0
252.53781,252.67543,71,44,0
252.67543,252.81303,73,45,0
252.81303,252.95065,74,46,0
252.95065,253.08827,76,47,0
253.08827,253.22588,74,48,0
253.22588,253.3635,78,50,0
253.3635,253.50111,79,51,0
253.50111,253.63873,81,52,0
253.63873,253.77654,79,53,0
253.77654,253.91658,82,54,0
253.91658,254.0595,83,55,0
254.0595,254.20541,84,56,0
254.20541,254.35411,83,58,0
254.35411,254.65262,86,59,0
254.65262,254.75844,62,60,0
254.75844,254.86426,64,63,0
254.86426,255.00032,66,66,0
255.00032,255.20032,55,40,0
255.20032,255.39601,71,32,0
255.39601,255.5874,67,32,0
255.5874,255.77878,66,40,0
255.77878,255.97017,71,33,0
255.97017,256.16156,67,33,0
256.16156,256.35574,63,40,0
256.35574,256.5499,72,31,0
256.5499,256.74408,67,31,0
256.74408,256.93365,60,40,0
256.93365,257.12323,72,33,0
257.12323,257.33374,67,33,0
257.33374,257.52243,59,40,0
257.52243,257.71112,71,31,0
257.71112,257.89978,67,31,0
257.89978,258.08847,55,40,0
258.08847,258.27716,71,32,0
258.27716,258.48123,67,32,0
258.48123,258.66992,60,40,0
258.66992,258.85858,72,33,0
258.85858,259.04727,67,33,0
259.04727,259.23596,63,40,0
259.23596,259.42462,72,32,0
259.42462,259.62872,67,32,0
259.62872,259.81738,62,40,0
259.81738,260.00607,70,32,0
260.00607,260.19476,67,32,0
260.19476,260.38342,62,40,0
260.38342,260.5721,71,36,0
260.5721,260.77515,67,36,0
260.77515,260.96295,62,40,0
260.96295,261.15073,72,33,0
261.15073,261.33853,69,33,0
261.33853,261.52634,50,40,0
261.52634,261.72433,62,34,0
261.72433,261.92432,60,34,0
261.92432,262.09412,43,40,0
262.09412,262.2478,55,33,0
262.2478,262.39523,59,33,0
262.39523,262.5383,55,33,0
262.5383,262.68027,54,41,0
262.68027,262.82178,55,35,0
262.82178,262.9633,67,35,0
262.9633,263.10455,55,35,0
263.10455,263.24475,52,42,0
263.24475,263.38455,55,36,0
263.38455,263.524,67,36,0
263.524,263.663,55,37,0
263.663,263.80304,48,44,0
263.80304,263.94434,55,37,0
263.94434,264.09195,64,37,0
264.09195,264.24945,55,38,0
264.24945,264.39157,47,45,0
264.39157,264.53293,55,37,0
264.53293,264.67346,62,37,0
264.67346,264.8132,55,37,0
264.8132,264.95273,43,46,0
264.95273,265.09305,55,39,0
265.09305,265.23816,59,40,0
265.23816,265.38922,55,40,0
265.38922,265.53125,48,48,0
265.53125,265.6725,55,42,0
265.6725,265.8128,64,42,0
265.8128,265.95258,55,42,0
265.95258,266.09323,52,51,0
266.09323,266.23483,55,43,0
266.23483,266.38086,67,43,0
266.38086,266.5339,55,43,0
266.5339,266.67636,50,50,0
266.67636,266.81915,52,44,0
266.81915,266.96133,54,48,0
266.96133,267.10318,55,51,0
267.10318,267.2444,57,54,0
267.2444,267.385,59,55,0
267.385,267.5303,57,55,0
267.5303,267.68076,55,54,0
267.68076,267.82278,54,54,0
267.82278,267.96402,55,49,0
267.96402,268.10455,54,49,0
268.10455,268.24368,52,49,0
268.24368,268.38345,50,54,0
268.38345,268.52414,48,50,0
268.52414,268.6658,47,59,0
268.6658,268.80847,45,66,0
268.80847,268.94238,31,66,0
268.94238,269.07632,43,56,0
269.07632,269.21024,31,66,0
269.21024,269.34418,43,56,0
269.34418,269.48178,31,66,0
269.48178,269.61942,43,57,0
269.61942,269.75958,31,66,0
269.75958,269.89978,43,57,0
269.89978,270.0337,31,66,0
270.0337,270.16763,43,57,0
270.16763,270.30157,31,66,0
270.30157,270.4355,43,58,0
270.4355,270.56943,31,66,0
270.56943,270.70334,43,59,0
270.70334,270.84354,32,45,0
270.84354,270.98373,44,34,0
270.98373,271.11646,33,43,0
271.11646,271.2492,45,33,0
271.2492,271.38196,32,43,0
271.38196,271.51468,44,33,0
271.51468,271.64743,33,43,0
271.64743,271.78018,45,34,0
271.78018,271.91843,36,43,0
271.91843,272.05667,48,35,0
272.05667,272.18884,37,43,0
272.18884,272.32098,49,33,0
272.32098,272.45316,40,43,0
272.45316,272.5853,52,33,0
272.5853,272.71747,38,43,0
272.71747,272.84964,50,34,0
272.84964,272.98724,38,43,0
272.98724,273.12485,50,35,0
273.12485,273.25528,38,47,0
273.25528,273.3857,50,36,0
273.3857,273.51617,43,48,0
273.51617,273.6466,55,37,0
273.6466,273.77704,38,50,0
273.77704,273.90747,50,40,0
273.90747,274.04446,50,53,0
274.04446,274.18143,62,44,0
274.18143,274.31186,38,54,0
274.31186,274.44232,50,42,0
274.44232,274.57275,43,57,0
274.57275,274.7032,55,44,0
274.7032,274.83362,38,58,0
274.83362,274.96405,50,47,0
274.96405,275.0998,50,61,0
275.0998,275.23553,62,51,0
275.23553,275.36212,43,59,0
275.36212,275.4887,55,50,0
275.4887,275.6153,38,61,0
275.6153,275.74188,50,51,0
275.74188,275.86844,42,64,0
275.86844,275.99503,54,55,0
275.99503,276.1216,45,67,0
276.1216,276.2638,57,58,0
276.2638,276.39145,43,68,0
276.39145,276.5191,55,63,0
276.5191,276.64676,38,71,0
276.64676,276.77444,50,63,0
276.77444,276.9021,30,74,0
276.9021,277.02975,42,64,0
277.02975,277.1574,33,76,0
277.1574,277.29825,45,67,0
277.29825,277.52325,31,69,0
277.29825,277.52325,43,81,0
277.89825,278.14282,45,81,0
277.89825,278.14282,33,69,0
278.55045,279.95395,47,86,0
278.55045,279.95395,35,72,0
279.95395,280.2082,35,69,0
279.95395,280.2082,47,81,0
280.6319,280.9241,36,69,0
280.6319,280.9241,48,81,0
281.41113,282.96957,38,72,0
281.41113,282.96957,50,86,0
282.96957,283.09943,71,39,0
283.09943,283.2293,67,33,0
283.2293,283.3592,71,39,0
283.3592,283.48904,67,33,0
283.48904,283.62064,71,39,0
283.62064,283.7522,67,34,0
283.7522,283.88614,72,39,0
283.88614,284.02005,67,34,0
284.02005,284.14938,74,39,0
284.14938,284.2787,67,34,0
284.2787,284.40744,72,39,0
284.40744,284.5362,67,34,0
284.5362,284.66495,71,39,0
284.66495,284.7937,67,35,0
284.7937,284.93134,74,27,0
284.93134,285.06894,67,20,0
285.06894,285.19937,72,39,0
285.19937,285.3298,67,33,0
285.3298,285.46024,72,39,0
285.46024,285.59067,67,33,0
285.59067,285.7246,72,39,0
285.7246,285.85852,67,34,0
285.85852,285.9955,71,39,0
285.9955,286.1325,67,34,0
286.1325,286.26126,72,39,0
286.26126,286.39,67,34,0
286.39,286.51877,71,39,0
286.51877,286.64752,67,34,0
286.64752,286.77628,72,39,0
286.77628,286.90503,67,35,0
286.90503,287.04523,72,27,0
287.04523,287.1854,60,20,0
287.1854,287.31586,70,42,0
287.31586,287.4463,58,36,0
287.4463,287.57672,70,44,0
287.4463,287.57672,62,44,0
287.57672,287.70715,58,38,0
287.70715,287.8399,62,46,0
287.70715,287.8399,70,46,0
287.8399,287.97263,58,41,0
287.97263,288.11026,63,48,0
287.97263,288.11026,70,48,0
288.11026,288.24786,58,43,0
288.24786,288.37775,70,50,0
288.24786,288.37775,65,50,0
288.37775,288.5076,58,44,0
288.5076,288.63748,63,52,0
288.5076,288.63748,70,52,0
288.63748,288.76733,58,46,0
288.76733,288.89722,62,54,0
288.76733,288.89722,70,54,0
288.89722,289.0271,58,49,0
289.0271,289.16727,44,44,0
289.16727,289.30746,56,33,0
289.30746,289.45746,43,77,0
289.45746,289.59995,55,70,0
289.60745,289.75745,55,70,0
289.75745,289.90747,67,70,0
289.90747,290.0705,41,77,0
290.0705,290.2254,53,69,0
290.23355,290.39658,53,69,0
290.39658,290.58768,65,69,0
290.58768,290.76312,39,85,0
290.76312,290.92978,51,67,0
290.93854,291.99118,51,69,0
290.93854,291.99118,63,82,0
292.26392,292.40027,55,40,0
292.40027,292.54245,58,35,0
292.80795,292.94067,53,40,0
292.94067,293.11115,56,34,0
293.3915,294.23895,55,40,0
294.23895,294.40845,51,93,0
294.40845,294.87573,63,90,0
294.87967,295.0328,63,61,0
295.03674,295.35086,63,66,0
296.76447,296.92154,55,91,0
296.92154,297.38882,67,80,0
297.39276,297.5459,67,63,0
297.5498,297.86395,67,69,0
300.15762,300.29398,39,40,0
300.29398,300.69,44,44,0
300.6922,300.82275,44,40,0
300.82495,301.09045,44,43,0
301.09045,301.18744,46,44,0
301.21976,301.3249,44,40,0
301.35995,301.43515,44,44,0
301.62543,301.722,41,39,0
301.89117,302.42233,41,39,0
302.42233,302.52188,46,44,0
302.6878,302.78357,46,44,0
302.8155,302.92014,44,44,0
302.95502,303.08777,43,44,0
303.2205,303.31665,43,44,0
303.3487,303.4524,41,44,0
303.48694,303.75128,40,44,0
304.01773,304.5485,40,39,0
304.5485,304.6476,48,44,0
304.8128,304.90897,48,44,0
304.941,305.04422,46,44,0
305.07864,305.20685,44,44,0
305.3432,305.4419,44,44,0
305.4748,305.57346,43,44,0
305.60635,305.8695,41,44,0
305.99503,306.09778,48,37,0
306.13202,306.25916,53,37,0
306.3955,306.4942,53,38,0
306.5271,306.62576,51,38,0
306.65866,306.75735,50,46,0
306.9218,307.01675,50,39,0
307.0484,307.15115,48,39,0
307.1854,307.3109,46,39,0
307.44666,307.54535,48,40,0
307.57825,307.6769,50,40,0
307.7098,307.84024,51,48,0
307.9707,308.23987,43,41,0
308.23987,308.50418,45,42,0
308.50418,308.63632,53,47,0
308.63632,308.7685,51,47,0
308.50418,308.7685,48,42,0
308.7685,308.8676,46,51,0
308.7685,309.0328,50,43,0
309.0328,309.13193,46,43,0
309.16498,309.2641,48,44,0
309.29712,309.4293,50,44,0
309.56143,309.65842,51,44,0
309.69077,309.79303,53,45,0
309.69077,309.82712,58,48,0
309.82712,309.95987,51,54,0
309.82712,310.22314,63,54,0
310.22534,310.35587,63,50,0
310.3581,310.62357,63,54,0
310.62357,310.72055,65,55,0
310.7529,310.85803,63,51,0
310.89307,310.9683,63,56,0
310.89307,310.99265,48,56,0
311.15857,311.25513,48,48,0
311.15857,311.25513,60,50,0
311.28732,311.39005,50,48,0
311.4243,311.55704,52,48,0
311.6898,311.78677,53,49,0
311.8191,311.92136,55,49,0
311.4243,311.95547,60,51,0
311.95547,312.05502,65,59,0
311.95547,312.0882,53,59,0
312.22095,312.31668,65,59,0
312.3486,312.45325,63,60,0
312.48813,312.62088,62,60,0
312.48813,312.62088,53,50,0
312.75363,312.8498,62,61,0
312.75363,312.8498,53,51,0
312.88184,312.98553,60,61,0
312.88184,312.98553,51,51,0
313.02008,313.1192,50,61,0
313.02008,313.2844,59,61,0
313.2844,313.38055,50,52,0
313.4126,313.5163,51,52,0
313.55084,313.67905,53,52,0
313.81732,313.9164,55,53,0
313.94946,314.04858,56,53,0
313.55084,314.08163,59,55,0
314.08163,314.18076,67,64,0
314.08163,314.21378,55,64,0
314.34595,314.4421,67,65,0
314.47415,314.57736,65,65,0
314.61176,314.73996,55,55,0
314.61176,314.73996,63,65,0
314.87634,314.975,55,55,0
314.87634,314.975,63,66,0
315.0079,315.1066,53,55,0
315.0079,315.1066,62,66,0
315.1395,315.23816,60,66,0
315.1395,315.23816,51,66,0
315.40265,315.4968,51,56,0
315.52817,315.63092,53,56,0
315.66516,315.79227,55,57,0
315.40265,315.92865,60,59,0
315.92865,316.0273,67,57,0
315.92865,316.0273,57,57,0
316.0602,316.1589,59,58,0
316.0602,316.1589,65,58,0
316.1918,316.29047,63,69,0
316.1918,316.29047,60,69,0
316.45496,316.5499,50,58,0
316.45496,316.5499,65,58,0
316.58154,316.68427,52,59,0
316.58154,316.68427,67,59,0
316.71854,316.84406,60,59,0
316.71854,316.84406,53,59,0
316.9798,317.0785,41,59,0
316.9798,317.0785,60,59,0
317.11136,317.21005,58,60,0
317.11136,317.21005,43,55,0
317.24295,317.37338,44,72,0
317.24295,317.37338,60,72,0
317.5038,317.77298,62,61,0
317.5038,317.77298,46,51,0
317.77298,318.0373,63,61,0
317.77298,318.0373,47,51,0
318.0373,318.1364,46,62,0
318.0373,318.1364,62,62,0
318.16946,318.2686,65,62,0
318.16946,318.2686,34,62,0
318.16946,318.2686,62,62,0
318.30164,318.6959,39,61,0
318.6981,318.7972,39,54,0
318.83026,319.09457,39,54,0
319.09457,319.19156,41,61,0
319.22388,319.32617,39,54,0
319.36026,319.63297,39,51,0
319.36026,319.76706,48,61,0
319.76935,319.8716,48,54,0
319.63297,319.9057,36,43,0
319.9057,320.17844,48,62,0
320.17844,320.27542,50,61,0
320.30774,320.41,48,54,0
319.9057,320.4441,36,52,0
320.4441,320.54367,44,51,0
320.4441,320.57684,48,61,0
320.84235,320.9419,43,57,0
320.7096,320.9419,44,62,0
320.97507,321.07465,41,53,0
321.24057,321.33755,41,54,0
321.36987,321.475,39,54,0
320.97507,321.51007,44,63,0
321.51007,321.60962,53,56,0
321.51007,321.77554,38,51,0
321.77554,321.8721,53,56,0
321.9043,322.00705,51,59,0
322.0413,322.17404,50,59,0
322.30676,322.40375,50,56,0
322.4361,322.53836,48,52,0
322.0413,322.57245,38,52,0
322.57245,322.7052,46,61,0
322.83795,322.9375,46,62,0
322.97067,323.07025,44,57,0
323.10342,323.20297,43,53,0
323.3689,323.46588,43,54,0
323.49823,323.60336,41,54,0
323.10342,323.6384,46,63,0
323.6384,323.73798,55,56,0
323.6384,323.9039,40,51,0
323.9039,324.00046,55,56,0
324.03265,324.13538,53,59,0
324.16965,324.30237,52,59,0
324.43512,324.5321,52,56,0
324.56442,324.66672,50,52,0
324.16965,324.7008,40,52,0
324.7008,324.83353,48,61,0
324.96628,325.06583,48,43,0
324.96628,325.06583,55,51,0
325.09903,325.19858,46,34,0
325.09903,325.19858,61,41,0
325.23178,325.33133,44,43,0
325.23178,325.33133,60,51,0
325.23178,325.33133,48,51,0
325.49725,325.59424,52,54,0
325.49725,325.59424,43,45,0
325.76675,326.03223,53,50,0
326.03223,326.29773,48,42,0
326.29773,326.5632,53,52,0
325.76675,326.5632,41,50,0
326.5632,326.8287,42,42,0
326.5632,326.8287,51,42,0
326.8287,326.92825,50,56,0
327.09418,327.35992,50,54,0
327.35992,327.62543,55,59,0
326.8287,327.62543,43,51,0
327.62543,327.89108,53,56,0
327.62543,327.89108,43,47,0
327.89108,328.1566,51,55,0
328.1566,328.2893,56,58,0
328.2893,328.42206,55,50,0
328.42206,328.5548,53,59,0
327.89108,328.68756,44,46,0
328.68756,328.82028,53,61,0
328.82028,328.95303,51,53,0
328.68756,328.95303,45,41,0
328.95303,329.05258,46,51,0
328.95303,329.05258,50,67,0
329.2185,329.3151,58,52,0
329.34726,329.45,56,47,0
329.2185,329.48425,47,53,0
329.48425,329.617,48,59,0
329.48425,329.617,55,60,0
329.74976,330.0154,50,56,0
329.74976,330.0154,53,66,0
330.0154,330.27972,48,47,0
330.0154,330.27972,51,66,0
330.93768,331.03995,48,51,0
330.93768,331.07404,51,61,0
331.07404,331.46896,53,56,0
331.07404,331.46896,56,67,0
331.4723,331.6039,56,61,0
331.4723,331.6039,53,51,0
331.605,331.8705,56,64,0
331.605,331.8705,53,54,0
331.8705,331.9675,58,67,0
331.8705,331.9675,55,56,0
331.99982,332.10495,56,57,0
331.99982,332.10495,53,48,0
332.14,332.23956,53,56,0
332.14,332.23956,56,67,0
332.4055,332.50204,49,49,0
332.4055,332.50204,53,58,0
332.67123,333.2024,53,58,0
332.67123,333.2024,49,49,0
333.2024,333.30194,58,56,0
333.2024,333.30194,61,67,0
333.46786,333.56363,58,56,0
333.46786,333.56363,61,67,0
333.59555,333.7002,56,53,0
333.59555,333.7002,60,63,0
333.73508,333.86783,58,67,0
333.73508,333.86783,55,56,0
334.00055,334.0967,55,56,0
334.00055,334.0967,58,67,0
334.12875,334.23245,53,53,0
334.12875,334.23245,56,63,0
334.267,334.53134,52,56,0
334.267,334.53134,55,67,0
334.7978,335.32855,52,49,0
334.7978,335.32855,55,58,0
335.32855,335.42767,64,67,0
335.32855,335.42767,60,56,0
335.59286,335.68903,63,67,0
335.59286,335.68903,60,56,0
335.72107,335.82428,58,53,0
335.72107,335.82428,61,63,0
335.8587,335.9869,56,56,0
335.8587,335.9869,60,67,0
336.12326,336.22195,60,67,0
336.12326,336.22195,56,56,0
336.25485,336.35352,58,63,0
336.25485,336.35352,55,53,0
336.3864,336.4851,53,56,0
336.3864,336.4851,56,67,0
336.64957,336.7437,53,67,0
336.64957,336.7437,50,56,0
336.7751,336.87784,55,63,0
336.7751,336.87784,51,53,0
336.91208,337.0392,53,56,0
336.91208,337.0392,56,67,0
337.17557,337.27426,51,67,0
337.17557,337.27426,48,56,0
337.30716,337.40582,53,63,0
337.30716,337.40582,50,53,0
337.43872,337.5374,51,56,0
337.43872,337.5374,55,67,0
337.70187,337.7968,50,67,0
337.70187,337.7968,47,56,0
337.82846,337.9312,48,53,0
337.82846,337.9312,51,63,0
337.96545,338.09097,53,67,0
337.96545,338.09097,50,56,0
338.2267,338.3254,45,56,0
338.2267,338.3254,48,67,0
338.3583,338.457,50,63,0
338.3583,338.457,47,53,0
338.48987,338.58856,48,56,0
338.48987,338.58856,51,67,0
338.75305,338.84796,65,67,0
338.75305,338.84796,61,56,0
338.8796,338.98236,60,53,0
338.8796,338.98236,63,63,0
339.0166,339.14212,58,57,0
339.0166,339.14212,61,68,0
339.27786,339.37656,63,69,0
339.27786,339.37656,60,57,0
339.40945,339.50815,58,55,0
339.40945,339.50815,61,65,0
339.54105,339.6397,56,58,0
339.54105,339.6397,60,70,0
339.8042,339.89914,60,71,0
339.8042,339.89914,56,59,0
340.06775,340.31882,62,71,0
340.06775,340.31882,55,59,0
340.9492,341.07315,71,76,0
340.9492,341.07315,67,64,0
341.0742,341.454,71,84,0
341.0742,341.454,67,71,0
341.454,341.57745,55,57,0
341.454,341.57745,59,68,0
341.5785,341.95193,59,75,0
341.5785,341.95193,55,63,0
341.95193,342.07538,47,60,0
341.95193,342.07538,43,51,0
342.07642,342.33173,47,67,0
342.07642,342.33173,43,56,0
342.82352,342.94647,87,53,0
342.94647,343.07413,86,47,0
343.32004,343.443,75,53,0
343.443,343.5701,74,47,0
343.815,343.93747,63,53,0
343.93747,344.06458,62,47,0
344.30948,344.43192,75,53,0
344.43192,344.5641,74,47,0
344.5641,344.9391,60,75,0
344.9391,345.06305,72,64,0
344.9391,345.06305,75,76,0
345.0641,345.44388,75,84,0
345.0641,345.44388,72,71,0
345.44388,345.56732,63,68,0
345.44388,345.56732,60,57,0
345.56836,345.9418,63,75,0
345.56836,345.9418,60,63,0
345.9418,346.06525,51,60,0
345.9418,346.06525,48,51,0
346.06628,346.3216,48,56,0
346.06628,346.3216,51,67,0
346.81342,346.93637,89,53,0
346.93637,347.06403,87,47,0
347.30994,347.43286,77,53,0
347.43286,347.56,75,47,0
347.8049,347.92734,65,53,0
347.92734,348.05444,63,47,0
348.29935,348.4218,77,53,0
348.4218,348.55396,75,47,0
348.55396,348.92896,58,75,0
348.92896,349.05292,70,64,0
348.92896,349.05292,74,76,0
349.05396,349.43378,70,71,0
349.05396,349.43378,74,84,0
349.43378,349.55722,58,57,0
349.43378,349.55722,62,68,0
349.55826,349.9317,62,75,0
349.55826,349.9317,58,63,0
349.9317,350.05515,50,60,0
349.9317,350.05515,46,51,0
350.05618,350.3115,50,67,0
350.05618,350.3115,46,56,0
350.80328,350.92624,91,60,0
350.92624,351.0539,89,54,0
351.2998,351.42276,79,66,0
351.42276,351.54987,77,59,0
351.79477,351.9172,67,71,0
351.9172,352.04434,65,64,0
352.28925,352.41168,79,76,0
352.41168,352.54385,77,69,0
352.54385,352.91885,75,75,0
352.54385,352.91885,63,75,0
352.91885,353.04282,75,64,0
352.91885,353.04282,79,76,0
353.04385,353.42365,79,84,0
353.04385,353.42365,75,71,0
353.42365,353.5471,63,57,0
353.42365,353.5471,67,68,0
353.54813,353.92157,67,75,0
353.54813,353.92157,63,63,0
353.92157,354.045,63,69,0
353.92157,354.045,51,58,0
354.04605,354.30136,51,64,0
354.04605,354.30136,63,77,0
354.9317,355.05563,62,67,0
354.9317,355.05563,74,79,0
355.0567,355.4365,62,74,0
355.0567,355.4365,74,88,0
355.4365,355.55994,62,71,0
355.4365,355.55994,50,59,0
355.56097,355.93442,50,66,0
355.56097,355.93442,62,78,0
355.93442,356.05786,38,60,0
355.93442,356.05786,50,72,0
356.0589,356.3142,38,67,0
356.0589,356.3142,50,80,0
356.95947,357.08344,71,59,0
356.95947,357.08344,68,59,0
356.95947,357.08344,62,59,0
356.95947,357.08344,65,59,0
356.95947,357.08344,74,71,0
357.08447,357.4643,65,66,0
357.08447,357.4643,62,66,0
357.08447,357.4643,68,66,0
357.08447,357.4643,71,66,0
357.08447,357.4643,74,78,0
357.4643,357.58774,62,64,0
357.4643,357.58774,50,53,0
357.4643,357.58774,56,53,0
357.4643,357.58774,53,53,0
357.4643,357.58774,59,53,0
357.58878,357.96378,53,66,0
357.58878,357.96378,59,66,0
357.58878,357.96378,62,78,0
357.58878,357.96378,50,66,0
357.58878,357.96378,56,66,0
357.96378,358.08774,50,64,0
357.96378,358.08774,41,53,0
357.96378,358.08774,44,53,0
357.96378,358.08774,38,53,0
357.96378,358.08774,47,53,0
358.08878,358.4856,44,66,0
358.08878,358.4856,38,66,0
358.08878,358.4856,47,66,0
358.08878,358.4856,50,78,0
358.08878,358.4856,41,66,0
359.0021,359.12607,76,71,0
359.0021,359.12607,67,59,0
359.0021,359.12607,62,59,0
359.0021,359.12607,70,59,0
359.1271,359.5069,67,66,0
359.1271,359.5069,76,78,0
359.1271,359.5069,62,66,0
359.1271,359.5069,70,66,0
359.5069,359.63034,55,53,0
359.5069,359.63034,58,53,0
359.5069,359.63034,50,53,0
359.5069,359.63034,64,64,0
359.63138,360.00958,55,66,0
359.63138,360.00958,58,66,0
359.63138,360.00958,50,66,0
359.63138,360.00958,64,78,0
360.00958,360.13672,38,53,0
360.00958,360.13672,46,53,0
360.00958,360.13672,43,53,0
360.00958,360.13672,52,64,0
360.1378,360.56924,46,66,0
360.1378,360.56924,43,66,0
360.1378,360.56924,38,66,0
360.1378,360.56924,52,78,0
361.10773,361.23325,69,56,0
361.10773,361.23325,74,67,0
361.10773,361.23325,62,56,0
361.10773,361.23325,66,56,0
361.2343,361.62418,62,68,0
361.2343,361.62418,74,81,0
361.2343,361.62418,69,68,0
361.2343,361.62418,66,68,0
361.62738,361.75507,62,62,0
361.62738,361.75507,50,52,0
361.75613,362.1424,50,58,0
361.75613,362.1424,62,69,0
362.1424,362.27008,38,47,0
362.1424,362.27008,50,57,0
362.27115,362.6626,50,64,0
362.27115,362.6626,38,54,0
362.6626,362.79654,50,52,0
362.79654,363.19125,38,59,0
363.19125,363.32285,62,47,0
363.32285,363.72824,50,53,0
363.72824,363.86337,62,42,0
363.86337,364.28006,50,46,0
364.28006,364.41895,62,37,0
364.41895,364.86612,50,42,0
364.86612,365.04904,71,32,0
365.04904,365.24905,59,40,0
365.24905,365.44473,71,32,0
365.44473,365.63614,70,32,0
365.63614,365.8239,71,40,0
365.8239,366.01172,66,33,0
366.01172,366.1995,71,33,0
366.1995,366.3918,67,40,0
366.3918,366.58414,71,31,0
366.58414,366.77643,67,31,0
366.77643,366.96423,71,40,0
366.96423,367.152,64,33,0
367.152,367.36255,71,33,0
367.36255,367.54602,63,40,0
367.54602,367.72952,71,31,0
367.72952,367.913,63,31,0
367.913,368.09818,71,40,0
368.09818,368.2834,59,32,0
368.2834,368.48746,71,32,0
368.48746,368.6701,59,40,0
368.6701,368.85275,64,33,0
368.85275,369.0354,59,33,0
369.0354,369.21805,67,40,0
369.21805,369.4007,64,32,0
369.4007,369.60477,67,32,0
369.60477,369.78577,66,40,0
369.78577,369.96677,71,32,0
369.96677,370.14777,66,32,0
370.14777,370.3321,71,40,0
370.3321,370.51642,66,36,0
370.51642,370.71948,71,36,0
370.71948,370.89966,66,40,0
370.89966,371.07983,70,33,0
371.07983,371.26,66,33,0
371.26,371.4402,70,40,0
371.4402,371.62036,66,34,0
371.62036,371.817,70,34,0
371.817,371.99878,66,40,0
371.99878,372.1806,71,32,0
372.1806,372.36243,66,32,0
372.36243,372.54675,71,40,0
372.54675,372.73108,66,36,0
372.73108,372.93414,71,36,0
372.93414,373.1176,70,40,0
373.1176,373.30112,73,33,0
373.30112,373.4846,70,33,0
373.4846,373.6681,73,40,0
373.6681,373.8661,70,34,0
373.8661,374.06424,73,34,0
374.06424,374.24942,66,40,0
374.24942,374.43292,71,32,0
374.43292,374.61475,66,32,0
374.61475,374.79657,71,40,0
374.79657,374.9784,66,36,0
374.9784,375.18143,71,36,0
375.18143,375.36325,66,40,0
375.36325,375.54507,70,33,0
375.54507,375.72687,66,33,0
375.72687,375.9087,70,40,0
375.9087,376.0905,66,34,0
376.0905,376.2818,70,34,0
376.2818,376.4687,66,40,0
376.4687,376.6539,71,32,0
376.6539,376.8374,66,32,0
376.8374,377.02087,71,40,0
377.02087,377.20438,66,36,0
377.20438,377.4022,71,36,0
377.4022,377.58566,70,40,0
377.58566,377.76917,73,33,0
377.76917,377.95264,70,33,0
377.95264,378.13614,73,40,0
378.39737,378.5278,30,70,0
378.5278,378.8681,34,68,0
378.87,378.98218,34,61,0
378.98407,379.15518,34,68,0
379.21222,379.29776,35,64,0
379.32626,379.41663,34,61,0
379.32626,379.41663,54,63,0
379.44675,379.61786,34,61,0
379.44675,379.78708,58,61,0
379.6749,379.846,30,61,0
379.78897,379.90112,58,54,0
379.90305,380.07413,58,61,0
380.13116,380.17395,59,48,0
380.24524,380.3356,58,51,0
380.36572,380.4798,58,51,0
380.59387,380.70792,54,51,0
382.08316,382.20364,30,63,0
382.20364,382.54395,40,61,0
382.54584,382.65802,40,54,0
382.54584,382.6599,42,63,0
382.6599,382.83102,40,61,0
382.6599,383.00214,52,61,0
383.00214,383.12262,52,54,0
383.12262,383.2937,52,61,0
383.92108,384.04205,37,63,0
384.04205,384.38235,46,61,0
384.38425,384.49643,46,54,0
384.38425,384.49832,49,63,0
384.49832,384.66943,46,61,0
384.49832,384.84055,58,61,0
384.84055,384.9576,58,54,0
384.9596,385.13068,58,61,0
385.75806,385.84915,40,63,0
385.87952,386.68103,49,72,0
386.68103,386.77402,43,66,0
386.80502,387.6127,52,75,0
387.6127,387.70724,43,69,0
387.73874,388.0836,52,77,0
388.0836,388.1698,67,71,0
388.19852,388.54324,76,77,0
388.54324,388.63324,44,73,0
388.66324,389.01343,52,71,0
389.01343,389.10098,68,74,0
389.13016,389.4777,76,79,0
389.4777,389.56915,45,76,0
389.59964,389.9458,52,75,0
389.9458,390.03232,69,78,0
390.06116,390.40506,76,86,0
390.40506,390.49506,45,83,0
390.52505,390.87122,53,93,0
390.87122,390.95773,69,86,0
390.9866,391.3449,77,97,0
391.3449,391.5173,34,88,0
391.3449,391.5173,46,100,0
391.5173,391.74545,58,110,0
391.5173,391.74545,46,110,0
391.74545,391.85953,60,97,0
391.85953,391.97357,58,88,0
391.97357,392.20172,53,97,0
392.20172,392.3158,55,97,0
392.3158,392.4573,53,90,0
392.4573,392.7193,50,97,0
392.7193,392.8503,51,97,0
392.8503,392.98132,50,91,0
392.98132,393.24332,46,97,0
393.24332,393.37433,48,97,0
393.37433,393.43555,46,97,0
393.43555,393.46616,38,88,0
393.46616,393.49677,50,89,0
393.49677,393.72934,62,110,0
393.72934,393.8456,63,97,0
393.8456,393.96188,62,88,0
393.96188,394.19446,58,97,0
394.19446,394.31073,62,97,0
394.31073,394.45496,58,90,0
394.45496,394.71927,53,97,0
394.71927,394.85144,58,93,0
394.85144,394.9836,53,88,0
394.9836,395.11575,50,78,0
395.11575,395.24792,46,73,0
395.24792,395.38007,51,40,0
395.38007,395.51224,48,35,0
395.51224,395.79526,46,29,0
395.79526,395.9251,48,34,0
395.9251,396.055,46,31,0
396.055,396.31473,53,36,0
396.055,396.31473,41,30,0
396.31473,396.4446,51,33,0
396.4446,396.57446,50,30,0
396.57446,396.84113,48,35,0
396.84113,396.982,50,33,0
396.982,397.12283,48,29,0
397.12283,397.39432,55,34,0
397.12283,397.39432,43,28,0
397.39432,397.53925,56,33,0
397.39432,397.53925,53,28,0
397.53925,397.68417,55,33,0
397.53925,397.68417,51,28,0
397.68417,397.9857,53,37,0
397.68417,397.9857,50,31,0
397.9857,398.27005,52,32,0
397.9857,398.27005,49,27,0
398.27005,398.58365,51,38,0
398.27005,398.58365,48,32,0
398.58365,398.90973,48,30,0
398.58365,398.90973,41,25,0
398.90973,399.31775,46,33,0
398.90973,399.31775,43,28,0
399.31775,399.61478,47,33,0
399.31775,399.61478,38,28,0
399.61478,400.0763,48,29,0
399.61478,400.0763,39,24,0
400.0763,401.47165,48,29,0
400.0763,401.47165,41,24,0
401.47165,401.61118,58,33,0
401.61118,401.75073,60,33,0
401.47165,401.75073,53,28,0
401.75073,402.1767,62,37,0
402.1767,402.31433,63,32,0
402.31433,402.7408,60,38,0
402.7408,402.88788,62,30,0
402.88788,403.02808,60,36,0
403.02808,403.1868,58,30,0
403.1868,403.34064,62,35,0
403.34064,403.49448,60,30,0
403.49448,403.8022,57,36,0
401.75073,403.8022,53,31,0
403.8022,403.9417,60,33,0
403.9417,404.08124,62,33,0
403.8022,404.08124,58,28,0
404.08124,404.50723,63,37,0
404.50723,404.64484,65,32,0
404.64484,405.07135,62,38,0
405.07135,405.2184,63,30,0
405.2184,405.35858,62,36,0
405.35858,405.51733,60,30,0
404.08124,405.51733,58,31,0
405.51733,405.67117,63,35,0
405.67117,405.825,62,30,0
405.51733,406.13272,58,31,0
406.13272,406.27225,62,33,0
406.27225,406.41177,63,33,0
406.13272,406.41177,58,28,0
406.41177,406.83777,65,37,0
406.83777,406.97537,66,32,0
406.41177,406.97537,58,31,0
406.97537,407.2636,63,38,0
407.2636,407.40317,63,33,0
407.40317,407.5427,65,33,0
407.2636,407.5427,61,28,0
407.5427,407.9687,66,37,0
407.9687,408.1063,68,32,0
408.1063,408.2563,65,38,0
408.2563,408.39453,71,38,0
408.39453,408.53537,70,40,0
408.53537,408.67624,68,40,0
407.5427,408.67624,61,31,0
408.67624,408.9441,66,40,0
408.9441,409.49188,70,35,0
408.67624,409.77625,61,31,0
409.49188,410.06088,68,41,0
410.06088,410.34525,66,39,0
410.34525,410.62048,73,46,0
410.62048,410.8957,71,43,0
409.77625,410.8957,61,45,0
410.8957,411.03085,71,55,0
411.03085,411.166,70,49,0
411.166,411.30112,71,54,0
411.30112,411.44397,70,50,0
411.44397,411.5791,70,55,0
411.5791,411.71423,68,47,0
411.71423,411.84937,70,56,0
411.84937,411.99155,68,49,0
410.8957,411.99155,61,47,0
411.99155,412.12668,68,56,0
412.12668,412.2618,67,49,0
412.2618,412.39697,75,57,0
412.39697,412.53848,73,50,0
412.53848,412.80875,73,57,0
412.80875,413.0902,71,51,0
411.99155,413.0902,61,49,0
413.0902,413.22473,69,58,0
413.22473,413.35574,70,54,0
413.35574,413.49026,71,54,0
413.49026,413.63663,70,54,0
413.0902,413.63663,61,51,0
413.63663,413.77115,67,59,0
413.77115,413.90216,68,52,0
413.90216,414.03668,70,52,0
414.03668,414.1823,68,53,0
413.63663,414.1823,61,52,0
414.1823,414.31744,65,60,0
414.31744,414.44846,66,57,0
414.44846,414.58298,68,56,0
414.58298,414.72653,66,56,0
414.1823,414.72653,61,53,0
414.72653,414.86227,66,62,0
414.86227,414.99802,65,57,0
414.72653,414.99802,61,54,0
414.99802,415.13376,66,57,0
415.13376,415.2746,68,57,0
414.99802,415.2746,59,55,0
415.2746,415.5524,70,59,0
415.2746,415.5524,58,46,0
415.5524,415.8428,68,55,0
415.5524,415.8428,56,44,0
415.8428,416.12186,51,48,0
415.8428,416.12186,63,61,0
416.12186,416.41367,50,45,0
416.12186,416.41367,62,56,0
416.41367,416.6994,61,62,0
416.41367,416.6994,49,49,0
416.6994,417.15985,49,61,0
417.15985,417.3153,47,71,0
416.6994,417.3153,37,48,0
417.3153,417.47073,46,73,0
417.47073,417.68973,44,78,0
417.3153,417.68973,37,58,0
417.68973,417.83057,30,64,0
417.68973,417.83057,42,78,0
417.83057,417.9702,58,61,0
417.83057,417.9702,54,51,0
417.83057,417.9702,49,51,0
417.9714,418.11108,49,51,0
417.9714,418.11108,54,51,0
417.9714,418.11108,58,61,0
418.11224,418.25073,58,61,0
418.11224,418.25308,54,51,0
418.11224,418.25308,49,51,0
418.39395,418.5336,49,45,0
418.39395,418.5336,46,45,0
418.39395,418.5336,54,53,0
418.5348,418.67447,54,54,0
418.5348,418.67447,46,45,0
418.5348,418.67447,49,45,0
418.67563,418.8249,54,54,0
418.67563,418.8249,46,45,0
418.67563,418.8249,49,45,0
418.9576,419.024,58,44,0
418.9576,419.024,54,37,0
418.9576,419.024,49,37,0
419.2231,419.2895,46,37,0
419.2231,419.2895,54,44,0
419.2231,419.2895,49,37,0
419.4886,419.55496,58,44,0
419.4886,419.55496,54,37,0
419.4886,419.55496,49,37,0
419.7541,419.8461,53,37,0
419.7541,419.8461,50,37,0
419.7541,419.8461,56,44,0
419.7541,419.8461,47,37,0
419.93814,420.07388,30,59,0
419.93814,420.07388,42,71,0
420.07388,420.2085,50,51,0
420.07388,420.2085,56,51,0
420.07388,420.2085,53,51,0
420.07388,420.2085,59,61,0
420.20963,420.34424,53,51,0
420.20963,420.34424,56,51,0
420.20963,420.34424,59,61,0
420.20963,420.34424,50,51,0
420.34537,420.4811,50,51,0
420.34537,420.4811,56,51,0
420.34537,420.4811,59,61,0
420.34537,420.4811,53,51,0
420.61685,420.7515,47,45,0
420.61685,420.7515,50,45,0
420.61685,420.7515,53,45,0
420.61685,420.7515,56,53,0
420.75262,420.88724,47,45,0
420.75262,420.88724,50,45,0
420.75262,420.88724,53,45,0
420.75262,420.88724,56,54,0
420.88837,421.0376,47,45,0
420.88837,421.0376,50,45,0
420.88837,421.0376,56,54,0
420.88837,421.0376,53,45,0
421.17035,421.23672,50,37,0
421.17035,421.23672,56,37,0
421.17035,421.23672,53,37,0
421.17035,421.23672,59,44,0
421.43585,421.50223,56,44,0
421.43585,421.50223,50,37,0
421.43585,421.50223,47,37,0
421.43585,421.50223,53,37,0
421.70132,421.7677,53,37,0
421.70132,421.7677,56,37,0
421.70132,421.7677,50,37,0
421.70132,421.7677,59,44,0
421.96683,422.06058,52,37,0
421.96683,422.06058,55,37,0
421.96683,422.06058,58,44,0
421.96683,422.06058,49,37,0
422.15433,422.2913,30,59,0
422.15433,422.2913,42,71,0
422.2913,422.42715,61,61,0
422.2913,422.42715,52,51,0
422.2913,422.42715,58,51,0
422.42828,422.56412,58,51,0
422.42828,422.56412,52,51,0
422.42828,422.56412,61,61,0
422.56528,422.70227,58,51,0
422.56528,422.70227,52,51,0
422.56528,422.70227,61,61,0
422.83923,422.9751,58,53,0
422.83923,422.9751,55,45,0
422.83923,422.9751,52,45,0
422.83923,422.9751,49,45,0
422.97623,423.1121,49,45,0
422.97623,423.1121,55,45,0
422.97623,423.1121,58,54,0
422.97623,423.1121,52,45,0
423.11322,423.26248,49,45,0
423.11322,423.26248,55,45,0
423.11322,423.26248,52,45,0
423.11322,423.26248,58,54,0
423.3952,423.46158,52,37,0
423.3952,423.46158,58,37,0
423.3952,423.46158,55,37,0
423.3952,423.46158,61,44,0
423.6607,423.72708,58,44,0
423.6607,423.72708,55,37,0
423.6607,423.72708,52,37,0
423.6607,423.72708,49,37,0
423.92618,423.99255,55,37,0
423.92618,423.99255,58,37,0
423.92618,423.99255,52,37,0
423.92618,423.99255,61,44,0
424.19168,424.2794,50,37,0
424.19168,424.2794,59,44,0
424.19168,424.2794,54,37,0
424.36713,424.50287,30,59,0
424.36713,424.50287,42,71,0
424.50287,424.63748,54,51,0
424.50287,424.63748,62,61,0
424.50287,424.63748,59,51,0
424.6386,424.77322,59,51,0
424.6386,424.77322,54,51,0
424.6386,424.77322,62,61,0
424.77435,424.9101,59,51,0
424.77435,424.9101,54,51,0
424.77435,424.9101,62,61,0
425.04584,425.18045,50,45,0
425.04584,425.18045,59,53,0
425.04584,425.18045,54,45,0
425.18158,425.31622,50,45,0
425.18158,425.31622,54,45,0
425.18158,425.31622,59,54,0
425.31735,425.46658,50,45,0
425.31735,425.46658,59,54,0
425.31735,425.46658,54,45,0
425.59933,425.6657,59,37,0
425.59933,425.6657,56,37,0
425.59933,425.6657,53,37,0
425.59933,425.6657,62,44,0
425.86484,425.93118,53,37,0
425.86484,425.93118,56,37,0
425.86484,425.93118,59,44,0
425.86484,425.93118,50,37,0
426.1303,426.1967,62,49,0
426.1303,426.1967,53,41,0
426.1303,426.1967,59,41,0
426.1303,426.1967,56,41,0
426.39578,426.46756,61,51,0
426.39578,426.46756,55,42,0
426.39578,426.46756,58,42,0
426.39578,426.46756,52,42,0
426.6721,426.73846,64,52,0
426.6721,426.73846,58,44,0
426.6721,426.73846,55,44,0
426.6721,426.73846,61,44,0
426.93756,427.00394,58,45,0
426.93756,427.00394,55,45,0
426.93756,427.00394,52,45,0
426.93756,427.00394,61,54,0
427.20306,427.2694,54,48,0
427.20306,427.2694,58,48,0
427.20306,427.2694,64,57,0
427.20306,427.2694,61,48,0
427.46854,427.53897,59,49,0
427.46854,427.53897,62,60,0
427.46854,427.53897,54,49,0
427.74097,427.80676,59,52,0
427.74097,427.80676,62,61,0
427.74097,427.80676,54,52,0
428.00412,428.06992,59,54,0
428.00412,428.06992,54,54,0
428.00412,428.06992,62,65,0
428.26727,428.33307,59,57,0
428.26727,428.33307,54,57,0
428.26727,428.33307,62,68,0
428.53043,428.60086,65,70,0
428.53043,428.60086,59,58,0
428.53043,428.60086,61,58,0
428.53043,428.60086,56,58,0
428.80286,428.86865,56,61,0
428.80286,428.86865,68,72,0
429.066,429.1318,54,61,0
429.066,429.1318,66,72,0
429.32916,429.39496,63,72,0
429.32916,429.39496,51,61,0
429.59235,429.66275,49,61,0
429.59235,429.66275,61,72,0
429.86533,429.93143,59,64,0
429.86533,429.93143,47,55,0
430.12967,430.19574,46,55,0
430.12967,430.19574,58,64,0
430.39398,430.46005,56,64,0
430.39398,430.46005,44,55,0
430.6583,430.7287,42,55,0
430.6583,430.7287,54,64,0
430.9319,430.99826,39,55,0
430.9319,430.99826,51,64,0
431.19736,431.26373,49,64,0
431.19736,431.26373,37,55,0
431.46286,431.52924,47,61,0
431.46286,431.52924,35,51,0
431.72833,431.79877,34,51,0
431.72833,431.79877,46,61,0
432.00192,432.0683,32,49,0
432.00192,432.0683,44,57,0
432.26743,432.33377,42,56,0
432.26743,432.33377,30,48,0
432.5329,432.59927,39,55,0
432.79837,432.8688,37,54,0
433.07196,433.2047,41,42,0
433.33746,433.481,37,28,0
433.61432,433.74768,44,39,0
433.881,434.0232,37,27,0
434.15652,434.28986,49,37,0
434.4232,434.56604,37,26,0
434.69937,434.8327,53,34,0
434.96603,435.11026,37,24,0
435.24915,435.38803,56,32,0
435.52695,435.68567,37,23,0
435.83795,435.9877,61,29,0
436.14252,436.32214,37,24,0
436.4926,436.66022,61,28,0
436.85056,437.09647,37,21,0
437.65204,438.20758,61,21,0
437.65204,438.20758,54,21,0
438.76312,438.8836,35,101,0
438.8836,439.22296,59,81,0
438.8836,439.22296,54,81,0
438.8836,439.22296,62,97,0
439.22583,439.33893,54,73,0
439.22583,439.33893,59,73,0
439.22583,439.33893,62,88,0
439.3399,439.56802,62,97,0
439.3399,439.56802,59,81,0
439.3399,439.56802,54,81,0
439.56802,439.6108,59,79,0
439.56802,439.6108,62,91,0
439.56802,439.6108,54,79,0
439.6821,439.73517,59,81,0
439.6821,439.73517,62,97,0
439.6821,439.73517,54,81,0
439.8236,439.95462,59,81,0
439.8236,439.95462,62,97,0
439.8236,439.95462,54,81,0
440.0856,440.2166,54,81,0
440.0856,440.2166,59,97,0
440.0856,440.2166,50,81,0
440.74063,440.8728,47,39,0
440.8728,441.2583,62,45,0
441.2583,441.38986,47,42,0
441.38986,441.77408,62,49,0
441.77408,441.90567,47,45,0
441.90567,442.28876,62,53,0
442.28876,442.4215,43,45,0
442.4215,442.80737,59,58,0
442.80737,442.93954,43,51,0
442.93954,443.32266,59,57,0
443.32266,443.45538,43,49,0
443.45538,443.84125,59,62,0
443.84125,443.97342,43,54,0
443.97342,444.35654,59,61,0
444.35654,444.48926,36,52,0
444.48926,444.87512,51,67,0
444.87512,445.0073,36,58,0
445.0073,445.3904,51,65,0
445.3904,445.52313,36,55,0
445.52313,445.909,51,71,0
445.909,446.04117,36,61,0
446.04117,446.4243,51,69,0
446.4243,446.557,29,58,0
446.557,446.94287,45,74,0
446.94287,447.07504,29,64,0
447.07504,447.45816,45,72,0
447.45816,447.59088,41,61,0
447.59088,447.97678,36,79,0
447.97678,448.10892,41,68,0
448.10892,448.49203,33,76,0
448.49203,448.63092,41,65,0
448.63092,449.04715,30,83,0
449.04715,449.20178,41,71,0
449.20178,449.51108,41,85,0
449.20178,449.51108,29,78,0
449.51108,449.6421,78,48,0
449.6421,449.78098,77,48,0
449.78098,450.05002,78,54,0
450.05002,450.18103,77,44,0
450.18103,450.3232,76,44,0
450.3232,450.59348,77,44,0
450.59348,450.72623,66,43,0
450.72623,450.86908,65,43,0
450.86908,451.14685,66,51,0
451.14685,451.28323,65,43,0
451.28323,451.4196,64,43,0
451.4196,451.68625,63,51,0
451.4196,451.68625,53,40,0
451.4196,451.68625,57,40,0
451.4196,451.68625,60,40,0
451.81958,451.95847,53,42,0
451.95847,452.22632,57,51,0
452.36026,452.50046,60,40,0
452.50046,452.7683,65,51,0
452.90222,453.03986,69,43,0
453.03986,453.3077,72,51,0
453.3077,453.44162,75,45,0
453.44162,453.58182,72,45,0
453.58182,453.71634,67,40,0
453.71634,453.8509,69,40,0
453.8509,453.9854,70,44,0
453.9854,454.12366,67,40,0
454.12366,454.2564,63,40,0
454.2564,454.38913,65,40,0
454.38913,454.52188,67,45,0
454.52188,454.66272,63,40,0
454.66272,454.79605,60,40,0
454.79605,454.92938,62,40,0
454.92938,455.06274,63,45,0
455.06274,455.2029,60,40,0
455.2029,455.33624,57,40,0
455.33624,455.46957,58,40,0
455.46957,455.6029,60,45,0
455.6029,455.74182,57,40,0
455.74182,456.00848,58,48,0
455.74182,456.00848,53,48,0
455.74182,456.00848,62,51,0
456.1418,456.2807,53,42,0
456.2807,456.54855,58,51,0
456.6825,456.82266,62,40,0
456.82266,457.0905,65,51,0
457.22446,457.36206,70,43,0
457.36206,457.6299,74,51,0
457.6299,457.76385,62,45,0
457.76385,457.90405,58,45,0
457.90405,458.03857,70,40,0
458.03857,458.1731,72,40,0
458.1731,458.30762,74,44,0
458.30762,458.44586,70,40,0
458.44586,458.5786,62,40,0
458.5786,458.71136,63,40,0
458.71136,458.84412,65,45,0
458.84412,458.98495,62,40,0
458.98495,459.1183,58,40,0
459.1183,459.25162,60,40,0
459.25162,459.38495,62,45,0
459.38495,459.5228,58,40,0
459.52515,459.65848,74,40,0
459.65848,459.7918,75,40,0
459.7918,459.92514,77,45,0
459.92514,460.06403,74,40,0
460.06403,460.2029,75,40,0
460.2029,460.3418,77,40,0
460.3418,460.47513,75,45,0
460.47513,460.61533,74,40,0
460.61533,460.74866,75,40,0
460.74866,460.882,77,40,0
460.882,461.01532,79,45,0
461.01532,461.1542,75,40,0
461.1542,461.2931,72,46,0
461.2931,461.432,74,38,0
461.432,461.56534,75,45,0
461.56534,461.7055,72,40,0
461.7055,461.83884,69,45,0
461.83884,461.97217,70,36,0
461.97217,462.1055,72,41,0
462.1055,462.24442,69,36,0
462.24442,462.3833,63,46,0
462.3833,462.5222,65,38,0
462.5222,462.65552,66,45,0
462.65552,462.7957,63,40,0
462.7957,462.92905,60,45,0
462.92905,463.06238,62,36,0
463.06238,463.1957,63,41,0
463.1957,463.3346,60,36,0
463.3346,463.47348,57,46,0
463.47348,463.61237,58,38,0
463.61237,463.7457,60,45,0
463.7457,463.8859,57,40,0
463.8859,464.01923,72,45,0
464.01923,464.15256,70,36,0
464.15256,464.2859,69,41,0
464.2859,464.42477,72,36,0
464.42477,464.56366,74,40,0
464.56366,464.70255,75,40,0
464.70255,464.83588,74,45,0
464.83588,464.97607,72,40,0
464.97607,465.1094,74,40,0
465.1094,465.24274,75,40,0
465.24274,465.37607,77,45,0
465.37607,465.51495,74,40,0
465.51495,465.65384,70,46,0
465.65384,465.79276,72,38,0
465.79276,465.9261,74,45,0
465.9261,466.06625,70,40,0
466.06625,466.1996,65,45,0
466.1996,466.33292,69,36,0
466.33292,466.46625,70,41,0
466.46625,466.60516,65,36,0
466.60516,466.74405,62,46,0
466.74405,466.88293,63,38,0
466.88293,467.01627,65,45,0
467.01627,467.15643,62,40,0
467.15643,467.2898,58,45,0
467.2898,467.42313,60,36,0
467.42313,467.55646,62,41,0
467.55646,467.69534,58,36,0
467.69534,467.83423,53,46,0
467.83423,467.9731,57,38,0
467.9731,468.10645,58,45,0
468.10645,468.24664,53,40,0
468.24664,468.38815,51,45,0
468.38815,468.52966,58,36,0
468.52966,468.6843,53,41,0
468.6843,468.83893,51,36,0
468.83893,469.14822,50,36,0
469.14822,469.45123,58,40,0
469.14822,469.45123,46,34,0
469.45123,469.60275,51,30,0
469.45123,469.60275,55,36,0
469.75427,469.89783,63,40,0
469.89783,470.04135,60,36,0
470.04135,470.34134,57,36,0
470.34134,470.62708,65,36,0
470.34134,470.62708,53,34,0
470.62708,470.78415,58,30,0
470.62708,470.78415,62,36,0
471.53894,471.8531,67,36,0
471.53894,471.8531,64,30,0
471.53894,471.8531,61,26,0
471.53894,471.8531,58,26,0
471.8531,472.18274,60,34,0
471.8531,472.18274,69,40,0
471.8531,472.18274,65,34,0
472.18274,472.3582,70,30,0
472.18274,472.3582,67,27,0
472.3582,472.53363,72,36,0
472.18274,472.53363,60,25,0
472.53363,472.8707,65,30,0
472.53363,472.8707,72,36,0
472.8707,473.11264,74,36,0
473.11264,473.1933,76,31,0
472.8707,473.1933,65,30,0
473.1933,473.51587,77,36,0
473.1933,473.51587,65,30,0
473.51587,473.6608,67,37,0
473.6608,473.80573,69,36,0
473.80573,474.11887,70,36,0
474.12152,474.41418,62,30,0
474.12152,474.41418,65,36,0
474.41418,474.56964,67,36,0
474.41418,474.56964,63,30,0
474.72507,474.87143,72,36,0
474.87143,475.01776,75,32,0
475.01776,475.3394,77,36,0
475.34207,475.6362,72,36,0
475.34207,475.6362,69,30,0
475.6362,475.79163,74,36,0
475.6362,475.79163,70,30,0
475.94708,476.09488,67,41,0
476.09488,476.24265,66,36,0
476.24265,476.55515,67,36,0
476.55515,476.87772,67,30,0
476.55515,476.87772,70,30,0
476.55515,476.87772,75,36,0
476.87772,477.20032,72,36,0
476.87772,477.20032,67,30,0
477.20032,477.5202,66,30,0
477.20032,477.5202,69,30,0
477.5229,477.8244,66,30,0
477.5229,477.8244,69,30,0
477.8244,478.11707,62,26,0
477.8244,478.11707,66,31,0
478.11707,478.41885,70,36,0
478.11707,478.41885,67,30,0
478.41885,478.56448,68,40,0
478.41885,478.56448,65,34,0
478.56448,478.72275,64,30,0
478.56448,478.72275,67,36,0
478.72406,479.02557,67,36,0
478.72406,479.02557,64,30,0
479.02557,479.31827,64,31,0
479.02557,479.31827,60,26,0
479.31827,479.62003,68,36,0
479.31827,479.62003,65,30,0
479.62003,479.76566,63,34,0
479.62003,479.76566,66,40,0
479.76566,479.92392,62,30,0
479.76566,479.92392,65,36,0
479.92523,480.22675,65,36,0
479.92523,480.22675,62,30,0
480.22675,480.51944,58,26,0
480.22675,480.51944,62,31,0
480.51944,480.82123,67,36,0
480.51944,480.82123,63,30,0
480.82123,480.96686,62,34,0
480.82123,480.96686,65,40,0
480.96686,481.1251,64,36,0
480.96686,481.1251,61,30,0
481.12643,481.42792,64,36,0
481.12643,481.42792,61,30,0
481.42792,481.7206,57,26,0
481.42792,481.7206,61,31,0
481.7206,482.0224,62,30,0
481.7206,482.0224,65,36,0
482.0224,482.16803,60,34,0
482.0224,482.16803,63,40,0
482.16803,482.32626,59,30,0
482.16803,482.32626,62,36,0
482.3276,482.6218,59,30,0
482.3276,482.6218,62,36,0
482.6218,482.77103,60,36,0
482.77103,482.9281,58,30,0
482.6218,482.9281,63,30,0
482.9281,483.2223,60,36,0
482.9281,483.2223,57,30,0
483.2223,483.37155,58,36,0
483.37155,483.52942,50,32,0
483.2223,483.52942,62,30,0
483.52942,485.26108,48,25,0
483.52942,485.26108,63,30,0
483.52942,485.26108,53,25,0
485.26108,485.86234,53,25,0
485.26108,485.86234,50,25,0
485.26108,485.86234,62,30,0
485.86234,487.61862,41,25,0
485.86234,487.61862,51,30,0
485.86234,487.61862,36,25,0
487.61862,488.219,50,30,0
487.61862,488.219,41,25,0
487.61862,488.219,38,25,0
488.219,488.82526,38,25,0
488.219,488.82526,50,30,0
488.82526,489.43314,55,28,0
488.82526,489.43314,43,23,0
489.43314,490.03113,40,25,0
489.43314,490.03113,52,30,0
490.03113,490.32965,41,24,0
490.03113,490.32965,53,29,0
490.63763,492.36926,65,25,0
490.63763,492.36926,75,30,0
490.63763,492.36926,60,25,0
492.36926,492.97052,65,25,0
492.36926,492.97052,62,25,0
492.36926,492.97052,74,30,0
492.97052,494.7268,53,25,0
492.97052,494.7268,48,25,0
492.97052,494.7268,63,30,0
494.7268,495.32718,53,25,0
494.7268,495.32718,62,30,0
494.7268,495.32718,50,25,0
495.32718,495.92032,62,30,0
495.32718,495.92032,50,25,0
495.92032,496.5151,67,28,0
495.92032,496.5151,55,23,0
496.5151,497.10037,64,30,0
496.5151,497.10037,52,25,0
497.10037,497.39023,65,29,0
497.10037,497.39023,53,24,0
497.39023,497.69388,66,29,0
497.39023,497.69388,54,24,0
497.69388,498.2849,67,31,0
497.69388,498.2849,55,26,0
498.2849,498.88184,72,30,0
498.2849,498.88184,60,25,0
498.88184,499.47125,69,33,0
498.88184,499.47125,57,28,0
499.47125,499.7625,70,34,0
499.47125,499.7625,58,28,0
499.7625,500.0669,71,34,0
499.7625,500.0669,59,28,0
500.0669,500.65793,72,36,0
500.0669,500.65793,60,30,0
500.65793,501.25482,76,35,0
500.65793,501.25482,64,29,0
501.25482,501.84216,74,39,0
501.25482,501.84216,62,34,0
501.84216,502.75525,75,39,0
501.84216,502.75525,63,39,0
502.75525,503.04794,51,66,0
502.75525,503.04794,39,56,0
503.94968,504.0982,63,69,0
503.94968,504.0982,67,82,0
504.2467,504.54373,65,79,0
504.2467,504.54373,62,67,0
504.54373,504.69226,67,81,0
504.54373,504.69226,63,68,0
504.69226,504.84076,65,71,0
504.69226,504.84076,68,84,0
504.84076,504.9893,67,74,0
504.84076,504.9893,70,88,0
505.13782,505.43048,39,56,0
505.13782,505.43048,51,66,0
506.33224,506.62927,52,74,0
506.33224,506.62927,40,62,0
506.9263,507.22333,36,67,0
506.9263,507.22333,48,79,0
507.52036,507.81738,41,62,0
507.52036,507.81738,53,74,0
508.1144,508.41144,43,61,0
508.1144,508.41144,55,72,0
508.41144,508.5578,41,50,0
508.5578,508.6954,45,50,0
508.6954,508.833,46,50,0
508.833,508.97064,50,50,0
508.97064,509.10825,53,50,0
509.10825,509.24585,57,50,0
509.24585,509.38348,58,50,0
509.38348,509.5211,62,50,0
509.5211,509.6587,65,50,0
509.6587,509.79633,69,50,0
509.79633,509.93393,70,50,0
509.93393,510.07156,74,50,0
510.34677,510.4844,70,43,0
510.4844,510.622,74,44,0
510.622,510.7596,76,45,0
510.7596,510.89725,77,46,0
510.89725,511.03485,79,47,0
511.03485,511.17245,77,48,0
511.17245,511.3101,81,50,0
511.3101,511.4477,82,51,0
511.4477,511.5853,84,52,0
511.5853,511.7231,82,53,0
511.7231,511.86316,85,54,0
511.86316,512.0061,86,55,0
512.0061,512.152,87,56,0
512.152,512.3007,86,58,0
512.3007,512.5992,89,59,0
512.5992,512.705,65,60,0
512.705,512.81085,67,63,0
512.81085,512.9469,69,66,0
512.9469,513.1469,58,40,0
513.1469,513.3426,70,32,0
513.3426,513.534,69,32,0
513.534,513.72534,70,40,0
513.72534,513.91675,69,33,0
513.91675,514.10815,70,33,0
514.10815,514.3023,66,40,0
514.3023,514.4965,70,31,0
514.4965,514.6907,66,31,0
514.6907,514.88025,70,40,0
514.88025,515.0698,63,33,0
515.0698,515.28033,70,33,0
515.28033,515.469,62,40,0
515.469,515.6577,70,31,0
515.6577,515.8464,65,31,0
515.8464,516.03503,58,40,0
516.03503,516.22375,70,32,0
516.22375,516.4278,65,32,0
516.4278,516.6165,63,40,0
516.6165,516.8052,70,33,0
516.8052,516.99384,63,33,0
516.99384,517.18256,66,40,0
517.18256,517.3712,70,32,0
517.3712,517.5753,66,32,0
517.5753,517.764,65,40,0
517.764,517.95264,70,32,0
517.95264,518.14136,65,32,0
518.14136,518.33,71,40,0
518.33,518.5187,65,36,0
518.5187,518.72174,71,36,0
518.72174,518.90955,65,40,0
518.90955,519.09735,72,33,0
519.09735,519.2851,69,33,0
519.2851,519.4729,53,40,0
519.4729,519.67096,60,34,0
519.67096,519.8691,57,34,0
519.8691,520.0295,46,40,0
520.0295,520.18414,58,33,0
520.18414,520.332,62,33,0
520.332,520.47626,58,33,0
520.47626,520.6183,53,41,0
520.6183,520.7598,58,35,0
520.7598,520.9013,68,35,0
520.9013,521.0426,58,35,0
521.0426,521.18274,55,42,0
521.18274,521.3226,58,36,0
521.3226,521.46204,70,36,0
521.46204,521.601,58,37,0
521.601,521.7411,51,44,0
521.7411,521.8824,58,37,0
521.8824,522.02997,67,37,0
522.02997,522.1875,58,38,0
522.1875,522.3296,50,45,0
522.3296,522.47095,58,37,0
522.47095,522.6115,65,37,0
522.6115,522.7512,58,37,0
522.7512,522.89075,46,46,0
522.89075,523.03107,58,39,0
523.03107,523.1762,62,40,0
523.1762,523.3273,58,40,0
523.3273,523.4693,51,48,0
523.4693,523.6105,58,42,0
523.6105,523.75085,67,42,0
523.75085,523.8906,58,42,0
523.8906,524.03125,55,51,0
524.03125,524.17285,58,43,0
524.17285,524.31885,70,43,0
524.31885,524.4719,58,43,0
524.4719,524.6144,53,50,0
524.6144,524.7572,58,44,0
524.7572,524.89935,57,48,0
524.89935,525.0412,58,51,0
525.0412,525.18243,53,54,0
525.18243,525.32306,50,55,0
525.32306,525.4683,48,55,0
525.4683,525.6188,46,54,0
525.6188,525.7608,41,54,0
525.7608,525.90204,43,49,0
525.90204,526.0426,45,49,0
526.0426,526.1817,46,49,0
526.1817,526.3215,48,54,0
526.3215,526.46216,50,50,0
526.46216,526.6038,51,59,0
526.6038,526.74646,53,66,0
526.74646,526.88043,34,66,0
526.88043,527.01434,46,56,0
527.01434,527.14825,34,66,0
527.14825,527.2822,46,56,0
527.2822,527.4198,34,66,0
527.4198,527.55743,46,57,0
527.55743,527.69763,34,66,0
527.69763,527.8378,46,57,0
527.8378,527.9711,34,66,0
527.9711,528.1045,46,57,0
528.1045,528.2378,34,66,0
528.2378,528.37115,46,58,0
528.37115,528.50446,34,66,0
528.50446,528.6378,46,59,0
528.6378,528.778,35,45,0
528.778,528.91815,47,34,0
528.91815,529.0509,36,43,0
529.0509,529.18365,48,33,0
529.18365,529.3164,35,43,0
529.3164,529.44916,47,33,0
529.44916,529.5819,36,43,0
529.5819,529.71466,48,34,0
529.71466,529.8529,39,43,0
529.8529,529.99115,51,35,0
529.99115,530.1233,40,43,0
530.1233,530.25543,52,33,0
530.25543,530.38763,43,43,0
530.38763,530.5198,55,33,0
530.5198,530.6519,41,43,0
530.6519,530.7841,53,34,0
530.7841,530.9217,41,43,0
530.9217,531.0593,53,35,0
531.0593,531.18976,41,47,0
531.18976,531.3202,53,36,0
531.3202,531.4506,46,48,0
531.4506,531.58105,58,37,0
531.58105,531.7115,41,50,0
531.7115,531.8398,53,40,0
531.8419,531.97894,53,53,0
531.97894,532.1159,65,44,0
532.1159,532.24634,41,54,0
532.24634,532.3768,53,42,0
532.3768,532.5072,46,57,0
532.5072,532.63763,58,44,0
532.63763,532.76807,41,58,0
532.76807,532.89636,53,47,0
532.8985,533.03424,53,61,0
533.03424,533.17,65,51,0
533.17,533.2966,46,59,0
533.2966,533.42316,58,50,0
533.42316,533.54974,41,61,0
533.54974,533.67633,53,51,0
533.67633,533.8029,45,64,0
533.8029,533.9295,57,55,0
533.9295,534.0561,48,67,0
534.0561,534.19824,60,58,0
534.19824,534.3259,46,68,0
534.3259,534.45355,58,63,0
534.45355,534.58124,41,71,0
534.58124,534.7089,53,63,0
534.7089,534.83655,33,71,0
534.83655,534.96423,45,60,0
534.96423,535.09186,36,71,0
535.09186,535.2327,48,63,0
535.2327,535.36035,34,68,0
535.36035,535.48804,46,63,0
535.48804,535.6157,29,71,0
535.6157,535.74335,41,63,0
535.74335,535.87103,35,71,0
535.87103,535.99866,47,60,0
535.99866,536.12634,38,71,0
536.12634,536.26715,50,63,0
536.26715,536.39484,36,68,0
536.39484,536.5225,48,63,0
536.5225,536.65015,31,71,0
536.65015,536.77783,43,63,0
536.77783,536.90546,35,71,0
536.90546,537.03314,47,60,0
537.03314,537.16077,38,71,0
537.16077,537.30164,50,63,0
537.30164,537.4293,36,68,0
537.4293,537.55695,48,63,0
537.55695,537.68463,31,71,0
537.68463,537.81226,43,63,0
537.81226,537.93994,36,71,0
537.93994,538.0676,48,60,0
538.0676,538.19525,39,71,0
538.19525,538.3361,51,63,0
538.3361,538.46375,38,68,0
538.46375,538.59143,50,63,0
538.59143,538.71906,33,71,0
538.71906,538.84674,45,62,0
538.84674,538.9744,37,70,0
538.9744,539.10205,49,59,0
539.10205,539.22974,40,69,0
539.22974,539.37054,52,61,0
539.37054,539.4982,38,66,0
539.4982,539.62585,50,61,0
539.62585,539.75354,33,68,0
539.75354,539.8812,45,61,0
539.8812,540.00885,38,68,0
540.00885,540.13654,50,57,0
540.13654,540.26416,41,67,0
540.26416,540.405,53,59,0
540.405,540.5327,39,64,0
540.5327,540.66034,51,59,0
540.66034,540.788,34,66,0
540.788,540.91565,46,59,0
540.91565,541.04333,38,66,0
541.04333,541.17096,50,55,0
541.17096,541.29865,41,66,0
541.29865,541.4395,53,57,0
541.4395,541.56714,39,62,0
541.56714,541.6948,51,57,0
541.6948,541.82245,34,64,0
541.82245,541.95013,46,57,0
541.95013,542.07776,39,63,0
542.07776,542.20544,51,54,0
542.20544,542.3331,42,63,0
542.3331,542.47394,54,56,0
542.47394,542.6016,41,60,0
542.6016,542.72925,53,56,0
542.72925,542.85693,36,62,0
542.85693,542.98456,48,55,0
542.98456,543.11224,39,62,0
543.11224,543.2399,51,52,0
543.2399,543.36755,42,61,0
543.36755,543.5084,54,54,0
543.5084,543.63605,37,58,0
543.63605,543.76373,49,54,0
543.76373,543.8914,33,60,0
543.8914,544.01904,45,53,0
544.01904,544.1467,36,60,0
544.1467,544.27435,48,50,0
544.27435,544.40204,39,59,0
544.40204,544.54285,51,52,0
544.54285,544.67444,30,56,0
544.67444,544.806,42,52,0
544.806,544.9376,29,58,0
544.9376,545.0692,41,51,0
545.0692,545.20074,33,58,0
545.20074,545.33234,45,49,0
545.33234,545.4639,39,57,0
545.4639,545.6261,51,51,0
545.6261,546.1795,46,44,0
545.6261,546.1795,34,37,0
546.1795,546.71765,56,38,0
546.1795,546.71765,44,32,0
546.71765,547.2784,54,39,0
546.71765,547.2784,42,33,0
547.2784,547.8368,51,29,0
547.2784,547.8368,39,24,0
547.8368,548.3725,50,40,0
547.8368,548.3725,38,34,0
548.3725,548.92206,46,31,0
548.3725,548.92206,34,26,0
548.92206,549.4602,51,40,0
548.92206,549.4602,39,34,0
549.4602,549.72925,58,37,0
549.4602,549.72925,54,30,0
549.72925,549.8688,58,39,0
549.8688,550.0083,60,39,0
549.72925,550.0083,55,30,0
550.0083,550.1169,58,31,0
550.1169,550.22235,60,26,0
550.0083,550.32336,53,46,0
550.22235,550.3259,58,31,0
550.32465,550.42505,60,27,0
550.42505,550.52203,58,31,0
550.32336,550.61554,55,40,0
550.52203,550.6191,60,27,0
550.61554,550.71155,58,32,0
550.71155,550.8059,60,27,0
550.61554,550.89905,56,46,0
550.8059,550.9014,58,32,0
550.90027,550.9958,60,28,0
550.9958,551.0901,58,32,0
550.89905,551.1818,53,40,0
551.0901,551.18536,60,28,0
551.1818,551.2765,58,32,0
551.2765,551.36993,60,27,0
551.1818,551.46185,55,46,0
551.36993,551.4642,58,32,0
551.463,551.5572,60,29,0
551.5572,551.6499,58,32,0
551.46185,551.7403,56,40,0
551.6499,551.7438,60,29,0
551.7403,551.8347,58,33,0
551.8347,551.92847,60,29,0
551.7403,552.0216,55,46,0
551.92847,552.024,58,34,0
552.0228,552.1192,60,30,0
552.1192,552.2245,58,34,0
552.0216,552.3267,51,40,0
552.2245,552.33026,60,30,0
552.3267,552.4227,58,35,0
552.4227,552.5172,60,29,0
552.3267,552.6102,50,46,0
552.5172,552.61255,58,35,0
552.6114,552.70636,60,32,0
552.70636,552.7998,58,35,0
552.6102,552.8905,51,40,0
552.7998,552.894,60,32,0
552.8905,552.9847,58,35,0
552.9847,553.0779,60,32,0
552.8905,553.17035,53,46,0
553.0779,553.17267,58,36,0
553.1715,553.26697,60,32,0
553.26697,553.369,58,36,0
553.17035,553.4665,50,40,0
553.369,553.47003,60,32,0
553.4665,553.5625,58,36,0
553.5625,553.65686,60,32,0
553.4665,553.74976,51,46,0
553.65686,553.7521,58,37,0
553.7509,553.8458,60,33,0
553.8458,553.93896,58,37,0
553.74976,554.02985,53,40,0
553.93896,554.0334,60,33,0
554.02985,554.12476,58,38,0
554.12476,554.2188,60,32,0
554.02985,554.31213,55,46,0
554.2188,554.3145,58,38,0
554.3133,554.40967,60,35,0
554.40967,554.5117,58,38,0
554.31213,554.6112,56,40,0
554.5117,554.61475,60,34,0
554.6112,554.7072,58,34,0
554.7072,554.8024,60,29,0
554.8024,554.8988,58,34,0
554.89764,554.9936,60,30,0
554.9936,555.0884,58,33,0
555.0884,555.184,60,29,0
555.1805,555.276,58,34,0
555.276,555.36957,60,29,0
554.6112,555.4623,55,40,0
555.36957,555.46466,58,33,0
555.4635,555.5594,60,29,0
555.5594,555.6609,58,32,0
555.4623,555.75806,56,31,0
555.6609,555.7616,60,27,0
555.75806,555.85406,58,30,0
555.85406,555.9493,60,26,0
555.9493,556.04565,58,30,0
556.04443,556.14044,60,27,0
556.14044,556.2352,58,29,0
556.2352,556.3309,60,26,0
556.32733,556.42285,58,30,0
556.42285,556.5164,60,26,0
555.75806,556.60913,55,37,0
556.5164,556.6115,58,29,0
556.61035,556.70624,60,25,0
556.70624,556.80774,58,28,0
556.60913,556.90735,53,27,0
556.80774,556.91125,60,24,0
556.90735,558.1032,62,36,0
556.90735,558.1032,53,30,0
556.91644,558.1112,58,30,0
558.3761,558.5153,70,36,0
558.5027,558.6419,69,33,0
558.6293,558.7685,67,37,0
558.75586,558.8951,65,33,0
558.88245,559.02167,67,36,0
559.00903,559.1489,69,33,0
559.13617,559.27655,70,36,0
559.2638,559.4037,72,37,0
559.39105,559.5304,74,38,0
559.51776,559.6567,75,39,0
559.64404,559.7824,77,40,0
559.7699,559.90784,79,41,0
559.8953,560.03284,81,42,0
560.0204,560.15735,82,43,0
560.26904,560.4055,41,33,0
560.39307,560.52966,43,33,0
560.5172,560.65424,45,32,0
560.6418,560.7789,46,32,0
560.76636,560.90375,48,31,0
560.89124,561.0288,50,31,0
561.0163,561.15393,51,30,0
561.1414,561.27954,53,30,0
561.26697,561.40515,55,30,0
561.39264,561.5308,57,29,0
561.51825,561.65656,58,29,0
561.6439,561.78326,60,28,0
561.7705,561.9112,62,28,0
561.8984,562.0417,63,27,0
562.0274,562.1704,62,27,0
562.1704,562.5765,58,27,0
562.1704,562.5765,62,32,0
562.57983,562.71045,58,22,0
562.57983,562.71045,62,26,0
562.71155,562.975,58,27,0
562.71155,562.975,62,32,0
563.1159,563.2569,47,74,0
563.1159,563.2569,35,62,0
563.2569,563.6575,36,77,0
563.2569,563.6575,48,92,0
563.6608,563.7909,36,52,0
563.6608,563.7909,48,62,0
563.792,564.0542,36,63,0
563.792,564.0542,48,78,0
564.1853,564.3256,62,26,0
564.1853,564.3256,59,22,0
564.3256,564.7317,60,27,0
564.3256,564.7317,63,32,0
564.7351,564.8657,60,22,0
564.7351,564.8657,63,26,0
564.8668,565.1302,60,27,0
564.8668,565.1302,63,32,0
565.2712,565.4122,49,74,0
565.2712,565.4122,37,62,0
565.4122,565.81274,38,77,0
565.4122,565.81274,50,92,0
565.8161,565.9461,38,52,0
565.8161,565.9461,50,62,0
565.9472,566.2095,38,63,0
565.9472,566.2095,50,78,0
566.3406,566.4809,64,26,0
566.3406,566.4809,61,22,0
566.4809,566.88696,62,27,0
566.4809,566.88696,65,32,0
566.8904,567.02094,62,22,0
566.8904,567.02094,65,26,0
567.02203,567.28546,62,27,0
567.02203,567.28546,65,32,0
567.4264,567.5674,50,68,0
567.4264,567.5674,38,57,0
567.5674,567.96796,39,70,0
567.5674,567.96796,51,84,0
567.9713,568.1014,39,48,0
567.9713,568.1014,51,57,0
568.1025,568.3647,39,58,0
568.1025,568.3647,51,71,0
569.5448,569.6857,51,77,0
569.5448,569.6857,39,66,0
569.6857,570.0863,29,80,0
569.6857,570.0863,41,96,0
570.0897,570.2197,29,59,0
570.0897,570.2197,41,72,0
570.2208,570.48303,29,73,0
570.2208,570.48303,41,89,0
571.4517,571.57874,30,33,0
571.5672,571.6942,29,29,0
571.6827,571.8097,30,33,0
571.79816,571.9252,29,29,0
571.91364,572.04016,30,33,0
572.0291,572.15094,29,29,0
572.1399,572.2617,33,33,0
572.2507,572.3725,34,28,0
572.36145,572.48486,33,35,0
572.4722,572.6104,34,30,0
572.5984,572.73047,30,36,0
572.7185,572.8506,29,32,0
572.83856,572.9704,30,38,0
572.9587,573.08905,29,43,0
573.0759,573.207,42,63,0
573.207,573.33795,41,53,0
573.33795,573.469,42,61,0
573.469,573.6456,41,55,0
573.0759,573.6456,34,63,0
573.6456,573.77264,30,42,0
573.7611,573.8881,29,29,0
573.8766,574.0032,30,33,0
573.99207,574.11395,29,29,0
574.10284,574.22473,33,33,0
574.2136,574.3355,34,28,0
574.3244,574.4478,33,35,0
574.4352,574.57336,34,30,0
574.56134,574.6935,30,36,0
574.68146,574.81354,29,32,0
574.8016,574.93317,30,38,0
574.92163,575.0494,29,34,0
575.0367,575.1639,42,63,0
575.1639,575.29114,41,53,0
575.29114,575.41833,42,61,0
575.41833,575.56274,41,55,0
575.0367,575.56274,34,63,0
575.56274,575.6948,30,36,0
575.6828,575.81494,29,32,0
575.8029,575.9354,30,38,0
575.92303,576.05994,29,34,0
576.04706,576.17596,42,50,0
576.17596,576.3048,41,53,0
576.3048,576.43365,42,61,0
576.43365,576.5714,41,55,0
576.04706,576.5714,34,50,0
576.5714,576.70355,30,36,0
576.6915,576.8236,29,32,0
576.8116,576.94415,30,38,0
576.9317,577.0692,29,34,0
577.0563,577.1857,42,63,0
577.1857,577.3151,41,53,0
577.3151,577.4446,42,61,0
577.4446,577.58167,41,55,0
577.0563,577.58167,34,63,0
577.58167,577.71375,30,46,0
577.7018,577.83386,29,32,0
577.82184,577.95465,30,38,0
577.94196,578.0816,29,34,0
578.06866,578.19806,42,63,0
578.19806,578.3275,41,53,0
578.3275,578.4569,42,61,0
578.4569,578.594,41,55,0
578.06866,578.594,34,63,0
578.594,578.72614,54,39,0
578.7141,578.84625,53,34,0
578.8342,578.9668,54,40,0
578.594,579.0789,46,35,0
578.9543,579.0909,53,36,0
579.0789,579.211,54,39,0
579.199,579.3311,53,34,0
579.3191,579.4516,54,40,0
579.4392,579.57526,53,36,0
579.80347,579.9235,30,48,0
579.9235,580.06,29,43,0
580.06,580.18567,42,60,0
580.18567,580.3113,41,51,0
580.3113,580.4369,42,59,0
580.4369,580.57404,41,53,0
580.06,580.57404,34,60,0
580.57404,580.7061,30,46,0
580.6941,580.82623,29,41,0
580.8142,580.947,30,48,0
580.9343,581.07404,29,43,0
581.0615,581.18665,42,60,0
581.18665,581.31177,41,51,0
581.31177,581.4368,42,59,0
581.4368,581.574,41,53,0
581.0615,581.574,34,60,0
581.574,581.70605,30,46,0
581.69403,581.8262,29,41,0
581.81415,581.94763,30,48,0
581.93427,582.0809,29,43,0
582.0683,582.1939,42,60,0
582.1939,582.3196,41,51,0
582.3196,582.4452,42,59,0
582.4452,582.5823,41,53,0
582.0683,582.5823,34,60,0
582.5823,582.7144,42,39,0
582.7024,582.8345,41,34,0
582.8225,582.955,42,40,0
582.94257,583.07916,41,36,0
583.06714,583.1993,42,39,0
583.18726,583.3194,41,34,0
583.3074,583.4399,42,40,0
583.4274,583.5515,41,36,0
582.5823,583.5515,34,35,0
583.5515,583.68005,45,39,0
583.66833,583.7969,46,34,0
583.78516,583.9131,45,40,0
583.902,584.02386,46,36,0
584.01276,584.13464,45,39,0
584.12354,584.2454,46,34,0
584.2343,584.3577,45,40,0
584.34515,584.47125,46,36,0
584.47125,584.5988,42,39,0
584.5872,584.7147,41,34,0
584.7031,584.83014,42,39,0
584.81903,584.9409,41,35,0
584.9298,585.0517,42,37,0
585.0406,585.1625,41,32,0
585.15137,585.2748,42,38,0
585.26215,585.3883,41,34,0
584.47125,585.3883,34,35,0
585.3883,585.51587,33,36,0
585.5043,585.6318,34,31,0
585.6202,585.7472,33,36,0
585.7361,585.858,34,32,0
585.84686,585.96875,33,35,0
585.95764,586.0795,34,30,0
586.0684,586.19183,33,35,0
586.1792,586.30536,34,31,0
586.30536,586.43286,30,33,0
586.42126,586.5488,29,29,0
586.53723,586.6642,30,34,0
586.65314,586.775,29,30,0
586.7639,586.8858,30,32,0
586.8747,586.9966,29,28,0
586.9855,587.1089,34,32,0
586.9855,587.1089,41,32,0
587.09625,587.2224,29,29,0
587.2224,587.3499,34,31,0
587.2224,587.3499,41,32,0
587.3383,587.4659,29,27,0
587.4543,587.58124,34,32,0
587.4543,587.58124,41,32,0
587.5702,587.692,29,28,0
587.68097,587.8028,34,31,0
587.68097,587.8028,41,32,0
587.79175,587.91364,29,27,0
587.9025,588.02594,34,32,0
587.9025,588.02594,41,32,0
588.0133,588.13947,29,28,0
588.13947,588.2554,41,27,0
588.2554,588.3713,34,23,0
588.3713,588.48724,41,27,0
588.48724,588.598,34,24,0
588.598,588.7088,41,44,0
588.7088,588.8196,34,49,0
588.8196,588.93036,41,55,0
588.8196,588.93036,46,55,0
588.93036,589.0565,34,60,0
589.0565,589.17914,46,66,0
589.0565,589.17914,41,66,0
589.17914,589.3083,34,70,0
589.3083,589.44525,46,75,0
589.3083,589.44525,41,75,0
589.44525,589.627,34,81,0
589.627,590.06244,58,97,0
589.627,590.06244,46,81,0
589.627,590.06244,50,81,0
589.627,590.06244,53,81,0
590.4978,592.2395,46,92,0
590.4978,592.2395,34,76,0
