start_time,end_time,note_value,velocity,instrument_program_number
22.976618,24.123678,68,56,0
24.123678,24.564854,68,50,0
24.564854,28.171131,68,50,0
28.171131,29.28004,68,56,0
29.28004,29.7152,68,53,0
29.7152,32.133163,68,53,0
32.133163,34.594963,69,56,0
34.594963,37.102886,68,56,0
37.102886,38.50043,66,53,0
38.50043,39.836437,71,50,0
39.836437,40.675694,64,47,0
48.640835,49.75725,67,46,0
49.75725,50.17967,67,45,0
50.17967,53.79914,67,45,0
53.79914,54.899757,67,50,0
54.899757,55.31004,67,50,0
55.31004,59.189682,67,57,0
59.189682,60.597313,66,56,0
60.597313,63.180588,66,65,0
63.180588,64.486374,67,56,0
64.486374,65.90053,64,47,0
65.90053,68.45829,66,53,0
68.45829,71.24528,66,47,0
75.07051,76.383224,71,56,0
76.383224,80.05964,72,63,0
80.05964,81.42841,70,56,0
81.42841,85.23638,71,56,0
85.23638,86.653145,71,56,0
86.653145,90.40331,72,63,0
90.40331,91.75263,70,56,0
91.75263,94.33348,71,56,0
94.33348,96.992,71,47,0
96.992,99.648796,71,47,0
99.648796,102.165276,69,52,0
102.165276,104.7545,67,56,0
104.7545,107.51817,66,52,0
107.51817,110.14506,61,47,0
110.14506,111.54313,61,47,0
111.54313,113.1953,61,41,0
117.235634,118.39123,73,56,0
118.39123,118.802986,73,56,0
118.802986,122.52835,73,61,0
122.52835,123.63301,73,56,0
123.63301,124.05543,73,56,0
124.05543,126.51033,73,65,0
126.51033,127.74617,72,61,0
127.74617,129.14859,73,63,0
129.14859,132.88799,75,65,0
132.88799,134.32355,75,72,0
134.32355,136.94016,76,86,0
136.94016,138.31302,75,65,0
138.31302,139.82806,73,56,0
213.5593,214.70224,68,56,0
214.70224,215.13106,68,56,0
215.13106,218.8413,68,56,0
218.8413,219.94392,68,56,0
219.94392,220.36024,68,56,0
220.36024,222.84743,68,56,0
222.84743,225.46954,69,56,0
225.46954,228.0969,68,56,0
228.0969,229.47159,66,56,0
229.47159,230.93639,71,56,0
230.93639,231.78073,64,56,0
234.67024,235.76341,71,61,0
235.76341,236.20537,71,56,0
236.20537,239.96336,71,61,0
239.96336,241.06398,71,63,0
241.06398,241.47426,71,56,0
241.47426,243.95808,71,63,0
243.95808,245.19392,72,65,0
245.19392,246.64127,73,72,0
246.64127,249.1916,75,75,0
249.1916,251.85036,76,56,0
251.85036,254.55798,74,56,0
254.55798,257.28625,72,56,0
257.28625,261.13965,73,56,0
261.13965,262.52313,73,56,0
262.52313,266.32697,74,71,0
266.32697,267.70566,72,56,0
267.70566,271.40335,73,56,0
271.40335,272.73892,73,56,0
272.73892,276.5297,74,68,0
276.5297,277.9435,72,56,0
277.9435,280.52075,73,61,0
280.52075,283.119,73,56,0
283.119,286.75293,71,56,0
286.75293,287.9866,71,56,0
287.9866,289.2196,69,56,0
289.2196,290.42157,69,56,0
290.42157,291.64487,68,56,0
291.64487,292.93896,68,56,0
292.93896,295.36374,66,56,0
295.36374,296.73526,68,67,0
296.73526,298.23282,69,77,0
298.23282,301.09924,68,56,0
301.09924,304.09042,68,47,0
304.09042,305.57623,61,41,0
304.09042,308.09412,44,53,0
308.09412,309.23206,44,53,0
309.23206,309.6609,44,53,0
309.6609,313.33115,44,53,0
313.33115,314.4702,44,53,0
314.4702,314.9412,44,53,0
314.9412,318.41043,44,53,0
318.41043,319.44055,44,53,0
319.44055,319.88953,44,60,0
319.88953,323.648,44,63,0
323.648,324.8049,44,62,0
324.8049,325.2683,44,60,0
325.2683,328.93018,44,53,0
328.93018,329.9457,44,53,0
329.9457,330.36203,44,56,0
330.36203,334.1616,44,63,0
334.1616,335.43976,44,61,0
335.43976,335.94382,44,53,0
335.94382,338.4671,44,53,0
338.4671,341.03745,49,53,0
341.03745,343.56784,44,50,0
0.0,0.404122,56,33,0
0.404122,0.808244,61,26,0
0.808244,1.212366,64,26,0
1.212366,1.6102254,56,33,0
1.6102254,2.0030086,61,26,0
2.0030086,2.3908384,64,26,0
2.3908384,2.7738335,56,32,0
2.7738335,3.1568284,61,26,0
3.1568284,3.5398235,64,26,0
3.5398235,3.9228184,56,35,0
3.9228184,4.3058133,61,26,0
4.3058133,4.7198067,64,26,0
4.7198067,5.112811,56,33,0
5.112811,5.505816,61,26,0
5.505816,5.8988204,64,23,0
5.8988204,6.2851443,56,30,0
6.2851443,6.6687827,61,26,0
6.6687827,7.049735,64,23,0
7.049735,7.441892,56,33,0
7.441892,7.81925,61,26,0
7.81925,8.196609,64,23,0
8.196609,8.584958,56,32,0
8.584958,8.9623165,61,26,0
8.9623165,9.387939,64,23,0
9.387939,9.79048,57,45,0
9.79048,10.187827,61,38,0
10.187827,10.58011,64,38,0
10.58011,10.966956,57,35,0
10.966956,11.353804,61,32,0
11.353804,11.799139,64,32,0
11.799139,12.202202,57,41,0
12.202202,12.603175,62,33,0
12.603175,12.995958,66,28,0
12.995958,13.382806,57,38,0
13.382806,13.769653,62,33,0
13.769653,14.192575,66,30,0
14.192575,14.599908,56,38,0
14.599908,15.007239,60,31,0
15.007239,15.414572,66,31,0
15.414572,15.821903,56,35,0
15.821903,16.229235,61,30,0
16.229235,16.636568,64,30,0
16.636568,17.053581,56,35,0
17.053581,17.470596,61,27,0
17.470596,17.887611,63,25,0
17.887611,18.343502,54,35,0
18.343502,18.799395,60,30,0
18.799395,19.255287,63,30,0
19.255287,19.68091,52,32,0
19.68091,20.092855,56,26,0
20.092855,20.504803,61,26,0
20.504803,20.907866,56,32,0
20.907866,21.310928,61,26,0
21.310928,21.713993,64,26,0
21.713993,22.134869,56,31,0
22.134869,22.555742,61,25,0
22.555742,22.976618,64,25,0
22.976618,23.476618,56,31,0
23.476618,23.976618,61,25,0
23.976618,24.564854,64,22,0
24.564854,24.999676,56,31,0
24.999676,25.419117,63,26,0
25.419117,25.824736,66,23,0
25.824736,26.220776,56,31,0
26.220776,26.60377,63,26,0
26.60377,26.986765,66,25,0
26.986765,27.381554,56,31,0
27.381554,27.776342,63,26,0
27.776342,28.171131,66,25,0
28.171131,28.653059,56,31,0
28.653059,29.134987,63,25,0
29.134987,29.7152,66,23,0
29.7152,30.136076,56,31,0
30.136076,30.556952,61,26,0
30.556952,30.955835,64,25,0
30.955835,31.346613,56,31,0
31.346613,31.72583,61,26,0
31.72583,32.133163,64,23,0
32.133163,32.573402,57,31,0
32.573402,32.994274,61,25,0
32.994274,33.410595,66,25,0
33.410595,33.805386,57,27,0
33.805386,34.200172,61,25,0
34.200172,34.594963,66,25,0
34.594963,35.030846,56,33,0
35.030846,35.45411,59,23,0
35.45411,35.864883,64,23,0
35.864883,36.263767,56,33,0
36.263767,36.66265,59,26,0
36.66265,37.102886,64,26,0
37.102886,37.564354,57,33,0
37.564354,38.02582,59,27,0
38.02582,38.50043,63,25,0
38.50043,38.945766,57,30,0
38.945766,39.3911,59,26,0
39.3911,39.836437,63,27,0
39.836437,40.276672,56,33,0
40.276672,40.702297,59,26,0
40.702297,41.12792,64,26,0
41.12792,41.54424,56,27,0
41.54424,41.95157,59,26,0
41.95157,42.358902,64,26,0
42.358902,42.76623,56,27,0
42.76623,43.173565,59,26,0
43.173565,43.5809,64,23,0
43.5809,44.01615,56,27,0
44.01615,44.45141,59,26,0
44.45141,44.924335,64,23,0
44.924335,45.35959,55,32,0
45.35959,45.794846,59,25,0
45.794846,46.230103,64,23,0
46.230103,46.64642,55,27,0
46.64642,47.045303,59,26,0
47.045303,47.444187,64,23,0
47.444187,47.84307,55,27,0
47.84307,48.24195,59,26,0
48.24195,48.640835,64,22,0
48.640835,49.12864,55,26,0
49.12864,49.616444,59,25,0
49.616444,50.17967,64,21,0
50.17967,50.598263,55,32,0
50.598263,51.007904,59,26,0
51.007904,51.40888,65,26,0
51.40888,51.803665,55,32,0
51.803665,52.198456,59,27,0
52.198456,52.593243,65,25,0
52.593243,52.988033,55,31,0
52.988033,53.38282,59,27,0
53.38282,53.79914,65,25,0
53.79914,54.281067,55,30,0
54.281067,54.762997,59,25,0
54.762997,55.31004,65,22,0
55.31004,55.75028,55,33,0
55.75028,56.171154,60,27,0
56.171154,56.59203,64,27,0
56.59203,57.037365,55,40,0
57.037365,57.453686,59,33,0
57.453686,57.870003,64,33,0
57.870003,58.325897,55,38,0
58.325897,58.759388,61,42,0
58.759388,59.189682,64,47,0
59.189682,59.668495,54,41,0
59.668495,60.124386,61,35,0
60.124386,60.597313,64,27,0
60.597313,61.05878,54,38,0
61.05878,61.47809,59,32,0
61.47809,61.89441,62,27,0
61.89441,62.34496,54,33,0
62.34496,62.76427,59,27,0
62.76427,63.180588,62,27,0
63.180588,63.61088,55,35,0
63.61088,64.046135,59,27,0
64.046135,64.486374,61,27,0
64.486374,64.93171,52,35,0
64.93171,65.38293,59,27,0
65.38293,65.90053,61,23,0
65.90053,66.35642,54,41,0
66.35642,66.77274,59,35,0
66.77274,67.18906,62,32,0
67.18906,67.63439,54,38,0
67.63439,68.04634,59,31,0
68.04634,68.45829,62,28,0
68.45829,68.89852,54,31,0
68.89852,69.33876,58,26,0
69.33876,69.779,61,23,0
69.779,70.24618,54,31,0
70.24618,70.71336,58,26,0
70.71336,71.24528,61,23,0
71.24528,71.73909,59,32,0
71.73909,72.192696,62,27,0
72.192696,72.611534,66,25,0
72.611534,73.010414,59,27,0
73.010414,73.39341,62,26,0
73.39341,73.776405,66,26,0
73.776405,74.192726,59,41,0
74.192726,74.60905,63,38,0
74.60905,75.07051,66,38,0
75.07051,75.49613,59,41,0
75.49613,75.92175,63,38,0
75.92175,76.383224,66,35,0
76.383224,76.80239,59,41,0
76.80239,77.21315,64,41,0
77.21315,77.61518,67,45,0
77.61518,78.01048,59,47,0
78.01048,78.40527,64,53,0
78.40527,78.821594,67,56,0
78.821594,79.2517,59,61,0
79.2517,79.65163,64,60,0
79.65163,80.05964,67,56,0
80.05964,80.48814,59,52,0
80.48814,80.94282,64,46,0
80.94282,81.42841,67,31,0
81.42841,81.88431,59,37,0
81.88431,82.30518,63,35,0
82.30518,82.70922,66,35,0
82.70922,83.13484,59,40,0
83.13484,83.52963,63,35,0
83.52963,83.92442,66,35,0
83.92442,84.35968,59,41,0
84.35968,84.767006,63,37,0
84.767006,85.23638,66,33,0
85.23638,85.69785,59,41,0
85.69785,86.15932,63,37,0
86.15932,86.653145,66,37,0
86.653145,87.12032,59,41,0
87.12032,87.54302,64,45,0
87.54302,87.95156,67,52,0
87.95156,88.35044,59,55,0
88.35044,88.74933,64,56,0
88.74933,89.170204,67,57,0
89.170204,89.573265,59,60,0
89.573265,89.968056,64,60,0
89.968056,90.40331,67,56,0
90.40331,90.882126,59,52,0
90.882126,91.317375,64,41,0
91.317375,91.75263,67,35,0
91.75263,92.16895,59,41,0
92.16895,92.58527,63,35,0
92.58527,93.001595,66,33,0
93.001595,93.417915,59,35,0
93.417915,93.83423,63,30,0
93.83423,94.33348,66,30,0
94.33348,94.77372,59,35,0
94.77372,95.19004,62,27,0
95.19004,95.60636,65,27,0
95.60636,96.0466,59,30,0
96.0466,96.467476,62,25,0
96.467476,96.992,65,25,0
96.992,97.45346,59,30,0
97.45346,97.91493,61,27,0
97.91493,98.376396,68,25,0
98.376396,98.80669,59,30,0
98.80669,99.227745,61,26,0
99.227745,99.648796,68,26,0
99.648796,100.06512,57,30,0
100.06512,100.46818,61,26,0
100.46818,100.87124,66,26,0
100.87124,101.27013,57,35,0
101.27013,101.68207,61,31,0
101.68207,102.165276,66,31,0
102.165276,102.58615,55,41,0
102.58615,103.00703,59,38,0
103.00703,103.4279,62,38,0
103.4279,103.84878,55,41,0
103.84878,104.26965,59,38,0
104.26965,104.7545,62,38,0
104.7545,105.2246,54,41,0
105.2246,105.67261,57,38,0
105.67261,106.10062,63,38,0
106.10062,106.53587,54,35,0
106.53587,106.97113,57,31,0
106.97113,107.51817,63,26,0
107.51817,107.96351,49,30,0
107.96351,108.408844,54,27,0
108.408844,108.85418,57,27,0
108.85418,109.28447,49,30,0
109.28447,109.71476,54,27,0
109.71476,110.14506,57,27,0
110.14506,110.5853,49,30,0
110.5853,111.02553,54,26,0
111.02553,111.54313,56,26,0
111.54313,112.02798,49,30,0
112.02798,112.56735,53,26,0
112.56735,113.1953,56,22,0
113.1953,113.73467,54,32,0
113.73467,114.232185,57,26,0
114.232185,114.70511,61,26,0
114.70511,115.1354,57,30,0
115.1354,115.53846,61,26,0
115.53846,115.94153,66,26,0
115.94153,116.35785,61,30,0
116.35785,116.77417,66,26,0
116.77417,117.235634,69,26,0
117.235634,117.74197,61,41,0
117.74197,118.24829,66,33,0
118.24829,118.802986,69,26,0
118.802986,119.23397,61,37,0
119.23397,119.65262,68,32,0
119.65262,120.0595,71,32,0
120.0595,120.45838,61,41,0
120.45838,120.85727,68,35,0
120.85727,121.25615,71,35,0
121.25615,121.67247,61,41,0
121.67247,122.08879,68,35,0
122.08879,122.52835,71,35,0
122.52835,123.01028,61,41,0
123.01028,123.4922,68,35,0
123.4922,124.05543,71,35,0
124.05543,124.47572,61,41,0
124.47572,124.88692,66,38,0
124.88692,125.2894,69,38,0
125.2894,125.68481,61,41,0
125.68481,126.08022,66,42,0
126.08022,126.51033,69,45,0
126.51033,126.92228,60,46,0
126.92228,127.33422,66,42,0
127.33422,127.74617,69,41,0
127.74617,128.18143,61,47,0
128.18143,128.61668,66,42,0
128.61668,129.14859,69,42,0
129.14859,129.59393,63,52,0
129.59393,130.0148,66,50,0
130.0148,130.43568,68,48,0
130.43568,130.83875,63,53,0
130.83875,131.22952,66,50,0
131.22952,131.6203,68,50,0
131.6203,132.02763,63,56,0
132.02763,132.42651,66,52,0
132.42651,132.88799,68,52,0
132.88799,133.32822,63,57,0
133.32822,133.76846,66,56,0
133.76846,134.32355,68,56,0
134.32355,134.7638,64,61,0
134.7638,135.17113,68,57,0
135.17113,135.57846,73,55,0
135.57846,136.00856,64,52,0
136.00856,136.42944,68,48,0
136.42944,136.94016,73,48,0
136.94016,137.41191,63,45,0
137.41191,137.86246,66,41,0
137.86246,138.31302,69,41,0
138.31302,138.83754,61,40,0
138.83754,139.31046,64,38,0
139.31046,139.82806,70,33,0
139.82806,140.31291,72,52,0
140.31291,140.75893,60,52,0
140.75893,141.18991,63,52,0
141.61078,142.03166,60,52,0
142.03166,142.48755,63,53,0
141.18991,142.48755,68,65,0
142.90387,143.32019,60,52,0
143.32019,143.73651,63,52,0
142.48755,143.73651,69,77,0
144.17177,144.60703,60,52,0
144.60703,145.04228,63,53,0
143.73651,145.04228,66,65,0
145.4586,145.85748,60,52,0
145.85748,146.25636,63,52,0
146.68666,147.08972,60,53,0
147.08972,147.5603,63,53,0
146.25636,147.5603,56,65,0
148.01833,148.46434,60,53,0
148.46434,148.89897,63,53,0
147.5603,148.89897,57,76,0
149.3246,149.75023,60,52,0
149.75023,150.2174,63,46,0
148.89897,150.2174,54,60,0
150.2174,150.6496,52,52,0
150.6496,151.0711,64,52,0
151.0711,151.48242,68,52,0
151.88548,152.28854,64,52,0
152.28854,152.71408,68,47,0
151.48242,152.71408,73,65,0
153.12602,153.54707,64,65,0
153.54707,153.96812,68,65,0
152.71408,153.96812,76,76,0
154.40768,154.824,64,53,0
154.824,155.24033,68,50,0
153.96812,155.24033,73,65,0
155.64339,156.04646,52,52,0
156.04646,156.4584,56,52,0
156.87473,157.29105,52,52,0
157.29105,157.7525,56,52,0
156.4584,157.7525,61,61,0
158.18776,158.62302,52,48,0
158.62302,159.05827,56,48,0
157.7525,159.05827,64,75,0
159.5312,160.00412,52,53,0
160.00412,160.5934,56,50,0
159.05827,160.5934,61,65,0
160.5934,161.12532,51,65,0
161.12532,161.60413,57,52,0
161.60413,162.01146,54,52,0
162.01146,162.39445,60,53,0
162.39445,162.77745,57,52,0
162.77745,163.15779,63,52,0
163.15779,163.53416,60,52,0
163.53416,163.90665,66,52,0
163.90665,164.27487,63,52,0
164.27487,164.71013,69,52,0
164.71013,165.16989,66,52,0
165.16989,165.6577,72,52,0
165.6577,166.09296,52,65,0
166.09296,166.49236,61,52,0
166.49236,166.88869,56,52,0
166.88869,167.28275,64,48,0
167.28275,167.65822,61,52,0
167.65822,168.04654,68,52,0
168.04654,168.42657,64,53,0
168.42657,168.82613,73,52,0
168.82613,169.23409,68,52,0
169.23409,169.68463,76,53,0
169.68463,170.11989,73,52,0
170.11989,170.63698,68,52,0
170.63698,171.03537,61,65,0
171.03537,171.42273,67,55,0
171.42273,171.80011,64,55,0
171.80011,172.17192,70,56,0
172.17192,172.52591,67,56,0
172.52591,172.89627,73,62,0
172.89627,173.27927,70,62,0
173.27927,173.66226,76,68,0
173.66226,174.04526,73,67,0
174.04526,174.47089,79,71,0
174.47089,174.8965,76,68,0
174.8965,175.50278,82,68,0
175.50278,175.91473,66,76,0
175.91473,176.29395,72,72,0
176.29395,176.64793,69,70,0
176.64793,177.0092,75,78,0
177.0092,177.35703,72,76,0
177.35703,177.71739,78,82,0
177.71739,178.06827,75,80,0
178.06827,178.4421,81,83,0
178.4421,178.80246,78,81,0
178.80246,179.19461,84,88,0
179.19461,179.56845,81,83,0
179.56845,180.00801,87,92,0
180.00801,180.46255,84,97,0
180.46255,180.83073,78,90,0
180.83073,181.18472,81,82,0
181.18472,181.55653,75,90,0
181.55653,181.91368,78,83,0
181.91368,182.28752,72,90,0
182.28752,182.64787,75,82,0
182.64787,183.02882,69,90,0
183.02882,183.39247,72,82,0
183.39247,183.77545,66,90,0
183.77545,184.14243,69,82,0
184.14243,184.5243,63,88,0
184.5243,184.90167,66,82,0
184.90167,185.28741,60,87,0
185.28741,185.66812,63,81,0
185.66812,186.05568,57,85,0
186.05568,186.46301,60,77,0
186.46301,186.87033,54,85,0
186.87033,187.2859,57,80,0
187.72614,188.16637,54,75,0
187.2859,188.16637,51,82,0
188.60661,189.04684,54,75,0
189.04684,189.44685,57,71,0
188.16637,189.44685,49,83,0
189.8588,190.23975,54,70,0
190.23975,190.60672,56,70,0
190.60672,190.9949,57,70,0
190.9949,191.39378,56,67,0
191.39378,191.79266,54,67,0
189.44685,191.79266,48,80,0
192.22792,192.62271,54,68,0
192.62271,193.0175,57,68,0
191.79266,193.0175,51,78,0
193.4123,193.79913,54,65,0
193.79913,194.28511,57,65,0
193.0175,194.28511,49,78,0
194.70598,195.07417,54,65,0
195.07417,195.44235,56,65,0
195.44235,195.82874,57,63,0
195.82874,196.2256,56,62,0
196.2256,196.7295,54,62,0
194.28511,196.7295,48,77,0
197.1854,197.6047,54,70,0
197.6047,198.03949,57,71,0
196.7295,198.03949,50,78,0
198.48482,198.90114,54,65,0
198.90114,199.38307,57,65,0
198.03949,199.38307,49,76,0
199.81786,200.2219,54,68,0
200.2219,200.60873,56,68,0
200.60873,201.00874,57,66,0
201.00874,201.43904,56,65,0
201.43904,201.86932,54,63,0
199.38307,201.86932,48,78,0
201.86932,202.28564,49,68,0
202.28564,202.68044,52,63,0
202.68044,203.11569,61,62,0
203.11569,203.53201,49,68,0
203.53201,203.94833,52,62,0
203.94833,204.4081,61,62,0
204.4081,204.82442,51,76,0
204.82442,205.24074,57,65,0
205.24074,205.6329,61,61,0
205.6329,206.04956,51,65,0
206.04956,206.46623,57,57,0
206.46623,206.97696,61,56,0
206.97696,207.41719,51,60,0
207.41719,207.85744,56,52,0
207.85744,208.27849,60,52,0
208.27849,208.71805,51,47,0
208.71805,209.15761,54,45,0
209.15761,209.72083,60,40,0
209.72083,210.17747,52,41,0
210.17747,210.62029,56,38,0
210.62029,211.05006,61,37,0
211.05006,211.47095,56,41,0
211.47095,211.86699,61,38,0
211.86699,212.28365,64,38,0
212.28365,212.7342,56,41,0
212.7342,213.13824,61,38,0
213.13824,213.5593,64,38,0
213.5593,214.0593,56,41,0
214.0593,214.5593,61,37,0
214.5593,215.13106,64,33,0
215.13106,215.57738,56,41,0
215.57738,216.01219,63,37,0
216.01219,216.4355,66,37,0
216.4355,216.84746,56,40,0
216.84746,217.2594,63,38,0
217.2594,217.64401,66,38,0
217.64401,218.05219,56,41,0
218.05219,218.46034,63,38,0
218.46034,218.8413,66,37,0
218.8413,219.32323,56,41,0
219.32323,219.80515,63,38,0
219.80515,220.36024,66,35,0
220.36024,220.7955,56,41,0
220.7955,221.19856,61,40,0
221.19856,221.60162,64,40,0
221.60162,221.9924,56,41,0
221.9924,222.38318,61,38,0
222.38318,222.84743,64,37,0
222.84743,223.29277,57,41,0
223.29277,223.7381,61,40,0
223.7381,224.16373,66,38,0
224.16373,224.57567,57,41,0
224.57567,224.98763,61,38,0
224.98763,225.46954,66,36,0
225.46954,225.92545,56,41,0
225.92545,226.35106,59,37,0
226.35106,226.77669,64,37,0
226.77669,227.17557,56,40,0
227.17557,227.60587,59,37,0
227.60587,228.0969,64,37,0
228.0969,228.53732,57,40,0
228.53732,228.97777,59,35,0
228.97777,229.47159,63,35,0
229.47159,229.93964,57,40,0
229.93964,230.4077,59,35,0
230.4077,230.93639,63,32,0
230.93639,231.38171,56,40,0
231.38171,231.80734,59,37,0
231.80734,232.23296,64,37,0
232.23296,232.62373,59,40,0
232.62373,233.01451,64,37,0
233.01451,233.40529,68,37,0
233.40529,233.80417,59,40,0
233.80417,234.20306,64,37,0
234.20306,234.67024,68,37,0
234.67024,235.14316,59,40,0
235.14316,235.61609,64,37,0
235.61609,236.20537,68,32,0
236.20537,236.66125,59,40,0
236.66125,237.11714,66,33,0
237.11714,237.54277,69,31,0
237.54277,237.94583,59,40,0
237.94583,238.34421,66,32,0
238.34421,238.73749,69,32,0
238.73749,239.12581,59,40,0
239.12581,239.50882,66,32,0
239.50882,239.96336,69,32,0
239.96336,240.44528,59,40,0
240.44528,240.92722,66,33,0
240.92722,241.47426,69,33,0
241.47426,241.87315,59,40,0
241.87315,242.27203,64,35,0
242.27203,242.67091,68,35,0
242.67091,243.08286,59,40,0
243.08286,243.49481,64,35,0
243.49481,243.95808,68,35,0
243.95808,244.37004,60,40,0
244.37004,244.78198,66,46,0
244.78198,245.19392,68,50,0
245.19392,245.63004,61,55,0
245.63004,246.09332,64,60,0
246.09332,246.64127,68,60,0
246.64127,247.09717,63,60,0
247.09717,247.52278,66,52,0
247.52278,247.94841,68,52,0
247.94841,248.36035,63,53,0
248.36035,248.7723,66,50,0
248.7723,249.1916,68,50,0
249.1916,249.60582,64,48,0
249.60582,250.01776,68,40,0
250.01776,250.42972,73,40,0
250.42972,250.86995,64,40,0
250.86995,251.32584,68,33,0
251.32584,251.85036,73,33,0
251.85036,252.2906,62,40,0
252.2906,252.71147,66,37,0
252.71147,253.13235,69,37,0
253.13235,253.5829,62,40,0
253.5829,254.03345,66,37,0
254.03345,254.55798,69,37,0
254.55798,254.98827,60,40,0
254.98827,255.41856,66,37,0
255.41856,255.84885,68,37,0
255.84885,256.30475,60,40,0
256.30475,256.745,66,37,0
256.745,257.28625,68,35,0
257.28625,257.79016,61,40,0
257.79016,258.25735,64,33,0
258.25735,258.6926,68,30,0
258.6926,259.0999,61,40,0
259.0999,259.4907,64,33,0
259.4907,259.921,68,31,0
259.921,260.3199,61,40,0
260.3199,260.71878,65,33,0
260.71878,261.13965,68,33,0
261.13965,261.55597,61,40,0
261.55597,261.9912,65,31,0
261.9912,262.52313,68,30,0
262.52313,262.99033,61,40,0
262.99033,263.43564,66,42,0
263.43564,263.85654,69,40,0
263.85654,264.25958,61,46,0
264.25958,264.65036,66,47,0
264.65036,265.06668,69,47,0
265.06668,265.47864,61,53,0
265.47864,265.8775,66,55,0
265.8775,266.32697,69,53,0
266.32697,266.76718,61,61,0
266.76718,267.18805,66,60,0
267.18805,267.70566,69,52,0
267.70566,268.1459,61,45,0
268.1459,268.58615,65,37,0
268.58615,269.00247,68,36,0
269.00247,269.3908,61,40,0
269.3908,269.77914,65,35,0
269.77914,270.1675,68,35,0
270.1675,270.57944,61,40,0
270.57944,270.9914,65,33,0
270.9914,271.40335,68,33,0
271.40335,271.82422,61,40,0
271.82422,272.2451,65,33,0
272.2451,272.73892,68,28,0
272.73892,273.18427,61,40,0
273.18427,273.6099,66,42,0
273.6099,274.0355,69,46,0
274.0355,274.44284,61,47,0
274.44284,274.85016,66,48,0
274.85016,275.23853,69,55,0
275.23853,275.6594,61,57,0
275.6594,276.08026,66,56,0
276.08026,276.5297,69,55,0
276.5297,276.96994,61,61,0
276.96994,277.4102,66,55,0
277.4102,277.9435,69,37,0
277.9435,278.3994,61,46,0
278.3994,278.8553,65,38,0
278.8553,279.28558,68,38,0
279.28558,279.67242,61,40,0
279.67242,280.0593,65,37,0
280.0593,280.52075,68,37,0
280.52075,280.9713,61,42,0
280.9713,281.4016,66,37,0
281.4016,281.83188,69,37,0
281.83188,282.22668,61,40,0
282.22668,282.62146,66,37,0
282.62146,283.119,69,37,0
283.119,283.54462,59,47,0
283.54462,283.9394,66,40,0
283.9394,284.33417,69,40,0
284.33417,284.73724,59,40,0
284.73724,285.14032,66,38,0
285.14032,285.51767,69,37,0
285.51767,285.91766,59,40,0
285.91766,286.31766,66,38,0
286.31766,286.75293,69,37,0
286.75293,287.1477,59,40,0
287.1477,287.5307,64,38,0
287.5307,287.9866,68,33,0
287.9866,288.39853,57,40,0
288.39853,288.7893,64,37,0
288.7893,289.2196,68,37,0
289.2196,289.6144,57,40,0
289.6144,290.0092,63,37,0
290.0092,290.42157,66,37,0
290.42157,290.82043,56,40,0
290.82043,291.21933,63,37,0
291.21933,291.64487,66,37,0
291.64487,292.0612,56,40,0
292.0612,292.4775,61,37,0
292.4775,292.93896,64,37,0
292.93896,293.3553,54,40,0
293.3553,293.74606,61,42,0
293.74606,294.13684,63,46,0
294.13684,294.52762,54,46,0
294.52762,294.9184,61,47,0
294.9184,295.36374,63,50,0
295.36374,295.80396,56,53,0
295.80396,296.2442,61,53,0
296.2442,296.73526,63,53,0
296.73526,297.20242,57,60,0
297.20242,297.66962,61,57,0
297.66962,298.23282,63,55,0
298.23282,298.76474,56,40,0
298.76474,299.26227,61,37,0
299.26227,299.7471,64,35,0
299.7471,300.20856,56,40,0
300.20856,300.6539,61,37,0
300.6539,301.09924,64,37,0
301.09924,301.5498,54,40,0
301.5498,302.00034,60,35,0
302.00034,302.51108,63,31,0
302.51108,302.98166,54,30,0
302.98166,303.45224,60,26,0
303.45224,304.09042,63,26,0
304.09042,304.66217,52,37,0
304.66217,305.141,56,32,0
305.141,305.57623,61,32,0
305.57623,305.9882,56,37,0
305.9882,306.39124,61,32,0
306.39124,306.83148,64,32,0
306.83148,307.25235,56,37,0
307.25235,307.67322,61,31,0
307.67322,308.09412,64,31,0
308.09412,308.5916,56,37,0
308.5916,309.08914,61,30,0
309.08914,309.6609,64,30,0
309.6609,310.08826,56,37,0
310.08826,310.5046,63,33,0
310.5046,310.90988,66,33,0
310.90988,311.30066,56,37,0
311.30066,311.69144,63,30,0
311.69144,312.0822,66,30,0
312.0822,312.49854,56,37,0
312.49854,312.91483,63,30,0
312.91483,313.33115,66,30,0
313.33115,313.8222,56,37,0
313.8222,314.31323,63,30,0
314.31323,314.9412,66,30,0
314.9412,315.35303,56,37,0
315.35303,315.75043,64,35,0
315.75043,316.1349,61,40,0
316.1349,316.5104,68,45,0
316.5104,316.88593,64,48,0
316.88593,317.26144,73,50,0
317.26144,317.64444,68,48,0
317.64444,318.02744,76,53,0
318.02744,318.41043,73,60,0
318.41043,318.85065,80,62,0
318.85065,319.2909,76,65,0
319.2909,319.88953,73,71,0
319.88953,320.37436,72,75,0
320.37436,320.77905,75,75,0
320.77905,321.17334,69,75,0
321.17334,321.55685,72,70,0
321.55685,321.93237,66,65,0
321.93237,322.3192,69,63,0
322.3192,322.70605,63,61,0
322.70605,323.0929,66,57,0
323.0929,324.1656,57,52,0
324.1656,324.65045,56,47,0
324.65045,325.2683,54,47,0
323.648,325.2683,60,50,0
325.2683,325.68918,61,42,0
325.2683,325.68918,52,42,0
325.68918,326.06653,64,40,0
326.06653,326.44388,61,45,0
326.44388,326.82687,68,48,0
326.82687,327.22995,64,53,0
327.22995,327.63303,73,60,0
327.63303,328.03607,68,61,0
328.03607,328.43915,76,63,0
328.43915,328.93018,73,65,0
328.93018,329.35104,80,67,0
329.35104,329.80695,76,68,0
329.80695,330.36203,73,70,0
330.36203,330.86594,72,75,0
330.86594,331.2733,75,68,0
331.2733,331.6806,69,65,0
331.6806,332.06522,72,61,0
332.06522,332.4734,66,60,0
332.4734,332.85434,69,53,0
332.85434,333.2625,63,50,0
333.2625,333.65085,66,48,0
333.65085,334.71667,57,46,0
334.71667,335.27176,56,37,0
335.27176,335.94382,54,35,0
334.1616,335.94382,60,41,0
335.94382,336.44772,52,50,0
335.94382,336.44772,61,50,0
336.44772,336.88794,56,50,0
336.88794,337.28275,61,50,0
337.28275,337.67752,64,48,0
337.67752,338.07233,61,48,0
338.07233,338.4671,56,47,0
338.86188,339.25668,52,47,0
339.25668,339.6823,56,47,0
339.6823,340.1079,61,47,0
340.1079,340.53354,56,46,0
340.53354,341.03745,52,46,0
341.47272,341.88492,49,45,0
341.83337,342.22684,52,45,0
342.2757,342.71094,56,42,0
342.71094,343.1462,52,42,0
343.1462,343.58145,49,41,0
343.58145,344.0088,44,41,0
344.0088,344.41232,49,41,0
344.41232,344.81873,44,40,0
344.81873,345.24435,40,40,0
345.24435,345.77625,44,38,0
345.77625,346.5276,40,37,0
346.5276,349.80984,37,38,0
349.80984,353.1035,56,31,0
349.80984,353.1035,52,31,0
349.80984,353.1035,61,37,0
353.1035,361.98392,56,31,0
353.1035,361.98392,52,31,0
353.1035,361.98392,61,37,0
0.0,4.7198067,49,35,0
0.0,4.7198067,37,35,0
4.7198067,9.387939,47,35,0
4.7198067,9.387939,35,35,0
9.387939,11.799139,33,41,0
9.387939,11.799139,45,41,0
11.799139,14.192575,42,38,0
11.799139,14.192575,30,38,0
14.192575,16.636568,44,41,0
14.192575,16.636568,32,41,0
16.636568,19.255287,32,35,0
16.636568,19.255287,44,35,0
19.255287,24.564854,44,35,0
19.255287,24.564854,49,35,0
19.255287,24.564854,37,35,0
24.564854,29.7152,48,38,0
24.564854,29.7152,44,38,0
24.564854,29.7152,36,38,0
29.7152,32.133163,49,35,0
29.7152,32.133163,37,35,0
32.133163,34.594963,30,32,0
32.133163,34.594963,42,32,0
34.594963,37.102886,47,41,0
34.594963,37.102886,35,41,0
37.102886,39.836437,47,41,0
37.102886,39.836437,35,41,0
39.836437,44.924335,40,35,0
39.836437,44.924335,52,35,0
44.924335,50.17967,40,38,0
44.924335,50.17967,52,38,0
50.17967,55.31004,50,35,0
50.17967,55.31004,38,35,0
55.31004,56.59203,48,40,0
55.31004,56.59203,36,40,0
56.59203,57.870003,35,46,0
56.59203,57.870003,47,46,0
57.870003,60.597313,46,53,0
57.870003,60.597313,34,53,0
60.597313,63.180588,47,42,0
60.597313,63.180588,35,42,0
63.180588,64.486374,40,41,0
64.486374,65.90053,43,40,0
65.90053,68.45829,42,46,0
68.45829,71.24528,42,35,0
68.45829,71.24528,30,35,0
71.24528,77.61518,47,35,0
71.24528,77.61518,35,35,0
77.61518,78.821594,40,53,0
77.61518,78.821594,52,53,0
78.821594,80.05964,55,60,0
78.821594,80.05964,43,60,0
80.05964,81.42841,52,48,0
80.05964,81.42841,40,48,0
81.42841,87.95156,35,42,0
81.42841,87.95156,47,42,0
87.95156,89.170204,40,50,0
87.95156,89.170204,52,50,0
89.170204,90.40331,55,55,0
89.170204,90.40331,43,55,0
90.40331,91.75263,40,41,0
90.40331,91.75263,52,41,0
91.75263,94.33348,47,37,0
91.75263,94.33348,35,37,0
94.33348,96.992,44,35,0
94.33348,96.992,32,35,0
96.992,99.648796,29,35,0
96.992,99.648796,41,35,0
99.648796,102.165276,42,41,0
99.648796,102.165276,30,41,0
102.165276,104.7545,35,41,0
102.165276,104.7545,47,41,0
104.7545,107.51817,48,45,0
104.7545,107.51817,36,45,0
107.51817,110.14506,37,35,0
110.14506,113.1953,37,35,0
113.1953,118.802986,30,35,0
113.1953,118.802986,42,35,0
113.1953,118.802986,37,35,0
118.802986,124.05543,41,33,0
118.802986,124.05543,53,33,0
118.802986,124.05543,49,33,0
124.05543,126.51033,42,40,0
124.05543,126.51033,54,40,0
126.51033,127.74617,39,46,0
126.51033,127.74617,51,46,0
127.74617,129.14859,49,46,0
127.74617,129.14859,37,46,0
129.14859,132.88799,48,50,0
129.14859,132.88799,44,50,0
129.14859,132.88799,36,50,0
132.88799,134.32355,48,48,0
132.88799,134.32355,44,48,0
132.88799,134.32355,36,48,0
134.32355,136.94016,49,55,0
134.32355,136.94016,44,55,0
134.32355,136.94016,37,55,0
136.94016,138.31302,30,46,0
136.94016,138.31302,42,46,0
138.31302,139.82806,43,45,0
138.31302,139.82806,31,45,0
139.82806,145.04228,44,41,0
139.82806,145.04228,32,41,0
145.04228,150.2174,32,53,0
145.04228,150.2174,44,53,0
150.2174,155.24033,44,46,0
150.2174,155.24033,32,46,0
155.24033,160.5934,44,52,0
155.24033,160.5934,32,52,0
160.5934,165.6577,32,46,0
160.5934,165.6577,44,46,0
165.6577,170.63698,32,46,0
165.6577,170.63698,44,46,0
170.63698,175.50278,44,45,0
170.63698,175.50278,32,45,0
175.50278,189.44685,44,46,0
175.50278,189.44685,32,46,0
189.44685,194.28511,44,56,0
189.44685,194.28511,32,56,0
194.28511,199.38307,44,47,0
194.28511,199.38307,32,47,0
199.38307,201.86932,44,42,0
199.38307,201.86932,32,42,0
201.86932,204.4081,33,41,0
201.86932,204.4081,45,41,0
204.4081,206.97696,42,35,0
204.4081,206.97696,30,35,0
206.97696,209.72083,32,46,0
206.97696,209.72083,44,46,0
209.72083,215.13106,44,41,0
209.72083,215.13106,49,41,0
209.72083,215.13106,37,41,0
215.13106,220.36024,44,46,0
215.13106,220.36024,48,46,0
215.13106,220.36024,36,46,0
220.36024,222.84743,49,46,0
220.36024,222.84743,37,46,0
222.84743,225.46954,30,46,0
222.84743,225.46954,42,46,0
225.46954,228.0969,47,46,0
225.46954,228.0969,35,46,0
228.0969,230.93639,35,46,0
228.0969,230.93639,47,46,0
230.93639,236.20537,52,45,0
230.93639,236.20537,40,45,0
236.20537,241.47426,51,35,0
236.20537,241.47426,39,35,0
241.47426,243.95808,40,37,0
241.47426,243.95808,52,37,0
243.95808,245.19392,51,37,0
243.95808,245.19392,39,37,0
245.19392,246.64127,37,40,0
245.19392,246.64127,49,40,0
246.64127,249.1916,44,45,0
246.64127,249.1916,48,45,0
246.64127,249.1916,36,45,0
249.1916,251.85036,44,38,0
249.1916,251.85036,49,38,0
249.1916,251.85036,37,38,0
251.85036,254.55798,42,41,0
251.85036,254.55798,30,41,0
254.55798,257.28625,44,41,0
254.55798,257.28625,32,41,0
257.28625,263.85654,37,38,0
257.28625,263.85654,49,38,0
263.85654,265.06668,42,47,0
263.85654,265.06668,54,47,0
265.06668,266.32697,57,56,0
265.06668,266.32697,45,56,0
266.32697,267.70566,42,50,0
266.32697,267.70566,54,50,0
267.70566,274.0355,49,41,0
267.70566,274.0355,37,41,0
274.0355,275.23853,54,48,0
274.0355,275.23853,42,48,0
275.23853,276.5297,45,57,0
275.23853,276.5297,57,57,0
276.5297,277.9435,54,48,0
276.5297,277.9435,42,48,0
277.9435,280.52075,37,40,0
277.9435,280.52075,49,40,0
280.52075,283.119,42,42,0
280.52075,283.119,30,42,0
283.119,286.75293,51,45,0
283.119,286.75293,39,45,0
286.75293,287.9866,52,41,0
286.75293,287.9866,40,41,0
287.9866,289.2196,49,46,0
287.9866,289.2196,37,46,0
289.2196,290.42157,51,40,0
289.2196,290.42157,39,40,0
290.42157,291.64487,36,46,0
290.42157,291.64487,48,46,0
291.64487,292.93896,37,40,0
291.64487,292.93896,49,40,0
292.93896,295.36374,45,46,0
292.93896,295.36374,33,46,0
295.36374,296.73526,44,50,0
295.36374,296.73526,32,50,0
296.73526,298.23282,30,57,0
296.73526,298.23282,42,57,0
298.23282,301.09924,44,46,0
298.23282,301.09924,32,46,0
301.09924,304.09042,44,46,0
301.09924,304.09042,32,46,0
304.09042,309.6609,37,37,0
309.6609,314.9412,36,37,0
314.9412,319.88953,37,37,0
319.88953,325.2683,32,37,0
325.2683,330.36203,37,37,0
330.36203,335.94382,32,37,0
335.94382,343.58145,37,37,0
349.80984,353.1035,37,26,0
349.80984,353.1035,49,31,0
349.80984,353.1035,44,26,0
353.1035,361.98392,37,26,0
353.1035,361.98392,49,31,0
353.1035,361.98392,44,26,0
