start_time,end_time,note_value,velocity,instrument_program_number
0.0899605,0.17617264,44,46,0
0.179921,0.28487492,49,48,0
0.2698815,0.3748354,52,50,0
0.359842,0.46479592,56,51,0
0.4498025,0.5547564,49,46,0
0.539763,0.6447169,52,47,0
0.6297235,0.73467743,56,49,0
0.719684,0.8246379,61,51,0
0.8096445,0.9145984,52,46,0
0.899605,1.0045589,56,47,0
0.9895655,1.0945194,61,49,0
1.079526,1.18448,64,51,0
1.1694865,1.2744404,56,47,0
1.259447,1.3644009,61,48,0
1.3494076,1.4543614,64,49,0
1.439368,1.5443219,68,50,0
1.5293285,1.6342825,61,47,0
1.619289,1.7242429,64,47,0
1.7092495,1.8142034,68,49,0
1.79921,1.904164,73,50,0
1.8891705,1.9941244,64,51,0
1.979131,2.084085,68,47,0
2.0690916,2.1740453,73,51,0
2.159052,2.264006,76,52,0
2.2490125,2.3539665,68,50,0
2.338973,2.4439268,73,51,0
2.4289334,2.518894,76,54,0
2.518894,2.6126556,73,79,0
2.518894,2.6126556,68,79,0
2.518894,2.6126556,76,94,0
2.518894,2.6126556,80,94,0
2.7064176,2.8001792,76,79,0
2.7064176,2.8001792,68,67,0
2.7064176,2.8001792,73,67,0
2.7064176,2.8001792,80,79,0
2.9839015,3.0701137,44,47,0
3.073862,3.1788158,48,48,0
3.1638224,3.2687764,51,50,0
3.253783,3.358737,56,51,0
3.3437436,3.4486973,48,47,0
3.433704,3.538658,51,48,0
3.5236645,3.6286185,56,51,0
3.613625,3.7185788,60,52,0
3.7035854,3.8085394,51,47,0
3.793546,3.8985,56,48,0
3.8835065,3.9884603,60,50,0
3.973467,4.078421,63,51,0
4.0634274,4.168381,56,46,0
4.153388,4.258342,60,47,0
4.2433486,4.3483024,63,49,0
4.333309,4.438263,68,51,0
4.4232693,4.5282235,60,47,0
4.51323,4.618184,63,48,0
4.6031904,4.708144,68,50,0
4.693151,4.798105,72,51,0
4.7831116,4.8880653,63,47,0
4.873072,4.978026,68,48,0
4.9630327,5.0679865,72,51,0
5.052993,5.157947,75,52,0
5.1429534,5.2479076,68,51,0
5.232914,5.3378677,72,51,0
5.3228745,5.412835,75,52,0
5.412835,5.5069084,80,94,0
5.412835,5.5069084,68,79,0
5.412835,5.5069084,72,79,0
5.412835,5.5069084,75,94,0
5.600982,5.6950555,75,78,0
5.600982,5.6950555,72,66,0
5.600982,5.6950555,80,78,0
5.600982,5.6950555,68,66,0
5.8790894,5.9840436,49,66,0
5.96905,6.0740037,53,62,0
6.0590105,6.1639643,56,66,0
6.148971,6.253925,61,68,0
6.2389317,6.3438854,53,62,0
6.328892,6.433846,56,62,0
6.4188523,6.5238066,61,65,0
6.508813,6.613767,65,68,0
6.5987735,6.7037272,56,62,0
6.688734,6.793688,61,65,0
6.7786946,6.8836484,65,67,0
6.868655,6.973609,68,68,0
6.9586153,7.0635695,61,62,0
7.048576,7.15353,65,63,0
7.1385365,7.24349,68,66,0
7.228497,7.333451,73,67,0
7.3184576,7.4234114,65,62,0
7.408418,7.513372,68,62,0
7.4983783,7.6033325,73,66,0
7.588339,7.693293,77,68,0
7.6782994,7.783253,68,62,0
7.76826,7.873214,73,66,0
7.8582206,7.9631743,77,68,0
7.948181,8.053135,80,66,0
8.038141,8.143095,73,68,0
8.128102,8.233056,77,69,0
8.218062,8.308023,80,71,0
8.308023,8.401486,73,87,0
8.308023,8.401486,77,87,0
8.308023,8.401486,85,103,0
8.308023,8.401486,80,103,0
8.49495,8.588414,77,77,0
8.49495,8.588414,80,90,0
8.49495,8.588414,85,90,0
8.49495,8.588414,73,77,0
8.771838,8.876792,49,61,0
8.861799,8.966753,54,63,0
8.951759,9.056713,57,62,0
9.04172,9.0867,61,69,0
9.1316805,9.236634,61,72,0
9.221641,9.326595,66,76,0
9.311602,9.416555,69,73,0
9.401562,9.446542,73,79,0
9.491523,9.596477,73,77,0
9.581483,9.686437,78,81,0
9.671444,9.761404,81,76,0
9.761404,9.85279,78,90,0
9.761404,9.85279,85,108,0
9.761404,9.85279,73,90,0
9.944175,10.035561,85,104,0
9.944175,10.035561,78,88,0
9.944175,10.035561,73,88,0
10.216907,10.32186,49,75,0
10.306867,10.411821,52,77,0
10.396828,10.501781,55,79,0
10.486788,10.531768,61,76,0
10.576749,10.681703,61,77,0
10.666709,10.771663,64,79,0
10.756669,10.861624,67,79,0
10.84663,10.89161,73,80,0
10.93659,11.041544,73,77,0
11.026551,11.131505,76,79,0
11.116511,11.206472,79,80,0
11.206472,11.311148,79,105,0
11.206472,11.311148,73,89,0
11.206472,11.311148,85,105,0
11.415823,11.520498,85,105,0
11.415823,11.520498,79,105,0
11.415823,11.520498,73,89,0
11.625174,11.834525,80,104,0
11.625174,11.834525,84,104,0
11.625174,11.834525,72,88,0
11.834525,11.925622,68,74,0
11.925622,12.016719,80,58,0
12.016719,12.107815,68,75,0
12.107815,12.198912,80,60,0
12.198912,12.290009,70,76,0
12.290009,12.381105,80,60,0
12.381105,12.472202,72,76,0
12.472202,12.563299,80,61,0
12.563299,12.654396,73,78,0
12.654396,12.745493,80,62,0
12.745493,12.836589,75,79,0
12.836589,12.927686,80,62,0
12.927686,13.018783,72,79,0
13.018783,13.1098795,80,62,0
13.1098795,13.203343,75,80,0
13.203343,13.296807,80,62,0
13.296807,13.390271,73,80,0
13.390271,13.483734,80,62,0
13.483734,13.577198,78,84,0
13.577198,13.670662,80,62,0
13.670662,13.764025,76,80,0
13.764025,13.857187,80,62,0
13.857187,13.950349,75,80,0
13.950349,14.043211,80,62,0
14.043211,14.136073,73,79,0
14.136073,14.228834,80,62,0
14.228834,14.321392,72,79,0
14.321392,14.41395,80,62,0
14.41395,14.506212,69,77,0
14.506212,14.5984745,79,61,0
14.5984745,14.6906395,68,76,0
14.6906395,14.782607,80,60,0
14.782607,14.874575,68,75,0
14.874575,14.96625,80,59,0
14.96625,15.057926,68,74,0
15.057926,15.149506,80,59,0
15.149506,15.240891,70,74,0
15.240891,15.332276,80,61,0
15.332276,15.423662,72,76,0
15.423662,15.515048,80,59,0
15.515048,15.606433,73,76,0
15.606433,15.697819,80,62,0
15.697819,15.789204,75,77,0
15.789204,15.8805895,80,61,0
15.8805895,15.971975,72,79,0
15.971975,16.06336,80,62,0
16.06336,16.158678,75,79,0
16.158678,16.253994,80,62,0
16.253994,16.34931,73,80,0
16.34931,16.443708,80,65,0
16.443708,16.536266,78,84,0
16.536266,16.628824,80,68,0
16.628824,16.721382,76,84,0
16.721382,16.813644,80,67,0
16.813644,16.905907,75,84,0
16.905907,16.998169,80,67,0
16.998169,17.090137,73,84,0
17.090137,17.182106,80,66,0
17.182106,17.274073,72,84,0
17.274073,17.36575,80,67,0
17.36575,17.457424,69,84,0
17.457424,17.5491,79,66,0
17.5491,17.640486,68,84,0
17.640486,17.731968,80,66,0
17.731968,17.823742,69,79,0
17.823742,17.915808,79,67,0
17.915808,18.00817,68,84,0
18.00817,18.100828,80,66,0
18.100828,18.19379,69,79,0
18.19379,18.287052,79,67,0
18.287052,18.380516,68,84,0
18.380516,18.474277,80,66,0
18.474277,18.568352,69,79,0
18.568352,18.662733,79,65,0
18.662733,18.757423,68,84,0
18.757423,18.852432,80,66,0
18.852432,18.94775,69,79,0
18.94775,19.043383,79,65,0
19.043383,19.289425,80,84,0
19.043383,19.289425,68,84,0
19.53547,21.694517,56,113,0
21.784477,21.87069,44,45,0
21.87444,21.979393,49,47,0
21.9644,22.069353,52,49,0
22.05436,22.159313,56,51,0
22.14432,22.249273,49,47,0
22.23428,22.339233,52,49,0
22.324242,22.429195,56,51,0
22.414202,22.519156,61,51,0
22.504162,22.609116,52,47,0
22.594122,22.699076,56,48,0
22.684082,22.789036,61,50,0
22.774044,22.878998,64,51,0
22.864004,22.968958,56,47,0
22.953964,23.058918,61,48,0
23.043924,23.148878,64,50,0
23.133884,23.23884,68,51,0
23.223846,23.3288,61,47,0
23.313807,23.41876,64,48,0
23.403767,23.50872,68,50,0
23.493727,23.59868,73,51,0
23.583689,23.688643,64,47,0
23.673649,23.778603,68,49,0
23.763609,23.868563,73,51,0
23.853569,23.936033,76,51,0
23.94353,24.048483,76,51,0
24.033491,24.138445,80,51,0
24.123451,24.228838,85,53,0
24.213411,24.30597,88,113,0
24.213411,24.30597,76,96,0
24.398527,24.491087,88,88,0
24.398527,24.491087,76,74,0
24.673605,24.778559,52,47,0
24.763565,24.868519,55,49,0
24.853525,24.958479,61,51,0
24.943487,25.04844,64,51,0
25.033447,25.138401,55,47,0
25.123407,25.228361,61,48,0
25.213367,25.318321,64,50,0
25.303328,25.408281,67,51,0
25.39329,25.498243,61,47,0
25.48325,25.588203,64,48,0
25.57321,25.678164,67,51,0
25.66317,25.768124,73,52,0
25.75313,25.858086,64,47,0
25.843092,25.948046,67,49,0
25.933052,26.038006,73,51,0
26.023012,26.127966,76,53,0
26.112972,26.217926,67,47,0
26.202934,26.307888,73,50,0
26.292894,26.397848,76,51,0
26.382854,26.487808,79,53,0
26.472815,26.577768,73,47,0
26.562775,26.667728,76,49,0
26.652737,26.75769,79,51,0
26.742697,26.84765,85,52,0
26.832657,26.93761,76,49,0
26.922617,27.02757,79,51,0
27.012577,27.117817,85,54,0
27.10254,27.194214,88,110,0
27.10254,27.194214,76,93,0
27.28589,27.377565,88,87,0
27.28589,27.377565,76,73,0
27.559202,27.645414,51,50,0
27.649162,27.754116,58,51,0
27.739122,27.844076,61,49,0
27.829082,27.934038,63,51,0
27.919044,28.023998,58,52,0
28.009005,28.113958,61,53,0
28.098965,28.203918,63,51,0
28.188925,28.293879,70,56,0
28.278885,28.38384,61,56,0
28.368847,28.4738,63,57,0
28.458807,28.56376,70,52,0
28.548767,28.65372,73,58,0
28.638727,28.743681,63,59,0
28.72869,28.833643,70,60,0
28.81865,28.923603,73,56,0
28.90861,29.013563,75,62,0
28.99857,29.103523,70,62,0
29.08853,29.193483,73,62,0
29.178492,29.283445,75,59,0
29.268452,29.373405,82,63,0
29.358412,29.463366,73,65,0
29.448372,29.553326,75,66,0
29.538332,29.643288,82,62,0
29.628294,29.733667,85,67,0
29.718534,29.82491,82,65,0
29.80963,29.917025,75,62,0
29.901598,30.010036,73,61,0
29.99446,30.103956,82,59,0
30.088224,30.198805,75,57,0
30.182919,30.294598,73,56,0
30.278553,30.392391,70,52,0
30.375257,30.580862,71,49,0
30.786469,31.542698,75,61,0
31.525564,31.857727,71,50,0
31.833973,31.905233,68,50,0
31.905233,31.928986,67,40,0
31.928986,31.952738,68,40,0
31.952738,31.976492,70,40,0
31.976492,32.38058,68,58,0
32.365494,32.90861,67,50,0
32.90861,33.125088,67,50,0
33.10783,33.418472,75,61,0
33.418472,33.522022,67,52,0
33.522022,33.924686,70,47,0
33.909695,34.449455,68,51,0
34.449455,34.659145,68,49,0
34.64201,34.95042,75,61,0
34.95042,35.069378,68,50,0
35.053223,35.455982,71,52,0
35.440895,35.984013,70,50,0
35.984013,36.206753,70,52,0
36.189617,36.498028,75,49,0
36.498028,36.60083,70,52,0
36.60083,36.69339,71,56,0
36.785946,37.15618,75,47,0
36.785946,37.15618,87,56,0
37.15618,37.526413,75,49,0
37.15618,37.526413,87,58,0
37.526413,37.616375,87,56,0
37.526413,37.616375,75,47,0
37.706333,37.796295,83,58,0
37.706333,37.796295,71,49,0
37.886253,37.976215,68,49,0
37.886253,37.976215,80,59,0
38.066177,38.156136,68,51,0
38.066177,38.156136,80,61,0
38.246098,38.618744,67,52,0
38.246098,38.618744,79,62,0
38.618744,38.991394,67,57,0
38.618744,38.991394,79,68,0
38.991394,39.081352,79,69,0
38.991394,39.081352,67,58,0
39.171314,39.261276,75,60,0
39.171314,39.261276,87,71,0
39.351234,39.441196,79,73,0
39.351234,39.441196,67,61,0
39.531155,39.621117,82,74,0
39.531155,39.621117,70,62,0
39.71108,40.083725,80,75,0
39.71108,40.083725,68,63,0
40.083725,40.45637,80,80,0
40.083725,40.45637,68,68,0
40.45637,40.547176,80,82,0
40.45637,40.547176,68,69,0
40.63798,40.728786,87,85,0
40.63798,40.728786,75,72,0
40.81959,40.910397,68,73,0
40.81959,40.910397,80,86,0
41.0012,41.092003,83,86,0
41.0012,41.092003,71,73,0
41.182808,41.551857,70,74,0
41.182808,41.551857,82,89,0
41.551857,41.920906,82,93,0
41.551857,41.920906,70,79,0
41.920906,42.01317,70,79,0
41.920906,42.01317,82,93,0
42.10543,42.197693,75,79,0
42.10543,42.197693,87,93,0
42.289955,42.382217,70,79,0
42.289955,42.382217,82,93,0
42.47448,43.194164,84,95,0
42.47448,43.194164,72,80,0
43.194164,43.91385,73,80,0
43.194164,43.91385,85,95,0
43.91385,43.964474,82,80,0
43.964474,44.01432,83,75,0
44.01432,44.06495,82,80,0
44.06495,44.114796,83,80,0
44.128036,44.18879,82,80,0
44.184113,44.244087,80,75,0
44.23552,44.287704,82,75,0
43.91385,44.287704,70,68,0
44.287704,45.36723,71,80,0
44.287704,45.36723,83,95,0
45.36723,46.100636,68,80,0
45.36723,46.100636,80,95,0
46.100636,46.82941,81,94,0
46.100636,46.82941,69,80,0
46.82941,46.879543,79,80,0
46.879543,46.92968,80,75,0
46.92891,46.979046,79,80,0
46.979046,47.029182,80,80,0
47.041523,47.101685,79,80,0
47.097057,47.15722,77,75,0
47.147964,47.199642,79,75,0
46.82941,47.199642,67,68,0
47.199642,48.279167,80,95,0
47.199642,48.279167,68,80,0
48.279167,49.088814,81,100,0
48.279167,49.088814,76,100,0
48.279167,49.088814,69,83,0
48.279167,49.088814,73,83,0
49.088814,49.178772,76,47,0
49.178772,49.268734,78,47,0
49.268734,49.358696,80,48,0
49.358696,49.448654,81,49,0
49.448654,49.538616,83,50,0
49.538616,49.628574,85,51,0
49.628574,49.718536,83,51,0
49.718536,49.8085,81,49,0
49.8085,49.898457,76,47,0
49.898457,49.98842,78,47,0
49.98842,50.078377,80,47,0
50.078377,50.16834,81,48,0
50.16834,50.2583,83,49,0
50.2583,50.34826,85,50,0
50.34826,50.43822,83,48,0
50.43822,50.52818,81,48,0
50.52818,50.61814,76,47,0
50.61814,50.708103,78,48,0
50.708103,50.79806,80,49,0
50.79806,50.888023,81,50,0
50.888023,50.97798,83,51,0
50.97798,51.067944,85,51,0
51.067944,51.157906,83,49,0
51.157906,51.247864,81,47,0
51.247864,51.337826,76,48,0
51.337826,51.427788,78,51,0
51.427788,51.517746,80,51,0
51.517746,51.607708,81,54,0
51.607708,51.697666,83,56,0
51.697666,51.78763,85,57,0
51.78763,51.87759,86,60,0
51.87759,51.96755,88,61,0
51.96755,52.05751,87,59,0
52.05751,52.14747,88,57,0
52.14747,52.23743,87,56,0
52.23743,52.327393,88,54,0
52.327393,52.41735,85,52,0
52.41735,52.507313,83,51,0
52.507313,52.59727,81,50,0
52.59727,53.316956,80,48,0
53.316956,53.37769,82,50,0
53.37769,53.43842,83,50,0
53.43842,53.495354,82,50,0
53.495354,53.552288,83,50,0
53.552288,53.609226,82,50,0
53.609226,53.66616,83,50,0
53.66616,53.7193,82,48,0
53.7193,53.77244,83,48,0
53.77244,53.81799,82,49,0
53.81799,53.863537,83,50,0
53.863537,53.909084,82,51,0
53.909084,53.95463,83,51,0
53.95463,54.000183,82,51,0
54.000183,54.04573,83,52,0
54.04573,54.26218,80,56,0
54.47863,54.928432,69,87,0
54.47863,54.928432,64,87,0
54.47863,54.928432,57,73,0
54.47863,54.928432,61,87,0
54.928432,55.018394,64,50,0
55.018394,55.108353,66,50,0
55.108353,55.198315,68,50,0
55.198315,55.288277,69,48,0
55.288277,55.378235,71,47,0
55.378235,55.468197,73,49,0
55.468197,55.558155,71,48,0
55.558155,55.648117,69,47,0
55.648117,55.73808,64,47,0
55.73808,55.828037,66,48,0
55.828037,55.918,68,49,0
55.918,56.007957,69,51,0
56.007957,56.09792,71,51,0
56.09792,56.18788,73,49,0
56.18788,56.27784,71,48,0
56.27784,56.3678,69,48,0
56.3678,56.45776,64,48,0
56.45776,56.54772,66,48,0
56.54772,56.637684,68,50,0
56.637684,56.727642,69,50,0
56.727642,56.817604,71,50,0
56.817604,56.907562,73,50,0
56.907562,56.997524,71,50,0
56.997524,57.087486,69,49,0
57.087486,57.177444,64,50,0
57.177444,57.267406,66,51,0
57.267406,57.357365,68,51,0
57.357365,57.447327,69,52,0
57.447327,57.53729,71,53,0
57.53729,57.627247,73,56,0
57.627247,57.71721,71,56,0
57.71721,57.807167,69,57,0
57.807167,57.89713,64,58,0
57.89713,57.98709,66,59,0
57.98709,58.07705,68,60,0
58.07705,58.16701,69,62,0
58.16701,58.256973,71,62,0
58.256973,58.34693,73,62,0
58.34693,58.436893,71,63,0
58.436893,58.52685,69,66,0
58.52685,58.616814,64,67,0
58.616814,58.706776,66,68,0
58.706776,58.796734,68,68,0
58.796734,58.886696,69,70,0
58.886696,58.976654,71,71,0
58.976654,59.066616,73,72,0
59.066616,59.156578,74,73,0
59.156578,59.246536,76,74,0
59.246536,59.3365,78,75,0
59.3365,59.426456,80,76,0
59.426456,59.51642,81,77,0
59.51642,59.60638,83,79,0
59.60638,59.69634,85,79,0
59.69634,59.7863,86,79,0
59.7863,59.87626,87,80,0
59.87626,60.595943,88,84,0
59.87626,60.595943,76,84,0
60.595943,61.315628,80,84,0
60.595943,61.315628,68,84,0
61.315628,62.035313,83,84,0
61.315628,62.035313,71,84,0
62.035313,62.764088,67,84,0
62.035313,62.764088,61,71,0
62.035313,62.764088,55,71,0
62.764088,62.944008,59,84,0
62.764088,62.944008,68,84,0
62.764088,62.944008,63,84,0
62.944008,63.03687,71,51,0
62.944008,63.03687,63,51,0
63.12973,63.222595,71,51,0
63.12973,63.222595,63,51,0
63.315456,63.408318,71,51,0
63.315456,63.408318,63,51,0
63.500977,63.593536,71,51,0
63.500977,63.593536,63,51,0
63.686092,63.778652,71,51,0
63.686092,63.778652,63,51,0
63.87121,63.96357,63,49,0
63.87121,63.96357,70,49,0
64.05583,64.148094,68,48,0
64.05583,64.148094,63,48,0
64.24036,64.42468,67,59,0
64.24036,64.42468,63,59,0
64.42468,64.51549,67,49,0
64.42468,64.51549,75,49,0
64.60629,64.6971,75,49,0
64.60629,64.6971,67,49,0
64.7879,64.87871,75,50,0
64.7879,64.87871,67,50,0
64.96951,65.06032,75,51,0
64.96951,65.06032,67,51,0
65.15112,65.24193,67,51,0
65.15112,65.24193,75,51,0
65.33273,65.42354,68,51,0
65.33273,65.42354,75,51,0
65.51434,65.60514,75,50,0
65.51434,65.60514,70,50,0
65.695946,65.877556,75,58,0
65.695946,65.877556,71,58,0
65.877556,65.97072,63,50,0
65.877556,65.97072,71,50,0
66.06388,66.15704,63,50,0
66.06388,66.15704,71,50,0
66.250206,66.34307,71,50,0
66.250206,66.34307,63,50,0
66.43593,66.52879,63,50,0
66.43593,66.52879,71,50,0
66.62155,66.71411,63,50,0
66.62155,66.71411,71,50,0
66.80667,66.89923,63,50,0
66.80667,66.89923,70,50,0
66.991585,67.08385,68,48,0
66.991585,67.08385,63,48,0
67.17611,67.360344,67,58,0
67.17611,67.360344,63,58,0
67.360344,67.45115,67,49,0
67.360344,67.45115,75,49,0
67.541954,67.63276,75,49,0
67.541954,67.63276,67,49,0
67.723564,67.81437,75,51,0
67.723564,67.81437,67,51,0
67.90517,67.99597,75,49,0
67.90517,67.99597,67,49,0
68.08678,68.17758,67,49,0
68.08678,68.17758,75,49,0
68.26839,68.35919,75,50,0
68.26839,68.35919,68,50,0
68.45,68.5408,75,51,0
68.45,68.5408,70,51,0
68.63161,68.72507,75,56,0
68.63161,68.72507,71,56,0
68.818535,68.90849,71,50,0
68.818535,68.90849,75,50,0
68.99845,69.178375,71,50,0
68.99845,69.178375,75,50,0
69.178375,69.3583,71,47,0
69.178375,69.3583,68,47,0
69.54165,69.63161,73,50,0
69.54165,69.63161,76,50,0
69.72157,69.90149,76,50,0
69.72157,69.90149,73,50,0
69.90149,70.08141,68,48,0
69.90149,70.08141,73,48,0
70.26834,70.3583,71,47,0
70.26834,70.3583,75,47,0
70.44826,70.62818,75,47,0
70.44826,70.62818,71,47,0
70.62818,70.8081,68,44,0
70.62818,70.8081,71,44,0
70.99873,71.0887,75,49,0
70.99873,71.0887,70,49,0
71.17866,71.358574,75,47,0
71.17866,71.358574,70,47,0
71.358574,71.5385,67,45,0
71.358574,71.5385,70,45,0
71.5385,71.71842,68,49,0
71.5385,71.71842,71,49,0
71.71842,71.81039,83,51,0
71.71842,71.81039,75,51,0
71.71842,71.81039,71,43,0
71.90235,71.99432,83,56,0
71.90235,71.99432,71,47,0
71.90235,71.99432,75,56,0
72.0862,72.17787,71,49,0
72.0862,72.17787,75,58,0
72.0862,72.17787,83,58,0
72.26955,72.36122,83,62,0
72.26955,72.36122,75,62,0
72.26955,72.36122,71,52,0
72.45261,72.54399,83,66,0
72.45261,72.54399,75,66,0
72.45261,72.54399,71,56,0
72.635376,72.72667,73,68,0
72.635376,72.72667,70,57,0
72.635376,72.72667,82,68,0
72.817764,72.90886,80,72,0
72.817764,72.90886,71,72,0
72.817764,72.90886,68,61,0
72.999954,73.185684,79,75,0
72.999954,73.185684,70,75,0
72.999954,73.185684,67,63,0
73.185684,73.27648,88,76,0
73.185684,73.27648,76,64,0
73.185684,73.27648,79,76,0
73.36729,73.45809,76,69,0
73.36729,73.45809,88,82,0
73.36729,73.45809,79,82,0
73.5489,73.6397,79,79,0
73.5489,73.6397,88,79,0
73.5489,73.6397,76,67,0
73.73051,73.82131,76,69,0
73.73051,73.82131,79,82,0
73.73051,73.82131,88,82,0
73.91212,74.00292,76,66,0
73.91212,74.00292,79,78,0
73.91212,74.00292,88,78,0
74.09373,74.18661,87,80,0
74.09373,74.18661,75,68,0
74.09373,74.18661,79,80,0
74.27949,74.37236,85,78,0
74.27949,74.37236,73,66,0
74.27949,74.37236,79,78,0
74.46524,74.655716,83,82,0
74.46524,74.655716,80,82,0
74.46524,74.655716,71,69,0
74.655716,74.7474,83,49,0
74.655716,74.7474,75,49,0
74.655716,74.7474,71,41,0
74.83907,74.93075,71,44,0
74.83907,74.93075,83,52,0
74.83907,74.93075,75,52,0
75.02223,75.11362,83,57,0
75.02223,75.11362,75,57,0
75.02223,75.11362,71,48,0
75.205,75.29639,71,51,0
75.205,75.29639,83,61,0
75.205,75.29639,75,61,0
75.38748,75.47858,75,66,0
75.38748,75.47858,71,56,0
75.38748,75.47858,83,66,0
75.56968,75.660675,73,69,0
75.56968,75.660675,82,69,0
75.56968,75.660675,70,58,0
75.75148,75.842285,80,73,0
75.75148,75.842285,71,73,0
75.75148,75.842285,68,62,0
75.93309,76.11394,79,78,0
75.93309,76.11394,70,78,0
75.93309,76.11394,67,66,0
76.11394,76.2039,76,67,0
76.11394,76.2039,88,79,0
76.11394,76.2039,79,79,0
76.29414,76.38467,88,81,0
76.29414,76.38467,76,68,0
76.29414,76.38467,79,81,0
76.475464,76.56657,79,78,0
76.475464,76.56657,88,78,0
76.475464,76.56657,76,66,0
76.65795,76.749626,88,82,0
76.65795,76.749626,76,69,0
76.65795,76.749626,79,82,0
76.84159,76.93385,79,78,0
76.84159,76.93385,88,78,0
76.84159,76.93385,76,66,0
77.02641,77.11928,75,67,0
77.02641,77.11928,79,79,0
77.02641,77.11928,87,79,0
77.21244,77.3059,79,79,0
77.21244,77.3059,73,67,0
77.21244,77.3059,85,79,0
77.399666,77.58822,71,69,0
77.399666,77.58822,83,82,0
77.399666,77.58822,80,82,0
77.58822,77.678185,80,50,0
77.58822,77.678185,83,50,0
77.76814,77.94807,80,50,0
77.76814,77.94807,83,50,0
77.94807,78.12798,83,48,0
77.94807,78.12798,87,48,0
78.31192,78.40188,80,49,0
78.31192,78.40188,85,49,0
78.491844,78.67176,80,49,0
78.491844,78.67176,85,49,0
78.67176,78.851685,85,48,0
78.67176,78.851685,88,48,0
79.03801,79.12797,83,49,0
79.03801,79.12797,80,49,0
79.217926,79.39785,80,49,0
79.217926,79.39785,83,49,0
79.39785,79.577774,83,48,0
79.39785,79.577774,87,48,0
79.762886,79.852844,79,51,0
79.762886,79.852844,82,51,0
79.94281,80.12273,79,51,0
79.94281,80.12273,82,51,0
80.12273,80.30265,82,48,0
80.12273,80.30265,87,48,0
80.48433,80.57779,83,56,0
80.48433,80.57779,75,56,0
80.67228,80.86475,75,51,0
80.67228,80.86475,83,51,0
80.86475,81.059784,87,51,0
80.86475,81.059784,80,51,0
81.257,81.35733,73,62,0
81.257,81.35733,81,62,0
81.45922,81.66339,73,56,0
81.45922,81.66339,81,56,0
81.66339,81.86755,85,56,0
81.66339,81.86755,76,56,0
82.076035,82.182594,71,57,0
82.076035,82.182594,80,57,0
82.29001,82.508766,71,57,0
82.29001,82.508766,80,57,0
82.508766,82.73351,83,51,0
82.508766,82.73351,75,51,0
82.965996,83.08398,70,52,0
82.965996,83.08398,79,52,0
83.20196,83.43844,79,51,0
83.20196,83.43844,70,51,0
83.43844,83.676346,82,42,0
83.43844,83.676346,73,42,0
83.676346,84.07338,71,50,0
83.676346,84.07338,80,50,0
84.86745,85.171524,71,50,0
85.171524,85.27288,68,50,0
85.27288,85.678314,67,57,0
85.678314,85.99935,67,47,0
85.678314,85.99935,61,39,0
85.678314,85.99935,75,47,0
86.10637,86.42741,61,39,0
86.10637,86.42741,75,47,0
86.10637,86.42741,67,47,0
86.53442,86.85546,61,42,0
86.53442,86.85546,75,50,0
86.53442,86.85546,67,50,0
86.85546,86.951416,59,50,0
86.92743,87.01594,68,50,0
86.9994,88.190506,75,57,0
88.190506,88.493515,83,58,0
88.493515,88.59451,80,58,0
88.59451,88.99853,79,67,0
88.99853,89.31144,79,57,0
88.99853,89.31144,73,48,0
88.99853,89.31144,87,57,0
89.41575,89.72866,79,57,0
89.41575,89.72866,87,57,0
89.41575,89.72866,73,48,0
89.83296,90.143745,87,57,0
89.83296,90.143745,73,48,0
89.83296,90.143745,79,57,0
90.143745,90.234276,71,47,0
90.21164,90.29586,80,53,0
90.27954,90.96492,87,73,0
90.96492,91.04108,73,43,0
91.02203,91.095474,79,53,0
91.079155,91.764534,87,72,0
91.764534,91.850204,71,40,0
91.82879,91.90936,80,53,0
91.89304,92.57842,87,72,0
92.57842,92.6437,73,45,0
92.62738,92.69265,79,52,0
92.67633,93.459625,87,71,0
93.459625,93.56174,59,49,0
93.5626,93.66331,68,50,0
93.66415,93.76466,63,51,0
93.76551,93.86602,68,48,0
93.86687,93.96696,59,52,0
93.9678,94.0672,68,53,0
94.06803,94.16715,63,54,0
94.167984,94.267105,68,51,0
94.26794,94.36661,59,57,0
94.36743,94.464355,68,57,0
94.46517,94.561134,63,58,0
94.56194,94.65774,68,52,0
94.65854,94.75433,59,61,0
94.75514,94.85094,68,62,0
94.851746,94.946815,63,62,0
94.94761,95.04213,68,57,0
95.04292,95.13745,60,66,0
95.138245,95.232765,66,67,0
95.23356,95.32808,63,68,0
95.32887,95.4234,66,62,0
95.424194,95.518715,60,69,0
95.51951,95.613785,66,70,0
95.61458,95.70763,63,71,0
95.708405,95.801094,66,68,0
95.80187,95.894554,60,73,0
95.89533,95.988014,66,74,0
95.9888,96.081406,63,75,0
96.082184,96.17427,66,76,0
96.17504,96.26713,60,78,0
96.26791,96.35999,66,79,0
96.36076,96.4527,63,79,0
96.45347,96.544,66,73,0
96.54476,96.637924,64,82,0
96.54476,96.637924,52,69,0
96.54476,96.637924,56,69,0
96.54476,96.637924,61,82,0
96.637924,96.724266,44,54,0
96.72802,96.83312,49,56,0
96.81811,96.92321,52,57,0
96.908195,97.0133,56,59,0
96.99828,97.10339,49,54,0
97.08838,97.19348,52,56,0
97.17847,97.28357,56,56,0
97.268555,97.373665,61,57,0
97.35865,97.46375,52,51,0
97.44874,97.55384,56,53,0
97.538826,97.64393,61,54,0
97.628914,97.734024,64,56,0
97.71901,97.82411,56,52,0
97.8091,97.9142,61,53,0
97.899185,98.00429,64,56,0
97.98927,98.09438,68,57,0
98.07937,98.18447,61,52,0
98.16946,98.27456,64,53,0
98.259544,98.364655,68,56,0
98.34964,98.45474,73,57,0
98.43973,98.54483,64,52,0
98.529816,98.63492,68,53,0
98.6199,98.72501,73,56,0
98.71,98.8151,76,56,0
98.80009,98.90519,68,52,0
98.890175,98.995285,73,56,0
98.98026,99.07036,76,57,0
99.07036,99.164116,68,79,0
99.07036,99.164116,76,94,0
99.07036,99.164116,80,94,0
99.07036,99.164116,73,79,0
99.25788,99.35164,76,79,0
99.25788,99.35164,68,67,0
99.25788,99.35164,80,79,0
99.25788,99.35164,73,67,0
99.53536,99.621574,44,48,0
99.62533,99.73028,48,50,0
99.71529,99.82024,51,51,0
99.805244,99.9102,56,52,0
99.8952,100.00016,48,48,0
99.98517,100.09012,51,49,0
100.07513,100.180084,56,51,0
100.165085,100.27004,60,53,0
100.25505,100.36,51,47,0
100.34501,100.44996,56,49,0
100.43497,100.539925,60,51,0
100.52493,100.62988,63,51,0
100.61489,100.71984,56,48,0
100.70485,100.80981,60,51,0
100.79481,100.899765,63,52,0
100.88477,100.98972,68,53,0
100.97473,101.07969,60,48,0
101.06469,101.16965,63,49,0
101.154655,101.259605,68,51,0
101.24461,101.34956,72,51,0
101.33457,101.43953,63,48,0
101.42454,101.52949,68,50,0
101.514496,101.619446,72,51,0
101.604454,101.70941,75,52,0
101.69441,101.79937,68,51,0
101.78438,101.88933,72,52,0
101.87434,101.964294,75,56,0
101.964294,102.05837,80,94,0
101.964294,102.05837,68,79,0
101.964294,102.05837,72,79,0
101.964294,102.05837,75,94,0
102.15244,102.24652,80,78,0
102.15244,102.24652,68,66,0
102.15244,102.24652,72,66,0
102.15244,102.24652,75,78,0
102.43055,102.53551,49,63,0
102.520515,102.625465,53,66,0
102.61047,102.71542,56,63,0
102.70043,102.80539,61,68,0
102.7904,102.89535,53,62,0
102.880356,102.985306,56,63,0
102.970314,103.07527,61,62,0
103.06027,103.16523,65,68,0
103.15024,103.25519,56,62,0
103.2402,103.34515,61,63,0
103.330154,103.43511,65,65,0
103.42012,103.52507,68,68,0
103.51008,103.61503,61,62,0
103.60004,103.704994,65,65,0
103.69,103.79495,68,62,0
103.77996,103.88491,73,68,0
103.86992,103.97488,65,61,0
103.95988,104.064835,68,62,0
104.04984,104.15479,73,62,0
104.1398,104.24476,77,68,0
104.22976,104.33472,68,63,0
104.319725,104.424675,73,66,0
104.40968,104.51463,77,65,0
104.49964,104.6046,80,69,0
104.58961,104.69456,73,63,0
104.679565,104.784515,77,68,0
104.76952,104.85948,80,68,0
104.85948,104.95295,85,103,0
104.85948,104.95295,77,87,0
104.85948,104.95295,80,103,0
104.85948,104.95295,73,87,0
105.04641,105.13988,85,90,0
105.04641,105.13988,77,77,0
105.04641,105.13988,73,77,0
105.04641,105.13988,80,90,0
105.3233,105.42825,49,61,0
105.41326,105.51822,54,63,0
105.50322,105.60818,57,62,0
105.593185,105.63816,61,69,0
105.68314,105.78809,61,72,0
105.7731,105.87806,66,76,0
105.86307,105.96802,69,76,0
105.953026,105.998,73,79,0
106.042984,106.14794,73,83,0
106.13294,106.2379,78,84,0
106.22291,106.328094,81,80,0
106.31287,106.40425,78,102,0
106.31287,106.40425,73,86,0
106.31287,106.40425,85,102,0
106.495636,106.58702,85,101,0
106.495636,106.58702,78,101,0
106.495636,106.58702,73,85,0
106.76837,106.87332,49,75,0
106.85833,106.96328,52,77,0
106.94829,107.053246,55,75,0
107.03825,107.08323,61,80,0
107.12821,107.23316,61,76,0
107.21817,107.32313,64,79,0
107.30813,107.413086,67,77,0
107.398094,107.44307,73,81,0
107.48805,107.59301,73,79,0
107.57801,107.68297,76,80,0
107.66798,107.757935,79,80,0
107.757935,107.86261,85,108,0
107.757935,107.86261,73,90,0
107.757935,107.86261,79,108,0
107.967285,108.07196,79,108,0
107.967285,108.07196,73,90,0
107.967285,108.07196,85,108,0
108.176636,108.38599,72,90,0
108.176636,108.38599,80,108,0
108.176636,108.38599,84,108,0
108.38599,108.47708,68,74,0
108.47708,108.568184,80,58,0
108.568184,108.65928,68,75,0
108.65928,108.750374,80,60,0
108.750374,108.84147,70,76,0
108.84147,108.93257,80,60,0
108.93257,109.02367,72,76,0
109.02367,109.11476,80,61,0
109.11476,109.20586,73,78,0
109.20586,109.29695,80,62,0
109.29695,109.388054,75,79,0
109.388054,109.47915,80,62,0
109.47915,109.570244,72,79,0
109.570244,109.66134,80,62,0
109.66134,109.75481,75,80,0
109.75481,109.84827,80,62,0
109.84827,109.941734,73,80,0
109.941734,110.035194,80,62,0
110.035194,110.12866,78,84,0
110.12866,110.22212,80,62,0
110.22212,110.31549,76,80,0
110.31549,110.40865,80,62,0
110.40865,110.50181,75,80,0
110.50181,110.59467,80,62,0
110.59467,110.68754,73,79,0
110.68754,110.7803,80,62,0
110.7803,110.872856,72,79,0
110.872856,110.965416,80,62,0
110.965416,111.05768,69,77,0
111.05768,111.14994,79,61,0
111.14994,111.2421,68,76,0
111.2421,111.33407,80,60,0
111.33407,111.42604,68,75,0
111.42604,111.517715,80,59,0
111.517715,111.60939,68,74,0
111.60939,111.700966,80,59,0
111.700966,111.79235,70,74,0
111.79235,111.883736,80,61,0
111.883736,111.97513,72,76,0
111.97513,112.06651,80,59,0
112.06651,112.1579,73,76,0
112.1579,112.24928,80,62,0
112.24928,112.34067,75,77,0
112.34067,112.43205,80,61,0
112.43205,112.52344,72,79,0
112.52344,112.61482,80,62,0
112.61482,112.71014,75,79,0
112.71014,112.80546,80,62,0
112.80546,112.90077,73,80,0
112.90077,112.99517,80,65,0
112.99517,113.08773,78,84,0
113.08773,113.18029,80,68,0
113.18029,113.27284,76,84,0
113.27284,113.365105,80,67,0
113.365105,113.45737,75,84,0
113.45737,113.54963,80,67,0
113.54963,113.6416,73,84,0
113.6416,113.73357,80,66,0
113.73357,113.82554,72,84,0
113.82554,113.91721,80,67,0
113.91721,114.00889,69,84,0
114.00889,114.10056,79,66,0
114.10056,114.19195,68,84,0
114.19195,114.28343,80,66,0
114.28343,114.375206,69,79,0
114.375206,114.46727,79,67,0
114.46727,114.55963,68,84,0
114.55963,114.65229,80,66,0
114.65229,114.745255,69,79,0
114.745255,114.83852,79,67,0
114.83852,114.93198,68,84,0
114.93198,115.02574,80,66,0
115.02574,115.11981,69,79,0
115.11981,115.214195,79,65,0
115.214195,115.30888,68,84,0
115.30888,115.40389,80,66,0
115.40389,115.499214,69,79,0
115.499214,115.59484,79,65,0
115.59484,115.84089,80,84,0
115.59484,115.84089,68,84,0
116.08693,118.24598,56,113,0
118.33594,118.42215,44,47,0
118.4259,118.53085,49,49,0
118.51586,118.62081,52,51,0
118.60582,118.71078,56,52,0
118.695786,118.800735,49,47,0
118.78574,118.89069,52,49,0
118.8757,118.98066,56,51,0
118.96566,119.07062,61,52,0
119.055626,119.160576,52,47,0
119.145584,119.25054,56,49,0
119.23554,119.3405,61,51,0
119.32551,119.43046,64,52,0
119.41547,119.520424,56,48,0
119.505424,119.61038,61,50,0
119.59539,119.70034,64,51,0
119.68535,119.7903,68,52,0
119.77531,119.880264,61,47,0
119.86527,119.97022,64,47,0
119.95523,120.06018,68,50,0
120.04519,120.15015,73,52,0
120.13515,120.240105,64,47,0
120.22511,120.33006,68,50,0
120.31507,120.42003,73,51,0
120.40503,120.49124,76,54,0
120.494995,120.599945,76,51,0
120.58495,120.6899,80,51,0
120.67491,120.76488,85,53,0
120.76488,120.85743,88,112,0
120.76488,120.85743,76,95,0
120.94999,121.04255,88,88,0
120.94999,121.04255,76,74,0
121.22507,121.330025,52,46,0
121.315025,121.41998,55,48,0
121.40499,121.50994,61,50,0
121.49495,121.5999,64,51,0
121.58491,121.689865,55,47,0
121.67487,121.77982,61,49,0
121.76483,121.86978,64,51,0
121.85479,121.95975,67,51,0
121.94475,122.049706,61,50,0
122.03471,122.13966,64,49,0
122.12467,122.22963,67,51,0
122.21463,122.31959,73,52,0
122.304596,122.409546,64,47,0
122.394554,122.499504,67,49,0
122.48451,122.58947,73,51,0
122.57448,122.67943,76,52,0
122.66444,122.76939,67,48,0
122.754395,122.85935,73,48,0
122.84435,122.94931,76,50,0
122.93432,123.03927,79,52,0
123.02428,123.129234,73,47,0
123.114235,123.21919,76,50,0
123.2042,123.30915,79,51,0
123.29416,123.39911,85,54,0
123.38412,123.489075,76,51,0
123.47408,123.57903,79,54,0
123.56404,123.654,85,57,0
123.654,123.745674,76,93,0
123.654,123.745674,88,110,0
123.83735,123.92903,88,87,0
123.83735,123.92903,76,73,0
124.110664,124.19688,51,50,0
124.20062,124.30558,58,51,0
124.29059,124.39554,61,51,0
124.38055,124.4855,63,51,0
124.470505,124.57546,58,52,0
124.56046,124.66542,61,53,0
124.65043,124.75538,63,54,0
124.74039,124.845345,70,56,0
124.830345,124.9353,61,56,0
124.92031,125.02526,63,57,0
125.01027,125.11523,70,57,0
125.10023,125.205185,73,58,0
125.19019,125.29514,63,59,0
125.28015,125.3851,70,60,0
125.37011,125.47507,73,61,0
125.460075,125.565025,75,62,0
125.55003,125.65498,70,62,0
125.63999,125.74495,73,62,0
125.72995,125.83491,75,62,0
125.819916,125.924866,82,63,0
125.909874,126.01483,73,65,0
125.99983,126.10479,75,66,0
126.0898,126.19475,82,67,0
126.179756,126.28513,85,67,0
126.27,126.37637,82,65,0
126.36109,126.46849,75,62,0
126.453064,126.5615,73,61,0
126.54592,126.65542,82,59,0
126.63969,126.75027,75,57,0
126.73438,126.84606,73,56,0
126.83002,126.942604,70,52,0
126.92547,127.13107,71,49,0
127.33668,128.09291,75,61,0
128.07578,128.38419,71,56,0
128.38419,128.45544,68,56,0
128.45544,128.4792,67,44,0
128.4792,128.50294,68,44,0
128.50294,128.5267,70,44,0
128.5267,128.93079,68,63,0
128.91571,129.45882,67,56,0
129.45882,129.6753,67,56,0
129.65804,129.96869,75,68,0
129.96869,130.07224,67,57,0
130.07224,130.4749,70,51,0
130.4599,130.99966,68,56,0
130.99966,131.20935,68,53,0
131.19221,131.50063,75,68,0
131.50063,131.60344,68,56,0
131.60344,132.0062,71,57,0
131.9911,132.53423,70,56,0
132.53423,132.75696,70,57,0
132.73982,133.04823,75,53,0
133.04823,133.15105,70,57,0
133.15105,133.33615,71,59,0
133.33615,133.70639,75,49,0
133.33615,133.70639,87,59,0
133.70639,134.07663,87,58,0
133.70639,134.07663,75,49,0
134.07663,134.16658,87,56,0
134.07663,134.16658,75,47,0
134.25655,134.34651,83,58,0
134.25655,134.34651,71,49,0
134.43646,134.52643,68,49,0
134.43646,134.52643,80,59,0
134.61638,134.70634,80,61,0
134.61638,134.70634,68,51,0
134.79631,135.16896,79,62,0
134.79631,135.16896,67,52,0
135.16896,135.54161,67,57,0
135.16896,135.54161,79,68,0
135.54161,135.63156,67,58,0
135.54161,135.63156,79,69,0
135.72153,135.81148,87,71,0
135.72153,135.81148,75,60,0
135.90144,135.99141,79,73,0
135.90144,135.99141,67,61,0
136.08136,136.17133,70,62,0
136.08136,136.17133,82,74,0
136.26129,136.63394,80,75,0
136.26129,136.63394,68,63,0
136.63394,137.00658,80,80,0
136.63394,137.00658,68,68,0
137.00658,137.09738,68,69,0
137.00658,137.09738,80,82,0
137.18819,137.27899,75,72,0
137.18819,137.27899,87,85,0
137.3698,137.4606,80,86,0
137.3698,137.4606,68,73,0
137.5514,137.64221,83,86,0
137.5514,137.64221,71,73,0
137.73302,138.10207,82,89,0
137.73302,138.10207,70,74,0
138.10207,138.47112,82,93,0
138.10207,138.47112,70,79,0
138.47112,138.56339,82,93,0
138.47112,138.56339,70,79,0
138.65564,138.74791,75,93,0
138.65564,138.74791,87,93,0
138.84016,138.93243,70,79,0
138.84016,138.93243,82,93,0
139.02469,139.74437,84,95,0
139.02469,139.74437,72,80,0
139.74437,140.46407,85,95,0
139.74437,140.46407,73,80,0
140.46407,140.51468,82,80,0
140.51468,140.56453,83,75,0
140.56453,140.61516,82,80,0
140.61516,140.66501,83,80,0
140.67825,140.739,82,80,0
140.73433,140.7943,80,75,0
140.78574,140.83792,82,75,0
140.46407,140.83792,70,68,0
140.83792,141.91743,83,95,0
140.83792,141.91743,71,80,0
141.91743,142.65085,68,80,0
141.91743,142.65085,80,95,0
142.65085,143.37962,81,94,0
142.65085,143.37962,69,80,0
143.37962,143.42975,79,80,0
143.42975,143.47989,80,75,0
143.47913,143.52925,79,80,0
143.52925,143.57939,80,80,0
143.59174,143.6519,79,80,0
143.64726,143.70743,77,75,0
143.69818,143.74985,79,75,0
143.37962,143.74985,67,68,0
143.74985,144.82938,68,80,0
143.74985,144.82938,80,95,0
144.82938,145.63902,81,100,0
144.82938,145.63902,76,100,0
144.82938,145.63902,69,83,0
144.82938,145.63902,73,100,0
145.63902,145.72899,76,48,0
145.72899,145.81894,78,49,0
145.81894,145.9089,80,51,0
145.9089,145.99887,81,51,0
145.99887,146.08882,83,52,0
146.08882,146.17879,85,53,0
146.17879,146.26875,83,51,0
146.26875,146.3587,81,49,0
146.3587,146.44867,76,47,0
146.44867,146.53864,78,48,0
146.53864,146.62859,80,48,0
146.62859,146.71855,81,49,0
146.71855,146.8085,83,50,0
146.8085,146.89847,85,51,0
146.89847,146.98843,83,50,0
146.98843,147.07838,81,48,0
147.07838,147.16835,76,49,0
147.16835,147.25832,78,50,0
147.25832,147.34827,80,50,0
147.34827,147.43823,81,51,0
147.43823,147.5282,83,51,0
147.5282,147.61815,85,51,0
147.61815,147.70811,83,49,0
147.70811,147.79808,81,47,0
147.79808,147.88803,76,48,0
147.88803,147.978,78,51,0
147.978,148.06796,80,51,0
148.06796,148.15791,81,54,0
148.15791,148.24788,83,56,0
148.24788,148.33784,85,57,0
148.33784,148.4278,86,60,0
148.4278,148.51776,88,61,0
148.51776,148.60773,87,59,0
148.60773,148.69768,88,57,0
148.69768,148.78764,87,56,0
148.78764,148.8776,88,54,0
148.8776,148.96756,85,52,0
148.96756,149.05753,83,51,0
149.05753,149.14748,81,50,0
149.14748,149.86717,80,48,0
149.86717,149.9279,82,50,0
149.9279,149.98863,83,50,0
149.98863,150.04556,82,50,0
150.04556,150.1025,83,50,0
150.1025,150.15944,82,50,0
150.15944,150.21637,83,50,0
150.21637,150.26952,82,50,0
150.26952,150.32265,83,48,0
150.32265,150.3682,82,49,0
150.3682,150.41374,83,50,0
150.41374,150.45929,82,51,0
150.45929,150.50484,83,51,0
150.50484,150.5504,82,51,0
150.5504,150.59595,83,52,0
150.59595,150.8124,80,56,0
151.02884,151.47864,64,87,0
151.02884,151.47864,57,73,0
151.02884,151.47864,61,73,0
151.02884,151.47864,69,87,0
151.47864,151.5686,64,48,0
151.5686,151.65857,66,49,0
151.65857,151.74852,68,50,0
151.74852,151.83849,69,51,0
151.83849,151.92845,71,51,0
151.92845,152.0184,73,52,0
152.0184,152.10837,71,51,0
152.10837,152.19833,69,48,0
152.19833,152.28828,64,48,0
152.28828,152.37825,66,48,0
152.37825,152.46822,68,49,0
152.46822,152.55817,69,50,0
152.55817,152.64813,71,50,0
152.64813,152.73808,73,51,0
152.73808,152.82805,71,51,0
152.82805,152.91801,69,48,0
152.91801,153.00797,64,48,0
153.00797,153.09793,66,48,0
153.09793,153.1879,68,50,0
153.1879,153.27785,69,51,0
153.27785,153.36781,71,51,0
153.36781,153.45778,73,51,0
153.45778,153.54773,71,50,0
153.54773,153.6377,69,49,0
153.6377,153.72766,64,50,0
153.72766,153.81761,66,51,0
153.81761,153.90758,68,51,0
153.90758,153.99754,69,52,0
153.99754,154.0875,71,53,0
154.0875,154.17746,73,56,0
154.17746,154.26743,71,56,0
154.26743,154.35738,69,57,0
154.35738,154.44734,64,58,0
154.44734,154.53731,66,59,0
154.53731,154.62726,68,60,0
154.62726,154.71722,69,62,0
154.71722,154.80717,71,62,0
154.80717,154.89714,73,62,0
154.89714,154.9871,71,63,0
154.9871,155.07706,69,66,0
155.07706,155.16702,64,67,0
155.16702,155.25699,66,68,0
155.25699,155.34694,68,68,0
155.34694,155.4369,69,70,0
155.4369,155.52687,71,71,0
155.52687,155.61682,73,72,0
155.61682,155.70679,74,73,0
155.70679,155.79675,76,74,0
155.79675,155.8867,78,75,0
155.8867,155.97667,80,76,0
155.97667,156.06664,81,77,0
156.06664,156.15659,83,79,0
156.15659,156.24655,85,79,0
156.24655,156.33652,86,79,0
156.33652,156.42647,87,80,0
156.42647,157.14615,76,71,0
156.42647,157.14615,88,84,0
157.14615,157.86584,80,84,0
157.14615,157.86584,68,71,0
157.86584,158.58553,83,84,0
157.86584,158.58553,71,71,0
158.58553,159.3143,67,84,0
158.58553,159.3143,55,60,0
158.58553,159.3143,61,71,0
159.3143,159.49422,68,84,0
159.3143,159.49422,59,71,0
159.3143,159.49422,63,71,0
159.49422,159.58708,63,51,0
159.49422,159.58708,71,51,0
159.67995,159.7728,63,51,0
159.67995,159.7728,71,51,0
159.86566,159.95853,71,51,0
159.86566,159.95853,63,51,0
160.0512,160.14375,63,51,0
160.0512,160.14375,71,51,0
160.2363,160.32886,63,51,0
160.2363,160.32886,71,51,0
160.42142,160.51378,70,49,0
160.42142,160.51378,63,49,0
160.60605,160.6983,63,47,0
160.60605,160.6983,68,47,0
160.79057,160.9749,67,59,0
160.79057,160.9749,63,59,0
160.9749,161.0657,75,49,0
160.9749,161.0657,67,49,0
161.15651,161.24731,75,49,0
161.15651,161.24731,67,49,0
161.33812,161.42892,67,50,0
161.33812,161.42892,75,50,0
161.51973,161.61053,75,51,0
161.51973,161.61053,67,51,0
161.70134,161.79213,75,51,0
161.70134,161.79213,67,51,0
161.88293,161.97374,68,51,0
161.88293,161.97374,75,51,0
162.06454,162.15535,75,53,0
162.06454,162.15535,70,53,0
162.24615,162.42776,75,58,0
162.24615,162.42776,71,58,0
162.42776,162.52094,63,50,0
162.42776,162.52094,71,50,0
162.61409,162.70726,71,50,0
162.61409,162.70726,63,50,0
162.80042,162.89328,63,50,0
162.80042,162.89328,71,50,0
162.98615,163.079,63,50,0
162.98615,163.079,71,50,0
163.17177,163.26433,71,50,0
163.17177,163.26433,63,50,0
163.35687,163.44943,70,48,0
163.35687,163.44943,63,48,0
163.5418,163.63406,63,47,0
163.5418,163.63406,68,47,0
163.72632,163.91055,67,58,0
163.72632,163.91055,63,58,0
163.91055,164.00136,67,49,0
163.91055,164.00136,75,49,0
164.09216,164.18297,67,49,0
164.09216,164.18297,75,49,0
164.27377,164.36458,75,51,0
164.27377,164.36458,67,51,0
164.45538,164.54619,75,49,0
164.45538,164.54619,67,49,0
164.637,164.7278,75,49,0
164.637,164.7278,67,49,0
164.8186,164.90941,75,51,0
164.8186,164.90941,68,51,0
165.00021,165.09102,70,51,0
165.00021,165.09102,75,51,0
165.18182,165.27528,71,56,0
165.18182,165.27528,75,56,0
165.36874,165.45871,75,50,0
165.36874,165.45871,71,50,0
165.54866,165.72859,75,50,0
165.54866,165.72859,71,50,0
165.72859,165.90851,68,49,0
165.72859,165.90851,71,49,0
166.09186,166.18182,76,50,0
166.09186,166.18182,73,50,0
166.27177,166.4517,73,50,0
166.27177,166.4517,76,50,0
166.4517,166.63162,68,49,0
166.4517,166.63162,73,49,0
166.81854,166.90851,71,47,0
166.81854,166.90851,75,47,0
166.99847,167.17839,71,47,0
166.99847,167.17839,75,47,0
167.17839,167.3583,71,49,0
167.17839,167.3583,68,49,0
167.54895,167.6389,70,49,0
167.54895,167.6389,75,49,0
167.72887,167.90878,70,47,0
167.72887,167.90878,75,47,0
167.90878,168.08871,70,47,0
167.90878,168.08871,67,47,0
168.08871,168.26863,71,49,0
168.08871,168.26863,68,49,0
168.26863,168.3606,71,43,0
168.26863,168.3606,83,51,0
168.26863,168.3606,75,51,0
168.45256,168.54454,71,47,0
168.45256,168.54454,75,56,0
168.45256,168.54454,83,56,0
168.6364,168.72807,75,58,0
168.6364,168.72807,71,49,0
168.6364,168.72807,83,58,0
168.81975,168.91144,83,62,0
168.81975,168.91144,75,62,0
168.81975,168.91144,71,52,0
169.00282,169.09421,71,56,0
169.00282,169.09421,75,66,0
169.00282,169.09421,83,66,0
169.1856,169.27687,82,68,0
169.1856,169.27687,70,57,0
169.1856,169.27687,73,68,0
169.36798,169.45908,71,72,0
169.36798,169.45908,68,61,0
169.36798,169.45908,80,72,0
169.55017,169.73589,70,75,0
169.55017,169.73589,67,63,0
169.55017,169.73589,79,75,0
169.73589,169.82669,79,76,0
169.73589,169.82669,88,76,0
169.73589,169.82669,76,64,0
169.9175,170.0083,88,82,0
169.9175,170.0083,76,69,0
169.9175,170.0083,79,82,0
170.0991,170.18991,76,67,0
170.0991,170.18991,88,79,0
170.0991,170.18991,79,79,0
170.28072,170.37152,79,82,0
170.28072,170.37152,76,69,0
170.28072,170.37152,88,82,0
170.46233,170.55313,88,79,0
170.46233,170.55313,76,67,0
170.46233,170.55313,79,79,0
170.64394,170.7371,87,81,0
170.64394,170.7371,75,68,0
170.64394,170.7371,79,81,0
170.83028,170.92345,73,67,0
170.83028,170.92345,85,79,0
170.83028,170.92345,79,79,0
171.0166,171.20708,71,69,0
171.0166,171.20708,80,82,0
171.0166,171.21396,83,82,0
171.20708,171.21396,83,49,0
171.20708,171.29877,71,41,0
171.20708,171.29877,75,49,0
171.39044,171.48212,75,52,0
171.39044,171.48212,71,44,0
171.39044,171.48212,83,52,0
171.5736,171.66498,75,57,0
171.5736,171.66498,83,57,0
171.5736,171.66498,71,48,0
171.75636,171.84775,83,61,0
171.75636,171.84775,75,61,0
171.75636,171.84775,71,51,0
171.93884,172.02994,71,56,0
171.93884,172.02994,83,66,0
171.93884,172.02994,75,66,0
172.12103,172.21204,73,69,0
172.12103,172.21204,70,58,0
172.12103,172.21204,82,69,0
172.30284,172.39365,71,73,0
172.30284,172.39365,68,62,0
172.30284,172.39365,80,73,0
172.48445,172.6653,79,78,0
172.48445,172.6653,67,66,0
172.48445,172.6653,70,78,0
172.6653,172.75526,76,66,0
172.6653,172.75526,79,78,0
172.6653,172.75526,88,78,0
172.8455,172.93602,79,82,0
172.8455,172.93602,76,69,0
172.8455,172.93602,88,82,0
173.02682,173.11794,79,78,0
173.02682,173.11794,88,78,0
173.02682,173.11794,76,66,0
173.20932,173.301,88,82,0
173.20932,173.301,76,69,0
173.20932,173.301,79,82,0
173.39296,173.48521,88,79,0
173.39296,173.48521,76,67,0
173.39296,173.48521,79,79,0
173.57777,173.67064,87,80,0
173.57777,173.67064,79,80,0
173.57777,173.67064,75,68,0
173.76381,173.85727,85,79,0
173.76381,173.85727,73,67,0
173.76381,173.85727,79,79,0
173.95103,174.13959,71,69,0
173.95103,174.13959,80,82,0
173.95103,174.13959,83,82,0
174.13959,174.22955,80,50,0
174.13959,174.22955,83,50,0
174.3195,174.49944,80,50,0
174.3195,174.49944,83,50,0
174.49944,174.67935,87,48,0
174.49944,174.67935,83,48,0
174.86328,174.95325,80,49,0
174.86328,174.95325,85,49,0
175.04321,175.22313,80,49,0
175.04321,175.22313,85,49,0
175.22313,175.40305,85,47,0
175.22313,175.40305,88,47,0
175.58937,175.67934,80,49,0
175.58937,175.67934,83,49,0
175.76929,175.94922,83,49,0
175.76929,175.94922,80,49,0
175.94922,176.12914,83,47,0
175.94922,176.12914,87,47,0
176.31425,176.4042,79,51,0
176.31425,176.4042,82,51,0
176.49417,176.67409,79,51,0
176.49417,176.67409,82,51,0
176.67409,176.85402,82,47,0
176.67409,176.85402,87,47,0
177.03569,177.12915,75,56,0
177.03569,177.12915,83,56,0
177.22365,177.41612,83,51,0
177.22365,177.41612,75,51,0
177.41612,177.61115,80,51,0
177.41612,177.61115,87,51,0
177.80836,177.90869,73,62,0
177.80836,177.90869,81,62,0
178.01059,178.21475,73,56,0
178.01059,178.21475,81,56,0
178.21475,178.41891,85,56,0
178.21475,178.41891,76,56,0
178.6274,178.73396,71,57,0
178.6274,178.73396,80,57,0
178.84137,179.06013,80,57,0
178.84137,179.06013,71,57,0
179.06013,179.28488,83,51,0
179.06013,179.28488,75,51,0
179.51736,179.63535,79,52,0
179.51736,179.63535,70,52,0
179.75333,179.9898,79,51,0
179.75333,179.9898,70,51,0
179.9898,180.2277,82,42,0
179.9898,180.2277,73,42,0
180.2277,180.62474,71,50,0
180.2277,180.62474,80,50,0
181.41881,181.72289,71,50,0
181.72289,181.82425,68,50,0
181.82425,182.22968,67,57,0
182.22968,182.55072,75,47,0
182.22968,182.55072,67,47,0
182.22968,182.55072,61,39,0
182.65773,182.97878,67,47,0
182.65773,182.97878,61,39,0
182.65773,182.97878,75,47,0
183.08578,183.40681,61,42,0
183.08578,183.40681,75,50,0
183.08578,183.40681,67,50,0
183.40681,183.50278,59,50,0
183.47879,183.5673,68,50,0
183.55077,184.74187,75,57,0
184.74187,185.04488,83,58,0
185.04488,185.14587,80,58,0
185.14587,185.5499,79,67,0
185.5499,185.86281,73,48,0
185.5499,185.86281,87,57,0
185.5499,185.86281,79,57,0
185.96712,186.28003,79,57,0
185.96712,186.28003,87,57,0
185.96712,186.28003,73,48,0
186.38432,186.69511,73,48,0
186.38432,186.69511,79,57,0
186.38432,186.69511,87,57,0
186.69511,186.78564,71,47,0
186.763,186.84723,80,52,0
186.8309,187.51628,87,73,0
187.51628,187.59244,73,43,0
187.5734,187.64684,79,51,0
187.63052,188.3159,87,72,0
188.3159,188.40157,71,40,0
188.38016,188.46072,80,50,0
188.44441,189.12979,87,72,0
189.12979,189.19507,73,45,0
189.17874,189.24402,79,52,0
189.22769,190.01099,87,71,0
190.01099,190.1131,59,49,0
190.11397,190.21468,68,50,0
190.21552,190.31602,63,51,0
190.31686,190.41739,68,47,0
190.41823,190.51833,59,52,0
190.51917,190.61856,68,53,0
190.6194,190.71852,63,54,0
190.71935,190.81847,68,52,0
190.8193,190.91797,59,57,0
190.9188,191.01572,68,57,0
191.01654,191.1125,63,58,0
191.11331,191.2091,68,54,0
191.2099,191.3057,59,61,0
191.3065,191.4023,68,62,0
191.4031,191.49818,63,62,0
191.49898,191.59349,68,57,0
191.59428,191.68881,60,66,0
191.6896,191.78413,66,67,0
191.78493,191.87944,63,68,0
191.88023,191.97476,66,63,0
191.97556,192.07008,60,69,0
192.07088,192.16515,66,70,0
192.16594,192.25899,63,71,0
192.25977,192.35245,66,68,0
192.35324,192.44592,60,73,0
192.4467,192.53938,66,74,0
192.54016,192.63277,63,75,0
192.63354,192.72563,66,70,0
192.72641,192.8185,60,78,0
192.81927,192.91136,66,79,0
192.91212,193.00406,63,79,0
193.00484,193.09537,66,73,0
193.09613,193.18608,65,80,0
193.09613,193.18608,61,80,0
193.18608,193.29103,49,51,0
193.27605,193.381,53,51,0
193.366,193.47096,56,52,0
193.45596,193.56091,61,54,0
193.54593,193.65088,53,49,0
193.63588,193.74084,56,50,0
193.72585,193.8308,61,51,0
193.81581,193.92076,65,51,0
193.90576,194.01073,56,48,0
193.99573,194.10068,61,50,0
194.0857,194.19064,65,51,0
194.17564,194.28061,68,52,0
194.26561,194.37056,61,49,0
194.35558,194.46053,65,50,0
194.44553,194.55049,68,51,0
194.53549,194.64044,73,51,0
194.62546,194.73041,65,49,0
194.71541,194.82037,68,51,0
194.80537,194.91032,73,51,0
194.89534,195.00029,77,54,0
194.98529,195.09024,68,49,0
195.07526,195.1802,73,51,0
195.16522,195.27017,77,51,0
195.25517,195.36012,80,53,0
195.34514,195.45009,73,50,0
195.43509,195.54005,77,51,0
195.52505,195.61502,80,52,0
195.61502,195.70909,85,93,0
195.61502,195.70909,73,78,0
195.61502,195.70909,77,78,0
195.61502,195.70909,80,93,0
195.80316,195.89723,77,65,0
195.80316,195.89723,80,78,0
195.80316,195.89723,73,65,0
195.80316,195.89723,85,78,0
196.08127,196.18622,49,51,0
196.17123,196.27618,53,52,0
196.2612,196.36615,56,54,0
196.35115,196.4561,61,56,0
196.44112,196.54607,53,51,0
196.53107,196.63603,56,53,0
196.62103,196.72598,61,54,0
196.711,196.81595,65,56,0
196.80095,196.90591,56,51,0
196.89091,196.99586,61,53,0
196.98088,197.08583,65,56,0
197.07083,197.1758,68,57,0
197.1608,197.26575,61,51,0
197.25076,197.35571,65,53,0
197.34071,197.44568,68,56,0
197.43068,197.53563,73,57,0
197.52065,197.6256,65,53,0
197.6106,197.71556,68,56,0
197.70056,197.80551,73,57,0
197.79053,197.89548,77,57,0
197.88048,197.98543,68,52,0
197.97044,198.0754,73,54,0
198.06041,198.16536,77,56,0
198.15036,198.25531,80,58,0
198.24033,198.34528,73,52,0
198.33028,198.43524,77,56,0
198.42024,198.51021,80,59,0
198.51021,198.60428,80,93,0
198.51021,198.60428,73,78,0
198.51021,198.60428,77,78,0
198.51021,198.60428,85,93,0
198.69835,198.79242,85,81,0
198.69835,198.79242,77,67,0
198.69835,198.79242,80,81,0
198.69835,198.79242,73,67,0
198.97646,199.08142,49,62,0
199.06642,199.17137,54,62,0
199.15639,199.26134,57,65,0
199.24634,199.29132,61,67,0
199.3363,199.44125,61,62,0
199.42627,199.53122,66,65,0
199.51622,199.62117,69,67,0
199.60619,199.65117,73,68,0
199.69614,199.8011,73,62,0
199.7861,199.89105,78,65,0
199.87607,199.96602,81,68,0
199.96602,200.06041,85,101,0
199.96602,200.06041,78,85,0
199.96602,200.06041,73,85,0
199.96602,200.06041,81,101,0
200.15479,200.24918,73,72,0
200.15479,200.24918,78,72,0
200.15479,200.24918,85,86,0
200.15479,200.24918,81,86,0
200.43352,200.53847,49,62,0
200.52347,200.62842,56,62,0
200.61343,200.71838,59,66,0
200.7034,200.74837,61,68,0
200.79335,200.8983,61,62,0
200.88332,200.98827,68,63,0
200.97327,201.07823,71,67,0
201.06323,201.10822,73,68,0
201.1532,201.25815,73,62,0
201.24315,201.34811,80,63,0
201.33311,201.42308,83,67,0
201.42308,201.52892,83,104,0
201.42308,201.52892,73,88,0
201.42308,201.52892,80,88,0
201.42308,201.52892,85,104,0
201.63475,201.74059,73,77,0
201.63475,201.74059,85,90,0
201.63475,201.74059,83,90,0
201.63475,201.74059,80,77,0
201.84642,202.08531,78,81,0
201.84642,202.08531,73,81,0
201.84642,202.08531,85,96,0
201.84642,202.08531,81,96,0
202.3242,203.05888,73,68,0
203.04388,203.3478,69,51,0
203.31377,203.41586,66,51,0
203.41586,203.44989,65,41,0
203.44989,203.48393,66,41,0
203.48393,203.51796,68,41,0
203.51796,203.91171,66,62,0
203.89673,204.43648,65,51,0
204.43648,204.6523,65,51,0
204.6357,204.93452,73,56,0
204.93452,205.03413,65,51,0
205.03413,205.43822,68,51,0
205.42314,205.96625,66,51,0
205.96625,206.18207,66,52,0
206.16547,206.4809,73,56,0
206.4643,206.5639,66,51,0
206.5639,206.96657,69,49,0
206.95158,207.49133,68,52,0
207.49133,207.69507,68,52,0
207.67886,207.97061,73,58,0
207.97061,208.06787,68,51,0
208.06787,208.1891,69,39,0
208.17178,208.29303,73,31,0
208.27571,208.39696,69,34,0
208.37962,208.49933,73,30,0
208.48355,208.59398,66,39,0
208.57825,208.68831,73,31,0
208.67262,208.78223,69,34,0
208.76659,208.87584,73,31,0
208.86026,208.96904,66,39,0
208.95352,209.0619,73,32,0
209.04648,209.15442,69,34,0
209.13904,209.24757,73,30,0
209.2312,209.34583,66,39,0
209.32945,209.44408,73,32,0
209.4277,209.54233,69,34,0
209.52596,209.64058,73,31,0
209.6242,209.73883,68,39,0
209.72246,209.83708,73,32,0
209.82071,209.93533,71,34,0
209.91896,210.0323,73,32,0
210.01721,210.12282,68,47,0
210.10773,210.21333,73,41,0
210.19826,210.30386,71,47,0
210.28877,210.39438,73,44,0
210.37929,210.4849,68,58,0
210.46982,210.57542,73,47,0
210.56033,210.66594,71,54,0
210.65085,210.75775,73,50,0
210.74136,210.856,68,64,0
210.83961,210.95425,73,49,0
210.93787,211.0525,71,51,0
211.03612,211.15121,73,44,0
211.13437,211.25221,66,39,0
211.23538,211.35321,73,31,0
211.33638,211.45422,69,34,0
211.43738,211.55347,73,39,0
211.53839,211.644,66,48,0
211.6289,211.73451,73,42,0
211.71942,211.82503,69,48,0
211.80995,211.91556,73,45,0
211.90047,212.00607,66,58,0
211.99098,212.09875,73,48,0
212.0815,212.20232,69,54,0
212.18506,212.30586,73,50,0
212.2886,212.40941,66,64,0
212.39215,212.51295,73,51,0
212.4957,212.6165,69,51,0
212.59924,212.71875,73,45,0
212.70279,212.80927,66,39,0
212.79417,212.89978,74,31,0
212.8847,212.99031,69,34,0
212.97522,213.08083,74,32,0
213.06573,213.17134,66,45,0
213.15627,213.26187,74,31,0
213.24678,213.35239,69,34,0
213.3373,213.4429,74,34,0
213.42781,213.53342,69,48,0
213.51834,213.62395,74,34,0
213.60886,213.71446,72,38,0
213.69937,213.80498,74,34,0
213.7899,213.89551,69,53,0
213.88042,213.98602,74,34,0
213.97093,214.07654,72,39,0
214.06145,214.17029,74,34,0
214.15198,214.28017,67,53,0
214.26184,214.39003,74,32,0
214.37172,214.49991,71,34,0
214.4816,214.60655,74,32,0
214.59148,214.69708,67,39,0
214.68199,214.7876,74,33,0
214.7725,214.87811,71,35,0
214.86302,214.96863,74,31,0
214.95355,215.05916,67,39,0
215.04407,215.14967,74,32,0
215.13458,215.24019,71,34,0
215.22511,215.3324,74,31,0
215.31563,215.43306,67,39,0
215.41628,215.5337,74,32,0
215.51692,215.63435,71,34,0
215.61758,215.735,74,32,0
215.71823,215.83566,69,39,0
215.81888,215.93631,74,32,0
215.91953,216.03696,72,35,0
216.02019,216.13593,74,32,0
216.12083,216.22644,69,50,0
216.21135,216.31696,74,41,0
216.30188,216.40749,72,47,0
216.3924,216.498,74,44,0
216.48291,216.58852,69,58,0
216.57343,216.67903,74,46,0
216.66396,216.76956,72,54,0
216.75447,216.86087,74,49,0
216.84499,216.95619,69,63,0
216.9403,217.05151,74,49,0
217.03563,217.15118,72,51,0
217.13094,217.26828,74,44,0
217.2524,217.3636,67,39,0
217.34772,217.45892,74,32,0
217.44304,217.55423,71,34,0
217.53835,217.64876,74,31,0
217.63367,217.73927,67,50,0
217.72418,217.82979,74,42,0
217.8147,217.9203,71,48,0
217.90523,218.01083,74,46,0
217.99574,218.10135,67,61,0
218.08626,218.19186,74,49,0
218.17679,218.2824,71,55,0
218.2673,218.37599,74,52,0
218.35782,218.48503,67,69,0
218.46686,218.59407,74,54,0
218.5759,218.7031,71,55,0
218.68492,218.81006,74,45,0
218.79396,218.90666,68,43,0
218.89056,219.00327,74,34,0
218.98717,219.09987,71,38,0
219.08376,219.19545,74,34,0
219.18036,219.28596,68,56,0
219.27087,219.37648,73,45,0
219.3614,219.46701,71,54,0
219.45192,219.55753,73,48,0
219.54243,219.64804,68,67,0
219.63297,219.73857,73,52,0
219.72348,219.82909,71,65,0
219.814,219.9196,73,55,0
219.90451,220.01012,68,78,0
219.99504,220.10065,73,59,0
220.08556,220.19116,71,61,0
220.17607,220.28168,73,49,0
220.2666,220.37221,66,57,0
220.35712,220.46312,73,44,0
220.44763,220.55597,69,47,0
220.5405,220.64883,73,43,0
220.63336,220.7417,66,56,0
220.72623,220.83456,73,44,0
220.81908,220.92743,69,47,0
220.91194,221.0199,73,44,0
221.0048,221.11041,66,56,0
221.09532,221.20137,78,43,0
221.18585,221.29454,69,46,0
221.279,221.3877,78,42,0
221.37218,221.48087,66,54,0
221.46533,221.57402,78,45,0
221.55849,221.66718,69,47,0
221.65166,221.7599,78,43,0
221.74481,221.85042,66,62,0
221.83534,221.94095,78,41,0
221.92586,222.03146,68,47,0
221.92586,222.03146,75,47,0
222.01637,222.12198,78,42,0
222.1069,222.21251,66,59,0
222.19742,222.30302,78,43,0
222.28793,222.39354,68,47,0
222.28793,222.39354,75,47,0
222.37845,222.48405,78,44,0
222.46898,222.57458,66,58,0
222.5595,222.6651,78,45,0
222.65001,222.75562,75,47,0
222.65001,222.75562,68,47,0
222.74054,222.84615,78,42,0
222.83105,222.93666,66,58,0
222.92157,223.02718,78,43,0
223.01208,223.11769,68,47,0
223.01208,223.11769,75,47,0
223.10262,223.20822,78,42,0
223.19313,223.29874,64,65,0
223.28365,223.38925,76,52,0
223.37418,223.47978,73,56,0
223.46469,223.57059,76,52,0
223.5552,223.66284,64,65,0
223.64748,223.75511,76,52,0
223.73973,223.84737,73,56,0
223.832,223.93964,76,51,0
223.92426,224.03189,64,65,0
224.01653,224.12416,76,53,0
224.10878,224.21642,73,57,0
224.20105,224.30869,76,51,0
224.2933,224.40094,64,65,0
224.38557,224.49321,76,53,0
224.47783,224.58546,73,57,0
224.5701,224.67773,76,52,0
224.66235,224.76999,63,65,0
224.75462,224.86226,75,53,0
224.84688,224.95451,73,58,0
224.93915,225.04703,75,52,0
225.0314,225.1408,63,65,0
225.12517,225.23456,75,51,0
225.21893,225.32832,73,57,0
225.31268,225.42207,75,52,0
225.40645,225.51584,63,65,0
225.50021,225.6096,75,51,0
225.59398,225.70337,73,56,0
225.68773,225.79707,75,51,0
225.7815,225.89099,63,65,0
225.87526,225.98584,75,51,0
225.96996,226.08163,73,56,0
226.0656,226.16219,75,51,0
226.16219,226.35835,75,80,0
226.16219,226.35835,72,78,0
226.16219,226.35835,63,68,0
226.55861,227.30402,68,54,0
227.30402,227.49625,69,51,0
227.49625,227.68976,68,51,0
227.68976,228.0803,66,59,0
228.0803,228.27481,68,49,0
228.27481,228.47096,66,49,0
227.68976,228.47096,61,50,0
227.68976,228.47096,57,50,0
228.47096,228.86838,64,59,0
228.86838,229.06488,66,48,0
229.06488,229.26138,64,48,0
228.47096,229.26138,56,50,0
228.47096,229.26138,59,50,0
229.26138,229.65395,63,58,0
229.65395,229.84877,64,47,0
229.84877,230.04605,63,47,0
229.26138,230.04605,57,49,0
229.26138,230.04605,54,49,0
230.04605,230.44774,61,58,0
230.44774,230.6429,63,51,0
230.6429,230.83806,61,51,0
230.04605,230.83806,56,49,0
230.04605,230.83806,52,49,0
230.83806,231.6187,51,49,0
230.83806,231.6187,54,49,0
230.83806,231.6187,60,58,0
231.6187,232.30176,52,48,0
231.6187,232.30176,61,57,0
231.6187,232.30176,49,48,0
232.30176,232.35056,48,48,0
232.35056,232.39934,56,48,0
232.39934,232.69208,63,58,0
232.78966,233.35034,80,63,0
233.35034,233.44351,80,67,0
233.53667,233.62984,81,68,0
233.72299,233.81616,80,66,0
233.90901,234.00188,78,68,0
234.09474,234.1876,78,56,0
234.09474,234.1876,69,47,0
234.09474,234.1876,73,56,0
234.28047,234.37323,75,57,0
234.28047,234.37323,80,57,0
234.28047,234.37323,71,48,0
234.46579,234.55835,78,57,0
234.46579,234.55835,73,57,0
234.46579,234.55835,69,48,0
234.6509,234.74345,68,50,0
234.6509,234.74345,76,59,0
234.6509,234.74345,71,59,0
234.83601,234.92828,76,60,0
234.83601,234.92828,71,60,0
234.83601,234.92828,68,51,0
235.02054,235.11281,78,61,0
235.02054,235.11281,73,61,0
235.02054,235.11281,69,51,0
235.20506,235.29733,71,62,0
235.20506,235.29733,68,52,0
235.20506,235.29733,76,62,0
235.3895,235.48146,66,52,0
235.3895,235.48146,75,62,0
235.3895,235.48146,69,62,0
235.57343,235.66539,66,53,0
235.57343,235.66539,75,63,0
235.57343,235.66539,69,63,0
235.75737,235.84933,76,66,0
235.75737,235.84933,71,66,0
235.75737,235.84933,68,56,0
235.9413,236.03326,75,67,0
235.9413,236.03326,69,67,0
235.9413,236.03326,66,56,0
236.12524,236.21721,64,57,0
236.12524,236.21721,68,68,0
236.12524,236.21721,73,68,0
236.30917,236.40114,68,68,0
236.30917,236.40114,73,68,0
236.30917,236.40114,64,57,0
236.4931,236.58508,69,60,0
236.4931,236.58508,75,60,0
236.4931,236.58508,66,51,0
236.67705,236.76901,73,54,0
236.67705,236.76901,64,45,0
236.67705,236.76901,68,54,0
236.86098,237.61603,66,48,0
236.86098,237.61603,63,40,0
236.86098,237.61603,72,48,0
237.61603,238.2767,61,47,0
237.61603,238.2767,73,56,0
237.61603,238.2767,64,56,0
238.2767,238.33163,60,49,0
238.38658,239.51546,75,80,0
238.33163,239.51546,66,59,0
239.51546,239.89175,61,49,0
239.51546,239.89175,64,58,0
239.51546,239.89175,73,58,0
239.89175,240.0799,66,47,0
239.89175,240.0799,72,47,0
239.89175,240.0799,63,39,0
240.26805,240.4557,63,45,0
240.26805,240.4557,72,53,0
240.26805,240.4557,66,53,0
240.64635,240.84016,61,52,0
240.64635,240.84016,64,62,0
240.64635,240.84016,73,62,0
241.03716,241.23921,73,68,0
241.03716,241.23921,61,57,0
241.03716,241.23921,64,68,0
241.3413,241.40643,60,51,0
241.47156,242.69655,75,80,0
241.40643,242.69655,66,59,0
242.69655,242.90071,61,40,0
242.69655,242.90071,64,48,0
242.90071,243.10487,73,43,0
243.10487,243.30904,63,43,0
243.10487,243.30904,66,51,0
243.30904,243.5132,72,47,0
243.5132,243.71738,66,57,0
243.5132,243.71738,63,48,0
243.71738,243.92154,72,53,0
243.92154,244.1257,64,68,0
243.92154,244.1257,61,57,0
244.1257,244.32986,73,57,0
244.32986,244.53403,64,71,0
244.32986,244.53403,61,60,0
244.53403,244.73819,73,65,0
244.73819,244.94235,66,80,0
244.73819,244.94235,60,68,0
244.94235,245.14653,75,69,0
245.14653,245.3544,66,73,0
245.14653,245.3544,60,62,0
245.3544,245.56686,75,58,0
245.56686,245.78561,61,53,0
245.56686,245.78561,64,63,0
245.78561,246.01212,73,51,0
246.01212,246.2418,61,48,0
246.01212,246.2418,64,57,0
246.2418,246.47842,73,53,0
246.47842,248.38167,69,47,0
246.47842,248.38167,63,47,0
246.47842,248.38167,57,39,0
246.47842,248.38167,61,39,0
248.38167,250.28493,60,26,0
248.38167,250.28493,63,31,0
248.38167,250.28493,68,31,0
248.38167,250.28493,56,26,0
250.3749,250.4611,44,47,0
250.46484,250.56981,49,48,0
250.55481,250.65976,52,50,0
250.64478,250.74973,56,51,0
250.73473,250.83968,49,51,0
250.82469,250.92964,52,49,0
250.91466,251.0196,56,51,0
251.00461,251.10956,61,51,0
251.09457,251.19952,52,47,0
251.18452,251.28949,56,48,0
251.27449,251.37944,61,50,0
251.36446,251.4694,64,51,0
251.4544,251.55937,56,48,0
251.54437,251.64932,61,49,0
251.63434,251.73929,64,51,0
251.72429,251.82925,68,53,0
251.81425,251.9192,61,47,0
251.90422,252.00917,64,49,0
251.99417,252.09914,68,51,0
252.08414,252.18909,73,52,0
252.1741,252.27905,64,51,0
252.26405,252.36902,68,50,0
252.35402,252.45897,73,51,0
252.44398,252.54893,76,53,0
252.53394,252.6389,68,51,0
252.6239,252.72885,73,51,0
252.71387,252.80382,76,56,0
252.80382,252.89758,76,94,0
252.80382,252.89758,73,79,0
252.80382,252.89758,80,94,0
252.80382,252.89758,68,79,0
252.99135,253.08511,68,67,0
252.99135,253.08511,80,79,0
252.99135,253.08511,76,79,0
252.99135,253.08511,73,67,0
253.26883,253.35504,44,47,0
253.3588,253.46375,48,49,0
253.44875,253.5537,51,51,0
253.53871,253.64366,56,51,0
253.62868,253.73363,48,48,0
253.71863,253.82358,51,50,0
253.8086,253.91354,56,51,0
253.89854,254.00351,60,52,0
253.98851,254.09346,51,51,0
254.07848,254.18343,56,51,0
254.16843,254.27339,60,51,0
254.25839,254.36334,63,52,0
254.34836,254.45331,56,47,0
254.43831,254.54327,60,50,0
254.52827,254.63322,63,51,0
254.61824,254.72319,68,53,0
254.70819,254.81316,60,49,0
254.79816,254.9031,63,50,0
254.88812,254.99307,68,51,0
254.97807,255.08304,72,52,0
255.06804,255.17299,63,51,0
255.158,255.26295,68,50,0
255.24796,255.35292,72,51,0
255.33792,255.44287,75,52,0
255.42789,255.53284,68,49,0
255.51784,255.62279,72,51,0
255.6078,255.69777,75,53,0
255.69777,255.79184,68,79,0
255.69777,255.79184,72,79,0
255.69777,255.79184,75,94,0
255.69777,255.79184,80,94,0
255.88591,255.97998,72,66,0
255.88591,255.97998,75,78,0
255.88591,255.97998,68,66,0
255.88591,255.97998,80,78,0
256.164,256.26898,49,62,0
256.25397,256.35892,53,65,0
256.34393,256.44888,56,67,0
256.4339,256.53885,61,68,0
256.52386,256.6288,53,65,0
256.61383,256.71878,56,67,0
256.70377,256.80875,61,68,0
256.79373,256.89868,65,69,0
256.8837,256.98865,56,66,0
256.97366,257.0786,61,68,0
257.06363,257.16858,65,69,0
257.1536,257.25854,68,71,0
257.24353,257.3485,61,66,0
257.3335,257.43845,65,68,0
257.42346,257.5284,68,68,0
257.51343,257.61838,73,69,0
257.6034,257.70834,65,66,0
257.69336,257.7983,68,68,0
257.7833,257.88824,73,68,0
257.87326,257.9782,77,70,0
257.96323,258.06818,68,63,0
258.0532,258.15814,73,66,0
258.14316,258.2481,77,68,0
258.2331,258.33807,80,68,0
258.32306,258.428,73,66,0
258.41302,258.51797,77,68,0
258.503,258.59296,80,70,0
258.59296,258.6864,85,103,0
258.59296,258.6864,73,87,0
258.59296,258.6864,77,87,0
258.59296,258.6864,80,103,0
258.77988,258.87335,73,77,0
258.77988,258.87335,77,77,0
258.77988,258.87335,80,90,0
258.77988,258.87335,85,90,0
259.05676,259.1617,49,61,0
259.14673,259.25168,54,63,0
259.2367,259.34164,57,62,0
259.32666,259.3716,61,69,0
259.4166,259.52158,61,72,0
259.50656,259.6115,66,76,0
259.59653,259.70148,69,76,0
259.6865,259.73148,73,82,0
259.77646,259.8814,73,85,0
259.86642,259.97137,78,87,0
259.95636,260.06155,81,84,0
260.04633,260.13773,78,102,0
260.04633,260.13773,85,102,0
260.04633,260.13773,73,86,0
260.2291,260.3205,85,101,0
260.2291,260.3205,78,101,0
260.2291,260.3205,73,85,0
260.50183,260.60678,49,75,0
260.5918,260.69675,52,77,0
260.68176,260.7867,55,75,0
260.77173,260.81668,61,80,0
260.86166,260.96664,61,77,0
260.95163,261.05658,64,79,0
261.0416,261.14655,67,77,0
261.13156,261.17654,73,81,0
261.22153,261.32648,73,80,0
261.3115,261.41644,76,81,0
261.40143,261.4914,79,79,0
261.4914,261.59607,73,90,0
261.4914,261.59607,85,108,0
261.4914,261.59607,79,108,0
261.70074,261.80542,73,90,0
261.70074,261.80542,79,108,0
261.70074,261.80542,85,108,0
261.9101,262.11945,84,108,0
261.9101,262.11945,72,90,0
261.9101,262.11945,80,108,0
262.11945,262.21054,68,74,0
262.21054,262.30164,80,58,0
262.30164,262.39273,68,75,0
262.39273,262.48383,80,60,0
262.48383,262.57492,70,76,0
262.57492,262.66605,80,60,0
262.66605,262.75714,72,76,0
262.75714,262.84824,80,61,0
262.84824,262.93933,73,78,0
262.93933,263.03043,80,62,0
263.03043,263.12152,75,79,0
263.12152,263.21262,80,62,0
263.21262,263.3037,72,79,0
263.3037,263.3948,80,62,0
263.3948,263.48828,75,80,0
263.48828,263.58173,80,62,0
263.58173,263.6752,73,80,0
263.6752,263.76865,80,62,0
263.76865,263.86212,78,84,0
263.86212,263.9556,80,62,0
263.9556,264.04895,76,80,0
264.04895,264.14212,80,62,0
264.14212,264.2353,75,80,0
264.2353,264.32812,80,62,0
264.32812,264.421,73,79,0
264.421,264.51376,80,62,0
264.51376,264.60373,72,79,0
264.60373,264.6937,80,62,0
264.6937,264.78595,69,77,0
264.78595,264.8782,79,61,0
264.8782,264.97037,68,76,0
264.97037,265.06235,80,60,0
265.06235,265.1543,68,75,0
265.1543,265.24597,80,59,0
265.24597,265.33765,68,74,0
265.33765,265.42923,80,59,0
265.42923,265.52063,70,74,0
265.52063,265.612,80,61,0
265.612,265.7034,72,76,0
265.7034,265.79477,80,59,0
265.79477,265.88617,73,76,0
265.88617,265.97754,80,62,0
265.97754,266.06894,75,77,0
266.06894,266.1603,80,61,0
266.1603,266.2517,72,79,0
266.2517,266.34308,80,62,0
266.34308,266.43842,75,79,0
266.43842,266.53372,80,62,0
266.53372,266.62903,73,80,0
266.62903,266.72345,80,65,0
266.72345,266.816,78,84,0
266.816,266.90857,80,68,0
266.90857,267.00113,76,84,0
267.00113,267.09338,80,67,0
267.09338,267.18564,75,84,0
267.18564,267.2779,80,67,0
267.2779,267.36987,73,84,0
267.36987,267.46182,80,66,0
267.46182,267.5538,72,84,0
267.5538,267.64548,80,67,0
267.64548,267.73715,69,84,0
267.73715,267.82883,79,66,0
267.82883,267.92023,68,84,0
267.92023,268.0117,80,66,0
268.0117,268.1035,69,79,0
268.1035,268.19553,79,67,0
268.19553,268.2879,68,84,0
268.2879,268.38055,80,66,0
268.38055,268.4735,69,79,0
268.4735,268.56677,79,67,0
268.56677,268.66025,68,84,0
268.66025,268.754,80,66,0
268.754,268.84808,69,79,0
268.84808,268.94247,79,65,0
268.94247,269.03717,68,84,0
269.03717,269.13217,80,66,0
269.13217,269.22748,69,79,0
269.22748,269.32312,79,65,0
269.32312,269.56915,68,84,0
269.32312,269.56915,80,84,0
269.8152,271.29144,56,113,0
271.70267,272.4589,68,56,0
272.44177,272.77393,64,47,0
272.75018,272.82144,61,47,0
272.82144,272.84518,60,37,0
272.84518,272.86893,61,37,0
272.86893,272.8927,63,37,0
272.8927,273.29678,61,53,0
273.2817,273.8248,60,47,0
273.8248,274.0413,60,47,0
274.02402,274.3347,68,56,0
274.3347,274.43823,60,48,0
274.43823,274.84088,63,43,0
274.8259,275.36566,61,47,0
275.36566,275.57535,61,45,0
275.55823,275.8666,68,57,0
275.8666,275.96942,61,47,0
275.96942,276.3722,64,48,0
276.3571,276.9002,63,47,0
276.9002,277.12296,63,48,0
277.1058,277.43137,68,54,0
277.4142,277.51703,63,48,0
277.51703,277.6096,64,51,0
277.70215,278.0724,68,48,0
277.70215,278.0724,80,58,0
278.0724,278.44263,80,53,0
278.0724,278.44263,68,45,0
278.44263,278.53256,68,47,0
278.44263,278.53256,80,56,0
278.62253,278.7125,76,58,0
278.62253,278.7125,64,49,0
278.80246,278.89243,61,47,0
278.80246,278.89243,73,56,0
278.9824,279.07233,73,61,0
278.9824,279.07233,61,51,0
279.1623,279.53494,72,62,0
279.1623,279.53494,60,52,0
279.53494,279.9076,60,57,0
279.53494,279.9076,72,68,0
279.9076,279.99756,72,69,0
279.9076,279.99756,60,58,0
280.08752,280.1775,68,60,0
280.08752,280.1775,80,71,0
280.26743,280.3574,60,58,0
280.26743,280.3574,72,69,0
280.44736,280.53732,63,62,0
280.44736,280.53732,75,74,0
280.6273,280.99994,73,75,0
280.6273,280.99994,61,63,0
280.99994,281.37256,73,80,0
280.99994,281.37256,61,68,0
281.37256,281.46338,61,63,0
281.37256,281.46338,73,75,0
281.55417,281.645,68,72,0
281.55417,281.645,80,85,0
281.73578,281.8266,61,73,0
281.73578,281.8266,73,86,0
281.9174,282.0082,76,86,0
281.9174,282.0082,64,73,0
282.099,282.46805,75,85,0
282.099,282.46805,63,72,0
282.46805,282.8371,63,79,0
282.46805,282.8371,75,93,0
282.8371,282.92938,75,90,0
282.8371,282.92938,63,75,0
283.02164,283.1139,80,93,0
283.02164,283.1139,68,79,0
283.20615,283.29843,63,75,0
283.20615,283.29843,75,90,0
283.3907,284.11035,77,95,0
283.3907,284.11035,65,80,0
284.11035,284.83005,78,95,0
284.11035,284.83005,66,80,0
284.83005,284.88068,75,80,0
284.88068,284.9313,76,75,0
284.9305,284.98114,75,80,0
284.98114,285.03177,76,80,0
285.04425,285.10498,75,80,0
285.1003,285.16107,73,75,0
285.15173,285.20392,75,75,0
284.83005,285.20392,63,67,0
285.20392,286.28342,64,80,0
285.20392,286.28342,76,95,0
286.28342,287.01685,61,80,0
286.28342,287.01685,73,95,0
287.01685,287.7456,74,94,0
287.01685,287.7456,62,80,0
287.7456,287.79575,72,80,0
287.79575,287.8459,73,75,0
287.84512,287.89523,72,80,0
287.89523,287.94537,73,80,0
287.95773,288.01788,72,80,0
288.01324,288.07343,70,75,0
288.06418,288.11584,72,75,0
287.7456,288.11584,60,67,0
288.11584,289.19537,73,95,0
288.11584,289.19537,61,80,0
289.19537,290.005,62,83,0
289.19537,290.005,66,83,0
289.19537,290.005,69,100,0
289.19537,290.005,74,100,0
290.005,290.09497,69,48,0
290.09497,290.18494,71,48,0
290.18494,290.2749,73,49,0
290.2749,290.36487,74,50,0
290.36487,290.4548,76,51,0
290.4548,290.54477,78,51,0
290.54477,290.63474,76,49,0
290.63474,290.7247,74,49,0
290.7247,290.81467,69,47,0
290.81467,290.90463,71,48,0
290.90463,290.99457,73,49,0
290.99457,291.08453,74,50,0
291.08453,291.1745,76,51,0
291.1745,291.26447,78,51,0
291.26447,291.35443,76,50,0
291.35443,291.4444,74,48,0
291.4444,291.53433,69,48,0
291.53433,291.6243,71,50,0
291.6243,291.71426,73,51,0
291.71426,291.80423,74,51,0
291.80423,291.8942,76,52,0
291.8942,291.98413,78,52,0
291.98413,292.0741,76,51,0
292.0741,292.16406,74,47,0
292.16406,292.25403,69,48,0
292.25403,292.344,71,51,0
292.344,292.43396,73,51,0
292.43396,292.5239,74,54,0
292.5239,292.61386,76,56,0
292.61386,292.70383,78,57,0
292.70383,292.7938,79,60,0
292.7938,292.88376,81,61,0
292.88376,292.97372,80,59,0
292.97372,293.06366,83,57,0
293.06366,293.15363,81,56,0
293.15363,293.2436,79,54,0
293.2436,293.33356,78,52,0
293.33356,293.42352,76,51,0
293.42352,293.51346,74,50,0
293.51346,294.23315,73,48,0
294.23315,294.29388,75,50,0
294.29388,294.3546,76,50,0
294.3546,294.41156,75,50,0
294.41156,294.4685,76,50,0
294.4685,294.52542,75,50,0
294.52542,294.58237,76,50,0
294.58237,294.6355,75,49,0
294.6355,294.68863,76,49,0
294.68863,294.7342,75,50,0
294.7342,294.77972,76,51,0
294.77972,294.84045,75,51,0
294.84045,294.9012,73,51,0
294.9012,294.96194,75,52,0
294.96194,295.17838,73,56,0
295.39484,295.84464,50,73,0
295.39484,295.84464,62,87,0
295.39484,295.84464,54,73,0
295.39484,295.84464,57,87,0
295.84464,295.9346,57,48,0
295.9346,296.02457,59,48,0
296.02457,296.1145,61,49,0
296.1145,296.20447,62,50,0
296.20447,296.29443,64,51,0
296.29443,296.3844,66,51,0
296.3844,296.47437,64,51,0
296.47437,296.56433,62,48,0
296.56433,296.65427,57,47,0
296.65427,296.74423,59,48,0
296.74423,296.8342,61,48,0
296.8342,296.92416,62,49,0
296.92416,297.01413,64,50,0
297.01413,297.1041,66,51,0
297.1041,297.19403,64,48,0
297.19403,297.284,62,48,0
297.284,297.37396,57,48,0
297.37396,297.46393,59,48,0
297.46393,297.5539,61,50,0
297.5539,297.64383,62,50,0
297.64383,297.7338,64,50,0
297.7338,297.82376,66,50,0
297.82376,297.91373,64,50,0
297.91373,298.0037,62,49,0
298.0037,298.09366,57,51,0
298.09366,298.1836,59,51,0
298.1836,298.27356,61,53,0
298.27356,298.36353,62,56,0
298.36353,298.4535,64,56,0
298.4535,298.54346,66,57,0
298.54346,298.63342,67,59,0
298.63342,298.72336,69,61,0
298.72336,298.81332,71,62,0
298.81332,298.9033,73,63,0
298.9033,298.99326,74,66,0
298.99326,299.08322,76,68,0
299.08322,299.1732,78,68,0
299.1732,299.26312,79,70,0
299.26312,299.3531,80,72,0
299.3531,300.07278,69,67,0
299.3531,300.07278,81,79,0
300.07278,300.79245,61,65,0
300.07278,300.79245,73,77,0
300.79245,301.51215,76,77,0
300.79245,301.51215,64,65,0
301.51215,302.2409,60,77,0
301.51215,302.2409,54,65,0
301.51215,302.2409,48,65,0
302.42084,302.5108,56,48,0
302.42084,302.5108,64,48,0
302.60077,302.69186,56,48,0
302.60077,302.69186,64,48,0
302.78296,302.87405,56,48,0
302.78296,302.87405,64,48,0
302.96515,303.05624,56,48,0
302.96515,303.05624,64,48,0
303.14734,303.23843,56,48,0
303.14734,303.23843,64,48,0
303.32953,303.42062,56,46,0
303.32953,303.42062,63,46,0
303.51172,303.6028,61,45,0
303.51172,303.6028,56,45,0
303.6939,303.87613,56,53,0
303.6939,303.87613,60,53,0
303.87613,303.96722,68,48,0
303.87613,303.96722,60,48,0
304.05832,304.1483,60,48,0
304.05832,304.1483,68,48,0
304.23822,304.3282,68,48,0
304.23822,304.3282,60,48,0
304.41815,304.50812,68,48,0
304.41815,304.50812,60,48,0
304.59808,304.68802,60,48,0
304.59808,304.68802,68,48,0
304.77798,304.86795,61,48,0
304.77798,304.86795,68,48,0
304.95792,305.04788,63,51,0
304.95792,305.04788,68,51,0
305.13785,305.31775,68,59,0
305.13785,305.31775,64,59,0
305.31775,305.4077,64,48,0
305.31775,305.4077,56,48,0
305.49768,305.58878,56,48,0
305.49768,305.58878,64,48,0
305.67987,305.77097,64,49,0
305.67987,305.77097,56,49,0
305.86206,305.95316,64,49,0
305.86206,305.95316,56,49,0
306.04425,306.13535,56,49,0
306.04425,306.13535,64,49,0
306.22644,306.31754,63,47,0
306.22644,306.31754,56,47,0
306.40863,306.49976,56,48,0
306.40863,306.49976,61,48,0
306.59085,306.77304,60,59,0
306.59085,306.77304,56,59,0
306.77304,306.86414,60,47,0
306.77304,306.86414,68,47,0
306.95523,307.0452,60,47,0
306.95523,307.0452,68,47,0
307.13513,307.2251,68,47,0
307.13513,307.2251,60,47,0
307.31506,307.40503,68,47,0
307.31506,307.40503,60,47,0
307.495,307.58496,68,47,0
307.495,307.58496,60,47,0
307.6749,307.76486,68,47,0
307.6749,307.76486,61,47,0
307.85483,307.9448,63,51,0
307.85483,307.9448,68,51,0
308.03476,308.12643,64,61,0
308.03476,308.12643,68,61,0
308.2181,308.30807,64,47,0
308.2181,308.30807,68,47,0
308.398,308.57794,68,48,0
308.398,308.57794,64,48,0
308.57794,308.75787,64,45,0
308.57794,308.75787,61,45,0
308.94122,309.0312,69,48,0
308.94122,309.0312,66,48,0
309.12112,309.30106,66,48,0
309.12112,309.30106,69,48,0
309.30106,309.481,66,46,0
309.30106,309.481,61,46,0
309.6655,309.75546,64,47,0
309.6655,309.75546,68,47,0
309.84543,310.02536,64,47,0
309.84543,310.02536,68,47,0
310.02536,310.20526,61,46,0
310.02536,310.20526,64,46,0
310.39404,310.48398,68,47,0
310.39404,310.48398,63,47,0
310.57394,310.75388,68,47,0
310.57394,310.75388,63,47,0
310.75388,310.9338,63,45,0
310.75388,310.9338,60,45,0
310.9338,311.11716,64,59,0
310.9338,311.11716,61,59,0
311.11716,311.2071,68,47,0
311.11716,311.2071,76,47,0
311.11716,311.2071,64,39,0
311.29706,311.38702,68,47,0
311.29706,311.38702,64,39,0
311.29706,311.38702,76,47,0
311.477,311.56696,76,47,0
311.477,311.56696,68,47,0
311.477,311.56696,64,39,0
311.65692,311.74686,76,47,0
311.65692,311.74686,64,39,0
311.65692,311.74686,68,47,0
311.83682,311.9268,76,47,0
311.83682,311.9268,64,39,0
311.83682,311.9268,68,47,0
312.01675,312.10672,75,50,0
312.01675,312.10672,63,42,0
312.01675,312.10672,66,50,0
312.1967,312.28662,64,52,0
312.1967,312.28662,73,52,0
312.1967,312.28662,61,44,0
312.3766,312.55853,60,49,0
312.3766,312.55853,72,58,0
312.3766,312.55853,63,58,0
312.55853,312.64868,84,81,0
312.55853,312.64868,75,81,0
312.55853,312.64868,72,68,0
312.739,312.82962,84,86,0
312.739,312.82962,72,73,0
312.739,312.82962,75,86,0
312.9204,313.0115,75,80,0
312.9204,313.0115,84,80,0
312.9204,313.0115,72,68,0
313.1028,313.1944,84,86,0
313.1028,313.1944,75,86,0
313.1028,313.1944,72,73,0
313.28616,313.3781,75,81,0
313.28616,313.3781,84,81,0
313.28616,313.3781,72,68,0
313.4704,313.56296,85,89,0
313.4704,313.56296,73,74,0
313.4704,313.56296,76,89,0
313.6557,313.74866,78,84,0
313.6557,313.74866,75,71,0
313.6557,313.74866,87,84,0
313.84192,314.02866,76,81,0
313.84192,314.02866,80,96,0
313.84192,314.02866,88,96,0
314.02866,314.11917,76,47,0
314.02866,314.11917,64,39,0
314.02866,314.11917,68,47,0
314.20972,314.30023,76,47,0
314.20972,314.30023,68,47,0
314.20972,314.30023,64,39,0
314.39075,314.48126,76,47,0
314.39075,314.48126,64,39,0
314.39075,314.48126,68,47,0
314.57178,314.6623,68,48,0
314.57178,314.6623,64,40,0
314.57178,314.6623,76,48,0
314.7528,314.84335,76,48,0
314.7528,314.84335,64,40,0
314.7528,314.84335,68,48,0
314.93387,315.02438,75,48,0
314.93387,315.02438,66,48,0
314.93387,315.02438,63,40,0
315.1149,315.2054,61,42,0
315.1149,315.2054,73,50,0
315.1149,315.2054,64,50,0
315.29593,315.47958,60,47,0
315.29593,315.47958,63,56,0
315.29593,315.47958,72,56,0
315.47958,315.56955,72,66,0
315.47958,315.56955,84,78,0
315.47958,315.56955,75,78,0
315.65952,315.74966,84,86,0
315.65952,315.74966,72,73,0
315.65952,315.74966,75,86,0
315.8399,315.93024,84,80,0
315.8399,315.93024,72,68,0
315.8399,315.93024,75,80,0
316.02075,316.11127,75,86,0
316.02075,316.11127,72,73,0
316.02075,316.11127,84,86,0
316.20206,316.29288,72,73,0
316.20206,316.29288,84,86,0
316.20206,316.29288,75,86,0
316.38397,316.47507,76,86,0
316.38397,316.47507,85,86,0
316.38397,316.47507,73,73,0
316.56635,316.65775,78,80,0
316.56635,316.65775,75,68,0
316.56635,316.65775,87,80,0
316.74924,316.9326,88,97,0
316.74924,316.9326,80,97,0
316.74924,316.9326,76,82,0
316.9326,317.0231,85,50,0
316.9326,317.0231,80,50,0
317.11362,317.29465,80,50,0
317.11362,317.29465,85,50,0
317.29465,317.4757,76,48,0
317.29465,317.4757,80,48,0
317.65964,317.74988,85,49,0
317.65964,317.74988,81,49,0
317.84012,318.0206,81,49,0
317.84012,318.0206,85,49,0
318.0206,318.20108,81,48,0
318.0206,318.20108,78,48,0
318.385,318.47525,76,49,0
318.385,318.47525,80,49,0
318.5655,318.74597,80,49,0
318.5655,318.74597,76,49,0
318.74597,318.92648,76,47,0
318.74597,318.92648,73,47,0
319.111,319.20123,75,51,0
319.111,319.20123,80,51,0
319.29147,319.47195,80,51,0
319.29147,319.47195,75,51,0
319.47195,319.65244,75,49,0
319.47195,319.65244,72,49,0
319.83292,319.92316,80,56,0
319.83292,319.92316,76,56,0
320.01343,320.19467,80,56,0
320.01343,320.19467,76,56,0
320.19467,320.3802,76,54,0
320.19467,320.3802,68,54,0
320.5678,320.6625,69,65,0
320.5678,320.6625,78,65,0
320.75748,320.95007,69,63,0
320.75748,320.95007,78,63,0
320.95007,321.14703,74,62,0
320.95007,321.14703,66,62,0
321.34677,321.44913,68,57,0
321.34677,321.44913,76,57,0
321.55295,321.76154,76,57,0
321.55295,321.76154,68,57,0
321.76154,321.97015,73,57,0
321.76154,321.97015,64,57,0
322.18097,322.28885,66,49,0
322.18097,322.28885,75,49,0
322.39847,322.62747,66,49,0
322.39847,322.62747,75,49,0
322.62747,322.86343,63,47,0
322.62747,322.86343,72,47,0
322.86343,323.26047,64,50,0
322.86343,323.26047,73,50,0
324.05453,324.3586,64,50,0
324.3586,324.45996,61,50,0
324.45996,324.86542,60,57,0
324.86542,325.18643,68,47,0
324.86542,325.18643,54,39,0
324.86542,325.18643,60,47,0
325.29346,325.6145,54,39,0
325.29346,325.6145,68,47,0
325.29346,325.6145,60,47,0
325.7215,326.04254,68,50,0
325.7215,326.04254,60,50,0
325.7215,326.04254,54,42,0
326.04254,326.11453,52,50,0
326.11453,326.1865,61,50,0
326.1865,327.3776,68,57,0
327.3776,327.6806,76,58,0
327.6806,327.78162,73,58,0
327.78162,328.1856,72,67,0
328.1856,328.49854,72,57,0
328.1856,328.49854,66,48,0
328.1856,328.49854,80,57,0
328.60284,328.91574,80,57,0
328.60284,328.91574,66,48,0
328.60284,328.91574,72,57,0
329.02005,329.33084,66,48,0
329.02005,329.33084,80,57,0
329.02005,329.33084,72,57,0
329.33084,329.39874,64,47,0
329.39874,329.46664,73,53,0
329.46664,330.152,80,73,0
330.152,330.20914,66,45,0
330.20914,330.26624,72,52,0
330.26624,330.95163,80,72,0
330.95163,331.01587,64,43,0
331.01587,331.08014,73,53,0
331.08014,331.7655,80,72,0
331.7655,331.81448,66,45,0
331.81448,331.86343,72,53,0
331.86343,332.64673,80,71,0
332.64673,332.74814,52,51,0
332.749,332.84967,61,48,0
332.8505,332.95032,56,51,0
332.95117,333.05096,61,49,0
333.05182,333.1516,52,53,0
333.15247,333.25226,61,51,0
333.2531,333.35294,56,56,0
333.35376,333.45294,61,52,0
333.45377,333.55157,52,57,0
333.5524,333.65015,61,53,0
333.65097,333.74875,56,59,0
333.74957,333.84732,61,56,0
333.84814,333.94592,52,61,0
333.94675,334.04407,61,57,0
334.0449,334.14133,56,62,0
334.14215,334.2386,61,57,0
334.23938,334.33582,49,65,0
334.23938,334.33582,53,65,0
334.33664,334.43307,61,58,0
334.4339,334.52914,56,67,0
334.52994,334.62323,61,60,0
334.624,334.7173,49,68,0
334.624,334.7173,53,68,0
334.71808,334.81137,61,61,0
334.81216,334.90546,56,69,0
334.90622,334.9995,61,65,0
335.0003,335.09204,49,72,0
335.0003,335.09204,53,72,0
335.0928,335.18317,61,67,0
335.18393,335.2743,56,73,0
335.27502,335.36493,61,68,0
335.36566,335.45544,53,74,0
335.36566,335.45544,49,74,0
335.45618,335.54596,61,70,0
335.54672,335.63647,56,76,0
335.63724,335.71417,61,71,0
335.72775,335.81772,57,67,0
335.72775,335.81772,54,67,0
335.72775,335.81772,61,79,0
335.72775,335.81772,49,67,0
335.81772,335.92267,49,53,0
335.90768,336.01263,54,56,0
335.99762,336.1026,57,57,0
336.0876,336.19254,61,59,0
336.17755,336.2825,54,54,0
336.26752,336.37247,57,54,0
336.35748,336.46243,61,56,0
336.44745,336.5524,66,57,0
336.53738,336.64233,57,53,0
336.62735,336.7323,61,56,0
336.71732,336.82227,66,57,0
336.80728,336.91223,69,58,0
336.89725,337.0022,61,53,0
336.98718,337.09216,66,53,0
337.07715,337.1821,69,54,0
337.1671,337.27206,73,57,0
337.25708,337.36203,66,58,0
337.34705,337.452,69,51,0
337.437,337.54196,73,52,0
337.52695,337.63193,78,56,0
337.6169,337.72186,69,51,0
337.70688,337.81183,73,51,0
337.79684,337.9018,78,53,0
337.8868,337.99176,81,56,0
337.97678,338.08173,73,51,0
338.0667,338.1717,78,54,0
338.15668,338.24664,81,57,0
338.24664,338.3404,78,83,0
338.24664,338.3404,85,98,0
338.24664,338.3404,73,83,0
338.24664,338.3404,81,98,0
338.43417,338.52792,73,69,0
338.43417,338.52792,81,81,0
338.43417,338.52792,78,69,0
338.43417,338.52792,85,81,0
338.71243,338.81802,49,58,0
338.80295,338.90854,52,60,0
338.89346,338.99908,56,62,0
338.98398,339.0896,61,65,0
339.0745,339.1801,52,60,0
339.16504,339.27063,56,62,0
339.25555,339.36115,61,63,0
339.34607,339.45166,64,66,0
339.43658,339.54218,56,61,0
339.5271,339.63272,61,62,0
339.6176,339.72324,64,63,0
339.70813,339.81375,68,67,0
339.79868,339.90427,61,61,0
339.8892,339.99478,64,62,0
339.9797,340.0853,68,63,0
340.07022,340.1758,73,66,0
340.16074,340.26636,64,63,0
340.25125,340.35687,68,63,0
340.34177,340.4474,73,62,0
340.4323,340.5379,76,66,0
340.52283,340.62842,68,62,0
340.61334,340.71893,73,62,0
340.70386,340.80945,76,67,0
340.79437,340.9,80,68,0
340.8849,340.9905,73,62,0
340.9754,341.08102,76,66,0
341.06595,341.15646,80,68,0
341.15646,341.25607,80,109,0
341.15646,341.25607,85,109,0
341.15646,341.25607,76,92,0
341.15646,341.25607,73,92,0
341.35568,341.4996,85,96,0
341.35568,341.4996,73,81,0
341.35568,341.4996,76,81,0
341.35568,341.4996,80,96,0
342.116,342.82465,61,45,0
341.9979,342.82465,55,35,0
341.87976,342.82465,49,31,0
341.9388,342.82465,52,33,0
342.05695,342.82465,58,39,0
343.06088,343.53333,73,62,0
342.94275,343.7743,67,58,0
342.82465,343.7743,61,53,0
342.8837,343.7743,64,56,0
343.00183,343.7743,70,61,0
344.01523,345.95486,85,79,0
343.89474,345.95486,79,73,0
343.7743,345.95486,73,66,0
343.83453,345.95486,76,68,0
343.955,345.95486,82,76,0
346.4273,347.13596,57,41,0
346.3092,347.13596,51,35,0
346.1911,347.13596,45,29,0
346.25015,347.13596,48,32,0
346.36826,347.13596,54,38,0
347.3722,347.84464,69,62,0
347.2541,348.0856,63,58,0
347.31314,348.0856,66,59,0
347.13596,348.0856,57,56,0
347.19504,348.0856,60,57,0
348.32657,350.25797,81,91,0
347.96512,350.25797,69,73,0
348.0856,350.25797,72,77,0
348.2061,350.25797,75,79,0
350.36188,350.48312,68,31,0
350.4658,350.58704,64,34,0
350.5697,350.68942,68,30,0
350.67365,350.76755,61,39,0
350.76834,350.8619,68,30,0
350.8627,350.9559,64,34,0
350.95667,351.04956,68,30,0
351.05035,351.14282,61,39,0
351.14362,351.23578,68,31,0
351.23657,351.32834,64,34,0
351.32913,351.42053,68,30,0
351.4213,351.5187,61,39,0
351.51953,351.61697,68,31,0
351.6178,351.7152,64,34,0
351.71603,351.81348,68,31,0
351.8143,351.92892,63,39,0
351.91254,352.02716,68,31,0
352.0108,352.12543,66,34,0
352.10904,352.22238,68,30,0
352.2073,352.29706,63,50,0
352.29782,352.38757,68,43,0
352.38834,352.4781,66,47,0
352.47885,352.56863,68,44,0
352.56937,352.65915,63,58,0
352.65988,352.74966,68,46,0
352.75043,352.84018,66,54,0
352.84094,352.9307,68,51,0
352.93146,353.0289,63,66,0
353.0297,353.12714,68,49,0
353.12796,353.2254,66,51,0
353.2262,353.32364,68,43,0
353.32446,353.4423,61,39,0
353.42548,353.5433,68,30,0
353.52646,353.6443,64,34,0
353.62747,353.74356,68,31,0
353.7285,353.81824,61,50,0
353.819,353.90875,68,40,0
353.90952,353.99927,64,47,0
354.00003,354.08978,68,43,0
354.09055,354.18033,61,58,0
354.18106,354.27084,68,48,0
354.27158,354.37427,64,54,0
354.37512,354.4778,68,49,0
354.4787,354.58136,61,66,0
354.58224,354.6849,68,49,0
354.6858,354.78845,64,51,0
354.78934,354.89203,68,42,0
354.89288,355.0107,60,39,0
354.99387,355.11172,68,29,0
355.09488,355.2127,66,34,0
355.1959,355.31198,68,30,0
355.2969,355.38666,60,50,0
355.38742,355.47717,68,40,0
355.47794,355.5677,66,47,0
355.56845,355.6582,68,43,0
355.65897,355.74875,60,58,0
355.74948,355.83926,68,49,0
355.84,355.9427,66,54,0
355.94354,356.04623,68,49,0
356.04712,356.14978,60,66,0
356.15067,356.25333,68,48,0
356.2542,356.35687,66,51,0
356.35776,356.44577,68,43,0
356.4613,356.6684,61,41,0
356.4613,356.6684,68,41,0
356.4613,356.6684,64,41,0
356.8755,357.59518,68,57,0
356.8755,357.59518,80,57,0
357.59518,357.8802,76,47,0
357.59518,357.8802,64,47,0
357.8802,357.97125,73,47,0
357.8802,357.97125,61,47,0
357.97522,358.35526,61,54,0
357.97522,358.35526,73,54,0
358.35526,358.8967,60,46,0
358.35526,358.8967,72,46,0
358.8967,359.09186,60,47,0
358.8967,359.09186,72,47,0
359.09186,359.3981,68,56,0
359.09186,359.3981,80,56,0
359.3981,359.50018,72,47,0
359.3981,359.50018,60,47,0
359.50018,359.88785,75,46,0
359.50018,359.88785,63,46,0
359.88785,360.42932,73,47,0
359.88785,360.42932,61,47,0
360.42932,360.6225,61,46,0
360.42932,360.6225,73,46,0
360.6225,360.92984,68,56,0
360.6225,360.92984,80,56,0
360.92984,361.0323,73,46,0
360.92984,361.0323,61,46,0
361.0323,361.4187,64,49,0
361.0323,361.4187,76,49,0
361.4187,361.95935,63,48,0
361.4187,361.95935,75,48,0
361.95935,362.16644,75,47,0
361.95935,362.16644,63,47,0
362.16644,362.47708,68,54,0
362.16644,362.47708,80,54,0
362.47708,362.58066,63,47,0
362.47708,362.58066,75,47,0
362.58066,362.76147,78,50,0
362.58066,362.76147,66,50,0
362.76147,362.9418,76,48,0
362.76147,362.9418,64,48,0
362.9418,363.03232,73,54,0
362.9418,363.03232,85,54,0
363.12283,363.21335,76,51,0
363.12283,363.21335,64,51,0
363.30408,363.48886,78,57,0
363.30408,363.48886,66,57,0
363.48886,363.67456,65,56,0
363.48886,363.67456,77,56,0
363.67456,363.76743,85,60,0
363.67456,363.76743,73,60,0
363.8603,363.95316,77,60,0
363.8603,363.95316,65,60,0
364.04602,364.23175,68,66,0
364.04602,364.23175,80,66,0
364.23175,364.41748,78,63,0
364.23175,364.41748,66,63,0
364.41748,364.5105,85,68,0
364.41748,364.5105,73,68,0
364.6054,364.7007,78,68,0
364.6054,364.7007,66,68,0
364.79654,364.99036,69,73,0
364.79654,364.99036,81,73,0
364.99036,365.1883,68,72,0
364.99036,365.1883,80,72,0
365.1883,365.2867,85,78,0
365.1883,365.2867,73,78,0
365.39133,365.49747,80,76,0
365.39133,365.49747,68,76,0
365.60605,365.72617,81,84,0
365.72617,365.84628,78,67,0
365.84628,365.9664,73,66,0
365.9664,366.08652,69,73,0
366.08652,366.20663,66,62,0
366.20663,366.32675,61,63,0
366.32675,366.44687,69,71,0
366.44687,366.567,66,63,0
366.567,366.6871,61,63,0
366.6871,366.80725,57,71,0
366.80725,366.92737,54,61,0
366.92737,367.0475,49,62,0
367.0475,367.13757,57,78,0
367.13757,367.22766,54,61,0
367.22766,367.31775,49,67,0
367.31775,367.40784,45,62,0
367.40784,367.49792,49,71,0
367.49792,367.588,52,62,0
367.588,367.6781,56,67,0
367.6781,367.7682,61,62,0
367.7682,367.85828,66,71,0
367.85828,367.94836,69,61,0
367.94836,368.03845,73,67,0
368.03845,368.12857,78,60,0
368.12857,368.21848,81,72,0
368.21848,368.30893,78,63,0
368.30893,368.40002,73,68,0
368.40002,368.49176,69,65,0
368.49176,368.61188,81,84,0
368.61188,368.732,78,65,0
368.732,368.8521,74,66,0
368.8521,368.97223,69,71,0
368.97223,369.09235,66,62,0
369.09235,369.21246,62,65,0
369.21246,369.3326,69,70,0
369.3326,369.45273,66,62,0
369.45273,369.57285,62,63,0
369.57285,369.69296,57,72,0
369.69296,369.81308,54,62,0
369.81308,369.9332,50,62,0
369.9332,370.0233,57,77,0
370.0233,370.11337,54,65,0
370.11337,370.20346,50,70,0
370.20346,370.29355,45,66,0
370.29355,370.38364,50,73,0
370.38364,370.47372,54,62,0
370.47372,370.5638,57,68,0
370.5638,370.65393,62,63,0
370.65393,370.74402,66,72,0
370.74402,370.8341,69,62,0
370.8341,370.9242,74,68,0
370.9242,371.01428,78,65,0
371.01428,371.10474,81,78,0
371.10474,371.19574,78,66,0
371.19574,371.2873,74,70,0
371.2873,371.3793,69,67,0
371.3793,371.49942,85,85,0
371.49942,371.61954,82,68,0
371.61954,371.7397,79,67,0
371.7397,371.8598,76,78,0
371.8598,371.97992,73,65,0
371.97992,372.10004,70,67,0
372.10004,372.22015,76,78,0
372.22015,372.34027,73,68,0
372.34027,372.4604,70,68,0
372.4604,372.55048,67,74,0
372.55048,372.64056,64,62,0
372.64056,372.73065,61,67,0
372.73065,372.82074,58,62,0
372.82074,372.91083,64,72,0
372.91083,373.00095,61,63,0
373.00095,373.09103,58,68,0
373.09103,373.18112,55,63,0
373.18112,373.2712,52,73,0
373.2712,373.3613,49,65,0
373.3613,373.4514,52,68,0
373.4514,373.54147,55,63,0
373.54147,373.6019,58,79,0
373.6019,373.6624,61,64,0
373.6624,373.72302,64,69,0
373.72302,373.7838,67,66,0
373.7838,373.8448,70,70,0
373.8448,373.90585,73,65,0
373.90585,373.9671,76,71,0
373.9671,374.02844,79,67,0
374.02844,374.09,82,72,0
374.09,374.15173,85,67,0
374.15173,374.21353,82,73,0
374.21353,374.27557,76,68,0
374.27557,374.3957,88,87,0
374.3957,374.5158,85,67,0
374.5158,374.63593,80,67,0
374.63593,374.75604,76,78,0
374.75604,374.87616,73,66,0
374.87616,374.99628,68,67,0
374.99628,375.1164,76,78,0
375.1164,375.2365,73,66,0
375.2365,375.35663,68,66,0
375.35663,375.44675,64,78,0
375.44675,375.53683,73,67,0
375.53683,375.62692,68,70,0
375.62692,375.717,64,68,0
375.717,375.8071,61,79,0
375.8071,375.8972,68,65,0
375.8972,375.98727,64,68,0
375.98727,376.07736,61,65,0
376.07736,376.16745,56,78,0
376.16745,376.25754,64,63,0
376.25754,376.34763,61,67,0
376.34763,376.4377,56,62,0
376.4377,376.5278,52,79,0
376.5278,376.6179,61,65,0
376.6179,376.70798,56,68,0
376.70798,376.7981,52,65,0
376.7981,376.88818,49,78,0
376.88818,376.97827,56,63,0
376.97827,377.06836,52,68,0
377.06836,377.15845,49,62,0
377.15845,377.24854,44,47,0
377.24854,377.33862,45,47,0
377.33862,377.4287,46,48,0
377.4287,377.5188,47,49,0
377.5188,377.6089,48,51,0
377.6089,377.69897,49,51,0
377.69897,377.78906,50,51,0
377.78906,377.87915,51,52,0
377.87915,377.96924,52,54,0
377.96924,378.05936,53,56,0
378.05936,378.14944,54,56,0
378.14944,378.23953,55,57,0
378.23953,378.32962,56,58,0
378.32962,378.4197,57,59,0
378.4197,378.5098,58,60,0
378.5098,378.59988,59,61,0
378.59988,378.68997,60,62,0
378.68997,378.78006,61,62,0
378.78006,378.87015,62,63,0
378.87015,378.96024,63,65,0
378.96024,379.03232,64,67,0
379.03232,379.1044,65,68,0
379.1044,379.17645,66,68,0
379.17645,379.24854,67,68,0
379.24854,379.3206,68,69,0
379.3206,379.39267,69,70,0
379.39267,379.46475,70,71,0
379.46475,379.5368,71,72,0
379.5368,379.6089,72,73,0
379.6089,379.68097,73,73,0
379.68097,379.74103,74,74,0
379.74103,379.8011,75,74,0
379.8011,379.86115,76,75,0
379.86115,379.9062,77,76,0
379.9062,379.95123,78,77,0
379.95123,379.99628,79,77,0
379.99628,380.04355,80,77,0
380.04355,380.13086,81,81,0
380.13086,380.21863,83,72,0
380.21863,380.2977,81,77,0
380.2977,380.37485,83,71,0
380.37485,380.45227,81,79,0
380.45227,380.5298,83,71,0
380.5298,380.6054,81,81,0
380.6054,380.68106,83,74,0
380.68106,380.75546,81,81,0
380.75546,380.8311,83,73,0
380.8311,380.9058,81,81,0
380.9058,380.9818,83,79,0
380.9818,381.0537,81,79,0
381.0537,381.12738,83,76,0
381.12738,381.20233,81,79,0
381.20233,381.27725,83,76,0
381.27725,381.34616,81,78,0
381.34616,381.4201,83,74,0
381.4201,381.4945,81,77,0
381.4945,381.57324,83,70,0
381.57324,381.65268,81,74,0
381.65268,381.73343,83,68,0
381.73343,381.8274,81,74,0
381.8274,381.9251,83,68,0
381.9251,382.23785,80,75,0
382.23785,382.55774,78,62,0
382.55774,382.87766,76,62,0
382.87766,383.1787,75,62,0
383.1787,383.45557,78,65,0
383.45557,383.70786,73,62,0
383.70786,383.94666,72,62,0
383.94666,384.17026,75,65,0
384.17026,384.3847,69,62,0
384.3847,384.5919,68,62,0
384.5919,384.78775,66,62,0
384.78775,384.96976,69,65,0
384.96976,385.15082,64,62,0
385.15082,385.32733,63,62,0
385.32733,385.49643,66,66,0
385.49643,385.66055,61,62,0
385.66055,385.81723,60,62,0
385.81723,385.9692,63,62,0
385.9692,386.11594,57,62,0
386.11594,386.25864,56,62,0
386.25864,386.39755,54,62,0
386.39755,386.53223,57,63,0
386.53223,386.66068,52,62,0
386.66068,386.7847,51,62,0
386.7847,386.90305,54,65,0
386.90305,387.0157,49,62,0
387.0157,387.12967,48,62,0
387.12967,387.52936,51,61,0
387.67938,388.19928,45,58,0
388.4081,389.2203,44,52,0
395.37692,395.6747,64,41,0
395.6747,395.77396,61,41,0
395.77396,396.171,60,49,0
396.171,396.58078,54,35,0
396.171,396.58078,68,42,0
396.171,396.58078,60,42,0
396.58078,396.99057,68,41,0
396.58078,396.99057,54,34,0
396.58078,396.99057,60,41,0
396.99057,397.29788,60,41,0
396.99057,397.29788,68,41,0
396.99057,397.29788,54,34,0
397.29788,397.3702,52,33,0
397.3702,397.44254,61,39,0
397.44254,398.61746,68,49,0
398.61746,398.91525,76,47,0
398.91525,399.0145,73,47,0
399.0145,399.41156,72,56,0
399.41156,399.81555,80,47,0
399.41156,399.81555,72,47,0
399.41156,399.81555,66,39,0
399.81555,400.21957,66,39,0
399.81555,400.21957,72,47,0
399.81555,400.21957,80,47,0
400.21957,400.52258,80,47,0
400.21957,400.52258,66,39,0
400.21957,400.52258,72,47,0
400.52258,400.5942,64,41,0
400.5942,400.6658,73,46,0
400.6658,401.36063,80,58,0
401.36063,401.42755,66,49,0
401.42755,401.4945,72,53,0
401.4945,402.18463,80,63,0
402.18463,402.25003,64,56,0
402.25003,402.31546,73,62,0
402.31546,403.00085,80,70,0
403.00085,403.06625,66,60,0
403.06625,403.13168,72,68,0
403.13168,403.81244,80,80,0
403.81244,403.87756,64,68,0
403.87756,403.93137,73,68,0
403.93137,404.04327,80,74,0
404.0273,404.13873,64,68,0
404.12286,404.2339,68,71,0
404.21808,404.32858,73,68,0
404.31287,404.4229,76,74,0
404.40726,404.51685,68,69,0
404.50122,404.61044,73,72,0
404.59488,404.7036,76,68,0
404.68814,404.79642,80,74,0
404.781,404.88882,73,68,0
404.87347,404.98096,76,71,0
404.96564,405.07263,80,69,0
405.0574,405.16397,85,75,0
405.14877,405.2549,76,72,0
405.23978,405.34558,80,74,0
405.3305,405.43582,85,72,0
405.42084,405.5258,88,80,0
405.51077,405.61575,85,80,0
405.60074,405.7057,80,79,0
405.6907,405.79565,76,74,0
405.78067,405.88562,85,81,0
405.87064,405.9756,80,80,0
405.9606,406.06555,76,79,0
406.05054,406.15552,73,73,0
406.1405,406.24545,80,80,0
406.23047,406.33542,76,79,0
406.32043,406.42538,73,78,0
406.4104,406.51535,68,74,0
406.50037,406.60532,76,80,0
406.5903,406.69525,73,80,0
406.68027,406.78522,68,78,0
406.77023,406.87518,64,73,0
406.8602,406.96533,73,78,0
406.95026,407.05615,68,75,0
407.04095,407.14767,64,74,0
407.13235,407.23984,61,69,0
407.2244,407.3328,68,78,0
407.31726,407.42642,64,75,0
407.41074,407.52078,61,74,0
407.505,407.61597,56,71,0
407.6,407.7118,64,78,0
407.69577,407.8084,61,75,0
407.79224,407.90582,56,74,0
407.8895,408.00397,52,71,0
407.98752,408.103,61,78,0
408.08646,408.20276,56,75,0
408.18604,408.3034,52,74,0
408.2866,408.40497,56,71,0
408.38794,408.79626,49,74,0
409.20462,409.51086,85,98,0
409.20462,409.51086,73,83,0
409.20462,409.51086,80,98,0
409.20462,409.51086,76,83,0
410.02127,410.357,73,97,0
410.02127,410.357,61,83,0
410.02127,410.357,64,83,0
410.02127,410.357,68,97,0
0.00074967084,0.09071017,37,42,0
0.179921,0.2698815,44,39,0
0.359842,0.4498025,37,43,0
0.539763,0.6297235,44,39,0
0.719684,0.8096445,37,41,0
0.899605,0.9895655,44,39,0
1.079526,1.1694865,37,42,0
1.259447,1.3494076,44,39,0
1.439368,1.5293285,37,43,0
1.619289,1.7092495,44,41,0
1.79921,1.8891705,37,43,0
1.979131,2.0690916,44,40,0
2.159052,2.2490125,37,41,0
2.338973,2.4289334,44,39,0
2.518894,2.6126556,37,65,0
2.518894,2.6126556,49,78,0
2.7064176,2.8001792,44,67,0
2.893941,2.9839015,36,41,0
3.073862,3.1638224,44,37,0
3.253783,3.3437436,36,41,0
3.433704,3.5236645,44,37,0
3.613625,3.7035854,36,40,0
3.793546,3.8835065,44,37,0
3.973467,4.0634274,36,40,0
4.153388,4.2433486,44,38,0
4.333309,4.4232693,36,40,0
4.51323,4.6031904,44,36,0
4.693151,4.7831116,36,40,0
4.873072,4.9630327,44,37,0
5.052993,5.1429534,36,40,0
5.232914,5.3228745,44,37,0
5.412835,5.5069084,36,65,0
5.412835,5.5069084,48,78,0
5.600982,5.6950555,44,65,0
5.789129,5.8790894,35,55,0
5.96905,6.0590105,44,50,0
6.148971,6.2389317,35,56,0
6.328892,6.4188523,44,51,0
6.508813,6.5987735,35,56,0
6.688734,6.7786946,44,52,0
6.868655,6.9586153,35,56,0
7.048576,7.1385365,44,52,0
7.228497,7.3184576,35,56,0
7.408418,7.4983783,44,52,0
7.588339,7.6782994,35,56,0
7.76826,7.8582206,44,51,0
7.948181,8.038141,35,56,0
8.128102,8.218062,44,51,0
8.308023,8.401486,47,82,0
8.308023,8.401486,35,82,0
8.49495,8.588414,44,73,0
8.681878,8.771838,33,50,0
8.861799,8.951759,45,51,0
9.04172,9.1316805,33,57,0
9.221641,9.311602,45,60,0
9.401562,9.491523,33,57,0
9.581483,9.671444,45,57,0
9.761404,9.85279,33,77,0
9.944175,10.035561,45,77,0
10.126946,10.216907,33,67,0
10.306867,10.396828,45,63,0
10.486788,10.576749,33,67,0
10.666709,10.756669,45,63,0
10.84663,10.93659,33,67,0
11.026551,11.116511,45,63,0
11.206472,11.311148,33,83,0
11.415823,11.520498,45,83,0
11.625174,11.834525,32,64,0
11.625174,11.834525,44,77,0
11.834525,12.016719,60,62,0
12.016719,12.198912,60,62,0
12.198912,12.381105,61,62,0
12.381105,12.563299,63,64,0
12.563299,12.745493,64,66,0
12.745493,12.927686,66,67,0
12.927686,13.1098795,63,68,0
13.1098795,13.296807,66,69,0
13.296807,13.483734,64,71,0
13.483734,13.670662,69,72,0
13.670662,13.857187,68,71,0
13.857187,14.043211,66,69,0
14.043211,14.228834,64,68,0
14.228834,14.41395,63,67,0
14.41395,14.5984745,61,66,0
11.834525,14.5984745,56,62,0
14.5984745,14.782607,60,64,0
14.782607,14.96625,60,63,0
14.96625,15.149506,60,62,0
15.149506,15.332276,61,60,0
15.332276,15.515048,63,62,0
15.515048,15.697819,64,62,0
15.697819,15.8805895,66,65,0
15.8805895,16.06336,63,67,0
16.06336,16.253994,66,68,0
16.253994,16.443708,64,68,0
16.443708,16.628824,69,68,0
16.628824,16.813644,68,67,0
16.813644,16.998169,66,67,0
16.998169,17.182106,64,67,0
17.182106,17.36575,63,67,0
17.36575,17.5491,61,67,0
14.5984745,17.5491,56,64,0
17.5491,17.640486,60,71,0
17.5491,17.640486,56,60,0
17.731968,17.823742,56,52,0
17.731968,17.823742,61,62,0
17.915808,18.00817,60,67,0
17.915808,18.00817,56,56,0
18.100828,18.19379,56,52,0
18.100828,18.19379,61,62,0
18.287052,18.380516,60,71,0
18.287052,18.380516,56,60,0
18.474277,18.568352,61,62,0
18.474277,18.568352,56,52,0
18.662733,18.757423,60,67,0
18.662733,18.757423,56,56,0
18.852432,18.94775,56,51,0
18.852432,18.94775,61,61,0
19.043383,19.289425,60,71,0
19.043383,19.289425,56,60,0
19.53547,21.694517,44,90,0
19.53547,21.694517,32,77,0
21.694517,21.784477,37,43,0
21.87444,21.9644,44,39,0
22.05436,22.14432,37,43,0
22.23428,22.324242,44,39,0
22.414202,22.504162,37,43,0
22.594122,22.684082,44,39,0
22.774044,22.864004,37,43,0
22.953964,23.043924,44,39,0
23.133884,23.223846,37,43,0
23.313807,23.403767,44,39,0
23.493727,23.583689,37,43,0
23.673649,23.763609,44,39,0
23.853569,23.94353,37,43,0
24.033491,24.123451,44,39,0
24.213411,24.30597,49,87,0
24.213411,24.30597,37,73,0
24.398527,24.491087,44,74,0
24.583645,24.673605,34,40,0
24.763565,24.853525,49,36,0
24.943487,25.033447,46,40,0
25.123407,25.213367,49,37,0
25.303328,25.39329,46,40,0
25.48325,25.57321,49,37,0
25.66317,25.75313,46,40,0
25.843092,25.933052,49,37,0
26.023012,26.112972,46,40,0
26.202934,26.292894,49,37,0
26.382854,26.472815,46,40,0
26.562775,26.652737,49,36,0
26.742697,26.832657,46,40,0
26.922617,27.012577,49,37,0
27.10254,27.194214,34,73,0
27.10254,27.194214,46,87,0
27.28589,27.377565,49,72,0
27.469242,27.559202,31,39,0
27.649162,27.739122,51,36,0
27.829082,27.919044,43,40,0
28.009005,28.098965,51,39,0
28.188925,28.278885,43,43,0
28.368847,28.458807,51,40,0
28.548767,28.638727,43,45,0
28.72869,28.81865,51,43,0
28.90861,28.99857,43,47,0
29.08853,29.178492,51,44,0
29.268452,29.358412,43,49,0
29.448372,29.538332,51,45,0
29.628294,29.718534,43,51,0
29.80963,29.901598,51,48,0
29.99446,30.088224,43,47,0
30.182919,30.278553,51,45,0
30.375257,30.495193,44,33,0
30.47806,30.597996,51,26,0
30.580862,30.7008,47,28,0
30.683666,30.802374,51,25,0
30.786469,30.877052,44,33,0
30.877808,30.967573,51,25,0
30.968327,31.058092,47,28,0
31.058846,31.148611,51,24,0
31.149366,31.23913,44,33,0
31.239885,31.32965,51,26,0
31.330404,31.427172,47,29,0
31.427984,31.524752,51,25,0
31.525564,31.62751,44,33,0
31.628368,31.730314,51,26,0
31.73117,31.833117,47,29,0
31.833973,31.975304,51,25,0
31.976492,32.08995,46,33,0
32.073742,32.187202,51,26,0
32.170994,32.284454,49,29,0
32.268246,32.38058,51,26,0
32.365494,32.45526,46,41,0
32.456017,32.54578,51,35,0
32.546535,32.6363,49,40,0
32.637054,32.726818,51,37,0
32.727573,32.817337,46,49,0
32.818092,32.90786,51,40,0
32.90861,33.00739,49,46,0
33.00822,33.107,51,42,0
33.10783,33.210514,46,56,0
33.211376,33.314064,51,41,0
33.314926,33.41761,49,43,0
33.418472,33.52116,51,36,0
33.522022,33.618134,47,33,0
33.61894,33.71505,51,28,0
33.71586,33.81197,47,30,0
33.812775,33.908886,51,26,0
33.909695,33.998905,47,41,0
33.999653,34.088863,51,37,0
34.089615,34.178825,47,39,0
34.179577,34.268787,51,36,0
34.269535,34.358746,47,49,0
34.359497,34.448708,51,43,0
34.449455,34.544933,47,48,0
34.545734,34.64121,51,42,0
34.64201,34.743958,47,54,0
34.744816,34.84676,51,41,0
34.84762,34.949562,47,43,0
34.95042,35.05237,51,36,0
35.053223,35.149334,43,32,0
35.150143,35.24625,51,25,0
35.24706,35.34317,43,29,0
35.34398,35.440086,51,26,0
35.440895,35.53066,43,41,0
35.531414,35.62118,51,37,0
35.621933,35.7117,43,42,0
35.712456,35.80222,51,43,0
35.802975,35.89274,43,48,0
35.893494,35.983257,51,43,0
35.984013,36.08596,43,49,0
36.086815,36.188763,51,46,0
36.189617,36.291565,43,54,0
36.292423,36.394367,51,38,0
36.395226,36.49717,43,42,0
36.498028,36.599976,51,36,0
36.60083,36.708817,44,39,0
36.69339,36.801373,51,32,0
36.785946,36.877735,47,35,0
36.878506,36.97029,51,31,0
36.97106,37.06285,44,40,0
37.06362,37.155407,51,31,0
37.15618,37.247967,47,34,0
37.248737,37.340527,51,31,0
37.341297,37.433083,44,41,0
37.433853,37.525642,51,32,0
37.526413,37.615623,47,35,0
37.616375,37.705585,51,32,0
37.706333,37.811287,44,43,0
37.796295,37.90125,51,37,0
37.886253,37.991207,47,37,0
37.976215,38.08117,51,34,0
38.066177,38.17113,46,46,0
38.156136,38.261623,51,34,0
38.246098,38.33848,49,39,0
38.33926,38.431644,51,34,0
38.432423,38.524807,46,47,0
38.52558,38.61797,51,35,0
38.618744,38.711132,49,40,0
38.711906,38.80429,51,35,0
38.80507,38.897453,46,49,0
38.89823,38.990616,51,35,0
38.991394,39.080605,49,41,0
39.081352,39.170563,51,37,0
39.171314,39.276268,46,50,0
39.261276,39.36623,51,40,0
39.351234,39.45619,49,45,0
39.441196,39.54615,51,41,0
39.531155,39.63611,47,51,0
39.621117,39.726604,51,44,0
39.71108,39.803463,47,47,0
39.804237,39.896626,51,43,0
39.8974,39.989788,47,52,0
39.990562,40.082947,51,44,0
40.083725,40.17611,47,48,0
40.176888,40.26927,51,48,0
40.27005,40.362434,47,56,0
40.363213,40.455597,51,47,0
40.45637,40.54642,47,50,0
40.547176,40.653114,51,45,0
40.63798,40.74392,47,57,0
40.728786,40.834724,51,49,0
40.81959,40.92553,47,51,0
40.910397,41.016335,51,47,0
41.0012,41.10714,43,59,0
41.092003,41.198185,51,53,0
41.182808,41.274303,43,56,0
41.27507,41.366566,51,56,0
41.367332,41.458828,43,60,0
41.459595,41.55109,51,52,0
41.551857,41.643353,43,57,0
41.64412,41.735615,51,52,0
41.73638,41.827877,43,62,0
41.828644,41.92014,51,53,0
41.920906,42.028545,43,59,0
42.01317,42.120808,51,53,0
42.10543,42.21307,43,62,0
42.197693,42.305332,51,54,0
42.289955,42.397594,43,60,0
42.382217,42.489475,51,54,0
42.47448,42.577187,42,66,0
42.56444,42.667145,51,54,0
42.6544,42.757107,44,61,0
42.74436,42.847065,51,54,0
42.834324,42.937027,42,66,0
42.924282,43.02699,51,56,0
43.014244,43.116947,44,61,0
43.104202,43.20691,51,56,0
43.194164,43.29687,40,66,0
43.284126,43.38683,49,56,0
43.374084,43.47679,44,62,0
43.464046,43.56675,49,56,0
43.554005,43.65671,40,66,0
43.643967,43.746674,49,56,0
43.73393,43.83663,44,61,0
43.823887,43.92709,49,56,0
43.91385,44.006535,40,66,0
44.007313,44.1,49,56,0
44.100777,44.193462,42,61,0
44.19424,44.286926,49,56,0
44.287704,44.390408,39,66,0
44.377663,44.48037,47,57,0
44.467625,44.570328,42,62,0
44.557587,44.66029,47,57,0
44.647545,44.75025,39,66,0
44.737507,44.84021,47,56,0
44.827465,44.930172,42,61,0
44.917427,45.02013,47,56,0
45.00739,45.110092,39,66,0
45.097347,45.200054,47,56,0
45.18731,45.290012,42,60,0
45.277267,45.38022,47,56,0
45.36723,45.474186,38,66,0
45.458904,45.56586,47,58,0
45.55058,45.657536,40,62,0
45.642258,45.74921,47,58,0
45.733932,45.84089,38,66,0
45.825607,45.932564,47,58,0
45.917282,46.02424,40,62,0
46.00896,46.115818,47,57,0
46.100636,46.19097,37,66,0
46.19173,46.28207,45,57,0
46.28283,46.373165,40,62,0
46.373924,46.464264,45,56,0
46.465023,46.55536,37,66,0
46.556118,46.646458,45,57,0
46.647217,46.737553,40,62,0
46.73831,46.82865,45,57,0
46.82941,46.921196,37,66,0
46.921967,47.013756,46,56,0
47.014526,47.10631,39,60,0
47.107082,47.19887,46,56,0
47.199642,47.30235,35,66,0
47.289604,47.392307,44,57,0
47.379562,47.48227,39,61,0
47.469524,47.572227,44,57,0
47.559483,47.66219,35,66,0
47.649445,47.75215,44,56,0
47.739407,47.84211,39,61,0
47.829365,47.93207,44,57,0
47.919327,48.02203,35,66,0
48.00929,48.11199,44,56,0
48.099247,48.201954,39,61,0
48.18921,48.291912,44,58,0
48.279167,49.358696,49,75,0
48.279167,49.358696,45,75,0
48.279167,49.358696,40,64,0
48.279167,49.358696,37,64,0
49.718536,50.07538,69,50,0
49.718536,50.078377,61,42,0
49.718536,50.078377,64,42,0
50.43822,50.79806,69,49,0
50.43822,50.79806,61,41,0
50.43822,50.79806,64,41,0
51.157906,51.517746,69,49,0
51.157906,51.517746,61,41,0
51.157906,51.517746,64,41,0
51.517746,51.87759,69,52,0
51.517746,51.87759,61,44,0
51.517746,51.87759,64,44,0
51.87759,52.23743,61,51,0
51.87759,52.23743,64,51,0
51.87759,52.23743,69,60,0
52.23743,52.59727,61,47,0
52.23743,52.59727,64,47,0
52.23743,52.59727,69,56,0
52.59727,52.68648,63,49,0
52.687233,52.776443,71,44,0
52.777195,52.866405,68,47,0
52.867153,52.956364,71,44,0
52.957115,53.046326,63,51,0
53.047073,53.136284,71,43,0
53.137035,53.226246,68,47,0
53.226997,53.316208,71,43,0
53.316956,53.407295,63,51,0
53.408054,53.49839,73,45,0
53.49915,53.58949,67,47,0
53.59025,53.680584,73,43,0
53.681343,53.771683,63,51,0
53.77244,53.862778,73,43,0
53.863537,53.953873,67,47,0
53.95463,54.04497,73,43,0
54.04573,54.26218,71,56,0
54.04573,54.26218,64,56,0
54.04573,54.26218,68,56,0
54.47863,55.198315,37,62,0
54.47863,55.198315,40,62,0
54.47863,55.198315,45,73,0
54.47863,55.198315,49,73,0
55.918,56.27784,57,49,0
55.918,56.27784,49,41,0
55.918,56.27784,52,41,0
56.637684,56.997524,57,49,0
56.637684,56.997524,49,41,0
56.637684,56.997524,52,41,0
57.177444,57.357365,52,43,0
57.177444,57.357365,49,43,0
57.177444,57.357365,57,51,0
57.53729,57.71721,52,51,0
57.53729,57.71721,49,51,0
57.53729,57.71721,57,61,0
57.89713,58.07705,49,57,0
57.89713,58.07705,52,57,0
57.89713,58.07705,57,68,0
58.256973,58.436893,49,57,0
58.256973,58.436893,52,57,0
58.256973,58.436893,57,68,0
58.436893,58.796734,49,56,0
58.436893,58.796734,57,67,0
58.436893,58.796734,52,56,0
59.87626,59.96547,49,70,0
59.96622,60.05543,57,61,0
60.056183,60.145393,52,66,0
60.14614,60.23535,57,62,0
60.236103,60.325314,49,70,0
60.32606,60.415276,57,61,0
60.416023,60.505234,52,65,0
60.505985,60.595196,57,61,0
60.595943,60.685154,50,70,0
60.685905,60.775116,59,61,0
60.775864,60.865078,53,66,0
60.865826,60.955036,59,62,0
60.955788,61.045,50,70,0
61.045746,61.134956,59,61,0
61.135708,61.22492,53,63,0
61.225666,61.31488,59,61,0
61.315628,61.40484,51,70,0
61.40559,61.4948,59,61,0
61.49555,61.58476,56,66,0
61.58551,61.67472,59,66,0
61.675472,61.764683,51,70,0
61.76543,61.85464,59,62,0
61.855392,61.944603,56,66,0
61.94535,62.03456,59,62,0
62.035313,62.12565,39,70,0
62.126408,62.216747,51,62,0
62.217506,62.307842,50,67,0
62.3086,62.39894,51,62,0
62.3997,62.490036,50,70,0
62.490795,62.581135,51,62,0
62.581894,62.67223,50,67,0
62.67299,62.750423,51,61,0
62.764088,62.944008,44,71,0
63.12973,63.222595,56,43,0
63.315456,63.408318,56,43,0
63.500977,63.593536,56,43,0
63.686092,63.778652,56,43,0
63.87121,63.96357,58,42,0
64.05583,64.148094,59,42,0
64.24036,64.42468,61,47,0
64.24036,64.42468,51,47,0
64.42468,64.51549,61,42,0
64.42468,64.51549,63,42,0
64.60629,64.6971,63,41,0
64.60629,64.6971,61,41,0
64.7879,64.87871,63,41,0
64.7879,64.87871,61,41,0
64.96951,65.06032,61,41,0
64.96951,65.06032,63,41,0
65.15112,65.24193,63,41,0
65.15112,65.24193,61,41,0
65.33273,65.42354,59,41,0
65.33273,65.42354,63,41,0
65.51434,65.60514,63,40,0
65.51434,65.60514,58,40,0
65.695946,65.877556,44,47,0
65.695946,65.877556,56,47,0
65.877556,65.97072,56,42,0
66.06388,66.15704,56,42,0
66.250206,66.34307,56,42,0
66.43593,66.52879,56,43,0
66.62155,66.71411,56,42,0
66.80667,66.89923,58,43,0
66.991585,67.08385,59,43,0
67.17611,67.360344,51,47,0
67.17611,67.360344,61,47,0
67.360344,67.45115,63,41,0
67.360344,67.45115,61,41,0
67.541954,67.63276,63,43,0
67.541954,67.63276,61,43,0
67.723564,67.81437,61,42,0
67.723564,67.81437,63,42,0
67.90517,67.99597,63,42,0
67.90517,67.99597,61,42,0
68.08678,68.17758,61,42,0
68.08678,68.17758,63,42,0
68.26839,68.35919,63,42,0
68.26839,68.35919,59,42,0
68.45,68.5408,58,42,0
68.45,68.5408,63,42,0
68.63161,68.72507,44,48,0
68.818535,68.90849,56,39,0
68.818535,68.90849,59,39,0
68.99845,69.178375,59,39,0
68.99845,69.178375,56,39,0
69.178375,69.3583,59,39,0
69.178375,69.3583,63,39,0
69.3583,69.449974,49,47,0
69.54165,69.63161,56,43,0
69.54165,69.63161,61,43,0
69.72157,69.90149,56,43,0
69.72157,69.90149,61,43,0
69.90149,70.08141,61,40,0
69.90149,70.08141,64,40,0
70.08141,70.17487,51,47,0
70.26834,70.3583,59,41,0
70.26834,70.3583,56,41,0
70.44826,70.62818,56,42,0
70.44826,70.62818,59,42,0
70.62818,70.8081,59,39,0
70.62818,70.8081,63,39,0
70.8081,70.90342,51,47,0
70.99873,71.0887,55,39,0
70.99873,71.0887,58,39,0
71.17866,71.358574,55,39,0
71.17866,71.358574,58,39,0
71.358574,71.5385,63,39,0
71.358574,71.5385,58,39,0
71.5385,71.71842,44,42,0
71.5385,71.71842,32,42,0
71.71842,71.81039,44,41,0
71.71842,71.81039,51,41,0
71.90235,71.99432,51,43,0
71.90235,71.99432,44,43,0
72.0862,72.17787,44,47,0
72.0862,72.17787,51,47,0
72.26955,72.36122,51,50,0
72.26955,72.36122,44,50,0
72.45261,72.54399,44,52,0
72.45261,72.54399,51,52,0
72.635376,72.72667,46,57,0
72.635376,72.72667,51,57,0
72.817764,72.90886,47,59,0
72.817764,72.90886,51,59,0
72.999954,73.185684,39,52,0
72.999954,73.185684,49,62,0
72.999954,73.185684,51,62,0
73.185684,73.27648,61,62,0
73.185684,73.27648,51,62,0
73.36729,73.45809,61,67,0
73.36729,73.45809,51,67,0
73.5489,73.6397,51,63,0
73.5489,73.6397,61,63,0
73.73051,73.82131,61,66,0
73.73051,73.82131,51,66,0
73.91212,74.00292,51,62,0
73.91212,74.00292,61,62,0
74.09373,74.18661,51,67,0
74.09373,74.18661,59,67,0
74.27949,74.37236,51,63,0
74.27949,74.37236,58,63,0
74.46524,74.655716,44,69,0
74.46524,74.655716,32,69,0
74.655716,74.7474,44,41,0
74.655716,74.7474,51,41,0
74.83907,74.93075,44,44,0
74.83907,74.93075,51,44,0
75.02223,75.11362,51,48,0
75.02223,75.11362,44,48,0
75.205,75.29639,44,51,0
75.205,75.29639,51,51,0
75.38748,75.47858,44,56,0
75.38748,75.47858,51,56,0
75.56968,75.660675,51,58,0
75.56968,75.660675,46,58,0
75.75148,75.842285,47,62,0
75.75148,75.842285,51,62,0
75.93309,76.11394,51,66,0
75.93309,76.11394,49,66,0
75.93309,76.11394,39,66,0
76.11394,76.2039,61,63,0
76.11394,76.2039,51,63,0
76.29414,76.38467,61,67,0
76.29414,76.38467,51,67,0
76.475464,76.56657,51,62,0
76.475464,76.56657,61,62,0
76.65795,76.749626,61,67,0
76.65795,76.749626,51,67,0
76.84159,76.93385,51,63,0
76.84159,76.93385,61,63,0
77.02641,77.11928,51,67,0
77.02641,77.11928,59,67,0
77.21244,77.3059,51,67,0
77.21244,77.3059,58,67,0
77.399666,77.58822,56,69,0
77.399666,77.58822,44,69,0
77.58822,77.678185,63,43,0
77.58822,77.678185,59,43,0
77.76814,77.94807,63,41,0
77.76814,77.94807,59,41,0
77.94807,78.12798,59,39,0
77.94807,78.12798,56,39,0
78.12798,78.219955,49,48,0
78.31192,78.40188,61,42,0
78.31192,78.40188,64,42,0
78.491844,78.67176,61,42,0
78.491844,78.67176,64,42,0
78.67176,78.851685,56,39,0
78.67176,78.851685,61,39,0
78.851685,78.94485,51,48,0
79.03801,79.12797,63,42,0
79.03801,79.12797,59,42,0
79.217926,79.39785,63,42,0
79.217926,79.39785,59,42,0
79.39785,79.577774,59,39,0
79.39785,79.577774,56,39,0
79.577774,79.67033,49,49,0
79.762886,79.852844,58,42,0
79.762886,79.852844,63,42,0
79.94281,80.12273,58,42,0
79.94281,80.12273,63,42,0
80.12273,80.30265,55,40,0
80.12273,80.30265,58,40,0
80.30265,80.48433,47,45,0
80.48433,80.57779,63,39,0
80.48433,80.57779,68,39,0
80.67228,80.86475,68,41,0
80.67228,80.86475,63,41,0
80.86475,81.059784,59,41,0
80.86475,81.059784,63,41,0
81.059784,81.257,49,50,0
81.257,81.35733,69,47,0
81.257,81.35733,64,47,0
81.45922,81.66339,64,45,0
81.45922,81.66339,69,45,0
81.66339,81.86755,61,45,0
81.66339,81.86755,64,45,0
81.86755,82.076035,51,52,0
82.076035,82.182594,63,48,0
82.076035,82.182594,68,48,0
82.29001,82.508766,68,48,0
82.29001,82.508766,63,48,0
82.508766,82.73351,59,45,0
82.508766,82.73351,63,45,0
82.73351,82.965996,51,51,0
82.965996,83.08398,61,43,0
82.965996,83.08398,67,43,0
83.20196,83.43844,67,43,0
83.20196,83.43844,61,43,0
83.43844,83.676346,58,35,0
83.43844,83.676346,61,35,0
83.676346,83.77477,44,41,0
83.775604,83.87403,56,33,0
83.87486,83.97329,51,36,0
83.97412,84.07255,56,32,0
84.07338,84.17181,44,41,0
84.17264,84.27107,56,33,0
84.2719,84.37033,51,36,0
84.371155,84.46959,56,33,0
84.47041,84.56885,44,41,0
84.56967,84.668106,56,33,0
84.66893,84.767365,51,37,0
84.76819,84.86662,56,33,0
84.86745,84.967964,44,41,0
84.9688,85.06932,56,33,0
85.07017,85.17068,51,37,0
85.171524,85.27203,56,33,0
85.27288,85.3734,44,41,0
85.37424,85.474754,58,33,0
85.4756,85.57611,51,38,0
85.57696,85.67747,58,33,0
85.678314,85.78444,44,41,0
85.785324,85.89145,58,33,0
85.89234,85.99846,51,37,0
85.99935,86.10548,58,33,0
86.10637,86.21249,44,41,0
86.21338,86.3195,58,34,0
86.32039,86.42651,51,38,0
86.42741,86.53352,58,34,0
86.53442,86.64054,44,41,0
86.64143,86.74755,58,34,0
86.74844,86.85457,51,36,0
86.85546,86.9982,58,33,0
86.9994,87.09783,44,41,0
87.098656,87.19709,56,33,0
87.197914,87.29635,51,37,0
87.29717,87.39561,56,33,0
87.39643,87.494865,44,41,0
87.49569,87.594124,56,34,0
87.59495,87.69338,51,38,0
87.69421,87.79264,56,34,0
87.793465,87.8919,44,41,0
87.89272,87.99116,56,34,0
87.99198,88.090416,51,38,0
88.09125,88.189674,56,34,0
88.190506,88.290665,44,41,0
88.291504,88.39167,56,33,0
88.39251,88.49267,51,36,0
88.493515,88.59367,56,33,0
88.59451,88.69468,44,41,0
88.69552,88.79568,58,36,0
88.796524,88.89668,51,36,0
88.89752,88.99769,58,34,0
88.99853,89.10197,44,41,0
89.10283,89.20627,58,34,0
89.20714,89.31057,51,36,0
89.31144,89.41488,58,33,0
89.41575,89.51918,44,41,0
89.52005,89.62348,58,34,0
89.62435,89.72779,51,36,0
89.72866,89.83209,58,33,0
89.83296,89.9364,44,41,0
89.93726,90.0407,58,34,0
90.04157,90.14293,51,39,0
90.143745,90.27841,58,34,0
90.27954,90.37663,44,41,0
90.37745,90.47455,56,33,0
90.475365,90.57246,51,36,0
90.57327,90.67037,56,33,0
90.67119,90.76828,44,42,0
90.7691,90.86619,56,33,0
90.867004,90.9641,51,35,0
90.96492,91.0782,56,33,0
91.079155,91.17625,44,41,0
91.17706,91.27416,58,34,0
91.27497,91.37207,51,37,0
91.37289,91.46998,58,37,0
91.470795,91.567894,44,41,0
91.56871,91.6658,58,34,0
91.66662,91.76372,51,38,0
91.764534,91.891975,58,34,0
91.89304,91.99014,44,41,0
91.99095,92.08805,56,33,0
92.08887,92.18596,51,36,0
92.186775,92.283875,56,33,0
92.28469,92.38178,44,41,0
92.3826,92.4797,56,33,0
92.480515,92.57761,51,36,0
92.57842,92.675514,56,33,0
92.67633,92.77343,44,41,0
92.77425,92.87134,58,34,0
92.872154,92.96925,51,37,0
92.97007,93.06716,58,33,0
93.06798,93.16508,44,41,0
93.16589,93.262985,58,34,0
93.2638,93.36089,51,37,0
93.36171,93.45881,58,34,0
93.459625,93.56174,44,42,0
93.5626,93.66331,56,41,0
93.66415,93.76466,51,42,0
93.76551,93.86602,56,40,0
93.86687,93.96696,44,43,0
93.9678,94.0672,56,44,0
94.06803,94.16715,51,45,0
94.167984,94.267105,56,43,0
94.26794,94.36661,44,47,0
94.36743,94.464355,56,48,0
94.46517,94.561134,51,48,0
94.56194,94.65774,56,49,0
94.65854,94.75433,44,51,0
94.75514,94.85094,56,51,0
94.851746,94.946815,51,52,0
94.94761,95.04213,56,47,0
95.04292,95.13745,44,53,0
95.138245,95.232765,54,56,0
95.23356,95.32808,51,56,0
95.32887,95.4234,54,51,0
95.424194,95.518715,44,57,0
95.51951,95.613785,54,58,0
95.61458,95.70763,51,60,0
95.708405,95.801094,54,56,0
95.80187,95.894554,44,62,0
95.89533,95.988014,54,62,0
95.9888,96.081406,51,63,0
96.082184,96.17427,54,57,0
96.17504,96.26713,44,65,0
96.26791,96.35999,54,67,0
96.36076,96.4527,51,67,0
96.45347,96.544,54,62,0
96.54476,96.637924,37,69,0
96.72802,96.81811,44,39,0
96.908195,96.99828,37,43,0
97.08838,97.17847,44,40,0
97.268555,97.35865,37,42,0
97.44874,97.538826,44,39,0
97.628914,97.71901,37,39,0
97.8091,97.899185,44,39,0
97.98927,98.07937,37,43,0
98.16946,98.259544,44,40,0
98.34964,98.43973,37,43,0
98.529816,98.6199,44,40,0
98.71,98.80009,37,41,0
98.890175,98.98026,44,38,0
99.07036,99.164116,37,64,0
99.07036,99.164116,49,77,0
99.25788,99.35164,44,67,0
99.445404,99.53536,36,41,0
99.62533,99.71529,44,39,0
99.805244,99.8952,36,41,0
99.98517,100.07513,44,38,0
100.165085,100.25505,36,40,0
100.34501,100.43497,44,37,0
100.52493,100.61489,36,40,0
100.70485,100.79481,44,38,0
100.88477,100.97473,36,40,0
101.06469,101.154655,44,38,0
101.24461,101.33457,36,40,0
101.42454,101.514496,44,37,0
101.604454,101.69441,36,40,0
101.78438,101.87434,44,37,0
101.964294,102.05837,36,64,0
101.964294,102.05837,48,77,0
102.15244,102.24652,44,58,0
102.34059,102.43055,35,55,0
102.520515,102.61047,44,51,0
102.70043,102.7904,35,56,0
102.880356,102.970314,44,52,0
103.06027,103.15024,35,56,0
103.2402,103.330154,44,52,0
103.42012,103.51008,35,56,0
103.60004,103.69,44,52,0
103.77996,103.86992,35,56,0
103.95988,104.04984,44,52,0
104.1398,104.22976,35,56,0
104.319725,104.40968,44,52,0
104.49964,104.58961,35,56,0
104.679565,104.76952,44,52,0
104.85948,104.95295,35,67,0
104.85948,104.95295,47,80,0
105.04641,105.13988,44,73,0
105.23334,105.3233,33,50,0
105.41326,105.50322,45,51,0
105.593185,105.68314,33,57,0
105.7731,105.86307,45,62,0
105.953026,106.042984,33,67,0
106.13294,106.22291,45,68,0
106.31287,106.40425,33,86,0
106.495636,106.58702,45,85,0
106.678406,106.76837,33,67,0
106.85833,106.94829,45,63,0
107.03825,107.12821,33,67,0
107.21817,107.30813,45,63,0
107.398094,107.48805,33,67,0
107.57801,107.66798,45,63,0
107.757935,107.86261,33,90,0
107.967285,108.07196,45,90,0
108.176636,108.38599,32,77,0
108.176636,108.38599,44,77,0
108.38599,108.568184,60,62,0
108.568184,108.750374,60,62,0
108.750374,108.93257,61,62,0
108.93257,109.11476,63,64,0
109.11476,109.29695,64,66,0
109.29695,109.47915,66,67,0
109.47915,109.66134,63,68,0
109.66134,109.84827,66,69,0
109.84827,110.035194,64,71,0
110.035194,110.22212,69,72,0
110.22212,110.40865,68,71,0
110.40865,110.59467,66,69,0
110.59467,110.7803,64,68,0
110.7803,110.965416,63,67,0
110.965416,111.14994,61,66,0
108.38599,111.14994,56,62,0
111.14994,111.33407,60,64,0
111.33407,111.517715,60,63,0
111.517715,111.700966,60,62,0
111.700966,111.883736,61,60,0
111.883736,112.06651,63,62,0
112.06651,112.24928,64,62,0
112.24928,112.43205,66,65,0
112.43205,112.61482,63,67,0
112.61482,112.80546,66,68,0
112.80546,112.99517,64,68,0
112.99517,113.18029,69,68,0
113.18029,113.365105,68,67,0
113.365105,113.54963,66,67,0
113.54963,113.73357,64,67,0
113.73357,113.91721,63,67,0
113.91721,114.10056,61,67,0
111.14994,114.10056,56,64,0
114.10056,114.19195,60,71,0
114.10056,114.19195,56,71,0
114.28343,114.375206,56,62,0
114.28343,114.375206,61,62,0
114.46727,114.55963,56,67,0
114.46727,114.55963,60,67,0
114.65229,114.745255,56,62,0
114.65229,114.745255,61,62,0
114.83852,114.93198,56,71,0
114.83852,114.93198,60,71,0
115.02574,115.11981,56,62,0
115.02574,115.11981,61,62,0
115.214195,115.30888,56,67,0
115.214195,115.30888,60,67,0
115.40389,115.499214,56,61,0
115.40389,115.499214,61,61,0
115.59484,115.84089,60,71,0
115.59484,115.84089,56,71,0
116.08693,118.24598,44,96,0
116.08693,118.24598,32,96,0
118.24598,118.33594,37,43,0
118.4259,118.51586,44,39,0
118.60582,118.695786,37,43,0
118.78574,118.8757,44,39,0
118.96566,119.055626,37,43,0
119.145584,119.23554,44,39,0
119.32551,119.41547,37,43,0
119.505424,119.59539,44,39,0
119.68535,119.77531,37,43,0
119.86527,119.95523,44,39,0
120.04519,120.13515,37,43,0
120.22511,120.31507,44,39,0
120.40503,120.494995,37,43,0
120.58495,120.67491,44,43,0
120.76488,120.85743,37,75,0
120.76488,120.85743,49,89,0
120.94999,121.04255,44,74,0
121.13511,121.22507,34,40,0
121.315025,121.40499,49,37,0
121.49495,121.58491,46,40,0
121.67487,121.76483,49,40,0
121.85479,121.94475,46,40,0
122.03471,122.12467,49,37,0
122.21463,122.304596,46,40,0
122.394554,122.48451,49,40,0
122.57448,122.66444,46,40,0
122.754395,122.84435,49,37,0
122.93432,123.02428,46,40,0
123.114235,123.2042,49,37,0
123.29416,123.38412,46,40,0
123.47408,123.56404,49,38,0
123.654,123.745674,34,71,0
123.654,123.745674,46,83,0
123.83735,123.92903,49,72,0
124.020706,124.110664,31,39,0
124.20062,124.29059,51,39,0
124.38055,124.470505,43,40,0
124.56046,124.65043,51,42,0
124.74039,124.830345,43,43,0
124.92031,125.01027,51,43,0
125.10023,125.19019,43,45,0
125.28015,125.37011,51,45,0
125.460075,125.55003,43,47,0
125.63999,125.72995,51,48,0
125.819916,125.909874,43,49,0
125.99983,126.0898,51,51,0
126.179756,126.27,43,51,0
126.36109,126.453064,51,48,0
126.54592,126.63969,43,47,0
126.73438,126.83002,51,45,0
126.92547,127.0454,44,33,0
127.02827,127.14821,51,25,0
127.13107,127.25101,47,28,0
127.23388,127.352585,51,25,0
127.33668,127.42726,44,35,0
127.42802,127.517784,51,27,0
127.51854,127.6083,47,35,0
127.609055,127.69882,51,30,0
127.69958,127.789345,44,37,0
127.79009,127.87986,51,27,0
127.880615,127.97738,47,39,0
127.978195,128.07497,51,30,0
128.07578,128.17772,44,39,0
128.17857,128.28052,51,31,0
128.28139,128.38333,47,40,0
128.38419,128.52551,51,33,0
128.5267,128.64017,46,33,0
128.62395,128.73741,51,26,0
128.7212,128.83466,49,29,0
128.81845,128.93079,51,26,0
128.91571,129.00548,46,42,0
129.00623,129.096,51,32,0
129.09674,129.18651,49,40,0
129.18727,129.27702,51,40,0
129.27779,129.36755,46,49,0
129.3683,129.45807,51,40,0
129.45882,129.5576,49,46,0
129.55843,129.65721,51,41,0
129.65804,129.76073,46,56,0
129.76158,129.86427,51,41,0
129.86514,129.96782,49,43,0
129.96869,130.07137,51,36,0
130.07224,130.16835,47,33,0
130.16914,130.26526,51,29,0
130.26607,130.36218,47,30,0
130.36299,130.45909,51,26,0
130.4599,130.54912,47,41,0
130.54987,130.63907,51,32,0
130.63983,130.72903,47,39,0
130.72978,130.819,51,36,0
130.81975,130.90895,47,49,0
130.90971,130.99892,51,38,0
130.99966,131.09514,47,48,0
131.09595,131.19142,51,42,0
131.19221,131.29417,47,54,0
131.29503,131.39697,51,41,0
131.39783,131.49977,47,43,0
131.50063,131.60257,51,35,0
131.60344,131.69954,43,32,0
131.70035,131.79646,51,29,0
131.79727,131.89339,43,29,0
131.89418,131.9903,51,26,0
131.9911,132.08087,43,41,0
132.08162,132.17139,51,40,0
132.17215,132.26192,43,42,0
132.26266,132.35243,51,40,0
132.35318,132.44295,43,48,0
132.44371,132.53346,51,43,0
132.53423,132.63617,43,49,0
132.63702,132.73897,51,42,0
132.73982,132.84178,43,54,0
132.84264,132.94458,51,38,0
132.94543,133.04738,43,42,0
133.04823,133.15018,51,35,0
133.15105,133.25902,44,39,0
133.2436,133.35158,51,33,0
133.33615,133.42795,47,35,0
133.42871,133.52051,51,31,0
133.52127,133.61307,44,40,0
133.61383,133.70561,51,31,0
133.70639,133.79817,47,34,0
133.79895,133.89073,51,31,0
133.89151,133.98329,44,41,0
133.98407,134.07585,51,32,0
134.07663,134.16583,47,35,0
134.16658,134.2558,51,32,0
134.25655,134.3615,44,43,0
134.34651,134.45146,51,33,0
134.43646,134.54141,47,37,0
134.52643,134.63138,51,33,0
134.61638,134.72134,46,46,0
134.70634,134.81183,51,34,0
134.79631,134.88869,49,39,0
134.88947,134.98186,51,34,0
134.98264,135.07501,46,47,0
135.07579,135.16818,51,35,0
135.16896,135.26134,49,40,0
135.26212,135.3545,51,40,0
135.35529,135.44766,46,49,0
135.44844,135.54083,51,35,0
135.54161,135.63081,49,41,0
135.63156,135.72078,51,35,0
135.72153,135.82648,46,50,0
135.81148,135.91644,51,42,0
135.90144,136.0064,49,45,0
135.99141,136.09636,51,42,0
136.08136,136.18633,47,51,0
136.17133,136.27681,51,43,0
136.26129,136.35367,47,47,0
136.35445,136.44684,51,43,0
136.44762,136.54,47,52,0
136.54077,136.63316,51,44,0
136.63394,136.72632,47,48,0
136.7271,136.81949,51,44,0
136.82027,136.91264,47,56,0
136.91342,137.00581,51,46,0
137.00658,137.11252,47,50,0
137.09738,137.20332,51,45,0
137.18819,137.29413,47,57,0
137.27899,137.38493,51,47,0
137.3698,137.47574,47,51,0
137.4606,137.56654,51,47,0
137.5514,137.65735,43,59,0
137.64221,137.7484,51,52,0
137.73302,137.82451,43,56,0
137.82529,137.91678,51,51,0
137.91754,138.00903,43,60,0
138.00981,138.1013,51,53,0
138.10207,138.19356,43,57,0
138.19434,138.28583,51,52,0
138.28659,138.37808,43,62,0
138.37886,138.47035,51,54,0
138.47112,138.57875,43,59,0
138.56339,138.67102,51,53,0
138.65564,138.76328,43,62,0
138.74791,138.85555,51,54,0
138.84016,138.9478,43,60,0
138.93243,139.03969,51,53,0
139.02469,139.12964,42,66,0
139.11465,139.2196,51,57,0
139.2046,139.30957,44,61,0
139.29457,139.39952,51,56,0
139.38454,139.48949,42,66,0
139.47449,139.57945,51,56,0
139.56445,139.6694,44,61,0
139.65442,139.75937,51,56,0
139.74437,139.84933,40,66,0
139.83434,139.93929,49,58,0
139.9243,140.02925,44,62,0
140.01425,140.11922,49,56,0
140.10422,140.20917,40,66,0
140.19418,140.29913,49,56,0
140.28413,140.3891,44,61,0
140.3741,140.47963,49,61,0
140.46407,140.55675,40,66,0
140.55753,140.6502,49,56,0
140.65099,140.74367,42,61,0
140.74445,140.83713,49,54,0
140.83792,140.94287,39,66,0
140.92787,141.03282,47,56,0
141.01784,141.12279,42,62,0
141.10779,141.21275,47,56,0
141.19775,141.3027,39,66,0
141.28772,141.39267,47,56,0
141.37767,141.48264,42,61,0
141.46764,141.57259,47,56,0
141.5576,141.66255,39,66,0
141.64755,141.75252,47,54,0
141.73752,141.84247,42,60,0
141.82748,141.93272,47,60,0
141.91743,142.0244,38,66,0
142.00911,142.11607,47,56,0
142.10078,142.20775,40,62,0
142.19247,142.29942,47,54,0
142.28415,142.3911,38,66,0
142.37582,142.48277,47,56,0
142.4675,142.57445,40,62,0
142.55917,142.66603,47,56,0
142.65085,142.75713,37,66,0
142.74194,142.84822,45,56,0
142.83304,142.93932,40,62,0
142.92413,143.03041,45,56,0
143.01523,143.1215,37,66,0
143.10632,143.21262,45,56,0
143.19743,143.30371,40,62,0
143.28853,143.39505,45,56,0
143.37962,143.4714,37,66,0
143.47218,143.56396,46,56,0
143.56474,143.65652,39,60,0
143.65729,143.74908,46,56,0
143.74985,143.85481,35,66,0
143.83981,143.94476,44,56,0
143.92978,144.03473,39,61,0
144.01973,144.1247,44,56,0
144.1097,144.21465,35,66,0
144.19966,144.30461,44,56,0
144.28961,144.39458,39,61,0
144.37958,144.48453,44,54,0
144.46954,144.5745,35,66,0
144.5595,144.66444,44,56,0
144.64946,144.75441,39,61,0
144.73943,144.82938,44,54,0
144.82938,145.9089,37,64,0
144.82938,145.9089,45,75,0
144.82938,145.9089,49,75,0
144.82938,145.9089,40,64,0
146.26875,146.6256,69,50,0
146.26875,146.62859,61,42,0
146.26875,146.62859,64,42,0
146.98843,147.34827,61,41,0
146.98843,147.34827,64,41,0
146.98843,147.34827,69,49,0
147.70811,148.06796,61,41,0
147.70811,148.06796,64,41,0
147.70811,148.06796,69,49,0
148.06796,148.4278,61,44,0
148.06796,148.4278,64,44,0
148.06796,148.4278,69,52,0
148.4278,148.78764,61,51,0
148.4278,148.78764,64,51,0
148.4278,148.78764,69,60,0
148.78764,149.14748,64,47,0
148.78764,149.14748,69,56,0
148.78764,149.14748,61,47,0
149.14748,149.23744,63,49,0
149.23744,149.32741,71,43,0
149.32741,149.41736,68,49,0
149.41736,149.50732,71,49,0
149.50732,149.59729,63,51,0
149.59729,149.68724,71,44,0
149.68724,149.7772,68,47,0
149.7772,149.86717,71,43,0
149.86717,149.95827,63,51,0
149.95827,150.04936,73,44,0
150.04936,150.14046,67,48,0
150.14046,150.23155,73,44,0
150.23155,150.32265,63,51,0
150.32265,150.41374,73,45,0
150.41374,150.50484,67,48,0
150.50484,150.59595,73,45,0
150.59595,150.8124,68,56,0
150.59595,150.8124,64,47,0
150.59595,150.8124,71,56,0
151.02884,151.74852,37,62,0
151.02884,151.74852,49,73,0
151.02884,151.74852,45,73,0
151.02884,151.74852,40,62,0
152.46822,152.82805,57,49,0
152.46822,152.82805,49,41,0
152.46822,152.82805,52,41,0
153.1879,153.54773,49,41,0
153.1879,153.54773,57,49,0
153.1879,153.54773,52,41,0
153.72766,153.90758,52,43,0
153.72766,153.90758,57,51,0
153.72766,153.90758,49,43,0
154.0875,154.26743,52,51,0
154.0875,154.26743,57,61,0
154.0875,154.26743,49,51,0
154.44734,154.62726,52,57,0
154.44734,154.62726,57,68,0
154.44734,154.62726,49,57,0
154.80717,154.9871,49,57,0
154.80717,154.9871,52,57,0
154.80717,154.9871,57,68,0
154.9871,155.34694,57,67,0
154.9871,155.34694,49,56,0
154.9871,155.34694,52,56,0
156.42647,156.51569,49,70,0
156.51643,156.60564,57,61,0
156.60638,156.6956,52,66,0
156.69635,156.78557,57,62,0
156.78632,156.87552,49,70,0
156.87627,156.96548,57,61,0
156.96623,157.05545,52,65,0
157.0562,157.1454,57,62,0
157.14615,157.23537,50,70,0
157.23611,157.32533,59,61,0
157.32608,157.41528,53,66,0
157.41603,157.50525,59,62,0
157.506,157.59521,50,70,0
157.59596,157.68517,59,59,0
157.68591,157.77513,53,63,0
157.77588,157.86508,59,61,0
157.86584,157.95505,51,70,0
157.9558,158.04501,59,61,0
158.04576,158.13496,56,66,0
158.13573,158.22493,59,62,0
158.22568,158.3149,51,70,0
158.31564,158.40485,59,62,0
158.40561,158.49481,56,66,0
158.49556,158.58478,59,61,0
158.58553,158.67586,39,70,0
158.67662,158.76695,51,62,0
158.76772,158.85805,50,67,0
158.85881,158.94916,51,62,0
158.9499,159.04025,50,70,0
159.041,159.13135,51,62,0
159.13211,159.22244,50,67,0
159.2232,159.30063,51,62,0
159.3143,159.49422,44,71,0
159.67995,159.7728,56,43,0
159.86566,159.95853,56,43,0
160.0512,160.14375,56,43,0
160.2363,160.32886,56,43,0
160.42142,160.51378,58,40,0
160.60605,160.6983,59,39,0
160.79057,160.9749,61,47,0
160.79057,160.9749,51,47,0
160.9749,161.0657,63,42,0
160.9749,161.0657,61,42,0
161.15651,161.24731,63,41,0
161.15651,161.24731,61,41,0
161.33812,161.42892,63,41,0
161.33812,161.42892,61,41,0
161.51973,161.61053,61,41,0
161.51973,161.61053,63,41,0
161.70134,161.79213,61,41,0
161.70134,161.79213,63,41,0
161.88293,161.97374,59,41,0
161.88293,161.97374,63,41,0
162.06454,162.15535,63,43,0
162.06454,162.15535,58,43,0
162.24615,162.42776,44,47,0
162.24615,162.42776,56,47,0
162.42776,162.52094,56,42,0
162.61409,162.70726,56,42,0
162.80042,162.89328,56,42,0
162.98615,163.079,56,43,0
163.17177,163.26433,56,42,0
163.35687,163.44943,58,41,0
163.5418,163.63406,59,39,0
163.72632,163.91055,61,47,0
163.72632,163.91055,51,47,0
163.91055,164.00136,63,41,0
163.91055,164.00136,61,41,0
164.09216,164.18297,61,43,0
164.09216,164.18297,63,43,0
164.27377,164.36458,63,42,0
164.27377,164.36458,61,42,0
164.45538,164.54619,63,42,0
164.45538,164.54619,61,42,0
164.637,164.7278,61,42,0
164.637,164.7278,63,42,0
164.8186,164.90941,59,43,0
164.8186,164.90941,63,43,0
165.00021,165.09102,58,45,0
165.00021,165.09102,63,45,0
165.18182,165.27528,44,48,0
165.36874,165.45871,56,39,0
165.36874,165.45871,59,39,0
165.54866,165.72859,59,39,0
165.54866,165.72859,56,39,0
165.72859,165.90851,63,39,0
165.72859,165.90851,59,39,0
165.90851,166.00018,49,47,0
166.09186,166.18182,61,43,0
166.09186,166.18182,56,43,0
166.27177,166.4517,56,43,0
166.27177,166.4517,61,43,0
166.4517,166.63162,64,41,0
166.4517,166.63162,61,41,0
166.63162,166.72508,51,47,0
166.81854,166.90851,56,41,0
166.81854,166.90851,59,41,0
166.99847,167.17839,59,42,0
166.99847,167.17839,56,42,0
167.17839,167.3583,59,42,0
167.17839,167.3583,63,42,0
167.3583,167.45363,51,47,0
167.54895,167.6389,58,39,0
167.54895,167.6389,55,39,0
167.72887,167.90878,55,39,0
167.72887,167.90878,58,39,0
167.90878,168.08871,63,39,0
167.90878,168.08871,58,39,0
168.08871,168.26863,44,42,0
168.08871,168.26863,32,42,0
168.26863,168.3606,51,41,0
168.26863,168.3606,44,41,0
168.45256,168.54454,51,43,0
168.45256,168.54454,44,43,0
168.6364,168.72807,44,47,0
168.6364,168.72807,51,47,0
168.81975,168.91144,44,50,0
168.81975,168.91144,51,50,0
169.00282,169.09421,44,52,0
169.00282,169.09421,51,52,0
169.1856,169.27687,46,57,0
169.1856,169.27687,51,57,0
169.36798,169.45908,47,59,0
169.36798,169.45908,51,59,0
169.55017,169.73589,39,62,0
169.55017,169.73589,49,62,0
169.55017,169.73589,51,62,0
169.73589,169.82669,51,62,0
169.73589,169.82669,61,62,0
169.9175,170.0083,61,66,0
169.9175,170.0083,51,66,0
170.0991,170.18991,51,62,0
170.0991,170.18991,61,62,0
170.28072,170.37152,51,66,0
170.28072,170.37152,61,66,0
170.46233,170.55313,51,62,0
170.46233,170.55313,61,62,0
170.64394,170.7371,59,66,0
170.64394,170.7371,51,66,0
170.83028,170.92345,58,62,0
170.83028,170.92345,51,62,0
171.0166,171.20708,32,67,0
171.0166,171.20708,44,67,0
171.20708,171.29877,44,41,0
171.20708,171.29877,51,41,0
171.39044,171.48212,44,44,0
171.39044,171.48212,51,44,0
171.5736,171.66498,51,48,0
171.5736,171.66498,44,48,0
171.75636,171.84775,51,51,0
171.75636,171.84775,44,51,0
171.93884,172.02994,51,56,0
171.93884,172.02994,44,56,0
172.12103,172.21204,46,58,0
172.12103,172.21204,51,58,0
172.30284,172.39365,51,62,0
172.30284,172.39365,47,62,0
172.48445,172.6653,51,66,0
172.48445,172.6653,39,66,0
172.48445,172.6653,49,66,0
172.6653,172.75526,61,62,0
172.6653,172.75526,51,62,0
172.8455,172.93602,61,67,0
172.8455,172.93602,51,67,0
173.02682,173.11794,61,62,0
173.02682,173.11794,51,62,0
173.20932,173.301,51,67,0
173.20932,173.301,61,67,0
173.39296,173.48521,61,62,0
173.39296,173.48521,51,62,0
173.57777,173.67064,51,67,0
173.57777,173.67064,59,67,0
173.76381,173.85727,58,62,0
173.76381,173.85727,51,62,0
173.95103,174.13959,56,68,0
173.95103,174.13959,44,68,0
174.13959,174.22955,63,43,0
174.13959,174.22955,59,43,0
174.3195,174.49944,59,41,0
174.3195,174.49944,63,41,0
174.49944,174.67935,59,39,0
174.49944,174.67935,56,39,0
174.67935,174.77132,49,48,0
174.86328,174.95325,61,42,0
174.86328,174.95325,64,42,0
175.04321,175.22313,64,42,0
175.04321,175.22313,61,42,0
175.22313,175.40305,61,39,0
175.22313,175.40305,56,39,0
175.40305,175.49622,51,48,0
175.58937,175.67934,59,42,0
175.58937,175.67934,63,42,0
175.76929,175.94922,59,42,0
175.76929,175.94922,63,42,0
175.94922,176.12914,56,39,0
175.94922,176.12914,59,39,0
176.12914,176.2217,49,49,0
176.31425,176.4042,58,42,0
176.31425,176.4042,63,42,0
176.49417,176.67409,63,42,0
176.49417,176.67409,58,42,0
176.67409,176.85402,55,39,0
176.67409,176.85402,58,39,0
176.85402,177.03569,47,45,0
177.03569,177.12915,68,39,0
177.03569,177.12915,63,39,0
177.22365,177.41612,63,41,0
177.22365,177.41612,68,41,0
177.41612,177.61115,59,41,0
177.41612,177.61115,63,41,0
177.61115,177.80836,49,50,0
177.80836,177.90869,69,47,0
177.80836,177.90869,64,47,0
178.01059,178.21475,64,45,0
178.01059,178.21475,69,45,0
178.21475,178.41891,61,45,0
178.21475,178.41891,64,45,0
178.41891,178.6274,51,52,0
178.6274,178.73396,63,48,0
178.6274,178.73396,68,48,0
178.84137,179.06013,63,48,0
178.84137,179.06013,68,48,0
179.06013,179.28488,59,45,0
179.06013,179.28488,63,45,0
179.28488,179.51736,51,51,0
179.51736,179.63535,61,43,0
179.51736,179.63535,67,43,0
179.75333,179.9898,61,43,0
179.75333,179.9898,67,43,0
179.9898,180.2277,61,35,0
179.9898,180.2277,58,35,0
180.2277,180.32614,44,41,0
180.32697,180.4254,56,32,0
180.42622,180.52466,51,36,0
180.52548,180.62392,56,33,0
180.62474,180.72318,44,41,0
180.724,180.82243,56,33,0
180.82326,180.92169,51,36,0
180.92252,181.02095,56,33,0
181.02177,181.12021,44,41,0
181.12103,181.21947,56,33,0
181.22029,181.31873,51,37,0
181.31955,181.41798,56,33,0
181.41881,181.51933,44,41,0
181.52017,181.62068,56,33,0
181.62154,181.72205,51,37,0
181.72289,181.8234,56,33,0
181.82425,181.92476,44,41,0
181.9256,182.02612,58,33,0
182.02696,182.12747,51,38,0
182.12833,182.22884,58,33,0
182.22968,182.3358,44,41,0
182.33669,182.44281,58,33,0
182.44371,182.54982,51,37,0
182.55072,182.65685,58,34,0
182.65773,182.76385,44,41,0
182.76474,182.87086,58,34,0
182.87175,182.97787,51,38,0
182.97878,183.08488,58,33,0
183.08578,183.19191,44,41,0
183.1928,183.29892,58,33,0
183.2998,183.40593,51,36,0
183.40681,183.54956,58,33,0
183.55077,183.6492,44,41,0
183.65002,183.74846,56,32,0
183.74928,183.84772,51,37,0
183.84854,183.94698,56,32,0
183.9478,184.04623,44,41,0
184.04706,184.1455,56,33,0
184.14632,184.24475,51,38,0
184.24557,184.34401,56,34,0
184.34483,184.44327,44,41,0
184.44409,184.54253,56,34,0
184.54335,184.64178,51,38,0
184.64261,184.74104,56,33,0
184.74187,184.84203,44,41,0
184.84286,184.94304,56,33,0
184.94388,185.04404,51,36,0
185.04488,185.14503,56,34,0
185.14587,185.24605,44,41,0
185.24689,185.34705,58,33,0
185.34789,185.44804,51,36,0
185.44888,185.54906,58,33,0
185.5499,185.65334,44,41,0
185.65419,185.75763,58,33,0
185.7585,185.86194,51,36,0
185.86281,185.96625,58,33,0
185.96712,186.07054,44,41,0
186.07141,186.17485,58,33,0
186.17572,186.27916,51,36,0
186.28003,186.38345,58,33,0
186.38432,186.48776,44,41,0
186.48863,186.59207,58,34,0
186.59294,186.69429,51,39,0
186.69511,186.82977,58,34,0
186.8309,186.928,44,41,0
186.92882,187.02591,56,33,0
187.02673,187.12383,51,36,0
187.12463,187.22174,56,33,0
187.22255,187.31964,44,42,0
187.32047,187.41756,56,33,0
187.41837,187.51547,51,35,0
187.51628,187.62956,56,33,0
187.63052,187.72762,44,41,0
187.72842,187.82552,58,34,0
187.82634,187.92343,51,37,0
187.92426,188.02135,58,34,0
188.02216,188.11926,44,41,0
188.12007,188.21716,58,33,0
188.21799,188.31508,51,38,0
188.3159,188.44334,58,33,0
188.44441,188.5415,44,41,0
188.54231,188.63942,56,33,0
188.64023,188.73732,51,36,0
188.73814,188.83524,56,33,0
188.83606,188.93315,44,41,0
188.93396,189.03107,56,34,0
189.03188,189.12897,51,36,0
189.12979,189.22688,56,33,0
189.22769,189.3248,44,41,0
189.3256,189.4227,58,34,0
189.42352,189.52061,51,37,0
189.52144,189.61853,58,34,0
189.61934,189.71645,44,41,0
189.71725,189.81435,58,34,0
189.81517,189.91226,51,37,0
189.91307,190.01018,58,34,0
190.01099,190.1131,44,42,0
190.11397,190.21468,56,41,0
190.21552,190.31602,51,42,0
190.31686,190.41739,56,39,0
190.41823,190.51833,44,43,0
190.51917,190.61856,56,44,0
190.6194,190.71852,51,45,0
190.71935,190.81847,56,42,0
190.8193,190.91797,44,47,0
190.9188,191.01572,56,48,0
191.01654,191.1125,51,48,0
191.11331,191.2091,56,44,0
191.2099,191.3057,44,51,0
191.3065,191.4023,56,51,0
191.4031,191.49818,51,52,0
191.49898,191.59349,56,47,0
191.59428,191.68881,44,53,0
191.6896,191.78413,54,56,0
191.78493,191.87944,51,56,0
191.88023,191.97476,54,52,0
191.97556,192.07008,44,57,0
192.07088,192.16515,54,58,0
192.16594,192.25899,51,60,0
192.25977,192.35245,54,57,0
192.35324,192.44592,44,62,0
192.4467,192.53938,54,62,0
192.54016,192.63277,51,63,0
192.63354,192.72563,54,59,0
192.72641,192.8185,44,65,0
192.81927,192.91136,54,67,0
192.91212,193.00406,51,67,0
193.00484,193.09537,54,60,0
193.09613,193.18608,56,57,0
193.09613,193.18608,53,57,0
193.09613,193.18608,37,48,0
193.27605,193.366,44,34,0
193.45596,193.54593,37,36,0
193.63588,193.72585,44,34,0
193.81581,193.90576,37,36,0
193.99573,194.0857,44,34,0
194.17564,194.26561,37,35,0
194.35558,194.44553,44,33,0
194.53549,194.62546,37,42,0
194.71541,194.80537,44,39,0
194.89534,194.98529,37,43,0
195.07526,195.16522,44,39,0
195.25517,195.34514,37,43,0
195.43509,195.52505,44,39,0
195.61502,195.70909,37,64,0
195.61502,195.70909,49,77,0
195.80316,195.89723,44,64,0
195.99132,196.08127,35,68,0
196.17123,196.2612,44,43,0
196.35115,196.44112,35,47,0
196.53107,196.62103,44,44,0
196.711,196.80095,35,48,0
196.89091,196.98088,44,43,0
197.07083,197.1608,35,48,0
197.25076,197.34071,44,44,0
197.43068,197.52065,35,48,0
197.6106,197.70056,44,44,0
197.79053,197.88048,35,48,0
197.97044,198.06041,44,44,0
198.15036,198.24033,35,48,0
198.33028,198.42024,44,44,0
198.51021,198.60428,47,77,0
198.51021,198.60428,35,64,0
198.69835,198.79242,44,64,0
198.8865,198.97646,33,68,0
199.06642,199.15639,45,51,0
199.24634,199.3363,33,55,0
199.42627,199.51622,45,51,0
199.60619,199.69614,33,55,0
199.7861,199.87607,45,51,0
199.96602,200.06041,33,83,0
200.15479,200.24918,45,71,0
200.34355,200.43352,29,56,0
200.52347,200.61343,41,52,0
200.7034,200.79335,29,53,0
200.88332,200.97327,41,51,0
201.06323,201.1532,29,53,0
201.24315,201.33311,41,50,0
201.42308,201.52892,29,83,0
201.63475,201.74059,41,77,0
201.84642,201.96587,42,78,0
201.84642,201.96587,30,78,0
201.96587,202.10521,61,29,0
202.08531,202.22466,57,34,0
202.20476,202.33919,61,29,0
202.3242,202.4134,54,41,0
202.41415,202.50337,61,28,0
202.50412,202.59334,57,31,0
202.59409,202.68329,61,28,0
202.68404,202.77325,54,38,0
202.774,202.8632,61,28,0
202.86397,202.95317,57,32,0
202.95392,203.04314,61,29,0
203.04388,203.13309,54,38,0
203.13385,203.22305,61,29,0
203.2238,203.31302,57,32,0
203.31377,203.51625,61,28,0
203.51796,203.62843,56,37,0
203.61266,203.72311,61,28,0
203.70734,203.81781,59,31,0
203.80203,203.91171,61,26,0
203.89673,203.98593,56,43,0
203.98668,204.0759,61,39,0
204.07664,204.16585,59,47,0
204.1666,204.25581,61,43,0
204.25656,204.34578,56,55,0
204.34653,204.43573,61,44,0
204.43648,204.53526,59,51,0
204.53609,204.63487,61,47,0
204.6357,204.73448,56,62,0
204.7353,204.83409,61,49,0
204.83492,204.9337,59,51,0
204.93452,205.03331,61,43,0
205.03413,205.13057,57,37,0
205.13138,205.22783,61,30,0
205.22864,205.32507,57,34,0
205.32588,205.42233,61,29,0
205.42314,205.51291,57,43,0
205.51366,205.60342,61,37,0
205.60417,205.69394,57,47,0
205.6947,205.78445,61,43,0
205.78522,205.87498,57,55,0
205.87573,205.9655,61,44,0
205.96625,206.06503,57,52,0
206.06586,206.16464,61,47,0
206.16547,206.26425,57,64,0
206.26508,206.36386,61,48,0
206.36469,206.46347,57,49,0
206.4643,206.56308,61,40,0
206.5639,206.66002,53,39,0
206.66083,206.75693,61,29,0
206.75774,206.85385,53,32,0
206.85466,206.95078,61,29,0
206.95158,207.04079,53,39,0
207.04153,207.13075,61,34,0
207.1315,207.2207,53,46,0
207.22145,207.31067,61,42,0
207.31142,207.40063,53,55,0
207.40138,207.49059,61,44,0
207.49133,207.58432,53,54,0
207.5851,207.67809,61,51,0
207.67886,207.7753,53,62,0
207.77611,207.87256,61,46,0
207.87337,207.9698,53,48,0
207.97061,208.06706,61,39,0
208.06787,208.27571,54,41,0
208.48355,209.2312,61,56,0
209.2312,209.52596,57,48,0
209.52596,209.62012,54,48,0
209.6242,210.01721,54,54,0
210.01721,210.56033,53,47,0
210.56033,210.74136,53,47,0
210.74136,211.03612,61,56,0
211.03612,211.13028,53,47,0
211.13437,211.53839,56,43,0
211.53839,212.0815,54,47,0
212.0815,212.2886,54,48,0
212.2886,212.59924,61,53,0
212.59924,212.69849,54,47,0
212.70279,212.79417,54,54,0
212.8847,213.06573,54,49,0
213.06573,213.3373,62,53,0
213.3373,213.42781,54,58,0
213.42781,213.51834,54,58,0
213.60886,213.7899,54,61,0
213.7899,214.06145,62,62,0
214.06145,214.15198,54,62,0
214.15198,214.37172,55,66,0
214.59148,215.31563,50,48,0
215.31563,215.61758,47,48,0
215.61758,215.71823,43,48,0
215.71823,216.12083,43,57,0
216.12083,216.66396,42,48,0
216.66396,216.84499,42,48,0
216.84499,217.13094,50,60,0
217.13094,217.2524,42,47,0
217.2524,217.63367,45,66,0
217.63367,218.17679,43,57,0
218.17679,218.35782,43,59,0
218.35782,218.68492,50,66,0
218.68492,218.78941,42,57,0
218.79396,219.18036,42,73,0
219.18036,219.72348,41,62,0
219.72348,219.90451,41,62,0
219.90451,220.17607,49,71,0
220.17607,220.2666,41,62,0
220.2666,220.35712,42,75,0
220.44763,220.63336,42,67,0
220.63336,220.81908,45,67,0
220.81908,221.0048,42,61,0
221.0048,221.09532,38,75,0
221.18585,221.37218,38,68,0
221.37218,221.55849,42,67,0
221.55849,221.74481,38,62,0
221.74481,222.5595,36,76,0
222.65001,222.83105,36,68,0
222.83105,223.01208,39,68,0
223.01208,223.19313,36,65,0
223.19313,223.28365,37,73,0
223.37418,223.5552,37,68,0
223.5552,223.73973,40,68,0
223.73973,223.92426,37,65,0
223.92426,224.01653,33,76,0
224.10878,224.2933,33,68,0
224.2933,224.47783,37,68,0
224.47783,224.66235,33,67,0
224.66235,224.75462,30,75,0
224.84688,225.0314,30,68,0
225.0314,225.21893,33,68,0
225.21893,225.40645,30,67,0
225.40645,225.50021,31,77,0
225.59398,225.7815,31,67,0
225.7815,225.96996,34,67,0
225.96996,226.16219,31,67,0
226.16219,226.27614,32,39,0
226.25977,226.3749,44,33,0
226.35835,226.47469,32,39,0
226.45796,226.57414,44,31,0
226.55861,226.651,32,39,0
226.65178,226.74416,44,32,0
226.74493,226.83733,32,39,0
226.8381,226.93048,44,32,0
226.93126,227.02365,32,39,0
227.02443,227.1168,44,34,0
227.11758,227.20998,32,39,0
227.21075,227.30324,44,34,0
227.30402,227.39915,32,39,0
227.39996,227.49544,44,32,0
227.49625,227.59204,32,39,0
227.59283,227.68895,44,34,0
227.68976,227.7862,32,39,0
227.787,227.88377,44,33,0
227.88458,227.98169,32,39,0
227.9825,228.0795,44,32,0
228.0803,228.17653,32,39,0
228.17734,228.27399,44,33,0
228.27481,228.3718,32,39,0
228.3726,228.47015,44,33,0
228.47096,228.56885,32,39,0
228.56967,228.66798,44,33,0
228.66881,228.76747,32,39,0
228.76831,228.86754,44,34,0
228.86838,228.9658,32,39,0
228.96663,229.06406,44,33,0
229.06488,229.16231,32,39,0
229.16313,229.26056,44,32,0
229.26138,229.35881,32,39,0
229.35963,229.45706,44,33,0
229.45789,229.55531,32,39,0
229.55614,229.65314,44,33,0
229.65395,229.75027,32,39,0
229.75108,229.84795,44,33,0
229.84877,229.9463,32,39,0
229.94713,230.04523,44,33,0
230.04605,230.14471,32,39,0
230.14554,230.24478,44,33,0
230.24562,230.34554,32,39,0
230.34639,230.4469,44,33,0
230.44774,230.54451,32,39,0
230.54532,230.64209,44,33,0
230.6429,230.73967,32,39,0
230.74048,230.83725,44,34,0
230.83806,230.93483,32,39,0
230.93564,231.03241,44,34,0
231.03322,231.12999,32,39,0
231.1308,231.22757,44,33,0
231.22838,231.32515,32,39,0
231.32596,231.42273,44,34,0
231.42354,231.52031,32,39,0
231.52112,231.61789,44,34,0
231.6187,231.73254,32,39,0
231.71628,231.83012,44,34,0
231.81386,231.9277,32,39,0
231.91144,232.02528,44,32,0
232.00902,232.12286,32,37,0
232.1066,232.22044,44,33,0
232.20418,232.31802,32,37,0
232.30176,232.4156,44,31,0
232.39934,232.49611,32,37,0
232.49692,232.59369,44,33,0
232.5945,232.69127,32,37,0
232.69208,232.78885,44,32,0
232.78966,232.88235,32,37,0
232.88313,232.97581,44,32,0
232.9766,233.06927,32,37,0
233.07005,233.16273,44,33,0
233.16351,233.25621,32,39,0
233.25699,233.34956,44,34,0
233.35034,233.44273,32,40,0
233.44351,233.53589,44,34,0
233.53667,233.64536,32,41,0
233.62984,233.73853,44,37,0
233.72299,233.83163,32,41,0
233.81616,233.9245,44,38,0
233.90901,234.01736,32,43,0
234.00188,234.11021,44,38,0
234.09474,234.20308,32,44,0
234.1876,234.29594,44,39,0
234.28047,234.38866,32,45,0
234.37323,234.48122,44,40,0
234.46579,234.57378,32,46,0
234.55835,234.66632,44,41,0
234.6509,234.75888,32,47,0
234.74345,234.8514,44,41,0
234.83601,234.94366,32,48,0
234.92828,235.03592,44,43,0
235.02054,235.12819,32,49,0
235.11281,235.22044,44,44,0
235.20506,235.31271,32,50,0
235.29733,235.40482,44,45,0
235.3895,235.4968,32,51,0
235.48146,235.58876,44,46,0
235.57343,235.68073,32,51,0
235.66539,235.77269,44,47,0
235.75737,235.86465,32,53,0
235.84933,235.95663,44,50,0
235.9413,236.0486,32,54,0
236.03326,236.14056,44,51,0
236.12524,236.23253,32,54,0
236.21721,236.32451,44,51,0
236.30917,236.41647,32,49,0
236.40114,236.50844,44,47,0
236.4931,236.6004,32,44,0
236.58508,236.69237,44,35,0
236.67705,236.78435,32,39,0
236.76901,236.87671,44,34,0
236.86098,236.95457,32,39,0
236.95537,237.04895,44,33,0
237.04974,237.14334,32,37,0
237.14412,237.23772,44,35,0
237.23851,237.3321,32,37,0
237.33289,237.42648,44,32,0
237.42728,237.52086,32,37,0
237.52165,237.61525,44,33,0
237.61603,237.70963,32,39,0
237.71042,237.804,44,34,0
237.8048,237.89839,32,39,0
237.89917,237.99277,44,35,0
237.99356,238.08716,32,41,0
238.08794,238.18153,44,39,0
238.18231,238.27591,32,45,0
238.2767,238.38567,44,41,0
238.38658,238.47986,32,46,0
238.48065,238.57394,44,42,0
238.57472,238.66801,32,49,0
238.6688,238.76208,44,44,0
238.76286,238.85616,32,51,0
238.85695,238.95023,44,45,0
238.95102,239.04431,32,51,0
239.04509,239.13838,44,44,0
239.13916,239.23245,32,45,0
239.23323,239.32652,44,41,0
239.32732,239.4206,32,41,0
239.42139,239.51468,44,37,0
239.51546,239.62521,32,41,0
239.60953,239.71928,44,35,0
239.7036,239.81335,32,39,0
239.79768,239.90742,44,33,0
239.89175,240.0015,32,37,0
239.98582,240.09558,44,34,0
240.0799,240.18965,32,37,0
240.17397,240.28372,44,32,0
240.26805,240.37737,32,37,0
240.36179,240.47148,44,33,0
240.4557,240.56653,32,37,0
240.55064,240.66234,44,35,0
240.64635,240.75879,32,35,0
240.74269,240.85648,44,34,0
240.84016,240.95439,32,41,0
240.93806,241.05382,44,37,0
241.03716,241.15446,32,43,0
241.13766,241.25623,44,39,0
241.23921,241.363,32,47,0
241.3413,241.48857,44,42,0
241.47156,241.57278,32,47,0
241.57364,241.67487,44,43,0
241.67572,241.77695,32,51,0
241.7778,241.87903,44,47,0
241.87988,241.98111,32,56,0
241.98196,242.0832,44,48,0
242.08405,242.18529,32,54,0
242.18613,242.28737,44,47,0
242.28821,242.38945,32,49,0
242.39029,242.49153,44,45,0
242.49239,242.59361,32,49,0
242.59447,242.6957,44,41,0
242.69655,242.79778,32,45,0
242.79863,242.89986,44,39,0
242.90071,243.00194,32,41,0
243.00279,243.10402,44,35,0
243.10487,243.2061,32,40,0
243.20695,243.30818,44,34,0
243.30904,243.41028,32,39,0
243.41112,243.51236,44,34,0
243.5132,243.61444,32,39,0
243.61528,243.71652,44,34,0
243.71738,243.8186,32,41,0
243.81946,243.92068,44,39,0
243.92154,244.02277,32,45,0
244.02362,244.12485,44,39,0
244.1257,244.22693,32,45,0
244.22778,244.32901,44,40,0
244.32986,244.43109,32,47,0
244.43195,244.53317,44,43,0
244.53403,244.63525,32,51,0
244.63611,244.73735,44,45,0
244.73819,244.83943,32,56,0
244.84027,244.94151,44,51,0
244.94235,245.0436,32,56,0
245.04445,245.14568,44,49,0
245.14653,245.24847,32,51,0
245.24934,245.35353,44,43,0
245.3544,245.45898,32,47,0
245.45987,245.56596,44,40,0
245.56686,245.67477,33,44,0
245.67567,245.78468,45,38,0
245.78561,245.89723,33,41,0
245.89818,246.01117,45,35,0
246.01212,246.12558,33,39,0
246.12653,246.24083,45,34,0
246.2418,246.35847,33,39,0
246.35947,246.47743,45,34,0
246.47842,248.38167,42,39,0
246.47842,248.38167,30,33,0
248.38167,250.28493,44,32,0
248.38167,250.28493,32,27,0
250.28493,250.3749,37,62,0
250.46484,250.55481,44,40,0
250.64478,250.73473,37,43,0
250.82469,250.91466,44,39,0
251.00461,251.09457,37,41,0
251.18452,251.27449,44,39,0
251.36446,251.4544,37,42,0
251.54437,251.63434,44,39,0
251.72429,251.81425,37,43,0
251.90422,251.99417,44,40,0
252.08414,252.1741,37,43,0
252.26405,252.35402,44,40,0
252.44398,252.53394,37,41,0
252.6239,252.71387,44,38,0
252.80382,252.89758,49,79,0
252.80382,252.89758,37,66,0
252.99135,253.08511,44,67,0
253.17886,253.26883,36,41,0
253.3588,253.44875,44,38,0
253.53871,253.62868,36,41,0
253.71863,253.8086,44,38,0
253.89854,253.98851,36,40,0
254.07848,254.16843,44,37,0
254.25839,254.34836,36,40,0
254.43831,254.52827,44,36,0
254.61824,254.70819,36,40,0
254.79816,254.88812,44,36,0
254.97807,255.06804,36,40,0
255.158,255.24796,44,36,0
255.33792,255.42789,36,40,0
255.51784,255.6078,44,36,0
255.69777,255.79184,36,66,0
255.69777,255.79184,48,79,0
255.88591,255.97998,44,65,0
256.07407,256.164,35,55,0
256.25397,256.34393,44,51,0
256.4339,256.52386,35,56,0
256.61383,256.70377,44,52,0
256.79373,256.8837,35,56,0
256.97366,257.06363,44,52,0
257.1536,257.24353,35,56,0
257.3335,257.42346,44,51,0
257.51343,257.6034,35,56,0
257.69336,257.7833,44,51,0
257.87326,257.96323,35,56,0
258.0532,258.14316,44,52,0
258.2331,258.32306,35,56,0
258.41302,258.503,44,52,0
258.59296,258.6864,35,71,0
258.59296,258.6864,47,85,0
258.77988,258.87335,44,73,0
258.9668,259.05676,33,50,0
259.14673,259.2367,45,51,0
259.32666,259.4166,33,57,0
259.50656,259.59653,45,62,0
259.6865,259.77646,33,67,0
259.86642,259.95636,45,67,0
260.04633,260.13773,33,86,0
260.2291,260.3205,45,85,0
260.41187,260.50183,33,67,0
260.5918,260.68176,45,62,0
260.77173,260.86166,33,67,0
260.95163,261.0416,45,63,0
261.13156,261.22153,33,67,0
261.3115,261.40143,45,64,0
261.4914,261.59607,33,90,0
261.70074,261.80542,45,90,0
261.9101,262.11945,32,77,0
261.9101,262.11945,44,77,0
262.11945,262.30164,60,62,0
262.30164,262.48383,60,62,0
262.48383,262.66605,61,62,0
262.66605,262.84824,63,64,0
262.84824,263.03043,64,66,0
263.03043,263.21262,66,67,0
263.21262,263.3948,63,68,0
263.3948,263.58173,66,69,0
263.58173,263.76865,64,71,0
263.76865,263.9556,69,72,0
263.9556,264.14212,68,71,0
264.14212,264.32812,66,69,0
264.32812,264.51376,64,68,0
264.51376,264.6937,63,67,0
264.6937,264.8782,61,66,0
262.11945,264.8782,56,62,0
264.8782,265.06235,60,64,0
265.06235,265.24597,60,63,0
265.24597,265.42923,60,62,0
265.42923,265.612,61,60,0
265.612,265.79477,63,62,0
265.79477,265.97754,64,62,0
265.97754,266.1603,66,65,0
266.1603,266.34308,63,67,0
266.34308,266.53372,66,68,0
266.53372,266.72345,64,68,0
266.72345,266.90857,69,68,0
266.90857,267.09338,68,67,0
267.09338,267.2779,66,67,0
267.2779,267.46182,64,67,0
267.46182,267.64548,63,67,0
267.64548,267.82883,61,67,0
264.8782,267.82883,56,64,0
267.82883,267.92023,56,71,0
267.82883,267.92023,60,71,0
268.0117,268.1035,56,62,0
268.0117,268.1035,61,62,0
268.19553,268.2879,60,68,0
268.19553,268.2879,56,68,0
268.38055,268.4735,56,62,0
268.38055,268.4735,61,62,0
268.56677,268.66025,56,71,0
268.56677,268.66025,60,71,0
268.754,268.84808,61,62,0
268.754,268.84808,56,62,0
268.94247,269.03717,56,67,0
268.94247,269.03717,60,67,0
269.13217,269.22748,56,61,0
269.13217,269.22748,61,61,0
269.32312,269.56915,56,71,0
269.32312,269.56915,60,71,0
269.8152,271.29144,44,90,0
269.8152,271.29144,32,77,0
271.29144,271.4114,49,39,0
271.39426,271.5142,56,29,0
271.49707,271.617,52,34,0
271.59985,271.71857,56,29,0
271.70267,271.79324,49,39,0
271.794,271.88376,56,29,0
271.88452,271.9743,52,34,0
271.97504,272.06482,56,30,0
272.06555,272.15533,49,39,0
272.1561,272.24585,56,30,0
272.2466,272.34338,52,34,0
272.34418,272.44095,56,30,0
272.44177,272.5437,49,39,0
272.54456,272.6465,56,30,0
272.64737,272.74933,52,34,0
272.75018,272.8915,56,30,0
272.8927,273.00616,51,39,0
272.98993,273.1034,56,30,0
273.0872,273.20065,54,34,0
273.18445,273.29678,56,30,0
273.2817,273.37146,51,48,0
273.37222,273.46198,56,43,0
273.46274,273.5525,54,47,0
273.55325,273.643,56,49,0
273.64377,273.73355,51,58,0
273.73428,273.82407,56,46,0
273.8248,273.92358,54,54,0
273.9244,274.0232,56,47,0
274.02402,274.1267,51,66,0
274.12756,274.23026,56,46,0
274.23114,274.3338,54,51,0
274.3347,274.43735,56,40,0
274.43823,274.53433,52,39,0
274.53513,274.63126,56,32,0
274.63205,274.72818,52,35,0
274.72897,274.82507,56,31,0
274.8259,274.9151,52,50,0
274.91586,275.00507,56,41,0
275.00583,275.09503,52,47,0
275.09576,275.185,56,42,0
275.18573,275.27493,52,58,0
275.2757,275.3649,56,48,0
275.36566,275.46112,52,56,0
275.46194,275.5574,56,51,0
275.55823,275.66016,52,66,0
275.661,275.76297,56,49,0
275.76382,275.86575,52,51,0
275.8666,275.96857,56,47,0
275.96942,276.06552,48,39,0
276.06635,276.16245,56,31,0
276.16327,276.25937,48,34,0
276.2602,276.3563,56,32,0
276.3571,276.44687,48,50,0
276.4476,276.53738,56,43,0
276.53815,276.6279,48,49,0
276.62866,276.7184,56,44,0
276.71918,276.80893,48,58,0
276.8097,276.89944,56,51,0
276.9002,277.00217,48,59,0
277.00302,277.10495,56,54,0
277.1058,277.20776,48,66,0
277.20862,277.31058,56,48,0
277.31143,277.41336,48,51,0
277.4142,277.51617,56,39,0
277.51703,277.62503,49,39,0
277.6096,277.71756,56,32,0
277.70215,277.79395,52,35,0
277.7947,277.8865,56,31,0
277.88727,277.97906,49,40,0
277.97983,278.07162,56,31,0
278.0724,278.16415,52,34,0
278.16495,278.2567,56,31,0
278.2575,278.34927,49,41,0
278.35007,278.44183,56,31,0
278.44263,278.53183,52,35,0
278.53256,278.6218,56,31,0
278.62253,278.72748,49,43,0
278.7125,278.81744,56,34,0
278.80246,278.9074,52,37,0
278.89243,278.99738,56,33,0
278.9824,279.08734,51,46,0
279.07233,279.17783,56,33,0
279.1623,279.25467,54,39,0
279.25546,279.34784,56,33,0
279.34863,279.441,51,47,0
279.44177,279.53418,56,35,0
279.53494,279.62732,54,40,0
279.6281,279.7205,56,34,0
279.72128,279.81366,51,49,0
279.81442,279.90683,56,35,0
279.9076,279.9968,54,41,0
279.99756,280.08676,56,35,0
280.08752,280.19247,51,50,0
280.1775,280.28244,56,40,0
280.26743,280.37238,54,45,0
280.3574,280.46234,56,42,0
280.44736,280.5523,52,51,0
280.53732,280.6428,56,43,0
280.6273,280.71967,52,47,0
280.72043,280.81284,56,43,0
280.8136,280.90598,52,52,0
280.90677,280.99915,56,43,0
280.99994,281.09232,52,48,0
281.09308,281.1855,56,44,0
281.18625,281.27863,52,56,0
281.27942,281.3718,56,46,0
281.37256,281.46262,52,50,0
281.46338,281.55344,56,47,0
281.55417,281.66013,52,57,0
281.645,281.75092,56,49,0
281.73578,281.84174,52,51,0
281.8266,281.93253,56,48,0
281.9174,282.02335,48,59,0
282.0082,282.11438,56,53,0
282.099,282.1905,48,56,0
282.19128,282.28278,56,52,0
282.28354,282.37503,48,60,0
282.3758,282.4673,56,52,0
282.46805,282.55954,48,57,0
282.56033,282.65182,56,52,0
282.6526,282.74408,48,62,0
282.74484,282.83633,56,52,0
282.8371,282.9286,48,59,0
282.92938,283.02087,56,53,0
283.02164,283.12927,48,62,0
283.1139,283.22153,56,53,0
283.20615,283.31378,48,60,0
283.29843,283.40567,56,54,0
283.3907,283.49564,47,66,0
283.48065,283.5856,56,56,0
283.5706,283.67557,49,61,0
283.66055,283.7655,56,56,0
283.75052,283.85547,47,66,0
283.84048,283.94543,56,56,0
283.93045,284.0354,49,61,0
284.02042,284.12537,56,56,0
284.11035,284.21533,45,66,0
284.20032,284.30527,54,56,0
284.29028,284.39523,49,62,0
284.38025,284.4852,54,57,0
284.4702,284.57516,45,66,0
284.56018,284.66513,54,56,0
284.65012,284.7551,49,61,0
284.74008,284.8456,54,56,0
284.83005,284.92273,45,66,0
284.92352,285.0162,54,56,0
285.01697,285.10965,47,61,0
285.11044,285.20312,54,56,0
285.20392,285.30887,44,66,0
285.29385,285.3988,52,56,0
285.38382,285.48877,47,62,0
285.4738,285.57874,52,56,0
285.56375,285.6687,44,66,0
285.65372,285.75867,52,56,0
285.74365,285.84863,47,61,0
285.83362,285.93857,52,56,0
285.92358,286.02853,44,66,0
286.01355,286.1185,52,54,0
286.10352,286.20847,47,60,0
286.19348,286.2987,52,56,0
286.28342,286.39038,43,66,0
286.3751,286.48206,52,58,0
286.4668,286.57373,45,62,0
286.55847,286.6654,52,58,0
286.65015,286.75708,43,66,0
286.74182,286.84875,52,57,0
286.8335,286.94043,45,62,0
286.92517,287.032,52,58,0
287.01685,287.1231,42,66,0
287.10794,287.2142,50,54,0
287.19904,287.3053,45,62,0
287.29013,287.3964,50,56,0
287.38123,287.4875,42,66,0
287.47232,287.5786,50,54,0
287.56342,287.6697,45,62,0
287.6545,287.76105,50,54,0
287.7456,287.8374,42,66,0
287.83817,287.92996,51,56,0
287.93073,288.02252,44,60,0
288.0233,288.11508,51,60,0
288.11584,288.2208,40,66,0
288.2058,288.31076,49,56,0
288.29578,288.40073,44,61,0
288.3857,288.4907,49,57,0
288.47568,288.58063,40,66,0
288.56564,288.6706,49,56,0
288.6556,288.76056,44,61,0
288.74557,288.85052,49,56,0
288.83554,288.9405,40,66,0
288.92548,289.03046,49,56,0
289.01544,289.1204,44,61,0
289.1054,289.21036,49,61,0
289.19537,290.2749,50,75,0
289.19537,290.2749,45,64,0
289.19537,290.2749,54,75,0
289.19537,290.2749,42,64,0
290.63474,290.99158,62,50,0
290.63474,290.99457,57,42,0
290.63474,290.99457,54,42,0
291.35443,291.71426,54,41,0
291.35443,291.71426,62,49,0
291.35443,291.71426,57,41,0
292.0741,292.43396,62,49,0
292.0741,292.43396,57,41,0
292.0741,292.43396,54,41,0
292.43396,292.7938,54,44,0
292.43396,292.7938,57,44,0
292.43396,292.7938,62,52,0
292.7938,293.15363,57,51,0
292.7938,293.15363,62,60,0
292.7938,293.15363,54,51,0
293.15363,293.51346,57,47,0
293.15363,293.51346,62,56,0
293.15363,293.51346,54,47,0
293.51346,293.61844,56,49,0
293.60342,293.70837,64,44,0
293.6934,293.79834,61,47,0
293.78336,293.8883,64,43,0
293.87332,293.97827,56,51,0
293.9633,294.06824,64,43,0
294.05322,294.1582,61,47,0
294.1432,294.24835,64,42,0
294.23315,294.3235,56,51,0
294.32425,294.41458,66,43,0
294.41534,294.50568,60,47,0
294.50644,294.59677,66,43,0
294.59753,294.6879,56,51,0
294.68863,294.779,66,44,0
294.77972,294.8701,60,47,0
294.87085,294.96118,66,42,0
294.96194,295.17838,57,56,0
294.96194,295.17838,61,56,0
294.96194,295.17838,64,56,0
295.39484,296.1145,42,80,0
295.39484,296.1145,30,67,0
295.39484,296.1145,33,67,0
295.39484,296.1145,38,80,0
296.8342,297.19403,42,41,0
296.8342,297.19403,45,41,0
296.8342,297.19403,50,49,0
297.5539,297.91373,45,41,0
297.5539,297.91373,42,41,0
297.5539,297.91373,50,49,0
298.09366,298.27356,42,43,0
298.09366,298.27356,45,43,0
298.09366,298.27356,50,51,0
298.4535,298.63342,42,51,0
298.4535,298.63342,45,51,0
298.4535,298.63342,50,61,0
298.81332,298.99326,42,57,0
298.81332,298.99326,50,68,0
298.81332,298.99326,45,57,0
299.1732,299.3531,45,57,0
299.1732,299.3531,50,68,0
299.1732,299.3531,42,57,0
299.3531,299.4423,42,66,0
299.44305,299.53226,50,56,0
299.53302,299.62222,45,62,0
299.623,299.7122,50,56,0
299.71292,299.80215,42,66,0
299.8029,299.89212,50,56,0
299.89285,299.98206,45,61,0
299.98282,300.07202,50,54,0
300.07278,300.162,43,66,0
300.16275,300.25195,52,56,0
300.2527,300.34192,46,62,0
300.34265,300.4319,52,56,0
300.43262,300.52182,43,66,0
300.52258,300.6118,52,54,0
300.61255,300.70175,46,60,0
300.7025,300.79172,52,54,0
300.79245,300.88168,44,66,0
300.88242,300.97162,52,58,0
300.97238,301.06158,49,62,0
301.06235,301.15155,52,56,0
301.1523,301.24152,44,66,0
301.24228,301.33148,52,56,0
301.3322,301.42145,49,62,0
301.42218,301.51138,52,57,0
301.51215,301.60248,32,66,0
301.60324,301.69357,44,57,0
301.69434,301.78467,43,62,0
301.78543,301.87576,44,57,0
301.87653,301.96686,43,66,0
301.96762,302.05795,44,57,0
302.05872,302.14908,43,62,0
302.1498,302.24017,44,58,0
302.2409,302.42084,61,59,0
302.2409,302.42084,37,59,0
302.2409,302.42084,49,59,0
302.2409,302.42084,52,59,0
302.42084,302.5108,49,40,0
302.60077,302.69186,49,40,0
302.78296,302.87405,49,40,0
302.96515,303.05624,49,40,0
303.14734,303.23843,49,40,0
303.32953,303.42062,51,39,0
303.51172,303.6028,52,39,0
303.6939,303.87613,54,45,0
303.6939,303.87613,44,45,0
303.87613,303.96722,54,39,0
303.87613,303.96722,56,39,0
304.05832,304.1483,54,39,0
304.05832,304.1483,56,39,0
304.23822,304.3282,54,39,0
304.23822,304.3282,56,39,0
304.41815,304.50812,56,39,0
304.41815,304.50812,54,39,0
304.59808,304.68802,56,39,0
304.59808,304.68802,54,39,0
304.77798,304.86795,52,39,0
304.77798,304.86795,56,39,0
304.95792,305.04788,56,42,0
304.95792,305.04788,51,42,0
305.13785,305.31775,37,45,0
305.13785,305.31775,49,45,0
305.31775,305.4077,49,39,0
305.49768,305.58878,49,39,0
305.67987,305.77097,49,39,0
305.86206,305.95316,49,39,0
306.04425,306.13535,49,40,0
306.22644,306.31754,51,39,0
306.40863,306.49976,52,39,0
306.59085,306.77304,44,47,0
306.59085,306.77304,54,47,0
306.77304,306.86414,54,39,0
306.77304,306.86414,56,39,0
306.95523,307.0452,56,39,0
306.95523,307.0452,54,39,0
307.13513,307.2251,56,39,0
307.13513,307.2251,54,39,0
307.31506,307.40503,56,39,0
307.31506,307.40503,54,39,0
307.495,307.58496,56,39,0
307.495,307.58496,54,39,0
307.6749,307.76486,56,41,0
307.6749,307.76486,52,41,0
307.85483,307.9448,56,43,0
307.85483,307.9448,51,43,0
308.03476,308.12643,37,42,0
308.03476,308.12643,49,47,0
308.2181,308.30807,52,40,0
308.2181,308.30807,49,40,0
308.398,308.57794,49,40,0
308.398,308.57794,52,40,0
308.57794,308.75787,52,39,0
308.57794,308.75787,56,39,0
308.75787,308.84955,42,48,0
308.94122,309.0312,54,40,0
308.94122,309.0312,49,40,0
309.12112,309.30106,49,40,0
309.12112,309.30106,54,40,0
309.30106,309.481,54,39,0
309.30106,309.481,57,39,0
309.481,309.57324,44,48,0
309.6655,309.75546,49,39,0
309.6655,309.75546,52,39,0
309.84543,310.02536,52,39,0
309.84543,310.02536,49,39,0
310.02536,310.20526,56,39,0
310.02536,310.20526,52,39,0
310.20526,310.29965,44,48,0
310.39404,310.48398,48,39,0
310.39404,310.48398,51,39,0
310.57394,310.75388,51,39,0
310.57394,310.75388,48,39,0
310.75388,310.9338,51,38,0
310.75388,310.9338,56,38,0
310.9338,311.11716,37,49,0
310.9338,311.11716,49,49,0
311.11716,311.2071,56,39,0
311.11716,311.2071,49,39,0
311.29706,311.38702,49,42,0
311.29706,311.38702,56,42,0
311.477,311.56696,49,41,0
311.477,311.56696,56,41,0
311.65692,311.74686,56,39,0
311.65692,311.74686,49,39,0
311.83682,311.9268,56,39,0
311.83682,311.9268,49,39,0
312.01675,312.10672,51,41,0
312.01675,312.10672,56,41,0
312.1967,312.28662,52,44,0
312.1967,312.28662,56,44,0
312.3766,312.55853,54,47,0
312.3766,312.55853,56,47,0
312.3766,312.55853,44,47,0
312.55853,312.64868,56,58,0
312.55853,312.64868,66,58,0
312.739,312.82962,56,68,0
312.739,312.82962,66,68,0
312.9204,313.0115,66,62,0
312.9204,313.0115,56,62,0
313.1028,313.1944,66,68,0
313.1028,313.1944,56,68,0
313.28616,313.3781,56,62,0
313.28616,313.3781,66,62,0
313.4704,313.56296,64,68,0
313.4704,313.56296,56,68,0
313.6557,313.74866,56,62,0
313.6557,313.74866,63,62,0
313.84192,314.02866,49,68,0
313.84192,314.02866,37,68,0
314.02866,314.11917,49,39,0
314.02866,314.11917,56,39,0
314.20972,314.30023,49,39,0
314.20972,314.30023,56,39,0
314.39075,314.48126,49,39,0
314.39075,314.48126,56,39,0
314.57178,314.6623,56,39,0
314.57178,314.6623,49,39,0
314.7528,314.84335,56,39,0
314.7528,314.84335,49,39,0
314.93387,315.02438,56,39,0
314.93387,315.02438,51,39,0
315.1149,315.2054,52,41,0
315.1149,315.2054,56,41,0
315.29593,315.47958,54,45,0
315.29593,315.47958,56,45,0
315.29593,315.47958,44,45,0
315.47958,315.56955,56,57,0
315.47958,315.56955,66,57,0
315.65952,315.74966,66,68,0
315.65952,315.74966,56,68,0
315.8399,315.93024,56,60,0
315.8399,315.93024,66,60,0
316.02075,316.11127,66,68,0
316.02075,316.11127,56,68,0
316.20206,316.29288,56,60,0
316.20206,316.29288,66,60,0
316.38397,316.47507,56,68,0
316.38397,316.47507,64,68,0
316.56635,316.65775,63,59,0
316.56635,316.65775,56,59,0
316.74924,316.9326,49,69,0
316.74924,316.9326,61,69,0
316.9326,317.0231,64,42,0
316.9326,317.0231,61,42,0
317.11362,317.29465,61,43,0
317.11362,317.29465,64,43,0
317.29465,317.4757,64,39,0
317.29465,317.4757,68,39,0
317.4757,317.56766,54,48,0
317.65964,317.74988,61,40,0
317.65964,317.74988,66,40,0
317.84012,318.0206,61,42,0
317.84012,318.0206,66,42,0
318.0206,318.20108,69,39,0
318.0206,318.20108,66,39,0
318.20108,318.29306,56,47,0
318.385,318.47525,64,42,0
318.385,318.47525,61,42,0
318.5655,318.74597,61,42,0
318.5655,318.74597,64,42,0
318.74597,318.92648,64,39,0
318.74597,318.92648,68,39,0
318.92648,319.01874,54,47,0
319.111,319.20123,60,42,0
319.111,319.20123,63,42,0
319.29147,319.47195,60,42,0
319.29147,319.47195,63,42,0
319.47195,319.65244,68,40,0
319.47195,319.65244,63,40,0
319.65244,319.83292,52,47,0
319.83292,319.92316,56,42,0
319.83292,319.92316,61,42,0
320.01343,320.19467,56,42,0
320.01343,320.19467,61,42,0
320.19467,320.3802,61,39,0
320.19467,320.3802,64,39,0
320.3802,320.5678,42,47,0
320.5678,320.6625,54,43,0
320.5678,320.6625,57,43,0
320.75748,320.95007,57,43,0
320.75748,320.95007,54,43,0
320.95007,321.14703,57,41,0
320.95007,321.14703,62,41,0
321.14703,321.34677,44,45,0
321.34677,321.44913,52,39,0
321.34677,321.44913,56,39,0
321.55295,321.76154,56,40,0
321.55295,321.76154,52,40,0
321.76154,321.97015,61,42,0
321.76154,321.97015,56,42,0
321.97015,322.18097,44,48,0
322.18097,322.28885,54,39,0
322.18097,322.28885,51,39,0
322.39847,322.62747,51,39,0
322.39847,322.62747,54,39,0
322.62747,322.86343,60,39,0
322.62747,322.86343,54,39,0
322.86343,322.96188,37,49,0
322.9627,323.06113,49,31,0
323.06195,323.1604,44,36,0
323.16122,323.25964,49,32,0
323.26047,323.35892,37,41,0
323.35974,323.45816,49,32,0
323.45898,323.55743,44,36,0
323.55826,323.65668,49,32,0
323.6575,323.75595,37,41,0
323.75677,323.8552,49,32,0
323.85602,323.95447,44,37,0
323.9553,324.0537,49,37,0
324.05453,324.15506,37,41,0
324.1559,324.2564,49,32,0
324.25726,324.35776,44,37,0
324.3586,324.45914,49,33,0
324.45996,324.5605,37,41,0
324.56134,324.66183,51,33,0
324.6627,324.7632,44,38,0
324.76404,324.86456,51,33,0
324.86542,324.97153,37,41,0
324.9724,325.07855,51,32,0
325.07944,325.18555,44,37,0
325.18643,325.29257,51,32,0
325.29346,325.39957,37,41,0
325.40048,325.5066,51,33,0
325.50748,325.61362,44,38,0
325.6145,325.7206,51,33,0
325.7215,325.82764,37,41,0
325.82852,325.93463,51,32,0
325.93555,326.04166,44,36,0
326.04254,326.1853,51,33,0
326.1865,326.2849,37,41,0
326.28574,326.3842,49,33,0
326.385,326.48343,44,37,0
326.48425,326.5827,49,33,0
326.58353,326.68195,37,41,0
326.68277,326.78122,49,34,0
326.78204,326.88046,44,38,0
326.88132,326.97974,49,34,0
326.98056,327.07898,37,41,0
327.07983,327.17825,49,34,0
327.17908,327.2775,44,38,0
327.27835,327.37677,49,33,0
327.3776,327.47775,37,41,0
327.4786,327.57877,49,33,0
327.5796,327.67975,44,36,0
327.6806,327.78076,49,32,0
327.78162,327.88177,37,41,0
327.8826,327.9828,51,33,0
327.9836,328.08377,44,36,0
328.08463,328.18478,51,33,0
328.1856,328.28906,37,41,0
328.28992,328.39337,51,33,0
328.39423,328.49765,44,36,0
328.49854,328.60196,51,33,0
328.60284,328.70627,37,41,0
328.70715,328.81058,51,32,0
328.81146,328.9149,44,36,0
328.91574,329.0192,51,33,0
329.02005,329.1235,37,41,0
329.12436,329.22778,51,35,0
329.22867,329.33002,44,39,0
329.33084,329.4655,51,34,0
329.46664,329.56372,37,41,0
329.56454,329.66165,49,33,0
329.66245,329.75955,44,36,0
329.76038,329.85745,49,33,0
329.85828,329.95538,37,42,0
329.95618,330.05328,49,31,0
330.0541,330.15118,44,35,0
330.152,330.2653,49,32,0
330.26624,330.36334,37,41,0
330.36417,330.46124,51,33,0
330.46207,330.55917,44,37,0
330.55997,330.65707,51,33,0
330.6579,330.75497,37,41,0
330.7558,330.8529,51,33,0
330.8537,330.9508,44,38,0
330.95163,331.07907,51,34,0
331.08014,331.17725,37,41,0
331.17804,331.27515,49,33,0
331.27597,331.37305,44,36,0
331.37387,331.47098,49,32,0
331.47177,331.56888,37,41,0
331.5697,331.66678,49,33,0
331.6676,331.7647,44,36,0
331.7655,331.8626,49,33,0
331.86343,331.9605,37,41,0
331.96133,332.05844,51,33,0
332.05923,332.15634,44,37,0
332.15717,332.25424,51,33,0
332.25507,332.35217,37,41,0
332.353,332.45007,51,33,0
332.4509,332.548,44,37,0
332.5488,332.6459,51,34,0
332.64673,332.74814,37,41,0
332.749,332.84967,49,39,0
332.8505,332.95032,44,43,0
332.95117,333.05096,49,42,0
333.05182,333.1516,37,45,0
333.15247,333.25226,49,43,0
333.2531,333.35294,44,47,0
333.35376,333.45294,49,43,0
333.45377,333.55157,37,48,0
333.5524,333.65015,49,45,0
333.65097,333.74875,44,50,0
333.74957,333.84732,49,45,0
333.84814,333.94592,37,51,0
333.94675,334.04407,49,47,0
334.0449,334.14133,44,52,0
334.14215,334.2386,49,49,0
334.23938,334.33582,35,55,0
334.33664,334.43307,47,50,0
334.4339,334.52914,37,56,0
334.52994,334.62323,47,51,0
334.624,334.7173,35,57,0
334.71808,334.81137,47,52,0
334.81216,334.90546,37,58,0
334.90622,334.9995,47,53,0
335.0003,335.09204,35,61,0
335.0928,335.18317,47,57,0
335.18393,335.2743,37,62,0
335.27502,335.36493,47,57,0
335.36566,335.45544,35,62,0
335.45618,335.54596,47,58,0
335.54672,335.63647,37,64,0
335.63724,335.71417,47,60,0
335.72775,335.81772,45,67,0
335.72775,335.81772,33,56,0
335.90768,335.99762,42,39,0
336.0876,336.17755,33,39,0
336.26752,336.35748,42,36,0
336.44745,336.53738,33,39,0
336.62735,336.71732,42,35,0
336.80728,336.89725,33,39,0
336.98718,337.07715,42,35,0
337.1671,337.25708,33,39,0
337.34705,337.437,42,40,0
337.52695,337.6169,33,40,0
337.70688,337.79684,42,40,0
337.8868,337.97678,33,40,0
338.0667,338.15668,42,36,0
338.24664,338.3404,33,69,0
338.24664,338.3404,45,81,0
338.43417,338.52792,42,69,0
338.6217,338.71243,32,52,0
338.80295,338.89346,40,47,0
338.98398,339.0745,32,52,0
339.16504,339.25555,40,48,0
339.34607,339.43658,32,52,0
339.5271,339.6176,40,48,0
339.70813,339.79868,32,52,0
339.8892,339.9797,40,52,0
340.07022,340.16074,32,52,0
340.25125,340.34177,40,52,0
340.4323,340.52283,32,52,0
340.61334,340.70386,40,48,0
340.79437,340.8849,32,52,0
340.9754,341.06595,40,48,0
341.15646,341.25607,44,86,0
341.15646,341.25607,32,72,0
341.35568,341.4996,40,77,0
341.64355,342.3522,31,39,0
342.58844,343.2971,43,53,0
342.4703,343.2971,37,50,0
342.3522,343.2971,31,45,0
342.41125,343.2971,34,47,0
342.5294,343.2971,40,51,0
343.53333,343.7743,55,63,0
343.4152,344.01523,49,58,0
343.2971,344.01523,43,51,0
343.35614,344.01523,46,56,0
343.47427,344.01523,52,61,0
344.01523,345.95486,58,67,0
344.01523,345.95486,64,79,0
344.01523,345.95486,61,79,0
344.01523,345.95486,55,67,0
345.95486,346.6635,30,47,0
346.89975,347.6084,42,52,0
346.78165,347.6084,36,47,0
346.6635,347.6084,30,41,0
346.7226,347.6084,33,43,0
346.8407,347.6084,39,49,0
347.84464,348.0856,54,62,0
347.72653,348.32657,48,58,0
347.6084,348.32657,42,54,0
347.66745,348.32657,45,56,0
347.78558,348.32657,51,61,0
348.32657,350.25797,60,79,0
348.32657,350.25797,63,79,0
348.32657,350.25797,57,67,0
348.32657,350.25797,54,67,0
350.25797,350.4658,49,41,0
350.67365,351.4213,56,56,0
351.4213,351.71603,52,48,0
351.71603,351.8102,49,48,0
351.8143,352.2073,49,54,0
352.2073,352.75043,48,47,0
352.75043,352.93146,48,47,0
352.93146,353.2262,56,56,0
353.2262,353.32446,48,47,0
353.32446,353.7285,51,43,0
353.7285,354.27158,49,47,0
354.27158,354.4787,49,48,0
354.4787,354.78934,56,53,0
354.78934,354.89288,49,47,0
354.89288,355.2969,52,43,0
355.2969,355.84,51,47,0
355.84,356.04712,51,48,0
356.04712,356.35776,56,53,0
356.35776,356.4613,51,47,0
356.4613,356.5821,52,40,0
356.56485,356.68564,56,35,0
356.6684,356.7892,52,40,0
356.77194,356.89047,56,34,0
356.8755,356.9647,52,47,0
356.96545,357.05466,56,34,0
357.05542,357.14462,52,40,0
357.1454,357.2346,56,34,0
357.23532,357.32455,52,47,0
357.3253,357.4145,56,34,0
357.41525,357.50446,52,39,0
357.50522,357.59442,56,34,0
357.59518,357.6894,52,47,0
357.6902,357.7844,56,35,0
357.7852,357.8794,52,40,0
357.8802,357.97443,56,34,0
357.97522,358.06943,54,47,0
358.07022,358.16443,56,33,0
358.16522,358.25943,54,39,0
358.26022,358.35446,56,34,0
358.35526,358.44473,54,55,0
358.4455,358.53497,56,45,0
358.53574,358.6252,54,57,0
358.62598,358.71545,56,53,0
358.71622,358.8057,54,67,0
358.80646,358.89594,56,52,0
358.8967,358.99347,54,62,0
358.99426,359.09103,56,56,0
359.09186,359.19308,54,71,0
359.19394,359.29517,56,56,0
359.29602,359.39725,54,58,0
359.3981,359.49933,56,49,0
359.50018,359.59628,52,47,0
359.5971,359.6932,56,34,0
359.69403,359.79013,52,40,0
359.79092,359.88705,56,34,0
359.88785,359.97736,52,56,0
359.9781,360.0676,56,47,0
360.06833,360.15784,52,57,0
360.15857,360.24808,56,50,0
360.2488,360.33832,52,68,0
360.33908,360.42856,56,52,0
360.42932,360.52512,52,64,0
360.5259,360.6217,56,57,0
360.6225,360.7241,52,75,0
360.72495,360.82654,56,56,0
360.8274,360.929,52,61,0
360.92984,361.03143,56,49,0
361.0323,361.12808,48,47,0
361.12888,361.22467,56,37,0
361.2255,361.3213,48,41,0
361.32208,361.41788,56,35,0
361.4187,361.5079,48,59,0
361.50864,361.59787,56,47,0
361.5986,361.6878,48,56,0
361.68857,361.77777,56,49,0
361.77853,361.86774,48,69,0
361.8685,361.9585,56,52,0
361.95935,362.06204,48,62,0
362.0629,362.1656,56,56,0
362.16644,362.26913,48,77,0
362.27,362.37268,56,54,0
362.37354,362.47623,48,58,0
362.47708,362.57977,56,47,0
362.58066,362.6865,49,47,0
362.6715,362.77646,56,43,0
362.76147,362.86642,49,47,0
362.85144,362.95688,56,43,0
362.9418,363.0474,49,49,0
363.03232,363.13794,56,46,0
363.12283,363.22845,49,51,0
363.21335,363.31924,56,48,0
363.30408,363.41147,47,53,0
363.396,363.50433,49,51,0
363.48886,363.5972,47,56,0
363.58173,363.69006,49,51,0
363.67456,363.7829,47,57,0
363.76743,363.87576,49,53,0
363.8603,363.96863,47,59,0
363.95316,364.0615,49,53,0
364.04602,364.15436,45,62,0
364.1389,364.24722,49,56,0
364.23175,364.3401,45,62,0
364.32462,364.43295,49,58,0
364.41748,364.52618,45,66,0
364.5105,364.62128,49,61,0
364.6054,364.71658,45,68,0
364.7007,364.81262,49,62,0
364.79654,364.90924,41,69,0
364.89313,365.00665,49,66,0
364.99036,365.10526,41,72,0
365.0887,365.20328,49,68,0
365.1883,365.304,41,73,0
365.2867,365.40897,49,68,0
365.39133,365.51526,41,76,0
365.49747,365.62106,49,70,0
365.60605,368.49176,37,67,0
365.60605,368.49176,42,79,0
365.60605,368.49176,30,67,0
368.49176,371.3793,30,53,0
368.49176,371.3793,42,63,0
368.49176,371.3793,38,53,0
371.3793,374.27557,43,63,0
371.3793,374.27557,31,53,0
371.3793,374.27557,37,53,0
374.27557,377.15845,32,52,0
374.27557,377.15845,44,62,0
374.27557,377.15845,37,52,0
380.04355,381.9251,56,62,0
380.04355,381.9251,66,62,0
380.04355,381.9251,60,62,0
389.57974,391.88278,43,39,0
389.57974,391.88278,31,33,0
391.88278,394.18582,44,34,0
391.88278,394.18582,32,28,0
394.18582,394.28094,49,37,0
394.18582,394.2851,37,37,0
394.2851,394.38434,49,31,0
394.38434,394.4836,44,35,0
394.4836,394.58286,49,31,0
394.58286,394.68213,37,37,0
394.68213,394.78055,49,31,0
394.78137,394.87982,44,35,0
394.88065,394.97906,49,30,0
394.9799,395.07834,37,37,0
395.07916,395.17758,49,32,0
395.1784,395.27686,44,35,0
395.27768,395.3761,49,32,0
395.37692,395.47537,37,37,0
395.4762,395.57462,49,32,0
395.57544,395.6739,44,35,0
395.6747,395.77313,49,30,0
395.77396,395.8724,37,37,0
395.87323,395.97165,51,31,0
395.97247,396.07092,44,35,0
396.07175,396.17017,51,31,0
396.171,396.27258,37,37,0
396.27344,396.37503,51,30,0
396.3759,396.47748,44,35,0
396.47833,396.57993,51,31,0
396.58078,396.68237,37,37,0
396.68323,396.78482,51,32,0
396.78568,396.88727,44,35,0
396.88812,396.98972,51,35,0
396.99057,397.09216,37,37,0
397.09302,397.19458,51,30,0
397.19543,397.29703,44,35,0
397.29788,397.44135,51,31,0
397.44254,397.53964,37,37,0
397.54047,397.63754,49,30,0
397.63837,397.73547,44,35,0
397.73627,397.83337,49,31,0
397.8342,397.93127,37,37,0
397.9321,398.0292,49,32,0
398.03,398.1271,44,35,0
398.12793,398.225,49,30,0
398.22583,398.32294,37,37,0
398.32373,398.42084,49,31,0
398.42166,398.51874,44,35,0
398.51956,398.61667,49,31,0
398.61746,398.7159,37,37,0
398.71674,398.81516,49,31,0
398.81598,398.91443,44,35,0
398.91525,399.01367,49,30,0
399.0145,399.11295,37,37,0
399.11377,399.2122,51,31,0
399.21304,399.31146,44,35,0
399.3123,399.4107,51,31,0
399.41156,399.51172,37,37,0
399.51254,399.6127,51,33,0
399.61356,399.7137,44,35,0
399.71457,399.81473,51,30,0
399.81555,399.9157,37,37,0
399.91656,400.01672,51,31,0
400.01758,400.11774,44,35,0
400.11856,400.21872,51,31,0
400.21957,400.31973,37,37,0
400.3206,400.42075,51,32,0
400.42157,400.52173,44,35,0
400.52258,400.6646,51,32,0
400.6658,400.76425,37,37,0
400.76508,400.8635,49,33,0
400.86432,400.96277,44,38,0
400.9636,401.062,49,34,0
401.06284,401.1613,37,39,0
401.1621,401.26053,49,34,0
401.26135,401.3598,44,40,0
401.36063,401.4934,49,35,0
401.4945,401.5923,37,41,0
401.5931,401.69086,51,39,0
401.69168,401.78946,44,43,0
401.79028,401.88803,51,39,0
401.88885,401.98663,37,45,0
401.98746,402.0852,51,40,0
402.08603,402.1838,44,47,0
402.18463,402.31436,51,41,0
402.31546,402.41257,37,47,0
402.4134,402.51047,49,42,0
402.5113,402.60837,44,50,0
402.6092,402.7063,49,44,0
402.70712,402.8042,37,51,0
402.80502,402.90213,49,47,0
402.90292,403.00003,44,51,0
403.00085,403.13058,49,46,0
403.13168,403.22812,37,52,0
403.22894,403.32538,51,50,0
403.3262,403.42264,44,54,0
403.42343,403.51987,51,50,0
403.5207,403.61713,37,56,0
403.61795,403.7144,51,51,0
403.71518,403.81165,44,57,0
403.81244,403.93057,51,51,0
403.93137,404.04327,37,57,0
403.93137,404.04327,44,68,0
403.93137,404.04327,49,68,0
404.0273,404.13873,52,57,0
404.12286,404.2339,56,60,0
404.21808,404.32858,61,56,0
404.31287,404.4229,64,62,0
404.40726,404.51685,56,57,0
404.50122,404.61044,61,58,0
404.59488,404.7036,64,57,0
404.68814,404.79642,68,62,0
404.781,404.88882,61,58,0
404.87347,404.98096,64,58,0
404.96564,405.07263,68,57,0
405.0574,405.16397,73,63,0
405.14877,405.2549,64,60,0
405.23978,405.34558,68,62,0
405.3305,405.43582,73,60,0
405.42084,405.5258,76,68,0
405.51077,405.61575,73,64,0
405.60074,405.7057,68,63,0
405.6907,405.79565,64,61,0
405.78067,405.88562,73,67,0
405.87064,405.9756,68,64,0
405.9606,406.06555,64,62,0
406.05054,406.15552,61,62,0
406.1405,406.24545,68,67,0
406.23047,406.33542,64,64,0
406.32043,406.42538,61,62,0
406.4104,406.51535,56,62,0
406.50037,406.60532,64,67,0
406.5903,406.69525,61,64,0
406.68027,406.78522,56,62,0
406.77023,406.87518,52,62,0
406.8602,406.96533,61,63,0
406.95026,407.05615,56,62,0
407.04095,407.14767,52,62,0
407.13235,407.23984,49,60,0
407.2244,407.3328,56,64,0
407.31726,407.42642,52,63,0
407.41074,407.52078,49,62,0
407.505,407.61597,44,60,0
407.6,407.7118,52,66,0
407.69577,407.8084,49,66,0
407.79224,407.90582,44,63,0
407.8895,408.00397,40,61,0
407.98752,408.103,49,66,0
408.08646,408.20276,44,64,0
408.18604,408.3034,40,63,0
408.2866,408.40497,44,62,0
408.38794,408.79626,37,62,0
409.20462,409.51086,49,79,0
409.20462,409.51086,37,67,0
409.20462,409.51086,40,67,0
409.20462,409.51086,44,79,0
410.02127,410.357,49,79,0
410.02127,410.357,44,79,0
410.02127,410.357,37,67,0
410.02127,410.357,40,67,0
