start_time,end_time,note_value,velocity,instrument_program_number
0.7246725,0.7988235,67,48,1
0.8729745,0.9471255,72,49,1
1.0212765,1.1001823,74,51,1
1.179088,1.6169345,75,52,1
1.6169345,1.771845,77,50,1
1.771845,2.209419,74,53,1
2.209419,2.363534,75,50,1
2.363534,2.910144,72,52,1
2.910144,2.9467227,74,48,1
2.9467227,3.0916574,72,52,1
3.0916574,3.2365918,71,51,1
3.2365918,3.3815262,72,51,1
3.3815262,3.4902272,74,50,1
3.4902272,3.526461,77,49,1
3.526461,3.6713953,75,56,1
3.6713953,3.8163297,74,52,1
3.8163297,3.9612644,75,52,1
3.9612644,4.118662,77,52,1
4.118662,4.2743926,79,56,1
4.430124,4.585855,79,55,1
4.7415857,5.654379,79,57,1
5.654379,5.7993135,77,51,1
5.7993135,5.879587,79,53,1
5.879587,5.9166446,77,48,1
5.9166446,5.9537015,79,48,1
5.9537015,6.5391006,80,56,1
6.5391006,6.8277287,74,52,1
6.8277287,6.9720426,75,51,1
6.9720426,7.05158,77,53,1
7.05158,7.0886374,75,50,1
7.0886374,7.1256943,77,50,1
7.1256943,7.7110934,79,56,1
7.7110934,7.996801,72,52,1
8.000418,8.14508,72,53,1
8.14508,8.294155,74,54,1
8.294155,8.43909,75,57,1
8.585546,8.732001,75,53,1
8.732001,8.878457,77,46,1
8.878457,9.023119,74,57,1
9.169218,9.315317,74,51,1
9.315317,9.46525,75,54,1
9.46525,9.767209,72,57,1
10.364165,10.509191,77,56,1
10.509191,10.663579,79,58,1
10.663579,11.248978,80,61,1
10.663579,11.248978,68,51,1
11.248978,11.537605,74,57,1
11.537605,11.68192,75,56,1
11.68192,11.835571,77,58,1
11.835571,12.42097,79,61,1
11.835571,12.42097,67,51,1
12.42097,12.710295,72,57,1
12.710295,12.854957,72,58,1
12.854957,13.004032,74,59,1
13.004032,13.148967,75,62,1
13.295423,13.441878,75,58,1
13.441878,13.588334,77,60,1
13.588334,13.732996,74,62,1
13.879095,14.025194,74,56,1
14.025194,14.175127,75,59,1
14.175127,14.328439,72,62,1
14.477086,15.090896,82,74,1
15.090896,15.551253,82,73,1
15.551253,15.704706,80,71,1
15.704706,15.84964,79,72,1
15.84964,15.994575,77,72,1
15.994575,16.13951,75,71,1
16.13951,16.284443,74,71,1
16.284443,16.429379,72,71,1
16.429379,16.574312,71,71,1
16.574312,16.727625,72,73,1
16.876272,17.490082,84,79,1
16.876272,17.490082,72,67,1
17.490082,17.95044,82,80,1
17.95044,18.103891,80,81,1
18.103891,18.248827,79,82,1
18.248827,18.39376,77,81,1
18.39376,18.538694,75,79,1
18.538694,18.68363,74,79,1
18.68363,18.828564,72,79,1
18.828564,18.9735,71,78,1
18.9735,19.123686,72,89,1
19.273874,19.324713,74,81,1
19.324713,19.375551,75,81,1
19.375551,19.42639,74,81,1
19.42639,19.46452,75,81,1
19.46452,19.50265,74,81,1
19.50265,19.540777,72,80,1
19.540777,19.578907,74,80,1
19.578907,19.73261,75,92,1
19.886316,20.045847,83,92,1
19.886316,20.045847,74,92,1
19.886316,20.045847,71,92,1
20.20538,20.364912,84,92,1
20.20538,20.364912,75,92,1
20.20538,20.364912,72,92,1
21.481636,22.656208,64,86,1
21.481636,22.656208,60,73,1
21.481636,22.656208,55,73,1
22.656208,22.803766,65,50,1
22.803766,22.950954,72,51,1
22.950954,23.097776,68,53,1
23.097776,23.244232,77,54,1
23.244232,23.390331,72,55,1
23.390331,23.536068,80,56,1
23.536068,23.681452,77,57,1
23.681452,23.826416,84,59,1
23.826416,23.971079,82,59,1
23.971079,24.11574,79,59,1
24.11574,24.260403,76,58,1
24.260403,24.405066,72,57,1
24.405066,24.555252,70,56,1
24.555252,24.70544,71,55,1
24.70544,24.857956,72,55,1
24.857956,25.015768,67,54,1
25.015768,25.648712,70,60,1
25.648712,25.965183,68,56,1
26.281656,27.456228,62,86,1
26.281656,27.456228,58,73,1
26.281656,27.456228,53,73,1
27.456228,27.603786,63,50,1
27.603786,27.750975,70,51,1
27.750975,27.897797,67,53,1
27.897797,28.044252,75,54,1
28.044252,28.190351,70,55,1
28.190351,28.336088,79,56,1
28.336088,28.481472,75,57,1
28.481472,28.626436,82,59,1
28.626436,28.7711,80,59,1
28.7711,28.91576,79,59,1
28.91576,29.060423,77,58,1
29.060423,29.205084,75,57,1
29.205084,29.355272,74,56,1
29.355272,29.505459,72,55,1
29.505459,29.657976,70,55,1
29.657976,29.815788,68,54,1
29.815788,29.974024,67,60,1
30.13226,30.728474,70,60,1
30.728474,31.176004,70,56,1
31.176004,31.325243,72,54,1
31.325243,31.473421,74,55,1
31.473421,31.621164,75,57,1
31.621164,31.768475,77,58,1
31.768475,31.915665,79,60,1
31.915665,32.06285,80,61,1
32.06285,32.215767,77,58,1
32.215767,32.364067,80,61,1
32.364067,32.51237,79,60,1
32.51237,32.66067,77,59,1
32.66067,32.801567,75,58,1
32.814377,32.96494,75,60,1
32.96494,33.115505,74,58,1
33.115505,33.26607,72,58,1
33.26607,33.416634,74,58,1
33.416634,33.56569,77,63,1
33.56569,33.71474,75,57,1
33.71474,33.863796,74,57,1
33.863796,34.012848,72,57,1
34.012848,34.281143,70,60,1
34.012848,34.281143,68,60,1
34.310955,34.57925,70,60,1
34.310955,34.57925,68,60,1
34.609062,34.75712,68,60,1
34.75712,34.90517,67,53,1
34.90517,35.052914,65,53,1
35.052914,35.188023,63,53,1
35.200287,35.347355,63,57,1
35.347355,35.494053,62,52,1
35.494053,35.64045,60,52,1
35.64045,35.786488,62,52,1
35.786488,35.932224,63,55,1
34.609062,35.932224,70,60,1
35.932224,36.07796,72,56,1
36.07796,36.223698,74,58,1
36.223698,36.369434,75,59,1
36.369434,36.515175,77,61,1
36.515175,36.66091,78,63,1
36.66091,36.80665,80,64,1
36.80665,36.952324,77,62,1
36.952324,37.242435,78,65,1
37.242435,37.812054,82,72,1
37.81804,38.400375,82,74,1
38.400375,38.977825,87,91,1
38.977825,39.274624,81,78,1
39.274624,39.966717,82,60,1
39.966717,40.062458,81,49,1
40.062458,40.1582,82,51,1
40.1582,40.253937,84,53,1
40.253937,40.349678,82,50,1
40.349678,40.445415,81,50,1
40.445415,41.137024,82,50,1
41.137024,41.23276,81,49,1
41.23276,41.328503,82,51,1
41.328503,41.42424,84,53,1
41.42424,41.51998,82,50,1
41.51998,41.61572,81,50,1
41.722942,41.81868,82,54,1
41.81868,41.91442,84,56,1
41.91442,42.010162,86,58,1
42.010162,42.1059,84,55,1
42.1059,42.20164,82,52,1
42.30886,42.404602,86,54,1
42.404602,42.50034,87,57,1
42.50034,42.59608,89,59,1
42.59608,42.691822,87,57,1
42.691822,42.78756,86,55,1
42.78756,42.8833,89,63,1
42.8833,42.97904,87,63,1
42.97904,43.07478,86,62,1
43.07478,43.170517,84,61,1
43.170517,43.26626,82,60,1
43.26626,43.36194,80,59,1
43.36194,43.457794,79,59,1
43.457794,43.55436,77,58,1
43.55436,43.651638,75,57,1
43.651638,43.72505,74,56,1
43.72505,43.798893,72,56,1
43.798893,43.873165,70,55,1
43.873165,43.9472,68,54,1
43.9472,44.050358,67,59,1
44.0443,44.147205,63,55,1
44.141163,44.24375,65,55,1
44.237724,44.340065,67,59,1
44.33405,44.436077,65,55,1
44.43008,44.531845,63,55,1
44.525875,45.100548,68,59,1
45.100548,45.203278,67,59,1
45.197235,45.299763,75,55,1
45.293736,45.396072,77,55,1
45.39006,45.492207,79,59,1
45.48621,45.58816,77,55,1
45.58218,45.683887,75,55,1
45.677917,46.25441,80,59,1
46.25441,46.35085,79,59,1
46.35085,46.447117,75,59,1
46.447117,46.543266,77,59,1
46.543266,46.639236,79,64,1
46.639236,46.73503,77,57,1
46.73503,46.830715,75,58,1
46.830715,46.92622,82,67,1
46.92622,47.021725,79,59,1
47.021725,47.117233,80,59,1
47.117233,47.212738,82,62,1
47.212738,47.308247,80,65,1
47.308247,47.40966,79,67,1
47.40966,47.511135,85,69,1
47.505165,47.606644,84,68,1
47.600674,47.70215,82,67,1
47.69618,47.797653,80,66,1
47.791687,47.89316,79,65,1
47.88719,47.988667,77,63,1
47.982697,48.084175,75,59,1
48.078205,48.17981,74,55,1
48.17383,48.275623,75,55,1
48.269623,48.371593,76,59,1
48.365593,48.467754,77,56,1
48.461742,48.564247,73,56,1
48.848476,48.94492,60,57,1
48.94492,49.041187,63,59,1
49.041187,49.137398,68,62,1
49.137398,49.233604,72,64,1
49.233604,49.329815,75,66,1
49.329815,49.426025,80,68,1
49.426025,49.50055,84,70,1
49.575077,49.649605,84,70,1
49.724133,49.87169,84,70,1
49.87169,50.019245,82,68,1
50.019245,50.093025,80,66,1
50.166805,50.245922,79,64,1
50.325043,50.474854,79,65,1
50.474854,50.624664,77,63,1
50.624664,50.699574,75,61,1
50.77448,50.85623,74,59,1
50.937984,51.255325,75,63,1
51.890015,52.20069,58,45,1
52.20725,52.364613,65,45,1
52.20725,52.364613,62,37,1
52.521557,52.67809,65,45,1
52.521557,52.67809,62,38,1
52.834206,52.989902,65,45,1
52.834206,52.989902,62,38,1
53.145195,53.31006,65,46,1
53.145195,53.31006,62,39,1
53.474922,54.42179,70,47,1
53.474922,54.42179,63,40,1
54.42179,54.737415,70,46,1
54.42179,54.737415,63,46,1
54.737415,55.362858,68,48,1
54.737415,55.362858,63,40,1
55.362858,55.99496,69,45,1
55.362858,55.99496,63,37,1
55.362858,55.99496,65,37,1
55.99496,56.93437,70,46,1
55.99496,56.93437,65,39,1
55.99496,56.93437,62,39,1
56.93437,57.240982,70,50,1
57.247505,57.40407,77,50,1
57.247505,57.40407,70,42,1
57.56071,57.717484,77,53,1
57.56071,57.717484,70,45,1
57.873634,58.029163,77,56,1
57.873634,58.029163,70,47,1
58.184074,58.33859,77,59,1
58.184074,58.33859,70,50,1
58.4931,59.13939,70,73,1
58.4931,59.459305,82,73,1
59.459305,59.77922,83,72,1
59.13939,59.77922,73,80,1
59.77922,60.092358,84,87,1
59.77922,60.092358,72,74,1
60.40549,60.718628,74,87,1
60.40549,60.718628,68,74,1
60.40549,60.718628,65,74,1
61.031765,61.322742,75,55,1
61.031765,61.322742,67,49,1
61.706284,61.807644,70,54,1
61.801674,61.903282,72,56,1
61.897297,61.99915,74,57,1
61.993153,62.09573,72,54,1
62.089596,62.195408,70,51,1
62.18929,62.479904,75,55,1
62.86345,62.964806,70,54,1
62.95884,63.06049,72,56,1
63.05449,63.15741,74,57,1
63.15129,63.256138,72,54,1
63.249912,63.35653,70,51,1
63.350426,63.447975,75,56,1
63.447975,63.54436,79,59,1
63.54436,63.64051,77,52,1
63.64051,63.73648,75,59,1
63.73648,63.832275,74,57,1
63.832275,63.92796,72,58,1
63.92796,64.02346,71,54,1
64.02346,64.11897,72,54,1
64.11897,64.21448,70,53,1
64.21448,64.30998,68,53,1
64.30998,64.40549,67,52,1
64.40549,64.506905,65,52,1
64.506905,64.79788,63,55,1
65.18142,65.28278,58,54,1
65.27681,65.37842,60,56,1
65.37244,65.47429,62,57,1
65.46829,65.57087,60,54,1
65.564735,65.67055,58,51,1
65.66443,65.95505,63,55,1
66.338585,66.43995,58,54,1
66.433975,66.53563,60,56,1
66.52963,66.63255,62,57,1
66.626434,66.73128,60,54,1
66.72505,66.83168,58,51,1
66.82556,67.11618,63,55,1
67.499725,67.60108,59,54,1
67.595116,67.69676,60,56,1
67.690765,67.793686,62,57,1
67.78757,67.89242,60,54,1
67.88619,67.9927,59,51,1
67.9867,68.08867,65,64,1
68.08387,68.18584,63,54,1
68.17924,68.27521,62,58,1
68.27041,68.372375,68,66,1
68.37178,68.47375,67,58,1
68.46715,68.56306,65,61,1
68.56246,68.66414,74,70,1
68.65754,68.75971,72,60,1
68.75489,68.85152,71,64,1
68.85455,68.95883,77,74,1
68.9483,69.05461,75,64,1
69.04955,69.1516,74,68,1
69.15096,70.076324,89,100,1
70.076324,70.18311,87,86,1
70.18311,70.28763,86,85,1
70.28763,70.38997,84,83,1
70.38997,70.489685,83,82,1
70.489685,70.58754,80,81,1
70.58754,70.68363,79,79,1
70.68363,70.778336,77,78,1
70.778336,70.87252,75,77,1
70.87252,70.96621,74,75,1
70.96621,71.05968,72,74,1
71.05968,71.153145,71,72,1
71.153145,71.24661,68,71,1
71.24661,71.30382,67,70,1
71.30382,71.362114,65,68,1
71.362114,71.42418,63,69,1
71.42418,71.49418,62,70,1
71.49418,71.60509,60,71,1
71.60509,74.07592,59,93,1
74.28182,74.35597,67,48,1
74.43012,74.50427,72,49,1
74.57842,74.65733,74,51,1
74.73624,75.17593,75,52,1
75.17593,75.33084,77,50,1
75.33084,75.76842,74,53,1
75.76842,75.92253,75,50,1
75.92253,76.46914,72,52,1
76.46914,76.50572,74,48,1
76.50572,76.65065,72,52,1
76.65065,76.795586,71,51,1
76.795586,76.94052,72,51,1
76.94052,77.049225,74,50,1
77.049225,77.08546,77,49,1
77.08546,77.23039,75,56,1
77.23039,77.37533,74,52,1
77.37533,77.520256,75,52,1
77.520256,77.67766,77,52,1
77.67766,77.83339,79,56,1
77.98912,78.14485,79,55,1
78.30058,79.21337,79,57,1
79.21337,79.35831,77,51,1
79.35831,79.43858,79,53,1
79.43858,79.47564,77,48,1
79.47564,79.512695,79,48,1
79.512695,80.0981,80,56,1
80.0981,80.38673,74,52,1
80.38673,80.53104,75,51,1
80.53104,80.61057,77,53,1
80.61057,80.64764,75,50,1
80.64764,80.68469,77,50,1
80.68469,81.27009,79,56,1
81.27009,81.55338,72,52,1
81.55941,81.70407,72,53,1
81.70407,81.85315,74,54,1
81.85315,81.998085,75,57,1
82.14454,82.291,75,53,1
82.291,82.437454,77,55,1
82.437454,82.582115,74,57,1
82.72821,82.87431,74,51,1
82.87431,83.02425,75,54,1
83.02425,83.3262,72,57,1
83.92316,84.068184,77,56,1
84.068184,84.22257,79,58,1
84.22257,84.807976,80,61,1
84.22257,84.807976,68,51,1
84.807976,85.0966,74,57,1
85.0966,85.24091,75,56,1
85.24091,85.39457,77,58,1
85.39457,85.979965,79,61,1
85.39457,85.979965,67,51,1
85.979965,86.26326,72,57,1
86.26929,86.41395,72,58,1
86.41395,86.56303,74,59,1
86.56303,86.70796,75,62,1
86.854416,87.00088,75,58,1
87.00088,87.14733,77,60,1
87.14733,87.29199,74,62,1
87.43809,87.58419,74,56,1
87.58419,87.73412,75,59,1
87.73412,87.887436,72,62,1
88.03608,88.649895,82,74,1
88.649895,89.11025,82,73,1
89.11025,89.2637,80,71,1
89.2637,89.40864,79,72,1
89.40864,89.55357,77,72,1
89.55357,89.6985,75,71,1
89.6985,89.84344,74,71,1
89.84344,89.98837,72,71,1
89.98837,90.13331,71,71,1
90.13331,90.28662,72,73,1
90.435265,91.04908,84,79,1
90.435265,91.04908,72,67,1
91.04908,91.50944,82,80,1
91.50944,91.66289,80,81,1
91.66289,91.80782,79,82,1
91.80782,91.95276,77,81,1
91.95276,92.097694,75,79,1
92.097694,92.24262,74,79,1
92.24262,92.38756,72,79,1
92.38756,92.53249,71,78,1
92.53249,92.68268,72,89,1
92.83287,92.883705,74,81,1
92.883705,92.93455,75,81,1
92.93455,92.98538,74,81,1
92.98538,93.02351,75,81,1
93.02351,93.061646,74,81,1
93.061646,93.09977,72,80,1
93.09977,93.1379,74,80,1
93.1379,93.2916,75,92,1
93.44531,93.60484,83,92,1
93.44531,93.60484,74,92,1
93.44531,93.60484,71,92,1
93.76437,93.923904,84,92,1
93.76437,93.923904,75,92,1
93.76437,93.923904,72,92,1
95.040634,95.67876,60,53,1
95.67876,96.31689,65,48,1
96.31689,96.95502,58,51,1
96.95502,97.59314,63,48,1
97.59314,98.23127,56,52,1
98.23127,98.55034,61,48,1
98.55034,98.8694,60,48,1
98.8694,99.18846,58,53,1
99.18846,99.50753,56,48,1
99.50753,99.82659,55,48,1
100.46472,101.102844,72,55,1
101.102844,101.740974,65,53,1
101.740974,102.379105,70,56,1
102.379105,103.017235,63,53,1
103.017235,103.336296,68,53,1
103.336296,103.65536,67,51,1
103.65536,103.97443,65,51,1
103.97443,104.29349,63,53,1
104.29349,104.61255,62,49,1
104.61255,104.93162,65,53,1
104.93162,105.25068,63,49,1
105.25068,105.88881,72,57,1
105.88881,106.52693,77,48,1
105.88881,106.52693,65,40,1
106.52693,107.16506,70,57,1
107.16506,107.80319,75,48,1
107.16506,108.12225,63,40,1
108.12225,108.44132,60,48,1
107.80319,108.44132,68,52,1
108.44132,108.76038,73,53,1
108.44132,108.76038,65,45,1
108.76038,109.079445,72,48,1
108.76038,109.079445,63,40,1
109.079445,109.39851,70,53,1
109.079445,109.39851,61,40,1
109.39851,109.717575,68,48,1
109.39851,109.717575,60,40,1
109.717575,110.03664,67,48,1
109.717575,110.03664,58,40,1
110.03664,110.355705,63,48,1
110.67477,111.3129,84,55,1
110.67477,111.3129,72,46,1
111.3129,111.95103,77,55,1
111.95103,112.58915,82,61,1
111.95103,112.58915,70,51,1
112.58915,113.22728,75,59,1
113.22728,113.54634,80,61,1
112.90822,113.54634,72,51,1
113.54634,113.86541,79,60,1
113.54634,113.86541,70,50,1
113.86541,114.18447,77,61,1
113.86541,114.18447,68,51,1
114.18447,114.50353,75,64,1
114.18447,114.50353,67,54,1
114.50353,114.8226,74,60,1
114.50353,114.8226,65,50,1
114.8226,115.14166,77,66,1
114.8226,115.14166,68,56,1
115.14166,115.460724,75,62,1
115.14166,115.460724,67,52,1
116.41792,116.736984,75,65,1
116.736984,117.056046,72,68,1
117.056046,117.375114,73,65,1
117.375114,117.694176,77,67,1
117.694176,118.01324,67,63,1
118.01324,118.332306,70,68,1
118.332306,118.65137,68,65,1
118.65137,118.97043,72,67,1
118.97043,119.2895,62,65,1
119.2895,119.44903,63,65,1
119.60856,119.92762,82,61,1
119.92762,120.239586,87,66,1
120.239586,120.55155,85,62,1
120.55155,121.17079,84,69,1
121.17079,121.78535,89,70,1
121.78535,122.396935,82,70,1
122.396935,123.00853,87,67,1
123.00853,123.61369,80,70,1
123.61369,123.763626,85,72,1
123.61369,123.763626,73,72,1
123.91356,124.06349,72,73,1
123.91356,124.06349,84,73,1
124.213425,124.36336,82,75,1
124.213425,124.36336,70,75,1
124.51329,124.66322,68,77,1
124.51329,124.66322,80,77,1
124.813156,124.96309,79,79,1
124.813156,124.96309,67,79,1
125.113014,125.26295,73,80,1
125.41282,125.56203,84,80,1
125.56203,125.71123,82,79,1
125.71123,125.86043,80,79,1
125.86043,126.00963,79,78,1
126.00963,126.15883,77,77,1
126.15883,126.30776,75,76,1
126.30776,126.456604,73,76,1
126.456604,126.60544,72,76,1
126.60544,126.75428,70,77,1
126.75428,126.903114,68,77,1
126.903114,127.05175,67,77,1
127.05175,127.20023,65,77,1
127.20023,127.348724,64,77,1
127.348724,127.49721,61,76,1
127.49721,127.64569,60,76,1
127.64569,127.79409,58,75,1
127.79409,127.942215,56,75,1
127.942215,128.09035,55,74,1
128.09035,128.23846,53,73,1
128.23846,128.3866,52,71,1
128.3866,128.53468,53,70,1
128.53468,128.68245,55,72,1
128.68245,128.83023,56,74,1
128.83023,128.978,55,71,1
128.978,129.12576,53,73,1
129.12576,129.27353,51,72,1
129.27353,129.42104,50,71,1
129.42104,129.56845,48,70,1
129.56845,129.71588,47,67,1
129.71588,129.8633,48,69,1
129.8633,130.01071,50,71,1
130.01071,130.15785,48,70,1
130.23077,130.30344,43,56,1
130.30344,130.37578,47,56,1
130.37578,130.44781,50,56,1
130.44781,130.51973,55,69,1
130.80995,130.88254,43,58,1
130.88254,130.95486,48,58,1
130.95486,131.02692,51,58,1
131.02692,131.09885,55,70,1
131.3898,131.46263,43,60,1
131.46263,131.53522,50,60,1
131.53522,131.60751,53,60,1
131.60751,131.67963,55,71,1
131.97112,132.04395,43,61,1
132.04395,132.11646,48,61,1
132.11646,132.18864,51,61,1
132.18864,132.26054,55,71,1
132.55115,132.62381,55,60,1
132.62381,132.69623,59,60,1
132.69623,132.76839,62,60,1
132.76839,132.84027,67,76,1
133.13084,133.20369,55,64,1
133.20369,133.27626,60,64,1
133.27626,133.3486,63,64,1
133.3486,133.42087,67,76,1
133.71301,133.78586,55,66,1
133.78586,133.85841,62,66,1
133.85841,133.93063,65,66,1
133.93063,134.00266,67,77,1
134.29337,134.36629,55,67,1
134.36629,134.43896,60,67,1
134.43896,134.51137,63,67,1
134.51137,134.58359,67,77,1
134.87527,134.94835,67,72,1
134.94835,135.02107,71,72,1
135.02107,135.09346,74,72,1
135.09346,135.16574,79,89,1
135.45872,135.53203,67,75,1
135.53203,135.60504,72,75,1
135.60504,135.67764,75,75,1
135.67764,135.74992,79,88,1
136.0425,136.11577,67,75,1
136.11577,136.18861,74,75,1
136.18861,136.26103,77,75,1
136.26103,136.33308,79,87,1
136.625,136.69812,67,75,1
136.69812,136.7709,72,75,1
136.7709,136.84335,75,75,1
136.84335,136.91591,79,86,1
137.23401,137.33188,67,66,1
137.33188,137.42929,66,68,1
137.42929,137.52625,67,70,1
137.52625,137.62274,71,72,1
137.62274,137.71864,74,75,1
137.71864,137.81447,79,84,1
137.81447,137.91077,74,72,1
137.91077,138.0076,71,64,1
138.0076,138.08054,67,70,1
138.3998,138.49802,71,66,1
138.49802,138.59578,70,68,1
138.59578,138.69307,71,70,1
138.69307,138.7899,74,72,1
138.7899,138.88629,79,75,1
138.88629,138.98239,83,84,1
138.98239,139.07889,79,72,1
139.07889,139.17584,74,64,1
139.17584,139.2489,71,70,1
139.56822,139.66621,74,66,1
139.66621,139.76375,73,68,1
139.76375,139.86081,74,70,1
139.86081,139.95741,77,72,1
139.95741,140.05357,83,75,1
140.05357,140.14958,86,84,1
140.14958,140.24597,83,72,1
140.24597,140.3428,77,64,1
140.3428,140.41574,74,70,1
140.7345,140.83255,77,66,1
140.83255,140.93028,76,68,1
140.93028,141.02771,77,70,1
141.02771,141.12483,83,72,1
141.12483,141.2217,86,75,1
141.2217,141.31929,89,84,1
141.31929,141.4178,86,72,1
141.4178,141.51727,83,64,1
141.51727,141.6177,89,84,1
141.6177,141.71913,86,72,1
141.71913,141.82161,83,64,1
141.82161,142.74649,89,100,1
142.74649,142.85329,87,86,1
142.85329,142.9578,86,85,1
142.9578,143.06013,84,83,1
143.06013,143.15985,83,82,1
143.15985,143.2577,80,81,1
143.2577,143.3538,79,79,1
143.3538,143.4485,77,78,1
143.4485,143.5427,75,77,1
143.5427,143.63638,74,75,1
143.63638,143.72986,72,74,1
143.72986,143.82332,71,72,1
143.82332,143.91678,68,71,1
143.91678,143.974,67,70,1
143.974,144.03229,65,68,1
144.03229,144.09436,63,69,1
144.09436,144.16435,62,70,1
144.16435,144.27527,60,71,1
144.27527,146.7461,59,93,1
147.05496,147.1291,67,48,1
147.20326,147.2774,72,49,1
147.35156,147.43047,74,51,1
147.50937,147.94907,75,52,1
147.94907,148.10397,77,50,1
148.10397,148.54155,74,53,1
148.54155,148.69566,75,50,1
148.69566,149.24228,72,52,1
149.24228,149.27885,74,48,1
149.27885,149.42378,72,52,1
149.42378,149.56873,71,51,1
149.56873,149.71365,72,51,1
149.71365,149.82236,74,50,1
149.82236,149.8586,77,49,1
149.8586,150.00352,75,56,1
150.00352,150.14847,74,52,1
150.14847,150.2934,75,52,1
150.2934,150.45079,77,52,1
150.45079,150.60652,79,56,1
150.76225,150.91798,79,55,1
151.07372,151.98651,79,57,1
151.98651,152.13144,77,51,1
152.13144,152.21172,79,53,1
152.21172,152.24878,77,48,1
152.24878,152.28583,79,48,1
152.28583,152.87123,80,56,1
152.87123,153.15987,74,52,1
153.15987,153.30417,75,51,1
153.30417,153.38371,77,53,1
153.38371,153.42076,75,50,1
153.42076,153.45782,77,50,1
153.45782,154.04323,79,56,1
154.04323,154.32652,72,52,1
154.33255,154.4772,72,53,1
154.4772,154.62628,74,54,1
154.62628,154.77122,75,57,1
154.91768,155.06413,75,53,1
155.06413,155.21059,77,55,1
155.21059,155.35526,74,57,1
155.50134,155.64745,74,51,1
155.64745,155.79738,75,54,1
155.79738,156.09933,72,57,1
157.17209,157.31891,59,47,1
157.31891,157.46573,62,49,1
157.46573,157.61255,65,51,1
157.75687,157.90118,77,51,1
157.90118,158.05183,74,50,1
158.05183,158.2109,71,48,1
158.35583,158.50267,60,44,1
158.50267,158.64949,63,46,1
158.64949,158.79631,67,49,1
158.94096,159.08563,79,48,1
159.08563,159.23029,75,47,1
159.23029,159.37495,72,45,1
159.51988,159.66672,64,47,1
159.66672,159.81354,67,49,1
159.81354,159.96036,70,51,1
160.10468,160.24898,82,51,1
160.24898,160.39964,79,50,1
160.39964,160.55872,76,48,1
160.70364,160.85046,65,48,1
160.85046,160.99728,68,50,1
160.99728,161.1441,72,53,1
161.1441,161.28877,77,55,1
161.28877,161.43344,80,58,1
161.43344,161.58662,84,60,1
161.58662,162.0523,89,69,1
162.0523,162.34927,87,63,1
162.34927,162.64624,86,61,1
162.64624,162.94322,84,60,1
162.94322,163.10146,83,60,1
163.25969,163.85591,79,60,1
163.85591,164.30344,79,56,1
164.30344,164.45267,81,54,1
164.45267,164.60085,83,55,1
164.60085,164.7486,84,57,1
164.7486,164.8959,86,58,1
164.8959,165.04309,88,60,1
165.04309,165.19028,89,61,1
165.19028,165.3432,86,58,1
165.3432,165.4915,89,61,1
165.4915,165.6398,88,60,1
165.6398,165.7881,86,59,1
165.7881,165.929,84,58,1
165.9418,166.09238,84,60,1
166.09238,166.24294,83,58,1
166.24294,166.3935,81,58,1
166.3935,166.54407,83,58,1
166.54407,166.69312,86,63,1
166.69312,166.84218,84,57,1
166.84218,166.99123,83,57,1
166.99123,167.14027,81,57,1
167.14027,167.40857,79,60,1
167.14027,167.40857,77,48,1
167.43839,167.70668,79,60,1
167.43839,167.70668,77,48,1
167.7365,167.88455,77,60,1
167.88455,168.03285,76,53,1
168.03285,168.18115,74,53,1
168.18115,168.3171,72,53,1
168.32945,168.47775,72,57,1
168.47775,168.62605,71,52,1
168.62605,168.77435,69,52,1
168.77435,168.9265,71,52,1
167.7365,169.07593,79,60,1
169.07593,169.22517,81,54,1
168.9265,169.22517,72,52,1
169.22517,169.37335,83,55,1
169.37335,169.52109,84,57,1
169.52109,169.6684,86,58,1
169.6684,169.81558,88,60,1
169.81558,169.96278,89,61,1
169.96278,170.11569,86,58,1
170.11569,170.26399,89,61,1
170.26399,170.4123,88,60,1
170.4123,170.5606,86,59,1
170.5606,170.7143,84,58,1
170.7143,170.86487,83,60,1
170.86487,171.01543,84,58,1
171.01543,171.166,88,59,1
171.166,171.31656,84,59,1
171.31656,171.46327,83,66,1
171.46327,171.61,81,57,1
171.61,171.75671,84,58,1
171.75671,171.90811,81,59,1
171.90811,172.05379,79,69,1
172.05379,172.19948,77,63,1
172.19948,172.34515,81,63,1
172.34515,172.49655,77,64,1
172.49655,172.64189,76,72,1
172.64189,172.78723,74,62,1
172.78723,172.93257,77,64,1
172.93257,173.08896,74,64,1
173.08896,173.23637,81,75,1
173.23637,173.38379,77,67,1
173.38379,173.53122,74,67,1
173.53122,173.6892,72,67,1
173.6892,173.79301,71,59,1
173.78696,173.88986,67,55,1
173.88382,173.9864,69,55,1
173.98038,174.08272,71,59,1
174.0767,174.17874,69,55,1
174.17273,174.2745,67,55,1
174.26854,174.8432,72,59,1
174.8432,174.94594,71,59,1
174.9399,175.04242,67,55,1
175.03639,175.13873,69,55,1
175.13272,175.23486,71,59,1
175.22887,175.33083,69,55,1
175.32483,175.42654,67,55,1
175.42058,175.99707,72,59,1
175.99707,176.0935,71,59,1
176.0935,176.18977,67,59,1
176.18977,176.28592,69,59,1
176.28592,176.3819,71,64,1
176.3819,176.47769,69,57,1
176.47769,176.57336,67,58,1
176.57336,176.66888,74,67,1
176.66888,176.76439,71,59,1
176.76439,176.8599,72,59,1
176.8599,176.9554,74,62,1
176.9554,177.0509,72,65,1
177.0509,177.15231,71,67,1
177.15231,177.2538,77,69,1
177.24782,177.3493,76,68,1
177.34332,177.44481,74,67,1
177.43884,177.54031,72,66,1
177.53435,177.63582,71,65,1
177.62985,177.73132,69,63,1
177.72536,177.82683,67,59,1
177.82086,177.92247,69,55,1
177.91649,178.01828,67,55,1
178.01228,178.11424,65,59,1
178.10825,178.21042,64,56,1
178.2044,178.30698,62,56,1
178.30084,178.40466,64,59,1
178.3986,178.50151,60,55,1
178.49547,178.59807,62,55,1
178.59204,178.69437,64,59,1
178.68835,178.79039,62,55,1
178.7844,178.88615,60,55,1
178.88019,179.45486,65,59,1
179.45486,179.55759,64,59,1
179.55154,179.65407,72,55,1
179.64804,179.75038,74,55,1
179.74437,179.84651,76,59,1
179.84052,179.94247,74,55,1
179.9365,180.0382,72,55,1
180.03223,180.60872,77,59,1
180.60872,180.70515,76,59,1
180.70515,180.80142,72,59,1
180.80142,180.89758,74,59,1
180.89758,180.99355,76,64,1
180.99355,181.08934,74,57,1
181.08934,181.18503,72,58,1
181.18503,181.28053,79,67,1
181.28053,181.37604,76,59,1
181.37604,181.47154,77,59,1
181.47154,181.56705,79,62,1
181.56705,181.66255,77,65,1
181.66255,181.76398,76,67,1
181.76398,181.86545,82,69,1
181.85948,181.96095,81,68,1
181.95499,182.05646,79,67,1
182.05049,182.15196,77,66,1
182.146,182.24747,76,65,1
182.2415,182.34297,74,63,1
182.337,182.43848,72,59,1
182.43251,182.53412,71,55,1
182.52814,182.62993,72,55,1
182.62393,182.7259,73,59,1
182.71991,182.82207,74,56,1
182.81606,182.91856,70,56,1
183.20303,183.29947,57,57,1
183.29947,183.39574,60,59,1
183.39574,183.49196,65,62,1
183.49196,183.58817,69,64,1
183.58817,183.68437,72,66,1
183.68437,183.78058,77,68,1
183.78058,183.8551,81,70,1
183.92964,184.00417,81,70,1
184.07869,184.22624,81,70,1
184.22624,184.37381,79,68,1
184.37381,184.44759,77,66,1
184.52136,184.60048,76,64,1
184.6796,184.8294,76,65,1
184.8294,184.97922,74,63,1
184.97922,185.05412,72,61,1
185.12903,185.21078,71,59,1
185.29254,185.60988,72,63,1
186.24457,186.55525,67,45,1
186.56181,186.71916,74,45,1
186.56181,186.71916,71,37,1
186.87611,187.03264,74,45,1
186.87611,187.03264,71,38,1
187.18877,187.34447,74,45,1
187.18877,187.34447,71,38,1
187.49976,187.66461,74,46,1
187.49976,187.66461,71,39,1
187.82948,188.77635,79,47,1
187.82948,188.77635,72,40,1
188.77635,189.09196,79,46,1
188.77635,189.09196,72,46,1
189.09196,189.70515,78,48,1
189.09196,189.70515,72,40,1
189.09196,189.70515,75,40,1
189.7174,190.33672,78,45,1
189.7174,190.33672,72,37,1
189.7174,190.33672,74,37,1
190.34952,190.66266,79,46,1
190.34952,190.66266,74,39,1
190.34952,190.66266,71,39,1
191.28893,191.60245,55,45,1
191.60638,191.76375,62,45,1
191.60638,191.76375,59,37,1
191.9207,192.07722,62,45,1
191.9207,192.07722,59,38,1
192.23334,192.38904,62,45,1
192.23334,192.38904,59,38,1
192.54434,192.7092,62,46,1
192.54434,192.7092,59,39,1
193.18968,193.50531,59,40,1
192.87405,193.82092,67,47,1
193.82092,194.1384,67,45,1
194.1384,194.29575,65,50,1
193.50531,194.29575,60,40,1
194.4527,194.60922,65,49,1
194.4527,194.60922,60,49,1
194.76535,194.92105,65,49,1
194.76535,194.92105,62,49,1
195.07634,195.2412,65,49,1
195.07634,195.72168,62,49,1
195.72168,196.03731,62,51,1
195.40607,196.35294,70,54,1
196.35294,196.6704,70,53,1
196.6704,196.82776,69,59,1
196.03731,196.9847,63,51,1
196.9847,197.14124,69,56,1
196.9847,197.14124,66,56,1
197.29735,197.45305,69,56,1
197.29735,197.45305,66,56,1
197.60834,197.77321,69,55,1
197.60834,198.2537,66,55,1
198.2537,198.5693,66,54,1
198.5693,198.88493,67,54,1
197.93806,198.88493,74,61,1
198.88493,199.21466,69,62,1
198.88493,199.53029,66,62,1
199.53029,199.8459,66,55,1
199.8459,200.16153,67,50,1
199.21466,200.16153,74,63,1
200.16153,200.49126,74,54,1
200.16153,200.80687,71,54,1
200.80687,201.1225,71,52,1
201.1225,201.43813,72,55,1
200.49126,201.43813,79,58,1
201.43813,201.76785,74,57,1
201.43813,202.08347,71,57,1
202.08347,202.3991,71,55,1
202.3991,202.71472,72,55,1
201.76785,202.71472,79,63,1
202.71472,203.04443,74,60,1
202.71472,203.36006,71,60,1
203.36006,203.67569,70,49,1
203.67569,203.99132,71,49,1
203.04443,203.99132,80,69,1
203.99132,204.31985,74,56,1
204.63663,204.9534,70,47,1
204.9534,205.27019,71,48,1
204.31985,205.27019,79,65,1
205.27019,205.59961,74,54,1
205.91801,206.23642,70,38,1
206.23642,206.56673,71,38,1
205.59961,206.56673,78,60,1
206.56673,207.22043,74,40,1
207.22043,207.55797,70,37,1
206.89703,207.92494,77,47,1
207.55797,208.26013,71,37,1
208.26013,208.69798,75,52,1
208.26013,208.69798,72,44,1
208.26013,208.69798,67,44,1
208.69798,208.85289,77,50,1
208.85289,209.29047,74,53,1
209.29047,209.44458,75,50,1
209.44458,209.9912,72,52,1
209.9912,210.02777,74,48,1
210.02777,210.1727,72,52,1
210.1727,210.31764,71,51,1
210.31764,210.46257,72,51,1
210.46257,210.57127,74,50,1
210.57127,210.60751,77,49,1
210.60751,210.75244,75,56,1
210.75244,210.89737,74,52,1
210.89737,211.04231,75,52,1
211.04231,211.1997,77,52,1
211.1997,211.35544,79,56,1
211.51117,211.6669,79,55,1
211.82263,212.73543,79,57,1
212.73543,212.88036,77,51,1
212.88036,212.96063,79,53,1
212.96063,212.9977,77,48,1
212.9977,213.03474,79,48,1
213.03474,213.62015,80,56,1
213.62015,213.90878,74,52,1
213.90878,214.05309,75,51,1
214.05309,214.13263,77,53,1
214.13263,214.16968,75,50,1
214.16968,214.20674,77,50,1
214.20674,214.79214,79,56,1
214.79214,215.07544,72,52,1
215.08147,215.22612,72,53,1
215.22612,215.3752,74,54,1
215.3752,215.52014,75,57,1
215.6666,215.81305,75,53,1
215.81305,215.9595,77,55,1
215.9595,216.10417,74,57,1
216.25026,216.39636,74,51,1
216.39636,216.5463,75,54,1
216.5463,216.69223,72,57,1
216.69223,216.83774,71,52,1
216.83774,216.98283,72,53,1
216.98283,217.12753,74,54,1
217.12753,217.27211,75,55,1
217.27211,217.41675,76,56,1
217.41675,217.56168,77,58,1
217.56168,217.71056,79,59,1
217.71056,217.85513,80,60,1
217.85513,217.99973,79,57,1
217.99973,218.1443,82,63,1
218.1443,218.28888,80,62,1
218.28888,218.43346,79,62,1
218.43346,218.57803,77,61,1
218.57803,218.72261,75,60,1
218.72261,218.87149,74,58,1
218.87149,219.01607,79,66,1
219.01607,219.16064,78,60,1
219.16064,219.30524,80,67,1
219.30524,219.44981,79,66,1
219.44981,219.59439,77,66,1
219.59439,219.73897,75,65,1
219.73897,219.88354,74,65,1
219.88354,220.03242,72,64,1
220.03242,220.177,75,71,1
220.177,220.32158,74,64,1
220.32158,220.46616,77,70,1
220.46616,220.61075,75,62,1
220.61075,220.75533,74,69,1
220.75533,220.8999,73,66,1
220.8999,221.04448,75,64,1
221.04448,221.18906,74,60,1
221.18906,221.48712,72,66,1
221.87576,221.9715,84,68,1
221.9715,222.06725,86,70,1
222.06725,222.16298,88,73,1
222.16298,222.25871,86,70,1
222.25871,222.35446,84,66,1
222.35446,222.50618,89,77,1
223.04117,223.1369,84,66,1
223.1369,223.23264,86,69,1
223.23264,223.32838,88,72,1
223.32838,223.42412,86,70,1
223.42412,223.51987,84,67,1
223.51987,223.67159,89,77,1
224.20656,224.3023,84,66,1
224.3023,224.39804,86,69,1
224.39804,224.49379,88,72,1
224.49379,224.58952,86,70,1
224.58952,224.68526,84,67,1
224.68526,224.83269,89,86,1
224.98071,225.13535,84,90,1
224.98071,225.13535,72,76,1
224.98071,225.13535,75,76,1
224.98071,225.13535,78,76,1
225.28998,225.44463,84,90,1
225.28998,225.44463,72,76,1
225.28998,225.44463,75,76,1
225.28998,225.44463,79,76,1
225.59926,225.7539,83,90,1
225.59926,225.7539,71,76,1
225.59926,225.7539,74,76,1
225.59926,225.7539,79,76,1
225.90854,226.06027,84,90,1
225.90854,226.06027,72,76,1
225.90854,226.06027,75,76,1
225.90854,226.06027,79,76,1
226.59525,226.69098,72,68,1
226.69098,226.78673,74,70,1
226.78673,226.88246,76,73,1
226.88246,226.97821,74,70,1
226.97821,227.07394,72,66,1
227.07394,227.22568,77,77,1
227.76065,227.85638,72,66,1
227.85638,227.95213,74,69,1
227.95213,228.04787,76,72,1
228.04787,228.1436,74,70,1
228.1436,228.23935,72,67,1
228.23935,228.39107,77,77,1
228.92606,229.02179,60,66,1
229.02179,229.11752,62,69,1
229.11752,229.21327,64,72,1
229.21327,229.309,62,70,1
229.309,229.40875,60,67,1
229.40875,229.50446,65,63,1
229.50446,229.60014,60,50,1
229.60014,229.69585,62,50,1
229.69585,229.79153,63,63,1
229.79153,229.88722,62,50,1
229.88722,229.98672,60,50,1
229.98672,230.0822,66,68,1
230.0822,230.17766,60,52,1
230.17766,230.27313,62,53,1
230.27313,230.36859,63,60,1
230.36859,230.46405,62,50,1
230.46405,230.56355,60,50,1
230.56355,230.65903,67,69,1
230.65903,230.75449,60,51,1
230.75449,230.84996,62,52,1
230.84996,230.94542,63,58,1
230.94542,231.04088,62,51,1
231.04088,231.14014,60,52,1
231.14014,231.23515,69,69,1
231.23515,231.33017,60,54,1
231.33017,231.42517,62,55,1
231.42517,231.52019,63,62,1
231.52019,231.6152,62,55,1
231.6152,231.71495,60,55,1
231.71495,231.80974,71,70,1
231.80974,231.90453,59,55,1
231.90453,231.99931,60,55,1
231.99931,232.0941,62,61,1
232.0941,232.18889,60,55,1
232.18889,232.28741,59,54,1
232.28741,232.38197,72,72,1
232.38197,232.47653,60,55,1
232.47653,232.57109,62,55,1
232.57109,232.66566,63,63,1
232.66566,232.76022,62,56,1
232.76022,232.85802,60,58,1
232.85802,232.95216,74,74,1
232.95216,233.04631,62,56,1
233.04631,233.14044,63,56,1
233.14044,233.23459,65,62,1
233.23459,233.32874,63,54,1
233.32874,233.428,62,54,1
233.428,233.52234,71,75,1
233.52234,233.61667,59,53,1
233.61667,233.71101,60,53,1
233.71101,233.80534,62,65,1
233.80534,233.89969,60,55,1
233.89969,233.9987,59,55,1
233.9987,234.29945,72,79,1
233.9987,234.29945,60,67,1
234.59143,234.87714,79,84,1
234.87714,234.94856,77,80,1
234.94856,235.01999,75,79,1
235.01999,235.09142,74,78,1
235.09142,235.16286,72,77,1
235.16286,235.31323,74,79,1
235.75417,236.04056,77,84,1
236.04056,236.11215,75,80,1
236.11215,236.18376,74,79,1
236.18376,236.25536,72,78,1
236.25536,236.32695,71,77,1
236.32695,236.47733,72,79,1
236.91826,237.20398,79,84,1
237.20398,237.2754,77,80,1
237.2754,237.34683,75,79,1
237.34683,237.41826,74,78,1
237.41826,237.48969,72,77,1
237.48969,237.64006,74,79,1
238.081,238.36671,77,84,1
238.36671,238.43814,75,80,1
238.43814,238.50957,74,79,1
238.50957,238.581,72,78,1
238.581,238.65242,71,77,1
238.65242,238.8028,72,79,1
239.24373,239.53014,79,84,1
239.53014,239.60173,77,80,1
239.60173,239.67332,75,79,1
239.67332,239.74493,74,78,1
239.74493,239.81653,72,77,1
239.81653,239.99248,73,79,1
240.48674,242.59067,89,100,1
242.59067,242.69745,87,86,1
242.69745,242.80197,85,85,1
242.80197,242.90431,84,83,1
242.90431,243.00403,82,82,1
243.00403,243.10188,80,81,1
243.10188,243.19797,79,79,1
243.19797,243.29268,77,78,1
243.29268,243.38687,75,77,1
243.38687,243.48056,73,75,1
243.48056,243.52728,72,74,1
243.52728,243.57402,70,72,1
243.57402,243.62076,68,71,1
243.62076,243.66748,67,70,1
243.66748,243.71422,65,68,1
243.71422,243.76096,63,69,1
243.76096,243.80202,61,70,1
243.80202,243.84496,60,71,1
243.84496,243.88988,58,71,1
243.88988,243.93698,56,71,1
243.93698,243.98656,55,71,1
243.98656,244.03949,53,71,1
244.03949,244.10114,51,71,1
244.10114,246.93579,49,93,1
247.23805,247.38919,56,49,1
247.38919,247.547,58,51,1
247.547,248.00154,60,52,1
248.00154,248.15944,61,50,1
248.15944,248.61513,58,53,1
248.61513,248.77344,60,50,1
248.77344,249.07802,56,52,1
249.68715,249.83905,68,46,1
249.83905,249.99686,70,48,1
249.99686,250.4514,72,49,1
250.4514,250.6093,73,47,1
250.6093,251.065,70,49,1
251.065,251.22331,72,46,1
251.22331,251.5271,68,47,1
252.1347,252.44557,72,40,1
252.44557,252.75645,75,40,1
252.44557,252.75645,78,40,1
253.37822,253.6891,72,40,1
253.6891,253.99998,75,40,1
253.6891,253.99998,79,40,1
254.62175,254.71931,87,97,1
254.71931,254.81686,86,90,1
254.81686,254.91443,84,90,1
254.91443,255.01111,89,96,1
255.01111,255.1075,87,89,1
255.1075,255.20412,86,90,1
255.20412,255.30084,84,97,1
255.30084,255.3977,83,92,1
255.3977,255.49474,80,92,1
255.49474,255.59187,79,90,1
255.59187,255.6892,77,92,1
255.6892,255.78664,75,93,1
255.78664,255.8842,74,95,1
255.8842,255.98201,72,97,1
255.98201,256.07993,71,99,1
256.07993,256.37405,72,101,1
1.179088,1.3240225,48,40,1
1.3240225,1.4704785,51,36,1
1.4704785,1.6169345,55,36,1
1.6169345,1.771845,60,36,1
1.771845,1.916507,48,40,1
1.916507,2.062963,53,40,1
2.062963,2.209419,55,36,1
2.209419,2.363534,59,36,1
2.363534,2.5084684,48,40,1
2.5084684,2.653403,51,40,1
2.653403,2.7983375,55,36,1
2.7983375,2.9467227,60,36,1
2.9467227,3.0916574,63,40,1
3.0916574,3.2365918,67,36,1
3.2365918,3.3815262,63,36,1
3.3815262,3.526461,62,36,1
3.526461,3.6713953,60,40,1
3.6713953,3.8163297,67,36,1
3.8163297,3.9612644,63,36,1
3.8163297,3.9612644,60,36,1
3.9612644,4.118662,67,36,1
4.118662,4.2743926,62,41,1
4.118662,4.2743926,59,41,1
4.2743926,4.430124,67,36,1
4.430124,4.585855,56,36,1
4.430124,4.585855,60,36,1
4.585855,4.7415857,67,36,1
4.7415857,4.897317,55,40,1
4.897317,5.0530477,59,29,1
5.0530477,5.208779,62,28,1
5.208779,5.36451,67,28,1
5.36451,5.509444,55,40,1
5.509444,5.654379,59,31,1
5.654379,5.7993135,62,31,1
5.7993135,5.9537015,67,31,1
5.9537015,6.098636,53,40,1
6.098636,6.2454576,56,36,1
6.2454576,6.392279,59,37,1
6.392279,6.5391006,62,37,1
6.5391006,6.6834145,53,40,1
6.6834145,6.8277287,56,36,1
6.8277287,6.9720426,59,36,1
6.9720426,7.1256943,62,36,1
7.1256943,7.270629,51,40,1
7.270629,7.4174504,55,34,1
7.4174504,7.564272,60,34,1
7.564272,7.7110934,63,33,1
7.7110934,7.8557553,56,41,1
7.8557553,8.000418,60,35,1
8.000418,8.14508,63,35,1
8.14508,8.294155,66,35,1
8.294155,8.43909,55,40,1
8.43909,8.585546,60,40,1
8.585546,8.732001,63,35,1
8.732001,8.878457,67,35,1
8.878457,9.023119,55,40,1
9.023119,9.169218,59,36,1
9.169218,9.315317,62,36,1
9.315317,9.46525,67,36,1
9.618562,9.767209,48,38,1
9.767209,9.920661,51,42,1
9.920661,10.074114,55,45,1
10.074114,10.364165,60,49,1
10.808513,10.955335,41,43,1
10.955335,11.102156,47,45,1
11.102156,11.248978,50,47,1
11.248978,11.393291,53,49,1
11.393291,11.537605,56,43,1
11.537605,11.68192,55,43,1
11.68192,11.835571,53,43,1
11.980506,12.127327,39,40,1
12.127327,12.274149,43,42,1
12.274149,12.42097,48,45,1
12.42097,12.565632,51,48,1
12.565632,12.710295,55,40,1
12.710295,12.854957,56,39,1
12.854957,13.004032,54,39,1
13.004032,13.148967,43,48,1
13.148967,13.295423,55,44,1
13.295423,13.441878,60,38,1
13.441878,13.588334,55,38,1
13.588334,13.732996,43,48,1
13.732996,13.879095,55,39,1
13.879095,14.025194,59,39,1
14.025194,14.175127,55,39,1
14.175127,14.328439,48,52,1
14.328439,14.477086,60,45,1
14.477086,14.630538,59,45,1
14.630538,14.783991,60,45,1
14.783991,14.937444,52,52,1
14.937444,15.090896,60,48,1
15.090896,15.244349,55,48,1
15.244349,15.3978,60,48,1
15.3978,15.551253,53,53,1
15.551253,15.704706,60,49,1
15.704706,15.84964,56,50,1
15.84964,15.994575,60,49,1
15.994575,16.13951,55,54,1
16.13951,16.284443,65,52,1
16.284443,16.429379,59,46,1
16.429379,16.574312,65,50,1
16.574312,16.727625,56,54,1
16.727625,16.876272,63,47,1
16.876272,17.029724,60,47,1
17.029724,17.183176,63,47,1
17.183176,17.33663,55,62,1
17.33663,17.490082,64,54,1
17.490082,17.643534,60,55,1
17.643534,17.796988,64,55,1
17.796988,17.95044,53,64,1
17.95044,18.103891,65,57,1
18.103891,18.248827,60,58,1
18.248827,18.39376,65,57,1
18.39376,18.538694,55,63,1
18.538694,18.68363,67,57,1
18.68363,18.828564,55,57,1
18.828564,18.9735,67,56,1
18.9735,19.123686,60,68,1
19.273874,19.42639,59,62,1
19.273874,19.42639,55,62,1
19.578907,19.73261,60,62,1
19.578907,19.73261,48,62,1
19.886316,20.045847,55,62,1
19.886316,20.045847,43,62,1
20.20538,20.364912,48,69,1
20.20538,20.364912,36,69,1
21.481636,22.656208,46,69,1
21.481636,22.656208,34,58,1
22.656208,22.950954,44,68,1
22.656208,22.950954,32,57,1
24.11574,24.405066,60,55,1
24.11574,24.405066,52,46,1
24.405066,24.70544,60,55,1
24.405066,24.70544,52,46,1
24.70544,25.015768,60,55,1
24.70544,25.015768,52,46,1
25.015768,25.965183,60,55,1
25.015768,25.965183,53,46,1
26.281656,27.456228,44,69,1
26.281656,27.456228,32,58,1
27.456228,27.750975,43,68,1
27.456228,27.750975,31,57,1
28.91576,29.205084,58,55,1
28.91576,29.205084,50,46,1
29.205084,29.505459,58,55,1
29.205084,29.505459,50,46,1
29.505459,29.815788,58,55,1
29.505459,29.815788,50,46,1
29.815788,29.974024,51,46,1
29.974024,30.13226,58,31,1
30.13226,30.281313,63,31,1
30.281313,30.430367,58,31,1
30.430367,30.57942,56,42,1
30.57942,30.728474,58,30,1
30.728474,30.877527,62,30,1
30.877527,31.02658,58,30,1
31.02658,31.176004,55,42,1
31.176004,31.325243,58,33,1
31.325243,31.473421,63,33,1
31.473421,31.621164,58,34,1
31.621164,31.768475,50,41,1
31.768475,31.915665,58,33,1
31.915665,32.06285,62,33,1
32.06285,32.215767,58,33,1
32.215767,32.364067,51,40,1
32.364067,32.51237,58,35,1
32.51237,32.66067,63,35,1
32.66067,32.814377,58,35,1
32.814377,32.96494,56,40,1
32.96494,33.115505,58,35,1
33.115505,33.26607,65,36,1
33.26607,33.416634,58,36,1
33.416634,33.56569,55,40,1
33.56569,33.71474,58,35,1
33.71474,33.863796,63,36,1
33.863796,34.012848,58,36,1
34.012848,34.1619,50,40,1
34.1619,34.310955,58,34,1
34.310955,34.460007,50,34,1
34.460007,34.609062,58,34,1
34.609062,34.75712,51,41,1
34.75712,34.90517,58,34,1
34.90517,35.052914,51,34,1
35.052914,35.200287,58,34,1
35.200287,35.347355,56,40,1
35.347355,35.494053,58,34,1
35.494053,35.64045,56,34,1
35.64045,35.786488,58,34,1
35.786488,35.932224,54,40,1
35.932224,36.07796,58,36,1
36.07796,36.223698,54,37,1
36.223698,36.369434,58,37,1
36.369434,36.515175,50,41,1
36.515175,36.66091,58,36,1
36.66091,36.80665,50,36,1
36.80665,36.952324,58,36,1
36.952324,37.09759,51,39,1
37.09759,37.242435,58,39,1
37.242435,37.386864,54,41,1
37.386864,37.53082,58,41,1
37.53082,37.67443,46,42,1
37.67443,37.81804,58,43,1
37.81804,37.961647,50,44,1
37.961647,38.10526,58,45,1
38.10526,38.252815,47,45,1
38.252815,38.400375,58,47,1
38.400375,38.543983,51,51,1
38.543983,38.68759,58,54,1
38.68759,38.831905,47,58,1
38.831905,38.977825,57,49,1
38.977825,39.125385,51,49,1
39.125385,39.274624,57,49,1
39.274624,39.578083,46,60,1
39.578083,39.721695,65,55,1
39.578083,39.721695,62,46,1
39.578083,39.721695,58,46,1
39.865303,40.445415,63,59,1
39.865303,40.445415,66,70,1
39.865303,40.445415,58,59,1
40.747334,40.89094,65,55,1
40.747334,40.89094,62,46,1
40.747334,40.89094,58,46,1
41.034554,41.61572,63,59,1
41.034554,41.61572,66,70,1
41.034554,41.61572,58,59,1
41.61572,41.91442,65,55,1
41.61572,41.91442,62,46,1
41.61572,41.91442,58,46,1
42.20164,42.50034,68,55,1
42.20164,42.50034,65,46,1
42.20164,42.50034,58,46,1
42.78756,43.07478,68,55,1
42.78756,43.07478,58,46,1
42.78756,43.07478,62,46,1
42.78756,43.07478,65,46,1
43.9472,44.237724,51,55,1
44.621265,44.722626,58,45,1
44.716656,44.818264,60,48,1
44.81228,44.914135,62,50,1
44.908134,45.01024,60,48,1
45.004223,45.106594,58,45,1
45.100548,45.39006,63,55,1
45.773426,45.875164,58,43,1
45.869164,45.971146,60,47,1
45.965134,46.06737,62,50,1
46.061344,46.163826,60,48,1
46.157784,46.260437,58,45,1
46.25441,46.543266,63,55,1
46.830715,47.117233,63,55,1
47.40966,47.69618,63,55,1
47.40966,47.69618,61,55,1
47.40966,47.69618,55,55,1
47.40966,47.69618,58,55,1
48.55819,48.655113,44,52,1
48.655113,48.751854,48,54,1
48.751854,48.848476,51,56,1
48.848476,49.137398,56,59,1
49.724133,50.019245,67,57,1
49.724133,50.019245,63,48,1
49.724133,50.019245,58,48,1
50.325043,50.624664,68,58,1
50.325043,50.624664,65,49,1
50.325043,50.624664,58,49,1
50.937984,51.255325,67,58,1
50.937984,51.255325,63,49,1
52.20725,52.364613,56,33,1
52.20725,52.364613,58,39,1
52.521557,52.67809,58,40,1
52.521557,52.67809,56,34,1
52.834206,52.989902,56,35,1
52.834206,52.989902,58,42,1
53.145195,53.31006,58,43,1
53.145195,53.31006,56,36,1
53.474922,54.42179,58,45,1
53.474922,54.42179,55,37,1
54.42179,54.737415,55,42,1
54.737415,55.362858,60,45,1
55.362858,55.99496,59,43,1
55.99496,56.93437,58,43,1
57.247505,57.40407,56,37,1
57.247505,57.40407,62,44,1
57.56071,57.717484,62,47,1
57.56071,57.717484,56,39,1
57.873634,58.029163,56,42,1
57.873634,58.029163,62,51,1
58.184074,58.33859,62,55,1
58.184074,58.33859,56,46,1
58.4931,59.77922,63,60,1
58.4931,59.77922,55,50,1
59.77922,60.092358,63,72,1
59.77922,60.092358,56,61,1
60.40549,60.718628,58,72,1
60.40549,60.718628,46,61,1
61.129314,61.23222,63,55,1
61.226177,61.32877,65,55,1
61.322742,61.42508,67,59,1
61.419067,61.521095,65,55,1
61.515095,61.616863,63,55,1
61.610893,62.18929,68,59,1
62.18929,62.2927,67,59,1
62.28666,62.389385,63,55,1
62.383343,62.485935,65,55,1
62.479904,62.582245,67,59,1
62.576233,62.678257,65,55,1
62.67226,62.774025,63,55,1
62.76806,63.350426,68,59,1
63.350426,63.496254,63,55,1
63.350426,63.496254,67,55,1
63.644108,63.788,60,52,1
63.92796,64.07122,56,52,1
64.21448,64.357735,58,52,1
64.604454,64.70736,39,49,1
64.70132,64.80391,41,49,1
64.79788,64.90022,43,53,1
64.8942,64.99623,41,49,1
64.990234,65.092,39,49,1
65.08603,65.66443,44,70,1
65.66443,65.767845,43,53,1
65.7618,65.864525,39,49,1
65.85848,65.961075,41,49,1
65.95505,66.05738,43,53,1
66.05137,66.1534,41,49,1
66.1474,66.24917,39,49,1
66.243195,66.82556,44,70,1
66.82556,66.92898,43,53,1
66.922935,67.025665,39,49,1
67.019615,67.12221,41,49,1
67.11618,67.21852,43,53,1
67.21251,67.31454,41,49,1
67.30853,67.4103,39,49,1
67.404335,69.15096,44,70,1
69.15096,71.60509,43,80,1
69.15096,71.60509,31,75,1
71.60509,74.07592,53,82,1
71.60509,74.07592,50,69,1
71.60509,74.07592,43,69,1
74.73624,74.88117,48,40,1
74.88117,75.027626,51,36,1
75.027626,75.17593,55,36,1
75.17593,75.33084,60,36,1
75.33084,75.4755,48,40,1
75.4755,75.621956,53,40,1
75.621956,75.76842,55,36,1
75.76842,75.92253,59,36,1
75.92253,76.06747,48,40,1
76.06747,76.212395,51,40,1
76.212395,76.35733,55,36,1
76.35733,76.50572,60,36,1
76.50572,76.65065,63,40,1
76.65065,76.795586,67,36,1
76.795586,76.94052,63,36,1
76.94052,77.08546,62,36,1
77.08546,77.23039,60,40,1
77.23039,77.37533,67,36,1
77.37533,77.520256,63,36,1
77.37533,77.520256,60,36,1
77.520256,77.67766,67,36,1
77.67766,77.83339,62,41,1
77.67766,77.83339,59,41,1
77.83339,77.98912,67,36,1
77.98912,78.14485,56,36,1
77.98912,78.14485,60,36,1
78.14485,78.30058,67,36,1
78.30058,78.456314,55,40,1
78.456314,78.612045,59,29,1
78.612045,78.76778,62,28,1
78.76778,78.92351,67,28,1
78.92351,79.06844,55,40,1
79.06844,79.21337,59,31,1
79.21337,79.35831,62,31,1
79.35831,79.512695,67,31,1
79.512695,79.65763,53,40,1
79.65763,79.80445,56,36,1
79.80445,79.95127,59,37,1
79.95127,80.0981,62,37,1
80.0981,80.24241,53,40,1
80.24241,80.38673,56,36,1
80.38673,80.53104,59,36,1
80.53104,80.68469,62,36,1
80.68469,80.82963,51,40,1
80.82963,80.97645,55,34,1
80.97645,81.12327,60,34,1
81.12327,81.27009,63,33,1
81.27009,81.41475,56,41,1
81.41475,81.55941,60,35,1
81.55941,81.70407,63,35,1
81.70407,81.85315,66,35,1
81.85315,81.998085,55,40,1
81.998085,82.14454,60,40,1
82.14454,82.291,63,35,1
82.291,82.437454,67,35,1
82.437454,82.582115,55,40,1
82.582115,82.72821,59,36,1
82.72821,82.87431,62,36,1
82.87431,83.02425,67,36,1
83.17756,83.3262,48,38,1
83.3262,83.47966,51,42,1
83.47966,83.63311,55,45,1
83.63311,83.92316,60,49,1
84.36751,84.51433,41,43,1
84.51433,84.66115,47,45,1
84.66115,84.807976,50,47,1
84.807976,84.952286,53,49,1
84.952286,85.0966,56,43,1
85.0966,85.24091,55,43,1
85.24091,85.39457,53,43,1
85.539505,85.686325,39,40,1
85.686325,85.833145,43,42,1
85.833145,85.979965,48,45,1
85.979965,86.124626,51,48,1
86.124626,86.26929,55,40,1
86.26929,86.41395,56,39,1
86.41395,86.56303,54,39,1
86.56303,86.70796,43,48,1
86.70796,86.854416,55,44,1
86.854416,87.00088,60,38,1
87.00088,87.14733,55,38,1
87.14733,87.29199,43,48,1
87.29199,87.43809,55,39,1
87.43809,87.58419,59,39,1
87.58419,87.73412,55,39,1
87.73412,87.887436,48,52,1
87.887436,88.03608,60,45,1
88.03608,88.18954,59,45,1
88.18954,88.34299,60,45,1
88.34299,88.49644,52,52,1
88.49644,88.649895,60,48,1
88.649895,88.803345,55,48,1
88.803345,88.956795,60,48,1
88.956795,89.11025,53,53,1
89.11025,89.2637,60,49,1
89.2637,89.40864,56,50,1
89.40864,89.55357,60,49,1
89.55357,89.6985,55,54,1
89.6985,89.84344,65,52,1
89.84344,89.98837,59,43,1
89.98837,90.13331,65,50,1
90.13331,90.28662,56,54,1
90.28662,90.435265,63,47,1
90.435265,90.58872,60,47,1
90.58872,90.74217,63,47,1
90.74217,90.89562,55,62,1
90.89562,91.04908,64,54,1
91.04908,91.20253,60,55,1
91.20253,91.35598,64,55,1
91.35598,91.50944,53,64,1
91.50944,91.66289,65,57,1
91.66289,91.80782,60,58,1
91.80782,91.95276,65,57,1
91.95276,92.097694,55,63,1
92.097694,92.24262,67,57,1
92.24262,92.38756,55,57,1
92.38756,92.53249,67,56,1
92.53249,92.68268,60,68,1
92.83287,92.98538,59,62,1
92.83287,92.98538,55,62,1
93.1379,93.2916,60,62,1
93.1379,93.2916,48,62,1
93.44531,93.60484,55,62,1
93.44531,93.60484,43,62,1
93.76437,93.923904,48,69,1
93.76437,93.923904,36,69,1
94.562035,94.721565,44,46,1
94.721565,94.881096,48,48,1
94.881096,95.040634,51,50,1
95.040634,95.67876,56,51,1
95.67876,96.31689,49,48,1
96.31689,96.95502,55,48,1
96.95502,97.59314,48,45,1
97.59314,97.91221,53,48,1
97.91221,98.55034,46,48,1
98.55034,98.8694,48,48,1
98.8694,99.18846,49,51,1
99.18846,99.50753,50,46,1
99.50753,99.82659,51,46,1
99.82659,100.14565,39,42,1
100.14565,100.78378,44,51,1
100.78378,101.42191,49,49,1
101.42191,102.060036,43,51,1
102.060036,102.698166,48,49,1
102.698166,103.336296,41,52,1
103.336296,103.65536,43,51,1
103.65536,103.97443,44,49,1
103.97443,104.29349,45,53,1
104.29349,104.61255,46,50,1
104.61255,104.93162,39,49,1
105.56974,106.20787,60,51,1
105.56974,106.20787,56,43,1
106.20787,106.846,53,48,1
106.20787,106.846,49,40,1
106.846,107.48413,58,51,1
106.846,107.48413,55,43,1
107.48413,108.12225,51,48,1
107.48413,108.12225,48,40,1
108.12225,108.44132,56,51,1
108.12225,108.44132,53,43,1
108.44132,108.76038,46,51,1
108.76038,109.079445,48,51,1
109.079445,109.39851,49,49,1
109.39851,109.717575,50,49,1
109.717575,110.03664,51,49,1
110.355705,110.99383,56,43,1
110.355705,110.99383,60,51,1
110.99383,111.63196,61,42,1
110.99383,111.63196,65,50,1
111.63196,112.27009,55,46,1
111.63196,112.27009,58,54,1
112.27009,112.90822,60,45,1
112.27009,112.90822,63,54,1
112.90822,113.54634,53,59,1
113.54634,113.86541,55,60,1
113.86541,114.18447,56,58,1
114.18447,114.50353,57,64,1
114.50353,114.8226,58,62,1
114.8226,115.14166,51,61,1
115.14166,115.460724,63,64,1
115.460724,115.77979,62,65,1
115.77979,116.098854,63,65,1
116.098854,116.41792,66,65,1
116.41792,116.736984,57,61,1
116.736984,116.896515,58,62,1
117.694176,118.01324,51,54,1
117.694176,118.01324,61,65,1
118.01324,118.332306,56,62,1
118.01324,118.332306,60,62,1
118.97043,119.2895,56,63,1
118.97043,119.2895,46,53,1
119.2895,119.60856,55,63,1
119.2895,119.60856,51,63,1
120.0836,120.1616,75,49,1
120.239586,120.31758,77,49,1
120.39557,120.473564,79,49,1
120.55155,120.70675,80,49,1
120.70675,120.86169,79,49,1
120.86169,121.016365,77,49,1
121.016365,121.17079,75,49,1
121.17079,121.32483,73,49,1
121.32483,121.47861,72,49,1
121.47861,121.63213,70,49,1
121.63213,121.78535,68,49,1
121.78535,121.93825,67,49,1
121.93825,122.09114,65,49,1
122.09114,122.24404,63,49,1
122.24404,122.396935,61,49,1
122.396935,122.549835,60,49,1
122.549835,122.70273,58,49,1
122.70273,122.85563,56,49,1
122.85563,123.00853,55,49,1
123.00853,123.16142,53,51,1
123.16142,123.31383,51,51,1
123.31383,123.46376,49,52,1
123.46376,123.61369,48,53,1
123.61369,123.763626,46,53,1
123.763626,123.91356,45,54,1
123.91356,124.06349,46,55,1
124.06349,124.213425,48,55,1
124.213425,124.36336,49,55,1
124.36336,124.51329,48,56,1
124.51329,124.66322,49,57,1
124.66322,124.813156,50,58,1
124.813156,124.96309,51,59,1
124.96309,125.113014,53,60,1
125.113014,125.26295,54,61,1
125.26295,125.41282,55,62,1
125.41282,126.00963,44,76,1
126.00963,126.60544,49,72,1
126.60544,127.20023,43,77,1
127.20023,127.79409,48,71,1
127.79409,128.3866,41,76,1
128.3866,129.56845,41,76,1
128.3866,129.56845,29,76,1
129.56845,130.15785,42,75,1
129.56845,130.15785,30,75,1
130.15785,130.44781,31,75,1
130.59189,130.6643,38,54,1
130.6643,130.7371,35,55,1
130.7371,130.80995,31,67,1
131.17113,131.24374,39,55,1
131.24374,131.3167,36,55,1
131.3167,131.3898,31,69,1
131.75206,131.82484,41,57,1
131.82484,131.89801,38,57,1
131.89801,131.97112,31,70,1
132.33276,132.40532,39,59,1
132.40532,132.47823,36,59,1
132.47823,132.55115,31,81,1
132.91243,132.98492,50,59,1
132.98492,133.05783,47,59,1
133.05783,133.13084,43,74,1
133.49348,133.5665,51,59,1
133.5665,133.63983,48,59,1
133.63983,133.71301,43,76,1
134.07489,134.14738,53,62,1
134.14738,134.2202,50,62,1
134.2202,134.29337,43,76,1
134.65604,134.72882,51,65,1
134.72882,134.80194,48,65,1
134.80194,134.87527,43,88,1
135.23846,135.31157,62,70,1
135.31157,135.3851,59,70,1
135.3851,135.45872,55,86,1
135.82254,135.89555,63,68,1
135.89555,135.96896,60,68,1
135.96896,136.0425,55,86,1
136.40549,136.47827,65,70,1
136.47827,136.55154,62,70,1
136.55154,136.625,55,86,1
136.98882,137.06206,63,71,1
137.06206,137.13568,60,71,1
137.13568,137.20947,55,80,1
138.0076,138.1049,55,67,1
138.1049,138.20277,50,67,1
138.20277,138.30113,47,66,1
138.30113,138.59578,43,80,1
139.17584,139.27333,55,67,1
139.27333,139.37132,50,67,1
139.37132,139.46977,47,66,1
139.46977,139.76375,43,80,1
140.3428,140.4401,43,67,1
140.4401,140.53786,38,67,1
140.53786,140.63614,35,66,1
140.63614,140.93028,31,80,1
141.82161,144.27527,43,80,1
141.82161,144.27527,31,75,1
144.27527,146.7461,50,69,1
144.27527,146.7461,53,82,1
144.27527,146.7461,43,69,1
147.50937,147.65431,48,40,1
147.65431,147.80077,51,36,1
147.80077,147.94907,55,36,1
147.94907,148.10397,60,36,1
148.10397,148.24864,48,40,1
148.24864,148.3951,53,40,1
148.3951,148.54155,55,36,1
148.54155,148.69566,59,36,1
148.69566,148.8406,48,40,1
148.8406,148.98553,51,40,1
148.98553,149.13046,55,36,1
149.13046,149.27885,60,36,1
149.27885,149.42378,63,40,1
149.42378,149.56873,67,36,1
149.56873,149.71365,63,36,1
149.71365,149.8586,62,36,1
149.8586,150.00352,60,40,1
150.00352,150.14847,67,36,1
150.14847,150.2934,63,36,1
150.14847,150.2934,60,36,1
150.2934,150.45079,67,36,1
150.45079,150.60652,62,41,1
150.45079,150.60652,59,41,1
150.60652,150.76225,67,36,1
150.76225,150.91798,56,36,1
150.76225,150.91798,60,36,1
150.91798,151.07372,67,36,1
151.07372,151.22945,55,40,1
151.22945,151.38518,59,29,1
151.38518,151.54091,62,28,1
151.54091,151.69664,67,28,1
151.69664,151.84157,55,40,1
151.84157,151.98651,59,31,1
151.98651,152.13144,62,31,1
152.13144,152.28583,67,31,1
152.28583,152.43077,53,40,1
152.43077,152.57759,56,36,1
152.57759,152.72441,59,37,1
152.72441,152.87123,62,37,1
152.87123,153.01555,53,40,1
153.01555,153.15987,56,36,1
153.15987,153.30417,59,36,1
153.30417,153.45782,62,36,1
153.45782,153.60275,51,40,1
153.60275,153.74959,55,34,1
153.74959,153.89641,60,34,1
153.89641,154.04323,63,33,1
154.04323,154.18788,56,41,1
154.18788,154.33255,60,35,1
154.33255,154.4772,63,35,1
154.4772,154.62628,66,35,1
154.62628,154.77122,55,40,1
154.77122,154.91768,60,40,1
154.91768,155.06413,63,35,1
155.06413,155.21059,67,35,1
155.21059,155.35526,55,40,1
155.35526,155.50134,59,36,1
155.50134,155.64745,62,36,1
155.64745,155.79738,67,36,1
155.9507,156.09933,36,38,1
156.09933,156.25279,39,42,1
156.25279,156.40625,43,45,1
156.40625,156.5597,48,45,1
156.5597,156.71315,51,45,1
156.71315,156.86661,53,50,1
156.86661,157.02715,55,52,1
157.02715,157.61255,56,54,1
157.61255,157.90118,50,51,1
157.90118,158.05183,51,50,1
158.05183,158.2109,53,52,1
158.2109,158.79631,55,54,1
158.79631,159.08563,48,51,1
159.08563,159.23029,58,50,1
159.23029,159.37495,60,52,1
159.37495,159.96036,61,54,1
159.96036,160.24898,55,51,1
160.24898,160.39964,56,50,1
160.39964,160.55872,58,52,1
160.55872,161.1441,60,54,1
161.1441,161.43344,53,51,1
161.75534,162.0523,60,54,1
162.0523,162.34927,65,54,1
161.75534,162.34927,56,54,1
162.34927,162.64624,60,54,1
162.64624,162.94322,66,54,1
162.34927,162.94322,56,54,1
162.94322,163.25969,55,46,1
163.25969,163.5578,67,31,1
163.5578,163.85591,65,42,1
163.85591,164.154,67,30,1
164.154,164.45267,64,42,1
164.45267,164.7486,67,33,1
164.7486,165.04309,59,41,1
165.04309,165.3432,67,33,1
165.3432,165.6398,60,40,1
165.6398,165.9418,67,35,1
165.9418,166.24294,65,40,1
166.24294,166.54407,67,36,1
165.9418,166.54407,74,40,1
166.54407,166.84218,64,40,1
166.84218,167.14027,67,36,1
166.54407,167.14027,72,40,1
167.14027,167.43839,59,40,1
167.43839,167.7365,67,34,1
167.7365,168.03285,60,41,1
168.03285,168.32945,67,34,1
168.32945,168.62605,65,40,1
168.62605,168.9265,67,34,1
168.9265,169.22517,64,42,1
169.22517,169.52109,67,33,1
169.52109,169.81558,59,41,1
169.81558,170.11569,67,33,1
170.11569,170.4123,60,40,1
170.4123,170.7143,67,35,1
170.7143,171.01543,72,40,1
171.01543,171.31656,67,36,1
170.7143,171.31656,64,40,1
171.31656,171.61,72,42,1
171.31656,171.90181,65,38,1
171.61,171.90811,69,38,1
171.90811,172.19948,73,44,1
172.19948,172.49655,69,38,1
171.90811,172.49655,65,37,1
172.49655,172.78723,74,46,1
172.49655,172.78723,65,46,1
172.78723,173.08896,69,42,1
173.08896,173.38379,65,48,1
173.38379,173.6892,66,41,1
173.6892,173.7809,67,55,1
174.36392,174.46529,62,45,1
174.45932,174.56093,64,48,1
174.55493,174.65678,66,50,1
174.65079,174.7529,64,48,1
174.74689,174.84924,62,45,1
174.8432,174.93385,67,55,1
175.51608,175.61781,62,43,1
175.61182,175.7138,64,47,1
175.7078,175.81003,66,50,1
175.804,175.90648,64,48,1
175.90044,176.0031,62,45,1
175.99707,176.08748,67,55,1
176.57336,176.8599,67,55,1
177.15231,177.43884,65,55,1
177.15231,177.43884,62,46,1
177.15231,177.43884,55,46,1
177.15231,177.43884,59,46,1
178.30084,178.59204,48,55,1
178.97557,179.07693,55,45,1
179.07097,179.17258,57,48,1
179.1666,179.26845,59,50,1
179.26245,179.36455,57,48,1
179.35854,179.4609,55,45,1
179.45486,179.74437,60,55,1
180.12773,180.22948,55,43,1
180.22348,180.32545,57,47,1
180.31944,180.42168,59,50,1
180.41565,180.51814,57,48,1
180.5121,180.61475,55,45,1
180.60872,180.89758,60,55,1
181.18503,181.47154,60,55,1
181.76398,182.05049,60,55,1
181.76398,182.05049,58,46,1
181.76398,182.05049,52,46,1
181.76398,182.05049,55,46,1
182.9125,183.00961,41,52,1
183.00961,183.10641,45,54,1
183.10641,183.20303,48,56,1
183.20303,183.49196,53,59,1
184.07869,184.37381,64,57,1
184.07869,184.37381,60,48,1
184.07869,184.37381,55,48,1
184.6796,184.97922,65,58,1
184.6796,184.97922,62,49,1
184.6796,184.97922,55,49,1
185.29254,185.60988,64,58,1
185.29254,185.60988,60,49,1
186.56181,186.71916,65,33,1
186.56181,186.71916,67,39,1
186.87611,187.03264,67,40,1
186.87611,187.03264,65,34,1
187.18877,187.34447,65,35,1
187.18877,187.34447,67,42,1
187.49976,187.66461,67,43,1
187.49976,187.66461,65,36,1
187.82948,188.76978,67,45,1
187.82948,188.76978,64,37,1
188.77635,189.09196,64,42,1
189.09196,189.70515,69,45,1
189.7174,190.33672,69,43,1
190.34952,190.66266,67,43,1
191.60638,191.76375,53,33,1
191.60638,191.76375,55,39,1
191.9207,192.07722,55,40,1
191.9207,192.07722,53,34,1
192.23334,192.38904,53,35,1
192.23334,192.38904,55,42,1
192.54434,192.7092,55,43,1
192.54434,192.7092,53,36,1
192.87405,193.82092,55,45,1
192.87405,193.82092,51,37,1
193.82092,194.1384,51,41,1
194.1384,194.29575,56,39,1
194.4527,194.60922,56,44,1
194.76535,194.92105,56,44,1
194.76535,194.92105,58,44,1
195.07634,195.2412,58,46,1
195.07634,195.2412,56,46,1
195.40607,196.35294,58,50,1
195.40607,196.35294,55,50,1
196.35294,196.6704,55,51,1
196.6704,196.82776,60,47,1
196.9847,197.14124,63,48,1
196.9847,197.14124,60,48,1
197.29735,197.45305,60,50,1
197.29735,197.45305,63,50,1
197.60834,197.77321,63,51,1
197.60834,197.77321,60,51,1
197.93806,198.88493,62,54,1
197.93806,198.88493,59,54,1
198.88493,199.21466,63,53,1
198.88493,199.21466,60,53,1
199.21466,200.16153,62,55,1
199.21466,200.16153,59,55,1
200.16153,200.49126,68,54,1
200.16153,200.49126,65,54,1
200.49126,201.43813,67,56,1
200.49126,201.43813,63,56,1
201.43813,201.76785,68,49,1
201.43813,201.76785,65,49,1
201.76785,202.71472,67,52,1
201.76785,202.71472,63,52,1
202.71472,203.04443,68,43,1
202.71472,203.04443,65,36,1
207.92494,208.26013,43,42,1
208.26013,208.40508,48,40,1
208.40508,208.55153,51,36,1
208.55153,208.69798,55,36,1
208.69798,208.85289,60,36,1
208.85289,208.99756,48,40,1
208.99756,209.14401,53,40,1
209.14401,209.29047,55,36,1
209.29047,209.44458,59,36,1
209.44458,209.58951,48,40,1
209.58951,209.73445,51,40,1
209.73445,209.87938,55,36,1
209.87938,210.02777,60,36,1
210.02777,210.1727,63,40,1
210.1727,210.31764,67,36,1
210.31764,210.46257,63,36,1
210.46257,210.60751,62,36,1
210.60751,210.75244,60,40,1
210.75244,210.89737,67,36,1
210.89737,211.04231,63,36,1
210.89737,211.04231,60,36,1
211.04231,211.1997,67,36,1
211.1997,211.35544,62,41,1
211.1997,211.35544,59,41,1
211.35544,211.51117,67,36,1
211.51117,211.6669,56,36,1
211.51117,211.6669,60,36,1
211.6669,211.82263,67,36,1
211.82263,211.97836,55,40,1
211.97836,212.1341,59,29,1
212.1341,212.28983,62,28,1
212.28983,212.44556,67,28,1
212.44556,212.59048,55,40,1
212.59048,212.73543,59,31,1
212.73543,212.88036,62,31,1
212.88036,213.03474,67,31,1
213.03474,213.17969,53,40,1
213.17969,213.3265,56,36,1
213.3265,213.47333,59,37,1
213.47333,213.62015,62,37,1
213.62015,213.76447,53,40,1
213.76447,213.90878,56,36,1
213.90878,214.05309,59,36,1
214.05309,214.20674,62,36,1
214.20674,214.35167,51,40,1
214.35167,214.4985,55,34,1
214.4985,214.64532,60,34,1
214.64532,214.79214,63,33,1
214.79214,214.9368,56,41,1
214.9368,215.08147,60,35,1
215.08147,215.22612,63,35,1
215.22612,215.3752,66,35,1
215.3752,215.52014,55,40,1
215.52014,215.6666,60,40,1
215.6666,215.81305,63,35,1
215.81305,215.9595,67,35,1
215.9595,216.10417,55,40,1
216.10417,216.25026,59,36,1
216.25026,216.39636,62,36,1
216.39636,216.5463,67,36,1
216.5463,216.83774,60,57,1
217.71056,217.85513,41,58,1
217.85513,217.99973,44,48,1
217.99973,218.1443,47,49,1
218.1443,218.28888,50,51,1
218.28888,218.43346,41,53,1
218.43346,218.57803,44,54,1
218.57803,218.72261,47,56,1
218.72261,218.87149,50,57,1
218.87149,219.01607,39,58,1
219.01607,219.16064,43,57,1
219.16064,219.30524,48,55,1
219.30524,219.44981,51,56,1
219.44981,219.59439,44,57,1
219.59439,219.73897,48,57,1
219.73897,219.88354,51,58,1
219.88354,220.03242,54,60,1
220.03242,220.177,43,64,1
220.177,220.32158,48,58,1
220.32158,220.46616,51,63,1
220.46616,220.61075,55,63,1
220.61075,220.75533,43,62,1
220.75533,220.8999,55,61,1
220.8999,221.04448,43,58,1
221.04448,221.18906,55,57,1
221.18906,221.34079,48,67,1
221.34079,221.48712,60,52,1
221.48712,221.63074,59,60,1
221.63074,221.77434,60,52,1
221.77434,221.92363,58,64,1
221.92363,222.06725,60,51,1
222.06725,222.21085,55,57,1
222.21085,222.35446,60,50,1
222.35446,222.50618,56,63,1
222.50618,222.65253,60,50,1
222.65253,222.79614,53,57,1
222.79614,222.93974,60,50,1
222.93974,223.08904,58,59,1
223.08904,223.23264,60,50,1
223.23264,223.37625,55,55,1
223.37625,223.51987,60,50,1
223.51987,223.67159,56,63,1
223.67159,223.81793,60,50,1
223.81793,223.96155,53,57,1
223.96155,224.10515,60,50,1
224.10515,224.25444,58,59,1
224.25444,224.39804,60,50,1
224.39804,224.54166,55,55,1
224.54166,224.68526,60,50,1
224.68526,224.83269,56,77,1
224.98071,225.13535,56,73,1
224.98071,225.13535,44,62,1
224.98071,225.13535,48,62,1
224.98071,225.13535,51,62,1
225.28998,225.44463,55,73,1
225.28998,225.44463,43,62,1
225.28998,225.44463,48,62,1
225.28998,225.44463,51,62,1
225.59926,225.7539,55,73,1
225.59926,225.7539,43,62,1
225.59926,225.7539,47,62,1
225.59926,225.7539,50,62,1
225.90854,226.06027,36,76,1
226.06027,226.2066,48,52,1
226.2066,226.35022,47,60,1
226.35022,226.49384,48,52,1
226.49384,226.64311,46,64,1
226.64311,226.78673,48,51,1
226.78673,226.93033,43,57,1
226.93033,227.07394,48,50,1
227.07394,227.22568,44,63,1
227.22568,227.37201,48,50,1
227.37201,227.51562,41,57,1
227.51562,227.65923,48,50,1
227.65923,227.80852,46,59,1
227.80852,227.95213,48,50,1
227.95213,228.09573,43,55,1
228.09573,228.23935,48,50,1
228.23935,228.39107,44,63,1
228.39107,228.53741,48,50,1
228.53741,228.68103,41,57,1
228.68103,228.82463,48,50,1
228.82463,228.97392,46,59,1
228.97392,229.11752,48,50,1
229.11752,229.26114,43,55,1
229.26114,229.40875,48,50,1
229.40875,229.69585,44,45,1
229.69585,229.98672,56,45,1
229.69585,229.98672,44,45,1
230.27313,230.41632,56,49,1
230.27313,230.41632,44,41,1
230.27313,230.41632,48,41,1
230.27313,230.41632,51,41,1
230.84996,230.99315,55,52,1
230.84996,230.99315,43,44,1
230.84996,230.99315,48,44,1
230.84996,230.99315,51,44,1
231.42517,231.56769,54,55,1
231.42517,231.56769,42,46,1
231.42517,231.56769,48,46,1
231.42517,231.56769,51,46,1
231.99931,232.1415,53,57,1
231.99931,232.1415,41,48,1
231.99931,232.1415,47,48,1
231.99931,232.1415,50,48,1
232.57109,232.71294,51,60,1
232.57109,232.71294,39,51,1
232.57109,232.71294,43,51,1
232.57109,232.71294,48,51,1
233.14044,233.28166,53,63,1
233.14044,233.28166,41,53,1
233.14044,233.28166,44,53,1
233.14044,233.28166,50,53,1
233.71101,233.85252,55,66,1
233.71101,233.85252,43,56,1
233.71101,233.85252,47,56,1
233.71101,233.85252,50,56,1
233.9987,234.14908,48,77,1
233.9987,234.14908,36,65,1
234.29945,235.16286,60,83,1
234.29945,235.16286,55,70,1
234.29945,235.16286,51,70,1
235.16286,235.31323,62,77,1
235.16286,235.31323,53,65,1
235.16286,235.31323,56,65,1
235.16286,235.31323,60,65,1
235.46361,236.32695,62,83,1
235.46361,236.32695,59,70,1
235.46361,236.32695,55,70,1
236.32695,236.47733,60,77,1
236.32695,236.47733,55,65,1
236.32695,236.47733,51,65,1
236.6277,237.48969,60,83,1
236.6277,237.48969,55,70,1
236.6277,237.48969,51,70,1
237.48969,237.64006,62,77,1
237.48969,237.64006,53,65,1
237.48969,237.64006,56,65,1
237.48969,237.64006,60,65,1
237.79044,238.65242,62,83,1
237.79044,238.65242,59,70,1
237.79044,238.65242,55,70,1
238.65242,238.8028,60,77,1
238.65242,238.8028,55,65,1
238.65242,238.8028,51,65,1
238.95319,239.81653,60,83,1
238.95319,239.81653,55,70,1
238.95319,239.81653,51,70,1
239.81653,239.99248,61,77,1
239.81653,239.99248,56,65,1
239.81653,239.99248,53,65,1
240.16843,240.80504,61,83,1
240.16843,240.80504,56,70,1
240.16843,240.80504,53,70,1
240.80504,241.046,61,84,1
240.80504,241.046,56,71,1
240.80504,241.046,53,71,1
241.28697,243.48056,63,91,1
241.28697,243.48056,55,77,1
241.28697,243.48056,58,77,1
241.28697,243.48056,61,77,1
244.10114,246.93579,43,82,1
244.10114,246.93579,39,69,1
244.10114,246.93579,31,69,1
247.547,248.15944,51,40,1
248.15944,248.77344,49,40,1
247.547,248.77344,44,40,1
248.77344,249.07802,48,40,1
248.77344,249.07802,44,40,1
249.99686,250.6093,63,38,1
250.6093,251.22331,61,37,1
249.99686,251.22331,56,38,1
251.22331,251.5271,60,36,1
251.22331,251.5271,56,36,1
252.44557,252.75645,68,35,1
253.6891,253.99998,67,34,1
254.91443,255.20412,55,79,1
254.91443,255.20412,43,67,1
254.91443,255.20412,47,67,1
254.91443,255.20412,50,67,1
256.07993,256.37405,48,82,1
256.07993,256.37405,36,69,1
256.07993,256.37405,39,69,1
256.07993,256.37405,43,69,1
