start_time,end_time,note_value,velocity,instrument_program_number
0.0,4.125,60,93,1
0.0,4.125,55,79,1
0.0,4.125,51,79,1
4.125,4.5,60,47,1
4.125,4.5,55,40,1
4.5,5.625,62,50,1
4.5,5.625,59,42,1
4.5,5.625,55,42,1
5.625,6.022059,63,46,1
5.625,6.022059,60,46,1
5.625,6.022059,55,39,1
6.0661764,9.353848,63,50,1
6.0661764,9.353848,60,50,1
6.0661764,9.353848,57,42,1
9.353848,10.853848,62,36,1
9.353848,10.853848,59,29,1
12.353848,16.47885,65,104,1
12.353848,16.47885,62,91,1
12.353848,16.47885,59,91,1
16.47885,16.816349,65,50,1
16.47885,16.816349,59,42,1
16.47885,16.816349,62,42,1
16.85385,17.97885,67,53,1
16.85385,17.97885,62,44,1
16.85385,17.97885,59,44,1
17.97885,18.370153,59,41,1
17.97885,18.370153,68,49,1
17.97885,18.370153,62,49,1
18.413631,21.701303,62,53,1
18.413631,21.701303,59,44,1
18.413631,21.701303,68,53,1
21.701303,23.201303,63,31,1
21.701303,23.201303,67,38,1
21.701303,23.201303,60,31,1
24.701303,28.826303,72,102,1
24.701303,28.826303,69,88,1
24.701303,28.826303,66,88,1
28.826303,29.163803,72,58,1
28.826303,29.163803,66,49,1
28.826303,29.163803,69,49,1
29.201303,30.35515,74,64,1
29.201303,30.35515,69,54,1
29.201303,30.35515,66,54,1
30.35515,30.73015,66,57,1
30.35515,30.73015,75,67,1
30.35515,30.73015,69,67,1
30.771816,33.971817,69,62,1
30.771816,33.971817,66,62,1
30.771816,33.971817,75,74,1
33.971817,34.346817,67,35,1
33.971817,34.346817,74,42,1
33.971817,34.346817,62,35,1
35.096817,35.434315,72,60,1
35.096817,35.434315,66,51,1
35.096817,35.434315,69,51,1
35.471817,36.671818,74,67,1
35.471817,36.671818,69,56,1
35.471817,36.671818,66,56,1
36.671818,37.031815,66,59,1
36.671818,37.031815,75,70,1
36.671818,37.031815,69,70,1
37.071815,40.071815,69,65,1
37.071815,40.071815,66,65,1
37.071815,40.071815,75,77,1
40.071815,41.50039,74,55,1
40.071815,41.50039,67,47,1
41.50039,43.144222,76,63,1
41.50039,43.144222,72,53,1
41.50039,43.144222,67,53,1
43.144222,43.850105,77,70,1
43.144222,43.850105,72,58,1
43.144222,43.850105,68,58,1
44.55599,46.478523,80,84,1
46.478523,46.667606,79,61,1
46.667606,46.85279,80,63,1
46.85279,47.037224,82,65,1
47.037224,47.21868,80,67,1
47.21868,47.396553,79,67,1
47.396553,47.571655,77,67,1
47.571655,47.749542,75,67,1
47.749542,47.93324,74,67,1
47.93324,48.124756,72,67,1
48.124756,48.323025,70,67,1
48.323025,48.414566,68,63,1
48.414566,48.507698,67,62,1
48.507698,48.602524,65,60,1
48.602524,48.699795,63,59,1
48.699795,48.79988,62,58,1
48.79988,48.90199,65,57,1
48.90199,49.006374,68,55,1
49.006374,49.11386,65,54,1
49.11386,49.210636,62,53,1
49.210636,49.960636,63,50,1
50.710636,53.335636,75,55,1
50.710636,53.335636,63,46,1
53.335636,53.710636,75,55,1
53.335636,53.710636,63,46,1
53.710636,54.835636,77,57,1
53.710636,54.835636,65,48,1
54.835636,55.23147,79,59,1
54.835636,55.23147,67,49,1
55.2523,56.7523,79,59,1
55.2523,56.7523,67,49,1
56.7523,57.5023,77,50,1
56.7523,57.5023,65,42,1
57.8773,58.2523,65,90,1
58.2523,59.33664,65,96,1
58.2523,59.33664,53,81,1
58.2523,59.33664,56,81,1
58.2523,59.33664,59,81,1
59.33664,59.68001,65,89,1
59.33664,59.68001,53,74,1
59.33664,59.68001,56,74,1
59.33664,59.68001,59,74,1
59.698086,60.78242,65,93,1
59.698086,60.78242,53,79,1
59.698086,60.78242,56,79,1
59.698086,60.78242,60,79,1
60.78242,61.15255,65,93,1
60.78242,61.15255,53,79,1
60.78242,61.15255,56,79,1
60.78242,61.15255,60,79,1
61.17203,62.67203,65,93,1
61.17203,62.67203,53,79,1
61.17203,62.67203,56,79,1
61.17203,62.67203,62,79,1
62.67203,65.297035,77,55,1
62.67203,65.297035,65,46,1
65.297035,65.672035,77,55,1
65.297035,65.672035,65,46,1
65.672035,66.797035,79,57,1
65.672035,66.797035,67,48,1
66.797035,67.19286,80,59,1
66.797035,67.19286,68,49,1
67.2137,68.7137,80,59,1
67.2137,68.7137,68,49,1
68.7137,69.4637,79,55,1
68.7137,69.4637,67,46,1
69.8387,70.2137,67,90,1
69.8387,70.2137,55,75,1
69.8387,70.2137,61,75,1
69.8387,70.2137,64,75,1
70.2137,71.298035,69,96,1
70.2137,71.298035,57,81,1
70.2137,71.298035,61,81,1
70.2137,71.298035,63,81,1
71.298035,71.64141,69,89,1
71.298035,71.64141,57,74,1
71.298035,71.64141,61,74,1
71.298035,71.64141,63,74,1
71.659485,72.74382,70,93,1
71.659485,72.74382,58,79,1
71.659485,72.74382,61,79,1
71.659485,72.74382,63,79,1
72.74382,73.0872,70,93,1
72.74382,73.0872,58,79,1
72.74382,73.0872,61,79,1
72.74382,73.0872,63,79,1
73.10526,74.58675,69,93,1
73.10526,74.58675,57,79,1
73.10526,74.58675,62,79,1
73.10526,74.58675,66,79,1
74.58675,77.17934,81,55,1
74.58675,77.17934,69,46,1
77.17934,77.549706,81,55,1
77.17934,77.549706,69,46,1
77.549706,78.66082,83,57,1
77.549706,78.66082,71,48,1
78.66082,79.056656,84,59,1
78.66082,79.056656,72,49,1
79.077484,80.577484,84,59,1
79.077484,80.577484,72,49,1
80.577484,81.30038,83,55,1
80.577484,81.30038,71,46,1
83.47643,84.55829,83,71,1
83.47643,84.55829,71,71,1
84.55829,84.92866,84,74,1
84.55829,84.92866,72,62,1
84.92866,86.392075,85,80,1
84.92866,86.392075,73,80,1
86.392075,87.78742,86,85,1
86.392075,87.78742,74,85,1
89.19938,90.27081,86,91,1
89.19938,90.27081,74,90,1
90.27081,90.67081,87,82,1
90.27081,90.67081,75,80,1
90.67081,92.09938,88,88,1
90.67081,92.09938,76,88,1
92.09938,94.857765,89,90,1
92.09938,94.857765,77,88,1
94.88618,96.4305,89,96,1
94.88618,96.4305,77,96,1
96.46621,98.25192,89,96,1
96.46621,98.25192,77,96,1
98.25192,98.4305,87,62,1
98.4305,98.60907,86,62,1
98.60907,98.787636,89,62,1
98.787636,98.96621,87,62,1
98.96621,99.14478,86,62,1
99.14478,99.32336,84,62,1
99.32336,99.6848,83,62,1
100.04624,100.43086,83,52,1
100.815475,101.21548,83,47,1
100.815475,101.21548,77,39,1
101.61548,102.050255,83,48,1
101.61548,102.050255,77,40,1
102.48504,103.96652,84,48,1
102.48504,103.96652,75,40,1
108.305145,110.09086,84,65,1
110.09086,110.26943,83,61,1
110.26943,110.448,84,63,1
110.448,110.56705,86,66,1
110.56705,110.6861,84,65,1
110.6861,110.805145,82,64,1
110.805145,110.924194,80,63,1
110.924194,111.043236,79,61,1
111.043236,111.162285,82,60,1
111.162285,111.52814,80,62,1
111.90789,112.2975,80,49,1
112.68711,113.08185,80,47,1
113.476585,113.917755,80,48,1
114.35893,115.180855,79,50,1
115.180855,116.034515,87,65,1
116.034515,116.15216,86,52,1
116.15216,116.269806,85,52,1
116.269806,116.38745,84,52,1
116.38745,116.5051,83,52,1
116.5051,116.62275,82,53,1
116.62275,116.72275,81,53,1
116.72275,116.82275,80,53,1
116.82275,116.922745,79,53,1
116.922745,117.02275,78,54,1
117.02275,117.12275,77,54,1
117.12275,117.217155,76,54,1
117.217155,117.27271,75,54,1
117.27271,117.36474,74,54,1
117.36474,117.45676,73,55,1
117.45676,117.5486,72,55,1
117.5486,117.64006,71,56,1
117.64006,117.73097,70,56,1
117.73097,117.82151,69,56,1
117.82151,117.91187,68,57,1
117.91187,118.00188,67,57,1
118.00188,118.09152,66,57,1
118.09152,118.1808,65,58,1
118.1808,118.26956,64,57,1
118.26956,118.35797,63,57,1
118.35797,118.44708,62,58,1
118.44708,118.53726,61,63,1
118.53726,118.628914,60,68,1
118.628914,118.7217,59,73,1
118.7217,119.780525,68,82,1
119.780525,120.09316,59,68,1
120.09316,120.69594,60,50,1
120.69594,120.76945,64,52,1
120.69594,120.76945,58,52,1
120.89132,120.9644,65,54,1
120.89132,120.9644,56,54,1
121.08619,121.1583,67,56,1
121.08619,121.1583,64,56,1
121.278496,121.35062,68,57,1
121.278496,121.35062,65,57,1
121.4708,121.5441,71,59,1
121.4708,121.5441,62,59,1
121.666245,121.74398,72,61,1
121.666245,121.74398,63,61,1
121.87354,122.26328,72,55,1
121.87354,122.26328,64,55,1
122.26328,122.33636,76,51,1
122.26328,122.33636,70,51,1
122.458145,122.53123,77,53,1
122.458145,122.53123,68,53,1
122.653015,122.725365,79,55,1
122.653015,122.725365,76,55,1
122.84594,122.91829,80,57,1
122.84594,122.91829,77,57,1
123.03887,123.11121,83,59,1
123.03887,123.11121,74,59,1
123.2318,123.62641,84,61,1
123.2318,123.62641,72,51,1
123.2318,123.62641,79,61,1
123.2318,123.62641,75,51,1
123.62641,124.024666,79,63,1
123.62641,124.024666,67,53,1
123.62641,124.024666,71,53,1
123.62641,124.024666,77,63,1
124.024666,124.41987,75,67,1
124.024666,124.41987,72,56,1
124.024666,124.41987,67,56,1
124.41987,124.81849,74,71,1
124.41987,124.81849,68,60,1
124.41987,124.81849,65,60,1
124.81849,125.22053,67,74,1
125.22053,125.62257,66,74,1
125.62257,126.0246,69,77,1
124.81849,126.0246,72,74,1
124.81849,126.0246,63,62,1
126.0246,126.426636,71,74,1
126.0246,126.426636,65,62,1
126.0246,126.426636,62,62,1
126.426636,126.50342,72,79,1
126.426636,126.50342,63,67,1
126.426636,126.50342,60,67,1
126.63051,127.02942,60,67,1
127.02942,127.10292,64,52,1
127.02942,127.10292,58,52,1
127.2248,127.297874,65,54,1
127.2248,127.297874,56,54,1
127.41967,127.49178,67,55,1
127.41967,127.49178,64,55,1
127.61198,127.68409,68,57,1
127.61198,127.68409,65,57,1
127.80428,127.876396,71,59,1
127.80428,127.876396,62,59,1
127.99659,128.07433,72,61,1
127.99659,128.07433,63,61,1
128.20389,128.59363,72,55,1
128.20389,128.59363,64,55,1
128.59363,128.6667,76,51,1
128.59363,128.6667,70,51,1
128.7885,128.86157,77,53,1
128.7885,128.86157,68,53,1
128.98337,129.05548,79,55,1
128.98337,129.05548,76,55,1
129.17567,129.24779,80,57,1
129.17567,129.24779,77,57,1
129.36798,129.44127,83,59,1
129.36798,129.44127,74,59,1
129.56342,129.95804,84,61,1
129.56342,129.95804,72,51,1
129.56342,129.95804,79,61,1
129.56342,129.95804,75,51,1
129.95804,130.35628,79,63,1
129.95804,130.35628,67,53,1
129.95804,130.35628,71,53,1
129.95804,130.35628,77,63,1
130.35628,130.7515,75,67,1
130.35628,130.7515,72,56,1
130.35628,130.7515,67,56,1
130.7515,131.15012,74,71,1
130.7515,131.15012,68,60,1
130.7515,131.15012,65,60,1
131.15012,131.55215,67,74,1
131.55215,131.95418,66,74,1
131.95418,132.74998,69,77,1
131.15012,132.74998,72,74,1
131.15012,132.74998,63,62,1
132.74998,132.95528,71,55,1
132.74998,132.95528,67,55,1
132.74998,132.95528,62,55,1
133.16055,133.75742,79,80,1
133.16055,133.75742,67,80,1
133.95636,134.45073,79,80,1
133.95636,134.45073,67,80,1
134.45073,134.5472,77,70,1
134.5472,134.64366,74,69,1
134.64366,134.74013,71,69,1
134.74013,134.83658,67,68,1
134.83658,134.93304,65,67,1
134.93304,135.02951,62,66,1
135.02951,135.12598,59,65,1
135.12598,135.22249,60,65,1
135.22249,135.31941,63,64,1
135.31941,135.41676,60,65,1
135.41676,135.5146,55,65,1
135.5146,135.61285,54,64,1
135.61285,135.7116,60,64,1
135.7116,135.81076,56,63,1
135.81076,135.91043,54,65,1
135.91043,136.1157,55,67,1
136.321,136.91785,79,80,1
136.321,136.91785,67,80,1
137.1168,137.61055,79,80,1
137.1168,137.61055,67,80,1
137.61055,137.7064,77,72,1
137.7064,137.80225,74,71,1
137.80225,137.89809,71,70,1
137.89809,137.99394,67,69,1
137.99394,138.08978,65,68,1
138.08978,138.18564,62,67,1
138.18564,138.28128,59,66,1
138.28128,138.37677,60,65,1
138.37677,138.47287,63,64,1
138.47287,138.56953,60,64,1
138.56953,138.6668,55,67,1
138.6668,138.76466,54,66,1
138.76466,138.86313,60,64,1
138.86313,138.9622,56,62,1
138.9622,139.06192,54,60,1
139.06192,139.26192,55,67,1
139.26192,139.33528,66,67,1
139.45753,139.52965,67,69,1
139.64984,139.72195,72,71,1
139.64984,139.72195,66,71,1
139.84215,139.91426,71,73,1
139.84215,139.91426,67,73,1
140.03445,140.10657,78,75,1
140.03445,140.10657,72,75,1
140.22676,140.29887,79,77,1
140.22676,140.29887,71,77,1
140.41907,140.49118,78,79,1
140.41907,140.49118,84,79,1
140.61137,140.70909,79,81,1
140.61137,140.70909,83,81,1
141.39313,142.18085,61,81,1
141.39313,142.18085,58,81,1
142.18085,142.38612,60,67,1
141.39313,142.38612,63,84,1
142.38612,142.45947,73,67,1
142.58173,142.65385,72,69,1
142.77403,142.84616,79,71,1
142.77403,142.84616,73,71,1
142.96635,143.03847,80,73,1
142.96635,143.03847,72,73,1
143.15866,143.23077,85,75,1
143.15866,143.23077,79,75,1
143.35097,143.42308,84,77,1
143.35097,143.42308,80,77,1
143.54327,143.61539,79,79,1
143.54327,143.61539,85,79,1
143.73558,143.8333,80,81,1
143.73558,143.8333,84,81,1
144.51733,145.30505,66,84,1
144.51733,145.30505,63,81,1
144.51733,145.30505,60,81,1
145.30505,145.51033,65,67,1
145.30505,145.51033,62,67,1
145.51033,145.58244,75,67,1
145.51033,145.58244,69,62,1
145.70264,145.77452,74,69,1
145.70264,145.77452,70,65,1
145.89433,145.96622,81,71,1
145.89433,145.96622,75,71,1
146.08603,146.15791,82,73,1
146.08603,146.15791,74,73,1
146.27771,146.34961,87,75,1
146.27771,146.34961,81,75,1
146.4694,146.54129,86,77,1
146.4694,146.54129,82,77,1
146.6611,146.73299,81,79,1
146.6611,146.73299,87,79,1
146.8528,146.95052,82,81,1
146.8528,146.95052,86,81,1
147.24368,147.62953,81,81,1
147.24368,147.62953,75,81,1
147.62953,147.82475,82,81,1
147.62953,147.82475,74,81,1
148.0202,148.40482,75,81,1
148.0202,148.40482,69,81,1
148.40482,148.60025,74,81,1
148.40482,148.60025,70,81,1
148.7957,149.18279,69,81,1
148.7957,149.18279,63,81,1
149.18279,149.37764,70,81,1
149.18279,149.37764,62,81,1
149.57245,149.96207,63,81,1
149.57245,149.96207,57,81,1
149.96207,150.16408,62,81,1
149.96207,150.16408,58,81,1
150.16408,150.3661,57,50,1
150.3661,150.56812,58,59,1
150.56812,150.77014,57,56,1
150.77014,150.97217,58,57,1
150.97217,151.17418,57,49,1
151.17418,151.3762,58,57,1
151.3762,151.57822,57,51,1
151.783,151.88367,46,55,1
151.98434,152.08206,51,58,1
152.17978,152.2775,53,61,1
152.37523,152.47726,54,64,1
152.5793,152.68135,70,62,1
152.78339,152.88306,75,64,1
152.98273,153.08238,77,66,1
153.13222,153.18205,70,65,1
153.18205,153.78476,78,75,1
153.9373,153.98814,70,60,1
153.78476,153.98814,75,63,1
153.98814,154.59154,78,71,1
154.59154,154.79356,75,58,1
154.79356,155.00117,74,60,1
155.00117,155.10117,46,57,1
155.20117,155.29889,53,60,1
155.3966,155.49432,54,63,1
155.59206,155.69409,56,66,1
155.79613,156.00021,70,59,1
156.00021,156.20021,80,62,1
156.20021,156.4002,78,65,1
156.4002,156.45107,78,60,1
156.45107,156.5019,80,60,1
156.5019,156.6036,78,67,1
156.6036,156.80699,77,60,1
156.80699,156.85783,77,60,1
156.85783,156.90869,78,60,1
156.90869,157.01038,77,67,1
157.01038,157.21378,75,60,1
157.21378,157.26462,75,60,1
157.26462,157.31548,77,60,1
157.31548,157.41716,75,66,1
157.41716,157.62056,74,60,1
157.62056,157.72224,72,60,1
157.82394,157.92564,74,60,1
158.02733,158.23567,75,60,1
158.23567,158.33566,46,55,1
158.43567,158.53339,51,58,1
158.6311,158.72882,53,61,1
158.82654,158.92859,54,64,1
159.03062,159.13268,70,62,1
159.23471,159.33438,75,64,1
159.43404,159.5337,77,66,1
159.58354,159.63338,70,65,1
159.63338,160.23608,78,75,1
160.38863,160.43947,70,60,1
160.23608,160.43947,75,63,1
160.43947,161.04286,78,71,1
161.04286,161.24489,75,58,1
161.24489,161.45322,72,60,1
161.45322,161.55223,44,57,1
161.65123,161.74832,51,60,1
161.84541,161.9425,53,63,1
162.03958,162.14163,54,66,1
162.24367,162.44775,68,59,1
162.44775,162.64775,78,62,1
162.64775,162.84775,77,65,1
162.84775,162.89859,77,60,1
162.89859,162.94945,78,60,1
162.94945,163.05113,77,67,1
163.05113,163.25453,75,60,1
163.25453,163.30537,75,60,1
163.30537,163.35622,77,60,1
163.35622,163.45792,75,67,1
163.45792,163.66132,73,60,1
163.66132,163.71216,73,60,1
163.71216,163.763,75,60,1
163.763,163.8647,73,66,1
163.8647,164.06808,72,60,1
164.06808,164.16978,70,60,1
164.27148,164.37317,72,60,1
164.47487,164.67964,73,60,1
164.67964,164.77998,44,55,1
164.88031,164.97868,49,58,1
165.07704,165.1754,51,61,1
165.27376,165.3758,53,64,1
165.47784,165.57988,68,62,1
165.68192,165.78159,73,64,1
165.88126,165.98093,75,66,1
166.03076,166.0806,68,65,1
166.0806,166.68329,77,75,1
166.83583,166.88669,68,60,1
166.68329,166.88669,73,63,1
166.88669,167.49008,77,71,1
167.49008,167.6921,73,58,1
167.6921,167.89899,72,60,1
167.89899,167.99832,44,57,1
168.09767,168.19507,51,60,1
168.29247,168.38988,53,63,1
168.48727,168.58932,54,66,1
168.69136,168.89545,68,59,1
168.89545,169.09544,78,62,1
169.09544,169.29544,77,65,1
169.29544,169.34628,77,60,1
169.34628,169.39714,78,60,1
169.39714,169.49883,77,67,1
169.49883,169.70222,75,60,1
169.70222,169.75307,75,60,1
169.75307,169.80391,77,60,1
169.80391,169.90561,75,67,1
169.90561,170.109,73,60,1
170.109,170.15985,73,60,1
170.15985,170.2107,75,60,1
170.2107,170.3124,73,66,1
170.3124,170.51578,72,60,1
170.51578,170.61748,70,60,1
170.71918,170.82086,72,57,1
170.92256,171.12733,73,60,1
171.12733,171.32733,49,73,1
171.32733,171.5247,56,77,1
171.5247,171.62744,47,73,1
171.73018,171.83293,46,77,1
171.93567,172.14114,70,59,1
172.14114,172.34114,80,62,1
172.34114,172.54114,78,65,1
172.54114,172.592,78,60,1
172.592,172.64284,80,60,1
172.64284,172.74454,78,67,1
172.74454,172.94792,77,60,1
172.94792,172.99878,77,60,1
172.99878,173.04962,78,60,1
173.04962,173.15132,77,67,1
173.15132,173.3547,75,60,1
173.3547,173.40555,75,60,1
173.40555,173.4564,77,60,1
173.4564,173.55809,75,66,1
173.55809,173.76149,74,60,1
173.76149,173.86317,72,60,1
173.96487,174.06657,74,57,1
174.16826,174.37805,75,60,1
174.37805,174.57939,51,73,1
174.57939,174.77742,58,77,1
174.77742,174.88016,49,73,1
174.9829,175.08563,48,77,1
175.18837,175.39386,72,59,1
175.39386,175.59386,82,62,1
175.59386,175.79385,80,65,1
175.79385,175.8447,80,60,1
175.8447,175.89555,82,60,1
175.89555,175.99725,80,67,1
175.99725,176.20064,79,60,1
176.20064,176.25148,79,60,1
176.25148,176.30234,80,60,1
176.30234,176.40402,79,67,1
176.40402,176.60742,77,60,1
176.60742,176.65826,77,60,1
176.65826,176.7091,79,60,1
176.7091,176.8108,77,66,1
176.8108,177.01419,76,60,1
177.01419,177.21759,74,60,1
177.21759,177.42097,76,57,1
177.42097,177.47182,79,60,1
177.47182,177.52267,80,60,1
177.52267,177.62436,79,67,1
177.62436,177.82776,77,60,1
177.82776,177.8786,77,60,1
177.8786,177.92944,79,60,1
177.92944,178.03114,77,67,1
178.03114,178.23454,75,60,1
178.23454,178.28539,75,60,1
178.28539,178.33623,77,60,1
178.33623,178.43793,75,66,1
178.43793,178.64131,74,60,1
178.64131,178.84471,72,60,1
178.84471,179.0481,74,57,1
179.0481,179.09894,77,60,1
179.09894,179.1498,79,60,1
179.1498,179.25148,77,67,1
179.25148,179.45488,75,59,1
179.45488,179.50572,75,58,1
179.50572,179.55656,77,58,1
179.55656,179.65826,75,64,1
179.65826,179.86165,74,57,1
179.86165,179.9125,74,56,1
179.9125,179.96335,75,55,1
179.96335,180.06499,74,61,1
180.06499,180.26862,72,55,1
180.26862,180.31987,72,54,1
180.31987,180.37129,74,54,1
180.37129,180.47456,72,59,1
180.47456,180.68289,71,53,1
180.68289,180.73608,72,52,1
180.73608,180.78928,74,52,1
180.78928,180.89566,72,56,1
180.89566,181.10843,70,51,1
181.10843,181.18822,70,50,1
181.3212,181.40099,70,46,1
181.53397,181.58911,72,37,1
181.58911,181.64426,74,37,1
181.64426,181.75455,72,41,1
181.75455,181.97514,70,37,1
181.97514,182.05786,70,37,1
182.19572,182.27844,70,35,1
182.52661,182.6369,63,25,1
182.6369,182.74144,67,29,1
182.74144,182.84572,63,29,1
182.9497,183.05339,63,28,1
183.05339,183.15678,67,30,1
183.15678,183.25987,63,28,1
183.25987,183.36261,67,31,1
183.36261,183.46536,63,30,1
183.46536,183.5681,67,32,1
183.5681,183.67084,63,29,1
182.84572,183.67084,75,45,1
183.77357,183.87631,63,30,1
183.87631,183.97905,67,33,1
183.97905,184.08179,63,32,1
183.67084,184.08179,75,50,1
184.19458,184.30592,63,32,1
184.30592,184.4101,67,36,1
184.4101,184.51425,63,35,1
184.61806,184.72186,63,33,1
184.72186,184.82532,67,35,1
184.82532,184.92876,63,32,1
184.92876,185.03186,67,35,1
185.03186,185.13495,63,33,1
185.13495,185.23804,67,35,1
185.23804,185.34114,63,32,1
184.51425,185.34114,75,54,1
185.44423,185.54732,63,32,1
185.54732,185.65042,67,35,1
185.65042,185.76193,63,33,1
185.34114,185.76193,75,53,1
185.76193,185.83821,75,66,1
185.86363,185.96521,63,41,1
185.96521,186.06656,68,45,1
186.06656,186.1677,63,42,1
186.1677,186.24344,76,67,1
186.26865,186.36931,64,43,1
186.36931,186.46982,72,47,1
186.46982,186.57014,64,43,1
186.57014,186.64368,77,71,1
186.66818,186.76624,65,45,1
186.76624,186.86427,72,50,1
186.86427,186.96231,65,45,1
186.96231,187.03584,79,72,1
187.06035,187.15839,67,47,1
187.15839,187.25642,72,50,1
187.25642,187.35446,67,47,1
187.35446,187.4272,80,74,1
187.45134,187.54735,68,49,1
187.54735,187.64513,72,54,1
187.64513,187.74158,68,49,1
187.74158,187.8137,81,80,1
187.83774,187.93388,69,50,1
187.93388,188.03162,72,55,1
188.03162,188.12819,69,51,1
188.12819,188.20087,82,84,1
188.22491,188.32095,70,51,1
188.32095,188.41737,77,58,1
188.41737,188.51347,70,53,1
188.51347,188.5864,84,85,1
188.61046,188.7062,72,53,1
188.7062,188.803,77,58,1
188.803,188.8991,72,54,1
188.8991,188.97072,85,85,1
188.99478,189.09209,73,55,1
189.09209,189.18819,77,63,1
189.18819,189.28487,73,55,1
189.28487,189.35751,86,90,1
189.38164,189.47743,74,57,1
189.47743,189.57385,77,62,1
189.57385,189.67093,74,57,1
189.67093,189.74289,87,89,1
189.76678,189.86293,75,59,1
189.86293,189.95982,82,64,1
189.95982,190.05722,75,59,1
190.05722,190.1335,83,91,1
190.15892,190.2606,71,61,1
190.2606,190.3623,75,67,1
190.3623,190.464,71,61,1
190.56367,190.66139,72,78,1
190.66139,190.75911,75,84,1
190.75911,190.85683,72,78,1
190.85683,190.93011,84,88,1
190.95454,191.05226,72,78,1
191.05226,191.15431,75,84,1
191.15431,191.25635,72,76,1
191.35736,191.4554,65,78,1
191.4554,191.55344,68,84,1
191.55344,191.65147,65,78,1
191.65147,191.725,74,88,1
191.74951,191.84755,65,78,1
191.84755,191.95508,68,84,1
191.95508,192.0683,65,76,1
192.17319,192.27808,63,32,1
192.27808,192.38261,67,36,1
192.38261,192.4869,63,35,1
192.59088,192.69456,63,33,1
192.69456,192.79796,67,35,1
192.79796,192.90105,63,32,1
192.90105,193.0038,67,35,1
193.0038,193.10654,63,33,1
193.10654,193.20927,67,35,1
193.20927,193.31201,63,32,1
192.4869,193.31201,75,54,1
193.41475,193.51749,63,32,1
193.51749,193.62022,67,35,1
193.62022,193.72298,63,33,1
193.31201,193.72298,75,53,1
193.83575,193.9471,63,32,1
193.9471,194.05127,67,36,1
194.05127,194.15543,63,35,1
194.25923,194.36305,63,33,1
194.36305,194.46649,67,35,1
194.46649,194.56995,63,32,1
194.56995,194.67303,67,35,1
194.67303,194.77612,63,33,1
194.77612,194.87923,67,35,1
194.87923,194.98232,63,32,1
194.15543,194.98232,75,54,1
195.0854,195.18849,63,32,1
195.18849,195.2916,67,35,1
195.2916,195.40312,63,33,1
194.98232,195.40312,75,53,1
195.40312,195.47939,75,66,1
195.5048,195.60638,63,41,1
195.60638,195.70775,68,45,1
195.70775,195.80887,63,42,1
195.80887,195.88463,76,67,1
195.90982,196.0105,64,43,1
196.0105,196.111,72,47,1
196.111,196.21133,64,43,1
196.21133,196.28485,77,71,1
196.30937,196.40741,65,45,1
196.40741,196.50545,72,50,1
196.50545,196.60349,65,45,1
196.60349,196.67702,79,72,1
196.70152,196.79956,67,47,1
196.79956,196.8976,72,50,1
196.8976,196.99564,67,47,1
196.99564,197.06825,80,74,1
197.09232,197.18935,68,49,1
197.18935,197.28624,72,54,1
197.28624,197.38254,68,49,1
197.38254,197.4556,81,80,1
197.48006,197.57672,69,50,1
197.57672,197.67314,72,55,1
197.67314,197.77054,69,51,1
197.77054,197.8431,82,84,1
197.86722,197.96352,70,51,1
197.96352,198.06114,77,58,1
198.06114,198.15796,70,53,1
198.15796,198.23036,84,85,1
198.25464,198.35156,72,53,1
198.35156,198.44772,77,58,1
198.44772,198.54486,72,54,1
198.54486,198.618,85,85,1
198.64221,198.73827,73,55,1
198.73827,198.83495,77,63,1
198.83495,198.93213,73,55,1
198.93213,199.00403,86,90,1
199.02783,199.12347,74,57,1
199.12347,199.22067,77,62,1
199.22067,199.31688,74,57,1
199.31688,199.38913,87,89,1
199.4135,199.51181,75,59,1
199.51181,199.60927,82,64,1
199.60927,199.70604,75,59,1
199.70604,199.7823,88,91,1
199.80774,199.90942,76,61,1
199.90942,200.01112,82,67,1
200.01112,200.11282,76,61,1
200.21486,200.31258,80,78,1
200.31258,200.4103,84,84,1
200.4103,200.50801,80,78,1
200.50801,200.58131,89,88,1
200.60574,200.70346,80,78,1
200.70346,200.8055,84,84,1
200.8055,200.90753,80,76,1
201.00821,201.10625,77,78,1
201.10625,201.20428,80,84,1
201.20428,201.30232,77,78,1
201.30232,201.37585,86,88,1
201.40036,201.49841,77,78,1
201.49841,201.6001,80,84,1
201.6001,201.7018,77,76,1
201.7018,201.78047,79,81,1
201.91159,202.30899,87,62,1
202.30899,202.40938,86,46,1
202.40938,202.51149,87,48,1
202.51149,202.61406,89,49,1
202.61406,202.71484,87,49,1
202.71484,202.81424,86,48,1
202.81424,202.91357,84,47,1
202.91357,203.01291,83,45,1
203.01291,203.11224,84,46,1
203.11224,203.21202,86,49,1
203.21202,203.31322,84,47,1
203.31322,203.41457,82,49,1
203.41457,203.51457,80,47,1
203.51457,203.61357,79,46,1
203.61357,203.71259,77,45,1
203.71259,203.8116,76,45,1
203.8116,203.9106,77,45,1
203.9106,204.01027,79,47,1
204.01027,204.11128,77,45,1
204.11128,204.21259,75,46,1
204.21259,204.31259,74,46,1
204.31259,204.41193,72,45,1
204.41193,204.51126,70,45,1
204.51126,204.6106,69,45,1
204.6106,204.70993,70,42,1
204.70993,204.80928,72,46,1
204.80928,204.90862,68,42,1
204.90862,204.98729,67,66,1
205.11841,205.51581,87,68,1
205.11841,205.51581,75,68,1
205.51581,205.6162,86,61,1
205.6162,205.7183,87,64,1
205.7183,205.82088,89,66,1
205.82088,205.92166,87,66,1
205.92166,206.02104,86,65,1
206.02104,206.12039,84,64,1
206.12039,206.21973,83,62,1
206.21973,206.31906,84,64,1
206.31906,206.41884,86,68,1
206.41884,206.52002,84,66,1
206.52002,206.62138,82,69,1
206.62138,206.72137,80,67,1
206.72137,206.82039,79,66,1
206.82039,206.9194,77,65,1
206.9194,207.0184,76,65,1
207.0184,207.11742,77,64,1
207.11742,207.21709,79,68,1
207.21709,207.3181,77,66,1
207.3181,207.4194,75,68,1
207.4194,207.5194,74,68,1
207.5194,207.61874,72,68,1
207.61874,207.71808,70,68,1
207.71808,207.81741,69,67,1
207.81741,207.9167,70,64,1
207.9167,208.01772,72,70,1
208.01772,208.12395,70,64,1
208.12395,208.23465,75,83,1
208.34535,208.74603,63,82,1
208.74603,208.84538,67,80,1
208.74603,208.84538,61,80,1
208.94472,209.04405,68,81,1
208.94472,209.04405,60,81,1
209.14339,209.24272,70,82,1
209.14339,209.24272,67,82,1
209.34207,209.4414,72,83,1
209.34207,209.4414,68,83,1
209.54074,209.64008,74,85,1
209.54074,209.64008,68,85,1
209.73941,209.84395,75,83,1
209.73941,209.84395,67,83,1
209.94847,210.34917,75,82,1
210.34917,210.44852,79,80,1
210.34917,210.44852,73,80,1
210.54785,210.64719,80,81,1
210.54785,210.64719,72,81,1
210.74652,210.84586,82,82,1
210.74652,210.84586,79,82,1
210.9452,211.04454,84,83,1
210.9452,211.04454,80,83,1
211.14388,211.24876,86,85,1
211.14388,211.24876,80,85,1
211.35367,212.15367,79,94,1
211.35367,212.15367,87,94,1
212.15367,212.96475,75,88,1
212.15367,212.96475,67,88,1
212.96475,213.76474,79,99,1
212.96475,213.76474,87,99,1
213.76474,214.57156,75,92,1
213.76474,214.57156,67,92,1
214.57156,215.37157,84,102,1
214.57156,215.37157,87,102,1
215.37157,216.1769,75,96,1
215.37157,216.1769,72,96,1
216.1769,217.14075,86,93,1
216.1769,217.14075,81,93,1
216.1769,217.14075,84,93,1
217.14075,219.14075,62,102,1
217.14075,219.14075,59,102,1
217.14075,219.14075,53,86,1
219.14075,219.74353,60,50,1
219.74353,219.81703,64,52,1
219.74353,219.81703,58,52,1
219.93892,220.012,65,54,1
219.93892,220.012,56,54,1
220.13379,220.2059,67,56,1
220.13379,220.2059,64,56,1
220.3261,220.39821,68,57,1
220.3261,220.39821,65,57,1
220.5184,220.59169,71,59,1
220.5184,220.59169,62,59,1
220.71384,220.79158,72,61,1
220.71384,220.79158,63,61,1
220.92114,221.31087,72,55,1
220.92114,221.31087,64,55,1
221.31087,221.38394,76,51,1
221.31087,221.38394,70,51,1
221.50574,221.57881,77,53,1
221.50574,221.57881,68,53,1
221.7006,221.77296,79,55,1
221.7006,221.77296,76,55,1
221.89354,221.96588,80,57,1
221.89354,221.96588,77,57,1
222.08646,222.15881,83,59,1
222.08646,222.15881,74,59,1
222.27939,222.67401,84,61,1
222.27939,222.67401,72,51,1
222.27939,222.67401,79,61,1
222.27939,222.67401,75,51,1
222.67401,223.07225,79,63,1
222.67401,223.07225,67,53,1
222.67401,223.07225,71,53,1
222.67401,223.07225,77,63,1
223.07225,223.46747,75,67,1
223.07225,223.46747,72,56,1
223.07225,223.46747,67,56,1
223.46747,223.86609,74,71,1
223.46747,223.86609,68,60,1
223.46747,223.86609,65,60,1
223.86609,224.26811,67,74,1
224.26811,224.67015,66,74,1
224.67015,225.07219,69,77,1
223.86609,225.07219,72,74,1
223.86609,225.07219,63,62,1
225.07219,225.47423,71,74,1
225.07219,225.47423,65,62,1
225.07219,225.47423,62,62,1
225.47423,225.55101,72,79,1
225.47423,225.55101,63,67,1
225.47423,225.55101,60,67,1
225.6781,226.07701,60,67,1
226.07701,226.15051,64,52,1
226.07701,226.15051,58,52,1
226.27238,226.34547,65,54,1
226.27238,226.34547,56,54,1
226.46725,226.53938,67,55,1
226.46725,226.53938,64,55,1
226.65956,226.73169,68,57,1
226.65956,226.73169,65,57,1
226.85188,226.924,71,59,1
226.85188,226.924,62,59,1
227.04419,227.12192,72,61,1
227.04419,227.12192,63,61,1
227.25148,227.64122,72,55,1
227.25148,227.64122,64,55,1
227.64122,227.7143,76,51,1
227.64122,227.7143,70,51,1
227.83609,227.90916,77,53,1
227.83609,227.90916,68,53,1
228.03096,228.10307,79,55,1
228.03096,228.10307,76,55,1
228.22327,228.29538,80,57,1
228.22327,228.29538,77,57,1
228.41557,228.48886,83,59,1
228.41557,228.48886,74,59,1
228.61101,229.00563,84,61,1
228.61101,229.00563,72,51,1
228.61101,229.00563,79,61,1
228.61101,229.00563,75,51,1
229.00563,229.40388,79,63,1
229.00563,229.40388,67,53,1
229.00563,229.40388,71,53,1
229.00563,229.40388,77,63,1
229.40388,229.79909,75,67,1
229.40388,229.79909,72,56,1
229.40388,229.79909,67,56,1
229.79909,230.19771,74,71,1
229.79909,230.19771,68,60,1
229.79909,230.19771,65,60,1
230.19771,230.59975,67,74,1
230.59975,231.00177,66,74,1
231.00177,231.79759,69,77,1
230.19771,231.79759,72,74,1
230.19771,231.79759,63,62,1
231.79759,232.00287,71,55,1
231.79759,232.00287,67,55,1
231.79759,232.00287,62,55,1
232.20815,232.80501,79,80,1
232.20815,232.80501,67,80,1
233.00395,233.49832,79,80,1
233.00395,233.49832,67,80,1
233.49832,233.59479,77,70,1
233.59479,233.69125,74,69,1
233.69125,233.78772,71,69,1
233.78772,233.88417,67,68,1
233.88417,233.98064,65,67,1
233.98064,234.0771,62,66,1
234.0771,234.17357,59,65,1
234.17357,234.27008,60,65,1
234.27008,234.36702,63,64,1
234.36702,234.46436,60,65,1
234.46436,234.5622,55,65,1
234.5622,234.66045,54,64,1
234.66045,234.75919,60,64,1
234.75919,234.85835,56,63,1
234.85835,234.95802,54,65,1
234.95802,235.1633,55,67,1
235.36859,235.96544,79,80,1
235.36859,235.96544,67,80,1
236.1644,236.65814,79,80,1
236.1644,236.65814,67,80,1
236.65814,236.754,77,72,1
236.754,236.84984,74,71,1
236.84984,236.9457,71,70,1
236.9457,237.04153,67,69,1
237.04153,237.13737,65,68,1
237.13737,237.23323,62,67,1
237.23323,237.32887,59,66,1
237.32887,237.42436,60,65,1
237.42436,237.52046,63,64,1
237.52046,237.61714,60,64,1
237.61714,237.71439,55,67,1
237.71439,237.81226,54,66,1
237.81226,237.91074,60,64,1
237.91074,238.0098,56,62,1
238.0098,238.10951,54,60,1
238.10951,238.30952,55,67,1
238.30952,238.38287,66,67,1
238.50513,238.57724,67,69,1
238.69743,238.76955,72,71,1
238.69743,238.76955,66,71,1
238.88974,238.96185,71,73,1
238.88974,238.96185,67,73,1
239.08205,239.15416,78,75,1
239.08205,239.15416,72,75,1
239.27435,239.34647,79,77,1
239.27435,239.34647,71,77,1
239.46666,239.53877,78,79,1
239.46666,239.53877,84,79,1
239.65897,239.75668,79,81,1
239.65897,239.75668,83,81,1
240.44072,241.22844,61,81,1
240.44072,241.22844,58,81,1
241.22844,241.43372,60,67,1
240.44072,241.43372,63,84,1
241.43372,241.50706,73,67,1
241.62932,241.70145,72,69,1
241.82164,241.89375,79,71,1
241.82164,241.89375,73,71,1
242.01395,242.08606,80,73,1
242.01395,242.08606,72,73,1
242.20625,242.27837,85,75,1
242.20625,242.27837,79,75,1
242.39856,242.47067,84,77,1
242.39856,242.47067,80,77,1
242.59087,242.66298,79,79,1
242.59087,242.66298,85,79,1
242.78317,242.88089,80,81,1
242.78317,242.88089,84,81,1
243.56493,244.35265,66,84,1
243.56493,244.35265,63,81,1
243.56493,244.35265,60,81,1
244.35265,244.55792,65,67,1
244.35265,244.55792,62,67,1
244.55792,244.63004,75,67,1
244.55792,244.63004,69,62,1
244.75023,244.82211,74,69,1
244.75023,244.82211,70,65,1
244.94193,245.01381,81,71,1
244.94193,245.01381,75,71,1
245.13362,245.2055,82,73,1
245.13362,245.2055,74,73,1
245.32532,245.3972,87,75,1
245.32532,245.3972,81,75,1
245.517,245.58888,86,77,1
245.517,245.58888,82,77,1
245.7087,245.78058,81,79,1
245.7087,245.78058,87,79,1
245.90039,245.99811,82,81,1
245.90039,245.99811,86,81,1
246.29128,246.67712,81,81,1
246.29128,246.67712,75,81,1
246.67712,246.87234,82,81,1
246.67712,246.87234,74,81,1
247.0678,247.45241,75,81,1
247.0678,247.45241,69,81,1
247.45241,247.64784,74,81,1
247.45241,247.64784,70,81,1
247.84329,248.23038,69,81,1
247.84329,248.23038,63,81,1
248.23038,248.42525,70,81,1
248.23038,248.42525,62,81,1
248.62004,249.00966,63,81,1
248.62004,249.00966,57,81,1
249.00966,249.21167,62,81,1
249.00966,249.21167,58,81,1
249.21167,249.4137,57,50,1
249.4137,249.61572,58,59,1
249.61572,249.81773,57,56,1
249.81773,250.01976,58,57,1
250.01976,250.22177,57,49,1
250.22177,250.4238,58,57,1
250.4238,250.62581,57,51,1
250.8306,250.93126,46,55,1
251.03194,251.12965,51,58,1
251.22737,251.32509,53,61,1
251.42282,251.52486,54,64,1
251.62689,251.72894,70,62,1
251.83098,251.93065,75,64,1
252.03032,252.12997,77,66,1
252.17981,252.22964,70,65,1
252.22964,252.83235,78,75,1
252.9849,253.03574,70,60,1
252.83235,253.03574,75,63,1
253.03574,253.63913,78,71,1
253.63913,253.84116,75,58,1
253.84116,254.04877,74,60,1
254.04877,254.14876,46,57,1
254.24876,254.34648,53,60,1
254.4442,254.54193,54,63,1
254.63965,254.74168,56,66,1
254.84372,255.0478,70,59,1
255.0478,255.2478,80,62,1
255.2478,255.4478,78,65,1
255.4478,255.49866,78,60,1
255.49866,255.5495,80,60,1
255.5495,255.6512,78,67,1
255.6512,255.85458,77,60,1
255.85458,255.90544,77,60,1
255.90544,255.95628,78,60,1
255.95628,256.05798,77,67,1
256.05798,256.26135,75,60,1
256.26135,256.31223,75,60,1
256.31223,256.36307,77,60,1
256.36307,256.46475,75,66,1
256.46475,256.66815,74,60,1
256.66815,256.76984,72,60,1
256.87155,256.97324,74,60,1
257.07492,257.28326,75,60,1
257.28326,257.38327,46,55,1
257.48325,257.581,51,58,1
257.6787,257.77643,53,61,1
257.87415,257.97617,54,64,1
258.07822,258.18027,70,62,1
258.2823,258.38196,75,64,1
258.48163,258.5813,77,66,1
258.63113,258.68097,70,65,1
258.68097,259.28366,78,75,1
259.43622,259.48706,70,60,1
259.28366,259.48706,75,63,1
259.48706,260.09045,78,71,1
260.09045,260.29248,75,58,1
260.29248,260.50082,72,60,1
260.50082,260.59982,44,57,1
260.69882,260.79593,51,60,1
260.893,260.99008,53,63,1
261.0872,261.1892,54,66,1
261.29126,261.49533,68,59,1
261.49533,261.69534,78,62,1
261.69534,261.89536,77,65,1
261.89536,261.9462,77,60,1
261.9462,261.99704,78,60,1
261.99704,262.09872,77,67,1
262.09872,262.30212,75,60,1
262.30212,262.35297,75,60,1
262.35297,262.4038,77,60,1
262.4038,262.50552,75,67,1
262.50552,262.7089,73,60,1
262.7089,262.75974,73,60,1
262.75974,262.8106,75,60,1
262.8106,262.9123,73,66,1
262.9123,263.1157,72,60,1
263.1157,263.21738,70,60,1
263.31906,263.42078,72,60,1
263.52246,263.72723,73,60,1
263.72723,263.82758,44,55,1
263.92792,264.02628,49,58,1
264.12463,264.223,51,61,1
264.32135,264.4234,53,64,1
264.52542,264.62747,68,62,1
264.72952,264.8292,73,64,1
264.92886,265.0285,75,66,1
265.07834,265.12817,68,65,1
265.12817,265.7309,77,75,1
265.88342,265.93427,68,60,1
265.7309,265.93427,73,63,1
265.93427,266.53766,77,71,1
266.53766,266.7397,73,58,1
266.7397,266.9466,72,60,1
266.9466,267.04593,44,57,1
267.14526,267.24268,51,60,1
267.34006,267.43747,53,63,1
267.53488,267.6369,54,66,1
267.73895,267.94302,68,59,1
267.94302,268.14304,78,62,1
268.14304,268.34305,77,65,1
268.34305,268.3939,77,60,1
268.3939,268.44473,78,60,1
268.44473,268.54642,77,67,1
268.54642,268.74982,75,60,1
268.74982,268.80066,75,60,1
268.80066,268.8515,77,60,1
268.8515,268.95322,75,67,1
268.95322,269.1566,73,60,1
269.1566,269.20743,73,60,1
269.20743,269.2583,75,60,1
269.2583,269.36,73,66,1
269.36,269.5634,72,60,1
269.5634,269.66507,70,60,1
269.76675,269.86847,72,57,1
269.97015,270.17493,73,60,1
270.17493,270.37494,49,73,1
270.37494,270.5723,56,77,1
270.5723,270.67505,47,73,1
270.77777,270.88052,46,77,1
270.98325,271.18875,70,59,1
271.18875,271.38873,80,62,1
271.38873,271.58875,78,65,1
271.58875,271.6396,78,60,1
271.6396,271.69043,80,60,1
271.69043,271.7921,78,67,1
271.7921,271.9955,77,60,1
271.9955,272.04636,77,60,1
272.04636,272.0972,78,60,1
272.0972,272.1989,77,67,1
272.1989,272.4023,75,60,1
272.4023,272.45316,75,60,1
272.45316,272.504,77,60,1
272.504,272.60568,75,66,1
272.60568,272.80908,74,60,1
272.80908,272.91077,72,60,1
273.01248,273.11417,74,57,1
273.21585,273.42566,75,60,1
273.42566,273.62698,51,73,1
273.62698,273.825,58,77,1
273.825,273.92776,49,73,1
274.0305,274.13324,48,77,1
274.23596,274.44144,72,59,1
274.44144,274.64145,82,62,1
274.64145,274.84146,80,65,1
274.84146,274.8923,80,60,1
274.8923,274.94315,82,60,1
274.94315,275.04483,80,67,1
275.04483,275.24823,79,60,1
275.24823,275.29907,79,60,1
275.29907,275.3499,80,60,1
275.3499,275.45163,79,67,1
275.45163,275.655,77,60,1
275.655,275.70587,77,60,1
275.70587,275.7567,79,60,1
275.7567,275.8584,77,66,1
275.8584,276.0618,76,60,1
276.0618,276.26517,74,60,1
276.26517,276.46857,76,57,1
276.46857,276.5194,79,60,1
276.5194,276.57025,80,60,1
276.57025,276.67197,79,67,1
276.67197,276.87534,77,60,1
276.87534,276.9262,77,60,1
276.9262,276.97705,79,60,1
276.97705,277.07874,77,67,1
277.07874,277.28214,75,60,1
277.28214,277.33298,75,60,1
277.33298,277.38382,77,60,1
277.38382,277.48553,75,66,1
277.48553,277.6889,74,60,1
277.6889,277.8923,72,60,1
277.8923,278.0957,74,57,1
278.0957,278.14655,77,60,1
278.14655,278.1974,79,60,1
278.1974,278.29907,77,67,1
278.29907,278.50247,75,59,1
278.50247,278.5533,75,58,1
278.5533,278.60416,77,58,1
278.60416,278.70587,75,64,1
278.70587,278.90924,74,57,1
278.90924,278.96008,74,56,1
278.96008,279.01096,75,55,1
279.01096,279.11258,74,61,1
279.11258,279.3162,72,55,1
279.3162,279.36746,72,54,1
279.36746,279.41888,74,54,1
279.41888,279.52216,72,59,1
279.52216,279.7305,71,53,1
279.7305,279.7837,72,52,1
279.7837,279.83688,74,52,1
279.83688,279.94327,72,56,1
279.94327,280.15604,70,51,1
280.15604,280.2358,70,50,1
280.3688,280.44858,70,46,1
280.58154,280.63672,72,37,1
280.63672,280.69186,74,37,1
280.69186,280.80215,72,41,1
280.80215,281.02274,70,37,1
281.02274,281.10544,70,37,1
281.24332,281.32605,70,35,1
281.5742,281.6845,63,25,1
281.6845,281.78903,67,29,1
281.78903,281.8933,63,29,1
281.9973,282.10098,63,28,1
282.10098,282.20438,67,30,1
282.20438,282.30746,63,28,1
282.30746,282.41022,67,31,1
282.41022,282.51294,63,30,1
282.51294,282.6157,67,32,1
282.6157,282.7184,63,29,1
281.8933,282.7184,75,45,1
282.82117,282.92392,63,30,1
282.92392,283.02664,67,33,1
283.02664,283.1294,63,32,1
282.7184,283.1294,75,50,1
283.24216,283.35352,63,32,1
283.35352,283.45767,67,36,1
283.45767,283.56186,63,35,1
283.66565,283.76947,63,33,1
283.76947,283.87292,67,35,1
283.87292,283.97635,63,32,1
283.97635,284.07944,67,35,1
284.07944,284.18256,63,33,1
284.18256,284.28564,67,35,1
284.28564,284.38873,63,32,1
283.56186,284.38873,75,54,1
284.49182,284.5949,63,32,1
284.5949,284.698,67,35,1
284.698,284.80954,63,33,1
284.38873,284.80954,75,53,1
284.80954,284.8858,75,66,1
284.91122,285.01282,63,41,1
285.01282,285.11417,68,45,1
285.11417,285.21527,63,42,1
285.21527,285.29105,76,67,1
285.31622,285.4169,64,43,1
285.4169,285.5174,72,47,1
285.5174,285.61774,64,43,1
285.61774,285.69128,77,71,1
285.7158,285.8138,65,45,1
285.8138,285.91187,72,50,1
285.91187,286.0099,65,45,1
286.0099,286.08344,79,72,1
286.10794,286.206,67,47,1
286.206,286.30402,72,50,1
286.30402,286.40207,67,47,1
286.40207,286.4748,80,74,1
286.49893,286.59494,68,49,1
286.59494,286.69272,72,54,1
286.69272,286.78918,68,49,1
286.78918,286.8613,81,80,1
286.8853,286.98148,69,50,1
286.98148,287.07922,72,55,1
287.07922,287.17578,69,51,1
287.17578,287.24847,82,84,1
287.2725,287.36856,70,51,1
287.36856,287.46497,77,58,1
287.46497,287.56107,70,53,1
287.56107,287.634,84,85,1
287.65805,287.7538,72,53,1
287.7538,287.8506,77,58,1
287.8506,287.9467,72,54,1
287.9467,288.0183,85,85,1
288.0424,288.13968,73,55,1
288.13968,288.23578,77,63,1
288.23578,288.33246,73,55,1
288.33246,288.40512,86,90,1
288.42923,288.52502,74,57,1
288.52502,288.62143,77,62,1
288.62143,288.71854,74,57,1
288.71854,288.7905,87,89,1
288.81436,288.91052,75,59,1
288.91052,289.00742,82,64,1
289.00742,289.10483,75,59,1
289.10483,289.1811,83,91,1
289.2065,289.3082,71,61,1
289.3082,289.4099,75,67,1
289.4099,289.5116,71,61,1
289.61127,289.70898,72,78,1
289.70898,289.8067,75,84,1
289.8067,289.90442,72,78,1
289.90442,289.97772,84,88,1
290.00214,290.09985,72,78,1
290.09985,290.2019,75,84,1
290.2019,290.30396,72,76,1
290.40497,290.503,65,78,1
290.503,290.60104,68,84,1
290.60104,290.69907,65,78,1
290.69907,290.7726,74,88,1
290.79712,290.89514,65,78,1
290.89514,291.0027,68,84,1
291.0027,291.11588,65,76,1
291.22076,291.32568,63,32,1
291.32568,291.4302,67,36,1
291.4302,291.5345,63,35,1
291.6385,291.74216,63,33,1
291.74216,291.84555,67,35,1
291.84555,291.94864,63,32,1
291.94864,292.0514,67,35,1
292.0514,292.1541,63,33,1
292.1541,292.25687,67,35,1
292.25687,292.35962,63,32,1
291.5345,292.35962,75,54,1
292.46234,292.5651,63,32,1
292.5651,292.66782,67,35,1
292.66782,292.77057,63,33,1
292.35962,292.77057,75,53,1
292.88336,292.9947,63,32,1
292.9947,293.09885,67,36,1
293.09885,293.20303,63,35,1
293.30682,293.41064,63,33,1
293.41064,293.5141,67,35,1
293.5141,293.61752,63,32,1
293.61752,293.72064,67,35,1
293.72064,293.82373,63,33,1
293.82373,293.92682,67,35,1
293.92682,294.0299,63,32,1
293.20303,294.0299,75,54,1
294.133,294.23608,63,32,1
294.23608,294.33917,67,35,1
294.33917,294.4507,63,33,1
294.0299,294.4507,75,53,1
294.4507,294.52698,75,66,1
294.5524,294.654,63,41,1
294.654,294.75534,68,45,1
294.75534,294.85645,63,42,1
294.85645,294.93222,76,67,1
294.95743,295.05807,64,43,1
295.05807,295.1586,72,47,1
295.1586,295.2589,64,43,1
295.2589,295.33246,77,71,1
295.35696,295.455,65,45,1
295.455,295.55304,72,50,1
295.55304,295.6511,65,45,1
295.6511,295.7246,79,72,1
295.7491,295.84717,67,47,1
295.84717,295.9452,72,50,1
295.9452,296.04324,67,47,1
296.04324,296.11584,80,74,1
296.1399,296.23694,68,49,1
296.23694,296.33383,72,54,1
296.33383,296.43015,68,49,1
296.43015,296.50317,81,80,1
296.52765,296.62433,69,50,1
296.62433,296.72073,72,55,1
296.72073,296.81815,69,51,1
296.81815,296.8907,82,84,1
296.9148,297.0111,70,51,1
297.0111,297.10873,77,58,1
297.10873,297.20557,70,53,1
297.20557,297.27795,84,85,1
297.30222,297.39917,72,53,1
297.39917,297.4953,77,58,1
297.4953,297.59247,72,54,1
297.59247,297.6656,85,85,1
297.68982,297.78586,73,55,1
297.78586,297.88254,77,63,1
297.88254,297.97974,73,55,1
297.97974,298.0516,86,90,1
298.07544,298.17108,74,57,1
298.17108,298.26825,77,62,1
298.26825,298.36447,74,57,1
298.36447,298.4367,87,89,1
298.4611,298.5594,75,59,1
298.5594,298.65686,82,64,1
298.65686,298.75363,75,59,1
298.75363,298.8299,88,91,1
298.85532,298.95703,76,61,1
298.95703,299.05872,82,67,1
299.05872,299.1604,76,61,1
299.26245,299.36017,80,78,1
299.36017,299.4579,84,84,1
299.4579,299.5556,80,78,1
299.5556,299.6289,89,88,1
299.65332,299.75104,80,78,1
299.75104,299.8531,84,84,1
299.8531,299.95514,80,76,1
300.05582,300.15384,77,78,1
300.15384,300.2519,80,84,1
300.2519,300.3499,77,78,1
300.3499,300.42346,86,88,1
300.44797,300.546,77,78,1
300.546,300.6477,80,84,1
300.6477,300.7494,77,76,1
300.7494,300.82806,79,81,1
300.95917,301.3566,87,64,1
301.3566,301.45697,86,46,1
301.45697,301.55908,87,48,1
301.55908,301.66165,89,49,1
301.66165,301.76242,87,49,1
301.76242,301.86182,86,48,1
301.86182,301.96115,84,47,1
301.96115,302.06052,83,45,1
302.06052,302.15985,84,46,1
302.15985,302.2596,86,49,1
302.2596,302.3608,84,47,1
302.3608,302.46216,82,49,1
302.46216,302.56216,80,47,1
302.56216,302.66116,79,46,1
302.66116,302.7602,77,45,1
302.7602,302.8592,76,45,1
302.8592,302.9582,77,45,1
302.9582,303.05786,79,47,1
303.05786,303.15887,77,45,1
303.15887,303.26016,75,46,1
303.26016,303.36017,74,46,1
303.36017,303.4595,72,45,1
303.4595,303.55884,70,45,1
303.55884,303.6582,69,45,1
303.6582,303.75754,70,42,1
303.75754,303.85687,72,46,1
303.85687,303.9562,68,42,1
303.9562,304.03488,67,66,1
304.166,304.5634,87,68,1
304.166,304.5634,75,68,1
304.5634,304.6638,86,61,1
304.6638,304.7659,87,64,1
304.7659,304.86847,89,66,1
304.86847,304.96924,87,66,1
304.96924,305.06863,86,65,1
305.06863,305.16797,84,64,1
305.16797,305.2673,83,62,1
305.2673,305.36667,84,64,1
305.36667,305.46643,86,68,1
305.46643,305.56763,84,66,1
305.56763,305.66898,82,69,1
305.66898,305.76898,80,67,1
305.76898,305.86798,79,66,1
305.86798,305.96698,77,65,1
305.96698,306.066,76,65,1
306.066,306.165,77,64,1
306.165,306.26468,79,68,1
306.26468,306.3657,77,66,1
306.3657,306.46698,75,68,1
306.46698,306.567,74,68,1
306.567,306.66632,72,68,1
306.66632,306.76566,70,68,1
306.76566,306.86502,69,67,1
306.86502,306.9643,70,64,1
306.9643,307.0653,72,70,1
307.0653,307.17154,70,64,1
307.17154,307.28223,75,83,1
307.39294,307.79364,63,82,1
307.79364,307.89297,67,80,1
307.79364,307.89297,61,80,1
307.9923,308.09164,68,81,1
307.9923,308.09164,60,81,1
308.19098,308.2903,70,82,1
308.19098,308.2903,67,82,1
308.38965,308.48898,72,83,1
308.38965,308.48898,68,83,1
308.58835,308.68768,74,85,1
308.58835,308.68768,68,85,1
308.78702,308.89154,75,83,1
308.78702,308.89154,67,83,1
308.99606,309.39676,75,82,1
309.39676,309.4961,79,80,1
309.39676,309.4961,73,80,1
309.59543,309.6948,80,81,1
309.59543,309.6948,72,81,1
309.79413,309.89346,82,82,1
309.79413,309.89346,79,82,1
309.9928,310.09213,84,83,1
309.9928,310.09213,80,83,1
310.19147,310.29636,86,85,1
310.19147,310.29636,80,85,1
310.40125,311.20126,79,94,1
310.40125,311.20126,87,94,1
311.20126,312.01233,75,88,1
311.20126,312.01233,67,88,1
312.01233,312.81235,79,99,1
312.01233,312.81235,87,99,1
312.81235,313.61917,75,92,1
312.81235,313.61917,67,92,1
313.61917,314.41916,84,102,1
313.61917,314.41916,87,102,1
314.41916,315.2245,75,96,1
314.41916,315.2245,72,96,1
315.2245,316.18835,86,93,1
315.2245,316.18835,81,93,1
315.2245,316.18835,84,93,1
316.18835,318.18835,62,102,1
316.18835,318.18835,60,102,1
316.18835,318.18835,57,86,1
318.18835,322.31335,67,102,1
318.18835,322.31335,55,87,1
318.18835,322.31335,58,87,1
318.18835,322.31335,62,87,1
322.31335,322.6696,67,51,1
322.31335,322.6696,62,44,1
322.68835,323.81335,69,55,1
322.68835,323.81335,66,46,1
322.68835,323.81335,62,46,1
323.81335,324.23245,70,50,1
323.81335,324.23245,67,50,1
323.81335,324.23245,62,42,1
324.25452,327.5422,70,55,1
324.25452,327.5422,67,55,1
324.25452,327.5422,64,46,1
327.5422,329.0422,69,39,1
327.5422,329.0422,66,31,1
330.5422,334.6672,72,100,1
330.5422,334.6672,69,87,1
330.5422,334.6672,66,87,1
334.6672,335.02344,72,52,1
334.6672,335.02344,66,44,1
334.6672,335.02344,69,44,1
335.0422,336.1672,74,55,1
335.0422,336.1672,69,46,1
335.0422,336.1672,66,46,1
336.1672,336.58023,66,43,1
336.1672,336.58023,75,51,1
336.1672,336.58023,69,51,1
336.602,339.88965,69,55,1
336.602,339.88965,66,46,1
336.602,339.88965,75,55,1
339.88965,341.38965,70,32,1
339.88965,341.38965,74,39,1
339.88965,341.38965,67,32,1
342.88965,347.01465,72,96,1
342.88965,347.01465,69,84,1
342.88965,347.01465,66,84,1
347.01465,347.3709,72,55,1
347.01465,347.3709,66,46,1
347.01465,347.3709,69,46,1
347.38965,348.5435,74,60,1
347.38965,348.5435,69,51,1
347.38965,348.5435,66,51,1
348.5435,348.93933,66,54,1
348.5435,348.93933,75,63,1
348.5435,348.93933,69,63,1
348.96017,352.16016,69,50,1
348.96017,352.16016,66,50,1
348.96017,352.16016,75,59,1
352.16016,355.36017,76,52,1
352.16016,355.36017,67,44,1
352.16016,355.36017,64,44,1
355.36017,358.56015,69,47,1
355.36017,358.56015,66,39,1
355.36017,358.56015,63,39,1
358.56015,361.76767,67,43,1
358.56015,361.76767,64,35,1
358.56015,361.76767,59,35,1
361.76767,365.30002,66,39,1
361.76767,365.30002,57,33,1
361.76767,365.30002,60,33,1
361.76767,365.30002,63,39,1
365.30002,370.60358,63,34,1
365.30002,370.60358,57,28,1
365.30002,370.60358,54,28,1
370.60358,370.68134,64,61,1
370.81088,370.88397,69,55,1
371.00577,371.07883,67,58,1
371.20062,371.2737,75,56,1
371.20062,371.2737,69,47,1
371.39548,371.46857,76,61,1
371.39548,371.46857,67,51,1
371.59036,371.66272,81,66,1
371.59036,371.66272,75,56,1
371.7833,371.85562,79,71,1
371.7833,371.85562,76,60,1
371.97623,372.04855,87,73,1
371.97623,372.04855,81,62,1
372.16913,372.3675,88,80,1
372.16913,372.3675,79,68,1
372.56586,372.76422,76,80,1
372.56586,372.76422,64,68,1
373.16095,373.23532,76,62,1
373.16095,373.23532,64,52,1
373.35928,373.43234,78,67,1
373.35928,373.43234,66,56,1
373.5541,373.6314,79,62,1
373.5541,373.6314,67,52,1
373.76028,374.15897,79,66,1
373.76028,374.15897,67,56,1
374.15897,374.3583,78,62,1
374.15897,374.3583,66,52,1
374.755,374.829,78,62,1
374.755,374.829,66,52,1
374.95236,375.02542,79,67,1
374.95236,375.02542,67,56,1
375.1472,375.2245,81,62,1
375.1472,375.2245,69,52,1
375.35336,375.4311,81,62,1
375.35336,375.4311,69,52,1
375.56067,375.63373,67,55,1
375.75552,375.8286,66,58,1
375.95038,376.02347,73,56,1
375.95038,376.02347,67,47,1
376.14526,376.21832,74,61,1
376.14526,376.21832,66,51,1
376.34012,376.41248,79,66,1
376.34012,376.41248,73,56,1
376.53305,376.6054,78,71,1
376.53305,376.6054,74,60,1
376.72598,376.79834,85,73,1
376.72598,376.79834,79,62,1
376.9189,377.11728,86,80,1
376.9189,377.11728,78,68,1
377.3156,377.51398,78,80,1
377.3156,377.51398,66,68,1
377.9107,377.98508,78,62,1
377.9107,377.98508,66,52,1
378.10907,378.18213,79,67,1
378.10907,378.18213,67,56,1
378.30386,378.3812,81,62,1
378.30386,378.3812,69,52,1
378.51007,378.90872,81,66,1
378.51007,378.90872,69,56,1
378.90872,379.10806,79,62,1
378.90872,379.10806,67,52,1
379.50476,379.5788,79,62,1
379.50476,379.5788,67,52,1
379.70215,379.77518,81,67,1
379.70215,379.77518,69,56,1
379.89694,379.97427,82,62,1
379.89694,379.97427,70,52,1
380.10312,380.29312,70,58,1
380.20312,380.30313,82,52,1
380.30313,380.487,70,58,1
380.3999,380.49667,82,53,1
380.49667,380.68732,70,58,1
380.59702,380.69736,82,52,1
380.69736,380.8806,70,58,1
380.7938,380.89026,82,52,1
380.89026,381.08026,70,58,1
380.99026,381.09027,82,52,1
381.09027,381.27414,70,58,1
381.18704,381.2838,82,53,1
381.2838,381.47382,70,58,1
381.38382,381.48383,82,52,1
381.48383,381.66708,70,58,1
381.5803,381.67676,82,52,1
381.67676,381.868,70,58,1
381.7774,381.87808,82,52,1
381.87808,382.06375,70,58,1
381.9758,382.07352,82,53,1
382.07352,382.2592,70,58,1
382.17123,382.26895,82,52,1
382.26895,382.45462,70,58,1
382.3667,382.46442,82,52,1
382.46442,382.6483,70,58,1
382.5612,382.65796,82,52,1
382.65796,382.84183,70,58,1
382.75473,382.8515,82,53,1
382.8515,383.03537,70,58,1
382.94827,383.04504,82,52,1
383.04504,383.2289,70,58,1
383.1418,383.2386,82,52,1
383.2386,383.4286,69,58,1
383.3386,383.4386,81,52,1
383.4386,383.62247,69,58,1
383.53537,383.63214,81,53,1
383.63214,383.82278,69,58,1
383.73248,383.83282,81,52,1
383.83282,384.01608,69,58,1
383.9293,384.02576,81,52,1
384.02576,384.21573,69,58,1
384.12573,384.22574,81,52,1
384.22574,384.4096,69,58,1
384.3225,384.41928,81,53,1
384.41928,384.60928,69,58,1
384.5193,384.6193,81,52,1
384.6193,384.80258,69,58,1
384.71576,384.81223,81,52,1
384.81223,385.00348,69,58,1
384.9129,385.01355,81,52,1
385.01355,385.19922,69,58,1
385.11127,385.209,81,53,1
385.209,385.39465,69,58,1
385.30673,385.40445,81,52,1
385.40445,385.59012,69,58,1
385.50217,385.59988,81,52,1
385.59988,385.78375,69,58,1
385.69666,385.79343,81,52,1
385.79343,385.9773,69,58,1
385.8902,385.98697,81,53,1
385.98697,386.17084,69,58,1
386.08374,386.1805,81,52,1
386.1805,386.3644,69,58,1
386.2773,386.37408,81,52,1
386.37408,386.5641,68,58,1
386.47406,386.57407,80,52,1
386.57407,386.75793,68,58,1
386.67084,386.7676,80,53,1
386.7676,386.95825,68,58,1
386.86795,386.9683,80,52,1
386.9683,387.15158,68,58,1
387.06476,387.16122,80,52,1
387.16122,387.35123,68,58,1
387.26123,387.3612,80,52,1
387.3612,387.54507,68,58,1
387.45798,387.55478,80,53,1
387.55478,387.74475,68,58,1
387.65475,387.75476,80,52,1
387.75476,387.93805,68,58,1
387.85123,387.9477,80,52,1
387.9477,388.1334,68,58,1
388.0454,388.1432,80,52,1
388.1432,388.32928,68,58,1
388.2412,388.33905,80,53,1
388.33905,388.52438,68,58,1
388.4367,388.53412,80,52,1
388.53412,388.71866,68,58,1
388.63132,388.72833,80,52,1
388.72833,388.91223,68,58,1
388.82513,388.9219,80,54,1
388.9219,389.10577,67,58,1
389.01868,389.11545,79,54,1
389.11545,389.29932,67,58,1
389.21222,389.309,79,54,1
389.309,389.49606,65,58,1
389.40576,389.5061,77,54,1
389.5061,389.68997,65,56,1
389.60287,389.69965,77,56,1
389.69965,389.8835,64,56,1
389.79642,389.8932,76,56,1
389.8932,390.07706,64,55,1
389.98996,390.08673,76,55,1
390.08673,390.27383,61,55,1
390.18353,390.28384,73,55,1
390.28384,390.46832,61,54,1
390.38095,390.47803,73,51,1
390.47803,390.6625,60,54,1
390.5751,390.6722,72,51,1
390.6722,390.85666,60,53,1
390.7693,390.8664,72,50,1
390.8664,391.05408,58,53,1
390.96347,391.06415,70,49,1
391.06415,391.24802,58,53,1
391.16092,391.2577,70,51,1
391.2577,391.44156,56,53,1
391.35446,391.45123,68,50,1
391.45123,391.6351,56,53,1
391.548,391.64478,68,50,1
391.64478,391.83185,55,53,1
391.74155,391.8419,67,49,1
391.8419,392.02637,55,53,1
391.939,392.03607,67,53,1
392.03607,392.22052,53,53,1
392.13315,392.23026,65,48,1
392.23026,392.4147,53,53,1
392.32733,392.4244,65,49,1
392.4244,392.61243,51,53,1
392.5215,392.62253,63,49,1
392.62253,392.80698,51,53,1
392.7196,392.81668,63,49,1
392.81668,393.00116,50,53,1
392.9138,393.01086,62,49,1
393.01086,393.19534,50,53,1
393.10794,393.20505,62,49,1
393.20505,393.39304,51,53,1
393.30212,393.40314,63,48,1
393.40314,393.58762,51,53,1
393.5002,393.59732,63,49,1
393.59732,393.78177,50,53,1
393.6944,393.79147,62,49,1
393.79147,393.97595,50,53,1
393.88858,393.98566,62,49,1
393.98566,394.17014,48,53,1
394.08276,394.17984,60,49,1
394.17984,394.3772,59,53,1
394.17984,394.3772,47,53,1
394.5746,394.67197,49,40,1
394.67197,394.76938,56,34,1
394.76938,394.8668,52,34,1
394.8668,394.96417,49,34,1
394.96417,395.06158,50,41,1
395.06158,395.159,56,34,1
395.159,395.25638,53,34,1
395.25638,395.3538,50,34,1
395.3538,395.4512,48,41,1
395.4512,395.5486,56,34,1
395.5486,395.646,51,34,1
395.646,395.7434,48,34,1
395.7434,395.84082,47,40,1
395.84082,395.9382,55,34,1
395.9382,396.0356,50,34,1
396.0356,396.13766,47,34,1
396.13766,396.23505,49,40,1
396.23505,396.33246,56,34,1
396.33246,396.42987,52,34,1
396.42987,396.52725,49,34,1
396.52725,396.62466,50,40,1
396.62466,396.72208,56,34,1
396.72208,396.81946,53,34,1
396.81946,396.91687,50,34,1
396.91687,397.01428,48,39,1
397.01428,397.11166,56,34,1
397.11166,397.21027,51,34,1
397.21027,397.31116,48,34,1
397.31116,397.5092,55,34,1
397.31116,397.5092,50,34,1
397.31116,397.5092,47,34,1
397.5092,397.58224,64,55,1
397.70404,397.77713,65,58,1
397.89893,397.972,73,56,1
397.89893,397.972,64,47,1
398.09378,398.16687,74,61,1
398.09378,398.16687,65,51,1
398.28867,398.361,76,66,1
398.28867,398.361,73,56,1
398.48157,398.55392,77,71,1
398.48157,398.55392,74,60,1
398.6745,398.74686,85,73,1
398.6745,398.74686,76,62,1
398.86743,398.94073,86,73,1
398.86743,398.94073,77,62,1
399.06287,399.13812,88,77,1
399.06287,399.13812,85,77,1
399.26355,400.0453,89,82,1
399.26355,400.0453,86,82,1
400.0453,400.09512,87,58,1
400.09512,400.14496,89,54,1
400.14496,400.1948,87,54,1
400.1948,400.24463,89,54,1
400.24463,400.29446,87,59,1
400.29446,400.3443,89,54,1
400.3443,400.39413,87,54,1
400.39413,400.44397,89,54,1
400.0453,400.44397,84,58,1
400.44397,400.64133,86,59,1
400.44397,400.64133,83,59,1
400.8387,400.9361,49,40,1
400.9361,401.0335,56,34,1
401.0335,401.13092,52,34,1
401.13092,401.2283,49,34,1
401.2283,401.3257,50,41,1
401.3257,401.42313,56,34,1
401.42313,401.52054,53,34,1
401.52054,401.61792,50,34,1
401.61792,401.71533,48,41,1
401.71533,401.81274,56,34,1
401.81274,401.91013,51,34,1
401.91013,402.00754,48,34,1
402.00754,402.10495,47,40,1
402.10495,402.20233,55,34,1
402.20233,402.29974,50,34,1
402.29974,402.4018,47,34,1
402.4018,402.49918,49,40,1
402.49918,402.5966,56,34,1
402.5966,402.694,52,34,1
402.694,402.79138,49,34,1
402.79138,402.8888,50,40,1
402.8888,402.9862,56,34,1
402.9862,403.0836,53,34,1
403.0836,403.181,50,34,1
403.181,403.2784,48,39,1
403.2784,403.37582,56,34,1
403.37582,403.4744,51,34,1
403.4744,403.5753,48,34,1
403.5753,403.77332,55,34,1
403.5753,403.77332,50,34,1
403.5753,403.77332,47,34,1
403.77332,403.84637,64,55,1
403.96817,404.04126,65,58,1
404.16306,404.2361,73,56,1
404.16306,404.2361,64,47,1
404.3579,404.431,74,61,1
404.3579,404.431,65,51,1
404.5528,404.62512,76,66,1
404.5528,404.62512,73,56,1
404.7457,404.81805,77,71,1
404.7457,404.81805,74,60,1
404.93863,405.011,85,73,1
404.93863,405.011,76,62,1
405.13156,405.20486,86,73,1
405.13156,405.20486,77,62,1
405.327,405.40225,88,77,1
405.327,405.40225,85,77,1
405.52768,406.30942,89,82,1
405.52768,406.30942,86,82,1
406.30942,406.35925,87,58,1
406.35925,406.4091,89,54,1
406.4091,406.45892,87,54,1
406.45892,406.50876,89,54,1
406.50876,406.542,87,59,1
406.542,406.5752,89,54,1
406.5752,406.60843,87,54,1
406.60843,406.65826,86,54,1
406.65826,406.7081,87,54,1
406.30942,406.7081,84,58,1
406.7081,406.7814,86,73,1
406.7081,406.7814,83,62,1
406.90353,406.9788,88,77,1
406.90353,406.9788,85,77,1
407.10422,407.88596,89,82,1
407.10422,407.88596,86,82,1
407.88596,407.9358,87,58,1
407.9358,407.98563,89,54,1
407.98563,408.03546,87,54,1
408.03546,408.0853,89,54,1
408.0853,408.11853,87,59,1
408.11853,408.15173,89,54,1
408.15173,408.18497,87,54,1
408.18497,408.2348,86,54,1
408.2348,408.28464,87,54,1
407.88596,408.28464,84,58,1
408.28464,408.35794,86,73,1
408.28464,408.35794,83,62,1
408.48007,408.55533,88,77,1
408.48007,408.55533,85,77,1
408.68076,409.4625,89,82,1
408.68076,409.4625,86,82,1
409.4625,409.51233,87,58,1
409.51233,409.56216,89,54,1
409.56216,409.612,87,54,1
409.612,409.66183,89,54,1
409.66183,409.69507,87,59,1
409.69507,409.72827,89,54,1
409.72827,409.7615,87,54,1
409.7615,409.81134,86,54,1
409.81134,409.86118,87,54,1
409.4625,409.86118,84,58,1
409.86118,409.9589,86,58,1
409.86118,409.9589,83,58,1
409.9589,410.0566,89,53,1
410.0566,410.15433,86,54,1
410.15433,410.25204,84,54,1
410.25204,410.34976,83,58,1
410.34976,410.44748,89,53,1
410.44748,410.54523,86,53,1
410.54523,410.64294,84,53,1
410.64294,410.74066,83,58,1
410.74066,410.83838,89,55,1
410.83838,410.9361,86,55,1
410.9361,411.0338,84,55,1
411.0338,411.13153,83,58,1
411.13153,411.22925,86,55,1
411.22925,411.32697,83,55,1
411.32697,411.42468,79,55,1
411.42468,411.5224,80,58,1
411.5224,411.62012,82,55,1
411.62012,411.71786,80,55,1
411.71786,411.81558,79,55,1
411.81558,411.9133,77,58,1
411.9133,412.01102,80,55,1
412.01102,412.10873,77,55,1
412.10873,412.20645,75,55,1
412.20645,412.30417,74,58,1
412.30417,412.4019,77,54,1
412.4019,412.4996,74,54,1
412.4996,412.59732,72,54,1
412.59732,412.69504,71,58,1
412.69504,412.79276,74,54,1
412.79276,412.89047,71,54,1
412.89047,412.98822,67,54,1
412.98822,413.08594,68,58,1
413.08594,413.18365,70,55,1
413.18365,413.28137,68,55,1
413.28137,413.3791,67,55,1
413.3791,413.4768,65,58,1
413.4768,413.57452,68,58,1
413.57452,413.67224,65,55,1
413.67224,413.76996,63,55,1
413.76996,413.86768,62,58,1
413.86768,413.9654,65,55,1
413.9654,414.0631,62,55,1
414.0631,414.16086,60,55,1
414.16086,414.25858,59,58,1
414.25858,414.3563,62,55,1
414.3563,414.454,59,55,1
414.454,414.55173,55,55,1
414.55173,414.64944,56,58,1
414.64944,414.74716,58,54,1
414.74716,414.84488,56,54,1
414.84488,414.9426,55,54,1
414.9426,415.0403,53,58,1
415.0403,415.13803,51,53,1
415.13803,415.23575,50,53,1
415.23575,415.3335,48,53,1
415.3335,415.4312,47,58,1
415.4312,415.52893,48,55,1
415.52893,415.62665,47,55,1
415.62665,415.72437,44,56,1
415.72437,415.82208,43,58,1
415.82208,415.9198,41,55,1
415.9198,416.01752,39,55,1
416.01752,416.11523,38,55,1
416.11523,416.71802,60,50,1
416.71802,416.79153,64,52,1
416.71802,416.79153,58,52,1
416.9134,416.98648,65,54,1
416.9134,416.98648,56,54,1
417.10828,417.1804,67,56,1
417.10828,417.1804,64,56,1
417.30057,417.37268,68,57,1
417.30057,417.37268,65,57,1
417.4929,417.56616,71,59,1
417.4929,417.56616,62,59,1
417.68832,417.76605,72,61,1
417.68832,417.76605,63,61,1
417.89563,418.28537,72,55,1
417.89563,418.28537,64,55,1
418.28537,418.35843,76,51,1
418.28537,418.35843,70,51,1
418.48022,418.5533,77,53,1
418.48022,418.5533,68,53,1
418.67508,418.74744,79,55,1
418.67508,418.74744,76,55,1
418.868,418.94037,80,57,1
418.868,418.94037,77,57,1
419.06094,419.1333,83,59,1
419.06094,419.1333,74,59,1
419.25388,419.6485,84,61,1
419.25388,419.6485,72,51,1
419.25388,419.6485,79,61,1
419.25388,419.6485,75,51,1
419.6485,420.04675,79,63,1
419.6485,420.04675,67,53,1
419.6485,420.04675,71,53,1
419.6485,420.04675,77,63,1
420.04675,420.44196,75,67,1
420.04675,420.44196,72,56,1
420.04675,420.44196,67,56,1
420.44196,420.84058,74,71,1
420.44196,420.84058,68,60,1
420.44196,420.84058,65,60,1
420.84058,421.2426,67,74,1
421.2426,421.64465,66,74,1
421.64465,422.0467,69,77,1
420.84058,422.0467,72,74,1
420.84058,422.0467,63,62,1
422.0467,422.44873,71,74,1
422.0467,422.44873,65,62,1
422.0467,422.44873,62,62,1
422.44873,422.52548,72,79,1
422.44873,422.52548,63,67,1
422.44873,422.52548,60,67,1
422.6526,423.05148,60,67,1
423.05148,423.125,64,52,1
423.05148,423.125,58,52,1
423.2469,423.31995,65,54,1
423.2469,423.31995,56,54,1
423.44174,423.51385,67,55,1
423.44174,423.51385,64,55,1
423.63406,423.70618,68,57,1
423.63406,423.70618,65,57,1
423.82635,423.89847,71,59,1
423.82635,423.89847,62,59,1
424.01868,424.0964,72,61,1
424.01868,424.0964,63,61,1
424.22595,424.6157,72,55,1
424.22595,424.6157,64,55,1
424.6157,424.68878,76,51,1
424.6157,424.68878,70,51,1
424.81058,424.88364,77,53,1
424.81058,424.88364,68,53,1
425.00543,425.07755,79,55,1
425.00543,425.07755,76,55,1
425.19775,425.26987,80,57,1
425.19775,425.26987,77,57,1
425.39005,425.46335,83,59,1
425.39005,425.46335,74,59,1
425.58548,425.9801,84,61,1
425.58548,425.9801,72,51,1
425.58548,425.9801,79,61,1
425.58548,425.9801,75,51,1
425.9801,426.37836,80,63,1
425.9801,426.37836,75,63,1
425.9801,426.37836,68,53,1
426.37836,426.77356,77,67,1
426.37836,426.77356,73,56,1
426.37836,426.77356,68,56,1
426.77356,427.17218,75,71,1
426.77356,427.17218,72,60,1
426.77356,427.17218,66,60,1
427.17218,427.57422,73,74,1
427.17218,427.57422,68,74,1
427.17218,427.57422,65,62,1
427.57422,427.97626,61,74,1
427.57422,427.97626,66,74,1
427.57422,427.97626,70,74,1
427.97626,428.37418,65,74,1
427.97626,428.37418,61,74,1
428.37418,428.7772,63,74,1
428.37418,428.7772,60,74,1
427.97626,428.7772,68,77,1
428.7772,429.17755,70,61,1
428.7772,429.17755,65,51,1
428.7772,429.17755,62,51,1
429.17755,429.57578,82,63,1
429.17755,429.57578,77,63,1
429.17755,429.57578,70,53,1
429.57578,429.971,78,67,1
429.57578,429.971,75,56,1
429.57578,429.971,70,56,1
429.971,430.36963,77,71,1
429.971,430.36963,74,60,1
429.971,430.36963,68,60,1
430.36963,430.77167,75,74,1
430.36963,430.77167,70,74,1
430.36963,430.77167,66,62,1
430.77167,431.17368,68,74,1
430.77167,431.17368,71,74,1
430.77167,431.17368,63,74,1
431.17368,431.5716,66,74,1
431.17368,431.5716,63,74,1
431.5716,431.97324,65,74,1
431.5716,431.97324,62,74,1
431.17368,431.97324,70,77,1
431.97324,432.37222,72,61,1
431.97324,432.37222,67,51,1
431.97324,432.37222,64,51,1
432.37222,432.77045,84,63,1
432.37222,432.77045,79,63,1
432.37222,432.77045,72,53,1
432.77045,433.16568,80,67,1
432.77045,433.16568,77,56,1
432.77045,433.16568,72,56,1
433.16568,433.5643,79,71,1
433.16568,433.5643,76,60,1
433.16568,433.5643,70,60,1
433.5643,433.9663,77,74,1
433.5643,433.9663,72,74,1
433.5643,433.9663,68,62,1
433.9663,434.36835,65,74,1
433.9663,434.36835,73,74,1
434.36835,434.76627,72,77,1
434.36835,434.76627,65,74,1
434.76627,435.16415,71,74,1
434.76627,435.16415,65,74,1
435.16415,435.36313,72,73,1
435.16415,435.36313,64,65,1
435.36313,435.5665,59,50,1
435.5665,435.7699,60,59,1
435.7699,435.9733,59,56,1
435.9733,436.17667,60,57,1
436.17667,436.38007,59,49,1
436.38007,436.58347,60,57,1
436.58347,436.78687,59,51,1
436.99164,437.0923,48,55,1
437.19296,437.29068,53,58,1
437.3884,437.48615,55,61,1
437.58386,437.68588,56,64,1
437.78793,437.88998,72,62,1
437.992,438.09167,77,64,1
438.19135,438.29102,79,66,1
438.34085,438.3907,72,65,1
438.3907,438.99338,80,75,1
439.14594,439.19678,72,60,1
438.99338,439.19678,77,63,1
439.19678,439.80017,80,71,1
439.80017,440.0022,77,58,1
440.0022,440.2098,76,60,1
440.2098,440.30978,48,57,1
440.4098,440.5075,55,60,1
440.60522,440.70297,56,63,1
440.8007,440.9027,58,66,1
441.00476,441.20883,72,59,1
441.20883,441.40884,82,62,1
441.40884,441.60883,80,65,1
441.60883,441.6597,80,60,1
441.6597,441.71054,82,60,1
441.71054,441.81223,80,67,1
441.81223,442.01562,79,60,1
442.01562,442.06647,79,60,1
442.06647,442.1173,80,60,1
442.1173,442.21902,79,67,1
442.21902,442.4224,77,60,1
442.4224,442.47324,77,60,1
442.47324,442.5241,79,60,1
442.5241,442.6258,77,66,1
442.6258,442.8292,76,60,1
442.8292,442.93088,74,60,1
443.03256,443.13428,76,60,1
443.23596,443.4443,77,60,1
443.4443,443.54428,48,55,1
443.6443,443.742,53,58,1
443.83972,443.93744,55,61,1
444.0352,444.1372,56,64,1
444.23926,444.3413,72,62,1
444.44333,444.543,77,64,1
444.64267,444.74234,80,66,1
444.79218,444.842,72,65,1
444.842,445.4447,84,75,1
445.4447,445.5803,77,63,1
445.59726,445.6481,77,60,1
445.6481,446.2515,89,71,1
446.2515,446.45352,84,58,1
446.45352,446.66183,83,60,1
446.66183,446.76086,43,57,1
446.85986,446.95694,50,60,1
447.05405,447.15112,51,63,1
447.2482,447.35025,53,66,1
447.4523,447.65637,67,59,1
447.65637,447.85638,77,62,1
447.85638,448.05637,75,65,1
448.05637,448.10724,75,60,1
448.10724,448.15808,77,60,1
448.15808,448.25977,75,67,1
448.25977,448.46317,74,60,1
448.46317,448.514,74,60,1
448.514,448.56485,75,60,1
448.56485,448.66653,74,67,1
448.66653,448.86993,72,60,1
448.86993,448.92078,72,60,1
448.92078,448.97162,74,60,1
448.97162,449.07333,72,66,1
449.07333,449.2767,71,60,1
449.2767,449.37842,69,60,1
449.4801,449.5818,71,60,1
449.6835,449.88828,72,60,1
449.88828,449.98862,43,55,1
450.08893,450.18732,48,58,1
450.28568,450.38403,50,61,1
450.4824,450.58444,51,64,1
450.68646,450.7885,79,62,1
450.89056,450.9902,84,64,1
451.08987,451.18954,86,66,1
451.23938,451.2892,79,65,1
451.2892,451.89194,87,75,1
452.04446,452.0953,79,60,1
451.89194,452.0953,84,63,1
452.0953,452.6987,87,71,1
452.6987,452.90073,84,58,1
452.90073,453.1076,83,60,1
453.1076,453.20663,43,57,1
453.30563,453.40274,50,60,1
453.49982,453.5969,51,63,1
453.694,453.79602,53,66,1
453.89807,454.10214,79,59,1
454.10214,454.30215,89,62,1
454.30215,454.50217,87,65,1
454.50217,454.553,87,60,1
454.553,454.60385,89,60,1
454.60385,454.70554,87,67,1
454.70554,454.90894,86,60,1
454.90894,454.95978,86,60,1
454.95978,455.01062,87,60,1
455.01062,455.11234,86,67,1
455.11234,455.3157,84,60,1
455.3157,455.36655,84,60,1
455.36655,455.41742,86,60,1
455.41742,455.5191,84,66,1
455.5191,455.7225,83,60,1
455.7225,455.8242,81,60,1
455.92587,456.0276,83,60,1
456.1332,456.18405,86,60,1
456.18405,456.2349,87,60,1
456.2349,456.3366,86,67,1
456.3366,456.53998,84,59,1
456.53998,456.59085,84,58,1
456.59085,456.6417,86,58,1
456.6417,456.74338,84,65,1
456.74338,456.94678,82,58,1
456.94678,456.99762,82,57,1
456.99762,457.04846,84,57,1
457.04846,457.15015,82,63,1
457.15015,457.35355,81,57,1
457.35355,457.45523,79,56,1
457.55695,457.65863,81,55,1
457.76428,457.81512,84,55,1
457.81512,457.86597,85,55,1
457.86597,457.96765,84,61,1
457.96765,458.17105,82,54,1
458.17105,458.2219,82,54,1
458.2219,458.27274,84,54,1
458.27274,458.37445,82,60,1
458.37445,458.57782,80,53,1
458.57782,458.62866,80,52,1
458.62866,458.67953,82,52,1
458.67953,458.78122,80,57,1
458.78122,458.98462,79,52,1
458.98462,459.0863,77,51,1
459.188,459.2897,79,51,1
459.3957,459.4476,82,50,1
459.4476,459.4995,84,50,1
459.4995,459.6033,82,55,1
459.6033,459.8109,80,49,1
459.8109,459.86282,80,49,1
459.86282,459.91473,82,48,1
459.91473,460.01852,80,54,1
460.01852,460.23065,79,48,1
460.23065,460.28256,79,48,1
460.28256,460.33444,80,47,1
460.33444,460.43826,79,52,1
460.43826,460.64587,78,47,1
460.64587,460.7497,78,46,1
460.8535,460.9573,78,46,1
461.06442,461.1186,80,42,1
461.1186,461.17273,82,42,1
461.17273,461.28104,80,46,1
461.28104,461.49765,79,42,1
461.49765,461.60596,79,42,1
461.71426,461.82257,79,42,1
461.9366,461.9922,80,42,1
461.9922,462.04773,82,42,1
462.04773,462.15884,80,46,1
462.15884,462.38107,79,42,1
462.38107,462.4922,79,42,1
462.6033,462.71442,79,42,1
462.97552,463.12552,60,25,1
463.12552,463.23004,63,29,1
463.23004,463.33432,60,29,1
463.43832,463.542,60,28,1
463.542,463.6454,63,30,1
463.6454,463.74847,60,28,1
463.74847,463.85123,63,31,1
463.85123,463.95398,60,30,1
463.95398,464.0567,63,32,1
464.0567,464.15945,60,29,1
463.33432,464.15945,72,45,1
464.26218,464.36493,60,30,1
464.36493,464.46765,63,33,1
464.46765,464.5704,60,32,1
464.15945,464.5704,72,50,1
464.6832,464.79453,61,32,1
464.79453,464.8987,64,36,1
464.8987,465.00287,61,35,1
465.10666,465.21048,61,33,1
465.21048,465.31393,64,35,1
465.31393,465.4174,61,32,1
465.4174,465.52048,64,35,1
465.52048,465.62357,61,33,1
465.62357,465.72665,64,35,1
465.72665,465.82974,61,32,1
465.00287,465.82974,73,54,1
465.93283,466.03592,61,32,1
466.03592,466.13904,64,35,1
466.13904,466.25055,61,33,1
465.82974,466.25055,73,53,1
466.25055,466.3268,72,66,1
466.35223,466.45383,60,41,1
466.45383,466.55518,65,45,1
466.55518,466.6563,60,42,1
466.6563,466.73206,76,67,1
466.75726,466.8579,64,43,1
466.8579,466.95844,72,47,1
466.95844,467.05875,64,43,1
467.05875,467.1323,77,71,1
467.1568,467.25485,65,45,1
467.25485,467.35287,72,50,1
467.35287,467.45093,65,45,1
467.45093,467.52444,79,72,1
467.54895,467.647,67,47,1
467.647,467.74503,72,50,1
467.74503,467.84308,67,47,1
467.84308,467.9158,80,74,1
467.93994,468.03595,68,49,1
468.03595,468.13373,72,54,1
468.13373,468.2302,68,49,1
468.2302,468.3023,81,80,1
468.32635,468.42252,69,50,1
468.42252,468.52023,72,55,1
468.52023,468.6168,69,51,1
468.6168,468.68948,83,84,1
468.71353,468.80957,71,51,1
468.80957,468.90598,77,58,1
468.90598,469.0021,71,53,1
469.0021,469.075,84,85,1
469.0991,469.19482,72,53,1
469.19482,469.2916,77,58,1
469.2916,469.3877,72,54,1
469.3877,469.45932,86,85,1
469.4834,469.5807,74,55,1
469.5807,469.6768,77,63,1
469.6768,469.77347,74,55,1
469.77347,469.84613,88,90,1
469.87024,469.96603,76,57,1
469.96603,470.06247,79,62,1
470.06247,470.15955,76,57,1
470.15955,470.2315,89,89,1
470.2554,470.35156,77,59,1
470.35156,470.44843,80,64,1
470.44843,470.54584,77,59,1
470.54584,470.6221,86,91,1
470.64752,470.74924,77,61,1
470.74924,470.85092,80,67,1
470.85092,470.9526,77,61,1
471.05228,471.15,75,78,1
471.15,471.2477,79,84,1
471.2477,471.34543,75,78,1
471.34543,471.41873,84,88,1
471.44315,471.5409,75,78,1
471.5409,471.6429,79,84,1
471.6429,471.74496,75,76,1
471.84598,471.944,74,78,1
471.944,472.04205,77,84,1
472.04205,472.14008,74,78,1
472.14008,472.21362,83,88,1
472.23813,472.33618,74,78,1
472.33618,472.4437,77,84,1
472.4437,472.55692,74,76,1
472.6618,472.7667,60,32,1
472.7667,472.87122,63,36,1
472.87122,472.9755,60,35,1
473.0795,473.1832,60,33,1
473.1832,473.28656,63,35,1
473.28656,473.38968,60,32,1
473.38968,473.4924,63,35,1
473.4924,473.59515,60,33,1
473.59515,473.69788,63,35,1
473.69788,473.80063,60,32,1
472.9755,473.80063,72,54,1
473.90335,474.0061,60,32,1
474.0061,474.10886,63,35,1
474.10886,474.21158,60,33,1
473.80063,474.21158,72,53,1
474.32437,474.4357,61,32,1
474.4357,474.5399,64,36,1
474.5399,474.64404,61,35,1
474.74786,474.85165,61,33,1
474.85165,474.9551,64,35,1
474.9551,475.05856,61,32,1
475.05856,475.16165,64,35,1
475.16165,475.26474,61,33,1
475.26474,475.36783,64,35,1
475.36783,475.47092,61,32,1
474.64404,475.47092,73,54,1
475.574,475.67712,61,32,1
475.67712,475.7802,64,35,1
475.7802,475.89172,61,33,1
475.47092,475.89172,73,53,1
475.89172,475.968,72,66,1
475.9934,476.095,60,41,1
476.095,476.19635,65,45,1
476.19635,476.2975,60,42,1
476.2975,476.37323,76,67,1
476.39844,476.4991,64,43,1
476.4991,476.5996,72,47,1
476.5996,476.69995,64,43,1
476.69995,476.77347,77,71,1
476.79797,476.89603,65,45,1
476.89603,476.99405,72,50,1
476.99405,477.0921,65,45,1
477.0921,477.16562,79,72,1
477.19012,477.28818,67,47,1
477.28818,477.3862,72,50,1
477.3862,477.48425,67,47,1
477.48425,477.55685,80,74,1
477.58093,477.67795,68,49,1
477.67795,477.77484,72,54,1
477.77484,477.87115,68,49,1
477.87115,477.9442,81,80,1
477.96866,478.06534,69,50,1
478.06534,478.16174,72,55,1
478.16174,478.25916,69,51,1
478.25916,478.3317,83,84,1
478.35583,478.45212,71,51,1
478.45212,478.54974,77,58,1
478.54974,478.64658,71,53,1
478.64658,478.71896,84,85,1
478.74326,478.84018,72,53,1
478.84018,478.93634,77,58,1
478.93634,479.03348,72,54,1
479.03348,479.1066,86,85,1
479.13083,479.22687,74,55,1
479.22687,479.32355,77,63,1
479.32355,479.42075,74,55,1
479.42075,479.49265,88,90,1
479.51645,479.6121,76,57,1
479.6121,479.7093,79,62,1
479.7093,479.80548,76,57,1
479.80548,479.87775,89,89,1
479.9021,480.00043,77,59,1
480.00043,480.09787,80,64,1
480.09787,480.19464,77,59,1
480.19464,480.27094,86,91,1
480.29636,480.39804,77,61,1
480.39804,480.49973,80,67,1
480.49973,480.60144,77,61,1
480.70346,480.80118,75,78,1
480.80118,480.8989,79,84,1
480.8989,480.99664,75,78,1
480.99664,481.06992,84,88,1
481.09436,481.19208,75,78,1
481.19208,481.2941,79,84,1
481.2941,481.39615,75,76,1
481.49683,481.59485,74,78,1
481.59485,481.6929,77,84,1
481.6929,481.79092,74,78,1
481.79092,481.86447,83,88,1
481.88898,481.98703,74,78,1
481.98703,482.0887,77,84,1
482.0887,482.1904,74,76,1
482.1904,482.26907,72,81,1
482.4002,482.7976,84,58,1
482.7976,482.898,83,46,1
482.898,483.0001,84,48,1
483.0001,483.10266,86,49,1
483.10266,483.20346,84,49,1
483.20346,483.30286,82,48,1
483.30286,483.4022,80,47,1
483.4022,483.50153,79,45,1
483.50153,483.60086,80,46,1
483.60086,483.70065,82,49,1
483.70065,483.80182,80,47,1
483.80182,483.90317,79,49,1
483.90317,484.00317,77,47,1
484.00317,484.10217,75,46,1
484.10217,484.2012,74,45,1
484.2012,484.3002,73,45,1
484.3002,484.39923,74,45,1
484.39923,484.49887,75,47,1
484.49887,484.59988,74,45,1
484.59988,484.7012,72,46,1
484.7012,484.8012,71,46,1
484.8012,484.90054,68,45,1
484.90054,484.99988,67,45,1
484.99988,485.0992,66,45,1
485.0992,485.19855,67,42,1
485.19855,485.29788,68,46,1
485.29788,485.39722,65,42,1
485.39722,485.4759,63,66,1
485.60703,486.00443,84,68,1
485.60703,486.00443,72,68,1
486.00443,486.1048,83,61,1
486.1048,486.2069,84,64,1
486.2069,486.30948,86,66,1
486.30948,486.41028,84,66,1
486.41028,486.50967,82,65,1
486.50967,486.609,80,64,1
486.609,486.70834,79,62,1
486.70834,486.80768,80,64,1
486.80768,486.90744,82,68,1
486.90744,487.00864,80,66,1
487.00864,487.11,79,69,1
487.11,487.21,77,67,1
487.21,487.309,75,66,1
487.309,487.40802,74,65,1
487.40802,487.50702,73,65,1
487.50702,487.60602,74,64,1
487.60602,487.7057,75,68,1
487.7057,487.8067,74,66,1
487.8067,487.90802,72,68,1
487.90802,488.008,71,68,1
488.008,488.10736,68,68,1
488.10736,488.2067,67,68,1
488.2067,488.30603,66,67,1
488.30603,488.4053,67,64,1
488.4053,488.50632,68,70,1
488.50632,488.61255,67,64,1
488.61255,488.72327,72,83,1
488.83395,489.23465,60,82,1
489.23465,489.33398,64,80,1
489.23465,489.33398,58,80,1
489.43332,489.53265,65,81,1
489.43332,489.53265,56,81,1
489.632,489.73135,67,82,1
489.632,489.73135,64,82,1
489.8307,489.93002,68,83,1
489.8307,489.93002,65,83,1
490.02936,490.1287,71,85,1
490.02936,490.1287,62,85,1
490.22803,490.33255,72,83,1
490.22803,490.33255,63,83,1
490.43707,490.83777,72,82,1
490.43707,490.83777,64,83,1
490.83777,490.93713,76,80,1
490.83777,490.93713,70,80,1
491.03647,491.1358,77,81,1
491.03647,491.1358,68,81,1
491.23514,491.33447,79,82,1
491.23514,491.33447,76,82,1
491.4338,491.53314,80,83,1
491.4338,491.53314,77,83,1
491.63248,491.73737,83,85,1
491.63248,491.73737,74,85,1
491.8423,492.64227,75,94,1
491.8423,492.64227,84,94,1
491.8423,492.64227,72,94,1
492.64227,493.45337,72,88,1
492.64227,493.45337,63,88,1
492.64227,493.45337,60,88,1
493.45337,494.25336,75,99,1
493.45337,494.25336,84,99,1
493.45337,494.25336,72,99,1
494.25336,495.09882,72,92,1
494.25336,495.09882,63,92,1
494.25336,495.09882,60,92,1
495.09882,496.06262,87,102,1
495.09882,496.06262,81,102,1
495.09882,496.06262,84,102,1
495.09882,496.06262,75,102,1
496.06262,498.06152,63,102,1
496.06262,498.06152,60,102,1
496.06262,498.06152,54,86,1
496.06262,498.06152,57,102,1
502.18652,502.5428,72,51,1
502.18652,502.5428,69,44,1
502.18652,502.5428,66,44,1
502.56152,503.68652,74,55,1
502.56152,503.68652,69,46,1
502.56152,503.68652,66,46,1
503.68652,504.10565,75,50,1
503.68652,504.10565,69,50,1
503.68652,504.10565,66,42,1
504.12772,507.41537,75,55,1
504.12772,507.41537,69,55,1
504.12772,507.41537,66,46,1
507.41537,508.91537,74,39,1
507.41537,508.91537,71,31,1
507.41537,508.91537,67,31,1
514.5404,514.9154,77,52,1
514.5404,514.9154,71,44,1
514.5404,514.9154,74,44,1
514.9154,516.0404,79,55,1
514.9154,516.0404,74,46,1
514.9154,516.0404,71,46,1
516.0404,516.4534,71,43,1
516.0404,516.4534,80,51,1
516.0404,516.4534,74,51,1
516.47516,519.7628,74,55,1
516.47516,519.7628,71,46,1
516.47516,519.7628,80,55,1
519.7628,521.2628,75,32,1
519.7628,521.2628,79,39,1
519.7628,521.2628,72,32,1
526.8878,527.2628,82,66,1
526.8878,527.2628,70,55,1
526.8878,527.2628,79,55,1
526.8878,527.2628,76,55,1
527.2628,528.4167,84,72,1
527.2628,528.4167,72,61,1
527.2628,528.4167,76,61,1
527.2628,528.4167,79,61,1
528.4167,528.8839,76,64,1
528.4167,528.8839,73,64,1
528.4167,528.8839,79,75,1
528.4167,528.8839,85,75,1
528.9085,532.10846,79,72,1
528.9085,532.10846,73,72,1
528.9085,532.10846,85,84,1
528.9085,532.10846,76,72,1
532.10846,533.7085,84,62,1
532.10846,533.7085,72,52,1
533.7085,535.3085,82,60,1
533.7085,535.3085,70,60,1
535.3085,536.9085,80,49,1
535.3085,536.9085,68,41,1
536.9085,538.5085,79,48,1
536.9085,538.5085,67,40,1
538.5085,540.10846,77,46,1
538.5085,540.10846,65,39,1
540.10846,541.716,75,44,1
540.10846,541.716,63,37,1
543.43884,545.24835,74,38,1
543.43884,545.24835,68,32,1
543.43884,545.24835,65,32,1
550.5519,551.15466,60,50,1
551.15466,551.2282,64,52,1
551.15466,551.2282,58,52,1
551.3501,551.42316,65,54,1
551.3501,551.42316,56,54,1
551.5449,551.61707,67,56,1
551.5449,551.61707,64,56,1
551.73724,551.8094,68,57,1
551.73724,551.8094,65,57,1
551.92957,552.00287,71,59,1
551.92957,552.00287,62,59,1
552.125,552.2027,72,61,1
552.125,552.2027,63,61,1
552.3323,552.72205,72,55,1
552.3323,552.72205,64,55,1
552.72205,552.7951,76,51,1
552.72205,552.7951,70,51,1
552.9169,552.99,77,50,1
552.9169,552.99,68,50,1
553.11176,553.1841,79,53,1
553.11176,553.1841,76,53,1
553.3047,553.377,80,57,1
553.3047,553.377,77,57,1
553.4976,553.56995,83,60,1
553.4976,553.56995,74,60,1
553.69055,554.08514,84,70,1
553.69055,554.08514,75,58,1
554.08514,554.4834,84,75,1
554.08514,554.4834,75,75,1
554.08514,554.4834,72,64,1
554.4834,554.8786,84,86,1
554.4834,554.8786,75,72,1
554.4834,554.8786,72,72,1
554.8786,555.2772,84,97,1
554.8786,555.2772,75,81,1
554.8786,555.2772,72,81,1
555.2772,555.482,87,103,1
555.2772,555.482,75,99,1
555.2772,555.482,81,99,1
555.2772,555.482,84,99,1
556.0964,556.29834,75,94,1
556.0964,556.29834,66,79,1
556.0964,556.29834,69,79,1
556.0964,556.29834,72,94,1
556.9044,557.11346,79,94,1
556.9044,557.11346,75,94,1
556.9044,557.11346,67,79,1
556.9044,557.11346,72,79,1
557.74066,557.9629,53,86,1
557.74066,557.9629,50,86,1
557.74066,557.9629,55,103,1
557.74066,557.9629,59,103,1
558.6296,558.85175,51,86,1
558.6296,558.85175,60,103,1
558.6296,558.85175,55,103,1
0.0,4.125,48,81,1
0.0,4.125,36,70,1
0.0,4.125,39,70,1
0.0,4.125,43,70,1
4.125,4.5,51,36,1
4.5,5.625,50,41,1
5.625,6.022059,48,36,1
6.0661764,9.353848,54,39,1
9.353848,10.853848,55,25,1
11.978848,12.353848,44,89,1
12.353848,16.47885,56,93,1
16.47885,16.816349,56,38,1
16.85385,17.97885,55,43,1
17.97885,18.370153,53,38,1
18.413631,23.201303,51,37,1
24.326303,24.701303,51,86,1
24.701303,28.826303,63,91,1
28.826303,29.163803,63,45,1
29.201303,30.35515,62,52,1
30.35515,30.73015,60,52,1
30.771816,33.971817,60,65,1
33.971817,34.346817,59,35,1
35.096817,35.434315,63,47,1
35.471817,36.671818,62,54,1
36.671818,37.031815,60,54,1
37.071815,40.071815,60,71,1
40.071815,41.50039,62,51,1
40.071815,41.50039,59,43,1
41.50039,43.144222,60,48,1
41.50039,43.144222,58,48,1
41.50039,43.144222,64,57,1
43.144222,43.850105,56,53,1
43.144222,43.850105,60,53,1
43.144222,43.850105,65,64,1
46.05599,49.210636,46,84,1
46.05599,49.210636,34,84,1
49.210636,49.923134,51,50,1
49.210636,49.923134,39,45,1
49.960636,50.673134,58,32,1
49.960636,50.673134,55,27,1
49.960636,50.673134,51,22,1
50.710636,51.423134,58,32,1
50.710636,51.423134,55,27,1
50.710636,51.423134,51,22,1
51.460636,52.173134,58,32,1
51.460636,52.173134,55,27,1
51.460636,52.173134,51,22,1
52.210636,52.923134,58,32,1
52.210636,52.923134,55,27,1
52.210636,52.923134,51,22,1
52.960636,53.673134,58,32,1
52.960636,53.673134,55,27,1
52.960636,53.673134,51,22,1
53.710636,54.423134,58,32,1
53.710636,54.423134,55,27,1
53.710636,54.423134,51,22,1
54.460636,55.210636,58,32,1
54.460636,55.210636,55,27,1
54.460636,55.210636,51,22,1
55.2523,55.9648,60,33,1
55.2523,55.9648,56,27,1
55.2523,55.9648,51,23,1
56.0023,56.7148,60,34,1
56.0023,56.7148,56,28,1
56.0023,56.7148,51,24,1
56.7523,57.4648,60,34,1
56.7523,57.4648,56,28,1
56.7523,57.4648,51,24,1
57.5023,58.2148,60,34,1
57.5023,58.2148,56,28,1
57.5023,58.2148,51,24,1
58.2523,58.93905,50,81,1
58.2523,58.93905,38,68,1
58.975193,59.66194,50,81,1
58.975193,59.66194,38,68,1
59.698086,60.38483,48,81,1
59.698086,60.38483,36,68,1
60.420975,61.13307,48,81,1
60.420975,61.13307,36,68,1
61.17203,61.884533,47,81,1
61.17203,61.884533,35,68,1
61.92203,62.634533,56,28,1
61.92203,62.634533,47,18,1
61.92203,62.634533,50,18,1
61.92203,62.634533,53,23,1
62.67203,63.384533,56,28,1
62.67203,63.384533,47,18,1
62.67203,63.384533,50,18,1
62.67203,63.384533,53,23,1
63.42203,64.13453,56,28,1
63.42203,64.13453,47,18,1
63.42203,64.13453,50,18,1
63.42203,64.13453,53,23,1
64.172035,64.88453,56,28,1
64.172035,64.88453,46,18,1
64.172035,64.88453,50,18,1
64.172035,64.88453,53,23,1
64.922035,65.63453,56,28,1
64.922035,65.63453,46,18,1
64.922035,65.63453,50,18,1
64.922035,65.63453,53,23,1
65.672035,66.38453,56,28,1
65.672035,66.38453,46,18,1
65.672035,66.38453,50,18,1
65.672035,66.38453,53,23,1
66.422035,67.172035,56,28,1
66.422035,67.172035,46,18,1
66.422035,67.172035,50,18,1
66.422035,67.172035,53,23,1
67.2137,67.9262,55,28,1
67.2137,67.9262,46,19,1
67.2137,67.9262,49,19,1
67.2137,67.9262,52,24,1
67.9637,68.6762,55,29,1
67.9637,68.6762,46,19,1
67.9637,68.6762,49,19,1
67.9637,68.6762,52,25,1
68.7137,69.4262,55,29,1
68.7137,69.4262,46,19,1
68.7137,69.4262,49,19,1
68.7137,69.4262,52,25,1
69.4637,70.1762,55,29,1
69.4637,70.1762,46,19,1
69.4637,70.1762,49,19,1
69.4637,70.1762,52,25,1
70.2137,70.900444,45,81,1
70.2137,70.900444,33,68,1
70.93659,71.62334,45,81,1
70.93659,71.62334,33,68,1
71.659485,72.34623,43,81,1
71.659485,72.34623,31,68,1
72.38237,73.06912,43,81,1
72.38237,73.06912,31,68,1
73.10526,73.80897,42,81,1
73.10526,73.80897,30,68,1
73.84601,74.549706,62,34,1
73.84601,74.549706,57,28,1
73.84601,74.549706,54,24,1
74.58675,75.29045,62,34,1
74.58675,75.29045,57,28,1
74.58675,75.29045,54,24,1
75.327484,76.03119,62,34,1
75.327484,76.03119,57,28,1
75.327484,76.03119,54,24,1
76.06823,76.77193,62,34,1
76.06823,76.77193,57,28,1
76.06823,76.77193,54,24,1
76.80897,77.51267,62,34,1
76.80897,77.51267,57,28,1
76.80897,77.51267,54,24,1
77.549706,78.25341,62,34,1
77.549706,78.25341,57,28,1
77.549706,78.25341,54,24,1
78.29045,79.03582,62,34,1
78.29045,79.03582,57,28,1
78.29045,79.03582,54,24,1
79.077484,79.789986,62,35,1
79.077484,79.789986,56,29,1
79.077484,79.789986,53,25,1
79.827484,80.539986,62,36,1
79.827484,80.539986,56,30,1
79.827484,80.539986,53,25,1
80.577484,81.26423,62,36,1
80.577484,81.26423,56,30,1
80.577484,81.26423,53,25,1
81.30038,81.98712,62,36,1
81.30038,81.98712,56,30,1
81.30038,81.98712,53,25,1
82.02327,82.71839,59,50,1
82.02327,82.71839,53,42,1
82.02327,82.71839,50,35,1
82.754974,83.44072,59,50,1
82.754974,83.44072,53,42,1
82.754974,83.44072,50,35,1
83.47643,84.152626,59,50,1
83.47643,84.152626,53,42,1
83.47643,84.152626,50,35,1
84.18792,84.891624,59,50,1
84.18792,84.891624,53,42,1
84.18792,84.891624,50,35,1
84.92866,85.62378,56,56,1
84.92866,85.62378,50,47,1
84.92866,85.62378,47,47,1
85.66036,86.355484,56,58,1
85.66036,86.355484,50,49,1
85.66036,86.355484,47,49,1
86.392075,87.05486,56,52,1
86.392075,87.05486,50,44,1
86.392075,87.05486,47,44,1
87.089745,87.75254,56,52,1
87.089745,87.75254,50,44,1
87.089745,87.75254,47,44,1
87.78742,88.45021,53,63,1
87.78742,88.45021,47,53,1
87.78742,88.45021,44,45,1
88.4851,89.163666,53,63,1
88.4851,89.163666,47,53,1
88.4851,89.163666,44,45,1
89.19938,89.87795,53,63,1
89.19938,89.87795,47,53,1
89.19938,89.87795,44,45,1
89.913666,90.63081,53,63,1
89.913666,90.63081,47,53,1
89.913666,90.63081,44,45,1
90.67081,91.34938,53,64,1
90.67081,91.34938,47,53,1
90.67081,91.34938,43,45,1
91.38509,92.06367,53,64,1
91.38509,92.06367,47,53,1
91.38509,92.06367,43,45,1
92.09938,92.777954,53,64,1
92.09938,92.777954,47,53,1
92.09938,92.777954,43,45,1
92.81367,93.48845,53,64,1
92.81367,93.48845,47,53,1
92.81367,93.48845,43,45,1
93.522545,94.170265,53,66,1
93.522545,94.170265,48,55,1
93.522545,94.170265,44,46,1
94.20436,94.85209,53,68,1
94.20436,94.85209,48,57,1
94.20436,94.85209,44,48,1
94.88618,95.57292,53,70,1
94.88618,95.57292,48,60,1
94.88618,95.57292,44,50,1
95.60907,96.423355,53,73,1
95.60907,96.423355,48,61,1
95.60907,96.423355,44,51,1
96.46621,97.89478,53,75,1
96.46621,97.89478,47,75,1
96.46621,97.89478,43,75,1
100.815475,101.21548,74,42,1
100.815475,101.21548,67,35,1
101.61548,102.050255,74,42,1
101.61548,102.050255,67,35,1
102.48504,103.96652,72,42,1
102.48504,103.96652,68,35,1
112.68711,113.08185,62,34,1
112.68711,113.08185,53,28,1
112.68711,113.08185,60,28,1
113.476585,113.917755,62,34,1
113.476585,113.917755,53,28,1
113.476585,113.917755,60,28,1
114.35893,115.91256,63,34,1
114.35893,115.91256,55,28,1
114.35893,115.91256,60,28,1
117.27271,118.00188,53,40,1
117.27271,118.00188,50,33,1
117.27271,118.00188,43,33,1
120.09316,120.286896,36,44,1
120.19547,120.29703,48,41,1
120.29703,120.48794,36,44,1
120.39784,120.497925,48,41,1
120.497925,120.6861,36,44,1
120.59729,120.69594,48,41,1
120.69594,120.88158,36,45,1
120.793884,120.89132,48,41,1
120.89132,121.07645,36,45,1
120.988754,121.08619,48,46,1
121.08619,121.26888,36,47,1
121.18234,121.278496,48,47,1
121.278496,121.46119,36,49,1
121.37465,121.4708,48,50,1
121.4708,121.65647,36,51,1
121.56853,121.666245,48,53,1
121.666245,121.863174,36,55,1
121.7699,121.87354,48,50,1
121.87354,122.05867,36,53,1
121.97098,122.06841,48,47,1
122.06841,122.25353,36,53,1
122.16585,122.26328,48,47,1
122.26328,122.4484,36,44,1
122.36071,122.458145,48,40,1
122.458145,122.64327,36,43,1
122.55558,122.653015,48,45,1
122.653015,122.836296,36,46,1
122.74948,122.84594,48,47,1
122.84594,123.02922,36,48,1
122.942406,123.03887,48,50,1
123.03887,123.222145,36,51,1
123.13533,123.2318,48,53,1
123.2318,123.420235,36,55,1
123.33097,123.43015,48,50,1
123.43015,123.6166,36,53,1
123.52828,123.62641,48,47,1
123.62641,123.81286,38,55,1
123.72454,123.82267,50,50,1
123.82267,124.014565,38,55,1
123.92367,124.024666,50,51,1
124.024666,124.21239,39,55,1
124.12347,124.22227,51,55,1
124.22227,124.40999,39,55,1
124.32107,124.41987,51,55,1
124.41987,124.60759,41,55,1
124.51867,124.61747,53,53,1
124.61747,124.80844,41,55,1
124.71798,124.81849,53,55,1
124.81849,125.00946,43,56,1
124.919,125.01951,55,56,1
125.01951,125.21047,43,57,1
125.12002,125.22053,55,57,1
125.22053,125.41149,44,58,1
125.32104,125.42155,56,59,1
125.42155,125.61251,44,59,1
125.52206,125.62257,56,60,1
125.62257,125.81353,42,60,1
125.723076,125.82358,54,55,1
125.82358,126.01455,42,61,1
125.92409,126.0246,54,55,1
126.0246,126.21557,43,58,1
126.12511,126.22562,55,55,1
126.22562,126.41659,43,58,1
126.326126,126.426636,55,55,1
126.426636,126.62037,36,48,1
126.528946,126.63051,48,45,1
126.63051,126.82141,36,44,1
126.73132,126.831406,48,41,1
126.831406,127.01957,36,44,1
126.93076,127.02942,48,40,1
127.02942,127.21506,36,44,1
127.127365,127.2248,48,41,1
127.2248,127.40993,36,44,1
127.322235,127.41967,48,46,1
127.41967,127.602356,36,47,1
127.51582,127.61198,48,47,1
127.61198,127.79467,36,49,1
127.70813,127.80428,48,50,1
127.80428,127.98698,36,51,1
127.90044,127.99659,48,53,1
127.99659,128.19353,36,55,1
128.10023,128.20389,48,50,1
128.20389,128.389,36,53,1
128.30132,128.39876,48,47,1
128.39876,128.58388,36,53,1
128.49619,128.59363,48,47,1
128.59363,128.77875,36,44,1
128.69106,128.7885,48,40,1
128.7885,128.97362,36,43,1
128.88593,128.98337,48,45,1
128.98337,129.16605,36,46,1
129.07951,129.17567,48,47,1
129.17567,129.35835,36,48,1
129.27182,129.36798,48,50,1
129.36798,129.55365,36,51,1
129.4657,129.56342,48,53,1
129.56342,129.75186,36,55,1
129.6626,129.76178,48,50,1
129.76178,129.94823,36,53,1
129.85991,129.95804,48,47,1
129.95804,130.14449,38,55,1
130.05617,130.1543,50,50,1
130.1543,130.34619,38,55,1
130.2553,130.35628,50,51,1
130.35628,130.544,39,55,1
130.45508,130.5539,51,55,1
130.5539,130.74161,39,55,1
130.6527,130.7515,51,55,1
130.7515,130.93921,41,55,1
130.8503,130.9491,53,53,1
130.9491,131.14006,41,55,1
131.0496,131.15012,53,55,1
131.15012,131.34108,43,56,1
131.25063,131.35114,55,56,1
131.35114,131.5421,43,57,1
131.45164,131.55215,55,57,1
131.55215,131.74312,44,58,1
131.65265,131.75316,56,59,1
131.75316,131.94414,44,59,1
131.85367,131.95418,56,60,1
131.95418,132.14319,42,60,1
132.05367,132.15314,54,55,1
132.15314,132.34215,42,61,1
132.25261,132.35208,54,55,1
132.35208,132.54109,42,58,1
132.45157,132.55104,54,55,1
132.55104,132.74005,42,58,1
132.65051,132.74998,54,55,1
132.74998,132.95528,55,55,1
132.74998,132.95528,43,55,1
132.95528,133.1503,59,50,1
132.95528,133.1503,62,50,1
133.16055,133.34956,59,50,1
133.16055,133.34956,62,50,1
133.35951,133.54851,62,50,1
133.35951,133.54851,59,50,1
133.55846,133.75742,55,50,1
133.75742,133.94641,60,50,1
133.75742,133.94641,63,50,1
133.95636,134.14537,60,50,1
133.95636,134.14537,63,50,1
134.15532,134.34431,60,50,1
134.15532,134.34431,63,50,1
134.35426,134.5472,62,50,1
134.35426,134.5472,65,50,1
135.5146,135.61285,32,55,1
135.61285,135.7116,44,55,1
135.7116,135.81076,32,55,1
135.81076,135.91043,44,55,1
135.91043,136.1157,43,50,1
135.91043,136.1157,31,50,1
136.1157,136.31073,59,50,1
136.1157,136.31073,62,50,1
136.321,136.51,59,50,1
136.321,136.51,62,50,1
136.51994,136.70895,62,50,1
136.51994,136.70895,59,50,1
136.7189,136.91785,55,50,1
136.91785,137.10686,60,50,1
136.91785,137.10686,63,50,1
137.1168,137.3058,60,50,1
137.1168,137.3058,63,50,1
137.31575,137.50476,60,50,1
137.31575,137.50476,63,50,1
137.51471,137.7064,62,50,1
137.51471,137.7064,65,50,1
138.6668,138.85327,32,55,1
138.76466,138.86313,44,55,1
138.86313,139.05193,32,55,1
138.9622,139.06192,44,49,1
139.06192,139.25192,31,50,1
139.16193,139.26192,43,51,1
139.26192,139.44775,31,51,1
139.35973,139.45753,43,52,1
139.45753,139.64023,31,53,1
139.55368,139.64984,43,54,1
139.64984,139.83253,31,55,1
139.74599,139.84215,43,56,1
139.84215,140.02484,31,57,1
139.9383,140.03445,43,58,1
140.03445,140.21715,31,59,1
140.1306,140.22676,43,60,1
140.22676,140.40945,31,61,1
140.3229,140.41907,43,61,1
140.41907,140.60176,31,62,1
140.51521,140.61137,43,63,1
140.61137,140.79704,31,64,1
140.70909,140.80681,43,55,1
140.80681,140.99248,31,61,1
140.90453,141.00226,43,55,1
141.00226,141.18793,31,61,1
141.09998,141.1977,43,55,1
141.1977,141.38336,31,60,1
141.29541,141.39313,43,55,1
141.39313,141.58022,31,64,1
141.4916,141.59006,43,55,1
141.59006,141.77715,31,61,1
141.68852,141.78699,43,55,1
141.78699,141.97408,31,61,1
141.88545,141.98392,43,55,1
141.98392,142.17099,31,60,1
142.08238,142.18085,43,55,1
142.18085,142.37587,32,50,1
142.28348,142.38612,44,51,1
142.38612,142.57195,32,51,1
142.48393,142.58173,44,52,1
142.58173,142.76442,32,53,1
142.67789,142.77403,44,54,1
142.77403,142.95673,32,55,1
142.8702,142.96635,44,56,1
142.96635,143.14903,32,57,1
143.0625,143.15866,44,58,1
143.15866,143.34134,32,59,1
143.2548,143.35097,44,60,1
143.35097,143.53366,32,61,1
143.44711,143.54327,44,61,1
143.54327,143.72597,32,62,1
143.63942,143.73558,44,63,1
143.73558,143.92125,32,64,1
143.8333,143.93102,44,55,1
143.93102,144.11668,32,61,1
144.02873,144.12645,44,55,1
144.12645,144.31212,32,61,1
144.22418,144.3219,44,55,1
144.3219,144.50757,32,60,1
144.41962,144.51733,44,55,1
144.51733,144.70442,33,64,1
144.6158,144.71426,45,55,1
144.71426,144.90135,33,61,1
144.81273,144.9112,45,55,1
144.9112,145.09827,33,61,1
145.00966,145.10812,45,55,1
145.10812,145.2952,33,60,1
145.20659,145.30505,45,55,1
145.30505,145.50006,34,50,1
145.40768,145.51033,46,51,1
145.51033,145.69302,34,51,1
145.60648,145.70264,46,52,1
145.70264,145.88475,34,53,1
145.79848,145.89433,46,54,1
145.89433,146.07645,34,55,1
145.99017,146.08603,46,56,1
146.08603,146.26813,34,57,1
146.18187,146.27771,46,58,1
146.27771,146.45982,34,59,1
146.37357,146.4694,46,60,1
146.4694,146.65152,34,61,1
146.56526,146.6611,46,61,1
146.6611,146.84322,34,62,1
146.75696,146.8528,46,63,1
146.8528,147.03847,34,64,1
146.95052,147.04823,46,55,1
147.04823,147.2339,34,61,1
147.14595,147.24368,46,55,1
147.24368,147.42696,34,61,1
147.34013,147.4366,46,55,1
147.4366,147.61989,34,60,1
147.53307,147.62953,46,55,1
147.62953,147.81499,34,64,1
147.72704,147.82475,46,55,1
147.82475,148.01042,34,61,1
147.92249,148.0202,46,55,1
148.0202,148.2029,34,61,1
148.11635,148.21251,46,55,1
148.21251,148.3952,34,60,1
148.30865,148.40482,46,55,1
148.40482,148.59048,34,64,1
148.50253,148.60025,46,55,1
148.60025,148.78592,34,61,1
148.69797,148.7957,46,55,1
148.7957,148.97957,34,61,1
148.89247,148.98924,46,55,1
148.98924,149.17311,34,60,1
149.08601,149.18279,46,55,1
149.18279,149.3679,34,64,1
149.28024,149.37764,46,55,1
149.37764,149.56271,34,61,1
149.47505,149.57245,46,55,1
149.57245,149.75752,34,61,1
149.66986,149.76726,46,55,1
149.76726,149.95232,34,60,1
149.86465,149.96207,46,55,1
149.96207,150.16408,34,64,1
149.96207,150.16408,46,55,1
151.783,151.97427,66,38,1
151.783,151.97427,63,38,1
151.98434,152.17001,66,38,1
151.98434,152.17001,63,38,1
152.17978,152.36545,66,38,1
152.17978,152.36545,63,38,1
151.57822,152.37523,58,44,1
152.5793,152.77318,66,38,1
152.5793,152.77318,63,38,1
152.78339,152.97275,66,38,1
152.78339,152.97275,63,38,1
152.98273,153.17209,66,38,1
152.98273,153.17209,63,38,1
152.37523,153.18205,58,44,1
153.38477,153.57475,66,38,1
153.38477,153.57475,63,38,1
153.58476,153.77477,66,38,1
153.58476,153.77477,63,38,1
153.78476,153.97798,66,38,1
153.78476,153.97798,63,38,1
153.18205,153.98814,58,44,1
154.19154,154.38153,66,38,1
154.19154,154.38153,63,38,1
154.39154,154.58154,66,38,1
154.39154,154.58154,63,38,1
154.59154,154.79356,66,38,1
154.59154,154.79356,63,38,1
153.98814,154.79356,58,44,1
155.00117,155.19118,68,38,1
155.00117,155.19118,65,38,1
155.20117,155.38684,68,38,1
155.20117,155.38684,65,38,1
155.3966,155.58228,68,38,1
155.3966,155.58228,65,38,1
154.79356,155.59206,58,44,1
155.79613,155.99,68,38,1
155.79613,155.99,65,38,1
156.00021,156.19022,68,38,1
156.00021,156.19022,65,38,1
156.20021,156.39021,68,38,1
156.20021,156.39021,65,38,1
155.59206,156.4002,58,44,1
156.6036,156.79683,68,38,1
156.6036,156.79683,65,38,1
156.80699,157.00021,68,38,1
156.80699,157.00021,65,38,1
157.01038,157.2036,68,38,1
157.01038,157.2036,65,38,1
156.4002,157.21378,58,44,1
157.41716,157.61038,68,38,1
157.41716,157.61038,65,38,1
157.62056,157.81377,68,38,1
157.62056,157.81377,65,38,1
157.82394,158.01717,68,38,1
157.82394,158.01717,65,38,1
157.21378,158.02733,58,44,1
158.23567,158.42566,66,38,1
158.23567,158.42566,63,38,1
158.43567,158.62134,66,38,1
158.43567,158.62134,63,38,1
158.6311,158.81677,66,38,1
158.6311,158.81677,63,38,1
158.02733,158.82654,58,44,1
159.03062,159.2245,66,38,1
159.03062,159.2245,63,38,1
159.23471,159.42407,66,38,1
159.23471,159.42407,63,38,1
159.43404,159.62341,66,38,1
159.43404,159.62341,63,38,1
158.82654,159.63338,58,44,1
159.83607,160.02608,66,38,1
159.83607,160.02608,63,38,1
160.03609,160.22609,66,38,1
160.03609,160.22609,63,38,1
160.23608,160.4293,66,38,1
160.23608,160.4293,63,38,1
159.63338,160.43947,58,44,1
160.64287,160.83286,66,38,1
160.64287,160.83286,63,38,1
160.84286,161.03287,66,38,1
160.84286,161.03287,63,38,1
161.04286,161.23479,66,38,1
161.04286,161.23479,63,38,1
160.43947,161.24489,58,44,1
161.45322,161.64133,66,38,1
161.45322,161.64133,63,38,1
161.65123,161.83571,66,38,1
161.65123,161.83571,63,38,1
161.84541,162.02988,66,38,1
161.84541,162.02988,63,38,1
161.24489,162.03958,56,44,1
162.24367,162.43755,66,38,1
162.24367,162.43755,63,38,1
162.44775,162.63774,66,38,1
162.44775,162.63774,63,38,1
162.64775,162.83775,66,38,1
162.64775,162.83775,63,38,1
162.03958,162.84775,56,44,1
163.05113,163.24435,66,38,1
163.05113,163.24435,63,38,1
163.25453,163.44775,66,38,1
163.25453,163.44775,63,38,1
163.45792,163.65114,66,38,1
163.45792,163.65114,63,38,1
162.84775,163.66132,56,44,1
163.8647,164.05792,66,38,1
163.8647,164.05792,63,38,1
164.06808,164.2613,66,38,1
164.06808,164.2613,63,38,1
164.27148,164.4647,66,38,1
164.27148,164.4647,63,38,1
163.66132,164.47487,56,44,1
164.67964,164.87029,65,38,1
164.67964,164.87029,61,38,1
164.88031,165.0672,65,38,1
164.88031,165.0672,61,38,1
165.07704,165.26392,65,38,1
165.07704,165.26392,61,38,1
164.47487,165.27376,56,44,1
165.47784,165.67172,65,38,1
165.47784,165.67172,61,38,1
165.68192,165.87129,65,38,1
165.68192,165.87129,61,38,1
165.88126,166.07063,65,38,1
165.88126,166.07063,61,38,1
165.27376,166.0806,56,44,1
166.2833,166.4733,65,38,1
166.2833,166.4733,61,38,1
166.48329,166.6733,65,38,1
166.48329,166.6733,61,38,1
166.68329,166.87651,65,38,1
166.68329,166.87651,61,38,1
166.0806,166.88669,56,44,1
167.09007,167.28008,65,38,1
167.09007,167.28008,61,38,1
167.29007,167.48007,65,38,1
167.29007,167.48007,61,38,1
167.49008,167.68199,65,38,1
167.49008,167.68199,61,38,1
166.88669,167.6921,56,44,1
167.89899,168.08774,66,38,1
167.89899,168.08774,63,38,1
168.09767,168.28273,66,38,1
168.09767,168.28273,63,38,1
168.29247,168.47754,66,38,1
168.29247,168.47754,63,38,1
167.6921,168.48727,56,44,1
168.69136,168.88524,66,38,1
168.69136,168.88524,63,38,1
168.89545,169.08543,66,38,1
168.89545,169.08543,63,38,1
169.09544,169.28545,66,38,1
169.09544,169.28545,63,38,1
168.48727,169.29544,56,44,1
169.49883,169.69205,66,38,1
169.49883,169.69205,63,38,1
169.70222,169.89545,66,38,1
169.70222,169.89545,63,38,1
169.90561,170.09883,66,38,1
169.90561,170.09883,63,38,1
169.29544,170.109,56,44,1
170.3124,170.50562,66,38,1
170.3124,170.50562,63,38,1
170.51578,170.709,66,38,1
170.51578,170.709,63,38,1
170.71918,170.91238,66,38,1
170.71918,170.91238,63,38,1
170.109,170.92256,56,44,1
171.12733,171.32733,68,53,1
171.12733,171.32733,65,53,1
170.92256,171.32733,61,54,1
171.5247,171.73018,68,53,1
171.5247,171.73018,65,53,1
171.32733,171.73018,59,60,1
171.93567,172.13087,68,38,1
171.93567,172.13087,65,38,1
172.14114,172.33115,68,38,1
172.14114,172.33115,65,38,1
172.34114,172.53114,68,38,1
172.34114,172.53114,65,38,1
171.73018,172.54114,58,53,1
172.74454,172.93776,68,38,1
172.74454,172.93776,65,38,1
172.94792,173.14114,68,38,1
172.94792,173.14114,65,38,1
173.15132,173.34453,68,38,1
173.15132,173.34453,65,38,1
172.54114,173.3547,58,44,1
173.55809,173.75131,68,38,1
173.55809,173.75131,65,38,1
173.76149,173.95471,68,38,1
173.76149,173.95471,65,38,1
173.96487,174.1581,68,38,1
173.96487,174.1581,65,38,1
173.3547,174.16826,58,44,1
174.37805,174.57939,70,53,1
174.37805,174.57939,66,53,1
174.16826,174.57939,63,54,1
174.77742,174.9829,70,53,1
174.77742,174.9829,65,53,1
174.57939,174.9829,61,60,1
175.18837,175.38358,70,38,1
175.18837,175.38358,67,38,1
175.39386,175.58386,70,38,1
175.39386,175.58386,67,38,1
175.59386,175.78386,70,38,1
175.59386,175.78386,67,38,1
174.9829,175.79385,60,53,1
175.99725,176.19046,70,38,1
175.99725,176.19046,67,38,1
176.20064,176.39386,70,38,1
176.20064,176.39386,67,38,1
176.40402,176.59724,70,38,1
176.40402,176.59724,67,38,1
175.79385,176.60742,60,44,1
176.8108,177.00403,70,38,1
176.8108,177.00403,67,38,1
177.01419,177.20741,70,38,1
177.01419,177.20741,67,38,1
177.21759,177.41081,70,38,1
177.21759,177.41081,67,38,1
176.60742,177.42097,60,44,1
177.62436,177.81758,72,38,1
177.62436,177.81758,68,38,1
177.82776,178.02098,72,38,1
177.82776,178.02098,68,38,1
178.03114,178.22437,72,38,1
178.03114,178.22437,68,38,1
177.42097,178.23454,65,44,1
178.43793,178.63115,68,38,1
178.43793,178.63115,65,38,1
178.23454,178.64131,58,44,1
178.64131,178.83453,68,38,1
178.64131,178.83453,65,38,1
178.84471,179.03793,68,38,1
178.84471,179.03793,65,38,1
178.64131,179.0481,59,44,1
179.25148,179.4447,67,37,1
179.25148,179.4447,63,37,1
179.45488,179.6481,67,36,1
179.45488,179.6481,63,36,1
179.65826,179.85149,67,36,1
179.65826,179.85149,63,36,1
179.0481,179.86165,60,44,1
180.06499,180.25838,65,34,1
180.06499,180.25838,63,34,1
180.26862,180.46422,65,34,1
180.26862,180.46422,63,34,1
180.47456,180.67241,65,33,1
180.47456,180.67241,63,33,1
179.86165,180.68289,56,41,1
180.89566,181.0978,67,32,1
180.89566,181.0978,63,32,1
181.10843,181.31056,67,31,1
181.10843,181.31056,63,31,1
181.3212,181.52333,67,31,1
181.3212,181.52333,63,31,1
180.68289,181.53397,58,38,1
181.75455,181.96411,65,23,1
181.75455,181.96411,62,23,1
181.97514,182.1847,65,23,1
181.97514,182.1847,62,23,1
182.19572,182.40529,65,23,1
182.19572,182.40529,62,23,1
181.53397,182.41632,58,27,1
182.52661,182.6369,58,24,1
182.6369,182.74144,55,26,1
182.74144,182.84572,58,24,1
182.84572,182.9497,55,32,1
182.9497,183.05339,58,25,1
183.05339,183.15678,55,28,1
183.15678,183.25987,58,26,1
183.25987,183.36261,55,34,1
183.36261,183.46536,58,26,1
183.46536,183.5681,55,29,1
183.5681,183.67084,58,26,1
182.41632,183.67084,51,36,1
183.77357,183.87631,58,28,1
183.87631,183.97905,55,32,1
183.97905,184.08179,58,28,1
183.67084,184.08179,51,36,1
184.19458,184.30592,58,30,1
184.30592,184.4101,55,32,1
184.4101,184.51425,58,29,1
184.51425,184.61806,55,38,1
184.61806,184.72186,58,30,1
184.72186,184.82532,55,33,1
184.82532,184.92876,58,30,1
184.92876,185.03186,55,38,1
185.03186,185.13495,58,29,1
185.13495,185.23804,55,32,1
185.23804,185.34114,58,29,1
184.08179,185.34114,49,45,1
185.44423,185.54732,58,30,1
185.54732,185.65042,55,33,1
185.65042,185.76193,58,29,1
185.34114,185.76193,49,38,1
185.76193,185.83821,48,55,1
185.86363,185.96521,56,36,1
185.96521,186.06656,51,39,1
186.06656,186.1677,56,35,1
186.1677,186.24344,46,56,1
186.26865,186.36931,55,36,1
186.36931,186.46982,48,43,1
186.46982,186.57014,55,41,1
186.57014,186.64368,44,58,1
186.66818,186.76624,56,38,1
186.76624,186.86427,48,43,1
186.86427,186.96231,56,38,1
186.96231,187.03584,43,60,1
187.06035,187.15839,55,40,1
187.15839,187.25642,48,43,1
187.25642,187.35446,55,38,1
187.35446,187.4272,41,63,1
187.45134,187.54735,53,42,1
187.54735,187.64513,48,45,1
187.64513,187.74158,53,42,1
187.74158,187.8137,39,66,1
187.83774,187.93388,51,41,1
187.93388,188.03162,41,47,1
188.03162,188.12819,51,41,1
188.12819,188.20087,38,68,1
188.22491,188.32095,50,45,1
188.32095,188.41737,41,49,1
188.41737,188.51347,50,43,1
188.51347,188.5864,36,70,1
188.61046,188.7062,48,45,1
188.7062,188.803,41,51,1
188.803,188.8991,48,43,1
188.8991,188.97072,34,70,1
188.99478,189.09209,46,47,1
189.09209,189.18819,41,53,1
189.18819,189.28487,46,48,1
189.28487,189.35751,32,72,1
189.38164,189.47743,44,47,1
189.47743,189.57385,41,53,1
189.57385,189.67093,44,50,1
189.67093,189.74289,31,75,1
189.76678,189.86293,43,50,1
189.86293,189.95982,39,55,1
189.95982,190.05722,43,50,1
190.05722,190.1335,31,76,1
190.15892,190.2606,43,56,1
190.2606,190.3623,39,58,1
190.3623,190.464,43,55,1
190.464,190.66139,44,84,1
190.464,190.66139,32,71,1
191.25635,191.4554,34,71,1
191.25635,191.4554,46,84,1
192.17319,192.27808,58,30,1
192.27808,192.38261,55,32,1
192.38261,192.4869,58,29,1
192.4869,192.59088,55,38,1
192.59088,192.69456,58,30,1
192.69456,192.79796,55,33,1
192.79796,192.90105,58,30,1
192.90105,193.0038,55,38,1
193.0038,193.10654,58,29,1
193.10654,193.20927,55,32,1
193.20927,193.31201,58,29,1
192.0683,193.31201,51,45,1
193.41475,193.51749,58,30,1
193.51749,193.62022,55,33,1
193.62022,193.72298,58,29,1
193.31201,193.72298,51,38,1
193.83575,193.9471,58,30,1
193.9471,194.05127,55,32,1
194.05127,194.15543,58,29,1
194.15543,194.25923,55,38,1
194.25923,194.36305,58,30,1
194.36305,194.46649,55,33,1
194.46649,194.56995,58,30,1
194.56995,194.67303,55,38,1
194.67303,194.77612,58,29,1
194.77612,194.87923,55,32,1
194.87923,194.98232,58,29,1
193.72298,194.98232,49,45,1
195.0854,195.18849,58,30,1
195.18849,195.2916,55,33,1
195.2916,195.40312,58,29,1
194.98232,195.40312,49,38,1
195.40312,195.47939,48,55,1
195.5048,195.60638,56,36,1
195.60638,195.70775,51,39,1
195.70775,195.80887,56,35,1
195.80887,195.88463,46,56,1
195.90982,196.0105,55,36,1
196.0105,196.111,48,43,1
196.111,196.21133,55,41,1
196.21133,196.28485,44,58,1
196.30937,196.40741,56,38,1
196.40741,196.50545,48,43,1
196.50545,196.60349,56,38,1
196.60349,196.67702,43,60,1
196.70152,196.79956,55,40,1
196.79956,196.8976,48,43,1
196.8976,196.99564,55,38,1
196.99564,197.06825,41,63,1
197.09232,197.18935,53,42,1
197.18935,197.28624,48,45,1
197.28624,197.38254,53,42,1
197.38254,197.4556,39,66,1
197.48006,197.57672,51,41,1
197.57672,197.67314,41,47,1
197.67314,197.77054,51,41,1
197.77054,197.8431,38,68,1
197.86722,197.96352,50,45,1
197.96352,198.06114,41,49,1
198.06114,198.15796,50,43,1
198.15796,198.23036,36,70,1
198.25464,198.35156,48,45,1
198.35156,198.44772,41,51,1
198.44772,198.54486,48,43,1
198.54486,198.618,34,70,1
198.64221,198.73827,46,47,1
198.73827,198.83495,41,53,1
198.83495,198.93213,46,48,1
198.93213,199.00403,32,72,1
199.02783,199.12347,44,47,1
199.12347,199.22067,41,53,1
199.22067,199.31688,44,50,1
199.31688,199.38913,31,75,1
199.4135,199.51181,43,50,1
199.51181,199.60927,39,55,1
199.60927,199.70604,43,50,1
199.70604,199.7823,31,76,1
199.80774,199.90942,43,56,1
199.90942,200.01112,31,58,1
200.01112,200.11282,43,55,1
200.11282,200.31258,44,84,1
200.11282,200.31258,32,71,1
200.90753,201.10625,34,71,1
200.90753,201.10625,46,84,1
201.7018,201.91159,51,84,1
201.7018,201.91159,39,84,1
201.91159,202.10033,67,34,1
201.91159,202.10033,63,34,1
202.11026,202.29903,67,34,1
202.11026,202.29903,63,34,1
202.30899,202.50114,67,34,1
202.30899,202.50114,63,34,1
202.71484,202.90364,67,34,1
202.71484,202.90364,63,34,1
202.91357,203.10231,67,34,1
202.91357,203.10231,63,34,1
203.11224,203.30301,67,34,1
203.11224,203.30301,63,34,1
202.51149,203.31322,60,34,1
203.51457,203.70268,63,34,1
203.51457,203.70268,65,34,1
203.71259,203.90071,65,34,1
203.71259,203.90071,63,34,1
203.9106,204.10112,65,34,1
203.9106,204.10112,63,34,1
203.31322,204.11128,56,34,1
204.31259,204.50133,65,34,1
204.31259,204.50133,62,34,1
204.51126,204.7,65,34,1
204.51126,204.7,62,34,1
204.70993,204.89868,65,34,1
204.70993,204.89868,62,34,1
204.11128,204.90862,58,34,1
205.11841,205.30714,63,44,1
205.11841,205.30714,55,44,1
205.31708,205.50584,63,44,1
205.31708,205.50584,55,44,1
205.51581,205.70796,63,44,1
205.51581,205.70796,55,44,1
204.90862,205.7183,51,59,1
205.92166,206.11046,60,46,1
205.92166,206.11046,51,46,1
205.92166,206.11046,55,46,1
206.12039,206.30913,60,46,1
206.12039,206.30913,51,46,1
206.12039,206.30913,55,46,1
206.31906,206.50983,60,47,1
206.31906,206.50983,51,47,1
206.31906,206.50983,55,47,1
205.7183,206.52002,48,45,1
206.72137,206.9095,51,48,1
206.72137,206.9095,56,48,1
206.72137,206.9095,53,48,1
206.9194,207.10751,56,48,1
206.9194,207.10751,51,48,1
206.9194,207.10751,53,48,1
207.11742,207.30794,56,49,1
207.11742,207.30794,51,49,1
207.11742,207.30794,53,49,1
206.52002,207.3181,44,47,1
207.5194,207.70815,58,50,1
207.5194,207.70815,50,50,1
207.5194,207.70815,53,50,1
207.71808,207.90677,58,50,1
207.71808,207.90677,50,50,1
207.71808,207.90677,53,50,1
207.9167,208.11304,58,51,1
207.9167,208.11304,50,51,1
207.9167,208.11304,53,51,1
207.3181,208.12395,46,49,1
208.12395,208.33427,39,67,1
208.23465,208.34535,51,60,1
208.34535,208.53409,39,67,1
208.44469,208.54402,51,59,1
208.54402,208.73595,39,67,1
208.64503,208.74603,51,60,1
208.74603,208.93478,39,66,1
208.84538,208.94472,51,60,1
208.94472,209.13345,39,66,1
209.04405,209.14339,51,59,1
209.14339,209.33214,39,66,1
209.24272,209.34207,51,60,1
209.34207,209.5308,39,66,1
209.4414,209.54074,51,60,1
209.54074,209.72948,39,66,1
209.64008,209.73941,51,61,1
209.73941,209.93802,39,67,1
209.84395,209.94847,51,60,1
209.94847,210.13722,39,67,1
210.04782,210.14716,51,59,1
210.14716,210.33907,39,67,1
210.24817,210.34917,51,60,1
210.34917,210.53792,39,66,1
210.44852,210.54785,51,60,1
210.54785,210.73659,39,66,1
210.64719,210.74652,51,59,1
210.74652,210.93527,39,66,1
210.84586,210.9452,51,60,1
210.9452,211.13394,39,66,1
211.04454,211.14388,51,60,1
211.14388,211.34317,39,66,1
211.24876,211.35367,51,61,1
211.35367,211.54367,39,66,1
211.45366,211.55367,51,59,1
211.55367,211.74367,39,66,1
211.65367,211.75366,51,60,1
211.75366,211.94366,39,66,1
211.85367,211.95366,51,60,1
211.95366,212.14366,39,66,1
212.05367,212.15367,51,61,1
212.15367,212.3424,38,66,1
212.253,212.35234,50,59,1
212.35234,212.54108,38,66,1
212.45168,212.55101,50,60,1
212.55101,212.73976,38,66,1
212.65036,212.7497,50,60,1
212.7497,212.954,38,66,1
212.85722,212.96475,50,61,1
212.96475,213.15474,36,66,1
213.06474,213.16475,48,59,1
213.16475,213.35475,36,66,1
213.26474,213.36475,48,60,1
213.36475,213.55475,36,66,1
213.46475,213.56474,48,60,1
213.56474,213.75475,36,66,1
213.66475,213.76474,48,61,1
213.76474,213.95287,34,66,1
213.86375,213.96277,46,59,1
213.96277,214.15088,34,66,1
214.06177,214.16078,46,60,1
214.16078,214.3489,34,66,1
214.2598,214.35881,46,60,1
214.35881,214.56093,34,66,1
214.4652,214.57156,46,61,1
214.57156,214.76157,32,66,1
214.67157,214.77158,44,59,1
214.77158,214.96158,32,66,1
214.87157,214.97157,44,60,1
214.97157,215.16158,32,66,1
215.07156,215.17157,44,60,1
215.17157,215.36157,32,66,1
215.27158,215.37157,44,61,1
215.37157,215.5597,31,66,1
215.47058,215.5696,43,59,1
215.5696,215.7577,31,66,1
215.6686,215.76761,43,60,1
215.76761,215.95573,31,66,1
215.86662,215.96564,43,60,1
215.96564,216.16634,31,66,1
216.07126,216.1769,43,61,1
216.1769,217.14075,42,74,1
216.1769,217.14075,30,62,1
217.14075,219.14075,43,84,1
217.14075,219.14075,31,71,1
219.14075,219.33449,36,44,1
219.24306,219.34462,48,41,1
219.34462,219.53554,36,44,1
219.44543,219.54552,48,41,1
219.54552,219.73369,36,44,1
219.64488,219.74353,48,41,1
219.74353,219.92917,36,45,1
219.84148,219.93892,48,41,1
219.93892,220.12404,36,45,1
220.03635,220.13379,48,46,1
220.13379,220.31648,36,47,1
220.22993,220.3261,48,47,1
220.3261,220.50879,36,49,1
220.42224,220.5184,48,50,1
220.5184,220.70407,36,51,1
220.61612,220.71384,48,53,1
220.71384,220.91077,36,55,1
220.81749,220.92114,48,50,1
220.92114,221.10626,36,53,1
221.01857,221.116,48,47,1
221.116,221.30113,36,53,1
221.21344,221.31087,48,47,1
221.31087,221.496,36,44,1
221.40831,221.50574,48,40,1
221.50574,221.69087,36,43,1
221.60318,221.7006,48,45,1
221.7006,221.8839,36,46,1
221.79707,221.89354,48,47,1
221.89354,222.07681,36,48,1
221.99,222.08646,48,50,1
222.08646,222.26974,36,51,1
222.18292,222.27939,48,53,1
222.27939,222.46783,36,55,1
222.37857,222.47775,48,50,1
222.47775,222.6642,36,53,1
222.57588,222.67401,48,47,1
222.67401,222.86046,38,55,1
222.77214,222.87027,50,50,1
222.87027,223.06216,38,55,1
222.97127,223.07225,50,51,1
223.07225,223.25998,39,55,1
223.17105,223.26985,51,55,1
223.26985,223.45758,39,55,1
223.36867,223.46747,51,55,1
223.46747,223.65518,41,55,1
223.56627,223.66507,53,53,1
223.66507,223.85603,41,55,1
223.76558,223.86609,53,55,1
223.86609,224.05705,43,56,1
223.9666,224.06711,55,56,1
224.06711,224.25807,43,57,1
224.16762,224.26811,55,57,1
224.26811,224.45909,44,58,1
224.36862,224.46913,56,59,1
224.46913,224.66011,44,59,1
224.56964,224.67015,56,60,1
224.67015,224.86113,42,60,1
224.77066,224.87117,54,55,1
224.87117,225.06215,42,61,1
224.97168,225.07219,54,55,1
225.07219,225.26317,43,58,1
225.1727,225.27321,55,55,1
225.27321,225.46417,43,58,1
225.37372,225.47423,55,55,1
225.47423,225.66797,36,48,1
225.57654,225.6781,48,45,1
225.6781,225.869,36,44,1
225.77892,225.879,48,41,1
225.879,226.06717,36,44,1
225.97836,226.07701,48,40,1
226.07701,226.26265,36,44,1
226.17496,226.27238,48,41,1
226.27238,226.45752,36,44,1
226.36983,226.46725,48,46,1
226.46725,226.64995,36,47,1
226.56342,226.65956,48,47,1
226.65956,226.84225,36,49,1
226.75572,226.85188,48,50,1
226.85188,227.03456,36,51,1
226.94803,227.04419,48,53,1
227.04419,227.24112,36,55,1
227.14783,227.25148,48,50,1
227.25148,227.4366,36,53,1
227.3489,227.44635,48,47,1
227.44635,227.63147,36,53,1
227.54378,227.64122,48,47,1
227.64122,227.82634,36,44,1
227.73865,227.83609,48,40,1
227.83609,228.02121,36,43,1
227.93352,228.03096,48,45,1
228.03096,228.21365,36,46,1
228.1271,228.22327,48,47,1
228.22327,228.40596,36,48,1
228.31941,228.41557,48,50,1
228.41557,228.60124,36,51,1
228.51329,228.61101,48,53,1
228.61101,228.79945,36,55,1
228.71019,228.80937,48,50,1
228.80937,228.99582,36,53,1
228.9075,229.00563,48,47,1
229.00563,229.19208,38,55,1
229.10376,229.20189,50,50,1
229.20189,229.39378,38,55,1
229.30289,229.40388,50,51,1
229.40388,229.5916,39,55,1
229.50269,229.60149,51,55,1
229.60149,229.7892,39,55,1
229.70029,229.79909,51,55,1
229.79909,229.9868,41,55,1
229.89789,229.99669,53,53,1
229.99669,230.18765,41,55,1
230.0972,230.19771,53,55,1
230.19771,230.38867,43,56,1
230.29822,230.39873,55,56,1
230.39873,230.58969,43,57,1
230.49924,230.59975,55,57,1
230.59975,230.79071,44,58,1
230.70026,230.80077,56,59,1
230.80077,230.99173,44,59,1
230.90128,231.00177,56,60,1
231.00177,231.19078,42,60,1
231.10126,231.20073,54,55,1
231.20073,231.38974,42,61,1
231.3002,231.39969,54,55,1
231.39969,231.58868,42,58,1
231.49916,231.59863,54,55,1
231.59863,231.78764,42,58,1
231.6981,231.79759,54,55,1
231.79759,232.00287,55,55,1
231.79759,232.00287,43,55,1
232.00287,232.19789,59,50,1
232.00287,232.19789,62,50,1
232.20815,232.39716,59,50,1
232.20815,232.39716,62,50,1
232.4071,232.5961,62,50,1
232.4071,232.5961,59,50,1
232.60605,232.80501,55,50,1
232.80501,232.99402,60,50,1
232.80501,232.99402,63,50,1
233.00395,233.19296,60,50,1
233.00395,233.19296,63,50,1
233.20291,233.39192,60,50,1
233.20291,233.39192,63,50,1
233.40186,233.59479,62,50,1
233.40186,233.59479,65,50,1
234.5622,234.66045,32,55,1
234.66045,234.75919,44,55,1
234.75919,234.85835,32,55,1
234.85835,234.95802,44,55,1
234.95802,235.1633,43,50,1
234.95802,235.1633,31,50,1
235.1633,235.35832,59,50,1
235.1633,235.35832,62,50,1
235.36859,235.55759,59,50,1
235.36859,235.55759,62,50,1
235.56754,235.7665,62,50,1
235.56754,235.7665,59,50,1
235.7665,235.96544,55,50,1
235.96544,236.15445,60,50,1
235.96544,236.15445,63,50,1
236.1644,236.3534,60,50,1
236.1644,236.3534,63,50,1
236.36334,236.55235,60,50,1
236.36334,236.55235,63,50,1
236.5623,236.754,62,50,1
236.5623,236.754,65,50,1
237.71439,237.90086,32,55,1
237.81226,237.91074,44,55,1
237.91074,238.09952,32,55,1
238.0098,238.10951,44,49,1
238.10951,238.29951,31,50,1
238.20952,238.30952,43,51,1
238.30952,238.49535,31,51,1
238.40732,238.50513,43,52,1
238.50513,238.68782,31,53,1
238.60127,238.69743,43,54,1
238.69743,238.88013,31,55,1
238.79358,238.88974,43,56,1
238.88974,239.07243,31,57,1
238.98589,239.08205,43,58,1
239.08205,239.26474,31,59,1
239.17819,239.27435,43,60,1
239.27435,239.45705,31,61,1
239.3705,239.46666,43,61,1
239.46666,239.64935,31,62,1
239.56282,239.65897,43,63,1
239.65897,239.84464,31,64,1
239.75668,239.8544,43,55,1
239.8544,240.04007,31,61,1
239.95213,240.04985,43,55,1
240.04985,240.23552,31,61,1
240.14757,240.24529,43,55,1
240.24529,240.43095,31,60,1
240.343,240.44072,43,55,1
240.44072,240.6278,31,64,1
240.53918,240.63765,43,55,1
240.63765,240.82474,31,61,1
240.73611,240.83458,43,55,1
240.83458,241.02167,31,61,1
240.93304,241.03151,43,55,1
241.03151,241.2186,31,60,1
241.12997,241.22844,43,55,1
241.22844,241.42346,32,50,1
241.33109,241.43372,44,51,1
241.43372,241.61955,32,51,1
241.53152,241.62932,44,52,1
241.62932,241.81201,32,53,1
241.72548,241.82164,44,54,1
241.82164,242.00432,32,55,1
241.91779,242.01395,44,56,1
242.01395,242.19664,32,57,1
242.11009,242.20625,44,58,1
242.20625,242.38895,32,59,1
242.3024,242.39856,44,60,1
242.39856,242.58125,32,61,1
242.4947,242.59087,44,61,1
242.59087,242.77356,32,62,1
242.68701,242.78317,44,63,1
242.78317,242.96884,32,64,1
242.88089,242.9786,44,55,1
242.9786,243.16428,32,61,1
243.07632,243.17406,44,55,1
243.17406,243.35971,32,61,1
243.27177,243.36949,44,55,1
243.36949,243.55516,32,60,1
243.46721,243.56493,44,55,1
243.56493,243.75201,33,64,1
243.66339,243.76186,45,55,1
243.76186,243.94894,33,61,1
243.86032,243.95879,45,55,1
243.95879,244.14586,33,61,1
244.05725,244.15572,45,55,1
244.15572,244.34279,33,60,1
244.25418,244.35265,45,55,1
244.35265,244.54765,34,50,1
244.45528,244.55792,46,51,1
244.55792,244.74062,34,51,1
244.65408,244.75023,46,52,1
244.75023,244.93234,34,53,1
244.84608,244.94193,46,54,1
244.94193,245.12404,34,55,1
245.03777,245.13362,46,56,1
245.13362,245.31572,34,57,1
245.22946,245.32532,46,58,1
245.32532,245.50742,34,59,1
245.42116,245.517,46,60,1
245.517,245.69911,34,61,1
245.61285,245.7087,46,61,1
245.7087,245.89081,34,62,1
245.80455,245.90039,46,63,1
245.90039,246.08606,34,64,1
245.99811,246.09583,46,55,1
246.09583,246.2815,34,61,1
246.19356,246.29128,46,55,1
246.29128,246.47455,34,61,1
246.38774,246.48419,46,55,1
246.48419,246.66748,34,60,1
246.58066,246.67712,46,55,1
246.67712,246.86258,34,64,1
246.77463,246.87234,46,55,1
246.87234,247.05801,34,61,1
246.97008,247.0678,46,55,1
247.0678,247.25049,34,61,1
247.16394,247.2601,46,55,1
247.2601,247.4428,34,60,1
247.35625,247.45241,46,55,1
247.45241,247.63808,34,64,1
247.55013,247.64784,46,55,1
247.64784,247.83351,34,61,1
247.74556,247.84329,46,55,1
247.84329,248.02716,34,61,1
247.94006,248.03683,46,55,1
248.03683,248.2207,34,60,1
248.1336,248.23038,46,55,1
248.23038,248.4155,34,64,1
248.32784,248.42525,46,55,1
248.42525,248.6103,34,61,1
248.52264,248.62004,46,55,1
248.62004,248.80511,34,61,1
248.71745,248.81485,46,55,1
248.81485,248.99991,34,60,1
248.91225,249.00966,46,55,1
249.00966,249.21167,34,64,1
249.00966,249.21167,46,55,1
250.8306,251.02187,66,38,1
250.8306,251.02187,63,38,1
251.03194,251.2176,66,38,1
251.03194,251.2176,63,38,1
251.22737,251.41304,66,38,1
251.22737,251.41304,63,38,1
250.62581,251.42282,58,44,1
251.62689,251.82077,66,38,1
251.62689,251.82077,63,38,1
251.83098,252.02034,66,38,1
251.83098,252.02034,63,38,1
252.03032,252.22964,66,38,1
252.03032,252.22964,63,38,1
251.42282,252.22964,58,44,1
252.43236,252.62234,66,38,1
252.43236,252.62234,63,38,1
252.63235,252.82236,66,38,1
252.63235,252.82236,63,38,1
252.83235,253.02557,66,38,1
252.83235,253.02557,63,38,1
252.22964,253.03574,58,44,1
253.23914,253.42914,66,38,1
253.23914,253.42914,63,38,1
253.43913,253.62914,66,38,1
253.43913,253.62914,63,38,1
253.63913,253.83105,66,38,1
253.63913,253.83105,63,38,1
253.03574,253.84116,58,44,1
254.04877,254.23877,68,38,1
254.04877,254.23877,65,38,1
254.24876,254.43443,68,38,1
254.24876,254.43443,65,38,1
254.4442,254.62987,68,38,1
254.4442,254.62987,65,38,1
253.84116,254.63965,58,44,1
254.84372,255.0376,68,38,1
254.84372,255.0376,65,38,1
255.0478,255.23781,68,38,1
255.0478,255.23781,65,38,1
255.2478,255.4378,68,38,1
255.2478,255.4378,65,38,1
254.63965,255.4478,58,44,1
255.6512,255.84442,68,38,1
255.6512,255.84442,65,38,1
255.85458,256.04782,68,38,1
255.85458,256.04782,65,38,1
256.05798,256.2512,68,38,1
256.05798,256.2512,65,38,1
255.4478,256.26135,58,44,1
256.46475,256.658,68,38,1
256.46475,256.658,65,38,1
256.66815,256.86136,68,38,1
256.66815,256.86136,65,38,1
256.87155,257.06476,68,38,1
256.87155,257.06476,65,38,1
256.26135,257.07492,58,44,1
257.28326,257.47327,66,38,1
257.28326,257.47327,63,38,1
257.48325,257.6689,66,38,1
257.48325,257.6689,63,38,1
257.6787,257.86438,66,38,1
257.6787,257.86438,63,38,1
257.07492,257.87415,58,44,1
258.07822,258.2721,66,38,1
258.07822,258.2721,63,38,1
258.2823,258.47168,66,38,1
258.2823,258.47168,63,38,1
258.48163,258.67102,66,38,1
258.48163,258.67102,63,38,1
257.87415,258.68097,58,44,1
258.88367,259.07367,66,38,1
258.88367,259.07367,63,38,1
259.08368,259.27368,66,38,1
259.08368,259.27368,63,38,1
259.28366,259.4769,66,38,1
259.28366,259.4769,63,38,1
258.68097,259.48706,58,44,1
259.69046,259.88046,66,38,1
259.69046,259.88046,63,38,1
259.89044,260.08044,66,38,1
259.89044,260.08044,63,38,1
260.09045,260.28238,66,38,1
260.09045,260.28238,63,38,1
259.48706,260.29248,58,44,1
260.50082,260.68893,66,38,1
260.50082,260.68893,63,38,1
260.69882,260.8833,66,38,1
260.69882,260.8833,63,38,1
260.893,261.07748,66,38,1
260.893,261.07748,63,38,1
260.29248,261.0872,56,44,1
261.29126,261.48514,66,38,1
261.29126,261.48514,63,38,1
261.49533,261.68533,66,38,1
261.49533,261.68533,63,38,1
261.69534,261.88535,66,38,1
261.69534,261.88535,63,38,1
261.0872,261.89536,56,44,1
262.09872,262.29196,66,38,1
262.09872,262.29196,63,38,1
262.30212,262.49533,66,38,1
262.30212,262.49533,63,38,1
262.50552,262.69873,66,38,1
262.50552,262.69873,63,38,1
261.89536,262.7089,56,44,1
262.9123,263.1055,66,38,1
262.9123,263.1055,63,38,1
263.1157,263.3089,66,38,1
263.1157,263.3089,63,38,1
263.31906,263.5123,66,38,1
263.31906,263.5123,63,38,1
262.7089,263.52246,56,44,1
263.72723,263.91788,65,38,1
263.72723,263.91788,61,38,1
263.92792,264.1148,65,38,1
263.92792,264.1148,61,38,1
264.12463,264.31152,65,38,1
264.12463,264.31152,61,38,1
263.52246,264.32135,56,44,1
264.52542,264.7193,65,38,1
264.52542,264.7193,61,38,1
264.72952,264.91888,65,38,1
264.72952,264.91888,61,38,1
264.92886,265.11823,65,38,1
264.92886,265.11823,61,38,1
264.32135,265.12817,56,44,1
265.3309,265.52087,65,38,1
265.3309,265.52087,61,38,1
265.53088,265.7209,65,38,1
265.53088,265.7209,61,38,1
265.7309,265.9241,65,38,1
265.7309,265.9241,61,38,1
265.12817,265.93427,56,44,1
266.13766,266.32767,65,38,1
266.13766,266.32767,61,38,1
266.33768,266.52768,65,38,1
266.33768,266.52768,61,38,1
266.53766,266.72958,65,38,1
266.53766,266.72958,61,38,1
265.93427,266.7397,56,44,1
266.9466,267.1353,66,38,1
266.9466,267.1353,63,38,1
267.14526,267.33032,66,38,1
267.14526,267.33032,63,38,1
267.34006,267.52512,66,38,1
267.34006,267.52512,63,38,1
266.7397,267.53488,56,44,1
267.73895,267.93283,66,38,1
267.73895,267.93283,63,38,1
267.94302,268.13303,66,38,1
267.94302,268.13303,63,38,1
268.14304,268.33304,66,38,1
268.14304,268.33304,63,38,1
267.53488,268.34305,56,44,1
268.54642,268.73965,66,38,1
268.54642,268.73965,63,38,1
268.74982,268.94302,66,38,1
268.74982,268.94302,63,38,1
268.95322,269.14642,66,38,1
268.95322,269.14642,63,38,1
268.34305,269.1566,56,44,1
269.36,269.5532,66,38,1
269.36,269.5532,63,38,1
269.5634,269.7566,66,38,1
269.5634,269.7566,63,38,1
269.76675,269.96,66,38,1
269.76675,269.96,63,38,1
269.1566,269.97015,56,44,1
270.17493,270.37494,68,53,1
270.17493,270.37494,65,53,1
269.97015,270.37494,61,54,1
270.5723,270.77777,68,53,1
270.5723,270.77777,65,53,1
270.37494,270.77777,59,60,1
270.98325,271.17847,68,38,1
270.98325,271.17847,65,38,1
271.18875,271.37875,68,38,1
271.18875,271.37875,65,38,1
271.38873,271.57874,68,38,1
271.38873,271.57874,65,38,1
270.77777,271.58875,58,53,1
271.7921,271.98535,68,38,1
271.7921,271.98535,65,38,1
271.9955,272.18875,68,38,1
271.9955,272.18875,65,38,1
272.1989,272.39212,68,38,1
272.1989,272.39212,65,38,1
271.58875,272.4023,58,44,1
272.60568,272.79892,68,38,1
272.60568,272.79892,65,38,1
272.80908,273.0023,68,38,1
272.80908,273.0023,65,38,1
273.01248,273.2057,68,38,1
273.01248,273.2057,65,38,1
272.4023,273.21585,58,44,1
273.42566,273.62698,70,53,1
273.42566,273.62698,66,53,1
273.21585,273.62698,63,54,1
273.825,274.0305,70,53,1
273.825,274.0305,65,53,1
273.62698,274.0305,61,60,1
274.23596,274.43118,70,38,1
274.23596,274.43118,67,38,1
274.44144,274.63144,70,38,1
274.44144,274.63144,67,38,1
274.64145,274.83145,70,38,1
274.64145,274.83145,67,38,1
274.0305,274.84146,60,53,1
275.04483,275.23807,70,38,1
275.04483,275.23807,67,38,1
275.24823,275.44144,70,38,1
275.24823,275.44144,67,38,1
275.45163,275.64484,70,38,1
275.45163,275.64484,67,38,1
274.84146,275.655,60,44,1
275.8584,276.0516,70,38,1
275.8584,276.0516,67,38,1
276.0618,276.255,70,38,1
276.0618,276.255,67,38,1
276.26517,276.4584,70,38,1
276.26517,276.4584,67,38,1
275.655,276.46857,60,44,1
276.67197,276.86517,72,38,1
276.67197,276.86517,68,38,1
276.87534,277.06857,72,38,1
276.87534,277.06857,68,38,1
277.07874,277.27197,72,38,1
277.07874,277.27197,68,38,1
276.46857,277.28214,65,44,1
277.48553,277.67874,68,38,1
277.48553,277.67874,65,38,1
277.28214,277.6889,58,44,1
277.6889,277.88214,68,38,1
277.6889,277.88214,65,38,1
277.8923,278.0855,68,38,1
277.8923,278.0855,65,38,1
277.6889,278.0957,59,44,1
278.29907,278.4923,67,37,1
278.29907,278.4923,63,37,1
278.50247,278.69568,67,36,1
278.50247,278.69568,63,36,1
278.70587,278.89908,67,36,1
278.70587,278.89908,63,36,1
278.0957,278.90924,60,44,1
279.11258,279.30597,65,34,1
279.11258,279.30597,63,34,1
279.3162,279.5118,65,34,1
279.3162,279.5118,63,34,1
279.52216,279.72,65,33,1
279.52216,279.72,63,33,1
278.90924,279.7305,56,41,1
279.94327,280.1454,67,32,1
279.94327,280.1454,63,32,1
280.15604,280.35815,67,31,1
280.15604,280.35815,63,31,1
280.3688,280.57092,67,31,1
280.3688,280.57092,63,31,1
279.7305,280.58154,58,38,1
280.80215,281.0117,65,23,1
280.80215,281.0117,62,23,1
281.02274,281.2323,65,23,1
281.02274,281.2323,62,23,1
281.24332,281.45288,65,23,1
281.24332,281.45288,62,23,1
280.58154,281.4639,58,27,1
281.5742,281.6845,58,24,1
281.6845,281.78903,55,26,1
281.78903,281.8933,58,24,1
281.8933,281.9973,55,32,1
281.9973,282.10098,58,25,1
282.10098,282.20438,55,28,1
282.20438,282.30746,58,26,1
282.30746,282.41022,55,34,1
282.41022,282.51294,58,26,1
282.51294,282.6157,55,29,1
282.6157,282.7184,58,26,1
281.4639,282.7184,51,36,1
282.82117,282.92392,58,28,1
282.92392,283.02664,55,32,1
283.02664,283.1294,58,28,1
282.7184,283.1294,51,36,1
283.24216,283.35352,58,30,1
283.35352,283.45767,55,32,1
283.45767,283.56186,58,29,1
283.56186,283.66565,55,38,1
283.66565,283.76947,58,30,1
283.76947,283.87292,55,33,1
283.87292,283.97635,58,30,1
283.97635,284.07944,55,38,1
284.07944,284.18256,58,29,1
284.18256,284.28564,55,32,1
284.28564,284.38873,58,29,1
283.1294,284.38873,49,45,1
284.49182,284.5949,58,30,1
284.5949,284.698,55,33,1
284.698,284.80954,58,29,1
284.38873,284.80954,49,38,1
284.80954,284.8858,48,55,1
284.91122,285.01282,56,36,1
285.01282,285.11417,51,39,1
285.11417,285.21527,56,35,1
285.21527,285.29105,46,56,1
285.31622,285.4169,55,36,1
285.4169,285.5174,48,43,1
285.5174,285.61774,55,41,1
285.61774,285.69128,44,58,1
285.7158,285.8138,56,38,1
285.8138,285.91187,48,43,1
285.91187,286.0099,56,38,1
286.0099,286.08344,43,60,1
286.10794,286.206,55,40,1
286.206,286.30402,48,43,1
286.30402,286.40207,55,38,1
286.40207,286.4748,41,63,1
286.49893,286.59494,53,42,1
286.59494,286.69272,48,45,1
286.69272,286.78918,53,42,1
286.78918,286.8613,39,66,1
286.8853,286.98148,51,41,1
286.98148,287.07922,41,47,1
287.07922,287.17578,51,41,1
287.17578,287.24847,38,68,1
287.2725,287.36856,50,45,1
287.36856,287.46497,41,49,1
287.46497,287.56107,50,43,1
287.56107,287.634,36,70,1
287.65805,287.7538,48,45,1
287.7538,287.8506,41,51,1
287.8506,287.9467,48,43,1
287.9467,288.0183,34,70,1
288.0424,288.13968,46,47,1
288.13968,288.23578,41,53,1
288.23578,288.33246,46,48,1
288.33246,288.40512,32,72,1
288.42923,288.52502,44,47,1
288.52502,288.62143,41,53,1
288.62143,288.71854,44,50,1
288.71854,288.7905,31,75,1
288.81436,288.91052,43,50,1
288.91052,289.00742,39,55,1
289.00742,289.10483,43,50,1
289.10483,289.1811,31,76,1
289.2065,289.3082,43,56,1
289.3082,289.4099,39,58,1
289.4099,289.5116,43,55,1
289.5116,289.70898,44,84,1
289.5116,289.70898,32,71,1
290.30396,290.503,34,71,1
290.30396,290.503,46,84,1
291.22076,291.32568,58,30,1
291.32568,291.4302,55,32,1
291.4302,291.5345,58,29,1
291.5345,291.6385,55,38,1
291.6385,291.74216,58,30,1
291.74216,291.84555,55,33,1
291.84555,291.94864,58,30,1
291.94864,292.0514,55,38,1
292.0514,292.1541,58,29,1
292.1541,292.25687,55,32,1
292.25687,292.35962,58,29,1
291.11588,292.35962,51,45,1
292.46234,292.5651,58,30,1
292.5651,292.66782,55,33,1
292.66782,292.77057,58,29,1
292.35962,292.77057,51,38,1
292.88336,292.9947,58,30,1
292.9947,293.09885,55,32,1
293.09885,293.20303,58,29,1
293.20303,293.30682,55,38,1
293.30682,293.41064,58,30,1
293.41064,293.5141,55,33,1
293.5141,293.61752,58,30,1
293.61752,293.72064,55,38,1
293.72064,293.82373,58,29,1
293.82373,293.92682,55,32,1
293.92682,294.0299,58,29,1
292.77057,294.0299,49,45,1
294.133,294.23608,58,30,1
294.23608,294.33917,55,33,1
294.33917,294.4507,58,29,1
294.0299,294.4507,49,38,1
294.4507,294.52698,48,55,1
294.5524,294.654,56,36,1
294.654,294.75534,51,39,1
294.75534,294.85645,56,35,1
294.85645,294.93222,46,56,1
294.95743,295.05807,55,36,1
295.05807,295.1586,48,43,1
295.1586,295.2589,55,41,1
295.2589,295.33246,44,58,1
295.35696,295.455,56,38,1
295.455,295.55304,48,43,1
295.55304,295.6511,56,38,1
295.6511,295.7246,43,60,1
295.7491,295.84717,55,40,1
295.84717,295.9452,48,43,1
295.9452,296.04324,55,38,1
296.04324,296.11584,41,63,1
296.1399,296.23694,53,42,1
296.23694,296.33383,48,45,1
296.33383,296.43015,53,42,1
296.43015,296.50317,39,66,1
296.52765,296.62433,51,41,1
296.62433,296.72073,41,47,1
296.72073,296.81815,51,41,1
296.81815,296.8907,38,68,1
296.9148,297.0111,50,45,1
297.0111,297.10873,41,49,1
297.10873,297.20557,50,43,1
297.20557,297.27795,36,70,1
297.30222,297.39917,48,45,1
297.39917,297.4953,41,51,1
297.4953,297.59247,48,43,1
297.59247,297.6656,34,70,1
297.68982,297.78586,46,47,1
297.78586,297.88254,41,53,1
297.88254,297.97974,46,48,1
297.97974,298.0516,32,72,1
298.07544,298.17108,44,47,1
298.17108,298.26825,41,53,1
298.26825,298.36447,44,50,1
298.36447,298.4367,31,75,1
298.4611,298.5594,43,50,1
298.5594,298.65686,39,55,1
298.65686,298.75363,43,50,1
298.75363,298.8299,31,76,1
298.85532,298.95703,43,56,1
298.95703,299.05872,31,58,1
299.05872,299.1604,43,55,1
299.1604,299.36017,44,84,1
299.1604,299.36017,32,71,1
299.95514,300.15384,34,71,1
299.95514,300.15384,46,84,1
300.7494,300.95917,51,84,1
300.7494,300.95917,39,84,1
300.95917,301.14792,67,34,1
300.95917,301.14792,63,34,1
301.15787,301.34662,67,34,1
301.15787,301.34662,63,34,1
301.3566,301.54874,67,34,1
301.3566,301.54874,63,34,1
301.76242,301.95123,67,34,1
301.76242,301.95123,63,34,1
301.96115,302.1499,67,34,1
301.96115,302.1499,63,34,1
302.15985,302.3506,67,34,1
302.15985,302.3506,63,34,1
301.55908,302.3608,60,34,1
302.56216,302.75027,63,34,1
302.56216,302.75027,65,34,1
302.7602,302.9483,65,34,1
302.7602,302.9483,63,34,1
302.9582,303.1487,65,34,1
302.9582,303.1487,63,34,1
302.3608,303.15887,56,34,1
303.36017,303.54892,65,34,1
303.36017,303.54892,62,34,1
303.55884,303.7476,65,34,1
303.55884,303.7476,62,34,1
303.75754,303.94626,65,34,1
303.75754,303.94626,62,34,1
303.15887,303.9562,58,34,1
304.166,304.35474,63,44,1
304.166,304.35474,55,44,1
304.36465,304.55344,63,44,1
304.36465,304.55344,55,44,1
304.5634,304.75555,63,44,1
304.5634,304.75555,55,44,1
303.9562,304.7659,51,59,1
304.96924,305.15805,60,46,1
304.96924,305.15805,51,46,1
304.96924,305.15805,55,46,1
305.16797,305.35672,60,46,1
305.16797,305.35672,51,46,1
305.16797,305.35672,55,46,1
305.36667,305.5574,60,47,1
305.36667,305.5574,51,47,1
305.36667,305.5574,55,47,1
304.7659,305.56763,48,45,1
305.76898,305.9571,51,48,1
305.76898,305.9571,56,48,1
305.76898,305.9571,53,48,1
305.96698,306.15512,56,48,1
305.96698,306.15512,51,48,1
305.96698,306.15512,53,48,1
306.165,306.35553,56,49,1
306.165,306.35553,51,49,1
306.165,306.35553,53,49,1
305.56763,306.3657,44,47,1
306.567,306.75574,58,50,1
306.567,306.75574,50,50,1
306.567,306.75574,53,50,1
306.76566,306.95435,58,50,1
306.76566,306.95435,50,50,1
306.76566,306.95435,53,50,1
306.9643,307.1606,58,51,1
306.9643,307.1606,50,51,1
306.9643,307.1606,53,51,1
306.3657,307.17154,46,49,1
307.17154,307.38187,39,67,1
307.28223,307.39294,51,60,1
307.39294,307.58167,39,67,1
307.49228,307.5916,51,59,1
307.5916,307.78354,39,67,1
307.69263,307.79364,51,60,1
307.79364,307.98236,39,66,1
307.89297,307.9923,51,60,1
307.9923,308.18106,39,66,1
308.09164,308.19098,51,59,1
308.19098,308.37973,39,66,1
308.2903,308.38965,51,60,1
308.38965,308.5784,39,66,1
308.48898,308.58835,51,60,1
308.58835,308.77707,39,66,1
308.68768,308.78702,51,61,1
308.78702,308.98563,39,67,1
308.89154,308.99606,51,60,1
308.99606,309.1848,39,67,1
309.0954,309.19473,51,59,1
309.19473,309.38666,39,67,1
309.29575,309.39676,51,60,1
309.39676,309.5855,39,66,1
309.4961,309.59543,51,60,1
309.59543,309.78418,39,66,1
309.6948,309.79413,51,59,1
309.79413,309.98285,39,66,1
309.89346,309.9928,51,60,1
309.9928,310.18155,39,66,1
310.09213,310.19147,51,60,1
310.19147,310.39078,39,66,1
310.29636,310.40125,51,61,1
310.40125,310.59125,39,66,1
310.50125,310.60126,51,59,1
310.60126,310.79126,39,66,1
310.70126,310.80127,51,60,1
310.80127,310.99127,39,66,1
310.90125,311.00125,51,60,1
311.00125,311.19125,39,66,1
311.10126,311.20126,51,61,1
311.20126,311.39,38,66,1
311.3006,311.39993,50,59,1
311.39993,311.58868,38,66,1
311.49927,311.5986,50,60,1
311.5986,311.78735,38,66,1
311.69794,311.79727,50,60,1
311.79727,312.0016,38,66,1
311.90482,312.01233,50,61,1
312.01233,312.20233,36,66,1
312.11234,312.21234,48,59,1
312.21234,312.40234,36,66,1
312.31235,312.41235,48,60,1
312.41235,312.60233,36,66,1
312.51233,312.61234,48,60,1
312.61234,312.80234,36,66,1
312.71234,312.81235,48,61,1
312.81235,313.00046,34,66,1
312.91135,313.01035,46,59,1
313.01035,313.1985,34,66,1
313.10938,313.20837,46,60,1
313.20837,313.39648,34,66,1
313.3074,313.4064,46,60,1
313.4064,313.60852,34,66,1
313.5128,313.61917,46,61,1
313.61917,313.80917,32,66,1
313.71918,313.81915,44,59,1
313.81915,314.00916,32,66,1
313.91916,314.01917,44,60,1
314.01917,314.20917,32,66,1
314.11917,314.21918,44,60,1
314.21918,314.40915,32,66,1
314.31915,314.41916,44,61,1
314.41916,314.60727,31,66,1
314.5182,314.6172,43,59,1
314.6172,314.8053,31,66,1
314.7162,314.81522,43,60,1
314.81522,315.00333,31,66,1
314.9142,315.0132,43,60,1
315.0132,315.21393,31,66,1
315.11887,315.2245,43,61,1
315.2245,316.18835,42,74,1
315.2245,316.18835,30,62,1
316.18835,318.18835,54,84,1
316.18835,318.18835,42,71,1
318.18835,322.31335,43,89,1
318.18835,322.31335,31,76,1
318.18835,322.31335,34,76,1
318.18835,322.31335,38,76,1
322.31335,322.6696,58,39,1
322.68835,323.81335,57,45,1
323.81335,324.23245,55,39,1
324.25452,327.5422,61,42,1
327.5422,329.0422,62,27,1
330.1672,330.5422,51,86,1
330.5422,334.6672,63,90,1
334.6672,335.02344,63,39,1
335.0422,336.1672,62,45,1
336.1672,336.58023,60,39,1
336.602,341.38965,58,38,1
342.51465,342.88965,51,81,1
342.88965,347.01465,63,86,1
347.01465,347.3709,63,42,1
347.38965,348.5435,62,49,1
348.5435,348.93933,60,49,1
348.96017,350.56015,60,50,1
350.56015,353.76016,59,43,1
353.76016,356.96017,59,33,1
356.96017,360.16016,47,31,1
360.16016,363.49054,47,28,1
363.49054,367.17502,35,25,1
367.17502,370.60358,35,22,1
370.60358,370.8005,40,55,1
370.70724,370.81088,52,50,1
370.81088,370.996,40,53,1
370.90833,371.00577,52,47,1
371.00577,371.1909,40,53,1
371.10318,371.20062,52,47,1
371.20062,371.38574,40,52,1
371.29807,371.39548,52,48,1
371.39548,371.58063,40,50,1
371.49292,371.59036,52,53,1
371.59036,371.77365,40,54,1
371.68683,371.7833,52,54,1
371.7833,371.96655,40,56,1
371.87976,371.97623,52,58,1
371.97623,372.1595,40,62,1
372.07266,372.16913,52,57,1
372.16913,372.35757,40,53,1
372.16913,372.35757,52,63,1
372.3675,372.55594,59,55,1
372.3675,372.55594,55,46,1
372.56586,372.7543,59,55,1
372.56586,372.7543,55,46,1
372.76422,372.95267,59,55,1
372.76422,372.95267,55,46,1
372.9626,373.15103,52,63,1
373.16095,373.34937,59,55,1
373.16095,373.34937,55,46,1
373.35928,373.54437,59,55,1
373.35928,373.54437,55,46,1
373.5541,373.74997,59,51,1
373.5541,373.74997,55,43,1
373.76028,373.94965,52,55,1
373.95963,374.149,60,48,1
373.95963,374.149,57,40,1
374.15897,374.34833,60,48,1
374.15897,374.34833,57,40,1
374.3583,374.54767,60,48,1
374.3583,374.54767,57,40,1
374.55762,374.74512,51,63,1
374.755,374.9425,60,55,1
374.755,374.9425,57,46,1
374.95236,375.13742,60,55,1
374.95236,375.13742,57,46,1
375.1472,375.34305,60,51,1
375.1472,375.34305,57,43,1
375.35336,375.5503,38,55,1
375.457,375.56067,50,50,1
375.56067,375.7458,38,53,1
375.65808,375.75552,50,47,1
375.75552,375.94064,38,53,1
375.85297,375.95038,50,47,1
375.95038,376.13553,38,52,1
376.04782,376.14526,50,48,1
376.14526,376.33038,38,50,1
376.2427,376.34012,50,53,1
376.34012,376.5234,38,54,1
376.43658,376.53305,50,54,1
376.53305,376.71634,38,56,1
376.62952,376.72598,50,58,1
376.72598,376.90927,38,62,1
376.82245,376.9189,50,57,1
376.9189,377.10736,38,53,1
376.9189,377.10736,50,63,1
377.11728,377.3057,60,55,1
377.11728,377.3057,57,46,1
377.3156,377.50406,60,55,1
377.3156,377.50406,57,46,1
377.51398,377.70242,60,55,1
377.51398,377.70242,57,46,1
377.71234,377.9008,50,63,1
377.9107,378.09915,60,55,1
377.9107,378.09915,57,46,1
378.10907,378.29413,60,55,1
378.10907,378.29413,57,46,1
378.30386,378.49976,60,51,1
378.30386,378.49976,57,43,1
378.51007,378.69943,50,55,1
378.70938,378.89877,58,48,1
378.70938,378.89877,55,40,1
378.90872,379.09808,58,48,1
378.90872,379.09808,55,40,1
379.10806,379.29742,58,48,1
379.10806,379.29742,55,40,1
379.3074,379.4949,49,63,1
379.50476,379.69226,58,55,1
379.50476,379.69226,55,46,1
379.70215,379.8872,58,55,1
379.70215,379.8872,55,46,1
379.89694,380.0928,58,51,1
379.89694,380.0928,55,43,1
380.10312,380.30313,48,53,1
380.10312,380.30313,36,53,1
380.30313,380.49667,49,55,1
380.49667,380.69736,48,51,1
380.69736,380.89026,53,55,1
380.89026,381.09027,52,52,1
381.09027,381.2838,61,55,1
381.2838,381.48383,60,51,1
381.48383,381.67676,65,55,1
381.67676,381.87808,64,51,1
381.87808,382.07352,66,55,1
382.07352,382.26895,67,57,1
383.4386,383.63214,42,55,1
383.63214,383.83282,41,51,1
383.83282,384.02576,49,55,1
384.02576,384.22574,48,52,1
384.22574,384.41928,54,55,1
384.41928,384.6193,53,51,1
384.6193,384.81223,61,55,1
384.81223,385.01355,60,51,1
385.01355,385.209,64,55,1
385.209,385.40445,65,57,1
386.57407,386.7676,48,55,1
386.7676,386.9683,47,51,1
386.9683,387.16122,50,55,1
387.16122,387.3612,53,52,1
387.3612,387.55478,60,55,1
387.55478,387.75476,59,51,1
387.75476,387.9477,62,55,1
387.9477,388.04053,65,54,1
388.33905,388.4367,62,54,1
388.72833,388.82513,59,53,1
389.11545,389.21222,55,52,1
389.5061,389.69965,61,51,1
389.5061,389.69965,49,43,1
389.8932,390.08673,58,50,1
389.8932,390.08673,46,42,1
390.28384,390.47803,55,49,1
390.28384,390.47803,43,41,1
390.6722,390.8664,52,48,1
390.6722,390.8664,40,40,1
391.06415,391.2577,53,48,1
391.06415,391.2577,41,40,1
391.8419,392.03607,41,48,1
391.8419,392.03607,29,40,1
392.62253,392.81668,42,48,1
392.62253,392.81668,30,40,1
393.40314,393.59732,42,48,1
393.40314,393.59732,30,40,1
394.17984,394.27853,31,33,1
394.27853,394.3772,43,33,1
394.3772,394.4759,31,34,1
394.4759,394.5746,43,34,1
394.5746,394.67197,31,34,1
394.67197,394.76938,43,34,1
394.76938,394.8668,31,34,1
394.8668,394.96417,43,34,1
394.96417,395.06158,31,34,1
395.06158,395.159,43,34,1
395.159,395.25638,31,34,1
395.25638,395.3538,43,34,1
395.3538,395.4512,31,34,1
395.4512,395.5486,43,34,1
395.5486,395.646,31,34,1
395.646,395.7434,43,34,1
395.7434,395.84082,31,33,1
395.84082,395.9382,43,33,1
395.9382,396.0356,31,33,1
396.0356,396.13766,43,33,1
396.13766,396.23505,31,33,1
396.23505,396.33246,43,33,1
396.33246,396.42987,31,33,1
396.42987,396.52725,43,33,1
396.52725,396.62466,31,33,1
396.62466,396.72208,43,33,1
396.72208,396.81946,31,33,1
396.81946,396.91687,43,33,1
396.91687,397.01428,31,33,1
397.01428,397.11166,43,33,1
397.11166,397.21027,31,33,1
397.21027,397.31116,43,33,1
397.31116,397.49927,31,55,1
397.41016,397.5092,43,50,1
397.5092,397.6943,31,53,1
397.60663,397.70404,43,47,1
397.70404,397.88916,31,53,1
397.80148,397.89893,43,47,1
397.89893,398.08405,31,52,1
397.99634,398.09378,43,48,1
398.09378,398.2789,31,50,1
398.19122,398.28867,43,53,1
398.28867,398.47192,31,54,1
398.3851,398.48157,43,54,1
398.48157,398.66486,31,56,1
398.57803,398.6745,43,58,1
398.6745,398.8578,31,62,1
398.77097,398.86743,43,57,1
398.86743,399.26355,31,69,1
399.06287,399.45898,43,62,1
399.26355,399.65442,35,67,1
399.45898,399.84985,43,62,1
399.65442,400.0453,36,67,1
399.84985,400.24463,43,62,1
400.24463,400.44397,43,62,1
400.0453,400.44397,30,64,1
400.44397,400.54266,31,33,1
400.54266,400.64133,43,33,1
400.64133,400.74002,31,34,1
400.74002,400.8387,43,34,1
400.8387,400.9361,31,34,1
400.9361,401.0335,43,34,1
401.0335,401.13092,31,34,1
401.13092,401.2283,43,34,1
401.2283,401.3257,31,34,1
401.3257,401.42313,43,34,1
401.42313,401.52054,31,34,1
401.52054,401.61792,43,34,1
401.61792,401.71533,31,34,1
401.71533,401.81274,43,34,1
401.81274,401.91013,31,34,1
401.91013,402.00754,43,34,1
402.00754,402.10495,31,33,1
402.10495,402.20233,43,33,1
402.20233,402.29974,31,33,1
402.29974,402.4018,43,33,1
402.4018,402.49918,31,33,1
402.49918,402.5966,43,33,1
402.5966,402.694,31,33,1
402.694,402.79138,43,33,1
402.79138,402.8888,31,33,1
402.8888,402.9862,43,33,1
402.9862,403.0836,31,33,1
403.0836,403.181,43,33,1
403.181,403.2784,31,33,1
403.2784,403.37582,43,33,1
403.37582,403.4744,31,33,1
403.4744,403.5753,43,33,1
403.5753,403.7634,31,55,1
403.6743,403.77332,43,50,1
403.77332,403.95844,31,53,1
403.87076,403.96817,43,47,1
403.96817,404.1533,31,53,1
404.0656,404.16306,43,47,1
404.16306,404.34818,31,52,1
404.26047,404.3579,43,48,1
404.3579,404.54303,31,50,1
404.45535,404.5528,43,53,1
404.5528,404.73605,31,54,1
404.64926,404.7457,43,54,1
404.7457,404.929,31,56,1
404.84216,404.93863,43,58,1
404.93863,405.12192,31,62,1
405.0351,405.13156,43,57,1
405.13156,405.52768,31,69,1
405.327,405.7231,43,62,1
405.52768,405.91855,35,67,1
405.7231,406.11398,43,62,1
405.91855,406.30942,36,67,1
406.11398,406.50876,43,62,1
406.50876,406.7081,43,62,1
406.30942,406.7081,30,64,1
406.7081,407.10422,31,69,1
406.90353,407.29965,43,62,1
407.10422,407.4951,35,67,1
407.29965,407.69052,43,62,1
407.4951,407.88596,36,67,1
407.69052,408.0853,43,62,1
408.0853,408.28464,43,62,1
407.88596,408.28464,30,64,1
408.28464,408.68076,31,69,1
408.48007,408.8762,43,62,1
408.68076,409.07162,35,67,1
408.8762,409.26706,43,62,1
409.07162,409.4625,36,67,1
409.26706,409.66183,43,62,1
409.66183,409.86118,43,62,1
409.4625,409.86118,30,64,1
416.11523,416.30896,36,44,1
416.21756,416.31912,48,41,1
416.31912,416.51,36,44,1
416.41992,416.52002,48,41,1
416.52002,416.70816,36,44,1
416.61935,416.71802,48,41,1
416.71802,416.90366,36,45,1
416.81598,416.9134,48,41,1
416.9134,417.0985,36,45,1
417.01083,417.10828,48,46,1
417.10828,417.29095,36,47,1
417.20444,417.30057,48,47,1
417.30057,417.48328,36,49,1
417.39673,417.4929,48,50,1
417.4929,417.67856,36,51,1
417.5906,417.68832,48,53,1
417.68832,417.88525,36,55,1
417.79196,417.89563,48,50,1
417.89563,418.08075,36,53,1
417.99304,418.09048,48,47,1
418.09048,418.2756,36,53,1
418.18793,418.28537,48,47,1
418.28537,418.4705,36,44,1
418.38278,418.48022,48,40,1
418.48022,418.66534,36,43,1
418.57767,418.67508,48,45,1
418.67508,418.85837,36,46,1
418.77155,418.868,48,47,1
418.868,419.0513,36,48,1
418.96448,419.06094,48,50,1
419.06094,419.24423,36,51,1
419.1574,419.25388,48,53,1
419.25388,419.44232,36,55,1
419.35306,419.45224,48,50,1
419.45224,419.63867,36,53,1
419.55035,419.6485,48,47,1
419.6485,419.83493,38,55,1
419.7466,419.84476,50,50,1
419.84476,420.03665,38,55,1
419.94574,420.04675,50,51,1
420.04675,420.23447,39,55,1
420.14554,420.24435,51,55,1
420.24435,420.43207,39,55,1
420.34314,420.44196,51,55,1
420.44196,420.62967,41,55,1
420.54074,420.63956,53,53,1
420.63956,420.8305,41,55,1
420.74005,420.84058,53,55,1
420.84058,421.03152,43,56,1
420.94107,421.0416,55,56,1
421.0416,421.23254,43,57,1
421.1421,421.2426,55,57,1
421.2426,421.43356,44,58,1
421.3431,421.44363,56,59,1
421.44363,421.63458,44,59,1
421.54413,421.64465,56,60,1
421.64465,421.8356,42,60,1
421.74515,421.84567,54,55,1
421.84567,422.03662,42,61,1
421.94617,422.0467,54,55,1
422.0467,422.23764,43,58,1
422.1472,422.2477,55,55,1
422.2477,422.43866,43,58,1
422.3482,422.44873,55,55,1
422.44873,422.64246,36,48,1
422.55103,422.6526,48,45,1
422.6526,422.8435,36,44,1
422.7534,422.8535,48,41,1
422.8535,423.04166,36,44,1
422.95285,423.05148,48,40,1
423.05148,423.23712,36,44,1
423.14944,423.2469,48,41,1
423.2469,423.432,36,44,1
423.3443,423.44174,48,46,1
423.44174,423.62445,36,47,1
423.5379,423.63406,48,47,1
423.63406,423.81674,36,49,1
423.7302,423.82635,48,50,1
423.82635,424.00906,36,51,1
423.92252,424.01868,48,53,1
424.01868,424.2156,36,55,1
424.1223,424.22595,48,50,1
424.22595,424.4111,36,53,1
424.3234,424.42084,48,47,1
424.42084,424.60596,36,53,1
424.51828,424.6157,48,47,1
424.6157,424.8008,36,44,1
424.71313,424.81058,48,40,1
424.81058,424.9957,36,43,1
424.908,425.00543,48,45,1
425.00543,425.18814,36,46,1
425.1016,425.19775,48,47,1
425.19775,425.38043,36,48,1
425.2939,425.39005,48,50,1
425.39005,425.5757,36,51,1
425.48776,425.58548,48,53,1
425.58548,425.77393,36,55,1
425.68466,425.78384,48,50,1
425.78384,425.9703,36,53,1
425.882,425.9801,48,47,1
425.9801,426.16656,36,55,1
426.07825,426.17636,48,50,1
426.17636,426.36826,36,55,1
426.27737,426.37836,48,51,1
426.37836,426.56607,37,55,1
426.47717,426.57596,49,55,1
426.57596,426.76367,37,55,1
426.67477,426.77356,49,55,1
426.77356,426.9613,39,55,1
426.87238,426.97116,51,53,1
426.97116,427.16214,39,55,1
427.0717,427.17218,51,55,1
427.17218,427.36316,41,56,1
427.2727,427.3732,53,56,1
427.3732,427.56418,41,57,1
427.47372,427.57422,53,57,1
427.57422,427.7652,42,58,1
427.67474,427.77524,54,59,1
427.77524,427.96622,42,59,1
427.87576,427.97626,54,60,1
427.97626,428.16525,44,60,1
428.07574,428.1752,56,55,1
428.1752,428.36423,44,61,1
428.2747,428.37418,56,55,1
428.37418,428.56317,44,58,1
428.47363,428.57312,56,55,1
428.57312,428.767,44,58,1
428.67517,428.7772,56,55,1
428.7772,428.97107,44,52,1
428.87924,428.9813,56,45,1
428.9813,429.16772,44,53,1
429.0794,429.17755,56,47,1
429.17755,429.36398,38,55,1
429.27567,429.3738,50,50,1
429.3738,429.5657,38,55,1
429.4748,429.57578,50,51,1
429.57578,429.76352,39,55,1
429.6746,429.7734,51,55,1
429.7734,429.96112,39,55,1
429.8722,429.971,51,55,1
429.971,430.15872,41,55,1
430.0698,430.1686,53,53,1
430.1686,430.35956,41,55,1
430.2691,430.36963,53,55,1
430.36963,430.56058,42,56,1
430.47012,430.57065,54,56,1
430.57065,430.7616,42,57,1
430.67114,430.77167,54,57,1
430.77167,430.96262,44,58,1
430.87216,430.9727,56,59,1
430.9727,431.16364,44,59,1
431.07318,431.17368,56,60,1
431.17368,431.3627,46,60,1
431.27316,431.37265,58,55,1
431.37265,431.56165,46,61,1
431.4721,431.5716,58,55,1
431.5716,431.7606,46,58,1
431.67108,431.77054,58,55,1
431.77054,431.9631,46,58,1
431.8719,431.97324,58,55,1
431.97324,432.1658,46,53,1
432.0746,432.17596,58,46,1
432.17596,432.3624,46,50,1
432.27408,432.37222,58,47,1
432.37222,432.55865,40,55,1
432.47034,432.56848,52,50,1
432.56848,432.76035,40,55,1
432.66946,432.77045,52,51,1
432.77045,432.9582,41,55,1
432.86926,432.96805,53,55,1
432.96805,433.1558,41,55,1
433.06686,433.16568,53,55,1
433.16568,433.3534,43,55,1
433.26447,433.36328,55,53,1
433.36328,433.55423,43,55,1
433.46378,433.5643,55,55,1
433.5643,433.75525,44,56,1
433.6648,433.76532,56,56,1
433.76532,433.95627,44,57,1
433.8658,433.9663,56,57,1
433.9663,434.1573,46,58,1
434.06683,434.16733,58,59,1
434.16733,434.3583,46,59,1
434.26785,434.36835,58,60,1
434.36835,434.55737,48,60,1
434.46783,434.56732,60,55,1
434.56732,434.75632,48,61,1
434.66678,434.76627,60,55,1
434.76627,434.95526,49,58,1
434.86575,434.9652,61,55,1
434.9652,435.15424,49,58,1
435.0647,435.16415,61,55,1
435.16415,435.36313,60,58,1
435.16415,435.36313,48,58,1
436.99164,437.1829,68,38,1
436.99164,437.1829,65,38,1
437.19296,437.37863,68,38,1
437.19296,437.37863,65,38,1
437.3884,437.57407,68,38,1
437.3884,437.57407,65,38,1
436.78687,437.58386,60,44,1
437.78793,437.9818,68,38,1
437.78793,437.9818,65,38,1
437.992,438.1814,68,38,1
437.992,438.1814,65,38,1
438.19135,438.3807,68,38,1
438.19135,438.3807,65,38,1
437.58386,438.3907,60,44,1
438.59338,438.7834,68,38,1
438.59338,438.7834,65,38,1
438.7934,438.9834,68,38,1
438.7934,438.9834,65,38,1
438.99338,439.1866,68,38,1
438.99338,439.1866,65,38,1
438.3907,439.19678,60,44,1
439.40018,439.59018,68,38,1
439.40018,439.59018,65,38,1
439.60016,439.79016,68,38,1
439.60016,439.79016,65,38,1
439.80017,439.9921,68,38,1
439.80017,439.9921,65,38,1
439.19678,440.0022,60,44,1
440.2098,440.3998,70,38,1
440.2098,440.3998,67,38,1
440.4098,440.59546,70,38,1
440.4098,440.59546,67,38,1
440.60522,440.7909,70,38,1
440.60522,440.7909,67,38,1
440.0022,440.8007,60,44,1
441.00476,441.19864,70,38,1
441.00476,441.19864,67,38,1
441.20883,441.39883,70,38,1
441.20883,441.39883,67,38,1
441.40884,441.59885,70,38,1
441.40884,441.59885,67,38,1
440.8007,441.60883,60,44,1
441.81223,442.00546,70,38,1
441.81223,442.00546,67,38,1
442.01562,442.20883,70,38,1
442.01562,442.20883,67,38,1
442.21902,442.41223,70,38,1
442.21902,442.41223,67,38,1
441.60883,442.4224,60,44,1
442.6258,442.819,70,38,1
442.6258,442.819,67,38,1
442.8292,443.0224,70,38,1
442.8292,443.0224,67,38,1
443.03256,443.2258,70,38,1
443.03256,443.2258,67,38,1
442.4224,443.23596,60,44,1
443.4443,443.6343,68,38,1
443.4443,443.6343,65,38,1
443.6443,443.82996,68,38,1
443.6443,443.82996,65,38,1
443.83972,444.0254,68,38,1
443.83972,444.0254,65,38,1
443.23596,444.0352,60,44,1
444.23926,444.43314,68,38,1
444.23926,444.43314,65,38,1
444.44333,444.6327,68,38,1
444.44333,444.6327,65,38,1
444.64267,444.83203,68,38,1
444.64267,444.83203,65,38,1
444.0352,444.842,60,44,1
445.0447,445.2347,65,38,1
445.0447,445.2347,60,38,1
445.24472,445.43472,65,38,1
445.24472,445.43472,60,38,1
445.4447,445.63794,65,38,1
445.4447,445.63794,60,38,1
444.842,445.6481,56,44,1
445.8515,446.0415,65,38,1
445.8515,446.0415,60,38,1
446.05148,446.2415,65,38,1
446.05148,446.2415,60,38,1
446.2515,446.44342,65,38,1
446.2515,446.44342,60,38,1
445.6481,446.45352,56,44,1
446.66183,446.84998,65,38,1
446.66183,446.84998,62,38,1
446.85986,447.04434,65,38,1
446.85986,447.04434,62,38,1
447.05405,447.2385,65,38,1
447.05405,447.2385,62,38,1
446.45352,447.2482,55,44,1
447.4523,447.64618,65,38,1
447.4523,447.64618,62,38,1
447.65637,447.84637,65,38,1
447.65637,447.84637,62,38,1
447.85638,448.0464,65,38,1
447.85638,448.0464,62,38,1
447.2482,448.05637,55,44,1
448.25977,448.45297,65,38,1
448.25977,448.45297,62,38,1
448.46317,448.65637,65,38,1
448.46317,448.65637,62,38,1
448.66653,448.85977,65,38,1
448.66653,448.85977,62,38,1
448.05637,448.86993,55,44,1
449.07333,449.26654,65,38,1
449.07333,449.26654,62,38,1
449.2767,449.46994,65,38,1
449.2767,449.46994,62,38,1
449.4801,449.67334,65,38,1
449.4801,449.67334,62,38,1
448.86993,449.6835,55,44,1
449.88828,450.07892,63,38,1
449.88828,450.07892,60,38,1
450.08893,450.27582,63,38,1
450.08893,450.27582,60,38,1
450.28568,450.47256,63,38,1
450.28568,450.47256,60,38,1
449.6835,450.4824,55,44,1
450.68646,450.88034,63,38,1
450.68646,450.88034,60,38,1
450.89056,451.07993,63,38,1
450.89056,451.07993,60,38,1
451.08987,451.27927,63,38,1
451.08987,451.27927,60,38,1
450.4824,451.2892,55,44,1
451.4919,451.68192,63,38,1
451.4919,451.68192,60,38,1
451.69193,451.88193,63,38,1
451.69193,451.88193,60,38,1
451.89194,452.08514,63,38,1
451.89194,452.08514,60,38,1
451.2892,452.0953,55,44,1
452.2987,452.4887,63,38,1
452.2987,452.4887,60,38,1
452.4987,452.6887,63,38,1
452.4987,452.6887,60,38,1
452.6987,452.89062,63,38,1
452.6987,452.89062,60,38,1
452.0953,452.90073,55,44,1
453.1076,453.29575,65,38,1
453.1076,453.29575,62,38,1
453.30563,453.4901,65,38,1
453.30563,453.4901,62,38,1
453.49982,453.6843,65,38,1
453.49982,453.6843,62,38,1
452.90073,453.694,55,44,1
453.89807,454.09195,65,38,1
453.89807,454.09195,62,38,1
454.10214,454.29214,65,38,1
454.10214,454.29214,62,38,1
454.30215,454.49216,65,38,1
454.30215,454.49216,62,38,1
453.694,454.50217,55,44,1
454.70554,454.89877,65,38,1
454.70554,454.89877,62,38,1
454.90894,455.10214,65,38,1
454.90894,455.10214,62,38,1
455.11234,455.30554,65,38,1
455.11234,455.30554,62,38,1
454.50217,455.3157,55,44,1
455.5191,455.7123,65,38,1
455.5191,455.7123,62,38,1
455.7225,455.9157,65,38,1
455.7225,455.9157,62,38,1
455.92587,456.12265,65,38,1
455.92587,456.12265,62,38,1
455.3157,456.1332,55,44,1
456.3366,456.52982,67,37,1
456.3366,456.52982,63,37,1
456.53998,456.73322,67,37,1
456.53998,456.73322,63,37,1
456.74338,456.9366,67,36,1
456.74338,456.9366,63,36,1
456.1332,456.94678,60,44,1
457.15015,457.34338,65,36,1
457.15015,457.34338,63,36,1
457.35355,457.54678,65,35,1
457.35355,457.54678,63,35,1
457.55695,457.7537,65,35,1
457.55695,457.7537,63,35,1
456.94678,457.76428,53,42,1
457.96765,458.1609,65,34,1
457.96765,458.1609,61,34,1
458.17105,458.36426,65,34,1
458.17105,458.36426,61,34,1
458.37445,458.56766,65,33,1
458.37445,458.56766,61,33,1
457.76428,458.57782,58,40,1
458.78122,458.97443,63,33,1
458.78122,458.97443,61,33,1
458.98462,459.17783,63,32,1
458.98462,459.17783,61,32,1
459.188,459.3851,63,32,1
459.188,459.3851,61,32,1
458.57782,459.3957,51,38,1
459.6033,459.80054,63,31,1
459.6033,459.80054,60,31,1
459.8109,460.00815,63,31,1
459.8109,460.00815,60,31,1
460.01852,460.21982,63,30,1
460.01852,460.21982,60,30,1
459.3957,460.23065,56,36,1
460.43826,460.6355,63,30,1
460.43826,460.6355,60,30,1
460.64587,460.8431,63,29,1
460.64587,460.8431,60,29,1
460.8535,461.0537,63,29,1
460.8535,461.0537,60,29,1
460.23065,461.06442,56,35,1
461.28104,461.48682,63,26,1
461.28104,461.48682,60,26,1
461.49765,461.70343,63,26,1
461.49765,461.70343,60,26,1
461.71426,461.92523,63,26,1
461.71426,461.92523,60,26,1
461.06442,461.9366,55,30,1
462.15884,462.36996,62,26,1
462.15884,462.36996,59,26,1
462.38107,462.5922,62,26,1
462.38107,462.5922,59,26,1
462.6033,462.8144,62,26,1
462.6033,462.8144,59,26,1
461.9366,462.8255,55,30,1
462.97552,463.12552,55,24,1
463.12552,463.23004,51,26,1
463.23004,463.33432,55,24,1
463.33432,463.43832,51,32,1
463.43832,463.542,55,25,1
463.542,463.6454,51,28,1
463.6454,463.74847,55,26,1
463.74847,463.85123,51,34,1
463.85123,463.95398,55,26,1
463.95398,464.0567,51,29,1
464.0567,464.15945,55,26,1
462.8255,464.15945,48,36,1
464.26218,464.36493,55,28,1
464.36493,464.46765,51,32,1
464.46765,464.5704,55,28,1
464.15945,464.5704,48,36,1
464.6832,464.79453,55,30,1
464.79453,464.8987,52,32,1
464.8987,465.00287,55,29,1
465.00287,465.10666,52,38,1
465.10666,465.21048,55,30,1
465.21048,465.31393,52,33,1
465.31393,465.4174,55,30,1
465.4174,465.52048,52,38,1
465.52048,465.62357,55,29,1
465.62357,465.72665,52,32,1
465.72665,465.82974,55,29,1
464.5704,465.82974,46,45,1
465.93283,466.03592,55,30,1
466.03592,466.13904,52,33,1
466.13904,466.25055,55,29,1
465.82974,466.25055,46,38,1
466.25055,466.3268,44,55,1
466.35223,466.45383,56,36,1
466.45383,466.55518,48,39,1
466.55518,466.6563,56,35,1
466.6563,466.73206,46,56,1
466.75726,466.8579,58,36,1
466.8579,466.95844,48,43,1
466.95844,467.05875,58,41,1
467.05875,467.1323,44,58,1
467.1568,467.25485,56,38,1
467.25485,467.35287,48,43,1
467.35287,467.45093,56,38,1
467.45093,467.52444,43,60,1
467.54895,467.647,55,40,1
467.647,467.74503,48,43,1
467.74503,467.84308,55,38,1
467.84308,467.9158,41,63,1
467.93994,468.03595,53,42,1
468.03595,468.13373,48,45,1
468.13373,468.2302,53,42,1
468.2302,468.3023,39,66,1
468.32635,468.42252,51,41,1
468.42252,468.52023,48,47,1
468.52023,468.6168,51,41,1
468.6168,468.68948,38,68,1
468.71353,468.80957,50,45,1
468.80957,468.90598,43,49,1
468.90598,469.0021,50,43,1
469.0021,469.075,36,70,1
469.0991,469.19482,48,45,1
469.19482,469.2916,43,51,1
469.2916,469.3877,48,43,1
469.3877,469.45932,35,70,1
469.4834,469.5807,47,47,1
469.5807,469.6768,43,53,1
469.6768,469.77347,47,48,1
469.77347,469.84613,34,72,1
469.87024,469.96603,46,47,1
469.96603,470.06247,36,53,1
470.06247,470.15955,46,50,1
470.15955,470.2315,32,75,1
470.2554,470.35156,44,50,1
470.35156,470.44843,36,55,1
470.44843,470.54584,44,50,1
470.54584,470.6221,29,76,1
470.64752,470.74924,41,56,1
470.74924,470.85092,36,58,1
470.85092,470.9526,41,55,1
470.9526,471.15,43,84,1
470.9526,471.15,31,71,1
471.74496,471.944,43,71,1
471.74496,471.944,55,84,1
472.6618,472.7667,55,30,1
472.7667,472.87122,51,32,1
472.87122,472.9755,55,29,1
472.9755,473.0795,51,38,1
473.0795,473.1832,55,30,1
473.1832,473.28656,51,33,1
473.28656,473.38968,55,30,1
473.38968,473.4924,51,38,1
473.4924,473.59515,55,29,1
473.59515,473.69788,51,32,1
473.69788,473.80063,55,29,1
472.55692,473.80063,48,45,1
473.90335,474.0061,55,30,1
474.0061,474.10886,51,33,1
474.10886,474.21158,55,29,1
473.80063,474.21158,48,38,1
474.32437,474.4357,55,30,1
474.4357,474.5399,52,32,1
474.5399,474.64404,55,29,1
474.64404,474.74786,52,38,1
474.74786,474.85165,55,30,1
474.85165,474.9551,52,33,1
474.9551,475.05856,55,30,1
475.05856,475.16165,52,38,1
475.16165,475.26474,55,29,1
475.26474,475.36783,52,32,1
475.36783,475.47092,55,29,1
474.21158,475.47092,46,45,1
475.574,475.67712,55,30,1
475.67712,475.7802,52,33,1
475.7802,475.89172,55,29,1
475.47092,475.89172,46,38,1
475.89172,475.968,44,55,1
475.9934,476.095,56,36,1
476.095,476.19635,48,39,1
476.19635,476.2975,56,35,1
476.2975,476.37323,46,56,1
476.39844,476.4991,58,36,1
476.4991,476.5996,48,43,1
476.5996,476.69995,58,41,1
476.69995,476.77347,44,58,1
476.79797,476.89603,56,38,1
476.89603,476.99405,48,43,1
476.99405,477.0921,56,38,1
477.0921,477.16562,43,60,1
477.19012,477.28818,55,40,1
477.28818,477.3862,48,43,1
477.3862,477.48425,55,38,1
477.48425,477.55685,41,63,1
477.58093,477.67795,53,42,1
477.67795,477.77484,48,45,1
477.77484,477.87115,53,42,1
477.87115,477.9442,39,66,1
477.96866,478.06534,51,41,1
478.06534,478.16174,48,47,1
478.16174,478.25916,51,41,1
478.25916,478.3317,38,68,1
478.35583,478.45212,50,45,1
478.45212,478.54974,43,49,1
478.54974,478.64658,50,43,1
478.64658,478.71896,36,70,1
478.74326,478.84018,48,45,1
478.84018,478.93634,43,51,1
478.93634,479.03348,48,43,1
479.03348,479.1066,35,70,1
479.13083,479.22687,47,47,1
479.22687,479.32355,43,53,1
479.32355,479.42075,47,48,1
479.42075,479.49265,34,72,1
479.51645,479.6121,46,47,1
479.6121,479.7093,36,53,1
479.7093,479.80548,46,50,1
479.80548,479.87775,32,75,1
479.9021,480.00043,44,50,1
480.00043,480.09787,36,55,1
480.09787,480.19464,44,50,1
480.19464,480.27094,29,76,1
480.29636,480.39804,41,56,1
480.39804,480.49973,36,58,1
480.49973,480.60144,41,55,1
480.60144,480.80118,43,84,1
480.60144,480.80118,31,71,1
481.39615,481.59485,43,71,1
481.39615,481.59485,55,84,1
482.1904,482.4002,48,84,1
482.4002,482.58893,63,34,1
482.4002,482.58893,60,34,1
482.59888,482.78763,63,34,1
482.59888,482.78763,60,34,1
482.7976,482.98975,63,34,1
482.7976,482.98975,60,34,1
483.20346,483.39224,63,34,1
483.20346,483.39224,60,34,1
483.4022,483.5909,63,34,1
483.4022,483.5909,60,34,1
483.60086,483.79163,63,34,1
483.60086,483.79163,60,34,1
483.0001,483.80182,56,34,1
484.00317,484.19128,60,34,1
484.00317,484.19128,62,34,1
484.2012,484.3893,62,34,1
484.2012,484.3893,60,34,1
484.39923,484.58972,62,34,1
484.39923,484.58972,60,34,1
483.80182,484.59988,53,34,1
484.8012,484.98993,62,34,1
484.8012,484.98993,59,34,1
484.99988,485.1886,62,34,1
484.99988,485.1886,59,34,1
485.19855,485.3873,62,34,1
485.19855,485.3873,59,34,1
484.59988,485.39722,55,34,1
485.60703,485.79575,60,44,1
485.60703,485.79575,51,44,1
485.8057,485.99445,60,44,1
485.8057,485.99445,51,44,1
486.00443,486.19656,60,44,1
486.00443,486.19656,51,44,1
485.39722,486.2069,48,59,1
486.41028,486.59906,56,46,1
486.41028,486.59906,48,46,1
486.41028,486.59906,51,46,1
486.609,486.79773,56,46,1
486.609,486.79773,48,46,1
486.609,486.79773,51,46,1
486.80768,486.99844,56,47,1
486.80768,486.99844,48,47,1
486.80768,486.99844,51,47,1
486.2069,487.00864,44,45,1
487.21,487.3981,48,48,1
487.21,487.3981,53,48,1
487.21,487.3981,50,48,1
487.40802,487.59613,53,48,1
487.40802,487.59613,48,48,1
487.40802,487.59613,50,48,1
487.60602,487.79654,53,49,1
487.60602,487.79654,48,49,1
487.60602,487.79654,50,49,1
487.00864,487.8067,41,47,1
488.008,488.19675,55,50,1
488.008,488.19675,47,50,1
488.008,488.19675,50,50,1
488.2067,488.3954,55,50,1
488.2067,488.3954,47,50,1
488.2067,488.3954,50,50,1
488.4053,488.60165,55,51,1
488.4053,488.60165,47,51,1
488.4053,488.60165,50,51,1
487.8067,488.61255,43,49,1
488.61255,488.82288,36,67,1
488.72327,488.83395,48,60,1
488.83395,489.0227,36,67,1
488.9333,489.03262,48,59,1
489.03262,489.22455,36,67,1
489.13364,489.23465,48,60,1
489.23465,489.4234,36,66,1
489.33398,489.43332,48,60,1
489.43332,489.62207,36,66,1
489.53265,489.632,48,59,1
489.632,489.82074,36,66,1
489.73135,489.8307,48,60,1
489.8307,490.0194,36,66,1
489.93002,490.02936,48,60,1
490.02936,490.2181,36,66,1
490.1287,490.22803,48,61,1
490.22803,490.42664,36,67,1
490.33255,490.43707,48,60,1
490.43707,490.62582,36,67,1
490.53644,490.63577,48,59,1
490.63577,490.82767,36,67,1
490.7368,490.83777,48,60,1
490.83777,491.02652,36,66,1
490.93713,491.03647,48,60,1
491.03647,491.2252,36,66,1
491.1358,491.23514,48,59,1
491.23514,491.4239,36,66,1
491.33447,491.4338,48,60,1
491.4338,491.62256,36,66,1
491.53314,491.63248,48,60,1
491.63248,491.8318,36,66,1
491.73737,491.8423,48,61,1
491.8423,492.0323,36,66,1
491.94226,492.04227,48,59,1
492.04227,492.23227,36,66,1
492.14227,492.24228,48,60,1
492.24228,492.43228,36,66,1
492.3423,492.44226,48,60,1
492.44226,492.63226,36,66,1
492.54227,492.64227,48,61,1
492.64227,492.83102,34,66,1
492.7416,492.84094,46,59,1
492.84094,493.0297,34,66,1
492.94028,493.0396,46,60,1
493.0396,493.22836,34,66,1
493.13898,493.2383,46,60,1
493.2383,493.4426,34,66,1
493.34583,493.45337,46,61,1
493.45337,493.64334,32,66,1
493.55334,493.65335,44,59,1
493.65335,493.84335,32,66,1
493.75336,493.85336,44,60,1
493.85336,494.04337,32,66,1
493.95337,494.05334,44,60,1
494.05334,494.24335,32,66,1
494.15335,494.25336,44,61,1
494.25336,494.44855,31,66,1
494.3561,494.45883,43,59,1
494.45883,494.65405,31,66,1
494.56158,494.6643,43,60,1
494.6643,494.85953,31,66,1
494.76706,494.86978,43,60,1
494.86978,495.08734,31,66,1
494.98428,495.09882,43,61,1
495.09882,496.06262,42,81,1
495.09882,496.06262,30,68,1
496.06262,498.06152,51,84,1
496.06262,498.06152,45,84,1
496.06262,498.06152,48,84,1
496.06262,498.06152,42,71,1
502.18652,502.5428,63,39,1
502.56152,503.68652,62,45,1
503.68652,504.10565,60,39,1
504.12772,507.41537,60,42,1
507.41537,508.91537,59,27,1
514.5404,514.9154,68,39,1
514.9154,516.0404,67,45,1
516.0404,516.4534,65,39,1
516.47516,519.7628,65,38,1
519.7628,521.2628,63,27,1
526.8878,527.2628,67,50,1
526.8878,527.2628,64,42,1
526.8878,527.2628,61,42,1
527.2628,528.4167,67,58,1
527.2628,528.4167,64,49,1
527.2628,528.4167,60,49,1
528.4167,528.8839,67,58,1
528.4167,528.8839,64,49,1
528.4167,528.8839,58,49,1
528.9085,532.10846,67,72,1
528.9085,532.10846,64,60,1
528.9085,532.10846,58,60,1
532.10846,533.7085,68,55,1
532.10846,533.7085,65,46,1
532.10846,533.7085,60,46,1
533.7085,535.3085,64,52,1
528.9085,535.3085,56,60,1
533.7085,535.3085,55,44,1
533.7085,535.3085,60,44,1
535.3085,536.9085,65,42,1
535.3085,536.9085,60,35,1
535.3085,536.9085,53,35,1
536.9085,538.5085,60,40,1
536.9085,538.5085,55,34,1
536.9085,538.5085,51,34,1
538.5085,540.10846,59,38,1
538.5085,540.10846,55,32,1
538.5085,540.10846,50,32,1
540.10846,541.716,60,36,1
540.10846,541.716,55,30,1
540.10846,541.716,48,30,1
541.716,543.43884,53,34,1
545.24835,547.12335,43,36,1
545.24835,547.12335,31,30,1
547.12335,550.5519,59,35,1
547.12335,550.5519,53,29,1
547.12335,550.5519,50,29,1
550.5519,550.74567,36,44,1
550.65424,550.7558,48,41,1
550.7558,550.94666,36,44,1
550.85657,550.95667,48,41,1
550.95667,551.14484,36,44,1
551.056,551.15466,48,41,1
551.15466,551.34033,36,45,1
551.2526,551.3501,48,41,1
551.3501,551.5352,36,45,1
551.4475,551.5449,48,46,1
551.5449,551.7276,36,47,1
551.6411,551.73724,48,47,1
551.73724,551.9199,36,49,1
551.8334,551.92957,48,50,1
551.92957,552.11523,36,51,1
552.0273,552.125,48,53,1
552.125,552.3219,36,55,1
552.22864,552.3323,48,50,1
552.3323,552.5174,36,53,1
552.42975,552.52716,48,47,1
552.52716,552.7123,36,53,1
552.6246,552.72205,48,47,1
552.72205,552.90717,36,44,1
552.81946,552.9169,48,40,1
552.9169,553.102,36,40,1
553.01434,553.11176,48,43,1
553.11176,553.29504,36,44,1
553.20825,553.3047,48,46,1
553.3047,553.488,36,48,1
553.4011,553.4976,48,50,1
553.4976,553.6809,36,52,1
553.59406,553.69055,48,54,1
553.69055,553.87897,36,63,1
553.78973,553.8889,48,57,1
553.8889,554.0753,36,62,1
553.987,554.08514,48,56,1
554.08514,554.2716,34,66,1
554.1833,554.28143,46,61,1
554.28143,554.4733,34,68,1
554.3824,554.4834,46,64,1
554.4834,554.67114,32,70,1
554.5822,554.681,44,72,1
554.681,554.8687,32,73,1
554.7798,554.8786,44,74,1
554.8786,555.06635,31,75,1
554.9774,555.07623,43,73,1
555.07623,555.2672,31,76,1
555.1767,555.2772,43,78,1
555.2772,555.482,42,93,1
555.2772,555.482,30,93,1
556.0964,556.29834,54,79,1
556.0964,556.29834,57,79,1
556.0964,556.29834,63,93,1
556.0964,556.29834,60,93,1
556.9044,557.11346,63,93,1
556.9044,557.11346,55,79,1
556.9044,557.11346,60,93,1
557.74066,557.9629,35,74,1
557.74066,557.9629,43,89,1
557.74066,557.9629,38,74,1
557.74066,557.9629,31,74,1
558.6296,558.85175,43,74,1
558.6296,558.85175,48,89,1
558.6296,558.85175,36,74,1
558.6296,558.85175,39,74,1
