start_time,end_time,note_value,velocity,instrument_program_number
62.220776,62.315342,81,48,1
62.315342,62.40904,79,35,1
62.40904,62.503696,81,38,1
62.503696,62.59613,79,35,1
62.59613,62.689182,81,38,1
62.689182,62.782555,79,36,1
62.782555,62.87376,81,40,1
62.87376,62.965065,79,36,1
62.965065,63.057384,81,40,1
63.057384,63.145264,79,36,1
63.145264,63.23647,81,40,1
63.23647,63.327057,79,36,1
63.327057,63.41785,81,40,1
63.41785,63.508648,79,37,1
63.508648,63.60234,81,40,1
63.60234,63.694458,79,36,1
63.694458,63.7872,81,40,1
63.7872,63.880466,79,36,1
63.880466,63.97228,81,40,1
63.97228,64.0643,79,35,1
64.0643,64.15863,81,38,1
64.15863,64.249725,79,33,1
64.249725,64.34216,81,38,1
64.34216,64.43439,79,34,1
64.43439,64.52438,81,38,1
64.52438,64.61351,79,34,1
64.61351,64.7039,81,36,1
64.7039,64.79245,79,33,1
64.79245,64.88325,81,37,1
64.88325,64.973755,79,33,1
64.973755,65.06567,81,37,1
65.06567,65.15739,79,33,1
65.15739,65.24971,81,38,1
65.24971,65.34091,79,32,1
65.34091,65.43397,81,37,1
65.43397,65.52619,79,32,1
65.52619,65.61833,81,38,1
65.61833,65.71045,79,32,1
65.71045,65.80404,81,37,1
65.80404,65.896675,79,32,1
65.896675,65.98965,81,36,1
65.98965,66.08239,79,32,1
66.08239,66.1775,81,36,1
66.1775,66.27496,79,34,1
66.27496,66.37006,81,37,1
66.37006,66.46651,79,33,1
66.46651,66.565414,81,36,1
66.565414,66.66622,79,32,1
66.66622,66.7684,81,36,1
66.7684,66.867516,79,32,1
66.867516,66.97284,81,37,1
66.97284,67.07455,79,33,1
67.07455,67.17637,81,38,1
67.17637,67.2783,79,33,1
67.2783,67.37497,81,39,1
67.37497,67.472664,79,35,1
67.472664,67.57154,81,40,1
67.57154,67.6682,79,36,1
67.6682,67.76684,81,40,1
67.76684,67.86217,79,36,1
67.86217,67.95388,81,40,1
67.95388,68.04539,79,37,1
68.04539,68.13907,81,40,1
68.13907,68.23087,79,36,1
68.23087,68.32435,81,40,1
68.32435,68.416885,79,36,1
68.416885,68.509315,81,39,1
68.509315,68.60398,79,36,1
68.60398,68.696304,81,38,1
68.696304,68.78811,79,32,1
68.78811,68.88106,81,37,1
68.88106,68.97369,79,33,1
68.97369,69.06329,81,39,1
69.06329,69.15251,79,32,1
69.15251,69.24332,81,36,1
69.24332,69.332924,79,31,1
69.332924,69.42293,81,36,1
69.42293,69.51474,79,30,1
69.51474,69.60706,81,36,1
69.60706,69.698456,79,31,1
69.698456,69.7913,81,36,1
69.7913,69.8828,79,34,1
69.8828,69.97542,78,36,1
69.97542,70.06722,79,31,1
194.03691,194.13147,81,48,1
194.13147,194.22517,79,35,1
194.22517,194.31982,81,38,1
194.31982,194.41226,79,35,1
194.41226,194.50531,81,38,1
194.50531,194.59868,79,36,1
194.59868,194.6899,81,40,1
194.6899,194.78119,79,36,1
194.78119,194.87352,81,40,1
194.87352,194.9614,79,36,1
194.9614,195.0526,81,40,1
195.0526,195.14319,79,36,1
195.14319,195.23398,81,40,1
195.23398,195.32478,79,37,1
195.32478,195.41847,81,40,1
195.41847,195.51059,79,36,1
195.51059,195.60333,81,40,1
195.60333,195.6966,79,36,1
195.6966,195.7884,81,40,1
195.7884,195.88043,79,35,1
195.88043,195.97476,81,38,1
195.97476,196.06586,79,33,1
196.06586,196.1583,81,38,1
196.1583,196.25052,79,34,1
196.25052,196.34052,81,38,1
196.34052,196.42964,79,34,1
196.42964,196.52003,81,36,1
196.52003,196.60858,79,33,1
196.60858,196.69939,81,37,1
196.69939,196.78989,79,33,1
196.78989,196.88179,81,37,1
196.88179,196.97351,79,33,1
196.97351,197.06584,81,38,1
197.06584,197.15704,79,32,1
197.15704,197.25009,81,37,1
197.25009,197.34233,79,32,1
197.34233,197.43446,81,38,1
197.43446,197.52658,79,32,1
197.52658,197.62016,81,37,1
197.62016,197.7128,79,32,1
197.7128,197.80577,81,36,1
197.80577,197.89851,79,32,1
197.89851,197.99364,81,36,1
197.99364,198.0911,79,34,1
198.0911,198.18619,81,37,1
198.18619,198.28264,79,33,1
198.28264,198.38155,81,36,1
198.38155,198.48235,79,32,1
198.48235,198.58453,81,36,1
198.58453,198.68364,79,32,1
198.68364,198.78897,81,37,1
198.78897,198.89067,79,33,1
198.89067,198.9925,81,38,1
198.9925,199.09442,79,33,1
199.09442,199.1911,81,39,1
199.1911,199.28879,79,35,1
199.28879,199.38766,81,40,1
199.38766,199.48433,79,36,1
199.48433,199.58296,81,40,1
199.58296,199.6783,79,36,1
199.6783,199.77,81,40,1
199.77,199.86151,79,37,1
199.86151,199.9552,81,40,1
199.9552,200.04701,79,36,1
200.04701,200.14049,81,40,1
200.14049,200.23302,79,36,1
200.23302,200.32545,81,39,1
200.32545,200.4201,79,36,1
200.4201,200.51244,81,38,1
200.51244,200.60423,79,32,1
200.60423,200.69719,81,37,1
200.69719,200.78981,79,33,1
200.78981,200.87943,81,39,1
200.87943,200.96864,79,32,1
200.96864,201.05945,81,36,1
201.05945,201.14905,79,31,1
201.14905,201.23906,81,36,1
201.23906,201.33087,79,30,1
201.33087,201.42319,81,36,1
201.42319,201.51459,79,31,1
201.51459,201.60742,81,36,1
201.60742,201.69893,79,34,1
201.69893,201.79155,78,36,1
201.79155,201.88335,79,31,1
387.1659,387.26044,81,48,1
387.26044,387.35416,79,35,1
387.35416,387.4488,81,38,1
387.4488,387.54123,79,35,1
387.54123,387.63428,81,38,1
387.63428,387.72766,79,36,1
387.72766,387.81888,81,40,1
387.81888,387.9102,79,36,1
387.9102,388.0025,81,40,1
388.0025,388.09036,79,36,1
388.09036,388.18158,81,40,1
388.18158,388.27216,79,36,1
388.27216,388.36295,81,40,1
388.36295,388.45377,79,37,1
388.45377,388.54745,81,40,1
388.54745,388.63956,79,36,1
388.63956,388.7323,81,40,1
388.7323,388.82556,79,36,1
388.82556,388.9174,81,40,1
388.9174,389.0094,79,35,1
389.0094,389.10373,81,38,1
389.10373,389.19482,79,33,1
389.19482,389.28726,81,38,1
389.28726,389.3795,79,34,1
389.3795,389.46948,81,38,1
389.46948,389.55862,79,34,1
389.55862,389.64902,81,36,1
389.64902,389.73755,79,33,1
389.73755,389.82837,81,37,1
389.82837,389.91885,79,33,1
389.91885,390.01077,81,37,1
390.01077,390.10248,79,33,1
390.10248,390.19482,81,38,1
390.19482,390.286,79,32,1
390.286,390.3791,81,37,1
390.3791,390.4713,79,32,1
390.4713,390.56345,81,38,1
390.56345,390.65555,79,32,1
390.65555,390.74915,81,37,1
390.74915,390.84177,79,32,1
390.84177,390.93475,81,36,1
390.93475,391.0275,79,32,1
391.0275,391.12262,81,36,1
391.12262,391.22006,79,34,1
391.22006,391.31516,81,37,1
391.31516,391.41162,79,33,1
391.41162,391.51053,81,36,1
391.51053,391.61133,79,32,1
391.61133,391.7135,81,36,1
391.7135,391.81262,79,32,1
391.81262,391.91794,81,37,1
391.91794,392.01965,79,33,1
392.01965,392.12146,81,38,1
392.12146,392.22342,79,33,1
392.22342,392.32007,81,39,1
392.32007,392.4178,79,35,1
392.4178,392.51663,81,40,1
392.51663,392.6133,79,36,1
392.6133,392.71194,81,40,1
392.71194,392.80728,79,36,1
392.80728,392.899,81,40,1
392.899,392.99048,79,37,1
392.99048,393.08417,81,40,1
393.08417,393.176,79,36,1
393.176,393.26947,81,40,1
393.26947,393.362,79,36,1
393.362,393.45444,81,39,1
393.45444,393.54907,79,36,1
393.54907,393.64142,81,38,1
393.64142,393.73322,79,32,1
393.73322,393.82617,81,37,1
393.82617,393.9188,79,33,1
393.9188,394.0084,81,39,1
394.0084,394.09763,79,32,1
394.09763,394.18842,81,36,1
394.18842,394.278,79,31,1
394.278,394.36804,81,36,1
394.36804,394.45984,79,30,1
394.45984,394.55215,81,36,1
394.55215,394.64355,79,31,1
394.64355,394.7364,81,36,1
394.7364,394.8279,79,34,1
394.8279,394.92053,78,36,1
394.92053,395.01233,79,31,1
525.6723,525.741,79,54,1
525.741,525.8094,81,35,1
525.8094,525.8775,79,44,1
525.8775,525.94525,81,38,1
525.94525,526.01276,79,44,1
526.01276,526.0799,81,37,1
526.0799,526.1468,79,41,1
526.1468,526.2137,81,36,1
526.2137,526.2806,79,41,1
526.2806,526.3475,81,37,1
526.3475,526.4143,79,41,1
526.4143,526.4812,81,35,1
526.4812,526.5481,79,41,1
526.5481,526.615,81,37,1
526.615,526.68164,79,41,1
526.68164,526.7483,81,36,1
526.7483,526.81476,79,41,1
526.81476,526.88116,81,36,1
526.88116,526.9474,79,41,1
526.9474,527.0136,81,37,1
527.0136,527.0796,79,41,1
527.0796,527.14557,81,37,1
527.14557,527.21136,79,41,1
527.21136,527.27716,81,36,1
527.27716,527.3415,79,41,1
527.3415,527.4071,81,36,1
527.4071,527.4721,79,41,1
527.4721,527.5373,81,37,1
527.5373,527.60156,79,41,1
527.60156,527.66583,81,37,1
527.66583,527.7321,79,41,1
527.7321,527.7969,81,36,1
527.7969,527.86304,79,41,1
527.86304,527.92993,81,37,1
527.92993,527.9944,79,41,1
527.9944,528.0588,81,36,1
528.0588,528.1234,79,40,1
528.1234,528.18945,81,36,1
528.18945,528.255,79,39,1
528.255,528.31903,81,35,1
528.31903,528.3835,79,39,1
528.3835,528.4488,81,35,1
528.4488,528.5145,79,39,1
528.5145,528.58044,81,35,1
528.58044,528.6466,79,39,1
528.6466,528.7131,81,35,1
528.7131,528.7797,79,39,1
528.7797,528.8466,81,35,1
528.8466,528.91315,79,36,1
528.91315,528.9789,81,32,1
528.9789,529.04626,79,35,1
529.04626,529.11273,81,31,1
529.11273,529.1797,79,35,1
529.1797,529.2469,81,31,1
529.2469,529.313,79,35,1
529.313,529.3797,81,31,1
529.3797,529.4464,79,35,1
529.4464,529.5113,81,31,1
529.5113,529.5761,79,35,1
529.5761,529.6422,81,31,1
529.6422,529.70715,79,36,1
529.70715,529.7718,81,32,1
529.7718,529.8381,79,35,1
529.8381,529.9034,81,31,1
529.9034,529.96814,79,35,1
529.96814,530.03436,81,31,1
530.03436,530.10034,79,35,1
530.10034,530.1649,81,31,1
530.1649,530.2307,79,35,1
530.2307,530.29584,81,31,1
530.29584,530.3606,79,35,1
530.3606,530.4262,81,31,1
530.4262,530.4904,79,36,1
530.4904,530.5557,81,32,1
530.5557,530.6218,79,35,1
530.6218,530.6866,81,32,1
530.6866,530.7524,79,36,1
530.7524,530.8185,81,32,1
530.8185,530.8832,79,37,1
530.8832,530.9493,81,33,1
530.9493,531.01526,79,38,1
531.01526,531.0798,81,34,1
531.0798,531.1436,79,39,1
531.1436,531.2084,81,35,1
531.2084,531.27435,79,41,1
531.27435,531.339,81,37,1
531.339,531.4041,79,40,1
531.4041,531.4684,81,36,1
531.4684,531.53204,79,42,1
531.53204,531.597,81,37,1
531.597,531.663,79,42,1
531.663,531.7291,81,38,1
531.7291,531.79456,79,43,1
531.79456,531.8598,81,39,1
531.8598,531.92633,79,44,1
531.92633,531.9924,81,39,1
531.9924,532.05927,79,46,1
532.05927,532.12573,81,31,1
532.12573,532.1934,79,33,1
532.1934,532.26135,81,29,1
532.26135,532.32825,79,32,1
532.32825,532.39496,81,28,1
532.39496,532.46295,79,31,1
532.46295,532.5308,81,27,1
532.5308,532.5975,79,31,1
532.5975,532.6633,81,27,1
532.6633,532.7303,79,31,1
532.7303,532.7981,81,27,1
532.7981,532.8659,79,32,1
532.8659,532.9324,81,28,1
532.9324,532.9987,79,31,1
532.9987,533.0668,81,27,1
533.0668,533.1348,79,31,1
533.1348,533.20233,81,27,1
533.20233,533.2694,79,31,1
533.2694,533.3363,81,27,1
533.3363,533.40424,79,31,1
533.40424,533.4716,81,27,1
533.4716,533.5397,79,31,1
533.5397,533.6068,81,27,1
533.6068,533.6733,79,37,1
533.6733,533.7394,81,28,1
533.7394,533.8066,79,34,1
533.8066,533.87286,81,28,1
533.87286,533.93835,79,34,1
533.93835,534.0051,81,28,1
534.0724,534.13934,81,27,1
534.13934,534.2073,79,31,1
534.2073,534.2756,81,27,1
534.2756,534.3426,79,31,1
534.3426,534.40985,81,27,1
534.40985,534.4774,79,32,1
534.4774,534.54425,81,28,1
534.54425,534.6116,79,31,1
534.6116,534.67975,81,27,1
534.67975,534.74695,79,31,1
534.74695,534.8143,81,27,1
534.8143,534.88257,79,31,1
534.88257,534.9505,81,27,1
534.9505,535.01746,79,31,1
535.01746,535.08514,81,27,1
535.08514,535.1537,79,31,1
535.1537,535.22125,81,27,1
535.22125,535.2886,79,36,1
535.2886,535.35504,81,31,1
535.35504,535.4228,79,33,1
535.4228,535.49066,81,29,1
535.49066,535.5576,79,32,1
535.5576,535.6243,81,28,1
535.6243,535.6923,79,31,1
535.6923,535.76013,81,27,1
535.76013,535.8268,79,31,1
535.8268,535.8927,81,27,1
535.8927,535.95966,79,31,1
535.95966,536.02747,81,27,1
536.02747,536.0953,79,32,1
536.0953,536.16174,81,28,1
536.16174,536.2281,79,31,1
536.2281,536.29614,81,27,1
536.29614,536.3642,79,31,1
536.3642,536.43164,81,27,1
536.43164,536.4987,79,31,1
536.4987,536.5657,81,27,1
536.5657,536.63354,79,31,1
536.63354,536.701,81,27,1
536.701,536.769,79,31,1
536.769,536.8362,81,27,1
536.8362,536.90265,79,32,1
536.90265,536.96875,81,28,1
536.96875,537.03595,79,31,1
537.03595,537.10223,81,27,1
537.10223,537.1677,79,31,1
537.1677,537.23444,81,27,1
537.23444,537.30176,79,31,1
537.30176,537.3687,81,27,1
537.3687,537.43665,79,31,1
537.43665,537.50494,81,27,1
537.50494,537.57196,79,31,1
537.57196,537.6392,81,27,1
537.6392,537.7064,79,32,1
537.7064,537.7731,81,28,1
537.7731,537.84064,79,32,1
537.84064,537.9079,81,28,1
537.9079,537.97516,79,34,1
537.97516,538.0436,81,30,1
538.0436,538.1118,79,35,1
538.1118,538.17926,81,31,1
538.17926,538.2475,79,36,1
538.2475,538.31616,81,32,1
538.31616,538.3841,79,38,1
538.3841,538.4515,81,34,1
538.4515,538.51886,80,46,1
538.51886,538.5853,79,31,1
538.5853,538.6531,80,33,1
538.6531,538.72095,79,29,1
538.72095,538.7879,80,32,1
538.7879,538.8546,79,28,1
538.8546,538.9226,80,31,1
538.9226,538.9904,79,27,1
538.9904,539.05707,80,31,1
539.05707,539.123,79,27,1
539.123,539.18994,80,31,1
539.18994,539.25775,79,27,1
539.25775,539.32556,80,32,1
539.32556,539.392,79,28,1
539.392,539.4584,80,31,1
539.4584,539.5264,79,27,1
539.5264,539.5945,80,31,1
539.5945,539.6619,79,27,1
539.6619,539.729,80,31,1
539.729,539.79596,79,27,1
539.79596,539.86383,80,31,1
539.86383,539.9313,79,27,1
539.9313,539.99927,80,31,1
539.99927,540.06647,79,27,1
540.06647,540.13293,80,37,1
540.13293,540.19904,79,28,1
540.19904,540.26624,80,34,1
540.26624,540.3325,79,28,1
540.3325,540.398,80,34,1
540.398,540.4647,79,28,1
540.4647,540.53204,80,31,1
540.53204,540.599,79,27,1
540.599,540.66693,80,31,1
540.66693,540.7352,79,27,1
540.7352,540.80225,80,31,1
540.80225,540.8695,79,27,1
540.8695,540.9374,80,32,1
540.9374,541.00415,79,28,1
541.00415,541.0714,80,31,1
541.0714,541.13947,79,27,1
541.13947,541.20667,80,31,1
541.20667,541.2734,79,27,1
541.2734,541.3412,80,31,1
541.3412,541.4092,79,27,1
541.4092,541.4771,80,31,1
541.4771,541.54596,79,27,1
541.54596,541.6176,77,31,1
541.6176,541.6931,79,27,1
541.6931,541.7605,80,36,1
541.7605,541.82697,82,31,1
541.82697,541.89465,80,33,1
541.89465,541.9626,82,29,1
541.9626,542.0295,80,32,1
542.0295,542.0962,82,28,1
542.0962,542.1642,75,31,1
542.1642,542.23206,77,27,1
542.23206,542.2987,75,31,1
542.2987,542.36456,77,27,1
542.36456,542.4315,75,31,1
542.4315,542.4993,77,27,1
542.4993,542.56714,75,32,1
542.56714,542.6336,77,28,1
542.6336,542.69995,75,31,1
542.69995,542.768,77,27,1
542.768,542.83606,75,31,1
542.83606,542.90356,77,27,1
542.90356,542.97064,75,31,1
542.97064,543.03754,77,27,1
543.03754,543.10547,75,31,1
543.10547,543.17285,77,27,1
543.17285,543.2409,75,31,1
543.2409,543.30804,77,27,1
543.30804,543.3745,75,32,1
543.3745,543.4406,77,28,1
543.4406,543.5078,75,31,1
543.5078,543.5741,77,27,1
543.5741,543.6396,75,31,1
543.6396,543.7063,77,27,1
543.7063,543.7736,75,31,1
543.7736,543.8406,77,27,1
543.8406,543.9085,75,31,1
543.9085,543.9768,77,27,1
543.9768,544.0438,75,31,1
544.0438,544.1111,77,27,1
544.1111,544.17834,75,32,1
544.17834,544.2457,77,28,1
544.2457,544.3142,75,32,1
544.3142,544.3821,77,28,1
544.3821,544.44916,75,34,1
544.44916,544.51733,77,30,1
544.51733,544.58594,76,35,1
544.58594,544.6532,77,31,1
544.6532,544.7202,76,36,1
544.7202,544.77106,77,32,1
544.77106,544.8219,76,38,1
544.8219,544.8728,77,34,1
544.8685,544.9194,76,34,1
544.92365,544.99097,77,36,1
544.99097,545.05743,79,31,1
545.05743,545.1251,77,33,1
545.1251,545.19305,79,29,1
545.19305,545.25995,77,32,1
545.25995,545.3267,79,28,1
545.3267,545.3947,73,31,1
545.3947,545.4625,72,27,1
545.4625,545.5292,73,31,1
545.5292,545.59503,72,27,1
545.59503,545.66205,73,31,1
545.66205,545.72986,72,27,1
545.72986,545.7976,73,32,1
545.7976,545.86414,72,28,1
545.86414,545.9305,73,31,1
545.9305,545.9985,72,27,1
545.9985,546.0666,73,31,1
546.0666,546.13403,72,27,1
546.13403,546.2011,73,31,1
546.2011,546.268,72,27,1
546.268,546.33594,73,31,1
546.33594,546.4034,72,27,1
546.4034,546.4714,73,31,1
546.4714,546.5386,72,27,1
546.5386,546.60504,73,32,1
546.60504,546.67114,72,28,1
546.67114,546.7383,73,31,1
546.7383,546.8046,72,27,1
546.8046,546.87006,73,31,1
546.87006,546.9368,72,27,1
546.9368,547.00415,73,31,1
547.00415,547.0711,72,27,1
547.0711,547.13904,73,31,1
547.13904,547.20734,72,27,1
547.20734,547.27435,73,31,1
547.27435,547.3416,72,27,1
547.3416,547.4089,73,32,1
547.4089,547.4762,72,28,1
547.4762,547.54474,73,32,1
547.54474,547.61255,72,28,1
547.61255,547.6797,73,34,1
547.6797,547.74786,72,30,1
547.74786,547.8164,73,35,1
547.8164,547.8837,72,29,1
547.8837,547.9507,73,34,1
547.9507,548.0185,72,29,1
548.0185,548.0863,73,34,1
548.0863,548.1541,72,28,1
548.1541,548.22076,73,32,1
548.22076,548.28687,72,28,1
548.28687,548.35406,73,31,1
548.35406,548.42035,72,27,1
548.42035,548.48584,73,31,1
548.48584,548.55255,72,27,1
548.55255,548.6199,73,31,1
548.6199,548.6868,72,27,1
548.6868,548.75476,73,31,1
548.75476,548.82306,72,27,1
548.82306,548.8901,73,31,1
548.8901,548.95734,72,27,1
548.95734,549.0246,73,32,1
549.0246,549.092,72,28,1
549.092,549.16046,73,32,1
549.16046,549.2283,72,28,1
549.2283,549.2954,73,34,1
549.2954,549.3636,72,30,1
549.3636,549.4321,73,34,1
549.4321,549.49945,72,29,1
549.49945,549.5664,73,34,1
549.5664,549.6342,72,28,1
549.6342,549.702,73,34,1
549.702,549.76984,72,29,1
549.76984,549.83765,74,32,1
549.83765,549.90546,72,28,1
549.90546,549.97327,74,32,1
549.97327,550.0411,72,28,1
550.0411,550.10895,74,34,1
550.10895,550.17676,72,30,1
550.17676,550.24457,74,33,1
550.24457,550.3124,72,28,1
550.3124,550.3802,74,35,1
550.3802,550.448,72,28,1
550.448,550.5158,74,34,1
550.5158,550.5835,72,30,1
550.5835,550.6508,74,33,1
550.6508,550.7181,72,29,1
550.7181,550.7852,74,33,1
550.7852,550.8523,72,29,1
550.8523,550.9191,74,36,1
550.9191,550.98596,72,32,1
550.98596,551.0526,74,37,1
551.0526,551.1192,72,33,1
551.1192,551.1856,74,36,1
551.1856,551.25195,72,31,1
551.25195,551.3182,74,37,1
551.3182,551.3843,72,31,1
551.3843,551.44995,74,35,1
551.44995,551.5149,72,30,1
551.5149,551.5811,74,35,1
551.5811,551.6473,72,31,1
551.6473,551.7125,74,37,1
551.7125,551.7776,72,33,1
551.7776,551.844,74,39,1
551.844,551.90936,72,34,1
551.90936,551.97406,74,39,1
551.97406,552.0395,72,36,1
552.0395,552.1054,74,39,1
552.1054,552.1712,72,35,1
552.1712,552.23615,74,36,1
552.23615,552.3013,72,32,1
552.3013,552.3668,74,36,1
552.3668,552.4333,72,32,1
552.4333,552.49945,74,39,1
552.49945,552.565,72,35,1
552.565,552.63,74,40,1
552.63,552.69495,72,36,1
552.69495,552.7607,74,40,1
552.7607,552.8103,72,35,1
552.8103,552.85944,74,40,1
552.85944,552.9081,72,34,1
552.9081,552.957,74,34,1
552.957,553.0228,72,38,1
553.0228,553.08826,74,33,1
553.08826,553.154,76,39,1
553.154,553.21875,74,34,1
553.21875,553.2826,76,42,1
553.2826,553.3468,74,37,1
553.3468,553.4121,76,44,1
553.4121,553.47797,74,39,1
553.47797,553.5431,76,43,1
553.5431,553.6075,74,37,1
553.6075,553.672,76,45,1
553.672,553.73737,74,40,1
553.73737,553.8031,76,42,1
553.8031,553.86774,74,37,1
553.86774,553.93164,76,42,1
553.93164,553.99524,74,37,1
553.99524,554.05994,76,46,1
554.05994,554.1254,74,41,1
554.1254,554.1909,76,48,1
554.1909,554.2558,74,43,1
554.2558,554.32,76,49,1
554.32,554.3843,74,40,1
554.3843,554.4514,76,49,1
554.4514,554.5185,74,42,1
554.5185,554.58264,76,46,1
554.58264,554.64667,74,40,1
554.64667,554.71155,76,47,1
554.71155,554.7759,74,41,1
554.7759,554.8401,76,49,1
554.8401,554.9055,74,45,1
554.9055,554.9705,76,52,1
554.9705,555.0346,74,47,1
555.0346,555.0992,76,53,1
555.0992,555.1641,74,43,1
555.1641,555.22876,76,52,1
555.22876,555.2938,74,53,1
555.2938,555.3584,76,50,1
555.3584,555.4226,74,44,1
555.4226,555.4868,76,50,1
555.4868,555.5514,74,44,1
555.5514,555.6173,76,54,1
555.6173,555.6832,74,48,1
555.6832,555.7482,76,58,1
555.7482,555.8124,74,47,1
555.8124,555.8762,76,56,1
555.8762,555.9417,74,48,1
555.9417,556.007,76,58,1
556.007,556.07184,74,48,1
0.16412242,0.32749835,52,28,1
0.32749835,0.48910818,55,30,1
0.48910818,0.6489954,60,32,1
0.6489954,0.8074739,64,34,1
0.8074739,0.9659524,52,31,1
0.9659524,1.1244309,55,31,1
1.1244309,1.2829094,60,31,1
1.2829094,1.4349467,64,35,1
1.4349467,1.5869839,52,30,1
1.5869839,1.7390212,55,31,1
1.7390212,1.8910584,60,33,1
1.8910584,2.0430956,64,36,1
2.0430956,2.195133,52,33,1
2.195133,2.34717,55,33,1
2.34717,2.4992075,60,33,1
2.642515,2.7858224,53,28,1
2.7858224,2.9291298,55,31,1
2.9291298,3.0724375,59,33,1
3.0724375,3.221454,62,36,1
3.221454,3.3704705,53,33,1
3.3704705,3.519487,55,33,1
3.519487,3.6685035,59,34,1
3.822729,3.976955,52,28,1
3.976955,4.131181,55,30,1
4.131181,4.2854066,60,32,1
4.2854066,4.439632,64,34,1
4.439632,4.593858,52,32,1
4.593858,4.7480836,55,32,1
4.7480836,4.900822,60,33,1
5.056092,5.209823,52,28,1
5.209823,5.362278,55,30,1
5.362278,5.5132403,60,32,1
5.5132403,5.662986,64,34,1
5.662986,5.8127313,52,31,1
5.8127313,5.9624767,55,31,1
5.9624767,6.112222,60,31,1
6.112222,6.258421,64,35,1
6.258421,6.4046197,52,30,1
6.4046197,6.5508184,55,31,1
6.5508184,6.697017,60,33,1
6.697017,6.843216,64,36,1
6.843216,6.9894147,52,33,1
6.9894147,7.1356134,55,33,1
7.1356134,7.281812,60,33,1
7.422025,7.562238,53,28,1
7.562238,7.702451,55,31,1
7.702451,7.8426642,59,33,1
7.8426642,7.988863,62,36,1
7.988863,8.135061,53,33,1
8.135061,8.2812605,55,33,1
8.2812605,8.427459,59,34,1
8.72695,8.876696,52,30,1
8.876696,9.026442,55,32,1
9.026442,9.176187,60,34,1
9.176187,9.3259325,64,32,1
9.3259325,9.4756775,62,32,1
9.4756775,9.626144,60,33,1
9.626144,9.783509,59,35,1
9.783509,9.935965,55,28,1
9.935965,10.086438,59,30,1
10.086438,10.23474,62,32,1
10.23474,10.382319,67,34,1
10.382319,10.5299,55,31,1
10.5299,10.677479,59,31,1
10.677479,10.825059,62,31,1
10.825059,10.968531,67,35,1
10.968531,11.112003,55,30,1
11.112003,11.255475,59,31,1
11.255475,11.398947,62,33,1
11.398947,11.5424185,67,36,1
11.5424185,11.685891,55,33,1
11.685891,11.829363,59,33,1
11.829363,11.972835,67,33,1
12.110538,12.24824,55,28,1
12.24824,12.385944,60,31,1
12.385944,12.523647,67,33,1
12.667119,12.810591,55,28,1
12.810591,12.954062,64,31,1
12.954062,13.097535,67,33,1
13.243039,13.388543,55,28,1
13.388543,13.534047,62,30,1
13.534047,13.679551,67,32,1
13.825055,13.970559,55,28,1
13.970559,14.116063,59,30,1
14.116063,14.266529,67,32,1
14.423894,14.576349,55,28,1
14.576349,14.726824,59,30,1
14.726824,14.875125,62,32,1
14.875125,15.022705,67,34,1
15.022705,15.170284,55,31,1
15.170284,15.317864,59,31,1
15.317864,15.465445,62,31,1
15.465445,15.605031,67,35,1
15.605031,15.744617,55,30,1
15.744617,15.884205,59,31,1
15.884205,16.02379,62,33,1
16.02379,16.163378,67,36,1
16.163378,16.302965,55,33,1
16.302965,16.44255,59,33,1
16.44255,16.582138,67,33,1
16.71802,16.8539,55,28,1
16.8539,16.989784,60,31,1
16.989784,17.125666,67,33,1
17.264605,17.403545,55,28,1
17.403545,17.542486,63,31,1
17.542486,17.681427,67,33,1
17.826931,17.972435,55,28,1
17.972435,18.117939,62,30,1
18.117939,18.263443,67,32,1
18.408947,18.554451,55,28,1
18.554451,18.699955,59,30,1
18.699955,18.845459,67,32,1
18.98134,19.117222,55,28,1
19.117222,19.253103,60,31,1
19.253103,19.388985,67,33,1
19.527925,19.666866,55,28,1
19.666866,19.805805,64,31,1
19.805805,19.944746,67,33,1
20.09025,20.235754,55,28,1
20.235754,20.381258,62,30,1
20.381258,20.526762,67,32,1
20.672266,20.81777,55,28,1
20.81777,20.963274,59,30,1
20.963274,21.108778,67,32,1
21.24466,21.38054,55,28,1
21.38054,21.516424,60,31,1
21.516424,21.652306,67,33,1
21.791245,21.930185,55,28,1
21.930185,22.069126,60,31,1
22.069126,22.208067,63,33,1
22.35357,22.499075,55,28,1
22.499075,22.644579,59,30,1
22.644579,22.790083,62,32,1
22.934216,23.07835,55,28,1
23.07835,23.222483,60,30,1
23.222483,23.366617,63,32,1
23.510752,23.654884,55,28,1
23.654884,23.799019,59,30,1
23.799019,23.943151,62,32,1
24.087286,24.23142,55,28,1
24.23142,24.375553,60,30,1
24.375553,24.519688,63,32,1
24.664047,24.808865,55,28,1
24.808865,24.954369,59,30,1
24.954369,25.100334,62,32,1
25.247002,25.394129,55,28,1
25.394129,25.541708,57,30,1
25.541708,25.690018,60,32,1
25.837154,25.983122,55,36,1
25.983122,26.128626,59,38,1
26.128626,26.273441,62,35,1
26.273441,26.417803,67,43,1
26.417803,26.561716,71,39,1
26.561716,26.704966,69,41,1
26.704966,26.847769,66,38,1
26.847769,26.989922,67,43,1
26.989922,27.131636,59,38,1
27.131636,27.272915,62,41,1
27.272915,27.41355,67,38,1
27.41355,27.553762,71,46,1
27.553762,27.693975,74,41,1
27.693975,27.834188,72,41,1
27.834188,27.974401,69,37,1
27.974401,28.114614,71,47,1
28.114614,28.254827,67,42,1
28.254827,28.39504,71,47,1
28.39504,28.535254,74,43,1
28.535254,28.675467,79,51,1
28.675467,28.81568,83,46,1
28.81568,28.955893,81,48,1
28.955893,29.096106,78,43,1
29.096106,29.236319,79,52,1
29.236319,29.376532,83,52,1
29.376532,29.516745,81,53,1
29.516745,29.656654,84,54,1
29.656654,29.796398,83,55,1
29.796398,29.93723,86,56,1
29.93723,30.078959,85,56,1
30.078959,30.221811,88,57,1
30.221811,30.365807,86,58,1
30.365807,30.509344,89,59,1
30.509344,30.652424,88,60,1
30.652424,30.795052,91,56,1
30.795052,30.937002,89,61,1
30.937002,31.078508,93,62,1
31.078508,31.219564,89,63,1
31.219564,31.360172,88,59,1
31.360172,31.500137,86,65,1
31.500137,31.640102,89,66,1
31.640102,31.780066,88,66,1
31.780066,31.92003,91,64,1
31.92003,32.059994,89,68,1
32.059994,32.19996,93,69,1
32.19996,32.339924,89,70,1
32.339924,32.47989,88,66,1
32.47989,32.619854,86,69,1
32.619854,32.75982,89,65,1
32.75982,32.89978,88,67,1
32.89978,33.039745,84,60,1
33.039745,33.17971,83,64,1
33.17971,33.319675,86,59,1
33.319675,33.45964,84,62,1
33.45964,33.599606,81,55,1
33.599606,33.74021,79,59,1
33.74021,33.881496,83,54,1
33.881496,34.023445,81,56,1
34.023445,34.166073,77,51,1
34.166073,34.308926,76,54,1
34.308926,34.45269,79,46,1
34.45269,34.59809,77,49,1
34.59809,34.744915,74,42,1
34.744915,34.90311,72,49,1
35.365276,35.666298,79,50,1
35.365276,35.666298,91,50,1
35.967323,36.823082,79,54,1
35.967323,36.823082,91,54,1
36.823082,37.108334,76,47,1
36.823082,37.108334,88,47,1
37.108334,37.66041,74,50,1
37.108334,37.66041,86,50,1
37.66041,38.228218,67,41,1
37.66041,38.228218,79,41,1
38.228218,38.810234,72,50,1
38.228218,38.810234,84,50,1
38.810234,39.101242,76,47,1
38.810234,39.101242,88,47,1
40.004326,40.299484,79,50,1
40.004326,40.299484,91,50,1
40.594646,41.432167,79,54,1
40.594646,41.432167,91,54,1
41.432167,41.711338,76,47,1
41.432167,41.711338,88,47,1
41.711338,42.254868,74,50,1
41.711338,42.254868,86,50,1
42.254868,42.810627,67,41,1
42.254868,42.810627,79,41,1
42.810627,43.101635,72,50,1
42.810627,43.101635,84,50,1
44.58822,44.883377,77,50,1
44.58822,44.883377,89,50,1
45.178535,46.016056,77,54,1
45.178535,46.016056,89,54,1
46.016056,46.29523,74,47,1
46.016056,46.29523,86,47,1
46.29523,46.838757,76,50,1
46.29523,46.838757,88,50,1
46.838757,47.39452,72,41,1
46.838757,47.39452,84,41,1
47.39452,47.976536,71,50,1
47.39452,47.976536,83,50,1
47.976536,48.267544,74,47,1
47.976536,48.267544,86,47,1
49.172108,49.46727,77,50,1
49.172108,49.46727,89,50,1
49.76243,50.59995,77,54,1
49.76243,50.59995,89,54,1
50.59995,50.879124,74,47,1
50.59995,50.879124,86,47,1
50.879124,51.42265,75,50,1
50.879124,51.42265,87,50,1
51.42265,51.97841,72,41,1
51.42265,51.97841,84,41,1
51.97841,52.560425,71,50,1
51.97841,52.560425,83,50,1
52.560425,53.14244,74,47,1
52.560425,53.14244,86,47,1
53.14244,53.68597,76,50,1
53.14244,53.68597,88,50,1
53.68597,54.24173,72,42,1
53.68597,54.24173,84,42,1
54.24173,54.823746,71,53,1
54.24173,54.823746,83,53,1
54.823746,55.40576,74,52,1
54.823746,55.40576,86,52,1
55.40576,55.949287,75,50,1
55.40576,55.949287,87,50,1
55.949287,56.50505,72,41,1
55.949287,56.50505,84,41,1
56.50505,57.087067,79,50,1
57.087067,57.6636,79,47,1
57.6636,57.760605,81,33,1
57.760605,57.857605,79,33,1
57.857605,57.95461,81,33,1
57.95461,58.051613,79,33,1
58.051613,58.148613,81,34,1
58.148613,58.245617,79,34,1
58.245617,58.34216,81,35,1
58.34216,58.438705,79,35,1
58.438705,58.535248,81,35,1
58.535248,58.63179,79,35,1
58.63179,58.728336,81,36,1
58.728336,58.824425,79,36,1
58.824425,58.920513,81,37,1
58.920513,59.0166,79,37,1
59.0166,59.11225,81,37,1
59.11225,59.207897,79,39,1
59.207897,59.30332,81,39,1
59.30332,59.398525,79,39,1
59.398525,59.49373,81,39,1
59.49373,59.588497,79,39,1
59.588497,59.683266,81,41,1
59.683266,59.777813,79,41,1
59.777813,59.872147,81,41,1
59.872147,59.966476,79,41,1
59.966476,60.06006,81,42,1
60.06006,60.15228,79,42,1
60.15228,60.24672,81,42,1
60.24672,60.339474,79,42,1
60.339474,60.432743,81,42,1
60.432743,60.52751,79,44,1
60.52751,60.620247,81,44,1
60.620247,60.713722,79,44,1
60.713722,60.808384,81,45,1
60.808384,60.90112,79,45,1
60.90112,60.99439,81,45,1
60.99439,61.089157,79,46,1
61.089157,61.18296,81,46,1
61.18296,61.275696,79,47,1
61.275696,61.369385,81,47,1
61.369385,61.46201,79,48,1
61.46201,61.55538,81,49,1
61.55538,61.649277,79,49,1
61.649277,61.743176,81,49,1
61.743176,61.837505,79,49,1
61.837505,61.93249,81,50,1
61.93249,62.027916,79,50,1
62.027916,62.124004,81,51,1
62.124004,62.220776,79,51,1
62.782555,63.057384,91,89,1
63.327057,64.15863,91,90,1
64.15863,64.43439,88,85,1
64.43439,64.973755,86,90,1
64.973755,65.054245,79,84,1
65.52619,66.08239,84,87,1
66.08239,66.37006,88,84,1
67.2783,67.57154,91,90,1
67.86217,68.696304,91,92,1
68.696304,68.97369,88,84,1
68.97369,69.51474,86,90,1
69.51474,69.59559,79,82,1
70.06722,70.34812,84,86,1
70.62902,70.72266,60,68,1
70.72266,70.816284,64,62,1
70.816284,70.90992,60,62,1
70.90992,71.003555,55,62,1
71.003555,71.09718,52,62,1
71.09718,71.19082,55,62,1
71.19082,71.283134,60,68,1
71.283134,71.37546,65,62,1
71.37546,71.46777,60,62,1
71.46777,71.5601,57,62,1
71.5601,71.65241,53,62,1
71.65241,71.744736,57,62,1
71.744736,71.83705,60,68,1
71.83705,71.929375,64,61,1
71.929375,72.02169,60,61,1
72.02169,72.114006,55,61,1
72.114006,72.20633,52,61,1
72.20633,72.298645,55,61,1
72.298645,72.39097,60,63,1
72.39097,72.483284,62,59,1
72.483284,72.57561,60,59,1
72.57561,72.66792,53,59,1
72.66792,72.76024,50,59,1
72.76024,72.85256,53,59,1
72.85256,72.9462,60,68,1
72.9462,73.039825,63,61,1
73.039825,73.13346,60,61,1
73.13346,73.2271,54,61,1
73.2271,73.320724,51,61,1
73.320724,73.41436,54,61,1
73.41436,73.507996,60,68,1
73.507996,73.60162,64,62,1
73.60162,73.69526,60,62,1
73.69526,73.788895,55,62,1
73.788895,73.88252,52,62,1
73.88252,73.97616,55,62,1
73.97616,74.07069,59,68,1
74.07069,74.16521,62,61,1
74.16521,74.259735,59,61,1
74.259735,74.35426,53,61,1
74.35426,74.44879,50,61,1
74.44879,74.54332,53,61,1
74.54332,74.63695,55,68,1
74.63695,74.73058,60,62,1
74.73058,74.82422,55,62,1
74.82422,74.91785,52,62,1
74.91785,75.01148,48,62,1
75.01148,75.10512,52,62,1
75.10512,75.198746,64,68,1
75.198746,75.29238,67,62,1
75.29238,75.38602,64,62,1
75.38602,75.479645,60,62,1
75.479645,75.57328,55,62,1
75.57328,75.666916,60,62,1
75.666916,75.75923,65,68,1
75.75923,75.851555,69,62,1
75.851555,75.94387,65,62,1
75.94387,76.03619,60,62,1
76.03619,76.12851,57,62,1
76.12851,76.220825,60,62,1
76.220825,76.31315,64,68,1
76.31315,76.405464,67,61,1
76.405464,76.49779,64,61,1
76.49779,76.5901,60,61,1
76.5901,76.68243,55,61,1
76.68243,76.77474,60,61,1
76.77474,76.86706,62,63,1
76.86706,76.95938,65,59,1
76.95938,77.0517,62,59,1
77.0517,77.14402,60,59,1
77.14402,77.236336,53,59,1
77.236336,77.32866,60,59,1
77.32866,77.42229,63,68,1
77.42229,77.51592,66,61,1
77.51592,77.60956,63,61,1
77.60956,77.703186,60,61,1
77.703186,77.79682,54,61,1
77.79682,77.89046,60,61,1
77.89046,77.984085,64,68,1
77.984085,78.07772,67,62,1
78.07772,78.17136,64,62,1
78.17136,78.264984,60,62,1
78.264984,78.35862,55,62,1
78.35862,78.452255,60,62,1
78.452255,78.546776,62,68,1
78.546776,78.641304,65,61,1
78.641304,78.73583,62,61,1
78.73583,78.83036,59,61,1
78.83036,78.92489,53,61,1
78.92489,79.01941,59,61,1
79.01941,79.11348,60,68,1
79.11348,79.20801,64,62,1
79.20801,79.30298,60,62,1
79.30298,79.39841,52,62,1
79.39841,79.49429,64,62,1
79.49429,79.590775,52,62,1
79.684845,79.77891,52,70,1
79.77891,79.87297,64,70,1
79.96703,80.0611,52,71,1
80.0611,80.15517,64,72,1
80.248795,80.34243,57,73,1
80.34243,80.436066,69,74,1
80.52969,80.62333,59,75,1
80.62333,80.716965,71,77,1
80.81059,80.90478,60,78,1
80.90478,80.99953,72,79,1
81.09473,81.1905,62,80,1
81.1905,81.28698,74,81,1
81.28698,81.38241,76,85,1
81.38241,81.47784,64,85,1
81.47784,81.57327,76,84,1
81.57327,81.6687,64,84,1
81.6687,81.76413,76,84,1
81.76413,81.85956,64,82,1
81.95231,82.04507,64,79,1
82.04507,82.137825,76,78,1
82.23058,82.32333,62,77,1
82.32333,82.41609,74,77,1
82.50928,82.60247,60,75,1
82.60247,82.695656,72,75,1
82.78884,82.882034,59,74,1
82.882034,82.975,71,74,1
83.06754,83.16062,60,73,1
83.16062,83.25436,72,73,1
83.348656,83.44352,57,72,1
83.44352,83.53906,69,73,1
83.53906,83.633125,64,85,1
83.633125,83.72765,52,77,1
83.72765,83.82263,64,77,1
83.82263,83.91806,52,77,1
83.91806,84.01395,64,77,1
84.01395,84.11043,52,77,1
84.20449,84.29855,64,70,1
84.29855,84.392624,76,70,1
84.48669,84.58075,64,71,1
84.58075,84.67481,76,72,1
84.76845,84.86208,69,73,1
84.86208,84.95571,81,74,1
85.04935,85.14298,71,75,1
85.14298,85.23661,83,77,1
85.330246,85.42442,72,78,1
85.42442,85.51917,84,79,1
85.61438,85.71015,74,80,1
85.71015,85.80663,86,81,1
85.80663,85.90206,88,85,1
85.90206,85.99749,76,85,1
85.99749,86.09292,88,84,1
86.09292,86.18835,76,84,1
86.18835,86.283775,88,84,1
86.283775,86.3792,76,82,1
86.47196,86.56472,76,79,1
86.56472,86.65747,88,78,1
86.75023,86.84299,74,77,1
86.84299,86.93574,86,77,1
87.02893,87.122116,72,75,1
87.122116,87.2153,84,75,1
87.308495,87.40168,71,74,1
87.40168,87.49465,83,74,1
87.58719,87.68027,72,73,1
87.68027,87.77401,84,73,1
87.86831,87.96317,69,72,1
87.96317,88.058716,81,73,1
88.058716,88.1546,76,82,1
88.1546,88.25049,64,78,1
88.25049,88.346375,76,78,1
88.346375,88.44226,64,78,1
88.44226,88.53815,76,78,1
88.53815,88.63403,64,78,1
88.63403,88.72766,81,80,1
88.72766,88.8213,69,75,1
88.8213,88.91493,81,75,1
88.91493,89.00856,69,75,1
89.00856,89.102196,81,75,1
89.102196,89.19583,69,75,1
89.19583,89.28946,81,82,1
89.28946,89.383095,69,75,1
89.383095,89.47673,81,75,1
89.47673,89.57036,69,75,1
89.57036,89.663994,81,75,1
89.663994,89.75763,69,75,1
89.75763,89.85306,81,82,1
89.85306,89.94849,69,75,1
89.94849,90.043915,81,75,1
90.043915,90.13934,69,75,1
90.13934,90.23477,81,75,1
90.23477,90.3302,69,75,1
90.3302,90.42563,81,81,1
90.42563,90.52106,69,75,1
90.52106,90.616486,81,75,1
90.616486,90.711914,69,75,1
90.711914,90.81806,81,75,1
90.81806,90.92421,69,75,1
90.92421,91.01964,77,81,1
91.01964,91.11507,79,77,1
91.11507,91.210495,81,77,1
91.210495,91.30592,77,79,1
91.30592,91.40135,76,75,1
91.40135,91.49678,74,75,1
91.49678,91.59119,72,80,1
91.59119,91.68526,74,74,1
91.68526,91.77932,76,74,1
91.77932,91.87338,72,78,1
91.87338,91.967445,71,71,1
91.967445,92.06151,69,71,1
92.06151,92.157394,71,81,1
92.157394,92.25328,72,73,1
92.25328,92.349174,74,73,1
92.349174,92.44506,71,79,1
92.44506,92.54954,69,75,1
92.54954,92.65402,68,75,1
92.65402,92.753265,69,79,1
92.753265,92.852516,57,75,1
92.852516,92.95176,69,75,1
92.95176,93.051,57,75,1
93.051,93.15025,69,75,1
93.15025,93.2495,57,75,1
93.2495,93.34313,69,80,1
93.34313,93.43676,57,75,1
93.43676,93.530396,69,75,1
93.530396,93.62403,57,75,1
93.62403,93.71766,69,75,1
93.71766,93.811295,57,75,1
93.811295,93.90493,69,82,1
93.90493,93.99856,57,75,1
93.99856,94.09219,69,75,1
94.09219,94.18583,57,75,1
94.18583,94.27946,69,75,1
94.27946,94.37309,57,75,1
94.37309,94.46852,69,82,1
94.46852,94.56395,57,75,1
94.56395,94.65938,69,75,1
94.65938,94.75481,57,75,1
94.75481,94.850235,69,75,1
94.850235,94.94566,57,75,1
94.94566,95.04109,69,81,1
95.04109,95.13652,57,75,1
95.13652,95.23196,69,75,1
95.23196,95.327385,57,75,1
95.327385,95.433525,69,75,1
95.433525,95.53967,57,75,1
95.53967,95.6351,65,81,1
95.6351,95.73053,67,77,1
95.73053,95.82596,69,77,1
95.82596,95.92139,65,79,1
95.92139,96.016815,64,75,1
96.016815,96.11225,62,75,1
96.11225,96.20665,60,80,1
96.20665,96.30072,62,74,1
96.30072,96.39478,64,74,1
96.39478,96.488846,60,78,1
96.488846,96.58291,59,71,1
96.58291,96.67698,57,71,1
96.67698,96.772865,59,81,1
96.772865,96.86875,60,73,1
96.86875,96.96464,62,73,1
96.96464,97.060524,59,79,1
97.060524,97.165,57,75,1
97.165,97.269485,56,75,1
97.269485,97.56061,57,79,1
97.85173,98.00089,76,80,1
97.85173,98.00089,88,95,1
98.150055,98.299225,76,80,1
98.150055,98.299225,88,95,1
98.44839,98.59395,64,77,1
98.44839,98.59395,76,91,1
98.73951,98.88507,64,77,1
98.73951,98.88507,76,91,1
99.03063,99.17409,76,93,1
99.03063,99.17409,64,79,1
99.31754,99.461006,80,97,1
99.31754,99.461006,68,82,1
99.60446,100.20112,81,100,1
99.60446,100.20112,69,85,1
100.20112,100.343895,83,58,1
100.343895,100.48667,86,53,1
100.48667,100.62945,84,53,1
100.62945,100.772224,83,53,1
100.772224,100.915,84,56,1
100.915,101.05778,88,53,1
101.05778,101.20055,86,53,1
101.20055,101.34332,84,53,1
101.34332,101.48747,83,58,1
101.48747,101.63255,86,53,1
101.63255,101.77857,84,53,1
101.77857,101.92556,83,53,1
101.92556,102.50493,81,52,1
102.50493,102.653885,76,80,1
102.50493,102.653885,88,95,1
102.803055,102.95222,76,80,1
102.803055,102.95222,88,95,1
103.10138,103.24736,64,77,1
103.10138,103.24736,76,91,1
103.39292,103.53848,64,77,1
103.39292,103.53848,76,91,1
103.684044,103.82774,76,93,1
103.684044,103.82774,64,79,1
103.97121,104.11466,80,97,1
103.97121,104.11466,68,82,1
104.258125,104.85412,81,100,1
104.258125,104.85412,69,85,1
104.85412,104.99773,83,58,1
104.99773,105.140495,86,53,1
105.140495,105.28327,84,53,1
105.28327,105.42605,83,52,1
105.42605,105.568825,84,55,1
105.568825,105.7116,88,52,1
105.7116,105.85438,86,51,1
105.85438,105.997154,84,51,1
105.997154,106.13993,83,56,1
106.13993,106.28339,86,51,1
106.28339,106.4273,84,51,1
106.4273,106.571915,83,51,1
106.571915,106.71469,81,53,1
106.71469,106.85747,84,49,1
106.85747,107.000244,83,48,1
107.000244,107.14301,81,48,1
107.14301,107.28579,83,52,1
107.28579,107.428566,86,46,1
107.428566,107.57134,84,46,1
107.57134,107.71412,83,45,1
107.71412,107.856895,84,46,1
107.856895,107.99967,88,43,1
107.99967,108.14245,86,42,1
108.14245,108.28522,84,42,1
108.28522,108.42799,83,45,1
108.42799,108.57077,86,40,1
108.57077,108.71355,84,39,1
108.71355,108.85632,83,39,1
108.85632,108.99842,81,39,1
108.99842,109.14052,84,37,1
109.14052,109.282845,83,37,1
109.282845,109.42562,81,37,1
109.42562,109.5684,83,41,1
109.5684,109.711624,86,37,1
109.711624,109.85509,84,37,1
109.85509,109.99854,83,37,1
109.99854,110.14269,81,39,1
110.14269,110.28684,84,37,1
110.28684,110.43122,83,37,1
110.43122,110.576065,81,37,1
110.576065,110.72091,83,41,1
110.72091,110.86623,86,37,1
110.86623,111.01179,84,37,1
111.01179,111.15758,83,37,1
111.15758,111.46486,81,92,1
111.77214,112.07942,76,92,1
112.40246,113.3243,76,97,1
113.3243,113.631584,72,53,1
113.631584,114.25212,71,58,1
114.25212,114.88517,64,54,1
114.88517,115.20169,69,54,1
116.15126,116.46622,53,102,1
116.78118,117.09614,84,92,1
116.78118,117.09614,72,92,1
117.419174,118.34102,84,95,1
117.419174,118.34102,72,95,1
118.34102,118.6483,81,57,1
118.34102,118.6483,69,57,1
118.6483,119.268845,79,60,1
118.6483,119.268845,67,60,1
119.268845,119.901886,72,56,1
119.268845,119.901886,60,56,1
119.901886,120.21841,77,56,1
119.901886,120.21841,65,56,1
121.16798,121.48294,55,103,1
121.7979,122.11286,89,90,1
121.7979,122.11286,77,63,1
122.43589,123.35774,89,93,1
122.43589,123.35774,77,67,1
123.35774,123.66502,86,66,1
123.35774,123.66502,74,56,1
123.66502,124.28556,83,69,1
123.66502,124.28556,71,58,1
124.28556,124.91861,79,58,1
124.28556,124.91861,67,49,1
124.91861,125.86817,77,64,1
124.91861,125.86817,65,54,1
125.86817,126.19451,74,52,1
125.86817,126.19451,62,44,1
126.19451,126.84718,71,55,1
126.19451,126.84718,59,46,1
126.84718,127.50504,67,49,1
126.84718,127.50504,55,41,1
127.50504,128.51617,65,51,1
127.50504,128.51617,53,43,1
128.51617,128.86424,62,40,1
128.51617,128.86424,50,34,1
128.86424,129.60306,59,40,1
128.86424,129.60306,47,34,1
130.34189,131.08072,55,40,1
131.98265,132.14813,52,28,1
132.14813,132.31181,55,30,1
132.31181,132.47285,60,32,1
132.47285,132.62967,64,34,1
132.62967,132.7865,52,31,1
132.7865,132.94331,55,31,1
132.94331,133.10014,60,31,1
133.10014,133.2514,64,35,1
133.2514,133.40268,52,30,1
133.40268,133.55396,55,31,1
133.55396,133.70522,60,33,1
133.70522,133.85649,64,36,1
133.85649,134.00777,52,33,1
134.00777,134.15903,55,33,1
134.15903,134.3103,60,33,1
134.45361,134.59692,53,28,1
134.59692,134.74022,55,31,1
134.74022,134.88353,59,33,1
134.88353,135.0333,62,36,1
135.0333,135.18306,53,33,1
135.18306,135.33281,55,33,1
135.33281,135.48257,59,34,1
135.63857,135.79456,52,28,1
135.79456,135.95055,55,30,1
135.95055,136.10654,60,32,1
136.10654,136.26253,64,34,1
136.26253,136.41852,52,32,1
136.41852,136.57451,55,32,1
136.57451,136.72571,60,33,1
136.88527,137.04265,52,28,1
137.04265,137.19766,55,30,1
137.19766,137.35037,60,32,1
137.35037,137.50159,64,34,1
137.50159,137.65279,52,31,1
137.65279,137.804,55,31,1
137.804,137.95522,60,31,1
137.95522,138.10211,64,35,1
138.10211,138.24901,52,30,1
138.24901,138.3959,55,31,1
138.3959,138.54282,60,33,1
138.54282,138.68971,64,36,1
138.68971,138.83661,52,33,1
138.83661,138.98352,55,33,1
138.98352,139.13042,60,33,1
139.27126,139.41211,53,28,1
139.41211,139.55295,55,31,1
139.55295,139.6938,59,33,1
139.6938,139.8393,62,36,1
139.8393,139.9848,53,33,1
139.9848,140.13031,55,33,1
140.13031,140.27582,59,34,1
140.57436,140.7241,52,30,1
140.7241,140.87384,55,32,1
140.87384,141.02359,60,34,1
141.02359,141.17334,64,32,1
141.17334,141.32307,62,32,1
141.32307,141.47354,60,33,1
141.47354,141.6309,59,35,1
141.6309,141.78337,55,28,1
141.78337,141.93384,59,30,1
141.93384,142.08214,62,32,1
142.08214,142.22972,67,34,1
142.22972,142.3773,55,31,1
142.3773,142.52489,59,31,1
142.52489,142.67245,62,31,1
142.67245,142.81526,67,35,1
142.81526,142.95807,55,30,1
142.95807,143.10088,59,31,1
143.10088,143.24367,62,33,1
143.24367,143.38647,67,36,1
143.38647,143.52928,55,33,1
143.52928,143.67207,59,33,1
143.67207,143.81488,67,33,1
143.95322,144.09155,55,28,1
144.09155,144.2299,60,31,1
144.2299,144.36824,67,33,1
144.51039,144.65254,55,28,1
144.65254,144.7947,64,31,1
144.7947,144.93684,67,33,1
145.08235,145.22786,55,28,1
145.22786,145.37337,62,30,1
145.37337,145.51886,67,32,1
145.66437,145.80988,55,28,1
145.80988,145.95538,59,30,1
145.95538,146.10585,67,32,1
146.26321,146.41566,55,28,1
146.41566,146.56613,59,30,1
146.56613,146.71443,62,32,1
146.71443,146.86201,67,34,1
146.86201,147.0096,55,31,1
147.0096,147.15718,59,31,1
147.15718,147.30476,62,31,1
147.30476,147.44435,67,35,1
147.44435,147.58394,55,30,1
147.58394,147.72351,59,31,1
147.72351,147.8631,62,33,1
147.8631,148.00269,67,36,1
148.00269,148.14227,55,33,1
148.14227,148.28186,59,33,1
148.28186,148.42145,67,33,1
148.55733,148.69322,55,28,1
148.69322,148.8291,60,31,1
148.8291,148.96498,67,33,1
149.10391,149.24286,55,28,1
149.24286,149.3818,63,31,1
149.3818,149.52074,67,33,1
149.66624,149.81175,55,28,1
149.81175,149.95724,62,30,1
149.95724,150.10275,67,32,1
150.24826,150.39377,55,28,1
150.39377,150.53926,59,30,1
150.53926,150.68477,67,32,1
150.82065,150.95654,55,28,1
150.95654,151.09242,60,31,1
151.09242,151.2283,67,33,1
151.36723,151.50618,55,28,1
151.50618,151.64513,64,31,1
151.64513,151.78406,67,33,1
151.92957,152.07507,55,28,1
152.07507,152.22057,62,30,1
152.22057,152.36607,67,32,1
152.51158,152.65709,55,28,1
152.65709,152.80258,59,30,1
152.80258,152.94809,67,32,1
153.08397,153.21985,55,28,1
153.21985,153.35574,60,31,1
153.35574,153.49162,67,33,1
153.63055,153.7695,55,28,1
153.7695,153.90845,60,31,1
153.90845,154.04738,63,33,1
154.19289,154.3384,55,28,1
154.3384,154.48389,59,30,1
154.48389,154.6294,62,32,1
154.77353,154.91766,55,28,1
154.91766,155.0618,60,30,1
155.0618,155.20593,63,32,1
155.35007,155.4942,55,28,1
155.4942,155.63834,59,30,1
155.63834,155.78247,62,32,1
155.9266,156.07074,55,28,1
156.07074,156.21487,60,30,1
156.21487,156.359,63,32,1
156.50336,156.64818,55,28,1
156.64818,156.79369,59,30,1
156.79369,156.93965,62,32,1
157.08632,157.23344,55,28,1
157.23344,157.38103,57,30,1
157.38103,157.52933,60,32,1
157.67647,157.82243,55,36,1
157.82243,157.96794,59,38,1
157.96794,158.11276,62,35,1
158.11276,158.25711,67,43,1
158.25711,158.40103,71,39,1
158.40103,158.54428,69,41,1
158.54428,158.68709,66,38,1
158.68709,158.82924,67,43,1
158.82924,158.97095,59,38,1
158.97095,159.11223,62,41,1
159.11223,159.25287,67,38,1
159.25287,159.39308,71,46,1
159.39308,159.5333,74,41,1
159.5333,159.67351,72,41,1
159.67351,159.81372,69,37,1
159.81372,159.95393,71,47,1
159.95393,160.09415,67,42,1
160.09415,160.23436,71,47,1
160.23436,160.37457,74,43,1
160.37457,160.51479,79,51,1
160.51479,160.655,83,46,1
160.655,160.79521,81,48,1
160.79521,160.93542,78,43,1
160.93542,161.07472,79,52,1
161.07472,161.21425,83,52,1
161.21425,161.3542,81,53,1
161.3542,161.4946,84,54,1
161.4946,161.63544,83,55,1
161.63544,161.77672,86,56,1
161.77672,161.91844,85,56,1
161.91844,162.06062,88,57,1
162.06062,162.20325,86,58,1
162.20325,162.34587,89,59,1
162.34587,162.48782,88,60,1
162.48782,162.62978,91,56,1
162.62978,162.77129,89,61,1
162.77129,162.91257,93,62,1
162.91257,163.05362,89,63,1
163.05362,163.19423,88,59,1
163.19423,163.33463,86,65,1
163.33463,163.4746,89,66,1
163.4746,163.61455,88,66,1
163.61455,163.75452,91,64,1
163.75452,163.89449,89,68,1
163.89449,164.03444,93,69,1
164.03444,164.17441,89,70,1
164.17441,164.31438,88,66,1
164.31438,164.45435,86,69,1
164.45435,164.5943,89,65,1
164.5943,164.73427,88,67,1
164.73427,164.87424,84,60,1
164.87424,165.01419,83,64,1
165.01419,165.15416,86,59,1
165.15416,165.29413,84,62,1
165.29413,165.4341,81,55,1
165.4341,165.57405,79,59,1
165.57405,165.71466,83,54,1
165.71466,165.85571,81,56,1
165.85571,165.99722,77,51,1
165.99722,166.13985,76,54,1
166.13985,166.28386,79,46,1
166.28386,166.42949,77,49,1
166.42949,166.57678,74,42,1
166.57678,166.73611,72,49,1
167.1978,167.49583,79,50,1
167.1978,167.49583,91,50,1
167.79387,168.64961,79,54,1
167.79387,168.64961,91,54,1
168.64961,168.93488,76,47,1
168.64961,168.93488,88,47,1
168.93488,169.48192,74,50,1
168.93488,169.48192,86,50,1
169.48192,170.04434,67,41,1
169.48192,170.04434,79,41,1
170.04434,170.62636,72,50,1
170.04434,170.62636,84,50,1
170.62636,170.91737,76,47,1
170.62636,170.91737,88,47,1
171.82045,172.11562,79,50,1
171.82045,172.11562,91,50,1
172.41078,173.24829,79,54,1
172.41078,173.24829,91,54,1
173.24829,173.52747,76,47,1
173.24829,173.52747,88,47,1
173.52747,174.071,74,50,1
173.52747,174.071,86,50,1
174.071,174.62675,67,41,1
174.071,174.62675,79,41,1
174.62675,174.91777,72,50,1
174.62675,174.91777,84,50,1
176.40434,176.69951,77,50,1
176.40434,176.69951,89,50,1
176.99467,177.83218,77,54,1
176.99467,177.83218,89,54,1
177.83218,178.11136,74,47,1
177.83218,178.11136,86,47,1
178.11136,178.65489,76,50,1
178.11136,178.65489,88,50,1
178.65489,179.21065,72,41,1
178.65489,179.21065,84,41,1
179.21065,179.79266,71,50,1
179.21065,179.79266,83,50,1
179.79266,180.08368,74,47,1
179.79266,180.08368,86,47,1
180.98824,181.2834,77,50,1
180.98824,181.2834,89,50,1
181.57855,182.41608,77,54,1
181.57855,182.41608,89,54,1
182.41608,182.69525,74,47,1
182.41608,182.69525,86,47,1
182.69525,183.23878,75,50,1
182.69525,183.23878,87,50,1
183.23878,183.79454,72,41,1
183.23878,183.79454,84,41,1
183.79454,184.37656,71,50,1
183.79454,184.37656,83,50,1
184.37656,184.95857,74,47,1
184.37656,184.95857,86,47,1
184.95857,185.5021,76,50,1
184.95857,185.5021,88,50,1
185.5021,186.05786,72,42,1
185.5021,186.05786,84,42,1
186.05786,186.63988,71,53,1
186.05786,186.63988,83,53,1
186.63988,187.2219,74,52,1
186.63988,187.2219,86,52,1
187.2219,187.76543,75,50,1
187.2219,187.76543,87,50,1
187.76543,188.32118,72,41,1
187.76543,188.32118,84,41,1
188.32118,188.9032,79,50,1
188.9032,189.47974,79,47,1
189.47974,189.57674,81,37,1
189.57674,189.67374,79,37,1
189.67374,189.77074,81,37,1
189.77074,189.86774,79,37,1
189.86774,189.96475,81,38,1
189.96475,190.06175,79,38,1
190.06175,190.1583,81,39,1
190.1583,190.25484,79,39,1
190.25484,190.35138,81,39,1
190.35138,190.44792,79,39,1
190.44792,190.54446,81,40,1
190.54446,190.64055,79,40,1
190.64055,190.73665,81,41,1
190.73665,190.83273,79,41,1
190.83273,190.92838,81,41,1
190.92838,191.02403,79,43,1
191.02403,191.11946,81,43,1
191.11946,191.21466,79,43,1
191.21466,191.30986,81,44,1
191.30986,191.40463,79,44,1
191.40463,191.49939,81,45,1
191.49939,191.59395,79,45,1
191.59395,191.68828,81,45,1
191.68828,191.78261,79,45,1
191.78261,191.87619,81,47,1
191.87619,191.96841,79,47,1
191.96841,192.06285,81,47,1
192.06285,192.15561,79,47,1
192.15561,192.24887,81,47,1
192.24887,192.34364,79,48,1
192.34364,192.43637,81,48,1
192.43637,192.52986,79,48,1
192.52986,192.62451,81,49,1
192.62451,192.71725,79,49,1
192.71725,192.81052,81,50,1
192.81052,192.90529,79,51,1
192.90529,192.99908,81,51,1
192.99908,193.09183,79,52,1
193.09183,193.18552,81,52,1
193.18552,193.27814,79,52,1
193.27814,193.3715,81,54,1
193.3715,193.46541,79,54,1
193.46541,193.55931,81,54,1
193.55931,193.65364,79,55,1
193.65364,193.74863,81,55,1
193.74863,193.84404,79,55,1
193.84404,193.94014,81,56,1
193.94014,194.03691,79,56,1
194.59868,194.87352,91,89,1
195.14319,195.97476,91,90,1
195.97476,196.25052,88,85,1
196.25052,196.78989,86,90,1
196.78989,196.87038,79,84,1
197.34233,197.89851,84,87,1
197.89851,198.18619,88,84,1
199.09442,199.38766,91,90,1
199.6783,200.51244,91,92,1
200.51244,200.78981,88,84,1
200.78981,201.33087,86,90,1
201.33087,201.41171,79,82,1
201.88335,202.16907,84,86,1
202.30847,202.44788,55,67,1
202.58597,202.72408,63,62,1
202.86217,203.00026,62,62,1
203.13966,203.27907,60,65,1
203.41847,203.55788,55,61,1
203.6973,203.8367,57,62,1
203.98015,204.12373,59,62,1
204.26581,204.4079,60,65,1
204.54999,204.69208,60,61,1
204.83017,204.96826,68,66,1
205.10635,205.24446,67,62,1
205.3832,205.52193,65,68,1
205.66066,205.79918,60,63,1
205.93706,206.07516,62,63,1
206.21794,206.3607,64,63,1
206.50348,206.64626,65,66,1
206.78903,206.93239,65,62,1
207.07245,207.21252,73,68,1
207.3526,207.49266,72,64,1
207.63206,207.77147,70,68,1
207.91087,208.05028,68,62,1
208.18968,208.3291,67,62,1
208.4685,208.60791,65,62,1
208.74731,208.88672,63,69,1
209.02612,209.16553,63,63,1
209.30362,209.44171,63,63,1
209.30362,209.44171,55,40,1
209.30362,209.44171,51,40,1
209.57982,209.71791,63,63,1
209.57982,209.71791,56,50,1
209.57982,209.71791,53,40,1
209.85536,209.99324,63,71,1
209.85536,209.99324,58,56,1
209.85536,209.99324,55,44,1
210.13176,210.27095,63,64,1
210.13176,210.27095,60,51,1
210.13176,210.27095,56,40,1
210.4108,210.55128,63,64,1
210.4108,210.55128,61,51,1
210.4108,210.55128,58,40,1
210.69246,210.83432,63,64,1
210.69246,210.83432,58,51,1
210.69246,210.83432,55,40,1
210.83432,211.12004,60,82,1
211.12004,211.25945,67,79,1
211.12004,211.25945,55,79,1
211.39885,211.53694,75,74,1
211.39885,211.53694,63,62,1
211.67503,211.81314,74,74,1
211.67503,211.81314,62,62,1
211.95123,212.09064,72,77,1
211.95123,212.09064,60,65,1
212.23004,212.36945,67,72,1
212.23004,212.36945,55,61,1
212.50885,212.64825,69,73,1
212.50885,212.64825,57,62,1
212.78766,212.93112,71,73,1
212.78766,212.93112,59,62,1
213.07469,213.21678,72,77,1
213.07469,213.21678,60,65,1
213.35887,213.50096,72,72,1
213.35887,213.50096,60,61,1
213.64304,213.78114,80,78,1
213.64304,213.78114,68,66,1
213.91924,214.05733,79,73,1
213.91924,214.05733,67,62,1
214.19542,214.33417,77,80,1
214.19542,214.33417,65,68,1
214.4729,214.61163,72,75,1
214.4729,214.61163,60,63,1
214.75015,214.88803,74,75,1
214.75015,214.88803,62,63,1
215.02612,215.1689,76,75,1
215.02612,215.1689,64,63,1
215.31168,215.45445,77,78,1
215.31168,215.45445,65,66,1
215.59723,215.74,77,74,1
215.59723,215.74,65,62,1
215.88336,216.02342,85,80,1
215.88336,216.02342,73,68,1
216.1635,216.30356,84,76,1
216.1635,216.30356,72,64,1
216.44363,216.58304,82,80,1
216.44363,216.58304,70,68,1
216.72244,216.86185,80,73,1
216.72244,216.86185,68,62,1
217.00125,217.14066,79,74,1
217.00125,217.14066,67,62,1
217.28006,217.41946,77,74,1
217.28006,217.41946,65,62,1
217.55887,217.69827,75,82,1
217.55887,217.69827,63,69,1
217.83768,217.97708,75,75,1
217.83768,217.97708,63,63,1
218.1165,218.2546,75,75,1
218.1165,218.2546,67,60,1
218.1165,218.2546,63,60,1
218.39268,218.53078,75,75,1
218.39268,218.53078,68,60,1
218.39268,218.53078,65,60,1
218.66888,218.80634,75,84,1
218.66888,218.80634,70,67,1
218.66888,218.80634,67,67,1
218.94421,219.08273,75,76,1
218.94421,219.08273,72,60,1
218.94421,219.08273,68,60,1
219.22191,219.36176,75,76,1
219.22191,219.36176,73,60,1
219.22191,219.36176,70,60,1
219.50226,219.64297,75,76,1
219.50226,219.64297,70,60,1
219.50226,219.64297,67,60,1
219.78369,220.0694,72,76,1
219.78369,220.0694,68,71,1
220.0694,220.16234,67,55,1
220.16234,220.25528,65,56,1
220.25528,220.3482,67,57,1
220.3482,220.44028,68,58,1
220.44028,220.53233,72,60,1
220.53233,220.6244,73,61,1
220.6244,220.71646,75,62,1
220.71646,220.80853,77,63,1
220.80853,220.90059,79,63,1
220.90059,220.99353,80,63,1
220.99353,221.08647,82,63,1
221.08647,221.1794,84,65,1
221.1794,221.27234,85,66,1
221.27234,221.36528,84,63,1
221.36528,221.45822,82,63,1
221.45822,221.55115,85,66,1
221.55115,221.64409,84,63,1
221.64409,221.73703,82,63,1
221.73703,221.83267,85,67,1
221.83267,221.9283,84,63,1
221.9283,222.02406,82,63,1
222.02406,222.30823,80,76,1
222.30823,222.40295,64,55,1
222.40295,222.49768,62,56,1
222.49768,222.5924,64,57,1
222.5924,222.68446,65,58,1
222.68446,222.77654,68,60,1
222.77654,222.86859,70,61,1
222.86859,222.96066,72,62,1
222.96066,223.05272,74,63,1
223.05272,223.14479,76,63,1
223.14479,223.23727,77,63,1
223.23727,223.32977,79,63,1
223.32977,223.42226,80,65,1
223.42226,223.51476,82,66,1
223.51476,223.60724,80,63,1
223.60724,223.69951,79,63,1
223.69951,223.79137,82,66,1
223.79137,223.88342,80,63,1
223.88342,223.9755,79,63,1
223.9755,224.07068,82,67,1
224.07068,224.16586,80,63,1
224.16586,224.26105,79,63,1
224.26105,224.35623,80,70,1
224.35623,224.45142,82,68,1
224.45142,224.54659,80,68,1
224.54659,224.64177,79,70,1
224.64177,224.73695,80,66,1
224.73695,224.83272,79,66,1
224.83272,224.9261,77,69,1
224.9261,225.01947,79,66,1
225.01947,225.11285,77,65,1
225.11285,225.20624,75,69,1
225.20624,225.29962,77,64,1
225.29962,225.39299,75,64,1
225.39299,225.48593,74,68,1
225.48593,225.57887,75,64,1
225.57887,225.6718,74,64,1
225.6718,225.76474,75,68,1
225.76474,225.85768,77,64,1
225.85768,225.95062,75,64,1
225.95062,226.04355,77,70,1
226.04355,226.13649,79,65,1
226.13649,226.22943,77,66,1
226.22943,226.32236,78,70,1
226.32236,226.4153,79,66,1
226.4153,226.50824,78,66,1
226.50824,226.60117,79,72,1
226.60117,226.6941,80,67,1
226.6941,226.78705,79,67,1
226.78705,226.87999,78,67,1
226.87999,226.97292,79,67,1
226.97292,227.06586,78,67,1
227.06586,227.15793,79,72,1
227.15793,227.24998,80,67,1
227.24998,227.34206,79,67,1
227.34206,227.43411,78,67,1
227.43411,227.52618,79,67,1
227.52618,227.61824,78,67,1
227.61824,227.70987,79,72,1
227.70987,227.80151,80,67,1
227.80151,227.89357,79,67,1
227.89357,227.98586,77,69,1
227.98586,228.07834,79,65,1
228.07834,228.17128,77,65,1
228.17128,228.26443,75,68,1
228.26443,228.35782,77,63,1
228.35782,228.45163,75,63,1
228.45163,228.54565,74,67,1
228.54565,228.63992,75,62,1
228.63992,228.73465,74,62,1
228.73465,229.02037,72,82,1
229.02037,229.15977,75,79,1
229.02037,229.15977,63,79,1
229.29918,229.43727,84,74,1
229.29918,229.43727,72,62,1
229.57536,229.71347,82,74,1
229.57536,229.71347,70,62,1
229.85156,229.99097,80,77,1
229.85156,229.99097,68,65,1
230.13037,230.26978,75,72,1
230.13037,230.26978,63,61,1
230.40918,230.54858,77,73,1
230.40918,230.54858,65,62,1
230.68799,230.83145,79,73,1
230.68799,230.83145,67,62,1
230.97504,231.11711,80,77,1
230.97504,231.11711,68,65,1
231.2592,231.40129,72,72,1
231.2592,231.40129,60,61,1
231.54337,231.68147,80,78,1
231.54337,231.68147,68,66,1
231.81956,231.95766,79,73,1
231.81956,231.95766,67,62,1
232.09576,232.2345,77,80,1
232.09576,232.2345,65,68,1
232.37323,232.51196,72,75,1
232.37323,232.51196,60,63,1
232.65048,232.78836,74,75,1
232.65048,232.78836,62,63,1
232.92645,233.06923,76,75,1
232.92645,233.06923,64,63,1
233.212,233.35478,77,78,1
233.212,233.35478,65,66,1
233.49756,233.64034,89,74,1
233.49756,233.64034,77,62,1
233.78369,233.92375,92,80,1
233.78369,233.92375,80,68,1
234.06383,234.20389,91,76,1
234.06383,234.20389,79,64,1
234.34396,234.48337,89,80,1
234.34396,234.48337,77,68,1
234.62277,234.76218,87,73,1
234.62277,234.76218,75,62,1
234.90158,235.04099,86,74,1
234.90158,235.04099,74,62,1
235.18039,235.3198,84,74,1
235.18039,235.3198,72,62,1
235.4592,236.01683,83,82,1
235.4592,236.01683,71,69,1
236.01683,236.29071,79,78,1
236.01683,236.29071,67,66,1
236.29301,236.56691,79,73,1
236.29301,236.56691,67,62,1
236.56921,236.84224,79,78,1
236.56921,236.84224,67,66,1
236.84454,237.11992,79,72,1
236.84454,237.11992,67,61,1
237.12224,237.40025,79,78,1
237.12224,237.40025,67,66,1
237.40259,237.68167,79,73,1
237.40259,237.68167,67,62,1
237.68402,237.96973,84,76,1
237.68402,237.96973,72,71,1
237.96973,238.06267,72,55,1
238.06267,238.15561,74,56,1
238.15561,238.24854,76,57,1
238.24854,238.3406,77,58,1
238.3406,238.43266,76,60,1
238.43266,238.52473,77,61,1
238.52473,238.61679,79,62,1
238.61679,238.70886,77,63,1
238.70886,238.80092,79,63,1
238.80092,238.89386,80,68,1
238.89386,238.9868,82,64,1
238.9868,239.07974,80,64,1
239.07974,239.17267,79,68,1
239.17267,239.26561,80,64,1
239.26561,239.35855,79,64,1
239.35855,239.45148,77,70,1
239.45148,239.54442,79,65,1
239.54442,239.63736,77,66,1
239.63736,239.7303,78,70,1
239.7303,239.82323,79,66,1
239.82323,239.91617,78,66,1
239.91617,240.00911,79,72,1
240.00911,240.10204,80,67,1
240.10204,240.19498,79,67,1
240.19498,240.28792,78,67,1
240.28792,240.38086,79,67,1
240.38086,240.47379,78,67,1
240.47379,240.56586,79,72,1
240.56586,240.65791,80,67,1
240.65791,240.74998,79,67,1
240.74998,240.84204,78,67,1
240.84204,240.93411,79,67,1
240.93411,241.02617,78,67,1
241.02617,241.11781,79,72,1
241.11781,241.20944,80,67,1
241.20944,241.3015,79,67,1
241.3015,241.39378,77,69,1
241.39378,241.48627,79,65,1
241.48627,241.57921,77,65,1
241.57921,241.67236,75,68,1
241.67236,241.76575,77,63,1
241.76575,241.85956,75,63,1
241.85956,241.9536,74,67,1
241.9536,242.04787,75,62,1
242.04787,242.14258,74,62,1
242.14258,242.2352,72,72,1
242.2352,242.3278,71,67,1
242.3278,242.42041,72,67,1
242.42041,242.51303,74,67,1
242.51303,242.60564,72,67,1
242.60564,242.69824,74,67,1
242.69824,242.79031,75,75,1
242.79031,242.88237,74,70,1
242.88237,242.97444,75,70,1
242.97444,243.0665,77,70,1
243.0665,243.15857,75,70,1
243.15857,243.25063,77,70,1
243.25063,243.34225,79,75,1
243.34225,243.4339,80,70,1
243.4339,243.52596,79,70,1
243.52596,243.61824,77,72,1
243.61824,243.71072,79,68,1
243.71072,243.80367,77,68,1
243.80367,243.89682,75,71,1
243.89682,243.9902,77,66,1
243.9902,244.08401,75,66,1
244.08401,244.17804,74,70,1
244.17804,244.27231,75,65,1
244.27231,244.36703,74,65,1
244.36703,244.45966,72,75,1
244.45966,244.55226,71,70,1
244.55226,244.64487,72,70,1
244.64487,244.73747,74,70,1
244.73747,244.8301,72,70,1
244.8301,244.9227,74,70,1
244.9227,245.01476,75,79,1
245.01476,245.10683,74,73,1
245.10683,245.19888,75,73,1
245.19888,245.29095,77,73,1
245.29095,245.38301,75,73,1
245.38301,245.47508,77,73,1
245.47508,245.56671,79,79,1
245.56671,245.65836,80,73,1
245.65836,245.75041,79,73,1
245.75041,245.8427,77,75,1
245.8427,245.93518,79,71,1
245.93518,246.02812,77,71,1
246.02812,246.12128,75,74,1
246.12128,246.21466,77,69,1
246.21466,246.30846,75,69,1
246.30846,246.4025,74,73,1
246.4025,246.49677,75,68,1
246.49677,246.59149,74,68,1
246.59149,246.6841,72,79,1
246.6841,246.77672,71,69,1
246.77672,246.86932,72,71,1
246.86932,246.96193,74,73,1
246.96193,247.05453,75,75,1
247.05453,247.14716,77,78,1
247.14716,247.23921,79,80,1
247.23921,247.33128,80,77,1
247.33128,247.42334,79,75,1
247.42334,247.51541,77,74,1
247.51541,247.60747,75,73,1
247.60747,247.69954,74,73,1
247.69954,247.79214,72,79,1
247.79214,247.88475,71,69,1
247.88475,247.97737,72,71,1
247.97737,248.06998,74,73,1
248.06998,248.16258,75,75,1
248.16258,248.25519,77,78,1
248.25519,248.34726,79,80,1
248.34726,248.43932,80,77,1
248.43932,248.53139,79,75,1
248.53139,248.62344,77,74,1
248.62344,248.71552,75,73,1
248.71552,248.80757,74,73,1
248.80757,248.94778,72,101,1
248.80757,248.94778,60,85,1
249.36838,249.50858,72,101,1
249.36838,249.50858,60,85,1
249.92918,250.20958,72,99,1
249.92918,250.20958,60,83,1
251.08083,251.67166,72,73,1
251.08083,251.67166,60,62,1
252.2625,252.85335,72,56,1
252.2625,252.85335,60,47,1
253.44418,253.75478,56,108,1
254.06537,254.39355,75,96,1
254.06537,254.39355,63,81,1
254.06537,254.39355,68,81,1
254.06537,254.39355,72,81,1
254.72176,255.6186,87,97,1
254.72176,255.6186,75,81,1
254.72176,255.6186,80,81,1
254.72176,255.6186,84,81,1
255.6186,255.92473,75,54,1
255.6186,255.92473,84,64,1
255.92473,256.5429,82,68,1
255.92473,256.5429,73,57,1
256.5429,257.1672,75,60,1
256.5429,257.1672,73,50,1
257.1672,257.79147,80,60,1
257.1672,257.79147,72,50,1
258.41577,258.7341,53,108,1
259.05243,259.3773,72,96,1
259.05243,259.3773,60,81,1
259.05243,259.3773,65,81,1
259.05243,259.3773,68,81,1
259.70215,260.599,84,95,1
259.70215,260.599,72,79,1
259.70215,260.599,77,79,1
259.70215,260.599,80,79,1
260.599,260.90512,72,54,1
260.599,260.90512,80,64,1
260.90512,261.5233,79,68,1
260.90512,261.5233,70,57,1
261.5233,262.14758,72,60,1
261.5233,262.14758,70,50,1
262.14758,262.77185,77,60,1
262.14758,262.77185,68,50,1
263.39615,263.71448,61,108,1
264.03284,264.36624,80,96,1
264.03284,264.36624,68,81,1
264.03284,264.36624,73,81,1
264.03284,264.36624,77,81,1
264.69965,265.5965,92,97,1
264.69965,265.5965,80,81,1
264.69965,265.5965,85,81,1
264.69965,265.5965,89,81,1
265.5965,265.90262,80,54,1
265.5965,265.90262,89,64,1
265.90262,266.52078,87,68,1
265.90262,266.52078,78,57,1
266.52078,267.14508,80,60,1
266.52078,267.14508,78,50,1
267.14508,268.0815,85,60,1
267.14508,268.0815,77,50,1
268.0815,268.38763,68,43,1
268.0815,268.38763,77,51,1
268.38763,269.0058,75,54,1
268.38763,269.0058,66,45,1
269.0058,269.6301,68,47,1
269.0058,269.6301,66,39,1
269.6301,270.56653,73,47,1
269.6301,270.56653,65,39,1
270.56653,270.87265,56,32,1
270.56653,270.87265,65,38,1
270.87265,271.48438,63,40,1
270.87265,271.48438,54,34,1
271.4908,272.10858,56,35,1
271.4908,272.10858,54,29,1
272.1151,272.73288,61,35,1
272.1151,272.73288,53,29,1
272.73938,273.35718,53,29,1
272.73938,273.35718,56,35,1
273.36368,273.9754,63,40,1
273.36368,273.9754,54,34,1
273.98184,274.59357,56,35,1
273.98184,274.59357,54,29,1
274.6,275.21176,63,40,1
274.6,275.21176,54,34,1
275.2182,275.82993,56,35,1
275.2182,275.82993,54,29,1
275.83636,276.142,61,36,1
275.83636,276.142,53,30,1
276.142,276.71793,65,38,1
276.142,276.71793,61,32,1
276.142,276.71793,56,27,1
276.724,277.29996,65,38,1
276.724,277.29996,61,32,1
276.724,277.29996,56,27,1
277.30603,277.88885,65,38,1
277.30603,277.88885,61,32,1
277.30603,277.88885,56,27,1
277.89505,278.1757,65,52,1
277.89505,278.45142,61,44,1
277.89505,278.45142,56,37,1
278.17804,278.4549,63,52,1
278.4572,279.0305,63,43,1
278.4572,279.0305,60,36,1
278.4572,279.0305,56,30,1
279.0365,279.32236,60,36,1
279.0365,279.60703,63,43,1
279.0365,279.60703,56,30,1
279.32477,279.61063,59,30,1
279.61304,280.18625,63,43,1
279.61304,280.18625,59,36,1
279.61304,280.18625,56,30,1
280.19232,280.47165,65,58,1
280.19232,280.47165,56,41,1
280.19232,280.47165,60,41,1
280.19232,280.47165,62,49,1
280.474,280.7521,66,47,1
280.474,280.7521,54,25,1
280.474,280.7521,58,30,1
280.474,280.7521,63,39,1
280.75443,281.32642,66,38,1
280.75443,281.32642,63,32,1
280.75443,281.32642,58,27,1
281.33237,281.9003,66,38,1
281.33237,281.9003,63,32,1
281.33237,281.9003,58,27,1
281.90628,282.48505,66,38,1
281.90628,282.48505,63,32,1
281.90628,282.48505,58,27,1
282.49124,282.77188,66,52,1
282.49124,283.0476,63,44,1
282.49124,283.0476,58,37,1
282.77423,283.0511,65,52,1
283.0534,283.6213,65,43,1
283.0534,283.6213,62,36,1
283.0534,283.6213,58,30,1
283.6273,283.91187,62,36,1
283.6273,284.19522,65,43,1
283.6273,284.19522,58,30,1
283.91425,284.1988,61,30,1
284.20117,284.77444,65,43,1
284.20117,284.77444,61,36,1
284.20117,284.77444,58,30,1
284.78052,285.06482,67,58,1
284.78052,285.06482,58,41,1
284.78052,285.06482,62,41,1
284.78052,285.06482,64,49,1
285.06482,285.34418,68,47,1
285.06482,285.34418,56,25,1
285.06482,285.34418,60,30,1
285.06482,285.34418,65,39,1
285.34653,285.91443,68,38,1
285.34653,285.91443,65,32,1
285.34653,285.91443,60,27,1
285.9204,286.4883,68,38,1
285.9204,286.4883,65,32,1
285.9204,286.4883,60,27,1
286.4943,287.07306,68,38,1
286.4943,287.07306,65,32,1
286.4943,287.07306,60,27,1
287.07928,287.35992,68,48,1
287.07928,287.63684,65,40,1
287.07928,287.63684,60,34,1
287.36227,287.64035,67,48,1
287.6427,288.21866,67,43,1
287.6427,288.21866,64,36,1
287.6427,288.21866,60,30,1
288.2247,288.50793,67,48,1
288.2247,288.50793,64,40,1
288.2247,288.7887,60,34,1
288.5103,288.79227,65,34,1
288.5103,288.79227,68,48,1
288.79462,289.36786,68,43,1
288.79462,289.36786,65,36,1
288.79462,289.36786,60,30,1
289.37387,289.6635,68,47,1
289.37387,289.6635,65,40,1
289.37387,289.6635,60,34,1
289.8205,289.96313,60,36,1
289.96313,290.10574,64,37,1
290.10574,290.24838,67,38,1
290.24838,290.39102,71,40,1
290.39102,290.53317,72,41,1
290.53317,290.67648,76,42,1
290.67648,290.8231,79,44,1
290.8231,290.96368,83,45,1
290.96368,291.1043,84,44,1
291.1043,291.2449,79,43,1
291.2449,291.38553,76,43,1
291.38553,291.52612,72,42,1
291.52612,291.66675,67,41,1
291.66675,291.8065,64,41,1
291.8065,291.95013,60,40,1
292.10794,292.24857,61,36,1
292.24857,292.38916,65,37,1
292.38916,292.5298,68,38,1
292.5298,292.67038,72,40,1
292.67038,292.8099,73,41,1
292.8099,292.94986,77,42,1
292.94986,293.0939,80,44,1
293.0939,293.23315,84,45,1
293.23315,293.37244,85,44,1
293.37244,293.51172,80,43,1
293.51172,293.651,77,43,1
293.651,293.79025,73,42,1
293.79025,293.92953,68,41,1
293.92953,294.06882,65,41,1
294.06882,294.21103,61,40,1
294.36884,294.5088,64,36,1
294.5088,294.6474,67,37,1
294.6474,294.78604,70,38,1
294.78604,294.92468,75,40,1
294.92468,295.06287,76,41,1
295.06287,295.20282,79,42,1
295.20282,295.34686,82,44,1
295.34686,295.48615,87,45,1
295.48615,295.62543,88,44,1
295.62543,295.76468,82,43,1
295.76468,295.90396,79,43,1
295.90396,296.04324,76,42,1
296.04324,296.18253,70,41,1
296.18253,296.3218,67,41,1
296.3218,296.464,64,40,1
296.6218,296.76175,65,36,1
296.76175,296.9004,69,37,1
296.9004,297.03903,72,38,1
297.03903,297.17764,76,40,1
297.17764,297.31586,77,41,1
297.31586,297.4558,81,42,1
297.4558,297.59985,84,44,1
297.59985,297.73914,88,45,1
297.73914,297.8784,89,44,1
297.8784,298.01767,84,43,1
298.01767,298.15695,81,43,1
298.15695,298.29623,77,42,1
298.29623,298.4355,72,41,1
298.4355,298.5748,69,41,1
298.5748,298.71698,65,40,1
298.8748,299.01474,66,36,1
299.01474,299.15338,70,37,1
299.15338,299.292,73,38,1
299.292,299.43063,77,40,1
299.43063,299.56885,78,41,1
299.56885,299.7088,82,42,1
299.7088,299.8528,85,44,1
299.8528,299.9921,89,45,1
299.9921,300.13138,90,44,1
300.13138,300.27066,85,43,1
300.27066,300.4099,82,43,1
300.4099,300.5492,78,42,1
300.5492,300.68848,73,41,1
300.68848,300.82776,70,41,1
300.82776,300.96994,66,40,1
301.12775,301.2677,69,36,1
301.2677,301.40634,72,37,1
301.40634,301.54498,75,38,1
301.54498,301.68362,80,40,1
301.68362,301.8218,81,41,1
301.8218,301.96176,84,42,1
301.96176,302.1058,87,44,1
302.1058,302.2451,92,45,1
302.2451,302.38437,93,44,1
302.38437,302.52362,87,43,1
302.52362,302.6629,84,43,1
302.6629,302.8022,81,42,1
302.8022,302.94147,75,41,1
302.94147,303.08075,72,41,1
303.08075,303.22293,69,40,1
303.37546,303.51697,70,39,1
303.51697,303.65735,74,41,1
303.65735,303.79663,77,44,1
303.79663,303.9355,81,46,1
303.9355,304.0752,82,44,1
304.0752,304.21603,77,42,1
304.21603,304.35776,74,40,1
304.35776,304.49902,70,45,1
304.49902,304.63962,74,41,1
304.63962,304.77957,77,43,1
304.77957,304.91953,81,45,1
304.91953,305.05838,82,47,1
305.05838,305.19855,77,45,1
305.19855,305.34006,74,44,1
305.34006,305.48315,70,42,1
305.6368,305.78116,71,39,1
305.78116,305.92368,75,41,1
305.92368,306.0643,78,44,1
306.0643,306.20383,82,46,1
306.20383,306.3442,83,44,1
306.3442,306.48572,78,42,1
306.48572,306.6281,75,40,1
306.6281,306.77142,71,45,1
306.77142,306.91202,75,41,1
306.91202,307.05197,78,43,1
307.05197,307.19193,82,45,1
307.19193,307.33078,83,47,1
307.33078,307.47095,78,45,1
307.47095,307.61243,75,44,1
307.61243,307.75552,71,42,1
307.90897,308.05286,74,39,1
308.05286,308.19537,77,41,1
308.19537,308.33655,80,44,1
308.33655,308.4767,85,46,1
308.4767,308.61777,86,44,1
308.61777,308.75995,80,42,1
308.75995,308.90314,77,40,1
308.90314,309.04443,74,45,1
309.04443,309.18503,77,41,1
309.18503,309.32498,80,43,1
309.32498,309.46494,85,45,1
309.46494,309.60376,86,47,1
309.60376,309.74393,80,45,1
309.74393,309.88544,77,44,1
309.88544,310.02853,74,42,1
310.18106,310.32257,78,39,1
310.32257,310.46295,77,46,1
310.46295,310.60223,78,44,1
310.7411,310.8808,82,44,1
310.8808,311.02164,81,47,1
311.02164,311.16336,82,40,1
311.30463,311.44522,87,41,1
311.44522,311.58517,86,43,1
311.58517,311.72513,87,42,1
311.72513,311.86398,90,47,1
311.86398,312.00406,87,45,1
312.00406,312.14633,90,49,1
312.14633,312.29294,87,42,1
312.29294,312.44547,90,53,1
312.44547,312.58698,89,51,1
312.58698,312.72736,87,49,1
312.72736,312.86664,85,47,1
312.86664,313.0055,84,45,1
313.0055,313.1452,85,46,1
313.1452,313.28604,87,47,1
313.28604,313.42776,89,48,1
313.42776,313.56903,90,53,1
313.56903,313.70963,89,52,1
313.70963,313.84958,87,51,1
313.84958,313.98953,85,50,1
313.98953,314.1284,84,49,1
314.1284,314.26855,82,48,1
314.26855,314.41006,80,47,1
314.41006,314.55316,78,46,1
314.7057,314.84717,77,39,1
314.84717,314.98755,76,46,1
314.98755,315.12686,77,44,1
315.2657,315.40543,80,44,1
315.40543,315.54623,79,47,1
315.54623,315.68796,80,40,1
315.82925,315.96985,85,41,1
315.96985,316.1098,84,43,1
316.1098,316.24976,85,42,1
316.24976,316.3886,89,47,1
316.3886,316.52878,85,45,1
316.52878,316.67038,89,49,1
316.67038,316.81543,85,42,1
316.81543,316.96796,89,53,1
316.96796,317.10947,87,51,1
317.10947,317.24985,86,49,1
317.24985,317.38913,84,47,1
317.38913,317.52798,83,45,1
317.52798,317.6677,84,46,1
317.6677,317.80853,86,47,1
317.80853,317.95026,87,48,1
317.95026,318.09155,89,53,1
318.09155,318.23215,87,52,1
318.23215,318.3721,86,51,1
318.3721,318.51202,84,50,1
318.51202,318.65088,83,49,1
318.65088,318.79105,80,48,1
318.79105,318.93256,79,47,1
318.93256,319.07565,77,46,1
319.22818,319.3697,75,39,1
319.3697,319.51007,74,46,1
319.51007,319.64935,75,44,1
319.7882,319.92792,79,44,1
319.92792,320.06876,78,47,1
320.06876,320.21048,79,40,1
320.35175,320.49234,83,41,1
320.49234,320.6323,84,43,1
320.6323,320.77225,83,42,1
320.77225,320.9119,84,47,1
320.9119,321.05453,86,45,1
321.05453,321.2003,87,49,1
321.2003,321.34842,90,42,1
321.34842,321.50235,91,53,1
321.50235,321.6475,86,51,1
321.6475,321.79092,83,49,1
321.79092,321.93277,79,47,1
321.93277,322.0737,78,45,1
322.0737,322.21622,79,46,1
322.21622,322.36035,83,47,1
322.36035,322.5062,86,48,1
322.5062,322.65942,87,53,1
322.65942,322.8024,84,51,1
322.8024,322.94333,79,49,1
322.94333,323.08234,75,47,1
323.08234,323.2213,84,51,1
323.2213,323.36227,79,50,1
323.36227,323.50558,75,49,1
323.50558,323.6511,72,48,1
323.6511,323.80362,83,53,1
323.80362,323.94513,79,51,1
323.94513,324.0855,74,49,1
324.0855,324.2248,71,47,1
324.2248,324.36362,79,51,1
324.36362,324.50336,74,50,1
324.50336,324.64417,71,49,1
324.64417,324.78592,67,48,1
324.78592,324.93933,75,53,1
324.93933,325.0831,72,51,1
325.0831,325.2252,67,49,1
325.2252,325.3657,63,47,1
325.3657,325.50543,72,51,1
325.50543,325.64703,67,50,1
325.64703,325.79068,63,49,1
325.79068,325.93643,60,48,1
325.93643,326.08942,71,53,1
326.08942,326.23355,67,51,1
326.23355,326.37616,62,49,1
326.37616,326.51733,59,47,1
326.51733,326.65762,62,47,1
326.65762,326.79922,65,48,1
326.79922,326.9422,71,50,1
326.9422,327.08667,74,52,1
327.08667,327.24033,72,53,1
327.24033,327.38492,67,51,1
327.38492,327.5281,63,49,1
327.5281,327.66995,60,47,1
327.66995,327.81088,67,51,1
327.81088,327.9532,63,50,1
327.9532,328.09683,60,49,1
328.09683,328.242,55,48,1
328.242,328.39453,67,79,1
328.39453,328.53604,62,75,1
328.53604,328.6764,59,75,1
328.6764,328.8157,55,70,1
328.8157,328.9543,59,75,1
328.9543,329.09296,62,71,1
329.09296,329.2316,59,71,1
329.2316,329.37775,55,71,1
329.37775,329.51834,60,70,1
329.51834,329.65894,55,61,1
329.65894,329.79953,51,61,1
329.79953,329.94788,55,60,1
329.94788,330.08847,51,64,1
330.08847,330.22906,55,54,1
330.22906,330.36966,51,54,1
330.36966,330.51025,48,54,1
330.66315,330.816,55,34,1
330.816,330.95352,50,34,1
330.95352,331.09103,47,34,1
331.22855,331.36606,55,34,1
331.36606,331.50357,50,34,1
331.50357,331.64108,47,34,1
331.7786,331.9161,55,34,1
331.9161,332.05362,50,34,1
332.05362,332.19113,47,34,1
332.32822,332.46707,55,34,1
332.46707,332.60748,50,34,1
332.60748,332.7498,47,34,1
332.89792,333.04608,57,34,1
333.04608,333.1836,51,34,1
333.1836,333.3211,48,34,1
333.45862,333.59613,57,34,1
333.59613,333.73364,51,34,1
333.73364,333.87115,48,34,1
334.00867,334.14618,57,34,1
334.14618,334.2837,51,34,1
334.2837,334.4212,48,34,1
334.5596,334.6998,57,34,1
334.6998,334.84137,51,34,1
334.84137,334.98508,48,34,1
335.13324,335.28137,55,34,1
335.28137,335.41888,50,34,1
335.41888,335.5564,47,34,1
335.6939,335.83142,55,34,1
335.83142,335.96893,50,34,1
335.96893,336.10645,47,34,1
336.244,336.3815,55,34,1
336.3815,336.519,50,34,1
336.519,336.65652,47,34,1
336.7949,336.9351,55,34,1
336.9351,337.0767,50,34,1
337.0767,337.2204,47,34,1
337.36853,337.5167,57,34,1
337.5167,337.6542,51,34,1
337.6542,337.79172,48,34,1
337.931,338.0703,57,34,1
338.0703,338.20963,51,34,1
338.20963,338.3489,48,34,1
338.48822,338.62753,57,34,1
338.62753,338.7668,51,34,1
338.7668,338.90613,48,34,1
339.04453,339.18588,57,34,1
339.18588,339.33276,51,34,1
339.33276,339.48593,48,34,1
339.48593,339.64386,55,77,1
339.64386,339.78204,50,60,1
339.78204,339.91956,47,60,1
339.91956,340.05707,50,60,1
340.05707,340.1997,55,76,1
340.1997,340.34232,50,60,1
340.34232,340.48495,47,60,1
340.48495,340.62756,50,60,1
340.62756,340.76688,55,76,1
340.76688,340.9062,50,59,1
340.9062,341.04547,47,59,1
341.04547,341.18478,50,59,1
341.18478,341.32318,55,67,1
341.32318,341.46338,50,61,1
341.46338,341.60495,47,61,1
341.60495,341.74866,50,61,1
341.74866,341.9066,59,77,1
341.9066,342.04477,55,60,1
342.04477,342.18228,50,60,1
342.18228,342.3198,55,60,1
342.3198,342.46378,59,76,1
342.46378,342.6078,55,60,1
342.6078,342.75177,50,60,1
342.75177,342.89575,55,60,1
342.89575,343.03574,59,76,1
343.03574,343.1757,55,59,1
343.1757,343.31567,50,59,1
343.31567,343.45563,55,59,1
343.45563,343.594,59,66,1
343.594,343.73422,55,58,1
343.73422,343.8758,50,58,1
343.8758,344.0195,55,58,1
344.0195,344.17743,62,77,1
344.17743,344.3156,59,60,1
344.3156,344.45312,55,60,1
344.45312,344.59064,59,60,1
344.59064,344.7306,62,76,1
344.7306,344.87054,59,60,1
344.87054,345.01053,55,60,1
345.01053,345.15048,59,60,1
345.15048,345.28787,62,76,1
345.28787,345.4253,59,59,1
345.4253,345.56268,55,59,1
345.56268,345.70007,59,59,1
345.70007,345.83847,62,66,1
345.83847,345.97867,59,58,1
345.97867,346.12027,55,58,1
346.12027,346.26395,59,58,1
346.26395,346.40213,65,64,1
346.40213,346.5403,62,50,1
346.40213,346.5403,59,39,1
346.5403,346.67847,55,49,1
346.67847,346.81665,59,39,1
346.67847,346.81665,62,49,1
346.81665,346.95685,65,58,1
346.95685,347.09705,59,38,1
346.95685,347.09705,62,47,1
347.09705,347.23724,55,47,1
347.23724,347.37744,59,37,1
347.23724,347.37744,62,47,1
347.37744,347.51495,65,61,1
347.51495,347.65247,62,47,1
347.51495,347.65247,59,37,1
347.65247,347.78998,55,47,1
347.78998,347.9275,59,35,1
347.78998,347.9275,62,46,1
347.9275,348.06772,65,54,1
348.06772,348.20792,59,35,1
348.06772,348.20792,62,44,1
348.20792,348.3481,55,44,1
348.3481,348.4883,59,34,1
348.3481,348.4883,62,43,1
348.4883,348.62646,65,56,1
348.62646,348.76465,62,42,1
348.62646,348.76465,59,33,1
348.76465,348.90283,55,42,1
348.90283,349.041,59,32,1
348.90283,349.041,62,42,1
349.041,349.1819,65,49,1
349.1819,349.32275,59,32,1
349.1819,349.32275,62,39,1
349.32275,349.46365,55,39,1
349.46365,349.60452,59,31,1
349.46365,349.60452,62,39,1
349.60452,349.7427,65,50,1
349.7427,349.8809,62,39,1
349.7427,349.8809,59,30,1
349.8809,350.01904,55,39,1
350.01904,350.15723,59,29,1
350.01904,350.15723,62,38,1
350.15723,350.2981,65,45,1
350.2981,350.439,59,29,1
350.2981,350.439,62,36,1
350.439,350.57986,55,35,1
350.57986,350.72076,59,28,1
350.57986,350.72076,62,35,1
350.72076,350.85895,65,43,1
350.85895,350.9971,62,33,1
350.85895,350.9971,59,26,1
350.9971,351.13528,55,33,1
351.13528,351.27347,59,24,1
351.13528,351.27347,62,31,1
351.27347,351.41367,65,38,1
351.41367,351.55386,59,24,1
351.41367,351.55386,62,31,1
351.55386,351.69406,55,30,1
351.69406,351.83426,59,23,1
351.69406,351.83426,62,30,1
351.83426,351.9724,65,42,1
351.9724,352.1106,62,31,1
351.9724,352.1106,59,25,1
352.1106,352.24878,55,31,1
352.24878,352.38693,59,24,1
352.24878,352.38693,62,30,1
352.38693,352.52713,65,38,1
352.52713,352.66733,59,23,1
352.52713,352.66733,62,30,1
352.66733,352.80756,55,30,1
352.80756,352.94775,59,22,1
352.80756,352.94775,62,30,1
352.94775,353.0859,65,40,1
353.0859,353.2241,62,30,1
353.0859,353.2241,59,24,1
353.2241,353.36227,55,30,1
353.36227,353.50043,59,23,1
353.36227,353.50043,62,30,1
353.50043,353.64133,65,36,1
353.64133,353.7822,59,23,1
353.64133,353.7822,62,30,1
353.7822,353.9231,55,29,1
353.9231,354.06396,59,21,1
353.9231,354.06396,62,29,1
354.06396,354.20215,65,40,1
354.20215,354.34033,62,31,1
354.20215,354.34033,59,23,1
354.34033,354.4785,55,30,1
354.4785,354.61667,59,23,1
354.4785,354.61667,62,29,1
354.61667,354.7562,65,35,1
354.7562,354.8957,59,23,1
354.7562,354.8957,62,29,1
354.8957,355.03522,55,28,1
355.03522,355.17474,59,22,1
355.03522,355.17474,62,28,1
355.17474,355.31293,65,39,1
355.31293,355.45108,62,30,1
355.31293,355.45108,59,23,1
355.45108,355.58926,55,30,1
355.58926,355.72745,59,23,1
355.58926,355.72745,62,29,1
355.72745,355.87006,65,36,1
355.87006,356.0127,59,23,1
355.87006,356.0127,62,29,1
356.0127,356.1553,55,28,1
356.1553,356.29794,59,22,1
356.1553,356.29794,62,28,1
356.29794,356.43726,65,39,1
356.43726,356.57654,62,30,1
356.43726,356.57654,59,24,1
356.57654,356.71585,55,30,1
356.71585,356.85516,59,23,1
356.71585,356.85516,62,29,1
356.85516,356.99915,65,36,1
356.99915,357.14316,59,23,1
356.99915,357.14316,62,29,1
357.14316,357.28714,55,28,1
357.28714,357.43112,59,22,1
357.28714,357.43112,62,28,1
357.43112,357.57175,65,40,1
357.57175,357.71234,62,31,1
357.57175,357.71234,59,24,1
357.71234,357.85297,55,31,1
357.85297,357.99356,59,23,1
357.85297,357.99356,62,30,1
357.99356,358.13824,65,36,1
358.13824,358.28296,59,23,1
358.13824,358.28296,62,30,1
358.28296,358.42764,55,29,1
358.42764,358.57233,59,22,1
358.42764,358.57233,62,29,1
358.57233,358.71426,65,40,1
358.71426,358.85623,62,31,1
358.71426,358.85623,59,24,1
358.85623,358.99817,55,31,1
358.99817,359.14014,59,23,1
358.99817,359.14014,62,30,1
359.14014,359.29373,71,80,1
359.14014,359.29373,59,68,1
359.29373,359.44733,59,57,1
359.29373,359.44733,62,68,1
359.44733,359.60092,71,69,1
359.44733,359.60092,59,57,1
359.60092,359.75452,59,57,1
359.60092,359.75452,62,69,1
359.75452,359.91107,72,104,1
359.75452,359.91107,64,91,1
359.75452,359.91107,60,87,1
360.36703,360.66217,79,77,1
360.36703,360.66217,91,94,1
360.95734,361.79486,79,84,1
360.95734,361.79486,91,100,1
361.79486,362.07404,76,73,1
361.79486,362.07404,88,87,1
362.07404,362.61755,74,77,1
362.07404,362.61755,86,94,1
362.61755,363.1733,67,63,1
362.61755,363.1733,79,76,1
363.1733,363.75534,72,75,1
363.1733,363.75534,84,88,1
363.75534,364.04636,76,73,1
363.75534,364.04636,88,87,1
364.94943,365.2446,79,77,1
364.94943,365.2446,91,94,1
365.53976,366.37726,79,84,1
365.53976,366.37726,91,100,1
366.37726,366.65643,76,73,1
366.37726,366.65643,88,87,1
366.65643,367.19998,74,77,1
366.65643,367.19998,86,94,1
367.19998,367.75574,67,63,1
367.19998,367.75574,79,76,1
367.75574,368.04675,72,69,1
367.75574,368.04675,84,83,1
369.53333,369.8285,77,69,1
369.53333,369.8285,89,82,1
370.12366,370.96115,77,73,1
370.12366,370.96115,89,86,1
370.96115,371.24033,74,45,1
370.96115,371.24033,86,55,1
371.24033,371.78387,76,44,1
371.24033,371.78387,88,52,1
371.78387,372.33963,72,35,1
371.78387,372.33963,84,42,1
372.33963,372.92163,71,44,1
372.33963,372.92163,83,52,1
372.92163,373.21265,74,41,1
372.92163,373.21265,86,49,1
374.11722,374.41238,77,66,1
374.11722,374.41238,89,78,1
374.70752,375.54504,77,71,1
374.70752,375.54504,89,85,1
375.54504,375.82422,74,51,1
375.54504,375.82422,86,62,1
375.82422,376.36777,75,42,1
375.82422,376.36777,87,50,1
376.36777,376.92352,72,33,1
376.36777,376.92352,84,39,1
376.92352,377.50552,71,42,1
376.92352,377.50552,83,50,1
377.50552,378.08755,74,38,1
377.50552,378.08755,86,45,1
378.08755,378.63107,76,50,1
378.08755,378.63107,88,60,1
378.63107,379.18683,72,42,1
378.63107,379.18683,84,50,1
379.18683,379.76886,71,54,1
379.18683,379.76886,83,63,1
379.76886,380.35086,74,52,1
379.76886,380.35086,86,62,1
380.35086,380.8944,75,60,1
380.35086,380.8944,87,60,1
380.8944,381.45016,72,40,1
380.8944,381.45016,84,49,1
381.45016,382.03217,79,50,1
382.03217,382.6087,79,47,1
382.6087,382.70572,81,37,1
382.70572,382.8027,79,37,1
382.8027,382.89972,81,37,1
382.89972,382.9967,79,37,1
382.9967,383.09372,81,38,1
383.09372,383.19073,79,38,1
383.19073,383.28726,81,39,1
383.28726,383.38382,79,39,1
383.38382,383.48035,81,39,1
383.48035,383.5769,79,39,1
383.5769,383.67343,81,40,1
383.67343,383.76953,79,40,1
383.76953,383.86563,81,41,1
383.86563,383.9617,79,41,1
383.9617,384.05734,81,41,1
384.05734,384.153,79,43,1
384.153,384.24844,81,43,1
384.24844,384.34363,79,43,1
384.34363,384.43884,81,44,1
384.43884,384.5336,79,44,1
384.5336,384.62836,81,45,1
384.62836,384.72293,79,45,1
384.72293,384.81726,81,45,1
384.81726,384.9116,79,45,1
384.9116,385.00516,81,47,1
385.00516,385.09738,79,47,1
385.09738,385.19183,81,47,1
385.19183,385.28458,79,47,1
385.28458,385.37784,81,47,1
385.37784,385.47263,79,48,1
385.47263,385.56534,81,48,1
385.56534,385.65884,79,48,1
385.65884,385.75348,81,49,1
385.75348,385.84622,79,49,1
385.84622,385.93948,81,50,1
385.93948,386.03427,79,51,1
386.03427,386.12805,81,51,1
386.12805,386.2208,79,52,1
386.2208,386.31448,81,52,1
386.31448,386.4071,79,52,1
386.4071,386.5005,81,54,1
386.5005,386.5944,79,54,1
386.5944,386.6883,81,54,1
386.6883,386.78262,79,55,1
386.78262,386.8776,81,55,1
386.8776,386.97302,79,55,1
386.97302,387.06912,81,56,1
387.06912,387.1659,79,56,1
387.72766,388.0025,91,89,1
388.27216,389.10373,91,90,1
389.10373,389.3795,88,85,1
389.3795,389.91885,86,90,1
389.91885,390.4713,79,84,1
390.4713,391.0275,84,87,1
391.0275,391.31516,88,84,1
392.22342,392.51663,91,90,1
392.80728,393.64142,91,92,1
393.64142,393.9188,88,84,1
393.9188,394.45984,86,90,1
394.45984,395.01233,79,82,1
395.01233,395.29495,84,86,1
395.57758,395.67178,60,68,1
395.67178,395.766,64,62,1
395.766,395.8602,60,62,1
395.8602,395.9544,55,62,1
395.9544,396.0486,52,62,1
396.0486,396.1428,55,62,1
396.1428,396.2357,60,68,1
396.2357,396.32858,65,62,1
396.32858,396.42145,60,62,1
396.42145,396.51434,57,62,1
396.51434,396.60724,53,62,1
396.60724,396.7001,57,62,1
396.7001,396.793,60,68,1
396.793,396.8859,64,61,1
396.8859,396.97876,60,61,1
396.97876,397.07166,55,61,1
397.07166,397.16455,52,61,1
397.16455,397.25742,55,61,1
397.25742,397.3503,60,63,1
397.3503,397.4432,62,59,1
397.4432,397.53607,60,59,1
397.53607,397.62897,53,59,1
397.62897,397.72186,50,59,1
397.72186,397.81473,53,59,1
397.81473,397.90894,60,68,1
397.90894,398.00314,63,61,1
398.00314,398.09735,60,61,1
398.09735,398.19156,54,61,1
398.19156,398.28577,51,61,1
398.28577,398.37997,54,61,1
398.37997,398.47418,60,68,1
398.47418,398.5684,64,62,1
398.5684,398.6626,60,62,1
398.6626,398.7568,55,62,1
398.7568,398.851,52,62,1
398.851,398.94522,55,62,1
398.94522,399.0403,59,68,1
399.0403,399.13544,62,61,1
399.13544,399.23056,59,61,1
399.23056,399.32565,53,61,1
399.32565,399.42078,50,61,1
399.42078,399.51587,53,61,1
399.51587,399.61008,55,68,1
399.61008,399.70428,60,62,1
399.70428,399.7985,55,62,1
399.7985,399.8927,52,62,1
399.8927,399.9869,48,62,1
399.9869,400.08112,52,62,1
400.08112,400.17444,64,68,1
400.17444,400.26773,67,62,1
400.26773,400.36105,64,62,1
400.36105,400.45435,60,62,1
400.45435,400.54767,55,62,1
400.54767,400.64096,60,62,1
400.64096,400.73257,65,68,1
400.73257,400.8242,69,62,1
400.8242,400.91577,65,62,1
400.91577,401.0074,60,62,1
401.0074,401.09897,57,62,1
401.09897,401.19058,60,62,1
401.19058,401.28302,64,68,1
401.28302,401.37546,67,61,1
401.37546,401.46793,64,61,1
401.46793,401.56036,60,61,1
401.56036,401.6528,55,61,1
401.6528,401.74527,60,61,1
401.74527,401.8377,62,63,1
401.8377,401.93015,65,59,1
401.93015,402.0226,62,59,1
402.0226,402.11505,60,59,1
402.11505,402.2075,53,59,1
402.2075,402.29993,60,59,1
402.29993,402.39413,63,68,1
402.39413,402.4883,66,61,1
402.4883,402.58252,63,61,1
402.58252,402.6767,60,61,1
402.6767,402.77087,54,61,1
402.77087,402.86508,60,61,1
402.86508,402.95926,64,68,1
402.95926,403.05344,67,62,1
403.05344,403.14764,64,62,1
403.14764,403.24182,60,62,1
403.24182,403.33603,55,62,1
403.33603,403.4302,60,62,1
403.4302,403.52533,62,68,1
403.52533,403.62042,65,61,1
403.62042,403.71555,62,61,1
403.71555,403.81064,59,61,1
403.81064,403.90576,53,61,1
403.90576,404.0009,59,61,1
404.0009,404.09552,60,68,1
404.09552,404.19064,64,62,1
404.19064,404.28577,60,62,1
404.28577,404.38086,55,62,1
404.38086,404.47598,52,62,1
404.47598,404.57108,55,62,1
404.57108,404.6662,67,68,1
404.6662,404.76132,72,59,1
404.76132,404.8564,67,59,1
404.8564,404.95154,64,67,1
404.95154,405.04666,60,58,1
405.04666,405.14175,64,58,1
405.14175,405.23376,69,71,1
405.23376,405.32578,72,61,1
405.32578,405.4178,69,61,1
405.4178,405.5098,65,67,1
405.5098,405.60184,60,60,1
405.60184,405.69385,65,60,1
405.69385,405.7867,67,68,1
405.7867,405.87958,72,59,1
405.87958,405.97244,67,60,1
405.97244,406.0653,64,67,1
406.0653,406.15817,60,58,1
406.15817,406.25104,64,58,1
406.25104,406.3439,65,70,1
406.3439,406.43677,72,59,1
406.43677,406.52963,65,59,1
406.52963,406.62253,62,67,1
406.62253,406.7154,60,60,1
406.7154,406.80826,62,59,1
406.80826,406.90247,66,66,1
406.90247,406.99667,72,57,1
406.99667,407.09088,66,60,1
407.09088,407.1851,63,70,1
407.1851,407.2793,60,58,1
407.2793,407.37347,63,58,1
407.37347,407.46768,67,71,1
407.46768,407.5619,72,61,1
407.5619,407.6561,67,61,1
407.6561,407.7503,64,67,1
407.7503,407.8445,60,60,1
407.8445,407.93872,64,60,1
407.93872,408.03384,65,68,1
408.03384,408.12894,72,56,1
408.12894,408.22406,65,57,1
408.22406,408.31918,62,62,1
408.31918,408.41428,59,58,1
408.41428,408.5094,62,58,1
408.5094,408.6036,67,63,1
408.6036,408.6978,72,57,1
408.6978,408.79202,67,57,1
408.79202,408.88623,64,60,1
408.88623,408.98587,60,57,1
408.98587,409.09097,64,57,1
409.09097,409.1843,72,68,1
409.1843,409.27762,76,59,1
409.27762,409.3709,72,59,1
409.3709,409.46423,67,67,1
409.46423,409.55753,64,58,1
409.55753,409.65085,67,58,1
409.65085,409.74286,72,71,1
409.74286,409.83487,77,61,1
409.83487,409.92688,72,61,1
409.92688,410.0189,69,67,1
410.0189,410.1109,65,60,1
410.1109,410.2029,69,60,1
410.2029,410.29578,72,68,1
410.29578,410.38867,76,59,1
410.38867,410.48154,72,60,1
410.48154,410.5744,67,67,1
410.5744,410.66727,64,58,1
410.66727,410.76013,67,58,1
410.76013,410.853,72,70,1
410.853,410.94586,74,59,1
410.94586,411.03873,72,59,1
411.03873,411.1316,65,67,1
411.1316,411.22446,62,60,1
411.22446,411.31732,65,59,1
411.31732,411.41153,72,66,1
411.41153,411.50574,75,57,1
411.50574,411.59995,72,60,1
411.59995,411.69415,66,70,1
411.69415,411.78836,63,58,1
411.78836,411.88257,66,58,1
411.88257,411.97678,72,71,1
411.97678,412.07098,76,61,1
412.07098,412.1652,72,61,1
412.1652,412.2594,67,67,1
412.2594,412.3536,64,60,1
412.3536,412.4478,67,60,1
412.4478,412.54294,71,68,1
412.54294,412.63803,74,56,1
412.63803,412.73315,71,57,1
412.73315,412.82825,65,62,1
412.82825,412.92337,62,58,1
412.92337,413.0185,65,58,1
413.0185,413.1127,67,63,1
413.1127,413.20688,72,57,1
413.20688,413.3011,67,57,1
413.3011,413.3953,64,60,1
413.3953,413.49524,60,57,1
413.49524,413.6009,64,57,1
413.6009,413.69556,72,74,1
413.69556,413.79022,76,59,1
413.79022,413.8849,72,59,1
413.8849,413.97955,67,70,1
413.97955,414.07422,64,58,1
414.07422,414.16888,67,58,1
414.16888,414.26175,71,71,1
414.26175,414.35464,74,61,1
414.35464,414.44754,71,61,1
414.44754,414.5404,67,67,1
414.5404,414.63913,62,60,1
414.63913,414.74368,67,60,1
414.74368,414.83835,74,74,1
414.83835,414.933,77,59,1
414.933,415.02768,74,59,1
415.02768,415.12234,69,70,1
415.12234,415.217,65,58,1
415.217,415.31165,69,58,1
415.31165,415.40454,72,71,1
415.40454,415.49744,76,61,1
415.49744,415.5903,72,61,1
415.5903,415.6832,69,67,1
415.6832,415.78058,64,60,1
415.78058,415.88248,69,60,1
415.88248,415.97714,77,74,1
415.97714,416.0718,81,59,1
416.0718,416.16647,77,59,1
416.16647,416.26114,72,70,1
416.26114,416.3558,69,58,1
416.3558,416.45044,72,58,1
416.45044,416.54465,74,75,1
416.54465,416.63882,79,61,1
416.63882,416.733,74,61,1
416.733,416.8272,72,67,1
416.8272,416.9214,67,60,1
416.9214,417.0156,72,60,1
417.0156,417.11023,74,74,1
417.11023,417.2049,79,59,1
417.2049,417.29956,74,59,1
417.29956,417.39423,71,70,1
417.39423,417.4889,67,58,1
417.4889,417.58356,71,58,1
417.58356,417.67642,76,71,1
417.67642,417.7693,79,58,1
417.7693,417.8626,76,58,1
417.8626,417.9559,72,63,1
417.9559,418.04965,67,60,1
418.04965,418.14337,72,58,1
418.14337,418.23758,76,74,1
418.23758,418.33176,79,59,1
418.33176,418.42593,76,59,1
418.42593,418.52014,72,70,1
418.52014,418.61432,67,58,1
418.61432,418.70764,72,58,1
418.70764,418.80008,74,71,1
418.80008,418.89294,79,61,1
418.89294,418.98605,74,61,1
418.98605,419.07935,71,67,1
419.07935,419.17822,67,60,1
419.17822,419.27734,71,60,1
419.27734,419.37173,77,74,1
419.37173,419.46637,81,59,1
419.46637,419.561,77,59,1
419.561,419.65564,74,70,1
419.65564,419.75027,69,58,1
419.75027,419.8449,74,58,1
419.8449,419.9378,76,71,1
419.9378,420.03067,81,61,1
420.03067,420.12357,76,61,1
420.12357,420.21646,72,67,1
420.21646,420.31464,69,60,1
420.31464,420.41812,72,60,1
420.41812,420.5128,81,74,1
420.5128,420.60742,84,59,1
420.60742,420.7021,81,59,1
420.7021,420.79675,76,70,1
420.79675,420.89142,72,58,1
420.89142,420.98608,76,58,1
420.98608,421.07898,81,75,1
421.07898,421.17184,84,61,1
421.17184,421.26474,81,61,1
421.26474,421.3576,78,67,1
421.3576,421.4505,72,60,1
421.4505,421.5434,78,60,1
421.5434,421.63806,81,74,1
421.63806,421.73273,84,59,1
421.73273,421.82736,81,59,1
421.82736,421.92203,78,70,1
421.92203,422.0167,72,58,1
422.0167,422.11136,78,58,1
422.11136,422.20425,79,71,1
422.20425,422.29712,83,58,1
422.29712,422.39,79,58,1
422.39,422.4829,74,63,1
422.4829,422.58188,71,60,1
422.58188,422.687,74,58,1
422.687,422.78168,81,74,1
422.78168,422.8763,86,59,1
422.8763,422.97098,81,59,1
422.97098,423.06564,78,70,1
423.06564,423.1603,74,58,1
423.1603,423.25497,78,58,1
423.25497,423.34784,83,75,1
423.34784,423.44073,86,61,1
423.44073,423.53363,83,61,1
423.53363,423.6265,79,67,1
423.6265,423.7194,74,60,1
423.7194,423.8123,79,60,1
423.8123,423.90695,81,74,1
423.90695,424.0016,86,59,1
424.0016,424.09625,81,59,1
424.09625,424.19092,78,70,1
424.19092,424.28558,74,58,1
424.28558,424.38025,78,58,1
424.38025,424.47314,83,77,1
424.47314,424.566,86,58,1
424.566,424.6589,83,58,1
424.6589,424.7518,79,63,1
424.7518,424.85077,74,60,1
424.85077,424.9559,79,58,1
424.9559,425.04962,86,51,1
425.04962,425.14337,90,40,1
425.14337,425.2371,86,40,1
425.2371,425.33084,81,48,1
425.33084,425.4246,78,39,1
425.4246,425.5183,81,39,1
425.5183,425.61032,86,51,1
425.61032,425.70236,91,42,1
425.70236,425.79437,86,42,1
425.79437,425.88638,83,45,1
425.88638,425.9784,79,41,1
425.9784,426.0704,83,41,1
426.0704,426.16412,86,51,1
426.16412,426.25787,90,40,1
426.25787,426.35162,86,40,1
426.35162,426.44534,81,48,1
426.44534,426.5391,78,39,1
426.5391,426.63284,81,39,1
426.63284,426.7257,86,52,1
426.7257,426.8186,91,39,1
426.8186,426.9115,86,39,1
426.9115,427.00436,83,43,1
427.00436,427.1039,79,41,1
427.1039,427.21014,83,39,1
427.21014,427.3048,81,81,1
427.3048,427.39948,86,61,1
427.39948,427.49414,81,61,1
427.49414,427.5888,78,69,1
427.5888,427.68344,74,63,1
427.68344,427.7781,78,63,1
427.7781,427.871,83,82,1
427.871,427.9639,86,62,1
427.9639,428.05676,83,62,1
428.05676,428.14966,79,67,1
428.14966,428.24255,74,63,1
428.24255,428.33542,79,66,1
428.33542,428.43008,81,81,1
428.43008,428.52475,86,61,1
428.52475,428.61942,81,61,1
428.61942,428.71408,78,68,1
428.71408,428.80875,74,63,1
428.80875,428.90338,78,63,1
428.90338,428.99628,83,84,1
428.99628,429.08917,86,63,1
429.08917,429.18204,83,63,1
429.18204,429.27493,79,69,1
429.27493,429.37283,74,66,1
429.37283,429.4758,79,63,1
429.4758,429.56952,86,51,1
429.56952,429.66327,90,40,1
429.66327,429.75702,86,40,1
429.75702,429.85074,81,48,1
429.85074,429.9445,78,39,1
429.9445,430.0382,81,39,1
430.0382,430.13025,86,51,1
430.13025,430.22226,91,42,1
430.22226,430.31427,86,42,1
430.31427,430.40628,83,45,1
430.40628,430.4983,79,41,1
430.4983,430.5903,83,41,1
430.5903,430.68497,86,51,1
430.68497,430.77963,90,40,1
430.77963,430.8743,86,40,1
430.8743,430.96893,81,48,1
430.96893,431.0636,78,39,1
431.0636,431.15826,81,39,1
431.15826,431.25116,86,57,1
431.25116,431.34402,91,42,1
431.34402,431.43692,86,44,1
431.43692,431.52982,83,49,1
431.52982,431.62268,79,48,1
431.62268,431.71558,83,47,1
431.71558,431.81024,86,63,1
431.81024,431.9049,90,50,1
431.9049,431.99957,86,51,1
431.99957,432.09424,81,63,1
432.09424,432.18887,78,52,1
432.18887,432.28354,81,53,1
432.28354,432.37643,86,72,1
432.37643,432.46933,91,60,1
432.46933,432.5622,86,62,1
432.5622,432.6551,83,67,1
432.6551,432.74796,79,62,1
432.74796,432.84085,83,64,1
432.84085,432.93552,86,80,1
432.93552,433.03018,90,64,1
433.03018,433.12485,86,66,1
433.12485,433.2195,81,80,1
433.2195,433.31415,78,66,1
433.31415,433.4088,81,67,1
433.4088,433.71112,79,98,1
433.4088,433.71112,91,104,1
434.01343,434.32367,79,96,1
434.01343,434.32367,67,81,1
434.01343,434.32367,71,81,1
434.01343,434.32367,74,81,1
434.63388,435.83704,79,96,1
434.63388,435.83704,67,81,1
434.63388,435.83704,71,81,1
434.63388,435.83704,74,81,1
436.4386,436.7456,83,96,1
436.4386,436.7456,71,81,1
436.4386,436.7456,74,81,1
436.4386,436.7456,79,81,1
437.05264,438.26184,83,96,1
437.05264,438.26184,71,81,1
437.05264,438.26184,74,81,1
437.05264,438.26184,79,81,1
438.86642,439.17667,86,96,1
438.86642,439.17667,74,81,1
438.86642,439.17667,77,81,1
438.86642,439.17667,83,81,1
439.4869,440.70233,86,96,1
439.4869,440.70233,74,81,1
439.4869,440.70233,77,81,1
439.4869,440.70233,83,81,1
441.31006,441.63034,89,96,1
441.31006,441.63034,77,81,1
441.31006,441.63034,83,81,1
441.31006,441.63034,86,81,1
441.95062,443.18506,89,96,1
441.95062,443.18506,77,81,1
441.95062,443.18506,83,81,1
441.95062,443.18506,86,81,1
443.81134,444.11676,92,81,1
443.81134,444.11676,83,69,1
443.81134,444.11676,86,69,1
443.81134,444.11676,89,69,1
445.0361,445.34152,89,70,1
445.0361,445.34152,80,60,1
445.0361,445.34152,83,60,1
445.0361,445.34152,86,60,1
446.26694,446.57236,77,57,1
446.26694,446.57236,86,67,1
446.26694,446.57236,83,57,1
446.26694,446.57236,80,57,1
447.49777,447.8032,74,50,1
447.49777,447.8032,83,60,1
447.49777,447.8032,80,50,1
447.49777,447.8032,77,50,1
448.7194,449.0248,80,49,1
448.7194,449.0248,71,41,1
448.7194,449.0248,74,41,1
448.7194,449.0248,77,41,1
449.941,450.24643,74,39,1
449.941,450.24643,68,39,1
449.941,450.24643,71,39,1
449.941,450.24643,77,46,1
451.16208,451.47244,74,44,1
451.16208,451.47244,65,36,1
451.16208,451.47244,68,36,1
451.16208,451.47244,71,36,1
452.42307,452.74173,71,41,1
452.42307,452.74173,62,34,1
452.42307,452.74173,65,34,1
452.42307,452.74173,68,34,1
453.69763,454.01627,68,32,1
453.69763,454.01627,59,26,1
453.69763,454.01627,62,26,1
453.69763,454.01627,65,26,1
456.24677,456.88403,67,32,1
456.24677,456.88403,58,26,1
456.24677,456.88403,61,26,1
456.24677,456.88403,64,26,1
458.80392,459.46497,66,32,1
458.80392,459.46497,57,26,1
458.80392,459.46497,60,26,1
458.80392,459.46497,63,26,1
461.56982,467.70334,65,27,1
461.56982,467.70334,62,22,1
461.56982,467.70334,59,22,1
467.70334,467.9743,60,85,1
467.9743,468.0789,91,50,1
468.18347,468.47397,91,53,1
468.47397,468.5708,88,50,1
468.5708,468.76633,86,54,1
468.76633,468.958,79,50,1
468.958,469.1561,84,50,1
469.1561,469.35416,88,49,1
469.55945,469.6585,91,50,1
469.75754,470.0462,91,53,1
470.0462,470.14246,88,50,1
470.14246,470.33795,86,54,1
470.33795,470.52966,79,50,1
470.52966,470.72775,84,50,1
470.9258,471.0202,91,50,1
471.0202,471.1146,90,47,1
471.1146,471.20898,91,50,1
471.20898,471.30338,90,46,1
471.30338,471.39777,91,50,1
471.39777,471.49216,90,47,1
471.49216,471.5868,91,50,1
471.5868,471.68256,88,47,1
471.68256,471.77832,86,48,1
471.77832,471.8741,85,43,1
471.8741,471.96988,86,48,1
471.96988,472.06564,79,45,1
472.06564,472.16284,84,48,1
472.16284,472.26004,83,44,1
472.26004,472.35724,84,50,1
472.35724,472.4575,88,46,1
472.4575,472.5519,91,50,1
472.5519,472.6463,90,46,1
472.6463,472.7407,91,50,1
472.7407,472.83508,90,47,1
472.83508,472.92947,91,50,1
472.92947,473.02386,90,46,1
473.02386,473.11847,91,50,1
473.11847,473.21426,88,44,1
473.21426,473.31003,86,48,1
473.31003,473.4058,85,45,1
473.4058,473.50156,86,49,1
473.50156,473.59735,79,45,1
473.59735,473.69455,84,49,1
473.69455,473.79172,83,46,1
473.79172,473.88892,84,49,1
473.88892,473.9861,88,46,1
473.9861,474.08188,86,59,1
474.08188,474.17767,85,55,1
474.17767,474.27344,86,68,1
474.27344,474.3692,79,62,1
474.3692,474.47256,84,74,1
474.46463,474.568,83,67,1
474.56003,474.66357,84,67,1
474.65546,474.75302,88,67,1
474.75302,474.85638,83,76,1
474.84842,474.95178,82,69,1
474.94385,475.04736,83,69,1
475.03925,475.13644,86,69,1
475.13644,475.2398,81,75,1
475.23187,475.33524,80,70,1
475.32727,475.43085,81,70,1
475.4227,475.52063,84,70,1
475.52063,475.624,79,75,1
475.61603,475.7194,78,69,1
475.71146,475.81494,79,69,1
475.80685,475.90405,83,69,1
475.90405,476.00742,77,75,1
475.99945,476.10284,76,69,1
476.09488,476.19843,77,69,1
476.1903,476.28784,81,69,1
476.28784,476.39185,76,75,1
476.38385,476.48785,75,70,1
476.47983,476.5841,76,70,1
476.57584,476.67502,79,70,1
476.67502,476.77933,74,75,1
476.7713,476.87564,73,70,1
476.8676,476.97226,74,70,1
476.96393,477.06375,77,69,1
477.06375,477.16876,72,75,1
477.1607,477.26572,71,69,1
477.25763,477.36285,72,69,1
477.35455,477.45407,76,69,1
477.45407,477.55872,76,75,1
477.55066,477.65533,75,68,1
477.64728,477.75214,76,68,1
477.7439,477.84274,79,68,1
477.84274,477.94708,74,75,1
477.93906,478.0434,73,68,1
478.03537,478.1399,74,68,1
478.13168,478.2302,71,68,1
478.2302,478.33356,72,74,1
478.3256,478.42896,71,68,1
478.42102,478.52457,72,68,1
478.51642,478.61398,69,68,1
478.61398,478.71735,71,74,1
478.7094,478.81277,70,69,1
478.8048,478.90836,71,68,1
478.90024,478.9978,67,68,1
478.9978,479.10117,69,74,1
479.0932,479.19656,68,68,1
479.18863,479.29218,69,68,1
479.28403,479.3816,65,68,1
479.3816,479.48526,67,74,1
479.47726,479.58093,66,68,1
479.57297,479.67694,67,68,1
479.66864,479.76816,64,68,1
479.76816,479.8725,65,74,1
479.86447,479.9688,64,68,1
479.9608,480.0658,65,68,1
480.05746,480.15732,62,68,1
480.15732,480.26196,64,91,1
480.2539,480.35858,60,81,1
480.35052,480.4553,55,81,1
480.44714,480.54507,64,81,1
480.54507,480.64905,62,90,1
480.64105,480.74506,59,81,1
480.73706,480.8412,55,81,1
480.83304,480.9306,62,81,1
480.9306,481.03397,65,91,1
481.02603,481.1294,62,81,1
481.12143,481.225,57,81,1
481.21686,481.3148,65,81,1
481.3148,481.41815,64,90,1
481.4102,481.51355,60,81,1
481.5056,481.60922,57,81,1
481.601,481.6993,64,81,1
481.6993,481.80267,69,90,1
481.7947,481.89807,65,81,1
481.89014,481.99374,60,81,1
481.98553,482.08383,69,81,1
482.08383,482.1872,67,90,1
482.17923,482.2826,64,81,1
482.27466,482.37823,60,81,1
482.37006,482.468,72,81,1
482.468,482.57135,62,91,1
482.56342,482.66678,72,81,1
482.6588,482.7624,67,81,1
482.75424,482.85214,62,81,1
482.85214,482.9555,71,91,1
482.94757,483.05093,67,81,1
483.04297,483.14658,62,81,1
483.1384,483.2367,71,81,1
483.2367,483.34006,76,91,1
483.3321,483.43546,72,81,1
483.42752,483.53107,67,81,1
483.52292,483.62085,76,81,1
483.62085,483.7242,67,91,1
483.71625,483.8196,74,81,1
483.81168,483.91528,71,81,1
483.90707,484.00537,67,81,1
484.00537,484.10873,77,91,1
484.10077,484.20416,74,81,1
484.1962,484.2998,69,81,1
484.29163,484.3899,77,81,1
484.3899,484.49326,69,93,1
484.48532,484.58868,76,81,1
484.58072,484.68433,72,81,1
484.67615,484.7744,69,81,1
484.7744,484.8791,81,92,1
484.87103,484.9757,77,81,1
484.96768,485.07266,72,81,1
485.0643,485.1646,81,81,1
485.1646,485.27,72,92,1
485.2619,485.36728,81,81,1
485.35916,485.4649,77,81,1
485.45645,485.55817,72,81,1
485.55817,485.6639,81,92,1
485.6558,485.7615,77,81,1
485.7534,485.85938,72,81,1
485.85098,485.95166,81,81,1
485.95166,486.05774,72,91,1
486.0496,486.15567,81,81,1
486.14752,486.25394,77,81,1
486.24545,486.34717,72,81,1
486.55807,486.6571,84,50,1
486.75613,487.04483,84,53,1
487.04483,487.14105,81,50,1
487.14105,487.33655,79,54,1
487.33655,487.52826,72,50,1
487.52826,487.72635,77,50,1
487.72635,487.9244,81,47,1
488.1132,488.20758,84,50,1
488.20758,488.30197,83,46,1
488.30197,488.39636,84,50,1
488.39636,488.49075,83,47,1
488.49075,488.5854,84,50,1
488.5854,488.68115,81,47,1
488.68115,488.77692,79,48,1
488.77692,488.8727,78,43,1
488.8727,488.96848,79,48,1
488.96848,489.06424,72,45,1
489.06424,489.16144,77,48,1
489.16144,489.25864,76,44,1
489.25864,489.35583,77,50,1
489.35583,489.45612,81,46,1
489.667,489.86505,77,39,1
489.667,489.86505,89,46,1
489.86505,490.15375,77,40,1
489.86505,490.15375,89,48,1
490.15375,490.24997,74,39,1
490.15375,490.24997,86,46,1
490.24997,490.4455,76,41,1
490.24997,490.4455,88,49,1
490.4455,490.63718,72,39,1
490.4455,490.63718,84,46,1
490.63718,490.83527,71,39,1
490.63718,490.83527,83,46,1
490.83527,491.03333,74,35,1
490.83527,491.03333,86,42,1
491.2442,491.4423,77,39,1
491.2442,491.4423,89,46,1
491.4423,491.73096,77,40,1
491.4423,491.73096,89,48,1
491.73096,491.8272,74,39,1
491.73096,491.8272,86,46,1
491.8272,492.0307,76,41,1
491.8272,492.0307,88,49,1
492.0227,492.22266,84,46,1
492.0227,492.22266,72,39,1
492.21442,492.42075,83,46,1
492.21442,492.42075,71,39,1
492.41248,492.61057,86,42,1
492.41248,492.61057,74,35,1
492.61057,492.81406,72,41,1
492.61057,492.81406,84,49,1
492.8061,493.00598,81,46,1
492.8061,493.00598,69,39,1
492.99777,493.20248,79,46,1
492.99777,493.20248,67,39,1
493.1943,493.39084,83,42,1
493.1943,493.39084,71,35,1
493.39084,493.59433,69,41,1
493.39084,493.59433,81,49,1
493.58636,493.78625,77,46,1
493.58636,493.78625,65,39,1
493.77805,493.9828,76,46,1
493.77805,493.9828,64,39,1
493.97458,494.1711,79,42,1
493.97458,494.1711,67,35,1
494.1711,494.37125,65,42,1
494.1711,494.37125,77,51,1
494.36307,494.56696,74,48,1
494.36307,494.56696,62,40,1
494.55893,494.75967,76,48,1
494.55893,494.75967,64,41,1
494.75153,494.94675,72,44,1
494.75153,494.94675,60,36,1
494.94675,495.1475,62,43,1
494.94675,495.1475,74,52,1
495.13934,495.3432,71,49,1
495.13934,495.3432,59,41,1
495.3352,495.53528,72,49,1
495.3352,495.53528,60,41,1
495.52716,495.72238,69,46,1
495.52716,495.72238,57,37,1
495.72238,495.92245,59,44,1
495.72238,495.92245,71,54,1
495.91434,496.11755,67,50,1
495.91434,496.11755,55,42,1
496.10956,496.31024,69,50,1
496.10956,496.31024,57,42,1
496.30212,496.49667,65,47,1
496.30212,496.49667,53,39,1
496.49667,496.6962,55,46,1
496.49667,496.6962,67,55,1
496.68805,496.89133,64,51,1
496.68805,496.89133,52,43,1
496.88318,497.08664,65,51,1
496.88318,497.08664,53,43,1
497.0783,497.27805,59,48,1
497.0783,497.27805,47,40,1
497.27805,497.47736,60,104,1
497.27805,497.47736,51,104,1
498.20816,498.3371,72,74,1
498.3371,498.46606,75,74,1
498.46606,498.595,80,78,1
498.595,498.72394,84,74,1
498.72394,498.85956,87,74,1
498.85956,498.98636,85,58,1
498.98636,499.11313,82,49,1
499.11313,499.2399,79,49,1
499.2399,499.36734,73,55,1
499.36734,499.4958,70,50,1
499.4958,499.63235,67,50,1
499.63235,499.75992,85,56,1
499.75992,499.8875,82,49,1
499.8875,500.0151,79,49,1
500.0151,500.14267,73,55,1
500.14267,500.27026,70,50,1
500.27026,500.41125,67,50,1
501.34134,501.4703,68,74,1
501.4703,501.59924,72,74,1
501.59924,501.7282,77,78,1
501.7282,501.85715,80,74,1
501.85715,501.99277,84,74,1
501.99277,502.11993,82,58,1
502.11993,502.24713,79,49,1
502.24713,502.3743,76,49,1
502.3743,502.50146,70,55,1
502.50146,502.62866,67,50,1
502.62866,502.76523,64,50,1
502.76523,502.8928,82,56,1
502.8928,503.0204,79,49,1
503.0204,503.14798,76,49,1
503.14798,503.27554,70,55,1
503.27554,503.40314,67,50,1
503.40314,503.53073,64,50,1
504.46085,504.58978,65,74,1
504.58978,504.71872,68,74,1
504.71872,504.8477,73,78,1
504.8477,504.97662,77,74,1
504.97662,505.11224,80,74,1
505.11224,505.23984,78,58,1
505.23984,505.36743,75,49,1
505.36743,505.495,72,49,1
505.495,505.6226,66,55,1
505.6226,505.75015,63,50,1
505.75015,505.88672,60,50,1
505.88672,506.01474,78,56,1
506.01474,506.14273,75,49,1
506.14273,506.27072,72,49,1
506.27072,506.3987,66,55,1
506.3987,506.5267,63,50,1
506.5267,506.66006,60,50,1
506.78946,506.91882,53,39,1
506.91882,507.04822,58,40,1
507.04822,507.17758,61,41,1
507.17758,507.30698,65,43,1
507.30698,507.43637,70,44,1
507.43637,507.56573,73,46,1
507.56573,507.69513,77,45,1
507.69513,507.8303,82,47,1
507.8303,507.9614,85,49,1
507.9614,508.0925,89,45,1
508.0925,508.23602,77,41,1
508.36542,508.4948,53,39,1
508.4948,508.62418,56,40,1
508.62418,508.75357,60,41,1
508.75357,508.88293,65,43,1
508.88293,509.01233,68,44,1
509.01233,509.14172,72,46,1
509.14172,509.2711,77,45,1
509.2711,509.40625,80,47,1
509.40625,509.53735,84,49,1
509.53735,509.66846,89,45,1
509.66846,509.812,77,41,1
509.94138,510.07077,53,39,1
510.07077,510.20016,59,40,1
510.20016,510.32953,62,41,1
510.32953,510.45892,65,43,1
510.45892,510.5883,71,44,1
510.5883,510.71768,74,46,1
510.71768,510.84708,77,45,1
510.84708,510.98224,83,47,1
510.98224,511.11334,86,49,1
511.11334,511.24445,89,45,1
511.24445,511.38797,77,41,1
511.51736,511.64673,51,39,1
511.64673,511.77612,56,40,1
511.77612,511.90552,60,41,1
511.90552,512.0349,63,43,1
512.0349,512.16425,68,44,1
512.16425,512.29364,72,46,1
512.29364,512.42303,75,45,1
512.42303,512.5582,80,47,1
512.5582,512.68933,84,49,1
512.68933,512.82043,87,45,1
512.82043,512.9639,75,41,1
514.13214,514.26196,60,45,1
514.26196,514.3918,63,41,1
514.3918,514.52155,66,41,1
514.52155,514.65137,69,46,1
514.65137,514.7812,72,41,1
514.7812,514.91095,75,41,1
514.91095,515.0408,78,46,1
515.0408,515.1706,81,41,1
515.1706,515.3004,84,41,1
515.3004,515.43085,87,47,1
515.43085,515.56213,84,43,1
515.56213,515.69434,81,43,1
515.69434,515.82745,90,47,1
515.82745,515.96405,87,43,1
515.96405,516.1256,84,43,1
516.2422,516.348,79,41,1
516.2422,516.348,91,49,1
516.33984,516.4457,89,49,1
516.33984,516.4457,77,41,1
516.43756,516.54333,88,49,1
516.43756,516.54333,76,41,1
516.5352,516.64105,86,48,1
516.5352,516.64105,74,40,1
516.6329,516.7387,84,48,1
516.6329,516.7387,72,40,1
516.7306,516.83636,83,47,1
516.7306,516.83636,71,39,1
516.82825,516.934,81,39,1
516.82825,516.934,69,39,1
516.9259,517.12134,67,39,1
516.9259,517.12134,79,47,1
517.12134,517.2278,77,45,1
517.12134,517.2278,65,38,1
517.2196,517.3269,64,38,1
517.2196,517.3269,76,45,1
517.3186,517.4269,62,37,1
517.3186,517.4269,74,44,1
517.4185,517.5276,60,37,1
517.4185,517.5276,72,44,1
517.51917,517.6303,59,36,1
517.51917,517.6303,71,43,1
517.6216,517.737,57,35,1
517.6216,517.737,69,42,1
517.7279,518.5205,64,35,1
517.7279,518.5205,55,35,1
517.7279,518.5205,60,35,1
518.5205,518.9112,62,35,1
518.5205,518.9112,59,35,1
517.7279,518.9112,67,42,1
518.9112,519.3019,77,46,1
518.9112,519.3019,74,42,1
519.3019,519.35077,76,49,1
519.3019,519.35077,72,41,1
519.3996,519.5054,79,41,1
519.3996,519.5054,91,49,1
519.49725,519.6031,89,49,1
519.49725,519.6031,77,41,1
519.5949,519.70074,88,49,1
519.5949,519.70074,76,41,1
519.6926,519.7984,86,48,1
519.6926,519.7984,74,40,1
519.7903,519.8961,84,48,1
519.7903,519.8961,72,40,1
519.88794,519.9938,83,47,1
519.88794,519.9938,71,39,1
519.98566,520.09143,81,39,1
519.98566,520.09143,69,39,1
520.0833,520.2787,67,39,1
520.0833,520.2787,79,47,1
520.2787,520.3852,77,45,1
520.2787,520.3852,65,38,1
520.377,520.4843,64,38,1
520.377,520.4843,76,45,1
520.476,520.5843,62,37,1
520.476,520.5843,74,44,1
520.5759,520.685,60,37,1
520.5759,520.685,72,44,1
520.6766,520.7877,59,36,1
520.6766,520.7877,71,43,1
520.779,520.8944,57,35,1
520.779,520.8944,69,42,1
520.8853,521.6779,64,35,1
520.8853,521.6779,55,35,1
520.8853,521.6779,60,35,1
521.6779,522.0686,62,35,1
521.6779,522.0686,59,35,1
520.8853,522.0686,67,42,1
522.0686,522.4593,77,46,1
522.0686,522.4593,74,42,1
522.4593,522.5331,76,49,1
522.4593,522.5331,72,41,1
522.6068,522.71265,79,41,1
522.6068,522.71265,91,49,1
522.70447,522.8103,89,49,1
522.70447,522.8103,77,41,1
522.8022,522.90796,88,49,1
522.8022,522.90796,76,41,1
522.89984,523.0057,86,48,1
522.89984,523.0057,74,40,1
522.9975,523.10333,84,48,1
522.9975,523.10333,72,40,1
523.0952,523.201,83,47,1
523.0952,523.201,71,39,1
523.1929,523.2987,81,39,1
523.1929,523.2987,69,39,1
523.2905,523.48596,67,39,1
523.2905,523.48596,79,47,1
523.48596,523.5924,77,45,1
523.48596,523.5924,65,38,1
523.5842,523.6916,64,38,1
523.5842,523.6916,76,45,1
523.6832,523.7915,62,37,1
523.6832,523.7915,74,44,1
523.78314,523.8922,60,37,1
523.78314,523.8922,72,44,1
523.8838,523.99493,59,36,1
523.8838,523.99493,71,43,1
523.98627,524.10156,57,35,1
523.98627,524.10156,69,42,1
524.0925,524.20874,55,44,1
524.0925,524.20874,67,44,1
524.2006,524.30646,57,46,1
524.2983,524.4041,59,47,1
524.39594,524.5018,60,49,1
524.49365,524.5994,62,51,1
524.5913,524.69714,64,53,1
524.68896,524.7948,65,54,1
524.7867,524.89246,66,56,1
524.88434,524.9902,67,58,1
524.982,525.08777,69,59,1
525.07965,525.18524,71,61,1
525.1771,525.2832,72,63,1
525.27496,525.38165,74,65,1
525.3734,525.48047,76,66,1
525.4722,525.5799,77,68,1
525.5716,525.6809,78,70,1
532.39496,532.7981,91,57,1
532.7981,533.40424,91,59,1
533.40424,533.6068,88,50,1
533.6068,534.0051,86,57,1
534.0051,534.064,79,50,1
534.40985,534.8143,84,53,1
534.8143,535.01746,88,53,1
535.6243,536.02747,91,57,1
536.02747,536.63354,91,59,1
536.63354,536.8362,88,50,1
536.8362,537.23444,86,57,1
537.23444,537.29333,79,50,1
537.6392,537.84064,84,53,1
538.8546,539.25775,91,57,1
539.25775,539.86383,91,59,1
539.86383,540.06647,87,50,1
540.06647,540.4647,86,57,1
540.4647,540.5236,79,50,1
540.8695,541.0714,84,53,1
542.0962,542.4993,87,57,1
542.4993,543.10547,87,59,1
543.10547,543.30804,84,50,1
543.30804,543.7063,82,57,1
543.7063,544.1111,75,50,1
544.1111,544.3142,80,53,1
545.3267,545.72986,84,57,1
545.72986,546.33594,84,59,1
546.33594,546.5386,80,50,1
546.5386,546.9368,79,57,1
546.9368,546.9957,72,50,1
547.3416,547.9507,77,57,1
547.9507,548.1541,80,53,1
548.1541,548.55255,79,57,1
548.55255,548.61145,72,50,1
548.95734,549.3636,77,57,1
549.3636,549.76984,75,53,1
554.71155,554.9039,79,63,1
554.9055,555.09753,79,64,1
555.0992,555.2922,79,66,1
555.2938,555.48517,79,68,1
555.4868,555.6816,79,69,1
555.6832,555.87463,79,71,1
555.8762,556.07184,79,72,1
556.07184,556.30676,76,97,1
556.07184,556.30676,72,97,1
556.30676,556.41296,91,75,1
556.30676,556.51917,79,75,1
556.51917,556.8191,91,79,1
556.8191,556.91907,88,75,1
556.91907,557.12396,86,81,1
556.51917,557.12396,79,75,1
557.3225,557.52966,84,75,1
557.52966,557.73676,88,73,1
557.12396,557.73676,79,75,1
557.9688,558.07385,79,50,1
557.9688,558.17896,67,50,1
558.17896,558.4788,79,53,1
558.4788,558.5788,76,50,1
558.5788,558.7859,74,54,1
558.17896,558.7859,67,50,1
558.98517,559.1915,72,50,1
559.1915,559.3979,76,49,1
558.7859,559.3979,67,50,1
559.59625,559.69165,91,75,1
559.69165,559.787,90,69,1
559.787,559.8824,91,75,1
559.8824,559.9778,90,70,1
559.9778,560.0739,91,75,1
560.0739,560.1713,88,70,1
560.1713,560.2696,86,72,1
560.2696,560.36786,85,64,1
560.36786,560.4661,86,72,1
560.4661,560.5644,79,67,1
560.5644,560.66235,84,72,1
560.66235,560.76025,83,66,1
560.76025,560.8582,84,75,1
560.8582,560.95886,88,69,1
561.1546,561.25024,79,50,1
561.25024,561.34595,78,47,1
561.34595,561.44165,79,50,1
561.44165,561.53735,78,46,1
561.53735,561.63306,79,50,1
561.63306,561.7299,76,44,1
561.7299,561.82715,74,48,1
561.82715,561.92444,73,45,1
561.92444,562.0217,74,49,1
562.0217,562.11914,67,45,1
562.11914,562.2174,72,49,1
562.2174,562.3157,71,46,1
562.3157,562.41394,72,49,1
562.41394,562.5122,76,46,1
562.5122,562.608,62,50,1
562.608,562.70374,61,45,1
562.70374,562.79956,62,51,1
562.79956,562.8953,55,46,1
562.8953,562.99866,60,51,1
562.9907,563.0941,59,46,1
563.0861,563.1897,60,51,1
563.1816,563.2791,64,46,1
563.2791,563.3749,62,50,1
563.3749,563.47064,61,45,1
563.47064,563.5664,62,51,1
563.5664,563.66223,55,46,1
563.66223,563.76556,60,51,1
563.7576,563.86096,59,46,1
563.853,563.9566,60,51,1
563.9484,564.046,64,46,1
564.046,564.14075,62,55,1
564.14075,564.2355,61,49,1
564.2355,564.3302,62,57,1
564.3302,564.42487,59,52,1
564.42487,564.52686,65,59,1
564.519,564.6209,64,54,1
564.6131,564.7152,65,61,1
564.7072,564.80316,62,56,1
564.80316,564.8976,71,62,1
564.8976,564.992,70,56,1
564.992,565.0864,71,65,1
565.0864,565.18085,65,59,1
565.18085,565.2828,74,67,1
565.27496,565.3769,73,61,1
565.3691,565.4711,74,69,1
565.46313,565.55884,71,63,1
565.55884,565.65295,77,70,1
565.65295,565.747,76,63,1
565.747,565.8411,77,71,1
565.8411,565.93524,74,65,1
565.93524,566.0362,83,73,1
566.02844,566.1294,82,66,1
566.12164,566.2228,83,73,1
566.21484,566.3102,77,67,1
566.3102,566.404,86,74,1
566.404,566.49774,85,67,1
566.49774,566.59155,86,76,1
566.59155,566.68536,83,69,1
566.68536,566.7863,89,77,1
566.77856,566.8795,88,70,1
566.87177,566.9729,89,78,1
566.96497,567.06,83,71,1
567.06,567.25006,84,91,1
567.25006,567.3451,67,81,1
567.25006,567.3451,64,68,1
567.4401,567.5352,64,85,1
567.4401,567.5352,60,72,1
567.63025,567.7253,72,81,1
567.63025,567.7253,67,68,1
567.8203,567.91534,67,84,1
567.8203,567.91534,64,71,1
568.0104,568.1054,76,81,1
568.0104,568.1054,72,68,1
568.20044,568.2955,72,86,1
568.20044,568.2955,67,73,1
568.39056,568.4856,79,81,1
568.39056,568.4856,76,68,1
568.5806,568.67566,76,86,1
568.5806,568.67566,72,73,1
568.7707,568.8657,79,68,1
568.7707,568.8657,84,81,1
568.96075,569.0558,79,86,1
568.96075,569.0558,76,73,1
569.1509,569.2459,84,69,1
569.1509,569.2459,88,82,1
569.34094,569.436,79,73,1
569.34094,569.436,84,87,1
569.531,569.62604,88,69,1
569.531,569.62604,91,82,1
569.72107,569.8161,88,88,1
569.72107,569.8161,84,74,1
569.9112,570.0062,88,69,1
569.9112,570.0062,91,82,1
570.10126,570.1963,84,73,1
570.10126,570.1963,88,87,1
570.8616,571.058,79,76,1
570.8616,571.058,76,54,1
571.64716,571.84357,76,70,1
571.64716,571.84357,72,50,1
572.43274,572.62915,67,60,1
572.43274,572.62915,64,43,1
573.2183,573.41473,64,56,1
573.2183,573.41473,60,39,1
574.00397,574.2003,79,43,1
574.00397,574.2003,76,36,1
574.3967,574.59314,79,43,1
574.3967,574.59314,76,36,1
574.78955,574.98596,76,42,1
574.78955,574.98596,72,35,1
575.57513,575.675,79,85,1
575.57513,575.675,91,101,1
575.57513,575.675,88,101,1
575.57513,575.675,84,85,1
575.9745,576.0743,91,101,1
575.9745,576.0743,79,85,1
575.9745,576.0743,84,85,1
575.9745,576.0743,88,101,1
576.3738,576.47363,76,85,1
576.3738,576.47363,88,101,1
576.3738,576.47363,84,101,1
576.3738,576.47363,79,85,1
577.1725,577.2754,76,101,1
577.1725,577.2754,64,85,1
577.1725,577.2754,67,85,1
577.1725,577.2754,72,101,1
577.99585,578.09875,72,101,1
577.99585,578.09875,60,85,1
577.99585,578.09875,64,85,1
577.99585,578.09875,67,101,1
0.0,0.32749835,36,50,1
0.6489954,0.9659524,79,50,1
1.2829094,2.195133,79,54,1
2.195133,2.4992075,76,47,1
2.4992075,3.0724375,74,50,1
3.0724375,3.6685035,67,41,1
3.6685035,4.2854066,72,50,1
4.2854066,4.593858,76,47,1
4.7480836,4.900822,48,31,1
4.900822,5.209823,36,50,1
5.5132403,5.8127313,79,50,1
6.112222,6.9894147,79,54,1
6.9894147,7.281812,76,47,1
7.281812,7.8426642,74,50,1
7.8426642,8.427459,67,41,1
8.427459,8.72695,72,50,1
9.4756775,9.626144,43,30,1
9.626144,9.935965,31,45,1
10.23474,10.5299,77,50,1
10.825059,11.685891,77,54,1
11.685891,11.972835,74,47,1
11.972835,12.523647,76,50,1
12.523647,13.097535,72,41,1
13.097535,13.679551,71,50,1
13.679551,13.970559,74,47,1
14.116063,14.266529,43,32,1
14.266529,14.576349,31,48,1
14.875125,15.170284,77,50,1
15.465445,16.302965,77,54,1
16.302965,16.582138,74,47,1
16.582138,17.125666,75,50,1
17.125666,17.681427,72,41,1
17.681427,18.263443,71,50,1
18.263443,18.845459,74,47,1
18.845459,19.388985,76,50,1
19.388985,19.944746,72,41,1
19.944746,20.526762,71,50,1
20.526762,21.108778,74,47,1
21.108778,21.652306,75,50,1
21.652306,22.208067,72,41,1
22.208067,22.78402,79,50,1
22.790083,23.360611,79,47,1
23.366617,23.937147,79,50,1
23.943151,24.513681,79,47,1
24.519688,25.094244,79,50,1
25.100334,25.683838,79,47,1
25.690018,26.273441,79,47,1
34.744915,34.90311,36,50,1
34.90311,35.059116,43,30,1
35.059116,35.213238,48,32,1
35.213238,35.365276,52,34,1
35.365276,35.51579,55,31,1
35.51579,35.666298,48,31,1
35.666298,35.81681,52,31,1
35.81681,35.967323,55,35,1
35.967323,36.10995,60,30,1
36.10995,36.252575,52,31,1
36.252575,36.395203,55,33,1
36.395203,36.537827,60,36,1
36.537827,36.680454,64,33,1
36.680454,36.823082,55,33,1
36.823082,36.965706,60,33,1
36.965706,37.108334,64,36,1
37.108334,37.246353,65,28,1
37.246353,37.384373,64,31,1
37.384373,37.522392,62,33,1
37.522392,37.66041,60,36,1
37.66041,37.802364,59,33,1
37.802364,37.944313,57,33,1
37.944313,38.086266,55,34,1
38.086266,38.228218,53,34,1
38.228218,38.373722,52,28,1
38.373722,38.519226,55,30,1
38.519226,38.66473,48,32,1
38.66473,38.810234,52,34,1
38.810234,38.955738,43,32,1
38.955738,39.101242,48,32,1
39.101242,39.246746,40,33,1
39.246746,39.397957,43,34,1
39.397957,39.55532,36,50,1
39.55532,39.706284,43,30,1
39.706284,39.856026,48,32,1
39.856026,40.004326,52,34,1
40.004326,40.151905,55,31,1
40.151905,40.299484,48,31,1
40.299484,40.447067,52,31,1
40.447067,40.594646,55,35,1
40.594646,40.734234,60,30,1
40.734234,40.873817,52,31,1
40.873817,41.013405,55,33,1
41.013405,41.152992,60,36,1
41.152992,41.29258,64,33,1
41.29258,41.432167,55,33,1
41.432167,41.571754,60,33,1
41.571754,41.711338,64,33,1
41.711338,41.84722,65,28,1
41.84722,41.983105,64,31,1
41.983105,42.118984,62,33,1
42.118984,42.254868,60,36,1
42.254868,42.393806,59,33,1
42.393806,42.532745,55,33,1
42.532745,42.671688,57,34,1
42.671688,42.810627,59,34,1
42.810627,42.95613,60,28,1
42.95613,43.101635,59,30,1
43.101635,43.24714,57,32,1
43.24714,43.392643,55,34,1
43.392643,43.538147,53,32,1
43.538147,43.68365,52,32,1
43.68365,43.829155,50,33,1
43.829155,43.97962,48,35,1
43.97962,44.136986,43,45,1
44.136986,44.28944,47,30,1
44.28944,44.439915,50,32,1
44.439915,44.58822,55,34,1
44.58822,44.735798,47,31,1
44.735798,44.883377,50,31,1
44.883377,45.030956,55,31,1
45.030956,45.178535,59,35,1
45.178535,45.318123,50,30,1
45.318123,45.45771,55,31,1
45.45771,45.597298,59,33,1
45.597298,45.736885,62,36,1
45.736885,45.87647,55,33,1
45.87647,46.016056,59,33,1
46.016056,46.155643,62,33,1
46.155643,46.29523,67,36,1
46.29523,46.431114,55,28,1
46.431114,46.566994,60,31,1
46.566994,46.702877,67,33,1
46.702877,46.838757,60,36,1
46.838757,46.9777,55,28,1
46.9777,47.11664,64,31,1
47.11664,47.255577,67,33,1
47.255577,47.39452,64,36,1
47.39452,47.540024,55,28,1
47.540024,47.685528,62,30,1
47.685528,47.83103,67,32,1
47.83103,47.976536,62,36,1
47.976536,48.12204,55,28,1
48.12204,48.267544,59,30,1
48.267544,48.413048,67,32,1
48.413048,48.563515,59,35,1
48.563515,48.72088,43,48,1
48.72088,48.873333,47,30,1
48.873333,49.023808,50,32,1
49.023808,49.172108,55,34,1
49.172108,49.319687,47,31,1
49.319687,49.46727,50,31,1
49.46727,49.61485,55,31,1
49.61485,49.76243,59,35,1
49.76243,49.902016,50,30,1
49.902016,50.041603,55,31,1
50.041603,50.181187,59,33,1
50.181187,50.320774,62,36,1
50.320774,50.46036,55,33,1
50.46036,50.59995,59,33,1
50.59995,50.739536,62,33,1
50.739536,50.879124,67,36,1
50.879124,51.015003,55,28,1
51.015003,51.150887,60,31,1
51.150887,51.286766,67,33,1
51.286766,51.42265,60,35,1
51.42265,51.56159,55,28,1
51.56159,51.70053,63,31,1
51.70053,51.83947,67,33,1
51.83947,51.97841,63,35,1
51.97841,52.123913,55,28,1
52.123913,52.269417,62,30,1
52.269417,52.41492,67,32,1
52.41492,52.560425,62,35,1
52.560425,52.70593,55,28,1
52.70593,52.851433,59,30,1
52.851433,52.996937,67,32,1
52.996937,53.14244,59,35,1
53.14244,53.278324,55,28,1
53.278324,53.414204,60,31,1
53.414204,53.550087,67,33,1
53.550087,53.68597,60,35,1
53.68597,53.82491,55,28,1
53.82491,53.96385,64,32,1
53.96385,54.10279,67,34,1
54.10279,54.24173,64,37,1
54.24173,54.387234,55,29,1
54.387234,54.532738,62,32,1
54.532738,54.67824,67,34,1
54.67824,54.823746,62,38,1
54.823746,54.96925,55,31,1
54.96925,55.114754,59,33,1
55.114754,55.260258,67,36,1
55.260258,55.40576,59,39,1
55.40576,55.541645,55,28,1
55.541645,55.677525,60,31,1
55.677525,55.813408,67,33,1
55.813408,55.949287,60,35,1
55.949287,56.08823,55,28,1
56.08823,56.22717,60,31,1
56.22717,56.366108,63,33,1
56.366108,56.50505,60,35,1
56.50505,56.650555,55,28,1
56.650555,56.79606,59,30,1
56.79606,56.941563,62,32,1
56.941563,57.087067,59,35,1
57.087067,57.2312,55,28,1
57.2312,57.37533,60,30,1
57.37533,57.519466,63,32,1
57.519466,57.6636,60,35,1
57.6636,57.73635,55,42,1
57.809105,57.95461,59,27,1
57.95461,58.100113,62,27,1
58.100113,58.245617,59,28,1
58.245617,58.318024,55,48,1
58.390434,58.535248,60,29,1
58.535248,58.680065,64,30,1
58.680065,58.824425,60,31,1
58.824425,58.896492,55,51,1
58.96856,59.11225,59,32,1
59.11225,59.255722,62,34,1
59.255722,59.398525,59,34,1
59.398525,59.46993,55,58,1
59.54111,59.683266,57,35,1
59.683266,59.82498,60,37,1
59.82498,59.966476,57,39,1
59.966476,60.036793,55,64,1
60.106064,60.24672,59,42,1
60.24672,60.385685,57,44,1
60.385685,60.52751,55,45,1
60.52751,60.597088,53,69,1
60.666668,60.808384,57,50,1
60.808384,60.947334,55,53,1
60.947334,61.089157,53,56,1
61.089157,61.1598,52,77,1
61.22927,61.369385,55,60,1
61.369385,61.50843,53,62,1
61.50843,61.649277,52,64,1
61.649277,61.7197,50,82,1
61.79034,61.93249,53,64,1
61.93249,62.07596,52,67,1
62.07596,62.220776,50,71,1
62.361874,62.43273,50,56,1
62.43273,62.503696,52,57,1
62.220776,62.503696,48,94,1
62.220776,62.503696,36,94,1
62.503696,62.57328,53,60,1
62.57328,62.64255,55,60,1
62.64255,62.71255,57,62,1
62.71255,62.782555,59,63,1
62.782555,62.91906,60,63,1
62.91906,62.988224,62,65,1
62.988224,63.057384,64,66,1
63.057384,63.123295,65,67,1
63.123295,63.190563,67,69,1
63.190563,63.259117,69,70,1
63.259117,63.327057,71,71,1
63.327057,63.3951,72,74,1
63.462948,63.531807,71,71,1
63.60234,63.67161,69,71,1
63.740566,63.81057,67,71,1
63.880466,63.949528,65,72,1
64.017876,64.08788,64,69,1
64.15863,64.22698,62,69,1
64.29563,64.365425,60,67,1
64.43439,64.50203,59,73,1
64.56909,64.636055,60,69,1
64.7039,64.770386,59,69,1
64.837555,64.9058,57,69,1
64.973755,65.042816,55,75,1
65.11106,65.180756,53,69,1
65.24971,65.31796,52,69,1
65.38754,65.45702,50,69,1
65.52619,65.59475,48,75,1
65.66423,65.733925,48,69,1
65.80404,65.87331,47,69,1
65.94353,66.0127,45,69,1
66.08239,66.15325,43,72,1
66.226234,66.29888,41,71,1
66.37006,66.44225,40,75,1
66.51501,66.590614,38,80,1
66.81808,66.89388,50,56,1
66.89388,66.97284,52,57,1
66.66622,66.97284,48,95,1
66.66622,66.97284,36,95,1
66.97284,67.04959,53,60,1
67.04959,67.125206,55,60,1
67.125206,67.20195,57,62,1
67.20195,67.2783,59,63,1
67.2783,67.423584,60,63,1
67.423584,67.4975,62,65,1
67.4975,67.57154,64,66,1
67.57154,67.64395,65,67,1
67.64395,67.717636,67,69,1
67.717636,67.79086,69,70,1
67.79086,67.86217,71,71,1
67.86217,67.93113,72,74,1
67.99938,68.068855,71,71,1
68.13907,68.207924,69,71,1
68.277405,68.34772,67,71,1
68.416885,68.48585,65,72,1
68.5567,68.62745,64,69,1
68.696304,68.76495,62,69,1
68.83464,68.90421,60,67,1
68.97369,69.04104,59,73,1
69.10771,69.17526,60,69,1
69.24332,69.31067,59,69,1
69.37753,69.44568,57,69,1
69.51474,69.584114,55,75,1
69.652756,69.72161,53,69,1
69.7913,69.86005,52,69,1
69.92911,69.998375,50,69,1
70.06722,70.34812,48,75,1
70.34812,70.62902,36,75,1
70.90992,71.19082,48,71,1
70.90992,71.19082,36,60,1
71.46777,71.744736,48,71,1
71.46777,71.744736,36,60,1
72.02169,72.298645,48,68,1
72.02169,72.298645,36,57,1
72.57561,72.85256,48,63,1
72.57561,72.85256,36,53,1
73.13346,73.41436,48,70,1
73.13346,73.41436,36,59,1
73.69526,73.97616,48,71,1
73.69526,73.97616,36,60,1
74.259735,74.54332,48,71,1
74.259735,74.54332,36,60,1
74.82422,75.10512,36,71,1
75.38602,75.666916,52,71,1
75.38602,75.666916,40,60,1
75.38602,75.666916,48,60,1
75.94387,76.220825,53,71,1
75.94387,76.220825,41,60,1
75.94387,76.220825,48,60,1
76.49779,76.77474,52,68,1
76.49779,76.77474,40,57,1
76.49779,76.77474,48,57,1
77.0517,77.32866,50,63,1
77.0517,77.32866,38,53,1
77.0517,77.32866,48,53,1
77.60956,77.89046,51,70,1
77.60956,77.89046,39,59,1
77.60956,77.89046,48,59,1
78.17136,78.452255,52,71,1
78.17136,78.452255,40,60,1
78.17136,78.452255,48,60,1
78.73583,79.01941,50,71,1
78.73583,79.01941,38,60,1
78.73583,79.01941,48,60,1
79.30298,79.590775,48,63,1
79.30298,79.590775,36,63,1
79.590775,79.73187,40,82,1
79.87297,80.01407,40,82,1
80.15517,80.295616,45,80,1
80.15517,80.295616,33,68,1
80.436066,80.576515,47,83,1
80.436066,80.576515,35,70,1
80.716965,80.85763,48,85,1
80.716965,80.85763,36,72,1
80.99953,81.142555,50,89,1
80.99953,81.142555,38,74,1
81.28698,81.85956,52,95,1
81.28698,81.85956,40,80,1
81.85956,81.99869,52,88,1
81.85956,81.99869,40,74,1
82.137825,82.276955,50,86,1
82.137825,82.276955,38,73,1
82.41609,82.55587,48,84,1
82.41609,82.55587,36,71,1
82.695656,82.835434,47,82,1
82.695656,82.835434,35,69,1
82.975,83.11403,48,80,1
82.975,83.11403,36,68,1
83.25436,83.396034,45,79,1
83.25436,83.396034,33,67,1
83.53906,84.11043,40,92,1
84.11043,84.251526,52,82,1
84.11043,84.251526,40,69,1
84.392624,84.533714,52,82,1
84.392624,84.533714,40,69,1
84.67481,84.81526,57,80,1
84.67481,84.81526,45,68,1
84.95571,85.09616,59,83,1
84.95571,85.09616,47,70,1
85.23661,85.37727,60,85,1
85.23661,85.37727,48,72,1
85.51917,85.66221,62,89,1
85.51917,85.66221,50,74,1
85.80663,86.3792,64,95,1
85.80663,86.3792,52,80,1
86.3792,86.51834,64,88,1
86.3792,86.51834,52,74,1
86.65747,86.79661,62,86,1
86.65747,86.79661,50,73,1
86.93574,87.07552,60,84,1
86.93574,87.07552,48,71,1
87.2153,87.35509,59,82,1
87.2153,87.35509,47,69,1
87.49465,87.633675,60,80,1
87.49465,87.633675,48,68,1
87.77401,87.91568,57,79,1
87.77401,87.91568,45,67,1
88.058716,88.63403,52,82,1
88.058716,88.63403,40,70,1
88.63403,88.77448,53,79,1
88.63403,88.77448,45,67,1
88.63403,88.77448,41,56,1
88.91493,89.05538,53,75,1
88.91493,89.05538,45,63,1
88.91493,89.05538,41,53,1
89.19583,89.33628,52,79,1
89.19583,89.33628,45,67,1
89.19583,89.33628,40,56,1
89.47673,89.61718,52,79,1
89.47673,89.61718,45,67,1
89.47673,89.61718,40,56,1
89.75763,89.90077,50,78,1
89.75763,89.90077,45,66,1
89.75763,89.90077,38,56,1
90.043915,90.18706,50,78,1
90.043915,90.18706,45,66,1
90.043915,90.18706,38,56,1
90.3302,90.47334,48,78,1
90.3302,90.47334,45,66,1
90.3302,90.47334,36,56,1
90.616486,90.76499,48,79,1
90.616486,90.76499,45,67,1
90.616486,90.76499,36,56,1
90.92421,91.06735,50,75,1
90.92421,91.06735,45,63,1
90.92421,91.06735,38,53,1
91.210495,91.35364,50,74,1
91.210495,91.35364,45,62,1
91.210495,91.35364,38,52,1
91.49678,91.63822,52,79,1
91.49678,91.63822,45,67,1
91.49678,91.63822,40,56,1
91.77932,91.92042,52,77,1
91.77932,91.92042,40,64,1
92.06151,92.20534,52,74,1
92.06151,92.20534,40,62,1
92.349174,92.4973,52,74,1
92.349174,92.4973,40,62,1
92.65402,92.80289,36,80,1
92.80289,92.95176,45,66,1
92.95176,93.100624,44,66,1
93.100624,93.2495,45,66,1
93.2495,93.389946,41,84,1
93.389946,93.530396,45,64,1
93.530396,93.670845,44,64,1
93.670845,93.811295,45,64,1
93.811295,93.951744,40,84,1
93.951744,94.09219,45,67,1
94.09219,94.23264,44,67,1
94.23264,94.37309,45,67,1
94.37309,94.516235,38,82,1
94.516235,94.65938,45,66,1
94.65938,94.80252,44,66,1
94.80252,94.94566,45,66,1
94.94566,95.088806,36,82,1
95.088806,95.23196,45,63,1
95.23196,95.380455,44,66,1
95.380455,95.53967,45,67,1
95.53967,95.682816,38,85,1
95.682816,95.82596,45,66,1
95.82596,95.9691,38,66,1
95.9691,96.11225,45,66,1
96.11225,96.253685,40,85,1
96.253685,96.39478,45,67,1
96.39478,96.53588,40,74,1
96.53588,96.67698,52,67,1
96.67698,96.82081,40,83,1
96.82081,96.96464,52,66,1
96.96464,97.11276,40,69,1
97.11276,97.269485,52,63,1
97.269485,97.41505,45,70,1
97.41505,97.56061,52,67,1
97.56061,97.70617,48,68,1
97.70617,97.85173,52,68,1
97.85173,98.00089,47,70,1
98.00089,98.150055,52,66,1
97.85173,98.150055,45,59,1
98.150055,98.299225,50,66,1
98.299225,98.44839,52,66,1
98.150055,98.44839,45,55,1
98.44839,98.59395,48,70,1
98.59395,98.73951,52,63,1
98.44839,98.73951,45,59,1
98.73951,98.88507,48,63,1
98.88507,99.03063,52,63,1
98.73951,99.03063,45,53,1
99.03063,99.17409,47,70,1
99.17409,99.31754,52,66,1
99.03063,99.31754,45,59,1
99.31754,99.461006,50,66,1
99.461006,99.60446,52,66,1
99.31754,99.60446,45,55,1
99.60446,99.753624,48,70,1
99.753624,99.902794,57,63,1
99.60446,99.902794,45,59,1
99.902794,100.051956,52,63,1
100.051956,100.20112,57,63,1
100.20112,100.343895,50,43,1
100.343895,100.48667,56,37,1
100.20112,100.48667,45,36,1
100.48667,100.62945,52,37,1
100.62945,100.772224,56,37,1
100.772224,100.915,48,44,1
100.915,101.05778,57,38,1
100.772224,101.05778,45,36,1
101.05778,101.20055,52,38,1
101.20055,101.34332,57,38,1
101.34332,101.48747,50,44,1
101.48747,101.63255,56,38,1
101.34332,101.63255,45,36,1
101.63255,101.77857,52,38,1
101.77857,101.92556,56,38,1
101.92556,102.070404,48,44,1
102.070404,102.21524,57,37,1
101.92556,102.21524,45,36,1
102.21524,102.360085,52,37,1
102.360085,102.50493,57,37,1
102.50493,102.653885,47,70,1
102.653885,102.803055,52,66,1
102.50493,102.803055,45,59,1
102.803055,102.95222,50,66,1
102.95222,103.10138,52,66,1
102.803055,103.10138,45,55,1
103.10138,103.24736,48,70,1
103.24736,103.39292,52,63,1
103.10138,103.39292,45,59,1
103.39292,103.53848,48,63,1
103.53848,103.684044,52,63,1
103.39292,103.684044,45,53,1
103.684044,103.82774,47,70,1
103.82774,103.97121,52,66,1
103.684044,103.97121,45,59,1
103.97121,104.11466,50,66,1
104.11466,104.258125,52,66,1
103.97121,104.258125,45,55,1
104.258125,104.406624,48,70,1
104.406624,104.555786,57,63,1
104.258125,104.555786,45,59,1
104.555786,104.70495,52,63,1
104.70495,104.85412,57,63,1
104.85412,104.99773,50,43,1
104.99773,105.140495,56,37,1
104.85412,105.140495,45,36,1
105.140495,105.28327,52,37,1
105.28327,105.42605,56,37,1
105.42605,105.568825,48,43,1
105.568825,105.7116,57,37,1
105.42605,105.7116,45,35,1
105.7116,105.85438,52,37,1
105.85438,105.997154,57,37,1
105.997154,106.13993,50,43,1
106.13993,106.28339,56,37,1
105.997154,106.28339,45,35,1
106.28339,106.4273,52,37,1
106.4273,106.571915,56,37,1
106.571915,106.71469,48,42,1
106.71469,106.85747,57,36,1
106.571915,106.85747,45,34,1
106.85747,107.000244,52,35,1
107.000244,107.14301,57,35,1
107.14301,107.28579,50,37,1
107.28579,107.428566,56,33,1
107.14301,107.428566,45,32,1
107.428566,107.57134,52,33,1
107.57134,107.71412,56,32,1
107.71412,107.856895,48,38,1
107.856895,107.99967,57,33,1
107.71412,107.99967,45,31,1
107.99967,108.14245,52,32,1
108.14245,108.28522,57,32,1
108.28522,108.42799,50,34,1
108.42799,108.57077,56,31,1
108.28522,108.57077,45,29,1
108.57077,108.71355,52,29,1
108.71355,108.85632,56,29,1
108.85632,108.99842,48,32,1
108.99842,109.14052,57,28,1
108.85632,109.14052,45,26,1
109.14052,109.282845,52,28,1
109.282845,109.42562,57,28,1
109.42562,109.5684,50,32,1
109.5684,109.711624,56,28,1
109.42562,109.711624,45,26,1
109.711624,109.85509,52,28,1
109.85509,109.99854,56,28,1
109.99854,110.14269,48,32,1
110.14269,110.28684,57,28,1
109.99854,110.28684,45,26,1
110.28684,110.43122,52,28,1
110.43122,110.576065,57,28,1
110.576065,110.72091,50,32,1
110.72091,110.86623,56,28,1
110.576065,110.86623,45,26,1
110.86623,111.01179,52,28,1
111.01179,111.15758,56,28,1
111.15758,111.46486,57,62,1
111.15758,111.46486,45,62,1
111.77214,112.07942,64,63,1
112.40246,113.3243,64,74,1
113.3243,113.631584,60,47,1
113.631584,114.25212,59,50,1
114.25212,114.88517,52,47,1
114.88517,115.20169,57,47,1
116.15126,116.46622,41,74,1
116.15126,116.46622,29,74,1
116.78118,117.09614,60,74,1
117.419174,118.34102,60,79,1
118.34102,118.6483,57,48,1
118.6483,119.268845,55,53,1
119.268845,119.901886,48,49,1
119.901886,120.21841,53,49,1
121.16798,121.48294,43,90,1
121.16798,121.48294,31,90,1
121.7979,122.11286,65,80,1
122.43589,123.35774,65,81,1
123.35774,123.66502,62,53,1
123.66502,124.28556,59,59,1
124.28556,124.91861,55,55,1
124.91861,125.86817,53,55,1
125.86817,126.19451,50,44,1
126.19451,126.84718,47,51,1
126.84718,127.50504,43,36,1
127.50504,128.51617,41,41,1
128.51617,128.86424,38,33,1
128.86424,129.60306,35,33,1
130.34189,131.08072,43,33,1
130.34189,131.08072,31,28,1
131.81438,132.14813,36,50,1
132.47285,132.7865,79,50,1
133.10014,134.00777,79,54,1
134.00777,134.3103,76,47,1
134.3103,134.88353,74,50,1
134.88353,135.48257,67,41,1
135.48257,136.10654,72,50,1
136.10654,136.41852,76,47,1
136.57451,136.72571,48,31,1
136.72571,137.04265,36,50,1
137.35037,137.65279,79,50,1
137.95522,138.83661,79,54,1
138.83661,139.13042,76,47,1
139.13042,139.6938,74,50,1
139.6938,140.27582,67,41,1
140.27582,140.57436,72,50,1
141.32307,141.47354,43,30,1
141.47354,141.78337,31,45,1
142.08214,142.3773,77,50,1
142.67245,143.52928,77,54,1
143.52928,143.81488,74,47,1
143.81488,144.36824,76,50,1
144.36824,144.93684,72,41,1
144.93684,145.51886,71,50,1
145.51886,145.80988,74,47,1
145.95538,146.10585,43,32,1
146.10585,146.41566,31,48,1
146.71443,147.0096,77,50,1
147.30476,148.14227,77,54,1
148.14227,148.42145,74,47,1
148.42145,148.96498,75,50,1
148.96498,149.52074,72,41,1
149.52074,150.10275,71,50,1
150.10275,150.68477,74,47,1
150.68477,151.2283,76,50,1
151.2283,151.78406,72,41,1
151.78406,152.36607,71,50,1
152.36607,152.94809,74,47,1
152.94809,153.49162,75,50,1
153.49162,154.04738,72,41,1
154.04738,154.62334,79,50,1
154.6294,155.19992,79,47,1
155.20593,155.77646,79,50,1
155.78247,156.353,79,47,1
156.359,156.93356,79,50,1
156.93965,157.52315,79,47,1
157.52933,158.11276,79,47,1
166.57678,166.73611,36,50,1
166.73611,166.89293,43,30,1
166.89293,167.04652,48,32,1
167.04652,167.1978,52,34,1
167.1978,167.34682,55,31,1
167.34682,167.49583,48,31,1
167.49583,167.64485,52,31,1
167.64485,167.79387,55,35,1
167.79387,167.9365,60,30,1
167.9365,168.07912,52,31,1
168.07912,168.22174,55,33,1
168.22174,168.36436,60,36,1
168.36436,168.50699,64,33,1
168.50699,168.64961,55,33,1
168.64961,168.79225,60,33,1
168.79225,168.93488,64,36,1
168.93488,169.07164,65,28,1
169.07164,169.20839,64,31,1
169.20839,169.34515,62,33,1
169.34515,169.48192,60,36,1
169.48192,169.62253,59,33,1
169.62253,169.76314,57,33,1
169.76314,169.90375,55,34,1
169.90375,170.04434,53,34,1
170.04434,170.18985,52,28,1
170.18985,170.33536,55,30,1
170.33536,170.48087,48,32,1
170.48087,170.62636,52,34,1
170.62636,170.77187,43,32,1
170.77187,170.91737,48,32,1
170.91737,171.06288,40,33,1
171.06288,171.21408,43,34,1
171.21408,171.37144,36,50,1
171.37144,171.52242,43,30,1
171.52242,171.67215,48,32,1
171.67215,171.82045,52,34,1
171.82045,171.96803,55,31,1
171.96803,172.11562,48,31,1
172.11562,172.2632,52,31,1
172.2632,172.41078,55,35,1
172.41078,172.55037,60,30,1
172.55037,172.68996,52,31,1
172.68996,172.82953,55,33,1
172.82953,172.96912,60,36,1
172.96912,173.1087,64,33,1
173.1087,173.24829,55,33,1
173.24829,173.38788,60,33,1
173.38788,173.52747,64,33,1
173.52747,173.66335,65,28,1
173.66335,173.79924,64,31,1
173.79924,173.93512,62,33,1
173.93512,174.071,60,36,1
174.071,174.20993,59,33,1
174.20993,174.34888,55,33,1
174.34888,174.48782,57,34,1
174.48782,174.62675,59,34,1
174.62675,174.77226,60,28,1
174.77226,174.91777,59,30,1
174.91777,175.06326,57,32,1
175.06326,175.20877,55,34,1
175.20877,175.35428,53,32,1
175.35428,175.49979,52,32,1
175.49979,175.64528,50,33,1
175.64528,175.79575,48,35,1
175.79575,175.95311,43,45,1
175.95311,176.10558,47,30,1
176.10558,176.25604,50,32,1
176.25604,176.40434,55,34,1
176.40434,176.55193,47,31,1
176.55193,176.69951,50,31,1
176.69951,176.84709,55,31,1
176.84709,176.99467,59,35,1
176.99467,177.13425,50,30,1
177.13425,177.27383,55,31,1
177.27383,177.41342,59,33,1
177.41342,177.55301,62,36,1
177.55301,177.6926,55,33,1
177.6926,177.83218,59,33,1
177.83218,177.97177,62,33,1
177.97177,178.11136,67,36,1
178.11136,178.24724,55,28,1
178.24724,178.38312,60,31,1
178.38312,178.51901,67,33,1
178.51901,178.65489,60,36,1
178.65489,178.79382,55,28,1
178.79382,178.93277,64,31,1
178.93277,179.07172,67,33,1
179.07172,179.21065,64,36,1
179.21065,179.35616,55,28,1
179.35616,179.50166,62,30,1
179.50166,179.64716,67,32,1
179.64716,179.79266,62,36,1
179.79266,179.93817,55,28,1
179.93817,180.08368,59,30,1
180.08368,180.22917,67,32,1
180.22917,180.37964,59,35,1
180.37964,180.537,43,48,1
180.537,180.68947,47,30,1
180.68947,180.83994,50,32,1
180.83994,180.98824,55,34,1
180.98824,181.13582,47,31,1
181.13582,181.2834,50,31,1
181.2834,181.43098,55,31,1
181.43098,181.57855,59,35,1
181.57855,181.71814,50,30,1
181.71814,181.85773,55,31,1
181.85773,181.99731,59,33,1
181.99731,182.1369,62,36,1
182.1369,182.27649,55,33,1
182.27649,182.41608,59,33,1
182.41608,182.55566,62,33,1
182.55566,182.69525,67,36,1
182.69525,182.83113,55,28,1
182.83113,182.96701,60,31,1
182.96701,183.10289,67,33,1
183.10289,183.23878,60,35,1
183.23878,183.37772,55,28,1
183.37772,183.51666,63,31,1
183.51666,183.6556,67,33,1
183.6556,183.79454,63,35,1
183.79454,183.94005,55,28,1
183.94005,184.08554,62,30,1
184.08554,184.23105,67,32,1
184.23105,184.37656,62,35,1
184.37656,184.52206,55,28,1
184.52206,184.66756,59,30,1
184.66756,184.81306,67,32,1
184.81306,184.95857,59,35,1
184.95857,185.09445,55,28,1
185.09445,185.23033,60,31,1
185.23033,185.36621,67,33,1
185.36621,185.5021,60,35,1
185.5021,185.64104,55,28,1
185.64104,185.77998,64,32,1
185.77998,185.91891,67,34,1
185.91891,186.05786,64,37,1
186.05786,186.20337,55,29,1
186.20337,186.34886,62,32,1
186.34886,186.49437,67,34,1
186.49437,186.63988,62,38,1
186.63988,186.78539,55,31,1
186.78539,186.93088,59,33,1
186.93088,187.07639,67,36,1
187.07639,187.2219,59,39,1
187.2219,187.35777,55,28,1
187.35777,187.49365,60,31,1
187.49365,187.62953,67,33,1
187.62953,187.76543,60,35,1
187.76543,187.90436,55,28,1
187.90436,188.0433,60,31,1
188.0433,188.18224,63,33,1
188.18224,188.32118,60,35,1
188.32118,188.46669,55,28,1
188.46669,188.61218,59,30,1
188.61218,188.75769,62,32,1
188.75769,188.9032,59,35,1
188.9032,189.04733,55,28,1
189.04733,189.19147,60,30,1
189.19147,189.3356,63,32,1
189.3356,189.47974,60,35,1
189.47974,189.55249,55,47,1
189.62523,189.77074,59,30,1
189.77074,189.91624,62,31,1
189.91624,190.06175,59,32,1
190.06175,190.13416,55,53,1
190.20656,190.35138,60,32,1
190.35138,190.4962,64,33,1
190.4962,190.64055,60,34,1
190.64055,190.71262,55,57,1
190.78468,190.92838,59,35,1
190.92838,191.07185,62,38,1
191.07185,191.21466,59,38,1
191.21466,191.28606,55,64,1
191.35724,191.49939,57,39,1
191.49939,191.64111,60,41,1
191.64111,191.78261,57,43,1
191.78261,191.85292,55,71,1
191.9222,192.06285,59,47,1
192.06285,192.20181,57,49,1
192.20181,192.34364,55,50,1
192.34364,192.41322,53,76,1
192.4828,192.62451,57,55,1
192.62451,192.76346,55,58,1
192.76346,192.90529,53,62,1
192.90529,192.97594,52,85,1
193.04541,193.18552,55,63,1
193.18552,193.32457,53,68,1
193.32457,193.46541,52,70,1
193.46541,193.53583,50,90,1
193.60648,193.74863,53,72,1
193.74863,193.89209,52,73,1
193.89209,194.03691,50,79,1
194.17801,194.24886,50,56,1
194.24886,194.31982,52,57,1
194.03691,194.31982,48,94,1
194.03691,194.31982,36,94,1
194.31982,194.38942,53,60,1
194.38942,194.45868,55,60,1
194.45868,194.52869,57,62,1
194.52869,194.59868,59,63,1
194.59868,194.73518,60,63,1
194.73518,194.80435,62,65,1
194.80435,194.87352,64,66,1
194.87352,194.93942,65,67,1
194.93942,195.0067,67,69,1
195.0067,195.07524,69,70,1
195.07524,195.14319,71,71,1
195.14319,195.21123,72,74,1
195.27908,195.34793,71,71,1
195.41847,195.48775,69,71,1
195.5567,195.6267,67,71,1
195.6966,195.76566,65,72,1
195.834,195.904,64,69,1
195.97476,196.0431,62,69,1
196.11177,196.18156,60,67,1
196.25052,196.31816,59,73,1
196.38522,196.45218,60,69,1
196.52003,196.58652,59,69,1
196.65369,196.72192,57,69,1
196.78989,196.85895,55,75,1
196.9272,196.99689,53,69,1
197.06584,197.1341,52,69,1
197.20367,197.27315,50,69,1
197.34233,197.41087,48,75,1
197.48036,197.55005,48,69,1
197.62016,197.68944,47,69,1
197.75966,197.82883,45,69,1
197.89851,197.96938,43,72,1
198.04236,198.115,41,71,1
198.18619,198.25839,40,75,1
198.33115,198.40674,38,80,1
198.63422,198.71,50,56,1
198.71,198.78897,52,57,1
198.48235,198.78897,48,95,1
198.48235,198.78897,36,95,1
198.78897,198.86572,53,60,1
198.86572,198.94133,55,60,1
198.94133,199.01808,57,62,1
199.01808,199.09442,59,63,1
199.09442,199.23972,60,63,1
199.23972,199.31363,62,65,1
199.31363,199.38766,64,66,1
199.38766,199.46008,65,67,1
199.46008,199.53377,67,69,1
199.53377,199.607,69,70,1
199.607,199.6783,71,71,1
199.6783,199.74725,72,74,1
199.8155,199.885,71,71,1
199.9552,200.02406,69,71,1
200.09354,200.16385,67,71,1
200.23302,200.30197,65,72,1
200.37283,200.44359,64,69,1
200.51244,200.58109,62,69,1
200.65077,200.72035,60,67,1
200.78981,200.85716,59,73,1
200.92384,200.9914,60,69,1
201.05945,201.1268,59,69,1
201.19366,201.26181,57,69,1
201.33087,201.40024,55,75,1
201.46889,201.53773,53,69,1
201.60742,201.67618,52,69,1
201.74524,201.8145,50,69,1
201.88335,202.16907,48,75,1
202.16907,202.30847,43,77,1
202.16907,202.30847,31,77,1
202.44788,202.58597,51,74,1
202.44788,202.58597,39,62,1
202.72408,202.86217,50,74,1
202.72408,202.86217,38,62,1
203.00026,203.13966,48,77,1
203.00026,203.13966,36,65,1
203.27907,203.41847,43,72,1
203.27907,203.41847,31,61,1
203.55788,203.6973,45,73,1
203.55788,203.6973,33,62,1
203.8367,203.98015,47,73,1
203.8367,203.98015,35,62,1
204.12373,204.26581,48,77,1
204.12373,204.26581,36,65,1
204.4079,204.54999,48,72,1
204.4079,204.54999,36,61,1
204.69208,204.83017,56,78,1
204.69208,204.83017,44,66,1
204.96826,205.10635,55,73,1
204.96826,205.10635,43,62,1
205.24446,205.3832,53,80,1
205.24446,205.3832,41,68,1
205.52193,205.66066,48,75,1
205.52193,205.66066,36,63,1
205.79918,205.93706,50,75,1
205.79918,205.93706,38,63,1
206.07516,206.21794,52,75,1
206.07516,206.21794,40,63,1
206.3607,206.50348,53,78,1
206.3607,206.50348,41,66,1
206.64626,206.78903,53,74,1
206.64626,206.78903,41,62,1
206.93239,207.07245,61,80,1
206.93239,207.07245,49,68,1
207.21252,207.3526,60,76,1
207.21252,207.3526,48,64,1
207.49266,207.63206,58,80,1
207.49266,207.63206,46,68,1
207.77147,207.91087,56,73,1
207.77147,207.91087,44,62,1
208.05028,208.18968,55,74,1
208.05028,208.18968,43,62,1
208.3291,208.4685,53,74,1
208.3291,208.4685,41,62,1
208.60791,208.74731,51,82,1
208.60791,208.74731,39,69,1
208.88672,209.02612,49,75,1
209.16553,209.30362,48,75,1
209.44171,209.57982,46,75,1
209.71791,209.85536,44,84,1
209.99324,210.13176,43,76,1
210.27095,210.4108,41,76,1
210.55128,210.69246,39,76,1
210.83432,211.12004,44,84,1
211.12004,211.21297,35,63,1
211.21297,211.30591,33,56,1
211.30591,211.39885,35,57,1
211.39885,211.4909,36,57,1
211.4909,211.58298,39,58,1
211.58298,211.67503,41,59,1
211.67503,211.7671,43,60,1
211.7671,211.85916,45,62,1
211.85916,211.95123,47,63,1
211.95123,212.04417,48,60,1
212.04417,212.1371,50,62,1
212.1371,212.23004,51,63,1
212.23004,212.32298,53,65,1
212.32298,212.41591,51,63,1
212.41591,212.50885,50,62,1
212.50885,212.60179,48,63,1
212.60179,212.69473,50,62,1
212.69473,212.78766,51,63,1
212.78766,212.8833,53,65,1
212.8833,212.97894,51,64,1
212.97894,213.07469,50,63,1
213.07469,213.35887,48,68,1
213.35887,213.4536,40,63,1
213.4536,213.54832,38,56,1
213.54832,213.64304,40,56,1
213.64304,213.7351,41,54,1
213.7351,213.82716,44,56,1
213.82716,213.91924,46,58,1
213.91924,214.01129,48,60,1
214.01129,214.10336,50,62,1
214.10336,214.19542,52,63,1
214.19542,214.28792,53,65,1
214.28792,214.3804,55,65,1
214.3804,214.4729,56,66,1
214.4729,214.56538,58,68,1
214.56538,214.65787,56,65,1
214.65787,214.75015,55,63,1
214.75015,214.842,53,60,1
214.842,214.93407,55,62,1
214.93407,215.02612,56,64,1
215.02612,215.1213,58,66,1
215.1213,215.21649,56,64,1
215.21649,215.31168,55,63,1
215.31168,215.59723,53,67,1
215.59723,215.69241,45,63,1
215.69241,215.7876,43,58,1
215.7876,215.88336,45,58,1
215.88336,215.97673,46,63,1
215.97673,216.07011,48,58,1
216.07011,216.1635,46,58,1
216.1635,216.25687,45,63,1
216.25687,216.35025,43,60,1
216.35025,216.44363,45,60,1
216.44363,216.53656,46,59,1
216.53656,216.6295,45,59,1
216.6295,216.72244,46,60,1
216.72244,216.81538,48,61,1
216.81538,216.90831,47,59,1
216.90831,217.00125,48,59,1
217.00125,217.0942,49,63,1
217.0942,217.18712,48,61,1
217.18712,217.28006,49,61,1
217.28006,217.373,50,64,1
217.373,217.46594,48,62,1
217.46594,217.55887,50,62,1
217.55887,217.65181,51,67,1
217.65181,217.74475,53,63,1
217.74475,217.83768,51,63,1
217.83768,217.93062,49,67,1
217.93062,218.02356,51,63,1
218.02356,218.1165,49,63,1
218.1165,218.20856,48,66,1
218.20856,218.30063,49,63,1
218.30063,218.39268,48,63,1
218.39268,218.48476,46,66,1
218.48476,218.57681,48,62,1
218.57681,218.66888,46,62,1
218.66888,218.76051,44,64,1
218.76051,218.85214,46,62,1
218.85214,218.94421,44,62,1
218.94421,219.03648,43,64,1
219.03648,219.12898,44,61,1
219.12898,219.22191,43,61,1
219.22191,219.31508,41,63,1
219.31508,219.40845,43,62,1
219.40845,219.50226,41,62,1
219.50226,219.59607,39,63,1
219.59607,219.68988,41,60,1
219.68988,219.78369,39,60,1
219.78369,219.92654,44,77,1
220.0694,220.2088,51,79,1
220.0694,220.2088,39,79,1
220.3482,220.48631,60,74,1
220.3482,220.48631,48,62,1
220.6244,220.7625,58,74,1
220.6244,220.7625,46,62,1
220.90059,221.04,56,77,1
220.90059,221.04,44,65,1
221.1794,221.31882,51,72,1
221.1794,221.31882,39,61,1
221.45822,221.59763,53,73,1
221.45822,221.59763,41,62,1
221.73703,221.88048,55,73,1
221.73703,221.88048,43,62,1
222.02406,222.16615,56,77,1
222.02406,222.16615,44,65,1
222.30823,222.45032,48,72,1
222.30823,222.45032,36,61,1
222.5924,222.7305,56,78,1
222.5924,222.7305,44,66,1
222.86859,223.0067,55,73,1
222.86859,223.0067,43,62,1
223.14479,223.28352,53,80,1
223.14479,223.28352,41,68,1
223.42226,223.56099,48,75,1
223.42226,223.56099,36,63,1
223.69951,223.83739,50,75,1
223.69951,223.83739,38,63,1
223.9755,224.11827,52,75,1
223.9755,224.11827,40,63,1
224.26105,224.40382,53,78,1
224.26105,224.40382,41,66,1
224.54659,224.68936,65,74,1
224.54659,224.68936,53,62,1
224.83272,224.9728,68,80,1
224.83272,224.9728,56,68,1
225.11285,225.25293,67,76,1
225.11285,225.25293,55,64,1
225.39299,225.5324,65,80,1
225.39299,225.5324,53,68,1
225.6718,225.8112,63,73,1
225.6718,225.8112,51,62,1
225.95062,226.09003,62,74,1
225.95062,226.09003,50,62,1
226.22943,226.36884,60,74,1
226.22943,226.36884,48,62,1
226.50824,227.06586,59,82,1
226.50824,227.06586,47,69,1
227.06586,227.34206,55,76,1
227.06586,227.34206,43,64,1
227.34206,227.61824,55,72,1
227.34206,227.61824,43,61,1
227.61824,227.89357,55,76,1
227.61824,227.89357,43,64,1
227.89357,228.17128,55,71,1
227.89357,228.17128,43,60,1
228.17128,228.45163,55,76,1
228.17128,228.45163,43,64,1
228.45163,228.73465,55,72,1
228.45163,228.73465,43,61,1
228.73465,229.02037,60,84,1
228.73465,229.02037,48,71,1
229.02037,229.11331,43,63,1
229.11331,229.20624,41,56,1
229.20624,229.29918,43,57,1
229.29918,229.39124,44,57,1
229.39124,229.4833,48,58,1
229.4833,229.57536,49,59,1
229.57536,229.66743,51,60,1
229.66743,229.75949,53,62,1
229.75949,229.85156,55,63,1
229.85156,229.9445,56,60,1
229.9445,230.03743,58,62,1
230.03743,230.13037,60,63,1
230.13037,230.22331,61,65,1
230.22331,230.31625,60,63,1
230.31625,230.40918,58,62,1
230.40918,230.50212,56,63,1
230.50212,230.59506,58,62,1
230.59506,230.68799,60,63,1
230.68799,230.78363,61,65,1
230.78363,230.87927,60,64,1
230.87927,230.97504,58,63,1
230.97504,231.2592,56,68,1
231.2592,231.35393,40,63,1
231.35393,231.44865,38,56,1
231.44865,231.54337,40,56,1
231.54337,231.63544,41,54,1
231.63544,231.72751,44,56,1
231.72751,231.81956,46,58,1
231.81956,231.91164,48,60,1
231.91164,232.0037,50,62,1
232.0037,232.09576,52,63,1
232.09576,232.18825,53,65,1
232.18825,232.28073,55,65,1
232.28073,232.37323,56,66,1
232.37323,232.46571,58,68,1
232.46571,232.55821,56,65,1
232.55821,232.65048,55,63,1
232.65048,232.74232,53,60,1
232.74232,232.8344,55,62,1
232.8344,232.92645,56,64,1
232.92645,233.02164,58,66,1
233.02164,233.11682,56,64,1
233.11682,233.212,55,63,1
233.212,233.49756,53,67,1
233.49756,233.59274,36,63,1
233.59274,233.68793,38,58,1
233.68793,233.78369,40,58,1
233.78369,233.87706,41,63,1
233.87706,233.97044,40,58,1
233.97044,234.06383,41,58,1
234.06383,234.15721,43,63,1
234.15721,234.25058,41,60,1
234.25058,234.34396,43,60,1
234.34396,234.4369,44,59,1
234.4369,234.52983,46,59,1
234.52983,234.62277,44,60,1
234.62277,234.71571,43,61,1
234.71571,234.80864,44,59,1
234.80864,234.90158,43,59,1
234.90158,234.99452,41,63,1
234.99452,235.08746,43,61,1
235.08746,235.18039,41,61,1
235.18039,235.27333,42,64,1
235.27333,235.36627,43,62,1
235.36627,235.4592,42,62,1
235.4592,235.55214,43,67,1
235.55214,235.64508,44,63,1
235.64508,235.73802,43,63,1
235.73802,235.83095,42,67,1
235.83095,235.92389,43,63,1
235.92389,236.01683,42,63,1
236.01683,236.10889,43,66,1
236.10889,236.20096,44,63,1
236.20096,236.29301,43,63,1
236.29301,236.38509,42,66,1
236.38509,236.47714,43,62,1
236.47714,236.56921,42,62,1
236.56921,236.66084,43,64,1
236.66084,236.75247,44,62,1
236.75247,236.84454,43,62,1
236.84454,236.93681,41,64,1
236.93681,237.02931,43,61,1
237.02931,237.12224,41,61,1
237.12224,237.21541,39,63,1
237.21541,237.30878,41,62,1
237.30878,237.40259,39,62,1
237.40259,237.4964,38,63,1
237.4964,237.59021,39,60,1
237.59021,237.68402,38,60,1
237.68402,237.82687,36,77,1
237.96973,238.10913,53,79,1
237.96973,238.10913,41,79,1
238.24854,238.38664,56,74,1
238.24854,238.38664,44,62,1
238.52473,238.66283,55,74,1
238.52473,238.66283,43,62,1
238.80092,238.94034,53,80,1
238.80092,238.94034,41,68,1
239.07974,239.21915,51,73,1
239.07974,239.21915,39,62,1
239.35855,239.49796,50,74,1
239.35855,239.49796,38,62,1
239.63736,239.77676,48,74,1
239.63736,239.77676,36,62,1
239.91617,240.47379,47,82,1
239.91617,240.47379,35,69,1
240.47379,240.74768,43,76,1
240.47379,240.74768,31,64,1
240.74998,241.02386,43,72,1
240.74998,241.02386,31,61,1
241.02617,241.29921,43,76,1
241.02617,241.29921,31,64,1
241.3015,241.57689,43,71,1
241.3015,241.57689,31,60,1
241.57921,241.85721,43,76,1
241.57921,241.85721,31,64,1
241.85956,242.14021,43,72,1
241.85956,242.14021,31,61,1
242.14258,242.42041,48,82,1
242.14258,242.42041,36,69,1
242.69824,242.97214,55,79,1
242.69824,242.97214,43,67,1
242.97444,243.24832,55,75,1
242.97444,243.24832,43,64,1
243.25063,243.52365,55,79,1
243.25063,243.52365,43,67,1
243.52596,243.80135,55,74,1
243.52596,243.80135,43,63,1
243.80367,244.08167,55,79,1
243.80367,244.08167,43,67,1
244.08401,244.36467,55,75,1
244.08401,244.36467,43,64,1
244.36703,244.64487,60,86,1
244.36703,244.64487,48,72,1
244.9227,245.1966,43,95,1
244.9227,245.1966,31,80,1
245.19888,245.47278,43,90,1
245.19888,245.47278,31,77,1
245.47508,245.74811,43,95,1
245.47508,245.74811,31,80,1
245.75041,246.02579,43,89,1
245.75041,246.02579,31,75,1
246.02812,246.30612,43,95,1
246.02812,246.30612,31,80,1
246.30846,246.58913,43,90,1
246.30846,246.58913,31,77,1
246.59149,246.86932,48,103,1
246.59149,246.86932,36,85,1
247.14716,247.42334,43,95,1
247.14716,247.42334,31,80,1
247.69954,247.97737,48,103,1
247.69954,247.97737,36,85,1
248.25519,248.53139,43,95,1
248.25519,248.53139,31,80,1
248.80757,248.94778,48,86,1
248.80757,248.94778,36,73,1
249.36838,249.50858,48,86,1
249.36838,249.50858,36,73,1
249.92918,250.20958,48,86,1
249.92918,250.20958,36,73,1
251.08083,251.67166,48,57,1
251.08083,251.67166,36,48,1
252.2625,252.85335,48,46,1
252.2625,252.85335,36,39,1
253.44418,253.75478,44,82,1
253.44418,253.75478,32,70,1
254.06537,254.39355,56,69,1
254.06537,254.39355,44,58,1
254.06537,254.39355,48,58,1
254.06537,254.39355,51,58,1
254.72176,255.6186,68,71,1
254.72176,255.6186,56,60,1
254.72176,255.6186,60,60,1
254.72176,255.6186,63,60,1
255.6186,255.92473,68,48,1
255.6186,255.92473,56,40,1
255.6186,255.92473,60,40,1
255.6186,255.92473,63,40,1
255.92473,256.5429,67,52,1
255.92473,256.5429,61,44,1
255.92473,256.5429,56,44,1
255.92473,256.5429,58,44,1
255.92473,256.5429,63,44,1
256.5429,257.1672,67,39,1
256.5429,257.1672,61,33,1
256.5429,257.1672,56,33,1
256.5429,257.1672,58,33,1
256.5429,257.1672,63,33,1
257.1672,257.79147,68,39,1
257.1672,257.79147,56,33,1
257.1672,257.79147,60,33,1
257.1672,257.79147,63,33,1
258.41577,258.7341,41,82,1
258.41577,258.7341,29,70,1
259.05243,259.3773,53,69,1
259.05243,259.3773,41,58,1
259.05243,259.3773,44,58,1
259.05243,259.3773,48,58,1
259.70215,260.599,65,70,1
259.70215,260.599,53,59,1
259.70215,260.599,56,59,1
259.70215,260.599,60,59,1
260.599,260.90512,65,48,1
260.599,260.90512,53,40,1
260.599,260.90512,56,40,1
260.599,260.90512,60,40,1
260.90512,261.5233,64,52,1
260.90512,261.5233,58,44,1
260.90512,261.5233,53,44,1
260.90512,261.5233,55,44,1
260.90512,261.5233,60,44,1
261.5233,262.14758,64,39,1
261.5233,262.14758,58,33,1
261.5233,262.14758,53,33,1
261.5233,262.14758,55,33,1
261.5233,262.14758,60,33,1
262.14758,262.77185,65,39,1
262.14758,262.77185,53,33,1
262.14758,262.77185,56,33,1
262.14758,262.77185,60,33,1
263.39615,263.71448,49,82,1
263.39615,263.71448,37,70,1
264.03284,264.36624,61,69,1
264.03284,264.36624,49,58,1
264.03284,264.36624,53,58,1
264.03284,264.36624,56,58,1
264.69965,265.5965,73,71,1
264.69965,265.5965,61,60,1
264.69965,265.5965,65,60,1
264.69965,265.5965,68,60,1
265.5965,265.90262,73,48,1
265.5965,265.90262,61,40,1
265.5965,265.90262,65,40,1
265.5965,265.90262,68,40,1
265.90262,266.52078,72,52,1
265.90262,266.52078,66,44,1
265.90262,266.52078,61,44,1
265.90262,266.52078,63,44,1
265.90262,266.52078,68,44,1
266.52078,267.14508,72,39,1
266.52078,267.14508,66,33,1
266.52078,267.14508,61,33,1
266.52078,267.14508,63,33,1
266.52078,267.14508,68,33,1
267.14508,268.0815,73,39,1
267.14508,268.0815,61,33,1
267.14508,268.0815,65,33,1
267.14508,268.0815,68,33,1
268.0815,268.38763,61,38,1
268.0815,268.38763,56,32,1
268.0815,268.38763,49,32,1
268.38763,269.0058,60,41,1
268.38763,269.0058,56,35,1
268.38763,269.0058,49,35,1
269.0058,269.6301,60,31,1
269.0058,269.6301,56,26,1
269.0058,269.6301,49,26,1
269.6301,270.56653,61,31,1
269.6301,270.56653,56,26,1
269.6301,270.56653,49,26,1
270.56653,270.87265,49,28,1
270.56653,270.87265,44,23,1
270.56653,270.87265,37,19,1
270.87265,271.48438,48,30,1
270.87265,271.48438,44,26,1
270.87265,271.48438,37,22,1
271.4908,272.10858,48,23,1
271.4908,272.10858,44,19,1
271.4908,272.10858,37,16,1
272.1151,272.73288,49,23,1
272.1151,272.73288,44,19,1
272.1151,272.73288,37,16,1
272.73938,273.35718,49,23,1
272.73938,273.35718,44,19,1
272.73938,273.35718,37,16,1
273.36368,273.9754,44,26,1
273.36368,273.9754,37,22,1
273.36368,273.9754,48,30,1
273.98184,274.59357,44,19,1
273.98184,274.59357,37,16,1
273.98184,274.59357,48,23,1
274.6,275.21176,44,26,1
274.6,275.21176,37,22,1
274.6,275.21176,48,30,1
275.2182,275.82993,44,19,1
275.2182,275.82993,37,16,1
275.2182,275.82993,48,23,1
275.83636,276.142,49,23,1
275.83636,276.142,44,19,1
275.83636,276.142,37,16,1
276.43298,276.724,49,36,1
277.015,277.30603,49,38,1
277.59702,277.89505,49,38,1
278.17804,278.4572,44,45,1
278.74823,279.0365,44,42,1
279.32477,279.61304,44,38,1
279.9013,280.19232,44,38,1
280.474,280.75443,39,25,1
281.04544,281.33237,51,36,1
281.61932,281.90628,51,38,1
282.1932,282.49124,51,38,1
282.77423,283.0534,46,45,1
283.34036,283.6273,46,42,1
283.91425,284.20117,46,38,1
284.48813,284.78052,46,41,1
285.06482,285.34653,41,25,1
285.63345,285.9204,53,36,1
286.20737,286.4943,53,38,1
286.78125,287.07928,53,38,1
287.36227,287.6427,48,41,1
287.93372,288.2247,48,42,1
288.5103,288.79462,53,38,1
289.08426,289.37387,53,38,1
289.6635,289.96313,36,46,1
290.24838,290.8231,55,39,1
290.24838,290.8231,52,39,1
290.8231,291.95013,55,39,1
290.8231,291.95013,52,39,1
291.95013,292.24857,36,46,1
292.5298,293.0939,56,39,1
292.5298,293.0939,53,39,1
293.0939,294.21103,56,39,1
293.0939,294.21103,53,39,1
294.21103,294.5088,36,46,1
294.78604,295.34686,58,39,1
294.78604,295.34686,55,39,1
295.34686,296.464,58,39,1
295.34686,296.464,55,39,1
296.464,296.76175,41,46,1
297.03903,297.59985,60,39,1
297.03903,297.59985,57,39,1
297.59985,298.71698,60,39,1
297.59985,298.71698,57,39,1
298.71698,299.01474,41,46,1
299.292,299.8528,61,39,1
299.292,299.8528,58,39,1
299.8528,300.96994,61,39,1
299.8528,300.96994,58,39,1
300.96994,301.2677,41,46,1
301.54498,302.1058,63,39,1
301.54498,302.1058,60,39,1
302.1058,303.22293,63,39,1
302.1058,303.22293,60,39,1
303.22293,303.51697,46,46,1
303.79663,304.35776,65,39,1
303.79663,304.35776,62,39,1
304.35776,305.48315,65,39,1
304.35776,305.48315,62,39,1
305.48315,305.78116,46,46,1
306.0643,306.6281,66,39,1
306.0643,306.6281,63,39,1
306.6281,307.75552,66,39,1
306.6281,307.75552,63,39,1
307.75552,308.05286,46,46,1
308.33655,308.90314,68,39,1
308.33655,308.90314,65,39,1
308.90314,310.02853,68,39,1
308.90314,310.02853,65,39,1
310.02853,310.32257,51,46,1
310.60223,311.16336,66,39,1
310.60223,311.16336,63,39,1
310.60223,311.16336,58,39,1
311.16336,312.29294,66,39,1
311.16336,312.29294,63,39,1
311.16336,312.29294,58,39,1
312.29294,312.58698,48,46,1
312.86664,313.42776,66,39,1
312.86664,313.42776,63,39,1
312.86664,313.42776,56,39,1
313.42776,314.55316,66,39,1
313.42776,314.55316,63,39,1
313.42776,314.55316,56,39,1
314.55316,314.84717,49,39,1
315.12686,315.68796,65,33,1
315.12686,315.68796,61,33,1
315.12686,315.68796,56,33,1
315.68796,316.81543,65,33,1
315.68796,316.81543,61,33,1
315.68796,316.81543,56,33,1
316.81543,317.10947,47,39,1
317.38913,317.95026,65,33,1
317.38913,317.95026,62,33,1
317.38913,317.95026,55,33,1
317.95026,319.07565,65,33,1
317.95026,319.07565,62,33,1
317.95026,319.07565,55,33,1
319.07565,319.3697,48,39,1
319.64935,320.21048,63,33,1
319.64935,320.21048,60,33,1
319.64935,320.21048,55,33,1
320.21048,320.77225,63,33,1
320.21048,320.77225,60,33,1
320.21048,320.77225,55,33,1
320.77225,321.34842,48,33,1
321.34842,321.93277,43,33,1
321.93277,322.5062,62,29,1
321.93277,322.5062,59,29,1
321.93277,322.5062,55,29,1
322.5062,323.08234,48,35,1
323.08234,323.6511,63,30,1
323.08234,323.6511,60,30,1
323.08234,323.6511,55,30,1
323.6511,324.2248,43,37,1
324.2248,324.78592,59,32,1
324.2248,324.78592,55,32,1
324.2248,324.78592,50,32,1
324.78592,325.3657,36,46,1
325.3657,325.93643,55,39,1
325.3657,325.93643,51,39,1
325.3657,325.93643,48,39,1
325.93643,326.51733,31,46,1
326.51733,327.08667,55,39,1
326.51733,327.08667,50,39,1
326.51733,327.08667,47,39,1
327.08667,327.66995,36,46,1
327.66995,328.242,51,39,1
327.66995,328.242,48,39,1
327.66995,328.242,43,39,1
328.242,328.53604,31,69,1
328.242,328.53604,43,69,1
328.8157,328.9543,47,69,1
328.9543,329.09296,50,60,1
329.09296,329.2316,47,60,1
329.2316,329.37775,43,59,1
329.37775,329.51834,48,63,1
329.51834,329.65894,43,52,1
329.65894,329.79953,39,52,1
329.79953,329.94788,43,52,1
329.94788,330.08847,39,57,1
330.08847,330.22906,43,47,1
330.22906,330.36966,39,46,1
330.36966,330.51025,36,45,1
330.51025,330.816,31,57,1
331.09103,331.64108,56,40,1
331.64108,332.19113,56,40,1
332.19113,332.7498,56,39,1
332.7498,333.04608,36,50,1
333.3211,333.87115,54,40,1
333.87115,334.4212,54,40,1
334.4212,334.98508,54,40,1
334.98508,335.28137,31,50,1
335.5564,336.10645,56,39,1
336.10645,336.65652,56,39,1
336.65652,337.2204,56,39,1
337.2204,337.5167,36,50,1
337.79172,338.3489,54,39,1
338.3489,338.90613,54,39,1
338.90613,339.48593,54,39,1
339.48593,339.78204,31,85,1
340.05707,340.62756,59,75,1
340.62756,341.74866,59,75,1
341.74866,342.04477,31,85,1
342.3198,342.89575,62,75,1
342.89575,344.0195,62,75,1
344.0195,344.3156,31,85,1
344.59064,345.13882,65,75,1
345.15048,346.26035,65,75,1
346.81665,347.37744,71,64,1
347.9275,348.4883,74,57,1
349.041,349.60452,77,52,1
350.15723,350.72076,77,52,1
350.72076,351.27347,77,49,1
351.27347,351.83426,44,41,1
351.27347,351.83426,32,41,1
351.83426,352.1106,43,38,1
351.83426,352.1106,31,38,1
352.38693,352.93607,77,50,1
352.94775,353.50043,77,50,1
353.50043,354.06396,44,41,1
353.50043,354.06396,32,41,1
354.06396,354.34033,43,39,1
354.06396,354.34033,31,39,1
354.61667,355.17474,77,45,1
355.72745,356.29794,77,45,1
356.85516,357.43112,56,45,1
357.99356,358.57233,43,46,1
359.14014,359.44733,43,77,1
359.14014,359.44733,31,65,1
359.44733,359.75452,43,77,1
359.44733,359.75452,31,65,1
359.75452,359.91107,36,71,1
359.75452,359.91107,48,79,1
359.91107,360.0653,43,66,1
360.0653,360.2173,48,70,1
360.2173,360.36703,52,76,1
360.36703,360.51462,55,68,1
360.51462,360.66217,48,68,1
360.66217,360.80975,52,68,1
360.80975,360.95734,55,76,1
360.95734,361.09692,60,66,1
361.09692,361.2365,52,68,1
361.2365,361.3761,55,71,1
361.3761,361.5157,60,78,1
361.5157,361.65527,64,71,1
361.65527,361.79486,55,71,1
361.79486,361.93445,60,71,1
361.93445,362.07404,64,78,1
362.07404,362.20993,65,62,1
362.20993,362.3458,64,68,1
362.3458,362.4817,62,71,1
362.4817,362.61755,60,78,1
362.61755,362.7565,59,71,1
362.7565,362.89545,57,71,1
362.89545,363.0344,55,76,1
363.0344,363.1733,53,76,1
363.1733,363.31882,52,62,1
363.31882,363.46432,55,66,1
363.46432,363.60983,48,70,1
363.60983,363.75534,52,76,1
363.75534,363.90085,43,70,1
363.90085,364.04636,48,70,1
364.04636,364.19186,40,71,1
364.19186,364.34305,43,76,1
364.34305,364.50043,36,94,1
364.50043,364.6514,43,66,1
364.6514,364.80112,48,70,1
364.80112,364.94943,52,76,1
364.94943,365.09702,55,68,1
365.09702,365.2446,48,68,1
365.2446,365.39218,52,68,1
365.39218,365.53976,55,76,1
365.53976,365.67935,60,66,1
365.67935,365.81894,52,68,1
365.81894,365.95853,55,71,1
365.95853,366.0981,60,78,1
366.0981,366.23767,64,71,1
366.23767,366.37726,55,71,1
366.37726,366.51685,60,71,1
366.51685,366.65643,64,71,1
366.65643,366.79233,65,62,1
366.79233,366.92822,64,68,1
366.92822,367.0641,62,71,1
367.0641,367.19998,60,78,1
367.19998,367.33893,59,71,1
367.33893,367.47784,55,71,1
367.47784,367.6168,57,76,1
367.6168,367.75574,59,76,1
367.75574,367.90125,60,62,1
367.90125,368.04675,59,64,1
368.04675,368.19226,57,68,1
368.19226,368.33774,55,73,1
368.33774,368.48325,53,68,1
368.48325,368.62875,52,68,1
368.62875,368.77426,50,69,1
368.77426,368.92474,48,74,1
368.92474,369.0821,43,80,1
369.0821,369.23456,47,58,1
369.23456,369.385,50,62,1
369.385,369.53333,55,67,1
369.53333,369.6809,47,60,1
369.6809,369.8285,50,60,1
369.8285,369.97607,55,60,1
369.97607,370.12366,59,68,1
370.12366,370.26324,50,58,1
370.26324,370.40283,55,60,1
370.40283,370.5424,59,63,1
370.5424,370.68198,62,70,1
370.68198,370.82156,55,53,1
370.82156,370.96115,59,53,1
370.96115,371.10074,62,45,1
371.10074,371.24033,67,50,1
371.24033,371.37622,55,28,1
371.37622,371.51212,60,32,1
371.51212,371.64798,67,34,1
371.64798,371.78387,60,37,1
371.78387,371.9228,55,28,1
371.9228,372.06174,64,32,1
372.06174,372.20068,67,34,1
372.20068,372.33963,64,37,1
372.33963,372.48514,55,28,1
372.48514,372.63065,62,31,1
372.63065,372.77612,67,33,1
372.77612,372.92163,62,37,1
372.92163,373.06714,55,28,1
373.06714,373.21265,59,31,1
373.21265,373.35815,67,33,1
373.35815,373.5086,59,36,1
373.5086,373.666,43,86,1
373.666,373.81845,47,58,1
373.81845,373.9689,50,62,1
373.9689,374.11722,55,67,1
374.11722,374.2648,47,60,1
374.2648,374.41238,50,60,1
374.41238,374.55997,55,60,1
374.55997,374.70752,59,68,1
374.70752,374.8471,50,58,1
374.8471,374.9867,55,60,1
374.9867,375.12628,59,63,1
375.12628,375.26587,62,70,1
375.26587,375.40546,55,53,1
375.40546,375.54504,59,53,1
375.54504,375.68463,62,53,1
375.68463,375.82422,67,59,1
375.82422,375.9601,55,26,1
375.9601,376.09598,60,30,1
376.09598,376.23187,67,32,1
376.23187,376.36777,60,33,1
376.36777,376.50668,55,26,1
376.50668,376.64563,63,30,1
376.64563,376.78458,67,32,1
376.78458,376.92352,63,33,1
376.92352,377.06903,55,26,1
377.06903,377.21454,62,30,1
377.21454,377.36002,67,31,1
377.36002,377.50552,62,33,1
377.50552,377.65103,55,26,1
377.65103,377.79654,59,30,1
377.79654,377.94205,67,31,1
377.94205,378.08755,59,33,1
378.08755,378.22342,55,33,1
378.22342,378.3593,60,37,1
378.3593,378.4952,67,39,1
378.4952,378.63107,60,42,1
378.63107,378.77002,55,33,1
378.77002,378.90897,64,38,1
378.90897,379.04788,67,40,1
379.04788,379.18683,64,44,1
379.18683,379.33234,55,34,1
379.33234,379.47784,62,38,1
379.47784,379.62335,67,40,1
379.62335,379.76886,62,45,1
379.76886,379.91437,55,37,1
379.91437,380.05988,59,39,1
380.05988,380.20535,67,43,1
380.20535,380.35086,59,46,1
380.35086,380.48676,55,33,1
380.48676,380.62262,60,37,1
380.62262,380.7585,67,39,1
380.7585,380.8944,60,42,1
380.8944,381.03333,55,33,1
381.03333,381.17227,60,37,1
381.17227,381.31122,63,39,1
381.31122,381.45016,60,42,1
381.45016,381.59567,55,28,1
381.59567,381.74115,59,30,1
381.74115,381.88666,62,32,1
381.88666,382.03217,59,35,1
382.03217,382.1763,55,28,1
382.1763,382.32043,60,30,1
382.32043,382.46457,63,32,1
382.46457,382.6087,60,35,1
382.6087,382.68146,55,47,1
382.7542,382.89972,59,30,1
382.89972,383.04523,62,31,1
383.04523,383.19073,59,32,1
383.19073,383.26312,55,53,1
383.33554,383.48035,60,32,1
383.48035,383.62518,64,33,1
383.62518,383.76953,60,34,1
383.76953,383.84158,55,57,1
383.91367,384.05734,59,35,1
384.05734,384.20084,62,38,1
384.20084,384.34363,59,38,1
384.34363,384.41504,55,64,1
384.4862,384.62836,57,39,1
384.62836,384.77008,60,41,1
384.77008,384.9116,57,43,1
384.9116,384.9819,55,71,1
385.05118,385.19183,59,47,1
385.19183,385.33078,57,49,1
385.33078,385.47263,55,50,1
385.47263,385.5422,53,76,1
385.6118,385.75348,57,50,1
385.75348,385.89243,55,53,1
385.89243,386.03427,53,55,1
386.03427,386.10492,52,85,1
386.17438,386.31448,55,58,1
386.31448,386.45355,53,61,1
386.45355,386.5944,52,64,1
386.5944,386.6648,50,90,1
386.73544,386.8776,53,68,1
386.8776,387.02106,52,72,1
387.02106,387.1659,50,76,1
387.30698,387.37784,50,56,1
387.37784,387.4488,52,57,1
387.1659,387.4488,48,94,1
387.1659,387.4488,36,94,1
387.4488,387.5184,53,60,1
387.5184,387.58765,55,60,1
387.58765,387.65765,57,62,1
387.65765,387.72766,59,63,1
387.72766,387.86417,60,63,1
387.86417,387.93332,62,65,1
387.93332,388.0025,64,66,1
388.0025,388.0684,65,67,1
388.0684,388.13568,67,69,1
388.13568,388.20422,69,70,1
388.20422,388.27216,71,71,1
388.27216,388.3402,72,74,1
388.40805,388.4769,71,71,1
388.54745,388.61673,69,71,1
388.68567,388.75568,67,71,1
388.82556,388.89462,65,72,1
388.96298,389.033,64,69,1
389.10373,389.1721,62,69,1
389.24075,389.31055,60,67,1
389.3795,389.44714,59,73,1
389.5142,389.58118,60,69,1
389.64902,389.71548,59,69,1
389.78265,389.8509,57,69,1
389.91885,389.9879,55,75,1
390.05618,390.12585,53,69,1
390.19482,390.26306,52,69,1
390.33264,390.40213,50,69,1
390.4713,390.53986,48,75,1
390.60934,390.67902,48,69,1
390.74915,390.81842,47,69,1
390.88864,390.9578,45,69,1
391.0275,391.09836,43,72,1
391.17133,391.244,41,71,1
391.31516,391.38736,40,75,1
391.4601,391.5357,38,80,1
391.76318,391.839,50,56,1
391.839,391.91794,52,57,1
391.61133,391.91794,48,95,1
391.61133,391.91794,36,95,1
391.91794,391.9947,53,60,1
391.9947,392.0703,55,60,1
392.0703,392.14706,57,62,1
392.14706,392.22342,59,63,1
392.22342,392.36868,60,63,1
392.36868,392.4426,62,65,1
392.4426,392.51663,64,66,1
392.51663,392.58905,65,67,1
392.58905,392.66275,67,69,1
392.66275,392.73596,69,70,1
392.73596,392.80728,71,71,1
392.80728,392.87622,72,74,1
392.9445,393.01398,71,71,1
393.08417,393.15305,69,71,1
393.2225,393.29282,67,71,1
393.362,393.43094,65,72,1
393.5018,393.57257,64,69,1
393.64142,393.71005,62,69,1
393.77975,393.84933,60,67,1
393.9188,393.98615,59,73,1
394.05283,394.12036,60,69,1
394.18842,394.25577,59,69,1
394.32263,394.39078,57,69,1
394.45984,394.5292,55,75,1
394.59787,394.66672,53,69,1
394.7364,394.80515,52,69,1
394.8742,394.94348,50,69,1
395.01233,395.29495,48,75,1
395.29495,395.57758,36,75,1
395.8602,396.1428,48,71,1
395.8602,396.1428,36,60,1
396.42145,396.7001,48,71,1
396.42145,396.7001,36,60,1
396.97876,397.25742,48,68,1
396.97876,397.25742,36,57,1
397.53607,397.81473,48,63,1
397.53607,397.81473,36,53,1
398.09735,398.37997,48,70,1
398.09735,398.37997,36,59,1
398.6626,398.94522,48,71,1
398.6626,398.94522,36,60,1
399.23056,399.51587,48,71,1
399.23056,399.51587,36,60,1
399.7985,400.08112,36,71,1
400.36105,400.64096,52,71,1
400.36105,400.64096,40,60,1
400.36105,400.64096,48,60,1
400.91577,401.19058,53,71,1
400.91577,401.19058,41,60,1
400.91577,401.19058,48,60,1
401.46793,401.74527,52,68,1
401.46793,401.74527,40,57,1
401.46793,401.74527,48,57,1
402.0226,402.29993,50,63,1
402.0226,402.29993,38,53,1
402.0226,402.29993,48,53,1
402.58252,402.86508,51,70,1
402.58252,402.86508,39,59,1
402.58252,402.86508,48,59,1
403.14764,403.4302,52,71,1
403.14764,403.4302,40,60,1
403.14764,403.4302,48,60,1
403.71555,404.0009,50,71,1
403.71555,404.0009,38,60,1
403.71555,404.0009,48,60,1
404.28577,404.57108,48,63,1
404.28577,404.57108,36,63,1
404.57108,404.6662,36,51,1
404.6662,404.76132,40,45,1
404.76132,404.8564,43,45,1
404.8564,404.95154,48,51,1
404.95154,405.04666,43,46,1
405.04666,405.14175,40,46,1
405.14175,405.23376,36,51,1
405.23376,405.32578,41,46,1
405.32578,405.4178,45,46,1
405.4178,405.5098,48,51,1
405.5098,405.60184,45,45,1
405.60184,405.69385,41,45,1
405.69385,405.7867,36,51,1
405.7867,405.87958,40,46,1
405.87958,405.97244,43,46,1
405.97244,406.0653,48,51,1
406.0653,406.15817,43,46,1
406.15817,406.25104,40,46,1
406.25104,406.3439,36,51,1
406.3439,406.43677,38,46,1
406.43677,406.52963,41,46,1
406.52963,406.62253,48,51,1
406.62253,406.7154,41,45,1
406.7154,406.80826,38,45,1
406.80826,406.90247,36,56,1
406.90247,406.99667,39,46,1
406.99667,407.09088,42,46,1
407.09088,407.1851,48,51,1
407.1851,407.2793,42,46,1
407.2793,407.37347,39,46,1
407.37347,407.46768,36,57,1
407.46768,407.5619,40,46,1
407.5619,407.6561,43,46,1
407.6561,407.7503,48,51,1
407.7503,407.8445,43,45,1
407.8445,407.93872,40,45,1
407.93872,408.03384,36,51,1
408.03384,408.12894,38,45,1
408.12894,408.22406,41,44,1
408.22406,408.31918,48,51,1
408.31918,408.41428,41,44,1
408.41428,408.5094,38,44,1
408.5094,408.6036,36,51,1
408.6036,408.6978,40,44,1
408.6978,408.79202,43,44,1
408.79202,408.88623,48,51,1
408.88623,408.98587,43,44,1
408.98587,409.09097,40,46,1
409.09097,409.1843,36,51,1
409.1843,409.27762,48,45,1
409.27762,409.3709,52,45,1
409.3709,409.46423,55,51,1
409.46423,409.55753,52,46,1
409.55753,409.65085,48,46,1
409.65085,409.74286,36,51,1
409.74286,409.83487,48,46,1
409.83487,409.92688,53,46,1
409.92688,410.0189,57,51,1
410.0189,410.1109,53,45,1
410.1109,410.2029,48,45,1
410.2029,410.29578,36,51,1
410.29578,410.38867,48,46,1
410.38867,410.48154,52,46,1
410.48154,410.5744,55,51,1
410.5744,410.66727,52,46,1
410.66727,410.76013,48,46,1
410.76013,410.853,36,51,1
410.853,410.94586,48,46,1
410.94586,411.03873,50,46,1
411.03873,411.1316,53,51,1
411.1316,411.22446,50,45,1
411.22446,411.31732,48,45,1
411.31732,411.41153,36,56,1
411.41153,411.50574,48,46,1
411.50574,411.59995,51,46,1
411.59995,411.69415,54,51,1
411.69415,411.78836,51,46,1
411.78836,411.88257,48,46,1
411.88257,411.97678,36,57,1
411.97678,412.07098,48,46,1
412.07098,412.1652,52,46,1
412.1652,412.2594,55,51,1
412.2594,412.3536,52,45,1
412.3536,412.4478,48,45,1
412.4478,412.54294,36,51,1
412.54294,412.63803,48,45,1
412.63803,412.73315,50,44,1
412.73315,412.82825,53,51,1
412.82825,412.92337,50,44,1
412.92337,413.0185,48,44,1
413.0185,413.1127,36,51,1
413.1127,413.20688,48,44,1
413.20688,413.3011,52,44,1
413.3011,413.3953,55,51,1
413.3953,413.49524,52,44,1
413.49524,413.6009,48,46,1
413.6009,413.69556,36,59,1
413.69556,413.79022,48,45,1
413.79022,413.8849,52,45,1
413.8849,413.97955,55,51,1
413.97955,414.07422,52,46,1
414.07422,414.16888,48,46,1
414.16888,414.26175,43,51,1
414.26175,414.35464,47,46,1
414.35464,414.44754,50,46,1
414.44754,414.5404,55,51,1
414.5404,414.63913,50,45,1
414.63913,414.74368,47,45,1
414.74368,414.83835,38,59,1
414.83835,414.933,50,45,1
414.933,415.02768,53,45,1
415.02768,415.12234,57,51,1
415.12234,415.217,53,46,1
415.217,415.31165,50,46,1
415.31165,415.40454,45,51,1
415.40454,415.49744,48,46,1
415.49744,415.5903,52,46,1
415.5903,415.6832,57,51,1
415.6832,415.78058,52,45,1
415.78058,415.88248,48,45,1
415.88248,415.97714,41,59,1
415.97714,416.0718,48,45,1
416.0718,416.16647,50,45,1
416.16647,416.26114,53,51,1
416.26114,416.3558,50,46,1
416.3558,416.45044,48,46,1
416.45044,416.54465,43,51,1
416.54465,416.63882,48,46,1
416.63882,416.733,50,46,1
416.733,416.8272,55,51,1
416.8272,416.9214,50,45,1
416.9214,417.0156,48,45,1
417.0156,417.11023,43,59,1
417.11023,417.2049,47,45,1
417.2049,417.29956,50,45,1
417.29956,417.39423,55,51,1
417.39423,417.4889,50,46,1
417.4889,417.58356,47,46,1
417.58356,417.67642,36,51,1
417.67642,417.7693,48,44,1
417.7693,417.8626,52,44,1
417.8626,417.9559,55,50,1
417.9559,418.04965,52,43,1
418.04965,418.14337,48,43,1
418.14337,418.23758,36,59,1
418.23758,418.33176,48,45,1
418.33176,418.42593,52,45,1
418.42593,418.52014,55,51,1
418.52014,418.61432,52,46,1
418.61432,418.70764,48,46,1
418.70764,418.80008,43,51,1
418.80008,418.89294,47,46,1
418.89294,418.98605,50,46,1
418.98605,419.07935,55,51,1
419.07935,419.17822,50,45,1
419.17822,419.27734,47,45,1
419.27734,419.37173,38,59,1
419.37173,419.46637,50,45,1
419.46637,419.561,53,45,1
419.561,419.65564,57,51,1
419.65564,419.75027,53,46,1
419.75027,419.8449,50,46,1
419.8449,419.9378,45,51,1
419.9378,420.03067,48,46,1
420.03067,420.12357,52,46,1
420.12357,420.21646,57,51,1
420.21646,420.31464,52,45,1
420.31464,420.41812,48,45,1
420.41812,420.5128,45,59,1
420.5128,420.60742,48,45,1
420.60742,420.7021,52,45,1
420.7021,420.79675,57,51,1
420.79675,420.89142,52,46,1
420.89142,420.98608,48,46,1
420.98608,421.07898,38,51,1
421.07898,421.17184,45,46,1
421.17184,421.26474,48,46,1
421.26474,421.3576,50,51,1
421.3576,421.4505,48,45,1
421.4505,421.5434,45,45,1
421.5434,421.63806,38,59,1
421.63806,421.73273,45,45,1
421.73273,421.82736,48,45,1
421.82736,421.92203,50,51,1
421.92203,422.0167,48,46,1
422.0167,422.11136,45,46,1
422.11136,422.20425,43,51,1
422.20425,422.29712,50,44,1
422.29712,422.39,55,44,1
422.39,422.4829,43,50,1
422.4829,422.58188,47,43,1
422.58188,422.687,55,43,1
422.687,422.78168,43,59,1
422.78168,422.8763,48,45,1
422.8763,422.97098,50,45,1
422.97098,423.06564,43,51,1
423.06564,423.1603,48,46,1
423.1603,423.25497,50,46,1
423.25497,423.34784,43,51,1
423.34784,423.44073,47,46,1
423.44073,423.53363,50,46,1
423.53363,423.6265,43,51,1
423.6265,423.7194,47,45,1
423.7194,423.8123,50,45,1
423.8123,423.90695,43,59,1
423.90695,424.0016,48,45,1
424.0016,424.09625,50,45,1
424.09625,424.19092,43,51,1
424.19092,424.28558,48,46,1
424.28558,424.38025,50,46,1
424.38025,424.47314,43,58,1
424.47314,424.566,47,44,1
424.566,424.6589,50,44,1
424.6589,424.7518,43,50,1
424.7518,424.85077,47,43,1
424.85077,424.9559,50,43,1
424.9559,425.04962,43,40,1
425.04962,425.14337,48,30,1
425.14337,425.2371,50,30,1
425.2371,425.33084,57,34,1
425.33084,425.4246,50,31,1
425.4246,425.5183,48,31,1
425.5183,425.61032,43,35,1
425.61032,425.70236,47,31,1
425.70236,425.79437,50,31,1
425.79437,425.88638,55,34,1
425.88638,425.9784,50,30,1
425.9784,426.0704,47,30,1
426.0704,426.16412,43,40,1
426.16412,426.25787,48,30,1
426.25787,426.35162,50,30,1
426.35162,426.44534,57,34,1
426.44534,426.5391,50,31,1
426.5391,426.63284,48,31,1
426.63284,426.7257,43,39,1
426.7257,426.8186,47,30,1
426.8186,426.9115,50,30,1
426.9115,427.00436,55,34,1
427.00436,427.1039,50,29,1
427.1039,427.21014,47,29,1
427.21014,427.3048,43,65,1
427.3048,427.39948,48,49,1
427.39948,427.49414,50,49,1
427.49414,427.5888,43,56,1
427.5888,427.68344,48,51,1
427.68344,427.7781,50,51,1
427.7781,427.871,43,56,1
427.871,427.9639,47,51,1
427.9639,428.05676,50,51,1
428.05676,428.14966,43,56,1
428.14966,428.24255,47,49,1
428.24255,428.33542,50,49,1
428.33542,428.43008,43,65,1
428.43008,428.52475,48,49,1
428.52475,428.61942,50,49,1
428.61942,428.71408,43,56,1
428.71408,428.80875,48,51,1
428.80875,428.90338,50,51,1
428.90338,428.99628,43,63,1
428.99628,429.08917,47,48,1
429.08917,429.18204,50,48,1
429.18204,429.27493,43,54,1
429.27493,429.37283,47,47,1
429.37283,429.4758,50,47,1
429.4758,429.56952,43,40,1
429.56952,429.66327,48,30,1
429.66327,429.75702,50,30,1
429.75702,429.85074,57,34,1
429.85074,429.9445,50,31,1
429.9445,430.0382,48,31,1
430.0382,430.13025,43,35,1
430.13025,430.22226,47,31,1
430.22226,430.31427,50,31,1
430.31427,430.40628,55,34,1
430.40628,430.4983,50,30,1
430.4983,430.5903,47,30,1
430.5903,430.68497,43,40,1
430.68497,430.77963,48,30,1
430.77963,430.8743,50,30,1
430.8743,430.96893,57,34,1
430.96893,431.0636,50,31,1
431.0636,431.15826,48,31,1
431.15826,431.25116,43,43,1
431.25116,431.34402,47,33,1
431.34402,431.43692,50,34,1
431.43692,431.52982,55,39,1
431.52982,431.62268,50,34,1
431.62268,431.71558,47,35,1
431.71558,431.81024,43,50,1
431.81024,431.9049,48,38,1
431.9049,431.99957,50,39,1
431.99957,432.09424,57,45,1
432.09424,432.18887,50,42,1
432.18887,432.28354,48,43,1
432.28354,432.37643,43,50,1
432.37643,432.46933,47,44,1
432.46933,432.5622,50,45,1
432.5622,432.6551,55,51,1
432.6551,432.74796,50,45,1
432.74796,432.84085,47,47,1
432.84085,432.93552,43,64,1
432.93552,433.03018,48,49,1
433.03018,433.12485,50,50,1
433.12485,433.2195,57,57,1
433.2195,433.31415,50,53,1
433.31415,433.4088,48,54,1
433.4088,433.71112,55,80,1
433.4088,433.71112,43,68,1
433.4088,433.71112,47,68,1
433.4088,433.71112,50,68,1
435.23544,435.53622,55,92,1
435.23544,435.53622,43,78,1
435.23544,435.53622,47,78,1
435.23544,435.53622,50,78,1
435.83704,436.13782,43,101,1
435.83704,436.13782,31,85,1
437.67487,437.97717,55,92,1
437.67487,437.97717,43,78,1
437.67487,437.97717,47,78,1
437.67487,437.97717,50,78,1
438.27948,438.58176,43,101,1
438.27948,438.58176,31,85,1
440.11237,440.4162,55,92,1
440.11237,440.4162,43,78,1
440.11237,440.4162,47,78,1
440.11237,440.4162,50,78,1
440.72006,441.02393,43,101,1
440.72006,441.02393,31,85,1
442.58585,442.89444,55,92,1
442.58585,442.89444,43,78,1
442.58585,442.89444,47,78,1
442.58585,442.89444,50,78,1
443.2033,443.51648,43,90,1
443.2033,443.51648,31,76,1
444.42218,444.72913,55,54,1
444.42218,444.72913,65,64,1
444.42218,444.72913,62,54,1
444.42218,444.72913,59,54,1
445.6469,445.95694,55,49,1
445.6469,445.95694,65,58,1
445.6469,445.95694,62,49,1
445.6469,445.95694,59,49,1
446.87775,447.18777,55,43,1
446.87775,447.18777,65,51,1
446.87775,447.18777,62,43,1
446.87775,447.18777,59,43,1
448.10858,448.414,65,48,1
448.10858,448.414,55,40,1
448.10858,448.414,59,40,1
448.10858,448.414,62,40,1
449.3302,449.63562,53,38,1
449.3302,449.63562,43,32,1
449.3302,449.63562,47,32,1
449.3302,449.63562,50,32,1
450.55182,450.85513,53,36,1
450.55182,450.85513,43,30,1
450.55182,450.85513,47,30,1
450.55182,450.85513,50,30,1
451.78635,452.10443,53,34,1
451.78635,452.10443,43,28,1
451.78635,452.10443,47,28,1
451.78635,452.10443,50,28,1
453.06036,453.379,53,25,1
453.06036,453.379,43,21,1
453.06036,453.379,47,21,1
453.06036,453.379,50,21,1
455.6095,456.24677,52,25,1
455.6095,456.24677,43,21,1
455.6095,456.24677,46,21,1
455.6095,456.24677,49,21,1
458.15805,458.80392,51,25,1
458.15805,458.80392,43,21,1
458.15805,458.80392,45,21,1
458.15805,458.80392,48,21,1
460.8348,461.2023,43,25,1
462.30484,462.66357,79,30,1
463.0223,463.41125,55,27,1
463.8002,464.26105,43,25,1
464.72186,467.70334,31,25,1
467.70334,467.9743,48,75,1
467.70334,467.9743,36,72,1
467.9743,468.0789,64,41,1
468.0789,468.18347,67,34,1
468.18347,468.2803,64,41,1
468.2803,468.37714,67,34,1
468.37714,468.47397,64,41,1
468.47397,468.5708,67,33,1
468.5708,468.66855,65,41,1
468.66855,468.76633,67,34,1
468.76633,468.86218,65,41,1
468.86218,468.958,67,35,1
468.958,469.05707,64,41,1
469.05707,469.1561,67,34,1
469.1561,469.25513,64,41,1
469.25513,469.35416,67,35,1
469.35416,469.45682,64,41,1
469.45682,469.55945,67,34,1
469.55945,469.6585,64,41,1
469.6585,469.75754,67,34,1
469.75754,469.85376,64,41,1
469.85376,469.94998,67,34,1
469.94998,470.0462,64,41,1
470.0462,470.14246,67,33,1
470.14246,470.2402,65,41,1
470.2402,470.33795,67,34,1
470.33795,470.4338,65,41,1
470.4338,470.52966,67,35,1
470.52966,470.6287,64,41,1
470.6287,470.72775,67,34,1
470.72775,470.82678,64,41,1
470.82678,470.9258,67,35,1
470.9258,471.0202,64,41,1
471.0202,471.1146,67,34,1
470.9258,471.1146,60,41,1
471.1146,471.20898,64,41,1
471.20898,471.30338,67,34,1
471.1146,471.30338,60,41,1
471.30338,471.39777,64,41,1
471.39777,471.49216,67,34,1
471.30338,471.49216,60,41,1
471.49216,471.5868,64,41,1
471.5868,471.68256,67,33,1
471.49216,471.68256,60,41,1
471.68256,471.77832,65,38,1
471.77832,471.8741,67,32,1
471.68256,471.8741,60,38,1
471.8741,471.96988,65,38,1
471.96988,472.06564,67,33,1
471.8741,472.06564,60,38,1
472.06564,472.16284,64,38,1
472.16284,472.26004,67,32,1
472.06564,472.26004,60,38,1
472.26004,472.35724,64,38,1
472.35724,472.4575,67,33,1
472.26004,472.4575,60,38,1
472.4575,472.5519,64,41,1
472.5519,472.6463,67,34,1
472.4575,472.6463,60,41,1
472.6463,472.7407,64,41,1
472.7407,472.83508,67,34,1
472.6463,472.83508,60,41,1
472.83508,472.92947,64,41,1
472.92947,473.02386,67,34,1
472.83508,473.02386,60,41,1
473.02386,473.11847,64,41,1
473.11847,473.21426,67,33,1
473.02386,473.21426,60,41,1
473.21426,473.31003,65,38,1
473.31003,473.4058,67,32,1
473.21426,473.4058,60,38,1
473.4058,473.50156,65,38,1
473.50156,473.59735,67,33,1
473.4058,473.59735,60,38,1
473.59735,473.69455,64,38,1
473.69455,473.79172,67,32,1
473.59735,473.79172,60,38,1
473.79172,473.88892,64,38,1
473.88892,473.9861,67,33,1
473.79172,473.9861,60,38,1
473.9861,474.08188,65,48,1
474.08188,474.17767,67,43,1
473.9861,474.17767,60,48,1
474.17767,474.27344,65,54,1
474.27344,474.3692,67,47,1
474.17767,474.3692,60,54,1
474.3692,474.47256,64,60,1
474.46463,474.568,63,53,1
474.56003,474.66357,64,53,1
474.65546,474.75302,60,54,1
474.75302,474.85638,62,61,1
474.84842,474.95178,61,54,1
474.94385,475.04736,62,54,1
475.03925,475.13644,59,54,1
475.13644,475.2398,60,61,1
475.23187,475.33524,59,54,1
475.32727,475.43085,60,54,1
475.4227,475.52063,57,54,1
475.52063,475.624,59,60,1
475.61603,475.7194,58,54,1
475.71146,475.81494,59,54,1
475.80685,475.90405,55,54,1
475.90405,476.00742,57,60,1
475.99945,476.10284,56,54,1
476.09488,476.19843,57,54,1
476.1903,476.28784,53,54,1
476.28784,476.39185,55,60,1
476.38385,476.48785,54,54,1
476.47983,476.5841,55,54,1
476.57584,476.67502,52,54,1
476.67502,476.77933,53,61,1
476.7713,476.87564,52,54,1
476.8676,476.97226,53,54,1
476.96393,477.06375,50,54,1
477.06375,477.16876,52,62,1
477.1607,477.26572,51,54,1
477.25763,477.36285,52,54,1
477.35455,477.45407,48,54,1
477.45407,477.55872,60,61,1
477.55066,477.65533,59,54,1
477.64728,477.75214,60,54,1
477.7439,477.84274,64,54,1
477.84274,477.94708,59,61,1
477.93906,478.0434,58,54,1
478.03537,478.1399,59,54,1
478.13168,478.2302,62,54,1
478.2302,478.33356,57,61,1
478.3256,478.42896,56,54,1
478.42102,478.52457,57,54,1
478.51642,478.61398,60,54,1
478.61398,478.71735,55,60,1
478.7094,478.81277,54,54,1
478.8048,478.90836,55,54,1
478.90024,478.9978,59,54,1
478.9978,479.10117,53,61,1
479.0932,479.19656,52,54,1
479.18863,479.29218,53,54,1
479.28403,479.3816,57,54,1
479.3816,479.48526,52,62,1
479.47726,479.58093,51,54,1
479.57297,479.67694,52,54,1
479.66864,479.76816,55,54,1
479.76816,479.8725,50,60,1
479.86447,479.9688,49,54,1
479.9608,480.0658,50,54,1
480.05746,480.15732,53,53,1
480.15732,480.35052,48,84,1
480.44714,480.54507,48,72,1
480.54507,480.73706,43,84,1
480.83304,480.9306,43,72,1
480.9306,481.12143,50,84,1
481.21686,481.3148,50,72,1
481.3148,481.5056,45,84,1
481.601,481.6993,45,72,1
481.6993,481.89014,53,84,1
481.98553,482.08383,53,73,1
482.08383,482.27466,48,84,1
482.37006,482.468,48,74,1
482.468,482.6588,55,84,1
482.75424,482.85214,55,73,1
482.85214,483.04297,43,84,1
483.1384,483.2367,43,74,1
483.2367,483.42752,48,84,1
483.52292,483.62085,60,73,1
483.62085,483.81168,55,84,1
483.90707,484.00537,55,73,1
484.00537,484.1962,50,84,1
484.29163,484.3899,62,72,1
484.3899,484.58072,57,84,1
484.67615,484.7744,57,72,1
484.7744,484.96768,53,84,1
485.0643,485.1646,65,73,1
485.1646,485.35916,53,84,1
485.45645,485.55817,65,73,1
485.55817,485.7534,53,83,1
485.85098,485.95166,65,72,1
485.95166,486.14752,53,82,1
486.24545,486.34717,53,72,1
486.34717,486.55807,41,82,1
486.55807,486.6571,57,41,1
486.6571,486.75613,60,34,1
486.75613,486.85236,57,41,1
486.85236,486.94858,60,34,1
486.94858,487.04483,57,41,1
487.04483,487.14105,60,33,1
487.14105,487.2388,58,41,1
487.2388,487.33655,60,34,1
487.33655,487.4324,58,41,1
487.4324,487.52826,60,35,1
487.52826,487.6273,57,41,1
487.6273,487.72635,60,34,1
487.72635,487.82538,57,41,1
487.82538,487.9244,60,35,1
487.9244,488.0188,57,41,1
488.0188,488.1132,60,34,1
488.1132,488.20758,57,41,1
488.20758,488.30197,60,34,1
488.30197,488.39636,57,41,1
488.39636,488.49075,60,34,1
488.49075,488.5854,57,41,1
488.5854,488.68115,60,33,1
488.68115,488.77692,58,38,1
488.77692,488.8727,60,32,1
488.8727,488.96848,58,38,1
488.96848,489.06424,60,33,1
489.06424,489.16144,57,38,1
489.16144,489.25864,60,32,1
489.25864,489.35583,57,38,1
489.35583,489.45612,60,33,1
489.45612,489.667,43,85,1
489.667,489.86505,59,42,1
489.86505,490.0575,62,43,1
490.0575,490.24997,59,39,1
490.24997,490.4455,60,43,1
490.4455,490.63718,64,42,1
490.63718,490.83527,62,42,1
490.83527,491.03333,59,39,1
491.03333,491.2442,55,46,1
491.2442,491.4423,59,42,1
491.4423,491.63474,62,43,1
491.63474,491.8272,59,39,1
491.8272,492.0307,60,43,1
492.0227,492.22266,64,42,1
492.21442,492.42075,62,42,1
492.41248,492.61057,59,39,1
492.61057,492.81406,57,43,1
492.8061,493.00598,60,42,1
492.99777,493.20248,59,42,1
493.1943,493.39084,55,39,1
493.39084,493.59433,53,43,1
493.58636,493.78625,57,42,1
493.77805,493.9828,55,42,1
493.97458,494.1711,52,39,1
494.1711,494.37125,50,44,1
494.36307,494.56696,53,43,1
494.55893,494.75967,48,44,1
494.75153,494.94675,52,41,1
494.94675,495.1475,47,46,1
495.13934,495.3432,50,44,1
495.3352,495.53528,45,44,1
495.52716,495.72238,48,42,1
495.72238,495.92245,43,47,1
495.91434,496.11755,47,46,1
496.10956,496.31024,41,47,1
496.30212,496.49667,45,42,1
496.49667,496.6962,40,48,1
496.68805,496.89133,43,47,1
496.88318,497.08664,38,47,1
496.88318,497.08664,31,47,1
497.0783,497.27805,43,43,1
497.27805,497.47736,44,94,1
497.27805,497.47736,32,79,1
497.67667,497.7763,56,82,1
497.67667,497.7763,60,89,1
497.67667,497.7763,63,98,1
498.0753,498.85956,56,82,1
498.0753,498.85956,60,89,1
498.0753,498.85956,63,98,1
498.85956,499.04974,39,47,1
499.2399,499.43143,51,34,1
499.2399,499.43143,61,40,1
499.2399,499.43143,58,34,1
499.2399,499.43143,55,34,1
499.63235,499.82373,40,47,1
500.0151,500.20648,52,34,1
500.0151,500.20648,61,40,1
500.0151,500.20648,58,34,1
500.0151,500.20648,55,34,1
500.41125,500.61057,41,94,1
500.80984,500.90952,53,82,1
500.80984,500.90952,56,89,1
500.80984,500.90952,60,98,1
501.20847,501.99277,53,82,1
501.20847,501.99277,56,89,1
501.20847,501.99277,60,98,1
501.99277,502.18353,36,47,1
502.3743,502.56506,48,34,1
502.3743,502.56506,58,40,1
502.3743,502.56506,55,34,1
502.3743,502.56506,52,34,1
502.76523,502.9566,36,47,1
503.14798,503.33936,48,34,1
503.14798,503.33936,58,40,1
503.14798,503.33936,55,34,1
503.14798,503.33936,52,34,1
503.53073,503.73004,37,94,1
503.92935,504.029,49,73,1
503.92935,504.029,53,80,1
503.92935,504.029,56,88,1
504.32797,505.11224,49,73,1
504.32797,505.11224,53,80,1
504.32797,505.11224,56,88,1
505.11224,505.30362,32,47,1
505.495,505.68637,44,34,1
505.495,505.68637,54,40,1
505.495,505.68637,51,34,1
505.495,505.68637,48,34,1
505.88672,506.07874,33,47,1
506.27072,506.4627,45,34,1
506.27072,506.4627,54,40,1
506.27072,506.4627,51,34,1
506.27072,506.4627,48,34,1
506.66006,506.78946,34,58,1
507.04822,507.24228,46,27,1
507.04822,507.24228,49,27,1
507.04822,507.24228,53,32,1
507.43637,508.23602,53,32,1
507.43637,508.23602,49,27,1
507.43637,508.23602,46,27,1
508.23602,508.36542,32,58,1
508.62418,508.81827,44,27,1
508.62418,508.81827,48,27,1
508.62418,508.81827,53,32,1
509.01233,509.812,53,32,1
509.01233,509.812,48,27,1
509.01233,509.812,44,27,1
509.812,509.94138,31,58,1
510.20016,510.39423,47,27,1
510.20016,510.39423,43,27,1
510.20016,510.39423,53,32,1
510.20016,510.39423,50,27,1
510.5883,511.38797,53,32,1
510.5883,511.38797,43,27,1
510.5883,511.38797,47,27,1
510.5883,511.38797,50,27,1
511.38797,511.51736,32,58,1
511.77612,511.97018,44,27,1
511.77612,511.97018,48,27,1
511.77612,511.97018,51,32,1
512.16425,512.9639,51,32,1
512.16425,512.9639,48,27,1
512.16425,512.9639,44,27,1
512.9639,513.09375,33,41,1
513.09375,513.2236,36,37,1
513.2236,513.35333,39,37,1
513.35333,513.48315,42,41,1
513.48315,513.613,45,37,1
513.613,513.74274,48,37,1
513.74274,513.87256,51,41,1
513.87256,514.0024,54,38,1
514.0024,514.13214,57,39,1
516.1256,516.33984,43,41,1
516.1256,516.33984,31,41,1
516.1256,516.33984,36,41,1
516.1256,516.33984,40,41,1
517.8368,517.94257,43,35,1
517.8368,517.94257,31,29,1
517.93445,518.0403,33,29,1
517.93445,518.0403,45,35,1
518.0321,518.13794,35,30,1
518.0321,518.13794,47,36,1
518.1298,518.2356,36,31,1
518.1298,518.2356,48,37,1
518.2275,518.3333,38,31,1
518.2275,518.3333,50,37,1
518.32513,518.43097,40,32,1
518.32513,518.43097,52,38,1
518.42285,518.5286,41,32,1
518.42285,518.5286,53,38,1
518.5205,518.7159,43,33,1
518.5205,518.7159,55,39,1
518.7159,518.82166,57,37,1
518.7159,518.82166,45,31,1
518.81354,518.9194,47,32,1
518.81354,518.9194,59,38,1
518.9112,519.017,48,33,1
518.9112,519.017,60,39,1
519.00885,519.1147,50,34,1
519.00885,519.1147,62,40,1
519.10657,519.21234,52,35,1
519.10657,519.21234,64,42,1
519.2042,519.31006,53,36,1
519.2042,519.31006,65,43,1
519.3019,519.49725,55,37,1
519.3019,519.49725,67,44,1
520.9942,521.1,43,35,1
520.9942,521.1,31,29,1
521.09186,521.1977,33,29,1
521.09186,521.1977,45,35,1
521.1895,521.29535,35,30,1
521.1895,521.29535,47,36,1
521.2872,521.393,36,31,1
521.2872,521.393,48,37,1
521.3849,521.49066,38,31,1
521.3849,521.49066,50,37,1
521.48254,521.5884,40,32,1
521.48254,521.5884,52,38,1
521.5802,521.68604,41,32,1
521.5802,521.68604,53,38,1
521.6779,521.8732,43,33,1
521.6779,521.8732,55,39,1
521.8732,521.97906,57,37,1
521.8732,521.97906,45,31,1
521.97095,522.0767,47,32,1
521.97095,522.0767,59,38,1
522.0686,522.17444,48,33,1
522.0686,522.17444,60,39,1
522.16626,522.2721,50,34,1
522.16626,522.2721,62,40,1
522.264,522.36975,52,35,1
522.264,522.36975,64,42,1
522.36163,522.4716,53,36,1
522.36163,522.4716,65,43,1
522.4593,522.70447,55,37,1
522.4593,522.70447,67,44,1
524.2006,524.30646,55,35,1
524.2983,524.4041,53,37,1
524.39594,524.5018,52,38,1
524.49365,524.5994,50,40,1
524.5913,524.69714,48,41,1
524.68896,524.7948,47,43,1
524.7867,524.89246,45,44,1
524.88434,525.07965,43,46,1
525.07965,525.18524,41,47,1
525.1771,525.2832,40,48,1
525.27496,525.38165,38,50,1
525.3734,525.48047,36,51,1
525.4722,525.5799,35,53,1
525.5716,525.6809,33,54,1
525.6723,525.7838,31,57,1
525.77527,525.886,33,57,1
525.8775,525.9875,35,58,1
525.97906,526.08826,36,58,1
526.0799,526.1886,38,59,1
526.18024,526.28894,40,59,1
526.2806,526.3893,41,60,1
526.3809,526.48956,42,60,1
526.4812,526.5899,43,61,1
526.58154,526.69,45,61,1
526.68164,526.78986,47,62,1
526.78156,526.88947,48,62,1
526.88116,526.9888,50,63,1
526.9805,527.0878,52,63,1
527.0796,527.1867,53,64,1
527.17847,527.28534,54,64,1
527.27716,527.3824,55,64,1
527.374,527.4802,57,64,1
527.4721,527.5775,59,65,1
527.56946,527.6741,60,65,1
527.66583,527.77216,62,66,1
527.7641,527.8714,64,66,1
527.86304,527.97046,65,67,1
527.96265,528.06683,66,67,1
528.0588,528.1646,67,68,1
528.1563,528.26306,69,66,1
528.255,528.3593,71,65,1
528.35126,528.457,72,63,1
528.4488,528.5557,74,62,1
528.5474,528.6549,76,57,1
528.6466,528.7547,77,55,1
528.7464,528.855,76,53,1
528.8466,529.04626,77,56,1
529.34625,529.4464,76,43,1
529.4464,529.5436,77,46,1
529.5436,529.6422,76,43,1
529.6422,529.8381,77,51,1
530.1326,530.2307,76,42,1
530.2307,530.3281,77,46,1
530.3281,530.4262,76,42,1
530.4262,530.6218,77,50,1
531.9924,532.12573,48,51,1
532.12573,532.26135,55,31,1
532.26135,532.39496,60,31,1
532.39496,532.5308,64,33,1
532.5308,532.6633,60,31,1
532.6633,532.7981,64,31,1
532.7981,532.9324,67,35,1
532.9324,533.0668,64,31,1
533.0668,533.20233,67,31,1
533.20233,533.3363,64,35,1
533.3363,533.4716,60,31,1
533.4716,533.6068,64,31,1
533.6068,533.7394,65,35,1
533.7394,533.87286,62,31,1
533.87286,534.0051,65,31,1
534.0051,534.13934,62,36,1
534.13934,534.2756,59,31,1
534.2756,534.40985,62,31,1
534.40985,534.54425,64,35,1
534.54425,534.67975,60,31,1
534.67975,534.8143,55,31,1
534.8143,534.9505,60,35,1
534.9505,535.08514,55,31,1
535.08514,535.22125,52,31,1
535.22125,535.35504,48,49,1
535.35504,535.49066,55,31,1
535.49066,535.6243,60,31,1
535.6243,535.76013,64,33,1
535.76013,535.8927,60,31,1
535.8927,536.02747,64,31,1
536.02747,536.16174,67,35,1
536.16174,536.29614,64,31,1
536.29614,536.43164,67,31,1
536.43164,536.5657,64,35,1
536.5657,536.701,60,31,1
536.701,536.8362,64,31,1
536.8362,536.96875,65,35,1
536.96875,537.10223,62,31,1
537.10223,537.23444,65,31,1
537.23444,537.3687,59,36,1
537.3687,537.50494,62,31,1
537.50494,537.6392,59,31,1
537.6392,537.7731,60,35,1
537.7731,537.9079,57,31,1
537.9079,538.0436,55,31,1
538.0436,538.17926,53,35,1
538.17926,538.31616,52,31,1
538.31616,538.4515,50,31,1
538.4515,538.5853,48,63,1
538.5853,538.72095,55,31,1
538.72095,538.8546,60,31,1
538.8546,538.9904,63,33,1
538.9904,539.123,60,31,1
539.123,539.25775,63,31,1
539.25775,539.392,67,35,1
539.392,539.5264,63,31,1
539.5264,539.6619,67,31,1
539.6619,539.79596,63,35,1
539.79596,539.9313,60,31,1
539.9313,540.06647,63,31,1
540.06647,540.19904,65,35,1
540.19904,540.3325,62,31,1
540.3325,540.4647,65,31,1
540.4647,540.599,62,36,1
540.599,540.7352,59,31,1
540.7352,540.8695,62,31,1
540.8695,541.00415,63,35,1
541.00415,541.13947,60,31,1
541.13947,541.2734,63,31,1
541.2734,541.4092,58,35,1
541.2734,541.4771,51,35,1
541.4092,541.54596,61,31,1
541.54596,541.6931,58,31,1
541.6931,541.82697,44,45,1
541.82697,541.9626,51,31,1
541.9626,542.0962,56,31,1
542.0962,542.23206,60,33,1
542.23206,542.36456,56,31,1
542.36456,542.4993,60,31,1
542.4993,542.6336,63,35,1
542.6336,542.768,60,31,1
542.768,542.90356,63,31,1
542.90356,543.03754,60,35,1
543.03754,543.17285,56,31,1
543.17285,543.30804,60,31,1
543.30804,543.4406,61,35,1
543.4406,543.5741,58,31,1
543.5741,543.7063,61,31,1
543.7063,543.8406,58,36,1
543.8406,543.9768,55,31,1
543.9768,544.1111,58,31,1
544.1111,544.2457,60,35,1
544.2457,544.3821,56,31,1
544.3821,544.51733,60,31,1
544.51733,544.6532,55,35,1
544.51733,544.7202,48,35,1
544.6532,544.788,58,31,1
544.788,544.92365,55,31,1
544.92365,545.05743,41,45,1
545.05743,545.19305,48,31,1
545.19305,545.3267,53,31,1
545.3267,545.4625,56,33,1
545.4625,545.59503,53,31,1
545.59503,545.72986,56,31,1
545.72986,545.86414,60,35,1
545.86414,545.9985,56,31,1
545.9985,546.13403,60,31,1
546.13403,546.268,56,35,1
546.268,546.4034,53,31,1
546.4034,546.5386,56,31,1
546.5386,546.67114,58,35,1
546.67114,546.8046,55,31,1
546.8046,546.9368,58,31,1
546.9368,547.0711,55,36,1
547.0711,547.20734,52,31,1
547.20734,547.3416,55,31,1
547.3416,547.4762,56,35,1
547.4762,547.61255,53,31,1
547.61255,547.74786,56,31,1
547.74786,547.8837,53,35,1
547.8837,548.0185,48,31,1
548.0185,548.1541,53,31,1
548.1541,548.28687,58,35,1
548.28687,548.42035,55,31,1
548.42035,548.55255,58,31,1
548.55255,548.6868,52,36,1
548.6868,548.82306,55,31,1
548.82306,548.95734,52,31,1
548.95734,549.092,53,35,1
549.092,549.2283,56,31,1
549.2283,549.3636,53,31,1
549.3636,549.49945,55,35,1
549.49945,549.6342,60,31,1
549.6342,549.76984,55,31,1
549.76984,549.97327,56,40,1
549.76984,549.97327,65,40,1
550.3802,550.5835,65,40,1
550.3802,550.5835,56,40,1
550.5835,550.7852,65,44,1
550.5835,550.7852,56,44,1
551.1856,551.3843,65,41,1
551.1856,551.3843,56,41,1
551.3843,551.5811,66,49,1
551.3843,551.5811,56,49,1
551.97406,552.1712,66,47,1
551.97406,552.1712,56,47,1
552.1712,552.3668,66,52,1
552.1712,552.3668,56,52,1
552.7607,552.957,66,48,1
552.7607,552.957,56,48,1
552.957,553.154,67,56,1
552.957,553.154,55,56,1
553.154,553.3468,72,57,1
553.154,553.3468,67,57,1
553.3468,553.5431,72,59,1
553.3468,553.5431,67,59,1
553.5431,553.73737,72,60,1
553.5431,553.73737,67,60,1
553.73737,553.93164,72,62,1
553.73737,553.93164,67,62,1
553.93164,554.1254,72,63,1
553.93164,554.1254,67,63,1
554.1254,554.32,72,64,1
554.1254,554.32,67,64,1
554.32,554.5185,72,66,1
554.32,554.5185,67,66,1
554.5185,554.58264,72,46,1
554.58264,554.64667,71,40,1
554.64667,554.71155,72,47,1
554.71155,554.7759,71,41,1
554.7759,554.8401,72,50,1
554.8401,554.9055,71,45,1
554.9055,554.9705,72,52,1
554.9705,555.0346,71,44,1
555.0346,555.0992,72,52,1
555.0992,555.1641,71,43,1
555.1641,555.22876,72,54,1
555.22876,555.2938,71,45,1
555.2938,555.3584,72,50,1
555.3584,555.4226,71,44,1
555.4226,555.4868,72,50,1
555.4868,555.5514,71,44,1
555.5514,555.6173,72,54,1
555.6173,555.6832,71,48,1
555.6832,555.7482,72,55,1
555.7482,555.8124,71,44,1
555.8124,555.8762,72,54,1
555.8762,555.9417,71,48,1
555.9417,556.007,72,56,1
556.007,556.07184,71,50,1
554.5185,556.07184,67,68,1
556.07184,556.30676,36,85,1
556.30676,556.41296,60,78,1
556.30676,556.41296,48,66,1
556.30676,556.41296,52,66,1
556.30676,556.41296,55,66,1
556.51917,556.91907,60,78,1
556.51917,556.91907,55,66,1
556.51917,556.91907,52,66,1
556.91907,557.3225,59,82,1
556.91907,557.3225,55,69,1
556.91907,557.3225,53,69,1
557.3225,557.73676,60,77,1
556.51917,557.73676,48,66,1
557.3225,557.73676,52,65,1
557.3225,557.73676,55,65,1
557.73676,557.9688,36,48,1
557.9688,558.07385,60,43,1
557.9688,558.07385,48,37,1
557.9688,558.07385,52,37,1
557.9688,558.07385,55,37,1
558.17896,558.5788,60,43,1
558.17896,558.5788,55,37,1
558.17896,558.5788,52,37,1
558.5788,558.98517,59,46,1
558.5788,558.98517,55,38,1
558.5788,558.98517,53,38,1
558.98517,559.3979,60,43,1
558.17896,559.3979,48,37,1
558.98517,559.3979,52,37,1
558.98517,559.3979,55,37,1
559.3979,559.59625,36,85,1
559.59625,559.69165,60,78,1
559.59625,559.69165,48,66,1
559.59625,559.69165,52,66,1
559.59625,559.69165,55,66,1
559.787,560.1713,60,78,1
559.787,560.1713,55,66,1
559.787,560.1713,52,66,1
560.1713,560.5644,59,82,1
560.1713,560.5644,55,69,1
560.1713,560.5644,53,69,1
560.5644,560.95886,60,77,1
559.787,560.95886,48,66,1
560.5644,560.95886,52,65,1
560.5644,560.95886,55,65,1
560.95886,561.1546,36,48,1
561.1546,561.25024,60,43,1
561.1546,561.25024,48,37,1
561.1546,561.25024,52,37,1
561.1546,561.25024,55,37,1
561.34595,561.7299,60,43,1
561.34595,561.7299,55,37,1
561.34595,561.7299,52,37,1
561.7299,562.11914,59,46,1
561.7299,562.11914,55,38,1
561.7299,562.11914,53,38,1
562.11914,562.5122,60,43,1
561.34595,562.5122,48,37,1
562.11914,562.5122,52,37,1
562.11914,562.5122,55,37,1
562.5122,562.70215,53,41,1
562.5122,562.70215,48,34,1
562.70374,562.89374,53,36,1
562.70374,562.89374,48,30,1
562.8953,563.08453,52,37,1
562.8953,563.08453,48,31,1
563.0861,563.27747,52,38,1
563.0861,563.27747,48,32,1
563.2791,563.46906,53,41,1
563.2791,563.46906,48,34,1
563.47064,563.6606,53,36,1
563.47064,563.6606,48,30,1
563.66223,563.85144,52,37,1
563.66223,563.85144,48,31,1
563.853,564.0444,52,38,1
563.853,564.0444,48,32,1
564.046,564.2339,53,45,1
564.046,564.2339,48,37,1
564.2355,564.42334,55,40,1
564.2355,564.42334,48,33,1
564.2355,564.42334,53,33,1
564.42487,564.6115,59,43,1
564.42487,564.6115,55,36,1
564.42487,564.6115,50,36,1
564.42487,564.6115,53,36,1
564.42487,564.6115,48,36,1
564.6131,564.8016,59,45,1
564.6131,564.8016,55,38,1
564.6131,564.8016,50,38,1
564.6131,564.8016,53,38,1
564.6131,564.8016,48,38,1
564.80316,564.9904,59,51,1
564.80316,564.9904,55,42,1
564.80316,564.9904,50,42,1
564.80316,564.9904,53,42,1
564.80316,564.9904,48,42,1
564.992,565.17926,59,46,1
564.992,565.17926,53,38,1
564.992,565.17926,50,38,1
564.992,565.17926,55,38,1
564.992,565.17926,48,38,1
565.18085,565.3675,59,48,1
565.18085,565.3675,55,40,1
565.18085,565.3675,50,40,1
565.18085,565.3675,53,40,1
565.18085,565.3675,48,40,1
565.3691,565.55725,59,51,1
565.3691,565.55725,55,43,1
565.3691,565.55725,50,43,1
565.3691,565.55725,53,43,1
565.3691,565.55725,48,43,1
565.55884,565.7455,59,57,1
565.55884,565.7455,55,47,1
565.55884,565.7455,50,47,1
565.55884,565.7455,53,47,1
565.55884,565.7455,48,47,1
565.747,565.93365,59,50,1
565.747,565.93365,53,42,1
565.747,565.93365,50,42,1
565.747,565.93365,55,42,1
565.747,565.93365,48,42,1
565.93524,566.12006,59,52,1
565.93524,566.12006,55,44,1
565.93524,566.12006,50,44,1
565.93524,566.12006,53,44,1
565.93524,566.12006,48,44,1
566.12164,566.3086,59,55,1
566.12164,566.3086,55,45,1
566.12164,566.3086,50,45,1
566.12164,566.3086,53,45,1
566.12164,566.3086,48,45,1
566.3102,566.4962,59,60,1
566.3102,566.4962,55,49,1
566.3102,566.4962,50,49,1
566.3102,566.4962,53,49,1
566.3102,566.4962,48,49,1
566.49774,566.6838,59,54,1
566.49774,566.6838,53,45,1
566.49774,566.6838,50,45,1
566.49774,566.6838,55,45,1
566.49774,566.6838,48,45,1
566.68536,566.8702,59,55,1
566.68536,566.8702,55,46,1
566.68536,566.8702,50,46,1
566.68536,566.8702,53,46,1
566.68536,566.8702,48,46,1
566.87177,567.0584,59,58,1
566.87177,567.0584,55,48,1
566.87177,567.0584,50,48,1
566.87177,567.0584,53,48,1
566.87177,567.0584,48,48,1
567.06,567.25006,48,71,1
567.06,567.25006,36,71,1
567.25006,567.3451,55,67,1
567.25006,567.3451,52,56,1
567.4401,567.5352,52,70,1
567.4401,567.5352,48,59,1
567.63025,567.7253,55,56,1
567.63025,567.7253,60,67,1
567.8203,567.91534,55,70,1
567.8203,567.91534,52,59,1
568.0104,568.1054,64,67,1
568.0104,568.1054,60,56,1
568.20044,568.2955,60,71,1
568.20044,568.2955,55,60,1
568.39056,568.4856,64,67,1
568.39056,568.4856,60,56,1
568.5806,568.67566,67,70,1
568.5806,568.67566,64,59,1
568.7707,568.8657,72,68,1
568.7707,568.8657,67,57,1
568.96075,569.0558,67,70,1
568.96075,569.0558,64,59,1
569.1509,569.2459,76,68,1
569.1509,569.2459,72,57,1
569.34094,569.436,72,71,1
569.34094,569.436,67,60,1
569.531,569.62604,79,69,1
569.531,569.62604,76,58,1
569.72107,569.8161,76,72,1
569.72107,569.8161,72,61,1
569.9112,570.0062,79,69,1
569.9112,570.0062,76,58,1
570.10126,570.1963,76,72,1
570.10126,570.1963,72,61,1
570.8616,571.058,67,62,1
570.8616,571.058,64,44,1
571.64716,571.84357,64,56,1
571.64716,571.84357,60,39,1
572.43274,572.62915,55,52,1
572.43274,572.62915,52,37,1
573.2183,573.41473,52,45,1
573.2183,573.41473,48,32,1
574.00397,574.2003,67,34,1
574.00397,574.2003,64,28,1
574.3967,574.59314,67,34,1
574.3967,574.59314,64,28,1
574.78955,574.98596,64,34,1
574.78955,574.98596,60,28,1
575.57513,575.675,48,82,1
575.57513,575.675,36,69,1
575.57513,575.675,40,69,1
575.57513,575.675,43,69,1
575.9745,576.0743,48,82,1
575.9745,576.0743,36,69,1
575.9745,576.0743,40,69,1
575.9745,576.0743,43,69,1
576.3738,576.47363,48,82,1
576.3738,576.47363,36,69,1
576.3738,576.47363,40,69,1
576.3738,576.47363,43,69,1
577.1725,577.2754,48,82,1
577.1725,577.2754,36,69,1
577.1725,577.2754,40,69,1
577.1725,577.2754,43,69,1
577.99585,578.09875,48,82,1
577.99585,578.09875,36,69,1
577.99585,578.09875,40,69,1
577.99585,578.09875,43,69,1
