start_time,end_time,note_value,velocity,instrument_program_number
0.186951,0.32716426,52,33,1
0.186951,0.32716426,48,28,1
0.373902,0.51322085,52,33,1
0.373902,0.51322085,48,28,1
0.5596605,0.6989794,52,34,1
0.5596605,0.6989794,48,28,1
0.745419,0.88593787,52,34,1
0.745419,0.88593787,48,28,1
0.9328275,1.0734963,52,34,1
0.9328275,1.0734963,48,28,1
1.120386,1.2601463,52,35,1
1.120386,1.2601463,48,29,1
1.306733,1.4464933,52,35,1
1.306733,1.4464933,48,29,1
1.49308,1.6331925,52,36,1
1.49308,1.6331925,48,30,1
1.6799303,1.8201436,52,36,1
1.6799303,1.8201436,48,30,1
1.8668814,2.0066416,52,37,1
1.8668814,2.0066416,48,31,1
2.0532284,2.1929886,52,38,1
2.0532284,2.1929886,48,32,1
2.2395754,2.3797886,52,39,1
2.2395754,2.3797886,48,33,1
2.4265263,2.5667396,52,40,1
2.4265263,2.5667396,48,34,1
2.6134772,2.7536905,54,40,1
2.6134772,2.7536905,50,34,1
2.8004284,2.9406416,54,40,1
2.8004284,2.9406416,50,34,1
2.9873793,3.5482323,55,46,1
2.9873793,3.5482323,50,39,1
3.5482323,3.641708,59,40,1
3.641708,3.7351832,57,40,1
3.7351832,3.8286588,55,45,1
4.44214,4.4908414,85,46,1
4.4908414,4.965525,86,57,1
4.965525,5.060462,84,48,1
5.060462,5.1553984,83,47,1
5.1553984,5.250335,81,45,1
5.250335,5.440209,79,44,1
6.0135045,6.1537175,50,35,1
6.0135045,6.1537175,46,29,1
6.200455,6.3406687,50,35,1
6.200455,6.3406687,46,29,1
6.3874063,6.526278,50,35,1
6.3874063,6.526278,46,29,1
6.572569,6.7114406,50,36,1
6.572569,6.7114406,46,30,1
6.7577314,6.8984003,50,37,1
6.7577314,6.8984003,46,31,1
6.9452896,7.0859585,50,37,1
6.9452896,7.0859585,46,31,1
7.1328483,7.273517,50,38,1
7.1328483,7.273517,46,32,1
7.320407,7.461076,50,39,1
7.320407,7.461076,46,33,1
7.5079656,7.6481786,50,39,1
7.5079656,7.6481786,46,33,1
7.6949162,7.8351297,50,40,1
7.6949162,7.8351297,46,34,1
7.8818674,8.022536,50,40,1
7.8818674,8.022536,46,34,1
8.069426,8.210094,50,40,1
8.069426,8.210094,46,34,1
8.256985,8.395856,50,40,1
8.256985,8.395856,46,34,1
8.442147,8.581018,50,40,1
8.442147,8.581018,46,34,1
8.62731,8.766628,52,40,1
8.62731,8.766628,48,34,1
8.813067,8.952387,52,40,1
8.813067,8.952387,48,34,1
8.998826,9.557818,53,46,1
8.998826,9.557818,48,39,1
9.557818,9.650991,57,40,1
9.650991,9.744165,55,40,1
9.744165,9.837338,53,45,1
10.449786,10.498646,83,46,1
10.498646,10.97333,84,57,1
10.97333,11.068266,82,50,1
11.068266,11.163203,80,49,1
11.163203,11.25814,79,47,1
11.25814,11.448013,77,46,1
11.974052,12.022028,88,67,1
12.022028,13.142564,89,73,1
13.142564,13.236343,89,74,1
13.236343,13.330122,87,73,1
13.330122,13.423902,86,71,1
13.423902,13.517681,84,70,1
13.517681,13.611156,83,72,1
13.611156,13.704632,84,71,1
13.704632,13.798107,86,72,1
13.798107,13.8915825,87,73,1
13.8915825,13.985976,89,74,1
13.985976,14.080369,87,72,1
14.080369,14.174762,86,71,1
14.174762,14.269155,84,69,1
14.269155,14.36263,83,72,1
14.36263,14.456106,84,75,1
14.456106,14.549582,86,77,1
14.549582,14.643057,87,80,1
14.643057,14.736532,89,80,1
14.736532,14.830008,87,80,1
14.830008,14.923483,86,79,1
14.923483,15.016959,84,81,1
15.016959,15.111146,83,85,1
15.111146,15.206678,84,89,1
15.206678,15.304708,86,94,1
15.304708,15.409746,87,98,1
15.409746,15.5032215,89,100,1
15.5032215,15.596697,87,98,1
15.596697,15.690172,86,96,1
15.690172,15.783648,84,94,1
15.783648,15.877124,83,93,1
15.877124,15.970599,80,91,1
15.970599,16.064074,79,89,1
16.064074,16.15755,77,87,1
16.15755,16.25256,75,85,1
16.25256,16.347567,74,83,1
16.347567,16.442575,72,81,1
16.442575,16.537584,71,79,1
16.537584,16.686592,72,93,1
16.934937,17.098572,67,83,1
17.3713,17.543056,63,72,1
17.829315,18.045662,60,64,1
18.406239,20.189562,55,60,1
20.189562,20.282259,64,37,1
20.283037,20.376513,60,33,1
20.376513,20.46921,64,37,1
20.469988,20.563463,60,33,1
20.563463,20.65557,64,37,1
20.656343,20.749222,60,33,1
20.749222,20.841328,64,36,1
20.842102,20.93498,60,33,1
20.93498,21.027086,64,36,1
21.02786,21.120739,60,33,1
21.120739,21.212845,64,37,1
21.21362,21.306498,60,33,1
21.306498,21.399195,64,36,1
21.399973,21.493448,60,33,1
21.493448,21.586145,64,36,1
21.586924,21.6804,60,33,1
21.6804,21.773096,64,37,1
21.773876,21.867352,60,33,1
21.867352,21.960047,64,37,1
21.960827,22.054302,60,33,1
22.054302,22.146112,64,37,1
22.146883,22.239464,60,33,1
22.239464,22.331274,64,36,1
22.332047,22.424627,60,33,1
22.424627,22.516438,64,36,1
22.517208,22.609789,60,33,1
22.609789,22.7016,64,37,1
22.702372,22.794952,60,33,1
22.794952,22.887499,66,36,1
22.888279,22.981754,62,33,1
22.981754,23.07445,66,36,1
23.07523,23.168705,62,33,1
23.168705,23.729557,67,46,1
23.729557,23.823034,71,40,1
23.823034,23.91651,69,40,1
23.91651,24.009985,67,45,1
24.622522,24.67091,85,46,1
24.67091,25.144096,86,57,1
25.144096,25.238733,84,48,1
25.238733,25.333372,83,47,1
25.333372,25.428009,81,45,1
25.428009,25.617283,79,44,1
26.188374,26.28107,65,40,1
26.281849,26.375324,62,36,1
26.375324,26.468021,65,40,1
26.4688,26.562277,62,36,1
26.562277,26.654085,65,40,1
26.654858,26.747438,62,36,1
26.747438,26.839249,65,39,1
26.84002,26.9326,62,36,1
26.9326,27.02441,65,39,1
27.025183,27.117764,62,36,1
27.117764,27.209574,65,41,1
27.210344,27.302925,62,36,1
27.302925,27.396227,65,40,1
27.39701,27.491096,62,37,1
27.491096,27.584398,65,40,1
27.585182,27.679266,62,37,1
27.679266,27.771963,65,41,1
27.772743,27.866219,62,37,1
27.866219,27.958914,65,41,1
27.959694,28.05317,62,37,1
28.05317,28.145275,65,42,1
28.146048,28.238928,62,37,1
28.238928,28.331032,65,41,1
28.331806,28.424686,62,38,1
28.424686,28.517786,65,41,1
28.51857,28.612656,62,38,1
28.612656,28.705957,65,42,1
28.706741,28.800825,62,38,1
28.800825,28.894127,68,41,1
28.89491,28.988997,64,38,1
28.988997,29.082298,68,42,1
29.083082,29.177166,64,38,1
29.177166,29.73802,69,55,1
29.73802,29.831495,72,48,1
29.831495,29.92497,71,48,1
29.92497,30.018446,69,53,1
30.631454,30.679998,87,55,1
30.679998,31.153185,88,68,1
31.153185,31.247822,86,59,1
31.247822,31.342459,84,58,1
31.342459,31.437098,83,57,1
31.437098,31.626371,81,57,1
32.149326,32.197464,87,66,1
32.197464,32.672146,88,85,1
32.672146,32.767082,86,76,1
32.767082,32.86202,84,75,1
32.86202,32.956955,83,71,1
32.956955,33.14683,82,71,1
33.722656,34.205612,83,56,1
34.190033,34.299088,81,54,1
34.28351,34.392563,79,53,1
34.376984,34.48604,78,51,1
34.47046,34.579514,79,53,1
34.563934,34.67299,78,52,1
34.65741,34.766464,76,51,1
34.750885,34.85994,75,50,1
34.84436,34.953415,76,50,1
34.937836,35.04689,79,52,1
35.03131,35.140366,78,50,1
35.124786,35.23384,76,50,1
35.21826,35.327316,75,50,1
35.311737,35.420795,73,49,1
35.405216,35.514523,71,48,1
35.498894,35.608303,70,47,1
35.59267,35.702133,71,49,1
35.68645,35.79622,73,49,1
35.780537,35.8903,74,49,1
35.874622,35.984543,75,50,1
35.96881,36.078934,76,50,1
36.0632,36.17333,75,50,1
36.157597,36.267975,76,51,1
36.25219,36.36267,78,51,1
36.34689,36.45742,79,49,1
36.441586,36.55243,80,50,1
36.536594,36.647438,81,52,1
36.631603,36.7425,82,53,1
36.72682,36.836586,83,55,1
36.820908,36.93067,82,53,1
36.91499,37.024605,83,53,1
37.008976,37.11838,82,50,1
37.102753,37.212162,83,52,1
37.196533,37.305687,81,52,1
37.290108,37.399166,79,51,1
37.383587,37.49264,78,50,1
37.477062,37.586117,79,52,1
37.570538,37.679592,78,51,1
37.664013,37.773067,76,49,1
37.75749,37.866543,75,50,1
37.850964,37.96002,76,50,1
37.94444,38.053493,79,53,1
38.037914,38.14697,78,50,1
38.13139,38.240444,76,50,1
38.224865,38.33392,75,50,1
38.31834,38.427395,73,49,1
38.411816,38.52087,71,48,1
38.50529,38.614346,70,47,1
38.598766,38.70782,71,49,1
38.69224,38.801296,73,50,1
38.785717,38.89477,74,50,1
38.879192,38.988247,75,52,1
38.972668,39.081722,76,52,1
39.066143,39.175198,75,52,1
39.15962,39.268673,76,54,1
39.253094,39.36215,78,54,1
39.34657,39.455624,79,56,1
39.440044,39.549892,80,58,1
39.53352,39.648125,81,60,1
39.631752,39.745564,82,62,1
39.729984,39.82346,83,68,1
39.82346,39.916935,78,60,1
39.916935,40.01041,75,61,1
40.01041,40.103886,71,61,1
40.103886,40.19736,70,75,1
40.19736,40.290836,71,63,1
40.290836,40.38431,76,63,1
40.38431,40.47779,79,63,1
40.47779,40.571266,83,74,1
40.571266,40.66474,78,65,1
40.66474,40.758217,75,68,1
40.758217,40.851692,71,68,1
40.851692,40.945168,70,80,1
40.945168,41.038643,71,71,1
41.038643,41.13212,76,71,1
41.13212,41.225594,79,72,1
41.225594,41.31907,83,91,1
41.31907,41.412544,78,82,1
41.412544,41.50602,75,82,1
41.50602,41.599495,71,82,1
41.599495,41.69297,83,91,1
41.69297,41.786446,79,82,1
41.786446,41.87992,76,82,1
41.87992,41.973396,71,82,1
41.973396,42.06687,83,91,1
42.06687,42.160347,78,82,1
42.160347,42.253822,75,81,1
42.253822,42.347298,71,81,1
42.347298,42.440773,83,91,1
42.440773,42.53425,79,81,1
42.53425,42.627724,76,81,1
42.627724,42.721203,71,82,1
42.721203,42.81498,83,91,1
42.81498,42.90876,78,82,1
42.90876,43.00254,75,82,1
43.00254,43.096317,71,82,1
43.096317,43.190098,78,91,1
43.190098,43.28408,75,82,1
43.28408,43.378166,71,82,1
43.378166,43.47225,66,82,1
43.47225,43.566338,75,91,1
43.566338,43.660423,71,82,1
43.660423,43.75461,66,81,1
43.75461,43.849003,63,81,1
43.849003,43.943394,71,91,1
43.943394,44.03779,66,81,1
44.03779,44.132183,63,81,1
44.132183,44.226677,59,82,1
44.226677,44.320454,66,91,1
44.320454,44.414234,63,81,1
44.414234,44.508217,59,80,1
44.508217,44.602303,54,80,1
44.602303,44.69649,63,89,1
44.69649,44.790882,59,79,1
44.790882,44.885277,54,79,1
44.885277,44.979973,51,78,1
44.979973,45.07467,59,87,1
45.07467,45.169575,54,78,1
45.169575,45.264584,51,77,1
45.264584,45.3597,47,77,1
46.517803,46.613754,71,75,1
46.709705,46.805656,59,69,1
46.901604,46.997555,73,74,1
47.093506,47.193775,61,65,1
47.29404,47.38999,75,71,1
47.485943,47.581894,63,64,1
48.064003,48.160812,75,67,1
48.25773,48.35465,63,53,1
48.451885,48.549126,76,59,1
48.646584,48.74415,64,50,1
48.841717,48.938633,78,52,1
49.035553,49.132576,66,49,1
49.229816,49.327053,80,52,1
49.42451,49.52208,68,49,1
49.61976,49.717655,81,52,1
49.815556,49.913452,69,48,1
50.011353,50.108917,81,52,1
50.206596,50.304493,71,46,1
50.402725,50.50107,81,51,1
50.59963,50.69853,73,46,1
50.79754,50.89678,81,51,1
50.99636,51.096058,75,46,1
51.195984,51.29517,81,51,1
51.3955,51.497536,76,47,1
51.60128,51.70944,81,50,1
51.82447,51.947308,78,46,1
52.081425,52.961964,80,55,1
52.081425,52.961964,76,42,1
52.081425,52.961964,71,42,1
52.961964,53.392563,78,52,1
52.961964,53.392563,75,40,1
52.961964,53.392563,69,40,1
53.392563,53.848213,76,52,1
53.392563,53.848213,73,40,1
53.392563,53.848213,68,40,1
53.848213,54.732063,75,55,1
53.848213,54.732063,72,42,1
53.848213,54.732063,66,42,1
54.732063,55.636806,73,52,1
54.732063,55.636806,64,40,1
55.636806,56.527344,75,63,1
55.636806,56.527344,71,49,1
55.636806,56.527344,69,49,1
56.527344,56.992462,76,66,1
56.527344,56.992462,71,50,1
56.992462,57.482258,78,72,1
56.992462,57.482258,76,55,1
56.992462,57.482258,73,48,1
57.482258,58.391346,80,77,1
57.482258,58.391346,76,59,1
57.482258,58.854668,71,59,1
58.854668,59.321156,69,48,1
58.391346,59.321156,78,49,1
58.391346,59.321156,75,32,1
59.321156,60.2017,68,45,1
59.321156,60.2017,64,37,1
59.321156,60.2017,59,37,1
60.2017,60.632298,66,43,1
60.2017,60.632298,63,36,1
60.2017,60.632298,57,36,1
60.632298,61.087948,64,43,1
60.632298,61.087948,61,36,1
60.632298,61.087948,56,36,1
61.087948,61.971794,63,45,1
61.087948,61.971794,60,37,1
61.087948,61.971794,54,37,1
61.971794,62.87654,61,43,1
61.971794,62.87654,52,36,1
61.971794,62.87654,57,36,1
62.87654,63.321808,56,44,1
62.87654,63.321808,52,44,1
62.87654,63.76708,59,52,1
63.76708,64.20246,61,61,1
64.20246,64.66317,63,69,1
63.321808,64.66317,57,50,1
63.321808,64.66317,54,50,1
64.66317,64.775925,64,49,1
64.66317,64.81351,56,43,1
64.81351,64.92627,66,48,1
64.96385,65.07661,68,49,1
65.1142,65.22651,69,47,1
65.26395,65.37627,71,48,1
65.413704,65.526024,73,49,1
65.56346,65.67535,74,50,1
65.71264,65.824524,75,51,1
65.86182,65.973694,76,52,1
66.010994,66.12287,77,52,1
66.160164,66.27205,78,53,1
66.30934,66.42123,79,53,1
66.45852,66.603226,80,57,1
66.603226,66.74793,79,53,1
66.74793,66.89264,80,53,1
66.89264,67.037346,81,53,1
67.037346,67.18205,79,53,1
67.18205,67.32676,80,53,1
66.45852,67.32676,71,45,1
67.46829,67.609825,80,54,1
67.609825,67.75136,78,54,1
67.32676,67.75136,69,60,1
67.901115,68.05087,78,53,1
68.05087,68.20063,76,53,1
67.75136,68.20063,68,60,1
68.34589,68.491135,72,54,1
68.491135,68.63639,75,54,1
68.63639,68.78165,76,54,1
68.78165,68.926895,72,54,1
68.926895,69.07215,75,54,1
68.20063,69.07215,66,60,1
69.21741,69.362656,69,54,1
69.362656,69.50791,73,54,1
69.50791,69.66003,75,54,1
69.66003,69.81214,69,54,1
69.81214,69.96426,73,54,1
69.07215,69.96426,64,60,1
70.1106,70.25695,74,62,1
70.25695,70.403305,75,57,1
70.403305,70.54965,76,57,1
70.54965,70.696,74,59,1
70.696,70.84235,75,59,1
69.96426,70.84235,69,62,1
70.98545,71.128555,78,63,1
71.128555,71.27165,76,64,1
70.84235,71.27165,71,71,1
71.42317,71.574684,80,65,1
71.574684,71.7262,78,65,1
71.27165,71.7262,73,74,1
71.7262,71.87145,80,79,1
71.87145,72.01671,79,72,1
72.01671,72.161964,80,72,1
72.161964,72.30721,83,68,1
72.30721,72.45247,81,72,1
72.45247,72.597725,80,69,1
71.7262,72.597725,76,79,1
72.597725,72.74463,78,67,1
72.597725,72.74463,75,67,1
72.74463,72.89154,76,64,1
72.74463,72.89154,73,64,1
72.89154,73.038445,71,60,1
72.89154,73.038445,75,60,1
73.038445,73.19177,73,60,1
73.038445,73.19177,69,60,1
73.19177,73.3451,71,56,1
73.19177,73.3451,68,56,1
73.3451,73.49843,69,53,1
73.3451,73.49843,66,53,1
73.49843,73.643135,68,57,1
73.643135,73.78784,67,49,1
73.78784,73.93255,68,49,1
73.93255,74.077255,69,49,1
74.077255,74.22196,67,49,1
74.22196,74.36667,68,49,1
73.49843,74.36667,59,57,1
74.5082,74.649734,68,50,1
74.649734,74.79127,66,50,1
74.36667,74.79127,57,56,1
74.941025,75.09078,66,49,1
75.09078,75.24054,64,49,1
74.79127,75.24054,56,56,1
75.385796,75.531044,60,50,1
75.531044,75.6763,63,50,1
75.6763,75.821556,64,53,1
75.821556,75.966805,60,50,1
75.966805,76.11206,63,50,1
76.25732,76.402565,57,50,1
76.402565,76.54782,61,50,1
76.54782,76.699936,63,53,1
76.699936,76.85205,57,50,1
76.85205,77.004166,61,50,1
77.15051,77.29686,56,56,1
77.29686,77.45141,59,57,1
77.004166,77.45141,52,60,1
77.59945,77.74749,57,61,1
77.74749,77.90584,59,61,1
77.45141,77.90584,54,66,1
78.05738,78.20714,57,67,1
78.20714,78.36169,61,65,1
77.90584,78.36169,54,74,1
78.512024,78.66237,57,71,1
78.66237,78.816986,63,70,1
78.36169,78.816986,54,80,1
78.816986,78.96278,64,82,1
78.816986,78.96278,56,77,1
78.96278,79.10859,59,75,1
79.10859,79.254395,56,77,1
79.254395,79.4002,59,82,1
79.4002,79.546005,64,77,1
79.546005,79.69576,68,77,1
79.69576,79.84101,66,82,1
79.84101,79.98627,63,77,1
79.98627,80.13152,59,77,1
80.13152,80.27678,63,82,1
80.27678,80.42203,66,77,1
80.42203,80.57237,69,77,1
80.57237,80.71601,68,82,1
80.71601,80.85964,64,75,1
80.85964,81.00328,59,77,1
81.00328,81.14692,64,82,1
81.14692,81.29056,68,77,1
81.29056,81.440315,71,77,1
81.440315,81.582886,69,82,1
81.582886,81.72546,66,77,1
81.72546,81.87407,63,77,1
81.87407,82.01664,75,82,1
82.01664,82.15921,69,77,1
82.15921,82.30178,66,77,1
82.30178,82.72792,76,75,1
82.30178,82.72792,68,63,1
82.72792,83.58823,71,80,1
83.58823,84.45121,71,80,1
84.45121,85.3202,71,80,1
85.3202,85.75338,71,80,1
85.75338,85.895424,76,82,1
85.895424,86.03747,71,75,1
86.03747,86.17951,68,77,1
86.17951,86.321556,71,82,1
86.321556,86.46361,76,77,1
86.46361,86.61051,80,77,1
86.61051,86.75308,78,82,1
86.75308,86.89565,75,77,1
86.89565,87.03823,71,77,1
87.03823,87.1808,75,82,1
87.1808,87.32337,78,77,1
87.32337,87.46972,81,77,1
87.46972,87.61125,80,82,1
87.61125,87.752785,76,75,1
87.752785,87.89432,71,77,1
87.89432,88.03585,76,82,1
88.03585,88.17738,80,77,1
88.17738,88.33256,83,77,1
88.33256,88.4746,81,82,1
88.4746,88.616646,78,77,1
88.616646,88.76997,75,77,1
88.76997,88.91151,87,82,1
88.91151,89.05304,81,77,1
89.05304,89.19457,78,77,1
89.19457,89.40609,88,84,1
89.33559,89.4766,83,74,1
89.4766,89.617615,80,74,1
89.617615,89.82913,83,79,1
89.75863,89.89964,80,73,1
89.89964,90.04599,76,72,1
90.04599,90.25674,81,78,1
90.186485,90.32699,78,71,1
90.32699,90.46748,75,70,1
90.46748,90.67823,87,77,1
90.60799,90.74848,83,69,1
90.74848,90.90303,78,67,1
90.90303,91.113014,88,74,1
91.043015,91.18301,83,65,1
91.18301,91.32299,80,65,1
91.32299,91.532974,83,72,1
91.46298,91.60297,80,64,1
91.60297,91.74988,76,63,1
91.74988,91.95911,81,69,1
91.889366,92.028854,78,62,1
92.028854,92.16834,75,60,1
92.16834,92.37758,87,68,1
92.30783,92.44732,83,59,1
92.44732,92.60187,78,58,1
92.60187,92.70536,88,64,1
92.70536,92.80867,83,58,1
92.80867,92.91173,80,58,1
92.91173,93.01449,76,59,1
93.01449,93.11694,81,65,1
93.11694,93.21916,78,59,1
93.21916,93.32114,87,62,1
93.32114,93.422806,83,63,1
93.422806,93.52419,88,69,1
93.52419,93.62551,83,63,1
93.62551,93.72684,80,63,1
93.72684,93.82816,76,64,1
93.82816,93.92949,81,71,1
93.92949,94.03081,78,66,1
94.03081,94.13213,87,67,1
94.13213,94.24003,83,67,1
94.24003,94.34065,88,74,1
94.34065,94.44109,83,67,1
94.44109,94.54136,87,69,1
94.54136,94.64134,83,69,1
94.64134,94.74121,88,77,1
94.74121,94.84079,83,77,1
94.84079,94.9402,87,72,1
94.9402,95.039444,83,73,1
95.039444,95.13834,88,80,1
95.13834,95.23724,83,73,1
95.23724,95.33614,87,74,1
95.33614,95.435036,83,74,1
95.435036,95.533936,88,82,1
95.533936,95.632835,83,85,1
95.632835,95.731735,87,78,1
95.731735,95.84026,83,79,1
95.84026,95.93883,88,89,1
95.93883,96.03739,83,81,1
96.03739,96.13584,86,81,1
96.13584,96.23407,83,81,1
96.23407,96.332306,86,89,1
96.332306,96.43031,83,83,1
96.43031,96.52821,86,82,1
96.52821,96.62605,83,82,1
96.62605,96.723625,86,89,1
96.723625,96.82119,83,81,1
96.82119,96.918755,86,81,1
96.918755,97.01633,83,81,1
97.01633,97.11389,86,89,1
97.11389,97.21146,83,83,1
97.21146,97.30903,86,82,1
97.30903,97.41035,83,82,1
97.41035,97.600365,86,89,1
97.600365,97.69537,85,81,1
97.69537,97.79038,83,81,1
97.79038,97.88539,81,88,1
97.88539,97.9804,80,83,1
97.9804,98.07541,78,83,1
98.07541,98.17042,76,83,1
98.17042,98.26543,74,88,1
98.26543,98.360435,73,82,1
98.360435,98.455444,71,83,1
98.455444,98.55045,69,83,1
98.55045,98.64546,68,91,1
98.64546,98.74047,66,86,1
98.74047,98.83548,64,85,1
98.83548,98.93049,62,85,1
98.93049,99.022705,61,93,1
99.022705,99.11607,63,84,1
99.11607,99.209145,64,84,1
99.209145,99.30285,63,86,1
99.30285,99.39626,64,92,1
99.39626,99.48919,68,85,1
99.48919,99.58709,69,85,1
99.58709,99.68498,68,85,1
99.68498,99.777916,69,93,1
99.777916,99.870705,72,84,1
99.870705,99.96407,73,84,1
99.96407,100.05619,72,84,1
100.05619,100.150185,73,93,1
100.150185,100.24307,75,84,1
100.24307,100.34064,76,84,1
100.34064,100.4382,75,84,1
100.4382,100.531136,76,95,1
100.531136,100.624504,80,86,1
100.624504,100.71715,81,86,1
100.71715,100.81085,80,86,1
100.81085,100.90344,81,95,1
100.90344,100.99666,84,86,1
100.99666,101.09358,85,86,1
101.09358,101.1905,84,86,1
101.1905,101.2831,85,95,1
101.2831,101.37651,87,86,1
101.37651,101.46906,88,86,1
101.46906,101.56156,87,86,1
101.56156,101.655464,88,95,1
101.655464,101.748634,87,86,1
101.748634,101.8496,85,86,1
101.8496,101.94932,84,86,1
101.94932,102.04215,85,95,1
102.04215,102.13547,84,86,1
102.13547,102.229324,85,86,1
102.229324,102.32211,87,86,1
102.32211,102.41562,88,95,1
102.41562,102.509224,87,86,1
102.509224,102.60614,85,86,1
102.60614,102.703064,84,86,1
102.703064,102.79609,85,95,1
102.79609,102.88921,84,86,1
102.88921,102.98331,85,86,1
102.98331,103.07614,87,86,1
103.07614,103.170334,88,95,1
103.170334,103.26355,87,86,1
103.26355,103.360146,85,86,1
103.360146,103.45674,84,86,1
103.45674,103.54991,85,95,1
103.54991,103.64327,84,86,1
103.64327,103.73722,85,86,1
103.73722,103.829865,87,86,1
103.829865,103.92328,88,95,1
103.92328,104.01644,87,86,1
104.01644,104.11336,85,86,1
104.11336,104.21028,84,86,1
104.21028,104.30306,85,95,1
104.30306,104.39677,84,86,1
104.39677,104.48979,85,86,1
104.48979,104.58301,87,86,1
104.58301,104.67603,88,95,1
104.67603,104.76911,87,86,1
104.76911,104.8657,88,86,1
104.8657,104.962296,85,86,1
104.962296,105.05577,83,103,1
104.962296,105.05577,71,87,1
105.14925,105.24272,83,87,1
105.14925,105.24272,71,73,1
105.3362,105.43089,80,88,1
105.3362,105.43089,68,74,1
105.52559,105.620285,76,87,1
105.52559,105.620285,64,73,1
105.71499,105.808464,88,103,1
105.71499,105.808464,76,87,1
105.90194,105.995415,88,87,1
105.90194,105.995415,76,73,1
106.08889,106.18421,83,87,1
106.08889,106.18421,71,73,1
106.27953,106.374855,80,87,1
106.27953,106.374855,68,73,1
106.46956,106.56304,83,103,1
106.46956,106.56304,71,87,1
106.65652,106.74999,83,87,1
106.65652,106.74999,71,73,1
106.84347,106.93786,80,88,1
106.84347,106.93786,68,74,1
107.03225,107.12664,76,87,1
107.03225,107.12664,64,73,1
107.22104,107.314514,88,103,1
107.22104,107.314514,76,87,1
107.40799,107.501465,88,87,1
107.40799,107.501465,76,73,1
107.59494,107.68964,83,87,1
107.59494,107.68964,71,73,1
107.78433,107.87903,80,87,1
107.78433,107.87903,68,73,1
108.0672,108.160675,80,47,1
108.160675,108.25337,83,50,1
108.25415,108.347626,80,47,1
108.347626,108.44032,83,51,1
108.4411,108.53458,80,47,1
108.53458,108.62727,83,50,1
108.62805,108.72153,80,47,1
108.72153,108.81334,83,51,1
108.81411,108.90669,80,47,1
108.90669,108.998505,83,50,1
108.999275,109.09186,80,47,1
109.09186,109.18366,83,52,1
109.18443,109.277016,80,47,1
109.277016,109.36883,83,51,1
109.3696,109.46218,80,47,1
109.46218,109.55438,83,50,1
109.55515,109.64833,80,47,1
109.64833,109.74073,83,50,1
109.7415,109.83468,80,47,1
109.83468,109.92707,83,51,1
109.92785,110.02103,80,47,1
110.02103,110.11342,83,50,1
110.1142,110.207375,80,47,1
110.207375,110.29977,83,51,1
110.300545,110.39392,80,47,1
110.39392,110.48682,83,50,1
110.487595,110.58158,80,47,1
110.58158,110.67509,83,52,1
110.67587,110.77047,80,47,1
110.77047,110.86458,83,51,1
110.86537,110.96059,80,47,1
111.05468,111.148155,81,42,1
111.148155,111.24085,83,45,1
111.24163,111.33501,81,41,1
111.33501,111.42741,84,44,1
111.42818,111.521255,81,40,1
111.521255,111.61336,83,42,1
111.614136,111.70692,81,39,1
111.70692,111.79816,84,42,1
111.79892,111.89146,81,38,1
111.89146,111.983,83,40,1
111.983765,112.07655,81,37,1
112.07655,112.167625,84,40,1
112.16839,112.26114,81,36,1
112.26114,112.35198,83,39,1
112.352745,112.44506,81,35,1
112.44506,112.53643,84,37,1
112.53721,112.63033,81,34,1
112.63033,112.720924,83,36,1
112.721695,112.81465,81,34,1
112.81465,112.90574,84,37,1
112.9065,112.99845,81,34,1
112.99845,113.08973,83,36,1
113.09049,113.18283,81,34,1
113.18283,113.27523,84,37,1
113.276,113.36928,81,34,1
113.36928,113.461975,83,36,1
113.46275,113.55653,81,34,1
113.55653,113.649734,84,38,1
113.65051,113.744705,81,34,1
113.744705,113.83831,83,37,1
113.839096,113.933754,81,34,1
113.933754,114.02824,85,37,1
114.02746,114.09807,81,34,1
114.121666,114.21634,83,36,1
114.215546,114.309746,81,35,1
114.309746,114.404854,85,38,1
114.40406,114.49773,81,36,1
114.49773,114.59258,83,38,1
114.5918,114.68507,81,36,1
114.68507,114.77984,85,40,1
114.77907,114.87248,81,37,1
114.87248,114.96662,83,40,1
114.96585,115.05876,81,38,1
115.05876,115.15348,85,43,1
115.15272,115.24599,81,39,1
115.24599,115.33995,83,43,1
115.33918,115.43178,81,40,1
115.43178,115.5259,90,44,1
115.52512,115.617134,81,41,1
115.52512,115.617134,83,41,1
115.617134,115.71147,90,43,1
115.71069,115.80343,81,41,1
115.71069,115.80343,83,41,1
115.80343,115.8981,90,46,1
115.89733,115.989784,81,42,1
115.89733,115.989784,83,42,1
115.989784,116.08386,90,46,1
116.0831,116.17546,81,44,1
116.0831,116.17546,83,44,1
116.17546,116.238754,90,49,1
116.26875,116.362175,81,45,1
116.26875,116.362175,83,45,1
116.362175,116.4556,90,49,1
116.45481,116.54828,81,47,1
116.45481,116.54828,83,47,1
116.54828,116.64195,90,54,1
116.64118,116.73527,81,48,1
116.64118,116.73527,83,48,1
116.73527,116.8327,90,53,1
116.83187,116.93249,81,49,1
116.83187,116.93249,83,49,1
116.93249,118.07477,88,72,1
116.93249,118.07477,83,72,1
116.93249,118.07477,80,72,1
118.07477,118.16824,88,58,1
118.16824,118.26172,86,57,1
118.26172,118.355194,84,56,1
118.355194,118.44867,83,55,1
118.44867,118.542145,84,58,1
118.542145,118.63562,83,57,1
118.63562,118.729095,81,56,1
118.729095,118.82257,80,55,1
118.82257,118.916046,81,51,1
118.916046,119.00952,83,52,1
119.00952,119.103004,84,53,1
119.103004,119.2019,86,54,1
119.2019,119.29537,88,56,1
119.29537,119.38885,89,57,1
119.38885,119.48232,88,57,1
119.48232,119.5758,87,56,1
119.5758,119.66927,88,56,1
119.66927,119.762955,86,56,1
119.762955,119.856735,84,56,1
119.856735,119.95082,83,56,1
119.95082,120.045006,84,57,1
120.045006,120.139404,86,57,1
120.139404,120.23399,84,57,1
120.23399,120.32869,83,53,1
120.32869,120.4237,81,56,1
120.4237,120.518814,80,52,1
120.518814,120.614136,81,56,1
120.614136,120.70946,83,52,1
120.70946,121.09841,84,59,1
121.09841,121.29289,81,52,1
121.29289,121.49342,78,52,1
120.70946,121.49342,72,45,1
121.49342,121.88238,83,57,1
121.88238,122.07686,79,52,1
122.07686,122.27809,76,52,1
121.49342,122.27809,71,45,1
122.27809,122.66836,81,57,1
122.66836,122.863495,78,52,1
122.863495,123.05863,75,52,1
122.27809,123.05863,69,45,1
123.05863,124.19893,76,72,1
124.19893,124.29211,76,58,1
124.29211,124.38528,74,57,1
124.38528,124.47845,72,56,1
124.47845,124.571625,71,55,1
124.571625,124.664795,72,58,1
124.664795,124.75797,71,57,1
124.75797,124.85114,69,56,1
124.85114,124.94432,68,55,1
124.94432,125.03749,69,51,1
125.03749,125.13067,71,52,1
125.13067,125.22384,72,53,1
125.22384,125.32274,74,54,1
125.32274,125.416214,76,56,1
125.416214,125.50969,77,57,1
125.50969,125.603165,76,57,1
125.603165,125.69664,75,56,1
125.69664,125.78922,76,56,1
125.78922,125.882,74,56,1
125.882,125.975075,72,56,1
125.975075,126.06845,71,56,1
126.06845,126.16213,72,57,1
126.16213,126.25611,74,57,1
126.25611,126.3504,72,57,1
126.3504,126.445,71,53,1
126.445,126.5399,69,56,1
126.5399,126.635124,68,52,1
126.635124,126.73065,69,56,1
126.73065,126.8265,71,52,1
126.8265,127.21417,72,59,1
127.21417,127.40801,69,52,1
127.40801,127.609245,66,52,1
126.8265,127.609245,60,45,1
127.609245,127.9982,71,57,1
127.9982,128.19267,67,52,1
128.19267,128.3939,64,52,1
127.609245,128.3939,59,45,1
128.3939,128.78287,69,57,1
128.78287,128.97998,66,52,1
128.97998,129.17711,63,52,1
128.3939,129.17711,57,45,1
129.17711,129.37491,64,55,1
129.5797,129.77682,76,67,1
129.77682,129.97394,74,62,1
129.97394,130.36818,72,66,1
130.36818,130.5653,69,61,1
130.5653,130.76938,65,54,1
130.76938,131.16496,71,51,1
131.16496,131.36276,67,46,1
131.36276,131.56056,64,46,1
131.56056,131.95616,69,51,1
131.95616,132.15396,66,46,1
132.15396,132.35176,63,46,1
132.35176,132.54956,64,55,1
132.75653,132.95433,72,66,1
132.95433,133.15213,71,62,1
133.15213,133.54773,69,66,1
133.54773,133.74553,65,61,1
133.74553,133.95177,62,54,1
133.95177,134.34872,67,51,1
134.34872,134.54721,64,46,1
134.54721,134.752,60,46,1
134.752,135.15033,65,51,1
135.15033,135.34949,62,46,1
135.34949,135.55501,59,46,1
135.55501,135.69522,52,33,1
135.55501,135.69522,48,28,1
135.55501,135.74196,60,40,1
135.74196,135.88217,52,33,1
135.74196,135.88217,48,28,1
135.92891,136.06824,52,33,1
135.92891,136.06824,48,28,1
136.11467,136.25398,52,34,1
136.11467,136.25398,48,28,1
136.30043,136.44095,52,34,1
136.30043,136.44095,48,28,1
136.48784,136.62851,52,34,1
136.48784,136.62851,48,28,1
136.6754,136.81516,52,35,1
136.6754,136.81516,48,29,1
136.86174,137.00151,52,35,1
136.86174,137.00151,48,29,1
137.0481,137.1882,52,36,1
137.0481,137.1882,48,30,1
137.23494,137.37515,52,36,1
137.23494,137.37515,48,30,1
137.42189,137.56165,52,37,1
137.42189,137.56165,48,31,1
137.60825,137.748,52,38,1
137.60825,137.748,48,32,1
137.79459,137.9348,52,39,1
137.79459,137.9348,48,33,1
137.98154,138.12175,52,40,1
137.98154,138.12175,48,34,1
138.16849,138.3087,54,40,1
138.16849,138.3087,50,34,1
138.35544,138.49565,54,40,1
138.35544,138.49565,50,34,1
138.54239,139.10666,55,46,1
138.54239,139.10666,50,39,1
139.10666,139.2007,59,40,1
139.2007,139.29474,57,40,1
139.29474,139.38878,55,45,1
140.00464,140.05318,85,46,1
140.05318,140.52786,86,57,1
140.52786,140.6228,84,48,1
140.6228,140.71774,83,47,1
140.71774,140.81267,81,45,1
140.81267,140.99962,79,44,1
141.56418,141.70439,50,35,1
141.56418,141.70439,46,29,1
141.75113,141.89134,50,35,1
141.75113,141.89134,46,29,1
141.93808,142.07695,50,35,1
141.93808,142.07695,46,29,1
142.12323,142.26212,50,36,1
142.12323,142.26212,46,30,1
142.3084,142.44907,50,37,1
142.3084,142.44907,46,31,1
142.49596,142.63663,50,37,1
142.49596,142.63663,46,31,1
142.68352,142.82419,50,38,1
142.68352,142.82419,46,32,1
142.87108,143.01175,50,39,1
142.87108,143.01175,46,33,1
143.05864,143.19885,50,39,1
143.05864,143.19885,46,33,1
143.24559,143.3858,50,40,1
143.24559,143.3858,46,34,1
143.43254,143.57321,50,40,1
143.43254,143.57321,46,34,1
143.6201,143.76076,50,40,1
143.6201,143.76076,46,34,1
143.80765,143.94652,50,40,1
143.80765,143.94652,46,34,1
143.99281,144.13168,50,40,1
143.99281,144.13168,46,34,1
144.17798,144.31729,52,40,1
144.17798,144.31729,48,34,1
144.36374,144.50305,52,40,1
144.36374,144.50305,48,34,1
144.5495,145.10849,53,46,1
144.5495,145.10849,48,39,1
145.10849,145.20166,57,40,1
145.20166,145.29483,55,40,1
145.29483,145.388,53,45,1
146.00656,146.05525,83,46,1
146.05525,146.52844,84,57,1
146.52844,146.62308,82,50,1
146.62308,146.71771,80,49,1
146.71771,146.81236,79,47,1
146.81236,147.00163,77,46,1
147.53114,147.5797,88,67,1
147.5797,148.70023,89,73,1
148.70023,148.794,89,74,1
148.794,148.88779,87,73,1
148.88779,148.98157,86,71,1
148.98157,149.07535,84,70,1
149.07535,149.16882,83,72,1
149.16882,149.2623,84,71,1
149.2623,149.35577,86,72,1
149.35577,149.44925,87,73,1
149.44925,149.54364,89,74,1
149.54364,149.63803,87,72,1
149.63803,149.73242,86,71,1
149.73242,149.82683,84,69,1
149.82683,149.9203,83,72,1
149.9203,150.01378,84,75,1
150.01378,150.10725,86,77,1
150.10725,150.20073,87,80,1
150.20073,150.2942,89,80,1
150.2942,150.38768,87,80,1
150.38768,150.48116,86,79,1
150.48116,150.57463,84,81,1
150.57463,150.66881,83,85,1
150.66881,150.76434,84,89,1
150.76434,150.86238,86,94,1
150.86238,150.9674,87,98,1
150.9674,151.06088,89,100,1
151.06088,151.15436,87,98,1
151.15436,151.24783,86,96,1
151.24783,151.34131,84,94,1
151.34131,151.43478,83,93,1
151.43478,151.52826,80,91,1
151.52826,151.62173,79,89,1
151.62173,151.71521,77,87,1
151.71521,151.81023,75,85,1
151.81023,151.90523,74,83,1
151.90523,152.00024,72,81,1
152.00024,152.09525,71,79,1
152.09525,152.24525,72,93,1
152.49525,152.6583,67,83,1
152.93153,153.1152,63,72,1
153.42134,153.643,60,64,1
154.01247,155.81699,55,60,1
155.81699,155.90967,64,37,1
155.91046,156.00394,60,33,1
156.00394,156.09663,64,37,1
156.09741,156.19089,60,33,1
156.19089,156.28299,64,37,1
156.28377,156.37663,60,33,1
156.37663,156.46875,64,36,1
156.46951,156.5624,60,33,1
156.5624,156.65451,64,36,1
156.65527,156.74815,60,33,1
156.74815,156.84026,64,37,1
156.84103,156.93391,60,33,1
156.93391,157.02661,64,36,1
157.02739,157.12086,60,33,1
157.12086,157.21356,64,36,1
157.21434,157.30782,60,33,1
157.30782,157.40051,64,37,1
157.40129,157.49477,60,33,1
157.49477,157.58746,64,37,1
157.58824,157.68172,60,33,1
157.68172,157.77353,64,37,1
157.7743,157.86688,60,33,1
157.86688,157.9587,64,36,1
157.95946,158.05205,60,33,1
158.05205,158.14386,64,36,1
158.14462,158.23721,60,33,1
158.23721,158.32901,64,37,1
158.32979,158.42236,60,33,1
158.42236,158.51492,66,36,1
158.5157,158.60918,62,33,1
158.60918,158.70187,66,36,1
158.70265,158.79613,62,33,1
158.79613,159.35698,67,46,1
159.35698,159.45045,71,40,1
159.45045,159.54393,69,40,1
159.54393,159.6374,67,45,1
160.25041,160.29895,85,46,1
160.29895,160.77214,86,57,1
160.77214,160.86678,84,48,1
160.86678,160.96141,83,47,1
160.96141,161.05605,81,45,1
161.05605,161.24533,79,44,1
161.81642,161.90912,65,40,1
161.9099,162.00337,62,36,1
162.00337,162.09607,65,40,1
162.09685,162.19032,62,36,1
162.19032,162.28214,65,40,1
162.2829,162.37549,62,36,1
162.37549,162.46729,65,39,1
162.46806,162.56064,62,36,1
162.56064,162.65245,65,39,1
162.65323,162.7458,62,36,1
162.7458,162.83762,65,41,1
162.8384,162.93097,62,36,1
162.93097,163.02428,65,40,1
163.02505,163.11914,62,37,1
163.11914,163.21245,65,40,1
163.21323,163.30731,62,37,1
163.30731,163.40001,65,41,1
163.40079,163.49426,62,37,1
163.49426,163.58696,65,41,1
163.58774,163.68121,62,37,1
163.68121,163.77332,65,42,1
163.7741,163.86697,62,37,1
163.86697,163.95908,65,41,1
163.95985,164.05273,62,38,1
164.05273,164.14583,65,41,1
164.1466,164.24069,62,38,1
164.24069,164.334,65,42,1
164.33478,164.42886,62,38,1
164.42886,164.52217,68,41,1
164.52295,164.61703,64,38,1
164.61703,164.71034,68,42,1
164.71112,164.8052,64,38,1
164.8052,165.36606,69,55,1
165.36606,165.45953,72,48,1
165.45953,165.55301,71,48,1
165.55301,165.64648,69,53,1
166.26045,166.30931,87,55,1
166.30931,166.784,88,68,1
166.784,166.87892,86,59,1
166.87892,166.97386,84,58,1
166.97386,167.0688,83,57,1
167.0688,167.25867,81,57,1
167.78548,167.8345,87,66,1
167.8345,168.31526,88,85,1
168.31526,168.41142,86,76,1
168.41142,168.50758,84,75,1
168.50758,168.60373,83,71,1
168.60373,168.79604,82,71,1
169.38405,169.87662,83,56,1
169.86084,169.9712,81,54,1
169.95549,170.06549,79,53,1
170.04982,170.15948,78,51,1
170.14386,170.25323,79,53,1
170.23761,170.34698,78,52,1
170.33136,170.44073,76,51,1
170.42511,170.53448,75,50,1
170.51886,170.62823,76,50,1
170.61261,170.72198,79,52,1
170.70636,170.81573,78,50,1
170.80011,170.90935,76,50,1
170.89377,171.00282,75,50,1
170.98724,171.0963,73,49,1
171.08072,171.19003,71,48,1
171.17441,171.28381,70,47,1
171.26819,171.37764,71,49,1
171.36197,171.47173,73,49,1
171.45605,171.56581,74,49,1
171.55014,171.66017,75,50,1
171.64441,171.7548,76,50,1
171.73904,171.8497,75,50,1
171.83388,171.94469,76,51,1
171.92882,172.03992,78,51,1
172.02405,172.13531,79,49,1
172.11938,172.23085,80,50,1
172.21494,172.32664,81,52,1
172.31068,172.42276,82,53,1
172.40672,172.5186,83,55,1
172.50267,172.61409,82,53,1
172.59822,172.70918,83,53,1
172.69336,172.80386,82,50,1
172.7881,172.89821,83,52,1
172.88254,172.9922,81,52,1
172.97658,173.0858,79,51,1
173.07024,173.17908,78,50,1
173.1635,173.27255,79,52,1
173.25697,173.36603,78,51,1
173.35045,173.4595,76,49,1
173.44392,173.55298,75,50,1
173.5374,173.64645,76,50,1
173.63087,173.73993,79,53,1
173.72435,173.8334,78,50,1
173.81783,173.92688,76,50,1
173.9113,174.02036,75,50,1
174.00478,174.11383,73,49,1
174.09825,174.2073,71,48,1
174.19173,174.30078,70,47,1
174.2852,174.39426,71,49,1
174.37868,174.48773,73,50,1
174.47215,174.5812,74,50,1
174.56563,174.67468,75,52,1
174.6591,174.76816,76,52,1
174.75258,174.86163,75,52,1
174.84605,174.95511,76,54,1
174.93953,175.04858,78,54,1
175.033,175.14206,79,56,1
175.12648,175.23633,80,58,1
175.21996,175.33456,81,60,1
175.31819,175.43199,82,62,1
175.41641,175.50989,83,68,1
175.50989,175.60336,78,60,1
175.60336,175.69684,75,61,1
175.69684,175.79031,71,61,1
175.79031,175.88379,70,75,1
175.88379,175.97726,71,63,1
175.97726,176.07074,76,63,1
176.07074,176.16422,79,63,1
176.16422,176.25769,83,74,1
176.25769,176.35117,78,65,1
176.35117,176.44464,75,68,1
176.44464,176.53813,71,68,1
176.53813,176.6316,70,80,1
176.6316,176.72508,71,71,1
176.72508,176.81856,76,71,1
176.81856,176.91203,79,72,1
176.91203,177.00551,83,91,1
177.00551,177.09898,78,82,1
177.09898,177.19246,75,82,1
177.19246,177.28593,71,82,1
177.28593,177.37941,83,91,1
177.37941,177.47289,79,82,1
177.47289,177.56636,76,82,1
177.56636,177.65984,71,82,1
177.65984,177.75331,83,91,1
177.75331,177.84679,78,82,1
177.84679,177.94026,75,81,1
177.94026,178.03374,71,81,1
178.03374,178.12721,83,91,1
178.12721,178.22069,79,81,1
178.22069,178.31416,76,81,1
178.31416,178.40764,71,82,1
178.40764,178.50142,83,91,1
178.50142,178.5952,78,82,1
178.5952,178.68896,75,82,1
178.68896,178.78275,71,82,1
178.78275,178.87653,78,91,1
178.87653,178.97052,75,82,1
178.97052,179.0646,71,82,1
179.0646,179.15869,66,82,1
179.15869,179.25276,75,91,1
179.25276,179.34685,71,82,1
179.34685,179.44104,66,81,1
179.44104,179.53543,63,81,1
179.53543,179.62982,71,91,1
179.62982,179.72423,66,81,1
179.72423,179.81862,63,81,1
179.81862,179.91312,59,82,1
179.91312,180.00688,66,91,1
180.00688,180.10066,63,81,1
180.10066,180.19466,59,80,1
180.19466,180.28874,54,80,1
180.28874,180.38292,63,89,1
180.38292,180.47731,59,79,1
180.47731,180.57172,54,79,1
180.57172,180.66641,51,78,1
180.66641,180.76111,59,87,1
180.76111,180.856,54,78,1
180.856,180.95102,51,77,1
180.95102,181.04613,47,77,1
182.19205,182.28493,71,75,1
182.3778,182.47305,59,69,1
182.56828,182.66353,73,74,1
182.75876,182.85904,61,65,1
182.9593,183.05363,75,71,1
183.14848,183.24432,63,64,1
183.72322,183.81815,75,67,1
183.91309,184.00986,63,53,1
184.1071,184.20435,76,59,1
184.3018,184.39937,64,50,1
184.49693,184.59386,78,52,1
184.69077,184.7878,66,49,1
184.88503,184.98227,80,52,1
185.07973,185.17729,68,49,1
185.27498,185.37288,81,52,1
185.47076,185.56866,69,48,1
185.66656,185.76413,81,52,1
185.86182,185.95972,71,46,1
186.05794,186.15628,81,51,1
186.25485,186.35374,73,46,1
186.45276,186.552,81,51,1
186.65158,186.75128,75,46,1
186.8512,186.95038,81,51,1
187.05072,187.15276,76,47,1
187.2565,187.36465,81,50,1
187.47969,187.60252,78,46,1
187.73663,188.63216,80,55,1
187.73663,188.63216,76,42,1
187.73663,188.63216,71,42,1
188.63216,189.07011,78,52,1
188.63216,189.07011,75,40,1
188.63216,189.07011,69,40,1
189.07011,189.52545,76,52,1
189.07011,189.52545,73,40,1
189.07011,189.52545,68,40,1
189.52545,190.40872,75,55,1
189.52545,190.40872,72,42,1
189.52545,190.40872,66,42,1
190.40872,191.31285,73,52,1
190.40872,191.31285,64,40,1
191.31285,192.21173,75,63,1
191.31285,192.21173,71,49,1
191.31285,192.21173,69,49,1
192.21173,192.6715,76,66,1
192.21173,192.6715,71,50,1
192.6715,193.18651,78,72,1
192.6715,193.18651,76,55,1
192.6715,193.18651,73,49,1
193.18651,194.11674,80,77,1
193.18651,194.11674,76,59,1
193.18651,194.60258,71,59,1
194.60258,195.06877,69,48,1
194.11674,195.06877,78,49,1
194.11674,195.06877,75,32,1
195.06877,195.94873,68,45,1
195.06877,195.94873,64,37,1
195.06877,195.94873,59,37,1
195.94873,196.37906,66,43,1
195.94873,196.37906,63,36,1
195.94873,196.37906,57,36,1
196.37906,196.8344,64,43,1
196.37906,196.8344,61,36,1
196.37906,196.8344,56,36,1
196.8344,197.71767,63,45,1
196.8344,197.71767,60,37,1
196.8344,197.71767,54,37,1
197.71767,198.6218,61,43,1
197.71767,198.6218,52,36,1
197.71767,198.6218,57,36,1
198.6218,199.06676,56,44,1
198.6218,199.06676,52,44,1
198.6218,199.51173,59,52,1
199.51173,199.94684,61,61,1
199.94684,200.40723,63,68,1
199.06676,200.40723,57,49,1
199.06676,200.40723,54,49,1
200.40723,200.51875,64,49,1
200.40723,200.55592,56,42,1
200.55592,200.66745,66,48,1
200.70462,200.81615,68,49,1
200.85332,200.96443,69,46,1
201.00146,201.11258,71,47,1
201.14961,201.26073,73,48,1
201.29776,201.40846,74,50,1
201.44536,201.55606,75,51,1
201.59297,201.70366,76,52,1
201.74057,201.85127,77,53,1
201.88817,201.99887,78,51,1
202.03577,202.14647,79,52,1
202.18336,202.32808,80,56,1
202.32808,202.47278,79,53,1
202.47278,202.6175,80,53,1
202.6175,202.7622,81,53,1
202.7622,202.9069,79,53,1
202.9069,203.05162,80,53,1
202.18336,203.05162,71,46,1
203.19315,203.33469,80,54,1
203.33469,203.47621,78,54,1
203.05162,203.47621,69,60,1
203.62598,203.77573,78,53,1
203.77573,203.92548,76,53,1
203.47621,203.92548,68,60,1
204.07074,204.21599,72,54,1
204.21599,204.36124,75,54,1
204.36124,204.5065,76,54,1
204.5065,204.65175,72,54,1
204.65175,204.797,75,54,1
203.92548,204.797,66,60,1
204.94226,205.08751,69,54,1
205.08751,205.23277,73,54,1
205.23277,205.38487,75,54,1
205.38487,205.53699,69,54,1
205.53699,205.6891,73,54,1
204.797,205.6891,64,60,1
205.83546,205.98181,74,62,1
205.98181,206.12816,75,57,1
206.12816,206.2745,76,57,1
206.2745,206.42085,74,59,1
206.42085,206.5672,75,59,1
205.6891,206.5672,69,62,1
206.7103,206.85341,78,63,1
206.85341,206.9965,76,64,1
206.5672,206.9965,71,71,1
207.14803,207.29953,80,65,1
207.29953,207.45105,78,65,1
206.9965,207.45105,73,74,1
207.45105,207.59631,80,79,1
207.59631,207.74156,79,72,1
207.74156,207.88681,80,72,1
207.88681,208.03207,83,68,1
208.03207,208.17732,81,72,1
208.17732,208.32257,80,69,1
207.45105,208.32257,76,79,1
208.32257,208.46948,78,67,1
208.32257,208.46948,75,67,1
208.46948,208.6164,76,64,1
208.46948,208.6164,73,64,1
208.6164,208.76329,71,60,1
208.6164,208.76329,75,60,1
208.76329,208.91663,73,60,1
208.76329,208.91663,69,60,1
208.91663,209.06995,71,56,1
208.91663,209.06995,68,56,1
209.06995,209.22328,69,53,1
209.06995,209.22328,66,53,1
209.22328,209.3698,68,57,1
209.3698,209.51633,67,49,1
209.51633,209.66284,68,49,1
209.66284,209.80936,69,49,1
209.80936,209.95589,67,49,1
209.95589,210.1024,68,49,1
209.22328,210.1024,59,57,1
210.24525,210.3881,68,50,1
210.3881,210.53098,66,50,1
210.1024,210.53098,57,56,1
210.68073,210.83049,66,49,1
210.83049,210.98024,64,49,1
210.53098,210.98024,56,56,1
211.12549,211.27075,60,50,1
211.27075,211.416,63,50,1
211.416,211.56125,64,53,1
211.56125,211.70651,60,50,1
211.70651,211.85176,63,50,1
211.99701,212.14227,57,50,1
212.14227,212.28752,61,50,1
212.28752,212.43964,63,53,1
212.43964,212.59175,57,50,1
212.59175,212.74387,61,50,1
212.89021,213.03656,56,56,1
213.03656,213.19112,59,57,1
212.74387,213.19112,52,60,1
213.33916,213.48718,57,61,1
213.48718,213.64554,59,61,1
213.19112,213.64554,54,66,1
213.79709,213.94684,57,67,1
213.94684,214.1014,61,65,1
213.64554,214.1014,54,74,1
214.25172,214.40207,57,71,1
214.40207,214.55669,63,70,1
214.1014,214.55669,54,80,1
214.55669,214.7011,64,82,1
214.55669,214.7011,56,77,1
214.7011,214.84549,59,75,1
214.84549,214.9899,56,77,1
214.9899,215.13431,59,82,1
215.13431,215.2787,64,77,1
215.2787,215.42847,68,77,1
215.42847,215.57184,66,82,1
215.57184,215.7152,63,77,1
215.7152,215.85857,59,77,1
215.85857,216.00194,63,82,1
216.00194,216.14531,66,77,1
216.14531,216.29565,69,77,1
216.29565,216.438,68,82,1
216.438,216.58035,64,75,1
216.58035,216.7227,59,77,1
216.7227,216.86505,64,82,1
216.86505,217.0074,68,77,1
217.0074,217.15715,71,77,1
217.15715,217.2985,69,82,1
217.2985,217.43983,66,77,1
217.43983,217.58844,63,77,1
217.58844,217.73102,75,82,1
217.73102,217.8736,69,77,1
217.8736,218.01616,66,77,1
218.01616,218.4387,76,75,1
218.01616,218.4387,68,63,1
218.4387,219.29283,71,80,1
219.29283,220.14952,71,80,1
220.14952,221.0124,71,80,1
221.0124,221.44313,71,80,1
221.44313,221.58397,76,82,1
221.58397,221.72482,71,75,1
221.72482,221.86566,68,77,1
221.86566,222.00652,71,82,1
222.00652,222.14735,76,77,1
222.14735,222.29427,80,77,1
222.29427,222.4351,78,82,1
222.4351,222.57594,75,77,1
222.57594,222.7168,71,77,1
222.7168,222.85764,75,82,1
222.85764,222.99849,78,77,1
222.99849,223.14484,81,77,1
223.14484,223.2847,80,82,1
223.2847,223.42456,76,75,1
223.42456,223.5644,71,77,1
223.5644,223.70427,76,82,1
223.70427,223.84413,80,77,1
223.84413,223.9993,83,77,1
223.9993,224.13966,81,82,1
224.13966,224.28001,78,77,1
224.28001,224.43333,75,77,1
224.43333,224.5732,87,82,1
224.5732,224.71306,81,77,1
224.71306,224.85292,78,77,1
224.85292,225.06198,88,86,1
224.9923,225.13165,83,74,1
225.13165,225.27103,80,74,1
225.27103,225.48009,83,82,1
225.4104,225.54977,80,73,1
225.54977,225.69612,76,72,1
225.69612,225.90446,81,79,1
225.83502,225.9739,78,71,1
225.9739,226.1128,75,70,1
226.1128,226.32112,87,76,1
226.25168,226.39056,83,69,1
226.39056,226.54512,78,67,1
226.54512,226.75345,88,75,1
226.684,226.82289,83,65,1
226.82289,226.96179,80,65,1
226.96179,227.17012,83,72,1
227.10068,227.23956,80,64,1
227.23956,227.38647,76,63,1
227.38647,227.59337,81,69,1
227.5244,227.66234,78,62,1
227.66234,227.80026,75,60,1
227.80026,228.00716,87,69,1
227.9382,228.07613,83,59,1
228.07613,228.23067,78,58,1
228.23067,228.33417,88,64,1
228.33417,228.43747,83,58,1
228.43747,228.54053,80,58,1
228.54053,228.6433,76,59,1
228.6433,228.74574,81,65,1
228.74574,228.84796,78,59,1
228.84796,228.94994,87,62,1
228.94994,229.05162,83,63,1
229.05162,229.153,88,69,1
229.153,229.25432,83,63,1
229.25432,229.35564,80,63,1
229.35564,229.45697,76,64,1
229.45697,229.55829,81,71,1
229.55829,229.65962,78,66,1
229.65962,229.76094,87,67,1
229.76094,229.86884,83,67,1
229.86884,229.96945,88,74,1
229.96945,230.0699,83,67,1
230.0699,230.17017,87,69,1
230.17017,230.27014,83,69,1
230.27014,230.37001,88,77,1
230.37001,230.4696,83,77,1
230.4696,230.56902,87,72,1
230.56902,230.66824,83,73,1
230.66824,230.76715,88,80,1
230.76715,230.86604,83,73,1
230.86604,230.96495,87,74,1
230.96495,231.06384,83,74,1
231.06384,231.16275,88,82,1
231.16275,231.26164,83,85,1
231.26164,231.36053,87,78,1
231.36053,231.46907,83,79,1
231.46907,231.56763,88,89,1
231.56763,231.6662,83,81,1
231.6662,231.76465,86,81,1
231.76465,231.86287,83,81,1
231.86287,231.9611,86,89,1
231.9611,232.05911,83,83,1
232.05911,232.15701,86,82,1
232.15701,232.25487,83,82,1
232.25487,232.35243,86,89,1
232.35243,232.45,83,81,1
232.45,232.54756,86,81,1
232.54756,232.64513,83,81,1
232.64513,232.74269,86,89,1
232.74269,232.84027,83,83,1
232.84027,232.93784,86,82,1
232.93784,233.03915,83,82,1
233.03915,233.22917,86,89,1
233.22917,233.32419,85,81,1
233.32419,233.41919,83,81,1
233.41919,233.5142,81,86,1
233.5142,233.6092,80,82,1
233.6092,233.70421,78,83,1
233.70421,233.79922,76,83,1
233.79922,233.89423,74,86,1
233.89423,233.98924,73,82,1
233.98924,234.08424,71,83,1
234.08424,234.17926,69,83,1
234.17926,234.27426,68,88,1
234.27426,234.36928,66,85,1
234.36928,234.46428,64,85,1
234.46428,234.5593,62,85,1
234.5593,234.652,61,93,1
234.652,234.74449,63,83,1
234.74449,234.8377,64,83,1
234.8377,234.93059,63,84,1
234.93059,235.02417,64,92,1
235.02417,235.11734,68,84,1
235.11734,235.21524,69,84,1
235.21524,235.31314,68,84,1
235.31314,235.40613,69,93,1
235.40613,235.5004,72,84,1
235.5004,235.59428,73,84,1
235.59428,235.68774,72,84,1
235.68774,235.782,73,93,1
235.782,235.87517,75,84,1
235.87517,235.97273,76,84,1
235.97273,236.0698,75,84,1
236.0698,236.16309,76,95,1
236.16309,236.2563,80,85,1
236.2563,236.35062,81,85,1
236.35062,236.4441,80,85,1
236.4441,236.53769,81,95,1
236.53769,236.63089,84,85,1
236.63089,236.72781,85,85,1
236.72781,236.82472,84,86,1
236.82472,236.91803,85,95,1
236.91803,237.0121,87,86,1
237.0121,237.10474,88,86,1
237.10474,237.19926,87,86,1
237.19926,237.29279,88,95,1
237.29279,237.38692,87,86,1
237.38692,237.48788,85,86,1
237.48788,237.58885,84,86,1
237.58885,237.68256,85,95,1
237.68256,237.77646,84,86,1
237.77646,237.87054,85,86,1
237.87054,237.96431,87,86,1
237.96431,238.05771,88,95,1
238.05771,238.1514,87,86,1
238.1514,238.24832,85,86,1
238.24832,238.34525,84,86,1
238.34525,238.43831,85,95,1
238.43831,238.53201,84,86,1
238.53201,238.62506,85,86,1
238.62506,238.71962,87,86,1
238.71962,238.81288,88,95,1
238.81288,238.90663,87,86,1
238.90663,239.00323,85,86,1
239.00323,239.09982,84,86,1
239.09982,239.19366,85,95,1
239.19366,239.28716,84,86,1
239.28716,239.38074,85,86,1
239.38074,239.47415,87,86,1
239.47415,239.56764,88,95,1
239.56764,239.66081,87,86,1
239.66081,239.75772,85,86,1
239.75772,239.85464,84,86,1
239.85464,239.94902,85,95,1
239.94902,240.04315,84,86,1
240.04315,240.13704,85,86,1
240.13704,240.23059,87,86,1
240.23059,240.32375,88,95,1
240.32375,240.41692,87,86,1
240.41692,240.51352,88,86,1
240.51352,240.6101,85,86,1
240.6101,240.70328,83,103,1
240.6101,240.70328,71,87,1
240.79645,240.8896,83,87,1
240.79645,240.8896,71,73,1
240.98277,241.07747,80,88,1
240.98277,241.07747,68,74,1
241.17216,241.26686,76,87,1
241.17216,241.26686,64,73,1
241.36157,241.45444,88,103,1
241.36157,241.45444,76,87,1
241.54732,241.6402,88,87,1
241.54732,241.6402,76,73,1
241.73308,241.8284,83,87,1
241.73308,241.8284,71,73,1
241.92372,242.01904,80,87,1
241.92372,242.01904,68,73,1
242.11375,242.20723,83,103,1
242.11375,242.20723,71,87,1
242.3007,242.39418,83,87,1
242.3007,242.39418,71,73,1
242.48766,242.58205,80,88,1
242.48766,242.58205,68,74,1
242.67645,242.77084,76,87,1
242.67645,242.77084,64,73,1
242.86523,242.95871,88,103,1
242.86523,242.95871,76,87,1
243.05219,243.14566,88,87,1
243.05219,243.14566,76,73,1
243.23914,243.33383,83,87,1
243.23914,243.33383,71,73,1
243.42853,243.52322,80,87,1
243.42853,243.52322,68,73,1
243.7114,243.80487,80,47,1
243.80487,243.89757,83,50,1
243.89835,243.99182,80,47,1
243.99182,244.08452,83,51,1
244.0853,244.17877,80,47,1
244.17877,244.27147,83,50,1
244.27225,244.36572,80,47,1
244.36572,244.45753,83,51,1
244.45831,244.55089,80,47,1
244.55089,244.6427,83,50,1
244.64346,244.73605,80,47,1
244.73605,244.82787,83,52,1
244.82863,244.92122,80,47,1
244.92122,245.01302,83,51,1
245.0138,245.10637,80,47,1
245.10637,245.19858,83,50,1
245.19936,245.29253,80,47,1
245.29253,245.38492,83,50,1
245.3857,245.47887,80,47,1
245.47887,245.57127,83,51,1
245.57205,245.66522,80,47,1
245.66522,245.75761,83,50,1
245.75839,245.85156,80,47,1
245.85156,245.94397,83,51,1
245.94473,246.03812,80,47,1
246.03812,246.13101,83,50,1
246.13179,246.22577,80,47,1
246.22577,246.31927,83,52,1
246.32007,246.41466,80,47,1
246.41466,246.50877,83,51,1
246.50957,246.60478,80,47,1
246.69888,246.79236,81,42,1
246.79236,246.88504,83,45,1
246.88583,246.9792,81,41,1
246.9792,247.0716,84,44,1
247.07237,247.16545,81,40,1
247.16545,247.25755,83,42,1
247.25833,247.3511,81,39,1
247.3511,247.44481,84,42,1
247.4456,247.53922,81,38,1
247.53922,247.6308,83,40,1
247.63158,247.72528,81,37,1
247.72528,247.81773,84,40,1
247.8185,247.90977,81,36,1
247.90977,248.0014,83,39,1
248.00218,248.09497,81,35,1
248.09497,248.18521,84,37,1
248.18597,248.27861,81,34,1
248.27861,248.36928,83,36,1
248.37004,248.46118,81,34,1
248.46118,248.55353,84,37,1
248.5543,248.64676,81,34,1
248.64676,248.73727,83,36,1
248.73804,248.83037,81,34,1
248.83037,248.92276,84,37,1
248.92354,249.01682,81,34,1
249.01682,249.10951,83,36,1
249.11029,249.20407,81,34,1
249.20407,249.29727,84,38,1
249.29805,249.39224,81,34,1
249.39224,249.48586,83,37,1
249.48663,249.5813,81,34,1
249.5813,249.67488,85,37,1
249.67488,249.76909,81,34,1
249.76909,249.86296,83,36,1
249.86296,249.95717,81,35,1
249.95717,250.05148,85,38,1
250.05148,250.14514,81,36,1
250.14514,250.23921,83,38,1
250.23921,250.33249,81,36,1
250.33249,250.42648,85,40,1
250.42648,250.5199,81,37,1
250.5199,250.61327,83,40,1
250.61327,250.70618,81,38,1
250.70618,250.80013,85,43,1
250.80013,250.8934,81,39,1
250.8934,250.9866,83,43,1
250.9866,251.0792,81,40,1
251.0792,251.17255,90,44,1
251.17255,251.26456,81,41,1
251.17255,251.26456,83,41,1
251.26456,251.35811,90,43,1
251.35811,251.45085,81,41,1
251.35811,251.45085,83,41,1
251.45085,251.54475,90,46,1
251.54475,251.6372,81,42,1
251.54475,251.6372,83,42,1
251.6372,251.73051,90,46,1
251.73051,251.82288,81,44,1
251.73051,251.82288,83,44,1
251.82288,251.91617,90,49,1
251.91617,252.00958,81,45,1
251.91617,252.00958,83,45,1
252.00958,252.10223,90,49,1
252.10223,252.1957,81,47,1
252.10223,252.1957,83,47,1
252.1957,252.28859,90,54,1
252.28859,252.38269,81,48,1
252.28859,252.38269,83,48,1
252.38269,252.47928,90,53,1
252.47928,252.5799,81,49,1
252.47928,252.5799,83,49,1
252.5799,253.72218,88,72,1
252.5799,253.72218,83,72,1
252.5799,253.72218,80,72,1
253.72218,253.81566,88,58,1
253.81566,253.90913,86,57,1
253.90913,254.00261,84,56,1
254.00261,254.09608,83,55,1
254.09608,254.18869,84,58,1
254.18869,254.28128,83,57,1
254.28128,254.37387,81,56,1
254.37387,254.46646,80,55,1
254.46646,254.56021,81,51,1
254.56021,254.65396,83,52,1
254.65396,254.74771,84,53,1
254.74771,254.8466,86,54,1
254.8466,254.94008,88,56,1
254.94008,255.03355,89,57,1
255.03355,255.12703,88,57,1
255.12703,255.2205,87,56,1
255.2205,255.31398,88,56,1
255.31398,255.40767,86,56,1
255.40767,255.50145,84,56,1
255.50145,255.59554,83,56,1
255.59554,255.68971,84,57,1
255.68971,255.7841,86,57,1
255.7841,255.87871,84,57,1
255.87871,255.9734,83,53,1
255.9734,256.06842,81,56,1
256.06842,256.1635,80,52,1
256.1635,256.25885,81,56,1
256.25885,256.35416,83,52,1
256.35416,256.74313,84,59,1
256.74313,256.9376,81,52,1
256.9376,257.13812,78,52,1
256.35416,257.13812,72,45,1
257.13812,257.5271,83,57,1
257.5271,257.72156,79,52,1
257.72156,257.9228,76,52,1
257.13812,257.9228,71,45,1
257.9228,258.31308,81,57,1
258.31308,258.5082,78,52,1
258.5082,258.70334,75,52,1
257.9228,258.70334,69,45,1
258.70334,259.8495,76,72,1
259.8495,259.94296,76,58,1
259.94296,260.0364,74,57,1
260.0364,260.12988,72,56,1
260.12988,260.22333,71,55,1
260.22333,260.31677,72,58,1
260.31677,260.41025,71,57,1
260.41025,260.5037,69,56,1
260.5037,260.59717,68,55,1
260.59717,260.6906,69,51,1
260.6906,260.7841,71,52,1
260.7841,260.87753,72,53,1
260.87753,260.97644,74,54,1
260.97644,261.06992,76,56,1
261.06992,261.1634,77,57,1
261.1634,261.25687,76,57,1
261.25687,261.35034,75,56,1
261.35034,261.4429,76,56,1
261.4429,261.5357,74,56,1
261.5357,261.62878,72,56,1
261.62878,261.72214,71,56,1
261.72214,261.81583,72,57,1
261.81583,261.90982,74,57,1
261.90982,262.0041,72,57,1
262.0041,262.0987,71,53,1
262.0987,262.1936,69,56,1
262.1936,262.28882,68,52,1
262.28882,262.38434,69,56,1
262.38434,262.4802,71,52,1
262.4802,262.86115,72,59,1
262.86115,263.05408,69,52,1
263.05408,263.2553,66,52,1
262.4802,263.2553,60,45,1
263.2553,263.63992,71,57,1
263.63992,263.83472,67,52,1
263.83472,264.03595,64,52,1
263.2553,264.03595,59,45,1
264.03595,264.42493,69,57,1
264.42493,264.62204,66,52,1
264.62204,264.81915,63,52,1
264.03595,264.81915,57,45,1
264.81915,265.01697,64,55,1
265.20926,265.40637,76,68,1
265.40637,265.60352,74,63,1
265.60352,265.99774,72,66,1
265.99774,266.1949,69,61,1
266.1949,266.39896,65,54,1
266.39896,266.79453,71,51,1
266.79453,266.99234,67,46,1
266.99234,267.19012,64,46,1
267.19012,267.58572,69,51,1
267.58572,267.78354,66,46,1
267.78354,267.98132,63,46,1
267.98132,268.17914,64,55,1
268.37393,268.57172,72,67,1
268.57172,268.76953,71,63,1
268.76953,269.16513,69,66,1
269.16513,269.3629,65,61,1
269.3629,269.56915,62,54,1
269.56915,269.96613,67,51,1
269.96613,270.1646,64,46,1
270.1646,270.3694,60,46,1
270.3694,270.76773,65,51,1
270.76773,270.9669,62,46,1
270.9669,271.1724,59,46,1
271.1724,271.57147,60,55,1
271.57147,271.76926,77,69,1
271.76926,271.96707,76,64,1
271.96707,272.36267,74,66,1
272.36267,272.56046,70,61,1
272.56046,272.7667,67,54,1
272.7667,273.16367,72,51,1
273.16367,273.36215,69,46,1
273.36215,273.56693,65,46,1
273.56693,273.96527,70,51,1
273.96527,274.16443,67,46,1
274.16443,274.36993,64,46,1
274.36993,274.57547,65,55,1
274.78244,274.98026,65,68,1
274.98026,275.17804,64,63,1
275.17804,275.57364,62,66,1
275.57364,275.77142,58,61,1
275.77142,275.9777,55,54,1
275.9777,276.37463,60,51,1
276.37463,276.57312,57,46,1
276.57312,276.7779,53,46,1
276.7779,277.17624,58,51,1
277.17624,277.3754,55,46,1
277.3754,277.58093,52,46,1
277.58093,277.6744,45,33,1
277.58093,277.76788,53,40,1
277.76788,277.86136,45,33,1
277.76788,277.86136,41,28,1
277.95483,278.0477,45,33,1
277.95483,278.0477,41,28,1
278.1406,278.23346,45,34,1
278.1406,278.23346,41,28,1
278.32632,278.41995,45,34,1
278.32632,278.41995,41,28,1
278.51373,278.6075,45,34,1
278.51373,278.6075,41,28,1
278.7013,278.79446,45,35,1
278.7013,278.79446,41,29,1
278.88766,278.98083,45,35,1
278.88766,278.98083,41,29,1
279.074,279.1674,45,36,1
279.074,279.1674,41,30,1
279.26086,279.35434,45,36,1
279.26086,279.35434,41,30,1
279.4478,279.541,45,37,1
279.4478,279.541,41,31,1
279.63416,279.72733,45,38,1
279.63416,279.72733,41,32,1
279.8205,279.91397,45,39,1
279.8205,279.91397,41,33,1
280.00745,280.10092,45,40,1
280.00745,280.10092,41,34,1
280.1944,280.28787,47,40,1
280.1944,280.28787,43,34,1
280.38135,280.47482,47,40,1
280.38135,280.47482,43,34,1
280.5683,281.12915,48,46,1
281.12915,281.22263,52,40,1
281.22263,281.3161,50,40,1
281.3161,281.40958,48,45,1
282.02087,282.06885,78,46,1
282.06885,282.53622,79,57,1
282.53622,282.6297,77,48,1
282.6297,282.72318,75,47,1
282.72318,282.81665,74,45,1
282.81665,283.0036,72,44,1
283.56815,284.129,54,46,1
284.129,284.221,57,40,1
284.221,284.313,55,40,1
284.313,284.40854,54,45,1
285.03284,285.0817,86,46,1
285.0817,285.54788,87,57,1
285.54788,285.64017,86,48,1
285.64017,285.73245,84,47,1
285.73245,285.82474,82,45,1
285.82474,286.0146,81,44,1
286.58853,286.77548,58,57,1
286.77548,286.86688,62,48,1
286.86688,286.95828,60,48,1
286.95828,287.14526,58,51,1
287.3322,287.4242,84,54,1
287.4242,287.51617,82,52,1
287.51617,287.6082,81,50,1
287.6082,287.70016,79,48,1
287.70016,287.88712,78,51,1
288.07407,288.26102,67,57,1
288.26102,288.35242,70,48,1
288.35242,288.44385,69,48,1
288.44385,288.6308,67,51,1
288.82352,288.9155,87,54,1
288.9155,289.00748,86,52,1
289.00748,289.0995,84,50,1
289.0995,289.19147,82,48,1
289.19147,289.37842,81,51,1
289.56537,289.75232,58,59,1
289.75232,289.84375,62,50,1
289.84375,289.93515,60,51,1
289.93515,290.1221,58,56,1
290.30905,290.40103,84,63,1
290.40103,290.49304,82,63,1
290.49304,290.58502,81,62,1
290.58502,290.677,79,60,1
290.677,290.86395,78,64,1
291.0509,291.1429,74,73,1
291.1429,291.2349,72,71,1
291.2349,291.3269,70,71,1
291.3269,291.41888,69,67,1
291.41888,291.61496,67,74,1
291.82172,291.91373,80,87,1
291.91373,292.0057,79,83,1
292.0057,292.0977,77,81,1
292.0977,292.1897,75,78,1
292.1897,292.37665,74,83,1
292.5636,292.75055,63,57,1
292.75055,292.84195,67,48,1
292.84195,292.93338,65,48,1
292.93338,293.12033,63,51,1
293.30728,293.39926,77,54,1
293.39926,293.49124,75,52,1
293.49124,293.58325,74,50,1
293.58325,293.67523,72,48,1
293.67523,293.86218,71,51,1
294.04913,294.23608,60,57,1
294.23608,294.3275,63,48,1
294.3275,294.4189,62,48,1
294.4189,294.61124,60,51,1
294.81012,294.9021,80,54,1
294.9021,294.9941,79,52,1
294.9941,295.0861,77,50,1
295.0861,295.17807,75,48,1
295.17807,295.36502,74,51,1
295.55197,295.73892,63,59,1
295.73892,295.83035,67,50,1
295.83035,295.92175,65,51,1
295.92175,296.1087,63,56,1
296.29565,296.38766,77,63,1
296.38766,296.47964,75,63,1
296.47964,296.57162,74,62,1
296.57162,296.66364,72,60,1
296.66364,296.8506,71,64,1
297.03754,297.12952,79,73,1
297.12952,297.2215,77,71,1
297.2215,297.3135,75,71,1
297.3135,297.4055,74,67,1
297.4055,297.59967,72,74,1
297.8078,297.8998,85,87,1
297.8998,297.9918,84,83,1
297.9918,298.0838,82,81,1
298.0838,298.17578,80,78,1
298.17578,298.36273,79,83,1
298.6172,298.80838,80,48,1
298.80838,298.9019,84,40,1
298.9019,298.99536,82,40,1
298.99536,299.18655,80,43,1
299.37775,299.56592,85,48,1
299.56592,299.66,89,40,1
299.66,299.7541,87,40,1
299.7541,299.94528,85,43,1
300.13647,300.32767,66,40,1
300.32767,300.42114,70,34,1
300.42114,300.51465,68,34,1
300.51465,300.70584,66,36,1
300.92755,301.74747,71,40,1
301.74747,301.94028,77,48,1
301.94028,302.03455,81,40,1
302.03455,302.12885,79,40,1
302.12885,302.32162,77,43,1
302.51443,302.7042,82,48,1
302.7042,302.79904,85,40,1
302.79904,302.89392,84,40,1
302.89392,303.08673,82,43,1
303.2795,303.47232,63,40,1
303.47232,303.5666,67,34,1
303.5666,303.6609,65,34,1
303.6609,303.85367,63,36,1
304.07724,304.84235,68,40,1
304.84235,305.03513,73,48,1
305.03513,305.12943,77,40,1
305.12943,305.2237,75,40,1
305.2237,305.4165,73,43,1
305.60928,305.79904,78,48,1
305.79904,305.8939,82,40,1
305.8939,305.98877,80,40,1
305.98877,306.18158,78,43,1
306.3744,306.56717,60,42,1
306.56717,306.66147,64,35,1
306.66147,306.75574,62,35,1
306.75574,306.94855,60,38,1
307.17212,307.9372,72,42,1
307.9372,308.13,72,59,1
308.13,308.22427,76,52,1
308.22427,308.31854,74,52,1
308.31854,308.51135,72,56,1
308.73492,309.5,84,69,1
309.5,309.69916,84,68,1
309.69916,309.79672,88,70,1
309.79672,309.89432,86,71,1
309.89432,309.99353,84,73,1
310.09277,310.19202,84,77,1
310.29126,310.3905,84,81,1
310.48975,310.68823,84,83,1
310.68823,310.893,89,86,1
310.893,311.11594,83,90,1
311.11594,311.52658,84,93,1
311.52658,312.3578,67,75,1
312.3578,312.77213,67,75,1
312.77213,312.90463,72,82,1
312.90463,313.03717,67,74,1
313.03717,313.16968,64,74,1
313.16968,313.3022,67,82,1
313.3022,313.4347,72,74,1
313.4347,313.57397,76,73,1
313.57397,313.70694,74,82,1
313.70694,313.8399,71,74,1
313.8399,313.9729,68,74,1
313.9729,314.10587,71,82,1
314.10587,314.23883,74,75,1
314.23883,314.3776,77,75,1
314.3776,314.50964,76,82,1
314.50964,314.6417,73,74,1
314.6417,314.77374,70,77,1
314.77374,314.90582,73,82,1
314.90582,315.03787,76,75,1
315.03787,315.18497,79,74,1
315.18497,315.3175,82,82,1
315.3175,315.45,76,74,1
315.45,315.58252,85,74,1
315.58252,315.71457,76,82,1
315.71457,315.84662,73,74,1
315.84662,315.97867,82,74,1
315.97867,316.11075,73,82,1
316.11075,316.2428,70,74,1
316.2428,316.37485,76,74,1
316.37485,316.5069,70,78,1
316.5069,316.63898,64,74,1
316.63898,316.77103,73,74,1
316.77103,316.90353,70,77,1
316.90353,317.03604,64,71,1
317.03604,317.16855,72,71,1
317.16855,317.30106,70,76,1
317.30106,317.4336,64,71,1
317.4336,317.5661,72,71,1
317.5661,317.9731,72,79,1
317.5661,317.9731,69,67,1
317.5661,317.9731,65,67,1
317.9731,318.797,72,75,1
318.797,319.20767,72,75,1
319.20767,319.34018,77,82,1
319.34018,319.4727,72,74,1
319.4727,319.6052,69,74,1
319.6052,319.73773,72,82,1
319.73773,319.87024,77,74,1
319.87024,320.00952,81,73,1
320.00952,320.1425,79,82,1
320.1425,320.27545,76,74,1
320.27545,320.40842,73,74,1
320.40842,320.54138,76,82,1
320.54138,320.67438,79,75,1
320.67438,320.8131,82,75,1
320.8131,320.9452,81,82,1
320.9452,321.07724,78,74,1
321.07724,321.2093,75,77,1
321.2093,321.34134,78,82,1
321.34134,321.4734,81,75,1
321.4734,321.6205,84,74,1
321.6205,321.75302,81,82,1
321.75302,321.88553,78,74,1
321.88553,322.01804,87,74,1
322.01804,322.15012,78,82,1
322.15012,322.28217,75,74,1
322.28217,322.4142,84,74,1
322.4142,322.54626,75,82,1
322.54626,322.67834,72,74,1
322.67834,322.8104,81,74,1
322.8104,322.94244,75,78,1
322.94244,323.0745,69,74,1
323.0745,323.20657,78,74,1
323.20657,323.33908,75,77,1
323.33908,323.4716,69,71,1
323.4716,323.6041,77,71,1
323.6041,323.7366,75,76,1
323.7366,323.8691,69,71,1
323.8691,324.00162,77,71,1
324.00162,324.40866,77,79,1
324.00162,324.40866,74,67,1
324.00162,324.40866,70,67,1
324.40866,325.23254,65,75,1
325.23254,325.64322,65,75,1
325.64322,325.77573,70,82,1
325.77573,325.90823,65,74,1
325.90823,326.04074,62,74,1
326.04074,326.17325,65,82,1
326.17325,326.30576,70,74,1
326.30576,326.44504,74,73,1
326.44504,326.57803,72,82,1
326.57803,326.711,69,74,1
326.711,326.84396,66,74,1
326.84396,326.97693,69,82,1
326.97693,327.1099,72,75,1
327.1099,327.24866,75,75,1
327.24866,327.3807,74,82,1
327.3807,327.51276,71,74,1
327.51276,327.64484,68,77,1
327.64484,327.7769,71,82,1
327.7769,327.90894,74,75,1
327.90894,328.05606,77,74,1
328.05606,328.18857,80,82,1
328.18857,328.32108,74,74,1
328.32108,328.45358,83,74,1
328.45358,328.58563,74,82,1
328.58563,328.7177,71,74,1
328.7177,328.84976,80,74,1
328.84976,328.9818,71,82,1
328.9818,329.11386,68,74,1
329.11386,329.24594,77,74,1
329.24594,329.378,68,78,1
329.378,329.51004,65,74,1
329.51004,329.6421,74,74,1
329.6421,329.7746,68,77,1
329.7746,329.90714,62,71,1
329.90714,330.03964,71,71,1
330.03964,330.17215,68,76,1
330.17215,330.30466,62,71,1
330.30466,330.4492,70,71,1
330.4492,330.58124,78,82,1
330.58124,330.7133,75,74,1
330.7133,330.84534,70,77,1
330.84534,330.9774,75,82,1
330.9774,331.10947,78,75,1
331.10947,331.24152,82,74,1
331.24152,331.37402,78,82,1
331.37402,331.50653,75,74,1
331.50653,331.63904,87,74,1
331.63904,331.77112,75,82,1
331.77112,331.90317,70,74,1
331.90317,332.03522,82,74,1
332.03522,332.16727,70,82,1
332.16727,332.29935,66,74,1
332.29935,332.4314,78,74,1
332.4314,332.56345,66,78,1
332.56345,332.6955,63,74,1
332.6955,332.82755,75,74,1
332.82755,332.96008,66,77,1
332.96008,333.0926,63,71,1
333.0926,333.2251,75,71,1
333.2251,333.3576,66,76,1
333.3576,333.4901,63,71,1
333.4901,333.63574,75,71,1
333.63574,333.7678,78,82,1
333.7678,333.89984,76,74,1
333.89984,334.0319,73,77,1
334.0319,334.16397,76,82,1
334.16397,334.29602,78,75,1
334.29602,334.42807,85,74,1
334.42807,334.56058,78,82,1
334.56058,334.69308,76,74,1
334.69308,334.8256,88,74,1
334.8256,334.95767,76,82,1
334.95767,335.08972,73,74,1
335.08972,335.22177,85,74,1
335.22177,335.35382,73,82,1
335.35382,335.4859,66,74,1
335.4859,335.61795,78,74,1
335.61795,335.75,66,78,1
335.75,335.88205,64,74,1
335.88205,336.01413,76,74,1
336.01413,336.14664,66,77,1
336.14664,336.27914,64,71,1
336.27914,336.41165,76,71,1
336.41165,336.54416,66,76,1
336.54416,336.67667,64,71,1
336.67667,336.8223,76,71,1
336.8223,336.95435,78,82,1
336.95435,337.0864,74,74,1
337.0864,337.21844,71,77,1
337.21844,337.35052,74,82,1
337.35052,337.48257,78,75,1
337.48257,337.61462,83,74,1
337.61462,337.74713,78,82,1
337.74713,337.87964,74,74,1
337.87964,338.01218,86,74,1
338.01218,338.14423,74,82,1
338.14423,338.27628,71,74,1
338.27628,338.40833,83,74,1
338.40833,338.54037,71,82,1
338.54037,338.67245,66,74,1
338.67245,338.8045,78,74,1
338.8045,338.93655,66,78,1
338.93655,339.0686,62,74,1
339.0686,339.20068,74,74,1
339.20068,339.3332,66,77,1
339.3332,339.4657,62,71,1
339.4657,339.5982,74,71,1
339.5982,339.7307,66,76,1
339.7307,339.86322,62,71,1
339.86322,340.00885,74,71,1
340.00885,340.1409,79,82,1
340.1409,340.27295,74,74,1
340.27295,340.40503,71,77,1
340.40503,340.53708,74,82,1
340.53708,340.66913,79,75,1
340.66913,340.80118,83,74,1
340.80118,340.9337,79,82,1
340.9337,341.06622,74,74,1
341.06622,341.19873,86,74,1
341.19873,341.33078,74,82,1
341.33078,341.46283,71,74,1
341.46283,341.59488,83,74,1
341.59488,341.72696,71,82,1
341.72696,341.859,67,74,1
341.859,341.99106,79,74,1
341.99106,342.1231,67,78,1
342.1231,342.2552,65,74,1
342.2552,342.38724,77,74,1
342.38724,342.51974,67,77,1
342.51974,342.65225,62,71,1
342.65225,342.78476,74,71,1
342.78476,342.91727,67,76,1
342.91727,343.04977,62,71,1
343.04977,343.1954,74,71,1
343.1954,343.32745,84,82,1
343.32745,343.4595,79,74,1
343.4595,343.59158,75,77,1
343.59158,343.72363,79,82,1
343.72363,343.85568,84,75,1
343.85568,343.98773,87,74,1
343.98773,344.12024,79,82,1
344.12024,344.25278,75,74,1
344.25278,344.38528,87,74,1
344.38528,344.51733,75,82,1
344.51733,344.64938,72,74,1
344.64938,344.78143,84,74,1
344.78143,344.9135,72,82,1
344.9135,345.04556,67,74,1
345.04556,345.1776,79,74,1
345.1776,345.30966,67,78,1
345.30966,345.44174,63,74,1
345.44174,345.5738,75,74,1
345.5738,345.7063,67,77,1
345.7063,345.8388,63,71,1
345.8388,345.9713,75,71,1
345.9713,346.10382,67,76,1
346.10382,346.23636,63,71,1
346.23636,346.38196,75,71,1
346.38196,346.514,77,82,1
346.514,346.64606,73,74,1
346.64606,346.77814,68,77,1
346.77814,346.9102,73,82,1
346.9102,347.04224,77,75,1
347.04224,347.1743,80,74,1
347.1743,347.30682,77,82,1
347.30682,347.43933,73,74,1
347.43933,347.57184,68,74,1
347.57184,347.7039,77,82,1
347.7039,347.83594,73,74,1
347.83594,347.96802,68,74,1
347.96802,348.10007,75,82,1
348.10007,348.23212,72,74,1
348.23212,348.36417,69,77,1
348.36417,348.49622,72,82,1
348.49622,348.6283,75,75,1
348.6283,348.76035,81,74,1
348.76035,348.89285,75,82,1
348.89285,349.02536,72,74,1
349.02536,349.15787,69,74,1
349.15787,349.28995,75,82,1
349.28995,349.422,72,74,1
349.422,349.55405,69,74,1
349.95004,350.08078,71,83,1
350.08078,350.2115,74,72,1
350.2115,350.3422,79,72,1
350.3422,350.47473,74,83,1
350.47473,350.60724,71,71,1
350.60724,350.76547,67,70,1
350.76547,350.89752,77,58,1
350.89752,351.02957,71,47,1
351.02957,351.1725,67,47,1
351.1725,351.305,77,55,1
351.305,351.4375,74,47,1
351.4375,351.5788,67,47,1
351.5788,351.71133,75,55,1
351.71133,351.84384,74,47,1
351.84384,351.98514,67,47,1
351.98514,352.11765,75,55,1
352.11765,352.25018,72,48,1
352.25018,352.39044,67,48,1
352.39044,352.52295,74,55,1
352.52295,352.6555,72,47,1
352.6555,352.82056,69,47,1
353.21655,353.34726,59,78,1
353.34726,353.478,62,71,1
353.478,353.6087,67,71,1
353.6087,353.7412,62,74,1
353.7412,353.87372,59,63,1
353.87372,354.03198,55,62,1
354.03198,354.16403,65,52,1
354.16403,354.29608,59,42,1
354.29608,354.43896,55,42,1
354.43896,354.57147,65,49,1
354.57147,354.70398,62,42,1
354.70398,354.8453,55,42,1
354.8453,354.9778,63,49,1
354.9778,355.11032,62,42,1
355.11032,355.25165,55,42,1
355.25165,355.38416,63,49,1
355.38416,355.51666,60,43,1
355.51666,355.65695,55,43,1
355.65695,355.78946,62,49,1
355.78946,355.92197,60,42,1
355.92197,356.06122,57,42,1
356.06122,356.19373,62,49,1
356.19373,356.32626,59,42,1
356.32626,356.46756,55,42,1
356.46756,356.601,60,49,1
356.601,356.73444,55,42,1
356.73444,356.87732,51,41,1
356.87732,357.0117,59,48,1
357.0117,357.14606,55,41,1
357.14606,357.28894,50,41,1
357.28894,357.42426,57,46,1
357.42426,357.55957,51,39,1
357.55957,357.703,48,39,1
357.703,357.8393,55,45,1
357.8393,357.97556,50,38,1
357.97556,358.1201,47,37,1
358.1201,358.25784,54,43,1
358.25784,358.3956,51,36,1
358.3956,358.54065,45,36,1
358.54065,358.67892,55,42,1
358.67892,358.81717,50,36,1
358.81717,358.96222,47,36,1
358.96222,359.102,54,40,1
359.102,359.24176,51,34,1
359.24176,359.3885,45,34,1
359.3885,361.0935,55,45,1
359.3885,361.0935,50,38,1
359.3885,361.0935,47,38,1
361.0935,361.19345,50,40,1
361.19345,361.29337,52,40,1
361.29337,361.3933,54,40,1
361.3933,361.49323,55,45,1
361.49323,361.59314,50,40,1
361.59314,361.69308,52,40,1
361.69308,361.793,54,40,1
361.793,361.89294,55,45,1
361.89294,361.99286,50,40,1
361.99286,362.09277,52,40,1
362.09277,362.19272,54,40,1
362.19272,362.29263,55,46,1
362.29263,362.39258,50,40,1
362.39258,362.4925,52,40,1
362.4925,362.5924,54,40,1
362.5924,364.30597,55,45,1
364.30597,364.4059,54,40,1
364.4059,364.50583,55,40,1
364.50583,364.60577,57,40,1
364.60577,364.7057,59,45,1
364.7057,364.8056,54,40,1
364.8056,364.90555,55,40,1
364.90555,365.00546,57,40,1
365.00546,365.1054,59,45,1
365.1054,365.20532,54,40,1
365.20532,365.30524,55,40,1
365.30524,365.40518,57,40,1
365.40518,365.5051,59,46,1
365.5051,365.60504,54,40,1
365.60504,365.70496,55,40,1
365.70496,365.80487,57,40,1
365.80487,366.00473,59,45,1
366.40445,366.50436,59,41,1
366.50436,366.6043,60,44,1
366.6043,366.70422,62,48,1
367.20386,367.27048,62,45,1
367.27048,367.3371,64,47,1
367.3371,367.40372,66,48,1
367.40372,367.60217,67,53,1
367.99915,368.0951,67,51,1
368.0951,368.19104,69,51,1
368.19104,368.29028,71,55,1
368.38953,368.48547,71,51,1
368.48547,368.58142,72,52,1
368.58142,368.68066,74,55,1
368.7799,368.84387,74,52,1
368.84387,368.90784,76,54,1
368.90784,368.9718,78,56,1
368.9718,369.1703,79,58,1
369.56723,369.6308,62,50,1
369.6308,369.69434,64,53,1
369.69434,369.75787,66,55,1
369.75787,369.95636,67,58,1
370.35333,370.44803,67,55,1
370.44803,370.54272,69,59,1
370.54272,370.64127,71,63,1
371.1341,371.2285,71,57,1
371.2285,371.32288,72,58,1
371.32288,371.42142,74,63,1
371.52,371.58292,74,58,1
371.58292,371.64584,76,60,1
371.64584,371.70877,78,63,1
371.70877,371.807,79,66,1
371.90524,371.99933,79,65,1
371.99933,372.0934,81,68,1
372.0934,372.19165,83,70,1
372.6828,372.7449,74,65,1
372.7449,372.80704,76,68,1
372.80704,372.86914,78,69,1
372.86914,372.96738,79,71,1
373.45853,373.55112,79,66,1
373.55112,373.6437,81,68,1
373.6437,373.74194,83,73,1
374.23047,374.32187,79,68,1
374.32187,374.4133,81,72,1
374.4133,374.51022,83,76,1
374.60712,374.69824,83,68,1
374.69824,374.78937,84,71,1
374.78937,374.88596,86,75,1
374.98257,375.07312,86,70,1
375.07312,375.16367,88,75,1
375.16367,375.26028,89,79,1
375.74194,375.83252,86,77,1
375.83252,375.92307,88,82,1
375.92307,376.0184,89,86,1
376.495,376.58557,86,79,1
376.58557,376.67612,88,84,1
376.67612,376.77112,89,88,1
376.86615,376.95642,86,79,1
376.95642,377.0467,88,84,1
377.0467,377.1417,89,88,1
377.2367,377.32727,86,81,1
377.32727,377.41782,88,85,1
377.41782,377.51282,89,89,1
377.60785,377.6984,86,81,1
377.6984,377.78894,88,86,1
377.78894,377.88397,89,92,1
377.97897,378.06924,86,85,1
378.06924,378.15952,88,91,1
378.15952,378.2649,89,96,1
378.2498,378.3556,88,94,1
378.34045,378.44656,86,92,1
378.43137,378.53793,84,91,1
378.5227,378.62964,83,89,1
378.6143,378.72168,84,91,1
378.7063,378.81412,86,92,1
378.79868,378.90683,88,93,1
378.89136,378.99997,89,96,1
378.98444,379.093,88,95,1
379.0775,379.18573,86,94,1
379.1703,379.27814,84,93,1
379.26276,379.3703,83,93,1
379.35495,379.46213,84,93,1
379.44684,379.55383,86,95,1
379.53854,379.6454,88,97,1
379.63016,379.82846,89,99,1
379.81317,379.92023,88,97,1
379.90488,380.0122,86,96,1
379.9969,380.10434,84,95,1
380.08896,380.19662,83,93,1
380.18124,380.28915,81,92,1
380.27374,380.38205,79,91,1
380.36652,380.47522,77,90,1
380.4597,380.56854,76,88,1
380.55295,380.66202,74,87,1
380.64642,380.75574,72,86,1
380.7401,380.84958,71,85,1
380.8339,380.94366,69,83,1
380.92798,381.0379,67,82,1
381.02216,381.13214,65,81,1
381.11655,381.3035,64,80,1
381.3035,381.44373,52,33,1
381.3035,381.44373,48,28,1
381.49045,381.6298,52,33,1
381.49045,381.6298,48,28,1
381.6762,381.81555,52,34,1
381.6762,381.81555,48,28,1
381.86197,382.0025,52,34,1
381.86197,382.0025,48,28,1
382.04938,382.19006,52,34,1
382.04938,382.19006,48,28,1
382.23694,382.3767,52,35,1
382.23694,382.3767,48,29,1
382.42328,382.56305,52,35,1
382.42328,382.56305,48,29,1
382.60965,382.74976,52,36,1
382.60965,382.74976,48,30,1
382.79648,382.9367,52,36,1
382.79648,382.9367,48,30,1
382.98343,383.1232,52,37,1
382.98343,383.1232,48,31,1
383.1698,383.30954,52,38,1
383.1698,383.30954,48,32,1
383.35614,383.49634,52,39,1
383.35614,383.49634,48,33,1
383.5431,383.6833,52,40,1
383.5431,383.6833,48,34,1
383.73004,383.87024,54,40,1
383.73004,383.87024,50,34,1
383.917,384.0572,54,40,1
383.917,384.0572,50,34,1
384.10394,384.6648,55,46,1
384.10394,384.6648,50,39,1
384.6648,384.75827,59,40,1
384.75827,384.85175,57,40,1
384.85175,384.94522,55,45,1
385.55652,385.6045,85,46,1
385.6045,386.07187,86,57,1
386.07187,386.16534,84,48,1
386.16534,386.25882,83,47,1
386.25882,386.3523,81,45,1
386.3523,386.53925,79,44,1
387.1038,387.24402,50,37,1
387.1038,387.24402,46,29,1
387.29074,387.43097,50,35,1
387.29074,387.43097,46,29,1
387.4777,387.61658,50,35,1
387.4777,387.61658,46,29,1
387.66287,387.80173,50,36,1
387.66287,387.80173,46,30,1
387.84802,387.9887,50,37,1
387.84802,387.9887,46,31,1
388.03558,388.17627,50,37,1
388.03558,388.17627,46,31,1
388.22314,388.3638,50,38,1
388.22314,388.3638,46,32,1
388.4107,388.55136,50,39,1
388.4107,388.55136,46,33,1
388.59827,388.73846,50,39,1
388.59827,388.73846,46,33,1
388.78522,388.9254,50,40,1
388.78522,388.9254,46,34,1
388.97217,389.11282,50,40,1
388.97217,389.11282,46,34,1
389.15973,389.30038,50,40,1
389.15973,389.30038,46,34,1
389.3473,389.48615,50,40,1
389.3473,389.48615,46,34,1
389.53244,389.67133,50,40,1
389.53244,389.67133,46,34,1
389.7176,389.85693,52,40,1
389.7176,389.85693,48,34,1
389.90335,390.0427,52,40,1
389.90335,390.0427,48,34,1
390.0891,390.6481,53,46,1
390.0891,390.6481,48,39,1
390.6481,390.7413,57,40,1
390.7413,390.83447,55,40,1
390.83447,390.92764,53,45,1
391.53696,391.58478,83,46,1
391.58478,392.05215,84,57,1
392.05215,392.14563,82,50,1
392.14563,392.2391,80,49,1
392.2391,392.33258,79,47,1
392.33258,392.51953,77,46,1
393.04315,393.09113,88,67,1
393.09113,394.21164,89,73,1
394.21164,394.30542,89,74,1
394.30542,394.3992,87,73,1
394.3992,394.49298,86,71,1
394.49298,394.58676,84,70,1
394.58676,394.68024,83,72,1
394.68024,394.7737,84,71,1
394.7737,394.8672,86,72,1
394.8672,394.96066,87,73,1
394.96066,395.05505,89,74,1
395.05505,395.14944,87,72,1
395.14944,395.24384,86,71,1
395.24384,395.33823,84,69,1
395.33823,395.4317,83,72,1
395.4317,395.52518,84,75,1
395.52518,395.61865,86,77,1
395.61865,395.71213,87,80,1
395.71213,395.80563,89,80,1
395.80563,395.8991,87,80,1
395.8991,395.99258,86,79,1
395.99258,396.08606,84,81,1
396.08606,396.18024,83,85,1
396.18024,396.27576,84,89,1
396.27576,396.37378,86,94,1
396.37378,396.47882,87,98,1
396.47882,396.5723,89,100,1
396.5723,396.66577,87,98,1
396.66577,396.75925,86,96,1
396.75925,396.85272,84,94,1
396.85272,396.9462,83,93,1
396.9462,397.03967,80,91,1
397.03967,397.13315,79,89,1
397.13315,397.22662,77,87,1
397.22662,397.32166,75,85,1
397.32166,397.41666,74,83,1
397.41666,397.51166,72,81,1
397.51166,397.60666,71,79,1
397.60666,397.75922,72,93,1
398.01346,398.1789,67,83,1
398.45462,398.6339,63,72,1
398.9327,399.1683,60,64,1
399.56097,401.4691,56,60,1
401.4691,401.62808,73,54,1
401.8931,402.0662,68,52,1
402.35464,402.55115,65,48,1
402.87866,403.13147,61,43,1
403.55283,405.47665,58,39,1
405.572,405.6673,67,37,1
405.6673,405.76263,70,37,1
405.76263,405.85797,75,37,1
405.95328,406.0486,67,37,1
406.0486,406.14392,70,37,1
406.14392,406.23926,75,37,1
406.33456,406.4299,67,37,1
406.4299,406.5252,70,37,1
406.5252,406.62054,75,37,1
406.71777,406.815,67,37,1
406.815,406.91226,70,37,1
406.91226,407.0095,75,37,1
407.10483,407.20013,65,37,1
407.20013,407.29547,68,37,1
407.29547,407.39078,75,37,1
407.48547,407.58017,65,41,1
407.58017,407.67487,71,41,1
407.67487,407.76956,74,41,1
407.8649,407.9602,63,45,1
407.9602,408.05554,66,45,1
408.05554,408.15088,74,45,1
408.24844,408.346,63,39,1
408.346,408.44357,69,39,1
408.44357,408.54114,72,39,1
408.63837,408.7356,62,44,1
408.7356,408.83286,67,44,1
408.83286,408.93008,72,44,1
409.029,409.1279,62,48,1
409.1279,409.22678,67,48,1
409.22678,409.32568,72,48,1
409.42325,409.5208,62,53,1
409.5208,409.61838,67,53,1
409.61838,409.71594,71,53,1
409.81552,409.91513,62,58,1
409.91513,410.0147,65,59,1
410.0147,410.13852,71,59,1
410.13852,410.32547,72,84,1
410.13852,410.32547,64,68,1
410.32547,410.41818,64,37,1
410.41895,410.51242,60,33,1
410.51242,410.60455,64,37,1
410.60532,410.69818,60,33,1
410.69818,410.79028,64,36,1
410.79108,410.88394,60,33,1
410.88394,410.97604,64,36,1
410.97684,411.0697,60,33,1
411.0697,411.1618,64,37,1
411.1626,411.25546,60,33,1
411.25546,411.34818,64,36,1
411.34894,411.4424,60,33,1
411.4424,411.53513,64,36,1
411.5359,411.62936,60,33,1
411.62936,411.72208,64,37,1
411.72284,411.8163,60,33,1
411.8163,411.90903,64,37,1
411.9098,412.00327,60,33,1
412.00327,412.0951,64,37,1
412.09586,412.18845,60,33,1
412.18845,412.28024,64,36,1
412.281,412.3736,60,33,1
412.3736,412.4654,64,36,1
412.4662,412.55875,60,33,1
412.55875,412.65057,64,37,1
412.65134,412.74393,60,33,1
412.74393,412.83646,66,36,1
412.83725,412.93073,62,33,1
412.93073,413.0234,66,36,1
413.0242,413.11768,62,33,1
413.11768,413.67853,67,46,1
413.67853,413.772,71,40,1
413.772,413.86548,69,40,1
413.86548,413.95895,67,45,1
414.57025,414.61823,85,46,1
414.61823,415.0856,86,57,1
415.0856,415.17908,84,48,1
415.17908,415.27255,83,47,1
415.27255,415.36603,81,45,1
415.36603,415.55298,79,44,1
416.11945,416.21213,65,40,1
416.21292,416.3064,62,36,1
416.3064,416.39908,65,40,1
416.39987,416.49335,62,36,1
416.49335,416.58514,65,40,1
416.5859,416.6785,62,36,1
416.6785,416.7703,65,39,1
416.7711,416.86365,62,36,1
416.86365,416.95547,65,39,1
416.95624,417.04883,62,36,1
417.04883,417.14062,65,41,1
417.1414,417.23398,62,36,1
417.23398,417.32727,65,40,1
417.32806,417.42215,62,37,1
417.42215,417.51544,65,40,1
417.51624,417.61032,62,37,1
417.61032,417.70303,65,41,1
417.7038,417.79727,62,37,1
417.79727,417.88998,65,41,1
417.89075,417.98422,62,37,1
417.98422,418.07632,65,42,1
418.07712,418.16998,62,37,1
418.16998,418.2621,65,41,1
418.26288,418.35574,62,38,1
418.35574,418.44885,65,41,1
418.44962,418.5437,62,38,1
418.5437,418.63702,65,42,1
418.6378,418.73187,62,38,1
418.73187,418.8252,68,41,1
418.82596,418.92004,64,38,1
418.92004,419.01337,68,42,1
419.01413,419.10822,64,38,1
419.10822,419.66907,69,55,1
419.66907,419.76254,72,48,1
419.76254,419.85602,71,48,1
419.85602,419.9495,69,53,1
420.56082,420.6088,87,55,1
420.6088,421.07617,88,68,1
421.07617,421.16965,86,58,1
421.16965,421.26312,84,57,1
421.26312,421.3566,83,55,1
421.3566,421.54355,81,55,1
422.06186,422.11,83,61,1
422.11,422.57736,84,78,1
422.57736,422.67084,83,68,1
422.67084,422.7643,81,67,1
422.7643,422.8578,80,64,1
422.8578,423.04474,81,63,1
423.56305,423.6355,83,63,1
423.6355,424.10287,84,81,1
424.10287,424.19635,83,72,1
424.19635,424.28983,81,71,1
424.28983,424.3833,80,67,1
424.3833,424.47675,81,70,1
424.47675,424.5705,80,66,1
424.5705,424.66455,81,66,1
424.66455,424.75888,83,66,1
424.75888,424.85352,84,69,1
424.85352,424.94815,85,70,1
424.94815,425.0516,86,71,1
425.0516,425.18146,87,74,1
425.18146,425.67783,88,68,1
425.66196,425.7728,86,54,1
425.757,425.8675,84,53,1
425.8517,425.96182,83,51,1
425.94617,426.05588,84,53,1
426.0402,426.14993,83,52,1
426.13425,426.24396,81,51,1
426.2283,426.338,80,50,1
426.32233,426.43204,81,50,1
426.41638,426.5261,84,52,1
426.51044,426.62015,83,50,1
426.60446,426.7139,81,50,1
426.69833,426.80737,80,50,1
426.7918,426.90085,78,49,1
426.88528,426.99457,76,48,1
426.97894,427.08835,75,47,1
427.07272,427.1822,76,49,1
427.1665,427.27628,78,49,1
427.2606,427.37036,79,49,1
427.35468,427.4646,80,50,1
427.44885,427.559,81,50,1
427.54327,427.65338,80,50,1
427.63766,427.74802,81,51,1
427.73224,427.84274,83,51,1
427.82693,427.9375,84,49,1
427.92163,428.03558,85,50,1
428.01877,428.14178,86,52,1
428.1231,428.25543,87,53,1
428.2395,428.35098,88,55,1
428.33505,428.44638,87,53,1
428.43048,428.5416,88,53,1
428.52573,428.6366,87,50,1
428.62076,428.73148,88,52,1
428.7157,428.8261,86,52,1
428.81033,428.9206,84,51,1
428.90488,429.0149,83,50,1
428.9992,429.10895,84,52,1
429.09326,429.20297,83,51,1
429.18732,429.29703,81,49,1
429.28134,429.39102,80,50,1
429.3754,429.48477,81,50,1
429.46915,429.57852,84,53,1
429.5629,429.67227,83,50,1
429.65665,429.76587,81,50,1
429.7503,429.85934,80,50,1
429.84375,429.9528,78,49,1
429.93723,430.04626,76,48,1
430.03067,430.1397,75,47,1
430.12415,430.23315,76,49,1
430.2176,430.32663,78,50,1
430.31104,430.42007,79,50,1
430.4045,430.51355,80,52,1
430.49796,430.607,81,52,1
430.59143,430.70047,80,52,1
430.68488,430.7939,81,54,1
430.77835,430.88736,83,54,1
430.8718,430.98083,84,56,1
430.96524,431.07507,85,58,1
431.05872,431.1733,86,60,1
431.15695,431.27075,87,62,1
431.2552,431.34866,88,68,1
431.34866,431.44214,83,60,1
431.44214,431.5356,80,61,1
431.5356,431.6291,76,61,1
431.6291,431.72256,75,75,1
431.72256,431.81604,76,63,1
431.81604,431.90952,81,63,1
431.90952,432.003,84,63,1
432.003,432.09647,88,74,1
432.09647,432.18994,83,65,1
432.18994,432.28342,80,68,1
432.28342,432.3769,76,68,1
432.3769,432.47037,75,80,1
432.47037,432.56384,76,71,1
432.56384,432.65732,81,71,1
432.65732,432.7508,84,72,1
432.7508,432.84427,88,91,1
432.84427,432.93774,83,82,1
432.93774,433.03122,80,82,1
433.03122,433.1247,76,82,1
433.1247,433.21817,88,91,1
433.21817,433.31165,84,82,1
433.31165,433.40512,81,82,1
433.40512,433.4986,76,82,1
433.4986,433.59207,88,91,1
433.59207,433.68555,83,82,1
433.68555,433.77902,80,81,1
433.77902,433.8725,76,81,1
433.8725,433.96597,88,91,1
433.96597,434.05945,84,81,1
434.05945,434.15292,81,81,1
434.15292,434.2464,76,82,1
434.2464,434.34018,88,91,1
434.34018,434.43396,83,82,1
434.43396,434.52774,80,82,1
434.52774,434.62152,76,82,1
434.62152,434.7153,83,91,1
434.7153,434.80927,80,82,1
434.80927,434.90335,76,82,1
434.90335,434.99744,71,82,1
434.99744,435.09152,80,91,1
435.09152,435.1856,76,82,1
435.1856,435.2798,71,81,1
435.2798,435.3742,68,81,1
435.3742,435.4686,76,91,1
435.4686,435.563,71,81,1
435.563,435.65738,68,81,1
435.65738,435.75186,64,82,1
435.75186,435.84564,71,91,1
435.84564,435.93942,68,81,1
435.93942,436.03342,64,80,1
436.03342,436.1275,59,80,1
436.1275,436.22168,68,89,1
436.22168,436.31607,64,79,1
436.31607,436.41046,59,79,1
436.41046,436.50516,56,78,1
436.50516,436.59985,64,87,1
436.59985,436.69476,59,78,1
436.69476,436.78976,56,77,1
436.78976,436.8849,52,77,1
438.0308,438.12427,76,75,1
438.2177,438.31326,64,69,1
438.4088,438.50314,78,74,1
438.59747,438.69775,66,65,1
438.798,438.89206,80,71,1
438.9861,439.08194,68,64,1
439.56085,439.6555,80,67,1
439.7506,439.84677,68,53,1
439.944,440.04126,81,59,1
440.1387,440.23627,69,50,1
440.33383,440.42908,83,52,1
440.52432,440.62103,71,49,1
440.7183,440.81552,85,52,1
440.91296,441.01053,73,49,1
441.10822,441.20612,86,52,1
441.30402,441.40192,74,48,1
441.49982,441.59738,86,52,1
441.69507,441.79297,76,46,1
441.8912,441.98953,86,51,1
442.0881,442.18698,78,46,1
442.286,442.38525,86,51,1
442.48483,442.58453,80,46,1
442.68445,442.78363,86,51,1
442.88397,442.986,81,47,1
443.08975,443.1979,86,50,1
443.31293,443.43576,83,46,1
443.5699,444.4501,85,55,1
443.5699,444.4501,73,42,1
443.5699,444.4501,76,42,1
443.5699,444.4501,81,42,1
444.4501,444.88055,83,52,1
444.4501,444.88055,71,40,1
444.4501,444.88055,76,40,1
444.4501,444.88055,80,40,1
444.88055,445.35114,81,52,1
444.88055,445.35114,69,40,1
444.88055,445.35114,73,40,1
444.88055,445.35114,78,40,1
445.35114,446.24002,80,55,1
445.35114,446.24002,68,42,1
445.35114,446.24002,71,42,1
445.35114,446.24002,77,42,1
446.24002,447.14713,78,52,1
446.24002,447.14713,74,40,1
446.24002,447.14713,66,40,1
446.24002,447.14713,69,40,1
447.14713,448.04938,80,63,1
447.14713,448.04938,68,49,1
447.14713,448.04938,74,49,1
447.14713,448.04938,76,49,1
448.04938,448.51813,81,66,1
448.04938,448.51813,76,50,1
448.04938,448.51813,69,50,1
448.51813,449.02658,83,72,1
448.51813,449.02658,71,55,1
448.51813,449.02658,78,55,1
448.51813,449.02658,81,55,1
449.02658,449.92548,85,77,1
449.02658,449.92548,81,59,1
449.02658,449.92548,73,59,1
449.02658,450.3906,76,59,1
450.3906,450.85693,74,55,1
449.92548,450.85693,83,49,1
449.92548,450.85693,80,32,1
449.92548,450.85693,71,33,1
450.85693,451.73715,72,45,1
450.85693,451.73715,69,37,1
450.85693,451.73715,64,37,1
451.73715,452.1676,71,43,1
451.73715,452.1676,67,36,1
451.73715,452.1676,64,36,1
452.1676,452.62308,69,43,1
452.1676,452.62308,65,36,1
452.1676,452.62308,60,36,1
452.62308,453.5066,67,45,1
452.62308,453.5066,64,37,1
452.62308,453.5066,60,37,1
453.5066,454.411,65,43,1
453.5066,454.411,57,36,1
453.5066,454.411,62,36,1
454.411,454.8561,64,44,1
454.411,454.8561,60,44,1
454.411,455.3012,67,52,1
455.3012,455.73642,69,61,1
455.73642,456.19696,71,69,1
454.8561,456.19696,65,45,1
454.8561,456.19696,62,45,1
456.19696,456.31003,72,51,1
456.19696,456.34775,64,41,1
456.19696,456.34775,60,41,1
456.34775,456.46082,74,48,1
456.4984,456.61105,76,49,1
456.6485,456.76074,77,50,1
456.79803,456.90985,79,50,1
456.94702,457.05853,81,51,1
457.09558,457.2067,82,52,1
457.2436,457.35428,83,48,1
457.39105,457.50134,84,49,1
457.538,457.64774,85,51,1
457.68423,457.79373,86,53,1
457.83023,457.9397,87,54,1
457.97607,458.1208,88,58,1
458.1208,458.26547,87,53,1
458.26547,458.4102,88,53,1
458.4102,458.5549,89,53,1
458.5549,458.69962,87,53,1
458.69962,458.84433,88,53,1
457.97607,458.84433,84,48,1
458.98584,459.12738,88,54,1
459.12738,459.26892,86,54,1
458.84433,459.26892,83,60,1
459.41867,459.56842,86,53,1
459.56842,459.71817,84,53,1
459.26892,459.71817,76,60,1
459.86343,460.0087,82,54,1
460.0087,460.15393,83,54,1
460.15393,460.2992,84,54,1
460.2992,460.44446,82,54,1
460.44446,460.5897,83,54,1
459.71817,460.5897,80,60,1
460.73495,460.88022,80,54,1
460.88022,461.02545,81,54,1
461.02545,461.17758,83,54,1
461.17758,461.32968,80,54,1
461.32968,461.4818,81,54,1
460.5897,461.4818,77,60,1
461.62814,461.7745,82,62,1
461.7745,461.92087,83,57,1
461.92087,462.0672,84,57,1
462.0672,462.21356,82,59,1
462.21356,462.3599,83,59,1
461.4818,462.3599,77,62,1
462.503,462.64612,86,63,1
462.64612,462.7892,84,64,1
462.3599,462.7892,79,71,1
462.94073,463.09222,88,65,1
463.09222,463.24374,86,65,1
462.7892,463.24374,81,74,1
463.24374,463.389,88,79,1
463.389,463.53427,87,72,1
463.53427,463.6795,88,72,1
463.6795,463.82477,91,68,1
463.82477,463.97003,89,72,1
463.97003,464.11526,88,69,1
463.24374,464.11526,84,79,1
464.11526,464.26218,86,67,1
464.11526,464.26218,83,67,1
464.26218,464.4091,84,64,1
464.26218,464.4091,81,64,1
464.4091,464.556,79,60,1
464.4091,464.556,83,60,1
464.556,464.70932,81,60,1
464.556,464.70932,77,60,1
464.70932,464.86264,79,56,1
464.70932,464.86264,76,56,1
464.86264,465.016,77,53,1
464.86264,465.016,74,53,1
465.016,465.16068,76,57,1
465.16068,465.3054,75,49,1
465.3054,465.4501,76,49,1
465.4501,465.59482,77,49,1
465.59482,465.7395,75,49,1
465.7395,465.88422,76,49,1
465.016,465.88422,67,57,1
466.02576,466.1673,76,50,1
466.1673,466.3088,74,50,1
465.88422,466.3088,65,56,1
466.4586,466.60834,74,49,1
466.60834,466.7581,72,49,1
466.3088,466.7581,64,56,1
466.90335,467.0486,70,50,1
467.0486,467.19385,71,50,1
467.19385,467.3391,72,53,1
467.3391,467.48438,70,50,1
467.48438,467.6296,71,50,1
467.77487,467.92014,68,50,1
467.92014,468.06537,69,50,1
468.06537,468.2175,71,53,1
468.2175,468.3696,68,50,1
468.3696,468.52173,69,50,1
468.52173,468.66806,60,60,1
468.66806,468.81442,64,56,1
468.81442,468.96896,67,57,1
468.96896,469.117,62,66,1
469.117,469.26505,65,61,1
469.26505,469.4234,67,61,1
469.4234,469.57492,62,74,1
469.57492,469.7247,65,67,1
469.7247,469.87924,69,65,1
469.87924,470.02957,62,80,1
470.02957,470.17993,65,71,1
470.17993,470.33453,71,70,1
470.33453,470.48035,72,82,1
470.33453,470.48035,64,77,1
470.48035,470.62616,55,75,1
470.62616,470.77194,52,77,1
470.77194,470.91776,55,82,1
470.91776,471.06357,60,77,1
471.06357,471.21332,64,77,1
471.21332,471.35858,62,82,1
471.35858,471.5038,59,77,1
471.5038,471.64908,55,77,1
471.64908,471.79434,59,82,1
471.79434,471.93958,62,77,1
471.93958,472.08994,65,77,1
472.08994,472.23355,64,82,1
472.23355,472.3772,60,75,1
472.3772,472.52084,55,77,1
472.52084,472.66446,60,82,1
472.66446,472.8081,64,77,1
472.8081,472.95786,67,77,1
472.95786,473.10043,65,82,1
473.10043,473.243,62,77,1
473.243,473.39163,59,77,1
473.39163,473.53418,71,82,1
473.53418,473.67676,65,77,1
473.67676,473.81934,62,77,1
473.81934,474.24548,72,75,1
473.81934,474.24548,64,63,1
474.24548,475.10577,67,75,1
475.10577,475.96875,67,75,1
475.96875,476.83774,67,75,1
476.83774,477.27094,67,75,1
477.27094,477.41296,72,82,1
477.41296,477.55502,67,75,1
477.55502,477.69705,64,77,1
477.69705,477.8391,67,82,1
477.8391,477.98117,72,77,1
477.98117,478.12805,76,77,1
478.12805,478.27063,74,82,1
478.27063,478.4132,71,77,1
478.4132,478.5558,67,77,1
478.5558,478.69836,71,82,1
478.69836,478.8409,74,77,1
478.8409,478.98727,77,77,1
478.98727,479.1288,76,82,1
479.1288,479.27032,72,75,1
479.27032,479.41187,67,77,1
479.41187,479.5534,72,82,1
479.5534,479.69495,76,77,1
479.69495,479.8501,79,77,1
479.8501,479.99216,77,82,1
479.99216,480.1342,74,77,1
480.1342,480.28754,71,77,1
480.28754,480.42905,83,82,1
480.42905,480.5706,77,77,1
480.5706,480.71213,74,77,1
480.71213,480.92365,84,82,1
480.85315,480.99414,79,74,1
480.99414,481.13516,76,74,1
481.13516,481.34668,79,79,1
481.27618,481.4172,76,73,1
481.4172,481.56354,72,72,1
481.56354,481.7743,77,77,1
481.70404,481.84454,74,71,1
481.84454,481.98505,71,70,1
481.98505,482.1958,83,74,1
482.12555,482.26602,79,69,1
482.26602,482.4206,74,67,1
482.4206,482.63055,84,72,1
482.56058,482.70056,79,65,1
482.70056,482.84055,76,65,1
482.84055,483.05054,79,70,1
482.98053,483.1205,76,64,1
483.1205,483.26743,72,63,1
483.26743,483.47665,77,67,1
483.40692,483.54642,74,62,1
483.54642,483.68588,71,60,1
483.68588,483.89514,83,64,1
483.82538,483.96487,79,59,1
483.96487,484.11942,74,58,1
484.11942,484.2229,84,64,1
484.2229,484.32623,79,58,1
484.32623,484.4293,76,58,1
484.4293,484.53204,72,59,1
484.53204,484.6345,77,65,1
484.6345,484.73672,74,59,1
484.73672,484.83868,83,62,1
484.83868,484.94037,79,63,1
484.94037,485.04175,84,69,1
485.04175,485.14307,79,63,1
485.14307,485.2444,76,63,1
485.2444,485.3457,72,64,1
485.3457,485.44705,77,71,1
485.44705,485.54837,74,66,1
485.54837,485.6497,83,67,1
485.6497,485.7576,79,67,1
485.7576,485.85822,84,74,1
485.85822,485.95865,79,67,1
485.95865,486.0589,83,69,1
486.0589,486.1589,79,69,1
486.1589,486.25876,84,77,1
486.25876,486.35834,79,77,1
486.35834,486.45776,83,72,1
486.45776,486.557,79,73,1
486.557,486.65588,84,80,1
486.65588,486.7548,79,73,1
486.7548,486.8537,83,74,1
486.8537,486.9526,79,74,1
486.9526,487.05148,84,82,1
487.05148,487.1504,79,85,1
487.1504,487.2493,83,78,1
487.2493,487.35782,79,79,1
487.35782,487.4564,84,89,1
487.4564,487.55493,79,81,1
487.55493,487.65338,82,81,1
487.65338,487.75162,79,81,1
487.75162,487.84985,82,89,1
487.84985,487.94788,79,83,1
487.94788,488.04578,82,82,1
488.04578,488.14362,79,82,1
488.14362,488.24118,82,89,1
488.24118,488.33875,79,81,1
488.33875,488.4363,82,81,1
488.4363,488.53387,79,81,1
488.53387,488.63144,82,89,1
488.63144,488.729,79,83,1
488.729,488.82657,82,82,1
488.82657,488.92792,79,82,1
488.92792,489.11792,82,89,1
489.11792,489.21292,81,81,1
489.21292,489.30795,79,81,1
489.30795,489.40295,77,84,1
489.40295,489.49796,76,78,1
489.49796,489.59296,74,78,1
489.59296,489.68796,72,80,1
489.68796,489.783,70,84,1
489.783,489.878,69,80,1
489.878,489.973,67,80,1
489.973,490.068,65,81,1
490.068,490.16302,64,86,1
490.16302,490.25803,62,84,1
490.25803,490.35303,60,85,1
490.35303,490.44803,58,85,1
490.44803,490.54236,57,93,1
490.54236,490.63577,59,81,1
490.63577,490.72925,60,81,1
490.72925,490.82315,59,81,1
490.82315,490.9164,60,92,1
490.9164,491.01016,64,81,1
491.01016,491.10806,65,81,1
491.10806,491.20596,64,82,1
491.20596,491.29837,65,93,1
491.29837,491.3927,68,80,1
491.3927,491.48584,69,80,1
491.48584,491.58,68,81,1
491.58,491.6735,69,93,1
491.6735,491.7664,71,83,1
491.7664,491.86395,72,83,1
491.86395,491.96152,71,83,1
491.96152,492.05496,72,95,1
492.05496,492.14734,76,84,1
492.14734,492.2414,77,84,1
492.2414,492.3341,76,84,1
492.3341,492.42734,77,95,1
492.42734,492.52042,80,82,1
492.52042,492.61734,81,82,1
492.61734,492.71426,80,82,1
492.71426,492.80716,81,95,1
492.80716,492.9006,83,82,1
492.9006,492.99313,84,82,1
492.99313,493.08572,83,82,1
493.08572,493.17938,84,95,1
493.17938,493.27286,83,82,1
493.27286,493.3738,81,83,1
493.3738,493.4748,80,83,1
493.4748,493.5677,81,95,1
493.5677,493.66022,80,83,1
493.66022,493.75385,81,83,1
493.75385,493.8466,83,83,1
493.8466,493.94077,84,95,1
493.94077,494.03384,83,85,1
494.03384,494.13074,81,85,1
494.13074,494.22766,80,85,1
494.22766,494.32016,81,95,1
494.32016,494.414,80,84,1
494.414,494.5074,81,84,1
494.5074,494.60178,83,84,1
494.60178,494.6949,84,95,1
494.6949,494.78833,83,84,1
494.78833,494.88492,81,84,1
494.88492,494.98154,80,84,1
494.98154,495.0742,81,95,1
495.0742,495.16815,80,84,1
495.16815,495.26138,81,84,1
495.26138,495.35483,83,84,1
495.35483,495.44815,84,95,1
495.44815,495.54126,83,83,1
495.54126,495.63818,81,83,1
495.63818,495.7351,80,83,1
495.7351,495.82904,81,95,1
495.82904,495.9224,80,83,1
495.9224,496.01627,81,83,1
496.01627,496.10986,83,83,1
496.10986,496.2033,84,95,1
496.2033,496.29648,83,84,1
496.29648,496.39307,84,84,1
496.39307,496.48965,81,86,1
496.48965,496.58313,79,103,1
496.48965,496.58313,67,87,1
496.6766,496.77008,79,87,1
496.6766,496.77008,67,73,1
496.86356,496.95825,76,88,1
496.86356,496.95825,64,74,1
497.05298,497.14767,72,87,1
497.05298,497.14767,60,73,1
497.24237,497.33585,84,103,1
497.24237,497.33585,72,87,1
497.42932,497.5228,84,87,1
497.42932,497.5228,72,73,1
497.61627,497.71158,79,87,1
497.61627,497.71158,67,73,1
497.80692,497.90222,76,87,1
497.80692,497.90222,64,73,1
497.99695,498.09042,79,103,1
497.99695,498.09042,67,87,1
498.1839,498.27737,79,87,1
498.1839,498.27737,67,73,1
498.37085,498.46524,76,88,1
498.37085,498.46524,64,74,1
498.55963,498.65402,72,87,1
498.55963,498.65402,60,73,1
498.7484,498.8419,84,103,1
498.7484,498.8419,72,87,1
498.93536,499.02884,84,87,1
498.93536,499.02884,72,73,1
499.1223,499.217,79,87,1
499.1223,499.217,67,73,1
499.3117,499.4064,76,87,1
499.3117,499.4064,64,73,1
499.59482,499.68842,84,47,1
499.68842,499.78104,88,50,1
499.78183,499.87497,84,47,1
499.87497,499.9671,91,51,1
499.96786,500.06055,88,47,1
500.06055,500.15228,91,50,1
500.15305,500.2453,88,47,1
500.2453,500.33713,91,51,1
500.3379,500.43048,88,47,1
500.43048,500.52228,91,50,1
500.52304,500.61563,88,47,1
500.61563,500.70746,91,52,1
500.70822,500.8008,88,47,1
500.8008,500.8926,91,51,1
500.89337,500.98596,88,47,1
500.98596,501.07816,91,50,1
501.07895,501.17212,88,47,1
501.17212,501.2645,91,50,1
501.2653,501.35846,88,47,1
501.35846,501.45087,91,51,1
501.45163,501.5448,88,47,1
501.5448,501.6372,91,50,1
501.63797,501.73114,88,47,1
501.73114,501.82355,91,51,1
501.8243,501.9177,88,47,1
501.9177,502.0106,91,50,1
502.01138,502.10535,88,47,1
502.10535,502.19885,91,52,1
502.19965,502.29425,88,47,1
502.29425,502.38837,91,51,1
502.38916,502.48438,88,47,1
502.57846,502.67194,89,42,1
502.67194,502.81216,91,45,1
502.7654,502.8588,89,41,1
502.8588,502.99854,92,44,1
502.95197,503.04504,89,40,1
503.04504,503.18436,91,42,1
503.1379,503.23068,89,39,1
503.23068,503.3679,92,42,1
503.32263,503.41357,89,38,1
503.41357,503.5514,91,40,1
503.5058,503.59723,89,37,1
503.59723,503.73395,92,40,1
503.6885,503.77954,89,36,1
503.77954,503.9169,91,39,1
503.87152,503.9618,89,35,1
503.9618,504.09753,92,37,1
504.0517,504.14313,89,34,1
504.14313,504.27768,91,36,1
504.23282,504.32324,89,34,1
504.32324,504.45947,92,37,1
504.41455,504.5048,89,34,1
504.5048,504.64273,91,36,1
504.59668,504.68903,89,34,1
504.68903,504.8288,92,37,1
504.7822,504.8755,89,34,1
504.8755,505.01584,91,36,1
504.96896,505.06274,89,34,1
505.06274,505.20377,92,38,1
505.1567,505.25092,89,34,1
505.25092,505.39264,91,37,1
505.3453,505.43954,89,34,1
505.43954,505.53482,93,37,1
505.53482,505.62967,89,34,1
505.62967,505.72415,91,36,1
505.72415,505.8181,89,35,1
505.8181,505.91177,93,38,1
505.91177,506.00616,89,36,1
506.00616,506.10034,91,38,1
506.10034,506.1936,89,36,1
506.1936,506.2876,93,40,1
506.2876,506.381,89,37,1
506.381,506.4744,91,40,1
506.4744,506.5673,89,38,1
506.5673,506.66125,93,43,1
506.66125,506.75452,89,39,1
506.75452,506.84772,91,43,1
506.84772,506.9403,89,40,1
506.9403,507.03366,93,44,1
507.12567,507.2192,91,43,1
507.12567,507.2192,89,43,1
507.31195,507.40585,91,46,1
507.31195,507.40585,89,46,1
507.49832,507.5916,91,46,1
507.49832,507.5916,89,46,1
507.684,507.77728,91,49,1
507.684,507.77728,89,49,1
507.8707,507.96335,91,49,1
507.8707,507.96335,89,49,1
508.0568,508.14972,91,54,1
508.0568,508.14972,89,54,1
508.2438,508.3404,91,53,1
508.2438,508.3404,89,53,1
508.441,509.5833,84,82,1
509.5833,509.6768,84,58,1
509.6768,509.77026,82,57,1
509.77026,509.86374,80,56,1
509.86374,509.9572,79,55,1
509.9572,510.0507,80,58,1
510.0507,510.14417,79,57,1
510.14417,510.23764,77,56,1
510.23764,510.33112,76,55,1
510.33112,510.4246,77,51,1
510.4246,510.51807,79,52,1
510.51807,510.61154,80,53,1
510.61154,510.71042,82,54,1
510.71042,510.8039,84,56,1
510.8039,510.89737,85,57,1
510.89737,510.99084,84,57,1
510.99084,511.08432,83,56,1
511.08432,511.1778,84,56,1
511.1778,511.27148,82,56,1
511.27148,511.36526,80,56,1
511.36526,511.45935,79,56,1
511.45935,511.55353,80,57,1
511.55353,511.64792,82,57,1
511.64792,511.74252,80,57,1
511.74252,511.83722,79,53,1
511.83722,511.93222,77,56,1
511.93222,512.02734,76,52,1
512.02734,512.1227,77,56,1
512.1227,512.218,79,52,1
512.218,512.60693,80,59,1
512.60693,512.8014,77,52,1
512.8014,513.00195,73,52,1
512.218,513.00195,68,45,1
513.00195,513.3909,79,57,1
513.3909,513.5854,75,52,1
513.5854,513.7866,72,52,1
513.00195,513.7866,67,45,1
513.7866,514.1769,77,57,1
514.1769,514.372,74,52,1
514.372,514.56714,71,52,1
513.7866,514.56714,65,45,1
514.56714,515.70746,72,72,1
515.70746,515.80066,72,58,1
515.80066,515.8938,70,57,1
515.8938,515.987,69,56,1
515.987,516.08014,67,55,1
516.08014,516.17334,69,58,1
516.17334,516.2665,67,57,1
516.2665,516.3597,65,56,1
516.3597,516.4528,64,55,1
516.4528,516.546,65,51,1
516.546,516.6392,67,52,1
516.6392,516.73236,69,53,1
516.73236,516.83124,70,54,1
516.83124,516.92474,72,56,1
516.92474,517.0182,74,57,1
517.0182,517.1117,72,57,1
517.1117,517.20514,71,56,1
517.20514,517.2977,72,56,1
517.2977,517.3905,70,56,1
517.3905,517.4836,69,56,1
517.4836,517.57697,67,56,1
517.57697,517.67065,69,57,1
517.67065,517.76465,70,57,1
517.76465,517.85895,69,57,1
517.85895,517.95355,67,53,1
517.95355,518.0484,65,56,1
518.0484,518.1437,64,52,1
518.1437,518.2392,65,56,1
518.2392,518.335,67,52,1
518.335,518.7227,69,59,1
518.7227,518.91656,65,52,1
518.91656,519.1178,62,52,1
518.335,519.1178,57,45,1
519.1178,519.5067,67,57,1
519.5067,519.7012,64,52,1
519.7012,519.90247,60,52,1
519.90247,520.2914,65,57,1
520.2914,520.4885,62,52,1
520.4885,520.6856,59,52,1
519.1178,520.6856,55,45,1
520.6856,521.0882,60,55,1
520.6856,521.0882,55,51,1
521.0882,521.28534,72,68,1
521.28534,521.4825,71,64,1
521.4825,521.8767,69,66,1
521.8767,522.07385,65,61,1
522.07385,522.2779,62,54,1
522.2779,522.6735,67,51,1
522.6735,522.8713,64,46,1
522.8713,523.0691,60,46,1
523.0691,523.46466,65,51,1
523.46466,523.6625,62,46,1
523.6625,523.8603,59,46,1
523.8603,524.2548,60,55,1
524.2548,524.45264,77,68,1
524.45264,524.65045,76,64,1
524.65045,525.046,74,66,1
525.046,525.24384,70,61,1
525.24384,525.4501,67,54,1
525.4501,525.84705,72,51,1
525.84705,526.04553,69,46,1
526.04553,526.2503,65,46,1
526.2503,526.6486,70,51,1
526.6486,526.8478,67,46,1
526.8478,527.05334,64,46,1
527.05334,527.4658,65,55,1
527.4658,527.66364,77,67,1
527.66364,527.8614,75,63,1
527.8614,528.257,73,66,1
528.257,528.45483,70,61,1
528.45483,528.6611,67,54,1
528.6611,529.058,72,51,1
529.058,529.2565,68,46,1
529.2565,529.4613,65,46,1
529.4613,529.8596,70,51,1
529.8596,530.0588,67,46,1
530.0588,530.2643,64,46,1
530.2643,530.45123,65,40,1
530.45123,530.54474,53,33,1
530.45123,530.54474,49,28,1
530.6382,530.7311,53,33,1
530.6382,530.7311,49,28,1
530.824,530.9168,53,34,1
530.824,530.9168,49,28,1
531.0097,531.10333,53,34,1
531.0097,531.10333,49,28,1
531.19714,531.2909,53,34,1
531.19714,531.2909,49,28,1
531.3847,531.47784,53,35,1
531.3847,531.47784,49,29,1
531.57104,531.6642,53,35,1
531.57104,531.6642,49,29,1
531.7574,531.85077,53,36,1
531.7574,531.85077,49,30,1
531.9442,532.0377,53,36,1
531.9442,532.0377,49,30,1
532.13116,532.22437,53,37,1
532.13116,532.22437,49,31,1
532.3175,532.4107,53,38,1
532.3175,532.4107,49,32,1
532.50385,532.59735,53,39,1
532.50385,532.59735,49,33,1
532.6908,532.7843,53,40,1
532.6908,532.7843,49,34,1
532.87775,532.97125,55,40,1
532.87775,532.97125,51,34,1
533.0647,533.1582,55,40,1
533.0647,533.1582,51,34,1
533.25165,533.8125,56,46,1
533.8125,533.906,60,40,1
533.906,533.99945,58,40,1
533.99945,534.09296,56,45,1
534.7042,534.75226,86,72,1
534.75226,535.2196,87,89,1
535.2196,535.3131,85,75,1
535.3131,535.40656,84,73,1
535.40656,535.50006,82,70,1
535.50006,535.687,81,69,1
536.2515,536.8124,58,46,1
536.8124,536.90436,61,40,1
536.90436,536.99634,60,40,1
536.99634,537.08984,58,45,1
537.7012,537.74915,88,72,1
537.74915,538.21533,89,89,1
538.21533,538.3076,87,75,1
538.3076,538.3999,86,73,1
538.3999,538.4922,84,70,1
538.4922,538.67914,83,69,1
539.24365,539.4306,60,82,1
539.4306,539.52203,63,70,1
539.52203,539.61346,62,70,1
539.61346,539.8004,60,74,1
539.9962,540.0882,80,78,1
540.0882,540.1802,79,75,1
540.1802,540.27216,77,73,1
540.27216,540.36414,75,70,1
540.36414,540.5511,74,74,1
540.73804,540.925,64,82,1
540.925,541.0164,67,70,1
541.0164,541.10785,65,70,1
541.10785,541.2948,64,74,1
541.4933,541.58527,84,78,1
541.58527,541.67725,82,75,1
541.67725,541.7692,80,73,1
541.7692,541.8612,79,70,1
541.8612,542.04816,77,74,1
542.23883,542.3308,87,90,1
542.3308,542.4228,86,86,1
542.4228,542.5148,84,84,1
542.5148,542.60675,83,80,1
542.60675,542.79376,84,85,1
542.9844,543.07635,75,90,1
543.07635,543.16833,74,86,1
543.16833,543.2604,72,84,1
543.2604,543.35236,71,80,1
543.35236,543.5393,72,85,1
543.73663,543.8287,63,90,1
543.8287,543.92065,62,86,1
543.92065,544.01263,60,84,1
544.01263,544.1046,59,80,1
544.1046,544.29156,60,85,1
544.4785,544.5705,75,90,1
544.5705,544.66254,74,86,1
544.66254,544.7545,72,84,1
544.7545,544.8465,71,80,1
544.8465,544.94116,72,85,1
544.94116,545.0382,74,85,1
545.0382,545.1376,75,85,1
545.1376,545.2395,78,85,1
545.2395,545.4184,79,85,1
545.43463,545.6135,79,45,1
545.43463,545.6135,67,38,1
545.62976,545.80865,79,45,1
545.62976,545.80865,67,38,1
545.8249,546.0038,79,45,1
545.8249,546.0038,67,38,1
546.02,546.1989,79,45,1
546.02,546.1989,67,38,1
546.21515,546.39404,79,45,1
546.21515,546.39404,67,38,1
546.4103,546.5892,79,45,1
546.4103,546.5892,67,38,1
546.6054,546.7843,79,45,1
546.6054,546.7843,67,38,1
546.8006,546.9759,79,45,1
546.8006,546.9759,67,37,1
546.8006,546.9759,70,37,1
546.8006,546.9759,73,37,1
546.9918,547.1672,79,47,1
546.9918,547.1672,67,39,1
546.9918,547.1672,70,39,1
546.9918,547.1672,73,39,1
547.1831,547.35846,79,49,1
547.1831,547.35846,67,41,1
547.1831,547.35846,70,41,1
547.1831,547.35846,73,41,1
547.3744,547.5497,79,52,1
547.3744,547.5497,67,43,1
547.3744,547.5497,70,43,1
547.3744,547.5497,73,43,1
547.5657,547.7424,79,54,1
547.5657,547.7424,67,45,1
547.5657,547.7424,70,45,1
547.5657,547.7424,73,45,1
547.75854,547.93726,79,55,1
547.75854,547.93726,67,46,1
547.75854,547.93726,70,46,1
547.75854,547.93726,73,46,1
547.95355,548.1344,79,59,1
547.95355,548.1344,67,49,1
547.95355,548.1344,70,49,1
547.95355,548.1344,73,49,1
548.15094,548.33386,79,61,1
548.15094,548.33386,67,51,1
548.15094,548.33386,70,51,1
548.15094,548.33386,73,51,1
548.3505,548.5525,79,49,1
548.3505,548.5525,67,41,1
548.3505,548.5525,71,41,1
548.3505,548.5525,74,41,1
548.5525,548.94275,79,49,1
548.5525,548.94275,91,58,1
548.94275,549.333,77,53,1
548.94275,549.333,89,53,1
549.333,549.72327,76,46,1
549.333,549.72327,88,55,1
549.72327,550.10846,74,45,1
549.72327,550.10846,86,53,1
550.10846,550.50073,72,44,1
550.10846,550.50073,84,52,1
550.50073,550.89136,71,42,1
550.50073,550.89136,83,50,1
550.89136,551.27924,69,41,1
550.89136,551.27924,81,49,1
551.27924,551.4721,67,39,1
551.27924,551.4721,79,47,1
551.4721,551.56555,77,45,1
551.4721,551.56555,65,38,1
551.56555,551.65906,62,37,1
551.65906,551.7525,64,39,1
551.7525,551.846,65,40,1
551.846,551.93945,67,42,1
551.93945,552.03296,69,44,1
552.03296,552.12494,71,45,1
552.12494,552.2169,73,47,1
552.2169,552.3104,74,48,1
552.3104,552.4039,65,42,1
552.4039,552.4974,67,43,1
552.4974,552.5908,69,45,1
552.5908,552.6843,71,46,1
552.6843,552.7778,73,48,1
552.7778,552.8737,74,49,1
552.8737,552.96967,76,50,1
552.96967,553.0632,77,52,1
553.0632,553.1566,74,46,1
553.1566,553.2501,76,46,1
553.2501,553.34357,77,47,1
553.34357,553.4371,79,48,1
553.4371,553.5305,81,49,1
553.5305,553.62256,83,50,1
553.62256,553.71454,85,51,1
553.71454,553.808,86,52,1
553.808,553.9015,85,46,1
553.9015,553.99493,86,47,1
553.99493,554.08844,88,48,1
554.08844,554.1819,89,49,1
554.1819,554.2754,85,51,1
554.2754,554.37134,86,52,1
554.37134,554.4673,88,53,1
554.4673,554.6692,89,49,1
554.6692,555.0595,77,49,1
554.6692,555.0595,89,58,1
555.0595,555.44977,76,53,1
555.0595,555.44977,88,53,1
555.44977,555.84,74,46,1
555.44977,555.84,86,55,1
555.84,556.2252,72,45,1
555.84,556.2252,84,53,1
556.2252,556.6175,71,44,1
556.2252,556.6175,83,52,1
556.6175,557.00806,69,42,1
556.6175,557.00806,81,50,1
557.00806,557.39594,67,41,1
557.00806,557.39594,79,49,1
557.39594,557.5888,65,39,1
557.39594,557.5888,77,47,1
557.5888,557.6823,76,45,1
557.5888,557.6823,64,38,1
557.6823,557.77576,64,37,1
557.77576,557.86926,65,39,1
557.86926,557.9627,67,40,1
557.9627,558.0562,69,42,1
558.0562,558.14966,71,44,1
558.14966,558.24164,72,45,1
558.24164,558.3337,74,47,1
558.3337,558.4271,76,48,1
558.4271,558.5206,69,42,1
558.5206,558.6141,71,43,1
558.6141,558.7076,72,45,1
558.7076,558.801,74,46,1
558.801,558.89453,76,48,1
558.89453,558.9905,78,49,1
558.9905,559.0864,80,50,1
559.0864,559.1799,81,52,1
559.1799,559.2734,76,46,1
559.2734,559.3668,78,46,1
559.3668,559.4603,80,47,1
559.4603,559.5538,81,48,1
559.5538,559.6473,83,49,1
559.6473,559.73926,84,50,1
559.73926,559.83124,86,51,1
559.83124,559.92474,88,52,1
559.92474,560.0182,86,46,1
560.0182,560.1117,84,47,1
560.1117,560.20514,83,48,1
560.20514,560.29865,81,49,1
560.29865,560.3921,83,51,1
560.3921,560.48804,84,52,1
560.48804,560.584,81,53,1
560.6775,560.77094,65,38,1
560.77094,560.86444,67,41,1
560.86444,560.9579,69,42,1
560.9579,561.0514,71,44,1
561.0514,561.14484,72,47,1
561.14484,561.2368,74,48,1
561.2368,561.32886,76,50,1
561.32886,561.4223,77,52,1
561.4223,561.5158,71,45,1
561.5158,561.60925,72,47,1
561.60925,561.70276,74,49,1
561.70276,561.7962,76,51,1
561.7962,561.8897,77,53,1
561.8897,561.98566,79,54,1
561.98566,562.0816,81,56,1
562.0816,562.17505,83,58,1
562.17505,562.26855,77,51,1
562.26855,562.362,79,52,1
562.362,562.4555,81,53,1
562.4555,562.54895,83,55,1
562.54895,562.64246,84,56,1
562.64246,562.73444,86,58,1
562.73444,562.8264,88,59,1
562.8264,562.9199,89,60,1
562.9199,563.01337,88,54,1
563.01337,563.1069,86,55,1
563.1069,563.2003,84,57,1
563.2003,563.2938,83,58,1
563.2938,563.38727,84,61,1
563.38727,563.4832,86,62,1
563.4832,563.60364,83,64,1
563.69714,563.7906,79,56,1
563.7906,563.8841,81,56,1
563.8841,563.97754,83,57,1
563.97754,564.07104,84,59,1
564.07104,564.1645,86,60,1
564.1645,564.2565,88,62,1
564.2565,564.34845,89,63,1
564.34845,564.44196,91,65,1
564.44196,564.5354,89,57,1
564.5354,564.6289,88,59,1
564.6289,564.7224,86,60,1
564.7224,564.81586,85,62,1
564.81586,564.90936,86,65,1
564.90936,565.0053,88,66,1
565.0053,565.1257,85,68,1
565.2192,565.3127,73,59,1
565.3127,565.4061,74,59,1
565.4061,565.49963,76,61,1
565.49963,565.5931,77,63,1
565.5931,565.6866,79,64,1
565.6866,565.78326,81,66,1
565.78326,565.9892,77,67,1
565.9892,566.0827,75,61,1
566.0827,566.17615,76,61,1
566.17615,566.26965,77,64,1
566.26965,566.3631,79,65,1
566.3631,566.45667,81,66,1
566.45667,566.55225,83,69,1
566.55225,566.7558,79,70,1
566.7558,566.8493,76,63,1
566.8493,566.94275,77,64,1
566.94275,567.03625,79,66,1
567.03625,567.1297,81,68,1
567.1297,567.2232,83,69,1
567.2232,567.3185,84,72,1
567.3185,567.5223,81,73,1
567.5223,567.6157,78,66,1
567.6157,567.7092,79,66,1
567.7092,567.8027,81,68,1
567.8027,567.8962,83,70,1
567.8962,567.98975,84,71,1
567.98975,568.08527,86,74,1
568.08527,568.28735,83,75,1
568.28735,568.3808,80,69,1
568.3808,568.4743,81,69,1
568.4743,568.56775,83,71,1
568.56775,568.66125,84,73,1
568.66125,568.7548,86,74,1
568.7548,568.8529,88,77,1
568.8529,569.05695,84,79,1
569.05695,569.1504,82,71,1
569.1504,569.2439,83,71,1
569.2439,569.33734,84,74,1
569.33734,569.43085,86,75,1
569.43085,569.5244,88,77,1
569.5244,569.61993,89,79,1
569.61993,569.7183,86,81,1
569.9096,569.9733,79,76,1
569.9733,570.0371,84,69,1
570.0371,570.1009,91,70,1
570.2921,570.3559,79,78,1
570.3559,570.4197,84,72,1
570.4197,570.4834,91,71,1
570.6747,570.7389,80,80,1
570.7389,570.8033,84,73,1
570.8033,570.86786,92,74,1
571.063,571.1285,80,82,1
571.1285,571.1942,84,75,1
571.1942,571.2602,92,75,1
571.2602,571.36084,81,85,1
571.36084,571.4544,93,88,1
571.4544,571.54785,91,87,1
571.54785,571.6413,89,86,1
571.6413,571.73474,88,86,1
571.73474,571.82825,86,85,1
571.82825,571.9217,84,84,1
571.9217,572.01514,83,83,1
572.01514,572.10876,81,82,1
572.10876,572.2025,79,81,1
572.2025,572.29626,77,80,1
572.29626,572.39,76,79,1
572.39,572.48376,74,78,1
572.48376,572.5775,72,77,1
572.5775,572.67126,71,77,1
572.67126,572.76526,69,76,1
572.76526,572.85925,68,75,1
572.85925,572.9533,69,78,1
572.9533,573.04736,67,77,1
573.04736,573.1414,65,77,1
573.1414,573.2355,64,77,1
573.2355,573.32947,62,77,1
573.32947,573.4235,60,76,1
573.4235,573.51746,59,76,1
573.51746,573.6112,57,76,1
573.6112,573.70496,55,75,1
573.70496,573.7988,53,75,1
573.7988,573.8929,52,75,1
573.8929,573.9871,50,75,1
573.9871,574.0815,48,74,1
574.0815,574.176,47,74,1
574.176,574.2706,45,74,1
574.2706,574.36554,43,75,1
574.36554,574.4605,48,75,1
574.4605,574.5554,47,47,1
574.5554,574.6504,50,47,1
574.6504,574.7453,48,47,1
574.7453,574.8403,52,48,1
574.8403,574.9352,51,48,1
574.9352,575.03015,53,48,1
575.03015,575.1249,52,48,1
575.1249,575.2195,55,49,1
575.2195,575.31415,54,49,1
575.31415,575.40875,57,49,1
575.40875,575.5034,55,50,1
575.5034,575.598,60,50,1
575.598,575.6927,59,50,1
575.6927,575.78735,62,51,1
575.78735,575.8811,60,51,1
575.8811,575.97485,64,51,1
575.97485,576.0686,63,52,1
576.0686,576.16235,65,52,1
576.16235,576.2561,64,52,1
576.2561,576.34985,67,53,1
576.34985,576.4436,66,53,1
576.4436,576.53735,69,53,1
576.53735,576.6311,67,54,1
576.6311,576.72485,72,54,1
576.72485,576.8186,71,54,1
576.8186,576.91235,74,55,1
576.91235,577.0061,72,55,1
577.0061,577.09985,76,55,1
577.09985,577.1936,75,56,1
577.1936,577.28735,77,56,1
577.28735,577.3811,76,56,1
577.3811,577.47485,79,58,1
577.47485,577.5686,78,60,1
577.5686,577.6759,81,62,1
577.6759,577.7228,79,70,1
577.76965,577.86346,84,62,1
577.86346,577.9572,83,62,1
577.9572,578.0603,84,63,1
578.0603,578.1072,79,70,1
578.15405,578.2478,88,63,1
578.2478,578.34155,87,64,1
578.34155,578.4416,88,65,1
578.4416,578.48846,79,72,1
578.53534,578.6291,84,65,1
578.6291,578.72284,83,66,1
578.72284,578.8225,84,66,1
578.8225,578.8694,79,74,1
578.91626,579.01,88,67,1
579.01,579.10376,87,68,1
579.10376,579.20245,88,68,1
579.20245,579.2493,79,76,1
579.2962,579.38995,84,69,1
579.38995,579.4837,83,69,1
579.4837,579.58203,84,70,1
579.58203,579.6291,79,78,1
579.6761,579.77014,88,71,1
579.77014,579.8642,87,71,1
579.8642,579.9582,88,71,1
579.9582,580.00525,79,80,1
580.0529,580.15063,84,72,1
580.15063,580.25977,83,73,1
580.25977,580.388,84,73,1
580.388,581.87134,83,87,1
580.388,581.87134,89,87,1
581.87134,581.9399,89,73,1
581.9399,582.0088,88,73,1
582.0088,582.07806,86,72,1
582.07806,582.1477,84,71,1
582.1477,582.21765,83,70,1
582.21765,582.288,81,69,1
582.288,582.35876,79,68,1
582.35876,582.4299,77,68,1
582.4299,582.5014,76,66,1
582.5014,582.5733,74,66,1
582.5733,582.647,72,65,1
582.647,582.7283,71,65,1
582.7283,584.5951,77,78,1
582.7283,584.5951,71,78,1
584.5951,584.67847,77,64,1
584.67847,584.76355,76,62,1
584.76355,584.8502,74,60,1
584.8502,584.93896,72,60,1
584.93896,585.02954,71,60,1
585.02954,585.126,69,59,1
585.126,585.2314,67,56,1
585.2314,585.3481,65,54,1
585.3481,586.2385,64,50,1
585.3481,586.2385,60,42,1
585.3481,586.2385,55,42,1
586.2385,586.67395,62,48,1
586.2385,586.67395,59,40,1
586.2385,586.67395,53,40,1
586.67395,587.1347,60,48,1
586.67395,587.1347,57,40,1
586.67395,587.1347,52,40,1
587.1347,588.0285,59,50,1
587.1347,588.0285,56,42,1
587.1347,588.0285,50,42,1
588.0285,588.9434,57,48,1
588.0285,588.9434,48,40,1
588.9434,589.84393,71,53,1
588.9434,589.84393,67,45,1
588.9434,589.84393,65,45,1
589.84393,590.28424,72,56,1
589.84393,590.28424,67,47,1
590.28424,590.7714,74,62,1
590.28424,590.7714,72,51,1
590.28424,590.7714,69,51,1
590.7714,591.6652,76,67,1
590.7714,591.6652,72,56,1
590.7714,592.1172,67,56,1
592.1172,592.3531,79,50,1
592.3531,592.5889,77,49,1
591.6652,592.5889,74,60,1
591.6652,592.5889,71,50,1
593.0285,593.4681,84,44,1
593.0285,593.4681,88,52,1
593.4681,593.8966,77,42,1
593.4681,593.8966,83,42,1
593.4681,593.8966,86,50,1
593.8966,594.3459,76,42,1
593.8966,594.3459,81,42,1
593.8966,594.3459,84,50,1
594.3459,595.2174,83,53,1
594.3459,595.2174,80,45,1
594.3459,595.2174,74,45,1
595.2174,596.12305,81,50,1
595.2174,596.12305,72,42,1
596.12305,596.5758,76,45,1
596.12305,596.5758,72,45,1
596.12305,597.047,79,53,1
597.047,597.57874,81,53,1
597.57874,598.8811,83,51,1
596.5758,598.8811,77,48,1
596.5758,598.8811,74,40,1
598.8811,599.3661,64,45,1
598.8811,599.3661,60,45,1
598.8811,600.8521,67,53,1
600.8521,601.8824,68,56,1
601.8824,603.34973,71,46,1
599.3661,603.34973,65,48,1
599.3661,603.34973,62,40,1
603.34973,603.8348,52,45,1
603.34973,603.8348,48,45,1
603.34973,605.3208,55,53,1
605.3208,606.3511,57,56,1
606.3511,607.8184,59,46,1
603.8348,607.8184,53,48,1
603.8348,607.8184,50,40,1
607.8184,607.9089,52,28,1
607.8184,607.99927,60,40,1
607.99927,608.08966,64,33,1
607.99927,608.08966,60,28,1
608.1801,608.2699,64,33,1
608.1801,608.2699,60,28,1
608.35974,608.4496,64,34,1
608.35974,608.4496,60,28,1
608.5394,608.63,64,34,1
608.5394,608.63,60,28,1
608.7207,608.8114,64,34,1
608.7207,608.8114,60,28,1
608.9021,608.99225,64,35,1
608.9021,608.99225,60,29,1
609.08234,609.1725,64,35,1
609.08234,609.1725,60,29,1
609.2626,609.3529,64,36,1
609.2626,609.3529,60,30,1
609.4433,609.53375,64,36,1
609.4433,609.53375,60,30,1
609.62415,609.7143,64,37,1
609.62415,609.7143,60,31,1
609.8044,609.89453,64,38,1
609.8044,609.89453,60,32,1
609.9846,610.0751,64,39,1
609.9846,610.0751,60,33,1
610.16547,610.2559,64,40,1
610.16547,610.2559,60,34,1
610.3463,610.4367,66,40,1
610.3463,610.4367,62,34,1
610.52716,610.61755,66,40,1
610.52716,610.61755,62,34,1
610.70795,610.8888,67,52,1
610.8888,610.9775,71,46,1
610.9775,611.0662,69,46,1
611.0662,611.1566,67,52,1
611.42786,611.6087,72,65,1
611.6087,611.6974,76,58,1
611.6974,611.7861,74,58,1
611.7861,611.87646,72,64,1
612.14777,612.32855,77,75,1
612.32855,612.4173,81,65,1
612.4173,612.506,79,65,1
612.506,612.5964,77,73,1
612.8676,612.95807,89,87,1
612.95807,613.04846,88,79,1
613.04846,613.13885,89,79,1
613.13885,613.2293,88,79,1
613.2293,613.3197,89,79,1
613.3197,613.4101,88,79,1
613.4101,613.50055,89,79,1
613.50055,613.59094,88,79,1
613.59094,613.6814,89,78,1
613.6814,613.7718,88,78,1
613.7718,613.8622,86,79,1
613.8622,613.95264,84,80,1
613.95264,614.043,83,81,1
614.043,614.1334,81,82,1
614.1334,614.2239,79,83,1
614.2239,614.3143,77,84,1
614.3143,614.4049,76,85,1
614.4049,614.49634,74,86,1
614.49634,614.5886,72,88,1
614.5886,614.6818,71,89,1
614.6818,614.7759,69,90,1
614.7759,614.8709,67,92,1
614.8709,614.96686,65,92,1
614.96686,615.0638,64,93,1
615.0638,615.2589,62,100,1
615.45404,615.6492,79,100,1
615.45404,615.6492,67,85,1
615.45404,615.6492,71,85,1
615.45404,615.6492,74,100,1
616.6249,616.82,76,106,1
616.6249,616.82,64,89,1
616.6249,616.82,67,89,1
616.6249,616.82,72,106,1
617.4054,617.6005,79,106,1
617.4054,617.6005,67,89,1
617.4054,617.6005,71,89,1
617.4054,617.6005,74,106,1
618.2203,618.43256,72,89,1
618.2203,618.43256,84,106,1
618.2203,618.43256,79,106,1
618.2203,618.43256,76,89,1
0.0,0.14021325,36,25,1
0.186951,0.32716426,36,22,1
0.186951,0.32716426,43,26,1
0.373902,0.51322085,36,22,1
0.373902,0.51322085,43,26,1
0.5596605,0.6989794,36,22,1
0.5596605,0.6989794,43,27,1
0.745419,0.88593787,36,22,1
0.745419,0.88593787,43,27,1
0.9328275,1.0734963,36,23,1
0.9328275,1.0734963,43,28,1
1.120386,1.2601463,36,23,1
1.120386,1.2601463,43,28,1
1.306733,1.4464933,36,24,1
1.306733,1.4464933,43,29,1
1.49308,1.6331925,43,30,1
1.49308,1.6331925,36,25,1
1.6799303,1.8201436,43,27,1
1.6799303,1.8201436,36,22,1
1.8668814,2.0066416,43,28,1
1.8668814,2.0066416,36,23,1
2.0532284,2.1929886,43,29,1
2.0532284,2.1929886,36,24,1
2.2395754,2.3797886,43,30,1
2.2395754,2.3797886,36,25,1
2.4265263,2.5667396,43,30,1
2.4265263,2.5667396,36,25,1
2.6134772,2.7536905,45,30,1
2.6134772,2.7536905,36,25,1
2.8004284,2.9406416,45,30,1
2.8004284,2.9406416,36,25,1
2.9873793,3.1275926,43,30,1
2.9873793,3.1275926,35,25,1
3.1743302,3.3145435,43,30,1
3.1743302,3.3145435,35,25,1
3.3612814,3.5014946,43,30,1
3.3612814,3.5014946,35,25,1
3.5482323,3.6884456,43,30,1
3.5482323,3.6884456,35,25,1
3.7351832,3.8753965,43,30,1
3.7351832,3.8753965,35,25,1
3.9221344,4.0623474,43,30,1
3.9221344,4.0623474,35,25,1
4.1090856,4.2492986,43,30,1
4.1090856,4.2492986,35,25,1
4.2960362,4.44214,43,30,1
4.2960362,4.44214,35,25,1
4.4908414,4.6332464,43,30,1
4.4908414,4.6332464,35,25,1
4.6807146,4.82312,43,30,1
4.6807146,4.82312,35,25,1
4.8705883,5.0129933,43,30,1
4.8705883,5.0129933,35,25,1
5.060462,5.202867,43,30,1
5.060462,5.202867,35,25,1
5.250335,5.3927402,43,30,1
5.250335,5.3927402,35,25,1
5.440209,5.582614,43,30,1
5.440209,5.582614,35,25,1
5.630082,5.7724876,43,30,1
5.630082,5.7724876,35,25,1
5.819956,5.965117,43,30,1
5.819956,5.965117,35,25,1
6.0135045,6.1537175,34,26,1
6.0135045,6.1537175,41,30,1
6.200455,6.3406687,34,25,1
6.200455,6.3406687,41,30,1
6.3874063,6.526278,34,25,1
6.3874063,6.526278,41,30,1
6.572569,6.7114406,34,26,1
6.572569,6.7114406,41,31,1
6.7577314,6.8984003,34,26,1
6.7577314,6.8984003,41,31,1
6.9452896,7.0859585,34,26,1
6.9452896,7.0859585,41,31,1
7.1328483,7.273517,34,26,1
7.1328483,7.273517,41,31,1
7.320407,7.461076,34,26,1
7.320407,7.461076,41,31,1
7.5079656,7.6481786,41,31,1
7.5079656,7.6481786,34,26,1
7.6949162,7.8351297,41,31,1
7.6949162,7.8351297,34,26,1
7.8818674,8.022536,41,31,1
7.8818674,8.022536,34,26,1
8.069426,8.210094,41,31,1
8.069426,8.210094,34,26,1
8.256985,8.395856,41,31,1
8.256985,8.395856,34,26,1
8.442147,8.581018,41,30,1
8.442147,8.581018,34,25,1
8.62731,8.766628,43,30,1
8.62731,8.766628,34,25,1
8.813067,8.952387,43,30,1
8.813067,8.952387,34,25,1
8.998826,9.138537,41,30,1
8.998826,9.138537,33,25,1
9.185124,9.324884,41,30,1
9.185124,9.324884,33,25,1
9.371471,9.511231,41,30,1
9.371471,9.511231,33,25,1
9.557818,9.697578,41,30,1
9.557818,9.697578,33,25,1
9.744165,9.883925,41,30,1
9.744165,9.883925,33,25,1
9.930512,10.070272,41,30,1
9.930512,10.070272,33,25,1
10.116859,10.256619,41,30,1
10.116859,10.256619,33,25,1
10.303206,10.449786,41,30,1
10.303206,10.449786,33,25,1
10.498646,10.641051,41,30,1
10.498646,10.641051,32,25,1
10.6885195,10.830924,41,30,1
10.6885195,10.830924,32,25,1
10.878393,11.020798,41,30,1
10.878393,11.020798,32,25,1
11.068266,11.210671,41,30,1
11.068266,11.210671,32,25,1
11.25814,11.400545,41,30,1
11.25814,11.400545,32,25,1
11.448013,11.590419,41,30,1
11.448013,11.590419,32,25,1
11.638225,11.782151,41,30,1
11.638225,11.782151,32,25,1
11.830127,11.974052,41,30,1
11.830127,11.974052,32,25,1
12.022028,12.162241,41,36,1
12.022028,12.162241,31,30,1
12.208979,12.349192,41,38,1
12.208979,12.349192,31,32,1
12.395929,12.535249,41,39,1
12.395929,12.535249,31,33,1
12.581688,12.721007,41,41,1
12.581688,12.721007,31,34,1
12.7674465,12.908115,41,43,1
12.7674465,12.908115,31,36,1
12.955006,13.0956745,41,45,1
12.955006,13.0956745,31,38,1
13.142564,13.283233,41,46,1
13.142564,13.283233,32,39,1
13.330122,13.470791,41,48,1
13.330122,13.470791,32,40,1
13.517681,13.657894,41,52,1
13.517681,13.657894,31,44,1
13.704632,13.844845,41,52,1
13.704632,13.844845,31,44,1
13.8915825,14.033173,41,55,1
13.8915825,14.033173,32,45,1
14.080369,14.221958,41,55,1
14.080369,14.221958,32,46,1
14.269155,14.4093685,41,58,1
14.269155,14.4093685,31,48,1
14.456106,14.596319,41,60,1
14.456106,14.596319,31,51,1
14.643057,14.78327,41,64,1
14.643057,14.78327,32,54,1
14.830008,14.970221,41,66,1
14.830008,14.970221,32,56,1
15.016959,15.409746,41,85,1
15.016959,15.409746,31,70,1
15.409746,16.347567,55,96,1
15.409746,16.347567,43,81,1
16.347567,16.442575,57,67,1
16.442575,16.537584,59,70,1
16.537584,16.686592,60,72,1
16.934937,17.098572,55,66,1
16.934937,17.098572,43,56,1
17.3713,17.543056,51,62,1
17.3713,17.543056,39,52,1
17.829315,18.045662,48,57,1
17.829315,18.045662,36,48,1
18.406239,20.189562,43,54,1
18.406239,20.189562,31,46,1
20.189562,20.376513,48,30,1
20.376513,20.46921,48,31,1
20.469988,20.563463,55,26,1
20.563463,20.65557,48,31,1
20.656343,20.749222,55,27,1
20.749222,20.841328,48,31,1
20.842102,20.93498,55,27,1
20.93498,21.027086,48,31,1
21.02786,21.120739,55,26,1
21.120739,21.212845,48,31,1
21.21362,21.306498,55,27,1
21.306498,21.399195,48,31,1
21.399973,21.493448,55,27,1
21.493448,21.586145,48,31,1
21.586924,21.6804,55,25,1
20.189562,21.6804,36,30,1
21.6804,21.773096,48,31,1
21.773876,21.867352,55,26,1
21.867352,21.960047,48,31,1
21.960827,22.054302,55,26,1
22.054302,22.146112,48,31,1
22.146883,22.239464,55,27,1
22.239464,22.331274,48,31,1
22.332047,22.424627,55,27,1
22.424627,22.516438,48,31,1
22.517208,22.609789,55,26,1
22.609789,22.7016,48,31,1
22.702372,22.794952,55,27,1
22.794952,22.887499,48,31,1
22.888279,22.981754,57,27,1
22.981754,23.07445,48,31,1
23.07523,23.168705,57,25,1
23.168705,23.308918,50,31,1
23.168705,23.308918,47,26,1
23.26218,23.355656,55,25,1
23.355656,23.495869,50,31,1
23.355656,23.495869,47,26,1
23.449131,23.542606,55,25,1
23.542606,23.68282,50,31,1
23.542606,23.68282,47,26,1
23.636082,23.729557,55,25,1
23.729557,23.869772,50,31,1
23.729557,23.869772,47,26,1
23.823034,23.91651,55,25,1
23.91651,24.056723,50,31,1
23.91651,24.056723,47,26,1
24.009985,24.10346,55,25,1
24.10346,24.243673,50,31,1
24.10346,24.243673,47,26,1
24.196936,24.290411,55,25,1
24.290411,24.430624,50,31,1
24.290411,24.430624,47,26,1
24.383886,24.477362,55,25,1
24.477362,24.622522,50,31,1
24.477362,24.622522,47,26,1
24.574137,24.67091,55,25,1
24.67091,24.812866,50,31,1
24.67091,24.812866,47,26,1
24.765547,24.860186,55,25,1
24.860186,25.00214,50,31,1
24.860186,25.00214,47,26,1
24.954823,25.04946,55,25,1
25.04946,25.191416,50,31,1
25.04946,25.191416,47,26,1
25.144096,25.238733,55,25,1
25.238733,25.38069,50,31,1
25.238733,25.38069,47,26,1
25.333372,25.428009,55,25,1
25.428009,25.569963,50,31,1
25.428009,25.569963,47,26,1
25.522646,25.617283,55,25,1
25.617283,25.75924,50,31,1
25.617283,25.75924,47,26,1
25.71192,25.806557,55,25,1
25.806557,25.948513,50,31,1
25.806557,25.948513,47,26,1
25.901196,25.995832,55,25,1
25.995832,26.140238,50,31,1
25.995832,26.140238,47,26,1
26.092102,26.188374,55,25,1
26.188374,26.375324,50,33,1
26.375324,26.468021,50,34,1
26.4688,26.562277,57,28,1
26.562277,26.654085,50,34,1
26.654858,26.747438,57,29,1
26.747438,26.839249,50,34,1
26.84002,26.9326,57,29,1
26.9326,27.02441,50,34,1
27.025183,27.117764,57,28,1
27.117764,27.209574,50,34,1
27.210344,27.302925,57,29,1
27.302925,27.396227,50,34,1
27.39701,27.491096,57,30,1
27.491096,27.584398,50,35,1
27.585182,27.679266,57,28,1
26.188374,27.679266,38,33,1
27.679266,27.771963,50,35,1
27.772743,27.866219,57,29,1
27.866219,27.958914,50,35,1
27.959694,28.05317,57,29,1
28.05317,28.145275,50,35,1
28.146048,28.238928,57,30,1
28.238928,28.331032,50,35,1
28.331806,28.424686,57,30,1
28.424686,28.517786,50,36,1
28.51857,28.612656,57,29,1
28.612656,28.705957,50,36,1
28.706741,28.800825,57,31,1
28.800825,28.894127,50,36,1
28.89491,28.988997,59,31,1
28.988997,29.082298,50,36,1
29.083082,29.177166,59,29,1
29.177166,29.31738,52,37,1
29.177166,29.31738,48,30,1
29.270643,29.364119,57,29,1
29.364119,29.504332,52,37,1
29.364119,29.504332,48,30,1
29.457594,29.55107,57,29,1
29.55107,29.691282,52,37,1
29.55107,29.691282,48,30,1
29.644545,29.73802,57,29,1
29.73802,29.878233,52,37,1
29.73802,29.878233,48,30,1
29.831495,29.92497,57,29,1
29.92497,30.065184,52,37,1
29.92497,30.065184,48,30,1
30.018446,30.111921,57,29,1
30.111921,30.252134,52,37,1
30.111921,30.252134,48,30,1
30.205397,30.298872,57,29,1
30.298872,30.439087,52,37,1
30.298872,30.439087,48,30,1
30.39235,30.485825,57,29,1
30.485825,30.631454,52,37,1
30.485825,30.631454,48,30,1
30.58291,30.679998,57,29,1
30.679998,30.821955,52,37,1
30.679998,30.821955,48,30,1
30.774635,30.869274,57,29,1
30.869274,31.011229,52,37,1
30.869274,31.011229,48,30,1
30.963911,31.058548,57,29,1
31.058548,31.200504,52,37,1
31.058548,31.200504,48,30,1
31.153185,31.247822,57,29,1
31.247822,31.389778,52,39,1
31.247822,31.389778,48,30,1
31.342459,31.437098,57,31,1
31.437098,31.579052,52,39,1
31.437098,31.579052,48,32,1
31.531734,31.626371,57,31,1
31.626371,31.768328,52,41,1
31.626371,31.768328,48,32,1
31.721008,31.815645,57,31,1
31.815645,31.957602,52,41,1
31.815645,31.957602,48,33,1
31.910284,32.00492,57,33,1
32.00492,32.149326,52,42,1
32.00492,32.149326,48,35,1
32.101192,32.197464,57,33,1
32.197464,32.339867,52,45,1
32.197464,32.339867,48,37,1
32.2924,32.387337,58,36,1
32.387337,32.52974,52,45,1
32.387337,32.52974,48,38,1
32.482273,32.57721,58,37,1
32.57721,32.719616,52,47,1
32.57721,32.719616,48,39,1
32.672146,32.767082,58,38,1
32.767082,32.90949,52,47,1
32.767082,32.90949,48,39,1
32.86202,32.956955,58,38,1
32.956955,33.09936,52,50,1
32.956955,33.09936,48,41,1
33.05189,33.14683,58,40,1
33.14683,33.289234,52,51,1
33.14683,33.289234,48,41,1
33.241768,33.336704,58,40,1
33.336704,33.479107,52,51,1
33.336704,33.479107,48,42,1
33.43164,33.526577,58,42,1
33.526577,33.673637,52,53,1
33.526577,33.673637,48,43,1
33.624615,33.722656,58,42,1
33.722656,33.83171,47,40,1
33.81613,33.925186,51,35,1
33.909607,34.01866,54,35,1
34.003082,34.096558,59,35,1
34.096558,34.205612,47,41,1
34.190033,34.299088,51,35,1
34.28351,34.392563,54,35,1
34.376984,34.47046,59,35,1
34.47046,34.579514,47,39,1
34.563934,34.67299,52,35,1
34.65741,34.766464,55,35,1
34.750885,34.84436,59,35,1
34.84436,34.953415,47,40,1
34.937836,35.04689,52,35,1
35.03131,35.140366,55,35,1
35.124786,35.21826,59,35,1
35.21826,35.327316,47,40,1
35.311737,35.420795,54,35,1
35.405216,35.514523,57,35,1
35.498894,35.59267,59,35,1
35.59267,35.702133,47,40,1
35.68645,35.79622,54,35,1
35.780537,35.8903,57,35,1
35.874622,35.96881,59,35,1
35.96881,36.078934,47,40,1
36.0632,36.17333,52,35,1
36.157597,36.267975,55,35,1
36.25219,36.34689,59,35,1
36.34689,36.45742,47,40,1
36.441586,36.55243,52,35,1
36.536594,36.647438,55,35,1
36.631603,36.72682,59,35,1
36.72682,36.836586,47,40,1
36.820908,36.93067,51,35,1
36.91499,37.024605,54,35,1
37.008976,37.102753,59,35,1
37.102753,37.212162,47,40,1
37.196533,37.305687,51,35,1
37.290108,37.399166,54,35,1
37.383587,37.477062,59,35,1
37.477062,37.586117,47,40,1
37.570538,37.679592,52,35,1
37.664013,37.773067,55,35,1
37.75749,37.850964,59,35,1
37.850964,37.96002,47,41,1
37.94444,38.053493,52,35,1
38.037914,38.14697,55,35,1
38.13139,38.224865,59,35,1
38.224865,38.33392,47,40,1
38.31834,38.427395,54,35,1
38.411816,38.52087,57,35,1
38.50529,38.598766,59,35,1
38.598766,38.70782,47,40,1
38.69224,38.801296,54,36,1
38.785717,38.89477,57,36,1
38.879192,38.972668,59,36,1
38.972668,39.081722,47,42,1
39.066143,39.175198,52,36,1
39.15962,39.268673,55,37,1
39.253094,39.34657,59,37,1
39.34657,39.455624,47,42,1
39.440044,39.549892,52,37,1
39.53352,39.648125,55,37,1
39.631752,39.729984,59,38,1
39.729984,39.82346,47,44,1
39.82346,39.916935,51,38,1
39.916935,40.01041,54,38,1
40.01041,40.103886,59,38,1
40.103886,40.19736,58,50,1
40.19736,40.290836,59,41,1
40.290836,40.38431,55,40,1
40.38431,40.47779,52,41,1
40.47779,40.571266,47,52,1
40.571266,40.66474,51,44,1
40.66474,40.758217,54,45,1
40.758217,40.851692,59,45,1
40.851692,40.945168,58,60,1
40.945168,41.038643,59,51,1
41.038643,41.13212,55,51,1
41.13212,41.225594,52,52,1
41.225594,41.31907,47,63,1
41.31907,41.412544,51,52,1
41.412544,41.50602,54,52,1
41.50602,41.599495,59,52,1
41.599495,41.69297,47,63,1
41.69297,41.786446,52,52,1
41.786446,41.87992,55,52,1
41.87992,41.973396,59,52,1
41.973396,42.06687,47,63,1
42.06687,42.160347,51,52,1
42.160347,42.253822,54,52,1
42.253822,42.347298,59,52,1
42.347298,42.440773,47,63,1
42.440773,42.53425,52,52,1
42.53425,42.627724,55,52,1
42.627724,42.721203,59,52,1
42.721203,43.096317,59,63,1
42.721203,43.096317,47,54,1
42.721203,43.096317,51,54,1
42.721203,43.096317,54,54,1
45.3597,45.45502,35,85,1
45.45502,45.550343,39,76,1
45.550343,45.65027,42,76,1
45.65027,45.7502,47,75,1
45.7502,45.846146,35,77,1
45.942097,46.038048,47,68,1
46.134,46.22995,37,73,1
46.3259,46.421852,49,66,1
46.517803,46.613754,39,71,1
46.709705,46.805656,51,65,1
47.29404,47.38999,39,69,1
47.485943,47.581894,51,61,1
47.678165,47.774437,40,65,1
47.870815,47.967407,52,59,1
48.064003,48.160812,42,65,1
48.25773,48.35465,54,54,1
49.61976,49.717655,42,41,1
49.815556,49.913452,54,36,1
50.011353,50.108917,44,41,1
50.206596,50.304493,56,36,1
50.402725,50.50107,45,40,1
50.59963,50.69853,57,37,1
50.79754,50.89678,47,39,1
50.99636,51.096058,59,36,1
51.195984,51.29517,49,38,1
51.3955,51.497536,61,37,1
51.60128,51.70944,51,40,1
51.82447,51.947308,63,37,1
52.081425,52.961964,64,33,1
52.081425,52.961964,68,39,1
52.961964,53.392563,59,29,1
52.961964,53.392563,63,29,1
52.961964,53.392563,66,35,1
53.392563,53.848213,61,29,1
53.392563,53.848213,64,35,1
53.848213,54.732063,56,33,1
53.848213,54.732063,60,33,1
53.848213,54.732063,63,39,1
54.732063,55.636806,57,28,1
54.732063,55.636806,61,34,1
55.636806,56.527344,63,45,1
55.636806,56.527344,54,37,1
55.636806,56.527344,57,45,1
55.636806,56.527344,59,37,1
56.527344,56.992462,64,49,1
56.527344,56.992462,59,40,1
56.527344,56.992462,56,40,1
56.992462,57.482258,61,42,1
56.992462,57.482258,57,46,1
56.992462,57.482258,66,51,1
57.482258,58.391346,68,59,1
57.482258,58.391346,64,49,1
57.482258,59.319214,59,49,1
58.391346,59.321156,66,32,1
58.391346,59.321156,63,27,1
59.321156,60.2017,52,29,1
59.321156,60.2017,56,35,1
60.2017,60.632298,47,26,1
60.2017,60.632298,51,26,1
60.2017,60.632298,54,31,1
60.632298,61.087948,49,26,1
60.632298,61.087948,52,31,1
61.087948,61.971794,44,29,1
61.087948,61.971794,48,29,1
61.087948,61.971794,51,35,1
61.971794,62.87654,45,25,1
61.971794,62.87654,49,30,1
62.87654,64.66317,47,40,1
62.87654,64.66317,35,33,1
64.66317,65.1142,52,43,1
64.66317,65.1142,40,38,1
66.45852,67.32676,64,37,1
66.45852,67.32676,68,44,1
67.32676,67.75136,59,33,1
67.32676,67.75136,63,33,1
67.32676,67.75136,66,40,1
67.75136,68.20063,61,33,1
67.75136,68.20063,64,40,1
68.20063,69.07215,56,37,1
68.20063,69.07215,60,37,1
68.20063,69.07215,63,44,1
69.07215,69.96426,57,32,1
69.07215,69.96426,61,39,1
69.96426,70.84235,63,47,1
69.96426,70.84235,54,39,1
69.96426,70.84235,57,47,1
69.96426,70.84235,59,39,1
70.84235,71.27165,64,53,1
70.84235,71.27165,59,45,1
70.84235,71.27165,56,45,1
71.27165,71.7262,61,49,1
71.27165,71.7262,57,49,1
71.27165,71.7262,66,59,1
71.7262,72.597725,68,65,1
71.7262,72.597725,64,53,1
72.597725,73.038445,66,53,1
72.597725,73.038445,63,45,1
73.038445,73.19177,47,44,1
73.19177,73.3451,49,43,1
71.7262,73.49651,59,53,1
73.3451,73.49843,51,41,1
73.49843,74.36667,52,37,1
73.49843,74.36667,56,45,1
74.36667,74.79127,47,33,1
74.36667,74.79127,51,33,1
74.36667,74.79127,54,41,1
74.79127,75.24054,49,33,1
74.79127,75.24054,52,41,1
75.24054,76.11206,44,37,1
75.24054,76.11206,51,37,1
75.24054,76.11206,54,49,1
75.24054,76.11206,48,37,1
76.11206,77.004166,52,32,1
76.11206,77.004166,49,39,1
76.11206,77.004166,45,39,1
77.004166,78.816986,47,55,1
77.004166,78.816986,35,46,1
78.816986,79.254395,52,60,1
78.816986,79.254395,40,50,1
79.254395,80.13152,47,76,1
80.13152,81.00328,47,76,1
81.00328,81.87407,47,75,1
81.87407,82.30178,47,74,1
82.30178,82.44383,52,73,1
82.44383,82.58588,47,67,1
82.58588,82.72792,44,69,1
82.72792,82.869965,47,73,1
82.869965,83.01201,52,69,1
83.01201,83.15892,56,69,1
83.15892,83.30202,54,73,1
83.30202,83.44512,51,69,1
83.44512,83.58823,47,69,1
83.58823,83.73133,51,73,1
83.73133,83.87443,54,69,1
83.87443,84.021904,57,69,1
84.021904,84.165,56,73,1
84.165,84.308105,52,67,1
84.308105,84.45121,47,69,1
84.45121,84.59431,52,73,1
84.59431,84.73741,56,69,1
84.73741,84.88488,59,69,1
84.88488,85.02852,57,73,1
85.02852,85.17216,54,69,1
85.17216,85.3202,51,69,1
85.3202,85.46277,63,73,1
85.46277,85.60534,57,69,1
85.60534,85.75338,54,69,1
85.75338,85.895424,56,64,1
85.895424,86.03747,59,56,1
86.03747,86.17951,64,56,1
86.17951,86.321556,59,64,1
86.321556,86.46361,56,57,1
86.46361,86.61051,52,57,1
86.61051,86.75308,51,64,1
86.75308,86.89565,54,56,1
86.89565,87.03823,57,56,1
87.03823,87.1808,54,64,1
87.1808,87.32337,51,57,1
87.32337,87.46972,47,58,1
87.47503,87.61656,52,64,1
87.61125,87.752785,56,56,1
87.752785,87.89432,59,56,1
87.89432,88.03585,56,64,1
88.03585,88.17738,52,57,1
88.183205,88.33788,47,57,1
88.33256,88.4746,51,64,1
88.4746,88.616646,57,56,1
88.6224,88.77528,59,56,1
88.76997,88.91151,57,64,1
88.91151,89.05304,59,57,1
89.05304,89.19457,66,58,1
89.19457,89.33559,56,64,1
89.33559,89.4766,59,55,1
89.4766,89.617615,64,55,1
89.617615,89.75863,52,62,1
89.75863,89.89964,56,55,1
89.89964,90.04599,59,54,1
90.04599,90.186485,54,59,1
90.186485,90.32699,57,51,1
90.32699,90.46748,59,51,1
90.46748,90.60799,57,57,1
90.60799,90.74848,59,51,1
90.74848,90.90303,66,51,1
90.90303,91.043015,56,56,1
91.043015,91.18301,59,48,1
91.18301,91.32299,64,48,1
91.32299,91.46298,52,54,1
91.46298,91.60297,56,48,1
91.60297,91.74988,59,47,1
91.74988,91.889366,54,51,1
91.889366,92.028854,57,44,1
92.028854,92.16834,59,44,1
92.16834,92.30783,57,50,1
92.30783,92.44732,59,44,1
92.44732,92.60187,66,44,1
92.60187,92.70536,56,50,1
92.70536,92.80867,59,43,1
92.80867,92.91173,52,43,1
92.91173,93.01449,59,44,1
93.01449,93.11694,54,51,1
93.11694,93.21916,59,44,1
93.21916,93.32114,57,44,1
93.32114,93.422806,59,44,1
93.422806,93.52419,56,52,1
93.52419,93.62551,59,46,1
93.62551,93.72684,52,47,1
93.72684,93.82816,59,49,1
93.82816,93.92949,54,55,1
93.92949,94.03081,59,48,1
94.03081,94.13213,57,48,1
94.13213,94.24003,59,49,1
94.24003,94.34065,56,58,1
94.34065,94.44109,59,50,1
94.44109,94.54136,57,51,1
94.54136,94.64134,59,52,1
94.64134,94.74121,56,60,1
94.74121,94.84079,59,52,1
94.84079,94.9402,57,52,1
94.9402,95.039444,59,54,1
95.039444,95.13834,56,62,1
95.13834,95.23724,59,55,1
95.23724,95.33614,57,55,1
95.33614,95.435036,59,57,1
95.435036,95.533936,56,65,1
95.533936,95.632835,59,57,1
95.632835,95.731735,57,57,1
95.731735,95.84026,59,58,1
95.84026,95.93883,56,70,1
95.93883,96.03739,59,60,1
96.03739,96.13584,44,60,1
96.13584,96.23407,52,62,1
96.23407,96.332306,44,70,1
96.332306,96.43031,52,60,1
96.43031,96.52821,44,60,1
96.52821,96.62605,52,60,1
96.62605,96.723625,44,70,1
96.723625,96.82119,52,60,1
96.82119,96.918755,44,60,1
96.918755,97.01633,52,62,1
97.01633,97.11389,44,70,1
97.11389,97.21146,52,60,1
97.21146,97.30903,44,60,1
97.30903,97.41035,52,60,1
97.41035,97.505356,44,70,1
97.505356,97.600365,52,60,1
97.600365,97.69537,44,60,1
97.69537,97.79038,52,62,1
97.79038,97.88539,44,70,1
97.88539,97.9804,52,60,1
97.9804,98.07541,44,60,1
98.07541,98.17042,52,61,1
98.17042,98.26543,44,71,1
98.26543,98.360435,52,61,1
98.360435,98.455444,44,61,1
98.455444,98.55045,52,63,1
98.55045,98.64546,44,72,1
98.64546,98.74047,52,62,1
98.74047,98.83548,44,62,1
98.83548,98.93049,52,62,1
98.93049,99.0691,52,80,1
98.93049,99.0691,49,67,1
98.93049,99.0691,45,67,1
99.11607,99.25583,52,73,1
99.11607,99.25583,49,60,1
99.11607,99.25583,45,60,1
99.48919,99.63604,52,73,1
99.48919,99.63604,49,60,1
99.48919,99.63604,45,60,1
99.68498,99.823975,52,80,1
99.68498,99.823975,49,67,1
99.68498,99.823975,45,67,1
99.870705,100.00999,52,73,1
99.870705,100.00999,49,60,1
99.870705,100.00999,45,60,1
100.24307,100.38942,52,73,1
100.24307,100.38942,49,60,1
100.24307,100.38942,45,60,1
100.4382,100.577385,52,78,1
100.4382,100.577385,49,67,1
100.4382,100.577385,45,67,1
100.624504,100.76388,52,73,1
100.624504,100.76388,49,60,1
100.624504,100.76388,45,60,1
100.99666,101.14204,52,73,1
100.99666,101.14204,49,60,1
100.99666,101.14204,45,60,1
101.1905,101.32949,52,78,1
101.1905,101.32949,49,67,1
101.1905,101.32949,45,67,1
101.37651,101.51503,52,73,1
101.37651,101.51503,49,60,1
101.37651,101.51503,45,60,1
101.748634,101.900085,52,73,1
101.748634,101.900085,49,60,1
101.748634,101.900085,45,60,1
101.94932,102.08849,54,78,1
101.94932,102.08849,52,67,1
101.94932,102.08849,46,67,1
101.94932,102.08849,49,67,1
102.13547,102.27548,54,73,1
102.13547,102.27548,52,60,1
102.13547,102.27548,46,60,1
102.13547,102.27548,49,60,1
102.509224,102.6546,54,73,1
102.509224,102.6546,52,60,1
102.509224,102.6546,46,60,1
102.509224,102.6546,49,60,1
102.703064,102.842384,54,78,1
102.703064,102.842384,52,67,1
102.703064,102.842384,46,67,1
102.703064,102.842384,49,67,1
102.88921,103.029655,54,73,1
102.88921,103.029655,52,60,1
102.88921,103.029655,46,60,1
102.88921,103.029655,49,60,1
103.26355,103.40844,54,73,1
103.26355,103.40844,52,60,1
103.26355,103.40844,46,60,1
103.26355,103.40844,49,60,1
103.45674,103.5963,54,78,1
103.45674,103.5963,52,67,1
103.45674,103.5963,46,67,1
103.45674,103.5963,49,67,1
103.64327,103.78357,54,73,1
103.64327,103.78357,52,60,1
103.64327,103.78357,46,60,1
103.64327,103.78357,49,60,1
104.01644,104.16182,54,73,1
104.01644,104.16182,52,60,1
104.01644,104.16182,46,60,1
104.01644,104.16182,49,60,1
104.21028,104.34975,54,78,1
104.21028,104.34975,52,67,1
104.21028,104.34975,46,67,1
104.21028,104.34975,49,67,1
104.39677,104.53628,54,73,1
104.39677,104.53628,52,60,1
104.39677,104.53628,46,60,1
104.39677,104.53628,49,60,1
104.76911,104.914,54,73,1
104.76911,104.914,52,60,1
104.76911,104.914,46,60,1
104.76911,104.914,49,60,1
104.962296,105.05577,47,78,1
105.05577,105.14925,52,70,1
105.14925,105.24272,56,70,1
105.24272,105.3362,59,70,1
105.3362,105.43089,47,77,1
105.43089,105.52559,52,70,1
105.52559,105.620285,56,70,1
105.620285,105.71499,59,70,1
105.71499,105.808464,47,75,1
105.808464,105.90194,52,70,1
105.90194,105.995415,56,70,1
105.995415,106.08889,59,70,1
106.08889,106.18421,47,75,1
106.18421,106.27953,52,70,1
106.27953,106.374855,56,70,1
106.374855,106.46956,59,70,1
106.46956,106.56304,47,78,1
106.56304,106.65652,52,70,1
106.65652,106.74999,56,70,1
106.74999,106.84347,59,70,1
106.84347,106.93786,47,77,1
106.93786,107.03225,52,70,1
107.03225,107.12664,56,70,1
107.12664,107.22104,59,70,1
107.22104,107.314514,56,75,1
107.40799,107.501465,56,70,1
107.59494,107.68964,52,75,1
107.78433,107.87903,47,70,1
107.973724,108.0672,59,86,1
108.160675,108.25415,56,47,1
108.347626,108.4411,64,53,1
108.53458,108.62805,59,48,1
108.72153,108.81411,68,52,1
108.90669,108.999275,64,41,1
109.09186,109.18443,71,50,1
109.277016,109.3696,68,41,1
109.46218,109.55515,76,50,1
109.64833,109.7415,71,41,1
109.83468,109.92785,76,50,1
110.02103,110.1142,71,39,1
110.207375,110.300545,76,50,1
110.39392,110.487595,71,41,1
110.58158,110.67587,76,50,1
110.77047,110.86537,71,42,1
110.96059,111.05468,75,46,1
111.148155,111.24163,71,37,1
111.33501,111.42818,75,43,1
111.521255,111.614136,71,36,1
111.70692,111.79892,75,41,1
111.89146,111.983765,71,32,1
112.07655,112.16839,75,39,1
112.26114,112.352745,71,31,1
112.44506,112.53721,75,36,1
112.63033,112.721695,71,30,1
112.81465,112.9065,75,36,1
112.99845,113.09049,71,31,1
113.18283,113.276,75,36,1
113.36928,113.46275,71,29,1
113.55653,113.65051,75,36,1
113.744705,113.839096,71,30,1
113.933754,113.996506,75,37,1
113.996506,114.05874,76,32,1
114.05874,114.121666,75,36,1
114.121666,114.1838,76,31,1
114.1838,114.24717,75,36,1
114.24717,114.309746,76,33,1
114.309746,114.372345,75,37,1
114.372345,114.43566,76,33,1
114.43566,114.49773,75,37,1
114.49773,114.56023,76,33,1
114.56023,114.623,75,38,1
114.623,114.68507,76,34,1
114.68507,114.747986,75,38,1
114.747986,114.80986,76,35,1
114.80986,114.87248,75,39,1
114.87248,114.93506,76,35,1
114.93506,114.99653,75,39,1
114.99653,115.05876,76,36,1
115.05876,115.121635,75,40,1
115.121635,115.18351,76,36,1
115.18351,115.24599,75,40,1
115.24599,115.30834,76,36,1
115.30834,115.36997,75,41,1
115.36997,115.43178,76,37,1
115.43178,115.493675,75,41,1
115.493675,115.55618,76,36,1
115.55618,115.617134,75,42,1
115.617134,115.679245,76,37,1
115.679245,115.74175,75,42,1
115.74175,115.80343,76,37,1
115.80343,115.866005,75,43,1
115.866005,115.92824,76,38,1
115.92824,115.989784,75,43,1
115.989784,116.05226,76,39,1
116.05226,116.11354,75,44,1
116.11354,116.17546,76,39,1
116.17546,116.23798,75,44,1
116.23798,116.2996,76,38,1
116.2996,116.362175,75,45,1
116.362175,116.423874,76,38,1
116.423874,116.48624,75,45,1
116.48624,116.54828,76,40,1
116.54828,116.622665,75,50,1
116.622665,116.69733,76,44,1
116.69733,116.77359,75,50,1
116.77359,116.85199,73,52,1
116.85199,116.93249,75,47,1
116.93249,117.70087,76,57,1
117.70087,118.44867,71,38,1
117.70087,118.44867,74,45,1
117.70087,118.44867,68,38,1
118.44867,119.2019,69,39,1
118.44867,119.2019,72,47,1
119.2019,119.95082,68,39,1
116.93249,119.95082,64,48,1
119.2019,119.95082,74,46,1
119.2019,119.95082,71,39,1
119.95082,120.32869,72,48,1
119.95082,120.32869,69,40,1
120.70946,121.49342,69,47,1
120.70946,121.49342,57,39,1
120.70946,121.49342,60,39,1
120.70946,121.49342,66,39,1
121.49342,122.27809,67,46,1
121.49342,122.27809,64,39,1
121.49342,122.27809,59,39,1
122.27809,123.05863,59,37,1
122.27809,123.05863,66,44,1
122.27809,123.05863,63,37,1
123.05863,123.82623,64,56,1
123.82623,124.571625,56,38,1
123.82623,124.571625,59,38,1
123.82623,124.571625,62,45,1
124.571625,125.32274,60,47,1
124.571625,125.32274,57,39,1
125.32274,126.06845,56,39,1
123.05863,126.06845,52,45,1
125.32274,126.06845,62,46,1
125.32274,126.06845,59,39,1
126.06845,126.445,60,48,1
126.06845,126.445,57,48,1
126.8265,127.609245,57,47,1
126.8265,127.609245,45,39,1
126.8265,127.609245,48,39,1
126.8265,127.609245,54,39,1
127.609245,128.3939,55,46,1
127.609245,128.3939,52,39,1
127.609245,128.3939,47,39,1
128.3939,129.17711,47,37,1
128.3939,129.17711,51,37,1
128.3939,129.17711,54,44,1
129.17711,129.37491,52,37,1
129.17711,129.37491,55,44,1
129.5797,129.97394,43,42,1
129.5797,130.17107,52,51,1
130.17107,130.36818,53,49,1
130.36818,130.5653,55,51,1
130.5653,130.76938,57,55,1
129.97394,130.76938,45,42,1
130.76938,131.56056,55,35,1
130.76938,131.56056,59,41,1
131.56056,132.35176,57,39,1
131.56056,132.35176,54,33,1
130.76938,132.35176,47,35,1
132.35176,132.54956,55,44,1
132.35176,132.54956,52,37,1
132.35176,132.54956,48,37,1
132.75653,133.15213,40,42,1
132.75653,133.34993,48,51,1
133.34993,133.54773,50,49,1
133.54773,133.74553,52,51,1
133.74553,133.95177,53,55,1
133.15213,133.95177,41,42,1
133.95177,134.752,55,41,1
133.95177,134.752,52,35,1
134.752,135.55501,50,33,1
134.752,135.55501,53,39,1
133.95177,135.55501,43,35,1
135.55501,135.69522,36,25,1
135.74196,135.88217,36,22,1
135.74196,135.88217,43,26,1
135.92891,136.06824,36,22,1
135.92891,136.06824,43,26,1
136.11467,136.25398,36,22,1
136.11467,136.25398,43,27,1
136.30043,136.44095,36,22,1
136.30043,136.44095,43,27,1
136.48784,136.62851,36,23,1
136.48784,136.62851,43,28,1
136.6754,136.81516,36,23,1
136.6754,136.81516,43,28,1
136.86174,137.00151,36,24,1
136.86174,137.00151,43,29,1
137.0481,137.1882,43,30,1
137.0481,137.1882,36,25,1
137.23494,137.37515,43,27,1
137.23494,137.37515,36,22,1
137.42189,137.56165,43,28,1
137.42189,137.56165,36,23,1
137.60825,137.748,43,29,1
137.60825,137.748,36,24,1
137.79459,137.9348,43,30,1
137.79459,137.9348,36,25,1
137.98154,138.12175,43,30,1
137.98154,138.12175,36,25,1
138.16849,138.3087,45,30,1
138.16849,138.3087,36,25,1
138.35544,138.49565,45,30,1
138.35544,138.49565,36,25,1
138.54239,138.68346,43,30,1
138.54239,138.68346,35,25,1
138.73048,138.87154,43,30,1
138.73048,138.87154,35,25,1
138.91856,139.05963,43,30,1
138.91856,139.05963,35,25,1
139.10666,139.24773,43,30,1
139.10666,139.24773,35,25,1
139.29474,139.4358,43,30,1
139.29474,139.4358,35,25,1
139.48283,139.6239,43,30,1
139.48283,139.6239,35,25,1
139.67091,139.81198,43,30,1
139.67091,139.81198,35,25,1
139.85901,140.00464,43,30,1
139.85901,140.00464,35,25,1
140.05318,140.19559,43,30,1
140.05318,140.19559,35,25,1
140.24306,140.38545,43,30,1
140.24306,140.38545,35,25,1
140.43292,140.57533,43,30,1
140.43292,140.57533,35,25,1
140.6228,140.76521,43,30,1
140.6228,140.76521,35,25,1
140.81267,140.95288,43,30,1
140.81267,140.95288,35,25,1
140.99962,141.13983,43,30,1
140.99962,141.13983,35,25,1
141.18657,141.32678,43,30,1
141.18657,141.32678,35,25,1
141.37352,141.51651,43,30,1
141.37352,141.51651,35,25,1
141.56418,141.70439,34,26,1
141.56418,141.70439,41,30,1
141.75113,141.89134,34,25,1
141.75113,141.89134,41,30,1
141.93808,142.07695,34,25,1
141.93808,142.07695,41,30,1
142.12323,142.26212,34,26,1
142.12323,142.26212,41,31,1
142.3084,142.44907,34,26,1
142.3084,142.44907,41,31,1
142.49596,142.63663,34,26,1
142.49596,142.63663,41,31,1
142.68352,142.82419,34,26,1
142.68352,142.82419,41,31,1
142.87108,143.01175,34,26,1
142.87108,143.01175,41,31,1
143.05864,143.19885,41,31,1
143.05864,143.19885,34,26,1
143.24559,143.3858,41,31,1
143.24559,143.3858,34,26,1
143.43254,143.57321,41,31,1
143.43254,143.57321,34,26,1
143.6201,143.76076,41,31,1
143.6201,143.76076,34,26,1
143.80765,143.94652,41,31,1
143.80765,143.94652,34,26,1
143.99281,144.13168,41,30,1
143.99281,144.13168,34,25,1
144.17798,144.31729,43,30,1
144.17798,144.31729,34,25,1
144.36374,144.50305,43,30,1
144.36374,144.50305,34,25,1
144.5495,144.68921,41,30,1
144.5495,144.68921,33,25,1
144.7358,144.87555,41,30,1
144.7358,144.87555,33,25,1
144.92213,145.0619,41,30,1
144.92213,145.0619,33,25,1
145.10849,145.24825,41,30,1
145.10849,145.24825,33,25,1
145.29483,145.4346,41,30,1
145.29483,145.4346,33,25,1
145.48119,145.62094,41,30,1
145.48119,145.62094,33,25,1
145.66753,145.81223,41,30,1
145.66753,145.81223,33,25,1
145.86046,146.00656,41,30,1
145.86046,146.00656,33,25,1
146.05525,146.19722,41,30,1
146.05525,146.19722,32,25,1
146.24454,146.38649,41,30,1
146.24454,146.38649,32,25,1
146.4338,146.57576,41,30,1
146.4338,146.57576,32,25,1
146.62308,146.76505,41,30,1
146.62308,146.76505,32,25,1
146.81236,146.95432,41,30,1
146.81236,146.95432,32,25,1
147.00163,147.14359,41,30,1
147.00163,147.14359,32,25,1
147.19135,147.33698,41,30,1
147.19135,147.33698,32,25,1
147.38551,147.53114,41,30,1
147.38551,147.53114,32,25,1
147.5797,147.71991,41,36,1
147.5797,147.71991,31,30,1
147.76665,147.90686,41,38,1
147.76665,147.90686,31,32,1
147.9536,148.09291,41,39,1
147.9536,148.09291,31,33,1
148.13936,148.27867,41,41,1
148.13936,148.27867,31,34,1
148.32512,148.46577,41,43,1
148.32512,148.46577,31,36,1
148.51266,148.65334,41,45,1
148.51266,148.65334,31,38,1
148.70023,148.8409,41,46,1
148.70023,148.8409,32,39,1
148.88779,149.02846,41,48,1
148.88779,149.02846,32,40,1
149.07535,149.21556,41,52,1
149.07535,149.21556,31,44,1
149.2623,149.40251,41,52,1
149.2623,149.40251,31,44,1
149.44925,149.59084,41,55,1
149.44925,149.59084,32,45,1
149.63803,149.77962,41,55,1
149.63803,149.77962,32,46,1
149.82683,149.96704,41,58,1
149.82683,149.96704,31,48,1
150.01378,150.15399,41,60,1
150.01378,150.15399,31,51,1
150.20073,150.34094,41,64,1
150.20073,150.34094,32,54,1
150.38768,150.5279,41,66,1
150.38768,150.5279,32,56,1
150.57463,150.9674,41,85,1
150.57463,150.9674,31,70,1
150.9674,151.90523,55,96,1
150.9674,151.90523,43,81,1
151.90523,152.00024,57,67,1
152.00024,152.09525,59,70,1
152.09525,152.24525,60,72,1
152.49525,152.6583,55,66,1
152.49525,152.6583,43,56,1
152.93153,153.1152,51,62,1
152.93153,153.1152,39,52,1
153.42134,153.643,48,57,1
153.42134,153.643,36,48,1
154.01247,155.81699,43,54,1
154.01247,155.81699,31,46,1
155.81699,156.00394,48,30,1
156.00394,156.09663,48,31,1
156.09741,156.19089,55,26,1
156.19089,156.28299,48,31,1
156.28377,156.37663,55,27,1
156.37663,156.46875,48,31,1
156.46951,156.5624,55,27,1
156.5624,156.65451,48,31,1
156.65527,156.74815,55,26,1
156.74815,156.84026,48,31,1
156.84103,156.93391,55,27,1
156.93391,157.02661,48,31,1
157.02739,157.12086,55,27,1
157.12086,157.21356,48,31,1
157.21434,157.30782,55,25,1
155.81699,157.30782,36,30,1
157.30782,157.40051,48,31,1
157.40129,157.49477,55,26,1
157.49477,157.58746,48,31,1
157.58824,157.68172,55,26,1
157.68172,157.77353,48,31,1
157.7743,157.86688,55,27,1
157.86688,157.9587,48,31,1
157.95946,158.05205,55,27,1
158.05205,158.14386,48,31,1
158.14462,158.23721,55,26,1
158.23721,158.32901,48,31,1
158.32979,158.42236,55,27,1
158.42236,158.51492,48,31,1
158.5157,158.60918,57,27,1
158.60918,158.70187,48,31,1
158.70265,158.79613,57,25,1
158.79613,158.93634,50,31,1
158.79613,158.93634,47,26,1
158.8896,158.98308,55,25,1
158.98308,159.12329,50,31,1
158.98308,159.12329,47,26,1
159.07655,159.17003,55,25,1
159.17003,159.31024,50,31,1
159.17003,159.31024,47,26,1
159.2635,159.35698,55,25,1
159.35698,159.4972,50,31,1
159.35698,159.4972,47,26,1
159.45045,159.54393,55,25,1
159.54393,159.68414,50,31,1
159.54393,159.68414,47,26,1
159.6374,159.73088,55,25,1
159.73088,159.8711,50,31,1
159.73088,159.8711,47,26,1
159.82436,159.91783,55,25,1
159.91783,160.05804,50,31,1
159.91783,160.05804,47,26,1
160.0113,160.10478,55,25,1
160.10478,160.25041,50,31,1
160.10478,160.25041,47,26,1
160.20187,160.29895,55,25,1
160.29895,160.4409,50,31,1
160.29895,160.4409,47,26,1
160.39359,160.48824,55,25,1
160.48824,160.63019,50,31,1
160.48824,160.63019,47,26,1
160.58287,160.6775,55,25,1
160.6775,160.81946,50,31,1
160.6775,160.81946,47,26,1
160.77214,160.86678,55,25,1
160.86678,161.00873,50,31,1
160.86678,161.00873,47,26,1
160.96141,161.05605,55,25,1
161.05605,161.19801,50,31,1
161.05605,161.19801,47,26,1
161.1507,161.24533,55,25,1
161.24533,161.38728,50,31,1
161.24533,161.38728,47,26,1
161.33997,161.4346,55,25,1
161.4346,161.57655,50,31,1
161.4346,161.57655,47,26,1
161.52924,161.62387,55,25,1
161.62387,161.76828,50,31,1
161.62387,161.76828,47,26,1
161.72015,161.81642,55,25,1
161.81642,162.00337,50,33,1
162.00337,162.09607,50,34,1
162.09685,162.19032,57,28,1
162.19032,162.28214,50,34,1
162.2829,162.37549,57,29,1
162.37549,162.46729,50,34,1
162.46806,162.56064,57,29,1
162.56064,162.65245,50,34,1
162.65323,162.7458,57,28,1
162.7458,162.83762,50,34,1
162.8384,162.93097,57,29,1
162.93097,163.02428,50,34,1
163.02505,163.11914,57,30,1
163.11914,163.21245,50,35,1
163.21323,163.30731,57,28,1
161.81642,163.30731,38,33,1
163.30731,163.40001,50,35,1
163.40079,163.49426,57,29,1
163.49426,163.58696,50,35,1
163.58774,163.68121,57,29,1
163.68121,163.77332,50,35,1
163.7741,163.86697,57,30,1
163.86697,163.95908,50,35,1
163.95985,164.05273,57,30,1
164.05273,164.14583,50,36,1
164.1466,164.24069,57,29,1
164.24069,164.334,50,36,1
164.33478,164.42886,57,31,1
164.42886,164.52217,50,36,1
164.52295,164.61703,59,31,1
164.61703,164.71034,50,36,1
164.71112,164.8052,59,29,1
164.8052,164.94542,52,37,1
164.8052,164.94542,48,30,1
164.89868,164.99216,57,29,1
164.99216,165.13237,52,37,1
164.99216,165.13237,48,30,1
165.08563,165.17911,57,29,1
165.17911,165.31932,52,37,1
165.17911,165.31932,48,30,1
165.27258,165.36606,57,29,1
165.36606,165.50627,52,37,1
165.36606,165.50627,48,30,1
165.45953,165.55301,57,29,1
165.55301,165.69322,52,37,1
165.55301,165.69322,48,30,1
165.64648,165.73996,57,29,1
165.73996,165.88017,52,37,1
165.73996,165.88017,48,30,1
165.83344,165.92691,57,29,1
165.92691,166.06712,52,37,1
165.92691,166.06712,48,30,1
166.02039,166.11386,57,29,1
166.11386,166.26045,52,37,1
166.11386,166.26045,48,30,1
166.2116,166.30931,57,29,1
166.30931,166.4517,52,37,1
166.30931,166.4517,48,30,1
166.40425,166.49918,57,29,1
166.49918,166.64159,52,37,1
166.49918,166.64159,48,30,1
166.59412,166.68906,57,29,1
166.68906,166.83145,52,37,1
166.68906,166.83145,48,30,1
166.784,166.87892,57,29,1
166.87892,167.02133,52,39,1
166.87892,167.02133,48,30,1
166.97386,167.0688,57,31,1
167.0688,167.21121,52,39,1
167.0688,167.21121,48,32,1
167.16374,167.25867,57,31,1
167.25867,167.40108,52,41,1
167.25867,167.40108,48,32,1
167.3536,167.44855,57,31,1
167.44855,167.59096,52,41,1
167.44855,167.59096,48,33,1
167.54349,167.63843,57,33,1
167.63843,167.78548,52,42,1
167.63843,167.78548,48,35,1
167.73647,167.8345,57,33,1
167.8345,167.97873,52,45,1
167.8345,167.97873,48,37,1
167.93065,168.02681,58,36,1
168.02681,168.17104,52,45,1
168.02681,168.17104,48,38,1
168.12296,168.21912,58,37,1
168.21912,168.36334,52,47,1
168.21912,168.36334,48,39,1
168.31526,168.41142,58,38,1
168.41142,168.55565,52,47,1
168.41142,168.55565,48,39,1
168.50758,168.60373,58,38,1
168.60373,168.74796,52,50,1
168.60373,168.74796,48,41,1
168.69989,168.79604,58,40,1
168.79604,168.94026,52,51,1
168.79604,168.94026,48,41,1
168.8922,168.98834,58,40,1
168.98834,169.13257,52,51,1
168.98834,169.13257,48,42,1
169.0845,169.18065,58,42,1
169.18065,169.33319,52,53,1
169.18065,169.33319,48,43,1
169.28235,169.38405,58,42,1
169.38405,169.49586,47,40,1
169.47989,169.59146,51,35,1
169.57553,169.68674,54,35,1
169.67087,169.766,59,35,1
169.766,169.87662,47,41,1
169.86084,169.9712,51,35,1
169.95549,170.06549,54,35,1
170.04982,170.14386,59,35,1
170.14386,170.25323,47,39,1
170.23761,170.34698,52,35,1
170.33136,170.44073,55,35,1
170.42511,170.51886,59,35,1
170.51886,170.62823,47,40,1
170.61261,170.72198,52,35,1
170.70636,170.81573,55,35,1
170.80011,170.89377,59,35,1
170.89377,171.00282,47,40,1
170.98724,171.0963,54,35,1
171.08072,171.19003,57,35,1
171.17441,171.26819,59,35,1
171.26819,171.37764,47,40,1
171.36197,171.47173,54,35,1
171.45605,171.56581,57,35,1
171.55014,171.64441,59,35,1
171.64441,171.7548,47,40,1
171.73904,171.8497,52,35,1
171.83388,171.94469,55,35,1
171.92882,172.02405,59,35,1
172.02405,172.13531,47,40,1
172.11938,172.23085,52,35,1
172.21494,172.32664,55,35,1
172.31068,172.40672,59,35,1
172.40672,172.5186,47,40,1
172.50267,172.61409,51,35,1
172.59822,172.70918,54,35,1
172.69336,172.7881,59,35,1
172.7881,172.89821,47,40,1
172.88254,172.9922,51,35,1
172.97658,173.0858,54,35,1
173.07024,173.1635,59,35,1
173.1635,173.27255,47,40,1
173.25697,173.36603,52,35,1
173.35045,173.4595,55,35,1
173.44392,173.5374,59,35,1
173.5374,173.64645,47,41,1
173.63087,173.73993,52,35,1
173.72435,173.8334,55,35,1
173.81783,173.9113,59,35,1
173.9113,174.02036,47,40,1
174.00478,174.11383,54,35,1
174.09825,174.2073,57,35,1
174.19173,174.2852,59,35,1
174.2852,174.39426,47,40,1
174.37868,174.48773,54,36,1
174.47215,174.5812,57,36,1
174.56563,174.6591,59,36,1
174.6591,174.76816,47,42,1
174.75258,174.86163,52,36,1
174.84605,174.95511,55,37,1
174.93953,175.033,59,37,1
175.033,175.14206,47,42,1
175.12648,175.23633,52,37,1
175.21996,175.33456,55,37,1
175.31819,175.41641,59,38,1
175.41641,175.50989,47,44,1
175.50989,175.60336,51,38,1
175.60336,175.69684,53,38,1
175.69684,175.79031,59,38,1
175.79031,175.88379,58,50,1
175.88379,175.97726,59,41,1
175.97726,176.07074,55,40,1
176.07074,176.16422,52,41,1
176.16422,176.25769,47,52,1
176.25769,176.35117,51,44,1
176.35117,176.44464,54,45,1
176.44464,176.53813,59,45,1
176.53813,176.6316,58,60,1
176.6316,176.72508,59,51,1
176.72508,176.81856,55,51,1
176.81856,176.91203,52,52,1
176.91203,177.00551,47,63,1
177.00551,177.09898,51,52,1
177.09898,177.19246,54,52,1
177.19246,177.28593,59,52,1
177.28593,177.37941,47,63,1
177.37941,177.47289,52,52,1
177.47289,177.56636,55,52,1
177.56636,177.65984,59,52,1
177.65984,177.75331,47,63,1
177.75331,177.84679,51,52,1
177.84679,177.94026,54,52,1
177.94026,178.03374,59,52,1
178.03374,178.12721,47,63,1
178.12721,178.22069,52,52,1
178.22069,178.31416,55,52,1
178.31416,178.40764,59,52,1
178.40764,178.78275,59,63,1
178.40764,178.78275,47,54,1
178.40764,178.78275,51,54,1
178.40764,178.78275,54,54,1
181.04613,181.14145,35,85,1
181.14145,181.23677,39,76,1
181.23677,181.3367,42,76,1
181.3367,181.43663,47,75,1
181.43663,181.52951,35,77,1
181.62239,181.71793,47,68,1
181.81348,181.90723,37,73,1
182.00098,182.09651,49,66,1
182.19205,182.28493,39,71,1
182.3778,182.47305,51,65,1
182.9593,183.05363,39,69,1
183.14848,183.24432,51,61,1
183.34059,183.43494,40,65,1
183.53003,183.62662,52,59,1
183.72322,183.81815,42,65,1
183.91309,184.00986,54,54,1
185.27498,185.37288,42,41,1
185.47076,185.56866,54,36,1
185.66656,185.76413,44,41,1
185.86182,185.95972,56,36,1
186.05794,186.15628,45,40,1
186.25485,186.35374,57,37,1
186.45276,186.552,47,39,1
186.65158,186.75128,59,36,1
186.8512,186.95038,49,38,1
187.05072,187.15276,61,37,1
187.2565,187.36465,51,40,1
187.47969,187.60252,63,37,1
187.73663,188.63216,64,33,1
187.73663,188.63216,68,39,1
188.63216,189.07011,59,29,1
188.63216,189.07011,63,29,1
188.63216,189.07011,66,35,1
189.07011,189.52545,61,29,1
189.07011,189.52545,64,35,1
189.52545,190.40872,56,33,1
189.52545,190.40872,60,33,1
189.52545,190.40872,63,39,1
190.40872,191.31285,57,28,1
190.40872,191.31285,61,34,1
191.31285,192.21173,63,45,1
191.31285,192.21173,54,37,1
191.31285,192.21173,57,45,1
191.31285,192.21173,59,37,1
192.21173,192.6715,64,49,1
192.21173,192.6715,59,40,1
192.21173,192.6715,56,40,1
192.6715,193.18651,61,43,1
192.6715,193.18651,57,42,1
192.6715,193.18651,66,55,1
193.18651,194.11674,68,59,1
193.18651,194.11674,64,49,1
193.18651,195.06683,59,49,1
194.11674,195.06877,66,32,1
194.11674,195.06877,63,27,1
195.06877,195.94873,52,29,1
195.06877,195.94873,56,35,1
195.94873,196.37906,47,26,1
195.94873,196.37906,51,26,1
195.94873,196.37906,54,31,1
196.37906,196.8344,49,26,1
196.37906,196.8344,52,31,1
196.8344,197.71767,44,29,1
196.8344,197.71767,48,29,1
196.8344,197.71767,51,35,1
197.71767,198.6218,45,25,1
197.71767,198.6218,49,30,1
198.6218,200.40723,47,40,1
198.6218,200.40723,35,33,1
200.40723,200.85332,52,45,1
200.40723,200.85332,40,42,1
202.18336,203.05162,64,36,1
202.18336,203.05162,68,43,1
203.05162,203.47621,59,32,1
203.05162,203.47621,63,32,1
203.05162,203.47621,66,39,1
203.47621,203.92548,61,32,1
203.47621,203.92548,64,39,1
203.92548,204.797,56,36,1
203.92548,204.797,60,36,1
203.92548,204.797,63,43,1
204.797,205.6891,57,31,1
204.797,205.6891,61,38,1
205.6891,206.5672,63,47,1
205.6891,206.5672,54,39,1
205.6891,206.5672,57,47,1
205.6891,206.5672,59,39,1
206.5672,206.9965,64,53,1
206.5672,206.9965,59,45,1
206.5672,206.9965,56,45,1
206.9965,207.45105,61,49,1
206.9965,207.45105,57,49,1
206.9965,207.45105,66,59,1
207.45105,208.32257,68,65,1
207.45105,208.32257,64,53,1
208.32257,208.76329,66,53,1
208.32257,208.76329,63,45,1
208.76329,208.91663,47,44,1
208.91663,209.06995,49,43,1
207.45105,209.22136,59,53,1
209.06995,209.22328,51,41,1
209.22328,210.1024,52,37,1
209.22328,210.1024,56,45,1
210.1024,210.53098,47,33,1
210.1024,210.53098,51,33,1
210.1024,210.53098,54,41,1
210.53098,210.98024,49,33,1
210.53098,210.98024,52,41,1
210.98024,211.85176,44,37,1
210.98024,211.85176,51,37,1
210.98024,211.85176,54,49,1
210.98024,211.85176,48,37,1
211.85176,212.74387,52,32,1
211.85176,212.74387,49,39,1
211.85176,212.74387,45,39,1
212.74387,214.55669,47,55,1
212.74387,214.55669,35,46,1
214.55669,214.9899,52,60,1
214.55669,214.9899,40,50,1
214.9899,215.85857,47,74,1
215.85857,216.7227,47,74,1
216.7227,217.58844,47,74,1
217.58844,218.01616,47,73,1
218.01616,218.15701,52,73,1
218.15701,218.29785,47,67,1
218.29785,218.4387,44,69,1
218.4387,218.57954,47,73,1
218.57954,218.72038,52,69,1
218.72038,218.8673,56,69,1
218.8673,219.00914,54,73,1
219.00914,219.15099,51,69,1
219.15099,219.29283,47,69,1
219.29283,219.43468,51,73,1
219.43468,219.57652,54,69,1
219.57652,219.72398,57,69,1
219.72398,219.86583,56,73,1
219.86583,220.00768,52,67,1
220.00768,220.14952,47,69,1
220.14952,220.29137,52,73,1
220.29137,220.43321,56,69,1
220.43321,220.58067,59,69,1
220.58067,220.72252,57,73,1
220.72252,220.86436,54,69,1
220.86436,221.0124,51,69,1
221.0124,221.15375,63,73,1
221.15375,221.29509,57,69,1
221.29509,221.44313,54,69,1
221.44313,221.58397,56,64,1
221.58397,221.72482,59,56,1
221.72482,221.86566,64,56,1
221.86566,222.00652,59,64,1
222.00652,222.14735,56,57,1
222.14735,222.29427,52,57,1
222.29427,222.4351,51,64,1
222.4351,222.57594,54,56,1
222.57594,222.7168,57,56,1
222.7168,222.85764,54,64,1
222.85764,222.99849,51,57,1
222.99849,223.14484,47,58,1
223.15009,223.28993,52,64,1
223.2847,223.42456,56,56,1
223.42456,223.5644,59,56,1
223.5644,223.70427,56,64,1
223.70427,223.84413,52,57,1
223.84996,224.00456,47,57,1
223.9993,224.13966,51,64,1
224.13966,224.28001,57,56,1
224.28575,224.43858,59,56,1
224.43333,224.5732,57,64,1
224.5732,224.71306,59,57,1
224.71306,224.85292,66,58,1
224.85292,224.9923,56,64,1
224.9923,225.13165,59,55,1
225.13165,225.27103,64,55,1
225.27103,225.4104,52,62,1
225.4104,225.54977,56,55,1
225.54977,225.69612,59,54,1
225.69612,225.83502,54,59,1
225.83502,225.9739,57,51,1
225.9739,226.1128,59,51,1
226.1128,226.25168,57,57,1
226.25168,226.39056,59,51,1
226.39056,226.54512,66,51,1
226.54512,226.684,56,56,1
226.684,226.82289,59,48,1
226.82289,226.96179,64,48,1
226.96179,227.10068,52,54,1
227.10068,227.23956,56,48,1
227.23956,227.38647,59,47,1
227.38647,227.5244,54,51,1
227.5244,227.66234,57,44,1
227.66234,227.80026,59,44,1
227.80026,227.9382,57,50,1
227.9382,228.07613,59,44,1
228.07613,228.23067,66,44,1
228.23067,228.33417,56,50,1
228.33417,228.43747,59,43,1
228.43747,228.54053,52,43,1
228.54053,228.6433,59,44,1
228.6433,228.74574,54,51,1
228.74574,228.84796,59,44,1
228.84796,228.94994,57,44,1
228.94994,229.05162,59,44,1
229.05162,229.153,56,52,1
229.153,229.25432,59,46,1
229.25432,229.35564,52,47,1
229.35564,229.45697,59,49,1
229.45697,229.55829,54,55,1
229.55829,229.65962,59,48,1
229.65962,229.76094,57,48,1
229.76094,229.86884,59,49,1
229.86884,229.96945,56,58,1
229.96945,230.0699,59,50,1
230.0699,230.17017,57,51,1
230.17017,230.27014,59,52,1
230.27014,230.37001,56,60,1
230.37001,230.4696,59,52,1
230.4696,230.56902,57,52,1
230.56902,230.66824,59,54,1
230.66824,230.76715,56,62,1
230.76715,230.86604,59,55,1
230.86604,230.96495,57,55,1
230.96495,231.06384,59,57,1
231.06384,231.16275,56,65,1
231.16275,231.26164,59,57,1
231.26164,231.36053,57,57,1
231.36053,231.46907,59,58,1
231.46907,231.56763,56,70,1
231.56763,231.6662,59,60,1
231.6662,231.76465,44,60,1
231.76465,231.86287,52,62,1
231.86287,231.9611,44,70,1
231.9611,232.05911,52,60,1
232.05911,232.15701,44,60,1
232.15701,232.25487,52,60,1
232.25487,232.35243,44,70,1
232.35243,232.45,52,60,1
232.45,232.54756,44,60,1
232.54756,232.64513,52,62,1
232.64513,232.74269,44,70,1
232.74269,232.84027,52,60,1
232.84027,232.93784,44,60,1
232.93784,233.03915,52,60,1
233.03915,233.13417,44,70,1
233.13417,233.22917,52,60,1
233.22917,233.32419,44,60,1
233.32419,233.41919,52,62,1
233.41919,233.5142,44,70,1
233.5142,233.6092,52,60,1
233.6092,233.70421,44,60,1
233.70421,233.79922,52,61,1
233.79922,233.89423,44,71,1
233.89423,233.98924,52,61,1
233.98924,234.08424,44,61,1
234.08424,234.17926,52,63,1
234.17926,234.27426,44,72,1
234.27426,234.36928,52,62,1
234.36928,234.46428,44,62,1
234.46428,234.5593,52,62,1
234.5593,234.69836,52,80,1
234.5593,234.69836,49,67,1
234.5593,234.69836,45,67,1
234.74449,234.88359,52,73,1
234.74449,234.88359,49,60,1
234.74449,234.88359,45,60,1
235.11734,235.26419,52,73,1
235.11734,235.26419,49,60,1
235.11734,235.26419,45,60,1
235.31314,235.45326,52,80,1
235.31314,235.45326,49,67,1
235.31314,235.45326,45,67,1
235.5004,235.64099,52,73,1
235.5004,235.64099,49,60,1
235.5004,235.64099,45,60,1
235.87517,236.02151,52,73,1
235.87517,236.02151,49,60,1
235.87517,236.02151,45,60,1
236.0698,236.20921,52,78,1
236.0698,236.20921,49,67,1
236.0698,236.20921,45,67,1
236.2563,236.39696,52,73,1
236.2563,236.39696,49,60,1
236.2563,236.39696,45,60,1
236.63089,236.77626,52,73,1
236.63089,236.77626,49,60,1
236.63089,236.77626,45,60,1
236.82472,236.96512,52,78,1
236.82472,236.96512,49,67,1
236.82472,236.96512,45,67,1
237.0121,237.15202,52,73,1
237.0121,237.15202,49,60,1
237.0121,237.15202,45,60,1
237.38692,237.53836,52,73,1
237.38692,237.53836,49,60,1
237.38692,237.53836,45,60,1
237.58885,237.72917,54,78,1
237.58885,237.72917,52,67,1
237.58885,237.72917,46,67,1
237.58885,237.72917,49,67,1
237.77646,237.91704,54,73,1
237.77646,237.91704,52,60,1
237.77646,237.91704,46,60,1
237.77646,237.91704,49,60,1
238.1514,238.29678,54,73,1
238.1514,238.29678,52,60,1
238.1514,238.29678,46,60,1
238.1514,238.29678,49,60,1
238.34525,238.48529,54,78,1
238.34525,238.48529,52,67,1
238.34525,238.48529,46,67,1
238.34525,238.48529,49,67,1
238.53201,238.6725,54,73,1
238.53201,238.6725,52,60,1
238.53201,238.6725,46,60,1
238.53201,238.6725,49,60,1
238.90663,239.05153,54,73,1
238.90663,239.05153,52,60,1
238.90663,239.05153,46,60,1
238.90663,239.05153,49,60,1
239.09982,239.24072,54,78,1
239.09982,239.24072,52,67,1
239.09982,239.24072,46,67,1
239.09982,239.24072,49,67,1
239.28716,239.42772,54,73,1
239.28716,239.42772,52,60,1
239.28716,239.42772,46,60,1
239.28716,239.42772,49,60,1
239.66081,239.80618,54,73,1
239.66081,239.80618,52,60,1
239.66081,239.80618,46,60,1
239.66081,239.80618,49,60,1
239.85464,239.99632,54,78,1
239.85464,239.99632,52,67,1
239.85464,239.99632,46,67,1
239.85464,239.99632,49,67,1
240.04315,240.18399,54,73,1
240.04315,240.18399,52,60,1
240.04315,240.18399,46,60,1
240.04315,240.18399,49,60,1
240.41692,240.56181,54,73,1
240.41692,240.56181,52,60,1
240.41692,240.56181,46,60,1
240.41692,240.56181,49,60,1
240.6101,240.70328,47,78,1
240.70328,240.79645,52,70,1
240.79645,240.8896,56,70,1
240.8896,240.98277,59,70,1
240.98277,241.07747,47,77,1
241.07747,241.17216,52,70,1
241.17216,241.26686,56,70,1
241.26686,241.36157,59,70,1
241.36157,241.45444,47,75,1
241.45444,241.54732,52,70,1
241.54732,241.6402,56,70,1
241.6402,241.73308,59,70,1
241.73308,241.8284,47,75,1
241.8284,241.92372,52,70,1
241.92372,242.01904,56,70,1
242.01904,242.11375,59,70,1
242.11375,242.20723,47,78,1
242.20723,242.3007,52,70,1
242.3007,242.39418,56,70,1
242.39418,242.48766,59,70,1
242.48766,242.58205,47,77,1
242.58205,242.67645,52,70,1
242.67645,242.77084,56,70,1
242.77084,242.86523,59,70,1
242.86523,242.95871,56,75,1
243.05219,243.14566,56,70,1
243.23914,243.33383,52,75,1
243.42853,243.52322,47,70,1
243.61792,243.7114,59,82,1
243.80487,243.89835,56,47,1
243.99182,244.0853,64,53,1
244.17877,244.27225,59,48,1
244.36572,244.45831,68,52,1
244.55089,244.64346,64,41,1
244.73605,244.82863,71,50,1
244.92122,245.0138,68,41,1
245.10637,245.19936,76,50,1
245.29253,245.3857,71,41,1
245.47887,245.57205,76,50,1
245.66522,245.75839,71,39,1
245.85156,245.94473,76,50,1
246.03812,246.13179,71,41,1
246.22577,246.32007,76,50,1
246.41466,246.50957,71,42,1
246.60478,246.69888,75,46,1
246.79236,246.88583,71,37,1
246.9792,247.07237,75,43,1
247.16545,247.25833,71,36,1
247.3511,247.4456,75,41,1
247.53922,247.63158,71,32,1
247.72528,247.8185,75,39,1
247.90977,248.00218,71,31,1
248.09497,248.18597,75,36,1
248.27861,248.37004,71,30,1
248.46118,248.5543,75,36,1
248.64676,248.73804,71,31,1
248.83037,248.92354,75,36,1
249.01682,249.11029,71,29,1
249.20407,249.29805,75,36,1
249.39224,249.48663,71,30,1
249.5813,249.64392,75,37,1
249.64392,249.70616,76,32,1
249.70616,249.76909,75,36,1
249.76909,249.83122,76,31,1
249.83122,249.89459,75,36,1
249.89459,249.95717,76,33,1
249.95717,250.01976,75,37,1
250.01976,250.08308,76,33,1
250.08308,250.14514,75,37,1
250.14514,250.20764,76,33,1
250.20764,250.27042,75,38,1
250.27042,250.33249,76,34,1
250.33249,250.3954,75,38,1
250.3954,250.45728,76,35,1
250.45728,250.5199,75,39,1
250.5199,250.58247,76,35,1
250.58247,250.64395,75,39,1
250.64395,250.70618,76,36,1
250.70618,250.76906,75,40,1
250.76906,250.83092,76,36,1
250.83092,250.8934,75,40,1
250.8934,250.95576,76,36,1
250.95576,251.0174,75,41,1
251.0174,251.0792,76,37,1
251.0792,251.1411,75,41,1
251.1411,251.2036,76,36,1
251.2036,251.26456,75,42,1
251.26456,251.32666,76,37,1
251.32666,251.38916,75,42,1
251.38916,251.45085,76,37,1
251.45085,251.51343,75,43,1
251.51343,251.57565,76,38,1
251.57565,251.6372,75,43,1
251.6372,251.69968,76,39,1
251.69968,251.76096,75,44,1
251.76096,251.82288,76,39,1
251.82288,251.8854,75,44,1
251.8854,251.94702,76,38,1
251.94702,252.00958,75,45,1
252.00958,252.07129,76,38,1
252.07129,252.13365,75,45,1
252.13365,252.1957,76,40,1
252.1957,252.27008,75,50,1
252.27008,252.34474,76,44,1
252.34474,252.421,75,50,1
252.421,252.4994,73,52,1
252.4994,252.5799,75,47,1
252.5799,253.34828,76,57,1
253.34828,254.09608,68,38,1
253.34828,254.09608,71,38,1
253.34828,254.09608,74,45,1
254.09608,254.8466,72,47,1
254.09608,254.8466,69,39,1
254.8466,255.59554,71,39,1
252.5799,255.59554,64,48,1
254.8466,255.59554,74,46,1
254.8466,255.59554,68,39,1
255.59554,255.9734,69,40,1
255.59554,255.9734,72,48,1
256.35416,257.13812,66,39,1
256.35416,257.13812,69,47,1
256.35416,257.13812,57,39,1
256.35416,257.13812,60,39,1
257.13812,257.9228,64,39,1
257.13812,257.9228,59,39,1
257.13812,257.9228,67,46,1
257.9228,258.70334,59,37,1
257.9228,258.70334,66,44,1
257.9228,258.70334,63,37,1
258.70334,259.47095,64,56,1
259.47095,260.22333,59,38,1
259.47095,260.22333,62,45,1
259.47095,260.22333,56,38,1
260.22333,260.97644,60,47,1
260.22333,260.97644,57,39,1
260.97644,261.72214,56,39,1
258.70334,261.72214,52,45,1
260.97644,261.72214,62,46,1
260.97644,261.72214,59,39,1
261.72214,262.0987,57,48,1
261.72214,262.0987,60,48,1
262.4802,263.2553,48,39,1
262.4802,263.2553,45,39,1
262.4802,263.2553,54,39,1
262.4802,263.2553,57,47,1
263.2553,264.03595,52,39,1
263.2553,264.03595,47,39,1
263.2553,264.03595,55,46,1
264.03595,264.81915,47,37,1
264.03595,264.81915,51,37,1
264.03595,264.81915,54,44,1
264.81915,265.01697,52,37,1
264.81915,265.01697,55,44,1
265.20926,265.60352,43,42,1
265.20926,265.80063,52,51,1
265.80063,265.99774,53,49,1
265.99774,266.1949,55,51,1
266.1949,266.39896,57,55,1
265.60352,266.39896,45,42,1
266.39896,267.19012,55,35,1
266.39896,267.19012,59,41,1
267.19012,267.98132,54,33,1
267.19012,267.98132,57,39,1
266.39896,267.98132,47,35,1
267.98132,268.17914,48,37,1
267.98132,268.17914,55,44,1
267.98132,268.17914,52,37,1
268.37393,268.76953,40,42,1
268.37393,268.96732,48,51,1
268.96732,269.16513,50,49,1
269.16513,269.3629,52,51,1
269.3629,269.56915,53,55,1
268.76953,269.56915,41,42,1
269.56915,270.3694,55,41,1
269.56915,270.3694,52,35,1
270.3694,271.1724,53,39,1
270.3694,271.1724,50,33,1
269.56915,271.1724,43,35,1
271.1724,271.57147,52,44,1
271.1724,271.57147,48,37,1
271.57147,271.96707,45,42,1
271.57147,272.16486,53,51,1
272.16486,272.36267,55,49,1
272.36267,272.56046,57,51,1
272.56046,272.7667,58,55,1
271.96707,272.7667,46,42,1
272.7667,273.56693,57,35,1
272.7667,273.56693,60,41,1
273.56693,274.36993,58,39,1
273.56693,274.36993,55,33,1
272.7667,274.36993,48,35,1
274.36993,274.78244,57,44,1
274.36993,274.78244,53,37,1
274.36993,274.78244,50,37,1
274.78244,275.17804,33,42,1
274.78244,275.37585,41,51,1
275.37585,275.57364,43,49,1
275.57364,275.77142,45,51,1
275.77142,275.9777,46,55,1
275.17804,275.9777,34,42,1
275.9777,276.7779,45,35,1
275.9777,276.7779,48,41,1
276.7779,277.58093,46,39,1
276.7779,277.58093,43,33,1
275.9777,277.58093,36,35,1
277.58093,277.6744,29,25,1
277.58093,277.6744,41,28,1
277.76788,277.86136,29,22,1
277.76788,277.86136,36,26,1
277.95483,278.0477,29,22,1
277.95483,278.0477,36,26,1
278.1406,278.23346,29,22,1
278.1406,278.23346,36,27,1
278.32632,278.41995,29,22,1
278.32632,278.41995,36,27,1
278.51373,278.6075,29,23,1
278.51373,278.6075,36,28,1
278.7013,278.79446,29,23,1
278.7013,278.79446,36,28,1
278.88766,278.98083,29,24,1
278.88766,278.98083,36,29,1
279.074,279.1674,36,30,1
279.074,279.1674,29,25,1
279.26086,279.35434,36,27,1
279.26086,279.35434,29,22,1
279.4478,279.541,36,28,1
279.4478,279.541,29,23,1
279.63416,279.72733,36,29,1
279.63416,279.72733,29,24,1
279.8205,279.91397,36,30,1
279.8205,279.91397,29,25,1
280.00745,280.10092,36,30,1
280.00745,280.10092,29,25,1
280.1944,280.28787,38,30,1
280.1944,280.28787,29,25,1
280.38135,280.47482,38,30,1
280.38135,280.47482,29,25,1
280.5683,280.70853,43,30,1
280.5683,280.70853,40,25,1
280.75525,280.89548,43,30,1
280.75525,280.89548,40,25,1
280.9422,281.08243,43,30,1
280.9422,281.08243,40,25,1
281.12915,281.26938,43,30,1
281.12915,281.26938,40,25,1
281.3161,281.45633,43,30,1
281.3161,281.45633,40,25,1
281.50305,281.64328,43,30,1
281.50305,281.64328,40,25,1
281.69,281.83023,43,30,1
281.69,281.83023,40,25,1
281.87695,282.02087,43,30,1
281.87695,282.02087,40,25,1
282.06885,282.20908,43,30,1
282.06885,282.20908,39,25,1
282.2558,282.39603,43,30,1
282.2558,282.39603,39,25,1
282.44275,282.58298,43,30,1
282.44275,282.58298,39,25,1
282.6297,282.76993,43,30,1
282.6297,282.76993,39,25,1
282.81665,282.95688,43,30,1
282.81665,282.95688,39,25,1
283.0036,283.14383,43,30,1
283.0036,283.14383,39,25,1
283.19055,283.33078,43,30,1
283.19055,283.33078,39,25,1
283.3775,283.5205,43,30,1
283.3775,283.5205,39,25,1
283.56815,283.70837,45,30,1
283.56815,283.70837,38,25,1
283.7551,283.89532,45,30,1
283.7551,283.89532,38,25,1
283.94205,284.08228,45,30,1
283.94205,284.08228,38,25,1
284.129,284.267,45,30,1
284.129,284.267,38,25,1
284.313,284.4563,45,30,1
284.313,284.4563,38,25,1
284.5041,284.6474,45,30,1
284.5041,284.6474,38,25,1
284.69516,284.83847,45,30,1
284.69516,284.83847,38,25,1
284.88623,285.03284,45,30,1
284.88623,285.03284,38,25,1
285.0817,285.2219,50,30,1
285.0817,285.2219,42,25,1
285.26865,285.40884,50,30,1
285.26865,285.40884,42,25,1
285.4556,285.59402,50,30,1
285.4556,285.59402,42,25,1
285.64017,285.7786,50,30,1
285.64017,285.7786,42,25,1
285.82474,285.96713,50,30,1
285.82474,285.96713,42,25,1
286.0146,286.157,50,30,1
286.0146,286.157,42,25,1
286.20447,286.34686,50,30,1
286.20447,286.34686,42,25,1
286.39435,286.53998,50,30,1
286.39435,286.53998,42,25,1
286.58853,286.71704,43,30,1
286.682,286.77548,50,26,1
286.77548,286.90115,43,30,1
286.86688,286.95828,50,27,1
286.95828,287.08682,43,30,1
287.0518,287.14526,50,26,1
287.14526,287.27377,43,30,1
287.23874,287.3322,50,25,1
287.3322,287.45868,45,31,1
287.4242,287.51617,50,26,1
287.51617,287.64267,45,31,1
287.6082,287.70016,50,27,1
287.70016,287.8287,45,31,1
287.79364,287.88712,50,28,1
287.88712,288.01566,45,31,1
287.9806,288.07407,50,27,1
288.07407,288.2026,46,30,1
288.16754,288.26102,50,26,1
288.26102,288.38672,46,30,1
288.35242,288.44385,50,27,1
288.44385,288.57236,46,30,1
288.53732,288.6308,50,26,1
288.6308,288.76147,46,30,1
288.72427,288.82352,50,25,1
288.82352,288.94998,42,31,1
288.9155,289.00748,50,26,1
289.00748,289.13397,42,31,1
289.0995,289.19147,50,27,1
289.19147,289.32,42,31,1
289.28494,289.37842,50,28,1
289.37842,289.50696,42,31,1
289.4719,289.56537,50,27,1
289.56537,289.6939,43,31,1
289.65884,289.75232,50,27,1
289.75232,289.87802,43,31,1
289.84375,289.93515,50,29,1
289.93515,290.0637,43,32,1
290.02863,290.1221,50,28,1
290.1221,290.25064,43,34,1
290.21558,290.30905,50,29,1
290.30905,290.43555,45,36,1
290.40103,290.49304,50,31,1
290.49304,290.6195,45,38,1
290.58502,290.677,50,35,1
290.677,290.80554,45,40,1
290.77048,290.86395,50,37,1
290.86395,290.9925,45,43,1
290.95743,291.0509,50,38,1
291.0509,291.1774,46,45,1
291.1429,291.2349,50,39,1
291.2349,291.3614,46,48,1
291.3269,291.41888,50,42,1
291.41888,291.55368,46,50,1
291.5169,291.61496,55,46,1
291.61496,291.7556,46,54,1
291.71597,291.82172,55,51,1
291.82172,291.9482,47,64,1
291.91373,292.0057,55,53,1
292.0057,292.1322,47,64,1
292.0977,292.1897,55,56,1
292.1897,292.3182,47,66,1
292.28317,292.37665,55,59,1
292.37665,292.50516,47,66,1
292.47012,292.5636,55,57,1
292.5636,292.6921,48,30,1
292.65707,292.75055,55,26,1
292.75055,292.87625,48,30,1
292.84195,292.93338,55,27,1
292.93338,293.0619,48,30,1
293.02686,293.12033,55,26,1
293.12033,293.24884,48,30,1
293.2138,293.30728,55,25,1
293.30728,293.43375,50,31,1
293.39926,293.49124,55,26,1
293.49124,293.61774,50,31,1
293.58325,293.67523,55,27,1
293.67523,293.80377,50,31,1
293.7687,293.86218,55,28,1
293.86218,293.99072,50,31,1
293.95566,294.04913,55,27,1
294.04913,294.17767,51,30,1
294.1426,294.23608,55,26,1
294.23608,294.3618,51,30,1
294.3275,294.4189,55,27,1
294.4189,294.55112,51,30,1
294.51508,294.61124,55,26,1
294.61124,294.7459,51,30,1
294.70737,294.81012,55,25,1
294.81012,294.9366,47,31,1
294.9021,294.9941,55,26,1
294.9941,295.12057,47,31,1
295.0861,295.17807,55,27,1
295.17807,295.3066,47,31,1
295.27155,295.36502,55,28,1
295.36502,295.49356,47,31,1
295.4585,295.55197,55,27,1
295.55197,295.6805,48,31,1
295.64545,295.73892,55,27,1
295.73892,295.86462,48,31,1
295.83035,295.92175,55,29,1
295.92175,296.0503,48,32,1
296.01523,296.1087,55,28,1
296.1087,296.23724,48,34,1
296.20218,296.29565,55,29,1
296.29565,296.42215,50,36,1
296.38766,296.47964,55,31,1
296.47964,296.60614,50,38,1
296.57162,296.66364,55,35,1
296.66364,296.79214,50,40,1
296.7571,296.8506,55,37,1
296.8506,296.9791,50,43,1
296.94406,297.03754,55,38,1
297.03754,297.164,51,45,1
297.12952,297.2215,55,39,1
297.2215,297.348,51,48,1
297.3135,297.4055,55,42,1
297.4055,297.53897,51,50,1
297.50256,297.59967,60,46,1
297.59967,297.7417,51,54,1
297.70206,297.8078,60,47,1
297.8078,297.9343,52,64,1
297.8998,297.9918,60,53,1
297.9918,298.1183,52,64,1
298.0838,298.17578,60,56,1
298.17578,298.30432,52,66,1
298.26926,298.36273,60,59,1
298.36273,298.51657,52,66,1
298.4562,298.6172,60,57,1
298.6172,298.7128,53,25,1
298.7128,298.80838,56,22,1
298.80838,298.9019,60,22,1
298.9019,298.99536,65,22,1
298.99536,299.09097,53,25,1
299.09097,299.18655,56,22,1
299.18655,299.28217,60,22,1
299.28217,299.37775,65,22,1
299.37775,299.47183,53,26,1
299.47183,299.56592,58,22,1
299.56592,299.66,61,22,1
299.66,299.7541,65,22,1
299.7541,299.8497,53,26,1
299.8497,299.94528,58,23,1
299.94528,300.0409,61,22,1
300.0409,300.13647,65,22,1
300.13647,300.2321,52,25,1
300.2321,300.32767,54,22,1
300.32767,300.42114,58,22,1
300.42114,300.51465,61,22,1
300.51465,300.61023,52,25,1
300.61023,300.70584,54,22,1
300.70584,300.80142,58,22,1
300.80142,300.92755,61,22,1
300.92755,301.02164,51,26,1
301.02164,301.11572,54,22,1
301.11572,301.2098,59,22,1
301.2098,301.3039,63,22,1
301.3039,301.39948,51,26,1
301.39948,301.4951,54,23,1
301.4951,301.59067,59,22,1
301.59067,301.74747,63,22,1
301.74747,301.84387,51,25,1
301.84387,301.94028,53,22,1
301.94028,302.03455,57,22,1
302.03455,302.12885,60,22,1
302.12885,302.22522,51,25,1
302.22522,302.32162,53,22,1
302.32162,302.41803,57,22,1
302.41803,302.51443,60,22,1
302.51443,302.6093,49,26,1
302.6093,302.7042,53,22,1
302.7042,302.79904,58,22,1
302.79904,302.89392,61,22,1
302.89392,302.99033,49,26,1
302.99033,303.08673,53,23,1
303.08673,303.18314,58,22,1
303.18314,303.2795,61,22,1
303.2795,303.37592,49,25,1
303.37592,303.47232,51,22,1
303.47232,303.5666,55,22,1
303.5666,303.6609,58,22,1
303.6609,303.75726,49,25,1
303.75726,303.85367,51,22,1
303.85367,303.95007,55,22,1
303.95007,304.07724,58,22,1
304.07724,304.17212,48,26,1
304.17212,304.267,51,22,1
304.267,304.36188,56,22,1
304.36188,304.45673,60,22,1
304.45673,304.55313,48,26,1
304.55313,304.64954,51,23,1
304.64954,304.74594,56,22,1
304.74594,304.84235,60,22,1
304.84235,304.93875,47,25,1
304.93875,305.03513,49,22,1
305.03513,305.12943,53,22,1
305.12943,305.2237,56,22,1
305.2237,305.3201,47,25,1
305.3201,305.4165,49,22,1
305.4165,305.51288,53,22,1
305.51288,305.60928,56,22,1
305.60928,305.70416,46,26,1
305.70416,305.79904,49,22,1
305.79904,305.8939,54,22,1
305.8939,305.98877,58,22,1
305.98877,306.08517,46,26,1
306.08517,306.18158,49,23,1
306.18158,306.27798,54,22,1
306.27798,306.3744,58,22,1
306.3744,306.4708,46,26,1
306.4708,306.56717,48,23,1
306.56717,306.66147,52,23,1
306.66147,306.75574,55,23,1
306.75574,306.85214,46,26,1
306.85214,306.94855,48,23,1
306.94855,307.04492,52,23,1
307.04492,307.17212,55,23,1
307.17212,307.26697,44,27,1
307.26697,307.36185,48,23,1
307.36185,307.45673,53,23,1
307.45673,307.55157,56,23,1
307.55157,307.64798,44,28,1
307.64798,307.7444,48,25,1
307.7444,307.8408,53,23,1
307.8408,307.9372,56,23,1
307.9372,308.0336,43,32,1
308.0336,308.13,46,28,1
308.13,308.22427,52,28,1
308.22427,308.31854,55,29,1
308.31854,308.41495,43,34,1
308.41495,308.51135,46,29,1
308.51135,308.60776,52,31,1
308.60776,308.73492,55,32,1
308.73492,308.8298,41,39,1
308.8298,308.92465,44,33,1
308.92465,309.01953,48,33,1
309.01953,309.1144,53,34,1
309.1144,309.24295,41,41,1
309.24295,309.37146,44,35,1
309.37146,309.5,53,36,1
309.5,309.63278,40,44,1
309.63278,309.76422,43,45,1
309.76422,309.89432,52,47,1
309.89432,310.0266,39,47,1
310.0266,310.15894,43,49,1
310.15894,310.29126,51,51,1
310.29126,310.42358,38,54,1
310.42358,310.5559,41,53,1
310.5559,310.68823,50,56,1
310.68823,310.82474,37,56,1
310.82474,310.96732,41,58,1
310.96732,311.11594,49,59,1
311.11594,311.2528,48,70,1
311.11594,311.2528,36,66,1
311.2528,311.38968,43,61,1
311.38968,311.52658,40,62,1
311.52658,311.66345,43,70,1
311.66345,311.80035,48,63,1
311.80035,311.9414,52,64,1
311.9414,312.0788,50,70,1
312.0788,312.2162,47,63,1
312.2162,312.3578,43,64,1
312.3578,312.49417,47,70,1
312.49417,312.63052,50,65,1
312.63052,312.77213,53,65,1
312.77213,312.90463,52,64,1
312.90463,313.03717,55,56,1
313.03717,313.16968,60,56,1
313.16968,313.3022,55,64,1
313.3022,313.4347,52,57,1
313.4347,313.57397,48,57,1
313.57397,313.70694,53,64,1
313.70694,313.8399,56,56,1
313.8399,313.9729,60,56,1
313.9729,314.10587,56,64,1
314.10587,314.23883,53,57,1
314.23883,314.3776,48,58,1
314.50964,314.77374,58,56,1
314.3776,314.90582,55,64,1
315.03787,317.5661,48,57,1
314.6417,317.5661,60,56,1
314.77374,317.5661,58,64,1
314.90582,317.5661,55,57,1
317.5661,317.70178,53,70,1
317.5661,317.70178,41,66,1
317.70178,317.83743,48,61,1
317.83743,317.9731,45,62,1
317.9731,318.1088,48,70,1
318.1088,318.24448,53,63,1
318.24448,318.3843,57,64,1
318.3843,318.52048,55,70,1
318.52048,318.65665,52,63,1
318.65665,318.797,48,64,1
318.797,318.93216,52,70,1
318.93216,319.06732,55,65,1
319.06732,319.20767,58,65,1
319.20767,319.34018,57,64,1
319.34018,319.4727,60,56,1
319.4727,319.6052,65,56,1
319.6052,319.73773,60,64,1
319.73773,319.87024,57,57,1
319.87024,320.00952,53,57,1
320.00952,320.1425,58,64,1
320.1425,320.27545,61,56,1
320.27545,320.40842,65,56,1
320.40842,320.54138,61,64,1
320.54138,320.67438,58,57,1
320.67438,320.8131,53,58,1
320.9452,321.2093,63,56,1
320.8131,321.34134,60,64,1
321.4734,324.00162,53,57,1
321.07724,324.00162,65,56,1
321.2093,324.00162,63,64,1
321.34134,324.00162,60,57,1
324.00162,324.1373,46,70,1
324.00162,324.1373,34,66,1
324.1373,324.27298,41,61,1
324.27298,324.40866,38,62,1
324.40866,324.54434,41,70,1
324.54434,324.68002,46,63,1
324.68002,324.81982,50,64,1
324.81982,324.956,48,70,1
324.956,325.0922,45,63,1
325.0922,325.23254,41,64,1
325.23254,325.3677,45,70,1
325.3677,325.50287,48,65,1
325.50287,325.64322,51,65,1
325.64322,325.77573,50,64,1
325.77573,325.90823,53,56,1
325.90823,326.04074,58,56,1
326.04074,326.17325,53,64,1
326.17325,326.30576,50,57,1
326.30576,326.44504,46,57,1
326.44504,326.57803,51,64,1
326.57803,326.711,54,56,1
326.711,326.84396,58,56,1
326.84396,326.97693,54,64,1
326.97693,327.1099,51,57,1
327.1099,327.24866,46,58,1
327.3807,327.64484,56,56,1
327.24866,327.7769,53,64,1
327.90894,330.4492,46,57,1
327.51276,330.4492,58,56,1
327.64484,330.4492,56,64,1
327.7769,330.4492,53,57,1
330.58124,330.84534,54,56,1
330.4492,330.9774,51,64,1
331.10947,333.63574,46,57,1
330.7133,333.63574,58,56,1
330.84534,333.63574,54,64,1
330.9774,333.63574,51,57,1
333.7678,334.0319,54,56,1
333.63574,334.16397,49,64,1
334.29602,336.8223,46,57,1
333.89984,336.8223,58,56,1
334.0319,336.8223,54,64,1
334.16397,336.8223,49,57,1
336.95435,337.21844,54,56,1
336.8223,337.35052,50,64,1
337.48257,340.00885,47,57,1
337.0864,340.00885,59,56,1
337.21844,340.00885,54,64,1
337.35052,340.00885,50,57,1
340.1409,340.40503,55,56,1
340.00885,340.53708,50,64,1
340.66913,343.1954,47,57,1
340.27295,343.1954,59,56,1
340.40503,343.1954,55,64,1
340.53708,343.1954,50,57,1
343.32745,343.59158,55,56,1
343.1954,343.72363,51,64,1
343.85568,346.38196,48,57,1
343.4595,346.38196,60,56,1
343.59158,346.38196,55,64,1
343.72363,346.38196,51,57,1
346.514,346.77814,61,56,1
346.38196,346.9102,56,64,1
347.04224,347.96802,53,57,1
346.64606,347.96802,65,56,1
346.77814,347.96802,61,64,1
346.9102,347.96802,56,57,1
348.10007,348.36417,63,56,1
347.96802,348.49622,60,64,1
348.36417,348.76035,63,64,1
348.23212,349.55405,66,56,1
348.49622,349.55405,60,57,1
348.6283,349.55405,54,57,1
349.6861,349.95004,62,61,1
349.55405,350.08078,59,70,1
350.08078,350.76547,59,62,1
349.81818,350.76547,67,61,1
349.95004,350.76547,62,70,1
350.76547,351.1725,62,36,1
351.1725,351.5788,59,41,1
350.2115,351.5788,55,62,1
351.98514,352.39044,60,36,1
352.39044,352.82056,66,36,1
351.5788,352.82056,55,36,1
352.9526,353.21655,50,55,1
352.82056,353.34726,47,62,1
353.08466,353.8696,55,55,1
353.21655,354.03198,50,62,1
353.34726,354.03198,47,56,1
354.03198,354.43896,50,32,1
354.43896,354.8453,47,36,1
353.478,354.8453,43,56,1
355.25165,355.65695,48,32,1
355.65695,356.06122,54,32,1
356.06122,356.25998,55,36,1
354.8453,356.25998,43,32,1
356.46756,356.87732,48,32,1
356.87732,357.28894,43,31,1
357.28894,357.703,36,30,1
357.703,358.1201,31,33,1
358.1201,358.54065,36,28,1
358.54065,358.96222,31,27,1
358.96222,359.3885,36,26,1
359.3885,359.48843,31,37,1
359.48843,359.58835,36,33,1
359.58835,359.6883,35,33,1
359.6883,359.7882,33,33,1
359.7882,359.88812,31,37,1
359.88812,359.98807,36,33,1
359.98807,360.08798,35,33,1
360.08798,360.18793,33,33,1
360.18793,360.28784,31,37,1
360.28784,360.38776,36,33,1
360.38776,360.4877,35,33,1
360.4877,360.58762,33,33,1
360.58762,360.68756,31,37,1
360.68756,360.78748,36,33,1
360.78748,360.8874,35,33,1
360.8874,360.9866,33,33,1
360.9866,362.70016,31,33,1
362.70016,362.80008,36,33,1
362.80008,362.9,35,33,1
362.9,362.99994,33,33,1
362.99994,363.09985,31,37,1
363.09985,363.1998,36,33,1
363.1998,363.2997,35,33,1
363.2997,363.39963,33,33,1
363.39963,363.49957,31,37,1
363.49957,363.5995,36,33,1
363.5995,363.69943,35,33,1
363.69943,363.79935,33,33,1
363.79935,363.89926,31,37,1
363.89926,363.9992,36,33,1
363.9992,364.09912,35,33,1
364.09912,364.19907,33,33,1
364.19907,365.90482,31,33,1
365.90482,366.00473,36,33,1
366.00473,366.10468,35,33,1
366.10468,366.2046,33,33,1
366.2046,366.3045,31,37,1
366.3045,366.40445,36,33,1
366.40445,366.50436,35,33,1
366.50436,366.6043,33,33,1
366.6043,366.70422,31,38,1
366.70422,366.80414,36,33,1
366.80414,366.90408,35,34,1
366.90408,367.004,33,34,1
367.004,367.10394,31,38,1
367.10394,367.20386,36,34,1
367.20386,367.30377,35,34,1
367.30377,367.40372,33,34,1
367.40372,367.50296,31,39,1
367.50296,367.60217,36,35,1
367.60217,367.70142,35,35,1
367.70142,367.80066,33,35,1
367.80066,367.8999,31,39,1
367.8999,367.99915,36,35,1
367.99915,368.0951,35,35,1
368.0951,368.19104,33,35,1
368.19104,368.29028,31,40,1
368.29028,368.38953,36,36,1
368.38953,368.48547,35,36,1
368.48547,368.58142,33,36,1
368.58142,368.68066,31,40,1
368.68066,368.7799,36,36,1
368.7799,368.87585,35,36,1
368.87585,368.9718,33,36,1
368.9718,369.07104,31,41,1
369.07104,369.1703,36,36,1
369.1703,369.26953,35,37,1
369.26953,369.36877,33,37,1
369.36877,369.46802,31,42,1
369.46802,369.56723,36,37,1
369.56723,369.66257,35,37,1
369.66257,369.75787,33,37,1
369.75787,369.85712,31,42,1
369.85712,369.95636,36,38,1
369.95636,370.0556,35,38,1
370.0556,370.15485,33,38,1
370.15485,370.2541,31,44,1
370.2541,370.35333,36,38,1
370.35333,370.44803,35,38,1
370.44803,370.54272,33,38,1
370.54272,370.64127,31,44,1
370.64127,370.73984,36,39,1
370.73984,370.8384,35,39,1
370.8384,370.93695,33,39,1
370.93695,371.03552,31,45,1
371.03552,371.1341,36,39,1
371.1341,371.2285,35,39,1
371.2285,371.32288,33,39,1
371.32288,371.42142,31,45,1
371.42142,371.52,36,39,1
371.52,371.61438,35,40,1
371.61438,371.70877,33,40,1
371.70877,371.807,31,46,1
371.807,371.90524,36,40,1
371.90524,371.99933,35,40,1
371.99933,372.0934,33,40,1
372.0934,372.19165,31,46,1
372.19165,372.2899,36,41,1
372.2899,372.3881,35,41,1
372.3881,372.48633,33,41,1
372.48633,372.58456,31,47,1
372.58456,372.6828,36,41,1
372.6828,372.77597,35,41,1
372.77597,372.86914,33,41,1
372.86914,372.96738,31,48,1
372.96738,373.0656,36,42,1
373.0656,373.16385,35,42,1
373.16385,373.2621,33,42,1
373.2621,373.36032,31,48,1
373.36032,373.45853,36,42,1
373.45853,373.55112,35,42,1
373.55112,373.6437,33,42,1
373.6437,373.74194,31,49,1
373.74194,373.84018,36,42,1
373.84018,373.9384,35,44,1
373.9384,374.03662,33,44,1
374.03662,374.13354,31,49,1
374.13354,374.23047,36,44,1
374.23047,374.32187,35,44,1
374.32187,374.4133,33,44,1
374.4133,374.51022,31,50,1
374.51022,374.60712,36,45,1
374.60712,374.69824,35,45,1
374.69824,374.78937,33,45,1
374.78937,374.88596,31,50,1
374.88596,374.98257,36,45,1
374.98257,375.07312,35,45,1
375.07312,375.16367,33,45,1
375.16367,375.26028,31,51,1
375.26028,375.35687,36,46,1
375.35687,375.45346,35,46,1
375.45346,375.55005,33,46,1
375.55005,375.646,31,52,1
375.646,375.74194,36,47,1
375.74194,375.83252,35,48,1
375.83252,375.92307,33,48,1
375.92307,376.0184,31,54,1
376.0184,376.1137,37,49,1
376.1137,376.20905,35,49,1
376.20905,376.30435,33,50,1
376.30435,376.3997,31,56,1
376.3997,376.495,37,51,1
376.495,376.58557,35,51,1
376.58557,376.67612,33,51,1
376.67612,376.78696,31,57,1
376.77112,376.8812,38,52,1
376.86615,376.97147,35,52,1
376.95642,377.06253,33,53,1
377.0467,377.15753,31,59,1
377.1417,377.2518,38,54,1
377.2367,377.34235,35,54,1
377.32727,377.43365,33,54,1
377.41782,377.52866,31,61,1
377.51282,377.62292,38,55,1
377.60785,377.7135,35,56,1
377.6984,377.80478,33,56,1
377.78894,377.8998,31,63,1
377.88397,377.99402,38,57,1
377.97897,378.0843,35,57,1
378.06924,378.17456,33,57,1
378.15952,378.2649,31,67,1
378.2498,378.3556,33,66,1
378.34045,378.44656,35,65,1
378.43137,378.53793,36,63,1
378.5227,378.62964,38,62,1
378.6143,378.72168,36,63,1
378.7063,378.81412,35,64,1
378.79868,378.90683,33,66,1
378.89136,378.99997,31,66,1
378.98444,379.093,33,65,1
379.0775,379.18573,35,64,1
379.1703,379.27814,36,64,1
379.26276,379.3703,38,61,1
379.35495,379.46213,36,63,1
379.44684,379.55383,35,65,1
379.53854,379.6454,33,67,1
379.63016,379.82846,31,69,1
379.81317,379.92023,33,66,1
379.90488,380.0122,35,65,1
379.9969,380.10434,36,64,1
380.08896,380.19662,38,63,1
380.18124,380.28915,40,63,1
380.27374,380.38205,41,62,1
380.36652,380.47522,43,61,1
380.4597,380.56854,45,60,1
380.55295,380.66202,47,59,1
380.64642,380.75574,48,58,1
380.7401,380.84958,50,57,1
380.8339,380.94366,52,56,1
380.92798,381.0379,53,55,1
381.02216,381.13214,55,55,1
381.11655,381.3035,48,54,1
381.3035,381.44373,36,22,1
381.3035,381.44373,43,26,1
381.49045,381.6298,36,22,1
381.49045,381.6298,43,26,1
381.6762,381.81555,36,22,1
381.6762,381.81555,43,27,1
381.86197,382.0025,36,22,1
381.86197,382.0025,43,27,1
382.04938,382.19006,36,23,1
382.04938,382.19006,43,28,1
382.23694,382.3767,36,23,1
382.23694,382.3767,43,28,1
382.42328,382.56305,36,24,1
382.42328,382.56305,43,29,1
382.60965,382.74976,43,30,1
382.60965,382.74976,36,25,1
382.79648,382.9367,43,27,1
382.79648,382.9367,36,22,1
382.98343,383.1232,43,28,1
382.98343,383.1232,36,23,1
383.1698,383.30954,43,29,1
383.1698,383.30954,36,24,1
383.35614,383.49634,43,30,1
383.35614,383.49634,36,25,1
383.5431,383.6833,43,30,1
383.5431,383.6833,36,25,1
383.73004,383.87024,45,30,1
383.73004,383.87024,36,25,1
383.917,384.0572,45,30,1
383.917,384.0572,36,25,1
384.10394,384.24414,43,30,1
384.10394,384.24414,35,25,1
384.2909,384.4311,43,30,1
384.2909,384.4311,35,25,1
384.47784,384.61804,43,30,1
384.47784,384.61804,35,25,1
384.6648,384.805,43,30,1
384.6648,384.805,35,25,1
384.85175,384.99194,43,30,1
384.85175,384.99194,35,25,1
385.0387,385.1789,43,30,1
385.0387,385.1789,35,25,1
385.22565,385.36584,43,30,1
385.22565,385.36584,35,25,1
385.4126,385.55652,43,30,1
385.4126,385.55652,35,25,1
385.6045,385.74472,43,30,1
385.6045,385.74472,35,25,1
385.79144,385.93167,43,30,1
385.79144,385.93167,35,25,1
385.9784,386.11862,43,30,1
385.9784,386.11862,35,25,1
386.16534,386.30557,43,30,1
386.16534,386.30557,35,25,1
386.3523,386.49252,43,30,1
386.3523,386.49252,35,25,1
386.53925,386.67947,43,30,1
386.53925,386.67947,35,25,1
386.7262,386.86642,43,30,1
386.7262,386.86642,35,25,1
386.91315,387.05615,43,30,1
386.91315,387.05615,35,25,1
387.1038,387.24402,34,26,1
387.1038,387.24402,41,30,1
387.29074,387.43097,34,25,1
387.29074,387.43097,41,30,1
387.4777,387.61658,34,25,1
387.4777,387.61658,41,30,1
387.66287,387.80173,34,26,1
387.66287,387.80173,41,31,1
387.84802,387.9887,34,26,1
387.84802,387.9887,41,31,1
388.03558,388.17627,34,26,1
388.03558,388.17627,41,31,1
388.22314,388.3638,34,26,1
388.22314,388.3638,41,31,1
388.4107,388.55136,34,26,1
388.4107,388.55136,41,31,1
388.59827,388.73846,41,31,1
388.59827,388.73846,34,26,1
388.78522,388.9254,41,31,1
388.78522,388.9254,34,26,1
388.97217,389.11282,41,31,1
388.97217,389.11282,34,26,1
389.15973,389.30038,41,31,1
389.15973,389.30038,34,26,1
389.3473,389.48615,41,31,1
389.3473,389.48615,34,26,1
389.53244,389.67133,41,30,1
389.53244,389.67133,34,25,1
389.7176,389.85693,43,30,1
389.7176,389.85693,34,25,1
389.90335,390.0427,43,30,1
389.90335,390.0427,34,25,1
390.0891,390.22882,41,30,1
390.0891,390.22882,33,25,1
390.27542,390.4152,41,30,1
390.27542,390.4152,33,25,1
390.46176,390.60153,41,30,1
390.46176,390.60153,33,25,1
390.6481,390.78787,41,30,1
390.6481,390.78787,33,25,1
390.83447,390.9742,41,30,1
390.83447,390.9742,33,25,1
391.0208,391.16058,41,30,1
391.0208,391.16058,33,25,1
391.20715,391.34692,41,30,1
391.20715,391.34692,33,25,1
391.3935,391.53696,41,30,1
391.3935,391.53696,33,25,1
391.58478,391.725,41,30,1
391.58478,391.725,32,25,1
391.77173,391.91196,41,30,1
391.77173,391.91196,32,25,1
391.95868,392.0989,41,30,1
391.95868,392.0989,32,25,1
392.14563,392.28586,41,30,1
392.14563,392.28586,32,25,1
392.33258,392.4728,41,30,1
392.33258,392.4728,32,25,1
392.51953,392.65976,41,30,1
392.51953,392.65976,32,25,1
392.7073,392.85123,41,30,1
392.7073,392.85123,32,25,1
392.8992,393.04315,41,30,1
392.8992,393.04315,32,25,1
393.09113,393.23132,41,36,1
393.09113,393.23132,31,30,1
393.27808,393.41827,41,38,1
393.27808,393.41827,31,32,1
393.46503,393.60434,41,39,1
393.46503,393.60434,31,33,1
393.6508,393.7901,41,41,1
393.6508,393.7901,31,34,1
393.83655,393.9772,41,43,1
393.83655,393.9772,31,36,1
394.02408,394.16476,41,45,1
394.02408,394.16476,31,38,1
394.21164,394.35233,41,46,1
394.21164,394.35233,32,39,1
394.3992,394.5399,41,48,1
394.3992,394.5399,32,40,1
394.58676,394.727,41,52,1
394.58676,394.727,31,44,1
394.7737,394.91394,41,52,1
394.7737,394.91394,31,44,1
394.96066,395.10226,41,55,1
394.96066,395.10226,32,45,1
395.14944,395.29105,41,55,1
395.14944,395.29105,32,46,1
395.33823,395.47845,41,58,1
395.33823,395.47845,31,48,1
395.52518,395.6654,41,60,1
395.52518,395.6654,31,51,1
395.71213,395.85236,41,64,1
395.71213,395.85236,32,54,1
395.8991,396.0393,41,66,1
395.8991,396.0393,32,56,1
396.08606,396.47882,41,85,1
396.09073,396.48352,31,70,1
396.47882,397.41666,55,96,1
396.47882,397.41666,43,81,1
397.41666,397.51166,57,67,1
397.51166,397.60666,59,70,1
397.60666,397.75922,60,72,1
398.01346,398.1789,55,66,1
398.01346,398.1789,43,56,1
398.45462,398.6339,51,62,1
398.45462,398.6339,39,52,1
398.9327,399.1683,48,57,1
398.9327,399.1683,36,48,1
399.56097,401.4691,44,54,1
399.56097,401.4691,32,46,1
401.4691,401.62808,61,37,1
401.8931,402.0662,56,33,1
402.35464,402.55115,53,32,1
402.87866,403.13147,49,29,1
403.55283,405.47665,46,29,1
403.55283,405.47665,34,24,1
405.47665,405.61966,63,41,1
405.85797,406.00095,58,37,1
406.23926,406.38223,55,37,1
406.62054,406.7664,51,37,1
407.0095,407.15247,53,35,1
407.39078,407.53284,56,38,1
407.76956,407.91257,57,39,1
408.15088,408.2972,54,37,1
408.54114,408.68698,55,46,1
408.93008,409.07843,54,44,1
409.32568,409.47205,55,60,1
409.71594,409.86533,43,56,1
410.13852,410.32547,48,70,1
410.32547,410.41818,48,31,1
410.41895,410.51242,55,26,1
410.51242,410.60455,48,31,1
410.60532,410.69818,55,27,1
410.69818,410.79028,48,31,1
410.79108,410.88394,55,27,1
410.88394,410.97604,48,31,1
410.97684,411.0697,55,26,1
411.0697,411.1618,48,31,1
411.1626,411.25546,55,27,1
411.25546,411.34818,48,31,1
411.34894,411.4424,55,27,1
411.4424,411.53513,48,31,1
411.5359,411.62936,55,25,1
410.13852,411.62936,36,70,1
411.62936,411.72208,48,31,1
411.72284,411.8163,55,26,1
411.8163,411.90903,48,31,1
411.9098,412.00327,55,26,1
412.00327,412.0951,48,31,1
412.09586,412.18845,55,27,1
412.18845,412.28024,48,31,1
412.281,412.3736,55,27,1
412.3736,412.4654,48,31,1
412.4662,412.55875,55,26,1
412.55875,412.65057,48,31,1
412.65134,412.74393,55,27,1
412.74393,412.83646,48,31,1
412.83725,412.93073,57,27,1
412.93073,413.0234,48,31,1
413.0242,413.11768,57,25,1
413.11768,413.25787,50,31,1
413.11768,413.25787,47,26,1
413.21115,413.30463,55,25,1
413.30463,413.44482,50,31,1
413.30463,413.44482,47,26,1
413.3981,413.49158,55,25,1
413.49158,413.63177,50,31,1
413.49158,413.63177,47,26,1
413.58505,413.67853,55,25,1
413.67853,413.81873,50,31,1
413.67853,413.81873,47,26,1
413.772,413.86548,55,25,1
413.86548,414.00568,50,31,1
413.86548,414.00568,47,26,1
413.95895,414.05243,55,25,1
414.05243,414.19266,50,31,1
414.05243,414.19266,47,26,1
414.1459,414.23938,55,25,1
414.23938,414.3796,50,31,1
414.23938,414.3796,47,26,1
414.33286,414.42633,55,25,1
414.42633,414.57025,50,31,1
414.42633,414.57025,47,26,1
414.52228,414.61823,55,25,1
414.61823,414.75845,50,31,1
414.61823,414.75845,47,26,1
414.7117,414.80518,55,25,1
414.80518,414.9454,50,31,1
414.80518,414.9454,47,26,1
414.89865,414.99213,55,25,1
414.99213,415.13235,50,31,1
414.99213,415.13235,47,26,1
415.0856,415.17908,55,25,1
415.17908,415.3193,50,31,1
415.17908,415.3193,47,26,1
415.27255,415.36603,55,25,1
415.36603,415.50626,50,31,1
415.36603,415.50626,47,26,1
415.4595,415.55298,55,25,1
415.55298,415.6932,50,31,1
415.55298,415.6932,47,26,1
415.64645,415.73993,55,25,1
415.73993,415.88016,50,31,1
415.73993,415.88016,47,26,1
415.8334,415.92688,55,25,1
415.92688,416.0713,50,31,1
415.92688,416.0713,47,26,1
416.02316,416.11945,55,25,1
416.11945,416.3064,50,33,1
416.3064,416.39908,50,34,1
416.39987,416.49335,57,28,1
416.49335,416.58514,50,34,1
416.5859,416.6785,57,29,1
416.6785,416.7703,50,34,1
416.7711,416.86365,57,29,1
416.86365,416.95547,50,34,1
416.95624,417.04883,57,28,1
417.04883,417.14062,50,34,1
417.1414,417.23398,57,29,1
417.23398,417.32727,50,34,1
417.32806,417.42215,57,30,1
417.42215,417.51544,50,35,1
417.51624,417.61032,57,28,1
416.11945,417.61032,38,33,1
417.61032,417.70303,50,35,1
417.7038,417.79727,57,29,1
417.79727,417.88998,50,35,1
417.89075,417.98422,57,29,1
417.98422,418.07632,50,35,1
418.07712,418.16998,57,30,1
418.16998,418.2621,50,35,1
418.26288,418.35574,57,30,1
418.35574,418.44885,50,36,1
418.44962,418.5437,57,29,1
418.5437,418.63702,50,36,1
418.6378,418.73187,57,31,1
418.73187,418.8252,50,36,1
418.82596,418.92004,59,31,1
418.92004,419.01337,50,36,1
419.01413,419.10822,59,29,1
419.10822,419.24844,52,37,1
419.10822,419.24844,48,30,1
419.2017,419.29517,57,29,1
419.29517,419.4354,52,37,1
419.29517,419.4354,48,30,1
419.38864,419.48212,57,29,1
419.48212,419.62234,52,37,1
419.48212,419.62234,48,30,1
419.5756,419.66907,57,29,1
419.66907,419.8093,52,37,1
419.66907,419.8093,48,30,1
419.76254,419.85602,57,29,1
419.85602,419.99625,52,37,1
419.85602,419.99625,48,30,1
419.9495,420.04297,57,29,1
420.04297,420.1832,52,37,1
420.04297,420.1832,48,30,1
420.13644,420.22992,57,29,1
420.22992,420.37015,52,37,1
420.22992,420.37015,48,30,1
420.3234,420.41687,57,29,1
420.41687,420.56082,52,37,1
420.41687,420.56082,48,30,1
420.51282,420.6088,57,29,1
420.6088,420.749,52,37,1
420.6088,420.749,48,30,1
420.70227,420.79575,57,29,1
420.79575,420.93594,52,37,1
420.79575,420.93594,48,30,1
420.88922,420.9827,57,29,1
420.9827,421.1229,52,37,1
420.9827,421.1229,48,30,1
421.07617,421.16965,57,29,1
421.16965,421.30984,52,38,1
421.16965,421.30984,48,30,1
421.26312,421.3566,57,30,1
421.3566,421.4968,52,38,1
421.3566,421.4968,48,31,1
421.45007,421.54355,57,30,1
421.54355,421.68375,52,39,1
421.54355,421.68375,48,31,1
421.63702,421.7305,57,30,1
421.7305,421.8707,52,39,1
421.7305,421.8707,48,31,1
421.82397,421.91745,57,31,1
421.91745,422.06186,52,39,1
421.91745,422.06186,48,33,1
422.0137,422.11,57,31,1
422.11,422.25018,57,41,1
422.11,422.25018,53,34,1
422.20346,422.29694,60,33,1
422.29694,422.43713,57,41,1
422.29694,422.43713,53,35,1
422.3904,422.4839,60,34,1
422.4839,422.62408,57,42,1
422.4839,422.62408,53,35,1
422.57736,422.67084,60,34,1
422.67084,422.81104,57,42,1
422.67084,422.81104,53,35,1
422.7643,422.8578,60,34,1
422.8578,422.998,57,44,1
422.8578,422.998,53,36,1
422.95126,423.04474,62,35,1
423.04474,423.18494,57,45,1
423.04474,423.18494,53,37,1
423.1382,423.2317,62,36,1
423.2317,423.3719,57,45,1
423.2317,423.3719,53,37,1
423.32516,423.41864,62,37,1
423.41864,423.56305,57,46,1
423.41864,423.56305,53,38,1
423.51492,423.6355,62,37,1
423.6355,423.7757,57,43,1
423.6355,423.7757,53,35,1
423.72897,423.82245,63,34,1
423.82245,423.96265,57,43,1
423.82245,423.96265,53,36,1
423.91592,424.0094,63,35,1
424.0094,424.1496,57,44,1
424.0094,424.1496,53,37,1
424.10287,424.19635,63,36,1
424.19635,424.33655,57,44,1
424.19635,424.33655,53,37,1
424.28983,424.3833,63,36,1
424.3833,424.52362,57,47,1
424.3833,424.52362,53,38,1
424.47675,424.5705,60,37,1
424.5705,424.7117,57,47,1
424.5705,424.7117,53,38,1
424.66455,424.75888,60,37,1
424.75888,424.90085,53,47,1
424.85352,424.94815,57,39,1
424.94815,425.11655,53,49,1
425.0516,425.18146,57,39,1
425.18146,425.2943,52,40,1
425.27826,425.39075,56,35,1
425.3747,425.48672,59,35,1
425.47076,425.5665,64,35,1
425.5665,425.67783,52,41,1
425.66196,425.7728,56,35,1
425.757,425.8675,59,35,1
425.8517,425.94617,64,35,1
425.94617,426.05588,52,39,1
426.0402,426.14993,57,35,1
426.13425,426.24396,60,35,1
426.2283,426.32233,64,35,1
426.32233,426.43204,52,40,1
426.41638,426.5261,57,35,1
426.51044,426.62015,60,35,1
426.60446,426.69833,64,35,1
426.69833,426.80737,52,40,1
426.7918,426.90085,59,35,1
426.88528,426.99457,62,35,1
426.97894,427.07272,64,35,1
427.07272,427.1822,52,40,1
427.1665,427.27628,59,35,1
427.2606,427.37036,62,35,1
427.35468,427.44885,64,35,1
427.44885,427.559,52,40,1
427.54327,427.65338,57,35,1
427.63766,427.74802,60,35,1
427.73224,427.82693,64,35,1
427.82693,427.9375,52,40,1
427.92163,428.03558,57,35,1
428.01877,428.14178,60,35,1
428.1231,428.2395,64,35,1
428.2395,428.35098,52,40,1
428.33505,428.44638,56,35,1
428.43048,428.5416,59,35,1
428.52573,428.62076,64,35,1
428.62076,428.73148,52,40,1
428.7157,428.8261,56,35,1
428.81033,428.9206,59,35,1
428.90488,428.9992,64,35,1
428.9992,429.10895,52,40,1
429.09326,429.20297,57,35,1
429.18732,429.29703,60,35,1
429.28134,429.3754,64,35,1
429.3754,429.48477,52,41,1
429.46915,429.57852,57,35,1
429.5629,429.67227,60,35,1
429.65665,429.7503,64,35,1
429.7503,429.85934,52,40,1
429.84375,429.9528,59,35,1
429.93723,430.04626,62,35,1
430.03067,430.12415,64,35,1
430.12415,430.23315,52,40,1
430.2176,430.32663,59,36,1
430.31104,430.42007,62,36,1
430.4045,430.49796,64,36,1
430.49796,430.607,52,42,1
430.59143,430.70047,57,36,1
430.68488,430.7939,60,37,1
430.77835,430.8718,64,37,1
430.8718,430.98083,52,42,1
430.96524,431.07507,57,37,1
431.05872,431.1733,60,37,1
431.15695,431.2552,64,38,1
431.2552,431.34866,52,44,1
431.34866,431.44214,56,38,1
431.44214,431.5356,59,38,1
431.5356,431.6291,64,38,1
431.6291,431.72256,63,50,1
431.72256,431.81604,64,41,1
431.81604,431.90952,60,40,1
431.90952,432.003,57,41,1
432.003,432.09647,52,52,1
432.09647,432.18994,56,44,1
432.18994,432.28342,59,45,1
432.28342,432.3769,64,45,1
432.3769,432.47037,63,60,1
432.47037,432.56384,64,51,1
432.56384,432.65732,60,51,1
432.65732,432.7508,57,52,1
432.7508,432.84427,52,63,1
432.84427,432.93774,56,52,1
432.93774,433.03122,59,52,1
433.03122,433.1247,64,52,1
433.1247,433.21817,52,63,1
433.21817,433.31165,57,52,1
433.31165,433.40512,60,52,1
433.40512,433.4986,64,52,1
433.4986,433.59207,52,63,1
433.59207,433.68555,56,52,1
433.68555,433.77902,59,52,1
433.77902,433.8725,64,52,1
433.8725,433.96597,52,63,1
433.96597,434.05945,57,52,1
434.05945,434.15292,60,52,1
434.15292,434.2464,64,52,1
434.2464,434.62152,64,63,1
434.2464,434.62152,52,54,1
434.2464,434.62152,56,54,1
434.2464,434.62152,59,54,1
436.8849,436.98022,40,85,1
436.98022,437.07553,44,76,1
437.07553,437.17545,47,76,1
437.17545,437.2754,52,75,1
437.2754,437.36856,40,77,1
437.46173,437.55725,52,68,1
437.6528,437.74628,42,73,1
437.83972,437.93527,54,66,1
438.0308,438.12427,44,71,1
438.2177,438.31326,56,65,1
438.798,438.89206,44,69,1
438.9861,439.08194,56,61,1
439.17822,439.27255,45,65,1
439.36765,439.46423,57,59,1
439.56085,439.6555,47,65,1
439.7506,439.84677,59,54,1
441.10822,441.20612,47,41,1
441.30402,441.40192,59,36,1
441.49982,441.59738,49,41,1
441.69507,441.79297,61,36,1
441.8912,441.98953,50,40,1
442.0881,442.18698,62,37,1
442.286,442.38525,52,39,1
442.48483,442.58453,64,36,1
442.68445,442.78363,54,38,1
442.88397,442.986,66,37,1
443.08975,443.1979,56,40,1
443.31293,443.43576,68,37,1
443.5699,444.4501,57,33,1
443.5699,444.4501,64,33,1
443.5699,444.4501,61,33,1
443.5699,444.4501,69,39,1
444.4501,444.88055,52,29,1
444.4501,444.88055,59,29,1
444.4501,444.88055,64,35,1
444.4501,444.88055,56,29,1
444.88055,445.35114,54,29,1
444.88055,445.35114,57,29,1
444.88055,445.35114,61,29,1
444.88055,445.35114,66,35,1
445.35114,446.24002,53,33,1
445.35114,446.24002,49,33,1
445.35114,446.24002,61,39,1
445.35114,446.24002,56,33,1
446.24002,447.14713,57,28,1
446.24002,447.14713,54,28,1
446.24002,447.14713,50,28,1
446.24002,447.14713,62,34,1
447.14713,448.04938,59,45,1
447.14713,448.04938,47,37,1
447.14713,448.04938,52,45,1
447.14713,448.04938,56,37,1
448.04938,448.51813,61,49,1
448.04938,448.51813,57,40,1
448.04938,448.51813,49,40,1
448.04938,448.51813,52,40,1
448.51813,449.02658,54,41,1
448.51813,449.02658,59,46,1
448.51813,449.02658,62,55,1
448.51813,449.02658,50,36,1
449.02658,449.92548,64,59,1
449.02658,449.92548,57,49,1
449.02658,449.92548,61,49,1
449.92548,450.85498,64,32,1
449.02658,450.85693,52,49,1
449.92548,450.85693,59,27,1
449.92548,450.85693,56,27,1
450.85693,451.73715,57,29,1
450.85693,451.73715,60,35,1
451.73715,452.1676,52,26,1
451.73715,452.1676,55,26,1
451.73715,452.1676,59,31,1
452.1676,452.62308,53,26,1
452.1676,452.62308,57,31,1
452.62308,453.5066,48,29,1
452.62308,453.5066,52,29,1
452.62308,453.5066,55,35,1
453.5066,454.411,50,25,1
453.5066,454.411,53,30,1
454.411,454.8561,52,35,1
454.411,454.8561,48,35,1
454.8561,456.19696,53,35,1
454.8561,456.19696,50,35,1
454.411,456.19696,43,26,1
456.19696,456.6485,52,40,1
456.19696,456.6485,48,37,1
457.97607,458.84433,72,37,1
457.97607,458.84433,76,44,1
458.84433,459.26892,68,33,1
458.84433,459.26892,77,40,1
458.84433,459.26892,74,40,1
458.84433,459.26892,71,33,1
459.26892,459.71817,69,33,1
459.26892,459.71817,72,40,1
459.26892,459.71817,76,40,1
459.71817,460.5897,64,37,1
459.71817,460.5897,74,44,1
459.71817,460.5897,71,44,1
459.71817,460.5897,68,37,1
460.5897,461.4818,65,32,1
460.5897,461.4818,69,39,1
460.5897,461.4818,72,39,1
461.4818,462.3599,71,47,1
461.4818,462.3599,62,39,1
461.4818,462.3599,65,47,1
461.4818,462.3599,67,39,1
462.3599,462.7892,72,53,1
462.3599,462.7892,67,45,1
462.3599,462.7892,64,45,1
462.7892,463.24374,69,48,1
462.7892,463.24374,72,56,1
462.7892,463.24374,74,57,1
462.7892,463.24374,65,45,1
463.24374,464.11526,76,65,1
463.24374,464.11526,72,53,1
464.11526,464.556,74,53,1
464.11526,464.556,71,45,1
463.24374,464.556,67,53,1
464.556,464.70932,55,44,1
464.70932,464.86264,57,43,1
464.86264,465.016,59,41,1
465.016,465.88422,60,37,1
465.016,465.88422,64,45,1
465.88422,466.3088,56,33,1
465.88422,466.3088,59,33,1
465.88422,466.3088,62,41,1
466.3088,466.7581,57,33,1
466.3088,466.7581,60,41,1
466.7581,467.6296,52,37,1
466.7581,467.6296,59,37,1
466.7581,467.6296,62,56,1
466.7581,467.6296,56,37,1
467.6296,468.52173,60,32,1
467.6296,468.52173,57,39,1
467.6296,468.52173,53,39,1
468.52173,468.96896,52,55,1
468.52173,468.96896,48,52,1
468.96896,470.33453,53,58,1
468.96896,470.33453,50,55,1
468.52173,470.33453,43,46,1
470.33453,470.77194,48,60,1
470.33453,470.77194,36,50,1
470.77194,471.64908,43,60,1
471.64908,472.52084,43,60,1
472.52084,473.39163,43,60,1
473.39163,473.81934,43,60,1
473.81934,473.9614,48,73,1
473.9614,474.10342,43,67,1
474.10342,474.24548,40,69,1
474.24548,474.3875,43,73,1
474.3875,474.52957,48,69,1
474.52957,474.67648,52,69,1
474.67648,474.81958,50,73,1
474.81958,474.96268,47,69,1
474.96268,475.10577,43,69,1
475.10577,475.24887,47,73,1
475.24887,475.39197,50,69,1
475.39197,475.53946,53,69,1
475.53946,475.68256,52,73,1
475.68256,475.82565,48,67,1
475.82565,475.96875,43,69,1
475.96875,476.11188,48,73,1
476.11188,476.25497,52,69,1
476.25497,476.40244,55,69,1
476.40244,476.54608,53,73,1
476.54608,476.6897,50,69,1
476.6897,476.83774,47,69,1
476.83774,476.98032,59,73,1
476.98032,477.1229,53,69,1
477.1229,477.27094,50,69,1
477.27094,477.41296,52,64,1
477.41296,477.55502,55,56,1
477.55502,477.69705,60,56,1
477.69705,477.8391,55,64,1
477.8391,477.98117,52,57,1
477.98117,478.12805,48,57,1
478.12805,478.27063,47,64,1
478.27063,478.4132,50,56,1
478.4132,478.5558,53,56,1
478.5558,478.69836,50,64,1
478.69836,478.8409,47,57,1
478.8409,478.98727,43,58,1
478.99258,479.13412,48,64,1
479.1288,479.27032,52,56,1
479.27032,479.41187,55,56,1
479.41187,479.5534,52,64,1
479.5534,479.69495,48,57,1
479.70074,479.85544,43,57,1
479.8501,479.99216,47,64,1
479.99216,480.1342,53,56,1
480.13995,480.29285,55,56,1
480.28754,480.42905,53,64,1
480.42905,480.5706,55,57,1
480.5706,480.71213,62,58,1
480.71213,480.85315,52,64,1
480.85315,480.99414,55,55,1
480.99414,481.13516,60,55,1
481.13516,481.27618,48,62,1
481.27618,481.4172,52,55,1
481.4172,481.56354,55,54,1
481.56354,481.70404,50,59,1
481.70404,481.84454,53,51,1
481.84454,481.98505,55,51,1
481.98505,482.12555,53,57,1
482.12555,482.26602,55,51,1
482.26602,482.4206,62,51,1
482.4206,482.56058,52,56,1
482.56058,482.70056,55,48,1
482.70056,482.84055,60,48,1
482.84055,482.98053,48,54,1
482.98053,483.1205,52,48,1
483.1205,483.26743,55,47,1
483.26743,483.40692,50,51,1
483.40692,483.54642,53,44,1
483.54642,483.68588,55,44,1
483.68588,483.82538,53,50,1
483.82538,483.96487,55,44,1
483.96487,484.11942,62,44,1
484.11942,484.2229,52,50,1
484.2229,484.32623,55,43,1
484.32623,484.4293,48,43,1
484.4293,484.53204,55,44,1
484.53204,484.6345,50,51,1
484.6345,484.73672,55,44,1
484.73672,484.83868,53,44,1
484.83868,484.94037,55,44,1
484.94037,485.04175,52,52,1
485.04175,485.14307,55,46,1
485.14307,485.2444,48,47,1
485.2444,485.3457,55,49,1
485.3457,485.44705,50,55,1
485.44705,485.54837,55,48,1
485.54837,485.6497,53,48,1
485.6497,485.7576,55,49,1
485.7576,485.85822,52,58,1
485.85822,485.95865,55,50,1
485.95865,486.0589,53,51,1
486.0589,486.1589,55,52,1
486.1589,486.25876,52,60,1
486.25876,486.35834,55,52,1
486.35834,486.45776,53,52,1
486.45776,486.557,55,54,1
486.557,486.65588,52,62,1
486.65588,486.7548,55,55,1
486.7548,486.8537,53,55,1
486.8537,486.9526,55,57,1
486.9526,487.05148,52,65,1
487.05148,487.1504,55,57,1
487.1504,487.2493,53,57,1
487.2493,487.35782,55,58,1
487.35782,487.4564,52,70,1
487.4564,487.55493,55,60,1
487.55493,487.65338,40,60,1
487.65338,487.75162,48,62,1
487.75162,487.84985,40,70,1
487.84985,487.94788,48,60,1
487.94788,488.04578,40,60,1
488.04578,488.14362,48,60,1
488.14362,488.24118,40,70,1
488.24118,488.33875,48,60,1
488.33875,488.4363,40,60,1
488.4363,488.53387,48,62,1
488.53387,488.63144,40,70,1
488.63144,488.729,48,60,1
488.729,488.82657,40,60,1
488.82657,488.92792,48,60,1
488.92792,489.02292,40,70,1
489.02292,489.11792,48,60,1
489.11792,489.21292,40,60,1
489.21292,489.30795,48,62,1
489.30795,489.40295,40,70,1
489.40295,489.49796,48,60,1
489.49796,489.59296,40,60,1
489.59296,489.68796,48,61,1
489.68796,489.783,40,71,1
489.783,489.878,48,61,1
489.878,489.973,40,61,1
489.973,490.068,48,63,1
490.068,490.16302,40,72,1
490.16302,490.25803,48,62,1
490.25803,490.35303,40,62,1
490.35303,490.44803,48,62,1
490.44803,490.58893,48,80,1
490.44803,490.58893,45,67,1
490.44803,490.58893,41,67,1
490.63577,490.77576,48,73,1
490.63577,490.77576,45,60,1
490.63577,490.77576,41,60,1
491.01016,491.157,48,73,1
491.01016,491.157,45,60,1
491.01016,491.157,41,60,1
491.20596,491.34558,48,80,1
491.20596,491.34558,45,67,1
491.20596,491.34558,41,67,1
491.3927,491.53317,48,73,1
491.3927,491.53317,45,60,1
491.3927,491.53317,41,60,1
491.7664,491.91275,48,73,1
491.7664,491.91275,45,60,1
491.7664,491.91275,41,60,1
491.96152,492.10104,48,78,1
491.96152,492.10104,45,67,1
491.96152,492.10104,41,67,1
492.14734,492.28806,48,73,1
492.14734,492.28806,45,60,1
492.14734,492.28806,41,60,1
492.52042,492.6658,48,73,1
492.52042,492.6658,45,60,1
492.52042,492.6658,41,60,1
492.71426,492.85413,48,78,1
492.71426,492.85413,45,67,1
492.71426,492.85413,41,67,1
492.9006,493.03943,48,73,1
492.9006,493.03943,45,60,1
492.9006,493.03943,41,60,1
493.27286,493.42432,48,73,1
493.27286,493.42432,45,60,1
493.27286,493.42432,41,60,1
493.4748,493.61368,50,78,1
493.4748,493.61368,48,67,1
493.4748,493.61368,42,67,1
493.4748,493.61368,45,67,1
493.66022,493.79996,50,73,1
493.66022,493.79996,48,60,1
493.66022,493.79996,42,60,1
493.66022,493.79996,45,60,1
494.03384,494.1792,50,73,1
494.03384,494.1792,48,60,1
494.03384,494.1792,42,60,1
494.03384,494.1792,45,60,1
494.22766,494.36673,50,78,1
494.22766,494.36673,48,67,1
494.22766,494.36673,42,67,1
494.22766,494.36673,45,67,1
494.414,494.5546,50,73,1
494.414,494.5546,48,60,1
494.414,494.5546,42,60,1
494.414,494.5546,45,60,1
494.78833,494.93323,50,73,1
494.78833,494.93323,48,60,1
494.78833,494.93323,42,60,1
494.78833,494.93323,45,60,1
494.98154,495.1207,50,78,1
494.98154,495.1207,48,67,1
494.98154,495.1207,42,67,1
494.98154,495.1207,45,67,1
495.16815,495.3081,50,73,1
495.16815,495.3081,48,60,1
495.16815,495.3081,42,60,1
495.16815,495.3081,45,60,1
495.54126,495.68665,50,73,1
495.54126,495.68665,48,60,1
495.54126,495.68665,42,60,1
495.54126,495.68665,45,60,1
495.7351,495.87604,50,78,1
495.7351,495.87604,48,67,1
495.7351,495.87604,42,67,1
495.7351,495.87604,45,67,1
495.9224,496.06314,50,73,1
495.9224,496.06314,48,60,1
495.9224,496.06314,42,60,1
495.9224,496.06314,45,60,1
496.29648,496.44138,50,73,1
496.29648,496.44138,48,60,1
496.29648,496.44138,42,60,1
496.29648,496.44138,45,60,1
496.48965,496.58313,43,78,1
496.58313,496.6766,48,70,1
496.6766,496.77008,52,70,1
496.77008,496.86356,55,70,1
496.86356,496.95825,43,77,1
496.95825,497.05298,48,70,1
497.05298,497.14767,52,70,1
497.14767,497.24237,55,70,1
497.24237,497.33585,43,75,1
497.33585,497.42932,48,70,1
497.42932,497.5228,52,70,1
497.5228,497.61627,55,70,1
497.61627,497.71158,43,75,1
497.71158,497.80692,48,70,1
497.80692,497.90222,52,70,1
497.90222,497.99695,55,70,1
497.99695,498.09042,43,78,1
498.09042,498.1839,48,70,1
498.1839,498.27737,52,70,1
498.27737,498.37085,55,70,1
498.37085,498.46524,43,77,1
498.46524,498.55963,48,70,1
498.55963,498.65402,52,70,1
498.65402,498.7484,55,70,1
498.7484,498.8419,52,75,1
498.93536,499.02884,52,70,1
499.1223,499.217,48,75,1
499.3117,499.4064,43,70,1
499.5011,499.59482,55,86,1
499.68842,499.78183,52,47,1
499.87497,499.96786,60,53,1
500.06055,500.15305,55,48,1
500.2453,500.3379,64,52,1
500.43048,500.52304,60,41,1
500.61563,500.70822,67,50,1
500.8008,500.89337,64,41,1
500.98596,501.07895,72,50,1
501.17212,501.2653,67,41,1
501.35846,501.45163,76,50,1
501.5448,501.63797,72,39,1
501.73114,501.8243,79,50,1
501.9177,502.01138,76,41,1
502.10535,502.19965,84,50,1
502.29425,502.38916,79,42,1
502.48438,502.57846,83,46,1
502.67194,502.7654,79,37,1
502.8588,502.95197,83,43,1
503.04504,503.1379,79,36,1
503.23068,503.32263,83,41,1
503.41357,503.5058,79,32,1
503.59723,503.6885,83,39,1
503.77954,503.87152,79,31,1
503.9618,504.0517,83,36,1
504.14313,504.23282,79,30,1
504.32324,504.41455,83,36,1
504.5048,504.59668,79,31,1
504.68903,504.7822,83,36,1
504.8755,504.96896,79,29,1
505.06274,505.1567,83,36,1
505.25092,505.3453,79,30,1
505.43954,505.50314,83,37,1
505.50314,505.56674,84,32,1
505.56674,505.62967,83,36,1
505.62967,505.69247,84,31,1
505.69247,505.75583,83,36,1
505.75583,505.8181,84,33,1
505.8181,505.88025,83,37,1
505.88025,505.94345,84,33,1
505.94345,506.00616,83,37,1
506.00616,506.06876,84,33,1
506.06876,506.13153,83,38,1
506.13153,506.1936,84,34,1
506.1936,506.2565,83,38,1
506.2565,506.3184,84,35,1
506.3184,506.381,83,39,1
506.381,506.44357,84,35,1
506.44357,506.50507,83,39,1
506.50507,506.5673,84,36,1
506.5673,506.63016,83,40,1
506.63016,506.69205,84,36,1
506.69205,506.75452,83,40,1
506.75452,506.81686,84,36,1
506.81686,506.8785,83,41,1
506.8785,506.9403,84,37,1
506.9403,507.0022,83,41,1
507.0022,507.0647,84,36,1
507.0647,507.12567,83,42,1
507.12567,507.18777,84,37,1
507.18777,507.25027,83,42,1
507.25027,507.31195,84,37,1
507.31195,507.37454,83,43,1
507.37454,507.43677,84,38,1
507.43677,507.49832,83,43,1
507.49832,507.5608,84,39,1
507.5608,507.62207,83,44,1
507.62207,507.684,84,39,1
507.684,507.74652,83,44,1
507.74652,507.80814,84,38,1
507.80814,507.8707,83,45,1
507.8707,507.9324,84,38,1
507.9324,507.99475,83,45,1
507.99475,508.0568,84,40,1
508.0568,508.1312,83,50,1
508.1312,508.20584,84,44,1
508.20584,508.2821,83,50,1
508.2821,508.3605,81,52,1
508.3605,508.441,83,47,1
508.441,509.20938,72,62,1
509.20938,509.9572,70,45,1
509.20938,509.9572,67,38,1
509.20938,509.9572,64,38,1
509.9572,510.71042,68,47,1
509.9572,510.71042,65,39,1
510.71042,511.45935,70,46,1
508.441,511.45935,60,52,1
510.71042,511.45935,64,39,1
510.71042,511.45935,67,39,1
511.45935,511.83722,65,40,1
511.45935,511.83722,68,48,1
512.218,513.00195,53,39,1
512.218,513.00195,65,47,1
512.218,513.00195,61,39,1
512.218,513.00195,56,39,1
513.00195,513.7866,63,46,1
513.00195,513.7866,55,39,1
513.00195,513.7866,60,39,1
513.7866,514.56714,62,44,1
513.7866,514.56714,59,37,1
513.7866,514.56714,55,37,1
514.56714,515.3348,60,56,1
515.3348,516.08014,58,45,1
515.3348,516.08014,55,38,1
515.3348,516.08014,52,38,1
516.08014,516.83124,57,47,1
516.08014,516.83124,53,39,1
516.83124,517.57697,52,39,1
514.56714,517.57697,48,45,1
516.83124,517.57697,55,39,1
516.83124,517.57697,58,46,1
517.57697,517.95355,57,48,1
517.57697,517.95355,53,48,1
518.335,519.1178,45,39,1
518.335,519.1178,50,47,1
518.335,519.1178,41,39,1
519.1178,519.90247,52,46,1
519.1178,519.90247,48,39,1
519.90247,520.6856,53,44,1
519.90247,520.6856,50,37,1
519.1178,520.6856,43,39,1
520.6856,521.0882,52,44,1
520.6856,521.0882,48,37,1
521.0882,521.4825,40,42,1
521.0882,521.67957,48,51,1
521.67957,521.8767,50,49,1
521.8767,522.07385,52,51,1
522.07385,522.2779,53,55,1
521.4825,522.2779,41,42,1
522.2779,523.0691,55,41,1
522.2779,523.0691,52,35,1
523.0691,523.8603,53,39,1
523.0691,523.8603,50,33,1
522.2779,523.8603,43,35,1
523.8603,524.2548,48,37,1
523.8603,524.2548,52,44,1
524.2548,524.65045,45,42,1
524.2548,524.84827,53,51,1
524.84827,525.046,55,49,1
525.046,525.24384,57,51,1
525.24384,525.4501,58,55,1
524.65045,525.4501,46,42,1
525.4501,526.2503,57,35,1
525.4501,526.2503,60,41,1
526.2503,527.05334,58,39,1
526.2503,527.05334,55,33,1
525.4501,527.05334,48,35,1
527.05334,527.4658,53,37,1
527.05334,527.4658,56,44,1
527.4658,527.8614,44,42,1
527.4658,528.0592,53,51,1
528.0592,528.257,55,49,1
528.257,528.45483,56,51,1
528.45483,528.6611,58,55,1
527.8614,528.6611,46,42,1
528.6611,529.4613,56,35,1
528.6611,529.4613,60,41,1
529.4613,530.2643,58,39,1
529.4613,530.2643,55,33,1
528.6611,530.2643,48,35,1
530.2643,530.3578,53,25,1
530.2643,530.3578,56,28,1
530.2643,530.3578,49,25,1
530.45123,530.54474,44,26,1
530.45123,530.54474,37,22,1
530.6382,530.7311,37,22,1
530.6382,530.7311,44,26,1
530.824,530.9168,37,22,1
530.824,530.9168,44,27,1
531.0097,531.10333,44,27,1
531.0097,531.10333,37,22,1
531.19714,531.2909,37,23,1
531.19714,531.2909,44,28,1
531.3847,531.47784,37,23,1
531.3847,531.47784,44,28,1
531.57104,531.6642,44,29,1
531.57104,531.6642,37,24,1
531.7574,531.85077,44,30,1
531.7574,531.85077,37,25,1
531.9442,532.0377,37,22,1
531.9442,532.0377,44,27,1
532.13116,532.22437,44,28,1
532.13116,532.22437,37,23,1
532.3175,532.4107,37,24,1
532.3175,532.4107,44,29,1
532.50385,532.59735,44,30,1
532.50385,532.59735,37,25,1
532.6908,532.7843,44,30,1
532.6908,532.7843,37,25,1
532.87775,532.97125,46,30,1
532.87775,532.97125,37,25,1
533.0647,533.1582,46,30,1
533.0647,533.1582,37,25,1
533.25165,533.3919,39,25,1
533.25165,533.3919,44,30,1
533.25165,533.3919,36,25,1
533.4386,533.57886,44,30,1
533.4386,533.57886,39,25,1
533.4386,533.57886,36,25,1
533.62555,533.7658,44,30,1
533.62555,533.7658,39,25,1
533.62555,533.7658,36,25,1
533.8125,533.95276,44,30,1
533.8125,533.95276,39,25,1
533.8125,533.95276,36,25,1
533.99945,534.1397,44,30,1
533.99945,534.1397,39,25,1
533.99945,534.1397,36,25,1
534.1864,534.32666,36,25,1
534.1864,534.32666,39,25,1
534.1864,534.32666,44,30,1
534.37335,534.5136,44,30,1
534.37335,534.5136,39,25,1
534.37335,534.5136,36,25,1
534.5603,534.7042,44,30,1
534.5603,534.7042,39,25,1
534.5603,534.7042,36,25,1
534.75226,534.89246,45,47,1
534.75226,534.89246,41,38,1
534.75226,534.89246,39,38,1
534.75226,534.89246,36,38,1
534.9392,535.0794,41,38,1
534.9392,535.0794,39,38,1
534.9392,535.0794,36,38,1
534.9392,535.0794,45,47,1
535.12616,535.26636,45,47,1
535.12616,535.26636,39,38,1
535.12616,535.26636,36,38,1
535.12616,535.26636,41,38,1
535.3131,535.4533,45,47,1
535.3131,535.4533,41,38,1
535.3131,535.4533,39,38,1
535.3131,535.4533,36,38,1
535.50006,535.64026,39,38,1
535.50006,535.64026,41,38,1
535.50006,535.64026,45,47,1
535.50006,535.64026,36,38,1
535.687,535.8272,45,45,1
535.687,535.8272,36,37,1
535.687,535.8272,39,37,1
535.687,535.8272,41,37,1
535.87396,536.01416,45,45,1
535.87396,536.01416,41,37,1
535.87396,536.01416,39,37,1
535.87396,536.01416,36,37,1
536.0609,536.20386,36,37,1
536.0609,536.20386,41,37,1
536.0609,536.20386,45,45,1
536.0609,536.20386,39,37,1
536.2515,536.3917,46,30,1
536.2515,536.3917,37,25,1
536.2515,536.3917,41,25,1
536.4385,536.5787,46,30,1
536.4385,536.5787,37,25,1
536.4385,536.5787,41,25,1
536.6254,536.7656,46,30,1
536.6254,536.7656,37,25,1
536.6254,536.7656,41,25,1
536.8124,536.9504,46,30,1
536.8124,536.9504,37,25,1
536.8124,536.9504,41,25,1
536.99634,537.1366,37,25,1
536.99634,537.1366,41,25,1
536.99634,537.1366,46,30,1
537.1833,537.32355,41,25,1
537.1833,537.32355,46,30,1
537.1833,537.32355,37,25,1
537.37024,537.5105,41,25,1
537.37024,537.5105,46,30,1
537.37024,537.5105,37,25,1
537.5572,537.7012,41,25,1
537.5572,537.7012,46,30,1
537.5572,537.7012,37,25,1
537.74915,537.88934,38,38,1
537.74915,537.88934,41,38,1
537.74915,537.88934,47,47,1
537.9361,538.0763,47,47,1
537.9361,538.0763,38,38,1
537.9361,538.0763,41,38,1
538.12305,538.2615,47,47,1
538.12305,538.2615,38,38,1
538.12305,538.2615,41,38,1
538.3076,538.44604,47,47,1
538.3076,538.44604,38,38,1
538.3076,538.44604,41,38,1
538.4922,538.6324,47,45,1
538.4922,538.6324,38,37,1
538.4922,538.6324,41,37,1
538.67914,538.81934,38,37,1
538.67914,538.81934,41,37,1
538.67914,538.81934,47,45,1
538.8661,539.0063,38,37,1
538.8661,539.0063,47,45,1
538.8661,539.0063,41,37,1
539.05304,539.196,47,45,1
539.05304,539.196,41,37,1
539.05304,539.196,38,37,1
539.24365,539.38385,47,45,1
539.24365,539.38385,39,37,1
539.24365,539.38385,43,37,1
539.4306,539.56775,47,45,1
539.4306,539.56775,39,37,1
539.4306,539.56775,43,37,1
539.61346,539.75366,48,45,1
539.61346,539.75366,39,37,1
539.61346,539.75366,43,37,1
539.8004,539.94727,43,37,1
539.8004,539.94727,48,45,1
539.8004,539.94727,39,37,1
539.9962,540.13416,44,37,1
539.9962,540.13416,48,45,1
539.9962,540.13416,41,37,1
540.1802,540.3182,44,38,1
540.1802,540.3182,48,46,1
540.1802,540.3182,41,38,1
540.36414,540.50433,50,46,1
540.36414,540.50433,41,38,1
540.36414,540.50433,44,38,1
540.5511,540.6913,44,38,1
540.5511,540.6913,41,38,1
540.5511,540.6913,50,46,1
540.73804,540.87823,50,47,1
540.73804,540.87823,46,38,1
540.73804,540.87823,43,38,1
540.925,541.06213,50,47,1
540.925,541.06213,46,38,1
540.925,541.06213,43,38,1
541.10785,541.24805,52,47,1
541.10785,541.24805,46,39,1
541.10785,541.24805,43,39,1
541.2948,541.44366,52,48,1
541.2948,541.44366,43,39,1
541.2948,541.44366,46,39,1
541.4933,541.6312,48,39,1
541.4933,541.6312,52,48,1
541.4933,541.6312,44,39,1
541.67725,541.81525,48,39,1
541.67725,541.81525,52,48,1
541.67725,541.81525,44,39,1
541.8612,542.00146,48,40,1
541.8612,542.00146,53,49,1
541.8612,542.00146,44,40,1
542.04816,542.19116,53,49,1
542.04816,542.19116,44,40,1
542.04816,542.19116,48,40,1
542.23883,542.37683,48,42,1
542.23883,542.37683,45,42,1
542.23883,542.37683,54,51,1
542.4228,542.5608,48,42,1
542.4228,542.5608,45,42,1
542.4228,542.5608,54,51,1
542.60675,542.747,54,51,1
542.60675,542.747,45,42,1
542.60675,542.747,48,42,1
542.79376,542.9367,54,51,1
542.79376,542.9367,45,42,1
542.79376,542.9367,48,42,1
542.9844,543.1224,45,42,1
542.9844,543.1224,48,42,1
542.9844,543.1224,54,51,1
543.16833,543.30634,54,51,1
543.16833,543.30634,45,42,1
543.16833,543.30634,48,42,1
543.35236,543.49255,54,51,1
543.35236,543.49255,45,42,1
543.35236,543.49255,48,42,1
543.5393,543.6873,54,51,1
543.5393,543.6873,45,42,1
543.5393,543.6873,48,42,1
543.73663,543.87463,44,42,1
543.73663,543.87463,54,51,1
543.73663,543.87463,48,42,1
543.92065,544.05865,48,42,1
543.92065,544.05865,44,42,1
543.92065,544.05865,54,51,1
544.1046,544.2448,54,51,1
544.1046,544.2448,44,42,1
544.1046,544.2448,48,42,1
544.29156,544.43176,54,51,1
544.29156,544.43176,44,42,1
544.29156,544.43176,48,42,1
544.4785,544.6165,51,51,1
544.4785,544.6165,44,42,1
544.4785,544.6165,48,42,1
544.66254,544.8005,44,42,1
544.66254,544.8005,48,42,1
544.66254,544.8005,51,51,1
544.8465,544.98944,48,51,1
544.8465,544.98944,44,42,1
545.0382,545.18823,44,42,1
545.0382,545.18823,48,51,1
545.2395,545.4184,47,51,1
545.2395,545.4184,43,42,1
548.3505,548.502,50,35,1
548.3505,548.502,47,29,1
548.5525,548.69885,47,29,1
548.5525,548.69885,50,35,1
548.7476,548.894,47,29,1
548.7476,548.894,50,35,1
548.94275,549.0891,50,35,1
548.94275,549.0891,47,29,1
549.1379,549.28424,50,35,1
549.1379,549.28424,47,29,1
549.333,549.4794,47,29,1
549.333,549.4794,50,35,1
549.52814,549.6745,50,35,1
549.52814,549.6745,47,29,1
549.72327,549.86536,50,35,1
549.72327,549.86536,47,29,1
549.9127,550.0595,50,35,1
549.9127,550.0595,47,29,1
550.10846,550.2553,50,35,1
550.10846,550.2553,47,29,1
550.3044,550.4517,50,35,1
550.3044,550.4517,47,29,1
550.50073,550.6476,50,35,1
550.50073,550.6476,47,29,1
550.6964,550.8427,47,29,1
550.6964,550.8427,50,35,1
550.89136,551.0372,50,35,1
550.89136,551.0372,47,29,1
551.08563,551.23096,49,29,1
551.08563,551.23096,52,35,1
551.27924,551.42395,52,35,1
551.27924,551.42395,49,29,1
551.4721,552.03296,53,42,1
552.03296,552.12494,57,40,1
552.12494,552.2169,55,40,1
552.2169,552.4039,53,45,1
551.4721,552.4039,50,42,1
552.96967,553.4371,69,46,1
553.4371,553.5305,67,40,1
553.5305,553.62256,65,40,1
553.62256,553.71454,64,40,1
553.71454,553.9015,62,45,1
554.4673,554.6187,48,35,1
554.4673,554.6187,45,29,1
554.6692,554.81555,48,35,1
554.6692,554.81555,45,29,1
554.8643,555.0107,45,29,1
554.8643,555.0107,48,35,1
555.0595,555.2058,48,35,1
555.0595,555.2058,45,29,1
555.25464,555.40094,48,35,1
555.25464,555.40094,45,29,1
555.44977,555.5961,45,29,1
555.44977,555.5961,48,35,1
555.6449,555.79126,48,35,1
555.6449,555.79126,45,29,1
555.84,555.98206,48,35,1
555.84,555.98206,45,29,1
556.0294,556.1763,45,29,1
556.0294,556.1763,48,35,1
556.2252,556.3721,48,35,1
556.2252,556.3721,45,29,1
556.42114,556.5685,48,35,1
556.42114,556.5685,45,29,1
556.6175,556.76434,45,29,1
556.6175,556.76434,48,35,1
556.8132,556.9595,48,35,1
556.8132,556.9595,45,29,1
557.00806,557.1539,45,29,1
557.00806,557.1539,48,35,1
557.20233,557.34766,50,35,1
557.20233,557.34766,47,29,1
557.39594,557.5407,50,35,1
557.39594,557.5407,47,29,1
557.5888,558.14966,52,42,1
558.14966,558.24164,55,40,1
558.24164,558.3337,53,40,1
558.3337,558.5206,52,45,1
557.5888,558.5206,48,42,1
559.03845,559.0864,48,36,1
559.0864,559.5538,64,46,1
559.5538,559.6473,62,40,1
559.6473,559.73926,60,40,1
559.73926,559.83124,59,40,1
559.83124,560.0182,57,45,1
560.584,561.14484,53,44,1
561.14484,561.2368,57,43,1
561.2368,561.32886,55,43,1
561.32886,561.5158,53,49,1
560.584,561.5158,50,44,1
562.0336,562.0816,50,35,1
562.0816,562.54895,65,55,1
562.54895,562.64246,64,46,1
562.64246,562.73444,62,46,1
562.73444,562.8264,60,46,1
562.8264,563.2003,59,52,1
563.5312,563.60364,52,40,1
563.60364,564.07104,67,64,1
564.07104,564.1645,65,52,1
564.1645,564.2565,64,51,1
564.2565,564.34845,62,51,1
564.34845,564.7224,61,56,1
565.0533,565.1257,53,46,1
565.1257,565.49963,69,73,1
565.49963,565.5931,67,60,1
565.5931,565.6866,65,60,1
565.6866,565.78326,64,60,1
565.78326,565.83276,62,59,1
565.83276,565.89575,55,47,1
565.89575,566.26965,71,75,1
566.26965,566.3631,69,62,1
566.3631,566.45667,67,62,1
566.45667,566.55225,65,63,1
566.55225,566.60095,64,62,1
566.60095,566.66235,57,50,1
566.66235,567.03625,72,78,1
567.03625,567.1297,71,64,1
567.1297,567.2232,69,64,1
567.2232,567.3185,67,65,1
567.3185,567.3674,65,64,1
567.3674,567.4288,59,54,1
567.4288,567.8027,74,81,1
567.8027,567.8962,72,67,1
567.8962,567.98975,71,67,1
567.98975,568.08527,69,67,1
568.08527,568.134,67,66,1
568.134,568.19385,60,56,1
568.19385,568.56775,76,84,1
568.56775,568.66125,74,69,1
568.66125,568.7548,72,70,1
568.7548,568.8529,71,70,1
568.8529,568.90356,69,69,1
568.90356,568.96344,62,58,1
568.96344,569.33734,77,87,1
569.33734,569.43085,76,71,1
569.43085,569.5244,74,72,1
569.5244,569.61993,72,72,1
569.61993,569.7183,71,71,1
569.7183,569.78204,64,78,1
569.78204,569.8458,72,74,1
569.8458,569.9096,76,74,1
570.1009,570.1646,64,79,1
570.1646,570.2284,72,74,1
570.2284,570.2921,76,75,1
570.4834,570.547,64,81,1
570.547,570.6107,72,77,1
570.6107,570.6747,76,77,1
570.86786,570.9327,64,81,1
570.9327,570.99774,72,78,1
570.99774,571.063,76,79,1
571.2602,571.6413,65,75,1
571.2602,571.6413,77,75,1
571.2602,571.6413,72,75,1
573.1414,573.6112,29,75,1
573.6112,573.70496,31,68,1
573.70496,573.7988,33,69,1
573.7988,573.8929,35,70,1
573.8929,573.9871,36,71,1
573.9871,574.0815,38,73,1
574.0815,574.176,40,74,1
574.176,574.2706,41,75,1
574.2706,574.6504,40,75,1
574.2706,574.6504,36,63,1
574.2706,574.6504,31,63,1
577.76965,577.86346,76,52,1
577.86346,577.9572,75,52,1
577.9572,578.0603,76,53,1
578.0603,578.1072,67,60,1
578.15405,578.2478,72,54,1
578.2478,578.34155,71,55,1
578.34155,578.4416,72,55,1
578.4416,578.48846,67,61,1
578.53534,578.6291,76,56,1
578.6291,578.72284,75,56,1
578.72284,578.8225,76,56,1
578.8225,578.8694,67,63,1
578.91626,579.01,72,57,1
579.01,579.10376,71,58,1
579.10376,579.20245,72,58,1
579.20245,579.2493,67,65,1
579.2962,579.38995,76,59,1
579.38995,579.4837,75,59,1
579.4837,579.58203,76,59,1
579.58203,579.6291,67,67,1
579.6761,579.77014,72,60,1
579.77014,579.8642,71,60,1
579.8642,579.9582,72,61,1
579.9582,580.00525,67,69,1
580.0529,580.15063,76,62,1
580.15063,580.25977,75,62,1
580.25977,580.388,76,63,1
580.388,582.7283,77,73,1
580.388,582.7283,67,73,1
580.388,582.7283,74,73,1
582.7283,585.3481,62,65,1
582.7283,585.3481,55,65,1
582.7283,585.3481,65,65,1
585.3481,586.2385,36,33,1
585.3481,586.2385,48,39,1
586.2385,586.67395,32,29,1
586.2385,586.67395,44,29,1
586.67395,587.1347,33,29,1
586.67395,587.1347,45,35,1
587.1347,588.0285,40,39,1
588.0285,588.9434,41,34,1
588.9434,589.84393,50,34,1
588.9434,589.84393,53,41,1
588.9434,589.84393,55,34,1
588.9434,589.84393,59,41,1
589.84393,590.28424,52,38,1
589.84393,590.28424,60,46,1
589.84393,590.28424,55,38,1
590.28424,590.7714,57,43,1
590.28424,590.7714,62,51,1
590.28424,590.7714,53,43,1
590.28424,590.7714,60,43,1
590.7714,591.6652,64,56,1
590.7714,591.6652,60,46,1
591.6652,592.5889,62,49,1
591.6652,592.5889,59,41,1
590.7714,592.5889,55,46,1
592.5889,593.4681,72,42,1
592.5889,593.4681,76,50,1
593.4681,593.8966,71,40,1
593.4681,593.8966,68,40,1
593.4681,593.8966,74,48,1
593.8966,594.3459,72,48,1
593.8966,594.3459,69,40,1
594.3459,595.2174,71,50,1
594.3459,595.2174,68,42,1
594.3459,595.2174,64,42,1
595.2174,596.12305,69,48,1
595.2174,596.12305,65,40,1
596.12305,596.5758,64,40,1
596.12305,596.5758,60,34,1
596.5758,598.8811,62,29,1
596.5758,598.8811,65,35,1
596.12305,598.8811,55,34,1
598.8811,599.3661,48,34,1
598.8811,599.3661,52,40,1
599.3661,603.34973,53,35,1
599.3661,603.34973,50,29,1
598.8811,603.34973,43,34,1
603.34973,603.8348,40,40,1
603.34973,603.8348,36,34,1
603.8348,607.8184,41,35,1
603.8348,607.8184,38,29,1
603.34973,607.8184,31,34,1
607.8184,607.9089,36,25,1
607.8184,607.9089,48,25,1
607.99927,608.08966,48,22,1
607.99927,608.08966,55,26,1
608.1801,608.2699,48,22,1
608.1801,608.2699,55,26,1
608.35974,608.4496,48,22,1
608.35974,608.4496,55,27,1
608.5394,608.63,55,27,1
608.5394,608.63,48,22,1
608.7207,608.8114,48,23,1
608.7207,608.8114,55,28,1
608.9021,608.99225,48,23,1
608.9021,608.99225,55,28,1
609.08234,609.1725,48,24,1
609.08234,609.1725,55,29,1
609.2626,609.3529,55,30,1
609.2626,609.3529,48,25,1
609.4433,609.53375,55,27,1
609.4433,609.53375,48,22,1
609.62415,609.7143,55,28,1
609.62415,609.7143,48,23,1
609.8044,609.89453,48,24,1
609.8044,609.89453,55,29,1
609.9846,610.0751,48,25,1
609.9846,610.0751,55,30,1
610.16547,610.2559,55,30,1
610.16547,610.2559,48,25,1
610.3463,610.4367,48,25,1
610.3463,610.4367,57,30,1
610.52716,610.61755,57,30,1
610.52716,610.61755,48,25,1
610.70795,610.84357,55,34,1
610.70795,610.84357,50,28,1
610.70795,610.84357,47,28,1
610.8888,611.02185,50,28,1
610.8888,611.02185,47,28,1
610.8888,611.02185,55,34,1
611.0662,611.20184,55,34,1
611.0662,611.20184,50,28,1
611.0662,611.20184,47,28,1
611.247,611.3826,55,35,1
611.247,611.3826,50,28,1
611.247,611.3826,47,28,1
611.42786,611.5635,55,42,1
611.42786,611.5635,48,34,1
611.42786,611.5635,46,34,1
611.6087,611.74176,48,34,1
611.6087,611.74176,46,34,1
611.6087,611.74176,55,42,1
611.7861,611.9217,46,35,1
611.7861,611.9217,48,35,1
611.7861,611.9217,55,42,1
611.9669,612.10254,48,35,1
611.9669,612.10254,46,35,1
611.9669,612.10254,55,43,1
612.14777,612.2834,53,48,1
612.14777,612.2834,48,38,1
612.14777,612.2834,45,38,1
612.32855,612.4616,53,48,1
612.32855,612.4616,48,38,1
612.32855,612.4616,45,38,1
612.506,612.6416,53,49,1
612.506,612.6416,48,39,1
612.506,612.6416,45,39,1
612.68677,612.82245,48,39,1
612.68677,612.82245,53,49,1
612.68677,612.82245,45,39,1
612.8676,613.00323,53,62,1
612.8676,613.00323,48,62,1
612.8676,613.00323,44,62,1
613.04846,613.1841,44,55,1
613.04846,613.1841,32,55,1
613.2293,613.3649,44,55,1
613.2293,613.3649,32,55,1
613.4101,613.5458,44,55,1
613.4101,613.5458,32,55,1
613.59094,613.6814,31,56,1
613.59094,613.6814,43,56,1
613.6814,613.7718,33,57,1
613.7718,613.8622,35,57,1
613.8622,613.95264,36,58,1
613.95264,614.043,38,59,1
614.043,614.1334,40,59,1
614.1334,614.2239,41,60,1
614.2239,614.3143,43,62,1
614.3143,614.4049,45,62,1
614.4049,614.49634,47,63,1
614.49634,614.5886,48,63,1
614.5886,614.6818,50,64,1
614.6818,614.7759,52,65,1
614.7759,614.8709,53,66,1
614.8709,614.96686,55,67,1
614.96686,615.0638,57,68,1
615.0638,615.2589,41,66,1
615.0638,615.2589,53,78,1
615.45404,615.6492,55,78,1
615.45404,615.6492,43,66,1
615.45404,615.6492,47,66,1
615.45404,615.6492,50,78,1
616.6249,616.82,52,66,1
616.6249,616.82,60,78,1
616.6249,616.82,55,78,1
616.6249,616.82,48,66,1
617.4054,617.6005,55,78,1
617.4054,617.6005,47,66,1
617.4054,617.6005,43,66,1
617.4054,617.6005,50,78,1
618.2203,618.43256,48,77,1
618.2203,618.43256,36,65,1
618.2203,618.43256,40,65,1
618.2203,618.43256,43,77,1
